0, 0, Header, 1, 32, 120
1, 0, Start_track
1, 0, Time_signature, 12, 3, 12, 8
1, 0, Key_signature, 1, "major"
1, 0, Tempo, 857143
1, 0, Marker_t, "Sinfonia"
1, 45360, Time_signature, 4, 2, 24, 8
1, 45360, Tempo, 750000
1, 45360, Marker_t, "Recit Evangelist"
1, 50160, Marker_t, "Choral"
1, 51302, Tempo, 750000
1, 51310, Tempo, 759494
1, 51312, Tempo, 769231
1, 51314, Tempo, 779221
1, 51316, Tempo, 789474
1, 51318, Tempo, 800000
1, 51320, Tempo, 810811
1, 51322, Tempo, 821918
1, 51324, Tempo, 833333
1, 51326, Tempo, 845070
1, 51328, Tempo, 857143
1, 51330, Tempo, 869565
1, 51332, Tempo, 882353
1, 51334, Tempo, 895522
1, 51336, Tempo, 923077
1, 51338, Tempo, 937500
1, 51340, Tempo, 952381
1, 51342, Tempo, 983607
1, 51344, Tempo, 1000000
1, 51346, Tempo, 1016949
1, 51348, Tempo, 1052632
1, 51350, Tempo, 1071429
1, 51352, Tempo, 1090909
1, 51354, Tempo, 1111111
1, 51356, Tempo, 1153846
1, 51360, Tempo, 1200000
1, 51364, Tempo, 1250000
1, 51366, Tempo, 1333333
1, 51370, Tempo, 1363636
1, 51374, Tempo, 1395349
1, 51376, Tempo, 1428571
1, 51378, Tempo, 1463415
1, 51380, Tempo, 1500000
1, 51382, Tempo, 1538462
1, 51388, Tempo, 1578947
1, 51392, Tempo, 1621622
1, 51480, Tempo, 759494
1, 52274, Tempo, 759494
1, 52280, Tempo, 779221
1, 52284, Tempo, 845070
1, 52288, Tempo, 923077
1, 52300, Tempo, 1052632
1, 52304, Tempo, 1090909
1, 52316, Tempo, 1224490
1, 52328, Tempo, 1276596
1, 52332, Tempo, 1333333
1, 52344, Tempo, 1395349
1, 52346, Tempo, 1463415
1, 52358, Tempo, 1500000
1, 52362, Tempo, 1538462
1, 52374, Tempo, 1621622
1, 52376, Tempo, 1714286
1, 52380, Tempo, 1818182
1, 52382, Tempo, 1935484
1, 52388, Tempo, 2000000
1, 52390, Tempo, 2068966
1, 52394, Tempo, 2222222
1, 52396, Tempo, 2400000
1, 52438, Tempo, 759494
1, 53192, Tempo, 731707
1, 53198, Tempo, 740741
1, 53202, Tempo, 750000
1, 53208, Tempo, 759494
1, 53212, Tempo, 769231
1, 53216, Tempo, 779221
1, 53222, Tempo, 789474
1, 53226, Tempo, 800000
1, 53230, Tempo, 810811
1, 53236, Tempo, 821918
1, 53240, Tempo, 833333
1, 53246, Tempo, 845070
1, 53250, Tempo, 857143
1, 53254, Tempo, 869565
1, 53260, Tempo, 882353
1, 53264, Tempo, 895522
1, 53268, Tempo, 909091
1, 53274, Tempo, 923077
1, 53278, Tempo, 937500
1, 53284, Tempo, 952381
1, 53288, Tempo, 967742
1, 53292, Tempo, 983607
1, 53298, Tempo, 1000000
1, 53302, Tempo, 1016949
1, 53306, Tempo, 1034483
1, 53312, Tempo, 1052632
1, 53316, Tempo, 1071429
1, 53322, Tempo, 1090909
1, 53326, Tempo, 1111111
1, 53330, Tempo, 1132075
1, 53336, Tempo, 1153846
1, 53340, Tempo, 1176471
1, 53344, Tempo, 1200000
1, 53350, Tempo, 1224490
1, 53354, Tempo, 1250000
1, 53360, Tempo, 1276596
1, 53364, Tempo, 1304348
1, 53368, Tempo, 1333333
1, 53374, Tempo, 1363636
1, 53378, Tempo, 1395349
1, 53382, Tempo, 1428571
1, 53388, Tempo, 1463415
1, 53392, Tempo, 1500000
1, 53396, Tempo, 1538462
1, 53400, Tempo, 759494
1, 54182, Tempo, 740741
1, 54188, Tempo, 750000
1, 54192, Tempo, 759494
1, 54196, Tempo, 769231
1, 54200, Tempo, 779221
1, 54204, Tempo, 789474
1, 54208, Tempo, 800000
1, 54212, Tempo, 810811
1, 54216, Tempo, 821918
1, 54220, Tempo, 833333
1, 54224, Tempo, 845070
1, 54228, Tempo, 857143
1, 54232, Tempo, 869565
1, 54236, Tempo, 882353
1, 54240, Tempo, 895522
1, 54244, Tempo, 909091
1, 54248, Tempo, 923077
1, 54252, Tempo, 937500
1, 54256, Tempo, 952381
1, 54260, Tempo, 967742
1, 54264, Tempo, 983607
1, 54268, Tempo, 1000000
1, 54274, Tempo, 1016949
1, 54278, Tempo, 1034483
1, 54282, Tempo, 1052632
1, 54286, Tempo, 1071429
1, 54290, Tempo, 1090909
1, 54294, Tempo, 1111111
1, 54298, Tempo, 1132075
1, 54302, Tempo, 1153846
1, 54306, Tempo, 1176471
1, 54310, Tempo, 1200000
1, 54314, Tempo, 1224490
1, 54318, Tempo, 1250000
1, 54322, Tempo, 1276596
1, 54326, Tempo, 1304348
1, 54330, Tempo, 1333333
1, 54334, Tempo, 1363636
1, 54338, Tempo, 1395349
1, 54342, Tempo, 1428571
1, 54346, Tempo, 1463415
1, 54350, Tempo, 1500000
1, 54354, Tempo, 1538462
1, 54358, Tempo, 1578947
1, 54360, Tempo, 750000
1, 55054, Tempo, 731707
1, 55116, Tempo, 740741
1, 55176, Tempo, 750000
1, 55178, Tempo, 759494
1, 55180, Tempo, 769231
1, 55182, Tempo, 779221
1, 55184, Tempo, 789474
1, 55186, Tempo, 800000
1, 55188, Tempo, 821918
1, 55190, Tempo, 833333
1, 55192, Tempo, 845070
1, 55194, Tempo, 857143
1, 55196, Tempo, 869565
1, 55198, Tempo, 895522
1, 55200, Tempo, 909091
1, 55202, Tempo, 923077
1, 55204, Tempo, 937500
1, 55206, Tempo, 952381
1, 55208, Tempo, 967742
1, 55210, Tempo, 1000000
1, 55212, Tempo, 1016949
1, 55214, Tempo, 1034483
1, 55216, Tempo, 1052632
1, 55218, Tempo, 1071429
1, 55220, Tempo, 1111111
1, 55222, Tempo, 1132075
1, 55224, Tempo, 1153846
1, 55226, Tempo, 1176471
1, 55228, Tempo, 1200000
1, 55230, Tempo, 1224490
1, 55232, Tempo, 1276596
1, 55234, Tempo, 1304348
1, 55236, Tempo, 1333333
1, 55238, Tempo, 1363636
1, 55240, Tempo, 1395349
1, 55242, Tempo, 1463415
1, 55244, Tempo, 1500000
1, 55246, Tempo, 1538462
1, 55248, Tempo, 1578947
1, 55250, Tempo, 1621622
1, 55252, Tempo, 1666667
1, 55254, Tempo, 1764706
1, 55256, Tempo, 1818182
1, 55258, Tempo, 1875000
1, 55260, Tempo, 1935484
1, 55262, Tempo, 2000000
1, 55264, Tempo, 2142857
1, 55322, Tempo, 750000
1, 56018, Tempo, 731707
1, 56044, Tempo, 759494
1, 56114, Tempo, 759494
1, 56118, Tempo, 769231
1, 56120, Tempo, 779221
1, 56122, Tempo, 789474
1, 56124, Tempo, 800000
1, 56126, Tempo, 810811
1, 56128, Tempo, 821918
1, 56130, Tempo, 833333
1, 56132, Tempo, 845070
1, 56134, Tempo, 857143
1, 56136, Tempo, 869565
1, 56138, Tempo, 882353
1, 56140, Tempo, 895522
1, 56142, Tempo, 909091
1, 56144, Tempo, 923077
1, 56146, Tempo, 937500
1, 56148, Tempo, 952381
1, 56150, Tempo, 967742
1, 56152, Tempo, 983607
1, 56154, Tempo, 1000000
1, 56158, Tempo, 1016949
1, 56160, Tempo, 1034483
1, 56162, Tempo, 1052632
1, 56164, Tempo, 1071429
1, 56166, Tempo, 1090909
1, 56168, Tempo, 1111111
1, 56170, Tempo, 1132075
1, 56172, Tempo, 1153846
1, 56174, Tempo, 1176471
1, 56176, Tempo, 1200000
1, 56178, Tempo, 1224490
1, 56180, Tempo, 1250000
1, 56182, Tempo, 1276596
1, 56184, Tempo, 1304348
1, 56186, Tempo, 1333333
1, 56188, Tempo, 1363636
1, 56190, Tempo, 1395349
1, 56192, Tempo, 1428571
1, 56194, Tempo, 1463415
1, 56196, Tempo, 1500000
1, 56200, Tempo, 1538462
1, 56202, Tempo, 1578947
1, 56204, Tempo, 1621622
1, 56206, Tempo, 1666667
1, 56208, Tempo, 1714286
1, 56210, Tempo, 1764706
1, 56212, Tempo, 1818182
1, 56214, Tempo, 1875000
1, 56216, Tempo, 1935484
1, 56218, Tempo, 2000000
1, 56220, Tempo, 2068966
1, 56222, Tempo, 2142857
1, 56224, Tempo, 2222222
1, 56226, Tempo, 2307692
1, 56228, Tempo, 2400000
1, 56230, Tempo, 2500000
1, 56232, Tempo, 2608696
1, 56234, Tempo, 2727273
1, 56236, Tempo, 2857143
1, 56238, Tempo, 3000000
1, 56274, Tempo, 759494
1, 57076, Tempo, 750000
1, 57080, Tempo, 759494
1, 57082, Tempo, 769231
1, 57084, Tempo, 779221
1, 57086, Tempo, 789474
1, 57088, Tempo, 800000
1, 57092, Tempo, 810811
1, 57094, Tempo, 821918
1, 57096, Tempo, 833333
1, 57098, Tempo, 845070
1, 57100, Tempo, 857143
1, 57102, Tempo, 869565
1, 57106, Tempo, 882353
1, 57108, Tempo, 895522
1, 57110, Tempo, 909091
1, 57112, Tempo, 923077
1, 57114, Tempo, 937500
1, 57118, Tempo, 952381
1, 57120, Tempo, 967742
1, 57122, Tempo, 983607
1, 57124, Tempo, 1000000
1, 57126, Tempo, 1016949
1, 57128, Tempo, 1034483
1, 57132, Tempo, 1052632
1, 57134, Tempo, 1071429
1, 57136, Tempo, 1090909
1, 57138, Tempo, 1111111
1, 57140, Tempo, 1132075
1, 57144, Tempo, 1153846
1, 57146, Tempo, 1176471
1, 57148, Tempo, 1200000
1, 57150, Tempo, 1224490
1, 57152, Tempo, 1250000
1, 57154, Tempo, 1276596
1, 57158, Tempo, 1304348
1, 57160, Tempo, 1333333
1, 57162, Tempo, 1363636
1, 57164, Tempo, 1395349
1, 57166, Tempo, 1428571
1, 57170, Tempo, 1463415
1, 57172, Tempo, 1500000
1, 57174, Tempo, 1538462
1, 57176, Tempo, 1578947
1, 57178, Tempo, 1621622
1, 57180, Tempo, 1666667
1, 57184, Tempo, 1714286
1, 57186, Tempo, 1764706
1, 57188, Tempo, 1818182
1, 57190, Tempo, 1875000
1, 57192, Tempo, 1935484
1, 57196, Tempo, 2000000
1, 57198, Tempo, 2068966
1, 57200, Tempo, 2142857
1, 57202, Tempo, 2222222
1, 57204, Tempo, 2307692
1, 57206, Tempo, 2400000
1, 57244, Tempo, 750000
1, 57938, Tempo, 740741
1, 57946, Tempo, 750000
1, 57952, Tempo, 759494
1, 57958, Tempo, 769231
1, 57964, Tempo, 779221
1, 57972, Tempo, 789474
1, 57978, Tempo, 800000
1, 57984, Tempo, 810811
1, 57990, Tempo, 821918
1, 57998, Tempo, 833333
1, 58004, Tempo, 845070
1, 58010, Tempo, 857143
1, 58016, Tempo, 869565
1, 58024, Tempo, 882353
1, 58030, Tempo, 895522
1, 58036, Tempo, 909091
1, 58042, Tempo, 923077
1, 58050, Tempo, 923077
1, 58054, Tempo, 937500
1, 58056, Tempo, 952381
1, 58058, Tempo, 967742
1, 58062, Tempo, 983607
1, 58064, Tempo, 1000000
1, 58066, Tempo, 1016949
1, 58068, Tempo, 1034483
1, 58072, Tempo, 1052632
1, 58074, Tempo, 1071429
1, 58076, Tempo, 1090909
1, 58078, Tempo, 1111111
1, 58082, Tempo, 1132075
1, 58084, Tempo, 1153846
1, 58086, Tempo, 1176471
1, 58088, Tempo, 1200000
1, 58092, Tempo, 1224490
1, 58094, Tempo, 1250000
1, 58096, Tempo, 1276596
1, 58098, Tempo, 1304348
1, 58102, Tempo, 1333333
1, 58104, Tempo, 1363636
1, 58106, Tempo, 1395349
1, 58110, Tempo, 1428571
1, 58112, Tempo, 1463415
1, 58114, Tempo, 1500000
1, 58116, Tempo, 1538462
1, 58120, Tempo, 1578947
1, 58122, Tempo, 1621622
1, 58124, Tempo, 1666667
1, 58126, Tempo, 1714286
1, 58130, Tempo, 1764706
1, 58132, Tempo, 1818182
1, 58134, Tempo, 1875000
1, 58136, Tempo, 1935484
1, 58140, Tempo, 2000000
1, 58142, Tempo, 2068966
1, 58144, Tempo, 2142857
1, 58146, Tempo, 2222222
1, 58150, Tempo, 2307692
1, 58152, Tempo, 2400000
1, 58154, Tempo, 2500000
1, 58158, Tempo, 2608696
1, 58160, Tempo, 2727273
1, 58162, Tempo, 2857143
1, 58164, Tempo, 3000000
1, 58168, Tempo, 3157895
1, 58170, Tempo, 3333333
1, 58172, Tempo, 3529412
1, 58174, Tempo, 3750000
1, 58178, Tempo, 4000000
1, 58180, Tempo, 4285714
1, 58182, Tempo, 4615385
1, 58184, Tempo, 5000000
1, 58188, Tempo, 5454545
1, 58190, Tempo, 6000000
1, 58192, Tempo, 6000000
1, 58194, Tempo, 6000000
1, 58320, Tempo, 750000
1, 58320, Marker_t, "Recit"
1, 62160, Time_signature, 2, 2, 24, 8
1, 62400, Time_signature, 4, 2, 24, 8
1, 62400, Marker_t, "Recit Basso"
1, 66720, Time_signature, 2, 2, 24, 8
1, 66720, Marker_t, "Aria Tenore"
1, 66960, Time_signature, 3, 3, 12, 8
1, 66960, Tempo, 1200000
1, 90720, Time_signature, 4, 2, 24, 8
1, 90720, Marker_t, "Recit Evangelist"
1, 92640, Key_signature, 0, "major"
1, 92640, Marker_t, "Choral"
1, 93840, Tempo, 1176471
1, 93846, Tempo, 1200000
1, 93850, Tempo, 1224490
1, 93854, Tempo, 1250000
1, 93858, Tempo, 1276596
1, 93862, Tempo, 1304348
1, 93866, Tempo, 1333333
1, 93870, Tempo, 1363636
1, 93874, Tempo, 1395349
1, 93878, Tempo, 1428571
1, 93884, Tempo, 1463415
1, 93888, Tempo, 1500000
1, 93892, Tempo, 1538462
1, 93896, Tempo, 1578947
1, 93900, Tempo, 1621622
1, 93904, Tempo, 1666667
1, 93908, Tempo, 1714286
1, 93912, Tempo, 1764706
1, 93916, Tempo, 1818182
1, 93922, Tempo, 1875000
1, 93926, Tempo, 1935484
1, 93930, Tempo, 2000000
1, 93934, Tempo, 2068966
1, 93938, Tempo, 2142857
1, 93942, Tempo, 2222222
1, 93946, Tempo, 2307692
1, 93950, Tempo, 2400000
1, 93954, Tempo, 2500000
1, 93958, Tempo, 2608696
1, 93960, Tempo, 1224490
1, 94776, Tempo, 1200000
1, 94782, Tempo, 1224490
1, 94786, Tempo, 1250000
1, 94790, Tempo, 1276596
1, 94794, Tempo, 1304348
1, 94800, Tempo, 1333333
1, 94804, Tempo, 1363636
1, 94808, Tempo, 1395349
1, 94812, Tempo, 1428571
1, 94816, Tempo, 1463415
1, 94822, Tempo, 1500000
1, 94826, Tempo, 1538462
1, 94830, Tempo, 1578947
1, 94834, Tempo, 1621622
1, 94838, Tempo, 1666667
1, 94844, Tempo, 1714286
1, 94848, Tempo, 1764706
1, 94852, Tempo, 1818182
1, 94856, Tempo, 1875000
1, 94862, Tempo, 1935484
1, 94866, Tempo, 2000000
1, 94870, Tempo, 2068966
1, 94874, Tempo, 2142857
1, 94878, Tempo, 2222222
1, 94884, Tempo, 2307692
1, 94888, Tempo, 2400000
1, 94892, Tempo, 2500000
1, 94896, Tempo, 2608696
1, 94900, Tempo, 2727273
1, 94906, Tempo, 2857143
1, 94910, Tempo, 3000000
1, 94914, Tempo, 3157895
1, 94918, Tempo, 1200000
1, 95722, Tempo, 1153846
1, 95728, Tempo, 1176471
1, 95734, Tempo, 1200000
1, 95738, Tempo, 1224490
1, 95744, Tempo, 1250000
1, 95748, Tempo, 1276596
1, 95754, Tempo, 1304348
1, 95758, Tempo, 1333333
1, 95764, Tempo, 1363636
1, 95768, Tempo, 1395349
1, 95774, Tempo, 1428571
1, 95778, Tempo, 1463415
1, 95784, Tempo, 1500000
1, 95788, Tempo, 1538462
1, 95794, Tempo, 1578947
1, 95798, Tempo, 1621622
1, 95804, Tempo, 1666667
1, 95808, Tempo, 1714286
1, 95814, Tempo, 1764706
1, 95818, Tempo, 1818182
1, 95824, Tempo, 1875000
1, 95828, Tempo, 1935484
1, 95834, Tempo, 2000000
1, 95838, Tempo, 2068966
1, 95844, Tempo, 2142857
1, 95848, Tempo, 2222222
1, 95854, Tempo, 2307692
1, 95858, Tempo, 2400000
1, 95864, Tempo, 2500000
1, 95868, Tempo, 2608696
1, 95874, Tempo, 2727273
1, 95878, Tempo, 1200000
1, 96702, Tempo, 1153846
1, 96708, Tempo, 1176471
1, 96712, Tempo, 1200000
1, 96716, Tempo, 1224490
1, 96720, Tempo, 1250000
1, 96726, Tempo, 1276596
1, 96730, Tempo, 1304348
1, 96734, Tempo, 1333333
1, 96738, Tempo, 1363636
1, 96744, Tempo, 1395349
1, 96748, Tempo, 1428571
1, 96752, Tempo, 1463415
1, 96756, Tempo, 1500000
1, 96760, Tempo, 1538462
1, 96766, Tempo, 1578947
1, 96770, Tempo, 1621622
1, 96774, Tempo, 1666667
1, 96778, Tempo, 1714286
1, 96784, Tempo, 1764706
1, 96788, Tempo, 1818182
1, 96792, Tempo, 1875000
1, 96796, Tempo, 1935484
1, 96800, Tempo, 2000000
1, 96806, Tempo, 2068966
1, 96810, Tempo, 2142857
1, 96814, Tempo, 2222222
1, 96818, Tempo, 2307692
1, 96824, Tempo, 2400000
1, 96828, Tempo, 2500000
1, 96832, Tempo, 2608696
1, 96836, Tempo, 2727273
1, 96840, Tempo, 2857143
1, 96960, Tempo, 1200000
1, 96960, Marker_t, "Recit Basso"
1, 101280, Time_signature, 2, 2, 24, 8
1, 101280, Key_signature, 1, "major"
1, 101520, Marker_t, "Aria Alto"
1, 165120, Time_signature, 4, 2, 24, 8
1, 165120, Marker_t, "Recit Evangelist"
1, 167040, Time_signature, 2, 2, 24, 8
1, 167040, Marker_t, "Coro Vivace"
1, 167280, Time_signature, 4, 2, 24, 8
1, 167280, Tempo, 600000
1, 197282, Tempo, 594059
1, 197294, Tempo, 600000
1, 197306, Tempo, 606061
1, 197318, Tempo, 612245
1, 197330, Tempo, 618557
1, 197340, Tempo, 625000
1, 197352, Tempo, 631579
1, 197364, Tempo, 638298
1, 197376, Tempo, 645161
1, 197386, Tempo, 652174
1, 197398, Tempo, 659341
1, 197410, Tempo, 666667
1, 197422, Tempo, 674157
1, 197432, Tempo, 681818
1, 197444, Tempo, 689655
1, 197456, Tempo, 697674
1, 197468, Tempo, 705882
1, 197478, Tempo, 714286
1, 197490, Tempo, 722892
1, 197502, Tempo, 731707
1, 197514, Tempo, 740741
1, 197524, Tempo, 750000
1, 197536, Tempo, 759494
1, 197548, Tempo, 769231
1, 197560, Tempo, 779221
1, 197570, Tempo, 789474
1, 197582, Tempo, 800000
1, 197594, Tempo, 810811
1, 197606, Tempo, 821918
1, 197616, Tempo, 833333
1, 197628, Tempo, 845070
1, 197640, Tempo, 857143
1, 197652, Tempo, 869565
1, 197664, Tempo, 882353
1, 197674, Tempo, 895522
1, 197686, Tempo, 909091
1, 197698, Tempo, 923077
1, 197710, Tempo, 937500
1, 197720, Tempo, 952381
1, 197732, Tempo, 967742
1, 197744, Tempo, 983607
1, 197756, Tempo, 1000000
1, 197766, Tempo, 1016949
1, 197778, Tempo, 1034483
1, 197790, Tempo, 1052632
1, 197802, Tempo, 1071429
1, 197812, Tempo, 1090909
1, 197824, Tempo, 1111111
1, 197836, Tempo, 1132075
1, 197848, Tempo, 1153846
1, 197858, Tempo, 1176471
1, 197870, Tempo, 1200000
1, 197882, Tempo, 1224490
1, 197894, Tempo, 1250000
1, 197904, Tempo, 1276596
1, 197916, Tempo, 1304348
1, 197928, Tempo, 1333333
1, 197940, Tempo, 1363636
1, 197950, Tempo, 1395349
1, 197962, Tempo, 1428571
1, 197974, Tempo, 1463415
1, 197986, Tempo, 1500000
1, 197996, Tempo, 1538462
1, 198480, Tempo, 1000000
1, 198480, Marker_t, "Recit Basso"
1, 201360, Time_signature, 12, 3, 12, 8
1, 201360, Tempo, 750000
1, 201360, Marker_t, "Choral"
1, 211324, Tempo, 750000
1, 211334, Tempo, 759494
1, 211342, Tempo, 769231
1, 211350, Tempo, 779221
1, 211360, Tempo, 789474
1, 211368, Tempo, 800000
1, 211376, Tempo, 810811
1, 211386, Tempo, 821918
1, 211394, Tempo, 833333
1, 211402, Tempo, 845070
1, 211410, Tempo, 857143
1, 211420, Tempo, 869565
1, 211428, Tempo, 882353
1, 211436, Tempo, 895522
1, 211446, Tempo, 909091
1, 211454, Tempo, 923077
1, 211462, Tempo, 937500
1, 211470, Tempo, 952381
1, 211480, Tempo, 967742
1, 211488, Tempo, 983607
1, 211496, Tempo, 1000000
1, 211506, Tempo, 1016949
1, 211514, Tempo, 1034483
1, 211522, Tempo, 1052632
1, 211530, Tempo, 1071429
1, 211540, Tempo, 1090909
1, 211548, Tempo, 1111111
1, 211556, Tempo, 1132075
1, 211566, Tempo, 1153846
1, 211574, Tempo, 1176471
1, 211582, Tempo, 1200000
1, 211590, Tempo, 1224490
1, 211600, Tempo, 1250000
1, 211608, Tempo, 1276596
1, 211616, Tempo, 1304348
1, 211626, Tempo, 1333333
1, 211634, Tempo, 1363636
1, 211642, Tempo, 1395349
1, 211650, Tempo, 1428571
1, 211660, Tempo, 1463415
1, 211668, Tempo, 1500000
1, 211676, Tempo, 1538462
1, 211686, Tempo, 1578947
1, 211694, Tempo, 1621622
1, 211702, Tempo, 1666667
1, 211710, Tempo, 1714286
1, 211710, End_track
2, 0, Start_track
2, 0, MIDI_port, 0
2, 0, Title_t, "Flauta I"
2, 0, Program_c, 0, 73
2, 0, Control_c, 0, 7, 127
2, 0, Control_c, 0, 10, 45
2, 0, Note_on_c, 0, 71, 110
2, 90, Note_on_c, 0, 71, 0
2, 90, Note_on_c, 0, 74, 110
2, 120, Note_on_c, 0, 74, 0
2, 120, Note_on_c, 0, 79, 110
2, 180, Note_on_c, 0, 79, 0
2, 180, Note_on_c, 0, 79, 110
2, 270, Note_on_c, 0, 79, 0
2, 270, Note_on_c, 0, 78, 110
2, 300, Note_on_c, 0, 78, 0
2, 300, Note_on_c, 0, 79, 110
2, 360, Note_on_c, 0, 79, 0
2, 360, Note_on_c, 0, 67, 110
2, 540, Note_on_c, 0, 67, 0
2, 660, Note_on_c, 0, 67, 110
2, 810, Note_on_c, 0, 67, 0
2, 810, Note_on_c, 0, 69, 110
2, 840, Note_on_c, 0, 69, 0
2, 840, Note_on_c, 0, 67, 110
2, 900, Note_on_c, 0, 67, 0
2, 900, Note_on_c, 0, 66, 110
2, 990, Note_on_c, 0, 66, 0
2, 990, Note_on_c, 0, 69, 110
2, 1020, Note_on_c, 0, 69, 0
2, 1020, Note_on_c, 0, 72, 110
2, 1080, Note_on_c, 0, 72, 0
2, 1080, Note_on_c, 0, 71, 110
2, 1260, Note_on_c, 0, 71, 0
2, 1380, Note_on_c, 0, 77, 110
2, 1530, Note_on_c, 0, 77, 0
2, 1530, Note_on_c, 0, 76, 110
2, 1560, Note_on_c, 0, 76, 0
2, 1560, Note_on_c, 0, 81, 110
2, 1620, Note_on_c, 0, 81, 0
2, 1620, Note_on_c, 0, 79, 110
2, 1650, Note_on_c, 0, 79, 0
2, 1650, Note_on_c, 0, 78, 110
2, 1740, Note_on_c, 0, 78, 0
2, 1740, Note_on_c, 0, 76, 110
2, 1890, Note_on_c, 0, 76, 0
2, 1890, Note_on_c, 0, 74, 110
2, 1920, Note_on_c, 0, 74, 0
2, 1920, Note_on_c, 0, 79, 110
2, 1980, Note_on_c, 0, 79, 0
2, 1980, Note_on_c, 0, 78, 110
2, 2010, Note_on_c, 0, 78, 0
2, 2010, Note_on_c, 0, 76, 110
2, 2100, Note_on_c, 0, 76, 0
2, 2100, Note_on_c, 0, 74, 110
2, 2250, Note_on_c, 0, 74, 0
2, 2250, Note_on_c, 0, 76, 110
2, 2280, Note_on_c, 0, 76, 0
2, 2280, Note_on_c, 0, 72, 110
2, 2430, Note_on_c, 0, 72, 0
2, 2430, Note_on_c, 0, 74, 110
2, 2460, Note_on_c, 0, 74, 0
2, 2460, Note_on_c, 0, 71, 110
2, 2520, Note_on_c, 0, 71, 0
2, 2520, Note_on_c, 0, 72, 110
2, 2530, Note_on_c, 0, 72, 0
2, 2530, Note_on_c, 0, 71, 110
2, 2540, Note_on_c, 0, 71, 0
2, 2540, Note_on_c, 0, 72, 110
2, 2550, Note_on_c, 0, 72, 0
2, 2550, Note_on_c, 0, 71, 110
2, 2560, Note_on_c, 0, 71, 0
2, 2560, Note_on_c, 0, 72, 110
2, 2570, Note_on_c, 0, 72, 0
2, 2570, Note_on_c, 0, 71, 110
2, 2580, Note_on_c, 0, 71, 0
2, 2580, Note_on_c, 0, 72, 110
2, 2590, Note_on_c, 0, 72, 0
2, 2590, Note_on_c, 0, 71, 110
2, 2600, Note_on_c, 0, 71, 0
2, 2600, Note_on_c, 0, 72, 110
2, 2610, Note_on_c, 0, 72, 0
2, 2610, Note_on_c, 0, 71, 110
2, 2620, Note_on_c, 0, 71, 0
2, 2620, Note_on_c, 0, 72, 110
2, 2630, Note_on_c, 0, 72, 0
2, 2630, Note_on_c, 0, 71, 110
2, 2640, Note_on_c, 0, 71, 0
2, 2640, Note_on_c, 0, 69, 110
2, 2700, Note_on_c, 0, 69, 0
2, 2700, Note_on_c, 0, 72, 110
2, 3000, Note_on_c, 0, 72, 0
2, 3000, Note_on_c, 0, 71, 110
2, 3060, Note_on_c, 0, 71, 0
2, 3180, Note_on_c, 0, 69, 110
2, 3240, Note_on_c, 0, 69, 0
2, 3240, Note_on_c, 0, 68, 110
2, 3360, Note_on_c, 0, 68, 0
2, 3360, Note_on_c, 0, 71, 110
2, 3420, Note_on_c, 0, 71, 0
2, 3420, Note_on_c, 0, 74, 110
2, 3720, Note_on_c, 0, 74, 0
2, 3720, Note_on_c, 0, 73, 110
2, 3780, Note_on_c, 0, 73, 0
2, 3900, Note_on_c, 0, 71, 110
2, 3960, Note_on_c, 0, 71, 0
2, 3960, Note_on_c, 0, 69, 110
2, 4080, Note_on_c, 0, 69, 0
2, 4080, Note_on_c, 0, 76, 110
2, 4140, Note_on_c, 0, 76, 0
2, 4140, Note_on_c, 0, 83, 110
2, 4440, Note_on_c, 0, 83, 0
2, 4440, Note_on_c, 0, 81, 110
2, 4500, Note_on_c, 0, 81, 0
2, 4620, Note_on_c, 0, 79, 110
2, 4680, Note_on_c, 0, 79, 0
2, 4680, Note_on_c, 0, 78, 110
2, 4770, Note_on_c, 0, 78, 0
2, 4770, Note_on_c, 0, 79, 110
2, 4800, Note_on_c, 0, 79, 0
2, 4800, Note_on_c, 0, 79, 110
2, 4860, Note_on_c, 0, 79, 0
2, 4860, Note_on_c, 0, 78, 110
2, 4950, Note_on_c, 0, 78, 0
2, 4950, Note_on_c, 0, 79, 110
2, 4980, Note_on_c, 0, 79, 0
2, 4980, Note_on_c, 0, 76, 110
2, 5040, Note_on_c, 0, 76, 0
2, 5040, Note_on_c, 0, 76, 110
2, 5100, Note_on_c, 0, 76, 0
2, 5100, Note_on_c, 0, 74, 110
2, 5490, Note_on_c, 0, 74, 0
2, 5490, Note_on_c, 0, 62, 110
2, 5520, Note_on_c, 0, 62, 0
2, 5520, Note_on_c, 0, 67, 110
2, 5580, Note_on_c, 0, 67, 0
2, 5580, Note_on_c, 0, 66, 110
2, 5670, Note_on_c, 0, 66, 0
2, 5670, Note_on_c, 0, 67, 110
2, 5700, Note_on_c, 0, 67, 0
2, 5700, Note_on_c, 0, 64, 110
2, 5760, Note_on_c, 0, 64, 0
2, 5760, Note_on_c, 0, 62, 110
2, 6060, Note_on_c, 0, 62, 0
2, 7200, Note_on_c, 0, 71, 110
2, 7290, Note_on_c, 0, 71, 0
2, 7290, Note_on_c, 0, 74, 110
2, 7320, Note_on_c, 0, 74, 0
2, 7320, Note_on_c, 0, 79, 110
2, 7380, Note_on_c, 0, 79, 0
2, 7380, Note_on_c, 0, 79, 110
2, 7470, Note_on_c, 0, 79, 0
2, 7470, Note_on_c, 0, 78, 110
2, 7500, Note_on_c, 0, 78, 0
2, 7500, Note_on_c, 0, 79, 110
2, 7560, Note_on_c, 0, 79, 0
2, 7560, Note_on_c, 0, 67, 110
2, 7680, Note_on_c, 0, 67, 0
2, 8640, Note_on_c, 0, 71, 110
2, 8730, Note_on_c, 0, 71, 0
2, 8730, Note_on_c, 0, 74, 110
2, 8760, Note_on_c, 0, 74, 0
2, 8760, Note_on_c, 0, 77, 110
2, 8820, Note_on_c, 0, 77, 0
2, 8820, Note_on_c, 0, 77, 110
2, 8910, Note_on_c, 0, 77, 0
2, 8910, Note_on_c, 0, 76, 110
2, 8940, Note_on_c, 0, 76, 0
2, 8940, Note_on_c, 0, 77, 110
2, 9000, Note_on_c, 0, 77, 0
2, 9000, Note_on_c, 0, 76, 110
2, 9120, Note_on_c, 0, 76, 0
2, 10020, Note_on_c, 0, 77, 110
2, 10170, Note_on_c, 0, 77, 0
2, 10170, Note_on_c, 0, 76, 110
2, 10200, Note_on_c, 0, 76, 0
2, 10200, Note_on_c, 0, 81, 110
2, 10260, Note_on_c, 0, 81, 0
2, 10260, Note_on_c, 0, 79, 110
2, 10290, Note_on_c, 0, 79, 0
2, 10290, Note_on_c, 0, 78, 110
2, 10380, Note_on_c, 0, 78, 0
2, 10380, Note_on_c, 0, 76, 110
2, 10530, Note_on_c, 0, 76, 0
2, 10530, Note_on_c, 0, 74, 110
2, 10560, Note_on_c, 0, 74, 0
2, 10560, Note_on_c, 0, 79, 110
2, 10620, Note_on_c, 0, 79, 0
2, 10620, Note_on_c, 0, 78, 110
2, 10650, Note_on_c, 0, 78, 0
2, 10650, Note_on_c, 0, 76, 110
2, 10740, Note_on_c, 0, 76, 0
2, 10740, Note_on_c, 0, 74, 110
2, 10890, Note_on_c, 0, 74, 0
2, 10890, Note_on_c, 0, 76, 110
2, 10920, Note_on_c, 0, 76, 0
2, 10920, Note_on_c, 0, 72, 110
2, 11070, Note_on_c, 0, 72, 0
2, 11070, Note_on_c, 0, 74, 110
2, 11100, Note_on_c, 0, 74, 0
2, 11100, Note_on_c, 0, 71, 110
2, 11160, Note_on_c, 0, 71, 0
2, 11160, Note_on_c, 0, 72, 110
2, 11170, Note_on_c, 0, 72, 0
2, 11170, Note_on_c, 0, 71, 110
2, 11180, Note_on_c, 0, 71, 0
2, 11180, Note_on_c, 0, 72, 110
2, 11190, Note_on_c, 0, 72, 0
2, 11190, Note_on_c, 0, 71, 110
2, 11200, Note_on_c, 0, 71, 0
2, 11200, Note_on_c, 0, 72, 110
2, 11210, Note_on_c, 0, 72, 0
2, 11210, Note_on_c, 0, 71, 110
2, 11220, Note_on_c, 0, 71, 0
2, 11220, Note_on_c, 0, 72, 110
2, 11230, Note_on_c, 0, 72, 0
2, 11230, Note_on_c, 0, 71, 110
2, 11240, Note_on_c, 0, 71, 0
2, 11240, Note_on_c, 0, 72, 110
2, 11250, Note_on_c, 0, 72, 0
2, 11250, Note_on_c, 0, 71, 110
2, 11260, Note_on_c, 0, 71, 0
2, 11260, Note_on_c, 0, 72, 110
2, 11270, Note_on_c, 0, 72, 0
2, 11270, Note_on_c, 0, 71, 110
2, 11280, Note_on_c, 0, 71, 0
2, 11280, Note_on_c, 0, 69, 110
2, 11340, Note_on_c, 0, 69, 0
2, 12360, Note_on_c, 0, 76, 110
2, 12510, Note_on_c, 0, 76, 0
2, 12510, Note_on_c, 0, 75, 110
2, 12540, Note_on_c, 0, 75, 0
2, 12540, Note_on_c, 0, 81, 110
2, 12660, Note_on_c, 0, 81, 0
2, 12660, Note_on_c, 0, 79, 110
2, 12720, Note_on_c, 0, 79, 0
2, 12960, Note_on_c, 0, 67, 110
2, 13050, Note_on_c, 0, 67, 0
2, 13050, Note_on_c, 0, 71, 110
2, 13080, Note_on_c, 0, 71, 0
2, 13080, Note_on_c, 0, 76, 110
2, 13140, Note_on_c, 0, 76, 0
2, 13140, Note_on_c, 0, 76, 110
2, 13230, Note_on_c, 0, 76, 0
2, 13230, Note_on_c, 0, 75, 110
2, 13260, Note_on_c, 0, 75, 0
2, 13260, Note_on_c, 0, 76, 110
2, 13320, Note_on_c, 0, 76, 0
2, 13320, Note_on_c, 0, 64, 110
2, 13440, Note_on_c, 0, 64, 0
2, 13680, Note_on_c, 0, 81, 110
2, 13800, Note_on_c, 0, 81, 0
2, 13800, Note_on_c, 0, 79, 110
2, 13860, Note_on_c, 0, 79, 0
2, 13860, Note_on_c, 0, 79, 110
2, 13980, Note_on_c, 0, 79, 0
2, 13980, Note_on_c, 0, 78, 110
2, 14040, Note_on_c, 0, 78, 0
2, 14040, Note_on_c, 0, 78, 110
2, 14160, Note_on_c, 0, 78, 0
2, 14160, Note_on_c, 0, 76, 110
2, 14220, Note_on_c, 0, 76, 0
2, 14220, Note_on_c, 0, 76, 110
2, 14340, Note_on_c, 0, 76, 0
2, 14340, Note_on_c, 0, 75, 110
2, 14400, Note_on_c, 0, 75, 0
2, 14400, Note_on_c, 0, 76, 110
2, 14520, Note_on_c, 0, 76, 0
2, 14520, Note_on_c, 0, 79, 110
2, 14580, Note_on_c, 0, 79, 0
2, 14580, Note_on_c, 0, 79, 110
2, 14670, Note_on_c, 0, 79, 0
2, 14670, Note_on_c, 0, 81, 110
2, 14700, Note_on_c, 0, 81, 0
2, 14700, Note_on_c, 0, 79, 110
2, 14760, Note_on_c, 0, 79, 0
2, 14760, Note_on_c, 0, 78, 110
2, 15240, Note_on_c, 0, 78, 0
2, 15240, Note_on_c, 0, 75, 110
2, 15300, Note_on_c, 0, 75, 0
2, 15300, Note_on_c, 0, 76, 110
2, 15420, Note_on_c, 0, 76, 0
2, 15420, Note_on_c, 0, 78, 110
2, 15480, Note_on_c, 0, 78, 0
2, 15480, Note_on_c, 0, 71, 110
2, 15570, Note_on_c, 0, 71, 0
2, 15570, Note_on_c, 0, 84, 110
2, 15600, Note_on_c, 0, 84, 0
2, 15600, Note_on_c, 0, 83, 110
2, 15750, Note_on_c, 0, 83, 0
2, 15750, Note_on_c, 0, 76, 110
2, 15780, Note_on_c, 0, 76, 0
2, 15780, Note_on_c, 0, 75, 110
2, 15840, Note_on_c, 0, 75, 0
2, 15840, Note_on_c, 0, 76, 110
2, 15960, Note_on_c, 0, 76, 0
2, 16200, Note_on_c, 0, 67, 110
2, 16290, Note_on_c, 0, 67, 0
2, 16290, Note_on_c, 0, 71, 110
2, 16320, Note_on_c, 0, 71, 0
2, 16320, Note_on_c, 0, 76, 110
2, 16380, Note_on_c, 0, 76, 0
2, 16380, Note_on_c, 0, 76, 110
2, 16470, Note_on_c, 0, 76, 0
2, 16470, Note_on_c, 0, 75, 110
2, 16500, Note_on_c, 0, 75, 0
2, 16500, Note_on_c, 0, 76, 110
2, 16560, Note_on_c, 0, 76, 0
2, 16560, Note_on_c, 0, 66, 110
2, 16740, Note_on_c, 0, 66, 0
2, 16860, Note_on_c, 0, 66, 110
2, 17010, Note_on_c, 0, 66, 0
2, 17010, Note_on_c, 0, 67, 110
2, 17040, Note_on_c, 0, 67, 0
2, 17040, Note_on_c, 0, 66, 110
2, 17100, Note_on_c, 0, 66, 0
2, 17100, Note_on_c, 0, 64, 110
2, 17190, Note_on_c, 0, 64, 0
2, 17190, Note_on_c, 0, 67, 110
2, 17220, Note_on_c, 0, 67, 0
2, 17220, Note_on_c, 0, 71, 110
2, 17280, Note_on_c, 0, 71, 0
2, 17280, Note_on_c, 0, 69, 110
2, 17460, Note_on_c, 0, 69, 0
2, 17580, Note_on_c, 0, 67, 110
2, 17730, Note_on_c, 0, 67, 0
2, 17730, Note_on_c, 0, 71, 110
2, 17760, Note_on_c, 0, 71, 0
2, 17760, Note_on_c, 0, 69, 110
2, 17820, Note_on_c, 0, 69, 0
2, 17820, Note_on_c, 0, 67, 110
2, 17910, Note_on_c, 0, 67, 0
2, 17910, Note_on_c, 0, 71, 110
2, 17940, Note_on_c, 0, 71, 0
2, 17940, Note_on_c, 0, 74, 110
2, 18000, Note_on_c, 0, 74, 0
2, 18000, Note_on_c, 0, 74, 110
2, 18060, Note_on_c, 0, 74, 0
2, 18060, Note_on_c, 0, 73, 110
2, 18120, Note_on_c, 0, 73, 0
2, 18120, Note_on_c, 0, 74, 110
2, 18180, Note_on_c, 0, 74, 0
2, 18180, Note_on_c, 0, 79, 110
2, 18450, Note_on_c, 0, 79, 0
2, 18450, Note_on_c, 0, 78, 110
2, 18480, Note_on_c, 0, 78, 0
2, 18480, Note_on_c, 0, 83, 110
2, 18540, Note_on_c, 0, 83, 0
2, 18540, Note_on_c, 0, 81, 110
2, 18630, Note_on_c, 0, 81, 0
2, 18630, Note_on_c, 0, 83, 110
2, 18660, Note_on_c, 0, 83, 0
2, 18660, Note_on_c, 0, 79, 110
2, 18720, Note_on_c, 0, 79, 0
2, 18720, Note_on_c, 0, 78, 110
2, 18810, Note_on_c, 0, 78, 0
2, 18810, Note_on_c, 0, 74, 110
2, 18840, Note_on_c, 0, 74, 0
2, 18840, Note_on_c, 0, 79, 110
2, 18900, Note_on_c, 0, 79, 0
2, 18900, Note_on_c, 0, 78, 110
2, 18990, Note_on_c, 0, 78, 0
2, 18990, Note_on_c, 0, 79, 110
2, 19020, Note_on_c, 0, 79, 0
2, 19020, Note_on_c, 0, 76, 110
2, 19080, Note_on_c, 0, 76, 0
2, 19080, Note_on_c, 0, 74, 110
2, 19350, Note_on_c, 0, 74, 0
2, 19350, Note_on_c, 0, 76, 110
2, 19380, Note_on_c, 0, 76, 0
2, 19380, Note_on_c, 0, 73, 110
2, 19440, Note_on_c, 0, 73, 0
2, 19440, Note_on_c, 0, 74, 110
2, 19560, Note_on_c, 0, 74, 0
2, 20520, Note_on_c, 0, 78, 110
2, 20610, Note_on_c, 0, 78, 0
2, 20610, Note_on_c, 0, 81, 110
2, 20640, Note_on_c, 0, 81, 0
2, 20640, Note_on_c, 0, 86, 110
2, 20700, Note_on_c, 0, 86, 0
2, 20700, Note_on_c, 0, 86, 110
2, 20790, Note_on_c, 0, 86, 0
2, 20790, Note_on_c, 0, 85, 110
2, 20820, Note_on_c, 0, 85, 0
2, 20820, Note_on_c, 0, 86, 110
2, 20880, Note_on_c, 0, 86, 0
2, 20880, Note_on_c, 0, 74, 110
2, 21000, Note_on_c, 0, 74, 0
2, 21900, Note_on_c, 0, 76, 110
2, 22050, Note_on_c, 0, 76, 0
2, 22050, Note_on_c, 0, 74, 110
2, 22080, Note_on_c, 0, 74, 0
2, 22080, Note_on_c, 0, 79, 110
2, 22140, Note_on_c, 0, 79, 0
2, 22140, Note_on_c, 0, 78, 110
2, 22200, Note_on_c, 0, 78, 0
2, 22200, Note_on_c, 0, 76, 110
2, 22260, Note_on_c, 0, 76, 0
2, 22260, Note_on_c, 0, 74, 110
2, 22410, Note_on_c, 0, 74, 0
2, 22410, Note_on_c, 0, 73, 110
2, 22440, Note_on_c, 0, 73, 0
2, 22440, Note_on_c, 0, 78, 110
2, 22500, Note_on_c, 0, 78, 0
2, 22500, Note_on_c, 0, 76, 110
2, 22560, Note_on_c, 0, 76, 0
2, 22560, Note_on_c, 0, 74, 110
2, 22620, Note_on_c, 0, 74, 0
2, 22620, Note_on_c, 0, 73, 110
2, 22770, Note_on_c, 0, 73, 0
2, 22770, Note_on_c, 0, 71, 110
2, 22800, Note_on_c, 0, 71, 0
2, 22800, Note_on_c, 0, 76, 110
2, 22860, Note_on_c, 0, 76, 0
2, 22860, Note_on_c, 0, 74, 110
2, 22920, Note_on_c, 0, 74, 0
2, 22920, Note_on_c, 0, 73, 110
2, 22980, Note_on_c, 0, 73, 0
2, 22980, Note_on_c, 0, 71, 110
2, 23040, Note_on_c, 0, 71, 0
2, 23040, Note_on_c, 0, 71, 110
2, 23160, Note_on_c, 0, 71, 0
2, 23160, Note_on_c, 0, 70, 110
2, 23220, Note_on_c, 0, 70, 0
2, 23880, Note_on_c, 0, 83, 110
2, 23940, Note_on_c, 0, 83, 0
2, 23940, Note_on_c, 0, 74, 110
2, 24180, Note_on_c, 0, 74, 0
2, 24180, Note_on_c, 0, 72, 110
2, 24240, Note_on_c, 0, 72, 0
2, 25920, Note_on_c, 0, 74, 110
2, 26010, Note_on_c, 0, 74, 0
2, 26010, Note_on_c, 0, 78, 110
2, 26040, Note_on_c, 0, 78, 0
2, 26040, Note_on_c, 0, 83, 110
2, 26100, Note_on_c, 0, 83, 0
2, 26100, Note_on_c, 0, 83, 110
2, 26190, Note_on_c, 0, 83, 0
2, 26190, Note_on_c, 0, 82, 110
2, 26220, Note_on_c, 0, 82, 0
2, 26220, Note_on_c, 0, 83, 110
2, 26280, Note_on_c, 0, 83, 0
2, 26280, Note_on_c, 0, 71, 110
2, 26400, Note_on_c, 0, 71, 0
2, 26640, Note_on_c, 0, 76, 100
2, 26759, Note_on_c, 0, 76, 0
2, 26760, Note_on_c, 0, 74, 100
2, 26819, Note_on_c, 0, 74, 0
2, 26820, Note_on_c, 0, 74, 100
2, 26939, Note_on_c, 0, 74, 0
2, 26940, Note_on_c, 0, 73, 100
2, 26999, Note_on_c, 0, 73, 0
2, 27000, Note_on_c, 0, 73, 100
2, 27119, Note_on_c, 0, 73, 0
2, 27120, Note_on_c, 0, 71, 100
2, 27179, Note_on_c, 0, 71, 0
2, 27180, Note_on_c, 0, 71, 100
2, 27299, Note_on_c, 0, 71, 0
2, 27300, Note_on_c, 0, 70, 100
2, 27359, Note_on_c, 0, 70, 0
2, 27360, Note_on_c, 0, 71, 100
2, 27479, Note_on_c, 0, 71, 0
2, 27480, Note_on_c, 0, 74, 100
2, 27539, Note_on_c, 0, 74, 0
2, 27540, Note_on_c, 0, 74, 100
2, 27629, Note_on_c, 0, 74, 0
2, 27630, Note_on_c, 0, 76, 100
2, 27659, Note_on_c, 0, 76, 0
2, 27660, Note_on_c, 0, 74, 100
2, 27719, Note_on_c, 0, 74, 0
2, 27720, Note_on_c, 0, 73, 100
2, 28200, Note_on_c, 0, 73, 0
2, 28200, Note_on_c, 0, 70, 100
2, 28260, Note_on_c, 0, 70, 0
2, 28260, Note_on_c, 0, 71, 100
2, 28380, Note_on_c, 0, 71, 0
2, 28380, Note_on_c, 0, 73, 100
2, 28440, Note_on_c, 0, 73, 0
2, 28440, Note_on_c, 0, 66, 100
2, 28530, Note_on_c, 0, 66, 0
2, 28530, Note_on_c, 0, 79, 100
2, 28560, Note_on_c, 0, 79, 0
2, 28560, Note_on_c, 0, 78, 100
2, 28710, Note_on_c, 0, 78, 0
2, 28710, Note_on_c, 0, 71, 100
2, 28740, Note_on_c, 0, 71, 0
2, 28740, Note_on_c, 0, 70, 100
2, 28800, Note_on_c, 0, 70, 0
2, 28800, Note_on_c, 0, 71, 100
2, 28920, Note_on_c, 0, 71, 0
2, 29250, Note_on_c, 0, 72, 100
2, 29280, Note_on_c, 0, 72, 0
2, 29280, Note_on_c, 0, 71, 100
2, 29430, Note_on_c, 0, 71, 0
2, 29430, Note_on_c, 0, 74, 100
2, 29460, Note_on_c, 0, 74, 0
2, 29460, Note_on_c, 0, 73, 100
2, 29520, Note_on_c, 0, 73, 0
2, 29520, Note_on_c, 0, 74, 100
2, 29610, Note_on_c, 0, 74, 0
2, 29610, Note_on_c, 0, 84, 100
2, 29640, Note_on_c, 0, 84, 0
2, 29640, Note_on_c, 0, 83, 100
2, 29790, Note_on_c, 0, 83, 0
2, 29790, Note_on_c, 0, 72, 100
2, 29820, Note_on_c, 0, 72, 0
2, 29820, Note_on_c, 0, 71, 100
2, 29880, Note_on_c, 0, 71, 0
2, 29880, Note_on_c, 0, 72, 100
2, 30000, Note_on_c, 0, 72, 0
2, 30000, Note_on_c, 0, 76, 100
2, 30060, Note_on_c, 0, 76, 0
2, 30060, Note_on_c, 0, 81, 100
2, 30180, Note_on_c, 0, 81, 0
2, 30180, Note_on_c, 0, 79, 100
2, 30240, Note_on_c, 0, 79, 0
2, 30240, Note_on_c, 0, 79, 100
2, 30360, Note_on_c, 0, 79, 0
2, 30360, Note_on_c, 0, 78, 100
2, 30420, Note_on_c, 0, 78, 0
2, 30960, Note_on_c, 0, 71, 110
2, 31050, Note_on_c, 0, 71, 0
2, 31050, Note_on_c, 0, 74, 110
2, 31080, Note_on_c, 0, 74, 0
2, 31080, Note_on_c, 0, 79, 110
2, 31140, Note_on_c, 0, 79, 0
2, 31140, Note_on_c, 0, 79, 110
2, 31230, Note_on_c, 0, 79, 0
2, 31230, Note_on_c, 0, 78, 110
2, 31260, Note_on_c, 0, 78, 0
2, 31260, Note_on_c, 0, 79, 110
2, 31320, Note_on_c, 0, 79, 0
2, 31320, Note_on_c, 0, 67, 110
2, 31500, Note_on_c, 0, 67, 0
2, 31620, Note_on_c, 0, 67, 110
2, 31770, Note_on_c, 0, 67, 0
2, 31770, Note_on_c, 0, 69, 110
2, 31800, Note_on_c, 0, 69, 0
2, 31800, Note_on_c, 0, 67, 110
2, 31860, Note_on_c, 0, 67, 0
2, 31860, Note_on_c, 0, 66, 110
2, 31950, Note_on_c, 0, 66, 0
2, 31950, Note_on_c, 0, 69, 110
2, 31980, Note_on_c, 0, 69, 0
2, 31980, Note_on_c, 0, 72, 110
2, 32040, Note_on_c, 0, 72, 0
2, 32040, Note_on_c, 0, 71, 110
2, 32220, Note_on_c, 0, 71, 0
2, 32340, Note_on_c, 0, 77, 110
2, 32490, Note_on_c, 0, 77, 0
2, 32490, Note_on_c, 0, 76, 110
2, 32520, Note_on_c, 0, 76, 0
2, 32520, Note_on_c, 0, 81, 110
2, 32580, Note_on_c, 0, 81, 0
2, 32580, Note_on_c, 0, 79, 110
2, 32610, Note_on_c, 0, 79, 0
2, 32610, Note_on_c, 0, 78, 110
2, 32700, Note_on_c, 0, 78, 0
2, 32700, Note_on_c, 0, 76, 110
2, 32850, Note_on_c, 0, 76, 0
2, 32850, Note_on_c, 0, 74, 110
2, 32880, Note_on_c, 0, 74, 0
2, 32880, Note_on_c, 0, 79, 110
2, 32940, Note_on_c, 0, 79, 0
2, 32940, Note_on_c, 0, 78, 110
2, 32970, Note_on_c, 0, 78, 0
2, 32970, Note_on_c, 0, 76, 110
2, 33060, Note_on_c, 0, 76, 0
2, 33060, Note_on_c, 0, 74, 110
2, 33210, Note_on_c, 0, 74, 0
2, 33210, Note_on_c, 0, 76, 110
2, 33240, Note_on_c, 0, 76, 0
2, 33240, Note_on_c, 0, 72, 110
2, 33390, Note_on_c, 0, 72, 0
2, 33390, Note_on_c, 0, 74, 110
2, 33420, Note_on_c, 0, 74, 0
2, 33420, Note_on_c, 0, 71, 110
2, 33480, Note_on_c, 0, 71, 0
2, 33480, Note_on_c, 0, 72, 110
2, 33490, Note_on_c, 0, 72, 0
2, 33490, Note_on_c, 0, 71, 110
2, 33500, Note_on_c, 0, 71, 0
2, 33500, Note_on_c, 0, 72, 110
2, 33510, Note_on_c, 0, 72, 0
2, 33510, Note_on_c, 0, 71, 110
2, 33520, Note_on_c, 0, 71, 0
2, 33520, Note_on_c, 0, 72, 110
2, 33530, Note_on_c, 0, 72, 0
2, 33530, Note_on_c, 0, 71, 110
2, 33540, Note_on_c, 0, 71, 0
2, 33540, Note_on_c, 0, 72, 110
2, 33550, Note_on_c, 0, 72, 0
2, 33550, Note_on_c, 0, 71, 110
2, 33560, Note_on_c, 0, 71, 0
2, 33560, Note_on_c, 0, 72, 110
2, 33570, Note_on_c, 0, 72, 0
2, 33570, Note_on_c, 0, 71, 110
2, 33580, Note_on_c, 0, 71, 0
2, 33580, Note_on_c, 0, 72, 110
2, 33590, Note_on_c, 0, 72, 0
2, 33590, Note_on_c, 0, 71, 110
2, 33600, Note_on_c, 0, 71, 0
2, 33600, Note_on_c, 0, 69, 110
2, 33660, Note_on_c, 0, 69, 0
2, 34920, Note_on_c, 0, 71, 100
2, 35010, Note_on_c, 0, 71, 0
2, 35010, Note_on_c, 0, 74, 100
2, 35040, Note_on_c, 0, 74, 0
2, 35040, Note_on_c, 0, 79, 100
2, 35100, Note_on_c, 0, 79, 0
2, 35100, Note_on_c, 0, 79, 100
2, 35190, Note_on_c, 0, 79, 0
2, 35190, Note_on_c, 0, 78, 100
2, 35220, Note_on_c, 0, 78, 0
2, 35220, Note_on_c, 0, 79, 100
2, 35280, Note_on_c, 0, 79, 0
2, 35280, Note_on_c, 0, 67, 100
2, 35400, Note_on_c, 0, 67, 0
2, 36360, Note_on_c, 0, 71, 100
2, 36450, Note_on_c, 0, 71, 0
2, 36450, Note_on_c, 0, 74, 100
2, 36480, Note_on_c, 0, 74, 0
2, 36480, Note_on_c, 0, 77, 100
2, 36540, Note_on_c, 0, 77, 0
2, 36540, Note_on_c, 0, 77, 100
2, 36630, Note_on_c, 0, 77, 0
2, 36630, Note_on_c, 0, 76, 100
2, 36660, Note_on_c, 0, 76, 0
2, 36660, Note_on_c, 0, 77, 100
2, 36720, Note_on_c, 0, 77, 0
2, 36720, Note_on_c, 0, 76, 100
2, 36840, Note_on_c, 0, 76, 0
2, 37740, Note_on_c, 0, 77, 100
2, 37800, Note_on_c, 0, 77, 0
2, 37800, Note_on_c, 0, 77, 100
2, 37920, Note_on_c, 0, 77, 0
2, 37920, Note_on_c, 0, 76, 100
2, 37980, Note_on_c, 0, 76, 0
2, 38100, Note_on_c, 0, 74, 100
2, 38160, Note_on_c, 0, 74, 0
2, 38160, Note_on_c, 0, 73, 100
2, 38280, Note_on_c, 0, 73, 0
2, 38340, Note_on_c, 0, 79, 100
2, 38640, Note_on_c, 0, 79, 0
2, 38640, Note_on_c, 0, 78, 100
2, 38700, Note_on_c, 0, 78, 0
2, 38820, Note_on_c, 0, 76, 100
2, 38880, Note_on_c, 0, 76, 0
2, 38880, Note_on_c, 0, 74, 100
2, 39000, Note_on_c, 0, 74, 0
2, 39000, Note_on_c, 0, 84, 100
2, 39060, Note_on_c, 0, 84, 0
2, 39060, Note_on_c, 0, 88, 100
2, 39360, Note_on_c, 0, 88, 0
2, 39360, Note_on_c, 0, 86, 100
2, 39420, Note_on_c, 0, 86, 0
2, 39540, Note_on_c, 0, 84, 100
2, 39600, Note_on_c, 0, 84, 0
2, 39600, Note_on_c, 0, 86, 100
2, 39690, Note_on_c, 0, 86, 0
2, 39690, Note_on_c, 0, 79, 100
2, 39720, Note_on_c, 0, 79, 0
2, 39720, Note_on_c, 0, 84, 100
2, 39780, Note_on_c, 0, 84, 0
2, 39780, Note_on_c, 0, 83, 100
2, 39870, Note_on_c, 0, 83, 0
2, 39870, Note_on_c, 0, 84, 100
2, 39900, Note_on_c, 0, 84, 0
2, 39900, Note_on_c, 0, 81, 100
2, 39960, Note_on_c, 0, 81, 0
2, 39960, Note_on_c, 0, 79, 100
2, 40410, Note_on_c, 0, 79, 0
2, 40410, Note_on_c, 0, 67, 100
2, 40440, Note_on_c, 0, 67, 0
2, 40440, Note_on_c, 0, 72, 100
2, 40500, Note_on_c, 0, 72, 0
2, 40500, Note_on_c, 0, 71, 100
2, 40590, Note_on_c, 0, 71, 0
2, 40590, Note_on_c, 0, 72, 100
2, 40620, Note_on_c, 0, 72, 0
2, 40620, Note_on_c, 0, 69, 100
2, 40680, Note_on_c, 0, 69, 0
2, 40680, Note_on_c, 0, 67, 100
2, 40800, Note_on_c, 0, 67, 0
2, 41040, Note_on_c, 0, 71, 100
2, 41130, Note_on_c, 0, 71, 0
2, 41130, Note_on_c, 0, 74, 100
2, 41160, Note_on_c, 0, 74, 0
2, 41160, Note_on_c, 0, 79, 100
2, 41220, Note_on_c, 0, 79, 0
2, 41220, Note_on_c, 0, 79, 100
2, 41310, Note_on_c, 0, 79, 0
2, 41310, Note_on_c, 0, 78, 100
2, 41340, Note_on_c, 0, 78, 0
2, 41340, Note_on_c, 0, 79, 100
2, 41400, Note_on_c, 0, 79, 0
2, 41400, Note_on_c, 0, 67, 100
2, 41520, Note_on_c, 0, 67, 0
2, 41760, Note_on_c, 0, 84, 100
2, 41879, Note_on_c, 0, 84, 0
2, 41880, Note_on_c, 0, 83, 100
2, 41939, Note_on_c, 0, 83, 0
2, 41940, Note_on_c, 0, 83, 100
2, 42059, Note_on_c, 0, 83, 0
2, 42060, Note_on_c, 0, 82, 100
2, 42119, Note_on_c, 0, 82, 0
2, 42120, Note_on_c, 0, 82, 100
2, 42239, Note_on_c, 0, 82, 0
2, 42240, Note_on_c, 0, 81, 100
2, 42299, Note_on_c, 0, 81, 0
2, 42300, Note_on_c, 0, 79, 100
2, 42419, Note_on_c, 0, 79, 0
2, 42420, Note_on_c, 0, 78, 100
2, 42479, Note_on_c, 0, 78, 0
2, 42480, Note_on_c, 0, 79, 100
2, 42599, Note_on_c, 0, 79, 0
2, 42600, Note_on_c, 0, 82, 100
2, 42659, Note_on_c, 0, 82, 0
2, 42660, Note_on_c, 0, 82, 100
2, 42749, Note_on_c, 0, 82, 0
2, 42750, Note_on_c, 0, 84, 100
2, 42779, Note_on_c, 0, 84, 0
2, 42780, Note_on_c, 0, 82, 100
2, 42839, Note_on_c, 0, 82, 0
2, 42840, Note_on_c, 0, 81, 100
2, 43320, Note_on_c, 0, 81, 0
2, 43320, Note_on_c, 0, 78, 100
2, 43380, Note_on_c, 0, 78, 0
2, 43380, Note_on_c, 0, 79, 100
2, 43500, Note_on_c, 0, 79, 0
2, 43500, Note_on_c, 0, 81, 100
2, 43560, Note_on_c, 0, 81, 0
2, 43560, Note_on_c, 0, 74, 100
2, 43650, Note_on_c, 0, 74, 0
2, 43650, Note_on_c, 0, 72, 100
2, 43680, Note_on_c, 0, 72, 0
2, 43680, Note_on_c, 0, 71, 100
2, 43740, Note_on_c, 0, 71, 0
2, 43740, Note_on_c, 0, 69, 100
2, 43830, Note_on_c, 0, 69, 0
2, 43830, Note_on_c, 0, 71, 100
2, 43860, Note_on_c, 0, 71, 0
2, 43860, Note_on_c, 0, 72, 100
2, 43920, Note_on_c, 0, 72, 0
2, 43920, Note_on_c, 0, 71, 100
2, 44010, Note_on_c, 0, 71, 0
2, 44010, Note_on_c, 0, 76, 100
2, 44040, Note_on_c, 0, 76, 0
2, 44040, Note_on_c, 0, 74, 100
2, 44190, Note_on_c, 0, 74, 0
2, 44190, Note_on_c, 0, 67, 100
2, 44220, Note_on_c, 0, 67, 0
2, 44220, Note_on_c, 0, 66, 100
2, 44280, Note_on_c, 0, 66, 0
2, 44280, Note_on_c, 0, 67, 100
2, 44400, Note_on_c, 0, 67, 0
2, 44640, Note_on_c, 0, 79, 100
2, 45000, Note_on_c, 0, 79, 0
2, 50520, Note_on_c, 0, 79, 100
2, 50639, Note_on_c, 0, 79, 0
2, 50640, Note_on_c, 0, 79, 100
2, 50759, Note_on_c, 0, 79, 0
2, 50760, Note_on_c, 0, 81, 100
2, 50879, Note_on_c, 0, 81, 0
2, 50880, Note_on_c, 0, 83, 100
2, 50939, Note_on_c, 0, 83, 0
2, 50940, Note_on_c, 0, 85, 100
2, 50999, Note_on_c, 0, 85, 0
2, 51000, Note_on_c, 0, 86, 100
2, 51119, Note_on_c, 0, 86, 0
2, 51120, Note_on_c, 0, 86, 100
2, 51239, Note_on_c, 0, 86, 0
2, 51240, Note_on_c, 0, 85, 100
2, 51359, Note_on_c, 0, 85, 0
2, 51360, Note_on_c, 0, 86, 100
2, 51449, Note_on_c, 0, 86, 0
2, 51480, Note_on_c, 0, 83, 100
2, 51599, Note_on_c, 0, 83, 0
2, 51600, Note_on_c, 0, 84, 100
2, 51719, Note_on_c, 0, 84, 0
2, 51720, Note_on_c, 0, 83, 100
2, 51839, Note_on_c, 0, 83, 0
2, 51840, Note_on_c, 0, 81, 100
2, 51959, Note_on_c, 0, 81, 0
2, 51960, Note_on_c, 0, 83, 100
2, 52079, Note_on_c, 0, 83, 0
2, 52080, Note_on_c, 0, 81, 100
2, 52319, Note_on_c, 0, 81, 0
2, 52320, Note_on_c, 0, 79, 100
2, 52409, Note_on_c, 0, 79, 0
2, 52440, Note_on_c, 0, 79, 100
2, 52559, Note_on_c, 0, 79, 0
2, 52560, Note_on_c, 0, 79, 100
2, 52679, Note_on_c, 0, 79, 0
2, 52680, Note_on_c, 0, 81, 100
2, 52799, Note_on_c, 0, 81, 0
2, 52800, Note_on_c, 0, 83, 100
2, 52859, Note_on_c, 0, 83, 0
2, 52860, Note_on_c, 0, 85, 100
2, 52919, Note_on_c, 0, 85, 0
2, 52920, Note_on_c, 0, 86, 100
2, 53039, Note_on_c, 0, 86, 0
2, 53040, Note_on_c, 0, 86, 100
2, 53159, Note_on_c, 0, 86, 0
2, 53160, Note_on_c, 0, 85, 100
2, 53279, Note_on_c, 0, 85, 0
2, 53280, Note_on_c, 0, 86, 100
2, 53369, Note_on_c, 0, 86, 0
2, 53400, Note_on_c, 0, 83, 100
2, 53519, Note_on_c, 0, 83, 0
2, 53520, Note_on_c, 0, 84, 100
2, 53639, Note_on_c, 0, 84, 0
2, 53640, Note_on_c, 0, 83, 100
2, 53759, Note_on_c, 0, 83, 0
2, 53760, Note_on_c, 0, 81, 100
2, 53879, Note_on_c, 0, 81, 0
2, 53880, Note_on_c, 0, 83, 100
2, 53999, Note_on_c, 0, 83, 0
2, 54000, Note_on_c, 0, 81, 100
2, 54239, Note_on_c, 0, 81, 0
2, 54240, Note_on_c, 0, 79, 100
2, 54329, Note_on_c, 0, 79, 0
2, 54360, Note_on_c, 0, 81, 100
2, 54479, Note_on_c, 0, 81, 0
2, 54480, Note_on_c, 0, 81, 100
2, 54599, Note_on_c, 0, 81, 0
2, 54600, Note_on_c, 0, 83, 100
2, 54719, Note_on_c, 0, 83, 0
2, 54720, Note_on_c, 0, 84, 100
2, 54839, Note_on_c, 0, 84, 0
2, 54840, Note_on_c, 0, 84, 100
2, 54959, Note_on_c, 0, 84, 0
2, 54960, Note_on_c, 0, 83, 100
2, 55019, Note_on_c, 0, 83, 0
2, 55020, Note_on_c, 0, 81, 100
2, 55079, Note_on_c, 0, 81, 0
2, 55080, Note_on_c, 0, 83, 100
2, 55199, Note_on_c, 0, 83, 0
2, 55200, Note_on_c, 0, 81, 100
2, 55289, Note_on_c, 0, 81, 0
2, 55320, Note_on_c, 0, 83, 100
2, 55439, Note_on_c, 0, 83, 0
2, 55440, Note_on_c, 0, 83, 100
2, 55559, Note_on_c, 0, 83, 0
2, 55560, Note_on_c, 0, 83, 100
2, 55679, Note_on_c, 0, 83, 0
2, 55680, Note_on_c, 0, 84, 100
2, 55739, Note_on_c, 0, 84, 0
2, 55740, Note_on_c, 0, 86, 100
2, 55799, Note_on_c, 0, 86, 0
2, 55800, Note_on_c, 0, 88, 100
2, 55919, Note_on_c, 0, 88, 0
2, 55920, Note_on_c, 0, 88, 100
2, 56039, Note_on_c, 0, 88, 0
2, 56040, Note_on_c, 0, 87, 100
2, 56159, Note_on_c, 0, 87, 0
2, 56160, Note_on_c, 0, 88, 100
2, 56249, Note_on_c, 0, 88, 0
2, 56280, Note_on_c, 0, 90, 100
2, 56399, Note_on_c, 0, 90, 0
2, 56400, Note_on_c, 0, 91, 100
2, 56519, Note_on_c, 0, 91, 0
2, 56520, Note_on_c, 0, 83, 100
2, 56639, Note_on_c, 0, 83, 0
2, 56640, Note_on_c, 0, 84, 100
2, 56759, Note_on_c, 0, 84, 0
2, 56760, Note_on_c, 0, 83, 100
2, 56879, Note_on_c, 0, 83, 0
2, 56880, Note_on_c, 0, 81, 100
2, 57119, Note_on_c, 0, 81, 0
2, 57120, Note_on_c, 0, 81, 100
2, 57209, Note_on_c, 0, 81, 0
2, 57240, Note_on_c, 0, 86, 100
2, 57359, Note_on_c, 0, 86, 0
2, 57360, Note_on_c, 0, 88, 100
2, 57479, Note_on_c, 0, 88, 0
2, 57480, Note_on_c, 0, 86, 100
2, 57599, Note_on_c, 0, 86, 0
2, 57600, Note_on_c, 0, 84, 100
2, 57719, Note_on_c, 0, 84, 0
2, 57720, Note_on_c, 0, 83, 100
2, 57779, Note_on_c, 0, 83, 0
2, 57780, Note_on_c, 0, 84, 100
2, 57839, Note_on_c, 0, 84, 0
2, 57840, Note_on_c, 0, 81, 100
2, 58079, Note_on_c, 0, 81, 0
2, 58080, Note_on_c, 0, 79, 100
2, 58199, Note_on_c, 0, 79, 0
2, 66960, Note_on_c, 0, 71, 100
2, 67019, Note_on_c, 0, 71, 0
2, 67020, Note_on_c, 0, 79, 100
2, 67049, Note_on_c, 0, 79, 0
2, 67050, Note_on_c, 0, 78, 100
2, 67079, Note_on_c, 0, 78, 0
2, 67080, Note_on_c, 0, 76, 100
2, 67109, Note_on_c, 0, 76, 0
2, 67110, Note_on_c, 0, 75, 100
2, 67139, Note_on_c, 0, 75, 0
2, 67140, Note_on_c, 0, 76, 100
2, 67169, Note_on_c, 0, 76, 0
2, 67170, Note_on_c, 0, 71, 100
2, 67199, Note_on_c, 0, 71, 0
2, 67200, Note_on_c, 0, 72, 100
2, 67214, Note_on_c, 0, 72, 0
2, 67215, Note_on_c, 0, 71, 100
2, 67229, Note_on_c, 0, 71, 0
2, 67230, Note_on_c, 0, 69, 100
2, 67259, Note_on_c, 0, 69, 0
2, 67260, Note_on_c, 0, 69, 100
2, 67289, Note_on_c, 0, 69, 0
2, 67290, Note_on_c, 0, 71, 100
2, 67379, Note_on_c, 0, 71, 0
2, 67380, Note_on_c, 0, 83, 100
2, 67409, Note_on_c, 0, 83, 0
2, 67410, Note_on_c, 0, 81, 100
2, 67439, Note_on_c, 0, 81, 0
2, 67440, Note_on_c, 0, 79, 100
2, 67469, Note_on_c, 0, 79, 0
2, 67470, Note_on_c, 0, 78, 100
2, 67499, Note_on_c, 0, 78, 0
2, 67500, Note_on_c, 0, 79, 100
2, 67514, Note_on_c, 0, 79, 0
2, 67515, Note_on_c, 0, 78, 100
2, 67529, Note_on_c, 0, 78, 0
2, 67530, Note_on_c, 0, 76, 100
2, 67559, Note_on_c, 0, 76, 0
2, 67560, Note_on_c, 0, 78, 100
2, 67574, Note_on_c, 0, 78, 0
2, 67575, Note_on_c, 0, 76, 100
2, 67589, Note_on_c, 0, 76, 0
2, 67590, Note_on_c, 0, 75, 100
2, 67619, Note_on_c, 0, 75, 0
2, 67620, Note_on_c, 0, 75, 100
2, 67649, Note_on_c, 0, 75, 0
2, 67650, Note_on_c, 0, 76, 100
2, 67709, Note_on_c, 0, 76, 0
2, 67710, Note_on_c, 0, 84, 100
2, 67739, Note_on_c, 0, 84, 0
2, 67740, Note_on_c, 0, 83, 100
2, 67769, Note_on_c, 0, 83, 0
2, 67770, Note_on_c, 0, 81, 100
2, 67799, Note_on_c, 0, 81, 0
2, 67800, Note_on_c, 0, 83, 100
2, 67829, Note_on_c, 0, 83, 0
2, 67830, Note_on_c, 0, 79, 100
2, 67859, Note_on_c, 0, 79, 0
2, 67860, Note_on_c, 0, 76, 100
2, 67889, Note_on_c, 0, 76, 0
2, 67890, Note_on_c, 0, 81, 100
2, 67919, Note_on_c, 0, 81, 0
2, 67920, Note_on_c, 0, 79, 100
2, 67949, Note_on_c, 0, 79, 0
2, 67950, Note_on_c, 0, 78, 100
2, 67979, Note_on_c, 0, 78, 0
2, 67980, Note_on_c, 0, 79, 100
2, 68009, Note_on_c, 0, 79, 0
2, 68010, Note_on_c, 0, 76, 100
2, 68039, Note_on_c, 0, 76, 0
2, 68040, Note_on_c, 0, 74, 100
2, 68069, Note_on_c, 0, 74, 0
2, 68070, Note_on_c, 0, 72, 100
2, 68099, Note_on_c, 0, 72, 0
2, 68100, Note_on_c, 0, 71, 100
2, 68129, Note_on_c, 0, 71, 0
2, 68130, Note_on_c, 0, 69, 100
2, 68159, Note_on_c, 0, 69, 0
2, 68160, Note_on_c, 0, 78, 100
2, 68219, Note_on_c, 0, 78, 0
2, 68220, Note_on_c, 0, 76, 100
2, 68279, Note_on_c, 0, 76, 0
2, 68280, Note_on_c, 0, 75, 100
2, 68339, Note_on_c, 0, 75, 0
2, 68400, Note_on_c, 0, 79, 100
2, 68429, Note_on_c, 0, 79, 0
2, 68430, Note_on_c, 0, 78, 100
2, 68459, Note_on_c, 0, 78, 0
2, 68460, Note_on_c, 0, 76, 100
2, 68489, Note_on_c, 0, 76, 0
2, 68490, Note_on_c, 0, 75, 100
2, 68519, Note_on_c, 0, 75, 0
2, 68520, Note_on_c, 0, 76, 100
2, 68549, Note_on_c, 0, 76, 0
2, 68550, Note_on_c, 0, 79, 100
2, 68579, Note_on_c, 0, 79, 0
2, 68580, Note_on_c, 0, 78, 100
2, 68609, Note_on_c, 0, 78, 0
2, 68610, Note_on_c, 0, 83, 100
2, 68639, Note_on_c, 0, 83, 0
2, 68640, Note_on_c, 0, 82, 100
2, 68669, Note_on_c, 0, 82, 0
2, 68670, Note_on_c, 0, 83, 100
2, 68699, Note_on_c, 0, 83, 0
2, 68730, Note_on_c, 0, 71, 100
2, 68759, Note_on_c, 0, 71, 0
2, 68760, Note_on_c, 0, 76, 100
2, 68789, Note_on_c, 0, 76, 0
2, 68790, Note_on_c, 0, 74, 100
2, 68819, Note_on_c, 0, 74, 0
2, 68820, Note_on_c, 0, 73, 100
2, 68849, Note_on_c, 0, 73, 0
2, 68850, Note_on_c, 0, 71, 100
2, 68879, Note_on_c, 0, 71, 0
2, 68880, Note_on_c, 0, 73, 100
2, 68909, Note_on_c, 0, 73, 0
2, 68910, Note_on_c, 0, 76, 100
2, 68939, Note_on_c, 0, 76, 0
2, 68940, Note_on_c, 0, 74, 100
2, 68969, Note_on_c, 0, 74, 0
2, 68970, Note_on_c, 0, 83, 100
2, 68999, Note_on_c, 0, 83, 0
2, 69000, Note_on_c, 0, 82, 100
2, 69029, Note_on_c, 0, 82, 0
2, 69030, Note_on_c, 0, 83, 100
2, 69059, Note_on_c, 0, 83, 0
2, 69090, Note_on_c, 0, 74, 100
2, 69119, Note_on_c, 0, 74, 0
2, 69120, Note_on_c, 0, 73, 100
2, 69149, Note_on_c, 0, 73, 0
2, 69150, Note_on_c, 0, 74, 100
2, 69179, Note_on_c, 0, 74, 0
2, 69180, Note_on_c, 0, 76, 100
2, 69209, Note_on_c, 0, 76, 0
2, 69210, Note_on_c, 0, 79, 100
2, 69239, Note_on_c, 0, 79, 0
2, 69240, Note_on_c, 0, 78, 100
2, 69269, Note_on_c, 0, 78, 0
2, 69270, Note_on_c, 0, 71, 100
2, 69299, Note_on_c, 0, 71, 0
2, 69300, Note_on_c, 0, 70, 100
2, 69329, Note_on_c, 0, 70, 0
2, 69330, Note_on_c, 0, 71, 100
2, 69359, Note_on_c, 0, 71, 0
2, 69360, Note_on_c, 0, 73, 100
2, 69389, Note_on_c, 0, 73, 0
2, 69390, Note_on_c, 0, 76, 100
2, 69419, Note_on_c, 0, 76, 0
2, 69420, Note_on_c, 0, 74, 100
2, 69449, Note_on_c, 0, 74, 0
2, 69450, Note_on_c, 0, 79, 100
2, 69479, Note_on_c, 0, 79, 0
2, 69480, Note_on_c, 0, 78, 100
2, 69509, Note_on_c, 0, 78, 0
2, 69510, Note_on_c, 0, 71, 100
2, 69539, Note_on_c, 0, 71, 0
2, 69540, Note_on_c, 0, 74, 100
2, 69569, Note_on_c, 0, 74, 0
2, 69570, Note_on_c, 0, 73, 100
2, 69599, Note_on_c, 0, 73, 0
2, 69600, Note_on_c, 0, 71, 100
2, 69629, Note_on_c, 0, 71, 0
2, 69630, Note_on_c, 0, 70, 100
2, 69659, Note_on_c, 0, 70, 0
2, 69660, Note_on_c, 0, 71, 100
2, 69779, Note_on_c, 0, 71, 0
2, 70020, Note_on_c, 0, 71, 100
2, 70079, Note_on_c, 0, 71, 0
2, 70080, Note_on_c, 0, 79, 100
2, 70109, Note_on_c, 0, 79, 0
2, 70110, Note_on_c, 0, 78, 100
2, 70139, Note_on_c, 0, 78, 0
2, 70140, Note_on_c, 0, 76, 100
2, 70169, Note_on_c, 0, 76, 0
2, 70170, Note_on_c, 0, 75, 100
2, 70199, Note_on_c, 0, 75, 0
2, 70200, Note_on_c, 0, 76, 100
2, 70259, Note_on_c, 0, 76, 0
2, 70380, Note_on_c, 0, 71, 100
2, 70409, Note_on_c, 0, 71, 0
2, 70410, Note_on_c, 0, 76, 100
2, 70439, Note_on_c, 0, 76, 0
2, 70440, Note_on_c, 0, 75, 100
2, 70469, Note_on_c, 0, 75, 0
2, 70470, Note_on_c, 0, 76, 100
2, 70499, Note_on_c, 0, 76, 0
2, 70500, Note_on_c, 0, 71, 100
2, 70529, Note_on_c, 0, 71, 0
2, 70530, Note_on_c, 0, 69, 100
2, 70559, Note_on_c, 0, 69, 0
2, 70560, Note_on_c, 0, 67, 100
2, 70679, Note_on_c, 0, 67, 0
2, 70740, Note_on_c, 0, 71, 100
2, 70799, Note_on_c, 0, 71, 0
2, 70800, Note_on_c, 0, 79, 100
2, 70829, Note_on_c, 0, 79, 0
2, 70830, Note_on_c, 0, 78, 100
2, 70859, Note_on_c, 0, 78, 0
2, 70860, Note_on_c, 0, 76, 100
2, 70889, Note_on_c, 0, 76, 0
2, 70890, Note_on_c, 0, 75, 100
2, 70919, Note_on_c, 0, 75, 0
2, 70920, Note_on_c, 0, 76, 100
2, 71039, Note_on_c, 0, 76, 0
2, 71100, Note_on_c, 0, 71, 100
2, 71129, Note_on_c, 0, 71, 0
2, 71130, Note_on_c, 0, 76, 100
2, 71159, Note_on_c, 0, 76, 0
2, 71160, Note_on_c, 0, 75, 100
2, 71189, Note_on_c, 0, 75, 0
2, 71190, Note_on_c, 0, 76, 100
2, 71219, Note_on_c, 0, 76, 0
2, 71220, Note_on_c, 0, 71, 100
2, 71249, Note_on_c, 0, 71, 0
2, 71250, Note_on_c, 0, 69, 100
2, 71279, Note_on_c, 0, 69, 0
2, 71280, Note_on_c, 0, 69, 100
2, 71339, Note_on_c, 0, 69, 0
2, 71340, Note_on_c, 0, 67, 100
2, 71399, Note_on_c, 0, 67, 0
2, 71820, Note_on_c, 0, 74, 100
2, 71879, Note_on_c, 0, 74, 0
2, 71880, Note_on_c, 0, 83, 100
2, 71909, Note_on_c, 0, 83, 0
2, 71910, Note_on_c, 0, 81, 100
2, 71939, Note_on_c, 0, 81, 0
2, 71940, Note_on_c, 0, 79, 100
2, 71969, Note_on_c, 0, 79, 0
2, 71970, Note_on_c, 0, 78, 100
2, 71999, Note_on_c, 0, 78, 0
2, 72000, Note_on_c, 0, 79, 100
2, 72029, Note_on_c, 0, 79, 0
2, 72030, Note_on_c, 0, 74, 100
2, 72059, Note_on_c, 0, 74, 0
2, 72060, Note_on_c, 0, 76, 100
2, 72074, Note_on_c, 0, 76, 0
2, 72075, Note_on_c, 0, 74, 100
2, 72089, Note_on_c, 0, 74, 0
2, 72090, Note_on_c, 0, 73, 100
2, 72119, Note_on_c, 0, 73, 0
2, 72120, Note_on_c, 0, 73, 100
2, 72149, Note_on_c, 0, 73, 0
2, 72150, Note_on_c, 0, 74, 100
2, 72239, Note_on_c, 0, 74, 0
2, 72240, Note_on_c, 0, 84, 100
2, 72269, Note_on_c, 0, 84, 0
2, 72270, Note_on_c, 0, 83, 100
2, 72299, Note_on_c, 0, 83, 0
2, 72300, Note_on_c, 0, 81, 100
2, 72329, Note_on_c, 0, 81, 0
2, 72330, Note_on_c, 0, 79, 100
2, 72359, Note_on_c, 0, 79, 0
2, 72360, Note_on_c, 0, 81, 100
2, 72389, Note_on_c, 0, 81, 0
2, 72390, Note_on_c, 0, 74, 100
2, 72419, Note_on_c, 0, 74, 0
2, 72420, Note_on_c, 0, 76, 100
2, 72434, Note_on_c, 0, 76, 0
2, 72435, Note_on_c, 0, 74, 100
2, 72449, Note_on_c, 0, 74, 0
2, 72450, Note_on_c, 0, 73, 100
2, 72479, Note_on_c, 0, 73, 0
2, 72480, Note_on_c, 0, 74, 100
2, 72539, Note_on_c, 0, 74, 0
2, 72960, Note_on_c, 0, 74, 100
2, 72989, Note_on_c, 0, 74, 0
2, 72990, Note_on_c, 0, 72, 100
2, 73019, Note_on_c, 0, 72, 0
2, 73020, Note_on_c, 0, 71, 100
2, 73049, Note_on_c, 0, 71, 0
2, 73050, Note_on_c, 0, 69, 100
2, 73079, Note_on_c, 0, 69, 0
2, 73080, Note_on_c, 0, 71, 100
2, 73094, Note_on_c, 0, 71, 0
2, 73095, Note_on_c, 0, 69, 100
2, 73109, Note_on_c, 0, 69, 0
2, 73110, Note_on_c, 0, 67, 100
2, 73139, Note_on_c, 0, 67, 0
2, 73140, Note_on_c, 0, 69, 100
2, 73154, Note_on_c, 0, 69, 0
2, 73155, Note_on_c, 0, 67, 100
2, 73169, Note_on_c, 0, 67, 0
2, 73170, Note_on_c, 0, 66, 100
2, 73199, Note_on_c, 0, 66, 0
2, 73200, Note_on_c, 0, 67, 100
2, 73259, Note_on_c, 0, 67, 0
2, 73320, Note_on_c, 0, 79, 100
2, 73349, Note_on_c, 0, 79, 0
2, 73350, Note_on_c, 0, 78, 100
2, 73379, Note_on_c, 0, 78, 0
2, 73380, Note_on_c, 0, 76, 100
2, 73409, Note_on_c, 0, 76, 0
2, 73410, Note_on_c, 0, 75, 100
2, 73439, Note_on_c, 0, 75, 0
2, 73440, Note_on_c, 0, 76, 100
2, 73559, Note_on_c, 0, 76, 0
2, 73680, Note_on_c, 0, 76, 100
2, 73709, Note_on_c, 0, 76, 0
2, 73710, Note_on_c, 0, 74, 100
2, 73739, Note_on_c, 0, 74, 0
2, 73740, Note_on_c, 0, 72, 100
2, 73769, Note_on_c, 0, 72, 0
2, 73770, Note_on_c, 0, 71, 100
2, 73799, Note_on_c, 0, 71, 0
2, 73800, Note_on_c, 0, 72, 100
2, 73919, Note_on_c, 0, 72, 0
2, 74040, Note_on_c, 0, 74, 100
2, 74069, Note_on_c, 0, 74, 0
2, 74070, Note_on_c, 0, 72, 100
2, 74099, Note_on_c, 0, 72, 0
2, 74100, Note_on_c, 0, 71, 100
2, 74129, Note_on_c, 0, 71, 0
2, 74130, Note_on_c, 0, 69, 100
2, 74159, Note_on_c, 0, 69, 0
2, 74160, Note_on_c, 0, 71, 100
2, 74279, Note_on_c, 0, 71, 0
2, 74400, Note_on_c, 0, 79, 100
2, 74429, Note_on_c, 0, 79, 0
2, 74430, Note_on_c, 0, 78, 100
2, 74459, Note_on_c, 0, 78, 0
2, 74460, Note_on_c, 0, 76, 100
2, 74489, Note_on_c, 0, 76, 0
2, 74490, Note_on_c, 0, 75, 100
2, 74519, Note_on_c, 0, 75, 0
2, 74520, Note_on_c, 0, 76, 100
2, 74639, Note_on_c, 0, 76, 0
2, 74730, Note_on_c, 0, 76, 100
2, 74759, Note_on_c, 0, 76, 0
2, 74760, Note_on_c, 0, 75, 100
2, 74789, Note_on_c, 0, 75, 0
2, 74790, Note_on_c, 0, 76, 100
2, 74819, Note_on_c, 0, 76, 0
2, 74820, Note_on_c, 0, 71, 100
2, 74849, Note_on_c, 0, 71, 0
2, 74850, Note_on_c, 0, 74, 100
2, 74879, Note_on_c, 0, 74, 0
2, 74880, Note_on_c, 0, 72, 100
2, 74909, Note_on_c, 0, 72, 0
2, 74910, Note_on_c, 0, 84, 100
2, 74939, Note_on_c, 0, 84, 0
2, 74940, Note_on_c, 0, 83, 100
2, 74969, Note_on_c, 0, 83, 0
2, 74970, Note_on_c, 0, 81, 100
2, 74999, Note_on_c, 0, 81, 0
2, 75000, Note_on_c, 0, 83, 100
2, 75029, Note_on_c, 0, 83, 0
2, 75030, Note_on_c, 0, 79, 100
2, 75059, Note_on_c, 0, 79, 0
2, 75060, Note_on_c, 0, 76, 100
2, 75089, Note_on_c, 0, 76, 0
2, 75090, Note_on_c, 0, 81, 100
2, 75119, Note_on_c, 0, 81, 0
2, 75120, Note_on_c, 0, 79, 100
2, 75149, Note_on_c, 0, 79, 0
2, 75150, Note_on_c, 0, 78, 100
2, 75179, Note_on_c, 0, 78, 0
2, 75180, Note_on_c, 0, 79, 100
2, 75209, Note_on_c, 0, 79, 0
2, 75210, Note_on_c, 0, 76, 100
2, 75239, Note_on_c, 0, 76, 0
2, 75240, Note_on_c, 0, 74, 100
2, 75269, Note_on_c, 0, 74, 0
2, 75270, Note_on_c, 0, 72, 100
2, 75299, Note_on_c, 0, 72, 0
2, 75300, Note_on_c, 0, 71, 100
2, 75329, Note_on_c, 0, 71, 0
2, 75330, Note_on_c, 0, 69, 100
2, 75359, Note_on_c, 0, 69, 0
2, 75360, Note_on_c, 0, 78, 100
2, 75389, Note_on_c, 0, 78, 0
2, 75420, Note_on_c, 0, 76, 100
2, 75479, Note_on_c, 0, 76, 0
2, 75480, Note_on_c, 0, 75, 100
2, 75539, Note_on_c, 0, 75, 0
2, 75630, Note_on_c, 0, 78, 100
2, 75659, Note_on_c, 0, 78, 0
2, 75660, Note_on_c, 0, 76, 100
2, 75689, Note_on_c, 0, 76, 0
2, 75690, Note_on_c, 0, 75, 100
2, 75719, Note_on_c, 0, 75, 0
2, 75720, Note_on_c, 0, 76, 100
2, 75749, Note_on_c, 0, 76, 0
2, 75750, Note_on_c, 0, 79, 100
2, 75779, Note_on_c, 0, 79, 0
2, 75780, Note_on_c, 0, 78, 100
2, 75809, Note_on_c, 0, 78, 0
2, 75810, Note_on_c, 0, 83, 100
2, 75839, Note_on_c, 0, 83, 0
2, 75840, Note_on_c, 0, 82, 100
2, 75869, Note_on_c, 0, 82, 0
2, 75870, Note_on_c, 0, 83, 100
2, 75899, Note_on_c, 0, 83, 0
2, 75990, Note_on_c, 0, 74, 100
2, 76019, Note_on_c, 0, 74, 0
2, 76020, Note_on_c, 0, 73, 100
2, 76049, Note_on_c, 0, 73, 0
2, 76050, Note_on_c, 0, 71, 100
2, 76079, Note_on_c, 0, 71, 0
2, 76080, Note_on_c, 0, 73, 100
2, 76109, Note_on_c, 0, 73, 0
2, 76110, Note_on_c, 0, 76, 100
2, 76139, Note_on_c, 0, 76, 0
2, 76140, Note_on_c, 0, 74, 100
2, 76169, Note_on_c, 0, 74, 0
2, 76170, Note_on_c, 0, 83, 100
2, 76199, Note_on_c, 0, 83, 0
2, 76200, Note_on_c, 0, 82, 100
2, 76229, Note_on_c, 0, 82, 0
2, 76230, Note_on_c, 0, 83, 100
2, 76259, Note_on_c, 0, 83, 0
2, 76290, Note_on_c, 0, 74, 100
2, 76319, Note_on_c, 0, 74, 0
2, 76320, Note_on_c, 0, 73, 100
2, 76349, Note_on_c, 0, 73, 0
2, 76350, Note_on_c, 0, 74, 100
2, 76379, Note_on_c, 0, 74, 0
2, 76380, Note_on_c, 0, 76, 100
2, 76409, Note_on_c, 0, 76, 0
2, 76410, Note_on_c, 0, 79, 100
2, 76439, Note_on_c, 0, 79, 0
2, 76440, Note_on_c, 0, 78, 100
2, 76469, Note_on_c, 0, 78, 0
2, 76470, Note_on_c, 0, 71, 100
2, 76499, Note_on_c, 0, 71, 0
2, 76500, Note_on_c, 0, 70, 100
2, 76529, Note_on_c, 0, 70, 0
2, 76530, Note_on_c, 0, 71, 100
2, 76559, Note_on_c, 0, 71, 0
2, 76560, Note_on_c, 0, 73, 100
2, 76589, Note_on_c, 0, 73, 0
2, 76590, Note_on_c, 0, 76, 100
2, 76619, Note_on_c, 0, 76, 0
2, 76620, Note_on_c, 0, 74, 100
2, 76649, Note_on_c, 0, 74, 0
2, 76650, Note_on_c, 0, 71, 100
2, 76679, Note_on_c, 0, 71, 0
2, 76680, Note_on_c, 0, 83, 100
2, 76739, Note_on_c, 0, 83, 0
2, 76920, Note_on_c, 0, 71, 100
2, 76949, Note_on_c, 0, 71, 0
2, 76950, Note_on_c, 0, 69, 100
2, 76979, Note_on_c, 0, 69, 0
2, 76980, Note_on_c, 0, 67, 100
2, 77009, Note_on_c, 0, 67, 0
2, 77010, Note_on_c, 0, 66, 100
2, 77039, Note_on_c, 0, 66, 0
2, 77040, Note_on_c, 0, 67, 100
2, 77069, Note_on_c, 0, 67, 0
2, 77070, Note_on_c, 0, 79, 100
2, 77099, Note_on_c, 0, 79, 0
2, 77100, Note_on_c, 0, 78, 100
2, 77129, Note_on_c, 0, 78, 0
2, 77130, Note_on_c, 0, 76, 100
2, 77159, Note_on_c, 0, 76, 0
2, 77160, Note_on_c, 0, 78, 100
2, 77189, Note_on_c, 0, 78, 0
2, 77190, Note_on_c, 0, 74, 100
2, 77219, Note_on_c, 0, 74, 0
2, 77220, Note_on_c, 0, 71, 100
2, 77249, Note_on_c, 0, 71, 0
2, 77250, Note_on_c, 0, 76, 100
2, 77279, Note_on_c, 0, 76, 0
2, 77280, Note_on_c, 0, 74, 100
2, 77309, Note_on_c, 0, 74, 0
2, 77310, Note_on_c, 0, 73, 100
2, 77339, Note_on_c, 0, 73, 0
2, 77340, Note_on_c, 0, 74, 100
2, 77369, Note_on_c, 0, 74, 0
2, 77370, Note_on_c, 0, 71, 100
2, 77399, Note_on_c, 0, 71, 0
2, 77400, Note_on_c, 0, 69, 100
2, 77429, Note_on_c, 0, 69, 0
2, 77430, Note_on_c, 0, 67, 100
2, 77459, Note_on_c, 0, 67, 0
2, 77460, Note_on_c, 0, 66, 100
2, 77489, Note_on_c, 0, 66, 0
2, 77490, Note_on_c, 0, 64, 100
2, 77519, Note_on_c, 0, 64, 0
2, 77520, Note_on_c, 0, 73, 100
2, 77549, Note_on_c, 0, 73, 0
2, 77580, Note_on_c, 0, 71, 100
2, 77639, Note_on_c, 0, 71, 0
2, 77640, Note_on_c, 0, 70, 100
2, 77699, Note_on_c, 0, 70, 0
2, 77760, Note_on_c, 0, 66, 100
2, 77819, Note_on_c, 0, 66, 0
2, 77820, Note_on_c, 0, 74, 100
2, 77849, Note_on_c, 0, 74, 0
2, 77850, Note_on_c, 0, 73, 100
2, 77879, Note_on_c, 0, 73, 0
2, 77880, Note_on_c, 0, 71, 100
2, 77909, Note_on_c, 0, 71, 0
2, 77910, Note_on_c, 0, 70, 100
2, 77939, Note_on_c, 0, 70, 0
2, 77940, Note_on_c, 0, 71, 100
2, 77969, Note_on_c, 0, 71, 0
2, 77970, Note_on_c, 0, 66, 100
2, 77999, Note_on_c, 0, 66, 0
2, 78000, Note_on_c, 0, 67, 100
2, 78014, Note_on_c, 0, 67, 0
2, 78015, Note_on_c, 0, 66, 100
2, 78029, Note_on_c, 0, 66, 0
2, 78030, Note_on_c, 0, 64, 100
2, 78059, Note_on_c, 0, 64, 0
2, 78060, Note_on_c, 0, 64, 100
2, 78089, Note_on_c, 0, 64, 0
2, 78090, Note_on_c, 0, 66, 100
2, 78179, Note_on_c, 0, 66, 0
2, 78180, Note_on_c, 0, 78, 100
2, 78209, Note_on_c, 0, 78, 0
2, 78210, Note_on_c, 0, 76, 100
2, 78239, Note_on_c, 0, 76, 0
2, 78240, Note_on_c, 0, 74, 100
2, 78269, Note_on_c, 0, 74, 0
2, 78270, Note_on_c, 0, 73, 100
2, 78299, Note_on_c, 0, 73, 0
2, 78300, Note_on_c, 0, 74, 100
2, 78314, Note_on_c, 0, 74, 0
2, 78315, Note_on_c, 0, 73, 100
2, 78329, Note_on_c, 0, 73, 0
2, 78330, Note_on_c, 0, 71, 100
2, 78359, Note_on_c, 0, 71, 0
2, 78360, Note_on_c, 0, 73, 100
2, 78374, Note_on_c, 0, 73, 0
2, 78375, Note_on_c, 0, 71, 100
2, 78389, Note_on_c, 0, 71, 0
2, 78390, Note_on_c, 0, 70, 100
2, 78419, Note_on_c, 0, 70, 0
2, 78420, Note_on_c, 0, 71, 100
2, 78449, Note_on_c, 0, 71, 0
2, 78450, Note_on_c, 0, 74, 100
2, 78479, Note_on_c, 0, 74, 0
2, 78480, Note_on_c, 0, 73, 100
2, 78509, Note_on_c, 0, 73, 0
2, 78510, Note_on_c, 0, 74, 100
2, 78539, Note_on_c, 0, 74, 0
2, 78540, Note_on_c, 0, 76, 100
2, 78569, Note_on_c, 0, 76, 0
2, 78570, Note_on_c, 0, 79, 100
2, 78599, Note_on_c, 0, 79, 0
2, 78600, Note_on_c, 0, 78, 100
2, 78629, Note_on_c, 0, 78, 0
2, 78630, Note_on_c, 0, 71, 100
2, 78659, Note_on_c, 0, 71, 0
2, 78660, Note_on_c, 0, 70, 100
2, 78689, Note_on_c, 0, 70, 0
2, 78690, Note_on_c, 0, 71, 100
2, 78719, Note_on_c, 0, 71, 0
2, 78720, Note_on_c, 0, 73, 100
2, 78749, Note_on_c, 0, 73, 0
2, 78750, Note_on_c, 0, 76, 100
2, 78779, Note_on_c, 0, 76, 0
2, 78780, Note_on_c, 0, 74, 100
2, 78809, Note_on_c, 0, 74, 0
2, 78810, Note_on_c, 0, 79, 100
2, 78839, Note_on_c, 0, 79, 0
2, 78840, Note_on_c, 0, 78, 100
2, 78869, Note_on_c, 0, 78, 0
2, 78870, Note_on_c, 0, 71, 100
2, 78899, Note_on_c, 0, 71, 0
2, 78900, Note_on_c, 0, 74, 100
2, 78929, Note_on_c, 0, 74, 0
2, 78930, Note_on_c, 0, 73, 100
2, 78959, Note_on_c, 0, 73, 0
2, 78960, Note_on_c, 0, 71, 100
2, 78989, Note_on_c, 0, 71, 0
2, 78990, Note_on_c, 0, 70, 100
2, 79019, Note_on_c, 0, 70, 0
2, 79020, Note_on_c, 0, 71, 100
2, 79079, Note_on_c, 0, 71, 0
2, 79095, Note_on_c, 0, 66, 100
2, 79109, Note_on_c, 0, 66, 0
2, 79110, Note_on_c, 0, 67, 100
2, 79124, Note_on_c, 0, 67, 0
2, 79125, Note_on_c, 0, 69, 100
2, 79139, Note_on_c, 0, 69, 0
2, 79140, Note_on_c, 0, 71, 100
2, 79154, Note_on_c, 0, 71, 0
2, 79155, Note_on_c, 0, 69, 100
2, 79169, Note_on_c, 0, 69, 0
2, 79170, Note_on_c, 0, 71, 100
2, 79184, Note_on_c, 0, 71, 0
2, 79185, Note_on_c, 0, 72, 100
2, 79199, Note_on_c, 0, 72, 0
2, 79200, Note_on_c, 0, 74, 100
2, 79259, Note_on_c, 0, 74, 0
2, 79260, Note_on_c, 0, 83, 100
2, 79289, Note_on_c, 0, 83, 0
2, 79290, Note_on_c, 0, 81, 100
2, 79319, Note_on_c, 0, 81, 0
2, 79320, Note_on_c, 0, 79, 100
2, 79349, Note_on_c, 0, 79, 0
2, 79350, Note_on_c, 0, 78, 100
2, 79379, Note_on_c, 0, 78, 0
2, 79380, Note_on_c, 0, 79, 100
2, 79409, Note_on_c, 0, 79, 0
2, 79410, Note_on_c, 0, 74, 100
2, 79439, Note_on_c, 0, 74, 0
2, 79440, Note_on_c, 0, 76, 100
2, 79454, Note_on_c, 0, 76, 0
2, 79455, Note_on_c, 0, 74, 100
2, 79469, Note_on_c, 0, 74, 0
2, 79470, Note_on_c, 0, 72, 100
2, 79499, Note_on_c, 0, 72, 0
2, 79500, Note_on_c, 0, 74, 100
2, 79559, Note_on_c, 0, 74, 0
2, 79770, Note_on_c, 0, 74, 100
2, 79799, Note_on_c, 0, 74, 0
2, 79800, Note_on_c, 0, 72, 100
2, 79829, Note_on_c, 0, 72, 0
2, 79830, Note_on_c, 0, 71, 100
2, 79859, Note_on_c, 0, 71, 0
2, 79860, Note_on_c, 0, 72, 100
2, 79889, Note_on_c, 0, 72, 0
2, 79890, Note_on_c, 0, 76, 100
2, 79919, Note_on_c, 0, 76, 0
2, 79920, Note_on_c, 0, 67, 100
2, 79979, Note_on_c, 0, 67, 0
2, 79980, Note_on_c, 0, 76, 100
2, 80009, Note_on_c, 0, 76, 0
2, 80010, Note_on_c, 0, 74, 100
2, 80039, Note_on_c, 0, 74, 0
2, 80040, Note_on_c, 0, 73, 100
2, 80069, Note_on_c, 0, 73, 0
2, 80070, Note_on_c, 0, 71, 100
2, 80099, Note_on_c, 0, 71, 0
2, 80100, Note_on_c, 0, 69, 100
2, 80129, Note_on_c, 0, 69, 0
2, 80130, Note_on_c, 0, 76, 100
2, 80159, Note_on_c, 0, 76, 0
2, 80160, Note_on_c, 0, 78, 100
2, 80174, Note_on_c, 0, 78, 0
2, 80175, Note_on_c, 0, 76, 100
2, 80189, Note_on_c, 0, 76, 0
2, 80190, Note_on_c, 0, 74, 100
2, 80219, Note_on_c, 0, 74, 0
2, 80220, Note_on_c, 0, 79, 100
2, 80279, Note_on_c, 0, 79, 0
2, 80490, Note_on_c, 0, 79, 100
2, 80519, Note_on_c, 0, 79, 0
2, 80520, Note_on_c, 0, 78, 100
2, 80549, Note_on_c, 0, 78, 0
2, 80550, Note_on_c, 0, 76, 100
2, 80579, Note_on_c, 0, 76, 0
2, 80580, Note_on_c, 0, 78, 100
2, 80609, Note_on_c, 0, 78, 0
2, 80610, Note_on_c, 0, 83, 100
2, 80639, Note_on_c, 0, 83, 0
2, 80640, Note_on_c, 0, 85, 100
2, 80669, Note_on_c, 0, 85, 0
2, 80700, Note_on_c, 0, 73, 100
2, 80729, Note_on_c, 0, 73, 0
2, 80850, Note_on_c, 0, 79, 100
2, 80879, Note_on_c, 0, 79, 0
2, 80880, Note_on_c, 0, 78, 100
2, 80909, Note_on_c, 0, 78, 0
2, 80910, Note_on_c, 0, 76, 100
2, 80939, Note_on_c, 0, 76, 0
2, 80940, Note_on_c, 0, 78, 100
2, 80969, Note_on_c, 0, 78, 0
2, 80970, Note_on_c, 0, 74, 100
2, 80999, Note_on_c, 0, 74, 0
2, 81000, Note_on_c, 0, 71, 100
2, 81029, Note_on_c, 0, 71, 0
2, 81060, Note_on_c, 0, 83, 100
2, 81089, Note_on_c, 0, 83, 0
2, 81210, Note_on_c, 0, 76, 100
2, 81254, Note_on_c, 0, 76, 0
2, 81255, Note_on_c, 0, 74, 100
2, 81269, Note_on_c, 0, 74, 0
2, 81270, Note_on_c, 0, 72, 100
2, 81284, Note_on_c, 0, 72, 0
2, 81285, Note_on_c, 0, 71, 100
2, 81299, Note_on_c, 0, 71, 0
2, 81300, Note_on_c, 0, 72, 100
2, 81314, Note_on_c, 0, 72, 0
2, 81315, Note_on_c, 0, 71, 100
2, 81329, Note_on_c, 0, 71, 0
2, 81330, Note_on_c, 0, 69, 100
2, 81344, Note_on_c, 0, 69, 0
2, 81345, Note_on_c, 0, 67, 100
2, 81359, Note_on_c, 0, 67, 0
2, 81360, Note_on_c, 0, 69, 100
2, 81374, Note_on_c, 0, 69, 0
2, 81375, Note_on_c, 0, 67, 100
2, 81389, Note_on_c, 0, 67, 0
2, 81390, Note_on_c, 0, 66, 100
2, 81404, Note_on_c, 0, 66, 0
2, 81405, Note_on_c, 0, 64, 100
2, 81419, Note_on_c, 0, 64, 0
2, 81420, Note_on_c, 0, 62, 100
2, 81840, Note_on_c, 0, 62, 0
2, 82080, Note_on_c, 0, 62, 100
2, 82109, Note_on_c, 0, 62, 0
2, 82110, Note_on_c, 0, 74, 100
2, 82154, Note_on_c, 0, 74, 0
2, 82155, Note_on_c, 0, 72, 100
2, 82169, Note_on_c, 0, 72, 0
2, 82170, Note_on_c, 0, 71, 100
2, 82184, Note_on_c, 0, 71, 0
2, 82185, Note_on_c, 0, 74, 100
2, 82199, Note_on_c, 0, 74, 0
2, 82200, Note_on_c, 0, 72, 100
2, 82214, Note_on_c, 0, 72, 0
2, 82215, Note_on_c, 0, 71, 100
2, 82229, Note_on_c, 0, 71, 0
2, 82230, Note_on_c, 0, 69, 100
2, 82244, Note_on_c, 0, 69, 0
2, 82245, Note_on_c, 0, 72, 100
2, 82259, Note_on_c, 0, 72, 0
2, 82260, Note_on_c, 0, 71, 100
2, 82274, Note_on_c, 0, 71, 0
2, 82275, Note_on_c, 0, 67, 100
2, 82289, Note_on_c, 0, 67, 0
2, 82290, Note_on_c, 0, 66, 100
2, 82304, Note_on_c, 0, 66, 0
2, 82305, Note_on_c, 0, 67, 100
2, 82319, Note_on_c, 0, 67, 0
2, 82320, Note_on_c, 0, 69, 100
2, 82334, Note_on_c, 0, 69, 0
2, 82335, Note_on_c, 0, 71, 100
2, 82349, Note_on_c, 0, 71, 0
2, 82350, Note_on_c, 0, 72, 100
2, 82364, Note_on_c, 0, 72, 0
2, 82365, Note_on_c, 0, 74, 100
2, 82379, Note_on_c, 0, 74, 0
2, 82380, Note_on_c, 0, 72, 100
2, 82394, Note_on_c, 0, 72, 0
2, 82395, Note_on_c, 0, 71, 100
2, 82409, Note_on_c, 0, 71, 0
2, 82410, Note_on_c, 0, 69, 100
2, 82424, Note_on_c, 0, 69, 0
2, 82425, Note_on_c, 0, 72, 100
2, 82439, Note_on_c, 0, 72, 0
2, 82440, Note_on_c, 0, 71, 100
2, 82454, Note_on_c, 0, 71, 0
2, 82455, Note_on_c, 0, 67, 100
2, 82469, Note_on_c, 0, 67, 0
2, 82470, Note_on_c, 0, 66, 100
2, 82484, Note_on_c, 0, 66, 0
2, 82485, Note_on_c, 0, 67, 100
2, 82499, Note_on_c, 0, 67, 0
2, 82500, Note_on_c, 0, 69, 100
2, 82514, Note_on_c, 0, 69, 0
2, 82515, Note_on_c, 0, 71, 100
2, 82529, Note_on_c, 0, 71, 0
2, 82530, Note_on_c, 0, 72, 100
2, 82544, Note_on_c, 0, 72, 0
2, 82545, Note_on_c, 0, 74, 100
2, 82559, Note_on_c, 0, 74, 0
2, 82560, Note_on_c, 0, 76, 100
2, 82574, Note_on_c, 0, 76, 0
2, 82575, Note_on_c, 0, 74, 100
2, 82589, Note_on_c, 0, 74, 0
2, 82590, Note_on_c, 0, 72, 100
2, 82604, Note_on_c, 0, 72, 0
2, 82605, Note_on_c, 0, 76, 100
2, 82619, Note_on_c, 0, 76, 0
2, 82620, Note_on_c, 0, 74, 100
2, 82634, Note_on_c, 0, 74, 0
2, 82635, Note_on_c, 0, 71, 100
2, 82649, Note_on_c, 0, 71, 0
2, 82650, Note_on_c, 0, 69, 100
2, 82664, Note_on_c, 0, 69, 0
2, 82665, Note_on_c, 0, 71, 100
2, 82679, Note_on_c, 0, 71, 0
2, 82680, Note_on_c, 0, 73, 100
2, 82694, Note_on_c, 0, 73, 0
2, 82695, Note_on_c, 0, 74, 100
2, 82709, Note_on_c, 0, 74, 0
2, 82710, Note_on_c, 0, 76, 100
2, 82724, Note_on_c, 0, 76, 0
2, 82725, Note_on_c, 0, 78, 100
2, 82739, Note_on_c, 0, 78, 0
2, 82740, Note_on_c, 0, 79, 100
2, 82754, Note_on_c, 0, 79, 0
2, 82755, Note_on_c, 0, 78, 100
2, 82769, Note_on_c, 0, 78, 0
2, 82770, Note_on_c, 0, 76, 100
2, 82784, Note_on_c, 0, 76, 0
2, 82785, Note_on_c, 0, 79, 100
2, 82799, Note_on_c, 0, 79, 0
2, 82800, Note_on_c, 0, 78, 100
2, 82814, Note_on_c, 0, 78, 0
2, 82815, Note_on_c, 0, 74, 100
2, 82829, Note_on_c, 0, 74, 0
2, 82830, Note_on_c, 0, 73, 100
2, 82844, Note_on_c, 0, 73, 0
2, 82845, Note_on_c, 0, 74, 100
2, 82859, Note_on_c, 0, 74, 0
2, 82860, Note_on_c, 0, 76, 100
2, 82874, Note_on_c, 0, 76, 0
2, 82875, Note_on_c, 0, 78, 100
2, 82889, Note_on_c, 0, 78, 0
2, 82890, Note_on_c, 0, 79, 100
2, 82904, Note_on_c, 0, 79, 0
2, 82905, Note_on_c, 0, 81, 100
2, 82919, Note_on_c, 0, 81, 0
2, 82920, Note_on_c, 0, 83, 100
2, 82934, Note_on_c, 0, 83, 0
2, 82935, Note_on_c, 0, 81, 100
2, 82949, Note_on_c, 0, 81, 0
2, 82950, Note_on_c, 0, 79, 100
2, 82964, Note_on_c, 0, 79, 0
2, 82965, Note_on_c, 0, 83, 100
2, 82979, Note_on_c, 0, 83, 0
2, 82980, Note_on_c, 0, 81, 100
2, 83039, Note_on_c, 0, 81, 0
2, 83040, Note_on_c, 0, 74, 100
2, 83099, Note_on_c, 0, 74, 0
2, 83190, Note_on_c, 0, 67, 100
2, 83219, Note_on_c, 0, 67, 0
2, 83220, Note_on_c, 0, 79, 100
2, 83234, Note_on_c, 0, 79, 0
2, 83235, Note_on_c, 0, 77, 100
2, 83249, Note_on_c, 0, 77, 0
2, 83250, Note_on_c, 0, 76, 100
2, 83264, Note_on_c, 0, 76, 0
2, 83265, Note_on_c, 0, 79, 100
2, 83279, Note_on_c, 0, 79, 0
2, 83280, Note_on_c, 0, 77, 100
2, 83294, Note_on_c, 0, 77, 0
2, 83295, Note_on_c, 0, 76, 100
2, 83309, Note_on_c, 0, 76, 0
2, 83310, Note_on_c, 0, 74, 100
2, 83324, Note_on_c, 0, 74, 0
2, 83325, Note_on_c, 0, 77, 100
2, 83339, Note_on_c, 0, 77, 0
2, 83340, Note_on_c, 0, 76, 100
2, 83354, Note_on_c, 0, 76, 0
2, 83355, Note_on_c, 0, 74, 100
2, 83369, Note_on_c, 0, 74, 0
2, 83370, Note_on_c, 0, 76, 100
2, 83414, Note_on_c, 0, 76, 0
2, 83415, Note_on_c, 0, 74, 100
2, 83429, Note_on_c, 0, 74, 0
2, 83430, Note_on_c, 0, 72, 100
2, 83444, Note_on_c, 0, 72, 0
2, 83445, Note_on_c, 0, 76, 100
2, 83459, Note_on_c, 0, 76, 0
2, 83460, Note_on_c, 0, 74, 100
2, 83474, Note_on_c, 0, 74, 0
2, 83475, Note_on_c, 0, 72, 100
2, 83489, Note_on_c, 0, 72, 0
2, 83490, Note_on_c, 0, 71, 100
2, 83504, Note_on_c, 0, 71, 0
2, 83505, Note_on_c, 0, 74, 100
2, 83519, Note_on_c, 0, 74, 0
2, 83520, Note_on_c, 0, 72, 100
2, 83534, Note_on_c, 0, 72, 0
2, 83535, Note_on_c, 0, 71, 100
2, 83549, Note_on_c, 0, 71, 0
2, 83550, Note_on_c, 0, 72, 100
2, 83594, Note_on_c, 0, 72, 0
2, 83595, Note_on_c, 0, 71, 100
2, 83609, Note_on_c, 0, 71, 0
2, 83610, Note_on_c, 0, 69, 100
2, 83624, Note_on_c, 0, 69, 0
2, 83625, Note_on_c, 0, 72, 100
2, 83639, Note_on_c, 0, 72, 0
2, 83640, Note_on_c, 0, 71, 100
2, 83654, Note_on_c, 0, 71, 0
2, 83655, Note_on_c, 0, 69, 100
2, 83669, Note_on_c, 0, 69, 0
2, 83670, Note_on_c, 0, 67, 100
2, 83684, Note_on_c, 0, 67, 0
2, 83685, Note_on_c, 0, 71, 100
2, 83699, Note_on_c, 0, 71, 0
2, 83700, Note_on_c, 0, 69, 100
2, 83759, Note_on_c, 0, 69, 0
2, 83760, Note_on_c, 0, 62, 100
2, 83819, Note_on_c, 0, 62, 0
2, 84090, Note_on_c, 0, 79, 100
2, 84134, Note_on_c, 0, 79, 0
2, 84135, Note_on_c, 0, 78, 100
2, 84149, Note_on_c, 0, 78, 0
2, 84150, Note_on_c, 0, 76, 100
2, 84164, Note_on_c, 0, 76, 0
2, 84165, Note_on_c, 0, 74, 100
2, 84179, Note_on_c, 0, 74, 0
2, 84180, Note_on_c, 0, 72, 100
2, 84194, Note_on_c, 0, 72, 0
2, 84195, Note_on_c, 0, 71, 100
2, 84209, Note_on_c, 0, 71, 0
2, 84210, Note_on_c, 0, 69, 100
2, 84224, Note_on_c, 0, 69, 0
2, 84225, Note_on_c, 0, 67, 100
2, 84239, Note_on_c, 0, 67, 0
2, 84240, Note_on_c, 0, 66, 100
2, 84254, Note_on_c, 0, 66, 0
2, 84255, Note_on_c, 0, 67, 100
2, 84269, Note_on_c, 0, 67, 0
2, 84270, Note_on_c, 0, 69, 100
2, 84284, Note_on_c, 0, 69, 0
2, 84285, Note_on_c, 0, 71, 100
2, 84299, Note_on_c, 0, 71, 0
2, 84300, Note_on_c, 0, 72, 100
2, 84329, Note_on_c, 0, 72, 0
2, 84330, Note_on_c, 0, 76, 100
2, 84344, Note_on_c, 0, 76, 0
2, 84360, Note_on_c, 0, 74, 100
2, 84374, Note_on_c, 0, 74, 0
2, 84390, Note_on_c, 0, 67, 100
2, 84404, Note_on_c, 0, 67, 0
2, 84420, Note_on_c, 0, 62, 100
2, 84434, Note_on_c, 0, 62, 0
2, 84435, Note_on_c, 0, 64, 100
2, 84449, Note_on_c, 0, 64, 0
2, 84450, Note_on_c, 0, 66, 100
2, 84464, Note_on_c, 0, 66, 0
2, 84465, Note_on_c, 0, 67, 100
2, 84479, Note_on_c, 0, 67, 0
2, 84480, Note_on_c, 0, 69, 100
2, 84509, Note_on_c, 0, 69, 0
2, 84510, Note_on_c, 0, 72, 100
2, 84524, Note_on_c, 0, 72, 0
2, 84540, Note_on_c, 0, 71, 100
2, 84554, Note_on_c, 0, 71, 0
2, 84570, Note_on_c, 0, 76, 100
2, 84584, Note_on_c, 0, 76, 0
2, 84600, Note_on_c, 0, 74, 100
2, 84614, Note_on_c, 0, 74, 0
2, 84630, Note_on_c, 0, 67, 100
2, 84644, Note_on_c, 0, 67, 0
2, 84660, Note_on_c, 0, 71, 100
2, 84689, Note_on_c, 0, 71, 0
2, 84690, Note_on_c, 0, 69, 100
2, 84710, Note_on_c, 0, 69, 0
2, 84720, Note_on_c, 0, 67, 100
2, 84749, Note_on_c, 0, 67, 0
2, 84750, Note_on_c, 0, 66, 100
2, 84770, Note_on_c, 0, 66, 0
2, 84780, Note_on_c, 0, 67, 100
2, 84839, Note_on_c, 0, 67, 0
2, 84990, Note_on_c, 0, 83, 100
2, 85019, Note_on_c, 0, 83, 0
2, 85020, Note_on_c, 0, 81, 100
2, 85049, Note_on_c, 0, 81, 0
2, 85050, Note_on_c, 0, 80, 100
2, 85079, Note_on_c, 0, 80, 0
2, 85080, Note_on_c, 0, 81, 100
2, 85109, Note_on_c, 0, 81, 0
2, 85110, Note_on_c, 0, 84, 100
2, 85139, Note_on_c, 0, 84, 0
2, 85140, Note_on_c, 0, 75, 100
2, 85199, Note_on_c, 0, 75, 0
2, 85350, Note_on_c, 0, 72, 100
2, 85379, Note_on_c, 0, 72, 0
2, 85380, Note_on_c, 0, 71, 100
2, 85409, Note_on_c, 0, 71, 0
2, 85410, Note_on_c, 0, 69, 100
2, 85439, Note_on_c, 0, 69, 0
2, 85440, Note_on_c, 0, 71, 100
2, 85469, Note_on_c, 0, 71, 0
2, 85470, Note_on_c, 0, 74, 100
2, 85499, Note_on_c, 0, 74, 0
2, 85500, Note_on_c, 0, 68, 100
2, 85559, Note_on_c, 0, 68, 0
2, 85680, Note_on_c, 0, 71, 100
2, 85739, Note_on_c, 0, 71, 0
2, 85860, Note_on_c, 0, 74, 100
2, 85919, Note_on_c, 0, 74, 0
2, 86070, Note_on_c, 0, 84, 100
2, 86114, Note_on_c, 0, 84, 0
2, 86115, Note_on_c, 0, 83, 100
2, 86129, Note_on_c, 0, 83, 0
2, 86130, Note_on_c, 0, 81, 100
2, 86144, Note_on_c, 0, 81, 0
2, 86145, Note_on_c, 0, 79, 100
2, 86159, Note_on_c, 0, 79, 0
2, 86160, Note_on_c, 0, 78, 100
2, 86174, Note_on_c, 0, 78, 0
2, 86175, Note_on_c, 0, 76, 100
2, 86189, Note_on_c, 0, 76, 0
2, 86190, Note_on_c, 0, 75, 100
2, 86204, Note_on_c, 0, 75, 0
2, 86205, Note_on_c, 0, 76, 100
2, 86219, Note_on_c, 0, 76, 0
2, 86220, Note_on_c, 0, 75, 100
2, 86249, Note_on_c, 0, 75, 0
2, 86250, Note_on_c, 0, 81, 100
2, 86279, Note_on_c, 0, 81, 0
2, 86280, Note_on_c, 0, 79, 100
2, 86294, Note_on_c, 0, 79, 0
2, 86295, Note_on_c, 0, 78, 100
2, 86309, Note_on_c, 0, 78, 0
2, 86310, Note_on_c, 0, 76, 100
2, 86339, Note_on_c, 0, 76, 0
2, 86340, Note_on_c, 0, 78, 100
2, 86369, Note_on_c, 0, 78, 0
2, 86370, Note_on_c, 0, 83, 100
2, 86399, Note_on_c, 0, 83, 0
2, 86400, Note_on_c, 0, 71, 100
2, 86579, Note_on_c, 0, 71, 0
2, 86610, Note_on_c, 0, 79, 100
2, 86639, Note_on_c, 0, 79, 0
2, 86640, Note_on_c, 0, 78, 100
2, 86669, Note_on_c, 0, 78, 0
2, 86670, Note_on_c, 0, 76, 100
2, 86699, Note_on_c, 0, 76, 0
2, 86700, Note_on_c, 0, 81, 100
2, 86759, Note_on_c, 0, 81, 0
2, 86775, Note_on_c, 0, 83, 100
2, 86789, Note_on_c, 0, 83, 0
2, 86790, Note_on_c, 0, 81, 100
2, 86804, Note_on_c, 0, 81, 0
2, 86805, Note_on_c, 0, 79, 100
2, 86819, Note_on_c, 0, 79, 0
2, 86820, Note_on_c, 0, 78, 100
2, 86834, Note_on_c, 0, 78, 0
2, 86835, Note_on_c, 0, 76, 100
2, 86849, Note_on_c, 0, 76, 0
2, 86850, Note_on_c, 0, 75, 100
2, 86864, Note_on_c, 0, 75, 0
2, 86865, Note_on_c, 0, 73, 100
2, 86879, Note_on_c, 0, 73, 0
2, 86880, Note_on_c, 0, 71, 100
2, 86894, Note_on_c, 0, 71, 0
2, 86895, Note_on_c, 0, 69, 100
2, 86909, Note_on_c, 0, 69, 0
2, 86910, Note_on_c, 0, 67, 100
2, 86924, Note_on_c, 0, 67, 0
2, 86925, Note_on_c, 0, 66, 100
2, 86939, Note_on_c, 0, 66, 0
2, 86940, Note_on_c, 0, 64, 100
2, 86969, Note_on_c, 0, 64, 0
2, 86970, Note_on_c, 0, 83, 100
2, 87014, Note_on_c, 0, 83, 0
2, 87015, Note_on_c, 0, 81, 100
2, 87029, Note_on_c, 0, 81, 0
2, 87030, Note_on_c, 0, 79, 100
2, 87044, Note_on_c, 0, 79, 0
2, 87045, Note_on_c, 0, 83, 100
2, 87059, Note_on_c, 0, 83, 0
2, 87060, Note_on_c, 0, 81, 100
2, 87074, Note_on_c, 0, 81, 0
2, 87075, Note_on_c, 0, 79, 100
2, 87089, Note_on_c, 0, 79, 0
2, 87090, Note_on_c, 0, 78, 100
2, 87104, Note_on_c, 0, 78, 0
2, 87105, Note_on_c, 0, 81, 100
2, 87119, Note_on_c, 0, 81, 0
2, 87120, Note_on_c, 0, 79, 100
2, 87134, Note_on_c, 0, 79, 0
2, 87135, Note_on_c, 0, 76, 100
2, 87149, Note_on_c, 0, 76, 0
2, 87150, Note_on_c, 0, 75, 100
2, 87164, Note_on_c, 0, 75, 0
2, 87165, Note_on_c, 0, 76, 100
2, 87179, Note_on_c, 0, 76, 0
2, 87180, Note_on_c, 0, 78, 100
2, 87194, Note_on_c, 0, 78, 0
2, 87195, Note_on_c, 0, 79, 100
2, 87209, Note_on_c, 0, 79, 0
2, 87210, Note_on_c, 0, 81, 100
2, 87224, Note_on_c, 0, 81, 0
2, 87225, Note_on_c, 0, 83, 100
2, 87239, Note_on_c, 0, 83, 0
2, 87240, Note_on_c, 0, 81, 100
2, 87254, Note_on_c, 0, 81, 0
2, 87255, Note_on_c, 0, 79, 100
2, 87269, Note_on_c, 0, 79, 0
2, 87270, Note_on_c, 0, 78, 100
2, 87284, Note_on_c, 0, 78, 0
2, 87285, Note_on_c, 0, 81, 100
2, 87299, Note_on_c, 0, 81, 0
2, 87300, Note_on_c, 0, 79, 100
2, 87314, Note_on_c, 0, 79, 0
2, 87315, Note_on_c, 0, 76, 100
2, 87329, Note_on_c, 0, 76, 0
2, 87330, Note_on_c, 0, 75, 100
2, 87344, Note_on_c, 0, 75, 0
2, 87345, Note_on_c, 0, 76, 100
2, 87359, Note_on_c, 0, 76, 0
2, 87360, Note_on_c, 0, 78, 100
2, 87374, Note_on_c, 0, 78, 0
2, 87375, Note_on_c, 0, 79, 100
2, 87389, Note_on_c, 0, 79, 0
2, 87390, Note_on_c, 0, 81, 100
2, 87404, Note_on_c, 0, 81, 0
2, 87405, Note_on_c, 0, 83, 100
2, 87419, Note_on_c, 0, 83, 0
2, 87420, Note_on_c, 0, 84, 100
2, 87434, Note_on_c, 0, 84, 0
2, 87435, Note_on_c, 0, 83, 100
2, 87449, Note_on_c, 0, 83, 0
2, 87450, Note_on_c, 0, 81, 100
2, 87464, Note_on_c, 0, 81, 0
2, 87465, Note_on_c, 0, 84, 100
2, 87479, Note_on_c, 0, 84, 0
2, 87480, Note_on_c, 0, 83, 100
2, 87494, Note_on_c, 0, 83, 0
2, 87495, Note_on_c, 0, 79, 100
2, 87509, Note_on_c, 0, 79, 0
2, 87510, Note_on_c, 0, 78, 100
2, 87524, Note_on_c, 0, 78, 0
2, 87525, Note_on_c, 0, 79, 100
2, 87539, Note_on_c, 0, 79, 0
2, 87540, Note_on_c, 0, 81, 100
2, 87554, Note_on_c, 0, 81, 0
2, 87555, Note_on_c, 0, 83, 100
2, 87569, Note_on_c, 0, 83, 0
2, 87570, Note_on_c, 0, 84, 100
2, 87584, Note_on_c, 0, 84, 0
2, 87585, Note_on_c, 0, 83, 100
2, 87599, Note_on_c, 0, 83, 0
2, 87600, Note_on_c, 0, 81, 100
2, 87614, Note_on_c, 0, 81, 0
2, 87615, Note_on_c, 0, 79, 100
2, 87629, Note_on_c, 0, 79, 0
2, 87630, Note_on_c, 0, 78, 100
2, 87644, Note_on_c, 0, 78, 0
2, 87645, Note_on_c, 0, 76, 100
2, 87659, Note_on_c, 0, 76, 0
2, 87660, Note_on_c, 0, 75, 100
2, 87674, Note_on_c, 0, 75, 0
2, 87675, Note_on_c, 0, 73, 100
2, 87689, Note_on_c, 0, 73, 0
2, 87690, Note_on_c, 0, 71, 100
2, 87704, Note_on_c, 0, 71, 0
2, 87705, Note_on_c, 0, 73, 100
2, 87719, Note_on_c, 0, 73, 0
2, 87720, Note_on_c, 0, 75, 100
2, 87734, Note_on_c, 0, 75, 0
2, 87735, Note_on_c, 0, 76, 100
2, 87749, Note_on_c, 0, 76, 0
2, 87750, Note_on_c, 0, 78, 100
2, 87764, Note_on_c, 0, 78, 0
2, 87765, Note_on_c, 0, 79, 100
2, 87779, Note_on_c, 0, 79, 0
2, 87780, Note_on_c, 0, 81, 100
2, 87794, Note_on_c, 0, 81, 0
2, 87795, Note_on_c, 0, 79, 100
2, 87809, Note_on_c, 0, 79, 0
2, 87810, Note_on_c, 0, 78, 100
2, 87824, Note_on_c, 0, 78, 0
2, 87825, Note_on_c, 0, 81, 100
2, 87839, Note_on_c, 0, 81, 0
2, 87840, Note_on_c, 0, 79, 100
2, 87854, Note_on_c, 0, 79, 0
2, 87855, Note_on_c, 0, 78, 100
2, 87869, Note_on_c, 0, 78, 0
2, 87870, Note_on_c, 0, 79, 100
2, 87884, Note_on_c, 0, 79, 0
2, 87885, Note_on_c, 0, 76, 100
2, 87899, Note_on_c, 0, 76, 0
2, 87900, Note_on_c, 0, 75, 100
2, 87989, Note_on_c, 0, 75, 0
2, 87990, Note_on_c, 0, 76, 100
2, 88019, Note_on_c, 0, 76, 0
2, 88020, Note_on_c, 0, 76, 100
2, 88500, Note_on_c, 0, 76, 0
2, 89100, Note_on_c, 0, 71, 100
2, 89159, Note_on_c, 0, 71, 0
2, 89160, Note_on_c, 0, 79, 100
2, 89189, Note_on_c, 0, 79, 0
2, 89190, Note_on_c, 0, 78, 100
2, 89219, Note_on_c, 0, 78, 0
2, 89220, Note_on_c, 0, 76, 100
2, 89249, Note_on_c, 0, 76, 0
2, 89250, Note_on_c, 0, 75, 100
2, 89279, Note_on_c, 0, 75, 0
2, 89280, Note_on_c, 0, 76, 100
2, 89309, Note_on_c, 0, 76, 0
2, 89310, Note_on_c, 0, 71, 100
2, 89339, Note_on_c, 0, 71, 0
2, 89340, Note_on_c, 0, 72, 100
2, 89354, Note_on_c, 0, 72, 0
2, 89355, Note_on_c, 0, 71, 100
2, 89369, Note_on_c, 0, 71, 0
2, 89370, Note_on_c, 0, 69, 100
2, 89399, Note_on_c, 0, 69, 0
2, 89400, Note_on_c, 0, 69, 100
2, 89429, Note_on_c, 0, 69, 0
2, 89430, Note_on_c, 0, 71, 100
2, 89519, Note_on_c, 0, 71, 0
2, 89520, Note_on_c, 0, 83, 100
2, 89549, Note_on_c, 0, 83, 0
2, 89550, Note_on_c, 0, 81, 100
2, 89579, Note_on_c, 0, 81, 0
2, 89580, Note_on_c, 0, 79, 100
2, 89609, Note_on_c, 0, 79, 0
2, 89610, Note_on_c, 0, 78, 100
2, 89639, Note_on_c, 0, 78, 0
2, 89640, Note_on_c, 0, 79, 100
2, 89654, Note_on_c, 0, 79, 0
2, 89655, Note_on_c, 0, 78, 100
2, 89669, Note_on_c, 0, 78, 0
2, 89670, Note_on_c, 0, 76, 100
2, 89699, Note_on_c, 0, 76, 0
2, 89700, Note_on_c, 0, 78, 100
2, 89714, Note_on_c, 0, 78, 0
2, 89715, Note_on_c, 0, 76, 100
2, 89729, Note_on_c, 0, 76, 0
2, 89730, Note_on_c, 0, 75, 100
2, 89759, Note_on_c, 0, 75, 0
2, 89760, Note_on_c, 0, 75, 100
2, 89789, Note_on_c, 0, 75, 0
2, 89790, Note_on_c, 0, 79, 100
2, 89819, Note_on_c, 0, 79, 0
2, 89820, Note_on_c, 0, 78, 100
2, 89849, Note_on_c, 0, 78, 0
2, 89850, Note_on_c, 0, 79, 100
2, 89879, Note_on_c, 0, 79, 0
2, 89880, Note_on_c, 0, 81, 100
2, 89909, Note_on_c, 0, 81, 0
2, 89910, Note_on_c, 0, 84, 100
2, 89939, Note_on_c, 0, 84, 0
2, 89940, Note_on_c, 0, 83, 100
2, 89969, Note_on_c, 0, 83, 0
2, 89970, Note_on_c, 0, 76, 100
2, 89999, Note_on_c, 0, 76, 0
2, 90000, Note_on_c, 0, 75, 100
2, 90029, Note_on_c, 0, 75, 0
2, 90030, Note_on_c, 0, 76, 100
2, 90059, Note_on_c, 0, 76, 0
2, 90060, Note_on_c, 0, 78, 100
2, 90089, Note_on_c, 0, 78, 0
2, 90090, Note_on_c, 0, 81, 100
2, 90119, Note_on_c, 0, 81, 0
2, 90120, Note_on_c, 0, 72, 100
2, 90149, Note_on_c, 0, 72, 0
2, 90150, Note_on_c, 0, 71, 100
2, 90209, Note_on_c, 0, 71, 0
2, 90210, Note_on_c, 0, 70, 100
2, 90239, Note_on_c, 0, 70, 0
2, 90240, Note_on_c, 0, 71, 100
2, 90269, Note_on_c, 0, 71, 0
2, 90270, Note_on_c, 0, 79, 100
2, 90299, Note_on_c, 0, 79, 0
2, 90300, Note_on_c, 0, 78, 100
2, 90329, Note_on_c, 0, 78, 0
2, 90330, Note_on_c, 0, 75, 100
2, 90359, Note_on_c, 0, 75, 0
2, 90360, Note_on_c, 0, 76, 100
2, 90539, Note_on_c, 0, 76, 0
2, 93000, Note_on_c, 0, 84, 100
2, 93119, Note_on_c, 0, 84, 0
2, 93120, Note_on_c, 0, 83, 100
2, 93239, Note_on_c, 0, 83, 0
2, 93240, Note_on_c, 0, 81, 100
2, 93359, Note_on_c, 0, 81, 0
2, 93360, Note_on_c, 0, 83, 100
2, 93419, Note_on_c, 0, 83, 0
2, 93420, Note_on_c, 0, 81, 100
2, 93479, Note_on_c, 0, 81, 0
2, 93480, Note_on_c, 0, 79, 100
2, 93599, Note_on_c, 0, 79, 0
2, 93600, Note_on_c, 0, 81, 100
2, 93719, Note_on_c, 0, 81, 0
2, 93720, Note_on_c, 0, 83, 100
2, 93839, Note_on_c, 0, 83, 0
2, 93840, Note_on_c, 0, 84, 100
2, 93929, Note_on_c, 0, 84, 0
2, 93960, Note_on_c, 0, 84, 100
2, 94079, Note_on_c, 0, 84, 0
2, 94080, Note_on_c, 0, 84, 100
2, 94199, Note_on_c, 0, 84, 0
2, 94200, Note_on_c, 0, 79, 100
2, 94319, Note_on_c, 0, 79, 0
2, 94320, Note_on_c, 0, 79, 100
2, 94379, Note_on_c, 0, 79, 0
2, 94380, Note_on_c, 0, 77, 100
2, 94439, Note_on_c, 0, 77, 0
2, 94440, Note_on_c, 0, 76, 100
2, 94499, Note_on_c, 0, 76, 0
2, 94500, Note_on_c, 0, 77, 100
2, 94559, Note_on_c, 0, 77, 0
2, 94560, Note_on_c, 0, 79, 100
2, 94679, Note_on_c, 0, 79, 0
2, 94680, Note_on_c, 0, 77, 100
2, 94799, Note_on_c, 0, 77, 0
2, 94800, Note_on_c, 0, 76, 100
2, 94889, Note_on_c, 0, 76, 0
2, 94920, Note_on_c, 0, 76, 100
2, 95039, Note_on_c, 0, 76, 0
2, 95040, Note_on_c, 0, 81, 100
2, 95159, Note_on_c, 0, 81, 0
2, 95160, Note_on_c, 0, 81, 100
2, 95279, Note_on_c, 0, 81, 0
2, 95280, Note_on_c, 0, 79, 100
2, 95339, Note_on_c, 0, 79, 0
2, 95340, Note_on_c, 0, 81, 100
2, 95399, Note_on_c, 0, 81, 0
2, 95400, Note_on_c, 0, 83, 100
2, 95519, Note_on_c, 0, 83, 0
2, 95520, Note_on_c, 0, 84, 100
2, 95579, Note_on_c, 0, 84, 0
2, 95580, Note_on_c, 0, 83, 100
2, 95639, Note_on_c, 0, 83, 0
2, 95640, Note_on_c, 0, 81, 100
2, 95759, Note_on_c, 0, 81, 0
2, 95760, Note_on_c, 0, 79, 100
2, 95849, Note_on_c, 0, 79, 0
2, 95880, Note_on_c, 0, 84, 100
2, 95999, Note_on_c, 0, 84, 0
2, 96000, Note_on_c, 0, 83, 100
2, 96119, Note_on_c, 0, 83, 0
2, 96120, Note_on_c, 0, 81, 100
2, 96239, Note_on_c, 0, 81, 0
2, 96240, Note_on_c, 0, 79, 100
2, 96359, Note_on_c, 0, 79, 0
2, 96360, Note_on_c, 0, 81, 100
2, 96419, Note_on_c, 0, 81, 0
2, 96420, Note_on_c, 0, 79, 100
2, 96479, Note_on_c, 0, 79, 0
2, 96480, Note_on_c, 0, 77, 100
2, 96539, Note_on_c, 0, 77, 0
2, 96540, Note_on_c, 0, 76, 100
2, 96599, Note_on_c, 0, 76, 0
2, 96600, Note_on_c, 0, 74, 100
2, 96719, Note_on_c, 0, 74, 0
2, 96720, Note_on_c, 0, 72, 100
2, 96839, Note_on_c, 0, 72, 0
2, 108120, Note_on_c, 0, 79, 110
2, 109020, Note_on_c, 0, 79, 0
2, 109020, Note_on_c, 0, 77, 110
2, 109080, Note_on_c, 0, 77, 0
2, 109080, Note_on_c, 0, 77, 110
2, 109140, Note_on_c, 0, 77, 0
2, 109140, Note_on_c, 0, 76, 110
2, 109200, Note_on_c, 0, 76, 0
2, 109200, Note_on_c, 0, 76, 110
2, 109980, Note_on_c, 0, 76, 0
2, 109980, Note_on_c, 0, 74, 110
2, 110040, Note_on_c, 0, 74, 0
2, 110040, Note_on_c, 0, 74, 110
2, 110100, Note_on_c, 0, 74, 0
2, 110100, Note_on_c, 0, 72, 110
2, 110160, Note_on_c, 0, 72, 0
2, 110160, Note_on_c, 0, 72, 110
2, 110700, Note_on_c, 0, 72, 0
2, 110700, Note_on_c, 0, 71, 110
2, 110760, Note_on_c, 0, 71, 0
2, 110760, Note_on_c, 0, 71, 110
2, 110820, Note_on_c, 0, 71, 0
2, 110820, Note_on_c, 0, 72, 110
2, 110880, Note_on_c, 0, 72, 0
2, 110880, Note_on_c, 0, 72, 110
2, 111000, Note_on_c, 0, 72, 0
2, 111000, Note_on_c, 0, 71, 110
2, 111120, Note_on_c, 0, 71, 0
2, 111120, Note_on_c, 0, 74, 100
2, 111179, Note_on_c, 0, 74, 0
2, 111180, Note_on_c, 0, 76, 100
2, 111239, Note_on_c, 0, 76, 0
2, 111240, Note_on_c, 0, 76, 100
2, 111299, Note_on_c, 0, 76, 0
2, 111300, Note_on_c, 0, 78, 100
2, 111359, Note_on_c, 0, 78, 0
2, 111360, Note_on_c, 0, 78, 100
2, 111419, Note_on_c, 0, 78, 0
2, 111420, Note_on_c, 0, 79, 100
2, 111479, Note_on_c, 0, 79, 0
2, 111480, Note_on_c, 0, 79, 100
2, 111539, Note_on_c, 0, 79, 0
2, 111540, Note_on_c, 0, 74, 100
2, 111599, Note_on_c, 0, 74, 0
2, 111600, Note_on_c, 0, 74, 100
2, 111659, Note_on_c, 0, 74, 0
2, 111660, Note_on_c, 0, 76, 100
2, 111719, Note_on_c, 0, 76, 0
2, 111720, Note_on_c, 0, 76, 100
2, 111779, Note_on_c, 0, 76, 0
2, 111780, Note_on_c, 0, 77, 100
2, 111839, Note_on_c, 0, 77, 0
2, 111840, Note_on_c, 0, 77, 100
2, 112079, Note_on_c, 0, 77, 0
2, 112080, Note_on_c, 0, 83, 100
2, 112169, Note_on_c, 0, 83, 0
2, 112170, Note_on_c, 0, 84, 100
2, 112184, Note_on_c, 0, 84, 0
2, 112185, Note_on_c, 0, 86, 100
2, 112199, Note_on_c, 0, 86, 0
2, 112200, Note_on_c, 0, 84, 100
2, 112229, Note_on_c, 0, 84, 0
2, 112230, Note_on_c, 0, 83, 100
2, 112259, Note_on_c, 0, 83, 0
2, 112260, Note_on_c, 0, 81, 100
2, 112289, Note_on_c, 0, 81, 0
2, 112290, Note_on_c, 0, 79, 100
2, 112319, Note_on_c, 0, 79, 0
2, 112320, Note_on_c, 0, 84, 100
2, 112379, Note_on_c, 0, 84, 0
2, 112380, Note_on_c, 0, 79, 100
2, 112439, Note_on_c, 0, 79, 0
2, 112440, Note_on_c, 0, 76, 100
2, 112499, Note_on_c, 0, 76, 0
2, 112500, Note_on_c, 0, 79, 100
2, 112559, Note_on_c, 0, 79, 0
2, 112560, Note_on_c, 0, 84, 100
2, 112649, Note_on_c, 0, 84, 0
2, 112650, Note_on_c, 0, 86, 100
2, 112664, Note_on_c, 0, 86, 0
2, 112665, Note_on_c, 0, 88, 100
2, 112679, Note_on_c, 0, 88, 0
2, 112680, Note_on_c, 0, 86, 100
2, 112709, Note_on_c, 0, 86, 0
2, 112710, Note_on_c, 0, 84, 100
2, 112739, Note_on_c, 0, 84, 0
2, 112740, Note_on_c, 0, 83, 100
2, 112769, Note_on_c, 0, 83, 0
2, 112770, Note_on_c, 0, 81, 100
2, 112799, Note_on_c, 0, 81, 0
2, 112800, Note_on_c, 0, 79, 100
2, 112859, Note_on_c, 0, 79, 0
2, 112860, Note_on_c, 0, 78, 100
2, 112919, Note_on_c, 0, 78, 0
2, 112920, Note_on_c, 0, 84, 100
2, 113039, Note_on_c, 0, 84, 0
2, 113040, Note_on_c, 0, 83, 100
2, 113129, Note_on_c, 0, 83, 0
2, 113130, Note_on_c, 0, 84, 100
2, 113144, Note_on_c, 0, 84, 0
2, 113145, Note_on_c, 0, 86, 100
2, 113159, Note_on_c, 0, 86, 0
2, 113160, Note_on_c, 0, 84, 100
2, 113189, Note_on_c, 0, 84, 0
2, 113190, Note_on_c, 0, 83, 100
2, 113219, Note_on_c, 0, 83, 0
2, 113220, Note_on_c, 0, 81, 100
2, 113249, Note_on_c, 0, 81, 0
2, 113250, Note_on_c, 0, 79, 100
2, 113279, Note_on_c, 0, 79, 0
2, 113280, Note_on_c, 0, 81, 100
2, 113339, Note_on_c, 0, 81, 0
2, 113340, Note_on_c, 0, 78, 100
2, 113399, Note_on_c, 0, 78, 0
2, 113400, Note_on_c, 0, 79, 100
2, 113459, Note_on_c, 0, 79, 0
2, 113460, Note_on_c, 0, 74, 100
2, 113519, Note_on_c, 0, 74, 0
2, 113520, Note_on_c, 0, 79, 100
2, 113609, Note_on_c, 0, 79, 0
2, 113610, Note_on_c, 0, 81, 100
2, 113624, Note_on_c, 0, 81, 0
2, 113625, Note_on_c, 0, 83, 100
2, 113639, Note_on_c, 0, 83, 0
2, 113640, Note_on_c, 0, 81, 100
2, 113669, Note_on_c, 0, 81, 0
2, 113670, Note_on_c, 0, 79, 100
2, 113699, Note_on_c, 0, 79, 0
2, 113700, Note_on_c, 0, 78, 100
2, 113729, Note_on_c, 0, 78, 0
2, 113730, Note_on_c, 0, 76, 100
2, 113759, Note_on_c, 0, 76, 0
2, 113760, Note_on_c, 0, 74, 100
2, 113819, Note_on_c, 0, 74, 0
2, 113820, Note_on_c, 0, 73, 100
2, 113999, Note_on_c, 0, 73, 0
2, 114000, Note_on_c, 0, 86, 100
2, 114059, Note_on_c, 0, 86, 0
2, 114060, Note_on_c, 0, 85, 100
2, 114089, Note_on_c, 0, 85, 0
2, 114090, Note_on_c, 0, 83, 100
2, 114119, Note_on_c, 0, 83, 0
2, 114120, Note_on_c, 0, 81, 100
2, 114179, Note_on_c, 0, 81, 0
2, 114180, Note_on_c, 0, 79, 100
2, 114239, Note_on_c, 0, 79, 0
2, 114240, Note_on_c, 0, 78, 100
2, 114299, Note_on_c, 0, 78, 0
2, 114300, Note_on_c, 0, 83, 100
2, 114359, Note_on_c, 0, 83, 0
2, 114360, Note_on_c, 0, 81, 100
2, 114419, Note_on_c, 0, 81, 0
2, 114420, Note_on_c, 0, 79, 100
2, 114479, Note_on_c, 0, 79, 0
2, 114480, Note_on_c, 0, 78, 100
2, 114539, Note_on_c, 0, 78, 0
2, 114540, Note_on_c, 0, 76, 100
2, 114569, Note_on_c, 0, 76, 0
2, 114570, Note_on_c, 0, 74, 100
2, 114599, Note_on_c, 0, 74, 0
2, 114600, Note_on_c, 0, 76, 100
2, 114615, Note_on_c, 0, 76, 0
2, 114615, Note_on_c, 0, 78, 100
2, 114630, Note_on_c, 0, 78, 0
2, 114630, Note_on_c, 0, 76, 100
2, 114640, Note_on_c, 0, 76, 0
2, 114640, Note_on_c, 0, 78, 100
2, 114650, Note_on_c, 0, 78, 0
2, 114650, Note_on_c, 0, 76, 100
2, 114660, Note_on_c, 0, 76, 0
2, 114660, Note_on_c, 0, 78, 100
2, 114670, Note_on_c, 0, 78, 0
2, 114670, Note_on_c, 0, 76, 100
2, 114680, Note_on_c, 0, 76, 0
2, 114680, Note_on_c, 0, 78, 100
2, 114690, Note_on_c, 0, 78, 0
2, 114690, Note_on_c, 0, 76, 100
2, 114700, Note_on_c, 0, 76, 0
2, 114700, Note_on_c, 0, 74, 100
2, 114710, Note_on_c, 0, 74, 0
2, 114710, Note_on_c, 0, 76, 100
2, 114720, Note_on_c, 0, 76, 0
2, 114720, Note_on_c, 0, 74, 100
2, 114839, Note_on_c, 0, 74, 0
2, 117840, Note_on_c, 0, 78, 100
2, 117929, Note_on_c, 0, 78, 0
2, 117930, Note_on_c, 0, 79, 100
2, 117944, Note_on_c, 0, 79, 0
2, 117945, Note_on_c, 0, 81, 100
2, 117959, Note_on_c, 0, 81, 0
2, 117960, Note_on_c, 0, 79, 100
2, 117989, Note_on_c, 0, 79, 0
2, 117990, Note_on_c, 0, 78, 100
2, 118019, Note_on_c, 0, 78, 0
2, 118020, Note_on_c, 0, 76, 100
2, 118049, Note_on_c, 0, 76, 0
2, 118050, Note_on_c, 0, 74, 100
2, 118079, Note_on_c, 0, 74, 0
2, 118080, Note_on_c, 0, 76, 100
2, 118139, Note_on_c, 0, 76, 0
2, 118140, Note_on_c, 0, 73, 100
2, 118199, Note_on_c, 0, 73, 0
2, 118200, Note_on_c, 0, 74, 100
2, 118259, Note_on_c, 0, 74, 0
2, 118260, Note_on_c, 0, 69, 100
2, 118319, Note_on_c, 0, 69, 0
2, 118320, Note_on_c, 0, 78, 100
2, 118409, Note_on_c, 0, 78, 0
2, 118410, Note_on_c, 0, 79, 100
2, 118424, Note_on_c, 0, 79, 0
2, 118425, Note_on_c, 0, 81, 100
2, 118439, Note_on_c, 0, 81, 0
2, 118440, Note_on_c, 0, 79, 100
2, 118469, Note_on_c, 0, 79, 0
2, 118470, Note_on_c, 0, 78, 100
2, 118499, Note_on_c, 0, 78, 0
2, 118500, Note_on_c, 0, 76, 100
2, 118529, Note_on_c, 0, 76, 0
2, 118530, Note_on_c, 0, 74, 100
2, 118559, Note_on_c, 0, 74, 0
2, 118560, Note_on_c, 0, 72, 100
2, 118799, Note_on_c, 0, 72, 0
2, 118800, Note_on_c, 0, 83, 100
2, 118889, Note_on_c, 0, 83, 0
2, 118890, Note_on_c, 0, 84, 100
2, 118904, Note_on_c, 0, 84, 0
2, 118905, Note_on_c, 0, 86, 100
2, 118919, Note_on_c, 0, 86, 0
2, 118920, Note_on_c, 0, 84, 100
2, 118949, Note_on_c, 0, 84, 0
2, 118950, Note_on_c, 0, 83, 100
2, 118979, Note_on_c, 0, 83, 0
2, 118980, Note_on_c, 0, 81, 100
2, 119009, Note_on_c, 0, 81, 0
2, 119010, Note_on_c, 0, 79, 100
2, 119039, Note_on_c, 0, 79, 0
2, 119040, Note_on_c, 0, 81, 100
2, 119099, Note_on_c, 0, 81, 0
2, 119100, Note_on_c, 0, 78, 100
2, 119159, Note_on_c, 0, 78, 0
2, 119160, Note_on_c, 0, 79, 100
2, 119219, Note_on_c, 0, 79, 0
2, 119220, Note_on_c, 0, 74, 100
2, 119279, Note_on_c, 0, 74, 0
2, 119280, Note_on_c, 0, 83, 100
2, 119369, Note_on_c, 0, 83, 0
2, 119370, Note_on_c, 0, 84, 100
2, 119384, Note_on_c, 0, 84, 0
2, 119385, Note_on_c, 0, 86, 100
2, 119399, Note_on_c, 0, 86, 0
2, 119400, Note_on_c, 0, 84, 100
2, 119429, Note_on_c, 0, 84, 0
2, 119430, Note_on_c, 0, 83, 100
2, 119459, Note_on_c, 0, 83, 0
2, 119460, Note_on_c, 0, 81, 100
2, 119489, Note_on_c, 0, 81, 0
2, 119490, Note_on_c, 0, 79, 100
2, 119519, Note_on_c, 0, 79, 0
2, 119520, Note_on_c, 0, 77, 100
2, 119759, Note_on_c, 0, 77, 0
2, 119760, Note_on_c, 0, 76, 100
2, 119820, Note_on_c, 0, 76, 0
2, 119820, Note_on_c, 0, 88, 100
2, 119909, Note_on_c, 0, 88, 0
2, 119910, Note_on_c, 0, 86, 100
2, 119939, Note_on_c, 0, 86, 0
2, 119940, Note_on_c, 0, 84, 100
2, 119969, Note_on_c, 0, 84, 0
2, 119970, Note_on_c, 0, 83, 100
2, 119999, Note_on_c, 0, 83, 0
2, 120000, Note_on_c, 0, 84, 100
2, 120059, Note_on_c, 0, 84, 0
2, 120060, Note_on_c, 0, 83, 100
2, 120119, Note_on_c, 0, 83, 0
2, 120120, Note_on_c, 0, 81, 100
2, 120179, Note_on_c, 0, 81, 0
2, 120180, Note_on_c, 0, 79, 100
2, 120239, Note_on_c, 0, 79, 0
2, 120240, Note_on_c, 0, 78, 100
2, 120299, Note_on_c, 0, 78, 0
2, 120300, Note_on_c, 0, 86, 100
2, 120389, Note_on_c, 0, 86, 0
2, 120390, Note_on_c, 0, 84, 100
2, 120419, Note_on_c, 0, 84, 0
2, 120420, Note_on_c, 0, 83, 100
2, 120449, Note_on_c, 0, 83, 0
2, 120450, Note_on_c, 0, 81, 100
2, 120479, Note_on_c, 0, 81, 0
2, 120480, Note_on_c, 0, 83, 100
2, 120539, Note_on_c, 0, 83, 0
2, 120540, Note_on_c, 0, 81, 100
2, 120599, Note_on_c, 0, 81, 0
2, 120600, Note_on_c, 0, 79, 100
2, 120659, Note_on_c, 0, 79, 0
2, 120660, Note_on_c, 0, 77, 100
2, 120719, Note_on_c, 0, 77, 0
2, 120720, Note_on_c, 0, 76, 100
2, 120779, Note_on_c, 0, 76, 0
2, 120780, Note_on_c, 0, 81, 100
2, 120839, Note_on_c, 0, 81, 0
2, 120840, Note_on_c, 0, 81, 100
2, 120899, Note_on_c, 0, 81, 0
2, 120900, Note_on_c, 0, 84, 100
2, 120959, Note_on_c, 0, 84, 0
2, 120960, Note_on_c, 0, 84, 100
2, 121049, Note_on_c, 0, 84, 0
2, 121050, Note_on_c, 0, 86, 100
2, 121064, Note_on_c, 0, 86, 0
2, 121065, Note_on_c, 0, 88, 100
2, 121079, Note_on_c, 0, 88, 0
2, 121080, Note_on_c, 0, 86, 100
2, 121109, Note_on_c, 0, 86, 0
2, 121110, Note_on_c, 0, 84, 100
2, 121139, Note_on_c, 0, 84, 0
2, 121140, Note_on_c, 0, 83, 100
2, 121169, Note_on_c, 0, 83, 0
2, 121170, Note_on_c, 0, 81, 100
2, 121199, Note_on_c, 0, 81, 0
2, 121200, Note_on_c, 0, 79, 100
2, 121230, Note_on_c, 0, 79, 0
2, 121230, Note_on_c, 0, 78, 100
2, 121260, Note_on_c, 0, 78, 0
2, 121260, Note_on_c, 0, 79, 100
2, 121290, Note_on_c, 0, 79, 0
2, 121290, Note_on_c, 0, 84, 100
2, 121320, Note_on_c, 0, 84, 0
2, 121320, Note_on_c, 0, 81, 100
2, 121330, Note_on_c, 0, 81, 0
2, 121330, Note_on_c, 0, 83, 100
2, 121340, Note_on_c, 0, 83, 0
2, 121340, Note_on_c, 0, 81, 100
2, 121350, Note_on_c, 0, 81, 0
2, 121350, Note_on_c, 0, 83, 100
2, 121357, Note_on_c, 0, 81, 100
2, 121358, Note_on_c, 0, 83, 0
2, 121365, Note_on_c, 0, 81, 0
2, 121365, Note_on_c, 0, 83, 100
2, 121372, Note_on_c, 0, 81, 100
2, 121373, Note_on_c, 0, 83, 0
2, 121380, Note_on_c, 0, 81, 0
2, 121380, Note_on_c, 0, 83, 100
2, 121387, Note_on_c, 0, 81, 100
2, 121388, Note_on_c, 0, 83, 0
2, 121395, Note_on_c, 0, 81, 0
2, 121395, Note_on_c, 0, 83, 100
2, 121402, Note_on_c, 0, 81, 100
2, 121403, Note_on_c, 0, 83, 0
2, 121410, Note_on_c, 0, 81, 0
2, 121410, Note_on_c, 0, 83, 100
2, 121417, Note_on_c, 0, 81, 100
2, 121418, Note_on_c, 0, 83, 0
2, 121425, Note_on_c, 0, 81, 0
2, 121425, Note_on_c, 0, 79, 100
2, 121432, Note_on_c, 0, 81, 100
2, 121433, Note_on_c, 0, 79, 0
2, 121440, Note_on_c, 0, 81, 0
2, 121440, Note_on_c, 0, 79, 100
2, 121559, Note_on_c, 0, 79, 0
2, 121620, Note_on_c, 0, 79, 100
2, 121739, Note_on_c, 0, 79, 0
2, 121740, Note_on_c, 0, 76, 100
2, 121799, Note_on_c, 0, 76, 0
2, 121800, Note_on_c, 0, 76, 100
2, 121859, Note_on_c, 0, 76, 0
2, 121860, Note_on_c, 0, 78, 100
2, 121919, Note_on_c, 0, 78, 0
2, 122100, Note_on_c, 0, 84, 100
2, 122219, Note_on_c, 0, 84, 0
2, 122220, Note_on_c, 0, 81, 100
2, 122279, Note_on_c, 0, 81, 0
2, 122280, Note_on_c, 0, 81, 100
2, 122339, Note_on_c, 0, 81, 0
2, 122340, Note_on_c, 0, 83, 100
2, 122399, Note_on_c, 0, 83, 0
2, 122460, Note_on_c, 0, 76, 100
2, 122489, Note_on_c, 0, 76, 0
2, 122490, Note_on_c, 0, 78, 100
2, 122519, Note_on_c, 0, 78, 0
2, 122520, Note_on_c, 0, 80, 100
2, 122549, Note_on_c, 0, 80, 0
2, 122550, Note_on_c, 0, 81, 100
2, 122579, Note_on_c, 0, 81, 0
2, 122580, Note_on_c, 0, 83, 100
2, 122609, Note_on_c, 0, 83, 0
2, 122610, Note_on_c, 0, 84, 100
2, 122639, Note_on_c, 0, 84, 0
2, 122640, Note_on_c, 0, 86, 100
2, 122699, Note_on_c, 0, 86, 0
2, 122700, Note_on_c, 0, 84, 100
2, 122759, Note_on_c, 0, 84, 0
2, 122760, Note_on_c, 0, 84, 100
2, 122819, Note_on_c, 0, 84, 0
2, 122940, Note_on_c, 0, 76, 100
2, 122999, Note_on_c, 0, 76, 0
2, 123000, Note_on_c, 0, 85, 100
2, 123179, Note_on_c, 0, 85, 0
2, 123180, Note_on_c, 0, 86, 100
2, 123299, Note_on_c, 0, 86, 0
2, 123300, Note_on_c, 0, 84, 100
2, 123419, Note_on_c, 0, 84, 0
2, 123420, Note_on_c, 0, 82, 100
2, 123539, Note_on_c, 0, 82, 0
2, 123540, Note_on_c, 0, 81, 100
2, 123599, Note_on_c, 0, 81, 0
2, 123600, Note_on_c, 0, 86, 100
2, 123659, Note_on_c, 0, 86, 0
2, 123660, Note_on_c, 0, 79, 100
2, 123779, Note_on_c, 0, 79, 0
2, 123780, Note_on_c, 0, 78, 100
2, 123809, Note_on_c, 0, 78, 0
2, 123810, Note_on_c, 0, 76, 100
2, 123839, Note_on_c, 0, 76, 0
2, 123840, Note_on_c, 0, 74, 100
2, 123899, Note_on_c, 0, 74, 0
2, 123900, Note_on_c, 0, 76, 100
2, 123929, Note_on_c, 0, 76, 0
2, 123930, Note_on_c, 0, 78, 100
2, 123959, Note_on_c, 0, 78, 0
2, 123960, Note_on_c, 0, 79, 100
2, 123989, Note_on_c, 0, 79, 0
2, 123990, Note_on_c, 0, 81, 100
2, 124019, Note_on_c, 0, 81, 0
2, 124020, Note_on_c, 0, 83, 100
2, 124049, Note_on_c, 0, 83, 0
2, 124050, Note_on_c, 0, 84, 100
2, 124079, Note_on_c, 0, 84, 0
2, 124080, Note_on_c, 0, 84, 100
2, 124109, Note_on_c, 0, 84, 0
2, 124110, Note_on_c, 0, 83, 100
2, 124139, Note_on_c, 0, 83, 0
2, 124140, Note_on_c, 0, 81, 100
2, 124169, Note_on_c, 0, 81, 0
2, 124170, Note_on_c, 0, 79, 100
2, 124199, Note_on_c, 0, 79, 0
2, 124200, Note_on_c, 0, 81, 100
2, 124215, Note_on_c, 0, 81, 0
2, 124215, Note_on_c, 0, 83, 100
2, 124230, Note_on_c, 0, 83, 0
2, 124230, Note_on_c, 0, 81, 100
2, 124240, Note_on_c, 0, 81, 0
2, 124240, Note_on_c, 0, 83, 100
2, 124250, Note_on_c, 0, 83, 0
2, 124250, Note_on_c, 0, 81, 100
2, 124260, Note_on_c, 0, 81, 0
2, 124260, Note_on_c, 0, 83, 100
2, 124270, Note_on_c, 0, 83, 0
2, 124270, Note_on_c, 0, 81, 100
2, 124280, Note_on_c, 0, 81, 0
2, 124280, Note_on_c, 0, 83, 100
2, 124290, Note_on_c, 0, 83, 0
2, 124290, Note_on_c, 0, 81, 100
2, 124300, Note_on_c, 0, 81, 0
2, 124300, Note_on_c, 0, 79, 100
2, 124310, Note_on_c, 0, 79, 0
2, 124310, Note_on_c, 0, 81, 100
2, 124320, Note_on_c, 0, 81, 0
2, 124320, Note_on_c, 0, 79, 100
2, 124439, Note_on_c, 0, 79, 0
2, 128400, Note_on_c, 0, 83, 100
2, 128459, Note_on_c, 0, 83, 0
2, 128460, Note_on_c, 0, 84, 100
2, 128489, Note_on_c, 0, 84, 0
2, 128490, Note_on_c, 0, 83, 100
2, 128519, Note_on_c, 0, 83, 0
2, 128520, Note_on_c, 0, 81, 100
2, 128549, Note_on_c, 0, 81, 0
2, 128550, Note_on_c, 0, 79, 100
2, 128579, Note_on_c, 0, 79, 0
2, 128580, Note_on_c, 0, 78, 100
2, 128609, Note_on_c, 0, 78, 0
2, 128610, Note_on_c, 0, 76, 100
2, 128639, Note_on_c, 0, 76, 0
2, 128640, Note_on_c, 0, 76, 100
2, 128699, Note_on_c, 0, 76, 0
2, 128700, Note_on_c, 0, 75, 100
2, 128759, Note_on_c, 0, 75, 0
2, 128820, Note_on_c, 0, 71, 100
2, 128879, Note_on_c, 0, 71, 0
2, 128880, Note_on_c, 0, 83, 100
2, 128939, Note_on_c, 0, 83, 0
2, 128940, Note_on_c, 0, 84, 100
2, 128969, Note_on_c, 0, 84, 0
2, 128970, Note_on_c, 0, 83, 100
2, 128999, Note_on_c, 0, 83, 0
2, 129000, Note_on_c, 0, 81, 100
2, 129029, Note_on_c, 0, 81, 0
2, 129030, Note_on_c, 0, 79, 100
2, 129059, Note_on_c, 0, 79, 0
2, 129060, Note_on_c, 0, 78, 100
2, 129089, Note_on_c, 0, 78, 0
2, 129090, Note_on_c, 0, 76, 100
2, 129119, Note_on_c, 0, 76, 0
2, 129120, Note_on_c, 0, 76, 100
2, 129179, Note_on_c, 0, 76, 0
2, 129180, Note_on_c, 0, 75, 100
2, 129239, Note_on_c, 0, 75, 0
2, 129240, Note_on_c, 0, 78, 100
2, 129299, Note_on_c, 0, 78, 0
2, 129300, Note_on_c, 0, 79, 100
2, 129359, Note_on_c, 0, 79, 0
2, 129360, Note_on_c, 0, 81, 100
2, 129419, Note_on_c, 0, 81, 0
2, 129420, Note_on_c, 0, 79, 100
2, 129479, Note_on_c, 0, 79, 0
2, 129480, Note_on_c, 0, 78, 100
2, 129539, Note_on_c, 0, 78, 0
2, 129540, Note_on_c, 0, 83, 100
2, 129599, Note_on_c, 0, 83, 0
2, 129600, Note_on_c, 0, 79, 100
2, 129629, Note_on_c, 0, 79, 0
2, 129630, Note_on_c, 0, 78, 100
2, 129659, Note_on_c, 0, 78, 0
2, 129660, Note_on_c, 0, 76, 100
2, 129749, Note_on_c, 0, 76, 0
2, 129750, Note_on_c, 0, 71, 100
2, 129779, Note_on_c, 0, 71, 0
2, 129780, Note_on_c, 0, 76, 100
2, 129809, Note_on_c, 0, 76, 0
2, 129810, Note_on_c, 0, 78, 100
2, 129839, Note_on_c, 0, 78, 0
2, 129840, Note_on_c, 0, 79, 100
2, 129869, Note_on_c, 0, 79, 0
2, 129870, Note_on_c, 0, 78, 100
2, 129899, Note_on_c, 0, 78, 0
2, 129900, Note_on_c, 0, 79, 100
2, 129929, Note_on_c, 0, 79, 0
2, 129930, Note_on_c, 0, 83, 100
2, 129959, Note_on_c, 0, 83, 0
2, 129960, Note_on_c, 0, 81, 100
2, 129989, Note_on_c, 0, 81, 0
2, 129990, Note_on_c, 0, 79, 100
2, 130019, Note_on_c, 0, 79, 0
2, 130020, Note_on_c, 0, 78, 100
2, 130049, Note_on_c, 0, 78, 0
2, 130050, Note_on_c, 0, 76, 100
2, 130079, Note_on_c, 0, 76, 0
2, 130080, Note_on_c, 0, 79, 100
2, 130109, Note_on_c, 0, 79, 0
2, 130110, Note_on_c, 0, 78, 100
2, 130139, Note_on_c, 0, 78, 0
2, 130140, Note_on_c, 0, 76, 100
2, 130169, Note_on_c, 0, 76, 0
2, 130170, Note_on_c, 0, 74, 100
2, 130199, Note_on_c, 0, 74, 0
2, 130200, Note_on_c, 0, 81, 100
2, 130259, Note_on_c, 0, 81, 0
2, 130260, Note_on_c, 0, 83, 100
2, 130270, Note_on_c, 0, 83, 0
2, 130270, Note_on_c, 0, 84, 100
2, 130280, Note_on_c, 0, 84, 0
2, 130280, Note_on_c, 0, 83, 100
2, 130290, Note_on_c, 0, 83, 0
2, 130290, Note_on_c, 0, 84, 100
2, 130297, Note_on_c, 0, 83, 100
2, 130298, Note_on_c, 0, 84, 0
2, 130305, Note_on_c, 0, 83, 0
2, 130305, Note_on_c, 0, 84, 100
2, 130312, Note_on_c, 0, 83, 100
2, 130313, Note_on_c, 0, 84, 0
2, 130320, Note_on_c, 0, 83, 0
2, 130320, Note_on_c, 0, 84, 100
2, 130379, Note_on_c, 0, 84, 0
2, 130380, Note_on_c, 0, 86, 100
2, 130409, Note_on_c, 0, 86, 0
2, 130410, Note_on_c, 0, 84, 100
2, 130439, Note_on_c, 0, 84, 0
2, 130440, Note_on_c, 0, 83, 100
2, 130469, Note_on_c, 0, 83, 0
2, 130470, Note_on_c, 0, 81, 100
2, 130499, Note_on_c, 0, 81, 0
2, 130500, Note_on_c, 0, 80, 100
2, 130529, Note_on_c, 0, 80, 0
2, 130530, Note_on_c, 0, 81, 100
2, 130559, Note_on_c, 0, 81, 0
2, 130560, Note_on_c, 0, 83, 100
2, 130619, Note_on_c, 0, 83, 0
2, 130620, Note_on_c, 0, 84, 100
2, 130649, Note_on_c, 0, 84, 0
2, 130650, Note_on_c, 0, 86, 100
2, 130679, Note_on_c, 0, 86, 0
2, 130680, Note_on_c, 0, 84, 100
2, 130709, Note_on_c, 0, 84, 0
2, 130710, Note_on_c, 0, 83, 100
2, 130739, Note_on_c, 0, 83, 0
2, 130740, Note_on_c, 0, 81, 100
2, 130769, Note_on_c, 0, 81, 0
2, 130770, Note_on_c, 0, 83, 100
2, 130799, Note_on_c, 0, 83, 0
2, 130800, Note_on_c, 0, 84, 100
2, 130829, Note_on_c, 0, 84, 0
2, 130830, Note_on_c, 0, 83, 100
2, 130859, Note_on_c, 0, 83, 0
2, 130860, Note_on_c, 0, 86, 100
2, 130889, Note_on_c, 0, 86, 0
2, 130890, Note_on_c, 0, 84, 100
2, 130919, Note_on_c, 0, 84, 0
2, 130920, Note_on_c, 0, 83, 100
2, 130949, Note_on_c, 0, 83, 0
2, 130950, Note_on_c, 0, 81, 100
2, 130979, Note_on_c, 0, 81, 0
2, 130980, Note_on_c, 0, 80, 100
2, 131009, Note_on_c, 0, 80, 0
2, 131010, Note_on_c, 0, 81, 100
2, 131039, Note_on_c, 0, 81, 0
2, 131040, Note_on_c, 0, 83, 100
2, 131099, Note_on_c, 0, 83, 0
2, 131100, Note_on_c, 0, 76, 100
2, 131159, Note_on_c, 0, 76, 0
2, 131220, Note_on_c, 0, 81, 100
2, 131309, Note_on_c, 0, 81, 0
2, 131310, Note_on_c, 0, 80, 100
2, 131339, Note_on_c, 0, 80, 0
2, 131340, Note_on_c, 0, 81, 100
2, 131369, Note_on_c, 0, 81, 0
2, 131370, Note_on_c, 0, 83, 100
2, 131399, Note_on_c, 0, 83, 0
2, 131400, Note_on_c, 0, 81, 100
2, 131429, Note_on_c, 0, 81, 0
2, 131430, Note_on_c, 0, 80, 100
2, 131459, Note_on_c, 0, 80, 0
2, 131460, Note_on_c, 0, 78, 100
2, 131489, Note_on_c, 0, 78, 0
2, 131490, Note_on_c, 0, 76, 100
2, 131519, Note_on_c, 0, 76, 0
2, 131520, Note_on_c, 0, 81, 100
2, 131639, Note_on_c, 0, 81, 0
2, 131700, Note_on_c, 0, 79, 100
2, 131759, Note_on_c, 0, 79, 0
2, 131760, Note_on_c, 0, 78, 100
2, 131789, Note_on_c, 0, 78, 0
2, 131790, Note_on_c, 0, 79, 100
2, 131819, Note_on_c, 0, 79, 0
2, 131820, Note_on_c, 0, 81, 100
2, 131939, Note_on_c, 0, 81, 0
2, 131940, Note_on_c, 0, 79, 100
2, 131969, Note_on_c, 0, 79, 0
2, 131970, Note_on_c, 0, 78, 100
2, 131999, Note_on_c, 0, 78, 0
2, 132000, Note_on_c, 0, 79, 100
2, 132119, Note_on_c, 0, 79, 0
2, 132180, Note_on_c, 0, 78, 100
2, 132299, Note_on_c, 0, 78, 0
2, 132300, Note_on_c, 0, 76, 100
2, 132329, Note_on_c, 0, 76, 0
2, 132330, Note_on_c, 0, 75, 100
2, 132359, Note_on_c, 0, 75, 0
2, 132360, Note_on_c, 0, 76, 100
2, 132419, Note_on_c, 0, 76, 0
2, 132420, Note_on_c, 0, 81, 100
2, 132509, Note_on_c, 0, 81, 0
2, 132510, Note_on_c, 0, 84, 100
2, 132539, Note_on_c, 0, 84, 0
2, 132540, Note_on_c, 0, 83, 100
2, 132569, Note_on_c, 0, 83, 0
2, 132570, Note_on_c, 0, 81, 100
2, 132599, Note_on_c, 0, 81, 0
2, 132600, Note_on_c, 0, 83, 100
2, 132629, Note_on_c, 0, 83, 0
2, 132630, Note_on_c, 0, 81, 100
2, 132659, Note_on_c, 0, 81, 0
2, 132660, Note_on_c, 0, 79, 100
2, 132689, Note_on_c, 0, 79, 0
2, 132690, Note_on_c, 0, 78, 100
2, 132719, Note_on_c, 0, 78, 0
2, 132720, Note_on_c, 0, 79, 100
2, 132779, Note_on_c, 0, 79, 0
2, 132780, Note_on_c, 0, 76, 100
2, 132839, Note_on_c, 0, 76, 0
2, 132840, Note_on_c, 0, 83, 100
2, 133019, Note_on_c, 0, 83, 0
2, 133020, Note_on_c, 0, 84, 100
2, 133049, Note_on_c, 0, 84, 0
2, 133050, Note_on_c, 0, 83, 100
2, 133079, Note_on_c, 0, 83, 0
2, 133080, Note_on_c, 0, 81, 100
2, 133109, Note_on_c, 0, 81, 0
2, 133110, Note_on_c, 0, 79, 100
2, 133139, Note_on_c, 0, 79, 0
2, 133140, Note_on_c, 0, 78, 100
2, 133169, Note_on_c, 0, 78, 0
2, 133170, Note_on_c, 0, 76, 100
2, 133199, Note_on_c, 0, 76, 0
2, 133200, Note_on_c, 0, 76, 100
2, 133259, Note_on_c, 0, 76, 0
2, 133260, Note_on_c, 0, 75, 100
2, 133319, Note_on_c, 0, 75, 0
2, 133380, Note_on_c, 0, 71, 100
2, 133439, Note_on_c, 0, 71, 0
2, 133440, Note_on_c, 0, 83, 100
2, 133499, Note_on_c, 0, 83, 0
2, 133500, Note_on_c, 0, 84, 100
2, 133529, Note_on_c, 0, 84, 0
2, 133530, Note_on_c, 0, 83, 100
2, 133559, Note_on_c, 0, 83, 0
2, 133560, Note_on_c, 0, 81, 100
2, 133589, Note_on_c, 0, 81, 0
2, 133590, Note_on_c, 0, 79, 100
2, 133619, Note_on_c, 0, 79, 0
2, 133620, Note_on_c, 0, 78, 100
2, 133649, Note_on_c, 0, 78, 0
2, 133650, Note_on_c, 0, 76, 100
2, 133679, Note_on_c, 0, 76, 0
2, 133680, Note_on_c, 0, 75, 100
2, 133799, Note_on_c, 0, 75, 0
2, 133800, Note_on_c, 0, 78, 100
2, 133859, Note_on_c, 0, 78, 0
2, 133860, Note_on_c, 0, 79, 100
2, 133870, Note_on_c, 0, 79, 0
2, 133870, Note_on_c, 0, 81, 100
2, 133880, Note_on_c, 0, 81, 0
2, 133880, Note_on_c, 0, 79, 100
2, 133890, Note_on_c, 0, 79, 0
2, 133890, Note_on_c, 0, 81, 100
2, 133897, Note_on_c, 0, 79, 100
2, 133898, Note_on_c, 0, 81, 0
2, 133905, Note_on_c, 0, 79, 0
2, 133905, Note_on_c, 0, 81, 100
2, 133912, Note_on_c, 0, 79, 100
2, 133913, Note_on_c, 0, 81, 0
2, 133920, Note_on_c, 0, 79, 0
2, 133920, Note_on_c, 0, 81, 100
2, 133979, Note_on_c, 0, 81, 0
2, 133980, Note_on_c, 0, 79, 100
2, 134039, Note_on_c, 0, 79, 0
2, 134040, Note_on_c, 0, 78, 100
2, 134099, Note_on_c, 0, 78, 0
2, 134100, Note_on_c, 0, 83, 100
2, 134159, Note_on_c, 0, 83, 0
2, 134160, Note_on_c, 0, 79, 100
2, 134174, Note_on_c, 0, 79, 0
2, 134175, Note_on_c, 0, 78, 100
2, 134189, Note_on_c, 0, 78, 0
2, 134190, Note_on_c, 0, 76, 100
2, 134219, Note_on_c, 0, 76, 0
2, 134220, Note_on_c, 0, 84, 100
2, 134234, Note_on_c, 0, 84, 0
2, 134235, Note_on_c, 0, 83, 100
2, 134249, Note_on_c, 0, 83, 0
2, 134250, Note_on_c, 0, 81, 100
2, 134279, Note_on_c, 0, 81, 0
2, 134280, Note_on_c, 0, 83, 100
2, 134309, Note_on_c, 0, 83, 0
2, 134310, Note_on_c, 0, 76, 100
2, 134339, Note_on_c, 0, 76, 0
2, 134340, Note_on_c, 0, 81, 100
2, 134354, Note_on_c, 0, 81, 0
2, 134355, Note_on_c, 0, 79, 100
2, 134369, Note_on_c, 0, 79, 0
2, 134370, Note_on_c, 0, 78, 100
2, 134399, Note_on_c, 0, 78, 0
2, 134400, Note_on_c, 0, 79, 100
2, 134429, Note_on_c, 0, 79, 0
2, 134430, Note_on_c, 0, 83, 100
2, 134444, Note_on_c, 0, 83, 0
2, 134445, Note_on_c, 0, 81, 100
2, 134459, Note_on_c, 0, 81, 0
2, 134460, Note_on_c, 0, 79, 100
2, 134474, Note_on_c, 0, 79, 0
2, 134475, Note_on_c, 0, 78, 100
2, 134489, Note_on_c, 0, 78, 0
2, 134490, Note_on_c, 0, 76, 100
2, 134519, Note_on_c, 0, 76, 0
2, 134520, Note_on_c, 0, 78, 100
2, 134535, Note_on_c, 0, 78, 0
2, 134535, Note_on_c, 0, 79, 100
2, 134550, Note_on_c, 0, 79, 0
2, 134550, Note_on_c, 0, 78, 100
2, 134560, Note_on_c, 0, 78, 0
2, 134560, Note_on_c, 0, 79, 100
2, 134570, Note_on_c, 0, 79, 0
2, 134570, Note_on_c, 0, 78, 100
2, 134580, Note_on_c, 0, 78, 0
2, 134580, Note_on_c, 0, 79, 100
2, 134590, Note_on_c, 0, 79, 0
2, 134590, Note_on_c, 0, 78, 100
2, 134600, Note_on_c, 0, 78, 0
2, 134600, Note_on_c, 0, 79, 100
2, 134610, Note_on_c, 0, 79, 0
2, 134610, Note_on_c, 0, 78, 100
2, 134620, Note_on_c, 0, 78, 0
2, 134620, Note_on_c, 0, 76, 100
2, 134630, Note_on_c, 0, 76, 0
2, 134630, Note_on_c, 0, 78, 100
2, 134640, Note_on_c, 0, 78, 0
2, 134640, Note_on_c, 0, 76, 100
2, 134759, Note_on_c, 0, 76, 0
2, 134820, Note_on_c, 0, 79, 100
2, 134939, Note_on_c, 0, 79, 0
2, 134940, Note_on_c, 0, 81, 100
2, 134969, Note_on_c, 0, 81, 0
2, 134970, Note_on_c, 0, 79, 100
2, 134999, Note_on_c, 0, 79, 0
2, 135000, Note_on_c, 0, 79, 100
2, 135059, Note_on_c, 0, 79, 0
2, 135060, Note_on_c, 0, 78, 100
2, 135119, Note_on_c, 0, 78, 0
2, 135300, Note_on_c, 0, 83, 100
2, 135359, Note_on_c, 0, 83, 0
2, 135360, Note_on_c, 0, 84, 100
2, 135419, Note_on_c, 0, 84, 0
2, 135420, Note_on_c, 0, 86, 100
2, 135449, Note_on_c, 0, 86, 0
2, 135450, Note_on_c, 0, 84, 100
2, 135479, Note_on_c, 0, 84, 0
2, 135480, Note_on_c, 0, 83, 100
2, 135599, Note_on_c, 0, 83, 0
2, 135720, Note_on_c, 0, 88, 100
2, 135779, Note_on_c, 0, 88, 0
2, 135780, Note_on_c, 0, 86, 100
2, 135839, Note_on_c, 0, 86, 0
2, 135840, Note_on_c, 0, 84, 100
2, 135899, Note_on_c, 0, 84, 0
2, 135900, Note_on_c, 0, 86, 100
2, 135929, Note_on_c, 0, 86, 0
2, 135930, Note_on_c, 0, 88, 100
2, 135959, Note_on_c, 0, 88, 0
2, 135960, Note_on_c, 0, 86, 100
2, 135989, Note_on_c, 0, 86, 0
2, 135990, Note_on_c, 0, 84, 100
2, 136019, Note_on_c, 0, 84, 0
2, 136020, Note_on_c, 0, 83, 100
2, 136049, Note_on_c, 0, 83, 0
2, 136050, Note_on_c, 0, 81, 100
2, 136079, Note_on_c, 0, 81, 0
2, 136080, Note_on_c, 0, 83, 100
2, 136139, Note_on_c, 0, 83, 0
2, 136140, Note_on_c, 0, 84, 100
2, 136169, Note_on_c, 0, 84, 0
2, 136170, Note_on_c, 0, 86, 100
2, 136199, Note_on_c, 0, 86, 0
2, 136200, Note_on_c, 0, 84, 100
2, 136229, Note_on_c, 0, 84, 0
2, 136230, Note_on_c, 0, 83, 100
2, 136259, Note_on_c, 0, 83, 0
2, 136260, Note_on_c, 0, 81, 100
2, 136289, Note_on_c, 0, 81, 0
2, 136290, Note_on_c, 0, 79, 100
2, 136319, Note_on_c, 0, 79, 0
2, 136320, Note_on_c, 0, 81, 100
2, 136379, Note_on_c, 0, 81, 0
2, 136380, Note_on_c, 0, 83, 100
2, 136409, Note_on_c, 0, 83, 0
2, 136410, Note_on_c, 0, 84, 100
2, 136439, Note_on_c, 0, 84, 0
2, 136440, Note_on_c, 0, 83, 100
2, 136469, Note_on_c, 0, 83, 0
2, 136470, Note_on_c, 0, 81, 100
2, 136499, Note_on_c, 0, 81, 0
2, 136500, Note_on_c, 0, 79, 100
2, 136529, Note_on_c, 0, 79, 0
2, 136530, Note_on_c, 0, 78, 100
2, 136559, Note_on_c, 0, 78, 0
2, 136560, Note_on_c, 0, 79, 100
2, 136619, Note_on_c, 0, 79, 0
2, 136620, Note_on_c, 0, 81, 100
2, 136649, Note_on_c, 0, 81, 0
2, 136650, Note_on_c, 0, 83, 100
2, 136679, Note_on_c, 0, 83, 0
2, 136680, Note_on_c, 0, 81, 100
2, 136709, Note_on_c, 0, 81, 0
2, 136710, Note_on_c, 0, 79, 100
2, 136739, Note_on_c, 0, 79, 0
2, 136740, Note_on_c, 0, 78, 100
2, 136769, Note_on_c, 0, 78, 0
2, 136770, Note_on_c, 0, 76, 100
2, 136799, Note_on_c, 0, 76, 0
2, 136800, Note_on_c, 0, 75, 100
2, 136859, Note_on_c, 0, 75, 0
2, 136860, Note_on_c, 0, 76, 100
2, 136889, Note_on_c, 0, 76, 0
2, 136890, Note_on_c, 0, 78, 100
2, 136919, Note_on_c, 0, 78, 0
2, 136920, Note_on_c, 0, 76, 100
2, 136949, Note_on_c, 0, 76, 0
2, 136950, Note_on_c, 0, 75, 100
2, 136979, Note_on_c, 0, 75, 0
2, 136980, Note_on_c, 0, 73, 100
2, 137009, Note_on_c, 0, 73, 0
2, 137010, Note_on_c, 0, 71, 100
2, 137039, Note_on_c, 0, 71, 0
2, 137040, Note_on_c, 0, 73, 100
2, 137069, Note_on_c, 0, 73, 0
2, 137070, Note_on_c, 0, 75, 100
2, 137099, Note_on_c, 0, 75, 0
2, 137100, Note_on_c, 0, 76, 100
2, 137129, Note_on_c, 0, 76, 0
2, 137130, Note_on_c, 0, 78, 100
2, 137159, Note_on_c, 0, 78, 0
2, 137160, Note_on_c, 0, 79, 100
2, 137189, Note_on_c, 0, 79, 0
2, 137190, Note_on_c, 0, 81, 100
2, 137219, Note_on_c, 0, 81, 0
2, 137220, Note_on_c, 0, 83, 100
2, 137249, Note_on_c, 0, 83, 0
2, 137250, Note_on_c, 0, 81, 100
2, 137279, Note_on_c, 0, 81, 0
2, 137280, Note_on_c, 0, 84, 100
2, 137309, Note_on_c, 0, 84, 0
2, 137310, Note_on_c, 0, 83, 100
2, 137339, Note_on_c, 0, 83, 0
2, 137340, Note_on_c, 0, 87, 100
2, 137369, Note_on_c, 0, 87, 0
2, 137370, Note_on_c, 0, 88, 100
2, 137399, Note_on_c, 0, 88, 0
2, 137400, Note_on_c, 0, 76, 100
2, 137610, Note_on_c, 0, 76, 0
2, 137610, Note_on_c, 0, 78, 100
2, 137639, Note_on_c, 0, 78, 0
2, 137640, Note_on_c, 0, 79, 100
2, 137655, Note_on_c, 0, 79, 0
2, 137655, Note_on_c, 0, 78, 100
2, 137670, Note_on_c, 0, 78, 0
2, 137670, Note_on_c, 0, 79, 100
2, 137680, Note_on_c, 0, 79, 0
2, 137680, Note_on_c, 0, 78, 100
2, 137690, Note_on_c, 0, 78, 0
2, 137690, Note_on_c, 0, 79, 100
2, 137700, Note_on_c, 0, 79, 0
2, 137700, Note_on_c, 0, 78, 100
2, 137710, Note_on_c, 0, 78, 0
2, 137710, Note_on_c, 0, 79, 100
2, 137720, Note_on_c, 0, 79, 0
2, 137720, Note_on_c, 0, 78, 100
2, 137730, Note_on_c, 0, 78, 0
2, 137730, Note_on_c, 0, 79, 100
2, 137737, Note_on_c, 0, 78, 100
2, 137738, Note_on_c, 0, 79, 0
2, 137745, Note_on_c, 0, 78, 0
2, 137745, Note_on_c, 0, 76, 100
2, 137752, Note_on_c, 0, 78, 100
2, 137753, Note_on_c, 0, 76, 0
2, 137760, Note_on_c, 0, 78, 0
2, 137760, Note_on_c, 0, 76, 100
2, 137879, Note_on_c, 0, 76, 0
2, 144600, Note_on_c, 0, 79, 110
2, 145500, Note_on_c, 0, 79, 0
2, 145500, Note_on_c, 0, 77, 110
2, 145560, Note_on_c, 0, 77, 0
2, 145560, Note_on_c, 0, 77, 110
2, 145620, Note_on_c, 0, 77, 0
2, 145620, Note_on_c, 0, 76, 110
2, 145680, Note_on_c, 0, 76, 0
2, 145680, Note_on_c, 0, 76, 110
2, 146460, Note_on_c, 0, 76, 0
2, 146460, Note_on_c, 0, 74, 110
2, 146520, Note_on_c, 0, 74, 0
2, 146520, Note_on_c, 0, 74, 110
2, 146580, Note_on_c, 0, 74, 0
2, 146580, Note_on_c, 0, 72, 110
2, 146640, Note_on_c, 0, 72, 0
2, 146640, Note_on_c, 0, 72, 110
2, 147180, Note_on_c, 0, 72, 0
2, 147180, Note_on_c, 0, 71, 110
2, 147240, Note_on_c, 0, 71, 0
2, 147240, Note_on_c, 0, 71, 110
2, 147300, Note_on_c, 0, 71, 0
2, 147300, Note_on_c, 0, 72, 110
2, 147360, Note_on_c, 0, 72, 0
2, 147360, Note_on_c, 0, 72, 110
2, 147480, Note_on_c, 0, 72, 0
2, 147480, Note_on_c, 0, 71, 110
2, 147600, Note_on_c, 0, 71, 0
2, 147600, Note_on_c, 0, 74, 100
2, 147659, Note_on_c, 0, 74, 0
2, 147660, Note_on_c, 0, 76, 100
2, 147719, Note_on_c, 0, 76, 0
2, 147720, Note_on_c, 0, 76, 100
2, 147779, Note_on_c, 0, 76, 0
2, 147780, Note_on_c, 0, 78, 100
2, 147839, Note_on_c, 0, 78, 0
2, 147840, Note_on_c, 0, 78, 100
2, 147899, Note_on_c, 0, 78, 0
2, 147900, Note_on_c, 0, 79, 100
2, 147959, Note_on_c, 0, 79, 0
2, 147960, Note_on_c, 0, 79, 100
2, 148019, Note_on_c, 0, 79, 0
2, 148020, Note_on_c, 0, 74, 100
2, 148079, Note_on_c, 0, 74, 0
2, 148080, Note_on_c, 0, 74, 100
2, 148139, Note_on_c, 0, 74, 0
2, 148140, Note_on_c, 0, 76, 100
2, 148199, Note_on_c, 0, 76, 0
2, 148200, Note_on_c, 0, 76, 100
2, 148259, Note_on_c, 0, 76, 0
2, 148260, Note_on_c, 0, 77, 100
2, 148319, Note_on_c, 0, 77, 0
2, 148320, Note_on_c, 0, 77, 100
2, 148559, Note_on_c, 0, 77, 0
2, 148560, Note_on_c, 0, 83, 100
2, 148649, Note_on_c, 0, 83, 0
2, 148650, Note_on_c, 0, 84, 100
2, 148664, Note_on_c, 0, 84, 0
2, 148665, Note_on_c, 0, 86, 100
2, 148679, Note_on_c, 0, 86, 0
2, 148680, Note_on_c, 0, 84, 100
2, 148709, Note_on_c, 0, 84, 0
2, 148710, Note_on_c, 0, 83, 100
2, 148739, Note_on_c, 0, 83, 0
2, 148740, Note_on_c, 0, 81, 100
2, 148769, Note_on_c, 0, 81, 0
2, 148770, Note_on_c, 0, 79, 100
2, 148799, Note_on_c, 0, 79, 0
2, 148800, Note_on_c, 0, 84, 100
2, 148859, Note_on_c, 0, 84, 0
2, 148860, Note_on_c, 0, 79, 100
2, 148919, Note_on_c, 0, 79, 0
2, 148920, Note_on_c, 0, 76, 100
2, 148979, Note_on_c, 0, 76, 0
2, 148980, Note_on_c, 0, 79, 100
2, 149039, Note_on_c, 0, 79, 0
2, 149040, Note_on_c, 0, 84, 100
2, 149129, Note_on_c, 0, 84, 0
2, 149130, Note_on_c, 0, 86, 100
2, 149144, Note_on_c, 0, 86, 0
2, 149145, Note_on_c, 0, 88, 100
2, 149159, Note_on_c, 0, 88, 0
2, 149160, Note_on_c, 0, 86, 100
2, 149189, Note_on_c, 0, 86, 0
2, 149190, Note_on_c, 0, 84, 100
2, 149219, Note_on_c, 0, 84, 0
2, 149220, Note_on_c, 0, 83, 100
2, 149249, Note_on_c, 0, 83, 0
2, 149250, Note_on_c, 0, 81, 100
2, 149279, Note_on_c, 0, 81, 0
2, 149280, Note_on_c, 0, 79, 100
2, 149339, Note_on_c, 0, 79, 0
2, 149340, Note_on_c, 0, 78, 100
2, 149399, Note_on_c, 0, 78, 0
2, 149400, Note_on_c, 0, 84, 100
2, 149519, Note_on_c, 0, 84, 0
2, 149520, Note_on_c, 0, 83, 100
2, 149609, Note_on_c, 0, 83, 0
2, 149610, Note_on_c, 0, 84, 100
2, 149624, Note_on_c, 0, 84, 0
2, 149625, Note_on_c, 0, 86, 100
2, 149639, Note_on_c, 0, 86, 0
2, 149640, Note_on_c, 0, 84, 100
2, 149669, Note_on_c, 0, 84, 0
2, 149670, Note_on_c, 0, 83, 100
2, 149699, Note_on_c, 0, 83, 0
2, 149700, Note_on_c, 0, 81, 100
2, 149729, Note_on_c, 0, 81, 0
2, 149730, Note_on_c, 0, 79, 100
2, 149759, Note_on_c, 0, 79, 0
2, 149760, Note_on_c, 0, 81, 100
2, 149819, Note_on_c, 0, 81, 0
2, 149820, Note_on_c, 0, 78, 100
2, 149879, Note_on_c, 0, 78, 0
2, 149880, Note_on_c, 0, 79, 100
2, 149939, Note_on_c, 0, 79, 0
2, 149940, Note_on_c, 0, 74, 100
2, 149999, Note_on_c, 0, 74, 0
2, 150000, Note_on_c, 0, 79, 100
2, 150089, Note_on_c, 0, 79, 0
2, 150090, Note_on_c, 0, 81, 100
2, 150104, Note_on_c, 0, 81, 0
2, 150105, Note_on_c, 0, 83, 100
2, 150119, Note_on_c, 0, 83, 0
2, 150120, Note_on_c, 0, 81, 100
2, 150149, Note_on_c, 0, 81, 0
2, 150150, Note_on_c, 0, 79, 100
2, 150179, Note_on_c, 0, 79, 0
2, 150180, Note_on_c, 0, 78, 100
2, 150209, Note_on_c, 0, 78, 0
2, 150210, Note_on_c, 0, 76, 100
2, 150239, Note_on_c, 0, 76, 0
2, 150240, Note_on_c, 0, 74, 100
2, 150299, Note_on_c, 0, 74, 0
2, 150300, Note_on_c, 0, 73, 100
2, 150479, Note_on_c, 0, 73, 0
2, 150480, Note_on_c, 0, 86, 100
2, 150539, Note_on_c, 0, 86, 0
2, 150540, Note_on_c, 0, 85, 100
2, 150569, Note_on_c, 0, 85, 0
2, 150570, Note_on_c, 0, 83, 100
2, 150599, Note_on_c, 0, 83, 0
2, 150600, Note_on_c, 0, 81, 100
2, 150659, Note_on_c, 0, 81, 0
2, 150660, Note_on_c, 0, 79, 100
2, 150719, Note_on_c, 0, 79, 0
2, 150720, Note_on_c, 0, 78, 100
2, 150779, Note_on_c, 0, 78, 0
2, 150780, Note_on_c, 0, 83, 100
2, 150839, Note_on_c, 0, 83, 0
2, 150840, Note_on_c, 0, 81, 100
2, 150899, Note_on_c, 0, 81, 0
2, 150900, Note_on_c, 0, 79, 100
2, 150959, Note_on_c, 0, 79, 0
2, 150960, Note_on_c, 0, 78, 100
2, 151019, Note_on_c, 0, 78, 0
2, 151020, Note_on_c, 0, 76, 100
2, 151049, Note_on_c, 0, 76, 0
2, 151050, Note_on_c, 0, 74, 100
2, 151079, Note_on_c, 0, 74, 0
2, 151080, Note_on_c, 0, 76, 100
2, 151095, Note_on_c, 0, 76, 0
2, 151095, Note_on_c, 0, 78, 100
2, 151110, Note_on_c, 0, 78, 0
2, 151110, Note_on_c, 0, 76, 100
2, 151120, Note_on_c, 0, 76, 0
2, 151120, Note_on_c, 0, 78, 100
2, 151130, Note_on_c, 0, 78, 0
2, 151130, Note_on_c, 0, 76, 100
2, 151140, Note_on_c, 0, 76, 0
2, 151140, Note_on_c, 0, 78, 100
2, 151150, Note_on_c, 0, 78, 0
2, 151150, Note_on_c, 0, 76, 100
2, 151160, Note_on_c, 0, 76, 0
2, 151160, Note_on_c, 0, 78, 100
2, 151170, Note_on_c, 0, 78, 0
2, 151170, Note_on_c, 0, 76, 100
2, 151180, Note_on_c, 0, 76, 0
2, 151180, Note_on_c, 0, 74, 100
2, 151190, Note_on_c, 0, 74, 0
2, 151190, Note_on_c, 0, 76, 100
2, 151200, Note_on_c, 0, 76, 0
2, 151200, Note_on_c, 0, 74, 100
2, 151319, Note_on_c, 0, 74, 0
2, 154320, Note_on_c, 0, 78, 100
2, 154409, Note_on_c, 0, 78, 0
2, 154410, Note_on_c, 0, 79, 100
2, 154424, Note_on_c, 0, 79, 0
2, 154425, Note_on_c, 0, 81, 100
2, 154439, Note_on_c, 0, 81, 0
2, 154440, Note_on_c, 0, 79, 100
2, 154469, Note_on_c, 0, 79, 0
2, 154470, Note_on_c, 0, 78, 100
2, 154499, Note_on_c, 0, 78, 0
2, 154500, Note_on_c, 0, 76, 100
2, 154529, Note_on_c, 0, 76, 0
2, 154530, Note_on_c, 0, 74, 100
2, 154559, Note_on_c, 0, 74, 0
2, 154560, Note_on_c, 0, 76, 100
2, 154619, Note_on_c, 0, 76, 0
2, 154620, Note_on_c, 0, 73, 100
2, 154679, Note_on_c, 0, 73, 0
2, 154680, Note_on_c, 0, 74, 100
2, 154739, Note_on_c, 0, 74, 0
2, 154740, Note_on_c, 0, 69, 100
2, 154799, Note_on_c, 0, 69, 0
2, 154800, Note_on_c, 0, 78, 100
2, 154889, Note_on_c, 0, 78, 0
2, 154890, Note_on_c, 0, 79, 100
2, 154904, Note_on_c, 0, 79, 0
2, 154905, Note_on_c, 0, 81, 100
2, 154919, Note_on_c, 0, 81, 0
2, 154920, Note_on_c, 0, 79, 100
2, 154949, Note_on_c, 0, 79, 0
2, 154950, Note_on_c, 0, 78, 100
2, 154979, Note_on_c, 0, 78, 0
2, 154980, Note_on_c, 0, 76, 100
2, 155009, Note_on_c, 0, 76, 0
2, 155010, Note_on_c, 0, 74, 100
2, 155039, Note_on_c, 0, 74, 0
2, 155040, Note_on_c, 0, 72, 100
2, 155279, Note_on_c, 0, 72, 0
2, 155280, Note_on_c, 0, 83, 100
2, 155369, Note_on_c, 0, 83, 0
2, 155370, Note_on_c, 0, 84, 100
2, 155384, Note_on_c, 0, 84, 0
2, 155385, Note_on_c, 0, 86, 100
2, 155399, Note_on_c, 0, 86, 0
2, 155400, Note_on_c, 0, 84, 100
2, 155429, Note_on_c, 0, 84, 0
2, 155430, Note_on_c, 0, 83, 100
2, 155459, Note_on_c, 0, 83, 0
2, 155460, Note_on_c, 0, 81, 100
2, 155489, Note_on_c, 0, 81, 0
2, 155490, Note_on_c, 0, 79, 100
2, 155519, Note_on_c, 0, 79, 0
2, 155520, Note_on_c, 0, 81, 100
2, 155579, Note_on_c, 0, 81, 0
2, 155580, Note_on_c, 0, 78, 100
2, 155639, Note_on_c, 0, 78, 0
2, 155640, Note_on_c, 0, 79, 100
2, 155699, Note_on_c, 0, 79, 0
2, 155700, Note_on_c, 0, 74, 100
2, 155759, Note_on_c, 0, 74, 0
2, 155760, Note_on_c, 0, 83, 100
2, 155849, Note_on_c, 0, 83, 0
2, 155850, Note_on_c, 0, 84, 100
2, 155864, Note_on_c, 0, 84, 0
2, 155865, Note_on_c, 0, 86, 100
2, 155879, Note_on_c, 0, 86, 0
2, 155880, Note_on_c, 0, 84, 100
2, 155909, Note_on_c, 0, 84, 0
2, 155910, Note_on_c, 0, 83, 100
2, 155939, Note_on_c, 0, 83, 0
2, 155940, Note_on_c, 0, 81, 100
2, 155969, Note_on_c, 0, 81, 0
2, 155970, Note_on_c, 0, 79, 100
2, 155999, Note_on_c, 0, 79, 0
2, 156000, Note_on_c, 0, 77, 100
2, 156239, Note_on_c, 0, 77, 0
2, 156240, Note_on_c, 0, 76, 100
2, 156300, Note_on_c, 0, 76, 0
2, 156300, Note_on_c, 0, 88, 100
2, 156389, Note_on_c, 0, 88, 0
2, 156390, Note_on_c, 0, 86, 100
2, 156419, Note_on_c, 0, 86, 0
2, 156420, Note_on_c, 0, 84, 100
2, 156449, Note_on_c, 0, 84, 0
2, 156450, Note_on_c, 0, 83, 100
2, 156479, Note_on_c, 0, 83, 0
2, 156480, Note_on_c, 0, 84, 100
2, 156539, Note_on_c, 0, 84, 0
2, 156540, Note_on_c, 0, 83, 100
2, 156599, Note_on_c, 0, 83, 0
2, 156600, Note_on_c, 0, 81, 100
2, 156659, Note_on_c, 0, 81, 0
2, 156660, Note_on_c, 0, 79, 100
2, 156719, Note_on_c, 0, 79, 0
2, 156720, Note_on_c, 0, 78, 100
2, 156779, Note_on_c, 0, 78, 0
2, 156780, Note_on_c, 0, 86, 100
2, 156869, Note_on_c, 0, 86, 0
2, 156870, Note_on_c, 0, 84, 100
2, 156899, Note_on_c, 0, 84, 0
2, 156900, Note_on_c, 0, 83, 100
2, 156929, Note_on_c, 0, 83, 0
2, 156930, Note_on_c, 0, 81, 100
2, 156959, Note_on_c, 0, 81, 0
2, 156960, Note_on_c, 0, 83, 100
2, 157019, Note_on_c, 0, 83, 0
2, 157020, Note_on_c, 0, 81, 100
2, 157079, Note_on_c, 0, 81, 0
2, 157080, Note_on_c, 0, 79, 100
2, 157139, Note_on_c, 0, 79, 0
2, 157140, Note_on_c, 0, 77, 100
2, 157199, Note_on_c, 0, 77, 0
2, 157200, Note_on_c, 0, 76, 100
2, 157259, Note_on_c, 0, 76, 0
2, 157260, Note_on_c, 0, 81, 100
2, 157319, Note_on_c, 0, 81, 0
2, 157320, Note_on_c, 0, 81, 100
2, 157379, Note_on_c, 0, 81, 0
2, 157380, Note_on_c, 0, 84, 100
2, 157439, Note_on_c, 0, 84, 0
2, 157440, Note_on_c, 0, 84, 100
2, 157529, Note_on_c, 0, 84, 0
2, 157530, Note_on_c, 0, 86, 100
2, 157544, Note_on_c, 0, 86, 0
2, 157545, Note_on_c, 0, 88, 100
2, 157559, Note_on_c, 0, 88, 0
2, 157560, Note_on_c, 0, 86, 100
2, 157589, Note_on_c, 0, 86, 0
2, 157590, Note_on_c, 0, 84, 100
2, 157619, Note_on_c, 0, 84, 0
2, 157620, Note_on_c, 0, 83, 100
2, 157649, Note_on_c, 0, 83, 0
2, 157650, Note_on_c, 0, 81, 100
2, 157679, Note_on_c, 0, 81, 0
2, 157680, Note_on_c, 0, 79, 100
2, 157710, Note_on_c, 0, 79, 0
2, 157710, Note_on_c, 0, 78, 100
2, 157740, Note_on_c, 0, 78, 0
2, 157740, Note_on_c, 0, 79, 100
2, 157770, Note_on_c, 0, 79, 0
2, 157770, Note_on_c, 0, 84, 100
2, 157800, Note_on_c, 0, 84, 0
2, 157800, Note_on_c, 0, 81, 100
2, 157810, Note_on_c, 0, 81, 0
2, 157810, Note_on_c, 0, 83, 100
2, 157820, Note_on_c, 0, 83, 0
2, 157820, Note_on_c, 0, 81, 100
2, 157830, Note_on_c, 0, 81, 0
2, 157830, Note_on_c, 0, 83, 100
2, 157837, Note_on_c, 0, 81, 100
2, 157838, Note_on_c, 0, 83, 0
2, 157845, Note_on_c, 0, 81, 0
2, 157845, Note_on_c, 0, 83, 100
2, 157852, Note_on_c, 0, 81, 100
2, 157853, Note_on_c, 0, 83, 0
2, 157860, Note_on_c, 0, 81, 0
2, 157860, Note_on_c, 0, 83, 100
2, 157867, Note_on_c, 0, 81, 100
2, 157868, Note_on_c, 0, 83, 0
2, 157875, Note_on_c, 0, 81, 0
2, 157875, Note_on_c, 0, 83, 100
2, 157882, Note_on_c, 0, 81, 100
2, 157883, Note_on_c, 0, 83, 0
2, 157890, Note_on_c, 0, 81, 0
2, 157890, Note_on_c, 0, 83, 100
2, 157897, Note_on_c, 0, 81, 100
2, 157898, Note_on_c, 0, 83, 0
2, 157905, Note_on_c, 0, 81, 0
2, 157905, Note_on_c, 0, 79, 100
2, 157912, Note_on_c, 0, 81, 100
2, 157913, Note_on_c, 0, 79, 0
2, 157920, Note_on_c, 0, 81, 0
2, 157920, Note_on_c, 0, 79, 100
2, 158039, Note_on_c, 0, 79, 0
2, 158100, Note_on_c, 0, 79, 100
2, 158219, Note_on_c, 0, 79, 0
2, 158220, Note_on_c, 0, 76, 100
2, 158279, Note_on_c, 0, 76, 0
2, 158280, Note_on_c, 0, 76, 100
2, 158339, Note_on_c, 0, 76, 0
2, 158340, Note_on_c, 0, 78, 100
2, 158399, Note_on_c, 0, 78, 0
2, 158580, Note_on_c, 0, 84, 100
2, 158699, Note_on_c, 0, 84, 0
2, 158700, Note_on_c, 0, 81, 100
2, 158759, Note_on_c, 0, 81, 0
2, 158760, Note_on_c, 0, 81, 100
2, 158819, Note_on_c, 0, 81, 0
2, 158820, Note_on_c, 0, 83, 100
2, 158879, Note_on_c, 0, 83, 0
2, 158940, Note_on_c, 0, 76, 100
2, 158969, Note_on_c, 0, 76, 0
2, 158970, Note_on_c, 0, 78, 100
2, 158999, Note_on_c, 0, 78, 0
2, 159000, Note_on_c, 0, 80, 100
2, 159029, Note_on_c, 0, 80, 0
2, 159030, Note_on_c, 0, 81, 100
2, 159059, Note_on_c, 0, 81, 0
2, 159060, Note_on_c, 0, 83, 100
2, 159089, Note_on_c, 0, 83, 0
2, 159090, Note_on_c, 0, 84, 100
2, 159119, Note_on_c, 0, 84, 0
2, 159120, Note_on_c, 0, 86, 100
2, 159179, Note_on_c, 0, 86, 0
2, 159180, Note_on_c, 0, 84, 100
2, 159239, Note_on_c, 0, 84, 0
2, 159240, Note_on_c, 0, 84, 100
2, 159299, Note_on_c, 0, 84, 0
2, 159420, Note_on_c, 0, 76, 100
2, 159479, Note_on_c, 0, 76, 0
2, 159480, Note_on_c, 0, 85, 100
2, 159659, Note_on_c, 0, 85, 0
2, 159660, Note_on_c, 0, 86, 100
2, 159779, Note_on_c, 0, 86, 0
2, 159780, Note_on_c, 0, 84, 100
2, 159899, Note_on_c, 0, 84, 0
2, 159900, Note_on_c, 0, 82, 100
2, 160019, Note_on_c, 0, 82, 0
2, 160020, Note_on_c, 0, 81, 100
2, 160079, Note_on_c, 0, 81, 0
2, 160080, Note_on_c, 0, 86, 100
2, 160139, Note_on_c, 0, 86, 0
2, 160140, Note_on_c, 0, 79, 100
2, 160259, Note_on_c, 0, 79, 0
2, 160260, Note_on_c, 0, 78, 100
2, 160289, Note_on_c, 0, 78, 0
2, 160290, Note_on_c, 0, 76, 100
2, 160319, Note_on_c, 0, 76, 0
2, 160320, Note_on_c, 0, 74, 100
2, 160379, Note_on_c, 0, 74, 0
2, 160380, Note_on_c, 0, 76, 100
2, 160409, Note_on_c, 0, 76, 0
2, 160410, Note_on_c, 0, 78, 100
2, 160439, Note_on_c, 0, 78, 0
2, 160440, Note_on_c, 0, 79, 100
2, 160469, Note_on_c, 0, 79, 0
2, 160470, Note_on_c, 0, 81, 100
2, 160499, Note_on_c, 0, 81, 0
2, 160500, Note_on_c, 0, 83, 100
2, 160529, Note_on_c, 0, 83, 0
2, 160530, Note_on_c, 0, 84, 100
2, 160559, Note_on_c, 0, 84, 0
2, 160560, Note_on_c, 0, 84, 100
2, 160589, Note_on_c, 0, 84, 0
2, 160590, Note_on_c, 0, 83, 100
2, 160619, Note_on_c, 0, 83, 0
2, 160620, Note_on_c, 0, 81, 100
2, 160649, Note_on_c, 0, 81, 0
2, 160650, Note_on_c, 0, 79, 100
2, 160679, Note_on_c, 0, 79, 0
2, 160680, Note_on_c, 0, 81, 100
2, 160695, Note_on_c, 0, 81, 0
2, 160695, Note_on_c, 0, 83, 100
2, 160710, Note_on_c, 0, 83, 0
2, 160710, Note_on_c, 0, 81, 100
2, 160720, Note_on_c, 0, 81, 0
2, 160720, Note_on_c, 0, 83, 100
2, 160730, Note_on_c, 0, 83, 0
2, 160730, Note_on_c, 0, 81, 100
2, 160740, Note_on_c, 0, 81, 0
2, 160740, Note_on_c, 0, 83, 100
2, 160750, Note_on_c, 0, 83, 0
2, 160750, Note_on_c, 0, 81, 100
2, 160760, Note_on_c, 0, 81, 0
2, 160760, Note_on_c, 0, 83, 100
2, 160770, Note_on_c, 0, 83, 0
2, 160770, Note_on_c, 0, 81, 100
2, 160780, Note_on_c, 0, 81, 0
2, 160780, Note_on_c, 0, 79, 100
2, 160790, Note_on_c, 0, 79, 0
2, 160790, Note_on_c, 0, 81, 100
2, 160800, Note_on_c, 0, 81, 0
2, 160800, Note_on_c, 0, 79, 100
2, 160919, Note_on_c, 0, 79, 0
2, 167280, Note_on_c, 0, 79, 100
2, 167340, Note_on_c, 0, 79, 0
2, 167460, Note_on_c, 0, 79, 100
2, 167490, Note_on_c, 0, 79, 0
2, 167520, Note_on_c, 0, 76, 100
2, 167550, Note_on_c, 0, 76, 0
2, 167700, Note_on_c, 0, 76, 100
2, 167730, Note_on_c, 0, 76, 0
2, 167760, Note_on_c, 0, 74, 100
2, 167790, Note_on_c, 0, 74, 0
2, 167940, Note_on_c, 0, 74, 100
2, 167970, Note_on_c, 0, 74, 0
2, 168000, Note_on_c, 0, 76, 100
2, 168030, Note_on_c, 0, 76, 0
2, 168180, Note_on_c, 0, 76, 100
2, 168210, Note_on_c, 0, 76, 0
2, 168240, Note_on_c, 0, 78, 100
2, 168270, Note_on_c, 0, 78, 0
2, 168420, Note_on_c, 0, 78, 100
2, 168450, Note_on_c, 0, 78, 0
2, 168480, Note_on_c, 0, 79, 100
2, 168510, Note_on_c, 0, 79, 0
2, 168660, Note_on_c, 0, 79, 100
2, 168690, Note_on_c, 0, 79, 0
2, 168720, Note_on_c, 0, 81, 100
2, 168750, Note_on_c, 0, 81, 0
2, 168900, Note_on_c, 0, 81, 100
2, 168930, Note_on_c, 0, 81, 0
2, 168960, Note_on_c, 0, 83, 100
2, 168990, Note_on_c, 0, 83, 0
2, 169140, Note_on_c, 0, 83, 100
2, 169170, Note_on_c, 0, 83, 0
2, 169200, Note_on_c, 0, 81, 100
2, 169230, Note_on_c, 0, 81, 0
2, 169380, Note_on_c, 0, 78, 100
2, 169410, Note_on_c, 0, 78, 0
2, 169440, Note_on_c, 0, 76, 100
2, 169470, Note_on_c, 0, 76, 0
2, 169620, Note_on_c, 0, 76, 100
2, 169650, Note_on_c, 0, 76, 0
2, 169680, Note_on_c, 0, 81, 100
2, 169710, Note_on_c, 0, 81, 0
2, 169860, Note_on_c, 0, 79, 100
2, 169890, Note_on_c, 0, 79, 0
2, 169920, Note_on_c, 0, 79, 100
2, 169950, Note_on_c, 0, 79, 0
2, 170100, Note_on_c, 0, 78, 100
2, 170130, Note_on_c, 0, 78, 0
2, 170160, Note_on_c, 0, 78, 100
2, 170190, Note_on_c, 0, 78, 0
2, 170340, Note_on_c, 0, 76, 100
2, 170370, Note_on_c, 0, 76, 0
2, 170400, Note_on_c, 0, 76, 100
2, 170430, Note_on_c, 0, 76, 0
2, 170580, Note_on_c, 0, 74, 100
2, 170610, Note_on_c, 0, 74, 0
2, 170640, Note_on_c, 0, 74, 100
2, 170670, Note_on_c, 0, 74, 0
2, 170820, Note_on_c, 0, 73, 100
2, 170850, Note_on_c, 0, 73, 0
2, 170880, Note_on_c, 0, 74, 100
2, 170910, Note_on_c, 0, 74, 0
2, 171060, Note_on_c, 0, 73, 100
2, 171090, Note_on_c, 0, 73, 0
2, 171120, Note_on_c, 0, 74, 100
2, 171150, Note_on_c, 0, 74, 0
2, 171300, Note_on_c, 0, 81, 100
2, 171330, Note_on_c, 0, 81, 0
2, 171360, Note_on_c, 0, 79, 100
2, 171390, Note_on_c, 0, 79, 0
2, 171540, Note_on_c, 0, 72, 100
2, 171570, Note_on_c, 0, 72, 0
2, 171600, Note_on_c, 0, 72, 100
2, 171630, Note_on_c, 0, 72, 0
2, 171780, Note_on_c, 0, 81, 100
2, 171810, Note_on_c, 0, 81, 0
2, 171840, Note_on_c, 0, 83, 100
2, 171870, Note_on_c, 0, 83, 0
2, 172020, Note_on_c, 0, 74, 100
2, 172050, Note_on_c, 0, 74, 0
2, 172080, Note_on_c, 0, 79, 100
2, 172110, Note_on_c, 0, 79, 0
2, 172260, Note_on_c, 0, 79, 100
2, 172290, Note_on_c, 0, 79, 0
2, 172320, Note_on_c, 0, 78, 100
2, 172350, Note_on_c, 0, 78, 0
2, 172500, Note_on_c, 0, 81, 100
2, 172530, Note_on_c, 0, 81, 0
2, 172560, Note_on_c, 0, 83, 100
2, 172590, Note_on_c, 0, 83, 0
2, 172740, Note_on_c, 0, 83, 100
2, 172770, Note_on_c, 0, 83, 0
2, 172800, Note_on_c, 0, 76, 100
2, 172830, Note_on_c, 0, 76, 0
2, 172980, Note_on_c, 0, 76, 100
2, 173010, Note_on_c, 0, 76, 0
2, 173040, Note_on_c, 0, 78, 100
2, 173070, Note_on_c, 0, 78, 0
2, 173220, Note_on_c, 0, 79, 100
2, 173250, Note_on_c, 0, 79, 0
2, 173280, Note_on_c, 0, 81, 100
2, 173310, Note_on_c, 0, 81, 0
2, 173460, Note_on_c, 0, 78, 100
2, 173490, Note_on_c, 0, 78, 0
2, 173520, Note_on_c, 0, 79, 100
2, 173550, Note_on_c, 0, 79, 0
2, 173700, Note_on_c, 0, 81, 100
2, 173730, Note_on_c, 0, 81, 0
2, 173760, Note_on_c, 0, 78, 100
2, 173790, Note_on_c, 0, 78, 0
2, 173940, Note_on_c, 0, 79, 100
2, 173970, Note_on_c, 0, 79, 0
2, 174000, Note_on_c, 0, 76, 100
2, 174030, Note_on_c, 0, 76, 0
2, 174180, Note_on_c, 0, 78, 100
2, 174210, Note_on_c, 0, 78, 0
2, 174240, Note_on_c, 0, 79, 100
2, 174270, Note_on_c, 0, 79, 0
2, 174420, Note_on_c, 0, 79, 100
2, 174450, Note_on_c, 0, 79, 0
2, 174480, Note_on_c, 0, 78, 100
2, 174510, Note_on_c, 0, 78, 0
2, 174660, Note_on_c, 0, 79, 100
2, 174690, Note_on_c, 0, 79, 0
2, 174720, Note_on_c, 0, 81, 100
2, 174750, Note_on_c, 0, 81, 0
2, 174900, Note_on_c, 0, 81, 100
2, 174930, Note_on_c, 0, 81, 0
2, 174960, Note_on_c, 0, 79, 100
2, 174990, Note_on_c, 0, 79, 0
2, 175140, Note_on_c, 0, 79, 100
2, 175170, Note_on_c, 0, 79, 0
2, 175200, Note_on_c, 0, 81, 100
2, 175230, Note_on_c, 0, 81, 0
2, 175380, Note_on_c, 0, 81, 100
2, 175410, Note_on_c, 0, 81, 0
2, 175440, Note_on_c, 0, 83, 100
2, 175470, Note_on_c, 0, 83, 0
2, 175620, Note_on_c, 0, 74, 100
2, 175650, Note_on_c, 0, 74, 0
2, 175680, Note_on_c, 0, 72, 100
2, 175710, Note_on_c, 0, 72, 0
2, 175860, Note_on_c, 0, 76, 100
2, 175890, Note_on_c, 0, 76, 0
2, 175920, Note_on_c, 0, 78, 100
2, 175950, Note_on_c, 0, 78, 0
2, 176100, Note_on_c, 0, 78, 100
2, 176130, Note_on_c, 0, 78, 0
2, 176160, Note_on_c, 0, 76, 100
2, 176190, Note_on_c, 0, 76, 0
2, 176340, Note_on_c, 0, 74, 100
2, 176370, Note_on_c, 0, 74, 0
2, 176400, Note_on_c, 0, 72, 100
2, 176430, Note_on_c, 0, 72, 0
2, 176580, Note_on_c, 0, 72, 100
2, 176610, Note_on_c, 0, 72, 0
2, 176640, Note_on_c, 0, 71, 100
2, 176670, Note_on_c, 0, 71, 0
2, 176820, Note_on_c, 0, 71, 100
2, 176850, Note_on_c, 0, 71, 0
2, 176880, Note_on_c, 0, 70, 100
2, 176910, Note_on_c, 0, 70, 0
2, 177060, Note_on_c, 0, 71, 100
2, 177090, Note_on_c, 0, 71, 0
2, 177120, Note_on_c, 0, 73, 100
2, 177150, Note_on_c, 0, 73, 0
2, 177300, Note_on_c, 0, 78, 100
2, 177330, Note_on_c, 0, 78, 0
2, 177360, Note_on_c, 0, 78, 100
2, 177390, Note_on_c, 0, 78, 0
2, 177540, Note_on_c, 0, 79, 100
2, 177570, Note_on_c, 0, 79, 0
2, 177600, Note_on_c, 0, 78, 100
2, 177630, Note_on_c, 0, 78, 0
2, 177780, Note_on_c, 0, 74, 100
2, 177810, Note_on_c, 0, 74, 0
2, 177840, Note_on_c, 0, 76, 100
2, 177870, Note_on_c, 0, 76, 0
2, 178020, Note_on_c, 0, 73, 100
2, 178050, Note_on_c, 0, 73, 0
2, 178080, Note_on_c, 0, 74, 100
2, 178110, Note_on_c, 0, 74, 0
2, 178260, Note_on_c, 0, 74, 100
2, 178290, Note_on_c, 0, 74, 0
2, 178320, Note_on_c, 0, 73, 100
2, 178350, Note_on_c, 0, 73, 0
2, 178500, Note_on_c, 0, 74, 100
2, 178530, Note_on_c, 0, 74, 0
2, 178560, Note_on_c, 0, 76, 100
2, 178590, Note_on_c, 0, 76, 0
2, 178740, Note_on_c, 0, 73, 100
2, 178799, Note_on_c, 0, 73, 0
2, 178800, Note_on_c, 0, 71, 100
2, 178919, Note_on_c, 0, 71, 0
2, 179100, Note_on_c, 0, 72, 100
2, 179159, Note_on_c, 0, 72, 0
2, 179160, Note_on_c, 0, 66, 100
2, 179219, Note_on_c, 0, 66, 0
2, 179220, Note_on_c, 0, 69, 100
2, 179279, Note_on_c, 0, 69, 0
2, 179340, Note_on_c, 0, 71, 100
2, 179399, Note_on_c, 0, 71, 0
2, 179400, Note_on_c, 0, 64, 100
2, 179459, Note_on_c, 0, 64, 0
2, 179460, Note_on_c, 0, 67, 100
2, 179519, Note_on_c, 0, 67, 0
2, 179580, Note_on_c, 0, 69, 100
2, 179639, Note_on_c, 0, 69, 0
2, 179640, Note_on_c, 0, 63, 100
2, 179699, Note_on_c, 0, 63, 0
2, 179700, Note_on_c, 0, 66, 100
2, 179759, Note_on_c, 0, 66, 0
2, 179760, Note_on_c, 0, 67, 100
2, 179879, Note_on_c, 0, 67, 0
2, 180060, Note_on_c, 0, 77, 100
2, 180119, Note_on_c, 0, 77, 0
2, 180120, Note_on_c, 0, 71, 100
2, 180179, Note_on_c, 0, 71, 0
2, 180180, Note_on_c, 0, 74, 100
2, 180239, Note_on_c, 0, 74, 0
2, 180300, Note_on_c, 0, 76, 100
2, 180359, Note_on_c, 0, 76, 0
2, 180360, Note_on_c, 0, 69, 100
2, 180419, Note_on_c, 0, 69, 0
2, 180420, Note_on_c, 0, 72, 100
2, 180479, Note_on_c, 0, 72, 0
2, 180540, Note_on_c, 0, 74, 100
2, 180599, Note_on_c, 0, 74, 0
2, 180600, Note_on_c, 0, 68, 100
2, 180659, Note_on_c, 0, 68, 0
2, 180660, Note_on_c, 0, 71, 100
2, 180719, Note_on_c, 0, 71, 0
2, 180720, Note_on_c, 0, 72, 100
2, 180839, Note_on_c, 0, 72, 0
2, 181020, Note_on_c, 0, 82, 100
2, 181079, Note_on_c, 0, 82, 0
2, 181080, Note_on_c, 0, 76, 100
2, 181139, Note_on_c, 0, 76, 0
2, 181140, Note_on_c, 0, 79, 100
2, 181199, Note_on_c, 0, 79, 0
2, 181260, Note_on_c, 0, 81, 100
2, 181319, Note_on_c, 0, 81, 0
2, 181320, Note_on_c, 0, 74, 100
2, 181379, Note_on_c, 0, 74, 0
2, 181380, Note_on_c, 0, 77, 100
2, 181439, Note_on_c, 0, 77, 0
2, 181500, Note_on_c, 0, 79, 100
2, 181559, Note_on_c, 0, 79, 0
2, 181560, Note_on_c, 0, 73, 100
2, 181619, Note_on_c, 0, 73, 0
2, 181620, Note_on_c, 0, 76, 100
2, 181679, Note_on_c, 0, 76, 0
2, 181680, Note_on_c, 0, 77, 100
2, 181799, Note_on_c, 0, 77, 0
2, 181800, Note_on_c, 0, 74, 100
2, 181859, Note_on_c, 0, 74, 0
2, 181860, Note_on_c, 0, 72, 100
2, 181919, Note_on_c, 0, 72, 0
2, 181920, Note_on_c, 0, 71, 100
2, 181979, Note_on_c, 0, 71, 0
2, 181980, Note_on_c, 0, 72, 100
2, 182039, Note_on_c, 0, 72, 0
2, 182040, Note_on_c, 0, 74, 100
2, 182099, Note_on_c, 0, 74, 0
2, 182100, Note_on_c, 0, 71, 100
2, 182159, Note_on_c, 0, 71, 0
2, 182160, Note_on_c, 0, 76, 100
2, 182219, Note_on_c, 0, 76, 0
2, 182220, Note_on_c, 0, 74, 100
2, 182249, Note_on_c, 0, 74, 0
2, 182250, Note_on_c, 0, 72, 100
2, 182279, Note_on_c, 0, 72, 0
2, 182280, Note_on_c, 0, 71, 100
2, 182339, Note_on_c, 0, 71, 0
2, 182340, Note_on_c, 0, 76, 100
2, 182399, Note_on_c, 0, 76, 0
2, 182400, Note_on_c, 0, 72, 100
2, 182429, Note_on_c, 0, 72, 0
2, 182430, Note_on_c, 0, 71, 100
2, 182459, Note_on_c, 0, 71, 0
2, 182460, Note_on_c, 0, 72, 100
2, 182489, Note_on_c, 0, 72, 0
2, 182490, Note_on_c, 0, 74, 100
2, 182519, Note_on_c, 0, 74, 0
2, 182520, Note_on_c, 0, 76, 100
2, 182549, Note_on_c, 0, 76, 0
2, 182550, Note_on_c, 0, 74, 100
2, 182579, Note_on_c, 0, 74, 0
2, 182580, Note_on_c, 0, 72, 100
2, 182609, Note_on_c, 0, 72, 0
2, 182610, Note_on_c, 0, 71, 100
2, 182639, Note_on_c, 0, 71, 0
2, 182640, Note_on_c, 0, 69, 100
2, 182699, Note_on_c, 0, 69, 0
2, 182700, Note_on_c, 0, 62, 100
2, 182759, Note_on_c, 0, 62, 0
2, 182820, Note_on_c, 0, 78, 100
2, 182879, Note_on_c, 0, 78, 0
2, 182880, Note_on_c, 0, 79, 100
2, 182939, Note_on_c, 0, 79, 0
2, 182940, Note_on_c, 0, 78, 100
2, 182969, Note_on_c, 0, 78, 0
2, 182970, Note_on_c, 0, 76, 100
2, 182999, Note_on_c, 0, 76, 0
2, 183000, Note_on_c, 0, 74, 100
2, 183059, Note_on_c, 0, 74, 0
2, 183060, Note_on_c, 0, 74, 100
2, 183149, Note_on_c, 0, 74, 0
2, 183150, Note_on_c, 0, 73, 100
2, 183179, Note_on_c, 0, 73, 0
2, 183180, Note_on_c, 0, 74, 100
2, 183209, Note_on_c, 0, 74, 0
2, 183210, Note_on_c, 0, 76, 100
2, 183239, Note_on_c, 0, 76, 0
2, 183240, Note_on_c, 0, 74, 100
2, 183269, Note_on_c, 0, 74, 0
2, 183270, Note_on_c, 0, 79, 100
2, 183299, Note_on_c, 0, 79, 0
2, 183300, Note_on_c, 0, 78, 100
2, 183329, Note_on_c, 0, 78, 0
2, 183330, Note_on_c, 0, 79, 100
2, 183359, Note_on_c, 0, 79, 0
2, 183360, Note_on_c, 0, 76, 100
2, 183389, Note_on_c, 0, 76, 0
2, 183390, Note_on_c, 0, 78, 100
2, 183419, Note_on_c, 0, 78, 0
2, 183420, Note_on_c, 0, 76, 100
2, 183449, Note_on_c, 0, 76, 0
2, 183450, Note_on_c, 0, 74, 100
2, 183479, Note_on_c, 0, 74, 0
2, 183480, Note_on_c, 0, 73, 100
2, 183509, Note_on_c, 0, 73, 0
2, 183510, Note_on_c, 0, 74, 100
2, 183539, Note_on_c, 0, 74, 0
2, 183540, Note_on_c, 0, 76, 100
2, 183569, Note_on_c, 0, 76, 0
2, 183570, Note_on_c, 0, 73, 100
2, 183599, Note_on_c, 0, 73, 0
2, 183600, Note_on_c, 0, 74, 100
2, 183659, Note_on_c, 0, 74, 0
2, 183660, Note_on_c, 0, 62, 100
2, 183719, Note_on_c, 0, 62, 0
2, 184920, Note_on_c, 0, 78, 100
2, 184979, Note_on_c, 0, 78, 0
2, 184980, Note_on_c, 0, 76, 100
2, 185039, Note_on_c, 0, 76, 0
2, 185040, Note_on_c, 0, 74, 100
2, 185099, Note_on_c, 0, 74, 0
2, 185100, Note_on_c, 0, 76, 100
2, 185159, Note_on_c, 0, 76, 0
2, 185160, Note_on_c, 0, 78, 100
2, 185219, Note_on_c, 0, 78, 0
2, 185220, Note_on_c, 0, 74, 100
2, 185279, Note_on_c, 0, 74, 0
2, 185280, Note_on_c, 0, 79, 100
2, 185339, Note_on_c, 0, 79, 0
2, 185340, Note_on_c, 0, 78, 100
2, 185369, Note_on_c, 0, 78, 0
2, 185370, Note_on_c, 0, 76, 100
2, 185399, Note_on_c, 0, 76, 0
2, 185400, Note_on_c, 0, 74, 100
2, 185459, Note_on_c, 0, 74, 0
2, 185460, Note_on_c, 0, 79, 100
2, 185519, Note_on_c, 0, 79, 0
2, 185520, Note_on_c, 0, 76, 100
2, 185549, Note_on_c, 0, 76, 0
2, 185550, Note_on_c, 0, 74, 100
2, 185579, Note_on_c, 0, 74, 0
2, 185580, Note_on_c, 0, 76, 100
2, 185609, Note_on_c, 0, 76, 0
2, 185610, Note_on_c, 0, 78, 100
2, 185639, Note_on_c, 0, 78, 0
2, 185640, Note_on_c, 0, 79, 100
2, 185669, Note_on_c, 0, 79, 0
2, 185670, Note_on_c, 0, 78, 100
2, 185699, Note_on_c, 0, 78, 0
2, 185700, Note_on_c, 0, 76, 100
2, 185729, Note_on_c, 0, 76, 0
2, 185730, Note_on_c, 0, 74, 100
2, 185759, Note_on_c, 0, 74, 0
2, 185760, Note_on_c, 0, 72, 100
2, 185789, Note_on_c, 0, 72, 0
2, 185790, Note_on_c, 0, 71, 100
2, 185819, Note_on_c, 0, 71, 0
2, 185820, Note_on_c, 0, 72, 100
2, 185849, Note_on_c, 0, 72, 0
2, 185850, Note_on_c, 0, 74, 100
2, 185879, Note_on_c, 0, 74, 0
2, 185880, Note_on_c, 0, 76, 100
2, 185909, Note_on_c, 0, 76, 0
2, 185910, Note_on_c, 0, 74, 100
2, 185939, Note_on_c, 0, 74, 0
2, 185940, Note_on_c, 0, 72, 100
2, 185969, Note_on_c, 0, 72, 0
2, 185970, Note_on_c, 0, 71, 100
2, 185999, Note_on_c, 0, 71, 0
2, 186000, Note_on_c, 0, 69, 100
2, 186029, Note_on_c, 0, 69, 0
2, 186030, Note_on_c, 0, 67, 100
2, 186059, Note_on_c, 0, 67, 0
2, 186060, Note_on_c, 0, 69, 100
2, 186089, Note_on_c, 0, 69, 0
2, 186090, Note_on_c, 0, 71, 100
2, 186119, Note_on_c, 0, 71, 0
2, 186120, Note_on_c, 0, 72, 100
2, 186149, Note_on_c, 0, 72, 0
2, 186150, Note_on_c, 0, 74, 100
2, 186179, Note_on_c, 0, 74, 0
2, 186180, Note_on_c, 0, 71, 100
2, 186209, Note_on_c, 0, 71, 0
2, 186210, Note_on_c, 0, 72, 100
2, 186239, Note_on_c, 0, 72, 0
2, 186240, Note_on_c, 0, 74, 100
2, 186269, Note_on_c, 0, 74, 0
2, 186270, Note_on_c, 0, 72, 100
2, 186299, Note_on_c, 0, 72, 0
2, 186300, Note_on_c, 0, 74, 100
2, 186329, Note_on_c, 0, 74, 0
2, 186330, Note_on_c, 0, 76, 100
2, 186359, Note_on_c, 0, 76, 0
2, 186360, Note_on_c, 0, 78, 100
2, 186389, Note_on_c, 0, 78, 0
2, 186390, Note_on_c, 0, 79, 100
2, 186419, Note_on_c, 0, 79, 0
2, 186420, Note_on_c, 0, 76, 100
2, 186449, Note_on_c, 0, 76, 0
2, 186450, Note_on_c, 0, 78, 100
2, 186479, Note_on_c, 0, 78, 0
2, 186480, Note_on_c, 0, 79, 100
2, 186509, Note_on_c, 0, 79, 0
2, 186510, Note_on_c, 0, 81, 100
2, 186539, Note_on_c, 0, 81, 0
2, 186540, Note_on_c, 0, 79, 100
2, 186569, Note_on_c, 0, 79, 0
2, 186570, Note_on_c, 0, 78, 100
2, 186599, Note_on_c, 0, 78, 0
2, 186600, Note_on_c, 0, 76, 100
2, 186750, Note_on_c, 0, 76, 0
2, 186750, Note_on_c, 0, 77, 100
2, 186779, Note_on_c, 0, 77, 0
2, 186780, Note_on_c, 0, 76, 100
2, 186809, Note_on_c, 0, 76, 0
2, 186810, Note_on_c, 0, 74, 100
2, 186839, Note_on_c, 0, 74, 0
2, 186840, Note_on_c, 0, 72, 100
2, 186990, Note_on_c, 0, 72, 0
2, 186990, Note_on_c, 0, 74, 100
2, 187019, Note_on_c, 0, 74, 0
2, 187020, Note_on_c, 0, 72, 100
2, 187049, Note_on_c, 0, 72, 0
2, 187050, Note_on_c, 0, 71, 100
2, 187079, Note_on_c, 0, 71, 0
2, 187080, Note_on_c, 0, 69, 100
2, 187230, Note_on_c, 0, 69, 0
2, 187230, Note_on_c, 0, 67, 100
2, 187259, Note_on_c, 0, 67, 0
2, 187260, Note_on_c, 0, 69, 100
2, 187289, Note_on_c, 0, 69, 0
2, 187290, Note_on_c, 0, 71, 100
2, 187319, Note_on_c, 0, 71, 0
2, 187320, Note_on_c, 0, 72, 100
2, 187349, Note_on_c, 0, 72, 0
2, 187350, Note_on_c, 0, 71, 100
2, 187379, Note_on_c, 0, 71, 0
2, 187380, Note_on_c, 0, 69, 100
2, 187409, Note_on_c, 0, 69, 0
2, 187410, Note_on_c, 0, 67, 100
2, 187439, Note_on_c, 0, 67, 0
2, 187440, Note_on_c, 0, 66, 100
2, 187499, Note_on_c, 0, 66, 0
2, 187500, Note_on_c, 0, 62, 100
2, 187559, Note_on_c, 0, 62, 0
2, 187560, Note_on_c, 0, 74, 100
2, 187619, Note_on_c, 0, 74, 0
2, 187620, Note_on_c, 0, 72, 100
2, 187679, Note_on_c, 0, 72, 0
2, 187680, Note_on_c, 0, 71, 100
2, 187739, Note_on_c, 0, 71, 0
2, 187740, Note_on_c, 0, 72, 100
2, 187799, Note_on_c, 0, 72, 0
2, 187800, Note_on_c, 0, 74, 100
2, 187859, Note_on_c, 0, 74, 0
2, 187860, Note_on_c, 0, 71, 100
2, 187919, Note_on_c, 0, 71, 0
2, 187920, Note_on_c, 0, 76, 100
2, 187979, Note_on_c, 0, 76, 0
2, 187980, Note_on_c, 0, 74, 100
2, 188009, Note_on_c, 0, 74, 0
2, 188010, Note_on_c, 0, 72, 100
2, 188039, Note_on_c, 0, 72, 0
2, 188040, Note_on_c, 0, 71, 100
2, 188099, Note_on_c, 0, 71, 0
2, 188100, Note_on_c, 0, 76, 100
2, 188159, Note_on_c, 0, 76, 0
2, 188160, Note_on_c, 0, 72, 100
2, 188189, Note_on_c, 0, 72, 0
2, 188190, Note_on_c, 0, 71, 100
2, 188219, Note_on_c, 0, 71, 0
2, 188220, Note_on_c, 0, 72, 100
2, 188249, Note_on_c, 0, 72, 0
2, 188250, Note_on_c, 0, 74, 100
2, 188279, Note_on_c, 0, 74, 0
2, 188280, Note_on_c, 0, 76, 100
2, 188309, Note_on_c, 0, 76, 0
2, 188310, Note_on_c, 0, 74, 100
2, 188339, Note_on_c, 0, 74, 0
2, 188340, Note_on_c, 0, 72, 100
2, 188369, Note_on_c, 0, 72, 0
2, 188370, Note_on_c, 0, 71, 100
2, 188399, Note_on_c, 0, 71, 0
2, 188400, Note_on_c, 0, 69, 100
2, 188429, Note_on_c, 0, 69, 0
2, 188430, Note_on_c, 0, 67, 100
2, 188459, Note_on_c, 0, 67, 0
2, 188460, Note_on_c, 0, 69, 100
2, 188489, Note_on_c, 0, 69, 0
2, 188490, Note_on_c, 0, 71, 100
2, 188519, Note_on_c, 0, 71, 0
2, 188520, Note_on_c, 0, 72, 100
2, 188549, Note_on_c, 0, 72, 0
2, 188550, Note_on_c, 0, 71, 100
2, 188579, Note_on_c, 0, 71, 0
2, 188580, Note_on_c, 0, 69, 100
2, 188609, Note_on_c, 0, 69, 0
2, 188610, Note_on_c, 0, 67, 100
2, 188639, Note_on_c, 0, 67, 0
2, 188640, Note_on_c, 0, 66, 100
2, 188699, Note_on_c, 0, 66, 0
2, 189240, Note_on_c, 0, 76, 100
2, 189299, Note_on_c, 0, 76, 0
2, 189300, Note_on_c, 0, 74, 100
2, 189359, Note_on_c, 0, 74, 0
2, 189360, Note_on_c, 0, 72, 100
2, 189419, Note_on_c, 0, 72, 0
2, 189420, Note_on_c, 0, 74, 100
2, 189479, Note_on_c, 0, 74, 0
2, 189480, Note_on_c, 0, 76, 100
2, 189539, Note_on_c, 0, 76, 0
2, 189540, Note_on_c, 0, 72, 100
2, 189599, Note_on_c, 0, 72, 0
2, 189600, Note_on_c, 0, 77, 100
2, 189659, Note_on_c, 0, 77, 0
2, 189660, Note_on_c, 0, 76, 100
2, 189689, Note_on_c, 0, 76, 0
2, 189690, Note_on_c, 0, 74, 100
2, 189719, Note_on_c, 0, 74, 0
2, 189720, Note_on_c, 0, 72, 100
2, 189779, Note_on_c, 0, 72, 0
2, 189780, Note_on_c, 0, 77, 100
2, 189839, Note_on_c, 0, 77, 0
2, 189840, Note_on_c, 0, 74, 100
2, 189869, Note_on_c, 0, 74, 0
2, 189870, Note_on_c, 0, 72, 100
2, 189899, Note_on_c, 0, 72, 0
2, 189900, Note_on_c, 0, 74, 100
2, 189929, Note_on_c, 0, 74, 0
2, 189930, Note_on_c, 0, 76, 100
2, 189959, Note_on_c, 0, 76, 0
2, 189960, Note_on_c, 0, 77, 100
2, 189989, Note_on_c, 0, 77, 0
2, 189990, Note_on_c, 0, 76, 100
2, 190019, Note_on_c, 0, 76, 0
2, 190020, Note_on_c, 0, 74, 100
2, 190049, Note_on_c, 0, 74, 0
2, 190050, Note_on_c, 0, 72, 100
2, 190079, Note_on_c, 0, 72, 0
2, 190080, Note_on_c, 0, 71, 100
2, 190109, Note_on_c, 0, 71, 0
2, 190110, Note_on_c, 0, 69, 100
2, 190139, Note_on_c, 0, 69, 0
2, 190140, Note_on_c, 0, 71, 100
2, 190169, Note_on_c, 0, 71, 0
2, 190170, Note_on_c, 0, 72, 100
2, 190199, Note_on_c, 0, 72, 0
2, 190200, Note_on_c, 0, 74, 100
2, 190229, Note_on_c, 0, 74, 0
2, 190230, Note_on_c, 0, 76, 100
2, 190259, Note_on_c, 0, 76, 0
2, 190260, Note_on_c, 0, 77, 100
2, 190289, Note_on_c, 0, 77, 0
2, 190290, Note_on_c, 0, 74, 100
2, 190319, Note_on_c, 0, 74, 0
2, 190320, Note_on_c, 0, 76, 100
2, 190379, Note_on_c, 0, 76, 0
2, 190380, Note_on_c, 0, 72, 100
2, 190439, Note_on_c, 0, 72, 0
2, 190500, Note_on_c, 0, 76, 100
2, 190530, Note_on_c, 0, 76, 0
2, 190560, Note_on_c, 0, 77, 100
2, 190590, Note_on_c, 0, 77, 0
2, 190740, Note_on_c, 0, 77, 100
2, 190770, Note_on_c, 0, 77, 0
2, 190800, Note_on_c, 0, 79, 100
2, 190830, Note_on_c, 0, 79, 0
2, 190980, Note_on_c, 0, 79, 100
2, 191010, Note_on_c, 0, 79, 0
2, 191040, Note_on_c, 0, 81, 100
2, 191070, Note_on_c, 0, 81, 0
2, 191220, Note_on_c, 0, 81, 100
2, 191250, Note_on_c, 0, 81, 0
2, 191280, Note_on_c, 0, 83, 100
2, 191310, Note_on_c, 0, 83, 0
2, 191460, Note_on_c, 0, 83, 100
2, 191490, Note_on_c, 0, 83, 0
2, 191520, Note_on_c, 0, 84, 100
2, 191550, Note_on_c, 0, 84, 0
2, 191700, Note_on_c, 0, 84, 100
2, 191730, Note_on_c, 0, 84, 0
2, 191760, Note_on_c, 0, 86, 100
2, 191790, Note_on_c, 0, 86, 0
2, 191940, Note_on_c, 0, 74, 100
2, 191970, Note_on_c, 0, 74, 0
2, 192000, Note_on_c, 0, 76, 100
2, 192030, Note_on_c, 0, 76, 0
2, 192180, Note_on_c, 0, 76, 100
2, 192210, Note_on_c, 0, 76, 0
2, 192240, Note_on_c, 0, 78, 100
2, 192270, Note_on_c, 0, 78, 0
2, 192420, Note_on_c, 0, 79, 100
2, 192450, Note_on_c, 0, 79, 0
2, 192480, Note_on_c, 0, 76, 100
2, 192510, Note_on_c, 0, 76, 0
2, 192660, Note_on_c, 0, 78, 100
2, 192690, Note_on_c, 0, 78, 0
2, 192720, Note_on_c, 0, 74, 100
2, 192750, Note_on_c, 0, 74, 0
2, 192900, Note_on_c, 0, 76, 100
2, 192930, Note_on_c, 0, 76, 0
2, 192960, Note_on_c, 0, 74, 100
2, 192990, Note_on_c, 0, 74, 0
2, 193140, Note_on_c, 0, 74, 100
2, 193170, Note_on_c, 0, 74, 0
2, 193200, Note_on_c, 0, 76, 100
2, 193230, Note_on_c, 0, 76, 0
2, 193380, Note_on_c, 0, 81, 100
2, 193410, Note_on_c, 0, 81, 0
2, 193440, Note_on_c, 0, 74, 100
2, 193470, Note_on_c, 0, 74, 0
2, 193620, Note_on_c, 0, 79, 100
2, 193650, Note_on_c, 0, 79, 0
2, 193680, Note_on_c, 0, 81, 100
2, 193710, Note_on_c, 0, 81, 0
2, 193860, Note_on_c, 0, 83, 100
2, 193890, Note_on_c, 0, 83, 0
2, 193920, Note_on_c, 0, 83, 100
2, 193950, Note_on_c, 0, 83, 0
2, 194100, Note_on_c, 0, 84, 100
2, 194159, Note_on_c, 0, 84, 0
2, 194160, Note_on_c, 0, 83, 100
2, 194279, Note_on_c, 0, 83, 0
2, 194460, Note_on_c, 0, 71, 100
2, 194519, Note_on_c, 0, 71, 0
2, 194520, Note_on_c, 0, 72, 100
2, 194579, Note_on_c, 0, 72, 0
2, 194580, Note_on_c, 0, 76, 100
2, 194639, Note_on_c, 0, 76, 0
2, 194700, Note_on_c, 0, 69, 100
2, 194759, Note_on_c, 0, 69, 0
2, 194760, Note_on_c, 0, 71, 100
2, 194819, Note_on_c, 0, 71, 0
2, 194820, Note_on_c, 0, 74, 100
2, 194879, Note_on_c, 0, 74, 0
2, 194940, Note_on_c, 0, 67, 100
2, 194999, Note_on_c, 0, 67, 0
2, 195000, Note_on_c, 0, 69, 100
2, 195059, Note_on_c, 0, 69, 0
2, 195060, Note_on_c, 0, 72, 100
2, 195119, Note_on_c, 0, 72, 0
2, 195180, Note_on_c, 0, 72, 100
2, 195239, Note_on_c, 0, 72, 0
2, 195240, Note_on_c, 0, 71, 100
2, 195299, Note_on_c, 0, 71, 0
2, 195300, Note_on_c, 0, 74, 100
2, 195359, Note_on_c, 0, 74, 0
2, 195360, Note_on_c, 0, 79, 100
2, 195419, Note_on_c, 0, 79, 0
2, 195420, Note_on_c, 0, 71, 100
2, 195479, Note_on_c, 0, 71, 0
2, 195480, Note_on_c, 0, 72, 100
2, 195539, Note_on_c, 0, 72, 0
2, 195540, Note_on_c, 0, 76, 100
2, 195599, Note_on_c, 0, 76, 0
2, 195600, Note_on_c, 0, 74, 100
2, 195659, Note_on_c, 0, 74, 0
2, 195660, Note_on_c, 0, 66, 100
2, 195719, Note_on_c, 0, 66, 0
2, 195720, Note_on_c, 0, 67, 100
2, 195779, Note_on_c, 0, 67, 0
2, 195780, Note_on_c, 0, 71, 100
2, 195839, Note_on_c, 0, 71, 0
2, 195840, Note_on_c, 0, 76, 100
2, 195899, Note_on_c, 0, 76, 0
2, 195900, Note_on_c, 0, 67, 100
2, 195959, Note_on_c, 0, 67, 0
2, 195960, Note_on_c, 0, 72, 100
2, 196019, Note_on_c, 0, 72, 0
2, 196020, Note_on_c, 0, 78, 100
2, 196079, Note_on_c, 0, 78, 0
2, 196080, Note_on_c, 0, 79, 100
2, 196199, Note_on_c, 0, 79, 0
2, 196440, Note_on_c, 0, 76, 100
2, 196499, Note_on_c, 0, 76, 0
2, 196500, Note_on_c, 0, 74, 100
2, 196559, Note_on_c, 0, 74, 0
2, 196560, Note_on_c, 0, 72, 100
2, 196619, Note_on_c, 0, 72, 0
2, 196620, Note_on_c, 0, 74, 100
2, 196679, Note_on_c, 0, 74, 0
2, 196680, Note_on_c, 0, 76, 100
2, 196739, Note_on_c, 0, 76, 0
2, 196740, Note_on_c, 0, 72, 100
2, 196799, Note_on_c, 0, 72, 0
2, 196800, Note_on_c, 0, 74, 100
2, 196859, Note_on_c, 0, 74, 0
2, 196860, Note_on_c, 0, 72, 100
2, 196889, Note_on_c, 0, 72, 0
2, 196890, Note_on_c, 0, 71, 100
2, 196919, Note_on_c, 0, 71, 0
2, 196920, Note_on_c, 0, 69, 100
2, 196979, Note_on_c, 0, 69, 0
2, 196980, Note_on_c, 0, 74, 100
2, 197039, Note_on_c, 0, 74, 0
2, 197040, Note_on_c, 0, 71, 100
2, 197069, Note_on_c, 0, 71, 0
2, 197070, Note_on_c, 0, 69, 100
2, 197099, Note_on_c, 0, 69, 0
2, 197100, Note_on_c, 0, 71, 100
2, 197129, Note_on_c, 0, 71, 0
2, 197130, Note_on_c, 0, 72, 100
2, 197159, Note_on_c, 0, 72, 0
2, 197160, Note_on_c, 0, 74, 100
2, 197189, Note_on_c, 0, 74, 0
2, 197190, Note_on_c, 0, 72, 100
2, 197219, Note_on_c, 0, 72, 0
2, 197220, Note_on_c, 0, 71, 100
2, 197249, Note_on_c, 0, 71, 0
2, 197250, Note_on_c, 0, 69, 100
2, 197279, Note_on_c, 0, 69, 0
2, 197280, Note_on_c, 0, 67, 100
2, 197880, Note_on_c, 0, 67, 0
2, 197880, Note_on_c, 0, 66, 100
2, 198000, Note_on_c, 0, 66, 0
2, 198000, Note_on_c, 0, 67, 100
2, 198240, Note_on_c, 0, 67, 0
2, 203160, Note_on_c, 0, 83, 100
2, 203279, Note_on_c, 0, 83, 0
2, 203280, Note_on_c, 0, 81, 100
2, 203339, Note_on_c, 0, 81, 0
2, 203340, Note_on_c, 0, 81, 100
2, 203459, Note_on_c, 0, 81, 0
2, 203460, Note_on_c, 0, 79, 100
2, 203519, Note_on_c, 0, 79, 0
2, 203520, Note_on_c, 0, 79, 100
2, 203609, Note_on_c, 0, 79, 0
2, 203610, Note_on_c, 0, 88, 100
2, 203639, Note_on_c, 0, 88, 0
2, 203640, Note_on_c, 0, 86, 100
2, 203790, Note_on_c, 0, 86, 0
2, 203790, Note_on_c, 0, 79, 100
2, 203819, Note_on_c, 0, 79, 0
2, 203820, Note_on_c, 0, 78, 100
2, 203879, Note_on_c, 0, 78, 0
2, 203880, Note_on_c, 0, 79, 100
2, 203969, Note_on_c, 0, 79, 0
2, 203970, Note_on_c, 0, 88, 100
2, 203999, Note_on_c, 0, 88, 0
2, 204000, Note_on_c, 0, 86, 100
2, 204150, Note_on_c, 0, 86, 0
2, 204150, Note_on_c, 0, 79, 100
2, 204179, Note_on_c, 0, 79, 0
2, 204180, Note_on_c, 0, 78, 100
2, 204239, Note_on_c, 0, 78, 0
2, 204240, Note_on_c, 0, 79, 100
2, 204419, Note_on_c, 0, 79, 0
2, 205680, Note_on_c, 0, 79, 100
2, 205799, Note_on_c, 0, 79, 0
2, 205800, Note_on_c, 0, 78, 100
2, 205859, Note_on_c, 0, 78, 0
2, 205860, Note_on_c, 0, 78, 100
2, 205979, Note_on_c, 0, 78, 0
2, 205980, Note_on_c, 0, 76, 100
2, 206039, Note_on_c, 0, 76, 0
2, 206040, Note_on_c, 0, 76, 100
2, 206129, Note_on_c, 0, 76, 0
2, 206130, Note_on_c, 0, 84, 100
2, 206159, Note_on_c, 0, 84, 0
2, 206160, Note_on_c, 0, 83, 100
2, 206309, Note_on_c, 0, 83, 0
2, 206310, Note_on_c, 0, 76, 100
2, 206339, Note_on_c, 0, 76, 0
2, 206340, Note_on_c, 0, 75, 100
2, 206399, Note_on_c, 0, 75, 0
2, 206400, Note_on_c, 0, 76, 100
2, 206489, Note_on_c, 0, 76, 0
2, 206490, Note_on_c, 0, 84, 100
2, 206519, Note_on_c, 0, 84, 0
2, 206520, Note_on_c, 0, 83, 100
2, 206669, Note_on_c, 0, 83, 0
2, 206670, Note_on_c, 0, 76, 100
2, 206699, Note_on_c, 0, 76, 0
2, 206700, Note_on_c, 0, 75, 100
2, 206759, Note_on_c, 0, 75, 0
2, 206760, Note_on_c, 0, 76, 100
2, 206939, Note_on_c, 0, 76, 0
2, 208200, Note_on_c, 0, 78, 100
2, 208319, Note_on_c, 0, 78, 0
2, 208320, Note_on_c, 0, 76, 100
2, 208379, Note_on_c, 0, 76, 0
2, 208380, Note_on_c, 0, 76, 100
2, 208499, Note_on_c, 0, 76, 0
2, 208500, Note_on_c, 0, 74, 100
2, 208559, Note_on_c, 0, 74, 0
2, 208560, Note_on_c, 0, 74, 100
2, 208649, Note_on_c, 0, 74, 0
2, 208650, Note_on_c, 0, 83, 100
2, 208679, Note_on_c, 0, 83, 0
2, 208680, Note_on_c, 0, 81, 100
2, 208829, Note_on_c, 0, 81, 0
2, 208830, Note_on_c, 0, 74, 100
2, 208859, Note_on_c, 0, 74, 0
2, 208860, Note_on_c, 0, 73, 100
2, 208919, Note_on_c, 0, 73, 0
2, 208920, Note_on_c, 0, 74, 100
2, 209009, Note_on_c, 0, 74, 0
2, 209010, Note_on_c, 0, 83, 100
2, 209039, Note_on_c, 0, 83, 0
2, 209040, Note_on_c, 0, 81, 100
2, 209189, Note_on_c, 0, 81, 0
2, 209190, Note_on_c, 0, 74, 100
2, 209219, Note_on_c, 0, 74, 0
2, 209220, Note_on_c, 0, 73, 100
2, 209279, Note_on_c, 0, 73, 0
2, 209280, Note_on_c, 0, 74, 100
2, 209459, Note_on_c, 0, 74, 0
2, 210720, Note_on_c, 0, 83, 100
2, 210839, Note_on_c, 0, 83, 0
2, 210840, Note_on_c, 0, 81, 100
2, 210899, Note_on_c, 0, 81, 0
2, 210900, Note_on_c, 0, 81, 100
2, 211019, Note_on_c, 0, 81, 0
2, 211020, Note_on_c, 0, 79, 100
2, 211079, Note_on_c, 0, 79, 0
2, 211080, Note_on_c, 0, 79, 100
2, 211169, Note_on_c, 0, 79, 0
2, 211170, Note_on_c, 0, 88, 100
2, 211199, Note_on_c, 0, 88, 0
2, 211200, Note_on_c, 0, 86, 100
2, 211349, Note_on_c, 0, 86, 0
2, 211350, Note_on_c, 0, 79, 100
2, 211379, Note_on_c, 0, 79, 0
2, 211380, Note_on_c, 0, 78, 100
2, 211439, Note_on_c, 0, 78, 0
2, 211440, Note_on_c, 0, 79, 100
2, 211529, Note_on_c, 0, 79, 0
2, 211530, Note_on_c, 0, 88, 100
2, 211559, Note_on_c, 0, 88, 0
2, 211560, Note_on_c, 0, 86, 100
2, 211709, Note_on_c, 0, 86, 0
2, 211710, Note_on_c, 0, 79, 100
2, 211739, Note_on_c, 0, 79, 0
2, 211740, Note_on_c, 0, 78, 100
2, 211799, Note_on_c, 0, 78, 0
2, 211800, Note_on_c, 0, 79, 100
2, 211980, Note_on_c, 0, 79, 0
2, 211980, End_track
3, 0, Start_track
3, 0, MIDI_port, 0
3, 0, Title_t, "Flauta II"
3, 0, Program_c, 1, 73
3, 0, Control_c, 1, 7, 127
3, 0, Control_c, 1, 10, 85
3, 360, Note_on_c, 1, 71, 110
3, 450, Note_on_c, 1, 71, 0
3, 450, Note_on_c, 1, 74, 110
3, 480, Note_on_c, 1, 74, 0
3, 480, Note_on_c, 1, 79, 110
3, 540, Note_on_c, 1, 79, 0
3, 540, Note_on_c, 1, 79, 110
3, 630, Note_on_c, 1, 79, 0
3, 630, Note_on_c, 1, 78, 110
3, 660, Note_on_c, 1, 78, 0
3, 660, Note_on_c, 1, 79, 110
3, 720, Note_on_c, 1, 79, 0
3, 720, Note_on_c, 1, 69, 110
3, 900, Note_on_c, 1, 69, 0
3, 1020, Note_on_c, 1, 69, 110
3, 1170, Note_on_c, 1, 69, 0
3, 1170, Note_on_c, 1, 71, 110
3, 1200, Note_on_c, 1, 71, 0
3, 1200, Note_on_c, 1, 69, 110
3, 1260, Note_on_c, 1, 69, 0
3, 1260, Note_on_c, 1, 67, 110
3, 1350, Note_on_c, 1, 67, 0
3, 1350, Note_on_c, 1, 71, 110
3, 1380, Note_on_c, 1, 71, 0
3, 1380, Note_on_c, 1, 74, 110
3, 1440, Note_on_c, 1, 74, 0
3, 1440, Note_on_c, 1, 74, 110
3, 1500, Note_on_c, 1, 74, 0
3, 1500, Note_on_c, 1, 76, 110
3, 1510, Note_on_c, 1, 76, 0
3, 1510, Note_on_c, 1, 74, 110
3, 1520, Note_on_c, 1, 74, 0
3, 1520, Note_on_c, 1, 76, 110
3, 1530, Note_on_c, 1, 76, 0
3, 1530, Note_on_c, 1, 74, 110
3, 1540, Note_on_c, 1, 74, 0
3, 1540, Note_on_c, 1, 76, 110
3, 1550, Note_on_c, 1, 76, 0
3, 1550, Note_on_c, 1, 74, 110
3, 1560, Note_on_c, 1, 74, 0
3, 1560, Note_on_c, 1, 72, 110
3, 1620, Note_on_c, 1, 72, 0
3, 1740, Note_on_c, 1, 72, 110
3, 1800, Note_on_c, 1, 72, 0
3, 1800, Note_on_c, 1, 72, 110
3, 1860, Note_on_c, 1, 72, 0
3, 1860, Note_on_c, 1, 74, 110
3, 1870, Note_on_c, 1, 74, 0
3, 1870, Note_on_c, 1, 72, 110
3, 1880, Note_on_c, 1, 72, 0
3, 1880, Note_on_c, 1, 74, 110
3, 1890, Note_on_c, 1, 74, 0
3, 1890, Note_on_c, 1, 72, 110
3, 1900, Note_on_c, 1, 72, 0
3, 1900, Note_on_c, 1, 74, 110
3, 1910, Note_on_c, 1, 74, 0
3, 1910, Note_on_c, 1, 72, 110
3, 1920, Note_on_c, 1, 72, 0
3, 1920, Note_on_c, 1, 71, 110
3, 1980, Note_on_c, 1, 71, 0
3, 2100, Note_on_c, 1, 71, 110
3, 2250, Note_on_c, 1, 71, 0
3, 2250, Note_on_c, 1, 72, 110
3, 2280, Note_on_c, 1, 72, 0
3, 2280, Note_on_c, 1, 69, 110
3, 2430, Note_on_c, 1, 69, 0
3, 2430, Note_on_c, 1, 71, 110
3, 2460, Note_on_c, 1, 71, 0
3, 2460, Note_on_c, 1, 67, 110
3, 2520, Note_on_c, 1, 67, 0
3, 2520, Note_on_c, 1, 69, 110
3, 2530, Note_on_c, 1, 69, 0
3, 2530, Note_on_c, 1, 67, 110
3, 2540, Note_on_c, 1, 67, 0
3, 2540, Note_on_c, 1, 69, 110
3, 2550, Note_on_c, 1, 69, 0
3, 2550, Note_on_c, 1, 67, 110
3, 2560, Note_on_c, 1, 67, 0
3, 2560, Note_on_c, 1, 69, 110
3, 2570, Note_on_c, 1, 69, 0
3, 2570, Note_on_c, 1, 67, 110
3, 2580, Note_on_c, 1, 67, 0
3, 2580, Note_on_c, 1, 69, 110
3, 2590, Note_on_c, 1, 69, 0
3, 2590, Note_on_c, 1, 67, 110
3, 2600, Note_on_c, 1, 67, 0
3, 2600, Note_on_c, 1, 69, 110
3, 2610, Note_on_c, 1, 69, 0
3, 2610, Note_on_c, 1, 67, 110
3, 2620, Note_on_c, 1, 67, 0
3, 2620, Note_on_c, 1, 69, 110
3, 2630, Note_on_c, 1, 69, 0
3, 2630, Note_on_c, 1, 67, 110
3, 2640, Note_on_c, 1, 67, 0
3, 2640, Note_on_c, 1, 66, 110
3, 2700, Note_on_c, 1, 66, 0
3, 2820, Note_on_c, 1, 66, 110
3, 2880, Note_on_c, 1, 66, 0
3, 2880, Note_on_c, 1, 62, 110
3, 3000, Note_on_c, 1, 62, 0
3, 3000, Note_on_c, 1, 67, 110
3, 3060, Note_on_c, 1, 67, 0
3, 3060, Note_on_c, 1, 71, 110
3, 3360, Note_on_c, 1, 71, 0
3, 3360, Note_on_c, 1, 64, 110
3, 3420, Note_on_c, 1, 64, 0
3, 3540, Note_on_c, 1, 68, 110
3, 3600, Note_on_c, 1, 68, 0
3, 3600, Note_on_c, 1, 64, 110
3, 3720, Note_on_c, 1, 64, 0
3, 3720, Note_on_c, 1, 69, 110
3, 3780, Note_on_c, 1, 69, 0
3, 3780, Note_on_c, 1, 79, 110
3, 4080, Note_on_c, 1, 79, 0
3, 4080, Note_on_c, 1, 83, 110
3, 4140, Note_on_c, 1, 83, 0
3, 4140, Note_on_c, 1, 76, 110
3, 4260, Note_on_c, 1, 76, 0
3, 4260, Note_on_c, 1, 74, 110
3, 4320, Note_on_c, 1, 74, 0
3, 4320, Note_on_c, 1, 73, 110
3, 4440, Note_on_c, 1, 73, 0
3, 4440, Note_on_c, 1, 76, 110
3, 4500, Note_on_c, 1, 76, 0
3, 4500, Note_on_c, 1, 81, 110
3, 4800, Note_on_c, 1, 81, 0
3, 4800, Note_on_c, 1, 74, 110
3, 4860, Note_on_c, 1, 74, 0
3, 4860, Note_on_c, 1, 74, 110
3, 4980, Note_on_c, 1, 74, 0
3, 4980, Note_on_c, 1, 73, 110
3, 5040, Note_on_c, 1, 73, 0
3, 5040, Note_on_c, 1, 74, 110
3, 5130, Note_on_c, 1, 74, 0
3, 5130, Note_on_c, 1, 62, 110
3, 5160, Note_on_c, 1, 62, 0
3, 5160, Note_on_c, 1, 71, 110
3, 5220, Note_on_c, 1, 71, 0
3, 5220, Note_on_c, 1, 69, 110
3, 5310, Note_on_c, 1, 69, 0
3, 5310, Note_on_c, 1, 71, 110
3, 5340, Note_on_c, 1, 71, 0
3, 5340, Note_on_c, 1, 67, 110
3, 5400, Note_on_c, 1, 67, 0
3, 5400, Note_on_c, 1, 69, 110
3, 5490, Note_on_c, 1, 69, 0
3, 5490, Note_on_c, 1, 62, 110
3, 5520, Note_on_c, 1, 62, 0
3, 5520, Note_on_c, 1, 67, 110
3, 5580, Note_on_c, 1, 67, 0
3, 5580, Note_on_c, 1, 66, 110
3, 5670, Note_on_c, 1, 66, 0
3, 5670, Note_on_c, 1, 67, 110
3, 5700, Note_on_c, 1, 67, 0
3, 5700, Note_on_c, 1, 64, 110
3, 5760, Note_on_c, 1, 64, 0
3, 5760, Note_on_c, 1, 62, 110
3, 6060, Note_on_c, 1, 62, 0
3, 7200, Note_on_c, 1, 71, 110
3, 7290, Note_on_c, 1, 71, 0
3, 7290, Note_on_c, 1, 74, 110
3, 7320, Note_on_c, 1, 74, 0
3, 7320, Note_on_c, 1, 79, 110
3, 7380, Note_on_c, 1, 79, 0
3, 7380, Note_on_c, 1, 79, 110
3, 7470, Note_on_c, 1, 79, 0
3, 7470, Note_on_c, 1, 78, 110
3, 7500, Note_on_c, 1, 78, 0
3, 7500, Note_on_c, 1, 79, 110
3, 7560, Note_on_c, 1, 79, 0
3, 7560, Note_on_c, 1, 67, 110
3, 7680, Note_on_c, 1, 67, 0
3, 8640, Note_on_c, 1, 71, 110
3, 8730, Note_on_c, 1, 71, 0
3, 8730, Note_on_c, 1, 74, 110
3, 8760, Note_on_c, 1, 74, 0
3, 8760, Note_on_c, 1, 77, 110
3, 8820, Note_on_c, 1, 77, 0
3, 8820, Note_on_c, 1, 77, 110
3, 8910, Note_on_c, 1, 77, 0
3, 8910, Note_on_c, 1, 76, 110
3, 8940, Note_on_c, 1, 76, 0
3, 8940, Note_on_c, 1, 77, 110
3, 9000, Note_on_c, 1, 77, 0
3, 9000, Note_on_c, 1, 76, 110
3, 9120, Note_on_c, 1, 76, 0
3, 10200, Note_on_c, 1, 64, 110
3, 10260, Note_on_c, 1, 64, 0
3, 10260, Note_on_c, 1, 72, 110
3, 10560, Note_on_c, 1, 72, 0
3, 10560, Note_on_c, 1, 71, 110
3, 10620, Note_on_c, 1, 71, 0
3, 10740, Note_on_c, 1, 71, 110
3, 10890, Note_on_c, 1, 71, 0
3, 10890, Note_on_c, 1, 72, 110
3, 10920, Note_on_c, 1, 72, 0
3, 10920, Note_on_c, 1, 69, 110
3, 11070, Note_on_c, 1, 69, 0
3, 11070, Note_on_c, 1, 71, 110
3, 11100, Note_on_c, 1, 71, 0
3, 11100, Note_on_c, 1, 67, 110
3, 11160, Note_on_c, 1, 67, 0
3, 11160, Note_on_c, 1, 69, 110
3, 11170, Note_on_c, 1, 69, 0
3, 11170, Note_on_c, 1, 67, 110
3, 11180, Note_on_c, 1, 67, 0
3, 11180, Note_on_c, 1, 69, 110
3, 11190, Note_on_c, 1, 69, 0
3, 11190, Note_on_c, 1, 67, 110
3, 11200, Note_on_c, 1, 67, 0
3, 11200, Note_on_c, 1, 69, 110
3, 11210, Note_on_c, 1, 69, 0
3, 11210, Note_on_c, 1, 67, 110
3, 11220, Note_on_c, 1, 67, 0
3, 11220, Note_on_c, 1, 69, 110
3, 11230, Note_on_c, 1, 69, 0
3, 11230, Note_on_c, 1, 67, 110
3, 11240, Note_on_c, 1, 67, 0
3, 11240, Note_on_c, 1, 69, 110
3, 11250, Note_on_c, 1, 69, 0
3, 11250, Note_on_c, 1, 67, 110
3, 11260, Note_on_c, 1, 67, 0
3, 11260, Note_on_c, 1, 69, 110
3, 11270, Note_on_c, 1, 69, 0
3, 11270, Note_on_c, 1, 67, 110
3, 11280, Note_on_c, 1, 67, 0
3, 11280, Note_on_c, 1, 66, 110
3, 11340, Note_on_c, 1, 66, 0
3, 12000, Note_on_c, 1, 69, 110
3, 12150, Note_on_c, 1, 69, 0
3, 12150, Note_on_c, 1, 68, 110
3, 12180, Note_on_c, 1, 68, 0
3, 12180, Note_on_c, 1, 74, 110
3, 12300, Note_on_c, 1, 74, 0
3, 12300, Note_on_c, 1, 72, 110
3, 12360, Note_on_c, 1, 72, 0
3, 12360, Note_on_c, 1, 71, 110
3, 12420, Note_on_c, 1, 71, 0
3, 12420, Note_on_c, 1, 69, 110
3, 12480, Note_on_c, 1, 69, 0
3, 12480, Note_on_c, 1, 66, 110
3, 12540, Note_on_c, 1, 66, 0
3, 12540, Note_on_c, 1, 75, 110
3, 12600, Note_on_c, 1, 75, 0
3, 12600, Note_on_c, 1, 76, 110
3, 12720, Note_on_c, 1, 76, 0
3, 13320, Note_on_c, 1, 67, 110
3, 13410, Note_on_c, 1, 67, 0
3, 13410, Note_on_c, 1, 71, 110
3, 13440, Note_on_c, 1, 71, 0
3, 13440, Note_on_c, 1, 76, 110
3, 13500, Note_on_c, 1, 76, 0
3, 13500, Note_on_c, 1, 76, 110
3, 13590, Note_on_c, 1, 76, 0
3, 13590, Note_on_c, 1, 75, 110
3, 13620, Note_on_c, 1, 75, 0
3, 13620, Note_on_c, 1, 76, 110
3, 13680, Note_on_c, 1, 76, 0
3, 13680, Note_on_c, 1, 64, 110
3, 13800, Note_on_c, 1, 64, 0
3, 14040, Note_on_c, 1, 81, 110
3, 14160, Note_on_c, 1, 81, 0
3, 14160, Note_on_c, 1, 79, 110
3, 14220, Note_on_c, 1, 79, 0
3, 14220, Note_on_c, 1, 79, 110
3, 14340, Note_on_c, 1, 79, 0
3, 14340, Note_on_c, 1, 78, 110
3, 14400, Note_on_c, 1, 78, 0
3, 14400, Note_on_c, 1, 79, 110
3, 14520, Note_on_c, 1, 79, 0
3, 14520, Note_on_c, 1, 76, 110
3, 14580, Note_on_c, 1, 76, 0
3, 14580, Note_on_c, 1, 71, 110
3, 14700, Note_on_c, 1, 71, 0
3, 14700, Note_on_c, 1, 76, 110
3, 14760, Note_on_c, 1, 76, 0
3, 14760, Note_on_c, 1, 76, 110
3, 15030, Note_on_c, 1, 76, 0
3, 15030, Note_on_c, 1, 75, 110
3, 15060, Note_on_c, 1, 75, 0
3, 15060, Note_on_c, 1, 73, 110
3, 15120, Note_on_c, 1, 73, 0
3, 15120, Note_on_c, 1, 75, 110
3, 15240, Note_on_c, 1, 75, 0
3, 15240, Note_on_c, 1, 78, 110
3, 15300, Note_on_c, 1, 78, 0
3, 15300, Note_on_c, 1, 71, 110
3, 15570, Note_on_c, 1, 71, 0
3, 15570, Note_on_c, 1, 69, 110
3, 15600, Note_on_c, 1, 69, 0
3, 15600, Note_on_c, 1, 67, 110
3, 15660, Note_on_c, 1, 67, 0
3, 15660, Note_on_c, 1, 69, 110
3, 15750, Note_on_c, 1, 69, 0
3, 15750, Note_on_c, 1, 67, 110
3, 15780, Note_on_c, 1, 67, 0
3, 15780, Note_on_c, 1, 66, 110
3, 15840, Note_on_c, 1, 66, 0
3, 15840, Note_on_c, 1, 67, 110
3, 15930, Note_on_c, 1, 67, 0
3, 15930, Note_on_c, 1, 71, 110
3, 15960, Note_on_c, 1, 71, 0
3, 15960, Note_on_c, 1, 76, 110
3, 16020, Note_on_c, 1, 76, 0
3, 16020, Note_on_c, 1, 76, 110
3, 16110, Note_on_c, 1, 76, 0
3, 16110, Note_on_c, 1, 75, 110
3, 16140, Note_on_c, 1, 75, 0
3, 16140, Note_on_c, 1, 76, 110
3, 16200, Note_on_c, 1, 76, 0
3, 16200, Note_on_c, 1, 64, 110
3, 16380, Note_on_c, 1, 64, 0
3, 16500, Note_on_c, 1, 64, 110
3, 16650, Note_on_c, 1, 64, 0
3, 16650, Note_on_c, 1, 66, 110
3, 16680, Note_on_c, 1, 66, 0
3, 16680, Note_on_c, 1, 64, 110
3, 16740, Note_on_c, 1, 64, 0
3, 16740, Note_on_c, 1, 63, 110
3, 16830, Note_on_c, 1, 63, 0
3, 16830, Note_on_c, 1, 66, 110
3, 16860, Note_on_c, 1, 66, 0
3, 16860, Note_on_c, 1, 69, 110
3, 16920, Note_on_c, 1, 69, 0
3, 16920, Note_on_c, 1, 67, 110
3, 17100, Note_on_c, 1, 67, 0
3, 17220, Note_on_c, 1, 67, 110
3, 17370, Note_on_c, 1, 67, 0
3, 17370, Note_on_c, 1, 69, 110
3, 17400, Note_on_c, 1, 69, 0
3, 17400, Note_on_c, 1, 67, 110
3, 17460, Note_on_c, 1, 67, 0
3, 17460, Note_on_c, 1, 66, 110
3, 17550, Note_on_c, 1, 66, 0
3, 17550, Note_on_c, 1, 69, 110
3, 17580, Note_on_c, 1, 69, 0
3, 17580, Note_on_c, 1, 72, 110
3, 17640, Note_on_c, 1, 72, 0
3, 17640, Note_on_c, 1, 71, 110
3, 17820, Note_on_c, 1, 71, 0
3, 17940, Note_on_c, 1, 71, 110
3, 18090, Note_on_c, 1, 71, 0
3, 18090, Note_on_c, 1, 73, 110
3, 18120, Note_on_c, 1, 73, 0
3, 18120, Note_on_c, 1, 71, 110
3, 18180, Note_on_c, 1, 71, 0
3, 18180, Note_on_c, 1, 69, 110
3, 18270, Note_on_c, 1, 69, 0
3, 18270, Note_on_c, 1, 73, 110
3, 18300, Note_on_c, 1, 73, 0
3, 18300, Note_on_c, 1, 76, 110
3, 18360, Note_on_c, 1, 76, 0
3, 18360, Note_on_c, 1, 76, 110
3, 18480, Note_on_c, 1, 76, 0
3, 18480, Note_on_c, 1, 73, 110
3, 18540, Note_on_c, 1, 73, 0
3, 18540, Note_on_c, 1, 74, 110
3, 18660, Note_on_c, 1, 74, 0
3, 18660, Note_on_c, 1, 76, 110
3, 18720, Note_on_c, 1, 76, 0
3, 18720, Note_on_c, 1, 69, 110
3, 18840, Note_on_c, 1, 69, 0
3, 18840, Note_on_c, 1, 74, 110
3, 18900, Note_on_c, 1, 74, 0
3, 18900, Note_on_c, 1, 74, 110
3, 19020, Note_on_c, 1, 74, 0
3, 19020, Note_on_c, 1, 73, 110
3, 19080, Note_on_c, 1, 73, 0
3, 19080, Note_on_c, 1, 74, 110
3, 19170, Note_on_c, 1, 74, 0
3, 19170, Note_on_c, 1, 62, 110
3, 19200, Note_on_c, 1, 62, 0
3, 19200, Note_on_c, 1, 67, 110
3, 19260, Note_on_c, 1, 67, 0
3, 19260, Note_on_c, 1, 66, 110
3, 19350, Note_on_c, 1, 66, 0
3, 19350, Note_on_c, 1, 67, 110
3, 19380, Note_on_c, 1, 67, 0
3, 19380, Note_on_c, 1, 64, 110
3, 19440, Note_on_c, 1, 64, 0
3, 19440, Note_on_c, 1, 62, 110
3, 19560, Note_on_c, 1, 62, 0
3, 20520, Note_on_c, 1, 78, 110
3, 20610, Note_on_c, 1, 78, 0
3, 20610, Note_on_c, 1, 81, 110
3, 20640, Note_on_c, 1, 81, 0
3, 20640, Note_on_c, 1, 86, 110
3, 20700, Note_on_c, 1, 86, 0
3, 20700, Note_on_c, 1, 86, 110
3, 20790, Note_on_c, 1, 86, 0
3, 20790, Note_on_c, 1, 85, 110
3, 20820, Note_on_c, 1, 85, 0
3, 20820, Note_on_c, 1, 86, 110
3, 20880, Note_on_c, 1, 86, 0
3, 20880, Note_on_c, 1, 74, 110
3, 21000, Note_on_c, 1, 74, 0
3, 22080, Note_on_c, 1, 62, 110
3, 22140, Note_on_c, 1, 62, 0
3, 22140, Note_on_c, 1, 71, 110
3, 22440, Note_on_c, 1, 71, 0
3, 22440, Note_on_c, 1, 69, 110
3, 22500, Note_on_c, 1, 69, 0
3, 22620, Note_on_c, 1, 69, 110
3, 22680, Note_on_c, 1, 69, 0
3, 22680, Note_on_c, 1, 71, 110
3, 22695, Note_on_c, 1, 71, 0
3, 22695, Note_on_c, 1, 69, 110
3, 22710, Note_on_c, 1, 69, 0
3, 22710, Note_on_c, 1, 71, 110
3, 22725, Note_on_c, 1, 71, 0
3, 22725, Note_on_c, 1, 69, 110
3, 22740, Note_on_c, 1, 69, 0
3, 22740, Note_on_c, 1, 71, 110
3, 22750, Note_on_c, 1, 71, 0
3, 22750, Note_on_c, 1, 69, 110
3, 22760, Note_on_c, 1, 69, 0
3, 22760, Note_on_c, 1, 71, 110
3, 22770, Note_on_c, 1, 71, 0
3, 22770, Note_on_c, 1, 69, 110
3, 22780, Note_on_c, 1, 69, 0
3, 22780, Note_on_c, 1, 67, 110
3, 22790, Note_on_c, 1, 67, 0
3, 22790, Note_on_c, 1, 69, 110
3, 22800, Note_on_c, 1, 69, 0
3, 22800, Note_on_c, 1, 67, 110
3, 22860, Note_on_c, 1, 67, 0
3, 22980, Note_on_c, 1, 67, 110
3, 23040, Note_on_c, 1, 67, 0
3, 23040, Note_on_c, 1, 67, 110
3, 23055, Note_on_c, 1, 67, 0
3, 23055, Note_on_c, 1, 69, 110
3, 23070, Note_on_c, 1, 69, 0
3, 23070, Note_on_c, 1, 67, 110
3, 23085, Note_on_c, 1, 67, 0
3, 23085, Note_on_c, 1, 69, 110
3, 23100, Note_on_c, 1, 69, 0
3, 23100, Note_on_c, 1, 67, 110
3, 23110, Note_on_c, 1, 67, 0
3, 23110, Note_on_c, 1, 69, 110
3, 23120, Note_on_c, 1, 69, 0
3, 23120, Note_on_c, 1, 67, 110
3, 23130, Note_on_c, 1, 67, 0
3, 23130, Note_on_c, 1, 69, 110
3, 23145, Note_on_c, 1, 69, 0
3, 23145, Note_on_c, 1, 67, 110
3, 23160, Note_on_c, 1, 67, 0
3, 23160, Note_on_c, 1, 66, 110
3, 23220, Note_on_c, 1, 66, 0
3, 24060, Note_on_c, 1, 77, 110
3, 24120, Note_on_c, 1, 77, 0
3, 24120, Note_on_c, 1, 76, 110
3, 24180, Note_on_c, 1, 76, 0
3, 24180, Note_on_c, 1, 69, 110
3, 24240, Note_on_c, 1, 69, 0
3, 24240, Note_on_c, 1, 68, 110
3, 24300, Note_on_c, 1, 68, 0
3, 24300, Note_on_c, 1, 69, 110
3, 24420, Note_on_c, 1, 69, 0
3, 26280, Note_on_c, 1, 74, 110
3, 26370, Note_on_c, 1, 74, 0
3, 26370, Note_on_c, 1, 78, 110
3, 26400, Note_on_c, 1, 78, 0
3, 26400, Note_on_c, 1, 83, 110
3, 26460, Note_on_c, 1, 83, 0
3, 26460, Note_on_c, 1, 83, 110
3, 26550, Note_on_c, 1, 83, 0
3, 26550, Note_on_c, 1, 82, 110
3, 26580, Note_on_c, 1, 82, 0
3, 26580, Note_on_c, 1, 83, 110
3, 26640, Note_on_c, 1, 83, 0
3, 26640, Note_on_c, 1, 71, 110
3, 26760, Note_on_c, 1, 71, 0
3, 27000, Note_on_c, 1, 76, 100
3, 27119, Note_on_c, 1, 76, 0
3, 27120, Note_on_c, 1, 74, 100
3, 27179, Note_on_c, 1, 74, 0
3, 27180, Note_on_c, 1, 74, 100
3, 27299, Note_on_c, 1, 74, 0
3, 27300, Note_on_c, 1, 73, 100
3, 27359, Note_on_c, 1, 73, 0
3, 27360, Note_on_c, 1, 74, 100
3, 27479, Note_on_c, 1, 74, 0
3, 27480, Note_on_c, 1, 71, 100
3, 27539, Note_on_c, 1, 71, 0
3, 27540, Note_on_c, 1, 66, 100
3, 27659, Note_on_c, 1, 66, 0
3, 27660, Note_on_c, 1, 71, 100
3, 27720, Note_on_c, 1, 71, 0
3, 27720, Note_on_c, 1, 71, 100
3, 27990, Note_on_c, 1, 71, 0
3, 27990, Note_on_c, 1, 70, 100
3, 28020, Note_on_c, 1, 70, 0
3, 28020, Note_on_c, 1, 68, 100
3, 28080, Note_on_c, 1, 68, 0
3, 28080, Note_on_c, 1, 70, 100
3, 28200, Note_on_c, 1, 70, 0
3, 28200, Note_on_c, 1, 73, 100
3, 28260, Note_on_c, 1, 73, 0
3, 28260, Note_on_c, 1, 66, 100
3, 28530, Note_on_c, 1, 66, 0
3, 28530, Note_on_c, 1, 79, 100
3, 28560, Note_on_c, 1, 79, 0
3, 28560, Note_on_c, 1, 78, 100
3, 28710, Note_on_c, 1, 78, 0
3, 28710, Note_on_c, 1, 71, 100
3, 28740, Note_on_c, 1, 71, 0
3, 28740, Note_on_c, 1, 70, 100
3, 28800, Note_on_c, 1, 70, 0
3, 28800, Note_on_c, 1, 71, 100
3, 28920, Note_on_c, 1, 71, 0
3, 29250, Note_on_c, 1, 72, 100
3, 29280, Note_on_c, 1, 72, 0
3, 29280, Note_on_c, 1, 71, 100
3, 29430, Note_on_c, 1, 71, 0
3, 29430, Note_on_c, 1, 74, 100
3, 29460, Note_on_c, 1, 74, 0
3, 29460, Note_on_c, 1, 73, 100
3, 29520, Note_on_c, 1, 73, 0
3, 29520, Note_on_c, 1, 74, 100
3, 29610, Note_on_c, 1, 74, 0
3, 29610, Note_on_c, 1, 84, 100
3, 29640, Note_on_c, 1, 84, 0
3, 29640, Note_on_c, 1, 83, 100
3, 29790, Note_on_c, 1, 83, 0
3, 29790, Note_on_c, 1, 72, 100
3, 29820, Note_on_c, 1, 72, 0
3, 29820, Note_on_c, 1, 71, 100
3, 29880, Note_on_c, 1, 71, 0
3, 29880, Note_on_c, 1, 72, 100
3, 30000, Note_on_c, 1, 72, 0
3, 30000, Note_on_c, 1, 69, 100
3, 30060, Note_on_c, 1, 69, 0
3, 30060, Note_on_c, 1, 72, 100
3, 30180, Note_on_c, 1, 72, 0
3, 30180, Note_on_c, 1, 75, 100
3, 30240, Note_on_c, 1, 75, 0
3, 30240, Note_on_c, 1, 75, 100
3, 30360, Note_on_c, 1, 75, 0
3, 30360, Note_on_c, 1, 74, 100
3, 30420, Note_on_c, 1, 74, 0
3, 31320, Note_on_c, 1, 71, 110
3, 31410, Note_on_c, 1, 71, 0
3, 31410, Note_on_c, 1, 74, 110
3, 31440, Note_on_c, 1, 74, 0
3, 31440, Note_on_c, 1, 79, 110
3, 31500, Note_on_c, 1, 79, 0
3, 31500, Note_on_c, 1, 79, 110
3, 31590, Note_on_c, 1, 79, 0
3, 31590, Note_on_c, 1, 78, 110
3, 31620, Note_on_c, 1, 78, 0
3, 31620, Note_on_c, 1, 79, 110
3, 31680, Note_on_c, 1, 79, 0
3, 31680, Note_on_c, 1, 69, 110
3, 31860, Note_on_c, 1, 69, 0
3, 31980, Note_on_c, 1, 69, 110
3, 32130, Note_on_c, 1, 69, 0
3, 32130, Note_on_c, 1, 71, 110
3, 32160, Note_on_c, 1, 71, 0
3, 32160, Note_on_c, 1, 69, 110
3, 32220, Note_on_c, 1, 69, 0
3, 32220, Note_on_c, 1, 67, 110
3, 32310, Note_on_c, 1, 67, 0
3, 32310, Note_on_c, 1, 71, 110
3, 32340, Note_on_c, 1, 71, 0
3, 32340, Note_on_c, 1, 74, 110
3, 32400, Note_on_c, 1, 74, 0
3, 32400, Note_on_c, 1, 74, 110
3, 32460, Note_on_c, 1, 74, 0
3, 32460, Note_on_c, 1, 76, 110
3, 32470, Note_on_c, 1, 76, 0
3, 32470, Note_on_c, 1, 74, 110
3, 32480, Note_on_c, 1, 74, 0
3, 32480, Note_on_c, 1, 76, 110
3, 32490, Note_on_c, 1, 76, 0
3, 32490, Note_on_c, 1, 74, 110
3, 32500, Note_on_c, 1, 74, 0
3, 32500, Note_on_c, 1, 76, 110
3, 32510, Note_on_c, 1, 76, 0
3, 32510, Note_on_c, 1, 74, 110
3, 32520, Note_on_c, 1, 74, 0
3, 32520, Note_on_c, 1, 72, 110
3, 32580, Note_on_c, 1, 72, 0
3, 32700, Note_on_c, 1, 72, 110
3, 32760, Note_on_c, 1, 72, 0
3, 32760, Note_on_c, 1, 72, 110
3, 32820, Note_on_c, 1, 72, 0
3, 32820, Note_on_c, 1, 74, 110
3, 32830, Note_on_c, 1, 74, 0
3, 32830, Note_on_c, 1, 72, 110
3, 32840, Note_on_c, 1, 72, 0
3, 32840, Note_on_c, 1, 74, 110
3, 32850, Note_on_c, 1, 74, 0
3, 32850, Note_on_c, 1, 72, 110
3, 32860, Note_on_c, 1, 72, 0
3, 32860, Note_on_c, 1, 74, 110
3, 32870, Note_on_c, 1, 74, 0
3, 32870, Note_on_c, 1, 72, 110
3, 32880, Note_on_c, 1, 72, 0
3, 32880, Note_on_c, 1, 71, 110
3, 32940, Note_on_c, 1, 71, 0
3, 33060, Note_on_c, 1, 71, 110
3, 33210, Note_on_c, 1, 71, 0
3, 33210, Note_on_c, 1, 72, 110
3, 33240, Note_on_c, 1, 72, 0
3, 33240, Note_on_c, 1, 69, 110
3, 33390, Note_on_c, 1, 69, 0
3, 33390, Note_on_c, 1, 71, 110
3, 33420, Note_on_c, 1, 71, 0
3, 33420, Note_on_c, 1, 67, 110
3, 33480, Note_on_c, 1, 67, 0
3, 33480, Note_on_c, 1, 69, 110
3, 33490, Note_on_c, 1, 69, 0
3, 33490, Note_on_c, 1, 67, 110
3, 33500, Note_on_c, 1, 67, 0
3, 33500, Note_on_c, 1, 69, 110
3, 33510, Note_on_c, 1, 69, 0
3, 33510, Note_on_c, 1, 67, 110
3, 33520, Note_on_c, 1, 67, 0
3, 33520, Note_on_c, 1, 69, 110
3, 33530, Note_on_c, 1, 69, 0
3, 33530, Note_on_c, 1, 67, 110
3, 33540, Note_on_c, 1, 67, 0
3, 33540, Note_on_c, 1, 69, 110
3, 33550, Note_on_c, 1, 69, 0
3, 33550, Note_on_c, 1, 67, 110
3, 33560, Note_on_c, 1, 67, 0
3, 33560, Note_on_c, 1, 69, 110
3, 33570, Note_on_c, 1, 69, 0
3, 33570, Note_on_c, 1, 67, 110
3, 33580, Note_on_c, 1, 67, 0
3, 33580, Note_on_c, 1, 69, 110
3, 33590, Note_on_c, 1, 69, 0
3, 33590, Note_on_c, 1, 67, 110
3, 33600, Note_on_c, 1, 67, 0
3, 33600, Note_on_c, 1, 66, 110
3, 33660, Note_on_c, 1, 66, 0
3, 34920, Note_on_c, 1, 71, 100
3, 35010, Note_on_c, 1, 71, 0
3, 35010, Note_on_c, 1, 74, 100
3, 35040, Note_on_c, 1, 74, 0
3, 35040, Note_on_c, 1, 79, 100
3, 35100, Note_on_c, 1, 79, 0
3, 35100, Note_on_c, 1, 79, 100
3, 35190, Note_on_c, 1, 79, 0
3, 35190, Note_on_c, 1, 78, 100
3, 35220, Note_on_c, 1, 78, 0
3, 35220, Note_on_c, 1, 79, 100
3, 35280, Note_on_c, 1, 79, 0
3, 35280, Note_on_c, 1, 67, 100
3, 35400, Note_on_c, 1, 67, 0
3, 36360, Note_on_c, 1, 71, 100
3, 36450, Note_on_c, 1, 71, 0
3, 36450, Note_on_c, 1, 74, 100
3, 36480, Note_on_c, 1, 74, 0
3, 36480, Note_on_c, 1, 77, 100
3, 36540, Note_on_c, 1, 77, 0
3, 36540, Note_on_c, 1, 77, 100
3, 36630, Note_on_c, 1, 77, 0
3, 36630, Note_on_c, 1, 76, 100
3, 36660, Note_on_c, 1, 76, 0
3, 36660, Note_on_c, 1, 77, 100
3, 36720, Note_on_c, 1, 77, 0
3, 36720, Note_on_c, 1, 76, 100
3, 36840, Note_on_c, 1, 76, 0
3, 37920, Note_on_c, 1, 72, 100
3, 37980, Note_on_c, 1, 72, 0
3, 37980, Note_on_c, 1, 76, 100
3, 38280, Note_on_c, 1, 76, 0
3, 38280, Note_on_c, 1, 69, 100
3, 38340, Note_on_c, 1, 69, 0
3, 38460, Note_on_c, 1, 73, 100
3, 38520, Note_on_c, 1, 73, 0
3, 38520, Note_on_c, 1, 69, 100
3, 38640, Note_on_c, 1, 69, 0
3, 38640, Note_on_c, 1, 74, 100
3, 38700, Note_on_c, 1, 74, 0
3, 38700, Note_on_c, 1, 84, 100
3, 39000, Note_on_c, 1, 84, 0
3, 39000, Note_on_c, 1, 76, 100
3, 39060, Note_on_c, 1, 76, 0
3, 39060, Note_on_c, 1, 81, 100
3, 39180, Note_on_c, 1, 81, 0
3, 39180, Note_on_c, 1, 79, 100
3, 39240, Note_on_c, 1, 79, 0
3, 39240, Note_on_c, 1, 78, 100
3, 39360, Note_on_c, 1, 78, 0
3, 39360, Note_on_c, 1, 81, 100
3, 39420, Note_on_c, 1, 81, 0
3, 39420, Note_on_c, 1, 86, 100
3, 39720, Note_on_c, 1, 86, 0
3, 39720, Note_on_c, 1, 79, 100
3, 39780, Note_on_c, 1, 79, 0
3, 39780, Note_on_c, 1, 79, 100
3, 39900, Note_on_c, 1, 79, 0
3, 39900, Note_on_c, 1, 78, 100
3, 39960, Note_on_c, 1, 78, 0
3, 39960, Note_on_c, 1, 79, 100
3, 40050, Note_on_c, 1, 79, 0
3, 40050, Note_on_c, 1, 67, 100
3, 40080, Note_on_c, 1, 67, 0
3, 40080, Note_on_c, 1, 76, 100
3, 40140, Note_on_c, 1, 76, 0
3, 40140, Note_on_c, 1, 74, 100
3, 40230, Note_on_c, 1, 74, 0
3, 40230, Note_on_c, 1, 76, 100
3, 40260, Note_on_c, 1, 76, 0
3, 40260, Note_on_c, 1, 72, 100
3, 40320, Note_on_c, 1, 72, 0
3, 40320, Note_on_c, 1, 74, 100
3, 40410, Note_on_c, 1, 74, 0
3, 40410, Note_on_c, 1, 67, 100
3, 40440, Note_on_c, 1, 67, 0
3, 40440, Note_on_c, 1, 72, 100
3, 40500, Note_on_c, 1, 72, 0
3, 40500, Note_on_c, 1, 71, 100
3, 40590, Note_on_c, 1, 71, 0
3, 40590, Note_on_c, 1, 72, 100
3, 40620, Note_on_c, 1, 72, 0
3, 40620, Note_on_c, 1, 69, 100
3, 40680, Note_on_c, 1, 69, 0
3, 40680, Note_on_c, 1, 67, 100
3, 40800, Note_on_c, 1, 67, 0
3, 41400, Note_on_c, 1, 71, 100
3, 41490, Note_on_c, 1, 71, 0
3, 41490, Note_on_c, 1, 74, 100
3, 41520, Note_on_c, 1, 74, 0
3, 41520, Note_on_c, 1, 79, 100
3, 41580, Note_on_c, 1, 79, 0
3, 41580, Note_on_c, 1, 79, 100
3, 41670, Note_on_c, 1, 79, 0
3, 41670, Note_on_c, 1, 78, 100
3, 41700, Note_on_c, 1, 78, 0
3, 41700, Note_on_c, 1, 79, 100
3, 41760, Note_on_c, 1, 79, 0
3, 41760, Note_on_c, 1, 67, 100
3, 41880, Note_on_c, 1, 67, 0
3, 42120, Note_on_c, 1, 79, 100
3, 42239, Note_on_c, 1, 79, 0
3, 42240, Note_on_c, 1, 76, 100
3, 42299, Note_on_c, 1, 76, 0
3, 42300, Note_on_c, 1, 76, 100
3, 42419, Note_on_c, 1, 76, 0
3, 42420, Note_on_c, 1, 81, 100
3, 42479, Note_on_c, 1, 81, 0
3, 42480, Note_on_c, 1, 74, 100
3, 42599, Note_on_c, 1, 74, 0
3, 42600, Note_on_c, 1, 74, 100
3, 42659, Note_on_c, 1, 74, 0
3, 42660, Note_on_c, 1, 79, 100
3, 42749, Note_on_c, 1, 79, 0
3, 42750, Note_on_c, 1, 78, 100
3, 42779, Note_on_c, 1, 78, 0
3, 42780, Note_on_c, 1, 79, 100
3, 42839, Note_on_c, 1, 79, 0
3, 42840, Note_on_c, 1, 76, 100
3, 42960, Note_on_c, 1, 76, 0
3, 42960, Note_on_c, 1, 69, 100
3, 43019, Note_on_c, 1, 69, 0
3, 43020, Note_on_c, 1, 73, 100
3, 43140, Note_on_c, 1, 73, 0
3, 43140, Note_on_c, 1, 76, 100
3, 43199, Note_on_c, 1, 76, 0
3, 43200, Note_on_c, 1, 74, 100
3, 43470, Note_on_c, 1, 74, 0
3, 43470, Note_on_c, 1, 76, 100
3, 43500, Note_on_c, 1, 76, 0
3, 43500, Note_on_c, 1, 78, 100
3, 43560, Note_on_c, 1, 78, 0
3, 43560, Note_on_c, 1, 67, 100
3, 43650, Note_on_c, 1, 67, 0
3, 43650, Note_on_c, 1, 76, 100
3, 43680, Note_on_c, 1, 76, 0
3, 43680, Note_on_c, 1, 74, 100
3, 43830, Note_on_c, 1, 74, 0
3, 43830, Note_on_c, 1, 81, 100
3, 43860, Note_on_c, 1, 81, 0
3, 43860, Note_on_c, 1, 78, 100
3, 43920, Note_on_c, 1, 78, 0
3, 43920, Note_on_c, 1, 79, 100
3, 44010, Note_on_c, 1, 79, 0
3, 44010, Note_on_c, 1, 76, 100
3, 44040, Note_on_c, 1, 76, 0
3, 44040, Note_on_c, 1, 74, 100
3, 44190, Note_on_c, 1, 74, 0
3, 44190, Note_on_c, 1, 67, 100
3, 44220, Note_on_c, 1, 67, 0
3, 44220, Note_on_c, 1, 66, 100
3, 44280, Note_on_c, 1, 66, 0
3, 44280, Note_on_c, 1, 67, 100
3, 44400, Note_on_c, 1, 67, 0
3, 44640, Note_on_c, 1, 79, 100
3, 45000, Note_on_c, 1, 79, 0
3, 50520, Note_on_c, 1, 79, 100
3, 50639, Note_on_c, 1, 79, 0
3, 50640, Note_on_c, 1, 79, 100
3, 50759, Note_on_c, 1, 79, 0
3, 50760, Note_on_c, 1, 81, 100
3, 50879, Note_on_c, 1, 81, 0
3, 50880, Note_on_c, 1, 83, 100
3, 50939, Note_on_c, 1, 83, 0
3, 50940, Note_on_c, 1, 85, 100
3, 50999, Note_on_c, 1, 85, 0
3, 51000, Note_on_c, 1, 86, 100
3, 51119, Note_on_c, 1, 86, 0
3, 51120, Note_on_c, 1, 86, 100
3, 51239, Note_on_c, 1, 86, 0
3, 51240, Note_on_c, 1, 85, 100
3, 51359, Note_on_c, 1, 85, 0
3, 51360, Note_on_c, 1, 86, 100
3, 51449, Note_on_c, 1, 86, 0
3, 51480, Note_on_c, 1, 83, 100
3, 51599, Note_on_c, 1, 83, 0
3, 51600, Note_on_c, 1, 84, 100
3, 51719, Note_on_c, 1, 84, 0
3, 51720, Note_on_c, 1, 83, 100
3, 51839, Note_on_c, 1, 83, 0
3, 51840, Note_on_c, 1, 81, 100
3, 51959, Note_on_c, 1, 81, 0
3, 51960, Note_on_c, 1, 83, 100
3, 52079, Note_on_c, 1, 83, 0
3, 52080, Note_on_c, 1, 81, 100
3, 52319, Note_on_c, 1, 81, 0
3, 52320, Note_on_c, 1, 79, 100
3, 52409, Note_on_c, 1, 79, 0
3, 52440, Note_on_c, 1, 79, 100
3, 52559, Note_on_c, 1, 79, 0
3, 52560, Note_on_c, 1, 79, 100
3, 52679, Note_on_c, 1, 79, 0
3, 52680, Note_on_c, 1, 81, 100
3, 52799, Note_on_c, 1, 81, 0
3, 52800, Note_on_c, 1, 83, 100
3, 52859, Note_on_c, 1, 83, 0
3, 52860, Note_on_c, 1, 85, 100
3, 52919, Note_on_c, 1, 85, 0
3, 52920, Note_on_c, 1, 86, 100
3, 53039, Note_on_c, 1, 86, 0
3, 53040, Note_on_c, 1, 86, 100
3, 53159, Note_on_c, 1, 86, 0
3, 53160, Note_on_c, 1, 85, 100
3, 53279, Note_on_c, 1, 85, 0
3, 53280, Note_on_c, 1, 86, 100
3, 53369, Note_on_c, 1, 86, 0
3, 53400, Note_on_c, 1, 83, 100
3, 53519, Note_on_c, 1, 83, 0
3, 53520, Note_on_c, 1, 84, 100
3, 53639, Note_on_c, 1, 84, 0
3, 53640, Note_on_c, 1, 83, 100
3, 53759, Note_on_c, 1, 83, 0
3, 53760, Note_on_c, 1, 81, 100
3, 53879, Note_on_c, 1, 81, 0
3, 53880, Note_on_c, 1, 83, 100
3, 53999, Note_on_c, 1, 83, 0
3, 54000, Note_on_c, 1, 81, 100
3, 54239, Note_on_c, 1, 81, 0
3, 54240, Note_on_c, 1, 79, 100
3, 54329, Note_on_c, 1, 79, 0
3, 54360, Note_on_c, 1, 81, 100
3, 54479, Note_on_c, 1, 81, 0
3, 54480, Note_on_c, 1, 81, 100
3, 54599, Note_on_c, 1, 81, 0
3, 54600, Note_on_c, 1, 83, 100
3, 54719, Note_on_c, 1, 83, 0
3, 54720, Note_on_c, 1, 84, 100
3, 54839, Note_on_c, 1, 84, 0
3, 54840, Note_on_c, 1, 84, 100
3, 54959, Note_on_c, 1, 84, 0
3, 54960, Note_on_c, 1, 83, 100
3, 55019, Note_on_c, 1, 83, 0
3, 55020, Note_on_c, 1, 81, 100
3, 55079, Note_on_c, 1, 81, 0
3, 55080, Note_on_c, 1, 83, 100
3, 55199, Note_on_c, 1, 83, 0
3, 55200, Note_on_c, 1, 81, 100
3, 55289, Note_on_c, 1, 81, 0
3, 55320, Note_on_c, 1, 83, 100
3, 55439, Note_on_c, 1, 83, 0
3, 55440, Note_on_c, 1, 83, 100
3, 55559, Note_on_c, 1, 83, 0
3, 55560, Note_on_c, 1, 83, 100
3, 55679, Note_on_c, 1, 83, 0
3, 55680, Note_on_c, 1, 84, 100
3, 55739, Note_on_c, 1, 84, 0
3, 55740, Note_on_c, 1, 86, 100
3, 55799, Note_on_c, 1, 86, 0
3, 55800, Note_on_c, 1, 88, 100
3, 55919, Note_on_c, 1, 88, 0
3, 55920, Note_on_c, 1, 88, 100
3, 56039, Note_on_c, 1, 88, 0
3, 56040, Note_on_c, 1, 87, 100
3, 56159, Note_on_c, 1, 87, 0
3, 56160, Note_on_c, 1, 88, 100
3, 56249, Note_on_c, 1, 88, 0
3, 56280, Note_on_c, 1, 90, 100
3, 56399, Note_on_c, 1, 90, 0
3, 56400, Note_on_c, 1, 91, 100
3, 56519, Note_on_c, 1, 91, 0
3, 56520, Note_on_c, 1, 83, 100
3, 56639, Note_on_c, 1, 83, 0
3, 56640, Note_on_c, 1, 84, 100
3, 56759, Note_on_c, 1, 84, 0
3, 56760, Note_on_c, 1, 83, 100
3, 56879, Note_on_c, 1, 83, 0
3, 56880, Note_on_c, 1, 81, 100
3, 57119, Note_on_c, 1, 81, 0
3, 57120, Note_on_c, 1, 81, 100
3, 57209, Note_on_c, 1, 81, 0
3, 57240, Note_on_c, 1, 86, 100
3, 57359, Note_on_c, 1, 86, 0
3, 57360, Note_on_c, 1, 88, 100
3, 57479, Note_on_c, 1, 88, 0
3, 57480, Note_on_c, 1, 86, 100
3, 57599, Note_on_c, 1, 86, 0
3, 57600, Note_on_c, 1, 84, 100
3, 57719, Note_on_c, 1, 84, 0
3, 57720, Note_on_c, 1, 83, 100
3, 57779, Note_on_c, 1, 83, 0
3, 57780, Note_on_c, 1, 84, 100
3, 57839, Note_on_c, 1, 84, 0
3, 57840, Note_on_c, 1, 81, 100
3, 58079, Note_on_c, 1, 81, 0
3, 58080, Note_on_c, 1, 79, 100
3, 58199, Note_on_c, 1, 79, 0
3, 93000, Note_on_c, 1, 84, 100
3, 93119, Note_on_c, 1, 84, 0
3, 93120, Note_on_c, 1, 83, 100
3, 93239, Note_on_c, 1, 83, 0
3, 93240, Note_on_c, 1, 81, 100
3, 93359, Note_on_c, 1, 81, 0
3, 93360, Note_on_c, 1, 83, 100
3, 93419, Note_on_c, 1, 83, 0
3, 93420, Note_on_c, 1, 81, 100
3, 93479, Note_on_c, 1, 81, 0
3, 93480, Note_on_c, 1, 79, 100
3, 93599, Note_on_c, 1, 79, 0
3, 93600, Note_on_c, 1, 81, 100
3, 93719, Note_on_c, 1, 81, 0
3, 93720, Note_on_c, 1, 83, 100
3, 93839, Note_on_c, 1, 83, 0
3, 93840, Note_on_c, 1, 84, 100
3, 93929, Note_on_c, 1, 84, 0
3, 93960, Note_on_c, 1, 84, 100
3, 94079, Note_on_c, 1, 84, 0
3, 94080, Note_on_c, 1, 84, 100
3, 94199, Note_on_c, 1, 84, 0
3, 94200, Note_on_c, 1, 79, 100
3, 94319, Note_on_c, 1, 79, 0
3, 94320, Note_on_c, 1, 79, 100
3, 94379, Note_on_c, 1, 79, 0
3, 94380, Note_on_c, 1, 77, 100
3, 94439, Note_on_c, 1, 77, 0
3, 94440, Note_on_c, 1, 76, 100
3, 94499, Note_on_c, 1, 76, 0
3, 94500, Note_on_c, 1, 77, 100
3, 94559, Note_on_c, 1, 77, 0
3, 94560, Note_on_c, 1, 79, 100
3, 94679, Note_on_c, 1, 79, 0
3, 94680, Note_on_c, 1, 77, 100
3, 94799, Note_on_c, 1, 77, 0
3, 94800, Note_on_c, 1, 76, 100
3, 94889, Note_on_c, 1, 76, 0
3, 94920, Note_on_c, 1, 76, 100
3, 95039, Note_on_c, 1, 76, 0
3, 95040, Note_on_c, 1, 81, 100
3, 95159, Note_on_c, 1, 81, 0
3, 95160, Note_on_c, 1, 81, 100
3, 95279, Note_on_c, 1, 81, 0
3, 95280, Note_on_c, 1, 79, 100
3, 95339, Note_on_c, 1, 79, 0
3, 95340, Note_on_c, 1, 81, 100
3, 95399, Note_on_c, 1, 81, 0
3, 95400, Note_on_c, 1, 83, 100
3, 95519, Note_on_c, 1, 83, 0
3, 95520, Note_on_c, 1, 84, 100
3, 95579, Note_on_c, 1, 84, 0
3, 95580, Note_on_c, 1, 83, 100
3, 95639, Note_on_c, 1, 83, 0
3, 95640, Note_on_c, 1, 81, 100
3, 95759, Note_on_c, 1, 81, 0
3, 95760, Note_on_c, 1, 79, 100
3, 95849, Note_on_c, 1, 79, 0
3, 95880, Note_on_c, 1, 84, 100
3, 95999, Note_on_c, 1, 84, 0
3, 96000, Note_on_c, 1, 83, 100
3, 96119, Note_on_c, 1, 83, 0
3, 96120, Note_on_c, 1, 81, 100
3, 96239, Note_on_c, 1, 81, 0
3, 96240, Note_on_c, 1, 79, 100
3, 96359, Note_on_c, 1, 79, 0
3, 96360, Note_on_c, 1, 81, 100
3, 96419, Note_on_c, 1, 81, 0
3, 96420, Note_on_c, 1, 79, 100
3, 96479, Note_on_c, 1, 79, 0
3, 96480, Note_on_c, 1, 77, 100
3, 96539, Note_on_c, 1, 77, 0
3, 96540, Note_on_c, 1, 76, 100
3, 96599, Note_on_c, 1, 76, 0
3, 96600, Note_on_c, 1, 74, 100
3, 96719, Note_on_c, 1, 74, 0
3, 96720, Note_on_c, 1, 72, 100
3, 96839, Note_on_c, 1, 72, 0
3, 167400, Note_on_c, 1, 79, 100
3, 167460, Note_on_c, 1, 79, 0
3, 167580, Note_on_c, 1, 79, 100
3, 167610, Note_on_c, 1, 79, 0
3, 167640, Note_on_c, 1, 78, 100
3, 167670, Note_on_c, 1, 78, 0
3, 167820, Note_on_c, 1, 69, 100
3, 167850, Note_on_c, 1, 69, 0
3, 167880, Note_on_c, 1, 71, 100
3, 167910, Note_on_c, 1, 71, 0
3, 168060, Note_on_c, 1, 71, 100
3, 168090, Note_on_c, 1, 71, 0
3, 168120, Note_on_c, 1, 72, 100
3, 168150, Note_on_c, 1, 72, 0
3, 168300, Note_on_c, 1, 72, 100
3, 168330, Note_on_c, 1, 72, 0
3, 168360, Note_on_c, 1, 74, 100
3, 168390, Note_on_c, 1, 74, 0
3, 168540, Note_on_c, 1, 74, 100
3, 168570, Note_on_c, 1, 74, 0
3, 168600, Note_on_c, 1, 76, 100
3, 168630, Note_on_c, 1, 76, 0
3, 168780, Note_on_c, 1, 76, 100
3, 168810, Note_on_c, 1, 76, 0
3, 168840, Note_on_c, 1, 78, 100
3, 168870, Note_on_c, 1, 78, 0
3, 169020, Note_on_c, 1, 78, 100
3, 169050, Note_on_c, 1, 78, 0
3, 169080, Note_on_c, 1, 76, 100
3, 169110, Note_on_c, 1, 76, 0
3, 169260, Note_on_c, 1, 76, 100
3, 169290, Note_on_c, 1, 76, 0
3, 169320, Note_on_c, 1, 74, 100
3, 169350, Note_on_c, 1, 74, 0
3, 169500, Note_on_c, 1, 74, 100
3, 169530, Note_on_c, 1, 74, 0
3, 169560, Note_on_c, 1, 73, 100
3, 169590, Note_on_c, 1, 73, 0
3, 169740, Note_on_c, 1, 78, 100
3, 169770, Note_on_c, 1, 78, 0
3, 169800, Note_on_c, 1, 74, 100
3, 169830, Note_on_c, 1, 74, 0
3, 169980, Note_on_c, 1, 73, 100
3, 170010, Note_on_c, 1, 73, 0
3, 170040, Note_on_c, 1, 74, 100
3, 170070, Note_on_c, 1, 74, 0
3, 170220, Note_on_c, 1, 74, 100
3, 170250, Note_on_c, 1, 74, 0
3, 170280, Note_on_c, 1, 76, 100
3, 170310, Note_on_c, 1, 76, 0
3, 170460, Note_on_c, 1, 76, 100
3, 170490, Note_on_c, 1, 76, 0
3, 170520, Note_on_c, 1, 74, 100
3, 170550, Note_on_c, 1, 74, 0
3, 170700, Note_on_c, 1, 74, 100
3, 170730, Note_on_c, 1, 74, 0
3, 170760, Note_on_c, 1, 73, 100
3, 170790, Note_on_c, 1, 73, 0
3, 170940, Note_on_c, 1, 71, 100
3, 170970, Note_on_c, 1, 71, 0
3, 171000, Note_on_c, 1, 73, 100
3, 171030, Note_on_c, 1, 73, 0
3, 171240, Note_on_c, 1, 74, 100
3, 171300, Note_on_c, 1, 74, 0
3, 171420, Note_on_c, 1, 74, 100
3, 171450, Note_on_c, 1, 74, 0
3, 171480, Note_on_c, 1, 76, 100
3, 171510, Note_on_c, 1, 76, 0
3, 171660, Note_on_c, 1, 76, 100
3, 171690, Note_on_c, 1, 76, 0
3, 171720, Note_on_c, 1, 78, 100
3, 171750, Note_on_c, 1, 78, 0
3, 171900, Note_on_c, 1, 78, 100
3, 171930, Note_on_c, 1, 78, 0
3, 171960, Note_on_c, 1, 79, 100
3, 171990, Note_on_c, 1, 79, 0
3, 172200, Note_on_c, 1, 76, 100
3, 172260, Note_on_c, 1, 76, 0
3, 172380, Note_on_c, 1, 76, 100
3, 172410, Note_on_c, 1, 76, 0
3, 172440, Note_on_c, 1, 78, 100
3, 172470, Note_on_c, 1, 78, 0
3, 172620, Note_on_c, 1, 78, 100
3, 172650, Note_on_c, 1, 78, 0
3, 172680, Note_on_c, 1, 80, 100
3, 172710, Note_on_c, 1, 80, 0
3, 172860, Note_on_c, 1, 80, 100
3, 172890, Note_on_c, 1, 80, 0
3, 172920, Note_on_c, 1, 81, 100
3, 172950, Note_on_c, 1, 81, 0
3, 173100, Note_on_c, 1, 78, 100
3, 173130, Note_on_c, 1, 78, 0
3, 173160, Note_on_c, 1, 76, 100
3, 173190, Note_on_c, 1, 76, 0
3, 173340, Note_on_c, 1, 76, 100
3, 173370, Note_on_c, 1, 76, 0
3, 173400, Note_on_c, 1, 75, 100
3, 173430, Note_on_c, 1, 75, 0
3, 173580, Note_on_c, 1, 76, 100
3, 173610, Note_on_c, 1, 76, 0
3, 173640, Note_on_c, 1, 81, 100
3, 173670, Note_on_c, 1, 81, 0
3, 173820, Note_on_c, 1, 78, 100
3, 173850, Note_on_c, 1, 78, 0
3, 173880, Note_on_c, 1, 79, 100
3, 173910, Note_on_c, 1, 79, 0
3, 174060, Note_on_c, 1, 76, 100
3, 174090, Note_on_c, 1, 76, 0
3, 174120, Note_on_c, 1, 78, 100
3, 174150, Note_on_c, 1, 78, 0
3, 174300, Note_on_c, 1, 79, 100
3, 174330, Note_on_c, 1, 79, 0
3, 174360, Note_on_c, 1, 81, 100
3, 174390, Note_on_c, 1, 81, 0
3, 174540, Note_on_c, 1, 78, 100
3, 174570, Note_on_c, 1, 78, 0
3, 174600, Note_on_c, 1, 71, 100
3, 174630, Note_on_c, 1, 71, 0
3, 174780, Note_on_c, 1, 79, 100
3, 174810, Note_on_c, 1, 79, 0
3, 174840, Note_on_c, 1, 78, 100
3, 174870, Note_on_c, 1, 78, 0
3, 175080, Note_on_c, 1, 71, 100
3, 175140, Note_on_c, 1, 71, 0
3, 175260, Note_on_c, 1, 69, 100
3, 175290, Note_on_c, 1, 69, 0
3, 175320, Note_on_c, 1, 74, 100
3, 175350, Note_on_c, 1, 74, 0
3, 175500, Note_on_c, 1, 72, 100
3, 175530, Note_on_c, 1, 72, 0
3, 175560, Note_on_c, 1, 74, 100
3, 175590, Note_on_c, 1, 74, 0
3, 175740, Note_on_c, 1, 74, 100
3, 175770, Note_on_c, 1, 74, 0
3, 175800, Note_on_c, 1, 76, 100
3, 175830, Note_on_c, 1, 76, 0
3, 176040, Note_on_c, 1, 74, 100
3, 176100, Note_on_c, 1, 74, 0
3, 176220, Note_on_c, 1, 74, 100
3, 176250, Note_on_c, 1, 74, 0
3, 176280, Note_on_c, 1, 72, 100
3, 176310, Note_on_c, 1, 72, 0
3, 176460, Note_on_c, 1, 76, 100
3, 176490, Note_on_c, 1, 76, 0
3, 176520, Note_on_c, 1, 74, 100
3, 176550, Note_on_c, 1, 74, 0
3, 176700, Note_on_c, 1, 74, 100
3, 176730, Note_on_c, 1, 74, 0
3, 176760, Note_on_c, 1, 73, 100
3, 176790, Note_on_c, 1, 73, 0
3, 176940, Note_on_c, 1, 71, 100
3, 176970, Note_on_c, 1, 71, 0
3, 177000, Note_on_c, 1, 78, 100
3, 177030, Note_on_c, 1, 78, 0
3, 177180, Note_on_c, 1, 76, 100
3, 177210, Note_on_c, 1, 76, 0
3, 177240, Note_on_c, 1, 70, 100
3, 177270, Note_on_c, 1, 70, 0
3, 177420, Note_on_c, 1, 78, 100
3, 177450, Note_on_c, 1, 78, 0
3, 177480, Note_on_c, 1, 71, 100
3, 177510, Note_on_c, 1, 71, 0
3, 177660, Note_on_c, 1, 73, 100
3, 177690, Note_on_c, 1, 73, 0
3, 177720, Note_on_c, 1, 74, 100
3, 177750, Note_on_c, 1, 74, 0
3, 177900, Note_on_c, 1, 71, 100
3, 177930, Note_on_c, 1, 71, 0
3, 177960, Note_on_c, 1, 73, 100
3, 177990, Note_on_c, 1, 73, 0
3, 178140, Note_on_c, 1, 66, 100
3, 178170, Note_on_c, 1, 66, 0
3, 178200, Note_on_c, 1, 71, 100
3, 178230, Note_on_c, 1, 71, 0
3, 178380, Note_on_c, 1, 79, 100
3, 178410, Note_on_c, 1, 79, 0
3, 178440, Note_on_c, 1, 73, 100
3, 178470, Note_on_c, 1, 73, 0
3, 178620, Note_on_c, 1, 73, 100
3, 178650, Note_on_c, 1, 73, 0
3, 178680, Note_on_c, 1, 78, 100
3, 178710, Note_on_c, 1, 78, 0
3, 178860, Note_on_c, 1, 78, 100
3, 178919, Note_on_c, 1, 78, 0
3, 178920, Note_on_c, 1, 75, 100
3, 178979, Note_on_c, 1, 75, 0
3, 178980, Note_on_c, 1, 71, 100
3, 179039, Note_on_c, 1, 71, 0
3, 179100, Note_on_c, 1, 72, 100
3, 179159, Note_on_c, 1, 72, 0
3, 179160, Note_on_c, 1, 66, 100
3, 179219, Note_on_c, 1, 66, 0
3, 179220, Note_on_c, 1, 69, 100
3, 179279, Note_on_c, 1, 69, 0
3, 179340, Note_on_c, 1, 71, 100
3, 179399, Note_on_c, 1, 71, 0
3, 179400, Note_on_c, 1, 64, 100
3, 179459, Note_on_c, 1, 64, 0
3, 179460, Note_on_c, 1, 67, 100
3, 179519, Note_on_c, 1, 67, 0
3, 179580, Note_on_c, 1, 69, 100
3, 179639, Note_on_c, 1, 69, 0
3, 179640, Note_on_c, 1, 63, 100
3, 179699, Note_on_c, 1, 63, 0
3, 179700, Note_on_c, 1, 66, 100
3, 179759, Note_on_c, 1, 66, 0
3, 179760, Note_on_c, 1, 67, 100
3, 179879, Note_on_c, 1, 67, 0
3, 180060, Note_on_c, 1, 77, 100
3, 180119, Note_on_c, 1, 77, 0
3, 180120, Note_on_c, 1, 71, 100
3, 180179, Note_on_c, 1, 71, 0
3, 180180, Note_on_c, 1, 74, 100
3, 180239, Note_on_c, 1, 74, 0
3, 180300, Note_on_c, 1, 76, 100
3, 180359, Note_on_c, 1, 76, 0
3, 180360, Note_on_c, 1, 69, 100
3, 180419, Note_on_c, 1, 69, 0
3, 180420, Note_on_c, 1, 72, 100
3, 180479, Note_on_c, 1, 72, 0
3, 180540, Note_on_c, 1, 74, 100
3, 180599, Note_on_c, 1, 74, 0
3, 180600, Note_on_c, 1, 68, 100
3, 180659, Note_on_c, 1, 68, 0
3, 180660, Note_on_c, 1, 71, 100
3, 180719, Note_on_c, 1, 71, 0
3, 180720, Note_on_c, 1, 72, 100
3, 180839, Note_on_c, 1, 72, 0
3, 181020, Note_on_c, 1, 82, 100
3, 181079, Note_on_c, 1, 82, 0
3, 181080, Note_on_c, 1, 76, 100
3, 181139, Note_on_c, 1, 76, 0
3, 181140, Note_on_c, 1, 79, 100
3, 181199, Note_on_c, 1, 79, 0
3, 181260, Note_on_c, 1, 81, 100
3, 181319, Note_on_c, 1, 81, 0
3, 181320, Note_on_c, 1, 74, 100
3, 181379, Note_on_c, 1, 74, 0
3, 181380, Note_on_c, 1, 77, 100
3, 181439, Note_on_c, 1, 77, 0
3, 181500, Note_on_c, 1, 79, 100
3, 181559, Note_on_c, 1, 79, 0
3, 181560, Note_on_c, 1, 73, 100
3, 181619, Note_on_c, 1, 73, 0
3, 181620, Note_on_c, 1, 76, 100
3, 181679, Note_on_c, 1, 76, 0
3, 181680, Note_on_c, 1, 77, 100
3, 181799, Note_on_c, 1, 77, 0
3, 181800, Note_on_c, 1, 74, 100
3, 181859, Note_on_c, 1, 74, 0
3, 181860, Note_on_c, 1, 72, 100
3, 181919, Note_on_c, 1, 72, 0
3, 181920, Note_on_c, 1, 71, 100
3, 181979, Note_on_c, 1, 71, 0
3, 181980, Note_on_c, 1, 72, 100
3, 182039, Note_on_c, 1, 72, 0
3, 182040, Note_on_c, 1, 74, 100
3, 182099, Note_on_c, 1, 74, 0
3, 182100, Note_on_c, 1, 71, 100
3, 182159, Note_on_c, 1, 71, 0
3, 182160, Note_on_c, 1, 76, 100
3, 182219, Note_on_c, 1, 76, 0
3, 182220, Note_on_c, 1, 74, 100
3, 182249, Note_on_c, 1, 74, 0
3, 182250, Note_on_c, 1, 72, 100
3, 182279, Note_on_c, 1, 72, 0
3, 182280, Note_on_c, 1, 71, 100
3, 182339, Note_on_c, 1, 71, 0
3, 182340, Note_on_c, 1, 76, 100
3, 182399, Note_on_c, 1, 76, 0
3, 182400, Note_on_c, 1, 72, 100
3, 182429, Note_on_c, 1, 72, 0
3, 182430, Note_on_c, 1, 71, 100
3, 182459, Note_on_c, 1, 71, 0
3, 182460, Note_on_c, 1, 72, 100
3, 182489, Note_on_c, 1, 72, 0
3, 182490, Note_on_c, 1, 74, 100
3, 182519, Note_on_c, 1, 74, 0
3, 182520, Note_on_c, 1, 76, 100
3, 182549, Note_on_c, 1, 76, 0
3, 182550, Note_on_c, 1, 74, 100
3, 182579, Note_on_c, 1, 74, 0
3, 182580, Note_on_c, 1, 72, 100
3, 182609, Note_on_c, 1, 72, 0
3, 182610, Note_on_c, 1, 71, 100
3, 182639, Note_on_c, 1, 71, 0
3, 182640, Note_on_c, 1, 69, 100
3, 182699, Note_on_c, 1, 69, 0
3, 182700, Note_on_c, 1, 62, 100
3, 182759, Note_on_c, 1, 62, 0
3, 182820, Note_on_c, 1, 78, 100
3, 182879, Note_on_c, 1, 78, 0
3, 182880, Note_on_c, 1, 79, 100
3, 182939, Note_on_c, 1, 79, 0
3, 182940, Note_on_c, 1, 78, 100
3, 182969, Note_on_c, 1, 78, 0
3, 182970, Note_on_c, 1, 76, 100
3, 182999, Note_on_c, 1, 76, 0
3, 183000, Note_on_c, 1, 74, 100
3, 183059, Note_on_c, 1, 74, 0
3, 183060, Note_on_c, 1, 74, 100
3, 183149, Note_on_c, 1, 74, 0
3, 183150, Note_on_c, 1, 73, 100
3, 183179, Note_on_c, 1, 73, 0
3, 183180, Note_on_c, 1, 74, 100
3, 183209, Note_on_c, 1, 74, 0
3, 183210, Note_on_c, 1, 76, 100
3, 183239, Note_on_c, 1, 76, 0
3, 183240, Note_on_c, 1, 74, 100
3, 183269, Note_on_c, 1, 74, 0
3, 183270, Note_on_c, 1, 79, 100
3, 183299, Note_on_c, 1, 79, 0
3, 183300, Note_on_c, 1, 78, 100
3, 183329, Note_on_c, 1, 78, 0
3, 183330, Note_on_c, 1, 79, 100
3, 183359, Note_on_c, 1, 79, 0
3, 183360, Note_on_c, 1, 76, 100
3, 183389, Note_on_c, 1, 76, 0
3, 183390, Note_on_c, 1, 78, 100
3, 183419, Note_on_c, 1, 78, 0
3, 183420, Note_on_c, 1, 76, 100
3, 183449, Note_on_c, 1, 76, 0
3, 183450, Note_on_c, 1, 74, 100
3, 183479, Note_on_c, 1, 74, 0
3, 183480, Note_on_c, 1, 73, 100
3, 183509, Note_on_c, 1, 73, 0
3, 183510, Note_on_c, 1, 74, 100
3, 183539, Note_on_c, 1, 74, 0
3, 183540, Note_on_c, 1, 76, 100
3, 183569, Note_on_c, 1, 76, 0
3, 183570, Note_on_c, 1, 73, 100
3, 183599, Note_on_c, 1, 73, 0
3, 183600, Note_on_c, 1, 74, 100
3, 183659, Note_on_c, 1, 74, 0
3, 183660, Note_on_c, 1, 62, 100
3, 183719, Note_on_c, 1, 62, 0
3, 184920, Note_on_c, 1, 78, 100
3, 184979, Note_on_c, 1, 78, 0
3, 184980, Note_on_c, 1, 76, 100
3, 185039, Note_on_c, 1, 76, 0
3, 185040, Note_on_c, 1, 74, 100
3, 185099, Note_on_c, 1, 74, 0
3, 185100, Note_on_c, 1, 76, 100
3, 185159, Note_on_c, 1, 76, 0
3, 185160, Note_on_c, 1, 78, 100
3, 185219, Note_on_c, 1, 78, 0
3, 185220, Note_on_c, 1, 74, 100
3, 185279, Note_on_c, 1, 74, 0
3, 185280, Note_on_c, 1, 79, 100
3, 185339, Note_on_c, 1, 79, 0
3, 185340, Note_on_c, 1, 78, 100
3, 185369, Note_on_c, 1, 78, 0
3, 185370, Note_on_c, 1, 76, 100
3, 185399, Note_on_c, 1, 76, 0
3, 185400, Note_on_c, 1, 74, 100
3, 185459, Note_on_c, 1, 74, 0
3, 185460, Note_on_c, 1, 79, 100
3, 185519, Note_on_c, 1, 79, 0
3, 185520, Note_on_c, 1, 76, 100
3, 185549, Note_on_c, 1, 76, 0
3, 185550, Note_on_c, 1, 74, 100
3, 185579, Note_on_c, 1, 74, 0
3, 185580, Note_on_c, 1, 76, 100
3, 185609, Note_on_c, 1, 76, 0
3, 185610, Note_on_c, 1, 78, 100
3, 185639, Note_on_c, 1, 78, 0
3, 185640, Note_on_c, 1, 79, 100
3, 185669, Note_on_c, 1, 79, 0
3, 185670, Note_on_c, 1, 78, 100
3, 185699, Note_on_c, 1, 78, 0
3, 185700, Note_on_c, 1, 76, 100
3, 185729, Note_on_c, 1, 76, 0
3, 185730, Note_on_c, 1, 74, 100
3, 185759, Note_on_c, 1, 74, 0
3, 185760, Note_on_c, 1, 72, 100
3, 185789, Note_on_c, 1, 72, 0
3, 185790, Note_on_c, 1, 71, 100
3, 185819, Note_on_c, 1, 71, 0
3, 185820, Note_on_c, 1, 72, 100
3, 185849, Note_on_c, 1, 72, 0
3, 185850, Note_on_c, 1, 74, 100
3, 185879, Note_on_c, 1, 74, 0
3, 185880, Note_on_c, 1, 76, 100
3, 185909, Note_on_c, 1, 76, 0
3, 185910, Note_on_c, 1, 74, 100
3, 185939, Note_on_c, 1, 74, 0
3, 185940, Note_on_c, 1, 72, 100
3, 185969, Note_on_c, 1, 72, 0
3, 185970, Note_on_c, 1, 71, 100
3, 185999, Note_on_c, 1, 71, 0
3, 186000, Note_on_c, 1, 69, 100
3, 186029, Note_on_c, 1, 69, 0
3, 186030, Note_on_c, 1, 67, 100
3, 186059, Note_on_c, 1, 67, 0
3, 186060, Note_on_c, 1, 69, 100
3, 186089, Note_on_c, 1, 69, 0
3, 186090, Note_on_c, 1, 71, 100
3, 186119, Note_on_c, 1, 71, 0
3, 186120, Note_on_c, 1, 72, 100
3, 186149, Note_on_c, 1, 72, 0
3, 186150, Note_on_c, 1, 74, 100
3, 186179, Note_on_c, 1, 74, 0
3, 186180, Note_on_c, 1, 71, 100
3, 186209, Note_on_c, 1, 71, 0
3, 186210, Note_on_c, 1, 72, 100
3, 186239, Note_on_c, 1, 72, 0
3, 186240, Note_on_c, 1, 74, 100
3, 186269, Note_on_c, 1, 74, 0
3, 186270, Note_on_c, 1, 72, 100
3, 186299, Note_on_c, 1, 72, 0
3, 186300, Note_on_c, 1, 74, 100
3, 186329, Note_on_c, 1, 74, 0
3, 186330, Note_on_c, 1, 76, 100
3, 186359, Note_on_c, 1, 76, 0
3, 186360, Note_on_c, 1, 78, 100
3, 186389, Note_on_c, 1, 78, 0
3, 186390, Note_on_c, 1, 79, 100
3, 186419, Note_on_c, 1, 79, 0
3, 186420, Note_on_c, 1, 76, 100
3, 186449, Note_on_c, 1, 76, 0
3, 186450, Note_on_c, 1, 78, 100
3, 186479, Note_on_c, 1, 78, 0
3, 186480, Note_on_c, 1, 79, 100
3, 186509, Note_on_c, 1, 79, 0
3, 186510, Note_on_c, 1, 81, 100
3, 186539, Note_on_c, 1, 81, 0
3, 186540, Note_on_c, 1, 79, 100
3, 186569, Note_on_c, 1, 79, 0
3, 186570, Note_on_c, 1, 78, 100
3, 186599, Note_on_c, 1, 78, 0
3, 186600, Note_on_c, 1, 76, 100
3, 186750, Note_on_c, 1, 76, 0
3, 186750, Note_on_c, 1, 77, 100
3, 186779, Note_on_c, 1, 77, 0
3, 186780, Note_on_c, 1, 76, 100
3, 186809, Note_on_c, 1, 76, 0
3, 186810, Note_on_c, 1, 74, 100
3, 186839, Note_on_c, 1, 74, 0
3, 186840, Note_on_c, 1, 72, 100
3, 186990, Note_on_c, 1, 72, 0
3, 186990, Note_on_c, 1, 74, 100
3, 187019, Note_on_c, 1, 74, 0
3, 187020, Note_on_c, 1, 72, 100
3, 187049, Note_on_c, 1, 72, 0
3, 187050, Note_on_c, 1, 71, 100
3, 187079, Note_on_c, 1, 71, 0
3, 187080, Note_on_c, 1, 69, 100
3, 187230, Note_on_c, 1, 69, 0
3, 187230, Note_on_c, 1, 67, 100
3, 187259, Note_on_c, 1, 67, 0
3, 187260, Note_on_c, 1, 69, 100
3, 187289, Note_on_c, 1, 69, 0
3, 187290, Note_on_c, 1, 71, 100
3, 187319, Note_on_c, 1, 71, 0
3, 187320, Note_on_c, 1, 72, 100
3, 187349, Note_on_c, 1, 72, 0
3, 187350, Note_on_c, 1, 71, 100
3, 187379, Note_on_c, 1, 71, 0
3, 187380, Note_on_c, 1, 69, 100
3, 187409, Note_on_c, 1, 69, 0
3, 187410, Note_on_c, 1, 67, 100
3, 187439, Note_on_c, 1, 67, 0
3, 187440, Note_on_c, 1, 66, 100
3, 187499, Note_on_c, 1, 66, 0
3, 187500, Note_on_c, 1, 62, 100
3, 187559, Note_on_c, 1, 62, 0
3, 187560, Note_on_c, 1, 74, 100
3, 187619, Note_on_c, 1, 74, 0
3, 187620, Note_on_c, 1, 72, 100
3, 187679, Note_on_c, 1, 72, 0
3, 187680, Note_on_c, 1, 71, 100
3, 187739, Note_on_c, 1, 71, 0
3, 187740, Note_on_c, 1, 72, 100
3, 187799, Note_on_c, 1, 72, 0
3, 187800, Note_on_c, 1, 74, 100
3, 187859, Note_on_c, 1, 74, 0
3, 187860, Note_on_c, 1, 71, 100
3, 187919, Note_on_c, 1, 71, 0
3, 187920, Note_on_c, 1, 76, 100
3, 187979, Note_on_c, 1, 76, 0
3, 187980, Note_on_c, 1, 74, 100
3, 188009, Note_on_c, 1, 74, 0
3, 188010, Note_on_c, 1, 72, 100
3, 188039, Note_on_c, 1, 72, 0
3, 188040, Note_on_c, 1, 71, 100
3, 188099, Note_on_c, 1, 71, 0
3, 188100, Note_on_c, 1, 76, 100
3, 188159, Note_on_c, 1, 76, 0
3, 188160, Note_on_c, 1, 72, 100
3, 188189, Note_on_c, 1, 72, 0
3, 188190, Note_on_c, 1, 71, 100
3, 188219, Note_on_c, 1, 71, 0
3, 188220, Note_on_c, 1, 72, 100
3, 188249, Note_on_c, 1, 72, 0
3, 188250, Note_on_c, 1, 74, 100
3, 188279, Note_on_c, 1, 74, 0
3, 188280, Note_on_c, 1, 76, 100
3, 188309, Note_on_c, 1, 76, 0
3, 188310, Note_on_c, 1, 74, 100
3, 188339, Note_on_c, 1, 74, 0
3, 188340, Note_on_c, 1, 72, 100
3, 188369, Note_on_c, 1, 72, 0
3, 188370, Note_on_c, 1, 71, 100
3, 188399, Note_on_c, 1, 71, 0
3, 188400, Note_on_c, 1, 69, 100
3, 188429, Note_on_c, 1, 69, 0
3, 188430, Note_on_c, 1, 67, 100
3, 188459, Note_on_c, 1, 67, 0
3, 188460, Note_on_c, 1, 69, 100
3, 188489, Note_on_c, 1, 69, 0
3, 188490, Note_on_c, 1, 71, 100
3, 188519, Note_on_c, 1, 71, 0
3, 188520, Note_on_c, 1, 72, 100
3, 188549, Note_on_c, 1, 72, 0
3, 188550, Note_on_c, 1, 71, 100
3, 188579, Note_on_c, 1, 71, 0
3, 188580, Note_on_c, 1, 69, 100
3, 188609, Note_on_c, 1, 69, 0
3, 188610, Note_on_c, 1, 67, 100
3, 188639, Note_on_c, 1, 67, 0
3, 188640, Note_on_c, 1, 66, 100
3, 188699, Note_on_c, 1, 66, 0
3, 189240, Note_on_c, 1, 76, 100
3, 189299, Note_on_c, 1, 76, 0
3, 189300, Note_on_c, 1, 74, 100
3, 189359, Note_on_c, 1, 74, 0
3, 189360, Note_on_c, 1, 72, 100
3, 189419, Note_on_c, 1, 72, 0
3, 189420, Note_on_c, 1, 74, 100
3, 189479, Note_on_c, 1, 74, 0
3, 189480, Note_on_c, 1, 76, 100
3, 189539, Note_on_c, 1, 76, 0
3, 189540, Note_on_c, 1, 72, 100
3, 189599, Note_on_c, 1, 72, 0
3, 189600, Note_on_c, 1, 77, 100
3, 189659, Note_on_c, 1, 77, 0
3, 189660, Note_on_c, 1, 76, 100
3, 189689, Note_on_c, 1, 76, 0
3, 189690, Note_on_c, 1, 74, 100
3, 189719, Note_on_c, 1, 74, 0
3, 189720, Note_on_c, 1, 72, 100
3, 189779, Note_on_c, 1, 72, 0
3, 189780, Note_on_c, 1, 77, 100
3, 189839, Note_on_c, 1, 77, 0
3, 189840, Note_on_c, 1, 74, 100
3, 189869, Note_on_c, 1, 74, 0
3, 189870, Note_on_c, 1, 72, 100
3, 189899, Note_on_c, 1, 72, 0
3, 189900, Note_on_c, 1, 74, 100
3, 189929, Note_on_c, 1, 74, 0
3, 189930, Note_on_c, 1, 76, 100
3, 189959, Note_on_c, 1, 76, 0
3, 189960, Note_on_c, 1, 77, 100
3, 189989, Note_on_c, 1, 77, 0
3, 189990, Note_on_c, 1, 76, 100
3, 190019, Note_on_c, 1, 76, 0
3, 190020, Note_on_c, 1, 74, 100
3, 190049, Note_on_c, 1, 74, 0
3, 190050, Note_on_c, 1, 72, 100
3, 190079, Note_on_c, 1, 72, 0
3, 190080, Note_on_c, 1, 71, 100
3, 190109, Note_on_c, 1, 71, 0
3, 190110, Note_on_c, 1, 69, 100
3, 190139, Note_on_c, 1, 69, 0
3, 190140, Note_on_c, 1, 71, 100
3, 190169, Note_on_c, 1, 71, 0
3, 190170, Note_on_c, 1, 72, 100
3, 190199, Note_on_c, 1, 72, 0
3, 190200, Note_on_c, 1, 74, 100
3, 190229, Note_on_c, 1, 74, 0
3, 190230, Note_on_c, 1, 76, 100
3, 190259, Note_on_c, 1, 76, 0
3, 190260, Note_on_c, 1, 77, 100
3, 190289, Note_on_c, 1, 77, 0
3, 190290, Note_on_c, 1, 74, 100
3, 190319, Note_on_c, 1, 74, 0
3, 190320, Note_on_c, 1, 76, 100
3, 190439, Note_on_c, 1, 76, 0
3, 190440, Note_on_c, 1, 72, 100
3, 190500, Note_on_c, 1, 72, 0
3, 190620, Note_on_c, 1, 72, 100
3, 190650, Note_on_c, 1, 72, 0
3, 190680, Note_on_c, 1, 71, 100
3, 190710, Note_on_c, 1, 71, 0
3, 190860, Note_on_c, 1, 74, 100
3, 190890, Note_on_c, 1, 74, 0
3, 190920, Note_on_c, 1, 76, 100
3, 190950, Note_on_c, 1, 76, 0
3, 191100, Note_on_c, 1, 76, 100
3, 191130, Note_on_c, 1, 76, 0
3, 191160, Note_on_c, 1, 77, 100
3, 191190, Note_on_c, 1, 77, 0
3, 191340, Note_on_c, 1, 77, 100
3, 191370, Note_on_c, 1, 77, 0
3, 191400, Note_on_c, 1, 79, 100
3, 191430, Note_on_c, 1, 79, 0
3, 191580, Note_on_c, 1, 79, 100
3, 191610, Note_on_c, 1, 79, 0
3, 191640, Note_on_c, 1, 81, 100
3, 191670, Note_on_c, 1, 81, 0
3, 191820, Note_on_c, 1, 81, 100
3, 191850, Note_on_c, 1, 81, 0
3, 191880, Note_on_c, 1, 83, 100
3, 191910, Note_on_c, 1, 83, 0
3, 192060, Note_on_c, 1, 83, 100
3, 192090, Note_on_c, 1, 83, 0
3, 192120, Note_on_c, 1, 76, 100
3, 192150, Note_on_c, 1, 76, 0
3, 192300, Note_on_c, 1, 81, 100
3, 192330, Note_on_c, 1, 81, 0
3, 192360, Note_on_c, 1, 79, 100
3, 192390, Note_on_c, 1, 79, 0
3, 192540, Note_on_c, 1, 79, 100
3, 192570, Note_on_c, 1, 79, 0
3, 192600, Note_on_c, 1, 78, 100
3, 192630, Note_on_c, 1, 78, 0
3, 192780, Note_on_c, 1, 83, 100
3, 192810, Note_on_c, 1, 83, 0
3, 192840, Note_on_c, 1, 79, 100
3, 192870, Note_on_c, 1, 79, 0
3, 193020, Note_on_c, 1, 78, 100
3, 193050, Note_on_c, 1, 78, 0
3, 193080, Note_on_c, 1, 79, 100
3, 193110, Note_on_c, 1, 79, 0
3, 193260, Note_on_c, 1, 79, 100
3, 193290, Note_on_c, 1, 79, 0
3, 193320, Note_on_c, 1, 74, 100
3, 193350, Note_on_c, 1, 74, 0
3, 193500, Note_on_c, 1, 74, 100
3, 193530, Note_on_c, 1, 74, 0
3, 193560, Note_on_c, 1, 79, 100
3, 193590, Note_on_c, 1, 79, 0
3, 193740, Note_on_c, 1, 76, 100
3, 193770, Note_on_c, 1, 76, 0
3, 193800, Note_on_c, 1, 78, 100
3, 193830, Note_on_c, 1, 78, 0
3, 193980, Note_on_c, 1, 81, 100
3, 194010, Note_on_c, 1, 81, 0
3, 194040, Note_on_c, 1, 74, 100
3, 194070, Note_on_c, 1, 74, 0
3, 194100, Note_on_c, 1, 78, 100
3, 194159, Note_on_c, 1, 78, 0
3, 194160, Note_on_c, 1, 79, 100
3, 194279, Note_on_c, 1, 79, 0
3, 194460, Note_on_c, 1, 71, 100
3, 194519, Note_on_c, 1, 71, 0
3, 194520, Note_on_c, 1, 72, 100
3, 194579, Note_on_c, 1, 72, 0
3, 194580, Note_on_c, 1, 76, 100
3, 194639, Note_on_c, 1, 76, 0
3, 194700, Note_on_c, 1, 69, 100
3, 194759, Note_on_c, 1, 69, 0
3, 194760, Note_on_c, 1, 71, 100
3, 194819, Note_on_c, 1, 71, 0
3, 194820, Note_on_c, 1, 74, 100
3, 194879, Note_on_c, 1, 74, 0
3, 194940, Note_on_c, 1, 67, 100
3, 194999, Note_on_c, 1, 67, 0
3, 195000, Note_on_c, 1, 69, 100
3, 195059, Note_on_c, 1, 69, 0
3, 195060, Note_on_c, 1, 72, 100
3, 195119, Note_on_c, 1, 72, 0
3, 195180, Note_on_c, 1, 72, 100
3, 195239, Note_on_c, 1, 72, 0
3, 195240, Note_on_c, 1, 71, 100
3, 195299, Note_on_c, 1, 71, 0
3, 195300, Note_on_c, 1, 74, 100
3, 195359, Note_on_c, 1, 74, 0
3, 195360, Note_on_c, 1, 79, 100
3, 195419, Note_on_c, 1, 79, 0
3, 195420, Note_on_c, 1, 71, 100
3, 195479, Note_on_c, 1, 71, 0
3, 195480, Note_on_c, 1, 72, 100
3, 195539, Note_on_c, 1, 72, 0
3, 195540, Note_on_c, 1, 76, 100
3, 195599, Note_on_c, 1, 76, 0
3, 195600, Note_on_c, 1, 74, 100
3, 195659, Note_on_c, 1, 74, 0
3, 195660, Note_on_c, 1, 66, 100
3, 195719, Note_on_c, 1, 66, 0
3, 195720, Note_on_c, 1, 67, 100
3, 195779, Note_on_c, 1, 67, 0
3, 195780, Note_on_c, 1, 71, 100
3, 195839, Note_on_c, 1, 71, 0
3, 195840, Note_on_c, 1, 76, 100
3, 195899, Note_on_c, 1, 76, 0
3, 195900, Note_on_c, 1, 67, 100
3, 195959, Note_on_c, 1, 67, 0
3, 195960, Note_on_c, 1, 72, 100
3, 196019, Note_on_c, 1, 72, 0
3, 196020, Note_on_c, 1, 78, 100
3, 196079, Note_on_c, 1, 78, 0
3, 196080, Note_on_c, 1, 79, 100
3, 196199, Note_on_c, 1, 79, 0
3, 196440, Note_on_c, 1, 76, 100
3, 196499, Note_on_c, 1, 76, 0
3, 196500, Note_on_c, 1, 74, 100
3, 196559, Note_on_c, 1, 74, 0
3, 196560, Note_on_c, 1, 72, 100
3, 196619, Note_on_c, 1, 72, 0
3, 196620, Note_on_c, 1, 74, 100
3, 196679, Note_on_c, 1, 74, 0
3, 196680, Note_on_c, 1, 76, 100
3, 196739, Note_on_c, 1, 76, 0
3, 196740, Note_on_c, 1, 72, 100
3, 196799, Note_on_c, 1, 72, 0
3, 196800, Note_on_c, 1, 74, 100
3, 196859, Note_on_c, 1, 74, 0
3, 196860, Note_on_c, 1, 72, 100
3, 196889, Note_on_c, 1, 72, 0
3, 196890, Note_on_c, 1, 71, 100
3, 196919, Note_on_c, 1, 71, 0
3, 196920, Note_on_c, 1, 69, 100
3, 196979, Note_on_c, 1, 69, 0
3, 196980, Note_on_c, 1, 74, 100
3, 197039, Note_on_c, 1, 74, 0
3, 197040, Note_on_c, 1, 71, 100
3, 197069, Note_on_c, 1, 71, 0
3, 197070, Note_on_c, 1, 69, 100
3, 197099, Note_on_c, 1, 69, 0
3, 197100, Note_on_c, 1, 71, 100
3, 197129, Note_on_c, 1, 71, 0
3, 197130, Note_on_c, 1, 72, 100
3, 197159, Note_on_c, 1, 72, 0
3, 197160, Note_on_c, 1, 74, 100
3, 197189, Note_on_c, 1, 74, 0
3, 197190, Note_on_c, 1, 72, 100
3, 197219, Note_on_c, 1, 72, 0
3, 197220, Note_on_c, 1, 71, 100
3, 197249, Note_on_c, 1, 71, 0
3, 197250, Note_on_c, 1, 69, 100
3, 197279, Note_on_c, 1, 69, 0
3, 197280, Note_on_c, 1, 67, 100
3, 197880, Note_on_c, 1, 67, 0
3, 197880, Note_on_c, 1, 66, 100
3, 198000, Note_on_c, 1, 66, 0
3, 198000, Note_on_c, 1, 67, 100
3, 198240, Note_on_c, 1, 67, 0
3, 203160, Note_on_c, 1, 83, 100
3, 203279, Note_on_c, 1, 83, 0
3, 203280, Note_on_c, 1, 81, 100
3, 203339, Note_on_c, 1, 81, 0
3, 203340, Note_on_c, 1, 81, 100
3, 203459, Note_on_c, 1, 81, 0
3, 203460, Note_on_c, 1, 79, 100
3, 203519, Note_on_c, 1, 79, 0
3, 203520, Note_on_c, 1, 79, 100
3, 203609, Note_on_c, 1, 79, 0
3, 203610, Note_on_c, 1, 88, 100
3, 203639, Note_on_c, 1, 88, 0
3, 203640, Note_on_c, 1, 86, 100
3, 203790, Note_on_c, 1, 86, 0
3, 203790, Note_on_c, 1, 79, 100
3, 203819, Note_on_c, 1, 79, 0
3, 203820, Note_on_c, 1, 78, 100
3, 203879, Note_on_c, 1, 78, 0
3, 203880, Note_on_c, 1, 79, 100
3, 203969, Note_on_c, 1, 79, 0
3, 203970, Note_on_c, 1, 88, 100
3, 203999, Note_on_c, 1, 88, 0
3, 204000, Note_on_c, 1, 86, 100
3, 204150, Note_on_c, 1, 86, 0
3, 204150, Note_on_c, 1, 79, 100
3, 204179, Note_on_c, 1, 79, 0
3, 204180, Note_on_c, 1, 78, 100
3, 204239, Note_on_c, 1, 78, 0
3, 204240, Note_on_c, 1, 79, 100
3, 204419, Note_on_c, 1, 79, 0
3, 205680, Note_on_c, 1, 79, 100
3, 205799, Note_on_c, 1, 79, 0
3, 205800, Note_on_c, 1, 78, 100
3, 205859, Note_on_c, 1, 78, 0
3, 205860, Note_on_c, 1, 78, 100
3, 205979, Note_on_c, 1, 78, 0
3, 205980, Note_on_c, 1, 76, 100
3, 206039, Note_on_c, 1, 76, 0
3, 206040, Note_on_c, 1, 76, 100
3, 206129, Note_on_c, 1, 76, 0
3, 206130, Note_on_c, 1, 84, 100
3, 206159, Note_on_c, 1, 84, 0
3, 206160, Note_on_c, 1, 83, 100
3, 206309, Note_on_c, 1, 83, 0
3, 206310, Note_on_c, 1, 76, 100
3, 206339, Note_on_c, 1, 76, 0
3, 206340, Note_on_c, 1, 75, 100
3, 206399, Note_on_c, 1, 75, 0
3, 206400, Note_on_c, 1, 76, 100
3, 206489, Note_on_c, 1, 76, 0
3, 206490, Note_on_c, 1, 84, 100
3, 206519, Note_on_c, 1, 84, 0
3, 206520, Note_on_c, 1, 83, 100
3, 206669, Note_on_c, 1, 83, 0
3, 206670, Note_on_c, 1, 76, 100
3, 206699, Note_on_c, 1, 76, 0
3, 206700, Note_on_c, 1, 75, 100
3, 206759, Note_on_c, 1, 75, 0
3, 206760, Note_on_c, 1, 76, 100
3, 206939, Note_on_c, 1, 76, 0
3, 208200, Note_on_c, 1, 78, 100
3, 208319, Note_on_c, 1, 78, 0
3, 208320, Note_on_c, 1, 76, 100
3, 208379, Note_on_c, 1, 76, 0
3, 208380, Note_on_c, 1, 76, 100
3, 208499, Note_on_c, 1, 76, 0
3, 208500, Note_on_c, 1, 74, 100
3, 208559, Note_on_c, 1, 74, 0
3, 208560, Note_on_c, 1, 74, 100
3, 208649, Note_on_c, 1, 74, 0
3, 208650, Note_on_c, 1, 83, 100
3, 208679, Note_on_c, 1, 83, 0
3, 208680, Note_on_c, 1, 81, 100
3, 208829, Note_on_c, 1, 81, 0
3, 208830, Note_on_c, 1, 74, 100
3, 208859, Note_on_c, 1, 74, 0
3, 208860, Note_on_c, 1, 73, 100
3, 208919, Note_on_c, 1, 73, 0
3, 208920, Note_on_c, 1, 74, 100
3, 209009, Note_on_c, 1, 74, 0
3, 209010, Note_on_c, 1, 83, 100
3, 209039, Note_on_c, 1, 83, 0
3, 209040, Note_on_c, 1, 81, 100
3, 209189, Note_on_c, 1, 81, 0
3, 209190, Note_on_c, 1, 74, 100
3, 209219, Note_on_c, 1, 74, 0
3, 209220, Note_on_c, 1, 73, 100
3, 209279, Note_on_c, 1, 73, 0
3, 209280, Note_on_c, 1, 74, 100
3, 209459, Note_on_c, 1, 74, 0
3, 210720, Note_on_c, 1, 83, 100
3, 210839, Note_on_c, 1, 83, 0
3, 210840, Note_on_c, 1, 81, 100
3, 210899, Note_on_c, 1, 81, 0
3, 210900, Note_on_c, 1, 81, 100
3, 211019, Note_on_c, 1, 81, 0
3, 211020, Note_on_c, 1, 79, 100
3, 211079, Note_on_c, 1, 79, 0
3, 211080, Note_on_c, 1, 79, 100
3, 211169, Note_on_c, 1, 79, 0
3, 211170, Note_on_c, 1, 88, 100
3, 211199, Note_on_c, 1, 88, 0
3, 211200, Note_on_c, 1, 86, 100
3, 211349, Note_on_c, 1, 86, 0
3, 211350, Note_on_c, 1, 79, 100
3, 211379, Note_on_c, 1, 79, 0
3, 211380, Note_on_c, 1, 78, 100
3, 211439, Note_on_c, 1, 78, 0
3, 211440, Note_on_c, 1, 79, 100
3, 211529, Note_on_c, 1, 79, 0
3, 211530, Note_on_c, 1, 88, 100
3, 211559, Note_on_c, 1, 88, 0
3, 211560, Note_on_c, 1, 86, 100
3, 211709, Note_on_c, 1, 86, 0
3, 211710, Note_on_c, 1, 79, 100
3, 211739, Note_on_c, 1, 79, 0
3, 211740, Note_on_c, 1, 78, 100
3, 211799, Note_on_c, 1, 78, 0
3, 211800, Note_on_c, 1, 79, 100
3, 211980, Note_on_c, 1, 79, 0
3, 211980, End_track
4, 0, Start_track
4, 0, MIDI_port, 0
4, 0, Title_t, "Oboe D'amore I"
4, 0, Program_c, 2, 68
4, 0, Control_c, 2, 7, 127
4, 0, Control_c, 2, 10, 83
4, 6120, Note_on_c, 2, 71, 100
4, 6240, Note_on_c, 2, 71, 0
4, 6240, Note_on_c, 2, 69, 100
4, 6300, Note_on_c, 2, 69, 0
4, 6300, Note_on_c, 2, 69, 100
4, 6420, Note_on_c, 2, 69, 0
4, 6420, Note_on_c, 2, 67, 100
4, 6480, Note_on_c, 2, 67, 0
4, 6480, Note_on_c, 2, 67, 100
4, 6570, Note_on_c, 2, 67, 0
4, 6570, Note_on_c, 2, 76, 100
4, 6600, Note_on_c, 2, 76, 0
4, 6600, Note_on_c, 2, 74, 100
4, 6750, Note_on_c, 2, 74, 0
4, 6750, Note_on_c, 2, 67, 100
4, 6780, Note_on_c, 2, 67, 0
4, 6780, Note_on_c, 2, 66, 100
4, 6840, Note_on_c, 2, 66, 0
4, 6840, Note_on_c, 2, 67, 100
4, 6930, Note_on_c, 2, 67, 0
4, 6930, Note_on_c, 2, 76, 100
4, 6960, Note_on_c, 2, 76, 0
4, 6960, Note_on_c, 2, 74, 100
4, 7110, Note_on_c, 2, 74, 0
4, 7110, Note_on_c, 2, 67, 100
4, 7140, Note_on_c, 2, 67, 0
4, 7140, Note_on_c, 2, 66, 100
4, 7200, Note_on_c, 2, 66, 0
4, 7200, Note_on_c, 2, 67, 100
4, 7320, Note_on_c, 2, 67, 0
4, 7560, Note_on_c, 2, 71, 100
4, 7680, Note_on_c, 2, 71, 0
4, 7680, Note_on_c, 2, 75, 100
4, 7740, Note_on_c, 2, 75, 0
4, 7740, Note_on_c, 2, 75, 100
4, 7860, Note_on_c, 2, 75, 0
4, 7860, Note_on_c, 2, 76, 100
4, 7920, Note_on_c, 2, 76, 0
4, 7920, Note_on_c, 2, 76, 100
4, 8040, Note_on_c, 2, 76, 0
4, 8040, Note_on_c, 2, 69, 100
4, 8100, Note_on_c, 2, 69, 0
4, 8100, Note_on_c, 2, 67, 100
4, 8220, Note_on_c, 2, 67, 0
4, 8220, Note_on_c, 2, 72, 100
4, 8280, Note_on_c, 2, 72, 0
4, 8280, Note_on_c, 2, 71, 100
4, 8400, Note_on_c, 2, 71, 0
4, 8400, Note_on_c, 2, 75, 100
4, 8460, Note_on_c, 2, 75, 0
4, 8460, Note_on_c, 2, 76, 100
4, 8580, Note_on_c, 2, 76, 0
4, 8580, Note_on_c, 2, 81, 100
4, 8640, Note_on_c, 2, 81, 0
4, 8640, Note_on_c, 2, 79, 100
4, 8760, Note_on_c, 2, 79, 0
4, 9000, Note_on_c, 2, 76, 100
4, 9120, Note_on_c, 2, 76, 0
4, 9120, Note_on_c, 2, 74, 100
4, 9180, Note_on_c, 2, 74, 0
4, 9180, Note_on_c, 2, 74, 100
4, 9300, Note_on_c, 2, 74, 0
4, 9300, Note_on_c, 2, 72, 100
4, 9360, Note_on_c, 2, 72, 0
4, 9360, Note_on_c, 2, 72, 100
4, 9450, Note_on_c, 2, 72, 0
4, 9450, Note_on_c, 2, 81, 100
4, 9480, Note_on_c, 2, 81, 0
4, 9480, Note_on_c, 2, 79, 100
4, 9630, Note_on_c, 2, 79, 0
4, 9630, Note_on_c, 2, 72, 100
4, 9660, Note_on_c, 2, 72, 0
4, 9660, Note_on_c, 2, 71, 100
4, 9720, Note_on_c, 2, 71, 0
4, 9720, Note_on_c, 2, 72, 100
4, 9810, Note_on_c, 2, 72, 0
4, 9810, Note_on_c, 2, 81, 100
4, 9840, Note_on_c, 2, 81, 0
4, 9840, Note_on_c, 2, 79, 100
4, 9990, Note_on_c, 2, 79, 0
4, 9990, Note_on_c, 2, 72, 100
4, 10020, Note_on_c, 2, 72, 0
4, 10020, Note_on_c, 2, 71, 100
4, 10080, Note_on_c, 2, 71, 0
4, 10080, Note_on_c, 2, 72, 100
4, 10200, Note_on_c, 2, 72, 0
4, 11280, Note_on_c, 2, 81, 100
4, 11340, Note_on_c, 2, 81, 0
4, 11340, Note_on_c, 2, 72, 100
4, 11580, Note_on_c, 2, 72, 0
4, 11580, Note_on_c, 2, 71, 100
4, 11640, Note_on_c, 2, 71, 0
4, 12600, Note_on_c, 2, 76, 100
4, 15120, Note_on_c, 2, 76, 0
4, 15120, Note_on_c, 2, 75, 100
4, 15210, Note_on_c, 2, 75, 0
4, 15210, Note_on_c, 2, 72, 100
4, 15240, Note_on_c, 2, 72, 0
4, 15240, Note_on_c, 2, 71, 100
4, 15390, Note_on_c, 2, 71, 0
4, 15390, Note_on_c, 2, 64, 100
4, 15420, Note_on_c, 2, 64, 0
4, 15420, Note_on_c, 2, 63, 100
4, 15480, Note_on_c, 2, 63, 0
4, 15480, Note_on_c, 2, 64, 100
4, 15570, Note_on_c, 2, 64, 0
4, 15570, Note_on_c, 2, 66, 100
4, 15600, Note_on_c, 2, 66, 0
4, 15600, Note_on_c, 2, 67, 100
4, 15660, Note_on_c, 2, 67, 0
4, 15660, Note_on_c, 2, 66, 100
4, 15750, Note_on_c, 2, 66, 0
4, 15750, Note_on_c, 2, 67, 100
4, 15780, Note_on_c, 2, 67, 0
4, 15780, Note_on_c, 2, 69, 100
4, 15840, Note_on_c, 2, 69, 0
4, 15840, Note_on_c, 2, 67, 100
4, 15960, Note_on_c, 2, 67, 0
4, 19440, Note_on_c, 2, 78, 100
4, 19560, Note_on_c, 2, 78, 0
4, 19560, Note_on_c, 2, 76, 100
4, 19620, Note_on_c, 2, 76, 0
4, 19620, Note_on_c, 2, 76, 100
4, 19740, Note_on_c, 2, 76, 0
4, 19740, Note_on_c, 2, 74, 100
4, 19800, Note_on_c, 2, 74, 0
4, 19800, Note_on_c, 2, 74, 100
4, 19890, Note_on_c, 2, 74, 0
4, 19890, Note_on_c, 2, 83, 100
4, 19920, Note_on_c, 2, 83, 0
4, 19920, Note_on_c, 2, 81, 100
4, 20070, Note_on_c, 2, 81, 0
4, 20070, Note_on_c, 2, 74, 100
4, 20100, Note_on_c, 2, 74, 0
4, 20100, Note_on_c, 2, 73, 100
4, 20160, Note_on_c, 2, 73, 0
4, 20160, Note_on_c, 2, 74, 100
4, 20250, Note_on_c, 2, 74, 0
4, 20250, Note_on_c, 2, 83, 100
4, 20280, Note_on_c, 2, 83, 0
4, 20280, Note_on_c, 2, 81, 100
4, 20430, Note_on_c, 2, 81, 0
4, 20430, Note_on_c, 2, 74, 100
4, 20460, Note_on_c, 2, 74, 0
4, 20460, Note_on_c, 2, 73, 100
4, 20520, Note_on_c, 2, 73, 0
4, 20520, Note_on_c, 2, 74, 100
4, 20640, Note_on_c, 2, 74, 0
4, 20880, Note_on_c, 2, 74, 90
4, 20999, Note_on_c, 2, 74, 0
4, 21000, Note_on_c, 2, 79, 90
4, 21059, Note_on_c, 2, 79, 0
4, 21060, Note_on_c, 2, 70, 90
4, 21179, Note_on_c, 2, 70, 0
4, 21180, Note_on_c, 2, 78, 90
4, 21239, Note_on_c, 2, 78, 0
4, 21240, Note_on_c, 2, 66, 90
4, 21359, Note_on_c, 2, 66, 0
4, 21360, Note_on_c, 2, 70, 90
4, 21419, Note_on_c, 2, 70, 0
4, 21420, Note_on_c, 2, 71, 90
4, 21539, Note_on_c, 2, 71, 0
4, 21540, Note_on_c, 2, 79, 90
4, 21599, Note_on_c, 2, 79, 0
4, 21600, Note_on_c, 2, 78, 90
4, 21719, Note_on_c, 2, 78, 0
4, 21720, Note_on_c, 2, 70, 90
4, 21779, Note_on_c, 2, 70, 0
4, 21780, Note_on_c, 2, 71, 90
4, 21899, Note_on_c, 2, 71, 0
4, 21900, Note_on_c, 2, 79, 90
4, 21959, Note_on_c, 2, 79, 0
4, 21960, Note_on_c, 2, 78, 90
4, 22079, Note_on_c, 2, 78, 0
4, 23340, Note_on_c, 2, 79, 100
4, 23400, Note_on_c, 2, 79, 0
4, 23400, Note_on_c, 2, 78, 100
4, 23460, Note_on_c, 2, 78, 0
4, 23460, Note_on_c, 2, 71, 100
4, 23520, Note_on_c, 2, 71, 0
4, 23520, Note_on_c, 2, 70, 100
4, 23580, Note_on_c, 2, 70, 0
4, 23580, Note_on_c, 2, 71, 100
4, 23700, Note_on_c, 2, 71, 0
4, 25320, Note_on_c, 2, 71, 100
4, 25470, Note_on_c, 2, 71, 0
4, 25470, Note_on_c, 2, 70, 100
4, 25500, Note_on_c, 2, 70, 0
4, 25500, Note_on_c, 2, 76, 90
4, 25559, Note_on_c, 2, 76, 0
4, 25560, Note_on_c, 2, 74, 90
4, 25679, Note_on_c, 2, 74, 0
4, 25680, Note_on_c, 2, 76, 90
4, 25739, Note_on_c, 2, 76, 0
4, 25740, Note_on_c, 2, 76, 90
4, 25859, Note_on_c, 2, 76, 0
4, 25860, Note_on_c, 2, 78, 90
4, 25919, Note_on_c, 2, 78, 0
4, 25920, Note_on_c, 2, 78, 90
4, 26039, Note_on_c, 2, 78, 0
4, 26040, Note_on_c, 2, 73, 90
4, 26099, Note_on_c, 2, 73, 0
4, 26100, Note_on_c, 2, 73, 90
4, 26219, Note_on_c, 2, 73, 0
4, 26220, Note_on_c, 2, 74, 90
4, 26279, Note_on_c, 2, 74, 0
4, 26280, Note_on_c, 2, 74, 90
4, 26399, Note_on_c, 2, 74, 0
4, 26400, Note_on_c, 2, 75, 90
4, 26459, Note_on_c, 2, 75, 0
4, 26460, Note_on_c, 2, 75, 90
4, 26579, Note_on_c, 2, 75, 0
4, 26580, Note_on_c, 2, 76, 90
4, 26639, Note_on_c, 2, 76, 0
4, 26640, Note_on_c, 2, 76, 90
4, 26759, Note_on_c, 2, 76, 0
4, 26760, Note_on_c, 2, 78, 90
4, 26819, Note_on_c, 2, 78, 0
4, 26820, Note_on_c, 2, 78, 90
4, 26939, Note_on_c, 2, 78, 0
4, 26940, Note_on_c, 2, 79, 90
4, 26999, Note_on_c, 2, 79, 0
4, 27000, Note_on_c, 2, 79, 90
4, 27119, Note_on_c, 2, 79, 0
4, 27120, Note_on_c, 2, 67, 90
4, 27179, Note_on_c, 2, 67, 0
4, 27180, Note_on_c, 2, 71, 90
4, 27299, Note_on_c, 2, 71, 0
4, 27300, Note_on_c, 2, 76, 90
4, 27359, Note_on_c, 2, 76, 0
4, 27360, Note_on_c, 2, 74, 90
4, 27479, Note_on_c, 2, 74, 0
4, 27480, Note_on_c, 2, 78, 90
4, 27539, Note_on_c, 2, 78, 0
4, 27540, Note_on_c, 2, 71, 90
4, 27629, Note_on_c, 2, 71, 0
4, 27630, Note_on_c, 2, 73, 90
4, 27659, Note_on_c, 2, 73, 0
4, 27660, Note_on_c, 2, 74, 90
4, 27719, Note_on_c, 2, 74, 0
4, 27720, Note_on_c, 2, 73, 100
4, 28200, Note_on_c, 2, 73, 0
4, 28200, Note_on_c, 2, 73, 100
4, 28260, Note_on_c, 2, 73, 0
4, 28260, Note_on_c, 2, 74, 100
4, 28380, Note_on_c, 2, 74, 0
4, 28380, Note_on_c, 2, 79, 100
4, 28440, Note_on_c, 2, 79, 0
4, 28440, Note_on_c, 2, 78, 100
4, 28530, Note_on_c, 2, 78, 0
4, 28530, Note_on_c, 2, 73, 100
4, 28560, Note_on_c, 2, 73, 0
4, 28560, Note_on_c, 2, 74, 100
4, 28710, Note_on_c, 2, 74, 0
4, 28710, Note_on_c, 2, 76, 100
4, 28740, Note_on_c, 2, 76, 0
4, 28740, Note_on_c, 2, 73, 100
4, 28800, Note_on_c, 2, 73, 0
4, 28800, Note_on_c, 2, 71, 90
4, 28919, Note_on_c, 2, 71, 0
4, 28920, Note_on_c, 2, 74, 90
4, 28979, Note_on_c, 2, 74, 0
4, 28980, Note_on_c, 2, 74, 90
4, 29099, Note_on_c, 2, 74, 0
4, 29100, Note_on_c, 2, 77, 90
4, 29159, Note_on_c, 2, 77, 0
4, 29160, Note_on_c, 2, 77, 90
4, 29279, Note_on_c, 2, 77, 0
4, 29280, Note_on_c, 2, 76, 90
4, 29339, Note_on_c, 2, 76, 0
4, 30330, Note_on_c, 2, 70, 100
4, 30360, Note_on_c, 2, 70, 0
4, 30360, Note_on_c, 2, 69, 100
4, 30510, Note_on_c, 2, 69, 0
4, 30510, Note_on_c, 2, 72, 100
4, 30540, Note_on_c, 2, 72, 0
4, 30540, Note_on_c, 2, 71, 100
4, 30600, Note_on_c, 2, 71, 0
4, 30600, Note_on_c, 2, 72, 100
4, 30690, Note_on_c, 2, 72, 0
4, 30690, Note_on_c, 2, 82, 100
4, 30720, Note_on_c, 2, 82, 0
4, 30720, Note_on_c, 2, 81, 100
4, 30870, Note_on_c, 2, 81, 0
4, 30870, Note_on_c, 2, 71, 100
4, 30900, Note_on_c, 2, 71, 0
4, 30900, Note_on_c, 2, 69, 100
4, 30960, Note_on_c, 2, 69, 0
4, 30960, Note_on_c, 2, 71, 100
4, 31080, Note_on_c, 2, 71, 0
4, 33840, Note_on_c, 2, 71, 100
4, 33960, Note_on_c, 2, 71, 0
4, 33960, Note_on_c, 2, 69, 100
4, 34020, Note_on_c, 2, 69, 0
4, 34020, Note_on_c, 2, 69, 100
4, 34140, Note_on_c, 2, 69, 0
4, 34140, Note_on_c, 2, 67, 100
4, 34200, Note_on_c, 2, 67, 0
4, 34200, Note_on_c, 2, 67, 100
4, 34290, Note_on_c, 2, 67, 0
4, 34290, Note_on_c, 2, 76, 100
4, 34320, Note_on_c, 2, 76, 0
4, 34320, Note_on_c, 2, 74, 100
4, 34470, Note_on_c, 2, 74, 0
4, 34470, Note_on_c, 2, 67, 100
4, 34500, Note_on_c, 2, 67, 0
4, 34500, Note_on_c, 2, 66, 100
4, 34560, Note_on_c, 2, 66, 0
4, 34560, Note_on_c, 2, 67, 100
4, 34650, Note_on_c, 2, 67, 0
4, 34650, Note_on_c, 2, 76, 100
4, 34680, Note_on_c, 2, 76, 0
4, 34680, Note_on_c, 2, 74, 100
4, 34830, Note_on_c, 2, 74, 0
4, 34830, Note_on_c, 2, 67, 100
4, 34860, Note_on_c, 2, 67, 0
4, 34860, Note_on_c, 2, 66, 100
4, 34920, Note_on_c, 2, 66, 0
4, 34920, Note_on_c, 2, 67, 100
4, 35040, Note_on_c, 2, 67, 0
4, 35280, Note_on_c, 2, 71, 100
4, 35400, Note_on_c, 2, 71, 0
4, 35400, Note_on_c, 2, 75, 100
4, 35460, Note_on_c, 2, 75, 0
4, 35460, Note_on_c, 2, 75, 100
4, 35580, Note_on_c, 2, 75, 0
4, 35580, Note_on_c, 2, 76, 100
4, 35640, Note_on_c, 2, 76, 0
4, 35640, Note_on_c, 2, 76, 100
4, 35760, Note_on_c, 2, 76, 0
4, 35760, Note_on_c, 2, 69, 100
4, 35820, Note_on_c, 2, 69, 0
4, 35820, Note_on_c, 2, 67, 100
4, 35940, Note_on_c, 2, 67, 0
4, 35940, Note_on_c, 2, 72, 100
4, 36000, Note_on_c, 2, 72, 0
4, 36000, Note_on_c, 2, 71, 100
4, 36120, Note_on_c, 2, 71, 0
4, 36120, Note_on_c, 2, 75, 100
4, 36180, Note_on_c, 2, 75, 0
4, 36180, Note_on_c, 2, 76, 100
4, 36300, Note_on_c, 2, 76, 0
4, 36300, Note_on_c, 2, 81, 100
4, 36360, Note_on_c, 2, 81, 0
4, 36360, Note_on_c, 2, 79, 100
4, 36480, Note_on_c, 2, 79, 0
4, 36720, Note_on_c, 2, 76, 100
4, 36840, Note_on_c, 2, 76, 0
4, 36840, Note_on_c, 2, 74, 100
4, 36900, Note_on_c, 2, 74, 0
4, 36900, Note_on_c, 2, 74, 100
4, 37020, Note_on_c, 2, 74, 0
4, 37020, Note_on_c, 2, 72, 100
4, 37080, Note_on_c, 2, 72, 0
4, 37080, Note_on_c, 2, 72, 100
4, 37170, Note_on_c, 2, 72, 0
4, 37170, Note_on_c, 2, 81, 100
4, 37200, Note_on_c, 2, 81, 0
4, 37200, Note_on_c, 2, 79, 100
4, 37350, Note_on_c, 2, 79, 0
4, 37350, Note_on_c, 2, 72, 100
4, 37380, Note_on_c, 2, 72, 0
4, 37380, Note_on_c, 2, 71, 100
4, 37440, Note_on_c, 2, 71, 0
4, 37440, Note_on_c, 2, 72, 100
4, 37530, Note_on_c, 2, 72, 0
4, 37530, Note_on_c, 2, 81, 100
4, 37560, Note_on_c, 2, 81, 0
4, 37560, Note_on_c, 2, 79, 100
4, 37710, Note_on_c, 2, 79, 0
4, 37710, Note_on_c, 2, 72, 100
4, 37740, Note_on_c, 2, 72, 0
4, 37740, Note_on_c, 2, 71, 100
4, 37800, Note_on_c, 2, 71, 0
4, 37800, Note_on_c, 2, 72, 100
4, 37920, Note_on_c, 2, 72, 0
4, 40680, Note_on_c, 2, 71, 90
4, 40799, Note_on_c, 2, 71, 0
4, 40800, Note_on_c, 2, 72, 90
4, 40859, Note_on_c, 2, 72, 0
4, 40860, Note_on_c, 2, 72, 90
4, 40979, Note_on_c, 2, 72, 0
4, 40980, Note_on_c, 2, 74, 90
4, 41039, Note_on_c, 2, 74, 0
4, 41040, Note_on_c, 2, 74, 90
4, 41159, Note_on_c, 2, 74, 0
4, 41160, Note_on_c, 2, 69, 90
4, 41219, Note_on_c, 2, 69, 0
4, 41220, Note_on_c, 2, 69, 90
4, 41339, Note_on_c, 2, 69, 0
4, 41340, Note_on_c, 2, 71, 90
4, 41399, Note_on_c, 2, 71, 0
4, 41400, Note_on_c, 2, 71, 100
4, 41700, Note_on_c, 2, 71, 0
4, 41700, Note_on_c, 2, 72, 90
4, 41759, Note_on_c, 2, 72, 0
4, 41760, Note_on_c, 2, 72, 90
4, 41879, Note_on_c, 2, 72, 0
4, 41880, Note_on_c, 2, 74, 90
4, 41939, Note_on_c, 2, 74, 0
4, 41940, Note_on_c, 2, 74, 90
4, 42059, Note_on_c, 2, 74, 0
4, 42060, Note_on_c, 2, 76, 90
4, 42119, Note_on_c, 2, 76, 0
4, 42120, Note_on_c, 2, 76, 90
4, 42239, Note_on_c, 2, 76, 0
4, 42240, Note_on_c, 2, 69, 90
4, 42299, Note_on_c, 2, 69, 0
4, 42300, Note_on_c, 2, 69, 90
4, 42389, Note_on_c, 2, 69, 0
4, 42390, Note_on_c, 2, 67, 90
4, 42419, Note_on_c, 2, 67, 0
4, 42420, Note_on_c, 2, 69, 90
4, 42479, Note_on_c, 2, 69, 0
4, 42480, Note_on_c, 2, 70, 90
4, 42599, Note_on_c, 2, 70, 0
4, 42600, Note_on_c, 2, 67, 90
4, 42659, Note_on_c, 2, 67, 0
4, 42660, Note_on_c, 2, 62, 90
4, 42779, Note_on_c, 2, 62, 0
4, 42780, Note_on_c, 2, 67, 90
4, 42839, Note_on_c, 2, 67, 0
4, 42840, Note_on_c, 2, 76, 90
4, 42959, Note_on_c, 2, 76, 0
4, 42960, Note_on_c, 2, 73, 90
4, 43019, Note_on_c, 2, 73, 0
4, 43020, Note_on_c, 2, 69, 90
4, 43139, Note_on_c, 2, 69, 0
4, 43140, Note_on_c, 2, 76, 90
4, 43199, Note_on_c, 2, 76, 0
4, 43200, Note_on_c, 2, 78, 90
4, 43289, Note_on_c, 2, 78, 0
4, 43290, Note_on_c, 2, 76, 90
4, 43319, Note_on_c, 2, 76, 0
4, 43320, Note_on_c, 2, 74, 100
4, 43470, Note_on_c, 2, 74, 0
4, 43470, Note_on_c, 2, 79, 90
4, 43499, Note_on_c, 2, 79, 0
4, 43500, Note_on_c, 2, 78, 90
4, 43560, Note_on_c, 2, 78, 0
4, 43560, Note_on_c, 2, 79, 90
4, 43650, Note_on_c, 2, 79, 0
4, 43650, Note_on_c, 2, 81, 90
4, 43679, Note_on_c, 2, 81, 0
4, 43680, Note_on_c, 2, 83, 90
4, 43740, Note_on_c, 2, 83, 0
4, 43740, Note_on_c, 2, 74, 90
4, 43860, Note_on_c, 2, 74, 0
4, 43860, Note_on_c, 2, 78, 90
4, 43920, Note_on_c, 2, 78, 0
4, 43920, Note_on_c, 2, 79, 90
4, 44040, Note_on_c, 2, 79, 0
4, 44370, Note_on_c, 2, 76, 90
4, 44400, Note_on_c, 2, 76, 0
4, 44400, Note_on_c, 2, 74, 90
4, 44550, Note_on_c, 2, 74, 0
4, 44550, Note_on_c, 2, 67, 90
4, 44580, Note_on_c, 2, 67, 0
4, 44580, Note_on_c, 2, 66, 90
4, 44640, Note_on_c, 2, 66, 0
4, 44640, Note_on_c, 2, 67, 90
4, 45000, Note_on_c, 2, 67, 0
4, 50520, Note_on_c, 2, 67, 90
4, 50639, Note_on_c, 2, 67, 0
4, 50640, Note_on_c, 2, 67, 90
4, 50759, Note_on_c, 2, 67, 0
4, 50760, Note_on_c, 2, 69, 90
4, 50879, Note_on_c, 2, 69, 0
4, 50880, Note_on_c, 2, 71, 90
4, 50939, Note_on_c, 2, 71, 0
4, 50940, Note_on_c, 2, 73, 90
4, 50999, Note_on_c, 2, 73, 0
4, 51000, Note_on_c, 2, 74, 90
4, 51119, Note_on_c, 2, 74, 0
4, 51120, Note_on_c, 2, 74, 90
4, 51239, Note_on_c, 2, 74, 0
4, 51240, Note_on_c, 2, 73, 90
4, 51359, Note_on_c, 2, 73, 0
4, 51360, Note_on_c, 2, 74, 90
4, 51449, Note_on_c, 2, 74, 0
4, 51480, Note_on_c, 2, 71, 90
4, 51599, Note_on_c, 2, 71, 0
4, 51600, Note_on_c, 2, 72, 90
4, 51719, Note_on_c, 2, 72, 0
4, 51720, Note_on_c, 2, 71, 90
4, 51839, Note_on_c, 2, 71, 0
4, 51840, Note_on_c, 2, 69, 90
4, 51959, Note_on_c, 2, 69, 0
4, 51960, Note_on_c, 2, 71, 90
4, 52079, Note_on_c, 2, 71, 0
4, 52080, Note_on_c, 2, 69, 90
4, 52319, Note_on_c, 2, 69, 0
4, 52320, Note_on_c, 2, 67, 90
4, 52409, Note_on_c, 2, 67, 0
4, 52440, Note_on_c, 2, 67, 90
4, 52559, Note_on_c, 2, 67, 0
4, 52560, Note_on_c, 2, 67, 90
4, 52679, Note_on_c, 2, 67, 0
4, 52680, Note_on_c, 2, 69, 90
4, 52799, Note_on_c, 2, 69, 0
4, 52800, Note_on_c, 2, 71, 90
4, 52859, Note_on_c, 2, 71, 0
4, 52860, Note_on_c, 2, 73, 90
4, 52919, Note_on_c, 2, 73, 0
4, 52920, Note_on_c, 2, 74, 90
4, 53039, Note_on_c, 2, 74, 0
4, 53040, Note_on_c, 2, 74, 90
4, 53159, Note_on_c, 2, 74, 0
4, 53160, Note_on_c, 2, 73, 90
4, 53279, Note_on_c, 2, 73, 0
4, 53280, Note_on_c, 2, 74, 90
4, 53369, Note_on_c, 2, 74, 0
4, 53400, Note_on_c, 2, 71, 90
4, 53519, Note_on_c, 2, 71, 0
4, 53520, Note_on_c, 2, 72, 90
4, 53639, Note_on_c, 2, 72, 0
4, 53640, Note_on_c, 2, 71, 90
4, 53759, Note_on_c, 2, 71, 0
4, 53760, Note_on_c, 2, 69, 90
4, 53879, Note_on_c, 2, 69, 0
4, 53880, Note_on_c, 2, 71, 90
4, 53999, Note_on_c, 2, 71, 0
4, 54000, Note_on_c, 2, 69, 90
4, 54239, Note_on_c, 2, 69, 0
4, 54240, Note_on_c, 2, 67, 90
4, 54329, Note_on_c, 2, 67, 0
4, 54360, Note_on_c, 2, 69, 90
4, 54479, Note_on_c, 2, 69, 0
4, 54480, Note_on_c, 2, 69, 90
4, 54599, Note_on_c, 2, 69, 0
4, 54600, Note_on_c, 2, 71, 90
4, 54719, Note_on_c, 2, 71, 0
4, 54720, Note_on_c, 2, 72, 90
4, 54839, Note_on_c, 2, 72, 0
4, 54840, Note_on_c, 2, 72, 90
4, 54959, Note_on_c, 2, 72, 0
4, 54960, Note_on_c, 2, 71, 90
4, 55019, Note_on_c, 2, 71, 0
4, 55020, Note_on_c, 2, 69, 90
4, 55079, Note_on_c, 2, 69, 0
4, 55080, Note_on_c, 2, 71, 90
4, 55199, Note_on_c, 2, 71, 0
4, 55200, Note_on_c, 2, 69, 90
4, 55289, Note_on_c, 2, 69, 0
4, 55320, Note_on_c, 2, 71, 90
4, 55439, Note_on_c, 2, 71, 0
4, 55440, Note_on_c, 2, 71, 90
4, 55559, Note_on_c, 2, 71, 0
4, 55560, Note_on_c, 2, 71, 90
4, 55679, Note_on_c, 2, 71, 0
4, 55680, Note_on_c, 2, 72, 90
4, 55739, Note_on_c, 2, 72, 0
4, 55740, Note_on_c, 2, 74, 90
4, 55799, Note_on_c, 2, 74, 0
4, 55800, Note_on_c, 2, 76, 90
4, 55919, Note_on_c, 2, 76, 0
4, 55920, Note_on_c, 2, 76, 90
4, 56039, Note_on_c, 2, 76, 0
4, 56040, Note_on_c, 2, 75, 90
4, 56159, Note_on_c, 2, 75, 0
4, 56160, Note_on_c, 2, 76, 90
4, 56249, Note_on_c, 2, 76, 0
4, 56280, Note_on_c, 2, 78, 90
4, 56399, Note_on_c, 2, 78, 0
4, 56400, Note_on_c, 2, 79, 90
4, 56519, Note_on_c, 2, 79, 0
4, 56520, Note_on_c, 2, 71, 90
4, 56639, Note_on_c, 2, 71, 0
4, 56640, Note_on_c, 2, 72, 90
4, 56759, Note_on_c, 2, 72, 0
4, 56760, Note_on_c, 2, 71, 90
4, 56879, Note_on_c, 2, 71, 0
4, 56880, Note_on_c, 2, 69, 90
4, 57119, Note_on_c, 2, 69, 0
4, 57120, Note_on_c, 2, 69, 90
4, 57209, Note_on_c, 2, 69, 0
4, 57240, Note_on_c, 2, 74, 90
4, 57359, Note_on_c, 2, 74, 0
4, 57360, Note_on_c, 2, 76, 90
4, 57479, Note_on_c, 2, 76, 0
4, 57480, Note_on_c, 2, 74, 90
4, 57599, Note_on_c, 2, 74, 0
4, 57600, Note_on_c, 2, 72, 90
4, 57719, Note_on_c, 2, 72, 0
4, 57720, Note_on_c, 2, 71, 90
4, 57779, Note_on_c, 2, 71, 0
4, 57780, Note_on_c, 2, 72, 90
4, 57839, Note_on_c, 2, 72, 0
4, 57840, Note_on_c, 2, 69, 90
4, 58079, Note_on_c, 2, 69, 0
4, 58080, Note_on_c, 2, 67, 90
4, 58199, Note_on_c, 2, 67, 0
4, 62400, Note_on_c, 2, 74, 100
4, 62520, Note_on_c, 2, 74, 0
4, 62880, Note_on_c, 2, 76, 100
4, 63000, Note_on_c, 2, 76, 0
4, 63360, Note_on_c, 2, 78, 100
4, 63480, Note_on_c, 2, 78, 0
4, 63600, Note_on_c, 2, 79, 100
4, 63720, Note_on_c, 2, 79, 0
4, 64200, Note_on_c, 2, 76, 100
4, 64320, Note_on_c, 2, 76, 0
4, 64560, Note_on_c, 2, 74, 100
4, 64680, Note_on_c, 2, 74, 0
4, 65040, Note_on_c, 2, 81, 100
4, 65160, Note_on_c, 2, 81, 0
4, 65280, Note_on_c, 2, 72, 100
4, 65400, Note_on_c, 2, 72, 0
4, 65760, Note_on_c, 2, 78, 100
4, 65790, Note_on_c, 2, 78, 0
4, 65880, Note_on_c, 2, 78, 100
4, 65910, Note_on_c, 2, 78, 0
4, 66000, Note_on_c, 2, 76, 100
4, 66030, Note_on_c, 2, 76, 0
4, 66120, Note_on_c, 2, 76, 100
4, 66150, Note_on_c, 2, 76, 0
4, 66360, Note_on_c, 2, 75, 100
4, 66480, Note_on_c, 2, 75, 0
4, 66480, Note_on_c, 2, 76, 100
4, 66720, Note_on_c, 2, 76, 0
4, 93000, Note_on_c, 2, 72, 90
4, 93119, Note_on_c, 2, 72, 0
4, 93120, Note_on_c, 2, 71, 90
4, 93239, Note_on_c, 2, 71, 0
4, 93240, Note_on_c, 2, 69, 90
4, 93359, Note_on_c, 2, 69, 0
4, 93360, Note_on_c, 2, 71, 90
4, 93419, Note_on_c, 2, 71, 0
4, 93420, Note_on_c, 2, 69, 90
4, 93479, Note_on_c, 2, 69, 0
4, 93480, Note_on_c, 2, 67, 90
4, 93599, Note_on_c, 2, 67, 0
4, 93600, Note_on_c, 2, 69, 90
4, 93719, Note_on_c, 2, 69, 0
4, 93720, Note_on_c, 2, 71, 90
4, 93839, Note_on_c, 2, 71, 0
4, 93840, Note_on_c, 2, 72, 90
4, 93929, Note_on_c, 2, 72, 0
4, 93960, Note_on_c, 2, 72, 90
4, 94079, Note_on_c, 2, 72, 0
4, 94080, Note_on_c, 2, 72, 90
4, 94199, Note_on_c, 2, 72, 0
4, 94200, Note_on_c, 2, 67, 90
4, 94319, Note_on_c, 2, 67, 0
4, 94320, Note_on_c, 2, 67, 90
4, 94379, Note_on_c, 2, 67, 0
4, 94380, Note_on_c, 2, 65, 90
4, 94439, Note_on_c, 2, 65, 0
4, 94440, Note_on_c, 2, 64, 90
4, 94499, Note_on_c, 2, 64, 0
4, 94500, Note_on_c, 2, 65, 90
4, 94559, Note_on_c, 2, 65, 0
4, 94560, Note_on_c, 2, 67, 90
4, 94679, Note_on_c, 2, 67, 0
4, 94680, Note_on_c, 2, 65, 90
4, 94799, Note_on_c, 2, 65, 0
4, 94800, Note_on_c, 2, 64, 90
4, 94889, Note_on_c, 2, 64, 0
4, 94920, Note_on_c, 2, 64, 90
4, 95039, Note_on_c, 2, 64, 0
4, 95040, Note_on_c, 2, 69, 90
4, 95159, Note_on_c, 2, 69, 0
4, 95160, Note_on_c, 2, 69, 90
4, 95279, Note_on_c, 2, 69, 0
4, 95280, Note_on_c, 2, 67, 90
4, 95339, Note_on_c, 2, 67, 0
4, 95340, Note_on_c, 2, 69, 90
4, 95399, Note_on_c, 2, 69, 0
4, 95400, Note_on_c, 2, 71, 90
4, 95519, Note_on_c, 2, 71, 0
4, 95520, Note_on_c, 2, 72, 90
4, 95579, Note_on_c, 2, 72, 0
4, 95580, Note_on_c, 2, 71, 90
4, 95639, Note_on_c, 2, 71, 0
4, 95640, Note_on_c, 2, 69, 90
4, 95759, Note_on_c, 2, 69, 0
4, 95760, Note_on_c, 2, 67, 90
4, 95849, Note_on_c, 2, 67, 0
4, 95880, Note_on_c, 2, 72, 90
4, 95999, Note_on_c, 2, 72, 0
4, 96000, Note_on_c, 2, 71, 90
4, 96119, Note_on_c, 2, 71, 0
4, 96120, Note_on_c, 2, 69, 90
4, 96239, Note_on_c, 2, 69, 0
4, 96240, Note_on_c, 2, 67, 90
4, 96359, Note_on_c, 2, 67, 0
4, 96360, Note_on_c, 2, 69, 90
4, 96419, Note_on_c, 2, 69, 0
4, 96420, Note_on_c, 2, 67, 90
4, 96479, Note_on_c, 2, 67, 0
4, 96480, Note_on_c, 2, 65, 90
4, 96539, Note_on_c, 2, 65, 0
4, 96540, Note_on_c, 2, 64, 90
4, 96599, Note_on_c, 2, 64, 0
4, 96600, Note_on_c, 2, 62, 90
4, 96719, Note_on_c, 2, 62, 0
4, 96720, Note_on_c, 2, 60, 90
4, 96839, Note_on_c, 2, 60, 0
4, 96960, Note_on_c, 2, 76, 100
4, 97080, Note_on_c, 2, 76, 0
4, 97200, Note_on_c, 2, 81, 100
4, 97320, Note_on_c, 2, 81, 0
4, 97440, Note_on_c, 2, 74, 100
4, 97560, Note_on_c, 2, 74, 0
4, 97680, Note_on_c, 2, 71, 100
4, 97800, Note_on_c, 2, 71, 0
4, 97920, Note_on_c, 2, 69, 100
4, 98040, Note_on_c, 2, 69, 0
4, 98160, Note_on_c, 2, 72, 100
4, 98280, Note_on_c, 2, 72, 0
4, 98400, Note_on_c, 2, 79, 100
4, 98520, Note_on_c, 2, 79, 0
4, 98640, Note_on_c, 2, 71, 100
4, 98760, Note_on_c, 2, 71, 0
4, 98880, Note_on_c, 2, 72, 90
4, 98939, Note_on_c, 2, 72, 0
4, 98940, Note_on_c, 2, 72, 90
4, 98999, Note_on_c, 2, 72, 0
4, 99000, Note_on_c, 2, 72, 90
4, 99059, Note_on_c, 2, 72, 0
4, 99060, Note_on_c, 2, 72, 90
4, 99119, Note_on_c, 2, 72, 0
4, 99120, Note_on_c, 2, 76, 90
4, 99179, Note_on_c, 2, 76, 0
4, 99180, Note_on_c, 2, 76, 90
4, 99239, Note_on_c, 2, 76, 0
4, 99240, Note_on_c, 2, 76, 90
4, 99299, Note_on_c, 2, 76, 0
4, 99300, Note_on_c, 2, 76, 90
4, 99359, Note_on_c, 2, 76, 0
4, 99360, Note_on_c, 2, 79, 90
4, 99419, Note_on_c, 2, 79, 0
4, 99420, Note_on_c, 2, 79, 90
4, 99479, Note_on_c, 2, 79, 0
4, 99480, Note_on_c, 2, 79, 90
4, 99539, Note_on_c, 2, 79, 0
4, 99540, Note_on_c, 2, 79, 90
4, 99599, Note_on_c, 2, 79, 0
4, 99600, Note_on_c, 2, 79, 90
4, 99659, Note_on_c, 2, 79, 0
4, 99660, Note_on_c, 2, 79, 90
4, 99719, Note_on_c, 2, 79, 0
4, 99720, Note_on_c, 2, 79, 90
4, 99779, Note_on_c, 2, 79, 0
4, 99780, Note_on_c, 2, 79, 90
4, 99839, Note_on_c, 2, 79, 0
4, 99840, Note_on_c, 2, 79, 90
4, 99899, Note_on_c, 2, 79, 0
4, 99900, Note_on_c, 2, 79, 90
4, 99959, Note_on_c, 2, 79, 0
4, 99960, Note_on_c, 2, 79, 90
4, 100019, Note_on_c, 2, 79, 0
4, 100020, Note_on_c, 2, 79, 90
4, 100079, Note_on_c, 2, 79, 0
4, 100080, Note_on_c, 2, 79, 90
4, 100139, Note_on_c, 2, 79, 0
4, 100140, Note_on_c, 2, 79, 90
4, 100199, Note_on_c, 2, 79, 0
4, 100200, Note_on_c, 2, 79, 90
4, 100259, Note_on_c, 2, 79, 0
4, 100260, Note_on_c, 2, 79, 90
4, 100319, Note_on_c, 2, 79, 0
4, 100320, Note_on_c, 2, 78, 90
4, 100379, Note_on_c, 2, 78, 0
4, 100380, Note_on_c, 2, 78, 90
4, 100439, Note_on_c, 2, 78, 0
4, 100440, Note_on_c, 2, 78, 90
4, 100499, Note_on_c, 2, 78, 0
4, 100500, Note_on_c, 2, 78, 90
4, 100559, Note_on_c, 2, 78, 0
4, 100560, Note_on_c, 2, 79, 90
4, 100619, Note_on_c, 2, 79, 0
4, 100620, Note_on_c, 2, 79, 90
4, 100679, Note_on_c, 2, 79, 0
4, 100680, Note_on_c, 2, 79, 90
4, 100739, Note_on_c, 2, 79, 0
4, 100740, Note_on_c, 2, 79, 90
4, 100799, Note_on_c, 2, 79, 0
4, 100800, Note_on_c, 2, 79, 90
4, 100859, Note_on_c, 2, 79, 0
4, 100860, Note_on_c, 2, 79, 90
4, 100919, Note_on_c, 2, 79, 0
4, 100920, Note_on_c, 2, 78, 90
4, 100979, Note_on_c, 2, 78, 0
4, 100980, Note_on_c, 2, 78, 90
4, 101039, Note_on_c, 2, 78, 0
4, 101040, Note_on_c, 2, 79, 90
4, 101279, Note_on_c, 2, 79, 0
4, 101520, Note_on_c, 2, 71, 90
4, 101609, Note_on_c, 2, 71, 0
4, 101610, Note_on_c, 2, 72, 90
4, 101624, Note_on_c, 2, 72, 0
4, 101625, Note_on_c, 2, 74, 90
4, 101639, Note_on_c, 2, 74, 0
4, 101640, Note_on_c, 2, 72, 90
4, 101669, Note_on_c, 2, 72, 0
4, 101670, Note_on_c, 2, 71, 90
4, 101699, Note_on_c, 2, 71, 0
4, 101700, Note_on_c, 2, 69, 90
4, 101729, Note_on_c, 2, 69, 0
4, 101730, Note_on_c, 2, 67, 90
4, 101759, Note_on_c, 2, 67, 0
4, 101760, Note_on_c, 2, 69, 90
4, 101819, Note_on_c, 2, 69, 0
4, 101820, Note_on_c, 2, 66, 90
4, 101879, Note_on_c, 2, 66, 0
4, 101880, Note_on_c, 2, 67, 90
4, 101939, Note_on_c, 2, 67, 0
4, 101940, Note_on_c, 2, 62, 90
4, 101999, Note_on_c, 2, 62, 0
4, 102000, Note_on_c, 2, 71, 90
4, 102089, Note_on_c, 2, 71, 0
4, 102090, Note_on_c, 2, 72, 90
4, 102104, Note_on_c, 2, 72, 0
4, 102105, Note_on_c, 2, 74, 90
4, 102119, Note_on_c, 2, 74, 0
4, 102120, Note_on_c, 2, 72, 90
4, 102149, Note_on_c, 2, 72, 0
4, 102150, Note_on_c, 2, 71, 90
4, 102179, Note_on_c, 2, 71, 0
4, 102180, Note_on_c, 2, 69, 90
4, 102209, Note_on_c, 2, 69, 0
4, 102210, Note_on_c, 2, 67, 90
4, 102239, Note_on_c, 2, 67, 0
4, 102240, Note_on_c, 2, 72, 90
4, 102480, Note_on_c, 2, 72, 0
4, 102480, Note_on_c, 2, 69, 90
4, 102569, Note_on_c, 2, 69, 0
4, 102570, Note_on_c, 2, 71, 90
4, 102584, Note_on_c, 2, 71, 0
4, 102585, Note_on_c, 2, 72, 90
4, 102599, Note_on_c, 2, 72, 0
4, 102600, Note_on_c, 2, 72, 90
4, 102629, Note_on_c, 2, 72, 0
4, 102660, Note_on_c, 2, 72, 90
4, 102689, Note_on_c, 2, 72, 0
4, 102720, Note_on_c, 2, 76, 90
4, 102779, Note_on_c, 2, 76, 0
4, 102780, Note_on_c, 2, 72, 90
4, 102839, Note_on_c, 2, 72, 0
4, 102840, Note_on_c, 2, 72, 90
4, 102899, Note_on_c, 2, 72, 0
4, 102900, Note_on_c, 2, 69, 90
4, 102959, Note_on_c, 2, 69, 0
4, 102960, Note_on_c, 2, 69, 90
4, 103019, Note_on_c, 2, 69, 0
4, 103020, Note_on_c, 2, 71, 90
4, 103049, Note_on_c, 2, 71, 0
4, 103050, Note_on_c, 2, 72, 90
4, 103079, Note_on_c, 2, 72, 0
4, 103080, Note_on_c, 2, 74, 90
4, 103109, Note_on_c, 2, 74, 0
4, 103110, Note_on_c, 2, 72, 90
4, 103139, Note_on_c, 2, 72, 0
4, 103140, Note_on_c, 2, 71, 90
4, 103169, Note_on_c, 2, 71, 0
4, 103170, Note_on_c, 2, 74, 90
4, 103199, Note_on_c, 2, 74, 0
4, 103200, Note_on_c, 2, 72, 90
4, 103229, Note_on_c, 2, 72, 0
4, 103230, Note_on_c, 2, 71, 90
4, 103259, Note_on_c, 2, 71, 0
4, 103260, Note_on_c, 2, 69, 90
4, 103289, Note_on_c, 2, 69, 0
4, 103290, Note_on_c, 2, 72, 90
4, 103319, Note_on_c, 2, 72, 0
4, 103320, Note_on_c, 2, 71, 90
4, 103439, Note_on_c, 2, 71, 0
4, 103440, Note_on_c, 2, 62, 90
4, 103499, Note_on_c, 2, 62, 0
4, 103500, Note_on_c, 2, 64, 90
4, 103559, Note_on_c, 2, 64, 0
4, 103560, Note_on_c, 2, 64, 90
4, 103619, Note_on_c, 2, 64, 0
4, 103620, Note_on_c, 2, 66, 90
4, 103679, Note_on_c, 2, 66, 0
4, 103680, Note_on_c, 2, 66, 90
4, 103739, Note_on_c, 2, 66, 0
4, 103740, Note_on_c, 2, 67, 90
4, 103769, Note_on_c, 2, 67, 0
4, 103770, Note_on_c, 2, 66, 90
4, 103799, Note_on_c, 2, 66, 0
4, 103800, Note_on_c, 2, 67, 90
4, 103859, Note_on_c, 2, 67, 0
4, 103860, Note_on_c, 2, 62, 90
4, 103919, Note_on_c, 2, 62, 0
4, 103920, Note_on_c, 2, 62, 90
4, 103979, Note_on_c, 2, 62, 0
4, 103980, Note_on_c, 2, 64, 90
4, 104039, Note_on_c, 2, 64, 0
4, 104040, Note_on_c, 2, 64, 90
4, 104099, Note_on_c, 2, 64, 0
4, 104100, Note_on_c, 2, 65, 90
4, 104159, Note_on_c, 2, 65, 0
4, 104160, Note_on_c, 2, 65, 90
4, 104399, Note_on_c, 2, 65, 0
4, 104400, Note_on_c, 2, 64, 90
4, 104459, Note_on_c, 2, 64, 0
4, 104460, Note_on_c, 2, 69, 90
4, 104519, Note_on_c, 2, 69, 0
4, 104520, Note_on_c, 2, 69, 90
4, 104579, Note_on_c, 2, 69, 0
4, 104580, Note_on_c, 2, 72, 90
4, 104639, Note_on_c, 2, 72, 0
4, 104640, Note_on_c, 2, 72, 90
4, 104699, Note_on_c, 2, 72, 0
4, 104700, Note_on_c, 2, 74, 90
4, 104729, Note_on_c, 2, 74, 0
4, 104730, Note_on_c, 2, 76, 90
4, 104759, Note_on_c, 2, 76, 0
4, 104760, Note_on_c, 2, 74, 90
4, 104789, Note_on_c, 2, 74, 0
4, 104790, Note_on_c, 2, 72, 90
4, 104819, Note_on_c, 2, 72, 0
4, 104820, Note_on_c, 2, 71, 90
4, 104849, Note_on_c, 2, 71, 0
4, 104850, Note_on_c, 2, 69, 90
4, 104879, Note_on_c, 2, 69, 0
4, 104880, Note_on_c, 2, 67, 90
4, 104909, Note_on_c, 2, 67, 0
4, 104910, Note_on_c, 2, 66, 90
4, 104939, Note_on_c, 2, 66, 0
4, 104940, Note_on_c, 2, 67, 90
4, 104969, Note_on_c, 2, 67, 0
4, 104970, Note_on_c, 2, 72, 90
4, 104999, Note_on_c, 2, 72, 0
4, 105000, Note_on_c, 2, 69, 90
4, 105089, Note_on_c, 2, 69, 0
4, 105090, Note_on_c, 2, 67, 90
4, 105119, Note_on_c, 2, 67, 0
4, 105120, Note_on_c, 2, 67, 90
4, 105179, Note_on_c, 2, 67, 0
4, 105180, Note_on_c, 2, 73, 90
4, 105299, Note_on_c, 2, 73, 0
4, 105300, Note_on_c, 2, 74, 90
4, 105329, Note_on_c, 2, 74, 0
4, 105330, Note_on_c, 2, 76, 90
4, 105359, Note_on_c, 2, 76, 0
4, 105360, Note_on_c, 2, 74, 90
4, 105419, Note_on_c, 2, 74, 0
4, 105420, Note_on_c, 2, 67, 90
4, 105479, Note_on_c, 2, 67, 0
4, 105480, Note_on_c, 2, 66, 90
4, 105539, Note_on_c, 2, 66, 0
4, 105540, Note_on_c, 2, 69, 90
4, 105599, Note_on_c, 2, 69, 0
4, 105600, Note_on_c, 2, 72, 90
4, 105659, Note_on_c, 2, 72, 0
4, 105660, Note_on_c, 2, 78, 90
4, 105779, Note_on_c, 2, 78, 0
4, 105780, Note_on_c, 2, 79, 90
4, 105809, Note_on_c, 2, 79, 0
4, 105810, Note_on_c, 2, 81, 90
4, 105839, Note_on_c, 2, 81, 0
4, 105840, Note_on_c, 2, 79, 90
4, 105899, Note_on_c, 2, 79, 0
4, 105900, Note_on_c, 2, 72, 90
4, 105959, Note_on_c, 2, 72, 0
4, 105960, Note_on_c, 2, 71, 90
4, 106019, Note_on_c, 2, 71, 0
4, 106020, Note_on_c, 2, 74, 90
4, 106079, Note_on_c, 2, 74, 0
4, 106080, Note_on_c, 2, 77, 90
4, 106139, Note_on_c, 2, 77, 0
4, 106140, Note_on_c, 2, 76, 90
4, 106259, Note_on_c, 2, 76, 0
4, 106260, Note_on_c, 2, 74, 90
4, 106379, Note_on_c, 2, 74, 0
4, 106380, Note_on_c, 2, 72, 90
4, 106499, Note_on_c, 2, 72, 0
4, 106500, Note_on_c, 2, 70, 90
4, 106619, Note_on_c, 2, 70, 0
4, 106620, Note_on_c, 2, 69, 90
4, 106739, Note_on_c, 2, 69, 0
4, 106740, Note_on_c, 2, 67, 90
4, 106859, Note_on_c, 2, 67, 0
4, 106860, Note_on_c, 2, 66, 90
4, 106979, Note_on_c, 2, 66, 0
4, 106980, Note_on_c, 2, 63, 90
4, 107099, Note_on_c, 2, 63, 0
4, 107100, Note_on_c, 2, 62, 90
4, 107219, Note_on_c, 2, 62, 0
4, 107220, Note_on_c, 2, 60, 90
4, 107339, Note_on_c, 2, 60, 0
4, 107340, Note_on_c, 2, 59, 90
4, 107459, Note_on_c, 2, 59, 0
4, 107460, Note_on_c, 2, 60, 90
4, 107519, Note_on_c, 2, 60, 0
4, 107520, Note_on_c, 2, 62, 90
4, 107579, Note_on_c, 2, 62, 0
4, 107580, Note_on_c, 2, 64, 90
4, 107609, Note_on_c, 2, 64, 0
4, 107610, Note_on_c, 2, 62, 90
4, 107639, Note_on_c, 2, 62, 0
4, 107640, Note_on_c, 2, 60, 90
4, 107669, Note_on_c, 2, 60, 0
4, 107670, Note_on_c, 2, 59, 90
4, 107699, Note_on_c, 2, 59, 0
4, 107700, Note_on_c, 2, 57, 90
4, 107729, Note_on_c, 2, 57, 0
4, 107730, Note_on_c, 2, 69, 90
4, 107759, Note_on_c, 2, 69, 0
4, 107760, Note_on_c, 2, 67, 90
4, 107789, Note_on_c, 2, 67, 0
4, 107790, Note_on_c, 2, 66, 90
4, 107819, Note_on_c, 2, 66, 0
4, 107820, Note_on_c, 2, 64, 90
4, 107849, Note_on_c, 2, 64, 0
4, 107850, Note_on_c, 2, 62, 90
4, 107879, Note_on_c, 2, 62, 0
4, 107880, Note_on_c, 2, 72, 90
4, 107909, Note_on_c, 2, 72, 0
4, 107940, Note_on_c, 2, 71, 90
4, 107969, Note_on_c, 2, 71, 0
4, 108000, Note_on_c, 2, 69, 90
4, 108059, Note_on_c, 2, 69, 0
4, 108060, Note_on_c, 2, 67, 90
4, 108119, Note_on_c, 2, 67, 0
4, 108240, Note_on_c, 2, 71, 90
4, 108329, Note_on_c, 2, 71, 0
4, 108330, Note_on_c, 2, 72, 90
4, 108344, Note_on_c, 2, 72, 0
4, 108345, Note_on_c, 2, 74, 90
4, 108359, Note_on_c, 2, 74, 0
4, 108360, Note_on_c, 2, 72, 90
4, 108389, Note_on_c, 2, 72, 0
4, 108390, Note_on_c, 2, 71, 90
4, 108419, Note_on_c, 2, 71, 0
4, 108420, Note_on_c, 2, 69, 90
4, 108449, Note_on_c, 2, 69, 0
4, 108450, Note_on_c, 2, 67, 90
4, 108479, Note_on_c, 2, 67, 0
4, 108480, Note_on_c, 2, 69, 90
4, 108539, Note_on_c, 2, 69, 0
4, 108540, Note_on_c, 2, 66, 90
4, 108599, Note_on_c, 2, 66, 0
4, 108600, Note_on_c, 2, 67, 90
4, 108659, Note_on_c, 2, 67, 0
4, 108660, Note_on_c, 2, 62, 90
4, 108719, Note_on_c, 2, 62, 0
4, 108720, Note_on_c, 2, 71, 90
4, 108809, Note_on_c, 2, 71, 0
4, 108810, Note_on_c, 2, 72, 90
4, 108824, Note_on_c, 2, 72, 0
4, 108825, Note_on_c, 2, 74, 90
4, 108839, Note_on_c, 2, 74, 0
4, 108840, Note_on_c, 2, 72, 90
4, 108869, Note_on_c, 2, 72, 0
4, 108870, Note_on_c, 2, 71, 90
4, 108899, Note_on_c, 2, 71, 0
4, 108900, Note_on_c, 2, 69, 90
4, 108929, Note_on_c, 2, 69, 0
4, 108930, Note_on_c, 2, 67, 90
4, 108959, Note_on_c, 2, 67, 0
4, 108960, Note_on_c, 2, 74, 90
4, 109079, Note_on_c, 2, 74, 0
4, 109200, Note_on_c, 2, 72, 90
4, 109289, Note_on_c, 2, 72, 0
4, 109290, Note_on_c, 2, 74, 90
4, 109304, Note_on_c, 2, 74, 0
4, 109305, Note_on_c, 2, 76, 90
4, 109319, Note_on_c, 2, 76, 0
4, 109320, Note_on_c, 2, 74, 90
4, 109349, Note_on_c, 2, 74, 0
4, 109350, Note_on_c, 2, 72, 90
4, 109379, Note_on_c, 2, 72, 0
4, 109380, Note_on_c, 2, 71, 90
4, 109409, Note_on_c, 2, 71, 0
4, 109410, Note_on_c, 2, 69, 90
4, 109439, Note_on_c, 2, 69, 0
4, 109440, Note_on_c, 2, 71, 90
4, 109499, Note_on_c, 2, 71, 0
4, 109500, Note_on_c, 2, 68, 90
4, 109559, Note_on_c, 2, 68, 0
4, 109560, Note_on_c, 2, 69, 90
4, 109619, Note_on_c, 2, 69, 0
4, 109620, Note_on_c, 2, 64, 90
4, 109679, Note_on_c, 2, 64, 0
4, 109680, Note_on_c, 2, 72, 90
4, 109769, Note_on_c, 2, 72, 0
4, 109770, Note_on_c, 2, 74, 90
4, 109784, Note_on_c, 2, 74, 0
4, 109785, Note_on_c, 2, 76, 90
4, 109799, Note_on_c, 2, 76, 0
4, 109800, Note_on_c, 2, 74, 90
4, 109829, Note_on_c, 2, 74, 0
4, 109830, Note_on_c, 2, 72, 90
4, 109859, Note_on_c, 2, 72, 0
4, 109860, Note_on_c, 2, 71, 90
4, 109889, Note_on_c, 2, 71, 0
4, 109890, Note_on_c, 2, 69, 90
4, 109919, Note_on_c, 2, 69, 0
4, 109920, Note_on_c, 2, 76, 90
4, 110039, Note_on_c, 2, 76, 0
4, 110160, Note_on_c, 2, 69, 90
4, 110249, Note_on_c, 2, 69, 0
4, 110250, Note_on_c, 2, 71, 90
4, 110264, Note_on_c, 2, 71, 0
4, 110265, Note_on_c, 2, 72, 90
4, 110279, Note_on_c, 2, 72, 0
4, 110280, Note_on_c, 2, 72, 90
4, 110309, Note_on_c, 2, 72, 0
4, 110340, Note_on_c, 2, 72, 90
4, 110369, Note_on_c, 2, 72, 0
4, 110400, Note_on_c, 2, 76, 90
4, 110459, Note_on_c, 2, 76, 0
4, 110460, Note_on_c, 2, 72, 90
4, 110519, Note_on_c, 2, 72, 0
4, 110520, Note_on_c, 2, 72, 90
4, 110579, Note_on_c, 2, 72, 0
4, 110580, Note_on_c, 2, 69, 90
4, 110639, Note_on_c, 2, 69, 0
4, 110640, Note_on_c, 2, 69, 90
4, 110699, Note_on_c, 2, 69, 0
4, 110700, Note_on_c, 2, 71, 90
4, 110729, Note_on_c, 2, 71, 0
4, 110730, Note_on_c, 2, 72, 90
4, 110759, Note_on_c, 2, 72, 0
4, 110760, Note_on_c, 2, 74, 90
4, 110789, Note_on_c, 2, 74, 0
4, 110790, Note_on_c, 2, 72, 90
4, 110819, Note_on_c, 2, 72, 0
4, 110820, Note_on_c, 2, 71, 90
4, 110849, Note_on_c, 2, 71, 0
4, 110850, Note_on_c, 2, 69, 90
4, 110879, Note_on_c, 2, 69, 0
4, 110880, Note_on_c, 2, 67, 90
4, 110909, Note_on_c, 2, 67, 0
4, 110910, Note_on_c, 2, 66, 90
4, 110939, Note_on_c, 2, 66, 0
4, 110940, Note_on_c, 2, 64, 90
4, 110969, Note_on_c, 2, 64, 0
4, 110970, Note_on_c, 2, 62, 90
4, 110999, Note_on_c, 2, 62, 0
4, 111000, Note_on_c, 2, 79, 90
4, 111119, Note_on_c, 2, 79, 0
4, 111120, Note_on_c, 2, 62, 90
4, 111179, Note_on_c, 2, 62, 0
4, 111180, Note_on_c, 2, 64, 90
4, 111239, Note_on_c, 2, 64, 0
4, 111240, Note_on_c, 2, 64, 90
4, 111299, Note_on_c, 2, 64, 0
4, 111300, Note_on_c, 2, 66, 90
4, 111359, Note_on_c, 2, 66, 0
4, 111360, Note_on_c, 2, 66, 90
4, 111419, Note_on_c, 2, 66, 0
4, 111420, Note_on_c, 2, 67, 90
4, 111449, Note_on_c, 2, 67, 0
4, 111450, Note_on_c, 2, 66, 90
4, 111479, Note_on_c, 2, 66, 0
4, 111480, Note_on_c, 2, 67, 90
4, 111539, Note_on_c, 2, 67, 0
4, 111540, Note_on_c, 2, 62, 90
4, 111599, Note_on_c, 2, 62, 0
4, 111600, Note_on_c, 2, 62, 90
4, 111659, Note_on_c, 2, 62, 0
4, 111660, Note_on_c, 2, 64, 90
4, 111719, Note_on_c, 2, 64, 0
4, 111720, Note_on_c, 2, 64, 90
4, 111779, Note_on_c, 2, 64, 0
4, 111780, Note_on_c, 2, 65, 90
4, 111839, Note_on_c, 2, 65, 0
4, 111840, Note_on_c, 2, 65, 90
4, 112319, Note_on_c, 2, 65, 0
4, 112320, Note_on_c, 2, 64, 90
4, 112799, Note_on_c, 2, 64, 0
4, 112800, Note_on_c, 2, 66, 90
4, 112979, Note_on_c, 2, 66, 0
4, 112980, Note_on_c, 2, 67, 90
4, 113009, Note_on_c, 2, 67, 0
4, 113010, Note_on_c, 2, 69, 90
4, 113039, Note_on_c, 2, 69, 0
4, 113040, Note_on_c, 2, 71, 90
4, 113129, Note_on_c, 2, 71, 0
4, 113130, Note_on_c, 2, 72, 90
4, 113144, Note_on_c, 2, 72, 0
4, 113145, Note_on_c, 2, 74, 90
4, 113159, Note_on_c, 2, 74, 0
4, 113160, Note_on_c, 2, 72, 90
4, 113189, Note_on_c, 2, 72, 0
4, 113190, Note_on_c, 2, 71, 90
4, 113219, Note_on_c, 2, 71, 0
4, 113220, Note_on_c, 2, 69, 90
4, 113249, Note_on_c, 2, 69, 0
4, 113250, Note_on_c, 2, 67, 90
4, 113279, Note_on_c, 2, 67, 0
4, 113280, Note_on_c, 2, 69, 90
4, 113339, Note_on_c, 2, 69, 0
4, 113340, Note_on_c, 2, 66, 90
4, 113399, Note_on_c, 2, 66, 0
4, 113400, Note_on_c, 2, 67, 90
4, 113459, Note_on_c, 2, 67, 0
4, 113460, Note_on_c, 2, 62, 90
4, 113519, Note_on_c, 2, 62, 0
4, 113520, Note_on_c, 2, 71, 90
4, 113609, Note_on_c, 2, 71, 0
4, 113610, Note_on_c, 2, 72, 90
4, 113624, Note_on_c, 2, 72, 0
4, 113625, Note_on_c, 2, 74, 90
4, 113639, Note_on_c, 2, 74, 0
4, 113640, Note_on_c, 2, 72, 90
4, 113669, Note_on_c, 2, 72, 0
4, 113670, Note_on_c, 2, 71, 90
4, 113699, Note_on_c, 2, 71, 0
4, 113700, Note_on_c, 2, 69, 90
4, 113729, Note_on_c, 2, 69, 0
4, 113730, Note_on_c, 2, 67, 90
4, 113759, Note_on_c, 2, 67, 0
4, 113760, Note_on_c, 2, 69, 90
4, 113789, Note_on_c, 2, 69, 0
4, 113790, Note_on_c, 2, 74, 90
4, 113819, Note_on_c, 2, 74, 0
4, 113820, Note_on_c, 2, 73, 90
4, 113849, Note_on_c, 2, 73, 0
4, 113850, Note_on_c, 2, 71, 90
4, 113879, Note_on_c, 2, 71, 0
4, 113880, Note_on_c, 2, 69, 90
4, 113909, Note_on_c, 2, 69, 0
4, 113910, Note_on_c, 2, 67, 90
4, 113939, Note_on_c, 2, 67, 0
4, 113940, Note_on_c, 2, 66, 90
4, 113969, Note_on_c, 2, 66, 0
4, 113970, Note_on_c, 2, 64, 90
4, 113999, Note_on_c, 2, 64, 0
4, 114000, Note_on_c, 2, 62, 90
4, 114119, Note_on_c, 2, 62, 0
4, 114780, Note_on_c, 2, 68, 90
4, 114899, Note_on_c, 2, 68, 0
4, 114900, Note_on_c, 2, 69, 90
4, 114929, Note_on_c, 2, 69, 0
4, 114930, Note_on_c, 2, 71, 90
4, 114959, Note_on_c, 2, 71, 0
4, 114960, Note_on_c, 2, 69, 90
4, 115019, Note_on_c, 2, 69, 0
4, 115020, Note_on_c, 2, 62, 90
4, 115079, Note_on_c, 2, 62, 0
4, 115080, Note_on_c, 2, 61, 90
4, 115139, Note_on_c, 2, 61, 0
4, 115140, Note_on_c, 2, 64, 90
4, 115199, Note_on_c, 2, 64, 0
4, 115200, Note_on_c, 2, 67, 90
4, 115259, Note_on_c, 2, 67, 0
4, 115260, Note_on_c, 2, 73, 90
4, 115379, Note_on_c, 2, 73, 0
4, 115380, Note_on_c, 2, 74, 90
4, 115409, Note_on_c, 2, 74, 0
4, 115410, Note_on_c, 2, 76, 90
4, 115439, Note_on_c, 2, 76, 0
4, 115440, Note_on_c, 2, 74, 90
4, 115499, Note_on_c, 2, 74, 0
4, 115500, Note_on_c, 2, 67, 90
4, 115559, Note_on_c, 2, 67, 0
4, 115560, Note_on_c, 2, 66, 90
4, 115619, Note_on_c, 2, 66, 0
4, 115620, Note_on_c, 2, 69, 90
4, 115679, Note_on_c, 2, 69, 0
4, 115680, Note_on_c, 2, 72, 90
4, 115739, Note_on_c, 2, 72, 0
4, 115740, Note_on_c, 2, 71, 90
4, 115859, Note_on_c, 2, 71, 0
4, 115860, Note_on_c, 2, 69, 90
4, 115979, Note_on_c, 2, 69, 0
4, 115980, Note_on_c, 2, 67, 90
4, 116099, Note_on_c, 2, 67, 0
4, 116100, Note_on_c, 2, 77, 90
4, 116219, Note_on_c, 2, 77, 0
4, 116220, Note_on_c, 2, 76, 90
4, 116339, Note_on_c, 2, 76, 0
4, 116340, Note_on_c, 2, 74, 90
4, 116459, Note_on_c, 2, 74, 0
4, 116460, Note_on_c, 2, 73, 90
4, 116579, Note_on_c, 2, 73, 0
4, 116580, Note_on_c, 2, 70, 90
4, 116699, Note_on_c, 2, 70, 0
4, 116700, Note_on_c, 2, 69, 90
4, 116819, Note_on_c, 2, 69, 0
4, 116820, Note_on_c, 2, 67, 90
4, 116939, Note_on_c, 2, 67, 0
4, 116940, Note_on_c, 2, 66, 90
4, 117059, Note_on_c, 2, 66, 0
4, 117060, Note_on_c, 2, 67, 90
4, 117119, Note_on_c, 2, 67, 0
4, 117120, Note_on_c, 2, 69, 90
4, 117179, Note_on_c, 2, 69, 0
4, 117180, Note_on_c, 2, 71, 90
4, 117209, Note_on_c, 2, 71, 0
4, 117210, Note_on_c, 2, 69, 90
4, 117239, Note_on_c, 2, 69, 0
4, 117240, Note_on_c, 2, 67, 90
4, 117269, Note_on_c, 2, 67, 0
4, 117270, Note_on_c, 2, 66, 90
4, 117299, Note_on_c, 2, 66, 0
4, 117300, Note_on_c, 2, 64, 90
4, 117329, Note_on_c, 2, 64, 0
4, 117330, Note_on_c, 2, 76, 90
4, 117359, Note_on_c, 2, 76, 0
4, 117360, Note_on_c, 2, 74, 90
4, 117389, Note_on_c, 2, 74, 0
4, 117390, Note_on_c, 2, 73, 90
4, 117419, Note_on_c, 2, 73, 0
4, 117420, Note_on_c, 2, 71, 90
4, 117449, Note_on_c, 2, 71, 0
4, 117450, Note_on_c, 2, 69, 90
4, 117479, Note_on_c, 2, 69, 0
4, 117480, Note_on_c, 2, 79, 90
4, 117509, Note_on_c, 2, 79, 0
4, 117540, Note_on_c, 2, 78, 90
4, 117569, Note_on_c, 2, 78, 0
4, 117600, Note_on_c, 2, 76, 90
4, 117629, Note_on_c, 2, 76, 0
4, 117630, Note_on_c, 2, 74, 90
4, 117659, Note_on_c, 2, 74, 0
4, 117660, Note_on_c, 2, 73, 90
4, 117689, Note_on_c, 2, 73, 0
4, 117690, Note_on_c, 2, 71, 90
4, 117719, Note_on_c, 2, 71, 0
4, 117720, Note_on_c, 2, 69, 90
4, 117749, Note_on_c, 2, 69, 0
4, 117750, Note_on_c, 2, 67, 90
4, 117779, Note_on_c, 2, 67, 0
4, 117780, Note_on_c, 2, 66, 90
4, 117809, Note_on_c, 2, 66, 0
4, 117810, Note_on_c, 2, 64, 90
4, 117839, Note_on_c, 2, 64, 0
4, 117840, Note_on_c, 2, 66, 90
4, 117899, Note_on_c, 2, 66, 0
4, 117900, Note_on_c, 2, 74, 90
4, 118019, Note_on_c, 2, 74, 0
4, 118020, Note_on_c, 2, 73, 90
4, 118139, Note_on_c, 2, 73, 0
4, 118140, Note_on_c, 2, 67, 90
4, 118259, Note_on_c, 2, 67, 0
4, 118260, Note_on_c, 2, 66, 90
4, 118379, Note_on_c, 2, 66, 0
4, 118380, Note_on_c, 2, 62, 90
4, 118499, Note_on_c, 2, 62, 0
4, 118500, Note_on_c, 2, 64, 90
4, 118559, Note_on_c, 2, 64, 0
4, 118560, Note_on_c, 2, 66, 90
4, 118649, Note_on_c, 2, 66, 0
4, 118650, Note_on_c, 2, 67, 90
4, 118664, Note_on_c, 2, 67, 0
4, 118665, Note_on_c, 2, 69, 90
4, 118679, Note_on_c, 2, 69, 0
4, 118680, Note_on_c, 2, 67, 90
4, 118709, Note_on_c, 2, 67, 0
4, 118710, Note_on_c, 2, 66, 90
4, 118739, Note_on_c, 2, 66, 0
4, 118740, Note_on_c, 2, 64, 90
4, 118769, Note_on_c, 2, 64, 0
4, 118770, Note_on_c, 2, 62, 90
4, 118799, Note_on_c, 2, 62, 0
4, 118800, Note_on_c, 2, 74, 90
4, 118859, Note_on_c, 2, 74, 0
4, 118860, Note_on_c, 2, 79, 90
4, 118979, Note_on_c, 2, 79, 0
4, 118980, Note_on_c, 2, 78, 90
4, 119099, Note_on_c, 2, 78, 0
4, 119100, Note_on_c, 2, 72, 90
4, 119219, Note_on_c, 2, 72, 0
4, 119220, Note_on_c, 2, 71, 90
4, 119339, Note_on_c, 2, 71, 0
4, 119340, Note_on_c, 2, 67, 90
4, 119459, Note_on_c, 2, 67, 0
4, 119460, Note_on_c, 2, 69, 90
4, 119519, Note_on_c, 2, 69, 0
4, 119520, Note_on_c, 2, 71, 90
4, 119609, Note_on_c, 2, 71, 0
4, 119610, Note_on_c, 2, 72, 90
4, 119624, Note_on_c, 2, 72, 0
4, 119625, Note_on_c, 2, 74, 90
4, 119639, Note_on_c, 2, 74, 0
4, 119640, Note_on_c, 2, 72, 90
4, 119669, Note_on_c, 2, 72, 0
4, 119670, Note_on_c, 2, 71, 90
4, 119699, Note_on_c, 2, 71, 0
4, 119700, Note_on_c, 2, 69, 90
4, 119729, Note_on_c, 2, 69, 0
4, 119730, Note_on_c, 2, 67, 90
4, 119759, Note_on_c, 2, 67, 0
4, 119760, Note_on_c, 2, 76, 90
4, 119819, Note_on_c, 2, 76, 0
4, 119880, Note_on_c, 2, 71, 90
4, 119939, Note_on_c, 2, 71, 0
4, 120000, Note_on_c, 2, 64, 90
4, 120059, Note_on_c, 2, 64, 0
4, 120060, Note_on_c, 2, 76, 90
4, 120149, Note_on_c, 2, 76, 0
4, 120150, Note_on_c, 2, 74, 90
4, 120179, Note_on_c, 2, 74, 0
4, 120180, Note_on_c, 2, 72, 90
4, 120209, Note_on_c, 2, 72, 0
4, 120210, Note_on_c, 2, 71, 90
4, 120239, Note_on_c, 2, 71, 0
4, 120240, Note_on_c, 2, 69, 90
4, 120299, Note_on_c, 2, 69, 0
4, 120360, Note_on_c, 2, 66, 90
4, 120419, Note_on_c, 2, 66, 0
4, 120480, Note_on_c, 2, 62, 90
4, 120539, Note_on_c, 2, 62, 0
4, 120540, Note_on_c, 2, 74, 90
4, 120629, Note_on_c, 2, 74, 0
4, 120630, Note_on_c, 2, 72, 90
4, 120659, Note_on_c, 2, 72, 0
4, 120660, Note_on_c, 2, 71, 90
4, 120689, Note_on_c, 2, 71, 0
4, 120690, Note_on_c, 2, 74, 90
4, 120719, Note_on_c, 2, 74, 0
4, 120720, Note_on_c, 2, 64, 90
4, 120779, Note_on_c, 2, 64, 0
4, 120780, Note_on_c, 2, 69, 90
4, 120839, Note_on_c, 2, 69, 0
4, 120840, Note_on_c, 2, 69, 90
4, 120899, Note_on_c, 2, 69, 0
4, 120900, Note_on_c, 2, 72, 90
4, 120959, Note_on_c, 2, 72, 0
4, 120960, Note_on_c, 2, 72, 90
4, 121049, Note_on_c, 2, 72, 0
4, 121050, Note_on_c, 2, 74, 90
4, 121064, Note_on_c, 2, 74, 0
4, 121065, Note_on_c, 2, 76, 90
4, 121079, Note_on_c, 2, 76, 0
4, 121080, Note_on_c, 2, 74, 90
4, 121109, Note_on_c, 2, 74, 0
4, 121110, Note_on_c, 2, 72, 90
4, 121139, Note_on_c, 2, 72, 0
4, 121140, Note_on_c, 2, 71, 90
4, 121169, Note_on_c, 2, 71, 0
4, 121170, Note_on_c, 2, 69, 90
4, 121199, Note_on_c, 2, 69, 0
4, 121200, Note_on_c, 2, 67, 90
4, 121229, Note_on_c, 2, 67, 0
4, 121230, Note_on_c, 2, 66, 90
4, 121259, Note_on_c, 2, 66, 0
4, 121260, Note_on_c, 2, 67, 90
4, 121289, Note_on_c, 2, 67, 0
4, 121290, Note_on_c, 2, 72, 90
4, 121319, Note_on_c, 2, 72, 0
4, 121320, Note_on_c, 2, 69, 90
4, 121409, Note_on_c, 2, 69, 0
4, 121410, Note_on_c, 2, 67, 90
4, 121439, Note_on_c, 2, 67, 0
4, 121440, Note_on_c, 2, 67, 90
4, 121499, Note_on_c, 2, 67, 0
4, 121500, Note_on_c, 2, 73, 90
4, 121619, Note_on_c, 2, 73, 0
4, 121620, Note_on_c, 2, 74, 90
4, 121649, Note_on_c, 2, 74, 0
4, 121650, Note_on_c, 2, 76, 90
4, 121679, Note_on_c, 2, 76, 0
4, 121680, Note_on_c, 2, 74, 90
4, 121739, Note_on_c, 2, 74, 0
4, 121740, Note_on_c, 2, 67, 90
4, 121799, Note_on_c, 2, 67, 0
4, 121800, Note_on_c, 2, 66, 90
4, 121859, Note_on_c, 2, 66, 0
4, 121860, Note_on_c, 2, 69, 90
4, 121919, Note_on_c, 2, 69, 0
4, 121920, Note_on_c, 2, 72, 90
4, 121979, Note_on_c, 2, 72, 0
4, 121980, Note_on_c, 2, 78, 90
4, 122099, Note_on_c, 2, 78, 0
4, 122100, Note_on_c, 2, 79, 90
4, 122129, Note_on_c, 2, 79, 0
4, 122130, Note_on_c, 2, 81, 90
4, 122159, Note_on_c, 2, 81, 0
4, 122160, Note_on_c, 2, 79, 90
4, 122219, Note_on_c, 2, 79, 0
4, 122220, Note_on_c, 2, 72, 90
4, 122279, Note_on_c, 2, 72, 0
4, 122280, Note_on_c, 2, 71, 90
4, 122339, Note_on_c, 2, 71, 0
4, 122340, Note_on_c, 2, 74, 90
4, 122399, Note_on_c, 2, 74, 0
4, 122400, Note_on_c, 2, 77, 90
4, 122459, Note_on_c, 2, 77, 0
4, 122460, Note_on_c, 2, 76, 90
4, 122579, Note_on_c, 2, 76, 0
4, 122580, Note_on_c, 2, 74, 90
4, 122699, Note_on_c, 2, 74, 0
4, 122700, Note_on_c, 2, 72, 90
4, 122819, Note_on_c, 2, 72, 0
4, 122820, Note_on_c, 2, 70, 90
4, 122939, Note_on_c, 2, 70, 0
4, 122940, Note_on_c, 2, 69, 90
4, 123059, Note_on_c, 2, 69, 0
4, 123060, Note_on_c, 2, 67, 90
4, 123179, Note_on_c, 2, 67, 0
4, 123180, Note_on_c, 2, 66, 90
4, 123299, Note_on_c, 2, 66, 0
4, 123300, Note_on_c, 2, 63, 90
4, 123419, Note_on_c, 2, 63, 0
4, 123420, Note_on_c, 2, 62, 90
4, 123539, Note_on_c, 2, 62, 0
4, 123540, Note_on_c, 2, 60, 90
4, 123659, Note_on_c, 2, 60, 0
4, 123660, Note_on_c, 2, 60, 90
4, 123779, Note_on_c, 2, 60, 0
4, 123780, Note_on_c, 2, 60, 90
4, 123899, Note_on_c, 2, 60, 0
4, 124560, Note_on_c, 2, 71, 90
4, 124649, Note_on_c, 2, 71, 0
4, 124650, Note_on_c, 2, 72, 90
4, 124664, Note_on_c, 2, 72, 0
4, 124665, Note_on_c, 2, 74, 90
4, 124679, Note_on_c, 2, 74, 0
4, 124680, Note_on_c, 2, 72, 90
4, 124709, Note_on_c, 2, 72, 0
4, 124710, Note_on_c, 2, 71, 90
4, 124739, Note_on_c, 2, 71, 0
4, 124740, Note_on_c, 2, 69, 90
4, 124769, Note_on_c, 2, 69, 0
4, 124770, Note_on_c, 2, 67, 90
4, 124799, Note_on_c, 2, 67, 0
4, 124800, Note_on_c, 2, 69, 90
4, 124859, Note_on_c, 2, 69, 0
4, 124860, Note_on_c, 2, 66, 90
4, 124919, Note_on_c, 2, 66, 0
4, 124920, Note_on_c, 2, 67, 90
4, 124979, Note_on_c, 2, 67, 0
4, 124980, Note_on_c, 2, 62, 90
4, 125039, Note_on_c, 2, 62, 0
4, 125040, Note_on_c, 2, 71, 90
4, 125129, Note_on_c, 2, 71, 0
4, 125130, Note_on_c, 2, 72, 90
4, 125144, Note_on_c, 2, 72, 0
4, 125145, Note_on_c, 2, 74, 90
4, 125159, Note_on_c, 2, 74, 0
4, 125160, Note_on_c, 2, 72, 90
4, 125189, Note_on_c, 2, 72, 0
4, 125190, Note_on_c, 2, 71, 90
4, 125219, Note_on_c, 2, 71, 0
4, 125220, Note_on_c, 2, 69, 90
4, 125249, Note_on_c, 2, 69, 0
4, 125250, Note_on_c, 2, 67, 90
4, 125279, Note_on_c, 2, 67, 0
4, 125280, Note_on_c, 2, 72, 90
4, 125519, Note_on_c, 2, 72, 0
4, 125520, Note_on_c, 2, 69, 90
4, 125609, Note_on_c, 2, 69, 0
4, 125610, Note_on_c, 2, 71, 90
4, 125624, Note_on_c, 2, 71, 0
4, 125625, Note_on_c, 2, 72, 90
4, 125639, Note_on_c, 2, 72, 0
4, 125640, Note_on_c, 2, 72, 90
4, 125669, Note_on_c, 2, 72, 0
4, 125700, Note_on_c, 2, 72, 90
4, 125729, Note_on_c, 2, 72, 0
4, 125760, Note_on_c, 2, 76, 90
4, 125819, Note_on_c, 2, 76, 0
4, 125820, Note_on_c, 2, 72, 90
4, 125879, Note_on_c, 2, 72, 0
4, 125880, Note_on_c, 2, 72, 90
4, 125939, Note_on_c, 2, 72, 0
4, 125940, Note_on_c, 2, 69, 90
4, 125999, Note_on_c, 2, 69, 0
4, 126000, Note_on_c, 2, 69, 90
4, 126059, Note_on_c, 2, 69, 0
4, 126060, Note_on_c, 2, 71, 90
4, 126089, Note_on_c, 2, 71, 0
4, 126090, Note_on_c, 2, 72, 90
4, 126119, Note_on_c, 2, 72, 0
4, 126120, Note_on_c, 2, 74, 90
4, 126149, Note_on_c, 2, 74, 0
4, 126150, Note_on_c, 2, 72, 90
4, 126179, Note_on_c, 2, 72, 0
4, 126180, Note_on_c, 2, 71, 90
4, 126209, Note_on_c, 2, 71, 0
4, 126210, Note_on_c, 2, 74, 90
4, 126239, Note_on_c, 2, 74, 0
4, 126240, Note_on_c, 2, 72, 90
4, 126269, Note_on_c, 2, 72, 0
4, 126270, Note_on_c, 2, 71, 90
4, 126299, Note_on_c, 2, 71, 0
4, 126300, Note_on_c, 2, 69, 90
4, 126329, Note_on_c, 2, 69, 0
4, 126330, Note_on_c, 2, 72, 90
4, 126359, Note_on_c, 2, 72, 0
4, 126360, Note_on_c, 2, 71, 90
4, 126479, Note_on_c, 2, 71, 0
4, 126480, Note_on_c, 2, 62, 90
4, 126539, Note_on_c, 2, 62, 0
4, 126540, Note_on_c, 2, 64, 90
4, 126599, Note_on_c, 2, 64, 0
4, 126600, Note_on_c, 2, 64, 90
4, 126659, Note_on_c, 2, 64, 0
4, 126660, Note_on_c, 2, 66, 90
4, 126719, Note_on_c, 2, 66, 0
4, 126720, Note_on_c, 2, 66, 90
4, 126779, Note_on_c, 2, 66, 0
4, 126780, Note_on_c, 2, 67, 90
4, 126809, Note_on_c, 2, 67, 0
4, 126810, Note_on_c, 2, 66, 90
4, 126839, Note_on_c, 2, 66, 0
4, 126840, Note_on_c, 2, 67, 90
4, 126899, Note_on_c, 2, 67, 0
4, 126900, Note_on_c, 2, 62, 90
4, 126959, Note_on_c, 2, 62, 0
4, 126960, Note_on_c, 2, 62, 90
4, 127019, Note_on_c, 2, 62, 0
4, 127020, Note_on_c, 2, 64, 90
4, 127079, Note_on_c, 2, 64, 0
4, 127080, Note_on_c, 2, 64, 90
4, 127139, Note_on_c, 2, 64, 0
4, 127140, Note_on_c, 2, 65, 90
4, 127199, Note_on_c, 2, 65, 0
4, 127200, Note_on_c, 2, 65, 90
4, 127439, Note_on_c, 2, 65, 0
4, 127440, Note_on_c, 2, 64, 90
4, 127499, Note_on_c, 2, 64, 0
4, 127500, Note_on_c, 2, 69, 90
4, 127559, Note_on_c, 2, 69, 0
4, 127560, Note_on_c, 2, 69, 90
4, 127619, Note_on_c, 2, 69, 0
4, 127620, Note_on_c, 2, 72, 90
4, 127679, Note_on_c, 2, 72, 0
4, 127680, Note_on_c, 2, 72, 90
4, 127769, Note_on_c, 2, 72, 0
4, 127770, Note_on_c, 2, 74, 90
4, 127784, Note_on_c, 2, 74, 0
4, 127785, Note_on_c, 2, 76, 90
4, 127799, Note_on_c, 2, 76, 0
4, 127800, Note_on_c, 2, 74, 90
4, 127829, Note_on_c, 2, 74, 0
4, 127830, Note_on_c, 2, 72, 90
4, 127859, Note_on_c, 2, 72, 0
4, 127860, Note_on_c, 2, 71, 90
4, 127889, Note_on_c, 2, 71, 0
4, 127890, Note_on_c, 2, 69, 90
4, 127919, Note_on_c, 2, 69, 0
4, 127920, Note_on_c, 2, 67, 90
4, 127949, Note_on_c, 2, 67, 0
4, 127950, Note_on_c, 2, 66, 90
4, 127979, Note_on_c, 2, 66, 0
4, 127980, Note_on_c, 2, 67, 90
4, 128009, Note_on_c, 2, 67, 0
4, 128010, Note_on_c, 2, 72, 90
4, 128039, Note_on_c, 2, 72, 0
4, 128040, Note_on_c, 2, 69, 90
4, 128129, Note_on_c, 2, 69, 0
4, 128130, Note_on_c, 2, 67, 90
4, 128159, Note_on_c, 2, 67, 0
4, 128160, Note_on_c, 2, 67, 90
4, 128399, Note_on_c, 2, 67, 0
4, 128670, Note_on_c, 2, 66, 90
4, 128700, Note_on_c, 2, 66, 0
4, 128700, Note_on_c, 2, 67, 90
4, 128730, Note_on_c, 2, 67, 0
4, 128730, Note_on_c, 2, 69, 90
4, 128760, Note_on_c, 2, 69, 0
4, 128760, Note_on_c, 2, 63, 90
4, 128820, Note_on_c, 2, 63, 0
4, 129150, Note_on_c, 2, 66, 90
4, 129180, Note_on_c, 2, 66, 0
4, 129180, Note_on_c, 2, 67, 90
4, 129210, Note_on_c, 2, 67, 0
4, 129210, Note_on_c, 2, 69, 90
4, 129240, Note_on_c, 2, 69, 0
4, 129240, Note_on_c, 2, 63, 90
4, 129300, Note_on_c, 2, 63, 0
4, 130320, Note_on_c, 2, 76, 90
4, 130379, Note_on_c, 2, 76, 0
4, 130380, Note_on_c, 2, 77, 90
4, 130409, Note_on_c, 2, 77, 0
4, 130410, Note_on_c, 2, 76, 90
4, 130439, Note_on_c, 2, 76, 0
4, 130440, Note_on_c, 2, 74, 90
4, 130469, Note_on_c, 2, 74, 0
4, 130470, Note_on_c, 2, 72, 90
4, 130499, Note_on_c, 2, 72, 0
4, 130500, Note_on_c, 2, 71, 90
4, 130529, Note_on_c, 2, 71, 0
4, 130530, Note_on_c, 2, 69, 90
4, 130559, Note_on_c, 2, 69, 0
4, 130560, Note_on_c, 2, 68, 90
4, 130679, Note_on_c, 2, 68, 0
4, 130740, Note_on_c, 2, 64, 90
4, 130799, Note_on_c, 2, 64, 0
4, 130800, Note_on_c, 2, 76, 90
4, 130859, Note_on_c, 2, 76, 0
4, 130860, Note_on_c, 2, 77, 90
4, 130889, Note_on_c, 2, 77, 0
4, 130890, Note_on_c, 2, 76, 90
4, 130919, Note_on_c, 2, 76, 0
4, 130920, Note_on_c, 2, 74, 90
4, 130949, Note_on_c, 2, 74, 0
4, 130950, Note_on_c, 2, 72, 90
4, 130979, Note_on_c, 2, 72, 0
4, 130980, Note_on_c, 2, 71, 90
4, 131009, Note_on_c, 2, 71, 0
4, 131010, Note_on_c, 2, 69, 90
4, 131039, Note_on_c, 2, 69, 0
4, 131040, Note_on_c, 2, 68, 90
4, 131159, Note_on_c, 2, 68, 0
4, 131160, Note_on_c, 2, 71, 90
4, 131219, Note_on_c, 2, 71, 0
4, 131220, Note_on_c, 2, 72, 90
4, 131279, Note_on_c, 2, 72, 0
4, 131280, Note_on_c, 2, 74, 90
4, 131339, Note_on_c, 2, 74, 0
4, 131340, Note_on_c, 2, 72, 90
4, 131399, Note_on_c, 2, 72, 0
4, 131400, Note_on_c, 2, 71, 90
4, 131459, Note_on_c, 2, 71, 0
4, 131460, Note_on_c, 2, 76, 90
4, 131519, Note_on_c, 2, 76, 0
4, 131520, Note_on_c, 2, 72, 90
4, 131549, Note_on_c, 2, 72, 0
4, 131550, Note_on_c, 2, 71, 90
4, 131579, Note_on_c, 2, 71, 0
4, 131580, Note_on_c, 2, 69, 90
4, 131669, Note_on_c, 2, 69, 0
4, 131670, Note_on_c, 2, 64, 90
4, 131699, Note_on_c, 2, 64, 0
4, 131700, Note_on_c, 2, 69, 90
4, 131729, Note_on_c, 2, 69, 0
4, 131730, Note_on_c, 2, 71, 90
4, 131759, Note_on_c, 2, 71, 0
4, 131760, Note_on_c, 2, 72, 90
4, 131789, Note_on_c, 2, 72, 0
4, 131790, Note_on_c, 2, 71, 90
4, 131819, Note_on_c, 2, 71, 0
4, 131820, Note_on_c, 2, 72, 90
4, 131849, Note_on_c, 2, 72, 0
4, 131850, Note_on_c, 2, 76, 90
4, 131879, Note_on_c, 2, 76, 0
4, 131880, Note_on_c, 2, 74, 90
4, 131909, Note_on_c, 2, 74, 0
4, 131910, Note_on_c, 2, 72, 90
4, 131939, Note_on_c, 2, 72, 0
4, 131940, Note_on_c, 2, 71, 90
4, 131969, Note_on_c, 2, 71, 0
4, 131970, Note_on_c, 2, 69, 90
4, 131999, Note_on_c, 2, 69, 0
4, 132000, Note_on_c, 2, 71, 90
4, 132029, Note_on_c, 2, 71, 0
4, 132030, Note_on_c, 2, 69, 90
4, 132059, Note_on_c, 2, 69, 0
4, 132060, Note_on_c, 2, 67, 90
4, 132149, Note_on_c, 2, 67, 0
4, 132150, Note_on_c, 2, 62, 90
4, 132179, Note_on_c, 2, 62, 0
4, 132180, Note_on_c, 2, 67, 90
4, 132209, Note_on_c, 2, 67, 0
4, 132210, Note_on_c, 2, 69, 90
4, 132239, Note_on_c, 2, 69, 0
4, 132240, Note_on_c, 2, 71, 90
4, 132269, Note_on_c, 2, 71, 0
4, 132270, Note_on_c, 2, 69, 90
4, 132299, Note_on_c, 2, 69, 0
4, 132300, Note_on_c, 2, 72, 90
4, 132329, Note_on_c, 2, 72, 0
4, 132330, Note_on_c, 2, 71, 90
4, 132359, Note_on_c, 2, 71, 0
4, 132360, Note_on_c, 2, 69, 90
4, 132389, Note_on_c, 2, 69, 0
4, 132390, Note_on_c, 2, 67, 90
4, 132419, Note_on_c, 2, 67, 0
4, 132420, Note_on_c, 2, 66, 90
4, 132449, Note_on_c, 2, 66, 0
4, 132450, Note_on_c, 2, 64, 90
4, 132479, Note_on_c, 2, 64, 0
4, 132480, Note_on_c, 2, 63, 90
4, 132599, Note_on_c, 2, 63, 0
4, 132660, Note_on_c, 2, 59, 90
4, 132719, Note_on_c, 2, 59, 0
4, 132720, Note_on_c, 2, 71, 90
4, 132779, Note_on_c, 2, 71, 0
4, 132780, Note_on_c, 2, 72, 90
4, 132809, Note_on_c, 2, 72, 0
4, 132810, Note_on_c, 2, 71, 90
4, 132839, Note_on_c, 2, 71, 0
4, 132840, Note_on_c, 2, 69, 90
4, 132869, Note_on_c, 2, 69, 0
4, 132870, Note_on_c, 2, 67, 90
4, 132899, Note_on_c, 2, 67, 0
4, 132900, Note_on_c, 2, 66, 90
4, 132929, Note_on_c, 2, 66, 0
4, 132930, Note_on_c, 2, 64, 90
4, 132959, Note_on_c, 2, 64, 0
4, 132960, Note_on_c, 2, 63, 90
4, 133019, Note_on_c, 2, 63, 0
4, 133020, Note_on_c, 2, 64, 90
4, 133079, Note_on_c, 2, 64, 0
4, 133080, Note_on_c, 2, 66, 90
4, 133259, Note_on_c, 2, 66, 0
4, 133260, Note_on_c, 2, 67, 90
4, 133289, Note_on_c, 2, 67, 0
4, 133290, Note_on_c, 2, 69, 90
4, 133319, Note_on_c, 2, 69, 0
4, 133320, Note_on_c, 2, 67, 90
4, 133349, Note_on_c, 2, 67, 0
4, 133350, Note_on_c, 2, 66, 90
4, 133379, Note_on_c, 2, 66, 0
4, 133380, Note_on_c, 2, 64, 90
4, 133409, Note_on_c, 2, 64, 0
4, 133410, Note_on_c, 2, 66, 90
4, 133439, Note_on_c, 2, 66, 0
4, 133440, Note_on_c, 2, 67, 90
4, 133499, Note_on_c, 2, 67, 0
4, 133500, Note_on_c, 2, 69, 90
4, 133529, Note_on_c, 2, 69, 0
4, 133530, Note_on_c, 2, 71, 90
4, 133559, Note_on_c, 2, 71, 0
4, 133560, Note_on_c, 2, 64, 90
4, 133619, Note_on_c, 2, 64, 0
4, 133620, Note_on_c, 2, 72, 90
4, 133739, Note_on_c, 2, 72, 0
4, 133740, Note_on_c, 2, 71, 90
4, 133799, Note_on_c, 2, 71, 0
4, 134700, Note_on_c, 2, 70, 90
4, 134819, Note_on_c, 2, 70, 0
4, 134820, Note_on_c, 2, 71, 90
4, 134849, Note_on_c, 2, 71, 0
4, 134850, Note_on_c, 2, 73, 90
4, 134879, Note_on_c, 2, 73, 0
4, 134880, Note_on_c, 2, 71, 90
4, 134939, Note_on_c, 2, 71, 0
4, 134940, Note_on_c, 2, 64, 90
4, 134999, Note_on_c, 2, 64, 0
4, 135000, Note_on_c, 2, 63, 90
4, 135059, Note_on_c, 2, 63, 0
4, 135060, Note_on_c, 2, 66, 90
4, 135119, Note_on_c, 2, 66, 0
4, 135120, Note_on_c, 2, 69, 90
4, 135179, Note_on_c, 2, 69, 0
4, 135180, Note_on_c, 2, 75, 90
4, 135299, Note_on_c, 2, 75, 0
4, 135300, Note_on_c, 2, 76, 90
4, 135329, Note_on_c, 2, 76, 0
4, 135330, Note_on_c, 2, 78, 90
4, 135359, Note_on_c, 2, 78, 0
4, 135360, Note_on_c, 2, 76, 90
4, 135419, Note_on_c, 2, 76, 0
4, 135420, Note_on_c, 2, 69, 90
4, 135479, Note_on_c, 2, 69, 0
4, 135480, Note_on_c, 2, 68, 90
4, 135539, Note_on_c, 2, 68, 0
4, 135540, Note_on_c, 2, 71, 90
4, 135599, Note_on_c, 2, 71, 0
4, 135600, Note_on_c, 2, 74, 90
4, 135659, Note_on_c, 2, 74, 0
4, 135660, Note_on_c, 2, 72, 90
4, 135779, Note_on_c, 2, 72, 0
4, 135780, Note_on_c, 2, 71, 90
4, 135899, Note_on_c, 2, 71, 0
4, 135900, Note_on_c, 2, 69, 90
4, 136019, Note_on_c, 2, 69, 0
4, 136020, Note_on_c, 2, 67, 90
4, 136139, Note_on_c, 2, 67, 0
4, 136140, Note_on_c, 2, 65, 90
4, 136259, Note_on_c, 2, 65, 0
4, 136260, Note_on_c, 2, 64, 90
4, 136379, Note_on_c, 2, 64, 0
4, 136380, Note_on_c, 2, 63, 90
4, 136499, Note_on_c, 2, 63, 0
4, 136500, Note_on_c, 2, 60, 90
4, 136619, Note_on_c, 2, 60, 0
4, 136620, Note_on_c, 2, 59, 90
4, 136739, Note_on_c, 2, 59, 0
4, 136740, Note_on_c, 2, 57, 90
4, 136859, Note_on_c, 2, 57, 0
4, 138000, Note_on_c, 2, 71, 90
4, 138089, Note_on_c, 2, 71, 0
4, 138090, Note_on_c, 2, 72, 90
4, 138104, Note_on_c, 2, 72, 0
4, 138105, Note_on_c, 2, 74, 90
4, 138119, Note_on_c, 2, 74, 0
4, 138120, Note_on_c, 2, 72, 90
4, 138149, Note_on_c, 2, 72, 0
4, 138150, Note_on_c, 2, 71, 90
4, 138179, Note_on_c, 2, 71, 0
4, 138180, Note_on_c, 2, 69, 90
4, 138209, Note_on_c, 2, 69, 0
4, 138210, Note_on_c, 2, 67, 90
4, 138239, Note_on_c, 2, 67, 0
4, 138240, Note_on_c, 2, 69, 90
4, 138299, Note_on_c, 2, 69, 0
4, 138300, Note_on_c, 2, 66, 90
4, 138359, Note_on_c, 2, 66, 0
4, 138360, Note_on_c, 2, 67, 90
4, 138419, Note_on_c, 2, 67, 0
4, 138420, Note_on_c, 2, 62, 90
4, 138479, Note_on_c, 2, 62, 0
4, 138480, Note_on_c, 2, 71, 90
4, 138569, Note_on_c, 2, 71, 0
4, 138570, Note_on_c, 2, 72, 90
4, 138584, Note_on_c, 2, 72, 0
4, 138585, Note_on_c, 2, 74, 90
4, 138599, Note_on_c, 2, 74, 0
4, 138600, Note_on_c, 2, 72, 90
4, 138629, Note_on_c, 2, 72, 0
4, 138630, Note_on_c, 2, 71, 90
4, 138659, Note_on_c, 2, 71, 0
4, 138660, Note_on_c, 2, 69, 90
4, 138689, Note_on_c, 2, 69, 0
4, 138690, Note_on_c, 2, 67, 90
4, 138719, Note_on_c, 2, 67, 0
4, 138720, Note_on_c, 2, 72, 90
4, 138960, Note_on_c, 2, 72, 0
4, 138960, Note_on_c, 2, 69, 90
4, 139049, Note_on_c, 2, 69, 0
4, 139050, Note_on_c, 2, 71, 90
4, 139064, Note_on_c, 2, 71, 0
4, 139065, Note_on_c, 2, 72, 90
4, 139079, Note_on_c, 2, 72, 0
4, 139080, Note_on_c, 2, 72, 90
4, 139109, Note_on_c, 2, 72, 0
4, 139140, Note_on_c, 2, 72, 90
4, 139169, Note_on_c, 2, 72, 0
4, 139200, Note_on_c, 2, 76, 90
4, 139259, Note_on_c, 2, 76, 0
4, 139260, Note_on_c, 2, 72, 90
4, 139319, Note_on_c, 2, 72, 0
4, 139320, Note_on_c, 2, 72, 90
4, 139379, Note_on_c, 2, 72, 0
4, 139380, Note_on_c, 2, 69, 90
4, 139439, Note_on_c, 2, 69, 0
4, 139440, Note_on_c, 2, 69, 90
4, 139499, Note_on_c, 2, 69, 0
4, 139500, Note_on_c, 2, 71, 90
4, 139529, Note_on_c, 2, 71, 0
4, 139530, Note_on_c, 2, 72, 90
4, 139559, Note_on_c, 2, 72, 0
4, 139560, Note_on_c, 2, 74, 90
4, 139589, Note_on_c, 2, 74, 0
4, 139590, Note_on_c, 2, 72, 90
4, 139619, Note_on_c, 2, 72, 0
4, 139620, Note_on_c, 2, 71, 90
4, 139649, Note_on_c, 2, 71, 0
4, 139650, Note_on_c, 2, 74, 90
4, 139679, Note_on_c, 2, 74, 0
4, 139680, Note_on_c, 2, 72, 90
4, 139709, Note_on_c, 2, 72, 0
4, 139710, Note_on_c, 2, 71, 90
4, 139739, Note_on_c, 2, 71, 0
4, 139740, Note_on_c, 2, 69, 90
4, 139769, Note_on_c, 2, 69, 0
4, 139770, Note_on_c, 2, 72, 90
4, 139799, Note_on_c, 2, 72, 0
4, 139800, Note_on_c, 2, 71, 90
4, 139919, Note_on_c, 2, 71, 0
4, 139920, Note_on_c, 2, 62, 90
4, 139979, Note_on_c, 2, 62, 0
4, 139980, Note_on_c, 2, 64, 90
4, 140039, Note_on_c, 2, 64, 0
4, 140040, Note_on_c, 2, 64, 90
4, 140099, Note_on_c, 2, 64, 0
4, 140100, Note_on_c, 2, 66, 90
4, 140159, Note_on_c, 2, 66, 0
4, 140160, Note_on_c, 2, 66, 90
4, 140219, Note_on_c, 2, 66, 0
4, 140220, Note_on_c, 2, 67, 90
4, 140249, Note_on_c, 2, 67, 0
4, 140250, Note_on_c, 2, 66, 90
4, 140279, Note_on_c, 2, 66, 0
4, 140280, Note_on_c, 2, 67, 90
4, 140339, Note_on_c, 2, 67, 0
4, 140340, Note_on_c, 2, 62, 90
4, 140399, Note_on_c, 2, 62, 0
4, 140400, Note_on_c, 2, 62, 90
4, 140459, Note_on_c, 2, 62, 0
4, 140460, Note_on_c, 2, 64, 90
4, 140519, Note_on_c, 2, 64, 0
4, 140520, Note_on_c, 2, 64, 90
4, 140579, Note_on_c, 2, 64, 0
4, 140580, Note_on_c, 2, 65, 90
4, 140639, Note_on_c, 2, 65, 0
4, 140640, Note_on_c, 2, 65, 90
4, 140879, Note_on_c, 2, 65, 0
4, 140880, Note_on_c, 2, 64, 90
4, 140939, Note_on_c, 2, 64, 0
4, 140940, Note_on_c, 2, 69, 90
4, 140999, Note_on_c, 2, 69, 0
4, 141000, Note_on_c, 2, 69, 90
4, 141059, Note_on_c, 2, 69, 0
4, 141060, Note_on_c, 2, 72, 90
4, 141119, Note_on_c, 2, 72, 0
4, 141120, Note_on_c, 2, 72, 90
4, 141179, Note_on_c, 2, 72, 0
4, 141180, Note_on_c, 2, 74, 90
4, 141209, Note_on_c, 2, 74, 0
4, 141210, Note_on_c, 2, 76, 90
4, 141239, Note_on_c, 2, 76, 0
4, 141240, Note_on_c, 2, 74, 90
4, 141269, Note_on_c, 2, 74, 0
4, 141270, Note_on_c, 2, 72, 90
4, 141299, Note_on_c, 2, 72, 0
4, 141300, Note_on_c, 2, 71, 90
4, 141329, Note_on_c, 2, 71, 0
4, 141330, Note_on_c, 2, 69, 90
4, 141359, Note_on_c, 2, 69, 0
4, 141360, Note_on_c, 2, 67, 90
4, 141389, Note_on_c, 2, 67, 0
4, 141390, Note_on_c, 2, 66, 90
4, 141419, Note_on_c, 2, 66, 0
4, 141420, Note_on_c, 2, 67, 90
4, 141449, Note_on_c, 2, 67, 0
4, 141450, Note_on_c, 2, 72, 90
4, 141479, Note_on_c, 2, 72, 0
4, 141480, Note_on_c, 2, 69, 90
4, 141569, Note_on_c, 2, 69, 0
4, 141570, Note_on_c, 2, 67, 90
4, 141599, Note_on_c, 2, 67, 0
4, 141600, Note_on_c, 2, 67, 90
4, 141659, Note_on_c, 2, 67, 0
4, 141660, Note_on_c, 2, 73, 90
4, 141779, Note_on_c, 2, 73, 0
4, 141780, Note_on_c, 2, 74, 90
4, 141809, Note_on_c, 2, 74, 0
4, 141810, Note_on_c, 2, 76, 90
4, 141839, Note_on_c, 2, 76, 0
4, 141840, Note_on_c, 2, 74, 90
4, 141899, Note_on_c, 2, 74, 0
4, 141900, Note_on_c, 2, 67, 90
4, 141959, Note_on_c, 2, 67, 0
4, 141960, Note_on_c, 2, 66, 90
4, 142019, Note_on_c, 2, 66, 0
4, 142020, Note_on_c, 2, 69, 90
4, 142079, Note_on_c, 2, 69, 0
4, 142080, Note_on_c, 2, 72, 90
4, 142139, Note_on_c, 2, 72, 0
4, 142140, Note_on_c, 2, 78, 90
4, 142259, Note_on_c, 2, 78, 0
4, 142260, Note_on_c, 2, 79, 90
4, 142289, Note_on_c, 2, 79, 0
4, 142290, Note_on_c, 2, 81, 90
4, 142319, Note_on_c, 2, 81, 0
4, 142320, Note_on_c, 2, 79, 90
4, 142379, Note_on_c, 2, 79, 0
4, 142380, Note_on_c, 2, 72, 90
4, 142439, Note_on_c, 2, 72, 0
4, 142440, Note_on_c, 2, 71, 90
4, 142499, Note_on_c, 2, 71, 0
4, 142500, Note_on_c, 2, 74, 90
4, 142559, Note_on_c, 2, 74, 0
4, 142560, Note_on_c, 2, 77, 90
4, 142619, Note_on_c, 2, 77, 0
4, 142620, Note_on_c, 2, 76, 90
4, 142739, Note_on_c, 2, 76, 0
4, 142740, Note_on_c, 2, 74, 90
4, 142859, Note_on_c, 2, 74, 0
4, 142860, Note_on_c, 2, 72, 90
4, 142979, Note_on_c, 2, 72, 0
4, 142980, Note_on_c, 2, 70, 90
4, 143099, Note_on_c, 2, 70, 0
4, 143100, Note_on_c, 2, 69, 90
4, 143219, Note_on_c, 2, 69, 0
4, 143220, Note_on_c, 2, 67, 90
4, 143339, Note_on_c, 2, 67, 0
4, 143340, Note_on_c, 2, 66, 90
4, 143459, Note_on_c, 2, 66, 0
4, 143460, Note_on_c, 2, 63, 90
4, 143579, Note_on_c, 2, 63, 0
4, 143580, Note_on_c, 2, 62, 90
4, 143699, Note_on_c, 2, 62, 0
4, 143700, Note_on_c, 2, 60, 90
4, 143819, Note_on_c, 2, 60, 0
4, 143820, Note_on_c, 2, 59, 90
4, 143939, Note_on_c, 2, 59, 0
4, 143940, Note_on_c, 2, 60, 90
4, 143999, Note_on_c, 2, 60, 0
4, 144000, Note_on_c, 2, 62, 90
4, 144059, Note_on_c, 2, 62, 0
4, 144060, Note_on_c, 2, 64, 90
4, 144089, Note_on_c, 2, 64, 0
4, 144090, Note_on_c, 2, 62, 90
4, 144119, Note_on_c, 2, 62, 0
4, 144120, Note_on_c, 2, 60, 90
4, 144149, Note_on_c, 2, 60, 0
4, 144150, Note_on_c, 2, 59, 90
4, 144179, Note_on_c, 2, 59, 0
4, 144180, Note_on_c, 2, 57, 90
4, 144209, Note_on_c, 2, 57, 0
4, 144210, Note_on_c, 2, 69, 90
4, 144239, Note_on_c, 2, 69, 0
4, 144240, Note_on_c, 2, 67, 90
4, 144269, Note_on_c, 2, 67, 0
4, 144270, Note_on_c, 2, 66, 90
4, 144299, Note_on_c, 2, 66, 0
4, 144300, Note_on_c, 2, 64, 90
4, 144329, Note_on_c, 2, 64, 0
4, 144330, Note_on_c, 2, 62, 90
4, 144359, Note_on_c, 2, 62, 0
4, 144360, Note_on_c, 2, 72, 90
4, 144389, Note_on_c, 2, 72, 0
4, 144420, Note_on_c, 2, 71, 90
4, 144449, Note_on_c, 2, 71, 0
4, 144480, Note_on_c, 2, 69, 90
4, 144539, Note_on_c, 2, 69, 0
4, 144540, Note_on_c, 2, 67, 90
4, 144599, Note_on_c, 2, 67, 0
4, 144720, Note_on_c, 2, 71, 90
4, 144809, Note_on_c, 2, 71, 0
4, 144810, Note_on_c, 2, 72, 90
4, 144824, Note_on_c, 2, 72, 0
4, 144825, Note_on_c, 2, 74, 90
4, 144839, Note_on_c, 2, 74, 0
4, 144840, Note_on_c, 2, 72, 90
4, 144869, Note_on_c, 2, 72, 0
4, 144870, Note_on_c, 2, 71, 90
4, 144899, Note_on_c, 2, 71, 0
4, 144900, Note_on_c, 2, 69, 90
4, 144929, Note_on_c, 2, 69, 0
4, 144930, Note_on_c, 2, 67, 90
4, 144959, Note_on_c, 2, 67, 0
4, 144960, Note_on_c, 2, 69, 90
4, 145019, Note_on_c, 2, 69, 0
4, 145020, Note_on_c, 2, 66, 90
4, 145079, Note_on_c, 2, 66, 0
4, 145080, Note_on_c, 2, 67, 90
4, 145139, Note_on_c, 2, 67, 0
4, 145140, Note_on_c, 2, 62, 90
4, 145199, Note_on_c, 2, 62, 0
4, 145200, Note_on_c, 2, 71, 90
4, 145289, Note_on_c, 2, 71, 0
4, 145290, Note_on_c, 2, 72, 90
4, 145304, Note_on_c, 2, 72, 0
4, 145305, Note_on_c, 2, 74, 90
4, 145319, Note_on_c, 2, 74, 0
4, 145320, Note_on_c, 2, 72, 90
4, 145349, Note_on_c, 2, 72, 0
4, 145350, Note_on_c, 2, 71, 90
4, 145379, Note_on_c, 2, 71, 0
4, 145380, Note_on_c, 2, 69, 90
4, 145409, Note_on_c, 2, 69, 0
4, 145410, Note_on_c, 2, 67, 90
4, 145439, Note_on_c, 2, 67, 0
4, 145440, Note_on_c, 2, 74, 90
4, 145559, Note_on_c, 2, 74, 0
4, 145680, Note_on_c, 2, 72, 90
4, 145769, Note_on_c, 2, 72, 0
4, 145770, Note_on_c, 2, 74, 90
4, 145784, Note_on_c, 2, 74, 0
4, 145785, Note_on_c, 2, 76, 90
4, 145799, Note_on_c, 2, 76, 0
4, 145800, Note_on_c, 2, 74, 90
4, 145829, Note_on_c, 2, 74, 0
4, 145830, Note_on_c, 2, 72, 90
4, 145859, Note_on_c, 2, 72, 0
4, 145860, Note_on_c, 2, 71, 90
4, 145889, Note_on_c, 2, 71, 0
4, 145890, Note_on_c, 2, 69, 90
4, 145919, Note_on_c, 2, 69, 0
4, 145920, Note_on_c, 2, 71, 90
4, 145979, Note_on_c, 2, 71, 0
4, 145980, Note_on_c, 2, 68, 90
4, 146039, Note_on_c, 2, 68, 0
4, 146040, Note_on_c, 2, 69, 90
4, 146099, Note_on_c, 2, 69, 0
4, 146100, Note_on_c, 2, 64, 90
4, 146159, Note_on_c, 2, 64, 0
4, 146160, Note_on_c, 2, 72, 90
4, 146249, Note_on_c, 2, 72, 0
4, 146250, Note_on_c, 2, 74, 90
4, 146264, Note_on_c, 2, 74, 0
4, 146265, Note_on_c, 2, 76, 90
4, 146279, Note_on_c, 2, 76, 0
4, 146280, Note_on_c, 2, 74, 90
4, 146309, Note_on_c, 2, 74, 0
4, 146310, Note_on_c, 2, 72, 90
4, 146339, Note_on_c, 2, 72, 0
4, 146340, Note_on_c, 2, 71, 90
4, 146369, Note_on_c, 2, 71, 0
4, 146370, Note_on_c, 2, 69, 90
4, 146399, Note_on_c, 2, 69, 0
4, 146400, Note_on_c, 2, 76, 90
4, 146519, Note_on_c, 2, 76, 0
4, 146640, Note_on_c, 2, 69, 90
4, 146729, Note_on_c, 2, 69, 0
4, 146730, Note_on_c, 2, 71, 90
4, 146744, Note_on_c, 2, 71, 0
4, 146745, Note_on_c, 2, 72, 90
4, 146759, Note_on_c, 2, 72, 0
4, 146760, Note_on_c, 2, 72, 90
4, 146789, Note_on_c, 2, 72, 0
4, 146820, Note_on_c, 2, 72, 90
4, 146849, Note_on_c, 2, 72, 0
4, 146880, Note_on_c, 2, 76, 90
4, 146939, Note_on_c, 2, 76, 0
4, 146940, Note_on_c, 2, 72, 90
4, 146999, Note_on_c, 2, 72, 0
4, 147000, Note_on_c, 2, 72, 90
4, 147059, Note_on_c, 2, 72, 0
4, 147060, Note_on_c, 2, 69, 90
4, 147119, Note_on_c, 2, 69, 0
4, 147120, Note_on_c, 2, 69, 90
4, 147179, Note_on_c, 2, 69, 0
4, 147180, Note_on_c, 2, 71, 90
4, 147209, Note_on_c, 2, 71, 0
4, 147210, Note_on_c, 2, 72, 90
4, 147239, Note_on_c, 2, 72, 0
4, 147240, Note_on_c, 2, 74, 90
4, 147269, Note_on_c, 2, 74, 0
4, 147270, Note_on_c, 2, 72, 90
4, 147299, Note_on_c, 2, 72, 0
4, 147300, Note_on_c, 2, 71, 90
4, 147329, Note_on_c, 2, 71, 0
4, 147330, Note_on_c, 2, 69, 90
4, 147359, Note_on_c, 2, 69, 0
4, 147360, Note_on_c, 2, 67, 90
4, 147389, Note_on_c, 2, 67, 0
4, 147390, Note_on_c, 2, 66, 90
4, 147419, Note_on_c, 2, 66, 0
4, 147420, Note_on_c, 2, 64, 90
4, 147449, Note_on_c, 2, 64, 0
4, 147450, Note_on_c, 2, 62, 90
4, 147479, Note_on_c, 2, 62, 0
4, 147480, Note_on_c, 2, 79, 90
4, 147599, Note_on_c, 2, 79, 0
4, 147600, Note_on_c, 2, 62, 90
4, 147659, Note_on_c, 2, 62, 0
4, 147660, Note_on_c, 2, 64, 90
4, 147719, Note_on_c, 2, 64, 0
4, 147720, Note_on_c, 2, 64, 90
4, 147779, Note_on_c, 2, 64, 0
4, 147780, Note_on_c, 2, 66, 90
4, 147839, Note_on_c, 2, 66, 0
4, 147840, Note_on_c, 2, 66, 90
4, 147899, Note_on_c, 2, 66, 0
4, 147900, Note_on_c, 2, 67, 90
4, 147929, Note_on_c, 2, 67, 0
4, 147930, Note_on_c, 2, 66, 90
4, 147959, Note_on_c, 2, 66, 0
4, 147960, Note_on_c, 2, 67, 90
4, 148019, Note_on_c, 2, 67, 0
4, 148020, Note_on_c, 2, 62, 90
4, 148079, Note_on_c, 2, 62, 0
4, 148080, Note_on_c, 2, 62, 90
4, 148139, Note_on_c, 2, 62, 0
4, 148140, Note_on_c, 2, 64, 90
4, 148199, Note_on_c, 2, 64, 0
4, 148200, Note_on_c, 2, 64, 90
4, 148259, Note_on_c, 2, 64, 0
4, 148260, Note_on_c, 2, 65, 90
4, 148319, Note_on_c, 2, 65, 0
4, 148320, Note_on_c, 2, 65, 90
4, 148799, Note_on_c, 2, 65, 0
4, 148800, Note_on_c, 2, 64, 90
4, 149279, Note_on_c, 2, 64, 0
4, 149280, Note_on_c, 2, 66, 90
4, 149459, Note_on_c, 2, 66, 0
4, 149460, Note_on_c, 2, 67, 90
4, 149489, Note_on_c, 2, 67, 0
4, 149490, Note_on_c, 2, 69, 90
4, 149519, Note_on_c, 2, 69, 0
4, 149520, Note_on_c, 2, 71, 90
4, 149609, Note_on_c, 2, 71, 0
4, 149610, Note_on_c, 2, 72, 90
4, 149624, Note_on_c, 2, 72, 0
4, 149625, Note_on_c, 2, 74, 90
4, 149639, Note_on_c, 2, 74, 0
4, 149640, Note_on_c, 2, 72, 90
4, 149669, Note_on_c, 2, 72, 0
4, 149670, Note_on_c, 2, 71, 90
4, 149699, Note_on_c, 2, 71, 0
4, 149700, Note_on_c, 2, 69, 90
4, 149729, Note_on_c, 2, 69, 0
4, 149730, Note_on_c, 2, 67, 90
4, 149759, Note_on_c, 2, 67, 0
4, 149760, Note_on_c, 2, 69, 90
4, 149819, Note_on_c, 2, 69, 0
4, 149820, Note_on_c, 2, 66, 90
4, 149879, Note_on_c, 2, 66, 0
4, 149880, Note_on_c, 2, 67, 90
4, 149939, Note_on_c, 2, 67, 0
4, 149940, Note_on_c, 2, 62, 90
4, 149999, Note_on_c, 2, 62, 0
4, 150000, Note_on_c, 2, 71, 90
4, 150089, Note_on_c, 2, 71, 0
4, 150090, Note_on_c, 2, 72, 90
4, 150104, Note_on_c, 2, 72, 0
4, 150105, Note_on_c, 2, 74, 90
4, 150119, Note_on_c, 2, 74, 0
4, 150120, Note_on_c, 2, 72, 90
4, 150149, Note_on_c, 2, 72, 0
4, 150150, Note_on_c, 2, 71, 90
4, 150179, Note_on_c, 2, 71, 0
4, 150180, Note_on_c, 2, 69, 90
4, 150209, Note_on_c, 2, 69, 0
4, 150210, Note_on_c, 2, 67, 90
4, 150239, Note_on_c, 2, 67, 0
4, 150240, Note_on_c, 2, 69, 90
4, 150269, Note_on_c, 2, 69, 0
4, 150270, Note_on_c, 2, 74, 90
4, 150299, Note_on_c, 2, 74, 0
4, 150300, Note_on_c, 2, 73, 90
4, 150329, Note_on_c, 2, 73, 0
4, 150330, Note_on_c, 2, 71, 90
4, 150359, Note_on_c, 2, 71, 0
4, 150360, Note_on_c, 2, 69, 90
4, 150389, Note_on_c, 2, 69, 0
4, 150390, Note_on_c, 2, 67, 90
4, 150419, Note_on_c, 2, 67, 0
4, 150420, Note_on_c, 2, 66, 90
4, 150449, Note_on_c, 2, 66, 0
4, 150450, Note_on_c, 2, 64, 90
4, 150479, Note_on_c, 2, 64, 0
4, 150480, Note_on_c, 2, 62, 90
4, 150599, Note_on_c, 2, 62, 0
4, 151260, Note_on_c, 2, 68, 90
4, 151379, Note_on_c, 2, 68, 0
4, 151380, Note_on_c, 2, 69, 90
4, 151409, Note_on_c, 2, 69, 0
4, 151410, Note_on_c, 2, 71, 90
4, 151439, Note_on_c, 2, 71, 0
4, 151440, Note_on_c, 2, 69, 90
4, 151499, Note_on_c, 2, 69, 0
4, 151500, Note_on_c, 2, 62, 90
4, 151559, Note_on_c, 2, 62, 0
4, 151560, Note_on_c, 2, 61, 90
4, 151619, Note_on_c, 2, 61, 0
4, 151620, Note_on_c, 2, 64, 90
4, 151679, Note_on_c, 2, 64, 0
4, 151680, Note_on_c, 2, 67, 90
4, 151739, Note_on_c, 2, 67, 0
4, 151740, Note_on_c, 2, 73, 90
4, 151859, Note_on_c, 2, 73, 0
4, 151860, Note_on_c, 2, 74, 90
4, 151889, Note_on_c, 2, 74, 0
4, 151890, Note_on_c, 2, 76, 90
4, 151919, Note_on_c, 2, 76, 0
4, 151920, Note_on_c, 2, 74, 90
4, 151979, Note_on_c, 2, 74, 0
4, 151980, Note_on_c, 2, 67, 90
4, 152039, Note_on_c, 2, 67, 0
4, 152040, Note_on_c, 2, 66, 90
4, 152099, Note_on_c, 2, 66, 0
4, 152100, Note_on_c, 2, 69, 90
4, 152159, Note_on_c, 2, 69, 0
4, 152160, Note_on_c, 2, 72, 90
4, 152219, Note_on_c, 2, 72, 0
4, 152220, Note_on_c, 2, 71, 90
4, 152339, Note_on_c, 2, 71, 0
4, 152340, Note_on_c, 2, 69, 90
4, 152459, Note_on_c, 2, 69, 0
4, 152460, Note_on_c, 2, 67, 90
4, 152579, Note_on_c, 2, 67, 0
4, 152580, Note_on_c, 2, 77, 90
4, 152699, Note_on_c, 2, 77, 0
4, 152700, Note_on_c, 2, 76, 90
4, 152819, Note_on_c, 2, 76, 0
4, 152820, Note_on_c, 2, 74, 90
4, 152939, Note_on_c, 2, 74, 0
4, 152940, Note_on_c, 2, 73, 90
4, 153059, Note_on_c, 2, 73, 0
4, 153060, Note_on_c, 2, 70, 90
4, 153179, Note_on_c, 2, 70, 0
4, 153180, Note_on_c, 2, 69, 90
4, 153299, Note_on_c, 2, 69, 0
4, 153300, Note_on_c, 2, 67, 90
4, 153419, Note_on_c, 2, 67, 0
4, 153420, Note_on_c, 2, 66, 90
4, 153539, Note_on_c, 2, 66, 0
4, 153540, Note_on_c, 2, 67, 90
4, 153599, Note_on_c, 2, 67, 0
4, 153600, Note_on_c, 2, 69, 90
4, 153659, Note_on_c, 2, 69, 0
4, 153660, Note_on_c, 2, 71, 90
4, 153689, Note_on_c, 2, 71, 0
4, 153690, Note_on_c, 2, 69, 90
4, 153719, Note_on_c, 2, 69, 0
4, 153720, Note_on_c, 2, 67, 90
4, 153749, Note_on_c, 2, 67, 0
4, 153750, Note_on_c, 2, 66, 90
4, 153779, Note_on_c, 2, 66, 0
4, 153780, Note_on_c, 2, 64, 90
4, 153809, Note_on_c, 2, 64, 0
4, 153810, Note_on_c, 2, 76, 90
4, 153839, Note_on_c, 2, 76, 0
4, 153840, Note_on_c, 2, 74, 90
4, 153869, Note_on_c, 2, 74, 0
4, 153870, Note_on_c, 2, 73, 90
4, 153899, Note_on_c, 2, 73, 0
4, 153900, Note_on_c, 2, 71, 90
4, 153929, Note_on_c, 2, 71, 0
4, 153930, Note_on_c, 2, 69, 90
4, 153959, Note_on_c, 2, 69, 0
4, 153960, Note_on_c, 2, 79, 90
4, 153989, Note_on_c, 2, 79, 0
4, 154020, Note_on_c, 2, 78, 90
4, 154049, Note_on_c, 2, 78, 0
4, 154080, Note_on_c, 2, 76, 90
4, 154109, Note_on_c, 2, 76, 0
4, 154110, Note_on_c, 2, 74, 90
4, 154139, Note_on_c, 2, 74, 0
4, 154140, Note_on_c, 2, 73, 90
4, 154169, Note_on_c, 2, 73, 0
4, 154170, Note_on_c, 2, 71, 90
4, 154199, Note_on_c, 2, 71, 0
4, 154200, Note_on_c, 2, 69, 90
4, 154229, Note_on_c, 2, 69, 0
4, 154230, Note_on_c, 2, 67, 90
4, 154259, Note_on_c, 2, 67, 0
4, 154260, Note_on_c, 2, 66, 90
4, 154289, Note_on_c, 2, 66, 0
4, 154290, Note_on_c, 2, 64, 90
4, 154319, Note_on_c, 2, 64, 0
4, 154320, Note_on_c, 2, 66, 90
4, 154379, Note_on_c, 2, 66, 0
4, 154380, Note_on_c, 2, 74, 90
4, 154499, Note_on_c, 2, 74, 0
4, 154500, Note_on_c, 2, 73, 90
4, 154619, Note_on_c, 2, 73, 0
4, 154620, Note_on_c, 2, 67, 90
4, 154739, Note_on_c, 2, 67, 0
4, 154740, Note_on_c, 2, 66, 90
4, 154859, Note_on_c, 2, 66, 0
4, 154860, Note_on_c, 2, 62, 90
4, 154979, Note_on_c, 2, 62, 0
4, 154980, Note_on_c, 2, 64, 90
4, 155039, Note_on_c, 2, 64, 0
4, 155040, Note_on_c, 2, 66, 90
4, 155129, Note_on_c, 2, 66, 0
4, 155130, Note_on_c, 2, 67, 90
4, 155144, Note_on_c, 2, 67, 0
4, 155145, Note_on_c, 2, 69, 90
4, 155159, Note_on_c, 2, 69, 0
4, 155160, Note_on_c, 2, 67, 90
4, 155189, Note_on_c, 2, 67, 0
4, 155190, Note_on_c, 2, 66, 90
4, 155219, Note_on_c, 2, 66, 0
4, 155220, Note_on_c, 2, 64, 90
4, 155249, Note_on_c, 2, 64, 0
4, 155250, Note_on_c, 2, 62, 90
4, 155279, Note_on_c, 2, 62, 0
4, 155280, Note_on_c, 2, 74, 90
4, 155339, Note_on_c, 2, 74, 0
4, 155340, Note_on_c, 2, 79, 90
4, 155459, Note_on_c, 2, 79, 0
4, 155460, Note_on_c, 2, 78, 90
4, 155579, Note_on_c, 2, 78, 0
4, 155580, Note_on_c, 2, 72, 90
4, 155699, Note_on_c, 2, 72, 0
4, 155700, Note_on_c, 2, 71, 90
4, 155819, Note_on_c, 2, 71, 0
4, 155820, Note_on_c, 2, 67, 90
4, 155939, Note_on_c, 2, 67, 0
4, 155940, Note_on_c, 2, 69, 90
4, 155999, Note_on_c, 2, 69, 0
4, 156000, Note_on_c, 2, 71, 90
4, 156089, Note_on_c, 2, 71, 0
4, 156090, Note_on_c, 2, 72, 90
4, 156104, Note_on_c, 2, 72, 0
4, 156105, Note_on_c, 2, 74, 90
4, 156119, Note_on_c, 2, 74, 0
4, 156120, Note_on_c, 2, 72, 90
4, 156149, Note_on_c, 2, 72, 0
4, 156150, Note_on_c, 2, 71, 90
4, 156179, Note_on_c, 2, 71, 0
4, 156180, Note_on_c, 2, 69, 90
4, 156209, Note_on_c, 2, 69, 0
4, 156210, Note_on_c, 2, 67, 90
4, 156239, Note_on_c, 2, 67, 0
4, 156240, Note_on_c, 2, 76, 90
4, 156299, Note_on_c, 2, 76, 0
4, 156360, Note_on_c, 2, 71, 90
4, 156419, Note_on_c, 2, 71, 0
4, 156480, Note_on_c, 2, 64, 90
4, 156539, Note_on_c, 2, 64, 0
4, 156540, Note_on_c, 2, 76, 90
4, 156629, Note_on_c, 2, 76, 0
4, 156630, Note_on_c, 2, 74, 90
4, 156659, Note_on_c, 2, 74, 0
4, 156660, Note_on_c, 2, 72, 90
4, 156689, Note_on_c, 2, 72, 0
4, 156690, Note_on_c, 2, 71, 90
4, 156719, Note_on_c, 2, 71, 0
4, 156720, Note_on_c, 2, 69, 90
4, 156779, Note_on_c, 2, 69, 0
4, 156840, Note_on_c, 2, 66, 90
4, 156899, Note_on_c, 2, 66, 0
4, 156960, Note_on_c, 2, 62, 90
4, 157019, Note_on_c, 2, 62, 0
4, 157020, Note_on_c, 2, 74, 90
4, 157109, Note_on_c, 2, 74, 0
4, 157110, Note_on_c, 2, 72, 90
4, 157139, Note_on_c, 2, 72, 0
4, 157140, Note_on_c, 2, 71, 90
4, 157169, Note_on_c, 2, 71, 0
4, 157170, Note_on_c, 2, 74, 90
4, 157199, Note_on_c, 2, 74, 0
4, 157200, Note_on_c, 2, 64, 90
4, 157259, Note_on_c, 2, 64, 0
4, 157260, Note_on_c, 2, 69, 90
4, 157319, Note_on_c, 2, 69, 0
4, 157320, Note_on_c, 2, 69, 90
4, 157379, Note_on_c, 2, 69, 0
4, 157380, Note_on_c, 2, 72, 90
4, 157439, Note_on_c, 2, 72, 0
4, 157440, Note_on_c, 2, 72, 90
4, 157529, Note_on_c, 2, 72, 0
4, 157530, Note_on_c, 2, 74, 90
4, 157544, Note_on_c, 2, 74, 0
4, 157545, Note_on_c, 2, 76, 90
4, 157559, Note_on_c, 2, 76, 0
4, 157560, Note_on_c, 2, 74, 90
4, 157589, Note_on_c, 2, 74, 0
4, 157590, Note_on_c, 2, 72, 90
4, 157619, Note_on_c, 2, 72, 0
4, 157620, Note_on_c, 2, 71, 90
4, 157649, Note_on_c, 2, 71, 0
4, 157650, Note_on_c, 2, 69, 90
4, 157679, Note_on_c, 2, 69, 0
4, 157680, Note_on_c, 2, 67, 90
4, 157709, Note_on_c, 2, 67, 0
4, 157710, Note_on_c, 2, 66, 90
4, 157739, Note_on_c, 2, 66, 0
4, 157740, Note_on_c, 2, 67, 90
4, 157769, Note_on_c, 2, 67, 0
4, 157770, Note_on_c, 2, 72, 90
4, 157799, Note_on_c, 2, 72, 0
4, 157800, Note_on_c, 2, 69, 90
4, 157889, Note_on_c, 2, 69, 0
4, 157890, Note_on_c, 2, 67, 90
4, 157919, Note_on_c, 2, 67, 0
4, 157920, Note_on_c, 2, 67, 90
4, 157979, Note_on_c, 2, 67, 0
4, 157980, Note_on_c, 2, 73, 90
4, 158099, Note_on_c, 2, 73, 0
4, 158100, Note_on_c, 2, 74, 90
4, 158129, Note_on_c, 2, 74, 0
4, 158130, Note_on_c, 2, 76, 90
4, 158159, Note_on_c, 2, 76, 0
4, 158160, Note_on_c, 2, 74, 90
4, 158219, Note_on_c, 2, 74, 0
4, 158220, Note_on_c, 2, 67, 90
4, 158279, Note_on_c, 2, 67, 0
4, 158280, Note_on_c, 2, 66, 90
4, 158339, Note_on_c, 2, 66, 0
4, 158340, Note_on_c, 2, 69, 90
4, 158399, Note_on_c, 2, 69, 0
4, 158400, Note_on_c, 2, 72, 90
4, 158459, Note_on_c, 2, 72, 0
4, 158460, Note_on_c, 2, 78, 90
4, 158579, Note_on_c, 2, 78, 0
4, 158580, Note_on_c, 2, 79, 90
4, 158609, Note_on_c, 2, 79, 0
4, 158610, Note_on_c, 2, 81, 90
4, 158639, Note_on_c, 2, 81, 0
4, 158640, Note_on_c, 2, 79, 90
4, 158699, Note_on_c, 2, 79, 0
4, 158700, Note_on_c, 2, 72, 90
4, 158759, Note_on_c, 2, 72, 0
4, 158760, Note_on_c, 2, 71, 90
4, 158819, Note_on_c, 2, 71, 0
4, 158820, Note_on_c, 2, 74, 90
4, 158879, Note_on_c, 2, 74, 0
4, 158880, Note_on_c, 2, 77, 90
4, 158939, Note_on_c, 2, 77, 0
4, 158940, Note_on_c, 2, 76, 90
4, 159059, Note_on_c, 2, 76, 0
4, 159060, Note_on_c, 2, 74, 90
4, 159179, Note_on_c, 2, 74, 0
4, 159180, Note_on_c, 2, 72, 90
4, 159299, Note_on_c, 2, 72, 0
4, 159300, Note_on_c, 2, 70, 90
4, 159419, Note_on_c, 2, 70, 0
4, 159420, Note_on_c, 2, 69, 90
4, 159539, Note_on_c, 2, 69, 0
4, 159540, Note_on_c, 2, 67, 90
4, 159659, Note_on_c, 2, 67, 0
4, 159660, Note_on_c, 2, 66, 90
4, 159779, Note_on_c, 2, 66, 0
4, 159780, Note_on_c, 2, 63, 90
4, 159899, Note_on_c, 2, 63, 0
4, 159900, Note_on_c, 2, 62, 90
4, 160019, Note_on_c, 2, 62, 0
4, 160020, Note_on_c, 2, 60, 90
4, 160139, Note_on_c, 2, 60, 0
4, 160140, Note_on_c, 2, 60, 90
4, 160259, Note_on_c, 2, 60, 0
4, 160260, Note_on_c, 2, 60, 90
4, 160379, Note_on_c, 2, 60, 0
4, 161040, Note_on_c, 2, 71, 90
4, 161129, Note_on_c, 2, 71, 0
4, 161130, Note_on_c, 2, 72, 90
4, 161144, Note_on_c, 2, 72, 0
4, 161145, Note_on_c, 2, 74, 90
4, 161159, Note_on_c, 2, 74, 0
4, 161160, Note_on_c, 2, 72, 90
4, 161189, Note_on_c, 2, 72, 0
4, 161190, Note_on_c, 2, 71, 90
4, 161219, Note_on_c, 2, 71, 0
4, 161220, Note_on_c, 2, 69, 90
4, 161249, Note_on_c, 2, 69, 0
4, 161250, Note_on_c, 2, 67, 90
4, 161279, Note_on_c, 2, 67, 0
4, 161280, Note_on_c, 2, 69, 90
4, 161339, Note_on_c, 2, 69, 0
4, 161340, Note_on_c, 2, 66, 90
4, 161399, Note_on_c, 2, 66, 0
4, 161400, Note_on_c, 2, 67, 90
4, 161459, Note_on_c, 2, 67, 0
4, 161460, Note_on_c, 2, 62, 90
4, 161519, Note_on_c, 2, 62, 0
4, 161520, Note_on_c, 2, 71, 90
4, 161609, Note_on_c, 2, 71, 0
4, 161610, Note_on_c, 2, 72, 90
4, 161624, Note_on_c, 2, 72, 0
4, 161625, Note_on_c, 2, 74, 90
4, 161639, Note_on_c, 2, 74, 0
4, 161640, Note_on_c, 2, 72, 90
4, 161669, Note_on_c, 2, 72, 0
4, 161670, Note_on_c, 2, 71, 90
4, 161699, Note_on_c, 2, 71, 0
4, 161700, Note_on_c, 2, 69, 90
4, 161729, Note_on_c, 2, 69, 0
4, 161730, Note_on_c, 2, 67, 90
4, 161759, Note_on_c, 2, 67, 0
4, 161760, Note_on_c, 2, 72, 90
4, 161999, Note_on_c, 2, 72, 0
4, 162000, Note_on_c, 2, 69, 90
4, 162089, Note_on_c, 2, 69, 0
4, 162090, Note_on_c, 2, 71, 90
4, 162104, Note_on_c, 2, 71, 0
4, 162105, Note_on_c, 2, 72, 90
4, 162119, Note_on_c, 2, 72, 0
4, 162120, Note_on_c, 2, 72, 90
4, 162149, Note_on_c, 2, 72, 0
4, 162180, Note_on_c, 2, 72, 90
4, 162209, Note_on_c, 2, 72, 0
4, 162240, Note_on_c, 2, 76, 90
4, 162299, Note_on_c, 2, 76, 0
4, 162300, Note_on_c, 2, 72, 90
4, 162359, Note_on_c, 2, 72, 0
4, 162360, Note_on_c, 2, 72, 90
4, 162419, Note_on_c, 2, 72, 0
4, 162420, Note_on_c, 2, 69, 90
4, 162479, Note_on_c, 2, 69, 0
4, 162480, Note_on_c, 2, 69, 90
4, 162539, Note_on_c, 2, 69, 0
4, 162540, Note_on_c, 2, 71, 90
4, 162569, Note_on_c, 2, 71, 0
4, 162570, Note_on_c, 2, 72, 90
4, 162599, Note_on_c, 2, 72, 0
4, 162600, Note_on_c, 2, 74, 90
4, 162629, Note_on_c, 2, 74, 0
4, 162630, Note_on_c, 2, 72, 90
4, 162659, Note_on_c, 2, 72, 0
4, 162660, Note_on_c, 2, 71, 90
4, 162689, Note_on_c, 2, 71, 0
4, 162690, Note_on_c, 2, 74, 90
4, 162719, Note_on_c, 2, 74, 0
4, 162720, Note_on_c, 2, 72, 90
4, 162749, Note_on_c, 2, 72, 0
4, 162750, Note_on_c, 2, 71, 90
4, 162779, Note_on_c, 2, 71, 0
4, 162780, Note_on_c, 2, 69, 90
4, 162809, Note_on_c, 2, 69, 0
4, 162810, Note_on_c, 2, 72, 90
4, 162839, Note_on_c, 2, 72, 0
4, 162840, Note_on_c, 2, 71, 90
4, 162959, Note_on_c, 2, 71, 0
4, 162960, Note_on_c, 2, 62, 90
4, 163019, Note_on_c, 2, 62, 0
4, 163020, Note_on_c, 2, 64, 90
4, 163079, Note_on_c, 2, 64, 0
4, 163080, Note_on_c, 2, 64, 90
4, 163139, Note_on_c, 2, 64, 0
4, 163140, Note_on_c, 2, 66, 90
4, 163199, Note_on_c, 2, 66, 0
4, 163200, Note_on_c, 2, 66, 90
4, 163259, Note_on_c, 2, 66, 0
4, 163260, Note_on_c, 2, 67, 90
4, 163289, Note_on_c, 2, 67, 0
4, 163290, Note_on_c, 2, 66, 90
4, 163319, Note_on_c, 2, 66, 0
4, 163320, Note_on_c, 2, 67, 90
4, 163379, Note_on_c, 2, 67, 0
4, 163380, Note_on_c, 2, 62, 90
4, 163439, Note_on_c, 2, 62, 0
4, 163440, Note_on_c, 2, 62, 90
4, 163499, Note_on_c, 2, 62, 0
4, 163500, Note_on_c, 2, 64, 90
4, 163559, Note_on_c, 2, 64, 0
4, 163560, Note_on_c, 2, 64, 90
4, 163619, Note_on_c, 2, 64, 0
4, 163620, Note_on_c, 2, 65, 90
4, 163679, Note_on_c, 2, 65, 0
4, 163680, Note_on_c, 2, 65, 90
4, 163919, Note_on_c, 2, 65, 0
4, 163920, Note_on_c, 2, 64, 90
4, 163979, Note_on_c, 2, 64, 0
4, 163980, Note_on_c, 2, 69, 90
4, 164039, Note_on_c, 2, 69, 0
4, 164040, Note_on_c, 2, 69, 90
4, 164099, Note_on_c, 2, 69, 0
4, 164100, Note_on_c, 2, 72, 90
4, 164159, Note_on_c, 2, 72, 0
4, 164160, Note_on_c, 2, 72, 90
4, 164249, Note_on_c, 2, 72, 0
4, 164250, Note_on_c, 2, 74, 90
4, 164264, Note_on_c, 2, 74, 0
4, 164265, Note_on_c, 2, 76, 90
4, 164279, Note_on_c, 2, 76, 0
4, 164280, Note_on_c, 2, 74, 90
4, 164309, Note_on_c, 2, 74, 0
4, 164310, Note_on_c, 2, 72, 90
4, 164339, Note_on_c, 2, 72, 0
4, 164340, Note_on_c, 2, 71, 90
4, 164369, Note_on_c, 2, 71, 0
4, 164370, Note_on_c, 2, 69, 90
4, 164399, Note_on_c, 2, 69, 0
4, 164400, Note_on_c, 2, 67, 90
4, 164429, Note_on_c, 2, 67, 0
4, 164430, Note_on_c, 2, 66, 90
4, 164459, Note_on_c, 2, 66, 0
4, 164460, Note_on_c, 2, 67, 90
4, 164489, Note_on_c, 2, 67, 0
4, 164490, Note_on_c, 2, 72, 90
4, 164519, Note_on_c, 2, 72, 0
4, 164520, Note_on_c, 2, 69, 90
4, 164609, Note_on_c, 2, 69, 0
4, 164610, Note_on_c, 2, 67, 90
4, 164639, Note_on_c, 2, 67, 0
4, 164640, Note_on_c, 2, 67, 90
4, 164879, Note_on_c, 2, 67, 0
4, 167280, Note_on_c, 2, 79, 90
4, 167340, Note_on_c, 2, 79, 0
4, 167460, Note_on_c, 2, 79, 90
4, 167490, Note_on_c, 2, 79, 0
4, 167520, Note_on_c, 2, 76, 90
4, 167550, Note_on_c, 2, 76, 0
4, 167700, Note_on_c, 2, 76, 90
4, 167730, Note_on_c, 2, 76, 0
4, 167760, Note_on_c, 2, 74, 90
4, 167790, Note_on_c, 2, 74, 0
4, 167940, Note_on_c, 2, 74, 90
4, 167970, Note_on_c, 2, 74, 0
4, 168000, Note_on_c, 2, 76, 90
4, 168030, Note_on_c, 2, 76, 0
4, 168180, Note_on_c, 2, 76, 90
4, 168210, Note_on_c, 2, 76, 0
4, 168240, Note_on_c, 2, 78, 90
4, 168270, Note_on_c, 2, 78, 0
4, 168420, Note_on_c, 2, 78, 90
4, 168450, Note_on_c, 2, 78, 0
4, 168480, Note_on_c, 2, 79, 90
4, 168510, Note_on_c, 2, 79, 0
4, 168660, Note_on_c, 2, 79, 90
4, 168690, Note_on_c, 2, 79, 0
4, 168720, Note_on_c, 2, 81, 90
4, 168750, Note_on_c, 2, 81, 0
4, 168900, Note_on_c, 2, 81, 90
4, 168930, Note_on_c, 2, 81, 0
4, 168960, Note_on_c, 2, 83, 90
4, 168990, Note_on_c, 2, 83, 0
4, 169140, Note_on_c, 2, 83, 90
4, 169170, Note_on_c, 2, 83, 0
4, 169200, Note_on_c, 2, 81, 90
4, 169230, Note_on_c, 2, 81, 0
4, 169380, Note_on_c, 2, 78, 90
4, 169410, Note_on_c, 2, 78, 0
4, 169440, Note_on_c, 2, 76, 90
4, 169470, Note_on_c, 2, 76, 0
4, 169620, Note_on_c, 2, 76, 90
4, 169650, Note_on_c, 2, 76, 0
4, 169680, Note_on_c, 2, 81, 90
4, 169710, Note_on_c, 2, 81, 0
4, 169860, Note_on_c, 2, 79, 90
4, 169890, Note_on_c, 2, 79, 0
4, 169920, Note_on_c, 2, 79, 90
4, 169950, Note_on_c, 2, 79, 0
4, 170100, Note_on_c, 2, 78, 90
4, 170130, Note_on_c, 2, 78, 0
4, 170160, Note_on_c, 2, 78, 90
4, 170190, Note_on_c, 2, 78, 0
4, 170340, Note_on_c, 2, 76, 90
4, 170370, Note_on_c, 2, 76, 0
4, 170400, Note_on_c, 2, 76, 90
4, 170430, Note_on_c, 2, 76, 0
4, 170580, Note_on_c, 2, 74, 90
4, 170610, Note_on_c, 2, 74, 0
4, 170640, Note_on_c, 2, 74, 90
4, 170670, Note_on_c, 2, 74, 0
4, 170820, Note_on_c, 2, 73, 90
4, 170850, Note_on_c, 2, 73, 0
4, 170880, Note_on_c, 2, 74, 90
4, 170910, Note_on_c, 2, 74, 0
4, 171060, Note_on_c, 2, 73, 90
4, 171090, Note_on_c, 2, 73, 0
4, 171120, Note_on_c, 2, 74, 90
4, 171150, Note_on_c, 2, 74, 0
4, 171300, Note_on_c, 2, 81, 90
4, 171330, Note_on_c, 2, 81, 0
4, 171360, Note_on_c, 2, 79, 90
4, 171390, Note_on_c, 2, 79, 0
4, 171540, Note_on_c, 2, 72, 90
4, 171570, Note_on_c, 2, 72, 0
4, 171600, Note_on_c, 2, 72, 90
4, 171630, Note_on_c, 2, 72, 0
4, 171780, Note_on_c, 2, 81, 90
4, 171810, Note_on_c, 2, 81, 0
4, 171840, Note_on_c, 2, 83, 90
4, 171870, Note_on_c, 2, 83, 0
4, 172020, Note_on_c, 2, 74, 90
4, 172050, Note_on_c, 2, 74, 0
4, 172080, Note_on_c, 2, 79, 90
4, 172110, Note_on_c, 2, 79, 0
4, 172260, Note_on_c, 2, 79, 90
4, 172290, Note_on_c, 2, 79, 0
4, 172320, Note_on_c, 2, 78, 90
4, 172350, Note_on_c, 2, 78, 0
4, 172500, Note_on_c, 2, 81, 90
4, 172530, Note_on_c, 2, 81, 0
4, 172560, Note_on_c, 2, 83, 90
4, 172590, Note_on_c, 2, 83, 0
4, 172740, Note_on_c, 2, 83, 90
4, 172770, Note_on_c, 2, 83, 0
4, 172800, Note_on_c, 2, 76, 90
4, 172830, Note_on_c, 2, 76, 0
4, 172980, Note_on_c, 2, 76, 90
4, 173010, Note_on_c, 2, 76, 0
4, 173040, Note_on_c, 2, 78, 90
4, 173070, Note_on_c, 2, 78, 0
4, 173220, Note_on_c, 2, 79, 90
4, 173250, Note_on_c, 2, 79, 0
4, 173280, Note_on_c, 2, 81, 90
4, 173310, Note_on_c, 2, 81, 0
4, 173460, Note_on_c, 2, 78, 90
4, 173490, Note_on_c, 2, 78, 0
4, 173520, Note_on_c, 2, 79, 90
4, 173550, Note_on_c, 2, 79, 0
4, 173700, Note_on_c, 2, 81, 90
4, 173730, Note_on_c, 2, 81, 0
4, 173760, Note_on_c, 2, 78, 90
4, 173790, Note_on_c, 2, 78, 0
4, 173940, Note_on_c, 2, 79, 90
4, 173970, Note_on_c, 2, 79, 0
4, 174000, Note_on_c, 2, 76, 90
4, 174030, Note_on_c, 2, 76, 0
4, 174180, Note_on_c, 2, 78, 90
4, 174210, Note_on_c, 2, 78, 0
4, 174240, Note_on_c, 2, 79, 90
4, 174270, Note_on_c, 2, 79, 0
4, 174420, Note_on_c, 2, 79, 90
4, 174450, Note_on_c, 2, 79, 0
4, 174480, Note_on_c, 2, 78, 90
4, 174510, Note_on_c, 2, 78, 0
4, 174660, Note_on_c, 2, 79, 90
4, 174690, Note_on_c, 2, 79, 0
4, 174720, Note_on_c, 2, 81, 90
4, 174750, Note_on_c, 2, 81, 0
4, 174900, Note_on_c, 2, 81, 90
4, 174930, Note_on_c, 2, 81, 0
4, 174960, Note_on_c, 2, 79, 90
4, 174990, Note_on_c, 2, 79, 0
4, 175140, Note_on_c, 2, 79, 90
4, 175170, Note_on_c, 2, 79, 0
4, 175200, Note_on_c, 2, 81, 90
4, 175230, Note_on_c, 2, 81, 0
4, 175380, Note_on_c, 2, 81, 90
4, 175410, Note_on_c, 2, 81, 0
4, 175440, Note_on_c, 2, 83, 90
4, 175470, Note_on_c, 2, 83, 0
4, 175620, Note_on_c, 2, 74, 90
4, 175650, Note_on_c, 2, 74, 0
4, 175680, Note_on_c, 2, 72, 90
4, 175710, Note_on_c, 2, 72, 0
4, 175860, Note_on_c, 2, 76, 90
4, 175890, Note_on_c, 2, 76, 0
4, 175920, Note_on_c, 2, 78, 90
4, 175950, Note_on_c, 2, 78, 0
4, 176100, Note_on_c, 2, 78, 90
4, 176130, Note_on_c, 2, 78, 0
4, 176160, Note_on_c, 2, 76, 90
4, 176190, Note_on_c, 2, 76, 0
4, 176340, Note_on_c, 2, 74, 90
4, 176370, Note_on_c, 2, 74, 0
4, 176400, Note_on_c, 2, 72, 90
4, 176430, Note_on_c, 2, 72, 0
4, 176580, Note_on_c, 2, 72, 90
4, 176610, Note_on_c, 2, 72, 0
4, 176640, Note_on_c, 2, 71, 90
4, 176670, Note_on_c, 2, 71, 0
4, 176820, Note_on_c, 2, 71, 90
4, 176850, Note_on_c, 2, 71, 0
4, 176880, Note_on_c, 2, 70, 90
4, 176910, Note_on_c, 2, 70, 0
4, 177060, Note_on_c, 2, 71, 90
4, 177090, Note_on_c, 2, 71, 0
4, 177120, Note_on_c, 2, 73, 90
4, 177150, Note_on_c, 2, 73, 0
4, 177300, Note_on_c, 2, 78, 90
4, 177330, Note_on_c, 2, 78, 0
4, 177360, Note_on_c, 2, 78, 90
4, 177390, Note_on_c, 2, 78, 0
4, 177540, Note_on_c, 2, 79, 90
4, 177570, Note_on_c, 2, 79, 0
4, 177600, Note_on_c, 2, 78, 90
4, 177630, Note_on_c, 2, 78, 0
4, 177780, Note_on_c, 2, 74, 90
4, 177810, Note_on_c, 2, 74, 0
4, 177840, Note_on_c, 2, 76, 90
4, 177870, Note_on_c, 2, 76, 0
4, 178020, Note_on_c, 2, 73, 90
4, 178050, Note_on_c, 2, 73, 0
4, 178080, Note_on_c, 2, 74, 90
4, 178110, Note_on_c, 2, 74, 0
4, 178260, Note_on_c, 2, 74, 90
4, 178290, Note_on_c, 2, 74, 0
4, 178320, Note_on_c, 2, 73, 90
4, 178350, Note_on_c, 2, 73, 0
4, 178500, Note_on_c, 2, 74, 90
4, 178530, Note_on_c, 2, 74, 0
4, 178560, Note_on_c, 2, 76, 90
4, 178590, Note_on_c, 2, 76, 0
4, 178740, Note_on_c, 2, 73, 90
4, 178799, Note_on_c, 2, 73, 0
4, 178800, Note_on_c, 2, 71, 90
4, 178919, Note_on_c, 2, 71, 0
4, 179040, Note_on_c, 2, 72, 90
4, 179279, Note_on_c, 2, 72, 0
4, 179280, Note_on_c, 2, 71, 90
4, 179519, Note_on_c, 2, 71, 0
4, 179520, Note_on_c, 2, 69, 90
4, 179759, Note_on_c, 2, 69, 0
4, 179760, Note_on_c, 2, 67, 90
4, 179879, Note_on_c, 2, 67, 0
4, 179880, Note_on_c, 2, 72, 90
4, 180119, Note_on_c, 2, 72, 0
4, 180120, Note_on_c, 2, 71, 90
4, 180359, Note_on_c, 2, 71, 0
4, 180360, Note_on_c, 2, 69, 90
4, 180599, Note_on_c, 2, 69, 0
4, 180600, Note_on_c, 2, 68, 90
4, 180719, Note_on_c, 2, 68, 0
4, 180720, Note_on_c, 2, 69, 90
4, 180839, Note_on_c, 2, 69, 0
4, 180840, Note_on_c, 2, 77, 90
4, 181079, Note_on_c, 2, 77, 0
4, 181080, Note_on_c, 2, 76, 90
4, 181319, Note_on_c, 2, 76, 0
4, 181320, Note_on_c, 2, 74, 90
4, 181439, Note_on_c, 2, 74, 0
4, 181440, Note_on_c, 2, 76, 90
4, 181679, Note_on_c, 2, 76, 0
4, 181680, Note_on_c, 2, 74, 90
4, 182159, Note_on_c, 2, 74, 0
4, 182160, Note_on_c, 2, 76, 90
4, 182639, Note_on_c, 2, 76, 0
4, 182640, Note_on_c, 2, 74, 90
4, 183359, Note_on_c, 2, 74, 0
4, 183360, Note_on_c, 2, 73, 90
4, 183599, Note_on_c, 2, 73, 0
4, 183600, Note_on_c, 2, 74, 90
4, 183719, Note_on_c, 2, 74, 0
4, 183720, Note_on_c, 2, 73, 90
4, 183839, Note_on_c, 2, 73, 0
4, 183840, Note_on_c, 2, 74, 90
4, 184319, Note_on_c, 2, 74, 0
4, 184320, Note_on_c, 2, 76, 90
4, 184799, Note_on_c, 2, 76, 0
4, 184800, Note_on_c, 2, 78, 90
4, 185279, Note_on_c, 2, 78, 0
4, 185280, Note_on_c, 2, 79, 90
4, 185759, Note_on_c, 2, 79, 0
4, 185760, Note_on_c, 2, 81, 90
4, 186239, Note_on_c, 2, 81, 0
4, 186240, Note_on_c, 2, 74, 90
4, 186479, Note_on_c, 2, 74, 0
4, 186480, Note_on_c, 2, 79, 90
4, 187199, Note_on_c, 2, 79, 0
4, 187200, Note_on_c, 2, 78, 90
4, 187319, Note_on_c, 2, 78, 0
4, 187320, Note_on_c, 2, 76, 90
4, 187439, Note_on_c, 2, 76, 0
4, 187440, Note_on_c, 2, 74, 90
4, 187919, Note_on_c, 2, 74, 0
4, 187920, Note_on_c, 2, 76, 90
4, 188399, Note_on_c, 2, 76, 0
4, 188400, Note_on_c, 2, 81, 90
4, 188519, Note_on_c, 2, 81, 0
4, 188520, Note_on_c, 2, 78, 90
4, 188759, Note_on_c, 2, 78, 0
4, 188760, Note_on_c, 2, 83, 90
4, 188999, Note_on_c, 2, 83, 0
4, 189000, Note_on_c, 2, 78, 90
4, 189119, Note_on_c, 2, 78, 0
4, 189120, Note_on_c, 2, 79, 90
4, 189599, Note_on_c, 2, 79, 0
4, 189600, Note_on_c, 2, 77, 90
4, 190319, Note_on_c, 2, 77, 0
4, 190320, Note_on_c, 2, 76, 90
4, 190439, Note_on_c, 2, 76, 0
4, 190440, Note_on_c, 2, 72, 90
4, 190500, Note_on_c, 2, 72, 0
4, 190620, Note_on_c, 2, 72, 90
4, 190650, Note_on_c, 2, 72, 0
4, 190680, Note_on_c, 2, 71, 90
4, 190710, Note_on_c, 2, 71, 0
4, 190860, Note_on_c, 2, 74, 90
4, 190890, Note_on_c, 2, 74, 0
4, 190920, Note_on_c, 2, 76, 90
4, 190950, Note_on_c, 2, 76, 0
4, 191100, Note_on_c, 2, 76, 90
4, 191130, Note_on_c, 2, 76, 0
4, 191160, Note_on_c, 2, 77, 90
4, 191190, Note_on_c, 2, 77, 0
4, 191340, Note_on_c, 2, 77, 90
4, 191370, Note_on_c, 2, 77, 0
4, 191400, Note_on_c, 2, 79, 90
4, 191430, Note_on_c, 2, 79, 0
4, 191580, Note_on_c, 2, 79, 90
4, 191610, Note_on_c, 2, 79, 0
4, 191640, Note_on_c, 2, 81, 90
4, 191670, Note_on_c, 2, 81, 0
4, 191820, Note_on_c, 2, 81, 90
4, 191850, Note_on_c, 2, 81, 0
4, 191880, Note_on_c, 2, 83, 90
4, 191910, Note_on_c, 2, 83, 0
4, 192060, Note_on_c, 2, 83, 90
4, 192090, Note_on_c, 2, 83, 0
4, 192120, Note_on_c, 2, 76, 90
4, 192150, Note_on_c, 2, 76, 0
4, 192300, Note_on_c, 2, 81, 90
4, 192330, Note_on_c, 2, 81, 0
4, 192360, Note_on_c, 2, 79, 90
4, 192390, Note_on_c, 2, 79, 0
4, 192540, Note_on_c, 2, 79, 90
4, 192570, Note_on_c, 2, 79, 0
4, 192600, Note_on_c, 2, 78, 90
4, 192630, Note_on_c, 2, 78, 0
4, 192780, Note_on_c, 2, 83, 90
4, 192810, Note_on_c, 2, 83, 0
4, 192840, Note_on_c, 2, 79, 90
4, 192870, Note_on_c, 2, 79, 0
4, 193020, Note_on_c, 2, 78, 90
4, 193050, Note_on_c, 2, 78, 0
4, 193080, Note_on_c, 2, 79, 90
4, 193110, Note_on_c, 2, 79, 0
4, 193260, Note_on_c, 2, 79, 90
4, 193290, Note_on_c, 2, 79, 0
4, 193320, Note_on_c, 2, 74, 90
4, 193350, Note_on_c, 2, 74, 0
4, 193500, Note_on_c, 2, 74, 90
4, 193530, Note_on_c, 2, 74, 0
4, 193560, Note_on_c, 2, 79, 90
4, 193590, Note_on_c, 2, 79, 0
4, 193740, Note_on_c, 2, 76, 90
4, 193770, Note_on_c, 2, 76, 0
4, 193800, Note_on_c, 2, 78, 90
4, 193830, Note_on_c, 2, 78, 0
4, 193980, Note_on_c, 2, 81, 90
4, 194010, Note_on_c, 2, 81, 0
4, 194040, Note_on_c, 2, 81, 90
4, 194070, Note_on_c, 2, 81, 0
4, 194100, Note_on_c, 2, 81, 90
4, 194159, Note_on_c, 2, 81, 0
4, 194160, Note_on_c, 2, 79, 90
4, 194279, Note_on_c, 2, 79, 0
4, 194280, Note_on_c, 2, 77, 90
4, 194399, Note_on_c, 2, 77, 0
4, 194400, Note_on_c, 2, 76, 90
4, 194639, Note_on_c, 2, 76, 0
4, 194640, Note_on_c, 2, 74, 90
4, 194879, Note_on_c, 2, 74, 0
4, 194880, Note_on_c, 2, 72, 90
4, 195239, Note_on_c, 2, 72, 0
4, 195240, Note_on_c, 2, 71, 90
4, 195479, Note_on_c, 2, 71, 0
4, 195480, Note_on_c, 2, 76, 90
4, 195599, Note_on_c, 2, 76, 0
4, 195600, Note_on_c, 2, 69, 90
4, 195719, Note_on_c, 2, 69, 0
4, 195720, Note_on_c, 2, 74, 90
4, 195839, Note_on_c, 2, 74, 0
4, 195840, Note_on_c, 2, 67, 90
4, 195959, Note_on_c, 2, 67, 0
4, 195960, Note_on_c, 2, 72, 90
4, 196079, Note_on_c, 2, 72, 0
4, 196080, Note_on_c, 2, 71, 90
4, 196199, Note_on_c, 2, 71, 0
4, 196440, Note_on_c, 2, 76, 90
4, 196499, Note_on_c, 2, 76, 0
4, 196500, Note_on_c, 2, 74, 90
4, 196559, Note_on_c, 2, 74, 0
4, 196560, Note_on_c, 2, 72, 90
4, 196619, Note_on_c, 2, 72, 0
4, 196620, Note_on_c, 2, 74, 90
4, 196679, Note_on_c, 2, 74, 0
4, 196680, Note_on_c, 2, 76, 90
4, 196739, Note_on_c, 2, 76, 0
4, 196740, Note_on_c, 2, 72, 90
4, 196799, Note_on_c, 2, 72, 0
4, 196800, Note_on_c, 2, 74, 90
4, 196859, Note_on_c, 2, 74, 0
4, 196860, Note_on_c, 2, 72, 90
4, 196889, Note_on_c, 2, 72, 0
4, 196890, Note_on_c, 2, 71, 90
4, 196919, Note_on_c, 2, 71, 0
4, 196920, Note_on_c, 2, 69, 90
4, 196979, Note_on_c, 2, 69, 0
4, 196980, Note_on_c, 2, 74, 90
4, 197039, Note_on_c, 2, 74, 0
4, 197040, Note_on_c, 2, 71, 90
4, 197069, Note_on_c, 2, 71, 0
4, 197070, Note_on_c, 2, 69, 90
4, 197099, Note_on_c, 2, 69, 0
4, 197100, Note_on_c, 2, 71, 90
4, 197129, Note_on_c, 2, 71, 0
4, 197130, Note_on_c, 2, 72, 90
4, 197159, Note_on_c, 2, 72, 0
4, 197160, Note_on_c, 2, 74, 90
4, 197189, Note_on_c, 2, 74, 0
4, 197190, Note_on_c, 2, 72, 90
4, 197219, Note_on_c, 2, 72, 0
4, 197220, Note_on_c, 2, 71, 90
4, 197249, Note_on_c, 2, 71, 0
4, 197250, Note_on_c, 2, 69, 90
4, 197279, Note_on_c, 2, 69, 0
4, 197280, Note_on_c, 2, 67, 90
4, 197880, Note_on_c, 2, 67, 0
4, 197880, Note_on_c, 2, 66, 90
4, 198000, Note_on_c, 2, 66, 0
4, 198000, Note_on_c, 2, 67, 90
4, 198240, Note_on_c, 2, 67, 0
4, 203160, Note_on_c, 2, 71, 90
4, 203279, Note_on_c, 2, 71, 0
4, 203280, Note_on_c, 2, 69, 90
4, 203339, Note_on_c, 2, 69, 0
4, 203340, Note_on_c, 2, 69, 90
4, 203459, Note_on_c, 2, 69, 0
4, 203460, Note_on_c, 2, 67, 90
4, 203519, Note_on_c, 2, 67, 0
4, 203520, Note_on_c, 2, 67, 90
4, 203609, Note_on_c, 2, 67, 0
4, 203610, Note_on_c, 2, 76, 90
4, 203639, Note_on_c, 2, 76, 0
4, 203640, Note_on_c, 2, 74, 90
4, 203789, Note_on_c, 2, 74, 0
4, 203790, Note_on_c, 2, 67, 90
4, 203819, Note_on_c, 2, 67, 0
4, 203820, Note_on_c, 2, 66, 90
4, 203879, Note_on_c, 2, 66, 0
4, 203880, Note_on_c, 2, 67, 90
4, 203968, Note_on_c, 2, 67, 0
4, 203970, Note_on_c, 2, 76, 90
4, 203999, Note_on_c, 2, 76, 0
4, 204000, Note_on_c, 2, 74, 90
4, 204149, Note_on_c, 2, 74, 0
4, 204150, Note_on_c, 2, 67, 90
4, 204179, Note_on_c, 2, 67, 0
4, 204180, Note_on_c, 2, 66, 90
4, 204239, Note_on_c, 2, 66, 0
4, 204240, Note_on_c, 2, 67, 90
4, 204419, Note_on_c, 2, 67, 0
4, 205680, Note_on_c, 2, 71, 90
4, 205799, Note_on_c, 2, 71, 0
4, 205800, Note_on_c, 2, 75, 90
4, 205859, Note_on_c, 2, 75, 0
4, 205860, Note_on_c, 2, 75, 90
4, 205979, Note_on_c, 2, 75, 0
4, 205980, Note_on_c, 2, 76, 90
4, 206039, Note_on_c, 2, 76, 0
4, 206040, Note_on_c, 2, 76, 90
4, 206159, Note_on_c, 2, 76, 0
4, 206160, Note_on_c, 2, 79, 90
4, 206219, Note_on_c, 2, 79, 0
4, 206220, Note_on_c, 2, 78, 90
4, 206339, Note_on_c, 2, 78, 0
4, 206340, Note_on_c, 2, 81, 90
4, 206399, Note_on_c, 2, 81, 0
4, 206400, Note_on_c, 2, 79, 90
4, 206519, Note_on_c, 2, 79, 0
4, 206520, Note_on_c, 2, 76, 90
4, 206579, Note_on_c, 2, 76, 0
4, 206580, Note_on_c, 2, 75, 90
4, 206699, Note_on_c, 2, 75, 0
4, 206700, Note_on_c, 2, 78, 90
4, 206759, Note_on_c, 2, 78, 0
4, 206760, Note_on_c, 2, 76, 90
4, 206939, Note_on_c, 2, 76, 0
4, 208200, Note_on_c, 2, 81, 90
4, 208319, Note_on_c, 2, 81, 0
4, 208320, Note_on_c, 2, 79, 90
4, 208379, Note_on_c, 2, 79, 0
4, 208380, Note_on_c, 2, 79, 90
4, 208499, Note_on_c, 2, 79, 0
4, 208500, Note_on_c, 2, 78, 90
4, 208559, Note_on_c, 2, 78, 0
4, 208560, Note_on_c, 2, 78, 90
4, 208679, Note_on_c, 2, 78, 0
4, 208680, Note_on_c, 2, 73, 90
4, 208739, Note_on_c, 2, 73, 0
4, 208740, Note_on_c, 2, 74, 90
4, 208859, Note_on_c, 2, 74, 0
4, 208860, Note_on_c, 2, 79, 90
4, 208919, Note_on_c, 2, 79, 0
4, 208920, Note_on_c, 2, 78, 90
4, 209039, Note_on_c, 2, 78, 0
4, 209040, Note_on_c, 2, 73, 90
4, 209099, Note_on_c, 2, 73, 0
4, 209100, Note_on_c, 2, 74, 90
4, 209219, Note_on_c, 2, 74, 0
4, 209220, Note_on_c, 2, 67, 90
4, 209279, Note_on_c, 2, 67, 0
4, 209280, Note_on_c, 2, 66, 90
4, 209459, Note_on_c, 2, 66, 0
4, 210720, Note_on_c, 2, 71, 90
4, 210839, Note_on_c, 2, 71, 0
4, 210840, Note_on_c, 2, 69, 90
4, 210899, Note_on_c, 2, 69, 0
4, 210900, Note_on_c, 2, 69, 90
4, 211019, Note_on_c, 2, 69, 0
4, 211020, Note_on_c, 2, 67, 90
4, 211079, Note_on_c, 2, 67, 0
4, 211080, Note_on_c, 2, 67, 90
4, 211169, Note_on_c, 2, 67, 0
4, 211170, Note_on_c, 2, 76, 90
4, 211199, Note_on_c, 2, 76, 0
4, 211200, Note_on_c, 2, 74, 90
4, 211349, Note_on_c, 2, 74, 0
4, 211350, Note_on_c, 2, 67, 90
4, 211379, Note_on_c, 2, 67, 0
4, 211380, Note_on_c, 2, 66, 90
4, 211439, Note_on_c, 2, 66, 0
4, 211440, Note_on_c, 2, 67, 90
4, 211529, Note_on_c, 2, 67, 0
4, 211530, Note_on_c, 2, 76, 90
4, 211559, Note_on_c, 2, 76, 0
4, 211560, Note_on_c, 2, 74, 90
4, 211709, Note_on_c, 2, 74, 0
4, 211710, Note_on_c, 2, 67, 90
4, 211739, Note_on_c, 2, 67, 0
4, 211740, Note_on_c, 2, 66, 90
4, 211799, Note_on_c, 2, 66, 0
4, 211800, Note_on_c, 2, 67, 90
4, 211980, Note_on_c, 2, 67, 0
4, 211980, End_track
5, 0, Start_track
5, 0, MIDI_port, 0
5, 0, Title_t, "Oboe D'amore II"
5, 0, Program_c, 3, 68
5, 0, Control_c, 3, 7, 127
5, 0, Control_c, 3, 10, 40
5, 6120, Note_on_c, 3, 67, 100
5, 6240, Note_on_c, 3, 67, 0
5, 6240, Note_on_c, 3, 66, 100
5, 6300, Note_on_c, 3, 66, 0
5, 6300, Note_on_c, 3, 66, 100
5, 6420, Note_on_c, 3, 66, 0
5, 6420, Note_on_c, 3, 62, 100
5, 6480, Note_on_c, 3, 62, 0
5, 6480, Note_on_c, 3, 62, 100
5, 6600, Note_on_c, 3, 62, 0
5, 6600, Note_on_c, 3, 66, 100
5, 6660, Note_on_c, 3, 66, 0
5, 6660, Note_on_c, 3, 67, 100
5, 6780, Note_on_c, 3, 67, 0
5, 6780, Note_on_c, 3, 60, 100
5, 6840, Note_on_c, 3, 60, 0
5, 6840, Note_on_c, 3, 62, 100
5, 6960, Note_on_c, 3, 62, 0
5, 6960, Note_on_c, 3, 66, 100
5, 7020, Note_on_c, 3, 66, 0
5, 7020, Note_on_c, 3, 67, 100
5, 7140, Note_on_c, 3, 67, 0
5, 7140, Note_on_c, 3, 60, 100
5, 7200, Note_on_c, 3, 60, 0
5, 7200, Note_on_c, 3, 62, 100
5, 7320, Note_on_c, 3, 62, 0
5, 7560, Note_on_c, 3, 67, 100
5, 7680, Note_on_c, 3, 67, 0
5, 7680, Note_on_c, 3, 69, 100
5, 7740, Note_on_c, 3, 69, 0
5, 7740, Note_on_c, 3, 69, 100
5, 7860, Note_on_c, 3, 69, 0
5, 7860, Note_on_c, 3, 71, 100
5, 7920, Note_on_c, 3, 71, 0
5, 7920, Note_on_c, 3, 71, 100
5, 8040, Note_on_c, 3, 71, 0
5, 8040, Note_on_c, 3, 63, 100
5, 8100, Note_on_c, 3, 63, 0
5, 8100, Note_on_c, 3, 64, 100
5, 8220, Note_on_c, 3, 64, 0
5, 8220, Note_on_c, 3, 69, 100
5, 8280, Note_on_c, 3, 69, 0
5, 8280, Note_on_c, 3, 67, 100
5, 8400, Note_on_c, 3, 67, 0
5, 8400, Note_on_c, 3, 69, 100
5, 8460, Note_on_c, 3, 69, 0
5, 8460, Note_on_c, 3, 67, 100
5, 8580, Note_on_c, 3, 67, 0
5, 8580, Note_on_c, 3, 78, 100
5, 8640, Note_on_c, 3, 78, 0
5, 8640, Note_on_c, 3, 76, 100
5, 8760, Note_on_c, 3, 76, 0
5, 9000, Note_on_c, 3, 72, 100
5, 9120, Note_on_c, 3, 72, 0
5, 9120, Note_on_c, 3, 71, 100
5, 9180, Note_on_c, 3, 71, 0
5, 9180, Note_on_c, 3, 71, 100
5, 9300, Note_on_c, 3, 71, 0
5, 9300, Note_on_c, 3, 67, 100
5, 9360, Note_on_c, 3, 67, 0
5, 9360, Note_on_c, 3, 67, 100
5, 9480, Note_on_c, 3, 67, 0
5, 9480, Note_on_c, 3, 71, 100
5, 9540, Note_on_c, 3, 71, 0
5, 9540, Note_on_c, 3, 72, 100
5, 9660, Note_on_c, 3, 72, 0
5, 9660, Note_on_c, 3, 65, 100
5, 9720, Note_on_c, 3, 65, 0
5, 9720, Note_on_c, 3, 67, 100
5, 9840, Note_on_c, 3, 67, 0
5, 9840, Note_on_c, 3, 71, 100
5, 9900, Note_on_c, 3, 71, 0
5, 9900, Note_on_c, 3, 72, 100
5, 10020, Note_on_c, 3, 72, 0
5, 10020, Note_on_c, 3, 65, 100
5, 10080, Note_on_c, 3, 65, 0
5, 10080, Note_on_c, 3, 67, 100
5, 10200, Note_on_c, 3, 67, 0
5, 11460, Note_on_c, 3, 69, 100
5, 11520, Note_on_c, 3, 69, 0
5, 11520, Note_on_c, 3, 62, 100
5, 11640, Note_on_c, 3, 62, 0
5, 12600, Note_on_c, 3, 64, 100
5, 12720, Note_on_c, 3, 64, 0
5, 12720, Note_on_c, 3, 66, 100
5, 12780, Note_on_c, 3, 66, 0
5, 12780, Note_on_c, 3, 66, 100
5, 12900, Note_on_c, 3, 66, 0
5, 12900, Note_on_c, 3, 67, 100
5, 12960, Note_on_c, 3, 67, 0
5, 12960, Note_on_c, 3, 67, 100
5, 13080, Note_on_c, 3, 67, 0
5, 13080, Note_on_c, 3, 69, 100
5, 13140, Note_on_c, 3, 69, 0
5, 13140, Note_on_c, 3, 69, 100
5, 13260, Note_on_c, 3, 69, 0
5, 13260, Note_on_c, 3, 71, 100
5, 13320, Note_on_c, 3, 71, 0
5, 13320, Note_on_c, 3, 71, 100
5, 13620, Note_on_c, 3, 71, 0
5, 13620, Note_on_c, 3, 64, 100
5, 13680, Note_on_c, 3, 64, 0
5, 13680, Note_on_c, 3, 64, 100
5, 13800, Note_on_c, 3, 64, 0
5, 13800, Note_on_c, 3, 67, 100
5, 13860, Note_on_c, 3, 67, 0
5, 13860, Note_on_c, 3, 67, 100
5, 13980, Note_on_c, 3, 67, 0
5, 13980, Note_on_c, 3, 69, 100
5, 14040, Note_on_c, 3, 69, 0
5, 14040, Note_on_c, 3, 69, 100
5, 14160, Note_on_c, 3, 69, 0
5, 14160, Note_on_c, 3, 72, 100
5, 14220, Note_on_c, 3, 72, 0
5, 14220, Note_on_c, 3, 76, 100
5, 14340, Note_on_c, 3, 76, 0
5, 14340, Note_on_c, 3, 81, 100
5, 14400, Note_on_c, 3, 81, 0
5, 14400, Note_on_c, 3, 67, 100
5, 14520, Note_on_c, 3, 67, 0
5, 14520, Note_on_c, 3, 71, 100
5, 14580, Note_on_c, 3, 71, 0
5, 14580, Note_on_c, 3, 76, 100
5, 14670, Note_on_c, 3, 76, 0
5, 14670, Note_on_c, 3, 78, 100
5, 14700, Note_on_c, 3, 78, 0
5, 14700, Note_on_c, 3, 79, 100
5, 14760, Note_on_c, 3, 79, 0
5, 14760, Note_on_c, 3, 78, 100
5, 15240, Note_on_c, 3, 78, 0
5, 15240, Note_on_c, 3, 66, 100
5, 15300, Note_on_c, 3, 66, 0
5, 15300, Note_on_c, 3, 67, 100
5, 15420, Note_on_c, 3, 67, 0
5, 15420, Note_on_c, 3, 69, 100
5, 15480, Note_on_c, 3, 69, 0
5, 15480, Note_on_c, 3, 67, 100
5, 15570, Note_on_c, 3, 67, 0
5, 15570, Note_on_c, 3, 69, 100
5, 15600, Note_on_c, 3, 69, 0
5, 15600, Note_on_c, 3, 71, 100
5, 15660, Note_on_c, 3, 71, 0
5, 15660, Note_on_c, 3, 69, 100
5, 15750, Note_on_c, 3, 69, 0
5, 15750, Note_on_c, 3, 67, 100
5, 15780, Note_on_c, 3, 67, 0
5, 15780, Note_on_c, 3, 66, 100
5, 15840, Note_on_c, 3, 66, 0
5, 15840, Note_on_c, 3, 64, 100
5, 15960, Note_on_c, 3, 64, 0
5, 19440, Note_on_c, 3, 74, 90
5, 19559, Note_on_c, 3, 74, 0
5, 19560, Note_on_c, 3, 73, 90
5, 19619, Note_on_c, 3, 73, 0
5, 19620, Note_on_c, 3, 73, 90
5, 19739, Note_on_c, 3, 73, 0
5, 19740, Note_on_c, 3, 69, 90
5, 19799, Note_on_c, 3, 69, 0
5, 19800, Note_on_c, 3, 69, 90
5, 19919, Note_on_c, 3, 69, 0
5, 19920, Note_on_c, 3, 73, 90
5, 19979, Note_on_c, 3, 73, 0
5, 19980, Note_on_c, 3, 74, 90
5, 20099, Note_on_c, 3, 74, 0
5, 20100, Note_on_c, 3, 67, 90
5, 20159, Note_on_c, 3, 67, 0
5, 20160, Note_on_c, 3, 69, 90
5, 20279, Note_on_c, 3, 69, 0
5, 20280, Note_on_c, 3, 73, 90
5, 20339, Note_on_c, 3, 73, 0
5, 20340, Note_on_c, 3, 74, 90
5, 20459, Note_on_c, 3, 74, 0
5, 20460, Note_on_c, 3, 67, 90
5, 20519, Note_on_c, 3, 67, 0
5, 20520, Note_on_c, 3, 69, 90
5, 20639, Note_on_c, 3, 69, 0
5, 20880, Note_on_c, 3, 74, 90
5, 20999, Note_on_c, 3, 74, 0
5, 21000, Note_on_c, 3, 73, 90
5, 21059, Note_on_c, 3, 73, 0
5, 21060, Note_on_c, 3, 73, 90
5, 21179, Note_on_c, 3, 73, 0
5, 21180, Note_on_c, 3, 71, 90
5, 21239, Note_on_c, 3, 71, 0
5, 21240, Note_on_c, 3, 71, 90
5, 21329, Note_on_c, 3, 71, 0
5, 21330, Note_on_c, 3, 79, 90
5, 21359, Note_on_c, 3, 79, 0
5, 21360, Note_on_c, 3, 78, 90
5, 21509, Note_on_c, 3, 78, 0
5, 21510, Note_on_c, 3, 71, 90
5, 21539, Note_on_c, 3, 71, 0
5, 21540, Note_on_c, 3, 70, 90
5, 21599, Note_on_c, 3, 70, 0
5, 21600, Note_on_c, 3, 71, 90
5, 21689, Note_on_c, 3, 71, 0
5, 21690, Note_on_c, 3, 79, 90
5, 21719, Note_on_c, 3, 79, 0
5, 21720, Note_on_c, 3, 78, 90
5, 21869, Note_on_c, 3, 78, 0
5, 21870, Note_on_c, 3, 71, 90
5, 21899, Note_on_c, 3, 71, 0
5, 21900, Note_on_c, 3, 70, 90
5, 21959, Note_on_c, 3, 70, 0
5, 21960, Note_on_c, 3, 71, 90
5, 22079, Note_on_c, 3, 71, 0
5, 23160, Note_on_c, 3, 73, 90
5, 23220, Note_on_c, 3, 73, 0
5, 23220, Note_on_c, 3, 64, 90
5, 23460, Note_on_c, 3, 64, 0
5, 23460, Note_on_c, 3, 62, 90
5, 23520, Note_on_c, 3, 62, 0
5, 24600, Note_on_c, 3, 69, 100
5, 24750, Note_on_c, 3, 69, 0
5, 24750, Note_on_c, 3, 68, 100
5, 24780, Note_on_c, 3, 68, 0
5, 24780, Note_on_c, 3, 74, 100
5, 24900, Note_on_c, 3, 74, 0
5, 24900, Note_on_c, 3, 72, 90
5, 24960, Note_on_c, 3, 72, 0
5, 24960, Note_on_c, 3, 71, 90
5, 25020, Note_on_c, 3, 71, 0
5, 25020, Note_on_c, 3, 69, 90
5, 25080, Note_on_c, 3, 69, 0
5, 25080, Note_on_c, 3, 66, 90
5, 25140, Note_on_c, 3, 66, 0
5, 25140, Note_on_c, 3, 75, 90
5, 25200, Note_on_c, 3, 75, 0
5, 25200, Note_on_c, 3, 76, 100
5, 25320, Note_on_c, 3, 76, 0
5, 25560, Note_on_c, 3, 71, 100
5, 28080, Note_on_c, 3, 71, 0
5, 28080, Note_on_c, 3, 70, 90
5, 28169, Note_on_c, 3, 70, 0
5, 28170, Note_on_c, 3, 79, 100
5, 28200, Note_on_c, 3, 79, 0
5, 28200, Note_on_c, 3, 78, 100
5, 28350, Note_on_c, 3, 78, 0
5, 28350, Note_on_c, 3, 71, 100
5, 28380, Note_on_c, 3, 71, 0
5, 28380, Note_on_c, 3, 70, 100
5, 28440, Note_on_c, 3, 70, 0
5, 28440, Note_on_c, 3, 71, 90
5, 28529, Note_on_c, 3, 71, 0
5, 28530, Note_on_c, 3, 70, 100
5, 28560, Note_on_c, 3, 70, 0
5, 28560, Note_on_c, 3, 71, 100
5, 28620, Note_on_c, 3, 71, 0
5, 28620, Note_on_c, 3, 66, 100
5, 28740, Note_on_c, 3, 66, 0
5, 28740, Note_on_c, 3, 64, 90
5, 28799, Note_on_c, 3, 64, 0
5, 28800, Note_on_c, 3, 62, 100
5, 28920, Note_on_c, 3, 62, 0
5, 28920, Note_on_c, 3, 71, 90
5, 28979, Note_on_c, 3, 71, 0
5, 28980, Note_on_c, 3, 71, 100
5, 29100, Note_on_c, 3, 71, 0
5, 29100, Note_on_c, 3, 69, 90
5, 29159, Note_on_c, 3, 69, 0
5, 29160, Note_on_c, 3, 69, 100
5, 29280, Note_on_c, 3, 69, 0
5, 29280, Note_on_c, 3, 68, 90
5, 29339, Note_on_c, 3, 68, 0
5, 30360, Note_on_c, 3, 72, 90
5, 30419, Note_on_c, 3, 72, 0
5, 30420, Note_on_c, 3, 66, 90
5, 30539, Note_on_c, 3, 66, 0
5, 30540, Note_on_c, 3, 67, 90
5, 30599, Note_on_c, 3, 67, 0
5, 30600, Note_on_c, 3, 69, 90
5, 30719, Note_on_c, 3, 69, 0
5, 30720, Note_on_c, 3, 72, 90
5, 30779, Note_on_c, 3, 72, 0
5, 30780, Note_on_c, 3, 66, 90
5, 30869, Note_on_c, 3, 66, 0
5, 30870, Note_on_c, 3, 64, 90
5, 30899, Note_on_c, 3, 64, 0
5, 30900, Note_on_c, 3, 66, 90
5, 30959, Note_on_c, 3, 66, 0
5, 30960, Note_on_c, 3, 67, 90
5, 31079, Note_on_c, 3, 67, 0
5, 33840, Note_on_c, 3, 67, 100
5, 33960, Note_on_c, 3, 67, 0
5, 33960, Note_on_c, 3, 66, 100
5, 34020, Note_on_c, 3, 66, 0
5, 34020, Note_on_c, 3, 66, 100
5, 34140, Note_on_c, 3, 66, 0
5, 34140, Note_on_c, 3, 62, 100
5, 34200, Note_on_c, 3, 62, 0
5, 34200, Note_on_c, 3, 62, 100
5, 34320, Note_on_c, 3, 62, 0
5, 34320, Note_on_c, 3, 66, 100
5, 34380, Note_on_c, 3, 66, 0
5, 34380, Note_on_c, 3, 67, 100
5, 34500, Note_on_c, 3, 67, 0
5, 34500, Note_on_c, 3, 60, 100
5, 34560, Note_on_c, 3, 60, 0
5, 34560, Note_on_c, 3, 62, 100
5, 34680, Note_on_c, 3, 62, 0
5, 34680, Note_on_c, 3, 66, 100
5, 34740, Note_on_c, 3, 66, 0
5, 34740, Note_on_c, 3, 67, 100
5, 34860, Note_on_c, 3, 67, 0
5, 34860, Note_on_c, 3, 60, 100
5, 34920, Note_on_c, 3, 60, 0
5, 34920, Note_on_c, 3, 62, 100
5, 35040, Note_on_c, 3, 62, 0
5, 35280, Note_on_c, 3, 67, 100
5, 35400, Note_on_c, 3, 67, 0
5, 35400, Note_on_c, 3, 69, 100
5, 35460, Note_on_c, 3, 69, 0
5, 35460, Note_on_c, 3, 69, 100
5, 35580, Note_on_c, 3, 69, 0
5, 35580, Note_on_c, 3, 71, 100
5, 35640, Note_on_c, 3, 71, 0
5, 35640, Note_on_c, 3, 71, 100
5, 35760, Note_on_c, 3, 71, 0
5, 35760, Note_on_c, 3, 63, 100
5, 35820, Note_on_c, 3, 63, 0
5, 35820, Note_on_c, 3, 64, 100
5, 35940, Note_on_c, 3, 64, 0
5, 35940, Note_on_c, 3, 69, 100
5, 36000, Note_on_c, 3, 69, 0
5, 36000, Note_on_c, 3, 67, 100
5, 36120, Note_on_c, 3, 67, 0
5, 36120, Note_on_c, 3, 69, 100
5, 36180, Note_on_c, 3, 69, 0
5, 36180, Note_on_c, 3, 67, 100
5, 36300, Note_on_c, 3, 67, 0
5, 36300, Note_on_c, 3, 78, 100
5, 36360, Note_on_c, 3, 78, 0
5, 36360, Note_on_c, 3, 76, 100
5, 36480, Note_on_c, 3, 76, 0
5, 36720, Note_on_c, 3, 72, 100
5, 36840, Note_on_c, 3, 72, 0
5, 36840, Note_on_c, 3, 71, 100
5, 36900, Note_on_c, 3, 71, 0
5, 36900, Note_on_c, 3, 71, 100
5, 37020, Note_on_c, 3, 71, 0
5, 37020, Note_on_c, 3, 67, 100
5, 37080, Note_on_c, 3, 67, 0
5, 37080, Note_on_c, 3, 67, 100
5, 37200, Note_on_c, 3, 67, 0
5, 37200, Note_on_c, 3, 71, 100
5, 37260, Note_on_c, 3, 71, 0
5, 37260, Note_on_c, 3, 72, 100
5, 37380, Note_on_c, 3, 72, 0
5, 37380, Note_on_c, 3, 65, 100
5, 37440, Note_on_c, 3, 65, 0
5, 37440, Note_on_c, 3, 67, 100
5, 37560, Note_on_c, 3, 67, 0
5, 37560, Note_on_c, 3, 71, 100
5, 37620, Note_on_c, 3, 71, 0
5, 37620, Note_on_c, 3, 72, 100
5, 37740, Note_on_c, 3, 72, 0
5, 37740, Note_on_c, 3, 65, 100
5, 37800, Note_on_c, 3, 65, 0
5, 37800, Note_on_c, 3, 67, 100
5, 37920, Note_on_c, 3, 67, 0
5, 40680, Note_on_c, 3, 71, 90
5, 40799, Note_on_c, 3, 71, 0
5, 40800, Note_on_c, 3, 69, 90
5, 40859, Note_on_c, 3, 69, 0
5, 40860, Note_on_c, 3, 69, 90
5, 40979, Note_on_c, 3, 69, 0
5, 40980, Note_on_c, 3, 67, 90
5, 41039, Note_on_c, 3, 67, 0
5, 41040, Note_on_c, 3, 67, 90
5, 41519, Note_on_c, 3, 67, 0
5, 41520, Note_on_c, 3, 65, 90
5, 41579, Note_on_c, 3, 65, 0
5, 41580, Note_on_c, 3, 65, 90
5, 41699, Note_on_c, 3, 65, 0
5, 41700, Note_on_c, 3, 64, 90
5, 41759, Note_on_c, 3, 64, 0
5, 41760, Note_on_c, 3, 64, 90
5, 41879, Note_on_c, 3, 64, 0
5, 41880, Note_on_c, 3, 62, 90
5, 41939, Note_on_c, 3, 62, 0
5, 41940, Note_on_c, 3, 62, 90
5, 42059, Note_on_c, 3, 62, 0
5, 42060, Note_on_c, 3, 61, 90
5, 42119, Note_on_c, 3, 61, 0
5, 42120, Note_on_c, 3, 61, 90
5, 42239, Note_on_c, 3, 61, 0
5, 42240, Note_on_c, 3, 64, 90
5, 42299, Note_on_c, 3, 64, 0
5, 42300, Note_on_c, 3, 64, 90
5, 42419, Note_on_c, 3, 64, 0
5, 42420, Note_on_c, 3, 62, 90
5, 42479, Note_on_c, 3, 62, 0
5, 42480, Note_on_c, 3, 62, 90
5, 42599, Note_on_c, 3, 62, 0
5, 42600, Note_on_c, 3, 67, 90
5, 42659, Note_on_c, 3, 67, 0
5, 42660, Note_on_c, 3, 70, 90
5, 42749, Note_on_c, 3, 70, 0
5, 42750, Note_on_c, 3, 69, 90
5, 42779, Note_on_c, 3, 69, 0
5, 42780, Note_on_c, 3, 67, 90
5, 42839, Note_on_c, 3, 67, 0
5, 42840, Note_on_c, 3, 69, 90
5, 42959, Note_on_c, 3, 69, 0
5, 42960, Note_on_c, 3, 64, 90
5, 43019, Note_on_c, 3, 64, 0
5, 43020, Note_on_c, 3, 61, 90
5, 43139, Note_on_c, 3, 61, 0
5, 43140, Note_on_c, 3, 57, 90
5, 43199, Note_on_c, 3, 57, 0
5, 43200, Note_on_c, 3, 69, 90
5, 43289, Note_on_c, 3, 69, 0
5, 43290, Note_on_c, 3, 67, 90
5, 43319, Note_on_c, 3, 67, 0
5, 43320, Note_on_c, 3, 69, 90
5, 43379, Note_on_c, 3, 69, 0
5, 43380, Note_on_c, 3, 71, 90
5, 43499, Note_on_c, 3, 71, 0
5, 43500, Note_on_c, 3, 72, 90
5, 43559, Note_on_c, 3, 72, 0
5, 43560, Note_on_c, 3, 74, 90
5, 43649, Note_on_c, 3, 74, 0
5, 43650, Note_on_c, 3, 66, 90
5, 43679, Note_on_c, 3, 66, 0
5, 43680, Note_on_c, 3, 67, 90
5, 43829, Note_on_c, 3, 67, 0
5, 43830, Note_on_c, 3, 66, 90
5, 43859, Note_on_c, 3, 66, 0
5, 43860, Note_on_c, 3, 74, 90
5, 43919, Note_on_c, 3, 74, 0
5, 43920, Note_on_c, 3, 74, 90
5, 44039, Note_on_c, 3, 74, 0
5, 44370, Note_on_c, 3, 72, 100
5, 44400, Note_on_c, 3, 72, 0
5, 44400, Note_on_c, 3, 71, 100
5, 44550, Note_on_c, 3, 71, 0
5, 44550, Note_on_c, 3, 59, 100
5, 44580, Note_on_c, 3, 59, 0
5, 44580, Note_on_c, 3, 60, 100
5, 44640, Note_on_c, 3, 60, 0
5, 44640, Note_on_c, 3, 59, 90
5, 45000, Note_on_c, 3, 59, 0
5, 50520, Note_on_c, 3, 67, 90
5, 50639, Note_on_c, 3, 67, 0
5, 50640, Note_on_c, 3, 67, 90
5, 50759, Note_on_c, 3, 67, 0
5, 50760, Note_on_c, 3, 69, 90
5, 50879, Note_on_c, 3, 69, 0
5, 50880, Note_on_c, 3, 71, 90
5, 50939, Note_on_c, 3, 71, 0
5, 50940, Note_on_c, 3, 73, 90
5, 50999, Note_on_c, 3, 73, 0
5, 51000, Note_on_c, 3, 74, 90
5, 51119, Note_on_c, 3, 74, 0
5, 51120, Note_on_c, 3, 74, 90
5, 51239, Note_on_c, 3, 74, 0
5, 51240, Note_on_c, 3, 73, 90
5, 51359, Note_on_c, 3, 73, 0
5, 51360, Note_on_c, 3, 74, 90
5, 51449, Note_on_c, 3, 74, 0
5, 51480, Note_on_c, 3, 71, 90
5, 51599, Note_on_c, 3, 71, 0
5, 51600, Note_on_c, 3, 72, 90
5, 51719, Note_on_c, 3, 72, 0
5, 51720, Note_on_c, 3, 71, 90
5, 51839, Note_on_c, 3, 71, 0
5, 51840, Note_on_c, 3, 69, 90
5, 51959, Note_on_c, 3, 69, 0
5, 51960, Note_on_c, 3, 71, 90
5, 52079, Note_on_c, 3, 71, 0
5, 52080, Note_on_c, 3, 69, 90
5, 52319, Note_on_c, 3, 69, 0
5, 52320, Note_on_c, 3, 67, 90
5, 52409, Note_on_c, 3, 67, 0
5, 52440, Note_on_c, 3, 67, 90
5, 52559, Note_on_c, 3, 67, 0
5, 52560, Note_on_c, 3, 67, 90
5, 52679, Note_on_c, 3, 67, 0
5, 52680, Note_on_c, 3, 69, 90
5, 52799, Note_on_c, 3, 69, 0
5, 52800, Note_on_c, 3, 71, 90
5, 52859, Note_on_c, 3, 71, 0
5, 52860, Note_on_c, 3, 73, 90
5, 52919, Note_on_c, 3, 73, 0
5, 52920, Note_on_c, 3, 74, 90
5, 53039, Note_on_c, 3, 74, 0
5, 53040, Note_on_c, 3, 74, 90
5, 53159, Note_on_c, 3, 74, 0
5, 53160, Note_on_c, 3, 73, 90
5, 53279, Note_on_c, 3, 73, 0
5, 53280, Note_on_c, 3, 74, 90
5, 53369, Note_on_c, 3, 74, 0
5, 53400, Note_on_c, 3, 71, 90
5, 53519, Note_on_c, 3, 71, 0
5, 53520, Note_on_c, 3, 72, 90
5, 53639, Note_on_c, 3, 72, 0
5, 53640, Note_on_c, 3, 71, 90
5, 53759, Note_on_c, 3, 71, 0
5, 53760, Note_on_c, 3, 69, 90
5, 53879, Note_on_c, 3, 69, 0
5, 53880, Note_on_c, 3, 71, 90
5, 53999, Note_on_c, 3, 71, 0
5, 54000, Note_on_c, 3, 69, 90
5, 54239, Note_on_c, 3, 69, 0
5, 54240, Note_on_c, 3, 67, 90
5, 54329, Note_on_c, 3, 67, 0
5, 54360, Note_on_c, 3, 69, 90
5, 54479, Note_on_c, 3, 69, 0
5, 54480, Note_on_c, 3, 69, 90
5, 54599, Note_on_c, 3, 69, 0
5, 54600, Note_on_c, 3, 71, 90
5, 54719, Note_on_c, 3, 71, 0
5, 54720, Note_on_c, 3, 72, 90
5, 54839, Note_on_c, 3, 72, 0
5, 54840, Note_on_c, 3, 72, 90
5, 54959, Note_on_c, 3, 72, 0
5, 54960, Note_on_c, 3, 71, 90
5, 55019, Note_on_c, 3, 71, 0
5, 55020, Note_on_c, 3, 69, 90
5, 55079, Note_on_c, 3, 69, 0
5, 55080, Note_on_c, 3, 71, 90
5, 55199, Note_on_c, 3, 71, 0
5, 55200, Note_on_c, 3, 69, 90
5, 55289, Note_on_c, 3, 69, 0
5, 55320, Note_on_c, 3, 71, 90
5, 55439, Note_on_c, 3, 71, 0
5, 55440, Note_on_c, 3, 71, 90
5, 55559, Note_on_c, 3, 71, 0
5, 55560, Note_on_c, 3, 71, 90
5, 55679, Note_on_c, 3, 71, 0
5, 55680, Note_on_c, 3, 72, 90
5, 55739, Note_on_c, 3, 72, 0
5, 55740, Note_on_c, 3, 74, 90
5, 55799, Note_on_c, 3, 74, 0
5, 55800, Note_on_c, 3, 76, 90
5, 55919, Note_on_c, 3, 76, 0
5, 55920, Note_on_c, 3, 76, 90
5, 56039, Note_on_c, 3, 76, 0
5, 56040, Note_on_c, 3, 75, 90
5, 56159, Note_on_c, 3, 75, 0
5, 56160, Note_on_c, 3, 76, 90
5, 56249, Note_on_c, 3, 76, 0
5, 56280, Note_on_c, 3, 78, 90
5, 56399, Note_on_c, 3, 78, 0
5, 56400, Note_on_c, 3, 79, 90
5, 56519, Note_on_c, 3, 79, 0
5, 56520, Note_on_c, 3, 71, 90
5, 56639, Note_on_c, 3, 71, 0
5, 56640, Note_on_c, 3, 72, 90
5, 56759, Note_on_c, 3, 72, 0
5, 56760, Note_on_c, 3, 71, 90
5, 56879, Note_on_c, 3, 71, 0
5, 56880, Note_on_c, 3, 69, 90
5, 57119, Note_on_c, 3, 69, 0
5, 57120, Note_on_c, 3, 69, 90
5, 57209, Note_on_c, 3, 69, 0
5, 57240, Note_on_c, 3, 74, 90
5, 57359, Note_on_c, 3, 74, 0
5, 57360, Note_on_c, 3, 76, 90
5, 57479, Note_on_c, 3, 76, 0
5, 57480, Note_on_c, 3, 74, 90
5, 57599, Note_on_c, 3, 74, 0
5, 57600, Note_on_c, 3, 72, 90
5, 57719, Note_on_c, 3, 72, 0
5, 57720, Note_on_c, 3, 71, 90
5, 57779, Note_on_c, 3, 71, 0
5, 57780, Note_on_c, 3, 72, 90
5, 57839, Note_on_c, 3, 72, 0
5, 57840, Note_on_c, 3, 69, 90
5, 58079, Note_on_c, 3, 69, 0
5, 58080, Note_on_c, 3, 67, 90
5, 58199, Note_on_c, 3, 67, 0
5, 62400, Note_on_c, 3, 71, 100
5, 62520, Note_on_c, 3, 71, 0
5, 62880, Note_on_c, 3, 67, 100
5, 63000, Note_on_c, 3, 67, 0
5, 63360, Note_on_c, 3, 72, 100
5, 63480, Note_on_c, 3, 72, 0
5, 63600, Note_on_c, 3, 71, 100
5, 63720, Note_on_c, 3, 71, 0
5, 64200, Note_on_c, 3, 73, 100
5, 64320, Note_on_c, 3, 73, 0
5, 64560, Note_on_c, 3, 69, 100
5, 64680, Note_on_c, 3, 69, 0
5, 65040, Note_on_c, 3, 78, 100
5, 65160, Note_on_c, 3, 78, 0
5, 65280, Note_on_c, 3, 69, 100
5, 65400, Note_on_c, 3, 69, 0
5, 65760, Note_on_c, 3, 75, 100
5, 65790, Note_on_c, 3, 75, 0
5, 65880, Note_on_c, 3, 75, 100
5, 65910, Note_on_c, 3, 75, 0
5, 66000, Note_on_c, 3, 76, 100
5, 66030, Note_on_c, 3, 76, 0
5, 66120, Note_on_c, 3, 64, 100
5, 66150, Note_on_c, 3, 64, 0
5, 66360, Note_on_c, 3, 71, 100
5, 66480, Note_on_c, 3, 71, 0
5, 66480, Note_on_c, 3, 71, 100
5, 66720, Note_on_c, 3, 71, 0
5, 93000, Note_on_c, 3, 72, 90
5, 93119, Note_on_c, 3, 72, 0
5, 93120, Note_on_c, 3, 71, 90
5, 93239, Note_on_c, 3, 71, 0
5, 93240, Note_on_c, 3, 69, 90
5, 93359, Note_on_c, 3, 69, 0
5, 93360, Note_on_c, 3, 71, 90
5, 93419, Note_on_c, 3, 71, 0
5, 93420, Note_on_c, 3, 69, 90
5, 93479, Note_on_c, 3, 69, 0
5, 93480, Note_on_c, 3, 67, 90
5, 93599, Note_on_c, 3, 67, 0
5, 93600, Note_on_c, 3, 69, 90
5, 93719, Note_on_c, 3, 69, 0
5, 93720, Note_on_c, 3, 71, 90
5, 93839, Note_on_c, 3, 71, 0
5, 93840, Note_on_c, 3, 72, 90
5, 93929, Note_on_c, 3, 72, 0
5, 93960, Note_on_c, 3, 72, 90
5, 94079, Note_on_c, 3, 72, 0
5, 94080, Note_on_c, 3, 72, 90
5, 94199, Note_on_c, 3, 72, 0
5, 94200, Note_on_c, 3, 67, 90
5, 94319, Note_on_c, 3, 67, 0
5, 94320, Note_on_c, 3, 67, 90
5, 94379, Note_on_c, 3, 67, 0
5, 94380, Note_on_c, 3, 65, 90
5, 94439, Note_on_c, 3, 65, 0
5, 94440, Note_on_c, 3, 64, 90
5, 94499, Note_on_c, 3, 64, 0
5, 94500, Note_on_c, 3, 65, 90
5, 94559, Note_on_c, 3, 65, 0
5, 94560, Note_on_c, 3, 67, 90
5, 94679, Note_on_c, 3, 67, 0
5, 94680, Note_on_c, 3, 65, 90
5, 94799, Note_on_c, 3, 65, 0
5, 94800, Note_on_c, 3, 64, 90
5, 94889, Note_on_c, 3, 64, 0
5, 94920, Note_on_c, 3, 64, 90
5, 95039, Note_on_c, 3, 64, 0
5, 95040, Note_on_c, 3, 69, 90
5, 95159, Note_on_c, 3, 69, 0
5, 95160, Note_on_c, 3, 69, 90
5, 95279, Note_on_c, 3, 69, 0
5, 95280, Note_on_c, 3, 67, 90
5, 95339, Note_on_c, 3, 67, 0
5, 95340, Note_on_c, 3, 69, 90
5, 95399, Note_on_c, 3, 69, 0
5, 95400, Note_on_c, 3, 71, 90
5, 95519, Note_on_c, 3, 71, 0
5, 95520, Note_on_c, 3, 72, 90
5, 95579, Note_on_c, 3, 72, 0
5, 95580, Note_on_c, 3, 71, 90
5, 95639, Note_on_c, 3, 71, 0
5, 95640, Note_on_c, 3, 69, 90
5, 95759, Note_on_c, 3, 69, 0
5, 95760, Note_on_c, 3, 67, 90
5, 95849, Note_on_c, 3, 67, 0
5, 95880, Note_on_c, 3, 72, 90
5, 95999, Note_on_c, 3, 72, 0
5, 96000, Note_on_c, 3, 71, 90
5, 96119, Note_on_c, 3, 71, 0
5, 96120, Note_on_c, 3, 69, 90
5, 96239, Note_on_c, 3, 69, 0
5, 96240, Note_on_c, 3, 67, 90
5, 96359, Note_on_c, 3, 67, 0
5, 96360, Note_on_c, 3, 69, 90
5, 96419, Note_on_c, 3, 69, 0
5, 96420, Note_on_c, 3, 67, 90
5, 96479, Note_on_c, 3, 67, 0
5, 96480, Note_on_c, 3, 65, 90
5, 96539, Note_on_c, 3, 65, 0
5, 96540, Note_on_c, 3, 64, 90
5, 96599, Note_on_c, 3, 64, 0
5, 96600, Note_on_c, 3, 62, 90
5, 96719, Note_on_c, 3, 62, 0
5, 96720, Note_on_c, 3, 60, 90
5, 96839, Note_on_c, 3, 60, 0
5, 96960, Note_on_c, 3, 72, 100
5, 97080, Note_on_c, 3, 72, 0
5, 97200, Note_on_c, 3, 76, 100
5, 97320, Note_on_c, 3, 76, 0
5, 97440, Note_on_c, 3, 69, 100
5, 97560, Note_on_c, 3, 69, 0
5, 97680, Note_on_c, 3, 68, 100
5, 97800, Note_on_c, 3, 68, 0
5, 97920, Note_on_c, 3, 64, 100
5, 98040, Note_on_c, 3, 64, 0
5, 98160, Note_on_c, 3, 69, 100
5, 98280, Note_on_c, 3, 69, 0
5, 98400, Note_on_c, 3, 67, 100
5, 98520, Note_on_c, 3, 67, 0
5, 98640, Note_on_c, 3, 67, 100
5, 98760, Note_on_c, 3, 67, 0
5, 98880, Note_on_c, 3, 67, 90
5, 98939, Note_on_c, 3, 67, 0
5, 98940, Note_on_c, 3, 67, 90
5, 98999, Note_on_c, 3, 67, 0
5, 99000, Note_on_c, 3, 67, 90
5, 99059, Note_on_c, 3, 67, 0
5, 99060, Note_on_c, 3, 67, 90
5, 99119, Note_on_c, 3, 67, 0
5, 99120, Note_on_c, 3, 72, 90
5, 99179, Note_on_c, 3, 72, 0
5, 99180, Note_on_c, 3, 72, 90
5, 99239, Note_on_c, 3, 72, 0
5, 99240, Note_on_c, 3, 72, 90
5, 99299, Note_on_c, 3, 72, 0
5, 99300, Note_on_c, 3, 72, 90
5, 99359, Note_on_c, 3, 72, 0
5, 99360, Note_on_c, 3, 76, 90
5, 99419, Note_on_c, 3, 76, 0
5, 99420, Note_on_c, 3, 76, 90
5, 99479, Note_on_c, 3, 76, 0
5, 99480, Note_on_c, 3, 76, 90
5, 99539, Note_on_c, 3, 76, 0
5, 99540, Note_on_c, 3, 76, 90
5, 99599, Note_on_c, 3, 76, 0
5, 99600, Note_on_c, 3, 76, 90
5, 99659, Note_on_c, 3, 76, 0
5, 99660, Note_on_c, 3, 76, 90
5, 99719, Note_on_c, 3, 76, 0
5, 99720, Note_on_c, 3, 76, 90
5, 99779, Note_on_c, 3, 76, 0
5, 99780, Note_on_c, 3, 76, 90
5, 99839, Note_on_c, 3, 76, 0
5, 99840, Note_on_c, 3, 76, 90
5, 99899, Note_on_c, 3, 76, 0
5, 99900, Note_on_c, 3, 76, 90
5, 99959, Note_on_c, 3, 76, 0
5, 99960, Note_on_c, 3, 76, 90
5, 100019, Note_on_c, 3, 76, 0
5, 100020, Note_on_c, 3, 76, 90
5, 100079, Note_on_c, 3, 76, 0
5, 100080, Note_on_c, 3, 69, 90
5, 100139, Note_on_c, 3, 69, 0
5, 100140, Note_on_c, 3, 69, 90
5, 100199, Note_on_c, 3, 69, 0
5, 100200, Note_on_c, 3, 69, 90
5, 100259, Note_on_c, 3, 69, 0
5, 100260, Note_on_c, 3, 69, 90
5, 100319, Note_on_c, 3, 69, 0
5, 100320, Note_on_c, 3, 74, 90
5, 100379, Note_on_c, 3, 74, 0
5, 100380, Note_on_c, 3, 74, 90
5, 100439, Note_on_c, 3, 74, 0
5, 100440, Note_on_c, 3, 74, 90
5, 100499, Note_on_c, 3, 74, 0
5, 100500, Note_on_c, 3, 74, 90
5, 100559, Note_on_c, 3, 74, 0
5, 100560, Note_on_c, 3, 74, 90
5, 100619, Note_on_c, 3, 74, 0
5, 100620, Note_on_c, 3, 74, 90
5, 100679, Note_on_c, 3, 74, 0
5, 100680, Note_on_c, 3, 74, 90
5, 100739, Note_on_c, 3, 74, 0
5, 100740, Note_on_c, 3, 74, 90
5, 100799, Note_on_c, 3, 74, 0
5, 100800, Note_on_c, 3, 71, 90
5, 100859, Note_on_c, 3, 71, 0
5, 100860, Note_on_c, 3, 71, 90
5, 100919, Note_on_c, 3, 71, 0
5, 100920, Note_on_c, 3, 69, 90
5, 100979, Note_on_c, 3, 69, 0
5, 100980, Note_on_c, 3, 69, 90
5, 101039, Note_on_c, 3, 69, 0
5, 101040, Note_on_c, 3, 67, 90
5, 101279, Note_on_c, 3, 67, 0
5, 101520, Note_on_c, 3, 71, 90
5, 101609, Note_on_c, 3, 71, 0
5, 101610, Note_on_c, 3, 72, 90
5, 101624, Note_on_c, 3, 72, 0
5, 101625, Note_on_c, 3, 74, 90
5, 101639, Note_on_c, 3, 74, 0
5, 101640, Note_on_c, 3, 72, 90
5, 101669, Note_on_c, 3, 72, 0
5, 101670, Note_on_c, 3, 71, 90
5, 101699, Note_on_c, 3, 71, 0
5, 101700, Note_on_c, 3, 69, 90
5, 101729, Note_on_c, 3, 69, 0
5, 101730, Note_on_c, 3, 67, 90
5, 101759, Note_on_c, 3, 67, 0
5, 101760, Note_on_c, 3, 69, 90
5, 101819, Note_on_c, 3, 69, 0
5, 101820, Note_on_c, 3, 66, 90
5, 101879, Note_on_c, 3, 66, 0
5, 101880, Note_on_c, 3, 67, 90
5, 101939, Note_on_c, 3, 67, 0
5, 101940, Note_on_c, 3, 62, 90
5, 101999, Note_on_c, 3, 62, 0
5, 102000, Note_on_c, 3, 71, 90
5, 102089, Note_on_c, 3, 71, 0
5, 102090, Note_on_c, 3, 72, 90
5, 102104, Note_on_c, 3, 72, 0
5, 102105, Note_on_c, 3, 74, 90
5, 102119, Note_on_c, 3, 74, 0
5, 102120, Note_on_c, 3, 72, 90
5, 102149, Note_on_c, 3, 72, 0
5, 102150, Note_on_c, 3, 71, 90
5, 102179, Note_on_c, 3, 71, 0
5, 102180, Note_on_c, 3, 69, 90
5, 102209, Note_on_c, 3, 69, 0
5, 102210, Note_on_c, 3, 67, 90
5, 102239, Note_on_c, 3, 67, 0
5, 102240, Note_on_c, 3, 72, 90
5, 102480, Note_on_c, 3, 72, 0
5, 102480, Note_on_c, 3, 69, 90
5, 102569, Note_on_c, 3, 69, 0
5, 102570, Note_on_c, 3, 71, 90
5, 102584, Note_on_c, 3, 71, 0
5, 102585, Note_on_c, 3, 72, 90
5, 102599, Note_on_c, 3, 72, 0
5, 102600, Note_on_c, 3, 72, 90
5, 102629, Note_on_c, 3, 72, 0
5, 102660, Note_on_c, 3, 72, 90
5, 102689, Note_on_c, 3, 72, 0
5, 102720, Note_on_c, 3, 76, 90
5, 102779, Note_on_c, 3, 76, 0
5, 102780, Note_on_c, 3, 72, 90
5, 102839, Note_on_c, 3, 72, 0
5, 102840, Note_on_c, 3, 72, 90
5, 102899, Note_on_c, 3, 72, 0
5, 102900, Note_on_c, 3, 69, 90
5, 102959, Note_on_c, 3, 69, 0
5, 102960, Note_on_c, 3, 69, 90
5, 103019, Note_on_c, 3, 69, 0
5, 103020, Note_on_c, 3, 71, 90
5, 103049, Note_on_c, 3, 71, 0
5, 103050, Note_on_c, 3, 72, 90
5, 103079, Note_on_c, 3, 72, 0
5, 103080, Note_on_c, 3, 74, 90
5, 103109, Note_on_c, 3, 74, 0
5, 103110, Note_on_c, 3, 72, 90
5, 103139, Note_on_c, 3, 72, 0
5, 103140, Note_on_c, 3, 71, 90
5, 103169, Note_on_c, 3, 71, 0
5, 103170, Note_on_c, 3, 74, 90
5, 103199, Note_on_c, 3, 74, 0
5, 103200, Note_on_c, 3, 72, 90
5, 103229, Note_on_c, 3, 72, 0
5, 103230, Note_on_c, 3, 71, 90
5, 103259, Note_on_c, 3, 71, 0
5, 103260, Note_on_c, 3, 69, 90
5, 103289, Note_on_c, 3, 69, 0
5, 103290, Note_on_c, 3, 72, 90
5, 103319, Note_on_c, 3, 72, 0
5, 103320, Note_on_c, 3, 71, 90
5, 103439, Note_on_c, 3, 71, 0
5, 103440, Note_on_c, 3, 62, 90
5, 103499, Note_on_c, 3, 62, 0
5, 103500, Note_on_c, 3, 64, 90
5, 103559, Note_on_c, 3, 64, 0
5, 103560, Note_on_c, 3, 64, 90
5, 103619, Note_on_c, 3, 64, 0
5, 103620, Note_on_c, 3, 66, 90
5, 103679, Note_on_c, 3, 66, 0
5, 103680, Note_on_c, 3, 66, 90
5, 103739, Note_on_c, 3, 66, 0
5, 103740, Note_on_c, 3, 67, 90
5, 103769, Note_on_c, 3, 67, 0
5, 103770, Note_on_c, 3, 66, 90
5, 103799, Note_on_c, 3, 66, 0
5, 103800, Note_on_c, 3, 67, 90
5, 103859, Note_on_c, 3, 67, 0
5, 103860, Note_on_c, 3, 62, 90
5, 103919, Note_on_c, 3, 62, 0
5, 103920, Note_on_c, 3, 62, 90
5, 103979, Note_on_c, 3, 62, 0
5, 103980, Note_on_c, 3, 64, 90
5, 104039, Note_on_c, 3, 64, 0
5, 104040, Note_on_c, 3, 64, 90
5, 104099, Note_on_c, 3, 64, 0
5, 104100, Note_on_c, 3, 65, 90
5, 104159, Note_on_c, 3, 65, 0
5, 104160, Note_on_c, 3, 65, 90
5, 104399, Note_on_c, 3, 65, 0
5, 104400, Note_on_c, 3, 64, 90
5, 104459, Note_on_c, 3, 64, 0
5, 104460, Note_on_c, 3, 69, 90
5, 104519, Note_on_c, 3, 69, 0
5, 104520, Note_on_c, 3, 69, 90
5, 104579, Note_on_c, 3, 69, 0
5, 104580, Note_on_c, 3, 72, 90
5, 104639, Note_on_c, 3, 72, 0
5, 104640, Note_on_c, 3, 72, 90
5, 104699, Note_on_c, 3, 72, 0
5, 104700, Note_on_c, 3, 74, 90
5, 104729, Note_on_c, 3, 74, 0
5, 104730, Note_on_c, 3, 76, 90
5, 104759, Note_on_c, 3, 76, 0
5, 104760, Note_on_c, 3, 74, 90
5, 104789, Note_on_c, 3, 74, 0
5, 104790, Note_on_c, 3, 72, 90
5, 104819, Note_on_c, 3, 72, 0
5, 104820, Note_on_c, 3, 71, 90
5, 104849, Note_on_c, 3, 71, 0
5, 104850, Note_on_c, 3, 69, 90
5, 104879, Note_on_c, 3, 69, 0
5, 104880, Note_on_c, 3, 67, 90
5, 104909, Note_on_c, 3, 67, 0
5, 104910, Note_on_c, 3, 66, 90
5, 104939, Note_on_c, 3, 66, 0
5, 104940, Note_on_c, 3, 67, 90
5, 104969, Note_on_c, 3, 67, 0
5, 104970, Note_on_c, 3, 72, 90
5, 104999, Note_on_c, 3, 72, 0
5, 105000, Note_on_c, 3, 69, 90
5, 105089, Note_on_c, 3, 69, 0
5, 105090, Note_on_c, 3, 67, 90
5, 105119, Note_on_c, 3, 67, 0
5, 105120, Note_on_c, 3, 67, 90
5, 105179, Note_on_c, 3, 67, 0
5, 105180, Note_on_c, 3, 73, 90
5, 105299, Note_on_c, 3, 73, 0
5, 105300, Note_on_c, 3, 74, 90
5, 105329, Note_on_c, 3, 74, 0
5, 105330, Note_on_c, 3, 76, 90
5, 105359, Note_on_c, 3, 76, 0
5, 105360, Note_on_c, 3, 74, 90
5, 105419, Note_on_c, 3, 74, 0
5, 105420, Note_on_c, 3, 67, 90
5, 105479, Note_on_c, 3, 67, 0
5, 105480, Note_on_c, 3, 66, 90
5, 105539, Note_on_c, 3, 66, 0
5, 105540, Note_on_c, 3, 69, 90
5, 105599, Note_on_c, 3, 69, 0
5, 105600, Note_on_c, 3, 72, 90
5, 105659, Note_on_c, 3, 72, 0
5, 105660, Note_on_c, 3, 78, 90
5, 105779, Note_on_c, 3, 78, 0
5, 105780, Note_on_c, 3, 79, 90
5, 105809, Note_on_c, 3, 79, 0
5, 105810, Note_on_c, 3, 81, 90
5, 105839, Note_on_c, 3, 81, 0
5, 105840, Note_on_c, 3, 79, 90
5, 105899, Note_on_c, 3, 79, 0
5, 105900, Note_on_c, 3, 72, 90
5, 105959, Note_on_c, 3, 72, 0
5, 105960, Note_on_c, 3, 71, 90
5, 106019, Note_on_c, 3, 71, 0
5, 106020, Note_on_c, 3, 74, 90
5, 106079, Note_on_c, 3, 74, 0
5, 106080, Note_on_c, 3, 77, 90
5, 106139, Note_on_c, 3, 77, 0
5, 106140, Note_on_c, 3, 76, 90
5, 106259, Note_on_c, 3, 76, 0
5, 106260, Note_on_c, 3, 74, 90
5, 106379, Note_on_c, 3, 74, 0
5, 106380, Note_on_c, 3, 72, 90
5, 106499, Note_on_c, 3, 72, 0
5, 106500, Note_on_c, 3, 70, 90
5, 106619, Note_on_c, 3, 70, 0
5, 106620, Note_on_c, 3, 69, 90
5, 106739, Note_on_c, 3, 69, 0
5, 106740, Note_on_c, 3, 67, 90
5, 106859, Note_on_c, 3, 67, 0
5, 106860, Note_on_c, 3, 66, 90
5, 106979, Note_on_c, 3, 66, 0
5, 106980, Note_on_c, 3, 63, 90
5, 107099, Note_on_c, 3, 63, 0
5, 107100, Note_on_c, 3, 62, 90
5, 107219, Note_on_c, 3, 62, 0
5, 107220, Note_on_c, 3, 60, 90
5, 107339, Note_on_c, 3, 60, 0
5, 107340, Note_on_c, 3, 59, 90
5, 107459, Note_on_c, 3, 59, 0
5, 107460, Note_on_c, 3, 60, 90
5, 107519, Note_on_c, 3, 60, 0
5, 107520, Note_on_c, 3, 62, 90
5, 107579, Note_on_c, 3, 62, 0
5, 107580, Note_on_c, 3, 64, 90
5, 107609, Note_on_c, 3, 64, 0
5, 107610, Note_on_c, 3, 62, 90
5, 107639, Note_on_c, 3, 62, 0
5, 107640, Note_on_c, 3, 60, 90
5, 107669, Note_on_c, 3, 60, 0
5, 107670, Note_on_c, 3, 59, 90
5, 107699, Note_on_c, 3, 59, 0
5, 107700, Note_on_c, 3, 57, 90
5, 107729, Note_on_c, 3, 57, 0
5, 107730, Note_on_c, 3, 69, 90
5, 107759, Note_on_c, 3, 69, 0
5, 107760, Note_on_c, 3, 67, 90
5, 107789, Note_on_c, 3, 67, 0
5, 107790, Note_on_c, 3, 66, 90
5, 107819, Note_on_c, 3, 66, 0
5, 107820, Note_on_c, 3, 64, 90
5, 107849, Note_on_c, 3, 64, 0
5, 107850, Note_on_c, 3, 62, 90
5, 107879, Note_on_c, 3, 62, 0
5, 107880, Note_on_c, 3, 72, 90
5, 107909, Note_on_c, 3, 72, 0
5, 107940, Note_on_c, 3, 71, 90
5, 107969, Note_on_c, 3, 71, 0
5, 108000, Note_on_c, 3, 69, 90
5, 108059, Note_on_c, 3, 69, 0
5, 108060, Note_on_c, 3, 67, 90
5, 108119, Note_on_c, 3, 67, 0
5, 114780, Note_on_c, 3, 68, 90
5, 114899, Note_on_c, 3, 68, 0
5, 114900, Note_on_c, 3, 69, 90
5, 114929, Note_on_c, 3, 69, 0
5, 114930, Note_on_c, 3, 71, 90
5, 114959, Note_on_c, 3, 71, 0
5, 114960, Note_on_c, 3, 69, 90
5, 115019, Note_on_c, 3, 69, 0
5, 115020, Note_on_c, 3, 62, 90
5, 115079, Note_on_c, 3, 62, 0
5, 115080, Note_on_c, 3, 61, 90
5, 115139, Note_on_c, 3, 61, 0
5, 115140, Note_on_c, 3, 64, 90
5, 115199, Note_on_c, 3, 64, 0
5, 115200, Note_on_c, 3, 67, 90
5, 115259, Note_on_c, 3, 67, 0
5, 115260, Note_on_c, 3, 73, 90
5, 115379, Note_on_c, 3, 73, 0
5, 115380, Note_on_c, 3, 74, 90
5, 115409, Note_on_c, 3, 74, 0
5, 115410, Note_on_c, 3, 76, 90
5, 115439, Note_on_c, 3, 76, 0
5, 115440, Note_on_c, 3, 74, 90
5, 115499, Note_on_c, 3, 74, 0
5, 115500, Note_on_c, 3, 67, 90
5, 115559, Note_on_c, 3, 67, 0
5, 115560, Note_on_c, 3, 66, 90
5, 115619, Note_on_c, 3, 66, 0
5, 115620, Note_on_c, 3, 69, 90
5, 115679, Note_on_c, 3, 69, 0
5, 115680, Note_on_c, 3, 72, 90
5, 115739, Note_on_c, 3, 72, 0
5, 115740, Note_on_c, 3, 71, 90
5, 115859, Note_on_c, 3, 71, 0
5, 115860, Note_on_c, 3, 69, 90
5, 115979, Note_on_c, 3, 69, 0
5, 115980, Note_on_c, 3, 67, 90
5, 116099, Note_on_c, 3, 67, 0
5, 116100, Note_on_c, 3, 77, 90
5, 116219, Note_on_c, 3, 77, 0
5, 116220, Note_on_c, 3, 76, 90
5, 116339, Note_on_c, 3, 76, 0
5, 116340, Note_on_c, 3, 74, 90
5, 116459, Note_on_c, 3, 74, 0
5, 116460, Note_on_c, 3, 73, 90
5, 116579, Note_on_c, 3, 73, 0
5, 116580, Note_on_c, 3, 70, 90
5, 116699, Note_on_c, 3, 70, 0
5, 116700, Note_on_c, 3, 69, 90
5, 116819, Note_on_c, 3, 69, 0
5, 116820, Note_on_c, 3, 67, 90
5, 116939, Note_on_c, 3, 67, 0
5, 116940, Note_on_c, 3, 66, 90
5, 117059, Note_on_c, 3, 66, 0
5, 117060, Note_on_c, 3, 67, 90
5, 117119, Note_on_c, 3, 67, 0
5, 117120, Note_on_c, 3, 69, 90
5, 117179, Note_on_c, 3, 69, 0
5, 117180, Note_on_c, 3, 71, 90
5, 117209, Note_on_c, 3, 71, 0
5, 117210, Note_on_c, 3, 69, 90
5, 117239, Note_on_c, 3, 69, 0
5, 117240, Note_on_c, 3, 67, 90
5, 117269, Note_on_c, 3, 67, 0
5, 117270, Note_on_c, 3, 66, 90
5, 117299, Note_on_c, 3, 66, 0
5, 117300, Note_on_c, 3, 64, 90
5, 117329, Note_on_c, 3, 64, 0
5, 117330, Note_on_c, 3, 76, 90
5, 117359, Note_on_c, 3, 76, 0
5, 117360, Note_on_c, 3, 74, 90
5, 117389, Note_on_c, 3, 74, 0
5, 117390, Note_on_c, 3, 73, 90
5, 117419, Note_on_c, 3, 73, 0
5, 117420, Note_on_c, 3, 71, 90
5, 117449, Note_on_c, 3, 71, 0
5, 117450, Note_on_c, 3, 69, 90
5, 117479, Note_on_c, 3, 69, 0
5, 117480, Note_on_c, 3, 79, 90
5, 117509, Note_on_c, 3, 79, 0
5, 117540, Note_on_c, 3, 78, 90
5, 117569, Note_on_c, 3, 78, 0
5, 117600, Note_on_c, 3, 76, 90
5, 117629, Note_on_c, 3, 76, 0
5, 117630, Note_on_c, 3, 74, 90
5, 117659, Note_on_c, 3, 74, 0
5, 117660, Note_on_c, 3, 73, 90
5, 117689, Note_on_c, 3, 73, 0
5, 117690, Note_on_c, 3, 71, 90
5, 117719, Note_on_c, 3, 71, 0
5, 117720, Note_on_c, 3, 69, 90
5, 117749, Note_on_c, 3, 69, 0
5, 117750, Note_on_c, 3, 67, 90
5, 117779, Note_on_c, 3, 67, 0
5, 117780, Note_on_c, 3, 66, 90
5, 117809, Note_on_c, 3, 66, 0
5, 117810, Note_on_c, 3, 64, 90
5, 117839, Note_on_c, 3, 64, 0
5, 124560, Note_on_c, 3, 71, 90
5, 124649, Note_on_c, 3, 71, 0
5, 124650, Note_on_c, 3, 72, 90
5, 124664, Note_on_c, 3, 72, 0
5, 124665, Note_on_c, 3, 74, 90
5, 124679, Note_on_c, 3, 74, 0
5, 124680, Note_on_c, 3, 72, 90
5, 124709, Note_on_c, 3, 72, 0
5, 124710, Note_on_c, 3, 71, 90
5, 124739, Note_on_c, 3, 71, 0
5, 124740, Note_on_c, 3, 69, 90
5, 124769, Note_on_c, 3, 69, 0
5, 124770, Note_on_c, 3, 67, 90
5, 124799, Note_on_c, 3, 67, 0
5, 124800, Note_on_c, 3, 69, 90
5, 124859, Note_on_c, 3, 69, 0
5, 124860, Note_on_c, 3, 66, 90
5, 124919, Note_on_c, 3, 66, 0
5, 124920, Note_on_c, 3, 67, 90
5, 124979, Note_on_c, 3, 67, 0
5, 124980, Note_on_c, 3, 62, 90
5, 125039, Note_on_c, 3, 62, 0
5, 125040, Note_on_c, 3, 71, 90
5, 125129, Note_on_c, 3, 71, 0
5, 125130, Note_on_c, 3, 72, 90
5, 125144, Note_on_c, 3, 72, 0
5, 125145, Note_on_c, 3, 74, 90
5, 125159, Note_on_c, 3, 74, 0
5, 125160, Note_on_c, 3, 72, 90
5, 125189, Note_on_c, 3, 72, 0
5, 125190, Note_on_c, 3, 71, 90
5, 125219, Note_on_c, 3, 71, 0
5, 125220, Note_on_c, 3, 69, 90
5, 125249, Note_on_c, 3, 69, 0
5, 125250, Note_on_c, 3, 67, 90
5, 125279, Note_on_c, 3, 67, 0
5, 125280, Note_on_c, 3, 72, 90
5, 125519, Note_on_c, 3, 72, 0
5, 125520, Note_on_c, 3, 69, 90
5, 125609, Note_on_c, 3, 69, 0
5, 125610, Note_on_c, 3, 71, 90
5, 125624, Note_on_c, 3, 71, 0
5, 125625, Note_on_c, 3, 72, 90
5, 125639, Note_on_c, 3, 72, 0
5, 125640, Note_on_c, 3, 72, 90
5, 125669, Note_on_c, 3, 72, 0
5, 125700, Note_on_c, 3, 72, 90
5, 125729, Note_on_c, 3, 72, 0
5, 125760, Note_on_c, 3, 76, 90
5, 125819, Note_on_c, 3, 76, 0
5, 125820, Note_on_c, 3, 72, 90
5, 125879, Note_on_c, 3, 72, 0
5, 125880, Note_on_c, 3, 72, 90
5, 125939, Note_on_c, 3, 72, 0
5, 125940, Note_on_c, 3, 69, 90
5, 125999, Note_on_c, 3, 69, 0
5, 126000, Note_on_c, 3, 69, 90
5, 126059, Note_on_c, 3, 69, 0
5, 126060, Note_on_c, 3, 71, 90
5, 126089, Note_on_c, 3, 71, 0
5, 126090, Note_on_c, 3, 72, 90
5, 126119, Note_on_c, 3, 72, 0
5, 126120, Note_on_c, 3, 74, 90
5, 126149, Note_on_c, 3, 74, 0
5, 126150, Note_on_c, 3, 72, 90
5, 126179, Note_on_c, 3, 72, 0
5, 126180, Note_on_c, 3, 71, 90
5, 126209, Note_on_c, 3, 71, 0
5, 126210, Note_on_c, 3, 74, 90
5, 126239, Note_on_c, 3, 74, 0
5, 126240, Note_on_c, 3, 72, 90
5, 126269, Note_on_c, 3, 72, 0
5, 126270, Note_on_c, 3, 71, 90
5, 126299, Note_on_c, 3, 71, 0
5, 126300, Note_on_c, 3, 69, 90
5, 126329, Note_on_c, 3, 69, 0
5, 126330, Note_on_c, 3, 72, 90
5, 126359, Note_on_c, 3, 72, 0
5, 126360, Note_on_c, 3, 71, 90
5, 126479, Note_on_c, 3, 71, 0
5, 126480, Note_on_c, 3, 62, 90
5, 126539, Note_on_c, 3, 62, 0
5, 126540, Note_on_c, 3, 64, 90
5, 126599, Note_on_c, 3, 64, 0
5, 126600, Note_on_c, 3, 64, 90
5, 126659, Note_on_c, 3, 64, 0
5, 126660, Note_on_c, 3, 66, 90
5, 126719, Note_on_c, 3, 66, 0
5, 126720, Note_on_c, 3, 66, 90
5, 126779, Note_on_c, 3, 66, 0
5, 126780, Note_on_c, 3, 67, 90
5, 126809, Note_on_c, 3, 67, 0
5, 126810, Note_on_c, 3, 66, 90
5, 126839, Note_on_c, 3, 66, 0
5, 126840, Note_on_c, 3, 67, 90
5, 126899, Note_on_c, 3, 67, 0
5, 126900, Note_on_c, 3, 62, 90
5, 126959, Note_on_c, 3, 62, 0
5, 126960, Note_on_c, 3, 62, 90
5, 127019, Note_on_c, 3, 62, 0
5, 127020, Note_on_c, 3, 64, 90
5, 127079, Note_on_c, 3, 64, 0
5, 127080, Note_on_c, 3, 64, 90
5, 127139, Note_on_c, 3, 64, 0
5, 127140, Note_on_c, 3, 65, 90
5, 127199, Note_on_c, 3, 65, 0
5, 127200, Note_on_c, 3, 65, 90
5, 127439, Note_on_c, 3, 65, 0
5, 127440, Note_on_c, 3, 64, 90
5, 127499, Note_on_c, 3, 64, 0
5, 127500, Note_on_c, 3, 69, 90
5, 127559, Note_on_c, 3, 69, 0
5, 127560, Note_on_c, 3, 69, 90
5, 127619, Note_on_c, 3, 69, 0
5, 127620, Note_on_c, 3, 72, 90
5, 127679, Note_on_c, 3, 72, 0
5, 127680, Note_on_c, 3, 72, 90
5, 127769, Note_on_c, 3, 72, 0
5, 127770, Note_on_c, 3, 74, 90
5, 127784, Note_on_c, 3, 74, 0
5, 127785, Note_on_c, 3, 76, 90
5, 127799, Note_on_c, 3, 76, 0
5, 127800, Note_on_c, 3, 74, 90
5, 127829, Note_on_c, 3, 74, 0
5, 127830, Note_on_c, 3, 72, 90
5, 127859, Note_on_c, 3, 72, 0
5, 127860, Note_on_c, 3, 71, 90
5, 127889, Note_on_c, 3, 71, 0
5, 127890, Note_on_c, 3, 69, 90
5, 127919, Note_on_c, 3, 69, 0
5, 127920, Note_on_c, 3, 67, 90
5, 127949, Note_on_c, 3, 67, 0
5, 127950, Note_on_c, 3, 66, 90
5, 127979, Note_on_c, 3, 66, 0
5, 127980, Note_on_c, 3, 67, 90
5, 128009, Note_on_c, 3, 67, 0
5, 128010, Note_on_c, 3, 72, 90
5, 128039, Note_on_c, 3, 72, 0
5, 128040, Note_on_c, 3, 69, 90
5, 128129, Note_on_c, 3, 69, 0
5, 128130, Note_on_c, 3, 67, 90
5, 128159, Note_on_c, 3, 67, 0
5, 128160, Note_on_c, 3, 67, 90
5, 128399, Note_on_c, 3, 67, 0
5, 138000, Note_on_c, 3, 71, 90
5, 138089, Note_on_c, 3, 71, 0
5, 138090, Note_on_c, 3, 72, 90
5, 138104, Note_on_c, 3, 72, 0
5, 138105, Note_on_c, 3, 74, 90
5, 138119, Note_on_c, 3, 74, 0
5, 138120, Note_on_c, 3, 72, 90
5, 138149, Note_on_c, 3, 72, 0
5, 138150, Note_on_c, 3, 71, 90
5, 138179, Note_on_c, 3, 71, 0
5, 138180, Note_on_c, 3, 69, 90
5, 138209, Note_on_c, 3, 69, 0
5, 138210, Note_on_c, 3, 67, 90
5, 138239, Note_on_c, 3, 67, 0
5, 138240, Note_on_c, 3, 69, 90
5, 138299, Note_on_c, 3, 69, 0
5, 138300, Note_on_c, 3, 66, 90
5, 138359, Note_on_c, 3, 66, 0
5, 138360, Note_on_c, 3, 67, 90
5, 138419, Note_on_c, 3, 67, 0
5, 138420, Note_on_c, 3, 62, 90
5, 138479, Note_on_c, 3, 62, 0
5, 138480, Note_on_c, 3, 71, 90
5, 138569, Note_on_c, 3, 71, 0
5, 138570, Note_on_c, 3, 72, 90
5, 138584, Note_on_c, 3, 72, 0
5, 138585, Note_on_c, 3, 74, 90
5, 138599, Note_on_c, 3, 74, 0
5, 138600, Note_on_c, 3, 72, 90
5, 138629, Note_on_c, 3, 72, 0
5, 138630, Note_on_c, 3, 71, 90
5, 138659, Note_on_c, 3, 71, 0
5, 138660, Note_on_c, 3, 69, 90
5, 138689, Note_on_c, 3, 69, 0
5, 138690, Note_on_c, 3, 67, 90
5, 138719, Note_on_c, 3, 67, 0
5, 138720, Note_on_c, 3, 72, 90
5, 138960, Note_on_c, 3, 72, 0
5, 138960, Note_on_c, 3, 69, 90
5, 139049, Note_on_c, 3, 69, 0
5, 139050, Note_on_c, 3, 71, 90
5, 139064, Note_on_c, 3, 71, 0
5, 139065, Note_on_c, 3, 72, 90
5, 139079, Note_on_c, 3, 72, 0
5, 139080, Note_on_c, 3, 72, 90
5, 139109, Note_on_c, 3, 72, 0
5, 139140, Note_on_c, 3, 72, 90
5, 139169, Note_on_c, 3, 72, 0
5, 139200, Note_on_c, 3, 76, 90
5, 139259, Note_on_c, 3, 76, 0
5, 139260, Note_on_c, 3, 72, 90
5, 139319, Note_on_c, 3, 72, 0
5, 139320, Note_on_c, 3, 72, 90
5, 139379, Note_on_c, 3, 72, 0
5, 139380, Note_on_c, 3, 69, 90
5, 139439, Note_on_c, 3, 69, 0
5, 139440, Note_on_c, 3, 69, 90
5, 139499, Note_on_c, 3, 69, 0
5, 139500, Note_on_c, 3, 71, 90
5, 139529, Note_on_c, 3, 71, 0
5, 139530, Note_on_c, 3, 72, 90
5, 139559, Note_on_c, 3, 72, 0
5, 139560, Note_on_c, 3, 74, 90
5, 139589, Note_on_c, 3, 74, 0
5, 139590, Note_on_c, 3, 72, 90
5, 139619, Note_on_c, 3, 72, 0
5, 139620, Note_on_c, 3, 71, 90
5, 139649, Note_on_c, 3, 71, 0
5, 139650, Note_on_c, 3, 74, 90
5, 139679, Note_on_c, 3, 74, 0
5, 139680, Note_on_c, 3, 72, 90
5, 139709, Note_on_c, 3, 72, 0
5, 139710, Note_on_c, 3, 71, 90
5, 139739, Note_on_c, 3, 71, 0
5, 139740, Note_on_c, 3, 69, 90
5, 139769, Note_on_c, 3, 69, 0
5, 139770, Note_on_c, 3, 72, 90
5, 139799, Note_on_c, 3, 72, 0
5, 139800, Note_on_c, 3, 71, 90
5, 139919, Note_on_c, 3, 71, 0
5, 139920, Note_on_c, 3, 62, 90
5, 139979, Note_on_c, 3, 62, 0
5, 139980, Note_on_c, 3, 64, 90
5, 140039, Note_on_c, 3, 64, 0
5, 140040, Note_on_c, 3, 64, 90
5, 140099, Note_on_c, 3, 64, 0
5, 140100, Note_on_c, 3, 66, 90
5, 140159, Note_on_c, 3, 66, 0
5, 140160, Note_on_c, 3, 66, 90
5, 140219, Note_on_c, 3, 66, 0
5, 140220, Note_on_c, 3, 67, 90
5, 140249, Note_on_c, 3, 67, 0
5, 140250, Note_on_c, 3, 66, 90
5, 140279, Note_on_c, 3, 66, 0
5, 140280, Note_on_c, 3, 67, 90
5, 140339, Note_on_c, 3, 67, 0
5, 140340, Note_on_c, 3, 62, 90
5, 140399, Note_on_c, 3, 62, 0
5, 140400, Note_on_c, 3, 62, 90
5, 140459, Note_on_c, 3, 62, 0
5, 140460, Note_on_c, 3, 64, 90
5, 140519, Note_on_c, 3, 64, 0
5, 140520, Note_on_c, 3, 64, 90
5, 140579, Note_on_c, 3, 64, 0
5, 140580, Note_on_c, 3, 65, 90
5, 140639, Note_on_c, 3, 65, 0
5, 140640, Note_on_c, 3, 65, 90
5, 140879, Note_on_c, 3, 65, 0
5, 140880, Note_on_c, 3, 64, 90
5, 140939, Note_on_c, 3, 64, 0
5, 140940, Note_on_c, 3, 69, 90
5, 140999, Note_on_c, 3, 69, 0
5, 141000, Note_on_c, 3, 69, 90
5, 141059, Note_on_c, 3, 69, 0
5, 141060, Note_on_c, 3, 72, 90
5, 141119, Note_on_c, 3, 72, 0
5, 141120, Note_on_c, 3, 72, 90
5, 141179, Note_on_c, 3, 72, 0
5, 141180, Note_on_c, 3, 74, 90
5, 141209, Note_on_c, 3, 74, 0
5, 141210, Note_on_c, 3, 76, 90
5, 141239, Note_on_c, 3, 76, 0
5, 141240, Note_on_c, 3, 74, 90
5, 141269, Note_on_c, 3, 74, 0
5, 141270, Note_on_c, 3, 72, 90
5, 141299, Note_on_c, 3, 72, 0
5, 141300, Note_on_c, 3, 71, 90
5, 141329, Note_on_c, 3, 71, 0
5, 141330, Note_on_c, 3, 69, 90
5, 141359, Note_on_c, 3, 69, 0
5, 141360, Note_on_c, 3, 67, 90
5, 141389, Note_on_c, 3, 67, 0
5, 141390, Note_on_c, 3, 66, 90
5, 141419, Note_on_c, 3, 66, 0
5, 141420, Note_on_c, 3, 67, 90
5, 141449, Note_on_c, 3, 67, 0
5, 141450, Note_on_c, 3, 72, 90
5, 141479, Note_on_c, 3, 72, 0
5, 141480, Note_on_c, 3, 69, 90
5, 141569, Note_on_c, 3, 69, 0
5, 141570, Note_on_c, 3, 67, 90
5, 141599, Note_on_c, 3, 67, 0
5, 141600, Note_on_c, 3, 67, 90
5, 141659, Note_on_c, 3, 67, 0
5, 141660, Note_on_c, 3, 73, 90
5, 141779, Note_on_c, 3, 73, 0
5, 141780, Note_on_c, 3, 74, 90
5, 141809, Note_on_c, 3, 74, 0
5, 141810, Note_on_c, 3, 76, 90
5, 141839, Note_on_c, 3, 76, 0
5, 141840, Note_on_c, 3, 74, 90
5, 141899, Note_on_c, 3, 74, 0
5, 141900, Note_on_c, 3, 67, 90
5, 141959, Note_on_c, 3, 67, 0
5, 141960, Note_on_c, 3, 66, 90
5, 142019, Note_on_c, 3, 66, 0
5, 142020, Note_on_c, 3, 69, 90
5, 142079, Note_on_c, 3, 69, 0
5, 142080, Note_on_c, 3, 72, 90
5, 142139, Note_on_c, 3, 72, 0
5, 142140, Note_on_c, 3, 78, 90
5, 142259, Note_on_c, 3, 78, 0
5, 142260, Note_on_c, 3, 79, 90
5, 142289, Note_on_c, 3, 79, 0
5, 142290, Note_on_c, 3, 81, 90
5, 142319, Note_on_c, 3, 81, 0
5, 142320, Note_on_c, 3, 79, 90
5, 142379, Note_on_c, 3, 79, 0
5, 142380, Note_on_c, 3, 72, 90
5, 142439, Note_on_c, 3, 72, 0
5, 142440, Note_on_c, 3, 71, 90
5, 142499, Note_on_c, 3, 71, 0
5, 142500, Note_on_c, 3, 74, 90
5, 142559, Note_on_c, 3, 74, 0
5, 142560, Note_on_c, 3, 77, 90
5, 142619, Note_on_c, 3, 77, 0
5, 142620, Note_on_c, 3, 76, 90
5, 142739, Note_on_c, 3, 76, 0
5, 142740, Note_on_c, 3, 74, 90
5, 142859, Note_on_c, 3, 74, 0
5, 142860, Note_on_c, 3, 72, 90
5, 142979, Note_on_c, 3, 72, 0
5, 142980, Note_on_c, 3, 70, 90
5, 143099, Note_on_c, 3, 70, 0
5, 143100, Note_on_c, 3, 69, 90
5, 143219, Note_on_c, 3, 69, 0
5, 143220, Note_on_c, 3, 67, 90
5, 143339, Note_on_c, 3, 67, 0
5, 143340, Note_on_c, 3, 66, 90
5, 143459, Note_on_c, 3, 66, 0
5, 143460, Note_on_c, 3, 63, 90
5, 143579, Note_on_c, 3, 63, 0
5, 143580, Note_on_c, 3, 62, 90
5, 143699, Note_on_c, 3, 62, 0
5, 143700, Note_on_c, 3, 60, 90
5, 143819, Note_on_c, 3, 60, 0
5, 143820, Note_on_c, 3, 59, 90
5, 143939, Note_on_c, 3, 59, 0
5, 143940, Note_on_c, 3, 60, 90
5, 143999, Note_on_c, 3, 60, 0
5, 144000, Note_on_c, 3, 62, 90
5, 144059, Note_on_c, 3, 62, 0
5, 144060, Note_on_c, 3, 64, 90
5, 144089, Note_on_c, 3, 64, 0
5, 144090, Note_on_c, 3, 62, 90
5, 144119, Note_on_c, 3, 62, 0
5, 144120, Note_on_c, 3, 60, 90
5, 144149, Note_on_c, 3, 60, 0
5, 144150, Note_on_c, 3, 59, 90
5, 144179, Note_on_c, 3, 59, 0
5, 144180, Note_on_c, 3, 57, 90
5, 144209, Note_on_c, 3, 57, 0
5, 144210, Note_on_c, 3, 69, 90
5, 144239, Note_on_c, 3, 69, 0
5, 144240, Note_on_c, 3, 67, 90
5, 144269, Note_on_c, 3, 67, 0
5, 144270, Note_on_c, 3, 66, 90
5, 144299, Note_on_c, 3, 66, 0
5, 144300, Note_on_c, 3, 64, 90
5, 144329, Note_on_c, 3, 64, 0
5, 144330, Note_on_c, 3, 62, 90
5, 144359, Note_on_c, 3, 62, 0
5, 144360, Note_on_c, 3, 72, 90
5, 144389, Note_on_c, 3, 72, 0
5, 144420, Note_on_c, 3, 71, 90
5, 144449, Note_on_c, 3, 71, 0
5, 144480, Note_on_c, 3, 69, 90
5, 144539, Note_on_c, 3, 69, 0
5, 144540, Note_on_c, 3, 67, 90
5, 144599, Note_on_c, 3, 67, 0
5, 151260, Note_on_c, 3, 68, 90
5, 151379, Note_on_c, 3, 68, 0
5, 151380, Note_on_c, 3, 69, 90
5, 151409, Note_on_c, 3, 69, 0
5, 151410, Note_on_c, 3, 71, 90
5, 151439, Note_on_c, 3, 71, 0
5, 151440, Note_on_c, 3, 69, 90
5, 151499, Note_on_c, 3, 69, 0
5, 151500, Note_on_c, 3, 62, 90
5, 151559, Note_on_c, 3, 62, 0
5, 151560, Note_on_c, 3, 61, 90
5, 151619, Note_on_c, 3, 61, 0
5, 151620, Note_on_c, 3, 64, 90
5, 151679, Note_on_c, 3, 64, 0
5, 151680, Note_on_c, 3, 67, 90
5, 151739, Note_on_c, 3, 67, 0
5, 151740, Note_on_c, 3, 73, 90
5, 151859, Note_on_c, 3, 73, 0
5, 151860, Note_on_c, 3, 74, 90
5, 151889, Note_on_c, 3, 74, 0
5, 151890, Note_on_c, 3, 76, 90
5, 151919, Note_on_c, 3, 76, 0
5, 151920, Note_on_c, 3, 74, 90
5, 151979, Note_on_c, 3, 74, 0
5, 151980, Note_on_c, 3, 67, 90
5, 152039, Note_on_c, 3, 67, 0
5, 152040, Note_on_c, 3, 66, 90
5, 152099, Note_on_c, 3, 66, 0
5, 152100, Note_on_c, 3, 69, 90
5, 152159, Note_on_c, 3, 69, 0
5, 152160, Note_on_c, 3, 72, 90
5, 152219, Note_on_c, 3, 72, 0
5, 152220, Note_on_c, 3, 71, 90
5, 152339, Note_on_c, 3, 71, 0
5, 152340, Note_on_c, 3, 69, 90
5, 152459, Note_on_c, 3, 69, 0
5, 152460, Note_on_c, 3, 67, 90
5, 152579, Note_on_c, 3, 67, 0
5, 152580, Note_on_c, 3, 77, 90
5, 152699, Note_on_c, 3, 77, 0
5, 152700, Note_on_c, 3, 76, 90
5, 152819, Note_on_c, 3, 76, 0
5, 152820, Note_on_c, 3, 74, 90
5, 152939, Note_on_c, 3, 74, 0
5, 152940, Note_on_c, 3, 73, 90
5, 153059, Note_on_c, 3, 73, 0
5, 153060, Note_on_c, 3, 70, 90
5, 153179, Note_on_c, 3, 70, 0
5, 153180, Note_on_c, 3, 69, 90
5, 153299, Note_on_c, 3, 69, 0
5, 153300, Note_on_c, 3, 67, 90
5, 153419, Note_on_c, 3, 67, 0
5, 153420, Note_on_c, 3, 66, 90
5, 153539, Note_on_c, 3, 66, 0
5, 153540, Note_on_c, 3, 67, 90
5, 153599, Note_on_c, 3, 67, 0
5, 153600, Note_on_c, 3, 69, 90
5, 153659, Note_on_c, 3, 69, 0
5, 153660, Note_on_c, 3, 71, 90
5, 153689, Note_on_c, 3, 71, 0
5, 153690, Note_on_c, 3, 69, 90
5, 153719, Note_on_c, 3, 69, 0
5, 153720, Note_on_c, 3, 67, 90
5, 153749, Note_on_c, 3, 67, 0
5, 153750, Note_on_c, 3, 66, 90
5, 153779, Note_on_c, 3, 66, 0
5, 153780, Note_on_c, 3, 64, 90
5, 153809, Note_on_c, 3, 64, 0
5, 153810, Note_on_c, 3, 76, 90
5, 153839, Note_on_c, 3, 76, 0
5, 153840, Note_on_c, 3, 74, 90
5, 153869, Note_on_c, 3, 74, 0
5, 153870, Note_on_c, 3, 73, 90
5, 153899, Note_on_c, 3, 73, 0
5, 153900, Note_on_c, 3, 71, 90
5, 153929, Note_on_c, 3, 71, 0
5, 153930, Note_on_c, 3, 69, 90
5, 153959, Note_on_c, 3, 69, 0
5, 153960, Note_on_c, 3, 79, 90
5, 153989, Note_on_c, 3, 79, 0
5, 154020, Note_on_c, 3, 78, 90
5, 154049, Note_on_c, 3, 78, 0
5, 154080, Note_on_c, 3, 76, 90
5, 154109, Note_on_c, 3, 76, 0
5, 154110, Note_on_c, 3, 74, 90
5, 154139, Note_on_c, 3, 74, 0
5, 154140, Note_on_c, 3, 73, 90
5, 154169, Note_on_c, 3, 73, 0
5, 154170, Note_on_c, 3, 71, 90
5, 154199, Note_on_c, 3, 71, 0
5, 154200, Note_on_c, 3, 69, 90
5, 154229, Note_on_c, 3, 69, 0
5, 154230, Note_on_c, 3, 67, 90
5, 154259, Note_on_c, 3, 67, 0
5, 154260, Note_on_c, 3, 66, 90
5, 154289, Note_on_c, 3, 66, 0
5, 154290, Note_on_c, 3, 64, 90
5, 154319, Note_on_c, 3, 64, 0
5, 161040, Note_on_c, 3, 71, 90
5, 161129, Note_on_c, 3, 71, 0
5, 161130, Note_on_c, 3, 72, 90
5, 161144, Note_on_c, 3, 72, 0
5, 161145, Note_on_c, 3, 74, 90
5, 161159, Note_on_c, 3, 74, 0
5, 161160, Note_on_c, 3, 72, 90
5, 161189, Note_on_c, 3, 72, 0
5, 161190, Note_on_c, 3, 71, 90
5, 161219, Note_on_c, 3, 71, 0
5, 161220, Note_on_c, 3, 69, 90
5, 161249, Note_on_c, 3, 69, 0
5, 161250, Note_on_c, 3, 67, 90
5, 161279, Note_on_c, 3, 67, 0
5, 161280, Note_on_c, 3, 69, 90
5, 161339, Note_on_c, 3, 69, 0
5, 161340, Note_on_c, 3, 66, 90
5, 161399, Note_on_c, 3, 66, 0
5, 161400, Note_on_c, 3, 67, 90
5, 161459, Note_on_c, 3, 67, 0
5, 161460, Note_on_c, 3, 62, 90
5, 161519, Note_on_c, 3, 62, 0
5, 161520, Note_on_c, 3, 71, 90
5, 161609, Note_on_c, 3, 71, 0
5, 161610, Note_on_c, 3, 72, 90
5, 161624, Note_on_c, 3, 72, 0
5, 161625, Note_on_c, 3, 74, 90
5, 161639, Note_on_c, 3, 74, 0
5, 161640, Note_on_c, 3, 72, 90
5, 161669, Note_on_c, 3, 72, 0
5, 161670, Note_on_c, 3, 71, 90
5, 161699, Note_on_c, 3, 71, 0
5, 161700, Note_on_c, 3, 69, 90
5, 161729, Note_on_c, 3, 69, 0
5, 161730, Note_on_c, 3, 67, 90
5, 161759, Note_on_c, 3, 67, 0
5, 161760, Note_on_c, 3, 72, 90
5, 161999, Note_on_c, 3, 72, 0
5, 162000, Note_on_c, 3, 69, 90
5, 162089, Note_on_c, 3, 69, 0
5, 162090, Note_on_c, 3, 71, 90
5, 162104, Note_on_c, 3, 71, 0
5, 162105, Note_on_c, 3, 72, 90
5, 162119, Note_on_c, 3, 72, 0
5, 162120, Note_on_c, 3, 72, 90
5, 162149, Note_on_c, 3, 72, 0
5, 162180, Note_on_c, 3, 72, 90
5, 162209, Note_on_c, 3, 72, 0
5, 162240, Note_on_c, 3, 76, 90
5, 162299, Note_on_c, 3, 76, 0
5, 162300, Note_on_c, 3, 72, 90
5, 162359, Note_on_c, 3, 72, 0
5, 162360, Note_on_c, 3, 72, 90
5, 162419, Note_on_c, 3, 72, 0
5, 162420, Note_on_c, 3, 69, 90
5, 162479, Note_on_c, 3, 69, 0
5, 162480, Note_on_c, 3, 69, 90
5, 162539, Note_on_c, 3, 69, 0
5, 162540, Note_on_c, 3, 71, 90
5, 162569, Note_on_c, 3, 71, 0
5, 162570, Note_on_c, 3, 72, 90
5, 162599, Note_on_c, 3, 72, 0
5, 162600, Note_on_c, 3, 74, 90
5, 162629, Note_on_c, 3, 74, 0
5, 162630, Note_on_c, 3, 72, 90
5, 162659, Note_on_c, 3, 72, 0
5, 162660, Note_on_c, 3, 71, 90
5, 162689, Note_on_c, 3, 71, 0
5, 162690, Note_on_c, 3, 74, 90
5, 162719, Note_on_c, 3, 74, 0
5, 162720, Note_on_c, 3, 72, 90
5, 162749, Note_on_c, 3, 72, 0
5, 162750, Note_on_c, 3, 71, 90
5, 162779, Note_on_c, 3, 71, 0
5, 162780, Note_on_c, 3, 69, 90
5, 162809, Note_on_c, 3, 69, 0
5, 162810, Note_on_c, 3, 72, 90
5, 162839, Note_on_c, 3, 72, 0
5, 162840, Note_on_c, 3, 71, 90
5, 162959, Note_on_c, 3, 71, 0
5, 162960, Note_on_c, 3, 62, 90
5, 163019, Note_on_c, 3, 62, 0
5, 163020, Note_on_c, 3, 64, 90
5, 163079, Note_on_c, 3, 64, 0
5, 163080, Note_on_c, 3, 64, 90
5, 163139, Note_on_c, 3, 64, 0
5, 163140, Note_on_c, 3, 66, 90
5, 163199, Note_on_c, 3, 66, 0
5, 163200, Note_on_c, 3, 66, 90
5, 163259, Note_on_c, 3, 66, 0
5, 163260, Note_on_c, 3, 67, 90
5, 163289, Note_on_c, 3, 67, 0
5, 163290, Note_on_c, 3, 66, 90
5, 163319, Note_on_c, 3, 66, 0
5, 163320, Note_on_c, 3, 67, 90
5, 163379, Note_on_c, 3, 67, 0
5, 163380, Note_on_c, 3, 62, 90
5, 163439, Note_on_c, 3, 62, 0
5, 163440, Note_on_c, 3, 62, 90
5, 163499, Note_on_c, 3, 62, 0
5, 163500, Note_on_c, 3, 64, 90
5, 163559, Note_on_c, 3, 64, 0
5, 163560, Note_on_c, 3, 64, 90
5, 163619, Note_on_c, 3, 64, 0
5, 163620, Note_on_c, 3, 65, 90
5, 163679, Note_on_c, 3, 65, 0
5, 163680, Note_on_c, 3, 65, 90
5, 163919, Note_on_c, 3, 65, 0
5, 163920, Note_on_c, 3, 64, 90
5, 163979, Note_on_c, 3, 64, 0
5, 163980, Note_on_c, 3, 69, 90
5, 164039, Note_on_c, 3, 69, 0
5, 164040, Note_on_c, 3, 69, 90
5, 164099, Note_on_c, 3, 69, 0
5, 164100, Note_on_c, 3, 72, 90
5, 164159, Note_on_c, 3, 72, 0
5, 164160, Note_on_c, 3, 72, 90
5, 164249, Note_on_c, 3, 72, 0
5, 164250, Note_on_c, 3, 74, 90
5, 164264, Note_on_c, 3, 74, 0
5, 164265, Note_on_c, 3, 76, 90
5, 164279, Note_on_c, 3, 76, 0
5, 164280, Note_on_c, 3, 74, 90
5, 164309, Note_on_c, 3, 74, 0
5, 164310, Note_on_c, 3, 72, 90
5, 164339, Note_on_c, 3, 72, 0
5, 164340, Note_on_c, 3, 71, 90
5, 164369, Note_on_c, 3, 71, 0
5, 164370, Note_on_c, 3, 69, 90
5, 164399, Note_on_c, 3, 69, 0
5, 164400, Note_on_c, 3, 67, 90
5, 164429, Note_on_c, 3, 67, 0
5, 164430, Note_on_c, 3, 66, 90
5, 164459, Note_on_c, 3, 66, 0
5, 164460, Note_on_c, 3, 67, 90
5, 164489, Note_on_c, 3, 67, 0
5, 164490, Note_on_c, 3, 72, 90
5, 164519, Note_on_c, 3, 72, 0
5, 164520, Note_on_c, 3, 69, 90
5, 164609, Note_on_c, 3, 69, 0
5, 164610, Note_on_c, 3, 67, 90
5, 164639, Note_on_c, 3, 67, 0
5, 164640, Note_on_c, 3, 67, 90
5, 164879, Note_on_c, 3, 67, 0
5, 167280, Note_on_c, 3, 74, 90
5, 167340, Note_on_c, 3, 74, 0
5, 167460, Note_on_c, 3, 74, 90
5, 167490, Note_on_c, 3, 74, 0
5, 167520, Note_on_c, 3, 72, 90
5, 167550, Note_on_c, 3, 72, 0
5, 167700, Note_on_c, 3, 72, 90
5, 167730, Note_on_c, 3, 72, 0
5, 167760, Note_on_c, 3, 71, 90
5, 167790, Note_on_c, 3, 71, 0
5, 167940, Note_on_c, 3, 71, 90
5, 167970, Note_on_c, 3, 71, 0
5, 168000, Note_on_c, 3, 64, 90
5, 168030, Note_on_c, 3, 64, 0
5, 168180, Note_on_c, 3, 67, 90
5, 168210, Note_on_c, 3, 67, 0
5, 168240, Note_on_c, 3, 74, 90
5, 168270, Note_on_c, 3, 74, 0
5, 168420, Note_on_c, 3, 74, 90
5, 168450, Note_on_c, 3, 74, 0
5, 168480, Note_on_c, 3, 67, 90
5, 168510, Note_on_c, 3, 67, 0
5, 168660, Note_on_c, 3, 76, 90
5, 168690, Note_on_c, 3, 76, 0
5, 168720, Note_on_c, 3, 69, 90
5, 168750, Note_on_c, 3, 69, 0
5, 168900, Note_on_c, 3, 78, 90
5, 168930, Note_on_c, 3, 78, 0
5, 168960, Note_on_c, 3, 71, 90
5, 168990, Note_on_c, 3, 71, 0
5, 169140, Note_on_c, 3, 74, 90
5, 169170, Note_on_c, 3, 74, 0
5, 169200, Note_on_c, 3, 76, 90
5, 169230, Note_on_c, 3, 76, 0
5, 169380, Note_on_c, 3, 74, 90
5, 169410, Note_on_c, 3, 74, 0
5, 169440, Note_on_c, 3, 74, 90
5, 169470, Note_on_c, 3, 74, 0
5, 169620, Note_on_c, 3, 73, 90
5, 169650, Note_on_c, 3, 73, 0
5, 169680, Note_on_c, 3, 73, 90
5, 169710, Note_on_c, 3, 73, 0
5, 169860, Note_on_c, 3, 71, 90
5, 169890, Note_on_c, 3, 71, 0
5, 169920, Note_on_c, 3, 69, 90
5, 169950, Note_on_c, 3, 69, 0
5, 170100, Note_on_c, 3, 74, 90
5, 170130, Note_on_c, 3, 74, 0
5, 170160, Note_on_c, 3, 74, 90
5, 170190, Note_on_c, 3, 74, 0
5, 170340, Note_on_c, 3, 69, 90
5, 170370, Note_on_c, 3, 69, 0
5, 170400, Note_on_c, 3, 69, 90
5, 170430, Note_on_c, 3, 69, 0
5, 170580, Note_on_c, 3, 71, 90
5, 170610, Note_on_c, 3, 71, 0
5, 170640, Note_on_c, 3, 71, 90
5, 170670, Note_on_c, 3, 71, 0
5, 170820, Note_on_c, 3, 69, 90
5, 170850, Note_on_c, 3, 69, 0
5, 170880, Note_on_c, 3, 62, 90
5, 170910, Note_on_c, 3, 62, 0
5, 171060, Note_on_c, 3, 69, 90
5, 171090, Note_on_c, 3, 69, 0
5, 171120, Note_on_c, 3, 69, 90
5, 171150, Note_on_c, 3, 69, 0
5, 171300, Note_on_c, 3, 78, 90
5, 171330, Note_on_c, 3, 78, 0
5, 171360, Note_on_c, 3, 76, 90
5, 171390, Note_on_c, 3, 76, 0
5, 171540, Note_on_c, 3, 76, 90
5, 171570, Note_on_c, 3, 76, 0
5, 171600, Note_on_c, 3, 81, 90
5, 171630, Note_on_c, 3, 81, 0
5, 171780, Note_on_c, 3, 69, 90
5, 171810, Note_on_c, 3, 69, 0
5, 171840, Note_on_c, 3, 67, 90
5, 171870, Note_on_c, 3, 67, 0
5, 172020, Note_on_c, 3, 71, 90
5, 172050, Note_on_c, 3, 71, 0
5, 172080, Note_on_c, 3, 76, 90
5, 172110, Note_on_c, 3, 76, 0
5, 172260, Note_on_c, 3, 76, 90
5, 172290, Note_on_c, 3, 76, 0
5, 172320, Note_on_c, 3, 69, 90
5, 172350, Note_on_c, 3, 69, 0
5, 172500, Note_on_c, 3, 78, 90
5, 172530, Note_on_c, 3, 78, 0
5, 172560, Note_on_c, 3, 76, 90
5, 172590, Note_on_c, 3, 76, 0
5, 172740, Note_on_c, 3, 74, 90
5, 172770, Note_on_c, 3, 74, 0
5, 172800, Note_on_c, 3, 72, 90
5, 172830, Note_on_c, 3, 72, 0
5, 172980, Note_on_c, 3, 72, 90
5, 173010, Note_on_c, 3, 72, 0
5, 173040, Note_on_c, 3, 71, 90
5, 173070, Note_on_c, 3, 71, 0
5, 173220, Note_on_c, 3, 76, 90
5, 173250, Note_on_c, 3, 76, 0
5, 173280, Note_on_c, 3, 78, 90
5, 173310, Note_on_c, 3, 78, 0
5, 173460, Note_on_c, 3, 71, 90
5, 173490, Note_on_c, 3, 71, 0
5, 173520, Note_on_c, 3, 71, 90
5, 173550, Note_on_c, 3, 71, 0
5, 173700, Note_on_c, 3, 72, 90
5, 173730, Note_on_c, 3, 72, 0
5, 173760, Note_on_c, 3, 71, 90
5, 173790, Note_on_c, 3, 71, 0
5, 173940, Note_on_c, 3, 76, 90
5, 173970, Note_on_c, 3, 76, 0
5, 174000, Note_on_c, 3, 69, 90
5, 174030, Note_on_c, 3, 69, 0
5, 174180, Note_on_c, 3, 69, 90
5, 174210, Note_on_c, 3, 69, 0
5, 174240, Note_on_c, 3, 67, 90
5, 174270, Note_on_c, 3, 67, 0
5, 174420, Note_on_c, 3, 71, 90
5, 174450, Note_on_c, 3, 71, 0
5, 174480, Note_on_c, 3, 72, 90
5, 174510, Note_on_c, 3, 72, 0
5, 174660, Note_on_c, 3, 71, 90
5, 174690, Note_on_c, 3, 71, 0
5, 174720, Note_on_c, 3, 76, 90
5, 174750, Note_on_c, 3, 76, 0
5, 174900, Note_on_c, 3, 75, 90
5, 174930, Note_on_c, 3, 75, 0
5, 174960, Note_on_c, 3, 71, 90
5, 174990, Note_on_c, 3, 71, 0
5, 175140, Note_on_c, 3, 76, 90
5, 175170, Note_on_c, 3, 76, 0
5, 175200, Note_on_c, 3, 69, 90
5, 175230, Note_on_c, 3, 69, 0
5, 175380, Note_on_c, 3, 74, 90
5, 175410, Note_on_c, 3, 74, 0
5, 175440, Note_on_c, 3, 74, 90
5, 175470, Note_on_c, 3, 74, 0
5, 175620, Note_on_c, 3, 71, 90
5, 175650, Note_on_c, 3, 71, 0
5, 175680, Note_on_c, 3, 71, 90
5, 175710, Note_on_c, 3, 71, 0
5, 175860, Note_on_c, 3, 69, 90
5, 175890, Note_on_c, 3, 69, 0
5, 175920, Note_on_c, 3, 69, 90
5, 175950, Note_on_c, 3, 69, 0
5, 176100, Note_on_c, 3, 69, 90
5, 176130, Note_on_c, 3, 69, 0
5, 176160, Note_on_c, 3, 67, 90
5, 176190, Note_on_c, 3, 67, 0
5, 176340, Note_on_c, 3, 71, 90
5, 176370, Note_on_c, 3, 71, 0
5, 176400, Note_on_c, 3, 69, 90
5, 176430, Note_on_c, 3, 69, 0
5, 176580, Note_on_c, 3, 69, 90
5, 176610, Note_on_c, 3, 69, 0
5, 176640, Note_on_c, 3, 67, 90
5, 176670, Note_on_c, 3, 67, 0
5, 176820, Note_on_c, 3, 76, 90
5, 176850, Note_on_c, 3, 76, 0
5, 176880, Note_on_c, 3, 78, 90
5, 176910, Note_on_c, 3, 78, 0
5, 177060, Note_on_c, 3, 74, 90
5, 177090, Note_on_c, 3, 74, 0
5, 177120, Note_on_c, 3, 76, 90
5, 177150, Note_on_c, 3, 76, 0
5, 177300, Note_on_c, 3, 73, 90
5, 177330, Note_on_c, 3, 73, 0
5, 177360, Note_on_c, 3, 73, 90
5, 177390, Note_on_c, 3, 73, 0
5, 177540, Note_on_c, 3, 71, 90
5, 177570, Note_on_c, 3, 71, 0
5, 177600, Note_on_c, 3, 73, 90
5, 177630, Note_on_c, 3, 73, 0
5, 177780, Note_on_c, 3, 71, 90
5, 177810, Note_on_c, 3, 71, 0
5, 177840, Note_on_c, 3, 71, 90
5, 177870, Note_on_c, 3, 71, 0
5, 178020, Note_on_c, 3, 66, 90
5, 178050, Note_on_c, 3, 66, 0
5, 178080, Note_on_c, 3, 66, 90
5, 178110, Note_on_c, 3, 66, 0
5, 178260, Note_on_c, 3, 66, 90
5, 178290, Note_on_c, 3, 66, 0
5, 178320, Note_on_c, 3, 67, 90
5, 178350, Note_on_c, 3, 67, 0
5, 178500, Note_on_c, 3, 66, 90
5, 178530, Note_on_c, 3, 66, 0
5, 178560, Note_on_c, 3, 64, 90
5, 178590, Note_on_c, 3, 64, 0
5, 178740, Note_on_c, 3, 64, 90
5, 178799, Note_on_c, 3, 64, 0
5, 178800, Note_on_c, 3, 63, 90
5, 178919, Note_on_c, 3, 63, 0
5, 178920, Note_on_c, 3, 71, 90
5, 179159, Note_on_c, 3, 71, 0
5, 179160, Note_on_c, 3, 69, 90
5, 179399, Note_on_c, 3, 69, 0
5, 179400, Note_on_c, 3, 67, 90
5, 179519, Note_on_c, 3, 67, 0
5, 179520, Note_on_c, 3, 66, 90
5, 179759, Note_on_c, 3, 66, 0
5, 179760, Note_on_c, 3, 64, 90
5, 179999, Note_on_c, 3, 64, 0
5, 180000, Note_on_c, 3, 65, 90
5, 180239, Note_on_c, 3, 65, 0
5, 180240, Note_on_c, 3, 64, 90
5, 180479, Note_on_c, 3, 64, 0
5, 180480, Note_on_c, 3, 62, 90
5, 180719, Note_on_c, 3, 62, 0
5, 180720, Note_on_c, 3, 60, 90
5, 180839, Note_on_c, 3, 60, 0
5, 180840, Note_on_c, 3, 69, 90
5, 181079, Note_on_c, 3, 69, 0
5, 181080, Note_on_c, 3, 67, 90
5, 181319, Note_on_c, 3, 67, 0
5, 181320, Note_on_c, 3, 65, 90
5, 181439, Note_on_c, 3, 65, 0
5, 181440, Note_on_c, 3, 64, 90
5, 181499, Note_on_c, 3, 64, 0
5, 181500, Note_on_c, 3, 69, 90
5, 181619, Note_on_c, 3, 69, 0
5, 181620, Note_on_c, 3, 67, 90
5, 181679, Note_on_c, 3, 67, 0
5, 181680, Note_on_c, 3, 65, 90
5, 181799, Note_on_c, 3, 65, 0
5, 181800, Note_on_c, 3, 69, 90
5, 181919, Note_on_c, 3, 69, 0
5, 181920, Note_on_c, 3, 71, 90
5, 182159, Note_on_c, 3, 71, 0
5, 182160, Note_on_c, 3, 67, 90
5, 182399, Note_on_c, 3, 67, 0
5, 182400, Note_on_c, 3, 72, 90
5, 182639, Note_on_c, 3, 72, 0
5, 182640, Note_on_c, 3, 66, 90
5, 182879, Note_on_c, 3, 66, 0
5, 182880, Note_on_c, 3, 71, 90
5, 183359, Note_on_c, 3, 71, 0
5, 183360, Note_on_c, 3, 69, 90
5, 184079, Note_on_c, 3, 69, 0
5, 184080, Note_on_c, 3, 71, 90
5, 184559, Note_on_c, 3, 71, 0
5, 184560, Note_on_c, 3, 73, 90
5, 185039, Note_on_c, 3, 73, 0
5, 185040, Note_on_c, 3, 74, 90
5, 185519, Note_on_c, 3, 74, 0
5, 185520, Note_on_c, 3, 76, 90
5, 185999, Note_on_c, 3, 76, 0
5, 186000, Note_on_c, 3, 78, 90
5, 186479, Note_on_c, 3, 78, 0
5, 186480, Note_on_c, 3, 76, 90
5, 187199, Note_on_c, 3, 76, 0
5, 187200, Note_on_c, 3, 74, 90
5, 187319, Note_on_c, 3, 74, 0
5, 187320, Note_on_c, 3, 69, 90
5, 187679, Note_on_c, 3, 69, 0
5, 187680, Note_on_c, 3, 71, 90
5, 187919, Note_on_c, 3, 71, 0
5, 187920, Note_on_c, 3, 72, 90
5, 188639, Note_on_c, 3, 72, 0
5, 188640, Note_on_c, 3, 71, 90
5, 189240, Note_on_c, 3, 71, 0
5, 189240, Note_on_c, 3, 76, 90
5, 189359, Note_on_c, 3, 76, 0
5, 189360, Note_on_c, 3, 72, 90
5, 189599, Note_on_c, 3, 72, 0
5, 189600, Note_on_c, 3, 74, 90
5, 190319, Note_on_c, 3, 74, 0
5, 190320, Note_on_c, 3, 72, 90
5, 190439, Note_on_c, 3, 72, 0
5, 190440, Note_on_c, 3, 67, 90
5, 190500, Note_on_c, 3, 67, 0
5, 190620, Note_on_c, 3, 67, 90
5, 190650, Note_on_c, 3, 67, 0
5, 190680, Note_on_c, 3, 67, 90
5, 190710, Note_on_c, 3, 67, 0
5, 190860, Note_on_c, 3, 71, 90
5, 190890, Note_on_c, 3, 71, 0
5, 190920, Note_on_c, 3, 72, 90
5, 190950, Note_on_c, 3, 72, 0
5, 191100, Note_on_c, 3, 71, 90
5, 191130, Note_on_c, 3, 71, 0
5, 191160, Note_on_c, 3, 72, 90
5, 191190, Note_on_c, 3, 72, 0
5, 191340, Note_on_c, 3, 72, 90
5, 191370, Note_on_c, 3, 72, 0
5, 191400, Note_on_c, 3, 67, 90
5, 191430, Note_on_c, 3, 67, 0
5, 191580, Note_on_c, 3, 67, 90
5, 191610, Note_on_c, 3, 67, 0
5, 191640, Note_on_c, 3, 76, 90
5, 191670, Note_on_c, 3, 76, 0
5, 191820, Note_on_c, 3, 78, 90
5, 191850, Note_on_c, 3, 78, 0
5, 191880, Note_on_c, 3, 71, 90
5, 191910, Note_on_c, 3, 71, 0
5, 192060, Note_on_c, 3, 79, 90
5, 192090, Note_on_c, 3, 79, 0
5, 192120, Note_on_c, 3, 81, 90
5, 192150, Note_on_c, 3, 81, 0
5, 192300, Note_on_c, 3, 78, 90
5, 192330, Note_on_c, 3, 78, 0
5, 192360, Note_on_c, 3, 74, 90
5, 192390, Note_on_c, 3, 74, 0
5, 192540, Note_on_c, 3, 76, 90
5, 192570, Note_on_c, 3, 76, 0
5, 192600, Note_on_c, 3, 74, 90
5, 192630, Note_on_c, 3, 74, 0
5, 192780, Note_on_c, 3, 78, 90
5, 192810, Note_on_c, 3, 78, 0
5, 192840, Note_on_c, 3, 76, 90
5, 192870, Note_on_c, 3, 76, 0
5, 193020, Note_on_c, 3, 74, 90
5, 193050, Note_on_c, 3, 74, 0
5, 193080, Note_on_c, 3, 74, 90
5, 193110, Note_on_c, 3, 74, 0
5, 193260, Note_on_c, 3, 67, 90
5, 193290, Note_on_c, 3, 67, 0
5, 193320, Note_on_c, 3, 69, 90
5, 193350, Note_on_c, 3, 69, 0
5, 193500, Note_on_c, 3, 69, 90
5, 193530, Note_on_c, 3, 69, 0
5, 193560, Note_on_c, 3, 67, 90
5, 193590, Note_on_c, 3, 67, 0
5, 193740, Note_on_c, 3, 72, 90
5, 193770, Note_on_c, 3, 72, 0
5, 193800, Note_on_c, 3, 69, 90
5, 193830, Note_on_c, 3, 69, 0
5, 193980, Note_on_c, 3, 79, 90
5, 194010, Note_on_c, 3, 79, 0
5, 194040, Note_on_c, 3, 79, 90
5, 194070, Note_on_c, 3, 79, 0
5, 194100, Note_on_c, 3, 78, 90
5, 194159, Note_on_c, 3, 78, 0
5, 194160, Note_on_c, 3, 74, 90
5, 194339, Note_on_c, 3, 74, 0
5, 194340, Note_on_c, 3, 72, 90
5, 194399, Note_on_c, 3, 72, 0
5, 194400, Note_on_c, 3, 71, 90
5, 194519, Note_on_c, 3, 71, 0
5, 194520, Note_on_c, 3, 72, 90
5, 194579, Note_on_c, 3, 72, 0
5, 194580, Note_on_c, 3, 71, 90
5, 194639, Note_on_c, 3, 71, 0
5, 194640, Note_on_c, 3, 69, 90
5, 194759, Note_on_c, 3, 69, 0
5, 194760, Note_on_c, 3, 71, 90
5, 194819, Note_on_c, 3, 71, 0
5, 194820, Note_on_c, 3, 69, 90
5, 194879, Note_on_c, 3, 69, 0
5, 194880, Note_on_c, 3, 67, 90
5, 194999, Note_on_c, 3, 67, 0
5, 195000, Note_on_c, 3, 69, 90
5, 195119, Note_on_c, 3, 69, 0
5, 195120, Note_on_c, 3, 62, 90
5, 195239, Note_on_c, 3, 62, 0
5, 195240, Note_on_c, 3, 67, 90
5, 195479, Note_on_c, 3, 67, 0
5, 195480, Note_on_c, 3, 72, 90
5, 195599, Note_on_c, 3, 72, 0
5, 195600, Note_on_c, 3, 66, 90
5, 195719, Note_on_c, 3, 66, 0
5, 195720, Note_on_c, 3, 71, 90
5, 195839, Note_on_c, 3, 71, 0
5, 195840, Note_on_c, 3, 64, 90
5, 195959, Note_on_c, 3, 64, 0
5, 195960, Note_on_c, 3, 69, 90
5, 196079, Note_on_c, 3, 69, 0
5, 196080, Note_on_c, 3, 62, 90
5, 196199, Note_on_c, 3, 62, 0
5, 196200, Note_on_c, 3, 67, 90
5, 196259, Note_on_c, 3, 67, 0
5, 196260, Note_on_c, 3, 65, 90
5, 196319, Note_on_c, 3, 65, 0
5, 196320, Note_on_c, 3, 64, 90
5, 196379, Note_on_c, 3, 64, 0
5, 196380, Note_on_c, 3, 66, 90
5, 196439, Note_on_c, 3, 66, 0
5, 196440, Note_on_c, 3, 67, 90
5, 196499, Note_on_c, 3, 67, 0
5, 196500, Note_on_c, 3, 64, 90
5, 196559, Note_on_c, 3, 64, 0
5, 196560, Note_on_c, 3, 69, 90
5, 196619, Note_on_c, 3, 69, 0
5, 196620, Note_on_c, 3, 67, 90
5, 196649, Note_on_c, 3, 67, 0
5, 196650, Note_on_c, 3, 66, 90
5, 196679, Note_on_c, 3, 66, 0
5, 196680, Note_on_c, 3, 64, 90
5, 196739, Note_on_c, 3, 64, 0
5, 196740, Note_on_c, 3, 69, 90
5, 196799, Note_on_c, 3, 69, 0
5, 196800, Note_on_c, 3, 66, 90
5, 196829, Note_on_c, 3, 66, 0
5, 196830, Note_on_c, 3, 64, 90
5, 196859, Note_on_c, 3, 64, 0
5, 196860, Note_on_c, 3, 66, 90
5, 196889, Note_on_c, 3, 66, 0
5, 196890, Note_on_c, 3, 67, 90
5, 196919, Note_on_c, 3, 67, 0
5, 196920, Note_on_c, 3, 69, 90
5, 196949, Note_on_c, 3, 69, 0
5, 196950, Note_on_c, 3, 67, 90
5, 196979, Note_on_c, 3, 67, 0
5, 196980, Note_on_c, 3, 66, 90
5, 197009, Note_on_c, 3, 66, 0
5, 197010, Note_on_c, 3, 64, 90
5, 197039, Note_on_c, 3, 64, 0
5, 197040, Note_on_c, 3, 62, 90
5, 197219, Note_on_c, 3, 62, 0
5, 197220, Note_on_c, 3, 64, 90
5, 197249, Note_on_c, 3, 64, 0
5, 197250, Note_on_c, 3, 66, 90
5, 197279, Note_on_c, 3, 66, 0
5, 197280, Note_on_c, 3, 67, 90
5, 197309, Note_on_c, 3, 67, 0
5, 197310, Note_on_c, 3, 66, 90
5, 197339, Note_on_c, 3, 66, 0
5, 197340, Note_on_c, 3, 64, 90
5, 197369, Note_on_c, 3, 64, 0
5, 197370, Note_on_c, 3, 62, 90
5, 197399, Note_on_c, 3, 62, 0
5, 197400, Note_on_c, 3, 61, 90
5, 197459, Note_on_c, 3, 61, 0
5, 197460, Note_on_c, 3, 62, 90
5, 197519, Note_on_c, 3, 62, 0
5, 197520, Note_on_c, 3, 64, 90
5, 197759, Note_on_c, 3, 64, 0
5, 197760, Note_on_c, 3, 62, 90
5, 197999, Note_on_c, 3, 62, 0
5, 198000, Note_on_c, 3, 62, 90
5, 198240, Note_on_c, 3, 62, 0
5, 203160, Note_on_c, 3, 67, 90
5, 203279, Note_on_c, 3, 67, 0
5, 203280, Note_on_c, 3, 66, 90
5, 203339, Note_on_c, 3, 66, 0
5, 203340, Note_on_c, 3, 66, 90
5, 203459, Note_on_c, 3, 66, 0
5, 203460, Note_on_c, 3, 62, 90
5, 203519, Note_on_c, 3, 62, 0
5, 203520, Note_on_c, 3, 62, 90
5, 203639, Note_on_c, 3, 62, 0
5, 203640, Note_on_c, 3, 66, 90
5, 203699, Note_on_c, 3, 66, 0
5, 203700, Note_on_c, 3, 67, 90
5, 203819, Note_on_c, 3, 67, 0
5, 203820, Note_on_c, 3, 60, 90
5, 203879, Note_on_c, 3, 60, 0
5, 203880, Note_on_c, 3, 62, 90
5, 203999, Note_on_c, 3, 62, 0
5, 204000, Note_on_c, 3, 66, 90
5, 204059, Note_on_c, 3, 66, 0
5, 204060, Note_on_c, 3, 67, 90
5, 204179, Note_on_c, 3, 67, 0
5, 204180, Note_on_c, 3, 60, 90
5, 204239, Note_on_c, 3, 60, 0
5, 204240, Note_on_c, 3, 62, 90
5, 204419, Note_on_c, 3, 62, 0
5, 205680, Note_on_c, 3, 64, 90
5, 205799, Note_on_c, 3, 64, 0
5, 205800, Note_on_c, 3, 66, 90
5, 205859, Note_on_c, 3, 66, 0
5, 205860, Note_on_c, 3, 66, 90
5, 205979, Note_on_c, 3, 66, 0
5, 205980, Note_on_c, 3, 67, 90
5, 206039, Note_on_c, 3, 67, 0
5, 206040, Note_on_c, 3, 67, 90
5, 206159, Note_on_c, 3, 67, 0
5, 206160, Note_on_c, 3, 76, 90
5, 206219, Note_on_c, 3, 76, 0
5, 206220, Note_on_c, 3, 75, 90
5, 206339, Note_on_c, 3, 75, 0
5, 206340, Note_on_c, 3, 78, 90
5, 206399, Note_on_c, 3, 78, 0
5, 206400, Note_on_c, 3, 71, 90
5, 206519, Note_on_c, 3, 71, 0
5, 206520, Note_on_c, 3, 67, 90
5, 206579, Note_on_c, 3, 67, 0
5, 206580, Note_on_c, 3, 66, 90
5, 206699, Note_on_c, 3, 66, 0
5, 206700, Note_on_c, 3, 69, 90
5, 206759, Note_on_c, 3, 69, 0
5, 206760, Note_on_c, 3, 67, 90
5, 206939, Note_on_c, 3, 67, 0
5, 208200, Note_on_c, 3, 66, 90
5, 208319, Note_on_c, 3, 66, 0
5, 208320, Note_on_c, 3, 64, 90
5, 208379, Note_on_c, 3, 64, 0
5, 208380, Note_on_c, 3, 64, 90
5, 208499, Note_on_c, 3, 64, 0
5, 208500, Note_on_c, 3, 62, 90
5, 208559, Note_on_c, 3, 62, 0
5, 208560, Note_on_c, 3, 62, 90
5, 208649, Note_on_c, 3, 62, 0
5, 208650, Note_on_c, 3, 71, 90
5, 208679, Note_on_c, 3, 71, 0
5, 208680, Note_on_c, 3, 69, 90
5, 208829, Note_on_c, 3, 69, 0
5, 208830, Note_on_c, 3, 62, 90
5, 208859, Note_on_c, 3, 62, 0
5, 208860, Note_on_c, 3, 61, 90
5, 208919, Note_on_c, 3, 61, 0
5, 208920, Note_on_c, 3, 62, 90
5, 209009, Note_on_c, 3, 62, 0
5, 209010, Note_on_c, 3, 71, 90
5, 209039, Note_on_c, 3, 71, 0
5, 209040, Note_on_c, 3, 69, 90
5, 209189, Note_on_c, 3, 69, 0
5, 209190, Note_on_c, 3, 62, 90
5, 209219, Note_on_c, 3, 62, 0
5, 209220, Note_on_c, 3, 61, 90
5, 209279, Note_on_c, 3, 61, 0
5, 209280, Note_on_c, 3, 62, 90
5, 209459, Note_on_c, 3, 62, 0
5, 210720, Note_on_c, 3, 67, 90
5, 210839, Note_on_c, 3, 67, 0
5, 210840, Note_on_c, 3, 66, 90
5, 210899, Note_on_c, 3, 66, 0
5, 210900, Note_on_c, 3, 66, 90
5, 211019, Note_on_c, 3, 66, 0
5, 211020, Note_on_c, 3, 62, 90
5, 211079, Note_on_c, 3, 62, 0
5, 211080, Note_on_c, 3, 62, 90
5, 211199, Note_on_c, 3, 62, 0
5, 211200, Note_on_c, 3, 66, 90
5, 211259, Note_on_c, 3, 66, 0
5, 211260, Note_on_c, 3, 67, 90
5, 211379, Note_on_c, 3, 67, 0
5, 211380, Note_on_c, 3, 60, 90
5, 211439, Note_on_c, 3, 60, 0
5, 211440, Note_on_c, 3, 62, 90
5, 211559, Note_on_c, 3, 62, 0
5, 211560, Note_on_c, 3, 66, 90
5, 211619, Note_on_c, 3, 66, 0
5, 211620, Note_on_c, 3, 67, 90
5, 211739, Note_on_c, 3, 67, 0
5, 211740, Note_on_c, 3, 60, 90
5, 211799, Note_on_c, 3, 60, 0
5, 211800, Note_on_c, 3, 62, 90
5, 211980, Note_on_c, 3, 62, 0
5, 211980, End_track
6, 0, Start_track
6, 0, MIDI_port, 0
6, 0, Title_t, "Oboe Da Caccia I"
6, 0, Program_c, 4, 69
6, 0, Control_c, 4, 7, 127
6, 0, Control_c, 4, 10, 11
6, 6120, Note_on_c, 4, 62, 100
6, 6240, Note_on_c, 4, 62, 0
6, 6240, Note_on_c, 4, 60, 100
6, 6300, Note_on_c, 4, 60, 0
6, 6300, Note_on_c, 4, 60, 100
6, 6420, Note_on_c, 4, 60, 0
6, 6420, Note_on_c, 4, 59, 100
6, 6480, Note_on_c, 4, 59, 0
6, 6480, Note_on_c, 4, 59, 100
6, 6600, Note_on_c, 4, 59, 0
6, 6600, Note_on_c, 4, 60, 100
6, 6660, Note_on_c, 4, 60, 0
6, 6660, Note_on_c, 4, 59, 100
6, 6780, Note_on_c, 4, 59, 0
6, 6780, Note_on_c, 4, 57, 100
6, 6840, Note_on_c, 4, 57, 0
6, 6840, Note_on_c, 4, 59, 100
6, 6960, Note_on_c, 4, 59, 0
6, 6960, Note_on_c, 4, 60, 100
6, 7020, Note_on_c, 4, 60, 0
6, 7020, Note_on_c, 4, 59, 100
6, 7140, Note_on_c, 4, 59, 0
6, 7140, Note_on_c, 4, 57, 100
6, 7200, Note_on_c, 4, 57, 0
6, 7200, Note_on_c, 4, 59, 100
6, 7320, Note_on_c, 4, 59, 0
6, 7560, Note_on_c, 4, 64, 100
6, 7680, Note_on_c, 4, 64, 0
6, 7680, Note_on_c, 4, 66, 100
6, 7740, Note_on_c, 4, 66, 0
6, 7740, Note_on_c, 4, 66, 100
6, 7860, Note_on_c, 4, 66, 0
6, 7860, Note_on_c, 4, 67, 100
6, 7920, Note_on_c, 4, 67, 0
6, 7920, Note_on_c, 4, 67, 100
6, 8010, Note_on_c, 4, 67, 0
6, 8010, Note_on_c, 4, 72, 100
6, 8040, Note_on_c, 4, 72, 0
6, 8040, Note_on_c, 4, 71, 100
6, 8190, Note_on_c, 4, 71, 0
6, 8190, Note_on_c, 4, 64, 100
6, 8220, Note_on_c, 4, 64, 0
6, 8220, Note_on_c, 4, 63, 100
6, 8280, Note_on_c, 4, 63, 0
6, 8280, Note_on_c, 4, 64, 100
6, 8370, Note_on_c, 4, 64, 0
6, 8370, Note_on_c, 4, 72, 100
6, 8400, Note_on_c, 4, 72, 0
6, 8400, Note_on_c, 4, 71, 100
6, 8550, Note_on_c, 4, 71, 0
6, 8550, Note_on_c, 4, 64, 100
6, 8580, Note_on_c, 4, 64, 0
6, 8580, Note_on_c, 4, 63, 100
6, 8640, Note_on_c, 4, 63, 0
6, 8640, Note_on_c, 4, 64, 100
6, 8760, Note_on_c, 4, 64, 0
6, 9000, Note_on_c, 4, 67, 100
6, 9120, Note_on_c, 4, 67, 0
6, 9120, Note_on_c, 4, 65, 100
6, 9180, Note_on_c, 4, 65, 0
6, 9180, Note_on_c, 4, 65, 100
6, 9300, Note_on_c, 4, 65, 0
6, 9300, Note_on_c, 4, 64, 100
6, 9360, Note_on_c, 4, 64, 0
6, 9360, Note_on_c, 4, 64, 100
6, 9480, Note_on_c, 4, 64, 0
6, 9480, Note_on_c, 4, 65, 100
6, 9540, Note_on_c, 4, 65, 0
6, 9540, Note_on_c, 4, 64, 100
6, 9660, Note_on_c, 4, 64, 0
6, 9660, Note_on_c, 4, 62, 100
6, 9720, Note_on_c, 4, 62, 0
6, 9720, Note_on_c, 4, 64, 100
6, 9840, Note_on_c, 4, 64, 0
6, 9840, Note_on_c, 4, 65, 100
6, 9900, Note_on_c, 4, 65, 0
6, 9900, Note_on_c, 4, 64, 100
6, 10020, Note_on_c, 4, 64, 0
6, 10020, Note_on_c, 4, 62, 100
6, 10080, Note_on_c, 4, 62, 0
6, 10080, Note_on_c, 4, 60, 100
6, 10200, Note_on_c, 4, 60, 0
6, 11640, Note_on_c, 4, 74, 100
6, 11700, Note_on_c, 4, 74, 0
6, 11700, Note_on_c, 4, 65, 100
6, 11940, Note_on_c, 4, 65, 0
6, 11940, Note_on_c, 4, 64, 100
6, 12000, Note_on_c, 4, 64, 0
6, 12600, Note_on_c, 4, 71, 100
6, 12720, Note_on_c, 4, 71, 0
6, 12720, Note_on_c, 4, 69, 100
6, 12780, Note_on_c, 4, 69, 0
6, 12780, Note_on_c, 4, 69, 100
6, 12900, Note_on_c, 4, 69, 0
6, 12900, Note_on_c, 4, 71, 100
6, 12960, Note_on_c, 4, 71, 0
6, 12960, Note_on_c, 4, 71, 100
6, 13080, Note_on_c, 4, 71, 0
6, 13080, Note_on_c, 4, 66, 100
6, 13140, Note_on_c, 4, 66, 0
6, 13140, Note_on_c, 4, 66, 100
6, 13260, Note_on_c, 4, 66, 0
6, 13260, Note_on_c, 4, 67, 100
6, 13320, Note_on_c, 4, 67, 0
6, 13320, Note_on_c, 4, 67, 100
6, 13440, Note_on_c, 4, 67, 0
6, 13440, Note_on_c, 4, 68, 100
6, 13500, Note_on_c, 4, 68, 0
6, 13500, Note_on_c, 4, 68, 100
6, 13620, Note_on_c, 4, 68, 0
6, 13620, Note_on_c, 4, 69, 100
6, 13680, Note_on_c, 4, 69, 0
6, 13680, Note_on_c, 4, 69, 100
6, 13800, Note_on_c, 4, 69, 0
6, 13800, Note_on_c, 4, 71, 100
6, 13860, Note_on_c, 4, 71, 0
6, 13860, Note_on_c, 4, 71, 100
6, 13980, Note_on_c, 4, 71, 0
6, 13980, Note_on_c, 4, 72, 100
6, 14040, Note_on_c, 4, 72, 0
6, 14040, Note_on_c, 4, 72, 100
6, 14160, Note_on_c, 4, 72, 0
6, 14160, Note_on_c, 4, 64, 100
6, 14220, Note_on_c, 4, 64, 0
6, 14220, Note_on_c, 4, 69, 100
6, 14340, Note_on_c, 4, 69, 0
6, 14340, Note_on_c, 4, 72, 100
6, 14400, Note_on_c, 4, 72, 0
6, 14400, Note_on_c, 4, 71, 100
6, 14520, Note_on_c, 4, 71, 0
6, 14520, Note_on_c, 4, 64, 100
6, 14580, Note_on_c, 4, 64, 0
6, 14580, Note_on_c, 4, 67, 100
6, 14700, Note_on_c, 4, 67, 0
6, 14700, Note_on_c, 4, 71, 100
6, 14760, Note_on_c, 4, 71, 0
6, 14760, Note_on_c, 4, 73, 100
6, 14880, Note_on_c, 4, 73, 0
6, 14880, Note_on_c, 4, 70, 100
6, 14940, Note_on_c, 4, 70, 0
6, 14940, Note_on_c, 4, 66, 100
6, 15060, Note_on_c, 4, 66, 0
6, 15060, Note_on_c, 4, 70, 100
6, 15120, Note_on_c, 4, 70, 0
6, 15120, Note_on_c, 4, 71, 100
6, 15240, Note_on_c, 4, 71, 0
6, 15420, Note_on_c, 4, 66, 100
6, 15480, Note_on_c, 4, 66, 0
6, 15480, Note_on_c, 4, 64, 100
6, 15570, Note_on_c, 4, 64, 0
6, 15570, Note_on_c, 4, 63, 100
6, 15600, Note_on_c, 4, 63, 0
6, 15600, Note_on_c, 4, 64, 100
6, 15660, Note_on_c, 4, 64, 0
6, 15660, Note_on_c, 4, 66, 100
6, 15750, Note_on_c, 4, 66, 0
6, 15750, Note_on_c, 4, 64, 100
6, 15780, Note_on_c, 4, 64, 0
6, 15780, Note_on_c, 4, 66, 100
6, 15840, Note_on_c, 4, 66, 0
6, 15840, Note_on_c, 4, 67, 100
6, 15960, Note_on_c, 4, 67, 0
6, 19440, Note_on_c, 4, 69, 90
6, 19559, Note_on_c, 4, 69, 0
6, 19560, Note_on_c, 4, 67, 90
6, 19619, Note_on_c, 4, 67, 0
6, 19620, Note_on_c, 4, 67, 90
6, 19739, Note_on_c, 4, 67, 0
6, 19740, Note_on_c, 4, 66, 90
6, 19799, Note_on_c, 4, 66, 0
6, 19800, Note_on_c, 4, 66, 90
6, 19919, Note_on_c, 4, 66, 0
6, 19920, Note_on_c, 4, 67, 90
6, 19979, Note_on_c, 4, 67, 0
6, 19980, Note_on_c, 4, 66, 90
6, 20099, Note_on_c, 4, 66, 0
6, 20100, Note_on_c, 4, 64, 90
6, 20159, Note_on_c, 4, 64, 0
6, 20160, Note_on_c, 4, 66, 90
6, 20279, Note_on_c, 4, 66, 0
6, 20280, Note_on_c, 4, 67, 90
6, 20339, Note_on_c, 4, 67, 0
6, 20340, Note_on_c, 4, 66, 90
6, 20459, Note_on_c, 4, 66, 0
6, 20460, Note_on_c, 4, 64, 90
6, 20519, Note_on_c, 4, 64, 0
6, 20520, Note_on_c, 4, 66, 90
6, 20639, Note_on_c, 4, 66, 0
6, 20880, Note_on_c, 4, 66, 90
6, 20999, Note_on_c, 4, 66, 0
6, 21000, Note_on_c, 4, 64, 90
6, 21059, Note_on_c, 4, 64, 0
6, 21060, Note_on_c, 4, 64, 90
6, 21179, Note_on_c, 4, 64, 0
6, 21180, Note_on_c, 4, 62, 90
6, 21239, Note_on_c, 4, 62, 0
6, 21240, Note_on_c, 4, 62, 90
6, 21359, Note_on_c, 4, 62, 0
6, 21360, Note_on_c, 4, 61, 90
6, 21419, Note_on_c, 4, 61, 0
6, 21420, Note_on_c, 4, 62, 90
6, 21539, Note_on_c, 4, 62, 0
6, 21540, Note_on_c, 4, 64, 90
6, 21599, Note_on_c, 4, 64, 0
6, 21600, Note_on_c, 4, 62, 90
6, 21719, Note_on_c, 4, 62, 0
6, 21720, Note_on_c, 4, 61, 90
6, 21779, Note_on_c, 4, 61, 0
6, 21780, Note_on_c, 4, 62, 90
6, 21899, Note_on_c, 4, 62, 0
6, 21900, Note_on_c, 4, 64, 90
6, 21959, Note_on_c, 4, 64, 0
6, 21960, Note_on_c, 4, 66, 90
6, 22079, Note_on_c, 4, 66, 0
6, 23700, Note_on_c, 4, 72, 90
6, 23760, Note_on_c, 4, 72, 0
6, 23760, Note_on_c, 4, 71, 90
6, 23820, Note_on_c, 4, 71, 0
6, 23820, Note_on_c, 4, 64, 90
6, 23880, Note_on_c, 4, 64, 0
6, 23880, Note_on_c, 4, 63, 90
6, 23940, Note_on_c, 4, 63, 0
6, 23940, Note_on_c, 4, 64, 100
6, 24060, Note_on_c, 4, 64, 0
6, 24960, Note_on_c, 4, 64, 100
6, 25110, Note_on_c, 4, 64, 0
6, 25110, Note_on_c, 4, 63, 100
6, 25140, Note_on_c, 4, 63, 0
6, 25140, Note_on_c, 4, 69, 100
6, 25260, Note_on_c, 4, 69, 0
6, 25260, Note_on_c, 4, 67, 100
6, 25320, Note_on_c, 4, 67, 0
6, 25320, Note_on_c, 4, 66, 100
6, 25380, Note_on_c, 4, 66, 0
6, 25380, Note_on_c, 4, 64, 100
6, 25440, Note_on_c, 4, 64, 0
6, 25440, Note_on_c, 4, 61, 100
6, 25500, Note_on_c, 4, 61, 0
6, 25500, Note_on_c, 4, 70, 100
6, 25560, Note_on_c, 4, 70, 0
6, 25560, Note_on_c, 4, 66, 90
6, 25679, Note_on_c, 4, 66, 0
6, 25680, Note_on_c, 4, 64, 90
6, 25739, Note_on_c, 4, 64, 0
6, 25740, Note_on_c, 4, 64, 90
6, 25859, Note_on_c, 4, 64, 0
6, 25860, Note_on_c, 4, 62, 90
6, 25919, Note_on_c, 4, 62, 0
6, 25920, Note_on_c, 4, 62, 90
6, 26039, Note_on_c, 4, 62, 0
6, 26040, Note_on_c, 4, 67, 90
6, 26099, Note_on_c, 4, 67, 0
6, 26100, Note_on_c, 4, 67, 90
6, 26219, Note_on_c, 4, 67, 0
6, 26220, Note_on_c, 4, 66, 90
6, 26279, Note_on_c, 4, 66, 0
6, 26280, Note_on_c, 4, 71, 90
6, 26399, Note_on_c, 4, 71, 0
6, 26400, Note_on_c, 4, 69, 90
6, 26459, Note_on_c, 4, 69, 0
6, 26460, Note_on_c, 4, 69, 90
6, 26579, Note_on_c, 4, 69, 0
6, 26580, Note_on_c, 4, 67, 90
6, 26639, Note_on_c, 4, 67, 0
6, 26640, Note_on_c, 4, 67, 90
6, 26759, Note_on_c, 4, 67, 0
6, 26760, Note_on_c, 4, 66, 90
6, 26819, Note_on_c, 4, 66, 0
6, 26820, Note_on_c, 4, 66, 90
6, 26939, Note_on_c, 4, 66, 0
6, 26940, Note_on_c, 4, 64, 90
6, 26999, Note_on_c, 4, 64, 0
6, 27000, Note_on_c, 4, 64, 90
6, 27119, Note_on_c, 4, 64, 0
6, 27120, Note_on_c, 4, 71, 90
6, 27179, Note_on_c, 4, 71, 0
6, 27180, Note_on_c, 4, 67, 90
6, 27299, Note_on_c, 4, 67, 0
6, 27300, Note_on_c, 4, 64, 90
6, 27359, Note_on_c, 4, 64, 0
6, 27360, Note_on_c, 4, 71, 90
6, 27479, Note_on_c, 4, 71, 0
6, 27480, Note_on_c, 4, 66, 90
6, 27539, Note_on_c, 4, 66, 0
6, 27540, Note_on_c, 4, 62, 90
6, 27659, Note_on_c, 4, 62, 0
6, 27660, Note_on_c, 4, 74, 90
6, 27719, Note_on_c, 4, 74, 0
6, 27720, Note_on_c, 4, 68, 90
6, 27839, Note_on_c, 4, 68, 0
6, 27840, Note_on_c, 4, 73, 90
6, 27899, Note_on_c, 4, 73, 0
6, 27900, Note_on_c, 4, 65, 90
6, 28019, Note_on_c, 4, 65, 0
6, 28020, Note_on_c, 4, 68, 90
6, 28079, Note_on_c, 4, 68, 0
6, 28080, Note_on_c, 4, 61, 90
6, 28199, Note_on_c, 4, 61, 0
6, 28380, Note_on_c, 4, 64, 90
6, 28439, Note_on_c, 4, 64, 0
6, 28440, Note_on_c, 4, 66, 90
6, 28619, Note_on_c, 4, 66, 0
6, 28620, Note_on_c, 4, 66, 90
6, 28799, Note_on_c, 4, 66, 0
6, 28800, Note_on_c, 4, 66, 90
6, 28919, Note_on_c, 4, 66, 0
6, 29280, Note_on_c, 4, 64, 90
6, 29339, Note_on_c, 4, 64, 0
6, 29340, Note_on_c, 4, 64, 90
6, 29459, Note_on_c, 4, 64, 0
6, 29460, Note_on_c, 4, 69, 90
6, 29519, Note_on_c, 4, 69, 0
6, 29520, Note_on_c, 4, 69, 90
6, 29639, Note_on_c, 4, 69, 0
6, 29640, Note_on_c, 4, 68, 90
6, 29699, Note_on_c, 4, 68, 0
6, 30360, Note_on_c, 4, 66, 90
6, 30419, Note_on_c, 4, 66, 0
6, 30420, Note_on_c, 4, 62, 90
6, 30599, Note_on_c, 4, 62, 0
6, 30600, Note_on_c, 4, 66, 90
6, 30719, Note_on_c, 4, 66, 0
6, 30720, Note_on_c, 4, 62, 90
6, 30780, Note_on_c, 4, 62, 0
6, 30780, Note_on_c, 4, 60, 90
6, 30869, Note_on_c, 4, 60, 0
6, 30870, Note_on_c, 4, 59, 90
6, 30899, Note_on_c, 4, 59, 0
6, 30900, Note_on_c, 4, 60, 90
6, 30959, Note_on_c, 4, 60, 0
6, 30960, Note_on_c, 4, 59, 90
6, 31080, Note_on_c, 4, 59, 0
6, 33840, Note_on_c, 4, 62, 100
6, 33960, Note_on_c, 4, 62, 0
6, 33960, Note_on_c, 4, 60, 100
6, 34020, Note_on_c, 4, 60, 0
6, 34020, Note_on_c, 4, 60, 100
6, 34140, Note_on_c, 4, 60, 0
6, 34140, Note_on_c, 4, 59, 100
6, 34200, Note_on_c, 4, 59, 0
6, 34200, Note_on_c, 4, 59, 100
6, 34320, Note_on_c, 4, 59, 0
6, 34320, Note_on_c, 4, 60, 100
6, 34380, Note_on_c, 4, 60, 0
6, 34380, Note_on_c, 4, 59, 100
6, 34500, Note_on_c, 4, 59, 0
6, 34500, Note_on_c, 4, 57, 100
6, 34560, Note_on_c, 4, 57, 0
6, 34560, Note_on_c, 4, 59, 100
6, 34680, Note_on_c, 4, 59, 0
6, 34680, Note_on_c, 4, 60, 100
6, 34740, Note_on_c, 4, 60, 0
6, 34740, Note_on_c, 4, 59, 100
6, 34860, Note_on_c, 4, 59, 0
6, 34860, Note_on_c, 4, 57, 100
6, 34920, Note_on_c, 4, 57, 0
6, 34920, Note_on_c, 4, 59, 100
6, 35040, Note_on_c, 4, 59, 0
6, 35280, Note_on_c, 4, 64, 100
6, 35400, Note_on_c, 4, 64, 0
6, 35400, Note_on_c, 4, 66, 100
6, 35460, Note_on_c, 4, 66, 0
6, 35460, Note_on_c, 4, 66, 100
6, 35580, Note_on_c, 4, 66, 0
6, 35580, Note_on_c, 4, 67, 100
6, 35640, Note_on_c, 4, 67, 0
6, 35640, Note_on_c, 4, 67, 100
6, 35730, Note_on_c, 4, 67, 0
6, 35730, Note_on_c, 4, 72, 100
6, 35760, Note_on_c, 4, 72, 0
6, 35760, Note_on_c, 4, 71, 100
6, 35910, Note_on_c, 4, 71, 0
6, 35910, Note_on_c, 4, 64, 100
6, 35940, Note_on_c, 4, 64, 0
6, 35940, Note_on_c, 4, 63, 100
6, 36000, Note_on_c, 4, 63, 0
6, 36000, Note_on_c, 4, 64, 100
6, 36090, Note_on_c, 4, 64, 0
6, 36090, Note_on_c, 4, 72, 100
6, 36120, Note_on_c, 4, 72, 0
6, 36120, Note_on_c, 4, 71, 100
6, 36270, Note_on_c, 4, 71, 0
6, 36270, Note_on_c, 4, 64, 100
6, 36300, Note_on_c, 4, 64, 0
6, 36300, Note_on_c, 4, 63, 100
6, 36360, Note_on_c, 4, 63, 0
6, 36360, Note_on_c, 4, 64, 100
6, 36480, Note_on_c, 4, 64, 0
6, 36720, Note_on_c, 4, 67, 100
6, 36840, Note_on_c, 4, 67, 0
6, 36840, Note_on_c, 4, 65, 100
6, 36900, Note_on_c, 4, 65, 0
6, 36900, Note_on_c, 4, 65, 100
6, 37020, Note_on_c, 4, 65, 0
6, 37020, Note_on_c, 4, 64, 100
6, 37080, Note_on_c, 4, 64, 0
6, 37080, Note_on_c, 4, 64, 100
6, 37200, Note_on_c, 4, 64, 0
6, 37200, Note_on_c, 4, 65, 100
6, 37260, Note_on_c, 4, 65, 0
6, 37260, Note_on_c, 4, 64, 100
6, 37380, Note_on_c, 4, 64, 0
6, 37380, Note_on_c, 4, 62, 100
6, 37440, Note_on_c, 4, 62, 0
6, 37440, Note_on_c, 4, 64, 100
6, 37560, Note_on_c, 4, 64, 0
6, 37560, Note_on_c, 4, 65, 100
6, 37620, Note_on_c, 4, 65, 0
6, 37620, Note_on_c, 4, 64, 100
6, 37740, Note_on_c, 4, 64, 0
6, 37740, Note_on_c, 4, 62, 100
6, 37800, Note_on_c, 4, 62, 0
6, 37800, Note_on_c, 4, 60, 100
6, 37920, Note_on_c, 4, 60, 0
6, 40680, Note_on_c, 4, 67, 90
6, 43140, Note_on_c, 4, 67, 0
6, 43140, Note_on_c, 4, 61, 90
6, 43200, Note_on_c, 4, 61, 0
6, 43200, Note_on_c, 4, 62, 90
6, 43500, Note_on_c, 4, 62, 0
6, 43500, Note_on_c, 4, 57, 90
6, 43560, Note_on_c, 4, 57, 0
6, 43560, Note_on_c, 4, 59, 90
6, 43650, Note_on_c, 4, 59, 0
6, 43650, Note_on_c, 4, 60, 90
6, 43680, Note_on_c, 4, 60, 0
6, 43680, Note_on_c, 4, 62, 90
6, 43740, Note_on_c, 4, 62, 0
6, 43740, Note_on_c, 4, 62, 90
6, 43860, Note_on_c, 4, 62, 0
6, 43860, Note_on_c, 4, 69, 90
6, 43920, Note_on_c, 4, 69, 0
6, 43920, Note_on_c, 4, 71, 90
6, 44040, Note_on_c, 4, 71, 0
6, 44370, Note_on_c, 4, 69, 90
6, 44400, Note_on_c, 4, 69, 0
6, 44400, Note_on_c, 4, 71, 90
6, 44460, Note_on_c, 4, 71, 0
6, 44460, Note_on_c, 4, 62, 90
6, 44640, Note_on_c, 4, 62, 0
6, 44640, Note_on_c, 4, 62, 90
6, 45000, Note_on_c, 4, 62, 0
6, 50520, Note_on_c, 4, 62, 90
6, 50639, Note_on_c, 4, 62, 0
6, 50640, Note_on_c, 4, 64, 90
6, 50759, Note_on_c, 4, 64, 0
6, 50760, Note_on_c, 4, 66, 90
6, 50879, Note_on_c, 4, 66, 0
6, 50880, Note_on_c, 4, 62, 90
6, 50939, Note_on_c, 4, 62, 0
6, 50940, Note_on_c, 4, 64, 90
6, 50999, Note_on_c, 4, 64, 0
6, 51000, Note_on_c, 4, 66, 90
6, 51119, Note_on_c, 4, 66, 0
6, 51120, Note_on_c, 4, 64, 90
6, 51179, Note_on_c, 4, 64, 0
6, 51180, Note_on_c, 4, 66, 90
6, 51239, Note_on_c, 4, 66, 0
6, 51240, Note_on_c, 4, 67, 90
6, 51359, Note_on_c, 4, 67, 0
6, 51360, Note_on_c, 4, 66, 90
6, 51449, Note_on_c, 4, 66, 0
6, 51480, Note_on_c, 4, 66, 90
6, 51599, Note_on_c, 4, 66, 0
6, 51600, Note_on_c, 4, 64, 90
6, 51719, Note_on_c, 4, 64, 0
6, 51720, Note_on_c, 4, 62, 90
6, 51779, Note_on_c, 4, 62, 0
6, 51780, Note_on_c, 4, 64, 90
6, 51839, Note_on_c, 4, 64, 0
6, 51840, Note_on_c, 4, 66, 90
6, 51959, Note_on_c, 4, 66, 0
6, 51960, Note_on_c, 4, 67, 90
6, 52079, Note_on_c, 4, 67, 0
6, 52080, Note_on_c, 4, 67, 90
6, 52199, Note_on_c, 4, 67, 0
6, 52200, Note_on_c, 4, 66, 90
6, 52319, Note_on_c, 4, 66, 0
6, 52320, Note_on_c, 4, 62, 90
6, 52409, Note_on_c, 4, 62, 0
6, 52440, Note_on_c, 4, 62, 90
6, 52559, Note_on_c, 4, 62, 0
6, 52560, Note_on_c, 4, 64, 90
6, 52679, Note_on_c, 4, 64, 0
6, 52680, Note_on_c, 4, 66, 90
6, 52799, Note_on_c, 4, 66, 0
6, 52800, Note_on_c, 4, 62, 90
6, 52859, Note_on_c, 4, 62, 0
6, 52860, Note_on_c, 4, 64, 90
6, 52919, Note_on_c, 4, 64, 0
6, 52920, Note_on_c, 4, 66, 90
6, 53039, Note_on_c, 4, 66, 0
6, 53040, Note_on_c, 4, 64, 90
6, 53099, Note_on_c, 4, 64, 0
6, 53100, Note_on_c, 4, 66, 90
6, 53159, Note_on_c, 4, 66, 0
6, 53160, Note_on_c, 4, 67, 90
6, 53279, Note_on_c, 4, 67, 0
6, 53280, Note_on_c, 4, 66, 90
6, 53369, Note_on_c, 4, 66, 0
6, 53400, Note_on_c, 4, 66, 90
6, 53519, Note_on_c, 4, 66, 0
6, 53520, Note_on_c, 4, 64, 90
6, 53639, Note_on_c, 4, 64, 0
6, 53640, Note_on_c, 4, 62, 90
6, 53699, Note_on_c, 4, 62, 0
6, 53700, Note_on_c, 4, 64, 90
6, 53759, Note_on_c, 4, 64, 0
6, 53760, Note_on_c, 4, 66, 90
6, 53879, Note_on_c, 4, 66, 0
6, 53880, Note_on_c, 4, 67, 90
6, 53999, Note_on_c, 4, 67, 0
6, 54000, Note_on_c, 4, 67, 90
6, 54119, Note_on_c, 4, 67, 0
6, 54120, Note_on_c, 4, 66, 90
6, 54239, Note_on_c, 4, 66, 0
6, 54240, Note_on_c, 4, 62, 90
6, 54329, Note_on_c, 4, 62, 0
6, 54360, Note_on_c, 4, 66, 90
6, 54419, Note_on_c, 4, 66, 0
6, 54420, Note_on_c, 4, 67, 90
6, 54479, Note_on_c, 4, 67, 0
6, 54480, Note_on_c, 4, 69, 90
6, 54659, Note_on_c, 4, 69, 0
6, 54660, Note_on_c, 4, 68, 90
6, 54719, Note_on_c, 4, 68, 0
6, 54720, Note_on_c, 4, 69, 90
6, 54779, Note_on_c, 4, 69, 0
6, 54780, Note_on_c, 4, 68, 90
6, 54839, Note_on_c, 4, 68, 0
6, 54840, Note_on_c, 4, 69, 90
6, 54959, Note_on_c, 4, 69, 0
6, 54960, Note_on_c, 4, 69, 90
6, 55079, Note_on_c, 4, 69, 0
6, 55080, Note_on_c, 4, 68, 90
6, 55199, Note_on_c, 4, 68, 0
6, 55200, Note_on_c, 4, 64, 90
6, 55289, Note_on_c, 4, 64, 0
6, 55320, Note_on_c, 4, 64, 90
6, 55379, Note_on_c, 4, 64, 0
6, 55380, Note_on_c, 4, 63, 90
6, 55439, Note_on_c, 4, 63, 0
6, 55440, Note_on_c, 4, 64, 90
6, 55559, Note_on_c, 4, 64, 0
6, 55560, Note_on_c, 4, 64, 90
6, 55679, Note_on_c, 4, 64, 0
6, 55680, Note_on_c, 4, 64, 90
6, 55739, Note_on_c, 4, 64, 0
6, 55740, Note_on_c, 4, 66, 90
6, 55799, Note_on_c, 4, 66, 0
6, 55800, Note_on_c, 4, 67, 90
6, 55859, Note_on_c, 4, 67, 0
6, 55860, Note_on_c, 4, 66, 90
6, 55919, Note_on_c, 4, 66, 0
6, 55920, Note_on_c, 4, 66, 90
6, 55979, Note_on_c, 4, 66, 0
6, 55980, Note_on_c, 4, 67, 90
6, 56039, Note_on_c, 4, 67, 0
6, 56040, Note_on_c, 4, 69, 90
6, 56159, Note_on_c, 4, 69, 0
6, 56160, Note_on_c, 4, 67, 90
6, 56249, Note_on_c, 4, 67, 0
6, 56280, Note_on_c, 4, 69, 90
6, 56399, Note_on_c, 4, 69, 0
6, 56400, Note_on_c, 4, 67, 90
6, 56459, Note_on_c, 4, 67, 0
6, 56460, Note_on_c, 4, 69, 90
6, 56519, Note_on_c, 4, 69, 0
6, 56520, Note_on_c, 4, 71, 90
6, 56639, Note_on_c, 4, 71, 0
6, 56640, Note_on_c, 4, 71, 90
6, 56699, Note_on_c, 4, 71, 0
6, 56700, Note_on_c, 4, 69, 90
6, 56759, Note_on_c, 4, 69, 0
6, 56760, Note_on_c, 4, 69, 90
6, 56819, Note_on_c, 4, 69, 0
6, 56820, Note_on_c, 4, 67, 90
6, 56879, Note_on_c, 4, 67, 0
6, 56880, Note_on_c, 4, 67, 90
6, 57119, Note_on_c, 4, 67, 0
6, 57120, Note_on_c, 4, 66, 90
6, 57209, Note_on_c, 4, 66, 0
6, 57240, Note_on_c, 4, 67, 90
6, 57299, Note_on_c, 4, 67, 0
6, 57300, Note_on_c, 4, 66, 90
6, 57359, Note_on_c, 4, 66, 0
6, 57360, Note_on_c, 4, 64, 90
6, 57479, Note_on_c, 4, 64, 0
6, 57480, Note_on_c, 4, 66, 90
6, 57599, Note_on_c, 4, 66, 0
6, 57600, Note_on_c, 4, 67, 90
6, 57659, Note_on_c, 4, 67, 0
6, 57660, Note_on_c, 4, 69, 90
6, 57719, Note_on_c, 4, 69, 0
6, 57720, Note_on_c, 4, 62, 90
6, 57839, Note_on_c, 4, 62, 0
6, 57840, Note_on_c, 4, 64, 90
6, 57959, Note_on_c, 4, 64, 0
6, 57960, Note_on_c, 4, 62, 90
6, 58079, Note_on_c, 4, 62, 0
6, 58080, Note_on_c, 4, 62, 90
6, 58199, Note_on_c, 4, 62, 0
6, 62400, Note_on_c, 4, 67, 100
6, 62520, Note_on_c, 4, 67, 0
6, 62880, Note_on_c, 4, 64, 100
6, 63000, Note_on_c, 4, 64, 0
6, 63360, Note_on_c, 4, 60, 100
6, 63480, Note_on_c, 4, 60, 0
6, 63600, Note_on_c, 4, 62, 100
6, 63720, Note_on_c, 4, 62, 0
6, 64200, Note_on_c, 4, 69, 100
6, 64320, Note_on_c, 4, 69, 0
6, 64560, Note_on_c, 4, 62, 100
6, 64680, Note_on_c, 4, 62, 0
6, 65040, Note_on_c, 4, 63, 100
6, 65160, Note_on_c, 4, 63, 0
6, 65280, Note_on_c, 4, 66, 100
6, 65400, Note_on_c, 4, 66, 0
6, 65760, Note_on_c, 4, 69, 100
6, 65790, Note_on_c, 4, 69, 0
6, 65880, Note_on_c, 4, 66, 100
6, 65910, Note_on_c, 4, 66, 0
6, 66000, Note_on_c, 4, 71, 100
6, 66030, Note_on_c, 4, 71, 0
6, 66120, Note_on_c, 4, 72, 100
6, 66150, Note_on_c, 4, 72, 0
6, 66360, Note_on_c, 4, 66, 100
6, 66480, Note_on_c, 4, 66, 0
6, 66480, Note_on_c, 4, 64, 100
6, 66720, Note_on_c, 4, 64, 0
6, 93000, Note_on_c, 4, 67, 90
6, 93119, Note_on_c, 4, 67, 0
6, 93120, Note_on_c, 4, 67, 90
6, 93179, Note_on_c, 4, 67, 0
6, 93180, Note_on_c, 4, 65, 90
6, 93239, Note_on_c, 4, 65, 0
6, 93240, Note_on_c, 4, 64, 90
6, 93359, Note_on_c, 4, 64, 0
6, 93360, Note_on_c, 4, 66, 90
6, 93479, Note_on_c, 4, 66, 0
6, 93480, Note_on_c, 4, 64, 90
6, 93539, Note_on_c, 4, 64, 0
6, 93540, Note_on_c, 4, 62, 90
6, 93599, Note_on_c, 4, 62, 0
6, 93600, Note_on_c, 4, 60, 90
6, 93719, Note_on_c, 4, 60, 0
6, 93720, Note_on_c, 4, 62, 90
6, 93839, Note_on_c, 4, 62, 0
6, 93840, Note_on_c, 4, 64, 90
6, 93929, Note_on_c, 4, 64, 0
6, 93960, Note_on_c, 4, 64, 90
6, 94079, Note_on_c, 4, 64, 0
6, 94080, Note_on_c, 4, 64, 90
6, 94199, Note_on_c, 4, 64, 0
6, 94200, Note_on_c, 4, 64, 90
6, 94319, Note_on_c, 4, 64, 0
6, 94320, Note_on_c, 4, 62, 90
6, 94439, Note_on_c, 4, 62, 0
6, 94440, Note_on_c, 4, 60, 90
6, 94559, Note_on_c, 4, 60, 0
6, 94560, Note_on_c, 4, 60, 90
6, 94679, Note_on_c, 4, 60, 0
6, 94680, Note_on_c, 4, 60, 90
6, 94799, Note_on_c, 4, 60, 0
6, 94800, Note_on_c, 4, 60, 90
6, 94889, Note_on_c, 4, 60, 0
6, 94920, Note_on_c, 4, 60, 90
6, 95039, Note_on_c, 4, 60, 0
6, 95040, Note_on_c, 4, 60, 90
6, 95159, Note_on_c, 4, 60, 0
6, 95160, Note_on_c, 4, 65, 90
6, 95219, Note_on_c, 4, 65, 0
6, 95220, Note_on_c, 4, 64, 90
6, 95279, Note_on_c, 4, 64, 0
6, 95280, Note_on_c, 4, 62, 90
6, 95339, Note_on_c, 4, 62, 0
6, 95340, Note_on_c, 4, 60, 90
6, 95399, Note_on_c, 4, 60, 0
6, 95400, Note_on_c, 4, 59, 90
6, 95519, Note_on_c, 4, 59, 0
6, 95520, Note_on_c, 4, 57, 90
6, 95579, Note_on_c, 4, 57, 0
6, 95580, Note_on_c, 4, 64, 90
6, 95639, Note_on_c, 4, 64, 0
6, 95640, Note_on_c, 4, 65, 90
6, 95759, Note_on_c, 4, 65, 0
6, 95760, Note_on_c, 4, 64, 90
6, 95849, Note_on_c, 4, 64, 0
6, 95880, Note_on_c, 4, 69, 90
6, 95999, Note_on_c, 4, 69, 0
6, 96000, Note_on_c, 4, 69, 90
6, 96059, Note_on_c, 4, 69, 0
6, 96060, Note_on_c, 4, 67, 90
6, 96119, Note_on_c, 4, 67, 0
6, 96120, Note_on_c, 4, 65, 90
6, 96239, Note_on_c, 4, 65, 0
6, 96240, Note_on_c, 4, 64, 90
6, 96419, Note_on_c, 4, 64, 0
6, 96420, Note_on_c, 4, 62, 90
6, 96479, Note_on_c, 4, 62, 0
6, 96480, Note_on_c, 4, 60, 90
6, 96659, Note_on_c, 4, 60, 0
6, 96660, Note_on_c, 4, 59, 90
6, 96719, Note_on_c, 4, 59, 0
6, 96720, Note_on_c, 4, 55, 90
6, 96839, Note_on_c, 4, 55, 0
6, 96960, Note_on_c, 4, 64, 100
6, 97080, Note_on_c, 4, 64, 0
6, 97200, Note_on_c, 4, 60, 100
6, 97320, Note_on_c, 4, 60, 0
6, 97440, Note_on_c, 4, 65, 100
6, 97560, Note_on_c, 4, 65, 0
6, 97680, Note_on_c, 4, 62, 100
6, 97800, Note_on_c, 4, 62, 0
6, 97920, Note_on_c, 4, 57, 100
6, 98040, Note_on_c, 4, 57, 0
6, 98160, Note_on_c, 4, 57, 100
6, 98280, Note_on_c, 4, 57, 0
6, 98400, Note_on_c, 4, 62, 100
6, 98520, Note_on_c, 4, 62, 0
6, 98640, Note_on_c, 4, 55, 100
6, 98760, Note_on_c, 4, 55, 0
6, 98880, Note_on_c, 4, 60, 90
6, 98939, Note_on_c, 4, 60, 0
6, 98940, Note_on_c, 4, 60, 90
6, 98999, Note_on_c, 4, 60, 0
6, 99000, Note_on_c, 4, 60, 90
6, 99059, Note_on_c, 4, 60, 0
6, 99060, Note_on_c, 4, 60, 90
6, 99119, Note_on_c, 4, 60, 0
6, 99120, Note_on_c, 4, 60, 90
6, 99179, Note_on_c, 4, 60, 0
6, 99180, Note_on_c, 4, 60, 90
6, 99239, Note_on_c, 4, 60, 0
6, 99240, Note_on_c, 4, 60, 90
6, 99299, Note_on_c, 4, 60, 0
6, 99300, Note_on_c, 4, 60, 90
6, 99359, Note_on_c, 4, 60, 0
6, 99360, Note_on_c, 4, 60, 90
6, 99419, Note_on_c, 4, 60, 0
6, 99420, Note_on_c, 4, 60, 90
6, 99479, Note_on_c, 4, 60, 0
6, 99480, Note_on_c, 4, 60, 90
6, 99539, Note_on_c, 4, 60, 0
6, 99540, Note_on_c, 4, 60, 90
6, 99599, Note_on_c, 4, 60, 0
6, 99600, Note_on_c, 4, 67, 90
6, 99659, Note_on_c, 4, 67, 0
6, 99660, Note_on_c, 4, 67, 90
6, 99719, Note_on_c, 4, 67, 0
6, 99720, Note_on_c, 4, 67, 90
6, 99779, Note_on_c, 4, 67, 0
6, 99780, Note_on_c, 4, 67, 90
6, 99839, Note_on_c, 4, 67, 0
6, 99840, Note_on_c, 4, 69, 90
6, 99899, Note_on_c, 4, 69, 0
6, 99900, Note_on_c, 4, 69, 90
6, 99959, Note_on_c, 4, 69, 0
6, 99960, Note_on_c, 4, 69, 90
6, 100019, Note_on_c, 4, 69, 0
6, 100020, Note_on_c, 4, 69, 90
6, 100079, Note_on_c, 4, 69, 0
6, 100080, Note_on_c, 4, 57, 90
6, 100139, Note_on_c, 4, 57, 0
6, 100140, Note_on_c, 4, 57, 90
6, 100199, Note_on_c, 4, 57, 0
6, 100200, Note_on_c, 4, 57, 90
6, 100259, Note_on_c, 4, 57, 0
6, 100260, Note_on_c, 4, 57, 90
6, 100319, Note_on_c, 4, 57, 0
6, 100320, Note_on_c, 4, 62, 90
6, 100379, Note_on_c, 4, 62, 0
6, 100380, Note_on_c, 4, 62, 90
6, 100439, Note_on_c, 4, 62, 0
6, 100440, Note_on_c, 4, 62, 90
6, 100499, Note_on_c, 4, 62, 0
6, 100500, Note_on_c, 4, 62, 90
6, 100559, Note_on_c, 4, 62, 0
6, 100560, Note_on_c, 4, 67, 90
6, 100619, Note_on_c, 4, 67, 0
6, 100620, Note_on_c, 4, 67, 90
6, 100679, Note_on_c, 4, 67, 0
6, 100680, Note_on_c, 4, 67, 90
6, 100739, Note_on_c, 4, 67, 0
6, 100740, Note_on_c, 4, 67, 90
6, 100799, Note_on_c, 4, 67, 0
6, 100800, Note_on_c, 4, 67, 90
6, 100859, Note_on_c, 4, 67, 0
6, 100860, Note_on_c, 4, 55, 90
6, 100919, Note_on_c, 4, 55, 0
6, 100920, Note_on_c, 4, 62, 90
6, 100979, Note_on_c, 4, 62, 0
6, 100980, Note_on_c, 4, 62, 90
6, 101039, Note_on_c, 4, 62, 0
6, 101040, Note_on_c, 4, 62, 90
6, 101279, Note_on_c, 4, 62, 0
6, 101520, Note_on_c, 4, 62, 90
6, 101609, Note_on_c, 4, 62, 0
6, 101610, Note_on_c, 4, 64, 90
6, 101624, Note_on_c, 4, 64, 0
6, 101625, Note_on_c, 4, 65, 90
6, 101639, Note_on_c, 4, 65, 0
6, 101640, Note_on_c, 4, 64, 90
6, 101669, Note_on_c, 4, 64, 0
6, 101670, Note_on_c, 4, 62, 90
6, 101699, Note_on_c, 4, 62, 0
6, 101700, Note_on_c, 4, 60, 90
6, 101729, Note_on_c, 4, 60, 0
6, 101730, Note_on_c, 4, 59, 90
6, 101759, Note_on_c, 4, 59, 0
6, 101760, Note_on_c, 4, 60, 90
6, 101819, Note_on_c, 4, 60, 0
6, 101820, Note_on_c, 4, 57, 90
6, 101879, Note_on_c, 4, 57, 0
6, 101880, Note_on_c, 4, 59, 90
6, 101939, Note_on_c, 4, 59, 0
6, 101940, Note_on_c, 4, 62, 90
6, 101999, Note_on_c, 4, 62, 0
6, 102000, Note_on_c, 4, 55, 90
6, 102059, Note_on_c, 4, 55, 0
6, 102060, Note_on_c, 4, 59, 90
6, 102119, Note_on_c, 4, 59, 0
6, 102120, Note_on_c, 4, 62, 90
6, 102179, Note_on_c, 4, 62, 0
6, 102180, Note_on_c, 4, 65, 90
6, 102239, Note_on_c, 4, 65, 0
6, 102240, Note_on_c, 4, 64, 90
6, 102479, Note_on_c, 4, 64, 0
6, 102480, Note_on_c, 4, 66, 90
6, 103199, Note_on_c, 4, 66, 0
6, 103200, Note_on_c, 4, 67, 90
6, 103259, Note_on_c, 4, 67, 0
6, 103260, Note_on_c, 4, 66, 90
6, 103319, Note_on_c, 4, 66, 0
6, 103320, Note_on_c, 4, 67, 90
6, 103439, Note_on_c, 4, 67, 0
6, 103440, Note_on_c, 4, 59, 90
6, 103499, Note_on_c, 4, 59, 0
6, 103500, Note_on_c, 4, 60, 90
6, 103559, Note_on_c, 4, 60, 0
6, 103560, Note_on_c, 4, 60, 90
6, 103619, Note_on_c, 4, 60, 0
6, 103620, Note_on_c, 4, 57, 90
6, 103679, Note_on_c, 4, 57, 0
6, 103680, Note_on_c, 4, 57, 90
6, 103739, Note_on_c, 4, 57, 0
6, 103740, Note_on_c, 4, 59, 90
6, 103769, Note_on_c, 4, 59, 0
6, 103770, Note_on_c, 4, 57, 90
6, 103799, Note_on_c, 4, 57, 0
6, 103800, Note_on_c, 4, 59, 90
6, 103859, Note_on_c, 4, 59, 0
6, 103860, Note_on_c, 4, 59, 90
6, 103919, Note_on_c, 4, 59, 0
6, 103920, Note_on_c, 4, 59, 90
6, 103979, Note_on_c, 4, 59, 0
6, 103980, Note_on_c, 4, 60, 90
6, 104039, Note_on_c, 4, 60, 0
6, 104040, Note_on_c, 4, 60, 90
6, 104099, Note_on_c, 4, 60, 0
6, 104100, Note_on_c, 4, 62, 90
6, 104159, Note_on_c, 4, 62, 0
6, 104160, Note_on_c, 4, 62, 90
6, 104399, Note_on_c, 4, 62, 0
6, 104400, Note_on_c, 4, 60, 90
6, 104429, Note_on_c, 4, 60, 0
6, 104520, Note_on_c, 4, 64, 90
6, 104549, Note_on_c, 4, 64, 0
6, 104640, Note_on_c, 4, 66, 90
6, 104669, Note_on_c, 4, 66, 0
6, 104760, Note_on_c, 4, 66, 90
6, 104789, Note_on_c, 4, 66, 0
6, 104880, Note_on_c, 4, 64, 90
6, 104939, Note_on_c, 4, 64, 0
6, 104940, Note_on_c, 4, 67, 90
6, 104999, Note_on_c, 4, 67, 0
6, 105000, Note_on_c, 4, 67, 90
6, 105059, Note_on_c, 4, 67, 0
6, 105060, Note_on_c, 4, 66, 90
6, 105119, Note_on_c, 4, 66, 0
6, 105120, Note_on_c, 4, 67, 90
6, 105149, Note_on_c, 4, 67, 0
6, 105240, Note_on_c, 4, 67, 90
6, 105269, Note_on_c, 4, 67, 0
6, 105360, Note_on_c, 4, 66, 90
6, 105389, Note_on_c, 4, 66, 0
6, 105600, Note_on_c, 4, 66, 90
6, 105629, Note_on_c, 4, 66, 0
6, 105720, Note_on_c, 4, 69, 90
6, 105749, Note_on_c, 4, 69, 0
6, 105840, Note_on_c, 4, 74, 90
6, 105869, Note_on_c, 4, 74, 0
6, 106080, Note_on_c, 4, 71, 90
6, 106380, Note_on_c, 4, 71, 0
6, 106380, Note_on_c, 4, 69, 90
6, 106409, Note_on_c, 4, 69, 0
6, 106410, Note_on_c, 4, 68, 90
6, 106439, Note_on_c, 4, 68, 0
6, 106440, Note_on_c, 4, 69, 90
6, 106499, Note_on_c, 4, 69, 0
6, 106500, Note_on_c, 4, 67, 90
6, 106559, Note_on_c, 4, 67, 0
6, 106560, Note_on_c, 4, 64, 90
6, 106860, Note_on_c, 4, 64, 0
6, 106860, Note_on_c, 4, 62, 90
6, 106889, Note_on_c, 4, 62, 0
6, 106890, Note_on_c, 4, 61, 90
6, 106919, Note_on_c, 4, 61, 0
6, 106920, Note_on_c, 4, 62, 90
6, 106979, Note_on_c, 4, 62, 0
6, 106980, Note_on_c, 4, 60, 90
6, 107039, Note_on_c, 4, 60, 0
6, 107040, Note_on_c, 4, 57, 90
6, 107159, Note_on_c, 4, 57, 0
6, 107160, Note_on_c, 4, 69, 90
6, 107339, Note_on_c, 4, 69, 0
6, 107340, Note_on_c, 4, 67, 90
6, 107369, Note_on_c, 4, 67, 0
6, 107370, Note_on_c, 4, 66, 90
6, 107399, Note_on_c, 4, 66, 0
6, 107400, Note_on_c, 4, 67, 90
6, 107459, Note_on_c, 4, 67, 0
6, 107460, Note_on_c, 4, 67, 90
6, 107579, Note_on_c, 4, 67, 0
6, 107580, Note_on_c, 4, 67, 90
6, 107699, Note_on_c, 4, 67, 0
6, 107700, Note_on_c, 4, 66, 90
6, 107759, Note_on_c, 4, 66, 0
6, 107760, Note_on_c, 4, 67, 90
6, 107879, Note_on_c, 4, 67, 0
6, 107880, Note_on_c, 4, 66, 90
6, 107909, Note_on_c, 4, 66, 0
6, 107910, Note_on_c, 4, 64, 90
6, 107939, Note_on_c, 4, 64, 0
6, 107940, Note_on_c, 4, 62, 90
6, 107969, Note_on_c, 4, 62, 0
6, 107970, Note_on_c, 4, 60, 90
6, 107999, Note_on_c, 4, 60, 0
6, 108000, Note_on_c, 4, 60, 90
6, 108119, Note_on_c, 4, 60, 0
6, 114720, Note_on_c, 4, 62, 90
6, 114779, Note_on_c, 4, 62, 0
6, 114840, Note_on_c, 4, 62, 90
6, 114899, Note_on_c, 4, 62, 0
6, 114960, Note_on_c, 4, 57, 90
6, 115019, Note_on_c, 4, 57, 0
6, 115200, Note_on_c, 4, 61, 90
6, 115259, Note_on_c, 4, 61, 0
6, 115320, Note_on_c, 4, 64, 90
6, 115379, Note_on_c, 4, 64, 0
6, 115440, Note_on_c, 4, 69, 90
6, 115499, Note_on_c, 4, 69, 0
6, 115680, Note_on_c, 4, 66, 90
6, 115980, Note_on_c, 4, 66, 0
6, 115980, Note_on_c, 4, 64, 90
6, 116009, Note_on_c, 4, 64, 0
6, 116010, Note_on_c, 4, 63, 90
6, 116039, Note_on_c, 4, 63, 0
6, 116040, Note_on_c, 4, 64, 90
6, 116099, Note_on_c, 4, 64, 0
6, 116100, Note_on_c, 4, 62, 90
6, 116159, Note_on_c, 4, 62, 0
6, 116160, Note_on_c, 4, 59, 90
6, 116460, Note_on_c, 4, 59, 0
6, 116460, Note_on_c, 4, 57, 90
6, 116489, Note_on_c, 4, 57, 0
6, 116490, Note_on_c, 4, 56, 90
6, 116519, Note_on_c, 4, 56, 0
6, 116520, Note_on_c, 4, 57, 90
6, 116579, Note_on_c, 4, 57, 0
6, 116580, Note_on_c, 4, 67, 90
6, 116639, Note_on_c, 4, 67, 0
6, 116640, Note_on_c, 4, 64, 90
6, 116940, Note_on_c, 4, 64, 0
6, 116940, Note_on_c, 4, 62, 90
6, 116969, Note_on_c, 4, 62, 0
6, 116970, Note_on_c, 4, 61, 90
6, 116999, Note_on_c, 4, 61, 0
6, 117000, Note_on_c, 4, 62, 90
6, 117059, Note_on_c, 4, 62, 0
6, 117060, Note_on_c, 4, 62, 90
6, 117179, Note_on_c, 4, 62, 0
6, 117180, Note_on_c, 4, 67, 90
6, 117209, Note_on_c, 4, 67, 0
6, 117210, Note_on_c, 4, 66, 90
6, 117239, Note_on_c, 4, 66, 0
6, 117240, Note_on_c, 4, 64, 90
6, 117299, Note_on_c, 4, 64, 0
6, 117300, Note_on_c, 4, 69, 90
6, 117419, Note_on_c, 4, 69, 0
6, 117420, Note_on_c, 4, 74, 90
6, 117479, Note_on_c, 4, 74, 0
6, 117480, Note_on_c, 4, 73, 90
6, 117509, Note_on_c, 4, 73, 0
6, 117510, Note_on_c, 4, 71, 90
6, 117539, Note_on_c, 4, 71, 0
6, 117540, Note_on_c, 4, 69, 90
6, 117569, Note_on_c, 4, 69, 0
6, 117570, Note_on_c, 4, 67, 90
6, 117599, Note_on_c, 4, 67, 0
6, 117600, Note_on_c, 4, 66, 90
6, 117719, Note_on_c, 4, 66, 0
6, 124560, Note_on_c, 4, 62, 90
6, 124649, Note_on_c, 4, 62, 0
6, 124650, Note_on_c, 4, 64, 90
6, 124664, Note_on_c, 4, 64, 0
6, 124665, Note_on_c, 4, 65, 90
6, 124679, Note_on_c, 4, 65, 0
6, 124680, Note_on_c, 4, 64, 90
6, 124709, Note_on_c, 4, 64, 0
6, 124710, Note_on_c, 4, 62, 90
6, 124739, Note_on_c, 4, 62, 0
6, 124740, Note_on_c, 4, 60, 90
6, 124769, Note_on_c, 4, 60, 0
6, 124770, Note_on_c, 4, 59, 90
6, 124799, Note_on_c, 4, 59, 0
6, 124800, Note_on_c, 4, 60, 90
6, 124859, Note_on_c, 4, 60, 0
6, 124860, Note_on_c, 4, 57, 90
6, 124919, Note_on_c, 4, 57, 0
6, 124920, Note_on_c, 4, 59, 90
6, 124979, Note_on_c, 4, 59, 0
6, 124980, Note_on_c, 4, 62, 90
6, 125039, Note_on_c, 4, 62, 0
6, 125040, Note_on_c, 4, 55, 90
6, 125099, Note_on_c, 4, 55, 0
6, 125100, Note_on_c, 4, 59, 90
6, 125159, Note_on_c, 4, 59, 0
6, 125160, Note_on_c, 4, 62, 90
6, 125219, Note_on_c, 4, 62, 0
6, 125220, Note_on_c, 4, 65, 90
6, 125279, Note_on_c, 4, 65, 0
6, 125280, Note_on_c, 4, 64, 90
6, 125519, Note_on_c, 4, 64, 0
6, 125520, Note_on_c, 4, 66, 90
6, 126239, Note_on_c, 4, 66, 0
6, 126240, Note_on_c, 4, 67, 90
6, 126299, Note_on_c, 4, 67, 0
6, 126300, Note_on_c, 4, 66, 90
6, 126359, Note_on_c, 4, 66, 0
6, 126360, Note_on_c, 4, 67, 90
6, 126479, Note_on_c, 4, 67, 0
6, 126480, Note_on_c, 4, 59, 90
6, 126539, Note_on_c, 4, 59, 0
6, 126540, Note_on_c, 4, 60, 90
6, 126599, Note_on_c, 4, 60, 0
6, 126600, Note_on_c, 4, 60, 90
6, 126659, Note_on_c, 4, 60, 0
6, 126660, Note_on_c, 4, 57, 90
6, 126719, Note_on_c, 4, 57, 0
6, 126720, Note_on_c, 4, 57, 90
6, 126779, Note_on_c, 4, 57, 0
6, 126780, Note_on_c, 4, 59, 90
6, 126809, Note_on_c, 4, 59, 0
6, 126810, Note_on_c, 4, 57, 90
6, 126839, Note_on_c, 4, 57, 0
6, 126840, Note_on_c, 4, 59, 90
6, 126899, Note_on_c, 4, 59, 0
6, 126900, Note_on_c, 4, 59, 90
6, 126959, Note_on_c, 4, 59, 0
6, 126960, Note_on_c, 4, 59, 90
6, 127019, Note_on_c, 4, 59, 0
6, 127020, Note_on_c, 4, 60, 90
6, 127079, Note_on_c, 4, 60, 0
6, 127080, Note_on_c, 4, 60, 90
6, 127139, Note_on_c, 4, 60, 0
6, 127140, Note_on_c, 4, 62, 90
6, 127199, Note_on_c, 4, 62, 0
6, 127200, Note_on_c, 4, 62, 90
6, 127439, Note_on_c, 4, 62, 0
6, 127440, Note_on_c, 4, 60, 90
6, 127499, Note_on_c, 4, 60, 0
6, 127560, Note_on_c, 4, 64, 90
6, 127619, Note_on_c, 4, 64, 0
6, 127680, Note_on_c, 4, 66, 90
6, 127739, Note_on_c, 4, 66, 0
6, 127800, Note_on_c, 4, 66, 90
6, 127859, Note_on_c, 4, 66, 0
6, 127920, Note_on_c, 4, 64, 90
6, 127979, Note_on_c, 4, 64, 0
6, 127980, Note_on_c, 4, 67, 90
6, 128039, Note_on_c, 4, 67, 0
6, 128040, Note_on_c, 4, 67, 90
6, 128099, Note_on_c, 4, 67, 0
6, 128100, Note_on_c, 4, 66, 90
6, 128159, Note_on_c, 4, 66, 0
6, 128160, Note_on_c, 4, 62, 90
6, 128399, Note_on_c, 4, 62, 0
6, 138000, Note_on_c, 4, 62, 90
6, 138089, Note_on_c, 4, 62, 0
6, 138090, Note_on_c, 4, 64, 90
6, 138104, Note_on_c, 4, 64, 0
6, 138105, Note_on_c, 4, 65, 90
6, 138119, Note_on_c, 4, 65, 0
6, 138120, Note_on_c, 4, 64, 90
6, 138149, Note_on_c, 4, 64, 0
6, 138150, Note_on_c, 4, 62, 90
6, 138179, Note_on_c, 4, 62, 0
6, 138180, Note_on_c, 4, 60, 90
6, 138209, Note_on_c, 4, 60, 0
6, 138210, Note_on_c, 4, 59, 90
6, 138239, Note_on_c, 4, 59, 0
6, 138240, Note_on_c, 4, 60, 90
6, 138299, Note_on_c, 4, 60, 0
6, 138300, Note_on_c, 4, 57, 90
6, 138359, Note_on_c, 4, 57, 0
6, 138360, Note_on_c, 4, 59, 90
6, 138419, Note_on_c, 4, 59, 0
6, 138420, Note_on_c, 4, 62, 90
6, 138479, Note_on_c, 4, 62, 0
6, 138480, Note_on_c, 4, 55, 90
6, 138539, Note_on_c, 4, 55, 0
6, 138540, Note_on_c, 4, 59, 90
6, 138599, Note_on_c, 4, 59, 0
6, 138600, Note_on_c, 4, 62, 90
6, 138659, Note_on_c, 4, 62, 0
6, 138660, Note_on_c, 4, 65, 90
6, 138719, Note_on_c, 4, 65, 0
6, 138720, Note_on_c, 4, 64, 90
6, 138959, Note_on_c, 4, 64, 0
6, 138960, Note_on_c, 4, 66, 90
6, 139679, Note_on_c, 4, 66, 0
6, 139680, Note_on_c, 4, 67, 90
6, 139739, Note_on_c, 4, 67, 0
6, 139740, Note_on_c, 4, 66, 90
6, 139799, Note_on_c, 4, 66, 0
6, 139800, Note_on_c, 4, 67, 90
6, 139919, Note_on_c, 4, 67, 0
6, 139920, Note_on_c, 4, 59, 90
6, 139979, Note_on_c, 4, 59, 0
6, 139980, Note_on_c, 4, 60, 90
6, 140039, Note_on_c, 4, 60, 0
6, 140040, Note_on_c, 4, 60, 90
6, 140099, Note_on_c, 4, 60, 0
6, 140100, Note_on_c, 4, 57, 90
6, 140159, Note_on_c, 4, 57, 0
6, 140160, Note_on_c, 4, 57, 90
6, 140219, Note_on_c, 4, 57, 0
6, 140220, Note_on_c, 4, 59, 90
6, 140249, Note_on_c, 4, 59, 0
6, 140250, Note_on_c, 4, 57, 90
6, 140279, Note_on_c, 4, 57, 0
6, 140280, Note_on_c, 4, 59, 90
6, 140339, Note_on_c, 4, 59, 0
6, 140340, Note_on_c, 4, 59, 90
6, 140399, Note_on_c, 4, 59, 0
6, 140400, Note_on_c, 4, 59, 90
6, 140459, Note_on_c, 4, 59, 0
6, 140460, Note_on_c, 4, 60, 90
6, 140519, Note_on_c, 4, 60, 0
6, 140520, Note_on_c, 4, 60, 90
6, 140579, Note_on_c, 4, 60, 0
6, 140580, Note_on_c, 4, 62, 90
6, 140639, Note_on_c, 4, 62, 0
6, 140640, Note_on_c, 4, 62, 90
6, 140879, Note_on_c, 4, 62, 0
6, 140880, Note_on_c, 4, 60, 90
6, 140909, Note_on_c, 4, 60, 0
6, 141000, Note_on_c, 4, 64, 90
6, 141029, Note_on_c, 4, 64, 0
6, 141120, Note_on_c, 4, 66, 90
6, 141149, Note_on_c, 4, 66, 0
6, 141240, Note_on_c, 4, 66, 90
6, 141269, Note_on_c, 4, 66, 0
6, 141360, Note_on_c, 4, 64, 90
6, 141419, Note_on_c, 4, 64, 0
6, 141420, Note_on_c, 4, 67, 90
6, 141479, Note_on_c, 4, 67, 0
6, 141480, Note_on_c, 4, 67, 90
6, 141539, Note_on_c, 4, 67, 0
6, 141540, Note_on_c, 4, 66, 90
6, 141599, Note_on_c, 4, 66, 0
6, 141600, Note_on_c, 4, 67, 90
6, 141629, Note_on_c, 4, 67, 0
6, 141720, Note_on_c, 4, 67, 90
6, 141749, Note_on_c, 4, 67, 0
6, 141840, Note_on_c, 4, 66, 90
6, 141869, Note_on_c, 4, 66, 0
6, 142080, Note_on_c, 4, 66, 90
6, 142109, Note_on_c, 4, 66, 0
6, 142200, Note_on_c, 4, 69, 90
6, 142229, Note_on_c, 4, 69, 0
6, 142320, Note_on_c, 4, 74, 90
6, 142349, Note_on_c, 4, 74, 0
6, 142560, Note_on_c, 4, 71, 90
6, 142860, Note_on_c, 4, 71, 0
6, 142860, Note_on_c, 4, 69, 90
6, 142889, Note_on_c, 4, 69, 0
6, 142890, Note_on_c, 4, 68, 90
6, 142919, Note_on_c, 4, 68, 0
6, 142920, Note_on_c, 4, 69, 90
6, 142979, Note_on_c, 4, 69, 0
6, 142980, Note_on_c, 4, 67, 90
6, 143039, Note_on_c, 4, 67, 0
6, 143040, Note_on_c, 4, 64, 90
6, 143340, Note_on_c, 4, 64, 0
6, 143340, Note_on_c, 4, 62, 90
6, 143369, Note_on_c, 4, 62, 0
6, 143370, Note_on_c, 4, 61, 90
6, 143399, Note_on_c, 4, 61, 0
6, 143400, Note_on_c, 4, 62, 90
6, 143459, Note_on_c, 4, 62, 0
6, 143460, Note_on_c, 4, 60, 90
6, 143519, Note_on_c, 4, 60, 0
6, 143520, Note_on_c, 4, 57, 90
6, 143639, Note_on_c, 4, 57, 0
6, 143640, Note_on_c, 4, 69, 90
6, 143819, Note_on_c, 4, 69, 0
6, 143820, Note_on_c, 4, 67, 90
6, 143849, Note_on_c, 4, 67, 0
6, 143850, Note_on_c, 4, 66, 90
6, 143879, Note_on_c, 4, 66, 0
6, 143880, Note_on_c, 4, 67, 90
6, 143939, Note_on_c, 4, 67, 0
6, 143940, Note_on_c, 4, 67, 90
6, 144059, Note_on_c, 4, 67, 0
6, 144060, Note_on_c, 4, 67, 90
6, 144179, Note_on_c, 4, 67, 0
6, 144180, Note_on_c, 4, 66, 90
6, 144239, Note_on_c, 4, 66, 0
6, 144240, Note_on_c, 4, 67, 90
6, 144359, Note_on_c, 4, 67, 0
6, 144360, Note_on_c, 4, 66, 90
6, 144389, Note_on_c, 4, 66, 0
6, 144390, Note_on_c, 4, 64, 90
6, 144419, Note_on_c, 4, 64, 0
6, 144420, Note_on_c, 4, 62, 90
6, 144449, Note_on_c, 4, 62, 0
6, 144450, Note_on_c, 4, 60, 90
6, 144479, Note_on_c, 4, 60, 0
6, 144480, Note_on_c, 4, 60, 90
6, 144599, Note_on_c, 4, 60, 0
6, 151200, Note_on_c, 4, 62, 90
6, 151259, Note_on_c, 4, 62, 0
6, 151320, Note_on_c, 4, 62, 90
6, 151379, Note_on_c, 4, 62, 0
6, 151440, Note_on_c, 4, 57, 90
6, 151499, Note_on_c, 4, 57, 0
6, 151680, Note_on_c, 4, 61, 90
6, 151739, Note_on_c, 4, 61, 0
6, 151800, Note_on_c, 4, 64, 90
6, 151859, Note_on_c, 4, 64, 0
6, 151920, Note_on_c, 4, 69, 90
6, 151979, Note_on_c, 4, 69, 0
6, 152160, Note_on_c, 4, 66, 90
6, 152460, Note_on_c, 4, 66, 0
6, 152460, Note_on_c, 4, 64, 90
6, 152489, Note_on_c, 4, 64, 0
6, 152490, Note_on_c, 4, 63, 90
6, 152519, Note_on_c, 4, 63, 0
6, 152520, Note_on_c, 4, 64, 90
6, 152579, Note_on_c, 4, 64, 0
6, 152580, Note_on_c, 4, 62, 90
6, 152639, Note_on_c, 4, 62, 0
6, 152640, Note_on_c, 4, 59, 90
6, 152940, Note_on_c, 4, 59, 0
6, 152940, Note_on_c, 4, 57, 90
6, 152969, Note_on_c, 4, 57, 0
6, 152970, Note_on_c, 4, 56, 90
6, 152999, Note_on_c, 4, 56, 0
6, 153000, Note_on_c, 4, 57, 90
6, 153059, Note_on_c, 4, 57, 0
6, 153060, Note_on_c, 4, 67, 90
6, 153119, Note_on_c, 4, 67, 0
6, 153120, Note_on_c, 4, 64, 90
6, 153420, Note_on_c, 4, 64, 0
6, 153420, Note_on_c, 4, 62, 90
6, 153449, Note_on_c, 4, 62, 0
6, 153450, Note_on_c, 4, 61, 90
6, 153479, Note_on_c, 4, 61, 0
6, 153480, Note_on_c, 4, 62, 90
6, 153539, Note_on_c, 4, 62, 0
6, 153540, Note_on_c, 4, 62, 90
6, 153659, Note_on_c, 4, 62, 0
6, 153660, Note_on_c, 4, 67, 90
6, 153689, Note_on_c, 4, 67, 0
6, 153690, Note_on_c, 4, 66, 90
6, 153719, Note_on_c, 4, 66, 0
6, 153720, Note_on_c, 4, 64, 90
6, 153779, Note_on_c, 4, 64, 0
6, 153780, Note_on_c, 4, 69, 90
6, 153899, Note_on_c, 4, 69, 0
6, 153900, Note_on_c, 4, 74, 90
6, 153959, Note_on_c, 4, 74, 0
6, 153960, Note_on_c, 4, 73, 90
6, 153989, Note_on_c, 4, 73, 0
6, 153990, Note_on_c, 4, 71, 90
6, 154019, Note_on_c, 4, 71, 0
6, 154020, Note_on_c, 4, 69, 90
6, 154049, Note_on_c, 4, 69, 0
6, 154050, Note_on_c, 4, 67, 90
6, 154079, Note_on_c, 4, 67, 0
6, 154080, Note_on_c, 4, 66, 90
6, 154199, Note_on_c, 4, 66, 0
6, 161040, Note_on_c, 4, 62, 90
6, 161129, Note_on_c, 4, 62, 0
6, 161130, Note_on_c, 4, 64, 90
6, 161144, Note_on_c, 4, 64, 0
6, 161145, Note_on_c, 4, 65, 90
6, 161159, Note_on_c, 4, 65, 0
6, 161160, Note_on_c, 4, 64, 90
6, 161189, Note_on_c, 4, 64, 0
6, 161190, Note_on_c, 4, 62, 90
6, 161219, Note_on_c, 4, 62, 0
6, 161220, Note_on_c, 4, 60, 90
6, 161249, Note_on_c, 4, 60, 0
6, 161250, Note_on_c, 4, 59, 90
6, 161279, Note_on_c, 4, 59, 0
6, 161280, Note_on_c, 4, 60, 90
6, 161339, Note_on_c, 4, 60, 0
6, 161340, Note_on_c, 4, 57, 90
6, 161399, Note_on_c, 4, 57, 0
6, 161400, Note_on_c, 4, 59, 90
6, 161459, Note_on_c, 4, 59, 0
6, 161460, Note_on_c, 4, 62, 90
6, 161519, Note_on_c, 4, 62, 0
6, 161520, Note_on_c, 4, 55, 90
6, 161579, Note_on_c, 4, 55, 0
6, 161580, Note_on_c, 4, 59, 90
6, 161639, Note_on_c, 4, 59, 0
6, 161640, Note_on_c, 4, 62, 90
6, 161699, Note_on_c, 4, 62, 0
6, 161700, Note_on_c, 4, 65, 90
6, 161759, Note_on_c, 4, 65, 0
6, 161760, Note_on_c, 4, 64, 90
6, 161999, Note_on_c, 4, 64, 0
6, 162000, Note_on_c, 4, 66, 90
6, 162719, Note_on_c, 4, 66, 0
6, 162720, Note_on_c, 4, 67, 90
6, 162779, Note_on_c, 4, 67, 0
6, 162780, Note_on_c, 4, 66, 90
6, 162839, Note_on_c, 4, 66, 0
6, 162840, Note_on_c, 4, 67, 90
6, 162959, Note_on_c, 4, 67, 0
6, 162960, Note_on_c, 4, 59, 90
6, 163019, Note_on_c, 4, 59, 0
6, 163020, Note_on_c, 4, 60, 90
6, 163079, Note_on_c, 4, 60, 0
6, 163080, Note_on_c, 4, 60, 90
6, 163139, Note_on_c, 4, 60, 0
6, 163140, Note_on_c, 4, 57, 90
6, 163199, Note_on_c, 4, 57, 0
6, 163200, Note_on_c, 4, 57, 90
6, 163259, Note_on_c, 4, 57, 0
6, 163260, Note_on_c, 4, 59, 90
6, 163289, Note_on_c, 4, 59, 0
6, 163290, Note_on_c, 4, 57, 90
6, 163319, Note_on_c, 4, 57, 0
6, 163320, Note_on_c, 4, 59, 90
6, 163379, Note_on_c, 4, 59, 0
6, 163380, Note_on_c, 4, 59, 90
6, 163439, Note_on_c, 4, 59, 0
6, 163440, Note_on_c, 4, 59, 90
6, 163499, Note_on_c, 4, 59, 0
6, 163500, Note_on_c, 4, 60, 90
6, 163559, Note_on_c, 4, 60, 0
6, 163560, Note_on_c, 4, 60, 90
6, 163619, Note_on_c, 4, 60, 0
6, 163620, Note_on_c, 4, 62, 90
6, 163679, Note_on_c, 4, 62, 0
6, 163680, Note_on_c, 4, 62, 90
6, 163919, Note_on_c, 4, 62, 0
6, 163920, Note_on_c, 4, 60, 90
6, 163979, Note_on_c, 4, 60, 0
6, 164040, Note_on_c, 4, 64, 90
6, 164099, Note_on_c, 4, 64, 0
6, 164160, Note_on_c, 4, 66, 90
6, 164219, Note_on_c, 4, 66, 0
6, 164280, Note_on_c, 4, 66, 90
6, 164339, Note_on_c, 4, 66, 0
6, 164400, Note_on_c, 4, 64, 90
6, 164459, Note_on_c, 4, 64, 0
6, 164460, Note_on_c, 4, 67, 90
6, 164519, Note_on_c, 4, 67, 0
6, 164520, Note_on_c, 4, 67, 90
6, 164579, Note_on_c, 4, 67, 0
6, 164580, Note_on_c, 4, 66, 90
6, 164639, Note_on_c, 4, 66, 0
6, 164640, Note_on_c, 4, 62, 90
6, 164879, Note_on_c, 4, 62, 0
6, 167280, Note_on_c, 4, 71, 90
6, 167340, Note_on_c, 4, 71, 0
6, 167460, Note_on_c, 4, 71, 90
6, 167490, Note_on_c, 4, 71, 0
6, 167520, Note_on_c, 4, 69, 90
6, 167550, Note_on_c, 4, 69, 0
6, 167700, Note_on_c, 4, 69, 90
6, 167730, Note_on_c, 4, 69, 0
6, 167760, Note_on_c, 4, 62, 90
6, 167790, Note_on_c, 4, 62, 0
6, 167940, Note_on_c, 4, 62, 90
6, 167970, Note_on_c, 4, 62, 0
6, 168000, Note_on_c, 4, 55, 90
6, 168030, Note_on_c, 4, 55, 0
6, 168180, Note_on_c, 4, 64, 90
6, 168210, Note_on_c, 4, 64, 0
6, 168240, Note_on_c, 4, 57, 90
6, 168270, Note_on_c, 4, 57, 0
6, 168420, Note_on_c, 4, 57, 90
6, 168450, Note_on_c, 4, 57, 0
6, 168480, Note_on_c, 4, 64, 90
6, 168510, Note_on_c, 4, 64, 0
6, 168660, Note_on_c, 4, 64, 90
6, 168690, Note_on_c, 4, 64, 0
6, 168720, Note_on_c, 4, 64, 90
6, 168750, Note_on_c, 4, 64, 0
6, 168900, Note_on_c, 4, 64, 90
6, 168930, Note_on_c, 4, 64, 0
6, 168960, Note_on_c, 4, 62, 90
6, 168990, Note_on_c, 4, 62, 0
6, 169140, Note_on_c, 4, 62, 90
6, 169170, Note_on_c, 4, 62, 0
6, 169200, Note_on_c, 4, 69, 90
6, 169230, Note_on_c, 4, 69, 0
6, 169380, Note_on_c, 4, 71, 90
6, 169410, Note_on_c, 4, 71, 0
6, 169440, Note_on_c, 4, 71, 90
6, 169470, Note_on_c, 4, 71, 0
6, 169620, Note_on_c, 4, 69, 90
6, 169650, Note_on_c, 4, 69, 0
6, 169680, Note_on_c, 4, 69, 90
6, 169710, Note_on_c, 4, 69, 0
6, 169860, Note_on_c, 4, 64, 90
6, 169890, Note_on_c, 4, 64, 0
6, 169920, Note_on_c, 4, 64, 90
6, 169950, Note_on_c, 4, 64, 0
6, 170100, Note_on_c, 4, 69, 90
6, 170130, Note_on_c, 4, 69, 0
6, 170160, Note_on_c, 4, 67, 90
6, 170190, Note_on_c, 4, 67, 0
6, 170340, Note_on_c, 4, 67, 90
6, 170370, Note_on_c, 4, 67, 0
6, 170400, Note_on_c, 4, 66, 90
6, 170430, Note_on_c, 4, 66, 0
6, 170580, Note_on_c, 4, 66, 90
6, 170610, Note_on_c, 4, 66, 0
6, 170640, Note_on_c, 4, 67, 90
6, 170670, Note_on_c, 4, 67, 0
6, 170820, Note_on_c, 4, 67, 90
6, 170850, Note_on_c, 4, 67, 0
6, 170880, Note_on_c, 4, 66, 90
6, 170910, Note_on_c, 4, 66, 0
6, 171060, Note_on_c, 4, 64, 90
6, 171090, Note_on_c, 4, 64, 0
6, 171120, Note_on_c, 4, 66, 90
6, 171150, Note_on_c, 4, 66, 0
6, 171300, Note_on_c, 4, 66, 90
6, 171330, Note_on_c, 4, 66, 0
6, 171360, Note_on_c, 4, 59, 90
6, 171390, Note_on_c, 4, 59, 0
6, 171540, Note_on_c, 4, 67, 90
6, 171570, Note_on_c, 4, 67, 0
6, 171600, Note_on_c, 4, 66, 90
6, 171630, Note_on_c, 4, 66, 0
6, 171780, Note_on_c, 4, 64, 90
6, 171810, Note_on_c, 4, 64, 0
6, 171840, Note_on_c, 4, 62, 90
6, 171870, Note_on_c, 4, 62, 0
6, 172020, Note_on_c, 4, 67, 90
6, 172050, Note_on_c, 4, 67, 0
6, 172080, Note_on_c, 4, 71, 90
6, 172110, Note_on_c, 4, 71, 0
6, 172260, Note_on_c, 4, 64, 90
6, 172290, Note_on_c, 4, 64, 0
6, 172320, Note_on_c, 4, 64, 90
6, 172350, Note_on_c, 4, 64, 0
6, 172500, Note_on_c, 4, 62, 90
6, 172530, Note_on_c, 4, 62, 0
6, 172560, Note_on_c, 4, 62, 90
6, 172590, Note_on_c, 4, 62, 0
6, 172740, Note_on_c, 4, 59, 90
6, 172770, Note_on_c, 4, 59, 0
6, 172800, Note_on_c, 4, 60, 90
6, 172830, Note_on_c, 4, 60, 0
6, 172980, Note_on_c, 4, 69, 90
6, 173010, Note_on_c, 4, 69, 0
6, 173040, Note_on_c, 4, 66, 90
6, 173070, Note_on_c, 4, 66, 0
6, 173220, Note_on_c, 4, 64, 90
6, 173250, Note_on_c, 4, 64, 0
6, 173280, Note_on_c, 4, 64, 90
6, 173310, Note_on_c, 4, 64, 0
6, 173460, Note_on_c, 4, 63, 90
6, 173490, Note_on_c, 4, 63, 0
6, 173520, Note_on_c, 4, 63, 90
6, 173550, Note_on_c, 4, 63, 0
6, 173700, Note_on_c, 4, 69, 90
6, 173730, Note_on_c, 4, 69, 0
6, 173760, Note_on_c, 4, 69, 90
6, 173790, Note_on_c, 4, 69, 0
6, 173940, Note_on_c, 4, 67, 90
6, 173970, Note_on_c, 4, 67, 0
6, 174000, Note_on_c, 4, 67, 90
6, 174030, Note_on_c, 4, 67, 0
6, 174180, Note_on_c, 4, 66, 90
6, 174210, Note_on_c, 4, 66, 0
6, 174240, Note_on_c, 4, 66, 90
6, 174270, Note_on_c, 4, 66, 0
6, 174420, Note_on_c, 4, 64, 90
6, 174450, Note_on_c, 4, 64, 0
6, 174480, Note_on_c, 4, 64, 90
6, 174510, Note_on_c, 4, 64, 0
6, 174660, Note_on_c, 4, 63, 90
6, 174690, Note_on_c, 4, 63, 0
6, 174720, Note_on_c, 4, 64, 90
6, 174750, Note_on_c, 4, 64, 0
6, 174900, Note_on_c, 4, 66, 90
6, 174930, Note_on_c, 4, 66, 0
6, 174960, Note_on_c, 4, 67, 90
6, 174990, Note_on_c, 4, 67, 0
6, 175140, Note_on_c, 4, 64, 90
6, 175170, Note_on_c, 4, 64, 0
6, 175200, Note_on_c, 4, 64, 90
6, 175230, Note_on_c, 4, 64, 0
6, 175380, Note_on_c, 4, 62, 90
6, 175410, Note_on_c, 4, 62, 0
6, 175440, Note_on_c, 4, 59, 90
6, 175470, Note_on_c, 4, 59, 0
6, 175620, Note_on_c, 4, 68, 90
6, 175650, Note_on_c, 4, 68, 0
6, 175680, Note_on_c, 4, 64, 90
6, 175710, Note_on_c, 4, 64, 0
6, 175860, Note_on_c, 4, 64, 90
6, 175890, Note_on_c, 4, 64, 0
6, 175920, Note_on_c, 4, 62, 90
6, 175950, Note_on_c, 4, 62, 0
6, 176100, Note_on_c, 4, 62, 90
6, 176130, Note_on_c, 4, 62, 0
6, 176160, Note_on_c, 4, 59, 90
6, 176190, Note_on_c, 4, 59, 0
6, 176340, Note_on_c, 4, 67, 90
6, 176370, Note_on_c, 4, 67, 0
6, 176400, Note_on_c, 4, 60, 90
6, 176430, Note_on_c, 4, 60, 0
6, 176580, Note_on_c, 4, 66, 90
6, 176610, Note_on_c, 4, 66, 0
6, 176640, Note_on_c, 4, 62, 90
6, 176670, Note_on_c, 4, 62, 0
6, 176820, Note_on_c, 4, 67, 90
6, 176850, Note_on_c, 4, 67, 0
6, 176880, Note_on_c, 4, 66, 90
6, 176910, Note_on_c, 4, 66, 0
6, 177060, Note_on_c, 4, 67, 90
6, 177090, Note_on_c, 4, 67, 0
6, 177120, Note_on_c, 4, 67, 90
6, 177150, Note_on_c, 4, 67, 0
6, 177300, Note_on_c, 4, 66, 90
6, 177330, Note_on_c, 4, 66, 0
6, 177360, Note_on_c, 4, 66, 90
6, 177390, Note_on_c, 4, 66, 0
6, 177540, Note_on_c, 4, 64, 90
6, 177570, Note_on_c, 4, 64, 0
6, 177600, Note_on_c, 4, 64, 90
6, 177630, Note_on_c, 4, 64, 0
6, 177780, Note_on_c, 4, 62, 90
6, 177810, Note_on_c, 4, 62, 0
6, 177840, Note_on_c, 4, 62, 90
6, 177870, Note_on_c, 4, 62, 0
6, 178020, Note_on_c, 4, 61, 90
6, 178050, Note_on_c, 4, 61, 0
6, 178080, Note_on_c, 4, 61, 90
6, 178110, Note_on_c, 4, 61, 0
6, 178260, Note_on_c, 4, 59, 90
6, 178290, Note_on_c, 4, 59, 0
6, 178320, Note_on_c, 4, 64, 90
6, 178350, Note_on_c, 4, 64, 0
6, 178500, Note_on_c, 4, 62, 90
6, 178530, Note_on_c, 4, 62, 0
6, 178560, Note_on_c, 4, 61, 90
6, 178590, Note_on_c, 4, 61, 0
6, 178740, Note_on_c, 4, 66, 90
6, 178799, Note_on_c, 4, 66, 0
6, 178800, Note_on_c, 4, 66, 90
6, 178919, Note_on_c, 4, 66, 0
6, 178920, Note_on_c, 4, 67, 90
6, 179159, Note_on_c, 4, 67, 0
6, 179160, Note_on_c, 4, 66, 90
6, 179399, Note_on_c, 4, 66, 0
6, 179400, Note_on_c, 4, 64, 90
6, 179639, Note_on_c, 4, 64, 0
6, 179640, Note_on_c, 4, 63, 90
6, 179759, Note_on_c, 4, 63, 0
6, 179760, Note_on_c, 4, 64, 90
6, 179879, Note_on_c, 4, 64, 0
6, 179880, Note_on_c, 4, 68, 90
6, 179999, Note_on_c, 4, 68, 0
6, 180000, Note_on_c, 4, 69, 90
6, 180239, Note_on_c, 4, 69, 0
6, 180240, Note_on_c, 4, 68, 90
6, 180359, Note_on_c, 4, 68, 0
6, 180360, Note_on_c, 4, 64, 90
6, 180839, Note_on_c, 4, 64, 0
6, 180840, Note_on_c, 4, 61, 90
6, 180959, Note_on_c, 4, 61, 0
6, 180960, Note_on_c, 4, 62, 90
6, 181199, Note_on_c, 4, 62, 0
6, 181200, Note_on_c, 4, 61, 90
6, 181319, Note_on_c, 4, 61, 0
6, 181320, Note_on_c, 4, 62, 90
6, 181559, Note_on_c, 4, 62, 0
6, 181560, Note_on_c, 4, 61, 90
6, 181679, Note_on_c, 4, 61, 0
6, 181680, Note_on_c, 4, 69, 90
6, 181799, Note_on_c, 4, 69, 0
6, 181800, Note_on_c, 4, 65, 90
6, 181919, Note_on_c, 4, 65, 0
6, 181920, Note_on_c, 4, 62, 90
6, 182159, Note_on_c, 4, 62, 0
6, 182160, Note_on_c, 4, 60, 90
6, 182279, Note_on_c, 4, 60, 0
6, 182280, Note_on_c, 4, 55, 90
6, 182399, Note_on_c, 4, 55, 0
6, 182400, Note_on_c, 4, 57, 90
6, 182879, Note_on_c, 4, 57, 0
6, 182880, Note_on_c, 4, 55, 90
6, 182999, Note_on_c, 4, 55, 0
6, 183000, Note_on_c, 4, 62, 90
6, 183119, Note_on_c, 4, 62, 0
6, 183120, Note_on_c, 4, 64, 90
6, 183599, Note_on_c, 4, 64, 0
6, 183600, Note_on_c, 4, 66, 90
6, 183719, Note_on_c, 4, 66, 0
6, 183720, Note_on_c, 4, 64, 90
6, 183839, Note_on_c, 4, 64, 0
6, 183840, Note_on_c, 4, 66, 90
6, 184079, Note_on_c, 4, 66, 0
6, 184080, Note_on_c, 4, 62, 90
6, 184319, Note_on_c, 4, 62, 0
6, 184320, Note_on_c, 4, 67, 90
6, 184559, Note_on_c, 4, 67, 0
6, 184560, Note_on_c, 4, 69, 90
6, 185039, Note_on_c, 4, 69, 0
6, 185040, Note_on_c, 4, 66, 90
6, 185279, Note_on_c, 4, 66, 0
6, 185280, Note_on_c, 4, 71, 90
6, 185519, Note_on_c, 4, 71, 0
6, 185520, Note_on_c, 4, 67, 90
6, 185759, Note_on_c, 4, 67, 0
6, 185760, Note_on_c, 4, 72, 90
6, 185999, Note_on_c, 4, 72, 0
6, 186000, Note_on_c, 4, 69, 90
6, 186239, Note_on_c, 4, 69, 0
6, 186240, Note_on_c, 4, 71, 90
6, 186599, Note_on_c, 4, 71, 0
6, 186600, Note_on_c, 4, 64, 90
6, 186839, Note_on_c, 4, 64, 0
6, 186840, Note_on_c, 4, 72, 90
6, 187079, Note_on_c, 4, 72, 0
6, 187080, Note_on_c, 4, 69, 90
6, 187319, Note_on_c, 4, 69, 0
6, 187320, Note_on_c, 4, 64, 90
6, 187439, Note_on_c, 4, 64, 0
6, 187440, Note_on_c, 4, 66, 90
6, 187679, Note_on_c, 4, 66, 0
6, 187680, Note_on_c, 4, 67, 90
6, 188159, Note_on_c, 4, 67, 0
6, 188160, Note_on_c, 4, 69, 90
6, 188639, Note_on_c, 4, 69, 0
6, 188640, Note_on_c, 4, 66, 90
6, 188879, Note_on_c, 4, 66, 0
6, 188880, Note_on_c, 4, 64, 90
6, 188999, Note_on_c, 4, 64, 0
6, 189000, Note_on_c, 4, 63, 90
6, 189119, Note_on_c, 4, 63, 0
6, 189120, Note_on_c, 4, 64, 90
6, 189599, Note_on_c, 4, 64, 0
6, 189600, Note_on_c, 4, 62, 90
6, 190079, Note_on_c, 4, 62, 0
6, 190080, Note_on_c, 4, 67, 90
6, 190319, Note_on_c, 4, 67, 0
6, 190320, Note_on_c, 4, 67, 90
6, 190439, Note_on_c, 4, 67, 0
6, 190440, Note_on_c, 4, 64, 90
6, 190500, Note_on_c, 4, 64, 0
6, 190620, Note_on_c, 4, 64, 90
6, 190650, Note_on_c, 4, 64, 0
6, 190680, Note_on_c, 4, 62, 90
6, 190710, Note_on_c, 4, 62, 0
6, 190860, Note_on_c, 4, 67, 90
6, 190890, Note_on_c, 4, 67, 0
6, 190920, Note_on_c, 4, 60, 90
6, 190950, Note_on_c, 4, 60, 0
6, 191100, Note_on_c, 4, 67, 90
6, 191130, Note_on_c, 4, 67, 0
6, 191160, Note_on_c, 4, 65, 90
6, 191190, Note_on_c, 4, 65, 0
6, 191340, Note_on_c, 4, 69, 90
6, 191370, Note_on_c, 4, 69, 0
6, 191400, Note_on_c, 4, 74, 90
6, 191430, Note_on_c, 4, 74, 0
6, 191580, Note_on_c, 4, 71, 90
6, 191610, Note_on_c, 4, 71, 0
6, 191640, Note_on_c, 4, 69, 90
6, 191670, Note_on_c, 4, 69, 0
6, 191820, Note_on_c, 4, 69, 90
6, 191850, Note_on_c, 4, 69, 0
6, 191880, Note_on_c, 4, 67, 90
6, 191910, Note_on_c, 4, 67, 0
6, 192060, Note_on_c, 4, 74, 90
6, 192090, Note_on_c, 4, 74, 0
6, 192120, Note_on_c, 4, 72, 90
6, 192150, Note_on_c, 4, 72, 0
6, 192300, Note_on_c, 4, 74, 90
6, 192330, Note_on_c, 4, 74, 0
6, 192360, Note_on_c, 4, 71, 90
6, 192390, Note_on_c, 4, 71, 0
6, 192540, Note_on_c, 4, 72, 90
6, 192570, Note_on_c, 4, 72, 0
6, 192600, Note_on_c, 4, 69, 90
6, 192630, Note_on_c, 4, 69, 0
6, 192780, Note_on_c, 4, 71, 90
6, 192810, Note_on_c, 4, 71, 0
6, 192840, Note_on_c, 4, 71, 90
6, 192870, Note_on_c, 4, 71, 0
6, 193020, Note_on_c, 4, 69, 90
6, 193050, Note_on_c, 4, 69, 0
6, 193080, Note_on_c, 4, 71, 90
6, 193110, Note_on_c, 4, 71, 0
6, 193260, Note_on_c, 4, 71, 90
6, 193290, Note_on_c, 4, 71, 0
6, 193320, Note_on_c, 4, 66, 90
6, 193350, Note_on_c, 4, 66, 0
6, 193500, Note_on_c, 4, 66, 90
6, 193530, Note_on_c, 4, 66, 0
6, 193560, Note_on_c, 4, 71, 90
6, 193590, Note_on_c, 4, 71, 0
6, 193740, Note_on_c, 4, 69, 90
6, 193770, Note_on_c, 4, 69, 0
6, 193800, Note_on_c, 4, 66, 90
6, 193830, Note_on_c, 4, 66, 0
6, 193980, Note_on_c, 4, 64, 90
6, 194010, Note_on_c, 4, 64, 0
6, 194040, Note_on_c, 4, 69, 90
6, 194070, Note_on_c, 4, 69, 0
6, 194100, Note_on_c, 4, 69, 90
6, 194159, Note_on_c, 4, 69, 0
6, 194160, Note_on_c, 4, 71, 90
6, 194279, Note_on_c, 4, 71, 0
6, 194340, Note_on_c, 4, 62, 90
6, 194399, Note_on_c, 4, 62, 0
6, 194400, Note_on_c, 4, 67, 90
6, 194519, Note_on_c, 4, 67, 0
6, 194520, Note_on_c, 4, 69, 90
6, 194579, Note_on_c, 4, 69, 0
6, 194580, Note_on_c, 4, 67, 90
6, 194639, Note_on_c, 4, 67, 0
6, 194640, Note_on_c, 4, 66, 90
6, 194759, Note_on_c, 4, 66, 0
6, 194760, Note_on_c, 4, 67, 90
6, 194819, Note_on_c, 4, 67, 0
6, 194820, Note_on_c, 4, 66, 90
6, 194879, Note_on_c, 4, 66, 0
6, 194880, Note_on_c, 4, 64, 90
6, 194999, Note_on_c, 4, 64, 0
6, 195000, Note_on_c, 4, 66, 90
6, 195119, Note_on_c, 4, 66, 0
6, 195120, Note_on_c, 4, 67, 90
6, 195299, Note_on_c, 4, 67, 0
6, 195300, Note_on_c, 4, 65, 90
6, 195359, Note_on_c, 4, 65, 0
6, 195360, Note_on_c, 4, 64, 90
6, 195599, Note_on_c, 4, 64, 0
6, 195600, Note_on_c, 4, 62, 90
6, 195839, Note_on_c, 4, 62, 0
6, 195840, Note_on_c, 4, 60, 90
6, 195899, Note_on_c, 4, 60, 0
6, 195900, Note_on_c, 4, 67, 90
6, 195959, Note_on_c, 4, 67, 0
6, 195960, Note_on_c, 4, 66, 90
6, 196079, Note_on_c, 4, 66, 0
6, 196080, Note_on_c, 4, 71, 90
6, 196199, Note_on_c, 4, 71, 0
6, 196680, Note_on_c, 4, 57, 90
6, 196739, Note_on_c, 4, 57, 0
6, 196740, Note_on_c, 4, 60, 90
6, 196829, Note_on_c, 4, 60, 0
6, 196830, Note_on_c, 4, 59, 90
6, 196859, Note_on_c, 4, 59, 0
6, 196860, Note_on_c, 4, 57, 90
6, 196889, Note_on_c, 4, 57, 0
6, 196890, Note_on_c, 4, 55, 90
6, 196919, Note_on_c, 4, 55, 0
6, 196920, Note_on_c, 4, 62, 90
6, 197070, Note_on_c, 4, 62, 0
6, 197070, Note_on_c, 4, 64, 90
6, 197099, Note_on_c, 4, 64, 0
6, 197100, Note_on_c, 4, 62, 90
6, 197129, Note_on_c, 4, 62, 0
6, 197130, Note_on_c, 4, 60, 90
6, 197159, Note_on_c, 4, 60, 0
6, 197160, Note_on_c, 4, 59, 90
6, 197399, Note_on_c, 4, 59, 0
6, 197400, Note_on_c, 4, 58, 90
6, 197639, Note_on_c, 4, 58, 0
6, 197640, Note_on_c, 4, 57, 90
6, 197819, Note_on_c, 4, 57, 0
6, 197820, Note_on_c, 4, 59, 90
6, 197879, Note_on_c, 4, 59, 0
6, 197880, Note_on_c, 4, 60, 90
6, 197999, Note_on_c, 4, 60, 0
6, 198000, Note_on_c, 4, 59, 90
6, 198240, Note_on_c, 4, 59, 0
6, 203160, Note_on_c, 4, 62, 90
6, 203279, Note_on_c, 4, 62, 0
6, 203280, Note_on_c, 4, 60, 90
6, 203339, Note_on_c, 4, 60, 0
6, 203340, Note_on_c, 4, 60, 90
6, 203459, Note_on_c, 4, 60, 0
6, 203460, Note_on_c, 4, 59, 90
6, 203519, Note_on_c, 4, 59, 0
6, 203520, Note_on_c, 4, 59, 90
6, 203639, Note_on_c, 4, 59, 0
6, 203640, Note_on_c, 4, 60, 90
6, 203699, Note_on_c, 4, 60, 0
6, 203700, Note_on_c, 4, 59, 90
6, 203819, Note_on_c, 4, 59, 0
6, 203820, Note_on_c, 4, 57, 90
6, 203879, Note_on_c, 4, 57, 0
6, 203880, Note_on_c, 4, 59, 90
6, 203999, Note_on_c, 4, 59, 0
6, 204000, Note_on_c, 4, 60, 90
6, 204059, Note_on_c, 4, 60, 0
6, 204060, Note_on_c, 4, 59, 90
6, 204179, Note_on_c, 4, 59, 0
6, 204180, Note_on_c, 4, 57, 90
6, 204239, Note_on_c, 4, 57, 0
6, 204240, Note_on_c, 4, 59, 90
6, 204419, Note_on_c, 4, 59, 0
6, 205680, Note_on_c, 4, 67, 90
6, 205799, Note_on_c, 4, 67, 0
6, 205800, Note_on_c, 4, 66, 90
6, 205859, Note_on_c, 4, 66, 0
6, 205860, Note_on_c, 4, 66, 90
6, 205979, Note_on_c, 4, 66, 0
6, 205980, Note_on_c, 4, 64, 90
6, 206039, Note_on_c, 4, 64, 0
6, 206040, Note_on_c, 4, 64, 90
6, 206129, Note_on_c, 4, 64, 0
6, 206130, Note_on_c, 4, 72, 90
6, 206159, Note_on_c, 4, 72, 0
6, 206160, Note_on_c, 4, 71, 90
6, 206309, Note_on_c, 4, 71, 0
6, 206310, Note_on_c, 4, 64, 90
6, 206339, Note_on_c, 4, 64, 0
6, 206340, Note_on_c, 4, 63, 90
6, 206399, Note_on_c, 4, 63, 0
6, 206400, Note_on_c, 4, 64, 90
6, 206489, Note_on_c, 4, 64, 0
6, 206490, Note_on_c, 4, 72, 90
6, 206519, Note_on_c, 4, 72, 0
6, 206520, Note_on_c, 4, 71, 90
6, 206669, Note_on_c, 4, 71, 0
6, 206670, Note_on_c, 4, 64, 90
6, 206699, Note_on_c, 4, 64, 0
6, 206700, Note_on_c, 4, 63, 90
6, 206759, Note_on_c, 4, 63, 0
6, 206760, Note_on_c, 4, 64, 90
6, 206939, Note_on_c, 4, 64, 0
6, 208200, Note_on_c, 4, 69, 90
6, 208319, Note_on_c, 4, 69, 0
6, 208320, Note_on_c, 4, 73, 90
6, 208379, Note_on_c, 4, 73, 0
6, 208380, Note_on_c, 4, 73, 90
6, 208499, Note_on_c, 4, 73, 0
6, 208500, Note_on_c, 4, 74, 90
6, 208559, Note_on_c, 4, 74, 0
6, 208560, Note_on_c, 4, 74, 90
6, 208679, Note_on_c, 4, 74, 0
6, 208680, Note_on_c, 4, 67, 90
6, 208739, Note_on_c, 4, 67, 0
6, 208740, Note_on_c, 4, 66, 90
6, 208859, Note_on_c, 4, 66, 0
6, 208860, Note_on_c, 4, 64, 90
6, 208919, Note_on_c, 4, 64, 0
6, 208920, Note_on_c, 4, 62, 90
6, 209039, Note_on_c, 4, 62, 0
6, 209040, Note_on_c, 4, 67, 90
6, 209099, Note_on_c, 4, 67, 0
6, 209100, Note_on_c, 4, 66, 90
6, 209219, Note_on_c, 4, 66, 0
6, 209220, Note_on_c, 4, 64, 90
6, 209279, Note_on_c, 4, 64, 0
6, 209280, Note_on_c, 4, 62, 90
6, 209459, Note_on_c, 4, 62, 0
6, 210720, Note_on_c, 4, 62, 90
6, 210839, Note_on_c, 4, 62, 0
6, 210840, Note_on_c, 4, 60, 90
6, 210899, Note_on_c, 4, 60, 0
6, 210900, Note_on_c, 4, 60, 90
6, 211019, Note_on_c, 4, 60, 0
6, 211020, Note_on_c, 4, 59, 90
6, 211079, Note_on_c, 4, 59, 0
6, 211080, Note_on_c, 4, 59, 90
6, 211199, Note_on_c, 4, 59, 0
6, 211200, Note_on_c, 4, 60, 90
6, 211259, Note_on_c, 4, 60, 0
6, 211260, Note_on_c, 4, 59, 90
6, 211379, Note_on_c, 4, 59, 0
6, 211380, Note_on_c, 4, 57, 90
6, 211439, Note_on_c, 4, 57, 0
6, 211440, Note_on_c, 4, 59, 90
6, 211559, Note_on_c, 4, 59, 0
6, 211560, Note_on_c, 4, 60, 90
6, 211619, Note_on_c, 4, 60, 0
6, 211620, Note_on_c, 4, 59, 90
6, 211739, Note_on_c, 4, 59, 0
6, 211740, Note_on_c, 4, 57, 90
6, 211799, Note_on_c, 4, 57, 0
6, 211800, Note_on_c, 4, 59, 90
6, 211980, Note_on_c, 4, 59, 0
6, 211980, End_track
7, 0, Start_track
7, 0, MIDI_port, 0
7, 0, Title_t, "Oboe Da Caccia II"
7, 0, Program_c, 5, 69
7, 0, Control_c, 5, 7, 127
7, 0, Control_c, 5, 10, 119
7, 6120, Note_on_c, 5, 55, 100
7, 7320, Note_on_c, 5, 55, 0
7, 7560, Note_on_c, 5, 59, 100
7, 8760, Note_on_c, 5, 59, 0
7, 9000, Note_on_c, 5, 60, 100
7, 10200, Note_on_c, 5, 60, 0
7, 11820, Note_on_c, 5, 62, 100
7, 11880, Note_on_c, 5, 62, 0
7, 11880, Note_on_c, 5, 55, 100
7, 12000, Note_on_c, 5, 55, 0
7, 12600, Note_on_c, 5, 67, 100
7, 12720, Note_on_c, 5, 67, 0
7, 12720, Note_on_c, 5, 66, 100
7, 12780, Note_on_c, 5, 66, 0
7, 12780, Note_on_c, 5, 66, 100
7, 12900, Note_on_c, 5, 66, 0
7, 12900, Note_on_c, 5, 64, 100
7, 12960, Note_on_c, 5, 64, 0
7, 12960, Note_on_c, 5, 64, 100
7, 13440, Note_on_c, 5, 64, 0
7, 13440, Note_on_c, 5, 62, 100
7, 13500, Note_on_c, 5, 62, 0
7, 13500, Note_on_c, 5, 62, 100
7, 13620, Note_on_c, 5, 62, 0
7, 13620, Note_on_c, 5, 60, 100
7, 13680, Note_on_c, 5, 60, 0
7, 13680, Note_on_c, 5, 60, 100
7, 13800, Note_on_c, 5, 60, 0
7, 13800, Note_on_c, 5, 59, 100
7, 13860, Note_on_c, 5, 59, 0
7, 13860, Note_on_c, 5, 59, 100
7, 13980, Note_on_c, 5, 59, 0
7, 13980, Note_on_c, 5, 57, 100
7, 14040, Note_on_c, 5, 57, 0
7, 14040, Note_on_c, 5, 57, 100
7, 14160, Note_on_c, 5, 57, 0
7, 14160, Note_on_c, 5, 64, 100
7, 14220, Note_on_c, 5, 64, 0
7, 14220, Note_on_c, 5, 60, 100
7, 14340, Note_on_c, 5, 60, 0
7, 14340, Note_on_c, 5, 57, 100
7, 14400, Note_on_c, 5, 57, 0
7, 14400, Note_on_c, 5, 64, 100
7, 14520, Note_on_c, 5, 64, 0
7, 14520, Note_on_c, 5, 59, 100
7, 14580, Note_on_c, 5, 59, 0
7, 14580, Note_on_c, 5, 55, 100
7, 14700, Note_on_c, 5, 55, 0
7, 14700, Note_on_c, 5, 67, 100
7, 14760, Note_on_c, 5, 67, 0
7, 14760, Note_on_c, 5, 61, 100
7, 14880, Note_on_c, 5, 61, 0
7, 14880, Note_on_c, 5, 66, 100
7, 14940, Note_on_c, 5, 66, 0
7, 14940, Note_on_c, 5, 70, 100
7, 15060, Note_on_c, 5, 70, 0
7, 15060, Note_on_c, 5, 73, 100
7, 15120, Note_on_c, 5, 73, 0
7, 15120, Note_on_c, 5, 66, 100
7, 15240, Note_on_c, 5, 66, 0
7, 15420, Note_on_c, 5, 60, 100
7, 15480, Note_on_c, 5, 60, 0
7, 15480, Note_on_c, 5, 59, 100
7, 15600, Note_on_c, 5, 59, 0
7, 15600, Note_on_c, 5, 59, 100
7, 15660, Note_on_c, 5, 59, 0
7, 15660, Note_on_c, 5, 59, 100
7, 15780, Note_on_c, 5, 59, 0
7, 15780, Note_on_c, 5, 59, 100
7, 15840, Note_on_c, 5, 59, 0
7, 15840, Note_on_c, 5, 59, 100
7, 15960, Note_on_c, 5, 59, 0
7, 19440, Note_on_c, 5, 62, 90
7, 20640, Note_on_c, 5, 62, 0
7, 20880, Note_on_c, 5, 59, 90
7, 22080, Note_on_c, 5, 59, 0
7, 23520, Note_on_c, 5, 66, 90
7, 23580, Note_on_c, 5, 66, 0
7, 23580, Note_on_c, 5, 57, 90
7, 23820, Note_on_c, 5, 57, 0
7, 23820, Note_on_c, 5, 55, 90
7, 23880, Note_on_c, 5, 55, 0
7, 24240, Note_on_c, 5, 62, 100
7, 24390, Note_on_c, 5, 62, 0
7, 24390, Note_on_c, 5, 61, 100
7, 24420, Note_on_c, 5, 61, 0
7, 24420, Note_on_c, 5, 67, 100
7, 24540, Note_on_c, 5, 67, 0
7, 24540, Note_on_c, 5, 65, 90
7, 24600, Note_on_c, 5, 65, 0
7, 24600, Note_on_c, 5, 64, 90
7, 24660, Note_on_c, 5, 64, 0
7, 24660, Note_on_c, 5, 62, 90
7, 24720, Note_on_c, 5, 62, 0
7, 24720, Note_on_c, 5, 59, 90
7, 24780, Note_on_c, 5, 59, 0
7, 25560, Note_on_c, 5, 59, 90
7, 25679, Note_on_c, 5, 59, 0
7, 25680, Note_on_c, 5, 61, 90
7, 25739, Note_on_c, 5, 61, 0
7, 25740, Note_on_c, 5, 61, 90
7, 25859, Note_on_c, 5, 61, 0
7, 25860, Note_on_c, 5, 62, 90
7, 25919, Note_on_c, 5, 62, 0
7, 25920, Note_on_c, 5, 62, 90
7, 26039, Note_on_c, 5, 62, 0
7, 26040, Note_on_c, 5, 64, 90
7, 26099, Note_on_c, 5, 64, 0
7, 26100, Note_on_c, 5, 64, 90
7, 26219, Note_on_c, 5, 64, 0
7, 26220, Note_on_c, 5, 66, 90
7, 26279, Note_on_c, 5, 66, 0
7, 26280, Note_on_c, 5, 66, 90
7, 26579, Note_on_c, 5, 66, 0
7, 26580, Note_on_c, 5, 59, 90
7, 26639, Note_on_c, 5, 59, 0
7, 26640, Note_on_c, 5, 59, 90
7, 26759, Note_on_c, 5, 59, 0
7, 26760, Note_on_c, 5, 62, 90
7, 26819, Note_on_c, 5, 62, 0
7, 26820, Note_on_c, 5, 62, 90
7, 26939, Note_on_c, 5, 62, 0
7, 26940, Note_on_c, 5, 64, 90
7, 26999, Note_on_c, 5, 64, 0
7, 27000, Note_on_c, 5, 64, 90
7, 27119, Note_on_c, 5, 64, 0
7, 27120, Note_on_c, 5, 59, 90
7, 27179, Note_on_c, 5, 59, 0
7, 27180, Note_on_c, 5, 64, 90
7, 27299, Note_on_c, 5, 64, 0
7, 27300, Note_on_c, 5, 67, 90
7, 27359, Note_on_c, 5, 67, 0
7, 27360, Note_on_c, 5, 66, 90
7, 27479, Note_on_c, 5, 66, 0
7, 27480, Note_on_c, 5, 59, 90
7, 27539, Note_on_c, 5, 59, 0
7, 27540, Note_on_c, 5, 62, 90
7, 27659, Note_on_c, 5, 62, 0
7, 27660, Note_on_c, 5, 66, 90
7, 27719, Note_on_c, 5, 66, 0
7, 27720, Note_on_c, 5, 68, 90
7, 27839, Note_on_c, 5, 68, 0
7, 27840, Note_on_c, 5, 65, 90
7, 27899, Note_on_c, 5, 65, 0
7, 27900, Note_on_c, 5, 61, 90
7, 28019, Note_on_c, 5, 61, 0
7, 28020, Note_on_c, 5, 65, 90
7, 28079, Note_on_c, 5, 65, 0
7, 28080, Note_on_c, 5, 66, 90
7, 28199, Note_on_c, 5, 66, 0
7, 28380, Note_on_c, 5, 61, 90
7, 28439, Note_on_c, 5, 61, 0
7, 28440, Note_on_c, 5, 66, 90
7, 28529, Note_on_c, 5, 66, 0
7, 28530, Note_on_c, 5, 64, 90
7, 28559, Note_on_c, 5, 64, 0
7, 28560, Note_on_c, 5, 62, 90
7, 28589, Note_on_c, 5, 62, 0
7, 28590, Note_on_c, 5, 61, 90
7, 28619, Note_on_c, 5, 61, 0
7, 28620, Note_on_c, 5, 59, 90
7, 28739, Note_on_c, 5, 59, 0
7, 28740, Note_on_c, 5, 61, 90
7, 28799, Note_on_c, 5, 61, 0
7, 28800, Note_on_c, 5, 62, 90
7, 28919, Note_on_c, 5, 62, 0
7, 29280, Note_on_c, 5, 59, 100
7, 29340, Note_on_c, 5, 59, 0
7, 29340, Note_on_c, 5, 56, 100
7, 29460, Note_on_c, 5, 56, 0
7, 29460, Note_on_c, 5, 57, 100
7, 29520, Note_on_c, 5, 57, 0
7, 29520, Note_on_c, 5, 59, 100
7, 29640, Note_on_c, 5, 59, 0
7, 29640, Note_on_c, 5, 62, 100
7, 29700, Note_on_c, 5, 62, 0
7, 30720, Note_on_c, 5, 66, 100
7, 30780, Note_on_c, 5, 66, 0
7, 30780, Note_on_c, 5, 62, 100
7, 30900, Note_on_c, 5, 62, 0
7, 30900, Note_on_c, 5, 62, 100
7, 30960, Note_on_c, 5, 62, 0
7, 30960, Note_on_c, 5, 62, 100
7, 31080, Note_on_c, 5, 62, 0
7, 33840, Note_on_c, 5, 55, 100
7, 35040, Note_on_c, 5, 55, 0
7, 35280, Note_on_c, 5, 59, 100
7, 36480, Note_on_c, 5, 59, 0
7, 36720, Note_on_c, 5, 60, 100
7, 37920, Note_on_c, 5, 60, 0
7, 40680, Note_on_c, 5, 55, 90
7, 40799, Note_on_c, 5, 55, 0
7, 40800, Note_on_c, 5, 57, 90
7, 40859, Note_on_c, 5, 57, 0
7, 40860, Note_on_c, 5, 57, 90
7, 40979, Note_on_c, 5, 57, 0
7, 40980, Note_on_c, 5, 59, 90
7, 41039, Note_on_c, 5, 59, 0
7, 41040, Note_on_c, 5, 59, 90
7, 41159, Note_on_c, 5, 59, 0
7, 41160, Note_on_c, 5, 60, 90
7, 41219, Note_on_c, 5, 60, 0
7, 41220, Note_on_c, 5, 60, 90
7, 41339, Note_on_c, 5, 60, 0
7, 41340, Note_on_c, 5, 62, 90
7, 41399, Note_on_c, 5, 62, 0
7, 41400, Note_on_c, 5, 62, 90
7, 41699, Note_on_c, 5, 62, 0
7, 41700, Note_on_c, 5, 55, 90
7, 41759, Note_on_c, 5, 55, 0
7, 41760, Note_on_c, 5, 55, 90
7, 41879, Note_on_c, 5, 55, 0
7, 41880, Note_on_c, 5, 59, 90
7, 41939, Note_on_c, 5, 59, 0
7, 41940, Note_on_c, 5, 59, 90
7, 42059, Note_on_c, 5, 59, 0
7, 42060, Note_on_c, 5, 61, 90
7, 42119, Note_on_c, 5, 61, 0
7, 42120, Note_on_c, 5, 61, 90
7, 42239, Note_on_c, 5, 61, 0
7, 42240, Note_on_c, 5, 69, 90
7, 42299, Note_on_c, 5, 69, 0
7, 42300, Note_on_c, 5, 64, 90
7, 42419, Note_on_c, 5, 64, 0
7, 42420, Note_on_c, 5, 57, 90
7, 42480, Note_on_c, 5, 57, 0
7, 42480, Note_on_c, 5, 62, 90
7, 42600, Note_on_c, 5, 62, 0
7, 42600, Note_on_c, 5, 58, 90
7, 42659, Note_on_c, 5, 58, 0
7, 42660, Note_on_c, 5, 55, 90
7, 42779, Note_on_c, 5, 55, 0
7, 42780, Note_on_c, 5, 62, 90
7, 42839, Note_on_c, 5, 62, 0
7, 42840, Note_on_c, 5, 64, 90
7, 42959, Note_on_c, 5, 64, 0
7, 42960, Note_on_c, 5, 69, 90
7, 43019, Note_on_c, 5, 69, 0
7, 43020, Note_on_c, 5, 64, 90
7, 43139, Note_on_c, 5, 64, 0
7, 43140, Note_on_c, 5, 67, 90
7, 43199, Note_on_c, 5, 67, 0
7, 43200, Note_on_c, 5, 66, 90
7, 43319, Note_on_c, 5, 66, 0
7, 43320, Note_on_c, 5, 57, 90
7, 43379, Note_on_c, 5, 57, 0
7, 43380, Note_on_c, 5, 55, 90
7, 43499, Note_on_c, 5, 55, 0
7, 43500, Note_on_c, 5, 60, 90
7, 43559, Note_on_c, 5, 60, 0
7, 43560, Note_on_c, 5, 67, 90
7, 43679, Note_on_c, 5, 67, 0
7, 43680, Note_on_c, 5, 55, 90
7, 43739, Note_on_c, 5, 55, 0
7, 43740, Note_on_c, 5, 57, 90
7, 43859, Note_on_c, 5, 57, 0
7, 43860, Note_on_c, 5, 57, 90
7, 43919, Note_on_c, 5, 57, 0
7, 43920, Note_on_c, 5, 55, 90
7, 44039, Note_on_c, 5, 55, 0
7, 44370, Note_on_c, 5, 66, 90
7, 44399, Note_on_c, 5, 66, 0
7, 44400, Note_on_c, 5, 67, 90
7, 44459, Note_on_c, 5, 67, 0
7, 44460, Note_on_c, 5, 55, 90
7, 44579, Note_on_c, 5, 55, 0
7, 44580, Note_on_c, 5, 57, 90
7, 44639, Note_on_c, 5, 57, 0
7, 44640, Note_on_c, 5, 55, 90
7, 45000, Note_on_c, 5, 55, 0
7, 50520, Note_on_c, 5, 59, 90
7, 50639, Note_on_c, 5, 59, 0
7, 50640, Note_on_c, 5, 59, 90
7, 50699, Note_on_c, 5, 59, 0
7, 50700, Note_on_c, 5, 60, 90
7, 50819, Note_on_c, 5, 60, 0
7, 50820, Note_on_c, 5, 62, 90
7, 50879, Note_on_c, 5, 62, 0
7, 50880, Note_on_c, 5, 59, 90
7, 50939, Note_on_c, 5, 59, 0
7, 50940, Note_on_c, 5, 57, 90
7, 50999, Note_on_c, 5, 57, 0
7, 51000, Note_on_c, 5, 57, 90
7, 51119, Note_on_c, 5, 57, 0
7, 51120, Note_on_c, 5, 57, 90
7, 51239, Note_on_c, 5, 57, 0
7, 51240, Note_on_c, 5, 57, 90
7, 51359, Note_on_c, 5, 57, 0
7, 51360, Note_on_c, 5, 57, 90
7, 51449, Note_on_c, 5, 57, 0
7, 51480, Note_on_c, 5, 59, 90
7, 51539, Note_on_c, 5, 59, 0
7, 51540, Note_on_c, 5, 57, 90
7, 51599, Note_on_c, 5, 57, 0
7, 51600, Note_on_c, 5, 55, 90
7, 51659, Note_on_c, 5, 55, 0
7, 51660, Note_on_c, 5, 57, 90
7, 51719, Note_on_c, 5, 57, 0
7, 51720, Note_on_c, 5, 59, 90
7, 51779, Note_on_c, 5, 59, 0
7, 51780, Note_on_c, 5, 60, 90
7, 51839, Note_on_c, 5, 60, 0
7, 51840, Note_on_c, 5, 62, 90
7, 51959, Note_on_c, 5, 62, 0
7, 51960, Note_on_c, 5, 62, 90
7, 52079, Note_on_c, 5, 62, 0
7, 52080, Note_on_c, 5, 62, 90
7, 52259, Note_on_c, 5, 62, 0
7, 52260, Note_on_c, 5, 60, 90
7, 52319, Note_on_c, 5, 60, 0
7, 52320, Note_on_c, 5, 59, 90
7, 52409, Note_on_c, 5, 59, 0
7, 52440, Note_on_c, 5, 59, 90
7, 52559, Note_on_c, 5, 59, 0
7, 52560, Note_on_c, 5, 59, 90
7, 52619, Note_on_c, 5, 59, 0
7, 52620, Note_on_c, 5, 60, 90
7, 52739, Note_on_c, 5, 60, 0
7, 52740, Note_on_c, 5, 62, 90
7, 52799, Note_on_c, 5, 62, 0
7, 52800, Note_on_c, 5, 59, 90
7, 52859, Note_on_c, 5, 59, 0
7, 52860, Note_on_c, 5, 57, 90
7, 52919, Note_on_c, 5, 57, 0
7, 52920, Note_on_c, 5, 57, 90
7, 53039, Note_on_c, 5, 57, 0
7, 53040, Note_on_c, 5, 57, 90
7, 53159, Note_on_c, 5, 57, 0
7, 53160, Note_on_c, 5, 57, 90
7, 53279, Note_on_c, 5, 57, 0
7, 53280, Note_on_c, 5, 57, 90
7, 53369, Note_on_c, 5, 57, 0
7, 53400, Note_on_c, 5, 59, 90
7, 53459, Note_on_c, 5, 59, 0
7, 53460, Note_on_c, 5, 57, 90
7, 53519, Note_on_c, 5, 57, 0
7, 53520, Note_on_c, 5, 55, 90
7, 53579, Note_on_c, 5, 55, 0
7, 53580, Note_on_c, 5, 57, 90
7, 53639, Note_on_c, 5, 57, 0
7, 53640, Note_on_c, 5, 59, 90
7, 53699, Note_on_c, 5, 59, 0
7, 53700, Note_on_c, 5, 60, 90
7, 53759, Note_on_c, 5, 60, 0
7, 53760, Note_on_c, 5, 62, 90
7, 53879, Note_on_c, 5, 62, 0
7, 53880, Note_on_c, 5, 62, 90
7, 53999, Note_on_c, 5, 62, 0
7, 54000, Note_on_c, 5, 62, 90
7, 54179, Note_on_c, 5, 62, 0
7, 54180, Note_on_c, 5, 60, 90
7, 54239, Note_on_c, 5, 60, 0
7, 54240, Note_on_c, 5, 59, 90
7, 54329, Note_on_c, 5, 59, 0
7, 54360, Note_on_c, 5, 62, 90
7, 54419, Note_on_c, 5, 62, 0
7, 54420, Note_on_c, 5, 64, 90
7, 54479, Note_on_c, 5, 64, 0
7, 54480, Note_on_c, 5, 66, 90
7, 54539, Note_on_c, 5, 66, 0
7, 54540, Note_on_c, 5, 64, 90
7, 54599, Note_on_c, 5, 64, 0
7, 54600, Note_on_c, 5, 62, 90
7, 54719, Note_on_c, 5, 62, 0
7, 54720, Note_on_c, 5, 64, 90
7, 54839, Note_on_c, 5, 64, 0
7, 54840, Note_on_c, 5, 66, 90
7, 54959, Note_on_c, 5, 66, 0
7, 54960, Note_on_c, 5, 59, 90
7, 55079, Note_on_c, 5, 59, 0
7, 55080, Note_on_c, 5, 64, 90
7, 55139, Note_on_c, 5, 64, 0
7, 55140, Note_on_c, 5, 62, 90
7, 55199, Note_on_c, 5, 62, 0
7, 55200, Note_on_c, 5, 60, 90
7, 55289, Note_on_c, 5, 60, 0
7, 55320, Note_on_c, 5, 55, 90
7, 55379, Note_on_c, 5, 55, 0
7, 55380, Note_on_c, 5, 57, 90
7, 55439, Note_on_c, 5, 57, 0
7, 55440, Note_on_c, 5, 59, 90
7, 55499, Note_on_c, 5, 59, 0
7, 55500, Note_on_c, 5, 60, 90
7, 55559, Note_on_c, 5, 60, 0
7, 55560, Note_on_c, 5, 62, 90
7, 55619, Note_on_c, 5, 62, 0
7, 55620, Note_on_c, 5, 64, 90
7, 55679, Note_on_c, 5, 64, 0
7, 55680, Note_on_c, 5, 60, 90
7, 55799, Note_on_c, 5, 60, 0
7, 55800, Note_on_c, 5, 61, 90
7, 55919, Note_on_c, 5, 61, 0
7, 55920, Note_on_c, 5, 59, 90
7, 56039, Note_on_c, 5, 59, 0
7, 56040, Note_on_c, 5, 59, 90
7, 56159, Note_on_c, 5, 59, 0
7, 56160, Note_on_c, 5, 59, 90
7, 56249, Note_on_c, 5, 59, 0
7, 56280, Note_on_c, 5, 62, 90
7, 56399, Note_on_c, 5, 62, 0
7, 56400, Note_on_c, 5, 62, 90
7, 56519, Note_on_c, 5, 62, 0
7, 56520, Note_on_c, 5, 67, 90
7, 56639, Note_on_c, 5, 67, 0
7, 56640, Note_on_c, 5, 55, 90
7, 56699, Note_on_c, 5, 55, 0
7, 56700, Note_on_c, 5, 57, 90
7, 56759, Note_on_c, 5, 57, 0
7, 56760, Note_on_c, 5, 59, 90
7, 56879, Note_on_c, 5, 59, 0
7, 56880, Note_on_c, 5, 64, 90
7, 56939, Note_on_c, 5, 64, 0
7, 56940, Note_on_c, 5, 62, 90
7, 56999, Note_on_c, 5, 62, 0
7, 57000, Note_on_c, 5, 64, 90
7, 57059, Note_on_c, 5, 64, 0
7, 57060, Note_on_c, 5, 61, 90
7, 57119, Note_on_c, 5, 61, 0
7, 57120, Note_on_c, 5, 62, 90
7, 57209, Note_on_c, 5, 62, 0
7, 57240, Note_on_c, 5, 62, 90
7, 57419, Note_on_c, 5, 62, 0
7, 57420, Note_on_c, 5, 60, 90
7, 57539, Note_on_c, 5, 60, 0
7, 57540, Note_on_c, 5, 59, 90
7, 57659, Note_on_c, 5, 59, 0
7, 57660, Note_on_c, 5, 57, 90
7, 57719, Note_on_c, 5, 57, 0
7, 57720, Note_on_c, 5, 55, 90
7, 57899, Note_on_c, 5, 55, 0
7, 57900, Note_on_c, 5, 60, 90
7, 57929, Note_on_c, 5, 60, 0
7, 57930, Note_on_c, 5, 59, 90
7, 57959, Note_on_c, 5, 59, 0
7, 57960, Note_on_c, 5, 57, 90
7, 58020, Note_on_c, 5, 57, 0
7, 58020, Note_on_c, 5, 59, 90
7, 58049, Note_on_c, 5, 59, 0
7, 58050, Note_on_c, 5, 60, 90
7, 58079, Note_on_c, 5, 60, 0
7, 58080, Note_on_c, 5, 55, 90
7, 58199, Note_on_c, 5, 55, 0
7, 62400, Note_on_c, 5, 62, 100
7, 62520, Note_on_c, 5, 62, 0
7, 62880, Note_on_c, 5, 60, 100
7, 63000, Note_on_c, 5, 60, 0
7, 63360, Note_on_c, 5, 57, 100
7, 63480, Note_on_c, 5, 57, 0
7, 63600, Note_on_c, 5, 55, 100
7, 63720, Note_on_c, 5, 55, 0
7, 64200, Note_on_c, 5, 57, 100
7, 64320, Note_on_c, 5, 57, 0
7, 64560, Note_on_c, 5, 57, 100
7, 64680, Note_on_c, 5, 57, 0
7, 65040, Note_on_c, 5, 60, 100
7, 65160, Note_on_c, 5, 60, 0
7, 65280, Note_on_c, 5, 57, 100
7, 65400, Note_on_c, 5, 57, 0
7, 65760, Note_on_c, 5, 59, 100
7, 65790, Note_on_c, 5, 59, 0
7, 65880, Note_on_c, 5, 60, 100
7, 65910, Note_on_c, 5, 60, 0
7, 66000, Note_on_c, 5, 67, 100
7, 66030, Note_on_c, 5, 67, 0
7, 66120, Note_on_c, 5, 69, 100
7, 66150, Note_on_c, 5, 69, 0
7, 66360, Note_on_c, 5, 69, 100
7, 66480, Note_on_c, 5, 69, 0
7, 66480, Note_on_c, 5, 67, 100
7, 66720, Note_on_c, 5, 67, 0
7, 93000, Note_on_c, 5, 64, 90
7, 93119, Note_on_c, 5, 64, 0
7, 93120, Note_on_c, 5, 62, 90
7, 93299, Note_on_c, 5, 62, 0
7, 93300, Note_on_c, 5, 60, 90
7, 93359, Note_on_c, 5, 60, 0
7, 93360, Note_on_c, 5, 59, 90
7, 93479, Note_on_c, 5, 59, 0
7, 93480, Note_on_c, 5, 60, 90
7, 93539, Note_on_c, 5, 60, 0
7, 93540, Note_on_c, 5, 59, 90
7, 93599, Note_on_c, 5, 59, 0
7, 93600, Note_on_c, 5, 57, 90
7, 93659, Note_on_c, 5, 57, 0
7, 93660, Note_on_c, 5, 55, 90
7, 93719, Note_on_c, 5, 55, 0
7, 93720, Note_on_c, 5, 53, 90
7, 93839, Note_on_c, 5, 53, 0
7, 93840, Note_on_c, 5, 55, 90
7, 93929, Note_on_c, 5, 55, 0
7, 93960, Note_on_c, 5, 57, 90
7, 94079, Note_on_c, 5, 57, 0
7, 94080, Note_on_c, 5, 57, 90
7, 94139, Note_on_c, 5, 57, 0
7, 94140, Note_on_c, 5, 59, 90
7, 94199, Note_on_c, 5, 59, 0
7, 94200, Note_on_c, 5, 60, 90
7, 94319, Note_on_c, 5, 60, 0
7, 94320, Note_on_c, 5, 59, 90
7, 94379, Note_on_c, 5, 59, 0
7, 94380, Note_on_c, 5, 57, 90
7, 94439, Note_on_c, 5, 57, 0
7, 94440, Note_on_c, 5, 55, 90
7, 94499, Note_on_c, 5, 55, 0
7, 94500, Note_on_c, 5, 57, 90
7, 94559, Note_on_c, 5, 57, 0
7, 94560, Note_on_c, 5, 58, 90
7, 94739, Note_on_c, 5, 58, 0
7, 94740, Note_on_c, 5, 57, 90
7, 94799, Note_on_c, 5, 57, 0
7, 94800, Note_on_c, 5, 55, 90
7, 94889, Note_on_c, 5, 55, 0
7, 94920, Note_on_c, 5, 60, 90
7, 94979, Note_on_c, 5, 60, 0
7, 94980, Note_on_c, 5, 58, 90
7, 95039, Note_on_c, 5, 58, 0
7, 95040, Note_on_c, 5, 57, 90
7, 95099, Note_on_c, 5, 57, 0
7, 95100, Note_on_c, 5, 55, 90
7, 95159, Note_on_c, 5, 55, 0
7, 95160, Note_on_c, 5, 53, 90
7, 95279, Note_on_c, 5, 53, 0
7, 95280, Note_on_c, 5, 55, 90
7, 95399, Note_on_c, 5, 55, 0
7, 95400, Note_on_c, 5, 62, 90
7, 95519, Note_on_c, 5, 62, 0
7, 95520, Note_on_c, 5, 60, 90
7, 95639, Note_on_c, 5, 60, 0
7, 95640, Note_on_c, 5, 60, 90
7, 95759, Note_on_c, 5, 60, 0
7, 95760, Note_on_c, 5, 60, 90
7, 95849, Note_on_c, 5, 60, 0
7, 95880, Note_on_c, 5, 64, 90
7, 95999, Note_on_c, 5, 64, 0
7, 96000, Note_on_c, 5, 64, 90
7, 96059, Note_on_c, 5, 64, 0
7, 96060, Note_on_c, 5, 59, 90
7, 96119, Note_on_c, 5, 59, 0
7, 96120, Note_on_c, 5, 60, 90
7, 96239, Note_on_c, 5, 60, 0
7, 96240, Note_on_c, 5, 59, 90
7, 96359, Note_on_c, 5, 59, 0
7, 96360, Note_on_c, 5, 57, 90
7, 96419, Note_on_c, 5, 57, 0
7, 96420, Note_on_c, 5, 59, 90
7, 96479, Note_on_c, 5, 59, 0
7, 96480, Note_on_c, 5, 60, 90
7, 96599, Note_on_c, 5, 60, 0
7, 96600, Note_on_c, 5, 67, 90
7, 96660, Note_on_c, 5, 67, 0
7, 96660, Note_on_c, 5, 65, 90
7, 96720, Note_on_c, 5, 65, 0
7, 96720, Note_on_c, 5, 64, 90
7, 96839, Note_on_c, 5, 64, 0
7, 96960, Note_on_c, 5, 57, 100
7, 97080, Note_on_c, 5, 57, 0
7, 97200, Note_on_c, 5, 57, 100
7, 97320, Note_on_c, 5, 57, 0
7, 97440, Note_on_c, 5, 57, 100
7, 97560, Note_on_c, 5, 57, 0
7, 97680, Note_on_c, 5, 65, 100
7, 97800, Note_on_c, 5, 65, 0
7, 97920, Note_on_c, 5, 60, 100
7, 98040, Note_on_c, 5, 60, 0
7, 98160, Note_on_c, 5, 66, 100
7, 98280, Note_on_c, 5, 66, 0
7, 98400, Note_on_c, 5, 59, 100
7, 98520, Note_on_c, 5, 59, 0
7, 98640, Note_on_c, 5, 62, 100
7, 98760, Note_on_c, 5, 62, 0
7, 98880, Note_on_c, 5, 64, 90
7, 98939, Note_on_c, 5, 64, 0
7, 98940, Note_on_c, 5, 64, 90
7, 98999, Note_on_c, 5, 64, 0
7, 99000, Note_on_c, 5, 64, 90
7, 99059, Note_on_c, 5, 64, 0
7, 99060, Note_on_c, 5, 64, 90
7, 99119, Note_on_c, 5, 64, 0
7, 99120, Note_on_c, 5, 55, 90
7, 99179, Note_on_c, 5, 55, 0
7, 99180, Note_on_c, 5, 55, 90
7, 99239, Note_on_c, 5, 55, 0
7, 99240, Note_on_c, 5, 55, 90
7, 99299, Note_on_c, 5, 55, 0
7, 99300, Note_on_c, 5, 55, 90
7, 99359, Note_on_c, 5, 55, 0
7, 99360, Note_on_c, 5, 58, 90
7, 99419, Note_on_c, 5, 58, 0
7, 99420, Note_on_c, 5, 58, 90
7, 99479, Note_on_c, 5, 58, 0
7, 99480, Note_on_c, 5, 58, 90
7, 99539, Note_on_c, 5, 58, 0
7, 99540, Note_on_c, 5, 58, 90
7, 99599, Note_on_c, 5, 58, 0
7, 99600, Note_on_c, 5, 60, 90
7, 99659, Note_on_c, 5, 60, 0
7, 99660, Note_on_c, 5, 60, 90
7, 99719, Note_on_c, 5, 60, 0
7, 99720, Note_on_c, 5, 60, 90
7, 99779, Note_on_c, 5, 60, 0
7, 99780, Note_on_c, 5, 60, 90
7, 99839, Note_on_c, 5, 60, 0
7, 99840, Note_on_c, 5, 64, 90
7, 99899, Note_on_c, 5, 64, 0
7, 99900, Note_on_c, 5, 64, 90
7, 99959, Note_on_c, 5, 64, 0
7, 99960, Note_on_c, 5, 64, 90
7, 100019, Note_on_c, 5, 64, 0
7, 100020, Note_on_c, 5, 64, 90
7, 100079, Note_on_c, 5, 64, 0
7, 100080, Note_on_c, 5, 64, 90
7, 100139, Note_on_c, 5, 64, 0
7, 100140, Note_on_c, 5, 64, 90
7, 100199, Note_on_c, 5, 64, 0
7, 100200, Note_on_c, 5, 64, 90
7, 100259, Note_on_c, 5, 64, 0
7, 100260, Note_on_c, 5, 64, 90
7, 100319, Note_on_c, 5, 64, 0
7, 100320, Note_on_c, 5, 57, 90
7, 100379, Note_on_c, 5, 57, 0
7, 100380, Note_on_c, 5, 57, 90
7, 100439, Note_on_c, 5, 57, 0
7, 100440, Note_on_c, 5, 57, 90
7, 100499, Note_on_c, 5, 57, 0
7, 100500, Note_on_c, 5, 57, 90
7, 100559, Note_on_c, 5, 57, 0
7, 100560, Note_on_c, 5, 59, 90
7, 100619, Note_on_c, 5, 59, 0
7, 100620, Note_on_c, 5, 59, 90
7, 100679, Note_on_c, 5, 59, 0
7, 100680, Note_on_c, 5, 55, 90
7, 100739, Note_on_c, 5, 55, 0
7, 100740, Note_on_c, 5, 55, 90
7, 100799, Note_on_c, 5, 55, 0
7, 100800, Note_on_c, 5, 62, 90
7, 100859, Note_on_c, 5, 62, 0
7, 100860, Note_on_c, 5, 62, 90
7, 100919, Note_on_c, 5, 62, 0
7, 100920, Note_on_c, 5, 60, 90
7, 100979, Note_on_c, 5, 60, 0
7, 100980, Note_on_c, 5, 60, 90
7, 101039, Note_on_c, 5, 60, 0
7, 101040, Note_on_c, 5, 59, 90
7, 101279, Note_on_c, 5, 59, 0
7, 101520, Note_on_c, 5, 55, 100
7, 102480, Note_on_c, 5, 55, 0
7, 102480, Note_on_c, 5, 60, 90
7, 102599, Note_on_c, 5, 60, 0
7, 102600, Note_on_c, 5, 57, 90
7, 102719, Note_on_c, 5, 57, 0
7, 102720, Note_on_c, 5, 60, 90
7, 102839, Note_on_c, 5, 60, 0
7, 102840, Note_on_c, 5, 57, 90
7, 102959, Note_on_c, 5, 57, 0
7, 102960, Note_on_c, 5, 60, 90
7, 103079, Note_on_c, 5, 60, 0
7, 103080, Note_on_c, 5, 57, 90
7, 103199, Note_on_c, 5, 57, 0
7, 103200, Note_on_c, 5, 62, 90
7, 103259, Note_on_c, 5, 62, 0
7, 103260, Note_on_c, 5, 60, 90
7, 103319, Note_on_c, 5, 60, 0
7, 103320, Note_on_c, 5, 62, 90
7, 103439, Note_on_c, 5, 62, 0
7, 103440, Note_on_c, 5, 62, 90
7, 103499, Note_on_c, 5, 62, 0
7, 103500, Note_on_c, 5, 55, 90
7, 103559, Note_on_c, 5, 55, 0
7, 103560, Note_on_c, 5, 55, 90
7, 103619, Note_on_c, 5, 55, 0
7, 103620, Note_on_c, 5, 60, 90
7, 103679, Note_on_c, 5, 60, 0
7, 103680, Note_on_c, 5, 60, 90
7, 103739, Note_on_c, 5, 60, 0
7, 103740, Note_on_c, 5, 62, 90
7, 103769, Note_on_c, 5, 62, 0
7, 103770, Note_on_c, 5, 60, 90
7, 103799, Note_on_c, 5, 60, 0
7, 103800, Note_on_c, 5, 62, 90
7, 103859, Note_on_c, 5, 62, 0
7, 103860, Note_on_c, 5, 55, 90
7, 103919, Note_on_c, 5, 55, 0
7, 103920, Note_on_c, 5, 55, 90
7, 103979, Note_on_c, 5, 55, 0
7, 103980, Note_on_c, 5, 60, 90
7, 104039, Note_on_c, 5, 60, 0
7, 104040, Note_on_c, 5, 60, 90
7, 104099, Note_on_c, 5, 60, 0
7, 104100, Note_on_c, 5, 59, 90
7, 104159, Note_on_c, 5, 59, 0
7, 104160, Note_on_c, 5, 59, 90
7, 104399, Note_on_c, 5, 59, 0
7, 104400, Note_on_c, 5, 55, 90
7, 104459, Note_on_c, 5, 55, 0
7, 104520, Note_on_c, 5, 60, 90
7, 104579, Note_on_c, 5, 60, 0
7, 104640, Note_on_c, 5, 57, 90
7, 104699, Note_on_c, 5, 57, 0
7, 104760, Note_on_c, 5, 59, 90
7, 104819, Note_on_c, 5, 59, 0
7, 104880, Note_on_c, 5, 59, 90
7, 104939, Note_on_c, 5, 59, 0
7, 104940, Note_on_c, 5, 64, 90
7, 104999, Note_on_c, 5, 64, 0
7, 105000, Note_on_c, 5, 62, 90
7, 105059, Note_on_c, 5, 62, 0
7, 105060, Note_on_c, 5, 60, 90
7, 105119, Note_on_c, 5, 60, 0
7, 105120, Note_on_c, 5, 59, 90
7, 105179, Note_on_c, 5, 59, 0
7, 105240, Note_on_c, 5, 57, 90
7, 105299, Note_on_c, 5, 57, 0
7, 105360, Note_on_c, 5, 57, 90
7, 105419, Note_on_c, 5, 57, 0
7, 105600, Note_on_c, 5, 57, 90
7, 105659, Note_on_c, 5, 57, 0
7, 105720, Note_on_c, 5, 62, 90
7, 105779, Note_on_c, 5, 62, 0
7, 105840, Note_on_c, 5, 55, 90
7, 105899, Note_on_c, 5, 55, 0
7, 106080, Note_on_c, 5, 62, 90
7, 106139, Note_on_c, 5, 62, 0
7, 106200, Note_on_c, 5, 64, 90
7, 106259, Note_on_c, 5, 64, 0
7, 106320, Note_on_c, 5, 64, 90
7, 106379, Note_on_c, 5, 64, 0
7, 106560, Note_on_c, 5, 55, 90
7, 106619, Note_on_c, 5, 55, 0
7, 106680, Note_on_c, 5, 57, 90
7, 106739, Note_on_c, 5, 57, 0
7, 106800, Note_on_c, 5, 57, 90
7, 106859, Note_on_c, 5, 57, 0
7, 107040, Note_on_c, 5, 60, 90
7, 107099, Note_on_c, 5, 60, 0
7, 107160, Note_on_c, 5, 62, 90
7, 107219, Note_on_c, 5, 62, 0
7, 107280, Note_on_c, 5, 62, 90
7, 107339, Note_on_c, 5, 62, 0
7, 107460, Note_on_c, 5, 64, 90
7, 107519, Note_on_c, 5, 64, 0
7, 107520, Note_on_c, 5, 62, 90
7, 107579, Note_on_c, 5, 62, 0
7, 107580, Note_on_c, 5, 60, 90
7, 107609, Note_on_c, 5, 60, 0
7, 107610, Note_on_c, 5, 59, 90
7, 107639, Note_on_c, 5, 59, 0
7, 107640, Note_on_c, 5, 57, 90
7, 107699, Note_on_c, 5, 57, 0
7, 107700, Note_on_c, 5, 62, 90
7, 107819, Note_on_c, 5, 62, 0
7, 107820, Note_on_c, 5, 60, 90
7, 107849, Note_on_c, 5, 60, 0
7, 107850, Note_on_c, 5, 59, 90
7, 107879, Note_on_c, 5, 59, 0
7, 107880, Note_on_c, 5, 57, 90
7, 107939, Note_on_c, 5, 57, 0
7, 107940, Note_on_c, 5, 66, 90
7, 107999, Note_on_c, 5, 66, 0
7, 108000, Note_on_c, 5, 62, 90
7, 108119, Note_on_c, 5, 62, 0
7, 114720, Note_on_c, 5, 57, 90
7, 114779, Note_on_c, 5, 57, 0
7, 114840, Note_on_c, 5, 59, 90
7, 114899, Note_on_c, 5, 59, 0
7, 114960, Note_on_c, 5, 64, 90
7, 115019, Note_on_c, 5, 64, 0
7, 115200, Note_on_c, 5, 64, 90
7, 115259, Note_on_c, 5, 64, 0
7, 115320, Note_on_c, 5, 69, 90
7, 115379, Note_on_c, 5, 69, 0
7, 115440, Note_on_c, 5, 62, 90
7, 115499, Note_on_c, 5, 62, 0
7, 115680, Note_on_c, 5, 57, 90
7, 115739, Note_on_c, 5, 57, 0
7, 115800, Note_on_c, 5, 59, 90
7, 115859, Note_on_c, 5, 59, 0
7, 115920, Note_on_c, 5, 59, 90
7, 115979, Note_on_c, 5, 59, 0
7, 116040, Note_on_c, 5, 59, 90
7, 116099, Note_on_c, 5, 59, 0
7, 116160, Note_on_c, 5, 62, 90
7, 116219, Note_on_c, 5, 62, 0
7, 116280, Note_on_c, 5, 64, 90
7, 116339, Note_on_c, 5, 64, 0
7, 116400, Note_on_c, 5, 64, 90
7, 116459, Note_on_c, 5, 64, 0
7, 116520, Note_on_c, 5, 64, 90
7, 116579, Note_on_c, 5, 64, 0
7, 116640, Note_on_c, 5, 55, 90
7, 116699, Note_on_c, 5, 55, 0
7, 116760, Note_on_c, 5, 57, 90
7, 116819, Note_on_c, 5, 57, 0
7, 116880, Note_on_c, 5, 57, 90
7, 116939, Note_on_c, 5, 57, 0
7, 117000, Note_on_c, 5, 57, 90
7, 117059, Note_on_c, 5, 57, 0
7, 117060, Note_on_c, 5, 59, 90
7, 117119, Note_on_c, 5, 59, 0
7, 117120, Note_on_c, 5, 57, 90
7, 117179, Note_on_c, 5, 57, 0
7, 117180, Note_on_c, 5, 62, 90
7, 117300, Note_on_c, 5, 62, 0
7, 117300, Note_on_c, 5, 61, 90
7, 117359, Note_on_c, 5, 61, 0
7, 117360, Note_on_c, 5, 62, 90
7, 117419, Note_on_c, 5, 62, 0
7, 117420, Note_on_c, 5, 64, 90
7, 117450, Note_on_c, 5, 64, 0
7, 117450, Note_on_c, 5, 66, 90
7, 117480, Note_on_c, 5, 66, 0
7, 117480, Note_on_c, 5, 61, 90
7, 117539, Note_on_c, 5, 61, 0
7, 117600, Note_on_c, 5, 57, 90
7, 117720, Note_on_c, 5, 57, 0
7, 124560, Note_on_c, 5, 55, 90
7, 125520, Note_on_c, 5, 55, 0
7, 125520, Note_on_c, 5, 60, 90
7, 125639, Note_on_c, 5, 60, 0
7, 125640, Note_on_c, 5, 57, 90
7, 125759, Note_on_c, 5, 57, 0
7, 125760, Note_on_c, 5, 60, 90
7, 125879, Note_on_c, 5, 60, 0
7, 125880, Note_on_c, 5, 57, 90
7, 125999, Note_on_c, 5, 57, 0
7, 126000, Note_on_c, 5, 60, 90
7, 126119, Note_on_c, 5, 60, 0
7, 126120, Note_on_c, 5, 57, 90
7, 126239, Note_on_c, 5, 57, 0
7, 126240, Note_on_c, 5, 62, 90
7, 126299, Note_on_c, 5, 62, 0
7, 126300, Note_on_c, 5, 60, 90
7, 126359, Note_on_c, 5, 60, 0
7, 126360, Note_on_c, 5, 62, 90
7, 126479, Note_on_c, 5, 62, 0
7, 126480, Note_on_c, 5, 62, 90
7, 126539, Note_on_c, 5, 62, 0
7, 126540, Note_on_c, 5, 55, 90
7, 126599, Note_on_c, 5, 55, 0
7, 126600, Note_on_c, 5, 55, 90
7, 126659, Note_on_c, 5, 55, 0
7, 126660, Note_on_c, 5, 60, 90
7, 126719, Note_on_c, 5, 60, 0
7, 126720, Note_on_c, 5, 60, 90
7, 126779, Note_on_c, 5, 60, 0
7, 126780, Note_on_c, 5, 62, 90
7, 126809, Note_on_c, 5, 62, 0
7, 126810, Note_on_c, 5, 60, 90
7, 126839, Note_on_c, 5, 60, 0
7, 126840, Note_on_c, 5, 62, 90
7, 126899, Note_on_c, 5, 62, 0
7, 126900, Note_on_c, 5, 55, 90
7, 126959, Note_on_c, 5, 55, 0
7, 126960, Note_on_c, 5, 55, 90
7, 127019, Note_on_c, 5, 55, 0
7, 127020, Note_on_c, 5, 60, 90
7, 127079, Note_on_c, 5, 60, 0
7, 127080, Note_on_c, 5, 60, 90
7, 127139, Note_on_c, 5, 60, 0
7, 127140, Note_on_c, 5, 59, 90
7, 127199, Note_on_c, 5, 59, 0
7, 127200, Note_on_c, 5, 59, 90
7, 127439, Note_on_c, 5, 59, 0
7, 127440, Note_on_c, 5, 55, 90
7, 127499, Note_on_c, 5, 55, 0
7, 127560, Note_on_c, 5, 60, 90
7, 127619, Note_on_c, 5, 60, 0
7, 127680, Note_on_c, 5, 57, 90
7, 127739, Note_on_c, 5, 57, 0
7, 127800, Note_on_c, 5, 59, 90
7, 127859, Note_on_c, 5, 59, 0
7, 127920, Note_on_c, 5, 59, 90
7, 127979, Note_on_c, 5, 59, 0
7, 127980, Note_on_c, 5, 64, 90
7, 128039, Note_on_c, 5, 64, 0
7, 128040, Note_on_c, 5, 62, 90
7, 128099, Note_on_c, 5, 62, 0
7, 128100, Note_on_c, 5, 60, 90
7, 128159, Note_on_c, 5, 60, 0
7, 128160, Note_on_c, 5, 59, 90
7, 128399, Note_on_c, 5, 59, 0
7, 138000, Note_on_c, 5, 55, 100
7, 138960, Note_on_c, 5, 55, 0
7, 138960, Note_on_c, 5, 60, 90
7, 139079, Note_on_c, 5, 60, 0
7, 139080, Note_on_c, 5, 57, 90
7, 139199, Note_on_c, 5, 57, 0
7, 139200, Note_on_c, 5, 60, 90
7, 139319, Note_on_c, 5, 60, 0
7, 139320, Note_on_c, 5, 57, 90
7, 139439, Note_on_c, 5, 57, 0
7, 139440, Note_on_c, 5, 60, 90
7, 139559, Note_on_c, 5, 60, 0
7, 139560, Note_on_c, 5, 57, 90
7, 139679, Note_on_c, 5, 57, 0
7, 139680, Note_on_c, 5, 62, 90
7, 139739, Note_on_c, 5, 62, 0
7, 139740, Note_on_c, 5, 60, 90
7, 139799, Note_on_c, 5, 60, 0
7, 139800, Note_on_c, 5, 62, 90
7, 139919, Note_on_c, 5, 62, 0
7, 139920, Note_on_c, 5, 62, 90
7, 139979, Note_on_c, 5, 62, 0
7, 139980, Note_on_c, 5, 55, 90
7, 140039, Note_on_c, 5, 55, 0
7, 140040, Note_on_c, 5, 55, 90
7, 140099, Note_on_c, 5, 55, 0
7, 140100, Note_on_c, 5, 60, 90
7, 140159, Note_on_c, 5, 60, 0
7, 140160, Note_on_c, 5, 60, 90
7, 140219, Note_on_c, 5, 60, 0
7, 140220, Note_on_c, 5, 62, 90
7, 140249, Note_on_c, 5, 62, 0
7, 140250, Note_on_c, 5, 60, 90
7, 140279, Note_on_c, 5, 60, 0
7, 140280, Note_on_c, 5, 62, 90
7, 140339, Note_on_c, 5, 62, 0
7, 140340, Note_on_c, 5, 55, 90
7, 140399, Note_on_c, 5, 55, 0
7, 140400, Note_on_c, 5, 55, 90
7, 140459, Note_on_c, 5, 55, 0
7, 140460, Note_on_c, 5, 60, 90
7, 140519, Note_on_c, 5, 60, 0
7, 140520, Note_on_c, 5, 60, 90
7, 140579, Note_on_c, 5, 60, 0
7, 140580, Note_on_c, 5, 59, 90
7, 140639, Note_on_c, 5, 59, 0
7, 140640, Note_on_c, 5, 59, 90
7, 140879, Note_on_c, 5, 59, 0
7, 140880, Note_on_c, 5, 55, 90
7, 140939, Note_on_c, 5, 55, 0
7, 141000, Note_on_c, 5, 60, 90
7, 141059, Note_on_c, 5, 60, 0
7, 141120, Note_on_c, 5, 57, 90
7, 141179, Note_on_c, 5, 57, 0
7, 141240, Note_on_c, 5, 59, 90
7, 141299, Note_on_c, 5, 59, 0
7, 141360, Note_on_c, 5, 59, 90
7, 141419, Note_on_c, 5, 59, 0
7, 141420, Note_on_c, 5, 64, 90
7, 141479, Note_on_c, 5, 64, 0
7, 141480, Note_on_c, 5, 62, 90
7, 141539, Note_on_c, 5, 62, 0
7, 141540, Note_on_c, 5, 60, 90
7, 141599, Note_on_c, 5, 60, 0
7, 141600, Note_on_c, 5, 59, 90
7, 141659, Note_on_c, 5, 59, 0
7, 141720, Note_on_c, 5, 57, 90
7, 141779, Note_on_c, 5, 57, 0
7, 141840, Note_on_c, 5, 57, 90
7, 141899, Note_on_c, 5, 57, 0
7, 142080, Note_on_c, 5, 57, 90
7, 142139, Note_on_c, 5, 57, 0
7, 142200, Note_on_c, 5, 62, 90
7, 142259, Note_on_c, 5, 62, 0
7, 142320, Note_on_c, 5, 55, 90
7, 142379, Note_on_c, 5, 55, 0
7, 142560, Note_on_c, 5, 62, 90
7, 142619, Note_on_c, 5, 62, 0
7, 142680, Note_on_c, 5, 64, 90
7, 142739, Note_on_c, 5, 64, 0
7, 142800, Note_on_c, 5, 64, 90
7, 142859, Note_on_c, 5, 64, 0
7, 143040, Note_on_c, 5, 55, 90
7, 143099, Note_on_c, 5, 55, 0
7, 143160, Note_on_c, 5, 57, 90
7, 143219, Note_on_c, 5, 57, 0
7, 143280, Note_on_c, 5, 57, 90
7, 143339, Note_on_c, 5, 57, 0
7, 143520, Note_on_c, 5, 60, 90
7, 143579, Note_on_c, 5, 60, 0
7, 143640, Note_on_c, 5, 62, 90
7, 143699, Note_on_c, 5, 62, 0
7, 143760, Note_on_c, 5, 62, 90
7, 143819, Note_on_c, 5, 62, 0
7, 143940, Note_on_c, 5, 64, 90
7, 143999, Note_on_c, 5, 64, 0
7, 144000, Note_on_c, 5, 62, 90
7, 144059, Note_on_c, 5, 62, 0
7, 144060, Note_on_c, 5, 60, 90
7, 144089, Note_on_c, 5, 60, 0
7, 144090, Note_on_c, 5, 59, 90
7, 144119, Note_on_c, 5, 59, 0
7, 144120, Note_on_c, 5, 57, 90
7, 144179, Note_on_c, 5, 57, 0
7, 144180, Note_on_c, 5, 62, 90
7, 144299, Note_on_c, 5, 62, 0
7, 144300, Note_on_c, 5, 60, 90
7, 144329, Note_on_c, 5, 60, 0
7, 144330, Note_on_c, 5, 59, 90
7, 144359, Note_on_c, 5, 59, 0
7, 144360, Note_on_c, 5, 57, 90
7, 144419, Note_on_c, 5, 57, 0
7, 144420, Note_on_c, 5, 66, 90
7, 144479, Note_on_c, 5, 66, 0
7, 144480, Note_on_c, 5, 62, 90
7, 144599, Note_on_c, 5, 62, 0
7, 151200, Note_on_c, 5, 57, 90
7, 151259, Note_on_c, 5, 57, 0
7, 151320, Note_on_c, 5, 59, 90
7, 151379, Note_on_c, 5, 59, 0
7, 151440, Note_on_c, 5, 64, 90
7, 151499, Note_on_c, 5, 64, 0
7, 151680, Note_on_c, 5, 64, 90
7, 151739, Note_on_c, 5, 64, 0
7, 151800, Note_on_c, 5, 69, 90
7, 151859, Note_on_c, 5, 69, 0
7, 151920, Note_on_c, 5, 62, 90
7, 151979, Note_on_c, 5, 62, 0
7, 152160, Note_on_c, 5, 57, 90
7, 152219, Note_on_c, 5, 57, 0
7, 152280, Note_on_c, 5, 59, 90
7, 152339, Note_on_c, 5, 59, 0
7, 152400, Note_on_c, 5, 59, 90
7, 152459, Note_on_c, 5, 59, 0
7, 152520, Note_on_c, 5, 59, 90
7, 152579, Note_on_c, 5, 59, 0
7, 152640, Note_on_c, 5, 62, 90
7, 152699, Note_on_c, 5, 62, 0
7, 152760, Note_on_c, 5, 64, 90
7, 152819, Note_on_c, 5, 64, 0
7, 152880, Note_on_c, 5, 64, 90
7, 152939, Note_on_c, 5, 64, 0
7, 153000, Note_on_c, 5, 64, 90
7, 153059, Note_on_c, 5, 64, 0
7, 153120, Note_on_c, 5, 55, 90
7, 153179, Note_on_c, 5, 55, 0
7, 153240, Note_on_c, 5, 57, 90
7, 153299, Note_on_c, 5, 57, 0
7, 153360, Note_on_c, 5, 57, 90
7, 153419, Note_on_c, 5, 57, 0
7, 153480, Note_on_c, 5, 57, 90
7, 153539, Note_on_c, 5, 57, 0
7, 153540, Note_on_c, 5, 59, 90
7, 153599, Note_on_c, 5, 59, 0
7, 153600, Note_on_c, 5, 57, 90
7, 153659, Note_on_c, 5, 57, 0
7, 153660, Note_on_c, 5, 62, 90
7, 153780, Note_on_c, 5, 62, 0
7, 153780, Note_on_c, 5, 61, 90
7, 153839, Note_on_c, 5, 61, 0
7, 153840, Note_on_c, 5, 62, 90
7, 153899, Note_on_c, 5, 62, 0
7, 153900, Note_on_c, 5, 64, 90
7, 153930, Note_on_c, 5, 64, 0
7, 153930, Note_on_c, 5, 66, 90
7, 153960, Note_on_c, 5, 66, 0
7, 153960, Note_on_c, 5, 61, 90
7, 154019, Note_on_c, 5, 61, 0
7, 154080, Note_on_c, 5, 57, 90
7, 154200, Note_on_c, 5, 57, 0
7, 161040, Note_on_c, 5, 55, 90
7, 162000, Note_on_c, 5, 55, 0
7, 162000, Note_on_c, 5, 60, 90
7, 162119, Note_on_c, 5, 60, 0
7, 162120, Note_on_c, 5, 57, 90
7, 162239, Note_on_c, 5, 57, 0
7, 162240, Note_on_c, 5, 60, 90
7, 162359, Note_on_c, 5, 60, 0
7, 162360, Note_on_c, 5, 57, 90
7, 162479, Note_on_c, 5, 57, 0
7, 162480, Note_on_c, 5, 60, 90
7, 162599, Note_on_c, 5, 60, 0
7, 162600, Note_on_c, 5, 57, 90
7, 162719, Note_on_c, 5, 57, 0
7, 162720, Note_on_c, 5, 62, 90
7, 162779, Note_on_c, 5, 62, 0
7, 162780, Note_on_c, 5, 60, 90
7, 162839, Note_on_c, 5, 60, 0
7, 162840, Note_on_c, 5, 62, 90
7, 162959, Note_on_c, 5, 62, 0
7, 162960, Note_on_c, 5, 62, 90
7, 163019, Note_on_c, 5, 62, 0
7, 163020, Note_on_c, 5, 55, 90
7, 163079, Note_on_c, 5, 55, 0
7, 163080, Note_on_c, 5, 55, 90
7, 163139, Note_on_c, 5, 55, 0
7, 163140, Note_on_c, 5, 60, 90
7, 163199, Note_on_c, 5, 60, 0
7, 163200, Note_on_c, 5, 60, 90
7, 163259, Note_on_c, 5, 60, 0
7, 163260, Note_on_c, 5, 62, 90
7, 163289, Note_on_c, 5, 62, 0
7, 163290, Note_on_c, 5, 60, 90
7, 163319, Note_on_c, 5, 60, 0
7, 163320, Note_on_c, 5, 62, 90
7, 163379, Note_on_c, 5, 62, 0
7, 163380, Note_on_c, 5, 55, 90
7, 163439, Note_on_c, 5, 55, 0
7, 163440, Note_on_c, 5, 55, 90
7, 163499, Note_on_c, 5, 55, 0
7, 163500, Note_on_c, 5, 60, 90
7, 163559, Note_on_c, 5, 60, 0
7, 163560, Note_on_c, 5, 60, 90
7, 163619, Note_on_c, 5, 60, 0
7, 163620, Note_on_c, 5, 59, 90
7, 163679, Note_on_c, 5, 59, 0
7, 163680, Note_on_c, 5, 59, 90
7, 163919, Note_on_c, 5, 59, 0
7, 163920, Note_on_c, 5, 55, 90
7, 163979, Note_on_c, 5, 55, 0
7, 164040, Note_on_c, 5, 60, 90
7, 164099, Note_on_c, 5, 60, 0
7, 164160, Note_on_c, 5, 57, 90
7, 164219, Note_on_c, 5, 57, 0
7, 164280, Note_on_c, 5, 59, 90
7, 164339, Note_on_c, 5, 59, 0
7, 164400, Note_on_c, 5, 59, 90
7, 164459, Note_on_c, 5, 59, 0
7, 164460, Note_on_c, 5, 64, 90
7, 164519, Note_on_c, 5, 64, 0
7, 164520, Note_on_c, 5, 62, 90
7, 164579, Note_on_c, 5, 62, 0
7, 164580, Note_on_c, 5, 60, 90
7, 164639, Note_on_c, 5, 60, 0
7, 164640, Note_on_c, 5, 59, 90
7, 164879, Note_on_c, 5, 59, 0
7, 167280, Note_on_c, 5, 67, 90
7, 167340, Note_on_c, 5, 67, 0
7, 167460, Note_on_c, 5, 59, 90
7, 167490, Note_on_c, 5, 59, 0
7, 167520, Note_on_c, 5, 64, 90
7, 167550, Note_on_c, 5, 64, 0
7, 167700, Note_on_c, 5, 66, 90
7, 167730, Note_on_c, 5, 66, 0
7, 167760, Note_on_c, 5, 66, 90
7, 167790, Note_on_c, 5, 66, 0
7, 167940, Note_on_c, 5, 67, 90
7, 167970, Note_on_c, 5, 67, 0
7, 168000, Note_on_c, 5, 67, 90
7, 168030, Note_on_c, 5, 67, 0
7, 168180, Note_on_c, 5, 60, 90
7, 168210, Note_on_c, 5, 60, 0
7, 168240, Note_on_c, 5, 60, 90
7, 168270, Note_on_c, 5, 60, 0
7, 168420, Note_on_c, 5, 60, 90
7, 168450, Note_on_c, 5, 60, 0
7, 168480, Note_on_c, 5, 59, 90
7, 168510, Note_on_c, 5, 59, 0
7, 168660, Note_on_c, 5, 67, 90
7, 168690, Note_on_c, 5, 67, 0
7, 168720, Note_on_c, 5, 61, 90
7, 168750, Note_on_c, 5, 61, 0
7, 168900, Note_on_c, 5, 69, 90
7, 168930, Note_on_c, 5, 69, 0
7, 168960, Note_on_c, 5, 67, 90
7, 168990, Note_on_c, 5, 67, 0
7, 169140, Note_on_c, 5, 67, 90
7, 169170, Note_on_c, 5, 67, 0
7, 169200, Note_on_c, 5, 61, 90
7, 169230, Note_on_c, 5, 61, 0
7, 169380, Note_on_c, 5, 66, 90
7, 169410, Note_on_c, 5, 66, 0
7, 169440, Note_on_c, 5, 67, 90
7, 169470, Note_on_c, 5, 67, 0
7, 169620, Note_on_c, 5, 64, 90
7, 169650, Note_on_c, 5, 64, 0
7, 169680, Note_on_c, 5, 66, 90
7, 169710, Note_on_c, 5, 66, 0
7, 169860, Note_on_c, 5, 59, 90
7, 169890, Note_on_c, 5, 59, 0
7, 169920, Note_on_c, 5, 61, 90
7, 169950, Note_on_c, 5, 61, 0
7, 170100, Note_on_c, 5, 57, 90
7, 170130, Note_on_c, 5, 57, 0
7, 170160, Note_on_c, 5, 62, 90
7, 170190, Note_on_c, 5, 62, 0
7, 170340, Note_on_c, 5, 64, 90
7, 170370, Note_on_c, 5, 64, 0
7, 170400, Note_on_c, 5, 57, 90
7, 170430, Note_on_c, 5, 57, 0
7, 170580, Note_on_c, 5, 62, 90
7, 170610, Note_on_c, 5, 62, 0
7, 170640, Note_on_c, 5, 59, 90
7, 170670, Note_on_c, 5, 59, 0
7, 170820, Note_on_c, 5, 64, 90
7, 170850, Note_on_c, 5, 64, 0
7, 170880, Note_on_c, 5, 71, 90
7, 170910, Note_on_c, 5, 71, 0
7, 171060, Note_on_c, 5, 69, 90
7, 171090, Note_on_c, 5, 69, 0
7, 171120, Note_on_c, 5, 57, 90
7, 171150, Note_on_c, 5, 57, 0
7, 171300, Note_on_c, 5, 57, 90
7, 171330, Note_on_c, 5, 57, 0
7, 171360, Note_on_c, 5, 64, 90
7, 171390, Note_on_c, 5, 64, 0
7, 171540, Note_on_c, 5, 64, 90
7, 171570, Note_on_c, 5, 64, 0
7, 171600, Note_on_c, 5, 64, 90
7, 171630, Note_on_c, 5, 64, 0
7, 171780, Note_on_c, 5, 60, 90
7, 171810, Note_on_c, 5, 60, 0
7, 171840, Note_on_c, 5, 59, 90
7, 171870, Note_on_c, 5, 59, 0
7, 172020, Note_on_c, 5, 62, 90
7, 172050, Note_on_c, 5, 62, 0
7, 172080, Note_on_c, 5, 62, 90
7, 172110, Note_on_c, 5, 62, 0
7, 172260, Note_on_c, 5, 62, 90
7, 172290, Note_on_c, 5, 62, 0
7, 172320, Note_on_c, 5, 60, 90
7, 172350, Note_on_c, 5, 60, 0
7, 172500, Note_on_c, 5, 59, 90
7, 172530, Note_on_c, 5, 59, 0
7, 172560, Note_on_c, 5, 64, 90
7, 172590, Note_on_c, 5, 64, 0
7, 172740, Note_on_c, 5, 64, 90
7, 172770, Note_on_c, 5, 64, 0
7, 172800, Note_on_c, 5, 64, 90
7, 172830, Note_on_c, 5, 64, 0
7, 172980, Note_on_c, 5, 64, 90
7, 173010, Note_on_c, 5, 64, 0
7, 173040, Note_on_c, 5, 63, 90
7, 173070, Note_on_c, 5, 63, 0
7, 173220, Note_on_c, 5, 60, 90
7, 173250, Note_on_c, 5, 60, 0
7, 173280, Note_on_c, 5, 60, 90
7, 173310, Note_on_c, 5, 60, 0
7, 173460, Note_on_c, 5, 59, 90
7, 173490, Note_on_c, 5, 59, 0
7, 173520, Note_on_c, 5, 59, 90
7, 173550, Note_on_c, 5, 59, 0
7, 173700, Note_on_c, 5, 64, 90
7, 173730, Note_on_c, 5, 64, 0
7, 173760, Note_on_c, 5, 66, 90
7, 173790, Note_on_c, 5, 66, 0
7, 173940, Note_on_c, 5, 59, 90
7, 173970, Note_on_c, 5, 59, 0
7, 174000, Note_on_c, 5, 57, 90
7, 174030, Note_on_c, 5, 57, 0
7, 174180, Note_on_c, 5, 63, 90
7, 174210, Note_on_c, 5, 63, 0
7, 174240, Note_on_c, 5, 59, 90
7, 174270, Note_on_c, 5, 59, 0
7, 174420, Note_on_c, 5, 55, 90
7, 174450, Note_on_c, 5, 55, 0
7, 174480, Note_on_c, 5, 57, 90
7, 174510, Note_on_c, 5, 57, 0
7, 174660, Note_on_c, 5, 55, 90
7, 174690, Note_on_c, 5, 55, 0
7, 174720, Note_on_c, 5, 60, 90
7, 174750, Note_on_c, 5, 60, 0
7, 174900, Note_on_c, 5, 59, 90
7, 174930, Note_on_c, 5, 59, 0
7, 174960, Note_on_c, 5, 59, 90
7, 174990, Note_on_c, 5, 59, 0
7, 175140, Note_on_c, 5, 60, 90
7, 175170, Note_on_c, 5, 60, 0
7, 175200, Note_on_c, 5, 60, 90
7, 175230, Note_on_c, 5, 60, 0
7, 175380, Note_on_c, 5, 57, 90
7, 175410, Note_on_c, 5, 57, 0
7, 175440, Note_on_c, 5, 64, 90
7, 175470, Note_on_c, 5, 64, 0
7, 175620, Note_on_c, 5, 64, 90
7, 175650, Note_on_c, 5, 64, 0
7, 175680, Note_on_c, 5, 57, 90
7, 175710, Note_on_c, 5, 57, 0
7, 175860, Note_on_c, 5, 60, 90
7, 175890, Note_on_c, 5, 60, 0
7, 175920, Note_on_c, 5, 60, 90
7, 175950, Note_on_c, 5, 60, 0
7, 176100, Note_on_c, 5, 57, 90
7, 176130, Note_on_c, 5, 57, 0
7, 176160, Note_on_c, 5, 64, 90
7, 176190, Note_on_c, 5, 64, 0
7, 176340, Note_on_c, 5, 64, 90
7, 176370, Note_on_c, 5, 64, 0
7, 176400, Note_on_c, 5, 64, 90
7, 176430, Note_on_c, 5, 64, 0
7, 176580, Note_on_c, 5, 62, 90
7, 176610, Note_on_c, 5, 62, 0
7, 176640, Note_on_c, 5, 55, 90
7, 176670, Note_on_c, 5, 55, 0
7, 176820, Note_on_c, 5, 59, 90
7, 176850, Note_on_c, 5, 59, 0
7, 176880, Note_on_c, 5, 61, 90
7, 176910, Note_on_c, 5, 61, 0
7, 177060, Note_on_c, 5, 61, 90
7, 177090, Note_on_c, 5, 61, 0
7, 177120, Note_on_c, 5, 64, 90
7, 177150, Note_on_c, 5, 64, 0
7, 177300, Note_on_c, 5, 58, 90
7, 177330, Note_on_c, 5, 58, 0
7, 177360, Note_on_c, 5, 62, 90
7, 177390, Note_on_c, 5, 62, 0
7, 177540, Note_on_c, 5, 61, 90
7, 177570, Note_on_c, 5, 61, 0
7, 177600, Note_on_c, 5, 61, 90
7, 177630, Note_on_c, 5, 61, 0
7, 177780, Note_on_c, 5, 66, 90
7, 177810, Note_on_c, 5, 66, 0
7, 177840, Note_on_c, 5, 59, 90
7, 177870, Note_on_c, 5, 59, 0
7, 178020, Note_on_c, 5, 64, 90
7, 178050, Note_on_c, 5, 64, 0
7, 178080, Note_on_c, 5, 62, 90
7, 178110, Note_on_c, 5, 62, 0
7, 178260, Note_on_c, 5, 62, 90
7, 178290, Note_on_c, 5, 62, 0
7, 178320, Note_on_c, 5, 55, 90
7, 178350, Note_on_c, 5, 55, 0
7, 178500, Note_on_c, 5, 58, 90
7, 178530, Note_on_c, 5, 58, 0
7, 178560, Note_on_c, 5, 59, 90
7, 178590, Note_on_c, 5, 59, 0
7, 178740, Note_on_c, 5, 58, 90
7, 178799, Note_on_c, 5, 58, 0
7, 178800, Note_on_c, 5, 59, 90
7, 178919, Note_on_c, 5, 59, 0
7, 178920, Note_on_c, 5, 63, 90
7, 179039, Note_on_c, 5, 63, 0
7, 179040, Note_on_c, 5, 64, 90
7, 179279, Note_on_c, 5, 64, 0
7, 179280, Note_on_c, 5, 63, 90
7, 179399, Note_on_c, 5, 63, 0
7, 179400, Note_on_c, 5, 59, 90
7, 179879, Note_on_c, 5, 59, 0
7, 179880, Note_on_c, 5, 64, 90
7, 180119, Note_on_c, 5, 64, 0
7, 180120, Note_on_c, 5, 62, 90
7, 180359, Note_on_c, 5, 62, 0
7, 180360, Note_on_c, 5, 60, 90
7, 180479, Note_on_c, 5, 60, 0
7, 180480, Note_on_c, 5, 59, 90
7, 180719, Note_on_c, 5, 59, 0
7, 180720, Note_on_c, 5, 57, 90
7, 180959, Note_on_c, 5, 57, 0
7, 180960, Note_on_c, 5, 58, 90
7, 181199, Note_on_c, 5, 58, 0
7, 181200, Note_on_c, 5, 57, 90
7, 181919, Note_on_c, 5, 57, 0
7, 181920, Note_on_c, 5, 55, 90
7, 182279, Note_on_c, 5, 55, 0
7, 182280, Note_on_c, 5, 64, 90
7, 182519, Note_on_c, 5, 64, 0
7, 182520, Note_on_c, 5, 69, 90
7, 182759, Note_on_c, 5, 69, 0
7, 182760, Note_on_c, 5, 62, 90
7, 182999, Note_on_c, 5, 62, 0
7, 183000, Note_on_c, 5, 59, 90
7, 183119, Note_on_c, 5, 59, 0
7, 183120, Note_on_c, 5, 55, 90
7, 183359, Note_on_c, 5, 55, 0
7, 183360, Note_on_c, 5, 57, 90
7, 184079, Note_on_c, 5, 57, 0
7, 184080, Note_on_c, 5, 55, 90
7, 184319, Note_on_c, 5, 55, 0
7, 184320, Note_on_c, 5, 59, 90
7, 184439, Note_on_c, 5, 59, 0
7, 184440, Note_on_c, 5, 64, 90
7, 184679, Note_on_c, 5, 64, 0
7, 184680, Note_on_c, 5, 57, 90
7, 184919, Note_on_c, 5, 57, 0
7, 184920, Note_on_c, 5, 66, 90
7, 185039, Note_on_c, 5, 66, 0
7, 185040, Note_on_c, 5, 59, 90
7, 185279, Note_on_c, 5, 59, 0
7, 185280, Note_on_c, 5, 66, 90
7, 185519, Note_on_c, 5, 66, 0
7, 185520, Note_on_c, 5, 60, 90
7, 185759, Note_on_c, 5, 60, 0
7, 185760, Note_on_c, 5, 64, 90
7, 185879, Note_on_c, 5, 64, 0
7, 185880, Note_on_c, 5, 69, 90
7, 185999, Note_on_c, 5, 69, 0
7, 186000, Note_on_c, 5, 62, 90
7, 186479, Note_on_c, 5, 62, 0
7, 186480, Note_on_c, 5, 64, 90
7, 186599, Note_on_c, 5, 64, 0
7, 186600, Note_on_c, 5, 55, 90
7, 186719, Note_on_c, 5, 55, 0
7, 186720, Note_on_c, 5, 60, 90
7, 186959, Note_on_c, 5, 60, 0
7, 186960, Note_on_c, 5, 64, 90
7, 187079, Note_on_c, 5, 64, 0
7, 187080, Note_on_c, 5, 60, 90
7, 187199, Note_on_c, 5, 60, 0
7, 187200, Note_on_c, 5, 57, 90
7, 187259, Note_on_c, 5, 57, 0
7, 187260, Note_on_c, 5, 62, 90
7, 187379, Note_on_c, 5, 62, 0
7, 187380, Note_on_c, 5, 61, 90
7, 187439, Note_on_c, 5, 61, 0
7, 187440, Note_on_c, 5, 62, 90
7, 187919, Note_on_c, 5, 62, 0
7, 187920, Note_on_c, 5, 60, 90
7, 188039, Note_on_c, 5, 60, 0
7, 188040, Note_on_c, 5, 55, 90
7, 188159, Note_on_c, 5, 55, 0
7, 188160, Note_on_c, 5, 60, 90
7, 188519, Note_on_c, 5, 60, 0
7, 188520, Note_on_c, 5, 57, 90
7, 188639, Note_on_c, 5, 57, 0
7, 188640, Note_on_c, 5, 63, 90
7, 188879, Note_on_c, 5, 63, 0
7, 188880, Note_on_c, 5, 59, 90
7, 189359, Note_on_c, 5, 59, 0
7, 189360, Note_on_c, 5, 57, 90
7, 189839, Note_on_c, 5, 57, 0
7, 189840, Note_on_c, 5, 59, 90
7, 190319, Note_on_c, 5, 59, 0
7, 190320, Note_on_c, 5, 60, 90
7, 190439, Note_on_c, 5, 60, 0
7, 190440, Note_on_c, 5, 60, 90
7, 190500, Note_on_c, 5, 60, 0
7, 190620, Note_on_c, 5, 60, 90
7, 190650, Note_on_c, 5, 60, 0
7, 190680, Note_on_c, 5, 55, 90
7, 190710, Note_on_c, 5, 55, 0
7, 190860, Note_on_c, 5, 62, 90
7, 190890, Note_on_c, 5, 62, 0
7, 190920, Note_on_c, 5, 55, 90
7, 190950, Note_on_c, 5, 55, 0
7, 191100, Note_on_c, 5, 64, 90
7, 191130, Note_on_c, 5, 64, 0
7, 191160, Note_on_c, 5, 60, 90
7, 191190, Note_on_c, 5, 60, 0
7, 191340, Note_on_c, 5, 65, 90
7, 191370, Note_on_c, 5, 65, 0
7, 191400, Note_on_c, 5, 59, 90
7, 191430, Note_on_c, 5, 59, 0
7, 191580, Note_on_c, 5, 62, 90
7, 191610, Note_on_c, 5, 62, 0
7, 191640, Note_on_c, 5, 60, 90
7, 191670, Note_on_c, 5, 60, 0
7, 191820, Note_on_c, 5, 62, 90
7, 191850, Note_on_c, 5, 62, 0
7, 191880, Note_on_c, 5, 55, 90
7, 191910, Note_on_c, 5, 55, 0
7, 192060, Note_on_c, 5, 59, 90
7, 192090, Note_on_c, 5, 59, 0
7, 192120, Note_on_c, 5, 60, 90
7, 192150, Note_on_c, 5, 60, 0
7, 192300, Note_on_c, 5, 57, 90
7, 192330, Note_on_c, 5, 57, 0
7, 192360, Note_on_c, 5, 62, 90
7, 192390, Note_on_c, 5, 62, 0
7, 192540, Note_on_c, 5, 60, 90
7, 192570, Note_on_c, 5, 60, 0
7, 192600, Note_on_c, 5, 62, 90
7, 192630, Note_on_c, 5, 62, 0
7, 192780, Note_on_c, 5, 62, 90
7, 192810, Note_on_c, 5, 62, 0
7, 192840, Note_on_c, 5, 59, 90
7, 192870, Note_on_c, 5, 59, 0
7, 193020, Note_on_c, 5, 60, 90
7, 193050, Note_on_c, 5, 60, 0
7, 193080, Note_on_c, 5, 59, 90
7, 193110, Note_on_c, 5, 59, 0
7, 193260, Note_on_c, 5, 59, 90
7, 193290, Note_on_c, 5, 59, 0
7, 193320, Note_on_c, 5, 57, 90
7, 193350, Note_on_c, 5, 57, 0
7, 193500, Note_on_c, 5, 62, 90
7, 193530, Note_on_c, 5, 62, 0
7, 193560, Note_on_c, 5, 64, 90
7, 193590, Note_on_c, 5, 64, 0
7, 193740, Note_on_c, 5, 57, 90
7, 193770, Note_on_c, 5, 57, 0
7, 193800, Note_on_c, 5, 57, 90
7, 193830, Note_on_c, 5, 57, 0
7, 193980, Note_on_c, 5, 60, 90
7, 194010, Note_on_c, 5, 60, 0
7, 194040, Note_on_c, 5, 57, 90
7, 194070, Note_on_c, 5, 57, 0
7, 194100, Note_on_c, 5, 62, 90
7, 194159, Note_on_c, 5, 62, 0
7, 194160, Note_on_c, 5, 62, 90
7, 194219, Note_on_c, 5, 62, 0
7, 194220, Note_on_c, 5, 55, 90
7, 194279, Note_on_c, 5, 55, 0
7, 194280, Note_on_c, 5, 62, 90
7, 194519, Note_on_c, 5, 62, 0
7, 194520, Note_on_c, 5, 60, 90
7, 194759, Note_on_c, 5, 60, 0
7, 194760, Note_on_c, 5, 59, 90
7, 194999, Note_on_c, 5, 59, 0
7, 195000, Note_on_c, 5, 57, 90
7, 195119, Note_on_c, 5, 57, 0
7, 195120, Note_on_c, 5, 55, 90
7, 195239, Note_on_c, 5, 55, 0
7, 195240, Note_on_c, 5, 62, 90
7, 195479, Note_on_c, 5, 62, 0
7, 195480, Note_on_c, 5, 60, 90
7, 195719, Note_on_c, 5, 60, 0
7, 195720, Note_on_c, 5, 59, 90
7, 195959, Note_on_c, 5, 59, 0
7, 195960, Note_on_c, 5, 57, 90
7, 196079, Note_on_c, 5, 57, 0
7, 196080, Note_on_c, 5, 55, 90
7, 196199, Note_on_c, 5, 55, 0
7, 196440, Note_on_c, 5, 60, 90
7, 196499, Note_on_c, 5, 60, 0
7, 196500, Note_on_c, 5, 59, 90
7, 196559, Note_on_c, 5, 59, 0
7, 196560, Note_on_c, 5, 57, 90
7, 196619, Note_on_c, 5, 57, 0
7, 196620, Note_on_c, 5, 59, 90
7, 196679, Note_on_c, 5, 59, 0
7, 196680, Note_on_c, 5, 60, 90
7, 196739, Note_on_c, 5, 60, 0
7, 196740, Note_on_c, 5, 64, 90
7, 196799, Note_on_c, 5, 64, 0
7, 196800, Note_on_c, 5, 62, 90
7, 196979, Note_on_c, 5, 62, 0
7, 196980, Note_on_c, 5, 69, 90
7, 197039, Note_on_c, 5, 69, 0
7, 197040, Note_on_c, 5, 67, 90
7, 197099, Note_on_c, 5, 67, 0
7, 197100, Note_on_c, 5, 65, 90
7, 197129, Note_on_c, 5, 65, 0
7, 197130, Note_on_c, 5, 64, 90
7, 197159, Note_on_c, 5, 64, 0
7, 197160, Note_on_c, 5, 62, 90
7, 197339, Note_on_c, 5, 62, 0
7, 197340, Note_on_c, 5, 61, 90
7, 197369, Note_on_c, 5, 61, 0
7, 197370, Note_on_c, 5, 62, 90
7, 197399, Note_on_c, 5, 62, 0
7, 197400, Note_on_c, 5, 64, 90
7, 197429, Note_on_c, 5, 64, 0
7, 197430, Note_on_c, 5, 66, 90
7, 197459, Note_on_c, 5, 66, 0
7, 197460, Note_on_c, 5, 67, 90
7, 197489, Note_on_c, 5, 67, 0
7, 197490, Note_on_c, 5, 66, 90
7, 197519, Note_on_c, 5, 66, 0
7, 197520, Note_on_c, 5, 64, 90
7, 197579, Note_on_c, 5, 64, 0
7, 197580, Note_on_c, 5, 66, 90
7, 197609, Note_on_c, 5, 66, 0
7, 197610, Note_on_c, 5, 67, 90
7, 197639, Note_on_c, 5, 67, 0
7, 197640, Note_on_c, 5, 69, 90
7, 197879, Note_on_c, 5, 69, 0
7, 197880, Note_on_c, 5, 57, 90
7, 197999, Note_on_c, 5, 57, 0
7, 198000, Note_on_c, 5, 55, 90
7, 198240, Note_on_c, 5, 55, 0
7, 203160, Note_on_c, 5, 55, 100
7, 204420, Note_on_c, 5, 55, 0
7, 205680, Note_on_c, 5, 64, 100
7, 206940, Note_on_c, 5, 64, 0
7, 208200, Note_on_c, 5, 62, 100
7, 209460, Note_on_c, 5, 62, 0
7, 210720, Note_on_c, 5, 55, 100
7, 211980, Note_on_c, 5, 55, 0
7, 211980, End_track
8, 0, Start_track
8, 0, MIDI_port, 0
8, 0, Title_t, "Violin I"
8, 0, Program_c, 6, 48
8, 0, Control_c, 6, 7, 127
8, 0, Control_c, 6, 10, 47
8, 0, Note_on_c, 6, 71, 100
8, 90, Note_on_c, 6, 71, 0
8, 90, Note_on_c, 6, 74, 100
8, 120, Note_on_c, 6, 74, 0
8, 120, Note_on_c, 6, 79, 100
8, 180, Note_on_c, 6, 79, 0
8, 180, Note_on_c, 6, 79, 100
8, 270, Note_on_c, 6, 79, 0
8, 270, Note_on_c, 6, 78, 100
8, 300, Note_on_c, 6, 78, 0
8, 300, Note_on_c, 6, 79, 100
8, 360, Note_on_c, 6, 79, 0
8, 360, Note_on_c, 6, 67, 100
8, 540, Note_on_c, 6, 67, 0
8, 660, Note_on_c, 6, 67, 100
8, 810, Note_on_c, 6, 67, 0
8, 810, Note_on_c, 6, 69, 100
8, 840, Note_on_c, 6, 69, 0
8, 840, Note_on_c, 6, 67, 100
8, 900, Note_on_c, 6, 67, 0
8, 900, Note_on_c, 6, 66, 100
8, 990, Note_on_c, 6, 66, 0
8, 990, Note_on_c, 6, 69, 100
8, 1020, Note_on_c, 6, 69, 0
8, 1020, Note_on_c, 6, 72, 100
8, 1080, Note_on_c, 6, 72, 0
8, 1080, Note_on_c, 6, 71, 100
8, 1260, Note_on_c, 6, 71, 0
8, 1380, Note_on_c, 6, 77, 100
8, 1530, Note_on_c, 6, 77, 0
8, 1530, Note_on_c, 6, 76, 100
8, 1560, Note_on_c, 6, 76, 0
8, 1560, Note_on_c, 6, 81, 100
8, 1620, Note_on_c, 6, 81, 0
8, 1620, Note_on_c, 6, 79, 100
8, 1650, Note_on_c, 6, 79, 0
8, 1650, Note_on_c, 6, 78, 100
8, 1740, Note_on_c, 6, 78, 0
8, 1740, Note_on_c, 6, 76, 100
8, 1890, Note_on_c, 6, 76, 0
8, 1890, Note_on_c, 6, 74, 100
8, 1920, Note_on_c, 6, 74, 0
8, 1920, Note_on_c, 6, 79, 100
8, 1980, Note_on_c, 6, 79, 0
8, 1980, Note_on_c, 6, 78, 100
8, 2010, Note_on_c, 6, 78, 0
8, 2010, Note_on_c, 6, 76, 100
8, 2100, Note_on_c, 6, 76, 0
8, 2100, Note_on_c, 6, 74, 100
8, 2250, Note_on_c, 6, 74, 0
8, 2250, Note_on_c, 6, 76, 100
8, 2280, Note_on_c, 6, 76, 0
8, 2280, Note_on_c, 6, 72, 100
8, 2430, Note_on_c, 6, 72, 0
8, 2430, Note_on_c, 6, 74, 100
8, 2460, Note_on_c, 6, 74, 0
8, 2460, Note_on_c, 6, 71, 100
8, 2520, Note_on_c, 6, 71, 0
8, 2520, Note_on_c, 6, 72, 100
8, 2535, Note_on_c, 6, 72, 0
8, 2535, Note_on_c, 6, 71, 100
8, 2550, Note_on_c, 6, 71, 0
8, 2550, Note_on_c, 6, 72, 100
8, 2565, Note_on_c, 6, 72, 0
8, 2565, Note_on_c, 6, 71, 100
8, 2580, Note_on_c, 6, 71, 0
8, 2580, Note_on_c, 6, 72, 100
8, 2595, Note_on_c, 6, 72, 0
8, 2595, Note_on_c, 6, 71, 100
8, 2610, Note_on_c, 6, 71, 0
8, 2610, Note_on_c, 6, 72, 100
8, 2625, Note_on_c, 6, 72, 0
8, 2625, Note_on_c, 6, 71, 100
8, 2640, Note_on_c, 6, 71, 0
8, 2640, Note_on_c, 6, 69, 100
8, 2700, Note_on_c, 6, 69, 0
8, 2700, Note_on_c, 6, 72, 100
8, 3000, Note_on_c, 6, 72, 0
8, 3000, Note_on_c, 6, 71, 100
8, 3060, Note_on_c, 6, 71, 0
8, 3180, Note_on_c, 6, 69, 100
8, 3240, Note_on_c, 6, 69, 0
8, 3240, Note_on_c, 6, 68, 100
8, 3360, Note_on_c, 6, 68, 0
8, 3360, Note_on_c, 6, 71, 100
8, 3420, Note_on_c, 6, 71, 0
8, 3420, Note_on_c, 6, 74, 100
8, 3720, Note_on_c, 6, 74, 0
8, 3720, Note_on_c, 6, 73, 100
8, 3780, Note_on_c, 6, 73, 0
8, 3900, Note_on_c, 6, 71, 100
8, 3960, Note_on_c, 6, 71, 0
8, 3960, Note_on_c, 6, 69, 100
8, 4080, Note_on_c, 6, 69, 0
8, 4080, Note_on_c, 6, 76, 100
8, 4140, Note_on_c, 6, 76, 0
8, 4140, Note_on_c, 6, 83, 100
8, 4440, Note_on_c, 6, 83, 0
8, 4440, Note_on_c, 6, 81, 100
8, 4500, Note_on_c, 6, 81, 0
8, 4620, Note_on_c, 6, 79, 100
8, 4680, Note_on_c, 6, 79, 0
8, 4680, Note_on_c, 6, 78, 100
8, 4770, Note_on_c, 6, 78, 0
8, 4770, Note_on_c, 6, 79, 100
8, 4800, Note_on_c, 6, 79, 0
8, 4800, Note_on_c, 6, 79, 100
8, 4860, Note_on_c, 6, 79, 0
8, 4860, Note_on_c, 6, 78, 100
8, 4950, Note_on_c, 6, 78, 0
8, 4950, Note_on_c, 6, 79, 100
8, 4980, Note_on_c, 6, 79, 0
8, 4980, Note_on_c, 6, 76, 100
8, 5040, Note_on_c, 6, 76, 0
8, 5040, Note_on_c, 6, 76, 100
8, 5100, Note_on_c, 6, 76, 0
8, 5100, Note_on_c, 6, 74, 100
8, 5490, Note_on_c, 6, 74, 0
8, 5490, Note_on_c, 6, 62, 100
8, 5520, Note_on_c, 6, 62, 0
8, 5520, Note_on_c, 6, 67, 100
8, 5580, Note_on_c, 6, 67, 0
8, 5580, Note_on_c, 6, 66, 100
8, 5670, Note_on_c, 6, 66, 0
8, 5670, Note_on_c, 6, 67, 100
8, 5700, Note_on_c, 6, 67, 0
8, 5700, Note_on_c, 6, 64, 100
8, 5760, Note_on_c, 6, 64, 0
8, 5760, Note_on_c, 6, 62, 100
8, 6060, Note_on_c, 6, 62, 0
8, 7200, Note_on_c, 6, 71, 100
8, 7290, Note_on_c, 6, 71, 0
8, 7290, Note_on_c, 6, 74, 100
8, 7320, Note_on_c, 6, 74, 0
8, 7320, Note_on_c, 6, 79, 100
8, 7380, Note_on_c, 6, 79, 0
8, 7380, Note_on_c, 6, 79, 100
8, 7470, Note_on_c, 6, 79, 0
8, 7470, Note_on_c, 6, 78, 100
8, 7500, Note_on_c, 6, 78, 0
8, 7500, Note_on_c, 6, 79, 100
8, 7560, Note_on_c, 6, 79, 0
8, 7560, Note_on_c, 6, 67, 100
8, 7680, Note_on_c, 6, 67, 0
8, 8640, Note_on_c, 6, 71, 100
8, 8730, Note_on_c, 6, 71, 0
8, 8730, Note_on_c, 6, 74, 100
8, 8760, Note_on_c, 6, 74, 0
8, 8760, Note_on_c, 6, 77, 100
8, 8820, Note_on_c, 6, 77, 0
8, 8820, Note_on_c, 6, 77, 100
8, 8910, Note_on_c, 6, 77, 0
8, 8910, Note_on_c, 6, 76, 100
8, 8940, Note_on_c, 6, 76, 0
8, 8940, Note_on_c, 6, 77, 100
8, 9000, Note_on_c, 6, 77, 0
8, 9000, Note_on_c, 6, 76, 100
8, 9120, Note_on_c, 6, 76, 0
8, 10020, Note_on_c, 6, 77, 100
8, 10170, Note_on_c, 6, 77, 0
8, 10170, Note_on_c, 6, 76, 100
8, 10200, Note_on_c, 6, 76, 0
8, 10200, Note_on_c, 6, 81, 100
8, 10260, Note_on_c, 6, 81, 0
8, 10260, Note_on_c, 6, 79, 100
8, 10290, Note_on_c, 6, 79, 0
8, 10290, Note_on_c, 6, 78, 100
8, 10380, Note_on_c, 6, 78, 0
8, 10380, Note_on_c, 6, 76, 100
8, 10530, Note_on_c, 6, 76, 0
8, 10530, Note_on_c, 6, 74, 100
8, 10560, Note_on_c, 6, 74, 0
8, 10560, Note_on_c, 6, 79, 100
8, 10620, Note_on_c, 6, 79, 0
8, 10620, Note_on_c, 6, 78, 100
8, 10650, Note_on_c, 6, 78, 0
8, 10650, Note_on_c, 6, 76, 100
8, 10740, Note_on_c, 6, 76, 0
8, 10740, Note_on_c, 6, 74, 100
8, 10890, Note_on_c, 6, 74, 0
8, 10890, Note_on_c, 6, 76, 100
8, 10920, Note_on_c, 6, 76, 0
8, 10920, Note_on_c, 6, 72, 100
8, 11070, Note_on_c, 6, 72, 0
8, 11070, Note_on_c, 6, 74, 100
8, 11100, Note_on_c, 6, 74, 0
8, 11100, Note_on_c, 6, 71, 100
8, 11160, Note_on_c, 6, 71, 0
8, 11160, Note_on_c, 6, 72, 100
8, 11170, Note_on_c, 6, 72, 0
8, 11170, Note_on_c, 6, 71, 100
8, 11180, Note_on_c, 6, 71, 0
8, 11180, Note_on_c, 6, 72, 100
8, 11190, Note_on_c, 6, 72, 0
8, 11190, Note_on_c, 6, 71, 100
8, 11200, Note_on_c, 6, 71, 0
8, 11200, Note_on_c, 6, 72, 100
8, 11210, Note_on_c, 6, 72, 0
8, 11210, Note_on_c, 6, 71, 100
8, 11220, Note_on_c, 6, 71, 0
8, 11220, Note_on_c, 6, 72, 100
8, 11230, Note_on_c, 6, 72, 0
8, 11230, Note_on_c, 6, 71, 100
8, 11240, Note_on_c, 6, 71, 0
8, 11240, Note_on_c, 6, 72, 100
8, 11250, Note_on_c, 6, 72, 0
8, 11250, Note_on_c, 6, 71, 100
8, 11260, Note_on_c, 6, 71, 0
8, 11260, Note_on_c, 6, 72, 100
8, 11270, Note_on_c, 6, 72, 0
8, 11270, Note_on_c, 6, 71, 100
8, 11280, Note_on_c, 6, 71, 0
8, 11280, Note_on_c, 6, 69, 100
8, 11340, Note_on_c, 6, 69, 0
8, 12360, Note_on_c, 6, 76, 100
8, 12510, Note_on_c, 6, 76, 0
8, 12510, Note_on_c, 6, 75, 100
8, 12540, Note_on_c, 6, 75, 0
8, 12540, Note_on_c, 6, 81, 100
8, 12660, Note_on_c, 6, 81, 0
8, 12660, Note_on_c, 6, 79, 100
8, 12720, Note_on_c, 6, 79, 0
8, 12960, Note_on_c, 6, 67, 100
8, 13050, Note_on_c, 6, 67, 0
8, 13050, Note_on_c, 6, 71, 100
8, 13080, Note_on_c, 6, 71, 0
8, 13080, Note_on_c, 6, 76, 100
8, 13140, Note_on_c, 6, 76, 0
8, 13140, Note_on_c, 6, 76, 100
8, 13230, Note_on_c, 6, 76, 0
8, 13230, Note_on_c, 6, 75, 100
8, 13260, Note_on_c, 6, 75, 0
8, 13260, Note_on_c, 6, 76, 100
8, 13320, Note_on_c, 6, 76, 0
8, 13320, Note_on_c, 6, 64, 100
8, 13440, Note_on_c, 6, 64, 0
8, 13680, Note_on_c, 6, 81, 100
8, 13800, Note_on_c, 6, 81, 0
8, 13800, Note_on_c, 6, 79, 100
8, 13860, Note_on_c, 6, 79, 0
8, 13860, Note_on_c, 6, 79, 100
8, 13980, Note_on_c, 6, 79, 0
8, 13980, Note_on_c, 6, 78, 100
8, 14040, Note_on_c, 6, 78, 0
8, 14040, Note_on_c, 6, 78, 100
8, 14160, Note_on_c, 6, 78, 0
8, 14160, Note_on_c, 6, 76, 100
8, 14220, Note_on_c, 6, 76, 0
8, 14220, Note_on_c, 6, 76, 100
8, 14340, Note_on_c, 6, 76, 0
8, 14340, Note_on_c, 6, 75, 100
8, 14400, Note_on_c, 6, 75, 0
8, 14400, Note_on_c, 6, 76, 100
8, 14520, Note_on_c, 6, 76, 0
8, 14520, Note_on_c, 6, 79, 100
8, 14580, Note_on_c, 6, 79, 0
8, 14580, Note_on_c, 6, 79, 100
8, 14670, Note_on_c, 6, 79, 0
8, 14670, Note_on_c, 6, 81, 100
8, 14700, Note_on_c, 6, 81, 0
8, 14700, Note_on_c, 6, 79, 100
8, 14760, Note_on_c, 6, 79, 0
8, 14760, Note_on_c, 6, 78, 100
8, 15240, Note_on_c, 6, 78, 0
8, 15240, Note_on_c, 6, 75, 100
8, 15300, Note_on_c, 6, 75, 0
8, 15300, Note_on_c, 6, 76, 100
8, 15420, Note_on_c, 6, 76, 0
8, 15420, Note_on_c, 6, 78, 100
8, 15480, Note_on_c, 6, 78, 0
8, 15480, Note_on_c, 6, 71, 100
8, 15570, Note_on_c, 6, 71, 0
8, 15570, Note_on_c, 6, 84, 100
8, 15600, Note_on_c, 6, 84, 0
8, 15600, Note_on_c, 6, 83, 100
8, 15750, Note_on_c, 6, 83, 0
8, 15750, Note_on_c, 6, 76, 100
8, 15780, Note_on_c, 6, 76, 0
8, 15780, Note_on_c, 6, 75, 100
8, 15840, Note_on_c, 6, 75, 0
8, 15840, Note_on_c, 6, 76, 100
8, 15960, Note_on_c, 6, 76, 0
8, 16200, Note_on_c, 6, 67, 100
8, 16290, Note_on_c, 6, 67, 0
8, 16290, Note_on_c, 6, 71, 100
8, 16320, Note_on_c, 6, 71, 0
8, 16320, Note_on_c, 6, 76, 100
8, 16380, Note_on_c, 6, 76, 0
8, 16380, Note_on_c, 6, 76, 100
8, 16470, Note_on_c, 6, 76, 0
8, 16470, Note_on_c, 6, 75, 100
8, 16500, Note_on_c, 6, 75, 0
8, 16500, Note_on_c, 6, 76, 100
8, 16560, Note_on_c, 6, 76, 0
8, 16560, Note_on_c, 6, 66, 100
8, 16740, Note_on_c, 6, 66, 0
8, 16860, Note_on_c, 6, 66, 100
8, 17010, Note_on_c, 6, 66, 0
8, 17010, Note_on_c, 6, 67, 100
8, 17040, Note_on_c, 6, 67, 0
8, 17040, Note_on_c, 6, 66, 100
8, 17100, Note_on_c, 6, 66, 0
8, 17100, Note_on_c, 6, 64, 100
8, 17190, Note_on_c, 6, 64, 0
8, 17190, Note_on_c, 6, 67, 100
8, 17220, Note_on_c, 6, 67, 0
8, 17220, Note_on_c, 6, 71, 100
8, 17280, Note_on_c, 6, 71, 0
8, 17280, Note_on_c, 6, 69, 100
8, 17460, Note_on_c, 6, 69, 0
8, 17580, Note_on_c, 6, 67, 100
8, 17730, Note_on_c, 6, 67, 0
8, 17730, Note_on_c, 6, 71, 100
8, 17760, Note_on_c, 6, 71, 0
8, 17760, Note_on_c, 6, 69, 100
8, 17820, Note_on_c, 6, 69, 0
8, 17820, Note_on_c, 6, 67, 100
8, 17910, Note_on_c, 6, 67, 0
8, 17910, Note_on_c, 6, 71, 100
8, 17940, Note_on_c, 6, 71, 0
8, 17940, Note_on_c, 6, 74, 100
8, 18000, Note_on_c, 6, 74, 0
8, 18000, Note_on_c, 6, 74, 100
8, 18060, Note_on_c, 6, 74, 0
8, 18060, Note_on_c, 6, 73, 100
8, 18120, Note_on_c, 6, 73, 0
8, 18120, Note_on_c, 6, 74, 100
8, 18180, Note_on_c, 6, 74, 0
8, 18180, Note_on_c, 6, 79, 100
8, 18450, Note_on_c, 6, 79, 0
8, 18450, Note_on_c, 6, 78, 100
8, 18480, Note_on_c, 6, 78, 0
8, 18480, Note_on_c, 6, 83, 100
8, 18540, Note_on_c, 6, 83, 0
8, 18540, Note_on_c, 6, 81, 100
8, 18630, Note_on_c, 6, 81, 0
8, 18630, Note_on_c, 6, 83, 100
8, 18660, Note_on_c, 6, 83, 0
8, 18660, Note_on_c, 6, 79, 100
8, 18720, Note_on_c, 6, 79, 0
8, 18720, Note_on_c, 6, 78, 100
8, 18810, Note_on_c, 6, 78, 0
8, 18810, Note_on_c, 6, 74, 100
8, 18840, Note_on_c, 6, 74, 0
8, 18840, Note_on_c, 6, 79, 100
8, 18900, Note_on_c, 6, 79, 0
8, 18900, Note_on_c, 6, 78, 100
8, 18990, Note_on_c, 6, 78, 0
8, 18990, Note_on_c, 6, 79, 100
8, 19020, Note_on_c, 6, 79, 0
8, 19020, Note_on_c, 6, 76, 100
8, 19080, Note_on_c, 6, 76, 0
8, 19080, Note_on_c, 6, 74, 100
8, 19350, Note_on_c, 6, 74, 0
8, 19350, Note_on_c, 6, 76, 100
8, 19380, Note_on_c, 6, 76, 0
8, 19380, Note_on_c, 6, 73, 100
8, 19440, Note_on_c, 6, 73, 0
8, 19440, Note_on_c, 6, 74, 100
8, 19560, Note_on_c, 6, 74, 0
8, 20520, Note_on_c, 6, 78, 100
8, 20610, Note_on_c, 6, 78, 0
8, 20610, Note_on_c, 6, 81, 100
8, 20640, Note_on_c, 6, 81, 0
8, 20640, Note_on_c, 6, 86, 100
8, 20700, Note_on_c, 6, 86, 0
8, 20700, Note_on_c, 6, 86, 100
8, 20790, Note_on_c, 6, 86, 0
8, 20790, Note_on_c, 6, 85, 100
8, 20820, Note_on_c, 6, 85, 0
8, 20820, Note_on_c, 6, 86, 100
8, 20880, Note_on_c, 6, 86, 0
8, 20880, Note_on_c, 6, 74, 100
8, 21000, Note_on_c, 6, 74, 0
8, 21900, Note_on_c, 6, 76, 100
8, 22050, Note_on_c, 6, 76, 0
8, 22050, Note_on_c, 6, 74, 100
8, 22080, Note_on_c, 6, 74, 0
8, 22080, Note_on_c, 6, 79, 100
8, 22140, Note_on_c, 6, 79, 0
8, 22140, Note_on_c, 6, 78, 100
8, 22200, Note_on_c, 6, 78, 0
8, 22200, Note_on_c, 6, 76, 100
8, 22260, Note_on_c, 6, 76, 0
8, 22260, Note_on_c, 6, 74, 100
8, 22410, Note_on_c, 6, 74, 0
8, 22410, Note_on_c, 6, 73, 100
8, 22440, Note_on_c, 6, 73, 0
8, 22440, Note_on_c, 6, 78, 100
8, 22500, Note_on_c, 6, 78, 0
8, 22500, Note_on_c, 6, 76, 100
8, 22560, Note_on_c, 6, 76, 0
8, 22560, Note_on_c, 6, 74, 100
8, 22620, Note_on_c, 6, 74, 0
8, 22620, Note_on_c, 6, 73, 100
8, 22770, Note_on_c, 6, 73, 0
8, 22770, Note_on_c, 6, 71, 100
8, 22800, Note_on_c, 6, 71, 0
8, 22800, Note_on_c, 6, 76, 100
8, 22860, Note_on_c, 6, 76, 0
8, 22860, Note_on_c, 6, 74, 100
8, 22920, Note_on_c, 6, 74, 0
8, 22920, Note_on_c, 6, 73, 100
8, 22980, Note_on_c, 6, 73, 0
8, 22980, Note_on_c, 6, 71, 100
8, 23040, Note_on_c, 6, 71, 0
8, 23040, Note_on_c, 6, 71, 100
8, 23160, Note_on_c, 6, 71, 0
8, 23160, Note_on_c, 6, 70, 100
8, 23220, Note_on_c, 6, 70, 0
8, 23880, Note_on_c, 6, 83, 100
8, 23940, Note_on_c, 6, 83, 0
8, 23940, Note_on_c, 6, 74, 100
8, 24180, Note_on_c, 6, 74, 0
8, 24180, Note_on_c, 6, 72, 100
8, 24240, Note_on_c, 6, 72, 0
8, 25920, Note_on_c, 6, 74, 100
8, 26010, Note_on_c, 6, 74, 0
8, 26010, Note_on_c, 6, 78, 100
8, 26040, Note_on_c, 6, 78, 0
8, 26040, Note_on_c, 6, 83, 100
8, 26100, Note_on_c, 6, 83, 0
8, 26100, Note_on_c, 6, 83, 100
8, 26190, Note_on_c, 6, 83, 0
8, 26190, Note_on_c, 6, 82, 100
8, 26220, Note_on_c, 6, 82, 0
8, 26220, Note_on_c, 6, 83, 100
8, 26280, Note_on_c, 6, 83, 0
8, 26280, Note_on_c, 6, 71, 100
8, 26400, Note_on_c, 6, 71, 0
8, 26640, Note_on_c, 6, 76, 90
8, 26759, Note_on_c, 6, 76, 0
8, 26760, Note_on_c, 6, 74, 90
8, 26819, Note_on_c, 6, 74, 0
8, 26820, Note_on_c, 6, 74, 90
8, 26939, Note_on_c, 6, 74, 0
8, 26940, Note_on_c, 6, 73, 90
8, 26999, Note_on_c, 6, 73, 0
8, 27000, Note_on_c, 6, 73, 90
8, 27119, Note_on_c, 6, 73, 0
8, 27120, Note_on_c, 6, 71, 90
8, 27179, Note_on_c, 6, 71, 0
8, 27180, Note_on_c, 6, 71, 90
8, 27299, Note_on_c, 6, 71, 0
8, 27300, Note_on_c, 6, 70, 90
8, 27359, Note_on_c, 6, 70, 0
8, 27360, Note_on_c, 6, 71, 90
8, 27479, Note_on_c, 6, 71, 0
8, 27480, Note_on_c, 6, 74, 90
8, 27539, Note_on_c, 6, 74, 0
8, 27540, Note_on_c, 6, 74, 90
8, 27629, Note_on_c, 6, 74, 0
8, 27630, Note_on_c, 6, 76, 90
8, 27659, Note_on_c, 6, 76, 0
8, 27660, Note_on_c, 6, 74, 90
8, 27719, Note_on_c, 6, 74, 0
8, 27720, Note_on_c, 6, 73, 90
8, 28200, Note_on_c, 6, 73, 0
8, 28200, Note_on_c, 6, 70, 90
8, 28260, Note_on_c, 6, 70, 0
8, 28260, Note_on_c, 6, 71, 90
8, 28380, Note_on_c, 6, 71, 0
8, 28380, Note_on_c, 6, 73, 90
8, 28440, Note_on_c, 6, 73, 0
8, 28440, Note_on_c, 6, 66, 90
8, 28530, Note_on_c, 6, 66, 0
8, 28530, Note_on_c, 6, 79, 90
8, 28560, Note_on_c, 6, 79, 0
8, 28560, Note_on_c, 6, 78, 90
8, 28710, Note_on_c, 6, 78, 0
8, 28710, Note_on_c, 6, 71, 90
8, 28740, Note_on_c, 6, 71, 0
8, 28740, Note_on_c, 6, 70, 90
8, 28800, Note_on_c, 6, 70, 0
8, 28800, Note_on_c, 6, 71, 90
8, 28920, Note_on_c, 6, 71, 0
8, 29250, Note_on_c, 6, 72, 90
8, 29280, Note_on_c, 6, 72, 0
8, 29280, Note_on_c, 6, 71, 90
8, 29430, Note_on_c, 6, 71, 0
8, 29430, Note_on_c, 6, 74, 90
8, 29460, Note_on_c, 6, 74, 0
8, 29460, Note_on_c, 6, 73, 90
8, 29520, Note_on_c, 6, 73, 0
8, 29520, Note_on_c, 6, 74, 90
8, 29610, Note_on_c, 6, 74, 0
8, 29610, Note_on_c, 6, 84, 90
8, 29640, Note_on_c, 6, 84, 0
8, 29640, Note_on_c, 6, 83, 90
8, 29790, Note_on_c, 6, 83, 0
8, 29790, Note_on_c, 6, 72, 90
8, 29820, Note_on_c, 6, 72, 0
8, 29820, Note_on_c, 6, 71, 90
8, 29880, Note_on_c, 6, 71, 0
8, 29880, Note_on_c, 6, 72, 90
8, 30000, Note_on_c, 6, 72, 0
8, 30000, Note_on_c, 6, 76, 90
8, 30060, Note_on_c, 6, 76, 0
8, 30060, Note_on_c, 6, 81, 90
8, 30180, Note_on_c, 6, 81, 0
8, 30180, Note_on_c, 6, 79, 90
8, 30240, Note_on_c, 6, 79, 0
8, 30240, Note_on_c, 6, 79, 90
8, 30360, Note_on_c, 6, 79, 0
8, 30360, Note_on_c, 6, 78, 90
8, 30420, Note_on_c, 6, 78, 0
8, 30960, Note_on_c, 6, 71, 100
8, 31050, Note_on_c, 6, 71, 0
8, 31050, Note_on_c, 6, 74, 100
8, 31080, Note_on_c, 6, 74, 0
8, 31080, Note_on_c, 6, 79, 100
8, 31140, Note_on_c, 6, 79, 0
8, 31140, Note_on_c, 6, 79, 100
8, 31230, Note_on_c, 6, 79, 0
8, 31230, Note_on_c, 6, 78, 100
8, 31260, Note_on_c, 6, 78, 0
8, 31260, Note_on_c, 6, 79, 100
8, 31320, Note_on_c, 6, 79, 0
8, 31320, Note_on_c, 6, 67, 100
8, 31500, Note_on_c, 6, 67, 0
8, 31620, Note_on_c, 6, 67, 100
8, 31770, Note_on_c, 6, 67, 0
8, 31770, Note_on_c, 6, 69, 100
8, 31800, Note_on_c, 6, 69, 0
8, 31800, Note_on_c, 6, 67, 100
8, 31860, Note_on_c, 6, 67, 0
8, 31860, Note_on_c, 6, 66, 100
8, 31950, Note_on_c, 6, 66, 0
8, 31950, Note_on_c, 6, 69, 100
8, 31980, Note_on_c, 6, 69, 0
8, 31980, Note_on_c, 6, 72, 100
8, 32040, Note_on_c, 6, 72, 0
8, 32040, Note_on_c, 6, 71, 100
8, 32220, Note_on_c, 6, 71, 0
8, 32340, Note_on_c, 6, 77, 100
8, 32490, Note_on_c, 6, 77, 0
8, 32490, Note_on_c, 6, 76, 100
8, 32520, Note_on_c, 6, 76, 0
8, 32520, Note_on_c, 6, 81, 100
8, 32580, Note_on_c, 6, 81, 0
8, 32580, Note_on_c, 6, 79, 100
8, 32610, Note_on_c, 6, 79, 0
8, 32610, Note_on_c, 6, 78, 100
8, 32700, Note_on_c, 6, 78, 0
8, 32700, Note_on_c, 6, 76, 100
8, 32850, Note_on_c, 6, 76, 0
8, 32850, Note_on_c, 6, 74, 100
8, 32880, Note_on_c, 6, 74, 0
8, 32880, Note_on_c, 6, 79, 100
8, 32940, Note_on_c, 6, 79, 0
8, 32940, Note_on_c, 6, 78, 100
8, 32970, Note_on_c, 6, 78, 0
8, 32970, Note_on_c, 6, 76, 100
8, 33060, Note_on_c, 6, 76, 0
8, 33060, Note_on_c, 6, 74, 100
8, 33210, Note_on_c, 6, 74, 0
8, 33210, Note_on_c, 6, 76, 100
8, 33240, Note_on_c, 6, 76, 0
8, 33240, Note_on_c, 6, 72, 100
8, 33390, Note_on_c, 6, 72, 0
8, 33390, Note_on_c, 6, 74, 100
8, 33420, Note_on_c, 6, 74, 0
8, 33420, Note_on_c, 6, 71, 100
8, 33480, Note_on_c, 6, 71, 0
8, 33480, Note_on_c, 6, 72, 100
8, 33490, Note_on_c, 6, 72, 0
8, 33490, Note_on_c, 6, 71, 100
8, 33500, Note_on_c, 6, 71, 0
8, 33500, Note_on_c, 6, 72, 100
8, 33510, Note_on_c, 6, 72, 0
8, 33510, Note_on_c, 6, 71, 100
8, 33520, Note_on_c, 6, 71, 0
8, 33520, Note_on_c, 6, 72, 100
8, 33530, Note_on_c, 6, 72, 0
8, 33530, Note_on_c, 6, 71, 100
8, 33540, Note_on_c, 6, 71, 0
8, 33540, Note_on_c, 6, 72, 100
8, 33550, Note_on_c, 6, 72, 0
8, 33550, Note_on_c, 6, 71, 100
8, 33560, Note_on_c, 6, 71, 0
8, 33560, Note_on_c, 6, 72, 100
8, 33570, Note_on_c, 6, 72, 0
8, 33570, Note_on_c, 6, 71, 100
8, 33580, Note_on_c, 6, 71, 0
8, 33580, Note_on_c, 6, 72, 100
8, 33590, Note_on_c, 6, 72, 0
8, 33590, Note_on_c, 6, 71, 100
8, 33600, Note_on_c, 6, 71, 0
8, 33600, Note_on_c, 6, 69, 100
8, 33660, Note_on_c, 6, 69, 0
8, 34920, Note_on_c, 6, 71, 90
8, 35010, Note_on_c, 6, 71, 0
8, 35010, Note_on_c, 6, 74, 90
8, 35040, Note_on_c, 6, 74, 0
8, 35040, Note_on_c, 6, 79, 90
8, 35100, Note_on_c, 6, 79, 0
8, 35100, Note_on_c, 6, 79, 90
8, 35190, Note_on_c, 6, 79, 0
8, 35190, Note_on_c, 6, 78, 90
8, 35220, Note_on_c, 6, 78, 0
8, 35220, Note_on_c, 6, 79, 90
8, 35280, Note_on_c, 6, 79, 0
8, 35280, Note_on_c, 6, 67, 90
8, 35400, Note_on_c, 6, 67, 0
8, 36360, Note_on_c, 6, 71, 90
8, 36450, Note_on_c, 6, 71, 0
8, 36450, Note_on_c, 6, 74, 90
8, 36480, Note_on_c, 6, 74, 0
8, 36480, Note_on_c, 6, 77, 90
8, 36540, Note_on_c, 6, 77, 0
8, 36540, Note_on_c, 6, 77, 90
8, 36630, Note_on_c, 6, 77, 0
8, 36630, Note_on_c, 6, 76, 90
8, 36660, Note_on_c, 6, 76, 0
8, 36660, Note_on_c, 6, 77, 90
8, 36720, Note_on_c, 6, 77, 0
8, 36720, Note_on_c, 6, 76, 90
8, 36840, Note_on_c, 6, 76, 0
8, 37740, Note_on_c, 6, 77, 90
8, 37800, Note_on_c, 6, 77, 0
8, 37800, Note_on_c, 6, 77, 90
8, 37920, Note_on_c, 6, 77, 0
8, 37920, Note_on_c, 6, 76, 90
8, 37980, Note_on_c, 6, 76, 0
8, 38100, Note_on_c, 6, 74, 90
8, 38160, Note_on_c, 6, 74, 0
8, 38160, Note_on_c, 6, 73, 90
8, 38280, Note_on_c, 6, 73, 0
8, 38340, Note_on_c, 6, 79, 90
8, 38640, Note_on_c, 6, 79, 0
8, 38640, Note_on_c, 6, 78, 90
8, 38700, Note_on_c, 6, 78, 0
8, 38820, Note_on_c, 6, 76, 90
8, 38880, Note_on_c, 6, 76, 0
8, 38880, Note_on_c, 6, 74, 90
8, 39000, Note_on_c, 6, 74, 0
8, 39000, Note_on_c, 6, 84, 90
8, 39060, Note_on_c, 6, 84, 0
8, 39060, Note_on_c, 6, 88, 90
8, 39360, Note_on_c, 6, 88, 0
8, 39360, Note_on_c, 6, 86, 90
8, 39420, Note_on_c, 6, 86, 0
8, 39540, Note_on_c, 6, 84, 90
8, 39600, Note_on_c, 6, 84, 0
8, 39600, Note_on_c, 6, 86, 90
8, 39690, Note_on_c, 6, 86, 0
8, 39690, Note_on_c, 6, 79, 90
8, 39720, Note_on_c, 6, 79, 0
8, 39720, Note_on_c, 6, 84, 90
8, 39780, Note_on_c, 6, 84, 0
8, 39780, Note_on_c, 6, 83, 90
8, 39870, Note_on_c, 6, 83, 0
8, 39870, Note_on_c, 6, 84, 90
8, 39900, Note_on_c, 6, 84, 0
8, 39900, Note_on_c, 6, 81, 90
8, 39960, Note_on_c, 6, 81, 0
8, 39960, Note_on_c, 6, 79, 90
8, 40410, Note_on_c, 6, 79, 0
8, 40410, Note_on_c, 6, 67, 90
8, 40440, Note_on_c, 6, 67, 0
8, 40440, Note_on_c, 6, 72, 90
8, 40500, Note_on_c, 6, 72, 0
8, 40500, Note_on_c, 6, 71, 90
8, 40590, Note_on_c, 6, 71, 0
8, 40590, Note_on_c, 6, 72, 90
8, 40620, Note_on_c, 6, 72, 0
8, 40620, Note_on_c, 6, 69, 90
8, 40680, Note_on_c, 6, 69, 0
8, 40680, Note_on_c, 6, 67, 90
8, 40800, Note_on_c, 6, 67, 0
8, 41040, Note_on_c, 6, 71, 90
8, 41130, Note_on_c, 6, 71, 0
8, 41130, Note_on_c, 6, 74, 90
8, 41160, Note_on_c, 6, 74, 0
8, 41160, Note_on_c, 6, 79, 90
8, 41220, Note_on_c, 6, 79, 0
8, 41220, Note_on_c, 6, 79, 90
8, 41310, Note_on_c, 6, 79, 0
8, 41310, Note_on_c, 6, 78, 90
8, 41340, Note_on_c, 6, 78, 0
8, 41340, Note_on_c, 6, 79, 90
8, 41400, Note_on_c, 6, 79, 0
8, 41400, Note_on_c, 6, 67, 90
8, 41520, Note_on_c, 6, 67, 0
8, 41760, Note_on_c, 6, 84, 90
8, 41879, Note_on_c, 6, 84, 0
8, 41880, Note_on_c, 6, 83, 90
8, 41939, Note_on_c, 6, 83, 0
8, 41940, Note_on_c, 6, 83, 90
8, 42059, Note_on_c, 6, 83, 0
8, 42060, Note_on_c, 6, 82, 90
8, 42119, Note_on_c, 6, 82, 0
8, 42120, Note_on_c, 6, 82, 90
8, 42239, Note_on_c, 6, 82, 0
8, 42240, Note_on_c, 6, 81, 90
8, 42299, Note_on_c, 6, 81, 0
8, 42300, Note_on_c, 6, 79, 90
8, 42419, Note_on_c, 6, 79, 0
8, 42420, Note_on_c, 6, 78, 90
8, 42479, Note_on_c, 6, 78, 0
8, 42480, Note_on_c, 6, 79, 90
8, 42599, Note_on_c, 6, 79, 0
8, 42600, Note_on_c, 6, 82, 90
8, 42659, Note_on_c, 6, 82, 0
8, 42660, Note_on_c, 6, 82, 90
8, 42749, Note_on_c, 6, 82, 0
8, 42750, Note_on_c, 6, 84, 90
8, 42779, Note_on_c, 6, 84, 0
8, 42780, Note_on_c, 6, 82, 90
8, 42839, Note_on_c, 6, 82, 0
8, 42840, Note_on_c, 6, 81, 90
8, 43320, Note_on_c, 6, 81, 0
8, 43320, Note_on_c, 6, 78, 90
8, 43380, Note_on_c, 6, 78, 0
8, 43380, Note_on_c, 6, 79, 90
8, 43500, Note_on_c, 6, 79, 0
8, 43500, Note_on_c, 6, 81, 90
8, 43560, Note_on_c, 6, 81, 0
8, 43560, Note_on_c, 6, 74, 90
8, 43650, Note_on_c, 6, 74, 0
8, 43650, Note_on_c, 6, 72, 90
8, 43680, Note_on_c, 6, 72, 0
8, 43680, Note_on_c, 6, 71, 90
8, 43740, Note_on_c, 6, 71, 0
8, 43740, Note_on_c, 6, 69, 90
8, 43830, Note_on_c, 6, 69, 0
8, 43830, Note_on_c, 6, 71, 90
8, 43860, Note_on_c, 6, 71, 0
8, 43860, Note_on_c, 6, 72, 90
8, 43920, Note_on_c, 6, 72, 0
8, 43920, Note_on_c, 6, 71, 90
8, 44010, Note_on_c, 6, 71, 0
8, 44010, Note_on_c, 6, 76, 90
8, 44040, Note_on_c, 6, 76, 0
8, 44040, Note_on_c, 6, 74, 90
8, 44190, Note_on_c, 6, 74, 0
8, 44190, Note_on_c, 6, 67, 90
8, 44220, Note_on_c, 6, 67, 0
8, 44220, Note_on_c, 6, 66, 90
8, 44280, Note_on_c, 6, 66, 0
8, 44280, Note_on_c, 6, 67, 90
8, 44400, Note_on_c, 6, 67, 0
8, 44640, Note_on_c, 6, 79, 90
8, 45000, Note_on_c, 6, 79, 0
8, 50520, Note_on_c, 6, 67, 90
8, 50639, Note_on_c, 6, 67, 0
8, 50640, Note_on_c, 6, 67, 90
8, 50759, Note_on_c, 6, 67, 0
8, 50760, Note_on_c, 6, 69, 90
8, 50879, Note_on_c, 6, 69, 0
8, 50880, Note_on_c, 6, 71, 90
8, 50939, Note_on_c, 6, 71, 0
8, 50940, Note_on_c, 6, 73, 90
8, 50999, Note_on_c, 6, 73, 0
8, 51000, Note_on_c, 6, 74, 90
8, 51119, Note_on_c, 6, 74, 0
8, 51120, Note_on_c, 6, 74, 90
8, 51239, Note_on_c, 6, 74, 0
8, 51240, Note_on_c, 6, 73, 90
8, 51359, Note_on_c, 6, 73, 0
8, 51360, Note_on_c, 6, 74, 90
8, 51449, Note_on_c, 6, 74, 0
8, 51480, Note_on_c, 6, 71, 90
8, 51599, Note_on_c, 6, 71, 0
8, 51600, Note_on_c, 6, 72, 90
8, 51719, Note_on_c, 6, 72, 0
8, 51720, Note_on_c, 6, 71, 90
8, 51839, Note_on_c, 6, 71, 0
8, 51840, Note_on_c, 6, 69, 90
8, 51959, Note_on_c, 6, 69, 0
8, 51960, Note_on_c, 6, 71, 90
8, 52079, Note_on_c, 6, 71, 0
8, 52080, Note_on_c, 6, 69, 90
8, 52319, Note_on_c, 6, 69, 0
8, 52320, Note_on_c, 6, 67, 90
8, 52409, Note_on_c, 6, 67, 0
8, 52440, Note_on_c, 6, 67, 90
8, 52559, Note_on_c, 6, 67, 0
8, 52560, Note_on_c, 6, 67, 90
8, 52679, Note_on_c, 6, 67, 0
8, 52680, Note_on_c, 6, 69, 90
8, 52799, Note_on_c, 6, 69, 0
8, 52800, Note_on_c, 6, 71, 90
8, 52859, Note_on_c, 6, 71, 0
8, 52860, Note_on_c, 6, 73, 90
8, 52919, Note_on_c, 6, 73, 0
8, 52920, Note_on_c, 6, 74, 90
8, 53039, Note_on_c, 6, 74, 0
8, 53040, Note_on_c, 6, 74, 90
8, 53159, Note_on_c, 6, 74, 0
8, 53160, Note_on_c, 6, 73, 90
8, 53279, Note_on_c, 6, 73, 0
8, 53280, Note_on_c, 6, 74, 90
8, 53369, Note_on_c, 6, 74, 0
8, 53400, Note_on_c, 6, 71, 90
8, 53519, Note_on_c, 6, 71, 0
8, 53520, Note_on_c, 6, 72, 90
8, 53639, Note_on_c, 6, 72, 0
8, 53640, Note_on_c, 6, 71, 90
8, 53759, Note_on_c, 6, 71, 0
8, 53760, Note_on_c, 6, 69, 90
8, 53879, Note_on_c, 6, 69, 0
8, 53880, Note_on_c, 6, 71, 90
8, 53999, Note_on_c, 6, 71, 0
8, 54000, Note_on_c, 6, 69, 90
8, 54239, Note_on_c, 6, 69, 0
8, 54240, Note_on_c, 6, 67, 90
8, 54329, Note_on_c, 6, 67, 0
8, 54360, Note_on_c, 6, 69, 90
8, 54479, Note_on_c, 6, 69, 0
8, 54480, Note_on_c, 6, 69, 90
8, 54599, Note_on_c, 6, 69, 0
8, 54600, Note_on_c, 6, 71, 90
8, 54719, Note_on_c, 6, 71, 0
8, 54720, Note_on_c, 6, 72, 90
8, 54839, Note_on_c, 6, 72, 0
8, 54840, Note_on_c, 6, 72, 90
8, 54959, Note_on_c, 6, 72, 0
8, 54960, Note_on_c, 6, 71, 90
8, 55019, Note_on_c, 6, 71, 0
8, 55020, Note_on_c, 6, 69, 90
8, 55079, Note_on_c, 6, 69, 0
8, 55080, Note_on_c, 6, 71, 90
8, 55199, Note_on_c, 6, 71, 0
8, 55200, Note_on_c, 6, 69, 90
8, 55289, Note_on_c, 6, 69, 0
8, 55320, Note_on_c, 6, 71, 90
8, 55439, Note_on_c, 6, 71, 0
8, 55440, Note_on_c, 6, 71, 90
8, 55559, Note_on_c, 6, 71, 0
8, 55560, Note_on_c, 6, 71, 90
8, 55679, Note_on_c, 6, 71, 0
8, 55680, Note_on_c, 6, 72, 90
8, 55739, Note_on_c, 6, 72, 0
8, 55740, Note_on_c, 6, 74, 90
8, 55799, Note_on_c, 6, 74, 0
8, 55800, Note_on_c, 6, 76, 90
8, 55919, Note_on_c, 6, 76, 0
8, 55920, Note_on_c, 6, 76, 90
8, 56039, Note_on_c, 6, 76, 0
8, 56040, Note_on_c, 6, 75, 90
8, 56159, Note_on_c, 6, 75, 0
8, 56160, Note_on_c, 6, 76, 90
8, 56249, Note_on_c, 6, 76, 0
8, 56280, Note_on_c, 6, 78, 90
8, 56399, Note_on_c, 6, 78, 0
8, 56400, Note_on_c, 6, 79, 90
8, 56519, Note_on_c, 6, 79, 0
8, 56520, Note_on_c, 6, 71, 90
8, 56639, Note_on_c, 6, 71, 0
8, 56640, Note_on_c, 6, 72, 90
8, 56759, Note_on_c, 6, 72, 0
8, 56760, Note_on_c, 6, 71, 90
8, 56879, Note_on_c, 6, 71, 0
8, 56880, Note_on_c, 6, 69, 90
8, 57119, Note_on_c, 6, 69, 0
8, 57120, Note_on_c, 6, 69, 90
8, 57209, Note_on_c, 6, 69, 0
8, 57240, Note_on_c, 6, 74, 90
8, 57359, Note_on_c, 6, 74, 0
8, 57360, Note_on_c, 6, 76, 90
8, 57479, Note_on_c, 6, 76, 0
8, 57480, Note_on_c, 6, 74, 90
8, 57599, Note_on_c, 6, 74, 0
8, 57600, Note_on_c, 6, 72, 90
8, 57719, Note_on_c, 6, 72, 0
8, 57720, Note_on_c, 6, 71, 90
8, 57779, Note_on_c, 6, 71, 0
8, 57780, Note_on_c, 6, 72, 90
8, 57839, Note_on_c, 6, 72, 0
8, 57840, Note_on_c, 6, 69, 90
8, 58079, Note_on_c, 6, 69, 0
8, 58080, Note_on_c, 6, 67, 90
8, 58199, Note_on_c, 6, 67, 0
8, 58920, Note_on_c, 6, 81, 70
8, 59160, Note_on_c, 6, 81, 0
8, 59160, Note_on_c, 6, 79, 70
8, 59520, Note_on_c, 6, 79, 0
8, 59520, Note_on_c, 6, 73, 70
8, 59760, Note_on_c, 6, 73, 0
8, 59760, Note_on_c, 6, 74, 70
8, 60240, Note_on_c, 6, 74, 0
8, 60360, Note_on_c, 6, 73, 70
8, 60480, Note_on_c, 6, 73, 0
8, 60480, Note_on_c, 6, 74, 70
8, 60960, Note_on_c, 6, 74, 0
8, 60960, Note_on_c, 6, 76, 70
8, 61320, Note_on_c, 6, 76, 0
8, 61320, Note_on_c, 6, 70, 70
8, 61440, Note_on_c, 6, 70, 0
8, 61440, Note_on_c, 6, 71, 70
8, 61800, Note_on_c, 6, 71, 0
8, 61920, Note_on_c, 6, 70, 70
8, 62040, Note_on_c, 6, 70, 0
8, 62040, Note_on_c, 6, 71, 70
8, 62160, Note_on_c, 6, 71, 0
8, 93000, Note_on_c, 6, 72, 90
8, 93119, Note_on_c, 6, 72, 0
8, 93120, Note_on_c, 6, 71, 90
8, 93239, Note_on_c, 6, 71, 0
8, 93240, Note_on_c, 6, 69, 90
8, 93359, Note_on_c, 6, 69, 0
8, 93360, Note_on_c, 6, 71, 90
8, 93419, Note_on_c, 6, 71, 0
8, 93420, Note_on_c, 6, 69, 90
8, 93479, Note_on_c, 6, 69, 0
8, 93480, Note_on_c, 6, 67, 90
8, 93599, Note_on_c, 6, 67, 0
8, 93600, Note_on_c, 6, 69, 90
8, 93719, Note_on_c, 6, 69, 0
8, 93720, Note_on_c, 6, 71, 90
8, 93839, Note_on_c, 6, 71, 0
8, 93840, Note_on_c, 6, 72, 90
8, 93929, Note_on_c, 6, 72, 0
8, 93960, Note_on_c, 6, 72, 90
8, 94079, Note_on_c, 6, 72, 0
8, 94080, Note_on_c, 6, 72, 90
8, 94199, Note_on_c, 6, 72, 0
8, 94200, Note_on_c, 6, 67, 90
8, 94319, Note_on_c, 6, 67, 0
8, 94320, Note_on_c, 6, 67, 90
8, 94379, Note_on_c, 6, 67, 0
8, 94380, Note_on_c, 6, 65, 90
8, 94439, Note_on_c, 6, 65, 0
8, 94440, Note_on_c, 6, 64, 90
8, 94499, Note_on_c, 6, 64, 0
8, 94500, Note_on_c, 6, 65, 90
8, 94559, Note_on_c, 6, 65, 0
8, 94560, Note_on_c, 6, 67, 90
8, 94679, Note_on_c, 6, 67, 0
8, 94680, Note_on_c, 6, 65, 90
8, 94799, Note_on_c, 6, 65, 0
8, 94800, Note_on_c, 6, 64, 90
8, 94889, Note_on_c, 6, 64, 0
8, 94920, Note_on_c, 6, 64, 90
8, 95039, Note_on_c, 6, 64, 0
8, 95040, Note_on_c, 6, 69, 90
8, 95159, Note_on_c, 6, 69, 0
8, 95160, Note_on_c, 6, 69, 90
8, 95279, Note_on_c, 6, 69, 0
8, 95280, Note_on_c, 6, 67, 90
8, 95339, Note_on_c, 6, 67, 0
8, 95340, Note_on_c, 6, 69, 90
8, 95399, Note_on_c, 6, 69, 0
8, 95400, Note_on_c, 6, 71, 90
8, 95519, Note_on_c, 6, 71, 0
8, 95520, Note_on_c, 6, 72, 90
8, 95579, Note_on_c, 6, 72, 0
8, 95580, Note_on_c, 6, 71, 90
8, 95639, Note_on_c, 6, 71, 0
8, 95640, Note_on_c, 6, 69, 90
8, 95759, Note_on_c, 6, 69, 0
8, 95760, Note_on_c, 6, 67, 90
8, 95849, Note_on_c, 6, 67, 0
8, 95880, Note_on_c, 6, 72, 90
8, 95999, Note_on_c, 6, 72, 0
8, 96000, Note_on_c, 6, 71, 90
8, 96119, Note_on_c, 6, 71, 0
8, 96120, Note_on_c, 6, 69, 90
8, 96239, Note_on_c, 6, 69, 0
8, 96240, Note_on_c, 6, 67, 90
8, 96359, Note_on_c, 6, 67, 0
8, 96360, Note_on_c, 6, 69, 90
8, 96419, Note_on_c, 6, 69, 0
8, 96420, Note_on_c, 6, 67, 90
8, 96479, Note_on_c, 6, 67, 0
8, 96480, Note_on_c, 6, 65, 90
8, 96539, Note_on_c, 6, 65, 0
8, 96540, Note_on_c, 6, 64, 90
8, 96599, Note_on_c, 6, 64, 0
8, 96600, Note_on_c, 6, 62, 90
8, 96719, Note_on_c, 6, 62, 0
8, 96720, Note_on_c, 6, 60, 90
8, 96839, Note_on_c, 6, 60, 0
8, 101520, Note_on_c, 6, 71, 90
8, 101609, Note_on_c, 6, 71, 0
8, 101610, Note_on_c, 6, 72, 90
8, 101624, Note_on_c, 6, 72, 0
8, 101625, Note_on_c, 6, 74, 90
8, 101639, Note_on_c, 6, 74, 0
8, 101640, Note_on_c, 6, 72, 90
8, 101669, Note_on_c, 6, 72, 0
8, 101670, Note_on_c, 6, 71, 90
8, 101699, Note_on_c, 6, 71, 0
8, 101700, Note_on_c, 6, 69, 90
8, 101729, Note_on_c, 6, 69, 0
8, 101730, Note_on_c, 6, 67, 90
8, 101759, Note_on_c, 6, 67, 0
8, 101760, Note_on_c, 6, 69, 90
8, 101819, Note_on_c, 6, 69, 0
8, 101820, Note_on_c, 6, 66, 90
8, 101879, Note_on_c, 6, 66, 0
8, 101880, Note_on_c, 6, 67, 90
8, 101939, Note_on_c, 6, 67, 0
8, 101940, Note_on_c, 6, 62, 90
8, 101999, Note_on_c, 6, 62, 0
8, 102000, Note_on_c, 6, 71, 90
8, 102089, Note_on_c, 6, 71, 0
8, 102090, Note_on_c, 6, 72, 90
8, 102104, Note_on_c, 6, 72, 0
8, 102105, Note_on_c, 6, 74, 90
8, 102119, Note_on_c, 6, 74, 0
8, 102120, Note_on_c, 6, 72, 90
8, 102149, Note_on_c, 6, 72, 0
8, 102150, Note_on_c, 6, 71, 90
8, 102179, Note_on_c, 6, 71, 0
8, 102180, Note_on_c, 6, 69, 90
8, 102209, Note_on_c, 6, 69, 0
8, 102210, Note_on_c, 6, 67, 90
8, 102239, Note_on_c, 6, 67, 0
8, 102240, Note_on_c, 6, 72, 90
8, 102480, Note_on_c, 6, 72, 0
8, 102480, Note_on_c, 6, 69, 90
8, 102569, Note_on_c, 6, 69, 0
8, 102570, Note_on_c, 6, 71, 90
8, 102584, Note_on_c, 6, 71, 0
8, 102585, Note_on_c, 6, 72, 90
8, 102599, Note_on_c, 6, 72, 0
8, 102600, Note_on_c, 6, 72, 90
8, 102629, Note_on_c, 6, 72, 0
8, 102660, Note_on_c, 6, 72, 90
8, 102689, Note_on_c, 6, 72, 0
8, 102720, Note_on_c, 6, 76, 90
8, 102779, Note_on_c, 6, 76, 0
8, 102780, Note_on_c, 6, 72, 90
8, 102839, Note_on_c, 6, 72, 0
8, 102840, Note_on_c, 6, 72, 90
8, 102899, Note_on_c, 6, 72, 0
8, 102900, Note_on_c, 6, 69, 90
8, 102959, Note_on_c, 6, 69, 0
8, 102960, Note_on_c, 6, 69, 90
8, 103019, Note_on_c, 6, 69, 0
8, 103020, Note_on_c, 6, 71, 90
8, 103049, Note_on_c, 6, 71, 0
8, 103050, Note_on_c, 6, 72, 90
8, 103079, Note_on_c, 6, 72, 0
8, 103080, Note_on_c, 6, 74, 90
8, 103109, Note_on_c, 6, 74, 0
8, 103110, Note_on_c, 6, 72, 90
8, 103139, Note_on_c, 6, 72, 0
8, 103140, Note_on_c, 6, 71, 90
8, 103169, Note_on_c, 6, 71, 0
8, 103170, Note_on_c, 6, 74, 90
8, 103199, Note_on_c, 6, 74, 0
8, 103200, Note_on_c, 6, 72, 90
8, 103229, Note_on_c, 6, 72, 0
8, 103230, Note_on_c, 6, 71, 90
8, 103259, Note_on_c, 6, 71, 0
8, 103260, Note_on_c, 6, 69, 90
8, 103289, Note_on_c, 6, 69, 0
8, 103290, Note_on_c, 6, 72, 90
8, 103319, Note_on_c, 6, 72, 0
8, 103320, Note_on_c, 6, 71, 90
8, 103439, Note_on_c, 6, 71, 0
8, 103440, Note_on_c, 6, 62, 90
8, 103499, Note_on_c, 6, 62, 0
8, 103500, Note_on_c, 6, 64, 90
8, 103559, Note_on_c, 6, 64, 0
8, 103560, Note_on_c, 6, 64, 90
8, 103619, Note_on_c, 6, 64, 0
8, 103620, Note_on_c, 6, 66, 90
8, 103679, Note_on_c, 6, 66, 0
8, 103680, Note_on_c, 6, 66, 90
8, 103739, Note_on_c, 6, 66, 0
8, 103740, Note_on_c, 6, 67, 90
8, 103769, Note_on_c, 6, 67, 0
8, 103770, Note_on_c, 6, 66, 90
8, 103799, Note_on_c, 6, 66, 0
8, 103800, Note_on_c, 6, 67, 90
8, 103859, Note_on_c, 6, 67, 0
8, 103860, Note_on_c, 6, 62, 90
8, 103919, Note_on_c, 6, 62, 0
8, 103920, Note_on_c, 6, 62, 90
8, 103979, Note_on_c, 6, 62, 0
8, 103980, Note_on_c, 6, 64, 90
8, 104039, Note_on_c, 6, 64, 0
8, 104040, Note_on_c, 6, 64, 90
8, 104099, Note_on_c, 6, 64, 0
8, 104100, Note_on_c, 6, 65, 90
8, 104159, Note_on_c, 6, 65, 0
8, 104160, Note_on_c, 6, 65, 90
8, 104399, Note_on_c, 6, 65, 0
8, 104400, Note_on_c, 6, 64, 90
8, 104459, Note_on_c, 6, 64, 0
8, 104460, Note_on_c, 6, 69, 90
8, 104519, Note_on_c, 6, 69, 0
8, 104520, Note_on_c, 6, 69, 90
8, 104579, Note_on_c, 6, 69, 0
8, 104580, Note_on_c, 6, 72, 90
8, 104639, Note_on_c, 6, 72, 0
8, 104640, Note_on_c, 6, 72, 90
8, 104699, Note_on_c, 6, 72, 0
8, 104700, Note_on_c, 6, 74, 90
8, 104729, Note_on_c, 6, 74, 0
8, 104730, Note_on_c, 6, 76, 90
8, 104759, Note_on_c, 6, 76, 0
8, 104760, Note_on_c, 6, 74, 90
8, 104789, Note_on_c, 6, 74, 0
8, 104790, Note_on_c, 6, 72, 90
8, 104819, Note_on_c, 6, 72, 0
8, 104820, Note_on_c, 6, 71, 90
8, 104849, Note_on_c, 6, 71, 0
8, 104850, Note_on_c, 6, 69, 90
8, 104879, Note_on_c, 6, 69, 0
8, 104880, Note_on_c, 6, 67, 90
8, 104909, Note_on_c, 6, 67, 0
8, 104910, Note_on_c, 6, 66, 90
8, 104939, Note_on_c, 6, 66, 0
8, 104940, Note_on_c, 6, 67, 90
8, 104969, Note_on_c, 6, 67, 0
8, 104970, Note_on_c, 6, 72, 90
8, 104999, Note_on_c, 6, 72, 0
8, 105000, Note_on_c, 6, 69, 90
8, 105089, Note_on_c, 6, 69, 0
8, 105090, Note_on_c, 6, 67, 90
8, 105119, Note_on_c, 6, 67, 0
8, 105120, Note_on_c, 6, 67, 90
8, 105179, Note_on_c, 6, 67, 0
8, 105180, Note_on_c, 6, 73, 90
8, 105299, Note_on_c, 6, 73, 0
8, 105300, Note_on_c, 6, 74, 90
8, 105329, Note_on_c, 6, 74, 0
8, 105330, Note_on_c, 6, 76, 90
8, 105359, Note_on_c, 6, 76, 0
8, 105360, Note_on_c, 6, 74, 90
8, 105419, Note_on_c, 6, 74, 0
8, 105420, Note_on_c, 6, 67, 90
8, 105479, Note_on_c, 6, 67, 0
8, 105480, Note_on_c, 6, 66, 90
8, 105539, Note_on_c, 6, 66, 0
8, 105540, Note_on_c, 6, 69, 90
8, 105599, Note_on_c, 6, 69, 0
8, 105600, Note_on_c, 6, 72, 90
8, 105659, Note_on_c, 6, 72, 0
8, 105660, Note_on_c, 6, 78, 90
8, 105779, Note_on_c, 6, 78, 0
8, 105780, Note_on_c, 6, 79, 90
8, 105809, Note_on_c, 6, 79, 0
8, 105810, Note_on_c, 6, 81, 90
8, 105839, Note_on_c, 6, 81, 0
8, 105840, Note_on_c, 6, 79, 90
8, 105899, Note_on_c, 6, 79, 0
8, 105900, Note_on_c, 6, 72, 90
8, 105959, Note_on_c, 6, 72, 0
8, 105960, Note_on_c, 6, 71, 90
8, 106019, Note_on_c, 6, 71, 0
8, 106020, Note_on_c, 6, 74, 90
8, 106079, Note_on_c, 6, 74, 0
8, 106080, Note_on_c, 6, 77, 90
8, 106139, Note_on_c, 6, 77, 0
8, 106140, Note_on_c, 6, 76, 90
8, 106259, Note_on_c, 6, 76, 0
8, 106260, Note_on_c, 6, 74, 90
8, 106379, Note_on_c, 6, 74, 0
8, 106380, Note_on_c, 6, 72, 90
8, 106499, Note_on_c, 6, 72, 0
8, 106500, Note_on_c, 6, 70, 90
8, 106619, Note_on_c, 6, 70, 0
8, 106620, Note_on_c, 6, 69, 90
8, 106739, Note_on_c, 6, 69, 0
8, 106740, Note_on_c, 6, 67, 90
8, 106859, Note_on_c, 6, 67, 0
8, 106860, Note_on_c, 6, 66, 90
8, 106979, Note_on_c, 6, 66, 0
8, 106980, Note_on_c, 6, 63, 90
8, 107099, Note_on_c, 6, 63, 0
8, 107100, Note_on_c, 6, 62, 90
8, 107219, Note_on_c, 6, 62, 0
8, 107220, Note_on_c, 6, 60, 90
8, 107339, Note_on_c, 6, 60, 0
8, 107340, Note_on_c, 6, 59, 90
8, 107459, Note_on_c, 6, 59, 0
8, 107460, Note_on_c, 6, 60, 90
8, 107519, Note_on_c, 6, 60, 0
8, 107520, Note_on_c, 6, 62, 90
8, 107579, Note_on_c, 6, 62, 0
8, 107580, Note_on_c, 6, 64, 90
8, 107609, Note_on_c, 6, 64, 0
8, 107610, Note_on_c, 6, 62, 90
8, 107639, Note_on_c, 6, 62, 0
8, 107640, Note_on_c, 6, 60, 90
8, 107669, Note_on_c, 6, 60, 0
8, 107670, Note_on_c, 6, 59, 90
8, 107699, Note_on_c, 6, 59, 0
8, 107700, Note_on_c, 6, 57, 90
8, 107729, Note_on_c, 6, 57, 0
8, 107730, Note_on_c, 6, 69, 90
8, 107759, Note_on_c, 6, 69, 0
8, 107760, Note_on_c, 6, 67, 90
8, 107789, Note_on_c, 6, 67, 0
8, 107790, Note_on_c, 6, 66, 90
8, 107819, Note_on_c, 6, 66, 0
8, 107820, Note_on_c, 6, 64, 90
8, 107849, Note_on_c, 6, 64, 0
8, 107850, Note_on_c, 6, 62, 90
8, 107879, Note_on_c, 6, 62, 0
8, 107880, Note_on_c, 6, 72, 90
8, 107909, Note_on_c, 6, 72, 0
8, 107940, Note_on_c, 6, 71, 90
8, 107969, Note_on_c, 6, 71, 0
8, 108000, Note_on_c, 6, 69, 90
8, 108059, Note_on_c, 6, 69, 0
8, 108060, Note_on_c, 6, 67, 90
8, 108119, Note_on_c, 6, 67, 0
8, 108240, Note_on_c, 6, 71, 90
8, 108329, Note_on_c, 6, 71, 0
8, 108330, Note_on_c, 6, 72, 90
8, 108344, Note_on_c, 6, 72, 0
8, 108345, Note_on_c, 6, 74, 90
8, 108359, Note_on_c, 6, 74, 0
8, 108360, Note_on_c, 6, 72, 90
8, 108389, Note_on_c, 6, 72, 0
8, 108390, Note_on_c, 6, 71, 90
8, 108419, Note_on_c, 6, 71, 0
8, 108420, Note_on_c, 6, 69, 90
8, 108449, Note_on_c, 6, 69, 0
8, 108450, Note_on_c, 6, 67, 90
8, 108479, Note_on_c, 6, 67, 0
8, 108480, Note_on_c, 6, 69, 90
8, 108539, Note_on_c, 6, 69, 0
8, 108540, Note_on_c, 6, 66, 90
8, 108599, Note_on_c, 6, 66, 0
8, 108600, Note_on_c, 6, 67, 90
8, 108659, Note_on_c, 6, 67, 0
8, 108660, Note_on_c, 6, 62, 90
8, 108719, Note_on_c, 6, 62, 0
8, 108720, Note_on_c, 6, 71, 90
8, 108809, Note_on_c, 6, 71, 0
8, 108810, Note_on_c, 6, 72, 90
8, 108824, Note_on_c, 6, 72, 0
8, 108825, Note_on_c, 6, 74, 90
8, 108839, Note_on_c, 6, 74, 0
8, 108840, Note_on_c, 6, 72, 90
8, 108869, Note_on_c, 6, 72, 0
8, 108870, Note_on_c, 6, 71, 90
8, 108899, Note_on_c, 6, 71, 0
8, 108900, Note_on_c, 6, 69, 90
8, 108929, Note_on_c, 6, 69, 0
8, 108930, Note_on_c, 6, 67, 90
8, 108959, Note_on_c, 6, 67, 0
8, 108960, Note_on_c, 6, 74, 90
8, 109079, Note_on_c, 6, 74, 0
8, 109200, Note_on_c, 6, 72, 90
8, 109289, Note_on_c, 6, 72, 0
8, 109290, Note_on_c, 6, 74, 90
8, 109304, Note_on_c, 6, 74, 0
8, 109305, Note_on_c, 6, 76, 90
8, 109319, Note_on_c, 6, 76, 0
8, 109320, Note_on_c, 6, 74, 90
8, 109349, Note_on_c, 6, 74, 0
8, 109350, Note_on_c, 6, 72, 90
8, 109379, Note_on_c, 6, 72, 0
8, 109380, Note_on_c, 6, 71, 90
8, 109409, Note_on_c, 6, 71, 0
8, 109410, Note_on_c, 6, 69, 90
8, 109439, Note_on_c, 6, 69, 0
8, 109440, Note_on_c, 6, 71, 90
8, 109499, Note_on_c, 6, 71, 0
8, 109500, Note_on_c, 6, 68, 90
8, 109559, Note_on_c, 6, 68, 0
8, 109560, Note_on_c, 6, 69, 90
8, 109619, Note_on_c, 6, 69, 0
8, 109620, Note_on_c, 6, 64, 90
8, 109679, Note_on_c, 6, 64, 0
8, 109680, Note_on_c, 6, 72, 90
8, 109769, Note_on_c, 6, 72, 0
8, 109770, Note_on_c, 6, 74, 90
8, 109784, Note_on_c, 6, 74, 0
8, 109785, Note_on_c, 6, 76, 90
8, 109799, Note_on_c, 6, 76, 0
8, 109800, Note_on_c, 6, 74, 90
8, 109829, Note_on_c, 6, 74, 0
8, 109830, Note_on_c, 6, 72, 90
8, 109859, Note_on_c, 6, 72, 0
8, 109860, Note_on_c, 6, 71, 90
8, 109889, Note_on_c, 6, 71, 0
8, 109890, Note_on_c, 6, 69, 90
8, 109919, Note_on_c, 6, 69, 0
8, 109920, Note_on_c, 6, 76, 90
8, 110039, Note_on_c, 6, 76, 0
8, 110160, Note_on_c, 6, 69, 90
8, 110249, Note_on_c, 6, 69, 0
8, 110250, Note_on_c, 6, 71, 90
8, 110264, Note_on_c, 6, 71, 0
8, 110265, Note_on_c, 6, 72, 90
8, 110279, Note_on_c, 6, 72, 0
8, 110280, Note_on_c, 6, 72, 90
8, 110309, Note_on_c, 6, 72, 0
8, 110340, Note_on_c, 6, 72, 90
8, 110369, Note_on_c, 6, 72, 0
8, 110400, Note_on_c, 6, 76, 90
8, 110459, Note_on_c, 6, 76, 0
8, 110460, Note_on_c, 6, 72, 90
8, 110519, Note_on_c, 6, 72, 0
8, 110520, Note_on_c, 6, 72, 90
8, 110579, Note_on_c, 6, 72, 0
8, 110580, Note_on_c, 6, 69, 90
8, 110639, Note_on_c, 6, 69, 0
8, 110640, Note_on_c, 6, 69, 90
8, 110699, Note_on_c, 6, 69, 0
8, 110700, Note_on_c, 6, 71, 90
8, 110729, Note_on_c, 6, 71, 0
8, 110730, Note_on_c, 6, 72, 90
8, 110759, Note_on_c, 6, 72, 0
8, 110760, Note_on_c, 6, 74, 90
8, 110789, Note_on_c, 6, 74, 0
8, 110790, Note_on_c, 6, 72, 90
8, 110819, Note_on_c, 6, 72, 0
8, 110820, Note_on_c, 6, 71, 90
8, 110849, Note_on_c, 6, 71, 0
8, 110850, Note_on_c, 6, 69, 90
8, 110879, Note_on_c, 6, 69, 0
8, 110880, Note_on_c, 6, 67, 90
8, 110909, Note_on_c, 6, 67, 0
8, 110910, Note_on_c, 6, 66, 90
8, 110939, Note_on_c, 6, 66, 0
8, 110940, Note_on_c, 6, 64, 90
8, 110969, Note_on_c, 6, 64, 0
8, 110970, Note_on_c, 6, 62, 90
8, 110999, Note_on_c, 6, 62, 0
8, 111000, Note_on_c, 6, 79, 90
8, 111119, Note_on_c, 6, 79, 0
8, 111120, Note_on_c, 6, 62, 90
8, 111179, Note_on_c, 6, 62, 0
8, 111180, Note_on_c, 6, 64, 90
8, 111239, Note_on_c, 6, 64, 0
8, 111240, Note_on_c, 6, 64, 90
8, 111299, Note_on_c, 6, 64, 0
8, 111300, Note_on_c, 6, 66, 90
8, 111359, Note_on_c, 6, 66, 0
8, 111360, Note_on_c, 6, 66, 90
8, 111419, Note_on_c, 6, 66, 0
8, 111420, Note_on_c, 6, 67, 90
8, 111449, Note_on_c, 6, 67, 0
8, 111450, Note_on_c, 6, 66, 90
8, 111479, Note_on_c, 6, 66, 0
8, 111480, Note_on_c, 6, 67, 90
8, 111539, Note_on_c, 6, 67, 0
8, 111540, Note_on_c, 6, 62, 90
8, 111599, Note_on_c, 6, 62, 0
8, 111600, Note_on_c, 6, 62, 90
8, 111659, Note_on_c, 6, 62, 0
8, 111660, Note_on_c, 6, 64, 90
8, 111719, Note_on_c, 6, 64, 0
8, 111720, Note_on_c, 6, 64, 90
8, 111779, Note_on_c, 6, 64, 0
8, 111780, Note_on_c, 6, 65, 90
8, 111839, Note_on_c, 6, 65, 0
8, 111840, Note_on_c, 6, 65, 90
8, 112319, Note_on_c, 6, 65, 0
8, 112320, Note_on_c, 6, 64, 90
8, 112799, Note_on_c, 6, 64, 0
8, 112800, Note_on_c, 6, 66, 90
8, 112979, Note_on_c, 6, 66, 0
8, 112980, Note_on_c, 6, 67, 90
8, 113009, Note_on_c, 6, 67, 0
8, 113010, Note_on_c, 6, 69, 90
8, 113039, Note_on_c, 6, 69, 0
8, 113040, Note_on_c, 6, 71, 90
8, 113129, Note_on_c, 6, 71, 0
8, 113130, Note_on_c, 6, 72, 90
8, 113144, Note_on_c, 6, 72, 0
8, 113145, Note_on_c, 6, 74, 90
8, 113159, Note_on_c, 6, 74, 0
8, 113160, Note_on_c, 6, 72, 90
8, 113189, Note_on_c, 6, 72, 0
8, 113190, Note_on_c, 6, 71, 90
8, 113219, Note_on_c, 6, 71, 0
8, 113220, Note_on_c, 6, 69, 90
8, 113249, Note_on_c, 6, 69, 0
8, 113250, Note_on_c, 6, 67, 90
8, 113279, Note_on_c, 6, 67, 0
8, 113280, Note_on_c, 6, 69, 90
8, 113339, Note_on_c, 6, 69, 0
8, 113340, Note_on_c, 6, 66, 90
8, 113399, Note_on_c, 6, 66, 0
8, 113400, Note_on_c, 6, 67, 90
8, 113459, Note_on_c, 6, 67, 0
8, 113460, Note_on_c, 6, 62, 90
8, 113519, Note_on_c, 6, 62, 0
8, 113520, Note_on_c, 6, 71, 90
8, 113609, Note_on_c, 6, 71, 0
8, 113610, Note_on_c, 6, 72, 90
8, 113624, Note_on_c, 6, 72, 0
8, 113625, Note_on_c, 6, 74, 90
8, 113639, Note_on_c, 6, 74, 0
8, 113640, Note_on_c, 6, 72, 90
8, 113669, Note_on_c, 6, 72, 0
8, 113670, Note_on_c, 6, 71, 90
8, 113699, Note_on_c, 6, 71, 0
8, 113700, Note_on_c, 6, 69, 90
8, 113729, Note_on_c, 6, 69, 0
8, 113730, Note_on_c, 6, 67, 90
8, 113759, Note_on_c, 6, 67, 0
8, 113760, Note_on_c, 6, 69, 90
8, 113789, Note_on_c, 6, 69, 0
8, 113790, Note_on_c, 6, 74, 90
8, 113819, Note_on_c, 6, 74, 0
8, 113820, Note_on_c, 6, 73, 90
8, 113849, Note_on_c, 6, 73, 0
8, 113850, Note_on_c, 6, 71, 90
8, 113879, Note_on_c, 6, 71, 0
8, 113880, Note_on_c, 6, 69, 90
8, 113909, Note_on_c, 6, 69, 0
8, 113910, Note_on_c, 6, 67, 90
8, 113939, Note_on_c, 6, 67, 0
8, 113940, Note_on_c, 6, 66, 90
8, 113969, Note_on_c, 6, 66, 0
8, 113970, Note_on_c, 6, 64, 90
8, 113999, Note_on_c, 6, 64, 0
8, 114000, Note_on_c, 6, 62, 90
8, 114119, Note_on_c, 6, 62, 0
8, 114780, Note_on_c, 6, 68, 90
8, 114899, Note_on_c, 6, 68, 0
8, 114900, Note_on_c, 6, 69, 90
8, 114929, Note_on_c, 6, 69, 0
8, 114930, Note_on_c, 6, 71, 90
8, 114959, Note_on_c, 6, 71, 0
8, 114960, Note_on_c, 6, 69, 90
8, 115019, Note_on_c, 6, 69, 0
8, 115020, Note_on_c, 6, 62, 90
8, 115079, Note_on_c, 6, 62, 0
8, 115080, Note_on_c, 6, 61, 90
8, 115139, Note_on_c, 6, 61, 0
8, 115140, Note_on_c, 6, 64, 90
8, 115199, Note_on_c, 6, 64, 0
8, 115200, Note_on_c, 6, 67, 90
8, 115259, Note_on_c, 6, 67, 0
8, 115260, Note_on_c, 6, 73, 90
8, 115379, Note_on_c, 6, 73, 0
8, 115380, Note_on_c, 6, 74, 90
8, 115409, Note_on_c, 6, 74, 0
8, 115410, Note_on_c, 6, 76, 90
8, 115439, Note_on_c, 6, 76, 0
8, 115440, Note_on_c, 6, 74, 90
8, 115499, Note_on_c, 6, 74, 0
8, 115500, Note_on_c, 6, 67, 90
8, 115559, Note_on_c, 6, 67, 0
8, 115560, Note_on_c, 6, 66, 90
8, 115619, Note_on_c, 6, 66, 0
8, 115620, Note_on_c, 6, 69, 90
8, 115679, Note_on_c, 6, 69, 0
8, 115680, Note_on_c, 6, 72, 90
8, 115739, Note_on_c, 6, 72, 0
8, 115740, Note_on_c, 6, 71, 90
8, 115859, Note_on_c, 6, 71, 0
8, 115860, Note_on_c, 6, 69, 90
8, 115979, Note_on_c, 6, 69, 0
8, 115980, Note_on_c, 6, 67, 90
8, 116099, Note_on_c, 6, 67, 0
8, 116100, Note_on_c, 6, 77, 90
8, 116219, Note_on_c, 6, 77, 0
8, 116220, Note_on_c, 6, 76, 90
8, 116339, Note_on_c, 6, 76, 0
8, 116340, Note_on_c, 6, 74, 90
8, 116459, Note_on_c, 6, 74, 0
8, 116460, Note_on_c, 6, 73, 90
8, 116579, Note_on_c, 6, 73, 0
8, 116580, Note_on_c, 6, 70, 90
8, 116699, Note_on_c, 6, 70, 0
8, 116700, Note_on_c, 6, 69, 90
8, 116819, Note_on_c, 6, 69, 0
8, 116820, Note_on_c, 6, 67, 90
8, 116939, Note_on_c, 6, 67, 0
8, 116940, Note_on_c, 6, 66, 90
8, 117059, Note_on_c, 6, 66, 0
8, 117060, Note_on_c, 6, 67, 90
8, 117119, Note_on_c, 6, 67, 0
8, 117120, Note_on_c, 6, 69, 90
8, 117179, Note_on_c, 6, 69, 0
8, 117180, Note_on_c, 6, 71, 90
8, 117209, Note_on_c, 6, 71, 0
8, 117210, Note_on_c, 6, 69, 90
8, 117239, Note_on_c, 6, 69, 0
8, 117240, Note_on_c, 6, 67, 90
8, 117269, Note_on_c, 6, 67, 0
8, 117270, Note_on_c, 6, 66, 90
8, 117299, Note_on_c, 6, 66, 0
8, 117300, Note_on_c, 6, 64, 90
8, 117329, Note_on_c, 6, 64, 0
8, 117330, Note_on_c, 6, 76, 90
8, 117359, Note_on_c, 6, 76, 0
8, 117360, Note_on_c, 6, 74, 90
8, 117389, Note_on_c, 6, 74, 0
8, 117390, Note_on_c, 6, 73, 90
8, 117419, Note_on_c, 6, 73, 0
8, 117420, Note_on_c, 6, 71, 90
8, 117449, Note_on_c, 6, 71, 0
8, 117450, Note_on_c, 6, 69, 90
8, 117479, Note_on_c, 6, 69, 0
8, 117480, Note_on_c, 6, 79, 90
8, 117509, Note_on_c, 6, 79, 0
8, 117540, Note_on_c, 6, 78, 90
8, 117569, Note_on_c, 6, 78, 0
8, 117600, Note_on_c, 6, 76, 90
8, 117629, Note_on_c, 6, 76, 0
8, 117630, Note_on_c, 6, 74, 90
8, 117659, Note_on_c, 6, 74, 0
8, 117660, Note_on_c, 6, 73, 90
8, 117689, Note_on_c, 6, 73, 0
8, 117690, Note_on_c, 6, 71, 90
8, 117719, Note_on_c, 6, 71, 0
8, 117720, Note_on_c, 6, 69, 90
8, 117749, Note_on_c, 6, 69, 0
8, 117750, Note_on_c, 6, 67, 90
8, 117779, Note_on_c, 6, 67, 0
8, 117780, Note_on_c, 6, 66, 90
8, 117809, Note_on_c, 6, 66, 0
8, 117810, Note_on_c, 6, 64, 90
8, 117839, Note_on_c, 6, 64, 0
8, 117840, Note_on_c, 6, 66, 90
8, 117899, Note_on_c, 6, 66, 0
8, 117900, Note_on_c, 6, 74, 90
8, 118019, Note_on_c, 6, 74, 0
8, 118020, Note_on_c, 6, 73, 90
8, 118139, Note_on_c, 6, 73, 0
8, 118140, Note_on_c, 6, 67, 90
8, 118259, Note_on_c, 6, 67, 0
8, 118260, Note_on_c, 6, 66, 90
8, 118379, Note_on_c, 6, 66, 0
8, 118380, Note_on_c, 6, 62, 90
8, 118499, Note_on_c, 6, 62, 0
8, 118500, Note_on_c, 6, 64, 90
8, 118559, Note_on_c, 6, 64, 0
8, 118560, Note_on_c, 6, 66, 90
8, 118649, Note_on_c, 6, 66, 0
8, 118650, Note_on_c, 6, 67, 90
8, 118664, Note_on_c, 6, 67, 0
8, 118665, Note_on_c, 6, 69, 90
8, 118679, Note_on_c, 6, 69, 0
8, 118680, Note_on_c, 6, 67, 90
8, 118709, Note_on_c, 6, 67, 0
8, 118710, Note_on_c, 6, 66, 90
8, 118739, Note_on_c, 6, 66, 0
8, 118740, Note_on_c, 6, 64, 90
8, 118769, Note_on_c, 6, 64, 0
8, 118770, Note_on_c, 6, 62, 90
8, 118799, Note_on_c, 6, 62, 0
8, 118800, Note_on_c, 6, 74, 90
8, 118859, Note_on_c, 6, 74, 0
8, 118860, Note_on_c, 6, 79, 90
8, 118979, Note_on_c, 6, 79, 0
8, 118980, Note_on_c, 6, 78, 90
8, 119099, Note_on_c, 6, 78, 0
8, 119100, Note_on_c, 6, 72, 90
8, 119219, Note_on_c, 6, 72, 0
8, 119220, Note_on_c, 6, 71, 90
8, 119339, Note_on_c, 6, 71, 0
8, 119340, Note_on_c, 6, 67, 90
8, 119459, Note_on_c, 6, 67, 0
8, 119460, Note_on_c, 6, 69, 90
8, 119519, Note_on_c, 6, 69, 0
8, 119520, Note_on_c, 6, 71, 90
8, 119609, Note_on_c, 6, 71, 0
8, 119610, Note_on_c, 6, 72, 90
8, 119624, Note_on_c, 6, 72, 0
8, 119625, Note_on_c, 6, 74, 90
8, 119639, Note_on_c, 6, 74, 0
8, 119640, Note_on_c, 6, 72, 90
8, 119669, Note_on_c, 6, 72, 0
8, 119670, Note_on_c, 6, 71, 90
8, 119699, Note_on_c, 6, 71, 0
8, 119700, Note_on_c, 6, 69, 90
8, 119729, Note_on_c, 6, 69, 0
8, 119730, Note_on_c, 6, 67, 90
8, 119759, Note_on_c, 6, 67, 0
8, 119760, Note_on_c, 6, 76, 90
8, 119819, Note_on_c, 6, 76, 0
8, 119880, Note_on_c, 6, 71, 90
8, 119939, Note_on_c, 6, 71, 0
8, 120000, Note_on_c, 6, 64, 90
8, 120059, Note_on_c, 6, 64, 0
8, 120060, Note_on_c, 6, 76, 90
8, 120149, Note_on_c, 6, 76, 0
8, 120150, Note_on_c, 6, 74, 90
8, 120179, Note_on_c, 6, 74, 0
8, 120180, Note_on_c, 6, 72, 90
8, 120209, Note_on_c, 6, 72, 0
8, 120210, Note_on_c, 6, 71, 90
8, 120239, Note_on_c, 6, 71, 0
8, 120240, Note_on_c, 6, 69, 90
8, 120299, Note_on_c, 6, 69, 0
8, 120360, Note_on_c, 6, 66, 90
8, 120419, Note_on_c, 6, 66, 0
8, 120480, Note_on_c, 6, 62, 90
8, 120539, Note_on_c, 6, 62, 0
8, 120540, Note_on_c, 6, 74, 90
8, 120629, Note_on_c, 6, 74, 0
8, 120630, Note_on_c, 6, 72, 90
8, 120659, Note_on_c, 6, 72, 0
8, 120660, Note_on_c, 6, 71, 90
8, 120689, Note_on_c, 6, 71, 0
8, 120690, Note_on_c, 6, 74, 90
8, 120719, Note_on_c, 6, 74, 0
8, 120720, Note_on_c, 6, 64, 90
8, 120779, Note_on_c, 6, 64, 0
8, 120780, Note_on_c, 6, 69, 90
8, 120839, Note_on_c, 6, 69, 0
8, 120840, Note_on_c, 6, 69, 90
8, 120899, Note_on_c, 6, 69, 0
8, 120900, Note_on_c, 6, 72, 90
8, 120959, Note_on_c, 6, 72, 0
8, 120960, Note_on_c, 6, 72, 90
8, 121049, Note_on_c, 6, 72, 0
8, 121050, Note_on_c, 6, 74, 90
8, 121064, Note_on_c, 6, 74, 0
8, 121065, Note_on_c, 6, 76, 90
8, 121079, Note_on_c, 6, 76, 0
8, 121080, Note_on_c, 6, 74, 90
8, 121109, Note_on_c, 6, 74, 0
8, 121110, Note_on_c, 6, 72, 90
8, 121139, Note_on_c, 6, 72, 0
8, 121140, Note_on_c, 6, 71, 90
8, 121169, Note_on_c, 6, 71, 0
8, 121170, Note_on_c, 6, 69, 90
8, 121199, Note_on_c, 6, 69, 0
8, 121200, Note_on_c, 6, 67, 90
8, 121229, Note_on_c, 6, 67, 0
8, 121230, Note_on_c, 6, 66, 90
8, 121259, Note_on_c, 6, 66, 0
8, 121260, Note_on_c, 6, 67, 90
8, 121289, Note_on_c, 6, 67, 0
8, 121290, Note_on_c, 6, 72, 90
8, 121319, Note_on_c, 6, 72, 0
8, 121320, Note_on_c, 6, 69, 90
8, 121409, Note_on_c, 6, 69, 0
8, 121410, Note_on_c, 6, 67, 90
8, 121439, Note_on_c, 6, 67, 0
8, 121440, Note_on_c, 6, 67, 90
8, 121499, Note_on_c, 6, 67, 0
8, 121500, Note_on_c, 6, 73, 90
8, 121619, Note_on_c, 6, 73, 0
8, 121620, Note_on_c, 6, 74, 90
8, 121649, Note_on_c, 6, 74, 0
8, 121650, Note_on_c, 6, 76, 90
8, 121679, Note_on_c, 6, 76, 0
8, 121680, Note_on_c, 6, 74, 90
8, 121739, Note_on_c, 6, 74, 0
8, 121740, Note_on_c, 6, 67, 90
8, 121799, Note_on_c, 6, 67, 0
8, 121800, Note_on_c, 6, 66, 90
8, 121859, Note_on_c, 6, 66, 0
8, 121860, Note_on_c, 6, 69, 90
8, 121919, Note_on_c, 6, 69, 0
8, 121920, Note_on_c, 6, 72, 90
8, 121979, Note_on_c, 6, 72, 0
8, 121980, Note_on_c, 6, 78, 90
8, 122099, Note_on_c, 6, 78, 0
8, 122100, Note_on_c, 6, 79, 90
8, 122129, Note_on_c, 6, 79, 0
8, 122130, Note_on_c, 6, 81, 90
8, 122159, Note_on_c, 6, 81, 0
8, 122160, Note_on_c, 6, 79, 90
8, 122219, Note_on_c, 6, 79, 0
8, 122220, Note_on_c, 6, 72, 90
8, 122279, Note_on_c, 6, 72, 0
8, 122280, Note_on_c, 6, 71, 90
8, 122339, Note_on_c, 6, 71, 0
8, 122340, Note_on_c, 6, 74, 90
8, 122399, Note_on_c, 6, 74, 0
8, 122400, Note_on_c, 6, 77, 90
8, 122459, Note_on_c, 6, 77, 0
8, 122460, Note_on_c, 6, 76, 90
8, 122579, Note_on_c, 6, 76, 0
8, 122580, Note_on_c, 6, 74, 90
8, 122699, Note_on_c, 6, 74, 0
8, 122700, Note_on_c, 6, 72, 90
8, 122819, Note_on_c, 6, 72, 0
8, 122820, Note_on_c, 6, 70, 90
8, 122939, Note_on_c, 6, 70, 0
8, 122940, Note_on_c, 6, 69, 90
8, 123059, Note_on_c, 6, 69, 0
8, 123060, Note_on_c, 6, 67, 90
8, 123179, Note_on_c, 6, 67, 0
8, 123180, Note_on_c, 6, 66, 90
8, 123299, Note_on_c, 6, 66, 0
8, 123300, Note_on_c, 6, 63, 90
8, 123419, Note_on_c, 6, 63, 0
8, 123420, Note_on_c, 6, 62, 90
8, 123539, Note_on_c, 6, 62, 0
8, 123540, Note_on_c, 6, 60, 90
8, 123659, Note_on_c, 6, 60, 0
8, 123660, Note_on_c, 6, 60, 90
8, 123779, Note_on_c, 6, 60, 0
8, 123780, Note_on_c, 6, 60, 90
8, 123899, Note_on_c, 6, 60, 0
8, 124560, Note_on_c, 6, 71, 90
8, 124649, Note_on_c, 6, 71, 0
8, 124650, Note_on_c, 6, 72, 90
8, 124664, Note_on_c, 6, 72, 0
8, 124665, Note_on_c, 6, 74, 90
8, 124679, Note_on_c, 6, 74, 0
8, 124680, Note_on_c, 6, 72, 90
8, 124709, Note_on_c, 6, 72, 0
8, 124710, Note_on_c, 6, 71, 90
8, 124739, Note_on_c, 6, 71, 0
8, 124740, Note_on_c, 6, 69, 90
8, 124769, Note_on_c, 6, 69, 0
8, 124770, Note_on_c, 6, 67, 90
8, 124799, Note_on_c, 6, 67, 0
8, 124800, Note_on_c, 6, 69, 90
8, 124859, Note_on_c, 6, 69, 0
8, 124860, Note_on_c, 6, 66, 90
8, 124919, Note_on_c, 6, 66, 0
8, 124920, Note_on_c, 6, 67, 90
8, 124979, Note_on_c, 6, 67, 0
8, 124980, Note_on_c, 6, 62, 90
8, 125039, Note_on_c, 6, 62, 0
8, 125040, Note_on_c, 6, 71, 90
8, 125129, Note_on_c, 6, 71, 0
8, 125130, Note_on_c, 6, 72, 90
8, 125144, Note_on_c, 6, 72, 0
8, 125145, Note_on_c, 6, 74, 90
8, 125159, Note_on_c, 6, 74, 0
8, 125160, Note_on_c, 6, 72, 90
8, 125189, Note_on_c, 6, 72, 0
8, 125190, Note_on_c, 6, 71, 90
8, 125219, Note_on_c, 6, 71, 0
8, 125220, Note_on_c, 6, 69, 90
8, 125249, Note_on_c, 6, 69, 0
8, 125250, Note_on_c, 6, 67, 90
8, 125279, Note_on_c, 6, 67, 0
8, 125280, Note_on_c, 6, 72, 90
8, 125519, Note_on_c, 6, 72, 0
8, 125520, Note_on_c, 6, 69, 90
8, 125609, Note_on_c, 6, 69, 0
8, 125610, Note_on_c, 6, 71, 90
8, 125624, Note_on_c, 6, 71, 0
8, 125625, Note_on_c, 6, 72, 90
8, 125639, Note_on_c, 6, 72, 0
8, 125640, Note_on_c, 6, 72, 90
8, 125669, Note_on_c, 6, 72, 0
8, 125700, Note_on_c, 6, 72, 90
8, 125729, Note_on_c, 6, 72, 0
8, 125760, Note_on_c, 6, 76, 90
8, 125819, Note_on_c, 6, 76, 0
8, 125820, Note_on_c, 6, 72, 90
8, 125879, Note_on_c, 6, 72, 0
8, 125880, Note_on_c, 6, 72, 90
8, 125939, Note_on_c, 6, 72, 0
8, 125940, Note_on_c, 6, 69, 90
8, 125999, Note_on_c, 6, 69, 0
8, 126000, Note_on_c, 6, 69, 90
8, 126059, Note_on_c, 6, 69, 0
8, 126060, Note_on_c, 6, 71, 90
8, 126089, Note_on_c, 6, 71, 0
8, 126090, Note_on_c, 6, 72, 90
8, 126119, Note_on_c, 6, 72, 0
8, 126120, Note_on_c, 6, 74, 90
8, 126149, Note_on_c, 6, 74, 0
8, 126150, Note_on_c, 6, 72, 90
8, 126179, Note_on_c, 6, 72, 0
8, 126180, Note_on_c, 6, 71, 90
8, 126209, Note_on_c, 6, 71, 0
8, 126210, Note_on_c, 6, 74, 90
8, 126239, Note_on_c, 6, 74, 0
8, 126240, Note_on_c, 6, 72, 90
8, 126269, Note_on_c, 6, 72, 0
8, 126270, Note_on_c, 6, 71, 90
8, 126299, Note_on_c, 6, 71, 0
8, 126300, Note_on_c, 6, 69, 90
8, 126329, Note_on_c, 6, 69, 0
8, 126330, Note_on_c, 6, 72, 90
8, 126359, Note_on_c, 6, 72, 0
8, 126360, Note_on_c, 6, 71, 90
8, 126479, Note_on_c, 6, 71, 0
8, 126480, Note_on_c, 6, 62, 90
8, 126539, Note_on_c, 6, 62, 0
8, 126540, Note_on_c, 6, 64, 90
8, 126599, Note_on_c, 6, 64, 0
8, 126600, Note_on_c, 6, 64, 90
8, 126659, Note_on_c, 6, 64, 0
8, 126660, Note_on_c, 6, 66, 90
8, 126719, Note_on_c, 6, 66, 0
8, 126720, Note_on_c, 6, 66, 90
8, 126779, Note_on_c, 6, 66, 0
8, 126780, Note_on_c, 6, 67, 90
8, 126809, Note_on_c, 6, 67, 0
8, 126810, Note_on_c, 6, 66, 90
8, 126839, Note_on_c, 6, 66, 0
8, 126840, Note_on_c, 6, 67, 90
8, 126899, Note_on_c, 6, 67, 0
8, 126900, Note_on_c, 6, 62, 90
8, 126959, Note_on_c, 6, 62, 0
8, 126960, Note_on_c, 6, 62, 90
8, 127019, Note_on_c, 6, 62, 0
8, 127020, Note_on_c, 6, 64, 90
8, 127079, Note_on_c, 6, 64, 0
8, 127080, Note_on_c, 6, 64, 90
8, 127139, Note_on_c, 6, 64, 0
8, 127140, Note_on_c, 6, 65, 90
8, 127199, Note_on_c, 6, 65, 0
8, 127200, Note_on_c, 6, 65, 90
8, 127439, Note_on_c, 6, 65, 0
8, 127440, Note_on_c, 6, 64, 90
8, 127499, Note_on_c, 6, 64, 0
8, 127500, Note_on_c, 6, 69, 90
8, 127559, Note_on_c, 6, 69, 0
8, 127560, Note_on_c, 6, 69, 90
8, 127619, Note_on_c, 6, 69, 0
8, 127620, Note_on_c, 6, 72, 90
8, 127679, Note_on_c, 6, 72, 0
8, 127680, Note_on_c, 6, 72, 90
8, 127769, Note_on_c, 6, 72, 0
8, 127770, Note_on_c, 6, 74, 90
8, 127784, Note_on_c, 6, 74, 0
8, 127785, Note_on_c, 6, 76, 90
8, 127799, Note_on_c, 6, 76, 0
8, 127800, Note_on_c, 6, 74, 90
8, 127829, Note_on_c, 6, 74, 0
8, 127830, Note_on_c, 6, 72, 90
8, 127859, Note_on_c, 6, 72, 0
8, 127860, Note_on_c, 6, 71, 90
8, 127889, Note_on_c, 6, 71, 0
8, 127890, Note_on_c, 6, 69, 90
8, 127919, Note_on_c, 6, 69, 0
8, 127920, Note_on_c, 6, 67, 90
8, 127949, Note_on_c, 6, 67, 0
8, 127950, Note_on_c, 6, 66, 90
8, 127979, Note_on_c, 6, 66, 0
8, 127980, Note_on_c, 6, 67, 90
8, 128009, Note_on_c, 6, 67, 0
8, 128010, Note_on_c, 6, 72, 90
8, 128039, Note_on_c, 6, 72, 0
8, 128040, Note_on_c, 6, 69, 90
8, 128129, Note_on_c, 6, 69, 0
8, 128130, Note_on_c, 6, 67, 90
8, 128159, Note_on_c, 6, 67, 0
8, 128160, Note_on_c, 6, 67, 90
8, 128399, Note_on_c, 6, 67, 0
8, 128670, Note_on_c, 6, 66, 90
8, 128700, Note_on_c, 6, 66, 0
8, 128700, Note_on_c, 6, 67, 90
8, 128730, Note_on_c, 6, 67, 0
8, 128730, Note_on_c, 6, 69, 90
8, 128760, Note_on_c, 6, 69, 0
8, 128760, Note_on_c, 6, 63, 90
8, 128820, Note_on_c, 6, 63, 0
8, 129150, Note_on_c, 6, 66, 90
8, 129180, Note_on_c, 6, 66, 0
8, 129180, Note_on_c, 6, 67, 90
8, 129210, Note_on_c, 6, 67, 0
8, 129210, Note_on_c, 6, 69, 90
8, 129240, Note_on_c, 6, 69, 0
8, 129240, Note_on_c, 6, 63, 90
8, 129300, Note_on_c, 6, 63, 0
8, 134700, Note_on_c, 6, 70, 90
8, 134819, Note_on_c, 6, 70, 0
8, 134820, Note_on_c, 6, 71, 90
8, 134849, Note_on_c, 6, 71, 0
8, 134850, Note_on_c, 6, 73, 90
8, 134879, Note_on_c, 6, 73, 0
8, 134880, Note_on_c, 6, 71, 90
8, 134939, Note_on_c, 6, 71, 0
8, 134940, Note_on_c, 6, 64, 90
8, 134999, Note_on_c, 6, 64, 0
8, 135000, Note_on_c, 6, 63, 90
8, 135059, Note_on_c, 6, 63, 0
8, 135060, Note_on_c, 6, 66, 90
8, 135119, Note_on_c, 6, 66, 0
8, 135120, Note_on_c, 6, 69, 90
8, 135179, Note_on_c, 6, 69, 0
8, 135180, Note_on_c, 6, 75, 90
8, 135299, Note_on_c, 6, 75, 0
8, 135300, Note_on_c, 6, 76, 90
8, 135329, Note_on_c, 6, 76, 0
8, 135330, Note_on_c, 6, 78, 90
8, 135359, Note_on_c, 6, 78, 0
8, 135360, Note_on_c, 6, 76, 90
8, 135419, Note_on_c, 6, 76, 0
8, 135420, Note_on_c, 6, 69, 90
8, 135479, Note_on_c, 6, 69, 0
8, 135480, Note_on_c, 6, 68, 90
8, 135539, Note_on_c, 6, 68, 0
8, 135540, Note_on_c, 6, 71, 90
8, 135599, Note_on_c, 6, 71, 0
8, 135600, Note_on_c, 6, 74, 90
8, 135659, Note_on_c, 6, 74, 0
8, 135660, Note_on_c, 6, 72, 90
8, 135779, Note_on_c, 6, 72, 0
8, 135780, Note_on_c, 6, 71, 90
8, 135899, Note_on_c, 6, 71, 0
8, 135900, Note_on_c, 6, 69, 90
8, 136019, Note_on_c, 6, 69, 0
8, 136020, Note_on_c, 6, 67, 90
8, 136139, Note_on_c, 6, 67, 0
8, 136140, Note_on_c, 6, 65, 90
8, 136259, Note_on_c, 6, 65, 0
8, 136260, Note_on_c, 6, 64, 90
8, 136379, Note_on_c, 6, 64, 0
8, 136380, Note_on_c, 6, 63, 90
8, 136499, Note_on_c, 6, 63, 0
8, 136500, Note_on_c, 6, 60, 90
8, 136619, Note_on_c, 6, 60, 0
8, 136620, Note_on_c, 6, 59, 90
8, 136739, Note_on_c, 6, 59, 0
8, 136740, Note_on_c, 6, 57, 90
8, 136859, Note_on_c, 6, 57, 0
8, 138000, Note_on_c, 6, 71, 90
8, 138089, Note_on_c, 6, 71, 0
8, 138090, Note_on_c, 6, 72, 90
8, 138104, Note_on_c, 6, 72, 0
8, 138105, Note_on_c, 6, 74, 90
8, 138119, Note_on_c, 6, 74, 0
8, 138120, Note_on_c, 6, 72, 90
8, 138149, Note_on_c, 6, 72, 0
8, 138150, Note_on_c, 6, 71, 90
8, 138179, Note_on_c, 6, 71, 0
8, 138180, Note_on_c, 6, 69, 90
8, 138209, Note_on_c, 6, 69, 0
8, 138210, Note_on_c, 6, 67, 90
8, 138239, Note_on_c, 6, 67, 0
8, 138240, Note_on_c, 6, 69, 90
8, 138299, Note_on_c, 6, 69, 0
8, 138300, Note_on_c, 6, 66, 90
8, 138359, Note_on_c, 6, 66, 0
8, 138360, Note_on_c, 6, 67, 90
8, 138419, Note_on_c, 6, 67, 0
8, 138420, Note_on_c, 6, 62, 90
8, 138479, Note_on_c, 6, 62, 0
8, 138480, Note_on_c, 6, 71, 90
8, 138569, Note_on_c, 6, 71, 0
8, 138570, Note_on_c, 6, 72, 90
8, 138584, Note_on_c, 6, 72, 0
8, 138585, Note_on_c, 6, 74, 90
8, 138599, Note_on_c, 6, 74, 0
8, 138600, Note_on_c, 6, 72, 90
8, 138629, Note_on_c, 6, 72, 0
8, 138630, Note_on_c, 6, 71, 90
8, 138659, Note_on_c, 6, 71, 0
8, 138660, Note_on_c, 6, 69, 90
8, 138689, Note_on_c, 6, 69, 0
8, 138690, Note_on_c, 6, 67, 90
8, 138719, Note_on_c, 6, 67, 0
8, 138720, Note_on_c, 6, 72, 90
8, 138960, Note_on_c, 6, 72, 0
8, 138960, Note_on_c, 6, 69, 90
8, 139049, Note_on_c, 6, 69, 0
8, 139050, Note_on_c, 6, 71, 90
8, 139064, Note_on_c, 6, 71, 0
8, 139065, Note_on_c, 6, 72, 90
8, 139079, Note_on_c, 6, 72, 0
8, 139080, Note_on_c, 6, 72, 90
8, 139109, Note_on_c, 6, 72, 0
8, 139140, Note_on_c, 6, 72, 90
8, 139169, Note_on_c, 6, 72, 0
8, 139200, Note_on_c, 6, 76, 90
8, 139259, Note_on_c, 6, 76, 0
8, 139260, Note_on_c, 6, 72, 90
8, 139319, Note_on_c, 6, 72, 0
8, 139320, Note_on_c, 6, 72, 90
8, 139379, Note_on_c, 6, 72, 0
8, 139380, Note_on_c, 6, 69, 90
8, 139439, Note_on_c, 6, 69, 0
8, 139440, Note_on_c, 6, 69, 90
8, 139499, Note_on_c, 6, 69, 0
8, 139500, Note_on_c, 6, 71, 90
8, 139529, Note_on_c, 6, 71, 0
8, 139530, Note_on_c, 6, 72, 90
8, 139559, Note_on_c, 6, 72, 0
8, 139560, Note_on_c, 6, 74, 90
8, 139589, Note_on_c, 6, 74, 0
8, 139590, Note_on_c, 6, 72, 90
8, 139619, Note_on_c, 6, 72, 0
8, 139620, Note_on_c, 6, 71, 90
8, 139649, Note_on_c, 6, 71, 0
8, 139650, Note_on_c, 6, 74, 90
8, 139679, Note_on_c, 6, 74, 0
8, 139680, Note_on_c, 6, 72, 90
8, 139709, Note_on_c, 6, 72, 0
8, 139710, Note_on_c, 6, 71, 90
8, 139739, Note_on_c, 6, 71, 0
8, 139740, Note_on_c, 6, 69, 90
8, 139769, Note_on_c, 6, 69, 0
8, 139770, Note_on_c, 6, 72, 90
8, 139799, Note_on_c, 6, 72, 0
8, 139800, Note_on_c, 6, 71, 90
8, 139919, Note_on_c, 6, 71, 0
8, 139920, Note_on_c, 6, 62, 90
8, 139979, Note_on_c, 6, 62, 0
8, 139980, Note_on_c, 6, 64, 90
8, 140039, Note_on_c, 6, 64, 0
8, 140040, Note_on_c, 6, 64, 90
8, 140099, Note_on_c, 6, 64, 0
8, 140100, Note_on_c, 6, 66, 90
8, 140159, Note_on_c, 6, 66, 0
8, 140160, Note_on_c, 6, 66, 90
8, 140219, Note_on_c, 6, 66, 0
8, 140220, Note_on_c, 6, 67, 90
8, 140249, Note_on_c, 6, 67, 0
8, 140250, Note_on_c, 6, 66, 90
8, 140279, Note_on_c, 6, 66, 0
8, 140280, Note_on_c, 6, 67, 90
8, 140339, Note_on_c, 6, 67, 0
8, 140340, Note_on_c, 6, 62, 90
8, 140399, Note_on_c, 6, 62, 0
8, 140400, Note_on_c, 6, 62, 90
8, 140459, Note_on_c, 6, 62, 0
8, 140460, Note_on_c, 6, 64, 90
8, 140519, Note_on_c, 6, 64, 0
8, 140520, Note_on_c, 6, 64, 90
8, 140579, Note_on_c, 6, 64, 0
8, 140580, Note_on_c, 6, 65, 90
8, 140639, Note_on_c, 6, 65, 0
8, 140640, Note_on_c, 6, 65, 90
8, 140879, Note_on_c, 6, 65, 0
8, 140880, Note_on_c, 6, 64, 90
8, 140939, Note_on_c, 6, 64, 0
8, 140940, Note_on_c, 6, 69, 90
8, 140999, Note_on_c, 6, 69, 0
8, 141000, Note_on_c, 6, 69, 90
8, 141059, Note_on_c, 6, 69, 0
8, 141060, Note_on_c, 6, 72, 90
8, 141119, Note_on_c, 6, 72, 0
8, 141120, Note_on_c, 6, 72, 90
8, 141179, Note_on_c, 6, 72, 0
8, 141180, Note_on_c, 6, 74, 90
8, 141209, Note_on_c, 6, 74, 0
8, 141210, Note_on_c, 6, 76, 90
8, 141239, Note_on_c, 6, 76, 0
8, 141240, Note_on_c, 6, 74, 90
8, 141269, Note_on_c, 6, 74, 0
8, 141270, Note_on_c, 6, 72, 90
8, 141299, Note_on_c, 6, 72, 0
8, 141300, Note_on_c, 6, 71, 90
8, 141329, Note_on_c, 6, 71, 0
8, 141330, Note_on_c, 6, 69, 90
8, 141359, Note_on_c, 6, 69, 0
8, 141360, Note_on_c, 6, 67, 90
8, 141389, Note_on_c, 6, 67, 0
8, 141390, Note_on_c, 6, 66, 90
8, 141419, Note_on_c, 6, 66, 0
8, 141420, Note_on_c, 6, 67, 90
8, 141449, Note_on_c, 6, 67, 0
8, 141450, Note_on_c, 6, 72, 90
8, 141479, Note_on_c, 6, 72, 0
8, 141480, Note_on_c, 6, 69, 90
8, 141569, Note_on_c, 6, 69, 0
8, 141570, Note_on_c, 6, 67, 90
8, 141599, Note_on_c, 6, 67, 0
8, 141600, Note_on_c, 6, 67, 90
8, 141659, Note_on_c, 6, 67, 0
8, 141660, Note_on_c, 6, 73, 90
8, 141779, Note_on_c, 6, 73, 0
8, 141780, Note_on_c, 6, 74, 90
8, 141809, Note_on_c, 6, 74, 0
8, 141810, Note_on_c, 6, 76, 90
8, 141839, Note_on_c, 6, 76, 0
8, 141840, Note_on_c, 6, 74, 90
8, 141899, Note_on_c, 6, 74, 0
8, 141900, Note_on_c, 6, 67, 90
8, 141959, Note_on_c, 6, 67, 0
8, 141960, Note_on_c, 6, 66, 90
8, 142019, Note_on_c, 6, 66, 0
8, 142020, Note_on_c, 6, 69, 90
8, 142079, Note_on_c, 6, 69, 0
8, 142080, Note_on_c, 6, 72, 90
8, 142139, Note_on_c, 6, 72, 0
8, 142140, Note_on_c, 6, 78, 90
8, 142259, Note_on_c, 6, 78, 0
8, 142260, Note_on_c, 6, 79, 90
8, 142289, Note_on_c, 6, 79, 0
8, 142290, Note_on_c, 6, 81, 90
8, 142319, Note_on_c, 6, 81, 0
8, 142320, Note_on_c, 6, 79, 90
8, 142379, Note_on_c, 6, 79, 0
8, 142380, Note_on_c, 6, 72, 90
8, 142439, Note_on_c, 6, 72, 0
8, 142440, Note_on_c, 6, 71, 90
8, 142499, Note_on_c, 6, 71, 0
8, 142500, Note_on_c, 6, 74, 90
8, 142559, Note_on_c, 6, 74, 0
8, 142560, Note_on_c, 6, 77, 90
8, 142619, Note_on_c, 6, 77, 0
8, 142620, Note_on_c, 6, 76, 90
8, 142739, Note_on_c, 6, 76, 0
8, 142740, Note_on_c, 6, 74, 90
8, 142859, Note_on_c, 6, 74, 0
8, 142860, Note_on_c, 6, 72, 90
8, 142979, Note_on_c, 6, 72, 0
8, 142980, Note_on_c, 6, 70, 90
8, 143099, Note_on_c, 6, 70, 0
8, 143100, Note_on_c, 6, 69, 90
8, 143219, Note_on_c, 6, 69, 0
8, 143220, Note_on_c, 6, 67, 90
8, 143339, Note_on_c, 6, 67, 0
8, 143340, Note_on_c, 6, 66, 90
8, 143459, Note_on_c, 6, 66, 0
8, 143460, Note_on_c, 6, 63, 90
8, 143579, Note_on_c, 6, 63, 0
8, 143580, Note_on_c, 6, 62, 90
8, 143699, Note_on_c, 6, 62, 0
8, 143700, Note_on_c, 6, 60, 90
8, 143819, Note_on_c, 6, 60, 0
8, 143820, Note_on_c, 6, 59, 90
8, 143939, Note_on_c, 6, 59, 0
8, 143940, Note_on_c, 6, 60, 90
8, 143999, Note_on_c, 6, 60, 0
8, 144000, Note_on_c, 6, 62, 90
8, 144059, Note_on_c, 6, 62, 0
8, 144060, Note_on_c, 6, 64, 90
8, 144089, Note_on_c, 6, 64, 0
8, 144090, Note_on_c, 6, 62, 90
8, 144119, Note_on_c, 6, 62, 0
8, 144120, Note_on_c, 6, 60, 90
8, 144149, Note_on_c, 6, 60, 0
8, 144150, Note_on_c, 6, 59, 90
8, 144179, Note_on_c, 6, 59, 0
8, 144180, Note_on_c, 6, 57, 90
8, 144209, Note_on_c, 6, 57, 0
8, 144210, Note_on_c, 6, 69, 90
8, 144239, Note_on_c, 6, 69, 0
8, 144240, Note_on_c, 6, 67, 90
8, 144269, Note_on_c, 6, 67, 0
8, 144270, Note_on_c, 6, 66, 90
8, 144299, Note_on_c, 6, 66, 0
8, 144300, Note_on_c, 6, 64, 90
8, 144329, Note_on_c, 6, 64, 0
8, 144330, Note_on_c, 6, 62, 90
8, 144359, Note_on_c, 6, 62, 0
8, 144360, Note_on_c, 6, 72, 90
8, 144389, Note_on_c, 6, 72, 0
8, 144420, Note_on_c, 6, 71, 90
8, 144449, Note_on_c, 6, 71, 0
8, 144480, Note_on_c, 6, 69, 90
8, 144539, Note_on_c, 6, 69, 0
8, 144540, Note_on_c, 6, 67, 90
8, 144599, Note_on_c, 6, 67, 0
8, 144720, Note_on_c, 6, 71, 90
8, 144809, Note_on_c, 6, 71, 0
8, 144810, Note_on_c, 6, 72, 90
8, 144824, Note_on_c, 6, 72, 0
8, 144825, Note_on_c, 6, 74, 90
8, 144839, Note_on_c, 6, 74, 0
8, 144840, Note_on_c, 6, 72, 90
8, 144869, Note_on_c, 6, 72, 0
8, 144870, Note_on_c, 6, 71, 90
8, 144899, Note_on_c, 6, 71, 0
8, 144900, Note_on_c, 6, 69, 90
8, 144929, Note_on_c, 6, 69, 0
8, 144930, Note_on_c, 6, 67, 90
8, 144959, Note_on_c, 6, 67, 0
8, 144960, Note_on_c, 6, 69, 90
8, 145019, Note_on_c, 6, 69, 0
8, 145020, Note_on_c, 6, 66, 90
8, 145079, Note_on_c, 6, 66, 0
8, 145080, Note_on_c, 6, 67, 90
8, 145139, Note_on_c, 6, 67, 0
8, 145140, Note_on_c, 6, 62, 90
8, 145199, Note_on_c, 6, 62, 0
8, 145200, Note_on_c, 6, 71, 90
8, 145289, Note_on_c, 6, 71, 0
8, 145290, Note_on_c, 6, 72, 90
8, 145304, Note_on_c, 6, 72, 0
8, 145305, Note_on_c, 6, 74, 90
8, 145319, Note_on_c, 6, 74, 0
8, 145320, Note_on_c, 6, 72, 90
8, 145349, Note_on_c, 6, 72, 0
8, 145350, Note_on_c, 6, 71, 90
8, 145379, Note_on_c, 6, 71, 0
8, 145380, Note_on_c, 6, 69, 90
8, 145409, Note_on_c, 6, 69, 0
8, 145410, Note_on_c, 6, 67, 90
8, 145439, Note_on_c, 6, 67, 0
8, 145440, Note_on_c, 6, 74, 90
8, 145559, Note_on_c, 6, 74, 0
8, 145680, Note_on_c, 6, 72, 90
8, 145769, Note_on_c, 6, 72, 0
8, 145770, Note_on_c, 6, 74, 90
8, 145784, Note_on_c, 6, 74, 0
8, 145785, Note_on_c, 6, 76, 90
8, 145799, Note_on_c, 6, 76, 0
8, 145800, Note_on_c, 6, 74, 90
8, 145829, Note_on_c, 6, 74, 0
8, 145830, Note_on_c, 6, 72, 90
8, 145859, Note_on_c, 6, 72, 0
8, 145860, Note_on_c, 6, 71, 90
8, 145889, Note_on_c, 6, 71, 0
8, 145890, Note_on_c, 6, 69, 90
8, 145919, Note_on_c, 6, 69, 0
8, 145920, Note_on_c, 6, 71, 90
8, 145979, Note_on_c, 6, 71, 0
8, 145980, Note_on_c, 6, 68, 90
8, 146039, Note_on_c, 6, 68, 0
8, 146040, Note_on_c, 6, 69, 90
8, 146099, Note_on_c, 6, 69, 0
8, 146100, Note_on_c, 6, 64, 90
8, 146159, Note_on_c, 6, 64, 0
8, 146160, Note_on_c, 6, 72, 90
8, 146249, Note_on_c, 6, 72, 0
8, 146250, Note_on_c, 6, 74, 90
8, 146264, Note_on_c, 6, 74, 0
8, 146265, Note_on_c, 6, 76, 90
8, 146279, Note_on_c, 6, 76, 0
8, 146280, Note_on_c, 6, 74, 90
8, 146309, Note_on_c, 6, 74, 0
8, 146310, Note_on_c, 6, 72, 90
8, 146339, Note_on_c, 6, 72, 0
8, 146340, Note_on_c, 6, 71, 90
8, 146369, Note_on_c, 6, 71, 0
8, 146370, Note_on_c, 6, 69, 90
8, 146399, Note_on_c, 6, 69, 0
8, 146400, Note_on_c, 6, 76, 90
8, 146519, Note_on_c, 6, 76, 0
8, 146640, Note_on_c, 6, 69, 90
8, 146729, Note_on_c, 6, 69, 0
8, 146730, Note_on_c, 6, 71, 90
8, 146744, Note_on_c, 6, 71, 0
8, 146745, Note_on_c, 6, 72, 90
8, 146759, Note_on_c, 6, 72, 0
8, 146760, Note_on_c, 6, 72, 90
8, 146789, Note_on_c, 6, 72, 0
8, 146820, Note_on_c, 6, 72, 90
8, 146849, Note_on_c, 6, 72, 0
8, 146880, Note_on_c, 6, 76, 90
8, 146939, Note_on_c, 6, 76, 0
8, 146940, Note_on_c, 6, 72, 90
8, 146999, Note_on_c, 6, 72, 0
8, 147000, Note_on_c, 6, 72, 90
8, 147059, Note_on_c, 6, 72, 0
8, 147060, Note_on_c, 6, 69, 90
8, 147119, Note_on_c, 6, 69, 0
8, 147120, Note_on_c, 6, 69, 90
8, 147179, Note_on_c, 6, 69, 0
8, 147180, Note_on_c, 6, 71, 90
8, 147209, Note_on_c, 6, 71, 0
8, 147210, Note_on_c, 6, 72, 90
8, 147239, Note_on_c, 6, 72, 0
8, 147240, Note_on_c, 6, 74, 90
8, 147269, Note_on_c, 6, 74, 0
8, 147270, Note_on_c, 6, 72, 90
8, 147299, Note_on_c, 6, 72, 0
8, 147300, Note_on_c, 6, 71, 90
8, 147329, Note_on_c, 6, 71, 0
8, 147330, Note_on_c, 6, 69, 90
8, 147359, Note_on_c, 6, 69, 0
8, 147360, Note_on_c, 6, 67, 90
8, 147389, Note_on_c, 6, 67, 0
8, 147390, Note_on_c, 6, 66, 90
8, 147419, Note_on_c, 6, 66, 0
8, 147420, Note_on_c, 6, 64, 90
8, 147449, Note_on_c, 6, 64, 0
8, 147450, Note_on_c, 6, 62, 90
8, 147479, Note_on_c, 6, 62, 0
8, 147480, Note_on_c, 6, 79, 90
8, 147599, Note_on_c, 6, 79, 0
8, 147600, Note_on_c, 6, 62, 90
8, 147659, Note_on_c, 6, 62, 0
8, 147660, Note_on_c, 6, 64, 90
8, 147719, Note_on_c, 6, 64, 0
8, 147720, Note_on_c, 6, 64, 90
8, 147779, Note_on_c, 6, 64, 0
8, 147780, Note_on_c, 6, 66, 90
8, 147839, Note_on_c, 6, 66, 0
8, 147840, Note_on_c, 6, 66, 90
8, 147899, Note_on_c, 6, 66, 0
8, 147900, Note_on_c, 6, 67, 90
8, 147929, Note_on_c, 6, 67, 0
8, 147930, Note_on_c, 6, 66, 90
8, 147959, Note_on_c, 6, 66, 0
8, 147960, Note_on_c, 6, 67, 90
8, 148019, Note_on_c, 6, 67, 0
8, 148020, Note_on_c, 6, 62, 90
8, 148079, Note_on_c, 6, 62, 0
8, 148080, Note_on_c, 6, 62, 90
8, 148139, Note_on_c, 6, 62, 0
8, 148140, Note_on_c, 6, 64, 90
8, 148199, Note_on_c, 6, 64, 0
8, 148200, Note_on_c, 6, 64, 90
8, 148259, Note_on_c, 6, 64, 0
8, 148260, Note_on_c, 6, 65, 90
8, 148319, Note_on_c, 6, 65, 0
8, 148320, Note_on_c, 6, 65, 90
8, 148799, Note_on_c, 6, 65, 0
8, 148800, Note_on_c, 6, 64, 90
8, 149279, Note_on_c, 6, 64, 0
8, 149280, Note_on_c, 6, 66, 90
8, 149459, Note_on_c, 6, 66, 0
8, 149460, Note_on_c, 6, 67, 90
8, 149489, Note_on_c, 6, 67, 0
8, 149490, Note_on_c, 6, 69, 90
8, 149519, Note_on_c, 6, 69, 0
8, 149520, Note_on_c, 6, 71, 90
8, 149609, Note_on_c, 6, 71, 0
8, 149610, Note_on_c, 6, 72, 90
8, 149624, Note_on_c, 6, 72, 0
8, 149625, Note_on_c, 6, 74, 90
8, 149639, Note_on_c, 6, 74, 0
8, 149640, Note_on_c, 6, 72, 90
8, 149669, Note_on_c, 6, 72, 0
8, 149670, Note_on_c, 6, 71, 90
8, 149699, Note_on_c, 6, 71, 0
8, 149700, Note_on_c, 6, 69, 90
8, 149729, Note_on_c, 6, 69, 0
8, 149730, Note_on_c, 6, 67, 90
8, 149759, Note_on_c, 6, 67, 0
8, 149760, Note_on_c, 6, 69, 90
8, 149819, Note_on_c, 6, 69, 0
8, 149820, Note_on_c, 6, 66, 90
8, 149879, Note_on_c, 6, 66, 0
8, 149880, Note_on_c, 6, 67, 90
8, 149939, Note_on_c, 6, 67, 0
8, 149940, Note_on_c, 6, 62, 90
8, 149999, Note_on_c, 6, 62, 0
8, 150000, Note_on_c, 6, 71, 90
8, 150089, Note_on_c, 6, 71, 0
8, 150090, Note_on_c, 6, 72, 90
8, 150104, Note_on_c, 6, 72, 0
8, 150105, Note_on_c, 6, 74, 90
8, 150119, Note_on_c, 6, 74, 0
8, 150120, Note_on_c, 6, 72, 90
8, 150149, Note_on_c, 6, 72, 0
8, 150150, Note_on_c, 6, 71, 90
8, 150179, Note_on_c, 6, 71, 0
8, 150180, Note_on_c, 6, 69, 90
8, 150209, Note_on_c, 6, 69, 0
8, 150210, Note_on_c, 6, 67, 90
8, 150239, Note_on_c, 6, 67, 0
8, 150240, Note_on_c, 6, 69, 90
8, 150269, Note_on_c, 6, 69, 0
8, 150270, Note_on_c, 6, 74, 90
8, 150299, Note_on_c, 6, 74, 0
8, 150300, Note_on_c, 6, 73, 90
8, 150329, Note_on_c, 6, 73, 0
8, 150330, Note_on_c, 6, 71, 90
8, 150359, Note_on_c, 6, 71, 0
8, 150360, Note_on_c, 6, 69, 90
8, 150389, Note_on_c, 6, 69, 0
8, 150390, Note_on_c, 6, 67, 90
8, 150419, Note_on_c, 6, 67, 0
8, 150420, Note_on_c, 6, 66, 90
8, 150449, Note_on_c, 6, 66, 0
8, 150450, Note_on_c, 6, 64, 90
8, 150479, Note_on_c, 6, 64, 0
8, 150480, Note_on_c, 6, 62, 90
8, 150599, Note_on_c, 6, 62, 0
8, 151260, Note_on_c, 6, 68, 90
8, 151379, Note_on_c, 6, 68, 0
8, 151380, Note_on_c, 6, 69, 90
8, 151409, Note_on_c, 6, 69, 0
8, 151410, Note_on_c, 6, 71, 90
8, 151439, Note_on_c, 6, 71, 0
8, 151440, Note_on_c, 6, 69, 90
8, 151499, Note_on_c, 6, 69, 0
8, 151500, Note_on_c, 6, 62, 90
8, 151559, Note_on_c, 6, 62, 0
8, 151560, Note_on_c, 6, 61, 90
8, 151619, Note_on_c, 6, 61, 0
8, 151620, Note_on_c, 6, 64, 90
8, 151679, Note_on_c, 6, 64, 0
8, 151680, Note_on_c, 6, 67, 90
8, 151739, Note_on_c, 6, 67, 0
8, 151740, Note_on_c, 6, 73, 90
8, 151859, Note_on_c, 6, 73, 0
8, 151860, Note_on_c, 6, 74, 90
8, 151889, Note_on_c, 6, 74, 0
8, 151890, Note_on_c, 6, 76, 90
8, 151919, Note_on_c, 6, 76, 0
8, 151920, Note_on_c, 6, 74, 90
8, 151979, Note_on_c, 6, 74, 0
8, 151980, Note_on_c, 6, 67, 90
8, 152039, Note_on_c, 6, 67, 0
8, 152040, Note_on_c, 6, 66, 90
8, 152099, Note_on_c, 6, 66, 0
8, 152100, Note_on_c, 6, 69, 90
8, 152159, Note_on_c, 6, 69, 0
8, 152160, Note_on_c, 6, 72, 90
8, 152219, Note_on_c, 6, 72, 0
8, 152220, Note_on_c, 6, 71, 90
8, 152339, Note_on_c, 6, 71, 0
8, 152340, Note_on_c, 6, 69, 90
8, 152459, Note_on_c, 6, 69, 0
8, 152460, Note_on_c, 6, 67, 90
8, 152579, Note_on_c, 6, 67, 0
8, 152580, Note_on_c, 6, 77, 90
8, 152699, Note_on_c, 6, 77, 0
8, 152700, Note_on_c, 6, 76, 90
8, 152819, Note_on_c, 6, 76, 0
8, 152820, Note_on_c, 6, 74, 90
8, 152939, Note_on_c, 6, 74, 0
8, 152940, Note_on_c, 6, 73, 90
8, 153059, Note_on_c, 6, 73, 0
8, 153060, Note_on_c, 6, 70, 90
8, 153179, Note_on_c, 6, 70, 0
8, 153180, Note_on_c, 6, 69, 90
8, 153299, Note_on_c, 6, 69, 0
8, 153300, Note_on_c, 6, 67, 90
8, 153419, Note_on_c, 6, 67, 0
8, 153420, Note_on_c, 6, 66, 90
8, 153539, Note_on_c, 6, 66, 0
8, 153540, Note_on_c, 6, 67, 90
8, 153599, Note_on_c, 6, 67, 0
8, 153600, Note_on_c, 6, 69, 90
8, 153659, Note_on_c, 6, 69, 0
8, 153660, Note_on_c, 6, 71, 90
8, 153689, Note_on_c, 6, 71, 0
8, 153690, Note_on_c, 6, 69, 90
8, 153719, Note_on_c, 6, 69, 0
8, 153720, Note_on_c, 6, 67, 90
8, 153749, Note_on_c, 6, 67, 0
8, 153750, Note_on_c, 6, 66, 90
8, 153779, Note_on_c, 6, 66, 0
8, 153780, Note_on_c, 6, 64, 90
8, 153809, Note_on_c, 6, 64, 0
8, 153810, Note_on_c, 6, 76, 90
8, 153839, Note_on_c, 6, 76, 0
8, 153840, Note_on_c, 6, 74, 90
8, 153869, Note_on_c, 6, 74, 0
8, 153870, Note_on_c, 6, 73, 90
8, 153899, Note_on_c, 6, 73, 0
8, 153900, Note_on_c, 6, 71, 90
8, 153929, Note_on_c, 6, 71, 0
8, 153930, Note_on_c, 6, 69, 90
8, 153959, Note_on_c, 6, 69, 0
8, 153960, Note_on_c, 6, 79, 90
8, 153989, Note_on_c, 6, 79, 0
8, 154020, Note_on_c, 6, 78, 90
8, 154049, Note_on_c, 6, 78, 0
8, 154080, Note_on_c, 6, 76, 90
8, 154109, Note_on_c, 6, 76, 0
8, 154110, Note_on_c, 6, 74, 90
8, 154139, Note_on_c, 6, 74, 0
8, 154140, Note_on_c, 6, 73, 90
8, 154169, Note_on_c, 6, 73, 0
8, 154170, Note_on_c, 6, 71, 90
8, 154199, Note_on_c, 6, 71, 0
8, 154200, Note_on_c, 6, 69, 90
8, 154229, Note_on_c, 6, 69, 0
8, 154230, Note_on_c, 6, 67, 90
8, 154259, Note_on_c, 6, 67, 0
8, 154260, Note_on_c, 6, 66, 90
8, 154289, Note_on_c, 6, 66, 0
8, 154290, Note_on_c, 6, 64, 90
8, 154319, Note_on_c, 6, 64, 0
8, 154320, Note_on_c, 6, 66, 90
8, 154379, Note_on_c, 6, 66, 0
8, 154380, Note_on_c, 6, 74, 90
8, 154499, Note_on_c, 6, 74, 0
8, 154500, Note_on_c, 6, 73, 90
8, 154619, Note_on_c, 6, 73, 0
8, 154620, Note_on_c, 6, 67, 90
8, 154739, Note_on_c, 6, 67, 0
8, 154740, Note_on_c, 6, 66, 90
8, 154859, Note_on_c, 6, 66, 0
8, 154860, Note_on_c, 6, 62, 90
8, 154979, Note_on_c, 6, 62, 0
8, 154980, Note_on_c, 6, 64, 90
8, 155039, Note_on_c, 6, 64, 0
8, 155040, Note_on_c, 6, 66, 90
8, 155129, Note_on_c, 6, 66, 0
8, 155130, Note_on_c, 6, 67, 90
8, 155144, Note_on_c, 6, 67, 0
8, 155145, Note_on_c, 6, 69, 90
8, 155159, Note_on_c, 6, 69, 0
8, 155160, Note_on_c, 6, 67, 90
8, 155189, Note_on_c, 6, 67, 0
8, 155190, Note_on_c, 6, 66, 90
8, 155219, Note_on_c, 6, 66, 0
8, 155220, Note_on_c, 6, 64, 90
8, 155249, Note_on_c, 6, 64, 0
8, 155250, Note_on_c, 6, 62, 90
8, 155279, Note_on_c, 6, 62, 0
8, 155280, Note_on_c, 6, 74, 90
8, 155339, Note_on_c, 6, 74, 0
8, 155340, Note_on_c, 6, 79, 90
8, 155459, Note_on_c, 6, 79, 0
8, 155460, Note_on_c, 6, 78, 90
8, 155579, Note_on_c, 6, 78, 0
8, 155580, Note_on_c, 6, 72, 90
8, 155699, Note_on_c, 6, 72, 0
8, 155700, Note_on_c, 6, 71, 90
8, 155819, Note_on_c, 6, 71, 0
8, 155820, Note_on_c, 6, 67, 90
8, 155939, Note_on_c, 6, 67, 0
8, 155940, Note_on_c, 6, 69, 90
8, 155999, Note_on_c, 6, 69, 0
8, 156000, Note_on_c, 6, 71, 90
8, 156089, Note_on_c, 6, 71, 0
8, 156090, Note_on_c, 6, 72, 90
8, 156104, Note_on_c, 6, 72, 0
8, 156105, Note_on_c, 6, 74, 90
8, 156119, Note_on_c, 6, 74, 0
8, 156120, Note_on_c, 6, 72, 90
8, 156149, Note_on_c, 6, 72, 0
8, 156150, Note_on_c, 6, 71, 90
8, 156179, Note_on_c, 6, 71, 0
8, 156180, Note_on_c, 6, 69, 90
8, 156209, Note_on_c, 6, 69, 0
8, 156210, Note_on_c, 6, 67, 90
8, 156239, Note_on_c, 6, 67, 0
8, 156240, Note_on_c, 6, 76, 90
8, 156299, Note_on_c, 6, 76, 0
8, 156360, Note_on_c, 6, 71, 90
8, 156419, Note_on_c, 6, 71, 0
8, 156480, Note_on_c, 6, 64, 90
8, 156539, Note_on_c, 6, 64, 0
8, 156540, Note_on_c, 6, 76, 90
8, 156629, Note_on_c, 6, 76, 0
8, 156630, Note_on_c, 6, 74, 90
8, 156659, Note_on_c, 6, 74, 0
8, 156660, Note_on_c, 6, 72, 90
8, 156689, Note_on_c, 6, 72, 0
8, 156690, Note_on_c, 6, 71, 90
8, 156719, Note_on_c, 6, 71, 0
8, 156720, Note_on_c, 6, 69, 90
8, 156779, Note_on_c, 6, 69, 0
8, 156840, Note_on_c, 6, 66, 90
8, 156899, Note_on_c, 6, 66, 0
8, 156960, Note_on_c, 6, 62, 90
8, 157019, Note_on_c, 6, 62, 0
8, 157020, Note_on_c, 6, 74, 90
8, 157109, Note_on_c, 6, 74, 0
8, 157110, Note_on_c, 6, 72, 90
8, 157139, Note_on_c, 6, 72, 0
8, 157140, Note_on_c, 6, 71, 90
8, 157169, Note_on_c, 6, 71, 0
8, 157170, Note_on_c, 6, 74, 90
8, 157199, Note_on_c, 6, 74, 0
8, 157200, Note_on_c, 6, 64, 90
8, 157259, Note_on_c, 6, 64, 0
8, 157260, Note_on_c, 6, 69, 90
8, 157319, Note_on_c, 6, 69, 0
8, 157320, Note_on_c, 6, 69, 90
8, 157379, Note_on_c, 6, 69, 0
8, 157380, Note_on_c, 6, 72, 90
8, 157439, Note_on_c, 6, 72, 0
8, 157440, Note_on_c, 6, 72, 90
8, 157529, Note_on_c, 6, 72, 0
8, 157530, Note_on_c, 6, 74, 90
8, 157544, Note_on_c, 6, 74, 0
8, 157545, Note_on_c, 6, 76, 90
8, 157559, Note_on_c, 6, 76, 0
8, 157560, Note_on_c, 6, 74, 90
8, 157589, Note_on_c, 6, 74, 0
8, 157590, Note_on_c, 6, 72, 90
8, 157619, Note_on_c, 6, 72, 0
8, 157620, Note_on_c, 6, 71, 90
8, 157649, Note_on_c, 6, 71, 0
8, 157650, Note_on_c, 6, 69, 90
8, 157679, Note_on_c, 6, 69, 0
8, 157680, Note_on_c, 6, 67, 90
8, 157709, Note_on_c, 6, 67, 0
8, 157710, Note_on_c, 6, 66, 90
8, 157739, Note_on_c, 6, 66, 0
8, 157740, Note_on_c, 6, 67, 90
8, 157769, Note_on_c, 6, 67, 0
8, 157770, Note_on_c, 6, 72, 90
8, 157799, Note_on_c, 6, 72, 0
8, 157800, Note_on_c, 6, 69, 90
8, 157889, Note_on_c, 6, 69, 0
8, 157890, Note_on_c, 6, 67, 90
8, 157919, Note_on_c, 6, 67, 0
8, 157920, Note_on_c, 6, 67, 90
8, 157979, Note_on_c, 6, 67, 0
8, 157980, Note_on_c, 6, 73, 90
8, 158099, Note_on_c, 6, 73, 0
8, 158100, Note_on_c, 6, 74, 90
8, 158129, Note_on_c, 6, 74, 0
8, 158130, Note_on_c, 6, 76, 90
8, 158159, Note_on_c, 6, 76, 0
8, 158160, Note_on_c, 6, 74, 90
8, 158219, Note_on_c, 6, 74, 0
8, 158220, Note_on_c, 6, 67, 90
8, 158279, Note_on_c, 6, 67, 0
8, 158280, Note_on_c, 6, 66, 90
8, 158339, Note_on_c, 6, 66, 0
8, 158340, Note_on_c, 6, 69, 90
8, 158399, Note_on_c, 6, 69, 0
8, 158400, Note_on_c, 6, 72, 90
8, 158459, Note_on_c, 6, 72, 0
8, 158460, Note_on_c, 6, 78, 90
8, 158579, Note_on_c, 6, 78, 0
8, 158580, Note_on_c, 6, 79, 90
8, 158609, Note_on_c, 6, 79, 0
8, 158610, Note_on_c, 6, 81, 90
8, 158639, Note_on_c, 6, 81, 0
8, 158640, Note_on_c, 6, 79, 90
8, 158699, Note_on_c, 6, 79, 0
8, 158700, Note_on_c, 6, 72, 90
8, 158759, Note_on_c, 6, 72, 0
8, 158760, Note_on_c, 6, 71, 90
8, 158819, Note_on_c, 6, 71, 0
8, 158820, Note_on_c, 6, 74, 90
8, 158879, Note_on_c, 6, 74, 0
8, 158880, Note_on_c, 6, 77, 90
8, 158939, Note_on_c, 6, 77, 0
8, 158940, Note_on_c, 6, 76, 90
8, 159059, Note_on_c, 6, 76, 0
8, 159060, Note_on_c, 6, 74, 90
8, 159179, Note_on_c, 6, 74, 0
8, 159180, Note_on_c, 6, 72, 90
8, 159299, Note_on_c, 6, 72, 0
8, 159300, Note_on_c, 6, 70, 90
8, 159419, Note_on_c, 6, 70, 0
8, 159420, Note_on_c, 6, 69, 90
8, 159539, Note_on_c, 6, 69, 0
8, 159540, Note_on_c, 6, 67, 90
8, 159659, Note_on_c, 6, 67, 0
8, 159660, Note_on_c, 6, 66, 90
8, 159779, Note_on_c, 6, 66, 0
8, 159780, Note_on_c, 6, 63, 90
8, 159899, Note_on_c, 6, 63, 0
8, 159900, Note_on_c, 6, 62, 90
8, 160019, Note_on_c, 6, 62, 0
8, 160020, Note_on_c, 6, 60, 90
8, 160139, Note_on_c, 6, 60, 0
8, 160140, Note_on_c, 6, 60, 90
8, 160259, Note_on_c, 6, 60, 0
8, 160260, Note_on_c, 6, 60, 90
8, 160379, Note_on_c, 6, 60, 0
8, 161040, Note_on_c, 6, 71, 90
8, 161129, Note_on_c, 6, 71, 0
8, 161130, Note_on_c, 6, 72, 90
8, 161144, Note_on_c, 6, 72, 0
8, 161145, Note_on_c, 6, 74, 90
8, 161159, Note_on_c, 6, 74, 0
8, 161160, Note_on_c, 6, 72, 90
8, 161189, Note_on_c, 6, 72, 0
8, 161190, Note_on_c, 6, 71, 90
8, 161219, Note_on_c, 6, 71, 0
8, 161220, Note_on_c, 6, 69, 90
8, 161249, Note_on_c, 6, 69, 0
8, 161250, Note_on_c, 6, 67, 90
8, 161279, Note_on_c, 6, 67, 0
8, 161280, Note_on_c, 6, 69, 90
8, 161339, Note_on_c, 6, 69, 0
8, 161340, Note_on_c, 6, 66, 90
8, 161399, Note_on_c, 6, 66, 0
8, 161400, Note_on_c, 6, 67, 90
8, 161459, Note_on_c, 6, 67, 0
8, 161460, Note_on_c, 6, 62, 90
8, 161519, Note_on_c, 6, 62, 0
8, 161520, Note_on_c, 6, 71, 90
8, 161609, Note_on_c, 6, 71, 0
8, 161610, Note_on_c, 6, 72, 90
8, 161624, Note_on_c, 6, 72, 0
8, 161625, Note_on_c, 6, 74, 90
8, 161639, Note_on_c, 6, 74, 0
8, 161640, Note_on_c, 6, 72, 90
8, 161669, Note_on_c, 6, 72, 0
8, 161670, Note_on_c, 6, 71, 90
8, 161699, Note_on_c, 6, 71, 0
8, 161700, Note_on_c, 6, 69, 90
8, 161729, Note_on_c, 6, 69, 0
8, 161730, Note_on_c, 6, 67, 90
8, 161759, Note_on_c, 6, 67, 0
8, 161760, Note_on_c, 6, 72, 90
8, 161999, Note_on_c, 6, 72, 0
8, 162000, Note_on_c, 6, 69, 90
8, 162089, Note_on_c, 6, 69, 0
8, 162090, Note_on_c, 6, 71, 90
8, 162104, Note_on_c, 6, 71, 0
8, 162105, Note_on_c, 6, 72, 90
8, 162119, Note_on_c, 6, 72, 0
8, 162120, Note_on_c, 6, 72, 90
8, 162149, Note_on_c, 6, 72, 0
8, 162180, Note_on_c, 6, 72, 90
8, 162209, Note_on_c, 6, 72, 0
8, 162240, Note_on_c, 6, 76, 90
8, 162299, Note_on_c, 6, 76, 0
8, 162300, Note_on_c, 6, 72, 90
8, 162359, Note_on_c, 6, 72, 0
8, 162360, Note_on_c, 6, 72, 90
8, 162419, Note_on_c, 6, 72, 0
8, 162420, Note_on_c, 6, 69, 90
8, 162479, Note_on_c, 6, 69, 0
8, 162480, Note_on_c, 6, 69, 90
8, 162539, Note_on_c, 6, 69, 0
8, 162540, Note_on_c, 6, 71, 90
8, 162569, Note_on_c, 6, 71, 0
8, 162570, Note_on_c, 6, 72, 90
8, 162599, Note_on_c, 6, 72, 0
8, 162600, Note_on_c, 6, 74, 90
8, 162629, Note_on_c, 6, 74, 0
8, 162630, Note_on_c, 6, 72, 90
8, 162659, Note_on_c, 6, 72, 0
8, 162660, Note_on_c, 6, 71, 90
8, 162689, Note_on_c, 6, 71, 0
8, 162690, Note_on_c, 6, 74, 90
8, 162719, Note_on_c, 6, 74, 0
8, 162720, Note_on_c, 6, 72, 90
8, 162749, Note_on_c, 6, 72, 0
8, 162750, Note_on_c, 6, 71, 90
8, 162779, Note_on_c, 6, 71, 0
8, 162780, Note_on_c, 6, 69, 90
8, 162809, Note_on_c, 6, 69, 0
8, 162810, Note_on_c, 6, 72, 90
8, 162839, Note_on_c, 6, 72, 0
8, 162840, Note_on_c, 6, 71, 90
8, 162959, Note_on_c, 6, 71, 0
8, 162960, Note_on_c, 6, 62, 90
8, 163019, Note_on_c, 6, 62, 0
8, 163020, Note_on_c, 6, 64, 90
8, 163079, Note_on_c, 6, 64, 0
8, 163080, Note_on_c, 6, 64, 90
8, 163139, Note_on_c, 6, 64, 0
8, 163140, Note_on_c, 6, 66, 90
8, 163199, Note_on_c, 6, 66, 0
8, 163200, Note_on_c, 6, 66, 90
8, 163259, Note_on_c, 6, 66, 0
8, 163260, Note_on_c, 6, 67, 90
8, 163289, Note_on_c, 6, 67, 0
8, 163290, Note_on_c, 6, 66, 90
8, 163319, Note_on_c, 6, 66, 0
8, 163320, Note_on_c, 6, 67, 90
8, 163379, Note_on_c, 6, 67, 0
8, 163380, Note_on_c, 6, 62, 90
8, 163439, Note_on_c, 6, 62, 0
8, 163440, Note_on_c, 6, 62, 90
8, 163499, Note_on_c, 6, 62, 0
8, 163500, Note_on_c, 6, 64, 90
8, 163559, Note_on_c, 6, 64, 0
8, 163560, Note_on_c, 6, 64, 90
8, 163619, Note_on_c, 6, 64, 0
8, 163620, Note_on_c, 6, 65, 90
8, 163679, Note_on_c, 6, 65, 0
8, 163680, Note_on_c, 6, 65, 90
8, 163919, Note_on_c, 6, 65, 0
8, 163920, Note_on_c, 6, 64, 90
8, 163979, Note_on_c, 6, 64, 0
8, 163980, Note_on_c, 6, 69, 90
8, 164039, Note_on_c, 6, 69, 0
8, 164040, Note_on_c, 6, 69, 90
8, 164099, Note_on_c, 6, 69, 0
8, 164100, Note_on_c, 6, 72, 90
8, 164159, Note_on_c, 6, 72, 0
8, 164160, Note_on_c, 6, 72, 90
8, 164249, Note_on_c, 6, 72, 0
8, 164250, Note_on_c, 6, 74, 90
8, 164264, Note_on_c, 6, 74, 0
8, 164265, Note_on_c, 6, 76, 90
8, 164279, Note_on_c, 6, 76, 0
8, 164280, Note_on_c, 6, 74, 90
8, 164309, Note_on_c, 6, 74, 0
8, 164310, Note_on_c, 6, 72, 90
8, 164339, Note_on_c, 6, 72, 0
8, 164340, Note_on_c, 6, 71, 90
8, 164369, Note_on_c, 6, 71, 0
8, 164370, Note_on_c, 6, 69, 90
8, 164399, Note_on_c, 6, 69, 0
8, 164400, Note_on_c, 6, 67, 90
8, 164429, Note_on_c, 6, 67, 0
8, 164430, Note_on_c, 6, 66, 90
8, 164459, Note_on_c, 6, 66, 0
8, 164460, Note_on_c, 6, 67, 90
8, 164489, Note_on_c, 6, 67, 0
8, 164490, Note_on_c, 6, 72, 90
8, 164519, Note_on_c, 6, 72, 0
8, 164520, Note_on_c, 6, 69, 90
8, 164609, Note_on_c, 6, 69, 0
8, 164610, Note_on_c, 6, 67, 90
8, 164639, Note_on_c, 6, 67, 0
8, 164640, Note_on_c, 6, 67, 90
8, 164879, Note_on_c, 6, 67, 0
8, 167400, Note_on_c, 6, 79, 90
8, 167460, Note_on_c, 6, 79, 0
8, 167580, Note_on_c, 6, 79, 90
8, 167610, Note_on_c, 6, 79, 0
8, 167640, Note_on_c, 6, 78, 90
8, 167670, Note_on_c, 6, 78, 0
8, 167820, Note_on_c, 6, 69, 90
8, 167850, Note_on_c, 6, 69, 0
8, 167880, Note_on_c, 6, 71, 90
8, 167910, Note_on_c, 6, 71, 0
8, 168060, Note_on_c, 6, 71, 90
8, 168090, Note_on_c, 6, 71, 0
8, 168120, Note_on_c, 6, 72, 90
8, 168150, Note_on_c, 6, 72, 0
8, 168300, Note_on_c, 6, 72, 90
8, 168330, Note_on_c, 6, 72, 0
8, 168360, Note_on_c, 6, 74, 90
8, 168390, Note_on_c, 6, 74, 0
8, 168540, Note_on_c, 6, 74, 90
8, 168570, Note_on_c, 6, 74, 0
8, 168600, Note_on_c, 6, 76, 90
8, 168630, Note_on_c, 6, 76, 0
8, 168780, Note_on_c, 6, 76, 90
8, 168810, Note_on_c, 6, 76, 0
8, 168840, Note_on_c, 6, 78, 90
8, 168870, Note_on_c, 6, 78, 0
8, 169020, Note_on_c, 6, 78, 90
8, 169050, Note_on_c, 6, 78, 0
8, 169080, Note_on_c, 6, 76, 90
8, 169110, Note_on_c, 6, 76, 0
8, 169260, Note_on_c, 6, 76, 90
8, 169290, Note_on_c, 6, 76, 0
8, 169320, Note_on_c, 6, 74, 90
8, 169350, Note_on_c, 6, 74, 0
8, 169500, Note_on_c, 6, 74, 90
8, 169530, Note_on_c, 6, 74, 0
8, 169560, Note_on_c, 6, 73, 90
8, 169590, Note_on_c, 6, 73, 0
8, 169740, Note_on_c, 6, 78, 90
8, 169770, Note_on_c, 6, 78, 0
8, 169800, Note_on_c, 6, 74, 90
8, 169830, Note_on_c, 6, 74, 0
8, 169980, Note_on_c, 6, 73, 90
8, 170010, Note_on_c, 6, 73, 0
8, 170040, Note_on_c, 6, 74, 90
8, 170070, Note_on_c, 6, 74, 0
8, 170220, Note_on_c, 6, 74, 90
8, 170250, Note_on_c, 6, 74, 0
8, 170280, Note_on_c, 6, 76, 90
8, 170310, Note_on_c, 6, 76, 0
8, 170460, Note_on_c, 6, 76, 90
8, 170490, Note_on_c, 6, 76, 0
8, 170520, Note_on_c, 6, 74, 90
8, 170550, Note_on_c, 6, 74, 0
8, 170700, Note_on_c, 6, 74, 90
8, 170730, Note_on_c, 6, 74, 0
8, 170760, Note_on_c, 6, 73, 90
8, 170790, Note_on_c, 6, 73, 0
8, 170940, Note_on_c, 6, 71, 90
8, 170970, Note_on_c, 6, 71, 0
8, 171000, Note_on_c, 6, 73, 90
8, 171030, Note_on_c, 6, 73, 0
8, 171240, Note_on_c, 6, 74, 90
8, 171300, Note_on_c, 6, 74, 0
8, 171420, Note_on_c, 6, 74, 90
8, 171450, Note_on_c, 6, 74, 0
8, 171480, Note_on_c, 6, 76, 90
8, 171510, Note_on_c, 6, 76, 0
8, 171660, Note_on_c, 6, 76, 90
8, 171690, Note_on_c, 6, 76, 0
8, 171720, Note_on_c, 6, 78, 90
8, 171750, Note_on_c, 6, 78, 0
8, 171900, Note_on_c, 6, 78, 90
8, 171930, Note_on_c, 6, 78, 0
8, 171960, Note_on_c, 6, 79, 90
8, 171990, Note_on_c, 6, 79, 0
8, 172200, Note_on_c, 6, 76, 90
8, 172260, Note_on_c, 6, 76, 0
8, 172380, Note_on_c, 6, 76, 90
8, 172410, Note_on_c, 6, 76, 0
8, 172440, Note_on_c, 6, 78, 90
8, 172470, Note_on_c, 6, 78, 0
8, 172620, Note_on_c, 6, 78, 90
8, 172650, Note_on_c, 6, 78, 0
8, 172680, Note_on_c, 6, 80, 90
8, 172710, Note_on_c, 6, 80, 0
8, 172860, Note_on_c, 6, 80, 90
8, 172890, Note_on_c, 6, 80, 0
8, 172920, Note_on_c, 6, 81, 90
8, 172950, Note_on_c, 6, 81, 0
8, 173100, Note_on_c, 6, 78, 90
8, 173130, Note_on_c, 6, 78, 0
8, 173160, Note_on_c, 6, 76, 90
8, 173190, Note_on_c, 6, 76, 0
8, 173340, Note_on_c, 6, 76, 90
8, 173370, Note_on_c, 6, 76, 0
8, 173400, Note_on_c, 6, 75, 90
8, 173430, Note_on_c, 6, 75, 0
8, 173580, Note_on_c, 6, 76, 90
8, 173610, Note_on_c, 6, 76, 0
8, 173640, Note_on_c, 6, 81, 90
8, 173670, Note_on_c, 6, 81, 0
8, 173820, Note_on_c, 6, 78, 90
8, 173850, Note_on_c, 6, 78, 0
8, 173880, Note_on_c, 6, 79, 90
8, 173910, Note_on_c, 6, 79, 0
8, 174060, Note_on_c, 6, 76, 90
8, 174090, Note_on_c, 6, 76, 0
8, 174120, Note_on_c, 6, 78, 90
8, 174150, Note_on_c, 6, 78, 0
8, 174300, Note_on_c, 6, 79, 90
8, 174330, Note_on_c, 6, 79, 0
8, 174360, Note_on_c, 6, 81, 90
8, 174390, Note_on_c, 6, 81, 0
8, 174540, Note_on_c, 6, 78, 90
8, 174570, Note_on_c, 6, 78, 0
8, 174600, Note_on_c, 6, 71, 90
8, 174630, Note_on_c, 6, 71, 0
8, 174780, Note_on_c, 6, 79, 90
8, 174810, Note_on_c, 6, 79, 0
8, 174840, Note_on_c, 6, 78, 90
8, 174870, Note_on_c, 6, 78, 0
8, 175080, Note_on_c, 6, 71, 90
8, 175140, Note_on_c, 6, 71, 0
8, 175260, Note_on_c, 6, 69, 90
8, 175290, Note_on_c, 6, 69, 0
8, 175320, Note_on_c, 6, 74, 90
8, 175350, Note_on_c, 6, 74, 0
8, 175500, Note_on_c, 6, 72, 90
8, 175530, Note_on_c, 6, 72, 0
8, 175560, Note_on_c, 6, 74, 90
8, 175590, Note_on_c, 6, 74, 0
8, 175740, Note_on_c, 6, 74, 90
8, 175770, Note_on_c, 6, 74, 0
8, 175800, Note_on_c, 6, 76, 90
8, 175830, Note_on_c, 6, 76, 0
8, 176040, Note_on_c, 6, 74, 90
8, 176100, Note_on_c, 6, 74, 0
8, 176220, Note_on_c, 6, 74, 90
8, 176250, Note_on_c, 6, 74, 0
8, 176280, Note_on_c, 6, 72, 90
8, 176310, Note_on_c, 6, 72, 0
8, 176460, Note_on_c, 6, 76, 90
8, 176490, Note_on_c, 6, 76, 0
8, 176520, Note_on_c, 6, 74, 90
8, 176550, Note_on_c, 6, 74, 0
8, 176700, Note_on_c, 6, 74, 90
8, 176730, Note_on_c, 6, 74, 0
8, 176760, Note_on_c, 6, 73, 90
8, 176790, Note_on_c, 6, 73, 0
8, 176940, Note_on_c, 6, 71, 90
8, 176970, Note_on_c, 6, 71, 0
8, 177000, Note_on_c, 6, 78, 90
8, 177030, Note_on_c, 6, 78, 0
8, 177180, Note_on_c, 6, 76, 90
8, 177210, Note_on_c, 6, 76, 0
8, 177240, Note_on_c, 6, 70, 90
8, 177270, Note_on_c, 6, 70, 0
8, 177420, Note_on_c, 6, 78, 90
8, 177450, Note_on_c, 6, 78, 0
8, 177480, Note_on_c, 6, 71, 90
8, 177510, Note_on_c, 6, 71, 0
8, 177660, Note_on_c, 6, 73, 90
8, 177690, Note_on_c, 6, 73, 0
8, 177720, Note_on_c, 6, 74, 90
8, 177750, Note_on_c, 6, 74, 0
8, 177900, Note_on_c, 6, 71, 90
8, 177930, Note_on_c, 6, 71, 0
8, 177960, Note_on_c, 6, 73, 90
8, 177990, Note_on_c, 6, 73, 0
8, 178140, Note_on_c, 6, 66, 90
8, 178170, Note_on_c, 6, 66, 0
8, 178200, Note_on_c, 6, 71, 90
8, 178230, Note_on_c, 6, 71, 0
8, 178380, Note_on_c, 6, 79, 90
8, 178410, Note_on_c, 6, 79, 0
8, 178440, Note_on_c, 6, 73, 90
8, 178470, Note_on_c, 6, 73, 0
8, 178620, Note_on_c, 6, 73, 90
8, 178650, Note_on_c, 6, 73, 0
8, 178680, Note_on_c, 6, 78, 90
8, 178710, Note_on_c, 6, 78, 0
8, 178860, Note_on_c, 6, 78, 90
8, 178919, Note_on_c, 6, 78, 0
8, 178920, Note_on_c, 6, 75, 90
8, 178979, Note_on_c, 6, 75, 0
8, 178980, Note_on_c, 6, 71, 90
8, 179039, Note_on_c, 6, 71, 0
8, 179100, Note_on_c, 6, 72, 90
8, 179159, Note_on_c, 6, 72, 0
8, 179160, Note_on_c, 6, 66, 90
8, 179219, Note_on_c, 6, 66, 0
8, 179220, Note_on_c, 6, 69, 90
8, 179279, Note_on_c, 6, 69, 0
8, 179340, Note_on_c, 6, 71, 90
8, 179399, Note_on_c, 6, 71, 0
8, 179400, Note_on_c, 6, 64, 90
8, 179459, Note_on_c, 6, 64, 0
8, 179460, Note_on_c, 6, 67, 90
8, 179519, Note_on_c, 6, 67, 0
8, 179580, Note_on_c, 6, 69, 90
8, 179639, Note_on_c, 6, 69, 0
8, 179640, Note_on_c, 6, 63, 90
8, 179699, Note_on_c, 6, 63, 0
8, 179700, Note_on_c, 6, 66, 90
8, 179759, Note_on_c, 6, 66, 0
8, 179820, Note_on_c, 6, 75, 90
8, 179879, Note_on_c, 6, 75, 0
8, 179880, Note_on_c, 6, 76, 90
8, 179939, Note_on_c, 6, 76, 0
8, 179940, Note_on_c, 6, 68, 90
8, 179999, Note_on_c, 6, 68, 0
8, 180060, Note_on_c, 6, 69, 90
8, 180119, Note_on_c, 6, 69, 0
8, 180120, Note_on_c, 6, 71, 90
8, 180179, Note_on_c, 6, 71, 0
8, 180180, Note_on_c, 6, 69, 90
8, 180239, Note_on_c, 6, 69, 0
8, 180300, Note_on_c, 6, 68, 90
8, 180359, Note_on_c, 6, 68, 0
8, 180360, Note_on_c, 6, 69, 90
8, 180419, Note_on_c, 6, 69, 0
8, 180420, Note_on_c, 6, 64, 90
8, 180479, Note_on_c, 6, 64, 0
8, 180540, Note_on_c, 6, 76, 90
8, 180599, Note_on_c, 6, 76, 0
8, 180600, Note_on_c, 6, 68, 90
8, 180659, Note_on_c, 6, 68, 0
8, 180660, Note_on_c, 6, 71, 90
8, 180719, Note_on_c, 6, 71, 0
8, 180780, Note_on_c, 6, 68, 90
8, 180839, Note_on_c, 6, 68, 0
8, 180840, Note_on_c, 6, 69, 90
8, 180899, Note_on_c, 6, 69, 0
8, 180900, Note_on_c, 6, 77, 90
8, 180959, Note_on_c, 6, 77, 0
8, 181020, Note_on_c, 6, 77, 90
8, 181079, Note_on_c, 6, 77, 0
8, 181080, Note_on_c, 6, 79, 90
8, 181139, Note_on_c, 6, 79, 0
8, 181140, Note_on_c, 6, 77, 90
8, 181199, Note_on_c, 6, 77, 0
8, 181260, Note_on_c, 6, 76, 90
8, 181319, Note_on_c, 6, 76, 0
8, 181320, Note_on_c, 6, 77, 90
8, 181379, Note_on_c, 6, 77, 0
8, 181380, Note_on_c, 6, 74, 90
8, 181439, Note_on_c, 6, 74, 0
8, 181500, Note_on_c, 6, 74, 90
8, 181559, Note_on_c, 6, 74, 0
8, 181560, Note_on_c, 6, 79, 90
8, 181619, Note_on_c, 6, 79, 0
8, 181620, Note_on_c, 6, 73, 90
8, 181679, Note_on_c, 6, 73, 0
8, 181680, Note_on_c, 6, 74, 90
8, 181799, Note_on_c, 6, 74, 0
8, 181800, Note_on_c, 6, 74, 90
8, 181859, Note_on_c, 6, 74, 0
8, 181860, Note_on_c, 6, 72, 90
8, 181919, Note_on_c, 6, 72, 0
8, 181920, Note_on_c, 6, 71, 90
8, 181979, Note_on_c, 6, 71, 0
8, 181980, Note_on_c, 6, 72, 90
8, 182039, Note_on_c, 6, 72, 0
8, 182040, Note_on_c, 6, 74, 90
8, 182099, Note_on_c, 6, 74, 0
8, 182100, Note_on_c, 6, 71, 90
8, 182159, Note_on_c, 6, 71, 0
8, 182160, Note_on_c, 6, 76, 90
8, 182219, Note_on_c, 6, 76, 0
8, 182220, Note_on_c, 6, 74, 90
8, 182249, Note_on_c, 6, 74, 0
8, 182250, Note_on_c, 6, 72, 90
8, 182279, Note_on_c, 6, 72, 0
8, 182280, Note_on_c, 6, 71, 90
8, 182339, Note_on_c, 6, 71, 0
8, 182340, Note_on_c, 6, 76, 90
8, 182399, Note_on_c, 6, 76, 0
8, 182400, Note_on_c, 6, 72, 90
8, 182429, Note_on_c, 6, 72, 0
8, 182430, Note_on_c, 6, 71, 90
8, 182459, Note_on_c, 6, 71, 0
8, 182460, Note_on_c, 6, 72, 90
8, 182489, Note_on_c, 6, 72, 0
8, 182490, Note_on_c, 6, 74, 90
8, 182519, Note_on_c, 6, 74, 0
8, 182520, Note_on_c, 6, 76, 90
8, 182549, Note_on_c, 6, 76, 0
8, 182550, Note_on_c, 6, 74, 90
8, 182579, Note_on_c, 6, 74, 0
8, 182580, Note_on_c, 6, 72, 90
8, 182609, Note_on_c, 6, 72, 0
8, 182610, Note_on_c, 6, 71, 90
8, 182639, Note_on_c, 6, 71, 0
8, 182640, Note_on_c, 6, 69, 90
8, 182699, Note_on_c, 6, 69, 0
8, 182700, Note_on_c, 6, 62, 90
8, 182759, Note_on_c, 6, 62, 0
8, 182820, Note_on_c, 6, 78, 90
8, 182879, Note_on_c, 6, 78, 0
8, 182880, Note_on_c, 6, 79, 90
8, 182939, Note_on_c, 6, 79, 0
8, 182940, Note_on_c, 6, 78, 90
8, 182969, Note_on_c, 6, 78, 0
8, 182970, Note_on_c, 6, 76, 90
8, 182999, Note_on_c, 6, 76, 0
8, 183000, Note_on_c, 6, 74, 90
8, 183059, Note_on_c, 6, 74, 0
8, 183060, Note_on_c, 6, 74, 90
8, 183149, Note_on_c, 6, 74, 0
8, 183150, Note_on_c, 6, 73, 90
8, 183179, Note_on_c, 6, 73, 0
8, 183180, Note_on_c, 6, 74, 90
8, 183209, Note_on_c, 6, 74, 0
8, 183210, Note_on_c, 6, 76, 90
8, 183239, Note_on_c, 6, 76, 0
8, 183240, Note_on_c, 6, 74, 90
8, 183269, Note_on_c, 6, 74, 0
8, 183270, Note_on_c, 6, 79, 90
8, 183299, Note_on_c, 6, 79, 0
8, 183300, Note_on_c, 6, 78, 90
8, 183329, Note_on_c, 6, 78, 0
8, 183330, Note_on_c, 6, 79, 90
8, 183359, Note_on_c, 6, 79, 0
8, 183360, Note_on_c, 6, 76, 90
8, 183389, Note_on_c, 6, 76, 0
8, 183390, Note_on_c, 6, 78, 90
8, 183419, Note_on_c, 6, 78, 0
8, 183420, Note_on_c, 6, 76, 90
8, 183449, Note_on_c, 6, 76, 0
8, 183450, Note_on_c, 6, 74, 90
8, 183479, Note_on_c, 6, 74, 0
8, 183480, Note_on_c, 6, 73, 90
8, 183509, Note_on_c, 6, 73, 0
8, 183510, Note_on_c, 6, 74, 90
8, 183539, Note_on_c, 6, 74, 0
8, 183540, Note_on_c, 6, 76, 90
8, 183569, Note_on_c, 6, 76, 0
8, 183570, Note_on_c, 6, 73, 90
8, 183599, Note_on_c, 6, 73, 0
8, 183600, Note_on_c, 6, 74, 90
8, 183659, Note_on_c, 6, 74, 0
8, 183660, Note_on_c, 6, 62, 90
8, 183719, Note_on_c, 6, 62, 0
8, 184920, Note_on_c, 6, 78, 90
8, 184979, Note_on_c, 6, 78, 0
8, 184980, Note_on_c, 6, 76, 90
8, 185039, Note_on_c, 6, 76, 0
8, 185040, Note_on_c, 6, 74, 90
8, 185099, Note_on_c, 6, 74, 0
8, 185100, Note_on_c, 6, 76, 90
8, 185159, Note_on_c, 6, 76, 0
8, 185160, Note_on_c, 6, 78, 90
8, 185219, Note_on_c, 6, 78, 0
8, 185220, Note_on_c, 6, 74, 90
8, 185279, Note_on_c, 6, 74, 0
8, 185280, Note_on_c, 6, 79, 90
8, 185339, Note_on_c, 6, 79, 0
8, 185340, Note_on_c, 6, 78, 90
8, 185369, Note_on_c, 6, 78, 0
8, 185370, Note_on_c, 6, 76, 90
8, 185399, Note_on_c, 6, 76, 0
8, 185400, Note_on_c, 6, 74, 90
8, 185459, Note_on_c, 6, 74, 0
8, 185460, Note_on_c, 6, 79, 90
8, 185519, Note_on_c, 6, 79, 0
8, 185520, Note_on_c, 6, 76, 90
8, 185549, Note_on_c, 6, 76, 0
8, 185550, Note_on_c, 6, 74, 90
8, 185579, Note_on_c, 6, 74, 0
8, 185580, Note_on_c, 6, 76, 90
8, 185609, Note_on_c, 6, 76, 0
8, 185610, Note_on_c, 6, 78, 90
8, 185639, Note_on_c, 6, 78, 0
8, 185640, Note_on_c, 6, 79, 90
8, 185669, Note_on_c, 6, 79, 0
8, 185670, Note_on_c, 6, 78, 90
8, 185699, Note_on_c, 6, 78, 0
8, 185700, Note_on_c, 6, 76, 90
8, 185729, Note_on_c, 6, 76, 0
8, 185730, Note_on_c, 6, 74, 90
8, 185759, Note_on_c, 6, 74, 0
8, 185760, Note_on_c, 6, 72, 90
8, 185789, Note_on_c, 6, 72, 0
8, 185790, Note_on_c, 6, 71, 90
8, 185819, Note_on_c, 6, 71, 0
8, 185820, Note_on_c, 6, 72, 90
8, 185849, Note_on_c, 6, 72, 0
8, 185850, Note_on_c, 6, 74, 90
8, 185879, Note_on_c, 6, 74, 0
8, 185880, Note_on_c, 6, 76, 90
8, 185909, Note_on_c, 6, 76, 0
8, 185910, Note_on_c, 6, 74, 90
8, 185939, Note_on_c, 6, 74, 0
8, 185940, Note_on_c, 6, 72, 90
8, 185969, Note_on_c, 6, 72, 0
8, 185970, Note_on_c, 6, 71, 90
8, 185999, Note_on_c, 6, 71, 0
8, 186000, Note_on_c, 6, 69, 90
8, 186029, Note_on_c, 6, 69, 0
8, 186030, Note_on_c, 6, 67, 90
8, 186059, Note_on_c, 6, 67, 0
8, 186060, Note_on_c, 6, 69, 90
8, 186089, Note_on_c, 6, 69, 0
8, 186090, Note_on_c, 6, 71, 90
8, 186119, Note_on_c, 6, 71, 0
8, 186120, Note_on_c, 6, 72, 90
8, 186149, Note_on_c, 6, 72, 0
8, 186150, Note_on_c, 6, 74, 90
8, 186179, Note_on_c, 6, 74, 0
8, 186180, Note_on_c, 6, 71, 90
8, 186209, Note_on_c, 6, 71, 0
8, 186210, Note_on_c, 6, 72, 90
8, 186239, Note_on_c, 6, 72, 0
8, 186240, Note_on_c, 6, 74, 90
8, 186269, Note_on_c, 6, 74, 0
8, 186270, Note_on_c, 6, 72, 90
8, 186299, Note_on_c, 6, 72, 0
8, 186300, Note_on_c, 6, 74, 90
8, 186329, Note_on_c, 6, 74, 0
8, 186330, Note_on_c, 6, 76, 90
8, 186359, Note_on_c, 6, 76, 0
8, 186360, Note_on_c, 6, 78, 90
8, 186389, Note_on_c, 6, 78, 0
8, 186390, Note_on_c, 6, 79, 90
8, 186419, Note_on_c, 6, 79, 0
8, 186420, Note_on_c, 6, 76, 90
8, 186449, Note_on_c, 6, 76, 0
8, 186450, Note_on_c, 6, 78, 90
8, 186479, Note_on_c, 6, 78, 0
8, 186480, Note_on_c, 6, 79, 90
8, 186509, Note_on_c, 6, 79, 0
8, 186510, Note_on_c, 6, 81, 90
8, 186539, Note_on_c, 6, 81, 0
8, 186540, Note_on_c, 6, 79, 90
8, 186569, Note_on_c, 6, 79, 0
8, 186570, Note_on_c, 6, 78, 90
8, 186599, Note_on_c, 6, 78, 0
8, 186600, Note_on_c, 6, 76, 90
8, 186750, Note_on_c, 6, 76, 0
8, 186750, Note_on_c, 6, 77, 90
8, 186779, Note_on_c, 6, 77, 0
8, 186780, Note_on_c, 6, 76, 90
8, 186809, Note_on_c, 6, 76, 0
8, 186810, Note_on_c, 6, 74, 90
8, 186839, Note_on_c, 6, 74, 0
8, 186840, Note_on_c, 6, 72, 90
8, 186990, Note_on_c, 6, 72, 0
8, 186990, Note_on_c, 6, 74, 90
8, 187019, Note_on_c, 6, 74, 0
8, 187020, Note_on_c, 6, 72, 90
8, 187049, Note_on_c, 6, 72, 0
8, 187050, Note_on_c, 6, 71, 90
8, 187079, Note_on_c, 6, 71, 0
8, 187080, Note_on_c, 6, 69, 90
8, 187230, Note_on_c, 6, 69, 0
8, 187230, Note_on_c, 6, 67, 90
8, 187259, Note_on_c, 6, 67, 0
8, 187260, Note_on_c, 6, 69, 90
8, 187289, Note_on_c, 6, 69, 0
8, 187290, Note_on_c, 6, 71, 90
8, 187319, Note_on_c, 6, 71, 0
8, 187320, Note_on_c, 6, 72, 90
8, 187349, Note_on_c, 6, 72, 0
8, 187350, Note_on_c, 6, 71, 90
8, 187379, Note_on_c, 6, 71, 0
8, 187380, Note_on_c, 6, 69, 90
8, 187409, Note_on_c, 6, 69, 0
8, 187410, Note_on_c, 6, 67, 90
8, 187439, Note_on_c, 6, 67, 0
8, 187440, Note_on_c, 6, 66, 90
8, 187499, Note_on_c, 6, 66, 0
8, 187500, Note_on_c, 6, 62, 90
8, 187559, Note_on_c, 6, 62, 0
8, 187560, Note_on_c, 6, 74, 90
8, 187619, Note_on_c, 6, 74, 0
8, 187620, Note_on_c, 6, 72, 90
8, 187679, Note_on_c, 6, 72, 0
8, 187680, Note_on_c, 6, 71, 90
8, 187739, Note_on_c, 6, 71, 0
8, 187740, Note_on_c, 6, 72, 90
8, 187799, Note_on_c, 6, 72, 0
8, 187800, Note_on_c, 6, 74, 90
8, 187859, Note_on_c, 6, 74, 0
8, 187860, Note_on_c, 6, 71, 90
8, 187919, Note_on_c, 6, 71, 0
8, 187920, Note_on_c, 6, 76, 90
8, 187979, Note_on_c, 6, 76, 0
8, 187980, Note_on_c, 6, 74, 90
8, 188009, Note_on_c, 6, 74, 0
8, 188010, Note_on_c, 6, 72, 90
8, 188039, Note_on_c, 6, 72, 0
8, 188040, Note_on_c, 6, 71, 90
8, 188099, Note_on_c, 6, 71, 0
8, 188100, Note_on_c, 6, 76, 90
8, 188159, Note_on_c, 6, 76, 0
8, 188160, Note_on_c, 6, 72, 90
8, 188189, Note_on_c, 6, 72, 0
8, 188190, Note_on_c, 6, 71, 90
8, 188219, Note_on_c, 6, 71, 0
8, 188220, Note_on_c, 6, 72, 90
8, 188249, Note_on_c, 6, 72, 0
8, 188250, Note_on_c, 6, 74, 90
8, 188279, Note_on_c, 6, 74, 0
8, 188280, Note_on_c, 6, 76, 90
8, 188309, Note_on_c, 6, 76, 0
8, 188310, Note_on_c, 6, 74, 90
8, 188339, Note_on_c, 6, 74, 0
8, 188340, Note_on_c, 6, 72, 90
8, 188369, Note_on_c, 6, 72, 0
8, 188370, Note_on_c, 6, 71, 90
8, 188399, Note_on_c, 6, 71, 0
8, 188400, Note_on_c, 6, 69, 90
8, 188429, Note_on_c, 6, 69, 0
8, 188430, Note_on_c, 6, 67, 90
8, 188459, Note_on_c, 6, 67, 0
8, 188460, Note_on_c, 6, 69, 90
8, 188489, Note_on_c, 6, 69, 0
8, 188490, Note_on_c, 6, 71, 90
8, 188519, Note_on_c, 6, 71, 0
8, 188520, Note_on_c, 6, 72, 90
8, 188549, Note_on_c, 6, 72, 0
8, 188550, Note_on_c, 6, 71, 90
8, 188579, Note_on_c, 6, 71, 0
8, 188580, Note_on_c, 6, 69, 90
8, 188609, Note_on_c, 6, 69, 0
8, 188610, Note_on_c, 6, 67, 90
8, 188639, Note_on_c, 6, 67, 0
8, 188640, Note_on_c, 6, 66, 90
8, 188699, Note_on_c, 6, 66, 0
8, 188700, Note_on_c, 6, 59, 90
8, 188760, Note_on_c, 6, 59, 0
8, 189240, Note_on_c, 6, 76, 90
8, 189299, Note_on_c, 6, 76, 0
8, 189300, Note_on_c, 6, 74, 90
8, 189359, Note_on_c, 6, 74, 0
8, 189360, Note_on_c, 6, 72, 90
8, 189419, Note_on_c, 6, 72, 0
8, 189420, Note_on_c, 6, 74, 90
8, 189479, Note_on_c, 6, 74, 0
8, 189480, Note_on_c, 6, 76, 90
8, 189539, Note_on_c, 6, 76, 0
8, 189540, Note_on_c, 6, 72, 90
8, 189599, Note_on_c, 6, 72, 0
8, 189600, Note_on_c, 6, 77, 90
8, 189659, Note_on_c, 6, 77, 0
8, 189660, Note_on_c, 6, 76, 90
8, 189689, Note_on_c, 6, 76, 0
8, 189690, Note_on_c, 6, 74, 90
8, 189719, Note_on_c, 6, 74, 0
8, 189720, Note_on_c, 6, 72, 90
8, 189779, Note_on_c, 6, 72, 0
8, 189780, Note_on_c, 6, 77, 90
8, 189839, Note_on_c, 6, 77, 0
8, 189840, Note_on_c, 6, 74, 90
8, 189869, Note_on_c, 6, 74, 0
8, 189870, Note_on_c, 6, 72, 90
8, 189899, Note_on_c, 6, 72, 0
8, 189900, Note_on_c, 6, 74, 90
8, 189929, Note_on_c, 6, 74, 0
8, 189930, Note_on_c, 6, 76, 90
8, 189959, Note_on_c, 6, 76, 0
8, 189960, Note_on_c, 6, 77, 90
8, 189989, Note_on_c, 6, 77, 0
8, 189990, Note_on_c, 6, 76, 90
8, 190019, Note_on_c, 6, 76, 0
8, 190020, Note_on_c, 6, 74, 90
8, 190049, Note_on_c, 6, 74, 0
8, 190050, Note_on_c, 6, 72, 90
8, 190079, Note_on_c, 6, 72, 0
8, 190080, Note_on_c, 6, 71, 90
8, 190109, Note_on_c, 6, 71, 0
8, 190110, Note_on_c, 6, 69, 90
8, 190139, Note_on_c, 6, 69, 0
8, 190140, Note_on_c, 6, 71, 90
8, 190169, Note_on_c, 6, 71, 0
8, 190170, Note_on_c, 6, 72, 90
8, 190199, Note_on_c, 6, 72, 0
8, 190200, Note_on_c, 6, 74, 90
8, 190229, Note_on_c, 6, 74, 0
8, 190230, Note_on_c, 6, 76, 90
8, 190259, Note_on_c, 6, 76, 0
8, 190260, Note_on_c, 6, 77, 90
8, 190289, Note_on_c, 6, 77, 0
8, 190290, Note_on_c, 6, 74, 90
8, 190319, Note_on_c, 6, 74, 0
8, 190320, Note_on_c, 6, 76, 90
8, 190379, Note_on_c, 6, 76, 0
8, 190380, Note_on_c, 6, 72, 90
8, 190439, Note_on_c, 6, 72, 0
8, 190500, Note_on_c, 6, 76, 90
8, 190530, Note_on_c, 6, 76, 0
8, 190560, Note_on_c, 6, 77, 90
8, 190590, Note_on_c, 6, 77, 0
8, 190740, Note_on_c, 6, 77, 90
8, 190770, Note_on_c, 6, 77, 0
8, 190800, Note_on_c, 6, 79, 90
8, 190830, Note_on_c, 6, 79, 0
8, 190980, Note_on_c, 6, 79, 90
8, 191010, Note_on_c, 6, 79, 0
8, 191040, Note_on_c, 6, 81, 90
8, 191070, Note_on_c, 6, 81, 0
8, 191220, Note_on_c, 6, 81, 90
8, 191250, Note_on_c, 6, 81, 0
8, 191280, Note_on_c, 6, 83, 90
8, 191310, Note_on_c, 6, 83, 0
8, 191460, Note_on_c, 6, 83, 90
8, 191490, Note_on_c, 6, 83, 0
8, 191520, Note_on_c, 6, 84, 90
8, 191550, Note_on_c, 6, 84, 0
8, 191700, Note_on_c, 6, 84, 90
8, 191730, Note_on_c, 6, 84, 0
8, 191760, Note_on_c, 6, 86, 90
8, 191790, Note_on_c, 6, 86, 0
8, 191940, Note_on_c, 6, 74, 90
8, 191970, Note_on_c, 6, 74, 0
8, 192000, Note_on_c, 6, 76, 90
8, 192030, Note_on_c, 6, 76, 0
8, 192180, Note_on_c, 6, 76, 90
8, 192210, Note_on_c, 6, 76, 0
8, 192240, Note_on_c, 6, 78, 90
8, 192270, Note_on_c, 6, 78, 0
8, 192420, Note_on_c, 6, 79, 90
8, 192450, Note_on_c, 6, 79, 0
8, 192480, Note_on_c, 6, 76, 90
8, 192510, Note_on_c, 6, 76, 0
8, 192660, Note_on_c, 6, 78, 90
8, 192690, Note_on_c, 6, 78, 0
8, 192720, Note_on_c, 6, 74, 90
8, 192750, Note_on_c, 6, 74, 0
8, 192900, Note_on_c, 6, 76, 90
8, 192930, Note_on_c, 6, 76, 0
8, 192960, Note_on_c, 6, 74, 90
8, 192990, Note_on_c, 6, 74, 0
8, 193140, Note_on_c, 6, 74, 90
8, 193170, Note_on_c, 6, 74, 0
8, 193200, Note_on_c, 6, 76, 90
8, 193230, Note_on_c, 6, 76, 0
8, 193380, Note_on_c, 6, 81, 90
8, 193410, Note_on_c, 6, 81, 0
8, 193440, Note_on_c, 6, 74, 90
8, 193470, Note_on_c, 6, 74, 0
8, 193620, Note_on_c, 6, 79, 90
8, 193650, Note_on_c, 6, 79, 0
8, 193680, Note_on_c, 6, 81, 90
8, 193710, Note_on_c, 6, 81, 0
8, 193860, Note_on_c, 6, 83, 90
8, 193890, Note_on_c, 6, 83, 0
8, 193920, Note_on_c, 6, 83, 90
8, 193950, Note_on_c, 6, 83, 0
8, 194100, Note_on_c, 6, 84, 90
8, 194159, Note_on_c, 6, 84, 0
8, 194160, Note_on_c, 6, 83, 90
8, 194219, Note_on_c, 6, 83, 0
8, 194220, Note_on_c, 6, 74, 90
8, 194279, Note_on_c, 6, 74, 0
8, 194280, Note_on_c, 6, 71, 90
8, 194339, Note_on_c, 6, 71, 0
8, 194340, Note_on_c, 6, 67, 90
8, 194399, Note_on_c, 6, 67, 0
8, 194460, Note_on_c, 6, 71, 90
8, 194519, Note_on_c, 6, 71, 0
8, 194520, Note_on_c, 6, 72, 90
8, 194579, Note_on_c, 6, 72, 0
8, 194580, Note_on_c, 6, 76, 90
8, 194639, Note_on_c, 6, 76, 0
8, 194700, Note_on_c, 6, 69, 90
8, 194759, Note_on_c, 6, 69, 0
8, 194760, Note_on_c, 6, 71, 90
8, 194819, Note_on_c, 6, 71, 0
8, 194820, Note_on_c, 6, 74, 90
8, 194879, Note_on_c, 6, 74, 0
8, 194940, Note_on_c, 6, 67, 90
8, 194999, Note_on_c, 6, 67, 0
8, 195000, Note_on_c, 6, 69, 90
8, 195059, Note_on_c, 6, 69, 0
8, 195060, Note_on_c, 6, 72, 90
8, 195119, Note_on_c, 6, 72, 0
8, 195180, Note_on_c, 6, 72, 90
8, 195239, Note_on_c, 6, 72, 0
8, 195240, Note_on_c, 6, 71, 90
8, 195299, Note_on_c, 6, 71, 0
8, 195300, Note_on_c, 6, 74, 90
8, 195359, Note_on_c, 6, 74, 0
8, 195360, Note_on_c, 6, 79, 90
8, 195419, Note_on_c, 6, 79, 0
8, 195420, Note_on_c, 6, 71, 90
8, 195479, Note_on_c, 6, 71, 0
8, 195480, Note_on_c, 6, 72, 90
8, 195539, Note_on_c, 6, 72, 0
8, 195540, Note_on_c, 6, 76, 90
8, 195599, Note_on_c, 6, 76, 0
8, 195600, Note_on_c, 6, 74, 90
8, 195659, Note_on_c, 6, 74, 0
8, 195660, Note_on_c, 6, 66, 90
8, 195719, Note_on_c, 6, 66, 0
8, 195720, Note_on_c, 6, 67, 90
8, 195779, Note_on_c, 6, 67, 0
8, 195780, Note_on_c, 6, 71, 90
8, 195839, Note_on_c, 6, 71, 0
8, 195840, Note_on_c, 6, 76, 90
8, 195899, Note_on_c, 6, 76, 0
8, 195900, Note_on_c, 6, 67, 90
8, 195959, Note_on_c, 6, 67, 0
8, 195960, Note_on_c, 6, 72, 90
8, 196019, Note_on_c, 6, 72, 0
8, 196020, Note_on_c, 6, 78, 90
8, 196079, Note_on_c, 6, 78, 0
8, 196080, Note_on_c, 6, 79, 90
8, 196199, Note_on_c, 6, 79, 0
8, 196440, Note_on_c, 6, 76, 90
8, 196499, Note_on_c, 6, 76, 0
8, 196500, Note_on_c, 6, 74, 90
8, 196559, Note_on_c, 6, 74, 0
8, 196560, Note_on_c, 6, 72, 90
8, 196619, Note_on_c, 6, 72, 0
8, 196620, Note_on_c, 6, 74, 90
8, 196679, Note_on_c, 6, 74, 0
8, 196680, Note_on_c, 6, 76, 90
8, 196739, Note_on_c, 6, 76, 0
8, 196740, Note_on_c, 6, 72, 90
8, 196799, Note_on_c, 6, 72, 0
8, 196800, Note_on_c, 6, 74, 90
8, 196859, Note_on_c, 6, 74, 0
8, 196860, Note_on_c, 6, 72, 90
8, 196889, Note_on_c, 6, 72, 0
8, 196890, Note_on_c, 6, 71, 90
8, 196919, Note_on_c, 6, 71, 0
8, 196920, Note_on_c, 6, 69, 90
8, 196979, Note_on_c, 6, 69, 0
8, 196980, Note_on_c, 6, 74, 90
8, 197039, Note_on_c, 6, 74, 0
8, 197040, Note_on_c, 6, 71, 90
8, 197069, Note_on_c, 6, 71, 0
8, 197070, Note_on_c, 6, 69, 90
8, 197099, Note_on_c, 6, 69, 0
8, 197100, Note_on_c, 6, 71, 90
8, 197129, Note_on_c, 6, 71, 0
8, 197130, Note_on_c, 6, 72, 90
8, 197159, Note_on_c, 6, 72, 0
8, 197160, Note_on_c, 6, 74, 90
8, 197189, Note_on_c, 6, 74, 0
8, 197190, Note_on_c, 6, 72, 90
8, 197219, Note_on_c, 6, 72, 0
8, 197220, Note_on_c, 6, 71, 90
8, 197249, Note_on_c, 6, 71, 0
8, 197250, Note_on_c, 6, 69, 90
8, 197279, Note_on_c, 6, 69, 0
8, 197280, Note_on_c, 6, 67, 90
8, 197880, Note_on_c, 6, 67, 0
8, 197880, Note_on_c, 6, 66, 90
8, 198000, Note_on_c, 6, 66, 0
8, 198000, Note_on_c, 6, 67, 90
8, 198240, Note_on_c, 6, 67, 0
8, 201900, Note_on_c, 6, 79, 90
8, 202079, Note_on_c, 6, 79, 0
8, 202080, Note_on_c, 6, 78, 90
8, 202259, Note_on_c, 6, 78, 0
8, 202260, Note_on_c, 6, 76, 90
8, 202439, Note_on_c, 6, 76, 0
8, 202440, Note_on_c, 6, 78, 90
8, 202619, Note_on_c, 6, 78, 0
8, 202620, Note_on_c, 6, 74, 90
8, 202799, Note_on_c, 6, 74, 0
8, 202800, Note_on_c, 6, 76, 90
8, 202979, Note_on_c, 6, 76, 0
8, 202980, Note_on_c, 6, 78, 90
8, 203159, Note_on_c, 6, 78, 0
8, 203160, Note_on_c, 6, 79, 90
8, 203339, Note_on_c, 6, 79, 0
8, 204420, Note_on_c, 6, 79, 90
8, 204599, Note_on_c, 6, 79, 0
8, 204600, Note_on_c, 6, 79, 90
8, 204779, Note_on_c, 6, 79, 0
8, 204780, Note_on_c, 6, 74, 90
8, 204959, Note_on_c, 6, 74, 0
8, 204960, Note_on_c, 6, 74, 90
8, 205079, Note_on_c, 6, 74, 0
8, 205080, Note_on_c, 6, 72, 90
8, 205139, Note_on_c, 6, 72, 0
8, 205140, Note_on_c, 6, 71, 90
8, 205259, Note_on_c, 6, 71, 0
8, 205260, Note_on_c, 6, 72, 90
8, 205319, Note_on_c, 6, 72, 0
8, 205320, Note_on_c, 6, 74, 90
8, 205499, Note_on_c, 6, 74, 0
8, 205500, Note_on_c, 6, 72, 90
8, 205679, Note_on_c, 6, 72, 0
8, 205680, Note_on_c, 6, 71, 90
8, 205859, Note_on_c, 6, 71, 0
8, 206940, Note_on_c, 6, 71, 90
8, 207119, Note_on_c, 6, 71, 0
8, 207120, Note_on_c, 6, 76, 90
8, 207299, Note_on_c, 6, 76, 0
8, 207300, Note_on_c, 6, 76, 90
8, 207479, Note_on_c, 6, 76, 0
8, 207480, Note_on_c, 6, 74, 90
8, 207599, Note_on_c, 6, 74, 0
8, 207600, Note_on_c, 6, 76, 90
8, 207659, Note_on_c, 6, 76, 0
8, 207660, Note_on_c, 6, 78, 90
8, 207839, Note_on_c, 6, 78, 0
8, 207840, Note_on_c, 6, 79, 90
8, 207959, Note_on_c, 6, 79, 0
8, 207960, Note_on_c, 6, 78, 90
8, 208019, Note_on_c, 6, 78, 0
8, 208020, Note_on_c, 6, 76, 90
8, 208199, Note_on_c, 6, 76, 0
8, 208200, Note_on_c, 6, 74, 90
8, 208379, Note_on_c, 6, 74, 0
8, 209460, Note_on_c, 6, 79, 90
8, 209639, Note_on_c, 6, 79, 0
8, 209640, Note_on_c, 6, 78, 90
8, 209819, Note_on_c, 6, 78, 0
8, 209820, Note_on_c, 6, 76, 90
8, 209999, Note_on_c, 6, 76, 0
8, 210000, Note_on_c, 6, 74, 90
8, 210179, Note_on_c, 6, 74, 0
8, 210180, Note_on_c, 6, 76, 90
8, 210299, Note_on_c, 6, 76, 0
8, 210300, Note_on_c, 6, 74, 90
8, 210359, Note_on_c, 6, 74, 0
8, 210360, Note_on_c, 6, 72, 90
8, 210479, Note_on_c, 6, 72, 0
8, 210480, Note_on_c, 6, 71, 90
8, 210539, Note_on_c, 6, 71, 0
8, 210540, Note_on_c, 6, 69, 90
8, 210719, Note_on_c, 6, 69, 0
8, 210720, Note_on_c, 6, 67, 90
8, 210899, Note_on_c, 6, 67, 0
8, 210899, End_track
9, 0, Start_track
9, 0, MIDI_port, 0
9, 0, Title_t, "Violin II"
9, 0, Program_c, 7, 48
9, 0, Control_c, 7, 7, 127
9, 0, Control_c, 7, 10, 79
9, 360, Note_on_c, 7, 71, 100
9, 450, Note_on_c, 7, 71, 0
9, 450, Note_on_c, 7, 74, 100
9, 480, Note_on_c, 7, 74, 0
9, 480, Note_on_c, 7, 79, 100
9, 540, Note_on_c, 7, 79, 0
9, 540, Note_on_c, 7, 79, 100
9, 630, Note_on_c, 7, 79, 0
9, 630, Note_on_c, 7, 78, 100
9, 660, Note_on_c, 7, 78, 0
9, 660, Note_on_c, 7, 79, 100
9, 720, Note_on_c, 7, 79, 0
9, 720, Note_on_c, 7, 69, 100
9, 900, Note_on_c, 7, 69, 0
9, 1020, Note_on_c, 7, 69, 100
9, 1170, Note_on_c, 7, 69, 0
9, 1170, Note_on_c, 7, 71, 100
9, 1200, Note_on_c, 7, 71, 0
9, 1200, Note_on_c, 7, 69, 100
9, 1260, Note_on_c, 7, 69, 0
9, 1260, Note_on_c, 7, 67, 100
9, 1350, Note_on_c, 7, 67, 0
9, 1350, Note_on_c, 7, 71, 100
9, 1380, Note_on_c, 7, 71, 0
9, 1380, Note_on_c, 7, 74, 100
9, 1440, Note_on_c, 7, 74, 0
9, 1440, Note_on_c, 7, 74, 100
9, 1500, Note_on_c, 7, 74, 0
9, 1500, Note_on_c, 7, 76, 100
9, 1515, Note_on_c, 7, 76, 0
9, 1515, Note_on_c, 7, 74, 100
9, 1530, Note_on_c, 7, 74, 0
9, 1530, Note_on_c, 7, 76, 100
9, 1545, Note_on_c, 7, 76, 0
9, 1545, Note_on_c, 7, 74, 100
9, 1560, Note_on_c, 7, 74, 0
9, 1560, Note_on_c, 7, 72, 100
9, 1620, Note_on_c, 7, 72, 0
9, 1740, Note_on_c, 7, 72, 100
9, 1800, Note_on_c, 7, 72, 0
9, 1800, Note_on_c, 7, 72, 100
9, 1860, Note_on_c, 7, 72, 0
9, 1860, Note_on_c, 7, 74, 100
9, 1875, Note_on_c, 7, 74, 0
9, 1875, Note_on_c, 7, 72, 100
9, 1890, Note_on_c, 7, 72, 0
9, 1890, Note_on_c, 7, 74, 100
9, 1905, Note_on_c, 7, 74, 0
9, 1905, Note_on_c, 7, 72, 100
9, 1920, Note_on_c, 7, 72, 0
9, 1920, Note_on_c, 7, 71, 100
9, 1980, Note_on_c, 7, 71, 0
9, 2100, Note_on_c, 7, 71, 100
9, 2250, Note_on_c, 7, 71, 0
9, 2250, Note_on_c, 7, 72, 100
9, 2280, Note_on_c, 7, 72, 0
9, 2280, Note_on_c, 7, 69, 100
9, 2430, Note_on_c, 7, 69, 0
9, 2430, Note_on_c, 7, 71, 100
9, 2460, Note_on_c, 7, 71, 0
9, 2460, Note_on_c, 7, 67, 100
9, 2520, Note_on_c, 7, 67, 0
9, 2520, Note_on_c, 7, 69, 100
9, 2535, Note_on_c, 7, 69, 0
9, 2535, Note_on_c, 7, 67, 100
9, 2550, Note_on_c, 7, 67, 0
9, 2550, Note_on_c, 7, 69, 100
9, 2565, Note_on_c, 7, 69, 0
9, 2565, Note_on_c, 7, 67, 100
9, 2580, Note_on_c, 7, 67, 0
9, 2580, Note_on_c, 7, 69, 100
9, 2595, Note_on_c, 7, 69, 0
9, 2595, Note_on_c, 7, 67, 100
9, 2610, Note_on_c, 7, 67, 0
9, 2610, Note_on_c, 7, 69, 100
9, 2625, Note_on_c, 7, 69, 0
9, 2625, Note_on_c, 7, 67, 100
9, 2640, Note_on_c, 7, 67, 0
9, 2640, Note_on_c, 7, 66, 100
9, 2700, Note_on_c, 7, 66, 0
9, 2820, Note_on_c, 7, 66, 100
9, 2880, Note_on_c, 7, 66, 0
9, 2880, Note_on_c, 7, 62, 100
9, 3000, Note_on_c, 7, 62, 0
9, 3000, Note_on_c, 7, 67, 100
9, 3060, Note_on_c, 7, 67, 0
9, 3060, Note_on_c, 7, 71, 100
9, 3360, Note_on_c, 7, 71, 0
9, 3360, Note_on_c, 7, 64, 100
9, 3420, Note_on_c, 7, 64, 0
9, 3540, Note_on_c, 7, 68, 100
9, 3600, Note_on_c, 7, 68, 0
9, 3600, Note_on_c, 7, 64, 100
9, 3720, Note_on_c, 7, 64, 0
9, 3720, Note_on_c, 7, 69, 100
9, 3780, Note_on_c, 7, 69, 0
9, 3780, Note_on_c, 7, 79, 100
9, 4080, Note_on_c, 7, 79, 0
9, 4080, Note_on_c, 7, 83, 100
9, 4140, Note_on_c, 7, 83, 0
9, 4140, Note_on_c, 7, 76, 100
9, 4260, Note_on_c, 7, 76, 0
9, 4260, Note_on_c, 7, 74, 100
9, 4320, Note_on_c, 7, 74, 0
9, 4320, Note_on_c, 7, 73, 100
9, 4440, Note_on_c, 7, 73, 0
9, 4440, Note_on_c, 7, 76, 100
9, 4500, Note_on_c, 7, 76, 0
9, 4500, Note_on_c, 7, 81, 100
9, 4800, Note_on_c, 7, 81, 0
9, 4800, Note_on_c, 7, 74, 100
9, 4860, Note_on_c, 7, 74, 0
9, 4860, Note_on_c, 7, 74, 100
9, 4980, Note_on_c, 7, 74, 0
9, 4980, Note_on_c, 7, 73, 100
9, 5040, Note_on_c, 7, 73, 0
9, 5040, Note_on_c, 7, 74, 100
9, 5130, Note_on_c, 7, 74, 0
9, 5130, Note_on_c, 7, 62, 100
9, 5160, Note_on_c, 7, 62, 0
9, 5160, Note_on_c, 7, 71, 100
9, 5220, Note_on_c, 7, 71, 0
9, 5220, Note_on_c, 7, 69, 100
9, 5310, Note_on_c, 7, 69, 0
9, 5310, Note_on_c, 7, 71, 100
9, 5340, Note_on_c, 7, 71, 0
9, 5340, Note_on_c, 7, 67, 100
9, 5400, Note_on_c, 7, 67, 0
9, 5400, Note_on_c, 7, 69, 100
9, 5520, Note_on_c, 7, 69, 0
9, 5520, Note_on_c, 7, 62, 100
9, 5580, Note_on_c, 7, 62, 0
9, 5580, Note_on_c, 7, 62, 100
9, 5700, Note_on_c, 7, 62, 0
9, 5700, Note_on_c, 7, 61, 100
9, 5760, Note_on_c, 7, 61, 0
9, 5760, Note_on_c, 7, 57, 100
9, 6060, Note_on_c, 7, 57, 0
9, 7200, Note_on_c, 7, 67, 100
9, 7320, Note_on_c, 7, 67, 0
9, 7320, Note_on_c, 7, 71, 100
9, 7380, Note_on_c, 7, 71, 0
9, 7380, Note_on_c, 7, 71, 100
9, 7500, Note_on_c, 7, 71, 0
9, 7500, Note_on_c, 7, 76, 100
9, 7560, Note_on_c, 7, 76, 0
9, 7560, Note_on_c, 7, 76, 100
9, 7680, Note_on_c, 7, 76, 0
9, 8640, Note_on_c, 7, 67, 100
9, 8760, Note_on_c, 7, 67, 0
9, 8760, Note_on_c, 7, 74, 100
9, 8820, Note_on_c, 7, 74, 0
9, 8820, Note_on_c, 7, 71, 100
9, 8940, Note_on_c, 7, 71, 0
9, 8940, Note_on_c, 7, 72, 100
9, 9000, Note_on_c, 7, 72, 0
9, 9000, Note_on_c, 7, 72, 100
9, 9120, Note_on_c, 7, 72, 0
9, 10200, Note_on_c, 7, 64, 100
9, 10260, Note_on_c, 7, 64, 0
9, 10260, Note_on_c, 7, 72, 100
9, 10560, Note_on_c, 7, 72, 0
9, 10560, Note_on_c, 7, 71, 100
9, 10620, Note_on_c, 7, 71, 0
9, 10740, Note_on_c, 7, 71, 100
9, 10890, Note_on_c, 7, 71, 0
9, 10890, Note_on_c, 7, 72, 100
9, 10920, Note_on_c, 7, 72, 0
9, 10920, Note_on_c, 7, 69, 100
9, 11070, Note_on_c, 7, 69, 0
9, 11070, Note_on_c, 7, 71, 100
9, 11100, Note_on_c, 7, 71, 0
9, 11100, Note_on_c, 7, 67, 100
9, 11160, Note_on_c, 7, 67, 0
9, 11160, Note_on_c, 7, 69, 100
9, 11170, Note_on_c, 7, 69, 0
9, 11170, Note_on_c, 7, 67, 100
9, 11180, Note_on_c, 7, 67, 0
9, 11180, Note_on_c, 7, 69, 100
9, 11190, Note_on_c, 7, 69, 0
9, 11190, Note_on_c, 7, 67, 100
9, 11200, Note_on_c, 7, 67, 0
9, 11200, Note_on_c, 7, 69, 100
9, 11210, Note_on_c, 7, 69, 0
9, 11210, Note_on_c, 7, 67, 100
9, 11220, Note_on_c, 7, 67, 0
9, 11220, Note_on_c, 7, 69, 100
9, 11230, Note_on_c, 7, 69, 0
9, 11230, Note_on_c, 7, 67, 100
9, 11240, Note_on_c, 7, 67, 0
9, 11240, Note_on_c, 7, 69, 100
9, 11250, Note_on_c, 7, 69, 0
9, 11250, Note_on_c, 7, 67, 100
9, 11260, Note_on_c, 7, 67, 0
9, 11260, Note_on_c, 7, 69, 100
9, 11270, Note_on_c, 7, 69, 0
9, 11270, Note_on_c, 7, 67, 100
9, 11280, Note_on_c, 7, 67, 0
9, 11280, Note_on_c, 7, 66, 100
9, 11340, Note_on_c, 7, 66, 0
9, 12000, Note_on_c, 7, 69, 100
9, 12150, Note_on_c, 7, 69, 0
9, 12150, Note_on_c, 7, 68, 100
9, 12180, Note_on_c, 7, 68, 0
9, 12180, Note_on_c, 7, 74, 100
9, 12300, Note_on_c, 7, 74, 0
9, 12300, Note_on_c, 7, 72, 100
9, 12360, Note_on_c, 7, 72, 0
9, 12360, Note_on_c, 7, 71, 100
9, 12420, Note_on_c, 7, 71, 0
9, 12420, Note_on_c, 7, 69, 100
9, 12480, Note_on_c, 7, 69, 0
9, 12480, Note_on_c, 7, 66, 100
9, 12540, Note_on_c, 7, 66, 0
9, 12540, Note_on_c, 7, 75, 100
9, 12600, Note_on_c, 7, 75, 0
9, 12600, Note_on_c, 7, 76, 100
9, 12720, Note_on_c, 7, 76, 0
9, 13320, Note_on_c, 7, 67, 100
9, 13410, Note_on_c, 7, 67, 0
9, 13410, Note_on_c, 7, 71, 100
9, 13440, Note_on_c, 7, 71, 0
9, 13440, Note_on_c, 7, 76, 100
9, 13500, Note_on_c, 7, 76, 0
9, 13500, Note_on_c, 7, 76, 100
9, 13590, Note_on_c, 7, 76, 0
9, 13590, Note_on_c, 7, 75, 100
9, 13620, Note_on_c, 7, 75, 0
9, 13620, Note_on_c, 7, 76, 100
9, 13680, Note_on_c, 7, 76, 0
9, 13680, Note_on_c, 7, 64, 100
9, 13800, Note_on_c, 7, 64, 0
9, 14040, Note_on_c, 7, 81, 100
9, 14160, Note_on_c, 7, 81, 0
9, 14160, Note_on_c, 7, 79, 100
9, 14220, Note_on_c, 7, 79, 0
9, 14220, Note_on_c, 7, 79, 100
9, 14340, Note_on_c, 7, 79, 0
9, 14340, Note_on_c, 7, 78, 100
9, 14400, Note_on_c, 7, 78, 0
9, 14400, Note_on_c, 7, 79, 100
9, 14520, Note_on_c, 7, 79, 0
9, 14520, Note_on_c, 7, 76, 100
9, 14580, Note_on_c, 7, 76, 0
9, 14580, Note_on_c, 7, 71, 100
9, 14700, Note_on_c, 7, 71, 0
9, 14700, Note_on_c, 7, 76, 100
9, 14760, Note_on_c, 7, 76, 0
9, 14760, Note_on_c, 7, 76, 100
9, 15030, Note_on_c, 7, 76, 0
9, 15030, Note_on_c, 7, 75, 100
9, 15060, Note_on_c, 7, 75, 0
9, 15060, Note_on_c, 7, 73, 100
9, 15120, Note_on_c, 7, 73, 0
9, 15120, Note_on_c, 7, 75, 100
9, 15240, Note_on_c, 7, 75, 0
9, 15240, Note_on_c, 7, 78, 100
9, 15300, Note_on_c, 7, 78, 0
9, 15300, Note_on_c, 7, 71, 100
9, 15570, Note_on_c, 7, 71, 0
9, 15570, Note_on_c, 7, 69, 100
9, 15600, Note_on_c, 7, 69, 0
9, 15600, Note_on_c, 7, 67, 100
9, 15660, Note_on_c, 7, 67, 0
9, 15660, Note_on_c, 7, 69, 100
9, 15750, Note_on_c, 7, 69, 0
9, 15750, Note_on_c, 7, 67, 100
9, 15780, Note_on_c, 7, 67, 0
9, 15780, Note_on_c, 7, 66, 100
9, 15840, Note_on_c, 7, 66, 0
9, 15840, Note_on_c, 7, 67, 100
9, 15930, Note_on_c, 7, 67, 0
9, 15930, Note_on_c, 7, 71, 100
9, 15960, Note_on_c, 7, 71, 0
9, 15960, Note_on_c, 7, 76, 100
9, 16020, Note_on_c, 7, 76, 0
9, 16020, Note_on_c, 7, 76, 100
9, 16110, Note_on_c, 7, 76, 0
9, 16110, Note_on_c, 7, 75, 100
9, 16140, Note_on_c, 7, 75, 0
9, 16140, Note_on_c, 7, 76, 100
9, 16200, Note_on_c, 7, 76, 0
9, 16200, Note_on_c, 7, 64, 100
9, 16380, Note_on_c, 7, 64, 0
9, 16650, Note_on_c, 7, 66, 100
9, 16680, Note_on_c, 7, 66, 0
9, 16680, Note_on_c, 7, 64, 100
9, 16740, Note_on_c, 7, 64, 0
9, 16740, Note_on_c, 7, 63, 100
9, 16830, Note_on_c, 7, 63, 0
9, 16830, Note_on_c, 7, 66, 100
9, 16860, Note_on_c, 7, 66, 0
9, 16860, Note_on_c, 7, 69, 100
9, 16920, Note_on_c, 7, 69, 0
9, 16920, Note_on_c, 7, 67, 100
9, 17100, Note_on_c, 7, 67, 0
9, 17220, Note_on_c, 7, 67, 100
9, 17370, Note_on_c, 7, 67, 0
9, 17370, Note_on_c, 7, 69, 100
9, 17400, Note_on_c, 7, 69, 0
9, 17400, Note_on_c, 7, 67, 100
9, 17460, Note_on_c, 7, 67, 0
9, 17460, Note_on_c, 7, 66, 100
9, 17550, Note_on_c, 7, 66, 0
9, 17550, Note_on_c, 7, 69, 100
9, 17580, Note_on_c, 7, 69, 0
9, 17580, Note_on_c, 7, 72, 100
9, 17640, Note_on_c, 7, 72, 0
9, 17640, Note_on_c, 7, 71, 100
9, 17820, Note_on_c, 7, 71, 0
9, 17940, Note_on_c, 7, 71, 100
9, 18090, Note_on_c, 7, 71, 0
9, 18090, Note_on_c, 7, 73, 100
9, 18120, Note_on_c, 7, 73, 0
9, 18120, Note_on_c, 7, 71, 100
9, 18180, Note_on_c, 7, 71, 0
9, 18180, Note_on_c, 7, 69, 100
9, 18270, Note_on_c, 7, 69, 0
9, 18270, Note_on_c, 7, 73, 100
9, 18300, Note_on_c, 7, 73, 0
9, 18300, Note_on_c, 7, 76, 100
9, 18360, Note_on_c, 7, 76, 0
9, 18360, Note_on_c, 7, 76, 100
9, 18480, Note_on_c, 7, 76, 0
9, 18480, Note_on_c, 7, 73, 100
9, 18540, Note_on_c, 7, 73, 0
9, 18540, Note_on_c, 7, 74, 100
9, 18660, Note_on_c, 7, 74, 0
9, 18660, Note_on_c, 7, 76, 100
9, 18720, Note_on_c, 7, 76, 0
9, 18720, Note_on_c, 7, 69, 100
9, 18840, Note_on_c, 7, 69, 0
9, 18840, Note_on_c, 7, 74, 100
9, 18900, Note_on_c, 7, 74, 0
9, 18900, Note_on_c, 7, 74, 100
9, 19020, Note_on_c, 7, 74, 0
9, 19020, Note_on_c, 7, 73, 100
9, 19080, Note_on_c, 7, 73, 0
9, 19080, Note_on_c, 7, 74, 100
9, 19170, Note_on_c, 7, 74, 0
9, 19170, Note_on_c, 7, 62, 100
9, 19200, Note_on_c, 7, 62, 0
9, 19200, Note_on_c, 7, 67, 100
9, 19260, Note_on_c, 7, 67, 0
9, 19260, Note_on_c, 7, 66, 100
9, 19350, Note_on_c, 7, 66, 0
9, 19350, Note_on_c, 7, 67, 100
9, 19380, Note_on_c, 7, 67, 0
9, 19380, Note_on_c, 7, 64, 100
9, 19440, Note_on_c, 7, 64, 0
9, 19440, Note_on_c, 7, 62, 100
9, 19560, Note_on_c, 7, 62, 0
9, 20520, Note_on_c, 7, 62, 100
9, 20640, Note_on_c, 7, 62, 0
9, 20640, Note_on_c, 7, 66, 100
9, 20700, Note_on_c, 7, 66, 0
9, 20700, Note_on_c, 7, 66, 100
9, 20820, Note_on_c, 7, 66, 0
9, 20820, Note_on_c, 7, 71, 100
9, 20880, Note_on_c, 7, 71, 0
9, 20880, Note_on_c, 7, 71, 100
9, 21000, Note_on_c, 7, 71, 0
9, 22080, Note_on_c, 7, 62, 100
9, 22140, Note_on_c, 7, 62, 0
9, 22140, Note_on_c, 7, 71, 100
9, 22440, Note_on_c, 7, 71, 0
9, 22440, Note_on_c, 7, 69, 100
9, 22500, Note_on_c, 7, 69, 0
9, 22620, Note_on_c, 7, 69, 100
9, 22680, Note_on_c, 7, 69, 0
9, 22680, Note_on_c, 7, 71, 100
9, 22695, Note_on_c, 7, 71, 0
9, 22695, Note_on_c, 7, 69, 100
9, 22710, Note_on_c, 7, 69, 0
9, 22710, Note_on_c, 7, 71, 100
9, 22725, Note_on_c, 7, 71, 0
9, 22725, Note_on_c, 7, 69, 100
9, 22740, Note_on_c, 7, 69, 0
9, 22740, Note_on_c, 7, 71, 100
9, 22750, Note_on_c, 7, 71, 0
9, 22750, Note_on_c, 7, 69, 100
9, 22760, Note_on_c, 7, 69, 0
9, 22760, Note_on_c, 7, 71, 100
9, 22770, Note_on_c, 7, 71, 0
9, 22770, Note_on_c, 7, 69, 100
9, 22780, Note_on_c, 7, 69, 0
9, 22780, Note_on_c, 7, 67, 100
9, 22790, Note_on_c, 7, 67, 0
9, 22790, Note_on_c, 7, 69, 100
9, 22800, Note_on_c, 7, 69, 0
9, 22800, Note_on_c, 7, 67, 100
9, 22860, Note_on_c, 7, 67, 0
9, 22980, Note_on_c, 7, 67, 100
9, 23040, Note_on_c, 7, 67, 0
9, 23040, Note_on_c, 7, 67, 100
9, 23055, Note_on_c, 7, 67, 0
9, 23055, Note_on_c, 7, 69, 100
9, 23070, Note_on_c, 7, 69, 0
9, 23070, Note_on_c, 7, 67, 100
9, 23085, Note_on_c, 7, 67, 0
9, 23085, Note_on_c, 7, 69, 100
9, 23100, Note_on_c, 7, 69, 0
9, 23100, Note_on_c, 7, 67, 100
9, 23110, Note_on_c, 7, 67, 0
9, 23110, Note_on_c, 7, 69, 100
9, 23120, Note_on_c, 7, 69, 0
9, 23120, Note_on_c, 7, 67, 100
9, 23130, Note_on_c, 7, 67, 0
9, 23130, Note_on_c, 7, 69, 100
9, 23145, Note_on_c, 7, 69, 0
9, 23145, Note_on_c, 7, 67, 100
9, 23160, Note_on_c, 7, 67, 0
9, 23160, Note_on_c, 7, 66, 100
9, 23220, Note_on_c, 7, 66, 0
9, 24060, Note_on_c, 7, 77, 100
9, 24120, Note_on_c, 7, 77, 0
9, 24120, Note_on_c, 7, 76, 100
9, 24180, Note_on_c, 7, 76, 0
9, 24180, Note_on_c, 7, 69, 100
9, 24240, Note_on_c, 7, 69, 0
9, 24240, Note_on_c, 7, 68, 100
9, 24300, Note_on_c, 7, 68, 0
9, 24300, Note_on_c, 7, 69, 100
9, 24420, Note_on_c, 7, 69, 0
9, 26280, Note_on_c, 7, 74, 100
9, 26370, Note_on_c, 7, 74, 0
9, 26370, Note_on_c, 7, 78, 100
9, 26400, Note_on_c, 7, 78, 0
9, 26400, Note_on_c, 7, 83, 100
9, 26460, Note_on_c, 7, 83, 0
9, 26460, Note_on_c, 7, 83, 100
9, 26550, Note_on_c, 7, 83, 0
9, 26550, Note_on_c, 7, 82, 100
9, 26580, Note_on_c, 7, 82, 0
9, 26580, Note_on_c, 7, 83, 100
9, 26640, Note_on_c, 7, 83, 0
9, 26640, Note_on_c, 7, 71, 100
9, 26760, Note_on_c, 7, 71, 0
9, 27000, Note_on_c, 7, 76, 90
9, 27119, Note_on_c, 7, 76, 0
9, 27120, Note_on_c, 7, 74, 90
9, 27179, Note_on_c, 7, 74, 0
9, 27180, Note_on_c, 7, 74, 90
9, 27299, Note_on_c, 7, 74, 0
9, 27300, Note_on_c, 7, 73, 90
9, 27359, Note_on_c, 7, 73, 0
9, 27360, Note_on_c, 7, 74, 90
9, 27479, Note_on_c, 7, 74, 0
9, 27480, Note_on_c, 7, 71, 90
9, 27539, Note_on_c, 7, 71, 0
9, 27540, Note_on_c, 7, 66, 90
9, 27659, Note_on_c, 7, 66, 0
9, 27660, Note_on_c, 7, 71, 90
9, 27720, Note_on_c, 7, 71, 0
9, 27720, Note_on_c, 7, 71, 90
9, 27990, Note_on_c, 7, 71, 0
9, 27990, Note_on_c, 7, 70, 90
9, 28020, Note_on_c, 7, 70, 0
9, 28020, Note_on_c, 7, 68, 90
9, 28080, Note_on_c, 7, 68, 0
9, 28080, Note_on_c, 7, 70, 90
9, 28200, Note_on_c, 7, 70, 0
9, 28200, Note_on_c, 7, 73, 90
9, 28260, Note_on_c, 7, 73, 0
9, 28260, Note_on_c, 7, 66, 90
9, 28530, Note_on_c, 7, 66, 0
9, 28530, Note_on_c, 7, 79, 90
9, 28560, Note_on_c, 7, 79, 0
9, 28560, Note_on_c, 7, 78, 90
9, 28710, Note_on_c, 7, 78, 0
9, 28710, Note_on_c, 7, 71, 90
9, 28740, Note_on_c, 7, 71, 0
9, 28740, Note_on_c, 7, 70, 90
9, 28800, Note_on_c, 7, 70, 0
9, 28800, Note_on_c, 7, 71, 90
9, 28920, Note_on_c, 7, 71, 0
9, 29640, Note_on_c, 7, 68, 90
9, 29790, Note_on_c, 7, 68, 0
9, 29790, Note_on_c, 7, 66, 90
9, 29820, Note_on_c, 7, 66, 0
9, 29820, Note_on_c, 7, 68, 90
9, 29880, Note_on_c, 7, 68, 0
9, 29880, Note_on_c, 7, 69, 90
9, 30000, Note_on_c, 7, 69, 0
9, 30000, Note_on_c, 7, 72, 90
9, 30060, Note_on_c, 7, 72, 0
9, 30060, Note_on_c, 7, 72, 90
9, 30180, Note_on_c, 7, 72, 0
9, 30180, Note_on_c, 7, 75, 90
9, 30240, Note_on_c, 7, 75, 0
9, 30240, Note_on_c, 7, 75, 90
9, 30360, Note_on_c, 7, 75, 0
9, 30360, Note_on_c, 7, 74, 90
9, 30420, Note_on_c, 7, 74, 0
9, 31320, Note_on_c, 7, 71, 100
9, 31410, Note_on_c, 7, 71, 0
9, 31410, Note_on_c, 7, 74, 100
9, 31440, Note_on_c, 7, 74, 0
9, 31440, Note_on_c, 7, 79, 100
9, 31500, Note_on_c, 7, 79, 0
9, 31500, Note_on_c, 7, 79, 100
9, 31590, Note_on_c, 7, 79, 0
9, 31590, Note_on_c, 7, 78, 100
9, 31620, Note_on_c, 7, 78, 0
9, 31620, Note_on_c, 7, 79, 100
9, 31680, Note_on_c, 7, 79, 0
9, 31680, Note_on_c, 7, 69, 100
9, 31860, Note_on_c, 7, 69, 0
9, 31980, Note_on_c, 7, 69, 100
9, 32130, Note_on_c, 7, 69, 0
9, 32130, Note_on_c, 7, 71, 100
9, 32160, Note_on_c, 7, 71, 0
9, 32160, Note_on_c, 7, 69, 100
9, 32220, Note_on_c, 7, 69, 0
9, 32220, Note_on_c, 7, 67, 100
9, 32310, Note_on_c, 7, 67, 0
9, 32310, Note_on_c, 7, 71, 100
9, 32340, Note_on_c, 7, 71, 0
9, 32340, Note_on_c, 7, 74, 100
9, 32400, Note_on_c, 7, 74, 0
9, 32400, Note_on_c, 7, 74, 100
9, 32460, Note_on_c, 7, 74, 0
9, 32460, Note_on_c, 7, 76, 100
9, 32470, Note_on_c, 7, 76, 0
9, 32470, Note_on_c, 7, 74, 100
9, 32480, Note_on_c, 7, 74, 0
9, 32480, Note_on_c, 7, 76, 100
9, 32490, Note_on_c, 7, 76, 0
9, 32490, Note_on_c, 7, 74, 100
9, 32500, Note_on_c, 7, 74, 0
9, 32500, Note_on_c, 7, 76, 100
9, 32510, Note_on_c, 7, 76, 0
9, 32510, Note_on_c, 7, 74, 100
9, 32520, Note_on_c, 7, 74, 0
9, 32520, Note_on_c, 7, 72, 100
9, 32580, Note_on_c, 7, 72, 0
9, 32700, Note_on_c, 7, 72, 100
9, 32760, Note_on_c, 7, 72, 0
9, 32760, Note_on_c, 7, 72, 100
9, 32820, Note_on_c, 7, 72, 0
9, 32820, Note_on_c, 7, 74, 100
9, 32830, Note_on_c, 7, 74, 0
9, 32830, Note_on_c, 7, 72, 100
9, 32840, Note_on_c, 7, 72, 0
9, 32840, Note_on_c, 7, 74, 100
9, 32850, Note_on_c, 7, 74, 0
9, 32850, Note_on_c, 7, 72, 100
9, 32860, Note_on_c, 7, 72, 0
9, 32860, Note_on_c, 7, 74, 100
9, 32870, Note_on_c, 7, 74, 0
9, 32870, Note_on_c, 7, 72, 100
9, 32880, Note_on_c, 7, 72, 0
9, 32880, Note_on_c, 7, 71, 100
9, 32940, Note_on_c, 7, 71, 0
9, 33060, Note_on_c, 7, 71, 100
9, 33210, Note_on_c, 7, 71, 0
9, 33210, Note_on_c, 7, 72, 100
9, 33240, Note_on_c, 7, 72, 0
9, 33240, Note_on_c, 7, 69, 100
9, 33390, Note_on_c, 7, 69, 0
9, 33390, Note_on_c, 7, 71, 100
9, 33420, Note_on_c, 7, 71, 0
9, 33420, Note_on_c, 7, 67, 100
9, 33480, Note_on_c, 7, 67, 0
9, 33480, Note_on_c, 7, 69, 100
9, 33490, Note_on_c, 7, 69, 0
9, 33490, Note_on_c, 7, 67, 100
9, 33500, Note_on_c, 7, 67, 0
9, 33500, Note_on_c, 7, 69, 100
9, 33510, Note_on_c, 7, 69, 0
9, 33510, Note_on_c, 7, 67, 100
9, 33520, Note_on_c, 7, 67, 0
9, 33520, Note_on_c, 7, 69, 100
9, 33530, Note_on_c, 7, 69, 0
9, 33530, Note_on_c, 7, 67, 100
9, 33540, Note_on_c, 7, 67, 0
9, 33540, Note_on_c, 7, 69, 100
9, 33550, Note_on_c, 7, 69, 0
9, 33550, Note_on_c, 7, 67, 100
9, 33560, Note_on_c, 7, 67, 0
9, 33560, Note_on_c, 7, 69, 100
9, 33570, Note_on_c, 7, 69, 0
9, 33570, Note_on_c, 7, 67, 100
9, 33580, Note_on_c, 7, 67, 0
9, 33580, Note_on_c, 7, 69, 100
9, 33590, Note_on_c, 7, 69, 0
9, 33590, Note_on_c, 7, 67, 100
9, 33600, Note_on_c, 7, 67, 0
9, 33600, Note_on_c, 7, 66, 100
9, 33660, Note_on_c, 7, 66, 0
9, 34920, Note_on_c, 7, 67, 90
9, 35040, Note_on_c, 7, 67, 0
9, 35040, Note_on_c, 7, 71, 90
9, 35100, Note_on_c, 7, 71, 0
9, 35100, Note_on_c, 7, 71, 90
9, 35220, Note_on_c, 7, 71, 0
9, 35220, Note_on_c, 7, 76, 90
9, 35280, Note_on_c, 7, 76, 0
9, 35280, Note_on_c, 7, 76, 90
9, 35400, Note_on_c, 7, 76, 0
9, 36360, Note_on_c, 7, 67, 90
9, 36480, Note_on_c, 7, 67, 0
9, 36480, Note_on_c, 7, 74, 90
9, 36540, Note_on_c, 7, 74, 0
9, 36540, Note_on_c, 7, 71, 90
9, 36660, Note_on_c, 7, 71, 0
9, 36660, Note_on_c, 7, 72, 90
9, 36720, Note_on_c, 7, 72, 0
9, 36720, Note_on_c, 7, 72, 90
9, 36840, Note_on_c, 7, 72, 0
9, 37920, Note_on_c, 7, 72, 90
9, 37980, Note_on_c, 7, 72, 0
9, 37980, Note_on_c, 7, 76, 90
9, 38280, Note_on_c, 7, 76, 0
9, 38280, Note_on_c, 7, 69, 90
9, 38340, Note_on_c, 7, 69, 0
9, 38460, Note_on_c, 7, 73, 90
9, 38520, Note_on_c, 7, 73, 0
9, 38520, Note_on_c, 7, 69, 90
9, 38640, Note_on_c, 7, 69, 0
9, 38640, Note_on_c, 7, 74, 90
9, 38700, Note_on_c, 7, 74, 0
9, 38700, Note_on_c, 7, 84, 90
9, 39000, Note_on_c, 7, 84, 0
9, 39000, Note_on_c, 7, 76, 90
9, 39060, Note_on_c, 7, 76, 0
9, 39060, Note_on_c, 7, 81, 90
9, 39180, Note_on_c, 7, 81, 0
9, 39180, Note_on_c, 7, 79, 90
9, 39240, Note_on_c, 7, 79, 0
9, 39240, Note_on_c, 7, 78, 90
9, 39360, Note_on_c, 7, 78, 0
9, 39360, Note_on_c, 7, 81, 90
9, 39420, Note_on_c, 7, 81, 0
9, 39420, Note_on_c, 7, 86, 90
9, 39720, Note_on_c, 7, 86, 0
9, 39720, Note_on_c, 7, 79, 90
9, 39780, Note_on_c, 7, 79, 0
9, 39780, Note_on_c, 7, 79, 90
9, 39900, Note_on_c, 7, 79, 0
9, 39900, Note_on_c, 7, 78, 90
9, 39960, Note_on_c, 7, 78, 0
9, 39960, Note_on_c, 7, 79, 90
9, 40050, Note_on_c, 7, 79, 0
9, 40050, Note_on_c, 7, 67, 90
9, 40080, Note_on_c, 7, 67, 0
9, 40080, Note_on_c, 7, 76, 90
9, 40140, Note_on_c, 7, 76, 0
9, 40140, Note_on_c, 7, 74, 90
9, 40230, Note_on_c, 7, 74, 0
9, 40230, Note_on_c, 7, 76, 90
9, 40260, Note_on_c, 7, 76, 0
9, 40260, Note_on_c, 7, 72, 90
9, 40320, Note_on_c, 7, 72, 0
9, 40320, Note_on_c, 7, 74, 90
9, 40440, Note_on_c, 7, 74, 0
9, 40440, Note_on_c, 7, 67, 90
9, 40500, Note_on_c, 7, 67, 0
9, 40500, Note_on_c, 7, 67, 90
9, 40620, Note_on_c, 7, 67, 0
9, 40620, Note_on_c, 7, 66, 90
9, 40680, Note_on_c, 7, 66, 0
9, 40680, Note_on_c, 7, 62, 90
9, 40800, Note_on_c, 7, 62, 0
9, 41400, Note_on_c, 7, 71, 90
9, 41490, Note_on_c, 7, 71, 0
9, 41490, Note_on_c, 7, 74, 90
9, 41520, Note_on_c, 7, 74, 0
9, 41520, Note_on_c, 7, 79, 90
9, 41580, Note_on_c, 7, 79, 0
9, 41580, Note_on_c, 7, 79, 90
9, 41670, Note_on_c, 7, 79, 0
9, 41670, Note_on_c, 7, 78, 90
9, 41700, Note_on_c, 7, 78, 0
9, 41700, Note_on_c, 7, 79, 90
9, 41760, Note_on_c, 7, 79, 0
9, 41760, Note_on_c, 7, 67, 90
9, 41880, Note_on_c, 7, 67, 0
9, 42120, Note_on_c, 7, 79, 90
9, 42239, Note_on_c, 7, 79, 0
9, 42240, Note_on_c, 7, 76, 90
9, 42299, Note_on_c, 7, 76, 0
9, 42300, Note_on_c, 7, 76, 90
9, 42419, Note_on_c, 7, 76, 0
9, 42420, Note_on_c, 7, 81, 90
9, 42479, Note_on_c, 7, 81, 0
9, 42480, Note_on_c, 7, 74, 90
9, 42599, Note_on_c, 7, 74, 0
9, 42600, Note_on_c, 7, 74, 90
9, 42659, Note_on_c, 7, 74, 0
9, 42660, Note_on_c, 7, 79, 90
9, 42749, Note_on_c, 7, 79, 0
9, 42750, Note_on_c, 7, 78, 90
9, 42779, Note_on_c, 7, 78, 0
9, 42780, Note_on_c, 7, 79, 90
9, 42839, Note_on_c, 7, 79, 0
9, 42840, Note_on_c, 7, 76, 90
9, 42960, Note_on_c, 7, 76, 0
9, 42960, Note_on_c, 7, 69, 90
9, 43019, Note_on_c, 7, 69, 0
9, 43020, Note_on_c, 7, 73, 90
9, 43140, Note_on_c, 7, 73, 0
9, 43140, Note_on_c, 7, 76, 90
9, 43199, Note_on_c, 7, 76, 0
9, 43200, Note_on_c, 7, 74, 90
9, 43470, Note_on_c, 7, 74, 0
9, 43470, Note_on_c, 7, 76, 90
9, 43500, Note_on_c, 7, 76, 0
9, 43500, Note_on_c, 7, 78, 90
9, 43560, Note_on_c, 7, 78, 0
9, 43560, Note_on_c, 7, 67, 90
9, 43650, Note_on_c, 7, 67, 0
9, 43650, Note_on_c, 7, 76, 90
9, 43680, Note_on_c, 7, 76, 0
9, 43680, Note_on_c, 7, 74, 90
9, 43830, Note_on_c, 7, 74, 0
9, 43830, Note_on_c, 7, 81, 90
9, 43860, Note_on_c, 7, 81, 0
9, 43860, Note_on_c, 7, 78, 90
9, 43920, Note_on_c, 7, 78, 0
9, 43920, Note_on_c, 7, 74, 90
9, 44010, Note_on_c, 7, 74, 0
9, 44010, Note_on_c, 7, 72, 90
9, 44040, Note_on_c, 7, 72, 0
9, 44040, Note_on_c, 7, 71, 90
9, 44190, Note_on_c, 7, 71, 0
9, 44190, Note_on_c, 7, 62, 90
9, 44220, Note_on_c, 7, 62, 0
9, 44220, Note_on_c, 7, 60, 90
9, 44280, Note_on_c, 7, 60, 0
9, 44280, Note_on_c, 7, 62, 90
9, 44400, Note_on_c, 7, 62, 0
9, 44640, Note_on_c, 7, 74, 90
9, 45000, Note_on_c, 7, 74, 0
9, 50520, Note_on_c, 7, 62, 90
9, 50639, Note_on_c, 7, 62, 0
9, 50640, Note_on_c, 7, 64, 90
9, 50759, Note_on_c, 7, 64, 0
9, 50760, Note_on_c, 7, 66, 90
9, 50879, Note_on_c, 7, 66, 0
9, 50880, Note_on_c, 7, 62, 90
9, 50939, Note_on_c, 7, 62, 0
9, 50940, Note_on_c, 7, 64, 90
9, 50999, Note_on_c, 7, 64, 0
9, 51000, Note_on_c, 7, 66, 90
9, 51119, Note_on_c, 7, 66, 0
9, 51120, Note_on_c, 7, 64, 90
9, 51179, Note_on_c, 7, 64, 0
9, 51180, Note_on_c, 7, 66, 90
9, 51239, Note_on_c, 7, 66, 0
9, 51240, Note_on_c, 7, 67, 90
9, 51359, Note_on_c, 7, 67, 0
9, 51360, Note_on_c, 7, 66, 90
9, 51449, Note_on_c, 7, 66, 0
9, 51480, Note_on_c, 7, 66, 90
9, 51599, Note_on_c, 7, 66, 0
9, 51600, Note_on_c, 7, 64, 90
9, 51719, Note_on_c, 7, 64, 0
9, 51720, Note_on_c, 7, 62, 90
9, 51779, Note_on_c, 7, 62, 0
9, 51780, Note_on_c, 7, 64, 90
9, 51839, Note_on_c, 7, 64, 0
9, 51840, Note_on_c, 7, 66, 90
9, 51959, Note_on_c, 7, 66, 0
9, 51960, Note_on_c, 7, 67, 90
9, 52079, Note_on_c, 7, 67, 0
9, 52080, Note_on_c, 7, 67, 90
9, 52199, Note_on_c, 7, 67, 0
9, 52200, Note_on_c, 7, 66, 90
9, 52319, Note_on_c, 7, 66, 0
9, 52320, Note_on_c, 7, 62, 90
9, 52409, Note_on_c, 7, 62, 0
9, 52440, Note_on_c, 7, 62, 90
9, 52559, Note_on_c, 7, 62, 0
9, 52560, Note_on_c, 7, 64, 90
9, 52679, Note_on_c, 7, 64, 0
9, 52680, Note_on_c, 7, 66, 90
9, 52799, Note_on_c, 7, 66, 0
9, 52800, Note_on_c, 7, 62, 90
9, 52859, Note_on_c, 7, 62, 0
9, 52860, Note_on_c, 7, 64, 90
9, 52919, Note_on_c, 7, 64, 0
9, 52920, Note_on_c, 7, 66, 90
9, 53039, Note_on_c, 7, 66, 0
9, 53040, Note_on_c, 7, 64, 90
9, 53099, Note_on_c, 7, 64, 0
9, 53100, Note_on_c, 7, 66, 90
9, 53159, Note_on_c, 7, 66, 0
9, 53160, Note_on_c, 7, 67, 90
9, 53279, Note_on_c, 7, 67, 0
9, 53280, Note_on_c, 7, 66, 90
9, 53369, Note_on_c, 7, 66, 0
9, 53400, Note_on_c, 7, 66, 90
9, 53519, Note_on_c, 7, 66, 0
9, 53520, Note_on_c, 7, 64, 90
9, 53639, Note_on_c, 7, 64, 0
9, 53640, Note_on_c, 7, 62, 90
9, 53699, Note_on_c, 7, 62, 0
9, 53700, Note_on_c, 7, 64, 90
9, 53759, Note_on_c, 7, 64, 0
9, 53760, Note_on_c, 7, 66, 90
9, 53879, Note_on_c, 7, 66, 0
9, 53880, Note_on_c, 7, 67, 90
9, 53999, Note_on_c, 7, 67, 0
9, 54000, Note_on_c, 7, 67, 90
9, 54119, Note_on_c, 7, 67, 0
9, 54120, Note_on_c, 7, 66, 90
9, 54239, Note_on_c, 7, 66, 0
9, 54240, Note_on_c, 7, 62, 90
9, 54329, Note_on_c, 7, 62, 0
9, 54360, Note_on_c, 7, 66, 90
9, 54419, Note_on_c, 7, 66, 0
9, 54420, Note_on_c, 7, 67, 90
9, 54479, Note_on_c, 7, 67, 0
9, 54480, Note_on_c, 7, 69, 90
9, 54659, Note_on_c, 7, 69, 0
9, 54660, Note_on_c, 7, 68, 90
9, 54719, Note_on_c, 7, 68, 0
9, 54720, Note_on_c, 7, 69, 90
9, 54779, Note_on_c, 7, 69, 0
9, 54780, Note_on_c, 7, 68, 90
9, 54839, Note_on_c, 7, 68, 0
9, 54840, Note_on_c, 7, 69, 90
9, 54959, Note_on_c, 7, 69, 0
9, 54960, Note_on_c, 7, 69, 90
9, 55079, Note_on_c, 7, 69, 0
9, 55080, Note_on_c, 7, 68, 90
9, 55199, Note_on_c, 7, 68, 0
9, 55200, Note_on_c, 7, 64, 90
9, 55289, Note_on_c, 7, 64, 0
9, 55320, Note_on_c, 7, 64, 90
9, 55379, Note_on_c, 7, 64, 0
9, 55380, Note_on_c, 7, 63, 90
9, 55439, Note_on_c, 7, 63, 0
9, 55440, Note_on_c, 7, 64, 90
9, 55559, Note_on_c, 7, 64, 0
9, 55560, Note_on_c, 7, 64, 90
9, 55679, Note_on_c, 7, 64, 0
9, 55680, Note_on_c, 7, 64, 90
9, 55739, Note_on_c, 7, 64, 0
9, 55740, Note_on_c, 7, 66, 90
9, 55799, Note_on_c, 7, 66, 0
9, 55800, Note_on_c, 7, 67, 90
9, 55859, Note_on_c, 7, 67, 0
9, 55860, Note_on_c, 7, 66, 90
9, 55919, Note_on_c, 7, 66, 0
9, 55920, Note_on_c, 7, 66, 90
9, 55979, Note_on_c, 7, 66, 0
9, 55980, Note_on_c, 7, 67, 90
9, 56039, Note_on_c, 7, 67, 0
9, 56040, Note_on_c, 7, 69, 90
9, 56159, Note_on_c, 7, 69, 0
9, 56160, Note_on_c, 7, 67, 90
9, 56249, Note_on_c, 7, 67, 0
9, 56280, Note_on_c, 7, 69, 90
9, 56399, Note_on_c, 7, 69, 0
9, 56400, Note_on_c, 7, 67, 90
9, 56459, Note_on_c, 7, 67, 0
9, 56460, Note_on_c, 7, 69, 90
9, 56519, Note_on_c, 7, 69, 0
9, 56520, Note_on_c, 7, 71, 90
9, 56639, Note_on_c, 7, 71, 0
9, 56640, Note_on_c, 7, 71, 90
9, 56699, Note_on_c, 7, 71, 0
9, 56700, Note_on_c, 7, 69, 90
9, 56759, Note_on_c, 7, 69, 0
9, 56760, Note_on_c, 7, 69, 90
9, 56819, Note_on_c, 7, 69, 0
9, 56820, Note_on_c, 7, 67, 90
9, 56879, Note_on_c, 7, 67, 0
9, 56880, Note_on_c, 7, 67, 90
9, 57119, Note_on_c, 7, 67, 0
9, 57120, Note_on_c, 7, 66, 90
9, 57209, Note_on_c, 7, 66, 0
9, 57240, Note_on_c, 7, 67, 90
9, 57299, Note_on_c, 7, 67, 0
9, 57300, Note_on_c, 7, 66, 90
9, 57359, Note_on_c, 7, 66, 0
9, 57360, Note_on_c, 7, 64, 90
9, 57479, Note_on_c, 7, 64, 0
9, 57480, Note_on_c, 7, 66, 90
9, 57599, Note_on_c, 7, 66, 0
9, 57600, Note_on_c, 7, 67, 90
9, 57659, Note_on_c, 7, 67, 0
9, 57660, Note_on_c, 7, 69, 90
9, 57719, Note_on_c, 7, 69, 0
9, 57720, Note_on_c, 7, 62, 90
9, 57839, Note_on_c, 7, 62, 0
9, 57840, Note_on_c, 7, 64, 90
9, 57959, Note_on_c, 7, 64, 0
9, 57960, Note_on_c, 7, 62, 90
9, 58079, Note_on_c, 7, 62, 0
9, 58080, Note_on_c, 7, 62, 90
9, 58199, Note_on_c, 7, 62, 0
9, 58920, Note_on_c, 7, 78, 70
9, 59160, Note_on_c, 7, 78, 0
9, 59160, Note_on_c, 7, 76, 70
9, 59640, Note_on_c, 7, 76, 0
9, 59640, Note_on_c, 7, 67, 70
9, 59760, Note_on_c, 7, 67, 0
9, 59760, Note_on_c, 7, 66, 70
9, 60000, Note_on_c, 7, 66, 0
9, 60000, Note_on_c, 7, 71, 70
9, 60240, Note_on_c, 7, 71, 0
9, 60360, Note_on_c, 7, 69, 70
9, 60480, Note_on_c, 7, 69, 0
9, 60480, Note_on_c, 7, 69, 70
9, 60960, Note_on_c, 7, 69, 0
9, 60960, Note_on_c, 7, 70, 70
9, 61200, Note_on_c, 7, 70, 0
9, 61200, Note_on_c, 7, 66, 70
9, 61680, Note_on_c, 7, 66, 0
9, 61680, Note_on_c, 7, 64, 70
9, 61800, Note_on_c, 7, 64, 0
9, 61920, Note_on_c, 7, 61, 70
9, 62040, Note_on_c, 7, 61, 0
9, 62040, Note_on_c, 7, 62, 70
9, 62160, Note_on_c, 7, 62, 0
9, 93000, Note_on_c, 7, 67, 90
9, 93119, Note_on_c, 7, 67, 0
9, 93120, Note_on_c, 7, 67, 90
9, 93179, Note_on_c, 7, 67, 0
9, 93180, Note_on_c, 7, 65, 90
9, 93239, Note_on_c, 7, 65, 0
9, 93240, Note_on_c, 7, 64, 90
9, 93359, Note_on_c, 7, 64, 0
9, 93360, Note_on_c, 7, 66, 90
9, 93479, Note_on_c, 7, 66, 0
9, 93480, Note_on_c, 7, 64, 90
9, 93539, Note_on_c, 7, 64, 0
9, 93540, Note_on_c, 7, 62, 90
9, 93599, Note_on_c, 7, 62, 0
9, 93600, Note_on_c, 7, 60, 90
9, 93719, Note_on_c, 7, 60, 0
9, 93720, Note_on_c, 7, 62, 90
9, 93839, Note_on_c, 7, 62, 0
9, 93840, Note_on_c, 7, 64, 90
9, 93929, Note_on_c, 7, 64, 0
9, 93960, Note_on_c, 7, 64, 90
9, 94079, Note_on_c, 7, 64, 0
9, 94080, Note_on_c, 7, 64, 90
9, 94199, Note_on_c, 7, 64, 0
9, 94200, Note_on_c, 7, 64, 90
9, 94319, Note_on_c, 7, 64, 0
9, 94320, Note_on_c, 7, 62, 90
9, 94439, Note_on_c, 7, 62, 0
9, 94440, Note_on_c, 7, 60, 90
9, 94559, Note_on_c, 7, 60, 0
9, 94560, Note_on_c, 7, 60, 90
9, 94679, Note_on_c, 7, 60, 0
9, 94680, Note_on_c, 7, 60, 90
9, 94799, Note_on_c, 7, 60, 0
9, 94800, Note_on_c, 7, 60, 90
9, 94889, Note_on_c, 7, 60, 0
9, 94920, Note_on_c, 7, 60, 90
9, 95039, Note_on_c, 7, 60, 0
9, 95040, Note_on_c, 7, 60, 90
9, 95159, Note_on_c, 7, 60, 0
9, 95160, Note_on_c, 7, 65, 90
9, 95219, Note_on_c, 7, 65, 0
9, 95220, Note_on_c, 7, 64, 90
9, 95279, Note_on_c, 7, 64, 0
9, 95280, Note_on_c, 7, 62, 90
9, 95339, Note_on_c, 7, 62, 0
9, 95340, Note_on_c, 7, 60, 90
9, 95399, Note_on_c, 7, 60, 0
9, 95400, Note_on_c, 7, 59, 90
9, 95519, Note_on_c, 7, 59, 0
9, 95520, Note_on_c, 7, 57, 90
9, 95579, Note_on_c, 7, 57, 0
9, 95580, Note_on_c, 7, 64, 90
9, 95639, Note_on_c, 7, 64, 0
9, 95640, Note_on_c, 7, 65, 90
9, 95759, Note_on_c, 7, 65, 0
9, 95760, Note_on_c, 7, 64, 90
9, 95849, Note_on_c, 7, 64, 0
9, 95880, Note_on_c, 7, 69, 90
9, 95999, Note_on_c, 7, 69, 0
9, 96000, Note_on_c, 7, 69, 90
9, 96059, Note_on_c, 7, 69, 0
9, 96060, Note_on_c, 7, 67, 90
9, 96119, Note_on_c, 7, 67, 0
9, 96120, Note_on_c, 7, 65, 90
9, 96239, Note_on_c, 7, 65, 0
9, 96240, Note_on_c, 7, 64, 90
9, 96419, Note_on_c, 7, 64, 0
9, 96420, Note_on_c, 7, 62, 90
9, 96479, Note_on_c, 7, 62, 0
9, 96480, Note_on_c, 7, 60, 90
9, 96659, Note_on_c, 7, 60, 0
9, 96660, Note_on_c, 7, 59, 90
9, 96719, Note_on_c, 7, 59, 0
9, 96720, Note_on_c, 7, 55, 90
9, 96839, Note_on_c, 7, 55, 0
9, 101520, Note_on_c, 7, 62, 90
9, 101609, Note_on_c, 7, 62, 0
9, 101610, Note_on_c, 7, 64, 90
9, 101624, Note_on_c, 7, 64, 0
9, 101625, Note_on_c, 7, 65, 90
9, 101639, Note_on_c, 7, 65, 0
9, 101640, Note_on_c, 7, 64, 90
9, 101669, Note_on_c, 7, 64, 0
9, 101670, Note_on_c, 7, 62, 90
9, 101699, Note_on_c, 7, 62, 0
9, 101700, Note_on_c, 7, 60, 90
9, 101729, Note_on_c, 7, 60, 0
9, 101730, Note_on_c, 7, 59, 90
9, 101759, Note_on_c, 7, 59, 0
9, 101760, Note_on_c, 7, 60, 90
9, 101819, Note_on_c, 7, 60, 0
9, 101820, Note_on_c, 7, 57, 90
9, 101879, Note_on_c, 7, 57, 0
9, 101880, Note_on_c, 7, 59, 90
9, 101939, Note_on_c, 7, 59, 0
9, 101940, Note_on_c, 7, 62, 90
9, 101999, Note_on_c, 7, 62, 0
9, 102000, Note_on_c, 7, 55, 90
9, 102059, Note_on_c, 7, 55, 0
9, 102060, Note_on_c, 7, 59, 90
9, 102119, Note_on_c, 7, 59, 0
9, 102120, Note_on_c, 7, 62, 90
9, 102179, Note_on_c, 7, 62, 0
9, 102180, Note_on_c, 7, 65, 90
9, 102239, Note_on_c, 7, 65, 0
9, 102240, Note_on_c, 7, 64, 90
9, 102479, Note_on_c, 7, 64, 0
9, 102480, Note_on_c, 7, 66, 90
9, 103199, Note_on_c, 7, 66, 0
9, 103200, Note_on_c, 7, 67, 90
9, 103259, Note_on_c, 7, 67, 0
9, 103260, Note_on_c, 7, 66, 90
9, 103319, Note_on_c, 7, 66, 0
9, 103320, Note_on_c, 7, 67, 90
9, 103439, Note_on_c, 7, 67, 0
9, 103440, Note_on_c, 7, 59, 90
9, 103499, Note_on_c, 7, 59, 0
9, 103500, Note_on_c, 7, 60, 90
9, 103559, Note_on_c, 7, 60, 0
9, 103560, Note_on_c, 7, 60, 90
9, 103619, Note_on_c, 7, 60, 0
9, 103620, Note_on_c, 7, 57, 90
9, 103679, Note_on_c, 7, 57, 0
9, 103680, Note_on_c, 7, 57, 90
9, 103739, Note_on_c, 7, 57, 0
9, 103740, Note_on_c, 7, 59, 90
9, 103769, Note_on_c, 7, 59, 0
9, 103770, Note_on_c, 7, 57, 90
9, 103799, Note_on_c, 7, 57, 0
9, 103800, Note_on_c, 7, 59, 90
9, 103859, Note_on_c, 7, 59, 0
9, 103860, Note_on_c, 7, 59, 90
9, 103919, Note_on_c, 7, 59, 0
9, 103920, Note_on_c, 7, 59, 90
9, 103979, Note_on_c, 7, 59, 0
9, 103980, Note_on_c, 7, 60, 90
9, 104039, Note_on_c, 7, 60, 0
9, 104040, Note_on_c, 7, 60, 90
9, 104099, Note_on_c, 7, 60, 0
9, 104100, Note_on_c, 7, 62, 90
9, 104159, Note_on_c, 7, 62, 0
9, 104160, Note_on_c, 7, 62, 90
9, 104399, Note_on_c, 7, 62, 0
9, 104400, Note_on_c, 7, 60, 90
9, 104429, Note_on_c, 7, 60, 0
9, 104520, Note_on_c, 7, 64, 90
9, 104549, Note_on_c, 7, 64, 0
9, 104640, Note_on_c, 7, 66, 90
9, 104669, Note_on_c, 7, 66, 0
9, 104760, Note_on_c, 7, 66, 90
9, 104789, Note_on_c, 7, 66, 0
9, 104880, Note_on_c, 7, 64, 90
9, 104939, Note_on_c, 7, 64, 0
9, 104940, Note_on_c, 7, 67, 90
9, 104999, Note_on_c, 7, 67, 0
9, 105000, Note_on_c, 7, 67, 90
9, 105059, Note_on_c, 7, 67, 0
9, 105060, Note_on_c, 7, 66, 90
9, 105119, Note_on_c, 7, 66, 0
9, 105120, Note_on_c, 7, 67, 90
9, 105149, Note_on_c, 7, 67, 0
9, 105240, Note_on_c, 7, 67, 90
9, 105269, Note_on_c, 7, 67, 0
9, 105360, Note_on_c, 7, 66, 90
9, 105389, Note_on_c, 7, 66, 0
9, 105600, Note_on_c, 7, 66, 90
9, 105629, Note_on_c, 7, 66, 0
9, 105720, Note_on_c, 7, 69, 90
9, 105749, Note_on_c, 7, 69, 0
9, 105840, Note_on_c, 7, 74, 90
9, 105869, Note_on_c, 7, 74, 0
9, 106080, Note_on_c, 7, 71, 90
9, 106319, Note_on_c, 7, 71, 0
9, 106380, Note_on_c, 7, 69, 90
9, 106409, Note_on_c, 7, 69, 0
9, 106410, Note_on_c, 7, 68, 90
9, 106439, Note_on_c, 7, 68, 0
9, 106440, Note_on_c, 7, 69, 90
9, 106499, Note_on_c, 7, 69, 0
9, 106500, Note_on_c, 7, 67, 90
9, 106559, Note_on_c, 7, 67, 0
9, 106560, Note_on_c, 7, 64, 90
9, 106799, Note_on_c, 7, 64, 0
9, 106860, Note_on_c, 7, 62, 90
9, 106889, Note_on_c, 7, 62, 0
9, 106890, Note_on_c, 7, 61, 90
9, 106919, Note_on_c, 7, 61, 0
9, 106920, Note_on_c, 7, 62, 90
9, 106979, Note_on_c, 7, 62, 0
9, 106980, Note_on_c, 7, 60, 90
9, 107039, Note_on_c, 7, 60, 0
9, 107040, Note_on_c, 7, 57, 90
9, 107159, Note_on_c, 7, 57, 0
9, 107160, Note_on_c, 7, 69, 90
9, 107339, Note_on_c, 7, 69, 0
9, 107340, Note_on_c, 7, 67, 90
9, 107369, Note_on_c, 7, 67, 0
9, 107370, Note_on_c, 7, 66, 90
9, 107399, Note_on_c, 7, 66, 0
9, 107400, Note_on_c, 7, 67, 90
9, 107459, Note_on_c, 7, 67, 0
9, 107460, Note_on_c, 7, 67, 90
9, 107579, Note_on_c, 7, 67, 0
9, 107580, Note_on_c, 7, 67, 90
9, 107699, Note_on_c, 7, 67, 0
9, 107700, Note_on_c, 7, 66, 90
9, 107759, Note_on_c, 7, 66, 0
9, 107760, Note_on_c, 7, 67, 90
9, 107879, Note_on_c, 7, 67, 0
9, 107880, Note_on_c, 7, 66, 90
9, 107909, Note_on_c, 7, 66, 0
9, 107910, Note_on_c, 7, 64, 90
9, 107939, Note_on_c, 7, 64, 0
9, 107940, Note_on_c, 7, 62, 90
9, 107969, Note_on_c, 7, 62, 0
9, 107970, Note_on_c, 7, 60, 90
9, 107999, Note_on_c, 7, 60, 0
9, 108000, Note_on_c, 7, 60, 90
9, 108119, Note_on_c, 7, 60, 0
9, 108240, Note_on_c, 7, 62, 90
9, 108329, Note_on_c, 7, 62, 0
9, 108330, Note_on_c, 7, 64, 90
9, 108344, Note_on_c, 7, 64, 0
9, 108345, Note_on_c, 7, 65, 90
9, 108359, Note_on_c, 7, 65, 0
9, 108360, Note_on_c, 7, 64, 90
9, 108389, Note_on_c, 7, 64, 0
9, 108390, Note_on_c, 7, 62, 90
9, 108419, Note_on_c, 7, 62, 0
9, 108420, Note_on_c, 7, 60, 90
9, 108449, Note_on_c, 7, 60, 0
9, 108450, Note_on_c, 7, 59, 90
9, 108479, Note_on_c, 7, 59, 0
9, 108480, Note_on_c, 7, 60, 90
9, 108539, Note_on_c, 7, 60, 0
9, 108540, Note_on_c, 7, 57, 90
9, 108599, Note_on_c, 7, 57, 0
9, 108600, Note_on_c, 7, 59, 90
9, 108659, Note_on_c, 7, 59, 0
9, 108660, Note_on_c, 7, 62, 90
9, 108719, Note_on_c, 7, 62, 0
9, 108720, Note_on_c, 7, 55, 90
9, 108779, Note_on_c, 7, 55, 0
9, 108780, Note_on_c, 7, 59, 90
9, 108839, Note_on_c, 7, 59, 0
9, 108840, Note_on_c, 7, 62, 90
9, 108899, Note_on_c, 7, 62, 0
9, 108900, Note_on_c, 7, 65, 90
9, 108959, Note_on_c, 7, 65, 0
9, 108960, Note_on_c, 7, 71, 90
9, 109079, Note_on_c, 7, 71, 0
9, 109200, Note_on_c, 7, 64, 90
9, 109289, Note_on_c, 7, 64, 0
9, 109290, Note_on_c, 7, 65, 90
9, 109304, Note_on_c, 7, 65, 0
9, 109305, Note_on_c, 7, 67, 90
9, 109319, Note_on_c, 7, 67, 0
9, 109320, Note_on_c, 7, 65, 90
9, 109349, Note_on_c, 7, 65, 0
9, 109350, Note_on_c, 7, 64, 90
9, 109379, Note_on_c, 7, 64, 0
9, 109380, Note_on_c, 7, 62, 90
9, 109409, Note_on_c, 7, 62, 0
9, 109410, Note_on_c, 7, 60, 90
9, 109439, Note_on_c, 7, 60, 0
9, 109440, Note_on_c, 7, 62, 90
9, 109499, Note_on_c, 7, 62, 0
9, 109500, Note_on_c, 7, 59, 90
9, 109559, Note_on_c, 7, 59, 0
9, 109560, Note_on_c, 7, 60, 90
9, 109619, Note_on_c, 7, 60, 0
9, 109620, Note_on_c, 7, 56, 90
9, 109679, Note_on_c, 7, 56, 0
9, 109680, Note_on_c, 7, 57, 90
9, 109739, Note_on_c, 7, 57, 0
9, 109740, Note_on_c, 7, 60, 90
9, 109799, Note_on_c, 7, 60, 0
9, 109800, Note_on_c, 7, 64, 90
9, 109859, Note_on_c, 7, 64, 0
9, 109860, Note_on_c, 7, 69, 90
9, 109919, Note_on_c, 7, 69, 0
9, 109920, Note_on_c, 7, 72, 90
9, 110039, Note_on_c, 7, 72, 0
9, 110160, Note_on_c, 7, 66, 90
9, 110640, Note_on_c, 7, 66, 0
9, 110640, Note_on_c, 7, 62, 90
9, 111030, Note_on_c, 7, 62, 0
9, 111030, Note_on_c, 7, 60, 90
9, 111059, Note_on_c, 7, 60, 0
9, 111060, Note_on_c, 7, 59, 90
9, 111089, Note_on_c, 7, 59, 0
9, 111090, Note_on_c, 7, 57, 90
9, 111119, Note_on_c, 7, 57, 0
9, 111120, Note_on_c, 7, 59, 90
9, 111179, Note_on_c, 7, 59, 0
9, 111180, Note_on_c, 7, 60, 90
9, 111239, Note_on_c, 7, 60, 0
9, 111240, Note_on_c, 7, 60, 90
9, 111299, Note_on_c, 7, 60, 0
9, 111300, Note_on_c, 7, 57, 90
9, 111359, Note_on_c, 7, 57, 0
9, 111360, Note_on_c, 7, 57, 90
9, 111419, Note_on_c, 7, 57, 0
9, 111420, Note_on_c, 7, 59, 90
9, 111449, Note_on_c, 7, 59, 0
9, 111450, Note_on_c, 7, 57, 90
9, 111479, Note_on_c, 7, 57, 0
9, 111480, Note_on_c, 7, 59, 90
9, 111539, Note_on_c, 7, 59, 0
9, 111540, Note_on_c, 7, 59, 90
9, 111599, Note_on_c, 7, 59, 0
9, 111600, Note_on_c, 7, 59, 90
9, 111659, Note_on_c, 7, 59, 0
9, 111660, Note_on_c, 7, 60, 90
9, 111719, Note_on_c, 7, 60, 0
9, 111720, Note_on_c, 7, 60, 90
9, 111779, Note_on_c, 7, 60, 0
9, 111780, Note_on_c, 7, 62, 90
9, 111839, Note_on_c, 7, 62, 0
9, 111840, Note_on_c, 7, 62, 90
9, 112318, Note_on_c, 7, 62, 0
9, 112320, Note_on_c, 7, 60, 90
9, 112798, Note_on_c, 7, 60, 0
9, 112800, Note_on_c, 7, 60, 90
9, 112979, Note_on_c, 7, 60, 0
9, 112980, Note_on_c, 7, 59, 90
9, 113009, Note_on_c, 7, 59, 0
9, 113010, Note_on_c, 7, 60, 90
9, 113039, Note_on_c, 7, 60, 0
9, 113040, Note_on_c, 7, 62, 90
9, 113129, Note_on_c, 7, 62, 0
9, 113130, Note_on_c, 7, 64, 90
9, 113144, Note_on_c, 7, 64, 0
9, 113145, Note_on_c, 7, 65, 90
9, 113159, Note_on_c, 7, 65, 0
9, 113160, Note_on_c, 7, 64, 90
9, 113189, Note_on_c, 7, 64, 0
9, 113190, Note_on_c, 7, 62, 90
9, 113219, Note_on_c, 7, 62, 0
9, 113220, Note_on_c, 7, 60, 90
9, 113249, Note_on_c, 7, 60, 0
9, 113250, Note_on_c, 7, 59, 90
9, 113279, Note_on_c, 7, 59, 0
9, 113280, Note_on_c, 7, 60, 90
9, 113339, Note_on_c, 7, 60, 0
9, 113340, Note_on_c, 7, 57, 90
9, 113399, Note_on_c, 7, 57, 0
9, 113400, Note_on_c, 7, 59, 90
9, 113459, Note_on_c, 7, 59, 0
9, 113460, Note_on_c, 7, 55, 90
9, 113519, Note_on_c, 7, 55, 0
9, 113520, Note_on_c, 7, 62, 90
9, 113609, Note_on_c, 7, 62, 0
9, 113610, Note_on_c, 7, 64, 90
9, 113624, Note_on_c, 7, 64, 0
9, 113625, Note_on_c, 7, 65, 90
9, 113639, Note_on_c, 7, 65, 0
9, 113640, Note_on_c, 7, 64, 90
9, 113669, Note_on_c, 7, 64, 0
9, 113670, Note_on_c, 7, 62, 90
9, 113699, Note_on_c, 7, 62, 0
9, 113700, Note_on_c, 7, 60, 90
9, 113729, Note_on_c, 7, 60, 0
9, 113730, Note_on_c, 7, 59, 90
9, 113759, Note_on_c, 7, 59, 0
9, 113760, Note_on_c, 7, 64, 90
9, 113819, Note_on_c, 7, 64, 0
9, 113820, Note_on_c, 7, 69, 90
9, 113879, Note_on_c, 7, 69, 0
9, 113880, Note_on_c, 7, 64, 90
9, 113939, Note_on_c, 7, 64, 0
9, 113940, Note_on_c, 7, 61, 90
9, 113999, Note_on_c, 7, 61, 0
9, 114000, Note_on_c, 7, 57, 90
9, 114119, Note_on_c, 7, 57, 0
9, 114720, Note_on_c, 7, 62, 90
9, 114779, Note_on_c, 7, 62, 0
9, 114840, Note_on_c, 7, 62, 90
9, 114899, Note_on_c, 7, 62, 0
9, 114960, Note_on_c, 7, 57, 90
9, 115019, Note_on_c, 7, 57, 0
9, 115200, Note_on_c, 7, 61, 90
9, 115259, Note_on_c, 7, 61, 0
9, 115320, Note_on_c, 7, 64, 90
9, 115379, Note_on_c, 7, 64, 0
9, 115440, Note_on_c, 7, 69, 90
9, 115499, Note_on_c, 7, 69, 0
9, 115680, Note_on_c, 7, 66, 90
9, 115980, Note_on_c, 7, 66, 0
9, 115980, Note_on_c, 7, 64, 90
9, 116009, Note_on_c, 7, 64, 0
9, 116010, Note_on_c, 7, 63, 90
9, 116039, Note_on_c, 7, 63, 0
9, 116040, Note_on_c, 7, 64, 90
9, 116099, Note_on_c, 7, 64, 0
9, 116100, Note_on_c, 7, 62, 90
9, 116159, Note_on_c, 7, 62, 0
9, 116160, Note_on_c, 7, 59, 90
9, 116460, Note_on_c, 7, 59, 0
9, 116460, Note_on_c, 7, 57, 90
9, 116489, Note_on_c, 7, 57, 0
9, 116490, Note_on_c, 7, 56, 90
9, 116519, Note_on_c, 7, 56, 0
9, 116520, Note_on_c, 7, 57, 90
9, 116579, Note_on_c, 7, 57, 0
9, 116580, Note_on_c, 7, 67, 90
9, 116639, Note_on_c, 7, 67, 0
9, 116640, Note_on_c, 7, 64, 90
9, 116940, Note_on_c, 7, 64, 0
9, 116940, Note_on_c, 7, 62, 90
9, 116969, Note_on_c, 7, 62, 0
9, 116970, Note_on_c, 7, 61, 90
9, 116999, Note_on_c, 7, 61, 0
9, 117000, Note_on_c, 7, 62, 90
9, 117059, Note_on_c, 7, 62, 0
9, 117060, Note_on_c, 7, 62, 90
9, 117179, Note_on_c, 7, 62, 0
9, 117180, Note_on_c, 7, 67, 90
9, 117209, Note_on_c, 7, 67, 0
9, 117210, Note_on_c, 7, 66, 90
9, 117239, Note_on_c, 7, 66, 0
9, 117240, Note_on_c, 7, 64, 90
9, 117299, Note_on_c, 7, 64, 0
9, 117300, Note_on_c, 7, 69, 90
9, 117419, Note_on_c, 7, 69, 0
9, 117420, Note_on_c, 7, 74, 90
9, 117479, Note_on_c, 7, 74, 0
9, 117480, Note_on_c, 7, 73, 90
9, 117509, Note_on_c, 7, 73, 0
9, 117510, Note_on_c, 7, 71, 90
9, 117539, Note_on_c, 7, 71, 0
9, 117540, Note_on_c, 7, 69, 90
9, 117569, Note_on_c, 7, 69, 0
9, 117570, Note_on_c, 7, 67, 90
9, 117599, Note_on_c, 7, 67, 0
9, 117600, Note_on_c, 7, 66, 90
9, 117719, Note_on_c, 7, 66, 0
9, 117840, Note_on_c, 7, 69, 90
9, 117929, Note_on_c, 7, 69, 0
9, 117930, Note_on_c, 7, 71, 90
9, 117944, Note_on_c, 7, 71, 0
9, 117945, Note_on_c, 7, 72, 90
9, 117959, Note_on_c, 7, 72, 0
9, 117960, Note_on_c, 7, 71, 90
9, 117989, Note_on_c, 7, 71, 0
9, 117990, Note_on_c, 7, 69, 90
9, 118019, Note_on_c, 7, 69, 0
9, 118020, Note_on_c, 7, 67, 90
9, 118049, Note_on_c, 7, 67, 0
9, 118050, Note_on_c, 7, 66, 90
9, 118079, Note_on_c, 7, 66, 0
9, 118080, Note_on_c, 7, 67, 90
9, 118139, Note_on_c, 7, 67, 0
9, 118140, Note_on_c, 7, 64, 90
9, 118199, Note_on_c, 7, 64, 0
9, 118200, Note_on_c, 7, 57, 90
9, 118410, Note_on_c, 7, 57, 0
9, 118410, Note_on_c, 7, 59, 90
9, 118424, Note_on_c, 7, 59, 0
9, 118425, Note_on_c, 7, 60, 90
9, 118439, Note_on_c, 7, 60, 0
9, 118440, Note_on_c, 7, 59, 90
9, 118469, Note_on_c, 7, 59, 0
9, 118470, Note_on_c, 7, 57, 90
9, 118499, Note_on_c, 7, 57, 0
9, 118500, Note_on_c, 7, 55, 90
9, 118529, Note_on_c, 7, 55, 0
9, 118530, Note_on_c, 7, 59, 90
9, 118559, Note_on_c, 7, 59, 0
9, 118560, Note_on_c, 7, 57, 90
9, 118619, Note_on_c, 7, 57, 0
9, 118620, Note_on_c, 7, 66, 90
9, 118679, Note_on_c, 7, 66, 0
9, 118680, Note_on_c, 7, 67, 90
9, 118739, Note_on_c, 7, 67, 0
9, 118740, Note_on_c, 7, 69, 90
9, 118799, Note_on_c, 7, 69, 0
9, 118800, Note_on_c, 7, 62, 90
9, 118889, Note_on_c, 7, 62, 0
9, 118890, Note_on_c, 7, 64, 90
9, 118904, Note_on_c, 7, 64, 0
9, 118905, Note_on_c, 7, 65, 90
9, 118919, Note_on_c, 7, 65, 0
9, 118920, Note_on_c, 7, 64, 90
9, 118949, Note_on_c, 7, 64, 0
9, 118950, Note_on_c, 7, 62, 90
9, 118979, Note_on_c, 7, 62, 0
9, 118980, Note_on_c, 7, 60, 90
9, 119009, Note_on_c, 7, 60, 0
9, 119010, Note_on_c, 7, 59, 90
9, 119039, Note_on_c, 7, 59, 0
9, 119040, Note_on_c, 7, 60, 90
9, 119099, Note_on_c, 7, 60, 0
9, 119100, Note_on_c, 7, 57, 90
9, 119159, Note_on_c, 7, 57, 0
9, 119160, Note_on_c, 7, 62, 90
9, 119370, Note_on_c, 7, 62, 0
9, 119370, Note_on_c, 7, 64, 90
9, 119384, Note_on_c, 7, 64, 0
9, 119385, Note_on_c, 7, 65, 90
9, 119399, Note_on_c, 7, 65, 0
9, 119400, Note_on_c, 7, 64, 90
9, 119429, Note_on_c, 7, 64, 0
9, 119430, Note_on_c, 7, 62, 90
9, 119459, Note_on_c, 7, 62, 0
9, 119460, Note_on_c, 7, 60, 90
9, 119489, Note_on_c, 7, 60, 0
9, 119490, Note_on_c, 7, 64, 90
9, 119519, Note_on_c, 7, 64, 0
9, 119520, Note_on_c, 7, 62, 90
9, 119579, Note_on_c, 7, 62, 0
9, 119580, Note_on_c, 7, 59, 90
9, 119639, Note_on_c, 7, 59, 0
9, 119640, Note_on_c, 7, 60, 90
9, 119699, Note_on_c, 7, 60, 0
9, 119700, Note_on_c, 7, 62, 90
9, 119759, Note_on_c, 7, 62, 0
9, 119760, Note_on_c, 7, 55, 90
9, 119819, Note_on_c, 7, 55, 0
9, 120720, Note_on_c, 7, 60, 90
9, 120779, Note_on_c, 7, 60, 0
9, 120780, Note_on_c, 7, 64, 90
9, 120839, Note_on_c, 7, 64, 0
9, 120840, Note_on_c, 7, 64, 90
9, 120899, Note_on_c, 7, 64, 0
9, 120900, Note_on_c, 7, 69, 90
9, 120959, Note_on_c, 7, 69, 0
9, 120960, Note_on_c, 7, 69, 90
9, 121139, Note_on_c, 7, 69, 0
9, 121140, Note_on_c, 7, 67, 90
9, 121169, Note_on_c, 7, 67, 0
9, 121170, Note_on_c, 7, 66, 90
9, 121199, Note_on_c, 7, 66, 0
9, 121200, Note_on_c, 7, 67, 90
9, 121259, Note_on_c, 7, 67, 0
9, 121260, Note_on_c, 7, 67, 90
9, 121319, Note_on_c, 7, 67, 0
9, 121320, Note_on_c, 7, 67, 90
9, 121379, Note_on_c, 7, 67, 0
9, 121380, Note_on_c, 7, 66, 90
9, 121439, Note_on_c, 7, 66, 0
9, 121440, Note_on_c, 7, 67, 90
9, 121499, Note_on_c, 7, 67, 0
9, 121560, Note_on_c, 7, 64, 90
9, 121619, Note_on_c, 7, 64, 0
9, 121680, Note_on_c, 7, 57, 90
9, 121739, Note_on_c, 7, 57, 0
9, 121920, Note_on_c, 7, 66, 90
9, 121979, Note_on_c, 7, 66, 0
9, 122040, Note_on_c, 7, 69, 90
9, 122099, Note_on_c, 7, 69, 0
9, 122160, Note_on_c, 7, 62, 90
9, 122219, Note_on_c, 7, 62, 0
9, 122400, Note_on_c, 7, 71, 90
9, 122700, Note_on_c, 7, 71, 0
9, 122700, Note_on_c, 7, 69, 90
9, 122729, Note_on_c, 7, 69, 0
9, 122730, Note_on_c, 7, 68, 90
9, 122759, Note_on_c, 7, 68, 0
9, 122760, Note_on_c, 7, 69, 90
9, 122819, Note_on_c, 7, 69, 0
9, 122820, Note_on_c, 7, 67, 90
9, 122879, Note_on_c, 7, 67, 0
9, 122880, Note_on_c, 7, 64, 90
9, 123180, Note_on_c, 7, 64, 0
9, 123180, Note_on_c, 7, 62, 90
9, 123209, Note_on_c, 7, 62, 0
9, 123210, Note_on_c, 7, 61, 90
9, 123239, Note_on_c, 7, 61, 0
9, 123240, Note_on_c, 7, 62, 90
9, 123299, Note_on_c, 7, 62, 0
9, 123300, Note_on_c, 7, 67, 90
9, 123359, Note_on_c, 7, 67, 0
9, 123360, Note_on_c, 7, 66, 90
9, 123419, Note_on_c, 7, 66, 0
9, 123420, Note_on_c, 7, 67, 90
9, 123539, Note_on_c, 7, 67, 0
9, 123540, Note_on_c, 7, 69, 90
9, 123659, Note_on_c, 7, 69, 0
9, 123660, Note_on_c, 7, 67, 90
9, 123779, Note_on_c, 7, 67, 0
9, 123780, Note_on_c, 7, 72, 90
9, 123899, Note_on_c, 7, 72, 0
9, 124560, Note_on_c, 7, 62, 90
9, 124649, Note_on_c, 7, 62, 0
9, 124650, Note_on_c, 7, 64, 90
9, 124664, Note_on_c, 7, 64, 0
9, 124665, Note_on_c, 7, 65, 90
9, 124679, Note_on_c, 7, 65, 0
9, 124680, Note_on_c, 7, 64, 90
9, 124709, Note_on_c, 7, 64, 0
9, 124710, Note_on_c, 7, 62, 90
9, 124739, Note_on_c, 7, 62, 0
9, 124740, Note_on_c, 7, 60, 90
9, 124769, Note_on_c, 7, 60, 0
9, 124770, Note_on_c, 7, 59, 90
9, 124799, Note_on_c, 7, 59, 0
9, 124800, Note_on_c, 7, 60, 90
9, 124859, Note_on_c, 7, 60, 0
9, 124860, Note_on_c, 7, 57, 90
9, 124919, Note_on_c, 7, 57, 0
9, 124920, Note_on_c, 7, 59, 90
9, 124979, Note_on_c, 7, 59, 0
9, 124980, Note_on_c, 7, 62, 90
9, 125039, Note_on_c, 7, 62, 0
9, 125040, Note_on_c, 7, 55, 90
9, 125099, Note_on_c, 7, 55, 0
9, 125100, Note_on_c, 7, 59, 90
9, 125159, Note_on_c, 7, 59, 0
9, 125160, Note_on_c, 7, 62, 90
9, 125219, Note_on_c, 7, 62, 0
9, 125220, Note_on_c, 7, 65, 90
9, 125279, Note_on_c, 7, 65, 0
9, 125280, Note_on_c, 7, 64, 90
9, 125519, Note_on_c, 7, 64, 0
9, 125520, Note_on_c, 7, 66, 90
9, 126239, Note_on_c, 7, 66, 0
9, 126240, Note_on_c, 7, 67, 90
9, 126299, Note_on_c, 7, 67, 0
9, 126300, Note_on_c, 7, 66, 90
9, 126359, Note_on_c, 7, 66, 0
9, 126360, Note_on_c, 7, 67, 90
9, 126479, Note_on_c, 7, 67, 0
9, 126480, Note_on_c, 7, 59, 90
9, 126539, Note_on_c, 7, 59, 0
9, 126540, Note_on_c, 7, 60, 90
9, 126599, Note_on_c, 7, 60, 0
9, 126600, Note_on_c, 7, 60, 90
9, 126659, Note_on_c, 7, 60, 0
9, 126660, Note_on_c, 7, 57, 90
9, 126719, Note_on_c, 7, 57, 0
9, 126720, Note_on_c, 7, 57, 90
9, 126779, Note_on_c, 7, 57, 0
9, 126780, Note_on_c, 7, 59, 90
9, 126809, Note_on_c, 7, 59, 0
9, 126810, Note_on_c, 7, 57, 90
9, 126839, Note_on_c, 7, 57, 0
9, 126840, Note_on_c, 7, 59, 90
9, 126899, Note_on_c, 7, 59, 0
9, 126900, Note_on_c, 7, 59, 90
9, 126959, Note_on_c, 7, 59, 0
9, 126960, Note_on_c, 7, 59, 90
9, 127019, Note_on_c, 7, 59, 0
9, 127020, Note_on_c, 7, 60, 90
9, 127079, Note_on_c, 7, 60, 0
9, 127080, Note_on_c, 7, 60, 90
9, 127139, Note_on_c, 7, 60, 0
9, 127140, Note_on_c, 7, 62, 90
9, 127199, Note_on_c, 7, 62, 0
9, 127200, Note_on_c, 7, 62, 90
9, 127439, Note_on_c, 7, 62, 0
9, 127440, Note_on_c, 7, 60, 90
9, 127499, Note_on_c, 7, 60, 0
9, 127560, Note_on_c, 7, 64, 90
9, 127619, Note_on_c, 7, 64, 0
9, 127680, Note_on_c, 7, 66, 90
9, 127739, Note_on_c, 7, 66, 0
9, 127800, Note_on_c, 7, 66, 90
9, 127859, Note_on_c, 7, 66, 0
9, 127920, Note_on_c, 7, 64, 90
9, 127979, Note_on_c, 7, 64, 0
9, 127980, Note_on_c, 7, 67, 90
9, 128039, Note_on_c, 7, 67, 0
9, 128040, Note_on_c, 7, 67, 90
9, 128099, Note_on_c, 7, 67, 0
9, 128100, Note_on_c, 7, 66, 90
9, 128159, Note_on_c, 7, 66, 0
9, 128160, Note_on_c, 7, 62, 90
9, 128399, Note_on_c, 7, 62, 0
9, 128670, Note_on_c, 7, 63, 90
9, 128699, Note_on_c, 7, 63, 0
9, 128700, Note_on_c, 7, 64, 90
9, 128729, Note_on_c, 7, 64, 0
9, 128730, Note_on_c, 7, 66, 90
9, 128759, Note_on_c, 7, 66, 0
9, 128760, Note_on_c, 7, 59, 90
9, 128819, Note_on_c, 7, 59, 0
9, 129150, Note_on_c, 7, 63, 90
9, 129179, Note_on_c, 7, 63, 0
9, 129180, Note_on_c, 7, 64, 90
9, 129209, Note_on_c, 7, 64, 0
9, 129210, Note_on_c, 7, 66, 90
9, 129239, Note_on_c, 7, 66, 0
9, 129240, Note_on_c, 7, 59, 90
9, 129299, Note_on_c, 7, 59, 0
9, 130590, Note_on_c, 7, 68, 90
9, 130619, Note_on_c, 7, 68, 0
9, 130620, Note_on_c, 7, 69, 90
9, 130649, Note_on_c, 7, 69, 0
9, 130650, Note_on_c, 7, 71, 90
9, 130679, Note_on_c, 7, 71, 0
9, 130680, Note_on_c, 7, 64, 90
9, 130739, Note_on_c, 7, 64, 0
9, 131070, Note_on_c, 7, 71, 90
9, 131099, Note_on_c, 7, 71, 0
9, 131100, Note_on_c, 7, 72, 90
9, 131129, Note_on_c, 7, 72, 0
9, 131130, Note_on_c, 7, 74, 90
9, 131159, Note_on_c, 7, 74, 0
9, 131160, Note_on_c, 7, 68, 90
9, 131219, Note_on_c, 7, 68, 0
9, 132510, Note_on_c, 7, 66, 90
9, 132539, Note_on_c, 7, 66, 0
9, 132540, Note_on_c, 7, 67, 90
9, 132569, Note_on_c, 7, 67, 0
9, 132570, Note_on_c, 7, 69, 90
9, 132599, Note_on_c, 7, 69, 0
9, 132600, Note_on_c, 7, 63, 90
9, 132659, Note_on_c, 7, 63, 0
9, 133230, Note_on_c, 7, 69, 90
9, 133259, Note_on_c, 7, 69, 0
9, 133260, Note_on_c, 7, 71, 90
9, 133289, Note_on_c, 7, 71, 0
9, 133290, Note_on_c, 7, 72, 90
9, 133319, Note_on_c, 7, 72, 0
9, 133320, Note_on_c, 7, 63, 90
9, 133379, Note_on_c, 7, 63, 0
9, 133710, Note_on_c, 7, 66, 90
9, 133739, Note_on_c, 7, 66, 0
9, 133740, Note_on_c, 7, 67, 90
9, 133769, Note_on_c, 7, 67, 0
9, 133770, Note_on_c, 7, 69, 90
9, 133799, Note_on_c, 7, 69, 0
9, 133800, Note_on_c, 7, 63, 90
9, 133859, Note_on_c, 7, 63, 0
9, 134640, Note_on_c, 7, 67, 90
9, 134699, Note_on_c, 7, 67, 0
9, 134760, Note_on_c, 7, 64, 90
9, 134819, Note_on_c, 7, 64, 0
9, 134880, Note_on_c, 7, 59, 90
9, 134939, Note_on_c, 7, 59, 0
9, 135120, Note_on_c, 7, 63, 90
9, 135179, Note_on_c, 7, 63, 0
9, 135240, Note_on_c, 7, 59, 90
9, 135299, Note_on_c, 7, 59, 0
9, 135360, Note_on_c, 7, 64, 90
9, 135419, Note_on_c, 7, 64, 0
9, 135600, Note_on_c, 7, 65, 90
9, 135659, Note_on_c, 7, 65, 0
9, 135720, Note_on_c, 7, 64, 90
9, 135779, Note_on_c, 7, 64, 0
9, 135840, Note_on_c, 7, 76, 90
9, 135899, Note_on_c, 7, 76, 0
9, 135960, Note_on_c, 7, 74, 90
9, 136019, Note_on_c, 7, 74, 0
9, 136080, Note_on_c, 7, 71, 90
9, 136139, Note_on_c, 7, 71, 0
9, 136200, Note_on_c, 7, 72, 90
9, 136259, Note_on_c, 7, 72, 0
9, 136320, Note_on_c, 7, 69, 90
9, 136379, Note_on_c, 7, 69, 0
9, 136440, Note_on_c, 7, 71, 90
9, 136499, Note_on_c, 7, 71, 0
9, 136560, Note_on_c, 7, 67, 90
9, 136619, Note_on_c, 7, 67, 0
9, 136680, Note_on_c, 7, 64, 90
9, 136739, Note_on_c, 7, 64, 0
9, 136800, Note_on_c, 7, 71, 90
9, 136859, Note_on_c, 7, 71, 0
9, 138000, Note_on_c, 7, 62, 90
9, 138089, Note_on_c, 7, 62, 0
9, 138090, Note_on_c, 7, 64, 90
9, 138104, Note_on_c, 7, 64, 0
9, 138105, Note_on_c, 7, 65, 90
9, 138119, Note_on_c, 7, 65, 0
9, 138120, Note_on_c, 7, 64, 90
9, 138149, Note_on_c, 7, 64, 0
9, 138150, Note_on_c, 7, 62, 90
9, 138179, Note_on_c, 7, 62, 0
9, 138180, Note_on_c, 7, 60, 90
9, 138209, Note_on_c, 7, 60, 0
9, 138210, Note_on_c, 7, 59, 90
9, 138239, Note_on_c, 7, 59, 0
9, 138240, Note_on_c, 7, 60, 90
9, 138299, Note_on_c, 7, 60, 0
9, 138300, Note_on_c, 7, 57, 90
9, 138359, Note_on_c, 7, 57, 0
9, 138360, Note_on_c, 7, 59, 90
9, 138419, Note_on_c, 7, 59, 0
9, 138420, Note_on_c, 7, 62, 90
9, 138479, Note_on_c, 7, 62, 0
9, 138480, Note_on_c, 7, 55, 90
9, 138539, Note_on_c, 7, 55, 0
9, 138540, Note_on_c, 7, 59, 90
9, 138599, Note_on_c, 7, 59, 0
9, 138600, Note_on_c, 7, 62, 90
9, 138659, Note_on_c, 7, 62, 0
9, 138660, Note_on_c, 7, 65, 90
9, 138719, Note_on_c, 7, 65, 0
9, 138720, Note_on_c, 7, 64, 90
9, 138959, Note_on_c, 7, 64, 0
9, 138960, Note_on_c, 7, 66, 90
9, 139679, Note_on_c, 7, 66, 0
9, 139680, Note_on_c, 7, 67, 90
9, 139739, Note_on_c, 7, 67, 0
9, 139740, Note_on_c, 7, 66, 90
9, 139799, Note_on_c, 7, 66, 0
9, 139800, Note_on_c, 7, 67, 90
9, 139919, Note_on_c, 7, 67, 0
9, 139920, Note_on_c, 7, 59, 90
9, 139979, Note_on_c, 7, 59, 0
9, 139980, Note_on_c, 7, 60, 90
9, 140039, Note_on_c, 7, 60, 0
9, 140040, Note_on_c, 7, 60, 90
9, 140099, Note_on_c, 7, 60, 0
9, 140100, Note_on_c, 7, 57, 90
9, 140159, Note_on_c, 7, 57, 0
9, 140160, Note_on_c, 7, 57, 90
9, 140219, Note_on_c, 7, 57, 0
9, 140220, Note_on_c, 7, 59, 90
9, 140249, Note_on_c, 7, 59, 0
9, 140250, Note_on_c, 7, 57, 90
9, 140279, Note_on_c, 7, 57, 0
9, 140280, Note_on_c, 7, 59, 90
9, 140339, Note_on_c, 7, 59, 0
9, 140340, Note_on_c, 7, 59, 90
9, 140399, Note_on_c, 7, 59, 0
9, 140400, Note_on_c, 7, 59, 90
9, 140459, Note_on_c, 7, 59, 0
9, 140460, Note_on_c, 7, 60, 90
9, 140519, Note_on_c, 7, 60, 0
9, 140520, Note_on_c, 7, 60, 90
9, 140579, Note_on_c, 7, 60, 0
9, 140580, Note_on_c, 7, 62, 90
9, 140639, Note_on_c, 7, 62, 0
9, 140640, Note_on_c, 7, 62, 90
9, 140879, Note_on_c, 7, 62, 0
9, 140880, Note_on_c, 7, 60, 90
9, 140909, Note_on_c, 7, 60, 0
9, 141000, Note_on_c, 7, 64, 90
9, 141029, Note_on_c, 7, 64, 0
9, 141120, Note_on_c, 7, 66, 90
9, 141149, Note_on_c, 7, 66, 0
9, 141240, Note_on_c, 7, 66, 90
9, 141269, Note_on_c, 7, 66, 0
9, 141360, Note_on_c, 7, 64, 90
9, 141419, Note_on_c, 7, 64, 0
9, 141420, Note_on_c, 7, 67, 90
9, 141479, Note_on_c, 7, 67, 0
9, 141480, Note_on_c, 7, 67, 90
9, 141539, Note_on_c, 7, 67, 0
9, 141540, Note_on_c, 7, 66, 90
9, 141599, Note_on_c, 7, 66, 0
9, 141600, Note_on_c, 7, 67, 90
9, 141629, Note_on_c, 7, 67, 0
9, 141720, Note_on_c, 7, 67, 90
9, 141749, Note_on_c, 7, 67, 0
9, 141840, Note_on_c, 7, 66, 90
9, 141869, Note_on_c, 7, 66, 0
9, 142080, Note_on_c, 7, 66, 90
9, 142109, Note_on_c, 7, 66, 0
9, 142200, Note_on_c, 7, 69, 90
9, 142229, Note_on_c, 7, 69, 0
9, 142320, Note_on_c, 7, 74, 90
9, 142349, Note_on_c, 7, 74, 0
9, 142560, Note_on_c, 7, 71, 90
9, 142799, Note_on_c, 7, 71, 0
9, 142860, Note_on_c, 7, 69, 90
9, 142889, Note_on_c, 7, 69, 0
9, 142890, Note_on_c, 7, 68, 90
9, 142919, Note_on_c, 7, 68, 0
9, 142920, Note_on_c, 7, 69, 90
9, 142979, Note_on_c, 7, 69, 0
9, 142980, Note_on_c, 7, 67, 90
9, 143039, Note_on_c, 7, 67, 0
9, 143040, Note_on_c, 7, 64, 90
9, 143279, Note_on_c, 7, 64, 0
9, 143340, Note_on_c, 7, 62, 90
9, 143369, Note_on_c, 7, 62, 0
9, 143370, Note_on_c, 7, 61, 90
9, 143399, Note_on_c, 7, 61, 0
9, 143400, Note_on_c, 7, 62, 90
9, 143459, Note_on_c, 7, 62, 0
9, 143460, Note_on_c, 7, 60, 90
9, 143519, Note_on_c, 7, 60, 0
9, 143520, Note_on_c, 7, 57, 90
9, 143639, Note_on_c, 7, 57, 0
9, 143640, Note_on_c, 7, 69, 90
9, 143819, Note_on_c, 7, 69, 0
9, 143820, Note_on_c, 7, 67, 90
9, 143849, Note_on_c, 7, 67, 0
9, 143850, Note_on_c, 7, 66, 90
9, 143879, Note_on_c, 7, 66, 0
9, 143880, Note_on_c, 7, 67, 90
9, 143939, Note_on_c, 7, 67, 0
9, 143940, Note_on_c, 7, 67, 90
9, 144059, Note_on_c, 7, 67, 0
9, 144060, Note_on_c, 7, 67, 90
9, 144179, Note_on_c, 7, 67, 0
9, 144180, Note_on_c, 7, 66, 90
9, 144239, Note_on_c, 7, 66, 0
9, 144240, Note_on_c, 7, 67, 90
9, 144359, Note_on_c, 7, 67, 0
9, 144360, Note_on_c, 7, 66, 90
9, 144389, Note_on_c, 7, 66, 0
9, 144390, Note_on_c, 7, 64, 90
9, 144419, Note_on_c, 7, 64, 0
9, 144420, Note_on_c, 7, 62, 90
9, 144449, Note_on_c, 7, 62, 0
9, 144450, Note_on_c, 7, 60, 90
9, 144479, Note_on_c, 7, 60, 0
9, 144480, Note_on_c, 7, 60, 90
9, 144599, Note_on_c, 7, 60, 0
9, 144720, Note_on_c, 7, 62, 90
9, 144809, Note_on_c, 7, 62, 0
9, 144810, Note_on_c, 7, 64, 90
9, 144824, Note_on_c, 7, 64, 0
9, 144825, Note_on_c, 7, 65, 90
9, 144839, Note_on_c, 7, 65, 0
9, 144840, Note_on_c, 7, 64, 90
9, 144869, Note_on_c, 7, 64, 0
9, 144870, Note_on_c, 7, 62, 90
9, 144899, Note_on_c, 7, 62, 0
9, 144900, Note_on_c, 7, 60, 90
9, 144929, Note_on_c, 7, 60, 0
9, 144930, Note_on_c, 7, 59, 90
9, 144959, Note_on_c, 7, 59, 0
9, 144960, Note_on_c, 7, 60, 90
9, 145019, Note_on_c, 7, 60, 0
9, 145020, Note_on_c, 7, 57, 90
9, 145079, Note_on_c, 7, 57, 0
9, 145080, Note_on_c, 7, 59, 90
9, 145139, Note_on_c, 7, 59, 0
9, 145140, Note_on_c, 7, 62, 90
9, 145199, Note_on_c, 7, 62, 0
9, 145200, Note_on_c, 7, 55, 90
9, 145259, Note_on_c, 7, 55, 0
9, 145260, Note_on_c, 7, 59, 90
9, 145319, Note_on_c, 7, 59, 0
9, 145320, Note_on_c, 7, 62, 90
9, 145379, Note_on_c, 7, 62, 0
9, 145380, Note_on_c, 7, 65, 90
9, 145439, Note_on_c, 7, 65, 0
9, 145440, Note_on_c, 7, 71, 90
9, 145559, Note_on_c, 7, 71, 0
9, 145680, Note_on_c, 7, 64, 90
9, 145769, Note_on_c, 7, 64, 0
9, 145770, Note_on_c, 7, 65, 90
9, 145784, Note_on_c, 7, 65, 0
9, 145785, Note_on_c, 7, 67, 90
9, 145799, Note_on_c, 7, 67, 0
9, 145800, Note_on_c, 7, 65, 90
9, 145829, Note_on_c, 7, 65, 0
9, 145830, Note_on_c, 7, 64, 90
9, 145859, Note_on_c, 7, 64, 0
9, 145860, Note_on_c, 7, 62, 90
9, 145889, Note_on_c, 7, 62, 0
9, 145890, Note_on_c, 7, 60, 90
9, 145919, Note_on_c, 7, 60, 0
9, 145920, Note_on_c, 7, 62, 90
9, 145979, Note_on_c, 7, 62, 0
9, 145980, Note_on_c, 7, 59, 90
9, 146039, Note_on_c, 7, 59, 0
9, 146040, Note_on_c, 7, 60, 90
9, 146099, Note_on_c, 7, 60, 0
9, 146100, Note_on_c, 7, 56, 90
9, 146159, Note_on_c, 7, 56, 0
9, 146160, Note_on_c, 7, 57, 90
9, 146219, Note_on_c, 7, 57, 0
9, 146220, Note_on_c, 7, 60, 90
9, 146279, Note_on_c, 7, 60, 0
9, 146280, Note_on_c, 7, 64, 90
9, 146339, Note_on_c, 7, 64, 0
9, 146340, Note_on_c, 7, 69, 90
9, 146399, Note_on_c, 7, 69, 0
9, 146400, Note_on_c, 7, 72, 90
9, 146519, Note_on_c, 7, 72, 0
9, 146640, Note_on_c, 7, 66, 90
9, 147120, Note_on_c, 7, 66, 0
9, 147120, Note_on_c, 7, 62, 90
9, 147510, Note_on_c, 7, 62, 0
9, 147510, Note_on_c, 7, 60, 90
9, 147539, Note_on_c, 7, 60, 0
9, 147540, Note_on_c, 7, 59, 90
9, 147569, Note_on_c, 7, 59, 0
9, 147570, Note_on_c, 7, 57, 90
9, 147599, Note_on_c, 7, 57, 0
9, 147600, Note_on_c, 7, 59, 90
9, 147659, Note_on_c, 7, 59, 0
9, 147660, Note_on_c, 7, 60, 90
9, 147719, Note_on_c, 7, 60, 0
9, 147720, Note_on_c, 7, 60, 90
9, 147779, Note_on_c, 7, 60, 0
9, 147780, Note_on_c, 7, 57, 90
9, 147839, Note_on_c, 7, 57, 0
9, 147840, Note_on_c, 7, 57, 90
9, 147899, Note_on_c, 7, 57, 0
9, 147900, Note_on_c, 7, 59, 90
9, 147929, Note_on_c, 7, 59, 0
9, 147930, Note_on_c, 7, 57, 90
9, 147959, Note_on_c, 7, 57, 0
9, 147960, Note_on_c, 7, 59, 90
9, 148019, Note_on_c, 7, 59, 0
9, 148020, Note_on_c, 7, 59, 90
9, 148079, Note_on_c, 7, 59, 0
9, 148080, Note_on_c, 7, 59, 90
9, 148139, Note_on_c, 7, 59, 0
9, 148140, Note_on_c, 7, 60, 90
9, 148199, Note_on_c, 7, 60, 0
9, 148200, Note_on_c, 7, 60, 90
9, 148259, Note_on_c, 7, 60, 0
9, 148260, Note_on_c, 7, 62, 90
9, 148319, Note_on_c, 7, 62, 0
9, 148320, Note_on_c, 7, 62, 90
9, 148798, Note_on_c, 7, 62, 0
9, 148800, Note_on_c, 7, 60, 90
9, 149278, Note_on_c, 7, 60, 0
9, 149280, Note_on_c, 7, 60, 90
9, 149459, Note_on_c, 7, 60, 0
9, 149460, Note_on_c, 7, 59, 90
9, 149489, Note_on_c, 7, 59, 0
9, 149490, Note_on_c, 7, 60, 90
9, 149519, Note_on_c, 7, 60, 0
9, 149520, Note_on_c, 7, 62, 90
9, 149609, Note_on_c, 7, 62, 0
9, 149610, Note_on_c, 7, 64, 90
9, 149624, Note_on_c, 7, 64, 0
9, 149625, Note_on_c, 7, 65, 90
9, 149639, Note_on_c, 7, 65, 0
9, 149640, Note_on_c, 7, 64, 90
9, 149669, Note_on_c, 7, 64, 0
9, 149670, Note_on_c, 7, 62, 90
9, 149699, Note_on_c, 7, 62, 0
9, 149700, Note_on_c, 7, 60, 90
9, 149729, Note_on_c, 7, 60, 0
9, 149730, Note_on_c, 7, 59, 90
9, 149759, Note_on_c, 7, 59, 0
9, 149760, Note_on_c, 7, 60, 90
9, 149819, Note_on_c, 7, 60, 0
9, 149820, Note_on_c, 7, 57, 90
9, 149879, Note_on_c, 7, 57, 0
9, 149880, Note_on_c, 7, 59, 90
9, 149939, Note_on_c, 7, 59, 0
9, 149940, Note_on_c, 7, 55, 90
9, 149999, Note_on_c, 7, 55, 0
9, 150000, Note_on_c, 7, 62, 90
9, 150089, Note_on_c, 7, 62, 0
9, 150090, Note_on_c, 7, 64, 90
9, 150104, Note_on_c, 7, 64, 0
9, 150105, Note_on_c, 7, 65, 90
9, 150119, Note_on_c, 7, 65, 0
9, 150120, Note_on_c, 7, 64, 90
9, 150149, Note_on_c, 7, 64, 0
9, 150150, Note_on_c, 7, 62, 90
9, 150179, Note_on_c, 7, 62, 0
9, 150180, Note_on_c, 7, 60, 90
9, 150209, Note_on_c, 7, 60, 0
9, 150210, Note_on_c, 7, 59, 90
9, 150239, Note_on_c, 7, 59, 0
9, 150240, Note_on_c, 7, 64, 90
9, 150299, Note_on_c, 7, 64, 0
9, 150300, Note_on_c, 7, 69, 90
9, 150359, Note_on_c, 7, 69, 0
9, 150360, Note_on_c, 7, 64, 90
9, 150419, Note_on_c, 7, 64, 0
9, 150420, Note_on_c, 7, 61, 90
9, 150479, Note_on_c, 7, 61, 0
9, 150480, Note_on_c, 7, 57, 90
9, 150599, Note_on_c, 7, 57, 0
9, 151200, Note_on_c, 7, 62, 90
9, 151259, Note_on_c, 7, 62, 0
9, 151320, Note_on_c, 7, 62, 90
9, 151379, Note_on_c, 7, 62, 0
9, 151440, Note_on_c, 7, 57, 90
9, 151499, Note_on_c, 7, 57, 0
9, 151680, Note_on_c, 7, 61, 90
9, 151739, Note_on_c, 7, 61, 0
9, 151800, Note_on_c, 7, 64, 90
9, 151859, Note_on_c, 7, 64, 0
9, 151920, Note_on_c, 7, 69, 90
9, 151979, Note_on_c, 7, 69, 0
9, 152160, Note_on_c, 7, 66, 90
9, 152460, Note_on_c, 7, 66, 0
9, 152460, Note_on_c, 7, 64, 90
9, 152489, Note_on_c, 7, 64, 0
9, 152490, Note_on_c, 7, 63, 90
9, 152519, Note_on_c, 7, 63, 0
9, 152520, Note_on_c, 7, 64, 90
9, 152579, Note_on_c, 7, 64, 0
9, 152580, Note_on_c, 7, 62, 90
9, 152639, Note_on_c, 7, 62, 0
9, 152640, Note_on_c, 7, 59, 90
9, 152940, Note_on_c, 7, 59, 0
9, 152940, Note_on_c, 7, 57, 90
9, 152969, Note_on_c, 7, 57, 0
9, 152970, Note_on_c, 7, 56, 90
9, 152999, Note_on_c, 7, 56, 0
9, 153000, Note_on_c, 7, 57, 90
9, 153059, Note_on_c, 7, 57, 0
9, 153060, Note_on_c, 7, 67, 90
9, 153119, Note_on_c, 7, 67, 0
9, 153120, Note_on_c, 7, 64, 90
9, 153420, Note_on_c, 7, 64, 0
9, 153420, Note_on_c, 7, 62, 90
9, 153449, Note_on_c, 7, 62, 0
9, 153450, Note_on_c, 7, 61, 90
9, 153479, Note_on_c, 7, 61, 0
9, 153480, Note_on_c, 7, 62, 90
9, 153539, Note_on_c, 7, 62, 0
9, 153540, Note_on_c, 7, 62, 90
9, 153659, Note_on_c, 7, 62, 0
9, 153660, Note_on_c, 7, 67, 90
9, 153689, Note_on_c, 7, 67, 0
9, 153690, Note_on_c, 7, 66, 90
9, 153719, Note_on_c, 7, 66, 0
9, 153720, Note_on_c, 7, 64, 90
9, 153779, Note_on_c, 7, 64, 0
9, 153780, Note_on_c, 7, 69, 90
9, 153899, Note_on_c, 7, 69, 0
9, 153900, Note_on_c, 7, 74, 90
9, 153959, Note_on_c, 7, 74, 0
9, 153960, Note_on_c, 7, 73, 90
9, 153989, Note_on_c, 7, 73, 0
9, 153990, Note_on_c, 7, 71, 90
9, 154019, Note_on_c, 7, 71, 0
9, 154020, Note_on_c, 7, 69, 90
9, 154049, Note_on_c, 7, 69, 0
9, 154050, Note_on_c, 7, 67, 90
9, 154079, Note_on_c, 7, 67, 0
9, 154080, Note_on_c, 7, 66, 90
9, 154199, Note_on_c, 7, 66, 0
9, 154320, Note_on_c, 7, 69, 90
9, 154409, Note_on_c, 7, 69, 0
9, 154410, Note_on_c, 7, 71, 90
9, 154424, Note_on_c, 7, 71, 0
9, 154425, Note_on_c, 7, 72, 90
9, 154439, Note_on_c, 7, 72, 0
9, 154440, Note_on_c, 7, 71, 90
9, 154469, Note_on_c, 7, 71, 0
9, 154470, Note_on_c, 7, 69, 90
9, 154499, Note_on_c, 7, 69, 0
9, 154500, Note_on_c, 7, 67, 90
9, 154529, Note_on_c, 7, 67, 0
9, 154530, Note_on_c, 7, 66, 90
9, 154559, Note_on_c, 7, 66, 0
9, 154560, Note_on_c, 7, 67, 90
9, 154619, Note_on_c, 7, 67, 0
9, 154620, Note_on_c, 7, 64, 90
9, 154679, Note_on_c, 7, 64, 0
9, 154680, Note_on_c, 7, 57, 90
9, 154890, Note_on_c, 7, 57, 0
9, 154890, Note_on_c, 7, 59, 90
9, 154904, Note_on_c, 7, 59, 0
9, 154905, Note_on_c, 7, 60, 90
9, 154919, Note_on_c, 7, 60, 0
9, 154920, Note_on_c, 7, 59, 90
9, 154949, Note_on_c, 7, 59, 0
9, 154950, Note_on_c, 7, 57, 90
9, 154979, Note_on_c, 7, 57, 0
9, 154980, Note_on_c, 7, 55, 90
9, 155009, Note_on_c, 7, 55, 0
9, 155010, Note_on_c, 7, 59, 90
9, 155039, Note_on_c, 7, 59, 0
9, 155040, Note_on_c, 7, 57, 90
9, 155099, Note_on_c, 7, 57, 0
9, 155100, Note_on_c, 7, 66, 90
9, 155159, Note_on_c, 7, 66, 0
9, 155160, Note_on_c, 7, 67, 90
9, 155219, Note_on_c, 7, 67, 0
9, 155220, Note_on_c, 7, 69, 90
9, 155279, Note_on_c, 7, 69, 0
9, 155280, Note_on_c, 7, 62, 90
9, 155369, Note_on_c, 7, 62, 0
9, 155370, Note_on_c, 7, 64, 90
9, 155384, Note_on_c, 7, 64, 0
9, 155385, Note_on_c, 7, 65, 90
9, 155399, Note_on_c, 7, 65, 0
9, 155400, Note_on_c, 7, 64, 90
9, 155429, Note_on_c, 7, 64, 0
9, 155430, Note_on_c, 7, 62, 90
9, 155459, Note_on_c, 7, 62, 0
9, 155460, Note_on_c, 7, 60, 90
9, 155489, Note_on_c, 7, 60, 0
9, 155490, Note_on_c, 7, 59, 90
9, 155519, Note_on_c, 7, 59, 0
9, 155520, Note_on_c, 7, 60, 90
9, 155579, Note_on_c, 7, 60, 0
9, 155580, Note_on_c, 7, 57, 90
9, 155639, Note_on_c, 7, 57, 0
9, 155640, Note_on_c, 7, 62, 90
9, 155850, Note_on_c, 7, 62, 0
9, 155850, Note_on_c, 7, 64, 90
9, 155864, Note_on_c, 7, 64, 0
9, 155865, Note_on_c, 7, 65, 90
9, 155879, Note_on_c, 7, 65, 0
9, 155880, Note_on_c, 7, 64, 90
9, 155909, Note_on_c, 7, 64, 0
9, 155910, Note_on_c, 7, 62, 90
9, 155939, Note_on_c, 7, 62, 0
9, 155940, Note_on_c, 7, 60, 90
9, 155969, Note_on_c, 7, 60, 0
9, 155970, Note_on_c, 7, 64, 90
9, 155999, Note_on_c, 7, 64, 0
9, 156000, Note_on_c, 7, 62, 90
9, 156059, Note_on_c, 7, 62, 0
9, 156060, Note_on_c, 7, 59, 90
9, 156119, Note_on_c, 7, 59, 0
9, 156120, Note_on_c, 7, 60, 90
9, 156179, Note_on_c, 7, 60, 0
9, 156180, Note_on_c, 7, 62, 90
9, 156239, Note_on_c, 7, 62, 0
9, 156240, Note_on_c, 7, 55, 90
9, 156299, Note_on_c, 7, 55, 0
9, 157200, Note_on_c, 7, 60, 90
9, 157259, Note_on_c, 7, 60, 0
9, 157260, Note_on_c, 7, 64, 90
9, 157319, Note_on_c, 7, 64, 0
9, 157320, Note_on_c, 7, 64, 90
9, 157379, Note_on_c, 7, 64, 0
9, 157380, Note_on_c, 7, 69, 90
9, 157439, Note_on_c, 7, 69, 0
9, 157440, Note_on_c, 7, 69, 90
9, 157619, Note_on_c, 7, 69, 0
9, 157620, Note_on_c, 7, 67, 90
9, 157649, Note_on_c, 7, 67, 0
9, 157650, Note_on_c, 7, 66, 90
9, 157679, Note_on_c, 7, 66, 0
9, 157680, Note_on_c, 7, 67, 90
9, 157739, Note_on_c, 7, 67, 0
9, 157740, Note_on_c, 7, 67, 90
9, 157799, Note_on_c, 7, 67, 0
9, 157800, Note_on_c, 7, 67, 90
9, 157859, Note_on_c, 7, 67, 0
9, 157860, Note_on_c, 7, 66, 90
9, 157919, Note_on_c, 7, 66, 0
9, 157920, Note_on_c, 7, 67, 90
9, 157979, Note_on_c, 7, 67, 0
9, 158040, Note_on_c, 7, 64, 90
9, 158099, Note_on_c, 7, 64, 0
9, 158160, Note_on_c, 7, 57, 90
9, 158219, Note_on_c, 7, 57, 0
9, 158400, Note_on_c, 7, 66, 90
9, 158459, Note_on_c, 7, 66, 0
9, 158520, Note_on_c, 7, 69, 90
9, 158579, Note_on_c, 7, 69, 0
9, 158640, Note_on_c, 7, 62, 90
9, 158699, Note_on_c, 7, 62, 0
9, 158880, Note_on_c, 7, 71, 90
9, 159180, Note_on_c, 7, 71, 0
9, 159180, Note_on_c, 7, 69, 90
9, 159209, Note_on_c, 7, 69, 0
9, 159210, Note_on_c, 7, 68, 90
9, 159239, Note_on_c, 7, 68, 0
9, 159240, Note_on_c, 7, 69, 90
9, 159299, Note_on_c, 7, 69, 0
9, 159300, Note_on_c, 7, 67, 90
9, 159359, Note_on_c, 7, 67, 0
9, 159360, Note_on_c, 7, 64, 90
9, 159660, Note_on_c, 7, 64, 0
9, 159660, Note_on_c, 7, 62, 90
9, 159689, Note_on_c, 7, 62, 0
9, 159690, Note_on_c, 7, 61, 90
9, 159719, Note_on_c, 7, 61, 0
9, 159720, Note_on_c, 7, 62, 90
9, 159779, Note_on_c, 7, 62, 0
9, 159780, Note_on_c, 7, 67, 90
9, 159839, Note_on_c, 7, 67, 0
9, 159840, Note_on_c, 7, 66, 90
9, 159899, Note_on_c, 7, 66, 0
9, 159900, Note_on_c, 7, 67, 90
9, 160019, Note_on_c, 7, 67, 0
9, 160020, Note_on_c, 7, 69, 90
9, 160139, Note_on_c, 7, 69, 0
9, 160140, Note_on_c, 7, 67, 90
9, 160259, Note_on_c, 7, 67, 0
9, 160260, Note_on_c, 7, 72, 90
9, 160379, Note_on_c, 7, 72, 0
9, 161040, Note_on_c, 7, 62, 90
9, 161129, Note_on_c, 7, 62, 0
9, 161130, Note_on_c, 7, 64, 90
9, 161144, Note_on_c, 7, 64, 0
9, 161145, Note_on_c, 7, 65, 90
9, 161159, Note_on_c, 7, 65, 0
9, 161160, Note_on_c, 7, 64, 90
9, 161189, Note_on_c, 7, 64, 0
9, 161190, Note_on_c, 7, 62, 90
9, 161219, Note_on_c, 7, 62, 0
9, 161220, Note_on_c, 7, 60, 90
9, 161249, Note_on_c, 7, 60, 0
9, 161250, Note_on_c, 7, 59, 90
9, 161279, Note_on_c, 7, 59, 0
9, 161280, Note_on_c, 7, 60, 90
9, 161339, Note_on_c, 7, 60, 0
9, 161340, Note_on_c, 7, 57, 90
9, 161399, Note_on_c, 7, 57, 0
9, 161400, Note_on_c, 7, 59, 90
9, 161459, Note_on_c, 7, 59, 0
9, 161460, Note_on_c, 7, 62, 90
9, 161519, Note_on_c, 7, 62, 0
9, 161520, Note_on_c, 7, 55, 90
9, 161579, Note_on_c, 7, 55, 0
9, 161580, Note_on_c, 7, 59, 90
9, 161639, Note_on_c, 7, 59, 0
9, 161640, Note_on_c, 7, 62, 90
9, 161699, Note_on_c, 7, 62, 0
9, 161700, Note_on_c, 7, 65, 90
9, 161759, Note_on_c, 7, 65, 0
9, 161760, Note_on_c, 7, 64, 90
9, 161999, Note_on_c, 7, 64, 0
9, 162000, Note_on_c, 7, 66, 90
9, 162719, Note_on_c, 7, 66, 0
9, 162720, Note_on_c, 7, 67, 90
9, 162779, Note_on_c, 7, 67, 0
9, 162780, Note_on_c, 7, 66, 90
9, 162839, Note_on_c, 7, 66, 0
9, 162840, Note_on_c, 7, 67, 90
9, 162959, Note_on_c, 7, 67, 0
9, 162960, Note_on_c, 7, 59, 90
9, 163019, Note_on_c, 7, 59, 0
9, 163020, Note_on_c, 7, 60, 90
9, 163079, Note_on_c, 7, 60, 0
9, 163080, Note_on_c, 7, 60, 90
9, 163139, Note_on_c, 7, 60, 0
9, 163140, Note_on_c, 7, 57, 90
9, 163199, Note_on_c, 7, 57, 0
9, 163200, Note_on_c, 7, 57, 90
9, 163259, Note_on_c, 7, 57, 0
9, 163260, Note_on_c, 7, 59, 90
9, 163289, Note_on_c, 7, 59, 0
9, 163290, Note_on_c, 7, 57, 90
9, 163319, Note_on_c, 7, 57, 0
9, 163320, Note_on_c, 7, 59, 90
9, 163379, Note_on_c, 7, 59, 0
9, 163380, Note_on_c, 7, 59, 90
9, 163439, Note_on_c, 7, 59, 0
9, 163440, Note_on_c, 7, 59, 90
9, 163499, Note_on_c, 7, 59, 0
9, 163500, Note_on_c, 7, 60, 90
9, 163559, Note_on_c, 7, 60, 0
9, 163560, Note_on_c, 7, 60, 90
9, 163619, Note_on_c, 7, 60, 0
9, 163620, Note_on_c, 7, 62, 90
9, 163679, Note_on_c, 7, 62, 0
9, 163680, Note_on_c, 7, 62, 90
9, 163919, Note_on_c, 7, 62, 0
9, 163920, Note_on_c, 7, 60, 90
9, 163979, Note_on_c, 7, 60, 0
9, 164040, Note_on_c, 7, 64, 90
9, 164099, Note_on_c, 7, 64, 0
9, 164160, Note_on_c, 7, 66, 90
9, 164219, Note_on_c, 7, 66, 0
9, 164280, Note_on_c, 7, 66, 90
9, 164339, Note_on_c, 7, 66, 0
9, 164400, Note_on_c, 7, 64, 90
9, 164459, Note_on_c, 7, 64, 0
9, 164460, Note_on_c, 7, 67, 90
9, 164519, Note_on_c, 7, 67, 0
9, 164520, Note_on_c, 7, 67, 90
9, 164579, Note_on_c, 7, 67, 0
9, 164580, Note_on_c, 7, 66, 90
9, 164639, Note_on_c, 7, 66, 0
9, 164640, Note_on_c, 7, 62, 90
9, 164879, Note_on_c, 7, 62, 0
9, 167400, Note_on_c, 7, 74, 90
9, 167460, Note_on_c, 7, 74, 0
9, 167580, Note_on_c, 7, 76, 90
9, 167610, Note_on_c, 7, 76, 0
9, 167640, Note_on_c, 7, 74, 90
9, 167670, Note_on_c, 7, 74, 0
9, 167820, Note_on_c, 7, 66, 90
9, 167850, Note_on_c, 7, 66, 0
9, 167880, Note_on_c, 7, 67, 90
9, 167910, Note_on_c, 7, 67, 0
9, 168060, Note_on_c, 7, 66, 90
9, 168090, Note_on_c, 7, 66, 0
9, 168120, Note_on_c, 7, 67, 90
9, 168150, Note_on_c, 7, 67, 0
9, 168300, Note_on_c, 7, 67, 90
9, 168330, Note_on_c, 7, 67, 0
9, 168360, Note_on_c, 7, 62, 90
9, 168390, Note_on_c, 7, 62, 0
9, 168540, Note_on_c, 7, 66, 90
9, 168570, Note_on_c, 7, 66, 0
9, 168600, Note_on_c, 7, 71, 90
9, 168630, Note_on_c, 7, 71, 0
9, 168780, Note_on_c, 7, 71, 90
9, 168810, Note_on_c, 7, 71, 0
9, 168840, Note_on_c, 7, 66, 90
9, 168870, Note_on_c, 7, 66, 0
9, 169020, Note_on_c, 7, 74, 90
9, 169050, Note_on_c, 7, 74, 0
9, 169080, Note_on_c, 7, 71, 90
9, 169110, Note_on_c, 7, 71, 0
9, 169260, Note_on_c, 7, 73, 90
9, 169290, Note_on_c, 7, 73, 0
9, 169320, Note_on_c, 7, 69, 90
9, 169350, Note_on_c, 7, 69, 0
9, 169500, Note_on_c, 7, 72, 90
9, 169530, Note_on_c, 7, 72, 0
9, 169560, Note_on_c, 7, 69, 90
9, 169590, Note_on_c, 7, 69, 0
9, 169740, Note_on_c, 7, 73, 90
9, 169770, Note_on_c, 7, 73, 0
9, 169800, Note_on_c, 7, 71, 90
9, 169830, Note_on_c, 7, 71, 0
9, 169980, Note_on_c, 7, 69, 90
9, 170010, Note_on_c, 7, 69, 0
9, 170040, Note_on_c, 7, 69, 90
9, 170070, Note_on_c, 7, 69, 0
9, 170220, Note_on_c, 7, 62, 90
9, 170250, Note_on_c, 7, 62, 0
9, 170280, Note_on_c, 7, 69, 90
9, 170310, Note_on_c, 7, 69, 0
9, 170460, Note_on_c, 7, 69, 90
9, 170490, Note_on_c, 7, 69, 0
9, 170520, Note_on_c, 7, 71, 90
9, 170550, Note_on_c, 7, 71, 0
9, 170700, Note_on_c, 7, 71, 90
9, 170730, Note_on_c, 7, 71, 0
9, 170760, Note_on_c, 7, 64, 90
9, 170790, Note_on_c, 7, 64, 0
9, 170940, Note_on_c, 7, 66, 90
9, 170970, Note_on_c, 7, 66, 0
9, 171000, Note_on_c, 7, 64, 90
9, 171030, Note_on_c, 7, 64, 0
9, 171240, Note_on_c, 7, 66, 90
9, 171300, Note_on_c, 7, 66, 0
9, 171420, Note_on_c, 7, 69, 90
9, 171450, Note_on_c, 7, 69, 0
9, 171480, Note_on_c, 7, 67, 90
9, 171510, Note_on_c, 7, 67, 0
9, 171660, Note_on_c, 7, 71, 90
9, 171690, Note_on_c, 7, 71, 0
9, 171720, Note_on_c, 7, 72, 90
9, 171750, Note_on_c, 7, 72, 0
9, 171900, Note_on_c, 7, 72, 90
9, 171930, Note_on_c, 7, 72, 0
9, 171960, Note_on_c, 7, 71, 90
9, 171990, Note_on_c, 7, 71, 0
9, 172200, Note_on_c, 7, 71, 90
9, 172260, Note_on_c, 7, 71, 0
9, 172380, Note_on_c, 7, 72, 90
9, 172410, Note_on_c, 7, 72, 0
9, 172440, Note_on_c, 7, 71, 90
9, 172470, Note_on_c, 7, 71, 0
9, 172620, Note_on_c, 7, 72, 90
9, 172650, Note_on_c, 7, 72, 0
9, 172680, Note_on_c, 7, 71, 90
9, 172710, Note_on_c, 7, 71, 0
9, 172860, Note_on_c, 7, 71, 90
9, 172890, Note_on_c, 7, 71, 0
9, 172920, Note_on_c, 7, 72, 90
9, 172950, Note_on_c, 7, 72, 0
9, 173100, Note_on_c, 7, 69, 90
9, 173130, Note_on_c, 7, 69, 0
9, 173160, Note_on_c, 7, 67, 90
9, 173190, Note_on_c, 7, 67, 0
9, 173340, Note_on_c, 7, 69, 90
9, 173370, Note_on_c, 7, 69, 0
9, 173400, Note_on_c, 7, 66, 90
9, 173430, Note_on_c, 7, 66, 0
9, 173580, Note_on_c, 7, 71, 90
9, 173610, Note_on_c, 7, 71, 0
9, 173640, Note_on_c, 7, 69, 90
9, 173670, Note_on_c, 7, 69, 0
9, 173820, Note_on_c, 7, 71, 90
9, 173850, Note_on_c, 7, 71, 0
9, 173880, Note_on_c, 7, 71, 90
9, 173910, Note_on_c, 7, 71, 0
9, 174060, Note_on_c, 7, 69, 90
9, 174090, Note_on_c, 7, 69, 0
9, 174120, Note_on_c, 7, 69, 90
9, 174150, Note_on_c, 7, 69, 0
9, 174300, Note_on_c, 7, 71, 90
9, 174330, Note_on_c, 7, 71, 0
9, 174360, Note_on_c, 7, 72, 90
9, 174390, Note_on_c, 7, 72, 0
9, 174540, Note_on_c, 7, 72, 90
9, 174570, Note_on_c, 7, 72, 0
9, 174600, Note_on_c, 7, 66, 90
9, 174630, Note_on_c, 7, 66, 0
9, 174780, Note_on_c, 7, 64, 90
9, 174810, Note_on_c, 7, 64, 0
9, 174840, Note_on_c, 7, 71, 90
9, 174870, Note_on_c, 7, 71, 0
9, 175080, Note_on_c, 7, 67, 90
9, 175140, Note_on_c, 7, 67, 0
9, 175260, Note_on_c, 7, 67, 90
9, 175290, Note_on_c, 7, 67, 0
9, 175320, Note_on_c, 7, 66, 90
9, 175350, Note_on_c, 7, 66, 0
9, 175500, Note_on_c, 7, 64, 90
9, 175530, Note_on_c, 7, 64, 0
9, 175560, Note_on_c, 7, 71, 90
9, 175590, Note_on_c, 7, 71, 0
9, 175740, Note_on_c, 7, 71, 90
9, 175770, Note_on_c, 7, 71, 0
9, 175800, Note_on_c, 7, 69, 90
9, 175830, Note_on_c, 7, 69, 0
9, 176040, Note_on_c, 7, 69, 90
9, 176100, Note_on_c, 7, 69, 0
9, 176220, Note_on_c, 7, 69, 90
9, 176250, Note_on_c, 7, 69, 0
9, 176280, Note_on_c, 7, 67, 90
9, 176310, Note_on_c, 7, 67, 0
9, 176460, Note_on_c, 7, 71, 90
9, 176490, Note_on_c, 7, 71, 0
9, 176520, Note_on_c, 7, 69, 90
9, 176550, Note_on_c, 7, 69, 0
9, 176700, Note_on_c, 7, 71, 90
9, 176730, Note_on_c, 7, 71, 0
9, 176760, Note_on_c, 7, 67, 90
9, 176790, Note_on_c, 7, 67, 0
9, 176940, Note_on_c, 7, 66, 90
9, 176970, Note_on_c, 7, 66, 0
9, 177000, Note_on_c, 7, 71, 90
9, 177030, Note_on_c, 7, 71, 0
9, 177180, Note_on_c, 7, 67, 90
9, 177210, Note_on_c, 7, 67, 0
9, 177240, Note_on_c, 7, 66, 90
9, 177270, Note_on_c, 7, 66, 0
9, 177420, Note_on_c, 7, 71, 90
9, 177450, Note_on_c, 7, 71, 0
9, 177480, Note_on_c, 7, 67, 90
9, 177510, Note_on_c, 7, 67, 0
9, 177660, Note_on_c, 7, 70, 90
9, 177690, Note_on_c, 7, 70, 0
9, 177720, Note_on_c, 7, 71, 90
9, 177750, Note_on_c, 7, 71, 0
9, 177900, Note_on_c, 7, 59, 90
9, 177930, Note_on_c, 7, 59, 0
9, 177960, Note_on_c, 7, 66, 90
9, 177990, Note_on_c, 7, 66, 0
9, 178140, Note_on_c, 7, 62, 90
9, 178170, Note_on_c, 7, 62, 0
9, 178200, Note_on_c, 7, 74, 90
9, 178230, Note_on_c, 7, 74, 0
9, 178380, Note_on_c, 7, 71, 90
9, 178410, Note_on_c, 7, 71, 0
9, 178440, Note_on_c, 7, 66, 90
9, 178470, Note_on_c, 7, 66, 0
9, 178620, Note_on_c, 7, 67, 90
9, 178650, Note_on_c, 7, 67, 0
9, 178680, Note_on_c, 7, 61, 90
9, 178710, Note_on_c, 7, 61, 0
9, 178860, Note_on_c, 7, 75, 90
9, 178919, Note_on_c, 7, 75, 0
9, 178920, Note_on_c, 7, 71, 90
9, 178979, Note_on_c, 7, 71, 0
9, 178980, Note_on_c, 7, 67, 90
9, 179039, Note_on_c, 7, 67, 0
9, 179100, Note_on_c, 7, 67, 90
9, 179159, Note_on_c, 7, 67, 0
9, 179160, Note_on_c, 7, 69, 90
9, 179219, Note_on_c, 7, 69, 0
9, 179220, Note_on_c, 7, 67, 90
9, 179279, Note_on_c, 7, 67, 0
9, 179340, Note_on_c, 7, 66, 90
9, 179399, Note_on_c, 7, 66, 0
9, 179400, Note_on_c, 7, 67, 90
9, 179459, Note_on_c, 7, 67, 0
9, 179460, Note_on_c, 7, 64, 90
9, 179519, Note_on_c, 7, 64, 0
9, 179580, Note_on_c, 7, 66, 90
9, 179639, Note_on_c, 7, 66, 0
9, 179640, Note_on_c, 7, 69, 90
9, 179699, Note_on_c, 7, 69, 0
9, 179700, Note_on_c, 7, 63, 90
9, 179759, Note_on_c, 7, 63, 0
9, 179820, Note_on_c, 7, 66, 90
9, 179879, Note_on_c, 7, 66, 0
9, 179880, Note_on_c, 7, 68, 90
9, 179939, Note_on_c, 7, 68, 0
9, 179940, Note_on_c, 7, 64, 90
9, 179999, Note_on_c, 7, 64, 0
9, 180060, Note_on_c, 7, 60, 90
9, 180119, Note_on_c, 7, 60, 0
9, 180120, Note_on_c, 7, 62, 90
9, 180179, Note_on_c, 7, 62, 0
9, 180180, Note_on_c, 7, 60, 90
9, 180239, Note_on_c, 7, 60, 0
9, 180300, Note_on_c, 7, 59, 90
9, 180359, Note_on_c, 7, 59, 0
9, 180360, Note_on_c, 7, 60, 90
9, 180419, Note_on_c, 7, 60, 0
9, 180420, Note_on_c, 7, 57, 90
9, 180479, Note_on_c, 7, 57, 0
9, 180540, Note_on_c, 7, 64, 90
9, 180599, Note_on_c, 7, 64, 0
9, 180600, Note_on_c, 7, 71, 90
9, 180659, Note_on_c, 7, 71, 0
9, 180660, Note_on_c, 7, 64, 90
9, 180719, Note_on_c, 7, 64, 0
9, 180780, Note_on_c, 7, 59, 90
9, 180839, Note_on_c, 7, 59, 0
9, 180840, Note_on_c, 7, 61, 90
9, 180899, Note_on_c, 7, 61, 0
9, 180900, Note_on_c, 7, 69, 90
9, 180959, Note_on_c, 7, 69, 0
9, 181020, Note_on_c, 7, 70, 90
9, 181079, Note_on_c, 7, 70, 0
9, 181080, Note_on_c, 7, 64, 90
9, 181139, Note_on_c, 7, 64, 0
9, 181140, Note_on_c, 7, 67, 90
9, 181199, Note_on_c, 7, 67, 0
9, 181260, Note_on_c, 7, 69, 90
9, 181319, Note_on_c, 7, 69, 0
9, 181320, Note_on_c, 7, 62, 90
9, 181379, Note_on_c, 7, 62, 0
9, 181380, Note_on_c, 7, 65, 90
9, 181439, Note_on_c, 7, 65, 0
9, 181500, Note_on_c, 7, 69, 90
9, 181559, Note_on_c, 7, 69, 0
9, 181560, Note_on_c, 7, 61, 90
9, 181619, Note_on_c, 7, 61, 0
9, 181620, Note_on_c, 7, 64, 90
9, 181679, Note_on_c, 7, 64, 0
9, 181680, Note_on_c, 7, 65, 90
9, 181799, Note_on_c, 7, 65, 0
9, 182040, Note_on_c, 7, 67, 90
9, 182099, Note_on_c, 7, 67, 0
9, 182100, Note_on_c, 7, 65, 90
9, 182159, Note_on_c, 7, 65, 0
9, 182160, Note_on_c, 7, 64, 90
9, 182219, Note_on_c, 7, 64, 0
9, 182220, Note_on_c, 7, 66, 90
9, 182279, Note_on_c, 7, 66, 0
9, 182280, Note_on_c, 7, 67, 90
9, 182339, Note_on_c, 7, 67, 0
9, 182340, Note_on_c, 7, 64, 90
9, 182399, Note_on_c, 7, 64, 0
9, 182400, Note_on_c, 7, 69, 90
9, 182459, Note_on_c, 7, 69, 0
9, 182460, Note_on_c, 7, 67, 90
9, 182489, Note_on_c, 7, 67, 0
9, 182490, Note_on_c, 7, 66, 90
9, 182519, Note_on_c, 7, 66, 0
9, 182520, Note_on_c, 7, 64, 90
9, 182579, Note_on_c, 7, 64, 0
9, 182580, Note_on_c, 7, 69, 90
9, 182639, Note_on_c, 7, 69, 0
9, 182640, Note_on_c, 7, 66, 90
9, 182669, Note_on_c, 7, 66, 0
9, 182670, Note_on_c, 7, 64, 90
9, 182699, Note_on_c, 7, 64, 0
9, 182700, Note_on_c, 7, 66, 90
9, 182729, Note_on_c, 7, 66, 0
9, 182730, Note_on_c, 7, 67, 90
9, 182759, Note_on_c, 7, 67, 0
9, 182760, Note_on_c, 7, 69, 90
9, 182789, Note_on_c, 7, 69, 0
9, 182790, Note_on_c, 7, 67, 90
9, 182819, Note_on_c, 7, 67, 0
9, 182820, Note_on_c, 7, 66, 90
9, 182849, Note_on_c, 7, 66, 0
9, 182850, Note_on_c, 7, 64, 90
9, 182879, Note_on_c, 7, 64, 0
9, 182880, Note_on_c, 7, 62, 90
9, 182939, Note_on_c, 7, 62, 0
9, 182940, Note_on_c, 7, 55, 90
9, 182999, Note_on_c, 7, 55, 0
9, 183060, Note_on_c, 7, 67, 90
9, 183179, Note_on_c, 7, 67, 0
9, 183180, Note_on_c, 7, 66, 90
9, 183239, Note_on_c, 7, 66, 0
9, 183240, Note_on_c, 7, 64, 90
9, 183359, Note_on_c, 7, 64, 0
9, 183390, Note_on_c, 7, 62, 90
9, 183419, Note_on_c, 7, 62, 0
9, 183420, Note_on_c, 7, 64, 90
9, 183449, Note_on_c, 7, 64, 0
9, 183450, Note_on_c, 7, 66, 90
9, 183479, Note_on_c, 7, 66, 0
9, 183480, Note_on_c, 7, 67, 90
9, 183509, Note_on_c, 7, 67, 0
9, 183510, Note_on_c, 7, 66, 90
9, 183539, Note_on_c, 7, 66, 0
9, 183540, Note_on_c, 7, 67, 90
9, 183569, Note_on_c, 7, 67, 0
9, 183570, Note_on_c, 7, 64, 90
9, 183599, Note_on_c, 7, 64, 0
9, 183600, Note_on_c, 7, 69, 90
9, 183659, Note_on_c, 7, 69, 0
9, 183660, Note_on_c, 7, 57, 90
9, 183719, Note_on_c, 7, 57, 0
9, 183720, Note_on_c, 7, 69, 90
9, 183779, Note_on_c, 7, 69, 0
9, 183780, Note_on_c, 7, 67, 90
9, 183839, Note_on_c, 7, 67, 0
9, 183840, Note_on_c, 7, 66, 90
9, 183899, Note_on_c, 7, 66, 0
9, 183900, Note_on_c, 7, 67, 90
9, 183959, Note_on_c, 7, 67, 0
9, 183960, Note_on_c, 7, 69, 90
9, 184019, Note_on_c, 7, 69, 0
9, 184020, Note_on_c, 7, 66, 90
9, 184079, Note_on_c, 7, 66, 0
9, 184080, Note_on_c, 7, 71, 90
9, 184139, Note_on_c, 7, 71, 0
9, 184140, Note_on_c, 7, 69, 90
9, 184169, Note_on_c, 7, 69, 0
9, 184170, Note_on_c, 7, 67, 90
9, 184199, Note_on_c, 7, 67, 0
9, 184200, Note_on_c, 7, 66, 90
9, 184259, Note_on_c, 7, 66, 0
9, 184260, Note_on_c, 7, 71, 90
9, 184319, Note_on_c, 7, 71, 0
9, 184320, Note_on_c, 7, 67, 90
9, 184349, Note_on_c, 7, 67, 0
9, 184350, Note_on_c, 7, 66, 90
9, 184379, Note_on_c, 7, 66, 0
9, 184380, Note_on_c, 7, 67, 90
9, 184409, Note_on_c, 7, 67, 0
9, 184410, Note_on_c, 7, 69, 90
9, 184439, Note_on_c, 7, 69, 0
9, 184440, Note_on_c, 7, 71, 90
9, 184469, Note_on_c, 7, 71, 0
9, 184470, Note_on_c, 7, 69, 90
9, 184499, Note_on_c, 7, 69, 0
9, 184500, Note_on_c, 7, 67, 90
9, 184529, Note_on_c, 7, 67, 0
9, 184530, Note_on_c, 7, 66, 90
9, 184559, Note_on_c, 7, 66, 0
9, 184560, Note_on_c, 7, 64, 90
9, 184710, Note_on_c, 7, 64, 0
9, 184710, Note_on_c, 7, 66, 90
9, 184739, Note_on_c, 7, 66, 0
9, 184740, Note_on_c, 7, 67, 90
9, 184769, Note_on_c, 7, 67, 0
9, 184770, Note_on_c, 7, 64, 90
9, 184799, Note_on_c, 7, 64, 0
9, 184800, Note_on_c, 7, 69, 90
9, 184829, Note_on_c, 7, 69, 0
9, 184830, Note_on_c, 7, 68, 90
9, 184859, Note_on_c, 7, 68, 0
9, 184860, Note_on_c, 7, 69, 90
9, 184889, Note_on_c, 7, 69, 0
9, 184890, Note_on_c, 7, 71, 90
9, 184919, Note_on_c, 7, 71, 0
9, 184920, Note_on_c, 7, 73, 90
9, 185099, Note_on_c, 7, 73, 0
9, 185100, Note_on_c, 7, 66, 90
9, 185159, Note_on_c, 7, 66, 0
9, 185160, Note_on_c, 7, 71, 90
9, 185310, Note_on_c, 7, 71, 0
9, 185310, Note_on_c, 7, 69, 90
9, 185339, Note_on_c, 7, 69, 0
9, 185340, Note_on_c, 7, 71, 90
9, 185369, Note_on_c, 7, 71, 0
9, 185370, Note_on_c, 7, 72, 90
9, 185399, Note_on_c, 7, 72, 0
9, 185400, Note_on_c, 7, 74, 90
9, 185429, Note_on_c, 7, 74, 0
9, 185430, Note_on_c, 7, 72, 90
9, 185459, Note_on_c, 7, 72, 0
9, 185460, Note_on_c, 7, 74, 90
9, 185489, Note_on_c, 7, 74, 0
9, 185490, Note_on_c, 7, 71, 90
9, 185519, Note_on_c, 7, 71, 0
9, 185520, Note_on_c, 7, 67, 90
9, 185579, Note_on_c, 7, 67, 0
9, 185580, Note_on_c, 7, 60, 90
9, 185639, Note_on_c, 7, 60, 0
9, 185880, Note_on_c, 7, 69, 90
9, 185939, Note_on_c, 7, 69, 0
9, 185940, Note_on_c, 7, 67, 90
9, 185999, Note_on_c, 7, 67, 0
9, 186000, Note_on_c, 7, 66, 90
9, 186059, Note_on_c, 7, 66, 0
9, 186060, Note_on_c, 7, 67, 90
9, 186119, Note_on_c, 7, 67, 0
9, 186120, Note_on_c, 7, 69, 90
9, 186179, Note_on_c, 7, 69, 0
9, 186180, Note_on_c, 7, 66, 90
9, 186239, Note_on_c, 7, 66, 0
9, 186240, Note_on_c, 7, 71, 90
9, 186299, Note_on_c, 7, 71, 0
9, 186300, Note_on_c, 7, 69, 90
9, 186329, Note_on_c, 7, 69, 0
9, 186330, Note_on_c, 7, 67, 90
9, 186359, Note_on_c, 7, 67, 0
9, 186360, Note_on_c, 7, 66, 90
9, 186419, Note_on_c, 7, 66, 0
9, 186420, Note_on_c, 7, 71, 90
9, 186479, Note_on_c, 7, 71, 0
9, 186480, Note_on_c, 7, 67, 90
9, 186509, Note_on_c, 7, 67, 0
9, 186510, Note_on_c, 7, 66, 90
9, 186539, Note_on_c, 7, 66, 0
9, 186540, Note_on_c, 7, 67, 90
9, 186569, Note_on_c, 7, 67, 0
9, 186570, Note_on_c, 7, 69, 90
9, 186599, Note_on_c, 7, 69, 0
9, 186600, Note_on_c, 7, 71, 90
9, 186629, Note_on_c, 7, 71, 0
9, 186630, Note_on_c, 7, 69, 90
9, 186659, Note_on_c, 7, 69, 0
9, 186660, Note_on_c, 7, 67, 90
9, 186689, Note_on_c, 7, 67, 0
9, 186690, Note_on_c, 7, 66, 90
9, 186719, Note_on_c, 7, 66, 0
9, 186720, Note_on_c, 7, 64, 90
9, 186749, Note_on_c, 7, 64, 0
9, 186750, Note_on_c, 7, 62, 90
9, 186779, Note_on_c, 7, 62, 0
9, 186780, Note_on_c, 7, 64, 90
9, 186809, Note_on_c, 7, 64, 0
9, 186810, Note_on_c, 7, 66, 90
9, 186839, Note_on_c, 7, 66, 0
9, 186840, Note_on_c, 7, 67, 90
9, 186869, Note_on_c, 7, 67, 0
9, 186870, Note_on_c, 7, 66, 90
9, 186899, Note_on_c, 7, 66, 0
9, 186900, Note_on_c, 7, 64, 90
9, 186929, Note_on_c, 7, 64, 0
9, 186930, Note_on_c, 7, 62, 90
9, 186959, Note_on_c, 7, 62, 0
9, 186960, Note_on_c, 7, 60, 90
9, 186989, Note_on_c, 7, 60, 0
9, 186990, Note_on_c, 7, 59, 90
9, 187019, Note_on_c, 7, 59, 0
9, 187020, Note_on_c, 7, 60, 90
9, 187049, Note_on_c, 7, 60, 0
9, 187050, Note_on_c, 7, 62, 90
9, 187079, Note_on_c, 7, 62, 0
9, 187080, Note_on_c, 7, 64, 90
9, 187109, Note_on_c, 7, 64, 0
9, 187110, Note_on_c, 7, 62, 90
9, 187139, Note_on_c, 7, 62, 0
9, 187140, Note_on_c, 7, 60, 90
9, 187169, Note_on_c, 7, 60, 0
9, 187170, Note_on_c, 7, 59, 90
9, 187199, Note_on_c, 7, 59, 0
9, 187200, Note_on_c, 7, 57, 90
9, 187259, Note_on_c, 7, 57, 0
9, 187260, Note_on_c, 7, 69, 90
9, 187319, Note_on_c, 7, 69, 0
9, 187380, Note_on_c, 7, 64, 90
9, 187439, Note_on_c, 7, 64, 0
9, 187440, Note_on_c, 7, 66, 90
9, 187499, Note_on_c, 7, 66, 0
9, 187500, Note_on_c, 7, 67, 90
9, 187559, Note_on_c, 7, 67, 0
9, 187560, Note_on_c, 7, 69, 90
9, 187619, Note_on_c, 7, 69, 0
9, 187620, Note_on_c, 7, 66, 90
9, 187679, Note_on_c, 7, 66, 0
9, 187680, Note_on_c, 7, 71, 90
9, 187709, Note_on_c, 7, 71, 0
9, 187710, Note_on_c, 7, 69, 90
9, 187739, Note_on_c, 7, 69, 0
9, 187740, Note_on_c, 7, 67, 90
9, 187769, Note_on_c, 7, 67, 0
9, 187770, Note_on_c, 7, 69, 90
9, 187799, Note_on_c, 7, 69, 0
9, 187800, Note_on_c, 7, 71, 90
9, 187859, Note_on_c, 7, 71, 0
9, 187860, Note_on_c, 7, 67, 90
9, 187919, Note_on_c, 7, 67, 0
9, 187920, Note_on_c, 7, 67, 90
9, 188220, Note_on_c, 7, 67, 0
9, 188220, Note_on_c, 7, 66, 90
9, 188279, Note_on_c, 7, 66, 0
9, 188280, Note_on_c, 7, 64, 90
9, 188430, Note_on_c, 7, 64, 0
9, 188430, Note_on_c, 7, 62, 90
9, 188459, Note_on_c, 7, 62, 0
9, 188460, Note_on_c, 7, 60, 90
9, 188489, Note_on_c, 7, 60, 0
9, 188490, Note_on_c, 7, 59, 90
9, 188519, Note_on_c, 7, 59, 0
9, 188520, Note_on_c, 7, 57, 90
9, 188579, Note_on_c, 7, 57, 0
9, 188580, Note_on_c, 7, 69, 90
9, 188669, Note_on_c, 7, 69, 0
9, 188670, Note_on_c, 7, 67, 90
9, 188699, Note_on_c, 7, 67, 0
9, 188700, Note_on_c, 7, 66, 90
9, 188729, Note_on_c, 7, 66, 0
9, 188730, Note_on_c, 7, 67, 90
9, 188759, Note_on_c, 7, 67, 0
9, 188760, Note_on_c, 7, 69, 90
9, 188789, Note_on_c, 7, 69, 0
9, 188790, Note_on_c, 7, 67, 90
9, 188819, Note_on_c, 7, 67, 0
9, 188820, Note_on_c, 7, 66, 90
9, 188849, Note_on_c, 7, 66, 0
9, 188850, Note_on_c, 7, 67, 90
9, 188879, Note_on_c, 7, 67, 0
9, 188880, Note_on_c, 7, 64, 90
9, 188939, Note_on_c, 7, 64, 0
9, 188940, Note_on_c, 7, 59, 90
9, 188999, Note_on_c, 7, 59, 0
9, 189000, Note_on_c, 7, 71, 90
9, 189059, Note_on_c, 7, 71, 0
9, 189060, Note_on_c, 7, 69, 90
9, 189119, Note_on_c, 7, 69, 0
9, 189120, Note_on_c, 7, 67, 90
9, 189179, Note_on_c, 7, 67, 0
9, 189180, Note_on_c, 7, 69, 90
9, 189239, Note_on_c, 7, 69, 0
9, 189240, Note_on_c, 7, 71, 90
9, 189299, Note_on_c, 7, 71, 0
9, 189300, Note_on_c, 7, 67, 90
9, 189359, Note_on_c, 7, 67, 0
9, 189360, Note_on_c, 7, 72, 90
9, 189419, Note_on_c, 7, 72, 0
9, 189420, Note_on_c, 7, 71, 90
9, 189449, Note_on_c, 7, 71, 0
9, 189450, Note_on_c, 7, 69, 90
9, 189479, Note_on_c, 7, 69, 0
9, 189480, Note_on_c, 7, 67, 90
9, 189539, Note_on_c, 7, 67, 0
9, 189540, Note_on_c, 7, 72, 90
9, 189599, Note_on_c, 7, 72, 0
9, 189600, Note_on_c, 7, 69, 90
9, 189900, Note_on_c, 7, 69, 0
9, 189900, Note_on_c, 7, 67, 90
9, 189959, Note_on_c, 7, 67, 0
9, 189960, Note_on_c, 7, 65, 90
9, 190139, Note_on_c, 7, 65, 0
9, 190140, Note_on_c, 7, 64, 90
9, 190199, Note_on_c, 7, 64, 0
9, 190200, Note_on_c, 7, 62, 90
9, 190259, Note_on_c, 7, 62, 0
9, 190260, Note_on_c, 7, 67, 90
9, 190319, Note_on_c, 7, 67, 0
9, 190320, Note_on_c, 7, 67, 90
9, 190439, Note_on_c, 7, 67, 0
9, 190500, Note_on_c, 7, 72, 90
9, 190530, Note_on_c, 7, 72, 0
9, 190560, Note_on_c, 7, 69, 90
9, 190590, Note_on_c, 7, 69, 0
9, 190740, Note_on_c, 7, 74, 90
9, 190770, Note_on_c, 7, 74, 0
9, 190800, Note_on_c, 7, 71, 90
9, 190830, Note_on_c, 7, 71, 0
9, 190980, Note_on_c, 7, 76, 90
9, 191010, Note_on_c, 7, 76, 0
9, 191040, Note_on_c, 7, 72, 90
9, 191070, Note_on_c, 7, 72, 0
9, 191220, Note_on_c, 7, 72, 90
9, 191250, Note_on_c, 7, 72, 0
9, 191280, Note_on_c, 7, 79, 90
9, 191310, Note_on_c, 7, 79, 0
9, 191460, Note_on_c, 7, 74, 90
9, 191490, Note_on_c, 7, 74, 0
9, 191520, Note_on_c, 7, 81, 90
9, 191550, Note_on_c, 7, 81, 0
9, 191700, Note_on_c, 7, 76, 90
9, 191730, Note_on_c, 7, 76, 0
9, 191760, Note_on_c, 7, 74, 90
9, 191790, Note_on_c, 7, 74, 0
9, 191940, Note_on_c, 7, 71, 90
9, 191970, Note_on_c, 7, 71, 0
9, 192000, Note_on_c, 7, 71, 90
9, 192030, Note_on_c, 7, 71, 0
9, 192180, Note_on_c, 7, 71, 90
9, 192210, Note_on_c, 7, 71, 0
9, 192240, Note_on_c, 7, 69, 90
9, 192270, Note_on_c, 7, 69, 0
9, 192420, Note_on_c, 7, 76, 90
9, 192450, Note_on_c, 7, 76, 0
9, 192480, Note_on_c, 7, 69, 90
9, 192510, Note_on_c, 7, 69, 0
9, 192660, Note_on_c, 7, 74, 90
9, 192690, Note_on_c, 7, 74, 0
9, 192720, Note_on_c, 7, 66, 90
9, 192750, Note_on_c, 7, 66, 0
9, 192900, Note_on_c, 7, 69, 90
9, 192930, Note_on_c, 7, 69, 0
9, 192960, Note_on_c, 7, 69, 90
9, 192990, Note_on_c, 7, 69, 0
9, 193140, Note_on_c, 7, 67, 90
9, 193170, Note_on_c, 7, 67, 0
9, 193200, Note_on_c, 7, 67, 90
9, 193230, Note_on_c, 7, 67, 0
9, 193380, Note_on_c, 7, 72, 90
9, 193410, Note_on_c, 7, 72, 0
9, 193440, Note_on_c, 7, 71, 90
9, 193470, Note_on_c, 7, 71, 0
9, 193620, Note_on_c, 7, 71, 90
9, 193650, Note_on_c, 7, 71, 0
9, 193680, Note_on_c, 7, 72, 90
9, 193710, Note_on_c, 7, 72, 0
9, 193860, Note_on_c, 7, 71, 90
9, 193890, Note_on_c, 7, 71, 0
9, 193920, Note_on_c, 7, 76, 90
9, 193950, Note_on_c, 7, 76, 0
9, 194100, Note_on_c, 7, 78, 90
9, 194159, Note_on_c, 7, 78, 0
9, 194160, Note_on_c, 7, 79, 90
9, 194219, Note_on_c, 7, 79, 0
9, 194220, Note_on_c, 7, 71, 90
9, 194279, Note_on_c, 7, 71, 0
9, 194280, Note_on_c, 7, 67, 90
9, 194339, Note_on_c, 7, 67, 0
9, 194340, Note_on_c, 7, 62, 90
9, 194399, Note_on_c, 7, 62, 0
9, 194460, Note_on_c, 7, 67, 90
9, 194519, Note_on_c, 7, 67, 0
9, 194520, Note_on_c, 7, 69, 90
9, 194579, Note_on_c, 7, 69, 0
9, 194580, Note_on_c, 7, 72, 90
9, 194639, Note_on_c, 7, 72, 0
9, 194700, Note_on_c, 7, 66, 90
9, 194759, Note_on_c, 7, 66, 0
9, 194760, Note_on_c, 7, 67, 90
9, 194819, Note_on_c, 7, 67, 0
9, 194820, Note_on_c, 7, 71, 90
9, 194879, Note_on_c, 7, 71, 0
9, 194940, Note_on_c, 7, 64, 90
9, 194999, Note_on_c, 7, 64, 0
9, 195000, Note_on_c, 7, 66, 90
9, 195059, Note_on_c, 7, 66, 0
9, 195060, Note_on_c, 7, 69, 90
9, 195119, Note_on_c, 7, 69, 0
9, 195180, Note_on_c, 7, 62, 90
9, 195239, Note_on_c, 7, 62, 0
9, 195240, Note_on_c, 7, 67, 90
9, 195299, Note_on_c, 7, 67, 0
9, 195300, Note_on_c, 7, 71, 90
9, 195359, Note_on_c, 7, 71, 0
9, 195420, Note_on_c, 7, 62, 90
9, 195479, Note_on_c, 7, 62, 0
9, 195480, Note_on_c, 7, 64, 90
9, 195539, Note_on_c, 7, 64, 0
9, 195540, Note_on_c, 7, 67, 90
9, 195599, Note_on_c, 7, 67, 0
9, 195660, Note_on_c, 7, 69, 90
9, 195719, Note_on_c, 7, 69, 0
9, 195720, Note_on_c, 7, 71, 90
9, 195779, Note_on_c, 7, 71, 0
9, 195780, Note_on_c, 7, 74, 90
9, 195839, Note_on_c, 7, 74, 0
9, 195900, Note_on_c, 7, 64, 90
9, 195959, Note_on_c, 7, 64, 0
9, 195960, Note_on_c, 7, 69, 90
9, 196019, Note_on_c, 7, 69, 0
9, 196020, Note_on_c, 7, 72, 90
9, 196079, Note_on_c, 7, 72, 0
9, 196080, Note_on_c, 7, 71, 90
9, 196199, Note_on_c, 7, 71, 0
9, 196200, Note_on_c, 7, 67, 90
9, 196259, Note_on_c, 7, 67, 0
9, 196260, Note_on_c, 7, 65, 90
9, 196319, Note_on_c, 7, 65, 0
9, 196320, Note_on_c, 7, 64, 90
9, 196379, Note_on_c, 7, 64, 0
9, 196380, Note_on_c, 7, 66, 90
9, 196439, Note_on_c, 7, 66, 0
9, 196440, Note_on_c, 7, 67, 90
9, 196499, Note_on_c, 7, 67, 0
9, 196500, Note_on_c, 7, 64, 90
9, 196559, Note_on_c, 7, 64, 0
9, 196560, Note_on_c, 7, 69, 90
9, 196619, Note_on_c, 7, 69, 0
9, 196620, Note_on_c, 7, 67, 90
9, 196649, Note_on_c, 7, 67, 0
9, 196650, Note_on_c, 7, 66, 90
9, 196679, Note_on_c, 7, 66, 0
9, 196680, Note_on_c, 7, 64, 90
9, 196739, Note_on_c, 7, 64, 0
9, 196740, Note_on_c, 7, 69, 90
9, 196799, Note_on_c, 7, 69, 0
9, 196800, Note_on_c, 7, 66, 90
9, 196829, Note_on_c, 7, 66, 0
9, 196830, Note_on_c, 7, 64, 90
9, 196859, Note_on_c, 7, 64, 0
9, 196860, Note_on_c, 7, 66, 90
9, 196889, Note_on_c, 7, 66, 0
9, 196890, Note_on_c, 7, 67, 90
9, 196919, Note_on_c, 7, 67, 0
9, 196920, Note_on_c, 7, 69, 90
9, 196949, Note_on_c, 7, 69, 0
9, 196950, Note_on_c, 7, 67, 90
9, 196979, Note_on_c, 7, 67, 0
9, 196980, Note_on_c, 7, 66, 90
9, 197009, Note_on_c, 7, 66, 0
9, 197010, Note_on_c, 7, 64, 90
9, 197039, Note_on_c, 7, 64, 0
9, 197040, Note_on_c, 7, 62, 90
9, 197219, Note_on_c, 7, 62, 0
9, 197220, Note_on_c, 7, 64, 90
9, 197249, Note_on_c, 7, 64, 0
9, 197250, Note_on_c, 7, 66, 90
9, 197279, Note_on_c, 7, 66, 0
9, 197280, Note_on_c, 7, 67, 90
9, 197309, Note_on_c, 7, 67, 0
9, 197310, Note_on_c, 7, 66, 90
9, 197339, Note_on_c, 7, 66, 0
9, 197340, Note_on_c, 7, 64, 90
9, 197369, Note_on_c, 7, 64, 0
9, 197370, Note_on_c, 7, 62, 90
9, 197399, Note_on_c, 7, 62, 0
9, 197400, Note_on_c, 7, 61, 90
9, 197459, Note_on_c, 7, 61, 0
9, 197460, Note_on_c, 7, 62, 90
9, 197519, Note_on_c, 7, 62, 0
9, 197520, Note_on_c, 7, 64, 90
9, 197759, Note_on_c, 7, 64, 0
9, 197760, Note_on_c, 7, 62, 90
9, 197999, Note_on_c, 7, 62, 0
9, 198000, Note_on_c, 7, 62, 90
9, 198240, Note_on_c, 7, 62, 0
9, 201900, Note_on_c, 7, 71, 90
9, 202079, Note_on_c, 7, 71, 0
9, 202080, Note_on_c, 7, 69, 90
9, 202259, Note_on_c, 7, 69, 0
9, 202260, Note_on_c, 7, 71, 90
9, 202379, Note_on_c, 7, 71, 0
9, 202380, Note_on_c, 7, 69, 90
9, 202439, Note_on_c, 7, 69, 0
9, 202440, Note_on_c, 7, 69, 90
9, 202619, Note_on_c, 7, 69, 0
9, 202620, Note_on_c, 7, 67, 90
9, 202920, Note_on_c, 7, 67, 0
9, 202920, Note_on_c, 7, 72, 90
9, 202979, Note_on_c, 7, 72, 0
9, 202980, Note_on_c, 7, 71, 90
9, 203099, Note_on_c, 7, 71, 0
9, 203100, Note_on_c, 7, 69, 90
9, 203159, Note_on_c, 7, 69, 0
9, 203160, Note_on_c, 7, 71, 90
9, 203339, Note_on_c, 7, 71, 0
9, 204420, Note_on_c, 7, 71, 90
9, 204599, Note_on_c, 7, 71, 0
9, 204600, Note_on_c, 7, 71, 90
9, 204779, Note_on_c, 7, 71, 0
9, 204780, Note_on_c, 7, 71, 90
9, 204959, Note_on_c, 7, 71, 0
9, 204960, Note_on_c, 7, 69, 90
9, 205139, Note_on_c, 7, 69, 0
9, 205140, Note_on_c, 7, 67, 90
9, 205319, Note_on_c, 7, 67, 0
9, 205320, Note_on_c, 7, 69, 90
9, 205439, Note_on_c, 7, 69, 0
9, 205440, Note_on_c, 7, 64, 90
9, 205499, Note_on_c, 7, 64, 0
9, 205500, Note_on_c, 7, 64, 90
9, 205589, Note_on_c, 7, 64, 0
9, 205590, Note_on_c, 7, 67, 90
9, 205619, Note_on_c, 7, 67, 0
9, 205620, Note_on_c, 7, 66, 90
9, 205679, Note_on_c, 7, 66, 0
9, 205680, Note_on_c, 7, 67, 90
9, 205859, Note_on_c, 7, 67, 0
9, 206940, Note_on_c, 7, 67, 90
9, 207119, Note_on_c, 7, 67, 0
9, 207120, Note_on_c, 7, 67, 90
9, 207299, Note_on_c, 7, 67, 0
9, 207300, Note_on_c, 7, 67, 90
9, 207419, Note_on_c, 7, 67, 0
9, 207420, Note_on_c, 7, 69, 90
9, 207479, Note_on_c, 7, 69, 0
9, 207480, Note_on_c, 7, 71, 90
9, 207599, Note_on_c, 7, 71, 0
9, 207600, Note_on_c, 7, 69, 90
9, 207659, Note_on_c, 7, 69, 0
9, 207660, Note_on_c, 7, 69, 90
9, 207779, Note_on_c, 7, 69, 0
9, 207780, Note_on_c, 7, 71, 90
9, 207839, Note_on_c, 7, 71, 0
9, 207840, Note_on_c, 7, 71, 90
9, 207959, Note_on_c, 7, 71, 0
9, 207960, Note_on_c, 7, 69, 90
9, 208019, Note_on_c, 7, 69, 0
9, 208020, Note_on_c, 7, 71, 90
9, 208139, Note_on_c, 7, 71, 0
9, 208140, Note_on_c, 7, 69, 90
9, 208199, Note_on_c, 7, 69, 0
9, 208200, Note_on_c, 7, 69, 90
9, 208379, Note_on_c, 7, 69, 0
9, 209460, Note_on_c, 7, 71, 90
9, 209639, Note_on_c, 7, 71, 0
9, 209640, Note_on_c, 7, 72, 90
9, 209759, Note_on_c, 7, 72, 0
9, 209760, Note_on_c, 7, 71, 90
9, 209819, Note_on_c, 7, 71, 0
9, 209820, Note_on_c, 7, 71, 90
9, 209939, Note_on_c, 7, 71, 0
9, 209940, Note_on_c, 7, 69, 90
9, 209999, Note_on_c, 7, 69, 0
9, 210000, Note_on_c, 7, 69, 90
9, 210119, Note_on_c, 7, 69, 0
9, 210120, Note_on_c, 7, 67, 90
9, 210179, Note_on_c, 7, 67, 0
9, 210180, Note_on_c, 7, 67, 90
9, 210299, Note_on_c, 7, 67, 0
9, 210300, Note_on_c, 7, 67, 90
9, 210359, Note_on_c, 7, 67, 0
9, 210360, Note_on_c, 7, 67, 90
9, 210479, Note_on_c, 7, 67, 0
9, 210480, Note_on_c, 7, 67, 90
9, 210539, Note_on_c, 7, 67, 0
9, 210540, Note_on_c, 7, 67, 90
9, 210659, Note_on_c, 7, 67, 0
9, 210660, Note_on_c, 7, 66, 90
9, 210719, Note_on_c, 7, 66, 0
9, 210720, Note_on_c, 7, 62, 90
9, 210899, Note_on_c, 7, 62, 0
9, 210899, End_track
10, 0, Start_track
10, 0, MIDI_port, 0
10, 0, Title_t, "Viola"
10, 0, Program_c, 8, 48
10, 0, Control_c, 8, 7, 127
10, 0, Control_c, 8, 10, 64
10, 0, Note_on_c, 8, 62, 100
10, 120, Note_on_c, 8, 62, 0
10, 180, Note_on_c, 8, 62, 100
10, 300, Note_on_c, 8, 62, 0
10, 360, Note_on_c, 8, 64, 100
10, 480, Note_on_c, 8, 64, 0
10, 540, Note_on_c, 8, 64, 100
10, 660, Note_on_c, 8, 64, 0
10, 720, Note_on_c, 8, 64, 100
10, 840, Note_on_c, 8, 64, 0
10, 900, Note_on_c, 8, 62, 100
10, 1020, Note_on_c, 8, 62, 0
10, 1080, Note_on_c, 8, 62, 100
10, 1200, Note_on_c, 8, 62, 0
10, 1260, Note_on_c, 8, 62, 100
10, 1380, Note_on_c, 8, 62, 0
10, 1440, Note_on_c, 8, 55, 100
10, 1560, Note_on_c, 8, 55, 0
10, 1620, Note_on_c, 8, 60, 100
10, 1740, Note_on_c, 8, 60, 0
10, 1800, Note_on_c, 8, 54, 100
10, 1920, Note_on_c, 8, 54, 0
10, 1980, Note_on_c, 8, 59, 100
10, 2100, Note_on_c, 8, 59, 0
10, 2160, Note_on_c, 8, 55, 100
10, 2280, Note_on_c, 8, 55, 0
10, 2280, Note_on_c, 8, 62, 100
10, 2340, Note_on_c, 8, 62, 0
10, 2340, Note_on_c, 8, 62, 100
10, 2460, Note_on_c, 8, 62, 0
10, 2460, Note_on_c, 8, 64, 100
10, 2520, Note_on_c, 8, 64, 0
10, 2520, Note_on_c, 8, 62, 100
10, 2640, Note_on_c, 8, 62, 0
10, 2640, Note_on_c, 8, 66, 100
10, 2700, Note_on_c, 8, 66, 0
10, 2700, Note_on_c, 8, 69, 100
10, 3000, Note_on_c, 8, 69, 0
10, 3000, Note_on_c, 8, 67, 100
10, 3060, Note_on_c, 8, 67, 0
10, 3180, Note_on_c, 8, 66, 100
10, 3240, Note_on_c, 8, 66, 0
10, 3240, Note_on_c, 8, 64, 100
10, 3360, Note_on_c, 8, 64, 0
10, 3360, Note_on_c, 8, 68, 100
10, 3420, Note_on_c, 8, 68, 0
10, 3420, Note_on_c, 8, 71, 100
10, 3720, Note_on_c, 8, 71, 0
10, 3720, Note_on_c, 8, 69, 100
10, 3780, Note_on_c, 8, 69, 0
10, 3900, Note_on_c, 8, 67, 100
10, 3960, Note_on_c, 8, 67, 0
10, 3960, Note_on_c, 8, 64, 100
10, 4080, Note_on_c, 8, 64, 0
10, 4080, Note_on_c, 8, 62, 100
10, 4140, Note_on_c, 8, 62, 0
10, 4140, Note_on_c, 8, 61, 100
10, 4260, Note_on_c, 8, 61, 0
10, 4260, Note_on_c, 8, 64, 100
10, 4320, Note_on_c, 8, 64, 0
10, 4320, Note_on_c, 8, 67, 100
10, 4440, Note_on_c, 8, 67, 0
10, 4440, Note_on_c, 8, 55, 100
10, 4500, Note_on_c, 8, 55, 0
10, 4620, Note_on_c, 8, 57, 100
10, 4680, Note_on_c, 8, 57, 0
10, 4680, Note_on_c, 8, 62, 100
10, 4800, Note_on_c, 8, 62, 0
10, 4800, Note_on_c, 8, 62, 100
10, 4860, Note_on_c, 8, 62, 0
10, 4860, Note_on_c, 8, 69, 100
10, 5130, Note_on_c, 8, 69, 0
10, 5130, Note_on_c, 8, 66, 100
10, 5160, Note_on_c, 8, 66, 0
10, 5160, Note_on_c, 8, 62, 100
10, 5220, Note_on_c, 8, 62, 0
10, 5220, Note_on_c, 8, 66, 100
10, 5340, Note_on_c, 8, 66, 0
10, 5340, Note_on_c, 8, 59, 100
10, 5400, Note_on_c, 8, 59, 0
10, 5400, Note_on_c, 8, 57, 100
10, 5520, Note_on_c, 8, 57, 0
10, 5520, Note_on_c, 8, 55, 100
10, 5580, Note_on_c, 8, 55, 0
10, 5580, Note_on_c, 8, 57, 100
10, 5700, Note_on_c, 8, 57, 0
10, 5700, Note_on_c, 8, 55, 100
10, 5760, Note_on_c, 8, 55, 0
10, 5760, Note_on_c, 8, 54, 100
10, 6060, Note_on_c, 8, 54, 0
10, 7200, Note_on_c, 8, 62, 100
10, 7320, Note_on_c, 8, 62, 0
10, 7380, Note_on_c, 8, 62, 100
10, 7500, Note_on_c, 8, 62, 0
10, 7560, Note_on_c, 8, 71, 100
10, 7680, Note_on_c, 8, 71, 0
10, 8640, Note_on_c, 8, 64, 100
10, 8760, Note_on_c, 8, 64, 0
10, 8760, Note_on_c, 8, 59, 100
10, 8820, Note_on_c, 8, 59, 0
10, 8820, Note_on_c, 8, 62, 100
10, 8940, Note_on_c, 8, 62, 0
10, 8940, Note_on_c, 8, 55, 100
10, 9000, Note_on_c, 8, 55, 0
10, 9000, Note_on_c, 8, 67, 100
10, 9120, Note_on_c, 8, 67, 0
10, 10080, Note_on_c, 8, 55, 100
10, 10200, Note_on_c, 8, 55, 0
10, 10260, Note_on_c, 8, 57, 100
10, 10380, Note_on_c, 8, 57, 0
10, 10440, Note_on_c, 8, 54, 100
10, 10560, Note_on_c, 8, 54, 0
10, 10620, Note_on_c, 8, 59, 100
10, 10740, Note_on_c, 8, 59, 0
10, 10800, Note_on_c, 8, 55, 100
10, 10920, Note_on_c, 8, 55, 0
10, 10920, Note_on_c, 8, 62, 100
10, 10980, Note_on_c, 8, 62, 0
10, 10980, Note_on_c, 8, 62, 100
10, 11100, Note_on_c, 8, 62, 0
10, 11100, Note_on_c, 8, 64, 100
10, 11160, Note_on_c, 8, 64, 0
10, 11160, Note_on_c, 8, 62, 100
10, 11280, Note_on_c, 8, 62, 0
10, 12000, Note_on_c, 8, 64, 100
10, 12060, Note_on_c, 8, 64, 0
10, 12060, Note_on_c, 8, 62, 100
10, 12180, Note_on_c, 8, 62, 0
10, 12180, Note_on_c, 8, 56, 100
10, 12240, Note_on_c, 8, 56, 0
10, 12240, Note_on_c, 8, 57, 100
10, 12360, Note_on_c, 8, 57, 0
10, 12360, Note_on_c, 8, 59, 100
10, 12420, Note_on_c, 8, 59, 0
10, 12420, Note_on_c, 8, 60, 100
10, 12540, Note_on_c, 8, 60, 0
10, 12540, Note_on_c, 8, 59, 100
10, 12600, Note_on_c, 8, 59, 0
10, 12600, Note_on_c, 8, 59, 100
10, 12720, Note_on_c, 8, 59, 0
10, 12960, Note_on_c, 8, 59, 100
10, 13080, Note_on_c, 8, 59, 0
10, 13320, Note_on_c, 8, 59, 100
10, 13440, Note_on_c, 8, 59, 0
10, 13680, Note_on_c, 8, 57, 100
10, 13770, Note_on_c, 8, 57, 0
10, 13770, Note_on_c, 8, 60, 100
10, 13800, Note_on_c, 8, 60, 0
10, 13800, Note_on_c, 8, 64, 100
10, 13860, Note_on_c, 8, 64, 0
10, 13860, Note_on_c, 8, 64, 100
10, 13950, Note_on_c, 8, 64, 0
10, 13950, Note_on_c, 8, 63, 100
10, 13980, Note_on_c, 8, 63, 0
10, 13980, Note_on_c, 8, 64, 100
10, 14040, Note_on_c, 8, 64, 0
10, 14040, Note_on_c, 8, 57, 100
10, 14160, Note_on_c, 8, 57, 0
10, 14400, Note_on_c, 8, 59, 100
10, 14520, Note_on_c, 8, 59, 0
10, 14760, Note_on_c, 8, 66, 100
10, 14880, Note_on_c, 8, 66, 0
10, 15120, Note_on_c, 8, 59, 100
10, 15240, Note_on_c, 8, 59, 0
10, 15240, Note_on_c, 8, 66, 100
10, 15300, Note_on_c, 8, 66, 0
10, 15300, Note_on_c, 8, 64, 100
10, 15420, Note_on_c, 8, 64, 0
10, 15420, Note_on_c, 8, 63, 100
10, 15480, Note_on_c, 8, 63, 0
10, 15480, Note_on_c, 8, 64, 100
10, 15570, Note_on_c, 8, 64, 0
10, 15570, Note_on_c, 8, 66, 100
10, 15600, Note_on_c, 8, 66, 0
10, 15600, Note_on_c, 8, 67, 100
10, 15660, Note_on_c, 8, 67, 0
10, 15660, Note_on_c, 8, 66, 100
10, 15780, Note_on_c, 8, 66, 0
10, 15780, Note_on_c, 8, 59, 100
10, 15840, Note_on_c, 8, 59, 0
10, 15840, Note_on_c, 8, 59, 100
10, 15960, Note_on_c, 8, 59, 0
10, 16020, Note_on_c, 8, 59, 100
10, 16140, Note_on_c, 8, 59, 0
10, 16200, Note_on_c, 8, 60, 100
10, 16320, Note_on_c, 8, 60, 0
10, 16380, Note_on_c, 8, 55, 100
10, 16500, Note_on_c, 8, 55, 0
10, 16560, Note_on_c, 8, 60, 100
10, 16680, Note_on_c, 8, 60, 0
10, 16740, Note_on_c, 8, 59, 100
10, 16860, Note_on_c, 8, 59, 0
10, 16920, Note_on_c, 8, 59, 100
10, 17040, Note_on_c, 8, 59, 0
10, 17100, Note_on_c, 8, 59, 100
10, 17220, Note_on_c, 8, 59, 0
10, 17280, Note_on_c, 8, 64, 100
10, 17400, Note_on_c, 8, 64, 0
10, 17460, Note_on_c, 8, 62, 100
10, 17580, Note_on_c, 8, 62, 0
10, 17640, Note_on_c, 8, 62, 100
10, 17760, Note_on_c, 8, 62, 0
10, 17820, Note_on_c, 8, 62, 100
10, 17940, Note_on_c, 8, 62, 0
10, 18000, Note_on_c, 8, 67, 90
10, 18119, Note_on_c, 8, 67, 0
10, 18120, Note_on_c, 8, 67, 90
10, 18179, Note_on_c, 8, 67, 0
10, 18180, Note_on_c, 8, 64, 90
10, 18299, Note_on_c, 8, 64, 0
10, 18300, Note_on_c, 8, 62, 90
10, 18359, Note_on_c, 8, 62, 0
10, 18360, Note_on_c, 8, 61, 90
10, 18479, Note_on_c, 8, 61, 0
10, 18480, Note_on_c, 8, 64, 90
10, 18539, Note_on_c, 8, 64, 0
10, 18540, Note_on_c, 8, 66, 90
10, 18659, Note_on_c, 8, 66, 0
10, 18660, Note_on_c, 8, 61, 90
10, 18719, Note_on_c, 8, 61, 0
10, 18720, Note_on_c, 8, 62, 90
10, 18839, Note_on_c, 8, 62, 0
10, 18840, Note_on_c, 8, 64, 90
10, 18899, Note_on_c, 8, 64, 0
10, 18900, Note_on_c, 8, 66, 90
10, 18989, Note_on_c, 8, 66, 0
10, 18990, Note_on_c, 8, 62, 90
10, 19019, Note_on_c, 8, 62, 0
10, 19020, Note_on_c, 8, 69, 90
10, 19079, Note_on_c, 8, 69, 0
10, 19080, Note_on_c, 8, 69, 90
10, 19199, Note_on_c, 8, 69, 0
10, 19200, Note_on_c, 8, 62, 90
10, 19259, Note_on_c, 8, 62, 0
10, 19260, Note_on_c, 8, 71, 90
10, 19379, Note_on_c, 8, 71, 0
10, 19380, Note_on_c, 8, 69, 90
10, 19439, Note_on_c, 8, 69, 0
10, 19440, Note_on_c, 8, 66, 90
10, 19559, Note_on_c, 8, 66, 0
10, 20520, Note_on_c, 8, 57, 90
10, 20639, Note_on_c, 8, 57, 0
10, 20700, Note_on_c, 8, 57, 90
10, 20819, Note_on_c, 8, 57, 0
10, 20880, Note_on_c, 8, 66, 90
10, 20999, Note_on_c, 8, 66, 0
10, 21960, Note_on_c, 8, 66, 90
10, 22079, Note_on_c, 8, 66, 0
10, 22140, Note_on_c, 8, 67, 90
10, 22259, Note_on_c, 8, 67, 0
10, 22320, Note_on_c, 8, 64, 90
10, 22439, Note_on_c, 8, 64, 0
10, 22500, Note_on_c, 8, 69, 90
10, 22619, Note_on_c, 8, 69, 0
10, 22680, Note_on_c, 8, 62, 90
10, 22799, Note_on_c, 8, 62, 0
10, 22860, Note_on_c, 8, 67, 90
10, 22979, Note_on_c, 8, 67, 0
10, 23040, Note_on_c, 8, 61, 90
10, 23159, Note_on_c, 8, 61, 0
10, 23160, Note_on_c, 8, 70, 90
10, 23219, Note_on_c, 8, 70, 0
10, 23220, Note_on_c, 8, 71, 90
10, 23339, Note_on_c, 8, 71, 0
10, 23340, Note_on_c, 8, 73, 90
10, 23399, Note_on_c, 8, 73, 0
10, 23400, Note_on_c, 8, 66, 90
10, 23519, Note_on_c, 8, 66, 0
10, 23520, Note_on_c, 8, 66, 90
10, 23579, Note_on_c, 8, 66, 0
10, 23580, Note_on_c, 8, 67, 90
10, 23699, Note_on_c, 8, 67, 0
10, 23700, Note_on_c, 8, 54, 90
10, 23759, Note_on_c, 8, 54, 0
10, 23760, Note_on_c, 8, 59, 90
10, 23879, Note_on_c, 8, 59, 0
10, 23880, Note_on_c, 8, 57, 90
10, 23939, Note_on_c, 8, 57, 0
10, 23940, Note_on_c, 8, 59, 90
10, 24059, Note_on_c, 8, 59, 0
10, 24060, Note_on_c, 8, 59, 90
10, 24120, Note_on_c, 8, 59, 0
10, 24120, Note_on_c, 8, 64, 90
10, 24239, Note_on_c, 8, 64, 0
10, 24240, Note_on_c, 8, 64, 90
10, 24299, Note_on_c, 8, 64, 0
10, 24300, Note_on_c, 8, 64, 90
10, 24419, Note_on_c, 8, 64, 0
10, 24420, Note_on_c, 8, 64, 90
10, 24479, Note_on_c, 8, 64, 0
10, 24480, Note_on_c, 8, 57, 90
10, 24599, Note_on_c, 8, 57, 0
10, 24600, Note_on_c, 8, 57, 90
10, 24659, Note_on_c, 8, 57, 0
10, 24660, Note_on_c, 8, 59, 90
10, 24779, Note_on_c, 8, 59, 0
10, 24780, Note_on_c, 8, 56, 90
10, 24839, Note_on_c, 8, 56, 0
10, 24840, Note_on_c, 8, 57, 90
10, 24959, Note_on_c, 8, 57, 0
10, 24960, Note_on_c, 8, 59, 90
10, 25019, Note_on_c, 8, 59, 0
10, 25020, Note_on_c, 8, 60, 90
10, 25139, Note_on_c, 8, 60, 0
10, 25140, Note_on_c, 8, 59, 90
10, 25199, Note_on_c, 8, 59, 0
10, 25200, Note_on_c, 8, 57, 90
10, 25319, Note_on_c, 8, 57, 0
10, 25320, Note_on_c, 8, 62, 90
10, 25379, Note_on_c, 8, 62, 0
10, 25380, Note_on_c, 8, 67, 90
10, 25499, Note_on_c, 8, 67, 0
10, 25500, Note_on_c, 8, 66, 90
10, 25559, Note_on_c, 8, 66, 0
10, 25560, Note_on_c, 8, 66, 90
10, 25679, Note_on_c, 8, 66, 0
10, 25920, Note_on_c, 8, 66, 90
10, 26039, Note_on_c, 8, 66, 0
10, 26280, Note_on_c, 8, 66, 90
10, 26399, Note_on_c, 8, 66, 0
10, 26640, Note_on_c, 8, 64, 90
10, 26729, Note_on_c, 8, 64, 0
10, 26730, Note_on_c, 8, 67, 90
10, 26759, Note_on_c, 8, 67, 0
10, 26760, Note_on_c, 8, 71, 90
10, 26819, Note_on_c, 8, 71, 0
10, 26820, Note_on_c, 8, 71, 90
10, 26909, Note_on_c, 8, 71, 0
10, 26910, Note_on_c, 8, 70, 90
10, 26939, Note_on_c, 8, 70, 0
10, 26940, Note_on_c, 8, 71, 90
10, 26999, Note_on_c, 8, 71, 0
10, 27000, Note_on_c, 8, 64, 90
10, 27119, Note_on_c, 8, 64, 0
10, 27360, Note_on_c, 8, 66, 90
10, 27479, Note_on_c, 8, 66, 0
10, 27720, Note_on_c, 8, 61, 90
10, 27839, Note_on_c, 8, 61, 0
10, 28080, Note_on_c, 8, 66, 90
10, 28199, Note_on_c, 8, 66, 0
10, 28200, Note_on_c, 8, 61, 90
10, 28259, Note_on_c, 8, 61, 0
10, 28260, Note_on_c, 8, 59, 90
10, 28379, Note_on_c, 8, 59, 0
10, 28380, Note_on_c, 8, 58, 90
10, 28439, Note_on_c, 8, 58, 0
10, 28440, Note_on_c, 8, 59, 90
10, 28559, Note_on_c, 8, 59, 0
10, 28560, Note_on_c, 8, 59, 90
10, 28619, Note_on_c, 8, 59, 0
10, 28620, Note_on_c, 8, 62, 90
10, 28739, Note_on_c, 8, 62, 0
10, 28740, Note_on_c, 8, 66, 90
10, 28799, Note_on_c, 8, 66, 0
10, 28800, Note_on_c, 8, 66, 90
10, 28919, Note_on_c, 8, 66, 0
10, 29640, Note_on_c, 8, 59, 90
10, 29700, Note_on_c, 8, 59, 0
10, 29700, Note_on_c, 8, 64, 90
10, 29820, Note_on_c, 8, 64, 0
10, 29820, Note_on_c, 8, 64, 90
10, 29880, Note_on_c, 8, 64, 0
10, 29880, Note_on_c, 8, 64, 90
10, 30000, Note_on_c, 8, 64, 0
10, 30000, Note_on_c, 8, 64, 90
10, 30060, Note_on_c, 8, 64, 0
10, 30060, Note_on_c, 8, 64, 90
10, 30180, Note_on_c, 8, 64, 0
10, 30180, Note_on_c, 8, 60, 90
10, 30240, Note_on_c, 8, 60, 0
10, 30240, Note_on_c, 8, 57, 90
10, 30360, Note_on_c, 8, 57, 0
10, 30960, Note_on_c, 8, 62, 100
10, 31080, Note_on_c, 8, 62, 0
10, 31140, Note_on_c, 8, 62, 100
10, 31260, Note_on_c, 8, 62, 0
10, 31320, Note_on_c, 8, 64, 100
10, 31440, Note_on_c, 8, 64, 0
10, 31500, Note_on_c, 8, 64, 100
10, 31620, Note_on_c, 8, 64, 0
10, 31680, Note_on_c, 8, 64, 100
10, 31800, Note_on_c, 8, 64, 0
10, 31860, Note_on_c, 8, 62, 100
10, 31980, Note_on_c, 8, 62, 0
10, 32040, Note_on_c, 8, 62, 100
10, 32160, Note_on_c, 8, 62, 0
10, 32220, Note_on_c, 8, 62, 100
10, 32340, Note_on_c, 8, 62, 0
10, 32400, Note_on_c, 8, 55, 100
10, 32520, Note_on_c, 8, 55, 0
10, 32580, Note_on_c, 8, 60, 100
10, 32700, Note_on_c, 8, 60, 0
10, 32760, Note_on_c, 8, 54, 100
10, 32880, Note_on_c, 8, 54, 0
10, 32940, Note_on_c, 8, 59, 100
10, 33060, Note_on_c, 8, 59, 0
10, 33120, Note_on_c, 8, 55, 100
10, 33240, Note_on_c, 8, 55, 0
10, 33240, Note_on_c, 8, 62, 100
10, 33300, Note_on_c, 8, 62, 0
10, 33300, Note_on_c, 8, 62, 100
10, 33420, Note_on_c, 8, 62, 0
10, 33420, Note_on_c, 8, 64, 100
10, 33480, Note_on_c, 8, 64, 0
10, 33480, Note_on_c, 8, 62, 100
10, 33660, Note_on_c, 8, 62, 0
10, 34920, Note_on_c, 8, 62, 100
10, 35040, Note_on_c, 8, 62, 0
10, 35100, Note_on_c, 8, 62, 100
10, 35220, Note_on_c, 8, 62, 0
10, 35280, Note_on_c, 8, 71, 100
10, 35400, Note_on_c, 8, 71, 0
10, 36360, Note_on_c, 8, 64, 100
10, 36480, Note_on_c, 8, 64, 0
10, 36480, Note_on_c, 8, 59, 100
10, 36540, Note_on_c, 8, 59, 0
10, 36540, Note_on_c, 8, 62, 100
10, 36660, Note_on_c, 8, 62, 0
10, 36660, Note_on_c, 8, 55, 100
10, 36720, Note_on_c, 8, 55, 0
10, 36720, Note_on_c, 8, 67, 100
10, 36840, Note_on_c, 8, 67, 0
10, 37800, Note_on_c, 8, 67, 100
10, 37980, Note_on_c, 8, 67, 0
10, 38100, Note_on_c, 8, 59, 100
10, 38160, Note_on_c, 8, 59, 0
10, 38160, Note_on_c, 8, 57, 100
10, 38280, Note_on_c, 8, 57, 0
10, 38280, Note_on_c, 8, 61, 100
10, 38340, Note_on_c, 8, 61, 0
10, 38340, Note_on_c, 8, 64, 100
10, 38640, Note_on_c, 8, 64, 0
10, 38640, Note_on_c, 8, 62, 100
10, 38700, Note_on_c, 8, 62, 0
10, 38820, Note_on_c, 8, 72, 100
10, 38880, Note_on_c, 8, 72, 0
10, 38880, Note_on_c, 8, 69, 100
10, 39000, Note_on_c, 8, 69, 0
10, 39000, Note_on_c, 8, 67, 100
10, 39060, Note_on_c, 8, 67, 0
10, 39060, Note_on_c, 8, 66, 100
10, 39180, Note_on_c, 8, 66, 0
10, 39180, Note_on_c, 8, 69, 100
10, 39240, Note_on_c, 8, 69, 0
10, 39240, Note_on_c, 8, 72, 100
10, 39360, Note_on_c, 8, 72, 0
10, 39360, Note_on_c, 8, 60, 100
10, 39420, Note_on_c, 8, 60, 0
10, 39540, Note_on_c, 8, 62, 100
10, 39600, Note_on_c, 8, 62, 0
10, 39600, Note_on_c, 8, 67, 100
10, 39780, Note_on_c, 8, 67, 0
10, 39780, Note_on_c, 8, 74, 100
10, 40050, Note_on_c, 8, 74, 0
10, 40050, Note_on_c, 8, 71, 100
10, 40080, Note_on_c, 8, 71, 0
10, 40080, Note_on_c, 8, 67, 100
10, 40140, Note_on_c, 8, 67, 0
10, 40140, Note_on_c, 8, 71, 100
10, 40260, Note_on_c, 8, 71, 0
10, 40260, Note_on_c, 8, 64, 100
10, 40320, Note_on_c, 8, 64, 0
10, 40320, Note_on_c, 8, 62, 100
10, 40440, Note_on_c, 8, 62, 0
10, 40440, Note_on_c, 8, 64, 100
10, 40500, Note_on_c, 8, 64, 0
10, 40500, Note_on_c, 8, 62, 100
10, 40620, Note_on_c, 8, 62, 0
10, 40620, Note_on_c, 8, 60, 100
10, 40680, Note_on_c, 8, 60, 0
10, 40680, Note_on_c, 8, 59, 100
10, 40800, Note_on_c, 8, 59, 0
10, 41040, Note_on_c, 8, 62, 100
10, 41160, Note_on_c, 8, 62, 0
10, 41400, Note_on_c, 8, 62, 100
10, 41520, Note_on_c, 8, 62, 0
10, 41760, Note_on_c, 8, 60, 100
10, 41850, Note_on_c, 8, 60, 0
10, 41850, Note_on_c, 8, 64, 100
10, 41880, Note_on_c, 8, 64, 0
10, 41880, Note_on_c, 8, 67, 100
10, 41940, Note_on_c, 8, 67, 0
10, 41940, Note_on_c, 8, 67, 100
10, 42030, Note_on_c, 8, 67, 0
10, 42030, Note_on_c, 8, 66, 100
10, 42060, Note_on_c, 8, 66, 0
10, 42060, Note_on_c, 8, 67, 100
10, 42120, Note_on_c, 8, 67, 0
10, 42120, Note_on_c, 8, 61, 100
10, 42240, Note_on_c, 8, 61, 0
10, 42480, Note_on_c, 8, 62, 100
10, 42600, Note_on_c, 8, 62, 0
10, 42840, Note_on_c, 8, 69, 100
10, 42960, Note_on_c, 8, 69, 0
10, 43200, Note_on_c, 8, 69, 100
10, 43320, Note_on_c, 8, 69, 0
10, 43320, Note_on_c, 8, 62, 100
10, 43380, Note_on_c, 8, 62, 0
10, 43380, Note_on_c, 8, 62, 100
10, 43500, Note_on_c, 8, 62, 0
10, 43500, Note_on_c, 8, 60, 100
10, 43560, Note_on_c, 8, 60, 0
10, 43560, Note_on_c, 8, 67, 100
10, 43680, Note_on_c, 8, 67, 0
10, 43680, Note_on_c, 8, 62, 100
10, 43740, Note_on_c, 8, 62, 0
10, 43740, Note_on_c, 8, 62, 100
10, 43860, Note_on_c, 8, 62, 0
10, 43860, Note_on_c, 8, 62, 100
10, 43920, Note_on_c, 8, 62, 0
10, 43920, Note_on_c, 8, 62, 100
10, 44010, Note_on_c, 8, 62, 0
10, 44010, Note_on_c, 8, 66, 100
10, 44040, Note_on_c, 8, 66, 0
10, 44040, Note_on_c, 8, 67, 100
10, 44100, Note_on_c, 8, 67, 0
10, 44100, Note_on_c, 8, 55, 100
10, 44190, Note_on_c, 8, 55, 0
10, 44190, Note_on_c, 8, 59, 100
10, 44220, Note_on_c, 8, 59, 0
10, 44220, Note_on_c, 8, 57, 100
10, 44280, Note_on_c, 8, 57, 0
10, 44280, Note_on_c, 8, 59, 100
10, 44400, Note_on_c, 8, 59, 0
10, 44640, Note_on_c, 8, 71, 100
10, 45000, Note_on_c, 8, 71, 0
10, 50520, Note_on_c, 8, 59, 90
10, 50639, Note_on_c, 8, 59, 0
10, 50640, Note_on_c, 8, 59, 90
10, 50699, Note_on_c, 8, 59, 0
10, 50700, Note_on_c, 8, 60, 90
10, 50819, Note_on_c, 8, 60, 0
10, 50820, Note_on_c, 8, 62, 90
10, 50879, Note_on_c, 8, 62, 0
10, 50880, Note_on_c, 8, 59, 90
10, 50939, Note_on_c, 8, 59, 0
10, 50940, Note_on_c, 8, 57, 90
10, 50999, Note_on_c, 8, 57, 0
10, 51000, Note_on_c, 8, 57, 90
10, 51119, Note_on_c, 8, 57, 0
10, 51120, Note_on_c, 8, 57, 90
10, 51239, Note_on_c, 8, 57, 0
10, 51240, Note_on_c, 8, 57, 90
10, 51359, Note_on_c, 8, 57, 0
10, 51360, Note_on_c, 8, 57, 90
10, 51449, Note_on_c, 8, 57, 0
10, 51480, Note_on_c, 8, 59, 90
10, 51539, Note_on_c, 8, 59, 0
10, 51540, Note_on_c, 8, 57, 90
10, 51599, Note_on_c, 8, 57, 0
10, 51600, Note_on_c, 8, 55, 90
10, 51659, Note_on_c, 8, 55, 0
10, 51660, Note_on_c, 8, 57, 90
10, 51719, Note_on_c, 8, 57, 0
10, 51720, Note_on_c, 8, 59, 90
10, 51779, Note_on_c, 8, 59, 0
10, 51780, Note_on_c, 8, 60, 90
10, 51839, Note_on_c, 8, 60, 0
10, 51840, Note_on_c, 8, 62, 90
10, 51959, Note_on_c, 8, 62, 0
10, 51960, Note_on_c, 8, 62, 90
10, 52079, Note_on_c, 8, 62, 0
10, 52080, Note_on_c, 8, 62, 90
10, 52259, Note_on_c, 8, 62, 0
10, 52260, Note_on_c, 8, 60, 90
10, 52319, Note_on_c, 8, 60, 0
10, 52320, Note_on_c, 8, 59, 90
10, 52409, Note_on_c, 8, 59, 0
10, 52440, Note_on_c, 8, 59, 90
10, 52559, Note_on_c, 8, 59, 0
10, 52560, Note_on_c, 8, 59, 90
10, 52619, Note_on_c, 8, 59, 0
10, 52620, Note_on_c, 8, 60, 90
10, 52739, Note_on_c, 8, 60, 0
10, 52740, Note_on_c, 8, 62, 90
10, 52799, Note_on_c, 8, 62, 0
10, 52800, Note_on_c, 8, 59, 90
10, 52859, Note_on_c, 8, 59, 0
10, 52860, Note_on_c, 8, 57, 90
10, 52919, Note_on_c, 8, 57, 0
10, 52920, Note_on_c, 8, 57, 90
10, 53039, Note_on_c, 8, 57, 0
10, 53040, Note_on_c, 8, 57, 90
10, 53159, Note_on_c, 8, 57, 0
10, 53160, Note_on_c, 8, 57, 90
10, 53279, Note_on_c, 8, 57, 0
10, 53280, Note_on_c, 8, 57, 90
10, 53369, Note_on_c, 8, 57, 0
10, 53400, Note_on_c, 8, 59, 90
10, 53459, Note_on_c, 8, 59, 0
10, 53460, Note_on_c, 8, 57, 90
10, 53519, Note_on_c, 8, 57, 0
10, 53520, Note_on_c, 8, 55, 90
10, 53579, Note_on_c, 8, 55, 0
10, 53580, Note_on_c, 8, 57, 90
10, 53639, Note_on_c, 8, 57, 0
10, 53640, Note_on_c, 8, 59, 90
10, 53699, Note_on_c, 8, 59, 0
10, 53700, Note_on_c, 8, 60, 90
10, 53759, Note_on_c, 8, 60, 0
10, 53760, Note_on_c, 8, 62, 90
10, 53879, Note_on_c, 8, 62, 0
10, 53880, Note_on_c, 8, 62, 90
10, 53999, Note_on_c, 8, 62, 0
10, 54000, Note_on_c, 8, 62, 90
10, 54179, Note_on_c, 8, 62, 0
10, 54180, Note_on_c, 8, 60, 90
10, 54239, Note_on_c, 8, 60, 0
10, 54240, Note_on_c, 8, 59, 90
10, 54329, Note_on_c, 8, 59, 0
10, 54360, Note_on_c, 8, 62, 90
10, 54419, Note_on_c, 8, 62, 0
10, 54420, Note_on_c, 8, 64, 90
10, 54479, Note_on_c, 8, 64, 0
10, 54480, Note_on_c, 8, 66, 90
10, 54539, Note_on_c, 8, 66, 0
10, 54540, Note_on_c, 8, 64, 90
10, 54599, Note_on_c, 8, 64, 0
10, 54600, Note_on_c, 8, 62, 90
10, 54719, Note_on_c, 8, 62, 0
10, 54720, Note_on_c, 8, 64, 90
10, 54839, Note_on_c, 8, 64, 0
10, 54840, Note_on_c, 8, 66, 90
10, 54959, Note_on_c, 8, 66, 0
10, 54960, Note_on_c, 8, 59, 90
10, 55079, Note_on_c, 8, 59, 0
10, 55080, Note_on_c, 8, 64, 90
10, 55139, Note_on_c, 8, 64, 0
10, 55140, Note_on_c, 8, 62, 90
10, 55199, Note_on_c, 8, 62, 0
10, 55200, Note_on_c, 8, 60, 90
10, 55289, Note_on_c, 8, 60, 0
10, 55320, Note_on_c, 8, 55, 90
10, 55379, Note_on_c, 8, 55, 0
10, 55380, Note_on_c, 8, 57, 90
10, 55439, Note_on_c, 8, 57, 0
10, 55440, Note_on_c, 8, 59, 90
10, 55499, Note_on_c, 8, 59, 0
10, 55500, Note_on_c, 8, 60, 90
10, 55559, Note_on_c, 8, 60, 0
10, 55560, Note_on_c, 8, 62, 90
10, 55619, Note_on_c, 8, 62, 0
10, 55620, Note_on_c, 8, 64, 90
10, 55679, Note_on_c, 8, 64, 0
10, 55680, Note_on_c, 8, 60, 90
10, 55799, Note_on_c, 8, 60, 0
10, 55800, Note_on_c, 8, 61, 90
10, 55919, Note_on_c, 8, 61, 0
10, 55920, Note_on_c, 8, 59, 90
10, 56039, Note_on_c, 8, 59, 0
10, 56040, Note_on_c, 8, 59, 90
10, 56159, Note_on_c, 8, 59, 0
10, 56160, Note_on_c, 8, 59, 90
10, 56249, Note_on_c, 8, 59, 0
10, 56280, Note_on_c, 8, 62, 90
10, 56399, Note_on_c, 8, 62, 0
10, 56400, Note_on_c, 8, 62, 90
10, 56519, Note_on_c, 8, 62, 0
10, 56520, Note_on_c, 8, 67, 90
10, 56639, Note_on_c, 8, 67, 0
10, 56640, Note_on_c, 8, 55, 90
10, 56699, Note_on_c, 8, 55, 0
10, 56700, Note_on_c, 8, 57, 90
10, 56759, Note_on_c, 8, 57, 0
10, 56760, Note_on_c, 8, 59, 90
10, 56879, Note_on_c, 8, 59, 0
10, 56880, Note_on_c, 8, 64, 90
10, 56939, Note_on_c, 8, 64, 0
10, 56940, Note_on_c, 8, 62, 90
10, 56999, Note_on_c, 8, 62, 0
10, 57000, Note_on_c, 8, 64, 90
10, 57059, Note_on_c, 8, 64, 0
10, 57060, Note_on_c, 8, 61, 90
10, 57119, Note_on_c, 8, 61, 0
10, 57120, Note_on_c, 8, 62, 90
10, 57209, Note_on_c, 8, 62, 0
10, 57240, Note_on_c, 8, 62, 90
10, 57419, Note_on_c, 8, 62, 0
10, 57420, Note_on_c, 8, 60, 90
10, 57539, Note_on_c, 8, 60, 0
10, 57540, Note_on_c, 8, 59, 90
10, 57659, Note_on_c, 8, 59, 0
10, 57660, Note_on_c, 8, 57, 90
10, 57719, Note_on_c, 8, 57, 0
10, 57720, Note_on_c, 8, 55, 90
10, 57899, Note_on_c, 8, 55, 0
10, 57900, Note_on_c, 8, 54, 90
10, 57929, Note_on_c, 8, 54, 0
10, 57930, Note_on_c, 8, 52, 90
10, 57959, Note_on_c, 8, 52, 0
10, 57960, Note_on_c, 8, 54, 90
10, 58079, Note_on_c, 8, 54, 0
10, 58080, Note_on_c, 8, 59, 90
10, 58199, Note_on_c, 8, 59, 0
10, 58920, Note_on_c, 8, 74, 70
10, 59160, Note_on_c, 8, 74, 0
10, 59160, Note_on_c, 8, 67, 70
10, 59280, Note_on_c, 8, 67, 0
10, 59280, Note_on_c, 8, 69, 70
10, 60000, Note_on_c, 8, 69, 0
10, 60000, Note_on_c, 8, 64, 70
10, 60240, Note_on_c, 8, 64, 0
10, 60360, Note_on_c, 8, 64, 70
10, 60480, Note_on_c, 8, 64, 0
10, 60480, Note_on_c, 8, 66, 70
10, 60960, Note_on_c, 8, 66, 0
10, 60960, Note_on_c, 8, 64, 70
10, 61200, Note_on_c, 8, 64, 0
10, 61200, Note_on_c, 8, 61, 70
10, 61440, Note_on_c, 8, 61, 0
10, 61440, Note_on_c, 8, 62, 70
10, 61560, Note_on_c, 8, 62, 0
10, 61560, Note_on_c, 8, 59, 70
10, 61680, Note_on_c, 8, 59, 0
10, 61680, Note_on_c, 8, 55, 70
10, 61800, Note_on_c, 8, 55, 0
10, 61920, Note_on_c, 8, 54, 70
10, 62040, Note_on_c, 8, 54, 0
10, 62040, Note_on_c, 8, 54, 70
10, 62160, Note_on_c, 8, 54, 0
10, 93000, Note_on_c, 8, 64, 90
10, 93119, Note_on_c, 8, 64, 0
10, 93120, Note_on_c, 8, 62, 90
10, 93299, Note_on_c, 8, 62, 0
10, 93300, Note_on_c, 8, 60, 90
10, 93359, Note_on_c, 8, 60, 0
10, 93360, Note_on_c, 8, 59, 90
10, 93479, Note_on_c, 8, 59, 0
10, 93480, Note_on_c, 8, 60, 90
10, 93539, Note_on_c, 8, 60, 0
10, 93540, Note_on_c, 8, 59, 90
10, 93599, Note_on_c, 8, 59, 0
10, 93600, Note_on_c, 8, 57, 90
10, 93659, Note_on_c, 8, 57, 0
10, 93660, Note_on_c, 8, 55, 90
10, 93719, Note_on_c, 8, 55, 0
10, 93720, Note_on_c, 8, 53, 90
10, 93839, Note_on_c, 8, 53, 0
10, 93840, Note_on_c, 8, 55, 90
10, 93929, Note_on_c, 8, 55, 0
10, 93960, Note_on_c, 8, 57, 90
10, 94079, Note_on_c, 8, 57, 0
10, 94080, Note_on_c, 8, 57, 90
10, 94139, Note_on_c, 8, 57, 0
10, 94140, Note_on_c, 8, 59, 90
10, 94199, Note_on_c, 8, 59, 0
10, 94200, Note_on_c, 8, 60, 90
10, 94319, Note_on_c, 8, 60, 0
10, 94320, Note_on_c, 8, 59, 90
10, 94379, Note_on_c, 8, 59, 0
10, 94380, Note_on_c, 8, 57, 90
10, 94439, Note_on_c, 8, 57, 0
10, 94440, Note_on_c, 8, 55, 90
10, 94499, Note_on_c, 8, 55, 0
10, 94500, Note_on_c, 8, 57, 90
10, 94559, Note_on_c, 8, 57, 0
10, 94560, Note_on_c, 8, 58, 90
10, 94739, Note_on_c, 8, 58, 0
10, 94740, Note_on_c, 8, 57, 90
10, 94799, Note_on_c, 8, 57, 0
10, 94800, Note_on_c, 8, 55, 90
10, 94889, Note_on_c, 8, 55, 0
10, 94920, Note_on_c, 8, 60, 90
10, 94979, Note_on_c, 8, 60, 0
10, 94980, Note_on_c, 8, 58, 90
10, 95039, Note_on_c, 8, 58, 0
10, 95040, Note_on_c, 8, 57, 90
10, 95099, Note_on_c, 8, 57, 0
10, 95100, Note_on_c, 8, 55, 90
10, 95159, Note_on_c, 8, 55, 0
10, 95160, Note_on_c, 8, 53, 90
10, 95279, Note_on_c, 8, 53, 0
10, 95280, Note_on_c, 8, 53, 90
10, 95399, Note_on_c, 8, 53, 0
10, 95400, Note_on_c, 8, 55, 90
10, 95459, Note_on_c, 8, 55, 0
10, 95460, Note_on_c, 8, 53, 90
10, 95519, Note_on_c, 8, 53, 0
10, 95520, Note_on_c, 8, 52, 90
10, 95579, Note_on_c, 8, 52, 0
10, 95580, Note_on_c, 8, 48, 90
10, 95639, Note_on_c, 8, 48, 0
10, 95640, Note_on_c, 8, 60, 90
10, 95759, Note_on_c, 8, 60, 0
10, 95760, Note_on_c, 8, 60, 90
10, 95849, Note_on_c, 8, 60, 0
10, 95880, Note_on_c, 8, 64, 90
10, 95999, Note_on_c, 8, 64, 0
10, 96000, Note_on_c, 8, 64, 90
10, 96059, Note_on_c, 8, 64, 0
10, 96060, Note_on_c, 8, 59, 90
10, 96119, Note_on_c, 8, 59, 0
10, 96120, Note_on_c, 8, 60, 90
10, 96239, Note_on_c, 8, 60, 0
10, 96240, Note_on_c, 8, 59, 90
10, 96359, Note_on_c, 8, 59, 0
10, 96360, Note_on_c, 8, 57, 90
10, 96419, Note_on_c, 8, 57, 0
10, 96420, Note_on_c, 8, 59, 90
10, 96479, Note_on_c, 8, 59, 0
10, 96480, Note_on_c, 8, 60, 90
10, 96539, Note_on_c, 8, 60, 0
10, 96540, Note_on_c, 8, 57, 90
10, 96599, Note_on_c, 8, 57, 0
10, 96600, Note_on_c, 8, 50, 90
10, 96659, Note_on_c, 8, 50, 0
10, 96660, Note_on_c, 8, 55, 90
10, 96719, Note_on_c, 8, 55, 0
10, 96720, Note_on_c, 8, 52, 90
10, 96839, Note_on_c, 8, 52, 0
10, 101520, Note_on_c, 8, 55, 100
10, 102480, Note_on_c, 8, 55, 0
10, 102480, Note_on_c, 8, 60, 90
10, 102599, Note_on_c, 8, 60, 0
10, 102600, Note_on_c, 8, 57, 90
10, 102719, Note_on_c, 8, 57, 0
10, 102720, Note_on_c, 8, 60, 90
10, 102839, Note_on_c, 8, 60, 0
10, 102840, Note_on_c, 8, 57, 90
10, 102959, Note_on_c, 8, 57, 0
10, 102960, Note_on_c, 8, 60, 90
10, 103079, Note_on_c, 8, 60, 0
10, 103080, Note_on_c, 8, 57, 90
10, 103199, Note_on_c, 8, 57, 0
10, 103200, Note_on_c, 8, 62, 90
10, 103259, Note_on_c, 8, 62, 0
10, 103260, Note_on_c, 8, 60, 90
10, 103319, Note_on_c, 8, 60, 0
10, 103320, Note_on_c, 8, 62, 90
10, 103439, Note_on_c, 8, 62, 0
10, 103440, Note_on_c, 8, 62, 90
10, 103499, Note_on_c, 8, 62, 0
10, 103500, Note_on_c, 8, 55, 90
10, 103559, Note_on_c, 8, 55, 0
10, 103560, Note_on_c, 8, 55, 90
10, 103619, Note_on_c, 8, 55, 0
10, 103620, Note_on_c, 8, 60, 90
10, 103679, Note_on_c, 8, 60, 0
10, 103680, Note_on_c, 8, 60, 90
10, 103739, Note_on_c, 8, 60, 0
10, 103740, Note_on_c, 8, 62, 90
10, 103769, Note_on_c, 8, 62, 0
10, 103770, Note_on_c, 8, 60, 90
10, 103799, Note_on_c, 8, 60, 0
10, 103800, Note_on_c, 8, 62, 90
10, 103859, Note_on_c, 8, 62, 0
10, 103860, Note_on_c, 8, 55, 90
10, 103919, Note_on_c, 8, 55, 0
10, 103920, Note_on_c, 8, 55, 90
10, 103979, Note_on_c, 8, 55, 0
10, 103980, Note_on_c, 8, 60, 90
10, 104039, Note_on_c, 8, 60, 0
10, 104040, Note_on_c, 8, 60, 90
10, 104099, Note_on_c, 8, 60, 0
10, 104100, Note_on_c, 8, 59, 90
10, 104159, Note_on_c, 8, 59, 0
10, 104160, Note_on_c, 8, 59, 90
10, 104399, Note_on_c, 8, 59, 0
10, 104400, Note_on_c, 8, 55, 90
10, 104459, Note_on_c, 8, 55, 0
10, 104520, Note_on_c, 8, 60, 90
10, 104579, Note_on_c, 8, 60, 0
10, 104640, Note_on_c, 8, 57, 90
10, 104699, Note_on_c, 8, 57, 0
10, 104760, Note_on_c, 8, 59, 90
10, 104819, Note_on_c, 8, 59, 0
10, 104880, Note_on_c, 8, 59, 90
10, 104939, Note_on_c, 8, 59, 0
10, 104940, Note_on_c, 8, 64, 90
10, 104999, Note_on_c, 8, 64, 0
10, 105000, Note_on_c, 8, 62, 90
10, 105059, Note_on_c, 8, 62, 0
10, 105060, Note_on_c, 8, 60, 90
10, 105119, Note_on_c, 8, 60, 0
10, 105120, Note_on_c, 8, 59, 90
10, 105179, Note_on_c, 8, 59, 0
10, 105240, Note_on_c, 8, 57, 90
10, 105299, Note_on_c, 8, 57, 0
10, 105360, Note_on_c, 8, 57, 90
10, 105419, Note_on_c, 8, 57, 0
10, 105600, Note_on_c, 8, 57, 90
10, 105659, Note_on_c, 8, 57, 0
10, 105720, Note_on_c, 8, 62, 90
10, 105779, Note_on_c, 8, 62, 0
10, 105840, Note_on_c, 8, 55, 90
10, 105899, Note_on_c, 8, 55, 0
10, 106080, Note_on_c, 8, 62, 90
10, 106139, Note_on_c, 8, 62, 0
10, 106200, Note_on_c, 8, 64, 90
10, 106259, Note_on_c, 8, 64, 0
10, 106320, Note_on_c, 8, 64, 90
10, 106379, Note_on_c, 8, 64, 0
10, 106560, Note_on_c, 8, 55, 90
10, 106619, Note_on_c, 8, 55, 0
10, 106680, Note_on_c, 8, 57, 90
10, 106739, Note_on_c, 8, 57, 0
10, 106800, Note_on_c, 8, 57, 90
10, 106859, Note_on_c, 8, 57, 0
10, 107040, Note_on_c, 8, 60, 90
10, 107099, Note_on_c, 8, 60, 0
10, 107160, Note_on_c, 8, 62, 90
10, 107219, Note_on_c, 8, 62, 0
10, 107280, Note_on_c, 8, 62, 90
10, 107339, Note_on_c, 8, 62, 0
10, 107460, Note_on_c, 8, 64, 90
10, 107519, Note_on_c, 8, 64, 0
10, 107520, Note_on_c, 8, 62, 90
10, 107579, Note_on_c, 8, 62, 0
10, 107580, Note_on_c, 8, 60, 90
10, 107609, Note_on_c, 8, 60, 0
10, 107610, Note_on_c, 8, 59, 90
10, 107639, Note_on_c, 8, 59, 0
10, 107640, Note_on_c, 8, 57, 90
10, 107699, Note_on_c, 8, 57, 0
10, 107700, Note_on_c, 8, 62, 90
10, 107819, Note_on_c, 8, 62, 0
10, 107820, Note_on_c, 8, 60, 90
10, 107849, Note_on_c, 8, 60, 0
10, 107850, Note_on_c, 8, 59, 90
10, 107879, Note_on_c, 8, 59, 0
10, 107880, Note_on_c, 8, 57, 90
10, 107939, Note_on_c, 8, 57, 0
10, 107940, Note_on_c, 8, 66, 90
10, 107999, Note_on_c, 8, 66, 0
10, 108000, Note_on_c, 8, 62, 90
10, 108119, Note_on_c, 8, 62, 0
10, 108240, Note_on_c, 8, 55, 100
10, 108540, Note_on_c, 8, 55, 0
10, 108540, Note_on_c, 8, 60, 90
10, 108599, Note_on_c, 8, 60, 0
10, 108600, Note_on_c, 8, 62, 90
10, 108659, Note_on_c, 8, 62, 0
10, 108660, Note_on_c, 8, 59, 90
10, 108719, Note_on_c, 8, 59, 0
10, 108720, Note_on_c, 8, 62, 90
10, 108779, Note_on_c, 8, 62, 0
10, 108840, Note_on_c, 8, 67, 90
10, 108899, Note_on_c, 8, 67, 0
10, 108960, Note_on_c, 8, 65, 90
10, 109079, Note_on_c, 8, 65, 0
10, 109200, Note_on_c, 8, 55, 90
10, 109259, Note_on_c, 8, 55, 0
10, 109320, Note_on_c, 8, 57, 90
10, 109379, Note_on_c, 8, 57, 0
10, 109440, Note_on_c, 8, 56, 90
10, 109499, Note_on_c, 8, 56, 0
10, 109560, Note_on_c, 8, 64, 90
10, 109619, Note_on_c, 8, 64, 0
10, 109680, Note_on_c, 8, 64, 90
10, 109739, Note_on_c, 8, 64, 0
10, 109800, Note_on_c, 8, 57, 90
10, 109859, Note_on_c, 8, 57, 0
10, 109920, Note_on_c, 8, 69, 90
10, 110039, Note_on_c, 8, 69, 0
10, 110160, Note_on_c, 8, 62, 90
10, 110279, Note_on_c, 8, 62, 0
10, 110280, Note_on_c, 8, 57, 90
10, 110399, Note_on_c, 8, 57, 0
10, 110400, Note_on_c, 8, 60, 90
10, 110519, Note_on_c, 8, 60, 0
10, 110520, Note_on_c, 8, 57, 90
10, 110639, Note_on_c, 8, 57, 0
10, 110640, Note_on_c, 8, 62, 90
10, 110759, Note_on_c, 8, 62, 0
10, 110760, Note_on_c, 8, 66, 90
10, 110879, Note_on_c, 8, 66, 0
10, 110880, Note_on_c, 8, 62, 90
10, 110999, Note_on_c, 8, 62, 0
10, 111000, Note_on_c, 8, 55, 90
10, 111119, Note_on_c, 8, 55, 0
10, 111120, Note_on_c, 8, 62, 90
10, 111179, Note_on_c, 8, 62, 0
10, 111180, Note_on_c, 8, 55, 90
10, 111239, Note_on_c, 8, 55, 0
10, 111240, Note_on_c, 8, 55, 90
10, 111299, Note_on_c, 8, 55, 0
10, 111300, Note_on_c, 8, 60, 90
10, 111359, Note_on_c, 8, 60, 0
10, 111360, Note_on_c, 8, 60, 90
10, 111419, Note_on_c, 8, 60, 0
10, 111420, Note_on_c, 8, 62, 90
10, 111449, Note_on_c, 8, 62, 0
10, 111450, Note_on_c, 8, 60, 90
10, 111479, Note_on_c, 8, 60, 0
10, 111480, Note_on_c, 8, 62, 90
10, 111539, Note_on_c, 8, 62, 0
10, 111540, Note_on_c, 8, 55, 90
10, 111599, Note_on_c, 8, 55, 0
10, 111600, Note_on_c, 8, 55, 90
10, 111659, Note_on_c, 8, 55, 0
10, 111660, Note_on_c, 8, 60, 90
10, 111719, Note_on_c, 8, 60, 0
10, 111720, Note_on_c, 8, 60, 90
10, 111779, Note_on_c, 8, 60, 0
10, 111780, Note_on_c, 8, 59, 90
10, 111839, Note_on_c, 8, 59, 0
10, 111840, Note_on_c, 8, 59, 90
10, 112079, Note_on_c, 8, 59, 0
10, 112080, Note_on_c, 8, 55, 90
10, 112799, Note_on_c, 8, 55, 0
10, 112800, Note_on_c, 8, 57, 90
10, 112919, Note_on_c, 8, 57, 0
10, 112920, Note_on_c, 8, 62, 90
10, 113099, Note_on_c, 8, 62, 0
10, 113100, Note_on_c, 8, 59, 90
10, 113159, Note_on_c, 8, 59, 0
10, 113160, Note_on_c, 8, 55, 90
10, 113219, Note_on_c, 8, 55, 0
10, 113220, Note_on_c, 8, 62, 90
10, 113279, Note_on_c, 8, 62, 0
10, 113280, Note_on_c, 8, 66, 90
10, 113339, Note_on_c, 8, 66, 0
10, 113340, Note_on_c, 8, 60, 90
10, 113399, Note_on_c, 8, 60, 0
10, 113400, Note_on_c, 8, 62, 90
10, 113459, Note_on_c, 8, 62, 0
10, 113460, Note_on_c, 8, 59, 90
10, 113519, Note_on_c, 8, 59, 0
10, 113520, Note_on_c, 8, 67, 90
10, 113579, Note_on_c, 8, 67, 0
10, 113580, Note_on_c, 8, 62, 90
10, 113639, Note_on_c, 8, 62, 0
10, 113640, Note_on_c, 8, 67, 90
10, 113699, Note_on_c, 8, 67, 0
10, 113700, Note_on_c, 8, 62, 90
10, 113759, Note_on_c, 8, 62, 0
10, 113760, Note_on_c, 8, 57, 90
10, 113819, Note_on_c, 8, 57, 0
10, 113820, Note_on_c, 8, 64, 90
10, 113879, Note_on_c, 8, 64, 0
10, 113880, Note_on_c, 8, 61, 90
10, 113939, Note_on_c, 8, 61, 0
10, 113940, Note_on_c, 8, 57, 90
10, 113999, Note_on_c, 8, 57, 0
10, 114000, Note_on_c, 8, 62, 90
10, 114119, Note_on_c, 8, 62, 0
10, 114720, Note_on_c, 8, 57, 90
10, 114779, Note_on_c, 8, 57, 0
10, 114840, Note_on_c, 8, 59, 90
10, 114899, Note_on_c, 8, 59, 0
10, 114960, Note_on_c, 8, 64, 90
10, 115019, Note_on_c, 8, 64, 0
10, 115200, Note_on_c, 8, 64, 90
10, 115259, Note_on_c, 8, 64, 0
10, 115320, Note_on_c, 8, 69, 90
10, 115379, Note_on_c, 8, 69, 0
10, 115440, Note_on_c, 8, 62, 90
10, 115499, Note_on_c, 8, 62, 0
10, 115680, Note_on_c, 8, 57, 90
10, 115739, Note_on_c, 8, 57, 0
10, 115800, Note_on_c, 8, 59, 90
10, 115859, Note_on_c, 8, 59, 0
10, 115920, Note_on_c, 8, 59, 90
10, 115979, Note_on_c, 8, 59, 0
10, 116040, Note_on_c, 8, 59, 90
10, 116099, Note_on_c, 8, 59, 0
10, 116160, Note_on_c, 8, 62, 90
10, 116219, Note_on_c, 8, 62, 0
10, 116280, Note_on_c, 8, 64, 90
10, 116339, Note_on_c, 8, 64, 0
10, 116400, Note_on_c, 8, 64, 90
10, 116459, Note_on_c, 8, 64, 0
10, 116520, Note_on_c, 8, 64, 90
10, 116579, Note_on_c, 8, 64, 0
10, 116640, Note_on_c, 8, 55, 90
10, 116699, Note_on_c, 8, 55, 0
10, 116760, Note_on_c, 8, 57, 90
10, 116819, Note_on_c, 8, 57, 0
10, 116880, Note_on_c, 8, 57, 90
10, 116939, Note_on_c, 8, 57, 0
10, 117000, Note_on_c, 8, 57, 90
10, 117059, Note_on_c, 8, 57, 0
10, 117060, Note_on_c, 8, 59, 90
10, 117119, Note_on_c, 8, 59, 0
10, 117120, Note_on_c, 8, 57, 90
10, 117179, Note_on_c, 8, 57, 0
10, 117180, Note_on_c, 8, 62, 90
10, 117300, Note_on_c, 8, 62, 0
10, 117300, Note_on_c, 8, 61, 90
10, 117359, Note_on_c, 8, 61, 0
10, 117360, Note_on_c, 8, 62, 90
10, 117419, Note_on_c, 8, 62, 0
10, 117420, Note_on_c, 8, 64, 90
10, 117450, Note_on_c, 8, 64, 0
10, 117450, Note_on_c, 8, 66, 90
10, 117480, Note_on_c, 8, 66, 0
10, 117480, Note_on_c, 8, 61, 90
10, 117539, Note_on_c, 8, 61, 0
10, 117600, Note_on_c, 8, 57, 90
10, 117720, Note_on_c, 8, 57, 0
10, 117900, Note_on_c, 8, 62, 90
10, 117959, Note_on_c, 8, 62, 0
10, 117960, Note_on_c, 8, 62, 90
10, 118019, Note_on_c, 8, 62, 0
10, 118020, Note_on_c, 8, 57, 90
10, 118079, Note_on_c, 8, 57, 0
10, 118080, Note_on_c, 8, 57, 90
10, 118139, Note_on_c, 8, 57, 0
10, 118140, Note_on_c, 8, 64, 90
10, 118199, Note_on_c, 8, 64, 0
10, 118200, Note_on_c, 8, 62, 90
10, 118259, Note_on_c, 8, 62, 0
10, 118260, Note_on_c, 8, 66, 90
10, 118319, Note_on_c, 8, 66, 0
10, 118320, Note_on_c, 8, 62, 90
10, 118379, Note_on_c, 8, 62, 0
10, 118380, Note_on_c, 8, 66, 90
10, 118439, Note_on_c, 8, 66, 0
10, 118440, Note_on_c, 8, 62, 90
10, 118499, Note_on_c, 8, 62, 0
10, 118500, Note_on_c, 8, 61, 90
10, 118559, Note_on_c, 8, 61, 0
10, 118560, Note_on_c, 8, 62, 90
10, 118619, Note_on_c, 8, 62, 0
10, 118620, Note_on_c, 8, 69, 90
10, 118679, Note_on_c, 8, 69, 0
10, 118680, Note_on_c, 8, 64, 90
10, 118739, Note_on_c, 8, 64, 0
10, 118740, Note_on_c, 8, 57, 90
10, 118799, Note_on_c, 8, 57, 0
10, 118800, Note_on_c, 8, 55, 90
10, 118859, Note_on_c, 8, 55, 0
10, 118860, Note_on_c, 8, 67, 90
10, 118919, Note_on_c, 8, 67, 0
10, 118920, Note_on_c, 8, 67, 90
10, 118979, Note_on_c, 8, 67, 0
10, 118980, Note_on_c, 8, 55, 90
10, 119039, Note_on_c, 8, 55, 0
10, 119040, Note_on_c, 8, 55, 90
10, 119099, Note_on_c, 8, 55, 0
10, 119100, Note_on_c, 8, 69, 90
10, 119159, Note_on_c, 8, 69, 0
10, 119160, Note_on_c, 8, 67, 90
10, 119219, Note_on_c, 8, 67, 0
10, 119220, Note_on_c, 8, 55, 90
10, 119279, Note_on_c, 8, 55, 0
10, 119280, Note_on_c, 8, 55, 90
10, 119339, Note_on_c, 8, 55, 0
10, 119340, Note_on_c, 8, 67, 90
10, 119399, Note_on_c, 8, 67, 0
10, 119400, Note_on_c, 8, 67, 90
10, 119459, Note_on_c, 8, 67, 0
10, 119460, Note_on_c, 8, 55, 90
10, 119519, Note_on_c, 8, 55, 0
10, 119520, Note_on_c, 8, 55, 90
10, 119579, Note_on_c, 8, 55, 0
10, 119580, Note_on_c, 8, 62, 90
10, 119639, Note_on_c, 8, 62, 0
10, 119640, Note_on_c, 8, 57, 90
10, 119699, Note_on_c, 8, 57, 0
10, 119700, Note_on_c, 8, 62, 90
10, 119759, Note_on_c, 8, 62, 0
10, 119760, Note_on_c, 8, 60, 90
10, 119819, Note_on_c, 8, 60, 0
10, 120720, Note_on_c, 8, 55, 90
10, 120779, Note_on_c, 8, 55, 0
10, 120780, Note_on_c, 8, 60, 90
10, 120839, Note_on_c, 8, 60, 0
10, 120840, Note_on_c, 8, 60, 90
10, 120899, Note_on_c, 8, 60, 0
10, 120900, Note_on_c, 8, 64, 90
10, 120959, Note_on_c, 8, 64, 0
10, 120960, Note_on_c, 8, 66, 90
10, 121110, Note_on_c, 8, 66, 0
10, 121110, Note_on_c, 8, 64, 90
10, 121139, Note_on_c, 8, 64, 0
10, 121140, Note_on_c, 8, 62, 90
10, 121169, Note_on_c, 8, 62, 0
10, 121170, Note_on_c, 8, 60, 90
10, 121199, Note_on_c, 8, 60, 0
10, 121200, Note_on_c, 8, 59, 90
10, 121259, Note_on_c, 8, 59, 0
10, 121260, Note_on_c, 8, 64, 90
10, 121319, Note_on_c, 8, 64, 0
10, 121320, Note_on_c, 8, 62, 90
10, 121379, Note_on_c, 8, 62, 0
10, 121380, Note_on_c, 8, 60, 90
10, 121439, Note_on_c, 8, 60, 0
10, 121440, Note_on_c, 8, 59, 90
10, 121499, Note_on_c, 8, 59, 0
10, 121560, Note_on_c, 8, 57, 90
10, 121619, Note_on_c, 8, 57, 0
10, 121680, Note_on_c, 8, 57, 90
10, 121739, Note_on_c, 8, 57, 0
10, 121920, Note_on_c, 8, 57, 90
10, 121979, Note_on_c, 8, 57, 0
10, 122040, Note_on_c, 8, 62, 90
10, 122099, Note_on_c, 8, 62, 0
10, 122160, Note_on_c, 8, 62, 90
10, 122219, Note_on_c, 8, 62, 0
10, 122400, Note_on_c, 8, 62, 90
10, 122459, Note_on_c, 8, 62, 0
10, 122520, Note_on_c, 8, 64, 90
10, 122579, Note_on_c, 8, 64, 0
10, 122640, Note_on_c, 8, 64, 90
10, 122699, Note_on_c, 8, 64, 0
10, 122880, Note_on_c, 8, 55, 90
10, 122939, Note_on_c, 8, 55, 0
10, 123000, Note_on_c, 8, 57, 90
10, 123059, Note_on_c, 8, 57, 0
10, 123120, Note_on_c, 8, 57, 90
10, 123179, Note_on_c, 8, 57, 0
10, 124560, Note_on_c, 8, 55, 90
10, 125520, Note_on_c, 8, 55, 0
10, 125520, Note_on_c, 8, 60, 90
10, 125639, Note_on_c, 8, 60, 0
10, 125640, Note_on_c, 8, 57, 90
10, 125759, Note_on_c, 8, 57, 0
10, 125760, Note_on_c, 8, 60, 90
10, 125879, Note_on_c, 8, 60, 0
10, 125880, Note_on_c, 8, 57, 90
10, 125999, Note_on_c, 8, 57, 0
10, 126000, Note_on_c, 8, 60, 90
10, 126119, Note_on_c, 8, 60, 0
10, 126120, Note_on_c, 8, 57, 90
10, 126239, Note_on_c, 8, 57, 0
10, 126240, Note_on_c, 8, 62, 90
10, 126299, Note_on_c, 8, 62, 0
10, 126300, Note_on_c, 8, 60, 90
10, 126359, Note_on_c, 8, 60, 0
10, 126360, Note_on_c, 8, 62, 90
10, 126479, Note_on_c, 8, 62, 0
10, 126480, Note_on_c, 8, 62, 90
10, 126539, Note_on_c, 8, 62, 0
10, 126540, Note_on_c, 8, 55, 90
10, 126599, Note_on_c, 8, 55, 0
10, 126600, Note_on_c, 8, 55, 90
10, 126659, Note_on_c, 8, 55, 0
10, 126660, Note_on_c, 8, 60, 90
10, 126719, Note_on_c, 8, 60, 0
10, 126720, Note_on_c, 8, 60, 90
10, 126779, Note_on_c, 8, 60, 0
10, 126780, Note_on_c, 8, 62, 90
10, 126809, Note_on_c, 8, 62, 0
10, 126810, Note_on_c, 8, 60, 90
10, 126839, Note_on_c, 8, 60, 0
10, 126840, Note_on_c, 8, 62, 90
10, 126899, Note_on_c, 8, 62, 0
10, 126900, Note_on_c, 8, 55, 90
10, 126959, Note_on_c, 8, 55, 0
10, 126960, Note_on_c, 8, 55, 90
10, 127019, Note_on_c, 8, 55, 0
10, 127020, Note_on_c, 8, 60, 90
10, 127079, Note_on_c, 8, 60, 0
10, 127080, Note_on_c, 8, 60, 90
10, 127139, Note_on_c, 8, 60, 0
10, 127140, Note_on_c, 8, 59, 90
10, 127199, Note_on_c, 8, 59, 0
10, 127200, Note_on_c, 8, 59, 90
10, 127439, Note_on_c, 8, 59, 0
10, 127440, Note_on_c, 8, 55, 90
10, 127499, Note_on_c, 8, 55, 0
10, 127560, Note_on_c, 8, 60, 90
10, 127619, Note_on_c, 8, 60, 0
10, 127680, Note_on_c, 8, 57, 90
10, 127739, Note_on_c, 8, 57, 0
10, 127800, Note_on_c, 8, 59, 90
10, 127859, Note_on_c, 8, 59, 0
10, 127920, Note_on_c, 8, 59, 90
10, 127979, Note_on_c, 8, 59, 0
10, 127980, Note_on_c, 8, 64, 90
10, 128039, Note_on_c, 8, 64, 0
10, 128040, Note_on_c, 8, 62, 90
10, 128099, Note_on_c, 8, 62, 0
10, 128100, Note_on_c, 8, 60, 90
10, 128159, Note_on_c, 8, 60, 0
10, 128160, Note_on_c, 8, 59, 90
10, 128399, Note_on_c, 8, 59, 0
10, 131070, Note_on_c, 8, 68, 90
10, 131099, Note_on_c, 8, 68, 0
10, 131100, Note_on_c, 8, 69, 90
10, 131129, Note_on_c, 8, 69, 0
10, 131130, Note_on_c, 8, 71, 90
10, 131159, Note_on_c, 8, 71, 0
10, 131160, Note_on_c, 8, 64, 90
10, 131219, Note_on_c, 8, 64, 0
10, 132510, Note_on_c, 8, 63, 90
10, 132539, Note_on_c, 8, 63, 0
10, 132540, Note_on_c, 8, 64, 90
10, 132569, Note_on_c, 8, 64, 0
10, 132570, Note_on_c, 8, 66, 90
10, 132599, Note_on_c, 8, 66, 0
10, 132600, Note_on_c, 8, 59, 90
10, 132659, Note_on_c, 8, 59, 0
10, 132990, Note_on_c, 8, 66, 90
10, 133019, Note_on_c, 8, 66, 0
10, 133020, Note_on_c, 8, 67, 90
10, 133049, Note_on_c, 8, 67, 0
10, 133050, Note_on_c, 8, 69, 90
10, 133079, Note_on_c, 8, 69, 0
10, 133080, Note_on_c, 8, 59, 90
10, 133139, Note_on_c, 8, 59, 0
10, 133710, Note_on_c, 8, 63, 90
10, 133739, Note_on_c, 8, 63, 0
10, 133740, Note_on_c, 8, 64, 90
10, 133769, Note_on_c, 8, 64, 0
10, 133770, Note_on_c, 8, 66, 90
10, 133799, Note_on_c, 8, 66, 0
10, 133800, Note_on_c, 8, 59, 90
10, 133859, Note_on_c, 8, 59, 0
10, 134640, Note_on_c, 8, 64, 90
10, 134699, Note_on_c, 8, 64, 0
10, 134760, Note_on_c, 8, 61, 90
10, 134819, Note_on_c, 8, 61, 0
10, 134880, Note_on_c, 8, 63, 90
10, 134939, Note_on_c, 8, 63, 0
10, 135120, Note_on_c, 8, 66, 90
10, 135179, Note_on_c, 8, 66, 0
10, 135240, Note_on_c, 8, 69, 90
10, 135299, Note_on_c, 8, 69, 0
10, 135360, Note_on_c, 8, 68, 90
10, 135419, Note_on_c, 8, 68, 0
10, 135600, Note_on_c, 8, 68, 90
10, 135659, Note_on_c, 8, 68, 0
10, 135720, Note_on_c, 8, 68, 90
10, 135779, Note_on_c, 8, 68, 0
10, 135840, Note_on_c, 8, 64, 90
10, 135899, Note_on_c, 8, 64, 0
10, 135960, Note_on_c, 8, 57, 90
10, 136019, Note_on_c, 8, 57, 0
10, 136080, Note_on_c, 8, 62, 90
10, 136139, Note_on_c, 8, 62, 0
10, 136200, Note_on_c, 8, 57, 90
10, 136259, Note_on_c, 8, 57, 0
10, 136320, Note_on_c, 8, 60, 90
10, 136379, Note_on_c, 8, 60, 0
10, 136440, Note_on_c, 8, 66, 90
10, 136499, Note_on_c, 8, 66, 0
10, 136560, Note_on_c, 8, 64, 90
10, 136619, Note_on_c, 8, 64, 0
10, 136680, Note_on_c, 8, 64, 90
10, 136739, Note_on_c, 8, 64, 0
10, 136800, Note_on_c, 8, 66, 90
10, 136859, Note_on_c, 8, 66, 0
10, 138000, Note_on_c, 8, 55, 100
10, 138960, Note_on_c, 8, 55, 0
10, 138960, Note_on_c, 8, 60, 90
10, 139079, Note_on_c, 8, 60, 0
10, 139080, Note_on_c, 8, 57, 90
10, 139199, Note_on_c, 8, 57, 0
10, 139200, Note_on_c, 8, 60, 90
10, 139319, Note_on_c, 8, 60, 0
10, 139320, Note_on_c, 8, 57, 90
10, 139439, Note_on_c, 8, 57, 0
10, 139440, Note_on_c, 8, 60, 90
10, 139559, Note_on_c, 8, 60, 0
10, 139560, Note_on_c, 8, 57, 90
10, 139679, Note_on_c, 8, 57, 0
10, 139680, Note_on_c, 8, 62, 90
10, 139739, Note_on_c, 8, 62, 0
10, 139740, Note_on_c, 8, 60, 90
10, 139799, Note_on_c, 8, 60, 0
10, 139800, Note_on_c, 8, 62, 90
10, 139919, Note_on_c, 8, 62, 0
10, 139920, Note_on_c, 8, 62, 90
10, 139979, Note_on_c, 8, 62, 0
10, 139980, Note_on_c, 8, 55, 90
10, 140039, Note_on_c, 8, 55, 0
10, 140040, Note_on_c, 8, 55, 90
10, 140099, Note_on_c, 8, 55, 0
10, 140100, Note_on_c, 8, 60, 90
10, 140159, Note_on_c, 8, 60, 0
10, 140160, Note_on_c, 8, 60, 90
10, 140219, Note_on_c, 8, 60, 0
10, 140220, Note_on_c, 8, 62, 90
10, 140249, Note_on_c, 8, 62, 0
10, 140250, Note_on_c, 8, 60, 90
10, 140279, Note_on_c, 8, 60, 0
10, 140280, Note_on_c, 8, 62, 90
10, 140339, Note_on_c, 8, 62, 0
10, 140340, Note_on_c, 8, 55, 90
10, 140399, Note_on_c, 8, 55, 0
10, 140400, Note_on_c, 8, 55, 90
10, 140459, Note_on_c, 8, 55, 0
10, 140460, Note_on_c, 8, 60, 90
10, 140519, Note_on_c, 8, 60, 0
10, 140520, Note_on_c, 8, 60, 90
10, 140579, Note_on_c, 8, 60, 0
10, 140580, Note_on_c, 8, 59, 90
10, 140639, Note_on_c, 8, 59, 0
10, 140640, Note_on_c, 8, 59, 90
10, 140879, Note_on_c, 8, 59, 0
10, 140880, Note_on_c, 8, 55, 90
10, 140939, Note_on_c, 8, 55, 0
10, 141000, Note_on_c, 8, 60, 90
10, 141059, Note_on_c, 8, 60, 0
10, 141120, Note_on_c, 8, 57, 90
10, 141179, Note_on_c, 8, 57, 0
10, 141240, Note_on_c, 8, 59, 90
10, 141299, Note_on_c, 8, 59, 0
10, 141360, Note_on_c, 8, 59, 90
10, 141419, Note_on_c, 8, 59, 0
10, 141420, Note_on_c, 8, 64, 90
10, 141479, Note_on_c, 8, 64, 0
10, 141480, Note_on_c, 8, 62, 90
10, 141539, Note_on_c, 8, 62, 0
10, 141540, Note_on_c, 8, 60, 90
10, 141599, Note_on_c, 8, 60, 0
10, 141600, Note_on_c, 8, 59, 90
10, 141659, Note_on_c, 8, 59, 0
10, 141720, Note_on_c, 8, 57, 90
10, 141779, Note_on_c, 8, 57, 0
10, 141840, Note_on_c, 8, 57, 90
10, 141899, Note_on_c, 8, 57, 0
10, 142080, Note_on_c, 8, 57, 90
10, 142139, Note_on_c, 8, 57, 0
10, 142200, Note_on_c, 8, 62, 90
10, 142259, Note_on_c, 8, 62, 0
10, 142320, Note_on_c, 8, 55, 90
10, 142379, Note_on_c, 8, 55, 0
10, 142560, Note_on_c, 8, 62, 90
10, 142619, Note_on_c, 8, 62, 0
10, 142680, Note_on_c, 8, 64, 90
10, 142739, Note_on_c, 8, 64, 0
10, 142800, Note_on_c, 8, 64, 90
10, 142859, Note_on_c, 8, 64, 0
10, 143040, Note_on_c, 8, 55, 90
10, 143099, Note_on_c, 8, 55, 0
10, 143160, Note_on_c, 8, 57, 90
10, 143219, Note_on_c, 8, 57, 0
10, 143280, Note_on_c, 8, 57, 90
10, 143339, Note_on_c, 8, 57, 0
10, 143520, Note_on_c, 8, 60, 90
10, 143579, Note_on_c, 8, 60, 0
10, 143640, Note_on_c, 8, 62, 90
10, 143699, Note_on_c, 8, 62, 0
10, 143760, Note_on_c, 8, 62, 90
10, 143819, Note_on_c, 8, 62, 0
10, 143940, Note_on_c, 8, 64, 90
10, 143999, Note_on_c, 8, 64, 0
10, 144000, Note_on_c, 8, 62, 90
10, 144059, Note_on_c, 8, 62, 0
10, 144060, Note_on_c, 8, 60, 90
10, 144089, Note_on_c, 8, 60, 0
10, 144090, Note_on_c, 8, 59, 90
10, 144119, Note_on_c, 8, 59, 0
10, 144120, Note_on_c, 8, 57, 90
10, 144179, Note_on_c, 8, 57, 0
10, 144180, Note_on_c, 8, 62, 90
10, 144299, Note_on_c, 8, 62, 0
10, 144300, Note_on_c, 8, 60, 90
10, 144329, Note_on_c, 8, 60, 0
10, 144330, Note_on_c, 8, 59, 90
10, 144359, Note_on_c, 8, 59, 0
10, 144360, Note_on_c, 8, 57, 90
10, 144419, Note_on_c, 8, 57, 0
10, 144420, Note_on_c, 8, 66, 90
10, 144479, Note_on_c, 8, 66, 0
10, 144480, Note_on_c, 8, 62, 90
10, 144599, Note_on_c, 8, 62, 0
10, 144720, Note_on_c, 8, 55, 100
10, 145020, Note_on_c, 8, 55, 0
10, 145020, Note_on_c, 8, 60, 90
10, 145079, Note_on_c, 8, 60, 0
10, 145080, Note_on_c, 8, 62, 90
10, 145139, Note_on_c, 8, 62, 0
10, 145140, Note_on_c, 8, 59, 90
10, 145199, Note_on_c, 8, 59, 0
10, 145200, Note_on_c, 8, 62, 90
10, 145259, Note_on_c, 8, 62, 0
10, 145320, Note_on_c, 8, 67, 90
10, 145379, Note_on_c, 8, 67, 0
10, 145440, Note_on_c, 8, 65, 90
10, 145559, Note_on_c, 8, 65, 0
10, 145680, Note_on_c, 8, 55, 90
10, 145739, Note_on_c, 8, 55, 0
10, 145800, Note_on_c, 8, 57, 90
10, 145859, Note_on_c, 8, 57, 0
10, 145920, Note_on_c, 8, 56, 90
10, 145979, Note_on_c, 8, 56, 0
10, 146040, Note_on_c, 8, 64, 90
10, 146099, Note_on_c, 8, 64, 0
10, 146160, Note_on_c, 8, 64, 90
10, 146219, Note_on_c, 8, 64, 0
10, 146280, Note_on_c, 8, 57, 90
10, 146339, Note_on_c, 8, 57, 0
10, 146400, Note_on_c, 8, 69, 90
10, 146519, Note_on_c, 8, 69, 0
10, 146640, Note_on_c, 8, 62, 90
10, 146759, Note_on_c, 8, 62, 0
10, 146760, Note_on_c, 8, 57, 90
10, 146879, Note_on_c, 8, 57, 0
10, 146880, Note_on_c, 8, 60, 90
10, 146999, Note_on_c, 8, 60, 0
10, 147000, Note_on_c, 8, 57, 90
10, 147119, Note_on_c, 8, 57, 0
10, 147120, Note_on_c, 8, 62, 90
10, 147239, Note_on_c, 8, 62, 0
10, 147240, Note_on_c, 8, 66, 90
10, 147359, Note_on_c, 8, 66, 0
10, 147360, Note_on_c, 8, 62, 90
10, 147479, Note_on_c, 8, 62, 0
10, 147480, Note_on_c, 8, 55, 90
10, 147599, Note_on_c, 8, 55, 0
10, 147600, Note_on_c, 8, 62, 90
10, 147659, Note_on_c, 8, 62, 0
10, 147660, Note_on_c, 8, 55, 90
10, 147719, Note_on_c, 8, 55, 0
10, 147720, Note_on_c, 8, 55, 90
10, 147779, Note_on_c, 8, 55, 0
10, 147780, Note_on_c, 8, 60, 90
10, 147839, Note_on_c, 8, 60, 0
10, 147840, Note_on_c, 8, 60, 90
10, 147899, Note_on_c, 8, 60, 0
10, 147900, Note_on_c, 8, 62, 90
10, 147929, Note_on_c, 8, 62, 0
10, 147930, Note_on_c, 8, 60, 90
10, 147959, Note_on_c, 8, 60, 0
10, 147960, Note_on_c, 8, 62, 90
10, 148019, Note_on_c, 8, 62, 0
10, 148020, Note_on_c, 8, 55, 90
10, 148079, Note_on_c, 8, 55, 0
10, 148080, Note_on_c, 8, 55, 90
10, 148139, Note_on_c, 8, 55, 0
10, 148140, Note_on_c, 8, 60, 90
10, 148199, Note_on_c, 8, 60, 0
10, 148200, Note_on_c, 8, 60, 90
10, 148259, Note_on_c, 8, 60, 0
10, 148260, Note_on_c, 8, 59, 90
10, 148319, Note_on_c, 8, 59, 0
10, 148320, Note_on_c, 8, 59, 90
10, 148559, Note_on_c, 8, 59, 0
10, 148560, Note_on_c, 8, 55, 90
10, 149279, Note_on_c, 8, 55, 0
10, 149280, Note_on_c, 8, 57, 90
10, 149399, Note_on_c, 8, 57, 0
10, 149400, Note_on_c, 8, 62, 90
10, 149579, Note_on_c, 8, 62, 0
10, 149580, Note_on_c, 8, 59, 90
10, 149639, Note_on_c, 8, 59, 0
10, 149640, Note_on_c, 8, 55, 90
10, 149699, Note_on_c, 8, 55, 0
10, 149700, Note_on_c, 8, 62, 90
10, 149759, Note_on_c, 8, 62, 0
10, 149760, Note_on_c, 8, 66, 90
10, 149819, Note_on_c, 8, 66, 0
10, 149820, Note_on_c, 8, 60, 90
10, 149879, Note_on_c, 8, 60, 0
10, 149880, Note_on_c, 8, 62, 90
10, 149939, Note_on_c, 8, 62, 0
10, 149940, Note_on_c, 8, 59, 90
10, 149999, Note_on_c, 8, 59, 0
10, 150000, Note_on_c, 8, 67, 90
10, 150059, Note_on_c, 8, 67, 0
10, 150060, Note_on_c, 8, 62, 90
10, 150119, Note_on_c, 8, 62, 0
10, 150120, Note_on_c, 8, 67, 90
10, 150179, Note_on_c, 8, 67, 0
10, 150180, Note_on_c, 8, 62, 90
10, 150239, Note_on_c, 8, 62, 0
10, 150240, Note_on_c, 8, 57, 90
10, 150299, Note_on_c, 8, 57, 0
10, 150300, Note_on_c, 8, 64, 90
10, 150359, Note_on_c, 8, 64, 0
10, 150360, Note_on_c, 8, 61, 90
10, 150419, Note_on_c, 8, 61, 0
10, 150420, Note_on_c, 8, 57, 90
10, 150479, Note_on_c, 8, 57, 0
10, 150480, Note_on_c, 8, 62, 90
10, 150599, Note_on_c, 8, 62, 0
10, 151200, Note_on_c, 8, 57, 90
10, 151259, Note_on_c, 8, 57, 0
10, 151320, Note_on_c, 8, 59, 90
10, 151379, Note_on_c, 8, 59, 0
10, 151440, Note_on_c, 8, 64, 90
10, 151499, Note_on_c, 8, 64, 0
10, 151680, Note_on_c, 8, 64, 90
10, 151739, Note_on_c, 8, 64, 0
10, 151800, Note_on_c, 8, 69, 90
10, 151859, Note_on_c, 8, 69, 0
10, 151920, Note_on_c, 8, 62, 90
10, 151979, Note_on_c, 8, 62, 0
10, 152160, Note_on_c, 8, 57, 90
10, 152219, Note_on_c, 8, 57, 0
10, 152280, Note_on_c, 8, 59, 90
10, 152339, Note_on_c, 8, 59, 0
10, 152400, Note_on_c, 8, 59, 90
10, 152459, Note_on_c, 8, 59, 0
10, 152520, Note_on_c, 8, 59, 90
10, 152579, Note_on_c, 8, 59, 0
10, 152640, Note_on_c, 8, 62, 90
10, 152699, Note_on_c, 8, 62, 0
10, 152760, Note_on_c, 8, 64, 90
10, 152819, Note_on_c, 8, 64, 0
10, 152880, Note_on_c, 8, 64, 90
10, 152939, Note_on_c, 8, 64, 0
10, 153000, Note_on_c, 8, 64, 90
10, 153059, Note_on_c, 8, 64, 0
10, 153120, Note_on_c, 8, 55, 90
10, 153179, Note_on_c, 8, 55, 0
10, 153240, Note_on_c, 8, 57, 90
10, 153299, Note_on_c, 8, 57, 0
10, 153360, Note_on_c, 8, 57, 90
10, 153419, Note_on_c, 8, 57, 0
10, 153480, Note_on_c, 8, 57, 90
10, 153539, Note_on_c, 8, 57, 0
10, 153540, Note_on_c, 8, 59, 90
10, 153599, Note_on_c, 8, 59, 0
10, 153600, Note_on_c, 8, 57, 90
10, 153659, Note_on_c, 8, 57, 0
10, 153660, Note_on_c, 8, 62, 90
10, 153780, Note_on_c, 8, 62, 0
10, 153780, Note_on_c, 8, 61, 90
10, 153839, Note_on_c, 8, 61, 0
10, 153840, Note_on_c, 8, 62, 90
10, 153899, Note_on_c, 8, 62, 0
10, 153900, Note_on_c, 8, 64, 90
10, 153930, Note_on_c, 8, 64, 0
10, 153930, Note_on_c, 8, 66, 90
10, 153960, Note_on_c, 8, 66, 0
10, 153960, Note_on_c, 8, 61, 90
10, 154019, Note_on_c, 8, 61, 0
10, 154080, Note_on_c, 8, 57, 90
10, 154200, Note_on_c, 8, 57, 0
10, 154380, Note_on_c, 8, 62, 90
10, 154439, Note_on_c, 8, 62, 0
10, 154440, Note_on_c, 8, 62, 90
10, 154499, Note_on_c, 8, 62, 0
10, 154500, Note_on_c, 8, 57, 90
10, 154559, Note_on_c, 8, 57, 0
10, 154560, Note_on_c, 8, 57, 90
10, 154619, Note_on_c, 8, 57, 0
10, 154620, Note_on_c, 8, 64, 90
10, 154679, Note_on_c, 8, 64, 0
10, 154680, Note_on_c, 8, 62, 90
10, 154739, Note_on_c, 8, 62, 0
10, 154740, Note_on_c, 8, 66, 90
10, 154799, Note_on_c, 8, 66, 0
10, 154800, Note_on_c, 8, 62, 90
10, 154859, Note_on_c, 8, 62, 0
10, 154860, Note_on_c, 8, 66, 90
10, 154919, Note_on_c, 8, 66, 0
10, 154920, Note_on_c, 8, 62, 90
10, 154979, Note_on_c, 8, 62, 0
10, 154980, Note_on_c, 8, 61, 90
10, 155039, Note_on_c, 8, 61, 0
10, 155040, Note_on_c, 8, 62, 90
10, 155099, Note_on_c, 8, 62, 0
10, 155100, Note_on_c, 8, 69, 90
10, 155159, Note_on_c, 8, 69, 0
10, 155160, Note_on_c, 8, 64, 90
10, 155219, Note_on_c, 8, 64, 0
10, 155220, Note_on_c, 8, 57, 90
10, 155279, Note_on_c, 8, 57, 0
10, 155280, Note_on_c, 8, 55, 90
10, 155339, Note_on_c, 8, 55, 0
10, 155340, Note_on_c, 8, 67, 90
10, 155399, Note_on_c, 8, 67, 0
10, 155400, Note_on_c, 8, 67, 90
10, 155459, Note_on_c, 8, 67, 0
10, 155460, Note_on_c, 8, 55, 90
10, 155519, Note_on_c, 8, 55, 0
10, 155520, Note_on_c, 8, 55, 90
10, 155579, Note_on_c, 8, 55, 0
10, 155580, Note_on_c, 8, 69, 90
10, 155639, Note_on_c, 8, 69, 0
10, 155640, Note_on_c, 8, 67, 90
10, 155699, Note_on_c, 8, 67, 0
10, 155700, Note_on_c, 8, 55, 90
10, 155759, Note_on_c, 8, 55, 0
10, 155760, Note_on_c, 8, 55, 90
10, 155819, Note_on_c, 8, 55, 0
10, 155820, Note_on_c, 8, 67, 90
10, 155879, Note_on_c, 8, 67, 0
10, 155880, Note_on_c, 8, 67, 90
10, 155939, Note_on_c, 8, 67, 0
10, 155940, Note_on_c, 8, 55, 90
10, 155999, Note_on_c, 8, 55, 0
10, 156000, Note_on_c, 8, 55, 90
10, 156059, Note_on_c, 8, 55, 0
10, 156060, Note_on_c, 8, 62, 90
10, 156119, Note_on_c, 8, 62, 0
10, 156120, Note_on_c, 8, 57, 90
10, 156179, Note_on_c, 8, 57, 0
10, 156180, Note_on_c, 8, 62, 90
10, 156239, Note_on_c, 8, 62, 0
10, 156240, Note_on_c, 8, 60, 90
10, 156299, Note_on_c, 8, 60, 0
10, 157200, Note_on_c, 8, 55, 90
10, 157259, Note_on_c, 8, 55, 0
10, 157260, Note_on_c, 8, 60, 90
10, 157319, Note_on_c, 8, 60, 0
10, 157320, Note_on_c, 8, 60, 90
10, 157379, Note_on_c, 8, 60, 0
10, 157380, Note_on_c, 8, 64, 90
10, 157439, Note_on_c, 8, 64, 0
10, 157440, Note_on_c, 8, 66, 90
10, 157590, Note_on_c, 8, 66, 0
10, 157590, Note_on_c, 8, 64, 90
10, 157619, Note_on_c, 8, 64, 0
10, 157620, Note_on_c, 8, 62, 90
10, 157649, Note_on_c, 8, 62, 0
10, 157650, Note_on_c, 8, 60, 90
10, 157679, Note_on_c, 8, 60, 0
10, 157680, Note_on_c, 8, 59, 90
10, 157739, Note_on_c, 8, 59, 0
10, 157740, Note_on_c, 8, 64, 90
10, 157799, Note_on_c, 8, 64, 0
10, 157800, Note_on_c, 8, 62, 90
10, 157859, Note_on_c, 8, 62, 0
10, 157860, Note_on_c, 8, 60, 90
10, 157919, Note_on_c, 8, 60, 0
10, 157920, Note_on_c, 8, 59, 90
10, 157979, Note_on_c, 8, 59, 0
10, 158040, Note_on_c, 8, 57, 90
10, 158099, Note_on_c, 8, 57, 0
10, 158160, Note_on_c, 8, 57, 90
10, 158219, Note_on_c, 8, 57, 0
10, 158400, Note_on_c, 8, 57, 90
10, 158459, Note_on_c, 8, 57, 0
10, 158520, Note_on_c, 8, 62, 90
10, 158579, Note_on_c, 8, 62, 0
10, 158640, Note_on_c, 8, 62, 90
10, 158699, Note_on_c, 8, 62, 0
10, 158880, Note_on_c, 8, 62, 90
10, 158939, Note_on_c, 8, 62, 0
10, 159000, Note_on_c, 8, 64, 90
10, 159059, Note_on_c, 8, 64, 0
10, 159120, Note_on_c, 8, 64, 90
10, 159179, Note_on_c, 8, 64, 0
10, 159360, Note_on_c, 8, 55, 90
10, 159419, Note_on_c, 8, 55, 0
10, 159480, Note_on_c, 8, 57, 90
10, 159539, Note_on_c, 8, 57, 0
10, 159600, Note_on_c, 8, 57, 90
10, 159659, Note_on_c, 8, 57, 0
10, 161040, Note_on_c, 8, 55, 90
10, 162000, Note_on_c, 8, 55, 0
10, 162000, Note_on_c, 8, 60, 90
10, 162119, Note_on_c, 8, 60, 0
10, 162120, Note_on_c, 8, 57, 90
10, 162239, Note_on_c, 8, 57, 0
10, 162240, Note_on_c, 8, 60, 90
10, 162359, Note_on_c, 8, 60, 0
10, 162360, Note_on_c, 8, 57, 90
10, 162479, Note_on_c, 8, 57, 0
10, 162480, Note_on_c, 8, 60, 90
10, 162599, Note_on_c, 8, 60, 0
10, 162600, Note_on_c, 8, 57, 90
10, 162719, Note_on_c, 8, 57, 0
10, 162720, Note_on_c, 8, 62, 90
10, 162779, Note_on_c, 8, 62, 0
10, 162780, Note_on_c, 8, 60, 90
10, 162839, Note_on_c, 8, 60, 0
10, 162840, Note_on_c, 8, 62, 90
10, 162959, Note_on_c, 8, 62, 0
10, 162960, Note_on_c, 8, 62, 90
10, 163019, Note_on_c, 8, 62, 0
10, 163020, Note_on_c, 8, 55, 90
10, 163079, Note_on_c, 8, 55, 0
10, 163080, Note_on_c, 8, 55, 90
10, 163139, Note_on_c, 8, 55, 0
10, 163140, Note_on_c, 8, 60, 90
10, 163199, Note_on_c, 8, 60, 0
10, 163200, Note_on_c, 8, 60, 90
10, 163259, Note_on_c, 8, 60, 0
10, 163260, Note_on_c, 8, 62, 90
10, 163289, Note_on_c, 8, 62, 0
10, 163290, Note_on_c, 8, 60, 90
10, 163319, Note_on_c, 8, 60, 0
10, 163320, Note_on_c, 8, 62, 90
10, 163379, Note_on_c, 8, 62, 0
10, 163380, Note_on_c, 8, 55, 90
10, 163439, Note_on_c, 8, 55, 0
10, 163440, Note_on_c, 8, 55, 90
10, 163499, Note_on_c, 8, 55, 0
10, 163500, Note_on_c, 8, 60, 90
10, 163559, Note_on_c, 8, 60, 0
10, 163560, Note_on_c, 8, 60, 90
10, 163619, Note_on_c, 8, 60, 0
10, 163620, Note_on_c, 8, 59, 90
10, 163679, Note_on_c, 8, 59, 0
10, 163680, Note_on_c, 8, 59, 90
10, 163919, Note_on_c, 8, 59, 0
10, 163920, Note_on_c, 8, 55, 90
10, 163979, Note_on_c, 8, 55, 0
10, 164040, Note_on_c, 8, 60, 90
10, 164099, Note_on_c, 8, 60, 0
10, 164160, Note_on_c, 8, 57, 90
10, 164219, Note_on_c, 8, 57, 0
10, 164280, Note_on_c, 8, 59, 90
10, 164339, Note_on_c, 8, 59, 0
10, 164400, Note_on_c, 8, 59, 90
10, 164459, Note_on_c, 8, 59, 0
10, 164460, Note_on_c, 8, 64, 90
10, 164519, Note_on_c, 8, 64, 0
10, 164520, Note_on_c, 8, 62, 90
10, 164579, Note_on_c, 8, 62, 0
10, 164580, Note_on_c, 8, 60, 90
10, 164639, Note_on_c, 8, 60, 0
10, 164640, Note_on_c, 8, 59, 90
10, 164879, Note_on_c, 8, 59, 0
10, 167400, Note_on_c, 8, 67, 90
10, 167460, Note_on_c, 8, 67, 0
10, 167580, Note_on_c, 8, 64, 90
10, 167610, Note_on_c, 8, 64, 0
10, 167640, Note_on_c, 8, 69, 90
10, 167670, Note_on_c, 8, 69, 0
10, 167820, Note_on_c, 8, 64, 90
10, 167850, Note_on_c, 8, 64, 0
10, 167880, Note_on_c, 8, 62, 90
10, 167910, Note_on_c, 8, 62, 0
10, 168060, Note_on_c, 8, 59, 90
10, 168090, Note_on_c, 8, 59, 0
10, 168120, Note_on_c, 8, 64, 90
10, 168150, Note_on_c, 8, 64, 0
10, 168300, Note_on_c, 8, 64, 90
10, 168330, Note_on_c, 8, 64, 0
10, 168360, Note_on_c, 8, 69, 90
10, 168390, Note_on_c, 8, 69, 0
10, 168540, Note_on_c, 8, 69, 90
10, 168570, Note_on_c, 8, 69, 0
10, 168600, Note_on_c, 8, 64, 90
10, 168630, Note_on_c, 8, 64, 0
10, 168780, Note_on_c, 8, 64, 90
10, 168810, Note_on_c, 8, 64, 0
10, 168840, Note_on_c, 8, 57, 90
10, 168870, Note_on_c, 8, 57, 0
10, 169020, Note_on_c, 8, 71, 90
10, 169050, Note_on_c, 8, 71, 0
10, 169080, Note_on_c, 8, 67, 90
10, 169110, Note_on_c, 8, 67, 0
10, 169260, Note_on_c, 8, 69, 90
10, 169290, Note_on_c, 8, 69, 0
10, 169320, Note_on_c, 8, 66, 90
10, 169350, Note_on_c, 8, 66, 0
10, 169500, Note_on_c, 8, 67, 90
10, 169530, Note_on_c, 8, 67, 0
10, 169560, Note_on_c, 8, 64, 90
10, 169590, Note_on_c, 8, 64, 0
10, 169740, Note_on_c, 8, 69, 90
10, 169770, Note_on_c, 8, 69, 0
10, 169800, Note_on_c, 8, 66, 90
10, 169830, Note_on_c, 8, 66, 0
10, 169980, Note_on_c, 8, 64, 90
10, 170010, Note_on_c, 8, 64, 0
10, 170040, Note_on_c, 8, 66, 90
10, 170070, Note_on_c, 8, 66, 0
10, 170220, Note_on_c, 8, 67, 90
10, 170250, Note_on_c, 8, 67, 0
10, 170280, Note_on_c, 8, 67, 90
10, 170310, Note_on_c, 8, 67, 0
10, 170460, Note_on_c, 8, 66, 90
10, 170490, Note_on_c, 8, 66, 0
10, 170520, Note_on_c, 8, 54, 90
10, 170550, Note_on_c, 8, 54, 0
10, 170700, Note_on_c, 8, 52, 90
10, 170730, Note_on_c, 8, 52, 0
10, 170760, Note_on_c, 8, 57, 90
10, 170790, Note_on_c, 8, 57, 0
10, 170940, Note_on_c, 8, 62, 90
10, 170970, Note_on_c, 8, 62, 0
10, 171000, Note_on_c, 8, 57, 90
10, 171030, Note_on_c, 8, 57, 0
10, 171240, Note_on_c, 8, 57, 90
10, 171300, Note_on_c, 8, 57, 0
10, 171420, Note_on_c, 8, 66, 90
10, 171450, Note_on_c, 8, 66, 0
10, 171480, Note_on_c, 8, 64, 90
10, 171510, Note_on_c, 8, 64, 0
10, 171660, Note_on_c, 8, 64, 90
10, 171690, Note_on_c, 8, 64, 0
10, 171720, Note_on_c, 8, 69, 90
10, 171750, Note_on_c, 8, 69, 0
10, 171900, Note_on_c, 8, 69, 90
10, 171930, Note_on_c, 8, 69, 0
10, 171960, Note_on_c, 8, 62, 90
10, 171990, Note_on_c, 8, 62, 0
10, 172200, Note_on_c, 8, 64, 90
10, 172260, Note_on_c, 8, 64, 0
10, 172380, Note_on_c, 8, 68, 90
10, 172410, Note_on_c, 8, 68, 0
10, 172440, Note_on_c, 8, 66, 90
10, 172470, Note_on_c, 8, 66, 0
10, 172620, Note_on_c, 8, 69, 90
10, 172650, Note_on_c, 8, 69, 0
10, 172680, Note_on_c, 8, 62, 90
10, 172710, Note_on_c, 8, 62, 0
10, 172860, Note_on_c, 8, 64, 90
10, 172890, Note_on_c, 8, 64, 0
10, 172920, Note_on_c, 8, 64, 90
10, 172950, Note_on_c, 8, 64, 0
10, 173100, Note_on_c, 8, 63, 90
10, 173130, Note_on_c, 8, 63, 0
10, 173160, Note_on_c, 8, 59, 90
10, 173190, Note_on_c, 8, 59, 0
10, 173340, Note_on_c, 8, 60, 90
10, 173370, Note_on_c, 8, 60, 0
10, 173400, Note_on_c, 8, 59, 90
10, 173430, Note_on_c, 8, 59, 0
10, 173580, Note_on_c, 8, 67, 90
10, 173610, Note_on_c, 8, 67, 0
10, 173640, Note_on_c, 8, 64, 90
10, 173670, Note_on_c, 8, 64, 0
10, 173820, Note_on_c, 8, 63, 90
10, 173850, Note_on_c, 8, 63, 0
10, 173880, Note_on_c, 8, 64, 90
10, 173910, Note_on_c, 8, 64, 0
10, 174060, Note_on_c, 8, 67, 90
10, 174090, Note_on_c, 8, 67, 0
10, 174120, Note_on_c, 8, 66, 90
10, 174150, Note_on_c, 8, 66, 0
10, 174300, Note_on_c, 8, 66, 90
10, 174330, Note_on_c, 8, 66, 0
10, 174360, Note_on_c, 8, 64, 90
10, 174390, Note_on_c, 8, 64, 0
10, 174540, Note_on_c, 8, 64, 90
10, 174570, Note_on_c, 8, 64, 0
10, 174600, Note_on_c, 8, 63, 90
10, 174630, Note_on_c, 8, 63, 0
10, 174780, Note_on_c, 8, 72, 90
10, 174810, Note_on_c, 8, 72, 0
10, 174840, Note_on_c, 8, 63, 90
10, 174870, Note_on_c, 8, 63, 0
10, 175080, Note_on_c, 8, 64, 90
10, 175140, Note_on_c, 8, 64, 0
10, 175260, Note_on_c, 8, 64, 90
10, 175290, Note_on_c, 8, 64, 0
10, 175320, Note_on_c, 8, 57, 90
10, 175350, Note_on_c, 8, 57, 0
10, 175500, Note_on_c, 8, 57, 90
10, 175530, Note_on_c, 8, 57, 0
10, 175560, Note_on_c, 8, 56, 90
10, 175590, Note_on_c, 8, 56, 0
10, 175740, Note_on_c, 8, 62, 90
10, 175770, Note_on_c, 8, 62, 0
10, 175800, Note_on_c, 8, 60, 90
10, 175830, Note_on_c, 8, 60, 0
10, 176040, Note_on_c, 8, 62, 90
10, 176100, Note_on_c, 8, 62, 0
10, 176220, Note_on_c, 8, 66, 90
10, 176250, Note_on_c, 8, 66, 0
10, 176280, Note_on_c, 8, 62, 90
10, 176310, Note_on_c, 8, 62, 0
10, 176460, Note_on_c, 8, 62, 90
10, 176490, Note_on_c, 8, 62, 0
10, 176520, Note_on_c, 8, 57, 90
10, 176550, Note_on_c, 8, 57, 0
10, 176700, Note_on_c, 8, 66, 90
10, 176730, Note_on_c, 8, 66, 0
10, 176760, Note_on_c, 8, 64, 90
10, 176790, Note_on_c, 8, 64, 0
10, 176940, Note_on_c, 8, 62, 90
10, 176970, Note_on_c, 8, 62, 0
10, 177000, Note_on_c, 8, 59, 90
10, 177030, Note_on_c, 8, 59, 0
10, 177180, Note_on_c, 8, 58, 90
10, 177210, Note_on_c, 8, 58, 0
10, 177240, Note_on_c, 8, 61, 90
10, 177270, Note_on_c, 8, 61, 0
10, 177420, Note_on_c, 8, 59, 90
10, 177450, Note_on_c, 8, 59, 0
10, 177480, Note_on_c, 8, 62, 90
10, 177510, Note_on_c, 8, 62, 0
10, 177660, Note_on_c, 8, 66, 90
10, 177690, Note_on_c, 8, 66, 0
10, 177720, Note_on_c, 8, 66, 90
10, 177750, Note_on_c, 8, 66, 0
10, 177900, Note_on_c, 8, 62, 90
10, 177930, Note_on_c, 8, 62, 0
10, 177960, Note_on_c, 8, 61, 90
10, 177990, Note_on_c, 8, 61, 0
10, 178140, Note_on_c, 8, 61, 90
10, 178170, Note_on_c, 8, 61, 0
10, 178200, Note_on_c, 8, 59, 90
10, 178230, Note_on_c, 8, 59, 0
10, 178380, Note_on_c, 8, 59, 90
10, 178410, Note_on_c, 8, 59, 0
10, 178440, Note_on_c, 8, 58, 90
10, 178470, Note_on_c, 8, 58, 0
10, 178620, Note_on_c, 8, 59, 90
10, 178650, Note_on_c, 8, 59, 0
10, 178680, Note_on_c, 8, 58, 90
10, 178710, Note_on_c, 8, 58, 0
10, 178860, Note_on_c, 8, 71, 90
10, 178919, Note_on_c, 8, 71, 0
10, 178920, Note_on_c, 8, 59, 90
10, 178979, Note_on_c, 8, 59, 0
10, 178980, Note_on_c, 8, 63, 90
10, 179039, Note_on_c, 8, 63, 0
10, 179100, Note_on_c, 8, 64, 90
10, 179159, Note_on_c, 8, 64, 0
10, 179160, Note_on_c, 8, 66, 90
10, 179219, Note_on_c, 8, 66, 0
10, 179220, Note_on_c, 8, 64, 90
10, 179279, Note_on_c, 8, 64, 0
10, 179340, Note_on_c, 8, 63, 90
10, 179399, Note_on_c, 8, 63, 0
10, 179400, Note_on_c, 8, 64, 90
10, 179459, Note_on_c, 8, 64, 0
10, 179460, Note_on_c, 8, 59, 90
10, 179519, Note_on_c, 8, 59, 0
10, 179580, Note_on_c, 8, 59, 90
10, 179639, Note_on_c, 8, 59, 0
10, 179640, Note_on_c, 8, 66, 90
10, 179699, Note_on_c, 8, 66, 0
10, 179700, Note_on_c, 8, 59, 90
10, 179759, Note_on_c, 8, 59, 0
10, 179820, Note_on_c, 8, 59, 90
10, 179879, Note_on_c, 8, 59, 0
10, 179880, Note_on_c, 8, 64, 90
10, 179939, Note_on_c, 8, 64, 0
10, 179940, Note_on_c, 8, 60, 90
10, 179999, Note_on_c, 8, 60, 0
10, 180060, Note_on_c, 8, 65, 90
10, 180119, Note_on_c, 8, 65, 0
10, 180120, Note_on_c, 8, 59, 90
10, 180179, Note_on_c, 8, 59, 0
10, 180180, Note_on_c, 8, 62, 90
10, 180239, Note_on_c, 8, 62, 0
10, 180300, Note_on_c, 8, 64, 90
10, 180359, Note_on_c, 8, 64, 0
10, 180360, Note_on_c, 8, 57, 90
10, 180419, Note_on_c, 8, 57, 0
10, 180420, Note_on_c, 8, 60, 90
10, 180479, Note_on_c, 8, 60, 0
10, 180540, Note_on_c, 8, 57, 90
10, 180599, Note_on_c, 8, 57, 0
10, 180600, Note_on_c, 8, 62, 90
10, 180659, Note_on_c, 8, 62, 0
10, 180660, Note_on_c, 8, 56, 90
10, 180719, Note_on_c, 8, 56, 0
10, 180780, Note_on_c, 8, 64, 90
10, 180839, Note_on_c, 8, 64, 0
10, 180840, Note_on_c, 8, 57, 90
10, 180899, Note_on_c, 8, 57, 0
10, 180900, Note_on_c, 8, 61, 90
10, 180959, Note_on_c, 8, 61, 0
10, 181020, Note_on_c, 8, 62, 90
10, 181079, Note_on_c, 8, 62, 0
10, 181080, Note_on_c, 8, 64, 90
10, 181139, Note_on_c, 8, 64, 0
10, 181140, Note_on_c, 8, 62, 90
10, 181199, Note_on_c, 8, 62, 0
10, 181260, Note_on_c, 8, 61, 90
10, 181319, Note_on_c, 8, 61, 0
10, 181320, Note_on_c, 8, 62, 90
10, 181379, Note_on_c, 8, 62, 0
10, 181380, Note_on_c, 8, 57, 90
10, 181439, Note_on_c, 8, 57, 0
10, 181500, Note_on_c, 8, 57, 90
10, 181559, Note_on_c, 8, 57, 0
10, 181560, Note_on_c, 8, 64, 90
10, 181619, Note_on_c, 8, 64, 0
10, 181620, Note_on_c, 8, 57, 90
10, 181679, Note_on_c, 8, 57, 0
10, 181680, Note_on_c, 8, 57, 90
10, 181799, Note_on_c, 8, 57, 0
10, 182760, Note_on_c, 8, 62, 90
10, 182819, Note_on_c, 8, 62, 0
10, 182820, Note_on_c, 8, 60, 90
10, 182879, Note_on_c, 8, 60, 0
10, 182880, Note_on_c, 8, 59, 90
10, 182939, Note_on_c, 8, 59, 0
10, 182940, Note_on_c, 8, 60, 90
10, 182999, Note_on_c, 8, 60, 0
10, 183000, Note_on_c, 8, 62, 90
10, 183059, Note_on_c, 8, 62, 0
10, 183060, Note_on_c, 8, 59, 90
10, 183119, Note_on_c, 8, 59, 0
10, 183120, Note_on_c, 8, 64, 90
10, 183179, Note_on_c, 8, 64, 0
10, 183180, Note_on_c, 8, 62, 90
10, 183209, Note_on_c, 8, 62, 0
10, 183210, Note_on_c, 8, 60, 90
10, 183239, Note_on_c, 8, 60, 0
10, 183240, Note_on_c, 8, 59, 90
10, 183299, Note_on_c, 8, 59, 0
10, 183300, Note_on_c, 8, 64, 90
10, 183359, Note_on_c, 8, 64, 0
10, 183360, Note_on_c, 8, 61, 90
10, 183389, Note_on_c, 8, 61, 0
10, 183390, Note_on_c, 8, 59, 90
10, 183419, Note_on_c, 8, 59, 0
10, 183420, Note_on_c, 8, 61, 90
10, 183449, Note_on_c, 8, 61, 0
10, 183450, Note_on_c, 8, 62, 90
10, 183479, Note_on_c, 8, 62, 0
10, 183480, Note_on_c, 8, 64, 90
10, 183509, Note_on_c, 8, 64, 0
10, 183510, Note_on_c, 8, 62, 90
10, 183539, Note_on_c, 8, 62, 0
10, 183540, Note_on_c, 8, 61, 90
10, 183569, Note_on_c, 8, 61, 0
10, 183570, Note_on_c, 8, 59, 90
10, 183599, Note_on_c, 8, 59, 0
10, 183600, Note_on_c, 8, 57, 90
10, 183629, Note_on_c, 8, 57, 0
10, 183630, Note_on_c, 8, 55, 90
10, 183659, Note_on_c, 8, 55, 0
10, 183660, Note_on_c, 8, 57, 90
10, 183689, Note_on_c, 8, 57, 0
10, 183690, Note_on_c, 8, 59, 90
10, 183719, Note_on_c, 8, 59, 0
10, 183720, Note_on_c, 8, 61, 90
10, 183749, Note_on_c, 8, 61, 0
10, 183750, Note_on_c, 8, 62, 90
10, 183779, Note_on_c, 8, 62, 0
10, 183780, Note_on_c, 8, 59, 90
10, 183809, Note_on_c, 8, 59, 0
10, 183810, Note_on_c, 8, 61, 90
10, 183839, Note_on_c, 8, 61, 0
10, 183840, Note_on_c, 8, 57, 90
10, 183899, Note_on_c, 8, 57, 0
10, 183960, Note_on_c, 8, 62, 90
10, 184019, Note_on_c, 8, 62, 0
10, 184020, Note_on_c, 8, 60, 90
10, 184079, Note_on_c, 8, 60, 0
10, 184080, Note_on_c, 8, 59, 90
10, 184139, Note_on_c, 8, 59, 0
10, 184140, Note_on_c, 8, 60, 90
10, 184199, Note_on_c, 8, 60, 0
10, 184200, Note_on_c, 8, 62, 90
10, 184259, Note_on_c, 8, 62, 0
10, 184260, Note_on_c, 8, 59, 90
10, 184319, Note_on_c, 8, 59, 0
10, 184320, Note_on_c, 8, 64, 90
10, 184379, Note_on_c, 8, 64, 0
10, 184380, Note_on_c, 8, 62, 90
10, 184409, Note_on_c, 8, 62, 0
10, 184410, Note_on_c, 8, 61, 90
10, 184439, Note_on_c, 8, 61, 0
10, 184440, Note_on_c, 8, 59, 90
10, 184499, Note_on_c, 8, 59, 0
10, 184500, Note_on_c, 8, 64, 90
10, 184559, Note_on_c, 8, 64, 0
10, 184560, Note_on_c, 8, 61, 90
10, 184589, Note_on_c, 8, 61, 0
10, 184590, Note_on_c, 8, 59, 90
10, 184619, Note_on_c, 8, 59, 0
10, 184620, Note_on_c, 8, 61, 90
10, 184649, Note_on_c, 8, 61, 0
10, 184650, Note_on_c, 8, 62, 90
10, 184679, Note_on_c, 8, 62, 0
10, 184680, Note_on_c, 8, 64, 90
10, 184709, Note_on_c, 8, 64, 0
10, 184710, Note_on_c, 8, 62, 90
10, 184739, Note_on_c, 8, 62, 0
10, 184740, Note_on_c, 8, 61, 90
10, 184769, Note_on_c, 8, 61, 0
10, 184770, Note_on_c, 8, 59, 90
10, 184799, Note_on_c, 8, 59, 0
10, 184800, Note_on_c, 8, 57, 90
10, 184950, Note_on_c, 8, 57, 0
10, 184950, Note_on_c, 8, 59, 90
10, 184979, Note_on_c, 8, 59, 0
10, 184980, Note_on_c, 8, 61, 90
10, 185009, Note_on_c, 8, 61, 0
10, 185010, Note_on_c, 8, 57, 90
10, 185039, Note_on_c, 8, 57, 0
10, 185040, Note_on_c, 8, 54, 90
10, 185099, Note_on_c, 8, 54, 0
10, 185100, Note_on_c, 8, 66, 90
10, 185159, Note_on_c, 8, 66, 0
10, 185220, Note_on_c, 8, 62, 90
10, 185279, Note_on_c, 8, 62, 0
10, 185280, Note_on_c, 8, 62, 90
10, 185339, Note_on_c, 8, 62, 0
10, 185340, Note_on_c, 8, 67, 90
10, 185399, Note_on_c, 8, 67, 0
10, 185400, Note_on_c, 8, 67, 90
10, 185459, Note_on_c, 8, 67, 0
10, 185460, Note_on_c, 8, 59, 90
10, 185519, Note_on_c, 8, 59, 0
10, 185520, Note_on_c, 8, 60, 90
10, 185579, Note_on_c, 8, 60, 0
10, 185580, Note_on_c, 8, 55, 90
10, 185639, Note_on_c, 8, 55, 0
10, 185640, Note_on_c, 8, 60, 90
10, 185699, Note_on_c, 8, 60, 0
10, 185700, Note_on_c, 8, 59, 90
10, 185759, Note_on_c, 8, 59, 0
10, 185760, Note_on_c, 8, 57, 90
10, 185819, Note_on_c, 8, 57, 0
10, 185820, Note_on_c, 8, 59, 90
10, 185879, Note_on_c, 8, 59, 0
10, 185880, Note_on_c, 8, 60, 90
10, 185939, Note_on_c, 8, 60, 0
10, 185940, Note_on_c, 8, 57, 90
10, 185999, Note_on_c, 8, 57, 0
10, 186000, Note_on_c, 8, 62, 90
10, 186059, Note_on_c, 8, 62, 0
10, 186060, Note_on_c, 8, 60, 90
10, 186089, Note_on_c, 8, 60, 0
10, 186090, Note_on_c, 8, 59, 90
10, 186119, Note_on_c, 8, 59, 0
10, 186120, Note_on_c, 8, 57, 90
10, 186179, Note_on_c, 8, 57, 0
10, 186180, Note_on_c, 8, 62, 90
10, 186239, Note_on_c, 8, 62, 0
10, 186240, Note_on_c, 8, 59, 90
10, 186269, Note_on_c, 8, 59, 0
10, 186270, Note_on_c, 8, 57, 90
10, 186299, Note_on_c, 8, 57, 0
10, 186300, Note_on_c, 8, 59, 90
10, 186329, Note_on_c, 8, 59, 0
10, 186330, Note_on_c, 8, 60, 90
10, 186359, Note_on_c, 8, 60, 0
10, 186360, Note_on_c, 8, 62, 90
10, 186389, Note_on_c, 8, 62, 0
10, 186390, Note_on_c, 8, 60, 90
10, 186419, Note_on_c, 8, 60, 0
10, 186420, Note_on_c, 8, 62, 90
10, 186449, Note_on_c, 8, 62, 0
10, 186450, Note_on_c, 8, 59, 90
10, 186479, Note_on_c, 8, 59, 0
10, 186480, Note_on_c, 8, 64, 90
10, 186509, Note_on_c, 8, 64, 0
10, 186510, Note_on_c, 8, 62, 90
10, 186539, Note_on_c, 8, 62, 0
10, 186540, Note_on_c, 8, 64, 90
10, 186569, Note_on_c, 8, 64, 0
10, 186570, Note_on_c, 8, 66, 90
10, 186599, Note_on_c, 8, 66, 0
10, 186600, Note_on_c, 8, 67, 90
10, 186629, Note_on_c, 8, 67, 0
10, 186630, Note_on_c, 8, 66, 90
10, 186659, Note_on_c, 8, 66, 0
10, 186660, Note_on_c, 8, 64, 90
10, 186689, Note_on_c, 8, 64, 0
10, 186690, Note_on_c, 8, 62, 90
10, 186719, Note_on_c, 8, 62, 0
10, 186720, Note_on_c, 8, 60, 90
10, 186749, Note_on_c, 8, 60, 0
10, 186750, Note_on_c, 8, 59, 90
10, 186779, Note_on_c, 8, 59, 0
10, 186780, Note_on_c, 8, 60, 90
10, 186809, Note_on_c, 8, 60, 0
10, 186810, Note_on_c, 8, 62, 90
10, 186839, Note_on_c, 8, 62, 0
10, 186840, Note_on_c, 8, 64, 90
10, 186869, Note_on_c, 8, 64, 0
10, 186870, Note_on_c, 8, 62, 90
10, 186899, Note_on_c, 8, 62, 0
10, 186900, Note_on_c, 8, 60, 90
10, 186929, Note_on_c, 8, 60, 0
10, 186930, Note_on_c, 8, 59, 90
10, 186959, Note_on_c, 8, 59, 0
10, 186960, Note_on_c, 8, 57, 90
10, 186989, Note_on_c, 8, 57, 0
10, 186990, Note_on_c, 8, 55, 90
10, 187019, Note_on_c, 8, 55, 0
10, 187020, Note_on_c, 8, 57, 90
10, 187049, Note_on_c, 8, 57, 0
10, 187050, Note_on_c, 8, 59, 90
10, 187079, Note_on_c, 8, 59, 0
10, 187080, Note_on_c, 8, 60, 90
10, 187109, Note_on_c, 8, 60, 0
10, 187110, Note_on_c, 8, 59, 90
10, 187139, Note_on_c, 8, 59, 0
10, 187140, Note_on_c, 8, 57, 90
10, 187169, Note_on_c, 8, 57, 0
10, 187170, Note_on_c, 8, 55, 90
10, 187199, Note_on_c, 8, 55, 0
10, 187200, Note_on_c, 8, 62, 90
10, 187229, Note_on_c, 8, 62, 0
10, 187230, Note_on_c, 8, 57, 90
10, 187259, Note_on_c, 8, 57, 0
10, 187260, Note_on_c, 8, 62, 90
10, 187379, Note_on_c, 8, 62, 0
10, 187380, Note_on_c, 8, 61, 90
10, 187439, Note_on_c, 8, 61, 0
10, 187440, Note_on_c, 8, 62, 90
10, 187559, Note_on_c, 8, 62, 0
10, 187620, Note_on_c, 8, 62, 90
10, 187679, Note_on_c, 8, 62, 0
10, 187680, Note_on_c, 8, 62, 90
10, 187739, Note_on_c, 8, 62, 0
10, 187740, Note_on_c, 8, 64, 90
10, 187799, Note_on_c, 8, 64, 0
10, 187800, Note_on_c, 8, 65, 90
10, 187859, Note_on_c, 8, 65, 0
10, 187860, Note_on_c, 8, 62, 90
10, 187919, Note_on_c, 8, 62, 0
10, 187920, Note_on_c, 8, 60, 90
10, 187979, Note_on_c, 8, 60, 0
10, 187980, Note_on_c, 8, 59, 90
10, 188009, Note_on_c, 8, 59, 0
10, 188010, Note_on_c, 8, 57, 90
10, 188039, Note_on_c, 8, 57, 0
10, 188040, Note_on_c, 8, 55, 90
10, 188069, Note_on_c, 8, 55, 0
10, 188070, Note_on_c, 8, 59, 90
10, 188099, Note_on_c, 8, 59, 0
10, 188100, Note_on_c, 8, 60, 90
10, 188129, Note_on_c, 8, 60, 0
10, 188130, Note_on_c, 8, 62, 90
10, 188159, Note_on_c, 8, 62, 0
10, 188160, Note_on_c, 8, 64, 90
10, 188339, Note_on_c, 8, 64, 0
10, 188340, Note_on_c, 8, 63, 90
10, 188369, Note_on_c, 8, 63, 0
10, 188370, Note_on_c, 8, 64, 90
10, 188399, Note_on_c, 8, 64, 0
10, 188400, Note_on_c, 8, 66, 90
10, 188550, Note_on_c, 8, 66, 0
10, 188550, Note_on_c, 8, 67, 90
10, 188579, Note_on_c, 8, 67, 0
10, 188580, Note_on_c, 8, 66, 90
10, 188609, Note_on_c, 8, 66, 0
10, 188610, Note_on_c, 8, 64, 90
10, 188639, Note_on_c, 8, 64, 0
10, 188640, Note_on_c, 8, 63, 90
10, 188669, Note_on_c, 8, 63, 0
10, 188670, Note_on_c, 8, 61, 90
10, 188699, Note_on_c, 8, 61, 0
10, 188700, Note_on_c, 8, 63, 90
10, 188729, Note_on_c, 8, 63, 0
10, 188730, Note_on_c, 8, 64, 90
10, 188759, Note_on_c, 8, 64, 0
10, 188760, Note_on_c, 8, 66, 90
10, 188789, Note_on_c, 8, 66, 0
10, 188790, Note_on_c, 8, 64, 90
10, 188819, Note_on_c, 8, 64, 0
10, 188820, Note_on_c, 8, 63, 90
10, 188849, Note_on_c, 8, 63, 0
10, 188850, Note_on_c, 8, 61, 90
10, 188879, Note_on_c, 8, 61, 0
10, 188880, Note_on_c, 8, 59, 90
10, 188939, Note_on_c, 8, 59, 0
10, 188940, Note_on_c, 8, 64, 90
10, 188969, Note_on_c, 8, 64, 0
10, 188970, Note_on_c, 8, 66, 90
10, 188999, Note_on_c, 8, 66, 0
10, 189000, Note_on_c, 8, 63, 90
10, 189119, Note_on_c, 8, 63, 0
10, 189120, Note_on_c, 8, 64, 90
10, 189179, Note_on_c, 8, 64, 0
10, 189180, Note_on_c, 8, 59, 90
10, 189239, Note_on_c, 8, 59, 0
10, 189240, Note_on_c, 8, 64, 90
10, 189540, Note_on_c, 8, 64, 0
10, 189540, Note_on_c, 8, 64, 90
10, 189599, Note_on_c, 8, 64, 0
10, 189600, Note_on_c, 8, 62, 90
10, 189659, Note_on_c, 8, 62, 0
10, 189660, Note_on_c, 8, 60, 90
10, 189689, Note_on_c, 8, 60, 0
10, 189690, Note_on_c, 8, 59, 90
10, 189719, Note_on_c, 8, 59, 0
10, 189720, Note_on_c, 8, 57, 90
10, 189749, Note_on_c, 8, 57, 0
10, 189750, Note_on_c, 8, 59, 90
10, 189779, Note_on_c, 8, 59, 0
10, 189780, Note_on_c, 8, 60, 90
10, 189809, Note_on_c, 8, 60, 0
10, 189810, Note_on_c, 8, 57, 90
10, 189839, Note_on_c, 8, 57, 0
10, 189840, Note_on_c, 8, 62, 90
10, 189990, Note_on_c, 8, 62, 0
10, 189990, Note_on_c, 8, 64, 90
10, 190019, Note_on_c, 8, 64, 0
10, 190020, Note_on_c, 8, 65, 90
10, 190049, Note_on_c, 8, 65, 0
10, 190050, Note_on_c, 8, 62, 90
10, 190079, Note_on_c, 8, 62, 0
10, 190080, Note_on_c, 8, 67, 90
10, 190259, Note_on_c, 8, 67, 0
10, 190260, Note_on_c, 8, 59, 90
10, 190319, Note_on_c, 8, 59, 0
10, 190320, Note_on_c, 8, 60, 90
10, 190439, Note_on_c, 8, 60, 0
10, 190500, Note_on_c, 8, 67, 90
10, 190530, Note_on_c, 8, 67, 0
10, 190560, Note_on_c, 8, 62, 90
10, 190590, Note_on_c, 8, 62, 0
10, 190740, Note_on_c, 8, 59, 90
10, 190770, Note_on_c, 8, 59, 0
10, 190800, Note_on_c, 8, 64, 90
10, 190830, Note_on_c, 8, 64, 0
10, 190980, Note_on_c, 8, 59, 90
10, 191010, Note_on_c, 8, 59, 0
10, 191040, Note_on_c, 8, 57, 90
10, 191070, Note_on_c, 8, 57, 0
10, 191220, Note_on_c, 8, 57, 90
10, 191250, Note_on_c, 8, 57, 0
10, 191280, Note_on_c, 8, 62, 90
10, 191310, Note_on_c, 8, 62, 0
10, 191460, Note_on_c, 8, 59, 90
10, 191490, Note_on_c, 8, 59, 0
10, 191520, Note_on_c, 8, 64, 90
10, 191550, Note_on_c, 8, 64, 0
10, 191700, Note_on_c, 8, 67, 90
10, 191730, Note_on_c, 8, 67, 0
10, 191760, Note_on_c, 8, 66, 90
10, 191790, Note_on_c, 8, 66, 0
10, 191940, Note_on_c, 8, 59, 90
10, 191970, Note_on_c, 8, 59, 0
10, 192000, Note_on_c, 8, 67, 90
10, 192030, Note_on_c, 8, 67, 0
10, 192180, Note_on_c, 8, 67, 90
10, 192210, Note_on_c, 8, 67, 0
10, 192240, Note_on_c, 8, 62, 90
10, 192270, Note_on_c, 8, 62, 0
10, 192420, Note_on_c, 8, 55, 90
10, 192450, Note_on_c, 8, 55, 0
10, 192480, Note_on_c, 8, 60, 90
10, 192510, Note_on_c, 8, 60, 0
10, 192660, Note_on_c, 8, 57, 90
10, 192690, Note_on_c, 8, 57, 0
10, 192720, Note_on_c, 8, 59, 90
10, 192750, Note_on_c, 8, 59, 0
10, 192900, Note_on_c, 8, 60, 90
10, 192930, Note_on_c, 8, 60, 0
10, 192960, Note_on_c, 8, 60, 90
10, 192990, Note_on_c, 8, 60, 0
10, 193140, Note_on_c, 8, 59, 90
10, 193170, Note_on_c, 8, 59, 0
10, 193200, Note_on_c, 8, 59, 90
10, 193230, Note_on_c, 8, 59, 0
10, 193380, Note_on_c, 8, 57, 90
10, 193410, Note_on_c, 8, 57, 0
10, 193440, Note_on_c, 8, 55, 90
10, 193470, Note_on_c, 8, 55, 0
10, 193620, Note_on_c, 8, 62, 90
10, 193650, Note_on_c, 8, 62, 0
10, 193680, Note_on_c, 8, 64, 90
10, 193710, Note_on_c, 8, 64, 0
10, 193860, Note_on_c, 8, 66, 90
10, 193890, Note_on_c, 8, 66, 0
10, 193920, Note_on_c, 8, 67, 90
10, 193950, Note_on_c, 8, 67, 0
10, 194100, Note_on_c, 8, 74, 90
10, 194160, Note_on_c, 8, 74, 0
10, 194160, Note_on_c, 8, 74, 90
10, 194219, Note_on_c, 8, 74, 0
10, 194220, Note_on_c, 8, 67, 90
10, 194279, Note_on_c, 8, 67, 0
10, 194280, Note_on_c, 8, 62, 90
10, 194339, Note_on_c, 8, 62, 0
10, 194340, Note_on_c, 8, 59, 90
10, 194399, Note_on_c, 8, 59, 0
10, 194460, Note_on_c, 8, 67, 90
10, 194519, Note_on_c, 8, 67, 0
10, 194520, Note_on_c, 8, 64, 90
10, 194579, Note_on_c, 8, 64, 0
10, 194580, Note_on_c, 8, 57, 90
10, 194639, Note_on_c, 8, 57, 0
10, 194700, Note_on_c, 8, 66, 90
10, 194759, Note_on_c, 8, 66, 0
10, 194760, Note_on_c, 8, 62, 90
10, 194819, Note_on_c, 8, 62, 0
10, 194820, Note_on_c, 8, 55, 90
10, 194879, Note_on_c, 8, 55, 0
10, 194940, Note_on_c, 8, 64, 90
10, 194999, Note_on_c, 8, 64, 0
10, 195000, Note_on_c, 8, 59, 90
10, 195059, Note_on_c, 8, 59, 0
10, 195060, Note_on_c, 8, 54, 90
10, 195119, Note_on_c, 8, 54, 0
10, 195180, Note_on_c, 8, 55, 90
10, 195239, Note_on_c, 8, 55, 0
10, 195240, Note_on_c, 8, 62, 90
10, 195299, Note_on_c, 8, 62, 0
10, 195300, Note_on_c, 8, 65, 90
10, 195359, Note_on_c, 8, 65, 0
10, 195420, Note_on_c, 8, 67, 90
10, 195479, Note_on_c, 8, 67, 0
10, 195480, Note_on_c, 8, 55, 90
10, 195539, Note_on_c, 8, 55, 0
10, 195540, Note_on_c, 8, 60, 90
10, 195599, Note_on_c, 8, 60, 0
10, 195660, Note_on_c, 8, 60, 90
10, 195719, Note_on_c, 8, 60, 0
10, 195720, Note_on_c, 8, 62, 90
10, 195779, Note_on_c, 8, 62, 0
10, 195780, Note_on_c, 8, 67, 90
10, 195839, Note_on_c, 8, 67, 0
10, 195900, Note_on_c, 8, 72, 90
10, 195959, Note_on_c, 8, 72, 0
10, 195960, Note_on_c, 8, 66, 90
10, 196019, Note_on_c, 8, 66, 0
10, 196020, Note_on_c, 8, 69, 90
10, 196079, Note_on_c, 8, 69, 0
10, 196080, Note_on_c, 8, 62, 90
10, 196200, Note_on_c, 8, 62, 0
10, 196440, Note_on_c, 8, 60, 90
10, 196499, Note_on_c, 8, 60, 0
10, 196500, Note_on_c, 8, 59, 90
10, 196559, Note_on_c, 8, 59, 0
10, 196560, Note_on_c, 8, 57, 90
10, 196619, Note_on_c, 8, 57, 0
10, 196620, Note_on_c, 8, 59, 90
10, 196679, Note_on_c, 8, 59, 0
10, 196680, Note_on_c, 8, 60, 90
10, 196830, Note_on_c, 8, 60, 0
10, 196830, Note_on_c, 8, 59, 90
10, 196860, Note_on_c, 8, 59, 0
10, 196860, Note_on_c, 8, 57, 90
10, 196890, Note_on_c, 8, 57, 0
10, 196890, Note_on_c, 8, 55, 90
10, 196920, Note_on_c, 8, 55, 0
10, 196920, Note_on_c, 8, 62, 90
10, 197070, Note_on_c, 8, 62, 0
10, 197070, Note_on_c, 8, 64, 90
10, 197100, Note_on_c, 8, 64, 0
10, 197100, Note_on_c, 8, 62, 90
10, 197130, Note_on_c, 8, 62, 0
10, 197130, Note_on_c, 8, 60, 90
10, 197160, Note_on_c, 8, 60, 0
10, 197160, Note_on_c, 8, 59, 90
10, 197400, Note_on_c, 8, 59, 0
10, 197400, Note_on_c, 8, 58, 90
10, 197640, Note_on_c, 8, 58, 0
10, 197640, Note_on_c, 8, 57, 90
10, 197820, Note_on_c, 8, 57, 0
10, 197820, Note_on_c, 8, 55, 90
10, 197880, Note_on_c, 8, 55, 0
10, 197880, Note_on_c, 8, 57, 90
10, 198000, Note_on_c, 8, 57, 0
10, 198000, Note_on_c, 8, 59, 90
10, 198240, Note_on_c, 8, 59, 0
10, 201900, Note_on_c, 8, 62, 90
10, 202079, Note_on_c, 8, 62, 0
10, 202080, Note_on_c, 8, 62, 90
10, 202380, Note_on_c, 8, 62, 0
10, 202380, Note_on_c, 8, 61, 90
10, 202439, Note_on_c, 8, 61, 0
10, 202440, Note_on_c, 8, 62, 90
10, 202559, Note_on_c, 8, 62, 0
10, 202560, Note_on_c, 8, 60, 90
10, 202619, Note_on_c, 8, 60, 0
10, 202620, Note_on_c, 8, 60, 90
10, 202739, Note_on_c, 8, 60, 0
10, 202740, Note_on_c, 8, 59, 90
10, 202799, Note_on_c, 8, 59, 0
10, 202800, Note_on_c, 8, 59, 90
10, 202919, Note_on_c, 8, 59, 0
10, 202920, Note_on_c, 8, 57, 90
10, 202979, Note_on_c, 8, 57, 0
10, 202980, Note_on_c, 8, 62, 90
10, 203339, Note_on_c, 8, 62, 0
10, 204420, Note_on_c, 8, 62, 90
10, 204599, Note_on_c, 8, 62, 0
10, 204600, Note_on_c, 8, 64, 90
10, 204779, Note_on_c, 8, 64, 0
10, 204780, Note_on_c, 8, 66, 90
10, 204899, Note_on_c, 8, 66, 0
10, 204900, Note_on_c, 8, 67, 90
10, 204960, Note_on_c, 8, 67, 0
10, 204960, Note_on_c, 8, 62, 90
10, 205139, Note_on_c, 8, 62, 0
10, 205140, Note_on_c, 8, 62, 90
10, 205259, Note_on_c, 8, 62, 0
10, 205260, Note_on_c, 8, 64, 90
10, 205319, Note_on_c, 8, 64, 0
10, 205320, Note_on_c, 8, 57, 90
10, 205439, Note_on_c, 8, 57, 0
10, 205440, Note_on_c, 8, 59, 90
10, 205499, Note_on_c, 8, 59, 0
10, 205500, Note_on_c, 8, 60, 90
10, 205589, Note_on_c, 8, 60, 0
10, 205590, Note_on_c, 8, 64, 90
10, 205619, Note_on_c, 8, 64, 0
10, 205620, Note_on_c, 8, 63, 90
10, 205679, Note_on_c, 8, 63, 0
10, 205680, Note_on_c, 8, 64, 90
10, 205859, Note_on_c, 8, 64, 0
10, 206940, Note_on_c, 8, 64, 90
10, 207119, Note_on_c, 8, 64, 0
10, 207120, Note_on_c, 8, 64, 90
10, 207239, Note_on_c, 8, 64, 0
10, 207240, Note_on_c, 8, 62, 90
10, 207299, Note_on_c, 8, 62, 0
10, 207300, Note_on_c, 8, 60, 90
10, 207479, Note_on_c, 8, 60, 0
10, 207480, Note_on_c, 8, 59, 90
10, 207599, Note_on_c, 8, 59, 0
10, 207600, Note_on_c, 8, 61, 90
10, 207659, Note_on_c, 8, 61, 0
10, 207660, Note_on_c, 8, 62, 90
10, 207839, Note_on_c, 8, 62, 0
10, 207840, Note_on_c, 8, 55, 90
10, 207959, Note_on_c, 8, 55, 0
10, 207960, Note_on_c, 8, 62, 90
10, 208019, Note_on_c, 8, 62, 0
10, 208020, Note_on_c, 8, 62, 90
10, 208139, Note_on_c, 8, 62, 0
10, 208140, Note_on_c, 8, 61, 90
10, 208199, Note_on_c, 8, 61, 0
10, 208200, Note_on_c, 8, 66, 90
10, 208379, Note_on_c, 8, 66, 0
10, 209460, Note_on_c, 8, 64, 90
10, 209639, Note_on_c, 8, 64, 0
10, 209640, Note_on_c, 8, 64, 90
10, 209759, Note_on_c, 8, 64, 0
10, 209760, Note_on_c, 8, 62, 90
10, 209819, Note_on_c, 8, 62, 0
10, 209820, Note_on_c, 8, 62, 90
10, 209939, Note_on_c, 8, 62, 0
10, 209940, Note_on_c, 8, 60, 90
10, 209999, Note_on_c, 8, 60, 0
10, 210000, Note_on_c, 8, 60, 90
10, 210119, Note_on_c, 8, 60, 0
10, 210120, Note_on_c, 8, 59, 90
10, 210179, Note_on_c, 8, 59, 0
10, 210180, Note_on_c, 8, 60, 90
10, 210299, Note_on_c, 8, 60, 0
10, 210300, Note_on_c, 8, 59, 90
10, 210359, Note_on_c, 8, 59, 0
10, 210360, Note_on_c, 8, 60, 90
10, 210479, Note_on_c, 8, 60, 0
10, 210480, Note_on_c, 8, 62, 90
10, 210539, Note_on_c, 8, 62, 0
10, 210540, Note_on_c, 8, 64, 90
10, 210659, Note_on_c, 8, 64, 0
10, 210660, Note_on_c, 8, 62, 90
10, 210719, Note_on_c, 8, 62, 0
10, 210720, Note_on_c, 8, 59, 90
10, 210899, Note_on_c, 8, 59, 0
10, 210899, End_track
11, 0, Start_track
11, 0, MIDI_port, 0
11, 0, Title_t, "Der Engel"
11, 0, Control_c, 10, 7, 127
11, 0, Control_c, 10, 10, 83
11, 59010, Control_c, 10, 0, 20
11, 59010, Program_c, 10, 73
11, 59040, Note_on_c, 10, 74, 127
11, 59100, Note_on_c, 10, 74, 0
11, 59100, Note_on_c, 10, 78, 127
11, 59130, Note_on_c, 10, 78, 0
11, 59130, Note_on_c, 10, 76, 127
11, 59160, Note_on_c, 10, 76, 0
11, 59160, Note_on_c, 10, 73, 127
11, 59220, Note_on_c, 10, 73, 0
11, 59280, Note_on_c, 10, 76, 127
11, 59340, Note_on_c, 10, 76, 0
11, 59340, Note_on_c, 10, 69, 127
11, 59400, Note_on_c, 10, 69, 0
11, 59460, Note_on_c, 10, 76, 127
11, 59490, Note_on_c, 10, 76, 0
11, 59490, Note_on_c, 10, 78, 127
11, 59520, Note_on_c, 10, 78, 0
11, 59520, Note_on_c, 10, 79, 127
11, 59580, Note_on_c, 10, 79, 0
11, 59580, Note_on_c, 10, 79, 127
11, 59610, Note_on_c, 10, 79, 0
11, 59610, Note_on_c, 10, 76, 127
11, 59640, Note_on_c, 10, 76, 0
11, 59640, Note_on_c, 10, 73, 127
11, 59700, Note_on_c, 10, 73, 0
11, 59700, Note_on_c, 10, 81, 127
11, 59730, Note_on_c, 10, 81, 0
11, 59730, Note_on_c, 10, 76, 127
11, 59760, Note_on_c, 10, 76, 0
11, 59760, Note_on_c, 10, 78, 127
11, 59820, Note_on_c, 10, 78, 0
11, 59820, Note_on_c, 10, 78, 127
11, 59880, Note_on_c, 10, 78, 0
11, 59910, Note_on_c, 10, 74, 127
11, 59940, Note_on_c, 10, 74, 0
11, 59940, Note_on_c, 10, 74, 127
11, 59970, Note_on_c, 10, 74, 0
11, 59970, Note_on_c, 10, 69, 127
11, 60000, Note_on_c, 10, 69, 0
11, 60000, Note_on_c, 10, 71, 127
11, 60060, Note_on_c, 10, 71, 0
11, 60060, Note_on_c, 10, 71, 127
11, 60120, Note_on_c, 10, 71, 0
11, 60120, Note_on_c, 10, 73, 127
11, 60180, Note_on_c, 10, 73, 0
11, 60180, Note_on_c, 10, 74, 127
11, 60240, Note_on_c, 10, 74, 0
11, 60240, Note_on_c, 10, 74, 127
11, 60300, Note_on_c, 10, 74, 0
11, 60300, Note_on_c, 10, 69, 127
11, 60360, Note_on_c, 10, 69, 0
11, 60360, Note_on_c, 10, 69, 127
11, 60480, Note_on_c, 10, 69, 0
11, 60540, Note_on_c, 10, 74, 127
11, 60600, Note_on_c, 10, 74, 0
11, 60600, Note_on_c, 10, 66, 127
11, 60660, Note_on_c, 10, 66, 0
11, 60660, Note_on_c, 10, 67, 127
11, 60720, Note_on_c, 10, 67, 0
11, 60720, Note_on_c, 10, 69, 127
11, 60780, Note_on_c, 10, 69, 0
11, 60780, Note_on_c, 10, 62, 127
11, 60810, Note_on_c, 10, 62, 0
11, 60810, Note_on_c, 10, 62, 127
11, 60840, Note_on_c, 10, 62, 0
11, 60840, Note_on_c, 10, 74, 127
11, 60900, Note_on_c, 10, 74, 0
11, 60900, Note_on_c, 10, 74, 127
11, 60930, Note_on_c, 10, 74, 0
11, 60930, Note_on_c, 10, 73, 127
11, 60960, Note_on_c, 10, 73, 0
11, 60960, Note_on_c, 10, 70, 127
11, 61020, Note_on_c, 10, 70, 0
11, 61020, Note_on_c, 10, 70, 127
11, 61080, Note_on_c, 10, 70, 0
11, 61080, Note_on_c, 10, 70, 127
11, 61140, Note_on_c, 10, 70, 0
11, 61140, Note_on_c, 10, 70, 127
11, 61170, Note_on_c, 10, 70, 0
11, 61170, Note_on_c, 10, 71, 127
11, 61200, Note_on_c, 10, 71, 0
11, 61200, Note_on_c, 10, 73, 127
11, 61260, Note_on_c, 10, 73, 0
11, 61260, Note_on_c, 10, 66, 127
11, 61320, Note_on_c, 10, 66, 0
11, 61380, Note_on_c, 10, 78, 127
11, 61440, Note_on_c, 10, 78, 0
11, 61440, Note_on_c, 10, 74, 127
11, 61560, Note_on_c, 10, 74, 0
11, 61620, Note_on_c, 10, 78, 127
11, 61680, Note_on_c, 10, 78, 0
11, 61680, Note_on_c, 10, 79, 127
11, 61740, Note_on_c, 10, 79, 0
11, 61740, Note_on_c, 10, 71, 127
11, 61800, Note_on_c, 10, 71, 0
11, 61800, Note_on_c, 10, 71, 127
11, 61860, Note_on_c, 10, 71, 0
11, 61860, Note_on_c, 10, 66, 127
11, 61920, Note_on_c, 10, 66, 0
11, 61920, End_track
12, 0, Start_track
12, 0, MIDI_port, 0
12, 0, Title_t, "Evangelist"
12, 0, Control_c, 11, 7, 127
12, 0, Control_c, 11, 10, 43
12, 45450, Control_c, 11, 0, 20
12, 45450, Program_c, 11, 57
12, 45480, Note_on_c, 11, 71, 127
12, 45540, Note_on_c, 11, 71, 0
12, 45540, Note_on_c, 11, 71, 127
12, 45600, Note_on_c, 11, 71, 0
12, 45600, Note_on_c, 11, 76, 127
12, 45660, Note_on_c, 11, 76, 0
12, 45660, Note_on_c, 11, 76, 127
12, 45720, Note_on_c, 11, 76, 0
12, 45720, Note_on_c, 11, 76, 127
12, 45780, Note_on_c, 11, 76, 0
12, 45780, Note_on_c, 11, 75, 127
12, 45840, Note_on_c, 11, 75, 0
12, 45840, Note_on_c, 11, 76, 127
12, 45900, Note_on_c, 11, 76, 0
12, 45900, Note_on_c, 11, 76, 127
12, 45960, Note_on_c, 11, 76, 0
12, 45960, Note_on_c, 11, 76, 127
12, 46020, Note_on_c, 11, 76, 0
12, 46020, Note_on_c, 11, 78, 127
12, 46080, Note_on_c, 11, 78, 0
12, 46080, Note_on_c, 11, 79, 127
12, 46140, Note_on_c, 11, 79, 0
12, 46140, Note_on_c, 11, 79, 127
12, 46200, Note_on_c, 11, 79, 0
12, 46200, Note_on_c, 11, 79, 127
12, 46260, Note_on_c, 11, 79, 0
12, 46260, Note_on_c, 11, 76, 127
12, 46320, Note_on_c, 11, 76, 0
12, 46320, Note_on_c, 11, 72, 127
12, 46380, Note_on_c, 11, 72, 0
12, 46380, Note_on_c, 11, 72, 127
12, 46440, Note_on_c, 11, 72, 0
12, 46440, Note_on_c, 11, 76, 127
12, 46500, Note_on_c, 11, 76, 0
12, 46500, Note_on_c, 11, 69, 127
12, 46560, Note_on_c, 11, 69, 0
12, 46560, Note_on_c, 11, 75, 127
12, 46620, Note_on_c, 11, 75, 0
12, 46620, Note_on_c, 11, 75, 127
12, 46680, Note_on_c, 11, 75, 0
12, 46740, Note_on_c, 11, 66, 127
12, 46800, Note_on_c, 11, 66, 0
12, 46800, Note_on_c, 11, 66, 127
12, 46890, Note_on_c, 11, 66, 0
12, 46890, Note_on_c, 11, 67, 127
12, 46920, Note_on_c, 11, 67, 0
12, 46920, Note_on_c, 11, 69, 127
12, 46980, Note_on_c, 11, 69, 0
12, 46980, Note_on_c, 11, 66, 127
12, 47040, Note_on_c, 11, 66, 0
12, 47040, Note_on_c, 11, 63, 127
12, 47160, Note_on_c, 11, 63, 0
12, 47160, Note_on_c, 11, 72, 127
12, 47220, Note_on_c, 11, 72, 0
12, 47220, Note_on_c, 11, 71, 127
12, 47280, Note_on_c, 11, 71, 0
12, 47280, Note_on_c, 11, 67, 127
12, 47340, Note_on_c, 11, 67, 0
12, 47340, Note_on_c, 11, 67, 127
12, 47400, Note_on_c, 11, 67, 0
12, 47580, Note_on_c, 11, 76, 127
12, 47640, Note_on_c, 11, 76, 0
12, 47640, Note_on_c, 11, 73, 127
12, 47700, Note_on_c, 11, 73, 0
12, 47700, Note_on_c, 11, 73, 127
12, 47760, Note_on_c, 11, 73, 0
12, 47820, Note_on_c, 11, 76, 127
12, 47880, Note_on_c, 11, 76, 0
12, 47880, Note_on_c, 11, 81, 127
12, 47940, Note_on_c, 11, 81, 0
12, 47940, Note_on_c, 11, 76, 127
12, 48000, Note_on_c, 11, 76, 0
12, 48000, Note_on_c, 11, 73, 127
12, 48060, Note_on_c, 11, 73, 0
12, 48060, Note_on_c, 11, 73, 127
12, 48120, Note_on_c, 11, 73, 0
12, 48120, Note_on_c, 11, 76, 127
12, 48180, Note_on_c, 11, 76, 0
12, 48180, Note_on_c, 11, 69, 127
12, 48240, Note_on_c, 11, 69, 0
12, 48240, Note_on_c, 11, 74, 127
12, 48300, Note_on_c, 11, 74, 0
12, 48300, Note_on_c, 11, 74, 127
12, 48360, Note_on_c, 11, 74, 0
12, 48420, Note_on_c, 11, 76, 127
12, 48450, Note_on_c, 11, 76, 0
12, 48450, Note_on_c, 11, 78, 127
12, 48480, Note_on_c, 11, 78, 0
12, 48480, Note_on_c, 11, 79, 127
12, 48540, Note_on_c, 11, 79, 0
12, 48540, Note_on_c, 11, 79, 127
12, 48570, Note_on_c, 11, 79, 0
12, 48570, Note_on_c, 11, 76, 127
12, 48600, Note_on_c, 11, 76, 0
12, 48600, Note_on_c, 11, 73, 127
12, 48660, Note_on_c, 11, 73, 0
12, 48660, Note_on_c, 11, 73, 127
12, 48720, Note_on_c, 11, 73, 0
12, 48720, Note_on_c, 11, 76, 127
12, 48780, Note_on_c, 11, 76, 0
12, 48780, Note_on_c, 11, 76, 127
12, 48810, Note_on_c, 11, 76, 0
12, 48810, Note_on_c, 11, 73, 127
12, 48840, Note_on_c, 11, 73, 0
12, 48840, Note_on_c, 11, 70, 127
12, 48960, Note_on_c, 11, 70, 0
12, 49080, Note_on_c, 11, 71, 127
12, 49140, Note_on_c, 11, 71, 0
12, 49140, Note_on_c, 11, 68, 127
12, 49200, Note_on_c, 11, 68, 0
12, 49200, Note_on_c, 11, 65, 127
12, 49320, Note_on_c, 11, 65, 0
12, 49320, Note_on_c, 11, 65, 127
12, 49380, Note_on_c, 11, 65, 0
12, 49380, Note_on_c, 11, 74, 127
12, 49440, Note_on_c, 11, 74, 0
12, 49440, Note_on_c, 11, 73, 127
12, 49500, Note_on_c, 11, 73, 0
12, 49500, Note_on_c, 11, 71, 127
12, 49560, Note_on_c, 11, 71, 0
12, 58410, Control_c, 11, 0, 20
12, 58410, Program_c, 11, 57
12, 58440, Note_on_c, 11, 69, 127
12, 58500, Note_on_c, 11, 69, 0
12, 58500, Note_on_c, 11, 69, 127
12, 58560, Note_on_c, 11, 69, 0
12, 58560, Note_on_c, 11, 76, 127
12, 58620, Note_on_c, 11, 76, 0
12, 58620, Note_on_c, 11, 76, 127
12, 58680, Note_on_c, 11, 76, 0
12, 58680, Note_on_c, 11, 79, 127
12, 58740, Note_on_c, 11, 79, 0
12, 58740, Note_on_c, 11, 78, 127
12, 58800, Note_on_c, 11, 78, 0
12, 58800, Note_on_c, 11, 78, 127
12, 58860, Note_on_c, 11, 78, 0
12, 58860, Note_on_c, 11, 78, 127
12, 58920, Note_on_c, 11, 78, 0
12, 90750, Control_c, 11, 0, 20
12, 90750, Program_c, 11, 57
12, 90780, Note_on_c, 11, 69, 127
12, 90839, Note_on_c, 11, 69, 0
12, 90840, Note_on_c, 11, 74, 127
12, 90899, Note_on_c, 11, 74, 0
12, 90900, Note_on_c, 11, 66, 127
12, 90929, Note_on_c, 11, 66, 0
12, 90930, Note_on_c, 11, 67, 127
12, 90959, Note_on_c, 11, 67, 0
12, 90960, Note_on_c, 11, 69, 127
12, 91019, Note_on_c, 11, 69, 0
12, 91020, Note_on_c, 11, 62, 127
12, 91079, Note_on_c, 11, 62, 0
12, 91140, Note_on_c, 11, 62, 127
12, 91199, Note_on_c, 11, 62, 0
12, 91200, Note_on_c, 11, 69, 127
12, 91259, Note_on_c, 11, 69, 0
12, 91260, Note_on_c, 11, 69, 127
12, 91319, Note_on_c, 11, 69, 0
12, 91320, Note_on_c, 11, 69, 127
12, 91379, Note_on_c, 11, 69, 0
12, 91380, Note_on_c, 11, 69, 127
12, 91409, Note_on_c, 11, 69, 0
12, 91410, Note_on_c, 11, 71, 127
12, 91439, Note_on_c, 11, 71, 0
12, 91440, Note_on_c, 11, 72, 127
12, 91499, Note_on_c, 11, 72, 0
12, 91500, Note_on_c, 11, 72, 127
12, 91559, Note_on_c, 11, 72, 0
12, 91560, Note_on_c, 11, 76, 127
12, 91619, Note_on_c, 11, 76, 0
12, 91620, Note_on_c, 11, 76, 127
12, 91649, Note_on_c, 11, 76, 0
12, 91650, Note_on_c, 11, 74, 127
12, 91679, Note_on_c, 11, 74, 0
12, 91680, Note_on_c, 11, 71, 127
12, 91739, Note_on_c, 11, 71, 0
12, 91740, Note_on_c, 11, 71, 127
12, 91799, Note_on_c, 11, 71, 0
12, 91860, Note_on_c, 11, 74, 127
12, 91919, Note_on_c, 11, 74, 0
12, 91920, Note_on_c, 11, 68, 127
12, 91979, Note_on_c, 11, 68, 0
12, 91980, Note_on_c, 11, 77, 127
12, 92009, Note_on_c, 11, 77, 0
12, 92010, Note_on_c, 11, 76, 127
12, 92039, Note_on_c, 11, 76, 0
12, 92040, Note_on_c, 11, 76, 127
12, 92099, Note_on_c, 11, 76, 0
12, 92100, Note_on_c, 11, 69, 127
12, 92159, Note_on_c, 11, 69, 0
12, 92160, Note_on_c, 11, 69, 127
12, 92219, Note_on_c, 11, 69, 0
12, 92220, Note_on_c, 11, 64, 127
12, 92279, Note_on_c, 11, 64, 0
12, 165165, Control_c, 11, 0, 20
12, 165165, Program_c, 11, 57
12, 165180, Note_on_c, 11, 69, 127
12, 165239, Note_on_c, 11, 69, 0
12, 165240, Note_on_c, 11, 73, 127
12, 165299, Note_on_c, 11, 73, 0
12, 165300, Note_on_c, 11, 74, 127
12, 165359, Note_on_c, 11, 74, 0
12, 165360, Note_on_c, 11, 76, 127
12, 165419, Note_on_c, 11, 76, 0
12, 165420, Note_on_c, 11, 76, 127
12, 165479, Note_on_c, 11, 76, 0
12, 165480, Note_on_c, 11, 81, 127
12, 165539, Note_on_c, 11, 81, 0
12, 165540, Note_on_c, 11, 73, 127
12, 165569, Note_on_c, 11, 73, 0
12, 165570, Note_on_c, 11, 74, 127
12, 165599, Note_on_c, 11, 74, 0
12, 165600, Note_on_c, 11, 76, 127
12, 165659, Note_on_c, 11, 76, 0
12, 165660, Note_on_c, 11, 69, 127
12, 165719, Note_on_c, 11, 69, 0
12, 165780, Note_on_c, 11, 69, 127
12, 165839, Note_on_c, 11, 69, 0
12, 165840, Note_on_c, 11, 79, 127
12, 165899, Note_on_c, 11, 79, 0
12, 165900, Note_on_c, 11, 79, 127
12, 165929, Note_on_c, 11, 79, 0
12, 165930, Note_on_c, 11, 79, 127
12, 165959, Note_on_c, 11, 79, 0
12, 165960, Note_on_c, 11, 76, 127
12, 165989, Note_on_c, 11, 76, 0
12, 165990, Note_on_c, 11, 76, 127
12, 166019, Note_on_c, 11, 76, 0
12, 166020, Note_on_c, 11, 78, 127
12, 166049, Note_on_c, 11, 78, 0
12, 166050, Note_on_c, 11, 79, 127
12, 166079, Note_on_c, 11, 79, 0
12, 166080, Note_on_c, 11, 78, 127
12, 166139, Note_on_c, 11, 78, 0
12, 166140, Note_on_c, 11, 78, 127
12, 166199, Note_on_c, 11, 78, 0
12, 166260, Note_on_c, 11, 74, 127
12, 166319, Note_on_c, 11, 74, 0
12, 166320, Note_on_c, 11, 71, 127
12, 166379, Note_on_c, 11, 71, 0
12, 166380, Note_on_c, 11, 71, 127
12, 166439, Note_on_c, 11, 71, 0
12, 166440, Note_on_c, 11, 73, 127
12, 166499, Note_on_c, 11, 73, 0
12, 166500, Note_on_c, 11, 74, 127
12, 166559, Note_on_c, 11, 74, 0
12, 166560, Note_on_c, 11, 74, 127
12, 166619, Note_on_c, 11, 74, 0
12, 166620, Note_on_c, 11, 69, 127
12, 166679, Note_on_c, 11, 69, 0
12, 166679, End_track
13, 0, Start_track
13, 0, MIDI_port, 0
13, 0, Title_t, "Alto Solo"
13, 0, Control_c, 12, 7, 127
13, 0, Control_c, 12, 10, 90
13, 108075, Control_c, 12, 0, 20
13, 108075, Program_c, 12, 65
13, 108120, Note_on_c, 12, 67, 120
13, 109020, Note_on_c, 12, 67, 0
13, 109020, Note_on_c, 12, 65, 120
13, 109080, Note_on_c, 12, 65, 0
13, 109080, Note_on_c, 12, 65, 120
13, 109140, Note_on_c, 12, 65, 0
13, 109140, Note_on_c, 12, 64, 120
13, 109200, Note_on_c, 12, 64, 0
13, 109200, Note_on_c, 12, 64, 120
13, 109980, Note_on_c, 12, 64, 0
13, 109980, Note_on_c, 12, 62, 120
13, 110040, Note_on_c, 12, 62, 0
13, 110040, Note_on_c, 12, 62, 120
13, 110100, Note_on_c, 12, 62, 0
13, 110100, Note_on_c, 12, 60, 120
13, 110160, Note_on_c, 12, 60, 0
13, 110160, Note_on_c, 12, 60, 120
13, 110700, Note_on_c, 12, 60, 0
13, 110700, Note_on_c, 12, 59, 120
13, 110760, Note_on_c, 12, 59, 0
13, 110760, Note_on_c, 12, 59, 120
13, 110820, Note_on_c, 12, 59, 0
13, 110820, Note_on_c, 12, 60, 120
13, 110880, Note_on_c, 12, 60, 0
13, 110880, Note_on_c, 12, 60, 120
13, 111000, Note_on_c, 12, 60, 0
13, 111000, Note_on_c, 12, 59, 120
13, 111120, Note_on_c, 12, 59, 0
13, 111120, Note_on_c, 12, 62, 110
13, 111179, Note_on_c, 12, 62, 0
13, 111180, Note_on_c, 12, 64, 110
13, 111239, Note_on_c, 12, 64, 0
13, 111240, Note_on_c, 12, 64, 110
13, 111299, Note_on_c, 12, 64, 0
13, 111300, Note_on_c, 12, 66, 110
13, 111359, Note_on_c, 12, 66, 0
13, 111360, Note_on_c, 12, 66, 110
13, 111419, Note_on_c, 12, 66, 0
13, 111420, Note_on_c, 12, 67, 110
13, 111479, Note_on_c, 12, 67, 0
13, 111480, Note_on_c, 12, 67, 110
13, 111539, Note_on_c, 12, 67, 0
13, 111540, Note_on_c, 12, 62, 110
13, 111599, Note_on_c, 12, 62, 0
13, 111600, Note_on_c, 12, 62, 110
13, 111659, Note_on_c, 12, 62, 0
13, 111660, Note_on_c, 12, 64, 110
13, 111719, Note_on_c, 12, 64, 0
13, 111720, Note_on_c, 12, 64, 110
13, 111779, Note_on_c, 12, 64, 0
13, 111780, Note_on_c, 12, 65, 110
13, 111839, Note_on_c, 12, 65, 0
13, 111840, Note_on_c, 12, 65, 110
13, 112079, Note_on_c, 12, 65, 0
13, 112080, Note_on_c, 12, 71, 110
13, 112169, Note_on_c, 12, 71, 0
13, 112170, Note_on_c, 12, 72, 110
13, 112184, Note_on_c, 12, 72, 0
13, 112185, Note_on_c, 12, 74, 110
13, 112199, Note_on_c, 12, 74, 0
13, 112200, Note_on_c, 12, 72, 110
13, 112229, Note_on_c, 12, 72, 0
13, 112230, Note_on_c, 12, 71, 110
13, 112259, Note_on_c, 12, 71, 0
13, 112260, Note_on_c, 12, 69, 110
13, 112289, Note_on_c, 12, 69, 0
13, 112290, Note_on_c, 12, 67, 110
13, 112319, Note_on_c, 12, 67, 0
13, 112320, Note_on_c, 12, 72, 110
13, 112379, Note_on_c, 12, 72, 0
13, 112380, Note_on_c, 12, 67, 110
13, 112439, Note_on_c, 12, 67, 0
13, 112440, Note_on_c, 12, 64, 110
13, 112499, Note_on_c, 12, 64, 0
13, 112500, Note_on_c, 12, 67, 110
13, 112559, Note_on_c, 12, 67, 0
13, 112560, Note_on_c, 12, 72, 110
13, 112649, Note_on_c, 12, 72, 0
13, 112650, Note_on_c, 12, 74, 110
13, 112664, Note_on_c, 12, 74, 0
13, 112665, Note_on_c, 12, 76, 110
13, 112679, Note_on_c, 12, 76, 0
13, 112680, Note_on_c, 12, 74, 110
13, 112709, Note_on_c, 12, 74, 0
13, 112710, Note_on_c, 12, 72, 110
13, 112739, Note_on_c, 12, 72, 0
13, 112740, Note_on_c, 12, 71, 110
13, 112769, Note_on_c, 12, 71, 0
13, 112770, Note_on_c, 12, 69, 110
13, 112799, Note_on_c, 12, 69, 0
13, 112800, Note_on_c, 12, 67, 110
13, 112859, Note_on_c, 12, 67, 0
13, 112860, Note_on_c, 12, 66, 110
13, 112919, Note_on_c, 12, 66, 0
13, 112920, Note_on_c, 12, 72, 110
13, 113039, Note_on_c, 12, 72, 0
13, 113040, Note_on_c, 12, 71, 110
13, 113129, Note_on_c, 12, 71, 0
13, 113130, Note_on_c, 12, 72, 110
13, 113144, Note_on_c, 12, 72, 0
13, 113145, Note_on_c, 12, 74, 110
13, 113159, Note_on_c, 12, 74, 0
13, 113160, Note_on_c, 12, 72, 110
13, 113189, Note_on_c, 12, 72, 0
13, 113190, Note_on_c, 12, 71, 110
13, 113219, Note_on_c, 12, 71, 0
13, 113220, Note_on_c, 12, 69, 110
13, 113249, Note_on_c, 12, 69, 0
13, 113250, Note_on_c, 12, 67, 110
13, 113279, Note_on_c, 12, 67, 0
13, 113280, Note_on_c, 12, 69, 110
13, 113339, Note_on_c, 12, 69, 0
13, 113340, Note_on_c, 12, 66, 110
13, 113399, Note_on_c, 12, 66, 0
13, 113400, Note_on_c, 12, 67, 110
13, 113459, Note_on_c, 12, 67, 0
13, 113460, Note_on_c, 12, 62, 110
13, 113519, Note_on_c, 12, 62, 0
13, 113520, Note_on_c, 12, 67, 110
13, 113609, Note_on_c, 12, 67, 0
13, 113610, Note_on_c, 12, 69, 110
13, 113624, Note_on_c, 12, 69, 0
13, 113625, Note_on_c, 12, 71, 110
13, 113639, Note_on_c, 12, 71, 0
13, 113640, Note_on_c, 12, 69, 110
13, 113669, Note_on_c, 12, 69, 0
13, 113670, Note_on_c, 12, 67, 110
13, 113699, Note_on_c, 12, 67, 0
13, 113700, Note_on_c, 12, 66, 110
13, 113729, Note_on_c, 12, 66, 0
13, 113730, Note_on_c, 12, 64, 110
13, 113759, Note_on_c, 12, 64, 0
13, 113760, Note_on_c, 12, 62, 110
13, 113819, Note_on_c, 12, 62, 0
13, 113820, Note_on_c, 12, 61, 110
13, 113999, Note_on_c, 12, 61, 0
13, 114000, Note_on_c, 12, 74, 110
13, 114059, Note_on_c, 12, 74, 0
13, 114060, Note_on_c, 12, 73, 110
13, 114089, Note_on_c, 12, 73, 0
13, 114090, Note_on_c, 12, 71, 110
13, 114119, Note_on_c, 12, 71, 0
13, 114120, Note_on_c, 12, 69, 110
13, 114179, Note_on_c, 12, 69, 0
13, 114180, Note_on_c, 12, 67, 110
13, 114239, Note_on_c, 12, 67, 0
13, 114240, Note_on_c, 12, 66, 110
13, 114299, Note_on_c, 12, 66, 0
13, 114300, Note_on_c, 12, 71, 110
13, 114359, Note_on_c, 12, 71, 0
13, 114360, Note_on_c, 12, 69, 110
13, 114419, Note_on_c, 12, 69, 0
13, 114420, Note_on_c, 12, 67, 110
13, 114479, Note_on_c, 12, 67, 0
13, 114480, Note_on_c, 12, 66, 110
13, 114539, Note_on_c, 12, 66, 0
13, 114540, Note_on_c, 12, 64, 110
13, 114569, Note_on_c, 12, 64, 0
13, 114570, Note_on_c, 12, 62, 110
13, 114599, Note_on_c, 12, 62, 0
13, 114600, Note_on_c, 12, 64, 110
13, 114615, Note_on_c, 12, 64, 0
13, 114615, Note_on_c, 12, 66, 110
13, 114630, Note_on_c, 12, 66, 0
13, 114630, Note_on_c, 12, 64, 110
13, 114640, Note_on_c, 12, 64, 0
13, 114640, Note_on_c, 12, 66, 110
13, 114650, Note_on_c, 12, 66, 0
13, 114650, Note_on_c, 12, 64, 110
13, 114660, Note_on_c, 12, 64, 0
13, 114660, Note_on_c, 12, 66, 110
13, 114670, Note_on_c, 12, 66, 0
13, 114670, Note_on_c, 12, 64, 110
13, 114680, Note_on_c, 12, 64, 0
13, 114680, Note_on_c, 12, 66, 110
13, 114690, Note_on_c, 12, 66, 0
13, 114690, Note_on_c, 12, 64, 110
13, 114700, Note_on_c, 12, 64, 0
13, 114700, Note_on_c, 12, 62, 110
13, 114710, Note_on_c, 12, 62, 0
13, 114710, Note_on_c, 12, 64, 110
13, 114720, Note_on_c, 12, 64, 0
13, 114720, Note_on_c, 12, 62, 110
13, 114839, Note_on_c, 12, 62, 0
13, 117840, Note_on_c, 12, 66, 110
13, 117929, Note_on_c, 12, 66, 0
13, 117930, Note_on_c, 12, 67, 110
13, 117944, Note_on_c, 12, 67, 0
13, 117945, Note_on_c, 12, 69, 110
13, 117959, Note_on_c, 12, 69, 0
13, 117960, Note_on_c, 12, 67, 110
13, 117989, Note_on_c, 12, 67, 0
13, 117990, Note_on_c, 12, 66, 110
13, 118019, Note_on_c, 12, 66, 0
13, 118020, Note_on_c, 12, 64, 110
13, 118049, Note_on_c, 12, 64, 0
13, 118050, Note_on_c, 12, 62, 110
13, 118079, Note_on_c, 12, 62, 0
13, 118080, Note_on_c, 12, 64, 110
13, 118139, Note_on_c, 12, 64, 0
13, 118140, Note_on_c, 12, 61, 110
13, 118199, Note_on_c, 12, 61, 0
13, 118200, Note_on_c, 12, 62, 110
13, 118259, Note_on_c, 12, 62, 0
13, 118260, Note_on_c, 12, 57, 110
13, 118319, Note_on_c, 12, 57, 0
13, 118320, Note_on_c, 12, 66, 110
13, 118409, Note_on_c, 12, 66, 0
13, 118410, Note_on_c, 12, 67, 110
13, 118424, Note_on_c, 12, 67, 0
13, 118425, Note_on_c, 12, 69, 110
13, 118439, Note_on_c, 12, 69, 0
13, 118440, Note_on_c, 12, 67, 110
13, 118469, Note_on_c, 12, 67, 0
13, 118470, Note_on_c, 12, 66, 110
13, 118499, Note_on_c, 12, 66, 0
13, 118500, Note_on_c, 12, 64, 110
13, 118529, Note_on_c, 12, 64, 0
13, 118530, Note_on_c, 12, 62, 110
13, 118559, Note_on_c, 12, 62, 0
13, 118560, Note_on_c, 12, 60, 110
13, 118799, Note_on_c, 12, 60, 0
13, 118800, Note_on_c, 12, 71, 110
13, 118889, Note_on_c, 12, 71, 0
13, 118890, Note_on_c, 12, 72, 110
13, 118904, Note_on_c, 12, 72, 0
13, 118905, Note_on_c, 12, 74, 110
13, 118919, Note_on_c, 12, 74, 0
13, 118920, Note_on_c, 12, 72, 110
13, 118949, Note_on_c, 12, 72, 0
13, 118950, Note_on_c, 12, 71, 110
13, 118979, Note_on_c, 12, 71, 0
13, 118980, Note_on_c, 12, 69, 110
13, 119009, Note_on_c, 12, 69, 0
13, 119010, Note_on_c, 12, 67, 110
13, 119039, Note_on_c, 12, 67, 0
13, 119040, Note_on_c, 12, 69, 110
13, 119099, Note_on_c, 12, 69, 0
13, 119100, Note_on_c, 12, 66, 110
13, 119159, Note_on_c, 12, 66, 0
13, 119160, Note_on_c, 12, 67, 110
13, 119219, Note_on_c, 12, 67, 0
13, 119220, Note_on_c, 12, 62, 110
13, 119279, Note_on_c, 12, 62, 0
13, 119280, Note_on_c, 12, 71, 110
13, 119369, Note_on_c, 12, 71, 0
13, 119370, Note_on_c, 12, 72, 110
13, 119384, Note_on_c, 12, 72, 0
13, 119385, Note_on_c, 12, 74, 110
13, 119399, Note_on_c, 12, 74, 0
13, 119400, Note_on_c, 12, 72, 110
13, 119429, Note_on_c, 12, 72, 0
13, 119430, Note_on_c, 12, 71, 110
13, 119459, Note_on_c, 12, 71, 0
13, 119460, Note_on_c, 12, 69, 110
13, 119489, Note_on_c, 12, 69, 0
13, 119490, Note_on_c, 12, 67, 110
13, 119519, Note_on_c, 12, 67, 0
13, 119520, Note_on_c, 12, 65, 110
13, 119759, Note_on_c, 12, 65, 0
13, 119760, Note_on_c, 12, 64, 110
13, 119820, Note_on_c, 12, 64, 0
13, 119820, Note_on_c, 12, 76, 110
13, 119909, Note_on_c, 12, 76, 0
13, 119910, Note_on_c, 12, 74, 110
13, 119939, Note_on_c, 12, 74, 0
13, 119940, Note_on_c, 12, 72, 110
13, 119969, Note_on_c, 12, 72, 0
13, 119970, Note_on_c, 12, 71, 110
13, 119999, Note_on_c, 12, 71, 0
13, 120000, Note_on_c, 12, 72, 110
13, 120059, Note_on_c, 12, 72, 0
13, 120060, Note_on_c, 12, 71, 110
13, 120119, Note_on_c, 12, 71, 0
13, 120120, Note_on_c, 12, 69, 110
13, 120179, Note_on_c, 12, 69, 0
13, 120180, Note_on_c, 12, 67, 110
13, 120239, Note_on_c, 12, 67, 0
13, 120240, Note_on_c, 12, 66, 110
13, 120299, Note_on_c, 12, 66, 0
13, 120300, Note_on_c, 12, 74, 110
13, 120389, Note_on_c, 12, 74, 0
13, 120390, Note_on_c, 12, 72, 110
13, 120419, Note_on_c, 12, 72, 0
13, 120420, Note_on_c, 12, 71, 110
13, 120449, Note_on_c, 12, 71, 0
13, 120450, Note_on_c, 12, 69, 110
13, 120479, Note_on_c, 12, 69, 0
13, 120480, Note_on_c, 12, 71, 110
13, 120539, Note_on_c, 12, 71, 0
13, 120540, Note_on_c, 12, 69, 110
13, 120599, Note_on_c, 12, 69, 0
13, 120600, Note_on_c, 12, 67, 110
13, 120659, Note_on_c, 12, 67, 0
13, 120660, Note_on_c, 12, 65, 110
13, 120719, Note_on_c, 12, 65, 0
13, 120720, Note_on_c, 12, 64, 110
13, 120779, Note_on_c, 12, 64, 0
13, 120780, Note_on_c, 12, 69, 110
13, 120839, Note_on_c, 12, 69, 0
13, 120840, Note_on_c, 12, 69, 110
13, 120899, Note_on_c, 12, 69, 0
13, 120900, Note_on_c, 12, 72, 110
13, 120959, Note_on_c, 12, 72, 0
13, 120960, Note_on_c, 12, 72, 110
13, 121049, Note_on_c, 12, 72, 0
13, 121050, Note_on_c, 12, 74, 110
13, 121064, Note_on_c, 12, 74, 0
13, 121065, Note_on_c, 12, 76, 110
13, 121079, Note_on_c, 12, 76, 0
13, 121080, Note_on_c, 12, 74, 110
13, 121109, Note_on_c, 12, 74, 0
13, 121110, Note_on_c, 12, 72, 110
13, 121139, Note_on_c, 12, 72, 0
13, 121140, Note_on_c, 12, 71, 110
13, 121169, Note_on_c, 12, 71, 0
13, 121170, Note_on_c, 12, 69, 110
13, 121199, Note_on_c, 12, 69, 0
13, 121200, Note_on_c, 12, 67, 110
13, 121230, Note_on_c, 12, 67, 0
13, 121230, Note_on_c, 12, 66, 110
13, 121260, Note_on_c, 12, 66, 0
13, 121260, Note_on_c, 12, 67, 110
13, 121290, Note_on_c, 12, 67, 0
13, 121290, Note_on_c, 12, 72, 110
13, 121320, Note_on_c, 12, 72, 0
13, 121320, Note_on_c, 12, 69, 110
13, 121330, Note_on_c, 12, 69, 0
13, 121330, Note_on_c, 12, 71, 110
13, 121340, Note_on_c, 12, 71, 0
13, 121340, Note_on_c, 12, 69, 110
13, 121350, Note_on_c, 12, 69, 0
13, 121350, Note_on_c, 12, 71, 110
13, 121357, Note_on_c, 12, 69, 110
13, 121358, Note_on_c, 12, 71, 0
13, 121365, Note_on_c, 12, 69, 0
13, 121365, Note_on_c, 12, 71, 110
13, 121372, Note_on_c, 12, 69, 110
13, 121373, Note_on_c, 12, 71, 0
13, 121380, Note_on_c, 12, 69, 0
13, 121380, Note_on_c, 12, 71, 110
13, 121387, Note_on_c, 12, 69, 110
13, 121388, Note_on_c, 12, 71, 0
13, 121395, Note_on_c, 12, 69, 0
13, 121395, Note_on_c, 12, 71, 110
13, 121402, Note_on_c, 12, 69, 110
13, 121403, Note_on_c, 12, 71, 0
13, 121410, Note_on_c, 12, 69, 0
13, 121410, Note_on_c, 12, 71, 110
13, 121417, Note_on_c, 12, 69, 110
13, 121418, Note_on_c, 12, 71, 0
13, 121425, Note_on_c, 12, 69, 0
13, 121425, Note_on_c, 12, 67, 110
13, 121432, Note_on_c, 12, 69, 110
13, 121433, Note_on_c, 12, 67, 0
13, 121440, Note_on_c, 12, 69, 0
13, 121440, Note_on_c, 12, 67, 110
13, 121559, Note_on_c, 12, 67, 0
13, 121620, Note_on_c, 12, 67, 110
13, 121739, Note_on_c, 12, 67, 0
13, 121740, Note_on_c, 12, 64, 110
13, 121799, Note_on_c, 12, 64, 0
13, 121800, Note_on_c, 12, 64, 110
13, 121859, Note_on_c, 12, 64, 0
13, 121860, Note_on_c, 12, 66, 110
13, 121919, Note_on_c, 12, 66, 0
13, 122100, Note_on_c, 12, 72, 110
13, 122219, Note_on_c, 12, 72, 0
13, 122220, Note_on_c, 12, 69, 110
13, 122279, Note_on_c, 12, 69, 0
13, 122280, Note_on_c, 12, 69, 110
13, 122339, Note_on_c, 12, 69, 0
13, 122340, Note_on_c, 12, 71, 110
13, 122399, Note_on_c, 12, 71, 0
13, 122460, Note_on_c, 12, 64, 110
13, 122489, Note_on_c, 12, 64, 0
13, 122490, Note_on_c, 12, 66, 110
13, 122519, Note_on_c, 12, 66, 0
13, 122520, Note_on_c, 12, 68, 110
13, 122549, Note_on_c, 12, 68, 0
13, 122550, Note_on_c, 12, 69, 110
13, 122579, Note_on_c, 12, 69, 0
13, 122580, Note_on_c, 12, 71, 110
13, 122609, Note_on_c, 12, 71, 0
13, 122610, Note_on_c, 12, 72, 110
13, 122639, Note_on_c, 12, 72, 0
13, 122640, Note_on_c, 12, 74, 110
13, 122699, Note_on_c, 12, 74, 0
13, 122700, Note_on_c, 12, 72, 110
13, 122759, Note_on_c, 12, 72, 0
13, 122760, Note_on_c, 12, 72, 110
13, 122819, Note_on_c, 12, 72, 0
13, 122940, Note_on_c, 12, 64, 110
13, 122999, Note_on_c, 12, 64, 0
13, 123000, Note_on_c, 12, 73, 110
13, 123179, Note_on_c, 12, 73, 0
13, 123180, Note_on_c, 12, 74, 110
13, 123299, Note_on_c, 12, 74, 0
13, 123300, Note_on_c, 12, 72, 110
13, 123419, Note_on_c, 12, 72, 0
13, 123420, Note_on_c, 12, 70, 110
13, 123539, Note_on_c, 12, 70, 0
13, 123540, Note_on_c, 12, 69, 110
13, 123599, Note_on_c, 12, 69, 0
13, 123600, Note_on_c, 12, 74, 110
13, 123659, Note_on_c, 12, 74, 0
13, 123660, Note_on_c, 12, 67, 110
13, 123779, Note_on_c, 12, 67, 0
13, 123780, Note_on_c, 12, 66, 110
13, 123809, Note_on_c, 12, 66, 0
13, 123810, Note_on_c, 12, 64, 110
13, 123839, Note_on_c, 12, 64, 0
13, 123840, Note_on_c, 12, 62, 110
13, 123899, Note_on_c, 12, 62, 0
13, 123900, Note_on_c, 12, 64, 110
13, 123929, Note_on_c, 12, 64, 0
13, 123930, Note_on_c, 12, 66, 110
13, 123959, Note_on_c, 12, 66, 0
13, 123960, Note_on_c, 12, 67, 110
13, 123989, Note_on_c, 12, 67, 0
13, 123990, Note_on_c, 12, 69, 110
13, 124019, Note_on_c, 12, 69, 0
13, 124020, Note_on_c, 12, 71, 110
13, 124049, Note_on_c, 12, 71, 0
13, 124050, Note_on_c, 12, 72, 110
13, 124079, Note_on_c, 12, 72, 0
13, 124080, Note_on_c, 12, 72, 110
13, 124109, Note_on_c, 12, 72, 0
13, 124110, Note_on_c, 12, 71, 110
13, 124139, Note_on_c, 12, 71, 0
13, 124140, Note_on_c, 12, 69, 110
13, 124169, Note_on_c, 12, 69, 0
13, 124170, Note_on_c, 12, 67, 110
13, 124199, Note_on_c, 12, 67, 0
13, 124200, Note_on_c, 12, 69, 110
13, 124215, Note_on_c, 12, 69, 0
13, 124215, Note_on_c, 12, 71, 110
13, 124230, Note_on_c, 12, 71, 0
13, 124230, Note_on_c, 12, 69, 110
13, 124240, Note_on_c, 12, 69, 0
13, 124240, Note_on_c, 12, 71, 110
13, 124250, Note_on_c, 12, 71, 0
13, 124250, Note_on_c, 12, 69, 110
13, 124260, Note_on_c, 12, 69, 0
13, 124260, Note_on_c, 12, 71, 110
13, 124270, Note_on_c, 12, 71, 0
13, 124270, Note_on_c, 12, 69, 110
13, 124280, Note_on_c, 12, 69, 0
13, 124280, Note_on_c, 12, 71, 110
13, 124290, Note_on_c, 12, 71, 0
13, 124290, Note_on_c, 12, 69, 110
13, 124300, Note_on_c, 12, 69, 0
13, 124300, Note_on_c, 12, 67, 110
13, 124310, Note_on_c, 12, 67, 0
13, 124310, Note_on_c, 12, 69, 110
13, 124320, Note_on_c, 12, 69, 0
13, 124320, Note_on_c, 12, 67, 110
13, 124439, Note_on_c, 12, 67, 0
13, 128400, Note_on_c, 12, 71, 110
13, 128459, Note_on_c, 12, 71, 0
13, 128460, Note_on_c, 12, 72, 110
13, 128489, Note_on_c, 12, 72, 0
13, 128490, Note_on_c, 12, 71, 110
13, 128519, Note_on_c, 12, 71, 0
13, 128520, Note_on_c, 12, 69, 110
13, 128549, Note_on_c, 12, 69, 0
13, 128550, Note_on_c, 12, 67, 110
13, 128579, Note_on_c, 12, 67, 0
13, 128580, Note_on_c, 12, 66, 110
13, 128609, Note_on_c, 12, 66, 0
13, 128610, Note_on_c, 12, 64, 110
13, 128639, Note_on_c, 12, 64, 0
13, 128640, Note_on_c, 12, 64, 110
13, 128699, Note_on_c, 12, 64, 0
13, 128700, Note_on_c, 12, 63, 110
13, 128759, Note_on_c, 12, 63, 0
13, 128820, Note_on_c, 12, 59, 110
13, 128879, Note_on_c, 12, 59, 0
13, 128880, Note_on_c, 12, 71, 110
13, 128939, Note_on_c, 12, 71, 0
13, 128940, Note_on_c, 12, 72, 110
13, 128969, Note_on_c, 12, 72, 0
13, 128970, Note_on_c, 12, 71, 110
13, 128999, Note_on_c, 12, 71, 0
13, 129000, Note_on_c, 12, 69, 110
13, 129029, Note_on_c, 12, 69, 0
13, 129030, Note_on_c, 12, 67, 110
13, 129059, Note_on_c, 12, 67, 0
13, 129060, Note_on_c, 12, 66, 110
13, 129089, Note_on_c, 12, 66, 0
13, 129090, Note_on_c, 12, 64, 110
13, 129119, Note_on_c, 12, 64, 0
13, 129120, Note_on_c, 12, 64, 110
13, 129179, Note_on_c, 12, 64, 0
13, 129180, Note_on_c, 12, 63, 110
13, 129239, Note_on_c, 12, 63, 0
13, 129240, Note_on_c, 12, 66, 110
13, 129299, Note_on_c, 12, 66, 0
13, 129300, Note_on_c, 12, 67, 110
13, 129359, Note_on_c, 12, 67, 0
13, 129360, Note_on_c, 12, 69, 110
13, 129419, Note_on_c, 12, 69, 0
13, 129420, Note_on_c, 12, 67, 110
13, 129479, Note_on_c, 12, 67, 0
13, 129480, Note_on_c, 12, 66, 110
13, 129539, Note_on_c, 12, 66, 0
13, 129540, Note_on_c, 12, 71, 110
13, 129599, Note_on_c, 12, 71, 0
13, 129600, Note_on_c, 12, 67, 110
13, 129629, Note_on_c, 12, 67, 0
13, 129630, Note_on_c, 12, 66, 110
13, 129659, Note_on_c, 12, 66, 0
13, 129660, Note_on_c, 12, 64, 110
13, 129749, Note_on_c, 12, 64, 0
13, 129750, Note_on_c, 12, 59, 110
13, 129779, Note_on_c, 12, 59, 0
13, 129780, Note_on_c, 12, 64, 110
13, 129809, Note_on_c, 12, 64, 0
13, 129810, Note_on_c, 12, 66, 110
13, 129839, Note_on_c, 12, 66, 0
13, 129840, Note_on_c, 12, 67, 110
13, 129869, Note_on_c, 12, 67, 0
13, 129870, Note_on_c, 12, 66, 110
13, 129899, Note_on_c, 12, 66, 0
13, 129900, Note_on_c, 12, 67, 110
13, 129929, Note_on_c, 12, 67, 0
13, 129930, Note_on_c, 12, 71, 110
13, 129959, Note_on_c, 12, 71, 0
13, 129960, Note_on_c, 12, 69, 110
13, 129989, Note_on_c, 12, 69, 0
13, 129990, Note_on_c, 12, 67, 110
13, 130019, Note_on_c, 12, 67, 0
13, 130020, Note_on_c, 12, 66, 110
13, 130049, Note_on_c, 12, 66, 0
13, 130050, Note_on_c, 12, 64, 110
13, 130079, Note_on_c, 12, 64, 0
13, 130080, Note_on_c, 12, 67, 110
13, 130109, Note_on_c, 12, 67, 0
13, 130110, Note_on_c, 12, 66, 110
13, 130139, Note_on_c, 12, 66, 0
13, 130140, Note_on_c, 12, 64, 110
13, 130169, Note_on_c, 12, 64, 0
13, 130170, Note_on_c, 12, 62, 110
13, 130199, Note_on_c, 12, 62, 0
13, 130200, Note_on_c, 12, 69, 110
13, 130259, Note_on_c, 12, 69, 0
13, 130260, Note_on_c, 12, 71, 110
13, 130270, Note_on_c, 12, 71, 0
13, 130270, Note_on_c, 12, 72, 110
13, 130280, Note_on_c, 12, 72, 0
13, 130280, Note_on_c, 12, 71, 110
13, 130290, Note_on_c, 12, 71, 0
13, 130290, Note_on_c, 12, 72, 110
13, 130297, Note_on_c, 12, 71, 110
13, 130298, Note_on_c, 12, 72, 0
13, 130305, Note_on_c, 12, 71, 0
13, 130305, Note_on_c, 12, 72, 110
13, 130312, Note_on_c, 12, 71, 110
13, 130313, Note_on_c, 12, 72, 0
13, 130320, Note_on_c, 12, 71, 0
13, 130320, Note_on_c, 12, 72, 110
13, 130379, Note_on_c, 12, 72, 0
13, 130380, Note_on_c, 12, 74, 110
13, 130409, Note_on_c, 12, 74, 0
13, 130410, Note_on_c, 12, 72, 110
13, 130439, Note_on_c, 12, 72, 0
13, 130440, Note_on_c, 12, 71, 110
13, 130469, Note_on_c, 12, 71, 0
13, 130470, Note_on_c, 12, 69, 110
13, 130499, Note_on_c, 12, 69, 0
13, 130500, Note_on_c, 12, 68, 110
13, 130529, Note_on_c, 12, 68, 0
13, 130530, Note_on_c, 12, 69, 110
13, 130559, Note_on_c, 12, 69, 0
13, 130560, Note_on_c, 12, 71, 110
13, 130619, Note_on_c, 12, 71, 0
13, 130620, Note_on_c, 12, 72, 110
13, 130649, Note_on_c, 12, 72, 0
13, 130650, Note_on_c, 12, 74, 110
13, 130679, Note_on_c, 12, 74, 0
13, 130680, Note_on_c, 12, 72, 110
13, 130709, Note_on_c, 12, 72, 0
13, 130710, Note_on_c, 12, 71, 110
13, 130739, Note_on_c, 12, 71, 0
13, 130740, Note_on_c, 12, 69, 110
13, 130769, Note_on_c, 12, 69, 0
13, 130770, Note_on_c, 12, 71, 110
13, 130799, Note_on_c, 12, 71, 0
13, 130800, Note_on_c, 12, 72, 110
13, 130829, Note_on_c, 12, 72, 0
13, 130830, Note_on_c, 12, 71, 110
13, 130859, Note_on_c, 12, 71, 0
13, 130860, Note_on_c, 12, 74, 110
13, 130889, Note_on_c, 12, 74, 0
13, 130890, Note_on_c, 12, 72, 110
13, 130919, Note_on_c, 12, 72, 0
13, 130920, Note_on_c, 12, 71, 110
13, 130949, Note_on_c, 12, 71, 0
13, 130950, Note_on_c, 12, 69, 110
13, 130979, Note_on_c, 12, 69, 0
13, 130980, Note_on_c, 12, 68, 110
13, 131009, Note_on_c, 12, 68, 0
13, 131010, Note_on_c, 12, 69, 110
13, 131039, Note_on_c, 12, 69, 0
13, 131040, Note_on_c, 12, 71, 110
13, 131099, Note_on_c, 12, 71, 0
13, 131100, Note_on_c, 12, 64, 110
13, 131159, Note_on_c, 12, 64, 0
13, 131220, Note_on_c, 12, 69, 110
13, 131309, Note_on_c, 12, 69, 0
13, 131310, Note_on_c, 12, 68, 110
13, 131339, Note_on_c, 12, 68, 0
13, 131340, Note_on_c, 12, 69, 110
13, 131369, Note_on_c, 12, 69, 0
13, 131370, Note_on_c, 12, 71, 110
13, 131399, Note_on_c, 12, 71, 0
13, 131400, Note_on_c, 12, 69, 110
13, 131429, Note_on_c, 12, 69, 0
13, 131430, Note_on_c, 12, 68, 110
13, 131459, Note_on_c, 12, 68, 0
13, 131460, Note_on_c, 12, 66, 110
13, 131489, Note_on_c, 12, 66, 0
13, 131490, Note_on_c, 12, 64, 110
13, 131519, Note_on_c, 12, 64, 0
13, 131520, Note_on_c, 12, 69, 110
13, 131639, Note_on_c, 12, 69, 0
13, 131700, Note_on_c, 12, 67, 110
13, 131759, Note_on_c, 12, 67, 0
13, 131760, Note_on_c, 12, 66, 110
13, 131789, Note_on_c, 12, 66, 0
13, 131790, Note_on_c, 12, 67, 110
13, 131819, Note_on_c, 12, 67, 0
13, 131820, Note_on_c, 12, 69, 110
13, 131939, Note_on_c, 12, 69, 0
13, 131940, Note_on_c, 12, 67, 110
13, 131969, Note_on_c, 12, 67, 0
13, 131970, Note_on_c, 12, 66, 110
13, 131999, Note_on_c, 12, 66, 0
13, 132000, Note_on_c, 12, 67, 110
13, 132119, Note_on_c, 12, 67, 0
13, 132180, Note_on_c, 12, 66, 110
13, 132299, Note_on_c, 12, 66, 0
13, 132300, Note_on_c, 12, 64, 110
13, 132329, Note_on_c, 12, 64, 0
13, 132330, Note_on_c, 12, 63, 110
13, 132359, Note_on_c, 12, 63, 0
13, 132360, Note_on_c, 12, 64, 110
13, 132419, Note_on_c, 12, 64, 0
13, 132420, Note_on_c, 12, 69, 110
13, 132509, Note_on_c, 12, 69, 0
13, 132510, Note_on_c, 12, 72, 110
13, 132539, Note_on_c, 12, 72, 0
13, 132540, Note_on_c, 12, 71, 110
13, 132569, Note_on_c, 12, 71, 0
13, 132570, Note_on_c, 12, 69, 110
13, 132599, Note_on_c, 12, 69, 0
13, 132600, Note_on_c, 12, 71, 110
13, 132629, Note_on_c, 12, 71, 0
13, 132630, Note_on_c, 12, 69, 110
13, 132659, Note_on_c, 12, 69, 0
13, 132660, Note_on_c, 12, 67, 110
13, 132689, Note_on_c, 12, 67, 0
13, 132690, Note_on_c, 12, 66, 110
13, 132719, Note_on_c, 12, 66, 0
13, 132720, Note_on_c, 12, 67, 110
13, 132779, Note_on_c, 12, 67, 0
13, 132780, Note_on_c, 12, 64, 110
13, 132839, Note_on_c, 12, 64, 0
13, 132840, Note_on_c, 12, 71, 110
13, 133019, Note_on_c, 12, 71, 0
13, 133020, Note_on_c, 12, 72, 110
13, 133049, Note_on_c, 12, 72, 0
13, 133050, Note_on_c, 12, 71, 110
13, 133079, Note_on_c, 12, 71, 0
13, 133080, Note_on_c, 12, 69, 110
13, 133109, Note_on_c, 12, 69, 0
13, 133110, Note_on_c, 12, 67, 110
13, 133139, Note_on_c, 12, 67, 0
13, 133140, Note_on_c, 12, 66, 110
13, 133169, Note_on_c, 12, 66, 0
13, 133170, Note_on_c, 12, 64, 110
13, 133199, Note_on_c, 12, 64, 0
13, 133200, Note_on_c, 12, 64, 110
13, 133259, Note_on_c, 12, 64, 0
13, 133260, Note_on_c, 12, 63, 110
13, 133319, Note_on_c, 12, 63, 0
13, 133380, Note_on_c, 12, 59, 110
13, 133439, Note_on_c, 12, 59, 0
13, 133440, Note_on_c, 12, 71, 110
13, 133499, Note_on_c, 12, 71, 0
13, 133500, Note_on_c, 12, 72, 110
13, 133529, Note_on_c, 12, 72, 0
13, 133530, Note_on_c, 12, 71, 110
13, 133559, Note_on_c, 12, 71, 0
13, 133560, Note_on_c, 12, 69, 110
13, 133589, Note_on_c, 12, 69, 0
13, 133590, Note_on_c, 12, 67, 110
13, 133619, Note_on_c, 12, 67, 0
13, 133620, Note_on_c, 12, 66, 110
13, 133649, Note_on_c, 12, 66, 0
13, 133650, Note_on_c, 12, 64, 110
13, 133679, Note_on_c, 12, 64, 0
13, 133680, Note_on_c, 12, 63, 110
13, 133799, Note_on_c, 12, 63, 0
13, 133800, Note_on_c, 12, 66, 110
13, 133859, Note_on_c, 12, 66, 0
13, 133860, Note_on_c, 12, 67, 110
13, 133870, Note_on_c, 12, 67, 0
13, 133870, Note_on_c, 12, 69, 110
13, 133880, Note_on_c, 12, 69, 0
13, 133880, Note_on_c, 12, 67, 110
13, 133890, Note_on_c, 12, 67, 0
13, 133890, Note_on_c, 12, 69, 110
13, 133897, Note_on_c, 12, 67, 110
13, 133898, Note_on_c, 12, 69, 0
13, 133905, Note_on_c, 12, 67, 0
13, 133905, Note_on_c, 12, 69, 110
13, 133912, Note_on_c, 12, 67, 110
13, 133913, Note_on_c, 12, 69, 0
13, 133920, Note_on_c, 12, 67, 0
13, 133920, Note_on_c, 12, 69, 110
13, 133979, Note_on_c, 12, 69, 0
13, 133980, Note_on_c, 12, 67, 110
13, 134039, Note_on_c, 12, 67, 0
13, 134040, Note_on_c, 12, 66, 110
13, 134099, Note_on_c, 12, 66, 0
13, 134100, Note_on_c, 12, 71, 110
13, 134159, Note_on_c, 12, 71, 0
13, 134160, Note_on_c, 12, 67, 110
13, 134174, Note_on_c, 12, 67, 0
13, 134175, Note_on_c, 12, 66, 110
13, 134189, Note_on_c, 12, 66, 0
13, 134190, Note_on_c, 12, 64, 110
13, 134219, Note_on_c, 12, 64, 0
13, 134220, Note_on_c, 12, 72, 110
13, 134234, Note_on_c, 12, 72, 0
13, 134235, Note_on_c, 12, 71, 110
13, 134249, Note_on_c, 12, 71, 0
13, 134250, Note_on_c, 12, 69, 110
13, 134279, Note_on_c, 12, 69, 0
13, 134280, Note_on_c, 12, 71, 110
13, 134309, Note_on_c, 12, 71, 0
13, 134310, Note_on_c, 12, 64, 110
13, 134339, Note_on_c, 12, 64, 0
13, 134340, Note_on_c, 12, 69, 110
13, 134354, Note_on_c, 12, 69, 0
13, 134355, Note_on_c, 12, 67, 110
13, 134369, Note_on_c, 12, 67, 0
13, 134370, Note_on_c, 12, 66, 110
13, 134399, Note_on_c, 12, 66, 0
13, 134400, Note_on_c, 12, 67, 110
13, 134429, Note_on_c, 12, 67, 0
13, 134430, Note_on_c, 12, 71, 110
13, 134444, Note_on_c, 12, 71, 0
13, 134445, Note_on_c, 12, 69, 110
13, 134459, Note_on_c, 12, 69, 0
13, 134460, Note_on_c, 12, 67, 110
13, 134474, Note_on_c, 12, 67, 0
13, 134475, Note_on_c, 12, 66, 110
13, 134489, Note_on_c, 12, 66, 0
13, 134490, Note_on_c, 12, 64, 110
13, 134519, Note_on_c, 12, 64, 0
13, 134520, Note_on_c, 12, 66, 110
13, 134535, Note_on_c, 12, 66, 0
13, 134535, Note_on_c, 12, 67, 110
13, 134550, Note_on_c, 12, 67, 0
13, 134550, Note_on_c, 12, 66, 110
13, 134560, Note_on_c, 12, 66, 0
13, 134560, Note_on_c, 12, 67, 110
13, 134570, Note_on_c, 12, 67, 0
13, 134570, Note_on_c, 12, 66, 110
13, 134580, Note_on_c, 12, 66, 0
13, 134580, Note_on_c, 12, 67, 110
13, 134590, Note_on_c, 12, 67, 0
13, 134590, Note_on_c, 12, 66, 110
13, 134600, Note_on_c, 12, 66, 0
13, 134600, Note_on_c, 12, 67, 110
13, 134610, Note_on_c, 12, 67, 0
13, 134610, Note_on_c, 12, 66, 110
13, 134620, Note_on_c, 12, 66, 0
13, 134620, Note_on_c, 12, 64, 110
13, 134630, Note_on_c, 12, 64, 0
13, 134630, Note_on_c, 12, 66, 110
13, 134640, Note_on_c, 12, 66, 0
13, 134640, Note_on_c, 12, 64, 110
13, 134759, Note_on_c, 12, 64, 0
13, 134820, Note_on_c, 12, 67, 110
13, 134939, Note_on_c, 12, 67, 0
13, 134940, Note_on_c, 12, 69, 110
13, 134969, Note_on_c, 12, 69, 0
13, 134970, Note_on_c, 12, 67, 110
13, 134999, Note_on_c, 12, 67, 0
13, 135000, Note_on_c, 12, 67, 110
13, 135059, Note_on_c, 12, 67, 0
13, 135060, Note_on_c, 12, 66, 110
13, 135119, Note_on_c, 12, 66, 0
13, 135300, Note_on_c, 12, 71, 110
13, 135359, Note_on_c, 12, 71, 0
13, 135360, Note_on_c, 12, 72, 110
13, 135419, Note_on_c, 12, 72, 0
13, 135420, Note_on_c, 12, 74, 110
13, 135449, Note_on_c, 12, 74, 0
13, 135450, Note_on_c, 12, 72, 110
13, 135479, Note_on_c, 12, 72, 0
13, 135480, Note_on_c, 12, 71, 110
13, 135599, Note_on_c, 12, 71, 0
13, 135720, Note_on_c, 12, 76, 110
13, 135779, Note_on_c, 12, 76, 0
13, 135780, Note_on_c, 12, 74, 110
13, 135839, Note_on_c, 12, 74, 0
13, 135840, Note_on_c, 12, 72, 110
13, 135899, Note_on_c, 12, 72, 0
13, 135900, Note_on_c, 12, 74, 110
13, 135929, Note_on_c, 12, 74, 0
13, 135930, Note_on_c, 12, 76, 110
13, 135959, Note_on_c, 12, 76, 0
13, 135960, Note_on_c, 12, 74, 110
13, 135989, Note_on_c, 12, 74, 0
13, 135990, Note_on_c, 12, 72, 110
13, 136019, Note_on_c, 12, 72, 0
13, 136020, Note_on_c, 12, 71, 110
13, 136049, Note_on_c, 12, 71, 0
13, 136050, Note_on_c, 12, 69, 110
13, 136079, Note_on_c, 12, 69, 0
13, 136080, Note_on_c, 12, 71, 110
13, 136139, Note_on_c, 12, 71, 0
13, 136140, Note_on_c, 12, 72, 110
13, 136169, Note_on_c, 12, 72, 0
13, 136170, Note_on_c, 12, 74, 110
13, 136199, Note_on_c, 12, 74, 0
13, 136200, Note_on_c, 12, 72, 110
13, 136229, Note_on_c, 12, 72, 0
13, 136230, Note_on_c, 12, 71, 110
13, 136259, Note_on_c, 12, 71, 0
13, 136260, Note_on_c, 12, 69, 110
13, 136289, Note_on_c, 12, 69, 0
13, 136290, Note_on_c, 12, 67, 110
13, 136319, Note_on_c, 12, 67, 0
13, 136320, Note_on_c, 12, 69, 110
13, 136379, Note_on_c, 12, 69, 0
13, 136380, Note_on_c, 12, 71, 110
13, 136409, Note_on_c, 12, 71, 0
13, 136410, Note_on_c, 12, 72, 110
13, 136439, Note_on_c, 12, 72, 0
13, 136440, Note_on_c, 12, 71, 110
13, 136469, Note_on_c, 12, 71, 0
13, 136470, Note_on_c, 12, 69, 110
13, 136499, Note_on_c, 12, 69, 0
13, 136500, Note_on_c, 12, 67, 110
13, 136529, Note_on_c, 12, 67, 0
13, 136530, Note_on_c, 12, 66, 110
13, 136559, Note_on_c, 12, 66, 0
13, 136560, Note_on_c, 12, 67, 110
13, 136619, Note_on_c, 12, 67, 0
13, 136620, Note_on_c, 12, 69, 110
13, 136649, Note_on_c, 12, 69, 0
13, 136650, Note_on_c, 12, 71, 110
13, 136679, Note_on_c, 12, 71, 0
13, 136680, Note_on_c, 12, 69, 110
13, 136709, Note_on_c, 12, 69, 0
13, 136710, Note_on_c, 12, 67, 110
13, 136739, Note_on_c, 12, 67, 0
13, 136740, Note_on_c, 12, 66, 110
13, 136769, Note_on_c, 12, 66, 0
13, 136770, Note_on_c, 12, 64, 110
13, 136799, Note_on_c, 12, 64, 0
13, 136800, Note_on_c, 12, 63, 110
13, 136859, Note_on_c, 12, 63, 0
13, 136860, Note_on_c, 12, 64, 110
13, 136889, Note_on_c, 12, 64, 0
13, 136890, Note_on_c, 12, 66, 110
13, 136919, Note_on_c, 12, 66, 0
13, 136920, Note_on_c, 12, 64, 110
13, 136949, Note_on_c, 12, 64, 0
13, 136950, Note_on_c, 12, 63, 110
13, 136979, Note_on_c, 12, 63, 0
13, 136980, Note_on_c, 12, 61, 110
13, 137009, Note_on_c, 12, 61, 0
13, 137010, Note_on_c, 12, 59, 110
13, 137039, Note_on_c, 12, 59, 0
13, 137040, Note_on_c, 12, 61, 110
13, 137069, Note_on_c, 12, 61, 0
13, 137070, Note_on_c, 12, 63, 110
13, 137099, Note_on_c, 12, 63, 0
13, 137100, Note_on_c, 12, 64, 110
13, 137129, Note_on_c, 12, 64, 0
13, 137130, Note_on_c, 12, 66, 110
13, 137159, Note_on_c, 12, 66, 0
13, 137160, Note_on_c, 12, 67, 110
13, 137189, Note_on_c, 12, 67, 0
13, 137190, Note_on_c, 12, 69, 110
13, 137219, Note_on_c, 12, 69, 0
13, 137220, Note_on_c, 12, 71, 110
13, 137249, Note_on_c, 12, 71, 0
13, 137250, Note_on_c, 12, 69, 110
13, 137279, Note_on_c, 12, 69, 0
13, 137280, Note_on_c, 12, 72, 110
13, 137309, Note_on_c, 12, 72, 0
13, 137310, Note_on_c, 12, 71, 110
13, 137339, Note_on_c, 12, 71, 0
13, 137340, Note_on_c, 12, 75, 110
13, 137369, Note_on_c, 12, 75, 0
13, 137370, Note_on_c, 12, 76, 110
13, 137399, Note_on_c, 12, 76, 0
13, 137400, Note_on_c, 12, 64, 110
13, 137610, Note_on_c, 12, 64, 0
13, 137610, Note_on_c, 12, 66, 110
13, 137639, Note_on_c, 12, 66, 0
13, 137640, Note_on_c, 12, 67, 110
13, 137655, Note_on_c, 12, 67, 0
13, 137655, Note_on_c, 12, 66, 110
13, 137670, Note_on_c, 12, 66, 0
13, 137670, Note_on_c, 12, 67, 110
13, 137680, Note_on_c, 12, 67, 0
13, 137680, Note_on_c, 12, 66, 110
13, 137690, Note_on_c, 12, 66, 0
13, 137690, Note_on_c, 12, 67, 110
13, 137700, Note_on_c, 12, 67, 0
13, 137700, Note_on_c, 12, 66, 110
13, 137710, Note_on_c, 12, 66, 0
13, 137710, Note_on_c, 12, 67, 110
13, 137720, Note_on_c, 12, 67, 0
13, 137720, Note_on_c, 12, 66, 110
13, 137730, Note_on_c, 12, 66, 0
13, 137730, Note_on_c, 12, 67, 110
13, 137737, Note_on_c, 12, 66, 110
13, 137738, Note_on_c, 12, 67, 0
13, 137745, Note_on_c, 12, 66, 0
13, 137745, Note_on_c, 12, 64, 110
13, 137752, Note_on_c, 12, 66, 110
13, 137753, Note_on_c, 12, 64, 0
13, 137760, Note_on_c, 12, 66, 0
13, 137760, Note_on_c, 12, 64, 110
13, 137879, Note_on_c, 12, 64, 0
13, 144600, Note_on_c, 12, 67, 120
13, 145500, Note_on_c, 12, 67, 0
13, 145500, Note_on_c, 12, 65, 120
13, 145560, Note_on_c, 12, 65, 0
13, 145560, Note_on_c, 12, 65, 120
13, 145620, Note_on_c, 12, 65, 0
13, 145620, Note_on_c, 12, 64, 120
13, 145680, Note_on_c, 12, 64, 0
13, 145680, Note_on_c, 12, 64, 120
13, 146460, Note_on_c, 12, 64, 0
13, 146460, Note_on_c, 12, 62, 120
13, 146520, Note_on_c, 12, 62, 0
13, 146520, Note_on_c, 12, 62, 120
13, 146580, Note_on_c, 12, 62, 0
13, 146580, Note_on_c, 12, 60, 120
13, 146640, Note_on_c, 12, 60, 0
13, 146640, Note_on_c, 12, 60, 120
13, 147180, Note_on_c, 12, 60, 0
13, 147180, Note_on_c, 12, 59, 120
13, 147240, Note_on_c, 12, 59, 0
13, 147240, Note_on_c, 12, 59, 120
13, 147300, Note_on_c, 12, 59, 0
13, 147300, Note_on_c, 12, 60, 120
13, 147360, Note_on_c, 12, 60, 0
13, 147360, Note_on_c, 12, 60, 120
13, 147480, Note_on_c, 12, 60, 0
13, 147480, Note_on_c, 12, 59, 120
13, 147600, Note_on_c, 12, 59, 0
13, 147600, Note_on_c, 12, 62, 110
13, 147659, Note_on_c, 12, 62, 0
13, 147660, Note_on_c, 12, 64, 110
13, 147719, Note_on_c, 12, 64, 0
13, 147720, Note_on_c, 12, 64, 110
13, 147779, Note_on_c, 12, 64, 0
13, 147780, Note_on_c, 12, 66, 110
13, 147839, Note_on_c, 12, 66, 0
13, 147840, Note_on_c, 12, 66, 110
13, 147899, Note_on_c, 12, 66, 0
13, 147900, Note_on_c, 12, 67, 110
13, 147959, Note_on_c, 12, 67, 0
13, 147960, Note_on_c, 12, 67, 110
13, 148019, Note_on_c, 12, 67, 0
13, 148020, Note_on_c, 12, 62, 110
13, 148079, Note_on_c, 12, 62, 0
13, 148080, Note_on_c, 12, 62, 110
13, 148139, Note_on_c, 12, 62, 0
13, 148140, Note_on_c, 12, 64, 110
13, 148199, Note_on_c, 12, 64, 0
13, 148200, Note_on_c, 12, 64, 110
13, 148259, Note_on_c, 12, 64, 0
13, 148260, Note_on_c, 12, 65, 110
13, 148319, Note_on_c, 12, 65, 0
13, 148320, Note_on_c, 12, 65, 110
13, 148559, Note_on_c, 12, 65, 0
13, 148560, Note_on_c, 12, 71, 110
13, 148649, Note_on_c, 12, 71, 0
13, 148650, Note_on_c, 12, 72, 110
13, 148664, Note_on_c, 12, 72, 0
13, 148665, Note_on_c, 12, 74, 110
13, 148679, Note_on_c, 12, 74, 0
13, 148680, Note_on_c, 12, 72, 110
13, 148709, Note_on_c, 12, 72, 0
13, 148710, Note_on_c, 12, 71, 110
13, 148739, Note_on_c, 12, 71, 0
13, 148740, Note_on_c, 12, 69, 110
13, 148769, Note_on_c, 12, 69, 0
13, 148770, Note_on_c, 12, 67, 110
13, 148799, Note_on_c, 12, 67, 0
13, 148800, Note_on_c, 12, 72, 110
13, 148859, Note_on_c, 12, 72, 0
13, 148860, Note_on_c, 12, 67, 110
13, 148919, Note_on_c, 12, 67, 0
13, 148920, Note_on_c, 12, 64, 110
13, 148979, Note_on_c, 12, 64, 0
13, 148980, Note_on_c, 12, 67, 110
13, 149039, Note_on_c, 12, 67, 0
13, 149040, Note_on_c, 12, 72, 110
13, 149129, Note_on_c, 12, 72, 0
13, 149130, Note_on_c, 12, 74, 110
13, 149144, Note_on_c, 12, 74, 0
13, 149145, Note_on_c, 12, 76, 110
13, 149159, Note_on_c, 12, 76, 0
13, 149160, Note_on_c, 12, 74, 110
13, 149189, Note_on_c, 12, 74, 0
13, 149190, Note_on_c, 12, 72, 110
13, 149219, Note_on_c, 12, 72, 0
13, 149220, Note_on_c, 12, 71, 110
13, 149249, Note_on_c, 12, 71, 0
13, 149250, Note_on_c, 12, 69, 110
13, 149279, Note_on_c, 12, 69, 0
13, 149280, Note_on_c, 12, 67, 110
13, 149339, Note_on_c, 12, 67, 0
13, 149340, Note_on_c, 12, 66, 110
13, 149399, Note_on_c, 12, 66, 0
13, 149400, Note_on_c, 12, 72, 110
13, 149519, Note_on_c, 12, 72, 0
13, 149520, Note_on_c, 12, 71, 110
13, 149609, Note_on_c, 12, 71, 0
13, 149610, Note_on_c, 12, 72, 110
13, 149624, Note_on_c, 12, 72, 0
13, 149625, Note_on_c, 12, 74, 110
13, 149639, Note_on_c, 12, 74, 0
13, 149640, Note_on_c, 12, 72, 110
13, 149669, Note_on_c, 12, 72, 0
13, 149670, Note_on_c, 12, 71, 110
13, 149699, Note_on_c, 12, 71, 0
13, 149700, Note_on_c, 12, 69, 110
13, 149729, Note_on_c, 12, 69, 0
13, 149730, Note_on_c, 12, 67, 110
13, 149759, Note_on_c, 12, 67, 0
13, 149760, Note_on_c, 12, 69, 110
13, 149819, Note_on_c, 12, 69, 0
13, 149820, Note_on_c, 12, 66, 110
13, 149879, Note_on_c, 12, 66, 0
13, 149880, Note_on_c, 12, 67, 110
13, 149939, Note_on_c, 12, 67, 0
13, 149940, Note_on_c, 12, 62, 110
13, 149999, Note_on_c, 12, 62, 0
13, 150000, Note_on_c, 12, 67, 110
13, 150089, Note_on_c, 12, 67, 0
13, 150090, Note_on_c, 12, 69, 110
13, 150104, Note_on_c, 12, 69, 0
13, 150105, Note_on_c, 12, 71, 110
13, 150119, Note_on_c, 12, 71, 0
13, 150120, Note_on_c, 12, 69, 110
13, 150149, Note_on_c, 12, 69, 0
13, 150150, Note_on_c, 12, 67, 110
13, 150179, Note_on_c, 12, 67, 0
13, 150180, Note_on_c, 12, 66, 110
13, 150209, Note_on_c, 12, 66, 0
13, 150210, Note_on_c, 12, 64, 110
13, 150239, Note_on_c, 12, 64, 0
13, 150240, Note_on_c, 12, 62, 110
13, 150299, Note_on_c, 12, 62, 0
13, 150300, Note_on_c, 12, 61, 110
13, 150479, Note_on_c, 12, 61, 0
13, 150480, Note_on_c, 12, 74, 110
13, 150539, Note_on_c, 12, 74, 0
13, 150540, Note_on_c, 12, 73, 110
13, 150569, Note_on_c, 12, 73, 0
13, 150570, Note_on_c, 12, 71, 110
13, 150599, Note_on_c, 12, 71, 0
13, 150600, Note_on_c, 12, 69, 110
13, 150659, Note_on_c, 12, 69, 0
13, 150660, Note_on_c, 12, 67, 110
13, 150719, Note_on_c, 12, 67, 0
13, 150720, Note_on_c, 12, 66, 110
13, 150779, Note_on_c, 12, 66, 0
13, 150780, Note_on_c, 12, 71, 110
13, 150839, Note_on_c, 12, 71, 0
13, 150840, Note_on_c, 12, 69, 110
13, 150899, Note_on_c, 12, 69, 0
13, 150900, Note_on_c, 12, 67, 110
13, 150959, Note_on_c, 12, 67, 0
13, 150960, Note_on_c, 12, 66, 110
13, 151019, Note_on_c, 12, 66, 0
13, 151020, Note_on_c, 12, 64, 110
13, 151049, Note_on_c, 12, 64, 0
13, 151050, Note_on_c, 12, 62, 110
13, 151079, Note_on_c, 12, 62, 0
13, 151080, Note_on_c, 12, 64, 110
13, 151095, Note_on_c, 12, 64, 0
13, 151095, Note_on_c, 12, 66, 110
13, 151110, Note_on_c, 12, 66, 0
13, 151110, Note_on_c, 12, 64, 110
13, 151120, Note_on_c, 12, 64, 0
13, 151120, Note_on_c, 12, 66, 110
13, 151130, Note_on_c, 12, 66, 0
13, 151130, Note_on_c, 12, 64, 110
13, 151140, Note_on_c, 12, 64, 0
13, 151140, Note_on_c, 12, 66, 110
13, 151150, Note_on_c, 12, 66, 0
13, 151150, Note_on_c, 12, 64, 110
13, 151160, Note_on_c, 12, 64, 0
13, 151160, Note_on_c, 12, 66, 110
13, 151170, Note_on_c, 12, 66, 0
13, 151170, Note_on_c, 12, 64, 110
13, 151180, Note_on_c, 12, 64, 0
13, 151180, Note_on_c, 12, 62, 110
13, 151190, Note_on_c, 12, 62, 0
13, 151190, Note_on_c, 12, 64, 110
13, 151200, Note_on_c, 12, 64, 0
13, 151200, Note_on_c, 12, 62, 110
13, 151319, Note_on_c, 12, 62, 0
13, 154320, Note_on_c, 12, 66, 110
13, 154409, Note_on_c, 12, 66, 0
13, 154410, Note_on_c, 12, 67, 110
13, 154424, Note_on_c, 12, 67, 0
13, 154425, Note_on_c, 12, 69, 110
13, 154439, Note_on_c, 12, 69, 0
13, 154440, Note_on_c, 12, 67, 110
13, 154469, Note_on_c, 12, 67, 0
13, 154470, Note_on_c, 12, 66, 110
13, 154499, Note_on_c, 12, 66, 0
13, 154500, Note_on_c, 12, 64, 110
13, 154529, Note_on_c, 12, 64, 0
13, 154530, Note_on_c, 12, 62, 110
13, 154559, Note_on_c, 12, 62, 0
13, 154560, Note_on_c, 12, 64, 110
13, 154619, Note_on_c, 12, 64, 0
13, 154620, Note_on_c, 12, 61, 110
13, 154679, Note_on_c, 12, 61, 0
13, 154680, Note_on_c, 12, 62, 110
13, 154739, Note_on_c, 12, 62, 0
13, 154740, Note_on_c, 12, 57, 110
13, 154799, Note_on_c, 12, 57, 0
13, 154800, Note_on_c, 12, 66, 110
13, 154889, Note_on_c, 12, 66, 0
13, 154890, Note_on_c, 12, 67, 110
13, 154904, Note_on_c, 12, 67, 0
13, 154905, Note_on_c, 12, 69, 110
13, 154919, Note_on_c, 12, 69, 0
13, 154920, Note_on_c, 12, 67, 110
13, 154949, Note_on_c, 12, 67, 0
13, 154950, Note_on_c, 12, 66, 110
13, 154979, Note_on_c, 12, 66, 0
13, 154980, Note_on_c, 12, 64, 110
13, 155009, Note_on_c, 12, 64, 0
13, 155010, Note_on_c, 12, 62, 110
13, 155039, Note_on_c, 12, 62, 0
13, 155040, Note_on_c, 12, 60, 110
13, 155279, Note_on_c, 12, 60, 0
13, 155280, Note_on_c, 12, 71, 110
13, 155369, Note_on_c, 12, 71, 0
13, 155370, Note_on_c, 12, 72, 110
13, 155384, Note_on_c, 12, 72, 0
13, 155385, Note_on_c, 12, 74, 110
13, 155399, Note_on_c, 12, 74, 0
13, 155400, Note_on_c, 12, 72, 110
13, 155429, Note_on_c, 12, 72, 0
13, 155430, Note_on_c, 12, 71, 110
13, 155459, Note_on_c, 12, 71, 0
13, 155460, Note_on_c, 12, 69, 110
13, 155489, Note_on_c, 12, 69, 0
13, 155490, Note_on_c, 12, 67, 110
13, 155519, Note_on_c, 12, 67, 0
13, 155520, Note_on_c, 12, 69, 110
13, 155579, Note_on_c, 12, 69, 0
13, 155580, Note_on_c, 12, 66, 110
13, 155639, Note_on_c, 12, 66, 0
13, 155640, Note_on_c, 12, 67, 110
13, 155699, Note_on_c, 12, 67, 0
13, 155700, Note_on_c, 12, 62, 110
13, 155759, Note_on_c, 12, 62, 0
13, 155760, Note_on_c, 12, 71, 110
13, 155849, Note_on_c, 12, 71, 0
13, 155850, Note_on_c, 12, 72, 110
13, 155864, Note_on_c, 12, 72, 0
13, 155865, Note_on_c, 12, 74, 110
13, 155879, Note_on_c, 12, 74, 0
13, 155880, Note_on_c, 12, 72, 110
13, 155909, Note_on_c, 12, 72, 0
13, 155910, Note_on_c, 12, 71, 110
13, 155939, Note_on_c, 12, 71, 0
13, 155940, Note_on_c, 12, 69, 110
13, 155969, Note_on_c, 12, 69, 0
13, 155970, Note_on_c, 12, 67, 110
13, 155999, Note_on_c, 12, 67, 0
13, 156000, Note_on_c, 12, 65, 110
13, 156239, Note_on_c, 12, 65, 0
13, 156240, Note_on_c, 12, 64, 110
13, 156300, Note_on_c, 12, 64, 0
13, 156300, Note_on_c, 12, 76, 110
13, 156389, Note_on_c, 12, 76, 0
13, 156390, Note_on_c, 12, 74, 110
13, 156419, Note_on_c, 12, 74, 0
13, 156420, Note_on_c, 12, 72, 110
13, 156449, Note_on_c, 12, 72, 0
13, 156450, Note_on_c, 12, 71, 110
13, 156479, Note_on_c, 12, 71, 0
13, 156480, Note_on_c, 12, 72, 110
13, 156539, Note_on_c, 12, 72, 0
13, 156540, Note_on_c, 12, 71, 110
13, 156599, Note_on_c, 12, 71, 0
13, 156600, Note_on_c, 12, 69, 110
13, 156659, Note_on_c, 12, 69, 0
13, 156660, Note_on_c, 12, 67, 110
13, 156719, Note_on_c, 12, 67, 0
13, 156720, Note_on_c, 12, 66, 110
13, 156779, Note_on_c, 12, 66, 0
13, 156780, Note_on_c, 12, 74, 110
13, 156869, Note_on_c, 12, 74, 0
13, 156870, Note_on_c, 12, 72, 110
13, 156899, Note_on_c, 12, 72, 0
13, 156900, Note_on_c, 12, 71, 110
13, 156929, Note_on_c, 12, 71, 0
13, 156930, Note_on_c, 12, 69, 110
13, 156959, Note_on_c, 12, 69, 0
13, 156960, Note_on_c, 12, 71, 110
13, 157019, Note_on_c, 12, 71, 0
13, 157020, Note_on_c, 12, 69, 110
13, 157079, Note_on_c, 12, 69, 0
13, 157080, Note_on_c, 12, 67, 110
13, 157139, Note_on_c, 12, 67, 0
13, 157140, Note_on_c, 12, 65, 110
13, 157199, Note_on_c, 12, 65, 0
13, 157200, Note_on_c, 12, 64, 110
13, 157259, Note_on_c, 12, 64, 0
13, 157260, Note_on_c, 12, 69, 110
13, 157319, Note_on_c, 12, 69, 0
13, 157320, Note_on_c, 12, 69, 110
13, 157379, Note_on_c, 12, 69, 0
13, 157380, Note_on_c, 12, 72, 110
13, 157439, Note_on_c, 12, 72, 0
13, 157440, Note_on_c, 12, 72, 110
13, 157529, Note_on_c, 12, 72, 0
13, 157530, Note_on_c, 12, 74, 110
13, 157544, Note_on_c, 12, 74, 0
13, 157545, Note_on_c, 12, 76, 110
13, 157559, Note_on_c, 12, 76, 0
13, 157560, Note_on_c, 12, 74, 110
13, 157589, Note_on_c, 12, 74, 0
13, 157590, Note_on_c, 12, 72, 110
13, 157619, Note_on_c, 12, 72, 0
13, 157620, Note_on_c, 12, 71, 110
13, 157649, Note_on_c, 12, 71, 0
13, 157650, Note_on_c, 12, 69, 110
13, 157679, Note_on_c, 12, 69, 0
13, 157680, Note_on_c, 12, 67, 110
13, 157710, Note_on_c, 12, 67, 0
13, 157710, Note_on_c, 12, 66, 110
13, 157740, Note_on_c, 12, 66, 0
13, 157740, Note_on_c, 12, 67, 110
13, 157770, Note_on_c, 12, 67, 0
13, 157770, Note_on_c, 12, 72, 110
13, 157800, Note_on_c, 12, 72, 0
13, 157800, Note_on_c, 12, 69, 110
13, 157810, Note_on_c, 12, 69, 0
13, 157810, Note_on_c, 12, 71, 110
13, 157820, Note_on_c, 12, 71, 0
13, 157820, Note_on_c, 12, 69, 110
13, 157830, Note_on_c, 12, 69, 0
13, 157830, Note_on_c, 12, 71, 110
13, 157837, Note_on_c, 12, 69, 110
13, 157838, Note_on_c, 12, 71, 0
13, 157845, Note_on_c, 12, 69, 0
13, 157845, Note_on_c, 12, 71, 110
13, 157852, Note_on_c, 12, 69, 110
13, 157853, Note_on_c, 12, 71, 0
13, 157860, Note_on_c, 12, 69, 0
13, 157860, Note_on_c, 12, 71, 110
13, 157867, Note_on_c, 12, 69, 110
13, 157868, Note_on_c, 12, 71, 0
13, 157875, Note_on_c, 12, 69, 0
13, 157875, Note_on_c, 12, 71, 110
13, 157882, Note_on_c, 12, 69, 110
13, 157883, Note_on_c, 12, 71, 0
13, 157890, Note_on_c, 12, 69, 0
13, 157890, Note_on_c, 12, 71, 110
13, 157897, Note_on_c, 12, 69, 110
13, 157898, Note_on_c, 12, 71, 0
13, 157905, Note_on_c, 12, 69, 0
13, 157905, Note_on_c, 12, 67, 110
13, 157912, Note_on_c, 12, 69, 110
13, 157913, Note_on_c, 12, 67, 0
13, 157920, Note_on_c, 12, 69, 0
13, 157920, Note_on_c, 12, 67, 110
13, 158039, Note_on_c, 12, 67, 0
13, 158100, Note_on_c, 12, 67, 110
13, 158219, Note_on_c, 12, 67, 0
13, 158220, Note_on_c, 12, 64, 110
13, 158279, Note_on_c, 12, 64, 0
13, 158280, Note_on_c, 12, 64, 110
13, 158339, Note_on_c, 12, 64, 0
13, 158340, Note_on_c, 12, 66, 110
13, 158399, Note_on_c, 12, 66, 0
13, 158580, Note_on_c, 12, 72, 110
13, 158699, Note_on_c, 12, 72, 0
13, 158700, Note_on_c, 12, 69, 110
13, 158759, Note_on_c, 12, 69, 0
13, 158760, Note_on_c, 12, 69, 110
13, 158819, Note_on_c, 12, 69, 0
13, 158820, Note_on_c, 12, 71, 110
13, 158879, Note_on_c, 12, 71, 0
13, 158940, Note_on_c, 12, 64, 110
13, 158969, Note_on_c, 12, 64, 0
13, 158970, Note_on_c, 12, 66, 110
13, 158999, Note_on_c, 12, 66, 0
13, 159000, Note_on_c, 12, 68, 110
13, 159029, Note_on_c, 12, 68, 0
13, 159030, Note_on_c, 12, 69, 110
13, 159059, Note_on_c, 12, 69, 0
13, 159060, Note_on_c, 12, 71, 110
13, 159089, Note_on_c, 12, 71, 0
13, 159090, Note_on_c, 12, 72, 110
13, 159119, Note_on_c, 12, 72, 0
13, 159120, Note_on_c, 12, 74, 110
13, 159179, Note_on_c, 12, 74, 0
13, 159180, Note_on_c, 12, 72, 110
13, 159239, Note_on_c, 12, 72, 0
13, 159240, Note_on_c, 12, 72, 110
13, 159299, Note_on_c, 12, 72, 0
13, 159420, Note_on_c, 12, 64, 110
13, 159479, Note_on_c, 12, 64, 0
13, 159480, Note_on_c, 12, 73, 110
13, 159659, Note_on_c, 12, 73, 0
13, 159660, Note_on_c, 12, 74, 110
13, 159779, Note_on_c, 12, 74, 0
13, 159780, Note_on_c, 12, 72, 110
13, 159899, Note_on_c, 12, 72, 0
13, 159900, Note_on_c, 12, 70, 110
13, 160019, Note_on_c, 12, 70, 0
13, 160020, Note_on_c, 12, 69, 110
13, 160079, Note_on_c, 12, 69, 0
13, 160080, Note_on_c, 12, 74, 110
13, 160139, Note_on_c, 12, 74, 0
13, 160140, Note_on_c, 12, 67, 110
13, 160259, Note_on_c, 12, 67, 0
13, 160260, Note_on_c, 12, 66, 110
13, 160289, Note_on_c, 12, 66, 0
13, 160290, Note_on_c, 12, 64, 110
13, 160319, Note_on_c, 12, 64, 0
13, 160320, Note_on_c, 12, 62, 110
13, 160379, Note_on_c, 12, 62, 0
13, 160380, Note_on_c, 12, 64, 110
13, 160409, Note_on_c, 12, 64, 0
13, 160410, Note_on_c, 12, 66, 110
13, 160439, Note_on_c, 12, 66, 0
13, 160440, Note_on_c, 12, 67, 110
13, 160469, Note_on_c, 12, 67, 0
13, 160470, Note_on_c, 12, 69, 110
13, 160499, Note_on_c, 12, 69, 0
13, 160500, Note_on_c, 12, 71, 110
13, 160529, Note_on_c, 12, 71, 0
13, 160530, Note_on_c, 12, 72, 110
13, 160559, Note_on_c, 12, 72, 0
13, 160560, Note_on_c, 12, 72, 110
13, 160589, Note_on_c, 12, 72, 0
13, 160590, Note_on_c, 12, 71, 110
13, 160619, Note_on_c, 12, 71, 0
13, 160620, Note_on_c, 12, 69, 110
13, 160649, Note_on_c, 12, 69, 0
13, 160650, Note_on_c, 12, 67, 110
13, 160679, Note_on_c, 12, 67, 0
13, 160680, Note_on_c, 12, 69, 110
13, 160695, Note_on_c, 12, 69, 0
13, 160695, Note_on_c, 12, 71, 110
13, 160710, Note_on_c, 12, 71, 0
13, 160710, Note_on_c, 12, 69, 110
13, 160720, Note_on_c, 12, 69, 0
13, 160720, Note_on_c, 12, 71, 110
13, 160730, Note_on_c, 12, 71, 0
13, 160730, Note_on_c, 12, 69, 110
13, 160740, Note_on_c, 12, 69, 0
13, 160740, Note_on_c, 12, 71, 110
13, 160750, Note_on_c, 12, 71, 0
13, 160750, Note_on_c, 12, 69, 110
13, 160760, Note_on_c, 12, 69, 0
13, 160760, Note_on_c, 12, 71, 110
13, 160770, Note_on_c, 12, 71, 0
13, 160770, Note_on_c, 12, 69, 110
13, 160780, Note_on_c, 12, 69, 0
13, 160780, Note_on_c, 12, 67, 110
13, 160790, Note_on_c, 12, 67, 0
13, 160790, Note_on_c, 12, 69, 110
13, 160800, Note_on_c, 12, 69, 0
13, 160800, Note_on_c, 12, 67, 110
13, 160919, Note_on_c, 12, 67, 0
13, 160919, End_track
14, 0, Start_track
14, 0, MIDI_port, 0
14, 0, Title_t, "Tenore Solo"
14, 0, Control_c, 11, 7, 127
14, 0, Control_c, 11, 10, 47
14, 69810, Control_c, 11, 0, 20
14, 69810, Program_c, 11, 57
14, 69840, Note_on_c, 11, 71, 127
14, 69899, Note_on_c, 11, 71, 0
14, 69900, Note_on_c, 11, 79, 127
14, 69929, Note_on_c, 11, 79, 0
14, 69930, Note_on_c, 11, 78, 127
14, 69959, Note_on_c, 11, 78, 0
14, 69960, Note_on_c, 11, 76, 127
14, 69989, Note_on_c, 11, 76, 0
14, 69990, Note_on_c, 11, 75, 127
14, 70019, Note_on_c, 11, 75, 0
14, 70020, Note_on_c, 11, 76, 127
14, 70079, Note_on_c, 11, 76, 0
14, 70080, Note_on_c, 11, 71, 127
14, 70139, Note_on_c, 11, 71, 0
14, 70140, Note_on_c, 11, 72, 127
14, 70199, Note_on_c, 11, 72, 0
14, 70200, Note_on_c, 11, 71, 127
14, 70229, Note_on_c, 11, 71, 0
14, 70230, Note_on_c, 11, 76, 127
14, 70259, Note_on_c, 11, 76, 0
14, 70260, Note_on_c, 11, 75, 127
14, 70289, Note_on_c, 11, 75, 0
14, 70290, Note_on_c, 11, 76, 127
14, 70319, Note_on_c, 11, 76, 0
14, 70320, Note_on_c, 11, 71, 127
14, 70349, Note_on_c, 11, 71, 0
14, 70350, Note_on_c, 11, 69, 127
14, 70379, Note_on_c, 11, 69, 0
14, 70380, Note_on_c, 11, 67, 127
14, 70439, Note_on_c, 11, 67, 0
14, 70440, Note_on_c, 11, 66, 127
14, 70469, Note_on_c, 11, 66, 0
14, 70470, Note_on_c, 11, 67, 127
14, 70499, Note_on_c, 11, 67, 0
14, 70500, Note_on_c, 11, 64, 127
14, 70558, Note_on_c, 11, 64, 0
14, 70560, Note_on_c, 11, 71, 127
14, 70618, Note_on_c, 11, 71, 0
14, 70620, Note_on_c, 11, 79, 127
14, 70649, Note_on_c, 11, 79, 0
14, 70650, Note_on_c, 11, 78, 127
14, 70679, Note_on_c, 11, 78, 0
14, 70680, Note_on_c, 11, 76, 127
14, 70709, Note_on_c, 11, 76, 0
14, 70710, Note_on_c, 11, 75, 127
14, 70739, Note_on_c, 11, 75, 0
14, 70740, Note_on_c, 11, 76, 127
14, 70799, Note_on_c, 11, 76, 0
14, 70800, Note_on_c, 11, 71, 127
14, 70859, Note_on_c, 11, 71, 0
14, 70860, Note_on_c, 11, 72, 127
14, 70919, Note_on_c, 11, 72, 0
14, 70920, Note_on_c, 11, 71, 127
14, 70949, Note_on_c, 11, 71, 0
14, 70950, Note_on_c, 11, 76, 127
14, 70979, Note_on_c, 11, 76, 0
14, 70980, Note_on_c, 11, 75, 127
14, 71009, Note_on_c, 11, 75, 0
14, 71010, Note_on_c, 11, 76, 127
14, 71039, Note_on_c, 11, 76, 0
14, 71040, Note_on_c, 11, 71, 127
14, 71069, Note_on_c, 11, 71, 0
14, 71070, Note_on_c, 11, 69, 127
14, 71099, Note_on_c, 11, 69, 0
14, 71100, Note_on_c, 11, 67, 127
14, 71159, Note_on_c, 11, 67, 0
14, 71160, Note_on_c, 11, 66, 127
14, 71189, Note_on_c, 11, 66, 0
14, 71190, Note_on_c, 11, 67, 127
14, 71219, Note_on_c, 11, 67, 0
14, 71220, Note_on_c, 11, 64, 127
14, 71279, Note_on_c, 11, 64, 0
14, 71280, Note_on_c, 11, 72, 127
14, 71339, Note_on_c, 11, 72, 0
14, 71340, Note_on_c, 11, 72, 127
14, 71399, Note_on_c, 11, 72, 0
14, 71400, Note_on_c, 11, 71, 127
14, 71459, Note_on_c, 11, 71, 0
14, 71460, Note_on_c, 11, 72, 127
14, 71549, Note_on_c, 11, 72, 0
14, 71550, Note_on_c, 11, 74, 127
14, 71564, Note_on_c, 11, 74, 0
14, 71565, Note_on_c, 11, 76, 127
14, 71579, Note_on_c, 11, 76, 0
14, 71580, Note_on_c, 11, 74, 127
14, 71699, Note_on_c, 11, 74, 0
14, 71700, Note_on_c, 11, 72, 127
14, 71729, Note_on_c, 11, 72, 0
14, 71730, Note_on_c, 11, 71, 127
14, 71759, Note_on_c, 11, 71, 0
14, 71760, Note_on_c, 11, 69, 127
14, 71789, Note_on_c, 11, 69, 0
14, 71790, Note_on_c, 11, 67, 127
14, 71819, Note_on_c, 11, 67, 0
14, 71820, Note_on_c, 11, 67, 127
14, 71939, Note_on_c, 11, 67, 0
14, 72060, Note_on_c, 11, 79, 127
14, 72119, Note_on_c, 11, 79, 0
14, 72120, Note_on_c, 11, 71, 127
14, 72179, Note_on_c, 11, 71, 0
14, 72180, Note_on_c, 11, 69, 127
14, 72209, Note_on_c, 11, 69, 0
14, 72210, Note_on_c, 11, 67, 127
14, 72239, Note_on_c, 11, 67, 0
14, 72240, Note_on_c, 11, 69, 127
14, 72299, Note_on_c, 11, 69, 0
14, 72420, Note_on_c, 11, 69, 127
14, 72479, Note_on_c, 11, 69, 0
14, 72480, Note_on_c, 11, 74, 127
14, 72539, Note_on_c, 11, 74, 0
14, 72540, Note_on_c, 11, 71, 127
14, 72599, Note_on_c, 11, 71, 0
14, 72600, Note_on_c, 11, 74, 127
14, 72659, Note_on_c, 11, 74, 0
14, 72660, Note_on_c, 11, 79, 127
14, 72719, Note_on_c, 11, 79, 0
14, 72720, Note_on_c, 11, 78, 127
14, 72779, Note_on_c, 11, 78, 0
14, 72780, Note_on_c, 11, 79, 127
14, 72839, Note_on_c, 11, 79, 0
14, 72840, Note_on_c, 11, 76, 127
14, 72899, Note_on_c, 11, 76, 0
14, 72900, Note_on_c, 11, 74, 127
14, 73139, Note_on_c, 11, 74, 0
14, 73500, Note_on_c, 11, 76, 127
14, 73529, Note_on_c, 11, 76, 0
14, 73530, Note_on_c, 11, 74, 127
14, 73559, Note_on_c, 11, 74, 0
14, 73560, Note_on_c, 11, 72, 127
14, 73589, Note_on_c, 11, 72, 0
14, 73590, Note_on_c, 11, 71, 127
14, 73619, Note_on_c, 11, 71, 0
14, 73620, Note_on_c, 11, 72, 127
14, 73679, Note_on_c, 11, 72, 0
14, 73680, Note_on_c, 11, 68, 127
14, 73739, Note_on_c, 11, 68, 0
14, 73740, Note_on_c, 11, 69, 127
14, 73799, Note_on_c, 11, 69, 0
14, 73860, Note_on_c, 11, 74, 127
14, 73889, Note_on_c, 11, 74, 0
14, 73890, Note_on_c, 11, 72, 127
14, 73919, Note_on_c, 11, 72, 0
14, 73920, Note_on_c, 11, 71, 127
14, 73949, Note_on_c, 11, 71, 0
14, 73950, Note_on_c, 11, 69, 127
14, 73979, Note_on_c, 11, 69, 0
14, 73980, Note_on_c, 11, 71, 127
14, 74039, Note_on_c, 11, 71, 0
14, 74040, Note_on_c, 11, 66, 127
14, 74099, Note_on_c, 11, 66, 0
14, 74100, Note_on_c, 11, 67, 127
14, 74159, Note_on_c, 11, 67, 0
14, 74220, Note_on_c, 11, 79, 127
14, 74249, Note_on_c, 11, 79, 0
14, 74250, Note_on_c, 11, 78, 127
14, 74279, Note_on_c, 11, 78, 0
14, 74280, Note_on_c, 11, 76, 127
14, 74309, Note_on_c, 11, 76, 0
14, 74310, Note_on_c, 11, 75, 127
14, 74339, Note_on_c, 11, 75, 0
14, 74340, Note_on_c, 11, 76, 127
14, 74399, Note_on_c, 11, 76, 0
14, 74400, Note_on_c, 11, 71, 127
14, 74459, Note_on_c, 11, 71, 0
14, 74460, Note_on_c, 11, 72, 127
14, 74519, Note_on_c, 11, 72, 0
14, 74520, Note_on_c, 11, 71, 127
14, 74549, Note_on_c, 11, 71, 0
14, 74550, Note_on_c, 11, 76, 127
14, 74579, Note_on_c, 11, 76, 0
14, 74580, Note_on_c, 11, 75, 127
14, 74609, Note_on_c, 11, 75, 0
14, 74610, Note_on_c, 11, 76, 127
14, 74639, Note_on_c, 11, 76, 0
14, 74640, Note_on_c, 11, 71, 127
14, 74669, Note_on_c, 11, 71, 0
14, 74670, Note_on_c, 11, 69, 127
14, 74699, Note_on_c, 11, 69, 0
14, 74700, Note_on_c, 11, 67, 127
14, 74759, Note_on_c, 11, 67, 0
14, 74760, Note_on_c, 11, 66, 127
14, 74789, Note_on_c, 11, 66, 0
14, 74790, Note_on_c, 11, 67, 127
14, 74819, Note_on_c, 11, 67, 0
14, 74820, Note_on_c, 11, 64, 127
14, 74879, Note_on_c, 11, 64, 0
14, 74940, Note_on_c, 11, 78, 127
14, 74999, Note_on_c, 11, 78, 0
14, 75000, Note_on_c, 11, 79, 127
14, 75059, Note_on_c, 11, 79, 0
14, 75060, Note_on_c, 11, 81, 127
14, 75119, Note_on_c, 11, 81, 0
14, 75120, Note_on_c, 11, 75, 127
14, 75179, Note_on_c, 11, 75, 0
14, 75180, Note_on_c, 11, 76, 127
14, 75299, Note_on_c, 11, 76, 0
14, 75300, Note_on_c, 11, 67, 127
14, 75329, Note_on_c, 11, 67, 0
14, 75330, Note_on_c, 11, 69, 127
14, 75359, Note_on_c, 11, 69, 0
14, 75360, Note_on_c, 11, 71, 127
14, 75389, Note_on_c, 11, 71, 0
14, 75390, Note_on_c, 11, 67, 127
14, 75404, Note_on_c, 11, 67, 0
14, 75405, Note_on_c, 11, 69, 127
14, 75419, Note_on_c, 11, 69, 0
14, 75420, Note_on_c, 11, 71, 127
14, 75479, Note_on_c, 11, 71, 0
14, 75480, Note_on_c, 11, 73, 127
14, 75509, Note_on_c, 11, 73, 0
14, 75510, Note_on_c, 11, 75, 127
14, 75539, Note_on_c, 11, 75, 0
14, 75540, Note_on_c, 11, 76, 127
14, 75569, Note_on_c, 11, 76, 0
14, 75570, Note_on_c, 11, 78, 127
14, 75599, Note_on_c, 11, 78, 0
14, 75600, Note_on_c, 11, 79, 127
14, 75629, Note_on_c, 11, 79, 0
14, 75630, Note_on_c, 11, 81, 127
14, 75659, Note_on_c, 11, 81, 0
14, 75660, Note_on_c, 11, 79, 127
14, 75689, Note_on_c, 11, 79, 0
14, 75690, Note_on_c, 11, 78, 127
14, 75719, Note_on_c, 11, 78, 0
14, 75720, Note_on_c, 11, 79, 127
14, 75749, Note_on_c, 11, 79, 0
14, 75750, Note_on_c, 11, 73, 127
14, 75779, Note_on_c, 11, 73, 0
14, 75780, Note_on_c, 11, 74, 127
14, 75809, Note_on_c, 11, 74, 0
14, 75810, Note_on_c, 11, 76, 127
14, 75839, Note_on_c, 11, 76, 0
14, 75840, Note_on_c, 11, 78, 127
14, 75869, Note_on_c, 11, 78, 0
14, 75870, Note_on_c, 11, 74, 127
14, 75899, Note_on_c, 11, 74, 0
14, 75900, Note_on_c, 11, 73, 127
14, 75929, Note_on_c, 11, 73, 0
14, 75930, Note_on_c, 11, 71, 127
14, 75959, Note_on_c, 11, 71, 0
14, 75960, Note_on_c, 11, 76, 127
14, 76079, Note_on_c, 11, 76, 0
14, 76200, Note_on_c, 11, 66, 127
14, 76229, Note_on_c, 11, 66, 0
14, 76230, Note_on_c, 11, 68, 127
14, 76259, Note_on_c, 11, 68, 0
14, 76260, Note_on_c, 11, 70, 127
14, 76289, Note_on_c, 11, 70, 0
14, 76290, Note_on_c, 11, 71, 127
14, 76319, Note_on_c, 11, 71, 0
14, 76320, Note_on_c, 11, 73, 127
14, 76349, Note_on_c, 11, 73, 0
14, 76350, Note_on_c, 11, 71, 127
14, 76379, Note_on_c, 11, 71, 0
14, 76380, Note_on_c, 11, 73, 127
14, 76439, Note_on_c, 11, 73, 0
14, 76440, Note_on_c, 11, 74, 127
14, 76499, Note_on_c, 11, 74, 0
14, 76500, Note_on_c, 11, 76, 127
14, 76529, Note_on_c, 11, 76, 0
14, 76530, Note_on_c, 11, 74, 127
14, 76559, Note_on_c, 11, 74, 0
14, 76560, Note_on_c, 11, 76, 127
14, 76589, Note_on_c, 11, 76, 0
14, 76590, Note_on_c, 11, 79, 127
14, 76619, Note_on_c, 11, 79, 0
14, 76620, Note_on_c, 11, 78, 127
14, 76679, Note_on_c, 11, 78, 0
14, 76680, Note_on_c, 11, 71, 127
14, 76739, Note_on_c, 11, 71, 0
14, 76740, Note_on_c, 11, 74, 127
14, 76769, Note_on_c, 11, 74, 0
14, 76770, Note_on_c, 11, 73, 127
14, 76799, Note_on_c, 11, 73, 0
14, 76800, Note_on_c, 11, 71, 127
14, 76829, Note_on_c, 11, 71, 0
14, 76830, Note_on_c, 11, 70, 127
14, 76859, Note_on_c, 11, 70, 0
14, 76860, Note_on_c, 11, 71, 127
14, 76979, Note_on_c, 11, 71, 0
14, 79200, Note_on_c, 11, 74, 127
14, 79214, Note_on_c, 11, 74, 0
14, 79215, Note_on_c, 11, 72, 127
14, 79229, Note_on_c, 11, 72, 0
14, 79230, Note_on_c, 11, 71, 127
14, 79289, Note_on_c, 11, 71, 0
14, 79290, Note_on_c, 11, 72, 127
14, 79319, Note_on_c, 11, 72, 0
14, 79320, Note_on_c, 11, 74, 127
14, 79334, Note_on_c, 11, 74, 0
14, 79335, Note_on_c, 11, 72, 127
14, 79349, Note_on_c, 11, 72, 0
14, 79350, Note_on_c, 11, 71, 127
14, 79364, Note_on_c, 11, 71, 0
14, 79365, Note_on_c, 11, 72, 127
14, 79379, Note_on_c, 11, 72, 0
14, 79380, Note_on_c, 11, 74, 127
14, 79394, Note_on_c, 11, 74, 0
14, 79395, Note_on_c, 11, 78, 127
14, 79409, Note_on_c, 11, 78, 0
14, 79410, Note_on_c, 11, 79, 127
14, 79469, Note_on_c, 11, 79, 0
14, 79470, Note_on_c, 11, 78, 127
14, 79484, Note_on_c, 11, 78, 0
14, 79485, Note_on_c, 11, 76, 127
14, 79499, Note_on_c, 11, 76, 0
14, 79500, Note_on_c, 11, 74, 127
14, 79514, Note_on_c, 11, 74, 0
14, 79515, Note_on_c, 11, 72, 127
14, 79529, Note_on_c, 11, 72, 0
14, 79530, Note_on_c, 11, 71, 127
14, 79544, Note_on_c, 11, 71, 0
14, 79545, Note_on_c, 11, 69, 127
14, 79559, Note_on_c, 11, 69, 0
14, 79560, Note_on_c, 11, 67, 127
14, 79574, Note_on_c, 11, 67, 0
14, 79575, Note_on_c, 11, 69, 127
14, 79589, Note_on_c, 11, 69, 0
14, 79590, Note_on_c, 11, 71, 127
14, 79634, Note_on_c, 11, 71, 0
14, 79635, Note_on_c, 11, 72, 127
14, 79649, Note_on_c, 11, 72, 0
14, 79650, Note_on_c, 11, 74, 127
14, 79679, Note_on_c, 11, 74, 0
14, 79680, Note_on_c, 11, 74, 127
14, 79709, Note_on_c, 11, 74, 0
14, 79710, Note_on_c, 11, 65, 127
14, 79739, Note_on_c, 11, 65, 0
14, 79740, Note_on_c, 11, 64, 127
14, 79859, Note_on_c, 11, 64, 0
14, 79920, Note_on_c, 11, 76, 127
14, 79934, Note_on_c, 11, 76, 0
14, 79935, Note_on_c, 11, 74, 127
14, 79949, Note_on_c, 11, 74, 0
14, 79950, Note_on_c, 11, 73, 127
14, 80009, Note_on_c, 11, 73, 0
14, 80010, Note_on_c, 11, 74, 127
14, 80039, Note_on_c, 11, 74, 0
14, 80040, Note_on_c, 11, 76, 127
14, 80054, Note_on_c, 11, 76, 0
14, 80055, Note_on_c, 11, 74, 127
14, 80069, Note_on_c, 11, 74, 0
14, 80070, Note_on_c, 11, 73, 127
14, 80084, Note_on_c, 11, 73, 0
14, 80085, Note_on_c, 11, 74, 127
14, 80099, Note_on_c, 11, 74, 0
14, 80100, Note_on_c, 11, 76, 127
14, 80114, Note_on_c, 11, 76, 0
14, 80115, Note_on_c, 11, 80, 127
14, 80129, Note_on_c, 11, 80, 0
14, 80130, Note_on_c, 11, 81, 127
14, 80189, Note_on_c, 11, 81, 0
14, 80190, Note_on_c, 11, 79, 127
14, 80204, Note_on_c, 11, 79, 0
14, 80205, Note_on_c, 11, 78, 127
14, 80219, Note_on_c, 11, 78, 0
14, 80220, Note_on_c, 11, 76, 127
14, 80234, Note_on_c, 11, 76, 0
14, 80235, Note_on_c, 11, 74, 127
14, 80249, Note_on_c, 11, 74, 0
14, 80250, Note_on_c, 11, 73, 127
14, 80264, Note_on_c, 11, 73, 0
14, 80265, Note_on_c, 11, 71, 127
14, 80279, Note_on_c, 11, 71, 0
14, 80280, Note_on_c, 11, 69, 127
14, 80294, Note_on_c, 11, 69, 0
14, 80295, Note_on_c, 11, 71, 127
14, 80309, Note_on_c, 11, 71, 0
14, 80310, Note_on_c, 11, 73, 127
14, 80354, Note_on_c, 11, 73, 0
14, 80355, Note_on_c, 11, 74, 127
14, 80369, Note_on_c, 11, 74, 0
14, 80370, Note_on_c, 11, 76, 127
14, 80399, Note_on_c, 11, 76, 0
14, 80400, Note_on_c, 11, 76, 127
14, 80429, Note_on_c, 11, 76, 0
14, 80430, Note_on_c, 11, 67, 127
14, 80459, Note_on_c, 11, 67, 0
14, 80460, Note_on_c, 11, 66, 127
14, 80579, Note_on_c, 11, 66, 0
14, 80640, Note_on_c, 11, 66, 127
14, 80669, Note_on_c, 11, 66, 0
14, 80670, Note_on_c, 11, 78, 127
14, 80729, Note_on_c, 11, 78, 0
14, 80730, Note_on_c, 11, 76, 127
14, 80759, Note_on_c, 11, 76, 0
14, 80760, Note_on_c, 11, 74, 127
14, 80789, Note_on_c, 11, 74, 0
14, 80790, Note_on_c, 11, 73, 127
14, 80819, Note_on_c, 11, 73, 0
14, 80820, Note_on_c, 11, 74, 127
14, 80834, Note_on_c, 11, 74, 0
14, 80835, Note_on_c, 11, 73, 127
14, 80849, Note_on_c, 11, 73, 0
14, 80850, Note_on_c, 11, 74, 127
14, 80879, Note_on_c, 11, 74, 0
14, 80880, Note_on_c, 11, 69, 127
14, 80940, Note_on_c, 11, 69, 0
14, 80970, Note_on_c, 11, 66, 127
14, 80999, Note_on_c, 11, 66, 0
14, 81000, Note_on_c, 11, 68, 127
14, 81029, Note_on_c, 11, 68, 0
14, 81030, Note_on_c, 11, 71, 127
14, 81059, Note_on_c, 11, 71, 0
14, 81060, Note_on_c, 11, 76, 127
14, 81089, Note_on_c, 11, 76, 0
14, 81090, Note_on_c, 11, 74, 127
14, 81119, Note_on_c, 11, 74, 0
14, 81120, Note_on_c, 11, 72, 127
14, 81149, Note_on_c, 11, 72, 0
14, 81150, Note_on_c, 11, 71, 127
14, 81179, Note_on_c, 11, 71, 0
14, 81180, Note_on_c, 11, 72, 127
14, 81195, Note_on_c, 11, 72, 0
14, 81195, Note_on_c, 11, 71, 127
14, 81210, Note_on_c, 11, 71, 0
14, 81210, Note_on_c, 11, 72, 127
14, 81239, Note_on_c, 11, 72, 0
14, 81240, Note_on_c, 11, 69, 127
14, 81300, Note_on_c, 11, 69, 0
14, 81360, Note_on_c, 11, 62, 127
14, 81389, Note_on_c, 11, 62, 0
14, 81390, Note_on_c, 11, 74, 127
14, 81419, Note_on_c, 11, 74, 0
14, 81420, Note_on_c, 11, 74, 127
14, 81434, Note_on_c, 11, 74, 0
14, 81435, Note_on_c, 11, 72, 127
14, 81449, Note_on_c, 11, 72, 0
14, 81450, Note_on_c, 11, 71, 127
14, 81464, Note_on_c, 11, 71, 0
14, 81465, Note_on_c, 11, 74, 127
14, 81479, Note_on_c, 11, 74, 0
14, 81480, Note_on_c, 11, 72, 127
14, 81494, Note_on_c, 11, 72, 0
14, 81495, Note_on_c, 11, 71, 127
14, 81509, Note_on_c, 11, 71, 0
14, 81510, Note_on_c, 11, 69, 127
14, 81524, Note_on_c, 11, 69, 0
14, 81525, Note_on_c, 11, 72, 127
14, 81539, Note_on_c, 11, 72, 0
14, 81540, Note_on_c, 11, 71, 127
14, 81554, Note_on_c, 11, 71, 0
14, 81555, Note_on_c, 11, 67, 127
14, 81569, Note_on_c, 11, 67, 0
14, 81570, Note_on_c, 11, 66, 127
14, 81584, Note_on_c, 11, 66, 0
14, 81585, Note_on_c, 11, 67, 127
14, 81599, Note_on_c, 11, 67, 0
14, 81600, Note_on_c, 11, 69, 127
14, 81614, Note_on_c, 11, 69, 0
14, 81615, Note_on_c, 11, 71, 127
14, 81629, Note_on_c, 11, 71, 0
14, 81630, Note_on_c, 11, 72, 127
14, 81644, Note_on_c, 11, 72, 0
14, 81645, Note_on_c, 11, 74, 127
14, 81659, Note_on_c, 11, 74, 0
14, 81660, Note_on_c, 11, 72, 127
14, 81674, Note_on_c, 11, 72, 0
14, 81675, Note_on_c, 11, 71, 127
14, 81689, Note_on_c, 11, 71, 0
14, 81690, Note_on_c, 11, 69, 127
14, 81704, Note_on_c, 11, 69, 0
14, 81705, Note_on_c, 11, 72, 127
14, 81719, Note_on_c, 11, 72, 0
14, 81720, Note_on_c, 11, 71, 127
14, 81734, Note_on_c, 11, 71, 0
14, 81735, Note_on_c, 11, 67, 127
14, 81749, Note_on_c, 11, 67, 0
14, 81750, Note_on_c, 11, 66, 127
14, 81764, Note_on_c, 11, 66, 0
14, 81765, Note_on_c, 11, 67, 127
14, 81779, Note_on_c, 11, 67, 0
14, 81780, Note_on_c, 11, 69, 127
14, 81794, Note_on_c, 11, 69, 0
14, 81795, Note_on_c, 11, 71, 127
14, 81809, Note_on_c, 11, 71, 0
14, 81810, Note_on_c, 11, 72, 127
14, 81824, Note_on_c, 11, 72, 0
14, 81825, Note_on_c, 11, 74, 127
14, 81839, Note_on_c, 11, 74, 0
14, 81840, Note_on_c, 11, 76, 127
14, 81854, Note_on_c, 11, 76, 0
14, 81855, Note_on_c, 11, 74, 127
14, 81869, Note_on_c, 11, 74, 0
14, 81870, Note_on_c, 11, 72, 127
14, 81884, Note_on_c, 11, 72, 0
14, 81885, Note_on_c, 11, 76, 127
14, 81899, Note_on_c, 11, 76, 0
14, 81900, Note_on_c, 11, 74, 127
14, 81914, Note_on_c, 11, 74, 0
14, 81915, Note_on_c, 11, 71, 127
14, 81929, Note_on_c, 11, 71, 0
14, 81930, Note_on_c, 11, 69, 127
14, 81944, Note_on_c, 11, 69, 0
14, 81945, Note_on_c, 11, 71, 127
14, 81959, Note_on_c, 11, 71, 0
14, 81960, Note_on_c, 11, 73, 127
14, 81974, Note_on_c, 11, 73, 0
14, 81975, Note_on_c, 11, 74, 127
14, 81989, Note_on_c, 11, 74, 0
14, 81990, Note_on_c, 11, 76, 127
14, 82004, Note_on_c, 11, 76, 0
14, 82005, Note_on_c, 11, 78, 127
14, 82019, Note_on_c, 11, 78, 0
14, 82020, Note_on_c, 11, 79, 127
14, 82034, Note_on_c, 11, 79, 0
14, 82035, Note_on_c, 11, 78, 127
14, 82049, Note_on_c, 11, 78, 0
14, 82050, Note_on_c, 11, 76, 127
14, 82064, Note_on_c, 11, 76, 0
14, 82065, Note_on_c, 11, 79, 127
14, 82079, Note_on_c, 11, 79, 0
14, 82080, Note_on_c, 11, 78, 127
14, 82094, Note_on_c, 11, 78, 0
14, 82095, Note_on_c, 11, 76, 127
14, 82109, Note_on_c, 11, 76, 0
14, 82110, Note_on_c, 11, 74, 127
14, 82139, Note_on_c, 11, 74, 0
14, 82140, Note_on_c, 11, 74, 127
14, 82199, Note_on_c, 11, 74, 0
14, 82200, Note_on_c, 11, 74, 127
14, 82259, Note_on_c, 11, 74, 0
14, 82260, Note_on_c, 11, 74, 127
14, 82499, Note_on_c, 11, 74, 0
14, 82530, Note_on_c, 11, 72, 127
14, 82544, Note_on_c, 11, 72, 0
14, 82545, Note_on_c, 11, 71, 127
14, 82559, Note_on_c, 11, 71, 0
14, 82560, Note_on_c, 11, 72, 127
14, 82589, Note_on_c, 11, 72, 0
14, 82590, Note_on_c, 11, 69, 127
14, 82619, Note_on_c, 11, 69, 0
14, 82620, Note_on_c, 11, 71, 127
14, 82679, Note_on_c, 11, 71, 0
14, 82680, Note_on_c, 11, 79, 127
14, 82739, Note_on_c, 11, 79, 0
14, 82800, Note_on_c, 11, 81, 127
14, 82859, Note_on_c, 11, 81, 0
14, 82860, Note_on_c, 11, 74, 127
14, 82919, Note_on_c, 11, 74, 0
14, 83010, Note_on_c, 11, 74, 127
14, 83039, Note_on_c, 11, 74, 0
14, 83040, Note_on_c, 11, 79, 127
14, 83054, Note_on_c, 11, 79, 0
14, 83055, Note_on_c, 11, 77, 127
14, 83069, Note_on_c, 11, 77, 0
14, 83070, Note_on_c, 11, 76, 127
14, 83084, Note_on_c, 11, 76, 0
14, 83085, Note_on_c, 11, 79, 127
14, 83099, Note_on_c, 11, 79, 0
14, 83100, Note_on_c, 11, 77, 127
14, 83114, Note_on_c, 11, 77, 0
14, 83115, Note_on_c, 11, 76, 127
14, 83129, Note_on_c, 11, 76, 0
14, 83130, Note_on_c, 11, 74, 127
14, 83144, Note_on_c, 11, 74, 0
14, 83145, Note_on_c, 11, 77, 127
14, 83159, Note_on_c, 11, 77, 0
14, 83160, Note_on_c, 11, 76, 127
14, 83174, Note_on_c, 11, 76, 0
14, 83175, Note_on_c, 11, 74, 127
14, 83189, Note_on_c, 11, 74, 0
14, 83190, Note_on_c, 11, 76, 127
14, 83234, Note_on_c, 11, 76, 0
14, 83235, Note_on_c, 11, 74, 127
14, 83249, Note_on_c, 11, 74, 0
14, 83250, Note_on_c, 11, 72, 127
14, 83264, Note_on_c, 11, 72, 0
14, 83265, Note_on_c, 11, 76, 127
14, 83279, Note_on_c, 11, 76, 0
14, 83280, Note_on_c, 11, 74, 127
14, 83294, Note_on_c, 11, 74, 0
14, 83295, Note_on_c, 11, 72, 127
14, 83309, Note_on_c, 11, 72, 0
14, 83310, Note_on_c, 11, 71, 127
14, 83324, Note_on_c, 11, 71, 0
14, 83325, Note_on_c, 11, 74, 127
14, 83339, Note_on_c, 11, 74, 0
14, 83340, Note_on_c, 11, 72, 127
14, 83354, Note_on_c, 11, 72, 0
14, 83355, Note_on_c, 11, 71, 127
14, 83369, Note_on_c, 11, 71, 0
14, 83370, Note_on_c, 11, 72, 127
14, 83414, Note_on_c, 11, 72, 0
14, 83415, Note_on_c, 11, 71, 127
14, 83429, Note_on_c, 11, 71, 0
14, 83430, Note_on_c, 11, 69, 127
14, 83444, Note_on_c, 11, 69, 0
14, 83445, Note_on_c, 11, 72, 127
14, 83459, Note_on_c, 11, 72, 0
14, 83460, Note_on_c, 11, 71, 127
14, 83474, Note_on_c, 11, 71, 0
14, 83475, Note_on_c, 11, 69, 127
14, 83489, Note_on_c, 11, 69, 0
14, 83490, Note_on_c, 11, 67, 127
14, 83504, Note_on_c, 11, 67, 0
14, 83505, Note_on_c, 11, 71, 127
14, 83519, Note_on_c, 11, 71, 0
14, 83520, Note_on_c, 11, 69, 127
14, 83534, Note_on_c, 11, 69, 0
14, 83535, Note_on_c, 11, 67, 127
14, 83549, Note_on_c, 11, 67, 0
14, 83550, Note_on_c, 11, 69, 127
14, 83594, Note_on_c, 11, 69, 0
14, 83595, Note_on_c, 11, 67, 127
14, 83609, Note_on_c, 11, 67, 0
14, 83610, Note_on_c, 11, 66, 127
14, 83624, Note_on_c, 11, 66, 0
14, 83625, Note_on_c, 11, 69, 127
14, 83639, Note_on_c, 11, 69, 0
14, 83640, Note_on_c, 11, 67, 127
14, 83654, Note_on_c, 11, 67, 0
14, 83655, Note_on_c, 11, 66, 127
14, 83669, Note_on_c, 11, 66, 0
14, 83670, Note_on_c, 11, 64, 127
14, 83684, Note_on_c, 11, 64, 0
14, 83685, Note_on_c, 11, 67, 127
14, 83699, Note_on_c, 11, 67, 0
14, 83700, Note_on_c, 11, 66, 127
14, 83714, Note_on_c, 11, 66, 0
14, 83715, Note_on_c, 11, 62, 127
14, 83729, Note_on_c, 11, 62, 0
14, 83730, Note_on_c, 11, 64, 127
14, 83744, Note_on_c, 11, 64, 0
14, 83745, Note_on_c, 11, 66, 127
14, 83759, Note_on_c, 11, 66, 0
14, 83760, Note_on_c, 11, 67, 127
14, 83774, Note_on_c, 11, 67, 0
14, 83775, Note_on_c, 11, 69, 127
14, 83789, Note_on_c, 11, 69, 0
14, 83790, Note_on_c, 11, 71, 127
14, 83804, Note_on_c, 11, 71, 0
14, 83805, Note_on_c, 11, 72, 127
14, 83819, Note_on_c, 11, 72, 0
14, 83820, Note_on_c, 11, 74, 127
14, 83850, Note_on_c, 11, 74, 0
14, 83850, Note_on_c, 11, 67, 127
14, 83880, Note_on_c, 11, 67, 0
14, 83880, Note_on_c, 11, 76, 127
14, 83910, Note_on_c, 11, 76, 0
14, 83910, Note_on_c, 11, 72, 127
14, 83940, Note_on_c, 11, 72, 0
14, 83940, Note_on_c, 11, 71, 127
14, 84000, Note_on_c, 11, 71, 0
14, 84000, Note_on_c, 11, 69, 127
14, 84060, Note_on_c, 11, 69, 0
14, 84060, Note_on_c, 11, 67, 127
14, 84180, Note_on_c, 11, 67, 0
14, 84780, Note_on_c, 11, 71, 127
14, 84794, Note_on_c, 11, 71, 0
14, 84795, Note_on_c, 11, 69, 127
14, 84809, Note_on_c, 11, 69, 0
14, 84810, Note_on_c, 11, 67, 127
14, 84869, Note_on_c, 11, 67, 0
14, 84870, Note_on_c, 11, 79, 127
14, 84899, Note_on_c, 11, 79, 0
14, 84900, Note_on_c, 11, 79, 127
14, 84914, Note_on_c, 11, 79, 0
14, 84915, Note_on_c, 11, 78, 127
14, 84929, Note_on_c, 11, 78, 0
14, 84930, Note_on_c, 11, 76, 127
14, 84944, Note_on_c, 11, 76, 0
14, 84945, Note_on_c, 11, 75, 127
14, 84959, Note_on_c, 11, 75, 0
14, 84960, Note_on_c, 11, 76, 127
14, 84974, Note_on_c, 11, 76, 0
14, 84975, Note_on_c, 11, 74, 127
14, 84989, Note_on_c, 11, 74, 0
14, 84990, Note_on_c, 11, 76, 127
14, 85004, Note_on_c, 11, 76, 0
14, 85005, Note_on_c, 11, 78, 127
14, 85019, Note_on_c, 11, 78, 0
14, 85020, Note_on_c, 11, 76, 127
14, 85034, Note_on_c, 11, 76, 0
14, 85035, Note_on_c, 11, 74, 127
14, 85049, Note_on_c, 11, 74, 0
14, 85050, Note_on_c, 11, 72, 127
14, 85064, Note_on_c, 11, 72, 0
14, 85065, Note_on_c, 11, 71, 127
14, 85079, Note_on_c, 11, 71, 0
14, 85080, Note_on_c, 11, 69, 127
14, 85139, Note_on_c, 11, 69, 0
14, 85155, Note_on_c, 11, 72, 127
14, 85169, Note_on_c, 11, 72, 0
14, 85170, Note_on_c, 11, 71, 127
14, 85184, Note_on_c, 11, 71, 0
14, 85185, Note_on_c, 11, 69, 127
14, 85199, Note_on_c, 11, 69, 0
14, 85200, Note_on_c, 11, 78, 127
14, 85229, Note_on_c, 11, 78, 0
14, 85230, Note_on_c, 11, 69, 127
14, 85259, Note_on_c, 11, 69, 0
14, 85260, Note_on_c, 11, 72, 127
14, 85289, Note_on_c, 11, 72, 0
14, 85290, Note_on_c, 11, 71, 127
14, 85319, Note_on_c, 11, 71, 0
14, 85320, Note_on_c, 11, 69, 127
14, 85379, Note_on_c, 11, 69, 0
14, 85380, Note_on_c, 11, 67, 127
14, 85439, Note_on_c, 11, 67, 0
14, 85500, Note_on_c, 11, 64, 127
14, 85514, Note_on_c, 11, 64, 0
14, 85515, Note_on_c, 11, 66, 127
14, 85529, Note_on_c, 11, 66, 0
14, 85530, Note_on_c, 11, 68, 127
14, 85574, Note_on_c, 11, 68, 0
14, 85575, Note_on_c, 11, 69, 127
14, 85589, Note_on_c, 11, 69, 0
14, 85590, Note_on_c, 11, 71, 127
14, 85634, Note_on_c, 11, 71, 0
14, 85635, Note_on_c, 11, 72, 127
14, 85649, Note_on_c, 11, 72, 0
14, 85650, Note_on_c, 11, 74, 127
14, 85709, Note_on_c, 11, 74, 0
14, 85710, Note_on_c, 11, 71, 127
14, 85739, Note_on_c, 11, 71, 0
14, 85740, Note_on_c, 11, 68, 127
14, 85754, Note_on_c, 11, 68, 0
14, 85755, Note_on_c, 11, 69, 127
14, 85769, Note_on_c, 11, 69, 0
14, 85770, Note_on_c, 11, 71, 127
14, 85784, Note_on_c, 11, 71, 0
14, 85785, Note_on_c, 11, 72, 127
14, 85799, Note_on_c, 11, 72, 0
14, 85800, Note_on_c, 11, 74, 127
14, 85814, Note_on_c, 11, 74, 0
14, 85815, Note_on_c, 11, 76, 127
14, 85829, Note_on_c, 11, 76, 0
14, 85830, Note_on_c, 11, 77, 127
14, 85874, Note_on_c, 11, 77, 0
14, 85875, Note_on_c, 11, 76, 127
14, 85889, Note_on_c, 11, 76, 0
14, 85890, Note_on_c, 11, 74, 127
14, 85904, Note_on_c, 11, 74, 0
14, 85905, Note_on_c, 11, 72, 127
14, 85919, Note_on_c, 11, 72, 0
14, 85920, Note_on_c, 11, 74, 127
14, 85949, Note_on_c, 11, 74, 0
14, 85950, Note_on_c, 11, 71, 127
14, 85979, Note_on_c, 11, 71, 0
14, 85980, Note_on_c, 11, 76, 127
14, 86009, Note_on_c, 11, 76, 0
14, 86010, Note_on_c, 11, 71, 127
14, 86039, Note_on_c, 11, 71, 0
14, 86040, Note_on_c, 11, 72, 127
14, 86159, Note_on_c, 11, 72, 0
14, 86220, Note_on_c, 11, 66, 127
14, 86279, Note_on_c, 11, 66, 0
14, 86280, Note_on_c, 11, 76, 127
14, 86339, Note_on_c, 11, 76, 0
14, 86370, Note_on_c, 11, 75, 127
14, 86399, Note_on_c, 11, 75, 0
14, 86400, Note_on_c, 11, 76, 127
14, 86429, Note_on_c, 11, 76, 0
14, 86430, Note_on_c, 11, 78, 127
14, 86459, Note_on_c, 11, 78, 0
14, 86460, Note_on_c, 11, 79, 127
14, 86489, Note_on_c, 11, 79, 0
14, 86490, Note_on_c, 11, 76, 127
14, 86519, Note_on_c, 11, 76, 0
14, 86520, Note_on_c, 11, 75, 127
14, 86549, Note_on_c, 11, 75, 0
14, 86550, Note_on_c, 11, 76, 127
14, 86579, Note_on_c, 11, 76, 0
14, 86580, Note_on_c, 11, 72, 127
14, 86609, Note_on_c, 11, 72, 0
14, 86610, Note_on_c, 11, 71, 127
14, 86639, Note_on_c, 11, 71, 0
14, 86640, Note_on_c, 11, 69, 127
14, 86669, Note_on_c, 11, 69, 0
14, 86670, Note_on_c, 11, 67, 127
14, 86699, Note_on_c, 11, 67, 0
14, 86700, Note_on_c, 11, 66, 127
14, 86729, Note_on_c, 11, 66, 0
14, 86730, Note_on_c, 11, 64, 127
14, 86759, Note_on_c, 11, 64, 0
14, 86760, Note_on_c, 11, 64, 127
14, 86819, Note_on_c, 11, 64, 0
14, 86820, Note_on_c, 11, 63, 127
14, 86879, Note_on_c, 11, 63, 0
14, 86880, Note_on_c, 11, 63, 127
14, 86939, Note_on_c, 11, 63, 0
14, 87000, Note_on_c, 11, 71, 127
14, 87059, Note_on_c, 11, 71, 0
14, 87060, Note_on_c, 11, 71, 127
14, 87119, Note_on_c, 11, 71, 0
14, 87120, Note_on_c, 11, 71, 127
14, 87359, Note_on_c, 11, 71, 0
14, 87390, Note_on_c, 11, 69, 127
14, 87404, Note_on_c, 11, 69, 0
14, 87405, Note_on_c, 11, 67, 127
14, 87419, Note_on_c, 11, 67, 0
14, 87420, Note_on_c, 11, 69, 127
14, 87449, Note_on_c, 11, 69, 0
14, 87450, Note_on_c, 11, 66, 127
14, 87479, Note_on_c, 11, 66, 0
14, 87480, Note_on_c, 11, 67, 127
14, 87539, Note_on_c, 11, 67, 0
14, 87540, Note_on_c, 11, 76, 127
14, 87629, Note_on_c, 11, 76, 0
14, 87630, Note_on_c, 11, 78, 127
14, 87644, Note_on_c, 11, 78, 0
14, 87645, Note_on_c, 11, 79, 127
14, 87659, Note_on_c, 11, 79, 0
14, 87660, Note_on_c, 11, 78, 127
14, 87719, Note_on_c, 11, 78, 0
14, 87720, Note_on_c, 11, 71, 127
14, 87779, Note_on_c, 11, 71, 0
14, 87870, Note_on_c, 11, 71, 127
14, 87914, Note_on_c, 11, 71, 0
14, 87915, Note_on_c, 11, 69, 127
14, 87929, Note_on_c, 11, 69, 0
14, 87930, Note_on_c, 11, 67, 127
14, 87944, Note_on_c, 11, 67, 0
14, 87945, Note_on_c, 11, 71, 127
14, 87959, Note_on_c, 11, 71, 0
14, 87960, Note_on_c, 11, 69, 127
14, 87974, Note_on_c, 11, 69, 0
14, 87975, Note_on_c, 11, 67, 127
14, 87989, Note_on_c, 11, 67, 0
14, 87990, Note_on_c, 11, 66, 127
14, 88004, Note_on_c, 11, 66, 0
14, 88005, Note_on_c, 11, 69, 127
14, 88019, Note_on_c, 11, 69, 0
14, 88020, Note_on_c, 11, 67, 127
14, 88034, Note_on_c, 11, 67, 0
14, 88035, Note_on_c, 11, 64, 127
14, 88049, Note_on_c, 11, 64, 0
14, 88050, Note_on_c, 11, 63, 127
14, 88064, Note_on_c, 11, 63, 0
14, 88065, Note_on_c, 11, 64, 127
14, 88079, Note_on_c, 11, 64, 0
14, 88080, Note_on_c, 11, 66, 127
14, 88094, Note_on_c, 11, 66, 0
14, 88095, Note_on_c, 11, 67, 127
14, 88109, Note_on_c, 11, 67, 0
14, 88110, Note_on_c, 11, 69, 127
14, 88124, Note_on_c, 11, 69, 0
14, 88125, Note_on_c, 11, 71, 127
14, 88139, Note_on_c, 11, 71, 0
14, 88140, Note_on_c, 11, 69, 127
14, 88154, Note_on_c, 11, 69, 0
14, 88155, Note_on_c, 11, 67, 127
14, 88169, Note_on_c, 11, 67, 0
14, 88170, Note_on_c, 11, 66, 127
14, 88184, Note_on_c, 11, 66, 0
14, 88185, Note_on_c, 11, 69, 127
14, 88199, Note_on_c, 11, 69, 0
14, 88200, Note_on_c, 11, 67, 127
14, 88214, Note_on_c, 11, 67, 0
14, 88215, Note_on_c, 11, 64, 127
14, 88229, Note_on_c, 11, 64, 0
14, 88230, Note_on_c, 11, 63, 127
14, 88244, Note_on_c, 11, 63, 0
14, 88245, Note_on_c, 11, 64, 127
14, 88259, Note_on_c, 11, 64, 0
14, 88260, Note_on_c, 11, 66, 127
14, 88274, Note_on_c, 11, 66, 0
14, 88275, Note_on_c, 11, 67, 127
14, 88289, Note_on_c, 11, 67, 0
14, 88290, Note_on_c, 11, 69, 127
14, 88304, Note_on_c, 11, 69, 0
14, 88305, Note_on_c, 11, 71, 127
14, 88319, Note_on_c, 11, 71, 0
14, 88320, Note_on_c, 11, 72, 127
14, 88334, Note_on_c, 11, 72, 0
14, 88335, Note_on_c, 11, 71, 127
14, 88349, Note_on_c, 11, 71, 0
14, 88350, Note_on_c, 11, 69, 127
14, 88364, Note_on_c, 11, 69, 0
14, 88365, Note_on_c, 11, 72, 127
14, 88379, Note_on_c, 11, 72, 0
14, 88380, Note_on_c, 11, 71, 127
14, 88394, Note_on_c, 11, 71, 0
14, 88395, Note_on_c, 11, 67, 127
14, 88409, Note_on_c, 11, 67, 0
14, 88410, Note_on_c, 11, 66, 127
14, 88424, Note_on_c, 11, 66, 0
14, 88425, Note_on_c, 11, 67, 127
14, 88439, Note_on_c, 11, 67, 0
14, 88440, Note_on_c, 11, 69, 127
14, 88454, Note_on_c, 11, 69, 0
14, 88455, Note_on_c, 11, 71, 127
14, 88469, Note_on_c, 11, 71, 0
14, 88470, Note_on_c, 11, 73, 127
14, 88484, Note_on_c, 11, 73, 0
14, 88485, Note_on_c, 11, 75, 127
14, 88499, Note_on_c, 11, 75, 0
14, 88500, Note_on_c, 11, 76, 127
14, 88514, Note_on_c, 11, 76, 0
14, 88515, Note_on_c, 11, 75, 127
14, 88529, Note_on_c, 11, 75, 0
14, 88530, Note_on_c, 11, 73, 127
14, 88544, Note_on_c, 11, 73, 0
14, 88545, Note_on_c, 11, 76, 127
14, 88559, Note_on_c, 11, 76, 0
14, 88560, Note_on_c, 11, 75, 127
14, 88574, Note_on_c, 11, 75, 0
14, 88575, Note_on_c, 11, 71, 127
14, 88589, Note_on_c, 11, 71, 0
14, 88590, Note_on_c, 11, 70, 127
14, 88604, Note_on_c, 11, 70, 0
14, 88605, Note_on_c, 11, 71, 127
14, 88619, Note_on_c, 11, 71, 0
14, 88620, Note_on_c, 11, 73, 127
14, 88634, Note_on_c, 11, 73, 0
14, 88635, Note_on_c, 11, 75, 127
14, 88649, Note_on_c, 11, 75, 0
14, 88650, Note_on_c, 11, 76, 127
14, 88664, Note_on_c, 11, 76, 0
14, 88665, Note_on_c, 11, 78, 127
14, 88679, Note_on_c, 11, 78, 0
14, 88680, Note_on_c, 11, 79, 127
14, 88694, Note_on_c, 11, 79, 0
14, 88695, Note_on_c, 11, 78, 127
14, 88709, Note_on_c, 11, 78, 0
14, 88710, Note_on_c, 11, 76, 127
14, 88724, Note_on_c, 11, 76, 0
14, 88725, Note_on_c, 11, 75, 127
14, 88739, Note_on_c, 11, 75, 0
14, 88740, Note_on_c, 11, 76, 127
14, 88770, Note_on_c, 11, 76, 0
14, 88770, Note_on_c, 11, 71, 127
14, 88800, Note_on_c, 11, 71, 0
14, 88800, Note_on_c, 11, 74, 127
14, 88814, Note_on_c, 11, 74, 0
14, 88815, Note_on_c, 11, 72, 127
14, 88829, Note_on_c, 11, 72, 0
14, 88830, Note_on_c, 11, 71, 127
14, 88844, Note_on_c, 11, 71, 0
14, 88845, Note_on_c, 11, 69, 127
14, 88859, Note_on_c, 11, 69, 0
14, 88860, Note_on_c, 11, 71, 127
14, 88950, Note_on_c, 11, 71, 0
14, 88950, Note_on_c, 11, 64, 127
14, 88980, Note_on_c, 11, 64, 0
14, 88980, Note_on_c, 11, 67, 127
14, 89040, Note_on_c, 11, 67, 0
14, 89040, Note_on_c, 11, 66, 127
14, 89070, Note_on_c, 11, 66, 0
14, 89070, Note_on_c, 11, 64, 127
14, 89100, Note_on_c, 11, 64, 0
14, 89100, Note_on_c, 11, 64, 127
14, 89220, Note_on_c, 11, 64, 0
14, 89220, End_track
15, 0, Start_track
15, 0, MIDI_port, 0
15, 0, Title_t, "Bass Solo"
15, 0, Control_c, 13, 7, 127
15, 0, Control_c, 13, 10, 42
15, 62445, Control_c, 13, 0, 20
15, 62445, Program_c, 13, 67
15, 62460, Note_on_c, 13, 62, 90
15, 62519, Note_on_c, 13, 62, 0
15, 62520, Note_on_c, 13, 62, 90
15, 62579, Note_on_c, 13, 62, 0
15, 62580, Note_on_c, 13, 59, 90
15, 62639, Note_on_c, 13, 59, 0
15, 62640, Note_on_c, 13, 55, 90
15, 62729, Note_on_c, 13, 55, 0
15, 62730, Note_on_c, 13, 55, 90
15, 62759, Note_on_c, 13, 55, 0
15, 62760, Note_on_c, 13, 57, 90
15, 62819, Note_on_c, 13, 57, 0
15, 62820, Note_on_c, 13, 59, 90
15, 62879, Note_on_c, 13, 59, 0
15, 62880, Note_on_c, 13, 60, 90
15, 62939, Note_on_c, 13, 60, 0
15, 62940, Note_on_c, 13, 60, 90
15, 62999, Note_on_c, 13, 60, 0
15, 63030, Note_on_c, 13, 60, 90
15, 63059, Note_on_c, 13, 60, 0
15, 63060, Note_on_c, 13, 60, 90
15, 63089, Note_on_c, 13, 60, 0
15, 63090, Note_on_c, 13, 57, 90
15, 63119, Note_on_c, 13, 57, 0
15, 63120, Note_on_c, 13, 54, 90
15, 63179, Note_on_c, 13, 54, 0
15, 63180, Note_on_c, 13, 54, 90
15, 63239, Note_on_c, 13, 54, 0
15, 63240, Note_on_c, 13, 55, 90
15, 63299, Note_on_c, 13, 55, 0
15, 63300, Note_on_c, 13, 57, 90
15, 63359, Note_on_c, 13, 57, 0
15, 63360, Note_on_c, 13, 57, 90
15, 63419, Note_on_c, 13, 57, 0
15, 63420, Note_on_c, 13, 50, 90
15, 63479, Note_on_c, 13, 50, 0
15, 63480, Note_on_c, 13, 62, 90
15, 63539, Note_on_c, 13, 62, 0
15, 63540, Note_on_c, 13, 57, 90
15, 63599, Note_on_c, 13, 57, 0
15, 63600, Note_on_c, 13, 59, 90
15, 63659, Note_on_c, 13, 59, 0
15, 63660, Note_on_c, 13, 59, 90
15, 63719, Note_on_c, 13, 59, 0
15, 63780, Note_on_c, 13, 50, 90
15, 63839, Note_on_c, 13, 50, 0
15, 63840, Note_on_c, 13, 55, 90
15, 63899, Note_on_c, 13, 55, 0
15, 63900, Note_on_c, 13, 55, 90
15, 63959, Note_on_c, 13, 55, 0
15, 63960, Note_on_c, 13, 59, 90
15, 64019, Note_on_c, 13, 59, 0
15, 64020, Note_on_c, 13, 55, 90
15, 64079, Note_on_c, 13, 55, 0
15, 64080, Note_on_c, 13, 52, 90
15, 64139, Note_on_c, 13, 52, 0
15, 64140, Note_on_c, 13, 52, 90
15, 64199, Note_on_c, 13, 52, 0
15, 64200, Note_on_c, 13, 61, 90
15, 64259, Note_on_c, 13, 61, 0
15, 64290, Note_on_c, 13, 64, 90
15, 64319, Note_on_c, 13, 64, 0
15, 64320, Note_on_c, 13, 64, 90
15, 64379, Note_on_c, 13, 64, 0
15, 64380, Note_on_c, 13, 61, 90
15, 64439, Note_on_c, 13, 61, 0
15, 64440, Note_on_c, 13, 57, 90
15, 64499, Note_on_c, 13, 57, 0
15, 64500, Note_on_c, 13, 61, 90
15, 64559, Note_on_c, 13, 61, 0
15, 64560, Note_on_c, 13, 62, 90
15, 64619, Note_on_c, 13, 62, 0
15, 64620, Note_on_c, 13, 62, 90
15, 64679, Note_on_c, 13, 62, 0
15, 64740, Note_on_c, 13, 50, 90
15, 64799, Note_on_c, 13, 50, 0
15, 64800, Note_on_c, 13, 57, 90
15, 64859, Note_on_c, 13, 57, 0
15, 64860, Note_on_c, 13, 57, 90
15, 64919, Note_on_c, 13, 57, 0
15, 64920, Note_on_c, 13, 57, 90
15, 64979, Note_on_c, 13, 57, 0
15, 64980, Note_on_c, 13, 59, 90
15, 65039, Note_on_c, 13, 59, 0
15, 65040, Note_on_c, 13, 60, 90
15, 65099, Note_on_c, 13, 60, 0
15, 65100, Note_on_c, 13, 57, 90
15, 65159, Note_on_c, 13, 57, 0
15, 65160, Note_on_c, 13, 63, 90
15, 65219, Note_on_c, 13, 63, 0
15, 65340, Note_on_c, 13, 54, 90
15, 65399, Note_on_c, 13, 54, 0
15, 65400, Note_on_c, 13, 54, 90
15, 65459, Note_on_c, 13, 54, 0
15, 65460, Note_on_c, 13, 55, 90
15, 65519, Note_on_c, 13, 55, 0
15, 65520, Note_on_c, 13, 57, 90
15, 65579, Note_on_c, 13, 57, 0
15, 65580, Note_on_c, 13, 57, 90
15, 65639, Note_on_c, 13, 57, 0
15, 65640, Note_on_c, 13, 57, 90
15, 65699, Note_on_c, 13, 57, 0
15, 65700, Note_on_c, 13, 54, 90
15, 65759, Note_on_c, 13, 54, 0
15, 65760, Note_on_c, 13, 51, 90
15, 65879, Note_on_c, 13, 51, 0
15, 65940, Note_on_c, 13, 60, 90
15, 65999, Note_on_c, 13, 60, 0
15, 66000, Note_on_c, 13, 59, 90
15, 66059, Note_on_c, 13, 59, 0
15, 66060, Note_on_c, 13, 52, 90
15, 66119, Note_on_c, 13, 52, 0
15, 66120, Note_on_c, 13, 57, 90
15, 66179, Note_on_c, 13, 57, 0
15, 66180, Note_on_c, 13, 55, 90
15, 66239, Note_on_c, 13, 55, 0
15, 66240, Note_on_c, 13, 54, 90
15, 66299, Note_on_c, 13, 54, 0
15, 66300, Note_on_c, 13, 52, 90
15, 66359, Note_on_c, 13, 52, 0
15, 97005, Control_c, 13, 0, 20
15, 97005, Program_c, 13, 67
15, 97020, Note_on_c, 13, 52, 90
15, 97079, Note_on_c, 13, 52, 0
15, 97080, Note_on_c, 13, 57, 90
15, 97139, Note_on_c, 13, 57, 0
15, 97140, Note_on_c, 13, 59, 90
15, 97199, Note_on_c, 13, 59, 0
15, 97200, Note_on_c, 13, 60, 90
15, 97259, Note_on_c, 13, 60, 0
15, 97290, Note_on_c, 13, 60, 90
15, 97319, Note_on_c, 13, 60, 0
15, 97320, Note_on_c, 13, 60, 90
15, 97379, Note_on_c, 13, 60, 0
15, 97380, Note_on_c, 13, 57, 90
15, 97439, Note_on_c, 13, 57, 0
15, 97440, Note_on_c, 13, 55, 90
15, 97499, Note_on_c, 13, 55, 0
15, 97500, Note_on_c, 13, 53, 90
15, 97559, Note_on_c, 13, 53, 0
15, 97620, Note_on_c, 13, 50, 90
15, 97679, Note_on_c, 13, 50, 0
15, 97680, Note_on_c, 13, 62, 90
15, 97739, Note_on_c, 13, 62, 0
15, 97740, Note_on_c, 13, 59, 90
15, 97799, Note_on_c, 13, 59, 0
15, 97800, Note_on_c, 13, 56, 90
15, 97859, Note_on_c, 13, 56, 0
15, 97860, Note_on_c, 13, 59, 90
15, 97919, Note_on_c, 13, 59, 0
15, 97920, Note_on_c, 13, 60, 90
15, 98039, Note_on_c, 13, 60, 0
15, 98070, Note_on_c, 13, 60, 90
15, 98099, Note_on_c, 13, 60, 0
15, 98100, Note_on_c, 13, 64, 90
15, 98129, Note_on_c, 13, 64, 0
15, 98130, Note_on_c, 13, 60, 90
15, 98159, Note_on_c, 13, 60, 0
15, 98160, Note_on_c, 13, 57, 90
15, 98219, Note_on_c, 13, 57, 0
15, 98220, Note_on_c, 13, 57, 90
15, 98279, Note_on_c, 13, 57, 0
15, 98280, Note_on_c, 13, 59, 90
15, 98339, Note_on_c, 13, 59, 0
15, 98340, Note_on_c, 13, 60, 90
15, 98399, Note_on_c, 13, 60, 0
15, 98400, Note_on_c, 13, 62, 90
15, 98459, Note_on_c, 13, 62, 0
15, 98490, Note_on_c, 13, 50, 90
15, 98519, Note_on_c, 13, 50, 0
15, 98520, Note_on_c, 13, 50, 90
15, 98579, Note_on_c, 13, 50, 0
15, 98580, Note_on_c, 13, 52, 90
15, 98639, Note_on_c, 13, 52, 0
15, 98640, Note_on_c, 13, 53, 90
15, 98699, Note_on_c, 13, 53, 0
15, 98700, Note_on_c, 13, 53, 90
15, 98759, Note_on_c, 13, 53, 0
15, 98760, Note_on_c, 13, 57, 90
15, 98819, Note_on_c, 13, 57, 0
15, 98820, Note_on_c, 13, 55, 90
15, 98879, Note_on_c, 13, 55, 0
15, 98880, Note_on_c, 13, 52, 90
15, 98939, Note_on_c, 13, 52, 0
15, 98940, Note_on_c, 13, 52, 90
15, 98999, Note_on_c, 13, 52, 0
15, 99060, Note_on_c, 13, 48, 90
15, 99119, Note_on_c, 13, 48, 0
15, 99120, Note_on_c, 13, 55, 90
15, 99179, Note_on_c, 13, 55, 0
15, 99180, Note_on_c, 13, 55, 90
15, 99239, Note_on_c, 13, 55, 0
15, 99240, Note_on_c, 13, 60, 90
15, 99299, Note_on_c, 13, 60, 0
15, 99300, Note_on_c, 13, 55, 90
15, 99359, Note_on_c, 13, 55, 0
15, 99360, Note_on_c, 13, 52, 90
15, 99449, Note_on_c, 13, 52, 0
15, 99450, Note_on_c, 13, 53, 90
15, 99479, Note_on_c, 13, 53, 0
15, 99480, Note_on_c, 13, 55, 90
15, 99539, Note_on_c, 13, 55, 0
15, 99540, Note_on_c, 13, 52, 90
15, 99569, Note_on_c, 13, 52, 0
15, 99570, Note_on_c, 13, 48, 90
15, 99599, Note_on_c, 13, 48, 0
15, 99600, Note_on_c, 13, 58, 90
15, 99659, Note_on_c, 13, 58, 0
15, 99660, Note_on_c, 13, 58, 90
15, 99719, Note_on_c, 13, 58, 0
15, 99720, Note_on_c, 13, 57, 90
15, 99749, Note_on_c, 13, 57, 0
15, 99750, Note_on_c, 13, 55, 90
15, 99779, Note_on_c, 13, 55, 0
15, 99780, Note_on_c, 13, 60, 90
15, 99839, Note_on_c, 13, 60, 0
15, 99840, Note_on_c, 13, 57, 90
15, 99959, Note_on_c, 13, 57, 0
15, 100020, Note_on_c, 13, 57, 90
15, 100079, Note_on_c, 13, 57, 0
15, 100080, Note_on_c, 13, 57, 90
15, 100139, Note_on_c, 13, 57, 0
15, 100140, Note_on_c, 13, 52, 90
15, 100199, Note_on_c, 13, 52, 0
15, 100200, Note_on_c, 13, 55, 90
15, 100259, Note_on_c, 13, 55, 0
15, 100260, Note_on_c, 13, 54, 90
15, 100319, Note_on_c, 13, 54, 0
15, 100320, Note_on_c, 13, 50, 90
15, 100439, Note_on_c, 13, 50, 0
15, 100500, Note_on_c, 13, 57, 90
15, 100559, Note_on_c, 13, 57, 0
15, 100560, Note_on_c, 13, 62, 90
15, 100619, Note_on_c, 13, 62, 0
15, 100620, Note_on_c, 13, 55, 90
15, 100679, Note_on_c, 13, 55, 0
15, 100680, Note_on_c, 13, 60, 90
15, 100739, Note_on_c, 13, 60, 0
15, 100740, Note_on_c, 13, 59, 90
15, 100799, Note_on_c, 13, 59, 0
15, 100800, Note_on_c, 13, 57, 90
15, 100859, Note_on_c, 13, 57, 0
15, 100860, Note_on_c, 13, 55, 90
15, 100919, Note_on_c, 13, 55, 0
15, 198615, Control_c, 13, 0, 20
15, 198615, Program_c, 13, 67
15, 198660, Note_on_c, 13, 50, 90
15, 198719, Note_on_c, 13, 50, 0
15, 198720, Note_on_c, 13, 55, 90
15, 198839, Note_on_c, 13, 55, 0
15, 198900, Note_on_c, 13, 55, 90
15, 198959, Note_on_c, 13, 55, 0
15, 198960, Note_on_c, 13, 59, 90
15, 199019, Note_on_c, 13, 59, 0
15, 199020, Note_on_c, 13, 55, 90
15, 199079, Note_on_c, 13, 55, 0
15, 199080, Note_on_c, 13, 62, 90
15, 199139, Note_on_c, 13, 62, 0
15, 199140, Note_on_c, 13, 50, 90
15, 199199, Note_on_c, 13, 50, 0
15, 199200, Note_on_c, 13, 52, 90
15, 199259, Note_on_c, 13, 52, 0
15, 199260, Note_on_c, 13, 52, 90
15, 199319, Note_on_c, 13, 52, 0
15, 199350, Note_on_c, 13, 52, 90
15, 199379, Note_on_c, 13, 52, 0
15, 199380, Note_on_c, 13, 56, 90
15, 199409, Note_on_c, 13, 56, 0
15, 199410, Note_on_c, 13, 57, 90
15, 199439, Note_on_c, 13, 57, 0
15, 199440, Note_on_c, 13, 59, 90
15, 199499, Note_on_c, 13, 59, 0
15, 199500, Note_on_c, 13, 52, 90
15, 199559, Note_on_c, 13, 52, 0
15, 199560, Note_on_c, 13, 62, 90
15, 199619, Note_on_c, 13, 62, 0
15, 199620, Note_on_c, 13, 60, 90
15, 199679, Note_on_c, 13, 60, 0
15, 199680, Note_on_c, 13, 60, 90
15, 199739, Note_on_c, 13, 60, 0
15, 199740, Note_on_c, 13, 60, 90
15, 199799, Note_on_c, 13, 60, 0
15, 199920, Note_on_c, 13, 64, 90
15, 199979, Note_on_c, 13, 64, 0
15, 199980, Note_on_c, 13, 57, 90
15, 200039, Note_on_c, 13, 57, 0
15, 200100, Note_on_c, 13, 52, 90
15, 200159, Note_on_c, 13, 52, 0
15, 200160, Note_on_c, 13, 57, 90
15, 200219, Note_on_c, 13, 57, 0
15, 200220, Note_on_c, 13, 57, 90
15, 200279, Note_on_c, 13, 57, 0
15, 200280, Note_on_c, 13, 59, 90
15, 200339, Note_on_c, 13, 59, 0
15, 200340, Note_on_c, 13, 60, 90
15, 200399, Note_on_c, 13, 60, 0
15, 200400, Note_on_c, 13, 54, 90
15, 200459, Note_on_c, 13, 54, 0
15, 200490, Note_on_c, 13, 57, 90
15, 200519, Note_on_c, 13, 57, 0
15, 200520, Note_on_c, 13, 59, 90
15, 200579, Note_on_c, 13, 59, 0
15, 200580, Note_on_c, 13, 60, 90
15, 200639, Note_on_c, 13, 60, 0
15, 200640, Note_on_c, 13, 62, 90
15, 200699, Note_on_c, 13, 62, 0
15, 200700, Note_on_c, 13, 55, 90
15, 200759, Note_on_c, 13, 55, 0
15, 200760, Note_on_c, 13, 60, 90
15, 200819, Note_on_c, 13, 60, 0
15, 200820, Note_on_c, 13, 59, 90
15, 200879, Note_on_c, 13, 59, 0
15, 200880, Note_on_c, 13, 57, 90
15, 200939, Note_on_c, 13, 57, 0
15, 200940, Note_on_c, 13, 55, 90
15, 200999, Note_on_c, 13, 55, 0
15, 200999, End_track
16, 0, Start_track
16, 0, MIDI_port, 0
16, 0, Title_t, "Sopranos"
16, 0, Program_c, 10, 52
16, 0, Control_c, 10, 7, 127
16, 0, Control_c, 10, 10, 84
16, 50520, Note_on_c, 10, 67, 90
16, 50639, Note_on_c, 10, 67, 0
16, 50640, Note_on_c, 10, 67, 90
16, 50759, Note_on_c, 10, 67, 0
16, 50760, Note_on_c, 10, 69, 90
16, 50879, Note_on_c, 10, 69, 0
16, 50880, Note_on_c, 10, 71, 90
16, 50939, Note_on_c, 10, 71, 0
16, 50940, Note_on_c, 10, 73, 90
16, 50999, Note_on_c, 10, 73, 0
16, 51000, Note_on_c, 10, 74, 90
16, 51119, Note_on_c, 10, 74, 0
16, 51120, Note_on_c, 10, 74, 90
16, 51239, Note_on_c, 10, 74, 0
16, 51240, Note_on_c, 10, 73, 90
16, 51359, Note_on_c, 10, 73, 0
16, 51360, Note_on_c, 10, 74, 90
16, 51449, Note_on_c, 10, 74, 0
16, 51480, Note_on_c, 10, 71, 90
16, 51599, Note_on_c, 10, 71, 0
16, 51600, Note_on_c, 10, 72, 90
16, 51719, Note_on_c, 10, 72, 0
16, 51720, Note_on_c, 10, 71, 90
16, 51839, Note_on_c, 10, 71, 0
16, 51840, Note_on_c, 10, 69, 90
16, 51959, Note_on_c, 10, 69, 0
16, 51960, Note_on_c, 10, 71, 90
16, 52079, Note_on_c, 10, 71, 0
16, 52080, Note_on_c, 10, 69, 90
16, 52319, Note_on_c, 10, 69, 0
16, 52320, Note_on_c, 10, 67, 90
16, 52409, Note_on_c, 10, 67, 0
16, 52440, Note_on_c, 10, 67, 90
16, 52559, Note_on_c, 10, 67, 0
16, 52560, Note_on_c, 10, 67, 90
16, 52679, Note_on_c, 10, 67, 0
16, 52680, Note_on_c, 10, 69, 90
16, 52799, Note_on_c, 10, 69, 0
16, 52800, Note_on_c, 10, 71, 90
16, 52859, Note_on_c, 10, 71, 0
16, 52860, Note_on_c, 10, 73, 90
16, 52919, Note_on_c, 10, 73, 0
16, 52920, Note_on_c, 10, 74, 90
16, 53039, Note_on_c, 10, 74, 0
16, 53040, Note_on_c, 10, 74, 90
16, 53159, Note_on_c, 10, 74, 0
16, 53160, Note_on_c, 10, 73, 90
16, 53279, Note_on_c, 10, 73, 0
16, 53280, Note_on_c, 10, 74, 90
16, 53369, Note_on_c, 10, 74, 0
16, 53400, Note_on_c, 10, 71, 90
16, 53519, Note_on_c, 10, 71, 0
16, 53520, Note_on_c, 10, 72, 90
16, 53639, Note_on_c, 10, 72, 0
16, 53640, Note_on_c, 10, 71, 90
16, 53759, Note_on_c, 10, 71, 0
16, 53760, Note_on_c, 10, 69, 90
16, 53879, Note_on_c, 10, 69, 0
16, 53880, Note_on_c, 10, 71, 90
16, 53999, Note_on_c, 10, 71, 0
16, 54000, Note_on_c, 10, 69, 90
16, 54239, Note_on_c, 10, 69, 0
16, 54240, Note_on_c, 10, 67, 90
16, 54329, Note_on_c, 10, 67, 0
16, 54360, Note_on_c, 10, 69, 90
16, 54479, Note_on_c, 10, 69, 0
16, 54480, Note_on_c, 10, 69, 90
16, 54599, Note_on_c, 10, 69, 0
16, 54600, Note_on_c, 10, 71, 90
16, 54719, Note_on_c, 10, 71, 0
16, 54720, Note_on_c, 10, 72, 90
16, 54839, Note_on_c, 10, 72, 0
16, 54840, Note_on_c, 10, 72, 90
16, 54959, Note_on_c, 10, 72, 0
16, 54960, Note_on_c, 10, 71, 90
16, 55019, Note_on_c, 10, 71, 0
16, 55020, Note_on_c, 10, 69, 90
16, 55079, Note_on_c, 10, 69, 0
16, 55080, Note_on_c, 10, 71, 90
16, 55199, Note_on_c, 10, 71, 0
16, 55200, Note_on_c, 10, 69, 90
16, 55289, Note_on_c, 10, 69, 0
16, 55320, Note_on_c, 10, 71, 90
16, 55439, Note_on_c, 10, 71, 0
16, 55440, Note_on_c, 10, 71, 90
16, 55559, Note_on_c, 10, 71, 0
16, 55560, Note_on_c, 10, 71, 90
16, 55679, Note_on_c, 10, 71, 0
16, 55680, Note_on_c, 10, 72, 90
16, 55739, Note_on_c, 10, 72, 0
16, 55740, Note_on_c, 10, 74, 90
16, 55799, Note_on_c, 10, 74, 0
16, 55800, Note_on_c, 10, 76, 90
16, 55919, Note_on_c, 10, 76, 0
16, 55920, Note_on_c, 10, 76, 90
16, 56039, Note_on_c, 10, 76, 0
16, 56040, Note_on_c, 10, 75, 90
16, 56159, Note_on_c, 10, 75, 0
16, 56160, Note_on_c, 10, 76, 90
16, 56249, Note_on_c, 10, 76, 0
16, 56280, Note_on_c, 10, 78, 90
16, 56399, Note_on_c, 10, 78, 0
16, 56400, Note_on_c, 10, 79, 90
16, 56519, Note_on_c, 10, 79, 0
16, 56520, Note_on_c, 10, 71, 90
16, 56639, Note_on_c, 10, 71, 0
16, 56640, Note_on_c, 10, 72, 90
16, 56759, Note_on_c, 10, 72, 0
16, 56760, Note_on_c, 10, 71, 90
16, 56879, Note_on_c, 10, 71, 0
16, 56880, Note_on_c, 10, 69, 90
16, 57119, Note_on_c, 10, 69, 0
16, 57120, Note_on_c, 10, 69, 90
16, 57209, Note_on_c, 10, 69, 0
16, 57240, Note_on_c, 10, 74, 90
16, 57359, Note_on_c, 10, 74, 0
16, 57360, Note_on_c, 10, 76, 90
16, 57479, Note_on_c, 10, 76, 0
16, 57480, Note_on_c, 10, 74, 90
16, 57599, Note_on_c, 10, 74, 0
16, 57600, Note_on_c, 10, 72, 90
16, 57719, Note_on_c, 10, 72, 0
16, 57720, Note_on_c, 10, 71, 90
16, 57779, Note_on_c, 10, 71, 0
16, 57780, Note_on_c, 10, 72, 90
16, 57839, Note_on_c, 10, 72, 0
16, 57840, Note_on_c, 10, 69, 90
16, 58079, Note_on_c, 10, 69, 0
16, 58080, Note_on_c, 10, 67, 90
16, 58199, Note_on_c, 10, 67, 0
16, 92910, Control_c, 10, 0, 0
16, 92910, Program_c, 10, 52
16, 93000, Note_on_c, 10, 72, 90
16, 93119, Note_on_c, 10, 72, 0
16, 93120, Note_on_c, 10, 71, 90
16, 93239, Note_on_c, 10, 71, 0
16, 93240, Note_on_c, 10, 69, 90
16, 93359, Note_on_c, 10, 69, 0
16, 93360, Note_on_c, 10, 71, 90
16, 93419, Note_on_c, 10, 71, 0
16, 93420, Note_on_c, 10, 69, 90
16, 93479, Note_on_c, 10, 69, 0
16, 93480, Note_on_c, 10, 67, 90
16, 93599, Note_on_c, 10, 67, 0
16, 93600, Note_on_c, 10, 69, 90
16, 93719, Note_on_c, 10, 69, 0
16, 93720, Note_on_c, 10, 71, 90
16, 93839, Note_on_c, 10, 71, 0
16, 93840, Note_on_c, 10, 72, 90
16, 93929, Note_on_c, 10, 72, 0
16, 93960, Note_on_c, 10, 72, 90
16, 94079, Note_on_c, 10, 72, 0
16, 94080, Note_on_c, 10, 72, 90
16, 94199, Note_on_c, 10, 72, 0
16, 94200, Note_on_c, 10, 67, 90
16, 94319, Note_on_c, 10, 67, 0
16, 94320, Note_on_c, 10, 67, 90
16, 94379, Note_on_c, 10, 67, 0
16, 94380, Note_on_c, 10, 65, 90
16, 94439, Note_on_c, 10, 65, 0
16, 94440, Note_on_c, 10, 64, 90
16, 94499, Note_on_c, 10, 64, 0
16, 94500, Note_on_c, 10, 65, 90
16, 94559, Note_on_c, 10, 65, 0
16, 94560, Note_on_c, 10, 67, 90
16, 94679, Note_on_c, 10, 67, 0
16, 94680, Note_on_c, 10, 65, 90
16, 94799, Note_on_c, 10, 65, 0
16, 94800, Note_on_c, 10, 64, 90
16, 94889, Note_on_c, 10, 64, 0
16, 94920, Note_on_c, 10, 64, 90
16, 95039, Note_on_c, 10, 64, 0
16, 95040, Note_on_c, 10, 69, 90
16, 95159, Note_on_c, 10, 69, 0
16, 95160, Note_on_c, 10, 69, 90
16, 95279, Note_on_c, 10, 69, 0
16, 95280, Note_on_c, 10, 67, 90
16, 95339, Note_on_c, 10, 67, 0
16, 95340, Note_on_c, 10, 69, 90
16, 95399, Note_on_c, 10, 69, 0
16, 95400, Note_on_c, 10, 71, 90
16, 95519, Note_on_c, 10, 71, 0
16, 95520, Note_on_c, 10, 72, 90
16, 95579, Note_on_c, 10, 72, 0
16, 95580, Note_on_c, 10, 71, 90
16, 95639, Note_on_c, 10, 71, 0
16, 95640, Note_on_c, 10, 69, 90
16, 95759, Note_on_c, 10, 69, 0
16, 95760, Note_on_c, 10, 67, 90
16, 95849, Note_on_c, 10, 67, 0
16, 95880, Note_on_c, 10, 72, 90
16, 95999, Note_on_c, 10, 72, 0
16, 96000, Note_on_c, 10, 71, 90
16, 96119, Note_on_c, 10, 71, 0
16, 96120, Note_on_c, 10, 69, 90
16, 96239, Note_on_c, 10, 69, 0
16, 96240, Note_on_c, 10, 67, 90
16, 96359, Note_on_c, 10, 67, 0
16, 96360, Note_on_c, 10, 69, 90
16, 96419, Note_on_c, 10, 69, 0
16, 96420, Note_on_c, 10, 67, 90
16, 96479, Note_on_c, 10, 67, 0
16, 96480, Note_on_c, 10, 65, 90
16, 96539, Note_on_c, 10, 65, 0
16, 96540, Note_on_c, 10, 64, 90
16, 96599, Note_on_c, 10, 64, 0
16, 96600, Note_on_c, 10, 62, 90
16, 96719, Note_on_c, 10, 62, 0
16, 96720, Note_on_c, 10, 60, 90
16, 96839, Note_on_c, 10, 60, 0
16, 167280, Note_on_c, 10, 74, 90
16, 167399, Note_on_c, 10, 74, 0
16, 167400, Note_on_c, 10, 79, 90
16, 167639, Note_on_c, 10, 79, 0
16, 167640, Note_on_c, 10, 78, 90
16, 167699, Note_on_c, 10, 78, 0
16, 167700, Note_on_c, 10, 76, 90
16, 167759, Note_on_c, 10, 76, 0
16, 167760, Note_on_c, 10, 74, 90
16, 167879, Note_on_c, 10, 74, 0
16, 167880, Note_on_c, 10, 74, 90
16, 168119, Note_on_c, 10, 74, 0
16, 168120, Note_on_c, 10, 72, 90
16, 168179, Note_on_c, 10, 72, 0
16, 168180, Note_on_c, 10, 71, 90
16, 168239, Note_on_c, 10, 71, 0
16, 168240, Note_on_c, 10, 69, 90
16, 168359, Note_on_c, 10, 69, 0
16, 168360, Note_on_c, 10, 78, 90
16, 168599, Note_on_c, 10, 78, 0
16, 168600, Note_on_c, 10, 76, 90
16, 168659, Note_on_c, 10, 76, 0
16, 168660, Note_on_c, 10, 74, 90
16, 168719, Note_on_c, 10, 74, 0
16, 168720, Note_on_c, 10, 74, 90
16, 168779, Note_on_c, 10, 74, 0
16, 168780, Note_on_c, 10, 76, 90
16, 168839, Note_on_c, 10, 76, 0
16, 168840, Note_on_c, 10, 78, 90
16, 168869, Note_on_c, 10, 78, 0
16, 168870, Note_on_c, 10, 79, 90
16, 168899, Note_on_c, 10, 79, 0
16, 168900, Note_on_c, 10, 81, 90
16, 169019, Note_on_c, 10, 81, 0
16, 169020, Note_on_c, 10, 79, 90
16, 169139, Note_on_c, 10, 79, 0
16, 169140, Note_on_c, 10, 78, 90
16, 169199, Note_on_c, 10, 78, 0
16, 169200, Note_on_c, 10, 76, 90
16, 169259, Note_on_c, 10, 76, 0
16, 169260, Note_on_c, 10, 74, 90
16, 169289, Note_on_c, 10, 74, 0
16, 169290, Note_on_c, 10, 73, 90
16, 169319, Note_on_c, 10, 73, 0
16, 169320, Note_on_c, 10, 74, 90
16, 169499, Note_on_c, 10, 74, 0
16, 169500, Note_on_c, 10, 74, 90
16, 169529, Note_on_c, 10, 74, 0
16, 169530, Note_on_c, 10, 73, 90
16, 169559, Note_on_c, 10, 73, 0
16, 169560, Note_on_c, 10, 74, 90
16, 169619, Note_on_c, 10, 74, 0
16, 169620, Note_on_c, 10, 74, 90
16, 169649, Note_on_c, 10, 74, 0
16, 169650, Note_on_c, 10, 76, 90
16, 169679, Note_on_c, 10, 76, 0
16, 169680, Note_on_c, 10, 78, 90
16, 169859, Note_on_c, 10, 78, 0
16, 169860, Note_on_c, 10, 76, 90
16, 169889, Note_on_c, 10, 76, 0
16, 169890, Note_on_c, 10, 78, 90
16, 169919, Note_on_c, 10, 78, 0
16, 169920, Note_on_c, 10, 79, 90
16, 170039, Note_on_c, 10, 79, 0
16, 170040, Note_on_c, 10, 78, 90
16, 170099, Note_on_c, 10, 78, 0
16, 170100, Note_on_c, 10, 78, 90
16, 170159, Note_on_c, 10, 78, 0
16, 170160, Note_on_c, 10, 78, 90
16, 170279, Note_on_c, 10, 78, 0
16, 170280, Note_on_c, 10, 76, 90
16, 170339, Note_on_c, 10, 76, 0
16, 170340, Note_on_c, 10, 76, 90
16, 170399, Note_on_c, 10, 76, 0
16, 170400, Note_on_c, 10, 76, 90
16, 170519, Note_on_c, 10, 76, 0
16, 170520, Note_on_c, 10, 74, 90
16, 170700, Note_on_c, 10, 74, 0
16, 170700, Note_on_c, 10, 74, 90
16, 170759, Note_on_c, 10, 74, 0
16, 170760, Note_on_c, 10, 73, 90
16, 170819, Note_on_c, 10, 73, 0
16, 170820, Note_on_c, 10, 73, 90
16, 170879, Note_on_c, 10, 73, 0
16, 170880, Note_on_c, 10, 74, 90
16, 170969, Note_on_c, 10, 74, 0
16, 170970, Note_on_c, 10, 76, 90
16, 170999, Note_on_c, 10, 76, 0
16, 171000, Note_on_c, 10, 73, 90
16, 171119, Note_on_c, 10, 73, 0
16, 171120, Note_on_c, 10, 74, 90
16, 171239, Note_on_c, 10, 74, 0
16, 172080, Note_on_c, 10, 71, 90
16, 172199, Note_on_c, 10, 71, 0
16, 172200, Note_on_c, 10, 76, 90
16, 172439, Note_on_c, 10, 76, 0
16, 172440, Note_on_c, 10, 74, 90
16, 172499, Note_on_c, 10, 74, 0
16, 172500, Note_on_c, 10, 72, 90
16, 172559, Note_on_c, 10, 72, 0
16, 172560, Note_on_c, 10, 71, 90
16, 172679, Note_on_c, 10, 71, 0
16, 172740, Note_on_c, 10, 76, 90
16, 172799, Note_on_c, 10, 76, 0
16, 172800, Note_on_c, 10, 72, 90
16, 172919, Note_on_c, 10, 72, 0
16, 172920, Note_on_c, 10, 72, 90
16, 172979, Note_on_c, 10, 72, 0
16, 172980, Note_on_c, 10, 72, 90
16, 173039, Note_on_c, 10, 72, 0
16, 173040, Note_on_c, 10, 71, 90
16, 173219, Note_on_c, 10, 71, 0
16, 173220, Note_on_c, 10, 69, 90
16, 173249, Note_on_c, 10, 69, 0
16, 173250, Note_on_c, 10, 67, 90
16, 173279, Note_on_c, 10, 67, 0
16, 173280, Note_on_c, 10, 72, 90
16, 173339, Note_on_c, 10, 72, 0
16, 173340, Note_on_c, 10, 71, 90
16, 173369, Note_on_c, 10, 71, 0
16, 173370, Note_on_c, 10, 69, 90
16, 173399, Note_on_c, 10, 69, 0
16, 173400, Note_on_c, 10, 71, 90
16, 173519, Note_on_c, 10, 71, 0
16, 173520, Note_on_c, 10, 71, 90
16, 173639, Note_on_c, 10, 71, 0
16, 173880, Note_on_c, 10, 71, 90
16, 173999, Note_on_c, 10, 71, 0
16, 174000, Note_on_c, 10, 76, 90
16, 174119, Note_on_c, 10, 76, 0
16, 174120, Note_on_c, 10, 78, 90
16, 174179, Note_on_c, 10, 78, 0
16, 174180, Note_on_c, 10, 71, 90
16, 174239, Note_on_c, 10, 71, 0
16, 174240, Note_on_c, 10, 79, 90
16, 174359, Note_on_c, 10, 79, 0
16, 174360, Note_on_c, 10, 81, 90
16, 174419, Note_on_c, 10, 81, 0
16, 174420, Note_on_c, 10, 79, 90
16, 174479, Note_on_c, 10, 79, 0
16, 174480, Note_on_c, 10, 78, 90
16, 174780, Note_on_c, 10, 78, 0
16, 174780, Note_on_c, 10, 79, 90
16, 174809, Note_on_c, 10, 79, 0
16, 174810, Note_on_c, 10, 81, 90
16, 174839, Note_on_c, 10, 81, 0
16, 174840, Note_on_c, 10, 78, 90
16, 174959, Note_on_c, 10, 78, 0
16, 174960, Note_on_c, 10, 76, 90
16, 175079, Note_on_c, 10, 76, 0
16, 175200, Note_on_c, 10, 69, 90
16, 175319, Note_on_c, 10, 69, 0
16, 175320, Note_on_c, 10, 74, 90
16, 175499, Note_on_c, 10, 74, 0
16, 175500, Note_on_c, 10, 72, 90
16, 175559, Note_on_c, 10, 72, 0
16, 175560, Note_on_c, 10, 74, 90
16, 175619, Note_on_c, 10, 74, 0
16, 175620, Note_on_c, 10, 71, 90
16, 175679, Note_on_c, 10, 71, 0
16, 175680, Note_on_c, 10, 72, 90
16, 175799, Note_on_c, 10, 72, 0
16, 175920, Note_on_c, 10, 69, 90
16, 176039, Note_on_c, 10, 69, 0
16, 176040, Note_on_c, 10, 74, 90
16, 176279, Note_on_c, 10, 74, 0
16, 176280, Note_on_c, 10, 72, 90
16, 176339, Note_on_c, 10, 72, 0
16, 176340, Note_on_c, 10, 71, 90
16, 176399, Note_on_c, 10, 71, 0
16, 176400, Note_on_c, 10, 69, 90
16, 176579, Note_on_c, 10, 69, 0
16, 176580, Note_on_c, 10, 71, 90
16, 176609, Note_on_c, 10, 71, 0
16, 176610, Note_on_c, 10, 72, 90
16, 176639, Note_on_c, 10, 72, 0
16, 176640, Note_on_c, 10, 71, 90
16, 176699, Note_on_c, 10, 71, 0
16, 176700, Note_on_c, 10, 73, 90
16, 176729, Note_on_c, 10, 73, 0
16, 176730, Note_on_c, 10, 74, 90
16, 176759, Note_on_c, 10, 74, 0
16, 176760, Note_on_c, 10, 73, 90
16, 176819, Note_on_c, 10, 73, 0
16, 176820, Note_on_c, 10, 71, 90
16, 176879, Note_on_c, 10, 71, 0
16, 176880, Note_on_c, 10, 70, 90
16, 176939, Note_on_c, 10, 70, 0
16, 176940, Note_on_c, 10, 78, 90
16, 177059, Note_on_c, 10, 78, 0
16, 177060, Note_on_c, 10, 71, 90
16, 177119, Note_on_c, 10, 71, 0
16, 177120, Note_on_c, 10, 73, 90
16, 177420, Note_on_c, 10, 73, 0
16, 177420, Note_on_c, 10, 71, 90
16, 177449, Note_on_c, 10, 71, 0
16, 177450, Note_on_c, 10, 70, 90
16, 177479, Note_on_c, 10, 70, 0
16, 177480, Note_on_c, 10, 71, 90
16, 177539, Note_on_c, 10, 71, 0
16, 177540, Note_on_c, 10, 79, 90
16, 177599, Note_on_c, 10, 79, 0
16, 177600, Note_on_c, 10, 78, 90
16, 177779, Note_on_c, 10, 78, 0
16, 177780, Note_on_c, 10, 79, 90
16, 177809, Note_on_c, 10, 79, 0
16, 177810, Note_on_c, 10, 78, 90
16, 177839, Note_on_c, 10, 78, 0
16, 177840, Note_on_c, 10, 76, 90
16, 178019, Note_on_c, 10, 76, 0
16, 178020, Note_on_c, 10, 78, 90
16, 178049, Note_on_c, 10, 78, 0
16, 178050, Note_on_c, 10, 76, 90
16, 178079, Note_on_c, 10, 76, 0
16, 178080, Note_on_c, 10, 74, 90
16, 178259, Note_on_c, 10, 74, 0
16, 178260, Note_on_c, 10, 76, 90
16, 178289, Note_on_c, 10, 76, 0
16, 178290, Note_on_c, 10, 74, 90
16, 178319, Note_on_c, 10, 74, 0
16, 178320, Note_on_c, 10, 73, 90
16, 178499, Note_on_c, 10, 73, 0
16, 178500, Note_on_c, 10, 74, 90
16, 178559, Note_on_c, 10, 74, 0
16, 178560, Note_on_c, 10, 76, 90
16, 178619, Note_on_c, 10, 76, 0
16, 178620, Note_on_c, 10, 74, 90
16, 178649, Note_on_c, 10, 74, 0
16, 178650, Note_on_c, 10, 73, 90
16, 178679, Note_on_c, 10, 73, 0
16, 178680, Note_on_c, 10, 73, 90
16, 178799, Note_on_c, 10, 73, 0
16, 178800, Note_on_c, 10, 71, 90
16, 178919, Note_on_c, 10, 71, 0
16, 178980, Note_on_c, 10, 67, 90
16, 179039, Note_on_c, 10, 67, 0
16, 179040, Note_on_c, 10, 72, 90
16, 179279, Note_on_c, 10, 72, 0
16, 179280, Note_on_c, 10, 71, 90
16, 179519, Note_on_c, 10, 71, 0
16, 179520, Note_on_c, 10, 69, 90
16, 179579, Note_on_c, 10, 69, 0
16, 179580, Note_on_c, 10, 67, 90
16, 179639, Note_on_c, 10, 67, 0
16, 179640, Note_on_c, 10, 69, 90
16, 179699, Note_on_c, 10, 69, 0
16, 179700, Note_on_c, 10, 71, 90
16, 179759, Note_on_c, 10, 71, 0
16, 179760, Note_on_c, 10, 67, 90
16, 179819, Note_on_c, 10, 67, 0
16, 179820, Note_on_c, 10, 66, 90
16, 179879, Note_on_c, 10, 66, 0
16, 179880, Note_on_c, 10, 64, 90
16, 179939, Note_on_c, 10, 64, 0
16, 179940, Note_on_c, 10, 68, 90
16, 179999, Note_on_c, 10, 68, 0
16, 180000, Note_on_c, 10, 69, 90
16, 180119, Note_on_c, 10, 69, 0
16, 180120, Note_on_c, 10, 71, 90
16, 180179, Note_on_c, 10, 71, 0
16, 180180, Note_on_c, 10, 69, 90
16, 180239, Note_on_c, 10, 69, 0
16, 180240, Note_on_c, 10, 68, 90
16, 180359, Note_on_c, 10, 68, 0
16, 180360, Note_on_c, 10, 69, 90
16, 180599, Note_on_c, 10, 69, 0
16, 180600, Note_on_c, 10, 68, 90
16, 180659, Note_on_c, 10, 68, 0
16, 180660, Note_on_c, 10, 68, 90
16, 180719, Note_on_c, 10, 68, 0
16, 180720, Note_on_c, 10, 69, 90
16, 180779, Note_on_c, 10, 69, 0
16, 180780, Note_on_c, 10, 64, 90
16, 180839, Note_on_c, 10, 64, 0
16, 180840, Note_on_c, 10, 69, 90
16, 181079, Note_on_c, 10, 69, 0
16, 181080, Note_on_c, 10, 67, 90
16, 181319, Note_on_c, 10, 67, 0
16, 181320, Note_on_c, 10, 66, 90
16, 181439, Note_on_c, 10, 66, 0
16, 181440, Note_on_c, 10, 64, 90
16, 181499, Note_on_c, 10, 64, 0
16, 181500, Note_on_c, 10, 69, 90
16, 181559, Note_on_c, 10, 69, 0
16, 181560, Note_on_c, 10, 69, 90
16, 181619, Note_on_c, 10, 69, 0
16, 181620, Note_on_c, 10, 69, 90
16, 181679, Note_on_c, 10, 69, 0
16, 181680, Note_on_c, 10, 66, 90
16, 181739, Note_on_c, 10, 66, 0
16, 181740, Note_on_c, 10, 62, 90
16, 181799, Note_on_c, 10, 62, 0
16, 181800, Note_on_c, 10, 74, 90
16, 181859, Note_on_c, 10, 74, 0
16, 181860, Note_on_c, 10, 72, 90
16, 181919, Note_on_c, 10, 72, 0
16, 181920, Note_on_c, 10, 71, 90
16, 181979, Note_on_c, 10, 71, 0
16, 181980, Note_on_c, 10, 72, 90
16, 182039, Note_on_c, 10, 72, 0
16, 182040, Note_on_c, 10, 74, 90
16, 182099, Note_on_c, 10, 74, 0
16, 182100, Note_on_c, 10, 71, 90
16, 182159, Note_on_c, 10, 71, 0
16, 182160, Note_on_c, 10, 76, 90
16, 182219, Note_on_c, 10, 76, 0
16, 182220, Note_on_c, 10, 74, 90
16, 182249, Note_on_c, 10, 74, 0
16, 182250, Note_on_c, 10, 72, 90
16, 182279, Note_on_c, 10, 72, 0
16, 182280, Note_on_c, 10, 71, 90
16, 182339, Note_on_c, 10, 71, 0
16, 182340, Note_on_c, 10, 76, 90
16, 182399, Note_on_c, 10, 76, 0
16, 182400, Note_on_c, 10, 72, 90
16, 182429, Note_on_c, 10, 72, 0
16, 182430, Note_on_c, 10, 71, 90
16, 182459, Note_on_c, 10, 71, 0
16, 182460, Note_on_c, 10, 72, 90
16, 182489, Note_on_c, 10, 72, 0
16, 182490, Note_on_c, 10, 74, 90
16, 182519, Note_on_c, 10, 74, 0
16, 182520, Note_on_c, 10, 76, 90
16, 182549, Note_on_c, 10, 76, 0
16, 182550, Note_on_c, 10, 74, 90
16, 182579, Note_on_c, 10, 74, 0
16, 182580, Note_on_c, 10, 72, 90
16, 182609, Note_on_c, 10, 72, 0
16, 182610, Note_on_c, 10, 71, 90
16, 182639, Note_on_c, 10, 71, 0
16, 182640, Note_on_c, 10, 69, 90
16, 182699, Note_on_c, 10, 69, 0
16, 182700, Note_on_c, 10, 69, 90
16, 182759, Note_on_c, 10, 69, 0
16, 182820, Note_on_c, 10, 78, 90
16, 182879, Note_on_c, 10, 78, 0
16, 182880, Note_on_c, 10, 79, 90
16, 182939, Note_on_c, 10, 79, 0
16, 182940, Note_on_c, 10, 78, 90
16, 182969, Note_on_c, 10, 78, 0
16, 182970, Note_on_c, 10, 76, 90
16, 182999, Note_on_c, 10, 76, 0
16, 183000, Note_on_c, 10, 74, 90
16, 183059, Note_on_c, 10, 74, 0
16, 183060, Note_on_c, 10, 74, 90
16, 183119, Note_on_c, 10, 74, 0
16, 183120, Note_on_c, 10, 74, 90
16, 183149, Note_on_c, 10, 74, 0
16, 183150, Note_on_c, 10, 73, 90
16, 183179, Note_on_c, 10, 73, 0
16, 183180, Note_on_c, 10, 74, 90
16, 183209, Note_on_c, 10, 74, 0
16, 183210, Note_on_c, 10, 76, 90
16, 183239, Note_on_c, 10, 76, 0
16, 183240, Note_on_c, 10, 74, 90
16, 183269, Note_on_c, 10, 74, 0
16, 183270, Note_on_c, 10, 79, 90
16, 183299, Note_on_c, 10, 79, 0
16, 183300, Note_on_c, 10, 78, 90
16, 183329, Note_on_c, 10, 78, 0
16, 183330, Note_on_c, 10, 79, 90
16, 183359, Note_on_c, 10, 79, 0
16, 183360, Note_on_c, 10, 76, 90
16, 183599, Note_on_c, 10, 76, 0
16, 183600, Note_on_c, 10, 74, 90
16, 183719, Note_on_c, 10, 74, 0
16, 184920, Note_on_c, 10, 78, 90
16, 184979, Note_on_c, 10, 78, 0
16, 184980, Note_on_c, 10, 76, 90
16, 185039, Note_on_c, 10, 76, 0
16, 185040, Note_on_c, 10, 74, 90
16, 185099, Note_on_c, 10, 74, 0
16, 185100, Note_on_c, 10, 76, 90
16, 185159, Note_on_c, 10, 76, 0
16, 185160, Note_on_c, 10, 78, 90
16, 185219, Note_on_c, 10, 78, 0
16, 185220, Note_on_c, 10, 74, 90
16, 185279, Note_on_c, 10, 74, 0
16, 185280, Note_on_c, 10, 79, 90
16, 185339, Note_on_c, 10, 79, 0
16, 185340, Note_on_c, 10, 78, 90
16, 185369, Note_on_c, 10, 78, 0
16, 185370, Note_on_c, 10, 76, 90
16, 185399, Note_on_c, 10, 76, 0
16, 185400, Note_on_c, 10, 74, 90
16, 185459, Note_on_c, 10, 74, 0
16, 185460, Note_on_c, 10, 79, 90
16, 185519, Note_on_c, 10, 79, 0
16, 185520, Note_on_c, 10, 76, 90
16, 185549, Note_on_c, 10, 76, 0
16, 185550, Note_on_c, 10, 74, 90
16, 185579, Note_on_c, 10, 74, 0
16, 185580, Note_on_c, 10, 76, 90
16, 185609, Note_on_c, 10, 76, 0
16, 185610, Note_on_c, 10, 78, 90
16, 185639, Note_on_c, 10, 78, 0
16, 185640, Note_on_c, 10, 79, 90
16, 185669, Note_on_c, 10, 79, 0
16, 185670, Note_on_c, 10, 78, 90
16, 185699, Note_on_c, 10, 78, 0
16, 185700, Note_on_c, 10, 76, 90
16, 185729, Note_on_c, 10, 76, 0
16, 185730, Note_on_c, 10, 74, 90
16, 185759, Note_on_c, 10, 74, 0
16, 185760, Note_on_c, 10, 72, 90
16, 185789, Note_on_c, 10, 72, 0
16, 185790, Note_on_c, 10, 71, 90
16, 185819, Note_on_c, 10, 71, 0
16, 185820, Note_on_c, 10, 72, 90
16, 185849, Note_on_c, 10, 72, 0
16, 185850, Note_on_c, 10, 74, 90
16, 185879, Note_on_c, 10, 74, 0
16, 185880, Note_on_c, 10, 76, 90
16, 185909, Note_on_c, 10, 76, 0
16, 185910, Note_on_c, 10, 74, 90
16, 185939, Note_on_c, 10, 74, 0
16, 185940, Note_on_c, 10, 72, 90
16, 185969, Note_on_c, 10, 72, 0
16, 185970, Note_on_c, 10, 71, 90
16, 185999, Note_on_c, 10, 71, 0
16, 186000, Note_on_c, 10, 69, 90
16, 186029, Note_on_c, 10, 69, 0
16, 186030, Note_on_c, 10, 67, 90
16, 186059, Note_on_c, 10, 67, 0
16, 186060, Note_on_c, 10, 69, 90
16, 186089, Note_on_c, 10, 69, 0
16, 186090, Note_on_c, 10, 71, 90
16, 186119, Note_on_c, 10, 71, 0
16, 186120, Note_on_c, 10, 72, 90
16, 186149, Note_on_c, 10, 72, 0
16, 186150, Note_on_c, 10, 74, 90
16, 186179, Note_on_c, 10, 74, 0
16, 186180, Note_on_c, 10, 71, 90
16, 186209, Note_on_c, 10, 71, 0
16, 186210, Note_on_c, 10, 72, 90
16, 186239, Note_on_c, 10, 72, 0
16, 186240, Note_on_c, 10, 74, 90
16, 186269, Note_on_c, 10, 74, 0
16, 186270, Note_on_c, 10, 72, 90
16, 186299, Note_on_c, 10, 72, 0
16, 186300, Note_on_c, 10, 74, 90
16, 186329, Note_on_c, 10, 74, 0
16, 186330, Note_on_c, 10, 76, 90
16, 186359, Note_on_c, 10, 76, 0
16, 186360, Note_on_c, 10, 78, 90
16, 186389, Note_on_c, 10, 78, 0
16, 186390, Note_on_c, 10, 79, 90
16, 186419, Note_on_c, 10, 79, 0
16, 186420, Note_on_c, 10, 76, 90
16, 186449, Note_on_c, 10, 76, 0
16, 186450, Note_on_c, 10, 78, 90
16, 186479, Note_on_c, 10, 78, 0
16, 186480, Note_on_c, 10, 79, 90
16, 186509, Note_on_c, 10, 79, 0
16, 186510, Note_on_c, 10, 81, 90
16, 186539, Note_on_c, 10, 81, 0
16, 186540, Note_on_c, 10, 79, 90
16, 186569, Note_on_c, 10, 79, 0
16, 186570, Note_on_c, 10, 78, 90
16, 186599, Note_on_c, 10, 78, 0
16, 186600, Note_on_c, 10, 76, 90
16, 186750, Note_on_c, 10, 76, 0
16, 186750, Note_on_c, 10, 77, 90
16, 186779, Note_on_c, 10, 77, 0
16, 186780, Note_on_c, 10, 76, 90
16, 186809, Note_on_c, 10, 76, 0
16, 186810, Note_on_c, 10, 74, 90
16, 186839, Note_on_c, 10, 74, 0
16, 186840, Note_on_c, 10, 72, 90
16, 186990, Note_on_c, 10, 72, 0
16, 186990, Note_on_c, 10, 74, 90
16, 187019, Note_on_c, 10, 74, 0
16, 187020, Note_on_c, 10, 72, 90
16, 187049, Note_on_c, 10, 72, 0
16, 187050, Note_on_c, 10, 71, 90
16, 187079, Note_on_c, 10, 71, 0
16, 187080, Note_on_c, 10, 69, 90
16, 187230, Note_on_c, 10, 69, 0
16, 187230, Note_on_c, 10, 67, 90
16, 187259, Note_on_c, 10, 67, 0
16, 187260, Note_on_c, 10, 69, 90
16, 187289, Note_on_c, 10, 69, 0
16, 187290, Note_on_c, 10, 71, 90
16, 187319, Note_on_c, 10, 71, 0
16, 187320, Note_on_c, 10, 72, 90
16, 187349, Note_on_c, 10, 72, 0
16, 187350, Note_on_c, 10, 71, 90
16, 187379, Note_on_c, 10, 71, 0
16, 187380, Note_on_c, 10, 69, 90
16, 187409, Note_on_c, 10, 69, 0
16, 187410, Note_on_c, 10, 67, 90
16, 187439, Note_on_c, 10, 67, 0
16, 187440, Note_on_c, 10, 66, 90
16, 187499, Note_on_c, 10, 66, 0
16, 187500, Note_on_c, 10, 62, 90
16, 187559, Note_on_c, 10, 62, 0
16, 187560, Note_on_c, 10, 74, 90
16, 187619, Note_on_c, 10, 74, 0
16, 187620, Note_on_c, 10, 72, 90
16, 187679, Note_on_c, 10, 72, 0
16, 187680, Note_on_c, 10, 71, 90
16, 187739, Note_on_c, 10, 71, 0
16, 187740, Note_on_c, 10, 72, 90
16, 187799, Note_on_c, 10, 72, 0
16, 187800, Note_on_c, 10, 74, 90
16, 187859, Note_on_c, 10, 74, 0
16, 187860, Note_on_c, 10, 71, 90
16, 187919, Note_on_c, 10, 71, 0
16, 187920, Note_on_c, 10, 76, 90
16, 187979, Note_on_c, 10, 76, 0
16, 187980, Note_on_c, 10, 74, 90
16, 188009, Note_on_c, 10, 74, 0
16, 188010, Note_on_c, 10, 72, 90
16, 188039, Note_on_c, 10, 72, 0
16, 188040, Note_on_c, 10, 71, 90
16, 188099, Note_on_c, 10, 71, 0
16, 188100, Note_on_c, 10, 76, 90
16, 188159, Note_on_c, 10, 76, 0
16, 188160, Note_on_c, 10, 72, 90
16, 188189, Note_on_c, 10, 72, 0
16, 188190, Note_on_c, 10, 71, 90
16, 188219, Note_on_c, 10, 71, 0
16, 188220, Note_on_c, 10, 72, 90
16, 188249, Note_on_c, 10, 72, 0
16, 188250, Note_on_c, 10, 74, 90
16, 188279, Note_on_c, 10, 74, 0
16, 188280, Note_on_c, 10, 76, 90
16, 188309, Note_on_c, 10, 76, 0
16, 188310, Note_on_c, 10, 74, 90
16, 188339, Note_on_c, 10, 74, 0
16, 188340, Note_on_c, 10, 72, 90
16, 188369, Note_on_c, 10, 72, 0
16, 188370, Note_on_c, 10, 71, 90
16, 188399, Note_on_c, 10, 71, 0
16, 188400, Note_on_c, 10, 69, 90
16, 188429, Note_on_c, 10, 69, 0
16, 188430, Note_on_c, 10, 67, 90
16, 188459, Note_on_c, 10, 67, 0
16, 188460, Note_on_c, 10, 69, 90
16, 188489, Note_on_c, 10, 69, 0
16, 188490, Note_on_c, 10, 71, 90
16, 188519, Note_on_c, 10, 71, 0
16, 188520, Note_on_c, 10, 72, 90
16, 188549, Note_on_c, 10, 72, 0
16, 188550, Note_on_c, 10, 71, 90
16, 188579, Note_on_c, 10, 71, 0
16, 188580, Note_on_c, 10, 69, 90
16, 188609, Note_on_c, 10, 69, 0
16, 188610, Note_on_c, 10, 67, 90
16, 188639, Note_on_c, 10, 67, 0
16, 188640, Note_on_c, 10, 66, 90
16, 188699, Note_on_c, 10, 66, 0
16, 188700, Note_on_c, 10, 66, 90
16, 188759, Note_on_c, 10, 66, 0
16, 189240, Note_on_c, 10, 76, 90
16, 189299, Note_on_c, 10, 76, 0
16, 189300, Note_on_c, 10, 74, 90
16, 189359, Note_on_c, 10, 74, 0
16, 189360, Note_on_c, 10, 72, 90
16, 189419, Note_on_c, 10, 72, 0
16, 189420, Note_on_c, 10, 74, 90
16, 189479, Note_on_c, 10, 74, 0
16, 189480, Note_on_c, 10, 76, 90
16, 189539, Note_on_c, 10, 76, 0
16, 189540, Note_on_c, 10, 72, 90
16, 189599, Note_on_c, 10, 72, 0
16, 189600, Note_on_c, 10, 77, 90
16, 189659, Note_on_c, 10, 77, 0
16, 189660, Note_on_c, 10, 76, 90
16, 189689, Note_on_c, 10, 76, 0
16, 189690, Note_on_c, 10, 74, 90
16, 189719, Note_on_c, 10, 74, 0
16, 189720, Note_on_c, 10, 72, 90
16, 189779, Note_on_c, 10, 72, 0
16, 189780, Note_on_c, 10, 77, 90
16, 189839, Note_on_c, 10, 77, 0
16, 189840, Note_on_c, 10, 74, 90
16, 189869, Note_on_c, 10, 74, 0
16, 189870, Note_on_c, 10, 72, 90
16, 189899, Note_on_c, 10, 72, 0
16, 189900, Note_on_c, 10, 74, 90
16, 189929, Note_on_c, 10, 74, 0
16, 189930, Note_on_c, 10, 76, 90
16, 189959, Note_on_c, 10, 76, 0
16, 189960, Note_on_c, 10, 77, 90
16, 189989, Note_on_c, 10, 77, 0
16, 189990, Note_on_c, 10, 76, 90
16, 190019, Note_on_c, 10, 76, 0
16, 190020, Note_on_c, 10, 74, 90
16, 190049, Note_on_c, 10, 74, 0
16, 190050, Note_on_c, 10, 72, 90
16, 190079, Note_on_c, 10, 72, 0
16, 190080, Note_on_c, 10, 71, 90
16, 190109, Note_on_c, 10, 71, 0
16, 190110, Note_on_c, 10, 69, 90
16, 190139, Note_on_c, 10, 69, 0
16, 190140, Note_on_c, 10, 71, 90
16, 190169, Note_on_c, 10, 71, 0
16, 190170, Note_on_c, 10, 72, 90
16, 190199, Note_on_c, 10, 72, 0
16, 190200, Note_on_c, 10, 74, 90
16, 190229, Note_on_c, 10, 74, 0
16, 190230, Note_on_c, 10, 76, 90
16, 190259, Note_on_c, 10, 76, 0
16, 190260, Note_on_c, 10, 77, 90
16, 190289, Note_on_c, 10, 77, 0
16, 190290, Note_on_c, 10, 74, 90
16, 190319, Note_on_c, 10, 74, 0
16, 190320, Note_on_c, 10, 76, 90
16, 190380, Note_on_c, 10, 76, 0
16, 190380, Note_on_c, 10, 72, 90
16, 190440, Note_on_c, 10, 72, 0
16, 190800, Note_on_c, 10, 71, 90
16, 190919, Note_on_c, 10, 71, 0
16, 190920, Note_on_c, 10, 76, 90
16, 191159, Note_on_c, 10, 76, 0
16, 191160, Note_on_c, 10, 74, 90
16, 191219, Note_on_c, 10, 74, 0
16, 191220, Note_on_c, 10, 72, 90
16, 191279, Note_on_c, 10, 72, 0
16, 191280, Note_on_c, 10, 71, 90
16, 191399, Note_on_c, 10, 71, 0
16, 191400, Note_on_c, 10, 79, 90
16, 191639, Note_on_c, 10, 79, 0
16, 191640, Note_on_c, 10, 78, 90
16, 191699, Note_on_c, 10, 78, 0
16, 191700, Note_on_c, 10, 76, 90
16, 191759, Note_on_c, 10, 76, 0
16, 191760, Note_on_c, 10, 74, 90
16, 191879, Note_on_c, 10, 74, 0
16, 191880, Note_on_c, 10, 74, 90
16, 192119, Note_on_c, 10, 74, 0
16, 192120, Note_on_c, 10, 72, 90
16, 192179, Note_on_c, 10, 72, 0
16, 192180, Note_on_c, 10, 71, 90
16, 192239, Note_on_c, 10, 71, 0
16, 192240, Note_on_c, 10, 69, 90
16, 192299, Note_on_c, 10, 69, 0
16, 192300, Note_on_c, 10, 74, 90
16, 192419, Note_on_c, 10, 74, 0
16, 192420, Note_on_c, 10, 72, 90
16, 192449, Note_on_c, 10, 72, 0
16, 192450, Note_on_c, 10, 71, 90
16, 192479, Note_on_c, 10, 71, 0
16, 192480, Note_on_c, 10, 76, 90
16, 192599, Note_on_c, 10, 76, 0
16, 192600, Note_on_c, 10, 74, 90
16, 192900, Note_on_c, 10, 74, 0
16, 192900, Note_on_c, 10, 72, 90
16, 192929, Note_on_c, 10, 72, 0
16, 192930, Note_on_c, 10, 71, 90
16, 192959, Note_on_c, 10, 71, 0
16, 192960, Note_on_c, 10, 69, 90
16, 193079, Note_on_c, 10, 69, 0
16, 193080, Note_on_c, 10, 67, 90
16, 193139, Note_on_c, 10, 67, 0
16, 193140, Note_on_c, 10, 67, 90
16, 193199, Note_on_c, 10, 67, 0
16, 193200, Note_on_c, 10, 72, 90
16, 193319, Note_on_c, 10, 72, 0
16, 193320, Note_on_c, 10, 72, 90
16, 193379, Note_on_c, 10, 72, 0
16, 193380, Note_on_c, 10, 74, 90
16, 193439, Note_on_c, 10, 74, 0
16, 193440, Note_on_c, 10, 71, 90
16, 193619, Note_on_c, 10, 71, 0
16, 193620, Note_on_c, 10, 72, 90
16, 193649, Note_on_c, 10, 72, 0
16, 193650, Note_on_c, 10, 74, 90
16, 193679, Note_on_c, 10, 74, 0
16, 193680, Note_on_c, 10, 76, 90
16, 193859, Note_on_c, 10, 76, 0
16, 193860, Note_on_c, 10, 74, 90
16, 193889, Note_on_c, 10, 74, 0
16, 193890, Note_on_c, 10, 72, 90
16, 193919, Note_on_c, 10, 72, 0
16, 193920, Note_on_c, 10, 71, 90
16, 193979, Note_on_c, 10, 71, 0
16, 193980, Note_on_c, 10, 79, 90
16, 194099, Note_on_c, 10, 79, 0
16, 194100, Note_on_c, 10, 78, 90
16, 194159, Note_on_c, 10, 78, 0
16, 194160, Note_on_c, 10, 79, 90
16, 194279, Note_on_c, 10, 79, 0
16, 194280, Note_on_c, 10, 77, 90
16, 194399, Note_on_c, 10, 77, 0
16, 194400, Note_on_c, 10, 76, 90
16, 194639, Note_on_c, 10, 76, 0
16, 194640, Note_on_c, 10, 74, 90
16, 194879, Note_on_c, 10, 74, 0
16, 194880, Note_on_c, 10, 72, 90
16, 195239, Note_on_c, 10, 72, 0
16, 195240, Note_on_c, 10, 71, 90
16, 195299, Note_on_c, 10, 71, 0
16, 195300, Note_on_c, 10, 74, 90
16, 195359, Note_on_c, 10, 74, 0
16, 195360, Note_on_c, 10, 67, 90
16, 195419, Note_on_c, 10, 67, 0
16, 195420, Note_on_c, 10, 66, 90
16, 195479, Note_on_c, 10, 66, 0
16, 195480, Note_on_c, 10, 67, 90
16, 195599, Note_on_c, 10, 67, 0
16, 195600, Note_on_c, 10, 74, 90
16, 195839, Note_on_c, 10, 74, 0
16, 195840, Note_on_c, 10, 76, 90
16, 195959, Note_on_c, 10, 76, 0
16, 195960, Note_on_c, 10, 78, 90
16, 196019, Note_on_c, 10, 78, 0
16, 196020, Note_on_c, 10, 78, 90
16, 196079, Note_on_c, 10, 78, 0
16, 196080, Note_on_c, 10, 79, 90
16, 196139, Note_on_c, 10, 79, 0
16, 196140, Note_on_c, 10, 67, 90
16, 196199, Note_on_c, 10, 67, 0
16, 196440, Note_on_c, 10, 76, 90
16, 196499, Note_on_c, 10, 76, 0
16, 196500, Note_on_c, 10, 74, 90
16, 196559, Note_on_c, 10, 74, 0
16, 196560, Note_on_c, 10, 72, 90
16, 196619, Note_on_c, 10, 72, 0
16, 196620, Note_on_c, 10, 74, 90
16, 196679, Note_on_c, 10, 74, 0
16, 196680, Note_on_c, 10, 76, 90
16, 196739, Note_on_c, 10, 76, 0
16, 196740, Note_on_c, 10, 72, 90
16, 196799, Note_on_c, 10, 72, 0
16, 196800, Note_on_c, 10, 74, 90
16, 196859, Note_on_c, 10, 74, 0
16, 196860, Note_on_c, 10, 72, 90
16, 196889, Note_on_c, 10, 72, 0
16, 196890, Note_on_c, 10, 71, 90
16, 196919, Note_on_c, 10, 71, 0
16, 196920, Note_on_c, 10, 69, 90
16, 196979, Note_on_c, 10, 69, 0
16, 196980, Note_on_c, 10, 74, 90
16, 197039, Note_on_c, 10, 74, 0
16, 197040, Note_on_c, 10, 71, 90
16, 197069, Note_on_c, 10, 71, 0
16, 197070, Note_on_c, 10, 69, 90
16, 197099, Note_on_c, 10, 69, 0
16, 197100, Note_on_c, 10, 71, 90
16, 197129, Note_on_c, 10, 71, 0
16, 197130, Note_on_c, 10, 72, 90
16, 197159, Note_on_c, 10, 72, 0
16, 197160, Note_on_c, 10, 74, 90
16, 197189, Note_on_c, 10, 74, 0
16, 197190, Note_on_c, 10, 72, 90
16, 197219, Note_on_c, 10, 72, 0
16, 197220, Note_on_c, 10, 71, 90
16, 197249, Note_on_c, 10, 71, 0
16, 197250, Note_on_c, 10, 69, 90
16, 197279, Note_on_c, 10, 69, 0
16, 197280, Note_on_c, 10, 67, 90
16, 197880, Note_on_c, 10, 67, 0
16, 197880, Note_on_c, 10, 66, 90
16, 198000, Note_on_c, 10, 66, 0
16, 198000, Note_on_c, 10, 67, 90
16, 198240, Note_on_c, 10, 67, 0
16, 201900, Note_on_c, 10, 79, 90
16, 202079, Note_on_c, 10, 79, 0
16, 202080, Note_on_c, 10, 78, 90
16, 202259, Note_on_c, 10, 78, 0
16, 202260, Note_on_c, 10, 76, 90
16, 202439, Note_on_c, 10, 76, 0
16, 202440, Note_on_c, 10, 78, 90
16, 202619, Note_on_c, 10, 78, 0
16, 202620, Note_on_c, 10, 74, 90
16, 202799, Note_on_c, 10, 74, 0
16, 202800, Note_on_c, 10, 76, 90
16, 202979, Note_on_c, 10, 76, 0
16, 202980, Note_on_c, 10, 78, 90
16, 203159, Note_on_c, 10, 78, 0
16, 203160, Note_on_c, 10, 79, 90
16, 203339, Note_on_c, 10, 79, 0
16, 204420, Note_on_c, 10, 79, 90
16, 204599, Note_on_c, 10, 79, 0
16, 204600, Note_on_c, 10, 79, 90
16, 204779, Note_on_c, 10, 79, 0
16, 204780, Note_on_c, 10, 74, 90
16, 204959, Note_on_c, 10, 74, 0
16, 204960, Note_on_c, 10, 74, 90
16, 205079, Note_on_c, 10, 74, 0
16, 205080, Note_on_c, 10, 72, 90
16, 205139, Note_on_c, 10, 72, 0
16, 205140, Note_on_c, 10, 71, 90
16, 205259, Note_on_c, 10, 71, 0
16, 205260, Note_on_c, 10, 72, 90
16, 205319, Note_on_c, 10, 72, 0
16, 205320, Note_on_c, 10, 74, 90
16, 205499, Note_on_c, 10, 74, 0
16, 205500, Note_on_c, 10, 72, 90
16, 205679, Note_on_c, 10, 72, 0
16, 205680, Note_on_c, 10, 71, 90
16, 205859, Note_on_c, 10, 71, 0
16, 206940, Note_on_c, 10, 71, 90
16, 207119, Note_on_c, 10, 71, 0
16, 207120, Note_on_c, 10, 76, 90
16, 207299, Note_on_c, 10, 76, 0
16, 207300, Note_on_c, 10, 76, 90
16, 207479, Note_on_c, 10, 76, 0
16, 207480, Note_on_c, 10, 74, 90
16, 207599, Note_on_c, 10, 74, 0
16, 207600, Note_on_c, 10, 76, 90
16, 207659, Note_on_c, 10, 76, 0
16, 207660, Note_on_c, 10, 78, 90
16, 207839, Note_on_c, 10, 78, 0
16, 207840, Note_on_c, 10, 79, 90
16, 207959, Note_on_c, 10, 79, 0
16, 207960, Note_on_c, 10, 78, 90
16, 208019, Note_on_c, 10, 78, 0
16, 208020, Note_on_c, 10, 76, 90
16, 208199, Note_on_c, 10, 76, 0
16, 208200, Note_on_c, 10, 74, 90
16, 208379, Note_on_c, 10, 74, 0
16, 209460, Note_on_c, 10, 79, 90
16, 209639, Note_on_c, 10, 79, 0
16, 209640, Note_on_c, 10, 78, 90
16, 209819, Note_on_c, 10, 78, 0
16, 209820, Note_on_c, 10, 76, 90
16, 209999, Note_on_c, 10, 76, 0
16, 210000, Note_on_c, 10, 74, 90
16, 210179, Note_on_c, 10, 74, 0
16, 210180, Note_on_c, 10, 76, 90
16, 210299, Note_on_c, 10, 76, 0
16, 210300, Note_on_c, 10, 74, 90
16, 210359, Note_on_c, 10, 74, 0
16, 210360, Note_on_c, 10, 72, 90
16, 210479, Note_on_c, 10, 72, 0
16, 210480, Note_on_c, 10, 71, 90
16, 210539, Note_on_c, 10, 71, 0
16, 210540, Note_on_c, 10, 69, 90
16, 210719, Note_on_c, 10, 69, 0
16, 210720, Note_on_c, 10, 67, 90
16, 210899, Note_on_c, 10, 67, 0
16, 210899, End_track
17, 0, Start_track
17, 0, MIDI_port, 0
17, 0, Title_t, "Altos"
17, 0, Program_c, 12, 52
17, 0, Control_c, 12, 7, 127
17, 0, Control_c, 12, 10, 85
17, 50520, Note_on_c, 12, 62, 90
17, 50639, Note_on_c, 12, 62, 0
17, 50640, Note_on_c, 12, 64, 90
17, 50759, Note_on_c, 12, 64, 0
17, 50760, Note_on_c, 12, 66, 90
17, 50879, Note_on_c, 12, 66, 0
17, 50880, Note_on_c, 12, 62, 90
17, 50939, Note_on_c, 12, 62, 0
17, 50940, Note_on_c, 12, 64, 90
17, 50999, Note_on_c, 12, 64, 0
17, 51000, Note_on_c, 12, 66, 90
17, 51119, Note_on_c, 12, 66, 0
17, 51120, Note_on_c, 12, 64, 90
17, 51179, Note_on_c, 12, 64, 0
17, 51180, Note_on_c, 12, 66, 90
17, 51239, Note_on_c, 12, 66, 0
17, 51240, Note_on_c, 12, 67, 90
17, 51359, Note_on_c, 12, 67, 0
17, 51360, Note_on_c, 12, 66, 90
17, 51449, Note_on_c, 12, 66, 0
17, 51480, Note_on_c, 12, 66, 90
17, 51599, Note_on_c, 12, 66, 0
17, 51600, Note_on_c, 12, 64, 90
17, 51719, Note_on_c, 12, 64, 0
17, 51720, Note_on_c, 12, 62, 90
17, 51779, Note_on_c, 12, 62, 0
17, 51780, Note_on_c, 12, 64, 90
17, 51839, Note_on_c, 12, 64, 0
17, 51840, Note_on_c, 12, 66, 90
17, 51959, Note_on_c, 12, 66, 0
17, 51960, Note_on_c, 12, 67, 90
17, 52079, Note_on_c, 12, 67, 0
17, 52080, Note_on_c, 12, 67, 90
17, 52199, Note_on_c, 12, 67, 0
17, 52200, Note_on_c, 12, 66, 90
17, 52319, Note_on_c, 12, 66, 0
17, 52320, Note_on_c, 12, 62, 90
17, 52409, Note_on_c, 12, 62, 0
17, 52440, Note_on_c, 12, 62, 90
17, 52559, Note_on_c, 12, 62, 0
17, 52560, Note_on_c, 12, 64, 90
17, 52679, Note_on_c, 12, 64, 0
17, 52680, Note_on_c, 12, 66, 90
17, 52799, Note_on_c, 12, 66, 0
17, 52800, Note_on_c, 12, 62, 90
17, 52859, Note_on_c, 12, 62, 0
17, 52860, Note_on_c, 12, 64, 90
17, 52919, Note_on_c, 12, 64, 0
17, 52920, Note_on_c, 12, 66, 90
17, 53039, Note_on_c, 12, 66, 0
17, 53040, Note_on_c, 12, 64, 90
17, 53099, Note_on_c, 12, 64, 0
17, 53100, Note_on_c, 12, 66, 90
17, 53159, Note_on_c, 12, 66, 0
17, 53160, Note_on_c, 12, 67, 90
17, 53279, Note_on_c, 12, 67, 0
17, 53280, Note_on_c, 12, 66, 90
17, 53369, Note_on_c, 12, 66, 0
17, 53400, Note_on_c, 12, 66, 90
17, 53519, Note_on_c, 12, 66, 0
17, 53520, Note_on_c, 12, 64, 90
17, 53639, Note_on_c, 12, 64, 0
17, 53640, Note_on_c, 12, 62, 90
17, 53699, Note_on_c, 12, 62, 0
17, 53700, Note_on_c, 12, 64, 90
17, 53759, Note_on_c, 12, 64, 0
17, 53760, Note_on_c, 12, 66, 90
17, 53879, Note_on_c, 12, 66, 0
17, 53880, Note_on_c, 12, 67, 90
17, 53999, Note_on_c, 12, 67, 0
17, 54000, Note_on_c, 12, 67, 90
17, 54119, Note_on_c, 12, 67, 0
17, 54120, Note_on_c, 12, 66, 90
17, 54239, Note_on_c, 12, 66, 0
17, 54240, Note_on_c, 12, 62, 90
17, 54329, Note_on_c, 12, 62, 0
17, 54360, Note_on_c, 12, 66, 90
17, 54419, Note_on_c, 12, 66, 0
17, 54420, Note_on_c, 12, 67, 90
17, 54479, Note_on_c, 12, 67, 0
17, 54480, Note_on_c, 12, 69, 90
17, 54659, Note_on_c, 12, 69, 0
17, 54660, Note_on_c, 12, 68, 90
17, 54719, Note_on_c, 12, 68, 0
17, 54720, Note_on_c, 12, 69, 90
17, 54779, Note_on_c, 12, 69, 0
17, 54780, Note_on_c, 12, 68, 90
17, 54839, Note_on_c, 12, 68, 0
17, 54840, Note_on_c, 12, 69, 90
17, 54959, Note_on_c, 12, 69, 0
17, 54960, Note_on_c, 12, 69, 90
17, 55079, Note_on_c, 12, 69, 0
17, 55080, Note_on_c, 12, 68, 90
17, 55199, Note_on_c, 12, 68, 0
17, 55200, Note_on_c, 12, 64, 90
17, 55289, Note_on_c, 12, 64, 0
17, 55320, Note_on_c, 12, 64, 90
17, 55379, Note_on_c, 12, 64, 0
17, 55380, Note_on_c, 12, 63, 90
17, 55439, Note_on_c, 12, 63, 0
17, 55440, Note_on_c, 12, 64, 90
17, 55559, Note_on_c, 12, 64, 0
17, 55560, Note_on_c, 12, 64, 90
17, 55679, Note_on_c, 12, 64, 0
17, 55680, Note_on_c, 12, 64, 90
17, 55739, Note_on_c, 12, 64, 0
17, 55740, Note_on_c, 12, 66, 90
17, 55799, Note_on_c, 12, 66, 0
17, 55800, Note_on_c, 12, 67, 90
17, 55859, Note_on_c, 12, 67, 0
17, 55860, Note_on_c, 12, 66, 90
17, 55919, Note_on_c, 12, 66, 0
17, 55920, Note_on_c, 12, 66, 90
17, 55979, Note_on_c, 12, 66, 0
17, 55980, Note_on_c, 12, 67, 90
17, 56039, Note_on_c, 12, 67, 0
17, 56040, Note_on_c, 12, 69, 90
17, 56159, Note_on_c, 12, 69, 0
17, 56160, Note_on_c, 12, 67, 90
17, 56249, Note_on_c, 12, 67, 0
17, 56280, Note_on_c, 12, 69, 90
17, 56399, Note_on_c, 12, 69, 0
17, 56400, Note_on_c, 12, 67, 90
17, 56459, Note_on_c, 12, 67, 0
17, 56460, Note_on_c, 12, 69, 90
17, 56519, Note_on_c, 12, 69, 0
17, 56520, Note_on_c, 12, 71, 90
17, 56639, Note_on_c, 12, 71, 0
17, 56640, Note_on_c, 12, 71, 90
17, 56699, Note_on_c, 12, 71, 0
17, 56700, Note_on_c, 12, 69, 90
17, 56759, Note_on_c, 12, 69, 0
17, 56760, Note_on_c, 12, 69, 90
17, 56819, Note_on_c, 12, 69, 0
17, 56820, Note_on_c, 12, 67, 90
17, 56879, Note_on_c, 12, 67, 0
17, 56880, Note_on_c, 12, 67, 90
17, 57119, Note_on_c, 12, 67, 0
17, 57120, Note_on_c, 12, 66, 90
17, 57209, Note_on_c, 12, 66, 0
17, 57240, Note_on_c, 12, 67, 90
17, 57299, Note_on_c, 12, 67, 0
17, 57300, Note_on_c, 12, 66, 90
17, 57359, Note_on_c, 12, 66, 0
17, 57360, Note_on_c, 12, 64, 90
17, 57479, Note_on_c, 12, 64, 0
17, 57480, Note_on_c, 12, 66, 90
17, 57599, Note_on_c, 12, 66, 0
17, 57600, Note_on_c, 12, 67, 90
17, 57659, Note_on_c, 12, 67, 0
17, 57660, Note_on_c, 12, 69, 90
17, 57719, Note_on_c, 12, 69, 0
17, 57720, Note_on_c, 12, 62, 90
17, 57839, Note_on_c, 12, 62, 0
17, 57840, Note_on_c, 12, 64, 90
17, 57959, Note_on_c, 12, 64, 0
17, 57960, Note_on_c, 12, 62, 90
17, 58079, Note_on_c, 12, 62, 0
17, 58080, Note_on_c, 12, 62, 90
17, 58199, Note_on_c, 12, 62, 0
17, 93000, Note_on_c, 12, 67, 90
17, 93119, Note_on_c, 12, 67, 0
17, 93120, Note_on_c, 12, 67, 90
17, 93179, Note_on_c, 12, 67, 0
17, 93180, Note_on_c, 12, 65, 90
17, 93239, Note_on_c, 12, 65, 0
17, 93240, Note_on_c, 12, 64, 90
17, 93359, Note_on_c, 12, 64, 0
17, 93360, Note_on_c, 12, 66, 90
17, 93479, Note_on_c, 12, 66, 0
17, 93480, Note_on_c, 12, 64, 90
17, 93539, Note_on_c, 12, 64, 0
17, 93540, Note_on_c, 12, 62, 90
17, 93599, Note_on_c, 12, 62, 0
17, 93600, Note_on_c, 12, 60, 90
17, 93719, Note_on_c, 12, 60, 0
17, 93720, Note_on_c, 12, 62, 90
17, 93839, Note_on_c, 12, 62, 0
17, 93840, Note_on_c, 12, 64, 90
17, 93929, Note_on_c, 12, 64, 0
17, 93960, Note_on_c, 12, 64, 90
17, 94079, Note_on_c, 12, 64, 0
17, 94080, Note_on_c, 12, 64, 90
17, 94199, Note_on_c, 12, 64, 0
17, 94200, Note_on_c, 12, 64, 90
17, 94319, Note_on_c, 12, 64, 0
17, 94320, Note_on_c, 12, 62, 90
17, 94439, Note_on_c, 12, 62, 0
17, 94440, Note_on_c, 12, 60, 90
17, 94559, Note_on_c, 12, 60, 0
17, 94560, Note_on_c, 12, 60, 90
17, 94679, Note_on_c, 12, 60, 0
17, 94680, Note_on_c, 12, 60, 90
17, 94799, Note_on_c, 12, 60, 0
17, 94800, Note_on_c, 12, 60, 90
17, 94889, Note_on_c, 12, 60, 0
17, 94920, Note_on_c, 12, 60, 90
17, 95039, Note_on_c, 12, 60, 0
17, 95040, Note_on_c, 12, 60, 90
17, 95159, Note_on_c, 12, 60, 0
17, 95160, Note_on_c, 12, 65, 90
17, 95219, Note_on_c, 12, 65, 0
17, 95220, Note_on_c, 12, 64, 90
17, 95279, Note_on_c, 12, 64, 0
17, 95280, Note_on_c, 12, 62, 90
17, 95339, Note_on_c, 12, 62, 0
17, 95340, Note_on_c, 12, 60, 90
17, 95399, Note_on_c, 12, 60, 0
17, 95400, Note_on_c, 12, 59, 90
17, 95519, Note_on_c, 12, 59, 0
17, 95520, Note_on_c, 12, 57, 90
17, 95579, Note_on_c, 12, 57, 0
17, 95580, Note_on_c, 12, 64, 90
17, 95639, Note_on_c, 12, 64, 0
17, 95640, Note_on_c, 12, 65, 90
17, 95759, Note_on_c, 12, 65, 0
17, 95760, Note_on_c, 12, 64, 90
17, 95849, Note_on_c, 12, 64, 0
17, 95880, Note_on_c, 12, 69, 90
17, 95999, Note_on_c, 12, 69, 0
17, 96000, Note_on_c, 12, 69, 90
17, 96059, Note_on_c, 12, 69, 0
17, 96060, Note_on_c, 12, 67, 90
17, 96119, Note_on_c, 12, 67, 0
17, 96120, Note_on_c, 12, 65, 90
17, 96239, Note_on_c, 12, 65, 0
17, 96240, Note_on_c, 12, 64, 90
17, 96419, Note_on_c, 12, 64, 0
17, 96420, Note_on_c, 12, 62, 90
17, 96479, Note_on_c, 12, 62, 0
17, 96480, Note_on_c, 12, 60, 90
17, 96659, Note_on_c, 12, 60, 0
17, 96660, Note_on_c, 12, 59, 90
17, 96719, Note_on_c, 12, 59, 0
17, 96720, Note_on_c, 12, 55, 90
17, 96839, Note_on_c, 12, 55, 0
17, 167445, Program_c, 12, 52
17, 167520, Note_on_c, 12, 64, 90
17, 167639, Note_on_c, 12, 64, 0
17, 167640, Note_on_c, 12, 69, 90
17, 167879, Note_on_c, 12, 69, 0
17, 167880, Note_on_c, 12, 67, 90
17, 167939, Note_on_c, 12, 67, 0
17, 167940, Note_on_c, 12, 66, 90
17, 167999, Note_on_c, 12, 66, 0
17, 168000, Note_on_c, 12, 64, 90
17, 168119, Note_on_c, 12, 64, 0
17, 168120, Note_on_c, 12, 64, 90
17, 168359, Note_on_c, 12, 64, 0
17, 168360, Note_on_c, 12, 62, 90
17, 168419, Note_on_c, 12, 62, 0
17, 168420, Note_on_c, 12, 60, 90
17, 168479, Note_on_c, 12, 60, 0
17, 168480, Note_on_c, 12, 59, 90
17, 168599, Note_on_c, 12, 59, 0
17, 168600, Note_on_c, 12, 67, 90
17, 168839, Note_on_c, 12, 67, 0
17, 168840, Note_on_c, 12, 66, 90
17, 168899, Note_on_c, 12, 66, 0
17, 168900, Note_on_c, 12, 64, 90
17, 168959, Note_on_c, 12, 64, 0
17, 168960, Note_on_c, 12, 62, 90
17, 169079, Note_on_c, 12, 62, 0
17, 169200, Note_on_c, 12, 64, 90
17, 169259, Note_on_c, 12, 64, 0
17, 169260, Note_on_c, 12, 69, 90
17, 169380, Note_on_c, 12, 69, 0
17, 169380, Note_on_c, 12, 67, 90
17, 169409, Note_on_c, 12, 67, 0
17, 169410, Note_on_c, 12, 66, 90
17, 169439, Note_on_c, 12, 66, 0
17, 169440, Note_on_c, 12, 71, 90
17, 169559, Note_on_c, 12, 71, 0
17, 169560, Note_on_c, 12, 69, 90
17, 169860, Note_on_c, 12, 69, 0
17, 169860, Note_on_c, 12, 67, 90
17, 169889, Note_on_c, 12, 67, 0
17, 169890, Note_on_c, 12, 66, 90
17, 169919, Note_on_c, 12, 66, 0
17, 169920, Note_on_c, 12, 64, 90
17, 170039, Note_on_c, 12, 64, 0
17, 170040, Note_on_c, 12, 62, 90
17, 170099, Note_on_c, 12, 62, 0
17, 170100, Note_on_c, 12, 62, 90
17, 170159, Note_on_c, 12, 62, 0
17, 170160, Note_on_c, 12, 67, 90
17, 170279, Note_on_c, 12, 67, 0
17, 170280, Note_on_c, 12, 67, 90
17, 170339, Note_on_c, 12, 67, 0
17, 170340, Note_on_c, 12, 67, 90
17, 170399, Note_on_c, 12, 67, 0
17, 170400, Note_on_c, 12, 66, 90
17, 170579, Note_on_c, 12, 66, 0
17, 170580, Note_on_c, 12, 67, 90
17, 170609, Note_on_c, 12, 67, 0
17, 170610, Note_on_c, 12, 69, 90
17, 170639, Note_on_c, 12, 69, 0
17, 170640, Note_on_c, 12, 71, 90
17, 170819, Note_on_c, 12, 71, 0
17, 170820, Note_on_c, 12, 69, 90
17, 170849, Note_on_c, 12, 69, 0
17, 170850, Note_on_c, 12, 67, 90
17, 170879, Note_on_c, 12, 67, 0
17, 170880, Note_on_c, 12, 66, 90
17, 170969, Note_on_c, 12, 66, 0
17, 170970, Note_on_c, 12, 67, 90
17, 170999, Note_on_c, 12, 67, 0
17, 171000, Note_on_c, 12, 64, 90
17, 171119, Note_on_c, 12, 64, 0
17, 171120, Note_on_c, 12, 66, 90
17, 171179, Note_on_c, 12, 66, 0
17, 171180, Note_on_c, 12, 67, 90
17, 171239, Note_on_c, 12, 67, 0
17, 171240, Note_on_c, 12, 69, 90
17, 171299, Note_on_c, 12, 69, 0
17, 171300, Note_on_c, 12, 66, 90
17, 171359, Note_on_c, 12, 66, 0
17, 171360, Note_on_c, 12, 67, 90
17, 171419, Note_on_c, 12, 67, 0
17, 171420, Note_on_c, 12, 66, 90
17, 171479, Note_on_c, 12, 66, 0
17, 171480, Note_on_c, 12, 64, 90
17, 171539, Note_on_c, 12, 64, 0
17, 171540, Note_on_c, 12, 66, 90
17, 171569, Note_on_c, 12, 66, 0
17, 171570, Note_on_c, 12, 67, 90
17, 171599, Note_on_c, 12, 67, 0
17, 171600, Note_on_c, 12, 69, 90
17, 171659, Note_on_c, 12, 69, 0
17, 171660, Note_on_c, 12, 67, 90
17, 171719, Note_on_c, 12, 67, 0
17, 171720, Note_on_c, 12, 66, 90
17, 171779, Note_on_c, 12, 66, 0
17, 171780, Note_on_c, 12, 64, 90
17, 171839, Note_on_c, 12, 64, 0
17, 171840, Note_on_c, 12, 62, 90
17, 171959, Note_on_c, 12, 62, 0
17, 171960, Note_on_c, 12, 67, 90
17, 172140, Note_on_c, 12, 67, 0
17, 172140, Note_on_c, 12, 66, 90
17, 172199, Note_on_c, 12, 66, 0
17, 172200, Note_on_c, 12, 64, 90
17, 172259, Note_on_c, 12, 64, 0
17, 172260, Note_on_c, 12, 67, 90
17, 172319, Note_on_c, 12, 67, 0
17, 172320, Note_on_c, 12, 69, 90
17, 172439, Note_on_c, 12, 69, 0
17, 172560, Note_on_c, 12, 64, 90
17, 172679, Note_on_c, 12, 64, 0
17, 172680, Note_on_c, 12, 71, 90
17, 172919, Note_on_c, 12, 71, 0
17, 172920, Note_on_c, 12, 69, 90
17, 172979, Note_on_c, 12, 69, 0
17, 172980, Note_on_c, 12, 67, 90
17, 173039, Note_on_c, 12, 67, 0
17, 173040, Note_on_c, 12, 66, 90
17, 173099, Note_on_c, 12, 66, 0
17, 173100, Note_on_c, 12, 64, 90
17, 173129, Note_on_c, 12, 64, 0
17, 173130, Note_on_c, 12, 63, 90
17, 173159, Note_on_c, 12, 63, 0
17, 173160, Note_on_c, 12, 64, 90
17, 173339, Note_on_c, 12, 64, 0
17, 173340, Note_on_c, 12, 63, 90
17, 173369, Note_on_c, 12, 63, 0
17, 173370, Note_on_c, 12, 61, 90
17, 173399, Note_on_c, 12, 61, 0
17, 173400, Note_on_c, 12, 63, 90
17, 173459, Note_on_c, 12, 63, 0
17, 173460, Note_on_c, 12, 64, 90
17, 173489, Note_on_c, 12, 64, 0
17, 173490, Note_on_c, 12, 66, 90
17, 173519, Note_on_c, 12, 66, 0
17, 173520, Note_on_c, 12, 67, 90
17, 173699, Note_on_c, 12, 67, 0
17, 173700, Note_on_c, 12, 66, 90
17, 173729, Note_on_c, 12, 66, 0
17, 173730, Note_on_c, 12, 67, 90
17, 173759, Note_on_c, 12, 67, 0
17, 173760, Note_on_c, 12, 69, 90
17, 173879, Note_on_c, 12, 69, 0
17, 173880, Note_on_c, 12, 67, 90
17, 173939, Note_on_c, 12, 67, 0
17, 173940, Note_on_c, 12, 67, 90
17, 173999, Note_on_c, 12, 67, 0
17, 174000, Note_on_c, 12, 67, 90
17, 174119, Note_on_c, 12, 67, 0
17, 174120, Note_on_c, 12, 66, 90
17, 174179, Note_on_c, 12, 66, 0
17, 174180, Note_on_c, 12, 66, 90
17, 174239, Note_on_c, 12, 66, 0
17, 174240, Note_on_c, 12, 66, 90
17, 174359, Note_on_c, 12, 66, 0
17, 174360, Note_on_c, 12, 64, 90
17, 174479, Note_on_c, 12, 64, 0
17, 174540, Note_on_c, 12, 64, 90
17, 174599, Note_on_c, 12, 64, 0
17, 174600, Note_on_c, 12, 63, 90
17, 174659, Note_on_c, 12, 63, 0
17, 174660, Note_on_c, 12, 63, 90
17, 174719, Note_on_c, 12, 63, 0
17, 174720, Note_on_c, 12, 64, 90
17, 174809, Note_on_c, 12, 64, 0
17, 174810, Note_on_c, 12, 66, 90
17, 174839, Note_on_c, 12, 66, 0
17, 174840, Note_on_c, 12, 63, 90
17, 174959, Note_on_c, 12, 63, 0
17, 174960, Note_on_c, 12, 64, 90
17, 175079, Note_on_c, 12, 64, 0
17, 175440, Note_on_c, 12, 64, 90
17, 175559, Note_on_c, 12, 64, 0
17, 175560, Note_on_c, 12, 71, 90
17, 175799, Note_on_c, 12, 71, 0
17, 175800, Note_on_c, 12, 69, 90
17, 175859, Note_on_c, 12, 69, 0
17, 175860, Note_on_c, 12, 67, 90
17, 175919, Note_on_c, 12, 67, 0
17, 175920, Note_on_c, 12, 66, 90
17, 175979, Note_on_c, 12, 66, 0
17, 175980, Note_on_c, 12, 64, 90
17, 176039, Note_on_c, 12, 64, 0
17, 176040, Note_on_c, 12, 62, 90
17, 176099, Note_on_c, 12, 62, 0
17, 176100, Note_on_c, 12, 64, 90
17, 176129, Note_on_c, 12, 64, 0
17, 176130, Note_on_c, 12, 66, 90
17, 176159, Note_on_c, 12, 66, 0
17, 176160, Note_on_c, 12, 67, 90
17, 176219, Note_on_c, 12, 67, 0
17, 176220, Note_on_c, 12, 66, 90
17, 176279, Note_on_c, 12, 66, 0
17, 176280, Note_on_c, 12, 64, 90
17, 176339, Note_on_c, 12, 64, 0
17, 176340, Note_on_c, 12, 66, 90
17, 176369, Note_on_c, 12, 66, 0
17, 176370, Note_on_c, 12, 67, 90
17, 176399, Note_on_c, 12, 67, 0
17, 176400, Note_on_c, 12, 69, 90
17, 176459, Note_on_c, 12, 69, 0
17, 176460, Note_on_c, 12, 67, 90
17, 176519, Note_on_c, 12, 67, 0
17, 176520, Note_on_c, 12, 66, 90
17, 176579, Note_on_c, 12, 66, 0
17, 176580, Note_on_c, 12, 64, 90
17, 176639, Note_on_c, 12, 64, 0
17, 176640, Note_on_c, 12, 62, 90
17, 176699, Note_on_c, 12, 62, 0
17, 176700, Note_on_c, 12, 64, 90
17, 176729, Note_on_c, 12, 64, 0
17, 176730, Note_on_c, 12, 66, 90
17, 176759, Note_on_c, 12, 66, 0
17, 176760, Note_on_c, 12, 67, 90
17, 176819, Note_on_c, 12, 67, 0
17, 176820, Note_on_c, 12, 67, 90
17, 176879, Note_on_c, 12, 67, 0
17, 176880, Note_on_c, 12, 66, 90
17, 176999, Note_on_c, 12, 66, 0
17, 177060, Note_on_c, 12, 62, 90
17, 177119, Note_on_c, 12, 62, 0
17, 177120, Note_on_c, 12, 67, 90
17, 177179, Note_on_c, 12, 67, 0
17, 177180, Note_on_c, 12, 64, 90
17, 177239, Note_on_c, 12, 64, 0
17, 177240, Note_on_c, 12, 61, 90
17, 177299, Note_on_c, 12, 61, 0
17, 177300, Note_on_c, 12, 62, 90
17, 177329, Note_on_c, 12, 62, 0
17, 177330, Note_on_c, 12, 64, 90
17, 177359, Note_on_c, 12, 64, 0
17, 177360, Note_on_c, 12, 66, 90
17, 177539, Note_on_c, 12, 66, 0
17, 177540, Note_on_c, 12, 64, 90
17, 177569, Note_on_c, 12, 64, 0
17, 177570, Note_on_c, 12, 62, 90
17, 177599, Note_on_c, 12, 62, 0
17, 177600, Note_on_c, 12, 61, 90
17, 177659, Note_on_c, 12, 61, 0
17, 177660, Note_on_c, 12, 70, 90
17, 177719, Note_on_c, 12, 70, 0
17, 177720, Note_on_c, 12, 71, 90
17, 177779, Note_on_c, 12, 71, 0
17, 177780, Note_on_c, 12, 71, 90
17, 177839, Note_on_c, 12, 71, 0
17, 177840, Note_on_c, 12, 71, 90
17, 177960, Note_on_c, 12, 71, 0
17, 177960, Note_on_c, 12, 66, 90
17, 178140, Note_on_c, 12, 66, 0
17, 178140, Note_on_c, 12, 66, 90
17, 178199, Note_on_c, 12, 66, 0
17, 178200, Note_on_c, 12, 71, 90
17, 178259, Note_on_c, 12, 71, 0
17, 178260, Note_on_c, 12, 69, 90
17, 178319, Note_on_c, 12, 69, 0
17, 178320, Note_on_c, 12, 67, 90
17, 178439, Note_on_c, 12, 67, 0
17, 178440, Note_on_c, 12, 66, 90
17, 178559, Note_on_c, 12, 66, 0
17, 178560, Note_on_c, 12, 64, 90
17, 178619, Note_on_c, 12, 64, 0
17, 178620, Note_on_c, 12, 67, 90
17, 178679, Note_on_c, 12, 67, 0
17, 178680, Note_on_c, 12, 66, 90
17, 178739, Note_on_c, 12, 66, 0
17, 178740, Note_on_c, 12, 64, 90
17, 178799, Note_on_c, 12, 64, 0
17, 178800, Note_on_c, 12, 63, 90
17, 178859, Note_on_c, 12, 63, 0
17, 178860, Note_on_c, 12, 66, 90
17, 178919, Note_on_c, 12, 66, 0
17, 178920, Note_on_c, 12, 71, 90
17, 179159, Note_on_c, 12, 71, 0
17, 179160, Note_on_c, 12, 69, 90
17, 179399, Note_on_c, 12, 69, 0
17, 179400, Note_on_c, 12, 67, 90
17, 179519, Note_on_c, 12, 67, 0
17, 179520, Note_on_c, 12, 66, 90
17, 179639, Note_on_c, 12, 66, 0
17, 179640, Note_on_c, 12, 66, 90
17, 179699, Note_on_c, 12, 66, 0
17, 179700, Note_on_c, 12, 66, 90
17, 179759, Note_on_c, 12, 66, 0
17, 179760, Note_on_c, 12, 64, 90
17, 179879, Note_on_c, 12, 64, 0
17, 179880, Note_on_c, 12, 64, 90
17, 179939, Note_on_c, 12, 64, 0
17, 179940, Note_on_c, 12, 72, 90
17, 179999, Note_on_c, 12, 72, 0
17, 180000, Note_on_c, 12, 65, 90
17, 180239, Note_on_c, 12, 65, 0
17, 180240, Note_on_c, 12, 64, 90
17, 180479, Note_on_c, 12, 64, 0
17, 180480, Note_on_c, 12, 62, 90
17, 180539, Note_on_c, 12, 62, 0
17, 180540, Note_on_c, 12, 60, 90
17, 180599, Note_on_c, 12, 60, 0
17, 180600, Note_on_c, 12, 62, 90
17, 180659, Note_on_c, 12, 62, 0
17, 180660, Note_on_c, 12, 64, 90
17, 180719, Note_on_c, 12, 64, 0
17, 180720, Note_on_c, 12, 60, 90
17, 180779, Note_on_c, 12, 60, 0
17, 180780, Note_on_c, 12, 59, 90
17, 180839, Note_on_c, 12, 59, 0
17, 180840, Note_on_c, 12, 57, 90
17, 180899, Note_on_c, 12, 57, 0
17, 180900, Note_on_c, 12, 61, 90
17, 180959, Note_on_c, 12, 61, 0
17, 180960, Note_on_c, 12, 62, 90
17, 181079, Note_on_c, 12, 62, 0
17, 181080, Note_on_c, 12, 64, 90
17, 181139, Note_on_c, 12, 64, 0
17, 181140, Note_on_c, 12, 62, 90
17, 181199, Note_on_c, 12, 62, 0
17, 181200, Note_on_c, 12, 61, 90
17, 181319, Note_on_c, 12, 61, 0
17, 181320, Note_on_c, 12, 62, 90
17, 181559, Note_on_c, 12, 62, 0
17, 181560, Note_on_c, 12, 61, 90
17, 181619, Note_on_c, 12, 61, 0
17, 181620, Note_on_c, 12, 61, 90
17, 181679, Note_on_c, 12, 61, 0
17, 181680, Note_on_c, 12, 62, 90
17, 181799, Note_on_c, 12, 62, 0
17, 181800, Note_on_c, 12, 62, 90
17, 181919, Note_on_c, 12, 62, 0
17, 182040, Note_on_c, 12, 67, 90
17, 182099, Note_on_c, 12, 67, 0
17, 182100, Note_on_c, 12, 65, 90
17, 182159, Note_on_c, 12, 65, 0
17, 182160, Note_on_c, 12, 64, 90
17, 182219, Note_on_c, 12, 64, 0
17, 182220, Note_on_c, 12, 66, 90
17, 182279, Note_on_c, 12, 66, 0
17, 182280, Note_on_c, 12, 67, 90
17, 182339, Note_on_c, 12, 67, 0
17, 182340, Note_on_c, 12, 64, 90
17, 182399, Note_on_c, 12, 64, 0
17, 182400, Note_on_c, 12, 69, 90
17, 182459, Note_on_c, 12, 69, 0
17, 182460, Note_on_c, 12, 67, 90
17, 182489, Note_on_c, 12, 67, 0
17, 182490, Note_on_c, 12, 66, 90
17, 182519, Note_on_c, 12, 66, 0
17, 182520, Note_on_c, 12, 64, 90
17, 182579, Note_on_c, 12, 64, 0
17, 182580, Note_on_c, 12, 69, 90
17, 182639, Note_on_c, 12, 69, 0
17, 182640, Note_on_c, 12, 66, 90
17, 182669, Note_on_c, 12, 66, 0
17, 182670, Note_on_c, 12, 64, 90
17, 182699, Note_on_c, 12, 64, 0
17, 182700, Note_on_c, 12, 66, 90
17, 182729, Note_on_c, 12, 66, 0
17, 182730, Note_on_c, 12, 67, 90
17, 182759, Note_on_c, 12, 67, 0
17, 182760, Note_on_c, 12, 69, 90
17, 182789, Note_on_c, 12, 69, 0
17, 182790, Note_on_c, 12, 67, 90
17, 182819, Note_on_c, 12, 67, 0
17, 182820, Note_on_c, 12, 66, 90
17, 182849, Note_on_c, 12, 66, 0
17, 182850, Note_on_c, 12, 64, 90
17, 182879, Note_on_c, 12, 64, 0
17, 182880, Note_on_c, 12, 62, 90
17, 182939, Note_on_c, 12, 62, 0
17, 182940, Note_on_c, 12, 62, 90
17, 182999, Note_on_c, 12, 62, 0
17, 183060, Note_on_c, 12, 67, 90
17, 183119, Note_on_c, 12, 67, 0
17, 183120, Note_on_c, 12, 67, 90
17, 183179, Note_on_c, 12, 67, 0
17, 183180, Note_on_c, 12, 66, 90
17, 183239, Note_on_c, 12, 66, 0
17, 183240, Note_on_c, 12, 64, 90
17, 183390, Note_on_c, 12, 64, 0
17, 183390, Note_on_c, 12, 62, 90
17, 183419, Note_on_c, 12, 62, 0
17, 183420, Note_on_c, 12, 64, 90
17, 183449, Note_on_c, 12, 64, 0
17, 183450, Note_on_c, 12, 66, 90
17, 183479, Note_on_c, 12, 66, 0
17, 183480, Note_on_c, 12, 67, 90
17, 183509, Note_on_c, 12, 67, 0
17, 183510, Note_on_c, 12, 66, 90
17, 183539, Note_on_c, 12, 66, 0
17, 183540, Note_on_c, 12, 67, 90
17, 183569, Note_on_c, 12, 67, 0
17, 183570, Note_on_c, 12, 64, 90
17, 183599, Note_on_c, 12, 64, 0
17, 183600, Note_on_c, 12, 69, 90
17, 183659, Note_on_c, 12, 69, 0
17, 183660, Note_on_c, 12, 62, 90
17, 183719, Note_on_c, 12, 62, 0
17, 183720, Note_on_c, 12, 69, 90
17, 183779, Note_on_c, 12, 69, 0
17, 183780, Note_on_c, 12, 67, 90
17, 183839, Note_on_c, 12, 67, 0
17, 183840, Note_on_c, 12, 66, 90
17, 183899, Note_on_c, 12, 66, 0
17, 183900, Note_on_c, 12, 67, 90
17, 183959, Note_on_c, 12, 67, 0
17, 183960, Note_on_c, 12, 69, 90
17, 184019, Note_on_c, 12, 69, 0
17, 184020, Note_on_c, 12, 66, 90
17, 184079, Note_on_c, 12, 66, 0
17, 184080, Note_on_c, 12, 71, 90
17, 184139, Note_on_c, 12, 71, 0
17, 184140, Note_on_c, 12, 69, 90
17, 184169, Note_on_c, 12, 69, 0
17, 184170, Note_on_c, 12, 67, 90
17, 184199, Note_on_c, 12, 67, 0
17, 184200, Note_on_c, 12, 66, 90
17, 184259, Note_on_c, 12, 66, 0
17, 184260, Note_on_c, 12, 71, 90
17, 184319, Note_on_c, 12, 71, 0
17, 184320, Note_on_c, 12, 67, 90
17, 184349, Note_on_c, 12, 67, 0
17, 184350, Note_on_c, 12, 66, 90
17, 184379, Note_on_c, 12, 66, 0
17, 184380, Note_on_c, 12, 67, 90
17, 184409, Note_on_c, 12, 67, 0
17, 184410, Note_on_c, 12, 69, 90
17, 184439, Note_on_c, 12, 69, 0
17, 184440, Note_on_c, 12, 71, 90
17, 184469, Note_on_c, 12, 71, 0
17, 184470, Note_on_c, 12, 69, 90
17, 184499, Note_on_c, 12, 69, 0
17, 184500, Note_on_c, 12, 67, 90
17, 184529, Note_on_c, 12, 67, 0
17, 184530, Note_on_c, 12, 66, 90
17, 184559, Note_on_c, 12, 66, 0
17, 184560, Note_on_c, 12, 64, 90
17, 184710, Note_on_c, 12, 64, 0
17, 184710, Note_on_c, 12, 66, 90
17, 184739, Note_on_c, 12, 66, 0
17, 184740, Note_on_c, 12, 67, 90
17, 184769, Note_on_c, 12, 67, 0
17, 184770, Note_on_c, 12, 64, 90
17, 184799, Note_on_c, 12, 64, 0
17, 184800, Note_on_c, 12, 69, 90
17, 184829, Note_on_c, 12, 69, 0
17, 184830, Note_on_c, 12, 68, 90
17, 184859, Note_on_c, 12, 68, 0
17, 184860, Note_on_c, 12, 69, 90
17, 184889, Note_on_c, 12, 69, 0
17, 184890, Note_on_c, 12, 71, 90
17, 184919, Note_on_c, 12, 71, 0
17, 184920, Note_on_c, 12, 73, 90
17, 185099, Note_on_c, 12, 73, 0
17, 185100, Note_on_c, 12, 66, 90
17, 185159, Note_on_c, 12, 66, 0
17, 185160, Note_on_c, 12, 71, 90
17, 185310, Note_on_c, 12, 71, 0
17, 185310, Note_on_c, 12, 69, 90
17, 185339, Note_on_c, 12, 69, 0
17, 185340, Note_on_c, 12, 71, 90
17, 185369, Note_on_c, 12, 71, 0
17, 185370, Note_on_c, 12, 72, 90
17, 185399, Note_on_c, 12, 72, 0
17, 185400, Note_on_c, 12, 74, 90
17, 185429, Note_on_c, 12, 74, 0
17, 185430, Note_on_c, 12, 72, 90
17, 185459, Note_on_c, 12, 72, 0
17, 185460, Note_on_c, 12, 74, 90
17, 185489, Note_on_c, 12, 74, 0
17, 185490, Note_on_c, 12, 71, 90
17, 185519, Note_on_c, 12, 71, 0
17, 185520, Note_on_c, 12, 67, 90
17, 185579, Note_on_c, 12, 67, 0
17, 185580, Note_on_c, 12, 67, 90
17, 185639, Note_on_c, 12, 67, 0
17, 185880, Note_on_c, 12, 69, 90
17, 185939, Note_on_c, 12, 69, 0
17, 185940, Note_on_c, 12, 67, 90
17, 185999, Note_on_c, 12, 67, 0
17, 186000, Note_on_c, 12, 66, 90
17, 186059, Note_on_c, 12, 66, 0
17, 186060, Note_on_c, 12, 67, 90
17, 186119, Note_on_c, 12, 67, 0
17, 186120, Note_on_c, 12, 69, 90
17, 186179, Note_on_c, 12, 69, 0
17, 186180, Note_on_c, 12, 66, 90
17, 186239, Note_on_c, 12, 66, 0
17, 186240, Note_on_c, 12, 71, 90
17, 186299, Note_on_c, 12, 71, 0
17, 186300, Note_on_c, 12, 69, 90
17, 186329, Note_on_c, 12, 69, 0
17, 186330, Note_on_c, 12, 67, 90
17, 186359, Note_on_c, 12, 67, 0
17, 186360, Note_on_c, 12, 66, 90
17, 186419, Note_on_c, 12, 66, 0
17, 186420, Note_on_c, 12, 71, 90
17, 186479, Note_on_c, 12, 71, 0
17, 186480, Note_on_c, 12, 67, 90
17, 186509, Note_on_c, 12, 67, 0
17, 186510, Note_on_c, 12, 66, 90
17, 186539, Note_on_c, 12, 66, 0
17, 186540, Note_on_c, 12, 67, 90
17, 186569, Note_on_c, 12, 67, 0
17, 186570, Note_on_c, 12, 69, 90
17, 186599, Note_on_c, 12, 69, 0
17, 186600, Note_on_c, 12, 71, 90
17, 186629, Note_on_c, 12, 71, 0
17, 186630, Note_on_c, 12, 69, 90
17, 186659, Note_on_c, 12, 69, 0
17, 186660, Note_on_c, 12, 67, 90
17, 186689, Note_on_c, 12, 67, 0
17, 186690, Note_on_c, 12, 66, 90
17, 186719, Note_on_c, 12, 66, 0
17, 186720, Note_on_c, 12, 64, 90
17, 186749, Note_on_c, 12, 64, 0
17, 186750, Note_on_c, 12, 62, 90
17, 186779, Note_on_c, 12, 62, 0
17, 186780, Note_on_c, 12, 64, 90
17, 186809, Note_on_c, 12, 64, 0
17, 186810, Note_on_c, 12, 66, 90
17, 186839, Note_on_c, 12, 66, 0
17, 186840, Note_on_c, 12, 67, 90
17, 186869, Note_on_c, 12, 67, 0
17, 186870, Note_on_c, 12, 66, 90
17, 186899, Note_on_c, 12, 66, 0
17, 186900, Note_on_c, 12, 64, 90
17, 186929, Note_on_c, 12, 64, 0
17, 186930, Note_on_c, 12, 62, 90
17, 186959, Note_on_c, 12, 62, 0
17, 186960, Note_on_c, 12, 60, 90
17, 186989, Note_on_c, 12, 60, 0
17, 186990, Note_on_c, 12, 59, 90
17, 187019, Note_on_c, 12, 59, 0
17, 187020, Note_on_c, 12, 60, 90
17, 187049, Note_on_c, 12, 60, 0
17, 187050, Note_on_c, 12, 62, 90
17, 187079, Note_on_c, 12, 62, 0
17, 187080, Note_on_c, 12, 64, 90
17, 187109, Note_on_c, 12, 64, 0
17, 187110, Note_on_c, 12, 62, 90
17, 187139, Note_on_c, 12, 62, 0
17, 187140, Note_on_c, 12, 60, 90
17, 187169, Note_on_c, 12, 60, 0
17, 187170, Note_on_c, 12, 59, 90
17, 187199, Note_on_c, 12, 59, 0
17, 187200, Note_on_c, 12, 57, 90
17, 187259, Note_on_c, 12, 57, 0
17, 187260, Note_on_c, 12, 57, 90
17, 187319, Note_on_c, 12, 57, 0
17, 187380, Note_on_c, 12, 64, 90
17, 187439, Note_on_c, 12, 64, 0
17, 187440, Note_on_c, 12, 66, 90
17, 187499, Note_on_c, 12, 66, 0
17, 187500, Note_on_c, 12, 67, 90
17, 187559, Note_on_c, 12, 67, 0
17, 187560, Note_on_c, 12, 69, 90
17, 187619, Note_on_c, 12, 69, 0
17, 187620, Note_on_c, 12, 66, 90
17, 187679, Note_on_c, 12, 66, 0
17, 187680, Note_on_c, 12, 71, 90
17, 187709, Note_on_c, 12, 71, 0
17, 187710, Note_on_c, 12, 69, 90
17, 187739, Note_on_c, 12, 69, 0
17, 187740, Note_on_c, 12, 67, 90
17, 187769, Note_on_c, 12, 67, 0
17, 187770, Note_on_c, 12, 69, 90
17, 187799, Note_on_c, 12, 69, 0
17, 187800, Note_on_c, 12, 71, 90
17, 187859, Note_on_c, 12, 71, 0
17, 187860, Note_on_c, 12, 67, 90
17, 187919, Note_on_c, 12, 67, 0
17, 187920, Note_on_c, 12, 67, 90
17, 188220, Note_on_c, 12, 67, 0
17, 188220, Note_on_c, 12, 66, 90
17, 188279, Note_on_c, 12, 66, 0
17, 188280, Note_on_c, 12, 64, 90
17, 188430, Note_on_c, 12, 64, 0
17, 188430, Note_on_c, 12, 62, 90
17, 188459, Note_on_c, 12, 62, 0
17, 188460, Note_on_c, 12, 60, 90
17, 188489, Note_on_c, 12, 60, 0
17, 188490, Note_on_c, 12, 59, 90
17, 188519, Note_on_c, 12, 59, 0
17, 188520, Note_on_c, 12, 57, 90
17, 188579, Note_on_c, 12, 57, 0
17, 188580, Note_on_c, 12, 69, 90
17, 188669, Note_on_c, 12, 69, 0
17, 188670, Note_on_c, 12, 67, 90
17, 188699, Note_on_c, 12, 67, 0
17, 188700, Note_on_c, 12, 66, 90
17, 188729, Note_on_c, 12, 66, 0
17, 188730, Note_on_c, 12, 67, 90
17, 188759, Note_on_c, 12, 67, 0
17, 188760, Note_on_c, 12, 69, 90
17, 188789, Note_on_c, 12, 69, 0
17, 188790, Note_on_c, 12, 67, 90
17, 188819, Note_on_c, 12, 67, 0
17, 188820, Note_on_c, 12, 66, 90
17, 188849, Note_on_c, 12, 66, 0
17, 188850, Note_on_c, 12, 67, 90
17, 188879, Note_on_c, 12, 67, 0
17, 188880, Note_on_c, 12, 64, 90
17, 188939, Note_on_c, 12, 64, 0
17, 188940, Note_on_c, 12, 59, 90
17, 188999, Note_on_c, 12, 59, 0
17, 189000, Note_on_c, 12, 71, 90
17, 189059, Note_on_c, 12, 71, 0
17, 189060, Note_on_c, 12, 69, 90
17, 189119, Note_on_c, 12, 69, 0
17, 189120, Note_on_c, 12, 67, 90
17, 189179, Note_on_c, 12, 67, 0
17, 189180, Note_on_c, 12, 69, 90
17, 189239, Note_on_c, 12, 69, 0
17, 189240, Note_on_c, 12, 71, 90
17, 189299, Note_on_c, 12, 71, 0
17, 189300, Note_on_c, 12, 67, 90
17, 189359, Note_on_c, 12, 67, 0
17, 189360, Note_on_c, 12, 72, 90
17, 189419, Note_on_c, 12, 72, 0
17, 189420, Note_on_c, 12, 71, 90
17, 189449, Note_on_c, 12, 71, 0
17, 189450, Note_on_c, 12, 69, 90
17, 189479, Note_on_c, 12, 69, 0
17, 189480, Note_on_c, 12, 67, 90
17, 189539, Note_on_c, 12, 67, 0
17, 189540, Note_on_c, 12, 72, 90
17, 189599, Note_on_c, 12, 72, 0
17, 189600, Note_on_c, 12, 69, 90
17, 189900, Note_on_c, 12, 69, 0
17, 189900, Note_on_c, 12, 67, 90
17, 189959, Note_on_c, 12, 67, 0
17, 189960, Note_on_c, 12, 65, 90
17, 190139, Note_on_c, 12, 65, 0
17, 190140, Note_on_c, 12, 64, 90
17, 190199, Note_on_c, 12, 64, 0
17, 190200, Note_on_c, 12, 62, 90
17, 190259, Note_on_c, 12, 62, 0
17, 190260, Note_on_c, 12, 67, 90
17, 190319, Note_on_c, 12, 67, 0
17, 190320, Note_on_c, 12, 67, 90
17, 190439, Note_on_c, 12, 67, 0
17, 190440, Note_on_c, 12, 72, 90
17, 190679, Note_on_c, 12, 72, 0
17, 190680, Note_on_c, 12, 71, 90
17, 190739, Note_on_c, 12, 71, 0
17, 190740, Note_on_c, 12, 69, 90
17, 190799, Note_on_c, 12, 69, 0
17, 190800, Note_on_c, 12, 67, 90
17, 190919, Note_on_c, 12, 67, 0
17, 190920, Note_on_c, 12, 67, 90
17, 191159, Note_on_c, 12, 67, 0
17, 191160, Note_on_c, 12, 65, 90
17, 191219, Note_on_c, 12, 65, 0
17, 191220, Note_on_c, 12, 64, 90
17, 191279, Note_on_c, 12, 64, 0
17, 191280, Note_on_c, 12, 62, 90
17, 191399, Note_on_c, 12, 62, 0
17, 191400, Note_on_c, 12, 71, 90
17, 191639, Note_on_c, 12, 71, 0
17, 191640, Note_on_c, 12, 69, 90
17, 191699, Note_on_c, 12, 69, 0
17, 191700, Note_on_c, 12, 67, 90
17, 191759, Note_on_c, 12, 67, 0
17, 191760, Note_on_c, 12, 66, 90
17, 191819, Note_on_c, 12, 66, 0
17, 191820, Note_on_c, 12, 62, 90
17, 191879, Note_on_c, 12, 62, 0
17, 191880, Note_on_c, 12, 67, 90
17, 192059, Note_on_c, 12, 67, 0
17, 192060, Note_on_c, 12, 69, 90
17, 192089, Note_on_c, 12, 69, 0
17, 192090, Note_on_c, 12, 71, 90
17, 192119, Note_on_c, 12, 71, 0
17, 192120, Note_on_c, 12, 69, 90
17, 192179, Note_on_c, 12, 69, 0
17, 192180, Note_on_c, 12, 67, 90
17, 192239, Note_on_c, 12, 67, 0
17, 192240, Note_on_c, 12, 66, 90
17, 192299, Note_on_c, 12, 66, 0
17, 192300, Note_on_c, 12, 62, 90
17, 192359, Note_on_c, 12, 62, 0
17, 192360, Note_on_c, 12, 71, 90
17, 192419, Note_on_c, 12, 71, 0
17, 192420, Note_on_c, 12, 69, 90
17, 192449, Note_on_c, 12, 69, 0
17, 192450, Note_on_c, 12, 67, 90
17, 192479, Note_on_c, 12, 67, 0
17, 192480, Note_on_c, 12, 69, 90
17, 192780, Note_on_c, 12, 69, 0
17, 192780, Note_on_c, 12, 67, 90
17, 192809, Note_on_c, 12, 67, 0
17, 192810, Note_on_c, 12, 66, 90
17, 192839, Note_on_c, 12, 66, 0
17, 192840, Note_on_c, 12, 67, 90
17, 192899, Note_on_c, 12, 67, 0
17, 192900, Note_on_c, 12, 64, 90
17, 192959, Note_on_c, 12, 64, 0
17, 192960, Note_on_c, 12, 69, 90
17, 193019, Note_on_c, 12, 69, 0
17, 193020, Note_on_c, 12, 66, 90
17, 193079, Note_on_c, 12, 66, 0
17, 193080, Note_on_c, 12, 62, 90
17, 193139, Note_on_c, 12, 62, 0
17, 193140, Note_on_c, 12, 62, 90
17, 193199, Note_on_c, 12, 62, 0
17, 193200, Note_on_c, 12, 67, 90
17, 193319, Note_on_c, 12, 67, 0
17, 193320, Note_on_c, 12, 69, 90
17, 193379, Note_on_c, 12, 69, 0
17, 193380, Note_on_c, 12, 69, 90
17, 193439, Note_on_c, 12, 69, 0
17, 193440, Note_on_c, 12, 69, 90
17, 193559, Note_on_c, 12, 69, 0
17, 193560, Note_on_c, 12, 67, 90
17, 193739, Note_on_c, 12, 67, 0
17, 193740, Note_on_c, 12, 67, 90
17, 193799, Note_on_c, 12, 67, 0
17, 193800, Note_on_c, 12, 66, 90
17, 193859, Note_on_c, 12, 66, 0
17, 193860, Note_on_c, 12, 66, 90
17, 193919, Note_on_c, 12, 66, 0
17, 193920, Note_on_c, 12, 67, 90
17, 194009, Note_on_c, 12, 67, 0
17, 194010, Note_on_c, 12, 72, 90
17, 194039, Note_on_c, 12, 72, 0
17, 194040, Note_on_c, 12, 69, 90
17, 194159, Note_on_c, 12, 69, 0
17, 194160, Note_on_c, 12, 71, 90
17, 194279, Note_on_c, 12, 71, 0
17, 194340, Note_on_c, 12, 62, 90
17, 194399, Note_on_c, 12, 62, 0
17, 194400, Note_on_c, 12, 67, 90
17, 194519, Note_on_c, 12, 67, 0
17, 194520, Note_on_c, 12, 69, 90
17, 194579, Note_on_c, 12, 69, 0
17, 194580, Note_on_c, 12, 67, 90
17, 194639, Note_on_c, 12, 67, 0
17, 194640, Note_on_c, 12, 66, 90
17, 194759, Note_on_c, 12, 66, 0
17, 194760, Note_on_c, 12, 67, 90
17, 194819, Note_on_c, 12, 67, 0
17, 194820, Note_on_c, 12, 66, 90
17, 194879, Note_on_c, 12, 66, 0
17, 194880, Note_on_c, 12, 64, 90
17, 194999, Note_on_c, 12, 64, 0
17, 195000, Note_on_c, 12, 66, 90
17, 195059, Note_on_c, 12, 66, 0
17, 195060, Note_on_c, 12, 66, 90
17, 195119, Note_on_c, 12, 66, 0
17, 195120, Note_on_c, 12, 67, 90
17, 195239, Note_on_c, 12, 67, 0
17, 195240, Note_on_c, 12, 67, 90
17, 195299, Note_on_c, 12, 67, 0
17, 195300, Note_on_c, 12, 65, 90
17, 195359, Note_on_c, 12, 65, 0
17, 195360, Note_on_c, 12, 64, 90
17, 195419, Note_on_c, 12, 64, 0
17, 195420, Note_on_c, 12, 62, 90
17, 195479, Note_on_c, 12, 62, 0
17, 195480, Note_on_c, 12, 64, 90
17, 195599, Note_on_c, 12, 64, 0
17, 195600, Note_on_c, 12, 66, 90
17, 195719, Note_on_c, 12, 66, 0
17, 195720, Note_on_c, 12, 67, 90
17, 195959, Note_on_c, 12, 67, 0
17, 195960, Note_on_c, 12, 69, 90
17, 196019, Note_on_c, 12, 69, 0
17, 196020, Note_on_c, 12, 69, 90
17, 196079, Note_on_c, 12, 69, 0
17, 196080, Note_on_c, 12, 71, 90
17, 196139, Note_on_c, 12, 71, 0
17, 196140, Note_on_c, 12, 62, 90
17, 196199, Note_on_c, 12, 62, 0
17, 196200, Note_on_c, 12, 67, 90
17, 196259, Note_on_c, 12, 67, 0
17, 196260, Note_on_c, 12, 65, 90
17, 196319, Note_on_c, 12, 65, 0
17, 196320, Note_on_c, 12, 64, 90
17, 196379, Note_on_c, 12, 64, 0
17, 196380, Note_on_c, 12, 66, 90
17, 196439, Note_on_c, 12, 66, 0
17, 196440, Note_on_c, 12, 67, 90
17, 196499, Note_on_c, 12, 67, 0
17, 196500, Note_on_c, 12, 64, 90
17, 196559, Note_on_c, 12, 64, 0
17, 196560, Note_on_c, 12, 69, 90
17, 196619, Note_on_c, 12, 69, 0
17, 196620, Note_on_c, 12, 67, 90
17, 196649, Note_on_c, 12, 67, 0
17, 196650, Note_on_c, 12, 66, 90
17, 196679, Note_on_c, 12, 66, 0
17, 196680, Note_on_c, 12, 64, 90
17, 196739, Note_on_c, 12, 64, 0
17, 196740, Note_on_c, 12, 69, 90
17, 196799, Note_on_c, 12, 69, 0
17, 196800, Note_on_c, 12, 66, 90
17, 196829, Note_on_c, 12, 66, 0
17, 196830, Note_on_c, 12, 64, 90
17, 196859, Note_on_c, 12, 64, 0
17, 196860, Note_on_c, 12, 66, 90
17, 196889, Note_on_c, 12, 66, 0
17, 196890, Note_on_c, 12, 67, 90
17, 196919, Note_on_c, 12, 67, 0
17, 196920, Note_on_c, 12, 69, 90
17, 196949, Note_on_c, 12, 69, 0
17, 196950, Note_on_c, 12, 67, 90
17, 196979, Note_on_c, 12, 67, 0
17, 196980, Note_on_c, 12, 66, 90
17, 197009, Note_on_c, 12, 66, 0
17, 197010, Note_on_c, 12, 64, 90
17, 197039, Note_on_c, 12, 64, 0
17, 197040, Note_on_c, 12, 62, 90
17, 197219, Note_on_c, 12, 62, 0
17, 197220, Note_on_c, 12, 64, 90
17, 197249, Note_on_c, 12, 64, 0
17, 197250, Note_on_c, 12, 66, 90
17, 197279, Note_on_c, 12, 66, 0
17, 197280, Note_on_c, 12, 67, 90
17, 197309, Note_on_c, 12, 67, 0
17, 197310, Note_on_c, 12, 66, 90
17, 197339, Note_on_c, 12, 66, 0
17, 197340, Note_on_c, 12, 64, 90
17, 197369, Note_on_c, 12, 64, 0
17, 197370, Note_on_c, 12, 62, 90
17, 197399, Note_on_c, 12, 62, 0
17, 197400, Note_on_c, 12, 61, 90
17, 197459, Note_on_c, 12, 61, 0
17, 197460, Note_on_c, 12, 62, 90
17, 197519, Note_on_c, 12, 62, 0
17, 197520, Note_on_c, 12, 64, 90
17, 197759, Note_on_c, 12, 64, 0
17, 197760, Note_on_c, 12, 62, 90
17, 197999, Note_on_c, 12, 62, 0
17, 198000, Note_on_c, 12, 62, 90
17, 198240, Note_on_c, 12, 62, 0
17, 201900, Note_on_c, 12, 71, 90
17, 202079, Note_on_c, 12, 71, 0
17, 202080, Note_on_c, 12, 69, 90
17, 202259, Note_on_c, 12, 69, 0
17, 202260, Note_on_c, 12, 71, 90
17, 202379, Note_on_c, 12, 71, 0
17, 202380, Note_on_c, 12, 69, 90
17, 202439, Note_on_c, 12, 69, 0
17, 202440, Note_on_c, 12, 69, 90
17, 202619, Note_on_c, 12, 69, 0
17, 202620, Note_on_c, 12, 67, 90
17, 202920, Note_on_c, 12, 67, 0
17, 202920, Note_on_c, 12, 72, 90
17, 202979, Note_on_c, 12, 72, 0
17, 202980, Note_on_c, 12, 71, 90
17, 203099, Note_on_c, 12, 71, 0
17, 203100, Note_on_c, 12, 69, 90
17, 203159, Note_on_c, 12, 69, 0
17, 203160, Note_on_c, 12, 71, 90
17, 203339, Note_on_c, 12, 71, 0
17, 204420, Note_on_c, 12, 71, 90
17, 204599, Note_on_c, 12, 71, 0
17, 204600, Note_on_c, 12, 71, 90
17, 204779, Note_on_c, 12, 71, 0
17, 204780, Note_on_c, 12, 71, 90
17, 204959, Note_on_c, 12, 71, 0
17, 204960, Note_on_c, 12, 69, 90
17, 205139, Note_on_c, 12, 69, 0
17, 205140, Note_on_c, 12, 67, 90
17, 205319, Note_on_c, 12, 67, 0
17, 205320, Note_on_c, 12, 69, 90
17, 205439, Note_on_c, 12, 69, 0
17, 205440, Note_on_c, 12, 64, 90
17, 205499, Note_on_c, 12, 64, 0
17, 205500, Note_on_c, 12, 64, 90
17, 205589, Note_on_c, 12, 64, 0
17, 205590, Note_on_c, 12, 67, 90
17, 205619, Note_on_c, 12, 67, 0
17, 205620, Note_on_c, 12, 66, 90
17, 205679, Note_on_c, 12, 66, 0
17, 205680, Note_on_c, 12, 67, 90
17, 205859, Note_on_c, 12, 67, 0
17, 206940, Note_on_c, 12, 67, 90
17, 207119, Note_on_c, 12, 67, 0
17, 207120, Note_on_c, 12, 67, 90
17, 207299, Note_on_c, 12, 67, 0
17, 207300, Note_on_c, 12, 67, 90
17, 207419, Note_on_c, 12, 67, 0
17, 207420, Note_on_c, 12, 69, 90
17, 207479, Note_on_c, 12, 69, 0
17, 207480, Note_on_c, 12, 71, 90
17, 207599, Note_on_c, 12, 71, 0
17, 207600, Note_on_c, 12, 69, 90
17, 207659, Note_on_c, 12, 69, 0
17, 207660, Note_on_c, 12, 69, 90
17, 207779, Note_on_c, 12, 69, 0
17, 207780, Note_on_c, 12, 71, 90
17, 207839, Note_on_c, 12, 71, 0
17, 207840, Note_on_c, 12, 71, 90
17, 207959, Note_on_c, 12, 71, 0
17, 207960, Note_on_c, 12, 69, 90
17, 208019, Note_on_c, 12, 69, 0
17, 208020, Note_on_c, 12, 71, 90
17, 208139, Note_on_c, 12, 71, 0
17, 208140, Note_on_c, 12, 69, 90
17, 208199, Note_on_c, 12, 69, 0
17, 208200, Note_on_c, 12, 69, 90
17, 208379, Note_on_c, 12, 69, 0
17, 209460, Note_on_c, 12, 71, 90
17, 209639, Note_on_c, 12, 71, 0
17, 209640, Note_on_c, 12, 72, 90
17, 209759, Note_on_c, 12, 72, 0
17, 209760, Note_on_c, 12, 71, 90
17, 209819, Note_on_c, 12, 71, 0
17, 209820, Note_on_c, 12, 71, 90
17, 209939, Note_on_c, 12, 71, 0
17, 209940, Note_on_c, 12, 69, 90
17, 209999, Note_on_c, 12, 69, 0
17, 210000, Note_on_c, 12, 69, 90
17, 210119, Note_on_c, 12, 69, 0
17, 210120, Note_on_c, 12, 67, 90
17, 210179, Note_on_c, 12, 67, 0
17, 210180, Note_on_c, 12, 67, 90
17, 210299, Note_on_c, 12, 67, 0
17, 210300, Note_on_c, 12, 67, 90
17, 210359, Note_on_c, 12, 67, 0
17, 210360, Note_on_c, 12, 67, 90
17, 210479, Note_on_c, 12, 67, 0
17, 210480, Note_on_c, 12, 67, 90
17, 210539, Note_on_c, 12, 67, 0
17, 210540, Note_on_c, 12, 67, 90
17, 210659, Note_on_c, 12, 67, 0
17, 210660, Note_on_c, 12, 66, 90
17, 210719, Note_on_c, 12, 66, 0
17, 210720, Note_on_c, 12, 62, 90
17, 210899, Note_on_c, 12, 62, 0
17, 210899, End_track
18, 0, Start_track
18, 0, MIDI_port, 0
18, 0, Title_t, "Tenores"
18, 0, Program_c, 11, 52
18, 0, Control_c, 11, 7, 127
18, 0, Control_c, 11, 10, 45
18, 50460, Program_c, 11, 52
18, 50520, Note_on_c, 11, 59, 90
18, 50639, Note_on_c, 11, 59, 0
18, 50640, Note_on_c, 11, 59, 90
18, 50699, Note_on_c, 11, 59, 0
18, 50700, Note_on_c, 11, 60, 90
18, 50819, Note_on_c, 11, 60, 0
18, 50820, Note_on_c, 11, 62, 90
18, 50879, Note_on_c, 11, 62, 0
18, 50880, Note_on_c, 11, 59, 90
18, 50939, Note_on_c, 11, 59, 0
18, 50940, Note_on_c, 11, 57, 90
18, 50999, Note_on_c, 11, 57, 0
18, 51000, Note_on_c, 11, 57, 90
18, 51119, Note_on_c, 11, 57, 0
18, 51120, Note_on_c, 11, 57, 90
18, 51239, Note_on_c, 11, 57, 0
18, 51240, Note_on_c, 11, 57, 90
18, 51359, Note_on_c, 11, 57, 0
18, 51360, Note_on_c, 11, 57, 90
18, 51449, Note_on_c, 11, 57, 0
18, 51480, Note_on_c, 11, 59, 90
18, 51539, Note_on_c, 11, 59, 0
18, 51540, Note_on_c, 11, 57, 90
18, 51599, Note_on_c, 11, 57, 0
18, 51600, Note_on_c, 11, 55, 90
18, 51659, Note_on_c, 11, 55, 0
18, 51660, Note_on_c, 11, 57, 90
18, 51719, Note_on_c, 11, 57, 0
18, 51720, Note_on_c, 11, 59, 90
18, 51779, Note_on_c, 11, 59, 0
18, 51780, Note_on_c, 11, 60, 90
18, 51839, Note_on_c, 11, 60, 0
18, 51840, Note_on_c, 11, 62, 90
18, 51959, Note_on_c, 11, 62, 0
18, 51960, Note_on_c, 11, 62, 90
18, 52079, Note_on_c, 11, 62, 0
18, 52080, Note_on_c, 11, 62, 90
18, 52259, Note_on_c, 11, 62, 0
18, 52260, Note_on_c, 11, 60, 90
18, 52319, Note_on_c, 11, 60, 0
18, 52320, Note_on_c, 11, 59, 90
18, 52409, Note_on_c, 11, 59, 0
18, 52440, Note_on_c, 11, 59, 90
18, 52559, Note_on_c, 11, 59, 0
18, 52560, Note_on_c, 11, 59, 90
18, 52619, Note_on_c, 11, 59, 0
18, 52620, Note_on_c, 11, 60, 90
18, 52739, Note_on_c, 11, 60, 0
18, 52740, Note_on_c, 11, 62, 90
18, 52799, Note_on_c, 11, 62, 0
18, 52800, Note_on_c, 11, 59, 90
18, 52859, Note_on_c, 11, 59, 0
18, 52860, Note_on_c, 11, 57, 90
18, 52919, Note_on_c, 11, 57, 0
18, 52920, Note_on_c, 11, 57, 90
18, 53039, Note_on_c, 11, 57, 0
18, 53040, Note_on_c, 11, 57, 90
18, 53159, Note_on_c, 11, 57, 0
18, 53160, Note_on_c, 11, 57, 90
18, 53279, Note_on_c, 11, 57, 0
18, 53280, Note_on_c, 11, 57, 90
18, 53369, Note_on_c, 11, 57, 0
18, 53400, Note_on_c, 11, 59, 90
18, 53459, Note_on_c, 11, 59, 0
18, 53460, Note_on_c, 11, 57, 90
18, 53519, Note_on_c, 11, 57, 0
18, 53520, Note_on_c, 11, 55, 90
18, 53579, Note_on_c, 11, 55, 0
18, 53580, Note_on_c, 11, 57, 90
18, 53639, Note_on_c, 11, 57, 0
18, 53640, Note_on_c, 11, 59, 90
18, 53699, Note_on_c, 11, 59, 0
18, 53700, Note_on_c, 11, 60, 90
18, 53759, Note_on_c, 11, 60, 0
18, 53760, Note_on_c, 11, 62, 90
18, 53879, Note_on_c, 11, 62, 0
18, 53880, Note_on_c, 11, 62, 90
18, 53999, Note_on_c, 11, 62, 0
18, 54000, Note_on_c, 11, 62, 90
18, 54179, Note_on_c, 11, 62, 0
18, 54180, Note_on_c, 11, 60, 90
18, 54239, Note_on_c, 11, 60, 0
18, 54240, Note_on_c, 11, 59, 90
18, 54329, Note_on_c, 11, 59, 0
18, 54360, Note_on_c, 11, 62, 90
18, 54419, Note_on_c, 11, 62, 0
18, 54420, Note_on_c, 11, 64, 90
18, 54479, Note_on_c, 11, 64, 0
18, 54480, Note_on_c, 11, 66, 90
18, 54539, Note_on_c, 11, 66, 0
18, 54540, Note_on_c, 11, 64, 90
18, 54599, Note_on_c, 11, 64, 0
18, 54600, Note_on_c, 11, 62, 90
18, 54719, Note_on_c, 11, 62, 0
18, 54720, Note_on_c, 11, 64, 90
18, 54839, Note_on_c, 11, 64, 0
18, 54840, Note_on_c, 11, 66, 90
18, 54959, Note_on_c, 11, 66, 0
18, 54960, Note_on_c, 11, 59, 90
18, 55079, Note_on_c, 11, 59, 0
18, 55080, Note_on_c, 11, 64, 90
18, 55139, Note_on_c, 11, 64, 0
18, 55140, Note_on_c, 11, 62, 90
18, 55199, Note_on_c, 11, 62, 0
18, 55200, Note_on_c, 11, 60, 90
18, 55289, Note_on_c, 11, 60, 0
18, 55320, Note_on_c, 11, 55, 90
18, 55379, Note_on_c, 11, 55, 0
18, 55380, Note_on_c, 11, 57, 90
18, 55439, Note_on_c, 11, 57, 0
18, 55440, Note_on_c, 11, 59, 90
18, 55499, Note_on_c, 11, 59, 0
18, 55500, Note_on_c, 11, 60, 90
18, 55559, Note_on_c, 11, 60, 0
18, 55560, Note_on_c, 11, 62, 90
18, 55619, Note_on_c, 11, 62, 0
18, 55620, Note_on_c, 11, 64, 90
18, 55679, Note_on_c, 11, 64, 0
18, 55680, Note_on_c, 11, 60, 90
18, 55799, Note_on_c, 11, 60, 0
18, 55800, Note_on_c, 11, 61, 90
18, 55919, Note_on_c, 11, 61, 0
18, 55920, Note_on_c, 11, 59, 90
18, 56039, Note_on_c, 11, 59, 0
18, 56040, Note_on_c, 11, 59, 90
18, 56159, Note_on_c, 11, 59, 0
18, 56160, Note_on_c, 11, 59, 90
18, 56249, Note_on_c, 11, 59, 0
18, 56280, Note_on_c, 11, 62, 90
18, 56399, Note_on_c, 11, 62, 0
18, 56400, Note_on_c, 11, 62, 90
18, 56519, Note_on_c, 11, 62, 0
18, 56520, Note_on_c, 11, 67, 90
18, 56639, Note_on_c, 11, 67, 0
18, 56640, Note_on_c, 11, 55, 90
18, 56699, Note_on_c, 11, 55, 0
18, 56700, Note_on_c, 11, 57, 90
18, 56759, Note_on_c, 11, 57, 0
18, 56760, Note_on_c, 11, 59, 90
18, 56879, Note_on_c, 11, 59, 0
18, 56880, Note_on_c, 11, 64, 90
18, 56939, Note_on_c, 11, 64, 0
18, 56940, Note_on_c, 11, 62, 90
18, 56999, Note_on_c, 11, 62, 0
18, 57000, Note_on_c, 11, 64, 90
18, 57059, Note_on_c, 11, 64, 0
18, 57060, Note_on_c, 11, 61, 90
18, 57119, Note_on_c, 11, 61, 0
18, 57120, Note_on_c, 11, 62, 90
18, 57209, Note_on_c, 11, 62, 0
18, 57240, Note_on_c, 11, 62, 90
18, 57419, Note_on_c, 11, 62, 0
18, 57420, Note_on_c, 11, 60, 90
18, 57539, Note_on_c, 11, 60, 0
18, 57540, Note_on_c, 11, 59, 90
18, 57659, Note_on_c, 11, 59, 0
18, 57660, Note_on_c, 11, 57, 90
18, 57719, Note_on_c, 11, 57, 0
18, 57720, Note_on_c, 11, 55, 90
18, 57899, Note_on_c, 11, 55, 0
18, 57900, Note_on_c, 11, 54, 90
18, 57929, Note_on_c, 11, 54, 0
18, 57930, Note_on_c, 11, 52, 90
18, 57959, Note_on_c, 11, 52, 0
18, 57960, Note_on_c, 11, 54, 90
18, 58079, Note_on_c, 11, 54, 0
18, 58080, Note_on_c, 11, 59, 90
18, 58199, Note_on_c, 11, 59, 0
18, 92925, Program_c, 11, 52
18, 93000, Note_on_c, 11, 64, 90
18, 93119, Note_on_c, 11, 64, 0
18, 93120, Note_on_c, 11, 62, 90
18, 93299, Note_on_c, 11, 62, 0
18, 93300, Note_on_c, 11, 60, 90
18, 93359, Note_on_c, 11, 60, 0
18, 93360, Note_on_c, 11, 59, 90
18, 93479, Note_on_c, 11, 59, 0
18, 93480, Note_on_c, 11, 60, 90
18, 93539, Note_on_c, 11, 60, 0
18, 93540, Note_on_c, 11, 59, 90
18, 93599, Note_on_c, 11, 59, 0
18, 93600, Note_on_c, 11, 57, 90
18, 93659, Note_on_c, 11, 57, 0
18, 93660, Note_on_c, 11, 55, 90
18, 93719, Note_on_c, 11, 55, 0
18, 93720, Note_on_c, 11, 53, 90
18, 93839, Note_on_c, 11, 53, 0
18, 93840, Note_on_c, 11, 55, 90
18, 93929, Note_on_c, 11, 55, 0
18, 93960, Note_on_c, 11, 57, 90
18, 94079, Note_on_c, 11, 57, 0
18, 94080, Note_on_c, 11, 57, 90
18, 94139, Note_on_c, 11, 57, 0
18, 94140, Note_on_c, 11, 59, 90
18, 94199, Note_on_c, 11, 59, 0
18, 94200, Note_on_c, 11, 60, 90
18, 94319, Note_on_c, 11, 60, 0
18, 94320, Note_on_c, 11, 59, 90
18, 94379, Note_on_c, 11, 59, 0
18, 94380, Note_on_c, 11, 57, 90
18, 94439, Note_on_c, 11, 57, 0
18, 94440, Note_on_c, 11, 55, 90
18, 94499, Note_on_c, 11, 55, 0
18, 94500, Note_on_c, 11, 57, 90
18, 94559, Note_on_c, 11, 57, 0
18, 94560, Note_on_c, 11, 58, 90
18, 94739, Note_on_c, 11, 58, 0
18, 94740, Note_on_c, 11, 57, 90
18, 94799, Note_on_c, 11, 57, 0
18, 94800, Note_on_c, 11, 55, 90
18, 94889, Note_on_c, 11, 55, 0
18, 94920, Note_on_c, 11, 60, 90
18, 94979, Note_on_c, 11, 60, 0
18, 94980, Note_on_c, 11, 58, 90
18, 95039, Note_on_c, 11, 58, 0
18, 95040, Note_on_c, 11, 57, 90
18, 95099, Note_on_c, 11, 57, 0
18, 95100, Note_on_c, 11, 55, 90
18, 95159, Note_on_c, 11, 55, 0
18, 95160, Note_on_c, 11, 53, 90
18, 95279, Note_on_c, 11, 53, 0
18, 95280, Note_on_c, 11, 53, 90
18, 95399, Note_on_c, 11, 53, 0
18, 95400, Note_on_c, 11, 55, 90
18, 95459, Note_on_c, 11, 55, 0
18, 95460, Note_on_c, 11, 53, 90
18, 95519, Note_on_c, 11, 53, 0
18, 95520, Note_on_c, 11, 52, 90
18, 95579, Note_on_c, 11, 52, 0
18, 95580, Note_on_c, 11, 48, 90
18, 95639, Note_on_c, 11, 48, 0
18, 95640, Note_on_c, 11, 60, 90
18, 95759, Note_on_c, 11, 60, 0
18, 95760, Note_on_c, 11, 60, 90
18, 95849, Note_on_c, 11, 60, 0
18, 95880, Note_on_c, 11, 64, 90
18, 95999, Note_on_c, 11, 64, 0
18, 96000, Note_on_c, 11, 64, 90
18, 96059, Note_on_c, 11, 64, 0
18, 96060, Note_on_c, 11, 59, 90
18, 96119, Note_on_c, 11, 59, 0
18, 96120, Note_on_c, 11, 60, 90
18, 96239, Note_on_c, 11, 60, 0
18, 96240, Note_on_c, 11, 59, 90
18, 96359, Note_on_c, 11, 59, 0
18, 96360, Note_on_c, 11, 57, 90
18, 96419, Note_on_c, 11, 57, 0
18, 96420, Note_on_c, 11, 59, 90
18, 96479, Note_on_c, 11, 59, 0
18, 96480, Note_on_c, 11, 60, 90
18, 96539, Note_on_c, 11, 60, 0
18, 96540, Note_on_c, 11, 57, 90
18, 96599, Note_on_c, 11, 57, 0
18, 96600, Note_on_c, 11, 50, 90
18, 96659, Note_on_c, 11, 50, 0
18, 96660, Note_on_c, 11, 55, 90
18, 96719, Note_on_c, 11, 55, 0
18, 96720, Note_on_c, 11, 52, 90
18, 96839, Note_on_c, 11, 52, 0
18, 167250, Program_c, 11, 52
18, 167280, Note_on_c, 11, 59, 90
18, 167339, Note_on_c, 11, 59, 0
18, 167340, Note_on_c, 11, 60, 90
18, 167399, Note_on_c, 11, 60, 0
18, 167400, Note_on_c, 11, 62, 90
18, 167459, Note_on_c, 11, 62, 0
18, 167460, Note_on_c, 11, 59, 90
18, 167519, Note_on_c, 11, 59, 0
18, 167520, Note_on_c, 11, 60, 90
18, 167579, Note_on_c, 11, 60, 0
18, 167580, Note_on_c, 11, 59, 90
18, 167639, Note_on_c, 11, 59, 0
18, 167640, Note_on_c, 11, 57, 90
18, 167699, Note_on_c, 11, 57, 0
18, 167700, Note_on_c, 11, 59, 90
18, 167729, Note_on_c, 11, 59, 0
18, 167730, Note_on_c, 11, 60, 90
18, 167759, Note_on_c, 11, 60, 0
18, 167760, Note_on_c, 11, 62, 90
18, 167819, Note_on_c, 11, 62, 0
18, 167820, Note_on_c, 11, 60, 90
18, 167879, Note_on_c, 11, 60, 0
18, 167880, Note_on_c, 11, 59, 90
18, 167939, Note_on_c, 11, 59, 0
18, 167940, Note_on_c, 11, 57, 90
18, 167999, Note_on_c, 11, 57, 0
18, 168000, Note_on_c, 11, 55, 90
18, 168119, Note_on_c, 11, 55, 0
18, 168120, Note_on_c, 11, 60, 90
18, 168359, Note_on_c, 11, 60, 0
18, 168360, Note_on_c, 11, 59, 90
18, 168419, Note_on_c, 11, 59, 0
18, 168420, Note_on_c, 11, 57, 90
18, 168479, Note_on_c, 11, 57, 0
18, 168480, Note_on_c, 11, 55, 90
18, 168599, Note_on_c, 11, 55, 0
18, 168600, Note_on_c, 11, 64, 90
18, 168839, Note_on_c, 11, 64, 0
18, 168840, Note_on_c, 11, 62, 90
18, 168899, Note_on_c, 11, 62, 0
18, 168900, Note_on_c, 11, 61, 90
18, 168959, Note_on_c, 11, 61, 0
18, 168960, Note_on_c, 11, 59, 90
18, 169079, Note_on_c, 11, 59, 0
18, 169080, Note_on_c, 11, 64, 90
18, 169139, Note_on_c, 11, 64, 0
18, 169140, Note_on_c, 11, 62, 90
18, 169199, Note_on_c, 11, 62, 0
18, 169200, Note_on_c, 11, 61, 90
18, 169259, Note_on_c, 11, 61, 0
18, 169260, Note_on_c, 11, 57, 90
18, 169319, Note_on_c, 11, 57, 0
18, 169320, Note_on_c, 11, 66, 90
18, 169379, Note_on_c, 11, 66, 0
18, 169380, Note_on_c, 11, 64, 90
18, 169409, Note_on_c, 11, 64, 0
18, 169410, Note_on_c, 11, 62, 90
18, 169439, Note_on_c, 11, 62, 0
18, 169440, Note_on_c, 11, 64, 90
18, 169740, Note_on_c, 11, 64, 0
18, 169740, Note_on_c, 11, 62, 90
18, 169769, Note_on_c, 11, 62, 0
18, 169770, Note_on_c, 11, 61, 90
18, 169799, Note_on_c, 11, 61, 0
18, 169800, Note_on_c, 11, 62, 90
18, 169859, Note_on_c, 11, 62, 0
18, 169860, Note_on_c, 11, 59, 90
18, 169919, Note_on_c, 11, 59, 0
18, 169920, Note_on_c, 11, 64, 90
18, 169979, Note_on_c, 11, 64, 0
18, 169980, Note_on_c, 11, 61, 90
18, 170039, Note_on_c, 11, 61, 0
18, 170040, Note_on_c, 11, 57, 90
18, 170099, Note_on_c, 11, 57, 0
18, 170100, Note_on_c, 11, 57, 90
18, 170159, Note_on_c, 11, 57, 0
18, 170160, Note_on_c, 11, 62, 90
18, 170279, Note_on_c, 11, 62, 0
18, 170280, Note_on_c, 11, 69, 90
18, 170339, Note_on_c, 11, 69, 0
18, 170340, Note_on_c, 11, 69, 90
18, 170399, Note_on_c, 11, 69, 0
18, 170400, Note_on_c, 11, 69, 90
18, 170459, Note_on_c, 11, 69, 0
18, 170460, Note_on_c, 11, 57, 90
18, 170519, Note_on_c, 11, 57, 0
18, 170520, Note_on_c, 11, 62, 90
18, 170579, Note_on_c, 11, 62, 0
18, 170580, Note_on_c, 11, 64, 90
18, 170609, Note_on_c, 11, 64, 0
18, 170610, Note_on_c, 11, 66, 90
18, 170639, Note_on_c, 11, 66, 0
18, 170640, Note_on_c, 11, 64, 90
18, 170819, Note_on_c, 11, 64, 0
18, 170820, Note_on_c, 11, 64, 90
18, 170879, Note_on_c, 11, 64, 0
18, 170880, Note_on_c, 11, 62, 90
18, 170939, Note_on_c, 11, 62, 0
18, 170940, Note_on_c, 11, 59, 90
18, 170999, Note_on_c, 11, 59, 0
18, 171000, Note_on_c, 11, 57, 90
18, 171119, Note_on_c, 11, 57, 0
18, 171120, Note_on_c, 11, 57, 90
18, 171239, Note_on_c, 11, 57, 0
18, 171360, Note_on_c, 11, 59, 90
18, 171479, Note_on_c, 11, 59, 0
18, 171480, Note_on_c, 11, 64, 90
18, 171719, Note_on_c, 11, 64, 0
18, 171720, Note_on_c, 11, 62, 90
18, 171779, Note_on_c, 11, 62, 0
18, 171780, Note_on_c, 11, 60, 90
18, 171839, Note_on_c, 11, 60, 0
18, 171840, Note_on_c, 11, 59, 90
18, 171899, Note_on_c, 11, 59, 0
18, 171900, Note_on_c, 11, 60, 90
18, 171959, Note_on_c, 11, 60, 0
18, 171960, Note_on_c, 11, 62, 90
18, 172199, Note_on_c, 11, 62, 0
18, 172200, Note_on_c, 11, 60, 90
18, 172259, Note_on_c, 11, 60, 0
18, 172260, Note_on_c, 11, 59, 90
18, 172319, Note_on_c, 11, 59, 0
18, 172320, Note_on_c, 11, 57, 90
18, 172439, Note_on_c, 11, 57, 0
18, 172440, Note_on_c, 11, 62, 90
18, 172619, Note_on_c, 11, 62, 0
18, 172620, Note_on_c, 11, 60, 90
18, 172679, Note_on_c, 11, 60, 0
18, 172680, Note_on_c, 11, 62, 90
18, 172739, Note_on_c, 11, 62, 0
18, 172740, Note_on_c, 11, 59, 90
18, 172799, Note_on_c, 11, 59, 0
18, 172800, Note_on_c, 11, 60, 90
18, 172829, Note_on_c, 11, 60, 0
18, 172830, Note_on_c, 11, 64, 90
18, 172859, Note_on_c, 11, 64, 0
18, 172860, Note_on_c, 11, 66, 90
18, 172889, Note_on_c, 11, 66, 0
18, 172890, Note_on_c, 11, 67, 90
18, 172919, Note_on_c, 11, 67, 0
18, 172920, Note_on_c, 11, 66, 90
18, 172979, Note_on_c, 11, 66, 0
18, 172980, Note_on_c, 11, 64, 90
18, 173039, Note_on_c, 11, 64, 0
18, 173040, Note_on_c, 11, 63, 90
18, 173099, Note_on_c, 11, 63, 0
18, 173100, Note_on_c, 11, 59, 90
18, 173159, Note_on_c, 11, 59, 0
18, 173160, Note_on_c, 11, 64, 90
18, 173219, Note_on_c, 11, 64, 0
18, 173220, Note_on_c, 11, 66, 90
18, 173249, Note_on_c, 11, 66, 0
18, 173250, Note_on_c, 11, 67, 90
18, 173279, Note_on_c, 11, 67, 0
18, 173280, Note_on_c, 11, 66, 90
18, 173580, Note_on_c, 11, 66, 0
18, 173580, Note_on_c, 11, 64, 90
18, 173609, Note_on_c, 11, 64, 0
18, 173610, Note_on_c, 11, 63, 90
18, 173639, Note_on_c, 11, 63, 0
18, 173640, Note_on_c, 11, 64, 90
18, 173699, Note_on_c, 11, 64, 0
18, 173700, Note_on_c, 11, 63, 90
18, 173729, Note_on_c, 11, 63, 0
18, 173730, Note_on_c, 11, 64, 90
18, 173759, Note_on_c, 11, 64, 0
18, 173760, Note_on_c, 11, 66, 90
18, 173819, Note_on_c, 11, 66, 0
18, 173820, Note_on_c, 11, 63, 90
18, 173879, Note_on_c, 11, 63, 0
18, 173880, Note_on_c, 11, 64, 90
18, 173939, Note_on_c, 11, 64, 0
18, 173940, Note_on_c, 11, 59, 90
18, 173999, Note_on_c, 11, 59, 0
18, 174000, Note_on_c, 11, 57, 90
18, 174059, Note_on_c, 11, 57, 0
18, 174060, Note_on_c, 11, 69, 90
18, 174179, Note_on_c, 11, 69, 0
18, 174180, Note_on_c, 11, 66, 90
18, 174239, Note_on_c, 11, 66, 0
18, 174240, Note_on_c, 11, 59, 90
18, 174299, Note_on_c, 11, 59, 0
18, 174300, Note_on_c, 11, 60, 90
18, 174329, Note_on_c, 11, 60, 0
18, 174330, Note_on_c, 11, 62, 90
18, 174359, Note_on_c, 11, 62, 0
18, 174360, Note_on_c, 11, 64, 90
18, 174419, Note_on_c, 11, 64, 0
18, 174420, Note_on_c, 11, 62, 90
18, 174479, Note_on_c, 11, 62, 0
18, 174480, Note_on_c, 11, 60, 90
18, 174539, Note_on_c, 11, 60, 0
18, 174540, Note_on_c, 11, 62, 90
18, 174569, Note_on_c, 11, 62, 0
18, 174570, Note_on_c, 11, 60, 90
18, 174599, Note_on_c, 11, 60, 0
18, 174600, Note_on_c, 11, 59, 90
18, 174659, Note_on_c, 11, 59, 0
18, 174660, Note_on_c, 11, 60, 90
18, 174689, Note_on_c, 11, 60, 0
18, 174690, Note_on_c, 11, 59, 90
18, 174719, Note_on_c, 11, 59, 0
18, 174720, Note_on_c, 11, 57, 90
18, 174839, Note_on_c, 11, 57, 0
18, 174960, Note_on_c, 11, 59, 90
18, 175079, Note_on_c, 11, 59, 0
18, 175080, Note_on_c, 11, 64, 90
18, 175319, Note_on_c, 11, 64, 0
18, 175320, Note_on_c, 11, 62, 90
18, 175379, Note_on_c, 11, 62, 0
18, 175380, Note_on_c, 11, 60, 90
18, 175439, Note_on_c, 11, 60, 0
18, 175440, Note_on_c, 11, 59, 90
18, 175559, Note_on_c, 11, 59, 0
18, 175560, Note_on_c, 11, 68, 90
18, 175619, Note_on_c, 11, 68, 0
18, 175620, Note_on_c, 11, 64, 90
18, 175679, Note_on_c, 11, 64, 0
18, 175680, Note_on_c, 11, 64, 90
18, 175739, Note_on_c, 11, 64, 0
18, 175740, Note_on_c, 11, 62, 90
18, 175799, Note_on_c, 11, 62, 0
18, 175800, Note_on_c, 11, 60, 90
18, 175979, Note_on_c, 11, 60, 0
18, 175980, Note_on_c, 11, 59, 90
18, 176039, Note_on_c, 11, 59, 0
18, 176040, Note_on_c, 11, 57, 90
18, 176159, Note_on_c, 11, 57, 0
18, 176400, Note_on_c, 11, 57, 90
18, 176519, Note_on_c, 11, 57, 0
18, 176520, Note_on_c, 11, 66, 90
18, 176759, Note_on_c, 11, 66, 0
18, 176760, Note_on_c, 11, 64, 90
18, 176819, Note_on_c, 11, 64, 0
18, 176820, Note_on_c, 11, 62, 90
18, 176879, Note_on_c, 11, 62, 0
18, 176880, Note_on_c, 11, 61, 90
18, 176939, Note_on_c, 11, 61, 0
18, 176940, Note_on_c, 11, 59, 90
18, 176969, Note_on_c, 11, 59, 0
18, 176970, Note_on_c, 11, 58, 90
18, 176999, Note_on_c, 11, 58, 0
18, 177000, Note_on_c, 11, 59, 90
18, 177179, Note_on_c, 11, 59, 0
18, 177180, Note_on_c, 11, 58, 90
18, 177209, Note_on_c, 11, 58, 0
18, 177210, Note_on_c, 11, 56, 90
18, 177239, Note_on_c, 11, 56, 0
18, 177240, Note_on_c, 11, 58, 90
18, 177299, Note_on_c, 11, 58, 0
18, 177300, Note_on_c, 11, 59, 90
18, 177329, Note_on_c, 11, 59, 0
18, 177330, Note_on_c, 11, 60, 90
18, 177359, Note_on_c, 11, 60, 0
18, 177360, Note_on_c, 11, 62, 90
18, 177539, Note_on_c, 11, 62, 0
18, 177540, Note_on_c, 11, 61, 90
18, 177569, Note_on_c, 11, 61, 0
18, 177570, Note_on_c, 11, 62, 90
18, 177599, Note_on_c, 11, 62, 0
18, 177600, Note_on_c, 11, 64, 90
18, 177719, Note_on_c, 11, 64, 0
18, 177720, Note_on_c, 11, 62, 90
18, 177779, Note_on_c, 11, 62, 0
18, 177780, Note_on_c, 11, 62, 90
18, 177839, Note_on_c, 11, 62, 0
18, 177840, Note_on_c, 11, 62, 90
18, 177959, Note_on_c, 11, 62, 0
18, 177960, Note_on_c, 11, 61, 90
18, 178019, Note_on_c, 11, 61, 0
18, 178020, Note_on_c, 11, 61, 90
18, 178079, Note_on_c, 11, 61, 0
18, 178080, Note_on_c, 11, 61, 90
18, 178199, Note_on_c, 11, 61, 0
18, 178200, Note_on_c, 11, 59, 90
18, 178379, Note_on_c, 11, 59, 0
18, 178380, Note_on_c, 11, 59, 90
18, 178439, Note_on_c, 11, 59, 0
18, 178440, Note_on_c, 11, 58, 90
18, 178499, Note_on_c, 11, 58, 0
18, 178500, Note_on_c, 11, 58, 90
18, 178559, Note_on_c, 11, 58, 0
18, 178560, Note_on_c, 11, 59, 90
18, 178649, Note_on_c, 11, 59, 0
18, 178650, Note_on_c, 11, 61, 90
18, 178679, Note_on_c, 11, 61, 0
18, 178680, Note_on_c, 11, 58, 90
18, 178799, Note_on_c, 11, 58, 0
18, 178800, Note_on_c, 11, 59, 90
18, 178919, Note_on_c, 11, 59, 0
18, 178980, Note_on_c, 11, 63, 90
18, 179039, Note_on_c, 11, 63, 0
18, 179040, Note_on_c, 11, 64, 90
18, 179159, Note_on_c, 11, 64, 0
18, 179160, Note_on_c, 11, 66, 90
18, 179219, Note_on_c, 11, 66, 0
18, 179220, Note_on_c, 11, 64, 90
18, 179279, Note_on_c, 11, 64, 0
18, 179280, Note_on_c, 11, 63, 90
18, 179399, Note_on_c, 11, 63, 0
18, 179400, Note_on_c, 11, 64, 90
18, 179639, Note_on_c, 11, 64, 0
18, 179640, Note_on_c, 11, 63, 90
18, 179699, Note_on_c, 11, 63, 0
18, 179700, Note_on_c, 11, 63, 90
18, 179759, Note_on_c, 11, 63, 0
18, 179760, Note_on_c, 11, 59, 90
18, 179819, Note_on_c, 11, 59, 0
18, 179820, Note_on_c, 11, 59, 90
18, 179879, Note_on_c, 11, 59, 0
18, 179880, Note_on_c, 11, 64, 90
18, 180119, Note_on_c, 11, 64, 0
18, 180120, Note_on_c, 11, 62, 90
18, 180359, Note_on_c, 11, 62, 0
18, 180360, Note_on_c, 11, 60, 90
18, 180479, Note_on_c, 11, 60, 0
18, 180480, Note_on_c, 11, 59, 90
18, 180599, Note_on_c, 11, 59, 0
18, 180600, Note_on_c, 11, 59, 90
18, 180659, Note_on_c, 11, 59, 0
18, 180660, Note_on_c, 11, 59, 90
18, 180719, Note_on_c, 11, 59, 0
18, 180720, Note_on_c, 11, 57, 90
18, 180839, Note_on_c, 11, 57, 0
18, 180840, Note_on_c, 11, 57, 90
18, 180899, Note_on_c, 11, 57, 0
18, 180900, Note_on_c, 11, 65, 90
18, 180959, Note_on_c, 11, 65, 0
18, 180960, Note_on_c, 11, 58, 90
18, 181199, Note_on_c, 11, 58, 0
18, 181200, Note_on_c, 11, 57, 90
18, 181439, Note_on_c, 11, 57, 0
18, 181440, Note_on_c, 11, 55, 90
18, 181499, Note_on_c, 11, 55, 0
18, 181500, Note_on_c, 11, 54, 90
18, 181559, Note_on_c, 11, 54, 0
18, 181560, Note_on_c, 11, 52, 90
18, 181619, Note_on_c, 11, 52, 0
18, 181620, Note_on_c, 11, 57, 90
18, 181679, Note_on_c, 11, 57, 0
18, 181680, Note_on_c, 11, 57, 90
18, 181800, Note_on_c, 11, 57, 0
18, 181800, Note_on_c, 11, 57, 90
18, 181920, Note_on_c, 11, 57, 0
18, 182760, Note_on_c, 11, 62, 90
18, 182819, Note_on_c, 11, 62, 0
18, 182820, Note_on_c, 11, 60, 90
18, 182879, Note_on_c, 11, 60, 0
18, 182880, Note_on_c, 11, 59, 90
18, 182939, Note_on_c, 11, 59, 0
18, 182940, Note_on_c, 11, 60, 90
18, 182999, Note_on_c, 11, 60, 0
18, 183000, Note_on_c, 11, 62, 90
18, 183059, Note_on_c, 11, 62, 0
18, 183060, Note_on_c, 11, 59, 90
18, 183119, Note_on_c, 11, 59, 0
18, 183120, Note_on_c, 11, 64, 90
18, 183179, Note_on_c, 11, 64, 0
18, 183180, Note_on_c, 11, 62, 90
18, 183209, Note_on_c, 11, 62, 0
18, 183210, Note_on_c, 11, 60, 90
18, 183239, Note_on_c, 11, 60, 0
18, 183240, Note_on_c, 11, 59, 90
18, 183299, Note_on_c, 11, 59, 0
18, 183300, Note_on_c, 11, 64, 90
18, 183359, Note_on_c, 11, 64, 0
18, 183360, Note_on_c, 11, 61, 90
18, 183389, Note_on_c, 11, 61, 0
18, 183390, Note_on_c, 11, 59, 90
18, 183419, Note_on_c, 11, 59, 0
18, 183420, Note_on_c, 11, 61, 90
18, 183449, Note_on_c, 11, 61, 0
18, 183450, Note_on_c, 11, 62, 90
18, 183479, Note_on_c, 11, 62, 0
18, 183480, Note_on_c, 11, 64, 90
18, 183509, Note_on_c, 11, 64, 0
18, 183510, Note_on_c, 11, 62, 90
18, 183539, Note_on_c, 11, 62, 0
18, 183540, Note_on_c, 11, 61, 90
18, 183569, Note_on_c, 11, 61, 0
18, 183570, Note_on_c, 11, 59, 90
18, 183599, Note_on_c, 11, 59, 0
18, 183600, Note_on_c, 11, 57, 90
18, 183629, Note_on_c, 11, 57, 0
18, 183630, Note_on_c, 11, 55, 90
18, 183659, Note_on_c, 11, 55, 0
18, 183660, Note_on_c, 11, 57, 90
18, 183689, Note_on_c, 11, 57, 0
18, 183690, Note_on_c, 11, 59, 90
18, 183719, Note_on_c, 11, 59, 0
18, 183720, Note_on_c, 11, 61, 90
18, 183779, Note_on_c, 11, 61, 0
18, 183780, Note_on_c, 11, 57, 90
18, 183839, Note_on_c, 11, 57, 0
18, 183960, Note_on_c, 11, 62, 90
18, 184019, Note_on_c, 11, 62, 0
18, 184020, Note_on_c, 11, 60, 90
18, 184079, Note_on_c, 11, 60, 0
18, 184080, Note_on_c, 11, 59, 90
18, 184139, Note_on_c, 11, 59, 0
18, 184140, Note_on_c, 11, 60, 90
18, 184199, Note_on_c, 11, 60, 0
18, 184200, Note_on_c, 11, 62, 90
18, 184259, Note_on_c, 11, 62, 0
18, 184260, Note_on_c, 11, 59, 90
18, 184319, Note_on_c, 11, 59, 0
18, 184320, Note_on_c, 11, 64, 90
18, 184379, Note_on_c, 11, 64, 0
18, 184380, Note_on_c, 11, 62, 90
18, 184409, Note_on_c, 11, 62, 0
18, 184410, Note_on_c, 11, 61, 90
18, 184439, Note_on_c, 11, 61, 0
18, 184440, Note_on_c, 11, 59, 90
18, 184499, Note_on_c, 11, 59, 0
18, 184500, Note_on_c, 11, 64, 90
18, 184559, Note_on_c, 11, 64, 0
18, 184560, Note_on_c, 11, 61, 90
18, 184589, Note_on_c, 11, 61, 0
18, 184590, Note_on_c, 11, 59, 90
18, 184619, Note_on_c, 11, 59, 0
18, 184620, Note_on_c, 11, 61, 90
18, 184649, Note_on_c, 11, 61, 0
18, 184650, Note_on_c, 11, 62, 90
18, 184679, Note_on_c, 11, 62, 0
18, 184680, Note_on_c, 11, 64, 90
18, 184709, Note_on_c, 11, 64, 0
18, 184710, Note_on_c, 11, 62, 90
18, 184739, Note_on_c, 11, 62, 0
18, 184740, Note_on_c, 11, 61, 90
18, 184769, Note_on_c, 11, 61, 0
18, 184770, Note_on_c, 11, 59, 90
18, 184799, Note_on_c, 11, 59, 0
18, 184800, Note_on_c, 11, 57, 90
18, 184950, Note_on_c, 11, 57, 0
18, 184950, Note_on_c, 11, 59, 90
18, 184979, Note_on_c, 11, 59, 0
18, 184980, Note_on_c, 11, 61, 90
18, 185009, Note_on_c, 11, 61, 0
18, 185010, Note_on_c, 11, 57, 90
18, 185039, Note_on_c, 11, 57, 0
18, 185040, Note_on_c, 11, 54, 90
18, 185099, Note_on_c, 11, 54, 0
18, 185100, Note_on_c, 11, 54, 90
18, 185159, Note_on_c, 11, 54, 0
18, 185220, Note_on_c, 11, 62, 90
18, 185279, Note_on_c, 11, 62, 0
18, 185280, Note_on_c, 11, 62, 90
18, 185339, Note_on_c, 11, 62, 0
18, 185340, Note_on_c, 11, 67, 90
18, 185459, Note_on_c, 11, 67, 0
18, 185460, Note_on_c, 11, 59, 90
18, 185519, Note_on_c, 11, 59, 0
18, 185520, Note_on_c, 11, 60, 90
18, 185579, Note_on_c, 11, 60, 0
18, 185580, Note_on_c, 11, 60, 90
18, 185639, Note_on_c, 11, 60, 0
18, 185640, Note_on_c, 11, 60, 90
18, 185699, Note_on_c, 11, 60, 0
18, 185700, Note_on_c, 11, 59, 90
18, 185759, Note_on_c, 11, 59, 0
18, 185760, Note_on_c, 11, 57, 90
18, 185819, Note_on_c, 11, 57, 0
18, 185820, Note_on_c, 11, 59, 90
18, 185879, Note_on_c, 11, 59, 0
18, 185880, Note_on_c, 11, 60, 90
18, 185939, Note_on_c, 11, 60, 0
18, 185940, Note_on_c, 11, 57, 90
18, 185999, Note_on_c, 11, 57, 0
18, 186000, Note_on_c, 11, 62, 90
18, 186059, Note_on_c, 11, 62, 0
18, 186060, Note_on_c, 11, 60, 90
18, 186089, Note_on_c, 11, 60, 0
18, 186090, Note_on_c, 11, 59, 90
18, 186119, Note_on_c, 11, 59, 0
18, 186120, Note_on_c, 11, 57, 90
18, 186179, Note_on_c, 11, 57, 0
18, 186180, Note_on_c, 11, 62, 90
18, 186239, Note_on_c, 11, 62, 0
18, 186240, Note_on_c, 11, 59, 90
18, 186269, Note_on_c, 11, 59, 0
18, 186270, Note_on_c, 11, 57, 90
18, 186299, Note_on_c, 11, 57, 0
18, 186300, Note_on_c, 11, 59, 90
18, 186329, Note_on_c, 11, 59, 0
18, 186330, Note_on_c, 11, 60, 90
18, 186359, Note_on_c, 11, 60, 0
18, 186360, Note_on_c, 11, 62, 90
18, 186389, Note_on_c, 11, 62, 0
18, 186390, Note_on_c, 11, 60, 90
18, 186419, Note_on_c, 11, 60, 0
18, 186420, Note_on_c, 11, 62, 90
18, 186449, Note_on_c, 11, 62, 0
18, 186450, Note_on_c, 11, 59, 90
18, 186479, Note_on_c, 11, 59, 0
18, 186480, Note_on_c, 11, 64, 90
18, 186509, Note_on_c, 11, 64, 0
18, 186510, Note_on_c, 11, 62, 90
18, 186539, Note_on_c, 11, 62, 0
18, 186540, Note_on_c, 11, 64, 90
18, 186569, Note_on_c, 11, 64, 0
18, 186570, Note_on_c, 11, 66, 90
18, 186599, Note_on_c, 11, 66, 0
18, 186600, Note_on_c, 11, 67, 90
18, 186629, Note_on_c, 11, 67, 0
18, 186630, Note_on_c, 11, 66, 90
18, 186659, Note_on_c, 11, 66, 0
18, 186660, Note_on_c, 11, 64, 90
18, 186689, Note_on_c, 11, 64, 0
18, 186690, Note_on_c, 11, 62, 90
18, 186719, Note_on_c, 11, 62, 0
18, 186720, Note_on_c, 11, 60, 90
18, 186749, Note_on_c, 11, 60, 0
18, 186750, Note_on_c, 11, 59, 90
18, 186779, Note_on_c, 11, 59, 0
18, 186780, Note_on_c, 11, 60, 90
18, 186809, Note_on_c, 11, 60, 0
18, 186810, Note_on_c, 11, 62, 90
18, 186839, Note_on_c, 11, 62, 0
18, 186840, Note_on_c, 11, 64, 90
18, 186869, Note_on_c, 11, 64, 0
18, 186870, Note_on_c, 11, 62, 90
18, 186899, Note_on_c, 11, 62, 0
18, 186900, Note_on_c, 11, 60, 90
18, 186929, Note_on_c, 11, 60, 0
18, 186930, Note_on_c, 11, 59, 90
18, 186959, Note_on_c, 11, 59, 0
18, 186960, Note_on_c, 11, 57, 90
18, 186989, Note_on_c, 11, 57, 0
18, 186990, Note_on_c, 11, 55, 90
18, 187019, Note_on_c, 11, 55, 0
18, 187020, Note_on_c, 11, 57, 90
18, 187049, Note_on_c, 11, 57, 0
18, 187050, Note_on_c, 11, 59, 90
18, 187079, Note_on_c, 11, 59, 0
18, 187080, Note_on_c, 11, 60, 90
18, 187109, Note_on_c, 11, 60, 0
18, 187110, Note_on_c, 11, 59, 90
18, 187139, Note_on_c, 11, 59, 0
18, 187140, Note_on_c, 11, 57, 90
18, 187169, Note_on_c, 11, 57, 0
18, 187170, Note_on_c, 11, 55, 90
18, 187199, Note_on_c, 11, 55, 0
18, 187200, Note_on_c, 11, 62, 90
18, 187229, Note_on_c, 11, 62, 0
18, 187230, Note_on_c, 11, 57, 90
18, 187259, Note_on_c, 11, 57, 0
18, 187260, Note_on_c, 11, 62, 90
18, 187379, Note_on_c, 11, 62, 0
18, 187380, Note_on_c, 11, 61, 90
18, 187439, Note_on_c, 11, 61, 0
18, 187440, Note_on_c, 11, 62, 90
18, 187559, Note_on_c, 11, 62, 0
18, 187620, Note_on_c, 11, 62, 90
18, 187679, Note_on_c, 11, 62, 0
18, 187680, Note_on_c, 11, 62, 90
18, 187739, Note_on_c, 11, 62, 0
18, 187740, Note_on_c, 11, 64, 90
18, 187799, Note_on_c, 11, 64, 0
18, 187800, Note_on_c, 11, 65, 90
18, 187859, Note_on_c, 11, 65, 0
18, 187860, Note_on_c, 11, 62, 90
18, 187919, Note_on_c, 11, 62, 0
18, 187920, Note_on_c, 11, 60, 90
18, 187979, Note_on_c, 11, 60, 0
18, 187980, Note_on_c, 11, 59, 90
18, 188009, Note_on_c, 11, 59, 0
18, 188010, Note_on_c, 11, 57, 90
18, 188039, Note_on_c, 11, 57, 0
18, 188040, Note_on_c, 11, 55, 90
18, 188099, Note_on_c, 11, 55, 0
18, 188100, Note_on_c, 11, 60, 90
18, 188159, Note_on_c, 11, 60, 0
18, 188160, Note_on_c, 11, 64, 90
18, 188339, Note_on_c, 11, 64, 0
18, 188340, Note_on_c, 11, 63, 90
18, 188369, Note_on_c, 11, 63, 0
18, 188370, Note_on_c, 11, 64, 90
18, 188399, Note_on_c, 11, 64, 0
18, 188400, Note_on_c, 11, 66, 90
18, 188550, Note_on_c, 11, 66, 0
18, 188550, Note_on_c, 11, 67, 90
18, 188579, Note_on_c, 11, 67, 0
18, 188580, Note_on_c, 11, 66, 90
18, 188609, Note_on_c, 11, 66, 0
18, 188610, Note_on_c, 11, 64, 90
18, 188639, Note_on_c, 11, 64, 0
18, 188640, Note_on_c, 11, 63, 90
18, 188669, Note_on_c, 11, 63, 0
18, 188670, Note_on_c, 11, 61, 90
18, 188699, Note_on_c, 11, 61, 0
18, 188700, Note_on_c, 11, 63, 90
18, 188729, Note_on_c, 11, 63, 0
18, 188730, Note_on_c, 11, 64, 90
18, 188759, Note_on_c, 11, 64, 0
18, 188760, Note_on_c, 11, 66, 90
18, 188789, Note_on_c, 11, 66, 0
18, 188790, Note_on_c, 11, 64, 90
18, 188819, Note_on_c, 11, 64, 0
18, 188820, Note_on_c, 11, 63, 90
18, 188849, Note_on_c, 11, 63, 0
18, 188850, Note_on_c, 11, 61, 90
18, 188879, Note_on_c, 11, 61, 0
18, 188880, Note_on_c, 11, 59, 90
18, 188939, Note_on_c, 11, 59, 0
18, 188940, Note_on_c, 11, 64, 90
18, 188969, Note_on_c, 11, 64, 0
18, 188970, Note_on_c, 11, 66, 90
18, 188999, Note_on_c, 11, 66, 0
18, 189000, Note_on_c, 11, 63, 90
18, 189119, Note_on_c, 11, 63, 0
18, 189120, Note_on_c, 11, 64, 90
18, 189179, Note_on_c, 11, 64, 0
18, 189180, Note_on_c, 11, 59, 90
18, 189239, Note_on_c, 11, 59, 0
18, 189240, Note_on_c, 11, 64, 90
18, 189540, Note_on_c, 11, 64, 0
18, 189540, Note_on_c, 11, 64, 90
18, 189599, Note_on_c, 11, 64, 0
18, 189600, Note_on_c, 11, 62, 90
18, 189659, Note_on_c, 11, 62, 0
18, 189660, Note_on_c, 11, 60, 90
18, 189689, Note_on_c, 11, 60, 0
18, 189690, Note_on_c, 11, 59, 90
18, 189719, Note_on_c, 11, 59, 0
18, 189720, Note_on_c, 11, 57, 90
18, 189749, Note_on_c, 11, 57, 0
18, 189750, Note_on_c, 11, 59, 90
18, 189779, Note_on_c, 11, 59, 0
18, 189780, Note_on_c, 11, 60, 90
18, 189809, Note_on_c, 11, 60, 0
18, 189810, Note_on_c, 11, 57, 90
18, 189839, Note_on_c, 11, 57, 0
18, 189840, Note_on_c, 11, 62, 90
18, 189990, Note_on_c, 11, 62, 0
18, 189990, Note_on_c, 11, 64, 90
18, 190019, Note_on_c, 11, 64, 0
18, 190020, Note_on_c, 11, 65, 90
18, 190049, Note_on_c, 11, 65, 0
18, 190050, Note_on_c, 11, 62, 90
18, 190079, Note_on_c, 11, 62, 0
18, 190080, Note_on_c, 11, 67, 90
18, 190259, Note_on_c, 11, 67, 0
18, 190260, Note_on_c, 11, 59, 90
18, 190319, Note_on_c, 11, 59, 0
18, 190320, Note_on_c, 11, 60, 90
18, 190439, Note_on_c, 11, 60, 0
18, 190560, Note_on_c, 11, 57, 90
18, 190679, Note_on_c, 11, 57, 0
18, 190680, Note_on_c, 11, 62, 90
18, 190919, Note_on_c, 11, 62, 0
18, 190920, Note_on_c, 11, 60, 90
18, 190979, Note_on_c, 11, 60, 0
18, 190980, Note_on_c, 11, 59, 90
18, 191039, Note_on_c, 11, 59, 0
18, 191040, Note_on_c, 11, 57, 90
18, 191159, Note_on_c, 11, 57, 0
18, 191160, Note_on_c, 11, 57, 90
18, 191399, Note_on_c, 11, 57, 0
18, 191400, Note_on_c, 11, 55, 90
18, 191459, Note_on_c, 11, 55, 0
18, 191460, Note_on_c, 11, 53, 90
18, 191519, Note_on_c, 11, 53, 0
18, 191520, Note_on_c, 11, 52, 90
18, 191639, Note_on_c, 11, 52, 0
18, 191640, Note_on_c, 11, 60, 90
18, 191879, Note_on_c, 11, 60, 0
18, 191880, Note_on_c, 11, 59, 90
18, 191939, Note_on_c, 11, 59, 0
18, 191940, Note_on_c, 11, 57, 90
18, 191999, Note_on_c, 11, 57, 0
18, 192000, Note_on_c, 11, 55, 90
18, 192059, Note_on_c, 11, 55, 0
18, 192060, Note_on_c, 11, 64, 90
18, 192179, Note_on_c, 11, 64, 0
18, 192180, Note_on_c, 11, 62, 90
18, 192209, Note_on_c, 11, 62, 0
18, 192210, Note_on_c, 11, 60, 90
18, 192239, Note_on_c, 11, 60, 0
18, 192240, Note_on_c, 11, 62, 90
18, 192299, Note_on_c, 11, 62, 0
18, 192300, Note_on_c, 11, 54, 90
18, 192359, Note_on_c, 11, 54, 0
18, 192360, Note_on_c, 11, 55, 90
18, 192539, Note_on_c, 11, 55, 0
18, 192540, Note_on_c, 11, 54, 90
18, 192569, Note_on_c, 11, 54, 0
18, 192570, Note_on_c, 11, 52, 90
18, 192599, Note_on_c, 11, 52, 0
18, 192600, Note_on_c, 11, 54, 90
18, 192659, Note_on_c, 11, 54, 0
18, 192660, Note_on_c, 11, 55, 90
18, 192689, Note_on_c, 11, 55, 0
18, 192690, Note_on_c, 11, 57, 90
18, 192719, Note_on_c, 11, 57, 0
18, 192720, Note_on_c, 11, 59, 90
18, 192899, Note_on_c, 11, 59, 0
18, 192900, Note_on_c, 11, 57, 90
18, 192929, Note_on_c, 11, 57, 0
18, 192930, Note_on_c, 11, 59, 90
18, 192959, Note_on_c, 11, 59, 0
18, 192960, Note_on_c, 11, 60, 90
18, 193079, Note_on_c, 11, 60, 0
18, 193080, Note_on_c, 11, 59, 90
18, 193139, Note_on_c, 11, 59, 0
18, 193140, Note_on_c, 11, 59, 90
18, 193199, Note_on_c, 11, 59, 0
18, 193200, Note_on_c, 11, 59, 90
18, 193319, Note_on_c, 11, 59, 0
18, 193320, Note_on_c, 11, 57, 90
18, 193379, Note_on_c, 11, 57, 0
18, 193380, Note_on_c, 11, 57, 90
18, 193439, Note_on_c, 11, 57, 0
18, 193440, Note_on_c, 11, 59, 90
18, 193499, Note_on_c, 11, 59, 0
18, 193500, Note_on_c, 11, 60, 90
18, 193529, Note_on_c, 11, 60, 0
18, 193530, Note_on_c, 11, 62, 90
18, 193559, Note_on_c, 11, 62, 0
18, 193560, Note_on_c, 11, 64, 90
18, 193739, Note_on_c, 11, 64, 0
18, 193740, Note_on_c, 11, 57, 90
18, 193799, Note_on_c, 11, 57, 0
18, 193800, Note_on_c, 11, 57, 90
18, 193859, Note_on_c, 11, 57, 0
18, 193860, Note_on_c, 11, 57, 90
18, 193919, Note_on_c, 11, 57, 0
18, 193920, Note_on_c, 11, 55, 90
18, 193979, Note_on_c, 11, 55, 0
18, 193980, Note_on_c, 11, 64, 90
18, 194039, Note_on_c, 11, 64, 0
18, 194040, Note_on_c, 11, 62, 90
18, 194159, Note_on_c, 11, 62, 0
18, 194160, Note_on_c, 11, 62, 90
18, 194219, Note_on_c, 11, 62, 0
18, 194220, Note_on_c, 11, 55, 90
18, 194279, Note_on_c, 11, 55, 0
18, 194280, Note_on_c, 11, 62, 90
18, 194519, Note_on_c, 11, 62, 0
18, 194520, Note_on_c, 11, 60, 90
18, 194759, Note_on_c, 11, 60, 0
18, 194760, Note_on_c, 11, 59, 90
18, 194999, Note_on_c, 11, 59, 0
18, 195000, Note_on_c, 11, 57, 90
18, 195059, Note_on_c, 11, 57, 0
18, 195060, Note_on_c, 11, 57, 90
18, 195119, Note_on_c, 11, 57, 0
18, 195120, Note_on_c, 11, 62, 90
18, 195239, Note_on_c, 11, 62, 0
18, 195240, Note_on_c, 11, 62, 90
18, 195299, Note_on_c, 11, 62, 0
18, 195300, Note_on_c, 11, 55, 90
18, 195359, Note_on_c, 11, 55, 0
18, 195360, Note_on_c, 11, 64, 90
18, 195599, Note_on_c, 11, 64, 0
18, 195600, Note_on_c, 11, 62, 90
18, 195839, Note_on_c, 11, 62, 0
18, 195840, Note_on_c, 11, 60, 90
18, 195959, Note_on_c, 11, 60, 0
18, 195960, Note_on_c, 11, 60, 90
18, 196019, Note_on_c, 11, 60, 0
18, 196020, Note_on_c, 11, 60, 90
18, 196079, Note_on_c, 11, 60, 0
18, 196080, Note_on_c, 11, 62, 90
18, 196199, Note_on_c, 11, 62, 0
18, 196200, Note_on_c, 11, 62, 90
18, 196319, Note_on_c, 11, 62, 0
18, 196440, Note_on_c, 11, 60, 90
18, 196499, Note_on_c, 11, 60, 0
18, 196500, Note_on_c, 11, 59, 90
18, 196559, Note_on_c, 11, 59, 0
18, 196560, Note_on_c, 11, 57, 90
18, 196619, Note_on_c, 11, 57, 0
18, 196620, Note_on_c, 11, 59, 90
18, 196679, Note_on_c, 11, 59, 0
18, 196680, Note_on_c, 11, 60, 90
18, 196739, Note_on_c, 11, 60, 0
18, 196740, Note_on_c, 11, 64, 90
18, 196799, Note_on_c, 11, 64, 0
18, 196800, Note_on_c, 11, 62, 90
18, 196859, Note_on_c, 11, 62, 0
18, 196860, Note_on_c, 11, 57, 90
18, 196919, Note_on_c, 11, 57, 0
18, 196920, Note_on_c, 11, 62, 90
18, 197070, Note_on_c, 11, 62, 0
18, 197070, Note_on_c, 11, 64, 90
18, 197099, Note_on_c, 11, 64, 0
18, 197100, Note_on_c, 11, 62, 90
18, 197129, Note_on_c, 11, 62, 0
18, 197130, Note_on_c, 11, 60, 90
18, 197159, Note_on_c, 11, 60, 0
18, 197160, Note_on_c, 11, 59, 90
18, 197399, Note_on_c, 11, 59, 0
18, 197400, Note_on_c, 11, 58, 90
18, 197639, Note_on_c, 11, 58, 0
18, 197640, Note_on_c, 11, 57, 90
18, 197819, Note_on_c, 11, 57, 0
18, 197820, Note_on_c, 11, 55, 90
18, 197879, Note_on_c, 11, 55, 0
18, 197880, Note_on_c, 11, 57, 90
18, 197939, Note_on_c, 11, 57, 0
18, 197940, Note_on_c, 11, 59, 90
18, 197969, Note_on_c, 11, 59, 0
18, 197970, Note_on_c, 11, 60, 90
18, 197999, Note_on_c, 11, 60, 0
18, 198000, Note_on_c, 11, 59, 90
18, 198240, Note_on_c, 11, 59, 0
18, 201900, Note_on_c, 11, 62, 90
18, 202079, Note_on_c, 11, 62, 0
18, 202080, Note_on_c, 11, 62, 90
18, 202380, Note_on_c, 11, 62, 0
18, 202380, Note_on_c, 11, 61, 90
18, 202439, Note_on_c, 11, 61, 0
18, 202440, Note_on_c, 11, 62, 90
18, 202559, Note_on_c, 11, 62, 0
18, 202560, Note_on_c, 11, 60, 90
18, 202619, Note_on_c, 11, 60, 0
18, 202620, Note_on_c, 11, 60, 90
18, 202739, Note_on_c, 11, 60, 0
18, 202740, Note_on_c, 11, 59, 90
18, 202799, Note_on_c, 11, 59, 0
18, 202800, Note_on_c, 11, 59, 90
18, 202919, Note_on_c, 11, 59, 0
18, 202920, Note_on_c, 11, 57, 90
18, 202979, Note_on_c, 11, 57, 0
18, 202980, Note_on_c, 11, 62, 90
18, 203339, Note_on_c, 11, 62, 0
18, 204420, Note_on_c, 11, 62, 90
18, 204599, Note_on_c, 11, 62, 0
18, 204600, Note_on_c, 11, 64, 90
18, 204779, Note_on_c, 11, 64, 0
18, 204780, Note_on_c, 11, 66, 90
18, 204899, Note_on_c, 11, 66, 0
18, 204900, Note_on_c, 11, 67, 90
18, 204960, Note_on_c, 11, 67, 0
18, 204960, Note_on_c, 11, 62, 90
18, 205139, Note_on_c, 11, 62, 0
18, 205140, Note_on_c, 11, 62, 90
18, 205259, Note_on_c, 11, 62, 0
18, 205260, Note_on_c, 11, 64, 90
18, 205319, Note_on_c, 11, 64, 0
18, 205320, Note_on_c, 11, 57, 90
18, 205439, Note_on_c, 11, 57, 0
18, 205440, Note_on_c, 11, 59, 90
18, 205499, Note_on_c, 11, 59, 0
18, 205500, Note_on_c, 11, 60, 90
18, 205589, Note_on_c, 11, 60, 0
18, 205590, Note_on_c, 11, 64, 90
18, 205619, Note_on_c, 11, 64, 0
18, 205620, Note_on_c, 11, 63, 90
18, 205679, Note_on_c, 11, 63, 0
18, 205680, Note_on_c, 11, 64, 90
18, 205859, Note_on_c, 11, 64, 0
18, 206940, Note_on_c, 11, 64, 90
18, 207119, Note_on_c, 11, 64, 0
18, 207120, Note_on_c, 11, 64, 90
18, 207239, Note_on_c, 11, 64, 0
18, 207240, Note_on_c, 11, 62, 90
18, 207299, Note_on_c, 11, 62, 0
18, 207300, Note_on_c, 11, 60, 90
18, 207479, Note_on_c, 11, 60, 0
18, 207480, Note_on_c, 11, 59, 90
18, 207599, Note_on_c, 11, 59, 0
18, 207600, Note_on_c, 11, 61, 90
18, 207659, Note_on_c, 11, 61, 0
18, 207660, Note_on_c, 11, 62, 90
18, 207839, Note_on_c, 11, 62, 0
18, 207840, Note_on_c, 11, 55, 90
18, 207959, Note_on_c, 11, 55, 0
18, 207960, Note_on_c, 11, 62, 90
18, 208019, Note_on_c, 11, 62, 0
18, 208020, Note_on_c, 11, 62, 90
18, 208139, Note_on_c, 11, 62, 0
18, 208140, Note_on_c, 11, 61, 90
18, 208199, Note_on_c, 11, 61, 0
18, 208200, Note_on_c, 11, 66, 90
18, 208379, Note_on_c, 11, 66, 0
18, 209460, Note_on_c, 11, 64, 90
18, 209639, Note_on_c, 11, 64, 0
18, 209640, Note_on_c, 11, 64, 90
18, 209759, Note_on_c, 11, 64, 0
18, 209760, Note_on_c, 11, 62, 90
18, 209819, Note_on_c, 11, 62, 0
18, 209820, Note_on_c, 11, 62, 90
18, 209939, Note_on_c, 11, 62, 0
18, 209940, Note_on_c, 11, 60, 90
18, 209999, Note_on_c, 11, 60, 0
18, 210000, Note_on_c, 11, 60, 90
18, 210119, Note_on_c, 11, 60, 0
18, 210120, Note_on_c, 11, 59, 90
18, 210179, Note_on_c, 11, 59, 0
18, 210180, Note_on_c, 11, 60, 90
18, 210299, Note_on_c, 11, 60, 0
18, 210300, Note_on_c, 11, 59, 90
18, 210359, Note_on_c, 11, 59, 0
18, 210360, Note_on_c, 11, 60, 90
18, 210479, Note_on_c, 11, 60, 0
18, 210480, Note_on_c, 11, 62, 90
18, 210539, Note_on_c, 11, 62, 0
18, 210540, Note_on_c, 11, 64, 90
18, 210659, Note_on_c, 11, 64, 0
18, 210660, Note_on_c, 11, 62, 90
18, 210719, Note_on_c, 11, 62, 0
18, 210720, Note_on_c, 11, 59, 90
18, 210899, Note_on_c, 11, 59, 0
18, 210899, End_track
19, 0, Start_track
19, 0, MIDI_port, 0
19, 0, Title_t, "Basses"
19, 0, Program_c, 13, 52
19, 0, Control_c, 13, 7, 127
19, 0, Control_c, 13, 10, 42
19, 50520, Note_on_c, 13, 55, 90
19, 50579, Note_on_c, 13, 55, 0
19, 50580, Note_on_c, 13, 54, 90
19, 50639, Note_on_c, 13, 54, 0
19, 50640, Note_on_c, 13, 52, 90
19, 50759, Note_on_c, 13, 52, 0
19, 50760, Note_on_c, 13, 50, 90
19, 50879, Note_on_c, 13, 50, 0
19, 50880, Note_on_c, 13, 55, 90
19, 50999, Note_on_c, 13, 55, 0
19, 51000, Note_on_c, 13, 54, 90
19, 51059, Note_on_c, 13, 54, 0
19, 51060, Note_on_c, 13, 55, 90
19, 51119, Note_on_c, 13, 55, 0
19, 51120, Note_on_c, 13, 57, 90
19, 51239, Note_on_c, 13, 57, 0
19, 51240, Note_on_c, 13, 45, 90
19, 51359, Note_on_c, 13, 45, 0
19, 51360, Note_on_c, 13, 50, 90
19, 51449, Note_on_c, 13, 50, 0
19, 51480, Note_on_c, 13, 51, 90
19, 51599, Note_on_c, 13, 51, 0
19, 51600, Note_on_c, 13, 52, 90
19, 51659, Note_on_c, 13, 52, 0
19, 51660, Note_on_c, 13, 54, 90
19, 51719, Note_on_c, 13, 54, 0
19, 51720, Note_on_c, 13, 55, 90
19, 51779, Note_on_c, 13, 55, 0
19, 51780, Note_on_c, 13, 48, 90
19, 51839, Note_on_c, 13, 48, 0
19, 51840, Note_on_c, 13, 60, 90
19, 51899, Note_on_c, 13, 60, 0
19, 51900, Note_on_c, 13, 59, 90
19, 51959, Note_on_c, 13, 59, 0
19, 51960, Note_on_c, 13, 57, 90
19, 52019, Note_on_c, 13, 57, 0
19, 52020, Note_on_c, 13, 55, 90
19, 52079, Note_on_c, 13, 55, 0
19, 52080, Note_on_c, 13, 62, 90
19, 52199, Note_on_c, 13, 62, 0
19, 52200, Note_on_c, 13, 50, 90
19, 52319, Note_on_c, 13, 50, 0
19, 52320, Note_on_c, 13, 55, 90
19, 52409, Note_on_c, 13, 55, 0
19, 52440, Note_on_c, 13, 55, 90
19, 52499, Note_on_c, 13, 55, 0
19, 52500, Note_on_c, 13, 54, 90
19, 52559, Note_on_c, 13, 54, 0
19, 52560, Note_on_c, 13, 52, 90
19, 52679, Note_on_c, 13, 52, 0
19, 52680, Note_on_c, 13, 50, 90
19, 52799, Note_on_c, 13, 50, 0
19, 52800, Note_on_c, 13, 55, 90
19, 52919, Note_on_c, 13, 55, 0
19, 52920, Note_on_c, 13, 54, 90
19, 52979, Note_on_c, 13, 54, 0
19, 52980, Note_on_c, 13, 55, 90
19, 53039, Note_on_c, 13, 55, 0
19, 53040, Note_on_c, 13, 57, 90
19, 53159, Note_on_c, 13, 57, 0
19, 53160, Note_on_c, 13, 45, 90
19, 53279, Note_on_c, 13, 45, 0
19, 53280, Note_on_c, 13, 50, 90
19, 53369, Note_on_c, 13, 50, 0
19, 53400, Note_on_c, 13, 51, 90
19, 53519, Note_on_c, 13, 51, 0
19, 53520, Note_on_c, 13, 52, 90
19, 53579, Note_on_c, 13, 52, 0
19, 53580, Note_on_c, 13, 54, 90
19, 53639, Note_on_c, 13, 54, 0
19, 53640, Note_on_c, 13, 55, 90
19, 53699, Note_on_c, 13, 55, 0
19, 53700, Note_on_c, 13, 48, 90
19, 53759, Note_on_c, 13, 48, 0
19, 53760, Note_on_c, 13, 60, 90
19, 53819, Note_on_c, 13, 60, 0
19, 53820, Note_on_c, 13, 59, 90
19, 53879, Note_on_c, 13, 59, 0
19, 53880, Note_on_c, 13, 57, 90
19, 53939, Note_on_c, 13, 57, 0
19, 53940, Note_on_c, 13, 55, 90
19, 53999, Note_on_c, 13, 55, 0
19, 54000, Note_on_c, 13, 62, 90
19, 54119, Note_on_c, 13, 62, 0
19, 54120, Note_on_c, 13, 50, 90
19, 54239, Note_on_c, 13, 50, 0
19, 54240, Note_on_c, 13, 55, 90
19, 54329, Note_on_c, 13, 55, 0
19, 54360, Note_on_c, 13, 50, 90
19, 54479, Note_on_c, 13, 50, 0
19, 54480, Note_on_c, 13, 62, 90
19, 54539, Note_on_c, 13, 62, 0
19, 54540, Note_on_c, 13, 60, 90
19, 54599, Note_on_c, 13, 60, 0
19, 54600, Note_on_c, 13, 59, 90
19, 54719, Note_on_c, 13, 59, 0
19, 54720, Note_on_c, 13, 57, 90
19, 54839, Note_on_c, 13, 57, 0
19, 54840, Note_on_c, 13, 51, 90
19, 54959, Note_on_c, 13, 51, 0
19, 54960, Note_on_c, 13, 52, 90
19, 55079, Note_on_c, 13, 52, 0
19, 55080, Note_on_c, 13, 52, 90
19, 55199, Note_on_c, 13, 52, 0
19, 55200, Note_on_c, 13, 45, 90
19, 55289, Note_on_c, 13, 45, 0
19, 55320, Note_on_c, 13, 52, 90
19, 55379, Note_on_c, 13, 52, 0
19, 55380, Note_on_c, 13, 54, 90
19, 55439, Note_on_c, 13, 54, 0
19, 55440, Note_on_c, 13, 55, 90
19, 55559, Note_on_c, 13, 55, 0
19, 55560, Note_on_c, 13, 56, 90
19, 55679, Note_on_c, 13, 56, 0
19, 55680, Note_on_c, 13, 57, 90
19, 55799, Note_on_c, 13, 57, 0
19, 55800, Note_on_c, 13, 58, 90
19, 55919, Note_on_c, 13, 58, 0
19, 55920, Note_on_c, 13, 59, 90
19, 56039, Note_on_c, 13, 59, 0
19, 56040, Note_on_c, 13, 47, 90
19, 56159, Note_on_c, 13, 47, 0
19, 56160, Note_on_c, 13, 52, 90
19, 56249, Note_on_c, 13, 52, 0
19, 56280, Note_on_c, 13, 62, 90
19, 56339, Note_on_c, 13, 62, 0
19, 56340, Note_on_c, 13, 60, 90
19, 56399, Note_on_c, 13, 60, 0
19, 56400, Note_on_c, 13, 59, 90
19, 56459, Note_on_c, 13, 59, 0
19, 56460, Note_on_c, 13, 57, 90
19, 56519, Note_on_c, 13, 57, 0
19, 56520, Note_on_c, 13, 55, 90
19, 56579, Note_on_c, 13, 55, 0
19, 56580, Note_on_c, 13, 54, 90
19, 56639, Note_on_c, 13, 54, 0
19, 56640, Note_on_c, 13, 52, 90
19, 56699, Note_on_c, 13, 52, 0
19, 56700, Note_on_c, 13, 54, 90
19, 56759, Note_on_c, 13, 54, 0
19, 56760, Note_on_c, 13, 55, 90
19, 56819, Note_on_c, 13, 55, 0
19, 56820, Note_on_c, 13, 52, 90
19, 56879, Note_on_c, 13, 52, 0
19, 56880, Note_on_c, 13, 49, 90
19, 56939, Note_on_c, 13, 49, 0
19, 56940, Note_on_c, 13, 47, 90
19, 56999, Note_on_c, 13, 47, 0
19, 57000, Note_on_c, 13, 49, 90
19, 57059, Note_on_c, 13, 49, 0
19, 57060, Note_on_c, 13, 45, 90
19, 57119, Note_on_c, 13, 45, 0
19, 57120, Note_on_c, 13, 50, 90
19, 57209, Note_on_c, 13, 50, 0
19, 57240, Note_on_c, 13, 47, 90
19, 57359, Note_on_c, 13, 47, 0
19, 57360, Note_on_c, 13, 48, 90
19, 57479, Note_on_c, 13, 48, 0
19, 57480, Note_on_c, 13, 50, 90
19, 57599, Note_on_c, 13, 50, 0
19, 57600, Note_on_c, 13, 52, 90
19, 57659, Note_on_c, 13, 52, 0
19, 57660, Note_on_c, 13, 54, 90
19, 57719, Note_on_c, 13, 54, 0
19, 57720, Note_on_c, 13, 55, 90
19, 57839, Note_on_c, 13, 55, 0
19, 57840, Note_on_c, 13, 48, 90
19, 57959, Note_on_c, 13, 48, 0
19, 57960, Note_on_c, 13, 50, 90
19, 58079, Note_on_c, 13, 50, 0
19, 58080, Note_on_c, 13, 43, 90
19, 58199, Note_on_c, 13, 43, 0
19, 92940, Program_c, 13, 52
19, 93000, Note_on_c, 13, 48, 90
19, 93119, Note_on_c, 13, 48, 0
19, 93120, Note_on_c, 13, 55, 90
19, 93239, Note_on_c, 13, 55, 0
19, 93240, Note_on_c, 13, 57, 90
19, 93359, Note_on_c, 13, 57, 0
19, 93360, Note_on_c, 13, 51, 90
19, 93479, Note_on_c, 13, 51, 0
19, 93480, Note_on_c, 13, 52, 90
19, 93599, Note_on_c, 13, 52, 0
19, 93600, Note_on_c, 13, 53, 90
19, 93659, Note_on_c, 13, 53, 0
19, 93660, Note_on_c, 13, 52, 90
19, 93719, Note_on_c, 13, 52, 0
19, 93720, Note_on_c, 13, 50, 90
19, 93839, Note_on_c, 13, 50, 0
19, 93840, Note_on_c, 13, 48, 90
19, 93929, Note_on_c, 13, 48, 0
19, 93960, Note_on_c, 13, 45, 90
19, 94019, Note_on_c, 13, 45, 0
19, 94020, Note_on_c, 13, 47, 90
19, 94079, Note_on_c, 13, 47, 0
19, 94080, Note_on_c, 13, 48, 90
19, 94139, Note_on_c, 13, 48, 0
19, 94140, Note_on_c, 13, 50, 90
19, 94199, Note_on_c, 13, 50, 0
19, 94200, Note_on_c, 13, 52, 90
19, 94259, Note_on_c, 13, 52, 0
19, 94260, Note_on_c, 13, 53, 90
19, 94319, Note_on_c, 13, 53, 0
19, 94320, Note_on_c, 13, 55, 90
19, 94379, Note_on_c, 13, 55, 0
19, 94380, Note_on_c, 13, 57, 90
19, 94439, Note_on_c, 13, 57, 0
19, 94440, Note_on_c, 13, 58, 90
19, 94559, Note_on_c, 13, 58, 0
19, 94560, Note_on_c, 13, 52, 90
19, 94679, Note_on_c, 13, 52, 0
19, 94680, Note_on_c, 13, 53, 90
19, 94799, Note_on_c, 13, 53, 0
19, 94800, Note_on_c, 13, 48, 90
19, 94889, Note_on_c, 13, 48, 0
19, 94920, Note_on_c, 13, 57, 90
19, 94979, Note_on_c, 13, 57, 0
19, 94980, Note_on_c, 13, 55, 90
19, 95039, Note_on_c, 13, 55, 0
19, 95040, Note_on_c, 13, 53, 90
19, 95099, Note_on_c, 13, 53, 0
19, 95100, Note_on_c, 13, 52, 90
19, 95159, Note_on_c, 13, 52, 0
19, 95160, Note_on_c, 13, 50, 90
19, 95219, Note_on_c, 13, 50, 0
19, 95220, Note_on_c, 13, 48, 90
19, 95279, Note_on_c, 13, 48, 0
19, 95280, Note_on_c, 13, 47, 90
19, 95339, Note_on_c, 13, 47, 0
19, 95340, Note_on_c, 13, 45, 90
19, 95399, Note_on_c, 13, 45, 0
19, 95400, Note_on_c, 13, 43, 90
19, 95519, Note_on_c, 13, 43, 0
19, 95520, Note_on_c, 13, 45, 90
19, 95699, Note_on_c, 13, 45, 0
19, 95700, Note_on_c, 13, 47, 90
19, 95759, Note_on_c, 13, 47, 0
19, 95760, Note_on_c, 13, 48, 90
19, 95849, Note_on_c, 13, 48, 0
19, 95880, Note_on_c, 13, 48, 90
19, 95939, Note_on_c, 13, 48, 0
19, 95940, Note_on_c, 13, 50, 90
19, 95999, Note_on_c, 13, 50, 0
19, 96000, Note_on_c, 13, 52, 90
19, 96179, Note_on_c, 13, 52, 0
19, 96180, Note_on_c, 13, 50, 90
19, 96300, Note_on_c, 13, 50, 0
19, 96300, Note_on_c, 13, 48, 90
19, 96420, Note_on_c, 13, 48, 0
19, 96420, Note_on_c, 13, 47, 90
19, 96479, Note_on_c, 13, 47, 0
19, 96480, Note_on_c, 13, 45, 90
19, 96509, Note_on_c, 13, 45, 0
19, 96510, Note_on_c, 13, 47, 90
19, 96539, Note_on_c, 13, 47, 0
19, 96540, Note_on_c, 13, 48, 90
19, 96599, Note_on_c, 13, 48, 0
19, 96600, Note_on_c, 13, 55, 90
19, 96659, Note_on_c, 13, 55, 0
19, 96660, Note_on_c, 13, 43, 90
19, 96719, Note_on_c, 13, 43, 0
19, 96720, Note_on_c, 13, 48, 90
19, 96839, Note_on_c, 13, 48, 0
19, 167235, Program_c, 13, 52
19, 167280, Note_on_c, 13, 55, 90
19, 167339, Note_on_c, 13, 55, 0
19, 167340, Note_on_c, 13, 57, 90
19, 167399, Note_on_c, 13, 57, 0
19, 167400, Note_on_c, 13, 59, 90
19, 167459, Note_on_c, 13, 59, 0
19, 167460, Note_on_c, 13, 55, 90
19, 167519, Note_on_c, 13, 55, 0
19, 167520, Note_on_c, 13, 57, 90
19, 167579, Note_on_c, 13, 57, 0
19, 167580, Note_on_c, 13, 59, 90
19, 167639, Note_on_c, 13, 59, 0
19, 167640, Note_on_c, 13, 60, 90
19, 167699, Note_on_c, 13, 60, 0
19, 167700, Note_on_c, 13, 57, 90
19, 167759, Note_on_c, 13, 57, 0
19, 167760, Note_on_c, 13, 54, 90
19, 167879, Note_on_c, 13, 54, 0
19, 167880, Note_on_c, 13, 59, 90
19, 168119, Note_on_c, 13, 59, 0
19, 168120, Note_on_c, 13, 57, 90
19, 168179, Note_on_c, 13, 57, 0
19, 168180, Note_on_c, 13, 55, 90
19, 168239, Note_on_c, 13, 55, 0
19, 168240, Note_on_c, 13, 54, 90
19, 168359, Note_on_c, 13, 54, 0
19, 168360, Note_on_c, 13, 62, 90
19, 168599, Note_on_c, 13, 62, 0
19, 168600, Note_on_c, 13, 61, 90
19, 168659, Note_on_c, 13, 61, 0
19, 168660, Note_on_c, 13, 59, 90
19, 168719, Note_on_c, 13, 59, 0
19, 168720, Note_on_c, 13, 57, 90
19, 168779, Note_on_c, 13, 57, 0
19, 168780, Note_on_c, 13, 55, 90
19, 168839, Note_on_c, 13, 55, 0
19, 168840, Note_on_c, 13, 57, 90
19, 168899, Note_on_c, 13, 57, 0
19, 168900, Note_on_c, 13, 54, 90
19, 168959, Note_on_c, 13, 54, 0
19, 168960, Note_on_c, 13, 55, 90
19, 169019, Note_on_c, 13, 55, 0
19, 169020, Note_on_c, 13, 50, 90
19, 169079, Note_on_c, 13, 50, 0
19, 169080, Note_on_c, 13, 55, 90
19, 169259, Note_on_c, 13, 55, 0
19, 169260, Note_on_c, 13, 54, 90
19, 169289, Note_on_c, 13, 54, 0
19, 169290, Note_on_c, 13, 52, 90
19, 169319, Note_on_c, 13, 52, 0
19, 169320, Note_on_c, 13, 54, 90
19, 169379, Note_on_c, 13, 54, 0
19, 169380, Note_on_c, 13, 59, 90
19, 169439, Note_on_c, 13, 59, 0
19, 169440, Note_on_c, 13, 55, 90
19, 169499, Note_on_c, 13, 55, 0
19, 169500, Note_on_c, 13, 52, 90
19, 169559, Note_on_c, 13, 52, 0
19, 169560, Note_on_c, 13, 57, 90
19, 169619, Note_on_c, 13, 57, 0
19, 169620, Note_on_c, 13, 55, 90
19, 169679, Note_on_c, 13, 55, 0
19, 169680, Note_on_c, 13, 54, 90
19, 169739, Note_on_c, 13, 54, 0
19, 169740, Note_on_c, 13, 55, 90
19, 169769, Note_on_c, 13, 55, 0
19, 169770, Note_on_c, 13, 57, 90
19, 169799, Note_on_c, 13, 57, 0
19, 169800, Note_on_c, 13, 59, 90
19, 169859, Note_on_c, 13, 59, 0
19, 169860, Note_on_c, 13, 64, 90
19, 169919, Note_on_c, 13, 64, 0
19, 169920, Note_on_c, 13, 61, 90
19, 169979, Note_on_c, 13, 61, 0
19, 169980, Note_on_c, 13, 57, 90
19, 170039, Note_on_c, 13, 57, 0
19, 170040, Note_on_c, 13, 62, 90
19, 170099, Note_on_c, 13, 62, 0
19, 170100, Note_on_c, 13, 61, 90
19, 170159, Note_on_c, 13, 61, 0
19, 170160, Note_on_c, 13, 59, 90
19, 170219, Note_on_c, 13, 59, 0
19, 170220, Note_on_c, 13, 57, 90
19, 170249, Note_on_c, 13, 57, 0
19, 170250, Note_on_c, 13, 59, 90
19, 170279, Note_on_c, 13, 59, 0
19, 170280, Note_on_c, 13, 61, 90
19, 170339, Note_on_c, 13, 61, 0
19, 170340, Note_on_c, 13, 59, 90
19, 170369, Note_on_c, 13, 59, 0
19, 170370, Note_on_c, 13, 61, 90
19, 170399, Note_on_c, 13, 61, 0
19, 170400, Note_on_c, 13, 62, 90
19, 170459, Note_on_c, 13, 62, 0
19, 170460, Note_on_c, 13, 61, 90
19, 170519, Note_on_c, 13, 61, 0
19, 170520, Note_on_c, 13, 59, 90
19, 170579, Note_on_c, 13, 59, 0
19, 170580, Note_on_c, 13, 57, 90
19, 170639, Note_on_c, 13, 57, 0
19, 170640, Note_on_c, 13, 55, 90
19, 170759, Note_on_c, 13, 55, 0
19, 170760, Note_on_c, 13, 57, 90
19, 170819, Note_on_c, 13, 57, 0
19, 170820, Note_on_c, 13, 57, 90
19, 170879, Note_on_c, 13, 57, 0
19, 170880, Note_on_c, 13, 59, 90
19, 170939, Note_on_c, 13, 59, 0
19, 170940, Note_on_c, 13, 55, 90
19, 170999, Note_on_c, 13, 55, 0
19, 171000, Note_on_c, 13, 57, 90
19, 171119, Note_on_c, 13, 57, 0
19, 171120, Note_on_c, 13, 57, 90
19, 171239, Note_on_c, 13, 57, 0
19, 171240, Note_on_c, 13, 62, 90
19, 171479, Note_on_c, 13, 62, 0
19, 171480, Note_on_c, 13, 60, 90
19, 171539, Note_on_c, 13, 60, 0
19, 171540, Note_on_c, 13, 59, 90
19, 171599, Note_on_c, 13, 59, 0
19, 171600, Note_on_c, 13, 57, 90
19, 171719, Note_on_c, 13, 57, 0
19, 171720, Note_on_c, 13, 57, 90
19, 171959, Note_on_c, 13, 57, 0
19, 171960, Note_on_c, 13, 55, 90
19, 172019, Note_on_c, 13, 55, 0
19, 172020, Note_on_c, 13, 54, 90
19, 172079, Note_on_c, 13, 54, 0
19, 172080, Note_on_c, 13, 52, 90
19, 172139, Note_on_c, 13, 52, 0
19, 172140, Note_on_c, 13, 54, 90
19, 172199, Note_on_c, 13, 54, 0
19, 172200, Note_on_c, 13, 55, 90
19, 172259, Note_on_c, 13, 55, 0
19, 172260, Note_on_c, 13, 52, 90
19, 172319, Note_on_c, 13, 52, 0
19, 172320, Note_on_c, 13, 54, 90
19, 172379, Note_on_c, 13, 54, 0
19, 172380, Note_on_c, 13, 56, 90
19, 172439, Note_on_c, 13, 56, 0
19, 172440, Note_on_c, 13, 57, 90
19, 172499, Note_on_c, 13, 57, 0
19, 172500, Note_on_c, 13, 54, 90
19, 172559, Note_on_c, 13, 54, 0
19, 172560, Note_on_c, 13, 56, 90
19, 172619, Note_on_c, 13, 56, 0
19, 172620, Note_on_c, 13, 57, 90
19, 172679, Note_on_c, 13, 57, 0
19, 172680, Note_on_c, 13, 59, 90
19, 172739, Note_on_c, 13, 59, 0
19, 172740, Note_on_c, 13, 56, 90
19, 172799, Note_on_c, 13, 56, 0
19, 172800, Note_on_c, 13, 57, 90
19, 172859, Note_on_c, 13, 57, 0
19, 172860, Note_on_c, 13, 52, 90
19, 172919, Note_on_c, 13, 52, 0
19, 172920, Note_on_c, 13, 57, 90
19, 173099, Note_on_c, 13, 57, 0
19, 173100, Note_on_c, 13, 55, 90
19, 173129, Note_on_c, 13, 55, 0
19, 173130, Note_on_c, 13, 54, 90
19, 173159, Note_on_c, 13, 54, 0
19, 173160, Note_on_c, 13, 55, 90
19, 173219, Note_on_c, 13, 55, 0
19, 173220, Note_on_c, 13, 60, 90
19, 173279, Note_on_c, 13, 60, 0
19, 173280, Note_on_c, 13, 57, 90
19, 173339, Note_on_c, 13, 57, 0
19, 173340, Note_on_c, 13, 54, 90
19, 173399, Note_on_c, 13, 54, 0
19, 173400, Note_on_c, 13, 59, 90
19, 173459, Note_on_c, 13, 59, 0
19, 173460, Note_on_c, 13, 57, 90
19, 173519, Note_on_c, 13, 57, 0
19, 173520, Note_on_c, 13, 55, 90
19, 173579, Note_on_c, 13, 55, 0
19, 173580, Note_on_c, 13, 57, 90
19, 173609, Note_on_c, 13, 57, 0
19, 173610, Note_on_c, 13, 59, 90
19, 173639, Note_on_c, 13, 59, 0
19, 173640, Note_on_c, 13, 60, 90
19, 173699, Note_on_c, 13, 60, 0
19, 173700, Note_on_c, 13, 57, 90
19, 173759, Note_on_c, 13, 57, 0
19, 173760, Note_on_c, 13, 63, 90
19, 173819, Note_on_c, 13, 63, 0
19, 173820, Note_on_c, 13, 59, 90
19, 173879, Note_on_c, 13, 59, 0
19, 173880, Note_on_c, 13, 64, 90
19, 173939, Note_on_c, 13, 64, 0
19, 173940, Note_on_c, 13, 62, 90
19, 173999, Note_on_c, 13, 62, 0
19, 174000, Note_on_c, 13, 61, 90
19, 174059, Note_on_c, 13, 61, 0
19, 174060, Note_on_c, 13, 59, 90
19, 174089, Note_on_c, 13, 59, 0
19, 174090, Note_on_c, 13, 61, 90
19, 174119, Note_on_c, 13, 61, 0
19, 174120, Note_on_c, 13, 63, 90
19, 174179, Note_on_c, 13, 63, 0
19, 174180, Note_on_c, 13, 61, 90
19, 174209, Note_on_c, 13, 61, 0
19, 174210, Note_on_c, 13, 63, 90
19, 174239, Note_on_c, 13, 63, 0
19, 174240, Note_on_c, 13, 64, 90
19, 174299, Note_on_c, 13, 64, 0
19, 174300, Note_on_c, 13, 62, 90
19, 174359, Note_on_c, 13, 62, 0
19, 174360, Note_on_c, 13, 60, 90
19, 174419, Note_on_c, 13, 60, 0
19, 174420, Note_on_c, 13, 59, 90
19, 174479, Note_on_c, 13, 59, 0
19, 174480, Note_on_c, 13, 57, 90
19, 174539, Note_on_c, 13, 57, 0
19, 174540, Note_on_c, 13, 55, 90
19, 174569, Note_on_c, 13, 55, 0
19, 174570, Note_on_c, 13, 57, 90
19, 174599, Note_on_c, 13, 57, 0
19, 174600, Note_on_c, 13, 59, 90
19, 174659, Note_on_c, 13, 59, 0
19, 174660, Note_on_c, 13, 57, 90
19, 174689, Note_on_c, 13, 57, 0
19, 174690, Note_on_c, 13, 59, 90
19, 174719, Note_on_c, 13, 59, 0
19, 174720, Note_on_c, 13, 60, 90
19, 174779, Note_on_c, 13, 60, 0
19, 174780, Note_on_c, 13, 57, 90
19, 174839, Note_on_c, 13, 57, 0
19, 174840, Note_on_c, 13, 59, 90
19, 174899, Note_on_c, 13, 59, 0
19, 174900, Note_on_c, 13, 47, 90
19, 174959, Note_on_c, 13, 47, 0
19, 174960, Note_on_c, 13, 52, 90
19, 175079, Note_on_c, 13, 52, 0
19, 175080, Note_on_c, 13, 55, 90
19, 175139, Note_on_c, 13, 55, 0
19, 175140, Note_on_c, 13, 52, 90
19, 175199, Note_on_c, 13, 52, 0
19, 175200, Note_on_c, 13, 54, 90
19, 175259, Note_on_c, 13, 54, 0
19, 175260, Note_on_c, 13, 55, 90
19, 175319, Note_on_c, 13, 55, 0
19, 175320, Note_on_c, 13, 57, 90
19, 175379, Note_on_c, 13, 57, 0
19, 175380, Note_on_c, 13, 54, 90
19, 175439, Note_on_c, 13, 54, 0
19, 175440, Note_on_c, 13, 56, 90
19, 175499, Note_on_c, 13, 56, 0
19, 175500, Note_on_c, 13, 57, 90
19, 175529, Note_on_c, 13, 57, 0
19, 175530, Note_on_c, 13, 59, 90
19, 175559, Note_on_c, 13, 59, 0
19, 175560, Note_on_c, 13, 52, 90
19, 175679, Note_on_c, 13, 52, 0
19, 175680, Note_on_c, 13, 52, 90
19, 175799, Note_on_c, 13, 52, 0
19, 175800, Note_on_c, 13, 57, 90
19, 175979, Note_on_c, 13, 57, 0
19, 175980, Note_on_c, 13, 55, 90
19, 176039, Note_on_c, 13, 55, 0
19, 176040, Note_on_c, 13, 57, 90
19, 176099, Note_on_c, 13, 57, 0
19, 176100, Note_on_c, 13, 50, 90
19, 176159, Note_on_c, 13, 50, 0
19, 176160, Note_on_c, 13, 55, 90
19, 176219, Note_on_c, 13, 55, 0
19, 176220, Note_on_c, 13, 59, 90
19, 176279, Note_on_c, 13, 59, 0
19, 176280, Note_on_c, 13, 64, 90
19, 176519, Note_on_c, 13, 64, 0
19, 176520, Note_on_c, 13, 62, 90
19, 176579, Note_on_c, 13, 62, 0
19, 176580, Note_on_c, 13, 54, 90
19, 176639, Note_on_c, 13, 54, 0
19, 176640, Note_on_c, 13, 55, 90
19, 176699, Note_on_c, 13, 55, 0
19, 176700, Note_on_c, 13, 47, 90
19, 176759, Note_on_c, 13, 47, 0
19, 176760, Note_on_c, 13, 52, 90
19, 176939, Note_on_c, 13, 52, 0
19, 176940, Note_on_c, 13, 50, 90
19, 176969, Note_on_c, 13, 50, 0
19, 176970, Note_on_c, 13, 49, 90
19, 176999, Note_on_c, 13, 49, 0
19, 177000, Note_on_c, 13, 50, 90
19, 177059, Note_on_c, 13, 50, 0
19, 177060, Note_on_c, 13, 55, 90
19, 177119, Note_on_c, 13, 55, 0
19, 177120, Note_on_c, 13, 52, 90
19, 177179, Note_on_c, 13, 52, 0
19, 177180, Note_on_c, 13, 49, 90
19, 177239, Note_on_c, 13, 49, 0
19, 177240, Note_on_c, 13, 54, 90
19, 177299, Note_on_c, 13, 54, 0
19, 177300, Note_on_c, 13, 52, 90
19, 177359, Note_on_c, 13, 52, 0
19, 177360, Note_on_c, 13, 50, 90
19, 177419, Note_on_c, 13, 50, 0
19, 177420, Note_on_c, 13, 52, 90
19, 177449, Note_on_c, 13, 52, 0
19, 177450, Note_on_c, 13, 54, 90
19, 177479, Note_on_c, 13, 54, 0
19, 177480, Note_on_c, 13, 55, 90
19, 177539, Note_on_c, 13, 55, 0
19, 177540, Note_on_c, 13, 52, 90
19, 177599, Note_on_c, 13, 52, 0
19, 177600, Note_on_c, 13, 58, 90
19, 177659, Note_on_c, 13, 58, 0
19, 177660, Note_on_c, 13, 54, 90
19, 177719, Note_on_c, 13, 54, 0
19, 177720, Note_on_c, 13, 59, 90
19, 177779, Note_on_c, 13, 59, 0
19, 177780, Note_on_c, 13, 57, 90
19, 177839, Note_on_c, 13, 57, 0
19, 177840, Note_on_c, 13, 56, 90
19, 177899, Note_on_c, 13, 56, 0
19, 177900, Note_on_c, 13, 54, 90
19, 177929, Note_on_c, 13, 54, 0
19, 177930, Note_on_c, 13, 56, 90
19, 177959, Note_on_c, 13, 56, 0
19, 177960, Note_on_c, 13, 58, 90
19, 178019, Note_on_c, 13, 58, 0
19, 178020, Note_on_c, 13, 56, 90
19, 178049, Note_on_c, 13, 56, 0
19, 178050, Note_on_c, 13, 58, 90
19, 178079, Note_on_c, 13, 58, 0
19, 178080, Note_on_c, 13, 59, 90
19, 178139, Note_on_c, 13, 59, 0
19, 178140, Note_on_c, 13, 57, 90
19, 178199, Note_on_c, 13, 57, 0
19, 178200, Note_on_c, 13, 55, 90
19, 178259, Note_on_c, 13, 55, 0
19, 178260, Note_on_c, 13, 54, 90
19, 178319, Note_on_c, 13, 54, 0
19, 178320, Note_on_c, 13, 52, 90
19, 178439, Note_on_c, 13, 52, 0
19, 178440, Note_on_c, 13, 54, 90
19, 178499, Note_on_c, 13, 54, 0
19, 178500, Note_on_c, 13, 54, 90
19, 178559, Note_on_c, 13, 54, 0
19, 178560, Note_on_c, 13, 55, 90
19, 178619, Note_on_c, 13, 55, 0
19, 178620, Note_on_c, 13, 52, 90
19, 178679, Note_on_c, 13, 52, 0
19, 178680, Note_on_c, 13, 54, 90
19, 178799, Note_on_c, 13, 54, 0
19, 178800, Note_on_c, 13, 47, 90
19, 178919, Note_on_c, 13, 47, 0
19, 179400, Note_on_c, 13, 47, 90
19, 179519, Note_on_c, 13, 47, 0
19, 179520, Note_on_c, 13, 47, 90
19, 179639, Note_on_c, 13, 47, 0
19, 179640, Note_on_c, 13, 47, 90
19, 179699, Note_on_c, 13, 47, 0
19, 179700, Note_on_c, 13, 47, 90
19, 179759, Note_on_c, 13, 47, 0
19, 179760, Note_on_c, 13, 52, 90
19, 179879, Note_on_c, 13, 52, 0
19, 179880, Note_on_c, 13, 52, 90
19, 179999, Note_on_c, 13, 52, 0
19, 180360, Note_on_c, 13, 52, 90
19, 180479, Note_on_c, 13, 52, 0
19, 180480, Note_on_c, 13, 52, 90
19, 180599, Note_on_c, 13, 52, 0
19, 180600, Note_on_c, 13, 52, 90
19, 180659, Note_on_c, 13, 52, 0
19, 180660, Note_on_c, 13, 52, 90
19, 180719, Note_on_c, 13, 52, 0
19, 180720, Note_on_c, 13, 45, 90
19, 180839, Note_on_c, 13, 45, 0
19, 180840, Note_on_c, 13, 45, 90
19, 180959, Note_on_c, 13, 45, 0
19, 181320, Note_on_c, 13, 45, 90
19, 181439, Note_on_c, 13, 45, 0
19, 181440, Note_on_c, 13, 45, 90
19, 181559, Note_on_c, 13, 45, 0
19, 181560, Note_on_c, 13, 45, 90
19, 181619, Note_on_c, 13, 45, 0
19, 181620, Note_on_c, 13, 45, 90
19, 181679, Note_on_c, 13, 45, 0
19, 181680, Note_on_c, 13, 50, 90
19, 181799, Note_on_c, 13, 50, 0
19, 181800, Note_on_c, 13, 50, 90
19, 181919, Note_on_c, 13, 50, 0
19, 183000, Note_on_c, 13, 55, 90
19, 183059, Note_on_c, 13, 55, 0
19, 183060, Note_on_c, 13, 54, 90
19, 183119, Note_on_c, 13, 54, 0
19, 183120, Note_on_c, 13, 52, 90
19, 183179, Note_on_c, 13, 52, 0
19, 183180, Note_on_c, 13, 54, 90
19, 183239, Note_on_c, 13, 54, 0
19, 183240, Note_on_c, 13, 55, 90
19, 183299, Note_on_c, 13, 55, 0
19, 183300, Note_on_c, 13, 52, 90
19, 183359, Note_on_c, 13, 52, 0
19, 183360, Note_on_c, 13, 57, 90
19, 183419, Note_on_c, 13, 57, 0
19, 183420, Note_on_c, 13, 55, 90
19, 183449, Note_on_c, 13, 55, 0
19, 183450, Note_on_c, 13, 54, 90
19, 183479, Note_on_c, 13, 54, 0
19, 183480, Note_on_c, 13, 52, 90
19, 183539, Note_on_c, 13, 52, 0
19, 183540, Note_on_c, 13, 57, 90
19, 183599, Note_on_c, 13, 57, 0
19, 183600, Note_on_c, 13, 54, 90
19, 183629, Note_on_c, 13, 54, 0
19, 183630, Note_on_c, 13, 52, 90
19, 183659, Note_on_c, 13, 52, 0
19, 183660, Note_on_c, 13, 54, 90
19, 183689, Note_on_c, 13, 54, 0
19, 183690, Note_on_c, 13, 55, 90
19, 183719, Note_on_c, 13, 55, 0
19, 183720, Note_on_c, 13, 57, 90
19, 183749, Note_on_c, 13, 57, 0
19, 183750, Note_on_c, 13, 55, 90
19, 183779, Note_on_c, 13, 55, 0
19, 183780, Note_on_c, 13, 54, 90
19, 183809, Note_on_c, 13, 54, 0
19, 183810, Note_on_c, 13, 52, 90
19, 183839, Note_on_c, 13, 52, 0
19, 183840, Note_on_c, 13, 50, 90
19, 183869, Note_on_c, 13, 50, 0
19, 183870, Note_on_c, 13, 49, 90
19, 183899, Note_on_c, 13, 49, 0
19, 183900, Note_on_c, 13, 50, 90
19, 183929, Note_on_c, 13, 50, 0
19, 183930, Note_on_c, 13, 52, 90
19, 183959, Note_on_c, 13, 52, 0
19, 183960, Note_on_c, 13, 54, 90
19, 183989, Note_on_c, 13, 54, 0
19, 183990, Note_on_c, 13, 52, 90
19, 184019, Note_on_c, 13, 52, 0
19, 184020, Note_on_c, 13, 54, 90
19, 184049, Note_on_c, 13, 54, 0
19, 184050, Note_on_c, 13, 50, 90
19, 184079, Note_on_c, 13, 50, 0
19, 184080, Note_on_c, 13, 55, 90
19, 184109, Note_on_c, 13, 55, 0
19, 184110, Note_on_c, 13, 54, 90
19, 184139, Note_on_c, 13, 54, 0
19, 184140, Note_on_c, 13, 55, 90
19, 184169, Note_on_c, 13, 55, 0
19, 184170, Note_on_c, 13, 57, 90
19, 184199, Note_on_c, 13, 57, 0
19, 184200, Note_on_c, 13, 59, 90
19, 184229, Note_on_c, 13, 59, 0
19, 184230, Note_on_c, 13, 57, 90
19, 184259, Note_on_c, 13, 57, 0
19, 184260, Note_on_c, 13, 55, 90
19, 184289, Note_on_c, 13, 55, 0
19, 184290, Note_on_c, 13, 54, 90
19, 184319, Note_on_c, 13, 54, 0
19, 184320, Note_on_c, 13, 52, 90
19, 184349, Note_on_c, 13, 52, 0
19, 184350, Note_on_c, 13, 50, 90
19, 184379, Note_on_c, 13, 50, 0
19, 184380, Note_on_c, 13, 52, 90
19, 184409, Note_on_c, 13, 52, 0
19, 184410, Note_on_c, 13, 54, 90
19, 184439, Note_on_c, 13, 54, 0
19, 184440, Note_on_c, 13, 55, 90
19, 184499, Note_on_c, 13, 55, 0
19, 184500, Note_on_c, 13, 52, 90
19, 184559, Note_on_c, 13, 52, 0
19, 184560, Note_on_c, 13, 57, 90
19, 184619, Note_on_c, 13, 57, 0
19, 184620, Note_on_c, 13, 45, 90
19, 184679, Note_on_c, 13, 45, 0
19, 184680, Note_on_c, 13, 57, 90
19, 184739, Note_on_c, 13, 57, 0
19, 184740, Note_on_c, 13, 55, 90
19, 184799, Note_on_c, 13, 55, 0
19, 184800, Note_on_c, 13, 54, 90
19, 184859, Note_on_c, 13, 54, 0
19, 184860, Note_on_c, 13, 55, 90
19, 184919, Note_on_c, 13, 55, 0
19, 184920, Note_on_c, 13, 57, 90
19, 184979, Note_on_c, 13, 57, 0
19, 184980, Note_on_c, 13, 54, 90
19, 185039, Note_on_c, 13, 54, 0
19, 185040, Note_on_c, 13, 59, 90
19, 185099, Note_on_c, 13, 59, 0
19, 185100, Note_on_c, 13, 57, 90
19, 185129, Note_on_c, 13, 57, 0
19, 185130, Note_on_c, 13, 55, 90
19, 185159, Note_on_c, 13, 55, 0
19, 185160, Note_on_c, 13, 54, 90
19, 185219, Note_on_c, 13, 54, 0
19, 185220, Note_on_c, 13, 59, 90
19, 185279, Note_on_c, 13, 59, 0
19, 185280, Note_on_c, 13, 55, 90
19, 185309, Note_on_c, 13, 55, 0
19, 185310, Note_on_c, 13, 54, 90
19, 185339, Note_on_c, 13, 54, 0
19, 185340, Note_on_c, 13, 55, 90
19, 185369, Note_on_c, 13, 55, 0
19, 185370, Note_on_c, 13, 57, 90
19, 185399, Note_on_c, 13, 57, 0
19, 185400, Note_on_c, 13, 59, 90
19, 185429, Note_on_c, 13, 59, 0
19, 185430, Note_on_c, 13, 57, 90
19, 185459, Note_on_c, 13, 57, 0
19, 185460, Note_on_c, 13, 59, 90
19, 185489, Note_on_c, 13, 59, 0
19, 185490, Note_on_c, 13, 55, 90
19, 185519, Note_on_c, 13, 55, 0
19, 185520, Note_on_c, 13, 60, 90
19, 185579, Note_on_c, 13, 60, 0
19, 185580, Note_on_c, 13, 48, 90
19, 185639, Note_on_c, 13, 48, 0
19, 187320, Note_on_c, 13, 54, 90
19, 187379, Note_on_c, 13, 54, 0
19, 187380, Note_on_c, 13, 52, 90
19, 187439, Note_on_c, 13, 52, 0
19, 187440, Note_on_c, 13, 50, 90
19, 187499, Note_on_c, 13, 50, 0
19, 187500, Note_on_c, 13, 52, 90
19, 187559, Note_on_c, 13, 52, 0
19, 187560, Note_on_c, 13, 54, 90
19, 187619, Note_on_c, 13, 54, 0
19, 187620, Note_on_c, 13, 50, 90
19, 187679, Note_on_c, 13, 50, 0
19, 187680, Note_on_c, 13, 55, 90
19, 187739, Note_on_c, 13, 55, 0
19, 187740, Note_on_c, 13, 54, 90
19, 187769, Note_on_c, 13, 54, 0
19, 187770, Note_on_c, 13, 52, 90
19, 187799, Note_on_c, 13, 52, 0
19, 187800, Note_on_c, 13, 50, 90
19, 187859, Note_on_c, 13, 50, 0
19, 187860, Note_on_c, 13, 55, 90
19, 187919, Note_on_c, 13, 55, 0
19, 187920, Note_on_c, 13, 48, 90
19, 187949, Note_on_c, 13, 48, 0
19, 187950, Note_on_c, 13, 47, 90
19, 187979, Note_on_c, 13, 47, 0
19, 187980, Note_on_c, 13, 48, 90
19, 188009, Note_on_c, 13, 48, 0
19, 188010, Note_on_c, 13, 50, 90
19, 188039, Note_on_c, 13, 50, 0
19, 188040, Note_on_c, 13, 52, 90
19, 188069, Note_on_c, 13, 52, 0
19, 188070, Note_on_c, 13, 50, 90
19, 188099, Note_on_c, 13, 50, 0
19, 188100, Note_on_c, 13, 48, 90
19, 188129, Note_on_c, 13, 48, 0
19, 188130, Note_on_c, 13, 47, 90
19, 188159, Note_on_c, 13, 47, 0
19, 188160, Note_on_c, 13, 45, 90
19, 188219, Note_on_c, 13, 45, 0
19, 188220, Note_on_c, 13, 45, 90
19, 188279, Note_on_c, 13, 45, 0
19, 188280, Note_on_c, 13, 57, 90
19, 188339, Note_on_c, 13, 57, 0
19, 188340, Note_on_c, 13, 55, 90
19, 188399, Note_on_c, 13, 55, 0
19, 188400, Note_on_c, 13, 54, 90
19, 188459, Note_on_c, 13, 54, 0
19, 188460, Note_on_c, 13, 55, 90
19, 188519, Note_on_c, 13, 55, 0
19, 188520, Note_on_c, 13, 57, 90
19, 188579, Note_on_c, 13, 57, 0
19, 188580, Note_on_c, 13, 54, 90
19, 188639, Note_on_c, 13, 54, 0
19, 188640, Note_on_c, 13, 59, 90
19, 188699, Note_on_c, 13, 59, 0
19, 188700, Note_on_c, 13, 57, 90
19, 188729, Note_on_c, 13, 57, 0
19, 188730, Note_on_c, 13, 55, 90
19, 188759, Note_on_c, 13, 55, 0
19, 188760, Note_on_c, 13, 54, 90
19, 188819, Note_on_c, 13, 54, 0
19, 188820, Note_on_c, 13, 59, 90
19, 188879, Note_on_c, 13, 59, 0
19, 188880, Note_on_c, 13, 55, 90
19, 188909, Note_on_c, 13, 55, 0
19, 188910, Note_on_c, 13, 54, 90
19, 188939, Note_on_c, 13, 54, 0
19, 188940, Note_on_c, 13, 55, 90
19, 188969, Note_on_c, 13, 55, 0
19, 188970, Note_on_c, 13, 57, 90
19, 188999, Note_on_c, 13, 57, 0
19, 189000, Note_on_c, 13, 59, 90
19, 189029, Note_on_c, 13, 59, 0
19, 189030, Note_on_c, 13, 57, 90
19, 189059, Note_on_c, 13, 57, 0
19, 189060, Note_on_c, 13, 55, 90
19, 189089, Note_on_c, 13, 55, 0
19, 189090, Note_on_c, 13, 54, 90
19, 189119, Note_on_c, 13, 54, 0
19, 189120, Note_on_c, 13, 52, 90
19, 189149, Note_on_c, 13, 52, 0
19, 189150, Note_on_c, 13, 51, 90
19, 189179, Note_on_c, 13, 51, 0
19, 189180, Note_on_c, 13, 52, 90
19, 189209, Note_on_c, 13, 52, 0
19, 189210, Note_on_c, 13, 54, 90
19, 189239, Note_on_c, 13, 54, 0
19, 189240, Note_on_c, 13, 55, 90
19, 189269, Note_on_c, 13, 55, 0
19, 189270, Note_on_c, 13, 54, 90
19, 189299, Note_on_c, 13, 54, 0
19, 189300, Note_on_c, 13, 55, 90
19, 189329, Note_on_c, 13, 55, 0
19, 189330, Note_on_c, 13, 52, 90
19, 189359, Note_on_c, 13, 52, 0
19, 189360, Note_on_c, 13, 57, 90
19, 189389, Note_on_c, 13, 57, 0
19, 189390, Note_on_c, 13, 55, 90
19, 189419, Note_on_c, 13, 55, 0
19, 189420, Note_on_c, 13, 57, 90
19, 189449, Note_on_c, 13, 57, 0
19, 189450, Note_on_c, 13, 59, 90
19, 189479, Note_on_c, 13, 59, 0
19, 189480, Note_on_c, 13, 60, 90
19, 189509, Note_on_c, 13, 60, 0
19, 189510, Note_on_c, 13, 59, 90
19, 189539, Note_on_c, 13, 59, 0
19, 189540, Note_on_c, 13, 60, 90
19, 189569, Note_on_c, 13, 60, 0
19, 189570, Note_on_c, 13, 57, 90
19, 189599, Note_on_c, 13, 57, 0
19, 189600, Note_on_c, 13, 62, 90
19, 189659, Note_on_c, 13, 62, 0
19, 189660, Note_on_c, 13, 50, 90
19, 189719, Note_on_c, 13, 50, 0
19, 189780, Note_on_c, 13, 57, 90
19, 189839, Note_on_c, 13, 57, 0
19, 189840, Note_on_c, 13, 59, 90
19, 189899, Note_on_c, 13, 59, 0
19, 189900, Note_on_c, 13, 60, 90
19, 189959, Note_on_c, 13, 60, 0
19, 189960, Note_on_c, 13, 62, 90
19, 190019, Note_on_c, 13, 62, 0
19, 190020, Note_on_c, 13, 59, 90
19, 190079, Note_on_c, 13, 59, 0
19, 190080, Note_on_c, 13, 55, 90
19, 190109, Note_on_c, 13, 55, 0
19, 190110, Note_on_c, 13, 54, 90
19, 190139, Note_on_c, 13, 54, 0
19, 190140, Note_on_c, 13, 55, 90
19, 190169, Note_on_c, 13, 55, 0
19, 190170, Note_on_c, 13, 57, 90
19, 190199, Note_on_c, 13, 57, 0
19, 190200, Note_on_c, 13, 59, 90
19, 190259, Note_on_c, 13, 59, 0
19, 190260, Note_on_c, 13, 55, 90
19, 190319, Note_on_c, 13, 55, 0
19, 190320, Note_on_c, 13, 60, 90
19, 190379, Note_on_c, 13, 60, 0
19, 190380, Note_on_c, 13, 48, 90
19, 190439, Note_on_c, 13, 48, 0
19, 191040, Note_on_c, 13, 48, 90
19, 191159, Note_on_c, 13, 48, 0
19, 191160, Note_on_c, 13, 53, 90
19, 191399, Note_on_c, 13, 53, 0
19, 191400, Note_on_c, 13, 52, 90
19, 191459, Note_on_c, 13, 52, 0
19, 191460, Note_on_c, 13, 50, 90
19, 191519, Note_on_c, 13, 50, 0
19, 191520, Note_on_c, 13, 48, 90
19, 191639, Note_on_c, 13, 48, 0
19, 191640, Note_on_c, 13, 57, 90
19, 191879, Note_on_c, 13, 57, 0
19, 191880, Note_on_c, 13, 55, 90
19, 191939, Note_on_c, 13, 55, 0
19, 191940, Note_on_c, 13, 54, 90
19, 191999, Note_on_c, 13, 54, 0
19, 192000, Note_on_c, 13, 52, 90
19, 192059, Note_on_c, 13, 52, 0
19, 192060, Note_on_c, 13, 55, 90
19, 192119, Note_on_c, 13, 55, 0
19, 192120, Note_on_c, 13, 60, 90
19, 192299, Note_on_c, 13, 60, 0
19, 192300, Note_on_c, 13, 59, 90
19, 192329, Note_on_c, 13, 59, 0
19, 192330, Note_on_c, 13, 57, 90
19, 192359, Note_on_c, 13, 57, 0
19, 192360, Note_on_c, 13, 59, 90
19, 192419, Note_on_c, 13, 59, 0
19, 192420, Note_on_c, 13, 64, 90
19, 192479, Note_on_c, 13, 64, 0
19, 192480, Note_on_c, 13, 60, 90
19, 192539, Note_on_c, 13, 60, 0
19, 192540, Note_on_c, 13, 57, 90
19, 192599, Note_on_c, 13, 57, 0
19, 192600, Note_on_c, 13, 62, 90
19, 192659, Note_on_c, 13, 62, 0
19, 192660, Note_on_c, 13, 60, 90
19, 192719, Note_on_c, 13, 60, 0
19, 192720, Note_on_c, 13, 59, 90
19, 192779, Note_on_c, 13, 59, 0
19, 192780, Note_on_c, 13, 60, 90
19, 192809, Note_on_c, 13, 60, 0
19, 192810, Note_on_c, 13, 62, 90
19, 192839, Note_on_c, 13, 62, 0
19, 192840, Note_on_c, 13, 52, 90
19, 192899, Note_on_c, 13, 52, 0
19, 192900, Note_on_c, 13, 57, 90
19, 192959, Note_on_c, 13, 57, 0
19, 192960, Note_on_c, 13, 54, 90
19, 193019, Note_on_c, 13, 54, 0
19, 193020, Note_on_c, 13, 50, 90
19, 193079, Note_on_c, 13, 50, 0
19, 193080, Note_on_c, 13, 55, 90
19, 193139, Note_on_c, 13, 55, 0
19, 193140, Note_on_c, 13, 54, 90
19, 193199, Note_on_c, 13, 54, 0
19, 193200, Note_on_c, 13, 52, 90
19, 193259, Note_on_c, 13, 52, 0
19, 193260, Note_on_c, 13, 50, 90
19, 193289, Note_on_c, 13, 50, 0
19, 193290, Note_on_c, 13, 52, 90
19, 193319, Note_on_c, 13, 52, 0
19, 193320, Note_on_c, 13, 54, 90
19, 193379, Note_on_c, 13, 54, 0
19, 193380, Note_on_c, 13, 52, 90
19, 193409, Note_on_c, 13, 52, 0
19, 193410, Note_on_c, 13, 54, 90
19, 193439, Note_on_c, 13, 54, 0
19, 193440, Note_on_c, 13, 55, 90
19, 193499, Note_on_c, 13, 55, 0
19, 193500, Note_on_c, 13, 54, 90
19, 193559, Note_on_c, 13, 54, 0
19, 193560, Note_on_c, 13, 52, 90
19, 193619, Note_on_c, 13, 52, 0
19, 193620, Note_on_c, 13, 50, 90
19, 193679, Note_on_c, 13, 50, 0
19, 193680, Note_on_c, 13, 48, 90
19, 193799, Note_on_c, 13, 48, 0
19, 193800, Note_on_c, 13, 50, 90
19, 193859, Note_on_c, 13, 50, 0
19, 193860, Note_on_c, 13, 50, 90
19, 193919, Note_on_c, 13, 50, 0
19, 193920, Note_on_c, 13, 52, 90
19, 193979, Note_on_c, 13, 52, 0
19, 193980, Note_on_c, 13, 48, 90
19, 194039, Note_on_c, 13, 48, 0
19, 194040, Note_on_c, 13, 50, 90
19, 194159, Note_on_c, 13, 50, 0
19, 194160, Note_on_c, 13, 55, 90
19, 194279, Note_on_c, 13, 55, 0
19, 194760, Note_on_c, 13, 55, 90
19, 194879, Note_on_c, 13, 55, 0
19, 194880, Note_on_c, 13, 55, 90
19, 194999, Note_on_c, 13, 55, 0
19, 195000, Note_on_c, 13, 55, 90
19, 195059, Note_on_c, 13, 55, 0
19, 195060, Note_on_c, 13, 55, 90
19, 195119, Note_on_c, 13, 55, 0
19, 195120, Note_on_c, 13, 55, 90
19, 195179, Note_on_c, 13, 55, 0
19, 195180, Note_on_c, 13, 43, 90
19, 195239, Note_on_c, 13, 43, 0
19, 195240, Note_on_c, 13, 62, 90
19, 195479, Note_on_c, 13, 62, 0
19, 195480, Note_on_c, 13, 60, 90
19, 195719, Note_on_c, 13, 60, 0
19, 195720, Note_on_c, 13, 59, 90
19, 195959, Note_on_c, 13, 59, 0
19, 195960, Note_on_c, 13, 57, 90
19, 196019, Note_on_c, 13, 57, 0
19, 196020, Note_on_c, 13, 57, 90
19, 196079, Note_on_c, 13, 57, 0
19, 196080, Note_on_c, 13, 55, 90
19, 196199, Note_on_c, 13, 55, 0
19, 196200, Note_on_c, 13, 43, 90
19, 196319, Note_on_c, 13, 43, 0
19, 196680, Note_on_c, 13, 48, 90
19, 196739, Note_on_c, 13, 48, 0
19, 196740, Note_on_c, 13, 45, 90
19, 196799, Note_on_c, 13, 45, 0
19, 196800, Note_on_c, 13, 50, 90
19, 196859, Note_on_c, 13, 50, 0
19, 196860, Note_on_c, 13, 52, 90
19, 196919, Note_on_c, 13, 52, 0
19, 196920, Note_on_c, 13, 54, 90
19, 196979, Note_on_c, 13, 54, 0
19, 196980, Note_on_c, 13, 50, 90
19, 197039, Note_on_c, 13, 50, 0
19, 197040, Note_on_c, 13, 55, 90
19, 197069, Note_on_c, 13, 55, 0
19, 197070, Note_on_c, 13, 54, 90
19, 197099, Note_on_c, 13, 54, 0
19, 197100, Note_on_c, 13, 55, 90
19, 197129, Note_on_c, 13, 55, 0
19, 197130, Note_on_c, 13, 57, 90
19, 197159, Note_on_c, 13, 57, 0
19, 197160, Note_on_c, 13, 59, 90
19, 197189, Note_on_c, 13, 59, 0
19, 197190, Note_on_c, 13, 57, 90
19, 197219, Note_on_c, 13, 57, 0
19, 197220, Note_on_c, 13, 55, 90
19, 197249, Note_on_c, 13, 55, 0
19, 197250, Note_on_c, 13, 54, 90
19, 197279, Note_on_c, 13, 54, 0
19, 197280, Note_on_c, 13, 52, 90
19, 197309, Note_on_c, 13, 52, 0
19, 197310, Note_on_c, 13, 50, 90
19, 197339, Note_on_c, 13, 50, 0
19, 197340, Note_on_c, 13, 52, 90
19, 197369, Note_on_c, 13, 52, 0
19, 197370, Note_on_c, 13, 54, 90
19, 197399, Note_on_c, 13, 54, 0
19, 197400, Note_on_c, 13, 55, 90
19, 197429, Note_on_c, 13, 55, 0
19, 197430, Note_on_c, 13, 54, 90
19, 197459, Note_on_c, 13, 54, 0
19, 197460, Note_on_c, 13, 52, 90
19, 197489, Note_on_c, 13, 52, 0
19, 197490, Note_on_c, 13, 50, 90
19, 197519, Note_on_c, 13, 50, 0
19, 197520, Note_on_c, 13, 49, 90
19, 197759, Note_on_c, 13, 49, 0
19, 197760, Note_on_c, 13, 50, 90
19, 197999, Note_on_c, 13, 50, 0
19, 198000, Note_on_c, 13, 43, 90
19, 198240, Note_on_c, 13, 43, 0
19, 201855, Program_c, 13, 52
19, 201900, Note_on_c, 13, 55, 90
19, 202079, Note_on_c, 13, 55, 0
19, 202080, Note_on_c, 13, 62, 90
19, 202259, Note_on_c, 13, 62, 0
19, 202260, Note_on_c, 13, 55, 90
19, 202379, Note_on_c, 13, 55, 0
19, 202380, Note_on_c, 13, 57, 90
19, 202439, Note_on_c, 13, 57, 0
19, 202440, Note_on_c, 13, 50, 90
19, 202619, Note_on_c, 13, 50, 0
19, 202620, Note_on_c, 13, 55, 90
19, 202799, Note_on_c, 13, 55, 0
19, 202800, Note_on_c, 13, 48, 90
19, 202979, Note_on_c, 13, 48, 0
19, 202980, Note_on_c, 13, 50, 90
19, 203159, Note_on_c, 13, 50, 0
19, 203160, Note_on_c, 13, 43, 90
19, 203339, Note_on_c, 13, 43, 0
19, 204420, Note_on_c, 13, 55, 90
19, 204539, Note_on_c, 13, 55, 0
19, 204540, Note_on_c, 13, 54, 90
19, 204599, Note_on_c, 13, 54, 0
19, 204600, Note_on_c, 13, 52, 90
19, 204779, Note_on_c, 13, 52, 0
19, 204780, Note_on_c, 13, 59, 90
19, 204959, Note_on_c, 13, 59, 0
19, 204960, Note_on_c, 13, 54, 90
19, 205139, Note_on_c, 13, 54, 0
19, 205140, Note_on_c, 13, 55, 90
19, 205259, Note_on_c, 13, 55, 0
19, 205260, Note_on_c, 13, 52, 90
19, 205319, Note_on_c, 13, 52, 0
19, 205320, Note_on_c, 13, 54, 90
19, 205439, Note_on_c, 13, 54, 0
19, 205440, Note_on_c, 13, 56, 90
19, 205499, Note_on_c, 13, 56, 0
19, 205500, Note_on_c, 13, 57, 90
19, 205679, Note_on_c, 13, 57, 0
19, 205680, Note_on_c, 13, 52, 90
19, 205859, Note_on_c, 13, 52, 0
19, 206940, Note_on_c, 13, 52, 90
19, 207059, Note_on_c, 13, 52, 0
19, 207060, Note_on_c, 13, 50, 90
19, 207119, Note_on_c, 13, 50, 0
19, 207120, Note_on_c, 13, 48, 90
19, 207239, Note_on_c, 13, 48, 0
19, 207240, Note_on_c, 13, 50, 90
19, 207299, Note_on_c, 13, 50, 0
19, 207300, Note_on_c, 13, 52, 90
19, 207419, Note_on_c, 13, 52, 0
19, 207420, Note_on_c, 13, 48, 90
19, 207479, Note_on_c, 13, 48, 0
19, 207480, Note_on_c, 13, 55, 90
19, 207659, Note_on_c, 13, 55, 0
19, 207660, Note_on_c, 13, 54, 90
19, 207779, Note_on_c, 13, 54, 0
19, 207780, Note_on_c, 13, 59, 90
19, 207839, Note_on_c, 13, 59, 0
19, 207840, Note_on_c, 13, 52, 90
19, 207959, Note_on_c, 13, 52, 0
19, 207960, Note_on_c, 13, 54, 90
19, 208019, Note_on_c, 13, 54, 0
19, 208020, Note_on_c, 13, 55, 90
19, 208139, Note_on_c, 13, 55, 0
19, 208140, Note_on_c, 13, 57, 90
19, 208199, Note_on_c, 13, 57, 0
19, 208200, Note_on_c, 13, 50, 90
19, 208379, Note_on_c, 13, 50, 0
19, 209460, Note_on_c, 13, 52, 90
19, 209579, Note_on_c, 13, 52, 0
19, 209580, Note_on_c, 13, 55, 90
19, 209639, Note_on_c, 13, 55, 0
19, 209640, Note_on_c, 13, 57, 90
19, 209759, Note_on_c, 13, 57, 0
19, 209760, Note_on_c, 13, 59, 90
19, 209819, Note_on_c, 13, 59, 0
19, 209820, Note_on_c, 13, 55, 90
19, 209939, Note_on_c, 13, 55, 0
19, 209940, Note_on_c, 13, 57, 90
19, 209999, Note_on_c, 13, 57, 0
19, 210000, Note_on_c, 13, 54, 90
19, 210119, Note_on_c, 13, 54, 0
19, 210120, Note_on_c, 13, 55, 90
19, 210179, Note_on_c, 13, 55, 0
19, 210180, Note_on_c, 13, 48, 90
19, 210299, Note_on_c, 13, 48, 0
19, 210300, Note_on_c, 13, 50, 90
19, 210359, Note_on_c, 13, 50, 0
19, 210360, Note_on_c, 13, 52, 90
19, 210479, Note_on_c, 13, 52, 0
19, 210480, Note_on_c, 13, 50, 90
19, 210539, Note_on_c, 13, 50, 0
19, 210540, Note_on_c, 13, 48, 90
19, 210659, Note_on_c, 13, 48, 0
19, 210660, Note_on_c, 13, 50, 90
19, 210719, Note_on_c, 13, 50, 0
19, 210720, Note_on_c, 13, 43, 90
19, 210899, Note_on_c, 13, 43, 0
19, 210899, End_track
20, 0, Start_track
20, 0, MIDI_port, 0
20, 0, Title_t, "cello"
20, 0, Program_c, 14, 42
20, 0, Control_c, 14, 7, 127
20, 0, Control_c, 14, 10, 64
20, 0, Note_on_c, 14, 55, 100
20, 120, Note_on_c, 14, 55, 0
20, 120, Note_on_c, 14, 54, 100
20, 180, Note_on_c, 14, 54, 0
20, 180, Note_on_c, 14, 54, 100
20, 300, Note_on_c, 14, 54, 0
20, 300, Note_on_c, 14, 52, 100
20, 360, Note_on_c, 14, 52, 0
20, 360, Note_on_c, 14, 52, 100
20, 480, Note_on_c, 14, 52, 0
20, 480, Note_on_c, 14, 50, 100
20, 540, Note_on_c, 14, 50, 0
20, 540, Note_on_c, 14, 50, 100
20, 660, Note_on_c, 14, 50, 0
20, 660, Note_on_c, 14, 48, 100
20, 720, Note_on_c, 14, 48, 0
20, 720, Note_on_c, 14, 48, 100
20, 840, Note_on_c, 14, 48, 0
20, 840, Note_on_c, 14, 45, 100
20, 900, Note_on_c, 14, 45, 0
20, 900, Note_on_c, 14, 50, 100
20, 1020, Note_on_c, 14, 50, 0
20, 1020, Note_on_c, 14, 38, 100
20, 1080, Note_on_c, 14, 38, 0
20, 1080, Note_on_c, 14, 43, 100
20, 1200, Note_on_c, 14, 43, 0
20, 1260, Note_on_c, 14, 47, 100
20, 1380, Note_on_c, 14, 47, 0
20, 1440, Note_on_c, 14, 48, 100
20, 1560, Note_on_c, 14, 48, 0
20, 1620, Note_on_c, 14, 45, 100
20, 1740, Note_on_c, 14, 45, 0
20, 1800, Note_on_c, 14, 47, 100
20, 1920, Note_on_c, 14, 47, 0
20, 1980, Note_on_c, 14, 43, 100
20, 2100, Note_on_c, 14, 43, 0
20, 2160, Note_on_c, 14, 40, 100
20, 2280, Note_on_c, 14, 40, 0
20, 2280, Note_on_c, 14, 42, 100
20, 2340, Note_on_c, 14, 42, 0
20, 2340, Note_on_c, 14, 43, 100
20, 2460, Note_on_c, 14, 43, 0
20, 2460, Note_on_c, 14, 36, 100
20, 2520, Note_on_c, 14, 36, 0
20, 2520, Note_on_c, 14, 38, 100
20, 2610, Note_on_c, 14, 38, 0
20, 2610, Note_on_c, 14, 45, 100
20, 2640, Note_on_c, 14, 45, 0
20, 2640, Note_on_c, 14, 50, 100
20, 2700, Note_on_c, 14, 50, 0
20, 2700, Note_on_c, 14, 50, 100
20, 2790, Note_on_c, 14, 50, 0
20, 2790, Note_on_c, 14, 48, 100
20, 2820, Note_on_c, 14, 48, 0
20, 2820, Note_on_c, 14, 50, 100
20, 2880, Note_on_c, 14, 50, 0
20, 2880, Note_on_c, 14, 43, 100
20, 2970, Note_on_c, 14, 43, 0
20, 2970, Note_on_c, 14, 47, 100
20, 3000, Note_on_c, 14, 47, 0
20, 3000, Note_on_c, 14, 50, 100
20, 3060, Note_on_c, 14, 50, 0
20, 3060, Note_on_c, 14, 50, 100
20, 3150, Note_on_c, 14, 50, 0
20, 3150, Note_on_c, 14, 48, 100
20, 3180, Note_on_c, 14, 48, 0
20, 3180, Note_on_c, 14, 50, 100
20, 3240, Note_on_c, 14, 50, 0
20, 3240, Note_on_c, 14, 40, 100
20, 3330, Note_on_c, 14, 40, 0
20, 3330, Note_on_c, 14, 47, 100
20, 3360, Note_on_c, 14, 47, 0
20, 3360, Note_on_c, 14, 52, 100
20, 3420, Note_on_c, 14, 52, 0
20, 3420, Note_on_c, 14, 52, 100
20, 3510, Note_on_c, 14, 52, 0
20, 3510, Note_on_c, 14, 50, 100
20, 3540, Note_on_c, 14, 50, 0
20, 3540, Note_on_c, 14, 52, 100
20, 3600, Note_on_c, 14, 52, 0
20, 3600, Note_on_c, 14, 45, 100
20, 3690, Note_on_c, 14, 45, 0
20, 3690, Note_on_c, 14, 49, 100
20, 3720, Note_on_c, 14, 49, 0
20, 3720, Note_on_c, 14, 52, 100
20, 3780, Note_on_c, 14, 52, 0
20, 3780, Note_on_c, 14, 52, 100
20, 3870, Note_on_c, 14, 52, 0
20, 3870, Note_on_c, 14, 50, 100
20, 3900, Note_on_c, 14, 50, 0
20, 3900, Note_on_c, 14, 52, 100
20, 3960, Note_on_c, 14, 52, 0
20, 3960, Note_on_c, 14, 49, 100
20, 4050, Note_on_c, 14, 49, 0
20, 4050, Note_on_c, 14, 52, 100
20, 4080, Note_on_c, 14, 52, 0
20, 4080, Note_on_c, 14, 55, 100
20, 4140, Note_on_c, 14, 55, 0
20, 4140, Note_on_c, 14, 55, 100
20, 4230, Note_on_c, 14, 55, 0
20, 4230, Note_on_c, 14, 54, 100
20, 4260, Note_on_c, 14, 54, 0
20, 4260, Note_on_c, 14, 55, 100
20, 4320, Note_on_c, 14, 55, 0
20, 4320, Note_on_c, 14, 52, 100
20, 4410, Note_on_c, 14, 52, 0
20, 4410, Note_on_c, 14, 55, 100
20, 4440, Note_on_c, 14, 55, 0
20, 4440, Note_on_c, 14, 61, 100
20, 4500, Note_on_c, 14, 61, 0
20, 4500, Note_on_c, 14, 61, 100
20, 4590, Note_on_c, 14, 61, 0
20, 4590, Note_on_c, 14, 59, 100
20, 4620, Note_on_c, 14, 59, 0
20, 4620, Note_on_c, 14, 61, 100
20, 4680, Note_on_c, 14, 61, 0
20, 4680, Note_on_c, 14, 62, 100
20, 4800, Note_on_c, 14, 62, 0
20, 4800, Note_on_c, 14, 59, 100
20, 4860, Note_on_c, 14, 59, 0
20, 4860, Note_on_c, 14, 57, 100
20, 4980, Note_on_c, 14, 57, 0
20, 4980, Note_on_c, 14, 55, 100
20, 5040, Note_on_c, 14, 55, 0
20, 5040, Note_on_c, 14, 54, 100
20, 5160, Note_on_c, 14, 54, 0
20, 5160, Note_on_c, 14, 55, 100
20, 5220, Note_on_c, 14, 55, 0
20, 5220, Note_on_c, 14, 54, 100
20, 5340, Note_on_c, 14, 54, 0
20, 5340, Note_on_c, 14, 52, 100
20, 5400, Note_on_c, 14, 52, 0
20, 5400, Note_on_c, 14, 54, 100
20, 5520, Note_on_c, 14, 54, 0
20, 5520, Note_on_c, 14, 59, 100
20, 5580, Note_on_c, 14, 59, 0
20, 5580, Note_on_c, 14, 57, 100
20, 5700, Note_on_c, 14, 57, 0
20, 5700, Note_on_c, 14, 45, 100
20, 5760, Note_on_c, 14, 45, 0
20, 5760, Note_on_c, 14, 50, 100
20, 5880, Note_on_c, 14, 50, 0
20, 5880, Note_on_c, 14, 48, 100
20, 5940, Note_on_c, 14, 48, 0
20, 5940, Note_on_c, 14, 47, 100
20, 6060, Note_on_c, 14, 47, 0
20, 6060, Note_on_c, 14, 45, 100
20, 6120, Note_on_c, 14, 45, 0
20, 6120, Note_on_c, 14, 43, 100
20, 6300, Note_on_c, 14, 43, 0
20, 7200, Note_on_c, 14, 55, 100
20, 7320, Note_on_c, 14, 55, 0
20, 7320, Note_on_c, 14, 54, 100
20, 7380, Note_on_c, 14, 54, 0
20, 7380, Note_on_c, 14, 54, 100
20, 7500, Note_on_c, 14, 54, 0
20, 7500, Note_on_c, 14, 52, 100
20, 7560, Note_on_c, 14, 52, 0
20, 7560, Note_on_c, 14, 52, 100
20, 7680, Note_on_c, 14, 52, 0
20, 8640, Note_on_c, 14, 52, 100
20, 8760, Note_on_c, 14, 52, 0
20, 8760, Note_on_c, 14, 50, 100
20, 8820, Note_on_c, 14, 50, 0
20, 8820, Note_on_c, 14, 50, 100
20, 8940, Note_on_c, 14, 50, 0
20, 8940, Note_on_c, 14, 48, 100
20, 9000, Note_on_c, 14, 48, 0
20, 9000, Note_on_c, 14, 48, 100
20, 9120, Note_on_c, 14, 48, 0
20, 10080, Note_on_c, 14, 48, 100
20, 10200, Note_on_c, 14, 48, 0
20, 10260, Note_on_c, 14, 45, 100
20, 10380, Note_on_c, 14, 45, 0
20, 10440, Note_on_c, 14, 47, 100
20, 10560, Note_on_c, 14, 47, 0
20, 10620, Note_on_c, 14, 43, 100
20, 10740, Note_on_c, 14, 43, 0
20, 10800, Note_on_c, 14, 40, 100
20, 10920, Note_on_c, 14, 40, 0
20, 10920, Note_on_c, 14, 42, 100
20, 10980, Note_on_c, 14, 42, 0
20, 10980, Note_on_c, 14, 43, 100
20, 11100, Note_on_c, 14, 43, 0
20, 11100, Note_on_c, 14, 36, 100
20, 11160, Note_on_c, 14, 36, 0
20, 11160, Note_on_c, 14, 38, 100
20, 11280, Note_on_c, 14, 38, 0
20, 11280, Note_on_c, 14, 50, 100
20, 11340, Note_on_c, 14, 50, 0
20, 11340, Note_on_c, 14, 52, 100
20, 11460, Note_on_c, 14, 52, 0
20, 11460, Note_on_c, 14, 54, 100
20, 11520, Note_on_c, 14, 54, 0
20, 11520, Note_on_c, 14, 55, 100
20, 11640, Note_on_c, 14, 55, 0
20, 11640, Note_on_c, 14, 43, 100
20, 11700, Note_on_c, 14, 43, 0
20, 11700, Note_on_c, 14, 45, 100
20, 11820, Note_on_c, 14, 45, 0
20, 11820, Note_on_c, 14, 47, 100
20, 11880, Note_on_c, 14, 47, 0
20, 11880, Note_on_c, 14, 48, 100
20, 12000, Note_on_c, 14, 48, 0
20, 12000, Note_on_c, 14, 60, 100
20, 12060, Note_on_c, 14, 60, 0
20, 12060, Note_on_c, 14, 59, 100
20, 12180, Note_on_c, 14, 59, 0
20, 12180, Note_on_c, 14, 52, 100
20, 12240, Note_on_c, 14, 52, 0
20, 12240, Note_on_c, 14, 57, 100
20, 12360, Note_on_c, 14, 57, 0
20, 12360, Note_on_c, 14, 55, 100
20, 12420, Note_on_c, 14, 55, 0
20, 12420, Note_on_c, 14, 54, 100
20, 12540, Note_on_c, 14, 54, 0
20, 12540, Note_on_c, 14, 47, 100
20, 12600, Note_on_c, 14, 47, 0
20, 12600, Note_on_c, 14, 52, 100
20, 12720, Note_on_c, 14, 52, 0
20, 12960, Note_on_c, 14, 40, 100
20, 13080, Note_on_c, 14, 40, 0
20, 13320, Note_on_c, 14, 52, 100
20, 13440, Note_on_c, 14, 52, 0
20, 13680, Note_on_c, 14, 40, 100
20, 13800, Note_on_c, 14, 40, 0
20, 14040, Note_on_c, 14, 48, 100
20, 14130, Note_on_c, 14, 48, 0
20, 14130, Note_on_c, 14, 52, 100
20, 14160, Note_on_c, 14, 52, 0
20, 14160, Note_on_c, 14, 57, 100
20, 14220, Note_on_c, 14, 57, 0
20, 14220, Note_on_c, 14, 57, 100
20, 14310, Note_on_c, 14, 57, 0
20, 14310, Note_on_c, 14, 55, 100
20, 14340, Note_on_c, 14, 55, 0
20, 14340, Note_on_c, 14, 57, 100
20, 14400, Note_on_c, 14, 57, 0
20, 14400, Note_on_c, 14, 47, 100
20, 14490, Note_on_c, 14, 47, 0
20, 14490, Note_on_c, 14, 52, 100
20, 14520, Note_on_c, 14, 52, 0
20, 14520, Note_on_c, 14, 59, 100
20, 14580, Note_on_c, 14, 59, 0
20, 14580, Note_on_c, 14, 59, 100
20, 14670, Note_on_c, 14, 59, 0
20, 14670, Note_on_c, 14, 57, 100
20, 14700, Note_on_c, 14, 57, 0
20, 14700, Note_on_c, 14, 59, 100
20, 14760, Note_on_c, 14, 59, 0
20, 14760, Note_on_c, 14, 46, 100
20, 14850, Note_on_c, 14, 46, 0
20, 14850, Note_on_c, 14, 52, 100
20, 14880, Note_on_c, 14, 52, 0
20, 14880, Note_on_c, 14, 61, 100
20, 14940, Note_on_c, 14, 61, 0
20, 14940, Note_on_c, 14, 61, 100
20, 15030, Note_on_c, 14, 61, 0
20, 15030, Note_on_c, 14, 59, 100
20, 15060, Note_on_c, 14, 59, 0
20, 15060, Note_on_c, 14, 61, 100
20, 15120, Note_on_c, 14, 61, 0
20, 15120, Note_on_c, 14, 45, 100
20, 15240, Note_on_c, 14, 45, 0
20, 15240, Note_on_c, 14, 57, 100
20, 15300, Note_on_c, 14, 57, 0
20, 15300, Note_on_c, 14, 55, 100
20, 15420, Note_on_c, 14, 55, 0
20, 15420, Note_on_c, 14, 54, 100
20, 15480, Note_on_c, 14, 54, 0
20, 15480, Note_on_c, 14, 55, 100
20, 15600, Note_on_c, 14, 55, 0
20, 15600, Note_on_c, 14, 52, 100
20, 15660, Note_on_c, 14, 52, 0
20, 15660, Note_on_c, 14, 59, 100
20, 15780, Note_on_c, 14, 59, 0
20, 15780, Note_on_c, 14, 47, 100
20, 15840, Note_on_c, 14, 47, 0
20, 15840, Note_on_c, 14, 52, 100
20, 15960, Note_on_c, 14, 52, 0
20, 15960, Note_on_c, 14, 50, 100
20, 16020, Note_on_c, 14, 50, 0
20, 16020, Note_on_c, 14, 50, 100
20, 16140, Note_on_c, 14, 50, 0
20, 16140, Note_on_c, 14, 48, 100
20, 16200, Note_on_c, 14, 48, 0
20, 16200, Note_on_c, 14, 48, 100
20, 16320, Note_on_c, 14, 48, 0
20, 16320, Note_on_c, 14, 47, 100
20, 16380, Note_on_c, 14, 47, 0
20, 16380, Note_on_c, 14, 47, 100
20, 16500, Note_on_c, 14, 47, 0
20, 16500, Note_on_c, 14, 45, 100
20, 16560, Note_on_c, 14, 45, 0
20, 16560, Note_on_c, 14, 43, 90
20, 16679, Note_on_c, 14, 43, 0
20, 16680, Note_on_c, 14, 42, 90
20, 16739, Note_on_c, 14, 42, 0
20, 16740, Note_on_c, 14, 47, 90
20, 16859, Note_on_c, 14, 47, 0
20, 16860, Note_on_c, 14, 47, 90
20, 16919, Note_on_c, 14, 47, 0
20, 16920, Note_on_c, 14, 40, 90
20, 17039, Note_on_c, 14, 40, 0
20, 17040, Note_on_c, 14, 47, 90
20, 17099, Note_on_c, 14, 47, 0
20, 17100, Note_on_c, 14, 52, 90
20, 17219, Note_on_c, 14, 52, 0
20, 17220, Note_on_c, 14, 50, 90
20, 17279, Note_on_c, 14, 50, 0
20, 17280, Note_on_c, 14, 48, 90
20, 17399, Note_on_c, 14, 48, 0
20, 17400, Note_on_c, 14, 45, 90
20, 17459, Note_on_c, 14, 45, 0
20, 17460, Note_on_c, 14, 50, 90
20, 17579, Note_on_c, 14, 50, 0
20, 17580, Note_on_c, 14, 38, 90
20, 17639, Note_on_c, 14, 38, 0
20, 17640, Note_on_c, 14, 43, 90
20, 17759, Note_on_c, 14, 43, 0
20, 17760, Note_on_c, 14, 50, 90
20, 17819, Note_on_c, 14, 50, 0
20, 17820, Note_on_c, 14, 55, 90
20, 17939, Note_on_c, 14, 55, 0
20, 17940, Note_on_c, 14, 54, 90
20, 17999, Note_on_c, 14, 54, 0
20, 18000, Note_on_c, 14, 52, 90
20, 18119, Note_on_c, 14, 52, 0
20, 18120, Note_on_c, 14, 50, 90
20, 18179, Note_on_c, 14, 50, 0
20, 18180, Note_on_c, 14, 49, 90
20, 18299, Note_on_c, 14, 49, 0
20, 18300, Note_on_c, 14, 47, 90
20, 18359, Note_on_c, 14, 47, 0
20, 18360, Note_on_c, 14, 45, 90
20, 18479, Note_on_c, 14, 45, 0
20, 18480, Note_on_c, 14, 43, 90
20, 18539, Note_on_c, 14, 43, 0
20, 18540, Note_on_c, 14, 42, 90
20, 18659, Note_on_c, 14, 42, 0
20, 18660, Note_on_c, 14, 40, 90
20, 18719, Note_on_c, 14, 40, 0
20, 18720, Note_on_c, 14, 38, 90
20, 18839, Note_on_c, 14, 38, 0
20, 18840, Note_on_c, 14, 47, 90
20, 18899, Note_on_c, 14, 47, 0
20, 18900, Note_on_c, 14, 45, 90
20, 19019, Note_on_c, 14, 45, 0
20, 19020, Note_on_c, 14, 43, 90
20, 19079, Note_on_c, 14, 43, 0
20, 19080, Note_on_c, 14, 42, 90
20, 19199, Note_on_c, 14, 42, 0
20, 19200, Note_on_c, 14, 47, 90
20, 19259, Note_on_c, 14, 47, 0
20, 19260, Note_on_c, 14, 43, 90
20, 19379, Note_on_c, 14, 43, 0
20, 19380, Note_on_c, 14, 45, 90
20, 19439, Note_on_c, 14, 45, 0
20, 19440, Note_on_c, 14, 38, 90
20, 19559, Note_on_c, 14, 38, 0
20, 20520, Note_on_c, 14, 50, 90
20, 20639, Note_on_c, 14, 50, 0
20, 20640, Note_on_c, 14, 49, 90
20, 20699, Note_on_c, 14, 49, 0
20, 20700, Note_on_c, 14, 49, 90
20, 20819, Note_on_c, 14, 49, 0
20, 20820, Note_on_c, 14, 47, 90
20, 20879, Note_on_c, 14, 47, 0
20, 20880, Note_on_c, 14, 47, 90
20, 20999, Note_on_c, 14, 47, 0
20, 21960, Note_on_c, 14, 59, 90
20, 22079, Note_on_c, 14, 59, 0
20, 22140, Note_on_c, 14, 55, 90
20, 22259, Note_on_c, 14, 55, 0
20, 22320, Note_on_c, 14, 57, 90
20, 22439, Note_on_c, 14, 57, 0
20, 22500, Note_on_c, 14, 54, 90
20, 22619, Note_on_c, 14, 54, 0
20, 22680, Note_on_c, 14, 55, 90
20, 22799, Note_on_c, 14, 55, 0
20, 22860, Note_on_c, 14, 52, 90
20, 22979, Note_on_c, 14, 52, 0
20, 23040, Note_on_c, 14, 54, 90
20, 23159, Note_on_c, 14, 54, 0
20, 23160, Note_on_c, 14, 54, 90
20, 23219, Note_on_c, 14, 54, 0
20, 23220, Note_on_c, 14, 55, 90
20, 23279, Note_on_c, 14, 55, 0
20, 23280, Note_on_c, 14, 52, 90
20, 23339, Note_on_c, 14, 52, 0
20, 23340, Note_on_c, 14, 46, 90
20, 23399, Note_on_c, 14, 46, 0
20, 23400, Note_on_c, 14, 47, 90
20, 23519, Note_on_c, 14, 47, 0
20, 23520, Note_on_c, 14, 49, 90
20, 23579, Note_on_c, 14, 49, 0
20, 23580, Note_on_c, 14, 50, 90
20, 23699, Note_on_c, 14, 50, 0
20, 23700, Note_on_c, 14, 39, 90
20, 23759, Note_on_c, 14, 39, 0
20, 23759, Note_on_c, 14, 40, 90
20, 23878, Note_on_c, 14, 40, 0
20, 23879, Note_on_c, 14, 42, 90
20, 23938, Note_on_c, 14, 42, 0
20, 23939, Note_on_c, 14, 44, 90
20, 24058, Note_on_c, 14, 44, 0
20, 24059, Note_on_c, 14, 56, 90
20, 24118, Note_on_c, 14, 56, 0
20, 24119, Note_on_c, 14, 57, 90
20, 24238, Note_on_c, 14, 57, 0
20, 24239, Note_on_c, 14, 52, 90
20, 24298, Note_on_c, 14, 52, 0
20, 24299, Note_on_c, 14, 45, 90
20, 24418, Note_on_c, 14, 45, 0
20, 24419, Note_on_c, 14, 49, 90
20, 24478, Note_on_c, 14, 49, 0
20, 24479, Note_on_c, 14, 50, 90
20, 24598, Note_on_c, 14, 50, 0
20, 24599, Note_on_c, 14, 48, 90
20, 24658, Note_on_c, 14, 48, 0
20, 24659, Note_on_c, 14, 47, 90
20, 24778, Note_on_c, 14, 47, 0
20, 24779, Note_on_c, 14, 52, 90
20, 24838, Note_on_c, 14, 52, 0
20, 24839, Note_on_c, 14, 57, 90
20, 24958, Note_on_c, 14, 57, 0
20, 24959, Note_on_c, 14, 55, 90
20, 25018, Note_on_c, 14, 55, 0
20, 25019, Note_on_c, 14, 54, 90
20, 25138, Note_on_c, 14, 54, 0
20, 25139, Note_on_c, 14, 59, 90
20, 25198, Note_on_c, 14, 59, 0
20, 25199, Note_on_c, 14, 52, 90
20, 25318, Note_on_c, 14, 52, 0
20, 25319, Note_on_c, 14, 50, 90
20, 25378, Note_on_c, 14, 50, 0
20, 25380, Note_on_c, 14, 49, 90
20, 25499, Note_on_c, 14, 49, 0
20, 25500, Note_on_c, 14, 54, 90
20, 25559, Note_on_c, 14, 54, 0
20, 25560, Note_on_c, 14, 59, 90
20, 25679, Note_on_c, 14, 59, 0
20, 25920, Note_on_c, 14, 47, 90
20, 26039, Note_on_c, 14, 47, 0
20, 26280, Note_on_c, 14, 59, 90
20, 26399, Note_on_c, 14, 59, 0
20, 26640, Note_on_c, 14, 47, 90
20, 26759, Note_on_c, 14, 47, 0
20, 27000, Note_on_c, 14, 43, 90
20, 27090, Note_on_c, 14, 43, 0
20, 27090, Note_on_c, 14, 47, 90
20, 27120, Note_on_c, 14, 47, 0
20, 27120, Note_on_c, 14, 52, 90
20, 27180, Note_on_c, 14, 52, 0
20, 27180, Note_on_c, 14, 52, 90
20, 27270, Note_on_c, 14, 52, 0
20, 27270, Note_on_c, 14, 50, 90
20, 27300, Note_on_c, 14, 50, 0
20, 27300, Note_on_c, 14, 52, 90
20, 27360, Note_on_c, 14, 52, 0
20, 27360, Note_on_c, 14, 42, 90
20, 27450, Note_on_c, 14, 42, 0
20, 27450, Note_on_c, 14, 47, 90
20, 27480, Note_on_c, 14, 47, 0
20, 27480, Note_on_c, 14, 54, 90
20, 27540, Note_on_c, 14, 54, 0
20, 27540, Note_on_c, 14, 54, 90
20, 27630, Note_on_c, 14, 54, 0
20, 27630, Note_on_c, 14, 52, 90
20, 27660, Note_on_c, 14, 52, 0
20, 27660, Note_on_c, 14, 54, 90
20, 27720, Note_on_c, 14, 54, 0
20, 27720, Note_on_c, 14, 41, 90
20, 27810, Note_on_c, 14, 41, 0
20, 27810, Note_on_c, 14, 47, 90
20, 27840, Note_on_c, 14, 47, 0
20, 27840, Note_on_c, 14, 56, 90
20, 27900, Note_on_c, 14, 56, 0
20, 27900, Note_on_c, 14, 56, 90
20, 27990, Note_on_c, 14, 56, 0
20, 27990, Note_on_c, 14, 54, 90
20, 28020, Note_on_c, 14, 54, 0
20, 28020, Note_on_c, 14, 56, 90
20, 28080, Note_on_c, 14, 56, 0
20, 28080, Note_on_c, 14, 40, 90
20, 28199, Note_on_c, 14, 40, 0
20, 28200, Note_on_c, 14, 52, 90
20, 28259, Note_on_c, 14, 52, 0
20, 28260, Note_on_c, 14, 50, 90
20, 28379, Note_on_c, 14, 50, 0
20, 28380, Note_on_c, 14, 49, 90
20, 28439, Note_on_c, 14, 49, 0
20, 28440, Note_on_c, 14, 50, 90
20, 28559, Note_on_c, 14, 50, 0
20, 28560, Note_on_c, 14, 47, 90
20, 28619, Note_on_c, 14, 47, 0
20, 28620, Note_on_c, 14, 54, 90
20, 28739, Note_on_c, 14, 54, 0
20, 28740, Note_on_c, 14, 42, 90
20, 28799, Note_on_c, 14, 42, 0
20, 28800, Note_on_c, 14, 47, 90
20, 28890, Note_on_c, 14, 47, 0
20, 28890, Note_on_c, 14, 54, 90
20, 28919, Note_on_c, 14, 54, 0
20, 28920, Note_on_c, 14, 59, 90
20, 28979, Note_on_c, 14, 59, 0
20, 28980, Note_on_c, 14, 59, 90
20, 29069, Note_on_c, 14, 59, 0
20, 29070, Note_on_c, 14, 57, 90
20, 29099, Note_on_c, 14, 57, 0
20, 29100, Note_on_c, 14, 59, 90
20, 29159, Note_on_c, 14, 59, 0
20, 29160, Note_on_c, 14, 40, 90
20, 29279, Note_on_c, 14, 40, 0
20, 29640, Note_on_c, 14, 52, 90
20, 29700, Note_on_c, 14, 52, 0
20, 29700, Note_on_c, 14, 52, 90
20, 29819, Note_on_c, 14, 52, 0
20, 29820, Note_on_c, 14, 40, 90
20, 29880, Note_on_c, 14, 40, 0
20, 29880, Note_on_c, 14, 45, 90
20, 29969, Note_on_c, 14, 45, 0
20, 29970, Note_on_c, 14, 52, 90
20, 30000, Note_on_c, 14, 52, 0
20, 30000, Note_on_c, 14, 57, 90
20, 30060, Note_on_c, 14, 57, 0
20, 30060, Note_on_c, 14, 57, 90
20, 30149, Note_on_c, 14, 57, 0
20, 30150, Note_on_c, 14, 55, 90
20, 30180, Note_on_c, 14, 55, 0
20, 30180, Note_on_c, 14, 57, 90
20, 30240, Note_on_c, 14, 57, 0
20, 30240, Note_on_c, 14, 38, 90
20, 30360, Note_on_c, 14, 38, 0
20, 30720, Note_on_c, 14, 50, 90
20, 30779, Note_on_c, 14, 50, 0
20, 30780, Note_on_c, 14, 50, 90
20, 30899, Note_on_c, 14, 50, 0
20, 30900, Note_on_c, 14, 38, 90
20, 30959, Note_on_c, 14, 38, 0
20, 30960, Note_on_c, 14, 43, 90
20, 31079, Note_on_c, 14, 43, 0
20, 31080, Note_on_c, 14, 42, 90
20, 31139, Note_on_c, 14, 42, 0
20, 31140, Note_on_c, 14, 42, 90
20, 31259, Note_on_c, 14, 42, 0
20, 31260, Note_on_c, 14, 40, 90
20, 31319, Note_on_c, 14, 40, 0
20, 31320, Note_on_c, 14, 40, 90
20, 31439, Note_on_c, 14, 40, 0
20, 31440, Note_on_c, 14, 38, 90
20, 31499, Note_on_c, 14, 38, 0
20, 31500, Note_on_c, 14, 38, 90
20, 31619, Note_on_c, 14, 38, 0
20, 31620, Note_on_c, 14, 36, 90
20, 31679, Note_on_c, 14, 36, 0
20, 31680, Note_on_c, 14, 36, 90
20, 31799, Note_on_c, 14, 36, 0
20, 31800, Note_on_c, 14, 45, 90
20, 31859, Note_on_c, 14, 45, 0
20, 31860, Note_on_c, 14, 50, 90
20, 31979, Note_on_c, 14, 50, 0
20, 31980, Note_on_c, 14, 38, 90
20, 32039, Note_on_c, 14, 38, 0
20, 32040, Note_on_c, 14, 43, 90
20, 32159, Note_on_c, 14, 43, 0
20, 32220, Note_on_c, 14, 47, 90
20, 32339, Note_on_c, 14, 47, 0
20, 32400, Note_on_c, 14, 48, 90
20, 32519, Note_on_c, 14, 48, 0
20, 32580, Note_on_c, 14, 45, 90
20, 32699, Note_on_c, 14, 45, 0
20, 32760, Note_on_c, 14, 47, 90
20, 32879, Note_on_c, 14, 47, 0
20, 32940, Note_on_c, 14, 43, 90
20, 33059, Note_on_c, 14, 43, 0
20, 33120, Note_on_c, 14, 40, 90
20, 33239, Note_on_c, 14, 40, 0
20, 33240, Note_on_c, 14, 42, 90
20, 33299, Note_on_c, 14, 42, 0
20, 33300, Note_on_c, 14, 43, 90
20, 33419, Note_on_c, 14, 43, 0
20, 33420, Note_on_c, 14, 48, 90
20, 33479, Note_on_c, 14, 48, 0
20, 33480, Note_on_c, 14, 50, 90
20, 33599, Note_on_c, 14, 50, 0
20, 33600, Note_on_c, 14, 48, 90
20, 33659, Note_on_c, 14, 48, 0
20, 33660, Note_on_c, 14, 47, 90
20, 33779, Note_on_c, 14, 47, 0
20, 33780, Note_on_c, 14, 45, 90
20, 33839, Note_on_c, 14, 45, 0
20, 33840, Note_on_c, 14, 43, 90
20, 33959, Note_on_c, 14, 43, 0
20, 34920, Note_on_c, 14, 55, 90
20, 35039, Note_on_c, 14, 55, 0
20, 35040, Note_on_c, 14, 54, 90
20, 35099, Note_on_c, 14, 54, 0
20, 35100, Note_on_c, 14, 54, 90
20, 35219, Note_on_c, 14, 54, 0
20, 35220, Note_on_c, 14, 52, 90
20, 35279, Note_on_c, 14, 52, 0
20, 35280, Note_on_c, 14, 52, 90
20, 35399, Note_on_c, 14, 52, 0
20, 36360, Note_on_c, 14, 52, 90
20, 36479, Note_on_c, 14, 52, 0
20, 36480, Note_on_c, 14, 50, 90
20, 36539, Note_on_c, 14, 50, 0
20, 36540, Note_on_c, 14, 50, 90
20, 36659, Note_on_c, 14, 50, 0
20, 36660, Note_on_c, 14, 48, 90
20, 36719, Note_on_c, 14, 48, 0
20, 36720, Note_on_c, 14, 48, 90
20, 36839, Note_on_c, 14, 48, 0
20, 37800, Note_on_c, 14, 48, 90
20, 37887, Note_on_c, 14, 48, 0
20, 37890, Note_on_c, 14, 52, 90
20, 37919, Note_on_c, 14, 52, 0
20, 37920, Note_on_c, 14, 55, 90
20, 37978, Note_on_c, 14, 55, 0
20, 37980, Note_on_c, 14, 55, 90
20, 38067, Note_on_c, 14, 55, 0
20, 38070, Note_on_c, 14, 53, 90
20, 38099, Note_on_c, 14, 53, 0
20, 38100, Note_on_c, 14, 55, 90
20, 38158, Note_on_c, 14, 55, 0
20, 38160, Note_on_c, 14, 45, 90
20, 38247, Note_on_c, 14, 45, 0
20, 38250, Note_on_c, 14, 52, 90
20, 38279, Note_on_c, 14, 52, 0
20, 38280, Note_on_c, 14, 57, 90
20, 38338, Note_on_c, 14, 57, 0
20, 38340, Note_on_c, 14, 57, 90
20, 38427, Note_on_c, 14, 57, 0
20, 38430, Note_on_c, 14, 55, 90
20, 38459, Note_on_c, 14, 55, 0
20, 38460, Note_on_c, 14, 57, 90
20, 38518, Note_on_c, 14, 57, 0
20, 38520, Note_on_c, 14, 50, 90
20, 38607, Note_on_c, 14, 50, 0
20, 38610, Note_on_c, 14, 54, 90
20, 38639, Note_on_c, 14, 54, 0
20, 38640, Note_on_c, 14, 57, 90
20, 38698, Note_on_c, 14, 57, 0
20, 38700, Note_on_c, 14, 57, 90
20, 38787, Note_on_c, 14, 57, 0
20, 38790, Note_on_c, 14, 55, 90
20, 38819, Note_on_c, 14, 55, 0
20, 38820, Note_on_c, 14, 57, 90
20, 38878, Note_on_c, 14, 57, 0
20, 38880, Note_on_c, 14, 42, 90
20, 38967, Note_on_c, 14, 42, 0
20, 38970, Note_on_c, 14, 45, 90
20, 38999, Note_on_c, 14, 45, 0
20, 39000, Note_on_c, 14, 48, 90
20, 39058, Note_on_c, 14, 48, 0
20, 39060, Note_on_c, 14, 48, 90
20, 39147, Note_on_c, 14, 48, 0
20, 39150, Note_on_c, 14, 47, 90
20, 39179, Note_on_c, 14, 47, 0
20, 39180, Note_on_c, 14, 48, 90
20, 39238, Note_on_c, 14, 48, 0
20, 39240, Note_on_c, 14, 45, 90
20, 39327, Note_on_c, 14, 45, 0
20, 39330, Note_on_c, 14, 48, 90
20, 39359, Note_on_c, 14, 48, 0
20, 39360, Note_on_c, 14, 54, 90
20, 39418, Note_on_c, 14, 54, 0
20, 39420, Note_on_c, 14, 54, 90
20, 39507, Note_on_c, 14, 54, 0
20, 39510, Note_on_c, 14, 52, 90
20, 39539, Note_on_c, 14, 52, 0
20, 39540, Note_on_c, 14, 54, 90
20, 39598, Note_on_c, 14, 54, 0
20, 39600, Note_on_c, 14, 43, 90
20, 39719, Note_on_c, 14, 43, 0
20, 39720, Note_on_c, 14, 52, 90
20, 39779, Note_on_c, 14, 52, 0
20, 39780, Note_on_c, 14, 50, 90
20, 39899, Note_on_c, 14, 50, 0
20, 39900, Note_on_c, 14, 48, 90
20, 39959, Note_on_c, 14, 48, 0
20, 39960, Note_on_c, 14, 47, 90
20, 40079, Note_on_c, 14, 47, 0
20, 40080, Note_on_c, 14, 48, 90
20, 40139, Note_on_c, 14, 48, 0
20, 40140, Note_on_c, 14, 47, 90
20, 40259, Note_on_c, 14, 47, 0
20, 40260, Note_on_c, 14, 45, 90
20, 40319, Note_on_c, 14, 45, 0
20, 40320, Note_on_c, 14, 47, 90
20, 40439, Note_on_c, 14, 47, 0
20, 40440, Note_on_c, 14, 48, 90
20, 40499, Note_on_c, 14, 48, 0
20, 40500, Note_on_c, 14, 48, 90
20, 40589, Note_on_c, 14, 48, 0
20, 40590, Note_on_c, 14, 47, 90
20, 40619, Note_on_c, 14, 47, 0
20, 40620, Note_on_c, 14, 48, 90
20, 40679, Note_on_c, 14, 48, 0
20, 40680, Note_on_c, 14, 55, 90
20, 40799, Note_on_c, 14, 55, 0
20, 41040, Note_on_c, 14, 43, 90
20, 41159, Note_on_c, 14, 43, 0
20, 41400, Note_on_c, 14, 55, 90
20, 41519, Note_on_c, 14, 55, 0
20, 41760, Note_on_c, 14, 43, 90
20, 41879, Note_on_c, 14, 43, 0
20, 42120, Note_on_c, 14, 52, 90
20, 42209, Note_on_c, 14, 52, 0
20, 42210, Note_on_c, 14, 55, 90
20, 42239, Note_on_c, 14, 55, 0
20, 42240, Note_on_c, 14, 61, 90
20, 42299, Note_on_c, 14, 61, 0
20, 42300, Note_on_c, 14, 61, 90
20, 42389, Note_on_c, 14, 61, 0
20, 42390, Note_on_c, 14, 59, 90
20, 42419, Note_on_c, 14, 59, 0
20, 42420, Note_on_c, 14, 61, 90
20, 42479, Note_on_c, 14, 61, 0
20, 42480, Note_on_c, 14, 50, 90
20, 42569, Note_on_c, 14, 50, 0
20, 42570, Note_on_c, 14, 55, 90
20, 42599, Note_on_c, 14, 55, 0
20, 42600, Note_on_c, 14, 62, 90
20, 42659, Note_on_c, 14, 62, 0
20, 42660, Note_on_c, 14, 62, 90
20, 42749, Note_on_c, 14, 62, 0
20, 42750, Note_on_c, 14, 60, 90
20, 42779, Note_on_c, 14, 60, 0
20, 42780, Note_on_c, 14, 62, 90
20, 42839, Note_on_c, 14, 62, 0
20, 42840, Note_on_c, 14, 49, 90
20, 42929, Note_on_c, 14, 49, 0
20, 42930, Note_on_c, 14, 55, 90
20, 42959, Note_on_c, 14, 55, 0
20, 42960, Note_on_c, 14, 64, 90
20, 43019, Note_on_c, 14, 64, 0
20, 43020, Note_on_c, 14, 64, 90
20, 43109, Note_on_c, 14, 64, 0
20, 43110, Note_on_c, 14, 62, 90
20, 43139, Note_on_c, 14, 62, 0
20, 43140, Note_on_c, 14, 64, 90
20, 43199, Note_on_c, 14, 64, 0
20, 43200, Note_on_c, 14, 48, 90
20, 43319, Note_on_c, 14, 48, 0
20, 43380, Note_on_c, 14, 47, 90
20, 43499, Note_on_c, 14, 47, 0
20, 43500, Note_on_c, 14, 45, 90
20, 43559, Note_on_c, 14, 45, 0
20, 43560, Note_on_c, 14, 47, 90
20, 43679, Note_on_c, 14, 47, 0
20, 43680, Note_on_c, 14, 43, 90
20, 43739, Note_on_c, 14, 43, 0
20, 43740, Note_on_c, 14, 50, 90
20, 43859, Note_on_c, 14, 50, 0
20, 43860, Note_on_c, 14, 38, 90
20, 43919, Note_on_c, 14, 38, 0
20, 43920, Note_on_c, 14, 43, 90
20, 44039, Note_on_c, 14, 43, 0
20, 44280, Note_on_c, 14, 43, 90
20, 44399, Note_on_c, 14, 43, 0
20, 44640, Note_on_c, 14, 43, 90
20, 45000, Note_on_c, 14, 43, 0
20, 45360, Note_on_c, 14, 52, 100
20, 46560, Note_on_c, 14, 52, 0
20, 46560, Note_on_c, 14, 54, 100
20, 47040, Note_on_c, 14, 54, 0
20, 47040, Note_on_c, 14, 47, 100
20, 47280, Note_on_c, 14, 47, 0
20, 47280, Note_on_c, 14, 52, 100
20, 47760, Note_on_c, 14, 52, 0
20, 47760, Note_on_c, 14, 55, 100
20, 48240, Note_on_c, 14, 55, 0
20, 48240, Note_on_c, 14, 54, 100
20, 48480, Note_on_c, 14, 54, 0
20, 48480, Note_on_c, 14, 52, 100
20, 48870, Note_on_c, 14, 52, 0
20, 48870, Note_on_c, 14, 55, 100
20, 48900, Note_on_c, 14, 55, 0
20, 48900, Note_on_c, 14, 54, 100
20, 48930, Note_on_c, 14, 54, 0
20, 48930, Note_on_c, 14, 52, 100
20, 48960, Note_on_c, 14, 52, 0
20, 48960, Note_on_c, 14, 50, 100
20, 48990, Note_on_c, 14, 50, 0
20, 48990, Note_on_c, 14, 49, 100
20, 49020, Note_on_c, 14, 49, 0
20, 49020, Note_on_c, 14, 47, 100
20, 49050, Note_on_c, 14, 47, 0
20, 49050, Note_on_c, 14, 45, 100
20, 49080, Note_on_c, 14, 45, 0
20, 49080, Note_on_c, 14, 44, 100
20, 49230, Note_on_c, 14, 44, 0
20, 49230, Note_on_c, 14, 47, 100
20, 49260, Note_on_c, 14, 47, 0
20, 49260, Note_on_c, 14, 50, 100
20, 49290, Note_on_c, 14, 50, 0
20, 49290, Note_on_c, 14, 49, 100
20, 49320, Note_on_c, 14, 49, 0
20, 49320, Note_on_c, 14, 47, 100
20, 49350, Note_on_c, 14, 47, 0
20, 49350, Note_on_c, 14, 45, 100
20, 49380, Note_on_c, 14, 45, 0
20, 49380, Note_on_c, 14, 44, 100
20, 49410, Note_on_c, 14, 44, 0
20, 49410, Note_on_c, 14, 42, 100
20, 49440, Note_on_c, 14, 42, 0
20, 49440, Note_on_c, 14, 41, 100
20, 49500, Note_on_c, 14, 41, 0
20, 49560, Note_on_c, 14, 42, 100
20, 49620, Note_on_c, 14, 42, 0
20, 49680, Note_on_c, 14, 47, 100
20, 50160, Note_on_c, 14, 47, 0
20, 50520, Note_on_c, 14, 55, 90
20, 50579, Note_on_c, 14, 55, 0
20, 50580, Note_on_c, 14, 54, 90
20, 50639, Note_on_c, 14, 54, 0
20, 50640, Note_on_c, 14, 52, 90
20, 50759, Note_on_c, 14, 52, 0
20, 50760, Note_on_c, 14, 50, 90
20, 50879, Note_on_c, 14, 50, 0
20, 50880, Note_on_c, 14, 55, 90
20, 50999, Note_on_c, 14, 55, 0
20, 51000, Note_on_c, 14, 54, 90
20, 51059, Note_on_c, 14, 54, 0
20, 51060, Note_on_c, 14, 55, 90
20, 51119, Note_on_c, 14, 55, 0
20, 51120, Note_on_c, 14, 57, 90
20, 51239, Note_on_c, 14, 57, 0
20, 51240, Note_on_c, 14, 45, 90
20, 51359, Note_on_c, 14, 45, 0
20, 51360, Note_on_c, 14, 50, 90
20, 51449, Note_on_c, 14, 50, 0
20, 51480, Note_on_c, 14, 51, 90
20, 51599, Note_on_c, 14, 51, 0
20, 51600, Note_on_c, 14, 52, 90
20, 51659, Note_on_c, 14, 52, 0
20, 51660, Note_on_c, 14, 54, 90
20, 51719, Note_on_c, 14, 54, 0
20, 51720, Note_on_c, 14, 55, 90
20, 51779, Note_on_c, 14, 55, 0
20, 51780, Note_on_c, 14, 48, 90
20, 51899, Note_on_c, 14, 48, 0
20, 51900, Note_on_c, 14, 47, 90
20, 51959, Note_on_c, 14, 47, 0
20, 51960, Note_on_c, 14, 45, 90
20, 52019, Note_on_c, 14, 45, 0
20, 52020, Note_on_c, 14, 43, 90
20, 52079, Note_on_c, 14, 43, 0
20, 52080, Note_on_c, 14, 50, 90
20, 52199, Note_on_c, 14, 50, 0
20, 52200, Note_on_c, 14, 38, 90
20, 52319, Note_on_c, 14, 38, 0
20, 52320, Note_on_c, 14, 43, 90
20, 52409, Note_on_c, 14, 43, 0
20, 52440, Note_on_c, 14, 55, 90
20, 52499, Note_on_c, 14, 55, 0
20, 52500, Note_on_c, 14, 54, 90
20, 52559, Note_on_c, 14, 54, 0
20, 52560, Note_on_c, 14, 52, 90
20, 52679, Note_on_c, 14, 52, 0
20, 52680, Note_on_c, 14, 50, 90
20, 52799, Note_on_c, 14, 50, 0
20, 52800, Note_on_c, 14, 55, 90
20, 52919, Note_on_c, 14, 55, 0
20, 52920, Note_on_c, 14, 54, 90
20, 52979, Note_on_c, 14, 54, 0
20, 52980, Note_on_c, 14, 55, 90
20, 53039, Note_on_c, 14, 55, 0
20, 53040, Note_on_c, 14, 57, 90
20, 53159, Note_on_c, 14, 57, 0
20, 53160, Note_on_c, 14, 45, 90
20, 53279, Note_on_c, 14, 45, 0
20, 53280, Note_on_c, 14, 50, 90
20, 53369, Note_on_c, 14, 50, 0
20, 53400, Note_on_c, 14, 51, 90
20, 53519, Note_on_c, 14, 51, 0
20, 53520, Note_on_c, 14, 52, 90
20, 53579, Note_on_c, 14, 52, 0
20, 53580, Note_on_c, 14, 54, 90
20, 53639, Note_on_c, 14, 54, 0
20, 53640, Note_on_c, 14, 55, 90
20, 53699, Note_on_c, 14, 55, 0
20, 53700, Note_on_c, 14, 48, 90
20, 53819, Note_on_c, 14, 48, 0
20, 53820, Note_on_c, 14, 47, 90
20, 53879, Note_on_c, 14, 47, 0
20, 53880, Note_on_c, 14, 45, 90
20, 53939, Note_on_c, 14, 45, 0
20, 53940, Note_on_c, 14, 43, 90
20, 53999, Note_on_c, 14, 43, 0
20, 54000, Note_on_c, 14, 50, 90
20, 54119, Note_on_c, 14, 50, 0
20, 54120, Note_on_c, 14, 38, 90
20, 54239, Note_on_c, 14, 38, 0
20, 54240, Note_on_c, 14, 43, 90
20, 54329, Note_on_c, 14, 43, 0
20, 54360, Note_on_c, 14, 50, 90
20, 54479, Note_on_c, 14, 50, 0
20, 54480, Note_on_c, 14, 62, 90
20, 54539, Note_on_c, 14, 62, 0
20, 54540, Note_on_c, 14, 60, 90
20, 54599, Note_on_c, 14, 60, 0
20, 54600, Note_on_c, 14, 59, 90
20, 54719, Note_on_c, 14, 59, 0
20, 54720, Note_on_c, 14, 57, 90
20, 54839, Note_on_c, 14, 57, 0
20, 54840, Note_on_c, 14, 51, 90
20, 54959, Note_on_c, 14, 51, 0
20, 54960, Note_on_c, 14, 52, 90
20, 55079, Note_on_c, 14, 52, 0
20, 55080, Note_on_c, 14, 40, 90
20, 55199, Note_on_c, 14, 40, 0
20, 55200, Note_on_c, 14, 45, 90
20, 55289, Note_on_c, 14, 45, 0
20, 55320, Note_on_c, 14, 52, 90
20, 55379, Note_on_c, 14, 52, 0
20, 55380, Note_on_c, 14, 54, 90
20, 55439, Note_on_c, 14, 54, 0
20, 55440, Note_on_c, 14, 55, 90
20, 55559, Note_on_c, 14, 55, 0
20, 55560, Note_on_c, 14, 56, 90
20, 55679, Note_on_c, 14, 56, 0
20, 55680, Note_on_c, 14, 57, 90
20, 55799, Note_on_c, 14, 57, 0
20, 55800, Note_on_c, 14, 58, 90
20, 55919, Note_on_c, 14, 58, 0
20, 55920, Note_on_c, 14, 59, 90
20, 56039, Note_on_c, 14, 59, 0
20, 56040, Note_on_c, 14, 47, 90
20, 56159, Note_on_c, 14, 47, 0
20, 56160, Note_on_c, 14, 52, 90
20, 56249, Note_on_c, 14, 52, 0
20, 56280, Note_on_c, 14, 50, 90
20, 56339, Note_on_c, 14, 50, 0
20, 56340, Note_on_c, 14, 48, 90
20, 56399, Note_on_c, 14, 48, 0
20, 56400, Note_on_c, 14, 47, 90
20, 56459, Note_on_c, 14, 47, 0
20, 56460, Note_on_c, 14, 45, 90
20, 56519, Note_on_c, 14, 45, 0
20, 56520, Note_on_c, 14, 43, 90
20, 56579, Note_on_c, 14, 43, 0
20, 56580, Note_on_c, 14, 42, 90
20, 56639, Note_on_c, 14, 42, 0
20, 56640, Note_on_c, 14, 40, 90
20, 56699, Note_on_c, 14, 40, 0
20, 56700, Note_on_c, 14, 42, 90
20, 56759, Note_on_c, 14, 42, 0
20, 56760, Note_on_c, 14, 43, 90
20, 56819, Note_on_c, 14, 43, 0
20, 56820, Note_on_c, 14, 40, 90
20, 56879, Note_on_c, 14, 40, 0
20, 56880, Note_on_c, 14, 49, 90
20, 56939, Note_on_c, 14, 49, 0
20, 56940, Note_on_c, 14, 47, 90
20, 56999, Note_on_c, 14, 47, 0
20, 57000, Note_on_c, 14, 49, 90
20, 57059, Note_on_c, 14, 49, 0
20, 57060, Note_on_c, 14, 45, 90
20, 57119, Note_on_c, 14, 45, 0
20, 57120, Note_on_c, 14, 50, 90
20, 57209, Note_on_c, 14, 50, 0
20, 57240, Note_on_c, 14, 47, 90
20, 57359, Note_on_c, 14, 47, 0
20, 57360, Note_on_c, 14, 48, 90
20, 57479, Note_on_c, 14, 48, 0
20, 57480, Note_on_c, 14, 50, 90
20, 57599, Note_on_c, 14, 50, 0
20, 57600, Note_on_c, 14, 52, 90
20, 57659, Note_on_c, 14, 52, 0
20, 57660, Note_on_c, 14, 54, 90
20, 57719, Note_on_c, 14, 54, 0
20, 57720, Note_on_c, 14, 55, 90
20, 57839, Note_on_c, 14, 55, 0
20, 57840, Note_on_c, 14, 48, 90
20, 57959, Note_on_c, 14, 48, 0
20, 57960, Note_on_c, 14, 50, 90
20, 58079, Note_on_c, 14, 50, 0
20, 58080, Note_on_c, 14, 43, 90
20, 58199, Note_on_c, 14, 43, 0
20, 58320, Note_on_c, 14, 49, 100
20, 58800, Note_on_c, 14, 49, 0
20, 58800, Note_on_c, 14, 50, 100
20, 59160, Note_on_c, 14, 50, 0
20, 59160, Note_on_c, 14, 52, 100
20, 59280, Note_on_c, 14, 52, 0
20, 59280, Note_on_c, 14, 49, 100
20, 59520, Note_on_c, 14, 49, 0
20, 59520, Note_on_c, 14, 45, 100
20, 59760, Note_on_c, 14, 45, 0
20, 59760, Note_on_c, 14, 50, 100
20, 60000, Note_on_c, 14, 50, 0
20, 60000, Note_on_c, 14, 44, 100
20, 60240, Note_on_c, 14, 44, 0
20, 60360, Note_on_c, 14, 45, 100
20, 60480, Note_on_c, 14, 45, 0
20, 60480, Note_on_c, 14, 38, 100
20, 60960, Note_on_c, 14, 38, 0
20, 60960, Note_on_c, 14, 49, 100
20, 61200, Note_on_c, 14, 49, 0
20, 61200, Note_on_c, 14, 46, 100
20, 61320, Note_on_c, 14, 46, 0
20, 61320, Note_on_c, 14, 42, 100
20, 61440, Note_on_c, 14, 42, 0
20, 61440, Note_on_c, 14, 47, 100
20, 61560, Note_on_c, 14, 47, 0
20, 61560, Note_on_c, 14, 50, 100
20, 61680, Note_on_c, 14, 50, 0
20, 61680, Note_on_c, 14, 52, 100
20, 61800, Note_on_c, 14, 52, 0
20, 61920, Note_on_c, 14, 54, 100
20, 62040, Note_on_c, 14, 54, 0
20, 62040, Note_on_c, 14, 47, 100
20, 62160, Note_on_c, 14, 47, 0
20, 62400, Note_on_c, 14, 43, 100
20, 64560, Note_on_c, 14, 43, 0
20, 64560, Note_on_c, 14, 42, 100
20, 65280, Note_on_c, 14, 42, 0
20, 65280, Note_on_c, 14, 51, 100
20, 65760, Note_on_c, 14, 51, 0
20, 65760, Note_on_c, 14, 47, 100
20, 65820, Note_on_c, 14, 47, 0
20, 65880, Note_on_c, 14, 45, 100
20, 65940, Note_on_c, 14, 45, 0
20, 66000, Note_on_c, 14, 43, 100
20, 66060, Note_on_c, 14, 43, 0
20, 66120, Note_on_c, 14, 48, 100
20, 66180, Note_on_c, 14, 48, 0
20, 66360, Note_on_c, 14, 47, 100
20, 66480, Note_on_c, 14, 47, 0
20, 66480, Note_on_c, 14, 40, 100
20, 66720, Note_on_c, 14, 40, 0
20, 66915, Control_c, 14, 0, 1
20, 66915, Control_c, 14, 0, 1
20, 66915, Program_c, 14, 45
20, 66960, Note_on_c, 14, 52, 90
20, 67079, Note_on_c, 14, 52, 0
20, 67080, Note_on_c, 14, 54, 90
20, 67139, Note_on_c, 14, 54, 0
20, 67140, Note_on_c, 14, 55, 90
20, 67199, Note_on_c, 14, 55, 0
20, 67200, Note_on_c, 14, 54, 90
20, 67259, Note_on_c, 14, 54, 0
20, 67260, Note_on_c, 14, 55, 90
20, 67319, Note_on_c, 14, 55, 0
20, 67320, Note_on_c, 14, 57, 90
20, 67379, Note_on_c, 14, 57, 0
20, 67380, Note_on_c, 14, 55, 90
20, 67439, Note_on_c, 14, 55, 0
20, 67440, Note_on_c, 14, 59, 90
20, 67499, Note_on_c, 14, 59, 0
20, 67500, Note_on_c, 14, 52, 90
20, 67619, Note_on_c, 14, 52, 0
20, 67680, Note_on_c, 14, 57, 90
20, 67739, Note_on_c, 14, 57, 0
20, 67740, Note_on_c, 14, 54, 90
20, 67799, Note_on_c, 14, 54, 0
20, 67800, Note_on_c, 14, 55, 90
20, 67859, Note_on_c, 14, 55, 0
20, 67860, Note_on_c, 14, 60, 90
20, 67919, Note_on_c, 14, 60, 0
20, 67920, Note_on_c, 14, 51, 90
20, 67979, Note_on_c, 14, 51, 0
20, 67980, Note_on_c, 14, 52, 90
20, 68099, Note_on_c, 14, 52, 0
20, 68100, Note_on_c, 14, 48, 90
20, 68159, Note_on_c, 14, 48, 0
20, 68160, Note_on_c, 14, 45, 90
20, 68219, Note_on_c, 14, 45, 0
20, 68220, Note_on_c, 14, 47, 90
20, 68249, Note_on_c, 14, 47, 0
20, 68250, Note_on_c, 14, 48, 90
20, 68279, Note_on_c, 14, 48, 0
20, 68280, Note_on_c, 14, 47, 90
20, 68309, Note_on_c, 14, 47, 0
20, 68310, Note_on_c, 14, 45, 90
20, 68339, Note_on_c, 14, 45, 0
20, 68340, Note_on_c, 14, 43, 90
20, 68369, Note_on_c, 14, 43, 0
20, 68370, Note_on_c, 14, 42, 90
20, 68399, Note_on_c, 14, 42, 0
20, 68400, Note_on_c, 14, 40, 90
20, 68459, Note_on_c, 14, 40, 0
20, 68460, Note_on_c, 14, 59, 90
20, 68519, Note_on_c, 14, 59, 0
20, 68520, Note_on_c, 14, 61, 90
20, 68579, Note_on_c, 14, 61, 0
20, 68580, Note_on_c, 14, 62, 90
20, 68699, Note_on_c, 14, 62, 0
20, 68700, Note_on_c, 14, 50, 90
20, 68759, Note_on_c, 14, 50, 0
20, 68760, Note_on_c, 14, 49, 90
20, 68819, Note_on_c, 14, 49, 0
20, 68820, Note_on_c, 14, 59, 90
20, 68879, Note_on_c, 14, 59, 0
20, 68880, Note_on_c, 14, 58, 90
20, 68939, Note_on_c, 14, 58, 0
20, 68940, Note_on_c, 14, 59, 90
20, 69059, Note_on_c, 14, 59, 0
20, 69060, Note_on_c, 14, 47, 90
20, 69119, Note_on_c, 14, 47, 0
20, 69120, Note_on_c, 14, 52, 90
20, 69179, Note_on_c, 14, 52, 0
20, 69180, Note_on_c, 14, 49, 90
20, 69239, Note_on_c, 14, 49, 0
20, 69240, Note_on_c, 14, 50, 90
20, 69299, Note_on_c, 14, 50, 0
20, 69300, Note_on_c, 14, 55, 90
20, 69359, Note_on_c, 14, 55, 0
20, 69360, Note_on_c, 14, 46, 90
20, 69419, Note_on_c, 14, 46, 0
20, 69420, Note_on_c, 14, 47, 90
20, 69479, Note_on_c, 14, 47, 0
20, 69480, Note_on_c, 14, 38, 90
20, 69539, Note_on_c, 14, 38, 0
20, 69540, Note_on_c, 14, 40, 90
20, 69599, Note_on_c, 14, 40, 0
20, 69600, Note_on_c, 14, 42, 90
20, 69659, Note_on_c, 14, 42, 0
20, 69660, Note_on_c, 14, 47, 90
20, 69719, Note_on_c, 14, 47, 0
20, 69720, Note_on_c, 14, 59, 90
20, 69749, Note_on_c, 14, 59, 0
20, 69750, Note_on_c, 14, 57, 90
20, 69779, Note_on_c, 14, 57, 0
20, 69780, Note_on_c, 14, 55, 90
20, 69809, Note_on_c, 14, 55, 0
20, 69810, Note_on_c, 14, 54, 90
20, 69839, Note_on_c, 14, 54, 0
20, 69840, Note_on_c, 14, 52, 90
20, 69959, Note_on_c, 14, 52, 0
20, 69960, Note_on_c, 14, 54, 90
20, 70019, Note_on_c, 14, 54, 0
20, 70020, Note_on_c, 14, 55, 90
20, 70139, Note_on_c, 14, 55, 0
20, 70140, Note_on_c, 14, 57, 90
20, 70199, Note_on_c, 14, 57, 0
20, 70200, Note_on_c, 14, 55, 90
20, 70260, Note_on_c, 14, 55, 0
20, 70260, Note_on_c, 14, 57, 90
20, 70320, Note_on_c, 14, 57, 0
20, 70320, Note_on_c, 14, 59, 90
20, 70380, Note_on_c, 14, 59, 0
20, 70380, Note_on_c, 14, 52, 90
20, 70440, Note_on_c, 14, 52, 0
20, 70440, Note_on_c, 14, 47, 90
20, 70500, Note_on_c, 14, 47, 0
20, 70500, Note_on_c, 14, 43, 90
20, 70560, Note_on_c, 14, 43, 0
20, 70560, Note_on_c, 14, 40, 90
20, 70679, Note_on_c, 14, 40, 0
20, 70680, Note_on_c, 14, 42, 90
20, 70739, Note_on_c, 14, 42, 0
20, 70740, Note_on_c, 14, 43, 90
20, 70859, Note_on_c, 14, 43, 0
20, 70860, Note_on_c, 14, 42, 90
20, 70919, Note_on_c, 14, 42, 0
20, 70920, Note_on_c, 14, 43, 90
20, 70979, Note_on_c, 14, 43, 0
20, 70980, Note_on_c, 14, 45, 90
20, 71039, Note_on_c, 14, 45, 0
20, 71040, Note_on_c, 14, 47, 90
20, 71099, Note_on_c, 14, 47, 0
20, 71100, Note_on_c, 14, 40, 90
20, 71159, Note_on_c, 14, 40, 0
20, 71160, Note_on_c, 14, 47, 90
20, 71219, Note_on_c, 14, 47, 0
20, 71220, Note_on_c, 14, 52, 90
20, 71309, Note_on_c, 14, 52, 0
20, 71310, Note_on_c, 14, 52, 90
20, 71339, Note_on_c, 14, 52, 0
20, 71340, Note_on_c, 14, 50, 90
20, 71369, Note_on_c, 14, 50, 0
20, 71370, Note_on_c, 14, 48, 90
20, 71399, Note_on_c, 14, 48, 0
20, 71400, Note_on_c, 14, 50, 90
20, 71429, Note_on_c, 14, 50, 0
20, 71430, Note_on_c, 14, 47, 90
20, 71459, Note_on_c, 14, 47, 0
20, 71460, Note_on_c, 14, 43, 90
20, 71489, Note_on_c, 14, 43, 0
20, 71490, Note_on_c, 14, 48, 90
20, 71519, Note_on_c, 14, 48, 0
20, 71520, Note_on_c, 14, 47, 90
20, 71549, Note_on_c, 14, 47, 0
20, 71550, Note_on_c, 14, 45, 90
20, 71579, Note_on_c, 14, 45, 0
20, 71580, Note_on_c, 14, 47, 90
20, 71609, Note_on_c, 14, 47, 0
20, 71610, Note_on_c, 14, 43, 90
20, 71639, Note_on_c, 14, 43, 0
20, 71640, Note_on_c, 14, 47, 90
20, 71699, Note_on_c, 14, 47, 0
20, 71700, Note_on_c, 14, 48, 90
20, 71759, Note_on_c, 14, 48, 0
20, 71760, Note_on_c, 14, 50, 90
20, 71819, Note_on_c, 14, 50, 0
20, 71820, Note_on_c, 14, 43, 90
20, 71879, Note_on_c, 14, 43, 0
20, 71880, Note_on_c, 14, 55, 90
20, 71939, Note_on_c, 14, 55, 0
20, 71940, Note_on_c, 14, 57, 90
20, 71999, Note_on_c, 14, 57, 0
20, 72000, Note_on_c, 14, 59, 90
20, 72119, Note_on_c, 14, 59, 0
20, 72120, Note_on_c, 14, 55, 90
20, 72179, Note_on_c, 14, 55, 0
20, 72180, Note_on_c, 14, 54, 90
20, 72239, Note_on_c, 14, 54, 0
20, 72240, Note_on_c, 14, 50, 90
20, 72299, Note_on_c, 14, 50, 0
20, 72300, Note_on_c, 14, 52, 90
20, 72359, Note_on_c, 14, 52, 0
20, 72360, Note_on_c, 14, 54, 90
20, 72419, Note_on_c, 14, 54, 0
20, 72420, Note_on_c, 14, 52, 90
20, 72479, Note_on_c, 14, 52, 0
20, 72480, Note_on_c, 14, 54, 90
20, 72539, Note_on_c, 14, 54, 0
20, 72540, Note_on_c, 14, 55, 90
20, 72569, Note_on_c, 14, 55, 0
20, 72570, Note_on_c, 14, 54, 90
20, 72599, Note_on_c, 14, 54, 0
20, 72600, Note_on_c, 14, 55, 90
20, 72629, Note_on_c, 14, 55, 0
20, 72630, Note_on_c, 14, 57, 90
20, 72659, Note_on_c, 14, 57, 0
20, 72660, Note_on_c, 14, 59, 90
20, 72689, Note_on_c, 14, 59, 0
20, 72690, Note_on_c, 14, 55, 90
20, 72719, Note_on_c, 14, 55, 0
20, 72720, Note_on_c, 14, 57, 90
20, 72779, Note_on_c, 14, 57, 0
20, 72780, Note_on_c, 14, 55, 90
20, 72839, Note_on_c, 14, 55, 0
20, 72840, Note_on_c, 14, 57, 90
20, 72899, Note_on_c, 14, 57, 0
20, 72900, Note_on_c, 14, 50, 90
20, 72959, Note_on_c, 14, 50, 0
20, 72960, Note_on_c, 14, 54, 90
20, 73019, Note_on_c, 14, 54, 0
20, 73020, Note_on_c, 14, 50, 90
20, 73079, Note_on_c, 14, 50, 0
20, 73080, Note_on_c, 14, 55, 90
20, 73139, Note_on_c, 14, 55, 0
20, 73140, Note_on_c, 14, 62, 90
20, 73169, Note_on_c, 14, 62, 0
20, 73170, Note_on_c, 14, 60, 90
20, 73199, Note_on_c, 14, 60, 0
20, 73200, Note_on_c, 14, 59, 90
20, 73229, Note_on_c, 14, 59, 0
20, 73230, Note_on_c, 14, 57, 90
20, 73259, Note_on_c, 14, 57, 0
20, 73260, Note_on_c, 14, 59, 90
20, 73319, Note_on_c, 14, 59, 0
20, 73320, Note_on_c, 14, 55, 90
20, 73379, Note_on_c, 14, 55, 0
20, 73380, Note_on_c, 14, 59, 90
20, 73439, Note_on_c, 14, 59, 0
20, 73440, Note_on_c, 14, 60, 90
20, 73499, Note_on_c, 14, 60, 0
20, 73500, Note_on_c, 14, 56, 90
20, 73559, Note_on_c, 14, 56, 0
20, 73560, Note_on_c, 14, 52, 90
20, 73619, Note_on_c, 14, 52, 0
20, 73620, Note_on_c, 14, 57, 90
20, 73679, Note_on_c, 14, 57, 0
20, 73680, Note_on_c, 14, 52, 90
20, 73739, Note_on_c, 14, 52, 0
20, 73740, Note_on_c, 14, 45, 90
20, 73799, Note_on_c, 14, 45, 0
20, 73800, Note_on_c, 14, 57, 90
20, 73829, Note_on_c, 14, 57, 0
20, 73830, Note_on_c, 14, 55, 90
20, 73859, Note_on_c, 14, 55, 0
20, 73860, Note_on_c, 14, 54, 90
20, 73889, Note_on_c, 14, 54, 0
20, 73890, Note_on_c, 14, 52, 90
20, 73919, Note_on_c, 14, 52, 0
20, 73920, Note_on_c, 14, 50, 90
20, 73979, Note_on_c, 14, 50, 0
20, 73980, Note_on_c, 14, 55, 90
20, 74039, Note_on_c, 14, 55, 0
20, 74040, Note_on_c, 14, 50, 90
20, 74099, Note_on_c, 14, 50, 0
20, 74100, Note_on_c, 14, 43, 90
20, 74159, Note_on_c, 14, 43, 0
20, 74160, Note_on_c, 14, 55, 90
20, 74189, Note_on_c, 14, 55, 0
20, 74190, Note_on_c, 14, 54, 90
20, 74219, Note_on_c, 14, 54, 0
20, 74220, Note_on_c, 14, 52, 90
20, 74279, Note_on_c, 14, 52, 0
20, 74280, Note_on_c, 14, 59, 90
20, 74339, Note_on_c, 14, 59, 0
20, 74340, Note_on_c, 14, 60, 90
20, 74399, Note_on_c, 14, 60, 0
20, 74400, Note_on_c, 14, 55, 90
20, 74459, Note_on_c, 14, 55, 0
20, 74460, Note_on_c, 14, 54, 90
20, 74519, Note_on_c, 14, 54, 0
20, 74520, Note_on_c, 14, 55, 90
20, 74579, Note_on_c, 14, 55, 0
20, 74580, Note_on_c, 14, 57, 90
20, 74639, Note_on_c, 14, 57, 0
20, 74640, Note_on_c, 14, 59, 90
20, 74699, Note_on_c, 14, 59, 0
20, 74700, Note_on_c, 14, 52, 90
20, 74759, Note_on_c, 14, 52, 0
20, 74760, Note_on_c, 14, 54, 90
20, 74819, Note_on_c, 14, 54, 0
20, 74820, Note_on_c, 14, 55, 90
20, 74879, Note_on_c, 14, 55, 0
20, 74880, Note_on_c, 14, 57, 90
20, 74999, Note_on_c, 14, 57, 0
20, 75000, Note_on_c, 14, 52, 90
20, 75059, Note_on_c, 14, 52, 0
20, 75060, Note_on_c, 14, 48, 90
20, 75179, Note_on_c, 14, 48, 0
20, 75180, Note_on_c, 14, 47, 90
20, 75239, Note_on_c, 14, 47, 0
20, 75240, Note_on_c, 14, 45, 90
20, 75299, Note_on_c, 14, 45, 0
20, 75300, Note_on_c, 14, 47, 90
20, 75359, Note_on_c, 14, 47, 0
20, 75360, Note_on_c, 14, 48, 90
20, 75419, Note_on_c, 14, 48, 0
20, 75420, Note_on_c, 14, 47, 90
20, 75479, Note_on_c, 14, 47, 0
20, 75540, Note_on_c, 14, 47, 90
20, 75600, Note_on_c, 14, 47, 0
20, 75600, Note_on_c, 14, 52, 90
20, 75660, Note_on_c, 14, 52, 0
20, 75660, Note_on_c, 14, 55, 90
20, 75720, Note_on_c, 14, 55, 0
20, 75720, Note_on_c, 14, 52, 90
20, 75780, Note_on_c, 14, 52, 0
20, 75780, Note_on_c, 14, 59, 90
20, 75840, Note_on_c, 14, 59, 0
20, 75840, Note_on_c, 14, 50, 90
20, 75900, Note_on_c, 14, 50, 0
20, 75900, Note_on_c, 14, 55, 90
20, 75960, Note_on_c, 14, 55, 0
20, 75960, Note_on_c, 14, 49, 90
20, 76020, Note_on_c, 14, 49, 0
20, 76020, Note_on_c, 14, 54, 90
20, 76080, Note_on_c, 14, 54, 0
20, 76080, Note_on_c, 14, 46, 90
20, 76140, Note_on_c, 14, 46, 0
20, 76140, Note_on_c, 14, 47, 90
20, 76200, Note_on_c, 14, 47, 0
20, 76200, Note_on_c, 14, 50, 90
20, 76260, Note_on_c, 14, 50, 0
20, 76260, Note_on_c, 14, 47, 90
20, 76320, Note_on_c, 14, 47, 0
20, 76320, Note_on_c, 14, 55, 90
20, 76380, Note_on_c, 14, 55, 0
20, 76380, Note_on_c, 14, 52, 90
20, 76440, Note_on_c, 14, 52, 0
20, 76440, Note_on_c, 14, 50, 90
20, 76500, Note_on_c, 14, 50, 0
20, 76500, Note_on_c, 14, 49, 90
20, 76560, Note_on_c, 14, 49, 0
20, 76560, Note_on_c, 14, 46, 90
20, 76620, Note_on_c, 14, 46, 0
20, 76620, Note_on_c, 14, 47, 90
20, 76680, Note_on_c, 14, 47, 0
20, 76680, Note_on_c, 14, 43, 90
20, 76740, Note_on_c, 14, 43, 0
20, 76740, Note_on_c, 14, 40, 90
20, 76800, Note_on_c, 14, 40, 0
20, 76800, Note_on_c, 14, 42, 90
20, 76860, Note_on_c, 14, 42, 0
20, 76860, Note_on_c, 14, 47, 90
20, 76920, Note_on_c, 14, 47, 0
20, 76920, Note_on_c, 14, 50, 90
20, 76980, Note_on_c, 14, 50, 0
20, 76980, Note_on_c, 14, 47, 90
20, 77040, Note_on_c, 14, 47, 0
20, 77040, Note_on_c, 14, 52, 90
20, 77100, Note_on_c, 14, 52, 0
20, 77100, Note_on_c, 14, 49, 90
20, 77160, Note_on_c, 14, 49, 0
20, 77160, Note_on_c, 14, 50, 90
20, 77220, Note_on_c, 14, 50, 0
20, 77220, Note_on_c, 14, 55, 90
20, 77280, Note_on_c, 14, 55, 0
20, 77280, Note_on_c, 14, 46, 90
20, 77340, Note_on_c, 14, 46, 0
20, 77340, Note_on_c, 14, 47, 90
20, 77459, Note_on_c, 14, 47, 0
20, 77460, Note_on_c, 14, 55, 90
20, 77519, Note_on_c, 14, 55, 0
20, 77520, Note_on_c, 14, 52, 90
20, 77579, Note_on_c, 14, 52, 0
20, 77580, Note_on_c, 14, 54, 90
20, 77609, Note_on_c, 14, 54, 0
20, 77610, Note_on_c, 14, 55, 90
20, 77639, Note_on_c, 14, 55, 0
20, 77640, Note_on_c, 14, 54, 90
20, 77669, Note_on_c, 14, 54, 0
20, 77670, Note_on_c, 14, 52, 90
20, 77699, Note_on_c, 14, 52, 0
20, 77700, Note_on_c, 14, 50, 90
20, 77729, Note_on_c, 14, 50, 0
20, 77730, Note_on_c, 14, 49, 90
20, 77759, Note_on_c, 14, 49, 0
20, 77760, Note_on_c, 14, 50, 90
20, 77819, Note_on_c, 14, 50, 0
20, 77820, Note_on_c, 14, 47, 90
20, 77879, Note_on_c, 14, 47, 0
20, 77880, Note_on_c, 14, 49, 90
20, 77939, Note_on_c, 14, 49, 0
20, 77940, Note_on_c, 14, 50, 90
20, 77999, Note_on_c, 14, 50, 0
20, 78000, Note_on_c, 14, 49, 90
20, 78059, Note_on_c, 14, 49, 0
20, 78060, Note_on_c, 14, 50, 90
20, 78119, Note_on_c, 14, 50, 0
20, 78120, Note_on_c, 14, 52, 90
20, 78179, Note_on_c, 14, 52, 0
20, 78180, Note_on_c, 14, 50, 90
20, 78239, Note_on_c, 14, 50, 0
20, 78240, Note_on_c, 14, 54, 90
20, 78299, Note_on_c, 14, 54, 0
20, 78300, Note_on_c, 14, 47, 90
20, 78419, Note_on_c, 14, 47, 0
20, 78480, Note_on_c, 14, 52, 90
20, 78539, Note_on_c, 14, 52, 0
20, 78540, Note_on_c, 14, 49, 90
20, 78599, Note_on_c, 14, 49, 0
20, 78600, Note_on_c, 14, 50, 90
20, 78659, Note_on_c, 14, 50, 0
20, 78660, Note_on_c, 14, 55, 90
20, 78719, Note_on_c, 14, 55, 0
20, 78720, Note_on_c, 14, 46, 90
20, 78779, Note_on_c, 14, 46, 0
20, 78780, Note_on_c, 14, 47, 90
20, 78839, Note_on_c, 14, 47, 0
20, 78840, Note_on_c, 14, 38, 90
20, 78899, Note_on_c, 14, 38, 0
20, 78900, Note_on_c, 14, 40, 90
20, 78959, Note_on_c, 14, 40, 0
20, 78960, Note_on_c, 14, 42, 90
20, 79019, Note_on_c, 14, 42, 0
20, 79020, Note_on_c, 14, 47, 90
20, 79079, Note_on_c, 14, 47, 0
20, 79080, Note_on_c, 14, 59, 90
20, 79139, Note_on_c, 14, 59, 0
20, 79140, Note_on_c, 14, 57, 90
20, 79199, Note_on_c, 14, 57, 0
20, 79200, Note_on_c, 14, 55, 90
20, 79259, Note_on_c, 14, 55, 0
20, 79260, Note_on_c, 14, 43, 90
20, 79319, Note_on_c, 14, 43, 0
20, 79320, Note_on_c, 14, 45, 90
20, 79379, Note_on_c, 14, 45, 0
20, 79380, Note_on_c, 14, 47, 90
20, 79439, Note_on_c, 14, 47, 0
20, 79440, Note_on_c, 14, 45, 90
20, 79499, Note_on_c, 14, 45, 0
20, 79500, Note_on_c, 14, 47, 90
20, 79619, Note_on_c, 14, 47, 0
20, 79620, Note_on_c, 14, 43, 90
20, 79679, Note_on_c, 14, 43, 0
20, 79680, Note_on_c, 14, 47, 90
20, 79739, Note_on_c, 14, 47, 0
20, 79740, Note_on_c, 14, 48, 90
20, 79799, Note_on_c, 14, 48, 0
20, 79800, Note_on_c, 14, 52, 90
20, 79859, Note_on_c, 14, 52, 0
20, 79860, Note_on_c, 14, 50, 90
20, 79919, Note_on_c, 14, 50, 0
20, 79920, Note_on_c, 14, 49, 90
20, 79979, Note_on_c, 14, 49, 0
20, 79980, Note_on_c, 14, 45, 90
20, 80039, Note_on_c, 14, 45, 0
20, 80040, Note_on_c, 14, 47, 90
20, 80099, Note_on_c, 14, 47, 0
20, 80100, Note_on_c, 14, 49, 90
20, 80159, Note_on_c, 14, 49, 0
20, 80160, Note_on_c, 14, 47, 90
20, 80219, Note_on_c, 14, 47, 0
20, 80220, Note_on_c, 14, 49, 90
20, 80339, Note_on_c, 14, 49, 0
20, 80340, Note_on_c, 14, 45, 90
20, 80399, Note_on_c, 14, 45, 0
20, 80400, Note_on_c, 14, 49, 90
20, 80459, Note_on_c, 14, 49, 0
20, 80460, Note_on_c, 14, 50, 90
20, 80519, Note_on_c, 14, 50, 0
20, 80520, Note_on_c, 14, 49, 90
20, 80579, Note_on_c, 14, 49, 0
20, 80580, Note_on_c, 14, 47, 90
20, 80639, Note_on_c, 14, 47, 0
20, 80640, Note_on_c, 14, 46, 90
20, 80699, Note_on_c, 14, 46, 0
20, 80700, Note_on_c, 14, 58, 90
20, 80759, Note_on_c, 14, 58, 0
20, 80760, Note_on_c, 14, 54, 90
20, 80819, Note_on_c, 14, 54, 0
20, 80820, Note_on_c, 14, 59, 90
20, 80879, Note_on_c, 14, 59, 0
20, 80880, Note_on_c, 14, 50, 90
20, 80939, Note_on_c, 14, 50, 0
20, 80940, Note_on_c, 14, 47, 90
20, 80999, Note_on_c, 14, 47, 0
20, 81000, Note_on_c, 14, 52, 90
20, 81059, Note_on_c, 14, 52, 0
20, 81060, Note_on_c, 14, 56, 90
20, 81119, Note_on_c, 14, 56, 0
20, 81120, Note_on_c, 14, 52, 90
20, 81179, Note_on_c, 14, 52, 0
20, 81180, Note_on_c, 14, 57, 90
20, 81239, Note_on_c, 14, 57, 0
20, 81240, Note_on_c, 14, 48, 90
20, 81299, Note_on_c, 14, 48, 0
20, 81300, Note_on_c, 14, 45, 90
20, 81359, Note_on_c, 14, 45, 0
20, 81360, Note_on_c, 14, 42, 90
20, 81419, Note_on_c, 14, 42, 0
20, 81420, Note_on_c, 14, 54, 90
20, 81479, Note_on_c, 14, 54, 0
20, 81480, Note_on_c, 14, 50, 90
20, 81539, Note_on_c, 14, 50, 0
20, 81540, Note_on_c, 14, 55, 90
20, 81569, Note_on_c, 14, 55, 0
20, 81570, Note_on_c, 14, 50, 90
20, 81599, Note_on_c, 14, 50, 0
20, 81600, Note_on_c, 14, 54, 90
20, 81629, Note_on_c, 14, 54, 0
20, 81630, Note_on_c, 14, 50, 90
20, 81659, Note_on_c, 14, 50, 0
20, 81660, Note_on_c, 14, 57, 90
20, 81689, Note_on_c, 14, 57, 0
20, 81690, Note_on_c, 14, 50, 90
20, 81719, Note_on_c, 14, 50, 0
20, 81720, Note_on_c, 14, 55, 90
20, 81749, Note_on_c, 14, 55, 0
20, 81750, Note_on_c, 14, 50, 90
20, 81779, Note_on_c, 14, 50, 0
20, 81780, Note_on_c, 14, 47, 90
20, 81809, Note_on_c, 14, 47, 0
20, 81810, Note_on_c, 14, 43, 90
20, 81839, Note_on_c, 14, 43, 0
20, 81840, Note_on_c, 14, 48, 90
20, 81869, Note_on_c, 14, 48, 0
20, 81870, Note_on_c, 14, 45, 90
20, 81899, Note_on_c, 14, 45, 0
20, 81900, Note_on_c, 14, 47, 90
20, 81929, Note_on_c, 14, 47, 0
20, 81930, Note_on_c, 14, 55, 90
20, 81959, Note_on_c, 14, 55, 0
20, 81960, Note_on_c, 14, 52, 90
20, 81989, Note_on_c, 14, 52, 0
20, 81990, Note_on_c, 14, 49, 90
20, 82019, Note_on_c, 14, 49, 0
20, 82020, Note_on_c, 14, 45, 90
20, 82049, Note_on_c, 14, 45, 0
20, 82050, Note_on_c, 14, 49, 90
20, 82079, Note_on_c, 14, 49, 0
20, 82080, Note_on_c, 14, 50, 90
20, 82109, Note_on_c, 14, 50, 0
20, 82110, Note_on_c, 14, 45, 90
20, 82139, Note_on_c, 14, 45, 0
20, 82140, Note_on_c, 14, 54, 90
20, 82169, Note_on_c, 14, 54, 0
20, 82170, Note_on_c, 14, 50, 90
20, 82199, Note_on_c, 14, 50, 0
20, 82200, Note_on_c, 14, 57, 90
20, 82229, Note_on_c, 14, 57, 0
20, 82230, Note_on_c, 14, 54, 90
20, 82259, Note_on_c, 14, 54, 0
20, 82260, Note_on_c, 14, 55, 90
20, 82289, Note_on_c, 14, 55, 0
20, 82290, Note_on_c, 14, 50, 90
20, 82319, Note_on_c, 14, 50, 0
20, 82320, Note_on_c, 14, 54, 90
20, 82349, Note_on_c, 14, 54, 0
20, 82350, Note_on_c, 14, 50, 90
20, 82379, Note_on_c, 14, 50, 0
20, 82380, Note_on_c, 14, 57, 90
20, 82409, Note_on_c, 14, 57, 0
20, 82410, Note_on_c, 14, 50, 90
20, 82439, Note_on_c, 14, 50, 0
20, 82440, Note_on_c, 14, 55, 90
20, 82469, Note_on_c, 14, 55, 0
20, 82470, Note_on_c, 14, 50, 90
20, 82499, Note_on_c, 14, 50, 0
20, 82500, Note_on_c, 14, 47, 90
20, 82529, Note_on_c, 14, 47, 0
20, 82530, Note_on_c, 14, 43, 90
20, 82559, Note_on_c, 14, 43, 0
20, 82560, Note_on_c, 14, 48, 90
20, 82589, Note_on_c, 14, 48, 0
20, 82590, Note_on_c, 14, 52, 90
20, 82619, Note_on_c, 14, 52, 0
20, 82620, Note_on_c, 14, 55, 90
20, 82649, Note_on_c, 14, 55, 0
20, 82650, Note_on_c, 14, 54, 90
20, 82679, Note_on_c, 14, 54, 0
20, 82680, Note_on_c, 14, 52, 90
20, 82709, Note_on_c, 14, 52, 0
20, 82710, Note_on_c, 14, 50, 90
20, 82739, Note_on_c, 14, 50, 0
20, 82740, Note_on_c, 14, 49, 90
20, 82769, Note_on_c, 14, 49, 0
20, 82770, Note_on_c, 14, 57, 90
20, 82799, Note_on_c, 14, 57, 0
20, 82800, Note_on_c, 14, 50, 90
20, 82829, Note_on_c, 14, 50, 0
20, 82830, Note_on_c, 14, 54, 90
20, 82859, Note_on_c, 14, 54, 0
20, 82860, Note_on_c, 14, 47, 90
20, 82889, Note_on_c, 14, 47, 0
20, 82890, Note_on_c, 14, 50, 90
20, 82919, Note_on_c, 14, 50, 0
20, 82920, Note_on_c, 14, 43, 90
20, 82949, Note_on_c, 14, 43, 0
20, 82950, Note_on_c, 14, 47, 90
20, 82979, Note_on_c, 14, 47, 0
20, 82980, Note_on_c, 14, 50, 90
20, 83009, Note_on_c, 14, 50, 0
20, 83010, Note_on_c, 14, 54, 90
20, 83039, Note_on_c, 14, 54, 0
20, 83040, Note_on_c, 14, 59, 90
20, 83069, Note_on_c, 14, 59, 0
20, 83070, Note_on_c, 14, 62, 90
20, 83099, Note_on_c, 14, 62, 0
20, 83100, Note_on_c, 14, 55, 90
20, 83129, Note_on_c, 14, 55, 0
20, 83130, Note_on_c, 14, 59, 90
20, 83159, Note_on_c, 14, 59, 0
20, 83160, Note_on_c, 14, 60, 90
20, 83189, Note_on_c, 14, 60, 0
20, 83190, Note_on_c, 14, 48, 90
20, 83219, Note_on_c, 14, 48, 0
20, 83220, Note_on_c, 14, 48, 90
20, 83249, Note_on_c, 14, 48, 0
20, 83250, Note_on_c, 14, 48, 90
20, 83279, Note_on_c, 14, 48, 0
20, 83280, Note_on_c, 14, 48, 90
20, 83309, Note_on_c, 14, 48, 0
20, 83310, Note_on_c, 14, 48, 90
20, 83339, Note_on_c, 14, 48, 0
20, 83370, Note_on_c, 14, 48, 90
20, 83399, Note_on_c, 14, 48, 0
20, 83400, Note_on_c, 14, 48, 90
20, 83429, Note_on_c, 14, 48, 0
20, 83430, Note_on_c, 14, 48, 90
20, 83459, Note_on_c, 14, 48, 0
20, 83460, Note_on_c, 14, 48, 90
20, 83489, Note_on_c, 14, 48, 0
20, 83490, Note_on_c, 14, 48, 90
20, 83519, Note_on_c, 14, 48, 0
20, 83550, Note_on_c, 14, 48, 90
20, 83579, Note_on_c, 14, 48, 0
20, 83580, Note_on_c, 14, 48, 90
20, 83609, Note_on_c, 14, 48, 0
20, 83610, Note_on_c, 14, 48, 90
20, 83639, Note_on_c, 14, 48, 0
20, 83640, Note_on_c, 14, 48, 90
20, 83669, Note_on_c, 14, 48, 0
20, 83670, Note_on_c, 14, 48, 90
20, 83699, Note_on_c, 14, 48, 0
20, 83730, Note_on_c, 14, 48, 90
20, 83759, Note_on_c, 14, 48, 0
20, 83760, Note_on_c, 14, 47, 90
20, 83789, Note_on_c, 14, 47, 0
20, 83790, Note_on_c, 14, 50, 90
20, 83819, Note_on_c, 14, 50, 0
20, 83820, Note_on_c, 14, 43, 90
20, 83849, Note_on_c, 14, 43, 0
20, 83850, Note_on_c, 14, 47, 90
20, 83879, Note_on_c, 14, 47, 0
20, 83880, Note_on_c, 14, 48, 90
20, 83909, Note_on_c, 14, 48, 0
20, 83910, Note_on_c, 14, 52, 90
20, 83939, Note_on_c, 14, 52, 0
20, 83940, Note_on_c, 14, 50, 90
20, 83969, Note_on_c, 14, 50, 0
20, 83970, Note_on_c, 14, 48, 90
20, 83999, Note_on_c, 14, 48, 0
20, 84000, Note_on_c, 14, 50, 90
20, 84029, Note_on_c, 14, 50, 0
20, 84030, Note_on_c, 14, 38, 90
20, 84059, Note_on_c, 14, 38, 0
20, 84060, Note_on_c, 14, 43, 90
20, 84119, Note_on_c, 14, 43, 0
20, 84120, Note_on_c, 14, 47, 90
20, 84179, Note_on_c, 14, 47, 0
20, 84180, Note_on_c, 14, 52, 90
20, 84239, Note_on_c, 14, 52, 0
20, 84240, Note_on_c, 14, 50, 90
20, 84299, Note_on_c, 14, 50, 0
20, 84300, Note_on_c, 14, 45, 90
20, 84359, Note_on_c, 14, 45, 0
20, 84360, Note_on_c, 14, 47, 90
20, 84419, Note_on_c, 14, 47, 0
20, 84420, Note_on_c, 14, 42, 90
20, 84479, Note_on_c, 14, 42, 0
20, 84480, Note_on_c, 14, 38, 90
20, 84539, Note_on_c, 14, 38, 0
20, 84540, Note_on_c, 14, 43, 90
20, 84599, Note_on_c, 14, 43, 0
20, 84600, Note_on_c, 14, 47, 90
20, 84659, Note_on_c, 14, 47, 0
20, 84660, Note_on_c, 14, 48, 90
20, 84719, Note_on_c, 14, 48, 0
20, 84720, Note_on_c, 14, 50, 90
20, 84779, Note_on_c, 14, 50, 0
20, 84780, Note_on_c, 14, 55, 90
20, 84839, Note_on_c, 14, 55, 0
20, 84840, Note_on_c, 14, 59, 90
20, 84899, Note_on_c, 14, 59, 0
20, 84900, Note_on_c, 14, 55, 90
20, 84959, Note_on_c, 14, 55, 0
20, 84960, Note_on_c, 14, 60, 90
20, 85079, Note_on_c, 14, 60, 0
20, 85080, Note_on_c, 14, 54, 90
20, 85139, Note_on_c, 14, 54, 0
20, 85140, Note_on_c, 14, 59, 90
20, 85199, Note_on_c, 14, 59, 0
20, 85200, Note_on_c, 14, 51, 90
20, 85259, Note_on_c, 14, 51, 0
20, 85260, Note_on_c, 14, 47, 90
20, 85319, Note_on_c, 14, 47, 0
20, 85320, Note_on_c, 14, 40, 90
20, 85379, Note_on_c, 14, 40, 0
20, 85380, Note_on_c, 14, 43, 90
20, 85439, Note_on_c, 14, 43, 0
20, 85440, Note_on_c, 14, 47, 90
20, 85499, Note_on_c, 14, 47, 0
20, 85500, Note_on_c, 14, 50, 90
20, 85559, Note_on_c, 14, 50, 0
20, 85560, Note_on_c, 14, 47, 90
20, 85619, Note_on_c, 14, 47, 0
20, 85620, Note_on_c, 14, 44, 90
20, 85679, Note_on_c, 14, 44, 0
20, 85680, Note_on_c, 14, 40, 90
20, 85739, Note_on_c, 14, 40, 0
20, 85740, Note_on_c, 14, 52, 90
20, 85799, Note_on_c, 14, 52, 0
20, 85800, Note_on_c, 14, 47, 90
20, 85859, Note_on_c, 14, 47, 0
20, 85860, Note_on_c, 14, 44, 90
20, 85919, Note_on_c, 14, 44, 0
20, 85920, Note_on_c, 14, 40, 90
20, 85979, Note_on_c, 14, 40, 0
20, 85980, Note_on_c, 14, 44, 90
20, 86039, Note_on_c, 14, 44, 0
20, 86040, Note_on_c, 14, 45, 90
20, 86099, Note_on_c, 14, 45, 0
20, 86100, Note_on_c, 14, 47, 90
20, 86159, Note_on_c, 14, 47, 0
20, 86160, Note_on_c, 14, 48, 90
20, 86219, Note_on_c, 14, 48, 0
20, 86220, Note_on_c, 14, 47, 90
20, 86339, Note_on_c, 14, 47, 0
20, 86340, Note_on_c, 14, 45, 90
20, 86399, Note_on_c, 14, 45, 0
20, 86400, Note_on_c, 14, 43, 90
20, 86459, Note_on_c, 14, 43, 0
20, 86460, Note_on_c, 14, 40, 90
20, 86519, Note_on_c, 14, 40, 0
20, 86520, Note_on_c, 14, 43, 90
20, 86579, Note_on_c, 14, 43, 0
20, 86580, Note_on_c, 14, 45, 90
20, 86639, Note_on_c, 14, 45, 0
20, 86640, Note_on_c, 14, 47, 90
20, 86699, Note_on_c, 14, 47, 0
20, 86700, Note_on_c, 14, 48, 90
20, 86759, Note_on_c, 14, 48, 0
20, 86760, Note_on_c, 14, 47, 90
20, 86819, Note_on_c, 14, 47, 0
20, 86820, Note_on_c, 14, 59, 90
20, 86879, Note_on_c, 14, 59, 0
20, 86880, Note_on_c, 14, 57, 90
20, 86939, Note_on_c, 14, 57, 0
20, 86940, Note_on_c, 14, 55, 90
20, 86969, Note_on_c, 14, 55, 0
20, 86970, Note_on_c, 14, 54, 90
20, 86999, Note_on_c, 14, 54, 0
20, 87000, Note_on_c, 14, 55, 90
20, 87029, Note_on_c, 14, 55, 0
20, 87030, Note_on_c, 14, 52, 90
20, 87059, Note_on_c, 14, 52, 0
20, 87060, Note_on_c, 14, 54, 90
20, 87089, Note_on_c, 14, 54, 0
20, 87090, Note_on_c, 14, 51, 90
20, 87119, Note_on_c, 14, 51, 0
20, 87120, Note_on_c, 14, 52, 90
20, 87149, Note_on_c, 14, 52, 0
20, 87150, Note_on_c, 14, 47, 90
20, 87179, Note_on_c, 14, 47, 0
20, 87180, Note_on_c, 14, 49, 90
20, 87209, Note_on_c, 14, 49, 0
20, 87210, Note_on_c, 14, 47, 90
20, 87239, Note_on_c, 14, 47, 0
20, 87240, Note_on_c, 14, 54, 90
20, 87269, Note_on_c, 14, 54, 0
20, 87270, Note_on_c, 14, 47, 90
20, 87299, Note_on_c, 14, 47, 0
20, 87300, Note_on_c, 14, 52, 90
20, 87329, Note_on_c, 14, 52, 0
20, 87330, Note_on_c, 14, 47, 90
20, 87359, Note_on_c, 14, 47, 0
20, 87360, Note_on_c, 14, 43, 90
20, 87389, Note_on_c, 14, 43, 0
20, 87390, Note_on_c, 14, 40, 90
20, 87419, Note_on_c, 14, 40, 0
20, 87420, Note_on_c, 14, 45, 90
20, 87449, Note_on_c, 14, 45, 0
20, 87450, Note_on_c, 14, 48, 90
20, 87479, Note_on_c, 14, 48, 0
20, 87480, Note_on_c, 14, 52, 90
20, 87509, Note_on_c, 14, 52, 0
20, 87510, Note_on_c, 14, 50, 90
20, 87539, Note_on_c, 14, 50, 0
20, 87540, Note_on_c, 14, 48, 90
20, 87569, Note_on_c, 14, 48, 0
20, 87570, Note_on_c, 14, 47, 90
20, 87599, Note_on_c, 14, 47, 0
20, 87600, Note_on_c, 14, 48, 90
20, 87629, Note_on_c, 14, 48, 0
20, 87630, Note_on_c, 14, 45, 90
20, 87659, Note_on_c, 14, 45, 0
20, 87660, Note_on_c, 14, 47, 90
20, 87689, Note_on_c, 14, 47, 0
20, 87690, Note_on_c, 14, 51, 90
20, 87719, Note_on_c, 14, 51, 0
20, 87720, Note_on_c, 14, 54, 90
20, 87749, Note_on_c, 14, 54, 0
20, 87750, Note_on_c, 14, 51, 90
20, 87779, Note_on_c, 14, 51, 0
20, 87780, Note_on_c, 14, 47, 90
20, 87809, Note_on_c, 14, 47, 0
20, 87810, Note_on_c, 14, 51, 90
20, 87839, Note_on_c, 14, 51, 0
20, 87840, Note_on_c, 14, 52, 90
20, 87899, Note_on_c, 14, 52, 0
20, 87900, Note_on_c, 14, 54, 90
20, 87959, Note_on_c, 14, 54, 0
20, 87960, Note_on_c, 14, 47, 90
20, 88019, Note_on_c, 14, 47, 0
20, 88020, Note_on_c, 14, 52, 90
20, 88049, Note_on_c, 14, 52, 0
20, 88050, Note_on_c, 14, 55, 90
20, 88079, Note_on_c, 14, 55, 0
20, 88080, Note_on_c, 14, 57, 90
20, 88109, Note_on_c, 14, 57, 0
20, 88110, Note_on_c, 14, 54, 90
20, 88139, Note_on_c, 14, 54, 0
20, 88140, Note_on_c, 14, 60, 90
20, 88169, Note_on_c, 14, 60, 0
20, 88170, Note_on_c, 14, 57, 90
20, 88199, Note_on_c, 14, 57, 0
20, 88200, Note_on_c, 14, 59, 90
20, 88229, Note_on_c, 14, 59, 0
20, 88230, Note_on_c, 14, 55, 90
20, 88259, Note_on_c, 14, 55, 0
20, 88260, Note_on_c, 14, 57, 90
20, 88289, Note_on_c, 14, 57, 0
20, 88290, Note_on_c, 14, 60, 90
20, 88319, Note_on_c, 14, 60, 0
20, 88320, Note_on_c, 14, 57, 90
20, 88349, Note_on_c, 14, 57, 0
20, 88350, Note_on_c, 14, 54, 90
20, 88379, Note_on_c, 14, 54, 0
20, 88380, Note_on_c, 14, 55, 90
20, 88409, Note_on_c, 14, 55, 0
20, 88410, Note_on_c, 14, 52, 90
20, 88439, Note_on_c, 14, 52, 0
20, 88440, Note_on_c, 14, 54, 90
20, 88469, Note_on_c, 14, 54, 0
20, 88470, Note_on_c, 14, 57, 90
20, 88499, Note_on_c, 14, 57, 0
20, 88500, Note_on_c, 14, 55, 90
20, 88529, Note_on_c, 14, 55, 0
20, 88530, Note_on_c, 14, 52, 90
20, 88559, Note_on_c, 14, 52, 0
20, 88560, Note_on_c, 14, 59, 90
20, 88589, Note_on_c, 14, 59, 0
20, 88590, Note_on_c, 14, 54, 90
20, 88619, Note_on_c, 14, 54, 0
20, 88620, Note_on_c, 14, 55, 90
20, 88649, Note_on_c, 14, 55, 0
20, 88650, Note_on_c, 14, 51, 90
20, 88679, Note_on_c, 14, 51, 0
20, 88680, Note_on_c, 14, 52, 90
20, 88709, Note_on_c, 14, 52, 0
20, 88710, Note_on_c, 14, 47, 90
20, 88739, Note_on_c, 14, 47, 0
20, 88740, Note_on_c, 14, 48, 90
20, 88769, Note_on_c, 14, 48, 0
20, 88770, Note_on_c, 14, 52, 90
20, 88799, Note_on_c, 14, 52, 0
20, 88800, Note_on_c, 14, 45, 90
20, 88889, Note_on_c, 14, 45, 0
20, 88890, Note_on_c, 14, 43, 90
20, 88904, Note_on_c, 14, 43, 0
20, 88905, Note_on_c, 14, 42, 90
20, 88919, Note_on_c, 14, 42, 0
20, 88920, Note_on_c, 14, 43, 90
20, 88949, Note_on_c, 14, 43, 0
20, 88950, Note_on_c, 14, 45, 90
20, 88979, Note_on_c, 14, 45, 0
20, 88980, Note_on_c, 14, 47, 90
20, 89039, Note_on_c, 14, 47, 0
20, 89040, Note_on_c, 14, 47, 90
20, 89099, Note_on_c, 14, 47, 0
20, 89100, Note_on_c, 14, 40, 90
20, 89159, Note_on_c, 14, 40, 0
20, 89160, Note_on_c, 14, 52, 90
20, 89219, Note_on_c, 14, 52, 0
20, 89220, Note_on_c, 14, 54, 90
20, 89279, Note_on_c, 14, 54, 0
20, 89280, Note_on_c, 14, 55, 90
20, 89339, Note_on_c, 14, 55, 0
20, 89340, Note_on_c, 14, 54, 90
20, 89399, Note_on_c, 14, 54, 0
20, 89400, Note_on_c, 14, 55, 90
20, 89459, Note_on_c, 14, 55, 0
20, 89460, Note_on_c, 14, 57, 90
20, 89519, Note_on_c, 14, 57, 0
20, 89520, Note_on_c, 14, 55, 90
20, 89579, Note_on_c, 14, 55, 0
20, 89580, Note_on_c, 14, 59, 90
20, 89639, Note_on_c, 14, 59, 0
20, 89640, Note_on_c, 14, 52, 90
20, 89699, Note_on_c, 14, 52, 0
20, 89760, Note_on_c, 14, 55, 90
20, 89819, Note_on_c, 14, 55, 0
20, 89820, Note_on_c, 14, 57, 90
20, 89879, Note_on_c, 14, 57, 0
20, 89880, Note_on_c, 14, 54, 90
20, 89939, Note_on_c, 14, 54, 0
20, 89940, Note_on_c, 14, 55, 90
20, 89999, Note_on_c, 14, 55, 0
20, 90000, Note_on_c, 14, 54, 90
20, 90059, Note_on_c, 14, 54, 0
20, 90060, Note_on_c, 14, 52, 90
20, 90119, Note_on_c, 14, 52, 0
20, 90120, Note_on_c, 14, 51, 90
20, 90179, Note_on_c, 14, 51, 0
20, 90180, Note_on_c, 14, 52, 90
20, 90239, Note_on_c, 14, 52, 0
20, 90240, Note_on_c, 14, 43, 90
20, 90299, Note_on_c, 14, 43, 0
20, 90300, Note_on_c, 14, 47, 90
20, 90359, Note_on_c, 14, 47, 0
20, 90360, Note_on_c, 14, 40, 90
20, 90539, Note_on_c, 14, 40, 0
20, 90720, Note_on_c, 14, 54, 100
20, 91680, Note_on_c, 14, 54, 0
20, 91680, Note_on_c, 14, 53, 100
20, 91920, Note_on_c, 14, 53, 0
20, 91920, Note_on_c, 14, 47, 100
20, 92040, Note_on_c, 14, 47, 0
20, 92040, Note_on_c, 14, 48, 100
20, 92160, Note_on_c, 14, 48, 0
20, 92280, Note_on_c, 14, 52, 100
20, 92400, Note_on_c, 14, 52, 0
20, 92400, Note_on_c, 14, 45, 100
20, 92640, Note_on_c, 14, 45, 0
20, 93000, Note_on_c, 14, 48, 90
20, 93119, Note_on_c, 14, 48, 0
20, 93120, Note_on_c, 14, 55, 90
20, 93239, Note_on_c, 14, 55, 0
20, 93240, Note_on_c, 14, 57, 90
20, 93359, Note_on_c, 14, 57, 0
20, 93360, Note_on_c, 14, 51, 90
20, 93479, Note_on_c, 14, 51, 0
20, 93480, Note_on_c, 14, 52, 90
20, 93599, Note_on_c, 14, 52, 0
20, 93600, Note_on_c, 14, 53, 90
20, 93659, Note_on_c, 14, 53, 0
20, 93660, Note_on_c, 14, 52, 90
20, 93719, Note_on_c, 14, 52, 0
20, 93720, Note_on_c, 14, 50, 90
20, 93839, Note_on_c, 14, 50, 0
20, 93840, Note_on_c, 14, 48, 90
20, 93929, Note_on_c, 14, 48, 0
20, 93960, Note_on_c, 14, 45, 90
20, 94019, Note_on_c, 14, 45, 0
20, 94020, Note_on_c, 14, 47, 90
20, 94079, Note_on_c, 14, 47, 0
20, 94080, Note_on_c, 14, 48, 90
20, 94139, Note_on_c, 14, 48, 0
20, 94140, Note_on_c, 14, 50, 90
20, 94199, Note_on_c, 14, 50, 0
20, 94200, Note_on_c, 14, 52, 90
20, 94259, Note_on_c, 14, 52, 0
20, 94260, Note_on_c, 14, 53, 90
20, 94319, Note_on_c, 14, 53, 0
20, 94320, Note_on_c, 14, 55, 90
20, 94379, Note_on_c, 14, 55, 0
20, 94380, Note_on_c, 14, 57, 90
20, 94439, Note_on_c, 14, 57, 0
20, 94440, Note_on_c, 14, 58, 90
20, 94559, Note_on_c, 14, 58, 0
20, 94560, Note_on_c, 14, 52, 90
20, 94679, Note_on_c, 14, 52, 0
20, 94680, Note_on_c, 14, 53, 90
20, 94799, Note_on_c, 14, 53, 0
20, 94800, Note_on_c, 14, 48, 90
20, 94889, Note_on_c, 14, 48, 0
20, 94920, Note_on_c, 14, 57, 90
20, 94979, Note_on_c, 14, 57, 0
20, 94980, Note_on_c, 14, 55, 90
20, 95039, Note_on_c, 14, 55, 0
20, 95040, Note_on_c, 14, 53, 90
20, 95099, Note_on_c, 14, 53, 0
20, 95100, Note_on_c, 14, 52, 90
20, 95159, Note_on_c, 14, 52, 0
20, 95160, Note_on_c, 14, 50, 90
20, 95219, Note_on_c, 14, 50, 0
20, 95220, Note_on_c, 14, 48, 90
20, 95279, Note_on_c, 14, 48, 0
20, 95280, Note_on_c, 14, 47, 90
20, 95339, Note_on_c, 14, 47, 0
20, 95340, Note_on_c, 14, 45, 90
20, 95399, Note_on_c, 14, 45, 0
20, 95400, Note_on_c, 14, 43, 90
20, 95519, Note_on_c, 14, 43, 0
20, 95520, Note_on_c, 14, 45, 90
20, 95699, Note_on_c, 14, 45, 0
20, 95700, Note_on_c, 14, 47, 90
20, 95759, Note_on_c, 14, 47, 0
20, 95760, Note_on_c, 14, 48, 90
20, 95849, Note_on_c, 14, 48, 0
20, 95880, Note_on_c, 14, 48, 90
20, 95939, Note_on_c, 14, 48, 0
20, 95940, Note_on_c, 14, 50, 90
20, 95999, Note_on_c, 14, 50, 0
20, 96000, Note_on_c, 14, 52, 90
20, 96179, Note_on_c, 14, 52, 0
20, 96180, Note_on_c, 14, 50, 90
20, 96239, Note_on_c, 14, 50, 0
20, 96240, Note_on_c, 14, 50, 90
20, 96299, Note_on_c, 14, 50, 0
20, 96300, Note_on_c, 14, 48, 90
20, 96359, Note_on_c, 14, 48, 0
20, 96360, Note_on_c, 14, 48, 90
20, 96419, Note_on_c, 14, 48, 0
20, 96420, Note_on_c, 14, 47, 90
20, 96479, Note_on_c, 14, 47, 0
20, 96480, Note_on_c, 14, 45, 90
20, 96539, Note_on_c, 14, 45, 0
20, 96540, Note_on_c, 14, 43, 90
20, 96569, Note_on_c, 14, 43, 0
20, 96570, Note_on_c, 14, 41, 90
20, 96599, Note_on_c, 14, 41, 0
20, 96600, Note_on_c, 14, 43, 90
20, 96719, Note_on_c, 14, 43, 0
20, 96720, Note_on_c, 14, 36, 90
20, 96839, Note_on_c, 14, 36, 0
20, 96960, Note_on_c, 14, 45, 90
20, 97079, Note_on_c, 14, 45, 0
20, 97230, Note_on_c, 14, 45, 90
20, 97259, Note_on_c, 14, 45, 0
20, 97260, Note_on_c, 14, 48, 90
20, 97289, Note_on_c, 14, 48, 0
20, 97290, Note_on_c, 14, 52, 90
20, 97319, Note_on_c, 14, 52, 0
20, 97320, Note_on_c, 14, 57, 90
20, 97379, Note_on_c, 14, 57, 0
20, 97470, Note_on_c, 14, 45, 90
20, 97499, Note_on_c, 14, 45, 0
20, 97500, Note_on_c, 14, 50, 90
20, 97529, Note_on_c, 14, 50, 0
20, 97530, Note_on_c, 14, 53, 90
20, 97559, Note_on_c, 14, 53, 0
20, 97560, Note_on_c, 14, 57, 90
20, 97619, Note_on_c, 14, 57, 0
20, 97710, Note_on_c, 14, 45, 90
20, 97739, Note_on_c, 14, 45, 0
20, 97740, Note_on_c, 14, 50, 90
20, 97769, Note_on_c, 14, 50, 0
20, 97770, Note_on_c, 14, 53, 90
20, 97799, Note_on_c, 14, 53, 0
20, 97800, Note_on_c, 14, 56, 90
20, 97859, Note_on_c, 14, 56, 0
20, 97950, Note_on_c, 14, 45, 90
20, 97979, Note_on_c, 14, 45, 0
20, 97980, Note_on_c, 14, 48, 90
20, 98009, Note_on_c, 14, 48, 0
20, 98010, Note_on_c, 14, 52, 90
20, 98039, Note_on_c, 14, 52, 0
20, 98040, Note_on_c, 14, 57, 90
20, 98099, Note_on_c, 14, 57, 0
20, 98190, Note_on_c, 14, 45, 90
20, 98219, Note_on_c, 14, 45, 0
20, 98220, Note_on_c, 14, 48, 90
20, 98249, Note_on_c, 14, 48, 0
20, 98250, Note_on_c, 14, 54, 90
20, 98279, Note_on_c, 14, 54, 0
20, 98280, Note_on_c, 14, 57, 90
20, 98339, Note_on_c, 14, 57, 0
20, 98430, Note_on_c, 14, 47, 90
20, 98459, Note_on_c, 14, 47, 0
20, 98460, Note_on_c, 14, 50, 90
20, 98489, Note_on_c, 14, 50, 0
20, 98490, Note_on_c, 14, 55, 90
20, 98519, Note_on_c, 14, 55, 0
20, 98520, Note_on_c, 14, 59, 90
20, 98579, Note_on_c, 14, 59, 0
20, 98670, Note_on_c, 14, 43, 90
20, 98699, Note_on_c, 14, 43, 0
20, 98700, Note_on_c, 14, 47, 90
20, 98729, Note_on_c, 14, 47, 0
20, 98730, Note_on_c, 14, 50, 90
20, 98759, Note_on_c, 14, 50, 0
20, 98760, Note_on_c, 14, 55, 90
20, 98819, Note_on_c, 14, 55, 0
20, 98880, Note_on_c, 14, 48, 100
20, 99000, Note_on_c, 14, 48, 0
20, 99000, Note_on_c, 14, 48, 100
20, 99120, Note_on_c, 14, 48, 0
20, 99120, Note_on_c, 14, 48, 100
20, 99240, Note_on_c, 14, 48, 0
20, 99240, Note_on_c, 14, 48, 100
20, 99360, Note_on_c, 14, 48, 0
20, 99360, Note_on_c, 14, 48, 100
20, 99480, Note_on_c, 14, 48, 0
20, 99480, Note_on_c, 14, 48, 100
20, 99600, Note_on_c, 14, 48, 0
20, 99600, Note_on_c, 14, 48, 100
20, 99720, Note_on_c, 14, 48, 0
20, 99720, Note_on_c, 14, 48, 100
20, 99840, Note_on_c, 14, 48, 0
20, 99840, Note_on_c, 14, 49, 100
20, 99960, Note_on_c, 14, 49, 0
20, 99960, Note_on_c, 14, 49, 100
20, 100080, Note_on_c, 14, 49, 0
20, 100080, Note_on_c, 14, 49, 100
20, 100200, Note_on_c, 14, 49, 0
20, 100200, Note_on_c, 14, 49, 100
20, 100320, Note_on_c, 14, 49, 0
20, 100320, Note_on_c, 14, 48, 100
20, 100440, Note_on_c, 14, 48, 0
20, 100440, Note_on_c, 14, 48, 100
20, 100560, Note_on_c, 14, 48, 0
20, 100560, Note_on_c, 14, 47, 100
20, 100680, Note_on_c, 14, 47, 0
20, 100680, Note_on_c, 14, 48, 100
20, 100800, Note_on_c, 14, 48, 0
20, 100800, Note_on_c, 14, 50, 100
20, 100920, Note_on_c, 14, 50, 0
20, 100920, Note_on_c, 14, 50, 90
20, 100980, Note_on_c, 14, 50, 0
20, 100980, Note_on_c, 14, 38, 90
20, 101040, Note_on_c, 14, 38, 0
20, 101040, Note_on_c, 14, 43, 90
20, 101279, Note_on_c, 14, 43, 0
20, 101520, Note_on_c, 14, 43, 90
20, 101579, Note_on_c, 14, 43, 0
20, 101580, Note_on_c, 14, 55, 90
20, 101639, Note_on_c, 14, 55, 0
20, 101640, Note_on_c, 14, 55, 90
20, 101699, Note_on_c, 14, 55, 0
20, 101700, Note_on_c, 14, 43, 90
20, 101759, Note_on_c, 14, 43, 0
20, 101760, Note_on_c, 14, 43, 90
20, 101819, Note_on_c, 14, 43, 0
20, 101820, Note_on_c, 14, 55, 90
20, 101879, Note_on_c, 14, 55, 0
20, 101880, Note_on_c, 14, 55, 90
20, 101939, Note_on_c, 14, 55, 0
20, 101940, Note_on_c, 14, 43, 90
20, 101999, Note_on_c, 14, 43, 0
20, 102000, Note_on_c, 14, 43, 90
20, 102059, Note_on_c, 14, 43, 0
20, 102060, Note_on_c, 14, 55, 90
20, 102119, Note_on_c, 14, 55, 0
20, 102120, Note_on_c, 14, 55, 90
20, 102179, Note_on_c, 14, 55, 0
20, 102180, Note_on_c, 14, 43, 90
20, 102239, Note_on_c, 14, 43, 0
20, 102240, Note_on_c, 14, 43, 90
20, 102299, Note_on_c, 14, 43, 0
20, 102300, Note_on_c, 14, 55, 90
20, 102359, Note_on_c, 14, 55, 0
20, 102360, Note_on_c, 14, 55, 90
20, 102419, Note_on_c, 14, 55, 0
20, 102420, Note_on_c, 14, 43, 90
20, 102479, Note_on_c, 14, 43, 0
20, 102480, Note_on_c, 14, 43, 90
20, 102539, Note_on_c, 14, 43, 0
20, 102540, Note_on_c, 14, 55, 90
20, 102599, Note_on_c, 14, 55, 0
20, 102600, Note_on_c, 14, 55, 90
20, 102659, Note_on_c, 14, 55, 0
20, 102660, Note_on_c, 14, 43, 90
20, 102719, Note_on_c, 14, 43, 0
20, 102720, Note_on_c, 14, 43, 90
20, 102779, Note_on_c, 14, 43, 0
20, 102780, Note_on_c, 14, 55, 90
20, 102839, Note_on_c, 14, 55, 0
20, 102840, Note_on_c, 14, 55, 90
20, 102899, Note_on_c, 14, 55, 0
20, 102900, Note_on_c, 14, 43, 90
20, 102959, Note_on_c, 14, 43, 0
20, 102960, Note_on_c, 14, 43, 90
20, 103019, Note_on_c, 14, 43, 0
20, 103020, Note_on_c, 14, 55, 90
20, 103079, Note_on_c, 14, 55, 0
20, 103080, Note_on_c, 14, 55, 90
20, 103139, Note_on_c, 14, 55, 0
20, 103140, Note_on_c, 14, 43, 90
20, 103199, Note_on_c, 14, 43, 0
20, 103200, Note_on_c, 14, 43, 90
20, 103259, Note_on_c, 14, 43, 0
20, 103260, Note_on_c, 14, 55, 90
20, 103319, Note_on_c, 14, 55, 0
20, 103320, Note_on_c, 14, 55, 90
20, 103379, Note_on_c, 14, 55, 0
20, 103380, Note_on_c, 14, 43, 90
20, 103439, Note_on_c, 14, 43, 0
20, 103440, Note_on_c, 14, 43, 90
20, 104220, Note_on_c, 14, 43, 0
20, 104220, Note_on_c, 14, 45, 90
20, 104279, Note_on_c, 14, 45, 0
20, 104280, Note_on_c, 14, 47, 90
20, 104339, Note_on_c, 14, 47, 0
20, 104340, Note_on_c, 14, 43, 90
20, 104399, Note_on_c, 14, 43, 0
20, 104400, Note_on_c, 14, 48, 90
20, 104459, Note_on_c, 14, 48, 0
20, 104520, Note_on_c, 14, 45, 90
20, 104579, Note_on_c, 14, 45, 0
20, 104640, Note_on_c, 14, 50, 90
20, 104699, Note_on_c, 14, 50, 0
20, 104760, Note_on_c, 14, 47, 90
20, 104819, Note_on_c, 14, 47, 0
20, 104880, Note_on_c, 14, 52, 90
20, 104939, Note_on_c, 14, 52, 0
20, 104940, Note_on_c, 14, 48, 90
20, 104999, Note_on_c, 14, 48, 0
20, 105000, Note_on_c, 14, 50, 90
20, 105059, Note_on_c, 14, 50, 0
20, 105060, Note_on_c, 14, 38, 90
20, 105119, Note_on_c, 14, 38, 0
20, 105120, Note_on_c, 14, 40, 90
20, 105179, Note_on_c, 14, 40, 0
20, 105240, Note_on_c, 14, 45, 90
20, 105299, Note_on_c, 14, 45, 0
20, 105360, Note_on_c, 14, 38, 90
20, 105419, Note_on_c, 14, 38, 0
20, 105420, Note_on_c, 14, 59, 90
20, 105479, Note_on_c, 14, 59, 0
20, 105480, Note_on_c, 14, 57, 90
20, 105509, Note_on_c, 14, 57, 0
20, 105510, Note_on_c, 14, 55, 90
20, 105539, Note_on_c, 14, 55, 0
20, 105540, Note_on_c, 14, 54, 90
20, 105569, Note_on_c, 14, 54, 0
20, 105570, Note_on_c, 14, 52, 90
20, 105599, Note_on_c, 14, 52, 0
20, 105600, Note_on_c, 14, 50, 90
20, 105659, Note_on_c, 14, 50, 0
20, 105720, Note_on_c, 14, 48, 90
20, 105779, Note_on_c, 14, 48, 0
20, 105840, Note_on_c, 14, 47, 90
20, 105899, Note_on_c, 14, 47, 0
20, 105900, Note_on_c, 14, 52, 90
20, 105959, Note_on_c, 14, 52, 0
20, 105960, Note_on_c, 14, 50, 90
20, 105989, Note_on_c, 14, 50, 0
20, 105990, Note_on_c, 14, 48, 90
20, 106019, Note_on_c, 14, 48, 0
20, 106020, Note_on_c, 14, 47, 90
20, 106049, Note_on_c, 14, 47, 0
20, 106050, Note_on_c, 14, 45, 90
20, 106079, Note_on_c, 14, 45, 0
20, 106080, Note_on_c, 14, 44, 90
20, 106139, Note_on_c, 14, 44, 0
20, 106140, Note_on_c, 14, 56, 90
20, 106199, Note_on_c, 14, 56, 0
20, 106200, Note_on_c, 14, 56, 90
20, 106259, Note_on_c, 14, 56, 0
20, 106260, Note_on_c, 14, 44, 90
20, 106319, Note_on_c, 14, 44, 0
20, 106320, Note_on_c, 14, 45, 90
20, 106379, Note_on_c, 14, 45, 0
20, 106380, Note_on_c, 14, 57, 90
20, 106439, Note_on_c, 14, 57, 0
20, 106440, Note_on_c, 14, 57, 90
20, 106499, Note_on_c, 14, 57, 0
20, 106500, Note_on_c, 14, 52, 90
20, 106559, Note_on_c, 14, 52, 0
20, 106560, Note_on_c, 14, 49, 90
20, 106619, Note_on_c, 14, 49, 0
20, 106620, Note_on_c, 14, 61, 90
20, 106679, Note_on_c, 14, 61, 0
20, 106680, Note_on_c, 14, 61, 90
20, 106739, Note_on_c, 14, 61, 0
20, 106740, Note_on_c, 14, 49, 90
20, 106799, Note_on_c, 14, 49, 0
20, 106800, Note_on_c, 14, 50, 90
20, 106859, Note_on_c, 14, 50, 0
20, 106860, Note_on_c, 14, 62, 90
20, 106919, Note_on_c, 14, 62, 0
20, 106920, Note_on_c, 14, 62, 90
20, 106979, Note_on_c, 14, 62, 0
20, 106980, Note_on_c, 14, 57, 90
20, 107039, Note_on_c, 14, 57, 0
20, 107040, Note_on_c, 14, 54, 90
20, 107099, Note_on_c, 14, 54, 0
20, 107100, Note_on_c, 14, 42, 90
20, 107159, Note_on_c, 14, 42, 0
20, 107160, Note_on_c, 14, 42, 90
20, 107219, Note_on_c, 14, 42, 0
20, 107220, Note_on_c, 14, 54, 90
20, 107279, Note_on_c, 14, 54, 0
20, 107280, Note_on_c, 14, 55, 90
20, 107339, Note_on_c, 14, 55, 0
20, 107340, Note_on_c, 14, 43, 90
20, 107399, Note_on_c, 14, 43, 0
20, 107400, Note_on_c, 14, 43, 90
20, 107459, Note_on_c, 14, 43, 0
20, 107460, Note_on_c, 14, 52, 90
20, 107519, Note_on_c, 14, 52, 0
20, 107520, Note_on_c, 14, 47, 90
20, 107579, Note_on_c, 14, 47, 0
20, 107580, Note_on_c, 14, 48, 90
20, 107639, Note_on_c, 14, 48, 0
20, 107640, Note_on_c, 14, 50, 90
20, 107699, Note_on_c, 14, 50, 0
20, 107700, Note_on_c, 14, 48, 90
20, 107759, Note_on_c, 14, 48, 0
20, 107760, Note_on_c, 14, 47, 90
20, 107819, Note_on_c, 14, 47, 0
20, 107820, Note_on_c, 14, 48, 90
20, 107879, Note_on_c, 14, 48, 0
20, 107880, Note_on_c, 14, 50, 90
20, 107939, Note_on_c, 14, 50, 0
20, 107940, Note_on_c, 14, 38, 90
20, 107999, Note_on_c, 14, 38, 0
20, 108000, Note_on_c, 14, 43, 90
20, 108119, Note_on_c, 14, 43, 0
20, 108240, Note_on_c, 14, 43, 90
20, 108299, Note_on_c, 14, 43, 0
20, 108300, Note_on_c, 14, 55, 90
20, 108359, Note_on_c, 14, 55, 0
20, 108360, Note_on_c, 14, 55, 90
20, 108419, Note_on_c, 14, 55, 0
20, 108420, Note_on_c, 14, 43, 90
20, 108479, Note_on_c, 14, 43, 0
20, 108480, Note_on_c, 14, 43, 90
20, 108539, Note_on_c, 14, 43, 0
20, 108540, Note_on_c, 14, 55, 90
20, 108599, Note_on_c, 14, 55, 0
20, 108600, Note_on_c, 14, 55, 90
20, 108659, Note_on_c, 14, 55, 0
20, 108660, Note_on_c, 14, 43, 90
20, 108719, Note_on_c, 14, 43, 0
20, 108720, Note_on_c, 14, 43, 90
20, 108779, Note_on_c, 14, 43, 0
20, 108780, Note_on_c, 14, 55, 90
20, 108839, Note_on_c, 14, 55, 0
20, 108840, Note_on_c, 14, 55, 90
20, 108899, Note_on_c, 14, 55, 0
20, 108900, Note_on_c, 14, 43, 90
20, 108959, Note_on_c, 14, 43, 0
20, 108960, Note_on_c, 14, 43, 90
20, 109019, Note_on_c, 14, 43, 0
20, 109080, Note_on_c, 14, 47, 90
20, 109139, Note_on_c, 14, 47, 0
20, 109200, Note_on_c, 14, 48, 90
20, 109259, Note_on_c, 14, 48, 0
20, 109320, Note_on_c, 14, 45, 90
20, 109379, Note_on_c, 14, 45, 0
20, 109440, Note_on_c, 14, 52, 90
20, 109499, Note_on_c, 14, 52, 0
20, 109500, Note_on_c, 14, 50, 90
20, 109559, Note_on_c, 14, 50, 0
20, 109560, Note_on_c, 14, 48, 90
20, 109619, Note_on_c, 14, 48, 0
20, 109620, Note_on_c, 14, 47, 90
20, 109679, Note_on_c, 14, 47, 0
20, 109680, Note_on_c, 14, 45, 90
20, 109739, Note_on_c, 14, 45, 0
20, 109740, Note_on_c, 14, 57, 90
20, 109799, Note_on_c, 14, 57, 0
20, 109800, Note_on_c, 14, 57, 90
20, 109859, Note_on_c, 14, 57, 0
20, 109860, Note_on_c, 14, 45, 90
20, 109919, Note_on_c, 14, 45, 0
20, 109920, Note_on_c, 14, 43, 90
20, 109979, Note_on_c, 14, 43, 0
20, 110040, Note_on_c, 14, 42, 90
20, 110099, Note_on_c, 14, 42, 0
20, 110160, Note_on_c, 14, 38, 90
20, 110219, Note_on_c, 14, 38, 0
20, 110220, Note_on_c, 14, 50, 90
20, 110279, Note_on_c, 14, 50, 0
20, 110280, Note_on_c, 14, 50, 90
20, 110339, Note_on_c, 14, 50, 0
20, 110340, Note_on_c, 14, 38, 90
20, 110399, Note_on_c, 14, 38, 0
20, 110400, Note_on_c, 14, 45, 90
20, 110459, Note_on_c, 14, 45, 0
20, 110460, Note_on_c, 14, 57, 90
20, 110519, Note_on_c, 14, 57, 0
20, 110520, Note_on_c, 14, 57, 90
20, 110579, Note_on_c, 14, 57, 0
20, 110580, Note_on_c, 14, 45, 90
20, 110639, Note_on_c, 14, 45, 0
20, 110640, Note_on_c, 14, 42, 90
20, 110699, Note_on_c, 14, 42, 0
20, 110700, Note_on_c, 14, 50, 90
20, 110759, Note_on_c, 14, 50, 0
20, 110760, Note_on_c, 14, 50, 90
20, 110819, Note_on_c, 14, 50, 0
20, 110820, Note_on_c, 14, 38, 90
20, 110879, Note_on_c, 14, 38, 0
20, 110880, Note_on_c, 14, 43, 90
20, 110939, Note_on_c, 14, 43, 0
20, 110940, Note_on_c, 14, 55, 90
20, 110999, Note_on_c, 14, 55, 0
20, 111000, Note_on_c, 14, 55, 90
20, 111059, Note_on_c, 14, 55, 0
20, 111060, Note_on_c, 14, 43, 90
20, 111119, Note_on_c, 14, 43, 0
20, 111120, Note_on_c, 14, 43, 90
20, 111900, Note_on_c, 14, 43, 0
20, 111900, Note_on_c, 14, 55, 90
20, 111959, Note_on_c, 14, 55, 0
20, 111960, Note_on_c, 14, 55, 90
20, 112019, Note_on_c, 14, 55, 0
20, 112020, Note_on_c, 14, 43, 90
20, 112079, Note_on_c, 14, 43, 0
20, 112080, Note_on_c, 14, 43, 90
20, 112139, Note_on_c, 14, 43, 0
20, 112140, Note_on_c, 14, 55, 90
20, 112199, Note_on_c, 14, 55, 0
20, 112200, Note_on_c, 14, 55, 90
20, 112259, Note_on_c, 14, 55, 0
20, 112260, Note_on_c, 14, 43, 90
20, 112319, Note_on_c, 14, 43, 0
20, 112320, Note_on_c, 14, 43, 90
20, 112379, Note_on_c, 14, 43, 0
20, 112380, Note_on_c, 14, 55, 90
20, 112439, Note_on_c, 14, 55, 0
20, 112440, Note_on_c, 14, 55, 90
20, 112499, Note_on_c, 14, 55, 0
20, 112500, Note_on_c, 14, 43, 90
20, 112559, Note_on_c, 14, 43, 0
20, 112560, Note_on_c, 14, 43, 90
20, 112619, Note_on_c, 14, 43, 0
20, 112620, Note_on_c, 14, 55, 90
20, 112679, Note_on_c, 14, 55, 0
20, 112680, Note_on_c, 14, 55, 90
20, 112739, Note_on_c, 14, 55, 0
20, 112740, Note_on_c, 14, 43, 90
20, 112799, Note_on_c, 14, 43, 0
20, 112800, Note_on_c, 14, 43, 90
20, 112859, Note_on_c, 14, 43, 0
20, 112860, Note_on_c, 14, 55, 90
20, 112919, Note_on_c, 14, 55, 0
20, 112920, Note_on_c, 14, 55, 90
20, 112979, Note_on_c, 14, 55, 0
20, 112980, Note_on_c, 14, 43, 90
20, 113039, Note_on_c, 14, 43, 0
20, 113040, Note_on_c, 14, 43, 90
20, 113820, Note_on_c, 14, 43, 0
20, 113820, Note_on_c, 14, 55, 90
20, 113879, Note_on_c, 14, 55, 0
20, 113880, Note_on_c, 14, 55, 90
20, 113939, Note_on_c, 14, 55, 0
20, 113940, Note_on_c, 14, 43, 90
20, 113999, Note_on_c, 14, 43, 0
20, 114000, Note_on_c, 14, 42, 90
20, 114059, Note_on_c, 14, 42, 0
20, 114060, Note_on_c, 14, 55, 90
20, 114119, Note_on_c, 14, 55, 0
20, 114120, Note_on_c, 14, 54, 90
20, 114179, Note_on_c, 14, 54, 0
20, 114180, Note_on_c, 14, 52, 90
20, 114239, Note_on_c, 14, 52, 0
20, 114240, Note_on_c, 14, 50, 90
20, 114299, Note_on_c, 14, 50, 0
20, 114300, Note_on_c, 14, 52, 90
20, 114359, Note_on_c, 14, 52, 0
20, 114360, Note_on_c, 14, 54, 90
20, 114419, Note_on_c, 14, 54, 0
20, 114420, Note_on_c, 14, 55, 90
20, 114479, Note_on_c, 14, 55, 0
20, 114480, Note_on_c, 14, 57, 90
20, 114599, Note_on_c, 14, 57, 0
20, 114600, Note_on_c, 14, 45, 90
20, 114719, Note_on_c, 14, 45, 0
20, 114720, Note_on_c, 14, 50, 90
20, 114779, Note_on_c, 14, 50, 0
20, 114840, Note_on_c, 14, 47, 90
20, 114899, Note_on_c, 14, 47, 0
20, 114960, Note_on_c, 14, 49, 90
20, 115019, Note_on_c, 14, 49, 0
20, 115020, Note_on_c, 14, 54, 90
20, 115079, Note_on_c, 14, 54, 0
20, 115080, Note_on_c, 14, 52, 90
20, 115109, Note_on_c, 14, 52, 0
20, 115110, Note_on_c, 14, 50, 90
20, 115139, Note_on_c, 14, 50, 0
20, 115140, Note_on_c, 14, 48, 90
20, 115169, Note_on_c, 14, 48, 0
20, 115170, Note_on_c, 14, 47, 90
20, 115199, Note_on_c, 14, 47, 0
20, 115200, Note_on_c, 14, 45, 90
20, 115259, Note_on_c, 14, 45, 0
20, 115320, Note_on_c, 14, 43, 90
20, 115379, Note_on_c, 14, 43, 0
20, 115440, Note_on_c, 14, 42, 90
20, 115499, Note_on_c, 14, 42, 0
20, 115500, Note_on_c, 14, 47, 90
20, 115559, Note_on_c, 14, 47, 0
20, 115560, Note_on_c, 14, 45, 90
20, 115589, Note_on_c, 14, 45, 0
20, 115590, Note_on_c, 14, 43, 90
20, 115619, Note_on_c, 14, 43, 0
20, 115620, Note_on_c, 14, 42, 90
20, 115649, Note_on_c, 14, 42, 0
20, 115650, Note_on_c, 14, 40, 90
20, 115679, Note_on_c, 14, 40, 0
20, 115680, Note_on_c, 14, 39, 90
20, 115739, Note_on_c, 14, 39, 0
20, 115740, Note_on_c, 14, 51, 90
20, 115799, Note_on_c, 14, 51, 0
20, 115800, Note_on_c, 14, 51, 90
20, 115859, Note_on_c, 14, 51, 0
20, 115860, Note_on_c, 14, 39, 90
20, 115919, Note_on_c, 14, 39, 0
20, 115920, Note_on_c, 14, 40, 90
20, 115979, Note_on_c, 14, 40, 0
20, 115980, Note_on_c, 14, 52, 90
20, 116039, Note_on_c, 14, 52, 0
20, 116040, Note_on_c, 14, 52, 90
20, 116099, Note_on_c, 14, 52, 0
20, 116100, Note_on_c, 14, 47, 90
20, 116159, Note_on_c, 14, 47, 0
20, 116160, Note_on_c, 14, 44, 90
20, 116219, Note_on_c, 14, 44, 0
20, 116220, Note_on_c, 14, 56, 90
20, 116279, Note_on_c, 14, 56, 0
20, 116280, Note_on_c, 14, 56, 90
20, 116339, Note_on_c, 14, 56, 0
20, 116340, Note_on_c, 14, 44, 90
20, 116399, Note_on_c, 14, 44, 0
20, 116400, Note_on_c, 14, 45, 90
20, 116459, Note_on_c, 14, 45, 0
20, 116460, Note_on_c, 14, 57, 90
20, 116519, Note_on_c, 14, 57, 0
20, 116520, Note_on_c, 14, 57, 90
20, 116579, Note_on_c, 14, 57, 0
20, 116580, Note_on_c, 14, 52, 90
20, 116639, Note_on_c, 14, 52, 0
20, 116640, Note_on_c, 14, 49, 90
20, 116699, Note_on_c, 14, 49, 0
20, 116700, Note_on_c, 14, 61, 90
20, 116759, Note_on_c, 14, 61, 0
20, 116760, Note_on_c, 14, 61, 90
20, 116819, Note_on_c, 14, 61, 0
20, 116820, Note_on_c, 14, 49, 90
20, 116879, Note_on_c, 14, 49, 0
20, 116880, Note_on_c, 14, 50, 90
20, 116939, Note_on_c, 14, 50, 0
20, 116940, Note_on_c, 14, 62, 90
20, 116999, Note_on_c, 14, 62, 0
20, 117000, Note_on_c, 14, 62, 90
20, 117059, Note_on_c, 14, 62, 0
20, 117060, Note_on_c, 14, 59, 90
20, 117119, Note_on_c, 14, 59, 0
20, 117120, Note_on_c, 14, 54, 90
20, 117179, Note_on_c, 14, 54, 0
20, 117180, Note_on_c, 14, 55, 90
20, 117239, Note_on_c, 14, 55, 0
20, 117240, Note_on_c, 14, 57, 90
20, 117299, Note_on_c, 14, 57, 0
20, 117300, Note_on_c, 14, 55, 90
20, 117359, Note_on_c, 14, 55, 0
20, 117360, Note_on_c, 14, 54, 90
20, 117419, Note_on_c, 14, 54, 0
20, 117420, Note_on_c, 14, 55, 90
20, 117479, Note_on_c, 14, 55, 0
20, 117480, Note_on_c, 14, 57, 90
20, 117539, Note_on_c, 14, 57, 0
20, 117540, Note_on_c, 14, 45, 90
20, 117599, Note_on_c, 14, 45, 0
20, 117600, Note_on_c, 14, 50, 90
20, 117659, Note_on_c, 14, 50, 0
20, 117660, Note_on_c, 14, 45, 90
20, 117719, Note_on_c, 14, 45, 0
20, 117720, Note_on_c, 14, 42, 90
20, 117779, Note_on_c, 14, 42, 0
20, 117780, Note_on_c, 14, 45, 90
20, 117839, Note_on_c, 14, 45, 0
20, 117840, Note_on_c, 14, 38, 90
20, 118620, Note_on_c, 14, 38, 0
20, 118620, Note_on_c, 14, 50, 90
20, 118679, Note_on_c, 14, 50, 0
20, 118680, Note_on_c, 14, 52, 90
20, 118739, Note_on_c, 14, 52, 0
20, 118740, Note_on_c, 14, 54, 90
20, 118799, Note_on_c, 14, 54, 0
20, 118800, Note_on_c, 14, 43, 90
20, 119580, Note_on_c, 14, 43, 0
20, 119580, Note_on_c, 14, 55, 90
20, 119639, Note_on_c, 14, 55, 0
20, 119640, Note_on_c, 14, 57, 90
20, 119699, Note_on_c, 14, 57, 0
20, 119700, Note_on_c, 14, 59, 90
20, 119759, Note_on_c, 14, 59, 0
20, 119760, Note_on_c, 14, 48, 90
20, 119819, Note_on_c, 14, 48, 0
20, 119880, Note_on_c, 14, 44, 90
20, 119939, Note_on_c, 14, 44, 0
20, 120000, Note_on_c, 14, 45, 90
20, 120059, Note_on_c, 14, 45, 0
20, 120120, Note_on_c, 14, 48, 90
20, 120179, Note_on_c, 14, 48, 0
20, 120240, Note_on_c, 14, 50, 90
20, 120299, Note_on_c, 14, 50, 0
20, 120360, Note_on_c, 14, 38, 90
20, 120419, Note_on_c, 14, 38, 0
20, 120480, Note_on_c, 14, 43, 90
20, 120539, Note_on_c, 14, 43, 0
20, 120600, Note_on_c, 14, 47, 90
20, 120659, Note_on_c, 14, 47, 0
20, 120720, Note_on_c, 14, 48, 90
20, 120779, Note_on_c, 14, 48, 0
20, 120840, Note_on_c, 14, 45, 90
20, 120899, Note_on_c, 14, 45, 0
20, 120960, Note_on_c, 14, 50, 90
20, 121019, Note_on_c, 14, 50, 0
20, 121080, Note_on_c, 14, 47, 90
20, 121139, Note_on_c, 14, 47, 0
20, 121200, Note_on_c, 14, 52, 90
20, 121259, Note_on_c, 14, 52, 0
20, 121260, Note_on_c, 14, 48, 90
20, 121319, Note_on_c, 14, 48, 0
20, 121320, Note_on_c, 14, 50, 90
20, 121379, Note_on_c, 14, 50, 0
20, 121380, Note_on_c, 14, 38, 90
20, 121439, Note_on_c, 14, 38, 0
20, 121440, Note_on_c, 14, 40, 90
20, 121499, Note_on_c, 14, 40, 0
20, 121560, Note_on_c, 14, 45, 90
20, 121619, Note_on_c, 14, 45, 0
20, 121680, Note_on_c, 14, 50, 90
20, 121739, Note_on_c, 14, 50, 0
20, 121740, Note_on_c, 14, 59, 90
20, 121799, Note_on_c, 14, 59, 0
20, 121800, Note_on_c, 14, 57, 90
20, 121829, Note_on_c, 14, 57, 0
20, 121830, Note_on_c, 14, 55, 90
20, 121859, Note_on_c, 14, 55, 0
20, 121860, Note_on_c, 14, 54, 90
20, 121889, Note_on_c, 14, 54, 0
20, 121890, Note_on_c, 14, 52, 90
20, 121919, Note_on_c, 14, 52, 0
20, 121920, Note_on_c, 14, 50, 90
20, 121979, Note_on_c, 14, 50, 0
20, 122040, Note_on_c, 14, 38, 90
20, 122099, Note_on_c, 14, 38, 0
20, 122160, Note_on_c, 14, 43, 90
20, 122219, Note_on_c, 14, 43, 0
20, 122220, Note_on_c, 14, 52, 90
20, 122279, Note_on_c, 14, 52, 0
20, 122280, Note_on_c, 14, 50, 90
20, 122309, Note_on_c, 14, 50, 0
20, 122310, Note_on_c, 14, 48, 90
20, 122339, Note_on_c, 14, 48, 0
20, 122340, Note_on_c, 14, 47, 90
20, 122369, Note_on_c, 14, 47, 0
20, 122370, Note_on_c, 14, 45, 90
20, 122399, Note_on_c, 14, 45, 0
20, 122400, Note_on_c, 14, 44, 90
20, 122459, Note_on_c, 14, 44, 0
20, 122460, Note_on_c, 14, 56, 90
20, 122519, Note_on_c, 14, 56, 0
20, 122520, Note_on_c, 14, 56, 90
20, 122579, Note_on_c, 14, 56, 0
20, 122580, Note_on_c, 14, 44, 90
20, 122639, Note_on_c, 14, 44, 0
20, 122640, Note_on_c, 14, 45, 90
20, 122699, Note_on_c, 14, 45, 0
20, 122700, Note_on_c, 14, 57, 90
20, 122759, Note_on_c, 14, 57, 0
20, 122760, Note_on_c, 14, 57, 90
20, 122819, Note_on_c, 14, 57, 0
20, 122820, Note_on_c, 14, 45, 90
20, 122879, Note_on_c, 14, 45, 0
20, 122880, Note_on_c, 14, 49, 90
20, 122939, Note_on_c, 14, 49, 0
20, 122940, Note_on_c, 14, 57, 90
20, 122999, Note_on_c, 14, 57, 0
20, 123000, Note_on_c, 14, 57, 90
20, 123059, Note_on_c, 14, 57, 0
20, 123060, Note_on_c, 14, 45, 90
20, 123119, Note_on_c, 14, 45, 0
20, 123120, Note_on_c, 14, 38, 90
20, 123179, Note_on_c, 14, 38, 0
20, 123180, Note_on_c, 14, 50, 90
20, 123239, Note_on_c, 14, 50, 0
20, 123240, Note_on_c, 14, 50, 90
20, 123299, Note_on_c, 14, 50, 0
20, 123300, Note_on_c, 14, 45, 90
20, 123359, Note_on_c, 14, 45, 0
20, 123360, Note_on_c, 14, 38, 90
20, 123419, Note_on_c, 14, 38, 0
20, 123420, Note_on_c, 14, 50, 90
20, 123479, Note_on_c, 14, 50, 0
20, 123480, Note_on_c, 14, 52, 90
20, 123539, Note_on_c, 14, 52, 0
20, 123540, Note_on_c, 14, 54, 90
20, 123599, Note_on_c, 14, 54, 0
20, 123600, Note_on_c, 14, 47, 90
20, 123659, Note_on_c, 14, 47, 0
20, 123660, Note_on_c, 14, 59, 90
20, 123719, Note_on_c, 14, 59, 0
20, 123720, Note_on_c, 14, 57, 90
20, 123779, Note_on_c, 14, 57, 0
20, 123780, Note_on_c, 14, 55, 90
20, 123839, Note_on_c, 14, 55, 0
20, 123840, Note_on_c, 14, 54, 90
20, 123899, Note_on_c, 14, 54, 0
20, 123900, Note_on_c, 14, 50, 90
20, 123959, Note_on_c, 14, 50, 0
20, 123960, Note_on_c, 14, 47, 90
20, 124019, Note_on_c, 14, 47, 0
20, 124020, Note_on_c, 14, 43, 90
20, 124079, Note_on_c, 14, 43, 0
20, 124080, Note_on_c, 14, 52, 90
20, 124139, Note_on_c, 14, 52, 0
20, 124140, Note_on_c, 14, 47, 90
20, 124199, Note_on_c, 14, 47, 0
20, 124200, Note_on_c, 14, 48, 90
20, 124259, Note_on_c, 14, 48, 0
20, 124260, Note_on_c, 14, 50, 90
20, 124319, Note_on_c, 14, 50, 0
20, 124320, Note_on_c, 14, 43, 90
20, 124379, Note_on_c, 14, 43, 0
20, 124380, Note_on_c, 14, 55, 90
20, 124439, Note_on_c, 14, 55, 0
20, 124440, Note_on_c, 14, 50, 90
20, 124499, Note_on_c, 14, 50, 0
20, 124500, Note_on_c, 14, 47, 90
20, 124559, Note_on_c, 14, 47, 0
20, 124560, Note_on_c, 14, 43, 90
20, 124619, Note_on_c, 14, 43, 0
20, 124620, Note_on_c, 14, 55, 90
20, 124679, Note_on_c, 14, 55, 0
20, 124680, Note_on_c, 14, 55, 90
20, 124739, Note_on_c, 14, 55, 0
20, 124740, Note_on_c, 14, 43, 90
20, 124799, Note_on_c, 14, 43, 0
20, 124800, Note_on_c, 14, 43, 90
20, 124859, Note_on_c, 14, 43, 0
20, 124860, Note_on_c, 14, 55, 90
20, 124919, Note_on_c, 14, 55, 0
20, 124920, Note_on_c, 14, 55, 90
20, 124979, Note_on_c, 14, 55, 0
20, 124980, Note_on_c, 14, 43, 90
20, 125039, Note_on_c, 14, 43, 0
20, 125040, Note_on_c, 14, 43, 90
20, 125099, Note_on_c, 14, 43, 0
20, 125100, Note_on_c, 14, 55, 90
20, 125159, Note_on_c, 14, 55, 0
20, 125160, Note_on_c, 14, 55, 90
20, 125219, Note_on_c, 14, 55, 0
20, 125220, Note_on_c, 14, 43, 90
20, 125279, Note_on_c, 14, 43, 0
20, 125280, Note_on_c, 14, 43, 90
20, 125339, Note_on_c, 14, 43, 0
20, 125340, Note_on_c, 14, 55, 90
20, 125399, Note_on_c, 14, 55, 0
20, 125400, Note_on_c, 14, 55, 90
20, 125459, Note_on_c, 14, 55, 0
20, 125460, Note_on_c, 14, 43, 90
20, 125519, Note_on_c, 14, 43, 0
20, 125520, Note_on_c, 14, 43, 90
20, 125579, Note_on_c, 14, 43, 0
20, 125580, Note_on_c, 14, 55, 90
20, 125639, Note_on_c, 14, 55, 0
20, 125640, Note_on_c, 14, 55, 90
20, 125699, Note_on_c, 14, 55, 0
20, 125700, Note_on_c, 14, 43, 90
20, 125759, Note_on_c, 14, 43, 0
20, 125760, Note_on_c, 14, 43, 90
20, 125819, Note_on_c, 14, 43, 0
20, 125820, Note_on_c, 14, 55, 90
20, 125879, Note_on_c, 14, 55, 0
20, 125880, Note_on_c, 14, 55, 90
20, 125939, Note_on_c, 14, 55, 0
20, 125940, Note_on_c, 14, 43, 90
20, 125999, Note_on_c, 14, 43, 0
20, 126000, Note_on_c, 14, 43, 90
20, 126059, Note_on_c, 14, 43, 0
20, 126060, Note_on_c, 14, 55, 90
20, 126119, Note_on_c, 14, 55, 0
20, 126120, Note_on_c, 14, 55, 90
20, 126179, Note_on_c, 14, 55, 0
20, 126180, Note_on_c, 14, 43, 90
20, 126239, Note_on_c, 14, 43, 0
20, 126240, Note_on_c, 14, 43, 90
20, 126299, Note_on_c, 14, 43, 0
20, 126300, Note_on_c, 14, 55, 90
20, 126359, Note_on_c, 14, 55, 0
20, 126360, Note_on_c, 14, 55, 90
20, 126419, Note_on_c, 14, 55, 0
20, 126420, Note_on_c, 14, 43, 90
20, 126479, Note_on_c, 14, 43, 0
20, 126480, Note_on_c, 14, 43, 90
20, 127260, Note_on_c, 14, 43, 0
20, 127260, Note_on_c, 14, 45, 90
20, 127319, Note_on_c, 14, 45, 0
20, 127320, Note_on_c, 14, 47, 90
20, 127379, Note_on_c, 14, 47, 0
20, 127380, Note_on_c, 14, 43, 90
20, 127439, Note_on_c, 14, 43, 0
20, 127440, Note_on_c, 14, 48, 90
20, 127499, Note_on_c, 14, 48, 0
20, 127560, Note_on_c, 14, 45, 90
20, 127619, Note_on_c, 14, 45, 0
20, 127680, Note_on_c, 14, 50, 90
20, 127739, Note_on_c, 14, 50, 0
20, 127800, Note_on_c, 14, 47, 90
20, 127859, Note_on_c, 14, 47, 0
20, 127920, Note_on_c, 14, 52, 90
20, 127979, Note_on_c, 14, 52, 0
20, 127980, Note_on_c, 14, 48, 90
20, 128039, Note_on_c, 14, 48, 0
20, 128040, Note_on_c, 14, 50, 90
20, 128099, Note_on_c, 14, 50, 0
20, 128100, Note_on_c, 14, 38, 90
20, 128159, Note_on_c, 14, 38, 0
20, 128160, Note_on_c, 14, 43, 90
20, 128219, Note_on_c, 14, 43, 0
20, 128220, Note_on_c, 14, 45, 90
20, 128279, Note_on_c, 14, 45, 0
20, 128280, Note_on_c, 14, 43, 90
20, 128339, Note_on_c, 14, 43, 0
20, 128340, Note_on_c, 14, 42, 90
20, 128399, Note_on_c, 14, 42, 0
20, 128400, Note_on_c, 14, 40, 90
20, 128459, Note_on_c, 14, 40, 0
20, 128460, Note_on_c, 14, 43, 90
20, 128519, Note_on_c, 14, 43, 0
20, 128520, Note_on_c, 14, 48, 90
20, 128579, Note_on_c, 14, 48, 0
20, 128580, Note_on_c, 14, 45, 90
20, 128639, Note_on_c, 14, 45, 0
20, 128640, Note_on_c, 14, 47, 90
20, 128699, Note_on_c, 14, 47, 0
20, 128700, Note_on_c, 14, 59, 90
20, 128759, Note_on_c, 14, 59, 0
20, 128760, Note_on_c, 14, 47, 90
20, 128819, Note_on_c, 14, 47, 0
20, 128820, Note_on_c, 14, 45, 90
20, 128879, Note_on_c, 14, 45, 0
20, 128880, Note_on_c, 14, 43, 90
20, 128939, Note_on_c, 14, 43, 0
20, 128940, Note_on_c, 14, 40, 90
20, 128999, Note_on_c, 14, 40, 0
20, 129000, Note_on_c, 14, 48, 90
20, 129059, Note_on_c, 14, 48, 0
20, 129060, Note_on_c, 14, 45, 90
20, 129119, Note_on_c, 14, 45, 0
20, 129120, Note_on_c, 14, 47, 90
20, 129179, Note_on_c, 14, 47, 0
20, 129180, Note_on_c, 14, 59, 90
20, 129239, Note_on_c, 14, 59, 0
20, 129240, Note_on_c, 14, 57, 90
20, 129299, Note_on_c, 14, 57, 0
20, 129300, Note_on_c, 14, 55, 90
20, 129359, Note_on_c, 14, 55, 0
20, 129360, Note_on_c, 14, 54, 90
20, 129419, Note_on_c, 14, 54, 0
20, 129420, Note_on_c, 14, 52, 90
20, 129479, Note_on_c, 14, 52, 0
20, 129480, Note_on_c, 14, 51, 90
20, 129539, Note_on_c, 14, 51, 0
20, 129540, Note_on_c, 14, 47, 90
20, 129599, Note_on_c, 14, 47, 0
20, 129600, Note_on_c, 14, 52, 90
20, 129659, Note_on_c, 14, 52, 0
20, 129660, Note_on_c, 14, 54, 90
20, 129719, Note_on_c, 14, 54, 0
20, 129720, Note_on_c, 14, 55, 90
20, 129779, Note_on_c, 14, 55, 0
20, 129780, Note_on_c, 14, 54, 90
20, 129839, Note_on_c, 14, 54, 0
20, 129840, Note_on_c, 14, 52, 90
20, 129899, Note_on_c, 14, 52, 0
20, 129900, Note_on_c, 14, 50, 90
20, 129959, Note_on_c, 14, 50, 0
20, 129960, Note_on_c, 14, 49, 90
20, 130019, Note_on_c, 14, 49, 0
20, 130020, Note_on_c, 14, 45, 90
20, 130079, Note_on_c, 14, 45, 0
20, 130080, Note_on_c, 14, 38, 90
20, 130139, Note_on_c, 14, 38, 0
20, 130140, Note_on_c, 14, 50, 90
20, 130199, Note_on_c, 14, 50, 0
20, 130200, Note_on_c, 14, 48, 90
20, 130259, Note_on_c, 14, 48, 0
20, 130260, Note_on_c, 14, 47, 90
20, 130319, Note_on_c, 14, 47, 0
20, 130320, Note_on_c, 14, 45, 90
20, 130379, Note_on_c, 14, 45, 0
20, 130380, Note_on_c, 14, 43, 90
20, 130439, Note_on_c, 14, 43, 0
20, 130440, Note_on_c, 14, 41, 90
20, 130499, Note_on_c, 14, 41, 0
20, 130500, Note_on_c, 14, 53, 90
20, 130559, Note_on_c, 14, 53, 0
20, 130560, Note_on_c, 14, 52, 90
20, 130619, Note_on_c, 14, 52, 0
20, 130620, Note_on_c, 14, 40, 90
20, 130679, Note_on_c, 14, 40, 0
20, 130680, Note_on_c, 14, 42, 90
20, 130739, Note_on_c, 14, 42, 0
20, 130740, Note_on_c, 14, 44, 90
20, 130799, Note_on_c, 14, 44, 0
20, 130800, Note_on_c, 14, 45, 90
20, 130859, Note_on_c, 14, 45, 0
20, 130860, Note_on_c, 14, 57, 90
20, 130919, Note_on_c, 14, 57, 0
20, 130920, Note_on_c, 14, 50, 90
20, 130979, Note_on_c, 14, 50, 0
20, 130980, Note_on_c, 14, 53, 90
20, 131039, Note_on_c, 14, 53, 0
20, 131040, Note_on_c, 14, 52, 90
20, 131099, Note_on_c, 14, 52, 0
20, 131100, Note_on_c, 14, 40, 90
20, 131159, Note_on_c, 14, 40, 0
20, 131160, Note_on_c, 14, 50, 90
20, 131219, Note_on_c, 14, 50, 0
20, 131220, Note_on_c, 14, 48, 90
20, 131279, Note_on_c, 14, 48, 0
20, 131280, Note_on_c, 14, 47, 90
20, 131339, Note_on_c, 14, 47, 0
20, 131340, Note_on_c, 14, 45, 90
20, 131399, Note_on_c, 14, 45, 0
20, 131400, Note_on_c, 14, 52, 90
20, 131459, Note_on_c, 14, 52, 0
20, 131460, Note_on_c, 14, 56, 90
20, 131519, Note_on_c, 14, 56, 0
20, 131520, Note_on_c, 14, 57, 90
20, 131579, Note_on_c, 14, 57, 0
20, 131580, Note_on_c, 14, 55, 90
20, 131639, Note_on_c, 14, 55, 0
20, 131640, Note_on_c, 14, 54, 90
20, 131699, Note_on_c, 14, 54, 0
20, 131700, Note_on_c, 14, 52, 90
20, 131759, Note_on_c, 14, 52, 0
20, 131760, Note_on_c, 14, 50, 90
20, 131819, Note_on_c, 14, 50, 0
20, 131820, Note_on_c, 14, 45, 90
20, 131879, Note_on_c, 14, 45, 0
20, 131880, Note_on_c, 14, 42, 90
20, 131939, Note_on_c, 14, 42, 0
20, 131940, Note_on_c, 14, 38, 90
20, 131999, Note_on_c, 14, 38, 0
20, 132000, Note_on_c, 14, 43, 90
20, 132059, Note_on_c, 14, 43, 0
20, 132060, Note_on_c, 14, 45, 90
20, 132119, Note_on_c, 14, 45, 0
20, 132120, Note_on_c, 14, 47, 90
20, 132179, Note_on_c, 14, 47, 0
20, 132180, Note_on_c, 14, 45, 90
20, 132239, Note_on_c, 14, 45, 0
20, 132240, Note_on_c, 14, 43, 90
20, 132299, Note_on_c, 14, 43, 0
20, 132300, Note_on_c, 14, 45, 90
20, 132330, Note_on_c, 14, 45, 0
20, 132330, Note_on_c, 14, 47, 90
20, 132360, Note_on_c, 14, 47, 0
20, 132360, Note_on_c, 14, 48, 90
20, 132419, Note_on_c, 14, 48, 0
20, 132420, Note_on_c, 14, 42, 90
20, 132479, Note_on_c, 14, 42, 0
20, 132480, Note_on_c, 14, 47, 90
20, 132539, Note_on_c, 14, 47, 0
20, 132540, Note_on_c, 14, 43, 90
20, 132599, Note_on_c, 14, 43, 0
20, 132600, Note_on_c, 14, 45, 90
20, 132659, Note_on_c, 14, 45, 0
20, 132660, Note_on_c, 14, 47, 90
20, 132719, Note_on_c, 14, 47, 0
20, 132720, Note_on_c, 14, 40, 90
20, 132779, Note_on_c, 14, 40, 0
20, 132780, Note_on_c, 14, 52, 90
20, 132809, Note_on_c, 14, 52, 0
20, 132810, Note_on_c, 14, 54, 90
20, 132839, Note_on_c, 14, 54, 0
20, 132840, Note_on_c, 14, 55, 90
20, 132899, Note_on_c, 14, 55, 0
20, 132900, Note_on_c, 14, 57, 90
20, 132959, Note_on_c, 14, 57, 0
20, 132960, Note_on_c, 14, 59, 90
20, 133019, Note_on_c, 14, 59, 0
20, 133020, Note_on_c, 14, 47, 90
20, 133079, Note_on_c, 14, 47, 0
20, 133080, Note_on_c, 14, 51, 90
20, 133139, Note_on_c, 14, 51, 0
20, 133140, Note_on_c, 14, 54, 90
20, 133199, Note_on_c, 14, 54, 0
20, 133200, Note_on_c, 14, 57, 90
20, 133259, Note_on_c, 14, 57, 0
20, 133260, Note_on_c, 14, 54, 90
20, 133319, Note_on_c, 14, 54, 0
20, 133320, Note_on_c, 14, 59, 90
20, 133349, Note_on_c, 14, 59, 0
20, 133350, Note_on_c, 14, 57, 90
20, 133379, Note_on_c, 14, 57, 0
20, 133380, Note_on_c, 14, 55, 90
20, 133409, Note_on_c, 14, 55, 0
20, 133410, Note_on_c, 14, 54, 90
20, 133439, Note_on_c, 14, 54, 0
20, 133440, Note_on_c, 14, 52, 90
20, 133499, Note_on_c, 14, 52, 0
20, 133500, Note_on_c, 14, 50, 90
20, 133559, Note_on_c, 14, 50, 0
20, 133560, Note_on_c, 14, 48, 90
20, 133619, Note_on_c, 14, 48, 0
20, 133620, Note_on_c, 14, 45, 90
20, 133679, Note_on_c, 14, 45, 0
20, 133680, Note_on_c, 14, 47, 90
20, 133739, Note_on_c, 14, 47, 0
20, 133740, Note_on_c, 14, 59, 90
20, 133799, Note_on_c, 14, 59, 0
20, 133800, Note_on_c, 14, 57, 90
20, 133859, Note_on_c, 14, 57, 0
20, 133860, Note_on_c, 14, 55, 90
20, 133919, Note_on_c, 14, 55, 0
20, 133920, Note_on_c, 14, 54, 90
20, 133979, Note_on_c, 14, 54, 0
20, 133980, Note_on_c, 14, 52, 90
20, 134039, Note_on_c, 14, 52, 0
20, 134040, Note_on_c, 14, 51, 90
20, 134099, Note_on_c, 14, 51, 0
20, 134100, Note_on_c, 14, 47, 90
20, 134159, Note_on_c, 14, 47, 0
20, 134160, Note_on_c, 14, 52, 90
20, 134219, Note_on_c, 14, 52, 0
20, 134220, Note_on_c, 14, 54, 90
20, 134279, Note_on_c, 14, 54, 0
20, 134280, Note_on_c, 14, 55, 90
20, 134339, Note_on_c, 14, 55, 0
20, 134340, Note_on_c, 14, 57, 90
20, 134399, Note_on_c, 14, 57, 0
20, 134400, Note_on_c, 14, 59, 90
20, 134459, Note_on_c, 14, 59, 0
20, 134460, Note_on_c, 14, 60, 90
20, 134519, Note_on_c, 14, 60, 0
20, 134520, Note_on_c, 14, 57, 90
20, 134579, Note_on_c, 14, 57, 0
20, 134580, Note_on_c, 14, 59, 90
20, 134639, Note_on_c, 14, 59, 0
20, 134640, Note_on_c, 14, 49, 90
20, 134699, Note_on_c, 14, 49, 0
20, 134760, Note_on_c, 14, 52, 90
20, 134819, Note_on_c, 14, 52, 0
20, 134880, Note_on_c, 14, 51, 90
20, 134939, Note_on_c, 14, 51, 0
20, 134940, Note_on_c, 14, 60, 90
20, 135029, Note_on_c, 14, 60, 0
20, 135030, Note_on_c, 14, 59, 90
20, 135059, Note_on_c, 14, 59, 0
20, 135060, Note_on_c, 14, 57, 90
20, 135089, Note_on_c, 14, 57, 0
20, 135090, Note_on_c, 14, 55, 90
20, 135119, Note_on_c, 14, 55, 0
20, 135120, Note_on_c, 14, 54, 90
20, 135179, Note_on_c, 14, 54, 0
20, 135240, Note_on_c, 14, 47, 90
20, 135299, Note_on_c, 14, 47, 0
20, 135360, Note_on_c, 14, 40, 90
20, 135419, Note_on_c, 14, 40, 0
20, 135420, Note_on_c, 14, 53, 90
20, 135509, Note_on_c, 14, 53, 0
20, 135510, Note_on_c, 14, 52, 90
20, 135539, Note_on_c, 14, 52, 0
20, 135540, Note_on_c, 14, 50, 90
20, 135569, Note_on_c, 14, 50, 0
20, 135570, Note_on_c, 14, 48, 90
20, 135599, Note_on_c, 14, 48, 0
20, 135600, Note_on_c, 14, 47, 90
20, 135659, Note_on_c, 14, 47, 0
20, 135720, Note_on_c, 14, 52, 90
20, 135779, Note_on_c, 14, 52, 0
20, 135840, Note_on_c, 14, 45, 90
20, 135899, Note_on_c, 14, 45, 0
20, 135960, Note_on_c, 14, 42, 90
20, 136019, Note_on_c, 14, 42, 0
20, 136080, Note_on_c, 14, 43, 90
20, 136139, Note_on_c, 14, 43, 0
20, 136200, Note_on_c, 14, 45, 90
20, 136259, Note_on_c, 14, 45, 0
20, 136320, Note_on_c, 14, 42, 90
20, 136379, Note_on_c, 14, 42, 0
20, 136440, Note_on_c, 14, 47, 90
20, 136499, Note_on_c, 14, 47, 0
20, 136560, Note_on_c, 14, 40, 90
20, 136619, Note_on_c, 14, 40, 0
20, 136680, Note_on_c, 14, 48, 90
20, 136739, Note_on_c, 14, 48, 0
20, 136800, Note_on_c, 14, 47, 90
20, 136919, Note_on_c, 14, 47, 0
20, 137460, Note_on_c, 14, 48, 90
20, 137519, Note_on_c, 14, 48, 0
20, 137520, Note_on_c, 14, 47, 90
20, 137579, Note_on_c, 14, 47, 0
20, 137580, Note_on_c, 14, 45, 90
20, 137639, Note_on_c, 14, 45, 0
20, 137640, Note_on_c, 14, 47, 90
20, 137759, Note_on_c, 14, 47, 0
20, 137760, Note_on_c, 14, 40, 90
20, 137879, Note_on_c, 14, 40, 0
20, 138000, Note_on_c, 14, 43, 90
20, 138059, Note_on_c, 14, 43, 0
20, 138060, Note_on_c, 14, 55, 90
20, 138119, Note_on_c, 14, 55, 0
20, 138120, Note_on_c, 14, 55, 90
20, 138179, Note_on_c, 14, 55, 0
20, 138180, Note_on_c, 14, 43, 90
20, 138239, Note_on_c, 14, 43, 0
20, 138240, Note_on_c, 14, 43, 90
20, 138299, Note_on_c, 14, 43, 0
20, 138300, Note_on_c, 14, 55, 90
20, 138359, Note_on_c, 14, 55, 0
20, 138360, Note_on_c, 14, 55, 90
20, 138419, Note_on_c, 14, 55, 0
20, 138420, Note_on_c, 14, 43, 90
20, 138479, Note_on_c, 14, 43, 0
20, 138480, Note_on_c, 14, 43, 90
20, 138539, Note_on_c, 14, 43, 0
20, 138540, Note_on_c, 14, 55, 90
20, 138599, Note_on_c, 14, 55, 0
20, 138600, Note_on_c, 14, 55, 90
20, 138659, Note_on_c, 14, 55, 0
20, 138660, Note_on_c, 14, 43, 90
20, 138719, Note_on_c, 14, 43, 0
20, 138720, Note_on_c, 14, 43, 90
20, 138779, Note_on_c, 14, 43, 0
20, 138780, Note_on_c, 14, 55, 90
20, 138839, Note_on_c, 14, 55, 0
20, 138840, Note_on_c, 14, 55, 90
20, 138899, Note_on_c, 14, 55, 0
20, 138900, Note_on_c, 14, 43, 90
20, 138959, Note_on_c, 14, 43, 0
20, 138960, Note_on_c, 14, 43, 90
20, 139019, Note_on_c, 14, 43, 0
20, 139020, Note_on_c, 14, 55, 90
20, 139079, Note_on_c, 14, 55, 0
20, 139080, Note_on_c, 14, 55, 90
20, 139139, Note_on_c, 14, 55, 0
20, 139140, Note_on_c, 14, 43, 90
20, 139199, Note_on_c, 14, 43, 0
20, 139200, Note_on_c, 14, 43, 90
20, 139259, Note_on_c, 14, 43, 0
20, 139260, Note_on_c, 14, 55, 90
20, 139319, Note_on_c, 14, 55, 0
20, 139320, Note_on_c, 14, 55, 90
20, 139379, Note_on_c, 14, 55, 0
20, 139380, Note_on_c, 14, 43, 90
20, 139439, Note_on_c, 14, 43, 0
20, 139440, Note_on_c, 14, 43, 90
20, 139499, Note_on_c, 14, 43, 0
20, 139500, Note_on_c, 14, 55, 90
20, 139559, Note_on_c, 14, 55, 0
20, 139560, Note_on_c, 14, 55, 90
20, 139619, Note_on_c, 14, 55, 0
20, 139620, Note_on_c, 14, 43, 90
20, 139679, Note_on_c, 14, 43, 0
20, 139680, Note_on_c, 14, 43, 90
20, 139739, Note_on_c, 14, 43, 0
20, 139740, Note_on_c, 14, 55, 90
20, 139799, Note_on_c, 14, 55, 0
20, 139800, Note_on_c, 14, 55, 90
20, 139859, Note_on_c, 14, 55, 0
20, 139860, Note_on_c, 14, 43, 90
20, 139919, Note_on_c, 14, 43, 0
20, 139920, Note_on_c, 14, 43, 90
20, 140700, Note_on_c, 14, 43, 0
20, 140700, Note_on_c, 14, 45, 90
20, 140759, Note_on_c, 14, 45, 0
20, 140760, Note_on_c, 14, 47, 90
20, 140819, Note_on_c, 14, 47, 0
20, 140820, Note_on_c, 14, 43, 90
20, 140879, Note_on_c, 14, 43, 0
20, 140880, Note_on_c, 14, 48, 90
20, 140939, Note_on_c, 14, 48, 0
20, 141000, Note_on_c, 14, 45, 90
20, 141059, Note_on_c, 14, 45, 0
20, 141120, Note_on_c, 14, 50, 90
20, 141179, Note_on_c, 14, 50, 0
20, 141240, Note_on_c, 14, 47, 90
20, 141299, Note_on_c, 14, 47, 0
20, 141360, Note_on_c, 14, 52, 90
20, 141419, Note_on_c, 14, 52, 0
20, 141420, Note_on_c, 14, 48, 90
20, 141479, Note_on_c, 14, 48, 0
20, 141480, Note_on_c, 14, 50, 90
20, 141539, Note_on_c, 14, 50, 0
20, 141540, Note_on_c, 14, 38, 90
20, 141599, Note_on_c, 14, 38, 0
20, 141600, Note_on_c, 14, 40, 90
20, 141659, Note_on_c, 14, 40, 0
20, 141720, Note_on_c, 14, 45, 90
20, 141779, Note_on_c, 14, 45, 0
20, 141840, Note_on_c, 14, 38, 90
20, 141899, Note_on_c, 14, 38, 0
20, 141900, Note_on_c, 14, 59, 90
20, 141959, Note_on_c, 14, 59, 0
20, 141960, Note_on_c, 14, 57, 90
20, 141989, Note_on_c, 14, 57, 0
20, 141990, Note_on_c, 14, 55, 90
20, 142019, Note_on_c, 14, 55, 0
20, 142020, Note_on_c, 14, 54, 90
20, 142049, Note_on_c, 14, 54, 0
20, 142050, Note_on_c, 14, 52, 90
20, 142079, Note_on_c, 14, 52, 0
20, 142080, Note_on_c, 14, 50, 90
20, 142139, Note_on_c, 14, 50, 0
20, 142200, Note_on_c, 14, 48, 90
20, 142259, Note_on_c, 14, 48, 0
20, 142320, Note_on_c, 14, 47, 90
20, 142379, Note_on_c, 14, 47, 0
20, 142380, Note_on_c, 14, 52, 90
20, 142439, Note_on_c, 14, 52, 0
20, 142440, Note_on_c, 14, 50, 90
20, 142469, Note_on_c, 14, 50, 0
20, 142470, Note_on_c, 14, 48, 90
20, 142499, Note_on_c, 14, 48, 0
20, 142500, Note_on_c, 14, 47, 90
20, 142529, Note_on_c, 14, 47, 0
20, 142530, Note_on_c, 14, 45, 90
20, 142559, Note_on_c, 14, 45, 0
20, 142560, Note_on_c, 14, 44, 90
20, 142619, Note_on_c, 14, 44, 0
20, 142620, Note_on_c, 14, 56, 90
20, 142679, Note_on_c, 14, 56, 0
20, 142680, Note_on_c, 14, 56, 90
20, 142739, Note_on_c, 14, 56, 0
20, 142740, Note_on_c, 14, 44, 90
20, 142799, Note_on_c, 14, 44, 0
20, 142800, Note_on_c, 14, 45, 90
20, 142859, Note_on_c, 14, 45, 0
20, 142860, Note_on_c, 14, 57, 90
20, 142919, Note_on_c, 14, 57, 0
20, 142920, Note_on_c, 14, 57, 90
20, 142979, Note_on_c, 14, 57, 0
20, 142980, Note_on_c, 14, 52, 90
20, 143039, Note_on_c, 14, 52, 0
20, 143040, Note_on_c, 14, 49, 90
20, 143099, Note_on_c, 14, 49, 0
20, 143100, Note_on_c, 14, 61, 90
20, 143159, Note_on_c, 14, 61, 0
20, 143160, Note_on_c, 14, 61, 90
20, 143219, Note_on_c, 14, 61, 0
20, 143220, Note_on_c, 14, 49, 90
20, 143279, Note_on_c, 14, 49, 0
20, 143280, Note_on_c, 14, 50, 90
20, 143339, Note_on_c, 14, 50, 0
20, 143340, Note_on_c, 14, 62, 90
20, 143399, Note_on_c, 14, 62, 0
20, 143400, Note_on_c, 14, 62, 90
20, 143459, Note_on_c, 14, 62, 0
20, 143460, Note_on_c, 14, 57, 90
20, 143519, Note_on_c, 14, 57, 0
20, 143520, Note_on_c, 14, 54, 90
20, 143579, Note_on_c, 14, 54, 0
20, 143580, Note_on_c, 14, 42, 90
20, 143639, Note_on_c, 14, 42, 0
20, 143640, Note_on_c, 14, 42, 90
20, 143699, Note_on_c, 14, 42, 0
20, 143700, Note_on_c, 14, 54, 90
20, 143759, Note_on_c, 14, 54, 0
20, 143760, Note_on_c, 14, 55, 90
20, 143819, Note_on_c, 14, 55, 0
20, 143820, Note_on_c, 14, 43, 90
20, 143879, Note_on_c, 14, 43, 0
20, 143880, Note_on_c, 14, 43, 90
20, 143939, Note_on_c, 14, 43, 0
20, 143940, Note_on_c, 14, 52, 90
20, 143999, Note_on_c, 14, 52, 0
20, 144000, Note_on_c, 14, 47, 90
20, 144059, Note_on_c, 14, 47, 0
20, 144060, Note_on_c, 14, 48, 90
20, 144119, Note_on_c, 14, 48, 0
20, 144120, Note_on_c, 14, 50, 90
20, 144179, Note_on_c, 14, 50, 0
20, 144180, Note_on_c, 14, 48, 90
20, 144239, Note_on_c, 14, 48, 0
20, 144240, Note_on_c, 14, 47, 90
20, 144299, Note_on_c, 14, 47, 0
20, 144300, Note_on_c, 14, 48, 90
20, 144359, Note_on_c, 14, 48, 0
20, 144360, Note_on_c, 14, 50, 90
20, 144419, Note_on_c, 14, 50, 0
20, 144420, Note_on_c, 14, 38, 90
20, 144479, Note_on_c, 14, 38, 0
20, 144480, Note_on_c, 14, 43, 90
20, 144599, Note_on_c, 14, 43, 0
20, 144720, Note_on_c, 14, 43, 90
20, 144779, Note_on_c, 14, 43, 0
20, 144780, Note_on_c, 14, 55, 90
20, 144839, Note_on_c, 14, 55, 0
20, 144840, Note_on_c, 14, 55, 90
20, 144899, Note_on_c, 14, 55, 0
20, 144900, Note_on_c, 14, 43, 90
20, 144959, Note_on_c, 14, 43, 0
20, 144960, Note_on_c, 14, 43, 90
20, 145019, Note_on_c, 14, 43, 0
20, 145020, Note_on_c, 14, 55, 90
20, 145079, Note_on_c, 14, 55, 0
20, 145080, Note_on_c, 14, 55, 90
20, 145139, Note_on_c, 14, 55, 0
20, 145140, Note_on_c, 14, 43, 90
20, 145199, Note_on_c, 14, 43, 0
20, 145200, Note_on_c, 14, 43, 90
20, 145259, Note_on_c, 14, 43, 0
20, 145260, Note_on_c, 14, 55, 90
20, 145319, Note_on_c, 14, 55, 0
20, 145320, Note_on_c, 14, 55, 90
20, 145379, Note_on_c, 14, 55, 0
20, 145380, Note_on_c, 14, 43, 90
20, 145439, Note_on_c, 14, 43, 0
20, 145440, Note_on_c, 14, 43, 90
20, 145499, Note_on_c, 14, 43, 0
20, 145560, Note_on_c, 14, 47, 90
20, 145619, Note_on_c, 14, 47, 0
20, 145680, Note_on_c, 14, 48, 90
20, 145739, Note_on_c, 14, 48, 0
20, 145800, Note_on_c, 14, 45, 90
20, 145859, Note_on_c, 14, 45, 0
20, 145920, Note_on_c, 14, 52, 90
20, 145979, Note_on_c, 14, 52, 0
20, 145980, Note_on_c, 14, 50, 90
20, 146039, Note_on_c, 14, 50, 0
20, 146040, Note_on_c, 14, 48, 90
20, 146099, Note_on_c, 14, 48, 0
20, 146100, Note_on_c, 14, 47, 90
20, 146159, Note_on_c, 14, 47, 0
20, 146160, Note_on_c, 14, 45, 90
20, 146219, Note_on_c, 14, 45, 0
20, 146220, Note_on_c, 14, 57, 90
20, 146279, Note_on_c, 14, 57, 0
20, 146280, Note_on_c, 14, 57, 90
20, 146339, Note_on_c, 14, 57, 0
20, 146340, Note_on_c, 14, 45, 90
20, 146399, Note_on_c, 14, 45, 0
20, 146400, Note_on_c, 14, 43, 90
20, 146459, Note_on_c, 14, 43, 0
20, 146520, Note_on_c, 14, 42, 90
20, 146579, Note_on_c, 14, 42, 0
20, 146640, Note_on_c, 14, 38, 90
20, 146699, Note_on_c, 14, 38, 0
20, 146700, Note_on_c, 14, 50, 90
20, 146759, Note_on_c, 14, 50, 0
20, 146760, Note_on_c, 14, 50, 90
20, 146819, Note_on_c, 14, 50, 0
20, 146820, Note_on_c, 14, 38, 90
20, 146879, Note_on_c, 14, 38, 0
20, 146880, Note_on_c, 14, 45, 90
20, 146939, Note_on_c, 14, 45, 0
20, 146940, Note_on_c, 14, 57, 90
20, 146999, Note_on_c, 14, 57, 0
20, 147000, Note_on_c, 14, 57, 90
20, 147059, Note_on_c, 14, 57, 0
20, 147060, Note_on_c, 14, 45, 90
20, 147119, Note_on_c, 14, 45, 0
20, 147120, Note_on_c, 14, 42, 90
20, 147179, Note_on_c, 14, 42, 0
20, 147180, Note_on_c, 14, 50, 90
20, 147239, Note_on_c, 14, 50, 0
20, 147240, Note_on_c, 14, 50, 90
20, 147299, Note_on_c, 14, 50, 0
20, 147300, Note_on_c, 14, 38, 90
20, 147359, Note_on_c, 14, 38, 0
20, 147360, Note_on_c, 14, 43, 90
20, 147419, Note_on_c, 14, 43, 0
20, 147420, Note_on_c, 14, 55, 90
20, 147479, Note_on_c, 14, 55, 0
20, 147480, Note_on_c, 14, 55, 90
20, 147539, Note_on_c, 14, 55, 0
20, 147540, Note_on_c, 14, 43, 90
20, 147599, Note_on_c, 14, 43, 0
20, 147600, Note_on_c, 14, 43, 90
20, 148380, Note_on_c, 14, 43, 0
20, 148380, Note_on_c, 14, 55, 90
20, 148439, Note_on_c, 14, 55, 0
20, 148440, Note_on_c, 14, 55, 90
20, 148499, Note_on_c, 14, 55, 0
20, 148500, Note_on_c, 14, 43, 90
20, 148559, Note_on_c, 14, 43, 0
20, 148560, Note_on_c, 14, 43, 90
20, 148619, Note_on_c, 14, 43, 0
20, 148620, Note_on_c, 14, 55, 90
20, 148679, Note_on_c, 14, 55, 0
20, 148680, Note_on_c, 14, 55, 90
20, 148739, Note_on_c, 14, 55, 0
20, 148740, Note_on_c, 14, 43, 90
20, 148799, Note_on_c, 14, 43, 0
20, 148800, Note_on_c, 14, 43, 90
20, 148859, Note_on_c, 14, 43, 0
20, 148860, Note_on_c, 14, 55, 90
20, 148919, Note_on_c, 14, 55, 0
20, 148920, Note_on_c, 14, 55, 90
20, 148979, Note_on_c, 14, 55, 0
20, 148980, Note_on_c, 14, 43, 90
20, 149039, Note_on_c, 14, 43, 0
20, 149040, Note_on_c, 14, 43, 90
20, 149099, Note_on_c, 14, 43, 0
20, 149100, Note_on_c, 14, 55, 90
20, 149159, Note_on_c, 14, 55, 0
20, 149160, Note_on_c, 14, 55, 90
20, 149219, Note_on_c, 14, 55, 0
20, 149220, Note_on_c, 14, 43, 90
20, 149279, Note_on_c, 14, 43, 0
20, 149280, Note_on_c, 14, 43, 90
20, 149339, Note_on_c, 14, 43, 0
20, 149340, Note_on_c, 14, 55, 90
20, 149399, Note_on_c, 14, 55, 0
20, 149400, Note_on_c, 14, 55, 90
20, 149459, Note_on_c, 14, 55, 0
20, 149460, Note_on_c, 14, 43, 90
20, 149519, Note_on_c, 14, 43, 0
20, 149520, Note_on_c, 14, 43, 90
20, 150300, Note_on_c, 14, 43, 0
20, 150300, Note_on_c, 14, 55, 90
20, 150359, Note_on_c, 14, 55, 0
20, 150360, Note_on_c, 14, 55, 90
20, 150419, Note_on_c, 14, 55, 0
20, 150420, Note_on_c, 14, 43, 90
20, 150479, Note_on_c, 14, 43, 0
20, 150480, Note_on_c, 14, 42, 90
20, 150539, Note_on_c, 14, 42, 0
20, 150540, Note_on_c, 14, 55, 90
20, 150599, Note_on_c, 14, 55, 0
20, 150600, Note_on_c, 14, 54, 90
20, 150659, Note_on_c, 14, 54, 0
20, 150660, Note_on_c, 14, 52, 90
20, 150719, Note_on_c, 14, 52, 0
20, 150720, Note_on_c, 14, 50, 90
20, 150779, Note_on_c, 14, 50, 0
20, 150780, Note_on_c, 14, 52, 90
20, 150839, Note_on_c, 14, 52, 0
20, 150840, Note_on_c, 14, 54, 90
20, 150899, Note_on_c, 14, 54, 0
20, 150900, Note_on_c, 14, 55, 90
20, 150959, Note_on_c, 14, 55, 0
20, 150960, Note_on_c, 14, 57, 90
20, 151079, Note_on_c, 14, 57, 0
20, 151080, Note_on_c, 14, 45, 90
20, 151199, Note_on_c, 14, 45, 0
20, 151200, Note_on_c, 14, 50, 90
20, 151259, Note_on_c, 14, 50, 0
20, 151320, Note_on_c, 14, 47, 90
20, 151379, Note_on_c, 14, 47, 0
20, 151440, Note_on_c, 14, 49, 90
20, 151499, Note_on_c, 14, 49, 0
20, 151500, Note_on_c, 14, 54, 90
20, 151559, Note_on_c, 14, 54, 0
20, 151560, Note_on_c, 14, 52, 90
20, 151589, Note_on_c, 14, 52, 0
20, 151590, Note_on_c, 14, 50, 90
20, 151619, Note_on_c, 14, 50, 0
20, 151620, Note_on_c, 14, 48, 90
20, 151649, Note_on_c, 14, 48, 0
20, 151650, Note_on_c, 14, 47, 90
20, 151679, Note_on_c, 14, 47, 0
20, 151680, Note_on_c, 14, 45, 90
20, 151739, Note_on_c, 14, 45, 0
20, 151800, Note_on_c, 14, 43, 90
20, 151859, Note_on_c, 14, 43, 0
20, 151920, Note_on_c, 14, 42, 90
20, 151979, Note_on_c, 14, 42, 0
20, 151980, Note_on_c, 14, 47, 90
20, 152039, Note_on_c, 14, 47, 0
20, 152040, Note_on_c, 14, 45, 90
20, 152069, Note_on_c, 14, 45, 0
20, 152070, Note_on_c, 14, 43, 90
20, 152099, Note_on_c, 14, 43, 0
20, 152100, Note_on_c, 14, 42, 90
20, 152129, Note_on_c, 14, 42, 0
20, 152130, Note_on_c, 14, 40, 90
20, 152159, Note_on_c, 14, 40, 0
20, 152160, Note_on_c, 14, 39, 90
20, 152219, Note_on_c, 14, 39, 0
20, 152220, Note_on_c, 14, 51, 90
20, 152279, Note_on_c, 14, 51, 0
20, 152280, Note_on_c, 14, 51, 90
20, 152339, Note_on_c, 14, 51, 0
20, 152340, Note_on_c, 14, 39, 90
20, 152399, Note_on_c, 14, 39, 0
20, 152400, Note_on_c, 14, 40, 90
20, 152459, Note_on_c, 14, 40, 0
20, 152460, Note_on_c, 14, 52, 90
20, 152519, Note_on_c, 14, 52, 0
20, 152520, Note_on_c, 14, 52, 90
20, 152579, Note_on_c, 14, 52, 0
20, 152580, Note_on_c, 14, 47, 90
20, 152639, Note_on_c, 14, 47, 0
20, 152640, Note_on_c, 14, 44, 90
20, 152699, Note_on_c, 14, 44, 0
20, 152700, Note_on_c, 14, 56, 90
20, 152759, Note_on_c, 14, 56, 0
20, 152760, Note_on_c, 14, 56, 90
20, 152819, Note_on_c, 14, 56, 0
20, 152820, Note_on_c, 14, 44, 90
20, 152879, Note_on_c, 14, 44, 0
20, 152880, Note_on_c, 14, 45, 90
20, 152939, Note_on_c, 14, 45, 0
20, 152940, Note_on_c, 14, 57, 90
20, 152999, Note_on_c, 14, 57, 0
20, 153000, Note_on_c, 14, 57, 90
20, 153059, Note_on_c, 14, 57, 0
20, 153060, Note_on_c, 14, 52, 90
20, 153119, Note_on_c, 14, 52, 0
20, 153120, Note_on_c, 14, 49, 90
20, 153179, Note_on_c, 14, 49, 0
20, 153180, Note_on_c, 14, 61, 90
20, 153239, Note_on_c, 14, 61, 0
20, 153240, Note_on_c, 14, 61, 90
20, 153299, Note_on_c, 14, 61, 0
20, 153300, Note_on_c, 14, 49, 90
20, 153359, Note_on_c, 14, 49, 0
20, 153360, Note_on_c, 14, 50, 90
20, 153419, Note_on_c, 14, 50, 0
20, 153420, Note_on_c, 14, 62, 90
20, 153479, Note_on_c, 14, 62, 0
20, 153480, Note_on_c, 14, 62, 90
20, 153539, Note_on_c, 14, 62, 0
20, 153540, Note_on_c, 14, 59, 90
20, 153599, Note_on_c, 14, 59, 0
20, 153600, Note_on_c, 14, 54, 90
20, 153659, Note_on_c, 14, 54, 0
20, 153660, Note_on_c, 14, 55, 90
20, 153719, Note_on_c, 14, 55, 0
20, 153720, Note_on_c, 14, 57, 90
20, 153779, Note_on_c, 14, 57, 0
20, 153780, Note_on_c, 14, 55, 90
20, 153839, Note_on_c, 14, 55, 0
20, 153840, Note_on_c, 14, 54, 90
20, 153899, Note_on_c, 14, 54, 0
20, 153900, Note_on_c, 14, 55, 90
20, 153959, Note_on_c, 14, 55, 0
20, 153960, Note_on_c, 14, 57, 90
20, 154019, Note_on_c, 14, 57, 0
20, 154020, Note_on_c, 14, 45, 90
20, 154079, Note_on_c, 14, 45, 0
20, 154080, Note_on_c, 14, 50, 90
20, 154139, Note_on_c, 14, 50, 0
20, 154140, Note_on_c, 14, 45, 90
20, 154199, Note_on_c, 14, 45, 0
20, 154200, Note_on_c, 14, 42, 90
20, 154259, Note_on_c, 14, 42, 0
20, 154260, Note_on_c, 14, 45, 90
20, 154319, Note_on_c, 14, 45, 0
20, 154320, Note_on_c, 14, 38, 90
20, 155100, Note_on_c, 14, 38, 0
20, 155100, Note_on_c, 14, 50, 90
20, 155159, Note_on_c, 14, 50, 0
20, 155160, Note_on_c, 14, 52, 90
20, 155219, Note_on_c, 14, 52, 0
20, 155220, Note_on_c, 14, 54, 90
20, 155279, Note_on_c, 14, 54, 0
20, 155280, Note_on_c, 14, 43, 90
20, 156060, Note_on_c, 14, 43, 0
20, 156060, Note_on_c, 14, 55, 90
20, 156119, Note_on_c, 14, 55, 0
20, 156120, Note_on_c, 14, 57, 90
20, 156179, Note_on_c, 14, 57, 0
20, 156180, Note_on_c, 14, 59, 90
20, 156239, Note_on_c, 14, 59, 0
20, 156240, Note_on_c, 14, 48, 90
20, 156299, Note_on_c, 14, 48, 0
20, 156360, Note_on_c, 14, 44, 90
20, 156419, Note_on_c, 14, 44, 0
20, 156480, Note_on_c, 14, 45, 90
20, 156539, Note_on_c, 14, 45, 0
20, 156600, Note_on_c, 14, 48, 90
20, 156659, Note_on_c, 14, 48, 0
20, 156720, Note_on_c, 14, 50, 90
20, 156779, Note_on_c, 14, 50, 0
20, 156840, Note_on_c, 14, 38, 90
20, 156899, Note_on_c, 14, 38, 0
20, 156960, Note_on_c, 14, 43, 90
20, 157019, Note_on_c, 14, 43, 0
20, 157080, Note_on_c, 14, 47, 90
20, 157139, Note_on_c, 14, 47, 0
20, 157200, Note_on_c, 14, 48, 90
20, 157259, Note_on_c, 14, 48, 0
20, 157320, Note_on_c, 14, 45, 90
20, 157379, Note_on_c, 14, 45, 0
20, 157440, Note_on_c, 14, 50, 90
20, 157499, Note_on_c, 14, 50, 0
20, 157560, Note_on_c, 14, 47, 90
20, 157619, Note_on_c, 14, 47, 0
20, 157680, Note_on_c, 14, 52, 90
20, 157739, Note_on_c, 14, 52, 0
20, 157740, Note_on_c, 14, 48, 90
20, 157799, Note_on_c, 14, 48, 0
20, 157800, Note_on_c, 14, 50, 90
20, 157859, Note_on_c, 14, 50, 0
20, 157860, Note_on_c, 14, 38, 90
20, 157919, Note_on_c, 14, 38, 0
20, 157920, Note_on_c, 14, 40, 90
20, 157979, Note_on_c, 14, 40, 0
20, 158040, Note_on_c, 14, 45, 90
20, 158099, Note_on_c, 14, 45, 0
20, 158160, Note_on_c, 14, 50, 90
20, 158219, Note_on_c, 14, 50, 0
20, 158220, Note_on_c, 14, 59, 90
20, 158279, Note_on_c, 14, 59, 0
20, 158280, Note_on_c, 14, 57, 90
20, 158309, Note_on_c, 14, 57, 0
20, 158310, Note_on_c, 14, 55, 90
20, 158339, Note_on_c, 14, 55, 0
20, 158340, Note_on_c, 14, 54, 90
20, 158369, Note_on_c, 14, 54, 0
20, 158370, Note_on_c, 14, 52, 90
20, 158399, Note_on_c, 14, 52, 0
20, 158400, Note_on_c, 14, 50, 90
20, 158459, Note_on_c, 14, 50, 0
20, 158520, Note_on_c, 14, 38, 90
20, 158579, Note_on_c, 14, 38, 0
20, 158640, Note_on_c, 14, 43, 90
20, 158699, Note_on_c, 14, 43, 0
20, 158700, Note_on_c, 14, 52, 90
20, 158759, Note_on_c, 14, 52, 0
20, 158760, Note_on_c, 14, 50, 90
20, 158789, Note_on_c, 14, 50, 0
20, 158790, Note_on_c, 14, 48, 90
20, 158819, Note_on_c, 14, 48, 0
20, 158820, Note_on_c, 14, 47, 90
20, 158849, Note_on_c, 14, 47, 0
20, 158850, Note_on_c, 14, 45, 90
20, 158879, Note_on_c, 14, 45, 0
20, 158880, Note_on_c, 14, 44, 90
20, 158939, Note_on_c, 14, 44, 0
20, 158940, Note_on_c, 14, 56, 90
20, 158999, Note_on_c, 14, 56, 0
20, 159000, Note_on_c, 14, 56, 90
20, 159059, Note_on_c, 14, 56, 0
20, 159060, Note_on_c, 14, 44, 90
20, 159119, Note_on_c, 14, 44, 0
20, 159120, Note_on_c, 14, 45, 90
20, 159179, Note_on_c, 14, 45, 0
20, 159180, Note_on_c, 14, 57, 90
20, 159239, Note_on_c, 14, 57, 0
20, 159240, Note_on_c, 14, 57, 90
20, 159299, Note_on_c, 14, 57, 0
20, 159300, Note_on_c, 14, 45, 90
20, 159359, Note_on_c, 14, 45, 0
20, 159360, Note_on_c, 14, 49, 90
20, 159419, Note_on_c, 14, 49, 0
20, 159420, Note_on_c, 14, 57, 90
20, 159479, Note_on_c, 14, 57, 0
20, 159480, Note_on_c, 14, 57, 90
20, 159539, Note_on_c, 14, 57, 0
20, 159540, Note_on_c, 14, 45, 90
20, 159599, Note_on_c, 14, 45, 0
20, 159600, Note_on_c, 14, 38, 90
20, 159659, Note_on_c, 14, 38, 0
20, 159660, Note_on_c, 14, 50, 90
20, 159719, Note_on_c, 14, 50, 0
20, 159720, Note_on_c, 14, 50, 90
20, 159779, Note_on_c, 14, 50, 0
20, 159780, Note_on_c, 14, 45, 90
20, 159839, Note_on_c, 14, 45, 0
20, 159840, Note_on_c, 14, 38, 90
20, 159899, Note_on_c, 14, 38, 0
20, 159900, Note_on_c, 14, 50, 90
20, 159959, Note_on_c, 14, 50, 0
20, 159960, Note_on_c, 14, 52, 90
20, 160019, Note_on_c, 14, 52, 0
20, 160020, Note_on_c, 14, 54, 90
20, 160079, Note_on_c, 14, 54, 0
20, 160080, Note_on_c, 14, 47, 90
20, 160139, Note_on_c, 14, 47, 0
20, 160140, Note_on_c, 14, 59, 90
20, 160199, Note_on_c, 14, 59, 0
20, 160200, Note_on_c, 14, 57, 90
20, 160259, Note_on_c, 14, 57, 0
20, 160260, Note_on_c, 14, 55, 90
20, 160319, Note_on_c, 14, 55, 0
20, 160320, Note_on_c, 14, 54, 90
20, 160379, Note_on_c, 14, 54, 0
20, 160380, Note_on_c, 14, 50, 90
20, 160439, Note_on_c, 14, 50, 0
20, 160440, Note_on_c, 14, 47, 90
20, 160499, Note_on_c, 14, 47, 0
20, 160500, Note_on_c, 14, 43, 90
20, 160559, Note_on_c, 14, 43, 0
20, 160560, Note_on_c, 14, 52, 90
20, 160619, Note_on_c, 14, 52, 0
20, 160620, Note_on_c, 14, 47, 90
20, 160679, Note_on_c, 14, 47, 0
20, 160680, Note_on_c, 14, 48, 90
20, 160739, Note_on_c, 14, 48, 0
20, 160740, Note_on_c, 14, 50, 90
20, 160799, Note_on_c, 14, 50, 0
20, 160800, Note_on_c, 14, 43, 90
20, 160859, Note_on_c, 14, 43, 0
20, 160860, Note_on_c, 14, 55, 90
20, 160919, Note_on_c, 14, 55, 0
20, 160920, Note_on_c, 14, 50, 90
20, 160979, Note_on_c, 14, 50, 0
20, 160980, Note_on_c, 14, 47, 90
20, 161039, Note_on_c, 14, 47, 0
20, 161040, Note_on_c, 14, 43, 90
20, 161099, Note_on_c, 14, 43, 0
20, 161100, Note_on_c, 14, 55, 90
20, 161159, Note_on_c, 14, 55, 0
20, 161160, Note_on_c, 14, 55, 90
20, 161219, Note_on_c, 14, 55, 0
20, 161220, Note_on_c, 14, 43, 90
20, 161279, Note_on_c, 14, 43, 0
20, 161280, Note_on_c, 14, 43, 90
20, 161339, Note_on_c, 14, 43, 0
20, 161340, Note_on_c, 14, 55, 90
20, 161399, Note_on_c, 14, 55, 0
20, 161400, Note_on_c, 14, 55, 90
20, 161459, Note_on_c, 14, 55, 0
20, 161460, Note_on_c, 14, 43, 90
20, 161519, Note_on_c, 14, 43, 0
20, 161520, Note_on_c, 14, 43, 90
20, 161579, Note_on_c, 14, 43, 0
20, 161580, Note_on_c, 14, 55, 90
20, 161639, Note_on_c, 14, 55, 0
20, 161640, Note_on_c, 14, 55, 90
20, 161699, Note_on_c, 14, 55, 0
20, 161700, Note_on_c, 14, 43, 90
20, 161759, Note_on_c, 14, 43, 0
20, 161760, Note_on_c, 14, 43, 90
20, 161819, Note_on_c, 14, 43, 0
20, 161820, Note_on_c, 14, 55, 90
20, 161879, Note_on_c, 14, 55, 0
20, 161880, Note_on_c, 14, 55, 90
20, 161939, Note_on_c, 14, 55, 0
20, 161940, Note_on_c, 14, 43, 90
20, 161999, Note_on_c, 14, 43, 0
20, 162000, Note_on_c, 14, 43, 90
20, 162059, Note_on_c, 14, 43, 0
20, 162060, Note_on_c, 14, 55, 90
20, 162119, Note_on_c, 14, 55, 0
20, 162120, Note_on_c, 14, 55, 90
20, 162179, Note_on_c, 14, 55, 0
20, 162180, Note_on_c, 14, 43, 90
20, 162239, Note_on_c, 14, 43, 0
20, 162240, Note_on_c, 14, 43, 90
20, 162299, Note_on_c, 14, 43, 0
20, 162300, Note_on_c, 14, 55, 90
20, 162359, Note_on_c, 14, 55, 0
20, 162360, Note_on_c, 14, 55, 90
20, 162419, Note_on_c, 14, 55, 0
20, 162420, Note_on_c, 14, 43, 90
20, 162479, Note_on_c, 14, 43, 0
20, 162480, Note_on_c, 14, 43, 90
20, 162539, Note_on_c, 14, 43, 0
20, 162540, Note_on_c, 14, 55, 90
20, 162599, Note_on_c, 14, 55, 0
20, 162600, Note_on_c, 14, 55, 90
20, 162659, Note_on_c, 14, 55, 0
20, 162660, Note_on_c, 14, 43, 90
20, 162719, Note_on_c, 14, 43, 0
20, 162720, Note_on_c, 14, 43, 90
20, 162779, Note_on_c, 14, 43, 0
20, 162780, Note_on_c, 14, 55, 90
20, 162839, Note_on_c, 14, 55, 0
20, 162840, Note_on_c, 14, 55, 90
20, 162899, Note_on_c, 14, 55, 0
20, 162900, Note_on_c, 14, 43, 90
20, 162959, Note_on_c, 14, 43, 0
20, 162960, Note_on_c, 14, 43, 90
20, 163740, Note_on_c, 14, 43, 0
20, 163740, Note_on_c, 14, 45, 90
20, 163799, Note_on_c, 14, 45, 0
20, 163800, Note_on_c, 14, 47, 90
20, 163859, Note_on_c, 14, 47, 0
20, 163860, Note_on_c, 14, 43, 90
20, 163919, Note_on_c, 14, 43, 0
20, 163920, Note_on_c, 14, 48, 90
20, 163979, Note_on_c, 14, 48, 0
20, 164040, Note_on_c, 14, 45, 90
20, 164099, Note_on_c, 14, 45, 0
20, 164160, Note_on_c, 14, 50, 90
20, 164219, Note_on_c, 14, 50, 0
20, 164280, Note_on_c, 14, 47, 90
20, 164339, Note_on_c, 14, 47, 0
20, 164400, Note_on_c, 14, 52, 90
20, 164459, Note_on_c, 14, 52, 0
20, 164460, Note_on_c, 14, 48, 90
20, 164519, Note_on_c, 14, 48, 0
20, 164520, Note_on_c, 14, 50, 90
20, 164579, Note_on_c, 14, 50, 0
20, 164580, Note_on_c, 14, 38, 90
20, 164639, Note_on_c, 14, 38, 0
20, 164640, Note_on_c, 14, 43, 90
20, 164880, Note_on_c, 14, 43, 0
20, 165120, Note_on_c, 14, 49, 100
20, 166080, Note_on_c, 14, 49, 0
20, 166080, Note_on_c, 14, 50, 100
20, 166200, Note_on_c, 14, 50, 0
20, 166200, Note_on_c, 14, 54, 100
20, 166320, Note_on_c, 14, 54, 0
20, 166320, Note_on_c, 14, 55, 100
20, 166440, Note_on_c, 14, 55, 0
20, 166440, Note_on_c, 14, 52, 100
20, 166560, Note_on_c, 14, 52, 0
20, 166680, Note_on_c, 14, 57, 100
20, 166800, Note_on_c, 14, 57, 0
20, 166800, Note_on_c, 14, 50, 100
20, 167040, Note_on_c, 14, 50, 0
20, 167235, Program_c, 14, 52
20, 167280, Note_on_c, 14, 43, 90
20, 167339, Note_on_c, 14, 43, 0
20, 167340, Note_on_c, 14, 45, 90
20, 167399, Note_on_c, 14, 45, 0
20, 167400, Note_on_c, 14, 47, 90
20, 167459, Note_on_c, 14, 47, 0
20, 167460, Note_on_c, 14, 43, 90
20, 167519, Note_on_c, 14, 43, 0
20, 167520, Note_on_c, 14, 45, 90
20, 167579, Note_on_c, 14, 45, 0
20, 167580, Note_on_c, 14, 47, 90
20, 167639, Note_on_c, 14, 47, 0
20, 167640, Note_on_c, 14, 48, 90
20, 167699, Note_on_c, 14, 48, 0
20, 167700, Note_on_c, 14, 45, 90
20, 167759, Note_on_c, 14, 45, 0
20, 167760, Note_on_c, 14, 47, 90
20, 167819, Note_on_c, 14, 47, 0
20, 167820, Note_on_c, 14, 48, 90
20, 167879, Note_on_c, 14, 48, 0
20, 167880, Note_on_c, 14, 50, 90
20, 167939, Note_on_c, 14, 50, 0
20, 167940, Note_on_c, 14, 47, 90
20, 167999, Note_on_c, 14, 47, 0
20, 168000, Note_on_c, 14, 48, 90
20, 168059, Note_on_c, 14, 48, 0
20, 168060, Note_on_c, 14, 50, 90
20, 168119, Note_on_c, 14, 50, 0
20, 168120, Note_on_c, 14, 52, 90
20, 168179, Note_on_c, 14, 52, 0
20, 168180, Note_on_c, 14, 48, 90
20, 168239, Note_on_c, 14, 48, 0
20, 168240, Note_on_c, 14, 50, 90
20, 168299, Note_on_c, 14, 50, 0
20, 168300, Note_on_c, 14, 52, 90
20, 168359, Note_on_c, 14, 52, 0
20, 168360, Note_on_c, 14, 54, 90
20, 168419, Note_on_c, 14, 54, 0
20, 168420, Note_on_c, 14, 50, 90
20, 168479, Note_on_c, 14, 50, 0
20, 168480, Note_on_c, 14, 52, 90
20, 168539, Note_on_c, 14, 52, 0
20, 168540, Note_on_c, 14, 54, 90
20, 168599, Note_on_c, 14, 54, 0
20, 168600, Note_on_c, 14, 55, 90
20, 168659, Note_on_c, 14, 55, 0
20, 168660, Note_on_c, 14, 52, 90
20, 168719, Note_on_c, 14, 52, 0
20, 168720, Note_on_c, 14, 54, 90
20, 168779, Note_on_c, 14, 54, 0
20, 168780, Note_on_c, 14, 55, 90
20, 168839, Note_on_c, 14, 55, 0
20, 168840, Note_on_c, 14, 57, 90
20, 168899, Note_on_c, 14, 57, 0
20, 168900, Note_on_c, 14, 54, 90
20, 168959, Note_on_c, 14, 54, 0
20, 168960, Note_on_c, 14, 55, 90
20, 169019, Note_on_c, 14, 55, 0
20, 169020, Note_on_c, 14, 50, 90
20, 169079, Note_on_c, 14, 50, 0
20, 169080, Note_on_c, 14, 55, 90
20, 169259, Note_on_c, 14, 55, 0
20, 169260, Note_on_c, 14, 54, 90
20, 169289, Note_on_c, 14, 54, 0
20, 169290, Note_on_c, 14, 52, 90
20, 169319, Note_on_c, 14, 52, 0
20, 169320, Note_on_c, 14, 54, 90
20, 169379, Note_on_c, 14, 54, 0
20, 169380, Note_on_c, 14, 59, 90
20, 169439, Note_on_c, 14, 59, 0
20, 169440, Note_on_c, 14, 55, 90
20, 169499, Note_on_c, 14, 55, 0
20, 169500, Note_on_c, 14, 52, 90
20, 169559, Note_on_c, 14, 52, 0
20, 169560, Note_on_c, 14, 57, 90
20, 169619, Note_on_c, 14, 57, 0
20, 169620, Note_on_c, 14, 55, 90
20, 169679, Note_on_c, 14, 55, 0
20, 169680, Note_on_c, 14, 54, 90
20, 169739, Note_on_c, 14, 54, 0
20, 169740, Note_on_c, 14, 55, 90
20, 169769, Note_on_c, 14, 55, 0
20, 169770, Note_on_c, 14, 57, 90
20, 169799, Note_on_c, 14, 57, 0
20, 169800, Note_on_c, 14, 59, 90
20, 169859, Note_on_c, 14, 59, 0
20, 169860, Note_on_c, 14, 64, 90
20, 169919, Note_on_c, 14, 64, 0
20, 169920, Note_on_c, 14, 61, 90
20, 169979, Note_on_c, 14, 61, 0
20, 169980, Note_on_c, 14, 57, 90
20, 170039, Note_on_c, 14, 57, 0
20, 170040, Note_on_c, 14, 62, 90
20, 170099, Note_on_c, 14, 62, 0
20, 170100, Note_on_c, 14, 60, 90
20, 170159, Note_on_c, 14, 60, 0
20, 170160, Note_on_c, 14, 59, 90
20, 170219, Note_on_c, 14, 59, 0
20, 170220, Note_on_c, 14, 57, 90
20, 170249, Note_on_c, 14, 57, 0
20, 170250, Note_on_c, 14, 59, 90
20, 170279, Note_on_c, 14, 59, 0
20, 170280, Note_on_c, 14, 61, 90
20, 170339, Note_on_c, 14, 61, 0
20, 170340, Note_on_c, 14, 59, 90
20, 170369, Note_on_c, 14, 59, 0
20, 170370, Note_on_c, 14, 61, 90
20, 170399, Note_on_c, 14, 61, 0
20, 170400, Note_on_c, 14, 62, 90
20, 170459, Note_on_c, 14, 62, 0
20, 170460, Note_on_c, 14, 61, 90
20, 170519, Note_on_c, 14, 61, 0
20, 170520, Note_on_c, 14, 59, 90
20, 170579, Note_on_c, 14, 59, 0
20, 170580, Note_on_c, 14, 57, 90
20, 170639, Note_on_c, 14, 57, 0
20, 170640, Note_on_c, 14, 55, 90
20, 170699, Note_on_c, 14, 55, 0
20, 170700, Note_on_c, 14, 54, 90
20, 170729, Note_on_c, 14, 54, 0
20, 170730, Note_on_c, 14, 55, 90
20, 170759, Note_on_c, 14, 55, 0
20, 170760, Note_on_c, 14, 57, 90
20, 170819, Note_on_c, 14, 57, 0
20, 170820, Note_on_c, 14, 55, 90
20, 170849, Note_on_c, 14, 55, 0
20, 170850, Note_on_c, 14, 57, 90
20, 170879, Note_on_c, 14, 57, 0
20, 170880, Note_on_c, 14, 59, 90
20, 170939, Note_on_c, 14, 59, 0
20, 170940, Note_on_c, 14, 55, 90
20, 170999, Note_on_c, 14, 55, 0
20, 171000, Note_on_c, 14, 57, 90
20, 171059, Note_on_c, 14, 57, 0
20, 171060, Note_on_c, 14, 45, 90
20, 171119, Note_on_c, 14, 45, 0
20, 171120, Note_on_c, 14, 50, 90
20, 171179, Note_on_c, 14, 50, 0
20, 171180, Note_on_c, 14, 52, 90
20, 171239, Note_on_c, 14, 52, 0
20, 171240, Note_on_c, 14, 54, 90
20, 171299, Note_on_c, 14, 54, 0
20, 171300, Note_on_c, 14, 50, 90
20, 171359, Note_on_c, 14, 50, 0
20, 171360, Note_on_c, 14, 52, 90
20, 171419, Note_on_c, 14, 52, 0
20, 171420, Note_on_c, 14, 54, 90
20, 171479, Note_on_c, 14, 54, 0
20, 171480, Note_on_c, 14, 55, 90
20, 171539, Note_on_c, 14, 55, 0
20, 171540, Note_on_c, 14, 52, 90
20, 171599, Note_on_c, 14, 52, 0
20, 171600, Note_on_c, 14, 54, 90
20, 171659, Note_on_c, 14, 54, 0
20, 171660, Note_on_c, 14, 55, 90
20, 171719, Note_on_c, 14, 55, 0
20, 171720, Note_on_c, 14, 57, 90
20, 171779, Note_on_c, 14, 57, 0
20, 171780, Note_on_c, 14, 54, 90
20, 171839, Note_on_c, 14, 54, 0
20, 171840, Note_on_c, 14, 55, 90
20, 171899, Note_on_c, 14, 55, 0
20, 171900, Note_on_c, 14, 57, 90
20, 171959, Note_on_c, 14, 57, 0
20, 171960, Note_on_c, 14, 59, 90
20, 172019, Note_on_c, 14, 59, 0
20, 172020, Note_on_c, 14, 55, 90
20, 172079, Note_on_c, 14, 55, 0
20, 172080, Note_on_c, 14, 52, 90
20, 172139, Note_on_c, 14, 52, 0
20, 172140, Note_on_c, 14, 54, 90
20, 172199, Note_on_c, 14, 54, 0
20, 172200, Note_on_c, 14, 55, 90
20, 172259, Note_on_c, 14, 55, 0
20, 172260, Note_on_c, 14, 52, 90
20, 172319, Note_on_c, 14, 52, 0
20, 172320, Note_on_c, 14, 54, 90
20, 172379, Note_on_c, 14, 54, 0
20, 172380, Note_on_c, 14, 56, 90
20, 172439, Note_on_c, 14, 56, 0
20, 172440, Note_on_c, 14, 57, 90
20, 172499, Note_on_c, 14, 57, 0
20, 172500, Note_on_c, 14, 54, 90
20, 172559, Note_on_c, 14, 54, 0
20, 172560, Note_on_c, 14, 56, 90
20, 172619, Note_on_c, 14, 56, 0
20, 172620, Note_on_c, 14, 57, 90
20, 172679, Note_on_c, 14, 57, 0
20, 172680, Note_on_c, 14, 59, 90
20, 172739, Note_on_c, 14, 59, 0
20, 172740, Note_on_c, 14, 56, 90
20, 172799, Note_on_c, 14, 56, 0
20, 172800, Note_on_c, 14, 57, 90
20, 172859, Note_on_c, 14, 57, 0
20, 172860, Note_on_c, 14, 52, 90
20, 172919, Note_on_c, 14, 52, 0
20, 172920, Note_on_c, 14, 57, 90
20, 173099, Note_on_c, 14, 57, 0
20, 173100, Note_on_c, 14, 55, 90
20, 173129, Note_on_c, 14, 55, 0
20, 173130, Note_on_c, 14, 54, 90
20, 173159, Note_on_c, 14, 54, 0
20, 173160, Note_on_c, 14, 55, 90
20, 173219, Note_on_c, 14, 55, 0
20, 173220, Note_on_c, 14, 60, 90
20, 173279, Note_on_c, 14, 60, 0
20, 173280, Note_on_c, 14, 57, 90
20, 173339, Note_on_c, 14, 57, 0
20, 173340, Note_on_c, 14, 54, 90
20, 173399, Note_on_c, 14, 54, 0
20, 173400, Note_on_c, 14, 59, 90
20, 173459, Note_on_c, 14, 59, 0
20, 173460, Note_on_c, 14, 57, 90
20, 173519, Note_on_c, 14, 57, 0
20, 173520, Note_on_c, 14, 55, 90
20, 173579, Note_on_c, 14, 55, 0
20, 173580, Note_on_c, 14, 57, 90
20, 173609, Note_on_c, 14, 57, 0
20, 173610, Note_on_c, 14, 59, 90
20, 173639, Note_on_c, 14, 59, 0
20, 173640, Note_on_c, 14, 60, 90
20, 173699, Note_on_c, 14, 60, 0
20, 173700, Note_on_c, 14, 57, 90
20, 173759, Note_on_c, 14, 57, 0
20, 173760, Note_on_c, 14, 63, 90
20, 173819, Note_on_c, 14, 63, 0
20, 173820, Note_on_c, 14, 59, 90
20, 173879, Note_on_c, 14, 59, 0
20, 173880, Note_on_c, 14, 64, 90
20, 173939, Note_on_c, 14, 64, 0
20, 173940, Note_on_c, 14, 62, 90
20, 173999, Note_on_c, 14, 62, 0
20, 174000, Note_on_c, 14, 61, 90
20, 174059, Note_on_c, 14, 61, 0
20, 174060, Note_on_c, 14, 59, 90
20, 174089, Note_on_c, 14, 59, 0
20, 174090, Note_on_c, 14, 61, 90
20, 174119, Note_on_c, 14, 61, 0
20, 174120, Note_on_c, 14, 63, 90
20, 174179, Note_on_c, 14, 63, 0
20, 174180, Note_on_c, 14, 61, 90
20, 174209, Note_on_c, 14, 61, 0
20, 174210, Note_on_c, 14, 63, 90
20, 174239, Note_on_c, 14, 63, 0
20, 174240, Note_on_c, 14, 64, 90
20, 174299, Note_on_c, 14, 64, 0
20, 174300, Note_on_c, 14, 62, 90
20, 174359, Note_on_c, 14, 62, 0
20, 174360, Note_on_c, 14, 60, 90
20, 174419, Note_on_c, 14, 60, 0
20, 174420, Note_on_c, 14, 59, 90
20, 174479, Note_on_c, 14, 59, 0
20, 174480, Note_on_c, 14, 57, 90
20, 174539, Note_on_c, 14, 57, 0
20, 174540, Note_on_c, 14, 55, 90
20, 174569, Note_on_c, 14, 55, 0
20, 174570, Note_on_c, 14, 57, 90
20, 174599, Note_on_c, 14, 57, 0
20, 174600, Note_on_c, 14, 59, 90
20, 174659, Note_on_c, 14, 59, 0
20, 174660, Note_on_c, 14, 57, 90
20, 174689, Note_on_c, 14, 57, 0
20, 174690, Note_on_c, 14, 59, 90
20, 174719, Note_on_c, 14, 59, 0
20, 174720, Note_on_c, 14, 60, 90
20, 174779, Note_on_c, 14, 60, 0
20, 174780, Note_on_c, 14, 57, 90
20, 174839, Note_on_c, 14, 57, 0
20, 174840, Note_on_c, 14, 59, 90
20, 174899, Note_on_c, 14, 59, 0
20, 174900, Note_on_c, 14, 47, 90
20, 174959, Note_on_c, 14, 47, 0
20, 174960, Note_on_c, 14, 52, 90
20, 175019, Note_on_c, 14, 52, 0
20, 175020, Note_on_c, 14, 54, 90
20, 175079, Note_on_c, 14, 54, 0
20, 175080, Note_on_c, 14, 55, 90
20, 175139, Note_on_c, 14, 55, 0
20, 175140, Note_on_c, 14, 52, 90
20, 175199, Note_on_c, 14, 52, 0
20, 175200, Note_on_c, 14, 54, 90
20, 175259, Note_on_c, 14, 54, 0
20, 175260, Note_on_c, 14, 55, 90
20, 175319, Note_on_c, 14, 55, 0
20, 175320, Note_on_c, 14, 57, 90
20, 175379, Note_on_c, 14, 57, 0
20, 175380, Note_on_c, 14, 54, 90
20, 175439, Note_on_c, 14, 54, 0
20, 175440, Note_on_c, 14, 56, 90
20, 175499, Note_on_c, 14, 56, 0
20, 175500, Note_on_c, 14, 57, 90
20, 175559, Note_on_c, 14, 57, 0
20, 175560, Note_on_c, 14, 59, 90
20, 175619, Note_on_c, 14, 59, 0
20, 175620, Note_on_c, 14, 56, 90
20, 175679, Note_on_c, 14, 56, 0
20, 175680, Note_on_c, 14, 57, 90
20, 175739, Note_on_c, 14, 57, 0
20, 175740, Note_on_c, 14, 59, 90
20, 175799, Note_on_c, 14, 59, 0
20, 175800, Note_on_c, 14, 60, 90
20, 175859, Note_on_c, 14, 60, 0
20, 175860, Note_on_c, 14, 57, 90
20, 175919, Note_on_c, 14, 57, 0
20, 175920, Note_on_c, 14, 50, 90
20, 175979, Note_on_c, 14, 50, 0
20, 175980, Note_on_c, 14, 52, 90
20, 176039, Note_on_c, 14, 52, 0
20, 176040, Note_on_c, 14, 54, 90
20, 176099, Note_on_c, 14, 54, 0
20, 176100, Note_on_c, 14, 50, 90
20, 176159, Note_on_c, 14, 50, 0
20, 176160, Note_on_c, 14, 52, 90
20, 176219, Note_on_c, 14, 52, 0
20, 176220, Note_on_c, 14, 54, 90
20, 176279, Note_on_c, 14, 54, 0
20, 176280, Note_on_c, 14, 55, 90
20, 176339, Note_on_c, 14, 55, 0
20, 176340, Note_on_c, 14, 52, 90
20, 176399, Note_on_c, 14, 52, 0
20, 176400, Note_on_c, 14, 54, 90
20, 176459, Note_on_c, 14, 54, 0
20, 176460, Note_on_c, 14, 55, 90
20, 176519, Note_on_c, 14, 55, 0
20, 176520, Note_on_c, 14, 57, 90
20, 176579, Note_on_c, 14, 57, 0
20, 176580, Note_on_c, 14, 54, 90
20, 176639, Note_on_c, 14, 54, 0
20, 176640, Note_on_c, 14, 55, 90
20, 176699, Note_on_c, 14, 55, 0
20, 176700, Note_on_c, 14, 47, 90
20, 176759, Note_on_c, 14, 47, 0
20, 176760, Note_on_c, 14, 52, 90
20, 176939, Note_on_c, 14, 52, 0
20, 176940, Note_on_c, 14, 50, 90
20, 176969, Note_on_c, 14, 50, 0
20, 176970, Note_on_c, 14, 49, 90
20, 176999, Note_on_c, 14, 49, 0
20, 177000, Note_on_c, 14, 50, 90
20, 177059, Note_on_c, 14, 50, 0
20, 177060, Note_on_c, 14, 55, 90
20, 177119, Note_on_c, 14, 55, 0
20, 177120, Note_on_c, 14, 52, 90
20, 177179, Note_on_c, 14, 52, 0
20, 177180, Note_on_c, 14, 49, 90
20, 177239, Note_on_c, 14, 49, 0
20, 177240, Note_on_c, 14, 54, 90
20, 177299, Note_on_c, 14, 54, 0
20, 177300, Note_on_c, 14, 52, 90
20, 177359, Note_on_c, 14, 52, 0
20, 177360, Note_on_c, 14, 50, 90
20, 177419, Note_on_c, 14, 50, 0
20, 177420, Note_on_c, 14, 52, 90
20, 177449, Note_on_c, 14, 52, 0
20, 177450, Note_on_c, 14, 54, 90
20, 177479, Note_on_c, 14, 54, 0
20, 177480, Note_on_c, 14, 55, 90
20, 177539, Note_on_c, 14, 55, 0
20, 177540, Note_on_c, 14, 52, 90
20, 177599, Note_on_c, 14, 52, 0
20, 177600, Note_on_c, 14, 58, 90
20, 177659, Note_on_c, 14, 58, 0
20, 177660, Note_on_c, 14, 54, 90
20, 177719, Note_on_c, 14, 54, 0
20, 177720, Note_on_c, 14, 59, 90
20, 177779, Note_on_c, 14, 59, 0
20, 177780, Note_on_c, 14, 57, 90
20, 177839, Note_on_c, 14, 57, 0
20, 177840, Note_on_c, 14, 56, 90
20, 177899, Note_on_c, 14, 56, 0
20, 177900, Note_on_c, 14, 54, 90
20, 177929, Note_on_c, 14, 54, 0
20, 177930, Note_on_c, 14, 56, 90
20, 177959, Note_on_c, 14, 56, 0
20, 177960, Note_on_c, 14, 58, 90
20, 178019, Note_on_c, 14, 58, 0
20, 178020, Note_on_c, 14, 56, 90
20, 178049, Note_on_c, 14, 56, 0
20, 178050, Note_on_c, 14, 58, 90
20, 178079, Note_on_c, 14, 58, 0
20, 178080, Note_on_c, 14, 59, 90
20, 178139, Note_on_c, 14, 59, 0
20, 178140, Note_on_c, 14, 57, 90
20, 178199, Note_on_c, 14, 57, 0
20, 178200, Note_on_c, 14, 55, 90
20, 178259, Note_on_c, 14, 55, 0
20, 178260, Note_on_c, 14, 54, 90
20, 178319, Note_on_c, 14, 54, 0
20, 178320, Note_on_c, 14, 52, 90
20, 178379, Note_on_c, 14, 52, 0
20, 178380, Note_on_c, 14, 50, 90
20, 178409, Note_on_c, 14, 50, 0
20, 178410, Note_on_c, 14, 52, 90
20, 178439, Note_on_c, 14, 52, 0
20, 178440, Note_on_c, 14, 54, 90
20, 178499, Note_on_c, 14, 54, 0
20, 178500, Note_on_c, 14, 52, 90
20, 178529, Note_on_c, 14, 52, 0
20, 178530, Note_on_c, 14, 54, 90
20, 178559, Note_on_c, 14, 54, 0
20, 178560, Note_on_c, 14, 55, 90
20, 178619, Note_on_c, 14, 55, 0
20, 178620, Note_on_c, 14, 52, 90
20, 178679, Note_on_c, 14, 52, 0
20, 178680, Note_on_c, 14, 54, 90
20, 178739, Note_on_c, 14, 54, 0
20, 178740, Note_on_c, 14, 42, 90
20, 178799, Note_on_c, 14, 42, 0
20, 178800, Note_on_c, 14, 47, 100
20, 179760, Note_on_c, 14, 47, 0
20, 179760, Note_on_c, 14, 40, 100
20, 180720, Note_on_c, 14, 40, 0
20, 180720, Note_on_c, 14, 45, 100
20, 181680, Note_on_c, 14, 45, 0
20, 181680, Note_on_c, 14, 50, 90
20, 181739, Note_on_c, 14, 50, 0
20, 181740, Note_on_c, 14, 52, 90
20, 181799, Note_on_c, 14, 52, 0
20, 181800, Note_on_c, 14, 53, 90
20, 181859, Note_on_c, 14, 53, 0
20, 181860, Note_on_c, 14, 50, 90
20, 181919, Note_on_c, 14, 50, 0
20, 181920, Note_on_c, 14, 55, 90
20, 181979, Note_on_c, 14, 55, 0
20, 181980, Note_on_c, 14, 57, 90
20, 182039, Note_on_c, 14, 57, 0
20, 182040, Note_on_c, 14, 59, 90
20, 182099, Note_on_c, 14, 59, 0
20, 182100, Note_on_c, 14, 55, 90
20, 182159, Note_on_c, 14, 55, 0
20, 182160, Note_on_c, 14, 48, 90
20, 182219, Note_on_c, 14, 48, 0
20, 182220, Note_on_c, 14, 50, 90
20, 182279, Note_on_c, 14, 50, 0
20, 182280, Note_on_c, 14, 52, 90
20, 182339, Note_on_c, 14, 52, 0
20, 182340, Note_on_c, 14, 48, 90
20, 182399, Note_on_c, 14, 48, 0
20, 182400, Note_on_c, 14, 45, 90
20, 182459, Note_on_c, 14, 45, 0
20, 182460, Note_on_c, 14, 47, 90
20, 182519, Note_on_c, 14, 47, 0
20, 182520, Note_on_c, 14, 48, 90
20, 182579, Note_on_c, 14, 48, 0
20, 182580, Note_on_c, 14, 45, 90
20, 182639, Note_on_c, 14, 45, 0
20, 182640, Note_on_c, 14, 50, 90
20, 182699, Note_on_c, 14, 50, 0
20, 182700, Note_on_c, 14, 52, 90
20, 182759, Note_on_c, 14, 52, 0
20, 182760, Note_on_c, 14, 54, 90
20, 182819, Note_on_c, 14, 54, 0
20, 182820, Note_on_c, 14, 50, 90
20, 182879, Note_on_c, 14, 50, 0
20, 182880, Note_on_c, 14, 43, 90
20, 182939, Note_on_c, 14, 43, 0
20, 182940, Note_on_c, 14, 45, 90
20, 182999, Note_on_c, 14, 45, 0
20, 183000, Note_on_c, 14, 47, 90
20, 183059, Note_on_c, 14, 47, 0
20, 183060, Note_on_c, 14, 43, 90
20, 183119, Note_on_c, 14, 43, 0
20, 183120, Note_on_c, 14, 40, 90
20, 183179, Note_on_c, 14, 40, 0
20, 183180, Note_on_c, 14, 42, 90
20, 183239, Note_on_c, 14, 42, 0
20, 183240, Note_on_c, 14, 43, 90
20, 183299, Note_on_c, 14, 43, 0
20, 183300, Note_on_c, 14, 40, 90
20, 183359, Note_on_c, 14, 40, 0
20, 183360, Note_on_c, 14, 45, 90
20, 183419, Note_on_c, 14, 45, 0
20, 183420, Note_on_c, 14, 43, 90
20, 183449, Note_on_c, 14, 43, 0
20, 183450, Note_on_c, 14, 42, 90
20, 183479, Note_on_c, 14, 42, 0
20, 183480, Note_on_c, 14, 40, 90
20, 183539, Note_on_c, 14, 40, 0
20, 183540, Note_on_c, 14, 45, 90
20, 183599, Note_on_c, 14, 45, 0
20, 183600, Note_on_c, 14, 42, 90
20, 183659, Note_on_c, 14, 42, 0
20, 183660, Note_on_c, 14, 43, 90
20, 183719, Note_on_c, 14, 43, 0
20, 183720, Note_on_c, 14, 45, 90
20, 183779, Note_on_c, 14, 45, 0
20, 183780, Note_on_c, 14, 57, 90
20, 183839, Note_on_c, 14, 57, 0
20, 183840, Note_on_c, 14, 50, 90
20, 183899, Note_on_c, 14, 50, 0
20, 183900, Note_on_c, 14, 52, 90
20, 183959, Note_on_c, 14, 52, 0
20, 183960, Note_on_c, 14, 54, 90
20, 184019, Note_on_c, 14, 54, 0
20, 184020, Note_on_c, 14, 50, 90
20, 184079, Note_on_c, 14, 50, 0
20, 184080, Note_on_c, 14, 55, 90
20, 184139, Note_on_c, 14, 55, 0
20, 184140, Note_on_c, 14, 57, 90
20, 184199, Note_on_c, 14, 57, 0
20, 184200, Note_on_c, 14, 59, 90
20, 184259, Note_on_c, 14, 59, 0
20, 184260, Note_on_c, 14, 55, 90
20, 184319, Note_on_c, 14, 55, 0
20, 184320, Note_on_c, 14, 52, 90
20, 184379, Note_on_c, 14, 52, 0
20, 184380, Note_on_c, 14, 54, 90
20, 184439, Note_on_c, 14, 54, 0
20, 184440, Note_on_c, 14, 55, 90
20, 184499, Note_on_c, 14, 55, 0
20, 184500, Note_on_c, 14, 52, 90
20, 184559, Note_on_c, 14, 52, 0
20, 184560, Note_on_c, 14, 57, 90
20, 184619, Note_on_c, 14, 57, 0
20, 184620, Note_on_c, 14, 59, 90
20, 184679, Note_on_c, 14, 59, 0
20, 184680, Note_on_c, 14, 61, 90
20, 184739, Note_on_c, 14, 61, 0
20, 184740, Note_on_c, 14, 57, 90
20, 184799, Note_on_c, 14, 57, 0
20, 184800, Note_on_c, 14, 54, 90
20, 184859, Note_on_c, 14, 54, 0
20, 184860, Note_on_c, 14, 55, 90
20, 184919, Note_on_c, 14, 55, 0
20, 184920, Note_on_c, 14, 57, 90
20, 184979, Note_on_c, 14, 57, 0
20, 184980, Note_on_c, 14, 54, 90
20, 185039, Note_on_c, 14, 54, 0
20, 185040, Note_on_c, 14, 59, 90
20, 185099, Note_on_c, 14, 59, 0
20, 185100, Note_on_c, 14, 61, 90
20, 185159, Note_on_c, 14, 61, 0
20, 185160, Note_on_c, 14, 62, 90
20, 185219, Note_on_c, 14, 62, 0
20, 185220, Note_on_c, 14, 59, 90
20, 185279, Note_on_c, 14, 59, 0
20, 185280, Note_on_c, 14, 55, 90
20, 185339, Note_on_c, 14, 55, 0
20, 185340, Note_on_c, 14, 57, 90
20, 185399, Note_on_c, 14, 57, 0
20, 185400, Note_on_c, 14, 59, 90
20, 185459, Note_on_c, 14, 59, 0
20, 185460, Note_on_c, 14, 55, 90
20, 185519, Note_on_c, 14, 55, 0
20, 185520, Note_on_c, 14, 60, 90
20, 185579, Note_on_c, 14, 60, 0
20, 185580, Note_on_c, 14, 62, 90
20, 185639, Note_on_c, 14, 62, 0
20, 185640, Note_on_c, 14, 64, 90
20, 185699, Note_on_c, 14, 64, 0
20, 185700, Note_on_c, 14, 60, 90
20, 185759, Note_on_c, 14, 60, 0
20, 185760, Note_on_c, 14, 57, 90
20, 185819, Note_on_c, 14, 57, 0
20, 185820, Note_on_c, 14, 59, 90
20, 185879, Note_on_c, 14, 59, 0
20, 185880, Note_on_c, 14, 60, 90
20, 185939, Note_on_c, 14, 60, 0
20, 185940, Note_on_c, 14, 57, 90
20, 185999, Note_on_c, 14, 57, 0
20, 186000, Note_on_c, 14, 62, 90
20, 186059, Note_on_c, 14, 62, 0
20, 186060, Note_on_c, 14, 57, 90
20, 186119, Note_on_c, 14, 57, 0
20, 186120, Note_on_c, 14, 54, 90
20, 186179, Note_on_c, 14, 54, 0
20, 186180, Note_on_c, 14, 50, 90
20, 186239, Note_on_c, 14, 50, 0
20, 186240, Note_on_c, 14, 59, 90
20, 186299, Note_on_c, 14, 59, 0
20, 186300, Note_on_c, 14, 54, 90
20, 186359, Note_on_c, 14, 54, 0
20, 186360, Note_on_c, 14, 50, 90
20, 186419, Note_on_c, 14, 50, 0
20, 186420, Note_on_c, 14, 47, 90
20, 186479, Note_on_c, 14, 47, 0
20, 186480, Note_on_c, 14, 64, 90
20, 186539, Note_on_c, 14, 64, 0
20, 186540, Note_on_c, 14, 52, 90
20, 186629, Note_on_c, 14, 52, 0
20, 186630, Note_on_c, 14, 55, 90
20, 186659, Note_on_c, 14, 55, 0
20, 186660, Note_on_c, 14, 57, 90
20, 186689, Note_on_c, 14, 57, 0
20, 186690, Note_on_c, 14, 59, 90
20, 186719, Note_on_c, 14, 59, 0
20, 186720, Note_on_c, 14, 60, 90
20, 186779, Note_on_c, 14, 60, 0
20, 186780, Note_on_c, 14, 48, 90
20, 186869, Note_on_c, 14, 48, 0
20, 186870, Note_on_c, 14, 52, 90
20, 186899, Note_on_c, 14, 52, 0
20, 186900, Note_on_c, 14, 53, 90
20, 186929, Note_on_c, 14, 53, 0
20, 186930, Note_on_c, 14, 55, 90
20, 186959, Note_on_c, 14, 55, 0
20, 186960, Note_on_c, 14, 57, 90
20, 187019, Note_on_c, 14, 57, 0
20, 187020, Note_on_c, 14, 45, 90
20, 187139, Note_on_c, 14, 45, 0
20, 187140, Note_on_c, 14, 47, 90
20, 187169, Note_on_c, 14, 47, 0
20, 187170, Note_on_c, 14, 48, 90
20, 187199, Note_on_c, 14, 48, 0
20, 187200, Note_on_c, 14, 50, 90
20, 187259, Note_on_c, 14, 50, 0
20, 187260, Note_on_c, 14, 42, 90
20, 187319, Note_on_c, 14, 42, 0
20, 187320, Note_on_c, 14, 43, 90
20, 187379, Note_on_c, 14, 43, 0
20, 187380, Note_on_c, 14, 45, 90
20, 187439, Note_on_c, 14, 45, 0
20, 187440, Note_on_c, 14, 38, 90
20, 187499, Note_on_c, 14, 38, 0
20, 187500, Note_on_c, 14, 40, 90
20, 187559, Note_on_c, 14, 40, 0
20, 187560, Note_on_c, 14, 42, 90
20, 187619, Note_on_c, 14, 42, 0
20, 187620, Note_on_c, 14, 38, 90
20, 187679, Note_on_c, 14, 38, 0
20, 187680, Note_on_c, 14, 43, 90
20, 187739, Note_on_c, 14, 43, 0
20, 187740, Note_on_c, 14, 55, 90
20, 187799, Note_on_c, 14, 55, 0
20, 187860, Note_on_c, 14, 43, 90
20, 187919, Note_on_c, 14, 43, 0
20, 187920, Note_on_c, 14, 48, 90
20, 187979, Note_on_c, 14, 48, 0
20, 187980, Note_on_c, 14, 50, 90
20, 188039, Note_on_c, 14, 50, 0
20, 188040, Note_on_c, 14, 52, 90
20, 188099, Note_on_c, 14, 52, 0
20, 188100, Note_on_c, 14, 48, 90
20, 188159, Note_on_c, 14, 48, 0
20, 188160, Note_on_c, 14, 45, 90
20, 188219, Note_on_c, 14, 45, 0
20, 188220, Note_on_c, 14, 57, 90
20, 188279, Note_on_c, 14, 57, 0
20, 188340, Note_on_c, 14, 55, 90
20, 188399, Note_on_c, 14, 55, 0
20, 188400, Note_on_c, 14, 54, 90
20, 188459, Note_on_c, 14, 54, 0
20, 188460, Note_on_c, 14, 55, 90
20, 188519, Note_on_c, 14, 55, 0
20, 188520, Note_on_c, 14, 57, 90
20, 188579, Note_on_c, 14, 57, 0
20, 188580, Note_on_c, 14, 54, 90
20, 188639, Note_on_c, 14, 54, 0
20, 188640, Note_on_c, 14, 59, 90
20, 188699, Note_on_c, 14, 59, 0
20, 188700, Note_on_c, 14, 54, 90
20, 188759, Note_on_c, 14, 54, 0
20, 188760, Note_on_c, 14, 51, 90
20, 188819, Note_on_c, 14, 51, 0
20, 188820, Note_on_c, 14, 57, 90
20, 188879, Note_on_c, 14, 57, 0
20, 188880, Note_on_c, 14, 55, 90
20, 188939, Note_on_c, 14, 55, 0
20, 188940, Note_on_c, 14, 57, 90
20, 188999, Note_on_c, 14, 57, 0
20, 189000, Note_on_c, 14, 59, 90
20, 189059, Note_on_c, 14, 59, 0
20, 189060, Note_on_c, 14, 47, 90
20, 189119, Note_on_c, 14, 47, 0
20, 189120, Note_on_c, 14, 52, 90
20, 189179, Note_on_c, 14, 52, 0
20, 189180, Note_on_c, 14, 54, 90
20, 189239, Note_on_c, 14, 54, 0
20, 189240, Note_on_c, 14, 55, 90
20, 189299, Note_on_c, 14, 55, 0
20, 189300, Note_on_c, 14, 52, 90
20, 189359, Note_on_c, 14, 52, 0
20, 189360, Note_on_c, 14, 57, 90
20, 189419, Note_on_c, 14, 57, 0
20, 189420, Note_on_c, 14, 59, 90
20, 189479, Note_on_c, 14, 59, 0
20, 189480, Note_on_c, 14, 60, 90
20, 189539, Note_on_c, 14, 60, 0
20, 189540, Note_on_c, 14, 57, 90
20, 189599, Note_on_c, 14, 57, 0
20, 189600, Note_on_c, 14, 50, 90
20, 189659, Note_on_c, 14, 50, 0
20, 189660, Note_on_c, 14, 52, 90
20, 189719, Note_on_c, 14, 52, 0
20, 189720, Note_on_c, 14, 53, 90
20, 189779, Note_on_c, 14, 53, 0
20, 189780, Note_on_c, 14, 50, 90
20, 189839, Note_on_c, 14, 50, 0
20, 189840, Note_on_c, 14, 47, 90
20, 189899, Note_on_c, 14, 47, 0
20, 189900, Note_on_c, 14, 48, 90
20, 189959, Note_on_c, 14, 48, 0
20, 189960, Note_on_c, 14, 50, 90
20, 190019, Note_on_c, 14, 50, 0
20, 190020, Note_on_c, 14, 47, 90
20, 190079, Note_on_c, 14, 47, 0
20, 190080, Note_on_c, 14, 43, 90
20, 190139, Note_on_c, 14, 43, 0
20, 190140, Note_on_c, 14, 45, 90
20, 190199, Note_on_c, 14, 45, 0
20, 190200, Note_on_c, 14, 47, 90
20, 190259, Note_on_c, 14, 47, 0
20, 190260, Note_on_c, 14, 43, 90
20, 190319, Note_on_c, 14, 43, 0
20, 190320, Note_on_c, 14, 36, 90
20, 190379, Note_on_c, 14, 36, 0
20, 190380, Note_on_c, 14, 38, 90
20, 190439, Note_on_c, 14, 38, 0
20, 190440, Note_on_c, 14, 40, 90
20, 190499, Note_on_c, 14, 40, 0
20, 190500, Note_on_c, 14, 36, 90
20, 190559, Note_on_c, 14, 36, 0
20, 190560, Note_on_c, 14, 38, 90
20, 190619, Note_on_c, 14, 38, 0
20, 190620, Note_on_c, 14, 40, 90
20, 190679, Note_on_c, 14, 40, 0
20, 190680, Note_on_c, 14, 41, 90
20, 190739, Note_on_c, 14, 41, 0
20, 190740, Note_on_c, 14, 38, 90
20, 190799, Note_on_c, 14, 38, 0
20, 190800, Note_on_c, 14, 40, 90
20, 190859, Note_on_c, 14, 40, 0
20, 190860, Note_on_c, 14, 41, 90
20, 190919, Note_on_c, 14, 41, 0
20, 190920, Note_on_c, 14, 43, 90
20, 190979, Note_on_c, 14, 43, 0
20, 190980, Note_on_c, 14, 40, 90
20, 191039, Note_on_c, 14, 40, 0
20, 191040, Note_on_c, 14, 41, 90
20, 191099, Note_on_c, 14, 41, 0
20, 191100, Note_on_c, 14, 43, 90
20, 191159, Note_on_c, 14, 43, 0
20, 191160, Note_on_c, 14, 45, 90
20, 191219, Note_on_c, 14, 45, 0
20, 191220, Note_on_c, 14, 41, 90
20, 191279, Note_on_c, 14, 41, 0
20, 191280, Note_on_c, 14, 43, 90
20, 191339, Note_on_c, 14, 43, 0
20, 191340, Note_on_c, 14, 45, 90
20, 191399, Note_on_c, 14, 45, 0
20, 191400, Note_on_c, 14, 47, 90
20, 191459, Note_on_c, 14, 47, 0
20, 191460, Note_on_c, 14, 43, 90
20, 191519, Note_on_c, 14, 43, 0
20, 191520, Note_on_c, 14, 45, 90
20, 191579, Note_on_c, 14, 45, 0
20, 191580, Note_on_c, 14, 47, 90
20, 191639, Note_on_c, 14, 47, 0
20, 191640, Note_on_c, 14, 48, 90
20, 191699, Note_on_c, 14, 48, 0
20, 191700, Note_on_c, 14, 45, 90
20, 191759, Note_on_c, 14, 45, 0
20, 191760, Note_on_c, 14, 47, 90
20, 191819, Note_on_c, 14, 47, 0
20, 191820, Note_on_c, 14, 48, 90
20, 191879, Note_on_c, 14, 48, 0
20, 191880, Note_on_c, 14, 50, 90
20, 191939, Note_on_c, 14, 50, 0
20, 191940, Note_on_c, 14, 47, 90
20, 191999, Note_on_c, 14, 47, 0
20, 192000, Note_on_c, 14, 48, 90
20, 192059, Note_on_c, 14, 48, 0
20, 192060, Note_on_c, 14, 43, 90
20, 192119, Note_on_c, 14, 43, 0
20, 192120, Note_on_c, 14, 48, 90
20, 192299, Note_on_c, 14, 48, 0
20, 192300, Note_on_c, 14, 47, 90
20, 192329, Note_on_c, 14, 47, 0
20, 192330, Note_on_c, 14, 45, 90
20, 192359, Note_on_c, 14, 45, 0
20, 192360, Note_on_c, 14, 47, 90
20, 192419, Note_on_c, 14, 47, 0
20, 192420, Note_on_c, 14, 52, 90
20, 192479, Note_on_c, 14, 52, 0
20, 192480, Note_on_c, 14, 48, 90
20, 192539, Note_on_c, 14, 48, 0
20, 192540, Note_on_c, 14, 45, 90
20, 192599, Note_on_c, 14, 45, 0
20, 192600, Note_on_c, 14, 50, 90
20, 192659, Note_on_c, 14, 50, 0
20, 192660, Note_on_c, 14, 48, 90
20, 192719, Note_on_c, 14, 48, 0
20, 192720, Note_on_c, 14, 47, 90
20, 192779, Note_on_c, 14, 47, 0
20, 192780, Note_on_c, 14, 48, 90
20, 192809, Note_on_c, 14, 48, 0
20, 192810, Note_on_c, 14, 50, 90
20, 192839, Note_on_c, 14, 50, 0
20, 192840, Note_on_c, 14, 52, 90
20, 192899, Note_on_c, 14, 52, 0
20, 192900, Note_on_c, 14, 57, 90
20, 192959, Note_on_c, 14, 57, 0
20, 192960, Note_on_c, 14, 54, 90
20, 193019, Note_on_c, 14, 54, 0
20, 193020, Note_on_c, 14, 50, 90
20, 193079, Note_on_c, 14, 50, 0
20, 193080, Note_on_c, 14, 55, 90
20, 193139, Note_on_c, 14, 55, 0
20, 193140, Note_on_c, 14, 54, 90
20, 193199, Note_on_c, 14, 54, 0
20, 193200, Note_on_c, 14, 52, 90
20, 193259, Note_on_c, 14, 52, 0
20, 193260, Note_on_c, 14, 50, 90
20, 193289, Note_on_c, 14, 50, 0
20, 193290, Note_on_c, 14, 52, 90
20, 193319, Note_on_c, 14, 52, 0
20, 193320, Note_on_c, 14, 54, 90
20, 193379, Note_on_c, 14, 54, 0
20, 193380, Note_on_c, 14, 52, 90
20, 193409, Note_on_c, 14, 52, 0
20, 193410, Note_on_c, 14, 54, 90
20, 193439, Note_on_c, 14, 54, 0
20, 193440, Note_on_c, 14, 55, 90
20, 193499, Note_on_c, 14, 55, 0
20, 193500, Note_on_c, 14, 54, 90
20, 193559, Note_on_c, 14, 54, 0
20, 193560, Note_on_c, 14, 52, 90
20, 193619, Note_on_c, 14, 52, 0
20, 193620, Note_on_c, 14, 50, 90
20, 193679, Note_on_c, 14, 50, 0
20, 193680, Note_on_c, 14, 48, 90
20, 193739, Note_on_c, 14, 48, 0
20, 193740, Note_on_c, 14, 47, 90
20, 193769, Note_on_c, 14, 47, 0
20, 193770, Note_on_c, 14, 48, 90
20, 193799, Note_on_c, 14, 48, 0
20, 193800, Note_on_c, 14, 50, 90
20, 193859, Note_on_c, 14, 50, 0
20, 193860, Note_on_c, 14, 48, 90
20, 193889, Note_on_c, 14, 48, 0
20, 193890, Note_on_c, 14, 50, 90
20, 193919, Note_on_c, 14, 50, 0
20, 193920, Note_on_c, 14, 52, 90
20, 193979, Note_on_c, 14, 52, 0
20, 193980, Note_on_c, 14, 48, 90
20, 194039, Note_on_c, 14, 48, 0
20, 194040, Note_on_c, 14, 50, 90
20, 194099, Note_on_c, 14, 50, 0
20, 194100, Note_on_c, 14, 38, 90
20, 194159, Note_on_c, 14, 38, 0
20, 194160, Note_on_c, 14, 43, 100
20, 196140, Note_on_c, 14, 43, 0
20, 196140, Note_on_c, 14, 45, 90
20, 196199, Note_on_c, 14, 45, 0
20, 196200, Note_on_c, 14, 47, 90
20, 196259, Note_on_c, 14, 47, 0
20, 196260, Note_on_c, 14, 43, 90
20, 196319, Note_on_c, 14, 43, 0
20, 196320, Note_on_c, 14, 48, 90
20, 196379, Note_on_c, 14, 48, 0
20, 196380, Note_on_c, 14, 50, 90
20, 196439, Note_on_c, 14, 50, 0
20, 196440, Note_on_c, 14, 52, 90
20, 196499, Note_on_c, 14, 52, 0
20, 196500, Note_on_c, 14, 48, 90
20, 196559, Note_on_c, 14, 48, 0
20, 196560, Note_on_c, 14, 45, 90
20, 196619, Note_on_c, 14, 45, 0
20, 196620, Note_on_c, 14, 47, 90
20, 196679, Note_on_c, 14, 47, 0
20, 196680, Note_on_c, 14, 48, 90
20, 196739, Note_on_c, 14, 48, 0
20, 196740, Note_on_c, 14, 45, 90
20, 196799, Note_on_c, 14, 45, 0
20, 196800, Note_on_c, 14, 50, 90
20, 196859, Note_on_c, 14, 50, 0
20, 196860, Note_on_c, 14, 52, 90
20, 196919, Note_on_c, 14, 52, 0
20, 196920, Note_on_c, 14, 54, 90
20, 196979, Note_on_c, 14, 54, 0
20, 196980, Note_on_c, 14, 50, 90
20, 197039, Note_on_c, 14, 50, 0
20, 197040, Note_on_c, 14, 55, 90
20, 197069, Note_on_c, 14, 55, 0
20, 197070, Note_on_c, 14, 54, 90
20, 197099, Note_on_c, 14, 54, 0
20, 197100, Note_on_c, 14, 55, 90
20, 197129, Note_on_c, 14, 55, 0
20, 197130, Note_on_c, 14, 57, 90
20, 197159, Note_on_c, 14, 57, 0
20, 197160, Note_on_c, 14, 59, 90
20, 197189, Note_on_c, 14, 59, 0
20, 197190, Note_on_c, 14, 57, 90
20, 197219, Note_on_c, 14, 57, 0
20, 197220, Note_on_c, 14, 55, 90
20, 197249, Note_on_c, 14, 55, 0
20, 197250, Note_on_c, 14, 54, 90
20, 197279, Note_on_c, 14, 54, 0
20, 197280, Note_on_c, 14, 52, 90
20, 197309, Note_on_c, 14, 52, 0
20, 197310, Note_on_c, 14, 50, 90
20, 197339, Note_on_c, 14, 50, 0
20, 197340, Note_on_c, 14, 52, 90
20, 197369, Note_on_c, 14, 52, 0
20, 197370, Note_on_c, 14, 54, 90
20, 197399, Note_on_c, 14, 54, 0
20, 197400, Note_on_c, 14, 55, 90
20, 197429, Note_on_c, 14, 55, 0
20, 197430, Note_on_c, 14, 54, 90
20, 197459, Note_on_c, 14, 54, 0
20, 197460, Note_on_c, 14, 52, 90
20, 197489, Note_on_c, 14, 52, 0
20, 197490, Note_on_c, 14, 50, 90
20, 197519, Note_on_c, 14, 50, 0
20, 197520, Note_on_c, 14, 49, 90
20, 197759, Note_on_c, 14, 49, 0
20, 197760, Note_on_c, 14, 50, 90
20, 197999, Note_on_c, 14, 50, 0
20, 198000, Note_on_c, 14, 43, 90
20, 198240, Note_on_c, 14, 43, 0
20, 198480, Note_on_c, 14, 47, 100
20, 199200, Note_on_c, 14, 47, 0
20, 199200, Note_on_c, 14, 44, 100
20, 199680, Note_on_c, 14, 44, 0
20, 199680, Note_on_c, 14, 45, 100
20, 200640, Note_on_c, 14, 45, 0
20, 200640, Note_on_c, 14, 47, 100
20, 200760, Note_on_c, 14, 47, 0
20, 200760, Note_on_c, 14, 52, 100
20, 200880, Note_on_c, 14, 52, 0
20, 201000, Note_on_c, 14, 50, 100
20, 201120, Note_on_c, 14, 50, 0
20, 201120, Note_on_c, 14, 43, 100
20, 201360, Note_on_c, 14, 43, 0
20, 201900, Note_on_c, 14, 55, 90
20, 201989, Note_on_c, 14, 55, 0
20, 201990, Note_on_c, 14, 59, 90
20, 202020, Note_on_c, 14, 59, 0
20, 202020, Note_on_c, 14, 62, 90
20, 202080, Note_on_c, 14, 62, 0
20, 202080, Note_on_c, 14, 62, 90
20, 202169, Note_on_c, 14, 62, 0
20, 202170, Note_on_c, 14, 61, 90
20, 202200, Note_on_c, 14, 61, 0
20, 202200, Note_on_c, 14, 62, 90
20, 202260, Note_on_c, 14, 62, 0
20, 202260, Note_on_c, 14, 55, 90
20, 202349, Note_on_c, 14, 55, 0
20, 202350, Note_on_c, 14, 52, 90
20, 202380, Note_on_c, 14, 52, 0
20, 202380, Note_on_c, 14, 57, 90
20, 202440, Note_on_c, 14, 57, 0
20, 202440, Note_on_c, 14, 50, 90
20, 202529, Note_on_c, 14, 50, 0
20, 202530, Note_on_c, 14, 52, 90
20, 202560, Note_on_c, 14, 52, 0
20, 202560, Note_on_c, 14, 54, 90
20, 202620, Note_on_c, 14, 54, 0
20, 202620, Note_on_c, 14, 55, 90
20, 202709, Note_on_c, 14, 55, 0
20, 202710, Note_on_c, 14, 54, 90
20, 202740, Note_on_c, 14, 54, 0
20, 202740, Note_on_c, 14, 55, 90
20, 202800, Note_on_c, 14, 55, 0
20, 202800, Note_on_c, 14, 48, 90
20, 202889, Note_on_c, 14, 48, 0
20, 202890, Note_on_c, 14, 47, 90
20, 202920, Note_on_c, 14, 47, 0
20, 202920, Note_on_c, 14, 48, 90
20, 202980, Note_on_c, 14, 48, 0
20, 202980, Note_on_c, 14, 50, 90
20, 203069, Note_on_c, 14, 50, 0
20, 203070, Note_on_c, 14, 48, 90
20, 203100, Note_on_c, 14, 48, 0
20, 203100, Note_on_c, 14, 50, 90
20, 203160, Note_on_c, 14, 50, 0
20, 203160, Note_on_c, 14, 43, 90
20, 203340, Note_on_c, 14, 43, 0
20, 204420, Note_on_c, 14, 43, 90
20, 204509, Note_on_c, 14, 43, 0
20, 204510, Note_on_c, 14, 47, 90
20, 204539, Note_on_c, 14, 47, 0
20, 204540, Note_on_c, 14, 52, 90
20, 204599, Note_on_c, 14, 52, 0
20, 204600, Note_on_c, 14, 52, 90
20, 204689, Note_on_c, 14, 52, 0
20, 204690, Note_on_c, 14, 50, 90
20, 204719, Note_on_c, 14, 50, 0
20, 204720, Note_on_c, 14, 52, 90
20, 204779, Note_on_c, 14, 52, 0
20, 204780, Note_on_c, 14, 47, 90
20, 204869, Note_on_c, 14, 47, 0
20, 204870, Note_on_c, 14, 50, 90
20, 204899, Note_on_c, 14, 50, 0
20, 204900, Note_on_c, 14, 54, 90
20, 204959, Note_on_c, 14, 54, 0
20, 204960, Note_on_c, 14, 54, 90
20, 205049, Note_on_c, 14, 54, 0
20, 205050, Note_on_c, 14, 52, 90
20, 205079, Note_on_c, 14, 52, 0
20, 205080, Note_on_c, 14, 54, 90
20, 205139, Note_on_c, 14, 54, 0
20, 205140, Note_on_c, 14, 55, 90
20, 205229, Note_on_c, 14, 55, 0
20, 205230, Note_on_c, 14, 54, 90
20, 205259, Note_on_c, 14, 54, 0
20, 205260, Note_on_c, 14, 52, 90
20, 205319, Note_on_c, 14, 52, 0
20, 205320, Note_on_c, 14, 54, 90
20, 205409, Note_on_c, 14, 54, 0
20, 205410, Note_on_c, 14, 57, 90
20, 205439, Note_on_c, 14, 57, 0
20, 205440, Note_on_c, 14, 56, 90
20, 205499, Note_on_c, 14, 56, 0
20, 205500, Note_on_c, 14, 57, 90
20, 205619, Note_on_c, 14, 57, 0
20, 205620, Note_on_c, 14, 45, 90
20, 205679, Note_on_c, 14, 45, 0
20, 205680, Note_on_c, 14, 52, 90
20, 205859, Note_on_c, 14, 52, 0
20, 206940, Note_on_c, 14, 52, 90
20, 207029, Note_on_c, 14, 52, 0
20, 207030, Note_on_c, 14, 50, 90
20, 207059, Note_on_c, 14, 50, 0
20, 207060, Note_on_c, 14, 52, 90
20, 207119, Note_on_c, 14, 52, 0
20, 207120, Note_on_c, 14, 48, 90
20, 207209, Note_on_c, 14, 48, 0
20, 207210, Note_on_c, 14, 52, 90
20, 207239, Note_on_c, 14, 52, 0
20, 207240, Note_on_c, 14, 55, 90
20, 207299, Note_on_c, 14, 55, 0
20, 207300, Note_on_c, 14, 55, 90
20, 207389, Note_on_c, 14, 55, 0
20, 207390, Note_on_c, 14, 54, 90
20, 207419, Note_on_c, 14, 54, 0
20, 207420, Note_on_c, 14, 55, 90
20, 207479, Note_on_c, 14, 55, 0
20, 207480, Note_on_c, 14, 43, 90
20, 207569, Note_on_c, 14, 43, 0
20, 207570, Note_on_c, 14, 47, 90
20, 207599, Note_on_c, 14, 47, 0
20, 207600, Note_on_c, 14, 50, 90
20, 207659, Note_on_c, 14, 50, 0
20, 207660, Note_on_c, 14, 50, 90
20, 207749, Note_on_c, 14, 50, 0
20, 207750, Note_on_c, 14, 49, 90
20, 207779, Note_on_c, 14, 49, 0
20, 207780, Note_on_c, 14, 50, 90
20, 207839, Note_on_c, 14, 50, 0
20, 207840, Note_on_c, 14, 40, 90
20, 207929, Note_on_c, 14, 40, 0
20, 207930, Note_on_c, 14, 49, 90
20, 207959, Note_on_c, 14, 49, 0
20, 207960, Note_on_c, 14, 50, 90
20, 208019, Note_on_c, 14, 50, 0
20, 208020, Note_on_c, 14, 43, 90
20, 208109, Note_on_c, 14, 43, 0
20, 208110, Note_on_c, 14, 40, 90
20, 208139, Note_on_c, 14, 40, 0
20, 208140, Note_on_c, 14, 45, 90
20, 208199, Note_on_c, 14, 45, 0
20, 208200, Note_on_c, 14, 38, 90
20, 208379, Note_on_c, 14, 38, 0
20, 209460, Note_on_c, 14, 52, 90
20, 209549, Note_on_c, 14, 52, 0
20, 209550, Note_on_c, 14, 54, 90
20, 209579, Note_on_c, 14, 54, 0
20, 209580, Note_on_c, 14, 55, 90
20, 209639, Note_on_c, 14, 55, 0
20, 209640, Note_on_c, 14, 57, 90
20, 209729, Note_on_c, 14, 57, 0
20, 209730, Note_on_c, 14, 54, 90
20, 209759, Note_on_c, 14, 54, 0
20, 209760, Note_on_c, 14, 59, 90
20, 209819, Note_on_c, 14, 59, 0
20, 209820, Note_on_c, 14, 55, 90
20, 209909, Note_on_c, 14, 55, 0
20, 209910, Note_on_c, 14, 52, 90
20, 209939, Note_on_c, 14, 52, 0
20, 209940, Note_on_c, 14, 57, 90
20, 209999, Note_on_c, 14, 57, 0
20, 210000, Note_on_c, 14, 54, 90
20, 210089, Note_on_c, 14, 54, 0
20, 210090, Note_on_c, 14, 50, 90
20, 210119, Note_on_c, 14, 50, 0
20, 210120, Note_on_c, 14, 55, 90
20, 210179, Note_on_c, 14, 55, 0
20, 210180, Note_on_c, 14, 48, 90
20, 210269, Note_on_c, 14, 48, 0
20, 210270, Note_on_c, 14, 52, 90
20, 210299, Note_on_c, 14, 52, 0
20, 210300, Note_on_c, 14, 55, 90
20, 210359, Note_on_c, 14, 55, 0
20, 210360, Note_on_c, 14, 55, 90
20, 210449, Note_on_c, 14, 55, 0
20, 210450, Note_on_c, 14, 54, 90
20, 210479, Note_on_c, 14, 54, 0
20, 210480, Note_on_c, 14, 55, 90
20, 210539, Note_on_c, 14, 55, 0
20, 210540, Note_on_c, 14, 48, 90
20, 210629, Note_on_c, 14, 48, 0
20, 210630, Note_on_c, 14, 45, 90
20, 210659, Note_on_c, 14, 45, 0
20, 210660, Note_on_c, 14, 50, 90
20, 210719, Note_on_c, 14, 50, 0
20, 210720, Note_on_c, 14, 43, 90
20, 210900, Note_on_c, 14, 43, 0
20, 210900, End_track
21, 0, Start_track
21, 0, MIDI_port, 0
21, 0, Title_t, "clave h"
21, 0, Program_c, 15, 6
21, 0, Control_c, 15, 7, 127
21, 0, Control_c, 15, 10, 85
21, 0, Note_on_c, 15, 74, 87
21, 0, Note_on_c, 15, 71, 87
21, 0, Note_on_c, 15, 67, 87
21, 120, Note_on_c, 15, 67, 0
21, 120, Note_on_c, 15, 71, 0
21, 120, Note_on_c, 15, 74, 0
21, 120, Note_on_c, 15, 62, 87
21, 120, Note_on_c, 15, 66, 87
21, 180, Note_on_c, 15, 66, 0
21, 180, Note_on_c, 15, 62, 0
21, 180, Note_on_c, 15, 71, 87
21, 180, Note_on_c, 15, 62, 87
21, 180, Note_on_c, 15, 67, 87
21, 300, Note_on_c, 15, 67, 0
21, 300, Note_on_c, 15, 62, 0
21, 300, Note_on_c, 15, 71, 0
21, 300, Note_on_c, 15, 67, 87
21, 300, Note_on_c, 15, 64, 87
21, 360, Note_on_c, 15, 64, 0
21, 360, Note_on_c, 15, 67, 0
21, 360, Note_on_c, 15, 59, 87
21, 360, Note_on_c, 15, 64, 87
21, 360, Note_on_c, 15, 67, 87
21, 480, Note_on_c, 15, 67, 0
21, 480, Note_on_c, 15, 64, 0
21, 480, Note_on_c, 15, 59, 0
21, 480, Note_on_c, 15, 66, 87
21, 480, Note_on_c, 15, 62, 87
21, 540, Note_on_c, 15, 62, 0
21, 540, Note_on_c, 15, 66, 0
21, 540, Note_on_c, 15, 59, 87
21, 540, Note_on_c, 15, 64, 87
21, 540, Note_on_c, 15, 67, 87
21, 660, Note_on_c, 15, 67, 0
21, 660, Note_on_c, 15, 64, 0
21, 660, Note_on_c, 15, 59, 0
21, 660, Note_on_c, 15, 64, 87
21, 660, Note_on_c, 15, 60, 87
21, 720, Note_on_c, 15, 60, 0
21, 720, Note_on_c, 15, 64, 0
21, 720, Note_on_c, 15, 67, 87
21, 720, Note_on_c, 15, 69, 87
21, 840, Note_on_c, 15, 69, 0
21, 840, Note_on_c, 15, 67, 0
21, 840, Note_on_c, 15, 66, 87
21, 900, Note_on_c, 15, 66, 0
21, 900, Note_on_c, 15, 69, 87
21, 900, Note_on_c, 15, 74, 87
21, 900, Note_on_c, 15, 66, 87
21, 1020, Note_on_c, 15, 66, 0
21, 1020, Note_on_c, 15, 74, 0
21, 1020, Note_on_c, 15, 69, 0
21, 1020, Note_on_c, 15, 66, 87
21, 1020, Note_on_c, 15, 72, 87
21, 1080, Note_on_c, 15, 72, 0
21, 1080, Note_on_c, 15, 66, 0
21, 1080, Note_on_c, 15, 71, 87
21, 1080, Note_on_c, 15, 62, 87
21, 1080, Note_on_c, 15, 69, 87
21, 1200, Note_on_c, 15, 69, 0
21, 1200, Note_on_c, 15, 62, 0
21, 1200, Note_on_c, 15, 71, 0
21, 1200, Note_on_c, 15, 64, 87
21, 1260, Note_on_c, 15, 64, 0
21, 1260, Note_on_c, 15, 62, 87
21, 1260, Note_on_c, 15, 67, 87
21, 1380, Note_on_c, 15, 67, 0
21, 1380, Note_on_c, 15, 62, 0
21, 1380, Note_on_c, 15, 65, 87
21, 1440, Note_on_c, 15, 65, 0
21, 1440, Note_on_c, 15, 67, 87
21, 1440, Note_on_c, 15, 62, 87
21, 1560, Note_on_c, 15, 62, 0
21, 1560, Note_on_c, 15, 67, 0
21, 1560, Note_on_c, 15, 69, 87
21, 1560, Note_on_c, 15, 60, 87
21, 1620, Note_on_c, 15, 60, 0
21, 1620, Note_on_c, 15, 69, 0
21, 1620, Note_on_c, 15, 60, 87
21, 1620, Note_on_c, 15, 66, 87
21, 1740, Note_on_c, 15, 66, 0
21, 1740, Note_on_c, 15, 60, 0
21, 1740, Note_on_c, 15, 69, 87
21, 1740, Note_on_c, 15, 64, 87
21, 1800, Note_on_c, 15, 64, 0
21, 1800, Note_on_c, 15, 69, 0
21, 1800, Note_on_c, 15, 66, 87
21, 1800, Note_on_c, 15, 72, 87
21, 1920, Note_on_c, 15, 72, 0
21, 1920, Note_on_c, 15, 66, 0
21, 1920, Note_on_c, 15, 67, 87
21, 1920, Note_on_c, 15, 71, 87
21, 1980, Note_on_c, 15, 71, 0
21, 1980, Note_on_c, 15, 67, 0
21, 1980, Note_on_c, 15, 71, 87
21, 1980, Note_on_c, 15, 64, 87
21, 2100, Note_on_c, 15, 64, 0
21, 2100, Note_on_c, 15, 71, 0
21, 2100, Note_on_c, 15, 67, 87
21, 2100, Note_on_c, 15, 62, 87
21, 2160, Note_on_c, 15, 62, 0
21, 2160, Note_on_c, 15, 67, 0
21, 2160, Note_on_c, 15, 62, 87
21, 2160, Note_on_c, 15, 71, 87
21, 2280, Note_on_c, 15, 71, 0
21, 2280, Note_on_c, 15, 62, 0
21, 2340, Note_on_c, 15, 72, 87
21, 2340, Note_on_c, 15, 69, 87
21, 2460, Note_on_c, 15, 69, 0
21, 2460, Note_on_c, 15, 72, 0
21, 2460, End_track
22, 0, Start_track
22, 0, MIDI_port, 0
22, 0, Title_t, "clave l"
22, 0, Program_c, 15, 6
22, 0, Control_c, 15, 7, 127
22, 0, Control_c, 15, 10, 86
22, 0, Note_on_c, 15, 55, 87
22, 120, Note_on_c, 15, 55, 0
22, 120, Note_on_c, 15, 54, 87
22, 180, Note_on_c, 15, 54, 0
22, 180, Note_on_c, 15, 54, 87
22, 300, Note_on_c, 15, 54, 0
22, 300, Note_on_c, 15, 52, 87
22, 360, Note_on_c, 15, 52, 0
22, 360, Note_on_c, 15, 52, 87
22, 480, Note_on_c, 15, 52, 0
22, 480, Note_on_c, 15, 50, 87
22, 540, Note_on_c, 15, 50, 0
22, 540, Note_on_c, 15, 50, 87
22, 660, Note_on_c, 15, 50, 0
22, 660, Note_on_c, 15, 48, 87
22, 720, Note_on_c, 15, 48, 0
22, 720, Note_on_c, 15, 48, 87
22, 840, Note_on_c, 15, 48, 0
22, 840, Note_on_c, 15, 45, 87
22, 900, Note_on_c, 15, 45, 0
22, 900, Note_on_c, 15, 50, 87
22, 1020, Note_on_c, 15, 50, 0
22, 1020, Note_on_c, 15, 38, 87
22, 1080, Note_on_c, 15, 38, 0
22, 1080, Note_on_c, 15, 43, 87
22, 1200, Note_on_c, 15, 43, 0
22, 1260, Note_on_c, 15, 47, 87
22, 1380, Note_on_c, 15, 47, 0
22, 1440, Note_on_c, 15, 48, 87
22, 1560, Note_on_c, 15, 48, 0
22, 1620, Note_on_c, 15, 45, 87
22, 1740, Note_on_c, 15, 45, 0
22, 1800, Note_on_c, 15, 47, 87
22, 1920, Note_on_c, 15, 47, 0
22, 1980, Note_on_c, 15, 43, 87
22, 2100, Note_on_c, 15, 43, 0
22, 2160, Note_on_c, 15, 40, 87
22, 2280, Note_on_c, 15, 40, 0
22, 2280, Note_on_c, 15, 42, 87
22, 2340, Note_on_c, 15, 42, 0
22, 2340, Note_on_c, 15, 43, 87
22, 2460, Note_on_c, 15, 43, 0
22, 2460, Note_on_c, 15, 36, 87
22, 2520, Note_on_c, 15, 36, 0
22, 2520, Note_on_c, 15, 38, 87
22, 2610, Note_on_c, 15, 38, 0
22, 2610, Note_on_c, 15, 45, 87
22, 2640, Note_on_c, 15, 45, 0
22, 2640, Note_on_c, 15, 50, 87
22, 2700, Note_on_c, 15, 50, 0
22, 2700, Note_on_c, 15, 50, 87
22, 2790, Note_on_c, 15, 50, 0
22, 2790, Note_on_c, 15, 48, 87
22, 2820, Note_on_c, 15, 48, 0
22, 2820, Note_on_c, 15, 50, 87
22, 2880, Note_on_c, 15, 50, 0
22, 2880, Note_on_c, 15, 43, 87
22, 2970, Note_on_c, 15, 43, 0
22, 2970, Note_on_c, 15, 47, 87
22, 3000, Note_on_c, 15, 47, 0
22, 3000, Note_on_c, 15, 50, 87
22, 3060, Note_on_c, 15, 50, 0
22, 3060, Note_on_c, 15, 50, 87
22, 3150, Note_on_c, 15, 50, 0
22, 3150, Note_on_c, 15, 48, 87
22, 3180, Note_on_c, 15, 48, 0
22, 3180, Note_on_c, 15, 50, 87
22, 3240, Note_on_c, 15, 50, 0
22, 3240, Note_on_c, 15, 40, 87
22, 3330, Note_on_c, 15, 40, 0
22, 3330, Note_on_c, 15, 47, 87
22, 3360, Note_on_c, 15, 47, 0
22, 3360, Note_on_c, 15, 52, 87
22, 3420, Note_on_c, 15, 52, 0
22, 3420, Note_on_c, 15, 52, 87
22, 3510, Note_on_c, 15, 52, 0
22, 3510, Note_on_c, 15, 50, 87
22, 3540, Note_on_c, 15, 50, 0
22, 3540, Note_on_c, 15, 52, 87
22, 3600, Note_on_c, 15, 52, 0
22, 3600, Note_on_c, 15, 45, 87
22, 3690, Note_on_c, 15, 45, 0
22, 3690, Note_on_c, 15, 49, 87
22, 3720, Note_on_c, 15, 49, 0
22, 3720, Note_on_c, 15, 52, 87
22, 3780, Note_on_c, 15, 52, 0
22, 3780, Note_on_c, 15, 52, 87
22, 3870, Note_on_c, 15, 52, 0
22, 3870, Note_on_c, 15, 50, 87
22, 3900, Note_on_c, 15, 50, 0
22, 3900, Note_on_c, 15, 52, 87
22, 3960, Note_on_c, 15, 52, 0
22, 3960, Note_on_c, 15, 49, 87
22, 4050, Note_on_c, 15, 49, 0
22, 4050, Note_on_c, 15, 52, 87
22, 4080, Note_on_c, 15, 52, 0
22, 4080, Note_on_c, 15, 55, 87
22, 4140, Note_on_c, 15, 55, 0
22, 4140, Note_on_c, 15, 55, 87
22, 4230, Note_on_c, 15, 55, 0
22, 4230, Note_on_c, 15, 54, 87
22, 4260, Note_on_c, 15, 54, 0
22, 4260, Note_on_c, 15, 55, 87
22, 4320, Note_on_c, 15, 55, 0
22, 4320, Note_on_c, 15, 52, 87
22, 4410, Note_on_c, 15, 52, 0
22, 4410, Note_on_c, 15, 55, 87
22, 4440, Note_on_c, 15, 55, 0
22, 4440, Note_on_c, 15, 61, 87
22, 4500, Note_on_c, 15, 61, 0
22, 4500, Note_on_c, 15, 61, 87
22, 4590, Note_on_c, 15, 61, 0
22, 4590, Note_on_c, 15, 59, 87
22, 4620, Note_on_c, 15, 59, 0
22, 4620, Note_on_c, 15, 61, 87
22, 4680, Note_on_c, 15, 61, 0
22, 4680, Note_on_c, 15, 62, 87
22, 4800, Note_on_c, 15, 62, 0
22, 4800, Note_on_c, 15, 59, 87
22, 4860, Note_on_c, 15, 59, 0
22, 4860, Note_on_c, 15, 57, 87
22, 4980, Note_on_c, 15, 57, 0
22, 4980, Note_on_c, 15, 55, 87
22, 5040, Note_on_c, 15, 55, 0
22, 5040, Note_on_c, 15, 54, 87
22, 5160, Note_on_c, 15, 54, 0
22, 5160, Note_on_c, 15, 55, 87
22, 5220, Note_on_c, 15, 55, 0
22, 5220, Note_on_c, 15, 54, 87
22, 5340, Note_on_c, 15, 54, 0
22, 5340, Note_on_c, 15, 52, 87
22, 5400, Note_on_c, 15, 52, 0
22, 5400, Note_on_c, 15, 54, 87
22, 5520, Note_on_c, 15, 54, 0
22, 5520, Note_on_c, 15, 59, 87
22, 5580, Note_on_c, 15, 59, 0
22, 5580, Note_on_c, 15, 57, 87
22, 5700, Note_on_c, 15, 57, 0
22, 5700, Note_on_c, 15, 45, 87
22, 5760, Note_on_c, 15, 45, 0
22, 5760, Note_on_c, 15, 50, 87
22, 5880, Note_on_c, 15, 50, 0
22, 5880, Note_on_c, 15, 48, 87
22, 5940, Note_on_c, 15, 48, 0
22, 5940, Note_on_c, 15, 47, 87
22, 6060, Note_on_c, 15, 47, 0
22, 6060, Note_on_c, 15, 45, 87
22, 6120, Note_on_c, 15, 45, 0
22, 6120, Note_on_c, 15, 43, 87
22, 6300, Note_on_c, 15, 43, 0
22, 7200, Note_on_c, 15, 55, 87
22, 7320, Note_on_c, 15, 55, 0
22, 7320, Note_on_c, 15, 54, 87
22, 7380, Note_on_c, 15, 54, 0
22, 7380, Note_on_c, 15, 54, 87
22, 7500, Note_on_c, 15, 54, 0
22, 7500, Note_on_c, 15, 52, 87
22, 7560, Note_on_c, 15, 52, 0
22, 7560, Note_on_c, 15, 52, 87
22, 7680, Note_on_c, 15, 52, 0
22, 8640, Note_on_c, 15, 52, 87
22, 8760, Note_on_c, 15, 52, 0
22, 8760, Note_on_c, 15, 50, 87
22, 8820, Note_on_c, 15, 50, 0
22, 8820, Note_on_c, 15, 50, 87
22, 8940, Note_on_c, 15, 50, 0
22, 8940, Note_on_c, 15, 48, 87
22, 9000, Note_on_c, 15, 48, 0
22, 9000, Note_on_c, 15, 48, 87
22, 9120, Note_on_c, 15, 48, 0
22, 10080, Note_on_c, 15, 48, 87
22, 10200, Note_on_c, 15, 48, 0
22, 10260, Note_on_c, 15, 45, 87
22, 10380, Note_on_c, 15, 45, 0
22, 10440, Note_on_c, 15, 47, 87
22, 10560, Note_on_c, 15, 47, 0
22, 10620, Note_on_c, 15, 43, 87
22, 10740, Note_on_c, 15, 43, 0
22, 10800, Note_on_c, 15, 40, 87
22, 10920, Note_on_c, 15, 40, 0
22, 10920, Note_on_c, 15, 42, 87
22, 10980, Note_on_c, 15, 42, 0
22, 10980, Note_on_c, 15, 43, 87
22, 11100, Note_on_c, 15, 43, 0
22, 11100, Note_on_c, 15, 36, 87
22, 11160, Note_on_c, 15, 36, 0
22, 11160, Note_on_c, 15, 38, 87
22, 11280, Note_on_c, 15, 38, 0
22, 11280, Note_on_c, 15, 50, 87
22, 11340, Note_on_c, 15, 50, 0
22, 11340, Note_on_c, 15, 52, 87
22, 11460, Note_on_c, 15, 52, 0
22, 11460, Note_on_c, 15, 54, 87
22, 11520, Note_on_c, 15, 54, 0
22, 11520, Note_on_c, 15, 55, 87
22, 11640, Note_on_c, 15, 55, 0
22, 11640, Note_on_c, 15, 43, 87
22, 11700, Note_on_c, 15, 43, 0
22, 11700, Note_on_c, 15, 45, 87
22, 11820, Note_on_c, 15, 45, 0
22, 11820, Note_on_c, 15, 47, 87
22, 11880, Note_on_c, 15, 47, 0
22, 11880, Note_on_c, 15, 48, 87
22, 12000, Note_on_c, 15, 48, 0
22, 12000, Note_on_c, 15, 60, 87
22, 12060, Note_on_c, 15, 60, 0
22, 12060, Note_on_c, 15, 59, 87
22, 12180, Note_on_c, 15, 59, 0
22, 12180, Note_on_c, 15, 52, 87
22, 12240, Note_on_c, 15, 52, 0
22, 12240, Note_on_c, 15, 57, 87
22, 12360, Note_on_c, 15, 57, 0
22, 12360, Note_on_c, 15, 55, 87
22, 12420, Note_on_c, 15, 55, 0
22, 12420, Note_on_c, 15, 54, 87
22, 12540, Note_on_c, 15, 54, 0
22, 12540, Note_on_c, 15, 47, 87
22, 12600, Note_on_c, 15, 47, 0
22, 12600, Note_on_c, 15, 52, 87
22, 12720, Note_on_c, 15, 52, 0
22, 12960, Note_on_c, 15, 40, 87
22, 13080, Note_on_c, 15, 40, 0
22, 13320, Note_on_c, 15, 52, 87
22, 13440, Note_on_c, 15, 52, 0
22, 13680, Note_on_c, 15, 40, 87
22, 13800, Note_on_c, 15, 40, 0
22, 14040, Note_on_c, 15, 48, 87
22, 14130, Note_on_c, 15, 48, 0
22, 14130, Note_on_c, 15, 52, 87
22, 14160, Note_on_c, 15, 52, 0
22, 14160, Note_on_c, 15, 57, 87
22, 14220, Note_on_c, 15, 57, 0
22, 14220, Note_on_c, 15, 57, 87
22, 14310, Note_on_c, 15, 57, 0
22, 14310, Note_on_c, 15, 55, 87
22, 14340, Note_on_c, 15, 55, 0
22, 14340, Note_on_c, 15, 57, 87
22, 14400, Note_on_c, 15, 57, 0
22, 14400, Note_on_c, 15, 47, 87
22, 14490, Note_on_c, 15, 47, 0
22, 14490, Note_on_c, 15, 52, 87
22, 14520, Note_on_c, 15, 52, 0
22, 14520, Note_on_c, 15, 59, 87
22, 14580, Note_on_c, 15, 59, 0
22, 14580, Note_on_c, 15, 59, 87
22, 14670, Note_on_c, 15, 59, 0
22, 14670, Note_on_c, 15, 57, 87
22, 14700, Note_on_c, 15, 57, 0
22, 14700, Note_on_c, 15, 59, 87
22, 14760, Note_on_c, 15, 59, 0
22, 14760, Note_on_c, 15, 46, 87
22, 14850, Note_on_c, 15, 46, 0
22, 14850, Note_on_c, 15, 52, 87
22, 14880, Note_on_c, 15, 52, 0
22, 14880, Note_on_c, 15, 61, 87
22, 14940, Note_on_c, 15, 61, 0
22, 14940, Note_on_c, 15, 61, 87
22, 15030, Note_on_c, 15, 61, 0
22, 15030, Note_on_c, 15, 59, 87
22, 15060, Note_on_c, 15, 59, 0
22, 15060, Note_on_c, 15, 61, 87
22, 15120, Note_on_c, 15, 61, 0
22, 15120, Note_on_c, 15, 45, 87
22, 15240, Note_on_c, 15, 45, 0
22, 15240, Note_on_c, 15, 57, 87
22, 15300, Note_on_c, 15, 57, 0
22, 15300, Note_on_c, 15, 55, 87
22, 15420, Note_on_c, 15, 55, 0
22, 15420, Note_on_c, 15, 54, 87
22, 15480, Note_on_c, 15, 54, 0
22, 15480, Note_on_c, 15, 55, 87
22, 15600, Note_on_c, 15, 55, 0
22, 15600, Note_on_c, 15, 52, 87
22, 15660, Note_on_c, 15, 52, 0
22, 15660, Note_on_c, 15, 59, 87
22, 15780, Note_on_c, 15, 59, 0
22, 15780, Note_on_c, 15, 47, 87
22, 15840, Note_on_c, 15, 47, 0
22, 15840, Note_on_c, 15, 52, 87
22, 15960, Note_on_c, 15, 52, 0
22, 15960, Note_on_c, 15, 50, 87
22, 16020, Note_on_c, 15, 50, 0
22, 16020, Note_on_c, 15, 50, 87
22, 16140, Note_on_c, 15, 50, 0
22, 16140, Note_on_c, 15, 48, 87
22, 16200, Note_on_c, 15, 48, 0
22, 16200, Note_on_c, 15, 48, 87
22, 16320, Note_on_c, 15, 48, 0
22, 16320, Note_on_c, 15, 47, 87
22, 16380, Note_on_c, 15, 47, 0
22, 16380, Note_on_c, 15, 47, 87
22, 16500, Note_on_c, 15, 47, 0
22, 16500, Note_on_c, 15, 45, 87
22, 16560, Note_on_c, 15, 45, 0
22, 16560, Note_on_c, 15, 43, 77
22, 16679, Note_on_c, 15, 43, 0
22, 16680, Note_on_c, 15, 42, 77
22, 16739, Note_on_c, 15, 42, 0
22, 16740, Note_on_c, 15, 47, 77
22, 16859, Note_on_c, 15, 47, 0
22, 16860, Note_on_c, 15, 47, 77
22, 16919, Note_on_c, 15, 47, 0
22, 16920, Note_on_c, 15, 40, 77
22, 17039, Note_on_c, 15, 40, 0
22, 17040, Note_on_c, 15, 47, 77
22, 17099, Note_on_c, 15, 47, 0
22, 17100, Note_on_c, 15, 52, 77
22, 17219, Note_on_c, 15, 52, 0
22, 17220, Note_on_c, 15, 50, 77
22, 17279, Note_on_c, 15, 50, 0
22, 17280, Note_on_c, 15, 48, 77
22, 17399, Note_on_c, 15, 48, 0
22, 17400, Note_on_c, 15, 45, 77
22, 17459, Note_on_c, 15, 45, 0
22, 17460, Note_on_c, 15, 50, 77
22, 17579, Note_on_c, 15, 50, 0
22, 17580, Note_on_c, 15, 38, 77
22, 17639, Note_on_c, 15, 38, 0
22, 17640, Note_on_c, 15, 43, 77
22, 17759, Note_on_c, 15, 43, 0
22, 17760, Note_on_c, 15, 50, 77
22, 17819, Note_on_c, 15, 50, 0
22, 17820, Note_on_c, 15, 55, 77
22, 17939, Note_on_c, 15, 55, 0
22, 17940, Note_on_c, 15, 54, 77
22, 17999, Note_on_c, 15, 54, 0
22, 18000, Note_on_c, 15, 52, 77
22, 18119, Note_on_c, 15, 52, 0
22, 18120, Note_on_c, 15, 50, 77
22, 18179, Note_on_c, 15, 50, 0
22, 18180, Note_on_c, 15, 49, 77
22, 18299, Note_on_c, 15, 49, 0
22, 18300, Note_on_c, 15, 47, 77
22, 18359, Note_on_c, 15, 47, 0
22, 18360, Note_on_c, 15, 45, 77
22, 18479, Note_on_c, 15, 45, 0
22, 18480, Note_on_c, 15, 43, 77
22, 18539, Note_on_c, 15, 43, 0
22, 18540, Note_on_c, 15, 42, 77
22, 18659, Note_on_c, 15, 42, 0
22, 18660, Note_on_c, 15, 40, 77
22, 18719, Note_on_c, 15, 40, 0
22, 18720, Note_on_c, 15, 38, 77
22, 18839, Note_on_c, 15, 38, 0
22, 18840, Note_on_c, 15, 47, 77
22, 18899, Note_on_c, 15, 47, 0
22, 18900, Note_on_c, 15, 45, 77
22, 19019, Note_on_c, 15, 45, 0
22, 19020, Note_on_c, 15, 43, 77
22, 19079, Note_on_c, 15, 43, 0
22, 19080, Note_on_c, 15, 42, 77
22, 19199, Note_on_c, 15, 42, 0
22, 19200, Note_on_c, 15, 47, 77
22, 19259, Note_on_c, 15, 47, 0
22, 19260, Note_on_c, 15, 43, 77
22, 19379, Note_on_c, 15, 43, 0
22, 19380, Note_on_c, 15, 45, 77
22, 19439, Note_on_c, 15, 45, 0
22, 19440, Note_on_c, 15, 38, 77
22, 19559, Note_on_c, 15, 38, 0
22, 20520, Note_on_c, 15, 50, 77
22, 20639, Note_on_c, 15, 50, 0
22, 20640, Note_on_c, 15, 49, 77
22, 20699, Note_on_c, 15, 49, 0
22, 20700, Note_on_c, 15, 49, 77
22, 20819, Note_on_c, 15, 49, 0
22, 20820, Note_on_c, 15, 47, 77
22, 20879, Note_on_c, 15, 47, 0
22, 20880, Note_on_c, 15, 47, 77
22, 20999, Note_on_c, 15, 47, 0
22, 21960, Note_on_c, 15, 59, 77
22, 22079, Note_on_c, 15, 59, 0
22, 22140, Note_on_c, 15, 55, 77
22, 22259, Note_on_c, 15, 55, 0
22, 22320, Note_on_c, 15, 57, 77
22, 22439, Note_on_c, 15, 57, 0
22, 22500, Note_on_c, 15, 54, 77
22, 22619, Note_on_c, 15, 54, 0
22, 22680, Note_on_c, 15, 55, 77
22, 22799, Note_on_c, 15, 55, 0
22, 22860, Note_on_c, 15, 52, 77
22, 22979, Note_on_c, 15, 52, 0
22, 23040, Note_on_c, 15, 54, 77
22, 23159, Note_on_c, 15, 54, 0
22, 23160, Note_on_c, 15, 54, 77
22, 23219, Note_on_c, 15, 54, 0
22, 23220, Note_on_c, 15, 55, 77
22, 23279, Note_on_c, 15, 55, 0
22, 23280, Note_on_c, 15, 52, 77
22, 23339, Note_on_c, 15, 52, 0
22, 23340, Note_on_c, 15, 46, 77
22, 23399, Note_on_c, 15, 46, 0
22, 23400, Note_on_c, 15, 47, 77
22, 23519, Note_on_c, 15, 47, 0
22, 23520, Note_on_c, 15, 49, 77
22, 23579, Note_on_c, 15, 49, 0
22, 23580, Note_on_c, 15, 50, 77
22, 23699, Note_on_c, 15, 50, 0
22, 23700, Note_on_c, 15, 39, 77
22, 23759, Note_on_c, 15, 39, 0
22, 23759, Note_on_c, 15, 40, 77
22, 23878, Note_on_c, 15, 40, 0
22, 23879, Note_on_c, 15, 42, 77
22, 23938, Note_on_c, 15, 42, 0
22, 23939, Note_on_c, 15, 44, 77
22, 24058, Note_on_c, 15, 44, 0
22, 24059, Note_on_c, 15, 56, 77
22, 24118, Note_on_c, 15, 56, 0
22, 24119, Note_on_c, 15, 57, 77
22, 24238, Note_on_c, 15, 57, 0
22, 24239, Note_on_c, 15, 52, 77
22, 24298, Note_on_c, 15, 52, 0
22, 24299, Note_on_c, 15, 45, 77
22, 24418, Note_on_c, 15, 45, 0
22, 24419, Note_on_c, 15, 49, 77
22, 24478, Note_on_c, 15, 49, 0
22, 24479, Note_on_c, 15, 50, 77
22, 24598, Note_on_c, 15, 50, 0
22, 24599, Note_on_c, 15, 48, 77
22, 24658, Note_on_c, 15, 48, 0
22, 24659, Note_on_c, 15, 47, 77
22, 24778, Note_on_c, 15, 47, 0
22, 24779, Note_on_c, 15, 52, 77
22, 24838, Note_on_c, 15, 52, 0
22, 24839, Note_on_c, 15, 57, 77
22, 24958, Note_on_c, 15, 57, 0
22, 24959, Note_on_c, 15, 55, 77
22, 25018, Note_on_c, 15, 55, 0
22, 25019, Note_on_c, 15, 54, 77
22, 25138, Note_on_c, 15, 54, 0
22, 25139, Note_on_c, 15, 59, 77
22, 25198, Note_on_c, 15, 59, 0
22, 25199, Note_on_c, 15, 52, 77
22, 25318, Note_on_c, 15, 52, 0
22, 25319, Note_on_c, 15, 50, 77
22, 25378, Note_on_c, 15, 50, 0
22, 25380, Note_on_c, 15, 49, 77
22, 25499, Note_on_c, 15, 49, 0
22, 25500, Note_on_c, 15, 54, 77
22, 25559, Note_on_c, 15, 54, 0
22, 25560, Note_on_c, 15, 59, 77
22, 25679, Note_on_c, 15, 59, 0
22, 25920, Note_on_c, 15, 47, 77
22, 26039, Note_on_c, 15, 47, 0
22, 26280, Note_on_c, 15, 59, 77
22, 26399, Note_on_c, 15, 59, 0
22, 26640, Note_on_c, 15, 47, 77
22, 26759, Note_on_c, 15, 47, 0
22, 27000, Note_on_c, 15, 43, 77
22, 27090, Note_on_c, 15, 43, 0
22, 27090, Note_on_c, 15, 47, 77
22, 27120, Note_on_c, 15, 47, 0
22, 27120, Note_on_c, 15, 52, 77
22, 27180, Note_on_c, 15, 52, 0
22, 27180, Note_on_c, 15, 52, 77
22, 27270, Note_on_c, 15, 52, 0
22, 27270, Note_on_c, 15, 50, 77
22, 27300, Note_on_c, 15, 50, 0
22, 27300, Note_on_c, 15, 52, 77
22, 27360, Note_on_c, 15, 52, 0
22, 27360, Note_on_c, 15, 42, 77
22, 27450, Note_on_c, 15, 42, 0
22, 27450, Note_on_c, 15, 47, 77
22, 27480, Note_on_c, 15, 47, 0
22, 27480, Note_on_c, 15, 54, 77
22, 27540, Note_on_c, 15, 54, 0
22, 27540, Note_on_c, 15, 54, 77
22, 27630, Note_on_c, 15, 54, 0
22, 27630, Note_on_c, 15, 52, 77
22, 27660, Note_on_c, 15, 52, 0
22, 27660, Note_on_c, 15, 54, 77
22, 27720, Note_on_c, 15, 54, 0
22, 27720, Note_on_c, 15, 41, 77
22, 27810, Note_on_c, 15, 41, 0
22, 27810, Note_on_c, 15, 47, 77
22, 27840, Note_on_c, 15, 47, 0
22, 27840, Note_on_c, 15, 56, 77
22, 27900, Note_on_c, 15, 56, 0
22, 27900, Note_on_c, 15, 56, 77
22, 27990, Note_on_c, 15, 56, 0
22, 27990, Note_on_c, 15, 54, 77
22, 28020, Note_on_c, 15, 54, 0
22, 28020, Note_on_c, 15, 56, 77
22, 28080, Note_on_c, 15, 56, 0
22, 28080, Note_on_c, 15, 40, 77
22, 28199, Note_on_c, 15, 40, 0
22, 28200, Note_on_c, 15, 52, 77
22, 28259, Note_on_c, 15, 52, 0
22, 28260, Note_on_c, 15, 50, 77
22, 28379, Note_on_c, 15, 50, 0
22, 28380, Note_on_c, 15, 49, 77
22, 28439, Note_on_c, 15, 49, 0
22, 28440, Note_on_c, 15, 50, 77
22, 28559, Note_on_c, 15, 50, 0
22, 28560, Note_on_c, 15, 47, 77
22, 28619, Note_on_c, 15, 47, 0
22, 28620, Note_on_c, 15, 54, 77
22, 28739, Note_on_c, 15, 54, 0
22, 28740, Note_on_c, 15, 42, 77
22, 28799, Note_on_c, 15, 42, 0
22, 28800, Note_on_c, 15, 47, 77
22, 28890, Note_on_c, 15, 47, 0
22, 28890, Note_on_c, 15, 54, 77
22, 28919, Note_on_c, 15, 54, 0
22, 28920, Note_on_c, 15, 59, 77
22, 28979, Note_on_c, 15, 59, 0
22, 28980, Note_on_c, 15, 59, 77
22, 29069, Note_on_c, 15, 59, 0
22, 29070, Note_on_c, 15, 57, 77
22, 29099, Note_on_c, 15, 57, 0
22, 29100, Note_on_c, 15, 59, 77
22, 29159, Note_on_c, 15, 59, 0
22, 29160, Note_on_c, 15, 40, 77
22, 29279, Note_on_c, 15, 40, 0
22, 29640, Note_on_c, 15, 52, 77
22, 29700, Note_on_c, 15, 52, 0
22, 29700, Note_on_c, 15, 52, 77
22, 29819, Note_on_c, 15, 52, 0
22, 29820, Note_on_c, 15, 40, 77
22, 29880, Note_on_c, 15, 40, 0
22, 29880, Note_on_c, 15, 45, 77
22, 29969, Note_on_c, 15, 45, 0
22, 29970, Note_on_c, 15, 52, 77
22, 30000, Note_on_c, 15, 52, 0
22, 30000, Note_on_c, 15, 57, 77
22, 30060, Note_on_c, 15, 57, 0
22, 30060, Note_on_c, 15, 57, 77
22, 30149, Note_on_c, 15, 57, 0
22, 30150, Note_on_c, 15, 55, 77
22, 30180, Note_on_c, 15, 55, 0
22, 30180, Note_on_c, 15, 57, 77
22, 30240, Note_on_c, 15, 57, 0
22, 30240, Note_on_c, 15, 38, 77
22, 30360, Note_on_c, 15, 38, 0
22, 30720, Note_on_c, 15, 50, 77
22, 30779, Note_on_c, 15, 50, 0
22, 30780, Note_on_c, 15, 50, 77
22, 30899, Note_on_c, 15, 50, 0
22, 30900, Note_on_c, 15, 38, 77
22, 30959, Note_on_c, 15, 38, 0
22, 30960, Note_on_c, 15, 43, 77
22, 31079, Note_on_c, 15, 43, 0
22, 31080, Note_on_c, 15, 42, 77
22, 31139, Note_on_c, 15, 42, 0
22, 31140, Note_on_c, 15, 42, 77
22, 31259, Note_on_c, 15, 42, 0
22, 31260, Note_on_c, 15, 40, 77
22, 31319, Note_on_c, 15, 40, 0
22, 31320, Note_on_c, 15, 40, 77
22, 31439, Note_on_c, 15, 40, 0
22, 31440, Note_on_c, 15, 38, 77
22, 31499, Note_on_c, 15, 38, 0
22, 31500, Note_on_c, 15, 38, 77
22, 31619, Note_on_c, 15, 38, 0
22, 31620, Note_on_c, 15, 36, 77
22, 31679, Note_on_c, 15, 36, 0
22, 31680, Note_on_c, 15, 36, 77
22, 31799, Note_on_c, 15, 36, 0
22, 31800, Note_on_c, 15, 45, 77
22, 31859, Note_on_c, 15, 45, 0
22, 31860, Note_on_c, 15, 50, 77
22, 31979, Note_on_c, 15, 50, 0
22, 31980, Note_on_c, 15, 38, 77
22, 32039, Note_on_c, 15, 38, 0
22, 32040, Note_on_c, 15, 43, 77
22, 32159, Note_on_c, 15, 43, 0
22, 32220, Note_on_c, 15, 47, 77
22, 32339, Note_on_c, 15, 47, 0
22, 32400, Note_on_c, 15, 48, 77
22, 32519, Note_on_c, 15, 48, 0
22, 32580, Note_on_c, 15, 45, 77
22, 32699, Note_on_c, 15, 45, 0
22, 32760, Note_on_c, 15, 47, 77
22, 32879, Note_on_c, 15, 47, 0
22, 32940, Note_on_c, 15, 43, 77
22, 33059, Note_on_c, 15, 43, 0
22, 33120, Note_on_c, 15, 40, 77
22, 33239, Note_on_c, 15, 40, 0
22, 33240, Note_on_c, 15, 42, 77
22, 33299, Note_on_c, 15, 42, 0
22, 33300, Note_on_c, 15, 43, 77
22, 33419, Note_on_c, 15, 43, 0
22, 33420, Note_on_c, 15, 48, 77
22, 33479, Note_on_c, 15, 48, 0
22, 33480, Note_on_c, 15, 50, 77
22, 33599, Note_on_c, 15, 50, 0
22, 33600, Note_on_c, 15, 48, 77
22, 33659, Note_on_c, 15, 48, 0
22, 33660, Note_on_c, 15, 47, 77
22, 33779, Note_on_c, 15, 47, 0
22, 33780, Note_on_c, 15, 45, 77
22, 33839, Note_on_c, 15, 45, 0
22, 33840, Note_on_c, 15, 43, 77
22, 33959, Note_on_c, 15, 43, 0
22, 34920, Note_on_c, 15, 55, 77
22, 35039, Note_on_c, 15, 55, 0
22, 35040, Note_on_c, 15, 54, 77
22, 35099, Note_on_c, 15, 54, 0
22, 35100, Note_on_c, 15, 54, 77
22, 35219, Note_on_c, 15, 54, 0
22, 35220, Note_on_c, 15, 52, 77
22, 35279, Note_on_c, 15, 52, 0
22, 35280, Note_on_c, 15, 52, 77
22, 35399, Note_on_c, 15, 52, 0
22, 36360, Note_on_c, 15, 52, 77
22, 36479, Note_on_c, 15, 52, 0
22, 36480, Note_on_c, 15, 50, 77
22, 36539, Note_on_c, 15, 50, 0
22, 36540, Note_on_c, 15, 50, 77
22, 36659, Note_on_c, 15, 50, 0
22, 36660, Note_on_c, 15, 48, 77
22, 36719, Note_on_c, 15, 48, 0
22, 36720, Note_on_c, 15, 48, 77
22, 36839, Note_on_c, 15, 48, 0
22, 37800, Note_on_c, 15, 48, 77
22, 37887, Note_on_c, 15, 48, 0
22, 37890, Note_on_c, 15, 52, 77
22, 37919, Note_on_c, 15, 52, 0
22, 37920, Note_on_c, 15, 55, 77
22, 37978, Note_on_c, 15, 55, 0
22, 37980, Note_on_c, 15, 55, 77
22, 38067, Note_on_c, 15, 55, 0
22, 38070, Note_on_c, 15, 53, 77
22, 38099, Note_on_c, 15, 53, 0
22, 38100, Note_on_c, 15, 55, 77
22, 38158, Note_on_c, 15, 55, 0
22, 38160, Note_on_c, 15, 45, 77
22, 38247, Note_on_c, 15, 45, 0
22, 38250, Note_on_c, 15, 52, 77
22, 38279, Note_on_c, 15, 52, 0
22, 38280, Note_on_c, 15, 57, 77
22, 38338, Note_on_c, 15, 57, 0
22, 38340, Note_on_c, 15, 57, 77
22, 38427, Note_on_c, 15, 57, 0
22, 38430, Note_on_c, 15, 55, 77
22, 38459, Note_on_c, 15, 55, 0
22, 38460, Note_on_c, 15, 57, 77
22, 38518, Note_on_c, 15, 57, 0
22, 38520, Note_on_c, 15, 50, 77
22, 38607, Note_on_c, 15, 50, 0
22, 38610, Note_on_c, 15, 54, 77
22, 38639, Note_on_c, 15, 54, 0
22, 38640, Note_on_c, 15, 57, 77
22, 38698, Note_on_c, 15, 57, 0
22, 38700, Note_on_c, 15, 57, 77
22, 38787, Note_on_c, 15, 57, 0
22, 38790, Note_on_c, 15, 55, 77
22, 38819, Note_on_c, 15, 55, 0
22, 38820, Note_on_c, 15, 57, 77
22, 38878, Note_on_c, 15, 57, 0
22, 38880, Note_on_c, 15, 42, 77
22, 38967, Note_on_c, 15, 42, 0
22, 38970, Note_on_c, 15, 45, 77
22, 38999, Note_on_c, 15, 45, 0
22, 39000, Note_on_c, 15, 48, 77
22, 39058, Note_on_c, 15, 48, 0
22, 39060, Note_on_c, 15, 48, 77
22, 39147, Note_on_c, 15, 48, 0
22, 39150, Note_on_c, 15, 47, 77
22, 39179, Note_on_c, 15, 47, 0
22, 39180, Note_on_c, 15, 48, 77
22, 39238, Note_on_c, 15, 48, 0
22, 39240, Note_on_c, 15, 45, 77
22, 39327, Note_on_c, 15, 45, 0
22, 39330, Note_on_c, 15, 48, 77
22, 39359, Note_on_c, 15, 48, 0
22, 39360, Note_on_c, 15, 54, 77
22, 39418, Note_on_c, 15, 54, 0
22, 39420, Note_on_c, 15, 54, 77
22, 39507, Note_on_c, 15, 54, 0
22, 39510, Note_on_c, 15, 52, 77
22, 39539, Note_on_c, 15, 52, 0
22, 39540, Note_on_c, 15, 54, 77
22, 39598, Note_on_c, 15, 54, 0
22, 39600, Note_on_c, 15, 43, 77
22, 39719, Note_on_c, 15, 43, 0
22, 39720, Note_on_c, 15, 52, 77
22, 39779, Note_on_c, 15, 52, 0
22, 39780, Note_on_c, 15, 50, 77
22, 39899, Note_on_c, 15, 50, 0
22, 39900, Note_on_c, 15, 48, 77
22, 39959, Note_on_c, 15, 48, 0
22, 39960, Note_on_c, 15, 47, 77
22, 40079, Note_on_c, 15, 47, 0
22, 40080, Note_on_c, 15, 48, 77
22, 40139, Note_on_c, 15, 48, 0
22, 40140, Note_on_c, 15, 47, 77
22, 40259, Note_on_c, 15, 47, 0
22, 40260, Note_on_c, 15, 45, 77
22, 40319, Note_on_c, 15, 45, 0
22, 40320, Note_on_c, 15, 47, 77
22, 40439, Note_on_c, 15, 47, 0
22, 40440, Note_on_c, 15, 48, 77
22, 40499, Note_on_c, 15, 48, 0
22, 40500, Note_on_c, 15, 48, 77
22, 40589, Note_on_c, 15, 48, 0
22, 40590, Note_on_c, 15, 47, 77
22, 40619, Note_on_c, 15, 47, 0
22, 40620, Note_on_c, 15, 48, 77
22, 40679, Note_on_c, 15, 48, 0
22, 40680, Note_on_c, 15, 55, 77
22, 40799, Note_on_c, 15, 55, 0
22, 41040, Note_on_c, 15, 43, 77
22, 41159, Note_on_c, 15, 43, 0
22, 41400, Note_on_c, 15, 55, 77
22, 41519, Note_on_c, 15, 55, 0
22, 41760, Note_on_c, 15, 43, 77
22, 41879, Note_on_c, 15, 43, 0
22, 42120, Note_on_c, 15, 52, 77
22, 42209, Note_on_c, 15, 52, 0
22, 42210, Note_on_c, 15, 55, 77
22, 42239, Note_on_c, 15, 55, 0
22, 42240, Note_on_c, 15, 61, 77
22, 42299, Note_on_c, 15, 61, 0
22, 42300, Note_on_c, 15, 61, 77
22, 42389, Note_on_c, 15, 61, 0
22, 42390, Note_on_c, 15, 59, 77
22, 42419, Note_on_c, 15, 59, 0
22, 42420, Note_on_c, 15, 61, 77
22, 42479, Note_on_c, 15, 61, 0
22, 42480, Note_on_c, 15, 50, 77
22, 42569, Note_on_c, 15, 50, 0
22, 42570, Note_on_c, 15, 55, 77
22, 42599, Note_on_c, 15, 55, 0
22, 42600, Note_on_c, 15, 62, 77
22, 42659, Note_on_c, 15, 62, 0
22, 42660, Note_on_c, 15, 62, 77
22, 42749, Note_on_c, 15, 62, 0
22, 42750, Note_on_c, 15, 60, 77
22, 42779, Note_on_c, 15, 60, 0
22, 42780, Note_on_c, 15, 62, 77
22, 42839, Note_on_c, 15, 62, 0
22, 42840, Note_on_c, 15, 49, 77
22, 42929, Note_on_c, 15, 49, 0
22, 42930, Note_on_c, 15, 55, 77
22, 42959, Note_on_c, 15, 55, 0
22, 42960, Note_on_c, 15, 64, 77
22, 43019, Note_on_c, 15, 64, 0
22, 43020, Note_on_c, 15, 64, 77
22, 43109, Note_on_c, 15, 64, 0
22, 43110, Note_on_c, 15, 62, 77
22, 43139, Note_on_c, 15, 62, 0
22, 43140, Note_on_c, 15, 64, 77
22, 43199, Note_on_c, 15, 64, 0
22, 43200, Note_on_c, 15, 48, 77
22, 43319, Note_on_c, 15, 48, 0
22, 43380, Note_on_c, 15, 47, 77
22, 43499, Note_on_c, 15, 47, 0
22, 43500, Note_on_c, 15, 45, 77
22, 43559, Note_on_c, 15, 45, 0
22, 43560, Note_on_c, 15, 47, 77
22, 43679, Note_on_c, 15, 47, 0
22, 43680, Note_on_c, 15, 43, 77
22, 43739, Note_on_c, 15, 43, 0
22, 43740, Note_on_c, 15, 50, 77
22, 43859, Note_on_c, 15, 50, 0
22, 43860, Note_on_c, 15, 38, 77
22, 43919, Note_on_c, 15, 38, 0
22, 43920, Note_on_c, 15, 43, 77
22, 44039, Note_on_c, 15, 43, 0
22, 44280, Note_on_c, 15, 43, 77
22, 44399, Note_on_c, 15, 43, 0
22, 44640, Note_on_c, 15, 43, 77
22, 45000, Note_on_c, 15, 43, 0
22, 101520, Program_c, 15, 6
22, 101520, Note_on_c, 15, 43, 77
22, 101579, Note_on_c, 15, 43, 0
22, 101580, Note_on_c, 15, 55, 77
22, 101639, Note_on_c, 15, 55, 0
22, 101640, Note_on_c, 15, 55, 77
22, 101699, Note_on_c, 15, 55, 0
22, 101700, Note_on_c, 15, 43, 77
22, 101759, Note_on_c, 15, 43, 0
22, 101760, Note_on_c, 15, 43, 77
22, 101819, Note_on_c, 15, 43, 0
22, 101820, Note_on_c, 15, 55, 77
22, 101879, Note_on_c, 15, 55, 0
22, 101880, Note_on_c, 15, 55, 77
22, 101939, Note_on_c, 15, 55, 0
22, 101940, Note_on_c, 15, 43, 77
22, 101999, Note_on_c, 15, 43, 0
22, 102000, Note_on_c, 15, 43, 77
22, 102059, Note_on_c, 15, 43, 0
22, 102060, Note_on_c, 15, 55, 77
22, 102119, Note_on_c, 15, 55, 0
22, 102120, Note_on_c, 15, 55, 77
22, 102179, Note_on_c, 15, 55, 0
22, 102180, Note_on_c, 15, 43, 77
22, 102239, Note_on_c, 15, 43, 0
22, 102240, Note_on_c, 15, 43, 77
22, 102299, Note_on_c, 15, 43, 0
22, 102300, Note_on_c, 15, 55, 77
22, 102359, Note_on_c, 15, 55, 0
22, 102360, Note_on_c, 15, 55, 77
22, 102419, Note_on_c, 15, 55, 0
22, 102420, Note_on_c, 15, 43, 77
22, 102479, Note_on_c, 15, 43, 0
22, 102480, Note_on_c, 15, 43, 77
22, 102539, Note_on_c, 15, 43, 0
22, 102540, Note_on_c, 15, 55, 77
22, 102599, Note_on_c, 15, 55, 0
22, 102600, Note_on_c, 15, 55, 77
22, 102659, Note_on_c, 15, 55, 0
22, 102660, Note_on_c, 15, 43, 77
22, 102719, Note_on_c, 15, 43, 0
22, 102720, Note_on_c, 15, 43, 77
22, 102779, Note_on_c, 15, 43, 0
22, 102780, Note_on_c, 15, 55, 77
22, 102839, Note_on_c, 15, 55, 0
22, 102840, Note_on_c, 15, 55, 77
22, 102899, Note_on_c, 15, 55, 0
22, 102900, Note_on_c, 15, 43, 77
22, 102959, Note_on_c, 15, 43, 0
22, 102960, Note_on_c, 15, 43, 77
22, 103019, Note_on_c, 15, 43, 0
22, 103020, Note_on_c, 15, 55, 77
22, 103079, Note_on_c, 15, 55, 0
22, 103080, Note_on_c, 15, 55, 77
22, 103139, Note_on_c, 15, 55, 0
22, 103140, Note_on_c, 15, 43, 77
22, 103199, Note_on_c, 15, 43, 0
22, 103200, Note_on_c, 15, 43, 77
22, 103259, Note_on_c, 15, 43, 0
22, 103260, Note_on_c, 15, 55, 77
22, 103319, Note_on_c, 15, 55, 0
22, 103320, Note_on_c, 15, 55, 77
22, 103379, Note_on_c, 15, 55, 0
22, 103380, Note_on_c, 15, 43, 77
22, 103439, Note_on_c, 15, 43, 0
22, 103440, Note_on_c, 15, 43, 77
22, 104220, Note_on_c, 15, 43, 0
22, 104220, Note_on_c, 15, 45, 77
22, 104279, Note_on_c, 15, 45, 0
22, 104280, Note_on_c, 15, 47, 77
22, 104339, Note_on_c, 15, 47, 0
22, 104340, Note_on_c, 15, 43, 77
22, 104399, Note_on_c, 15, 43, 0
22, 104400, Note_on_c, 15, 48, 77
22, 104459, Note_on_c, 15, 48, 0
22, 104520, Note_on_c, 15, 45, 77
22, 104579, Note_on_c, 15, 45, 0
22, 104640, Note_on_c, 15, 50, 77
22, 104699, Note_on_c, 15, 50, 0
22, 104760, Note_on_c, 15, 47, 77
22, 104819, Note_on_c, 15, 47, 0
22, 104880, Note_on_c, 15, 52, 77
22, 104939, Note_on_c, 15, 52, 0
22, 104940, Note_on_c, 15, 48, 77
22, 104999, Note_on_c, 15, 48, 0
22, 105000, Note_on_c, 15, 50, 77
22, 105059, Note_on_c, 15, 50, 0
22, 105060, Note_on_c, 15, 38, 77
22, 105119, Note_on_c, 15, 38, 0
22, 105120, Note_on_c, 15, 40, 77
22, 105179, Note_on_c, 15, 40, 0
22, 105240, Note_on_c, 15, 45, 77
22, 105299, Note_on_c, 15, 45, 0
22, 105360, Note_on_c, 15, 38, 77
22, 105419, Note_on_c, 15, 38, 0
22, 105420, Note_on_c, 15, 59, 77
22, 105479, Note_on_c, 15, 59, 0
22, 105480, Note_on_c, 15, 57, 77
22, 105509, Note_on_c, 15, 57, 0
22, 105510, Note_on_c, 15, 55, 77
22, 105539, Note_on_c, 15, 55, 0
22, 105540, Note_on_c, 15, 54, 77
22, 105569, Note_on_c, 15, 54, 0
22, 105570, Note_on_c, 15, 52, 77
22, 105599, Note_on_c, 15, 52, 0
22, 105600, Note_on_c, 15, 50, 77
22, 105659, Note_on_c, 15, 50, 0
22, 105720, Note_on_c, 15, 48, 77
22, 105779, Note_on_c, 15, 48, 0
22, 105840, Note_on_c, 15, 47, 77
22, 105899, Note_on_c, 15, 47, 0
22, 105900, Note_on_c, 15, 52, 77
22, 105959, Note_on_c, 15, 52, 0
22, 105960, Note_on_c, 15, 50, 77
22, 105989, Note_on_c, 15, 50, 0
22, 105990, Note_on_c, 15, 48, 77
22, 106019, Note_on_c, 15, 48, 0
22, 106020, Note_on_c, 15, 47, 77
22, 106049, Note_on_c, 15, 47, 0
22, 106050, Note_on_c, 15, 45, 77
22, 106079, Note_on_c, 15, 45, 0
22, 106080, Note_on_c, 15, 44, 77
22, 106139, Note_on_c, 15, 44, 0
22, 106140, Note_on_c, 15, 56, 77
22, 106199, Note_on_c, 15, 56, 0
22, 106200, Note_on_c, 15, 56, 77
22, 106259, Note_on_c, 15, 56, 0
22, 106260, Note_on_c, 15, 44, 77
22, 106319, Note_on_c, 15, 44, 0
22, 106320, Note_on_c, 15, 45, 77
22, 106379, Note_on_c, 15, 45, 0
22, 106380, Note_on_c, 15, 57, 77
22, 106439, Note_on_c, 15, 57, 0
22, 106440, Note_on_c, 15, 57, 77
22, 106499, Note_on_c, 15, 57, 0
22, 106500, Note_on_c, 15, 52, 77
22, 106559, Note_on_c, 15, 52, 0
22, 106560, Note_on_c, 15, 49, 77
22, 106619, Note_on_c, 15, 49, 0
22, 106620, Note_on_c, 15, 61, 77
22, 106679, Note_on_c, 15, 61, 0
22, 106680, Note_on_c, 15, 61, 77
22, 106739, Note_on_c, 15, 61, 0
22, 106740, Note_on_c, 15, 49, 77
22, 106799, Note_on_c, 15, 49, 0
22, 106800, Note_on_c, 15, 50, 77
22, 106859, Note_on_c, 15, 50, 0
22, 106860, Note_on_c, 15, 62, 77
22, 106919, Note_on_c, 15, 62, 0
22, 106920, Note_on_c, 15, 62, 77
22, 106979, Note_on_c, 15, 62, 0
22, 106980, Note_on_c, 15, 57, 77
22, 107039, Note_on_c, 15, 57, 0
22, 107040, Note_on_c, 15, 54, 77
22, 107099, Note_on_c, 15, 54, 0
22, 107100, Note_on_c, 15, 42, 77
22, 107159, Note_on_c, 15, 42, 0
22, 107160, Note_on_c, 15, 42, 77
22, 107219, Note_on_c, 15, 42, 0
22, 107220, Note_on_c, 15, 54, 77
22, 107279, Note_on_c, 15, 54, 0
22, 107280, Note_on_c, 15, 55, 77
22, 107339, Note_on_c, 15, 55, 0
22, 107340, Note_on_c, 15, 43, 77
22, 107399, Note_on_c, 15, 43, 0
22, 107400, Note_on_c, 15, 43, 77
22, 107459, Note_on_c, 15, 43, 0
22, 107460, Note_on_c, 15, 52, 77
22, 107519, Note_on_c, 15, 52, 0
22, 107520, Note_on_c, 15, 47, 77
22, 107579, Note_on_c, 15, 47, 0
22, 107580, Note_on_c, 15, 48, 77
22, 107639, Note_on_c, 15, 48, 0
22, 107640, Note_on_c, 15, 50, 77
22, 107699, Note_on_c, 15, 50, 0
22, 107700, Note_on_c, 15, 48, 77
22, 107759, Note_on_c, 15, 48, 0
22, 107760, Note_on_c, 15, 47, 77
22, 107819, Note_on_c, 15, 47, 0
22, 107820, Note_on_c, 15, 48, 77
22, 107879, Note_on_c, 15, 48, 0
22, 107880, Note_on_c, 15, 50, 77
22, 107939, Note_on_c, 15, 50, 0
22, 107940, Note_on_c, 15, 38, 77
22, 107999, Note_on_c, 15, 38, 0
22, 108000, Note_on_c, 15, 43, 77
22, 108119, Note_on_c, 15, 43, 0
22, 108240, Note_on_c, 15, 43, 77
22, 108299, Note_on_c, 15, 43, 0
22, 108300, Note_on_c, 15, 55, 77
22, 108359, Note_on_c, 15, 55, 0
22, 108360, Note_on_c, 15, 55, 77
22, 108419, Note_on_c, 15, 55, 0
22, 108420, Note_on_c, 15, 43, 77
22, 108479, Note_on_c, 15, 43, 0
22, 108480, Note_on_c, 15, 43, 77
22, 108539, Note_on_c, 15, 43, 0
22, 108540, Note_on_c, 15, 55, 77
22, 108599, Note_on_c, 15, 55, 0
22, 108600, Note_on_c, 15, 55, 77
22, 108659, Note_on_c, 15, 55, 0
22, 108660, Note_on_c, 15, 43, 77
22, 108719, Note_on_c, 15, 43, 0
22, 108720, Note_on_c, 15, 43, 77
22, 108779, Note_on_c, 15, 43, 0
22, 108780, Note_on_c, 15, 55, 77
22, 108839, Note_on_c, 15, 55, 0
22, 108840, Note_on_c, 15, 55, 77
22, 108899, Note_on_c, 15, 55, 0
22, 108900, Note_on_c, 15, 43, 77
22, 108959, Note_on_c, 15, 43, 0
22, 108960, Note_on_c, 15, 43, 77
22, 109019, Note_on_c, 15, 43, 0
22, 109080, Note_on_c, 15, 47, 77
22, 109139, Note_on_c, 15, 47, 0
22, 109200, Note_on_c, 15, 48, 77
22, 109259, Note_on_c, 15, 48, 0
22, 109320, Note_on_c, 15, 45, 77
22, 109379, Note_on_c, 15, 45, 0
22, 109440, Note_on_c, 15, 52, 77
22, 109499, Note_on_c, 15, 52, 0
22, 109500, Note_on_c, 15, 50, 77
22, 109559, Note_on_c, 15, 50, 0
22, 109560, Note_on_c, 15, 48, 77
22, 109619, Note_on_c, 15, 48, 0
22, 109620, Note_on_c, 15, 47, 77
22, 109679, Note_on_c, 15, 47, 0
22, 109680, Note_on_c, 15, 45, 77
22, 109739, Note_on_c, 15, 45, 0
22, 109740, Note_on_c, 15, 57, 77
22, 109799, Note_on_c, 15, 57, 0
22, 109800, Note_on_c, 15, 57, 77
22, 109859, Note_on_c, 15, 57, 0
22, 109860, Note_on_c, 15, 45, 77
22, 109919, Note_on_c, 15, 45, 0
22, 109920, Note_on_c, 15, 43, 77
22, 109979, Note_on_c, 15, 43, 0
22, 110040, Note_on_c, 15, 42, 77
22, 110099, Note_on_c, 15, 42, 0
22, 110160, Note_on_c, 15, 38, 77
22, 110219, Note_on_c, 15, 38, 0
22, 110220, Note_on_c, 15, 50, 77
22, 110279, Note_on_c, 15, 50, 0
22, 110280, Note_on_c, 15, 50, 77
22, 110339, Note_on_c, 15, 50, 0
22, 110340, Note_on_c, 15, 38, 77
22, 110399, Note_on_c, 15, 38, 0
22, 110400, Note_on_c, 15, 45, 77
22, 110459, Note_on_c, 15, 45, 0
22, 110460, Note_on_c, 15, 57, 77
22, 110519, Note_on_c, 15, 57, 0
22, 110520, Note_on_c, 15, 57, 77
22, 110579, Note_on_c, 15, 57, 0
22, 110580, Note_on_c, 15, 45, 77
22, 110639, Note_on_c, 15, 45, 0
22, 110640, Note_on_c, 15, 42, 77
22, 110699, Note_on_c, 15, 42, 0
22, 110700, Note_on_c, 15, 50, 77
22, 110759, Note_on_c, 15, 50, 0
22, 110760, Note_on_c, 15, 50, 77
22, 110819, Note_on_c, 15, 50, 0
22, 110820, Note_on_c, 15, 38, 77
22, 110879, Note_on_c, 15, 38, 0
22, 110880, Note_on_c, 15, 43, 77
22, 110939, Note_on_c, 15, 43, 0
22, 110940, Note_on_c, 15, 55, 77
22, 110999, Note_on_c, 15, 55, 0
22, 111000, Note_on_c, 15, 55, 77
22, 111059, Note_on_c, 15, 55, 0
22, 111060, Note_on_c, 15, 43, 77
22, 111119, Note_on_c, 15, 43, 0
22, 111120, Note_on_c, 15, 43, 77
22, 111900, Note_on_c, 15, 43, 0
22, 111900, Note_on_c, 15, 55, 77
22, 111959, Note_on_c, 15, 55, 0
22, 111960, Note_on_c, 15, 55, 77
22, 112019, Note_on_c, 15, 55, 0
22, 112020, Note_on_c, 15, 43, 77
22, 112079, Note_on_c, 15, 43, 0
22, 112080, Note_on_c, 15, 43, 77
22, 112139, Note_on_c, 15, 43, 0
22, 112140, Note_on_c, 15, 55, 77
22, 112199, Note_on_c, 15, 55, 0
22, 112200, Note_on_c, 15, 55, 77
22, 112259, Note_on_c, 15, 55, 0
22, 112260, Note_on_c, 15, 43, 77
22, 112319, Note_on_c, 15, 43, 0
22, 112320, Note_on_c, 15, 43, 77
22, 112379, Note_on_c, 15, 43, 0
22, 112380, Note_on_c, 15, 55, 77
22, 112439, Note_on_c, 15, 55, 0
22, 112440, Note_on_c, 15, 55, 77
22, 112499, Note_on_c, 15, 55, 0
22, 112500, Note_on_c, 15, 43, 77
22, 112559, Note_on_c, 15, 43, 0
22, 112560, Note_on_c, 15, 43, 77
22, 112619, Note_on_c, 15, 43, 0
22, 112620, Note_on_c, 15, 55, 77
22, 112679, Note_on_c, 15, 55, 0
22, 112680, Note_on_c, 15, 55, 77
22, 112739, Note_on_c, 15, 55, 0
22, 112740, Note_on_c, 15, 43, 77
22, 112799, Note_on_c, 15, 43, 0
22, 112800, Note_on_c, 15, 43, 77
22, 112859, Note_on_c, 15, 43, 0
22, 112860, Note_on_c, 15, 55, 77
22, 112919, Note_on_c, 15, 55, 0
22, 112920, Note_on_c, 15, 55, 77
22, 112979, Note_on_c, 15, 55, 0
22, 112980, Note_on_c, 15, 43, 77
22, 113039, Note_on_c, 15, 43, 0
22, 113040, Note_on_c, 15, 43, 77
22, 113820, Note_on_c, 15, 43, 0
22, 113820, Note_on_c, 15, 55, 77
22, 113879, Note_on_c, 15, 55, 0
22, 113880, Note_on_c, 15, 55, 77
22, 113939, Note_on_c, 15, 55, 0
22, 113940, Note_on_c, 15, 43, 77
22, 113999, Note_on_c, 15, 43, 0
22, 114000, Note_on_c, 15, 42, 77
22, 114059, Note_on_c, 15, 42, 0
22, 114060, Note_on_c, 15, 55, 77
22, 114119, Note_on_c, 15, 55, 0
22, 114120, Note_on_c, 15, 54, 77
22, 114179, Note_on_c, 15, 54, 0
22, 114180, Note_on_c, 15, 52, 77
22, 114239, Note_on_c, 15, 52, 0
22, 114240, Note_on_c, 15, 50, 77
22, 114299, Note_on_c, 15, 50, 0
22, 114300, Note_on_c, 15, 52, 77
22, 114359, Note_on_c, 15, 52, 0
22, 114360, Note_on_c, 15, 54, 77
22, 114419, Note_on_c, 15, 54, 0
22, 114420, Note_on_c, 15, 55, 77
22, 114479, Note_on_c, 15, 55, 0
22, 114480, Note_on_c, 15, 57, 77
22, 114599, Note_on_c, 15, 57, 0
22, 114600, Note_on_c, 15, 45, 77
22, 114719, Note_on_c, 15, 45, 0
22, 114720, Note_on_c, 15, 50, 77
22, 114779, Note_on_c, 15, 50, 0
22, 114840, Note_on_c, 15, 47, 77
22, 114899, Note_on_c, 15, 47, 0
22, 114960, Note_on_c, 15, 49, 77
22, 115019, Note_on_c, 15, 49, 0
22, 115020, Note_on_c, 15, 54, 77
22, 115079, Note_on_c, 15, 54, 0
22, 115080, Note_on_c, 15, 52, 77
22, 115109, Note_on_c, 15, 52, 0
22, 115110, Note_on_c, 15, 50, 77
22, 115139, Note_on_c, 15, 50, 0
22, 115140, Note_on_c, 15, 48, 77
22, 115169, Note_on_c, 15, 48, 0
22, 115170, Note_on_c, 15, 47, 77
22, 115199, Note_on_c, 15, 47, 0
22, 115200, Note_on_c, 15, 45, 77
22, 115259, Note_on_c, 15, 45, 0
22, 115320, Note_on_c, 15, 43, 77
22, 115379, Note_on_c, 15, 43, 0
22, 115440, Note_on_c, 15, 42, 77
22, 115499, Note_on_c, 15, 42, 0
22, 115500, Note_on_c, 15, 47, 77
22, 115559, Note_on_c, 15, 47, 0
22, 115560, Note_on_c, 15, 45, 77
22, 115589, Note_on_c, 15, 45, 0
22, 115590, Note_on_c, 15, 43, 77
22, 115619, Note_on_c, 15, 43, 0
22, 115620, Note_on_c, 15, 42, 77
22, 115649, Note_on_c, 15, 42, 0
22, 115650, Note_on_c, 15, 40, 77
22, 115679, Note_on_c, 15, 40, 0
22, 115680, Note_on_c, 15, 39, 77
22, 115739, Note_on_c, 15, 39, 0
22, 115740, Note_on_c, 15, 51, 77
22, 115799, Note_on_c, 15, 51, 0
22, 115800, Note_on_c, 15, 51, 77
22, 115859, Note_on_c, 15, 51, 0
22, 115860, Note_on_c, 15, 39, 77
22, 115919, Note_on_c, 15, 39, 0
22, 115920, Note_on_c, 15, 40, 77
22, 115979, Note_on_c, 15, 40, 0
22, 115980, Note_on_c, 15, 52, 77
22, 116039, Note_on_c, 15, 52, 0
22, 116040, Note_on_c, 15, 52, 77
22, 116099, Note_on_c, 15, 52, 0
22, 116100, Note_on_c, 15, 47, 77
22, 116159, Note_on_c, 15, 47, 0
22, 116160, Note_on_c, 15, 44, 77
22, 116219, Note_on_c, 15, 44, 0
22, 116220, Note_on_c, 15, 56, 77
22, 116279, Note_on_c, 15, 56, 0
22, 116280, Note_on_c, 15, 56, 77
22, 116339, Note_on_c, 15, 56, 0
22, 116340, Note_on_c, 15, 44, 77
22, 116399, Note_on_c, 15, 44, 0
22, 116400, Note_on_c, 15, 45, 77
22, 116459, Note_on_c, 15, 45, 0
22, 116460, Note_on_c, 15, 57, 77
22, 116519, Note_on_c, 15, 57, 0
22, 116520, Note_on_c, 15, 57, 77
22, 116579, Note_on_c, 15, 57, 0
22, 116580, Note_on_c, 15, 52, 77
22, 116639, Note_on_c, 15, 52, 0
22, 116640, Note_on_c, 15, 49, 77
22, 116699, Note_on_c, 15, 49, 0
22, 116700, Note_on_c, 15, 61, 77
22, 116759, Note_on_c, 15, 61, 0
22, 116760, Note_on_c, 15, 61, 77
22, 116819, Note_on_c, 15, 61, 0
22, 116820, Note_on_c, 15, 49, 77
22, 116879, Note_on_c, 15, 49, 0
22, 116880, Note_on_c, 15, 50, 77
22, 116939, Note_on_c, 15, 50, 0
22, 116940, Note_on_c, 15, 62, 77
22, 116999, Note_on_c, 15, 62, 0
22, 117000, Note_on_c, 15, 62, 77
22, 117059, Note_on_c, 15, 62, 0
22, 117060, Note_on_c, 15, 59, 77
22, 117119, Note_on_c, 15, 59, 0
22, 117120, Note_on_c, 15, 54, 77
22, 117179, Note_on_c, 15, 54, 0
22, 117180, Note_on_c, 15, 55, 77
22, 117239, Note_on_c, 15, 55, 0
22, 117240, Note_on_c, 15, 57, 77
22, 117299, Note_on_c, 15, 57, 0
22, 117300, Note_on_c, 15, 55, 77
22, 117359, Note_on_c, 15, 55, 0
22, 117360, Note_on_c, 15, 54, 77
22, 117419, Note_on_c, 15, 54, 0
22, 117420, Note_on_c, 15, 55, 77
22, 117479, Note_on_c, 15, 55, 0
22, 117480, Note_on_c, 15, 57, 77
22, 117539, Note_on_c, 15, 57, 0
22, 117540, Note_on_c, 15, 45, 77
22, 117599, Note_on_c, 15, 45, 0
22, 117600, Note_on_c, 15, 50, 77
22, 117659, Note_on_c, 15, 50, 0
22, 117660, Note_on_c, 15, 45, 77
22, 117719, Note_on_c, 15, 45, 0
22, 117720, Note_on_c, 15, 42, 77
22, 117779, Note_on_c, 15, 42, 0
22, 117780, Note_on_c, 15, 45, 77
22, 117839, Note_on_c, 15, 45, 0
22, 117840, Note_on_c, 15, 38, 77
22, 118620, Note_on_c, 15, 38, 0
22, 118620, Note_on_c, 15, 50, 77
22, 118679, Note_on_c, 15, 50, 0
22, 118680, Note_on_c, 15, 52, 77
22, 118739, Note_on_c, 15, 52, 0
22, 118740, Note_on_c, 15, 54, 77
22, 118799, Note_on_c, 15, 54, 0
22, 118800, Note_on_c, 15, 43, 77
22, 119580, Note_on_c, 15, 43, 0
22, 119580, Note_on_c, 15, 55, 77
22, 119639, Note_on_c, 15, 55, 0
22, 119640, Note_on_c, 15, 57, 77
22, 119699, Note_on_c, 15, 57, 0
22, 119700, Note_on_c, 15, 59, 77
22, 119759, Note_on_c, 15, 59, 0
22, 119760, Note_on_c, 15, 48, 77
22, 119819, Note_on_c, 15, 48, 0
22, 119880, Note_on_c, 15, 44, 77
22, 119939, Note_on_c, 15, 44, 0
22, 120000, Note_on_c, 15, 45, 77
22, 120059, Note_on_c, 15, 45, 0
22, 120120, Note_on_c, 15, 48, 77
22, 120179, Note_on_c, 15, 48, 0
22, 120240, Note_on_c, 15, 50, 77
22, 120299, Note_on_c, 15, 50, 0
22, 120360, Note_on_c, 15, 38, 77
22, 120419, Note_on_c, 15, 38, 0
22, 120480, Note_on_c, 15, 43, 77
22, 120539, Note_on_c, 15, 43, 0
22, 120600, Note_on_c, 15, 47, 77
22, 120659, Note_on_c, 15, 47, 0
22, 120720, Note_on_c, 15, 48, 77
22, 120779, Note_on_c, 15, 48, 0
22, 120840, Note_on_c, 15, 45, 77
22, 120899, Note_on_c, 15, 45, 0
22, 120960, Note_on_c, 15, 50, 77
22, 121019, Note_on_c, 15, 50, 0
22, 121080, Note_on_c, 15, 47, 77
22, 121139, Note_on_c, 15, 47, 0
22, 121200, Note_on_c, 15, 52, 77
22, 121259, Note_on_c, 15, 52, 0
22, 121260, Note_on_c, 15, 48, 77
22, 121319, Note_on_c, 15, 48, 0
22, 121320, Note_on_c, 15, 50, 77
22, 121379, Note_on_c, 15, 50, 0
22, 121380, Note_on_c, 15, 38, 77
22, 121439, Note_on_c, 15, 38, 0
22, 121440, Note_on_c, 15, 40, 77
22, 121499, Note_on_c, 15, 40, 0
22, 121560, Note_on_c, 15, 45, 77
22, 121619, Note_on_c, 15, 45, 0
22, 121680, Note_on_c, 15, 50, 77
22, 121739, Note_on_c, 15, 50, 0
22, 121740, Note_on_c, 15, 59, 77
22, 121799, Note_on_c, 15, 59, 0
22, 121800, Note_on_c, 15, 57, 77
22, 121829, Note_on_c, 15, 57, 0
22, 121830, Note_on_c, 15, 55, 77
22, 121859, Note_on_c, 15, 55, 0
22, 121860, Note_on_c, 15, 54, 77
22, 121889, Note_on_c, 15, 54, 0
22, 121890, Note_on_c, 15, 52, 77
22, 121919, Note_on_c, 15, 52, 0
22, 121920, Note_on_c, 15, 50, 77
22, 121979, Note_on_c, 15, 50, 0
22, 122040, Note_on_c, 15, 38, 77
22, 122099, Note_on_c, 15, 38, 0
22, 122160, Note_on_c, 15, 43, 77
22, 122219, Note_on_c, 15, 43, 0
22, 122220, Note_on_c, 15, 52, 77
22, 122279, Note_on_c, 15, 52, 0
22, 122280, Note_on_c, 15, 50, 77
22, 122309, Note_on_c, 15, 50, 0
22, 122310, Note_on_c, 15, 48, 77
22, 122339, Note_on_c, 15, 48, 0
22, 122340, Note_on_c, 15, 47, 77
22, 122369, Note_on_c, 15, 47, 0
22, 122370, Note_on_c, 15, 45, 77
22, 122399, Note_on_c, 15, 45, 0
22, 122400, Note_on_c, 15, 44, 77
22, 122459, Note_on_c, 15, 44, 0
22, 122460, Note_on_c, 15, 56, 77
22, 122519, Note_on_c, 15, 56, 0
22, 122520, Note_on_c, 15, 56, 77
22, 122579, Note_on_c, 15, 56, 0
22, 122580, Note_on_c, 15, 44, 77
22, 122639, Note_on_c, 15, 44, 0
22, 122640, Note_on_c, 15, 45, 77
22, 122699, Note_on_c, 15, 45, 0
22, 122700, Note_on_c, 15, 57, 77
22, 122759, Note_on_c, 15, 57, 0
22, 122760, Note_on_c, 15, 57, 77
22, 122819, Note_on_c, 15, 57, 0
22, 122820, Note_on_c, 15, 45, 77
22, 122879, Note_on_c, 15, 45, 0
22, 122880, Note_on_c, 15, 49, 77
22, 122939, Note_on_c, 15, 49, 0
22, 122940, Note_on_c, 15, 57, 77
22, 122999, Note_on_c, 15, 57, 0
22, 123000, Note_on_c, 15, 57, 77
22, 123059, Note_on_c, 15, 57, 0
22, 123060, Note_on_c, 15, 45, 77
22, 123119, Note_on_c, 15, 45, 0
22, 123120, Note_on_c, 15, 38, 77
22, 123179, Note_on_c, 15, 38, 0
22, 123180, Note_on_c, 15, 50, 77
22, 123239, Note_on_c, 15, 50, 0
22, 123240, Note_on_c, 15, 50, 77
22, 123299, Note_on_c, 15, 50, 0
22, 123300, Note_on_c, 15, 45, 77
22, 123359, Note_on_c, 15, 45, 0
22, 123360, Note_on_c, 15, 38, 77
22, 123419, Note_on_c, 15, 38, 0
22, 123420, Note_on_c, 15, 50, 77
22, 123479, Note_on_c, 15, 50, 0
22, 123480, Note_on_c, 15, 52, 77
22, 123539, Note_on_c, 15, 52, 0
22, 123540, Note_on_c, 15, 54, 77
22, 123599, Note_on_c, 15, 54, 0
22, 123600, Note_on_c, 15, 47, 77
22, 123659, Note_on_c, 15, 47, 0
22, 123660, Note_on_c, 15, 59, 77
22, 123719, Note_on_c, 15, 59, 0
22, 123720, Note_on_c, 15, 57, 77
22, 123779, Note_on_c, 15, 57, 0
22, 123780, Note_on_c, 15, 55, 77
22, 123839, Note_on_c, 15, 55, 0
22, 123840, Note_on_c, 15, 54, 77
22, 123899, Note_on_c, 15, 54, 0
22, 123900, Note_on_c, 15, 50, 77
22, 123959, Note_on_c, 15, 50, 0
22, 123960, Note_on_c, 15, 47, 77
22, 124019, Note_on_c, 15, 47, 0
22, 124020, Note_on_c, 15, 43, 77
22, 124079, Note_on_c, 15, 43, 0
22, 124080, Note_on_c, 15, 52, 77
22, 124139, Note_on_c, 15, 52, 0
22, 124140, Note_on_c, 15, 47, 77
22, 124199, Note_on_c, 15, 47, 0
22, 124200, Note_on_c, 15, 48, 77
22, 124259, Note_on_c, 15, 48, 0
22, 124260, Note_on_c, 15, 50, 77
22, 124319, Note_on_c, 15, 50, 0
22, 124320, Note_on_c, 15, 43, 77
22, 124379, Note_on_c, 15, 43, 0
22, 124380, Note_on_c, 15, 55, 77
22, 124439, Note_on_c, 15, 55, 0
22, 124440, Note_on_c, 15, 50, 77
22, 124499, Note_on_c, 15, 50, 0
22, 124500, Note_on_c, 15, 47, 77
22, 124559, Note_on_c, 15, 47, 0
22, 124560, Note_on_c, 15, 43, 77
22, 124619, Note_on_c, 15, 43, 0
22, 124620, Note_on_c, 15, 55, 77
22, 124679, Note_on_c, 15, 55, 0
22, 124680, Note_on_c, 15, 55, 77
22, 124739, Note_on_c, 15, 55, 0
22, 124740, Note_on_c, 15, 43, 77
22, 124799, Note_on_c, 15, 43, 0
22, 124800, Note_on_c, 15, 43, 77
22, 124859, Note_on_c, 15, 43, 0
22, 124860, Note_on_c, 15, 55, 77
22, 124919, Note_on_c, 15, 55, 0
22, 124920, Note_on_c, 15, 55, 77
22, 124979, Note_on_c, 15, 55, 0
22, 124980, Note_on_c, 15, 43, 77
22, 125039, Note_on_c, 15, 43, 0
22, 125040, Note_on_c, 15, 43, 77
22, 125099, Note_on_c, 15, 43, 0
22, 125100, Note_on_c, 15, 55, 77
22, 125159, Note_on_c, 15, 55, 0
22, 125160, Note_on_c, 15, 55, 77
22, 125219, Note_on_c, 15, 55, 0
22, 125220, Note_on_c, 15, 43, 77
22, 125279, Note_on_c, 15, 43, 0
22, 125280, Note_on_c, 15, 43, 77
22, 125339, Note_on_c, 15, 43, 0
22, 125340, Note_on_c, 15, 55, 77
22, 125399, Note_on_c, 15, 55, 0
22, 125400, Note_on_c, 15, 55, 77
22, 125459, Note_on_c, 15, 55, 0
22, 125460, Note_on_c, 15, 43, 77
22, 125519, Note_on_c, 15, 43, 0
22, 125520, Note_on_c, 15, 43, 77
22, 125579, Note_on_c, 15, 43, 0
22, 125580, Note_on_c, 15, 55, 77
22, 125639, Note_on_c, 15, 55, 0
22, 125640, Note_on_c, 15, 55, 77
22, 125699, Note_on_c, 15, 55, 0
22, 125700, Note_on_c, 15, 43, 77
22, 125759, Note_on_c, 15, 43, 0
22, 125760, Note_on_c, 15, 43, 77
22, 125819, Note_on_c, 15, 43, 0
22, 125820, Note_on_c, 15, 55, 77
22, 125879, Note_on_c, 15, 55, 0
22, 125880, Note_on_c, 15, 55, 77
22, 125939, Note_on_c, 15, 55, 0
22, 125940, Note_on_c, 15, 43, 77
22, 125999, Note_on_c, 15, 43, 0
22, 126000, Note_on_c, 15, 43, 77
22, 126059, Note_on_c, 15, 43, 0
22, 126060, Note_on_c, 15, 55, 77
22, 126119, Note_on_c, 15, 55, 0
22, 126120, Note_on_c, 15, 55, 77
22, 126179, Note_on_c, 15, 55, 0
22, 126180, Note_on_c, 15, 43, 77
22, 126239, Note_on_c, 15, 43, 0
22, 126240, Note_on_c, 15, 43, 77
22, 126299, Note_on_c, 15, 43, 0
22, 126300, Note_on_c, 15, 55, 77
22, 126359, Note_on_c, 15, 55, 0
22, 126360, Note_on_c, 15, 55, 77
22, 126419, Note_on_c, 15, 55, 0
22, 126420, Note_on_c, 15, 43, 77
22, 126479, Note_on_c, 15, 43, 0
22, 126480, Note_on_c, 15, 43, 77
22, 127260, Note_on_c, 15, 43, 0
22, 127260, Note_on_c, 15, 45, 77
22, 127319, Note_on_c, 15, 45, 0
22, 127320, Note_on_c, 15, 47, 77
22, 127379, Note_on_c, 15, 47, 0
22, 127380, Note_on_c, 15, 43, 77
22, 127439, Note_on_c, 15, 43, 0
22, 127440, Note_on_c, 15, 48, 77
22, 127499, Note_on_c, 15, 48, 0
22, 127560, Note_on_c, 15, 45, 77
22, 127619, Note_on_c, 15, 45, 0
22, 127680, Note_on_c, 15, 50, 77
22, 127739, Note_on_c, 15, 50, 0
22, 127800, Note_on_c, 15, 47, 77
22, 127859, Note_on_c, 15, 47, 0
22, 127920, Note_on_c, 15, 52, 77
22, 127979, Note_on_c, 15, 52, 0
22, 127980, Note_on_c, 15, 48, 77
22, 128039, Note_on_c, 15, 48, 0
22, 128040, Note_on_c, 15, 50, 77
22, 128099, Note_on_c, 15, 50, 0
22, 128100, Note_on_c, 15, 38, 77
22, 128159, Note_on_c, 15, 38, 0
22, 128160, Note_on_c, 15, 43, 77
22, 128219, Note_on_c, 15, 43, 0
22, 128220, Note_on_c, 15, 45, 77
22, 128279, Note_on_c, 15, 45, 0
22, 128280, Note_on_c, 15, 43, 77
22, 128339, Note_on_c, 15, 43, 0
22, 128340, Note_on_c, 15, 42, 77
22, 128399, Note_on_c, 15, 42, 0
22, 128400, Note_on_c, 15, 40, 77
22, 128459, Note_on_c, 15, 40, 0
22, 128460, Note_on_c, 15, 43, 77
22, 128519, Note_on_c, 15, 43, 0
22, 128520, Note_on_c, 15, 48, 77
22, 128579, Note_on_c, 15, 48, 0
22, 128580, Note_on_c, 15, 45, 77
22, 128639, Note_on_c, 15, 45, 0
22, 128640, Note_on_c, 15, 47, 77
22, 128699, Note_on_c, 15, 47, 0
22, 128700, Note_on_c, 15, 59, 77
22, 128759, Note_on_c, 15, 59, 0
22, 128760, Note_on_c, 15, 47, 77
22, 128819, Note_on_c, 15, 47, 0
22, 128820, Note_on_c, 15, 45, 77
22, 128879, Note_on_c, 15, 45, 0
22, 128880, Note_on_c, 15, 43, 77
22, 128939, Note_on_c, 15, 43, 0
22, 128940, Note_on_c, 15, 40, 77
22, 128999, Note_on_c, 15, 40, 0
22, 129000, Note_on_c, 15, 48, 77
22, 129059, Note_on_c, 15, 48, 0
22, 129060, Note_on_c, 15, 45, 77
22, 129119, Note_on_c, 15, 45, 0
22, 129120, Note_on_c, 15, 47, 77
22, 129179, Note_on_c, 15, 47, 0
22, 129180, Note_on_c, 15, 59, 77
22, 129239, Note_on_c, 15, 59, 0
22, 129240, Note_on_c, 15, 57, 77
22, 129299, Note_on_c, 15, 57, 0
22, 129300, Note_on_c, 15, 55, 77
22, 129359, Note_on_c, 15, 55, 0
22, 129360, Note_on_c, 15, 54, 77
22, 129419, Note_on_c, 15, 54, 0
22, 129420, Note_on_c, 15, 52, 77
22, 129479, Note_on_c, 15, 52, 0
22, 129480, Note_on_c, 15, 51, 77
22, 129539, Note_on_c, 15, 51, 0
22, 129540, Note_on_c, 15, 47, 77
22, 129599, Note_on_c, 15, 47, 0
22, 129600, Note_on_c, 15, 52, 77
22, 129659, Note_on_c, 15, 52, 0
22, 129660, Note_on_c, 15, 54, 77
22, 129719, Note_on_c, 15, 54, 0
22, 129720, Note_on_c, 15, 55, 77
22, 129779, Note_on_c, 15, 55, 0
22, 129780, Note_on_c, 15, 54, 77
22, 129839, Note_on_c, 15, 54, 0
22, 129840, Note_on_c, 15, 52, 77
22, 129899, Note_on_c, 15, 52, 0
22, 129900, Note_on_c, 15, 50, 77
22, 129959, Note_on_c, 15, 50, 0
22, 129960, Note_on_c, 15, 49, 77
22, 130019, Note_on_c, 15, 49, 0
22, 130020, Note_on_c, 15, 45, 77
22, 130079, Note_on_c, 15, 45, 0
22, 130080, Note_on_c, 15, 38, 77
22, 130139, Note_on_c, 15, 38, 0
22, 130140, Note_on_c, 15, 50, 77
22, 130199, Note_on_c, 15, 50, 0
22, 130200, Note_on_c, 15, 48, 77
22, 130259, Note_on_c, 15, 48, 0
22, 130260, Note_on_c, 15, 47, 77
22, 130319, Note_on_c, 15, 47, 0
22, 130320, Note_on_c, 15, 45, 77
22, 130379, Note_on_c, 15, 45, 0
22, 130380, Note_on_c, 15, 43, 77
22, 130439, Note_on_c, 15, 43, 0
22, 130440, Note_on_c, 15, 41, 77
22, 130499, Note_on_c, 15, 41, 0
22, 130500, Note_on_c, 15, 53, 77
22, 130559, Note_on_c, 15, 53, 0
22, 130560, Note_on_c, 15, 52, 77
22, 130619, Note_on_c, 15, 52, 0
22, 130620, Note_on_c, 15, 40, 77
22, 130679, Note_on_c, 15, 40, 0
22, 130680, Note_on_c, 15, 42, 77
22, 130739, Note_on_c, 15, 42, 0
22, 130740, Note_on_c, 15, 44, 77
22, 130799, Note_on_c, 15, 44, 0
22, 130800, Note_on_c, 15, 45, 77
22, 130859, Note_on_c, 15, 45, 0
22, 130860, Note_on_c, 15, 57, 77
22, 130919, Note_on_c, 15, 57, 0
22, 130920, Note_on_c, 15, 50, 77
22, 130979, Note_on_c, 15, 50, 0
22, 130980, Note_on_c, 15, 53, 77
22, 131039, Note_on_c, 15, 53, 0
22, 131040, Note_on_c, 15, 52, 77
22, 131099, Note_on_c, 15, 52, 0
22, 131100, Note_on_c, 15, 40, 77
22, 131159, Note_on_c, 15, 40, 0
22, 131160, Note_on_c, 15, 50, 77
22, 131219, Note_on_c, 15, 50, 0
22, 131220, Note_on_c, 15, 48, 77
22, 131279, Note_on_c, 15, 48, 0
22, 131280, Note_on_c, 15, 47, 77
22, 131339, Note_on_c, 15, 47, 0
22, 131340, Note_on_c, 15, 45, 77
22, 131399, Note_on_c, 15, 45, 0
22, 131400, Note_on_c, 15, 52, 77
22, 131459, Note_on_c, 15, 52, 0
22, 131460, Note_on_c, 15, 56, 77
22, 131519, Note_on_c, 15, 56, 0
22, 131520, Note_on_c, 15, 57, 77
22, 131579, Note_on_c, 15, 57, 0
22, 131580, Note_on_c, 15, 55, 77
22, 131639, Note_on_c, 15, 55, 0
22, 131640, Note_on_c, 15, 54, 77
22, 131699, Note_on_c, 15, 54, 0
22, 131700, Note_on_c, 15, 52, 77
22, 131759, Note_on_c, 15, 52, 0
22, 131760, Note_on_c, 15, 50, 77
22, 131819, Note_on_c, 15, 50, 0
22, 131820, Note_on_c, 15, 45, 77
22, 131879, Note_on_c, 15, 45, 0
22, 131880, Note_on_c, 15, 42, 77
22, 131939, Note_on_c, 15, 42, 0
22, 131940, Note_on_c, 15, 38, 77
22, 131999, Note_on_c, 15, 38, 0
22, 132000, Note_on_c, 15, 43, 77
22, 132059, Note_on_c, 15, 43, 0
22, 132060, Note_on_c, 15, 45, 77
22, 132119, Note_on_c, 15, 45, 0
22, 132120, Note_on_c, 15, 47, 77
22, 132179, Note_on_c, 15, 47, 0
22, 132180, Note_on_c, 15, 45, 77
22, 132239, Note_on_c, 15, 45, 0
22, 132240, Note_on_c, 15, 43, 77
22, 132299, Note_on_c, 15, 43, 0
22, 132300, Note_on_c, 15, 45, 77
22, 132330, Note_on_c, 15, 45, 0
22, 132330, Note_on_c, 15, 47, 77
22, 132360, Note_on_c, 15, 47, 0
22, 132360, Note_on_c, 15, 48, 77
22, 132419, Note_on_c, 15, 48, 0
22, 132420, Note_on_c, 15, 42, 77
22, 132479, Note_on_c, 15, 42, 0
22, 132480, Note_on_c, 15, 47, 77
22, 132539, Note_on_c, 15, 47, 0
22, 132540, Note_on_c, 15, 43, 77
22, 132599, Note_on_c, 15, 43, 0
22, 132600, Note_on_c, 15, 45, 77
22, 132659, Note_on_c, 15, 45, 0
22, 132660, Note_on_c, 15, 47, 77
22, 132719, Note_on_c, 15, 47, 0
22, 132720, Note_on_c, 15, 40, 77
22, 132779, Note_on_c, 15, 40, 0
22, 132780, Note_on_c, 15, 52, 77
22, 132809, Note_on_c, 15, 52, 0
22, 132810, Note_on_c, 15, 54, 77
22, 132839, Note_on_c, 15, 54, 0
22, 132840, Note_on_c, 15, 55, 77
22, 132899, Note_on_c, 15, 55, 0
22, 132900, Note_on_c, 15, 57, 77
22, 132959, Note_on_c, 15, 57, 0
22, 132960, Note_on_c, 15, 59, 77
22, 133019, Note_on_c, 15, 59, 0
22, 133020, Note_on_c, 15, 47, 77
22, 133079, Note_on_c, 15, 47, 0
22, 133080, Note_on_c, 15, 51, 77
22, 133139, Note_on_c, 15, 51, 0
22, 133140, Note_on_c, 15, 54, 77
22, 133199, Note_on_c, 15, 54, 0
22, 133200, Note_on_c, 15, 57, 77
22, 133259, Note_on_c, 15, 57, 0
22, 133260, Note_on_c, 15, 54, 77
22, 133319, Note_on_c, 15, 54, 0
22, 133320, Note_on_c, 15, 59, 77
22, 133349, Note_on_c, 15, 59, 0
22, 133350, Note_on_c, 15, 57, 77
22, 133379, Note_on_c, 15, 57, 0
22, 133380, Note_on_c, 15, 55, 77
22, 133409, Note_on_c, 15, 55, 0
22, 133410, Note_on_c, 15, 54, 77
22, 133439, Note_on_c, 15, 54, 0
22, 133440, Note_on_c, 15, 52, 77
22, 133499, Note_on_c, 15, 52, 0
22, 133500, Note_on_c, 15, 50, 77
22, 133559, Note_on_c, 15, 50, 0
22, 133560, Note_on_c, 15, 48, 77
22, 133619, Note_on_c, 15, 48, 0
22, 133620, Note_on_c, 15, 45, 77
22, 133679, Note_on_c, 15, 45, 0
22, 133680, Note_on_c, 15, 47, 77
22, 133739, Note_on_c, 15, 47, 0
22, 133740, Note_on_c, 15, 59, 77
22, 133799, Note_on_c, 15, 59, 0
22, 133800, Note_on_c, 15, 57, 77
22, 133859, Note_on_c, 15, 57, 0
22, 133860, Note_on_c, 15, 55, 77
22, 133919, Note_on_c, 15, 55, 0
22, 133920, Note_on_c, 15, 54, 77
22, 133979, Note_on_c, 15, 54, 0
22, 133980, Note_on_c, 15, 52, 77
22, 134039, Note_on_c, 15, 52, 0
22, 134040, Note_on_c, 15, 51, 77
22, 134099, Note_on_c, 15, 51, 0
22, 134100, Note_on_c, 15, 47, 77
22, 134159, Note_on_c, 15, 47, 0
22, 134160, Note_on_c, 15, 52, 77
22, 134219, Note_on_c, 15, 52, 0
22, 134220, Note_on_c, 15, 54, 77
22, 134279, Note_on_c, 15, 54, 0
22, 134280, Note_on_c, 15, 55, 77
22, 134339, Note_on_c, 15, 55, 0
22, 134340, Note_on_c, 15, 57, 77
22, 134399, Note_on_c, 15, 57, 0
22, 134400, Note_on_c, 15, 59, 77
22, 134459, Note_on_c, 15, 59, 0
22, 134460, Note_on_c, 15, 60, 77
22, 134519, Note_on_c, 15, 60, 0
22, 134520, Note_on_c, 15, 57, 77
22, 134579, Note_on_c, 15, 57, 0
22, 134580, Note_on_c, 15, 59, 77
22, 134639, Note_on_c, 15, 59, 0
22, 134640, Note_on_c, 15, 49, 77
22, 134699, Note_on_c, 15, 49, 0
22, 134760, Note_on_c, 15, 52, 77
22, 134819, Note_on_c, 15, 52, 0
22, 134880, Note_on_c, 15, 51, 77
22, 134939, Note_on_c, 15, 51, 0
22, 134940, Note_on_c, 15, 60, 77
22, 135029, Note_on_c, 15, 60, 0
22, 135030, Note_on_c, 15, 59, 77
22, 135059, Note_on_c, 15, 59, 0
22, 135060, Note_on_c, 15, 57, 77
22, 135089, Note_on_c, 15, 57, 0
22, 135090, Note_on_c, 15, 55, 77
22, 135119, Note_on_c, 15, 55, 0
22, 135120, Note_on_c, 15, 54, 77
22, 135179, Note_on_c, 15, 54, 0
22, 135240, Note_on_c, 15, 47, 77
22, 135299, Note_on_c, 15, 47, 0
22, 135360, Note_on_c, 15, 40, 77
22, 135419, Note_on_c, 15, 40, 0
22, 135420, Note_on_c, 15, 53, 77
22, 135509, Note_on_c, 15, 53, 0
22, 135510, Note_on_c, 15, 52, 77
22, 135539, Note_on_c, 15, 52, 0
22, 135540, Note_on_c, 15, 50, 77
22, 135569, Note_on_c, 15, 50, 0
22, 135570, Note_on_c, 15, 48, 77
22, 135599, Note_on_c, 15, 48, 0
22, 135600, Note_on_c, 15, 47, 77
22, 135659, Note_on_c, 15, 47, 0
22, 135720, Note_on_c, 15, 52, 77
22, 135779, Note_on_c, 15, 52, 0
22, 135840, Note_on_c, 15, 45, 77
22, 135899, Note_on_c, 15, 45, 0
22, 135960, Note_on_c, 15, 42, 77
22, 136019, Note_on_c, 15, 42, 0
22, 136080, Note_on_c, 15, 43, 77
22, 136139, Note_on_c, 15, 43, 0
22, 136200, Note_on_c, 15, 45, 77
22, 136259, Note_on_c, 15, 45, 0
22, 136320, Note_on_c, 15, 42, 77
22, 136379, Note_on_c, 15, 42, 0
22, 136440, Note_on_c, 15, 47, 77
22, 136499, Note_on_c, 15, 47, 0
22, 136560, Note_on_c, 15, 40, 77
22, 136619, Note_on_c, 15, 40, 0
22, 136680, Note_on_c, 15, 48, 77
22, 136739, Note_on_c, 15, 48, 0
22, 136800, Note_on_c, 15, 47, 77
22, 136919, Note_on_c, 15, 47, 0
22, 137460, Note_on_c, 15, 48, 77
22, 137519, Note_on_c, 15, 48, 0
22, 137520, Note_on_c, 15, 47, 77
22, 137579, Note_on_c, 15, 47, 0
22, 137580, Note_on_c, 15, 45, 77
22, 137639, Note_on_c, 15, 45, 0
22, 137640, Note_on_c, 15, 47, 77
22, 137759, Note_on_c, 15, 47, 0
22, 137760, Note_on_c, 15, 40, 77
22, 137879, Note_on_c, 15, 40, 0
22, 138000, Note_on_c, 15, 43, 77
22, 138059, Note_on_c, 15, 43, 0
22, 138060, Note_on_c, 15, 55, 77
22, 138119, Note_on_c, 15, 55, 0
22, 138120, Note_on_c, 15, 55, 77
22, 138179, Note_on_c, 15, 55, 0
22, 138180, Note_on_c, 15, 43, 77
22, 138239, Note_on_c, 15, 43, 0
22, 138240, Note_on_c, 15, 43, 77
22, 138299, Note_on_c, 15, 43, 0
22, 138300, Note_on_c, 15, 55, 77
22, 138359, Note_on_c, 15, 55, 0
22, 138360, Note_on_c, 15, 55, 77
22, 138419, Note_on_c, 15, 55, 0
22, 138420, Note_on_c, 15, 43, 77
22, 138479, Note_on_c, 15, 43, 0
22, 138480, Note_on_c, 15, 43, 77
22, 138539, Note_on_c, 15, 43, 0
22, 138540, Note_on_c, 15, 55, 77
22, 138599, Note_on_c, 15, 55, 0
22, 138600, Note_on_c, 15, 55, 77
22, 138659, Note_on_c, 15, 55, 0
22, 138660, Note_on_c, 15, 43, 77
22, 138719, Note_on_c, 15, 43, 0
22, 138720, Note_on_c, 15, 43, 77
22, 138779, Note_on_c, 15, 43, 0
22, 138780, Note_on_c, 15, 55, 77
22, 138839, Note_on_c, 15, 55, 0
22, 138840, Note_on_c, 15, 55, 77
22, 138899, Note_on_c, 15, 55, 0
22, 138900, Note_on_c, 15, 43, 77
22, 138959, Note_on_c, 15, 43, 0
22, 138960, Note_on_c, 15, 43, 77
22, 139019, Note_on_c, 15, 43, 0
22, 139020, Note_on_c, 15, 55, 77
22, 139079, Note_on_c, 15, 55, 0
22, 139080, Note_on_c, 15, 55, 77
22, 139139, Note_on_c, 15, 55, 0
22, 139140, Note_on_c, 15, 43, 77
22, 139199, Note_on_c, 15, 43, 0
22, 139200, Note_on_c, 15, 43, 77
22, 139259, Note_on_c, 15, 43, 0
22, 139260, Note_on_c, 15, 55, 77
22, 139319, Note_on_c, 15, 55, 0
22, 139320, Note_on_c, 15, 55, 77
22, 139379, Note_on_c, 15, 55, 0
22, 139380, Note_on_c, 15, 43, 77
22, 139439, Note_on_c, 15, 43, 0
22, 139440, Note_on_c, 15, 43, 77
22, 139499, Note_on_c, 15, 43, 0
22, 139500, Note_on_c, 15, 55, 77
22, 139559, Note_on_c, 15, 55, 0
22, 139560, Note_on_c, 15, 55, 77
22, 139619, Note_on_c, 15, 55, 0
22, 139620, Note_on_c, 15, 43, 77
22, 139679, Note_on_c, 15, 43, 0
22, 139680, Note_on_c, 15, 43, 77
22, 139739, Note_on_c, 15, 43, 0
22, 139740, Note_on_c, 15, 55, 77
22, 139799, Note_on_c, 15, 55, 0
22, 139800, Note_on_c, 15, 55, 77
22, 139859, Note_on_c, 15, 55, 0
22, 139860, Note_on_c, 15, 43, 77
22, 139919, Note_on_c, 15, 43, 0
22, 139920, Note_on_c, 15, 43, 77
22, 140700, Note_on_c, 15, 43, 0
22, 140700, Note_on_c, 15, 45, 77
22, 140759, Note_on_c, 15, 45, 0
22, 140760, Note_on_c, 15, 47, 77
22, 140819, Note_on_c, 15, 47, 0
22, 140820, Note_on_c, 15, 43, 77
22, 140879, Note_on_c, 15, 43, 0
22, 140880, Note_on_c, 15, 48, 77
22, 140939, Note_on_c, 15, 48, 0
22, 141000, Note_on_c, 15, 45, 77
22, 141059, Note_on_c, 15, 45, 0
22, 141120, Note_on_c, 15, 50, 77
22, 141179, Note_on_c, 15, 50, 0
22, 141240, Note_on_c, 15, 47, 77
22, 141299, Note_on_c, 15, 47, 0
22, 141360, Note_on_c, 15, 52, 77
22, 141419, Note_on_c, 15, 52, 0
22, 141420, Note_on_c, 15, 48, 77
22, 141479, Note_on_c, 15, 48, 0
22, 141480, Note_on_c, 15, 50, 77
22, 141539, Note_on_c, 15, 50, 0
22, 141540, Note_on_c, 15, 38, 77
22, 141599, Note_on_c, 15, 38, 0
22, 141600, Note_on_c, 15, 40, 77
22, 141659, Note_on_c, 15, 40, 0
22, 141720, Note_on_c, 15, 45, 77
22, 141779, Note_on_c, 15, 45, 0
22, 141840, Note_on_c, 15, 38, 77
22, 141899, Note_on_c, 15, 38, 0
22, 141900, Note_on_c, 15, 59, 77
22, 141959, Note_on_c, 15, 59, 0
22, 141960, Note_on_c, 15, 57, 77
22, 141989, Note_on_c, 15, 57, 0
22, 141990, Note_on_c, 15, 55, 77
22, 142019, Note_on_c, 15, 55, 0
22, 142020, Note_on_c, 15, 54, 77
22, 142049, Note_on_c, 15, 54, 0
22, 142050, Note_on_c, 15, 52, 77
22, 142079, Note_on_c, 15, 52, 0
22, 142080, Note_on_c, 15, 50, 77
22, 142139, Note_on_c, 15, 50, 0
22, 142200, Note_on_c, 15, 48, 77
22, 142259, Note_on_c, 15, 48, 0
22, 142320, Note_on_c, 15, 47, 77
22, 142379, Note_on_c, 15, 47, 0
22, 142380, Note_on_c, 15, 52, 77
22, 142439, Note_on_c, 15, 52, 0
22, 142440, Note_on_c, 15, 50, 77
22, 142469, Note_on_c, 15, 50, 0
22, 142470, Note_on_c, 15, 48, 77
22, 142499, Note_on_c, 15, 48, 0
22, 142500, Note_on_c, 15, 47, 77
22, 142529, Note_on_c, 15, 47, 0
22, 142530, Note_on_c, 15, 45, 77
22, 142559, Note_on_c, 15, 45, 0
22, 142560, Note_on_c, 15, 44, 77
22, 142619, Note_on_c, 15, 44, 0
22, 142620, Note_on_c, 15, 56, 77
22, 142679, Note_on_c, 15, 56, 0
22, 142680, Note_on_c, 15, 56, 77
22, 142739, Note_on_c, 15, 56, 0
22, 142740, Note_on_c, 15, 44, 77
22, 142799, Note_on_c, 15, 44, 0
22, 142800, Note_on_c, 15, 45, 77
22, 142859, Note_on_c, 15, 45, 0
22, 142860, Note_on_c, 15, 57, 77
22, 142919, Note_on_c, 15, 57, 0
22, 142920, Note_on_c, 15, 57, 77
22, 142979, Note_on_c, 15, 57, 0
22, 142980, Note_on_c, 15, 52, 77
22, 143039, Note_on_c, 15, 52, 0
22, 143040, Note_on_c, 15, 49, 77
22, 143099, Note_on_c, 15, 49, 0
22, 143100, Note_on_c, 15, 61, 77
22, 143159, Note_on_c, 15, 61, 0
22, 143160, Note_on_c, 15, 61, 77
22, 143219, Note_on_c, 15, 61, 0
22, 143220, Note_on_c, 15, 49, 77
22, 143279, Note_on_c, 15, 49, 0
22, 143280, Note_on_c, 15, 50, 77
22, 143339, Note_on_c, 15, 50, 0
22, 143340, Note_on_c, 15, 62, 77
22, 143399, Note_on_c, 15, 62, 0
22, 143400, Note_on_c, 15, 62, 77
22, 143459, Note_on_c, 15, 62, 0
22, 143460, Note_on_c, 15, 57, 77
22, 143519, Note_on_c, 15, 57, 0
22, 143520, Note_on_c, 15, 54, 77
22, 143579, Note_on_c, 15, 54, 0
22, 143580, Note_on_c, 15, 42, 77
22, 143639, Note_on_c, 15, 42, 0
22, 143640, Note_on_c, 15, 42, 77
22, 143699, Note_on_c, 15, 42, 0
22, 143700, Note_on_c, 15, 54, 77
22, 143759, Note_on_c, 15, 54, 0
22, 143760, Note_on_c, 15, 55, 77
22, 143819, Note_on_c, 15, 55, 0
22, 143820, Note_on_c, 15, 43, 77
22, 143879, Note_on_c, 15, 43, 0
22, 143880, Note_on_c, 15, 43, 77
22, 143939, Note_on_c, 15, 43, 0
22, 143940, Note_on_c, 15, 52, 77
22, 143999, Note_on_c, 15, 52, 0
22, 144000, Note_on_c, 15, 47, 77
22, 144059, Note_on_c, 15, 47, 0
22, 144060, Note_on_c, 15, 48, 77
22, 144119, Note_on_c, 15, 48, 0
22, 144120, Note_on_c, 15, 50, 77
22, 144179, Note_on_c, 15, 50, 0
22, 144180, Note_on_c, 15, 48, 77
22, 144239, Note_on_c, 15, 48, 0
22, 144240, Note_on_c, 15, 47, 77
22, 144299, Note_on_c, 15, 47, 0
22, 144300, Note_on_c, 15, 48, 77
22, 144359, Note_on_c, 15, 48, 0
22, 144360, Note_on_c, 15, 50, 77
22, 144419, Note_on_c, 15, 50, 0
22, 144420, Note_on_c, 15, 38, 77
22, 144479, Note_on_c, 15, 38, 0
22, 144480, Note_on_c, 15, 43, 77
22, 144599, Note_on_c, 15, 43, 0
22, 144720, Note_on_c, 15, 43, 77
22, 144779, Note_on_c, 15, 43, 0
22, 144780, Note_on_c, 15, 55, 77
22, 144839, Note_on_c, 15, 55, 0
22, 144840, Note_on_c, 15, 55, 77
22, 144899, Note_on_c, 15, 55, 0
22, 144900, Note_on_c, 15, 43, 77
22, 144959, Note_on_c, 15, 43, 0
22, 144960, Note_on_c, 15, 43, 77
22, 145019, Note_on_c, 15, 43, 0
22, 145020, Note_on_c, 15, 55, 77
22, 145079, Note_on_c, 15, 55, 0
22, 145080, Note_on_c, 15, 55, 77
22, 145139, Note_on_c, 15, 55, 0
22, 145140, Note_on_c, 15, 43, 77
22, 145199, Note_on_c, 15, 43, 0
22, 145200, Note_on_c, 15, 43, 77
22, 145259, Note_on_c, 15, 43, 0
22, 145260, Note_on_c, 15, 55, 77
22, 145319, Note_on_c, 15, 55, 0
22, 145320, Note_on_c, 15, 55, 77
22, 145379, Note_on_c, 15, 55, 0
22, 145380, Note_on_c, 15, 43, 77
22, 145439, Note_on_c, 15, 43, 0
22, 145440, Note_on_c, 15, 43, 77
22, 145499, Note_on_c, 15, 43, 0
22, 145560, Note_on_c, 15, 47, 77
22, 145619, Note_on_c, 15, 47, 0
22, 145680, Note_on_c, 15, 48, 77
22, 145739, Note_on_c, 15, 48, 0
22, 145800, Note_on_c, 15, 45, 77
22, 145859, Note_on_c, 15, 45, 0
22, 145920, Note_on_c, 15, 52, 77
22, 145979, Note_on_c, 15, 52, 0
22, 145980, Note_on_c, 15, 50, 77
22, 146039, Note_on_c, 15, 50, 0
22, 146040, Note_on_c, 15, 48, 77
22, 146099, Note_on_c, 15, 48, 0
22, 146100, Note_on_c, 15, 47, 77
22, 146159, Note_on_c, 15, 47, 0
22, 146160, Note_on_c, 15, 45, 77
22, 146219, Note_on_c, 15, 45, 0
22, 146220, Note_on_c, 15, 57, 77
22, 146279, Note_on_c, 15, 57, 0
22, 146280, Note_on_c, 15, 57, 77
22, 146339, Note_on_c, 15, 57, 0
22, 146340, Note_on_c, 15, 45, 77
22, 146399, Note_on_c, 15, 45, 0
22, 146400, Note_on_c, 15, 43, 77
22, 146459, Note_on_c, 15, 43, 0
22, 146520, Note_on_c, 15, 42, 77
22, 146579, Note_on_c, 15, 42, 0
22, 146640, Note_on_c, 15, 38, 77
22, 146699, Note_on_c, 15, 38, 0
22, 146700, Note_on_c, 15, 50, 77
22, 146759, Note_on_c, 15, 50, 0
22, 146760, Note_on_c, 15, 50, 77
22, 146819, Note_on_c, 15, 50, 0
22, 146820, Note_on_c, 15, 38, 77
22, 146879, Note_on_c, 15, 38, 0
22, 146880, Note_on_c, 15, 45, 77
22, 146939, Note_on_c, 15, 45, 0
22, 146940, Note_on_c, 15, 57, 77
22, 146999, Note_on_c, 15, 57, 0
22, 147000, Note_on_c, 15, 57, 77
22, 147059, Note_on_c, 15, 57, 0
22, 147060, Note_on_c, 15, 45, 77
22, 147119, Note_on_c, 15, 45, 0
22, 147120, Note_on_c, 15, 42, 77
22, 147179, Note_on_c, 15, 42, 0
22, 147180, Note_on_c, 15, 50, 77
22, 147239, Note_on_c, 15, 50, 0
22, 147240, Note_on_c, 15, 50, 77
22, 147299, Note_on_c, 15, 50, 0
22, 147300, Note_on_c, 15, 38, 77
22, 147359, Note_on_c, 15, 38, 0
22, 147360, Note_on_c, 15, 43, 77
22, 147419, Note_on_c, 15, 43, 0
22, 147420, Note_on_c, 15, 55, 77
22, 147479, Note_on_c, 15, 55, 0
22, 147480, Note_on_c, 15, 55, 77
22, 147539, Note_on_c, 15, 55, 0
22, 147540, Note_on_c, 15, 43, 77
22, 147599, Note_on_c, 15, 43, 0
22, 147600, Note_on_c, 15, 43, 77
22, 148380, Note_on_c, 15, 43, 0
22, 148380, Note_on_c, 15, 55, 77
22, 148439, Note_on_c, 15, 55, 0
22, 148440, Note_on_c, 15, 55, 77
22, 148499, Note_on_c, 15, 55, 0
22, 148500, Note_on_c, 15, 43, 77
22, 148559, Note_on_c, 15, 43, 0
22, 148560, Note_on_c, 15, 43, 77
22, 148619, Note_on_c, 15, 43, 0
22, 148620, Note_on_c, 15, 55, 77
22, 148679, Note_on_c, 15, 55, 0
22, 148680, Note_on_c, 15, 55, 77
22, 148739, Note_on_c, 15, 55, 0
22, 148740, Note_on_c, 15, 43, 77
22, 148799, Note_on_c, 15, 43, 0
22, 148800, Note_on_c, 15, 43, 77
22, 148859, Note_on_c, 15, 43, 0
22, 148860, Note_on_c, 15, 55, 77
22, 148919, Note_on_c, 15, 55, 0
22, 148920, Note_on_c, 15, 55, 77
22, 148979, Note_on_c, 15, 55, 0
22, 148980, Note_on_c, 15, 43, 77
22, 149039, Note_on_c, 15, 43, 0
22, 149040, Note_on_c, 15, 43, 77
22, 149099, Note_on_c, 15, 43, 0
22, 149100, Note_on_c, 15, 55, 77
22, 149159, Note_on_c, 15, 55, 0
22, 149160, Note_on_c, 15, 55, 77
22, 149219, Note_on_c, 15, 55, 0
22, 149220, Note_on_c, 15, 43, 77
22, 149279, Note_on_c, 15, 43, 0
22, 149280, Note_on_c, 15, 43, 77
22, 149339, Note_on_c, 15, 43, 0
22, 149340, Note_on_c, 15, 55, 77
22, 149399, Note_on_c, 15, 55, 0
22, 149400, Note_on_c, 15, 55, 77
22, 149459, Note_on_c, 15, 55, 0
22, 149460, Note_on_c, 15, 43, 77
22, 149519, Note_on_c, 15, 43, 0
22, 149520, Note_on_c, 15, 43, 77
22, 150300, Note_on_c, 15, 43, 0
22, 150300, Note_on_c, 15, 55, 77
22, 150359, Note_on_c, 15, 55, 0
22, 150360, Note_on_c, 15, 55, 77
22, 150419, Note_on_c, 15, 55, 0
22, 150420, Note_on_c, 15, 43, 77
22, 150479, Note_on_c, 15, 43, 0
22, 150480, Note_on_c, 15, 42, 77
22, 150539, Note_on_c, 15, 42, 0
22, 150540, Note_on_c, 15, 55, 77
22, 150599, Note_on_c, 15, 55, 0
22, 150600, Note_on_c, 15, 54, 77
22, 150659, Note_on_c, 15, 54, 0
22, 150660, Note_on_c, 15, 52, 77
22, 150719, Note_on_c, 15, 52, 0
22, 150720, Note_on_c, 15, 50, 77
22, 150779, Note_on_c, 15, 50, 0
22, 150780, Note_on_c, 15, 52, 77
22, 150839, Note_on_c, 15, 52, 0
22, 150840, Note_on_c, 15, 54, 77
22, 150899, Note_on_c, 15, 54, 0
22, 150900, Note_on_c, 15, 55, 77
22, 150959, Note_on_c, 15, 55, 0
22, 150960, Note_on_c, 15, 57, 77
22, 151079, Note_on_c, 15, 57, 0
22, 151080, Note_on_c, 15, 45, 77
22, 151199, Note_on_c, 15, 45, 0
22, 151200, Note_on_c, 15, 50, 77
22, 151259, Note_on_c, 15, 50, 0
22, 151320, Note_on_c, 15, 47, 77
22, 151379, Note_on_c, 15, 47, 0
22, 151440, Note_on_c, 15, 49, 77
22, 151499, Note_on_c, 15, 49, 0
22, 151500, Note_on_c, 15, 54, 77
22, 151559, Note_on_c, 15, 54, 0
22, 151560, Note_on_c, 15, 52, 77
22, 151589, Note_on_c, 15, 52, 0
22, 151590, Note_on_c, 15, 50, 77
22, 151619, Note_on_c, 15, 50, 0
22, 151620, Note_on_c, 15, 48, 77
22, 151649, Note_on_c, 15, 48, 0
22, 151650, Note_on_c, 15, 47, 77
22, 151679, Note_on_c, 15, 47, 0
22, 151680, Note_on_c, 15, 45, 77
22, 151739, Note_on_c, 15, 45, 0
22, 151800, Note_on_c, 15, 43, 77
22, 151859, Note_on_c, 15, 43, 0
22, 151920, Note_on_c, 15, 42, 77
22, 151979, Note_on_c, 15, 42, 0
22, 151980, Note_on_c, 15, 47, 77
22, 152039, Note_on_c, 15, 47, 0
22, 152040, Note_on_c, 15, 45, 77
22, 152069, Note_on_c, 15, 45, 0
22, 152070, Note_on_c, 15, 43, 77
22, 152099, Note_on_c, 15, 43, 0
22, 152100, Note_on_c, 15, 42, 77
22, 152129, Note_on_c, 15, 42, 0
22, 152130, Note_on_c, 15, 40, 77
22, 152159, Note_on_c, 15, 40, 0
22, 152160, Note_on_c, 15, 39, 77
22, 152219, Note_on_c, 15, 39, 0
22, 152220, Note_on_c, 15, 51, 77
22, 152279, Note_on_c, 15, 51, 0
22, 152280, Note_on_c, 15, 51, 77
22, 152339, Note_on_c, 15, 51, 0
22, 152340, Note_on_c, 15, 39, 77
22, 152399, Note_on_c, 15, 39, 0
22, 152400, Note_on_c, 15, 40, 77
22, 152459, Note_on_c, 15, 40, 0
22, 152460, Note_on_c, 15, 52, 77
22, 152519, Note_on_c, 15, 52, 0
22, 152520, Note_on_c, 15, 52, 77
22, 152579, Note_on_c, 15, 52, 0
22, 152580, Note_on_c, 15, 47, 77
22, 152639, Note_on_c, 15, 47, 0
22, 152640, Note_on_c, 15, 44, 77
22, 152699, Note_on_c, 15, 44, 0
22, 152700, Note_on_c, 15, 56, 77
22, 152759, Note_on_c, 15, 56, 0
22, 152760, Note_on_c, 15, 56, 77
22, 152819, Note_on_c, 15, 56, 0
22, 152820, Note_on_c, 15, 44, 77
22, 152879, Note_on_c, 15, 44, 0
22, 152880, Note_on_c, 15, 45, 77
22, 152939, Note_on_c, 15, 45, 0
22, 152940, Note_on_c, 15, 57, 77
22, 152999, Note_on_c, 15, 57, 0
22, 153000, Note_on_c, 15, 57, 77
22, 153059, Note_on_c, 15, 57, 0
22, 153060, Note_on_c, 15, 52, 77
22, 153119, Note_on_c, 15, 52, 0
22, 153120, Note_on_c, 15, 49, 77
22, 153179, Note_on_c, 15, 49, 0
22, 153180, Note_on_c, 15, 61, 77
22, 153239, Note_on_c, 15, 61, 0
22, 153240, Note_on_c, 15, 61, 77
22, 153299, Note_on_c, 15, 61, 0
22, 153300, Note_on_c, 15, 49, 77
22, 153359, Note_on_c, 15, 49, 0
22, 153360, Note_on_c, 15, 50, 77
22, 153419, Note_on_c, 15, 50, 0
22, 153420, Note_on_c, 15, 62, 77
22, 153479, Note_on_c, 15, 62, 0
22, 153480, Note_on_c, 15, 62, 77
22, 153539, Note_on_c, 15, 62, 0
22, 153540, Note_on_c, 15, 59, 77
22, 153599, Note_on_c, 15, 59, 0
22, 153600, Note_on_c, 15, 54, 77
22, 153659, Note_on_c, 15, 54, 0
22, 153660, Note_on_c, 15, 55, 77
22, 153719, Note_on_c, 15, 55, 0
22, 153720, Note_on_c, 15, 57, 77
22, 153779, Note_on_c, 15, 57, 0
22, 153780, Note_on_c, 15, 55, 77
22, 153839, Note_on_c, 15, 55, 0
22, 153840, Note_on_c, 15, 54, 77
22, 153899, Note_on_c, 15, 54, 0
22, 153900, Note_on_c, 15, 55, 77
22, 153959, Note_on_c, 15, 55, 0
22, 153960, Note_on_c, 15, 57, 77
22, 154019, Note_on_c, 15, 57, 0
22, 154020, Note_on_c, 15, 45, 77
22, 154079, Note_on_c, 15, 45, 0
22, 154080, Note_on_c, 15, 50, 77
22, 154139, Note_on_c, 15, 50, 0
22, 154140, Note_on_c, 15, 45, 77
22, 154199, Note_on_c, 15, 45, 0
22, 154200, Note_on_c, 15, 42, 77
22, 154259, Note_on_c, 15, 42, 0
22, 154260, Note_on_c, 15, 45, 77
22, 154319, Note_on_c, 15, 45, 0
22, 154320, Note_on_c, 15, 38, 77
22, 155100, Note_on_c, 15, 38, 0
22, 155100, Note_on_c, 15, 50, 77
22, 155159, Note_on_c, 15, 50, 0
22, 155160, Note_on_c, 15, 52, 77
22, 155219, Note_on_c, 15, 52, 0
22, 155220, Note_on_c, 15, 54, 77
22, 155279, Note_on_c, 15, 54, 0
22, 155280, Note_on_c, 15, 43, 77
22, 156060, Note_on_c, 15, 43, 0
22, 156060, Note_on_c, 15, 55, 77
22, 156119, Note_on_c, 15, 55, 0
22, 156120, Note_on_c, 15, 57, 77
22, 156179, Note_on_c, 15, 57, 0
22, 156180, Note_on_c, 15, 59, 77
22, 156239, Note_on_c, 15, 59, 0
22, 156240, Note_on_c, 15, 48, 77
22, 156299, Note_on_c, 15, 48, 0
22, 156360, Note_on_c, 15, 44, 77
22, 156419, Note_on_c, 15, 44, 0
22, 156480, Note_on_c, 15, 45, 77
22, 156539, Note_on_c, 15, 45, 0
22, 156600, Note_on_c, 15, 48, 77
22, 156659, Note_on_c, 15, 48, 0
22, 156720, Note_on_c, 15, 50, 77
22, 156779, Note_on_c, 15, 50, 0
22, 156840, Note_on_c, 15, 38, 77
22, 156899, Note_on_c, 15, 38, 0
22, 156960, Note_on_c, 15, 43, 77
22, 157019, Note_on_c, 15, 43, 0
22, 157080, Note_on_c, 15, 47, 77
22, 157139, Note_on_c, 15, 47, 0
22, 157200, Note_on_c, 15, 48, 77
22, 157259, Note_on_c, 15, 48, 0
22, 157320, Note_on_c, 15, 45, 77
22, 157379, Note_on_c, 15, 45, 0
22, 157440, Note_on_c, 15, 50, 77
22, 157499, Note_on_c, 15, 50, 0
22, 157560, Note_on_c, 15, 47, 77
22, 157619, Note_on_c, 15, 47, 0
22, 157680, Note_on_c, 15, 52, 77
22, 157739, Note_on_c, 15, 52, 0
22, 157740, Note_on_c, 15, 48, 77
22, 157799, Note_on_c, 15, 48, 0
22, 157800, Note_on_c, 15, 50, 77
22, 157859, Note_on_c, 15, 50, 0
22, 157860, Note_on_c, 15, 38, 77
22, 157919, Note_on_c, 15, 38, 0
22, 157920, Note_on_c, 15, 40, 77
22, 157979, Note_on_c, 15, 40, 0
22, 158040, Note_on_c, 15, 45, 77
22, 158099, Note_on_c, 15, 45, 0
22, 158160, Note_on_c, 15, 50, 77
22, 158219, Note_on_c, 15, 50, 0
22, 158220, Note_on_c, 15, 59, 77
22, 158279, Note_on_c, 15, 59, 0
22, 158280, Note_on_c, 15, 57, 77
22, 158309, Note_on_c, 15, 57, 0
22, 158310, Note_on_c, 15, 55, 77
22, 158339, Note_on_c, 15, 55, 0
22, 158340, Note_on_c, 15, 54, 77
22, 158369, Note_on_c, 15, 54, 0
22, 158370, Note_on_c, 15, 52, 77
22, 158399, Note_on_c, 15, 52, 0
22, 158400, Note_on_c, 15, 50, 77
22, 158459, Note_on_c, 15, 50, 0
22, 158520, Note_on_c, 15, 38, 77
22, 158579, Note_on_c, 15, 38, 0
22, 158640, Note_on_c, 15, 43, 77
22, 158699, Note_on_c, 15, 43, 0
22, 158700, Note_on_c, 15, 52, 77
22, 158759, Note_on_c, 15, 52, 0
22, 158760, Note_on_c, 15, 50, 77
22, 158789, Note_on_c, 15, 50, 0
22, 158790, Note_on_c, 15, 48, 77
22, 158819, Note_on_c, 15, 48, 0
22, 158820, Note_on_c, 15, 47, 77
22, 158849, Note_on_c, 15, 47, 0
22, 158850, Note_on_c, 15, 45, 77
22, 158879, Note_on_c, 15, 45, 0
22, 158880, Note_on_c, 15, 44, 77
22, 158939, Note_on_c, 15, 44, 0
22, 158940, Note_on_c, 15, 56, 77
22, 158999, Note_on_c, 15, 56, 0
22, 159000, Note_on_c, 15, 56, 77
22, 159059, Note_on_c, 15, 56, 0
22, 159060, Note_on_c, 15, 44, 77
22, 159119, Note_on_c, 15, 44, 0
22, 159120, Note_on_c, 15, 45, 77
22, 159179, Note_on_c, 15, 45, 0
22, 159180, Note_on_c, 15, 57, 77
22, 159239, Note_on_c, 15, 57, 0
22, 159240, Note_on_c, 15, 57, 77
22, 159299, Note_on_c, 15, 57, 0
22, 159300, Note_on_c, 15, 45, 77
22, 159359, Note_on_c, 15, 45, 0
22, 159360, Note_on_c, 15, 49, 77
22, 159419, Note_on_c, 15, 49, 0
22, 159420, Note_on_c, 15, 57, 77
22, 159479, Note_on_c, 15, 57, 0
22, 159480, Note_on_c, 15, 57, 77
22, 159539, Note_on_c, 15, 57, 0
22, 159540, Note_on_c, 15, 45, 77
22, 159599, Note_on_c, 15, 45, 0
22, 159600, Note_on_c, 15, 38, 77
22, 159659, Note_on_c, 15, 38, 0
22, 159660, Note_on_c, 15, 50, 77
22, 159719, Note_on_c, 15, 50, 0
22, 159720, Note_on_c, 15, 50, 77
22, 159779, Note_on_c, 15, 50, 0
22, 159780, Note_on_c, 15, 45, 77
22, 159839, Note_on_c, 15, 45, 0
22, 159840, Note_on_c, 15, 38, 77
22, 159899, Note_on_c, 15, 38, 0
22, 159900, Note_on_c, 15, 50, 77
22, 159959, Note_on_c, 15, 50, 0
22, 159960, Note_on_c, 15, 52, 77
22, 160019, Note_on_c, 15, 52, 0
22, 160020, Note_on_c, 15, 54, 77
22, 160079, Note_on_c, 15, 54, 0
22, 160080, Note_on_c, 15, 47, 77
22, 160139, Note_on_c, 15, 47, 0
22, 160140, Note_on_c, 15, 59, 77
22, 160199, Note_on_c, 15, 59, 0
22, 160200, Note_on_c, 15, 57, 77
22, 160259, Note_on_c, 15, 57, 0
22, 160260, Note_on_c, 15, 55, 77
22, 160319, Note_on_c, 15, 55, 0
22, 160320, Note_on_c, 15, 54, 77
22, 160379, Note_on_c, 15, 54, 0
22, 160380, Note_on_c, 15, 50, 77
22, 160439, Note_on_c, 15, 50, 0
22, 160440, Note_on_c, 15, 47, 77
22, 160499, Note_on_c, 15, 47, 0
22, 160500, Note_on_c, 15, 43, 77
22, 160559, Note_on_c, 15, 43, 0
22, 160560, Note_on_c, 15, 52, 77
22, 160619, Note_on_c, 15, 52, 0
22, 160620, Note_on_c, 15, 47, 77
22, 160679, Note_on_c, 15, 47, 0
22, 160680, Note_on_c, 15, 48, 77
22, 160739, Note_on_c, 15, 48, 0
22, 160740, Note_on_c, 15, 50, 77
22, 160799, Note_on_c, 15, 50, 0
22, 160800, Note_on_c, 15, 43, 77
22, 160859, Note_on_c, 15, 43, 0
22, 160860, Note_on_c, 15, 55, 77
22, 160919, Note_on_c, 15, 55, 0
22, 160920, Note_on_c, 15, 50, 77
22, 160979, Note_on_c, 15, 50, 0
22, 160980, Note_on_c, 15, 47, 77
22, 161039, Note_on_c, 15, 47, 0
22, 161040, Note_on_c, 15, 43, 77
22, 161099, Note_on_c, 15, 43, 0
22, 161100, Note_on_c, 15, 55, 77
22, 161159, Note_on_c, 15, 55, 0
22, 161160, Note_on_c, 15, 55, 77
22, 161219, Note_on_c, 15, 55, 0
22, 161220, Note_on_c, 15, 43, 77
22, 161279, Note_on_c, 15, 43, 0
22, 161280, Note_on_c, 15, 43, 77
22, 161339, Note_on_c, 15, 43, 0
22, 161340, Note_on_c, 15, 55, 77
22, 161399, Note_on_c, 15, 55, 0
22, 161400, Note_on_c, 15, 55, 77
22, 161459, Note_on_c, 15, 55, 0
22, 161460, Note_on_c, 15, 43, 77
22, 161519, Note_on_c, 15, 43, 0
22, 161520, Note_on_c, 15, 43, 77
22, 161579, Note_on_c, 15, 43, 0
22, 161580, Note_on_c, 15, 55, 77
22, 161639, Note_on_c, 15, 55, 0
22, 161640, Note_on_c, 15, 55, 77
22, 161699, Note_on_c, 15, 55, 0
22, 161700, Note_on_c, 15, 43, 77
22, 161759, Note_on_c, 15, 43, 0
22, 161760, Note_on_c, 15, 43, 77
22, 161819, Note_on_c, 15, 43, 0
22, 161820, Note_on_c, 15, 55, 77
22, 161879, Note_on_c, 15, 55, 0
22, 161880, Note_on_c, 15, 55, 77
22, 161939, Note_on_c, 15, 55, 0
22, 161940, Note_on_c, 15, 43, 77
22, 161999, Note_on_c, 15, 43, 0
22, 162000, Note_on_c, 15, 43, 77
22, 162059, Note_on_c, 15, 43, 0
22, 162060, Note_on_c, 15, 55, 77
22, 162119, Note_on_c, 15, 55, 0
22, 162120, Note_on_c, 15, 55, 77
22, 162179, Note_on_c, 15, 55, 0
22, 162180, Note_on_c, 15, 43, 77
22, 162239, Note_on_c, 15, 43, 0
22, 162240, Note_on_c, 15, 43, 77
22, 162299, Note_on_c, 15, 43, 0
22, 162300, Note_on_c, 15, 55, 77
22, 162359, Note_on_c, 15, 55, 0
22, 162360, Note_on_c, 15, 55, 77
22, 162419, Note_on_c, 15, 55, 0
22, 162420, Note_on_c, 15, 43, 77
22, 162479, Note_on_c, 15, 43, 0
22, 162480, Note_on_c, 15, 43, 77
22, 162539, Note_on_c, 15, 43, 0
22, 162540, Note_on_c, 15, 55, 77
22, 162599, Note_on_c, 15, 55, 0
22, 162600, Note_on_c, 15, 55, 77
22, 162659, Note_on_c, 15, 55, 0
22, 162660, Note_on_c, 15, 43, 77
22, 162719, Note_on_c, 15, 43, 0
22, 162720, Note_on_c, 15, 43, 77
22, 162779, Note_on_c, 15, 43, 0
22, 162780, Note_on_c, 15, 55, 77
22, 162839, Note_on_c, 15, 55, 0
22, 162840, Note_on_c, 15, 55, 77
22, 162899, Note_on_c, 15, 55, 0
22, 162900, Note_on_c, 15, 43, 77
22, 162959, Note_on_c, 15, 43, 0
22, 162960, Note_on_c, 15, 43, 77
22, 163740, Note_on_c, 15, 43, 0
22, 163740, Note_on_c, 15, 45, 77
22, 163799, Note_on_c, 15, 45, 0
22, 163800, Note_on_c, 15, 47, 77
22, 163859, Note_on_c, 15, 47, 0
22, 163860, Note_on_c, 15, 43, 77
22, 163919, Note_on_c, 15, 43, 0
22, 163920, Note_on_c, 15, 48, 77
22, 163979, Note_on_c, 15, 48, 0
22, 164040, Note_on_c, 15, 45, 77
22, 164099, Note_on_c, 15, 45, 0
22, 164160, Note_on_c, 15, 50, 77
22, 164219, Note_on_c, 15, 50, 0
22, 164280, Note_on_c, 15, 47, 77
22, 164339, Note_on_c, 15, 47, 0
22, 164400, Note_on_c, 15, 52, 77
22, 164459, Note_on_c, 15, 52, 0
22, 164460, Note_on_c, 15, 48, 77
22, 164519, Note_on_c, 15, 48, 0
22, 164520, Note_on_c, 15, 50, 77
22, 164579, Note_on_c, 15, 50, 0
22, 164580, Note_on_c, 15, 38, 77
22, 164639, Note_on_c, 15, 38, 0
22, 164640, Note_on_c, 15, 43, 77
22, 164880, Note_on_c, 15, 43, 0
22, 167280, Program_c, 15, 6
22, 167280, Note_on_c, 15, 43, 77
22, 167339, Note_on_c, 15, 43, 0
22, 167340, Note_on_c, 15, 45, 77
22, 167399, Note_on_c, 15, 45, 0
22, 167400, Note_on_c, 15, 47, 77
22, 167459, Note_on_c, 15, 47, 0
22, 167460, Note_on_c, 15, 43, 77
22, 167519, Note_on_c, 15, 43, 0
22, 167520, Note_on_c, 15, 45, 77
22, 167579, Note_on_c, 15, 45, 0
22, 167580, Note_on_c, 15, 47, 77
22, 167639, Note_on_c, 15, 47, 0
22, 167640, Note_on_c, 15, 48, 77
22, 167699, Note_on_c, 15, 48, 0
22, 167700, Note_on_c, 15, 45, 77
22, 167759, Note_on_c, 15, 45, 0
22, 167760, Note_on_c, 15, 47, 77
22, 167819, Note_on_c, 15, 47, 0
22, 167820, Note_on_c, 15, 48, 77
22, 167879, Note_on_c, 15, 48, 0
22, 167880, Note_on_c, 15, 50, 77
22, 167939, Note_on_c, 15, 50, 0
22, 167940, Note_on_c, 15, 47, 77
22, 167999, Note_on_c, 15, 47, 0
22, 168000, Note_on_c, 15, 48, 77
22, 168059, Note_on_c, 15, 48, 0
22, 168060, Note_on_c, 15, 50, 77
22, 168119, Note_on_c, 15, 50, 0
22, 168120, Note_on_c, 15, 52, 77
22, 168179, Note_on_c, 15, 52, 0
22, 168180, Note_on_c, 15, 48, 77
22, 168239, Note_on_c, 15, 48, 0
22, 168240, Note_on_c, 15, 50, 77
22, 168299, Note_on_c, 15, 50, 0
22, 168300, Note_on_c, 15, 52, 77
22, 168359, Note_on_c, 15, 52, 0
22, 168360, Note_on_c, 15, 54, 77
22, 168419, Note_on_c, 15, 54, 0
22, 168420, Note_on_c, 15, 50, 77
22, 168479, Note_on_c, 15, 50, 0
22, 168480, Note_on_c, 15, 52, 77
22, 168539, Note_on_c, 15, 52, 0
22, 168540, Note_on_c, 15, 54, 77
22, 168599, Note_on_c, 15, 54, 0
22, 168600, Note_on_c, 15, 55, 77
22, 168659, Note_on_c, 15, 55, 0
22, 168660, Note_on_c, 15, 52, 77
22, 168719, Note_on_c, 15, 52, 0
22, 168720, Note_on_c, 15, 54, 77
22, 168779, Note_on_c, 15, 54, 0
22, 168780, Note_on_c, 15, 55, 77
22, 168839, Note_on_c, 15, 55, 0
22, 168840, Note_on_c, 15, 57, 77
22, 168899, Note_on_c, 15, 57, 0
22, 168900, Note_on_c, 15, 54, 77
22, 168959, Note_on_c, 15, 54, 0
22, 168960, Note_on_c, 15, 55, 77
22, 169019, Note_on_c, 15, 55, 0
22, 169020, Note_on_c, 15, 50, 77
22, 169079, Note_on_c, 15, 50, 0
22, 169080, Note_on_c, 15, 55, 77
22, 169259, Note_on_c, 15, 55, 0
22, 169260, Note_on_c, 15, 54, 77
22, 169289, Note_on_c, 15, 54, 0
22, 169290, Note_on_c, 15, 52, 77
22, 169319, Note_on_c, 15, 52, 0
22, 169320, Note_on_c, 15, 54, 77
22, 169379, Note_on_c, 15, 54, 0
22, 169380, Note_on_c, 15, 59, 77
22, 169439, Note_on_c, 15, 59, 0
22, 169440, Note_on_c, 15, 55, 77
22, 169499, Note_on_c, 15, 55, 0
22, 169500, Note_on_c, 15, 52, 77
22, 169559, Note_on_c, 15, 52, 0
22, 169560, Note_on_c, 15, 57, 77
22, 169619, Note_on_c, 15, 57, 0
22, 169620, Note_on_c, 15, 55, 77
22, 169679, Note_on_c, 15, 55, 0
22, 169680, Note_on_c, 15, 54, 77
22, 169739, Note_on_c, 15, 54, 0
22, 169740, Note_on_c, 15, 55, 77
22, 169769, Note_on_c, 15, 55, 0
22, 169770, Note_on_c, 15, 57, 77
22, 169799, Note_on_c, 15, 57, 0
22, 169800, Note_on_c, 15, 59, 77
22, 169859, Note_on_c, 15, 59, 0
22, 169860, Note_on_c, 15, 64, 77
22, 169919, Note_on_c, 15, 64, 0
22, 169920, Note_on_c, 15, 61, 77
22, 169979, Note_on_c, 15, 61, 0
22, 169980, Note_on_c, 15, 57, 77
22, 170039, Note_on_c, 15, 57, 0
22, 170040, Note_on_c, 15, 62, 77
22, 170099, Note_on_c, 15, 62, 0
22, 170100, Note_on_c, 15, 60, 77
22, 170159, Note_on_c, 15, 60, 0
22, 170160, Note_on_c, 15, 59, 77
22, 170219, Note_on_c, 15, 59, 0
22, 170220, Note_on_c, 15, 57, 77
22, 170249, Note_on_c, 15, 57, 0
22, 170250, Note_on_c, 15, 59, 77
22, 170279, Note_on_c, 15, 59, 0
22, 170280, Note_on_c, 15, 61, 77
22, 170339, Note_on_c, 15, 61, 0
22, 170340, Note_on_c, 15, 59, 77
22, 170369, Note_on_c, 15, 59, 0
22, 170370, Note_on_c, 15, 61, 77
22, 170399, Note_on_c, 15, 61, 0
22, 170400, Note_on_c, 15, 62, 77
22, 170459, Note_on_c, 15, 62, 0
22, 170460, Note_on_c, 15, 61, 77
22, 170519, Note_on_c, 15, 61, 0
22, 170520, Note_on_c, 15, 59, 77
22, 170579, Note_on_c, 15, 59, 0
22, 170580, Note_on_c, 15, 57, 77
22, 170639, Note_on_c, 15, 57, 0
22, 170640, Note_on_c, 15, 55, 77
22, 170699, Note_on_c, 15, 55, 0
22, 170700, Note_on_c, 15, 54, 77
22, 170729, Note_on_c, 15, 54, 0
22, 170730, Note_on_c, 15, 55, 77
22, 170759, Note_on_c, 15, 55, 0
22, 170760, Note_on_c, 15, 57, 77
22, 170819, Note_on_c, 15, 57, 0
22, 170820, Note_on_c, 15, 55, 77
22, 170849, Note_on_c, 15, 55, 0
22, 170850, Note_on_c, 15, 57, 77
22, 170879, Note_on_c, 15, 57, 0
22, 170880, Note_on_c, 15, 59, 77
22, 170939, Note_on_c, 15, 59, 0
22, 170940, Note_on_c, 15, 55, 77
22, 170999, Note_on_c, 15, 55, 0
22, 171000, Note_on_c, 15, 57, 77
22, 171059, Note_on_c, 15, 57, 0
22, 171060, Note_on_c, 15, 45, 77
22, 171119, Note_on_c, 15, 45, 0
22, 171120, Note_on_c, 15, 50, 77
22, 171179, Note_on_c, 15, 50, 0
22, 171180, Note_on_c, 15, 52, 77
22, 171239, Note_on_c, 15, 52, 0
22, 171240, Note_on_c, 15, 54, 77
22, 171299, Note_on_c, 15, 54, 0
22, 171300, Note_on_c, 15, 50, 77
22, 171359, Note_on_c, 15, 50, 0
22, 171360, Note_on_c, 15, 52, 77
22, 171419, Note_on_c, 15, 52, 0
22, 171420, Note_on_c, 15, 54, 77
22, 171479, Note_on_c, 15, 54, 0
22, 171480, Note_on_c, 15, 55, 77
22, 171539, Note_on_c, 15, 55, 0
22, 171540, Note_on_c, 15, 52, 77
22, 171599, Note_on_c, 15, 52, 0
22, 171600, Note_on_c, 15, 54, 77
22, 171659, Note_on_c, 15, 54, 0
22, 171660, Note_on_c, 15, 55, 77
22, 171719, Note_on_c, 15, 55, 0
22, 171720, Note_on_c, 15, 57, 77
22, 171779, Note_on_c, 15, 57, 0
22, 171780, Note_on_c, 15, 54, 77
22, 171839, Note_on_c, 15, 54, 0
22, 171840, Note_on_c, 15, 55, 77
22, 171899, Note_on_c, 15, 55, 0
22, 171900, Note_on_c, 15, 57, 77
22, 171959, Note_on_c, 15, 57, 0
22, 171960, Note_on_c, 15, 59, 77
22, 172019, Note_on_c, 15, 59, 0
22, 172020, Note_on_c, 15, 55, 77
22, 172079, Note_on_c, 15, 55, 0
22, 172080, Note_on_c, 15, 52, 77
22, 172139, Note_on_c, 15, 52, 0
22, 172140, Note_on_c, 15, 54, 77
22, 172199, Note_on_c, 15, 54, 0
22, 172200, Note_on_c, 15, 55, 77
22, 172259, Note_on_c, 15, 55, 0
22, 172260, Note_on_c, 15, 52, 77
22, 172319, Note_on_c, 15, 52, 0
22, 172320, Note_on_c, 15, 54, 77
22, 172379, Note_on_c, 15, 54, 0
22, 172380, Note_on_c, 15, 56, 77
22, 172439, Note_on_c, 15, 56, 0
22, 172440, Note_on_c, 15, 57, 77
22, 172499, Note_on_c, 15, 57, 0
22, 172500, Note_on_c, 15, 54, 77
22, 172559, Note_on_c, 15, 54, 0
22, 172560, Note_on_c, 15, 56, 77
22, 172619, Note_on_c, 15, 56, 0
22, 172620, Note_on_c, 15, 57, 77
22, 172679, Note_on_c, 15, 57, 0
22, 172680, Note_on_c, 15, 59, 77
22, 172739, Note_on_c, 15, 59, 0
22, 172740, Note_on_c, 15, 56, 77
22, 172799, Note_on_c, 15, 56, 0
22, 172800, Note_on_c, 15, 57, 77
22, 172859, Note_on_c, 15, 57, 0
22, 172860, Note_on_c, 15, 52, 77
22, 172919, Note_on_c, 15, 52, 0
22, 172920, Note_on_c, 15, 57, 77
22, 173099, Note_on_c, 15, 57, 0
22, 173100, Note_on_c, 15, 55, 77
22, 173129, Note_on_c, 15, 55, 0
22, 173130, Note_on_c, 15, 54, 77
22, 173159, Note_on_c, 15, 54, 0
22, 173160, Note_on_c, 15, 55, 77
22, 173219, Note_on_c, 15, 55, 0
22, 173220, Note_on_c, 15, 60, 77
22, 173279, Note_on_c, 15, 60, 0
22, 173280, Note_on_c, 15, 57, 77
22, 173339, Note_on_c, 15, 57, 0
22, 173340, Note_on_c, 15, 54, 77
22, 173399, Note_on_c, 15, 54, 0
22, 173400, Note_on_c, 15, 59, 77
22, 173459, Note_on_c, 15, 59, 0
22, 173460, Note_on_c, 15, 57, 77
22, 173519, Note_on_c, 15, 57, 0
22, 173520, Note_on_c, 15, 55, 77
22, 173579, Note_on_c, 15, 55, 0
22, 173580, Note_on_c, 15, 57, 77
22, 173609, Note_on_c, 15, 57, 0
22, 173610, Note_on_c, 15, 59, 77
22, 173639, Note_on_c, 15, 59, 0
22, 173640, Note_on_c, 15, 60, 77
22, 173699, Note_on_c, 15, 60, 0
22, 173700, Note_on_c, 15, 57, 77
22, 173759, Note_on_c, 15, 57, 0
22, 173760, Note_on_c, 15, 63, 77
22, 173819, Note_on_c, 15, 63, 0
22, 173820, Note_on_c, 15, 59, 77
22, 173879, Note_on_c, 15, 59, 0
22, 173880, Note_on_c, 15, 64, 77
22, 173939, Note_on_c, 15, 64, 0
22, 173940, Note_on_c, 15, 62, 77
22, 173999, Note_on_c, 15, 62, 0
22, 174000, Note_on_c, 15, 61, 77
22, 174059, Note_on_c, 15, 61, 0
22, 174060, Note_on_c, 15, 59, 77
22, 174089, Note_on_c, 15, 59, 0
22, 174090, Note_on_c, 15, 61, 77
22, 174119, Note_on_c, 15, 61, 0
22, 174120, Note_on_c, 15, 63, 77
22, 174179, Note_on_c, 15, 63, 0
22, 174180, Note_on_c, 15, 61, 77
22, 174209, Note_on_c, 15, 61, 0
22, 174210, Note_on_c, 15, 63, 77
22, 174239, Note_on_c, 15, 63, 0
22, 174240, Note_on_c, 15, 64, 77
22, 174299, Note_on_c, 15, 64, 0
22, 174300, Note_on_c, 15, 62, 77
22, 174359, Note_on_c, 15, 62, 0
22, 174360, Note_on_c, 15, 60, 77
22, 174419, Note_on_c, 15, 60, 0
22, 174420, Note_on_c, 15, 59, 77
22, 174479, Note_on_c, 15, 59, 0
22, 174480, Note_on_c, 15, 57, 77
22, 174539, Note_on_c, 15, 57, 0
22, 174540, Note_on_c, 15, 55, 77
22, 174569, Note_on_c, 15, 55, 0
22, 174570, Note_on_c, 15, 57, 77
22, 174599, Note_on_c, 15, 57, 0
22, 174600, Note_on_c, 15, 59, 77
22, 174659, Note_on_c, 15, 59, 0
22, 174660, Note_on_c, 15, 57, 77
22, 174689, Note_on_c, 15, 57, 0
22, 174690, Note_on_c, 15, 59, 77
22, 174719, Note_on_c, 15, 59, 0
22, 174720, Note_on_c, 15, 60, 77
22, 174779, Note_on_c, 15, 60, 0
22, 174780, Note_on_c, 15, 57, 77
22, 174839, Note_on_c, 15, 57, 0
22, 174840, Note_on_c, 15, 59, 77
22, 174899, Note_on_c, 15, 59, 0
22, 174900, Note_on_c, 15, 47, 77
22, 174959, Note_on_c, 15, 47, 0
22, 174960, Note_on_c, 15, 52, 77
22, 175019, Note_on_c, 15, 52, 0
22, 175020, Note_on_c, 15, 54, 77
22, 175079, Note_on_c, 15, 54, 0
22, 175080, Note_on_c, 15, 55, 77
22, 175139, Note_on_c, 15, 55, 0
22, 175140, Note_on_c, 15, 52, 77
22, 175199, Note_on_c, 15, 52, 0
22, 175200, Note_on_c, 15, 54, 77
22, 175259, Note_on_c, 15, 54, 0
22, 175260, Note_on_c, 15, 55, 77
22, 175319, Note_on_c, 15, 55, 0
22, 175320, Note_on_c, 15, 57, 77
22, 175379, Note_on_c, 15, 57, 0
22, 175380, Note_on_c, 15, 54, 77
22, 175439, Note_on_c, 15, 54, 0
22, 175440, Note_on_c, 15, 56, 77
22, 175499, Note_on_c, 15, 56, 0
22, 175500, Note_on_c, 15, 57, 77
22, 175559, Note_on_c, 15, 57, 0
22, 175560, Note_on_c, 15, 59, 77
22, 175619, Note_on_c, 15, 59, 0
22, 175620, Note_on_c, 15, 56, 77
22, 175679, Note_on_c, 15, 56, 0
22, 175680, Note_on_c, 15, 57, 77
22, 175739, Note_on_c, 15, 57, 0
22, 175740, Note_on_c, 15, 59, 77
22, 175799, Note_on_c, 15, 59, 0
22, 175800, Note_on_c, 15, 60, 77
22, 175859, Note_on_c, 15, 60, 0
22, 175860, Note_on_c, 15, 57, 77
22, 175919, Note_on_c, 15, 57, 0
22, 175920, Note_on_c, 15, 50, 77
22, 175979, Note_on_c, 15, 50, 0
22, 175980, Note_on_c, 15, 52, 77
22, 176039, Note_on_c, 15, 52, 0
22, 176040, Note_on_c, 15, 54, 77
22, 176099, Note_on_c, 15, 54, 0
22, 176100, Note_on_c, 15, 50, 77
22, 176159, Note_on_c, 15, 50, 0
22, 176160, Note_on_c, 15, 52, 77
22, 176219, Note_on_c, 15, 52, 0
22, 176220, Note_on_c, 15, 54, 77
22, 176279, Note_on_c, 15, 54, 0
22, 176280, Note_on_c, 15, 55, 77
22, 176339, Note_on_c, 15, 55, 0
22, 176340, Note_on_c, 15, 52, 77
22, 176399, Note_on_c, 15, 52, 0
22, 176400, Note_on_c, 15, 54, 77
22, 176459, Note_on_c, 15, 54, 0
22, 176460, Note_on_c, 15, 55, 77
22, 176519, Note_on_c, 15, 55, 0
22, 176520, Note_on_c, 15, 57, 77
22, 176579, Note_on_c, 15, 57, 0
22, 176580, Note_on_c, 15, 54, 77
22, 176639, Note_on_c, 15, 54, 0
22, 176640, Note_on_c, 15, 55, 77
22, 176699, Note_on_c, 15, 55, 0
22, 176700, Note_on_c, 15, 47, 77
22, 176759, Note_on_c, 15, 47, 0
22, 176760, Note_on_c, 15, 52, 77
22, 176939, Note_on_c, 15, 52, 0
22, 176940, Note_on_c, 15, 50, 77
22, 176969, Note_on_c, 15, 50, 0
22, 176970, Note_on_c, 15, 49, 77
22, 176999, Note_on_c, 15, 49, 0
22, 177000, Note_on_c, 15, 50, 77
22, 177059, Note_on_c, 15, 50, 0
22, 177060, Note_on_c, 15, 55, 77
22, 177119, Note_on_c, 15, 55, 0
22, 177120, Note_on_c, 15, 52, 77
22, 177179, Note_on_c, 15, 52, 0
22, 177180, Note_on_c, 15, 49, 77
22, 177239, Note_on_c, 15, 49, 0
22, 177240, Note_on_c, 15, 54, 77
22, 177299, Note_on_c, 15, 54, 0
22, 177300, Note_on_c, 15, 52, 77
22, 177359, Note_on_c, 15, 52, 0
22, 177360, Note_on_c, 15, 50, 77
22, 177419, Note_on_c, 15, 50, 0
22, 177420, Note_on_c, 15, 52, 77
22, 177449, Note_on_c, 15, 52, 0
22, 177450, Note_on_c, 15, 54, 77
22, 177479, Note_on_c, 15, 54, 0
22, 177480, Note_on_c, 15, 55, 77
22, 177539, Note_on_c, 15, 55, 0
22, 177540, Note_on_c, 15, 52, 77
22, 177599, Note_on_c, 15, 52, 0
22, 177600, Note_on_c, 15, 58, 77
22, 177659, Note_on_c, 15, 58, 0
22, 177660, Note_on_c, 15, 54, 77
22, 177719, Note_on_c, 15, 54, 0
22, 177720, Note_on_c, 15, 59, 77
22, 177779, Note_on_c, 15, 59, 0
22, 177780, Note_on_c, 15, 57, 77
22, 177839, Note_on_c, 15, 57, 0
22, 177840, Note_on_c, 15, 56, 77
22, 177899, Note_on_c, 15, 56, 0
22, 177900, Note_on_c, 15, 54, 77
22, 177929, Note_on_c, 15, 54, 0
22, 177930, Note_on_c, 15, 56, 77
22, 177959, Note_on_c, 15, 56, 0
22, 177960, Note_on_c, 15, 58, 77
22, 178019, Note_on_c, 15, 58, 0
22, 178020, Note_on_c, 15, 56, 77
22, 178049, Note_on_c, 15, 56, 0
22, 178050, Note_on_c, 15, 58, 77
22, 178079, Note_on_c, 15, 58, 0
22, 178080, Note_on_c, 15, 59, 77
22, 178139, Note_on_c, 15, 59, 0
22, 178140, Note_on_c, 15, 57, 77
22, 178199, Note_on_c, 15, 57, 0
22, 178200, Note_on_c, 15, 55, 77
22, 178259, Note_on_c, 15, 55, 0
22, 178260, Note_on_c, 15, 54, 77
22, 178319, Note_on_c, 15, 54, 0
22, 178320, Note_on_c, 15, 52, 77
22, 178379, Note_on_c, 15, 52, 0
22, 178380, Note_on_c, 15, 50, 77
22, 178409, Note_on_c, 15, 50, 0
22, 178410, Note_on_c, 15, 52, 77
22, 178439, Note_on_c, 15, 52, 0
22, 178440, Note_on_c, 15, 54, 77
22, 178499, Note_on_c, 15, 54, 0
22, 178500, Note_on_c, 15, 52, 77
22, 178529, Note_on_c, 15, 52, 0
22, 178530, Note_on_c, 15, 54, 77
22, 178559, Note_on_c, 15, 54, 0
22, 178560, Note_on_c, 15, 55, 77
22, 178619, Note_on_c, 15, 55, 0
22, 178620, Note_on_c, 15, 52, 77
22, 178679, Note_on_c, 15, 52, 0
22, 178680, Note_on_c, 15, 54, 77
22, 178739, Note_on_c, 15, 54, 0
22, 178740, Note_on_c, 15, 42, 77
22, 178799, Note_on_c, 15, 42, 0
22, 178800, Note_on_c, 15, 47, 87
22, 179760, Note_on_c, 15, 47, 0
22, 179760, Note_on_c, 15, 40, 87
22, 180720, Note_on_c, 15, 40, 0
22, 180720, Note_on_c, 15, 45, 87
22, 181680, Note_on_c, 15, 45, 0
22, 181680, Note_on_c, 15, 50, 77
22, 181739, Note_on_c, 15, 50, 0
22, 181740, Note_on_c, 15, 52, 77
22, 181799, Note_on_c, 15, 52, 0
22, 181800, Note_on_c, 15, 53, 77
22, 181859, Note_on_c, 15, 53, 0
22, 181860, Note_on_c, 15, 50, 77
22, 181919, Note_on_c, 15, 50, 0
22, 181920, Note_on_c, 15, 55, 77
22, 181979, Note_on_c, 15, 55, 0
22, 181980, Note_on_c, 15, 57, 77
22, 182039, Note_on_c, 15, 57, 0
22, 182040, Note_on_c, 15, 59, 77
22, 182099, Note_on_c, 15, 59, 0
22, 182100, Note_on_c, 15, 55, 77
22, 182159, Note_on_c, 15, 55, 0
22, 182160, Note_on_c, 15, 48, 77
22, 182219, Note_on_c, 15, 48, 0
22, 182220, Note_on_c, 15, 50, 77
22, 182279, Note_on_c, 15, 50, 0
22, 182280, Note_on_c, 15, 52, 77
22, 182339, Note_on_c, 15, 52, 0
22, 182340, Note_on_c, 15, 48, 77
22, 182399, Note_on_c, 15, 48, 0
22, 182400, Note_on_c, 15, 45, 77
22, 182459, Note_on_c, 15, 45, 0
22, 182460, Note_on_c, 15, 47, 77
22, 182519, Note_on_c, 15, 47, 0
22, 182520, Note_on_c, 15, 48, 77
22, 182579, Note_on_c, 15, 48, 0
22, 182580, Note_on_c, 15, 45, 77
22, 182639, Note_on_c, 15, 45, 0
22, 182640, Note_on_c, 15, 50, 77
22, 182699, Note_on_c, 15, 50, 0
22, 182700, Note_on_c, 15, 52, 77
22, 182759, Note_on_c, 15, 52, 0
22, 182760, Note_on_c, 15, 54, 77
22, 182819, Note_on_c, 15, 54, 0
22, 182820, Note_on_c, 15, 50, 77
22, 182879, Note_on_c, 15, 50, 0
22, 182880, Note_on_c, 15, 43, 77
22, 182939, Note_on_c, 15, 43, 0
22, 182940, Note_on_c, 15, 45, 77
22, 182999, Note_on_c, 15, 45, 0
22, 183000, Note_on_c, 15, 47, 77
22, 183059, Note_on_c, 15, 47, 0
22, 183060, Note_on_c, 15, 43, 77
22, 183119, Note_on_c, 15, 43, 0
22, 183120, Note_on_c, 15, 40, 77
22, 183179, Note_on_c, 15, 40, 0
22, 183180, Note_on_c, 15, 42, 77
22, 183239, Note_on_c, 15, 42, 0
22, 183240, Note_on_c, 15, 43, 77
22, 183299, Note_on_c, 15, 43, 0
22, 183300, Note_on_c, 15, 40, 77
22, 183359, Note_on_c, 15, 40, 0
22, 183360, Note_on_c, 15, 45, 77
22, 183419, Note_on_c, 15, 45, 0
22, 183420, Note_on_c, 15, 43, 77
22, 183449, Note_on_c, 15, 43, 0
22, 183450, Note_on_c, 15, 42, 77
22, 183479, Note_on_c, 15, 42, 0
22, 183480, Note_on_c, 15, 40, 77
22, 183539, Note_on_c, 15, 40, 0
22, 183540, Note_on_c, 15, 45, 77
22, 183599, Note_on_c, 15, 45, 0
22, 183600, Note_on_c, 15, 42, 77
22, 183659, Note_on_c, 15, 42, 0
22, 183660, Note_on_c, 15, 43, 77
22, 183719, Note_on_c, 15, 43, 0
22, 183720, Note_on_c, 15, 45, 77
22, 183779, Note_on_c, 15, 45, 0
22, 183780, Note_on_c, 15, 57, 77
22, 183839, Note_on_c, 15, 57, 0
22, 183840, Note_on_c, 15, 50, 77
22, 183899, Note_on_c, 15, 50, 0
22, 183900, Note_on_c, 15, 52, 77
22, 183959, Note_on_c, 15, 52, 0
22, 183960, Note_on_c, 15, 54, 77
22, 184019, Note_on_c, 15, 54, 0
22, 184020, Note_on_c, 15, 50, 77
22, 184079, Note_on_c, 15, 50, 0
22, 184080, Note_on_c, 15, 55, 77
22, 184139, Note_on_c, 15, 55, 0
22, 184140, Note_on_c, 15, 57, 77
22, 184199, Note_on_c, 15, 57, 0
22, 184200, Note_on_c, 15, 59, 77
22, 184259, Note_on_c, 15, 59, 0
22, 184260, Note_on_c, 15, 55, 77
22, 184319, Note_on_c, 15, 55, 0
22, 184320, Note_on_c, 15, 52, 77
22, 184379, Note_on_c, 15, 52, 0
22, 184380, Note_on_c, 15, 54, 77
22, 184439, Note_on_c, 15, 54, 0
22, 184440, Note_on_c, 15, 55, 77
22, 184499, Note_on_c, 15, 55, 0
22, 184500, Note_on_c, 15, 52, 77
22, 184559, Note_on_c, 15, 52, 0
22, 184560, Note_on_c, 15, 57, 77
22, 184619, Note_on_c, 15, 57, 0
22, 184620, Note_on_c, 15, 59, 77
22, 184679, Note_on_c, 15, 59, 0
22, 184680, Note_on_c, 15, 61, 77
22, 184739, Note_on_c, 15, 61, 0
22, 184740, Note_on_c, 15, 57, 77
22, 184799, Note_on_c, 15, 57, 0
22, 184800, Note_on_c, 15, 54, 77
22, 184859, Note_on_c, 15, 54, 0
22, 184860, Note_on_c, 15, 55, 77
22, 184919, Note_on_c, 15, 55, 0
22, 184920, Note_on_c, 15, 57, 77
22, 184979, Note_on_c, 15, 57, 0
22, 184980, Note_on_c, 15, 54, 77
22, 185039, Note_on_c, 15, 54, 0
22, 185040, Note_on_c, 15, 59, 77
22, 185099, Note_on_c, 15, 59, 0
22, 185100, Note_on_c, 15, 61, 77
22, 185159, Note_on_c, 15, 61, 0
22, 185160, Note_on_c, 15, 62, 77
22, 185219, Note_on_c, 15, 62, 0
22, 185220, Note_on_c, 15, 59, 77
22, 185279, Note_on_c, 15, 59, 0
22, 185280, Note_on_c, 15, 55, 77
22, 185339, Note_on_c, 15, 55, 0
22, 185340, Note_on_c, 15, 57, 77
22, 185399, Note_on_c, 15, 57, 0
22, 185400, Note_on_c, 15, 59, 77
22, 185459, Note_on_c, 15, 59, 0
22, 185460, Note_on_c, 15, 55, 77
22, 185519, Note_on_c, 15, 55, 0
22, 185520, Note_on_c, 15, 60, 77
22, 185579, Note_on_c, 15, 60, 0
22, 185580, Note_on_c, 15, 62, 77
22, 185639, Note_on_c, 15, 62, 0
22, 185640, Note_on_c, 15, 64, 77
22, 185699, Note_on_c, 15, 64, 0
22, 185700, Note_on_c, 15, 60, 77
22, 185759, Note_on_c, 15, 60, 0
22, 185760, Note_on_c, 15, 57, 77
22, 185819, Note_on_c, 15, 57, 0
22, 185820, Note_on_c, 15, 59, 77
22, 185879, Note_on_c, 15, 59, 0
22, 185880, Note_on_c, 15, 60, 77
22, 185939, Note_on_c, 15, 60, 0
22, 185940, Note_on_c, 15, 57, 77
22, 185999, Note_on_c, 15, 57, 0
22, 186000, Note_on_c, 15, 62, 77
22, 186059, Note_on_c, 15, 62, 0
22, 186060, Note_on_c, 15, 57, 77
22, 186119, Note_on_c, 15, 57, 0
22, 186120, Note_on_c, 15, 54, 77
22, 186179, Note_on_c, 15, 54, 0
22, 186180, Note_on_c, 15, 50, 77
22, 186239, Note_on_c, 15, 50, 0
22, 186240, Note_on_c, 15, 59, 77
22, 186299, Note_on_c, 15, 59, 0
22, 186300, Note_on_c, 15, 54, 77
22, 186359, Note_on_c, 15, 54, 0
22, 186360, Note_on_c, 15, 50, 77
22, 186419, Note_on_c, 15, 50, 0
22, 186420, Note_on_c, 15, 47, 77
22, 186479, Note_on_c, 15, 47, 0
22, 186480, Note_on_c, 15, 64, 77
22, 186539, Note_on_c, 15, 64, 0
22, 186540, Note_on_c, 15, 52, 77
22, 186629, Note_on_c, 15, 52, 0
22, 186630, Note_on_c, 15, 55, 77
22, 186659, Note_on_c, 15, 55, 0
22, 186660, Note_on_c, 15, 57, 77
22, 186689, Note_on_c, 15, 57, 0
22, 186690, Note_on_c, 15, 59, 77
22, 186719, Note_on_c, 15, 59, 0
22, 186720, Note_on_c, 15, 60, 77
22, 186779, Note_on_c, 15, 60, 0
22, 186780, Note_on_c, 15, 48, 77
22, 186869, Note_on_c, 15, 48, 0
22, 186870, Note_on_c, 15, 52, 77
22, 186899, Note_on_c, 15, 52, 0
22, 186900, Note_on_c, 15, 53, 77
22, 186929, Note_on_c, 15, 53, 0
22, 186930, Note_on_c, 15, 55, 77
22, 186959, Note_on_c, 15, 55, 0
22, 186960, Note_on_c, 15, 57, 77
22, 187019, Note_on_c, 15, 57, 0
22, 187020, Note_on_c, 15, 45, 77
22, 187139, Note_on_c, 15, 45, 0
22, 187140, Note_on_c, 15, 47, 77
22, 187169, Note_on_c, 15, 47, 0
22, 187170, Note_on_c, 15, 48, 77
22, 187199, Note_on_c, 15, 48, 0
22, 187200, Note_on_c, 15, 50, 77
22, 187259, Note_on_c, 15, 50, 0
22, 187260, Note_on_c, 15, 42, 77
22, 187319, Note_on_c, 15, 42, 0
22, 187320, Note_on_c, 15, 43, 77
22, 187379, Note_on_c, 15, 43, 0
22, 187380, Note_on_c, 15, 45, 77
22, 187439, Note_on_c, 15, 45, 0
22, 187440, Note_on_c, 15, 38, 77
22, 187499, Note_on_c, 15, 38, 0
22, 187500, Note_on_c, 15, 40, 77
22, 187559, Note_on_c, 15, 40, 0
22, 187560, Note_on_c, 15, 42, 77
22, 187619, Note_on_c, 15, 42, 0
22, 187620, Note_on_c, 15, 38, 77
22, 187679, Note_on_c, 15, 38, 0
22, 187680, Note_on_c, 15, 43, 77
22, 187739, Note_on_c, 15, 43, 0
22, 187740, Note_on_c, 15, 55, 77
22, 187799, Note_on_c, 15, 55, 0
22, 187860, Note_on_c, 15, 43, 77
22, 187919, Note_on_c, 15, 43, 0
22, 187920, Note_on_c, 15, 48, 77
22, 187979, Note_on_c, 15, 48, 0
22, 187980, Note_on_c, 15, 50, 77
22, 188039, Note_on_c, 15, 50, 0
22, 188040, Note_on_c, 15, 52, 77
22, 188099, Note_on_c, 15, 52, 0
22, 188100, Note_on_c, 15, 48, 77
22, 188159, Note_on_c, 15, 48, 0
22, 188160, Note_on_c, 15, 45, 77
22, 188219, Note_on_c, 15, 45, 0
22, 188220, Note_on_c, 15, 57, 77
22, 188279, Note_on_c, 15, 57, 0
22, 188340, Note_on_c, 15, 55, 77
22, 188399, Note_on_c, 15, 55, 0
22, 188400, Note_on_c, 15, 54, 77
22, 188459, Note_on_c, 15, 54, 0
22, 188460, Note_on_c, 15, 55, 77
22, 188519, Note_on_c, 15, 55, 0
22, 188520, Note_on_c, 15, 57, 77
22, 188579, Note_on_c, 15, 57, 0
22, 188580, Note_on_c, 15, 54, 77
22, 188639, Note_on_c, 15, 54, 0
22, 188640, Note_on_c, 15, 59, 77
22, 188699, Note_on_c, 15, 59, 0
22, 188700, Note_on_c, 15, 54, 77
22, 188759, Note_on_c, 15, 54, 0
22, 188760, Note_on_c, 15, 51, 77
22, 188819, Note_on_c, 15, 51, 0
22, 188820, Note_on_c, 15, 57, 77
22, 188879, Note_on_c, 15, 57, 0
22, 188880, Note_on_c, 15, 55, 77
22, 188939, Note_on_c, 15, 55, 0
22, 188940, Note_on_c, 15, 57, 77
22, 188999, Note_on_c, 15, 57, 0
22, 189000, Note_on_c, 15, 59, 77
22, 189059, Note_on_c, 15, 59, 0
22, 189060, Note_on_c, 15, 47, 77
22, 189119, Note_on_c, 15, 47, 0
22, 189120, Note_on_c, 15, 52, 77
22, 189179, Note_on_c, 15, 52, 0
22, 189180, Note_on_c, 15, 54, 77
22, 189239, Note_on_c, 15, 54, 0
22, 189240, Note_on_c, 15, 55, 77
22, 189299, Note_on_c, 15, 55, 0
22, 189300, Note_on_c, 15, 52, 77
22, 189359, Note_on_c, 15, 52, 0
22, 189360, Note_on_c, 15, 57, 77
22, 189419, Note_on_c, 15, 57, 0
22, 189420, Note_on_c, 15, 59, 77
22, 189479, Note_on_c, 15, 59, 0
22, 189480, Note_on_c, 15, 60, 77
22, 189539, Note_on_c, 15, 60, 0
22, 189540, Note_on_c, 15, 57, 77
22, 189599, Note_on_c, 15, 57, 0
22, 189600, Note_on_c, 15, 50, 77
22, 189659, Note_on_c, 15, 50, 0
22, 189660, Note_on_c, 15, 52, 77
22, 189719, Note_on_c, 15, 52, 0
22, 189720, Note_on_c, 15, 53, 77
22, 189779, Note_on_c, 15, 53, 0
22, 189780, Note_on_c, 15, 50, 77
22, 189839, Note_on_c, 15, 50, 0
22, 189840, Note_on_c, 15, 47, 77
22, 189899, Note_on_c, 15, 47, 0
22, 189900, Note_on_c, 15, 48, 77
22, 189959, Note_on_c, 15, 48, 0
22, 189960, Note_on_c, 15, 50, 77
22, 190019, Note_on_c, 15, 50, 0
22, 190020, Note_on_c, 15, 47, 77
22, 190079, Note_on_c, 15, 47, 0
22, 190080, Note_on_c, 15, 43, 77
22, 190139, Note_on_c, 15, 43, 0
22, 190140, Note_on_c, 15, 45, 77
22, 190199, Note_on_c, 15, 45, 0
22, 190200, Note_on_c, 15, 47, 77
22, 190259, Note_on_c, 15, 47, 0
22, 190260, Note_on_c, 15, 43, 77
22, 190319, Note_on_c, 15, 43, 0
22, 190320, Note_on_c, 15, 36, 77
22, 190379, Note_on_c, 15, 36, 0
22, 190380, Note_on_c, 15, 38, 77
22, 190439, Note_on_c, 15, 38, 0
22, 190440, Note_on_c, 15, 40, 77
22, 190499, Note_on_c, 15, 40, 0
22, 190500, Note_on_c, 15, 36, 77
22, 190559, Note_on_c, 15, 36, 0
22, 190560, Note_on_c, 15, 38, 77
22, 190619, Note_on_c, 15, 38, 0
22, 190620, Note_on_c, 15, 40, 77
22, 190679, Note_on_c, 15, 40, 0
22, 190680, Note_on_c, 15, 41, 77
22, 190739, Note_on_c, 15, 41, 0
22, 190740, Note_on_c, 15, 38, 77
22, 190799, Note_on_c, 15, 38, 0
22, 190800, Note_on_c, 15, 40, 77
22, 190859, Note_on_c, 15, 40, 0
22, 190860, Note_on_c, 15, 41, 77
22, 190919, Note_on_c, 15, 41, 0
22, 190920, Note_on_c, 15, 43, 77
22, 190979, Note_on_c, 15, 43, 0
22, 190980, Note_on_c, 15, 40, 77
22, 191039, Note_on_c, 15, 40, 0
22, 191040, Note_on_c, 15, 41, 77
22, 191099, Note_on_c, 15, 41, 0
22, 191100, Note_on_c, 15, 43, 77
22, 191159, Note_on_c, 15, 43, 0
22, 191160, Note_on_c, 15, 45, 77
22, 191219, Note_on_c, 15, 45, 0
22, 191220, Note_on_c, 15, 41, 77
22, 191279, Note_on_c, 15, 41, 0
22, 191280, Note_on_c, 15, 43, 77
22, 191339, Note_on_c, 15, 43, 0
22, 191340, Note_on_c, 15, 45, 77
22, 191399, Note_on_c, 15, 45, 0
22, 191400, Note_on_c, 15, 47, 77
22, 191459, Note_on_c, 15, 47, 0
22, 191460, Note_on_c, 15, 43, 77
22, 191519, Note_on_c, 15, 43, 0
22, 191520, Note_on_c, 15, 45, 77
22, 191579, Note_on_c, 15, 45, 0
22, 191580, Note_on_c, 15, 47, 77
22, 191639, Note_on_c, 15, 47, 0
22, 191640, Note_on_c, 15, 48, 77
22, 191699, Note_on_c, 15, 48, 0
22, 191700, Note_on_c, 15, 45, 77
22, 191759, Note_on_c, 15, 45, 0
22, 191760, Note_on_c, 15, 47, 77
22, 191819, Note_on_c, 15, 47, 0
22, 191820, Note_on_c, 15, 48, 77
22, 191879, Note_on_c, 15, 48, 0
22, 191880, Note_on_c, 15, 50, 77
22, 191939, Note_on_c, 15, 50, 0
22, 191940, Note_on_c, 15, 47, 77
22, 191999, Note_on_c, 15, 47, 0
22, 192000, Note_on_c, 15, 48, 77
22, 192059, Note_on_c, 15, 48, 0
22, 192060, Note_on_c, 15, 43, 77
22, 192119, Note_on_c, 15, 43, 0
22, 192120, Note_on_c, 15, 48, 77
22, 192299, Note_on_c, 15, 48, 0
22, 192300, Note_on_c, 15, 47, 77
22, 192329, Note_on_c, 15, 47, 0
22, 192330, Note_on_c, 15, 45, 77
22, 192359, Note_on_c, 15, 45, 0
22, 192360, Note_on_c, 15, 47, 77
22, 192419, Note_on_c, 15, 47, 0
22, 192420, Note_on_c, 15, 52, 77
22, 192479, Note_on_c, 15, 52, 0
22, 192480, Note_on_c, 15, 48, 77
22, 192539, Note_on_c, 15, 48, 0
22, 192540, Note_on_c, 15, 45, 77
22, 192599, Note_on_c, 15, 45, 0
22, 192600, Note_on_c, 15, 50, 77
22, 192659, Note_on_c, 15, 50, 0
22, 192660, Note_on_c, 15, 48, 77
22, 192719, Note_on_c, 15, 48, 0
22, 192720, Note_on_c, 15, 47, 77
22, 192779, Note_on_c, 15, 47, 0
22, 192780, Note_on_c, 15, 48, 77
22, 192809, Note_on_c, 15, 48, 0
22, 192810, Note_on_c, 15, 50, 77
22, 192839, Note_on_c, 15, 50, 0
22, 192840, Note_on_c, 15, 52, 77
22, 192899, Note_on_c, 15, 52, 0
22, 192900, Note_on_c, 15, 57, 77
22, 192959, Note_on_c, 15, 57, 0
22, 192960, Note_on_c, 15, 54, 77
22, 193019, Note_on_c, 15, 54, 0
22, 193020, Note_on_c, 15, 50, 77
22, 193079, Note_on_c, 15, 50, 0
22, 193080, Note_on_c, 15, 55, 77
22, 193139, Note_on_c, 15, 55, 0
22, 193140, Note_on_c, 15, 54, 77
22, 193199, Note_on_c, 15, 54, 0
22, 193200, Note_on_c, 15, 52, 77
22, 193259, Note_on_c, 15, 52, 0
22, 193260, Note_on_c, 15, 50, 77
22, 193289, Note_on_c, 15, 50, 0
22, 193290, Note_on_c, 15, 52, 77
22, 193319, Note_on_c, 15, 52, 0
22, 193320, Note_on_c, 15, 54, 77
22, 193379, Note_on_c, 15, 54, 0
22, 193380, Note_on_c, 15, 52, 77
22, 193409, Note_on_c, 15, 52, 0
22, 193410, Note_on_c, 15, 54, 77
22, 193439, Note_on_c, 15, 54, 0
22, 193440, Note_on_c, 15, 55, 77
22, 193499, Note_on_c, 15, 55, 0
22, 193500, Note_on_c, 15, 54, 77
22, 193559, Note_on_c, 15, 54, 0
22, 193560, Note_on_c, 15, 52, 77
22, 193619, Note_on_c, 15, 52, 0
22, 193620, Note_on_c, 15, 50, 77
22, 193679, Note_on_c, 15, 50, 0
22, 193680, Note_on_c, 15, 48, 77
22, 193739, Note_on_c, 15, 48, 0
22, 193740, Note_on_c, 15, 47, 77
22, 193769, Note_on_c, 15, 47, 0
22, 193770, Note_on_c, 15, 48, 77
22, 193799, Note_on_c, 15, 48, 0
22, 193800, Note_on_c, 15, 50, 77
22, 193859, Note_on_c, 15, 50, 0
22, 193860, Note_on_c, 15, 48, 77
22, 193889, Note_on_c, 15, 48, 0
22, 193890, Note_on_c, 15, 50, 77
22, 193919, Note_on_c, 15, 50, 0
22, 193920, Note_on_c, 15, 52, 77
22, 193979, Note_on_c, 15, 52, 0
22, 193980, Note_on_c, 15, 48, 77
22, 194039, Note_on_c, 15, 48, 0
22, 194040, Note_on_c, 15, 50, 77
22, 194099, Note_on_c, 15, 50, 0
22, 194100, Note_on_c, 15, 38, 77
22, 194159, Note_on_c, 15, 38, 0
22, 194160, Note_on_c, 15, 43, 87
22, 196140, Note_on_c, 15, 43, 0
22, 196140, Note_on_c, 15, 45, 77
22, 196199, Note_on_c, 15, 45, 0
22, 196200, Note_on_c, 15, 47, 77
22, 196259, Note_on_c, 15, 47, 0
22, 196260, Note_on_c, 15, 43, 77
22, 196319, Note_on_c, 15, 43, 0
22, 196320, Note_on_c, 15, 48, 77
22, 196379, Note_on_c, 15, 48, 0
22, 196380, Note_on_c, 15, 50, 77
22, 196439, Note_on_c, 15, 50, 0
22, 196440, Note_on_c, 15, 52, 77
22, 196499, Note_on_c, 15, 52, 0
22, 196500, Note_on_c, 15, 48, 77
22, 196559, Note_on_c, 15, 48, 0
22, 196560, Note_on_c, 15, 45, 77
22, 196619, Note_on_c, 15, 45, 0
22, 196620, Note_on_c, 15, 47, 77
22, 196679, Note_on_c, 15, 47, 0
22, 196680, Note_on_c, 15, 48, 77
22, 196739, Note_on_c, 15, 48, 0
22, 196740, Note_on_c, 15, 45, 77
22, 196799, Note_on_c, 15, 45, 0
22, 196800, Note_on_c, 15, 50, 77
22, 196859, Note_on_c, 15, 50, 0
22, 196860, Note_on_c, 15, 52, 77
22, 196919, Note_on_c, 15, 52, 0
22, 196920, Note_on_c, 15, 54, 77
22, 196979, Note_on_c, 15, 54, 0
22, 196980, Note_on_c, 15, 50, 77
22, 197039, Note_on_c, 15, 50, 0
22, 197040, Note_on_c, 15, 55, 77
22, 197069, Note_on_c, 15, 55, 0
22, 197070, Note_on_c, 15, 54, 77
22, 197099, Note_on_c, 15, 54, 0
22, 197100, Note_on_c, 15, 55, 77
22, 197129, Note_on_c, 15, 55, 0
22, 197130, Note_on_c, 15, 57, 77
22, 197159, Note_on_c, 15, 57, 0
22, 197160, Note_on_c, 15, 59, 77
22, 197189, Note_on_c, 15, 59, 0
22, 197190, Note_on_c, 15, 57, 77
22, 197219, Note_on_c, 15, 57, 0
22, 197220, Note_on_c, 15, 55, 77
22, 197249, Note_on_c, 15, 55, 0
22, 197250, Note_on_c, 15, 54, 77
22, 197279, Note_on_c, 15, 54, 0
22, 197280, Note_on_c, 15, 52, 77
22, 197309, Note_on_c, 15, 52, 0
22, 197310, Note_on_c, 15, 50, 77
22, 197339, Note_on_c, 15, 50, 0
22, 197340, Note_on_c, 15, 52, 77
22, 197369, Note_on_c, 15, 52, 0
22, 197370, Note_on_c, 15, 54, 77
22, 197399, Note_on_c, 15, 54, 0
22, 197400, Note_on_c, 15, 55, 77
22, 197429, Note_on_c, 15, 55, 0
22, 197430, Note_on_c, 15, 54, 77
22, 197459, Note_on_c, 15, 54, 0
22, 197460, Note_on_c, 15, 52, 77
22, 197489, Note_on_c, 15, 52, 0
22, 197490, Note_on_c, 15, 50, 77
22, 197519, Note_on_c, 15, 50, 0
22, 197520, Note_on_c, 15, 49, 77
22, 197759, Note_on_c, 15, 49, 0
22, 197760, Note_on_c, 15, 50, 77
22, 197999, Note_on_c, 15, 50, 0
22, 198000, Note_on_c, 15, 43, 77
22, 198240, Note_on_c, 15, 43, 0
22, 201885, Program_c, 15, 6
22, 201900, Note_on_c, 15, 55, 77
22, 201989, Note_on_c, 15, 55, 0
22, 201990, Note_on_c, 15, 59, 77
22, 202020, Note_on_c, 15, 59, 0
22, 202020, Note_on_c, 15, 62, 77
22, 202080, Note_on_c, 15, 62, 0
22, 202080, Note_on_c, 15, 62, 77
22, 202169, Note_on_c, 15, 62, 0
22, 202170, Note_on_c, 15, 61, 77
22, 202200, Note_on_c, 15, 61, 0
22, 202200, Note_on_c, 15, 62, 77
22, 202260, Note_on_c, 15, 62, 0
22, 202260, Note_on_c, 15, 55, 77
22, 202349, Note_on_c, 15, 55, 0
22, 202350, Note_on_c, 15, 52, 77
22, 202380, Note_on_c, 15, 52, 0
22, 202380, Note_on_c, 15, 57, 77
22, 202440, Note_on_c, 15, 57, 0
22, 202440, Note_on_c, 15, 50, 77
22, 202529, Note_on_c, 15, 50, 0
22, 202530, Note_on_c, 15, 52, 77
22, 202560, Note_on_c, 15, 52, 0
22, 202560, Note_on_c, 15, 54, 77
22, 202620, Note_on_c, 15, 54, 0
22, 202620, Note_on_c, 15, 55, 77
22, 202709, Note_on_c, 15, 55, 0
22, 202710, Note_on_c, 15, 54, 77
22, 202740, Note_on_c, 15, 54, 0
22, 202740, Note_on_c, 15, 55, 77
22, 202800, Note_on_c, 15, 55, 0
22, 202800, Note_on_c, 15, 48, 77
22, 202889, Note_on_c, 15, 48, 0
22, 202890, Note_on_c, 15, 47, 77
22, 202920, Note_on_c, 15, 47, 0
22, 202920, Note_on_c, 15, 48, 77
22, 202980, Note_on_c, 15, 48, 0
22, 202980, Note_on_c, 15, 50, 77
22, 203069, Note_on_c, 15, 50, 0
22, 203070, Note_on_c, 15, 48, 77
22, 203100, Note_on_c, 15, 48, 0
22, 203100, Note_on_c, 15, 50, 77
22, 203160, Note_on_c, 15, 50, 0
22, 203160, Note_on_c, 15, 43, 77
22, 203340, Note_on_c, 15, 43, 0
22, 204420, Note_on_c, 15, 43, 77
22, 204509, Note_on_c, 15, 43, 0
22, 204510, Note_on_c, 15, 47, 77
22, 204539, Note_on_c, 15, 47, 0
22, 204540, Note_on_c, 15, 52, 77
22, 204599, Note_on_c, 15, 52, 0
22, 204600, Note_on_c, 15, 52, 77
22, 204689, Note_on_c, 15, 52, 0
22, 204690, Note_on_c, 15, 50, 77
22, 204719, Note_on_c, 15, 50, 0
22, 204720, Note_on_c, 15, 52, 77
22, 204779, Note_on_c, 15, 52, 0
22, 204780, Note_on_c, 15, 47, 77
22, 204869, Note_on_c, 15, 47, 0
22, 204870, Note_on_c, 15, 50, 77
22, 204899, Note_on_c, 15, 50, 0
22, 204900, Note_on_c, 15, 54, 77
22, 204959, Note_on_c, 15, 54, 0
22, 204960, Note_on_c, 15, 54, 77
22, 205049, Note_on_c, 15, 54, 0
22, 205050, Note_on_c, 15, 52, 77
22, 205079, Note_on_c, 15, 52, 0
22, 205080, Note_on_c, 15, 54, 77
22, 205139, Note_on_c, 15, 54, 0
22, 205140, Note_on_c, 15, 55, 77
22, 205229, Note_on_c, 15, 55, 0
22, 205230, Note_on_c, 15, 54, 77
22, 205259, Note_on_c, 15, 54, 0
22, 205260, Note_on_c, 15, 52, 77
22, 205319, Note_on_c, 15, 52, 0
22, 205320, Note_on_c, 15, 54, 77
22, 205409, Note_on_c, 15, 54, 0
22, 205410, Note_on_c, 15, 57, 77
22, 205439, Note_on_c, 15, 57, 0
22, 205440, Note_on_c, 15, 56, 77
22, 205499, Note_on_c, 15, 56, 0
22, 205500, Note_on_c, 15, 57, 77
22, 205619, Note_on_c, 15, 57, 0
22, 205620, Note_on_c, 15, 45, 77
22, 205679, Note_on_c, 15, 45, 0
22, 205680, Note_on_c, 15, 52, 77
22, 205859, Note_on_c, 15, 52, 0
22, 206940, Note_on_c, 15, 52, 77
22, 207029, Note_on_c, 15, 52, 0
22, 207030, Note_on_c, 15, 50, 77
22, 207059, Note_on_c, 15, 50, 0
22, 207060, Note_on_c, 15, 52, 77
22, 207119, Note_on_c, 15, 52, 0
22, 207120, Note_on_c, 15, 48, 77
22, 207209, Note_on_c, 15, 48, 0
22, 207210, Note_on_c, 15, 52, 77
22, 207239, Note_on_c, 15, 52, 0
22, 207240, Note_on_c, 15, 55, 77
22, 207299, Note_on_c, 15, 55, 0
22, 207300, Note_on_c, 15, 55, 77
22, 207389, Note_on_c, 15, 55, 0
22, 207390, Note_on_c, 15, 54, 77
22, 207419, Note_on_c, 15, 54, 0
22, 207420, Note_on_c, 15, 55, 77
22, 207479, Note_on_c, 15, 55, 0
22, 207480, Note_on_c, 15, 43, 77
22, 207569, Note_on_c, 15, 43, 0
22, 207570, Note_on_c, 15, 47, 77
22, 207599, Note_on_c, 15, 47, 0
22, 207600, Note_on_c, 15, 50, 77
22, 207659, Note_on_c, 15, 50, 0
22, 207660, Note_on_c, 15, 50, 77
22, 207749, Note_on_c, 15, 50, 0
22, 207750, Note_on_c, 15, 49, 77
22, 207779, Note_on_c, 15, 49, 0
22, 207780, Note_on_c, 15, 50, 77
22, 207839, Note_on_c, 15, 50, 0
22, 207840, Note_on_c, 15, 40, 77
22, 207929, Note_on_c, 15, 40, 0
22, 207930, Note_on_c, 15, 49, 77
22, 207959, Note_on_c, 15, 49, 0
22, 207960, Note_on_c, 15, 50, 77
22, 208019, Note_on_c, 15, 50, 0
22, 208020, Note_on_c, 15, 43, 77
22, 208109, Note_on_c, 15, 43, 0
22, 208110, Note_on_c, 15, 40, 77
22, 208139, Note_on_c, 15, 40, 0
22, 208140, Note_on_c, 15, 45, 77
22, 208199, Note_on_c, 15, 45, 0
22, 208200, Note_on_c, 15, 38, 77
22, 208379, Note_on_c, 15, 38, 0
22, 209460, Note_on_c, 15, 52, 77
22, 209549, Note_on_c, 15, 52, 0
22, 209550, Note_on_c, 15, 54, 77
22, 209579, Note_on_c, 15, 54, 0
22, 209580, Note_on_c, 15, 55, 77
22, 209639, Note_on_c, 15, 55, 0
22, 209640, Note_on_c, 15, 57, 77
22, 209729, Note_on_c, 15, 57, 0
22, 209730, Note_on_c, 15, 54, 77
22, 209759, Note_on_c, 15, 54, 0
22, 209760, Note_on_c, 15, 59, 77
22, 209819, Note_on_c, 15, 59, 0
22, 209820, Note_on_c, 15, 55, 77
22, 209909, Note_on_c, 15, 55, 0
22, 209910, Note_on_c, 15, 52, 77
22, 209939, Note_on_c, 15, 52, 0
22, 209940, Note_on_c, 15, 57, 77
22, 209999, Note_on_c, 15, 57, 0
22, 210000, Note_on_c, 15, 54, 77
22, 210089, Note_on_c, 15, 54, 0
22, 210090, Note_on_c, 15, 50, 77
22, 210119, Note_on_c, 15, 50, 0
22, 210120, Note_on_c, 15, 55, 77
22, 210179, Note_on_c, 15, 55, 0
22, 210180, Note_on_c, 15, 48, 77
22, 210269, Note_on_c, 15, 48, 0
22, 210270, Note_on_c, 15, 52, 77
22, 210299, Note_on_c, 15, 52, 0
22, 210300, Note_on_c, 15, 55, 77
22, 210359, Note_on_c, 15, 55, 0
22, 210360, Note_on_c, 15, 55, 77
22, 210449, Note_on_c, 15, 55, 0
22, 210450, Note_on_c, 15, 54, 77
22, 210479, Note_on_c, 15, 54, 0
22, 210480, Note_on_c, 15, 55, 77
22, 210539, Note_on_c, 15, 55, 0
22, 210540, Note_on_c, 15, 48, 77
22, 210629, Note_on_c, 15, 48, 0
22, 210630, Note_on_c, 15, 45, 77
22, 210659, Note_on_c, 15, 45, 0
22, 210660, Note_on_c, 15, 50, 77
22, 210719, Note_on_c, 15, 50, 0
22, 210720, Note_on_c, 15, 43, 77
22, 210900, Note_on_c, 15, 43, 0
22, 210900, End_track
23, 0, Start_track
23, 0, MIDI_port, 0
23, 0, Title_t, "Organ H"
23, 0, Control_c, 15, 7, 127
23, 0, Control_c, 15, 10, 86
23, 45360, Program_c, 15, 19
23, 45360, Note_on_c, 15, 64, 100
23, 45360, Note_on_c, 15, 67, 100
23, 46320, Note_on_c, 15, 67, 0
23, 46320, Note_on_c, 15, 64, 0
23, 46320, Note_on_c, 15, 60, 100
23, 46320, Note_on_c, 15, 69, 100
23, 46320, Note_on_c, 15, 64, 100
23, 46560, Note_on_c, 15, 64, 0
23, 46560, Note_on_c, 15, 69, 0
23, 46560, Note_on_c, 15, 60, 0
23, 46560, Note_on_c, 15, 66, 100
23, 46560, Note_on_c, 15, 69, 100
23, 46560, Note_on_c, 15, 63, 100
23, 47040, Note_on_c, 15, 63, 0
23, 47040, Note_on_c, 15, 69, 0
23, 47040, Note_on_c, 15, 66, 0
23, 47040, Note_on_c, 15, 63, 100
23, 47040, Note_on_c, 15, 71, 100
23, 47040, Note_on_c, 15, 66, 100
23, 47280, Note_on_c, 15, 66, 0
23, 47280, Note_on_c, 15, 71, 0
23, 47280, Note_on_c, 15, 63, 0
23, 47280, Note_on_c, 15, 64, 100
23, 47280, Note_on_c, 15, 67, 100
23, 47280, Note_on_c, 15, 71, 100
23, 47640, Note_on_c, 15, 71, 0
23, 47640, Note_on_c, 15, 67, 0
23, 47640, Note_on_c, 15, 64, 0
23, 47640, Note_on_c, 15, 67, 100
23, 47640, Note_on_c, 15, 64, 100
23, 47640, Note_on_c, 15, 73, 100
23, 47760, Note_on_c, 15, 73, 0
23, 47760, Note_on_c, 15, 64, 0
23, 47760, Note_on_c, 15, 67, 0
23, 47760, Note_on_c, 15, 73, 100
23, 47760, Note_on_c, 15, 64, 100
23, 47760, Note_on_c, 15, 69, 100
23, 48240, Note_on_c, 15, 69, 0
23, 48240, Note_on_c, 15, 64, 0
23, 48240, Note_on_c, 15, 73, 0
23, 48240, Note_on_c, 15, 66, 100
23, 48240, Note_on_c, 15, 69, 100
23, 48240, Note_on_c, 15, 74, 100
23, 48480, Note_on_c, 15, 74, 0
23, 48480, Note_on_c, 15, 69, 0
23, 48480, Note_on_c, 15, 66, 0
23, 48480, Note_on_c, 15, 74, 100
23, 48480, Note_on_c, 15, 64, 100
23, 48480, Note_on_c, 15, 67, 100
23, 48600, Note_on_c, 15, 74, 0
23, 48600, Note_on_c, 15, 73, 100
23, 48720, Note_on_c, 15, 73, 0
23, 48720, Note_on_c, 15, 67, 0
23, 48720, Note_on_c, 15, 64, 0
23, 48720, Note_on_c, 15, 64, 100
23, 48720, Note_on_c, 15, 67, 100
23, 48720, Note_on_c, 15, 71, 100
23, 48840, Note_on_c, 15, 71, 0
23, 48840, Note_on_c, 15, 67, 0
23, 48840, Note_on_c, 15, 64, 0
23, 48840, Note_on_c, 15, 73, 100
23, 48840, Note_on_c, 15, 70, 100
23, 48840, Note_on_c, 15, 66, 100
23, 48960, Note_on_c, 15, 66, 0
23, 48960, Note_on_c, 15, 70, 0
23, 48960, Note_on_c, 15, 73, 0
23, 48960, Note_on_c, 15, 62, 100
23, 48960, Note_on_c, 15, 66, 100
23, 48960, Note_on_c, 15, 71, 100
23, 49080, Note_on_c, 15, 71, 0
23, 49080, Note_on_c, 15, 66, 0
23, 49080, Note_on_c, 15, 62, 0
23, 49080, Note_on_c, 15, 71, 100
23, 49080, Note_on_c, 15, 65, 100
23, 49200, Note_on_c, 15, 65, 0
23, 49200, Note_on_c, 15, 71, 0
23, 49200, Note_on_c, 15, 65, 100
23, 49200, Note_on_c, 15, 62, 100
23, 49320, Note_on_c, 15, 62, 0
23, 49320, Note_on_c, 15, 65, 0
23, 49320, Note_on_c, 15, 71, 100
23, 49320, Note_on_c, 15, 66, 100
23, 49320, Note_on_c, 15, 62, 100
23, 49440, Note_on_c, 15, 62, 0
23, 49440, Note_on_c, 15, 66, 0
23, 49440, Note_on_c, 15, 71, 0
23, 49440, Note_on_c, 15, 68, 100
23, 49440, Note_on_c, 15, 73, 100
23, 49500, Note_on_c, 15, 73, 0
23, 49500, Note_on_c, 15, 68, 0
23, 49560, Note_on_c, 15, 66, 100
23, 49560, Note_on_c, 15, 70, 100
23, 49560, Note_on_c, 15, 73, 100
23, 49620, Note_on_c, 15, 73, 0
23, 49620, Note_on_c, 15, 70, 0
23, 49620, Note_on_c, 15, 66, 0
23, 49680, Note_on_c, 15, 62, 100
23, 49680, Note_on_c, 15, 66, 100
23, 49680, Note_on_c, 15, 71, 100
23, 50160, Note_on_c, 15, 71, 0
23, 50160, Note_on_c, 15, 66, 0
23, 50160, Note_on_c, 15, 62, 0
23, 58320, Program_c, 15, 19
23, 58320, Note_on_c, 15, 69, 100
23, 58320, Note_on_c, 15, 64, 100
23, 58680, Note_on_c, 15, 69, 0
23, 58680, Note_on_c, 15, 67, 100
23, 58800, Note_on_c, 15, 67, 0
23, 58800, Note_on_c, 15, 64, 0
23, 58800, Note_on_c, 15, 69, 100
23, 58800, Note_on_c, 15, 62, 100
23, 58800, Note_on_c, 15, 66, 100
23, 59160, Note_on_c, 15, 66, 0
23, 59160, Note_on_c, 15, 62, 0
23, 59160, Note_on_c, 15, 69, 0
23, 59160, Note_on_c, 15, 64, 100
23, 59160, Note_on_c, 15, 67, 100
23, 59160, Note_on_c, 15, 73, 100
23, 59280, Note_on_c, 15, 73, 0
23, 59280, Note_on_c, 15, 67, 0
23, 59280, Note_on_c, 15, 64, 0
23, 59280, Note_on_c, 15, 69, 100
23, 59280, Note_on_c, 15, 64, 100
23, 59280, Note_on_c, 15, 67, 100
23, 59520, Note_on_c, 15, 67, 0
23, 59520, Note_on_c, 15, 64, 0
23, 59520, Note_on_c, 15, 69, 0
23, 59520, Note_on_c, 15, 73, 100
23, 59520, Note_on_c, 15, 64, 100
23, 59520, Note_on_c, 15, 67, 100
23, 59760, Note_on_c, 15, 67, 0
23, 59760, Note_on_c, 15, 64, 0
23, 59760, Note_on_c, 15, 73, 0
23, 59760, Note_on_c, 15, 66, 100
23, 59760, Note_on_c, 15, 69, 100
23, 59760, Note_on_c, 15, 74, 100
23, 60000, Note_on_c, 15, 74, 0
23, 60000, Note_on_c, 15, 69, 0
23, 60000, Note_on_c, 15, 66, 0
23, 60000, Note_on_c, 15, 71, 100
23, 60000, Note_on_c, 15, 74, 100
23, 60000, Note_on_c, 15, 76, 100
23, 60240, Note_on_c, 15, 76, 0
23, 60240, Note_on_c, 15, 74, 0
23, 60240, Note_on_c, 15, 71, 0
23, 60360, Note_on_c, 15, 64, 100
23, 60360, Note_on_c, 15, 69, 100
23, 60360, Note_on_c, 15, 73, 100
23, 60480, Note_on_c, 15, 73, 0
23, 60480, Note_on_c, 15, 69, 0
23, 60480, Note_on_c, 15, 64, 0
23, 60480, Note_on_c, 15, 74, 100
23, 60480, Note_on_c, 15, 69, 100
23, 60480, Note_on_c, 15, 66, 100
23, 60960, Note_on_c, 15, 66, 0
23, 60960, Note_on_c, 15, 69, 0
23, 60960, Note_on_c, 15, 74, 0
23, 60960, Note_on_c, 15, 76, 100
23, 60960, Note_on_c, 15, 73, 100
23, 60960, Note_on_c, 15, 67, 100
23, 60960, Note_on_c, 15, 70, 100
23, 61200, Note_on_c, 15, 70, 0
23, 61200, Note_on_c, 15, 76, 0
23, 61200, Note_on_c, 15, 73, 0
23, 61200, Note_on_c, 15, 67, 0
23, 61200, Note_on_c, 15, 66, 100
23, 61200, Note_on_c, 15, 76, 100
23, 61200, Note_on_c, 15, 73, 100
23, 61320, Note_on_c, 15, 73, 0
23, 61320, Note_on_c, 15, 76, 0
23, 61320, Note_on_c, 15, 66, 0
23, 61320, Note_on_c, 15, 66, 100
23, 61320, Note_on_c, 15, 64, 100
23, 61320, Note_on_c, 15, 70, 100
23, 61440, Note_on_c, 15, 70, 0
23, 61440, Note_on_c, 15, 64, 0
23, 61440, Note_on_c, 15, 66, 0
23, 61440, Note_on_c, 15, 71, 100
23, 61440, Note_on_c, 15, 62, 100
23, 61440, Note_on_c, 15, 66, 100
23, 61560, Note_on_c, 15, 66, 0
23, 61560, Note_on_c, 15, 62, 0
23, 61560, Note_on_c, 15, 71, 0
23, 61560, Note_on_c, 15, 71, 100
23, 61560, Note_on_c, 15, 66, 100
23, 61560, Note_on_c, 15, 74, 100
23, 61680, Note_on_c, 15, 74, 0
23, 61680, Note_on_c, 15, 66, 0
23, 61680, Note_on_c, 15, 71, 0
23, 61680, Note_on_c, 15, 67, 100
23, 61680, Note_on_c, 15, 71, 100
23, 61680, Note_on_c, 15, 74, 100
23, 61800, Note_on_c, 15, 74, 0
23, 61800, Note_on_c, 15, 71, 0
23, 61800, Note_on_c, 15, 67, 0
23, 61920, Note_on_c, 15, 73, 100
23, 61920, Note_on_c, 15, 66, 100
23, 61920, Note_on_c, 15, 70, 100
23, 62040, Note_on_c, 15, 70, 0
23, 62040, Note_on_c, 15, 66, 0
23, 62040, Note_on_c, 15, 73, 0
23, 62040, Note_on_c, 15, 74, 100
23, 62040, Note_on_c, 15, 71, 100
23, 62040, Note_on_c, 15, 66, 100
23, 62160, Note_on_c, 15, 66, 0
23, 62160, Note_on_c, 15, 71, 0
23, 62160, Note_on_c, 15, 74, 0
23, 62400, Program_c, 15, 19
23, 62400, Note_on_c, 15, 62, 100
23, 62400, Note_on_c, 15, 71, 100
23, 62400, Note_on_c, 15, 67, 100
23, 62880, Note_on_c, 15, 67, 0
23, 62880, Note_on_c, 15, 71, 0
23, 62880, Note_on_c, 15, 62, 0
23, 62880, Note_on_c, 15, 64, 100
23, 62880, Note_on_c, 15, 72, 100
23, 62880, Note_on_c, 15, 67, 100
23, 63360, Note_on_c, 15, 67, 0
23, 63360, Note_on_c, 15, 72, 0
23, 63360, Note_on_c, 15, 64, 0
23, 63360, Note_on_c, 15, 66, 100
23, 63360, Note_on_c, 15, 69, 100
23, 63360, Note_on_c, 15, 72, 100
23, 63600, Note_on_c, 15, 72, 0
23, 63600, Note_on_c, 15, 69, 0
23, 63600, Note_on_c, 15, 66, 0
23, 63600, Note_on_c, 15, 71, 100
23, 63600, Note_on_c, 15, 74, 100
23, 63600, Note_on_c, 15, 67, 100
23, 63840, Note_on_c, 15, 67, 0
23, 63840, Note_on_c, 15, 74, 0
23, 63840, Note_on_c, 15, 71, 0
23, 63840, Note_on_c, 15, 62, 100
23, 63840, Note_on_c, 15, 67, 100
23, 63840, Note_on_c, 15, 71, 100
23, 64200, Note_on_c, 15, 71, 0
23, 64200, Note_on_c, 15, 67, 0
23, 64200, Note_on_c, 15, 62, 0
23, 64200, Note_on_c, 15, 69, 100
23, 64200, Note_on_c, 15, 64, 100
23, 64200, Note_on_c, 15, 73, 100
23, 64320, Note_on_c, 15, 73, 0
23, 64320, Note_on_c, 15, 64, 0
23, 64320, Note_on_c, 15, 69, 0
23, 64560, Note_on_c, 15, 66, 100
23, 64560, Note_on_c, 15, 69, 100
23, 64560, Note_on_c, 15, 74, 100
23, 65040, Note_on_c, 15, 74, 0
23, 65040, Note_on_c, 15, 69, 0
23, 65040, Note_on_c, 15, 66, 0
23, 65040, Note_on_c, 15, 66, 100
23, 65040, Note_on_c, 15, 71, 100
23, 65040, Note_on_c, 15, 75, 100
23, 65280, Note_on_c, 15, 75, 0
23, 65280, Note_on_c, 15, 71, 0
23, 65280, Note_on_c, 15, 66, 0
23, 65280, Note_on_c, 15, 69, 100
23, 65280, Note_on_c, 15, 66, 100
23, 65280, Note_on_c, 15, 72, 100
23, 65760, Note_on_c, 15, 72, 0
23, 65760, Note_on_c, 15, 66, 0
23, 65760, Note_on_c, 15, 69, 0
23, 65760, Note_on_c, 15, 66, 100
23, 65760, Note_on_c, 15, 69, 100
23, 65760, Note_on_c, 15, 75, 100
23, 65820, Note_on_c, 15, 75, 0
23, 65820, Note_on_c, 15, 69, 0
23, 65820, Note_on_c, 15, 66, 0
23, 65880, Note_on_c, 15, 75, 100
23, 65880, Note_on_c, 15, 66, 100
23, 65880, Note_on_c, 15, 72, 100
23, 65940, Note_on_c, 15, 72, 0
23, 65940, Note_on_c, 15, 66, 0
23, 65940, Note_on_c, 15, 75, 0
23, 66000, Note_on_c, 15, 64, 100
23, 66000, Note_on_c, 15, 71, 100
23, 66000, Note_on_c, 15, 67, 100
23, 66060, Note_on_c, 15, 67, 0
23, 66060, Note_on_c, 15, 71, 0
23, 66060, Note_on_c, 15, 64, 0
23, 66120, Note_on_c, 15, 64, 100
23, 66120, Note_on_c, 15, 69, 100
23, 66120, Note_on_c, 15, 72, 100
23, 66180, Note_on_c, 15, 72, 0
23, 66180, Note_on_c, 15, 69, 0
23, 66180, Note_on_c, 15, 64, 0
23, 66360, Note_on_c, 15, 71, 100
23, 66360, Note_on_c, 15, 75, 100
23, 66360, Note_on_c, 15, 66, 100
23, 66480, Note_on_c, 15, 66, 0
23, 66480, Note_on_c, 15, 75, 0
23, 66480, Note_on_c, 15, 71, 0
23, 66480, Note_on_c, 15, 67, 100
23, 66480, Note_on_c, 15, 71, 100
23, 66480, Note_on_c, 15, 76, 100
23, 66720, Note_on_c, 15, 76, 0
23, 66720, Note_on_c, 15, 71, 0
23, 66720, Note_on_c, 15, 67, 0
23, 66960, Program_c, 15, 19
23, 66960, Note_on_c, 15, 67, 90
23, 66960, Note_on_c, 15, 64, 90
23, 67079, Note_on_c, 15, 64, 0
23, 67079, Note_on_c, 15, 67, 0
23, 67080, Note_on_c, 15, 63, 90
23, 67080, Note_on_c, 15, 66, 90
23, 67139, Note_on_c, 15, 66, 0
23, 67139, Note_on_c, 15, 63, 0
23, 67140, Note_on_c, 15, 67, 90
23, 67140, Note_on_c, 15, 64, 90
23, 67199, Note_on_c, 15, 64, 0
23, 67199, Note_on_c, 15, 67, 0
23, 67200, Note_on_c, 15, 69, 90
23, 67200, Note_on_c, 15, 63, 90
23, 67259, Note_on_c, 15, 63, 0
23, 67259, Note_on_c, 15, 69, 0
23, 67260, Note_on_c, 15, 67, 90
23, 67260, Note_on_c, 15, 64, 90
23, 67319, Note_on_c, 15, 64, 0
23, 67319, Note_on_c, 15, 67, 0
23, 67320, Note_on_c, 15, 63, 90
23, 67320, Note_on_c, 15, 66, 90
23, 67379, Note_on_c, 15, 66, 0
23, 67379, Note_on_c, 15, 63, 0
23, 67380, Note_on_c, 15, 67, 90
23, 67380, Note_on_c, 15, 64, 90
23, 67439, Note_on_c, 15, 64, 0
23, 67439, Note_on_c, 15, 67, 0
23, 67440, Note_on_c, 15, 63, 90
23, 67440, Note_on_c, 15, 66, 90
23, 67440, Note_on_c, 15, 69, 90
23, 67499, Note_on_c, 15, 69, 0
23, 67499, Note_on_c, 15, 66, 0
23, 67499, Note_on_c, 15, 63, 0
23, 67500, Note_on_c, 15, 64, 90
23, 67500, Note_on_c, 15, 67, 90
23, 67619, Note_on_c, 15, 67, 0
23, 67619, Note_on_c, 15, 64, 0
23, 81360, Note_on_c, 15, 60, 100
23, 81360, Note_on_c, 15, 62, 100
23, 81540, Note_on_c, 15, 62, 0
23, 81540, Note_on_c, 15, 60, 0
23, 81540, Note_on_c, 15, 62, 100
23, 81540, Note_on_c, 15, 67, 100
23, 81600, Note_on_c, 15, 67, 0
23, 81600, Note_on_c, 15, 66, 100
23, 81660, Note_on_c, 15, 60, 100
23, 81720, Note_on_c, 15, 60, 0
23, 81720, Note_on_c, 15, 66, 0
23, 81720, Note_on_c, 15, 62, 0
23, 81720, Note_on_c, 15, 62, 100
23, 81720, Note_on_c, 15, 67, 100
23, 81840, Note_on_c, 15, 62, 0
23, 81840, Note_on_c, 15, 64, 100
23, 81900, Note_on_c, 15, 64, 0
23, 81900, Note_on_c, 15, 67, 0
23, 81900, Note_on_c, 15, 62, 100
23, 81900, Note_on_c, 15, 67, 100
23, 81960, Note_on_c, 15, 62, 0
23, 81960, Note_on_c, 15, 64, 100
23, 81960, Note_on_c, 15, 61, 100
23, 82080, Note_on_c, 15, 61, 0
23, 82080, Note_on_c, 15, 64, 0
23, 82080, Note_on_c, 15, 67, 0
23, 82080, Note_on_c, 15, 66, 100
23, 82080, Note_on_c, 15, 62, 100
23, 82260, Note_on_c, 15, 62, 0
23, 82260, Note_on_c, 15, 66, 0
23, 82260, Note_on_c, 15, 67, 100
23, 82260, Note_on_c, 15, 62, 100
23, 82320, Note_on_c, 15, 67, 0
23, 82320, Note_on_c, 15, 66, 100
23, 82440, Note_on_c, 15, 66, 0
23, 82440, Note_on_c, 15, 62, 0
23, 82440, Note_on_c, 15, 62, 100
23, 82440, Note_on_c, 15, 67, 100
23, 82560, Note_on_c, 15, 62, 0
23, 82560, Note_on_c, 15, 60, 100
23, 82560, Note_on_c, 15, 64, 100
23, 82620, Note_on_c, 15, 64, 0
23, 82620, Note_on_c, 15, 60, 0
23, 82620, Note_on_c, 15, 67, 0
23, 82620, Note_on_c, 15, 62, 100
23, 82620, Note_on_c, 15, 67, 100
23, 82680, Note_on_c, 15, 62, 0
23, 82680, Note_on_c, 15, 61, 100
23, 82740, Note_on_c, 15, 61, 0
23, 82740, Note_on_c, 15, 69, 100
23, 82800, Note_on_c, 15, 69, 0
23, 82800, Note_on_c, 15, 67, 0
23, 82800, Note_on_c, 15, 62, 100
23, 82800, Note_on_c, 15, 66, 100
23, 82860, Note_on_c, 15, 66, 0
23, 82860, Note_on_c, 15, 66, 100
23, 82860, Note_on_c, 15, 69, 100
23, 82920, Note_on_c, 15, 69, 0
23, 82920, Note_on_c, 15, 66, 0
23, 82920, Note_on_c, 15, 67, 100
23, 82920, Note_on_c, 15, 71, 100
23, 82980, Note_on_c, 15, 71, 0
23, 82980, Note_on_c, 15, 67, 0
23, 82980, Note_on_c, 15, 62, 0
23, 82980, Note_on_c, 15, 66, 100
23, 82980, Note_on_c, 15, 69, 100
23, 82980, Note_on_c, 15, 62, 100
23, 83040, Note_on_c, 15, 69, 0
23, 83040, Note_on_c, 15, 66, 0
23, 83040, Note_on_c, 15, 67, 100
23, 83100, Note_on_c, 15, 67, 0
23, 83100, Note_on_c, 15, 65, 100
23, 83160, Note_on_c, 15, 65, 0
23, 83160, Note_on_c, 15, 62, 0
23, 83160, Note_on_c, 15, 64, 100
23, 83160, Note_on_c, 15, 67, 100
23, 83280, Note_on_c, 15, 67, 0
23, 83280, Note_on_c, 15, 64, 0
23, 83280, Note_on_c, 15, 59, 100
23, 83280, Note_on_c, 15, 62, 100
23, 83280, Note_on_c, 15, 65, 100
23, 83340, Note_on_c, 15, 65, 0
23, 83340, Note_on_c, 15, 62, 0
23, 83340, Note_on_c, 15, 59, 0
23, 83340, Note_on_c, 15, 60, 100
23, 83340, Note_on_c, 15, 67, 100
23, 83340, Note_on_c, 15, 64, 100
23, 83520, Note_on_c, 15, 64, 0
23, 83520, Note_on_c, 15, 67, 0
23, 83520, Note_on_c, 15, 60, 0
23, 83520, Note_on_c, 15, 69, 100
23, 83520, Note_on_c, 15, 64, 100
23, 83520, Note_on_c, 15, 60, 100
23, 83700, Note_on_c, 15, 60, 0
23, 83700, Note_on_c, 15, 64, 0
23, 83700, Note_on_c, 15, 69, 0
23, 83700, Note_on_c, 15, 62, 100
23, 83700, Note_on_c, 15, 66, 100
23, 83700, Note_on_c, 15, 69, 100
23, 83760, Note_on_c, 15, 69, 0
23, 83760, Note_on_c, 15, 66, 0
23, 83760, Note_on_c, 15, 62, 0
23, 83760, Note_on_c, 15, 62, 100
23, 83760, Note_on_c, 15, 67, 100
23, 83820, Note_on_c, 15, 65, 100
23, 83880, Note_on_c, 15, 65, 0
23, 83880, Note_on_c, 15, 67, 0
23, 83880, Note_on_c, 15, 62, 0
23, 83880, Note_on_c, 15, 67, 100
23, 83880, Note_on_c, 15, 64, 100
23, 83940, Note_on_c, 15, 64, 0
23, 83940, Note_on_c, 15, 67, 0
23, 83940, Note_on_c, 15, 71, 100
23, 83940, Note_on_c, 15, 67, 100
23, 84000, Note_on_c, 15, 67, 0
23, 84000, Note_on_c, 15, 71, 0
23, 84000, Note_on_c, 15, 72, 100
23, 84000, Note_on_c, 15, 66, 100
23, 84000, Note_on_c, 15, 69, 100
23, 84060, Note_on_c, 15, 69, 0
23, 84060, Note_on_c, 15, 66, 0
23, 84060, Note_on_c, 15, 72, 0
23, 84060, Note_on_c, 15, 62, 100
23, 84060, Note_on_c, 15, 67, 100
23, 84060, Note_on_c, 15, 71, 100
23, 84120, Note_on_c, 15, 71, 0
23, 84120, Note_on_c, 15, 67, 0
23, 84120, Note_on_c, 15, 62, 0
23, 90720, Program_c, 15, 19
23, 90720, Note_on_c, 15, 66, 100
23, 90720, Note_on_c, 15, 62, 100
23, 91440, Note_on_c, 15, 62, 0
23, 91440, Note_on_c, 15, 66, 0
23, 91440, Note_on_c, 15, 60, 100
23, 91440, Note_on_c, 15, 66, 100
23, 91680, Note_on_c, 15, 66, 0
23, 91680, Note_on_c, 15, 60, 0
23, 91680, Note_on_c, 15, 62, 100
23, 91680, Note_on_c, 15, 59, 100
23, 91680, Note_on_c, 15, 69, 100
23, 91920, Note_on_c, 15, 69, 0
23, 91920, Note_on_c, 15, 59, 0
23, 91920, Note_on_c, 15, 62, 0
23, 91920, Note_on_c, 15, 68, 100
23, 91920, Note_on_c, 15, 65, 100
23, 92040, Note_on_c, 15, 65, 0
23, 92040, Note_on_c, 15, 68, 0
23, 92040, Note_on_c, 15, 64, 100
23, 92040, Note_on_c, 15, 69, 100
23, 92160, Note_on_c, 15, 69, 0
23, 92160, Note_on_c, 15, 64, 0
23, 92280, Note_on_c, 15, 60, 100
23, 92280, Note_on_c, 15, 64, 100
23, 92280, Note_on_c, 15, 69, 100
23, 92340, Note_on_c, 15, 69, 0
23, 92340, Note_on_c, 15, 60, 0
23, 92340, Note_on_c, 15, 59, 100
23, 92340, Note_on_c, 15, 68, 100
23, 92400, Note_on_c, 15, 68, 0
23, 92400, Note_on_c, 15, 59, 0
23, 92400, Note_on_c, 15, 64, 0
23, 92400, Note_on_c, 15, 60, 100
23, 92400, Note_on_c, 15, 64, 100
23, 92400, Note_on_c, 15, 69, 100
23, 92640, Note_on_c, 15, 69, 0
23, 92640, Note_on_c, 15, 64, 0
23, 92640, Note_on_c, 15, 60, 0
23, 92955, Program_c, 15, 19
23, 96960, Program_c, 15, 19
23, 96960, Note_on_c, 15, 60, 90
23, 96960, Note_on_c, 15, 64, 90
23, 96960, Note_on_c, 15, 69, 90
23, 97079, Note_on_c, 15, 69, 0
23, 97079, Note_on_c, 15, 64, 0
23, 97079, Note_on_c, 15, 60, 0
23, 97200, Note_on_c, 15, 60, 90
23, 97200, Note_on_c, 15, 64, 90
23, 97320, Note_on_c, 15, 64, 0
23, 97320, Note_on_c, 15, 60, 0
23, 97320, Note_on_c, 15, 60, 90
23, 97320, Note_on_c, 15, 69, 90
23, 97320, Note_on_c, 15, 64, 90
23, 97379, Note_on_c, 15, 64, 0
23, 97379, Note_on_c, 15, 69, 0
23, 97379, Note_on_c, 15, 60, 0
23, 97440, Note_on_c, 15, 62, 90
23, 97440, Note_on_c, 15, 65, 90
23, 97560, Note_on_c, 15, 65, 0
23, 97560, Note_on_c, 15, 62, 0
23, 97560, Note_on_c, 15, 62, 90
23, 97560, Note_on_c, 15, 65, 90
23, 97560, Note_on_c, 15, 69, 90
23, 97619, Note_on_c, 15, 69, 0
23, 97619, Note_on_c, 15, 65, 0
23, 97619, Note_on_c, 15, 62, 0
23, 97680, Note_on_c, 15, 59, 90
23, 97680, Note_on_c, 15, 62, 90
23, 97800, Note_on_c, 15, 62, 0
23, 97800, Note_on_c, 15, 59, 0
23, 97800, Note_on_c, 15, 68, 90
23, 97800, Note_on_c, 15, 59, 90
23, 97800, Note_on_c, 15, 62, 90
23, 97859, Note_on_c, 15, 62, 0
23, 97859, Note_on_c, 15, 59, 0
23, 97859, Note_on_c, 15, 68, 0
23, 97920, Note_on_c, 15, 60, 90
23, 97920, Note_on_c, 15, 64, 90
23, 98040, Note_on_c, 15, 64, 0
23, 98040, Note_on_c, 15, 60, 0
23, 98040, Note_on_c, 15, 60, 90
23, 98040, Note_on_c, 15, 64, 90
23, 98040, Note_on_c, 15, 69, 90
23, 98099, Note_on_c, 15, 69, 0
23, 98099, Note_on_c, 15, 64, 0
23, 98099, Note_on_c, 15, 60, 0
23, 98160, Note_on_c, 15, 60, 90
23, 98160, Note_on_c, 15, 66, 90
23, 98280, Note_on_c, 15, 66, 0
23, 98280, Note_on_c, 15, 60, 0
23, 98280, Note_on_c, 15, 60, 90
23, 98280, Note_on_c, 15, 66, 90
23, 98280, Note_on_c, 15, 69, 90
23, 98339, Note_on_c, 15, 69, 0
23, 98339, Note_on_c, 15, 66, 0
23, 98339, Note_on_c, 15, 60, 0
23, 98400, Note_on_c, 15, 62, 90
23, 98400, Note_on_c, 15, 67, 90
23, 98520, Note_on_c, 15, 67, 0
23, 98520, Note_on_c, 15, 62, 0
23, 98520, Note_on_c, 15, 62, 90
23, 98520, Note_on_c, 15, 67, 90
23, 98520, Note_on_c, 15, 71, 90
23, 98579, Note_on_c, 15, 71, 0
23, 98579, Note_on_c, 15, 67, 0
23, 98579, Note_on_c, 15, 62, 0
23, 98640, Note_on_c, 15, 62, 90
23, 98640, Note_on_c, 15, 67, 90
23, 98760, Note_on_c, 15, 67, 0
23, 98760, Note_on_c, 15, 62, 0
23, 98760, Note_on_c, 15, 65, 90
23, 98760, Note_on_c, 15, 67, 90
23, 98760, Note_on_c, 15, 71, 90
23, 98819, Note_on_c, 15, 71, 0
23, 98819, Note_on_c, 15, 67, 0
23, 98819, Note_on_c, 15, 65, 0
23, 98880, Note_on_c, 15, 67, 90
23, 98880, Note_on_c, 15, 72, 90
23, 98880, Note_on_c, 15, 64, 90
23, 99360, Note_on_c, 15, 64, 0
23, 99360, Note_on_c, 15, 72, 0
23, 99360, Note_on_c, 15, 67, 0
23, 99360, Note_on_c, 15, 64, 90
23, 99360, Note_on_c, 15, 67, 90
23, 99360, Note_on_c, 15, 70, 90
23, 99840, Note_on_c, 15, 70, 0
23, 99840, Note_on_c, 15, 67, 0
23, 99840, Note_on_c, 15, 64, 0
23, 99840, Note_on_c, 15, 64, 90
23, 99840, Note_on_c, 15, 67, 90
23, 99840, Note_on_c, 15, 69, 90
23, 100320, Note_on_c, 15, 69, 0
23, 100320, Note_on_c, 15, 67, 0
23, 100320, Note_on_c, 15, 64, 0
23, 100320, Note_on_c, 15, 62, 90
23, 100320, Note_on_c, 15, 66, 90
23, 100320, Note_on_c, 15, 69, 90
23, 100560, Note_on_c, 15, 69, 0
23, 100560, Note_on_c, 15, 66, 0
23, 100560, Note_on_c, 15, 62, 0
23, 100560, Note_on_c, 15, 59, 90
23, 100560, Note_on_c, 15, 62, 90
23, 100560, Note_on_c, 15, 67, 90
23, 100680, Note_on_c, 15, 67, 0
23, 100680, Note_on_c, 15, 62, 0
23, 100680, Note_on_c, 15, 59, 0
23, 100680, Note_on_c, 15, 60, 90
23, 100680, Note_on_c, 15, 64, 90
23, 100680, Note_on_c, 15, 67, 90
23, 100800, Note_on_c, 15, 67, 0
23, 100800, Note_on_c, 15, 64, 0
23, 100800, Note_on_c, 15, 60, 0
23, 100800, Note_on_c, 15, 62, 90
23, 100800, Note_on_c, 15, 67, 90
23, 100800, Note_on_c, 15, 71, 90
23, 100920, Note_on_c, 15, 71, 0
23, 100920, Note_on_c, 15, 67, 0
23, 100920, Note_on_c, 15, 62, 0
23, 100920, Note_on_c, 15, 62, 90
23, 100920, Note_on_c, 15, 66, 90
23, 100920, Note_on_c, 15, 69, 90
23, 101040, Note_on_c, 15, 69, 0
23, 101040, Note_on_c, 15, 66, 0
23, 101040, Note_on_c, 15, 62, 0
23, 101040, Note_on_c, 15, 59, 90
23, 101040, Note_on_c, 15, 62, 90
23, 101040, Note_on_c, 15, 67, 90
23, 101279, Note_on_c, 15, 67, 0
23, 101279, Note_on_c, 15, 62, 0
23, 101279, Note_on_c, 15, 59, 0
23, 165120, Program_c, 15, 19
23, 165120, Note_on_c, 15, 61, 100
23, 165120, Note_on_c, 15, 64, 100
23, 165120, Note_on_c, 15, 69, 100
23, 165840, Note_on_c, 15, 69, 0
23, 165840, Note_on_c, 15, 67, 100
23, 166080, Note_on_c, 15, 67, 0
23, 166080, Note_on_c, 15, 64, 0
23, 166080, Note_on_c, 15, 61, 0
23, 166080, Note_on_c, 15, 66, 100
23, 166080, Note_on_c, 15, 62, 100
23, 166200, Note_on_c, 15, 62, 0
23, 166200, Note_on_c, 15, 66, 0
23, 166200, Note_on_c, 15, 66, 100
23, 166200, Note_on_c, 15, 69, 100
23, 166320, Note_on_c, 15, 69, 0
23, 166320, Note_on_c, 15, 66, 0
23, 166320, Note_on_c, 15, 71, 100
23, 166320, Note_on_c, 15, 67, 100
23, 166440, Note_on_c, 15, 67, 0
23, 166440, Note_on_c, 15, 71, 0
23, 166440, Note_on_c, 15, 64, 100
23, 166440, Note_on_c, 15, 67, 100
23, 166440, Note_on_c, 15, 73, 100
23, 166500, Note_on_c, 15, 73, 0
23, 166500, Note_on_c, 15, 64, 0
23, 166500, Note_on_c, 15, 62, 100
23, 166500, Note_on_c, 15, 71, 100
23, 166560, Note_on_c, 15, 71, 0
23, 166560, Note_on_c, 15, 62, 0
23, 166560, Note_on_c, 15, 67, 0
23, 166680, Note_on_c, 15, 69, 100
23, 166680, Note_on_c, 15, 66, 100
23, 166680, Note_on_c, 15, 62, 100
23, 166740, Note_on_c, 15, 62, 0
23, 166740, Note_on_c, 15, 66, 0
23, 166740, Note_on_c, 15, 61, 100
23, 166740, Note_on_c, 15, 64, 100
23, 166800, Note_on_c, 15, 64, 0
23, 166800, Note_on_c, 15, 61, 0
23, 166800, Note_on_c, 15, 69, 0
23, 166800, Note_on_c, 15, 62, 100
23, 166800, Note_on_c, 15, 66, 100
23, 167040, Note_on_c, 15, 66, 0
23, 167040, Note_on_c, 15, 62, 0
23, 198480, Program_c, 15, 19
23, 198480, Note_on_c, 15, 59, 100
23, 198480, Note_on_c, 15, 62, 100
23, 198480, Note_on_c, 15, 67, 100
23, 199200, Note_on_c, 15, 67, 0
23, 199200, Note_on_c, 15, 62, 0
23, 199200, Note_on_c, 15, 64, 100
23, 199200, Note_on_c, 15, 68, 100
23, 199560, Note_on_c, 15, 64, 0
23, 199560, Note_on_c, 15, 62, 100
23, 199680, Note_on_c, 15, 62, 0
23, 199680, Note_on_c, 15, 68, 0
23, 199680, Note_on_c, 15, 59, 0
23, 199680, Note_on_c, 15, 60, 100
23, 199680, Note_on_c, 15, 64, 100
23, 200400, Note_on_c, 15, 64, 0
23, 200400, Note_on_c, 15, 66, 100
23, 200640, Note_on_c, 15, 66, 0
23, 200640, Note_on_c, 15, 60, 0
23, 200640, Note_on_c, 15, 59, 100
23, 200640, Note_on_c, 15, 67, 100
23, 200640, Note_on_c, 15, 62, 100
23, 200760, Note_on_c, 15, 62, 0
23, 200760, Note_on_c, 15, 60, 100
23, 200880, Note_on_c, 15, 60, 0
23, 200880, Note_on_c, 15, 67, 0
23, 200880, Note_on_c, 15, 59, 0
23, 201000, Note_on_c, 15, 59, 100
23, 201000, Note_on_c, 15, 67, 100
23, 201060, Note_on_c, 15, 67, 0
23, 201060, Note_on_c, 15, 59, 0
23, 201060, Note_on_c, 15, 66, 100
23, 201060, Note_on_c, 15, 57, 100
23, 201120, Note_on_c, 15, 57, 0
23, 201120, Note_on_c, 15, 66, 0
23, 201120, Note_on_c, 15, 62, 100
23, 201120, Note_on_c, 15, 59, 100
23, 201120, Note_on_c, 15, 67, 100
23, 201360, Note_on_c, 15, 67, 0
23, 201360, Note_on_c, 15, 59, 0
23, 201360, Note_on_c, 15, 62, 0
23, 201360, End_track
24, 0, Start_track
24, 0, MIDI_port, 0
24, 0, Title_t, "Organ L"
24, 0, Control_c, 15, 7, 127
24, 0, Control_c, 15, 10, 85
24, 45360, Note_on_c, 15, 52, 100
24, 46560, Note_on_c, 15, 52, 0
24, 46560, Note_on_c, 15, 54, 100
24, 47040, Note_on_c, 15, 54, 0
24, 47040, Note_on_c, 15, 47, 100
24, 47280, Note_on_c, 15, 47, 0
24, 47280, Note_on_c, 15, 52, 100
24, 47760, Note_on_c, 15, 52, 0
24, 47760, Note_on_c, 15, 55, 100
24, 48240, Note_on_c, 15, 55, 0
24, 48240, Note_on_c, 15, 54, 100
24, 48480, Note_on_c, 15, 54, 0
24, 48480, Note_on_c, 15, 52, 100
24, 48870, Note_on_c, 15, 52, 0
24, 48870, Note_on_c, 15, 55, 100
24, 48900, Note_on_c, 15, 55, 0
24, 48900, Note_on_c, 15, 54, 100
24, 48930, Note_on_c, 15, 54, 0
24, 48930, Note_on_c, 15, 52, 100
24, 48960, Note_on_c, 15, 52, 0
24, 48960, Note_on_c, 15, 50, 100
24, 48990, Note_on_c, 15, 50, 0
24, 48990, Note_on_c, 15, 49, 100
24, 49020, Note_on_c, 15, 49, 0
24, 49020, Note_on_c, 15, 47, 100
24, 49050, Note_on_c, 15, 47, 0
24, 49050, Note_on_c, 15, 45, 100
24, 49080, Note_on_c, 15, 45, 0
24, 49080, Note_on_c, 15, 44, 100
24, 49230, Note_on_c, 15, 44, 0
24, 49230, Note_on_c, 15, 47, 100
24, 49260, Note_on_c, 15, 47, 0
24, 49260, Note_on_c, 15, 50, 100
24, 49290, Note_on_c, 15, 50, 0
24, 49290, Note_on_c, 15, 49, 100
24, 49320, Note_on_c, 15, 49, 0
24, 49320, Note_on_c, 15, 47, 100
24, 49350, Note_on_c, 15, 47, 0
24, 49350, Note_on_c, 15, 45, 100
24, 49380, Note_on_c, 15, 45, 0
24, 49380, Note_on_c, 15, 44, 100
24, 49410, Note_on_c, 15, 44, 0
24, 49410, Note_on_c, 15, 42, 100
24, 49440, Note_on_c, 15, 42, 0
24, 49440, Note_on_c, 15, 41, 100
24, 49500, Note_on_c, 15, 41, 0
24, 49560, Note_on_c, 15, 42, 100
24, 49620, Note_on_c, 15, 42, 0
24, 49680, Note_on_c, 15, 47, 100
24, 50160, Note_on_c, 15, 47, 0
24, 50490, Program_c, 15, 19
24, 50520, Note_on_c, 15, 55, 90
24, 50579, Note_on_c, 15, 55, 0
24, 50580, Note_on_c, 15, 54, 90
24, 50639, Note_on_c, 15, 54, 0
24, 50640, Note_on_c, 15, 52, 90
24, 50759, Note_on_c, 15, 52, 0
24, 50760, Note_on_c, 15, 50, 90
24, 50879, Note_on_c, 15, 50, 0
24, 50880, Note_on_c, 15, 55, 90
24, 50999, Note_on_c, 15, 55, 0
24, 51000, Note_on_c, 15, 54, 90
24, 51059, Note_on_c, 15, 54, 0
24, 51060, Note_on_c, 15, 55, 90
24, 51119, Note_on_c, 15, 55, 0
24, 51120, Note_on_c, 15, 57, 90
24, 51239, Note_on_c, 15, 57, 0
24, 51240, Note_on_c, 15, 45, 90
24, 51359, Note_on_c, 15, 45, 0
24, 51360, Note_on_c, 15, 50, 90
24, 51449, Note_on_c, 15, 50, 0
24, 51480, Note_on_c, 15, 51, 90
24, 51599, Note_on_c, 15, 51, 0
24, 51600, Note_on_c, 15, 52, 90
24, 51659, Note_on_c, 15, 52, 0
24, 51660, Note_on_c, 15, 54, 90
24, 51719, Note_on_c, 15, 54, 0
24, 51720, Note_on_c, 15, 55, 90
24, 51779, Note_on_c, 15, 55, 0
24, 51780, Note_on_c, 15, 48, 90
24, 51899, Note_on_c, 15, 48, 0
24, 51900, Note_on_c, 15, 47, 90
24, 51959, Note_on_c, 15, 47, 0
24, 51960, Note_on_c, 15, 45, 90
24, 52019, Note_on_c, 15, 45, 0
24, 52020, Note_on_c, 15, 43, 90
24, 52079, Note_on_c, 15, 43, 0
24, 52080, Note_on_c, 15, 50, 90
24, 52199, Note_on_c, 15, 50, 0
24, 52200, Note_on_c, 15, 38, 90
24, 52319, Note_on_c, 15, 38, 0
24, 52320, Note_on_c, 15, 43, 90
24, 52409, Note_on_c, 15, 43, 0
24, 52440, Note_on_c, 15, 55, 90
24, 52499, Note_on_c, 15, 55, 0
24, 52500, Note_on_c, 15, 54, 90
24, 52559, Note_on_c, 15, 54, 0
24, 52560, Note_on_c, 15, 52, 90
24, 52679, Note_on_c, 15, 52, 0
24, 52680, Note_on_c, 15, 50, 90
24, 52799, Note_on_c, 15, 50, 0
24, 52800, Note_on_c, 15, 55, 90
24, 52919, Note_on_c, 15, 55, 0
24, 52920, Note_on_c, 15, 54, 90
24, 52979, Note_on_c, 15, 54, 0
24, 52980, Note_on_c, 15, 55, 90
24, 53039, Note_on_c, 15, 55, 0
24, 53040, Note_on_c, 15, 57, 90
24, 53159, Note_on_c, 15, 57, 0
24, 53160, Note_on_c, 15, 45, 90
24, 53279, Note_on_c, 15, 45, 0
24, 53280, Note_on_c, 15, 50, 90
24, 53369, Note_on_c, 15, 50, 0
24, 53400, Note_on_c, 15, 51, 90
24, 53519, Note_on_c, 15, 51, 0
24, 53520, Note_on_c, 15, 52, 90
24, 53579, Note_on_c, 15, 52, 0
24, 53580, Note_on_c, 15, 54, 90
24, 53639, Note_on_c, 15, 54, 0
24, 53640, Note_on_c, 15, 55, 90
24, 53699, Note_on_c, 15, 55, 0
24, 53700, Note_on_c, 15, 48, 90
24, 53819, Note_on_c, 15, 48, 0
24, 53820, Note_on_c, 15, 47, 90
24, 53879, Note_on_c, 15, 47, 0
24, 53880, Note_on_c, 15, 45, 90
24, 53939, Note_on_c, 15, 45, 0
24, 53940, Note_on_c, 15, 43, 90
24, 53999, Note_on_c, 15, 43, 0
24, 54000, Note_on_c, 15, 50, 90
24, 54119, Note_on_c, 15, 50, 0
24, 54120, Note_on_c, 15, 38, 90
24, 54239, Note_on_c, 15, 38, 0
24, 54240, Note_on_c, 15, 43, 90
24, 54329, Note_on_c, 15, 43, 0
24, 54360, Note_on_c, 15, 50, 90
24, 54479, Note_on_c, 15, 50, 0
24, 54480, Note_on_c, 15, 62, 90
24, 54539, Note_on_c, 15, 62, 0
24, 54540, Note_on_c, 15, 60, 90
24, 54599, Note_on_c, 15, 60, 0
24, 54600, Note_on_c, 15, 59, 90
24, 54719, Note_on_c, 15, 59, 0
24, 54720, Note_on_c, 15, 57, 90
24, 54839, Note_on_c, 15, 57, 0
24, 54840, Note_on_c, 15, 51, 90
24, 54959, Note_on_c, 15, 51, 0
24, 54960, Note_on_c, 15, 52, 90
24, 55079, Note_on_c, 15, 52, 0
24, 55080, Note_on_c, 15, 40, 90
24, 55199, Note_on_c, 15, 40, 0
24, 55200, Note_on_c, 15, 45, 90
24, 55289, Note_on_c, 15, 45, 0
24, 55320, Note_on_c, 15, 52, 90
24, 55379, Note_on_c, 15, 52, 0
24, 55380, Note_on_c, 15, 54, 90
24, 55439, Note_on_c, 15, 54, 0
24, 55440, Note_on_c, 15, 55, 90
24, 55559, Note_on_c, 15, 55, 0
24, 55560, Note_on_c, 15, 56, 90
24, 55679, Note_on_c, 15, 56, 0
24, 55680, Note_on_c, 15, 57, 90
24, 55799, Note_on_c, 15, 57, 0
24, 55800, Note_on_c, 15, 58, 90
24, 55919, Note_on_c, 15, 58, 0
24, 55920, Note_on_c, 15, 59, 90
24, 56039, Note_on_c, 15, 59, 0
24, 56040, Note_on_c, 15, 47, 90
24, 56159, Note_on_c, 15, 47, 0
24, 56160, Note_on_c, 15, 52, 90
24, 56249, Note_on_c, 15, 52, 0
24, 56280, Note_on_c, 15, 50, 90
24, 56339, Note_on_c, 15, 50, 0
24, 56340, Note_on_c, 15, 48, 90
24, 56399, Note_on_c, 15, 48, 0
24, 56400, Note_on_c, 15, 47, 90
24, 56459, Note_on_c, 15, 47, 0
24, 56460, Note_on_c, 15, 45, 90
24, 56519, Note_on_c, 15, 45, 0
24, 56520, Note_on_c, 15, 43, 90
24, 56579, Note_on_c, 15, 43, 0
24, 56580, Note_on_c, 15, 42, 90
24, 56639, Note_on_c, 15, 42, 0
24, 56640, Note_on_c, 15, 40, 90
24, 56699, Note_on_c, 15, 40, 0
24, 56700, Note_on_c, 15, 42, 90
24, 56759, Note_on_c, 15, 42, 0
24, 56760, Note_on_c, 15, 43, 90
24, 56819, Note_on_c, 15, 43, 0
24, 56820, Note_on_c, 15, 40, 90
24, 56879, Note_on_c, 15, 40, 0
24, 56880, Note_on_c, 15, 49, 90
24, 56939, Note_on_c, 15, 49, 0
24, 56940, Note_on_c, 15, 47, 90
24, 56999, Note_on_c, 15, 47, 0
24, 57000, Note_on_c, 15, 49, 90
24, 57059, Note_on_c, 15, 49, 0
24, 57060, Note_on_c, 15, 45, 90
24, 57119, Note_on_c, 15, 45, 0
24, 57120, Note_on_c, 15, 50, 90
24, 57209, Note_on_c, 15, 50, 0
24, 57240, Note_on_c, 15, 47, 90
24, 57359, Note_on_c, 15, 47, 0
24, 57360, Note_on_c, 15, 48, 90
24, 57479, Note_on_c, 15, 48, 0
24, 57480, Note_on_c, 15, 50, 90
24, 57599, Note_on_c, 15, 50, 0
24, 57600, Note_on_c, 15, 52, 90
24, 57659, Note_on_c, 15, 52, 0
24, 57660, Note_on_c, 15, 54, 90
24, 57719, Note_on_c, 15, 54, 0
24, 57720, Note_on_c, 15, 55, 90
24, 57839, Note_on_c, 15, 55, 0
24, 57840, Note_on_c, 15, 48, 90
24, 57959, Note_on_c, 15, 48, 0
24, 57960, Note_on_c, 15, 50, 90
24, 58079, Note_on_c, 15, 50, 0
24, 58080, Note_on_c, 15, 43, 90
24, 58199, Note_on_c, 15, 43, 0
24, 58320, Note_on_c, 15, 49, 100
24, 58800, Note_on_c, 15, 49, 0
24, 58800, Note_on_c, 15, 50, 100
24, 59160, Note_on_c, 15, 50, 0
24, 59160, Note_on_c, 15, 52, 100
24, 59280, Note_on_c, 15, 52, 0
24, 59280, Note_on_c, 15, 49, 100
24, 59520, Note_on_c, 15, 49, 0
24, 59520, Note_on_c, 15, 45, 100
24, 59760, Note_on_c, 15, 45, 0
24, 59760, Note_on_c, 15, 50, 100
24, 60000, Note_on_c, 15, 50, 0
24, 60000, Note_on_c, 15, 44, 100
24, 60240, Note_on_c, 15, 44, 0
24, 60360, Note_on_c, 15, 45, 100
24, 60480, Note_on_c, 15, 45, 0
24, 60480, Note_on_c, 15, 38, 100
24, 60960, Note_on_c, 15, 38, 0
24, 60960, Note_on_c, 15, 49, 100
24, 61200, Note_on_c, 15, 49, 0
24, 61200, Note_on_c, 15, 46, 100
24, 61320, Note_on_c, 15, 46, 0
24, 61320, Note_on_c, 15, 42, 100
24, 61440, Note_on_c, 15, 42, 0
24, 61440, Note_on_c, 15, 47, 100
24, 61560, Note_on_c, 15, 47, 0
24, 61560, Note_on_c, 15, 50, 100
24, 61680, Note_on_c, 15, 50, 0
24, 61680, Note_on_c, 15, 52, 100
24, 61800, Note_on_c, 15, 52, 0
24, 61920, Note_on_c, 15, 54, 100
24, 62040, Note_on_c, 15, 54, 0
24, 62040, Note_on_c, 15, 47, 100
24, 62160, Note_on_c, 15, 47, 0
24, 62400, Note_on_c, 15, 43, 100
24, 64560, Note_on_c, 15, 43, 0
24, 64560, Note_on_c, 15, 42, 100
24, 65280, Note_on_c, 15, 42, 0
24, 65280, Note_on_c, 15, 51, 100
24, 65760, Note_on_c, 15, 51, 0
24, 65760, Note_on_c, 15, 47, 100
24, 65820, Note_on_c, 15, 47, 0
24, 65880, Note_on_c, 15, 45, 100
24, 65940, Note_on_c, 15, 45, 0
24, 66000, Note_on_c, 15, 43, 100
24, 66060, Note_on_c, 15, 43, 0
24, 66120, Note_on_c, 15, 48, 100
24, 66180, Note_on_c, 15, 48, 0
24, 66360, Note_on_c, 15, 47, 100
24, 66480, Note_on_c, 15, 47, 0
24, 66480, Note_on_c, 15, 40, 100
24, 66720, Note_on_c, 15, 40, 0
24, 66920, Program_c, 15, 19
24, 66960, Note_on_c, 15, 52, 90
24, 67079, Note_on_c, 15, 52, 0
24, 67080, Note_on_c, 15, 54, 90
24, 67139, Note_on_c, 15, 54, 0
24, 67140, Note_on_c, 15, 55, 90
24, 67199, Note_on_c, 15, 55, 0
24, 67200, Note_on_c, 15, 54, 90
24, 67259, Note_on_c, 15, 54, 0
24, 67260, Note_on_c, 15, 55, 90
24, 67319, Note_on_c, 15, 55, 0
24, 67320, Note_on_c, 15, 57, 90
24, 67379, Note_on_c, 15, 57, 0
24, 67380, Note_on_c, 15, 55, 90
24, 67439, Note_on_c, 15, 55, 0
24, 67440, Note_on_c, 15, 59, 90
24, 67499, Note_on_c, 15, 59, 0
24, 67500, Note_on_c, 15, 52, 90
24, 67619, Note_on_c, 15, 52, 0
24, 67680, Note_on_c, 15, 57, 90
24, 67739, Note_on_c, 15, 57, 0
24, 67740, Note_on_c, 15, 54, 90
24, 67799, Note_on_c, 15, 54, 0
24, 67800, Note_on_c, 15, 55, 90
24, 67859, Note_on_c, 15, 55, 0
24, 67860, Note_on_c, 15, 60, 90
24, 67919, Note_on_c, 15, 60, 0
24, 67920, Note_on_c, 15, 51, 90
24, 67979, Note_on_c, 15, 51, 0
24, 67980, Note_on_c, 15, 52, 90
24, 68099, Note_on_c, 15, 52, 0
24, 68100, Note_on_c, 15, 48, 90
24, 68159, Note_on_c, 15, 48, 0
24, 68160, Note_on_c, 15, 45, 90
24, 68219, Note_on_c, 15, 45, 0
24, 68220, Note_on_c, 15, 47, 90
24, 68249, Note_on_c, 15, 47, 0
24, 68250, Note_on_c, 15, 48, 90
24, 68279, Note_on_c, 15, 48, 0
24, 68280, Note_on_c, 15, 47, 90
24, 68309, Note_on_c, 15, 47, 0
24, 68310, Note_on_c, 15, 45, 90
24, 68339, Note_on_c, 15, 45, 0
24, 68340, Note_on_c, 15, 43, 90
24, 68369, Note_on_c, 15, 43, 0
24, 68370, Note_on_c, 15, 42, 90
24, 68399, Note_on_c, 15, 42, 0
24, 68400, Note_on_c, 15, 40, 90
24, 68459, Note_on_c, 15, 40, 0
24, 68460, Note_on_c, 15, 59, 90
24, 68519, Note_on_c, 15, 59, 0
24, 68520, Note_on_c, 15, 61, 90
24, 68579, Note_on_c, 15, 61, 0
24, 68580, Note_on_c, 15, 62, 90
24, 68699, Note_on_c, 15, 62, 0
24, 68700, Note_on_c, 15, 50, 90
24, 68759, Note_on_c, 15, 50, 0
24, 68760, Note_on_c, 15, 49, 90
24, 68819, Note_on_c, 15, 49, 0
24, 68820, Note_on_c, 15, 59, 90
24, 68879, Note_on_c, 15, 59, 0
24, 68880, Note_on_c, 15, 58, 90
24, 68939, Note_on_c, 15, 58, 0
24, 68940, Note_on_c, 15, 59, 90
24, 69059, Note_on_c, 15, 59, 0
24, 69060, Note_on_c, 15, 47, 90
24, 69119, Note_on_c, 15, 47, 0
24, 69120, Note_on_c, 15, 52, 90
24, 69179, Note_on_c, 15, 52, 0
24, 69180, Note_on_c, 15, 49, 90
24, 69239, Note_on_c, 15, 49, 0
24, 69240, Note_on_c, 15, 50, 90
24, 69299, Note_on_c, 15, 50, 0
24, 69300, Note_on_c, 15, 55, 90
24, 69359, Note_on_c, 15, 55, 0
24, 69360, Note_on_c, 15, 46, 90
24, 69419, Note_on_c, 15, 46, 0
24, 69420, Note_on_c, 15, 47, 90
24, 69479, Note_on_c, 15, 47, 0
24, 69480, Note_on_c, 15, 38, 90
24, 69539, Note_on_c, 15, 38, 0
24, 69540, Note_on_c, 15, 40, 90
24, 69599, Note_on_c, 15, 40, 0
24, 69600, Note_on_c, 15, 42, 90
24, 69659, Note_on_c, 15, 42, 0
24, 69660, Note_on_c, 15, 47, 90
24, 69719, Note_on_c, 15, 47, 0
24, 69720, Note_on_c, 15, 59, 90
24, 69749, Note_on_c, 15, 59, 0
24, 69750, Note_on_c, 15, 57, 90
24, 69779, Note_on_c, 15, 57, 0
24, 69780, Note_on_c, 15, 55, 90
24, 69809, Note_on_c, 15, 55, 0
24, 69810, Note_on_c, 15, 54, 90
24, 69839, Note_on_c, 15, 54, 0
24, 69840, Note_on_c, 15, 52, 90
24, 69959, Note_on_c, 15, 52, 0
24, 69960, Note_on_c, 15, 54, 90
24, 70019, Note_on_c, 15, 54, 0
24, 70020, Note_on_c, 15, 55, 90
24, 70139, Note_on_c, 15, 55, 0
24, 70140, Note_on_c, 15, 57, 90
24, 70199, Note_on_c, 15, 57, 0
24, 70200, Note_on_c, 15, 55, 90
24, 70260, Note_on_c, 15, 55, 0
24, 70260, Note_on_c, 15, 57, 90
24, 70320, Note_on_c, 15, 57, 0
24, 70320, Note_on_c, 15, 59, 90
24, 70380, Note_on_c, 15, 59, 0
24, 70380, Note_on_c, 15, 52, 90
24, 70440, Note_on_c, 15, 52, 0
24, 70440, Note_on_c, 15, 47, 90
24, 70500, Note_on_c, 15, 47, 0
24, 70500, Note_on_c, 15, 43, 90
24, 70560, Note_on_c, 15, 43, 0
24, 70560, Note_on_c, 15, 40, 90
24, 70679, Note_on_c, 15, 40, 0
24, 70680, Note_on_c, 15, 42, 90
24, 70739, Note_on_c, 15, 42, 0
24, 70740, Note_on_c, 15, 43, 90
24, 70859, Note_on_c, 15, 43, 0
24, 70860, Note_on_c, 15, 42, 90
24, 70919, Note_on_c, 15, 42, 0
24, 70920, Note_on_c, 15, 43, 90
24, 70979, Note_on_c, 15, 43, 0
24, 70980, Note_on_c, 15, 45, 90
24, 71039, Note_on_c, 15, 45, 0
24, 71040, Note_on_c, 15, 47, 90
24, 71099, Note_on_c, 15, 47, 0
24, 71100, Note_on_c, 15, 40, 90
24, 71159, Note_on_c, 15, 40, 0
24, 71160, Note_on_c, 15, 47, 90
24, 71219, Note_on_c, 15, 47, 0
24, 71220, Note_on_c, 15, 52, 90
24, 71309, Note_on_c, 15, 52, 0
24, 71310, Note_on_c, 15, 52, 90
24, 71339, Note_on_c, 15, 52, 0
24, 71340, Note_on_c, 15, 50, 90
24, 71369, Note_on_c, 15, 50, 0
24, 71370, Note_on_c, 15, 48, 90
24, 71399, Note_on_c, 15, 48, 0
24, 71400, Note_on_c, 15, 50, 90
24, 71429, Note_on_c, 15, 50, 0
24, 71430, Note_on_c, 15, 47, 90
24, 71459, Note_on_c, 15, 47, 0
24, 71460, Note_on_c, 15, 43, 90
24, 71489, Note_on_c, 15, 43, 0
24, 71490, Note_on_c, 15, 48, 90
24, 71519, Note_on_c, 15, 48, 0
24, 71520, Note_on_c, 15, 47, 90
24, 71549, Note_on_c, 15, 47, 0
24, 71550, Note_on_c, 15, 45, 90
24, 71579, Note_on_c, 15, 45, 0
24, 71580, Note_on_c, 15, 47, 90
24, 71609, Note_on_c, 15, 47, 0
24, 71610, Note_on_c, 15, 43, 90
24, 71639, Note_on_c, 15, 43, 0
24, 71640, Note_on_c, 15, 47, 90
24, 71699, Note_on_c, 15, 47, 0
24, 71700, Note_on_c, 15, 48, 90
24, 71759, Note_on_c, 15, 48, 0
24, 71760, Note_on_c, 15, 50, 90
24, 71819, Note_on_c, 15, 50, 0
24, 71820, Note_on_c, 15, 43, 90
24, 71879, Note_on_c, 15, 43, 0
24, 71880, Note_on_c, 15, 55, 90
24, 71939, Note_on_c, 15, 55, 0
24, 71940, Note_on_c, 15, 57, 90
24, 71999, Note_on_c, 15, 57, 0
24, 72000, Note_on_c, 15, 59, 90
24, 72119, Note_on_c, 15, 59, 0
24, 72120, Note_on_c, 15, 55, 90
24, 72179, Note_on_c, 15, 55, 0
24, 72180, Note_on_c, 15, 54, 90
24, 72239, Note_on_c, 15, 54, 0
24, 72240, Note_on_c, 15, 50, 90
24, 72299, Note_on_c, 15, 50, 0
24, 72300, Note_on_c, 15, 52, 90
24, 72359, Note_on_c, 15, 52, 0
24, 72360, Note_on_c, 15, 54, 90
24, 72419, Note_on_c, 15, 54, 0
24, 72420, Note_on_c, 15, 52, 90
24, 72479, Note_on_c, 15, 52, 0
24, 72480, Note_on_c, 15, 54, 90
24, 72539, Note_on_c, 15, 54, 0
24, 72540, Note_on_c, 15, 55, 90
24, 72569, Note_on_c, 15, 55, 0
24, 72570, Note_on_c, 15, 54, 90
24, 72599, Note_on_c, 15, 54, 0
24, 72600, Note_on_c, 15, 55, 90
24, 72629, Note_on_c, 15, 55, 0
24, 72630, Note_on_c, 15, 57, 90
24, 72659, Note_on_c, 15, 57, 0
24, 72660, Note_on_c, 15, 59, 90
24, 72689, Note_on_c, 15, 59, 0
24, 72690, Note_on_c, 15, 55, 90
24, 72719, Note_on_c, 15, 55, 0
24, 72720, Note_on_c, 15, 57, 90
24, 72779, Note_on_c, 15, 57, 0
24, 72780, Note_on_c, 15, 55, 90
24, 72839, Note_on_c, 15, 55, 0
24, 72840, Note_on_c, 15, 57, 90
24, 72899, Note_on_c, 15, 57, 0
24, 72900, Note_on_c, 15, 50, 90
24, 72959, Note_on_c, 15, 50, 0
24, 72960, Note_on_c, 15, 54, 90
24, 73019, Note_on_c, 15, 54, 0
24, 73020, Note_on_c, 15, 50, 90
24, 73079, Note_on_c, 15, 50, 0
24, 73080, Note_on_c, 15, 55, 90
24, 73139, Note_on_c, 15, 55, 0
24, 73140, Note_on_c, 15, 62, 90
24, 73169, Note_on_c, 15, 62, 0
24, 73170, Note_on_c, 15, 60, 90
24, 73199, Note_on_c, 15, 60, 0
24, 73200, Note_on_c, 15, 59, 90
24, 73229, Note_on_c, 15, 59, 0
24, 73230, Note_on_c, 15, 57, 90
24, 73259, Note_on_c, 15, 57, 0
24, 73260, Note_on_c, 15, 59, 90
24, 73319, Note_on_c, 15, 59, 0
24, 73320, Note_on_c, 15, 55, 90
24, 73379, Note_on_c, 15, 55, 0
24, 73380, Note_on_c, 15, 59, 90
24, 73439, Note_on_c, 15, 59, 0
24, 73440, Note_on_c, 15, 60, 90
24, 73499, Note_on_c, 15, 60, 0
24, 73500, Note_on_c, 15, 56, 90
24, 73559, Note_on_c, 15, 56, 0
24, 73560, Note_on_c, 15, 52, 90
24, 73619, Note_on_c, 15, 52, 0
24, 73620, Note_on_c, 15, 57, 90
24, 73679, Note_on_c, 15, 57, 0
24, 73680, Note_on_c, 15, 52, 90
24, 73739, Note_on_c, 15, 52, 0
24, 73740, Note_on_c, 15, 45, 90
24, 73799, Note_on_c, 15, 45, 0
24, 73800, Note_on_c, 15, 57, 90
24, 73829, Note_on_c, 15, 57, 0
24, 73830, Note_on_c, 15, 55, 90
24, 73859, Note_on_c, 15, 55, 0
24, 73860, Note_on_c, 15, 54, 90
24, 73889, Note_on_c, 15, 54, 0
24, 73890, Note_on_c, 15, 52, 90
24, 73919, Note_on_c, 15, 52, 0
24, 73920, Note_on_c, 15, 50, 90
24, 73979, Note_on_c, 15, 50, 0
24, 73980, Note_on_c, 15, 55, 90
24, 74039, Note_on_c, 15, 55, 0
24, 74040, Note_on_c, 15, 50, 90
24, 74099, Note_on_c, 15, 50, 0
24, 74100, Note_on_c, 15, 43, 90
24, 74159, Note_on_c, 15, 43, 0
24, 74160, Note_on_c, 15, 55, 90
24, 74189, Note_on_c, 15, 55, 0
24, 74190, Note_on_c, 15, 54, 90
24, 74219, Note_on_c, 15, 54, 0
24, 74220, Note_on_c, 15, 52, 90
24, 74279, Note_on_c, 15, 52, 0
24, 74280, Note_on_c, 15, 59, 90
24, 74339, Note_on_c, 15, 59, 0
24, 74340, Note_on_c, 15, 60, 90
24, 74399, Note_on_c, 15, 60, 0
24, 74400, Note_on_c, 15, 55, 90
24, 74459, Note_on_c, 15, 55, 0
24, 74460, Note_on_c, 15, 54, 90
24, 74519, Note_on_c, 15, 54, 0
24, 74520, Note_on_c, 15, 55, 90
24, 74579, Note_on_c, 15, 55, 0
24, 74580, Note_on_c, 15, 57, 90
24, 74639, Note_on_c, 15, 57, 0
24, 74640, Note_on_c, 15, 59, 90
24, 74699, Note_on_c, 15, 59, 0
24, 74700, Note_on_c, 15, 52, 90
24, 74759, Note_on_c, 15, 52, 0
24, 74760, Note_on_c, 15, 54, 90
24, 74819, Note_on_c, 15, 54, 0
24, 74820, Note_on_c, 15, 55, 90
24, 74879, Note_on_c, 15, 55, 0
24, 74880, Note_on_c, 15, 57, 90
24, 74999, Note_on_c, 15, 57, 0
24, 75000, Note_on_c, 15, 52, 90
24, 75059, Note_on_c, 15, 52, 0
24, 75060, Note_on_c, 15, 48, 90
24, 75179, Note_on_c, 15, 48, 0
24, 75180, Note_on_c, 15, 47, 90
24, 75239, Note_on_c, 15, 47, 0
24, 75240, Note_on_c, 15, 45, 90
24, 75299, Note_on_c, 15, 45, 0
24, 75300, Note_on_c, 15, 47, 90
24, 75359, Note_on_c, 15, 47, 0
24, 75360, Note_on_c, 15, 48, 90
24, 75419, Note_on_c, 15, 48, 0
24, 75420, Note_on_c, 15, 47, 90
24, 75479, Note_on_c, 15, 47, 0
24, 75540, Note_on_c, 15, 47, 90
24, 75600, Note_on_c, 15, 47, 0
24, 75600, Note_on_c, 15, 52, 90
24, 75660, Note_on_c, 15, 52, 0
24, 75660, Note_on_c, 15, 55, 90
24, 75720, Note_on_c, 15, 55, 0
24, 75720, Note_on_c, 15, 52, 90
24, 75780, Note_on_c, 15, 52, 0
24, 75780, Note_on_c, 15, 59, 90
24, 75840, Note_on_c, 15, 59, 0
24, 75840, Note_on_c, 15, 50, 90
24, 75900, Note_on_c, 15, 50, 0
24, 75900, Note_on_c, 15, 55, 90
24, 75960, Note_on_c, 15, 55, 0
24, 75960, Note_on_c, 15, 49, 90
24, 76020, Note_on_c, 15, 49, 0
24, 76020, Note_on_c, 15, 54, 90
24, 76080, Note_on_c, 15, 54, 0
24, 76080, Note_on_c, 15, 46, 90
24, 76140, Note_on_c, 15, 46, 0
24, 76140, Note_on_c, 15, 47, 90
24, 76200, Note_on_c, 15, 47, 0
24, 76200, Note_on_c, 15, 50, 90
24, 76260, Note_on_c, 15, 50, 0
24, 76260, Note_on_c, 15, 47, 90
24, 76320, Note_on_c, 15, 47, 0
24, 76320, Note_on_c, 15, 55, 90
24, 76380, Note_on_c, 15, 55, 0
24, 76380, Note_on_c, 15, 52, 90
24, 76440, Note_on_c, 15, 52, 0
24, 76440, Note_on_c, 15, 50, 90
24, 76500, Note_on_c, 15, 50, 0
24, 76500, Note_on_c, 15, 49, 90
24, 76560, Note_on_c, 15, 49, 0
24, 76560, Note_on_c, 15, 46, 90
24, 76620, Note_on_c, 15, 46, 0
24, 76620, Note_on_c, 15, 47, 90
24, 76680, Note_on_c, 15, 47, 0
24, 76680, Note_on_c, 15, 43, 90
24, 76740, Note_on_c, 15, 43, 0
24, 76740, Note_on_c, 15, 40, 90
24, 76800, Note_on_c, 15, 40, 0
24, 76800, Note_on_c, 15, 42, 90
24, 76860, Note_on_c, 15, 42, 0
24, 76860, Note_on_c, 15, 47, 90
24, 76920, Note_on_c, 15, 47, 0
24, 76920, Note_on_c, 15, 50, 90
24, 76980, Note_on_c, 15, 50, 0
24, 76980, Note_on_c, 15, 47, 90
24, 77040, Note_on_c, 15, 47, 0
24, 77040, Note_on_c, 15, 52, 90
24, 77100, Note_on_c, 15, 52, 0
24, 77100, Note_on_c, 15, 49, 90
24, 77160, Note_on_c, 15, 49, 0
24, 77160, Note_on_c, 15, 50, 90
24, 77220, Note_on_c, 15, 50, 0
24, 77220, Note_on_c, 15, 55, 90
24, 77280, Note_on_c, 15, 55, 0
24, 77280, Note_on_c, 15, 46, 90
24, 77340, Note_on_c, 15, 46, 0
24, 77340, Note_on_c, 15, 47, 90
24, 77459, Note_on_c, 15, 47, 0
24, 77460, Note_on_c, 15, 55, 90
24, 77519, Note_on_c, 15, 55, 0
24, 77520, Note_on_c, 15, 52, 90
24, 77579, Note_on_c, 15, 52, 0
24, 77580, Note_on_c, 15, 54, 90
24, 77609, Note_on_c, 15, 54, 0
24, 77610, Note_on_c, 15, 55, 90
24, 77639, Note_on_c, 15, 55, 0
24, 77640, Note_on_c, 15, 54, 90
24, 77669, Note_on_c, 15, 54, 0
24, 77670, Note_on_c, 15, 52, 90
24, 77699, Note_on_c, 15, 52, 0
24, 77700, Note_on_c, 15, 50, 90
24, 77729, Note_on_c, 15, 50, 0
24, 77730, Note_on_c, 15, 49, 90
24, 77759, Note_on_c, 15, 49, 0
24, 77760, Note_on_c, 15, 50, 90
24, 77819, Note_on_c, 15, 50, 0
24, 77820, Note_on_c, 15, 47, 90
24, 77879, Note_on_c, 15, 47, 0
24, 77880, Note_on_c, 15, 49, 90
24, 77939, Note_on_c, 15, 49, 0
24, 77940, Note_on_c, 15, 50, 90
24, 77999, Note_on_c, 15, 50, 0
24, 78000, Note_on_c, 15, 49, 90
24, 78059, Note_on_c, 15, 49, 0
24, 78060, Note_on_c, 15, 50, 90
24, 78119, Note_on_c, 15, 50, 0
24, 78120, Note_on_c, 15, 52, 90
24, 78179, Note_on_c, 15, 52, 0
24, 78180, Note_on_c, 15, 50, 90
24, 78239, Note_on_c, 15, 50, 0
24, 78240, Note_on_c, 15, 54, 90
24, 78299, Note_on_c, 15, 54, 0
24, 78300, Note_on_c, 15, 47, 90
24, 78419, Note_on_c, 15, 47, 0
24, 78480, Note_on_c, 15, 52, 90
24, 78539, Note_on_c, 15, 52, 0
24, 78540, Note_on_c, 15, 49, 90
24, 78599, Note_on_c, 15, 49, 0
24, 78600, Note_on_c, 15, 50, 90
24, 78659, Note_on_c, 15, 50, 0
24, 78660, Note_on_c, 15, 55, 90
24, 78719, Note_on_c, 15, 55, 0
24, 78720, Note_on_c, 15, 46, 90
24, 78779, Note_on_c, 15, 46, 0
24, 78780, Note_on_c, 15, 47, 90
24, 78839, Note_on_c, 15, 47, 0
24, 78840, Note_on_c, 15, 38, 90
24, 78899, Note_on_c, 15, 38, 0
24, 78900, Note_on_c, 15, 40, 90
24, 78959, Note_on_c, 15, 40, 0
24, 78960, Note_on_c, 15, 42, 90
24, 79019, Note_on_c, 15, 42, 0
24, 79020, Note_on_c, 15, 47, 90
24, 79079, Note_on_c, 15, 47, 0
24, 79080, Note_on_c, 15, 59, 90
24, 79139, Note_on_c, 15, 59, 0
24, 79140, Note_on_c, 15, 57, 90
24, 79199, Note_on_c, 15, 57, 0
24, 79200, Note_on_c, 15, 55, 90
24, 79259, Note_on_c, 15, 55, 0
24, 79260, Note_on_c, 15, 43, 90
24, 79319, Note_on_c, 15, 43, 0
24, 79320, Note_on_c, 15, 45, 90
24, 79379, Note_on_c, 15, 45, 0
24, 79380, Note_on_c, 15, 47, 90
24, 79439, Note_on_c, 15, 47, 0
24, 79440, Note_on_c, 15, 45, 90
24, 79499, Note_on_c, 15, 45, 0
24, 79500, Note_on_c, 15, 47, 90
24, 79619, Note_on_c, 15, 47, 0
24, 79620, Note_on_c, 15, 43, 90
24, 79679, Note_on_c, 15, 43, 0
24, 79680, Note_on_c, 15, 47, 90
24, 79739, Note_on_c, 15, 47, 0
24, 79740, Note_on_c, 15, 48, 90
24, 79799, Note_on_c, 15, 48, 0
24, 79800, Note_on_c, 15, 52, 90
24, 79859, Note_on_c, 15, 52, 0
24, 79860, Note_on_c, 15, 50, 90
24, 79919, Note_on_c, 15, 50, 0
24, 79920, Note_on_c, 15, 49, 90
24, 79979, Note_on_c, 15, 49, 0
24, 79980, Note_on_c, 15, 45, 90
24, 80039, Note_on_c, 15, 45, 0
24, 80040, Note_on_c, 15, 47, 90
24, 80099, Note_on_c, 15, 47, 0
24, 80100, Note_on_c, 15, 49, 90
24, 80159, Note_on_c, 15, 49, 0
24, 80160, Note_on_c, 15, 47, 90
24, 80219, Note_on_c, 15, 47, 0
24, 80220, Note_on_c, 15, 49, 90
24, 80339, Note_on_c, 15, 49, 0
24, 80340, Note_on_c, 15, 45, 90
24, 80399, Note_on_c, 15, 45, 0
24, 80400, Note_on_c, 15, 49, 90
24, 80459, Note_on_c, 15, 49, 0
24, 80460, Note_on_c, 15, 50, 90
24, 80519, Note_on_c, 15, 50, 0
24, 80520, Note_on_c, 15, 49, 90
24, 80579, Note_on_c, 15, 49, 0
24, 80580, Note_on_c, 15, 47, 90
24, 80639, Note_on_c, 15, 47, 0
24, 80640, Note_on_c, 15, 46, 90
24, 80699, Note_on_c, 15, 46, 0
24, 80700, Note_on_c, 15, 58, 90
24, 80759, Note_on_c, 15, 58, 0
24, 80760, Note_on_c, 15, 54, 90
24, 80819, Note_on_c, 15, 54, 0
24, 80820, Note_on_c, 15, 59, 90
24, 80879, Note_on_c, 15, 59, 0
24, 80880, Note_on_c, 15, 50, 90
24, 80939, Note_on_c, 15, 50, 0
24, 80940, Note_on_c, 15, 47, 90
24, 80999, Note_on_c, 15, 47, 0
24, 81000, Note_on_c, 15, 52, 90
24, 81059, Note_on_c, 15, 52, 0
24, 81060, Note_on_c, 15, 56, 90
24, 81119, Note_on_c, 15, 56, 0
24, 81120, Note_on_c, 15, 52, 90
24, 81179, Note_on_c, 15, 52, 0
24, 81180, Note_on_c, 15, 57, 90
24, 81239, Note_on_c, 15, 57, 0
24, 81240, Note_on_c, 15, 48, 90
24, 81299, Note_on_c, 15, 48, 0
24, 81300, Note_on_c, 15, 45, 90
24, 81359, Note_on_c, 15, 45, 0
24, 81360, Note_on_c, 15, 42, 90
24, 81419, Note_on_c, 15, 42, 0
24, 81420, Note_on_c, 15, 54, 90
24, 81479, Note_on_c, 15, 54, 0
24, 81480, Note_on_c, 15, 50, 90
24, 81539, Note_on_c, 15, 50, 0
24, 81540, Note_on_c, 15, 55, 90
24, 81569, Note_on_c, 15, 55, 0
24, 81570, Note_on_c, 15, 50, 90
24, 81599, Note_on_c, 15, 50, 0
24, 81600, Note_on_c, 15, 54, 90
24, 81629, Note_on_c, 15, 54, 0
24, 81630, Note_on_c, 15, 50, 90
24, 81659, Note_on_c, 15, 50, 0
24, 81660, Note_on_c, 15, 57, 90
24, 81689, Note_on_c, 15, 57, 0
24, 81690, Note_on_c, 15, 50, 90
24, 81719, Note_on_c, 15, 50, 0
24, 81720, Note_on_c, 15, 55, 90
24, 81749, Note_on_c, 15, 55, 0
24, 81750, Note_on_c, 15, 50, 90
24, 81779, Note_on_c, 15, 50, 0
24, 81780, Note_on_c, 15, 47, 90
24, 81809, Note_on_c, 15, 47, 0
24, 81810, Note_on_c, 15, 43, 90
24, 81839, Note_on_c, 15, 43, 0
24, 81840, Note_on_c, 15, 48, 90
24, 81869, Note_on_c, 15, 48, 0
24, 81870, Note_on_c, 15, 45, 90
24, 81899, Note_on_c, 15, 45, 0
24, 81900, Note_on_c, 15, 47, 90
24, 81929, Note_on_c, 15, 47, 0
24, 81930, Note_on_c, 15, 55, 90
24, 81959, Note_on_c, 15, 55, 0
24, 81960, Note_on_c, 15, 52, 90
24, 81989, Note_on_c, 15, 52, 0
24, 81990, Note_on_c, 15, 49, 90
24, 82019, Note_on_c, 15, 49, 0
24, 82020, Note_on_c, 15, 45, 90
24, 82049, Note_on_c, 15, 45, 0
24, 82050, Note_on_c, 15, 49, 90
24, 82079, Note_on_c, 15, 49, 0
24, 82080, Note_on_c, 15, 50, 90
24, 82109, Note_on_c, 15, 50, 0
24, 82110, Note_on_c, 15, 45, 90
24, 82139, Note_on_c, 15, 45, 0
24, 82140, Note_on_c, 15, 54, 90
24, 82169, Note_on_c, 15, 54, 0
24, 82170, Note_on_c, 15, 50, 90
24, 82199, Note_on_c, 15, 50, 0
24, 82200, Note_on_c, 15, 57, 90
24, 82229, Note_on_c, 15, 57, 0
24, 82230, Note_on_c, 15, 54, 90
24, 82259, Note_on_c, 15, 54, 0
24, 82260, Note_on_c, 15, 55, 90
24, 82289, Note_on_c, 15, 55, 0
24, 82290, Note_on_c, 15, 50, 90
24, 82319, Note_on_c, 15, 50, 0
24, 82320, Note_on_c, 15, 54, 90
24, 82349, Note_on_c, 15, 54, 0
24, 82350, Note_on_c, 15, 50, 90
24, 82379, Note_on_c, 15, 50, 0
24, 82380, Note_on_c, 15, 57, 90
24, 82409, Note_on_c, 15, 57, 0
24, 82410, Note_on_c, 15, 50, 90
24, 82439, Note_on_c, 15, 50, 0
24, 82440, Note_on_c, 15, 55, 90
24, 82469, Note_on_c, 15, 55, 0
24, 82470, Note_on_c, 15, 50, 90
24, 82499, Note_on_c, 15, 50, 0
24, 82500, Note_on_c, 15, 47, 90
24, 82529, Note_on_c, 15, 47, 0
24, 82530, Note_on_c, 15, 43, 90
24, 82559, Note_on_c, 15, 43, 0
24, 82560, Note_on_c, 15, 48, 90
24, 82589, Note_on_c, 15, 48, 0
24, 82590, Note_on_c, 15, 52, 90
24, 82619, Note_on_c, 15, 52, 0
24, 82620, Note_on_c, 15, 55, 90
24, 82649, Note_on_c, 15, 55, 0
24, 82650, Note_on_c, 15, 54, 90
24, 82679, Note_on_c, 15, 54, 0
24, 82680, Note_on_c, 15, 52, 90
24, 82709, Note_on_c, 15, 52, 0
24, 82710, Note_on_c, 15, 50, 90
24, 82739, Note_on_c, 15, 50, 0
24, 82740, Note_on_c, 15, 49, 90
24, 82769, Note_on_c, 15, 49, 0
24, 82770, Note_on_c, 15, 57, 90
24, 82799, Note_on_c, 15, 57, 0
24, 82800, Note_on_c, 15, 50, 90
24, 82829, Note_on_c, 15, 50, 0
24, 82830, Note_on_c, 15, 54, 90
24, 82859, Note_on_c, 15, 54, 0
24, 82860, Note_on_c, 15, 47, 90
24, 82889, Note_on_c, 15, 47, 0
24, 82890, Note_on_c, 15, 50, 90
24, 82919, Note_on_c, 15, 50, 0
24, 82920, Note_on_c, 15, 43, 90
24, 82949, Note_on_c, 15, 43, 0
24, 82950, Note_on_c, 15, 47, 90
24, 82979, Note_on_c, 15, 47, 0
24, 82980, Note_on_c, 15, 50, 90
24, 83009, Note_on_c, 15, 50, 0
24, 83010, Note_on_c, 15, 54, 90
24, 83039, Note_on_c, 15, 54, 0
24, 83040, Note_on_c, 15, 59, 90
24, 83069, Note_on_c, 15, 59, 0
24, 83070, Note_on_c, 15, 62, 90
24, 83099, Note_on_c, 15, 62, 0
24, 83100, Note_on_c, 15, 55, 90
24, 83129, Note_on_c, 15, 55, 0
24, 83130, Note_on_c, 15, 59, 90
24, 83159, Note_on_c, 15, 59, 0
24, 83160, Note_on_c, 15, 60, 90
24, 83189, Note_on_c, 15, 60, 0
24, 83190, Note_on_c, 15, 48, 90
24, 83219, Note_on_c, 15, 48, 0
24, 83220, Note_on_c, 15, 48, 90
24, 83249, Note_on_c, 15, 48, 0
24, 83250, Note_on_c, 15, 48, 90
24, 83279, Note_on_c, 15, 48, 0
24, 83280, Note_on_c, 15, 48, 90
24, 83309, Note_on_c, 15, 48, 0
24, 83310, Note_on_c, 15, 48, 90
24, 83339, Note_on_c, 15, 48, 0
24, 83370, Note_on_c, 15, 48, 90
24, 83399, Note_on_c, 15, 48, 0
24, 83400, Note_on_c, 15, 48, 90
24, 83429, Note_on_c, 15, 48, 0
24, 83430, Note_on_c, 15, 48, 90
24, 83459, Note_on_c, 15, 48, 0
24, 83460, Note_on_c, 15, 48, 90
24, 83489, Note_on_c, 15, 48, 0
24, 83490, Note_on_c, 15, 48, 90
24, 83519, Note_on_c, 15, 48, 0
24, 83550, Note_on_c, 15, 48, 90
24, 83579, Note_on_c, 15, 48, 0
24, 83580, Note_on_c, 15, 48, 90
24, 83609, Note_on_c, 15, 48, 0
24, 83610, Note_on_c, 15, 48, 90
24, 83639, Note_on_c, 15, 48, 0
24, 83640, Note_on_c, 15, 48, 90
24, 83669, Note_on_c, 15, 48, 0
24, 83670, Note_on_c, 15, 48, 90
24, 83699, Note_on_c, 15, 48, 0
24, 83730, Note_on_c, 15, 48, 90
24, 83759, Note_on_c, 15, 48, 0
24, 83760, Note_on_c, 15, 47, 90
24, 83789, Note_on_c, 15, 47, 0
24, 83790, Note_on_c, 15, 50, 90
24, 83819, Note_on_c, 15, 50, 0
24, 83820, Note_on_c, 15, 43, 90
24, 83849, Note_on_c, 15, 43, 0
24, 83850, Note_on_c, 15, 47, 90
24, 83879, Note_on_c, 15, 47, 0
24, 83880, Note_on_c, 15, 48, 90
24, 83909, Note_on_c, 15, 48, 0
24, 83910, Note_on_c, 15, 52, 90
24, 83939, Note_on_c, 15, 52, 0
24, 83940, Note_on_c, 15, 50, 90
24, 83969, Note_on_c, 15, 50, 0
24, 83970, Note_on_c, 15, 48, 90
24, 83999, Note_on_c, 15, 48, 0
24, 84000, Note_on_c, 15, 50, 90
24, 84029, Note_on_c, 15, 50, 0
24, 84030, Note_on_c, 15, 38, 90
24, 84059, Note_on_c, 15, 38, 0
24, 84060, Note_on_c, 15, 43, 90
24, 84119, Note_on_c, 15, 43, 0
24, 84120, Note_on_c, 15, 47, 90
24, 84179, Note_on_c, 15, 47, 0
24, 84180, Note_on_c, 15, 52, 90
24, 84239, Note_on_c, 15, 52, 0
24, 84240, Note_on_c, 15, 50, 90
24, 84299, Note_on_c, 15, 50, 0
24, 84300, Note_on_c, 15, 45, 90
24, 84359, Note_on_c, 15, 45, 0
24, 84360, Note_on_c, 15, 47, 90
24, 84419, Note_on_c, 15, 47, 0
24, 84420, Note_on_c, 15, 42, 90
24, 84479, Note_on_c, 15, 42, 0
24, 84480, Note_on_c, 15, 38, 90
24, 84539, Note_on_c, 15, 38, 0
24, 84540, Note_on_c, 15, 43, 90
24, 84599, Note_on_c, 15, 43, 0
24, 84600, Note_on_c, 15, 47, 90
24, 84659, Note_on_c, 15, 47, 0
24, 84660, Note_on_c, 15, 48, 90
24, 84719, Note_on_c, 15, 48, 0
24, 84720, Note_on_c, 15, 50, 90
24, 84779, Note_on_c, 15, 50, 0
24, 84780, Note_on_c, 15, 55, 90
24, 84839, Note_on_c, 15, 55, 0
24, 84840, Note_on_c, 15, 59, 90
24, 84899, Note_on_c, 15, 59, 0
24, 84900, Note_on_c, 15, 55, 90
24, 84959, Note_on_c, 15, 55, 0
24, 84960, Note_on_c, 15, 60, 90
24, 85079, Note_on_c, 15, 60, 0
24, 85080, Note_on_c, 15, 54, 90
24, 85139, Note_on_c, 15, 54, 0
24, 85140, Note_on_c, 15, 59, 90
24, 85199, Note_on_c, 15, 59, 0
24, 85200, Note_on_c, 15, 51, 90
24, 85259, Note_on_c, 15, 51, 0
24, 85260, Note_on_c, 15, 47, 90
24, 85319, Note_on_c, 15, 47, 0
24, 85320, Note_on_c, 15, 40, 90
24, 85379, Note_on_c, 15, 40, 0
24, 85380, Note_on_c, 15, 43, 90
24, 85439, Note_on_c, 15, 43, 0
24, 85440, Note_on_c, 15, 47, 90
24, 85499, Note_on_c, 15, 47, 0
24, 85500, Note_on_c, 15, 50, 90
24, 85559, Note_on_c, 15, 50, 0
24, 85560, Note_on_c, 15, 47, 90
24, 85619, Note_on_c, 15, 47, 0
24, 85620, Note_on_c, 15, 44, 90
24, 85679, Note_on_c, 15, 44, 0
24, 85680, Note_on_c, 15, 40, 90
24, 85739, Note_on_c, 15, 40, 0
24, 85740, Note_on_c, 15, 52, 90
24, 85799, Note_on_c, 15, 52, 0
24, 85800, Note_on_c, 15, 47, 90
24, 85859, Note_on_c, 15, 47, 0
24, 85860, Note_on_c, 15, 44, 90
24, 85919, Note_on_c, 15, 44, 0
24, 85920, Note_on_c, 15, 40, 90
24, 85979, Note_on_c, 15, 40, 0
24, 85980, Note_on_c, 15, 44, 90
24, 86039, Note_on_c, 15, 44, 0
24, 86040, Note_on_c, 15, 45, 90
24, 86099, Note_on_c, 15, 45, 0
24, 86100, Note_on_c, 15, 47, 90
24, 86159, Note_on_c, 15, 47, 0
24, 86160, Note_on_c, 15, 48, 90
24, 86219, Note_on_c, 15, 48, 0
24, 86220, Note_on_c, 15, 47, 90
24, 86339, Note_on_c, 15, 47, 0
24, 86340, Note_on_c, 15, 45, 90
24, 86399, Note_on_c, 15, 45, 0
24, 86400, Note_on_c, 15, 43, 90
24, 86459, Note_on_c, 15, 43, 0
24, 86460, Note_on_c, 15, 40, 90
24, 86519, Note_on_c, 15, 40, 0
24, 86520, Note_on_c, 15, 43, 90
24, 86579, Note_on_c, 15, 43, 0
24, 86580, Note_on_c, 15, 45, 90
24, 86639, Note_on_c, 15, 45, 0
24, 86640, Note_on_c, 15, 47, 90
24, 86699, Note_on_c, 15, 47, 0
24, 86700, Note_on_c, 15, 48, 90
24, 86759, Note_on_c, 15, 48, 0
24, 86760, Note_on_c, 15, 47, 90
24, 86819, Note_on_c, 15, 47, 0
24, 86820, Note_on_c, 15, 59, 90
24, 86879, Note_on_c, 15, 59, 0
24, 86880, Note_on_c, 15, 57, 90
24, 86939, Note_on_c, 15, 57, 0
24, 86940, Note_on_c, 15, 55, 90
24, 86969, Note_on_c, 15, 55, 0
24, 86970, Note_on_c, 15, 54, 90
24, 86999, Note_on_c, 15, 54, 0
24, 87000, Note_on_c, 15, 55, 90
24, 87029, Note_on_c, 15, 55, 0
24, 87030, Note_on_c, 15, 52, 90
24, 87059, Note_on_c, 15, 52, 0
24, 87060, Note_on_c, 15, 54, 90
24, 87089, Note_on_c, 15, 54, 0
24, 87090, Note_on_c, 15, 51, 90
24, 87119, Note_on_c, 15, 51, 0
24, 87120, Note_on_c, 15, 52, 90
24, 87149, Note_on_c, 15, 52, 0
24, 87150, Note_on_c, 15, 47, 90
24, 87179, Note_on_c, 15, 47, 0
24, 87180, Note_on_c, 15, 49, 90
24, 87209, Note_on_c, 15, 49, 0
24, 87210, Note_on_c, 15, 47, 90
24, 87239, Note_on_c, 15, 47, 0
24, 87240, Note_on_c, 15, 54, 90
24, 87269, Note_on_c, 15, 54, 0
24, 87270, Note_on_c, 15, 47, 90
24, 87299, Note_on_c, 15, 47, 0
24, 87300, Note_on_c, 15, 52, 90
24, 87329, Note_on_c, 15, 52, 0
24, 87330, Note_on_c, 15, 47, 90
24, 87359, Note_on_c, 15, 47, 0
24, 87360, Note_on_c, 15, 43, 90
24, 87389, Note_on_c, 15, 43, 0
24, 87390, Note_on_c, 15, 40, 90
24, 87419, Note_on_c, 15, 40, 0
24, 87420, Note_on_c, 15, 45, 90
24, 87449, Note_on_c, 15, 45, 0
24, 87450, Note_on_c, 15, 48, 90
24, 87479, Note_on_c, 15, 48, 0
24, 87480, Note_on_c, 15, 52, 90
24, 87509, Note_on_c, 15, 52, 0
24, 87510, Note_on_c, 15, 50, 90
24, 87539, Note_on_c, 15, 50, 0
24, 87540, Note_on_c, 15, 48, 90
24, 87569, Note_on_c, 15, 48, 0
24, 87570, Note_on_c, 15, 47, 90
24, 87599, Note_on_c, 15, 47, 0
24, 87600, Note_on_c, 15, 48, 90
24, 87629, Note_on_c, 15, 48, 0
24, 87630, Note_on_c, 15, 45, 90
24, 87659, Note_on_c, 15, 45, 0
24, 87660, Note_on_c, 15, 47, 90
24, 87689, Note_on_c, 15, 47, 0
24, 87690, Note_on_c, 15, 51, 90
24, 87719, Note_on_c, 15, 51, 0
24, 87720, Note_on_c, 15, 54, 90
24, 87749, Note_on_c, 15, 54, 0
24, 87750, Note_on_c, 15, 51, 90
24, 87779, Note_on_c, 15, 51, 0
24, 87780, Note_on_c, 15, 47, 90
24, 87809, Note_on_c, 15, 47, 0
24, 87810, Note_on_c, 15, 51, 90
24, 87839, Note_on_c, 15, 51, 0
24, 87840, Note_on_c, 15, 52, 90
24, 87899, Note_on_c, 15, 52, 0
24, 87900, Note_on_c, 15, 54, 90
24, 87959, Note_on_c, 15, 54, 0
24, 87960, Note_on_c, 15, 47, 90
24, 88019, Note_on_c, 15, 47, 0
24, 88020, Note_on_c, 15, 52, 90
24, 88049, Note_on_c, 15, 52, 0
24, 88050, Note_on_c, 15, 55, 90
24, 88079, Note_on_c, 15, 55, 0
24, 88080, Note_on_c, 15, 57, 90
24, 88109, Note_on_c, 15, 57, 0
24, 88110, Note_on_c, 15, 54, 90
24, 88139, Note_on_c, 15, 54, 0
24, 88140, Note_on_c, 15, 60, 90
24, 88169, Note_on_c, 15, 60, 0
24, 88170, Note_on_c, 15, 57, 90
24, 88199, Note_on_c, 15, 57, 0
24, 88200, Note_on_c, 15, 59, 90
24, 88229, Note_on_c, 15, 59, 0
24, 88230, Note_on_c, 15, 55, 90
24, 88259, Note_on_c, 15, 55, 0
24, 88260, Note_on_c, 15, 57, 90
24, 88289, Note_on_c, 15, 57, 0
24, 88290, Note_on_c, 15, 60, 90
24, 88319, Note_on_c, 15, 60, 0
24, 88320, Note_on_c, 15, 57, 90
24, 88349, Note_on_c, 15, 57, 0
24, 88350, Note_on_c, 15, 54, 90
24, 88379, Note_on_c, 15, 54, 0
24, 88380, Note_on_c, 15, 55, 90
24, 88409, Note_on_c, 15, 55, 0
24, 88410, Note_on_c, 15, 52, 90
24, 88439, Note_on_c, 15, 52, 0
24, 88440, Note_on_c, 15, 54, 90
24, 88469, Note_on_c, 15, 54, 0
24, 88470, Note_on_c, 15, 57, 90
24, 88499, Note_on_c, 15, 57, 0
24, 88500, Note_on_c, 15, 55, 90
24, 88529, Note_on_c, 15, 55, 0
24, 88530, Note_on_c, 15, 52, 90
24, 88559, Note_on_c, 15, 52, 0
24, 88560, Note_on_c, 15, 59, 90
24, 88589, Note_on_c, 15, 59, 0
24, 88590, Note_on_c, 15, 54, 90
24, 88619, Note_on_c, 15, 54, 0
24, 88620, Note_on_c, 15, 55, 90
24, 88649, Note_on_c, 15, 55, 0
24, 88650, Note_on_c, 15, 51, 90
24, 88679, Note_on_c, 15, 51, 0
24, 88680, Note_on_c, 15, 52, 90
24, 88709, Note_on_c, 15, 52, 0
24, 88710, Note_on_c, 15, 47, 90
24, 88739, Note_on_c, 15, 47, 0
24, 88740, Note_on_c, 15, 48, 90
24, 88769, Note_on_c, 15, 48, 0
24, 88770, Note_on_c, 15, 52, 90
24, 88799, Note_on_c, 15, 52, 0
24, 88800, Note_on_c, 15, 45, 90
24, 88889, Note_on_c, 15, 45, 0
24, 88890, Note_on_c, 15, 43, 90
24, 88904, Note_on_c, 15, 43, 0
24, 88905, Note_on_c, 15, 42, 90
24, 88919, Note_on_c, 15, 42, 0
24, 88920, Note_on_c, 15, 43, 90
24, 88949, Note_on_c, 15, 43, 0
24, 88950, Note_on_c, 15, 45, 90
24, 88979, Note_on_c, 15, 45, 0
24, 88980, Note_on_c, 15, 47, 90
24, 89039, Note_on_c, 15, 47, 0
24, 89040, Note_on_c, 15, 47, 90
24, 89099, Note_on_c, 15, 47, 0
24, 89100, Note_on_c, 15, 40, 90
24, 89159, Note_on_c, 15, 40, 0
24, 89160, Note_on_c, 15, 52, 90
24, 89219, Note_on_c, 15, 52, 0
24, 89220, Note_on_c, 15, 54, 90
24, 89279, Note_on_c, 15, 54, 0
24, 89280, Note_on_c, 15, 55, 90
24, 89339, Note_on_c, 15, 55, 0
24, 89340, Note_on_c, 15, 54, 90
24, 89399, Note_on_c, 15, 54, 0
24, 89400, Note_on_c, 15, 55, 90
24, 89459, Note_on_c, 15, 55, 0
24, 89460, Note_on_c, 15, 57, 90
24, 89519, Note_on_c, 15, 57, 0
24, 89520, Note_on_c, 15, 55, 90
24, 89579, Note_on_c, 15, 55, 0
24, 89580, Note_on_c, 15, 59, 90
24, 89639, Note_on_c, 15, 59, 0
24, 89640, Note_on_c, 15, 52, 90
24, 89699, Note_on_c, 15, 52, 0
24, 89760, Note_on_c, 15, 55, 90
24, 89819, Note_on_c, 15, 55, 0
24, 89820, Note_on_c, 15, 57, 90
24, 89879, Note_on_c, 15, 57, 0
24, 89880, Note_on_c, 15, 54, 90
24, 89939, Note_on_c, 15, 54, 0
24, 89940, Note_on_c, 15, 55, 90
24, 89999, Note_on_c, 15, 55, 0
24, 90000, Note_on_c, 15, 54, 90
24, 90059, Note_on_c, 15, 54, 0
24, 90060, Note_on_c, 15, 52, 90
24, 90119, Note_on_c, 15, 52, 0
24, 90120, Note_on_c, 15, 51, 90
24, 90179, Note_on_c, 15, 51, 0
24, 90180, Note_on_c, 15, 52, 90
24, 90239, Note_on_c, 15, 52, 0
24, 90240, Note_on_c, 15, 43, 90
24, 90299, Note_on_c, 15, 43, 0
24, 90300, Note_on_c, 15, 47, 90
24, 90359, Note_on_c, 15, 47, 0
24, 90360, Note_on_c, 15, 40, 90
24, 90539, Note_on_c, 15, 40, 0
24, 90720, Note_on_c, 15, 54, 100
24, 91680, Note_on_c, 15, 54, 0
24, 91680, Note_on_c, 15, 53, 100
24, 91920, Note_on_c, 15, 53, 0
24, 91920, Note_on_c, 15, 47, 100
24, 92040, Note_on_c, 15, 47, 0
24, 92040, Note_on_c, 15, 48, 100
24, 92160, Note_on_c, 15, 48, 0
24, 92280, Note_on_c, 15, 52, 100
24, 92400, Note_on_c, 15, 52, 0
24, 92400, Note_on_c, 15, 45, 100
24, 92640, Note_on_c, 15, 45, 0
24, 93000, Note_on_c, 15, 48, 90
24, 93119, Note_on_c, 15, 48, 0
24, 93120, Note_on_c, 15, 55, 90
24, 93239, Note_on_c, 15, 55, 0
24, 93240, Note_on_c, 15, 57, 90
24, 93359, Note_on_c, 15, 57, 0
24, 93360, Note_on_c, 15, 51, 90
24, 93479, Note_on_c, 15, 51, 0
24, 93480, Note_on_c, 15, 52, 90
24, 93599, Note_on_c, 15, 52, 0
24, 93600, Note_on_c, 15, 53, 90
24, 93659, Note_on_c, 15, 53, 0
24, 93660, Note_on_c, 15, 52, 90
24, 93719, Note_on_c, 15, 52, 0
24, 93720, Note_on_c, 15, 50, 90
24, 93839, Note_on_c, 15, 50, 0
24, 93840, Note_on_c, 15, 48, 90
24, 93929, Note_on_c, 15, 48, 0
24, 93960, Note_on_c, 15, 45, 90
24, 94019, Note_on_c, 15, 45, 0
24, 94020, Note_on_c, 15, 47, 90
24, 94079, Note_on_c, 15, 47, 0
24, 94080, Note_on_c, 15, 48, 90
24, 94139, Note_on_c, 15, 48, 0
24, 94140, Note_on_c, 15, 50, 90
24, 94199, Note_on_c, 15, 50, 0
24, 94200, Note_on_c, 15, 52, 90
24, 94259, Note_on_c, 15, 52, 0
24, 94260, Note_on_c, 15, 53, 90
24, 94319, Note_on_c, 15, 53, 0
24, 94320, Note_on_c, 15, 55, 90
24, 94379, Note_on_c, 15, 55, 0
24, 94380, Note_on_c, 15, 57, 90
24, 94439, Note_on_c, 15, 57, 0
24, 94440, Note_on_c, 15, 58, 90
24, 94559, Note_on_c, 15, 58, 0
24, 94560, Note_on_c, 15, 52, 90
24, 94679, Note_on_c, 15, 52, 0
24, 94680, Note_on_c, 15, 53, 90
24, 94799, Note_on_c, 15, 53, 0
24, 94800, Note_on_c, 15, 48, 90
24, 94889, Note_on_c, 15, 48, 0
24, 94920, Note_on_c, 15, 57, 90
24, 94979, Note_on_c, 15, 57, 0
24, 94980, Note_on_c, 15, 55, 90
24, 95039, Note_on_c, 15, 55, 0
24, 95040, Note_on_c, 15, 53, 90
24, 95099, Note_on_c, 15, 53, 0
24, 95100, Note_on_c, 15, 52, 90
24, 95159, Note_on_c, 15, 52, 0
24, 95160, Note_on_c, 15, 50, 90
24, 95219, Note_on_c, 15, 50, 0
24, 95220, Note_on_c, 15, 48, 90
24, 95279, Note_on_c, 15, 48, 0
24, 95280, Note_on_c, 15, 47, 90
24, 95339, Note_on_c, 15, 47, 0
24, 95340, Note_on_c, 15, 45, 90
24, 95399, Note_on_c, 15, 45, 0
24, 95400, Note_on_c, 15, 43, 90
24, 95519, Note_on_c, 15, 43, 0
24, 95520, Note_on_c, 15, 45, 90
24, 95699, Note_on_c, 15, 45, 0
24, 95700, Note_on_c, 15, 47, 90
24, 95759, Note_on_c, 15, 47, 0
24, 95760, Note_on_c, 15, 48, 90
24, 95849, Note_on_c, 15, 48, 0
24, 95880, Note_on_c, 15, 48, 90
24, 95939, Note_on_c, 15, 48, 0
24, 95940, Note_on_c, 15, 50, 90
24, 95999, Note_on_c, 15, 50, 0
24, 96000, Note_on_c, 15, 52, 90
24, 96179, Note_on_c, 15, 52, 0
24, 96180, Note_on_c, 15, 50, 90
24, 96239, Note_on_c, 15, 50, 0
24, 96240, Note_on_c, 15, 50, 90
24, 96299, Note_on_c, 15, 50, 0
24, 96300, Note_on_c, 15, 48, 90
24, 96359, Note_on_c, 15, 48, 0
24, 96360, Note_on_c, 15, 48, 90
24, 96419, Note_on_c, 15, 48, 0
24, 96420, Note_on_c, 15, 47, 90
24, 96479, Note_on_c, 15, 47, 0
24, 96480, Note_on_c, 15, 45, 90
24, 96539, Note_on_c, 15, 45, 0
24, 96540, Note_on_c, 15, 43, 90
24, 96569, Note_on_c, 15, 43, 0
24, 96570, Note_on_c, 15, 41, 90
24, 96599, Note_on_c, 15, 41, 0
24, 96600, Note_on_c, 15, 43, 90
24, 96719, Note_on_c, 15, 43, 0
24, 96720, Note_on_c, 15, 36, 90
24, 96839, Note_on_c, 15, 36, 0
24, 96960, Note_on_c, 15, 45, 90
24, 97079, Note_on_c, 15, 45, 0
24, 97230, Note_on_c, 15, 45, 90
24, 97259, Note_on_c, 15, 45, 0
24, 97260, Note_on_c, 15, 48, 90
24, 97289, Note_on_c, 15, 48, 0
24, 97290, Note_on_c, 15, 52, 90
24, 97319, Note_on_c, 15, 52, 0
24, 97320, Note_on_c, 15, 57, 90
24, 97379, Note_on_c, 15, 57, 0
24, 97470, Note_on_c, 15, 45, 90
24, 97499, Note_on_c, 15, 45, 0
24, 97500, Note_on_c, 15, 50, 90
24, 97529, Note_on_c, 15, 50, 0
24, 97530, Note_on_c, 15, 53, 90
24, 97559, Note_on_c, 15, 53, 0
24, 97560, Note_on_c, 15, 57, 90
24, 97619, Note_on_c, 15, 57, 0
24, 97710, Note_on_c, 15, 45, 90
24, 97739, Note_on_c, 15, 45, 0
24, 97740, Note_on_c, 15, 50, 90
24, 97769, Note_on_c, 15, 50, 0
24, 97770, Note_on_c, 15, 53, 90
24, 97799, Note_on_c, 15, 53, 0
24, 97800, Note_on_c, 15, 56, 90
24, 97859, Note_on_c, 15, 56, 0
24, 97950, Note_on_c, 15, 45, 90
24, 97979, Note_on_c, 15, 45, 0
24, 97980, Note_on_c, 15, 48, 90
24, 98009, Note_on_c, 15, 48, 0
24, 98010, Note_on_c, 15, 52, 90
24, 98039, Note_on_c, 15, 52, 0
24, 98040, Note_on_c, 15, 57, 90
24, 98099, Note_on_c, 15, 57, 0
24, 98190, Note_on_c, 15, 45, 90
24, 98219, Note_on_c, 15, 45, 0
24, 98220, Note_on_c, 15, 48, 90
24, 98249, Note_on_c, 15, 48, 0
24, 98250, Note_on_c, 15, 54, 90
24, 98279, Note_on_c, 15, 54, 0
24, 98280, Note_on_c, 15, 57, 90
24, 98339, Note_on_c, 15, 57, 0
24, 98430, Note_on_c, 15, 47, 90
24, 98459, Note_on_c, 15, 47, 0
24, 98460, Note_on_c, 15, 50, 90
24, 98489, Note_on_c, 15, 50, 0
24, 98490, Note_on_c, 15, 55, 90
24, 98519, Note_on_c, 15, 55, 0
24, 98520, Note_on_c, 15, 59, 90
24, 98579, Note_on_c, 15, 59, 0
24, 98670, Note_on_c, 15, 43, 90
24, 98699, Note_on_c, 15, 43, 0
24, 98700, Note_on_c, 15, 47, 90
24, 98729, Note_on_c, 15, 47, 0
24, 98730, Note_on_c, 15, 50, 90
24, 98759, Note_on_c, 15, 50, 0
24, 98760, Note_on_c, 15, 55, 90
24, 98819, Note_on_c, 15, 55, 0
24, 98880, Note_on_c, 15, 48, 90
24, 98899, Note_on_c, 15, 48, 0
24, 98900, Note_on_c, 15, 52, 90
24, 98919, Note_on_c, 15, 52, 0
24, 98920, Note_on_c, 15, 55, 90
24, 98939, Note_on_c, 15, 55, 0
24, 98940, Note_on_c, 15, 60, 90
24, 98959, Note_on_c, 15, 60, 0
24, 98960, Note_on_c, 15, 55, 90
24, 98979, Note_on_c, 15, 55, 0
24, 98980, Note_on_c, 15, 52, 90
24, 98999, Note_on_c, 15, 52, 0
24, 99000, Note_on_c, 15, 48, 90
24, 99019, Note_on_c, 15, 48, 0
24, 99020, Note_on_c, 15, 52, 90
24, 99039, Note_on_c, 15, 52, 0
24, 99040, Note_on_c, 15, 55, 90
24, 99059, Note_on_c, 15, 55, 0
24, 99060, Note_on_c, 15, 60, 90
24, 99079, Note_on_c, 15, 60, 0
24, 99080, Note_on_c, 15, 55, 90
24, 99099, Note_on_c, 15, 55, 0
24, 99100, Note_on_c, 15, 52, 90
24, 99119, Note_on_c, 15, 52, 0
24, 99120, Note_on_c, 15, 48, 90
24, 99139, Note_on_c, 15, 48, 0
24, 99140, Note_on_c, 15, 52, 90
24, 99159, Note_on_c, 15, 52, 0
24, 99160, Note_on_c, 15, 55, 90
24, 99179, Note_on_c, 15, 55, 0
24, 99180, Note_on_c, 15, 60, 90
24, 99199, Note_on_c, 15, 60, 0
24, 99200, Note_on_c, 15, 55, 90
24, 99219, Note_on_c, 15, 55, 0
24, 99220, Note_on_c, 15, 52, 90
24, 99239, Note_on_c, 15, 52, 0
24, 99240, Note_on_c, 15, 48, 90
24, 99259, Note_on_c, 15, 48, 0
24, 99260, Note_on_c, 15, 52, 90
24, 99279, Note_on_c, 15, 52, 0
24, 99280, Note_on_c, 15, 55, 90
24, 99299, Note_on_c, 15, 55, 0
24, 99300, Note_on_c, 15, 60, 90
24, 99319, Note_on_c, 15, 60, 0
24, 99320, Note_on_c, 15, 55, 90
24, 99339, Note_on_c, 15, 55, 0
24, 99340, Note_on_c, 15, 52, 90
24, 99359, Note_on_c, 15, 52, 0
24, 99360, Note_on_c, 15, 48, 90
24, 99379, Note_on_c, 15, 48, 0
24, 99380, Note_on_c, 15, 52, 90
24, 99399, Note_on_c, 15, 52, 0
24, 99400, Note_on_c, 15, 55, 90
24, 99419, Note_on_c, 15, 55, 0
24, 99420, Note_on_c, 15, 60, 90
24, 99439, Note_on_c, 15, 60, 0
24, 99440, Note_on_c, 15, 55, 90
24, 99459, Note_on_c, 15, 55, 0
24, 99460, Note_on_c, 15, 52, 90
24, 99479, Note_on_c, 15, 52, 0
24, 99480, Note_on_c, 15, 48, 90
24, 99499, Note_on_c, 15, 48, 0
24, 99500, Note_on_c, 15, 52, 90
24, 99519, Note_on_c, 15, 52, 0
24, 99520, Note_on_c, 15, 55, 90
24, 99539, Note_on_c, 15, 55, 0
24, 99540, Note_on_c, 15, 60, 90
24, 99559, Note_on_c, 15, 60, 0
24, 99560, Note_on_c, 15, 55, 90
24, 99579, Note_on_c, 15, 55, 0
24, 99580, Note_on_c, 15, 52, 90
24, 99599, Note_on_c, 15, 52, 0
24, 99600, Note_on_c, 15, 48, 90
24, 99619, Note_on_c, 15, 48, 0
24, 99620, Note_on_c, 15, 52, 90
24, 99639, Note_on_c, 15, 52, 0
24, 99640, Note_on_c, 15, 55, 90
24, 99659, Note_on_c, 15, 55, 0
24, 99660, Note_on_c, 15, 60, 90
24, 99679, Note_on_c, 15, 60, 0
24, 99680, Note_on_c, 15, 55, 90
24, 99699, Note_on_c, 15, 55, 0
24, 99700, Note_on_c, 15, 52, 90
24, 99719, Note_on_c, 15, 52, 0
24, 99720, Note_on_c, 15, 48, 90
24, 99739, Note_on_c, 15, 48, 0
24, 99740, Note_on_c, 15, 52, 90
24, 99759, Note_on_c, 15, 52, 0
24, 99760, Note_on_c, 15, 55, 90
24, 99779, Note_on_c, 15, 55, 0
24, 99780, Note_on_c, 15, 60, 90
24, 99799, Note_on_c, 15, 60, 0
24, 99800, Note_on_c, 15, 55, 90
24, 99819, Note_on_c, 15, 55, 0
24, 99820, Note_on_c, 15, 52, 90
24, 99839, Note_on_c, 15, 52, 0
24, 99840, Note_on_c, 15, 49, 90
24, 99859, Note_on_c, 15, 49, 0
24, 99860, Note_on_c, 15, 52, 90
24, 99879, Note_on_c, 15, 52, 0
24, 99880, Note_on_c, 15, 55, 90
24, 99899, Note_on_c, 15, 55, 0
24, 99900, Note_on_c, 15, 57, 90
24, 99919, Note_on_c, 15, 57, 0
24, 99920, Note_on_c, 15, 55, 90
24, 99939, Note_on_c, 15, 55, 0
24, 99940, Note_on_c, 15, 52, 90
24, 99959, Note_on_c, 15, 52, 0
24, 99960, Note_on_c, 15, 49, 90
24, 99979, Note_on_c, 15, 49, 0
24, 99980, Note_on_c, 15, 52, 90
24, 99999, Note_on_c, 15, 52, 0
24, 100000, Note_on_c, 15, 55, 90
24, 100019, Note_on_c, 15, 55, 0
24, 100020, Note_on_c, 15, 57, 90
24, 100039, Note_on_c, 15, 57, 0
24, 100040, Note_on_c, 15, 55, 90
24, 100059, Note_on_c, 15, 55, 0
24, 100060, Note_on_c, 15, 52, 90
24, 100079, Note_on_c, 15, 52, 0
24, 100080, Note_on_c, 15, 49, 90
24, 100099, Note_on_c, 15, 49, 0
24, 100100, Note_on_c, 15, 52, 90
24, 100119, Note_on_c, 15, 52, 0
24, 100120, Note_on_c, 15, 55, 90
24, 100139, Note_on_c, 15, 55, 0
24, 100140, Note_on_c, 15, 57, 90
24, 100159, Note_on_c, 15, 57, 0
24, 100160, Note_on_c, 15, 55, 90
24, 100179, Note_on_c, 15, 55, 0
24, 100180, Note_on_c, 15, 52, 90
24, 100199, Note_on_c, 15, 52, 0
24, 100200, Note_on_c, 15, 49, 90
24, 100219, Note_on_c, 15, 49, 0
24, 100220, Note_on_c, 15, 52, 90
24, 100239, Note_on_c, 15, 52, 0
24, 100240, Note_on_c, 15, 55, 90
24, 100259, Note_on_c, 15, 55, 0
24, 100260, Note_on_c, 15, 57, 90
24, 100279, Note_on_c, 15, 57, 0
24, 100280, Note_on_c, 15, 55, 90
24, 100299, Note_on_c, 15, 55, 0
24, 100300, Note_on_c, 15, 52, 90
24, 100319, Note_on_c, 15, 52, 0
24, 100320, Note_on_c, 15, 48, 90
24, 100339, Note_on_c, 15, 48, 0
24, 100340, Note_on_c, 15, 50, 90
24, 100359, Note_on_c, 15, 50, 0
24, 100360, Note_on_c, 15, 54, 90
24, 100379, Note_on_c, 15, 54, 0
24, 100380, Note_on_c, 15, 57, 90
24, 100399, Note_on_c, 15, 57, 0
24, 100400, Note_on_c, 15, 54, 90
24, 100419, Note_on_c, 15, 54, 0
24, 100420, Note_on_c, 15, 50, 90
24, 100439, Note_on_c, 15, 50, 0
24, 100440, Note_on_c, 15, 48, 90
24, 100459, Note_on_c, 15, 48, 0
24, 100460, Note_on_c, 15, 50, 90
24, 100479, Note_on_c, 15, 50, 0
24, 100480, Note_on_c, 15, 54, 90
24, 100499, Note_on_c, 15, 54, 0
24, 100500, Note_on_c, 15, 57, 90
24, 100519, Note_on_c, 15, 57, 0
24, 100520, Note_on_c, 15, 54, 90
24, 100539, Note_on_c, 15, 54, 0
24, 100540, Note_on_c, 15, 50, 90
24, 100559, Note_on_c, 15, 50, 0
24, 100560, Note_on_c, 15, 47, 90
24, 100579, Note_on_c, 15, 47, 0
24, 100580, Note_on_c, 15, 50, 90
24, 100599, Note_on_c, 15, 50, 0
24, 100600, Note_on_c, 15, 55, 90
24, 100619, Note_on_c, 15, 55, 0
24, 100620, Note_on_c, 15, 59, 90
24, 100639, Note_on_c, 15, 59, 0
24, 100640, Note_on_c, 15, 55, 90
24, 100659, Note_on_c, 15, 55, 0
24, 100660, Note_on_c, 15, 50, 90
24, 100679, Note_on_c, 15, 50, 0
24, 100680, Note_on_c, 15, 48, 90
24, 100699, Note_on_c, 15, 48, 0
24, 100700, Note_on_c, 15, 52, 90
24, 100719, Note_on_c, 15, 52, 0
24, 100720, Note_on_c, 15, 55, 90
24, 100739, Note_on_c, 15, 55, 0
24, 100740, Note_on_c, 15, 60, 90
24, 100759, Note_on_c, 15, 60, 0
24, 100760, Note_on_c, 15, 55, 90
24, 100779, Note_on_c, 15, 55, 0
24, 100780, Note_on_c, 15, 52, 90
24, 100799, Note_on_c, 15, 52, 0
24, 100800, Note_on_c, 15, 50, 90
24, 100819, Note_on_c, 15, 50, 0
24, 100820, Note_on_c, 15, 55, 90
24, 100839, Note_on_c, 15, 55, 0
24, 100840, Note_on_c, 15, 59, 90
24, 100859, Note_on_c, 15, 59, 0
24, 100860, Note_on_c, 15, 62, 90
24, 100879, Note_on_c, 15, 62, 0
24, 100880, Note_on_c, 15, 59, 90
24, 100899, Note_on_c, 15, 59, 0
24, 100900, Note_on_c, 15, 55, 90
24, 100919, Note_on_c, 15, 55, 0
24, 100920, Note_on_c, 15, 50, 90
24, 100980, Note_on_c, 15, 50, 0
24, 100980, Note_on_c, 15, 38, 90
24, 101040, Note_on_c, 15, 38, 0
24, 101040, Note_on_c, 15, 43, 90
24, 101279, Note_on_c, 15, 43, 0
24, 165120, Note_on_c, 15, 49, 100
24, 166080, Note_on_c, 15, 49, 0
24, 166080, Note_on_c, 15, 50, 100
24, 166200, Note_on_c, 15, 50, 0
24, 166200, Note_on_c, 15, 54, 100
24, 166320, Note_on_c, 15, 54, 0
24, 166320, Note_on_c, 15, 55, 100
24, 166440, Note_on_c, 15, 55, 0
24, 166440, Note_on_c, 15, 52, 100
24, 166560, Note_on_c, 15, 52, 0
24, 166680, Note_on_c, 15, 57, 100
24, 166800, Note_on_c, 15, 57, 0
24, 166800, Note_on_c, 15, 50, 100
24, 167040, Note_on_c, 15, 50, 0
24, 198480, Note_on_c, 15, 47, 100
24, 199200, Note_on_c, 15, 47, 0
24, 199200, Note_on_c, 15, 44, 100
24, 199680, Note_on_c, 15, 44, 0
24, 199680, Note_on_c, 15, 45, 100
24, 200640, Note_on_c, 15, 45, 0
24, 200640, Note_on_c, 15, 47, 100
24, 200760, Note_on_c, 15, 47, 0
24, 200760, Note_on_c, 15, 52, 100
24, 200880, Note_on_c, 15, 52, 0
24, 201000, Note_on_c, 15, 50, 100
24, 201120, Note_on_c, 15, 50, 0
24, 201120, Note_on_c, 15, 43, 100
24, 201360, Note_on_c, 15, 43, 0
24, 201360, End_track
25, 0, Start_track
25, 0, MIDI_port, 0
25, 0, Title_t, "J.S.BACH"
25, 0, End_track
26, 0, Start_track
26, 0, MIDI_port, 0
26, 0, Title_t, "BWV 248"
26, 0, End_track
27, 0, Start_track
27, 0, MIDI_port, 0
27, 0, Title_t, "CHRISTMAS ORATORIO"
27, 0, End_track
28, 0, Start_track
28, 0, MIDI_port, 0
28, 0, Title_t, "CANTATA N2"
28, 0, End_track
29, 0, Start_track
29, 0, MIDI_port, 0
29, 0, Title_t, "Und es waren Hirten in derselben Gegend"
29, 0, End_track
30, 0, Start_track
30, 0, MIDI_port, 0
30, 0, Title_t, "SECUENCED BY"
30, 0, End_track
31, 0, Start_track
31, 0, MIDI_port, 0
31, 0, Title_t, "MARCELO COPIA M"
31, 0, End_track
32, 0, Start_track
32, 0, MIDI_port, 0
32, 0, Title_t, "mcopia@entelchile.net"
32, 0, End_track
0, 0, End_of_file
