0, 0, Header, 1, 18, 120
1, 0, Start_track
1, 0, Time_signature, 3, 3, 12, 8
1, 0, Key_signature, -1, "major"
1, 0, Tempo, 666667
1, 0, Marker_t, "Allegro"
1, 52200, Time_signature, 6, 3, 12, 8
1, 52200, Tempo, 1500000
1, 52200, Marker_t, "Alla Siciliana"
1, 77040, Time_signature, 2, 2, 24, 8
1, 77040, Tempo, 666667
1, 77040, Marker_t, "Allegro"
1, 77040, End_track
2, 0, Start_track
2, 0, MIDI_port, 0
2, 0, Title_t, "violin i"
2, 0, Program_c, 0, 48
2, 60, Note_on_c, 0, 62, 100
2, 120, Note_on_c, 0, 62, 0
2, 120, Note_on_c, 0, 64, 100
2, 180, Note_on_c, 0, 64, 0
2, 180, Note_on_c, 0, 65, 100
2, 240, Note_on_c, 0, 65, 0
2, 240, Note_on_c, 0, 65, 100
2, 300, Note_on_c, 0, 65, 0
2, 300, Note_on_c, 0, 67, 100
2, 360, Note_on_c, 0, 67, 0
2, 360, Note_on_c, 0, 69, 100
2, 420, Note_on_c, 0, 69, 0
2, 420, Note_on_c, 0, 69, 100
2, 480, Note_on_c, 0, 69, 0
2, 480, Note_on_c, 0, 70, 100
2, 540, Note_on_c, 0, 70, 0
2, 540, Note_on_c, 0, 69, 100
2, 600, Note_on_c, 0, 69, 0
2, 600, Note_on_c, 0, 67, 100
2, 630, Note_on_c, 0, 67, 0
2, 630, Note_on_c, 0, 65, 100
2, 660, Note_on_c, 0, 65, 0
2, 660, Note_on_c, 0, 64, 100
2, 690, Note_on_c, 0, 64, 0
2, 690, Note_on_c, 0, 62, 100
2, 720, Note_on_c, 0, 62, 0
2, 720, Note_on_c, 0, 61, 100
2, 780, Note_on_c, 0, 61, 0
2, 780, Note_on_c, 0, 57, 100
2, 810, Note_on_c, 0, 57, 0
2, 810, Note_on_c, 0, 59, 100
2, 840, Note_on_c, 0, 59, 0
2, 840, Note_on_c, 0, 61, 100
2, 870, Note_on_c, 0, 61, 0
2, 870, Note_on_c, 0, 62, 100
2, 900, Note_on_c, 0, 62, 0
2, 900, Note_on_c, 0, 64, 100
2, 960, Note_on_c, 0, 64, 0
2, 960, Note_on_c, 0, 64, 100
2, 1020, Note_on_c, 0, 64, 0
2, 1020, Note_on_c, 0, 65, 100
2, 1080, Note_on_c, 0, 65, 0
2, 1080, Note_on_c, 0, 64, 100
2, 1140, Note_on_c, 0, 64, 0
2, 1140, Note_on_c, 0, 57, 100
2, 1170, Note_on_c, 0, 57, 0
2, 1170, Note_on_c, 0, 59, 100
2, 1200, Note_on_c, 0, 59, 0
2, 1200, Note_on_c, 0, 61, 100
2, 1230, Note_on_c, 0, 61, 0
2, 1230, Note_on_c, 0, 62, 100
2, 1260, Note_on_c, 0, 62, 0
2, 1260, Note_on_c, 0, 64, 100
2, 1320, Note_on_c, 0, 64, 0
2, 1320, Note_on_c, 0, 64, 100
2, 1380, Note_on_c, 0, 64, 0
2, 1380, Note_on_c, 0, 65, 100
2, 1440, Note_on_c, 0, 65, 0
2, 1440, Note_on_c, 0, 64, 100
2, 1500, Note_on_c, 0, 64, 0
2, 1500, Note_on_c, 0, 57, 100
2, 1530, Note_on_c, 0, 57, 0
2, 1530, Note_on_c, 0, 59, 100
2, 1560, Note_on_c, 0, 59, 0
2, 1560, Note_on_c, 0, 61, 100
2, 1590, Note_on_c, 0, 61, 0
2, 1590, Note_on_c, 0, 62, 100
2, 1620, Note_on_c, 0, 62, 0
2, 1620, Note_on_c, 0, 64, 100
2, 1650, Note_on_c, 0, 64, 0
2, 1650, Note_on_c, 0, 62, 100
2, 1680, Note_on_c, 0, 62, 0
2, 1680, Note_on_c, 0, 61, 100
2, 1710, Note_on_c, 0, 61, 0
2, 1710, Note_on_c, 0, 62, 100
2, 1740, Note_on_c, 0, 62, 0
2, 1740, Note_on_c, 0, 64, 100
2, 1770, Note_on_c, 0, 64, 0
2, 1770, Note_on_c, 0, 65, 100
2, 1800, Note_on_c, 0, 65, 0
2, 1800, Note_on_c, 0, 67, 100
2, 1830, Note_on_c, 0, 67, 0
2, 1830, Note_on_c, 0, 65, 100
2, 1860, Note_on_c, 0, 65, 0
2, 1860, Note_on_c, 0, 64, 100
2, 1890, Note_on_c, 0, 64, 0
2, 1890, Note_on_c, 0, 65, 100
2, 1920, Note_on_c, 0, 65, 0
2, 1920, Note_on_c, 0, 67, 100
2, 1950, Note_on_c, 0, 67, 0
2, 1950, Note_on_c, 0, 69, 100
2, 1980, Note_on_c, 0, 69, 0
2, 1980, Note_on_c, 0, 70, 100
2, 2010, Note_on_c, 0, 70, 0
2, 2010, Note_on_c, 0, 69, 100
2, 2040, Note_on_c, 0, 69, 0
2, 2040, Note_on_c, 0, 67, 100
2, 2070, Note_on_c, 0, 67, 0
2, 2070, Note_on_c, 0, 65, 100
2, 2100, Note_on_c, 0, 65, 0
2, 2100, Note_on_c, 0, 64, 100
2, 2130, Note_on_c, 0, 64, 0
2, 2130, Note_on_c, 0, 62, 100
2, 2160, Note_on_c, 0, 62, 0
2, 2160, Note_on_c, 0, 61, 100
2, 2190, Note_on_c, 0, 61, 0
2, 2190, Note_on_c, 0, 64, 100
2, 2220, Note_on_c, 0, 64, 0
2, 2220, Note_on_c, 0, 57, 100
2, 2250, Note_on_c, 0, 57, 0
2, 2250, Note_on_c, 0, 61, 100
2, 2280, Note_on_c, 0, 61, 0
2, 2280, Note_on_c, 0, 62, 100
2, 2340, Note_on_c, 0, 62, 0
2, 2370, Note_on_c, 0, 55, 100
2, 2400, Note_on_c, 0, 55, 0
2, 2400, Note_on_c, 0, 57, 100
2, 2460, Note_on_c, 0, 57, 0
2, 2460, Note_on_c, 0, 57, 100
2, 2520, Note_on_c, 0, 57, 0
2, 2520, Note_on_c, 0, 62, 100
2, 2580, Note_on_c, 0, 62, 0
2, 2580, Note_on_c, 0, 74, 100
2, 2640, Note_on_c, 0, 74, 0
2, 2640, Note_on_c, 0, 76, 100
2, 2700, Note_on_c, 0, 76, 0
2, 2700, Note_on_c, 0, 77, 100
2, 2760, Note_on_c, 0, 77, 0
2, 2760, Note_on_c, 0, 77, 100
2, 2820, Note_on_c, 0, 77, 0
2, 2820, Note_on_c, 0, 79, 100
2, 2880, Note_on_c, 0, 79, 0
2, 2880, Note_on_c, 0, 81, 100
2, 2940, Note_on_c, 0, 81, 0
2, 2940, Note_on_c, 0, 81, 100
2, 3000, Note_on_c, 0, 81, 0
2, 3000, Note_on_c, 0, 82, 100
2, 3060, Note_on_c, 0, 82, 0
2, 3060, Note_on_c, 0, 81, 100
2, 3120, Note_on_c, 0, 81, 0
2, 3120, Note_on_c, 0, 79, 100
2, 3150, Note_on_c, 0, 79, 0
2, 3150, Note_on_c, 0, 77, 100
2, 3180, Note_on_c, 0, 77, 0
2, 3180, Note_on_c, 0, 76, 100
2, 3210, Note_on_c, 0, 76, 0
2, 3210, Note_on_c, 0, 74, 100
2, 3240, Note_on_c, 0, 74, 0
2, 3240, Note_on_c, 0, 73, 100
2, 3270, Note_on_c, 0, 73, 0
2, 3270, Note_on_c, 0, 71, 100
2, 3300, Note_on_c, 0, 71, 0
2, 3300, Note_on_c, 0, 69, 100
2, 3330, Note_on_c, 0, 69, 0
2, 3330, Note_on_c, 0, 71, 100
2, 3360, Note_on_c, 0, 71, 0
2, 3360, Note_on_c, 0, 73, 100
2, 3390, Note_on_c, 0, 73, 0
2, 3390, Note_on_c, 0, 74, 100
2, 3420, Note_on_c, 0, 74, 0
2, 3420, Note_on_c, 0, 76, 100
2, 3480, Note_on_c, 0, 76, 0
2, 3480, Note_on_c, 0, 76, 100
2, 3540, Note_on_c, 0, 76, 0
2, 3540, Note_on_c, 0, 77, 100
2, 3600, Note_on_c, 0, 77, 0
2, 3600, Note_on_c, 0, 76, 100
2, 3660, Note_on_c, 0, 76, 0
2, 3660, Note_on_c, 0, 57, 100
2, 3690, Note_on_c, 0, 57, 0
2, 3690, Note_on_c, 0, 59, 100
2, 3720, Note_on_c, 0, 59, 0
2, 3720, Note_on_c, 0, 61, 100
2, 3750, Note_on_c, 0, 61, 0
2, 3750, Note_on_c, 0, 62, 100
2, 3780, Note_on_c, 0, 62, 0
2, 3780, Note_on_c, 0, 64, 100
2, 3840, Note_on_c, 0, 64, 0
2, 3840, Note_on_c, 0, 64, 100
2, 3900, Note_on_c, 0, 64, 0
2, 3900, Note_on_c, 0, 65, 100
2, 3960, Note_on_c, 0, 65, 0
2, 3960, Note_on_c, 0, 64, 100
2, 4020, Note_on_c, 0, 64, 0
2, 4200, Note_on_c, 0, 81, 100
2, 4260, Note_on_c, 0, 81, 0
2, 4260, Note_on_c, 0, 80, 100
2, 4320, Note_on_c, 0, 80, 0
2, 4320, Note_on_c, 0, 81, 100
2, 4380, Note_on_c, 0, 81, 0
2, 4380, Note_on_c, 0, 69, 100
2, 4440, Note_on_c, 0, 69, 0
2, 4440, Note_on_c, 0, 74, 100
2, 4500, Note_on_c, 0, 74, 0
2, 4500, Note_on_c, 0, 71, 100
2, 4560, Note_on_c, 0, 71, 0
2, 4560, Note_on_c, 0, 76, 100
2, 4620, Note_on_c, 0, 76, 0
2, 4620, Note_on_c, 0, 74, 100
2, 4680, Note_on_c, 0, 74, 0
2, 4680, Note_on_c, 0, 76, 100
2, 4740, Note_on_c, 0, 76, 0
2, 4740, Note_on_c, 0, 76, 100
2, 4800, Note_on_c, 0, 76, 0
2, 4800, Note_on_c, 0, 76, 100
2, 4860, Note_on_c, 0, 76, 0
2, 4860, Note_on_c, 0, 76, 100
2, 4920, Note_on_c, 0, 76, 0
2, 4920, Note_on_c, 0, 80, 100
2, 4980, Note_on_c, 0, 80, 0
2, 4980, Note_on_c, 0, 81, 100
2, 5040, Note_on_c, 0, 81, 0
2, 5040, Note_on_c, 0, 83, 100
2, 5100, Note_on_c, 0, 83, 0
2, 5100, Note_on_c, 0, 76, 100
2, 5160, Note_on_c, 0, 76, 0
2, 5220, Note_on_c, 0, 76, 100
2, 5280, Note_on_c, 0, 76, 0
2, 5280, Note_on_c, 0, 73, 100
2, 5340, Note_on_c, 0, 73, 0
2, 5400, Note_on_c, 0, 81, 90
2, 5459, Note_on_c, 0, 81, 0
2, 5460, Note_on_c, 0, 74, 90
2, 5519, Note_on_c, 0, 74, 0
2, 5580, Note_on_c, 0, 74, 90
2, 5639, Note_on_c, 0, 74, 0
2, 5640, Note_on_c, 0, 71, 90
2, 5699, Note_on_c, 0, 71, 0
2, 5760, Note_on_c, 0, 79, 90
2, 5819, Note_on_c, 0, 79, 0
2, 5820, Note_on_c, 0, 72, 90
2, 5879, Note_on_c, 0, 72, 0
2, 5940, Note_on_c, 0, 81, 90
2, 5969, Note_on_c, 0, 81, 0
2, 5970, Note_on_c, 0, 80, 90
2, 5999, Note_on_c, 0, 80, 0
2, 6000, Note_on_c, 0, 81, 90
2, 6029, Note_on_c, 0, 81, 0
2, 6030, Note_on_c, 0, 84, 90
2, 6059, Note_on_c, 0, 84, 0
2, 6060, Note_on_c, 0, 83, 90
2, 6089, Note_on_c, 0, 83, 0
2, 6090, Note_on_c, 0, 81, 90
2, 6119, Note_on_c, 0, 81, 0
2, 6120, Note_on_c, 0, 80, 90
2, 6149, Note_on_c, 0, 80, 0
2, 6150, Note_on_c, 0, 78, 90
2, 6179, Note_on_c, 0, 78, 0
2, 6180, Note_on_c, 0, 76, 90
2, 6209, Note_on_c, 0, 76, 0
2, 6210, Note_on_c, 0, 78, 90
2, 6239, Note_on_c, 0, 78, 0
2, 6240, Note_on_c, 0, 80, 90
2, 6269, Note_on_c, 0, 80, 0
2, 6270, Note_on_c, 0, 81, 90
2, 6299, Note_on_c, 0, 81, 0
2, 6300, Note_on_c, 0, 83, 90
2, 6359, Note_on_c, 0, 83, 0
2, 6360, Note_on_c, 0, 83, 90
2, 6419, Note_on_c, 0, 83, 0
2, 6420, Note_on_c, 0, 84, 90
2, 6479, Note_on_c, 0, 84, 0
2, 6480, Note_on_c, 0, 83, 90
2, 6539, Note_on_c, 0, 83, 0
2, 6540, Note_on_c, 0, 86, 90
2, 6599, Note_on_c, 0, 86, 0
2, 6600, Note_on_c, 0, 86, 90
2, 6659, Note_on_c, 0, 86, 0
2, 6660, Note_on_c, 0, 80, 90
2, 6719, Note_on_c, 0, 80, 0
2, 6720, Note_on_c, 0, 83, 90
2, 6779, Note_on_c, 0, 83, 0
2, 6780, Note_on_c, 0, 83, 90
2, 6839, Note_on_c, 0, 83, 0
2, 6840, Note_on_c, 0, 76, 90
2, 6899, Note_on_c, 0, 76, 0
2, 6900, Note_on_c, 0, 80, 90
2, 6959, Note_on_c, 0, 80, 0
2, 6960, Note_on_c, 0, 80, 90
2, 7019, Note_on_c, 0, 80, 0
2, 7020, Note_on_c, 0, 71, 90
2, 7079, Note_on_c, 0, 71, 0
2, 7080, Note_on_c, 0, 74, 90
2, 7139, Note_on_c, 0, 74, 0
2, 7140, Note_on_c, 0, 74, 90
2, 7199, Note_on_c, 0, 74, 0
2, 7200, Note_on_c, 0, 64, 90
2, 7229, Note_on_c, 0, 64, 0
2, 7230, Note_on_c, 0, 68, 90
2, 7259, Note_on_c, 0, 68, 0
2, 7260, Note_on_c, 0, 71, 90
2, 7289, Note_on_c, 0, 71, 0
2, 7290, Note_on_c, 0, 74, 90
2, 7319, Note_on_c, 0, 74, 0
2, 7320, Note_on_c, 0, 72, 90
2, 7379, Note_on_c, 0, 72, 0
2, 7410, Note_on_c, 0, 71, 90
2, 7439, Note_on_c, 0, 71, 0
2, 7440, Note_on_c, 0, 71, 90
2, 7529, Note_on_c, 0, 71, 0
2, 7530, Note_on_c, 0, 69, 90
2, 7559, Note_on_c, 0, 69, 0
2, 7560, Note_on_c, 0, 69, 90
2, 7619, Note_on_c, 0, 69, 0
2, 7740, Note_on_c, 0, 64, 90
2, 7799, Note_on_c, 0, 64, 0
2, 7920, Note_on_c, 0, 60, 90
2, 7979, Note_on_c, 0, 60, 0
2, 8160, Note_on_c, 0, 81, 90
2, 8219, Note_on_c, 0, 81, 0
2, 8220, Note_on_c, 0, 79, 90
2, 8279, Note_on_c, 0, 79, 0
2, 8280, Note_on_c, 0, 77, 90
2, 8339, Note_on_c, 0, 77, 0
2, 8460, Note_on_c, 0, 74, 90
2, 8519, Note_on_c, 0, 74, 0
2, 8640, Note_on_c, 0, 69, 90
2, 8699, Note_on_c, 0, 69, 0
2, 8880, Note_on_c, 0, 86, 90
2, 8939, Note_on_c, 0, 86, 0
2, 8940, Note_on_c, 0, 84, 90
2, 8999, Note_on_c, 0, 84, 0
2, 9000, Note_on_c, 0, 82, 90
2, 9059, Note_on_c, 0, 82, 0
2, 9180, Note_on_c, 0, 82, 90
2, 9239, Note_on_c, 0, 82, 0
2, 9360, Note_on_c, 0, 81, 90
2, 9419, Note_on_c, 0, 81, 0
2, 9540, Note_on_c, 0, 81, 90
2, 9599, Note_on_c, 0, 81, 0
2, 9720, Note_on_c, 0, 79, 90
2, 9779, Note_on_c, 0, 79, 0
2, 9900, Note_on_c, 0, 79, 90
2, 9959, Note_on_c, 0, 79, 0
2, 10080, Note_on_c, 0, 77, 90
2, 10139, Note_on_c, 0, 77, 0
2, 10320, Note_on_c, 0, 81, 90
2, 10379, Note_on_c, 0, 81, 0
2, 10380, Note_on_c, 0, 81, 90
2, 10439, Note_on_c, 0, 81, 0
2, 10440, Note_on_c, 0, 81, 90
2, 10499, Note_on_c, 0, 81, 0
2, 10500, Note_on_c, 0, 79, 90
2, 10529, Note_on_c, 0, 79, 0
2, 10530, Note_on_c, 0, 77, 90
2, 10559, Note_on_c, 0, 77, 0
2, 10560, Note_on_c, 0, 76, 90
2, 10589, Note_on_c, 0, 76, 0
2, 10590, Note_on_c, 0, 74, 90
2, 10619, Note_on_c, 0, 74, 0
2, 10620, Note_on_c, 0, 73, 90
2, 10679, Note_on_c, 0, 73, 0
2, 10680, Note_on_c, 0, 73, 90
2, 10739, Note_on_c, 0, 73, 0
2, 10740, Note_on_c, 0, 74, 90
2, 10799, Note_on_c, 0, 74, 0
2, 10800, Note_on_c, 0, 76, 90
2, 11039, Note_on_c, 0, 76, 0
2, 11040, Note_on_c, 0, 73, 90
2, 11099, Note_on_c, 0, 73, 0
2, 11100, Note_on_c, 0, 74, 90
2, 11159, Note_on_c, 0, 74, 0
2, 11160, Note_on_c, 0, 73, 90
2, 11219, Note_on_c, 0, 73, 0
2, 11220, Note_on_c, 0, 69, 90
2, 11249, Note_on_c, 0, 69, 0
2, 11250, Note_on_c, 0, 71, 90
2, 11279, Note_on_c, 0, 71, 0
2, 11280, Note_on_c, 0, 73, 90
2, 11309, Note_on_c, 0, 73, 0
2, 11310, Note_on_c, 0, 74, 90
2, 11339, Note_on_c, 0, 74, 0
2, 11340, Note_on_c, 0, 76, 90
2, 11399, Note_on_c, 0, 76, 0
2, 11400, Note_on_c, 0, 76, 90
2, 11459, Note_on_c, 0, 76, 0
2, 11460, Note_on_c, 0, 77, 90
2, 11519, Note_on_c, 0, 77, 0
2, 11520, Note_on_c, 0, 79, 90
2, 11579, Note_on_c, 0, 79, 0
2, 11700, Note_on_c, 0, 76, 90
2, 11759, Note_on_c, 0, 76, 0
2, 11880, Note_on_c, 0, 73, 90
2, 11939, Note_on_c, 0, 73, 0
2, 12060, Note_on_c, 0, 76, 90
2, 12119, Note_on_c, 0, 76, 0
2, 12240, Note_on_c, 0, 79, 90
2, 12329, Note_on_c, 0, 79, 0
2, 12330, Note_on_c, 0, 82, 90
2, 12359, Note_on_c, 0, 82, 0
2, 12360, Note_on_c, 0, 81, 90
2, 12419, Note_on_c, 0, 81, 0
2, 12450, Note_on_c, 0, 74, 90
2, 12479, Note_on_c, 0, 74, 0
2, 12480, Note_on_c, 0, 73, 90
2, 12569, Note_on_c, 0, 73, 0
2, 12570, Note_on_c, 0, 74, 90
2, 12599, Note_on_c, 0, 74, 0
2, 12600, Note_on_c, 0, 74, 90
2, 12959, Note_on_c, 0, 74, 0
2, 12960, Note_on_c, 0, 76, 90
2, 13139, Note_on_c, 0, 76, 0
2, 13140, Note_on_c, 0, 77, 90
2, 13319, Note_on_c, 0, 77, 0
2, 13320, Note_on_c, 0, 79, 90
2, 13499, Note_on_c, 0, 79, 0
2, 13500, Note_on_c, 0, 80, 90
2, 13679, Note_on_c, 0, 80, 0
2, 13680, Note_on_c, 0, 81, 90
2, 13709, Note_on_c, 0, 81, 0
2, 13710, Note_on_c, 0, 76, 90
2, 13739, Note_on_c, 0, 76, 0
2, 13740, Note_on_c, 0, 77, 90
2, 13769, Note_on_c, 0, 77, 0
2, 13770, Note_on_c, 0, 73, 90
2, 13799, Note_on_c, 0, 73, 0
2, 13800, Note_on_c, 0, 74, 90
2, 13859, Note_on_c, 0, 74, 0
2, 13890, Note_on_c, 0, 76, 90
2, 13919, Note_on_c, 0, 76, 0
2, 13920, Note_on_c, 0, 76, 90
2, 14009, Note_on_c, 0, 76, 0
2, 14010, Note_on_c, 0, 74, 90
2, 14039, Note_on_c, 0, 74, 0
2, 14040, Note_on_c, 0, 74, 90
2, 14099, Note_on_c, 0, 74, 0
2, 14100, Note_on_c, 0, 77, 90
2, 14159, Note_on_c, 0, 77, 0
2, 14160, Note_on_c, 0, 81, 90
2, 14219, Note_on_c, 0, 81, 0
2, 14220, Note_on_c, 0, 69, 90
2, 14279, Note_on_c, 0, 69, 0
2, 14400, Note_on_c, 0, 69, 90
2, 14459, Note_on_c, 0, 69, 0
2, 14460, Note_on_c, 0, 74, 90
2, 14519, Note_on_c, 0, 74, 0
2, 14520, Note_on_c, 0, 77, 90
2, 14579, Note_on_c, 0, 77, 0
2, 14580, Note_on_c, 0, 68, 90
2, 14639, Note_on_c, 0, 68, 0
2, 14760, Note_on_c, 0, 76, 90
2, 14819, Note_on_c, 0, 76, 0
2, 14820, Note_on_c, 0, 81, 90
2, 14879, Note_on_c, 0, 81, 0
2, 14880, Note_on_c, 0, 84, 90
2, 14939, Note_on_c, 0, 84, 0
2, 14940, Note_on_c, 0, 75, 90
2, 14999, Note_on_c, 0, 75, 0
2, 15120, Note_on_c, 0, 76, 90
2, 15179, Note_on_c, 0, 76, 0
2, 15180, Note_on_c, 0, 74, 90
2, 15239, Note_on_c, 0, 74, 0
2, 15300, Note_on_c, 0, 72, 90
2, 15359, Note_on_c, 0, 72, 0
2, 15360, Note_on_c, 0, 81, 90
2, 15419, Note_on_c, 0, 81, 0
2, 15480, Note_on_c, 0, 81, 90
2, 15539, Note_on_c, 0, 81, 0
2, 15540, Note_on_c, 0, 80, 90
2, 15599, Note_on_c, 0, 80, 0
2, 15660, Note_on_c, 0, 81, 90
2, 15719, Note_on_c, 0, 81, 0
2, 15720, Note_on_c, 0, 81, 90
2, 15779, Note_on_c, 0, 81, 0
2, 15780, Note_on_c, 0, 79, 90
2, 15839, Note_on_c, 0, 79, 0
2, 15840, Note_on_c, 0, 73, 90
2, 15899, Note_on_c, 0, 73, 0
2, 15900, Note_on_c, 0, 76, 90
2, 15959, Note_on_c, 0, 76, 0
2, 16020, Note_on_c, 0, 69, 90
2, 16079, Note_on_c, 0, 69, 0
2, 16080, Note_on_c, 0, 57, 90
2, 16139, Note_on_c, 0, 57, 0
2, 16200, Note_on_c, 0, 57, 90
2, 16259, Note_on_c, 0, 57, 0
2, 16260, Note_on_c, 0, 64, 90
2, 16319, Note_on_c, 0, 64, 0
2, 16380, Note_on_c, 0, 65, 90
2, 16439, Note_on_c, 0, 65, 0
2, 16440, Note_on_c, 0, 64, 90
2, 16499, Note_on_c, 0, 64, 0
2, 16500, Note_on_c, 0, 64, 90
2, 16559, Note_on_c, 0, 64, 0
2, 16560, Note_on_c, 0, 62, 90
2, 16619, Note_on_c, 0, 62, 0
2, 16620, Note_on_c, 0, 72, 90
2, 16679, Note_on_c, 0, 72, 0
2, 16740, Note_on_c, 0, 70, 90
2, 16799, Note_on_c, 0, 70, 0
2, 16800, Note_on_c, 0, 67, 90
2, 16859, Note_on_c, 0, 67, 0
2, 16920, Note_on_c, 0, 75, 90
2, 16979, Note_on_c, 0, 75, 0
2, 16980, Note_on_c, 0, 72, 90
2, 17039, Note_on_c, 0, 72, 0
2, 17040, Note_on_c, 0, 81, 90
2, 17099, Note_on_c, 0, 81, 0
2, 17100, Note_on_c, 0, 78, 90
2, 17159, Note_on_c, 0, 78, 0
2, 17160, Note_on_c, 0, 74, 90
2, 17219, Note_on_c, 0, 74, 0
2, 17280, Note_on_c, 0, 74, 90
2, 17339, Note_on_c, 0, 74, 0
2, 17340, Note_on_c, 0, 79, 90
2, 17399, Note_on_c, 0, 79, 0
2, 17460, Note_on_c, 0, 79, 90
2, 17519, Note_on_c, 0, 79, 0
2, 17520, Note_on_c, 0, 78, 90
2, 17579, Note_on_c, 0, 78, 0
2, 17640, Note_on_c, 0, 79, 90
2, 17699, Note_on_c, 0, 79, 0
2, 17700, Note_on_c, 0, 79, 90
2, 17759, Note_on_c, 0, 79, 0
2, 17760, Note_on_c, 0, 78, 90
2, 17819, Note_on_c, 0, 78, 0
2, 17820, Note_on_c, 0, 77, 90
2, 17879, Note_on_c, 0, 77, 0
2, 17880, Note_on_c, 0, 76, 90
2, 17939, Note_on_c, 0, 76, 0
2, 18000, Note_on_c, 0, 75, 90
2, 18059, Note_on_c, 0, 75, 0
2, 18060, Note_on_c, 0, 74, 90
2, 18119, Note_on_c, 0, 74, 0
2, 18180, Note_on_c, 0, 74, 90
2, 18239, Note_on_c, 0, 74, 0
2, 18240, Note_on_c, 0, 73, 90
2, 18299, Note_on_c, 0, 73, 0
2, 18360, Note_on_c, 0, 72, 90
2, 18419, Note_on_c, 0, 72, 0
2, 18420, Note_on_c, 0, 70, 90
2, 18479, Note_on_c, 0, 70, 0
2, 18540, Note_on_c, 0, 76, 90
2, 18599, Note_on_c, 0, 76, 0
2, 18600, Note_on_c, 0, 79, 90
2, 18659, Note_on_c, 0, 79, 0
2, 18720, Note_on_c, 0, 77, 90
2, 18779, Note_on_c, 0, 77, 0
2, 18780, Note_on_c, 0, 77, 90
2, 18839, Note_on_c, 0, 77, 0
2, 18840, Note_on_c, 0, 76, 90
2, 18899, Note_on_c, 0, 76, 0
2, 18900, Note_on_c, 0, 79, 90
2, 18959, Note_on_c, 0, 79, 0
2, 18960, Note_on_c, 0, 70, 90
2, 19019, Note_on_c, 0, 70, 0
2, 19500, Note_on_c, 0, 77, 90
2, 19559, Note_on_c, 0, 77, 0
2, 19560, Note_on_c, 0, 79, 90
2, 19619, Note_on_c, 0, 79, 0
2, 19620, Note_on_c, 0, 81, 90
2, 19679, Note_on_c, 0, 81, 0
2, 19680, Note_on_c, 0, 81, 90
2, 19739, Note_on_c, 0, 81, 0
2, 19740, Note_on_c, 0, 82, 90
2, 19799, Note_on_c, 0, 82, 0
2, 19800, Note_on_c, 0, 84, 90
2, 19859, Note_on_c, 0, 84, 0
2, 19860, Note_on_c, 0, 84, 90
2, 19919, Note_on_c, 0, 84, 0
2, 19920, Note_on_c, 0, 86, 90
2, 19979, Note_on_c, 0, 86, 0
2, 19980, Note_on_c, 0, 84, 90
2, 20039, Note_on_c, 0, 84, 0
2, 20040, Note_on_c, 0, 82, 90
2, 20069, Note_on_c, 0, 82, 0
2, 20070, Note_on_c, 0, 81, 90
2, 20099, Note_on_c, 0, 81, 0
2, 20100, Note_on_c, 0, 79, 90
2, 20129, Note_on_c, 0, 79, 0
2, 20130, Note_on_c, 0, 77, 90
2, 20159, Note_on_c, 0, 77, 0
2, 20160, Note_on_c, 0, 76, 90
2, 20189, Note_on_c, 0, 76, 0
2, 20190, Note_on_c, 0, 74, 90
2, 20219, Note_on_c, 0, 74, 0
2, 20220, Note_on_c, 0, 72, 90
2, 20249, Note_on_c, 0, 72, 0
2, 20250, Note_on_c, 0, 74, 90
2, 20279, Note_on_c, 0, 74, 0
2, 20280, Note_on_c, 0, 76, 90
2, 20309, Note_on_c, 0, 76, 0
2, 20310, Note_on_c, 0, 77, 90
2, 20339, Note_on_c, 0, 77, 0
2, 20340, Note_on_c, 0, 79, 90
2, 20399, Note_on_c, 0, 79, 0
2, 20400, Note_on_c, 0, 79, 90
2, 20459, Note_on_c, 0, 79, 0
2, 20460, Note_on_c, 0, 81, 90
2, 20519, Note_on_c, 0, 81, 0
2, 20520, Note_on_c, 0, 79, 90
2, 20579, Note_on_c, 0, 79, 0
2, 20580, Note_on_c, 0, 60, 90
2, 20609, Note_on_c, 0, 60, 0
2, 20610, Note_on_c, 0, 62, 90
2, 20639, Note_on_c, 0, 62, 0
2, 20640, Note_on_c, 0, 64, 90
2, 20669, Note_on_c, 0, 64, 0
2, 20670, Note_on_c, 0, 65, 90
2, 20699, Note_on_c, 0, 65, 0
2, 20700, Note_on_c, 0, 67, 90
2, 20759, Note_on_c, 0, 67, 0
2, 20760, Note_on_c, 0, 67, 90
2, 20819, Note_on_c, 0, 67, 0
2, 20820, Note_on_c, 0, 69, 90
2, 20879, Note_on_c, 0, 69, 0
2, 20880, Note_on_c, 0, 67, 90
2, 20939, Note_on_c, 0, 67, 0
2, 20940, Note_on_c, 0, 84, 90
2, 20999, Note_on_c, 0, 84, 0
2, 21000, Note_on_c, 0, 83, 90
2, 21059, Note_on_c, 0, 83, 0
2, 21060, Note_on_c, 0, 84, 90
2, 21119, Note_on_c, 0, 84, 0
2, 21120, Note_on_c, 0, 79, 90
2, 21179, Note_on_c, 0, 79, 0
2, 21180, Note_on_c, 0, 77, 90
2, 21239, Note_on_c, 0, 77, 0
2, 21240, Note_on_c, 0, 76, 90
2, 21269, Note_on_c, 0, 76, 0
2, 21270, Note_on_c, 0, 79, 90
2, 21299, Note_on_c, 0, 79, 0
2, 21300, Note_on_c, 0, 77, 90
2, 21329, Note_on_c, 0, 77, 0
2, 21330, Note_on_c, 0, 76, 90
2, 21359, Note_on_c, 0, 76, 0
2, 21360, Note_on_c, 0, 74, 90
2, 21389, Note_on_c, 0, 74, 0
2, 21390, Note_on_c, 0, 72, 90
2, 21419, Note_on_c, 0, 72, 0
2, 21420, Note_on_c, 0, 71, 90
2, 21449, Note_on_c, 0, 71, 0
2, 21450, Note_on_c, 0, 72, 90
2, 21479, Note_on_c, 0, 72, 0
2, 21480, Note_on_c, 0, 74, 90
2, 21509, Note_on_c, 0, 74, 0
2, 21510, Note_on_c, 0, 76, 90
2, 21539, Note_on_c, 0, 76, 0
2, 21540, Note_on_c, 0, 77, 90
2, 21599, Note_on_c, 0, 77, 0
2, 21600, Note_on_c, 0, 67, 90
2, 21629, Note_on_c, 0, 67, 0
2, 21630, Note_on_c, 0, 69, 90
2, 21659, Note_on_c, 0, 69, 0
2, 21660, Note_on_c, 0, 71, 90
2, 21689, Note_on_c, 0, 71, 0
2, 21690, Note_on_c, 0, 72, 90
2, 21719, Note_on_c, 0, 72, 0
2, 21720, Note_on_c, 0, 74, 90
2, 21779, Note_on_c, 0, 74, 0
2, 21780, Note_on_c, 0, 62, 90
2, 21839, Note_on_c, 0, 62, 0
2, 21840, Note_on_c, 0, 74, 90
2, 21899, Note_on_c, 0, 74, 0
2, 21900, Note_on_c, 0, 72, 90
2, 21959, Note_on_c, 0, 72, 0
2, 21960, Note_on_c, 0, 71, 90
2, 22019, Note_on_c, 0, 71, 0
2, 22020, Note_on_c, 0, 67, 90
2, 22079, Note_on_c, 0, 67, 0
2, 22140, Note_on_c, 0, 79, 90
2, 22199, Note_on_c, 0, 79, 0
2, 22200, Note_on_c, 0, 76, 90
2, 22259, Note_on_c, 0, 76, 0
2, 22320, Note_on_c, 0, 77, 90
2, 22379, Note_on_c, 0, 77, 0
2, 22380, Note_on_c, 0, 72, 90
2, 22439, Note_on_c, 0, 72, 0
2, 22500, Note_on_c, 0, 74, 90
2, 22559, Note_on_c, 0, 74, 0
2, 22560, Note_on_c, 0, 70, 90
2, 22589, Note_on_c, 0, 70, 0
2, 22590, Note_on_c, 0, 74, 90
2, 22619, Note_on_c, 0, 74, 0
2, 22620, Note_on_c, 0, 79, 90
2, 22649, Note_on_c, 0, 79, 0
2, 22650, Note_on_c, 0, 82, 90
2, 22679, Note_on_c, 0, 82, 0
2, 22680, Note_on_c, 0, 76, 90
2, 22709, Note_on_c, 0, 76, 0
2, 22710, Note_on_c, 0, 79, 90
2, 22739, Note_on_c, 0, 79, 0
2, 22740, Note_on_c, 0, 84, 90
2, 22769, Note_on_c, 0, 84, 0
2, 22770, Note_on_c, 0, 76, 90
2, 22799, Note_on_c, 0, 76, 0
2, 22800, Note_on_c, 0, 77, 90
2, 22859, Note_on_c, 0, 77, 0
2, 22890, Note_on_c, 0, 82, 90
2, 22919, Note_on_c, 0, 82, 0
2, 22920, Note_on_c, 0, 79, 90
2, 23009, Note_on_c, 0, 79, 0
2, 23010, Note_on_c, 0, 77, 90
2, 23039, Note_on_c, 0, 77, 0
2, 23040, Note_on_c, 0, 77, 90
2, 23099, Note_on_c, 0, 77, 0
2, 23220, Note_on_c, 0, 77, 90
2, 23279, Note_on_c, 0, 77, 0
2, 23400, Note_on_c, 0, 76, 90
2, 23459, Note_on_c, 0, 76, 0
2, 23460, Note_on_c, 0, 72, 90
2, 23519, Note_on_c, 0, 72, 0
2, 23520, Note_on_c, 0, 67, 90
2, 23579, Note_on_c, 0, 67, 0
2, 23580, Note_on_c, 0, 64, 90
2, 23639, Note_on_c, 0, 64, 0
2, 23640, Note_on_c, 0, 60, 90
2, 23669, Note_on_c, 0, 60, 0
2, 23670, Note_on_c, 0, 62, 90
2, 23699, Note_on_c, 0, 62, 0
2, 23700, Note_on_c, 0, 64, 90
2, 23729, Note_on_c, 0, 64, 0
2, 23730, Note_on_c, 0, 65, 90
2, 23759, Note_on_c, 0, 65, 0
2, 23760, Note_on_c, 0, 67, 90
2, 23819, Note_on_c, 0, 67, 0
2, 23820, Note_on_c, 0, 79, 90
2, 23939, Note_on_c, 0, 79, 0
2, 23970, Note_on_c, 0, 69, 90
2, 23999, Note_on_c, 0, 69, 0
2, 24000, Note_on_c, 0, 73, 90
2, 24029, Note_on_c, 0, 73, 0
2, 24030, Note_on_c, 0, 76, 90
2, 24059, Note_on_c, 0, 76, 0
2, 24060, Note_on_c, 0, 81, 90
2, 24089, Note_on_c, 0, 81, 0
2, 24090, Note_on_c, 0, 79, 90
2, 24119, Note_on_c, 0, 79, 0
2, 24120, Note_on_c, 0, 77, 90
2, 24179, Note_on_c, 0, 77, 0
2, 24300, Note_on_c, 0, 77, 90
2, 24359, Note_on_c, 0, 77, 0
2, 24480, Note_on_c, 0, 76, 90
2, 24539, Note_on_c, 0, 76, 0
2, 24540, Note_on_c, 0, 69, 90
2, 24599, Note_on_c, 0, 69, 0
2, 24600, Note_on_c, 0, 64, 90
2, 24659, Note_on_c, 0, 64, 0
2, 24660, Note_on_c, 0, 61, 90
2, 24719, Note_on_c, 0, 61, 0
2, 24720, Note_on_c, 0, 57, 90
2, 24749, Note_on_c, 0, 57, 0
2, 24750, Note_on_c, 0, 59, 90
2, 24779, Note_on_c, 0, 59, 0
2, 24780, Note_on_c, 0, 61, 90
2, 24809, Note_on_c, 0, 61, 0
2, 24810, Note_on_c, 0, 62, 90
2, 24839, Note_on_c, 0, 62, 0
2, 24840, Note_on_c, 0, 64, 90
2, 24899, Note_on_c, 0, 64, 0
2, 24900, Note_on_c, 0, 81, 90
2, 25019, Note_on_c, 0, 81, 0
2, 25050, Note_on_c, 0, 82, 90
2, 25079, Note_on_c, 0, 82, 0
2, 25080, Note_on_c, 0, 81, 90
2, 25109, Note_on_c, 0, 81, 0
2, 25110, Note_on_c, 0, 79, 90
2, 25139, Note_on_c, 0, 79, 0
2, 25140, Note_on_c, 0, 81, 90
2, 25169, Note_on_c, 0, 81, 0
2, 25170, Note_on_c, 0, 78, 90
2, 25199, Note_on_c, 0, 78, 0
2, 25200, Note_on_c, 0, 82, 90
2, 25259, Note_on_c, 0, 82, 0
2, 25380, Note_on_c, 0, 82, 90
2, 25439, Note_on_c, 0, 82, 0
2, 25560, Note_on_c, 0, 81, 90
2, 25619, Note_on_c, 0, 81, 0
2, 25740, Note_on_c, 0, 81, 90
2, 25799, Note_on_c, 0, 81, 0
2, 25920, Note_on_c, 0, 79, 90
2, 25979, Note_on_c, 0, 79, 0
2, 26100, Note_on_c, 0, 79, 90
2, 26159, Note_on_c, 0, 79, 0
2, 26280, Note_on_c, 0, 78, 90
2, 26339, Note_on_c, 0, 78, 0
2, 26460, Note_on_c, 0, 77, 90
2, 26519, Note_on_c, 0, 77, 0
2, 26640, Note_on_c, 0, 75, 90
2, 26999, Note_on_c, 0, 75, 0
2, 27000, Note_on_c, 0, 80, 90
2, 27359, Note_on_c, 0, 80, 0
2, 27360, Note_on_c, 0, 78, 90
2, 27719, Note_on_c, 0, 78, 0
2, 27720, Note_on_c, 0, 79, 90
2, 28079, Note_on_c, 0, 79, 0
2, 28080, Note_on_c, 0, 78, 90
2, 28439, Note_on_c, 0, 78, 0
2, 28440, Note_on_c, 0, 82, 90
2, 28799, Note_on_c, 0, 82, 0
2, 28800, Note_on_c, 0, 81, 90
2, 29159, Note_on_c, 0, 81, 0
2, 29160, Note_on_c, 0, 82, 90
2, 29219, Note_on_c, 0, 82, 0
2, 29280, Note_on_c, 0, 81, 90
2, 29339, Note_on_c, 0, 81, 0
2, 29460, Note_on_c, 0, 79, 90
2, 29519, Note_on_c, 0, 79, 0
2, 29640, Note_on_c, 0, 79, 90
2, 29699, Note_on_c, 0, 79, 0
2, 29820, Note_on_c, 0, 79, 90
2, 29879, Note_on_c, 0, 79, 0
2, 30000, Note_on_c, 0, 81, 90
2, 30059, Note_on_c, 0, 81, 0
2, 30180, Note_on_c, 0, 79, 90
2, 30239, Note_on_c, 0, 79, 0
2, 30360, Note_on_c, 0, 81, 90
2, 30419, Note_on_c, 0, 81, 0
2, 30540, Note_on_c, 0, 79, 90
2, 30599, Note_on_c, 0, 79, 0
2, 30660, Note_on_c, 0, 74, 90
2, 30689, Note_on_c, 0, 74, 0
2, 30690, Note_on_c, 0, 72, 90
2, 30719, Note_on_c, 0, 72, 0
2, 30720, Note_on_c, 0, 74, 90
2, 30779, Note_on_c, 0, 74, 0
2, 30840, Note_on_c, 0, 75, 90
2, 30869, Note_on_c, 0, 75, 0
2, 30870, Note_on_c, 0, 74, 90
2, 30899, Note_on_c, 0, 74, 0
2, 30900, Note_on_c, 0, 75, 90
2, 30959, Note_on_c, 0, 75, 0
2, 31020, Note_on_c, 0, 77, 90
2, 31049, Note_on_c, 0, 77, 0
2, 31050, Note_on_c, 0, 75, 90
2, 31079, Note_on_c, 0, 75, 0
2, 31080, Note_on_c, 0, 77, 90
2, 31139, Note_on_c, 0, 77, 0
2, 31200, Note_on_c, 0, 79, 90
2, 31229, Note_on_c, 0, 79, 0
2, 31230, Note_on_c, 0, 77, 90
2, 31259, Note_on_c, 0, 77, 0
2, 31260, Note_on_c, 0, 79, 90
2, 31319, Note_on_c, 0, 79, 0
2, 31380, Note_on_c, 0, 75, 90
2, 31409, Note_on_c, 0, 75, 0
2, 31410, Note_on_c, 0, 74, 90
2, 31439, Note_on_c, 0, 74, 0
2, 31440, Note_on_c, 0, 75, 90
2, 31499, Note_on_c, 0, 75, 0
2, 31560, Note_on_c, 0, 74, 90
2, 31589, Note_on_c, 0, 74, 0
2, 31590, Note_on_c, 0, 72, 90
2, 31619, Note_on_c, 0, 72, 0
2, 31620, Note_on_c, 0, 74, 90
2, 31679, Note_on_c, 0, 74, 0
2, 31740, Note_on_c, 0, 70, 90
2, 31769, Note_on_c, 0, 70, 0
2, 31770, Note_on_c, 0, 69, 90
2, 31799, Note_on_c, 0, 69, 0
2, 31800, Note_on_c, 0, 70, 90
2, 31859, Note_on_c, 0, 70, 0
2, 31920, Note_on_c, 0, 69, 90
2, 31949, Note_on_c, 0, 69, 0
2, 31950, Note_on_c, 0, 67, 90
2, 31979, Note_on_c, 0, 67, 0
2, 31980, Note_on_c, 0, 69, 90
2, 32039, Note_on_c, 0, 69, 0
2, 32100, Note_on_c, 0, 69, 90
2, 32159, Note_on_c, 0, 69, 0
2, 32160, Note_on_c, 0, 74, 90
2, 32219, Note_on_c, 0, 74, 0
2, 32280, Note_on_c, 0, 71, 90
2, 32309, Note_on_c, 0, 71, 0
2, 32310, Note_on_c, 0, 69, 90
2, 32339, Note_on_c, 0, 69, 0
2, 32340, Note_on_c, 0, 67, 90
2, 32399, Note_on_c, 0, 67, 0
2, 32460, Note_on_c, 0, 67, 90
2, 32519, Note_on_c, 0, 67, 0
2, 32520, Note_on_c, 0, 72, 90
2, 32579, Note_on_c, 0, 72, 0
2, 32640, Note_on_c, 0, 69, 90
2, 32669, Note_on_c, 0, 69, 0
2, 32670, Note_on_c, 0, 67, 90
2, 32699, Note_on_c, 0, 67, 0
2, 32700, Note_on_c, 0, 65, 90
2, 32759, Note_on_c, 0, 65, 0
2, 32820, Note_on_c, 0, 65, 90
2, 32879, Note_on_c, 0, 65, 0
2, 32880, Note_on_c, 0, 70, 90
2, 32939, Note_on_c, 0, 70, 0
2, 33000, Note_on_c, 0, 70, 90
2, 33059, Note_on_c, 0, 70, 0
2, 33060, Note_on_c, 0, 74, 90
2, 33119, Note_on_c, 0, 74, 0
2, 33180, Note_on_c, 0, 76, 90
2, 33239, Note_on_c, 0, 76, 0
2, 33240, Note_on_c, 0, 81, 90
2, 33299, Note_on_c, 0, 81, 0
2, 33360, Note_on_c, 0, 81, 90
2, 33419, Note_on_c, 0, 81, 0
2, 33420, Note_on_c, 0, 72, 90
2, 33479, Note_on_c, 0, 72, 0
2, 33480, Note_on_c, 0, 70, 90
2, 33539, Note_on_c, 0, 70, 0
2, 33900, Note_on_c, 0, 79, 90
2, 33959, Note_on_c, 0, 79, 0
2, 33960, Note_on_c, 0, 78, 90
2, 34019, Note_on_c, 0, 78, 0
2, 34020, Note_on_c, 0, 79, 90
2, 34079, Note_on_c, 0, 79, 0
2, 34080, Note_on_c, 0, 82, 90
2, 34139, Note_on_c, 0, 82, 0
2, 34140, Note_on_c, 0, 81, 90
2, 34199, Note_on_c, 0, 81, 0
2, 34200, Note_on_c, 0, 74, 90
2, 34230, Note_on_c, 0, 74, 0
2, 34230, Note_on_c, 0, 86, 90
2, 34260, Note_on_c, 0, 86, 0
2, 34260, Note_on_c, 0, 84, 90
2, 34290, Note_on_c, 0, 84, 0
2, 34290, Note_on_c, 0, 82, 90
2, 34320, Note_on_c, 0, 82, 0
2, 34320, Note_on_c, 0, 81, 90
2, 34350, Note_on_c, 0, 81, 0
2, 34350, Note_on_c, 0, 79, 90
2, 34380, Note_on_c, 0, 79, 0
2, 34380, Note_on_c, 0, 78, 90
2, 34410, Note_on_c, 0, 78, 0
2, 34410, Note_on_c, 0, 79, 90
2, 34440, Note_on_c, 0, 79, 0
2, 34440, Note_on_c, 0, 81, 90
2, 34470, Note_on_c, 0, 81, 0
2, 34470, Note_on_c, 0, 82, 90
2, 34500, Note_on_c, 0, 82, 0
2, 34500, Note_on_c, 0, 84, 90
2, 34559, Note_on_c, 0, 84, 0
2, 34590, Note_on_c, 0, 82, 90
2, 34619, Note_on_c, 0, 82, 0
2, 34620, Note_on_c, 0, 81, 90
2, 34649, Note_on_c, 0, 81, 0
2, 34650, Note_on_c, 0, 79, 90
2, 34679, Note_on_c, 0, 79, 0
2, 34680, Note_on_c, 0, 78, 90
2, 34709, Note_on_c, 0, 78, 0
2, 34710, Note_on_c, 0, 76, 90
2, 34739, Note_on_c, 0, 76, 0
2, 34740, Note_on_c, 0, 74, 90
2, 34979, Note_on_c, 0, 74, 0
2, 34980, Note_on_c, 0, 62, 90
2, 35009, Note_on_c, 0, 62, 0
2, 35010, Note_on_c, 0, 64, 90
2, 35039, Note_on_c, 0, 64, 0
2, 35040, Note_on_c, 0, 66, 90
2, 35069, Note_on_c, 0, 66, 0
2, 35070, Note_on_c, 0, 67, 90
2, 35099, Note_on_c, 0, 67, 0
2, 35100, Note_on_c, 0, 69, 90
2, 35159, Note_on_c, 0, 69, 0
2, 35160, Note_on_c, 0, 69, 90
2, 35219, Note_on_c, 0, 69, 0
2, 35220, Note_on_c, 0, 70, 90
2, 35279, Note_on_c, 0, 70, 0
2, 35280, Note_on_c, 0, 69, 90
2, 35339, Note_on_c, 0, 69, 0
2, 35460, Note_on_c, 0, 72, 90
2, 35519, Note_on_c, 0, 72, 0
2, 35640, Note_on_c, 0, 75, 90
2, 35699, Note_on_c, 0, 75, 0
2, 35820, Note_on_c, 0, 74, 90
2, 35879, Note_on_c, 0, 74, 0
2, 36240, Note_on_c, 0, 74, 90
2, 36299, Note_on_c, 0, 74, 0
2, 36300, Note_on_c, 0, 78, 90
2, 36359, Note_on_c, 0, 78, 0
2, 36360, Note_on_c, 0, 79, 90
2, 36719, Note_on_c, 0, 79, 0
2, 36750, Note_on_c, 0, 69, 90
2, 36779, Note_on_c, 0, 69, 0
2, 36780, Note_on_c, 0, 73, 90
2, 36809, Note_on_c, 0, 73, 0
2, 36810, Note_on_c, 0, 76, 90
2, 36839, Note_on_c, 0, 76, 0
2, 36840, Note_on_c, 0, 73, 90
2, 36869, Note_on_c, 0, 73, 0
2, 36870, Note_on_c, 0, 69, 90
2, 36899, Note_on_c, 0, 69, 0
2, 36900, Note_on_c, 0, 81, 90
2, 36959, Note_on_c, 0, 81, 0
2, 36960, Note_on_c, 0, 81, 90
2, 37019, Note_on_c, 0, 81, 0
2, 37020, Note_on_c, 0, 79, 90
2, 37079, Note_on_c, 0, 79, 0
2, 37080, Note_on_c, 0, 77, 90
2, 37439, Note_on_c, 0, 77, 0
2, 37470, Note_on_c, 0, 64, 90
2, 37499, Note_on_c, 0, 64, 0
2, 37500, Note_on_c, 0, 68, 90
2, 37529, Note_on_c, 0, 68, 0
2, 37530, Note_on_c, 0, 71, 90
2, 37559, Note_on_c, 0, 71, 0
2, 37560, Note_on_c, 0, 68, 90
2, 37589, Note_on_c, 0, 68, 0
2, 37590, Note_on_c, 0, 64, 90
2, 37619, Note_on_c, 0, 64, 0
2, 37620, Note_on_c, 0, 76, 90
2, 37679, Note_on_c, 0, 76, 0
2, 37680, Note_on_c, 0, 76, 90
2, 37739, Note_on_c, 0, 76, 0
2, 37740, Note_on_c, 0, 74, 90
2, 37799, Note_on_c, 0, 74, 0
2, 37800, Note_on_c, 0, 73, 90
2, 37859, Note_on_c, 0, 73, 0
2, 37980, Note_on_c, 0, 72, 90
2, 38039, Note_on_c, 0, 72, 0
2, 38160, Note_on_c, 0, 71, 90
2, 38219, Note_on_c, 0, 71, 0
2, 38340, Note_on_c, 0, 70, 90
2, 38399, Note_on_c, 0, 70, 0
2, 38520, Note_on_c, 0, 69, 90
2, 38579, Note_on_c, 0, 69, 0
2, 38700, Note_on_c, 0, 81, 90
2, 38759, Note_on_c, 0, 81, 0
2, 38880, Note_on_c, 0, 79, 90
2, 38939, Note_on_c, 0, 79, 0
2, 39060, Note_on_c, 0, 79, 90
2, 39119, Note_on_c, 0, 79, 0
2, 39240, Note_on_c, 0, 77, 90
2, 39299, Note_on_c, 0, 77, 0
2, 39600, Note_on_c, 0, 76, 90
2, 39659, Note_on_c, 0, 76, 0
2, 39960, Note_on_c, 0, 74, 90
2, 40019, Note_on_c, 0, 74, 0
2, 40320, Note_on_c, 0, 74, 90
2, 40379, Note_on_c, 0, 74, 0
2, 40380, Note_on_c, 0, 74, 90
2, 40439, Note_on_c, 0, 74, 0
2, 40440, Note_on_c, 0, 74, 90
2, 40499, Note_on_c, 0, 74, 0
2, 40500, Note_on_c, 0, 74, 90
2, 40559, Note_on_c, 0, 74, 0
2, 40560, Note_on_c, 0, 74, 90
2, 40619, Note_on_c, 0, 74, 0
2, 40620, Note_on_c, 0, 74, 90
2, 40679, Note_on_c, 0, 74, 0
2, 40680, Note_on_c, 0, 73, 90
2, 40739, Note_on_c, 0, 73, 0
2, 40740, Note_on_c, 0, 73, 90
2, 40799, Note_on_c, 0, 73, 0
2, 40800, Note_on_c, 0, 73, 90
2, 40859, Note_on_c, 0, 73, 0
2, 40860, Note_on_c, 0, 74, 90
2, 40919, Note_on_c, 0, 74, 0
2, 41400, Note_on_c, 0, 74, 90
2, 41759, Note_on_c, 0, 74, 0
2, 41760, Note_on_c, 0, 73, 90
2, 41819, Note_on_c, 0, 73, 0
2, 42120, Note_on_c, 0, 74, 90
2, 42179, Note_on_c, 0, 74, 0
2, 42480, Note_on_c, 0, 76, 90
2, 42539, Note_on_c, 0, 76, 0
2, 42840, Note_on_c, 0, 77, 90
2, 42899, Note_on_c, 0, 77, 0
2, 43020, Note_on_c, 0, 76, 90
2, 43079, Note_on_c, 0, 76, 0
2, 43200, Note_on_c, 0, 74, 90
2, 43259, Note_on_c, 0, 74, 0
2, 43380, Note_on_c, 0, 73, 90
2, 43439, Note_on_c, 0, 73, 0
2, 43560, Note_on_c, 0, 72, 90
2, 43619, Note_on_c, 0, 72, 0
2, 43740, Note_on_c, 0, 73, 90
2, 43799, Note_on_c, 0, 73, 0
2, 43920, Note_on_c, 0, 74, 90
2, 44100, Note_on_c, 0, 74, 0
2, 44100, Note_on_c, 0, 80, 90
2, 44280, Note_on_c, 0, 80, 0
2, 44280, Note_on_c, 0, 81, 90
2, 44339, Note_on_c, 0, 81, 0
2, 44340, Note_on_c, 0, 69, 90
2, 44399, Note_on_c, 0, 69, 0
2, 44400, Note_on_c, 0, 67, 90
2, 44459, Note_on_c, 0, 67, 0
2, 44460, Note_on_c, 0, 65, 90
2, 44519, Note_on_c, 0, 65, 0
2, 44520, Note_on_c, 0, 65, 90
2, 44579, Note_on_c, 0, 65, 0
2, 44580, Note_on_c, 0, 64, 90
2, 44639, Note_on_c, 0, 64, 0
2, 44640, Note_on_c, 0, 62, 90
2, 44699, Note_on_c, 0, 62, 0
2, 45060, Note_on_c, 0, 74, 90
2, 45119, Note_on_c, 0, 74, 0
2, 45120, Note_on_c, 0, 76, 90
2, 45179, Note_on_c, 0, 76, 0
2, 45180, Note_on_c, 0, 77, 90
2, 45239, Note_on_c, 0, 77, 0
2, 45240, Note_on_c, 0, 77, 90
2, 45299, Note_on_c, 0, 77, 0
2, 45300, Note_on_c, 0, 79, 90
2, 45359, Note_on_c, 0, 79, 0
2, 45360, Note_on_c, 0, 81, 90
2, 45419, Note_on_c, 0, 81, 0
2, 45420, Note_on_c, 0, 81, 90
2, 45479, Note_on_c, 0, 81, 0
2, 45480, Note_on_c, 0, 82, 90
2, 45539, Note_on_c, 0, 82, 0
2, 45540, Note_on_c, 0, 81, 90
2, 45599, Note_on_c, 0, 81, 0
2, 45600, Note_on_c, 0, 79, 90
2, 45629, Note_on_c, 0, 79, 0
2, 45630, Note_on_c, 0, 77, 90
2, 45659, Note_on_c, 0, 77, 0
2, 45660, Note_on_c, 0, 76, 90
2, 45689, Note_on_c, 0, 76, 0
2, 45690, Note_on_c, 0, 74, 90
2, 45719, Note_on_c, 0, 74, 0
2, 45720, Note_on_c, 0, 73, 90
2, 45749, Note_on_c, 0, 73, 0
2, 45750, Note_on_c, 0, 71, 90
2, 45779, Note_on_c, 0, 71, 0
2, 45780, Note_on_c, 0, 69, 90
2, 45809, Note_on_c, 0, 69, 0
2, 45810, Note_on_c, 0, 71, 90
2, 45839, Note_on_c, 0, 71, 0
2, 45840, Note_on_c, 0, 73, 90
2, 45869, Note_on_c, 0, 73, 0
2, 45870, Note_on_c, 0, 74, 90
2, 45899, Note_on_c, 0, 74, 0
2, 45900, Note_on_c, 0, 76, 90
2, 45959, Note_on_c, 0, 76, 0
2, 45960, Note_on_c, 0, 76, 90
2, 46019, Note_on_c, 0, 76, 0
2, 46020, Note_on_c, 0, 77, 90
2, 46079, Note_on_c, 0, 77, 0
2, 46080, Note_on_c, 0, 76, 90
2, 46139, Note_on_c, 0, 76, 0
2, 46620, Note_on_c, 0, 81, 90
2, 46679, Note_on_c, 0, 81, 0
2, 46800, Note_on_c, 0, 82, 90
2, 46859, Note_on_c, 0, 82, 0
2, 46980, Note_on_c, 0, 82, 90
2, 47039, Note_on_c, 0, 82, 0
2, 47160, Note_on_c, 0, 81, 90
2, 47219, Note_on_c, 0, 81, 0
2, 47340, Note_on_c, 0, 81, 90
2, 47399, Note_on_c, 0, 81, 0
2, 47520, Note_on_c, 0, 79, 90
2, 47579, Note_on_c, 0, 79, 0
2, 47700, Note_on_c, 0, 79, 90
2, 47759, Note_on_c, 0, 79, 0
2, 47880, Note_on_c, 0, 77, 90
2, 47939, Note_on_c, 0, 77, 0
2, 47940, Note_on_c, 0, 86, 90
2, 47999, Note_on_c, 0, 86, 0
2, 48000, Note_on_c, 0, 84, 90
2, 48059, Note_on_c, 0, 84, 0
2, 48060, Note_on_c, 0, 82, 90
2, 48119, Note_on_c, 0, 82, 0
2, 48120, Note_on_c, 0, 81, 90
2, 48179, Note_on_c, 0, 81, 0
2, 48180, Note_on_c, 0, 79, 90
2, 48239, Note_on_c, 0, 79, 0
2, 48240, Note_on_c, 0, 79, 90
2, 48299, Note_on_c, 0, 79, 0
2, 48420, Note_on_c, 0, 76, 90
2, 48479, Note_on_c, 0, 76, 0
2, 48600, Note_on_c, 0, 73, 90
2, 48659, Note_on_c, 0, 73, 0
2, 48780, Note_on_c, 0, 76, 90
2, 48839, Note_on_c, 0, 76, 0
2, 48960, Note_on_c, 0, 79, 90
2, 49049, Note_on_c, 0, 79, 0
2, 49050, Note_on_c, 0, 76, 90
2, 49079, Note_on_c, 0, 76, 0
2, 49080, Note_on_c, 0, 77, 90
2, 49139, Note_on_c, 0, 77, 0
2, 49170, Note_on_c, 0, 79, 90
2, 49199, Note_on_c, 0, 79, 0
2, 49200, Note_on_c, 0, 76, 90
2, 49289, Note_on_c, 0, 76, 0
2, 49290, Note_on_c, 0, 74, 90
2, 49319, Note_on_c, 0, 74, 0
2, 49320, Note_on_c, 0, 74, 90
2, 49379, Note_on_c, 0, 74, 0
2, 49380, Note_on_c, 0, 62, 90
2, 49439, Note_on_c, 0, 62, 0
2, 49440, Note_on_c, 0, 64, 90
2, 49499, Note_on_c, 0, 64, 0
2, 49500, Note_on_c, 0, 65, 90
2, 49559, Note_on_c, 0, 65, 0
2, 49560, Note_on_c, 0, 65, 90
2, 49619, Note_on_c, 0, 65, 0
2, 49620, Note_on_c, 0, 67, 90
2, 49679, Note_on_c, 0, 67, 0
2, 49680, Note_on_c, 0, 69, 90
2, 49739, Note_on_c, 0, 69, 0
2, 49740, Note_on_c, 0, 69, 90
2, 49799, Note_on_c, 0, 69, 0
2, 49800, Note_on_c, 0, 70, 90
2, 49859, Note_on_c, 0, 70, 0
2, 49860, Note_on_c, 0, 69, 90
2, 49919, Note_on_c, 0, 69, 0
2, 49920, Note_on_c, 0, 67, 90
2, 49949, Note_on_c, 0, 67, 0
2, 49950, Note_on_c, 0, 65, 90
2, 49979, Note_on_c, 0, 65, 0
2, 49980, Note_on_c, 0, 64, 90
2, 50009, Note_on_c, 0, 64, 0
2, 50010, Note_on_c, 0, 62, 90
2, 50039, Note_on_c, 0, 62, 0
2, 50040, Note_on_c, 0, 61, 90
2, 50099, Note_on_c, 0, 61, 0
2, 50100, Note_on_c, 0, 57, 90
2, 50130, Note_on_c, 0, 57, 0
2, 50130, Note_on_c, 0, 59, 90
2, 50160, Note_on_c, 0, 59, 0
2, 50160, Note_on_c, 0, 61, 90
2, 50190, Note_on_c, 0, 61, 0
2, 50190, Note_on_c, 0, 62, 90
2, 50220, Note_on_c, 0, 62, 0
2, 50220, Note_on_c, 0, 64, 90
2, 50279, Note_on_c, 0, 64, 0
2, 50280, Note_on_c, 0, 64, 90
2, 50339, Note_on_c, 0, 64, 0
2, 50340, Note_on_c, 0, 65, 90
2, 50399, Note_on_c, 0, 65, 0
2, 50400, Note_on_c, 0, 64, 90
2, 50459, Note_on_c, 0, 64, 0
2, 50460, Note_on_c, 0, 57, 90
2, 50489, Note_on_c, 0, 57, 0
2, 50490, Note_on_c, 0, 59, 90
2, 50519, Note_on_c, 0, 59, 0
2, 50520, Note_on_c, 0, 61, 90
2, 50549, Note_on_c, 0, 61, 0
2, 50550, Note_on_c, 0, 62, 90
2, 50579, Note_on_c, 0, 62, 0
2, 50580, Note_on_c, 0, 64, 90
2, 50639, Note_on_c, 0, 64, 0
2, 50640, Note_on_c, 0, 64, 90
2, 50699, Note_on_c, 0, 64, 0
2, 50700, Note_on_c, 0, 65, 90
2, 50759, Note_on_c, 0, 65, 0
2, 50760, Note_on_c, 0, 64, 90
2, 50819, Note_on_c, 0, 64, 0
2, 50820, Note_on_c, 0, 57, 90
2, 50849, Note_on_c, 0, 57, 0
2, 50850, Note_on_c, 0, 59, 90
2, 50879, Note_on_c, 0, 59, 0
2, 50880, Note_on_c, 0, 61, 90
2, 50909, Note_on_c, 0, 61, 0
2, 50910, Note_on_c, 0, 62, 90
2, 50939, Note_on_c, 0, 62, 0
2, 50940, Note_on_c, 0, 64, 90
2, 50969, Note_on_c, 0, 64, 0
2, 50970, Note_on_c, 0, 62, 90
2, 50999, Note_on_c, 0, 62, 0
2, 51000, Note_on_c, 0, 61, 90
2, 51029, Note_on_c, 0, 61, 0
2, 51030, Note_on_c, 0, 62, 90
2, 51059, Note_on_c, 0, 62, 0
2, 51060, Note_on_c, 0, 64, 90
2, 51089, Note_on_c, 0, 64, 0
2, 51090, Note_on_c, 0, 65, 90
2, 51119, Note_on_c, 0, 65, 0
2, 51120, Note_on_c, 0, 67, 90
2, 51149, Note_on_c, 0, 67, 0
2, 51150, Note_on_c, 0, 65, 90
2, 51179, Note_on_c, 0, 65, 0
2, 51180, Note_on_c, 0, 64, 90
2, 51209, Note_on_c, 0, 64, 0
2, 51210, Note_on_c, 0, 65, 90
2, 51239, Note_on_c, 0, 65, 0
2, 51240, Note_on_c, 0, 67, 90
2, 51269, Note_on_c, 0, 67, 0
2, 51270, Note_on_c, 0, 69, 90
2, 51299, Note_on_c, 0, 69, 0
2, 51300, Note_on_c, 0, 70, 90
2, 51329, Note_on_c, 0, 70, 0
2, 51330, Note_on_c, 0, 69, 90
2, 51359, Note_on_c, 0, 69, 0
2, 51360, Note_on_c, 0, 67, 90
2, 51389, Note_on_c, 0, 67, 0
2, 51390, Note_on_c, 0, 65, 90
2, 51419, Note_on_c, 0, 65, 0
2, 51420, Note_on_c, 0, 64, 90
2, 51449, Note_on_c, 0, 64, 0
2, 51450, Note_on_c, 0, 62, 90
2, 51479, Note_on_c, 0, 62, 0
2, 51480, Note_on_c, 0, 61, 90
2, 51509, Note_on_c, 0, 61, 0
2, 51510, Note_on_c, 0, 64, 90
2, 51539, Note_on_c, 0, 64, 0
2, 51540, Note_on_c, 0, 57, 90
2, 51569, Note_on_c, 0, 57, 0
2, 51570, Note_on_c, 0, 61, 90
2, 51599, Note_on_c, 0, 61, 0
2, 51600, Note_on_c, 0, 62, 90
2, 51659, Note_on_c, 0, 62, 0
2, 51690, Note_on_c, 0, 55, 90
2, 51719, Note_on_c, 0, 55, 0
2, 51720, Note_on_c, 0, 57, 90
2, 51779, Note_on_c, 0, 57, 0
2, 51780, Note_on_c, 0, 57, 90
2, 51839, Note_on_c, 0, 57, 0
2, 51840, Note_on_c, 0, 62, 90
2, 52019, Note_on_c, 0, 62, 0
2, 52200, Note_on_c, 0, 77, 90
2, 52289, Note_on_c, 0, 77, 0
2, 52290, Note_on_c, 0, 72, 90
2, 52319, Note_on_c, 0, 72, 0
2, 52320, Note_on_c, 0, 72, 90
2, 52349, Note_on_c, 0, 72, 0
2, 52350, Note_on_c, 0, 74, 90
2, 52439, Note_on_c, 0, 74, 0
2, 52440, Note_on_c, 0, 72, 90
2, 52469, Note_on_c, 0, 72, 0
2, 52470, Note_on_c, 0, 70, 90
2, 52499, Note_on_c, 0, 70, 0
2, 52500, Note_on_c, 0, 69, 90
2, 52529, Note_on_c, 0, 69, 0
2, 52530, Note_on_c, 0, 70, 90
2, 52559, Note_on_c, 0, 70, 0
2, 52560, Note_on_c, 0, 70, 90
2, 52589, Note_on_c, 0, 70, 0
2, 52590, Note_on_c, 0, 69, 90
2, 52649, Note_on_c, 0, 69, 0
2, 52650, Note_on_c, 0, 70, 90
2, 52679, Note_on_c, 0, 70, 0
2, 52680, Note_on_c, 0, 72, 90
2, 52739, Note_on_c, 0, 72, 0
2, 52740, Note_on_c, 0, 65, 90
2, 52769, Note_on_c, 0, 65, 0
2, 52800, Note_on_c, 0, 69, 90
2, 52829, Note_on_c, 0, 69, 0
2, 52860, Note_on_c, 0, 72, 90
2, 52889, Note_on_c, 0, 72, 0
2, 52920, Note_on_c, 0, 79, 90
2, 53009, Note_on_c, 0, 79, 0
2, 53010, Note_on_c, 0, 74, 90
2, 53039, Note_on_c, 0, 74, 0
2, 53040, Note_on_c, 0, 74, 90
2, 53069, Note_on_c, 0, 74, 0
2, 53070, Note_on_c, 0, 75, 90
2, 53159, Note_on_c, 0, 75, 0
2, 53160, Note_on_c, 0, 74, 90
2, 53189, Note_on_c, 0, 74, 0
2, 53190, Note_on_c, 0, 72, 90
2, 53219, Note_on_c, 0, 72, 0
2, 53220, Note_on_c, 0, 71, 90
2, 53249, Note_on_c, 0, 71, 0
2, 53250, Note_on_c, 0, 72, 90
2, 53279, Note_on_c, 0, 72, 0
2, 53280, Note_on_c, 0, 72, 90
2, 53309, Note_on_c, 0, 72, 0
2, 53310, Note_on_c, 0, 71, 90
2, 53369, Note_on_c, 0, 71, 0
2, 53370, Note_on_c, 0, 72, 90
2, 53399, Note_on_c, 0, 72, 0
2, 53400, Note_on_c, 0, 74, 90
2, 53459, Note_on_c, 0, 74, 0
2, 53460, Note_on_c, 0, 67, 90
2, 53489, Note_on_c, 0, 67, 0
2, 53520, Note_on_c, 0, 71, 90
2, 53549, Note_on_c, 0, 71, 0
2, 53580, Note_on_c, 0, 74, 90
2, 53609, Note_on_c, 0, 74, 0
2, 53640, Note_on_c, 0, 83, 90
2, 53669, Note_on_c, 0, 83, 0
2, 53670, Note_on_c, 0, 84, 90
2, 53699, Note_on_c, 0, 84, 0
2, 53700, Note_on_c, 0, 86, 90
2, 53729, Note_on_c, 0, 86, 0
2, 53730, Note_on_c, 0, 76, 90
2, 53759, Note_on_c, 0, 76, 0
2, 53760, Note_on_c, 0, 76, 90
2, 53789, Note_on_c, 0, 76, 0
2, 53790, Note_on_c, 0, 77, 90
2, 53879, Note_on_c, 0, 77, 0
2, 53880, Note_on_c, 0, 76, 90
2, 53909, Note_on_c, 0, 76, 0
2, 53910, Note_on_c, 0, 74, 90
2, 53939, Note_on_c, 0, 74, 0
2, 53940, Note_on_c, 0, 76, 90
2, 53969, Note_on_c, 0, 76, 0
2, 53970, Note_on_c, 0, 77, 90
2, 53999, Note_on_c, 0, 77, 0
2, 54000, Note_on_c, 0, 79, 90
2, 54029, Note_on_c, 0, 79, 0
2, 54030, Note_on_c, 0, 71, 90
2, 54059, Note_on_c, 0, 71, 0
2, 54060, Note_on_c, 0, 72, 90
2, 54089, Note_on_c, 0, 72, 0
2, 54090, Note_on_c, 0, 67, 90
2, 54119, Note_on_c, 0, 67, 0
2, 54120, Note_on_c, 0, 70, 90
2, 54239, Note_on_c, 0, 70, 0
2, 54240, Note_on_c, 0, 69, 90
2, 54269, Note_on_c, 0, 69, 0
2, 54270, Note_on_c, 0, 71, 90
2, 54299, Note_on_c, 0, 71, 0
2, 54300, Note_on_c, 0, 72, 90
2, 54329, Note_on_c, 0, 72, 0
2, 54330, Note_on_c, 0, 74, 90
2, 54359, Note_on_c, 0, 74, 0
2, 54360, Note_on_c, 0, 74, 90
2, 54389, Note_on_c, 0, 74, 0
2, 54390, Note_on_c, 0, 75, 90
2, 54449, Note_on_c, 0, 75, 0
2, 54450, Note_on_c, 0, 80, 90
2, 54479, Note_on_c, 0, 80, 0
2, 54480, Note_on_c, 0, 79, 90
2, 54599, Note_on_c, 0, 79, 0
2, 54600, Note_on_c, 0, 72, 90
2, 54629, Note_on_c, 0, 72, 0
2, 54630, Note_on_c, 0, 71, 90
2, 54689, Note_on_c, 0, 71, 0
2, 54690, Note_on_c, 0, 72, 90
2, 54719, Note_on_c, 0, 72, 0
2, 54720, Note_on_c, 0, 72, 90
2, 54809, Note_on_c, 0, 72, 0
2, 54810, Note_on_c, 0, 64, 90
2, 54839, Note_on_c, 0, 64, 0
2, 54840, Note_on_c, 0, 67, 90
2, 54899, Note_on_c, 0, 67, 0
2, 54900, Note_on_c, 0, 60, 90
2, 55019, Note_on_c, 0, 60, 0
2, 57960, Note_on_c, 0, 65, 90
2, 58049, Note_on_c, 0, 65, 0
2, 58050, Note_on_c, 0, 69, 90
2, 58080, Note_on_c, 0, 69, 0
2, 58080, Note_on_c, 0, 72, 90
2, 58200, Note_on_c, 0, 72, 0
2, 58200, Note_on_c, 0, 75, 90
2, 58260, Note_on_c, 0, 75, 0
2, 58260, Note_on_c, 0, 74, 90
2, 58290, Note_on_c, 0, 74, 0
2, 58290, Note_on_c, 0, 75, 90
2, 58320, Note_on_c, 0, 75, 0
2, 58320, Note_on_c, 0, 75, 90
2, 58350, Note_on_c, 0, 75, 0
2, 58350, Note_on_c, 0, 74, 90
2, 58410, Note_on_c, 0, 74, 0
2, 58410, Note_on_c, 0, 78, 90
2, 58440, Note_on_c, 0, 78, 0
2, 58440, Note_on_c, 0, 81, 90
2, 58560, Note_on_c, 0, 81, 0
2, 58560, Note_on_c, 0, 82, 90
2, 58590, Note_on_c, 0, 82, 0
2, 58590, Note_on_c, 0, 81, 90
2, 58620, Note_on_c, 0, 81, 0
2, 58620, Note_on_c, 0, 79, 90
2, 58650, Note_on_c, 0, 79, 0
2, 58650, Note_on_c, 0, 81, 90
2, 58680, Note_on_c, 0, 81, 0
2, 58680, Note_on_c, 0, 81, 90
2, 58710, Note_on_c, 0, 81, 0
2, 58710, Note_on_c, 0, 82, 90
2, 58770, Note_on_c, 0, 82, 0
2, 58770, Note_on_c, 0, 79, 90
2, 58800, Note_on_c, 0, 79, 0
2, 58800, Note_on_c, 0, 77, 90
2, 58830, Note_on_c, 0, 77, 0
2, 58860, Note_on_c, 0, 77, 90
2, 58890, Note_on_c, 0, 77, 0
2, 58890, Note_on_c, 0, 75, 90
2, 58920, Note_on_c, 0, 75, 0
2, 58920, Note_on_c, 0, 81, 90
2, 58950, Note_on_c, 0, 81, 0
2, 58950, Note_on_c, 0, 82, 90
2, 58965, Note_on_c, 0, 82, 0
2, 58965, Note_on_c, 0, 84, 90
2, 58980, Note_on_c, 0, 84, 0
2, 58980, Note_on_c, 0, 82, 90
2, 59010, Note_on_c, 0, 82, 0
2, 59010, Note_on_c, 0, 81, 90
2, 59040, Note_on_c, 0, 81, 0
2, 59040, Note_on_c, 0, 79, 90
2, 59070, Note_on_c, 0, 79, 0
2, 59070, Note_on_c, 0, 78, 90
2, 59130, Note_on_c, 0, 78, 0
2, 59130, Note_on_c, 0, 81, 90
2, 59160, Note_on_c, 0, 81, 0
2, 59160, Note_on_c, 0, 75, 90
2, 59280, Note_on_c, 0, 75, 0
2, 59280, Note_on_c, 0, 74, 90
2, 59310, Note_on_c, 0, 74, 0
2, 59310, Note_on_c, 0, 72, 90
2, 59340, Note_on_c, 0, 72, 0
2, 59340, Note_on_c, 0, 70, 90
2, 59370, Note_on_c, 0, 70, 0
2, 59370, Note_on_c, 0, 69, 90
2, 59400, Note_on_c, 0, 69, 0
2, 59400, Note_on_c, 0, 69, 90
2, 59430, Note_on_c, 0, 69, 0
2, 59430, Note_on_c, 0, 70, 90
2, 59460, Note_on_c, 0, 70, 0
2, 59490, Note_on_c, 0, 74, 90
2, 59520, Note_on_c, 0, 74, 0
2, 59520, Note_on_c, 0, 79, 90
2, 59610, Note_on_c, 0, 79, 0
2, 59610, Note_on_c, 0, 76, 90
2, 59640, Note_on_c, 0, 76, 0
2, 59640, Note_on_c, 0, 77, 90
2, 59670, Note_on_c, 0, 77, 0
2, 59670, Note_on_c, 0, 79, 90
2, 59700, Note_on_c, 0, 79, 0
2, 59700, Note_on_c, 0, 81, 90
2, 59730, Note_on_c, 0, 81, 0
2, 59730, Note_on_c, 0, 82, 90
2, 59760, Note_on_c, 0, 82, 0
2, 59760, Note_on_c, 0, 74, 90
2, 59790, Note_on_c, 0, 74, 0
2, 59790, Note_on_c, 0, 73, 90
2, 59850, Note_on_c, 0, 73, 0
2, 59850, Note_on_c, 0, 76, 90
2, 59880, Note_on_c, 0, 76, 0
2, 59880, Note_on_c, 0, 67, 90
2, 59970, Note_on_c, 0, 67, 0
2, 59970, Note_on_c, 0, 70, 90
2, 60000, Note_on_c, 0, 70, 0
2, 60000, Note_on_c, 0, 69, 90
2, 60030, Note_on_c, 0, 69, 0
2, 60030, Note_on_c, 0, 67, 90
2, 60060, Note_on_c, 0, 67, 0
2, 60060, Note_on_c, 0, 65, 90
2, 60090, Note_on_c, 0, 65, 0
2, 60090, Note_on_c, 0, 64, 90
2, 60120, Note_on_c, 0, 64, 0
2, 60120, Note_on_c, 0, 64, 90
2, 60150, Note_on_c, 0, 64, 0
2, 60150, Note_on_c, 0, 65, 90
2, 60210, Note_on_c, 0, 65, 0
2, 60210, Note_on_c, 0, 69, 90
2, 60240, Note_on_c, 0, 69, 0
2, 60240, Note_on_c, 0, 74, 90
2, 60330, Note_on_c, 0, 74, 0
2, 60330, Note_on_c, 0, 73, 90
2, 60360, Note_on_c, 0, 73, 0
2, 60360, Note_on_c, 0, 74, 90
2, 60390, Note_on_c, 0, 74, 0
2, 60390, Note_on_c, 0, 76, 90
2, 60405, Note_on_c, 0, 76, 0
2, 60405, Note_on_c, 0, 77, 90
2, 60420, Note_on_c, 0, 77, 0
2, 60420, Note_on_c, 0, 76, 90
2, 60450, Note_on_c, 0, 76, 0
2, 60450, Note_on_c, 0, 74, 90
2, 60480, Note_on_c, 0, 74, 0
2, 60480, Note_on_c, 0, 74, 90
2, 60570, Note_on_c, 0, 74, 0
2, 60575, Note_on_c, 0, 65, 90
2, 60605, Note_on_c, 0, 65, 0
2, 60605, Note_on_c, 0, 69, 90
2, 60665, Note_on_c, 0, 69, 0
2, 60665, Note_on_c, 0, 62, 90
2, 60725, Note_on_c, 0, 62, 0
2, 60840, Note_on_c, 0, 67, 90
2, 60929, Note_on_c, 0, 67, 0
2, 60930, Note_on_c, 0, 71, 90
2, 60959, Note_on_c, 0, 71, 0
2, 60960, Note_on_c, 0, 74, 90
2, 61079, Note_on_c, 0, 74, 0
2, 61080, Note_on_c, 0, 77, 90
2, 61139, Note_on_c, 0, 77, 0
2, 61140, Note_on_c, 0, 76, 90
2, 61169, Note_on_c, 0, 76, 0
2, 61170, Note_on_c, 0, 77, 90
2, 61199, Note_on_c, 0, 77, 0
2, 61200, Note_on_c, 0, 77, 90
2, 61229, Note_on_c, 0, 77, 0
2, 61230, Note_on_c, 0, 76, 90
2, 61289, Note_on_c, 0, 76, 0
2, 61290, Note_on_c, 0, 79, 90
2, 61319, Note_on_c, 0, 79, 0
2, 61320, Note_on_c, 0, 84, 90
2, 61379, Note_on_c, 0, 84, 0
2, 61380, Note_on_c, 0, 72, 90
2, 61409, Note_on_c, 0, 72, 0
2, 61410, Note_on_c, 0, 74, 90
2, 61439, Note_on_c, 0, 74, 0
2, 61440, Note_on_c, 0, 76, 90
2, 61450, Note_on_c, 0, 76, 0
2, 61450, Note_on_c, 0, 74, 90
2, 61460, Note_on_c, 0, 74, 0
2, 61460, Note_on_c, 0, 76, 90
2, 61470, Note_on_c, 0, 76, 0
2, 61470, Note_on_c, 0, 74, 90
2, 61477, Note_on_c, 0, 76, 90
2, 61478, Note_on_c, 0, 74, 0
2, 61485, Note_on_c, 0, 76, 0
2, 61485, Note_on_c, 0, 74, 90
2, 61492, Note_on_c, 0, 76, 90
2, 61493, Note_on_c, 0, 74, 0
2, 61500, Note_on_c, 0, 76, 0
2, 61500, Note_on_c, 0, 74, 90
2, 61510, Note_on_c, 0, 74, 0
2, 61510, Note_on_c, 0, 76, 90
2, 61520, Note_on_c, 0, 76, 0
2, 61520, Note_on_c, 0, 74, 90
2, 61530, Note_on_c, 0, 74, 0
2, 61530, Note_on_c, 0, 72, 90
2, 61544, Note_on_c, 0, 72, 0
2, 61545, Note_on_c, 0, 74, 90
2, 61559, Note_on_c, 0, 74, 0
2, 61560, Note_on_c, 0, 74, 90
2, 61589, Note_on_c, 0, 74, 0
2, 61590, Note_on_c, 0, 75, 90
2, 61649, Note_on_c, 0, 75, 0
2, 61650, Note_on_c, 0, 79, 90
2, 61679, Note_on_c, 0, 79, 0
2, 61680, Note_on_c, 0, 77, 90
2, 61799, Note_on_c, 0, 77, 0
2, 61800, Note_on_c, 0, 72, 90
2, 61829, Note_on_c, 0, 72, 0
2, 61830, Note_on_c, 0, 75, 90
2, 61859, Note_on_c, 0, 75, 0
2, 61860, Note_on_c, 0, 74, 90
2, 61889, Note_on_c, 0, 74, 0
2, 61890, Note_on_c, 0, 75, 90
2, 61919, Note_on_c, 0, 75, 0
2, 61920, Note_on_c, 0, 75, 90
2, 61949, Note_on_c, 0, 75, 0
2, 61950, Note_on_c, 0, 74, 90
2, 62009, Note_on_c, 0, 74, 0
2, 62010, Note_on_c, 0, 75, 90
2, 62039, Note_on_c, 0, 75, 0
2, 62040, Note_on_c, 0, 77, 90
2, 62099, Note_on_c, 0, 77, 0
2, 62100, Note_on_c, 0, 75, 90
2, 62129, Note_on_c, 0, 75, 0
2, 62130, Note_on_c, 0, 74, 90
2, 62159, Note_on_c, 0, 74, 0
2, 62160, Note_on_c, 0, 72, 90
2, 62189, Note_on_c, 0, 72, 0
2, 62190, Note_on_c, 0, 70, 90
2, 62219, Note_on_c, 0, 70, 0
2, 62220, Note_on_c, 0, 69, 90
2, 62249, Note_on_c, 0, 69, 0
2, 62250, Note_on_c, 0, 67, 90
2, 62279, Note_on_c, 0, 67, 0
2, 62280, Note_on_c, 0, 69, 90
2, 62309, Note_on_c, 0, 69, 0
2, 62310, Note_on_c, 0, 70, 90
2, 62369, Note_on_c, 0, 70, 0
2, 62370, Note_on_c, 0, 72, 90
2, 62399, Note_on_c, 0, 72, 0
2, 62400, Note_on_c, 0, 70, 90
2, 62489, Note_on_c, 0, 70, 0
2, 62490, Note_on_c, 0, 79, 90
2, 62519, Note_on_c, 0, 79, 0
2, 62520, Note_on_c, 0, 77, 90
2, 62549, Note_on_c, 0, 77, 0
2, 62550, Note_on_c, 0, 76, 90
2, 62579, Note_on_c, 0, 76, 0
2, 62580, Note_on_c, 0, 74, 90
2, 62609, Note_on_c, 0, 74, 0
2, 62610, Note_on_c, 0, 72, 90
2, 62639, Note_on_c, 0, 72, 0
2, 62640, Note_on_c, 0, 70, 90
2, 62669, Note_on_c, 0, 70, 0
2, 62670, Note_on_c, 0, 69, 90
2, 62729, Note_on_c, 0, 69, 0
2, 62730, Note_on_c, 0, 72, 90
2, 62759, Note_on_c, 0, 72, 0
2, 62760, Note_on_c, 0, 77, 90
2, 62849, Note_on_c, 0, 77, 0
2, 62850, Note_on_c, 0, 79, 90
2, 62879, Note_on_c, 0, 79, 0
2, 62880, Note_on_c, 0, 79, 90
2, 62909, Note_on_c, 0, 79, 0
2, 62910, Note_on_c, 0, 77, 90
2, 62924, Note_on_c, 0, 77, 0
2, 62925, Note_on_c, 0, 79, 90
2, 62939, Note_on_c, 0, 79, 0
2, 62940, Note_on_c, 0, 81, 90
2, 63029, Note_on_c, 0, 81, 0
2, 63030, Note_on_c, 0, 79, 90
2, 63059, Note_on_c, 0, 79, 0
2, 63060, Note_on_c, 0, 77, 90
2, 63089, Note_on_c, 0, 77, 0
2, 63090, Note_on_c, 0, 76, 90
2, 63119, Note_on_c, 0, 76, 0
2, 63120, Note_on_c, 0, 77, 90
2, 63149, Note_on_c, 0, 77, 0
2, 63150, Note_on_c, 0, 74, 90
2, 63179, Note_on_c, 0, 74, 0
2, 63180, Note_on_c, 0, 67, 90
2, 63269, Note_on_c, 0, 67, 0
2, 63270, Note_on_c, 0, 81, 90
2, 63299, Note_on_c, 0, 81, 0
2, 63300, Note_on_c, 0, 79, 90
2, 63359, Note_on_c, 0, 79, 0
2, 63360, Note_on_c, 0, 77, 90
2, 63389, Note_on_c, 0, 77, 0
2, 63390, Note_on_c, 0, 76, 90
2, 63449, Note_on_c, 0, 76, 0
2, 63450, Note_on_c, 0, 74, 90
2, 63479, Note_on_c, 0, 74, 0
2, 63480, Note_on_c, 0, 72, 90
2, 63569, Note_on_c, 0, 72, 0
2, 63570, Note_on_c, 0, 74, 90
2, 63599, Note_on_c, 0, 74, 0
2, 63600, Note_on_c, 0, 76, 90
2, 63629, Note_on_c, 0, 76, 0
2, 63630, Note_on_c, 0, 77, 90
2, 63659, Note_on_c, 0, 77, 0
2, 63660, Note_on_c, 0, 79, 90
2, 63689, Note_on_c, 0, 79, 0
2, 63690, Note_on_c, 0, 81, 90
2, 63719, Note_on_c, 0, 81, 0
2, 63720, Note_on_c, 0, 81, 90
2, 63749, Note_on_c, 0, 81, 0
2, 63750, Note_on_c, 0, 82, 90
2, 63809, Note_on_c, 0, 82, 0
2, 63810, Note_on_c, 0, 79, 90
2, 63839, Note_on_c, 0, 79, 0
2, 63840, Note_on_c, 0, 79, 90
2, 63869, Note_on_c, 0, 79, 0
2, 63870, Note_on_c, 0, 81, 90
2, 63959, Note_on_c, 0, 81, 0
2, 63960, Note_on_c, 0, 79, 90
2, 63989, Note_on_c, 0, 79, 0
2, 63990, Note_on_c, 0, 77, 90
2, 64019, Note_on_c, 0, 77, 0
2, 64020, Note_on_c, 0, 76, 90
2, 64049, Note_on_c, 0, 76, 0
2, 64050, Note_on_c, 0, 77, 90
2, 64079, Note_on_c, 0, 77, 0
2, 64080, Note_on_c, 0, 77, 90
2, 64109, Note_on_c, 0, 77, 0
2, 64110, Note_on_c, 0, 76, 90
2, 64169, Note_on_c, 0, 76, 0
2, 64170, Note_on_c, 0, 77, 90
2, 64199, Note_on_c, 0, 77, 0
2, 64200, Note_on_c, 0, 79, 90
2, 64259, Note_on_c, 0, 79, 0
2, 64260, Note_on_c, 0, 72, 90
2, 64289, Note_on_c, 0, 72, 0
2, 64320, Note_on_c, 0, 76, 90
2, 64349, Note_on_c, 0, 76, 0
2, 64380, Note_on_c, 0, 79, 90
2, 64409, Note_on_c, 0, 79, 0
2, 64440, Note_on_c, 0, 84, 90
2, 64529, Note_on_c, 0, 84, 0
2, 64530, Note_on_c, 0, 81, 90
2, 64559, Note_on_c, 0, 81, 0
2, 64560, Note_on_c, 0, 81, 90
2, 64589, Note_on_c, 0, 81, 0
2, 64590, Note_on_c, 0, 82, 90
2, 64650, Note_on_c, 0, 82, 0
2, 64650, Note_on_c, 0, 79, 90
2, 64679, Note_on_c, 0, 79, 0
2, 64680, Note_on_c, 0, 80, 90
2, 64709, Note_on_c, 0, 80, 0
2, 64710, Note_on_c, 0, 77, 90
2, 64739, Note_on_c, 0, 77, 0
2, 64740, Note_on_c, 0, 77, 90
2, 64769, Note_on_c, 0, 77, 0
2, 64770, Note_on_c, 0, 79, 90
2, 64829, Note_on_c, 0, 79, 0
2, 64830, Note_on_c, 0, 76, 90
2, 64859, Note_on_c, 0, 76, 0
2, 64860, Note_on_c, 0, 77, 90
2, 64889, Note_on_c, 0, 77, 0
2, 64890, Note_on_c, 0, 72, 90
2, 64919, Note_on_c, 0, 72, 0
2, 64920, Note_on_c, 0, 73, 90
2, 64949, Note_on_c, 0, 73, 0
2, 64950, Note_on_c, 0, 71, 90
2, 64979, Note_on_c, 0, 71, 0
2, 64980, Note_on_c, 0, 72, 90
2, 65009, Note_on_c, 0, 72, 0
2, 65010, Note_on_c, 0, 68, 90
2, 65039, Note_on_c, 0, 68, 0
2, 65040, Note_on_c, 0, 70, 90
2, 65069, Note_on_c, 0, 70, 0
2, 65070, Note_on_c, 0, 67, 90
2, 65099, Note_on_c, 0, 67, 0
2, 65100, Note_on_c, 0, 68, 90
2, 65129, Note_on_c, 0, 68, 0
2, 65130, Note_on_c, 0, 65, 90
2, 65159, Note_on_c, 0, 65, 0
2, 65160, Note_on_c, 0, 66, 90
2, 65189, Note_on_c, 0, 66, 0
2, 65190, Note_on_c, 0, 64, 90
2, 65219, Note_on_c, 0, 64, 0
2, 65220, Note_on_c, 0, 65, 90
2, 65249, Note_on_c, 0, 65, 0
2, 65250, Note_on_c, 0, 61, 90
2, 65279, Note_on_c, 0, 61, 0
2, 65280, Note_on_c, 0, 60, 90
2, 65309, Note_on_c, 0, 60, 0
2, 65310, Note_on_c, 0, 59, 90
2, 65339, Note_on_c, 0, 59, 0
2, 65340, Note_on_c, 0, 60, 90
2, 65369, Note_on_c, 0, 60, 0
2, 65370, Note_on_c, 0, 80, 90
2, 65399, Note_on_c, 0, 80, 0
2, 65400, Note_on_c, 0, 77, 90
2, 65429, Note_on_c, 0, 77, 0
2, 65430, Note_on_c, 0, 76, 90
2, 65489, Note_on_c, 0, 76, 0
2, 65490, Note_on_c, 0, 77, 90
2, 65519, Note_on_c, 0, 77, 0
2, 65520, Note_on_c, 0, 77, 90
2, 65549, Note_on_c, 0, 77, 0
2, 65550, Note_on_c, 0, 76, 90
2, 65579, Note_on_c, 0, 76, 0
2, 65580, Note_on_c, 0, 77, 90
2, 65609, Note_on_c, 0, 77, 0
2, 65610, Note_on_c, 0, 80, 90
2, 65639, Note_on_c, 0, 80, 0
2, 65640, Note_on_c, 0, 79, 90
2, 65669, Note_on_c, 0, 79, 0
2, 65670, Note_on_c, 0, 76, 90
2, 65699, Note_on_c, 0, 76, 0
2, 65700, Note_on_c, 0, 77, 90
2, 65729, Note_on_c, 0, 77, 0
2, 65730, Note_on_c, 0, 74, 90
2, 65759, Note_on_c, 0, 74, 0
2, 65760, Note_on_c, 0, 72, 90
2, 65789, Note_on_c, 0, 72, 0
2, 65790, Note_on_c, 0, 71, 90
2, 65849, Note_on_c, 0, 71, 0
2, 65850, Note_on_c, 0, 72, 90
2, 65879, Note_on_c, 0, 72, 0
2, 65880, Note_on_c, 0, 82, 90
2, 65969, Note_on_c, 0, 82, 0
2, 65970, Note_on_c, 0, 79, 90
2, 65999, Note_on_c, 0, 79, 0
2, 66000, Note_on_c, 0, 81, 90
2, 66089, Note_on_c, 0, 81, 0
2, 66090, Note_on_c, 0, 79, 90
2, 66119, Note_on_c, 0, 79, 0
2, 66120, Note_on_c, 0, 76, 90
2, 66209, Note_on_c, 0, 76, 0
2, 66210, Note_on_c, 0, 77, 90
2, 66239, Note_on_c, 0, 77, 0
2, 66240, Note_on_c, 0, 77, 90
2, 66329, Note_on_c, 0, 77, 0
2, 66330, Note_on_c, 0, 69, 90
2, 66359, Note_on_c, 0, 69, 0
2, 66360, Note_on_c, 0, 72, 90
2, 66419, Note_on_c, 0, 72, 0
2, 66420, Note_on_c, 0, 65, 90
2, 66539, Note_on_c, 0, 65, 0
2, 76140, Note_on_c, 0, 74, 100
2, 76150, Note_on_c, 0, 74, 0
2, 76150, Note_on_c, 0, 76, 100
2, 76160, Note_on_c, 0, 76, 0
2, 76160, Note_on_c, 0, 74, 100
2, 76170, Note_on_c, 0, 74, 0
2, 76170, Note_on_c, 0, 76, 100
2, 76177, Note_on_c, 0, 74, 100
2, 76178, Note_on_c, 0, 76, 0
2, 76185, Note_on_c, 0, 74, 0
2, 76185, Note_on_c, 0, 76, 100
2, 76192, Note_on_c, 0, 74, 100
2, 76193, Note_on_c, 0, 76, 0
2, 76200, Note_on_c, 0, 74, 0
2, 76200, Note_on_c, 0, 76, 100
2, 76207, Note_on_c, 0, 74, 100
2, 76208, Note_on_c, 0, 76, 0
2, 76215, Note_on_c, 0, 74, 0
2, 76215, Note_on_c, 0, 76, 100
2, 76222, Note_on_c, 0, 74, 100
2, 76223, Note_on_c, 0, 76, 0
2, 76230, Note_on_c, 0, 74, 0
2, 76230, Note_on_c, 0, 76, 100
2, 76237, Note_on_c, 0, 74, 100
2, 76238, Note_on_c, 0, 76, 0
2, 76245, Note_on_c, 0, 74, 0
2, 76245, Note_on_c, 0, 76, 100
2, 76252, Note_on_c, 0, 74, 100
2, 76253, Note_on_c, 0, 76, 0
2, 76260, Note_on_c, 0, 74, 0
2, 76260, Note_on_c, 0, 76, 100
2, 76267, Note_on_c, 0, 74, 100
2, 76268, Note_on_c, 0, 76, 0
2, 76275, Note_on_c, 0, 74, 0
2, 76275, Note_on_c, 0, 76, 100
2, 76282, Note_on_c, 0, 74, 100
2, 76283, Note_on_c, 0, 76, 0
2, 76290, Note_on_c, 0, 74, 0
2, 76290, Note_on_c, 0, 76, 100
2, 76297, Note_on_c, 0, 74, 100
2, 76298, Note_on_c, 0, 76, 0
2, 76305, Note_on_c, 0, 74, 0
2, 76305, Note_on_c, 0, 76, 100
2, 76312, Note_on_c, 0, 74, 100
2, 76313, Note_on_c, 0, 76, 0
2, 76320, Note_on_c, 0, 74, 0
2, 76320, Note_on_c, 0, 73, 100
2, 76680, Note_on_c, 0, 73, 0
2, 78000, Note_on_c, 0, 76, 90
2, 78059, Note_on_c, 0, 76, 0
2, 78060, Note_on_c, 0, 81, 90
2, 78179, Note_on_c, 0, 81, 0
2, 78180, Note_on_c, 0, 80, 90
2, 78239, Note_on_c, 0, 80, 0
2, 78240, Note_on_c, 0, 81, 90
2, 78299, Note_on_c, 0, 81, 0
2, 78300, Note_on_c, 0, 83, 90
2, 78419, Note_on_c, 0, 83, 0
2, 78420, Note_on_c, 0, 84, 90
2, 78539, Note_on_c, 0, 84, 0
2, 78540, Note_on_c, 0, 83, 90
2, 78569, Note_on_c, 0, 83, 0
2, 78570, Note_on_c, 0, 81, 90
2, 78599, Note_on_c, 0, 81, 0
2, 78600, Note_on_c, 0, 84, 90
2, 78629, Note_on_c, 0, 84, 0
2, 78630, Note_on_c, 0, 83, 90
2, 78659, Note_on_c, 0, 83, 0
2, 78660, Note_on_c, 0, 81, 90
2, 78689, Note_on_c, 0, 81, 0
2, 78690, Note_on_c, 0, 80, 90
2, 78719, Note_on_c, 0, 80, 0
2, 78720, Note_on_c, 0, 81, 90
2, 78749, Note_on_c, 0, 81, 0
2, 78750, Note_on_c, 0, 83, 90
2, 78779, Note_on_c, 0, 83, 0
2, 78780, Note_on_c, 0, 84, 90
2, 78809, Note_on_c, 0, 84, 0
2, 78810, Note_on_c, 0, 86, 90
2, 78839, Note_on_c, 0, 86, 0
2, 78840, Note_on_c, 0, 84, 90
2, 78869, Note_on_c, 0, 84, 0
2, 78870, Note_on_c, 0, 82, 90
2, 78899, Note_on_c, 0, 82, 0
2, 78900, Note_on_c, 0, 81, 90
2, 78929, Note_on_c, 0, 81, 0
2, 78930, Note_on_c, 0, 79, 90
2, 78959, Note_on_c, 0, 79, 0
2, 78960, Note_on_c, 0, 78, 90
2, 78989, Note_on_c, 0, 78, 0
2, 79020, Note_on_c, 0, 81, 90
2, 79049, Note_on_c, 0, 81, 0
2, 79080, Note_on_c, 0, 74, 90
2, 79109, Note_on_c, 0, 74, 0
2, 79140, Note_on_c, 0, 78, 90
2, 79169, Note_on_c, 0, 78, 0
2, 79200, Note_on_c, 0, 79, 90
2, 79229, Note_on_c, 0, 79, 0
2, 79230, Note_on_c, 0, 81, 90
2, 79259, Note_on_c, 0, 81, 0
2, 79260, Note_on_c, 0, 82, 90
2, 79289, Note_on_c, 0, 82, 0
2, 79290, Note_on_c, 0, 84, 90
2, 79319, Note_on_c, 0, 84, 0
2, 79320, Note_on_c, 0, 82, 90
2, 79349, Note_on_c, 0, 82, 0
2, 79350, Note_on_c, 0, 81, 90
2, 79379, Note_on_c, 0, 81, 0
2, 79380, Note_on_c, 0, 79, 90
2, 79409, Note_on_c, 0, 79, 0
2, 79410, Note_on_c, 0, 77, 90
2, 79439, Note_on_c, 0, 77, 0
2, 79440, Note_on_c, 0, 76, 90
2, 79469, Note_on_c, 0, 76, 0
2, 79500, Note_on_c, 0, 79, 90
2, 79529, Note_on_c, 0, 79, 0
2, 79560, Note_on_c, 0, 72, 90
2, 79589, Note_on_c, 0, 72, 0
2, 79620, Note_on_c, 0, 76, 90
2, 79649, Note_on_c, 0, 76, 0
2, 79680, Note_on_c, 0, 77, 90
2, 79709, Note_on_c, 0, 77, 0
2, 79740, Note_on_c, 0, 81, 90
2, 79769, Note_on_c, 0, 81, 0
2, 79800, Note_on_c, 0, 70, 90
2, 79829, Note_on_c, 0, 70, 0
2, 79860, Note_on_c, 0, 79, 90
2, 79889, Note_on_c, 0, 79, 0
2, 79920, Note_on_c, 0, 69, 90
2, 79949, Note_on_c, 0, 69, 0
2, 79980, Note_on_c, 0, 77, 90
2, 80009, Note_on_c, 0, 77, 0
2, 80040, Note_on_c, 0, 67, 90
2, 80069, Note_on_c, 0, 67, 0
2, 80100, Note_on_c, 0, 76, 90
2, 80129, Note_on_c, 0, 76, 0
2, 80160, Note_on_c, 0, 65, 90
2, 80189, Note_on_c, 0, 65, 0
2, 80220, Note_on_c, 0, 74, 90
2, 80249, Note_on_c, 0, 74, 0
2, 80280, Note_on_c, 0, 64, 90
2, 80309, Note_on_c, 0, 64, 0
2, 80340, Note_on_c, 0, 73, 90
2, 80369, Note_on_c, 0, 73, 0
2, 80400, Note_on_c, 0, 74, 90
2, 80429, Note_on_c, 0, 74, 0
2, 80430, Note_on_c, 0, 77, 90
2, 80459, Note_on_c, 0, 77, 0
2, 80460, Note_on_c, 0, 76, 90
2, 80489, Note_on_c, 0, 76, 0
2, 80490, Note_on_c, 0, 77, 90
2, 80519, Note_on_c, 0, 77, 0
2, 80520, Note_on_c, 0, 79, 90
2, 80549, Note_on_c, 0, 79, 0
2, 80550, Note_on_c, 0, 81, 90
2, 80579, Note_on_c, 0, 81, 0
2, 80580, Note_on_c, 0, 77, 90
2, 80609, Note_on_c, 0, 77, 0
2, 80610, Note_on_c, 0, 79, 90
2, 80639, Note_on_c, 0, 79, 0
2, 80640, Note_on_c, 0, 81, 90
2, 80669, Note_on_c, 0, 81, 0
2, 80670, Note_on_c, 0, 77, 90
2, 80699, Note_on_c, 0, 77, 0
2, 80700, Note_on_c, 0, 76, 90
2, 80729, Note_on_c, 0, 76, 0
2, 80730, Note_on_c, 0, 74, 90
2, 80759, Note_on_c, 0, 74, 0
2, 80760, Note_on_c, 0, 82, 90
2, 80789, Note_on_c, 0, 82, 0
2, 80790, Note_on_c, 0, 79, 90
2, 80819, Note_on_c, 0, 79, 0
2, 80820, Note_on_c, 0, 77, 90
2, 80849, Note_on_c, 0, 77, 0
2, 80850, Note_on_c, 0, 76, 90
2, 80879, Note_on_c, 0, 76, 0
2, 80880, Note_on_c, 0, 85, 90
2, 80909, Note_on_c, 0, 85, 0
2, 80910, Note_on_c, 0, 81, 90
2, 80939, Note_on_c, 0, 81, 0
2, 80940, Note_on_c, 0, 79, 90
2, 80969, Note_on_c, 0, 79, 0
2, 80970, Note_on_c, 0, 77, 90
2, 80999, Note_on_c, 0, 77, 0
2, 81000, Note_on_c, 0, 82, 90
2, 81029, Note_on_c, 0, 82, 0
2, 81030, Note_on_c, 0, 79, 90
2, 81059, Note_on_c, 0, 79, 0
2, 81060, Note_on_c, 0, 77, 90
2, 81089, Note_on_c, 0, 77, 0
2, 81090, Note_on_c, 0, 76, 90
2, 81119, Note_on_c, 0, 76, 0
2, 81120, Note_on_c, 0, 77, 90
2, 81149, Note_on_c, 0, 77, 0
2, 81150, Note_on_c, 0, 83, 90
2, 81179, Note_on_c, 0, 83, 0
2, 81180, Note_on_c, 0, 84, 90
2, 81209, Note_on_c, 0, 84, 0
2, 81210, Note_on_c, 0, 86, 90
2, 81239, Note_on_c, 0, 86, 0
2, 81240, Note_on_c, 0, 74, 90
2, 81269, Note_on_c, 0, 74, 0
2, 81270, Note_on_c, 0, 80, 90
2, 81299, Note_on_c, 0, 80, 0
2, 81300, Note_on_c, 0, 81, 90
2, 81329, Note_on_c, 0, 81, 0
2, 81330, Note_on_c, 0, 83, 90
2, 81359, Note_on_c, 0, 83, 0
2, 81360, Note_on_c, 0, 72, 90
2, 81419, Note_on_c, 0, 72, 0
2, 81480, Note_on_c, 0, 71, 90
2, 81539, Note_on_c, 0, 71, 0
2, 81630, Note_on_c, 0, 69, 90
2, 81659, Note_on_c, 0, 69, 0
2, 81660, Note_on_c, 0, 68, 90
2, 81689, Note_on_c, 0, 68, 0
2, 81690, Note_on_c, 0, 69, 90
2, 81719, Note_on_c, 0, 69, 0
2, 81720, Note_on_c, 0, 71, 90
2, 81749, Note_on_c, 0, 71, 0
2, 81750, Note_on_c, 0, 69, 90
2, 81779, Note_on_c, 0, 69, 0
2, 81780, Note_on_c, 0, 68, 90
2, 81809, Note_on_c, 0, 68, 0
2, 81810, Note_on_c, 0, 69, 90
2, 81839, Note_on_c, 0, 69, 0
2, 81840, Note_on_c, 0, 72, 90
2, 81869, Note_on_c, 0, 72, 0
2, 81870, Note_on_c, 0, 69, 90
2, 81899, Note_on_c, 0, 69, 0
2, 81900, Note_on_c, 0, 68, 90
2, 81929, Note_on_c, 0, 68, 0
2, 81930, Note_on_c, 0, 69, 90
2, 81959, Note_on_c, 0, 69, 0
2, 81960, Note_on_c, 0, 77, 90
2, 81989, Note_on_c, 0, 77, 0
2, 81990, Note_on_c, 0, 71, 90
2, 82019, Note_on_c, 0, 71, 0
2, 82020, Note_on_c, 0, 72, 90
2, 82049, Note_on_c, 0, 72, 0
2, 82050, Note_on_c, 0, 74, 90
2, 82079, Note_on_c, 0, 74, 0
2, 82080, Note_on_c, 0, 72, 90
2, 82139, Note_on_c, 0, 72, 0
2, 82140, Note_on_c, 0, 76, 90
2, 82199, Note_on_c, 0, 76, 0
2, 82200, Note_on_c, 0, 81, 90
2, 82259, Note_on_c, 0, 81, 0
2, 82260, Note_on_c, 0, 81, 90
2, 82319, Note_on_c, 0, 81, 0
2, 82320, Note_on_c, 0, 81, 90
2, 82379, Note_on_c, 0, 81, 0
2, 82380, Note_on_c, 0, 79, 90
2, 82409, Note_on_c, 0, 79, 0
2, 82410, Note_on_c, 0, 77, 90
2, 82439, Note_on_c, 0, 77, 0
2, 82440, Note_on_c, 0, 76, 90
2, 82469, Note_on_c, 0, 76, 0
2, 82470, Note_on_c, 0, 74, 90
2, 82499, Note_on_c, 0, 74, 0
2, 82500, Note_on_c, 0, 72, 90
2, 82529, Note_on_c, 0, 72, 0
2, 82530, Note_on_c, 0, 70, 90
2, 82559, Note_on_c, 0, 70, 0
2, 82560, Note_on_c, 0, 69, 90
2, 82619, Note_on_c, 0, 69, 0
2, 82620, Note_on_c, 0, 72, 90
2, 82679, Note_on_c, 0, 72, 0
2, 82680, Note_on_c, 0, 77, 90
2, 82739, Note_on_c, 0, 77, 0
2, 82740, Note_on_c, 0, 77, 90
2, 82799, Note_on_c, 0, 77, 0
2, 82800, Note_on_c, 0, 77, 90
2, 82859, Note_on_c, 0, 77, 0
2, 82860, Note_on_c, 0, 76, 90
2, 82889, Note_on_c, 0, 76, 0
2, 82890, Note_on_c, 0, 74, 90
2, 82919, Note_on_c, 0, 74, 0
2, 82920, Note_on_c, 0, 72, 90
2, 82949, Note_on_c, 0, 72, 0
2, 82950, Note_on_c, 0, 70, 90
2, 82979, Note_on_c, 0, 70, 0
2, 82980, Note_on_c, 0, 69, 90
2, 83009, Note_on_c, 0, 69, 0
2, 83010, Note_on_c, 0, 73, 90
2, 83039, Note_on_c, 0, 73, 0
2, 83040, Note_on_c, 0, 65, 90
2, 83099, Note_on_c, 0, 65, 0
2, 83100, Note_on_c, 0, 69, 90
2, 83159, Note_on_c, 0, 69, 0
2, 83160, Note_on_c, 0, 74, 90
2, 83219, Note_on_c, 0, 74, 0
2, 83220, Note_on_c, 0, 74, 90
2, 83279, Note_on_c, 0, 74, 0
2, 83280, Note_on_c, 0, 73, 90
2, 83309, Note_on_c, 0, 73, 0
2, 83310, Note_on_c, 0, 76, 90
2, 83339, Note_on_c, 0, 76, 0
2, 83340, Note_on_c, 0, 74, 90
2, 83369, Note_on_c, 0, 74, 0
2, 83370, Note_on_c, 0, 77, 90
2, 83399, Note_on_c, 0, 77, 0
2, 83400, Note_on_c, 0, 76, 90
2, 83429, Note_on_c, 0, 76, 0
2, 83430, Note_on_c, 0, 79, 90
2, 83459, Note_on_c, 0, 79, 0
2, 83460, Note_on_c, 0, 77, 90
2, 83489, Note_on_c, 0, 77, 0
2, 83490, Note_on_c, 0, 76, 90
2, 83519, Note_on_c, 0, 76, 0
2, 83520, Note_on_c, 0, 77, 90
2, 83549, Note_on_c, 0, 77, 0
2, 83550, Note_on_c, 0, 74, 90
2, 83579, Note_on_c, 0, 74, 0
2, 83580, Note_on_c, 0, 73, 90
2, 83609, Note_on_c, 0, 73, 0
2, 83610, Note_on_c, 0, 71, 90
2, 83639, Note_on_c, 0, 71, 0
2, 83640, Note_on_c, 0, 79, 90
2, 83669, Note_on_c, 0, 79, 0
2, 83670, Note_on_c, 0, 76, 90
2, 83699, Note_on_c, 0, 76, 0
2, 83700, Note_on_c, 0, 74, 90
2, 83729, Note_on_c, 0, 74, 0
2, 83730, Note_on_c, 0, 73, 90
2, 83759, Note_on_c, 0, 73, 0
2, 83760, Note_on_c, 0, 81, 90
2, 83789, Note_on_c, 0, 81, 0
2, 83790, Note_on_c, 0, 74, 90
2, 83819, Note_on_c, 0, 74, 0
2, 83820, Note_on_c, 0, 76, 90
2, 83849, Note_on_c, 0, 76, 0
2, 83850, Note_on_c, 0, 77, 90
2, 83879, Note_on_c, 0, 77, 0
2, 83880, Note_on_c, 0, 79, 90
2, 83909, Note_on_c, 0, 79, 0
2, 83910, Note_on_c, 0, 73, 90
2, 83939, Note_on_c, 0, 73, 0
2, 83940, Note_on_c, 0, 74, 90
2, 83969, Note_on_c, 0, 74, 0
2, 83970, Note_on_c, 0, 76, 90
2, 83999, Note_on_c, 0, 76, 0
2, 84000, Note_on_c, 0, 77, 90
2, 84059, Note_on_c, 0, 77, 0
2, 84060, Note_on_c, 0, 74, 90
2, 84089, Note_on_c, 0, 74, 0
2, 84090, Note_on_c, 0, 76, 90
2, 84119, Note_on_c, 0, 76, 0
2, 84120, Note_on_c, 0, 77, 90
2, 84179, Note_on_c, 0, 77, 0
2, 84180, Note_on_c, 0, 81, 90
2, 84269, Note_on_c, 0, 81, 0
2, 84270, Note_on_c, 0, 77, 90
2, 84299, Note_on_c, 0, 77, 0
2, 84300, Note_on_c, 0, 79, 90
2, 84329, Note_on_c, 0, 79, 0
2, 84330, Note_on_c, 0, 81, 90
2, 84359, Note_on_c, 0, 81, 0
2, 84360, Note_on_c, 0, 79, 90
2, 84389, Note_on_c, 0, 79, 0
2, 84390, Note_on_c, 0, 77, 90
2, 84419, Note_on_c, 0, 77, 0
2, 84420, Note_on_c, 0, 76, 90
2, 84449, Note_on_c, 0, 76, 0
2, 84450, Note_on_c, 0, 74, 90
2, 84479, Note_on_c, 0, 74, 0
2, 84480, Note_on_c, 0, 76, 90
2, 84539, Note_on_c, 0, 76, 0
2, 84540, Note_on_c, 0, 72, 90
2, 84569, Note_on_c, 0, 72, 0
2, 84570, Note_on_c, 0, 74, 90
2, 84599, Note_on_c, 0, 74, 0
2, 84600, Note_on_c, 0, 76, 90
2, 84659, Note_on_c, 0, 76, 0
2, 84660, Note_on_c, 0, 79, 90
2, 84749, Note_on_c, 0, 79, 0
2, 84750, Note_on_c, 0, 76, 90
2, 84779, Note_on_c, 0, 76, 0
2, 84780, Note_on_c, 0, 77, 90
2, 84809, Note_on_c, 0, 77, 0
2, 84810, Note_on_c, 0, 79, 90
2, 84839, Note_on_c, 0, 79, 0
2, 84840, Note_on_c, 0, 77, 90
2, 84869, Note_on_c, 0, 77, 0
2, 84870, Note_on_c, 0, 76, 90
2, 84899, Note_on_c, 0, 76, 0
2, 84900, Note_on_c, 0, 74, 90
2, 84929, Note_on_c, 0, 74, 0
2, 84930, Note_on_c, 0, 73, 90
2, 84959, Note_on_c, 0, 73, 0
2, 84960, Note_on_c, 0, 74, 90
2, 85019, Note_on_c, 0, 74, 0
2, 85020, Note_on_c, 0, 70, 90
2, 85049, Note_on_c, 0, 70, 0
2, 85050, Note_on_c, 0, 72, 90
2, 85079, Note_on_c, 0, 72, 0
2, 85080, Note_on_c, 0, 74, 90
2, 85139, Note_on_c, 0, 74, 0
2, 85140, Note_on_c, 0, 77, 90
2, 85229, Note_on_c, 0, 77, 0
2, 85230, Note_on_c, 0, 74, 90
2, 85259, Note_on_c, 0, 74, 0
2, 85260, Note_on_c, 0, 76, 90
2, 85289, Note_on_c, 0, 76, 0
2, 85290, Note_on_c, 0, 77, 90
2, 85319, Note_on_c, 0, 77, 0
2, 85320, Note_on_c, 0, 76, 90
2, 85349, Note_on_c, 0, 76, 0
2, 85350, Note_on_c, 0, 74, 90
2, 85379, Note_on_c, 0, 74, 0
2, 85380, Note_on_c, 0, 73, 90
2, 85409, Note_on_c, 0, 73, 0
2, 85410, Note_on_c, 0, 71, 90
2, 85439, Note_on_c, 0, 71, 0
2, 85440, Note_on_c, 0, 73, 90
2, 85469, Note_on_c, 0, 73, 0
2, 85470, Note_on_c, 0, 71, 90
2, 85499, Note_on_c, 0, 71, 0
2, 85500, Note_on_c, 0, 73, 90
2, 85529, Note_on_c, 0, 73, 0
2, 85530, Note_on_c, 0, 74, 90
2, 85559, Note_on_c, 0, 74, 0
2, 85560, Note_on_c, 0, 76, 90
2, 85589, Note_on_c, 0, 76, 0
2, 85590, Note_on_c, 0, 73, 90
2, 85619, Note_on_c, 0, 73, 0
2, 85620, Note_on_c, 0, 74, 90
2, 85649, Note_on_c, 0, 74, 0
2, 85650, Note_on_c, 0, 76, 90
2, 85679, Note_on_c, 0, 76, 0
2, 85680, Note_on_c, 0, 69, 90
2, 85739, Note_on_c, 0, 69, 0
2, 85740, Note_on_c, 0, 74, 90
2, 85859, Note_on_c, 0, 74, 0
2, 85860, Note_on_c, 0, 73, 90
2, 85919, Note_on_c, 0, 73, 0
2, 85920, Note_on_c, 0, 74, 90
2, 85979, Note_on_c, 0, 74, 0
2, 85980, Note_on_c, 0, 76, 90
2, 86099, Note_on_c, 0, 76, 0
2, 86100, Note_on_c, 0, 77, 90
2, 86219, Note_on_c, 0, 77, 0
2, 86220, Note_on_c, 0, 76, 90
2, 86249, Note_on_c, 0, 76, 0
2, 86250, Note_on_c, 0, 74, 90
2, 86279, Note_on_c, 0, 74, 0
2, 86280, Note_on_c, 0, 77, 90
2, 86309, Note_on_c, 0, 77, 0
2, 86310, Note_on_c, 0, 76, 90
2, 86339, Note_on_c, 0, 76, 0
2, 86340, Note_on_c, 0, 74, 90
2, 86369, Note_on_c, 0, 74, 0
2, 86370, Note_on_c, 0, 73, 90
2, 86399, Note_on_c, 0, 73, 0
2, 86400, Note_on_c, 0, 74, 90
2, 86429, Note_on_c, 0, 74, 0
2, 86430, Note_on_c, 0, 69, 90
2, 86459, Note_on_c, 0, 69, 0
2, 86460, Note_on_c, 0, 65, 90
2, 86489, Note_on_c, 0, 65, 0
2, 86490, Note_on_c, 0, 69, 90
2, 86519, Note_on_c, 0, 69, 0
2, 86520, Note_on_c, 0, 62, 90
2, 86579, Note_on_c, 0, 62, 0
2, 93360, Note_on_c, 0, 76, 90
2, 93419, Note_on_c, 0, 76, 0
2, 93420, Note_on_c, 0, 81, 90
2, 93539, Note_on_c, 0, 81, 0
2, 93540, Note_on_c, 0, 80, 90
2, 93599, Note_on_c, 0, 80, 0
2, 93600, Note_on_c, 0, 81, 90
2, 93659, Note_on_c, 0, 81, 0
2, 93660, Note_on_c, 0, 83, 90
2, 93779, Note_on_c, 0, 83, 0
2, 93780, Note_on_c, 0, 84, 90
2, 93899, Note_on_c, 0, 84, 0
2, 93900, Note_on_c, 0, 83, 90
2, 93929, Note_on_c, 0, 83, 0
2, 93930, Note_on_c, 0, 81, 90
2, 93959, Note_on_c, 0, 81, 0
2, 93960, Note_on_c, 0, 84, 90
2, 93989, Note_on_c, 0, 84, 0
2, 93990, Note_on_c, 0, 83, 90
2, 94019, Note_on_c, 0, 83, 0
2, 94020, Note_on_c, 0, 81, 90
2, 94049, Note_on_c, 0, 81, 0
2, 94050, Note_on_c, 0, 80, 90
2, 94079, Note_on_c, 0, 80, 0
2, 94080, Note_on_c, 0, 81, 90
2, 94109, Note_on_c, 0, 81, 0
2, 94110, Note_on_c, 0, 76, 90
2, 94139, Note_on_c, 0, 76, 0
2, 94140, Note_on_c, 0, 72, 90
2, 94169, Note_on_c, 0, 72, 0
2, 94170, Note_on_c, 0, 76, 90
2, 94199, Note_on_c, 0, 76, 0
2, 94200, Note_on_c, 0, 69, 90
2, 94259, Note_on_c, 0, 69, 0
2, 101040, Note_on_c, 0, 69, 90
2, 101099, Note_on_c, 0, 69, 0
2, 101100, Note_on_c, 0, 74, 90
2, 101219, Note_on_c, 0, 74, 0
2, 101220, Note_on_c, 0, 73, 90
2, 101279, Note_on_c, 0, 73, 0
2, 101280, Note_on_c, 0, 74, 90
2, 101339, Note_on_c, 0, 74, 0
2, 101400, Note_on_c, 0, 76, 90
2, 101459, Note_on_c, 0, 76, 0
2, 101520, Note_on_c, 0, 77, 90
2, 101579, Note_on_c, 0, 77, 0
2, 101580, Note_on_c, 0, 76, 90
2, 101609, Note_on_c, 0, 76, 0
2, 101610, Note_on_c, 0, 74, 90
2, 101639, Note_on_c, 0, 74, 0
2, 101640, Note_on_c, 0, 73, 90
2, 101669, Note_on_c, 0, 73, 0
2, 101670, Note_on_c, 0, 76, 90
2, 101699, Note_on_c, 0, 76, 0
2, 101700, Note_on_c, 0, 74, 90
2, 101729, Note_on_c, 0, 74, 0
2, 101730, Note_on_c, 0, 73, 90
2, 101759, Note_on_c, 0, 73, 0
2, 101760, Note_on_c, 0, 74, 90
2, 101819, Note_on_c, 0, 74, 0
2, 101820, Note_on_c, 0, 81, 90
2, 101939, Note_on_c, 0, 81, 0
2, 101940, Note_on_c, 0, 79, 90
2, 101999, Note_on_c, 0, 79, 0
2, 102000, Note_on_c, 0, 77, 90
2, 102059, Note_on_c, 0, 77, 0
2, 102120, Note_on_c, 0, 76, 90
2, 102179, Note_on_c, 0, 76, 0
2, 102240, Note_on_c, 0, 74, 90
2, 102299, Note_on_c, 0, 74, 0
2, 102300, Note_on_c, 0, 82, 90
2, 102419, Note_on_c, 0, 82, 0
2, 102420, Note_on_c, 0, 81, 90
2, 102479, Note_on_c, 0, 81, 0
2, 102480, Note_on_c, 0, 79, 90
2, 102539, Note_on_c, 0, 79, 0
2, 102540, Note_on_c, 0, 77, 90
2, 102569, Note_on_c, 0, 77, 0
2, 102570, Note_on_c, 0, 76, 90
2, 102599, Note_on_c, 0, 76, 0
2, 102600, Note_on_c, 0, 77, 90
2, 102629, Note_on_c, 0, 77, 0
2, 102630, Note_on_c, 0, 81, 90
2, 102659, Note_on_c, 0, 81, 0
2, 102660, Note_on_c, 0, 79, 90
2, 102689, Note_on_c, 0, 79, 0
2, 102690, Note_on_c, 0, 77, 90
2, 102719, Note_on_c, 0, 77, 0
2, 102720, Note_on_c, 0, 76, 90
2, 102749, Note_on_c, 0, 76, 0
2, 102750, Note_on_c, 0, 74, 90
2, 102779, Note_on_c, 0, 74, 0
2, 102780, Note_on_c, 0, 72, 90
2, 102839, Note_on_c, 0, 72, 0
2, 102960, Note_on_c, 0, 72, 90
2, 103019, Note_on_c, 0, 72, 0
2, 103020, Note_on_c, 0, 77, 90
2, 103139, Note_on_c, 0, 77, 0
2, 103140, Note_on_c, 0, 76, 90
2, 103199, Note_on_c, 0, 76, 0
2, 103200, Note_on_c, 0, 77, 90
2, 103259, Note_on_c, 0, 77, 0
2, 103260, Note_on_c, 0, 79, 90
2, 103379, Note_on_c, 0, 79, 0
2, 103380, Note_on_c, 0, 81, 90
2, 103499, Note_on_c, 0, 81, 0
2, 103500, Note_on_c, 0, 79, 90
2, 103529, Note_on_c, 0, 79, 0
2, 103530, Note_on_c, 0, 77, 90
2, 103559, Note_on_c, 0, 77, 0
2, 103560, Note_on_c, 0, 81, 90
2, 103589, Note_on_c, 0, 81, 0
2, 103590, Note_on_c, 0, 79, 90
2, 103619, Note_on_c, 0, 79, 0
2, 103620, Note_on_c, 0, 77, 90
2, 103649, Note_on_c, 0, 77, 0
2, 103650, Note_on_c, 0, 76, 90
2, 103679, Note_on_c, 0, 76, 0
2, 103680, Note_on_c, 0, 77, 90
2, 103739, Note_on_c, 0, 77, 0
2, 103920, Note_on_c, 0, 76, 90
2, 103979, Note_on_c, 0, 76, 0
2, 104040, Note_on_c, 0, 74, 90
2, 104099, Note_on_c, 0, 74, 0
2, 104160, Note_on_c, 0, 72, 90
2, 104219, Note_on_c, 0, 72, 0
2, 104280, Note_on_c, 0, 65, 90
2, 104339, Note_on_c, 0, 65, 0
2, 104400, Note_on_c, 0, 64, 90
2, 104459, Note_on_c, 0, 64, 0
2, 104460, Note_on_c, 0, 64, 90
2, 104519, Note_on_c, 0, 64, 0
2, 104520, Note_on_c, 0, 62, 90
2, 104579, Note_on_c, 0, 62, 0
2, 104580, Note_on_c, 0, 65, 90
2, 104639, Note_on_c, 0, 65, 0
2, 104640, Note_on_c, 0, 64, 90
2, 104699, Note_on_c, 0, 64, 0
2, 104880, Note_on_c, 0, 74, 90
2, 104939, Note_on_c, 0, 74, 0
2, 104940, Note_on_c, 0, 81, 90
2, 105059, Note_on_c, 0, 81, 0
2, 105060, Note_on_c, 0, 84, 90
2, 105119, Note_on_c, 0, 84, 0
2, 105120, Note_on_c, 0, 82, 90
2, 105179, Note_on_c, 0, 82, 0
2, 105360, Note_on_c, 0, 72, 90
2, 105419, Note_on_c, 0, 72, 0
2, 105420, Note_on_c, 0, 79, 90
2, 105539, Note_on_c, 0, 79, 0
2, 105540, Note_on_c, 0, 82, 90
2, 105599, Note_on_c, 0, 82, 0
2, 105600, Note_on_c, 0, 81, 90
2, 105659, Note_on_c, 0, 81, 0
2, 105840, Note_on_c, 0, 81, 90
2, 105899, Note_on_c, 0, 81, 0
2, 105960, Note_on_c, 0, 79, 90
2, 106019, Note_on_c, 0, 79, 0
2, 106080, Note_on_c, 0, 78, 90
2, 106139, Note_on_c, 0, 78, 0
2, 106320, Note_on_c, 0, 79, 90
2, 106379, Note_on_c, 0, 79, 0
2, 106440, Note_on_c, 0, 77, 90
2, 106499, Note_on_c, 0, 77, 0
2, 106560, Note_on_c, 0, 76, 90
2, 106619, Note_on_c, 0, 76, 0
2, 106800, Note_on_c, 0, 77, 90
2, 106859, Note_on_c, 0, 77, 0
2, 106920, Note_on_c, 0, 76, 90
2, 106979, Note_on_c, 0, 76, 0
2, 107040, Note_on_c, 0, 75, 90
2, 107099, Note_on_c, 0, 75, 0
2, 107160, Note_on_c, 0, 74, 90
2, 107219, Note_on_c, 0, 74, 0
2, 107280, Note_on_c, 0, 73, 90
2, 107339, Note_on_c, 0, 73, 0
2, 107400, Note_on_c, 0, 72, 90
2, 107459, Note_on_c, 0, 72, 0
2, 107520, Note_on_c, 0, 71, 90
2, 107579, Note_on_c, 0, 71, 0
2, 107640, Note_on_c, 0, 70, 90
2, 107699, Note_on_c, 0, 70, 0
2, 107760, Note_on_c, 0, 69, 90
2, 107819, Note_on_c, 0, 69, 0
2, 107880, Note_on_c, 0, 70, 90
2, 107939, Note_on_c, 0, 70, 0
2, 108000, Note_on_c, 0, 68, 90
2, 108059, Note_on_c, 0, 68, 0
2, 108240, Note_on_c, 0, 76, 90
2, 108299, Note_on_c, 0, 76, 0
2, 108300, Note_on_c, 0, 81, 90
2, 108419, Note_on_c, 0, 81, 0
2, 108420, Note_on_c, 0, 80, 90
2, 108479, Note_on_c, 0, 80, 0
2, 108480, Note_on_c, 0, 81, 90
2, 108539, Note_on_c, 0, 81, 0
2, 108540, Note_on_c, 0, 83, 90
2, 108659, Note_on_c, 0, 83, 0
2, 108660, Note_on_c, 0, 84, 90
2, 108779, Note_on_c, 0, 84, 0
2, 108780, Note_on_c, 0, 83, 90
2, 108809, Note_on_c, 0, 83, 0
2, 108810, Note_on_c, 0, 81, 90
2, 108839, Note_on_c, 0, 81, 0
2, 108840, Note_on_c, 0, 84, 90
2, 108869, Note_on_c, 0, 84, 0
2, 108870, Note_on_c, 0, 83, 90
2, 108899, Note_on_c, 0, 83, 0
2, 108900, Note_on_c, 0, 81, 90
2, 108929, Note_on_c, 0, 81, 0
2, 108930, Note_on_c, 0, 80, 90
2, 108959, Note_on_c, 0, 80, 0
2, 108960, Note_on_c, 0, 81, 100
2, 109980, Note_on_c, 0, 81, 0
2, 109980, Note_on_c, 0, 83, 90
2, 110039, Note_on_c, 0, 83, 0
2, 110040, Note_on_c, 0, 76, 90
2, 110099, Note_on_c, 0, 76, 0
2, 110100, Note_on_c, 0, 80, 90
2, 110159, Note_on_c, 0, 80, 0
2, 110160, Note_on_c, 0, 81, 90
2, 110219, Note_on_c, 0, 81, 0
2, 116880, Note_on_c, 0, 57, 90
2, 116939, Note_on_c, 0, 57, 0
2, 116940, Note_on_c, 0, 62, 90
2, 117059, Note_on_c, 0, 62, 0
2, 117060, Note_on_c, 0, 61, 90
2, 117119, Note_on_c, 0, 61, 0
2, 117120, Note_on_c, 0, 62, 90
2, 117179, Note_on_c, 0, 62, 0
2, 117240, Note_on_c, 0, 64, 90
2, 117299, Note_on_c, 0, 64, 0
2, 117360, Note_on_c, 0, 65, 90
2, 117419, Note_on_c, 0, 65, 0
2, 117420, Note_on_c, 0, 64, 90
2, 117449, Note_on_c, 0, 64, 0
2, 117450, Note_on_c, 0, 62, 90
2, 117479, Note_on_c, 0, 62, 0
2, 117480, Note_on_c, 0, 61, 90
2, 117509, Note_on_c, 0, 61, 0
2, 117510, Note_on_c, 0, 64, 90
2, 117539, Note_on_c, 0, 64, 0
2, 117540, Note_on_c, 0, 62, 90
2, 117569, Note_on_c, 0, 62, 0
2, 117570, Note_on_c, 0, 61, 90
2, 117599, Note_on_c, 0, 61, 0
2, 117600, Note_on_c, 0, 62, 90
2, 117659, Note_on_c, 0, 62, 0
2, 117660, Note_on_c, 0, 69, 90
2, 117779, Note_on_c, 0, 69, 0
2, 117780, Note_on_c, 0, 67, 90
2, 117839, Note_on_c, 0, 67, 0
2, 117840, Note_on_c, 0, 65, 90
2, 117899, Note_on_c, 0, 65, 0
2, 117960, Note_on_c, 0, 64, 90
2, 118019, Note_on_c, 0, 64, 0
2, 118080, Note_on_c, 0, 62, 90
2, 118139, Note_on_c, 0, 62, 0
2, 118140, Note_on_c, 0, 74, 90
2, 118259, Note_on_c, 0, 74, 0
2, 118260, Note_on_c, 0, 72, 90
2, 118319, Note_on_c, 0, 72, 0
2, 118320, Note_on_c, 0, 70, 90
2, 118379, Note_on_c, 0, 70, 0
2, 118440, Note_on_c, 0, 69, 90
2, 118499, Note_on_c, 0, 69, 0
2, 118560, Note_on_c, 0, 74, 90
2, 118619, Note_on_c, 0, 74, 0
2, 118620, Note_on_c, 0, 79, 90
2, 118739, Note_on_c, 0, 79, 0
2, 118740, Note_on_c, 0, 78, 90
2, 118799, Note_on_c, 0, 78, 0
2, 118800, Note_on_c, 0, 79, 90
2, 118859, Note_on_c, 0, 79, 0
2, 118860, Note_on_c, 0, 81, 90
2, 118979, Note_on_c, 0, 81, 0
2, 118980, Note_on_c, 0, 82, 90
2, 119099, Note_on_c, 0, 82, 0
2, 119100, Note_on_c, 0, 81, 90
2, 119129, Note_on_c, 0, 81, 0
2, 119130, Note_on_c, 0, 79, 90
2, 119159, Note_on_c, 0, 79, 0
2, 119160, Note_on_c, 0, 82, 90
2, 119189, Note_on_c, 0, 82, 0
2, 119190, Note_on_c, 0, 81, 90
2, 119219, Note_on_c, 0, 81, 0
2, 119220, Note_on_c, 0, 79, 90
2, 119249, Note_on_c, 0, 79, 0
2, 119250, Note_on_c, 0, 78, 90
2, 119279, Note_on_c, 0, 78, 0
2, 119280, Note_on_c, 0, 79, 100
2, 119340, Note_on_c, 0, 79, 0
2, 119520, Note_on_c, 0, 72, 90
2, 119579, Note_on_c, 0, 72, 0
2, 119580, Note_on_c, 0, 77, 90
2, 119699, Note_on_c, 0, 77, 0
2, 119700, Note_on_c, 0, 76, 90
2, 119759, Note_on_c, 0, 76, 0
2, 119760, Note_on_c, 0, 77, 90
2, 119819, Note_on_c, 0, 77, 0
2, 119820, Note_on_c, 0, 79, 90
2, 119939, Note_on_c, 0, 79, 0
2, 119940, Note_on_c, 0, 81, 90
2, 120059, Note_on_c, 0, 81, 0
2, 120060, Note_on_c, 0, 79, 90
2, 120089, Note_on_c, 0, 79, 0
2, 120090, Note_on_c, 0, 77, 90
2, 120119, Note_on_c, 0, 77, 0
2, 120120, Note_on_c, 0, 81, 90
2, 120149, Note_on_c, 0, 81, 0
2, 120150, Note_on_c, 0, 79, 90
2, 120179, Note_on_c, 0, 79, 0
2, 120180, Note_on_c, 0, 77, 90
2, 120209, Note_on_c, 0, 77, 0
2, 120210, Note_on_c, 0, 76, 90
2, 120239, Note_on_c, 0, 76, 0
2, 120240, Note_on_c, 0, 77, 90
2, 120299, Note_on_c, 0, 77, 0
2, 120480, Note_on_c, 0, 67, 90
2, 120539, Note_on_c, 0, 67, 0
2, 120540, Note_on_c, 0, 74, 90
2, 120659, Note_on_c, 0, 74, 0
2, 120660, Note_on_c, 0, 77, 90
2, 120719, Note_on_c, 0, 77, 0
2, 120720, Note_on_c, 0, 76, 90
2, 120779, Note_on_c, 0, 76, 0
2, 120960, Note_on_c, 0, 65, 90
2, 121019, Note_on_c, 0, 65, 0
2, 121020, Note_on_c, 0, 72, 90
2, 121139, Note_on_c, 0, 72, 0
2, 121140, Note_on_c, 0, 75, 90
2, 121199, Note_on_c, 0, 75, 0
2, 121200, Note_on_c, 0, 74, 90
2, 121259, Note_on_c, 0, 74, 0
2, 121440, Note_on_c, 0, 74, 90
2, 121499, Note_on_c, 0, 74, 0
2, 121560, Note_on_c, 0, 72, 90
2, 121619, Note_on_c, 0, 72, 0
2, 121680, Note_on_c, 0, 71, 90
2, 121739, Note_on_c, 0, 71, 0
2, 121920, Note_on_c, 0, 72, 90
2, 121979, Note_on_c, 0, 72, 0
2, 122040, Note_on_c, 0, 70, 90
2, 122099, Note_on_c, 0, 70, 0
2, 122160, Note_on_c, 0, 69, 90
2, 122219, Note_on_c, 0, 69, 0
2, 122400, Note_on_c, 0, 70, 90
2, 122459, Note_on_c, 0, 70, 0
2, 122520, Note_on_c, 0, 69, 90
2, 122579, Note_on_c, 0, 69, 0
2, 122640, Note_on_c, 0, 68, 90
2, 122699, Note_on_c, 0, 68, 0
2, 122760, Note_on_c, 0, 67, 90
2, 122820, Note_on_c, 0, 67, 0
2, 122880, Note_on_c, 0, 66, 90
2, 122940, Note_on_c, 0, 66, 0
2, 123000, Note_on_c, 0, 65, 90
2, 123060, Note_on_c, 0, 65, 0
2, 123120, Note_on_c, 0, 64, 90
2, 123180, Note_on_c, 0, 64, 0
2, 123240, Note_on_c, 0, 63, 90
2, 123300, Note_on_c, 0, 63, 0
2, 123360, Note_on_c, 0, 62, 90
2, 123420, Note_on_c, 0, 62, 0
2, 123480, Note_on_c, 0, 63, 90
2, 123540, Note_on_c, 0, 63, 0
2, 123600, Note_on_c, 0, 61, 90
2, 123629, Note_on_c, 0, 61, 0
2, 123630, Note_on_c, 0, 57, 90
2, 123659, Note_on_c, 0, 57, 0
2, 123660, Note_on_c, 0, 61, 90
2, 123689, Note_on_c, 0, 61, 0
2, 123690, Note_on_c, 0, 64, 90
2, 123719, Note_on_c, 0, 64, 0
2, 123720, Note_on_c, 0, 69, 90
2, 123749, Note_on_c, 0, 69, 0
2, 123750, Note_on_c, 0, 73, 90
2, 123779, Note_on_c, 0, 73, 0
2, 123780, Note_on_c, 0, 76, 90
2, 123809, Note_on_c, 0, 76, 0
2, 123810, Note_on_c, 0, 79, 90
2, 123839, Note_on_c, 0, 79, 0
2, 123840, Note_on_c, 0, 81, 90
2, 123869, Note_on_c, 0, 81, 0
2, 123870, Note_on_c, 0, 74, 90
2, 123899, Note_on_c, 0, 74, 0
2, 123900, Note_on_c, 0, 76, 90
2, 123929, Note_on_c, 0, 76, 0
2, 123930, Note_on_c, 0, 77, 90
2, 123959, Note_on_c, 0, 77, 0
2, 123960, Note_on_c, 0, 79, 90
2, 123989, Note_on_c, 0, 79, 0
2, 123990, Note_on_c, 0, 81, 90
2, 124019, Note_on_c, 0, 81, 0
2, 124020, Note_on_c, 0, 77, 90
2, 124049, Note_on_c, 0, 77, 0
2, 124050, Note_on_c, 0, 79, 90
2, 124079, Note_on_c, 0, 79, 0
2, 124080, Note_on_c, 0, 81, 90
2, 124109, Note_on_c, 0, 81, 0
2, 124110, Note_on_c, 0, 77, 90
2, 124139, Note_on_c, 0, 77, 0
2, 124140, Note_on_c, 0, 76, 90
2, 124169, Note_on_c, 0, 76, 0
2, 124170, Note_on_c, 0, 74, 90
2, 124199, Note_on_c, 0, 74, 0
2, 124200, Note_on_c, 0, 82, 90
2, 124229, Note_on_c, 0, 82, 0
2, 124230, Note_on_c, 0, 79, 90
2, 124259, Note_on_c, 0, 79, 0
2, 124260, Note_on_c, 0, 77, 90
2, 124289, Note_on_c, 0, 77, 0
2, 124290, Note_on_c, 0, 76, 90
2, 124319, Note_on_c, 0, 76, 0
2, 124320, Note_on_c, 0, 85, 90
2, 124349, Note_on_c, 0, 85, 0
2, 124350, Note_on_c, 0, 81, 90
2, 124379, Note_on_c, 0, 81, 0
2, 124380, Note_on_c, 0, 86, 90
2, 124409, Note_on_c, 0, 86, 0
2, 124410, Note_on_c, 0, 74, 90
2, 124439, Note_on_c, 0, 74, 0
2, 124440, Note_on_c, 0, 81, 90
2, 124469, Note_on_c, 0, 81, 0
2, 124470, Note_on_c, 0, 79, 90
2, 124499, Note_on_c, 0, 79, 0
2, 124500, Note_on_c, 0, 77, 90
2, 124529, Note_on_c, 0, 77, 0
2, 124530, Note_on_c, 0, 76, 90
2, 124559, Note_on_c, 0, 76, 0
2, 124560, Note_on_c, 0, 77, 90
2, 124619, Note_on_c, 0, 77, 0
2, 124680, Note_on_c, 0, 81, 90
2, 124739, Note_on_c, 0, 81, 0
2, 124800, Note_on_c, 0, 74, 90
2, 124859, Note_on_c, 0, 74, 0
2, 125040, Note_on_c, 0, 82, 90
2, 125099, Note_on_c, 0, 82, 0
2, 125160, Note_on_c, 0, 86, 90
2, 125219, Note_on_c, 0, 86, 0
2, 125280, Note_on_c, 0, 79, 90
2, 125339, Note_on_c, 0, 79, 0
2, 125520, Note_on_c, 0, 76, 90
2, 125579, Note_on_c, 0, 76, 0
2, 125640, Note_on_c, 0, 79, 90
2, 125699, Note_on_c, 0, 79, 0
2, 125760, Note_on_c, 0, 72, 90
2, 125819, Note_on_c, 0, 72, 0
2, 126000, Note_on_c, 0, 81, 90
2, 126059, Note_on_c, 0, 81, 0
2, 126120, Note_on_c, 0, 84, 90
2, 126179, Note_on_c, 0, 84, 0
2, 126240, Note_on_c, 0, 77, 90
2, 126299, Note_on_c, 0, 77, 0
2, 126480, Note_on_c, 0, 74, 90
2, 126539, Note_on_c, 0, 74, 0
2, 126600, Note_on_c, 0, 77, 90
2, 126659, Note_on_c, 0, 77, 0
2, 126720, Note_on_c, 0, 70, 90
2, 126779, Note_on_c, 0, 70, 0
2, 126960, Note_on_c, 0, 79, 90
2, 127019, Note_on_c, 0, 79, 0
2, 127080, Note_on_c, 0, 82, 90
2, 127139, Note_on_c, 0, 82, 0
2, 127200, Note_on_c, 0, 76, 90
2, 127259, Note_on_c, 0, 76, 0
2, 127440, Note_on_c, 0, 73, 90
2, 127499, Note_on_c, 0, 73, 0
2, 127560, Note_on_c, 0, 76, 90
2, 127619, Note_on_c, 0, 76, 0
2, 127680, Note_on_c, 0, 69, 90
2, 127739, Note_on_c, 0, 69, 0
2, 127920, Note_on_c, 0, 69, 90
2, 127979, Note_on_c, 0, 69, 0
2, 127980, Note_on_c, 0, 74, 90
2, 128099, Note_on_c, 0, 74, 0
2, 128100, Note_on_c, 0, 73, 90
2, 128159, Note_on_c, 0, 73, 0
2, 128160, Note_on_c, 0, 74, 90
2, 128219, Note_on_c, 0, 74, 0
2, 128220, Note_on_c, 0, 76, 90
2, 128339, Note_on_c, 0, 76, 0
2, 128340, Note_on_c, 0, 77, 90
2, 128459, Note_on_c, 0, 77, 0
2, 128460, Note_on_c, 0, 76, 90
2, 128489, Note_on_c, 0, 76, 0
2, 128490, Note_on_c, 0, 74, 90
2, 128519, Note_on_c, 0, 74, 0
2, 128520, Note_on_c, 0, 77, 90
2, 128549, Note_on_c, 0, 77, 0
2, 128550, Note_on_c, 0, 76, 90
2, 128579, Note_on_c, 0, 76, 0
2, 128580, Note_on_c, 0, 74, 90
2, 128609, Note_on_c, 0, 74, 0
2, 128610, Note_on_c, 0, 73, 90
2, 128639, Note_on_c, 0, 73, 0
2, 128640, Note_on_c, 0, 74, 90
2, 128699, Note_on_c, 0, 74, 0
2, 128700, Note_on_c, 0, 74, 90
2, 128819, Note_on_c, 0, 74, 0
2, 128820, Note_on_c, 0, 79, 90
2, 128939, Note_on_c, 0, 79, 0
2, 128940, Note_on_c, 0, 76, 90
2, 129059, Note_on_c, 0, 76, 0
2, 129060, Note_on_c, 0, 81, 90
2, 129119, Note_on_c, 0, 81, 0
2, 129120, Note_on_c, 0, 79, 90
2, 129149, Note_on_c, 0, 79, 0
2, 129150, Note_on_c, 0, 77, 90
2, 129179, Note_on_c, 0, 77, 0
2, 129180, Note_on_c, 0, 76, 90
2, 129209, Note_on_c, 0, 76, 0
2, 129210, Note_on_c, 0, 74, 90
2, 129239, Note_on_c, 0, 74, 0
2, 129240, Note_on_c, 0, 77, 90
2, 129269, Note_on_c, 0, 77, 0
2, 129270, Note_on_c, 0, 76, 90
2, 129299, Note_on_c, 0, 76, 0
2, 129300, Note_on_c, 0, 74, 90
2, 129329, Note_on_c, 0, 74, 0
2, 129330, Note_on_c, 0, 73, 90
2, 129359, Note_on_c, 0, 73, 0
2, 129360, Note_on_c, 0, 74, 90
2, 130380, Note_on_c, 0, 74, 0
2, 130380, Note_on_c, 0, 76, 90
2, 130439, Note_on_c, 0, 76, 0
2, 130440, Note_on_c, 0, 69, 90
2, 130499, Note_on_c, 0, 69, 0
2, 130500, Note_on_c, 0, 73, 90
2, 130559, Note_on_c, 0, 73, 0
2, 130560, Note_on_c, 0, 74, 90
2, 130799, Note_on_c, 0, 74, 0
2, 130799, End_track
3, 0, Start_track
3, 0, MIDI_port, 0
3, 0, Title_t, "violin ii"
3, 0, Program_c, 1, 48
3, 60, Note_on_c, 1, 62, 127
3, 120, Note_on_c, 1, 62, 0
3, 120, Note_on_c, 1, 64, 127
3, 180, Note_on_c, 1, 64, 0
3, 180, Note_on_c, 1, 65, 127
3, 240, Note_on_c, 1, 65, 0
3, 240, Note_on_c, 1, 65, 127
3, 300, Note_on_c, 1, 65, 0
3, 300, Note_on_c, 1, 67, 127
3, 360, Note_on_c, 1, 67, 0
3, 360, Note_on_c, 1, 69, 127
3, 420, Note_on_c, 1, 69, 0
3, 420, Note_on_c, 1, 69, 127
3, 480, Note_on_c, 1, 69, 0
3, 480, Note_on_c, 1, 70, 127
3, 540, Note_on_c, 1, 70, 0
3, 540, Note_on_c, 1, 69, 127
3, 600, Note_on_c, 1, 69, 0
3, 600, Note_on_c, 1, 67, 127
3, 630, Note_on_c, 1, 67, 0
3, 630, Note_on_c, 1, 65, 127
3, 660, Note_on_c, 1, 65, 0
3, 660, Note_on_c, 1, 64, 127
3, 690, Note_on_c, 1, 64, 0
3, 690, Note_on_c, 1, 62, 127
3, 720, Note_on_c, 1, 62, 0
3, 720, Note_on_c, 1, 61, 127
3, 780, Note_on_c, 1, 61, 0
3, 780, Note_on_c, 1, 57, 127
3, 810, Note_on_c, 1, 57, 0
3, 810, Note_on_c, 1, 59, 127
3, 840, Note_on_c, 1, 59, 0
3, 840, Note_on_c, 1, 61, 127
3, 870, Note_on_c, 1, 61, 0
3, 870, Note_on_c, 1, 62, 127
3, 900, Note_on_c, 1, 62, 0
3, 900, Note_on_c, 1, 64, 127
3, 960, Note_on_c, 1, 64, 0
3, 960, Note_on_c, 1, 64, 127
3, 1020, Note_on_c, 1, 64, 0
3, 1020, Note_on_c, 1, 65, 127
3, 1080, Note_on_c, 1, 65, 0
3, 1080, Note_on_c, 1, 64, 127
3, 1140, Note_on_c, 1, 64, 0
3, 1140, Note_on_c, 1, 57, 127
3, 1170, Note_on_c, 1, 57, 0
3, 1170, Note_on_c, 1, 59, 127
3, 1200, Note_on_c, 1, 59, 0
3, 1200, Note_on_c, 1, 61, 127
3, 1230, Note_on_c, 1, 61, 0
3, 1230, Note_on_c, 1, 62, 127
3, 1260, Note_on_c, 1, 62, 0
3, 1260, Note_on_c, 1, 64, 127
3, 1320, Note_on_c, 1, 64, 0
3, 1320, Note_on_c, 1, 64, 127
3, 1380, Note_on_c, 1, 64, 0
3, 1380, Note_on_c, 1, 65, 127
3, 1440, Note_on_c, 1, 65, 0
3, 1440, Note_on_c, 1, 64, 127
3, 1500, Note_on_c, 1, 64, 0
3, 1500, Note_on_c, 1, 57, 127
3, 1530, Note_on_c, 1, 57, 0
3, 1530, Note_on_c, 1, 59, 127
3, 1560, Note_on_c, 1, 59, 0
3, 1560, Note_on_c, 1, 61, 127
3, 1590, Note_on_c, 1, 61, 0
3, 1590, Note_on_c, 1, 62, 127
3, 1620, Note_on_c, 1, 62, 0
3, 1620, Note_on_c, 1, 64, 127
3, 1650, Note_on_c, 1, 64, 0
3, 1650, Note_on_c, 1, 62, 127
3, 1680, Note_on_c, 1, 62, 0
3, 1680, Note_on_c, 1, 61, 127
3, 1710, Note_on_c, 1, 61, 0
3, 1710, Note_on_c, 1, 62, 127
3, 1740, Note_on_c, 1, 62, 0
3, 1740, Note_on_c, 1, 64, 127
3, 1770, Note_on_c, 1, 64, 0
3, 1770, Note_on_c, 1, 65, 127
3, 1800, Note_on_c, 1, 65, 0
3, 1800, Note_on_c, 1, 67, 127
3, 1830, Note_on_c, 1, 67, 0
3, 1830, Note_on_c, 1, 65, 127
3, 1860, Note_on_c, 1, 65, 0
3, 1860, Note_on_c, 1, 64, 127
3, 1890, Note_on_c, 1, 64, 0
3, 1890, Note_on_c, 1, 65, 127
3, 1920, Note_on_c, 1, 65, 0
3, 1920, Note_on_c, 1, 67, 127
3, 1950, Note_on_c, 1, 67, 0
3, 1950, Note_on_c, 1, 69, 127
3, 1980, Note_on_c, 1, 69, 0
3, 1980, Note_on_c, 1, 70, 127
3, 2010, Note_on_c, 1, 70, 0
3, 2010, Note_on_c, 1, 69, 127
3, 2040, Note_on_c, 1, 69, 0
3, 2040, Note_on_c, 1, 67, 127
3, 2070, Note_on_c, 1, 67, 0
3, 2070, Note_on_c, 1, 65, 127
3, 2100, Note_on_c, 1, 65, 0
3, 2100, Note_on_c, 1, 64, 127
3, 2130, Note_on_c, 1, 64, 0
3, 2130, Note_on_c, 1, 62, 127
3, 2160, Note_on_c, 1, 62, 0
3, 2160, Note_on_c, 1, 61, 127
3, 2190, Note_on_c, 1, 61, 0
3, 2190, Note_on_c, 1, 64, 127
3, 2220, Note_on_c, 1, 64, 0
3, 2220, Note_on_c, 1, 57, 127
3, 2250, Note_on_c, 1, 57, 0
3, 2250, Note_on_c, 1, 61, 127
3, 2280, Note_on_c, 1, 61, 0
3, 2280, Note_on_c, 1, 62, 127
3, 2340, Note_on_c, 1, 62, 0
3, 2370, Note_on_c, 1, 55, 127
3, 2400, Note_on_c, 1, 55, 0
3, 2400, Note_on_c, 1, 57, 127
3, 2460, Note_on_c, 1, 57, 0
3, 2460, Note_on_c, 1, 57, 127
3, 2520, Note_on_c, 1, 57, 0
3, 2520, Note_on_c, 1, 62, 127
3, 2580, Note_on_c, 1, 62, 0
3, 2760, Note_on_c, 1, 74, 127
3, 2820, Note_on_c, 1, 74, 0
3, 2820, Note_on_c, 1, 73, 127
3, 2880, Note_on_c, 1, 73, 0
3, 2880, Note_on_c, 1, 74, 127
3, 2940, Note_on_c, 1, 74, 0
3, 2940, Note_on_c, 1, 62, 127
3, 3000, Note_on_c, 1, 62, 0
3, 3000, Note_on_c, 1, 67, 127
3, 3060, Note_on_c, 1, 67, 0
3, 3060, Note_on_c, 1, 64, 127
3, 3120, Note_on_c, 1, 64, 0
3, 3120, Note_on_c, 1, 69, 127
3, 3180, Note_on_c, 1, 69, 0
3, 3180, Note_on_c, 1, 67, 127
3, 3240, Note_on_c, 1, 67, 0
3, 3240, Note_on_c, 1, 69, 127
3, 3300, Note_on_c, 1, 69, 0
3, 3300, Note_on_c, 1, 69, 127
3, 3360, Note_on_c, 1, 69, 0
3, 3360, Note_on_c, 1, 69, 127
3, 3420, Note_on_c, 1, 69, 0
3, 3420, Note_on_c, 1, 69, 127
3, 3480, Note_on_c, 1, 69, 0
3, 3480, Note_on_c, 1, 73, 127
3, 3540, Note_on_c, 1, 73, 0
3, 3540, Note_on_c, 1, 74, 127
3, 3600, Note_on_c, 1, 74, 0
3, 3600, Note_on_c, 1, 76, 127
3, 3660, Note_on_c, 1, 76, 0
3, 3660, Note_on_c, 1, 57, 127
3, 3690, Note_on_c, 1, 57, 0
3, 3690, Note_on_c, 1, 59, 127
3, 3720, Note_on_c, 1, 59, 0
3, 3720, Note_on_c, 1, 61, 127
3, 3750, Note_on_c, 1, 61, 0
3, 3750, Note_on_c, 1, 62, 127
3, 3780, Note_on_c, 1, 62, 0
3, 3780, Note_on_c, 1, 64, 127
3, 3840, Note_on_c, 1, 64, 0
3, 3840, Note_on_c, 1, 64, 127
3, 3900, Note_on_c, 1, 64, 0
3, 3900, Note_on_c, 1, 65, 127
3, 3960, Note_on_c, 1, 65, 0
3, 3960, Note_on_c, 1, 64, 127
3, 4020, Note_on_c, 1, 64, 0
3, 4020, Note_on_c, 1, 69, 127
3, 4080, Note_on_c, 1, 69, 0
3, 4080, Note_on_c, 1, 71, 127
3, 4140, Note_on_c, 1, 71, 0
3, 4140, Note_on_c, 1, 72, 127
3, 4200, Note_on_c, 1, 72, 0
3, 4200, Note_on_c, 1, 72, 127
3, 4260, Note_on_c, 1, 72, 0
3, 4260, Note_on_c, 1, 74, 127
3, 4320, Note_on_c, 1, 74, 0
3, 4320, Note_on_c, 1, 76, 127
3, 4380, Note_on_c, 1, 76, 0
3, 4380, Note_on_c, 1, 76, 127
3, 4440, Note_on_c, 1, 76, 0
3, 4440, Note_on_c, 1, 77, 127
3, 4500, Note_on_c, 1, 77, 0
3, 4500, Note_on_c, 1, 76, 127
3, 4560, Note_on_c, 1, 76, 0
3, 4560, Note_on_c, 1, 74, 127
3, 4590, Note_on_c, 1, 74, 0
3, 4590, Note_on_c, 1, 72, 127
3, 4620, Note_on_c, 1, 72, 0
3, 4620, Note_on_c, 1, 71, 127
3, 4650, Note_on_c, 1, 71, 0
3, 4650, Note_on_c, 1, 69, 127
3, 4680, Note_on_c, 1, 69, 0
3, 4680, Note_on_c, 1, 68, 127
3, 4710, Note_on_c, 1, 68, 0
3, 4710, Note_on_c, 1, 66, 127
3, 4740, Note_on_c, 1, 66, 0
3, 4740, Note_on_c, 1, 64, 127
3, 4770, Note_on_c, 1, 64, 0
3, 4770, Note_on_c, 1, 66, 127
3, 4800, Note_on_c, 1, 66, 0
3, 4800, Note_on_c, 1, 68, 127
3, 4830, Note_on_c, 1, 68, 0
3, 4830, Note_on_c, 1, 69, 127
3, 4860, Note_on_c, 1, 69, 0
3, 4860, Note_on_c, 1, 71, 127
3, 4920, Note_on_c, 1, 71, 0
3, 4920, Note_on_c, 1, 71, 127
3, 4980, Note_on_c, 1, 71, 0
3, 4980, Note_on_c, 1, 72, 127
3, 5040, Note_on_c, 1, 72, 0
3, 5040, Note_on_c, 1, 71, 127
3, 5100, Note_on_c, 1, 71, 0
3, 5100, Note_on_c, 1, 68, 127
3, 5160, Note_on_c, 1, 68, 0
3, 5220, Note_on_c, 1, 69, 127
3, 5280, Note_on_c, 1, 69, 0
3, 5280, Note_on_c, 1, 64, 127
3, 5340, Note_on_c, 1, 64, 0
3, 5400, Note_on_c, 1, 74, 127
3, 5459, Note_on_c, 1, 74, 0
3, 5460, Note_on_c, 1, 66, 127
3, 5519, Note_on_c, 1, 66, 0
3, 5580, Note_on_c, 1, 67, 127
3, 5639, Note_on_c, 1, 67, 0
3, 5640, Note_on_c, 1, 62, 127
3, 5699, Note_on_c, 1, 62, 0
3, 5760, Note_on_c, 1, 72, 127
3, 5819, Note_on_c, 1, 72, 0
3, 5820, Note_on_c, 1, 64, 127
3, 5879, Note_on_c, 1, 64, 0
3, 5940, Note_on_c, 1, 72, 127
3, 5999, Note_on_c, 1, 72, 0
3, 6000, Note_on_c, 1, 72, 127
3, 6059, Note_on_c, 1, 72, 0
3, 6060, Note_on_c, 1, 77, 127
3, 6119, Note_on_c, 1, 77, 0
3, 6120, Note_on_c, 1, 76, 127
3, 6179, Note_on_c, 1, 76, 0
3, 6180, Note_on_c, 1, 71, 127
3, 6239, Note_on_c, 1, 71, 0
3, 6240, Note_on_c, 1, 76, 127
3, 6299, Note_on_c, 1, 76, 0
3, 6300, Note_on_c, 1, 76, 127
3, 6359, Note_on_c, 1, 76, 0
3, 6360, Note_on_c, 1, 76, 127
3, 6419, Note_on_c, 1, 76, 0
3, 6420, Note_on_c, 1, 76, 127
3, 6479, Note_on_c, 1, 76, 0
3, 6480, Note_on_c, 1, 76, 127
3, 6539, Note_on_c, 1, 76, 0
3, 6900, Note_on_c, 1, 74, 127
3, 6959, Note_on_c, 1, 74, 0
3, 6960, Note_on_c, 1, 74, 127
3, 7019, Note_on_c, 1, 74, 0
3, 7020, Note_on_c, 1, 68, 127
3, 7079, Note_on_c, 1, 68, 0
3, 7080, Note_on_c, 1, 71, 127
3, 7139, Note_on_c, 1, 71, 0
3, 7140, Note_on_c, 1, 71, 127
3, 7199, Note_on_c, 1, 71, 0
3, 7200, Note_on_c, 1, 71, 127
3, 7259, Note_on_c, 1, 71, 0
3, 7260, Note_on_c, 1, 71, 127
3, 7319, Note_on_c, 1, 71, 0
3, 7320, Note_on_c, 1, 69, 127
3, 7379, Note_on_c, 1, 69, 0
3, 7410, Note_on_c, 1, 81, 127
3, 7439, Note_on_c, 1, 81, 0
3, 7440, Note_on_c, 1, 80, 127
3, 7529, Note_on_c, 1, 80, 0
3, 7530, Note_on_c, 1, 81, 127
3, 7559, Note_on_c, 1, 81, 0
3, 7560, Note_on_c, 1, 81, 127
3, 7619, Note_on_c, 1, 81, 0
3, 7740, Note_on_c, 1, 60, 127
3, 7799, Note_on_c, 1, 60, 0
3, 7920, Note_on_c, 1, 57, 127
3, 7979, Note_on_c, 1, 57, 0
3, 8160, Note_on_c, 1, 74, 127
3, 8219, Note_on_c, 1, 74, 0
3, 8220, Note_on_c, 1, 73, 127
3, 8279, Note_on_c, 1, 73, 0
3, 8280, Note_on_c, 1, 74, 127
3, 8339, Note_on_c, 1, 74, 0
3, 8460, Note_on_c, 1, 69, 127
3, 8519, Note_on_c, 1, 69, 0
3, 8640, Note_on_c, 1, 65, 127
3, 8699, Note_on_c, 1, 65, 0
3, 8880, Note_on_c, 1, 79, 127
3, 8939, Note_on_c, 1, 79, 0
3, 8940, Note_on_c, 1, 78, 127
3, 8999, Note_on_c, 1, 78, 0
3, 9000, Note_on_c, 1, 79, 127
3, 9059, Note_on_c, 1, 79, 0
3, 9180, Note_on_c, 1, 76, 127
3, 9239, Note_on_c, 1, 76, 0
3, 9360, Note_on_c, 1, 76, 127
3, 9419, Note_on_c, 1, 76, 0
3, 9540, Note_on_c, 1, 74, 127
3, 9599, Note_on_c, 1, 74, 0
3, 9720, Note_on_c, 1, 74, 127
3, 9779, Note_on_c, 1, 74, 0
3, 9900, Note_on_c, 1, 73, 127
3, 9959, Note_on_c, 1, 73, 0
3, 10080, Note_on_c, 1, 74, 127
3, 10139, Note_on_c, 1, 74, 0
3, 10320, Note_on_c, 1, 74, 127
3, 10379, Note_on_c, 1, 74, 0
3, 10380, Note_on_c, 1, 73, 127
3, 10439, Note_on_c, 1, 73, 0
3, 10440, Note_on_c, 1, 74, 127
3, 10499, Note_on_c, 1, 74, 0
3, 10500, Note_on_c, 1, 62, 127
3, 10559, Note_on_c, 1, 62, 0
3, 10560, Note_on_c, 1, 67, 127
3, 10619, Note_on_c, 1, 67, 0
3, 10620, Note_on_c, 1, 64, 127
3, 10679, Note_on_c, 1, 64, 0
3, 10680, Note_on_c, 1, 81, 127
3, 10739, Note_on_c, 1, 81, 0
3, 10740, Note_on_c, 1, 79, 127
3, 10799, Note_on_c, 1, 79, 0
3, 10800, Note_on_c, 1, 81, 127
3, 11039, Note_on_c, 1, 81, 0
3, 11040, Note_on_c, 1, 69, 127
3, 11099, Note_on_c, 1, 69, 0
3, 11100, Note_on_c, 1, 69, 127
3, 11159, Note_on_c, 1, 69, 0
3, 11160, Note_on_c, 1, 69, 127
3, 11279, Note_on_c, 1, 69, 0
3, 11400, Note_on_c, 1, 69, 127
3, 11429, Note_on_c, 1, 69, 0
3, 11430, Note_on_c, 1, 71, 127
3, 11459, Note_on_c, 1, 71, 0
3, 11460, Note_on_c, 1, 73, 127
3, 11489, Note_on_c, 1, 73, 0
3, 11490, Note_on_c, 1, 74, 127
3, 11519, Note_on_c, 1, 74, 0
3, 11520, Note_on_c, 1, 76, 127
3, 11579, Note_on_c, 1, 76, 0
3, 11700, Note_on_c, 1, 73, 127
3, 11759, Note_on_c, 1, 73, 0
3, 11880, Note_on_c, 1, 69, 127
3, 11939, Note_on_c, 1, 69, 0
3, 12060, Note_on_c, 1, 73, 127
3, 12119, Note_on_c, 1, 73, 0
3, 12240, Note_on_c, 1, 76, 127
3, 12329, Note_on_c, 1, 76, 0
3, 12330, Note_on_c, 1, 73, 127
3, 12359, Note_on_c, 1, 73, 0
3, 12360, Note_on_c, 1, 74, 127
3, 12419, Note_on_c, 1, 74, 0
3, 12450, Note_on_c, 1, 76, 127
3, 12479, Note_on_c, 1, 76, 0
3, 12480, Note_on_c, 1, 76, 127
3, 12569, Note_on_c, 1, 76, 0
3, 12570, Note_on_c, 1, 74, 127
3, 12599, Note_on_c, 1, 74, 0
3, 12600, Note_on_c, 1, 74, 127
3, 12659, Note_on_c, 1, 74, 0
3, 12780, Note_on_c, 1, 74, 127
3, 13680, Note_on_c, 1, 74, 0
3, 13680, Note_on_c, 1, 76, 127
3, 13739, Note_on_c, 1, 76, 0
3, 13770, Note_on_c, 1, 82, 127
3, 13799, Note_on_c, 1, 82, 0
3, 13800, Note_on_c, 1, 81, 127
3, 13829, Note_on_c, 1, 81, 0
3, 13830, Note_on_c, 1, 77, 127
3, 13859, Note_on_c, 1, 77, 0
3, 13860, Note_on_c, 1, 74, 127
3, 13889, Note_on_c, 1, 74, 0
3, 13890, Note_on_c, 1, 76, 127
3, 13919, Note_on_c, 1, 76, 0
3, 13920, Note_on_c, 1, 73, 127
3, 14009, Note_on_c, 1, 73, 0
3, 14010, Note_on_c, 1, 74, 127
3, 14039, Note_on_c, 1, 74, 0
3, 14040, Note_on_c, 1, 74, 127
3, 14099, Note_on_c, 1, 74, 0
3, 14100, Note_on_c, 1, 69, 127
3, 14159, Note_on_c, 1, 69, 0
3, 14160, Note_on_c, 1, 65, 127
3, 14219, Note_on_c, 1, 65, 0
3, 14220, Note_on_c, 1, 67, 127
3, 14279, Note_on_c, 1, 67, 0
3, 14400, Note_on_c, 1, 65, 127
3, 14459, Note_on_c, 1, 65, 0
3, 14460, Note_on_c, 1, 69, 127
3, 14519, Note_on_c, 1, 69, 0
3, 14520, Note_on_c, 1, 74, 127
3, 14579, Note_on_c, 1, 74, 0
3, 14580, Note_on_c, 1, 77, 127
3, 14639, Note_on_c, 1, 77, 0
3, 14760, Note_on_c, 1, 69, 127
3, 14819, Note_on_c, 1, 69, 0
3, 14820, Note_on_c, 1, 72, 127
3, 14879, Note_on_c, 1, 72, 0
3, 14880, Note_on_c, 1, 76, 127
3, 14939, Note_on_c, 1, 76, 0
3, 14940, Note_on_c, 1, 81, 127
3, 14999, Note_on_c, 1, 81, 0
3, 15120, Note_on_c, 1, 80, 127
3, 15179, Note_on_c, 1, 80, 0
3, 15180, Note_on_c, 1, 83, 127
3, 15239, Note_on_c, 1, 83, 0
3, 15300, Note_on_c, 1, 76, 127
3, 15359, Note_on_c, 1, 76, 0
3, 15360, Note_on_c, 1, 64, 127
3, 15419, Note_on_c, 1, 64, 0
3, 15480, Note_on_c, 1, 64, 127
3, 15539, Note_on_c, 1, 64, 0
3, 15540, Note_on_c, 1, 71, 127
3, 15599, Note_on_c, 1, 71, 0
3, 15660, Note_on_c, 1, 72, 127
3, 15719, Note_on_c, 1, 72, 0
3, 15720, Note_on_c, 1, 71, 127
3, 15779, Note_on_c, 1, 71, 0
3, 15780, Note_on_c, 1, 71, 127
3, 15839, Note_on_c, 1, 71, 0
3, 15840, Note_on_c, 1, 69, 127
3, 15899, Note_on_c, 1, 69, 0
3, 15900, Note_on_c, 1, 67, 127
3, 15959, Note_on_c, 1, 67, 0
3, 16020, Note_on_c, 1, 65, 127
3, 16079, Note_on_c, 1, 65, 0
3, 16080, Note_on_c, 1, 74, 127
3, 16139, Note_on_c, 1, 74, 0
3, 16200, Note_on_c, 1, 74, 127
3, 16259, Note_on_c, 1, 74, 0
3, 16260, Note_on_c, 1, 73, 127
3, 16319, Note_on_c, 1, 73, 0
3, 16380, Note_on_c, 1, 74, 127
3, 16439, Note_on_c, 1, 74, 0
3, 16440, Note_on_c, 1, 74, 127
3, 16499, Note_on_c, 1, 74, 0
3, 16500, Note_on_c, 1, 72, 127
3, 16559, Note_on_c, 1, 72, 0
3, 16560, Note_on_c, 1, 66, 127
3, 16619, Note_on_c, 1, 66, 0
3, 16620, Note_on_c, 1, 62, 127
3, 16679, Note_on_c, 1, 62, 0
3, 16740, Note_on_c, 1, 74, 127
3, 16799, Note_on_c, 1, 74, 0
3, 16800, Note_on_c, 1, 79, 127
3, 16859, Note_on_c, 1, 79, 0
3, 16920, Note_on_c, 1, 67, 127
3, 16979, Note_on_c, 1, 67, 0
3, 16980, Note_on_c, 1, 72, 127
3, 17039, Note_on_c, 1, 72, 0
3, 17040, Note_on_c, 1, 75, 127
3, 17099, Note_on_c, 1, 75, 0
3, 17100, Note_on_c, 1, 74, 127
3, 17159, Note_on_c, 1, 74, 0
3, 17160, Note_on_c, 1, 81, 127
3, 17219, Note_on_c, 1, 81, 0
3, 17280, Note_on_c, 1, 70, 127
3, 17339, Note_on_c, 1, 70, 0
3, 17340, Note_on_c, 1, 74, 127
3, 17399, Note_on_c, 1, 74, 0
3, 17460, Note_on_c, 1, 74, 127
3, 17519, Note_on_c, 1, 74, 0
3, 17520, Note_on_c, 1, 69, 127
3, 17579, Note_on_c, 1, 69, 0
3, 17640, Note_on_c, 1, 70, 127
3, 17699, Note_on_c, 1, 70, 0
3, 17700, Note_on_c, 1, 69, 127
3, 17759, Note_on_c, 1, 69, 0
3, 17760, Note_on_c, 1, 69, 127
3, 17819, Note_on_c, 1, 69, 0
3, 17820, Note_on_c, 1, 71, 127
3, 17879, Note_on_c, 1, 71, 0
3, 17880, Note_on_c, 1, 72, 127
3, 17939, Note_on_c, 1, 72, 0
3, 18000, Note_on_c, 1, 69, 127
3, 18059, Note_on_c, 1, 69, 0
3, 18060, Note_on_c, 1, 70, 127
3, 18119, Note_on_c, 1, 70, 0
3, 18180, Note_on_c, 1, 67, 127
3, 18239, Note_on_c, 1, 67, 0
3, 18240, Note_on_c, 1, 69, 127
3, 18299, Note_on_c, 1, 69, 0
3, 18360, Note_on_c, 1, 66, 127
3, 18419, Note_on_c, 1, 66, 0
3, 18420, Note_on_c, 1, 67, 127
3, 18479, Note_on_c, 1, 67, 0
3, 18540, Note_on_c, 1, 67, 127
3, 18599, Note_on_c, 1, 67, 0
3, 18600, Note_on_c, 1, 60, 127
3, 18659, Note_on_c, 1, 60, 0
3, 18720, Note_on_c, 1, 68, 127
3, 18779, Note_on_c, 1, 68, 0
3, 18780, Note_on_c, 1, 67, 127
3, 18839, Note_on_c, 1, 67, 0
3, 18840, Note_on_c, 1, 67, 127
3, 18899, Note_on_c, 1, 67, 0
3, 18900, Note_on_c, 1, 67, 127
3, 18959, Note_on_c, 1, 67, 0
3, 18960, Note_on_c, 1, 67, 127
3, 19019, Note_on_c, 1, 67, 0
3, 19680, Note_on_c, 1, 72, 127
3, 19739, Note_on_c, 1, 72, 0
3, 19740, Note_on_c, 1, 67, 127
3, 19799, Note_on_c, 1, 67, 0
3, 19800, Note_on_c, 1, 60, 127
3, 19859, Note_on_c, 1, 60, 0
3, 19860, Note_on_c, 1, 65, 127
3, 19919, Note_on_c, 1, 65, 0
3, 19920, Note_on_c, 1, 65, 127
3, 19979, Note_on_c, 1, 65, 0
3, 19980, Note_on_c, 1, 72, 127
3, 20039, Note_on_c, 1, 72, 0
3, 20040, Note_on_c, 1, 72, 127
3, 20099, Note_on_c, 1, 72, 0
3, 20100, Note_on_c, 1, 70, 127
3, 20159, Note_on_c, 1, 70, 0
3, 20160, Note_on_c, 1, 72, 127
3, 20219, Note_on_c, 1, 72, 0
3, 20220, Note_on_c, 1, 72, 127
3, 20279, Note_on_c, 1, 72, 0
3, 20280, Note_on_c, 1, 72, 127
3, 20339, Note_on_c, 1, 72, 0
3, 20340, Note_on_c, 1, 72, 127
3, 20399, Note_on_c, 1, 72, 0
3, 20400, Note_on_c, 1, 76, 127
3, 20459, Note_on_c, 1, 76, 0
3, 20460, Note_on_c, 1, 77, 127
3, 20519, Note_on_c, 1, 77, 0
3, 20520, Note_on_c, 1, 76, 127
3, 20579, Note_on_c, 1, 76, 0
3, 20580, Note_on_c, 1, 60, 127
3, 20609, Note_on_c, 1, 60, 0
3, 20610, Note_on_c, 1, 62, 127
3, 20639, Note_on_c, 1, 62, 0
3, 20640, Note_on_c, 1, 64, 127
3, 20669, Note_on_c, 1, 64, 0
3, 20670, Note_on_c, 1, 65, 127
3, 20699, Note_on_c, 1, 65, 0
3, 20700, Note_on_c, 1, 67, 127
3, 20759, Note_on_c, 1, 67, 0
3, 20760, Note_on_c, 1, 67, 127
3, 20819, Note_on_c, 1, 67, 0
3, 20820, Note_on_c, 1, 69, 127
3, 20879, Note_on_c, 1, 69, 0
3, 20880, Note_on_c, 1, 67, 127
3, 20939, Note_on_c, 1, 67, 0
3, 21120, Note_on_c, 1, 84, 127
3, 21179, Note_on_c, 1, 84, 0
3, 21180, Note_on_c, 1, 83, 127
3, 21239, Note_on_c, 1, 83, 0
3, 21240, Note_on_c, 1, 84, 127
3, 21269, Note_on_c, 1, 84, 0
3, 21270, Note_on_c, 1, 82, 127
3, 21299, Note_on_c, 1, 82, 0
3, 21300, Note_on_c, 1, 81, 127
3, 21329, Note_on_c, 1, 81, 0
3, 21330, Note_on_c, 1, 79, 127
3, 21359, Note_on_c, 1, 79, 0
3, 21360, Note_on_c, 1, 77, 127
3, 21449, Note_on_c, 1, 77, 0
3, 21450, Note_on_c, 1, 76, 127
3, 21479, Note_on_c, 1, 76, 0
3, 21480, Note_on_c, 1, 74, 127
3, 21509, Note_on_c, 1, 74, 0
3, 21510, Note_on_c, 1, 72, 127
3, 21539, Note_on_c, 1, 72, 0
3, 21540, Note_on_c, 1, 71, 127
3, 21569, Note_on_c, 1, 71, 0
3, 21570, Note_on_c, 1, 72, 127
3, 21599, Note_on_c, 1, 72, 0
3, 21600, Note_on_c, 1, 74, 127
3, 21629, Note_on_c, 1, 74, 0
3, 21630, Note_on_c, 1, 72, 127
3, 21659, Note_on_c, 1, 72, 0
3, 21660, Note_on_c, 1, 71, 127
3, 21689, Note_on_c, 1, 71, 0
3, 21690, Note_on_c, 1, 69, 127
3, 21719, Note_on_c, 1, 69, 0
3, 21720, Note_on_c, 1, 67, 127
3, 21839, Note_on_c, 1, 67, 0
3, 21840, Note_on_c, 1, 67, 127
3, 21899, Note_on_c, 1, 67, 0
3, 21900, Note_on_c, 1, 67, 127
3, 21959, Note_on_c, 1, 67, 0
3, 21960, Note_on_c, 1, 67, 127
3, 22019, Note_on_c, 1, 67, 0
3, 22020, Note_on_c, 1, 62, 127
3, 22079, Note_on_c, 1, 62, 0
3, 22140, Note_on_c, 1, 64, 127
3, 22199, Note_on_c, 1, 64, 0
3, 22200, Note_on_c, 1, 72, 127
3, 22259, Note_on_c, 1, 72, 0
3, 22320, Note_on_c, 1, 72, 127
3, 22379, Note_on_c, 1, 72, 0
3, 22380, Note_on_c, 1, 69, 127
3, 22439, Note_on_c, 1, 69, 0
3, 22500, Note_on_c, 1, 70, 127
3, 22559, Note_on_c, 1, 70, 0
3, 22560, Note_on_c, 1, 65, 127
3, 22589, Note_on_c, 1, 65, 0
3, 22590, Note_on_c, 1, 70, 127
3, 22619, Note_on_c, 1, 70, 0
3, 22620, Note_on_c, 1, 74, 127
3, 22679, Note_on_c, 1, 74, 0
3, 22680, Note_on_c, 1, 72, 127
3, 22739, Note_on_c, 1, 72, 0
3, 22740, Note_on_c, 1, 72, 127
3, 22799, Note_on_c, 1, 72, 0
3, 22800, Note_on_c, 1, 72, 127
3, 22859, Note_on_c, 1, 72, 0
3, 22890, Note_on_c, 1, 74, 127
3, 22919, Note_on_c, 1, 74, 0
3, 22920, Note_on_c, 1, 76, 127
3, 23009, Note_on_c, 1, 76, 0
3, 23010, Note_on_c, 1, 77, 127
3, 23039, Note_on_c, 1, 77, 0
3, 23040, Note_on_c, 1, 77, 127
3, 23099, Note_on_c, 1, 77, 0
3, 23220, Note_on_c, 1, 72, 127
3, 23279, Note_on_c, 1, 72, 0
3, 23400, Note_on_c, 1, 72, 127
3, 23459, Note_on_c, 1, 72, 0
3, 23460, Note_on_c, 1, 72, 127
3, 23519, Note_on_c, 1, 72, 0
3, 23520, Note_on_c, 1, 67, 127
3, 23579, Note_on_c, 1, 67, 0
3, 23580, Note_on_c, 1, 64, 127
3, 23639, Note_on_c, 1, 64, 0
3, 23640, Note_on_c, 1, 60, 127
3, 23669, Note_on_c, 1, 60, 0
3, 23670, Note_on_c, 1, 62, 127
3, 23699, Note_on_c, 1, 62, 0
3, 23700, Note_on_c, 1, 64, 127
3, 23729, Note_on_c, 1, 64, 0
3, 23730, Note_on_c, 1, 65, 127
3, 23759, Note_on_c, 1, 65, 0
3, 23760, Note_on_c, 1, 67, 127
3, 23819, Note_on_c, 1, 67, 0
3, 23820, Note_on_c, 1, 70, 127
3, 23939, Note_on_c, 1, 70, 0
3, 23970, Note_on_c, 1, 69, 127
3, 23999, Note_on_c, 1, 69, 0
3, 24000, Note_on_c, 1, 79, 127
3, 24059, Note_on_c, 1, 79, 0
3, 24060, Note_on_c, 1, 73, 127
3, 24119, Note_on_c, 1, 73, 0
3, 24120, Note_on_c, 1, 74, 127
3, 24179, Note_on_c, 1, 74, 0
3, 24300, Note_on_c, 1, 74, 127
3, 24359, Note_on_c, 1, 74, 0
3, 24480, Note_on_c, 1, 73, 127
3, 24539, Note_on_c, 1, 73, 0
3, 24540, Note_on_c, 1, 69, 127
3, 24599, Note_on_c, 1, 69, 0
3, 24600, Note_on_c, 1, 64, 127
3, 24659, Note_on_c, 1, 64, 0
3, 24660, Note_on_c, 1, 61, 127
3, 24719, Note_on_c, 1, 61, 0
3, 24720, Note_on_c, 1, 57, 127
3, 24749, Note_on_c, 1, 57, 0
3, 24750, Note_on_c, 1, 59, 127
3, 24779, Note_on_c, 1, 59, 0
3, 24780, Note_on_c, 1, 61, 127
3, 24809, Note_on_c, 1, 61, 0
3, 24810, Note_on_c, 1, 62, 127
3, 24839, Note_on_c, 1, 62, 0
3, 24840, Note_on_c, 1, 64, 127
3, 24899, Note_on_c, 1, 64, 0
3, 24900, Note_on_c, 1, 75, 127
3, 25019, Note_on_c, 1, 75, 0
3, 25050, Note_on_c, 1, 74, 127
3, 25079, Note_on_c, 1, 74, 0
3, 25080, Note_on_c, 1, 84, 127
3, 25139, Note_on_c, 1, 84, 0
3, 25140, Note_on_c, 1, 78, 127
3, 25199, Note_on_c, 1, 78, 0
3, 25200, Note_on_c, 1, 79, 127
3, 25259, Note_on_c, 1, 79, 0
3, 25380, Note_on_c, 1, 72, 127
3, 25439, Note_on_c, 1, 72, 0
3, 25560, Note_on_c, 1, 72, 127
3, 25619, Note_on_c, 1, 72, 0
3, 25740, Note_on_c, 1, 70, 127
3, 25799, Note_on_c, 1, 70, 0
3, 25920, Note_on_c, 1, 70, 127
3, 25979, Note_on_c, 1, 70, 0
3, 26100, Note_on_c, 1, 69, 127
3, 26159, Note_on_c, 1, 69, 0
3, 26280, Note_on_c, 1, 69, 127
3, 26339, Note_on_c, 1, 69, 0
3, 26460, Note_on_c, 1, 67, 127
3, 26519, Note_on_c, 1, 67, 0
3, 26640, Note_on_c, 1, 67, 127
3, 26999, Note_on_c, 1, 67, 0
3, 27000, Note_on_c, 1, 63, 127
3, 27179, Note_on_c, 1, 63, 0
3, 27180, Note_on_c, 1, 75, 127
3, 27359, Note_on_c, 1, 75, 0
3, 27360, Note_on_c, 1, 69, 127
3, 27719, Note_on_c, 1, 69, 0
3, 27720, Note_on_c, 1, 70, 127
3, 28079, Note_on_c, 1, 70, 0
3, 28080, Note_on_c, 1, 69, 127
3, 28439, Note_on_c, 1, 69, 0
3, 28440, Note_on_c, 1, 67, 127
3, 28619, Note_on_c, 1, 67, 0
3, 28620, Note_on_c, 1, 79, 127
3, 28799, Note_on_c, 1, 79, 0
3, 28800, Note_on_c, 1, 78, 127
3, 29159, Note_on_c, 1, 78, 0
3, 29160, Note_on_c, 1, 79, 127
3, 29219, Note_on_c, 1, 79, 0
3, 29280, Note_on_c, 1, 78, 127
3, 29339, Note_on_c, 1, 78, 0
3, 29460, Note_on_c, 1, 75, 127
3, 29519, Note_on_c, 1, 75, 0
3, 29640, Note_on_c, 1, 72, 127
3, 29699, Note_on_c, 1, 72, 0
3, 29820, Note_on_c, 1, 75, 127
3, 29879, Note_on_c, 1, 75, 0
3, 30000, Note_on_c, 1, 74, 127
3, 30059, Note_on_c, 1, 74, 0
3, 30180, Note_on_c, 1, 74, 127
3, 30239, Note_on_c, 1, 74, 0
3, 30360, Note_on_c, 1, 75, 127
3, 30419, Note_on_c, 1, 75, 0
3, 30540, Note_on_c, 1, 74, 127
3, 30599, Note_on_c, 1, 74, 0
3, 30660, Note_on_c, 1, 69, 127
3, 30719, Note_on_c, 1, 69, 0
3, 30720, Note_on_c, 1, 72, 127
3, 30779, Note_on_c, 1, 72, 0
3, 30840, Note_on_c, 1, 70, 127
3, 30899, Note_on_c, 1, 70, 0
3, 30900, Note_on_c, 1, 70, 127
3, 30959, Note_on_c, 1, 70, 0
3, 31020, Note_on_c, 1, 69, 127
3, 31079, Note_on_c, 1, 69, 0
3, 31080, Note_on_c, 1, 68, 127
3, 31139, Note_on_c, 1, 68, 0
3, 31200, Note_on_c, 1, 67, 127
3, 31259, Note_on_c, 1, 67, 0
3, 31260, Note_on_c, 1, 71, 127
3, 31319, Note_on_c, 1, 71, 0
3, 31380, Note_on_c, 1, 67, 127
3, 31439, Note_on_c, 1, 67, 0
3, 31440, Note_on_c, 1, 72, 127
3, 31499, Note_on_c, 1, 72, 0
3, 31560, Note_on_c, 1, 66, 127
3, 31619, Note_on_c, 1, 66, 0
3, 31620, Note_on_c, 1, 69, 127
3, 31679, Note_on_c, 1, 69, 0
3, 31740, Note_on_c, 1, 67, 127
3, 31769, Note_on_c, 1, 67, 0
3, 31770, Note_on_c, 1, 66, 127
3, 31799, Note_on_c, 1, 66, 0
3, 31800, Note_on_c, 1, 67, 127
3, 31859, Note_on_c, 1, 67, 0
3, 31920, Note_on_c, 1, 67, 127
3, 31979, Note_on_c, 1, 67, 0
3, 31980, Note_on_c, 1, 67, 127
3, 32039, Note_on_c, 1, 67, 0
3, 32100, Note_on_c, 1, 65, 127
3, 32159, Note_on_c, 1, 65, 0
3, 32160, Note_on_c, 1, 65, 127
3, 32219, Note_on_c, 1, 65, 0
3, 32280, Note_on_c, 1, 65, 127
3, 32339, Note_on_c, 1, 65, 0
3, 32340, Note_on_c, 1, 65, 127
3, 32399, Note_on_c, 1, 65, 0
3, 32460, Note_on_c, 1, 63, 127
3, 32519, Note_on_c, 1, 63, 0
3, 32520, Note_on_c, 1, 63, 127
3, 32579, Note_on_c, 1, 63, 0
3, 32640, Note_on_c, 1, 63, 127
3, 32699, Note_on_c, 1, 63, 0
3, 32700, Note_on_c, 1, 63, 127
3, 32759, Note_on_c, 1, 63, 0
3, 32820, Note_on_c, 1, 62, 127
3, 32879, Note_on_c, 1, 62, 0
3, 32880, Note_on_c, 1, 62, 127
3, 32939, Note_on_c, 1, 62, 0
3, 33000, Note_on_c, 1, 63, 127
3, 33059, Note_on_c, 1, 63, 0
3, 33060, Note_on_c, 1, 62, 127
3, 33119, Note_on_c, 1, 62, 0
3, 33180, Note_on_c, 1, 69, 127
3, 33239, Note_on_c, 1, 69, 0
3, 33240, Note_on_c, 1, 73, 127
3, 33299, Note_on_c, 1, 73, 0
3, 33360, Note_on_c, 1, 74, 127
3, 33419, Note_on_c, 1, 74, 0
3, 33420, Note_on_c, 1, 74, 127
3, 33479, Note_on_c, 1, 74, 0
3, 33480, Note_on_c, 1, 62, 127
3, 33539, Note_on_c, 1, 62, 0
3, 34080, Note_on_c, 1, 79, 127
3, 34139, Note_on_c, 1, 79, 0
3, 34140, Note_on_c, 1, 78, 127
3, 34199, Note_on_c, 1, 78, 0
3, 34200, Note_on_c, 1, 79, 127
3, 34229, Note_on_c, 1, 79, 0
3, 34230, Note_on_c, 1, 77, 127
3, 34259, Note_on_c, 1, 77, 0
3, 34260, Note_on_c, 1, 75, 127
3, 34289, Note_on_c, 1, 75, 0
3, 34290, Note_on_c, 1, 74, 127
3, 34319, Note_on_c, 1, 74, 0
3, 34320, Note_on_c, 1, 72, 127
3, 34409, Note_on_c, 1, 72, 0
3, 34410, Note_on_c, 1, 70, 127
3, 34439, Note_on_c, 1, 70, 0
3, 34440, Note_on_c, 1, 69, 127
3, 34469, Note_on_c, 1, 69, 0
3, 34470, Note_on_c, 1, 67, 127
3, 34499, Note_on_c, 1, 67, 0
3, 34500, Note_on_c, 1, 69, 127
3, 34529, Note_on_c, 1, 69, 0
3, 34530, Note_on_c, 1, 70, 127
3, 34559, Note_on_c, 1, 70, 0
3, 34560, Note_on_c, 1, 72, 127
3, 34739, Note_on_c, 1, 72, 0
3, 34770, Note_on_c, 1, 70, 127
3, 34799, Note_on_c, 1, 70, 0
3, 34800, Note_on_c, 1, 69, 127
3, 34829, Note_on_c, 1, 69, 0
3, 34830, Note_on_c, 1, 67, 127
3, 34859, Note_on_c, 1, 67, 0
3, 34860, Note_on_c, 1, 66, 127
3, 34889, Note_on_c, 1, 66, 0
3, 34890, Note_on_c, 1, 67, 127
3, 34919, Note_on_c, 1, 67, 0
3, 34920, Note_on_c, 1, 69, 127
3, 34979, Note_on_c, 1, 69, 0
3, 34980, Note_on_c, 1, 62, 127
3, 35009, Note_on_c, 1, 62, 0
3, 35010, Note_on_c, 1, 64, 127
3, 35039, Note_on_c, 1, 64, 0
3, 35040, Note_on_c, 1, 66, 127
3, 35069, Note_on_c, 1, 66, 0
3, 35070, Note_on_c, 1, 67, 127
3, 35099, Note_on_c, 1, 67, 0
3, 35100, Note_on_c, 1, 69, 127
3, 35159, Note_on_c, 1, 69, 0
3, 35160, Note_on_c, 1, 69, 127
3, 35219, Note_on_c, 1, 69, 0
3, 35220, Note_on_c, 1, 70, 127
3, 35279, Note_on_c, 1, 70, 0
3, 35280, Note_on_c, 1, 69, 127
3, 35339, Note_on_c, 1, 69, 0
3, 35460, Note_on_c, 1, 69, 127
3, 35519, Note_on_c, 1, 69, 0
3, 35640, Note_on_c, 1, 72, 127
3, 35699, Note_on_c, 1, 72, 0
3, 35820, Note_on_c, 1, 67, 127
3, 35879, Note_on_c, 1, 67, 0
3, 36240, Note_on_c, 1, 74, 127
3, 36299, Note_on_c, 1, 74, 0
3, 36300, Note_on_c, 1, 74, 127
3, 36359, Note_on_c, 1, 74, 0
3, 36360, Note_on_c, 1, 74, 127
3, 36539, Note_on_c, 1, 74, 0
3, 36540, Note_on_c, 1, 73, 127
3, 36659, Note_on_c, 1, 73, 0
3, 36660, Note_on_c, 1, 74, 127
3, 36719, Note_on_c, 1, 74, 0
3, 36720, Note_on_c, 1, 76, 127
3, 36779, Note_on_c, 1, 76, 0
3, 36960, Note_on_c, 1, 69, 127
3, 37019, Note_on_c, 1, 69, 0
3, 37020, Note_on_c, 1, 73, 127
3, 37079, Note_on_c, 1, 73, 0
3, 37080, Note_on_c, 1, 74, 127
3, 37500, Note_on_c, 1, 74, 0
3, 37680, Note_on_c, 1, 64, 127
3, 37739, Note_on_c, 1, 64, 0
3, 37740, Note_on_c, 1, 68, 127
3, 37799, Note_on_c, 1, 68, 0
3, 37800, Note_on_c, 1, 69, 127
3, 37859, Note_on_c, 1, 69, 0
3, 37980, Note_on_c, 1, 69, 127
3, 38039, Note_on_c, 1, 69, 0
3, 38160, Note_on_c, 1, 67, 127
3, 38219, Note_on_c, 1, 67, 0
3, 38340, Note_on_c, 1, 67, 127
3, 38399, Note_on_c, 1, 67, 0
3, 38520, Note_on_c, 1, 65, 127
3, 38579, Note_on_c, 1, 65, 0
3, 38700, Note_on_c, 1, 77, 127
3, 38759, Note_on_c, 1, 77, 0
3, 38880, Note_on_c, 1, 76, 127
3, 38939, Note_on_c, 1, 76, 0
3, 39060, Note_on_c, 1, 76, 127
3, 39119, Note_on_c, 1, 76, 0
3, 39240, Note_on_c, 1, 74, 127
3, 39299, Note_on_c, 1, 74, 0
3, 39600, Note_on_c, 1, 73, 127
3, 39659, Note_on_c, 1, 73, 0
3, 39960, Note_on_c, 1, 69, 127
3, 40019, Note_on_c, 1, 69, 0
3, 40320, Note_on_c, 1, 70, 127
3, 40379, Note_on_c, 1, 70, 0
3, 40380, Note_on_c, 1, 70, 127
3, 40439, Note_on_c, 1, 70, 0
3, 40440, Note_on_c, 1, 70, 127
3, 40499, Note_on_c, 1, 70, 0
3, 40500, Note_on_c, 1, 69, 127
3, 40559, Note_on_c, 1, 69, 0
3, 40560, Note_on_c, 1, 69, 127
3, 40619, Note_on_c, 1, 69, 0
3, 40620, Note_on_c, 1, 69, 127
3, 40679, Note_on_c, 1, 69, 0
3, 40680, Note_on_c, 1, 67, 127
3, 40739, Note_on_c, 1, 67, 0
3, 40740, Note_on_c, 1, 67, 127
3, 40799, Note_on_c, 1, 67, 0
3, 40800, Note_on_c, 1, 67, 127
3, 40859, Note_on_c, 1, 67, 0
3, 40860, Note_on_c, 1, 65, 127
3, 40919, Note_on_c, 1, 65, 0
3, 41400, Note_on_c, 1, 74, 127
3, 41759, Note_on_c, 1, 74, 0
3, 41760, Note_on_c, 1, 69, 127
3, 41819, Note_on_c, 1, 69, 0
3, 42120, Note_on_c, 1, 69, 127
3, 42179, Note_on_c, 1, 69, 0
3, 42480, Note_on_c, 1, 69, 127
3, 42539, Note_on_c, 1, 69, 0
3, 42840, Note_on_c, 1, 69, 127
3, 42899, Note_on_c, 1, 69, 0
3, 43020, Note_on_c, 1, 73, 127
3, 43079, Note_on_c, 1, 73, 0
3, 43200, Note_on_c, 1, 71, 127
3, 43259, Note_on_c, 1, 71, 0
3, 43380, Note_on_c, 1, 69, 127
3, 43439, Note_on_c, 1, 69, 0
3, 43560, Note_on_c, 1, 68, 127
3, 43619, Note_on_c, 1, 68, 0
3, 43740, Note_on_c, 1, 67, 127
3, 43799, Note_on_c, 1, 67, 0
3, 43920, Note_on_c, 1, 65, 127
3, 44099, Note_on_c, 1, 65, 0
3, 44100, Note_on_c, 1, 74, 127
3, 44279, Note_on_c, 1, 74, 0
3, 44280, Note_on_c, 1, 76, 127
3, 44339, Note_on_c, 1, 76, 0
3, 44340, Note_on_c, 1, 69, 127
3, 44399, Note_on_c, 1, 69, 0
3, 44400, Note_on_c, 1, 67, 127
3, 44459, Note_on_c, 1, 67, 0
3, 44460, Note_on_c, 1, 65, 127
3, 44519, Note_on_c, 1, 65, 0
3, 44520, Note_on_c, 1, 65, 127
3, 44579, Note_on_c, 1, 65, 0
3, 44580, Note_on_c, 1, 64, 127
3, 44639, Note_on_c, 1, 64, 0
3, 44640, Note_on_c, 1, 62, 127
3, 44699, Note_on_c, 1, 62, 0
3, 45240, Note_on_c, 1, 74, 127
3, 45299, Note_on_c, 1, 74, 0
3, 45300, Note_on_c, 1, 73, 127
3, 45359, Note_on_c, 1, 73, 0
3, 45360, Note_on_c, 1, 74, 127
3, 45419, Note_on_c, 1, 74, 0
3, 45420, Note_on_c, 1, 62, 127
3, 45479, Note_on_c, 1, 62, 0
3, 45480, Note_on_c, 1, 67, 127
3, 45539, Note_on_c, 1, 67, 0
3, 45540, Note_on_c, 1, 64, 127
3, 45599, Note_on_c, 1, 64, 0
3, 45600, Note_on_c, 1, 69, 127
3, 45659, Note_on_c, 1, 69, 0
3, 45660, Note_on_c, 1, 67, 127
3, 45719, Note_on_c, 1, 67, 0
3, 45720, Note_on_c, 1, 69, 127
3, 45779, Note_on_c, 1, 69, 0
3, 45780, Note_on_c, 1, 69, 127
3, 45839, Note_on_c, 1, 69, 0
3, 45840, Note_on_c, 1, 69, 127
3, 45899, Note_on_c, 1, 69, 0
3, 45900, Note_on_c, 1, 69, 127
3, 45959, Note_on_c, 1, 69, 0
3, 45960, Note_on_c, 1, 73, 127
3, 46019, Note_on_c, 1, 73, 0
3, 46020, Note_on_c, 1, 74, 127
3, 46079, Note_on_c, 1, 74, 0
3, 46080, Note_on_c, 1, 73, 127
3, 46139, Note_on_c, 1, 73, 0
3, 46440, Note_on_c, 1, 76, 127
3, 46499, Note_on_c, 1, 76, 0
3, 46620, Note_on_c, 1, 77, 127
3, 46679, Note_on_c, 1, 77, 0
3, 46800, Note_on_c, 1, 77, 127
3, 46859, Note_on_c, 1, 77, 0
3, 46980, Note_on_c, 1, 76, 127
3, 47039, Note_on_c, 1, 76, 0
3, 47160, Note_on_c, 1, 76, 127
3, 47219, Note_on_c, 1, 76, 0
3, 47340, Note_on_c, 1, 74, 127
3, 47399, Note_on_c, 1, 74, 0
3, 47520, Note_on_c, 1, 74, 127
3, 47579, Note_on_c, 1, 74, 0
3, 47700, Note_on_c, 1, 73, 127
3, 47759, Note_on_c, 1, 73, 0
3, 47880, Note_on_c, 1, 74, 127
3, 47939, Note_on_c, 1, 74, 0
3, 47940, Note_on_c, 1, 70, 127
3, 47999, Note_on_c, 1, 70, 0
3, 48000, Note_on_c, 1, 65, 127
3, 48059, Note_on_c, 1, 65, 0
3, 48060, Note_on_c, 1, 67, 127
3, 48119, Note_on_c, 1, 67, 0
3, 48120, Note_on_c, 1, 72, 127
3, 48179, Note_on_c, 1, 72, 0
3, 48180, Note_on_c, 1, 74, 127
3, 48239, Note_on_c, 1, 74, 0
3, 48240, Note_on_c, 1, 76, 127
3, 48299, Note_on_c, 1, 76, 0
3, 48420, Note_on_c, 1, 73, 127
3, 48479, Note_on_c, 1, 73, 0
3, 48600, Note_on_c, 1, 69, 127
3, 48659, Note_on_c, 1, 69, 0
3, 48780, Note_on_c, 1, 73, 127
3, 48839, Note_on_c, 1, 73, 0
3, 48960, Note_on_c, 1, 76, 127
3, 49049, Note_on_c, 1, 76, 0
3, 49050, Note_on_c, 1, 69, 127
3, 49079, Note_on_c, 1, 69, 0
3, 49080, Note_on_c, 1, 74, 127
3, 49139, Note_on_c, 1, 74, 0
3, 49170, Note_on_c, 1, 76, 127
3, 49199, Note_on_c, 1, 76, 0
3, 49200, Note_on_c, 1, 73, 127
3, 49289, Note_on_c, 1, 73, 0
3, 49290, Note_on_c, 1, 74, 127
3, 49319, Note_on_c, 1, 74, 0
3, 49320, Note_on_c, 1, 74, 127
3, 49379, Note_on_c, 1, 74, 0
3, 49380, Note_on_c, 1, 62, 127
3, 49439, Note_on_c, 1, 62, 0
3, 49440, Note_on_c, 1, 64, 127
3, 49499, Note_on_c, 1, 64, 0
3, 49500, Note_on_c, 1, 65, 127
3, 49559, Note_on_c, 1, 65, 0
3, 49560, Note_on_c, 1, 65, 127
3, 49619, Note_on_c, 1, 65, 0
3, 49620, Note_on_c, 1, 67, 127
3, 49679, Note_on_c, 1, 67, 0
3, 49680, Note_on_c, 1, 69, 127
3, 49739, Note_on_c, 1, 69, 0
3, 49740, Note_on_c, 1, 69, 127
3, 49799, Note_on_c, 1, 69, 0
3, 49800, Note_on_c, 1, 70, 127
3, 49859, Note_on_c, 1, 70, 0
3, 49860, Note_on_c, 1, 69, 127
3, 49919, Note_on_c, 1, 69, 0
3, 49920, Note_on_c, 1, 67, 127
3, 49949, Note_on_c, 1, 67, 0
3, 49950, Note_on_c, 1, 65, 127
3, 49979, Note_on_c, 1, 65, 0
3, 49980, Note_on_c, 1, 64, 127
3, 50009, Note_on_c, 1, 64, 0
3, 50010, Note_on_c, 1, 62, 127
3, 50039, Note_on_c, 1, 62, 0
3, 50040, Note_on_c, 1, 61, 127
3, 50099, Note_on_c, 1, 61, 0
3, 50100, Note_on_c, 1, 57, 127
3, 50130, Note_on_c, 1, 57, 0
3, 50130, Note_on_c, 1, 59, 127
3, 50160, Note_on_c, 1, 59, 0
3, 50160, Note_on_c, 1, 61, 127
3, 50190, Note_on_c, 1, 61, 0
3, 50190, Note_on_c, 1, 62, 127
3, 50220, Note_on_c, 1, 62, 0
3, 50220, Note_on_c, 1, 64, 127
3, 50279, Note_on_c, 1, 64, 0
3, 50280, Note_on_c, 1, 64, 127
3, 50339, Note_on_c, 1, 64, 0
3, 50340, Note_on_c, 1, 65, 127
3, 50399, Note_on_c, 1, 65, 0
3, 50400, Note_on_c, 1, 64, 127
3, 50459, Note_on_c, 1, 64, 0
3, 50460, Note_on_c, 1, 57, 127
3, 50489, Note_on_c, 1, 57, 0
3, 50490, Note_on_c, 1, 59, 127
3, 50519, Note_on_c, 1, 59, 0
3, 50520, Note_on_c, 1, 61, 127
3, 50549, Note_on_c, 1, 61, 0
3, 50550, Note_on_c, 1, 62, 127
3, 50579, Note_on_c, 1, 62, 0
3, 50580, Note_on_c, 1, 64, 127
3, 50639, Note_on_c, 1, 64, 0
3, 50640, Note_on_c, 1, 64, 127
3, 50699, Note_on_c, 1, 64, 0
3, 50700, Note_on_c, 1, 65, 127
3, 50759, Note_on_c, 1, 65, 0
3, 50760, Note_on_c, 1, 64, 127
3, 50819, Note_on_c, 1, 64, 0
3, 50820, Note_on_c, 1, 57, 127
3, 50849, Note_on_c, 1, 57, 0
3, 50850, Note_on_c, 1, 59, 127
3, 50879, Note_on_c, 1, 59, 0
3, 50880, Note_on_c, 1, 61, 127
3, 50909, Note_on_c, 1, 61, 0
3, 50910, Note_on_c, 1, 62, 127
3, 50939, Note_on_c, 1, 62, 0
3, 50940, Note_on_c, 1, 64, 127
3, 50969, Note_on_c, 1, 64, 0
3, 50970, Note_on_c, 1, 62, 127
3, 50999, Note_on_c, 1, 62, 0
3, 51000, Note_on_c, 1, 61, 127
3, 51029, Note_on_c, 1, 61, 0
3, 51030, Note_on_c, 1, 62, 127
3, 51059, Note_on_c, 1, 62, 0
3, 51060, Note_on_c, 1, 64, 127
3, 51089, Note_on_c, 1, 64, 0
3, 51090, Note_on_c, 1, 65, 127
3, 51119, Note_on_c, 1, 65, 0
3, 51120, Note_on_c, 1, 67, 127
3, 51149, Note_on_c, 1, 67, 0
3, 51150, Note_on_c, 1, 65, 127
3, 51179, Note_on_c, 1, 65, 0
3, 51180, Note_on_c, 1, 64, 127
3, 51209, Note_on_c, 1, 64, 0
3, 51210, Note_on_c, 1, 65, 127
3, 51239, Note_on_c, 1, 65, 0
3, 51240, Note_on_c, 1, 67, 127
3, 51269, Note_on_c, 1, 67, 0
3, 51270, Note_on_c, 1, 69, 127
3, 51299, Note_on_c, 1, 69, 0
3, 51300, Note_on_c, 1, 70, 127
3, 51329, Note_on_c, 1, 70, 0
3, 51330, Note_on_c, 1, 69, 127
3, 51359, Note_on_c, 1, 69, 0
3, 51360, Note_on_c, 1, 67, 127
3, 51389, Note_on_c, 1, 67, 0
3, 51390, Note_on_c, 1, 65, 127
3, 51419, Note_on_c, 1, 65, 0
3, 51420, Note_on_c, 1, 64, 127
3, 51449, Note_on_c, 1, 64, 0
3, 51450, Note_on_c, 1, 62, 127
3, 51479, Note_on_c, 1, 62, 0
3, 51480, Note_on_c, 1, 61, 127
3, 51509, Note_on_c, 1, 61, 0
3, 51510, Note_on_c, 1, 64, 127
3, 51539, Note_on_c, 1, 64, 0
3, 51540, Note_on_c, 1, 57, 127
3, 51569, Note_on_c, 1, 57, 0
3, 51570, Note_on_c, 1, 61, 127
3, 51599, Note_on_c, 1, 61, 0
3, 51600, Note_on_c, 1, 62, 127
3, 51659, Note_on_c, 1, 62, 0
3, 51690, Note_on_c, 1, 55, 127
3, 51719, Note_on_c, 1, 55, 0
3, 51720, Note_on_c, 1, 57, 127
3, 51779, Note_on_c, 1, 57, 0
3, 51780, Note_on_c, 1, 57, 127
3, 51839, Note_on_c, 1, 57, 0
3, 51840, Note_on_c, 1, 62, 127
3, 52019, Note_on_c, 1, 62, 0
3, 52260, Note_on_c, 1, 69, 127
3, 52290, Note_on_c, 1, 69, 0
3, 52320, Note_on_c, 1, 70, 127
3, 52350, Note_on_c, 1, 70, 0
3, 52440, Note_on_c, 1, 67, 127
3, 52470, Note_on_c, 1, 67, 0
3, 52500, Note_on_c, 1, 64, 127
3, 52530, Note_on_c, 1, 64, 0
3, 52620, Note_on_c, 1, 65, 127
3, 52650, Note_on_c, 1, 65, 0
3, 52680, Note_on_c, 1, 69, 127
3, 52710, Note_on_c, 1, 69, 0
3, 52800, Note_on_c, 1, 72, 127
3, 52830, Note_on_c, 1, 72, 0
3, 52860, Note_on_c, 1, 77, 127
3, 52890, Note_on_c, 1, 77, 0
3, 52980, Note_on_c, 1, 71, 127
3, 53010, Note_on_c, 1, 71, 0
3, 53040, Note_on_c, 1, 72, 127
3, 53070, Note_on_c, 1, 72, 0
3, 53160, Note_on_c, 1, 69, 127
3, 53190, Note_on_c, 1, 69, 0
3, 53220, Note_on_c, 1, 69, 127
3, 53250, Note_on_c, 1, 69, 0
3, 53340, Note_on_c, 1, 67, 127
3, 53370, Note_on_c, 1, 67, 0
3, 53400, Note_on_c, 1, 71, 127
3, 53430, Note_on_c, 1, 71, 0
3, 53520, Note_on_c, 1, 74, 127
3, 53550, Note_on_c, 1, 74, 0
3, 53580, Note_on_c, 1, 79, 127
3, 53610, Note_on_c, 1, 79, 0
3, 53700, Note_on_c, 1, 76, 127
3, 53730, Note_on_c, 1, 76, 0
3, 53760, Note_on_c, 1, 74, 127
3, 53790, Note_on_c, 1, 74, 0
3, 53880, Note_on_c, 1, 72, 127
3, 53910, Note_on_c, 1, 72, 0
3, 53940, Note_on_c, 1, 72, 127
3, 53970, Note_on_c, 1, 72, 0
3, 54060, Note_on_c, 1, 67, 127
3, 54090, Note_on_c, 1, 67, 0
3, 54120, Note_on_c, 1, 67, 127
3, 54150, Note_on_c, 1, 67, 0
3, 54240, Note_on_c, 1, 72, 127
3, 54270, Note_on_c, 1, 72, 0
3, 54300, Note_on_c, 1, 69, 127
3, 54330, Note_on_c, 1, 69, 0
3, 54420, Note_on_c, 1, 71, 127
3, 54450, Note_on_c, 1, 71, 0
3, 54480, Note_on_c, 1, 72, 127
3, 54510, Note_on_c, 1, 72, 0
3, 54600, Note_on_c, 1, 67, 127
3, 54630, Note_on_c, 1, 67, 0
3, 54660, Note_on_c, 1, 65, 127
3, 54690, Note_on_c, 1, 65, 0
3, 54720, Note_on_c, 1, 64, 127
3, 54750, Note_on_c, 1, 64, 0
3, 54780, Note_on_c, 1, 60, 127
3, 54810, Note_on_c, 1, 60, 0
3, 54840, Note_on_c, 1, 59, 127
3, 54870, Note_on_c, 1, 59, 0
3, 54900, Note_on_c, 1, 55, 127
3, 55019, Note_on_c, 1, 55, 0
3, 58020, Note_on_c, 1, 65, 127
3, 58050, Note_on_c, 1, 65, 0
3, 58080, Note_on_c, 1, 69, 127
3, 58110, Note_on_c, 1, 69, 0
3, 58200, Note_on_c, 1, 70, 127
3, 58230, Note_on_c, 1, 70, 0
3, 58260, Note_on_c, 1, 67, 127
3, 58290, Note_on_c, 1, 67, 0
3, 58380, Note_on_c, 1, 69, 127
3, 58410, Note_on_c, 1, 69, 0
3, 58440, Note_on_c, 1, 72, 127
3, 58470, Note_on_c, 1, 72, 0
3, 58560, Note_on_c, 1, 74, 127
3, 58590, Note_on_c, 1, 74, 0
3, 58620, Note_on_c, 1, 66, 127
3, 58650, Note_on_c, 1, 66, 0
3, 58740, Note_on_c, 1, 74, 127
3, 58770, Note_on_c, 1, 74, 0
3, 58800, Note_on_c, 1, 70, 127
3, 58830, Note_on_c, 1, 70, 0
3, 58920, Note_on_c, 1, 72, 127
3, 58950, Note_on_c, 1, 72, 0
3, 58980, Note_on_c, 1, 75, 127
3, 59010, Note_on_c, 1, 75, 0
3, 59100, Note_on_c, 1, 74, 127
3, 59130, Note_on_c, 1, 74, 0
3, 59160, Note_on_c, 1, 69, 127
3, 59190, Note_on_c, 1, 69, 0
3, 59280, Note_on_c, 1, 69, 127
3, 59310, Note_on_c, 1, 69, 0
3, 59340, Note_on_c, 1, 66, 127
3, 59370, Note_on_c, 1, 66, 0
3, 59460, Note_on_c, 1, 67, 127
3, 59490, Note_on_c, 1, 67, 0
3, 59520, Note_on_c, 1, 62, 127
3, 59550, Note_on_c, 1, 62, 0
3, 59640, Note_on_c, 1, 62, 127
3, 59670, Note_on_c, 1, 62, 0
3, 59700, Note_on_c, 1, 74, 127
3, 59730, Note_on_c, 1, 74, 0
3, 59820, Note_on_c, 1, 76, 127
3, 59850, Note_on_c, 1, 76, 0
3, 59880, Note_on_c, 1, 64, 127
3, 59910, Note_on_c, 1, 64, 0
3, 60000, Note_on_c, 1, 64, 127
3, 60030, Note_on_c, 1, 64, 0
3, 60060, Note_on_c, 1, 67, 127
3, 60090, Note_on_c, 1, 67, 0
3, 60180, Note_on_c, 1, 65, 127
3, 60210, Note_on_c, 1, 65, 0
3, 60240, Note_on_c, 1, 65, 127
3, 60270, Note_on_c, 1, 65, 0
3, 60360, Note_on_c, 1, 69, 127
3, 60390, Note_on_c, 1, 69, 0
3, 60420, Note_on_c, 1, 67, 127
3, 60450, Note_on_c, 1, 67, 0
3, 60480, Note_on_c, 1, 65, 127
3, 60510, Note_on_c, 1, 65, 0
3, 60540, Note_on_c, 1, 62, 127
3, 60570, Note_on_c, 1, 62, 0
3, 60600, Note_on_c, 1, 61, 127
3, 60630, Note_on_c, 1, 61, 0
3, 60660, Note_on_c, 1, 57, 127
3, 60720, Note_on_c, 1, 57, 0
3, 60900, Note_on_c, 1, 67, 127
3, 60930, Note_on_c, 1, 67, 0
3, 60960, Note_on_c, 1, 71, 127
3, 60990, Note_on_c, 1, 71, 0
3, 61080, Note_on_c, 1, 74, 127
3, 61110, Note_on_c, 1, 74, 0
3, 61140, Note_on_c, 1, 67, 127
3, 61170, Note_on_c, 1, 67, 0
3, 61260, Note_on_c, 1, 72, 127
3, 61290, Note_on_c, 1, 72, 0
3, 61320, Note_on_c, 1, 76, 127
3, 61350, Note_on_c, 1, 76, 0
3, 61440, Note_on_c, 1, 72, 127
3, 61470, Note_on_c, 1, 72, 0
3, 61500, Note_on_c, 1, 67, 127
3, 61530, Note_on_c, 1, 67, 0
3, 61620, Note_on_c, 1, 65, 127
3, 61650, Note_on_c, 1, 65, 0
3, 61680, Note_on_c, 1, 72, 127
3, 61710, Note_on_c, 1, 72, 0
3, 61800, Note_on_c, 1, 72, 127
3, 61830, Note_on_c, 1, 72, 0
3, 61860, Note_on_c, 1, 65, 127
3, 61890, Note_on_c, 1, 65, 0
3, 61980, Note_on_c, 1, 65, 127
3, 62010, Note_on_c, 1, 65, 0
3, 62040, Note_on_c, 1, 70, 127
3, 62070, Note_on_c, 1, 70, 0
3, 62160, Note_on_c, 1, 65, 127
3, 62190, Note_on_c, 1, 65, 0
3, 62220, Note_on_c, 1, 62, 127
3, 62250, Note_on_c, 1, 62, 0
3, 62340, Note_on_c, 1, 60, 127
3, 62370, Note_on_c, 1, 60, 0
3, 62400, Note_on_c, 1, 67, 127
3, 62430, Note_on_c, 1, 67, 0
3, 62520, Note_on_c, 1, 72, 127
3, 62550, Note_on_c, 1, 72, 0
3, 62580, Note_on_c, 1, 67, 127
3, 62610, Note_on_c, 1, 67, 0
3, 62700, Note_on_c, 1, 69, 127
3, 62730, Note_on_c, 1, 69, 0
3, 62760, Note_on_c, 1, 72, 127
3, 62790, Note_on_c, 1, 72, 0
3, 62880, Note_on_c, 1, 76, 127
3, 62910, Note_on_c, 1, 76, 0
3, 62940, Note_on_c, 1, 77, 127
3, 62970, Note_on_c, 1, 77, 0
3, 63060, Note_on_c, 1, 74, 127
3, 63090, Note_on_c, 1, 74, 0
3, 63120, Note_on_c, 1, 69, 127
3, 63150, Note_on_c, 1, 69, 0
3, 63240, Note_on_c, 1, 67, 127
3, 63270, Note_on_c, 1, 67, 0
3, 63300, Note_on_c, 1, 74, 127
3, 63330, Note_on_c, 1, 74, 0
3, 63420, Note_on_c, 1, 72, 127
3, 63450, Note_on_c, 1, 72, 0
3, 63480, Note_on_c, 1, 67, 127
3, 63510, Note_on_c, 1, 67, 0
3, 63600, Note_on_c, 1, 72, 127
3, 63630, Note_on_c, 1, 72, 0
3, 63660, Note_on_c, 1, 76, 127
3, 63690, Note_on_c, 1, 76, 0
3, 63780, Note_on_c, 1, 76, 127
3, 63810, Note_on_c, 1, 76, 0
3, 63840, Note_on_c, 1, 77, 127
3, 63870, Note_on_c, 1, 77, 0
3, 63960, Note_on_c, 1, 74, 127
3, 63990, Note_on_c, 1, 74, 0
3, 64020, Note_on_c, 1, 67, 127
3, 64050, Note_on_c, 1, 67, 0
3, 64140, Note_on_c, 1, 67, 127
3, 64170, Note_on_c, 1, 67, 0
3, 64200, Note_on_c, 1, 72, 127
3, 64230, Note_on_c, 1, 72, 0
3, 64320, Note_on_c, 1, 72, 127
3, 64350, Note_on_c, 1, 72, 0
3, 64380, Note_on_c, 1, 76, 127
3, 64410, Note_on_c, 1, 76, 0
3, 64500, Note_on_c, 1, 77, 127
3, 64530, Note_on_c, 1, 77, 0
3, 64560, Note_on_c, 1, 76, 127
3, 64590, Note_on_c, 1, 76, 0
3, 64680, Note_on_c, 1, 77, 127
3, 64710, Note_on_c, 1, 77, 0
3, 64740, Note_on_c, 1, 76, 127
3, 64770, Note_on_c, 1, 76, 0
3, 64860, Note_on_c, 1, 72, 127
3, 64890, Note_on_c, 1, 72, 0
3, 64920, Note_on_c, 1, 68, 127
3, 64950, Note_on_c, 1, 68, 0
3, 65040, Note_on_c, 1, 67, 127
3, 65070, Note_on_c, 1, 67, 0
3, 65100, Note_on_c, 1, 65, 127
3, 65130, Note_on_c, 1, 65, 0
3, 65220, Note_on_c, 1, 68, 127
3, 65250, Note_on_c, 1, 68, 0
3, 65280, Note_on_c, 1, 68, 127
3, 65310, Note_on_c, 1, 68, 0
3, 65400, Note_on_c, 1, 72, 127
3, 65430, Note_on_c, 1, 72, 0
3, 65460, Note_on_c, 1, 70, 127
3, 65490, Note_on_c, 1, 70, 0
3, 65580, Note_on_c, 1, 68, 127
3, 65610, Note_on_c, 1, 68, 0
3, 65640, Note_on_c, 1, 70, 127
3, 65670, Note_on_c, 1, 70, 0
3, 65760, Note_on_c, 1, 68, 127
3, 65790, Note_on_c, 1, 68, 0
3, 65820, Note_on_c, 1, 65, 127
3, 65850, Note_on_c, 1, 65, 0
3, 65940, Note_on_c, 1, 72, 127
3, 65970, Note_on_c, 1, 72, 0
3, 66000, Note_on_c, 1, 72, 127
3, 66030, Note_on_c, 1, 72, 0
3, 66120, Note_on_c, 1, 72, 127
3, 66150, Note_on_c, 1, 72, 0
3, 66180, Note_on_c, 1, 70, 127
3, 66210, Note_on_c, 1, 70, 0
3, 66240, Note_on_c, 1, 69, 127
3, 66270, Note_on_c, 1, 69, 0
3, 66300, Note_on_c, 1, 65, 127
3, 66330, Note_on_c, 1, 65, 0
3, 66360, Note_on_c, 1, 64, 127
3, 66390, Note_on_c, 1, 64, 0
3, 66420, Note_on_c, 1, 60, 127
3, 66480, Note_on_c, 1, 60, 0
3, 76140, Note_on_c, 1, 65, 127
3, 76170, Note_on_c, 1, 65, 0
3, 76170, Note_on_c, 1, 67, 127
3, 76200, Note_on_c, 1, 67, 0
3, 76200, Note_on_c, 1, 69, 127
3, 76210, Note_on_c, 1, 69, 0
3, 76210, Note_on_c, 1, 67, 127
3, 76220, Note_on_c, 1, 67, 0
3, 76220, Note_on_c, 1, 69, 127
3, 76230, Note_on_c, 1, 69, 0
3, 76230, Note_on_c, 1, 67, 127
3, 76237, Note_on_c, 1, 69, 127
3, 76238, Note_on_c, 1, 67, 0
3, 76245, Note_on_c, 1, 69, 0
3, 76245, Note_on_c, 1, 67, 127
3, 76252, Note_on_c, 1, 69, 127
3, 76253, Note_on_c, 1, 67, 0
3, 76260, Note_on_c, 1, 69, 0
3, 76260, Note_on_c, 1, 67, 127
3, 76270, Note_on_c, 1, 67, 0
3, 76270, Note_on_c, 1, 69, 127
3, 76280, Note_on_c, 1, 69, 0
3, 76280, Note_on_c, 1, 67, 127
3, 76290, Note_on_c, 1, 67, 0
3, 76290, Note_on_c, 1, 69, 127
3, 76320, Note_on_c, 1, 69, 0
3, 76320, Note_on_c, 1, 69, 127
3, 76680, Note_on_c, 1, 69, 0
3, 77040, Note_on_c, 1, 69, 127
3, 77099, Note_on_c, 1, 69, 0
3, 77100, Note_on_c, 1, 74, 127
3, 77219, Note_on_c, 1, 74, 0
3, 77220, Note_on_c, 1, 73, 127
3, 77279, Note_on_c, 1, 73, 0
3, 77280, Note_on_c, 1, 74, 127
3, 77339, Note_on_c, 1, 74, 0
3, 77340, Note_on_c, 1, 76, 127
3, 77459, Note_on_c, 1, 76, 0
3, 77460, Note_on_c, 1, 77, 127
3, 77579, Note_on_c, 1, 77, 0
3, 77580, Note_on_c, 1, 76, 127
3, 77609, Note_on_c, 1, 76, 0
3, 77610, Note_on_c, 1, 74, 127
3, 77639, Note_on_c, 1, 74, 0
3, 77640, Note_on_c, 1, 77, 127
3, 77669, Note_on_c, 1, 77, 0
3, 77670, Note_on_c, 1, 76, 127
3, 77699, Note_on_c, 1, 76, 0
3, 77700, Note_on_c, 1, 74, 127
3, 77729, Note_on_c, 1, 74, 0
3, 77730, Note_on_c, 1, 73, 127
3, 77759, Note_on_c, 1, 73, 0
3, 77760, Note_on_c, 1, 74, 127
3, 77819, Note_on_c, 1, 74, 0
3, 77820, Note_on_c, 1, 76, 127
3, 77849, Note_on_c, 1, 76, 0
3, 77850, Note_on_c, 1, 77, 127
3, 77879, Note_on_c, 1, 77, 0
3, 77880, Note_on_c, 1, 76, 127
3, 77909, Note_on_c, 1, 76, 0
3, 77910, Note_on_c, 1, 74, 127
3, 77939, Note_on_c, 1, 74, 0
3, 77940, Note_on_c, 1, 72, 127
3, 77969, Note_on_c, 1, 72, 0
3, 77970, Note_on_c, 1, 71, 127
3, 77999, Note_on_c, 1, 71, 0
3, 78000, Note_on_c, 1, 72, 127
3, 78029, Note_on_c, 1, 72, 0
3, 78030, Note_on_c, 1, 74, 127
3, 78059, Note_on_c, 1, 74, 0
3, 78060, Note_on_c, 1, 71, 127
3, 78089, Note_on_c, 1, 71, 0
3, 78090, Note_on_c, 1, 72, 127
3, 78119, Note_on_c, 1, 72, 0
3, 78120, Note_on_c, 1, 74, 127
3, 78149, Note_on_c, 1, 74, 0
3, 78150, Note_on_c, 1, 76, 127
3, 78179, Note_on_c, 1, 76, 0
3, 78180, Note_on_c, 1, 72, 127
3, 78209, Note_on_c, 1, 72, 0
3, 78210, Note_on_c, 1, 74, 127
3, 78239, Note_on_c, 1, 74, 0
3, 78240, Note_on_c, 1, 76, 127
3, 78269, Note_on_c, 1, 76, 0
3, 78270, Note_on_c, 1, 72, 127
3, 78299, Note_on_c, 1, 72, 0
3, 78300, Note_on_c, 1, 71, 127
3, 78329, Note_on_c, 1, 71, 0
3, 78330, Note_on_c, 1, 69, 127
3, 78359, Note_on_c, 1, 69, 0
3, 78360, Note_on_c, 1, 77, 127
3, 78389, Note_on_c, 1, 77, 0
3, 78390, Note_on_c, 1, 74, 127
3, 78419, Note_on_c, 1, 74, 0
3, 78420, Note_on_c, 1, 72, 127
3, 78449, Note_on_c, 1, 72, 0
3, 78450, Note_on_c, 1, 71, 127
3, 78479, Note_on_c, 1, 71, 0
3, 78480, Note_on_c, 1, 80, 127
3, 78509, Note_on_c, 1, 80, 0
3, 78510, Note_on_c, 1, 76, 127
3, 78539, Note_on_c, 1, 76, 0
3, 78540, Note_on_c, 1, 74, 127
3, 78569, Note_on_c, 1, 74, 0
3, 78570, Note_on_c, 1, 72, 127
3, 78599, Note_on_c, 1, 72, 0
3, 78600, Note_on_c, 1, 77, 127
3, 78629, Note_on_c, 1, 77, 0
3, 78630, Note_on_c, 1, 74, 127
3, 78659, Note_on_c, 1, 74, 0
3, 78660, Note_on_c, 1, 72, 127
3, 78689, Note_on_c, 1, 72, 0
3, 78690, Note_on_c, 1, 71, 127
3, 78719, Note_on_c, 1, 71, 0
3, 78720, Note_on_c, 1, 72, 127
3, 78779, Note_on_c, 1, 72, 0
3, 78780, Note_on_c, 1, 69, 127
3, 78839, Note_on_c, 1, 69, 0
3, 78840, Note_on_c, 1, 72, 127
3, 78899, Note_on_c, 1, 72, 0
3, 78900, Note_on_c, 1, 75, 127
3, 78989, Note_on_c, 1, 75, 0
3, 78990, Note_on_c, 1, 72, 127
3, 79019, Note_on_c, 1, 72, 0
3, 79020, Note_on_c, 1, 74, 127
3, 79049, Note_on_c, 1, 74, 0
3, 79050, Note_on_c, 1, 75, 127
3, 79079, Note_on_c, 1, 75, 0
3, 79080, Note_on_c, 1, 74, 127
3, 79109, Note_on_c, 1, 74, 0
3, 79110, Note_on_c, 1, 72, 127
3, 79139, Note_on_c, 1, 72, 0
3, 79140, Note_on_c, 1, 70, 127
3, 79169, Note_on_c, 1, 70, 0
3, 79170, Note_on_c, 1, 69, 127
3, 79199, Note_on_c, 1, 69, 0
3, 79200, Note_on_c, 1, 70, 127
3, 79259, Note_on_c, 1, 70, 0
3, 79260, Note_on_c, 1, 67, 127
3, 79319, Note_on_c, 1, 67, 0
3, 79320, Note_on_c, 1, 70, 127
3, 79379, Note_on_c, 1, 70, 0
3, 79380, Note_on_c, 1, 74, 127
3, 79469, Note_on_c, 1, 74, 0
3, 79470, Note_on_c, 1, 70, 127
3, 79499, Note_on_c, 1, 70, 0
3, 79500, Note_on_c, 1, 72, 127
3, 79529, Note_on_c, 1, 72, 0
3, 79530, Note_on_c, 1, 74, 127
3, 79559, Note_on_c, 1, 74, 0
3, 79560, Note_on_c, 1, 72, 127
3, 79589, Note_on_c, 1, 72, 0
3, 79590, Note_on_c, 1, 70, 127
3, 79619, Note_on_c, 1, 70, 0
3, 79620, Note_on_c, 1, 69, 127
3, 79649, Note_on_c, 1, 69, 0
3, 79650, Note_on_c, 1, 67, 127
3, 79679, Note_on_c, 1, 67, 0
3, 79680, Note_on_c, 1, 69, 127
3, 79709, Note_on_c, 1, 69, 0
3, 79710, Note_on_c, 1, 72, 127
3, 79739, Note_on_c, 1, 72, 0
3, 79740, Note_on_c, 1, 70, 127
3, 79769, Note_on_c, 1, 70, 0
3, 79770, Note_on_c, 1, 69, 127
3, 79799, Note_on_c, 1, 69, 0
3, 79800, Note_on_c, 1, 79, 127
3, 79829, Note_on_c, 1, 79, 0
3, 79830, Note_on_c, 1, 70, 127
3, 79859, Note_on_c, 1, 70, 0
3, 79860, Note_on_c, 1, 69, 127
3, 79889, Note_on_c, 1, 69, 0
3, 79890, Note_on_c, 1, 67, 127
3, 79919, Note_on_c, 1, 67, 0
3, 79920, Note_on_c, 1, 65, 127
3, 79949, Note_on_c, 1, 65, 0
3, 79950, Note_on_c, 1, 69, 127
3, 79979, Note_on_c, 1, 69, 0
3, 79980, Note_on_c, 1, 67, 127
3, 80009, Note_on_c, 1, 67, 0
3, 80010, Note_on_c, 1, 65, 127
3, 80039, Note_on_c, 1, 65, 0
3, 80040, Note_on_c, 1, 76, 127
3, 80069, Note_on_c, 1, 76, 0
3, 80070, Note_on_c, 1, 67, 127
3, 80099, Note_on_c, 1, 67, 0
3, 80100, Note_on_c, 1, 65, 127
3, 80129, Note_on_c, 1, 65, 0
3, 80130, Note_on_c, 1, 64, 127
3, 80159, Note_on_c, 1, 64, 0
3, 80160, Note_on_c, 1, 62, 127
3, 80189, Note_on_c, 1, 62, 0
3, 80190, Note_on_c, 1, 74, 127
3, 80219, Note_on_c, 1, 74, 0
3, 80220, Note_on_c, 1, 76, 127
3, 80249, Note_on_c, 1, 76, 0
3, 80250, Note_on_c, 1, 77, 127
3, 80279, Note_on_c, 1, 77, 0
3, 80280, Note_on_c, 1, 67, 127
3, 80309, Note_on_c, 1, 67, 0
3, 80310, Note_on_c, 1, 73, 127
3, 80339, Note_on_c, 1, 73, 0
3, 80340, Note_on_c, 1, 74, 127
3, 80369, Note_on_c, 1, 74, 0
3, 80370, Note_on_c, 1, 76, 127
3, 80399, Note_on_c, 1, 76, 0
3, 80400, Note_on_c, 1, 65, 127
3, 80459, Note_on_c, 1, 65, 0
3, 80520, Note_on_c, 1, 64, 127
3, 80579, Note_on_c, 1, 64, 0
3, 80640, Note_on_c, 1, 62, 127
3, 80699, Note_on_c, 1, 62, 0
3, 80760, Note_on_c, 1, 67, 127
3, 80819, Note_on_c, 1, 67, 0
3, 80880, Note_on_c, 1, 65, 127
3, 80939, Note_on_c, 1, 65, 0
3, 80940, Note_on_c, 1, 70, 127
3, 81059, Note_on_c, 1, 70, 0
3, 81060, Note_on_c, 1, 69, 127
3, 81179, Note_on_c, 1, 69, 0
3, 81180, Note_on_c, 1, 68, 127
3, 81209, Note_on_c, 1, 68, 0
3, 81210, Note_on_c, 1, 69, 127
3, 81239, Note_on_c, 1, 69, 0
3, 81240, Note_on_c, 1, 71, 127
3, 81299, Note_on_c, 1, 71, 0
3, 81300, Note_on_c, 1, 69, 127
3, 81329, Note_on_c, 1, 69, 0
3, 81330, Note_on_c, 1, 68, 127
3, 81359, Note_on_c, 1, 68, 0
3, 81360, Note_on_c, 1, 69, 127
3, 81389, Note_on_c, 1, 69, 0
3, 81390, Note_on_c, 1, 76, 127
3, 81419, Note_on_c, 1, 76, 0
3, 81420, Note_on_c, 1, 77, 127
3, 81449, Note_on_c, 1, 77, 0
3, 81450, Note_on_c, 1, 76, 127
3, 81479, Note_on_c, 1, 76, 0
3, 81480, Note_on_c, 1, 74, 127
3, 81509, Note_on_c, 1, 74, 0
3, 81510, Note_on_c, 1, 72, 127
3, 81539, Note_on_c, 1, 72, 0
3, 81540, Note_on_c, 1, 76, 127
3, 81569, Note_on_c, 1, 76, 0
3, 81570, Note_on_c, 1, 74, 127
3, 81599, Note_on_c, 1, 74, 0
3, 81600, Note_on_c, 1, 72, 127
3, 81629, Note_on_c, 1, 72, 0
3, 81630, Note_on_c, 1, 69, 127
3, 81659, Note_on_c, 1, 69, 0
3, 81660, Note_on_c, 1, 74, 127
3, 81689, Note_on_c, 1, 74, 0
3, 81690, Note_on_c, 1, 72, 127
3, 81719, Note_on_c, 1, 72, 0
3, 81720, Note_on_c, 1, 71, 127
3, 81749, Note_on_c, 1, 71, 0
3, 81750, Note_on_c, 1, 74, 127
3, 81779, Note_on_c, 1, 74, 0
3, 81780, Note_on_c, 1, 76, 127
3, 81809, Note_on_c, 1, 76, 0
3, 81810, Note_on_c, 1, 74, 127
3, 81839, Note_on_c, 1, 74, 0
3, 81840, Note_on_c, 1, 72, 127
3, 81899, Note_on_c, 1, 72, 0
3, 81900, Note_on_c, 1, 81, 127
3, 81959, Note_on_c, 1, 81, 0
3, 82020, Note_on_c, 1, 76, 127
3, 82109, Note_on_c, 1, 76, 0
3, 82110, Note_on_c, 1, 74, 127
3, 82139, Note_on_c, 1, 74, 0
3, 82140, Note_on_c, 1, 72, 127
3, 82169, Note_on_c, 1, 72, 0
3, 82170, Note_on_c, 1, 74, 127
3, 82199, Note_on_c, 1, 74, 0
3, 82200, Note_on_c, 1, 76, 127
3, 82229, Note_on_c, 1, 76, 0
3, 82230, Note_on_c, 1, 74, 127
3, 82259, Note_on_c, 1, 74, 0
3, 82260, Note_on_c, 1, 76, 127
3, 82289, Note_on_c, 1, 76, 0
3, 82290, Note_on_c, 1, 77, 127
3, 82319, Note_on_c, 1, 77, 0
3, 82320, Note_on_c, 1, 71, 127
3, 82379, Note_on_c, 1, 71, 0
3, 82380, Note_on_c, 1, 71, 127
3, 82439, Note_on_c, 1, 71, 0
3, 82440, Note_on_c, 1, 79, 127
3, 82499, Note_on_c, 1, 79, 0
3, 82500, Note_on_c, 1, 79, 127
3, 82559, Note_on_c, 1, 79, 0
3, 82560, Note_on_c, 1, 79, 127
3, 82619, Note_on_c, 1, 79, 0
3, 82620, Note_on_c, 1, 77, 127
3, 82649, Note_on_c, 1, 77, 0
3, 82650, Note_on_c, 1, 76, 127
3, 82679, Note_on_c, 1, 76, 0
3, 82680, Note_on_c, 1, 74, 127
3, 82709, Note_on_c, 1, 74, 0
3, 82710, Note_on_c, 1, 72, 127
3, 82739, Note_on_c, 1, 72, 0
3, 82740, Note_on_c, 1, 70, 127
3, 82769, Note_on_c, 1, 70, 0
3, 82770, Note_on_c, 1, 69, 127
3, 82799, Note_on_c, 1, 69, 0
3, 82800, Note_on_c, 1, 67, 127
3, 82859, Note_on_c, 1, 67, 0
3, 82860, Note_on_c, 1, 67, 127
3, 82919, Note_on_c, 1, 67, 0
3, 82920, Note_on_c, 1, 76, 127
3, 82979, Note_on_c, 1, 76, 0
3, 82980, Note_on_c, 1, 76, 127
3, 83039, Note_on_c, 1, 76, 0
3, 83040, Note_on_c, 1, 76, 127
3, 83099, Note_on_c, 1, 76, 0
3, 83100, Note_on_c, 1, 74, 127
3, 83129, Note_on_c, 1, 74, 0
3, 83130, Note_on_c, 1, 72, 127
3, 83159, Note_on_c, 1, 72, 0
3, 83160, Note_on_c, 1, 70, 127
3, 83189, Note_on_c, 1, 70, 0
3, 83190, Note_on_c, 1, 69, 127
3, 83219, Note_on_c, 1, 69, 0
3, 83220, Note_on_c, 1, 67, 127
3, 83249, Note_on_c, 1, 67, 0
3, 83250, Note_on_c, 1, 65, 127
3, 83279, Note_on_c, 1, 65, 0
3, 83280, Note_on_c, 1, 64, 127
3, 83309, Note_on_c, 1, 64, 0
3, 83310, Note_on_c, 1, 67, 127
3, 83339, Note_on_c, 1, 67, 0
3, 83340, Note_on_c, 1, 65, 127
3, 83369, Note_on_c, 1, 65, 0
3, 83370, Note_on_c, 1, 69, 127
3, 83399, Note_on_c, 1, 69, 0
3, 83400, Note_on_c, 1, 67, 127
3, 83429, Note_on_c, 1, 67, 0
3, 83430, Note_on_c, 1, 64, 127
3, 83459, Note_on_c, 1, 64, 0
3, 83460, Note_on_c, 1, 69, 127
3, 83489, Note_on_c, 1, 69, 0
3, 83490, Note_on_c, 1, 67, 127
3, 83519, Note_on_c, 1, 67, 0
3, 83520, Note_on_c, 1, 65, 127
3, 83549, Note_on_c, 1, 65, 0
3, 83550, Note_on_c, 1, 77, 127
3, 83579, Note_on_c, 1, 77, 0
3, 83580, Note_on_c, 1, 76, 127
3, 83609, Note_on_c, 1, 76, 0
3, 83610, Note_on_c, 1, 74, 127
3, 83639, Note_on_c, 1, 74, 0
3, 83640, Note_on_c, 1, 73, 127
3, 83669, Note_on_c, 1, 73, 0
3, 83670, Note_on_c, 1, 79, 127
3, 83699, Note_on_c, 1, 79, 0
3, 83700, Note_on_c, 1, 77, 127
3, 83729, Note_on_c, 1, 77, 0
3, 83730, Note_on_c, 1, 76, 127
3, 83759, Note_on_c, 1, 76, 0
3, 83760, Note_on_c, 1, 74, 127
3, 83789, Note_on_c, 1, 74, 0
3, 83790, Note_on_c, 1, 77, 127
3, 83819, Note_on_c, 1, 77, 0
3, 83820, Note_on_c, 1, 79, 127
3, 83849, Note_on_c, 1, 79, 0
3, 83850, Note_on_c, 1, 81, 127
3, 83879, Note_on_c, 1, 81, 0
3, 83880, Note_on_c, 1, 73, 127
3, 83909, Note_on_c, 1, 73, 0
3, 83910, Note_on_c, 1, 79, 127
3, 83939, Note_on_c, 1, 79, 0
3, 83940, Note_on_c, 1, 77, 127
3, 83969, Note_on_c, 1, 77, 0
3, 83970, Note_on_c, 1, 76, 127
3, 83999, Note_on_c, 1, 76, 0
3, 84000, Note_on_c, 1, 74, 127
3, 84029, Note_on_c, 1, 74, 0
3, 84030, Note_on_c, 1, 76, 127
3, 84059, Note_on_c, 1, 76, 0
3, 84060, Note_on_c, 1, 77, 127
3, 84089, Note_on_c, 1, 77, 0
3, 84090, Note_on_c, 1, 79, 127
3, 84119, Note_on_c, 1, 79, 0
3, 84120, Note_on_c, 1, 77, 127
3, 84149, Note_on_c, 1, 77, 0
3, 84150, Note_on_c, 1, 76, 127
3, 84179, Note_on_c, 1, 76, 0
3, 84180, Note_on_c, 1, 74, 127
3, 84209, Note_on_c, 1, 74, 0
3, 84210, Note_on_c, 1, 72, 127
3, 84239, Note_on_c, 1, 72, 0
3, 84240, Note_on_c, 1, 70, 127
3, 84299, Note_on_c, 1, 70, 0
3, 84300, Note_on_c, 1, 74, 127
3, 84359, Note_on_c, 1, 74, 0
3, 84360, Note_on_c, 1, 67, 127
3, 84419, Note_on_c, 1, 67, 0
3, 84420, Note_on_c, 1, 71, 127
3, 84479, Note_on_c, 1, 71, 0
3, 84480, Note_on_c, 1, 72, 127
3, 84509, Note_on_c, 1, 72, 0
3, 84510, Note_on_c, 1, 74, 127
3, 84539, Note_on_c, 1, 74, 0
3, 84540, Note_on_c, 1, 76, 127
3, 84569, Note_on_c, 1, 76, 0
3, 84570, Note_on_c, 1, 77, 127
3, 84599, Note_on_c, 1, 77, 0
3, 84600, Note_on_c, 1, 76, 127
3, 84629, Note_on_c, 1, 76, 0
3, 84630, Note_on_c, 1, 74, 127
3, 84659, Note_on_c, 1, 74, 0
3, 84660, Note_on_c, 1, 72, 127
3, 84689, Note_on_c, 1, 72, 0
3, 84690, Note_on_c, 1, 70, 127
3, 84719, Note_on_c, 1, 70, 0
3, 84720, Note_on_c, 1, 69, 127
3, 84779, Note_on_c, 1, 69, 0
3, 84780, Note_on_c, 1, 72, 127
3, 84839, Note_on_c, 1, 72, 0
3, 84840, Note_on_c, 1, 65, 127
3, 84899, Note_on_c, 1, 65, 0
3, 84900, Note_on_c, 1, 69, 127
3, 84959, Note_on_c, 1, 69, 0
3, 84960, Note_on_c, 1, 70, 127
3, 84989, Note_on_c, 1, 70, 0
3, 84990, Note_on_c, 1, 72, 127
3, 85019, Note_on_c, 1, 72, 0
3, 85020, Note_on_c, 1, 74, 127
3, 85049, Note_on_c, 1, 74, 0
3, 85050, Note_on_c, 1, 75, 127
3, 85079, Note_on_c, 1, 75, 0
3, 85080, Note_on_c, 1, 74, 127
3, 85109, Note_on_c, 1, 74, 0
3, 85110, Note_on_c, 1, 72, 127
3, 85139, Note_on_c, 1, 72, 0
3, 85140, Note_on_c, 1, 70, 127
3, 85169, Note_on_c, 1, 70, 0
3, 85170, Note_on_c, 1, 69, 127
3, 85199, Note_on_c, 1, 69, 0
3, 85200, Note_on_c, 1, 67, 127
3, 85259, Note_on_c, 1, 67, 0
3, 85260, Note_on_c, 1, 70, 127
3, 85319, Note_on_c, 1, 70, 0
3, 85320, Note_on_c, 1, 64, 127
3, 85379, Note_on_c, 1, 64, 0
3, 85380, Note_on_c, 1, 67, 127
3, 85469, Note_on_c, 1, 67, 0
3, 85470, Note_on_c, 1, 65, 127
3, 85499, Note_on_c, 1, 65, 0
3, 85500, Note_on_c, 1, 64, 127
3, 85529, Note_on_c, 1, 64, 0
3, 85530, Note_on_c, 1, 62, 127
3, 85559, Note_on_c, 1, 62, 0
3, 85560, Note_on_c, 1, 61, 127
3, 85589, Note_on_c, 1, 61, 0
3, 85590, Note_on_c, 1, 70, 127
3, 85619, Note_on_c, 1, 70, 0
3, 85620, Note_on_c, 1, 69, 127
3, 85649, Note_on_c, 1, 69, 0
3, 85650, Note_on_c, 1, 67, 127
3, 85679, Note_on_c, 1, 67, 0
3, 85680, Note_on_c, 1, 65, 127
3, 85739, Note_on_c, 1, 65, 0
3, 85800, Note_on_c, 1, 64, 127
3, 85859, Note_on_c, 1, 64, 0
3, 85920, Note_on_c, 1, 69, 127
3, 85979, Note_on_c, 1, 69, 0
3, 86040, Note_on_c, 1, 67, 127
3, 86099, Note_on_c, 1, 67, 0
3, 86160, Note_on_c, 1, 61, 127
3, 86219, Note_on_c, 1, 61, 0
3, 86220, Note_on_c, 1, 62, 127
3, 86279, Note_on_c, 1, 62, 0
3, 86280, Note_on_c, 1, 70, 127
3, 86339, Note_on_c, 1, 70, 0
3, 86340, Note_on_c, 1, 69, 127
3, 86399, Note_on_c, 1, 69, 0
3, 86400, Note_on_c, 1, 69, 127
3, 86519, Note_on_c, 1, 69, 0
3, 93360, Note_on_c, 1, 76, 127
3, 93419, Note_on_c, 1, 76, 0
3, 93480, Note_on_c, 1, 74, 127
3, 93539, Note_on_c, 1, 74, 0
3, 93600, Note_on_c, 1, 72, 127
3, 93659, Note_on_c, 1, 72, 0
3, 93720, Note_on_c, 1, 77, 127
3, 93779, Note_on_c, 1, 77, 0
3, 93840, Note_on_c, 1, 76, 127
3, 93899, Note_on_c, 1, 76, 0
3, 93900, Note_on_c, 1, 72, 127
3, 93959, Note_on_c, 1, 72, 0
3, 93960, Note_on_c, 1, 74, 127
3, 94019, Note_on_c, 1, 74, 0
3, 94020, Note_on_c, 1, 71, 127
3, 94079, Note_on_c, 1, 71, 0
3, 94080, Note_on_c, 1, 72, 127
3, 94199, Note_on_c, 1, 72, 0
3, 101280, Note_on_c, 1, 69, 127
3, 101339, Note_on_c, 1, 69, 0
3, 101340, Note_on_c, 1, 74, 127
3, 101459, Note_on_c, 1, 74, 0
3, 101460, Note_on_c, 1, 73, 127
3, 101519, Note_on_c, 1, 73, 0
3, 101520, Note_on_c, 1, 74, 127
3, 101579, Note_on_c, 1, 74, 0
3, 101640, Note_on_c, 1, 76, 127
3, 101699, Note_on_c, 1, 76, 0
3, 101760, Note_on_c, 1, 77, 127
3, 101819, Note_on_c, 1, 77, 0
3, 101820, Note_on_c, 1, 76, 127
3, 101849, Note_on_c, 1, 76, 0
3, 101850, Note_on_c, 1, 74, 127
3, 101879, Note_on_c, 1, 74, 0
3, 101880, Note_on_c, 1, 73, 127
3, 101909, Note_on_c, 1, 73, 0
3, 101910, Note_on_c, 1, 76, 127
3, 101939, Note_on_c, 1, 76, 0
3, 101940, Note_on_c, 1, 74, 127
3, 101969, Note_on_c, 1, 74, 0
3, 101970, Note_on_c, 1, 73, 127
3, 101999, Note_on_c, 1, 73, 0
3, 102000, Note_on_c, 1, 74, 127
3, 102059, Note_on_c, 1, 74, 0
3, 102060, Note_on_c, 1, 81, 127
3, 102179, Note_on_c, 1, 81, 0
3, 102180, Note_on_c, 1, 79, 127
3, 102239, Note_on_c, 1, 79, 0
3, 102240, Note_on_c, 1, 77, 127
3, 102299, Note_on_c, 1, 77, 0
3, 102360, Note_on_c, 1, 76, 127
3, 102419, Note_on_c, 1, 76, 0
3, 102480, Note_on_c, 1, 74, 127
3, 102539, Note_on_c, 1, 74, 0
3, 102540, Note_on_c, 1, 82, 127
3, 102659, Note_on_c, 1, 82, 0
3, 102660, Note_on_c, 1, 81, 127
3, 102719, Note_on_c, 1, 81, 0
3, 102720, Note_on_c, 1, 79, 127
3, 102749, Note_on_c, 1, 79, 0
3, 102750, Note_on_c, 1, 77, 127
3, 102779, Note_on_c, 1, 77, 0
3, 102780, Note_on_c, 1, 76, 127
3, 102809, Note_on_c, 1, 76, 0
3, 102810, Note_on_c, 1, 74, 127
3, 102839, Note_on_c, 1, 74, 0
3, 102840, Note_on_c, 1, 72, 127
3, 102899, Note_on_c, 1, 72, 0
3, 102960, Note_on_c, 1, 72, 127
3, 103019, Note_on_c, 1, 72, 0
3, 103080, Note_on_c, 1, 70, 127
3, 103139, Note_on_c, 1, 70, 0
3, 103200, Note_on_c, 1, 69, 127
3, 103259, Note_on_c, 1, 69, 0
3, 103320, Note_on_c, 1, 74, 127
3, 103379, Note_on_c, 1, 74, 0
3, 103440, Note_on_c, 1, 72, 127
3, 103499, Note_on_c, 1, 72, 0
3, 103500, Note_on_c, 1, 69, 127
3, 103559, Note_on_c, 1, 69, 0
3, 103560, Note_on_c, 1, 70, 127
3, 103619, Note_on_c, 1, 70, 0
3, 103620, Note_on_c, 1, 67, 127
3, 103679, Note_on_c, 1, 67, 0
3, 103680, Note_on_c, 1, 69, 127
3, 103739, Note_on_c, 1, 69, 0
3, 103920, Note_on_c, 1, 67, 127
3, 103979, Note_on_c, 1, 67, 0
3, 103980, Note_on_c, 1, 72, 127
3, 104099, Note_on_c, 1, 72, 0
3, 104100, Note_on_c, 1, 71, 127
3, 104159, Note_on_c, 1, 71, 0
3, 104160, Note_on_c, 1, 72, 127
3, 104219, Note_on_c, 1, 72, 0
3, 104220, Note_on_c, 1, 74, 127
3, 104339, Note_on_c, 1, 74, 0
3, 104340, Note_on_c, 1, 76, 127
3, 104459, Note_on_c, 1, 76, 0
3, 104460, Note_on_c, 1, 74, 127
3, 104489, Note_on_c, 1, 74, 0
3, 104490, Note_on_c, 1, 72, 127
3, 104519, Note_on_c, 1, 72, 0
3, 104520, Note_on_c, 1, 76, 127
3, 104549, Note_on_c, 1, 76, 0
3, 104550, Note_on_c, 1, 74, 127
3, 104579, Note_on_c, 1, 74, 0
3, 104580, Note_on_c, 1, 72, 127
3, 104609, Note_on_c, 1, 72, 0
3, 104610, Note_on_c, 1, 71, 127
3, 104639, Note_on_c, 1, 71, 0
3, 104640, Note_on_c, 1, 72, 127
3, 104699, Note_on_c, 1, 72, 0
3, 104880, Note_on_c, 1, 74, 127
3, 104939, Note_on_c, 1, 74, 0
3, 104940, Note_on_c, 1, 74, 127
3, 104999, Note_on_c, 1, 74, 0
3, 105000, Note_on_c, 1, 74, 127
3, 105059, Note_on_c, 1, 74, 0
3, 105060, Note_on_c, 1, 74, 127
3, 105119, Note_on_c, 1, 74, 0
3, 105120, Note_on_c, 1, 74, 127
3, 105179, Note_on_c, 1, 74, 0
3, 105360, Note_on_c, 1, 72, 127
3, 105419, Note_on_c, 1, 72, 0
3, 105420, Note_on_c, 1, 72, 127
3, 105479, Note_on_c, 1, 72, 0
3, 105480, Note_on_c, 1, 72, 127
3, 105539, Note_on_c, 1, 72, 0
3, 105540, Note_on_c, 1, 72, 127
3, 105599, Note_on_c, 1, 72, 0
3, 105600, Note_on_c, 1, 72, 127
3, 105659, Note_on_c, 1, 72, 0
3, 105840, Note_on_c, 1, 72, 127
3, 105899, Note_on_c, 1, 72, 0
3, 105960, Note_on_c, 1, 72, 127
3, 106019, Note_on_c, 1, 72, 0
3, 106080, Note_on_c, 1, 74, 127
3, 106139, Note_on_c, 1, 74, 0
3, 106320, Note_on_c, 1, 74, 127
3, 106379, Note_on_c, 1, 74, 0
3, 106440, Note_on_c, 1, 74, 127
3, 106499, Note_on_c, 1, 74, 0
3, 106560, Note_on_c, 1, 72, 127
3, 106619, Note_on_c, 1, 72, 0
3, 106800, Note_on_c, 1, 72, 127
3, 106859, Note_on_c, 1, 72, 0
3, 106920, Note_on_c, 1, 72, 127
3, 106979, Note_on_c, 1, 72, 0
3, 107040, Note_on_c, 1, 71, 127
3, 107099, Note_on_c, 1, 71, 0
3, 107160, Note_on_c, 1, 71, 127
3, 107219, Note_on_c, 1, 71, 0
3, 107280, Note_on_c, 1, 69, 127
3, 107339, Note_on_c, 1, 69, 0
3, 107400, Note_on_c, 1, 69, 127
3, 107459, Note_on_c, 1, 69, 0
3, 107520, Note_on_c, 1, 67, 127
3, 107579, Note_on_c, 1, 67, 0
3, 107640, Note_on_c, 1, 67, 127
3, 107699, Note_on_c, 1, 67, 0
3, 107760, Note_on_c, 1, 66, 127
3, 107819, Note_on_c, 1, 66, 0
3, 107880, Note_on_c, 1, 65, 127
3, 107939, Note_on_c, 1, 65, 0
3, 108000, Note_on_c, 1, 64, 127
3, 108059, Note_on_c, 1, 64, 0
3, 108240, Note_on_c, 1, 72, 127
3, 108299, Note_on_c, 1, 72, 0
3, 108360, Note_on_c, 1, 71, 127
3, 108419, Note_on_c, 1, 71, 0
3, 108480, Note_on_c, 1, 69, 127
3, 108539, Note_on_c, 1, 69, 0
3, 108600, Note_on_c, 1, 77, 127
3, 108659, Note_on_c, 1, 77, 0
3, 108720, Note_on_c, 1, 74, 127
3, 108779, Note_on_c, 1, 74, 0
3, 108780, Note_on_c, 1, 77, 127
3, 108839, Note_on_c, 1, 77, 0
3, 108840, Note_on_c, 1, 77, 127
3, 108899, Note_on_c, 1, 77, 0
3, 108900, Note_on_c, 1, 76, 127
3, 108959, Note_on_c, 1, 76, 0
3, 108960, Note_on_c, 1, 72, 127
3, 109019, Note_on_c, 1, 72, 0
3, 109080, Note_on_c, 1, 74, 127
3, 109139, Note_on_c, 1, 74, 0
3, 109200, Note_on_c, 1, 76, 127
3, 109259, Note_on_c, 1, 76, 0
3, 109320, Note_on_c, 1, 77, 127
3, 109379, Note_on_c, 1, 77, 0
3, 109440, Note_on_c, 1, 76, 127
3, 109499, Note_on_c, 1, 76, 0
3, 109560, Note_on_c, 1, 74, 127
3, 109619, Note_on_c, 1, 74, 0
3, 109680, Note_on_c, 1, 76, 127
3, 109739, Note_on_c, 1, 76, 0
3, 109800, Note_on_c, 1, 77, 127
3, 109859, Note_on_c, 1, 77, 0
3, 109920, Note_on_c, 1, 76, 127
3, 109979, Note_on_c, 1, 76, 0
3, 109980, Note_on_c, 1, 77, 127
3, 110039, Note_on_c, 1, 77, 0
3, 110040, Note_on_c, 1, 76, 127
3, 110099, Note_on_c, 1, 76, 0
3, 110100, Note_on_c, 1, 74, 127
3, 110159, Note_on_c, 1, 74, 0
3, 110160, Note_on_c, 1, 72, 127
3, 110219, Note_on_c, 1, 72, 0
3, 117120, Note_on_c, 1, 57, 127
3, 117179, Note_on_c, 1, 57, 0
3, 117180, Note_on_c, 1, 62, 127
3, 117299, Note_on_c, 1, 62, 0
3, 117300, Note_on_c, 1, 61, 127
3, 117359, Note_on_c, 1, 61, 0
3, 117360, Note_on_c, 1, 62, 127
3, 117419, Note_on_c, 1, 62, 0
3, 117480, Note_on_c, 1, 64, 127
3, 117539, Note_on_c, 1, 64, 0
3, 117600, Note_on_c, 1, 65, 127
3, 117659, Note_on_c, 1, 65, 0
3, 117660, Note_on_c, 1, 64, 127
3, 117689, Note_on_c, 1, 64, 0
3, 117690, Note_on_c, 1, 62, 127
3, 117719, Note_on_c, 1, 62, 0
3, 117720, Note_on_c, 1, 61, 127
3, 117749, Note_on_c, 1, 61, 0
3, 117750, Note_on_c, 1, 64, 127
3, 117779, Note_on_c, 1, 64, 0
3, 117780, Note_on_c, 1, 62, 127
3, 117809, Note_on_c, 1, 62, 0
3, 117810, Note_on_c, 1, 61, 127
3, 117839, Note_on_c, 1, 61, 0
3, 117840, Note_on_c, 1, 62, 127
3, 117899, Note_on_c, 1, 62, 0
3, 117900, Note_on_c, 1, 69, 127
3, 118019, Note_on_c, 1, 69, 0
3, 118020, Note_on_c, 1, 67, 127
3, 118079, Note_on_c, 1, 67, 0
3, 118080, Note_on_c, 1, 65, 127
3, 118139, Note_on_c, 1, 65, 0
3, 118200, Note_on_c, 1, 64, 127
3, 118259, Note_on_c, 1, 64, 0
3, 118320, Note_on_c, 1, 62, 127
3, 118379, Note_on_c, 1, 62, 0
3, 118380, Note_on_c, 1, 74, 127
3, 118499, Note_on_c, 1, 74, 0
3, 118500, Note_on_c, 1, 72, 127
3, 118559, Note_on_c, 1, 72, 0
3, 118560, Note_on_c, 1, 70, 127
3, 118619, Note_on_c, 1, 70, 0
3, 118680, Note_on_c, 1, 69, 127
3, 118739, Note_on_c, 1, 69, 0
3, 118800, Note_on_c, 1, 74, 127
3, 118859, Note_on_c, 1, 74, 0
3, 118920, Note_on_c, 1, 72, 127
3, 118979, Note_on_c, 1, 72, 0
3, 119040, Note_on_c, 1, 66, 127
3, 119099, Note_on_c, 1, 66, 0
3, 119100, Note_on_c, 1, 67, 127
3, 119159, Note_on_c, 1, 67, 0
3, 119160, Note_on_c, 1, 72, 127
3, 119219, Note_on_c, 1, 72, 0
3, 119220, Note_on_c, 1, 69, 127
3, 119279, Note_on_c, 1, 69, 0
3, 119280, Note_on_c, 1, 70, 127
3, 119339, Note_on_c, 1, 70, 0
3, 119520, Note_on_c, 1, 72, 127
3, 119579, Note_on_c, 1, 72, 0
3, 119640, Note_on_c, 1, 70, 127
3, 119699, Note_on_c, 1, 70, 0
3, 119760, Note_on_c, 1, 69, 127
3, 119819, Note_on_c, 1, 69, 0
3, 119880, Note_on_c, 1, 74, 127
3, 119939, Note_on_c, 1, 74, 0
3, 120000, Note_on_c, 1, 72, 127
3, 120059, Note_on_c, 1, 72, 0
3, 120060, Note_on_c, 1, 74, 127
3, 120119, Note_on_c, 1, 74, 0
3, 120120, Note_on_c, 1, 74, 127
3, 120179, Note_on_c, 1, 74, 0
3, 120180, Note_on_c, 1, 72, 127
3, 120239, Note_on_c, 1, 72, 0
3, 120240, Note_on_c, 1, 72, 127
3, 120299, Note_on_c, 1, 72, 0
3, 120480, Note_on_c, 1, 67, 127
3, 120539, Note_on_c, 1, 67, 0
3, 120540, Note_on_c, 1, 67, 127
3, 120599, Note_on_c, 1, 67, 0
3, 120600, Note_on_c, 1, 67, 127
3, 120659, Note_on_c, 1, 67, 0
3, 120660, Note_on_c, 1, 67, 127
3, 120719, Note_on_c, 1, 67, 0
3, 120720, Note_on_c, 1, 67, 127
3, 120779, Note_on_c, 1, 67, 0
3, 120960, Note_on_c, 1, 65, 127
3, 121019, Note_on_c, 1, 65, 0
3, 121020, Note_on_c, 1, 65, 127
3, 121079, Note_on_c, 1, 65, 0
3, 121080, Note_on_c, 1, 65, 127
3, 121139, Note_on_c, 1, 65, 0
3, 121140, Note_on_c, 1, 65, 127
3, 121199, Note_on_c, 1, 65, 0
3, 121200, Note_on_c, 1, 65, 127
3, 121259, Note_on_c, 1, 65, 0
3, 121440, Note_on_c, 1, 65, 127
3, 121499, Note_on_c, 1, 65, 0
3, 121560, Note_on_c, 1, 65, 127
3, 121619, Note_on_c, 1, 65, 0
3, 121680, Note_on_c, 1, 67, 127
3, 121739, Note_on_c, 1, 67, 0
3, 121920, Note_on_c, 1, 67, 127
3, 121979, Note_on_c, 1, 67, 0
3, 122040, Note_on_c, 1, 67, 127
3, 122099, Note_on_c, 1, 67, 0
3, 122160, Note_on_c, 1, 65, 127
3, 122219, Note_on_c, 1, 65, 0
3, 122400, Note_on_c, 1, 65, 127
3, 122459, Note_on_c, 1, 65, 0
3, 122520, Note_on_c, 1, 65, 127
3, 122579, Note_on_c, 1, 65, 0
3, 122640, Note_on_c, 1, 64, 127
3, 122699, Note_on_c, 1, 64, 0
3, 122760, Note_on_c, 1, 64, 127
3, 122819, Note_on_c, 1, 64, 0
3, 122880, Note_on_c, 1, 62, 127
3, 122939, Note_on_c, 1, 62, 0
3, 123000, Note_on_c, 1, 62, 127
3, 123059, Note_on_c, 1, 62, 0
3, 123120, Note_on_c, 1, 60, 127
3, 123179, Note_on_c, 1, 60, 0
3, 123240, Note_on_c, 1, 60, 127
3, 123299, Note_on_c, 1, 60, 0
3, 123360, Note_on_c, 1, 59, 127
3, 123419, Note_on_c, 1, 59, 0
3, 123480, Note_on_c, 1, 58, 127
3, 123539, Note_on_c, 1, 58, 0
3, 123600, Note_on_c, 1, 57, 127
3, 123659, Note_on_c, 1, 57, 0
3, 123840, Note_on_c, 1, 62, 127
3, 123899, Note_on_c, 1, 62, 0
3, 123960, Note_on_c, 1, 58, 127
3, 124019, Note_on_c, 1, 58, 0
3, 124080, Note_on_c, 1, 57, 127
3, 124139, Note_on_c, 1, 57, 0
3, 124200, Note_on_c, 1, 67, 127
3, 124259, Note_on_c, 1, 67, 0
3, 124320, Note_on_c, 1, 65, 127
3, 124379, Note_on_c, 1, 65, 0
3, 124380, Note_on_c, 1, 70, 127
3, 124499, Note_on_c, 1, 70, 0
3, 124500, Note_on_c, 1, 69, 127
3, 124559, Note_on_c, 1, 69, 0
3, 124560, Note_on_c, 1, 69, 127
3, 124619, Note_on_c, 1, 69, 0
3, 124680, Note_on_c, 1, 69, 127
3, 124739, Note_on_c, 1, 69, 0
3, 124800, Note_on_c, 1, 70, 127
3, 124859, Note_on_c, 1, 70, 0
3, 125040, Note_on_c, 1, 74, 127
3, 125099, Note_on_c, 1, 74, 0
3, 125160, Note_on_c, 1, 74, 127
3, 125219, Note_on_c, 1, 74, 0
3, 125280, Note_on_c, 1, 76, 127
3, 125339, Note_on_c, 1, 76, 0
3, 125520, Note_on_c, 1, 67, 127
3, 125579, Note_on_c, 1, 67, 0
3, 125640, Note_on_c, 1, 67, 127
3, 125699, Note_on_c, 1, 67, 0
3, 125760, Note_on_c, 1, 69, 127
3, 125819, Note_on_c, 1, 69, 0
3, 126000, Note_on_c, 1, 72, 127
3, 126059, Note_on_c, 1, 72, 0
3, 126120, Note_on_c, 1, 72, 127
3, 126179, Note_on_c, 1, 72, 0
3, 126240, Note_on_c, 1, 74, 127
3, 126299, Note_on_c, 1, 74, 0
3, 126480, Note_on_c, 1, 65, 127
3, 126539, Note_on_c, 1, 65, 0
3, 126600, Note_on_c, 1, 65, 127
3, 126659, Note_on_c, 1, 65, 0
3, 126720, Note_on_c, 1, 67, 127
3, 126779, Note_on_c, 1, 67, 0
3, 126960, Note_on_c, 1, 70, 127
3, 127019, Note_on_c, 1, 70, 0
3, 127080, Note_on_c, 1, 65, 127
3, 127139, Note_on_c, 1, 65, 0
3, 127200, Note_on_c, 1, 69, 127
3, 127259, Note_on_c, 1, 69, 0
3, 127440, Note_on_c, 1, 69, 127
3, 127499, Note_on_c, 1, 69, 0
3, 127560, Note_on_c, 1, 64, 127
3, 127619, Note_on_c, 1, 64, 0
3, 127680, Note_on_c, 1, 65, 127
3, 127739, Note_on_c, 1, 65, 0
3, 127920, Note_on_c, 1, 65, 127
3, 127979, Note_on_c, 1, 65, 0
3, 128040, Note_on_c, 1, 64, 127
3, 128099, Note_on_c, 1, 64, 0
3, 128160, Note_on_c, 1, 69, 127
3, 128219, Note_on_c, 1, 69, 0
3, 128280, Note_on_c, 1, 67, 127
3, 128339, Note_on_c, 1, 67, 0
3, 128400, Note_on_c, 1, 61, 127
3, 128459, Note_on_c, 1, 61, 0
3, 128460, Note_on_c, 1, 62, 127
3, 128519, Note_on_c, 1, 62, 0
3, 128520, Note_on_c, 1, 70, 127
3, 128579, Note_on_c, 1, 70, 0
3, 128580, Note_on_c, 1, 69, 127
3, 128639, Note_on_c, 1, 69, 0
3, 128640, Note_on_c, 1, 65, 127
3, 128699, Note_on_c, 1, 65, 0
3, 128760, Note_on_c, 1, 74, 127
3, 128819, Note_on_c, 1, 74, 0
3, 128880, Note_on_c, 1, 72, 127
3, 128939, Note_on_c, 1, 72, 0
3, 129000, Note_on_c, 1, 76, 127
3, 129059, Note_on_c, 1, 76, 0
3, 129120, Note_on_c, 1, 74, 127
3, 129179, Note_on_c, 1, 74, 0
3, 129180, Note_on_c, 1, 65, 127
3, 129239, Note_on_c, 1, 65, 0
3, 129240, Note_on_c, 1, 67, 127
3, 129299, Note_on_c, 1, 67, 0
3, 129300, Note_on_c, 1, 64, 127
3, 129359, Note_on_c, 1, 64, 0
3, 129360, Note_on_c, 1, 65, 127
3, 129419, Note_on_c, 1, 65, 0
3, 129480, Note_on_c, 1, 58, 127
3, 129539, Note_on_c, 1, 58, 0
3, 129600, Note_on_c, 1, 62, 127
3, 129659, Note_on_c, 1, 62, 0
3, 129720, Note_on_c, 1, 64, 127
3, 129779, Note_on_c, 1, 64, 0
3, 129840, Note_on_c, 1, 69, 127
3, 129899, Note_on_c, 1, 69, 0
3, 129960, Note_on_c, 1, 67, 127
3, 130019, Note_on_c, 1, 67, 0
3, 130080, Note_on_c, 1, 69, 127
3, 130139, Note_on_c, 1, 69, 0
3, 130200, Note_on_c, 1, 70, 127
3, 130259, Note_on_c, 1, 70, 0
3, 130320, Note_on_c, 1, 69, 127
3, 130379, Note_on_c, 1, 69, 0
3, 130380, Note_on_c, 1, 70, 127
3, 130439, Note_on_c, 1, 70, 0
3, 130440, Note_on_c, 1, 69, 127
3, 130499, Note_on_c, 1, 69, 0
3, 130500, Note_on_c, 1, 69, 127
3, 130559, Note_on_c, 1, 69, 0
3, 130560, Note_on_c, 1, 69, 127
3, 130799, Note_on_c, 1, 69, 0
3, 130799, End_track
4, 0, Start_track
4, 0, MIDI_port, 0
4, 0, Title_t, "viola"
4, 0, Program_c, 2, 48
4, 60, Note_on_c, 2, 62, 66
4, 120, Note_on_c, 2, 62, 0
4, 120, Note_on_c, 2, 64, 66
4, 180, Note_on_c, 2, 64, 0
4, 180, Note_on_c, 2, 65, 66
4, 240, Note_on_c, 2, 65, 0
4, 240, Note_on_c, 2, 65, 66
4, 300, Note_on_c, 2, 65, 0
4, 300, Note_on_c, 2, 67, 66
4, 360, Note_on_c, 2, 67, 0
4, 360, Note_on_c, 2, 69, 66
4, 420, Note_on_c, 2, 69, 0
4, 420, Note_on_c, 2, 69, 66
4, 480, Note_on_c, 2, 69, 0
4, 480, Note_on_c, 2, 70, 66
4, 540, Note_on_c, 2, 70, 0
4, 540, Note_on_c, 2, 69, 66
4, 600, Note_on_c, 2, 69, 0
4, 600, Note_on_c, 2, 67, 66
4, 630, Note_on_c, 2, 67, 0
4, 630, Note_on_c, 2, 65, 66
4, 660, Note_on_c, 2, 65, 0
4, 660, Note_on_c, 2, 64, 66
4, 690, Note_on_c, 2, 64, 0
4, 690, Note_on_c, 2, 62, 66
4, 720, Note_on_c, 2, 62, 0
4, 720, Note_on_c, 2, 61, 66
4, 780, Note_on_c, 2, 61, 0
4, 780, Note_on_c, 2, 57, 66
4, 810, Note_on_c, 2, 57, 0
4, 810, Note_on_c, 2, 59, 66
4, 840, Note_on_c, 2, 59, 0
4, 840, Note_on_c, 2, 61, 66
4, 870, Note_on_c, 2, 61, 0
4, 870, Note_on_c, 2, 62, 66
4, 900, Note_on_c, 2, 62, 0
4, 900, Note_on_c, 2, 64, 66
4, 960, Note_on_c, 2, 64, 0
4, 960, Note_on_c, 2, 64, 66
4, 1020, Note_on_c, 2, 64, 0
4, 1020, Note_on_c, 2, 65, 66
4, 1080, Note_on_c, 2, 65, 0
4, 1080, Note_on_c, 2, 64, 66
4, 1140, Note_on_c, 2, 64, 0
4, 1140, Note_on_c, 2, 57, 66
4, 1170, Note_on_c, 2, 57, 0
4, 1170, Note_on_c, 2, 59, 66
4, 1200, Note_on_c, 2, 59, 0
4, 1200, Note_on_c, 2, 61, 66
4, 1230, Note_on_c, 2, 61, 0
4, 1230, Note_on_c, 2, 62, 66
4, 1260, Note_on_c, 2, 62, 0
4, 1260, Note_on_c, 2, 64, 66
4, 1320, Note_on_c, 2, 64, 0
4, 1320, Note_on_c, 2, 64, 66
4, 1380, Note_on_c, 2, 64, 0
4, 1380, Note_on_c, 2, 65, 66
4, 1440, Note_on_c, 2, 65, 0
4, 1440, Note_on_c, 2, 64, 66
4, 1500, Note_on_c, 2, 64, 0
4, 1500, Note_on_c, 2, 57, 66
4, 1530, Note_on_c, 2, 57, 0
4, 1530, Note_on_c, 2, 59, 66
4, 1560, Note_on_c, 2, 59, 0
4, 1560, Note_on_c, 2, 61, 66
4, 1590, Note_on_c, 2, 61, 0
4, 1590, Note_on_c, 2, 62, 66
4, 1620, Note_on_c, 2, 62, 0
4, 1620, Note_on_c, 2, 64, 66
4, 1650, Note_on_c, 2, 64, 0
4, 1650, Note_on_c, 2, 62, 66
4, 1680, Note_on_c, 2, 62, 0
4, 1680, Note_on_c, 2, 61, 66
4, 1710, Note_on_c, 2, 61, 0
4, 1710, Note_on_c, 2, 62, 66
4, 1740, Note_on_c, 2, 62, 0
4, 1740, Note_on_c, 2, 64, 66
4, 1770, Note_on_c, 2, 64, 0
4, 1770, Note_on_c, 2, 65, 66
4, 1800, Note_on_c, 2, 65, 0
4, 1800, Note_on_c, 2, 67, 66
4, 1830, Note_on_c, 2, 67, 0
4, 1830, Note_on_c, 2, 65, 66
4, 1860, Note_on_c, 2, 65, 0
4, 1860, Note_on_c, 2, 64, 66
4, 1890, Note_on_c, 2, 64, 0
4, 1890, Note_on_c, 2, 65, 66
4, 1920, Note_on_c, 2, 65, 0
4, 1920, Note_on_c, 2, 67, 66
4, 1950, Note_on_c, 2, 67, 0
4, 1950, Note_on_c, 2, 69, 66
4, 1980, Note_on_c, 2, 69, 0
4, 1980, Note_on_c, 2, 70, 66
4, 2010, Note_on_c, 2, 70, 0
4, 2010, Note_on_c, 2, 69, 66
4, 2040, Note_on_c, 2, 69, 0
4, 2040, Note_on_c, 2, 67, 66
4, 2070, Note_on_c, 2, 67, 0
4, 2070, Note_on_c, 2, 65, 66
4, 2100, Note_on_c, 2, 65, 0
4, 2100, Note_on_c, 2, 64, 66
4, 2130, Note_on_c, 2, 64, 0
4, 2130, Note_on_c, 2, 62, 66
4, 2160, Note_on_c, 2, 62, 0
4, 2160, Note_on_c, 2, 61, 66
4, 2190, Note_on_c, 2, 61, 0
4, 2190, Note_on_c, 2, 64, 66
4, 2220, Note_on_c, 2, 64, 0
4, 2220, Note_on_c, 2, 57, 66
4, 2250, Note_on_c, 2, 57, 0
4, 2250, Note_on_c, 2, 61, 66
4, 2280, Note_on_c, 2, 61, 0
4, 2280, Note_on_c, 2, 62, 66
4, 2340, Note_on_c, 2, 62, 0
4, 2370, Note_on_c, 2, 55, 66
4, 2400, Note_on_c, 2, 55, 0
4, 2400, Note_on_c, 2, 57, 66
4, 2460, Note_on_c, 2, 57, 0
4, 2460, Note_on_c, 2, 57, 66
4, 2520, Note_on_c, 2, 57, 0
4, 2520, Note_on_c, 2, 62, 66
4, 2580, Note_on_c, 2, 62, 0
4, 2760, Note_on_c, 2, 69, 66
4, 2820, Note_on_c, 2, 69, 0
4, 2820, Note_on_c, 2, 64, 66
4, 2880, Note_on_c, 2, 64, 0
4, 2880, Note_on_c, 2, 62, 66
4, 2940, Note_on_c, 2, 62, 0
4, 2940, Note_on_c, 2, 74, 66
4, 3000, Note_on_c, 2, 74, 0
4, 3000, Note_on_c, 2, 62, 66
4, 3060, Note_on_c, 2, 62, 0
4, 3060, Note_on_c, 2, 61, 66
4, 3120, Note_on_c, 2, 61, 0
4, 3120, Note_on_c, 2, 61, 66
4, 3180, Note_on_c, 2, 61, 0
4, 3180, Note_on_c, 2, 62, 66
4, 3240, Note_on_c, 2, 62, 0
4, 3240, Note_on_c, 2, 64, 66
4, 3300, Note_on_c, 2, 64, 0
4, 3300, Note_on_c, 2, 64, 66
4, 3360, Note_on_c, 2, 64, 0
4, 3360, Note_on_c, 2, 64, 66
4, 3420, Note_on_c, 2, 64, 0
4, 3420, Note_on_c, 2, 64, 66
4, 3480, Note_on_c, 2, 64, 0
4, 3480, Note_on_c, 2, 69, 66
4, 3540, Note_on_c, 2, 69, 0
4, 3540, Note_on_c, 2, 69, 66
4, 3600, Note_on_c, 2, 69, 0
4, 3600, Note_on_c, 2, 76, 66
4, 3660, Note_on_c, 2, 76, 0
4, 3660, Note_on_c, 2, 57, 66
4, 3690, Note_on_c, 2, 57, 0
4, 3690, Note_on_c, 2, 59, 66
4, 3720, Note_on_c, 2, 59, 0
4, 3720, Note_on_c, 2, 61, 66
4, 3750, Note_on_c, 2, 61, 0
4, 3750, Note_on_c, 2, 62, 66
4, 3780, Note_on_c, 2, 62, 0
4, 3780, Note_on_c, 2, 64, 66
4, 3840, Note_on_c, 2, 64, 0
4, 3840, Note_on_c, 2, 64, 66
4, 3900, Note_on_c, 2, 64, 0
4, 3900, Note_on_c, 2, 65, 66
4, 3960, Note_on_c, 2, 65, 0
4, 3960, Note_on_c, 2, 64, 66
4, 4020, Note_on_c, 2, 64, 0
4, 4200, Note_on_c, 2, 64, 66
4, 4260, Note_on_c, 2, 64, 0
4, 4260, Note_on_c, 2, 71, 66
4, 4320, Note_on_c, 2, 71, 0
4, 4320, Note_on_c, 2, 69, 66
4, 4380, Note_on_c, 2, 69, 0
4, 4380, Note_on_c, 2, 69, 66
4, 4440, Note_on_c, 2, 69, 0
4, 4440, Note_on_c, 2, 69, 66
4, 4500, Note_on_c, 2, 69, 0
4, 4500, Note_on_c, 2, 68, 66
4, 4560, Note_on_c, 2, 68, 0
4, 4560, Note_on_c, 2, 68, 66
4, 4620, Note_on_c, 2, 68, 0
4, 4620, Note_on_c, 2, 69, 66
4, 4680, Note_on_c, 2, 69, 0
4, 4680, Note_on_c, 2, 71, 66
4, 4740, Note_on_c, 2, 71, 0
4, 4740, Note_on_c, 2, 71, 66
4, 4800, Note_on_c, 2, 71, 0
4, 4800, Note_on_c, 2, 71, 66
4, 4860, Note_on_c, 2, 71, 0
4, 4860, Note_on_c, 2, 64, 66
4, 4920, Note_on_c, 2, 64, 0
4, 4920, Note_on_c, 2, 64, 66
4, 4980, Note_on_c, 2, 64, 0
4, 4980, Note_on_c, 2, 64, 66
4, 5040, Note_on_c, 2, 64, 0
4, 5040, Note_on_c, 2, 64, 66
4, 5100, Note_on_c, 2, 64, 0
4, 5100, Note_on_c, 2, 59, 66
4, 5160, Note_on_c, 2, 59, 0
4, 5220, Note_on_c, 2, 60, 66
4, 5280, Note_on_c, 2, 60, 0
4, 5280, Note_on_c, 2, 57, 66
4, 5340, Note_on_c, 2, 57, 0
4, 5400, Note_on_c, 2, 65, 56
4, 5459, Note_on_c, 2, 65, 0
4, 5460, Note_on_c, 2, 69, 56
4, 5519, Note_on_c, 2, 69, 0
4, 5580, Note_on_c, 2, 58, 56
4, 5639, Note_on_c, 2, 58, 0
4, 5640, Note_on_c, 2, 55, 56
4, 5699, Note_on_c, 2, 55, 0
4, 5760, Note_on_c, 2, 64, 56
4, 5819, Note_on_c, 2, 64, 0
4, 5820, Note_on_c, 2, 67, 56
4, 5879, Note_on_c, 2, 67, 0
4, 5940, Note_on_c, 2, 65, 56
4, 5999, Note_on_c, 2, 65, 0
4, 6000, Note_on_c, 2, 65, 56
4, 6059, Note_on_c, 2, 65, 0
4, 6060, Note_on_c, 2, 65, 56
4, 6119, Note_on_c, 2, 65, 0
4, 6120, Note_on_c, 2, 59, 56
4, 6179, Note_on_c, 2, 59, 0
4, 6180, Note_on_c, 2, 68, 56
4, 6239, Note_on_c, 2, 68, 0
4, 6240, Note_on_c, 2, 71, 56
4, 6299, Note_on_c, 2, 71, 0
4, 6300, Note_on_c, 2, 74, 56
4, 6359, Note_on_c, 2, 74, 0
4, 6360, Note_on_c, 2, 68, 56
4, 6419, Note_on_c, 2, 68, 0
4, 6420, Note_on_c, 2, 64, 56
4, 6479, Note_on_c, 2, 64, 0
4, 6480, Note_on_c, 2, 68, 56
4, 6539, Note_on_c, 2, 68, 0
4, 6720, Note_on_c, 2, 74, 56
4, 6779, Note_on_c, 2, 74, 0
4, 6780, Note_on_c, 2, 74, 56
4, 6839, Note_on_c, 2, 74, 0
4, 6840, Note_on_c, 2, 68, 56
4, 6899, Note_on_c, 2, 68, 0
4, 6900, Note_on_c, 2, 71, 56
4, 6959, Note_on_c, 2, 71, 0
4, 6960, Note_on_c, 2, 71, 56
4, 7019, Note_on_c, 2, 71, 0
4, 7020, Note_on_c, 2, 62, 56
4, 7079, Note_on_c, 2, 62, 0
4, 7080, Note_on_c, 2, 65, 56
4, 7139, Note_on_c, 2, 65, 0
4, 7140, Note_on_c, 2, 65, 56
4, 7199, Note_on_c, 2, 65, 0
4, 7200, Note_on_c, 2, 59, 56
4, 7259, Note_on_c, 2, 59, 0
4, 7260, Note_on_c, 2, 68, 56
4, 7319, Note_on_c, 2, 68, 0
4, 7320, Note_on_c, 2, 64, 56
4, 7379, Note_on_c, 2, 64, 0
4, 7410, Note_on_c, 2, 65, 56
4, 7439, Note_on_c, 2, 65, 0
4, 7440, Note_on_c, 2, 64, 56
4, 7499, Note_on_c, 2, 64, 0
4, 7500, Note_on_c, 2, 62, 56
4, 7559, Note_on_c, 2, 62, 0
4, 7560, Note_on_c, 2, 60, 56
4, 7619, Note_on_c, 2, 60, 0
4, 7740, Note_on_c, 2, 57, 56
4, 7799, Note_on_c, 2, 57, 0
4, 7920, Note_on_c, 2, 52, 56
4, 7979, Note_on_c, 2, 52, 0
4, 8160, Note_on_c, 2, 65, 56
4, 8219, Note_on_c, 2, 65, 0
4, 8220, Note_on_c, 2, 67, 56
4, 8279, Note_on_c, 2, 67, 0
4, 8280, Note_on_c, 2, 69, 56
4, 8339, Note_on_c, 2, 69, 0
4, 8460, Note_on_c, 2, 65, 56
4, 8519, Note_on_c, 2, 65, 0
4, 8640, Note_on_c, 2, 62, 56
4, 8699, Note_on_c, 2, 62, 0
4, 8880, Note_on_c, 2, 70, 56
4, 8939, Note_on_c, 2, 70, 0
4, 8940, Note_on_c, 2, 72, 56
4, 8999, Note_on_c, 2, 72, 0
4, 9000, Note_on_c, 2, 74, 56
4, 9059, Note_on_c, 2, 74, 0
4, 9180, Note_on_c, 2, 72, 56
4, 9239, Note_on_c, 2, 72, 0
4, 9360, Note_on_c, 2, 72, 56
4, 9419, Note_on_c, 2, 72, 0
4, 9540, Note_on_c, 2, 70, 56
4, 9599, Note_on_c, 2, 70, 0
4, 9720, Note_on_c, 2, 70, 56
4, 9779, Note_on_c, 2, 70, 0
4, 9900, Note_on_c, 2, 69, 56
4, 9959, Note_on_c, 2, 69, 0
4, 10080, Note_on_c, 2, 69, 56
4, 10139, Note_on_c, 2, 69, 0
4, 10140, Note_on_c, 2, 62, 56
4, 10199, Note_on_c, 2, 62, 0
4, 10200, Note_on_c, 2, 64, 56
4, 10259, Note_on_c, 2, 64, 0
4, 10260, Note_on_c, 2, 65, 56
4, 10319, Note_on_c, 2, 65, 0
4, 10320, Note_on_c, 2, 65, 56
4, 10379, Note_on_c, 2, 65, 0
4, 10380, Note_on_c, 2, 67, 56
4, 10439, Note_on_c, 2, 67, 0
4, 10440, Note_on_c, 2, 69, 56
4, 10499, Note_on_c, 2, 69, 0
4, 10500, Note_on_c, 2, 69, 56
4, 10559, Note_on_c, 2, 69, 0
4, 10560, Note_on_c, 2, 70, 56
4, 10619, Note_on_c, 2, 70, 0
4, 10620, Note_on_c, 2, 69, 56
4, 10679, Note_on_c, 2, 69, 0
4, 10680, Note_on_c, 2, 67, 56
4, 10709, Note_on_c, 2, 67, 0
4, 10710, Note_on_c, 2, 65, 56
4, 10739, Note_on_c, 2, 65, 0
4, 10740, Note_on_c, 2, 64, 56
4, 10769, Note_on_c, 2, 64, 0
4, 10770, Note_on_c, 2, 62, 56
4, 10799, Note_on_c, 2, 62, 0
4, 10800, Note_on_c, 2, 61, 56
4, 10829, Note_on_c, 2, 61, 0
4, 10830, Note_on_c, 2, 59, 56
4, 10859, Note_on_c, 2, 59, 0
4, 10860, Note_on_c, 2, 57, 56
4, 10889, Note_on_c, 2, 57, 0
4, 10890, Note_on_c, 2, 59, 56
4, 10919, Note_on_c, 2, 59, 0
4, 10920, Note_on_c, 2, 61, 56
4, 10949, Note_on_c, 2, 61, 0
4, 10950, Note_on_c, 2, 62, 56
4, 10979, Note_on_c, 2, 62, 0
4, 10980, Note_on_c, 2, 64, 56
4, 11039, Note_on_c, 2, 64, 0
4, 11040, Note_on_c, 2, 64, 56
4, 11099, Note_on_c, 2, 64, 0
4, 11100, Note_on_c, 2, 65, 56
4, 11159, Note_on_c, 2, 65, 0
4, 11160, Note_on_c, 2, 64, 56
4, 11219, Note_on_c, 2, 64, 0
4, 11220, Note_on_c, 2, 64, 56
4, 11279, Note_on_c, 2, 64, 0
4, 11280, Note_on_c, 2, 69, 56
4, 11339, Note_on_c, 2, 69, 0
4, 11340, Note_on_c, 2, 73, 56
4, 11399, Note_on_c, 2, 73, 0
4, 11400, Note_on_c, 2, 64, 56
4, 11459, Note_on_c, 2, 64, 0
4, 11460, Note_on_c, 2, 69, 56
4, 11519, Note_on_c, 2, 69, 0
4, 11520, Note_on_c, 2, 73, 56
4, 11579, Note_on_c, 2, 73, 0
4, 11700, Note_on_c, 2, 69, 56
4, 11759, Note_on_c, 2, 69, 0
4, 11880, Note_on_c, 2, 64, 56
4, 11939, Note_on_c, 2, 64, 0
4, 12060, Note_on_c, 2, 67, 56
4, 12119, Note_on_c, 2, 67, 0
4, 12240, Note_on_c, 2, 69, 56
4, 12329, Note_on_c, 2, 69, 0
4, 12330, Note_on_c, 2, 64, 56
4, 12359, Note_on_c, 2, 64, 0
4, 12360, Note_on_c, 2, 65, 56
4, 12419, Note_on_c, 2, 65, 0
4, 12450, Note_on_c, 2, 70, 56
4, 12479, Note_on_c, 2, 70, 0
4, 12480, Note_on_c, 2, 69, 56
4, 12539, Note_on_c, 2, 69, 0
4, 12540, Note_on_c, 2, 69, 56
4, 12599, Note_on_c, 2, 69, 0
4, 12600, Note_on_c, 2, 72, 56
4, 12779, Note_on_c, 2, 72, 0
4, 12780, Note_on_c, 2, 70, 56
4, 12959, Note_on_c, 2, 70, 0
4, 12960, Note_on_c, 2, 71, 56
4, 13139, Note_on_c, 2, 71, 0
4, 13140, Note_on_c, 2, 69, 56
4, 13319, Note_on_c, 2, 69, 0
4, 13320, Note_on_c, 2, 67, 56
4, 13499, Note_on_c, 2, 67, 0
4, 13500, Note_on_c, 2, 65, 56
4, 13679, Note_on_c, 2, 65, 0
4, 13680, Note_on_c, 2, 64, 56
4, 13739, Note_on_c, 2, 64, 0
4, 13830, Note_on_c, 2, 62, 56
4, 13859, Note_on_c, 2, 62, 0
4, 13860, Note_on_c, 2, 65, 56
4, 13889, Note_on_c, 2, 65, 0
4, 13890, Note_on_c, 2, 70, 56
4, 13919, Note_on_c, 2, 70, 0
4, 13920, Note_on_c, 2, 69, 56
4, 13979, Note_on_c, 2, 69, 0
4, 13980, Note_on_c, 2, 67, 56
4, 14039, Note_on_c, 2, 67, 0
4, 14040, Note_on_c, 2, 65, 56
4, 14099, Note_on_c, 2, 65, 0
4, 14100, Note_on_c, 2, 62, 56
4, 14159, Note_on_c, 2, 62, 0
4, 14160, Note_on_c, 2, 57, 56
4, 14219, Note_on_c, 2, 57, 0
4, 14220, Note_on_c, 2, 61, 56
4, 14279, Note_on_c, 2, 61, 0
4, 14400, Note_on_c, 2, 62, 56
4, 14459, Note_on_c, 2, 62, 0
4, 14460, Note_on_c, 2, 65, 56
4, 14519, Note_on_c, 2, 65, 0
4, 14520, Note_on_c, 2, 69, 56
4, 14579, Note_on_c, 2, 69, 0
4, 14580, Note_on_c, 2, 74, 56
4, 14639, Note_on_c, 2, 74, 0
4, 14760, Note_on_c, 2, 60, 56
4, 14819, Note_on_c, 2, 60, 0
4, 14820, Note_on_c, 2, 64, 56
4, 14879, Note_on_c, 2, 64, 0
4, 14880, Note_on_c, 2, 69, 56
4, 14939, Note_on_c, 2, 69, 0
4, 14940, Note_on_c, 2, 72, 56
4, 14999, Note_on_c, 2, 72, 0
4, 15120, Note_on_c, 2, 71, 56
4, 15179, Note_on_c, 2, 71, 0
4, 15180, Note_on_c, 2, 68, 56
4, 15239, Note_on_c, 2, 68, 0
4, 15300, Note_on_c, 2, 69, 56
4, 15359, Note_on_c, 2, 69, 0
4, 15360, Note_on_c, 2, 72, 56
4, 15419, Note_on_c, 2, 72, 0
4, 15480, Note_on_c, 2, 71, 56
4, 15539, Note_on_c, 2, 71, 0
4, 15540, Note_on_c, 2, 64, 56
4, 15599, Note_on_c, 2, 64, 0
4, 15660, Note_on_c, 2, 64, 56
4, 15719, Note_on_c, 2, 64, 0
4, 15720, Note_on_c, 2, 65, 56
4, 15779, Note_on_c, 2, 65, 0
4, 15780, Note_on_c, 2, 64, 56
4, 15839, Note_on_c, 2, 64, 0
4, 15840, Note_on_c, 2, 64, 56
4, 15899, Note_on_c, 2, 64, 0
4, 15900, Note_on_c, 2, 61, 56
4, 15959, Note_on_c, 2, 61, 0
4, 16020, Note_on_c, 2, 62, 56
4, 16079, Note_on_c, 2, 62, 0
4, 16080, Note_on_c, 2, 65, 56
4, 16139, Note_on_c, 2, 65, 0
4, 16200, Note_on_c, 2, 64, 56
4, 16259, Note_on_c, 2, 64, 0
4, 16260, Note_on_c, 2, 57, 56
4, 16319, Note_on_c, 2, 57, 0
4, 16380, Note_on_c, 2, 57, 56
4, 16439, Note_on_c, 2, 57, 0
4, 16440, Note_on_c, 2, 58, 56
4, 16499, Note_on_c, 2, 58, 0
4, 16500, Note_on_c, 2, 57, 56
4, 16559, Note_on_c, 2, 57, 0
4, 16560, Note_on_c, 2, 57, 56
4, 16619, Note_on_c, 2, 57, 0
4, 16620, Note_on_c, 2, 69, 56
4, 16679, Note_on_c, 2, 69, 0
4, 16740, Note_on_c, 2, 67, 56
4, 16799, Note_on_c, 2, 67, 0
4, 16800, Note_on_c, 2, 62, 56
4, 16859, Note_on_c, 2, 62, 0
4, 16920, Note_on_c, 2, 60, 56
4, 16979, Note_on_c, 2, 60, 0
4, 16980, Note_on_c, 2, 67, 56
4, 17039, Note_on_c, 2, 67, 0
4, 17040, Note_on_c, 2, 63, 56
4, 17099, Note_on_c, 2, 63, 0
4, 17100, Note_on_c, 2, 57, 56
4, 17159, Note_on_c, 2, 57, 0
4, 17160, Note_on_c, 2, 66, 56
4, 17219, Note_on_c, 2, 66, 0
4, 17280, Note_on_c, 2, 67, 56
4, 17339, Note_on_c, 2, 67, 0
4, 17340, Note_on_c, 2, 70, 56
4, 17399, Note_on_c, 2, 70, 0
4, 17460, Note_on_c, 2, 57, 56
4, 17519, Note_on_c, 2, 57, 0
4, 17520, Note_on_c, 2, 62, 56
4, 17579, Note_on_c, 2, 62, 0
4, 17640, Note_on_c, 2, 62, 56
4, 17699, Note_on_c, 2, 62, 0
4, 17700, Note_on_c, 2, 63, 56
4, 17759, Note_on_c, 2, 63, 0
4, 17760, Note_on_c, 2, 62, 56
4, 17819, Note_on_c, 2, 62, 0
4, 17820, Note_on_c, 2, 62, 56
4, 17879, Note_on_c, 2, 62, 0
4, 17880, Note_on_c, 2, 60, 56
4, 17939, Note_on_c, 2, 60, 0
4, 18000, Note_on_c, 2, 60, 56
4, 18059, Note_on_c, 2, 60, 0
4, 18060, Note_on_c, 2, 58, 56
4, 18119, Note_on_c, 2, 58, 0
4, 18180, Note_on_c, 2, 58, 56
4, 18239, Note_on_c, 2, 58, 0
4, 18240, Note_on_c, 2, 57, 56
4, 18299, Note_on_c, 2, 57, 0
4, 18360, Note_on_c, 2, 57, 56
4, 18419, Note_on_c, 2, 57, 0
4, 18420, Note_on_c, 2, 55, 56
4, 18479, Note_on_c, 2, 55, 0
4, 18540, Note_on_c, 2, 60, 56
4, 18599, Note_on_c, 2, 60, 0
4, 18600, Note_on_c, 2, 55, 56
4, 18659, Note_on_c, 2, 55, 0
4, 18720, Note_on_c, 2, 60, 56
4, 18779, Note_on_c, 2, 60, 0
4, 18780, Note_on_c, 2, 60, 56
4, 18839, Note_on_c, 2, 60, 0
4, 18840, Note_on_c, 2, 60, 56
4, 18899, Note_on_c, 2, 60, 0
4, 18900, Note_on_c, 2, 60, 56
4, 18959, Note_on_c, 2, 60, 0
4, 18960, Note_on_c, 2, 60, 56
4, 19019, Note_on_c, 2, 60, 0
4, 19680, Note_on_c, 2, 65, 56
4, 19739, Note_on_c, 2, 65, 0
4, 19740, Note_on_c, 2, 64, 56
4, 19799, Note_on_c, 2, 64, 0
4, 19800, Note_on_c, 2, 65, 56
4, 19859, Note_on_c, 2, 65, 0
4, 19860, Note_on_c, 2, 69, 56
4, 19919, Note_on_c, 2, 69, 0
4, 19920, Note_on_c, 2, 62, 56
4, 19979, Note_on_c, 2, 62, 0
4, 19980, Note_on_c, 2, 64, 56
4, 20039, Note_on_c, 2, 64, 0
4, 20040, Note_on_c, 2, 64, 56
4, 20099, Note_on_c, 2, 64, 0
4, 20100, Note_on_c, 2, 62, 56
4, 20159, Note_on_c, 2, 62, 0
4, 20160, Note_on_c, 2, 55, 56
4, 20219, Note_on_c, 2, 55, 0
4, 20220, Note_on_c, 2, 67, 56
4, 20279, Note_on_c, 2, 67, 0
4, 20280, Note_on_c, 2, 67, 56
4, 20339, Note_on_c, 2, 67, 0
4, 20340, Note_on_c, 2, 67, 56
4, 20399, Note_on_c, 2, 67, 0
4, 20400, Note_on_c, 2, 72, 56
4, 20459, Note_on_c, 2, 72, 0
4, 20460, Note_on_c, 2, 72, 56
4, 20519, Note_on_c, 2, 72, 0
4, 20520, Note_on_c, 2, 72, 56
4, 20579, Note_on_c, 2, 72, 0
4, 20580, Note_on_c, 2, 60, 56
4, 20609, Note_on_c, 2, 60, 0
4, 20610, Note_on_c, 2, 62, 56
4, 20639, Note_on_c, 2, 62, 0
4, 20640, Note_on_c, 2, 64, 56
4, 20669, Note_on_c, 2, 64, 0
4, 20670, Note_on_c, 2, 65, 56
4, 20699, Note_on_c, 2, 65, 0
4, 20700, Note_on_c, 2, 67, 56
4, 20759, Note_on_c, 2, 67, 0
4, 20760, Note_on_c, 2, 67, 56
4, 20819, Note_on_c, 2, 67, 0
4, 20820, Note_on_c, 2, 69, 56
4, 20879, Note_on_c, 2, 69, 0
4, 20880, Note_on_c, 2, 67, 56
4, 20939, Note_on_c, 2, 67, 0
4, 20940, Note_on_c, 2, 60, 56
4, 20999, Note_on_c, 2, 60, 0
4, 21000, Note_on_c, 2, 62, 56
4, 21059, Note_on_c, 2, 62, 0
4, 21060, Note_on_c, 2, 64, 56
4, 21119, Note_on_c, 2, 64, 0
4, 21120, Note_on_c, 2, 64, 56
4, 21179, Note_on_c, 2, 64, 0
4, 21180, Note_on_c, 2, 65, 56
4, 21239, Note_on_c, 2, 65, 0
4, 21240, Note_on_c, 2, 67, 56
4, 21299, Note_on_c, 2, 67, 0
4, 21300, Note_on_c, 2, 67, 56
4, 21359, Note_on_c, 2, 67, 0
4, 21360, Note_on_c, 2, 69, 56
4, 21419, Note_on_c, 2, 69, 0
4, 21420, Note_on_c, 2, 67, 56
4, 21479, Note_on_c, 2, 67, 0
4, 21480, Note_on_c, 2, 65, 56
4, 21509, Note_on_c, 2, 65, 0
4, 21510, Note_on_c, 2, 64, 56
4, 21539, Note_on_c, 2, 64, 0
4, 21540, Note_on_c, 2, 62, 56
4, 21569, Note_on_c, 2, 62, 0
4, 21570, Note_on_c, 2, 60, 56
4, 21599, Note_on_c, 2, 60, 0
4, 21600, Note_on_c, 2, 59, 56
4, 21629, Note_on_c, 2, 59, 0
4, 21630, Note_on_c, 2, 57, 56
4, 21659, Note_on_c, 2, 57, 0
4, 21660, Note_on_c, 2, 55, 56
4, 21689, Note_on_c, 2, 55, 0
4, 21690, Note_on_c, 2, 57, 56
4, 21719, Note_on_c, 2, 57, 0
4, 21720, Note_on_c, 2, 59, 56
4, 21749, Note_on_c, 2, 59, 0
4, 21750, Note_on_c, 2, 60, 56
4, 21779, Note_on_c, 2, 60, 0
4, 21780, Note_on_c, 2, 62, 56
4, 21839, Note_on_c, 2, 62, 0
4, 21840, Note_on_c, 2, 62, 56
4, 21899, Note_on_c, 2, 62, 0
4, 21900, Note_on_c, 2, 64, 56
4, 21959, Note_on_c, 2, 64, 0
4, 21960, Note_on_c, 2, 62, 56
4, 22019, Note_on_c, 2, 62, 0
4, 22020, Note_on_c, 2, 59, 56
4, 22079, Note_on_c, 2, 59, 0
4, 22140, Note_on_c, 2, 60, 56
4, 22199, Note_on_c, 2, 60, 0
4, 22200, Note_on_c, 2, 67, 56
4, 22259, Note_on_c, 2, 67, 0
4, 22320, Note_on_c, 2, 69, 56
4, 22379, Note_on_c, 2, 69, 0
4, 22380, Note_on_c, 2, 65, 56
4, 22439, Note_on_c, 2, 65, 0
4, 22500, Note_on_c, 2, 65, 56
4, 22559, Note_on_c, 2, 65, 0
4, 22560, Note_on_c, 2, 62, 56
4, 22619, Note_on_c, 2, 62, 0
4, 22620, Note_on_c, 2, 58, 56
4, 22679, Note_on_c, 2, 58, 0
4, 22680, Note_on_c, 2, 55, 56
4, 22739, Note_on_c, 2, 55, 0
4, 22740, Note_on_c, 2, 67, 56
4, 22799, Note_on_c, 2, 67, 0
4, 22800, Note_on_c, 2, 65, 56
4, 22859, Note_on_c, 2, 65, 0
4, 22890, Note_on_c, 2, 65, 56
4, 22919, Note_on_c, 2, 65, 0
4, 22920, Note_on_c, 2, 72, 56
4, 22979, Note_on_c, 2, 72, 0
4, 22980, Note_on_c, 2, 70, 56
4, 23039, Note_on_c, 2, 70, 0
4, 23040, Note_on_c, 2, 69, 56
4, 23099, Note_on_c, 2, 69, 0
4, 23220, Note_on_c, 2, 69, 56
4, 23279, Note_on_c, 2, 69, 0
4, 23400, Note_on_c, 2, 67, 56
4, 23459, Note_on_c, 2, 67, 0
4, 23460, Note_on_c, 2, 72, 56
4, 23519, Note_on_c, 2, 72, 0
4, 23520, Note_on_c, 2, 67, 56
4, 23579, Note_on_c, 2, 67, 0
4, 23580, Note_on_c, 2, 64, 56
4, 23639, Note_on_c, 2, 64, 0
4, 23640, Note_on_c, 2, 60, 56
4, 23669, Note_on_c, 2, 60, 0
4, 23670, Note_on_c, 2, 62, 56
4, 23699, Note_on_c, 2, 62, 0
4, 23700, Note_on_c, 2, 64, 56
4, 23729, Note_on_c, 2, 64, 0
4, 23730, Note_on_c, 2, 65, 56
4, 23759, Note_on_c, 2, 65, 0
4, 23760, Note_on_c, 2, 67, 56
4, 23819, Note_on_c, 2, 67, 0
4, 23820, Note_on_c, 2, 64, 56
4, 23999, Note_on_c, 2, 64, 0
4, 24000, Note_on_c, 2, 64, 56
4, 24059, Note_on_c, 2, 64, 0
4, 24060, Note_on_c, 2, 64, 56
4, 24119, Note_on_c, 2, 64, 0
4, 24120, Note_on_c, 2, 62, 56
4, 24179, Note_on_c, 2, 62, 0
4, 24300, Note_on_c, 2, 69, 56
4, 24359, Note_on_c, 2, 69, 0
4, 24480, Note_on_c, 2, 69, 56
4, 24539, Note_on_c, 2, 69, 0
4, 24540, Note_on_c, 2, 69, 56
4, 24599, Note_on_c, 2, 69, 0
4, 24600, Note_on_c, 2, 64, 56
4, 24659, Note_on_c, 2, 64, 0
4, 24660, Note_on_c, 2, 61, 56
4, 24719, Note_on_c, 2, 61, 0
4, 24720, Note_on_c, 2, 57, 56
4, 24749, Note_on_c, 2, 57, 0
4, 24750, Note_on_c, 2, 59, 56
4, 24779, Note_on_c, 2, 59, 0
4, 24780, Note_on_c, 2, 61, 56
4, 24809, Note_on_c, 2, 61, 0
4, 24810, Note_on_c, 2, 62, 56
4, 24839, Note_on_c, 2, 62, 0
4, 24840, Note_on_c, 2, 64, 56
4, 24899, Note_on_c, 2, 64, 0
4, 24900, Note_on_c, 2, 72, 56
4, 25079, Note_on_c, 2, 72, 0
4, 25080, Note_on_c, 2, 69, 56
4, 25139, Note_on_c, 2, 69, 0
4, 25140, Note_on_c, 2, 74, 56
4, 25199, Note_on_c, 2, 74, 0
4, 25200, Note_on_c, 2, 74, 56
4, 25259, Note_on_c, 2, 74, 0
4, 25380, Note_on_c, 2, 67, 56
4, 25439, Note_on_c, 2, 67, 0
4, 25560, Note_on_c, 2, 65, 56
4, 25619, Note_on_c, 2, 65, 0
4, 25740, Note_on_c, 2, 65, 56
4, 25799, Note_on_c, 2, 65, 0
4, 25920, Note_on_c, 2, 63, 56
4, 25979, Note_on_c, 2, 63, 0
4, 26100, Note_on_c, 2, 63, 56
4, 26159, Note_on_c, 2, 63, 0
4, 26280, Note_on_c, 2, 62, 56
4, 26339, Note_on_c, 2, 62, 0
4, 26460, Note_on_c, 2, 62, 56
4, 26519, Note_on_c, 2, 62, 0
4, 26640, Note_on_c, 2, 60, 56
4, 27720, Note_on_c, 2, 60, 0
4, 27720, Note_on_c, 2, 61, 56
4, 28079, Note_on_c, 2, 61, 0
4, 28080, Note_on_c, 2, 62, 56
4, 28439, Note_on_c, 2, 62, 0
4, 28440, Note_on_c, 2, 55, 56
4, 28799, Note_on_c, 2, 55, 0
4, 28800, Note_on_c, 2, 62, 56
4, 29159, Note_on_c, 2, 62, 0
4, 29160, Note_on_c, 2, 62, 56
4, 29219, Note_on_c, 2, 62, 0
4, 29280, Note_on_c, 2, 72, 56
4, 29339, Note_on_c, 2, 72, 0
4, 29460, Note_on_c, 2, 69, 56
4, 29519, Note_on_c, 2, 69, 0
4, 29640, Note_on_c, 2, 67, 56
4, 29699, Note_on_c, 2, 67, 0
4, 29820, Note_on_c, 2, 72, 56
4, 29879, Note_on_c, 2, 72, 0
4, 30000, Note_on_c, 2, 72, 56
4, 30059, Note_on_c, 2, 72, 0
4, 30180, Note_on_c, 2, 70, 56
4, 30239, Note_on_c, 2, 70, 0
4, 30360, Note_on_c, 2, 72, 56
4, 30419, Note_on_c, 2, 72, 0
4, 30540, Note_on_c, 2, 70, 56
4, 30599, Note_on_c, 2, 70, 0
4, 30660, Note_on_c, 2, 62, 56
4, 30719, Note_on_c, 2, 62, 0
4, 30720, Note_on_c, 2, 69, 56
4, 30779, Note_on_c, 2, 69, 0
4, 30840, Note_on_c, 2, 67, 56
4, 30899, Note_on_c, 2, 67, 0
4, 30900, Note_on_c, 2, 67, 56
4, 30959, Note_on_c, 2, 67, 0
4, 31020, Note_on_c, 2, 65, 56
4, 31079, Note_on_c, 2, 65, 0
4, 31080, Note_on_c, 2, 60, 56
4, 31139, Note_on_c, 2, 60, 0
4, 31200, Note_on_c, 2, 59, 56
4, 31259, Note_on_c, 2, 59, 0
4, 31260, Note_on_c, 2, 62, 56
4, 31319, Note_on_c, 2, 62, 0
4, 31380, Note_on_c, 2, 60, 56
4, 31439, Note_on_c, 2, 60, 0
4, 31440, Note_on_c, 2, 55, 56
4, 31499, Note_on_c, 2, 55, 0
4, 31560, Note_on_c, 2, 62, 56
4, 31619, Note_on_c, 2, 62, 0
4, 31620, Note_on_c, 2, 66, 56
4, 31679, Note_on_c, 2, 66, 0
4, 31740, Note_on_c, 2, 62, 56
4, 31799, Note_on_c, 2, 62, 0
4, 31800, Note_on_c, 2, 55, 56
4, 31859, Note_on_c, 2, 55, 0
4, 31920, Note_on_c, 2, 57, 56
4, 31979, Note_on_c, 2, 57, 0
4, 31980, Note_on_c, 2, 61, 56
4, 32039, Note_on_c, 2, 61, 0
4, 32100, Note_on_c, 2, 57, 56
4, 32159, Note_on_c, 2, 57, 0
4, 32160, Note_on_c, 2, 53, 56
4, 32219, Note_on_c, 2, 53, 0
4, 32280, Note_on_c, 2, 55, 56
4, 32339, Note_on_c, 2, 55, 0
4, 32340, Note_on_c, 2, 59, 56
4, 32399, Note_on_c, 2, 59, 0
4, 32460, Note_on_c, 2, 55, 56
4, 32519, Note_on_c, 2, 55, 0
4, 32520, Note_on_c, 2, 55, 56
4, 32579, Note_on_c, 2, 55, 0
4, 32640, Note_on_c, 2, 53, 56
4, 32699, Note_on_c, 2, 53, 0
4, 32700, Note_on_c, 2, 57, 56
4, 32759, Note_on_c, 2, 57, 0
4, 32820, Note_on_c, 2, 58, 56
4, 32879, Note_on_c, 2, 58, 0
4, 32880, Note_on_c, 2, 53, 56
4, 32939, Note_on_c, 2, 53, 0
4, 33000, Note_on_c, 2, 55, 56
4, 33059, Note_on_c, 2, 55, 0
4, 33060, Note_on_c, 2, 55, 56
4, 33119, Note_on_c, 2, 55, 0
4, 33180, Note_on_c, 2, 64, 56
4, 33239, Note_on_c, 2, 64, 0
4, 33240, Note_on_c, 2, 64, 56
4, 33299, Note_on_c, 2, 64, 0
4, 33360, Note_on_c, 2, 62, 56
4, 33419, Note_on_c, 2, 62, 0
4, 33420, Note_on_c, 2, 57, 56
4, 33479, Note_on_c, 2, 57, 0
4, 33480, Note_on_c, 2, 58, 56
4, 33539, Note_on_c, 2, 58, 0
4, 33900, Note_on_c, 2, 55, 56
4, 33959, Note_on_c, 2, 55, 0
4, 33960, Note_on_c, 2, 57, 56
4, 34019, Note_on_c, 2, 57, 0
4, 34020, Note_on_c, 2, 58, 56
4, 34079, Note_on_c, 2, 58, 0
4, 34080, Note_on_c, 2, 58, 56
4, 34139, Note_on_c, 2, 58, 0
4, 34140, Note_on_c, 2, 60, 56
4, 34199, Note_on_c, 2, 60, 0
4, 34200, Note_on_c, 2, 62, 56
4, 34259, Note_on_c, 2, 62, 0
4, 34260, Note_on_c, 2, 62, 56
4, 34319, Note_on_c, 2, 62, 0
4, 34320, Note_on_c, 2, 63, 56
4, 34379, Note_on_c, 2, 63, 0
4, 34380, Note_on_c, 2, 62, 56
4, 34439, Note_on_c, 2, 62, 0
4, 34440, Note_on_c, 2, 60, 56
4, 34469, Note_on_c, 2, 60, 0
4, 34470, Note_on_c, 2, 58, 56
4, 34499, Note_on_c, 2, 58, 0
4, 34500, Note_on_c, 2, 57, 56
4, 34529, Note_on_c, 2, 57, 0
4, 34530, Note_on_c, 2, 55, 56
4, 34559, Note_on_c, 2, 55, 0
4, 34560, Note_on_c, 2, 54, 56
4, 34619, Note_on_c, 2, 54, 0
4, 34620, Note_on_c, 2, 50, 56
4, 34649, Note_on_c, 2, 50, 0
4, 34650, Note_on_c, 2, 52, 56
4, 34679, Note_on_c, 2, 52, 0
4, 34680, Note_on_c, 2, 54, 56
4, 34709, Note_on_c, 2, 54, 0
4, 34710, Note_on_c, 2, 55, 56
4, 34739, Note_on_c, 2, 55, 0
4, 34740, Note_on_c, 2, 57, 56
4, 34799, Note_on_c, 2, 57, 0
4, 34800, Note_on_c, 2, 57, 56
4, 34859, Note_on_c, 2, 57, 0
4, 34860, Note_on_c, 2, 58, 56
4, 34919, Note_on_c, 2, 58, 0
4, 34920, Note_on_c, 2, 57, 56
4, 34979, Note_on_c, 2, 57, 0
4, 34980, Note_on_c, 2, 50, 56
4, 35009, Note_on_c, 2, 50, 0
4, 35010, Note_on_c, 2, 52, 56
4, 35039, Note_on_c, 2, 52, 0
4, 35040, Note_on_c, 2, 54, 56
4, 35069, Note_on_c, 2, 54, 0
4, 35070, Note_on_c, 2, 55, 56
4, 35099, Note_on_c, 2, 55, 0
4, 35100, Note_on_c, 2, 57, 56
4, 35159, Note_on_c, 2, 57, 0
4, 35160, Note_on_c, 2, 57, 56
4, 35219, Note_on_c, 2, 57, 0
4, 35220, Note_on_c, 2, 58, 56
4, 35279, Note_on_c, 2, 58, 0
4, 35280, Note_on_c, 2, 57, 56
4, 35339, Note_on_c, 2, 57, 0
4, 35460, Note_on_c, 2, 63, 56
4, 35519, Note_on_c, 2, 63, 0
4, 35640, Note_on_c, 2, 57, 56
4, 35699, Note_on_c, 2, 57, 0
4, 35820, Note_on_c, 2, 62, 56
4, 35879, Note_on_c, 2, 62, 0
4, 36240, Note_on_c, 2, 69, 56
4, 36299, Note_on_c, 2, 69, 0
4, 36300, Note_on_c, 2, 72, 56
4, 36359, Note_on_c, 2, 72, 0
4, 36360, Note_on_c, 2, 70, 56
4, 36780, Note_on_c, 2, 70, 0
4, 36960, Note_on_c, 2, 65, 56
4, 37019, Note_on_c, 2, 65, 0
4, 37020, Note_on_c, 2, 67, 56
4, 37079, Note_on_c, 2, 67, 0
4, 37080, Note_on_c, 2, 69, 56
4, 37259, Note_on_c, 2, 69, 0
4, 37260, Note_on_c, 2, 68, 56
4, 37379, Note_on_c, 2, 68, 0
4, 37380, Note_on_c, 2, 69, 56
4, 37439, Note_on_c, 2, 69, 0
4, 37440, Note_on_c, 2, 71, 56
4, 37499, Note_on_c, 2, 71, 0
4, 37680, Note_on_c, 2, 61, 56
4, 37739, Note_on_c, 2, 61, 0
4, 37740, Note_on_c, 2, 62, 56
4, 37799, Note_on_c, 2, 62, 0
4, 37800, Note_on_c, 2, 64, 56
4, 37859, Note_on_c, 2, 64, 0
4, 37980, Note_on_c, 2, 62, 56
4, 38039, Note_on_c, 2, 62, 0
4, 38160, Note_on_c, 2, 62, 56
4, 38219, Note_on_c, 2, 62, 0
4, 38340, Note_on_c, 2, 60, 56
4, 38399, Note_on_c, 2, 60, 0
4, 38520, Note_on_c, 2, 60, 56
4, 38579, Note_on_c, 2, 60, 0
4, 38700, Note_on_c, 2, 62, 56
4, 38759, Note_on_c, 2, 62, 0
4, 38880, Note_on_c, 2, 67, 56
4, 38939, Note_on_c, 2, 67, 0
4, 39060, Note_on_c, 2, 69, 56
4, 39119, Note_on_c, 2, 69, 0
4, 39240, Note_on_c, 2, 69, 56
4, 39299, Note_on_c, 2, 69, 0
4, 39600, Note_on_c, 2, 67, 56
4, 39659, Note_on_c, 2, 67, 0
4, 39960, Note_on_c, 2, 65, 56
4, 40019, Note_on_c, 2, 65, 0
4, 40320, Note_on_c, 2, 67, 56
4, 40379, Note_on_c, 2, 67, 0
4, 40380, Note_on_c, 2, 67, 56
4, 40439, Note_on_c, 2, 67, 0
4, 40440, Note_on_c, 2, 67, 56
4, 40499, Note_on_c, 2, 67, 0
4, 40500, Note_on_c, 2, 62, 56
4, 40559, Note_on_c, 2, 62, 0
4, 40560, Note_on_c, 2, 62, 56
4, 40619, Note_on_c, 2, 62, 0
4, 40620, Note_on_c, 2, 62, 56
4, 40679, Note_on_c, 2, 62, 0
4, 40680, Note_on_c, 2, 64, 56
4, 40739, Note_on_c, 2, 64, 0
4, 40740, Note_on_c, 2, 64, 56
4, 40799, Note_on_c, 2, 64, 0
4, 40800, Note_on_c, 2, 64, 56
4, 40859, Note_on_c, 2, 64, 0
4, 40860, Note_on_c, 2, 57, 56
4, 40919, Note_on_c, 2, 57, 0
4, 41400, Note_on_c, 2, 65, 56
4, 41760, Note_on_c, 2, 65, 0
4, 41760, Note_on_c, 2, 64, 56
4, 41819, Note_on_c, 2, 64, 0
4, 42120, Note_on_c, 2, 65, 56
4, 42179, Note_on_c, 2, 65, 0
4, 42480, Note_on_c, 2, 61, 56
4, 42539, Note_on_c, 2, 61, 0
4, 42840, Note_on_c, 2, 62, 56
4, 42899, Note_on_c, 2, 62, 0
4, 43020, Note_on_c, 2, 67, 56
4, 43079, Note_on_c, 2, 67, 0
4, 43200, Note_on_c, 2, 65, 56
4, 43259, Note_on_c, 2, 65, 0
4, 43380, Note_on_c, 2, 64, 56
4, 43439, Note_on_c, 2, 64, 0
4, 43560, Note_on_c, 2, 62, 56
4, 43619, Note_on_c, 2, 62, 0
4, 43740, Note_on_c, 2, 64, 56
4, 43799, Note_on_c, 2, 64, 0
4, 43920, Note_on_c, 2, 62, 56
4, 44099, Note_on_c, 2, 62, 0
4, 44100, Note_on_c, 2, 59, 56
4, 44279, Note_on_c, 2, 59, 0
4, 44280, Note_on_c, 2, 61, 56
4, 44339, Note_on_c, 2, 61, 0
4, 44340, Note_on_c, 2, 69, 56
4, 44399, Note_on_c, 2, 69, 0
4, 44400, Note_on_c, 2, 67, 56
4, 44459, Note_on_c, 2, 67, 0
4, 44460, Note_on_c, 2, 65, 56
4, 44519, Note_on_c, 2, 65, 0
4, 44520, Note_on_c, 2, 65, 56
4, 44579, Note_on_c, 2, 65, 0
4, 44580, Note_on_c, 2, 64, 56
4, 44639, Note_on_c, 2, 64, 0
4, 44640, Note_on_c, 2, 62, 56
4, 44699, Note_on_c, 2, 62, 0
4, 45240, Note_on_c, 2, 69, 56
4, 45299, Note_on_c, 2, 69, 0
4, 45300, Note_on_c, 2, 64, 56
4, 45359, Note_on_c, 2, 64, 0
4, 45360, Note_on_c, 2, 62, 56
4, 45419, Note_on_c, 2, 62, 0
4, 45420, Note_on_c, 2, 74, 56
4, 45479, Note_on_c, 2, 74, 0
4, 45480, Note_on_c, 2, 62, 56
4, 45539, Note_on_c, 2, 62, 0
4, 45540, Note_on_c, 2, 61, 56
4, 45599, Note_on_c, 2, 61, 0
4, 45600, Note_on_c, 2, 61, 56
4, 45659, Note_on_c, 2, 61, 0
4, 45660, Note_on_c, 2, 62, 56
4, 45719, Note_on_c, 2, 62, 0
4, 45720, Note_on_c, 2, 64, 56
4, 45779, Note_on_c, 2, 64, 0
4, 45780, Note_on_c, 2, 64, 56
4, 45839, Note_on_c, 2, 64, 0
4, 45840, Note_on_c, 2, 64, 56
4, 45899, Note_on_c, 2, 64, 0
4, 45900, Note_on_c, 2, 64, 56
4, 45959, Note_on_c, 2, 64, 0
4, 45960, Note_on_c, 2, 69, 56
4, 46019, Note_on_c, 2, 69, 0
4, 46020, Note_on_c, 2, 69, 56
4, 46079, Note_on_c, 2, 69, 0
4, 46080, Note_on_c, 2, 69, 56
4, 46139, Note_on_c, 2, 69, 0
4, 46260, Note_on_c, 2, 69, 56
4, 46319, Note_on_c, 2, 69, 0
4, 46440, Note_on_c, 2, 73, 56
4, 46499, Note_on_c, 2, 73, 0
4, 46620, Note_on_c, 2, 74, 56
4, 46679, Note_on_c, 2, 74, 0
4, 46800, Note_on_c, 2, 74, 56
4, 46859, Note_on_c, 2, 74, 0
4, 46980, Note_on_c, 2, 72, 56
4, 47039, Note_on_c, 2, 72, 0
4, 47160, Note_on_c, 2, 72, 56
4, 47219, Note_on_c, 2, 72, 0
4, 47340, Note_on_c, 2, 70, 56
4, 47399, Note_on_c, 2, 70, 0
4, 47520, Note_on_c, 2, 70, 56
4, 47579, Note_on_c, 2, 70, 0
4, 47700, Note_on_c, 2, 69, 56
4, 47759, Note_on_c, 2, 69, 0
4, 47880, Note_on_c, 2, 69, 56
4, 47939, Note_on_c, 2, 69, 0
4, 47940, Note_on_c, 2, 62, 56
4, 47999, Note_on_c, 2, 62, 0
4, 48000, Note_on_c, 2, 62, 56
4, 48059, Note_on_c, 2, 62, 0
4, 48060, Note_on_c, 2, 63, 56
4, 48119, Note_on_c, 2, 63, 0
4, 48120, Note_on_c, 2, 63, 56
4, 48179, Note_on_c, 2, 63, 0
4, 48180, Note_on_c, 2, 62, 56
4, 48239, Note_on_c, 2, 62, 0
4, 48240, Note_on_c, 2, 69, 56
4, 48299, Note_on_c, 2, 69, 0
4, 48420, Note_on_c, 2, 69, 56
4, 48479, Note_on_c, 2, 69, 0
4, 48600, Note_on_c, 2, 64, 56
4, 48659, Note_on_c, 2, 64, 0
4, 48780, Note_on_c, 2, 67, 56
4, 48839, Note_on_c, 2, 67, 0
4, 48960, Note_on_c, 2, 69, 56
4, 49049, Note_on_c, 2, 69, 0
4, 49050, Note_on_c, 2, 69, 56
4, 49079, Note_on_c, 2, 69, 0
4, 49080, Note_on_c, 2, 69, 56
4, 49139, Note_on_c, 2, 69, 0
4, 49170, Note_on_c, 2, 74, 56
4, 49199, Note_on_c, 2, 74, 0
4, 49200, Note_on_c, 2, 69, 56
4, 49259, Note_on_c, 2, 69, 0
4, 49260, Note_on_c, 2, 67, 56
4, 49319, Note_on_c, 2, 67, 0
4, 49320, Note_on_c, 2, 65, 56
4, 49379, Note_on_c, 2, 65, 0
4, 49380, Note_on_c, 2, 62, 56
4, 49439, Note_on_c, 2, 62, 0
4, 49440, Note_on_c, 2, 64, 56
4, 49499, Note_on_c, 2, 64, 0
4, 49500, Note_on_c, 2, 65, 56
4, 49559, Note_on_c, 2, 65, 0
4, 49560, Note_on_c, 2, 65, 56
4, 49619, Note_on_c, 2, 65, 0
4, 49620, Note_on_c, 2, 67, 56
4, 49679, Note_on_c, 2, 67, 0
4, 49680, Note_on_c, 2, 69, 56
4, 49739, Note_on_c, 2, 69, 0
4, 49740, Note_on_c, 2, 69, 56
4, 49799, Note_on_c, 2, 69, 0
4, 49800, Note_on_c, 2, 70, 56
4, 49859, Note_on_c, 2, 70, 0
4, 49860, Note_on_c, 2, 69, 56
4, 49919, Note_on_c, 2, 69, 0
4, 49920, Note_on_c, 2, 67, 56
4, 49949, Note_on_c, 2, 67, 0
4, 49950, Note_on_c, 2, 65, 56
4, 49979, Note_on_c, 2, 65, 0
4, 49980, Note_on_c, 2, 64, 56
4, 50009, Note_on_c, 2, 64, 0
4, 50010, Note_on_c, 2, 62, 56
4, 50039, Note_on_c, 2, 62, 0
4, 50040, Note_on_c, 2, 61, 56
4, 50099, Note_on_c, 2, 61, 0
4, 50100, Note_on_c, 2, 57, 56
4, 50129, Note_on_c, 2, 57, 0
4, 50130, Note_on_c, 2, 59, 56
4, 50159, Note_on_c, 2, 59, 0
4, 50160, Note_on_c, 2, 61, 56
4, 50189, Note_on_c, 2, 61, 0
4, 50190, Note_on_c, 2, 62, 56
4, 50219, Note_on_c, 2, 62, 0
4, 50220, Note_on_c, 2, 64, 56
4, 50279, Note_on_c, 2, 64, 0
4, 50280, Note_on_c, 2, 64, 56
4, 50339, Note_on_c, 2, 64, 0
4, 50340, Note_on_c, 2, 65, 56
4, 50399, Note_on_c, 2, 65, 0
4, 50400, Note_on_c, 2, 64, 56
4, 50459, Note_on_c, 2, 64, 0
4, 50460, Note_on_c, 2, 57, 56
4, 50489, Note_on_c, 2, 57, 0
4, 50490, Note_on_c, 2, 59, 56
4, 50519, Note_on_c, 2, 59, 0
4, 50520, Note_on_c, 2, 61, 56
4, 50549, Note_on_c, 2, 61, 0
4, 50550, Note_on_c, 2, 62, 56
4, 50579, Note_on_c, 2, 62, 0
4, 50580, Note_on_c, 2, 64, 56
4, 50639, Note_on_c, 2, 64, 0
4, 50640, Note_on_c, 2, 64, 56
4, 50699, Note_on_c, 2, 64, 0
4, 50700, Note_on_c, 2, 65, 56
4, 50759, Note_on_c, 2, 65, 0
4, 50760, Note_on_c, 2, 64, 56
4, 50819, Note_on_c, 2, 64, 0
4, 50820, Note_on_c, 2, 57, 56
4, 50849, Note_on_c, 2, 57, 0
4, 50850, Note_on_c, 2, 59, 56
4, 50879, Note_on_c, 2, 59, 0
4, 50880, Note_on_c, 2, 61, 56
4, 50909, Note_on_c, 2, 61, 0
4, 50910, Note_on_c, 2, 62, 56
4, 50939, Note_on_c, 2, 62, 0
4, 50940, Note_on_c, 2, 64, 56
4, 50969, Note_on_c, 2, 64, 0
4, 50970, Note_on_c, 2, 62, 56
4, 50999, Note_on_c, 2, 62, 0
4, 51000, Note_on_c, 2, 61, 56
4, 51029, Note_on_c, 2, 61, 0
4, 51030, Note_on_c, 2, 62, 56
4, 51059, Note_on_c, 2, 62, 0
4, 51060, Note_on_c, 2, 64, 56
4, 51089, Note_on_c, 2, 64, 0
4, 51090, Note_on_c, 2, 65, 56
4, 51119, Note_on_c, 2, 65, 0
4, 51120, Note_on_c, 2, 67, 56
4, 51149, Note_on_c, 2, 67, 0
4, 51150, Note_on_c, 2, 65, 56
4, 51179, Note_on_c, 2, 65, 0
4, 51180, Note_on_c, 2, 64, 56
4, 51209, Note_on_c, 2, 64, 0
4, 51210, Note_on_c, 2, 65, 56
4, 51239, Note_on_c, 2, 65, 0
4, 51240, Note_on_c, 2, 67, 56
4, 51269, Note_on_c, 2, 67, 0
4, 51270, Note_on_c, 2, 69, 56
4, 51299, Note_on_c, 2, 69, 0
4, 51300, Note_on_c, 2, 70, 56
4, 51329, Note_on_c, 2, 70, 0
4, 51330, Note_on_c, 2, 69, 56
4, 51359, Note_on_c, 2, 69, 0
4, 51360, Note_on_c, 2, 67, 56
4, 51389, Note_on_c, 2, 67, 0
4, 51390, Note_on_c, 2, 65, 56
4, 51419, Note_on_c, 2, 65, 0
4, 51420, Note_on_c, 2, 64, 56
4, 51449, Note_on_c, 2, 64, 0
4, 51450, Note_on_c, 2, 62, 56
4, 51479, Note_on_c, 2, 62, 0
4, 51480, Note_on_c, 2, 61, 56
4, 51509, Note_on_c, 2, 61, 0
4, 51510, Note_on_c, 2, 64, 56
4, 51539, Note_on_c, 2, 64, 0
4, 51540, Note_on_c, 2, 57, 56
4, 51569, Note_on_c, 2, 57, 0
4, 51570, Note_on_c, 2, 61, 56
4, 51599, Note_on_c, 2, 61, 0
4, 51600, Note_on_c, 2, 62, 56
4, 51659, Note_on_c, 2, 62, 0
4, 51690, Note_on_c, 2, 55, 56
4, 51719, Note_on_c, 2, 55, 0
4, 51720, Note_on_c, 2, 57, 56
4, 51779, Note_on_c, 2, 57, 0
4, 51780, Note_on_c, 2, 57, 56
4, 51839, Note_on_c, 2, 57, 0
4, 51840, Note_on_c, 2, 50, 56
4, 52019, Note_on_c, 2, 50, 0
4, 52260, Note_on_c, 2, 65, 56
4, 52290, Note_on_c, 2, 65, 0
4, 52320, Note_on_c, 2, 65, 56
4, 52350, Note_on_c, 2, 65, 0
4, 52440, Note_on_c, 2, 64, 56
4, 52470, Note_on_c, 2, 64, 0
4, 52500, Note_on_c, 2, 60, 56
4, 52530, Note_on_c, 2, 60, 0
4, 52620, Note_on_c, 2, 60, 56
4, 52650, Note_on_c, 2, 60, 0
4, 52680, Note_on_c, 2, 65, 56
4, 52710, Note_on_c, 2, 65, 0
4, 52800, Note_on_c, 2, 65, 56
4, 52830, Note_on_c, 2, 65, 0
4, 52860, Note_on_c, 2, 69, 56
4, 52890, Note_on_c, 2, 69, 0
4, 52980, Note_on_c, 2, 62, 56
4, 53010, Note_on_c, 2, 62, 0
4, 53040, Note_on_c, 2, 60, 56
4, 53070, Note_on_c, 2, 60, 0
4, 53160, Note_on_c, 2, 62, 56
4, 53190, Note_on_c, 2, 62, 0
4, 53220, Note_on_c, 2, 62, 56
4, 53250, Note_on_c, 2, 62, 0
4, 53340, Note_on_c, 2, 62, 56
4, 53370, Note_on_c, 2, 62, 0
4, 53400, Note_on_c, 2, 67, 56
4, 53430, Note_on_c, 2, 67, 0
4, 53520, Note_on_c, 2, 67, 56
4, 53550, Note_on_c, 2, 67, 0
4, 53580, Note_on_c, 2, 71, 56
4, 53610, Note_on_c, 2, 71, 0
4, 53700, Note_on_c, 2, 71, 56
4, 53730, Note_on_c, 2, 71, 0
4, 53760, Note_on_c, 2, 59, 56
4, 53790, Note_on_c, 2, 59, 0
4, 53880, Note_on_c, 2, 64, 56
4, 53910, Note_on_c, 2, 64, 0
4, 53940, Note_on_c, 2, 69, 56
4, 53970, Note_on_c, 2, 69, 0
4, 54060, Note_on_c, 2, 60, 56
4, 54090, Note_on_c, 2, 60, 0
4, 54120, Note_on_c, 2, 60, 56
4, 54150, Note_on_c, 2, 60, 0
4, 54240, Note_on_c, 2, 63, 56
4, 54270, Note_on_c, 2, 63, 0
4, 54300, Note_on_c, 2, 63, 56
4, 54330, Note_on_c, 2, 63, 0
4, 54420, Note_on_c, 2, 62, 56
4, 54450, Note_on_c, 2, 62, 0
4, 54480, Note_on_c, 2, 63, 56
4, 54510, Note_on_c, 2, 63, 0
4, 54600, Note_on_c, 2, 62, 56
4, 54630, Note_on_c, 2, 62, 0
4, 54660, Note_on_c, 2, 62, 56
4, 54690, Note_on_c, 2, 62, 0
4, 54720, Note_on_c, 2, 60, 56
4, 54750, Note_on_c, 2, 60, 0
4, 54780, Note_on_c, 2, 55, 56
4, 54810, Note_on_c, 2, 55, 0
4, 54840, Note_on_c, 2, 53, 56
4, 54870, Note_on_c, 2, 53, 0
4, 54900, Note_on_c, 2, 52, 56
4, 54960, Note_on_c, 2, 52, 0
4, 58020, Note_on_c, 2, 60, 56
4, 58050, Note_on_c, 2, 60, 0
4, 58080, Note_on_c, 2, 65, 56
4, 58110, Note_on_c, 2, 65, 0
4, 58200, Note_on_c, 2, 67, 56
4, 58230, Note_on_c, 2, 67, 0
4, 58260, Note_on_c, 2, 58, 56
4, 58290, Note_on_c, 2, 58, 0
4, 58380, Note_on_c, 2, 62, 56
4, 58410, Note_on_c, 2, 62, 0
4, 58440, Note_on_c, 2, 62, 56
4, 58470, Note_on_c, 2, 62, 0
4, 58560, Note_on_c, 2, 66, 56
4, 58590, Note_on_c, 2, 66, 0
4, 58620, Note_on_c, 2, 69, 56
4, 58650, Note_on_c, 2, 69, 0
4, 58740, Note_on_c, 2, 67, 56
4, 58770, Note_on_c, 2, 67, 0
4, 58800, Note_on_c, 2, 62, 56
4, 58830, Note_on_c, 2, 62, 0
4, 58920, Note_on_c, 2, 63, 56
4, 58950, Note_on_c, 2, 63, 0
4, 58980, Note_on_c, 2, 72, 56
4, 59010, Note_on_c, 2, 72, 0
4, 59100, Note_on_c, 2, 69, 56
4, 59130, Note_on_c, 2, 69, 0
4, 59160, Note_on_c, 2, 66, 56
4, 59190, Note_on_c, 2, 66, 0
4, 59280, Note_on_c, 2, 57, 56
4, 59310, Note_on_c, 2, 57, 0
4, 59340, Note_on_c, 2, 62, 56
4, 59370, Note_on_c, 2, 62, 0
4, 59460, Note_on_c, 2, 62, 56
4, 59490, Note_on_c, 2, 62, 0
4, 59520, Note_on_c, 2, 58, 56
4, 59550, Note_on_c, 2, 58, 0
4, 59640, Note_on_c, 2, 67, 56
4, 59670, Note_on_c, 2, 67, 0
4, 59700, Note_on_c, 2, 62, 56
4, 59730, Note_on_c, 2, 62, 0
4, 59820, Note_on_c, 2, 69, 56
4, 59850, Note_on_c, 2, 69, 0
4, 59880, Note_on_c, 2, 61, 56
4, 59910, Note_on_c, 2, 61, 0
4, 60000, Note_on_c, 2, 57, 56
4, 60030, Note_on_c, 2, 57, 0
4, 60060, Note_on_c, 2, 57, 56
4, 60090, Note_on_c, 2, 57, 0
4, 60180, Note_on_c, 2, 57, 56
4, 60210, Note_on_c, 2, 57, 0
4, 60240, Note_on_c, 2, 69, 56
4, 60270, Note_on_c, 2, 69, 0
4, 60360, Note_on_c, 2, 65, 56
4, 60390, Note_on_c, 2, 65, 0
4, 60420, Note_on_c, 2, 61, 56
4, 60450, Note_on_c, 2, 61, 0
4, 60480, Note_on_c, 2, 62, 56
4, 60510, Note_on_c, 2, 62, 0
4, 60540, Note_on_c, 2, 57, 56
4, 60570, Note_on_c, 2, 57, 0
4, 60600, Note_on_c, 2, 55, 56
4, 60630, Note_on_c, 2, 55, 0
4, 60660, Note_on_c, 2, 53, 56
4, 60720, Note_on_c, 2, 53, 0
4, 60900, Note_on_c, 2, 62, 56
4, 60930, Note_on_c, 2, 62, 0
4, 60960, Note_on_c, 2, 67, 56
4, 60990, Note_on_c, 2, 67, 0
4, 61080, Note_on_c, 2, 67, 56
4, 61110, Note_on_c, 2, 67, 0
4, 61140, Note_on_c, 2, 62, 56
4, 61170, Note_on_c, 2, 62, 0
4, 61260, Note_on_c, 2, 67, 56
4, 61290, Note_on_c, 2, 67, 0
4, 61320, Note_on_c, 2, 67, 56
4, 61350, Note_on_c, 2, 67, 0
4, 61440, Note_on_c, 2, 67, 56
4, 61470, Note_on_c, 2, 67, 0
4, 61500, Note_on_c, 2, 64, 56
4, 61530, Note_on_c, 2, 64, 0
4, 61620, Note_on_c, 2, 60, 56
4, 61650, Note_on_c, 2, 60, 0
4, 61680, Note_on_c, 2, 65, 56
4, 61710, Note_on_c, 2, 65, 0
4, 61800, Note_on_c, 2, 65, 56
4, 61830, Note_on_c, 2, 65, 0
4, 61860, Note_on_c, 2, 60, 56
4, 61890, Note_on_c, 2, 60, 0
4, 61980, Note_on_c, 2, 58, 56
4, 62010, Note_on_c, 2, 58, 0
4, 62040, Note_on_c, 2, 62, 56
4, 62070, Note_on_c, 2, 62, 0
4, 62160, Note_on_c, 2, 62, 56
4, 62190, Note_on_c, 2, 62, 0
4, 62220, Note_on_c, 2, 58, 56
4, 62250, Note_on_c, 2, 58, 0
4, 62340, Note_on_c, 2, 55, 56
4, 62370, Note_on_c, 2, 55, 0
4, 62400, Note_on_c, 2, 60, 56
4, 62430, Note_on_c, 2, 60, 0
4, 62520, Note_on_c, 2, 67, 56
4, 62550, Note_on_c, 2, 67, 0
4, 62580, Note_on_c, 2, 60, 56
4, 62610, Note_on_c, 2, 60, 0
4, 62700, Note_on_c, 2, 60, 56
4, 62730, Note_on_c, 2, 60, 0
4, 62760, Note_on_c, 2, 69, 56
4, 62790, Note_on_c, 2, 69, 0
4, 62880, Note_on_c, 2, 70, 56
4, 62910, Note_on_c, 2, 70, 0
4, 62940, Note_on_c, 2, 72, 56
4, 62970, Note_on_c, 2, 72, 0
4, 63060, Note_on_c, 2, 69, 56
4, 63090, Note_on_c, 2, 69, 0
4, 63120, Note_on_c, 2, 62, 56
4, 63150, Note_on_c, 2, 62, 0
4, 63240, Note_on_c, 2, 62, 56
4, 63270, Note_on_c, 2, 62, 0
4, 63300, Note_on_c, 2, 67, 56
4, 63330, Note_on_c, 2, 67, 0
4, 63420, Note_on_c, 2, 67, 56
4, 63450, Note_on_c, 2, 67, 0
4, 63480, Note_on_c, 2, 64, 56
4, 63510, Note_on_c, 2, 64, 0
4, 63600, Note_on_c, 2, 67, 56
4, 63630, Note_on_c, 2, 67, 0
4, 63660, Note_on_c, 2, 60, 56
4, 63690, Note_on_c, 2, 60, 0
4, 63780, Note_on_c, 2, 60, 56
4, 63810, Note_on_c, 2, 60, 0
4, 63840, Note_on_c, 2, 60, 56
4, 63870, Note_on_c, 2, 60, 0
4, 63960, Note_on_c, 2, 59, 56
4, 63990, Note_on_c, 2, 59, 0
4, 64020, Note_on_c, 2, 62, 56
4, 64050, Note_on_c, 2, 62, 0
4, 64140, Note_on_c, 2, 60, 56
4, 64170, Note_on_c, 2, 60, 0
4, 64200, Note_on_c, 2, 64, 56
4, 64230, Note_on_c, 2, 64, 0
4, 64320, Note_on_c, 2, 67, 56
4, 64350, Note_on_c, 2, 67, 0
4, 64380, Note_on_c, 2, 72, 56
4, 64410, Note_on_c, 2, 72, 0
4, 64500, Note_on_c, 2, 71, 56
4, 64530, Note_on_c, 2, 71, 0
4, 64560, Note_on_c, 2, 69, 56
4, 64590, Note_on_c, 2, 69, 0
4, 64680, Note_on_c, 2, 72, 56
4, 64710, Note_on_c, 2, 72, 0
4, 64740, Note_on_c, 2, 72, 56
4, 64770, Note_on_c, 2, 72, 0
4, 64860, Note_on_c, 2, 68, 56
4, 64890, Note_on_c, 2, 68, 0
4, 64920, Note_on_c, 2, 65, 56
4, 64950, Note_on_c, 2, 65, 0
4, 65040, Note_on_c, 2, 64, 56
4, 65070, Note_on_c, 2, 64, 0
4, 65100, Note_on_c, 2, 65, 56
4, 65130, Note_on_c, 2, 65, 0
4, 65220, Note_on_c, 2, 65, 56
4, 65250, Note_on_c, 2, 65, 0
4, 65280, Note_on_c, 2, 65, 56
4, 65310, Note_on_c, 2, 65, 0
4, 65400, Note_on_c, 2, 67, 56
4, 65430, Note_on_c, 2, 67, 0
4, 65460, Note_on_c, 2, 67, 56
4, 65490, Note_on_c, 2, 67, 0
4, 65580, Note_on_c, 2, 65, 56
4, 65610, Note_on_c, 2, 65, 0
4, 65640, Note_on_c, 2, 61, 56
4, 65670, Note_on_c, 2, 61, 0
4, 65760, Note_on_c, 2, 65, 56
4, 65790, Note_on_c, 2, 65, 0
4, 65820, Note_on_c, 2, 62, 56
4, 65850, Note_on_c, 2, 62, 0
4, 65940, Note_on_c, 2, 67, 56
4, 65970, Note_on_c, 2, 67, 0
4, 66000, Note_on_c, 2, 65, 56
4, 66030, Note_on_c, 2, 65, 0
4, 66120, Note_on_c, 2, 67, 56
4, 66150, Note_on_c, 2, 67, 0
4, 66180, Note_on_c, 2, 67, 56
4, 66210, Note_on_c, 2, 67, 0
4, 66240, Note_on_c, 2, 65, 56
4, 66270, Note_on_c, 2, 65, 0
4, 66300, Note_on_c, 2, 60, 56
4, 66330, Note_on_c, 2, 60, 0
4, 66360, Note_on_c, 2, 58, 56
4, 66390, Note_on_c, 2, 58, 0
4, 66420, Note_on_c, 2, 57, 56
4, 66480, Note_on_c, 2, 57, 0
4, 76140, Note_on_c, 2, 65, 66
4, 76200, Note_on_c, 2, 65, 0
4, 76200, Note_on_c, 2, 64, 66
4, 76260, Note_on_c, 2, 64, 0
4, 76260, Note_on_c, 2, 62, 66
4, 76320, Note_on_c, 2, 62, 0
4, 76320, Note_on_c, 2, 64, 66
4, 76680, Note_on_c, 2, 64, 0
4, 80400, Note_on_c, 2, 57, 56
4, 80459, Note_on_c, 2, 57, 0
4, 80460, Note_on_c, 2, 62, 56
4, 80579, Note_on_c, 2, 62, 0
4, 80580, Note_on_c, 2, 61, 56
4, 80639, Note_on_c, 2, 61, 0
4, 80640, Note_on_c, 2, 62, 56
4, 80699, Note_on_c, 2, 62, 0
4, 80700, Note_on_c, 2, 64, 56
4, 80819, Note_on_c, 2, 64, 0
4, 80820, Note_on_c, 2, 65, 56
4, 80939, Note_on_c, 2, 65, 0
4, 80940, Note_on_c, 2, 64, 56
4, 80969, Note_on_c, 2, 64, 0
4, 80970, Note_on_c, 2, 62, 56
4, 80999, Note_on_c, 2, 62, 0
4, 81000, Note_on_c, 2, 65, 56
4, 81029, Note_on_c, 2, 65, 0
4, 81030, Note_on_c, 2, 64, 56
4, 81059, Note_on_c, 2, 64, 0
4, 81060, Note_on_c, 2, 62, 56
4, 81089, Note_on_c, 2, 62, 0
4, 81090, Note_on_c, 2, 61, 56
4, 81119, Note_on_c, 2, 61, 0
4, 81120, Note_on_c, 2, 62, 56
4, 81179, Note_on_c, 2, 62, 0
4, 81180, Note_on_c, 2, 64, 56
4, 81209, Note_on_c, 2, 64, 0
4, 81210, Note_on_c, 2, 65, 56
4, 81239, Note_on_c, 2, 65, 0
4, 81240, Note_on_c, 2, 64, 56
4, 81269, Note_on_c, 2, 64, 0
4, 81270, Note_on_c, 2, 62, 56
4, 81299, Note_on_c, 2, 62, 0
4, 81300, Note_on_c, 2, 60, 56
4, 81329, Note_on_c, 2, 60, 0
4, 81330, Note_on_c, 2, 59, 56
4, 81359, Note_on_c, 2, 59, 0
4, 81360, Note_on_c, 2, 60, 56
4, 81360, Note_on_c, 2, 52, 56
4, 81419, Note_on_c, 2, 52, 0
4, 81419, Note_on_c, 2, 60, 0
4, 81420, Note_on_c, 2, 57, 56
4, 81539, Note_on_c, 2, 57, 0
4, 81540, Note_on_c, 2, 56, 56
4, 81599, Note_on_c, 2, 56, 0
4, 81600, Note_on_c, 2, 57, 56
4, 81659, Note_on_c, 2, 57, 0
4, 81660, Note_on_c, 2, 59, 56
4, 81779, Note_on_c, 2, 59, 0
4, 81780, Note_on_c, 2, 60, 56
4, 81899, Note_on_c, 2, 60, 0
4, 81900, Note_on_c, 2, 59, 56
4, 81929, Note_on_c, 2, 59, 0
4, 81930, Note_on_c, 2, 57, 56
4, 81959, Note_on_c, 2, 57, 0
4, 81960, Note_on_c, 2, 60, 56
4, 81989, Note_on_c, 2, 60, 0
4, 81990, Note_on_c, 2, 59, 56
4, 82019, Note_on_c, 2, 59, 0
4, 82020, Note_on_c, 2, 57, 56
4, 82049, Note_on_c, 2, 57, 0
4, 82050, Note_on_c, 2, 56, 56
4, 82079, Note_on_c, 2, 56, 0
4, 82080, Note_on_c, 2, 57, 56
4, 82139, Note_on_c, 2, 57, 0
4, 82140, Note_on_c, 2, 60, 56
4, 82169, Note_on_c, 2, 60, 0
4, 82170, Note_on_c, 2, 59, 56
4, 82199, Note_on_c, 2, 59, 0
4, 82200, Note_on_c, 2, 57, 56
4, 82229, Note_on_c, 2, 57, 0
4, 82230, Note_on_c, 2, 59, 56
4, 82259, Note_on_c, 2, 59, 0
4, 82260, Note_on_c, 2, 60, 56
4, 82289, Note_on_c, 2, 60, 0
4, 82290, Note_on_c, 2, 62, 56
4, 82319, Note_on_c, 2, 62, 0
4, 82320, Note_on_c, 2, 64, 56
4, 82349, Note_on_c, 2, 64, 0
4, 82350, Note_on_c, 2, 62, 56
4, 82379, Note_on_c, 2, 62, 0
4, 82380, Note_on_c, 2, 64, 56
4, 82409, Note_on_c, 2, 64, 0
4, 82410, Note_on_c, 2, 65, 56
4, 82439, Note_on_c, 2, 65, 0
4, 82440, Note_on_c, 2, 67, 56
4, 82469, Note_on_c, 2, 67, 0
4, 82470, Note_on_c, 2, 65, 56
4, 82499, Note_on_c, 2, 65, 0
4, 82500, Note_on_c, 2, 67, 56
4, 82529, Note_on_c, 2, 67, 0
4, 82530, Note_on_c, 2, 64, 56
4, 82559, Note_on_c, 2, 64, 0
4, 82560, Note_on_c, 2, 65, 56
4, 82589, Note_on_c, 2, 65, 0
4, 82590, Note_on_c, 2, 58, 56
4, 82619, Note_on_c, 2, 58, 0
4, 82620, Note_on_c, 2, 57, 56
4, 82649, Note_on_c, 2, 57, 0
4, 82650, Note_on_c, 2, 55, 56
4, 82679, Note_on_c, 2, 55, 0
4, 82680, Note_on_c, 2, 53, 56
4, 82709, Note_on_c, 2, 53, 0
4, 82710, Note_on_c, 2, 55, 56
4, 82739, Note_on_c, 2, 55, 0
4, 82740, Note_on_c, 2, 57, 56
4, 82769, Note_on_c, 2, 57, 0
4, 82770, Note_on_c, 2, 58, 56
4, 82799, Note_on_c, 2, 58, 0
4, 82800, Note_on_c, 2, 60, 56
4, 82829, Note_on_c, 2, 60, 0
4, 82830, Note_on_c, 2, 58, 56
4, 82859, Note_on_c, 2, 58, 0
4, 82860, Note_on_c, 2, 60, 56
4, 82889, Note_on_c, 2, 60, 0
4, 82890, Note_on_c, 2, 62, 56
4, 82919, Note_on_c, 2, 62, 0
4, 82920, Note_on_c, 2, 64, 56
4, 82949, Note_on_c, 2, 64, 0
4, 82950, Note_on_c, 2, 62, 56
4, 82979, Note_on_c, 2, 62, 0
4, 82980, Note_on_c, 2, 64, 56
4, 83009, Note_on_c, 2, 64, 0
4, 83010, Note_on_c, 2, 61, 56
4, 83039, Note_on_c, 2, 61, 0
4, 83040, Note_on_c, 2, 62, 56
4, 83069, Note_on_c, 2, 62, 0
4, 83070, Note_on_c, 2, 55, 56
4, 83099, Note_on_c, 2, 55, 0
4, 83100, Note_on_c, 2, 53, 56
4, 83129, Note_on_c, 2, 53, 0
4, 83130, Note_on_c, 2, 52, 56
4, 83159, Note_on_c, 2, 52, 0
4, 83160, Note_on_c, 2, 50, 56
4, 83189, Note_on_c, 2, 50, 0
4, 83190, Note_on_c, 2, 52, 56
4, 83219, Note_on_c, 2, 52, 0
4, 83220, Note_on_c, 2, 53, 56
4, 83249, Note_on_c, 2, 53, 0
4, 83250, Note_on_c, 2, 55, 56
4, 83279, Note_on_c, 2, 55, 0
4, 83280, Note_on_c, 2, 57, 56
4, 83339, Note_on_c, 2, 57, 0
4, 83340, Note_on_c, 2, 69, 56
4, 83399, Note_on_c, 2, 69, 0
4, 83400, Note_on_c, 2, 69, 56
4, 83579, Note_on_c, 2, 69, 0
4, 83580, Note_on_c, 2, 69, 56
4, 83639, Note_on_c, 2, 69, 0
4, 83640, Note_on_c, 2, 69, 56
4, 83819, Note_on_c, 2, 69, 0
4, 83820, Note_on_c, 2, 69, 56
4, 83879, Note_on_c, 2, 69, 0
4, 83880, Note_on_c, 2, 69, 56
4, 83999, Note_on_c, 2, 69, 0
4, 84030, Note_on_c, 2, 67, 56
4, 84059, Note_on_c, 2, 67, 0
4, 84060, Note_on_c, 2, 69, 56
4, 84089, Note_on_c, 2, 69, 0
4, 84090, Note_on_c, 2, 70, 56
4, 84119, Note_on_c, 2, 70, 0
4, 84120, Note_on_c, 2, 69, 56
4, 84149, Note_on_c, 2, 69, 0
4, 84150, Note_on_c, 2, 67, 56
4, 84179, Note_on_c, 2, 67, 0
4, 84180, Note_on_c, 2, 65, 56
4, 84209, Note_on_c, 2, 65, 0
4, 84210, Note_on_c, 2, 64, 56
4, 84239, Note_on_c, 2, 64, 0
4, 84240, Note_on_c, 2, 62, 56
4, 84299, Note_on_c, 2, 62, 0
4, 84300, Note_on_c, 2, 67, 56
4, 84359, Note_on_c, 2, 67, 0
4, 84360, Note_on_c, 2, 58, 56
4, 84419, Note_on_c, 2, 58, 0
4, 84420, Note_on_c, 2, 67, 56
4, 84509, Note_on_c, 2, 67, 0
4, 84510, Note_on_c, 2, 65, 56
4, 84539, Note_on_c, 2, 65, 0
4, 84540, Note_on_c, 2, 67, 56
4, 84569, Note_on_c, 2, 67, 0
4, 84570, Note_on_c, 2, 69, 56
4, 84599, Note_on_c, 2, 69, 0
4, 84600, Note_on_c, 2, 67, 56
4, 84629, Note_on_c, 2, 67, 0
4, 84630, Note_on_c, 2, 65, 56
4, 84659, Note_on_c, 2, 65, 0
4, 84660, Note_on_c, 2, 64, 56
4, 84689, Note_on_c, 2, 64, 0
4, 84690, Note_on_c, 2, 62, 56
4, 84719, Note_on_c, 2, 62, 0
4, 84720, Note_on_c, 2, 60, 56
4, 84779, Note_on_c, 2, 60, 0
4, 84780, Note_on_c, 2, 65, 56
4, 84839, Note_on_c, 2, 65, 0
4, 84840, Note_on_c, 2, 57, 56
4, 84899, Note_on_c, 2, 57, 0
4, 84900, Note_on_c, 2, 65, 56
4, 84989, Note_on_c, 2, 65, 0
4, 84990, Note_on_c, 2, 63, 56
4, 85019, Note_on_c, 2, 63, 0
4, 85020, Note_on_c, 2, 65, 56
4, 85049, Note_on_c, 2, 65, 0
4, 85050, Note_on_c, 2, 67, 56
4, 85079, Note_on_c, 2, 67, 0
4, 85080, Note_on_c, 2, 65, 56
4, 85109, Note_on_c, 2, 65, 0
4, 85110, Note_on_c, 2, 63, 56
4, 85139, Note_on_c, 2, 63, 0
4, 85140, Note_on_c, 2, 62, 56
4, 85169, Note_on_c, 2, 62, 0
4, 85170, Note_on_c, 2, 60, 56
4, 85199, Note_on_c, 2, 60, 0
4, 85200, Note_on_c, 2, 58, 56
4, 85259, Note_on_c, 2, 58, 0
4, 85260, Note_on_c, 2, 67, 56
4, 85319, Note_on_c, 2, 67, 0
4, 85320, Note_on_c, 2, 55, 56
4, 85379, Note_on_c, 2, 55, 0
4, 85380, Note_on_c, 2, 64, 56
4, 85469, Note_on_c, 2, 64, 0
4, 85470, Note_on_c, 2, 62, 56
4, 85499, Note_on_c, 2, 62, 0
4, 85500, Note_on_c, 2, 64, 56
4, 85529, Note_on_c, 2, 64, 0
4, 85530, Note_on_c, 2, 65, 56
4, 85559, Note_on_c, 2, 65, 0
4, 85560, Note_on_c, 2, 67, 56
4, 85589, Note_on_c, 2, 67, 0
4, 85590, Note_on_c, 2, 64, 56
4, 85619, Note_on_c, 2, 64, 0
4, 85620, Note_on_c, 2, 65, 56
4, 85649, Note_on_c, 2, 65, 0
4, 85650, Note_on_c, 2, 67, 56
4, 85679, Note_on_c, 2, 67, 0
4, 85680, Note_on_c, 2, 69, 56
4, 85739, Note_on_c, 2, 69, 0
4, 85800, Note_on_c, 2, 67, 56
4, 85859, Note_on_c, 2, 67, 0
4, 85920, Note_on_c, 2, 65, 56
4, 85979, Note_on_c, 2, 65, 0
4, 86040, Note_on_c, 2, 70, 56
4, 86099, Note_on_c, 2, 70, 0
4, 86160, Note_on_c, 2, 69, 56
4, 86219, Note_on_c, 2, 69, 0
4, 86220, Note_on_c, 2, 65, 56
4, 86279, Note_on_c, 2, 65, 0
4, 86280, Note_on_c, 2, 67, 56
4, 86339, Note_on_c, 2, 67, 0
4, 86340, Note_on_c, 2, 64, 56
4, 86399, Note_on_c, 2, 64, 0
4, 86400, Note_on_c, 2, 65, 56
4, 86519, Note_on_c, 2, 65, 0
4, 93360, Note_on_c, 2, 72, 56
4, 93419, Note_on_c, 2, 72, 0
4, 93480, Note_on_c, 2, 71, 56
4, 93539, Note_on_c, 2, 71, 0
4, 93600, Note_on_c, 2, 76, 56
4, 93659, Note_on_c, 2, 76, 0
4, 93720, Note_on_c, 2, 74, 56
4, 93779, Note_on_c, 2, 74, 0
4, 93840, Note_on_c, 2, 68, 56
4, 93899, Note_on_c, 2, 68, 0
4, 93900, Note_on_c, 2, 69, 56
4, 93959, Note_on_c, 2, 69, 0
4, 93960, Note_on_c, 2, 65, 56
4, 94019, Note_on_c, 2, 65, 0
4, 94020, Note_on_c, 2, 64, 56
4, 94079, Note_on_c, 2, 64, 0
4, 94080, Note_on_c, 2, 64, 56
4, 94199, Note_on_c, 2, 64, 0
4, 102960, Note_on_c, 2, 69, 56
4, 103019, Note_on_c, 2, 69, 0
4, 103080, Note_on_c, 2, 67, 56
4, 103139, Note_on_c, 2, 67, 0
4, 103200, Note_on_c, 2, 72, 56
4, 103259, Note_on_c, 2, 72, 0
4, 103320, Note_on_c, 2, 70, 56
4, 103379, Note_on_c, 2, 70, 0
4, 103440, Note_on_c, 2, 64, 56
4, 103499, Note_on_c, 2, 64, 0
4, 103500, Note_on_c, 2, 65, 56
4, 103559, Note_on_c, 2, 65, 0
4, 103560, Note_on_c, 2, 62, 56
4, 103619, Note_on_c, 2, 62, 0
4, 103620, Note_on_c, 2, 60, 56
4, 103679, Note_on_c, 2, 60, 0
4, 103680, Note_on_c, 2, 60, 56
4, 103739, Note_on_c, 2, 60, 0
4, 103920, Note_on_c, 2, 67, 56
4, 103979, Note_on_c, 2, 67, 0
4, 104040, Note_on_c, 2, 65, 56
4, 104099, Note_on_c, 2, 65, 0
4, 104160, Note_on_c, 2, 64, 56
4, 104219, Note_on_c, 2, 64, 0
4, 104280, Note_on_c, 2, 62, 56
4, 104339, Note_on_c, 2, 62, 0
4, 104400, Note_on_c, 2, 55, 56
4, 104459, Note_on_c, 2, 55, 0
4, 104460, Note_on_c, 2, 60, 56
4, 104519, Note_on_c, 2, 60, 0
4, 104520, Note_on_c, 2, 57, 56
4, 104579, Note_on_c, 2, 57, 0
4, 104580, Note_on_c, 2, 55, 56
4, 104639, Note_on_c, 2, 55, 0
4, 104640, Note_on_c, 2, 55, 56
4, 104699, Note_on_c, 2, 55, 0
4, 104880, Note_on_c, 2, 69, 56
4, 104939, Note_on_c, 2, 69, 0
4, 104940, Note_on_c, 2, 69, 56
4, 104999, Note_on_c, 2, 69, 0
4, 105000, Note_on_c, 2, 69, 56
4, 105059, Note_on_c, 2, 69, 0
4, 105060, Note_on_c, 2, 69, 56
4, 105119, Note_on_c, 2, 69, 0
4, 105120, Note_on_c, 2, 67, 56
4, 105179, Note_on_c, 2, 67, 0
4, 105360, Note_on_c, 2, 67, 56
4, 105419, Note_on_c, 2, 67, 0
4, 105420, Note_on_c, 2, 67, 56
4, 105479, Note_on_c, 2, 67, 0
4, 105480, Note_on_c, 2, 67, 56
4, 105539, Note_on_c, 2, 67, 0
4, 105540, Note_on_c, 2, 67, 56
4, 105599, Note_on_c, 2, 67, 0
4, 105600, Note_on_c, 2, 65, 56
4, 105659, Note_on_c, 2, 65, 0
4, 105840, Note_on_c, 2, 65, 56
4, 105899, Note_on_c, 2, 65, 0
4, 105960, Note_on_c, 2, 67, 56
4, 106019, Note_on_c, 2, 67, 0
4, 106080, Note_on_c, 2, 69, 56
4, 106139, Note_on_c, 2, 69, 0
4, 106320, Note_on_c, 2, 67, 56
4, 106379, Note_on_c, 2, 67, 0
4, 106440, Note_on_c, 2, 67, 56
4, 106499, Note_on_c, 2, 67, 0
4, 106560, Note_on_c, 2, 67, 56
4, 106619, Note_on_c, 2, 67, 0
4, 106800, Note_on_c, 2, 69, 56
4, 106859, Note_on_c, 2, 69, 0
4, 106920, Note_on_c, 2, 67, 56
4, 106979, Note_on_c, 2, 67, 0
4, 107040, Note_on_c, 2, 66, 56
4, 107099, Note_on_c, 2, 66, 0
4, 107160, Note_on_c, 2, 64, 56
4, 107219, Note_on_c, 2, 64, 0
4, 107280, Note_on_c, 2, 64, 56
4, 107339, Note_on_c, 2, 64, 0
4, 107400, Note_on_c, 2, 62, 56
4, 107459, Note_on_c, 2, 62, 0
4, 107520, Note_on_c, 2, 62, 56
4, 107579, Note_on_c, 2, 62, 0
4, 107640, Note_on_c, 2, 60, 56
4, 107699, Note_on_c, 2, 60, 0
4, 107760, Note_on_c, 2, 60, 56
4, 107819, Note_on_c, 2, 60, 0
4, 107880, Note_on_c, 2, 62, 56
4, 107939, Note_on_c, 2, 62, 0
4, 108000, Note_on_c, 2, 59, 56
4, 108059, Note_on_c, 2, 59, 0
4, 108240, Note_on_c, 2, 57, 56
4, 108299, Note_on_c, 2, 57, 0
4, 108360, Note_on_c, 2, 65, 56
4, 108419, Note_on_c, 2, 65, 0
4, 108480, Note_on_c, 2, 64, 56
4, 108539, Note_on_c, 2, 64, 0
4, 108600, Note_on_c, 2, 69, 56
4, 108659, Note_on_c, 2, 69, 0
4, 108720, Note_on_c, 2, 64, 56
4, 108779, Note_on_c, 2, 64, 0
4, 108780, Note_on_c, 2, 57, 56
4, 108839, Note_on_c, 2, 57, 0
4, 108840, Note_on_c, 2, 57, 56
4, 108899, Note_on_c, 2, 57, 0
4, 108900, Note_on_c, 2, 64, 56
4, 108959, Note_on_c, 2, 64, 0
4, 108960, Note_on_c, 2, 69, 56
4, 109019, Note_on_c, 2, 69, 0
4, 109080, Note_on_c, 2, 65, 56
4, 109139, Note_on_c, 2, 65, 0
4, 109200, Note_on_c, 2, 69, 56
4, 109259, Note_on_c, 2, 69, 0
4, 109320, Note_on_c, 2, 62, 56
4, 109379, Note_on_c, 2, 62, 0
4, 109440, Note_on_c, 2, 69, 56
4, 109499, Note_on_c, 2, 69, 0
4, 109560, Note_on_c, 2, 65, 56
4, 109619, Note_on_c, 2, 65, 0
4, 109680, Note_on_c, 2, 69, 56
4, 109739, Note_on_c, 2, 69, 0
4, 109800, Note_on_c, 2, 62, 56
4, 109859, Note_on_c, 2, 62, 0
4, 109920, Note_on_c, 2, 69, 56
4, 109979, Note_on_c, 2, 69, 0
4, 109980, Note_on_c, 2, 62, 56
4, 110039, Note_on_c, 2, 62, 0
4, 110040, Note_on_c, 2, 59, 56
4, 110099, Note_on_c, 2, 59, 0
4, 110100, Note_on_c, 2, 64, 56
4, 110159, Note_on_c, 2, 64, 0
4, 110160, Note_on_c, 2, 64, 56
4, 110219, Note_on_c, 2, 64, 0
4, 118560, Note_on_c, 2, 74, 56
4, 118619, Note_on_c, 2, 74, 0
4, 118680, Note_on_c, 2, 72, 56
4, 118739, Note_on_c, 2, 72, 0
4, 118800, Note_on_c, 2, 70, 56
4, 118859, Note_on_c, 2, 70, 0
4, 118920, Note_on_c, 2, 63, 56
4, 118979, Note_on_c, 2, 63, 0
4, 119040, Note_on_c, 2, 62, 56
4, 119099, Note_on_c, 2, 62, 0
4, 119100, Note_on_c, 2, 58, 56
4, 119159, Note_on_c, 2, 58, 0
4, 119160, Note_on_c, 2, 63, 56
4, 119219, Note_on_c, 2, 63, 0
4, 119220, Note_on_c, 2, 62, 56
4, 119279, Note_on_c, 2, 62, 0
4, 119280, Note_on_c, 2, 62, 56
4, 119339, Note_on_c, 2, 62, 0
4, 119520, Note_on_c, 2, 65, 56
4, 119579, Note_on_c, 2, 65, 0
4, 119640, Note_on_c, 2, 67, 56
4, 119699, Note_on_c, 2, 67, 0
4, 119760, Note_on_c, 2, 72, 56
4, 119819, Note_on_c, 2, 72, 0
4, 119880, Note_on_c, 2, 70, 56
4, 119939, Note_on_c, 2, 70, 0
4, 120000, Note_on_c, 2, 69, 56
4, 120059, Note_on_c, 2, 69, 0
4, 120060, Note_on_c, 2, 69, 56
4, 120119, Note_on_c, 2, 69, 0
4, 120120, Note_on_c, 2, 70, 56
4, 120179, Note_on_c, 2, 70, 0
4, 120180, Note_on_c, 2, 67, 56
4, 120239, Note_on_c, 2, 67, 0
4, 120240, Note_on_c, 2, 69, 56
4, 120299, Note_on_c, 2, 69, 0
4, 120480, Note_on_c, 2, 65, 56
4, 120539, Note_on_c, 2, 65, 0
4, 120540, Note_on_c, 2, 65, 56
4, 120599, Note_on_c, 2, 65, 0
4, 120600, Note_on_c, 2, 65, 56
4, 120659, Note_on_c, 2, 65, 0
4, 120660, Note_on_c, 2, 65, 56
4, 120719, Note_on_c, 2, 65, 0
4, 120720, Note_on_c, 2, 64, 56
4, 120779, Note_on_c, 2, 64, 0
4, 120960, Note_on_c, 2, 60, 56
4, 121019, Note_on_c, 2, 60, 0
4, 121020, Note_on_c, 2, 60, 56
4, 121079, Note_on_c, 2, 60, 0
4, 121080, Note_on_c, 2, 60, 56
4, 121139, Note_on_c, 2, 60, 0
4, 121140, Note_on_c, 2, 60, 56
4, 121199, Note_on_c, 2, 60, 0
4, 121200, Note_on_c, 2, 58, 56
4, 121259, Note_on_c, 2, 58, 0
4, 121440, Note_on_c, 2, 58, 56
4, 121499, Note_on_c, 2, 58, 0
4, 121560, Note_on_c, 2, 60, 56
4, 121619, Note_on_c, 2, 60, 0
4, 121680, Note_on_c, 2, 62, 56
4, 121739, Note_on_c, 2, 62, 0
4, 121920, Note_on_c, 2, 60, 56
4, 121979, Note_on_c, 2, 60, 0
4, 122040, Note_on_c, 2, 60, 56
4, 122099, Note_on_c, 2, 60, 0
4, 122160, Note_on_c, 2, 60, 56
4, 122219, Note_on_c, 2, 60, 0
4, 122400, Note_on_c, 2, 62, 56
4, 122459, Note_on_c, 2, 62, 0
4, 122520, Note_on_c, 2, 60, 56
4, 122579, Note_on_c, 2, 60, 0
4, 122640, Note_on_c, 2, 59, 56
4, 122699, Note_on_c, 2, 59, 0
4, 122760, Note_on_c, 2, 57, 56
4, 122819, Note_on_c, 2, 57, 0
4, 122880, Note_on_c, 2, 57, 56
4, 122939, Note_on_c, 2, 57, 0
4, 123000, Note_on_c, 2, 55, 56
4, 123059, Note_on_c, 2, 55, 0
4, 123120, Note_on_c, 2, 55, 56
4, 123179, Note_on_c, 2, 55, 0
4, 123240, Note_on_c, 2, 53, 56
4, 123299, Note_on_c, 2, 53, 0
4, 123360, Note_on_c, 2, 53, 56
4, 123419, Note_on_c, 2, 53, 0
4, 123480, Note_on_c, 2, 55, 56
4, 123539, Note_on_c, 2, 55, 0
4, 123600, Note_on_c, 2, 52, 56
4, 123659, Note_on_c, 2, 52, 0
4, 123840, Note_on_c, 2, 57, 56
4, 123899, Note_on_c, 2, 57, 0
4, 123900, Note_on_c, 2, 62, 56
4, 124019, Note_on_c, 2, 62, 0
4, 124020, Note_on_c, 2, 61, 56
4, 124079, Note_on_c, 2, 61, 0
4, 124080, Note_on_c, 2, 62, 56
4, 124139, Note_on_c, 2, 62, 0
4, 124140, Note_on_c, 2, 64, 56
4, 124259, Note_on_c, 2, 64, 0
4, 124260, Note_on_c, 2, 65, 56
4, 124379, Note_on_c, 2, 65, 0
4, 124380, Note_on_c, 2, 64, 56
4, 124409, Note_on_c, 2, 64, 0
4, 124410, Note_on_c, 2, 62, 56
4, 124439, Note_on_c, 2, 62, 0
4, 124440, Note_on_c, 2, 65, 56
4, 124469, Note_on_c, 2, 65, 0
4, 124470, Note_on_c, 2, 64, 56
4, 124499, Note_on_c, 2, 64, 0
4, 124500, Note_on_c, 2, 62, 56
4, 124529, Note_on_c, 2, 62, 0
4, 124530, Note_on_c, 2, 61, 56
4, 124559, Note_on_c, 2, 61, 0
4, 124560, Note_on_c, 2, 62, 56
4, 124619, Note_on_c, 2, 62, 0
4, 124680, Note_on_c, 2, 65, 56
4, 124739, Note_on_c, 2, 65, 0
4, 124800, Note_on_c, 2, 65, 56
4, 124859, Note_on_c, 2, 65, 0
4, 125040, Note_on_c, 2, 67, 56
4, 125099, Note_on_c, 2, 67, 0
4, 125160, Note_on_c, 2, 69, 56
4, 125219, Note_on_c, 2, 69, 0
4, 125280, Note_on_c, 2, 72, 56
4, 125339, Note_on_c, 2, 72, 0
4, 125520, Note_on_c, 2, 60, 56
4, 125579, Note_on_c, 2, 60, 0
4, 125640, Note_on_c, 2, 62, 56
4, 125699, Note_on_c, 2, 62, 0
4, 125760, Note_on_c, 2, 64, 56
4, 125819, Note_on_c, 2, 64, 0
4, 126000, Note_on_c, 2, 65, 56
4, 126059, Note_on_c, 2, 65, 0
4, 126120, Note_on_c, 2, 67, 56
4, 126179, Note_on_c, 2, 67, 0
4, 126240, Note_on_c, 2, 70, 56
4, 126299, Note_on_c, 2, 70, 0
4, 126480, Note_on_c, 2, 58, 56
4, 126539, Note_on_c, 2, 58, 0
4, 126600, Note_on_c, 2, 60, 56
4, 126659, Note_on_c, 2, 60, 0
4, 126720, Note_on_c, 2, 62, 56
4, 126779, Note_on_c, 2, 62, 0
4, 126960, Note_on_c, 2, 61, 56
4, 127019, Note_on_c, 2, 61, 0
4, 127080, Note_on_c, 2, 62, 56
4, 127139, Note_on_c, 2, 62, 0
4, 127200, Note_on_c, 2, 64, 56
4, 127259, Note_on_c, 2, 64, 0
4, 127440, Note_on_c, 2, 64, 56
4, 127499, Note_on_c, 2, 64, 0
4, 127560, Note_on_c, 2, 61, 56
4, 127619, Note_on_c, 2, 61, 0
4, 127680, Note_on_c, 2, 62, 56
4, 127739, Note_on_c, 2, 62, 0
4, 127920, Note_on_c, 2, 69, 56
4, 127979, Note_on_c, 2, 69, 0
4, 128040, Note_on_c, 2, 67, 56
4, 128099, Note_on_c, 2, 67, 0
4, 128160, Note_on_c, 2, 65, 56
4, 128219, Note_on_c, 2, 65, 0
4, 128280, Note_on_c, 2, 70, 56
4, 128339, Note_on_c, 2, 70, 0
4, 128400, Note_on_c, 2, 69, 56
4, 128459, Note_on_c, 2, 69, 0
4, 128460, Note_on_c, 2, 65, 56
4, 128519, Note_on_c, 2, 65, 0
4, 128520, Note_on_c, 2, 67, 56
4, 128579, Note_on_c, 2, 67, 0
4, 128580, Note_on_c, 2, 64, 56
4, 128639, Note_on_c, 2, 64, 0
4, 128640, Note_on_c, 2, 62, 56
4, 128699, Note_on_c, 2, 62, 0
4, 128760, Note_on_c, 2, 67, 56
4, 128819, Note_on_c, 2, 67, 0
4, 128880, Note_on_c, 2, 67, 56
4, 128939, Note_on_c, 2, 67, 0
4, 129000, Note_on_c, 2, 69, 56
4, 129059, Note_on_c, 2, 69, 0
4, 129120, Note_on_c, 2, 69, 56
4, 129179, Note_on_c, 2, 69, 0
4, 129180, Note_on_c, 2, 70, 56
4, 129239, Note_on_c, 2, 70, 0
4, 129240, Note_on_c, 2, 70, 56
4, 129299, Note_on_c, 2, 70, 0
4, 129300, Note_on_c, 2, 69, 56
4, 129359, Note_on_c, 2, 69, 0
4, 129360, Note_on_c, 2, 69, 56
4, 129419, Note_on_c, 2, 69, 0
4, 129480, Note_on_c, 2, 67, 56
4, 129539, Note_on_c, 2, 67, 0
4, 129600, Note_on_c, 2, 69, 56
4, 129659, Note_on_c, 2, 69, 0
4, 129720, Note_on_c, 2, 70, 56
4, 129779, Note_on_c, 2, 70, 0
4, 129840, Note_on_c, 2, 65, 56
4, 129899, Note_on_c, 2, 65, 0
4, 129960, Note_on_c, 2, 64, 56
4, 130019, Note_on_c, 2, 64, 0
4, 130080, Note_on_c, 2, 65, 56
4, 130139, Note_on_c, 2, 65, 0
4, 130200, Note_on_c, 2, 67, 56
4, 130259, Note_on_c, 2, 67, 0
4, 130320, Note_on_c, 2, 62, 56
4, 130379, Note_on_c, 2, 62, 0
4, 130380, Note_on_c, 2, 67, 56
4, 130439, Note_on_c, 2, 67, 0
4, 130440, Note_on_c, 2, 65, 56
4, 130499, Note_on_c, 2, 65, 0
4, 130500, Note_on_c, 2, 64, 56
4, 130559, Note_on_c, 2, 64, 0
4, 130560, Note_on_c, 2, 65, 56
4, 130799, Note_on_c, 2, 65, 0
4, 130799, End_track
5, 0, Start_track
5, 0, MIDI_port, 0
5, 0, Title_t, "cello"
5, 0, Program_c, 3, 42
5, 60, Note_on_c, 3, 50, 100
5, 120, Note_on_c, 3, 50, 0
5, 120, Note_on_c, 3, 52, 100
5, 180, Note_on_c, 3, 52, 0
5, 180, Note_on_c, 3, 53, 100
5, 240, Note_on_c, 3, 53, 0
5, 240, Note_on_c, 3, 53, 100
5, 300, Note_on_c, 3, 53, 0
5, 300, Note_on_c, 3, 55, 100
5, 360, Note_on_c, 3, 55, 0
5, 360, Note_on_c, 3, 57, 100
5, 420, Note_on_c, 3, 57, 0
5, 420, Note_on_c, 3, 57, 100
5, 480, Note_on_c, 3, 57, 0
5, 480, Note_on_c, 3, 58, 100
5, 540, Note_on_c, 3, 58, 0
5, 540, Note_on_c, 3, 57, 100
5, 600, Note_on_c, 3, 57, 0
5, 600, Note_on_c, 3, 55, 100
5, 630, Note_on_c, 3, 55, 0
5, 630, Note_on_c, 3, 53, 100
5, 660, Note_on_c, 3, 53, 0
5, 660, Note_on_c, 3, 52, 100
5, 690, Note_on_c, 3, 52, 0
5, 690, Note_on_c, 3, 50, 100
5, 720, Note_on_c, 3, 50, 0
5, 720, Note_on_c, 3, 49, 100
5, 780, Note_on_c, 3, 49, 0
5, 780, Note_on_c, 3, 45, 100
5, 810, Note_on_c, 3, 45, 0
5, 810, Note_on_c, 3, 47, 100
5, 840, Note_on_c, 3, 47, 0
5, 840, Note_on_c, 3, 49, 100
5, 870, Note_on_c, 3, 49, 0
5, 870, Note_on_c, 3, 50, 100
5, 900, Note_on_c, 3, 50, 0
5, 900, Note_on_c, 3, 52, 100
5, 960, Note_on_c, 3, 52, 0
5, 960, Note_on_c, 3, 52, 100
5, 1020, Note_on_c, 3, 52, 0
5, 1020, Note_on_c, 3, 53, 100
5, 1080, Note_on_c, 3, 53, 0
5, 1080, Note_on_c, 3, 52, 100
5, 1140, Note_on_c, 3, 52, 0
5, 1140, Note_on_c, 3, 45, 100
5, 1170, Note_on_c, 3, 45, 0
5, 1170, Note_on_c, 3, 47, 100
5, 1200, Note_on_c, 3, 47, 0
5, 1200, Note_on_c, 3, 49, 100
5, 1230, Note_on_c, 3, 49, 0
5, 1230, Note_on_c, 3, 50, 100
5, 1260, Note_on_c, 3, 50, 0
5, 1260, Note_on_c, 3, 52, 100
5, 1320, Note_on_c, 3, 52, 0
5, 1320, Note_on_c, 3, 52, 100
5, 1380, Note_on_c, 3, 52, 0
5, 1380, Note_on_c, 3, 53, 100
5, 1440, Note_on_c, 3, 53, 0
5, 1440, Note_on_c, 3, 52, 100
5, 1500, Note_on_c, 3, 52, 0
5, 1500, Note_on_c, 3, 45, 100
5, 1530, Note_on_c, 3, 45, 0
5, 1530, Note_on_c, 3, 47, 100
5, 1560, Note_on_c, 3, 47, 0
5, 1560, Note_on_c, 3, 49, 100
5, 1590, Note_on_c, 3, 49, 0
5, 1590, Note_on_c, 3, 50, 100
5, 1620, Note_on_c, 3, 50, 0
5, 1620, Note_on_c, 3, 52, 100
5, 1650, Note_on_c, 3, 52, 0
5, 1650, Note_on_c, 3, 50, 100
5, 1680, Note_on_c, 3, 50, 0
5, 1680, Note_on_c, 3, 49, 100
5, 1710, Note_on_c, 3, 49, 0
5, 1710, Note_on_c, 3, 50, 100
5, 1740, Note_on_c, 3, 50, 0
5, 1740, Note_on_c, 3, 52, 100
5, 1770, Note_on_c, 3, 52, 0
5, 1770, Note_on_c, 3, 53, 100
5, 1800, Note_on_c, 3, 53, 0
5, 1800, Note_on_c, 3, 55, 100
5, 1830, Note_on_c, 3, 55, 0
5, 1830, Note_on_c, 3, 53, 100
5, 1860, Note_on_c, 3, 53, 0
5, 1860, Note_on_c, 3, 52, 100
5, 1890, Note_on_c, 3, 52, 0
5, 1890, Note_on_c, 3, 53, 100
5, 1920, Note_on_c, 3, 53, 0
5, 1920, Note_on_c, 3, 55, 100
5, 1950, Note_on_c, 3, 55, 0
5, 1950, Note_on_c, 3, 57, 100
5, 1980, Note_on_c, 3, 57, 0
5, 1980, Note_on_c, 3, 58, 100
5, 2010, Note_on_c, 3, 58, 0
5, 2010, Note_on_c, 3, 57, 100
5, 2040, Note_on_c, 3, 57, 0
5, 2040, Note_on_c, 3, 55, 100
5, 2070, Note_on_c, 3, 55, 0
5, 2070, Note_on_c, 3, 53, 100
5, 2100, Note_on_c, 3, 53, 0
5, 2100, Note_on_c, 3, 52, 100
5, 2130, Note_on_c, 3, 52, 0
5, 2130, Note_on_c, 3, 50, 100
5, 2160, Note_on_c, 3, 50, 0
5, 2160, Note_on_c, 3, 49, 100
5, 2190, Note_on_c, 3, 49, 0
5, 2190, Note_on_c, 3, 52, 100
5, 2220, Note_on_c, 3, 52, 0
5, 2220, Note_on_c, 3, 45, 100
5, 2250, Note_on_c, 3, 45, 0
5, 2250, Note_on_c, 3, 49, 100
5, 2280, Note_on_c, 3, 49, 0
5, 2280, Note_on_c, 3, 50, 100
5, 2340, Note_on_c, 3, 50, 0
5, 2370, Note_on_c, 3, 43, 100
5, 2400, Note_on_c, 3, 43, 0
5, 2400, Note_on_c, 3, 45, 100
5, 2460, Note_on_c, 3, 45, 0
5, 2460, Note_on_c, 3, 45, 100
5, 2520, Note_on_c, 3, 45, 0
5, 2520, Note_on_c, 3, 38, 100
5, 2580, Note_on_c, 3, 38, 0
5, 2760, Note_on_c, 3, 50, 100
5, 2820, Note_on_c, 3, 50, 0
5, 2820, Note_on_c, 3, 52, 100
5, 2880, Note_on_c, 3, 52, 0
5, 2880, Note_on_c, 3, 53, 100
5, 2940, Note_on_c, 3, 53, 0
5, 2940, Note_on_c, 3, 53, 100
5, 3000, Note_on_c, 3, 53, 0
5, 3000, Note_on_c, 3, 55, 100
5, 3060, Note_on_c, 3, 55, 0
5, 3060, Note_on_c, 3, 57, 100
5, 3120, Note_on_c, 3, 57, 0
5, 3120, Note_on_c, 3, 57, 100
5, 3180, Note_on_c, 3, 57, 0
5, 3180, Note_on_c, 3, 58, 100
5, 3240, Note_on_c, 3, 58, 0
5, 3240, Note_on_c, 3, 57, 100
5, 3300, Note_on_c, 3, 57, 0
5, 3300, Note_on_c, 3, 55, 100
5, 3330, Note_on_c, 3, 55, 0
5, 3330, Note_on_c, 3, 53, 100
5, 3360, Note_on_c, 3, 53, 0
5, 3360, Note_on_c, 3, 52, 100
5, 3390, Note_on_c, 3, 52, 0
5, 3390, Note_on_c, 3, 50, 100
5, 3420, Note_on_c, 3, 50, 0
5, 3420, Note_on_c, 3, 49, 100
5, 3480, Note_on_c, 3, 49, 0
5, 3480, Note_on_c, 3, 45, 100
5, 3540, Note_on_c, 3, 45, 0
5, 3540, Note_on_c, 3, 50, 100
5, 3600, Note_on_c, 3, 50, 0
5, 3600, Note_on_c, 3, 45, 100
5, 3660, Note_on_c, 3, 45, 0
5, 3660, Note_on_c, 3, 49, 100
5, 3720, Note_on_c, 3, 49, 0
5, 3720, Note_on_c, 3, 52, 100
5, 3780, Note_on_c, 3, 52, 0
5, 3780, Note_on_c, 3, 57, 100
5, 3840, Note_on_c, 3, 57, 0
5, 3840, Note_on_c, 3, 61, 100
5, 3900, Note_on_c, 3, 61, 0
5, 3900, Note_on_c, 3, 62, 100
5, 3960, Note_on_c, 3, 62, 0
5, 3960, Note_on_c, 3, 57, 100
5, 4020, Note_on_c, 3, 57, 0
5, 4020, Note_on_c, 3, 57, 100
5, 4080, Note_on_c, 3, 57, 0
5, 4080, Note_on_c, 3, 57, 100
5, 4140, Note_on_c, 3, 57, 0
5, 4140, Note_on_c, 3, 57, 100
5, 4200, Note_on_c, 3, 57, 0
5, 4200, Note_on_c, 3, 45, 100
5, 4260, Note_on_c, 3, 45, 0
5, 4260, Note_on_c, 3, 47, 100
5, 4320, Note_on_c, 3, 47, 0
5, 4320, Note_on_c, 3, 48, 100
5, 4380, Note_on_c, 3, 48, 0
5, 4380, Note_on_c, 3, 48, 100
5, 4440, Note_on_c, 3, 48, 0
5, 4440, Note_on_c, 3, 50, 100
5, 4500, Note_on_c, 3, 50, 0
5, 4500, Note_on_c, 3, 52, 100
5, 4560, Note_on_c, 3, 52, 0
5, 4560, Note_on_c, 3, 52, 100
5, 4620, Note_on_c, 3, 52, 0
5, 4620, Note_on_c, 3, 53, 100
5, 4680, Note_on_c, 3, 53, 0
5, 4680, Note_on_c, 3, 52, 100
5, 4740, Note_on_c, 3, 52, 0
5, 4740, Note_on_c, 3, 50, 100
5, 4770, Note_on_c, 3, 50, 0
5, 4770, Note_on_c, 3, 48, 100
5, 4800, Note_on_c, 3, 48, 0
5, 4800, Note_on_c, 3, 47, 100
5, 4830, Note_on_c, 3, 47, 0
5, 4830, Note_on_c, 3, 45, 100
5, 4860, Note_on_c, 3, 45, 0
5, 4860, Note_on_c, 3, 44, 100
5, 4920, Note_on_c, 3, 44, 0
5, 4920, Note_on_c, 3, 40, 100
5, 4980, Note_on_c, 3, 40, 0
5, 4980, Note_on_c, 3, 45, 100
5, 5040, Note_on_c, 3, 45, 0
5, 5040, Note_on_c, 3, 40, 100
5, 5100, Note_on_c, 3, 40, 0
5, 5100, Note_on_c, 3, 52, 100
5, 5160, Note_on_c, 3, 52, 0
5, 5160, Note_on_c, 3, 40, 100
5, 5220, Note_on_c, 3, 40, 0
5, 5220, Note_on_c, 3, 45, 100
5, 5280, Note_on_c, 3, 45, 0
5, 5280, Note_on_c, 3, 57, 100
5, 5340, Note_on_c, 3, 57, 0
5, 5340, Note_on_c, 3, 45, 100
5, 5400, Note_on_c, 3, 45, 0
5, 5400, Note_on_c, 3, 38, 90
5, 5459, Note_on_c, 3, 38, 0
5, 5460, Note_on_c, 3, 50, 90
5, 5519, Note_on_c, 3, 50, 0
5, 5520, Note_on_c, 3, 38, 90
5, 5579, Note_on_c, 3, 38, 0
5, 5580, Note_on_c, 3, 43, 90
5, 5639, Note_on_c, 3, 43, 0
5, 5640, Note_on_c, 3, 55, 90
5, 5699, Note_on_c, 3, 55, 0
5, 5700, Note_on_c, 3, 43, 90
5, 5759, Note_on_c, 3, 43, 0
5, 5760, Note_on_c, 3, 48, 90
5, 5819, Note_on_c, 3, 48, 0
5, 5820, Note_on_c, 3, 60, 90
5, 5879, Note_on_c, 3, 60, 0
5, 5880, Note_on_c, 3, 48, 90
5, 5939, Note_on_c, 3, 48, 0
5, 5940, Note_on_c, 3, 53, 90
5, 5999, Note_on_c, 3, 53, 0
5, 6000, Note_on_c, 3, 52, 90
5, 6059, Note_on_c, 3, 52, 0
5, 6060, Note_on_c, 3, 50, 90
5, 6119, Note_on_c, 3, 50, 0
5, 6120, Note_on_c, 3, 52, 90
5, 6179, Note_on_c, 3, 52, 0
5, 6180, Note_on_c, 3, 50, 90
5, 6209, Note_on_c, 3, 50, 0
5, 6210, Note_on_c, 3, 48, 90
5, 6239, Note_on_c, 3, 48, 0
5, 6240, Note_on_c, 3, 47, 90
5, 6269, Note_on_c, 3, 47, 0
5, 6270, Note_on_c, 3, 45, 90
5, 6299, Note_on_c, 3, 45, 0
5, 6300, Note_on_c, 3, 44, 90
5, 6359, Note_on_c, 3, 44, 0
5, 6360, Note_on_c, 3, 40, 90
5, 6419, Note_on_c, 3, 40, 0
5, 6420, Note_on_c, 3, 45, 90
5, 6479, Note_on_c, 3, 45, 0
5, 6480, Note_on_c, 3, 40, 90
5, 6539, Note_on_c, 3, 40, 0
5, 6540, Note_on_c, 3, 40, 90
5, 6569, Note_on_c, 3, 40, 0
5, 6570, Note_on_c, 3, 42, 90
5, 6599, Note_on_c, 3, 42, 0
5, 6600, Note_on_c, 3, 44, 90
5, 6629, Note_on_c, 3, 44, 0
5, 6630, Note_on_c, 3, 45, 90
5, 6659, Note_on_c, 3, 45, 0
5, 6660, Note_on_c, 3, 47, 90
5, 6689, Note_on_c, 3, 47, 0
5, 6690, Note_on_c, 3, 45, 90
5, 6719, Note_on_c, 3, 45, 0
5, 6720, Note_on_c, 3, 44, 90
5, 6749, Note_on_c, 3, 44, 0
5, 6750, Note_on_c, 3, 45, 90
5, 6779, Note_on_c, 3, 45, 0
5, 6780, Note_on_c, 3, 47, 90
5, 6809, Note_on_c, 3, 47, 0
5, 6810, Note_on_c, 3, 48, 90
5, 6839, Note_on_c, 3, 48, 0
5, 6840, Note_on_c, 3, 50, 90
5, 6869, Note_on_c, 3, 50, 0
5, 6870, Note_on_c, 3, 48, 90
5, 6899, Note_on_c, 3, 48, 0
5, 6900, Note_on_c, 3, 47, 90
5, 6929, Note_on_c, 3, 47, 0
5, 6930, Note_on_c, 3, 48, 90
5, 6959, Note_on_c, 3, 48, 0
5, 6960, Note_on_c, 3, 50, 90
5, 6989, Note_on_c, 3, 50, 0
5, 6990, Note_on_c, 3, 52, 90
5, 7019, Note_on_c, 3, 52, 0
5, 7020, Note_on_c, 3, 53, 90
5, 7049, Note_on_c, 3, 53, 0
5, 7050, Note_on_c, 3, 52, 90
5, 7079, Note_on_c, 3, 52, 0
5, 7080, Note_on_c, 3, 50, 90
5, 7109, Note_on_c, 3, 50, 0
5, 7110, Note_on_c, 3, 48, 90
5, 7139, Note_on_c, 3, 48, 0
5, 7140, Note_on_c, 3, 47, 90
5, 7169, Note_on_c, 3, 47, 0
5, 7170, Note_on_c, 3, 45, 90
5, 7199, Note_on_c, 3, 45, 0
5, 7200, Note_on_c, 3, 44, 90
5, 7229, Note_on_c, 3, 44, 0
5, 7230, Note_on_c, 3, 47, 90
5, 7259, Note_on_c, 3, 47, 0
5, 7260, Note_on_c, 3, 40, 90
5, 7289, Note_on_c, 3, 40, 0
5, 7290, Note_on_c, 3, 44, 90
5, 7319, Note_on_c, 3, 44, 0
5, 7320, Note_on_c, 3, 45, 90
5, 7379, Note_on_c, 3, 45, 0
5, 7410, Note_on_c, 3, 38, 90
5, 7439, Note_on_c, 3, 38, 0
5, 7440, Note_on_c, 3, 40, 90
5, 7499, Note_on_c, 3, 40, 0
5, 7500, Note_on_c, 3, 40, 90
5, 7559, Note_on_c, 3, 40, 0
5, 7560, Note_on_c, 3, 45, 90
5, 7679, Note_on_c, 3, 45, 0
5, 7740, Note_on_c, 3, 45, 90
5, 7859, Note_on_c, 3, 45, 0
5, 7980, Note_on_c, 3, 57, 90
5, 8039, Note_on_c, 3, 57, 0
5, 8040, Note_on_c, 3, 55, 90
5, 8099, Note_on_c, 3, 55, 0
5, 8100, Note_on_c, 3, 53, 90
5, 8159, Note_on_c, 3, 53, 0
5, 8160, Note_on_c, 3, 53, 90
5, 8219, Note_on_c, 3, 53, 0
5, 8220, Note_on_c, 3, 52, 90
5, 8279, Note_on_c, 3, 52, 0
5, 8280, Note_on_c, 3, 50, 90
5, 8399, Note_on_c, 3, 50, 0
5, 8460, Note_on_c, 3, 50, 90
5, 8579, Note_on_c, 3, 50, 0
5, 8700, Note_on_c, 3, 50, 90
5, 8759, Note_on_c, 3, 50, 0
5, 8760, Note_on_c, 3, 48, 90
5, 8819, Note_on_c, 3, 48, 0
5, 8820, Note_on_c, 3, 46, 90
5, 8879, Note_on_c, 3, 46, 0
5, 8880, Note_on_c, 3, 46, 90
5, 8939, Note_on_c, 3, 46, 0
5, 8940, Note_on_c, 3, 45, 90
5, 8999, Note_on_c, 3, 45, 0
5, 9000, Note_on_c, 3, 43, 90
5, 9059, Note_on_c, 3, 43, 0
5, 9060, Note_on_c, 3, 43, 90
5, 9119, Note_on_c, 3, 43, 0
5, 9120, Note_on_c, 3, 43, 90
5, 9179, Note_on_c, 3, 43, 0
5, 9180, Note_on_c, 3, 48, 90
5, 9239, Note_on_c, 3, 48, 0
5, 9240, Note_on_c, 3, 48, 90
5, 9299, Note_on_c, 3, 48, 0
5, 9300, Note_on_c, 3, 48, 90
5, 9359, Note_on_c, 3, 48, 0
5, 9360, Note_on_c, 3, 41, 90
5, 9419, Note_on_c, 3, 41, 0
5, 9420, Note_on_c, 3, 41, 90
5, 9479, Note_on_c, 3, 41, 0
5, 9480, Note_on_c, 3, 41, 90
5, 9539, Note_on_c, 3, 41, 0
5, 9540, Note_on_c, 3, 46, 90
5, 9599, Note_on_c, 3, 46, 0
5, 9600, Note_on_c, 3, 46, 90
5, 9659, Note_on_c, 3, 46, 0
5, 9660, Note_on_c, 3, 46, 90
5, 9719, Note_on_c, 3, 46, 0
5, 9720, Note_on_c, 3, 40, 90
5, 9779, Note_on_c, 3, 40, 0
5, 9780, Note_on_c, 3, 40, 90
5, 9839, Note_on_c, 3, 40, 0
5, 9840, Note_on_c, 3, 40, 90
5, 9899, Note_on_c, 3, 40, 0
5, 9900, Note_on_c, 3, 45, 90
5, 9959, Note_on_c, 3, 45, 0
5, 9960, Note_on_c, 3, 45, 90
5, 10019, Note_on_c, 3, 45, 0
5, 10020, Note_on_c, 3, 45, 90
5, 10079, Note_on_c, 3, 45, 0
5, 10080, Note_on_c, 3, 50, 90
5, 10139, Note_on_c, 3, 50, 0
5, 10140, Note_on_c, 3, 41, 90
5, 10199, Note_on_c, 3, 41, 0
5, 10200, Note_on_c, 3, 45, 90
5, 10259, Note_on_c, 3, 45, 0
5, 10260, Note_on_c, 3, 38, 90
5, 10319, Note_on_c, 3, 38, 0
5, 10320, Note_on_c, 3, 50, 90
5, 10379, Note_on_c, 3, 50, 0
5, 10380, Note_on_c, 3, 52, 90
5, 10439, Note_on_c, 3, 52, 0
5, 10440, Note_on_c, 3, 53, 90
5, 10499, Note_on_c, 3, 53, 0
5, 10500, Note_on_c, 3, 53, 90
5, 10559, Note_on_c, 3, 53, 0
5, 10560, Note_on_c, 3, 55, 90
5, 10619, Note_on_c, 3, 55, 0
5, 10620, Note_on_c, 3, 57, 90
5, 10679, Note_on_c, 3, 57, 0
5, 10680, Note_on_c, 3, 57, 90
5, 10739, Note_on_c, 3, 57, 0
5, 10740, Note_on_c, 3, 58, 90
5, 10799, Note_on_c, 3, 58, 0
5, 10800, Note_on_c, 3, 57, 90
5, 10859, Note_on_c, 3, 57, 0
5, 10860, Note_on_c, 3, 55, 90
5, 10889, Note_on_c, 3, 55, 0
5, 10890, Note_on_c, 3, 53, 90
5, 10919, Note_on_c, 3, 53, 0
5, 10920, Note_on_c, 3, 52, 90
5, 10949, Note_on_c, 3, 52, 0
5, 10950, Note_on_c, 3, 50, 90
5, 10979, Note_on_c, 3, 50, 0
5, 10980, Note_on_c, 3, 49, 90
5, 11039, Note_on_c, 3, 49, 0
5, 11040, Note_on_c, 3, 45, 90
5, 11099, Note_on_c, 3, 45, 0
5, 11100, Note_on_c, 3, 50, 90
5, 11159, Note_on_c, 3, 50, 0
5, 11160, Note_on_c, 3, 45, 90
5, 11519, Note_on_c, 3, 45, 0
5, 11580, Note_on_c, 3, 45, 90
5, 11609, Note_on_c, 3, 45, 0
5, 11610, Note_on_c, 3, 47, 90
5, 11639, Note_on_c, 3, 47, 0
5, 11640, Note_on_c, 3, 49, 90
5, 11669, Note_on_c, 3, 49, 0
5, 11670, Note_on_c, 3, 50, 90
5, 11699, Note_on_c, 3, 50, 0
5, 11700, Note_on_c, 3, 52, 90
5, 11729, Note_on_c, 3, 52, 0
5, 11730, Note_on_c, 3, 50, 90
5, 11759, Note_on_c, 3, 50, 0
5, 11760, Note_on_c, 3, 49, 90
5, 11789, Note_on_c, 3, 49, 0
5, 11790, Note_on_c, 3, 50, 90
5, 11819, Note_on_c, 3, 50, 0
5, 11820, Note_on_c, 3, 52, 90
5, 11849, Note_on_c, 3, 52, 0
5, 11850, Note_on_c, 3, 53, 90
5, 11879, Note_on_c, 3, 53, 0
5, 11880, Note_on_c, 3, 55, 90
5, 11909, Note_on_c, 3, 55, 0
5, 11910, Note_on_c, 3, 53, 90
5, 11939, Note_on_c, 3, 53, 0
5, 11940, Note_on_c, 3, 52, 90
5, 11969, Note_on_c, 3, 52, 0
5, 11970, Note_on_c, 3, 53, 90
5, 11999, Note_on_c, 3, 53, 0
5, 12000, Note_on_c, 3, 55, 90
5, 12029, Note_on_c, 3, 55, 0
5, 12030, Note_on_c, 3, 57, 90
5, 12059, Note_on_c, 3, 57, 0
5, 12060, Note_on_c, 3, 58, 90
5, 12089, Note_on_c, 3, 58, 0
5, 12090, Note_on_c, 3, 57, 90
5, 12119, Note_on_c, 3, 57, 0
5, 12120, Note_on_c, 3, 55, 90
5, 12149, Note_on_c, 3, 55, 0
5, 12150, Note_on_c, 3, 53, 90
5, 12179, Note_on_c, 3, 53, 0
5, 12180, Note_on_c, 3, 52, 90
5, 12209, Note_on_c, 3, 52, 0
5, 12210, Note_on_c, 3, 50, 90
5, 12239, Note_on_c, 3, 50, 0
5, 12240, Note_on_c, 3, 49, 90
5, 12269, Note_on_c, 3, 49, 0
5, 12270, Note_on_c, 3, 52, 90
5, 12299, Note_on_c, 3, 52, 0
5, 12300, Note_on_c, 3, 45, 90
5, 12329, Note_on_c, 3, 45, 0
5, 12330, Note_on_c, 3, 43, 90
5, 12359, Note_on_c, 3, 43, 0
5, 12360, Note_on_c, 3, 41, 90
5, 12419, Note_on_c, 3, 41, 0
5, 12450, Note_on_c, 3, 43, 90
5, 12479, Note_on_c, 3, 43, 0
5, 12480, Note_on_c, 3, 45, 90
5, 12539, Note_on_c, 3, 45, 0
5, 12540, Note_on_c, 3, 43, 90
5, 12599, Note_on_c, 3, 43, 0
5, 12600, Note_on_c, 3, 42, 90
5, 12720, Note_on_c, 3, 42, 0
5, 12780, Note_on_c, 3, 43, 90
5, 12900, Note_on_c, 3, 43, 0
5, 12960, Note_on_c, 3, 44, 90
5, 13080, Note_on_c, 3, 44, 0
5, 13140, Note_on_c, 3, 45, 90
5, 13260, Note_on_c, 3, 45, 0
5, 13320, Note_on_c, 3, 46, 90
5, 13440, Note_on_c, 3, 46, 0
5, 13500, Note_on_c, 3, 47, 90
5, 13620, Note_on_c, 3, 47, 0
5, 13680, Note_on_c, 3, 49, 90
5, 13709, Note_on_c, 3, 49, 0
5, 13710, Note_on_c, 3, 58, 90
5, 13739, Note_on_c, 3, 58, 0
5, 13740, Note_on_c, 3, 57, 90
5, 13769, Note_on_c, 3, 57, 0
5, 13770, Note_on_c, 3, 55, 90
5, 13799, Note_on_c, 3, 55, 0
5, 13800, Note_on_c, 3, 53, 90
5, 13829, Note_on_c, 3, 53, 0
5, 13830, Note_on_c, 3, 62, 90
5, 13859, Note_on_c, 3, 62, 0
5, 13860, Note_on_c, 3, 58, 90
5, 13889, Note_on_c, 3, 58, 0
5, 13890, Note_on_c, 3, 55, 90
5, 13919, Note_on_c, 3, 55, 0
5, 13920, Note_on_c, 3, 57, 90
5, 13979, Note_on_c, 3, 57, 0
5, 13980, Note_on_c, 3, 45, 90
5, 14039, Note_on_c, 3, 45, 0
5, 14040, Note_on_c, 3, 38, 90
5, 14159, Note_on_c, 3, 38, 0
5, 14220, Note_on_c, 3, 52, 90
5, 14279, Note_on_c, 3, 52, 0
5, 14280, Note_on_c, 3, 49, 90
5, 14339, Note_on_c, 3, 49, 0
5, 14340, Note_on_c, 3, 45, 90
5, 14399, Note_on_c, 3, 45, 0
5, 14400, Note_on_c, 3, 50, 90
5, 14519, Note_on_c, 3, 50, 0
5, 14580, Note_on_c, 3, 59, 90
5, 14639, Note_on_c, 3, 59, 0
5, 14640, Note_on_c, 3, 56, 90
5, 14699, Note_on_c, 3, 56, 0
5, 14700, Note_on_c, 3, 52, 90
5, 14759, Note_on_c, 3, 52, 0
5, 14760, Note_on_c, 3, 57, 90
5, 14879, Note_on_c, 3, 57, 0
5, 14940, Note_on_c, 3, 54, 90
5, 14999, Note_on_c, 3, 54, 0
5, 15000, Note_on_c, 3, 51, 90
5, 15059, Note_on_c, 3, 51, 0
5, 15060, Note_on_c, 3, 47, 90
5, 15119, Note_on_c, 3, 47, 0
5, 15120, Note_on_c, 3, 52, 90
5, 15239, Note_on_c, 3, 52, 0
5, 15300, Note_on_c, 3, 52, 90
5, 15419, Note_on_c, 3, 52, 0
5, 15480, Note_on_c, 3, 52, 90
5, 15539, Note_on_c, 3, 52, 0
5, 15540, Note_on_c, 3, 64, 90
5, 15599, Note_on_c, 3, 64, 0
5, 15600, Note_on_c, 3, 56, 90
5, 15659, Note_on_c, 3, 56, 0
5, 15660, Note_on_c, 3, 57, 90
5, 15719, Note_on_c, 3, 57, 0
5, 15720, Note_on_c, 3, 50, 90
5, 15779, Note_on_c, 3, 50, 0
5, 15780, Note_on_c, 3, 52, 90
5, 15839, Note_on_c, 3, 52, 0
5, 15840, Note_on_c, 3, 45, 90
5, 15959, Note_on_c, 3, 45, 0
5, 16020, Note_on_c, 3, 45, 90
5, 16139, Note_on_c, 3, 45, 0
5, 16200, Note_on_c, 3, 45, 90
5, 16259, Note_on_c, 3, 45, 0
5, 16260, Note_on_c, 3, 57, 90
5, 16319, Note_on_c, 3, 57, 0
5, 16320, Note_on_c, 3, 49, 90
5, 16379, Note_on_c, 3, 49, 0
5, 16380, Note_on_c, 3, 50, 90
5, 16439, Note_on_c, 3, 50, 0
5, 16440, Note_on_c, 3, 43, 90
5, 16499, Note_on_c, 3, 43, 0
5, 16500, Note_on_c, 3, 45, 90
5, 16559, Note_on_c, 3, 45, 0
5, 16560, Note_on_c, 3, 50, 90
5, 16619, Note_on_c, 3, 50, 0
5, 16620, Note_on_c, 3, 54, 90
5, 16679, Note_on_c, 3, 54, 0
5, 16680, Note_on_c, 3, 50, 90
5, 16739, Note_on_c, 3, 50, 0
5, 16740, Note_on_c, 3, 55, 90
5, 16799, Note_on_c, 3, 55, 0
5, 16800, Note_on_c, 3, 58, 90
5, 16859, Note_on_c, 3, 58, 0
5, 16860, Note_on_c, 3, 55, 90
5, 16919, Note_on_c, 3, 55, 0
5, 16920, Note_on_c, 3, 48, 90
5, 16979, Note_on_c, 3, 48, 0
5, 16980, Note_on_c, 3, 51, 90
5, 17039, Note_on_c, 3, 51, 0
5, 17040, Note_on_c, 3, 48, 90
5, 17099, Note_on_c, 3, 48, 0
5, 17100, Note_on_c, 3, 50, 90
5, 17220, Note_on_c, 3, 50, 0
5, 17280, Note_on_c, 3, 50, 90
5, 17400, Note_on_c, 3, 50, 0
5, 17460, Note_on_c, 3, 50, 90
5, 17519, Note_on_c, 3, 50, 0
5, 17520, Note_on_c, 3, 62, 90
5, 17579, Note_on_c, 3, 62, 0
5, 17580, Note_on_c, 3, 54, 90
5, 17639, Note_on_c, 3, 54, 0
5, 17640, Note_on_c, 3, 55, 90
5, 17699, Note_on_c, 3, 55, 0
5, 17700, Note_on_c, 3, 48, 90
5, 17759, Note_on_c, 3, 48, 0
5, 17760, Note_on_c, 3, 50, 90
5, 17819, Note_on_c, 3, 50, 0
5, 17820, Note_on_c, 3, 55, 90
5, 17879, Note_on_c, 3, 55, 0
5, 17880, Note_on_c, 3, 60, 90
5, 17939, Note_on_c, 3, 60, 0
5, 17940, Note_on_c, 3, 48, 90
5, 17999, Note_on_c, 3, 48, 0
5, 18000, Note_on_c, 3, 53, 90
5, 18059, Note_on_c, 3, 53, 0
5, 18060, Note_on_c, 3, 58, 90
5, 18119, Note_on_c, 3, 58, 0
5, 18120, Note_on_c, 3, 46, 90
5, 18179, Note_on_c, 3, 46, 0
5, 18180, Note_on_c, 3, 52, 90
5, 18239, Note_on_c, 3, 52, 0
5, 18240, Note_on_c, 3, 57, 90
5, 18299, Note_on_c, 3, 57, 0
5, 18300, Note_on_c, 3, 45, 90
5, 18359, Note_on_c, 3, 45, 0
5, 18360, Note_on_c, 3, 50, 90
5, 18419, Note_on_c, 3, 50, 0
5, 18420, Note_on_c, 3, 55, 90
5, 18479, Note_on_c, 3, 55, 0
5, 18480, Note_on_c, 3, 43, 90
5, 18539, Note_on_c, 3, 43, 0
5, 18540, Note_on_c, 3, 48, 90
5, 18599, Note_on_c, 3, 48, 0
5, 18600, Note_on_c, 3, 52, 90
5, 18659, Note_on_c, 3, 52, 0
5, 18720, Note_on_c, 3, 53, 90
5, 18779, Note_on_c, 3, 53, 0
5, 18780, Note_on_c, 3, 60, 90
5, 18839, Note_on_c, 3, 60, 0
5, 18840, Note_on_c, 3, 48, 90
5, 18899, Note_on_c, 3, 48, 0
5, 18900, Note_on_c, 3, 40, 90
5, 18959, Note_on_c, 3, 40, 0
5, 18960, Note_on_c, 3, 40, 90
5, 19019, Note_on_c, 3, 40, 0
5, 19020, Note_on_c, 3, 40, 90
5, 19079, Note_on_c, 3, 40, 0
5, 19080, Note_on_c, 3, 41, 90
5, 19139, Note_on_c, 3, 41, 0
5, 19140, Note_on_c, 3, 50, 90
5, 19199, Note_on_c, 3, 50, 0
5, 19200, Note_on_c, 3, 45, 90
5, 19259, Note_on_c, 3, 45, 0
5, 19290, Note_on_c, 3, 46, 90
5, 19319, Note_on_c, 3, 46, 0
5, 19320, Note_on_c, 3, 48, 90
5, 19379, Note_on_c, 3, 48, 0
5, 19380, Note_on_c, 3, 36, 90
5, 19439, Note_on_c, 3, 36, 0
5, 19440, Note_on_c, 3, 41, 90
5, 19559, Note_on_c, 3, 41, 0
5, 19680, Note_on_c, 3, 41, 90
5, 19739, Note_on_c, 3, 41, 0
5, 19740, Note_on_c, 3, 43, 90
5, 19799, Note_on_c, 3, 43, 0
5, 19800, Note_on_c, 3, 45, 90
5, 19859, Note_on_c, 3, 45, 0
5, 19860, Note_on_c, 3, 45, 90
5, 19919, Note_on_c, 3, 45, 0
5, 19920, Note_on_c, 3, 46, 90
5, 19979, Note_on_c, 3, 46, 0
5, 19980, Note_on_c, 3, 48, 90
5, 20039, Note_on_c, 3, 48, 0
5, 20040, Note_on_c, 3, 48, 90
5, 20099, Note_on_c, 3, 48, 0
5, 20100, Note_on_c, 3, 50, 90
5, 20159, Note_on_c, 3, 50, 0
5, 20160, Note_on_c, 3, 48, 90
5, 20219, Note_on_c, 3, 48, 0
5, 20220, Note_on_c, 3, 46, 90
5, 20249, Note_on_c, 3, 46, 0
5, 20250, Note_on_c, 3, 45, 90
5, 20279, Note_on_c, 3, 45, 0
5, 20280, Note_on_c, 3, 43, 90
5, 20309, Note_on_c, 3, 43, 0
5, 20310, Note_on_c, 3, 41, 90
5, 20339, Note_on_c, 3, 41, 0
5, 20340, Note_on_c, 3, 40, 90
5, 20399, Note_on_c, 3, 40, 0
5, 20400, Note_on_c, 3, 36, 90
5, 20459, Note_on_c, 3, 36, 0
5, 20460, Note_on_c, 3, 41, 90
5, 20519, Note_on_c, 3, 41, 0
5, 20520, Note_on_c, 3, 48, 90
5, 20579, Note_on_c, 3, 48, 0
5, 20580, Note_on_c, 3, 52, 90
5, 20639, Note_on_c, 3, 52, 0
5, 20640, Note_on_c, 3, 55, 90
5, 20699, Note_on_c, 3, 55, 0
5, 20700, Note_on_c, 3, 60, 90
5, 20759, Note_on_c, 3, 60, 0
5, 20760, Note_on_c, 3, 64, 90
5, 20819, Note_on_c, 3, 64, 0
5, 20820, Note_on_c, 3, 65, 90
5, 20879, Note_on_c, 3, 65, 0
5, 20880, Note_on_c, 3, 60, 90
5, 20939, Note_on_c, 3, 60, 0
5, 21120, Note_on_c, 3, 48, 90
5, 21179, Note_on_c, 3, 48, 0
5, 21180, Note_on_c, 3, 50, 90
5, 21239, Note_on_c, 3, 50, 0
5, 21240, Note_on_c, 3, 52, 90
5, 21299, Note_on_c, 3, 52, 0
5, 21300, Note_on_c, 3, 52, 90
5, 21359, Note_on_c, 3, 52, 0
5, 21360, Note_on_c, 3, 53, 90
5, 21419, Note_on_c, 3, 53, 0
5, 21420, Note_on_c, 3, 55, 90
5, 21479, Note_on_c, 3, 55, 0
5, 21480, Note_on_c, 3, 55, 90
5, 21539, Note_on_c, 3, 55, 0
5, 21540, Note_on_c, 3, 57, 90
5, 21599, Note_on_c, 3, 57, 0
5, 21600, Note_on_c, 3, 55, 90
5, 21659, Note_on_c, 3, 55, 0
5, 21660, Note_on_c, 3, 53, 90
5, 21689, Note_on_c, 3, 53, 0
5, 21690, Note_on_c, 3, 52, 90
5, 21719, Note_on_c, 3, 52, 0
5, 21720, Note_on_c, 3, 50, 90
5, 21749, Note_on_c, 3, 50, 0
5, 21750, Note_on_c, 3, 48, 90
5, 21779, Note_on_c, 3, 48, 0
5, 21780, Note_on_c, 3, 47, 90
5, 21839, Note_on_c, 3, 47, 0
5, 21840, Note_on_c, 3, 43, 90
5, 21899, Note_on_c, 3, 43, 0
5, 21900, Note_on_c, 3, 48, 90
5, 21959, Note_on_c, 3, 48, 0
5, 21960, Note_on_c, 3, 43, 90
5, 22019, Note_on_c, 3, 43, 0
5, 22020, Note_on_c, 3, 55, 90
5, 22079, Note_on_c, 3, 55, 0
5, 22080, Note_on_c, 3, 43, 90
5, 22139, Note_on_c, 3, 43, 0
5, 22140, Note_on_c, 3, 48, 90
5, 22199, Note_on_c, 3, 48, 0
5, 22200, Note_on_c, 3, 60, 90
5, 22259, Note_on_c, 3, 60, 0
5, 22260, Note_on_c, 3, 48, 90
5, 22319, Note_on_c, 3, 48, 0
5, 22320, Note_on_c, 3, 41, 90
5, 22379, Note_on_c, 3, 41, 0
5, 22380, Note_on_c, 3, 53, 90
5, 22439, Note_on_c, 3, 53, 0
5, 22440, Note_on_c, 3, 41, 90
5, 22499, Note_on_c, 3, 41, 0
5, 22500, Note_on_c, 3, 46, 90
5, 22559, Note_on_c, 3, 46, 0
5, 22560, Note_on_c, 3, 58, 90
5, 22619, Note_on_c, 3, 58, 0
5, 22620, Note_on_c, 3, 46, 90
5, 22679, Note_on_c, 3, 46, 0
5, 22680, Note_on_c, 3, 58, 90
5, 22769, Note_on_c, 3, 58, 0
5, 22770, Note_on_c, 3, 55, 90
5, 22799, Note_on_c, 3, 55, 0
5, 22800, Note_on_c, 3, 57, 90
5, 22859, Note_on_c, 3, 57, 0
5, 22890, Note_on_c, 3, 58, 90
5, 22919, Note_on_c, 3, 58, 0
5, 22920, Note_on_c, 3, 60, 90
5, 22979, Note_on_c, 3, 60, 0
5, 22980, Note_on_c, 3, 48, 90
5, 23039, Note_on_c, 3, 48, 0
5, 23040, Note_on_c, 3, 53, 90
5, 23099, Note_on_c, 3, 53, 0
5, 23100, Note_on_c, 3, 41, 90
5, 23159, Note_on_c, 3, 41, 0
5, 23160, Note_on_c, 3, 43, 90
5, 23219, Note_on_c, 3, 43, 0
5, 23220, Note_on_c, 3, 45, 90
5, 23279, Note_on_c, 3, 45, 0
5, 23280, Note_on_c, 3, 45, 90
5, 23339, Note_on_c, 3, 45, 0
5, 23340, Note_on_c, 3, 46, 90
5, 23399, Note_on_c, 3, 46, 0
5, 23400, Note_on_c, 3, 48, 90
5, 23520, Note_on_c, 3, 48, 0
5, 23580, Note_on_c, 3, 36, 90
5, 23700, Note_on_c, 3, 36, 0
5, 23820, Note_on_c, 3, 52, 90
5, 23879, Note_on_c, 3, 52, 0
5, 23880, Note_on_c, 3, 50, 90
5, 23939, Note_on_c, 3, 50, 0
5, 23940, Note_on_c, 3, 49, 90
5, 23999, Note_on_c, 3, 49, 0
5, 24000, Note_on_c, 3, 47, 90
5, 24059, Note_on_c, 3, 47, 0
5, 24060, Note_on_c, 3, 45, 90
5, 24119, Note_on_c, 3, 45, 0
5, 24120, Note_on_c, 3, 50, 90
5, 24179, Note_on_c, 3, 50, 0
5, 24180, Note_on_c, 3, 38, 90
5, 24239, Note_on_c, 3, 38, 0
5, 24240, Note_on_c, 3, 40, 90
5, 24299, Note_on_c, 3, 40, 0
5, 24300, Note_on_c, 3, 41, 90
5, 24359, Note_on_c, 3, 41, 0
5, 24360, Note_on_c, 3, 41, 90
5, 24419, Note_on_c, 3, 41, 0
5, 24420, Note_on_c, 3, 43, 90
5, 24479, Note_on_c, 3, 43, 0
5, 24480, Note_on_c, 3, 45, 90
5, 24599, Note_on_c, 3, 45, 0
5, 24660, Note_on_c, 3, 57, 90
5, 24779, Note_on_c, 3, 57, 0
5, 24900, Note_on_c, 3, 45, 90
5, 24959, Note_on_c, 3, 45, 0
5, 24960, Note_on_c, 3, 43, 90
5, 25019, Note_on_c, 3, 43, 0
5, 25020, Note_on_c, 3, 42, 90
5, 25079, Note_on_c, 3, 42, 0
5, 25080, Note_on_c, 3, 40, 90
5, 25139, Note_on_c, 3, 40, 0
5, 25140, Note_on_c, 3, 38, 90
5, 25199, Note_on_c, 3, 38, 0
5, 25200, Note_on_c, 3, 43, 90
5, 25259, Note_on_c, 3, 43, 0
5, 25260, Note_on_c, 3, 55, 90
5, 25319, Note_on_c, 3, 55, 0
5, 25320, Note_on_c, 3, 53, 90
5, 25379, Note_on_c, 3, 53, 0
5, 25380, Note_on_c, 3, 51, 90
5, 25439, Note_on_c, 3, 51, 0
5, 25440, Note_on_c, 3, 48, 90
5, 25499, Note_on_c, 3, 48, 0
5, 25620, Note_on_c, 3, 53, 90
5, 25679, Note_on_c, 3, 53, 0
5, 25680, Note_on_c, 3, 51, 90
5, 25739, Note_on_c, 3, 51, 0
5, 25740, Note_on_c, 3, 50, 90
5, 25799, Note_on_c, 3, 50, 0
5, 25800, Note_on_c, 3, 46, 90
5, 25859, Note_on_c, 3, 46, 0
5, 25980, Note_on_c, 3, 51, 90
5, 26039, Note_on_c, 3, 51, 0
5, 26040, Note_on_c, 3, 50, 90
5, 26099, Note_on_c, 3, 50, 0
5, 26100, Note_on_c, 3, 48, 90
5, 26159, Note_on_c, 3, 48, 0
5, 26160, Note_on_c, 3, 45, 90
5, 26219, Note_on_c, 3, 45, 0
5, 26340, Note_on_c, 3, 50, 90
5, 26399, Note_on_c, 3, 50, 0
5, 26400, Note_on_c, 3, 48, 90
5, 26459, Note_on_c, 3, 48, 0
5, 26460, Note_on_c, 3, 47, 90
5, 26519, Note_on_c, 3, 47, 0
5, 26520, Note_on_c, 3, 43, 90
5, 26579, Note_on_c, 3, 43, 0
5, 26640, Note_on_c, 3, 48, 90
5, 26699, Note_on_c, 3, 48, 0
5, 26700, Note_on_c, 3, 60, 90
5, 26759, Note_on_c, 3, 60, 0
5, 26760, Note_on_c, 3, 48, 90
5, 26819, Note_on_c, 3, 48, 0
5, 26820, Note_on_c, 3, 48, 90
5, 26939, Note_on_c, 3, 48, 0
5, 27000, Note_on_c, 3, 48, 90
5, 27059, Note_on_c, 3, 48, 0
5, 27060, Note_on_c, 3, 60, 90
5, 27119, Note_on_c, 3, 60, 0
5, 27120, Note_on_c, 3, 48, 90
5, 27179, Note_on_c, 3, 48, 0
5, 27180, Note_on_c, 3, 48, 90
5, 27299, Note_on_c, 3, 48, 0
5, 27360, Note_on_c, 3, 48, 90
5, 27419, Note_on_c, 3, 48, 0
5, 27420, Note_on_c, 3, 60, 90
5, 27479, Note_on_c, 3, 60, 0
5, 27480, Note_on_c, 3, 48, 90
5, 27539, Note_on_c, 3, 48, 0
5, 27540, Note_on_c, 3, 48, 90
5, 27659, Note_on_c, 3, 48, 0
5, 27720, Note_on_c, 3, 49, 90
5, 27779, Note_on_c, 3, 49, 0
5, 27780, Note_on_c, 3, 61, 90
5, 27839, Note_on_c, 3, 61, 0
5, 27840, Note_on_c, 3, 49, 90
5, 27899, Note_on_c, 3, 49, 0
5, 27900, Note_on_c, 3, 49, 90
5, 28019, Note_on_c, 3, 49, 0
5, 28080, Note_on_c, 3, 50, 90
5, 28139, Note_on_c, 3, 50, 0
5, 28140, Note_on_c, 3, 62, 90
5, 28199, Note_on_c, 3, 62, 0
5, 28200, Note_on_c, 3, 50, 90
5, 28259, Note_on_c, 3, 50, 0
5, 28260, Note_on_c, 3, 50, 90
5, 28379, Note_on_c, 3, 50, 0
5, 28440, Note_on_c, 3, 50, 90
5, 28499, Note_on_c, 3, 50, 0
5, 28500, Note_on_c, 3, 62, 90
5, 28559, Note_on_c, 3, 62, 0
5, 28560, Note_on_c, 3, 50, 90
5, 28619, Note_on_c, 3, 50, 0
5, 28620, Note_on_c, 3, 50, 90
5, 28739, Note_on_c, 3, 50, 0
5, 28800, Note_on_c, 3, 50, 90
5, 28859, Note_on_c, 3, 50, 0
5, 28860, Note_on_c, 3, 62, 90
5, 28919, Note_on_c, 3, 62, 0
5, 28920, Note_on_c, 3, 50, 90
5, 28979, Note_on_c, 3, 50, 0
5, 28980, Note_on_c, 3, 50, 90
5, 29099, Note_on_c, 3, 50, 0
5, 29220, Note_on_c, 3, 43, 90
5, 29279, Note_on_c, 3, 43, 0
5, 29280, Note_on_c, 3, 45, 90
5, 29339, Note_on_c, 3, 45, 0
5, 29340, Note_on_c, 3, 46, 90
5, 29399, Note_on_c, 3, 46, 0
5, 29400, Note_on_c, 3, 46, 90
5, 29459, Note_on_c, 3, 46, 0
5, 29460, Note_on_c, 3, 48, 90
5, 29519, Note_on_c, 3, 48, 0
5, 29520, Note_on_c, 3, 50, 90
5, 29579, Note_on_c, 3, 50, 0
5, 29580, Note_on_c, 3, 50, 90
5, 29639, Note_on_c, 3, 50, 0
5, 29640, Note_on_c, 3, 51, 90
5, 29699, Note_on_c, 3, 51, 0
5, 29700, Note_on_c, 3, 50, 90
5, 29759, Note_on_c, 3, 50, 0
5, 29760, Note_on_c, 3, 48, 90
5, 29789, Note_on_c, 3, 48, 0
5, 29790, Note_on_c, 3, 46, 90
5, 29819, Note_on_c, 3, 46, 0
5, 29820, Note_on_c, 3, 45, 90
5, 29849, Note_on_c, 3, 45, 0
5, 29850, Note_on_c, 3, 43, 90
5, 29879, Note_on_c, 3, 43, 0
5, 29880, Note_on_c, 3, 42, 90
5, 29939, Note_on_c, 3, 42, 0
5, 29940, Note_on_c, 3, 38, 90
5, 29969, Note_on_c, 3, 38, 0
5, 29970, Note_on_c, 3, 40, 90
5, 29999, Note_on_c, 3, 40, 0
5, 30000, Note_on_c, 3, 42, 90
5, 30029, Note_on_c, 3, 42, 0
5, 30030, Note_on_c, 3, 43, 90
5, 30059, Note_on_c, 3, 43, 0
5, 30060, Note_on_c, 3, 45, 90
5, 30119, Note_on_c, 3, 45, 0
5, 30120, Note_on_c, 3, 45, 90
5, 30179, Note_on_c, 3, 45, 0
5, 30180, Note_on_c, 3, 46, 90
5, 30239, Note_on_c, 3, 46, 0
5, 30240, Note_on_c, 3, 45, 90
5, 30299, Note_on_c, 3, 45, 0
5, 30300, Note_on_c, 3, 38, 90
5, 30329, Note_on_c, 3, 38, 0
5, 30330, Note_on_c, 3, 40, 90
5, 30359, Note_on_c, 3, 40, 0
5, 30360, Note_on_c, 3, 42, 90
5, 30389, Note_on_c, 3, 42, 0
5, 30390, Note_on_c, 3, 43, 90
5, 30419, Note_on_c, 3, 43, 0
5, 30420, Note_on_c, 3, 45, 90
5, 30479, Note_on_c, 3, 45, 0
5, 30480, Note_on_c, 3, 45, 90
5, 30539, Note_on_c, 3, 45, 0
5, 30540, Note_on_c, 3, 46, 90
5, 30599, Note_on_c, 3, 46, 0
5, 30600, Note_on_c, 3, 45, 90
5, 30659, Note_on_c, 3, 45, 0
5, 30660, Note_on_c, 3, 42, 90
5, 30719, Note_on_c, 3, 42, 0
5, 30720, Note_on_c, 3, 38, 90
5, 30779, Note_on_c, 3, 38, 0
5, 30780, Note_on_c, 3, 43, 90
5, 30839, Note_on_c, 3, 43, 0
5, 30840, Note_on_c, 3, 39, 90
5, 30899, Note_on_c, 3, 39, 0
5, 30900, Note_on_c, 3, 36, 90
5, 30959, Note_on_c, 3, 36, 0
5, 30960, Note_on_c, 3, 41, 90
5, 31019, Note_on_c, 3, 41, 0
5, 31020, Note_on_c, 3, 53, 90
5, 31079, Note_on_c, 3, 53, 0
5, 31080, Note_on_c, 3, 51, 90
5, 31139, Note_on_c, 3, 51, 0
5, 31140, Note_on_c, 3, 50, 90
5, 31199, Note_on_c, 3, 50, 0
5, 31200, Note_on_c, 3, 55, 90
5, 31259, Note_on_c, 3, 55, 0
5, 31260, Note_on_c, 3, 43, 90
5, 31319, Note_on_c, 3, 43, 0
5, 31320, Note_on_c, 3, 48, 90
5, 31379, Note_on_c, 3, 48, 0
5, 31380, Note_on_c, 3, 60, 90
5, 31439, Note_on_c, 3, 60, 0
5, 31440, Note_on_c, 3, 58, 90
5, 31499, Note_on_c, 3, 58, 0
5, 31500, Note_on_c, 3, 57, 90
5, 31559, Note_on_c, 3, 57, 0
5, 31560, Note_on_c, 3, 62, 90
5, 31619, Note_on_c, 3, 62, 0
5, 31620, Note_on_c, 3, 50, 90
5, 31679, Note_on_c, 3, 50, 0
5, 31680, Note_on_c, 3, 43, 90
5, 31739, Note_on_c, 3, 43, 0
5, 31740, Note_on_c, 3, 55, 90
5, 31799, Note_on_c, 3, 55, 0
5, 31800, Note_on_c, 3, 53, 90
5, 31859, Note_on_c, 3, 53, 0
5, 31860, Note_on_c, 3, 52, 90
5, 31919, Note_on_c, 3, 52, 0
5, 31920, Note_on_c, 3, 57, 90
5, 31979, Note_on_c, 3, 57, 0
5, 31980, Note_on_c, 3, 45, 90
5, 32039, Note_on_c, 3, 45, 0
5, 32040, Note_on_c, 3, 50, 90
5, 32099, Note_on_c, 3, 50, 0
5, 32100, Note_on_c, 3, 53, 90
5, 32159, Note_on_c, 3, 53, 0
5, 32160, Note_on_c, 3, 50, 90
5, 32219, Note_on_c, 3, 50, 0
5, 32220, Note_on_c, 3, 55, 90
5, 32279, Note_on_c, 3, 55, 0
5, 32280, Note_on_c, 3, 43, 90
5, 32339, Note_on_c, 3, 43, 0
5, 32340, Note_on_c, 3, 55, 90
5, 32399, Note_on_c, 3, 55, 0
5, 32400, Note_on_c, 3, 48, 90
5, 32459, Note_on_c, 3, 48, 0
5, 32460, Note_on_c, 3, 51, 90
5, 32519, Note_on_c, 3, 51, 0
5, 32520, Note_on_c, 3, 48, 90
5, 32579, Note_on_c, 3, 48, 0
5, 32580, Note_on_c, 3, 53, 90
5, 32639, Note_on_c, 3, 53, 0
5, 32640, Note_on_c, 3, 41, 90
5, 32699, Note_on_c, 3, 41, 0
5, 32700, Note_on_c, 3, 53, 90
5, 32759, Note_on_c, 3, 53, 0
5, 32760, Note_on_c, 3, 46, 90
5, 32819, Note_on_c, 3, 46, 0
5, 32820, Note_on_c, 3, 50, 90
5, 32879, Note_on_c, 3, 50, 0
5, 32880, Note_on_c, 3, 46, 90
5, 32939, Note_on_c, 3, 46, 0
5, 32940, Note_on_c, 3, 51, 90
5, 32999, Note_on_c, 3, 51, 0
5, 33000, Note_on_c, 3, 55, 90
5, 33059, Note_on_c, 3, 55, 0
5, 33060, Note_on_c, 3, 53, 90
5, 33119, Note_on_c, 3, 53, 0
5, 33120, Note_on_c, 3, 52, 90
5, 33179, Note_on_c, 3, 52, 0
5, 33180, Note_on_c, 3, 49, 90
5, 33239, Note_on_c, 3, 49, 0
5, 33240, Note_on_c, 3, 45, 90
5, 33299, Note_on_c, 3, 45, 0
5, 33300, Note_on_c, 3, 50, 90
5, 33359, Note_on_c, 3, 50, 0
5, 33360, Note_on_c, 3, 42, 90
5, 33419, Note_on_c, 3, 42, 0
5, 33420, Note_on_c, 3, 38, 90
5, 33479, Note_on_c, 3, 38, 0
5, 33480, Note_on_c, 3, 43, 90
5, 33539, Note_on_c, 3, 43, 0
5, 33540, Note_on_c, 3, 46, 90
5, 33599, Note_on_c, 3, 46, 0
5, 33600, Note_on_c, 3, 51, 90
5, 33659, Note_on_c, 3, 51, 0
5, 33660, Note_on_c, 3, 48, 90
5, 33719, Note_on_c, 3, 48, 0
5, 33720, Note_on_c, 3, 50, 90
5, 33779, Note_on_c, 3, 50, 0
5, 33780, Note_on_c, 3, 38, 90
5, 33839, Note_on_c, 3, 38, 0
5, 33840, Note_on_c, 3, 43, 90
5, 33959, Note_on_c, 3, 43, 0
5, 34080, Note_on_c, 3, 43, 90
5, 34139, Note_on_c, 3, 43, 0
5, 34140, Note_on_c, 3, 45, 90
5, 34199, Note_on_c, 3, 45, 0
5, 34200, Note_on_c, 3, 46, 90
5, 34259, Note_on_c, 3, 46, 0
5, 34260, Note_on_c, 3, 46, 90
5, 34319, Note_on_c, 3, 46, 0
5, 34320, Note_on_c, 3, 48, 90
5, 34379, Note_on_c, 3, 48, 0
5, 34380, Note_on_c, 3, 50, 90
5, 34439, Note_on_c, 3, 50, 0
5, 34440, Note_on_c, 3, 50, 90
5, 34499, Note_on_c, 3, 50, 0
5, 34500, Note_on_c, 3, 51, 90
5, 34559, Note_on_c, 3, 51, 0
5, 34560, Note_on_c, 3, 50, 90
5, 34619, Note_on_c, 3, 50, 0
5, 34620, Note_on_c, 3, 48, 90
5, 34649, Note_on_c, 3, 48, 0
5, 34650, Note_on_c, 3, 46, 90
5, 34679, Note_on_c, 3, 46, 0
5, 34680, Note_on_c, 3, 45, 90
5, 34709, Note_on_c, 3, 45, 0
5, 34710, Note_on_c, 3, 43, 90
5, 34739, Note_on_c, 3, 43, 0
5, 34740, Note_on_c, 3, 42, 90
5, 34799, Note_on_c, 3, 42, 0
5, 34800, Note_on_c, 3, 38, 90
5, 34859, Note_on_c, 3, 38, 0
5, 34860, Note_on_c, 3, 43, 90
5, 34919, Note_on_c, 3, 43, 0
5, 34920, Note_on_c, 3, 50, 90
5, 34979, Note_on_c, 3, 50, 0
5, 34980, Note_on_c, 3, 38, 90
5, 35009, Note_on_c, 3, 38, 0
5, 35010, Note_on_c, 3, 40, 90
5, 35039, Note_on_c, 3, 40, 0
5, 35040, Note_on_c, 3, 42, 90
5, 35069, Note_on_c, 3, 42, 0
5, 35070, Note_on_c, 3, 43, 90
5, 35099, Note_on_c, 3, 43, 0
5, 35100, Note_on_c, 3, 45, 90
5, 35159, Note_on_c, 3, 45, 0
5, 35160, Note_on_c, 3, 45, 90
5, 35219, Note_on_c, 3, 45, 0
5, 35220, Note_on_c, 3, 46, 90
5, 35279, Note_on_c, 3, 46, 0
5, 35280, Note_on_c, 3, 42, 90
5, 35339, Note_on_c, 3, 42, 0
5, 35340, Note_on_c, 3, 42, 90
5, 35399, Note_on_c, 3, 42, 0
5, 35400, Note_on_c, 3, 42, 90
5, 35459, Note_on_c, 3, 42, 0
5, 35460, Note_on_c, 3, 42, 90
5, 35519, Note_on_c, 3, 42, 0
5, 35520, Note_on_c, 3, 42, 90
5, 35579, Note_on_c, 3, 42, 0
5, 35580, Note_on_c, 3, 42, 90
5, 35639, Note_on_c, 3, 42, 0
5, 35640, Note_on_c, 3, 42, 90
5, 35699, Note_on_c, 3, 42, 0
5, 35700, Note_on_c, 3, 42, 90
5, 35759, Note_on_c, 3, 42, 0
5, 35760, Note_on_c, 3, 42, 90
5, 35819, Note_on_c, 3, 42, 0
5, 35820, Note_on_c, 3, 46, 90
5, 35879, Note_on_c, 3, 46, 0
5, 36240, Note_on_c, 3, 50, 90
5, 36299, Note_on_c, 3, 50, 0
5, 36300, Note_on_c, 3, 38, 90
5, 36359, Note_on_c, 3, 38, 0
5, 36360, Note_on_c, 3, 43, 90
5, 36419, Note_on_c, 3, 43, 0
5, 36420, Note_on_c, 3, 55, 90
5, 36479, Note_on_c, 3, 55, 0
5, 36480, Note_on_c, 3, 53, 90
5, 36539, Note_on_c, 3, 53, 0
5, 36540, Note_on_c, 3, 52, 90
5, 36599, Note_on_c, 3, 52, 0
5, 36600, Note_on_c, 3, 52, 90
5, 36659, Note_on_c, 3, 52, 0
5, 36660, Note_on_c, 3, 50, 90
5, 36719, Note_on_c, 3, 50, 0
5, 36720, Note_on_c, 3, 49, 90
5, 36779, Note_on_c, 3, 49, 0
5, 36780, Note_on_c, 3, 57, 90
5, 36839, Note_on_c, 3, 57, 0
5, 36840, Note_on_c, 3, 55, 90
5, 36899, Note_on_c, 3, 55, 0
5, 36900, Note_on_c, 3, 53, 90
5, 36959, Note_on_c, 3, 53, 0
5, 36960, Note_on_c, 3, 53, 90
5, 37019, Note_on_c, 3, 53, 0
5, 37020, Note_on_c, 3, 52, 90
5, 37079, Note_on_c, 3, 52, 0
5, 37080, Note_on_c, 3, 50, 90
5, 37139, Note_on_c, 3, 50, 0
5, 37140, Note_on_c, 3, 50, 90
5, 37199, Note_on_c, 3, 50, 0
5, 37200, Note_on_c, 3, 48, 90
5, 37259, Note_on_c, 3, 48, 0
5, 37260, Note_on_c, 3, 47, 90
5, 37319, Note_on_c, 3, 47, 0
5, 37320, Note_on_c, 3, 47, 90
5, 37379, Note_on_c, 3, 47, 0
5, 37380, Note_on_c, 3, 45, 90
5, 37439, Note_on_c, 3, 45, 0
5, 37440, Note_on_c, 3, 42, 90
5, 37499, Note_on_c, 3, 42, 0
5, 37500, Note_on_c, 3, 52, 90
5, 37559, Note_on_c, 3, 52, 0
5, 37560, Note_on_c, 3, 50, 90
5, 37619, Note_on_c, 3, 50, 0
5, 37620, Note_on_c, 3, 49, 90
5, 37679, Note_on_c, 3, 49, 0
5, 37680, Note_on_c, 3, 49, 90
5, 37739, Note_on_c, 3, 49, 0
5, 37740, Note_on_c, 3, 47, 90
5, 37799, Note_on_c, 3, 47, 0
5, 37800, Note_on_c, 3, 45, 90
5, 37859, Note_on_c, 3, 45, 0
5, 37860, Note_on_c, 3, 57, 90
5, 37919, Note_on_c, 3, 57, 0
5, 37920, Note_on_c, 3, 55, 90
5, 37979, Note_on_c, 3, 55, 0
5, 37980, Note_on_c, 3, 54, 90
5, 38039, Note_on_c, 3, 54, 0
5, 38040, Note_on_c, 3, 50, 90
5, 38099, Note_on_c, 3, 50, 0
5, 38220, Note_on_c, 3, 55, 90
5, 38279, Note_on_c, 3, 55, 0
5, 38280, Note_on_c, 3, 53, 90
5, 38339, Note_on_c, 3, 53, 0
5, 38340, Note_on_c, 3, 52, 90
5, 38399, Note_on_c, 3, 52, 0
5, 38400, Note_on_c, 3, 48, 90
5, 38459, Note_on_c, 3, 48, 0
5, 38580, Note_on_c, 3, 53, 90
5, 38639, Note_on_c, 3, 53, 0
5, 38640, Note_on_c, 3, 52, 90
5, 38699, Note_on_c, 3, 52, 0
5, 38700, Note_on_c, 3, 50, 90
5, 38759, Note_on_c, 3, 50, 0
5, 38760, Note_on_c, 3, 46, 90
5, 38819, Note_on_c, 3, 46, 0
5, 38940, Note_on_c, 3, 52, 90
5, 38999, Note_on_c, 3, 52, 0
5, 39000, Note_on_c, 3, 50, 90
5, 39059, Note_on_c, 3, 50, 0
5, 39060, Note_on_c, 3, 49, 90
5, 39119, Note_on_c, 3, 49, 0
5, 39120, Note_on_c, 3, 45, 90
5, 39179, Note_on_c, 3, 45, 0
5, 39240, Note_on_c, 3, 38, 90
5, 40320, Note_on_c, 3, 38, 0
5, 40320, Note_on_c, 3, 43, 90
5, 40379, Note_on_c, 3, 43, 0
5, 40380, Note_on_c, 3, 55, 90
5, 40439, Note_on_c, 3, 55, 0
5, 40500, Note_on_c, 3, 41, 90
5, 40559, Note_on_c, 3, 41, 0
5, 40560, Note_on_c, 3, 53, 90
5, 40619, Note_on_c, 3, 53, 0
5, 40680, Note_on_c, 3, 40, 90
5, 40739, Note_on_c, 3, 40, 0
5, 40740, Note_on_c, 3, 52, 90
5, 40799, Note_on_c, 3, 52, 0
5, 40860, Note_on_c, 3, 38, 90
5, 40919, Note_on_c, 3, 38, 0
5, 40920, Note_on_c, 3, 50, 90
5, 40979, Note_on_c, 3, 50, 0
5, 41400, Note_on_c, 3, 44, 90
5, 41759, Note_on_c, 3, 44, 0
5, 41760, Note_on_c, 3, 45, 90
5, 42840, Note_on_c, 3, 45, 0
5, 42840, Note_on_c, 3, 45, 90
5, 42899, Note_on_c, 3, 45, 0
5, 42900, Note_on_c, 3, 45, 90
5, 42959, Note_on_c, 3, 45, 0
5, 42960, Note_on_c, 3, 45, 90
5, 43019, Note_on_c, 3, 45, 0
5, 43020, Note_on_c, 3, 45, 90
5, 43079, Note_on_c, 3, 45, 0
5, 43080, Note_on_c, 3, 45, 90
5, 43139, Note_on_c, 3, 45, 0
5, 43140, Note_on_c, 3, 45, 90
5, 43199, Note_on_c, 3, 45, 0
5, 43200, Note_on_c, 3, 45, 90
5, 43259, Note_on_c, 3, 45, 0
5, 43260, Note_on_c, 3, 45, 90
5, 43319, Note_on_c, 3, 45, 0
5, 43320, Note_on_c, 3, 45, 90
5, 43379, Note_on_c, 3, 45, 0
5, 43380, Note_on_c, 3, 45, 90
5, 43439, Note_on_c, 3, 45, 0
5, 43440, Note_on_c, 3, 45, 90
5, 43499, Note_on_c, 3, 45, 0
5, 43500, Note_on_c, 3, 45, 90
5, 43559, Note_on_c, 3, 45, 0
5, 43560, Note_on_c, 3, 45, 90
5, 43619, Note_on_c, 3, 45, 0
5, 43620, Note_on_c, 3, 45, 90
5, 43679, Note_on_c, 3, 45, 0
5, 43680, Note_on_c, 3, 45, 90
5, 43739, Note_on_c, 3, 45, 0
5, 43740, Note_on_c, 3, 45, 90
5, 43799, Note_on_c, 3, 45, 0
5, 43800, Note_on_c, 3, 45, 90
5, 43859, Note_on_c, 3, 45, 0
5, 43860, Note_on_c, 3, 45, 90
5, 43919, Note_on_c, 3, 45, 0
5, 43920, Note_on_c, 3, 46, 90
5, 43979, Note_on_c, 3, 46, 0
5, 43980, Note_on_c, 3, 46, 90
5, 44039, Note_on_c, 3, 46, 0
5, 44040, Note_on_c, 3, 46, 90
5, 44099, Note_on_c, 3, 46, 0
5, 44100, Note_on_c, 3, 47, 90
5, 44159, Note_on_c, 3, 47, 0
5, 44160, Note_on_c, 3, 47, 90
5, 44219, Note_on_c, 3, 47, 0
5, 44220, Note_on_c, 3, 47, 90
5, 44279, Note_on_c, 3, 47, 0
5, 44280, Note_on_c, 3, 45, 90
5, 44339, Note_on_c, 3, 45, 0
5, 44340, Note_on_c, 3, 57, 90
5, 44399, Note_on_c, 3, 57, 0
5, 44400, Note_on_c, 3, 55, 90
5, 44459, Note_on_c, 3, 55, 0
5, 44460, Note_on_c, 3, 53, 90
5, 44519, Note_on_c, 3, 53, 0
5, 44520, Note_on_c, 3, 53, 90
5, 44579, Note_on_c, 3, 53, 0
5, 44580, Note_on_c, 3, 52, 90
5, 44639, Note_on_c, 3, 52, 0
5, 44640, Note_on_c, 3, 50, 90
5, 44699, Note_on_c, 3, 50, 0
5, 44730, Note_on_c, 3, 53, 90
5, 44759, Note_on_c, 3, 53, 0
5, 44760, Note_on_c, 3, 58, 90
5, 44819, Note_on_c, 3, 58, 0
5, 44850, Note_on_c, 3, 56, 90
5, 44879, Note_on_c, 3, 56, 0
5, 44880, Note_on_c, 3, 57, 90
5, 44939, Note_on_c, 3, 57, 0
5, 44940, Note_on_c, 3, 45, 90
5, 44999, Note_on_c, 3, 45, 0
5, 45000, Note_on_c, 3, 50, 90
5, 45059, Note_on_c, 3, 50, 0
5, 45060, Note_on_c, 3, 41, 90
5, 45119, Note_on_c, 3, 41, 0
5, 45120, Note_on_c, 3, 45, 90
5, 45179, Note_on_c, 3, 45, 0
5, 45180, Note_on_c, 3, 38, 90
5, 45239, Note_on_c, 3, 38, 0
5, 45240, Note_on_c, 3, 50, 90
5, 45299, Note_on_c, 3, 50, 0
5, 45300, Note_on_c, 3, 52, 90
5, 45359, Note_on_c, 3, 52, 0
5, 45360, Note_on_c, 3, 53, 90
5, 45419, Note_on_c, 3, 53, 0
5, 45420, Note_on_c, 3, 53, 90
5, 45479, Note_on_c, 3, 53, 0
5, 45480, Note_on_c, 3, 55, 90
5, 45539, Note_on_c, 3, 55, 0
5, 45540, Note_on_c, 3, 57, 90
5, 45599, Note_on_c, 3, 57, 0
5, 45600, Note_on_c, 3, 57, 90
5, 45659, Note_on_c, 3, 57, 0
5, 45660, Note_on_c, 3, 58, 90
5, 45719, Note_on_c, 3, 58, 0
5, 45720, Note_on_c, 3, 57, 90
5, 45779, Note_on_c, 3, 57, 0
5, 45780, Note_on_c, 3, 55, 90
5, 45809, Note_on_c, 3, 55, 0
5, 45810, Note_on_c, 3, 53, 90
5, 45839, Note_on_c, 3, 53, 0
5, 45840, Note_on_c, 3, 52, 90
5, 45869, Note_on_c, 3, 52, 0
5, 45870, Note_on_c, 3, 50, 90
5, 45899, Note_on_c, 3, 50, 0
5, 45900, Note_on_c, 3, 49, 90
5, 45959, Note_on_c, 3, 49, 0
5, 45960, Note_on_c, 3, 45, 90
5, 46019, Note_on_c, 3, 45, 0
5, 46020, Note_on_c, 3, 50, 90
5, 46079, Note_on_c, 3, 50, 0
5, 46080, Note_on_c, 3, 45, 90
5, 46139, Note_on_c, 3, 45, 0
5, 46260, Note_on_c, 3, 45, 90
5, 46319, Note_on_c, 3, 45, 0
5, 46440, Note_on_c, 3, 45, 90
5, 46499, Note_on_c, 3, 45, 0
5, 46500, Note_on_c, 3, 57, 90
5, 46559, Note_on_c, 3, 57, 0
5, 46560, Note_on_c, 3, 45, 90
5, 46619, Note_on_c, 3, 45, 0
5, 46620, Note_on_c, 3, 50, 90
5, 46679, Note_on_c, 3, 50, 0
5, 46680, Note_on_c, 3, 62, 90
5, 46739, Note_on_c, 3, 62, 0
5, 46740, Note_on_c, 3, 50, 90
5, 46799, Note_on_c, 3, 50, 0
5, 46800, Note_on_c, 3, 43, 90
5, 46859, Note_on_c, 3, 43, 0
5, 46860, Note_on_c, 3, 55, 90
5, 46919, Note_on_c, 3, 55, 0
5, 46920, Note_on_c, 3, 43, 90
5, 46979, Note_on_c, 3, 43, 0
5, 46980, Note_on_c, 3, 48, 90
5, 47039, Note_on_c, 3, 48, 0
5, 47040, Note_on_c, 3, 60, 90
5, 47099, Note_on_c, 3, 60, 0
5, 47100, Note_on_c, 3, 48, 90
5, 47159, Note_on_c, 3, 48, 0
5, 47160, Note_on_c, 3, 41, 90
5, 47219, Note_on_c, 3, 41, 0
5, 47220, Note_on_c, 3, 53, 90
5, 47279, Note_on_c, 3, 53, 0
5, 47280, Note_on_c, 3, 41, 90
5, 47339, Note_on_c, 3, 41, 0
5, 47340, Note_on_c, 3, 46, 90
5, 47399, Note_on_c, 3, 46, 0
5, 47400, Note_on_c, 3, 58, 90
5, 47459, Note_on_c, 3, 58, 0
5, 47460, Note_on_c, 3, 46, 90
5, 47519, Note_on_c, 3, 46, 0
5, 47520, Note_on_c, 3, 40, 90
5, 47579, Note_on_c, 3, 40, 0
5, 47580, Note_on_c, 3, 52, 90
5, 47639, Note_on_c, 3, 52, 0
5, 47640, Note_on_c, 3, 40, 90
5, 47699, Note_on_c, 3, 40, 0
5, 47700, Note_on_c, 3, 45, 90
5, 47759, Note_on_c, 3, 45, 0
5, 47760, Note_on_c, 3, 57, 90
5, 47819, Note_on_c, 3, 57, 0
5, 47820, Note_on_c, 3, 45, 90
5, 47879, Note_on_c, 3, 45, 0
5, 47880, Note_on_c, 3, 38, 90
5, 47939, Note_on_c, 3, 38, 0
5, 47940, Note_on_c, 3, 50, 90
5, 47999, Note_on_c, 3, 50, 0
5, 48000, Note_on_c, 3, 38, 90
5, 48059, Note_on_c, 3, 38, 0
5, 48060, Note_on_c, 3, 43, 90
5, 48119, Note_on_c, 3, 43, 0
5, 48120, Note_on_c, 3, 45, 90
5, 48179, Note_on_c, 3, 45, 0
5, 48180, Note_on_c, 3, 46, 90
5, 48239, Note_on_c, 3, 46, 0
5, 48300, Note_on_c, 3, 45, 90
5, 48329, Note_on_c, 3, 45, 0
5, 48330, Note_on_c, 3, 47, 90
5, 48359, Note_on_c, 3, 47, 0
5, 48360, Note_on_c, 3, 49, 90
5, 48389, Note_on_c, 3, 49, 0
5, 48390, Note_on_c, 3, 50, 90
5, 48419, Note_on_c, 3, 50, 0
5, 48420, Note_on_c, 3, 52, 90
5, 48449, Note_on_c, 3, 52, 0
5, 48450, Note_on_c, 3, 50, 90
5, 48479, Note_on_c, 3, 50, 0
5, 48480, Note_on_c, 3, 49, 90
5, 48509, Note_on_c, 3, 49, 0
5, 48510, Note_on_c, 3, 50, 90
5, 48539, Note_on_c, 3, 50, 0
5, 48540, Note_on_c, 3, 52, 90
5, 48569, Note_on_c, 3, 52, 0
5, 48570, Note_on_c, 3, 53, 90
5, 48599, Note_on_c, 3, 53, 0
5, 48600, Note_on_c, 3, 55, 90
5, 48629, Note_on_c, 3, 55, 0
5, 48630, Note_on_c, 3, 53, 90
5, 48659, Note_on_c, 3, 53, 0
5, 48660, Note_on_c, 3, 52, 90
5, 48689, Note_on_c, 3, 52, 0
5, 48690, Note_on_c, 3, 53, 90
5, 48719, Note_on_c, 3, 53, 0
5, 48720, Note_on_c, 3, 55, 90
5, 48749, Note_on_c, 3, 55, 0
5, 48750, Note_on_c, 3, 57, 90
5, 48779, Note_on_c, 3, 57, 0
5, 48780, Note_on_c, 3, 58, 90
5, 48809, Note_on_c, 3, 58, 0
5, 48810, Note_on_c, 3, 57, 90
5, 48839, Note_on_c, 3, 57, 0
5, 48840, Note_on_c, 3, 55, 90
5, 48869, Note_on_c, 3, 55, 0
5, 48870, Note_on_c, 3, 53, 90
5, 48899, Note_on_c, 3, 53, 0
5, 48900, Note_on_c, 3, 52, 90
5, 48929, Note_on_c, 3, 52, 0
5, 48930, Note_on_c, 3, 50, 90
5, 48959, Note_on_c, 3, 50, 0
5, 48960, Note_on_c, 3, 49, 90
5, 48989, Note_on_c, 3, 49, 0
5, 48990, Note_on_c, 3, 52, 90
5, 49019, Note_on_c, 3, 52, 0
5, 49020, Note_on_c, 3, 45, 90
5, 49049, Note_on_c, 3, 45, 0
5, 49050, Note_on_c, 3, 49, 90
5, 49079, Note_on_c, 3, 49, 0
5, 49080, Note_on_c, 3, 50, 90
5, 49139, Note_on_c, 3, 50, 0
5, 49170, Note_on_c, 3, 55, 90
5, 49199, Note_on_c, 3, 55, 0
5, 49200, Note_on_c, 3, 57, 90
5, 49259, Note_on_c, 3, 57, 0
5, 49260, Note_on_c, 3, 45, 90
5, 49319, Note_on_c, 3, 45, 0
5, 49320, Note_on_c, 3, 38, 90
5, 49379, Note_on_c, 3, 38, 0
5, 49380, Note_on_c, 3, 50, 90
5, 49439, Note_on_c, 3, 50, 0
5, 49440, Note_on_c, 3, 52, 90
5, 49499, Note_on_c, 3, 52, 0
5, 49500, Note_on_c, 3, 53, 90
5, 49559, Note_on_c, 3, 53, 0
5, 49560, Note_on_c, 3, 53, 90
5, 49619, Note_on_c, 3, 53, 0
5, 49620, Note_on_c, 3, 55, 90
5, 49679, Note_on_c, 3, 55, 0
5, 49680, Note_on_c, 3, 57, 90
5, 49739, Note_on_c, 3, 57, 0
5, 49740, Note_on_c, 3, 57, 90
5, 49799, Note_on_c, 3, 57, 0
5, 49800, Note_on_c, 3, 58, 90
5, 49859, Note_on_c, 3, 58, 0
5, 49860, Note_on_c, 3, 57, 90
5, 49919, Note_on_c, 3, 57, 0
5, 49920, Note_on_c, 3, 55, 90
5, 49949, Note_on_c, 3, 55, 0
5, 49950, Note_on_c, 3, 53, 90
5, 49979, Note_on_c, 3, 53, 0
5, 49980, Note_on_c, 3, 52, 90
5, 50009, Note_on_c, 3, 52, 0
5, 50010, Note_on_c, 3, 50, 90
5, 50039, Note_on_c, 3, 50, 0
5, 50040, Note_on_c, 3, 49, 90
5, 50099, Note_on_c, 3, 49, 0
5, 50100, Note_on_c, 3, 45, 90
5, 50129, Note_on_c, 3, 45, 0
5, 50130, Note_on_c, 3, 47, 90
5, 50159, Note_on_c, 3, 47, 0
5, 50160, Note_on_c, 3, 49, 90
5, 50189, Note_on_c, 3, 49, 0
5, 50190, Note_on_c, 3, 50, 90
5, 50219, Note_on_c, 3, 50, 0
5, 50220, Note_on_c, 3, 52, 90
5, 50279, Note_on_c, 3, 52, 0
5, 50280, Note_on_c, 3, 52, 90
5, 50339, Note_on_c, 3, 52, 0
5, 50340, Note_on_c, 3, 53, 90
5, 50399, Note_on_c, 3, 53, 0
5, 50400, Note_on_c, 3, 52, 90
5, 50459, Note_on_c, 3, 52, 0
5, 50460, Note_on_c, 3, 45, 90
5, 50489, Note_on_c, 3, 45, 0
5, 50490, Note_on_c, 3, 47, 90
5, 50519, Note_on_c, 3, 47, 0
5, 50520, Note_on_c, 3, 49, 90
5, 50549, Note_on_c, 3, 49, 0
5, 50550, Note_on_c, 3, 50, 90
5, 50579, Note_on_c, 3, 50, 0
5, 50580, Note_on_c, 3, 52, 90
5, 50639, Note_on_c, 3, 52, 0
5, 50640, Note_on_c, 3, 52, 90
5, 50699, Note_on_c, 3, 52, 0
5, 50700, Note_on_c, 3, 53, 90
5, 50759, Note_on_c, 3, 53, 0
5, 50760, Note_on_c, 3, 52, 90
5, 50819, Note_on_c, 3, 52, 0
5, 50820, Note_on_c, 3, 45, 90
5, 50849, Note_on_c, 3, 45, 0
5, 50850, Note_on_c, 3, 47, 90
5, 50879, Note_on_c, 3, 47, 0
5, 50880, Note_on_c, 3, 49, 90
5, 50909, Note_on_c, 3, 49, 0
5, 50910, Note_on_c, 3, 50, 90
5, 50939, Note_on_c, 3, 50, 0
5, 50940, Note_on_c, 3, 52, 90
5, 50969, Note_on_c, 3, 52, 0
5, 50970, Note_on_c, 3, 50, 90
5, 50999, Note_on_c, 3, 50, 0
5, 51000, Note_on_c, 3, 49, 90
5, 51029, Note_on_c, 3, 49, 0
5, 51030, Note_on_c, 3, 50, 90
5, 51059, Note_on_c, 3, 50, 0
5, 51060, Note_on_c, 3, 52, 90
5, 51089, Note_on_c, 3, 52, 0
5, 51090, Note_on_c, 3, 53, 90
5, 51119, Note_on_c, 3, 53, 0
5, 51120, Note_on_c, 3, 55, 90
5, 51149, Note_on_c, 3, 55, 0
5, 51150, Note_on_c, 3, 53, 90
5, 51179, Note_on_c, 3, 53, 0
5, 51180, Note_on_c, 3, 52, 90
5, 51209, Note_on_c, 3, 52, 0
5, 51210, Note_on_c, 3, 53, 90
5, 51239, Note_on_c, 3, 53, 0
5, 51240, Note_on_c, 3, 55, 90
5, 51269, Note_on_c, 3, 55, 0
5, 51270, Note_on_c, 3, 57, 90
5, 51299, Note_on_c, 3, 57, 0
5, 51300, Note_on_c, 3, 58, 90
5, 51329, Note_on_c, 3, 58, 0
5, 51330, Note_on_c, 3, 57, 90
5, 51359, Note_on_c, 3, 57, 0
5, 51360, Note_on_c, 3, 55, 90
5, 51389, Note_on_c, 3, 55, 0
5, 51390, Note_on_c, 3, 53, 90
5, 51419, Note_on_c, 3, 53, 0
5, 51420, Note_on_c, 3, 52, 90
5, 51449, Note_on_c, 3, 52, 0
5, 51450, Note_on_c, 3, 50, 90
5, 51479, Note_on_c, 3, 50, 0
5, 51480, Note_on_c, 3, 49, 90
5, 51509, Note_on_c, 3, 49, 0
5, 51510, Note_on_c, 3, 52, 90
5, 51539, Note_on_c, 3, 52, 0
5, 51540, Note_on_c, 3, 45, 90
5, 51569, Note_on_c, 3, 45, 0
5, 51570, Note_on_c, 3, 49, 90
5, 51599, Note_on_c, 3, 49, 0
5, 51600, Note_on_c, 3, 50, 90
5, 51659, Note_on_c, 3, 50, 0
5, 51690, Note_on_c, 3, 43, 90
5, 51719, Note_on_c, 3, 43, 0
5, 51720, Note_on_c, 3, 45, 90
5, 51779, Note_on_c, 3, 45, 0
5, 51780, Note_on_c, 3, 45, 90
5, 51839, Note_on_c, 3, 45, 0
5, 51840, Note_on_c, 3, 38, 90
5, 52019, Note_on_c, 3, 38, 0
5, 52200, Note_on_c, 3, 53, 90
5, 52230, Note_on_c, 3, 53, 0
5, 52260, Note_on_c, 3, 53, 90
5, 52290, Note_on_c, 3, 53, 0
5, 52320, Note_on_c, 3, 53, 90
5, 52350, Note_on_c, 3, 53, 0
5, 52380, Note_on_c, 3, 53, 90
5, 52410, Note_on_c, 3, 53, 0
5, 52440, Note_on_c, 3, 53, 90
5, 52470, Note_on_c, 3, 53, 0
5, 52500, Note_on_c, 3, 53, 90
5, 52530, Note_on_c, 3, 53, 0
5, 52560, Note_on_c, 3, 53, 90
5, 52590, Note_on_c, 3, 53, 0
5, 52620, Note_on_c, 3, 53, 90
5, 52650, Note_on_c, 3, 53, 0
5, 52680, Note_on_c, 3, 53, 90
5, 52710, Note_on_c, 3, 53, 0
5, 52740, Note_on_c, 3, 53, 90
5, 52770, Note_on_c, 3, 53, 0
5, 52800, Note_on_c, 3, 53, 90
5, 52830, Note_on_c, 3, 53, 0
5, 52860, Note_on_c, 3, 53, 90
5, 52890, Note_on_c, 3, 53, 0
5, 52920, Note_on_c, 3, 53, 90
5, 52950, Note_on_c, 3, 53, 0
5, 52980, Note_on_c, 3, 53, 90
5, 53010, Note_on_c, 3, 53, 0
5, 53040, Note_on_c, 3, 53, 90
5, 53070, Note_on_c, 3, 53, 0
5, 53100, Note_on_c, 3, 54, 90
5, 53130, Note_on_c, 3, 54, 0
5, 53160, Note_on_c, 3, 54, 90
5, 53190, Note_on_c, 3, 54, 0
5, 53220, Note_on_c, 3, 54, 90
5, 53250, Note_on_c, 3, 54, 0
5, 53280, Note_on_c, 3, 55, 90
5, 53310, Note_on_c, 3, 55, 0
5, 53340, Note_on_c, 3, 55, 90
5, 53370, Note_on_c, 3, 55, 0
5, 53400, Note_on_c, 3, 55, 90
5, 53430, Note_on_c, 3, 55, 0
5, 53460, Note_on_c, 3, 55, 90
5, 53490, Note_on_c, 3, 55, 0
5, 53520, Note_on_c, 3, 55, 90
5, 53550, Note_on_c, 3, 55, 0
5, 53580, Note_on_c, 3, 55, 90
5, 53610, Note_on_c, 3, 55, 0
5, 53640, Note_on_c, 3, 56, 90
5, 53670, Note_on_c, 3, 56, 0
5, 53700, Note_on_c, 3, 56, 90
5, 53730, Note_on_c, 3, 56, 0
5, 53760, Note_on_c, 3, 56, 90
5, 53790, Note_on_c, 3, 56, 0
5, 53820, Note_on_c, 3, 57, 90
5, 53850, Note_on_c, 3, 57, 0
5, 53880, Note_on_c, 3, 57, 90
5, 53910, Note_on_c, 3, 57, 0
5, 53940, Note_on_c, 3, 57, 90
5, 53970, Note_on_c, 3, 57, 0
5, 54000, Note_on_c, 3, 52, 90
5, 54030, Note_on_c, 3, 52, 0
5, 54060, Note_on_c, 3, 52, 90
5, 54090, Note_on_c, 3, 52, 0
5, 54120, Note_on_c, 3, 52, 90
5, 54150, Note_on_c, 3, 52, 0
5, 54180, Note_on_c, 3, 54, 90
5, 54210, Note_on_c, 3, 54, 0
5, 54240, Note_on_c, 3, 54, 90
5, 54270, Note_on_c, 3, 54, 0
5, 54300, Note_on_c, 3, 54, 90
5, 54330, Note_on_c, 3, 54, 0
5, 54360, Note_on_c, 3, 55, 90
5, 54390, Note_on_c, 3, 55, 0
5, 54420, Note_on_c, 3, 55, 90
5, 54450, Note_on_c, 3, 55, 0
5, 54480, Note_on_c, 3, 55, 90
5, 54510, Note_on_c, 3, 55, 0
5, 54540, Note_on_c, 3, 43, 90
5, 54570, Note_on_c, 3, 43, 0
5, 54600, Note_on_c, 3, 43, 90
5, 54630, Note_on_c, 3, 43, 0
5, 54660, Note_on_c, 3, 43, 90
5, 54690, Note_on_c, 3, 43, 0
5, 54720, Note_on_c, 3, 48, 90
5, 54825, Note_on_c, 3, 48, 0
5, 54930, Note_on_c, 3, 50, 90
5, 54945, Note_on_c, 3, 50, 0
5, 54960, Note_on_c, 3, 48, 90
5, 54975, Note_on_c, 3, 48, 0
5, 54990, Note_on_c, 3, 46, 90
5, 55005, Note_on_c, 3, 46, 0
5, 55020, Note_on_c, 3, 45, 90
5, 55035, Note_on_c, 3, 45, 0
5, 55050, Note_on_c, 3, 43, 90
5, 55065, Note_on_c, 3, 43, 0
5, 55080, Note_on_c, 3, 41, 90
5, 55140, Note_on_c, 3, 41, 0
5, 55440, Note_on_c, 3, 41, 90
5, 55500, Note_on_c, 3, 41, 0
5, 55800, Note_on_c, 3, 41, 90
5, 55860, Note_on_c, 3, 41, 0
5, 55980, Note_on_c, 3, 42, 90
5, 56040, Note_on_c, 3, 42, 0
5, 56160, Note_on_c, 3, 43, 90
5, 56220, Note_on_c, 3, 43, 0
5, 56520, Note_on_c, 3, 44, 90
5, 56580, Note_on_c, 3, 44, 0
5, 56700, Note_on_c, 3, 45, 90
5, 56760, Note_on_c, 3, 45, 0
5, 56880, Note_on_c, 3, 40, 90
5, 56940, Note_on_c, 3, 40, 0
5, 57060, Note_on_c, 3, 42, 90
5, 57120, Note_on_c, 3, 42, 0
5, 57240, Note_on_c, 3, 43, 90
5, 57300, Note_on_c, 3, 43, 0
5, 57420, Note_on_c, 3, 43, 90
5, 57480, Note_on_c, 3, 43, 0
5, 57600, Note_on_c, 3, 36, 90
5, 57660, Note_on_c, 3, 36, 0
5, 57840, Note_on_c, 3, 48, 90
5, 57870, Note_on_c, 3, 48, 0
5, 57900, Note_on_c, 3, 46, 90
5, 57930, Note_on_c, 3, 46, 0
5, 57960, Note_on_c, 3, 45, 90
5, 57990, Note_on_c, 3, 45, 0
5, 58020, Note_on_c, 3, 45, 90
5, 58050, Note_on_c, 3, 45, 0
5, 58080, Note_on_c, 3, 45, 90
5, 58110, Note_on_c, 3, 45, 0
5, 58140, Note_on_c, 3, 43, 90
5, 58170, Note_on_c, 3, 43, 0
5, 58200, Note_on_c, 3, 43, 90
5, 58230, Note_on_c, 3, 43, 0
5, 58260, Note_on_c, 3, 43, 90
5, 58290, Note_on_c, 3, 43, 0
5, 58320, Note_on_c, 3, 42, 90
5, 58350, Note_on_c, 3, 42, 0
5, 58380, Note_on_c, 3, 42, 90
5, 58410, Note_on_c, 3, 42, 0
5, 58440, Note_on_c, 3, 42, 90
5, 58470, Note_on_c, 3, 42, 0
5, 58500, Note_on_c, 3, 38, 90
5, 58530, Note_on_c, 3, 38, 0
5, 58560, Note_on_c, 3, 38, 90
5, 58590, Note_on_c, 3, 38, 0
5, 58620, Note_on_c, 3, 38, 90
5, 58650, Note_on_c, 3, 38, 0
5, 58680, Note_on_c, 3, 43, 90
5, 58710, Note_on_c, 3, 43, 0
5, 58740, Note_on_c, 3, 43, 90
5, 58770, Note_on_c, 3, 43, 0
5, 58800, Note_on_c, 3, 43, 90
5, 58830, Note_on_c, 3, 43, 0
5, 58860, Note_on_c, 3, 48, 90
5, 58890, Note_on_c, 3, 48, 0
5, 58920, Note_on_c, 3, 48, 90
5, 58950, Note_on_c, 3, 48, 0
5, 58980, Note_on_c, 3, 48, 90
5, 59010, Note_on_c, 3, 48, 0
5, 59040, Note_on_c, 3, 50, 90
5, 59070, Note_on_c, 3, 50, 0
5, 59100, Note_on_c, 3, 50, 90
5, 59130, Note_on_c, 3, 50, 0
5, 59160, Note_on_c, 3, 50, 90
5, 59190, Note_on_c, 3, 50, 0
5, 59220, Note_on_c, 3, 54, 90
5, 59250, Note_on_c, 3, 54, 0
5, 59280, Note_on_c, 3, 54, 90
5, 59310, Note_on_c, 3, 54, 0
5, 59340, Note_on_c, 3, 54, 90
5, 59370, Note_on_c, 3, 54, 0
5, 59400, Note_on_c, 3, 55, 90
5, 59430, Note_on_c, 3, 55, 0
5, 59460, Note_on_c, 3, 55, 90
5, 59490, Note_on_c, 3, 55, 0
5, 59520, Note_on_c, 3, 55, 90
5, 59550, Note_on_c, 3, 55, 0
5, 59580, Note_on_c, 3, 58, 90
5, 59610, Note_on_c, 3, 58, 0
5, 59640, Note_on_c, 3, 58, 90
5, 59670, Note_on_c, 3, 58, 0
5, 59700, Note_on_c, 3, 58, 90
5, 59730, Note_on_c, 3, 58, 0
5, 59760, Note_on_c, 3, 57, 90
5, 59790, Note_on_c, 3, 57, 0
5, 59820, Note_on_c, 3, 57, 90
5, 59850, Note_on_c, 3, 57, 0
5, 59880, Note_on_c, 3, 57, 90
5, 59910, Note_on_c, 3, 57, 0
5, 59940, Note_on_c, 3, 49, 90
5, 59970, Note_on_c, 3, 49, 0
5, 60000, Note_on_c, 3, 49, 90
5, 60030, Note_on_c, 3, 49, 0
5, 60060, Note_on_c, 3, 49, 90
5, 60090, Note_on_c, 3, 49, 0
5, 60120, Note_on_c, 3, 50, 90
5, 60150, Note_on_c, 3, 50, 0
5, 60180, Note_on_c, 3, 50, 90
5, 60210, Note_on_c, 3, 50, 0
5, 60240, Note_on_c, 3, 50, 90
5, 60270, Note_on_c, 3, 50, 0
5, 60300, Note_on_c, 3, 45, 90
5, 60330, Note_on_c, 3, 45, 0
5, 60360, Note_on_c, 3, 45, 90
5, 60390, Note_on_c, 3, 45, 0
5, 60420, Note_on_c, 3, 45, 90
5, 60450, Note_on_c, 3, 45, 0
5, 60480, Note_on_c, 3, 38, 90
5, 60510, Note_on_c, 3, 38, 0
5, 60540, Note_on_c, 3, 38, 90
5, 60570, Note_on_c, 3, 38, 0
5, 60600, Note_on_c, 3, 38, 90
5, 60630, Note_on_c, 3, 38, 0
5, 60660, Note_on_c, 3, 38, 90
5, 60690, Note_on_c, 3, 38, 0
5, 60720, Note_on_c, 3, 62, 90
5, 60750, Note_on_c, 3, 62, 0
5, 60780, Note_on_c, 3, 60, 90
5, 60810, Note_on_c, 3, 60, 0
5, 60840, Note_on_c, 3, 59, 90
5, 60870, Note_on_c, 3, 59, 0
5, 60900, Note_on_c, 3, 59, 90
5, 60930, Note_on_c, 3, 59, 0
5, 60960, Note_on_c, 3, 59, 90
5, 60990, Note_on_c, 3, 59, 0
5, 61020, Note_on_c, 3, 59, 90
5, 61050, Note_on_c, 3, 59, 0
5, 61080, Note_on_c, 3, 59, 90
5, 61110, Note_on_c, 3, 59, 0
5, 61140, Note_on_c, 3, 59, 90
5, 61170, Note_on_c, 3, 59, 0
5, 61200, Note_on_c, 3, 58, 90
5, 61230, Note_on_c, 3, 58, 0
5, 61260, Note_on_c, 3, 58, 90
5, 61290, Note_on_c, 3, 58, 0
5, 61320, Note_on_c, 3, 58, 90
5, 61350, Note_on_c, 3, 58, 0
5, 61380, Note_on_c, 3, 58, 90
5, 61410, Note_on_c, 3, 58, 0
5, 61440, Note_on_c, 3, 58, 90
5, 61470, Note_on_c, 3, 58, 0
5, 61500, Note_on_c, 3, 58, 90
5, 61530, Note_on_c, 3, 58, 0
5, 61560, Note_on_c, 3, 57, 90
5, 61590, Note_on_c, 3, 57, 0
5, 61620, Note_on_c, 3, 57, 90
5, 61650, Note_on_c, 3, 57, 0
5, 61680, Note_on_c, 3, 57, 90
5, 61710, Note_on_c, 3, 57, 0
5, 61740, Note_on_c, 3, 57, 90
5, 61770, Note_on_c, 3, 57, 0
5, 61800, Note_on_c, 3, 57, 90
5, 61830, Note_on_c, 3, 57, 0
5, 61860, Note_on_c, 3, 57, 90
5, 61890, Note_on_c, 3, 57, 0
5, 61920, Note_on_c, 3, 58, 90
5, 61950, Note_on_c, 3, 58, 0
5, 61980, Note_on_c, 3, 58, 90
5, 62010, Note_on_c, 3, 58, 0
5, 62040, Note_on_c, 3, 58, 90
5, 62070, Note_on_c, 3, 58, 0
5, 62100, Note_on_c, 3, 58, 90
5, 62130, Note_on_c, 3, 58, 0
5, 62160, Note_on_c, 3, 58, 90
5, 62190, Note_on_c, 3, 58, 0
5, 62220, Note_on_c, 3, 58, 90
5, 62250, Note_on_c, 3, 58, 0
5, 62280, Note_on_c, 3, 52, 90
5, 62310, Note_on_c, 3, 52, 0
5, 62340, Note_on_c, 3, 52, 90
5, 62370, Note_on_c, 3, 52, 0
5, 62400, Note_on_c, 3, 52, 90
5, 62430, Note_on_c, 3, 52, 0
5, 62460, Note_on_c, 3, 52, 90
5, 62490, Note_on_c, 3, 52, 0
5, 62520, Note_on_c, 3, 52, 90
5, 62550, Note_on_c, 3, 52, 0
5, 62580, Note_on_c, 3, 52, 90
5, 62610, Note_on_c, 3, 52, 0
5, 62640, Note_on_c, 3, 53, 90
5, 62670, Note_on_c, 3, 53, 0
5, 62700, Note_on_c, 3, 53, 90
5, 62730, Note_on_c, 3, 53, 0
5, 62760, Note_on_c, 3, 53, 90
5, 62790, Note_on_c, 3, 53, 0
5, 62820, Note_on_c, 3, 53, 90
5, 62850, Note_on_c, 3, 53, 0
5, 62880, Note_on_c, 3, 53, 90
5, 62910, Note_on_c, 3, 53, 0
5, 62940, Note_on_c, 3, 53, 90
5, 62970, Note_on_c, 3, 53, 0
5, 63000, Note_on_c, 3, 47, 90
5, 63030, Note_on_c, 3, 47, 0
5, 63060, Note_on_c, 3, 47, 90
5, 63090, Note_on_c, 3, 47, 0
5, 63120, Note_on_c, 3, 47, 90
5, 63150, Note_on_c, 3, 47, 0
5, 63180, Note_on_c, 3, 47, 90
5, 63210, Note_on_c, 3, 47, 0
5, 63240, Note_on_c, 3, 47, 90
5, 63270, Note_on_c, 3, 47, 0
5, 63300, Note_on_c, 3, 47, 90
5, 63330, Note_on_c, 3, 47, 0
5, 63360, Note_on_c, 3, 48, 90
5, 63390, Note_on_c, 3, 48, 0
5, 63420, Note_on_c, 3, 48, 90
5, 63450, Note_on_c, 3, 48, 0
5, 63480, Note_on_c, 3, 48, 90
5, 63510, Note_on_c, 3, 48, 0
5, 63540, Note_on_c, 3, 48, 90
5, 63570, Note_on_c, 3, 48, 0
5, 63600, Note_on_c, 3, 48, 90
5, 63630, Note_on_c, 3, 48, 0
5, 63660, Note_on_c, 3, 48, 90
5, 63690, Note_on_c, 3, 48, 0
5, 63720, Note_on_c, 3, 48, 90
5, 63750, Note_on_c, 3, 48, 0
5, 63780, Note_on_c, 3, 48, 90
5, 63810, Note_on_c, 3, 48, 0
5, 63840, Note_on_c, 3, 48, 90
5, 63870, Note_on_c, 3, 48, 0
5, 63900, Note_on_c, 3, 48, 90
5, 63930, Note_on_c, 3, 48, 0
5, 63960, Note_on_c, 3, 48, 90
5, 63990, Note_on_c, 3, 48, 0
5, 64020, Note_on_c, 3, 48, 90
5, 64050, Note_on_c, 3, 48, 0
5, 64080, Note_on_c, 3, 48, 90
5, 64110, Note_on_c, 3, 48, 0
5, 64140, Note_on_c, 3, 48, 90
5, 64170, Note_on_c, 3, 48, 0
5, 64200, Note_on_c, 3, 48, 90
5, 64230, Note_on_c, 3, 48, 0
5, 64260, Note_on_c, 3, 48, 90
5, 64290, Note_on_c, 3, 48, 0
5, 64320, Note_on_c, 3, 48, 90
5, 64350, Note_on_c, 3, 48, 0
5, 64380, Note_on_c, 3, 48, 90
5, 64410, Note_on_c, 3, 48, 0
5, 64440, Note_on_c, 3, 48, 90
5, 64470, Note_on_c, 3, 48, 0
5, 64500, Note_on_c, 3, 48, 90
5, 64530, Note_on_c, 3, 48, 0
5, 64560, Note_on_c, 3, 48, 90
5, 64590, Note_on_c, 3, 48, 0
5, 64620, Note_on_c, 3, 48, 90
5, 64650, Note_on_c, 3, 48, 0
5, 64680, Note_on_c, 3, 48, 90
5, 64710, Note_on_c, 3, 48, 0
5, 64740, Note_on_c, 3, 48, 90
5, 64770, Note_on_c, 3, 48, 0
5, 64800, Note_on_c, 3, 48, 90
5, 64830, Note_on_c, 3, 48, 0
5, 64860, Note_on_c, 3, 48, 90
5, 64890, Note_on_c, 3, 48, 0
5, 64920, Note_on_c, 3, 48, 90
5, 64950, Note_on_c, 3, 48, 0
5, 64980, Note_on_c, 3, 48, 90
5, 65010, Note_on_c, 3, 48, 0
5, 65040, Note_on_c, 3, 48, 90
5, 65070, Note_on_c, 3, 48, 0
5, 65100, Note_on_c, 3, 48, 90
5, 65130, Note_on_c, 3, 48, 0
5, 65160, Note_on_c, 3, 48, 90
5, 65190, Note_on_c, 3, 48, 0
5, 65220, Note_on_c, 3, 48, 90
5, 65250, Note_on_c, 3, 48, 0
5, 65280, Note_on_c, 3, 48, 90
5, 65310, Note_on_c, 3, 48, 0
5, 65340, Note_on_c, 3, 48, 90
5, 65370, Note_on_c, 3, 48, 0
5, 65400, Note_on_c, 3, 48, 90
5, 65430, Note_on_c, 3, 48, 0
5, 65460, Note_on_c, 3, 48, 90
5, 65490, Note_on_c, 3, 48, 0
5, 65520, Note_on_c, 3, 49, 90
5, 65550, Note_on_c, 3, 49, 0
5, 65580, Note_on_c, 3, 49, 90
5, 65610, Note_on_c, 3, 49, 0
5, 65640, Note_on_c, 3, 49, 90
5, 65670, Note_on_c, 3, 49, 0
5, 65700, Note_on_c, 3, 50, 90
5, 65730, Note_on_c, 3, 50, 0
5, 65760, Note_on_c, 3, 50, 90
5, 65790, Note_on_c, 3, 50, 0
5, 65820, Note_on_c, 3, 50, 90
5, 65850, Note_on_c, 3, 50, 0
5, 65880, Note_on_c, 3, 52, 90
5, 65910, Note_on_c, 3, 52, 0
5, 65940, Note_on_c, 3, 52, 90
5, 65970, Note_on_c, 3, 52, 0
5, 66000, Note_on_c, 3, 53, 90
5, 66030, Note_on_c, 3, 53, 0
5, 66060, Note_on_c, 3, 58, 90
5, 66090, Note_on_c, 3, 58, 0
5, 66120, Note_on_c, 3, 60, 90
5, 66150, Note_on_c, 3, 60, 0
5, 66180, Note_on_c, 3, 48, 90
5, 66210, Note_on_c, 3, 48, 0
5, 66240, Note_on_c, 3, 53, 90
5, 66360, Note_on_c, 3, 53, 0
5, 66480, Note_on_c, 3, 52, 90
5, 66510, Note_on_c, 3, 52, 0
5, 66510, Note_on_c, 3, 50, 90
5, 66540, Note_on_c, 3, 50, 0
5, 66540, Note_on_c, 3, 48, 90
5, 66570, Note_on_c, 3, 48, 0
5, 66570, Note_on_c, 3, 46, 90
5, 66600, Note_on_c, 3, 46, 0
5, 66600, Note_on_c, 3, 45, 90
5, 66660, Note_on_c, 3, 45, 0
5, 66780, Note_on_c, 3, 43, 90
5, 66840, Note_on_c, 3, 43, 0
5, 66960, Note_on_c, 3, 42, 90
5, 67020, Note_on_c, 3, 42, 0
5, 67140, Note_on_c, 3, 38, 90
5, 67200, Note_on_c, 3, 38, 0
5, 67320, Note_on_c, 3, 43, 90
5, 67380, Note_on_c, 3, 43, 0
5, 67500, Note_on_c, 3, 48, 90
5, 67560, Note_on_c, 3, 48, 0
5, 67680, Note_on_c, 3, 50, 90
5, 67740, Note_on_c, 3, 50, 0
5, 67860, Note_on_c, 3, 54, 90
5, 67920, Note_on_c, 3, 54, 0
5, 68040, Note_on_c, 3, 55, 90
5, 68100, Note_on_c, 3, 55, 0
5, 68220, Note_on_c, 3, 58, 90
5, 68280, Note_on_c, 3, 58, 0
5, 68400, Note_on_c, 3, 57, 90
5, 68460, Note_on_c, 3, 57, 0
5, 68580, Note_on_c, 3, 49, 90
5, 68640, Note_on_c, 3, 49, 0
5, 68760, Note_on_c, 3, 50, 90
5, 68820, Note_on_c, 3, 50, 0
5, 68940, Note_on_c, 3, 45, 90
5, 69000, Note_on_c, 3, 45, 0
5, 69120, Note_on_c, 3, 38, 90
5, 69240, Note_on_c, 3, 38, 0
5, 69360, Note_on_c, 3, 45, 90
5, 69390, Note_on_c, 3, 45, 0
5, 69420, Note_on_c, 3, 48, 90
5, 69450, Note_on_c, 3, 48, 0
5, 69480, Note_on_c, 3, 47, 90
5, 69540, Note_on_c, 3, 47, 0
5, 69840, Note_on_c, 3, 46, 90
5, 69900, Note_on_c, 3, 46, 0
5, 70200, Note_on_c, 3, 45, 90
5, 70260, Note_on_c, 3, 45, 0
5, 70380, Note_on_c, 3, 41, 90
5, 70440, Note_on_c, 3, 41, 0
5, 70560, Note_on_c, 3, 50, 90
5, 70620, Note_on_c, 3, 50, 0
5, 70740, Note_on_c, 3, 38, 90
5, 70800, Note_on_c, 3, 38, 0
5, 70920, Note_on_c, 3, 40, 90
5, 70980, Note_on_c, 3, 40, 0
5, 71100, Note_on_c, 3, 36, 90
5, 71160, Note_on_c, 3, 36, 0
5, 71280, Note_on_c, 3, 41, 90
5, 71340, Note_on_c, 3, 41, 0
5, 71460, Note_on_c, 3, 45, 90
5, 71520, Note_on_c, 3, 45, 0
5, 71640, Note_on_c, 3, 47, 90
5, 71700, Note_on_c, 3, 47, 0
5, 71820, Note_on_c, 3, 43, 90
5, 71880, Note_on_c, 3, 43, 0
5, 72000, Note_on_c, 3, 48, 90
5, 72060, Note_on_c, 3, 48, 0
5, 72360, Note_on_c, 3, 48, 90
5, 72420, Note_on_c, 3, 48, 0
5, 72720, Note_on_c, 3, 48, 90
5, 72780, Note_on_c, 3, 48, 0
5, 73080, Note_on_c, 3, 48, 90
5, 73140, Note_on_c, 3, 48, 0
5, 73440, Note_on_c, 3, 48, 90
5, 73500, Note_on_c, 3, 48, 0
5, 73800, Note_on_c, 3, 48, 90
5, 73860, Note_on_c, 3, 48, 0
5, 74160, Note_on_c, 3, 49, 90
5, 74250, Note_on_c, 3, 49, 0
5, 74340, Note_on_c, 3, 50, 90
5, 74430, Note_on_c, 3, 50, 0
5, 74520, Note_on_c, 3, 52, 90
5, 74580, Note_on_c, 3, 52, 0
5, 74640, Note_on_c, 3, 53, 90
5, 74670, Note_on_c, 3, 53, 0
5, 74700, Note_on_c, 3, 46, 90
5, 74730, Note_on_c, 3, 46, 0
5, 74760, Note_on_c, 3, 48, 90
5, 74790, Note_on_c, 3, 48, 0
5, 74820, Note_on_c, 3, 36, 90
5, 74850, Note_on_c, 3, 36, 0
5, 74880, Note_on_c, 3, 41, 90
5, 75000, Note_on_c, 3, 41, 0
5, 76140, Note_on_c, 3, 46, 90
5, 76320, Note_on_c, 3, 46, 0
5, 76320, Note_on_c, 3, 45, 100
5, 76680, Note_on_c, 3, 45, 0
5, 77040, Note_on_c, 3, 50, 90
5, 77099, Note_on_c, 3, 50, 0
5, 77160, Note_on_c, 3, 52, 90
5, 77219, Note_on_c, 3, 52, 0
5, 77280, Note_on_c, 3, 53, 90
5, 77339, Note_on_c, 3, 53, 0
5, 77400, Note_on_c, 3, 55, 90
5, 77459, Note_on_c, 3, 55, 0
5, 77520, Note_on_c, 3, 57, 90
5, 77579, Note_on_c, 3, 57, 0
5, 77580, Note_on_c, 3, 58, 90
5, 77639, Note_on_c, 3, 58, 0
5, 77640, Note_on_c, 3, 55, 90
5, 77699, Note_on_c, 3, 55, 0
5, 77700, Note_on_c, 3, 57, 90
5, 77759, Note_on_c, 3, 57, 0
5, 77760, Note_on_c, 3, 62, 90
5, 77819, Note_on_c, 3, 62, 0
5, 77820, Note_on_c, 3, 59, 90
5, 77879, Note_on_c, 3, 59, 0
5, 77880, Note_on_c, 3, 56, 90
5, 77939, Note_on_c, 3, 56, 0
5, 77940, Note_on_c, 3, 52, 90
5, 77999, Note_on_c, 3, 52, 0
5, 78000, Note_on_c, 3, 57, 90
5, 78059, Note_on_c, 3, 57, 0
5, 78120, Note_on_c, 3, 59, 90
5, 78179, Note_on_c, 3, 59, 0
5, 78240, Note_on_c, 3, 60, 90
5, 78299, Note_on_c, 3, 60, 0
5, 78360, Note_on_c, 3, 62, 90
5, 78419, Note_on_c, 3, 62, 0
5, 78480, Note_on_c, 3, 64, 90
5, 78539, Note_on_c, 3, 64, 0
5, 78540, Note_on_c, 3, 65, 90
5, 78599, Note_on_c, 3, 65, 0
5, 78600, Note_on_c, 3, 62, 90
5, 78659, Note_on_c, 3, 62, 0
5, 78660, Note_on_c, 3, 64, 90
5, 78719, Note_on_c, 3, 64, 0
5, 78720, Note_on_c, 3, 57, 90
5, 78779, Note_on_c, 3, 57, 0
5, 78840, Note_on_c, 3, 45, 90
5, 78899, Note_on_c, 3, 45, 0
5, 78960, Note_on_c, 3, 50, 90
5, 79019, Note_on_c, 3, 50, 0
5, 79080, Note_on_c, 3, 62, 90
5, 79139, Note_on_c, 3, 62, 0
5, 79200, Note_on_c, 3, 55, 90
5, 79259, Note_on_c, 3, 55, 0
5, 79320, Note_on_c, 3, 43, 90
5, 79379, Note_on_c, 3, 43, 0
5, 79440, Note_on_c, 3, 48, 90
5, 79499, Note_on_c, 3, 48, 0
5, 79560, Note_on_c, 3, 60, 90
5, 79619, Note_on_c, 3, 60, 0
5, 79680, Note_on_c, 3, 53, 90
5, 79739, Note_on_c, 3, 53, 0
5, 79740, Note_on_c, 3, 65, 90
5, 79859, Note_on_c, 3, 65, 0
5, 79860, Note_on_c, 3, 64, 90
5, 79979, Note_on_c, 3, 64, 0
5, 79980, Note_on_c, 3, 62, 90
5, 80099, Note_on_c, 3, 62, 0
5, 80100, Note_on_c, 3, 61, 90
5, 80159, Note_on_c, 3, 61, 0
5, 80160, Note_on_c, 3, 62, 90
5, 80219, Note_on_c, 3, 62, 0
5, 80220, Note_on_c, 3, 58, 90
5, 80279, Note_on_c, 3, 58, 0
5, 80280, Note_on_c, 3, 55, 90
5, 80339, Note_on_c, 3, 55, 0
5, 80340, Note_on_c, 3, 57, 90
5, 80399, Note_on_c, 3, 57, 0
5, 80400, Note_on_c, 3, 50, 90
5, 80459, Note_on_c, 3, 50, 0
5, 80520, Note_on_c, 3, 52, 90
5, 80579, Note_on_c, 3, 52, 0
5, 80640, Note_on_c, 3, 53, 90
5, 80699, Note_on_c, 3, 53, 0
5, 80760, Note_on_c, 3, 55, 90
5, 80819, Note_on_c, 3, 55, 0
5, 80880, Note_on_c, 3, 57, 90
5, 80939, Note_on_c, 3, 57, 0
5, 80940, Note_on_c, 3, 58, 90
5, 80999, Note_on_c, 3, 58, 0
5, 81000, Note_on_c, 3, 55, 90
5, 81059, Note_on_c, 3, 55, 0
5, 81060, Note_on_c, 3, 57, 90
5, 81119, Note_on_c, 3, 57, 0
5, 81120, Note_on_c, 3, 50, 90
5, 81179, Note_on_c, 3, 50, 0
5, 81180, Note_on_c, 3, 59, 90
5, 81239, Note_on_c, 3, 59, 0
5, 81240, Note_on_c, 3, 56, 90
5, 81299, Note_on_c, 3, 56, 0
5, 81300, Note_on_c, 3, 52, 90
5, 81359, Note_on_c, 3, 52, 0
5, 81360, Note_on_c, 3, 45, 90
5, 81419, Note_on_c, 3, 45, 0
5, 81480, Note_on_c, 3, 47, 90
5, 81539, Note_on_c, 3, 47, 0
5, 81600, Note_on_c, 3, 48, 90
5, 81659, Note_on_c, 3, 48, 0
5, 81720, Note_on_c, 3, 50, 90
5, 81779, Note_on_c, 3, 50, 0
5, 81840, Note_on_c, 3, 52, 90
5, 81899, Note_on_c, 3, 52, 0
5, 81900, Note_on_c, 3, 53, 90
5, 81959, Note_on_c, 3, 53, 0
5, 81960, Note_on_c, 3, 50, 90
5, 82019, Note_on_c, 3, 50, 0
5, 82020, Note_on_c, 3, 52, 90
5, 82079, Note_on_c, 3, 52, 0
5, 82080, Note_on_c, 3, 45, 90
5, 82139, Note_on_c, 3, 45, 0
5, 83280, Note_on_c, 3, 45, 90
5, 83339, Note_on_c, 3, 45, 0
5, 83340, Note_on_c, 3, 50, 90
5, 83459, Note_on_c, 3, 50, 0
5, 83460, Note_on_c, 3, 49, 90
5, 83519, Note_on_c, 3, 49, 0
5, 83520, Note_on_c, 3, 50, 90
5, 83579, Note_on_c, 3, 50, 0
5, 83580, Note_on_c, 3, 52, 90
5, 83699, Note_on_c, 3, 52, 0
5, 83700, Note_on_c, 3, 53, 90
5, 83819, Note_on_c, 3, 53, 0
5, 83820, Note_on_c, 3, 52, 90
5, 83849, Note_on_c, 3, 52, 0
5, 83850, Note_on_c, 3, 50, 90
5, 83879, Note_on_c, 3, 50, 0
5, 83880, Note_on_c, 3, 53, 90
5, 83909, Note_on_c, 3, 53, 0
5, 83910, Note_on_c, 3, 52, 90
5, 83939, Note_on_c, 3, 52, 0
5, 83940, Note_on_c, 3, 50, 90
5, 83969, Note_on_c, 3, 50, 0
5, 83970, Note_on_c, 3, 49, 90
5, 83999, Note_on_c, 3, 49, 0
5, 84000, Note_on_c, 3, 50, 90
5, 84059, Note_on_c, 3, 50, 0
5, 84120, Note_on_c, 3, 62, 90
5, 84179, Note_on_c, 3, 62, 0
5, 84240, Note_on_c, 3, 55, 90
5, 84299, Note_on_c, 3, 55, 0
5, 84360, Note_on_c, 3, 43, 90
5, 84419, Note_on_c, 3, 43, 0
5, 84480, Note_on_c, 3, 48, 90
5, 84539, Note_on_c, 3, 48, 0
5, 84600, Note_on_c, 3, 60, 90
5, 84659, Note_on_c, 3, 60, 0
5, 84720, Note_on_c, 3, 53, 90
5, 84779, Note_on_c, 3, 53, 0
5, 84840, Note_on_c, 3, 41, 90
5, 84899, Note_on_c, 3, 41, 0
5, 84960, Note_on_c, 3, 46, 90
5, 85019, Note_on_c, 3, 46, 0
5, 85080, Note_on_c, 3, 58, 90
5, 85139, Note_on_c, 3, 58, 0
5, 85200, Note_on_c, 3, 52, 90
5, 85259, Note_on_c, 3, 52, 0
5, 85320, Note_on_c, 3, 40, 90
5, 85379, Note_on_c, 3, 40, 0
5, 85440, Note_on_c, 3, 45, 90
5, 85499, Note_on_c, 3, 45, 0
5, 85500, Note_on_c, 3, 57, 90
5, 85589, Note_on_c, 3, 57, 0
5, 85590, Note_on_c, 3, 55, 90
5, 85619, Note_on_c, 3, 55, 0
5, 85620, Note_on_c, 3, 53, 90
5, 85649, Note_on_c, 3, 53, 0
5, 85650, Note_on_c, 3, 52, 90
5, 85679, Note_on_c, 3, 52, 0
5, 85680, Note_on_c, 3, 50, 90
5, 85739, Note_on_c, 3, 50, 0
5, 85800, Note_on_c, 3, 52, 90
5, 85859, Note_on_c, 3, 52, 0
5, 85920, Note_on_c, 3, 53, 90
5, 85979, Note_on_c, 3, 53, 0
5, 86040, Note_on_c, 3, 55, 90
5, 86099, Note_on_c, 3, 55, 0
5, 86160, Note_on_c, 3, 57, 90
5, 86219, Note_on_c, 3, 57, 0
5, 86220, Note_on_c, 3, 58, 90
5, 86279, Note_on_c, 3, 58, 0
5, 86280, Note_on_c, 3, 55, 90
5, 86339, Note_on_c, 3, 55, 0
5, 86340, Note_on_c, 3, 57, 90
5, 86399, Note_on_c, 3, 57, 0
5, 86400, Note_on_c, 3, 50, 90
5, 86519, Note_on_c, 3, 50, 0
5, 86700, Note_on_c, 3, 57, 90
5, 86759, Note_on_c, 3, 57, 0
5, 86760, Note_on_c, 3, 62, 90
5, 86939, Note_on_c, 3, 62, 0
5, 86940, Note_on_c, 3, 61, 90
5, 86999, Note_on_c, 3, 61, 0
5, 87000, Note_on_c, 3, 62, 90
5, 87059, Note_on_c, 3, 62, 0
5, 87180, Note_on_c, 3, 53, 90
5, 87299, Note_on_c, 3, 53, 0
5, 87300, Note_on_c, 3, 50, 90
5, 87359, Note_on_c, 3, 50, 0
5, 87360, Note_on_c, 3, 47, 90
5, 87419, Note_on_c, 3, 47, 0
5, 87420, Note_on_c, 3, 56, 90
5, 87479, Note_on_c, 3, 56, 0
5, 87480, Note_on_c, 3, 57, 90
5, 87539, Note_on_c, 3, 57, 0
5, 87660, Note_on_c, 3, 57, 90
5, 87719, Note_on_c, 3, 57, 0
5, 87720, Note_on_c, 3, 60, 90
5, 87779, Note_on_c, 3, 60, 0
5, 87780, Note_on_c, 3, 51, 90
5, 87839, Note_on_c, 3, 51, 0
5, 87840, Note_on_c, 3, 50, 90
5, 87899, Note_on_c, 3, 50, 0
5, 87900, Note_on_c, 3, 54, 90
5, 87959, Note_on_c, 3, 54, 0
5, 87960, Note_on_c, 3, 55, 90
5, 88019, Note_on_c, 3, 55, 0
5, 88140, Note_on_c, 3, 55, 90
5, 88199, Note_on_c, 3, 55, 0
5, 88200, Note_on_c, 3, 58, 90
5, 88259, Note_on_c, 3, 58, 0
5, 88260, Note_on_c, 3, 50, 90
5, 88319, Note_on_c, 3, 50, 0
5, 88320, Note_on_c, 3, 48, 90
5, 88379, Note_on_c, 3, 48, 0
5, 88380, Note_on_c, 3, 52, 90
5, 88439, Note_on_c, 3, 52, 0
5, 88440, Note_on_c, 3, 53, 90
5, 88499, Note_on_c, 3, 53, 0
5, 88620, Note_on_c, 3, 53, 90
5, 88679, Note_on_c, 3, 53, 0
5, 88680, Note_on_c, 3, 46, 90
5, 88739, Note_on_c, 3, 46, 0
5, 88860, Note_on_c, 3, 55, 90
5, 88919, Note_on_c, 3, 55, 0
5, 88920, Note_on_c, 3, 48, 90
5, 88979, Note_on_c, 3, 48, 0
5, 89100, Note_on_c, 3, 57, 90
5, 89159, Note_on_c, 3, 57, 0
5, 89160, Note_on_c, 3, 46, 90
5, 89219, Note_on_c, 3, 46, 0
5, 89220, Note_on_c, 3, 55, 90
5, 89279, Note_on_c, 3, 55, 0
5, 89280, Note_on_c, 3, 45, 90
5, 89339, Note_on_c, 3, 45, 0
5, 89340, Note_on_c, 3, 53, 90
5, 89399, Note_on_c, 3, 53, 0
5, 89400, Note_on_c, 3, 43, 90
5, 89459, Note_on_c, 3, 43, 0
5, 89460, Note_on_c, 3, 52, 90
5, 89519, Note_on_c, 3, 52, 0
5, 89520, Note_on_c, 3, 41, 90
5, 89579, Note_on_c, 3, 41, 0
5, 89580, Note_on_c, 3, 53, 90
5, 89609, Note_on_c, 3, 53, 0
5, 89610, Note_on_c, 3, 52, 90
5, 89639, Note_on_c, 3, 52, 0
5, 89640, Note_on_c, 3, 50, 90
5, 89699, Note_on_c, 3, 50, 0
5, 89700, Note_on_c, 3, 47, 90
5, 89759, Note_on_c, 3, 47, 0
5, 89760, Note_on_c, 3, 52, 90
5, 89819, Note_on_c, 3, 52, 0
5, 89880, Note_on_c, 3, 40, 90
5, 89939, Note_on_c, 3, 40, 0
5, 90000, Note_on_c, 3, 52, 90
5, 90059, Note_on_c, 3, 52, 0
5, 90120, Note_on_c, 3, 40, 90
5, 90179, Note_on_c, 3, 40, 0
5, 90240, Note_on_c, 3, 52, 90
5, 90299, Note_on_c, 3, 52, 0
5, 90360, Note_on_c, 3, 40, 90
5, 90419, Note_on_c, 3, 40, 0
5, 90540, Note_on_c, 3, 47, 90
5, 90599, Note_on_c, 3, 47, 0
5, 90600, Note_on_c, 3, 48, 90
5, 90659, Note_on_c, 3, 48, 0
5, 90660, Note_on_c, 3, 50, 90
5, 90719, Note_on_c, 3, 50, 0
5, 90720, Note_on_c, 3, 52, 90
5, 90779, Note_on_c, 3, 52, 0
5, 90780, Note_on_c, 3, 40, 90
5, 90839, Note_on_c, 3, 40, 0
5, 90840, Note_on_c, 3, 41, 90
5, 90899, Note_on_c, 3, 41, 0
5, 90900, Note_on_c, 3, 42, 90
5, 90959, Note_on_c, 3, 42, 0
5, 90960, Note_on_c, 3, 43, 90
5, 91019, Note_on_c, 3, 43, 0
5, 91020, Note_on_c, 3, 44, 90
5, 91079, Note_on_c, 3, 44, 0
5, 91080, Note_on_c, 3, 45, 90
5, 91139, Note_on_c, 3, 45, 0
5, 91140, Note_on_c, 3, 57, 90
5, 91199, Note_on_c, 3, 57, 0
5, 91200, Note_on_c, 3, 58, 90
5, 91259, Note_on_c, 3, 58, 0
5, 91260, Note_on_c, 3, 59, 90
5, 91319, Note_on_c, 3, 59, 0
5, 91320, Note_on_c, 3, 60, 90
5, 91379, Note_on_c, 3, 60, 0
5, 91380, Note_on_c, 3, 61, 90
5, 91439, Note_on_c, 3, 61, 0
5, 91440, Note_on_c, 3, 62, 90
5, 91499, Note_on_c, 3, 62, 0
5, 91500, Note_on_c, 3, 50, 90
5, 91559, Note_on_c, 3, 50, 0
5, 91560, Note_on_c, 3, 47, 90
5, 91619, Note_on_c, 3, 47, 0
5, 91620, Note_on_c, 3, 50, 90
5, 91679, Note_on_c, 3, 50, 0
5, 91680, Note_on_c, 3, 52, 90
5, 93180, Note_on_c, 3, 52, 0
5, 93180, Note_on_c, 3, 47, 90
5, 93239, Note_on_c, 3, 47, 0
5, 93240, Note_on_c, 3, 44, 90
5, 93299, Note_on_c, 3, 44, 0
5, 93300, Note_on_c, 3, 40, 90
5, 93359, Note_on_c, 3, 40, 0
5, 93360, Note_on_c, 3, 45, 90
5, 93419, Note_on_c, 3, 45, 0
5, 93480, Note_on_c, 3, 47, 90
5, 93539, Note_on_c, 3, 47, 0
5, 93600, Note_on_c, 3, 48, 90
5, 93659, Note_on_c, 3, 48, 0
5, 93720, Note_on_c, 3, 50, 90
5, 93779, Note_on_c, 3, 50, 0
5, 93840, Note_on_c, 3, 52, 90
5, 93899, Note_on_c, 3, 52, 0
5, 93900, Note_on_c, 3, 53, 90
5, 93959, Note_on_c, 3, 53, 0
5, 93960, Note_on_c, 3, 50, 90
5, 94019, Note_on_c, 3, 50, 0
5, 94020, Note_on_c, 3, 52, 90
5, 94079, Note_on_c, 3, 52, 0
5, 94080, Note_on_c, 3, 45, 90
5, 94199, Note_on_c, 3, 45, 0
5, 94380, Note_on_c, 3, 52, 90
5, 94439, Note_on_c, 3, 52, 0
5, 94440, Note_on_c, 3, 57, 90
5, 94619, Note_on_c, 3, 57, 0
5, 94620, Note_on_c, 3, 56, 90
5, 94679, Note_on_c, 3, 56, 0
5, 94680, Note_on_c, 3, 57, 90
5, 94739, Note_on_c, 3, 57, 0
5, 94860, Note_on_c, 3, 58, 90
5, 94979, Note_on_c, 3, 58, 0
5, 94980, Note_on_c, 3, 55, 90
5, 95039, Note_on_c, 3, 55, 0
5, 95040, Note_on_c, 3, 52, 90
5, 95099, Note_on_c, 3, 52, 0
5, 95100, Note_on_c, 3, 61, 90
5, 95159, Note_on_c, 3, 61, 0
5, 95160, Note_on_c, 3, 62, 90
5, 95219, Note_on_c, 3, 62, 0
5, 95340, Note_on_c, 3, 62, 90
5, 95399, Note_on_c, 3, 62, 0
5, 95400, Note_on_c, 3, 65, 90
5, 95459, Note_on_c, 3, 65, 0
5, 95460, Note_on_c, 3, 58, 90
5, 95519, Note_on_c, 3, 58, 0
5, 95520, Note_on_c, 3, 55, 90
5, 95579, Note_on_c, 3, 55, 0
5, 95580, Note_on_c, 3, 59, 90
5, 95639, Note_on_c, 3, 59, 0
5, 95640, Note_on_c, 3, 48, 90
5, 95699, Note_on_c, 3, 48, 0
5, 95820, Note_on_c, 3, 60, 90
5, 95879, Note_on_c, 3, 60, 0
5, 95880, Note_on_c, 3, 63, 90
5, 95939, Note_on_c, 3, 63, 0
5, 95940, Note_on_c, 3, 55, 90
5, 95999, Note_on_c, 3, 55, 0
5, 96000, Note_on_c, 3, 53, 90
5, 96059, Note_on_c, 3, 53, 0
5, 96060, Note_on_c, 3, 57, 90
5, 96119, Note_on_c, 3, 57, 0
5, 96120, Note_on_c, 3, 46, 90
5, 96179, Note_on_c, 3, 46, 0
5, 96300, Note_on_c, 3, 46, 90
5, 96359, Note_on_c, 3, 46, 0
5, 96360, Note_on_c, 3, 39, 90
5, 96419, Note_on_c, 3, 39, 0
5, 96540, Note_on_c, 3, 48, 90
5, 96599, Note_on_c, 3, 48, 0
5, 96600, Note_on_c, 3, 41, 90
5, 96659, Note_on_c, 3, 41, 0
5, 96780, Note_on_c, 3, 62, 90
5, 96839, Note_on_c, 3, 62, 0
5, 96840, Note_on_c, 3, 51, 90
5, 96899, Note_on_c, 3, 51, 0
5, 96900, Note_on_c, 3, 60, 90
5, 96959, Note_on_c, 3, 60, 0
5, 96960, Note_on_c, 3, 50, 90
5, 97019, Note_on_c, 3, 50, 0
5, 97020, Note_on_c, 3, 58, 90
5, 97079, Note_on_c, 3, 58, 0
5, 97080, Note_on_c, 3, 48, 90
5, 97139, Note_on_c, 3, 48, 0
5, 97140, Note_on_c, 3, 57, 90
5, 97199, Note_on_c, 3, 57, 0
5, 97200, Note_on_c, 3, 46, 90
5, 97259, Note_on_c, 3, 46, 0
5, 97260, Note_on_c, 3, 58, 90
5, 97289, Note_on_c, 3, 58, 0
5, 97290, Note_on_c, 3, 57, 90
5, 97319, Note_on_c, 3, 57, 0
5, 97320, Note_on_c, 3, 55, 90
5, 97379, Note_on_c, 3, 55, 0
5, 97380, Note_on_c, 3, 52, 90
5, 97439, Note_on_c, 3, 52, 0
5, 97440, Note_on_c, 3, 57, 90
5, 97499, Note_on_c, 3, 57, 0
5, 97560, Note_on_c, 3, 45, 90
5, 97619, Note_on_c, 3, 45, 0
5, 97680, Note_on_c, 3, 57, 90
5, 97739, Note_on_c, 3, 57, 0
5, 97800, Note_on_c, 3, 45, 90
5, 97859, Note_on_c, 3, 45, 0
5, 97920, Note_on_c, 3, 57, 90
5, 97979, Note_on_c, 3, 57, 0
5, 98040, Note_on_c, 3, 45, 90
5, 98099, Note_on_c, 3, 45, 0
5, 98220, Note_on_c, 3, 40, 90
5, 98279, Note_on_c, 3, 40, 0
5, 98280, Note_on_c, 3, 41, 90
5, 98339, Note_on_c, 3, 41, 0
5, 98340, Note_on_c, 3, 43, 90
5, 98399, Note_on_c, 3, 43, 0
5, 98400, Note_on_c, 3, 45, 90
5, 98459, Note_on_c, 3, 45, 0
5, 98460, Note_on_c, 3, 57, 90
5, 98519, Note_on_c, 3, 57, 0
5, 98520, Note_on_c, 3, 58, 90
5, 98579, Note_on_c, 3, 58, 0
5, 98580, Note_on_c, 3, 59, 90
5, 98639, Note_on_c, 3, 59, 0
5, 98640, Note_on_c, 3, 60, 90
5, 98699, Note_on_c, 3, 60, 0
5, 98700, Note_on_c, 3, 61, 90
5, 98759, Note_on_c, 3, 61, 0
5, 98760, Note_on_c, 3, 62, 90
5, 98819, Note_on_c, 3, 62, 0
5, 98820, Note_on_c, 3, 50, 90
5, 98879, Note_on_c, 3, 50, 0
5, 98880, Note_on_c, 3, 51, 90
5, 98939, Note_on_c, 3, 51, 0
5, 98940, Note_on_c, 3, 52, 90
5, 98999, Note_on_c, 3, 52, 0
5, 99000, Note_on_c, 3, 53, 90
5, 99059, Note_on_c, 3, 53, 0
5, 99060, Note_on_c, 3, 54, 90
5, 99119, Note_on_c, 3, 54, 0
5, 99120, Note_on_c, 3, 55, 90
5, 99179, Note_on_c, 3, 55, 0
5, 99180, Note_on_c, 3, 43, 90
5, 99239, Note_on_c, 3, 43, 0
5, 99240, Note_on_c, 3, 40, 90
5, 99299, Note_on_c, 3, 40, 0
5, 99300, Note_on_c, 3, 43, 90
5, 99359, Note_on_c, 3, 43, 0
5, 99360, Note_on_c, 3, 45, 90
5, 100860, Note_on_c, 3, 45, 0
5, 100860, Note_on_c, 3, 52, 90
5, 100919, Note_on_c, 3, 52, 0
5, 100920, Note_on_c, 3, 49, 90
5, 100979, Note_on_c, 3, 49, 0
5, 100980, Note_on_c, 3, 45, 90
5, 101039, Note_on_c, 3, 45, 0
5, 101040, Note_on_c, 3, 50, 90
5, 101099, Note_on_c, 3, 50, 0
5, 101160, Note_on_c, 3, 52, 90
5, 101219, Note_on_c, 3, 52, 0
5, 101280, Note_on_c, 3, 53, 90
5, 101339, Note_on_c, 3, 53, 0
5, 101400, Note_on_c, 3, 55, 90
5, 101459, Note_on_c, 3, 55, 0
5, 101520, Note_on_c, 3, 62, 90
5, 101579, Note_on_c, 3, 62, 0
5, 101640, Note_on_c, 3, 57, 90
5, 101699, Note_on_c, 3, 57, 0
5, 101760, Note_on_c, 3, 53, 90
5, 101819, Note_on_c, 3, 53, 0
5, 101880, Note_on_c, 3, 57, 90
5, 101939, Note_on_c, 3, 57, 0
5, 102000, Note_on_c, 3, 50, 90
5, 102059, Note_on_c, 3, 50, 0
5, 102120, Note_on_c, 3, 45, 90
5, 102179, Note_on_c, 3, 45, 0
5, 102240, Note_on_c, 3, 38, 90
5, 102299, Note_on_c, 3, 38, 0
5, 102300, Note_on_c, 3, 50, 90
5, 102359, Note_on_c, 3, 50, 0
5, 102360, Note_on_c, 3, 52, 90
5, 102419, Note_on_c, 3, 52, 0
5, 102420, Note_on_c, 3, 53, 90
5, 102479, Note_on_c, 3, 53, 0
5, 102480, Note_on_c, 3, 46, 90
5, 102539, Note_on_c, 3, 46, 0
5, 102540, Note_on_c, 3, 43, 90
5, 102599, Note_on_c, 3, 43, 0
5, 102600, Note_on_c, 3, 45, 90
5, 102659, Note_on_c, 3, 45, 0
5, 102660, Note_on_c, 3, 46, 90
5, 102719, Note_on_c, 3, 46, 0
5, 102720, Note_on_c, 3, 48, 90
5, 102779, Note_on_c, 3, 48, 0
5, 102780, Note_on_c, 3, 60, 90
5, 102809, Note_on_c, 3, 60, 0
5, 102810, Note_on_c, 3, 58, 90
5, 102839, Note_on_c, 3, 58, 0
5, 102840, Note_on_c, 3, 57, 90
5, 102869, Note_on_c, 3, 57, 0
5, 102870, Note_on_c, 3, 55, 90
5, 102899, Note_on_c, 3, 55, 0
5, 102900, Note_on_c, 3, 53, 90
5, 102929, Note_on_c, 3, 53, 0
5, 102930, Note_on_c, 3, 52, 90
5, 102959, Note_on_c, 3, 52, 0
5, 102960, Note_on_c, 3, 53, 90
5, 103019, Note_on_c, 3, 53, 0
5, 103080, Note_on_c, 3, 55, 90
5, 103139, Note_on_c, 3, 55, 0
5, 103200, Note_on_c, 3, 57, 90
5, 103259, Note_on_c, 3, 57, 0
5, 103320, Note_on_c, 3, 58, 90
5, 103379, Note_on_c, 3, 58, 0
5, 103440, Note_on_c, 3, 60, 90
5, 103499, Note_on_c, 3, 60, 0
5, 103500, Note_on_c, 3, 62, 90
5, 103559, Note_on_c, 3, 62, 0
5, 103560, Note_on_c, 3, 58, 90
5, 103619, Note_on_c, 3, 58, 0
5, 103620, Note_on_c, 3, 60, 90
5, 103679, Note_on_c, 3, 60, 0
5, 103680, Note_on_c, 3, 53, 90
5, 103739, Note_on_c, 3, 53, 0
5, 103740, Note_on_c, 3, 41, 90
5, 103799, Note_on_c, 3, 41, 0
5, 103800, Note_on_c, 3, 40, 90
5, 103859, Note_on_c, 3, 40, 0
5, 103860, Note_on_c, 3, 38, 90
5, 103919, Note_on_c, 3, 38, 0
5, 103920, Note_on_c, 3, 36, 90
5, 103979, Note_on_c, 3, 36, 0
5, 104040, Note_on_c, 3, 38, 90
5, 104099, Note_on_c, 3, 38, 0
5, 104160, Note_on_c, 3, 40, 90
5, 104219, Note_on_c, 3, 40, 0
5, 104280, Note_on_c, 3, 41, 90
5, 104339, Note_on_c, 3, 41, 0
5, 104400, Note_on_c, 3, 43, 90
5, 104459, Note_on_c, 3, 43, 0
5, 104460, Note_on_c, 3, 45, 90
5, 104519, Note_on_c, 3, 45, 0
5, 104520, Note_on_c, 3, 41, 90
5, 104579, Note_on_c, 3, 41, 0
5, 104580, Note_on_c, 3, 43, 90
5, 104639, Note_on_c, 3, 43, 0
5, 104640, Note_on_c, 3, 48, 90
5, 104699, Note_on_c, 3, 48, 0
5, 104880, Note_on_c, 3, 42, 90
5, 104939, Note_on_c, 3, 42, 0
5, 104940, Note_on_c, 3, 42, 90
5, 104999, Note_on_c, 3, 42, 0
5, 105000, Note_on_c, 3, 42, 90
5, 105059, Note_on_c, 3, 42, 0
5, 105060, Note_on_c, 3, 42, 90
5, 105119, Note_on_c, 3, 42, 0
5, 105120, Note_on_c, 3, 43, 90
5, 105179, Note_on_c, 3, 43, 0
5, 105360, Note_on_c, 3, 40, 90
5, 105419, Note_on_c, 3, 40, 0
5, 105420, Note_on_c, 3, 40, 90
5, 105479, Note_on_c, 3, 40, 0
5, 105480, Note_on_c, 3, 40, 90
5, 105539, Note_on_c, 3, 40, 0
5, 105540, Note_on_c, 3, 40, 90
5, 105599, Note_on_c, 3, 40, 0
5, 105600, Note_on_c, 3, 41, 90
5, 105659, Note_on_c, 3, 41, 0
5, 105840, Note_on_c, 3, 51, 90
5, 105899, Note_on_c, 3, 51, 0
5, 105900, Note_on_c, 3, 51, 90
5, 105959, Note_on_c, 3, 51, 0
5, 105960, Note_on_c, 3, 51, 90
5, 106019, Note_on_c, 3, 51, 0
5, 106020, Note_on_c, 3, 51, 90
5, 106079, Note_on_c, 3, 51, 0
5, 106080, Note_on_c, 3, 50, 90
5, 106139, Note_on_c, 3, 50, 0
5, 106140, Note_on_c, 3, 50, 90
5, 106199, Note_on_c, 3, 50, 0
5, 106200, Note_on_c, 3, 48, 90
5, 106259, Note_on_c, 3, 48, 0
5, 106260, Note_on_c, 3, 48, 90
5, 106319, Note_on_c, 3, 48, 0
5, 106320, Note_on_c, 3, 47, 90
5, 106379, Note_on_c, 3, 47, 0
5, 106380, Note_on_c, 3, 47, 90
5, 106439, Note_on_c, 3, 47, 0
5, 106440, Note_on_c, 3, 47, 90
5, 106499, Note_on_c, 3, 47, 0
5, 106500, Note_on_c, 3, 47, 90
5, 106559, Note_on_c, 3, 47, 0
5, 106560, Note_on_c, 3, 48, 90
5, 106619, Note_on_c, 3, 48, 0
5, 106620, Note_on_c, 3, 48, 90
5, 106679, Note_on_c, 3, 48, 0
5, 106680, Note_on_c, 3, 46, 90
5, 106739, Note_on_c, 3, 46, 0
5, 106740, Note_on_c, 3, 46, 90
5, 106799, Note_on_c, 3, 46, 0
5, 106800, Note_on_c, 3, 45, 90
5, 106859, Note_on_c, 3, 45, 0
5, 106860, Note_on_c, 3, 45, 90
5, 106919, Note_on_c, 3, 45, 0
5, 106920, Note_on_c, 3, 57, 90
5, 106979, Note_on_c, 3, 57, 0
5, 106980, Note_on_c, 3, 57, 90
5, 107039, Note_on_c, 3, 57, 0
5, 107040, Note_on_c, 3, 57, 90
5, 107099, Note_on_c, 3, 57, 0
5, 107100, Note_on_c, 3, 57, 90
5, 107159, Note_on_c, 3, 57, 0
5, 107160, Note_on_c, 3, 56, 90
5, 107219, Note_on_c, 3, 56, 0
5, 107220, Note_on_c, 3, 56, 90
5, 107279, Note_on_c, 3, 56, 0
5, 107280, Note_on_c, 3, 55, 90
5, 107339, Note_on_c, 3, 55, 0
5, 107340, Note_on_c, 3, 55, 90
5, 107399, Note_on_c, 3, 55, 0
5, 107400, Note_on_c, 3, 54, 90
5, 107459, Note_on_c, 3, 54, 0
5, 107460, Note_on_c, 3, 54, 90
5, 107519, Note_on_c, 3, 54, 0
5, 107520, Note_on_c, 3, 53, 90
5, 107579, Note_on_c, 3, 53, 0
5, 107580, Note_on_c, 3, 53, 90
5, 107639, Note_on_c, 3, 53, 0
5, 107640, Control_c, 3, 52, 0
5, 107640, Note_on_c, 3, 52, 90
5, 107699, Note_on_c, 3, 52, 0
5, 107700, Note_on_c, 3, 52, 90
5, 107759, Note_on_c, 3, 52, 0
5, 107760, Note_on_c, 3, 51, 90
5, 107819, Note_on_c, 3, 51, 0
5, 107820, Note_on_c, 3, 51, 90
5, 107879, Note_on_c, 3, 51, 0
5, 107880, Note_on_c, 3, 50, 90
5, 107939, Note_on_c, 3, 50, 0
5, 107940, Note_on_c, 3, 50, 90
5, 107999, Note_on_c, 3, 50, 0
5, 108000, Note_on_c, 3, 50, 90
5, 108059, Note_on_c, 3, 50, 0
5, 108240, Note_on_c, 3, 48, 90
5, 108299, Note_on_c, 3, 48, 0
5, 108360, Note_on_c, 3, 47, 90
5, 108419, Note_on_c, 3, 47, 0
5, 108480, Note_on_c, 3, 48, 90
5, 108539, Note_on_c, 3, 48, 0
5, 108600, Note_on_c, 3, 50, 90
5, 108659, Note_on_c, 3, 50, 0
5, 108720, Note_on_c, 3, 52, 90
5, 108779, Note_on_c, 3, 52, 0
5, 108780, Note_on_c, 3, 53, 90
5, 108839, Note_on_c, 3, 53, 0
5, 108840, Note_on_c, 3, 50, 90
5, 108899, Note_on_c, 3, 50, 0
5, 108900, Note_on_c, 3, 52, 90
5, 108959, Note_on_c, 3, 52, 0
5, 108960, Note_on_c, 3, 53, 90
5, 109019, Note_on_c, 3, 53, 0
5, 109080, Note_on_c, 3, 50, 90
5, 109139, Note_on_c, 3, 50, 0
5, 109200, Note_on_c, 3, 48, 90
5, 109259, Note_on_c, 3, 48, 0
5, 109320, Note_on_c, 3, 47, 90
5, 109379, Note_on_c, 3, 47, 0
5, 109440, Note_on_c, 3, 48, 90
5, 109499, Note_on_c, 3, 48, 0
5, 109560, Note_on_c, 3, 50, 90
5, 109619, Note_on_c, 3, 50, 0
5, 109680, Note_on_c, 3, 48, 90
5, 109739, Note_on_c, 3, 48, 0
5, 109800, Note_on_c, 3, 47, 90
5, 109859, Note_on_c, 3, 47, 0
5, 109920, Note_on_c, 3, 48, 90
5, 109979, Note_on_c, 3, 48, 0
5, 109980, Note_on_c, 3, 50, 90
5, 110039, Note_on_c, 3, 50, 0
5, 110040, Note_on_c, 3, 52, 90
5, 110099, Note_on_c, 3, 52, 0
5, 110100, Note_on_c, 3, 40, 90
5, 110159, Note_on_c, 3, 40, 0
5, 110160, Note_on_c, 3, 45, 90
5, 110279, Note_on_c, 3, 45, 0
5, 110400, Note_on_c, 3, 45, 90
5, 110519, Note_on_c, 3, 45, 0
5, 110640, Note_on_c, 3, 45, 90
5, 110699, Note_on_c, 3, 45, 0
5, 110700, Note_on_c, 3, 47, 90
5, 110759, Note_on_c, 3, 47, 0
5, 110760, Note_on_c, 3, 48, 90
5, 110819, Note_on_c, 3, 48, 0
5, 110820, Note_on_c, 3, 50, 90
5, 110879, Note_on_c, 3, 50, 0
5, 110880, Note_on_c, 3, 52, 90
5, 110999, Note_on_c, 3, 52, 0
5, 111120, Note_on_c, 3, 52, 90
5, 111239, Note_on_c, 3, 52, 0
5, 111360, Note_on_c, 3, 52, 90
5, 111419, Note_on_c, 3, 52, 0
5, 111420, Note_on_c, 3, 47, 90
5, 111479, Note_on_c, 3, 47, 0
5, 111480, Note_on_c, 3, 44, 90
5, 111539, Note_on_c, 3, 44, 0
5, 111540, Note_on_c, 3, 40, 90
5, 111599, Note_on_c, 3, 40, 0
5, 111600, Note_on_c, 3, 45, 90
5, 111719, Note_on_c, 3, 45, 0
5, 111840, Note_on_c, 3, 45, 90
5, 111959, Note_on_c, 3, 45, 0
5, 112080, Note_on_c, 3, 45, 90
5, 112199, Note_on_c, 3, 45, 0
5, 112320, Note_on_c, 3, 57, 90
5, 112379, Note_on_c, 3, 57, 0
5, 112380, Note_on_c, 3, 52, 90
5, 112439, Note_on_c, 3, 52, 0
5, 112440, Note_on_c, 3, 49, 90
5, 112499, Note_on_c, 3, 49, 0
5, 112500, Note_on_c, 3, 45, 90
5, 112559, Note_on_c, 3, 45, 0
5, 112560, Note_on_c, 3, 50, 90
5, 112679, Note_on_c, 3, 50, 0
5, 112800, Note_on_c, 3, 50, 90
5, 112919, Note_on_c, 3, 50, 0
5, 113040, Note_on_c, 3, 50, 90
5, 113159, Note_on_c, 3, 50, 0
5, 113280, Note_on_c, 3, 50, 90
5, 113399, Note_on_c, 3, 50, 0
5, 113580, Note_on_c, 3, 50, 90
5, 113639, Note_on_c, 3, 50, 0
5, 113640, Note_on_c, 3, 50, 90
5, 113699, Note_on_c, 3, 50, 0
5, 113700, Note_on_c, 3, 50, 90
5, 113759, Note_on_c, 3, 50, 0
5, 113820, Note_on_c, 3, 55, 90
5, 113879, Note_on_c, 3, 55, 0
5, 113880, Note_on_c, 3, 55, 90
5, 113939, Note_on_c, 3, 55, 0
5, 113940, Note_on_c, 3, 55, 90
5, 113999, Note_on_c, 3, 55, 0
5, 114060, Note_on_c, 3, 48, 90
5, 114119, Note_on_c, 3, 48, 0
5, 114120, Note_on_c, 3, 48, 90
5, 114179, Note_on_c, 3, 48, 0
5, 114180, Note_on_c, 3, 48, 90
5, 114239, Note_on_c, 3, 48, 0
5, 114300, Note_on_c, 3, 53, 90
5, 114359, Note_on_c, 3, 53, 0
5, 114360, Note_on_c, 3, 53, 90
5, 114419, Note_on_c, 3, 53, 0
5, 114420, Note_on_c, 3, 53, 90
5, 114479, Note_on_c, 3, 53, 0
5, 114540, Note_on_c, 3, 46, 90
5, 114599, Note_on_c, 3, 46, 0
5, 114600, Note_on_c, 3, 46, 90
5, 114659, Note_on_c, 3, 46, 0
5, 114660, Note_on_c, 3, 46, 90
5, 114719, Note_on_c, 3, 46, 0
5, 114780, Note_on_c, 3, 47, 90
5, 114839, Note_on_c, 3, 47, 0
5, 114840, Note_on_c, 3, 47, 90
5, 114899, Note_on_c, 3, 47, 0
5, 114900, Note_on_c, 3, 47, 90
5, 114959, Note_on_c, 3, 47, 0
5, 115020, Note_on_c, 3, 48, 90
5, 115079, Note_on_c, 3, 48, 0
5, 115080, Note_on_c, 3, 48, 90
5, 115139, Note_on_c, 3, 48, 0
5, 115140, Note_on_c, 3, 48, 90
5, 115199, Note_on_c, 3, 48, 0
5, 115260, Note_on_c, 3, 49, 90
5, 115319, Note_on_c, 3, 49, 0
5, 115320, Note_on_c, 3, 49, 90
5, 115379, Note_on_c, 3, 49, 0
5, 115380, Note_on_c, 3, 49, 90
5, 115439, Note_on_c, 3, 49, 0
5, 115440, Note_on_c, 3, 50, 90
5, 115499, Note_on_c, 3, 50, 0
5, 115560, Note_on_c, 3, 47, 90
5, 115619, Note_on_c, 3, 47, 0
5, 115680, Note_on_c, 3, 46, 90
5, 115739, Note_on_c, 3, 46, 0
5, 115800, Note_on_c, 3, 45, 90
5, 115859, Note_on_c, 3, 45, 0
5, 115920, Note_on_c, 3, 43, 90
5, 115979, Note_on_c, 3, 43, 0
5, 116040, Note_on_c, 3, 41, 90
5, 116099, Note_on_c, 3, 41, 0
5, 116160, Note_on_c, 3, 40, 90
5, 116219, Note_on_c, 3, 40, 0
5, 116280, Note_on_c, 3, 38, 90
5, 116339, Note_on_c, 3, 38, 0
5, 116400, Note_on_c, 3, 45, 90
5, 116700, Note_on_c, 3, 45, 0
5, 116700, Note_on_c, 3, 47, 90
5, 116759, Note_on_c, 3, 47, 0
5, 116760, Note_on_c, 3, 49, 90
5, 116819, Note_on_c, 3, 49, 0
5, 116820, Note_on_c, 3, 45, 90
5, 116879, Note_on_c, 3, 45, 0
5, 116880, Note_on_c, 3, 50, 90
5, 116939, Note_on_c, 3, 50, 0
5, 117000, Note_on_c, 3, 45, 90
5, 117059, Note_on_c, 3, 45, 0
5, 117120, Note_on_c, 3, 41, 90
5, 117179, Note_on_c, 3, 41, 0
5, 117240, Note_on_c, 3, 45, 90
5, 117299, Note_on_c, 3, 45, 0
5, 117360, Note_on_c, 3, 38, 90
5, 117419, Note_on_c, 3, 38, 0
5, 117480, Note_on_c, 3, 45, 90
5, 117539, Note_on_c, 3, 45, 0
5, 117600, Note_on_c, 3, 41, 90
5, 117659, Note_on_c, 3, 41, 0
5, 117720, Note_on_c, 3, 45, 90
5, 117779, Note_on_c, 3, 45, 0
5, 117840, Note_on_c, 3, 50, 90
5, 117899, Note_on_c, 3, 50, 0
5, 117960, Note_on_c, 3, 49, 90
5, 118019, Note_on_c, 3, 49, 0
5, 118080, Note_on_c, 3, 50, 90
5, 118139, Note_on_c, 3, 50, 0
5, 118200, Note_on_c, 3, 45, 90
5, 118259, Note_on_c, 3, 45, 0
5, 118320, Note_on_c, 3, 46, 90
5, 118379, Note_on_c, 3, 46, 0
5, 118440, Note_on_c, 3, 42, 90
5, 118499, Note_on_c, 3, 42, 0
5, 118560, Note_on_c, 3, 43, 90
5, 118619, Note_on_c, 3, 43, 0
5, 118680, Note_on_c, 3, 45, 90
5, 118739, Note_on_c, 3, 45, 0
5, 118800, Note_on_c, 3, 46, 90
5, 118859, Note_on_c, 3, 46, 0
5, 118920, Note_on_c, 3, 48, 90
5, 118979, Note_on_c, 3, 48, 0
5, 119040, Note_on_c, 3, 50, 90
5, 119099, Note_on_c, 3, 50, 0
5, 119100, Note_on_c, 3, 51, 90
5, 119159, Note_on_c, 3, 51, 0
5, 119160, Note_on_c, 3, 48, 90
5, 119219, Note_on_c, 3, 48, 0
5, 119220, Note_on_c, 3, 50, 90
5, 119279, Note_on_c, 3, 50, 0
5, 119280, Note_on_c, 3, 43, 90
5, 119339, Note_on_c, 3, 43, 0
5, 119340, Note_on_c, 3, 55, 90
5, 119369, Note_on_c, 3, 55, 0
5, 119370, Note_on_c, 3, 53, 90
5, 119399, Note_on_c, 3, 53, 0
5, 119400, Note_on_c, 3, 52, 90
5, 119429, Note_on_c, 3, 52, 0
5, 119430, Note_on_c, 3, 50, 90
5, 119459, Note_on_c, 3, 50, 0
5, 119460, Note_on_c, 3, 48, 90
5, 119489, Note_on_c, 3, 48, 0
5, 119490, Note_on_c, 3, 46, 90
5, 119519, Note_on_c, 3, 46, 0
5, 119520, Note_on_c, 3, 45, 90
5, 119579, Note_on_c, 3, 45, 0
5, 119640, Note_on_c, 3, 43, 90
5, 119699, Note_on_c, 3, 43, 0
5, 119760, Note_on_c, 3, 41, 90
5, 119819, Note_on_c, 3, 41, 0
5, 119880, Note_on_c, 3, 40, 90
5, 119939, Note_on_c, 3, 40, 0
5, 120000, Note_on_c, 3, 41, 90
5, 120059, Note_on_c, 3, 41, 0
5, 120060, Note_on_c, 3, 50, 90
5, 120119, Note_on_c, 3, 50, 0
5, 120120, Note_on_c, 3, 46, 90
5, 120179, Note_on_c, 3, 46, 0
5, 120180, Note_on_c, 3, 48, 90
5, 120239, Note_on_c, 3, 48, 0
5, 120240, Note_on_c, 3, 41, 90
5, 120299, Note_on_c, 3, 41, 0
5, 120300, Note_on_c, 3, 57, 90
5, 120329, Note_on_c, 3, 57, 0
5, 120330, Note_on_c, 3, 55, 90
5, 120359, Note_on_c, 3, 55, 0
5, 120360, Note_on_c, 3, 53, 90
5, 120389, Note_on_c, 3, 53, 0
5, 120390, Note_on_c, 3, 52, 90
5, 120419, Note_on_c, 3, 52, 0
5, 120420, Note_on_c, 3, 50, 90
5, 120449, Note_on_c, 3, 50, 0
5, 120450, Note_on_c, 3, 48, 90
5, 120479, Note_on_c, 3, 48, 0
5, 120480, Note_on_c, 3, 47, 90
5, 120539, Note_on_c, 3, 47, 0
5, 120540, Note_on_c, 3, 47, 90
5, 120599, Note_on_c, 3, 47, 0
5, 120600, Note_on_c, 3, 47, 90
5, 120659, Note_on_c, 3, 47, 0
5, 120660, Note_on_c, 3, 47, 90
5, 120719, Note_on_c, 3, 47, 0
5, 120720, Note_on_c, 3, 48, 90
5, 120779, Note_on_c, 3, 48, 0
5, 120780, Note_on_c, 3, 48, 90
5, 120839, Note_on_c, 3, 48, 0
5, 120840, Note_on_c, 3, 46, 90
5, 120899, Note_on_c, 3, 46, 0
5, 120900, Note_on_c, 3, 46, 90
5, 120959, Note_on_c, 3, 46, 0
5, 120960, Note_on_c, 3, 45, 90
5, 121019, Note_on_c, 3, 45, 0
5, 121020, Note_on_c, 3, 45, 90
5, 121079, Note_on_c, 3, 45, 0
5, 121080, Note_on_c, 3, 45, 90
5, 121139, Note_on_c, 3, 45, 0
5, 121140, Note_on_c, 3, 45, 90
5, 121199, Note_on_c, 3, 45, 0
5, 121200, Note_on_c, 3, 46, 90
5, 121259, Note_on_c, 3, 46, 0
5, 121260, Note_on_c, 3, 46, 90
5, 121319, Note_on_c, 3, 46, 0
5, 121320, Note_on_c, 3, 58, 90
5, 121379, Note_on_c, 3, 58, 0
5, 121380, Note_on_c, 3, 58, 90
5, 121439, Note_on_c, 3, 58, 0
5, 121440, Note_on_c, 3, 56, 90
5, 121499, Note_on_c, 3, 56, 0
5, 121500, Note_on_c, 3, 56, 90
5, 121559, Note_on_c, 3, 56, 0
5, 121560, Note_on_c, 3, 44, 90
5, 121619, Note_on_c, 3, 44, 0
5, 121620, Note_on_c, 3, 44, 90
5, 121679, Note_on_c, 3, 44, 0
5, 121680, Note_on_c, 3, 43, 90
5, 121739, Note_on_c, 3, 43, 0
5, 121740, Note_on_c, 3, 43, 90
5, 121799, Note_on_c, 3, 43, 0
5, 121800, Note_on_c, 3, 41, 90
5, 121859, Note_on_c, 3, 41, 0
5, 121860, Note_on_c, 3, 41, 90
5, 121919, Note_on_c, 3, 41, 0
5, 121920, Note_on_c, 3, 40, 90
5, 121979, Note_on_c, 3, 40, 0
5, 121980, Note_on_c, 3, 40, 90
5, 122039, Note_on_c, 3, 40, 0
5, 122040, Note_on_c, 3, 40, 90
5, 122099, Note_on_c, 3, 40, 0
5, 122100, Note_on_c, 3, 40, 90
5, 122159, Note_on_c, 3, 40, 0
5, 122160, Note_on_c, 3, 41, 90
5, 122219, Note_on_c, 3, 41, 0
5, 122220, Note_on_c, 3, 41, 90
5, 122279, Note_on_c, 3, 41, 0
5, 122280, Note_on_c, 3, 39, 90
5, 122339, Note_on_c, 3, 39, 0
5, 122340, Note_on_c, 3, 39, 90
5, 122399, Note_on_c, 3, 39, 0
5, 122400, Note_on_c, 3, 38, 90
5, 122459, Note_on_c, 3, 38, 0
5, 122460, Note_on_c, 3, 38, 90
5, 122519, Note_on_c, 3, 38, 0
5, 122520, Note_on_c, 3, 50, 90
5, 122579, Note_on_c, 3, 50, 0
5, 122580, Note_on_c, 3, 50, 90
5, 122639, Note_on_c, 3, 50, 0
5, 122640, Note_on_c, 3, 50, 90
5, 122699, Note_on_c, 3, 50, 0
5, 122700, Note_on_c, 3, 50, 90
5, 122759, Note_on_c, 3, 50, 0
5, 122760, Note_on_c, 3, 49, 90
5, 122819, Note_on_c, 3, 49, 0
5, 122820, Note_on_c, 3, 49, 90
5, 122879, Note_on_c, 3, 49, 0
5, 122880, Note_on_c, 3, 48, 90
5, 122939, Note_on_c, 3, 48, 0
5, 122940, Note_on_c, 3, 48, 90
5, 122999, Note_on_c, 3, 48, 0
5, 123000, Note_on_c, 3, 47, 90
5, 123059, Note_on_c, 3, 47, 0
5, 123060, Note_on_c, 3, 47, 90
5, 123119, Note_on_c, 3, 47, 0
5, 123120, Note_on_c, 3, 46, 90
5, 123179, Note_on_c, 3, 46, 0
5, 123180, Note_on_c, 3, 46, 90
5, 123239, Note_on_c, 3, 46, 0
5, 123240, Note_on_c, 3, 45, 90
5, 123299, Note_on_c, 3, 45, 0
5, 123300, Note_on_c, 3, 45, 90
5, 123359, Note_on_c, 3, 45, 0
5, 123360, Note_on_c, 3, 44, 90
5, 123419, Note_on_c, 3, 44, 0
5, 123420, Note_on_c, 3, 44, 90
5, 123479, Note_on_c, 3, 44, 0
5, 123480, Note_on_c, 3, 43, 90
5, 123539, Note_on_c, 3, 43, 0
5, 123540, Note_on_c, 3, 43, 90
5, 123599, Note_on_c, 3, 43, 0
5, 123600, Note_on_c, 3, 43, 90
5, 123719, Note_on_c, 3, 43, 0
5, 123840, Note_on_c, 3, 41, 90
5, 123899, Note_on_c, 3, 41, 0
5, 123960, Note_on_c, 3, 40, 90
5, 124019, Note_on_c, 3, 40, 0
5, 124080, Note_on_c, 3, 41, 90
5, 124139, Note_on_c, 3, 41, 0
5, 124200, Note_on_c, 3, 43, 90
5, 124259, Note_on_c, 3, 43, 0
5, 124320, Note_on_c, 3, 45, 90
5, 124379, Note_on_c, 3, 45, 0
5, 124380, Note_on_c, 3, 46, 90
5, 124439, Note_on_c, 3, 46, 0
5, 124440, Note_on_c, 3, 43, 90
5, 124499, Note_on_c, 3, 43, 0
5, 124500, Note_on_c, 3, 45, 90
5, 124559, Note_on_c, 3, 45, 0
5, 124560, Note_on_c, 3, 38, 90
5, 124619, Note_on_c, 3, 38, 0
5, 124620, Note_on_c, 3, 62, 90
5, 124739, Note_on_c, 3, 62, 0
5, 124740, Note_on_c, 3, 60, 90
5, 124799, Note_on_c, 3, 60, 0
5, 124800, Note_on_c, 3, 58, 90
5, 124859, Note_on_c, 3, 58, 0
5, 124920, Note_on_c, 3, 57, 90
5, 124979, Note_on_c, 3, 57, 0
5, 125040, Note_on_c, 3, 43, 90
5, 125099, Note_on_c, 3, 43, 0
5, 125100, Note_on_c, 3, 55, 90
5, 125219, Note_on_c, 3, 55, 0
5, 125220, Note_on_c, 3, 53, 90
5, 125279, Note_on_c, 3, 53, 0
5, 125280, Note_on_c, 3, 52, 90
5, 125339, Note_on_c, 3, 52, 0
5, 125400, Note_on_c, 3, 50, 90
5, 125459, Note_on_c, 3, 50, 0
5, 125520, Note_on_c, 3, 48, 90
5, 125579, Note_on_c, 3, 48, 0
5, 125580, Note_on_c, 3, 60, 90
5, 125699, Note_on_c, 3, 60, 0
5, 125700, Note_on_c, 3, 58, 90
5, 125759, Note_on_c, 3, 58, 0
5, 125760, Note_on_c, 3, 57, 90
5, 125819, Note_on_c, 3, 57, 0
5, 125880, Note_on_c, 3, 55, 90
5, 125939, Note_on_c, 3, 55, 0
5, 126000, Note_on_c, 3, 41, 90
5, 126059, Note_on_c, 3, 41, 0
5, 126060, Note_on_c, 3, 53, 90
5, 126179, Note_on_c, 3, 53, 0
5, 126180, Note_on_c, 3, 51, 90
5, 126239, Note_on_c, 3, 51, 0
5, 126240, Note_on_c, 3, 50, 90
5, 126299, Note_on_c, 3, 50, 0
5, 126360, Note_on_c, 3, 48, 90
5, 126419, Note_on_c, 3, 48, 0
5, 126480, Note_on_c, 3, 46, 90
5, 126539, Note_on_c, 3, 46, 0
5, 126540, Note_on_c, 3, 58, 90
5, 126659, Note_on_c, 3, 58, 0
5, 126660, Note_on_c, 3, 57, 90
5, 126719, Note_on_c, 3, 57, 0
5, 126720, Note_on_c, 3, 55, 90
5, 126779, Note_on_c, 3, 55, 0
5, 126840, Note_on_c, 3, 53, 90
5, 126899, Note_on_c, 3, 53, 0
5, 126960, Note_on_c, 3, 41, 90
5, 127019, Note_on_c, 3, 41, 0
5, 127020, Note_on_c, 3, 52, 90
5, 127139, Note_on_c, 3, 52, 0
5, 127140, Note_on_c, 3, 50, 90
5, 127199, Note_on_c, 3, 50, 0
5, 127200, Note_on_c, 3, 49, 90
5, 127259, Note_on_c, 3, 49, 0
5, 127320, Note_on_c, 3, 47, 90
5, 127379, Note_on_c, 3, 47, 0
5, 127440, Note_on_c, 3, 45, 90
5, 127499, Note_on_c, 3, 45, 0
5, 127500, Note_on_c, 3, 57, 90
5, 127619, Note_on_c, 3, 57, 0
5, 127620, Note_on_c, 3, 55, 90
5, 127679, Note_on_c, 3, 55, 0
5, 127680, Note_on_c, 3, 53, 90
5, 127739, Note_on_c, 3, 53, 0
5, 127800, Note_on_c, 3, 52, 90
5, 127859, Note_on_c, 3, 52, 0
5, 127920, Note_on_c, 3, 50, 90
5, 127979, Note_on_c, 3, 50, 0
5, 128040, Note_on_c, 3, 52, 90
5, 128099, Note_on_c, 3, 52, 0
5, 128160, Note_on_c, 3, 53, 90
5, 128219, Note_on_c, 3, 53, 0
5, 128280, Note_on_c, 3, 55, 90
5, 128339, Note_on_c, 3, 55, 0
5, 128400, Note_on_c, 3, 57, 90
5, 128459, Note_on_c, 3, 57, 0
5, 128460, Note_on_c, 3, 58, 90
5, 128519, Note_on_c, 3, 58, 0
5, 128520, Note_on_c, 3, 55, 90
5, 128579, Note_on_c, 3, 55, 0
5, 128580, Note_on_c, 3, 57, 90
5, 128639, Note_on_c, 3, 57, 0
5, 128640, Note_on_c, 3, 58, 90
5, 128699, Note_on_c, 3, 58, 0
5, 128760, Note_on_c, 3, 59, 90
5, 128819, Note_on_c, 3, 59, 0
5, 128880, Note_on_c, 3, 60, 90
5, 128939, Note_on_c, 3, 60, 0
5, 129000, Note_on_c, 3, 61, 90
5, 129059, Note_on_c, 3, 61, 0
5, 129120, Note_on_c, 3, 62, 90
5, 129179, Note_on_c, 3, 62, 0
5, 129180, Note_on_c, 3, 58, 90
5, 129239, Note_on_c, 3, 58, 0
5, 129240, Note_on_c, 3, 55, 90
5, 129299, Note_on_c, 3, 55, 0
5, 129300, Note_on_c, 3, 57, 90
5, 129359, Note_on_c, 3, 57, 0
5, 129360, Note_on_c, 3, 50, 90
5, 129419, Note_on_c, 3, 50, 0
5, 129480, Note_on_c, 3, 55, 90
5, 129539, Note_on_c, 3, 55, 0
5, 129600, Note_on_c, 3, 53, 90
5, 129659, Note_on_c, 3, 53, 0
5, 129720, Note_on_c, 3, 52, 90
5, 129779, Note_on_c, 3, 52, 0
5, 129840, Note_on_c, 3, 50, 90
5, 129899, Note_on_c, 3, 50, 0
5, 129960, Note_on_c, 3, 43, 90
5, 130019, Note_on_c, 3, 43, 0
5, 130080, Note_on_c, 3, 41, 90
5, 130139, Note_on_c, 3, 41, 0
5, 130200, Note_on_c, 3, 40, 90
5, 130259, Note_on_c, 3, 40, 0
5, 130320, Note_on_c, 3, 41, 90
5, 130379, Note_on_c, 3, 41, 0
5, 130380, Note_on_c, 3, 43, 90
5, 130439, Note_on_c, 3, 43, 0
5, 130440, Note_on_c, 3, 45, 90
5, 130499, Note_on_c, 3, 45, 0
5, 130500, Note_on_c, 3, 45, 90
5, 130559, Note_on_c, 3, 45, 0
5, 130560, Note_on_c, 3, 38, 90
5, 130799, Note_on_c, 3, 38, 0
5, 130799, End_track
6, 0, Start_track
6, 0, MIDI_port, 0
6, 0, Title_t, "clave h i"
6, 0, Program_c, 4, 6
6, 60, Note_on_c, 4, 62, 110
6, 120, Note_on_c, 4, 62, 0
6, 120, Note_on_c, 4, 64, 110
6, 180, Note_on_c, 4, 64, 0
6, 180, Note_on_c, 4, 65, 110
6, 240, Note_on_c, 4, 65, 0
6, 240, Note_on_c, 4, 65, 110
6, 300, Note_on_c, 4, 65, 0
6, 300, Note_on_c, 4, 67, 110
6, 360, Note_on_c, 4, 67, 0
6, 360, Note_on_c, 4, 69, 110
6, 420, Note_on_c, 4, 69, 0
6, 420, Note_on_c, 4, 69, 110
6, 480, Note_on_c, 4, 69, 0
6, 480, Note_on_c, 4, 70, 110
6, 540, Note_on_c, 4, 70, 0
6, 540, Note_on_c, 4, 69, 110
6, 600, Note_on_c, 4, 69, 0
6, 600, Note_on_c, 4, 67, 110
6, 630, Note_on_c, 4, 67, 0
6, 630, Note_on_c, 4, 65, 110
6, 660, Note_on_c, 4, 65, 0
6, 660, Note_on_c, 4, 64, 110
6, 690, Note_on_c, 4, 64, 0
6, 690, Note_on_c, 4, 62, 110
6, 720, Note_on_c, 4, 62, 0
6, 720, Note_on_c, 4, 61, 110
6, 780, Note_on_c, 4, 61, 0
6, 780, Note_on_c, 4, 57, 110
6, 810, Note_on_c, 4, 57, 0
6, 810, Note_on_c, 4, 59, 110
6, 840, Note_on_c, 4, 59, 0
6, 840, Note_on_c, 4, 61, 110
6, 870, Note_on_c, 4, 61, 0
6, 870, Note_on_c, 4, 62, 110
6, 900, Note_on_c, 4, 62, 0
6, 900, Note_on_c, 4, 64, 110
6, 960, Note_on_c, 4, 64, 0
6, 960, Note_on_c, 4, 64, 110
6, 1020, Note_on_c, 4, 64, 0
6, 1020, Note_on_c, 4, 65, 110
6, 1080, Note_on_c, 4, 65, 0
6, 1080, Note_on_c, 4, 64, 110
6, 1140, Note_on_c, 4, 64, 0
6, 1140, Note_on_c, 4, 57, 110
6, 1170, Note_on_c, 4, 57, 0
6, 1170, Note_on_c, 4, 59, 110
6, 1200, Note_on_c, 4, 59, 0
6, 1200, Note_on_c, 4, 61, 110
6, 1230, Note_on_c, 4, 61, 0
6, 1230, Note_on_c, 4, 62, 110
6, 1260, Note_on_c, 4, 62, 0
6, 1260, Note_on_c, 4, 64, 110
6, 1320, Note_on_c, 4, 64, 0
6, 1320, Note_on_c, 4, 64, 110
6, 1380, Note_on_c, 4, 64, 0
6, 1380, Note_on_c, 4, 65, 110
6, 1440, Note_on_c, 4, 65, 0
6, 1440, Note_on_c, 4, 64, 110
6, 1500, Note_on_c, 4, 64, 0
6, 1500, Note_on_c, 4, 57, 110
6, 1530, Note_on_c, 4, 57, 0
6, 1530, Note_on_c, 4, 59, 110
6, 1560, Note_on_c, 4, 59, 0
6, 1560, Note_on_c, 4, 61, 110
6, 1590, Note_on_c, 4, 61, 0
6, 1590, Note_on_c, 4, 62, 110
6, 1620, Note_on_c, 4, 62, 0
6, 1620, Note_on_c, 4, 64, 110
6, 1650, Note_on_c, 4, 64, 0
6, 1650, Note_on_c, 4, 62, 110
6, 1680, Note_on_c, 4, 62, 0
6, 1680, Note_on_c, 4, 61, 110
6, 1710, Note_on_c, 4, 61, 0
6, 1710, Note_on_c, 4, 62, 110
6, 1740, Note_on_c, 4, 62, 0
6, 1740, Note_on_c, 4, 64, 110
6, 1770, Note_on_c, 4, 64, 0
6, 1770, Note_on_c, 4, 65, 110
6, 1800, Note_on_c, 4, 65, 0
6, 1800, Note_on_c, 4, 67, 110
6, 1830, Note_on_c, 4, 67, 0
6, 1830, Note_on_c, 4, 65, 110
6, 1860, Note_on_c, 4, 65, 0
6, 1860, Note_on_c, 4, 64, 110
6, 1890, Note_on_c, 4, 64, 0
6, 1890, Note_on_c, 4, 65, 110
6, 1920, Note_on_c, 4, 65, 0
6, 1920, Note_on_c, 4, 67, 110
6, 1950, Note_on_c, 4, 67, 0
6, 1950, Note_on_c, 4, 69, 110
6, 1980, Note_on_c, 4, 69, 0
6, 1980, Note_on_c, 4, 70, 110
6, 2010, Note_on_c, 4, 70, 0
6, 2010, Note_on_c, 4, 69, 110
6, 2040, Note_on_c, 4, 69, 0
6, 2040, Note_on_c, 4, 67, 110
6, 2070, Note_on_c, 4, 67, 0
6, 2070, Note_on_c, 4, 65, 110
6, 2100, Note_on_c, 4, 65, 0
6, 2100, Note_on_c, 4, 64, 110
6, 2130, Note_on_c, 4, 64, 0
6, 2130, Note_on_c, 4, 62, 110
6, 2160, Note_on_c, 4, 62, 0
6, 2160, Note_on_c, 4, 61, 110
6, 2190, Note_on_c, 4, 61, 0
6, 2190, Note_on_c, 4, 64, 110
6, 2220, Note_on_c, 4, 64, 0
6, 2220, Note_on_c, 4, 57, 110
6, 2250, Note_on_c, 4, 57, 0
6, 2250, Note_on_c, 4, 61, 110
6, 2280, Note_on_c, 4, 61, 0
6, 2280, Note_on_c, 4, 62, 110
6, 2340, Note_on_c, 4, 62, 0
6, 2370, Note_on_c, 4, 55, 110
6, 2400, Note_on_c, 4, 55, 0
6, 2400, Note_on_c, 4, 57, 110
6, 2460, Note_on_c, 4, 57, 0
6, 2460, Note_on_c, 4, 57, 110
6, 2520, Note_on_c, 4, 57, 0
6, 2580, Note_on_c, 4, 74, 110
6, 2640, Note_on_c, 4, 74, 0
6, 2640, Note_on_c, 4, 77, 110
6, 2655, Note_on_c, 4, 77, 0
6, 2655, Note_on_c, 4, 76, 110
6, 2670, Note_on_c, 4, 76, 0
6, 2670, Note_on_c, 4, 74, 110
6, 2685, Note_on_c, 4, 74, 0
6, 2685, Note_on_c, 4, 76, 110
6, 2700, Note_on_c, 4, 76, 0
6, 2700, Note_on_c, 4, 77, 110
6, 2760, Note_on_c, 4, 77, 0
6, 2760, Note_on_c, 4, 77, 110
6, 2820, Note_on_c, 4, 77, 0
6, 2820, Note_on_c, 4, 81, 110
6, 2835, Note_on_c, 4, 81, 0
6, 2835, Note_on_c, 4, 79, 110
6, 2850, Note_on_c, 4, 79, 0
6, 2850, Note_on_c, 4, 77, 110
6, 2865, Note_on_c, 4, 77, 0
6, 2865, Note_on_c, 4, 79, 110
6, 2880, Note_on_c, 4, 79, 0
6, 2880, Note_on_c, 4, 81, 110
6, 2940, Note_on_c, 4, 81, 0
6, 2940, Note_on_c, 4, 81, 110
6, 3000, Note_on_c, 4, 81, 0
6, 3000, Note_on_c, 4, 82, 110
6, 3060, Note_on_c, 4, 82, 0
6, 3060, Note_on_c, 4, 81, 110
6, 3120, Note_on_c, 4, 81, 0
6, 3120, Note_on_c, 4, 79, 110
6, 3150, Note_on_c, 4, 79, 0
6, 3150, Note_on_c, 4, 77, 110
6, 3180, Note_on_c, 4, 77, 0
6, 3180, Note_on_c, 4, 76, 110
6, 3210, Note_on_c, 4, 76, 0
6, 3210, Note_on_c, 4, 74, 110
6, 3240, Note_on_c, 4, 74, 0
6, 3240, Note_on_c, 4, 73, 110
6, 3270, Note_on_c, 4, 73, 0
6, 3270, Note_on_c, 4, 71, 110
6, 3300, Note_on_c, 4, 71, 0
6, 3300, Note_on_c, 4, 69, 110
6, 3330, Note_on_c, 4, 69, 0
6, 3330, Note_on_c, 4, 71, 110
6, 3360, Note_on_c, 4, 71, 0
6, 3360, Note_on_c, 4, 73, 110
6, 3390, Note_on_c, 4, 73, 0
6, 3390, Note_on_c, 4, 74, 110
6, 3420, Note_on_c, 4, 74, 0
6, 3420, Note_on_c, 4, 76, 110
6, 3480, Note_on_c, 4, 76, 0
6, 3480, Note_on_c, 4, 76, 110
6, 3540, Note_on_c, 4, 76, 0
6, 3540, Note_on_c, 4, 77, 110
6, 3600, Note_on_c, 4, 77, 0
6, 3600, Note_on_c, 4, 76, 110
6, 3660, Note_on_c, 4, 76, 0
6, 3660, Note_on_c, 4, 57, 110
6, 3690, Note_on_c, 4, 57, 0
6, 3690, Note_on_c, 4, 59, 110
6, 3720, Note_on_c, 4, 59, 0
6, 3720, Note_on_c, 4, 61, 110
6, 3750, Note_on_c, 4, 61, 0
6, 3750, Note_on_c, 4, 62, 110
6, 3780, Note_on_c, 4, 62, 0
6, 3780, Note_on_c, 4, 64, 110
6, 3840, Note_on_c, 4, 64, 0
6, 3840, Note_on_c, 4, 57, 110
6, 3840, Note_on_c, 4, 61, 110
6, 3840, Note_on_c, 4, 64, 110
6, 3900, Note_on_c, 4, 64, 0
6, 3900, Note_on_c, 4, 61, 0
6, 3900, Note_on_c, 4, 57, 0
6, 3900, Note_on_c, 4, 57, 110
6, 3900, Note_on_c, 4, 62, 110
6, 3900, Note_on_c, 4, 65, 110
6, 3960, Note_on_c, 4, 65, 0
6, 3960, Note_on_c, 4, 62, 0
6, 3960, Note_on_c, 4, 57, 0
6, 3960, Note_on_c, 4, 64, 110
6, 3960, Note_on_c, 4, 61, 110
6, 3990, Note_on_c, 4, 64, 0
6, 3990, Note_on_c, 4, 69, 110
6, 4020, Note_on_c, 4, 69, 0
6, 4020, Note_on_c, 4, 61, 0
6, 4020, Note_on_c, 4, 72, 110
6, 4050, Note_on_c, 4, 72, 0
6, 4050, Note_on_c, 4, 76, 110
6, 4080, Note_on_c, 4, 76, 0
6, 4080, Note_on_c, 4, 81, 110
6, 4110, Note_on_c, 4, 81, 0
6, 4110, Note_on_c, 4, 80, 110
6, 4140, Note_on_c, 4, 80, 0
6, 4140, Note_on_c, 4, 81, 110
6, 4200, Note_on_c, 4, 81, 0
6, 4200, Note_on_c, 4, 72, 110
6, 4200, Note_on_c, 4, 76, 110
6, 4260, Note_on_c, 4, 76, 0
6, 4260, Note_on_c, 4, 72, 0
6, 4260, Note_on_c, 4, 71, 110
6, 4260, Note_on_c, 4, 74, 110
6, 4320, Note_on_c, 4, 74, 0
6, 4320, Note_on_c, 4, 71, 0
6, 4320, Note_on_c, 4, 72, 110
6, 4320, Note_on_c, 4, 69, 110
6, 4350, Note_on_c, 4, 72, 0
6, 4350, Note_on_c, 4, 76, 110
6, 4380, Note_on_c, 4, 76, 0
6, 4380, Note_on_c, 4, 69, 0
6, 4380, Note_on_c, 4, 74, 110
6, 4410, Note_on_c, 4, 74, 0
6, 4410, Note_on_c, 4, 72, 110
6, 4440, Note_on_c, 4, 72, 0
6, 4440, Note_on_c, 4, 71, 110
6, 4470, Note_on_c, 4, 71, 0
6, 4470, Note_on_c, 4, 69, 110
6, 4500, Note_on_c, 4, 69, 0
6, 4500, Note_on_c, 4, 68, 110
6, 4530, Note_on_c, 4, 68, 0
6, 4530, Note_on_c, 4, 66, 110
6, 4560, Note_on_c, 4, 66, 0
6, 4560, Note_on_c, 4, 68, 110
6, 4590, Note_on_c, 4, 68, 0
6, 4590, Note_on_c, 4, 69, 110
6, 4620, Note_on_c, 4, 69, 0
6, 4620, Note_on_c, 4, 68, 110
6, 4650, Note_on_c, 4, 68, 0
6, 4650, Note_on_c, 4, 69, 110
6, 4680, Note_on_c, 4, 69, 0
6, 4680, Note_on_c, 4, 71, 110
6, 4710, Note_on_c, 4, 71, 0
6, 4710, Note_on_c, 4, 72, 110
6, 4740, Note_on_c, 4, 72, 0
6, 4740, Note_on_c, 4, 71, 110
6, 4770, Note_on_c, 4, 71, 0
6, 4770, Note_on_c, 4, 69, 110
6, 4800, Note_on_c, 4, 69, 0
6, 4800, Note_on_c, 4, 68, 110
6, 4830, Note_on_c, 4, 68, 0
6, 4830, Note_on_c, 4, 66, 110
6, 4860, Note_on_c, 4, 66, 0
6, 4860, Note_on_c, 4, 64, 110
6, 4920, Note_on_c, 4, 64, 0
6, 4920, Note_on_c, 4, 80, 110
6, 4980, Note_on_c, 4, 80, 0
6, 4980, Note_on_c, 4, 83, 110
6, 4995, Note_on_c, 4, 83, 0
6, 4995, Note_on_c, 4, 81, 110
6, 5010, Note_on_c, 4, 81, 0
6, 5010, Note_on_c, 4, 80, 110
6, 5025, Note_on_c, 4, 80, 0
6, 5025, Note_on_c, 4, 81, 110
6, 5040, Note_on_c, 4, 81, 0
6, 5040, Note_on_c, 4, 83, 110
6, 5100, Note_on_c, 4, 83, 0
6, 5100, Note_on_c, 4, 68, 110
6, 5100, Note_on_c, 4, 71, 110
6, 5100, Note_on_c, 4, 76, 110
6, 5160, Note_on_c, 4, 76, 0
6, 5160, Note_on_c, 4, 71, 0
6, 5160, Note_on_c, 4, 68, 0
6, 5160, Note_on_c, 4, 64, 110
6, 5160, Note_on_c, 4, 71, 110
6, 5160, Note_on_c, 4, 76, 110
6, 5220, Note_on_c, 4, 76, 0
6, 5220, Note_on_c, 4, 71, 0
6, 5220, Note_on_c, 4, 64, 0
6, 5220, Note_on_c, 4, 76, 110
6, 5220, Note_on_c, 4, 72, 110
6, 5220, Note_on_c, 4, 64, 110
6, 5250, Note_on_c, 4, 64, 0
6, 5250, Note_on_c, 4, 72, 0
6, 5250, Note_on_c, 4, 76, 0
6, 5250, Note_on_c, 4, 69, 110
6, 5280, Note_on_c, 4, 69, 0
6, 5280, Note_on_c, 4, 73, 110
6, 5310, Note_on_c, 4, 73, 0
6, 5310, Note_on_c, 4, 76, 110
6, 5340, Note_on_c, 4, 76, 0
6, 5340, Note_on_c, 4, 81, 110
6, 5370, Note_on_c, 4, 81, 0
6, 5370, Note_on_c, 4, 79, 110
6, 5400, Note_on_c, 4, 79, 0
6, 5400, Note_on_c, 4, 77, 100
6, 5459, Note_on_c, 4, 77, 0
6, 5460, Note_on_c, 4, 78, 100
6, 5474, Note_on_c, 4, 78, 0
6, 5475, Note_on_c, 4, 79, 100
6, 5489, Note_on_c, 4, 79, 0
6, 5490, Note_on_c, 4, 78, 100
6, 5504, Note_on_c, 4, 78, 0
6, 5505, Note_on_c, 4, 79, 100
6, 5519, Note_on_c, 4, 79, 0
6, 5520, Note_on_c, 4, 78, 100
6, 5534, Note_on_c, 4, 78, 0
6, 5535, Note_on_c, 4, 79, 100
6, 5549, Note_on_c, 4, 79, 0
6, 5550, Note_on_c, 4, 76, 100
6, 5564, Note_on_c, 4, 76, 0
6, 5565, Note_on_c, 4, 78, 100
6, 5579, Note_on_c, 4, 78, 0
6, 5580, Note_on_c, 4, 79, 100
6, 5639, Note_on_c, 4, 79, 0
6, 5640, Note_on_c, 4, 71, 100
6, 5640, Note_on_c, 4, 74, 100
6, 5640, Note_on_c, 4, 79, 100
6, 5699, Note_on_c, 4, 79, 0
6, 5699, Note_on_c, 4, 74, 0
6, 5699, Note_on_c, 4, 71, 0
6, 5700, Note_on_c, 4, 74, 100
6, 5700, Note_on_c, 4, 79, 100
6, 5700, Note_on_c, 4, 67, 100
6, 5759, Note_on_c, 4, 67, 0
6, 5759, Note_on_c, 4, 79, 0
6, 5759, Note_on_c, 4, 74, 0
6, 5760, Note_on_c, 4, 76, 100
6, 5760, Note_on_c, 4, 67, 100
6, 5760, Note_on_c, 4, 79, 100
6, 5789, Note_on_c, 4, 79, 0
6, 5789, Note_on_c, 4, 67, 0
6, 5789, Note_on_c, 4, 76, 0
6, 5790, Note_on_c, 4, 72, 100
6, 5819, Note_on_c, 4, 72, 0
6, 5820, Note_on_c, 4, 76, 100
6, 5849, Note_on_c, 4, 76, 0
6, 5850, Note_on_c, 4, 79, 100
6, 5879, Note_on_c, 4, 79, 0
6, 5880, Note_on_c, 4, 84, 100
6, 5909, Note_on_c, 4, 84, 0
6, 5910, Note_on_c, 4, 83, 100
6, 5939, Note_on_c, 4, 83, 0
6, 5940, Note_on_c, 4, 81, 100
6, 5969, Note_on_c, 4, 81, 0
6, 5970, Note_on_c, 4, 80, 100
6, 5999, Note_on_c, 4, 80, 0
6, 6000, Note_on_c, 4, 81, 100
6, 6029, Note_on_c, 4, 81, 0
6, 6030, Note_on_c, 4, 84, 100
6, 6059, Note_on_c, 4, 84, 0
6, 6060, Note_on_c, 4, 83, 100
6, 6089, Note_on_c, 4, 83, 0
6, 6090, Note_on_c, 4, 81, 100
6, 6119, Note_on_c, 4, 81, 0
6, 6120, Note_on_c, 4, 80, 100
6, 6149, Note_on_c, 4, 80, 0
6, 6150, Note_on_c, 4, 78, 100
6, 6179, Note_on_c, 4, 78, 0
6, 6180, Note_on_c, 4, 76, 100
6, 6209, Note_on_c, 4, 76, 0
6, 6210, Note_on_c, 4, 78, 100
6, 6239, Note_on_c, 4, 78, 0
6, 6240, Note_on_c, 4, 80, 100
6, 6269, Note_on_c, 4, 80, 0
6, 6270, Note_on_c, 4, 81, 100
6, 6299, Note_on_c, 4, 81, 0
6, 6300, Note_on_c, 4, 83, 100
6, 6359, Note_on_c, 4, 83, 0
6, 6360, Note_on_c, 4, 76, 100
6, 6360, Note_on_c, 4, 80, 100
6, 6360, Note_on_c, 4, 83, 100
6, 6419, Note_on_c, 4, 83, 0
6, 6419, Note_on_c, 4, 80, 0
6, 6419, Note_on_c, 4, 76, 0
6, 6420, Note_on_c, 4, 76, 100
6, 6420, Note_on_c, 4, 81, 100
6, 6420, Note_on_c, 4, 84, 100
6, 6479, Note_on_c, 4, 84, 0
6, 6479, Note_on_c, 4, 81, 0
6, 6479, Note_on_c, 4, 76, 0
6, 6480, Note_on_c, 4, 68, 100
6, 6480, Note_on_c, 4, 76, 100
6, 6480, Note_on_c, 4, 83, 100
6, 6539, Note_on_c, 4, 83, 0
6, 6539, Note_on_c, 4, 76, 0
6, 6539, Note_on_c, 4, 68, 0
6, 6540, Note_on_c, 4, 86, 100
6, 6599, Note_on_c, 4, 86, 0
6, 6600, Note_on_c, 4, 86, 100
6, 6659, Note_on_c, 4, 86, 0
6, 6660, Note_on_c, 4, 80, 100
6, 6719, Note_on_c, 4, 80, 0
6, 6720, Note_on_c, 4, 83, 100
6, 6779, Note_on_c, 4, 83, 0
6, 6780, Note_on_c, 4, 83, 100
6, 6839, Note_on_c, 4, 83, 0
6, 6840, Note_on_c, 4, 76, 100
6, 6899, Note_on_c, 4, 76, 0
6, 6900, Note_on_c, 4, 80, 100
6, 6959, Note_on_c, 4, 80, 0
6, 6960, Note_on_c, 4, 80, 100
6, 7019, Note_on_c, 4, 80, 0
6, 7020, Note_on_c, 4, 71, 100
6, 7079, Note_on_c, 4, 71, 0
6, 7080, Note_on_c, 4, 74, 100
6, 7139, Note_on_c, 4, 74, 0
6, 7140, Note_on_c, 4, 74, 100
6, 7199, Note_on_c, 4, 74, 0
6, 7200, Note_on_c, 4, 64, 100
6, 7229, Note_on_c, 4, 64, 0
6, 7230, Note_on_c, 4, 68, 100
6, 7259, Note_on_c, 4, 68, 0
6, 7260, Note_on_c, 4, 71, 100
6, 7289, Note_on_c, 4, 71, 0
6, 7290, Note_on_c, 4, 74, 100
6, 7319, Note_on_c, 4, 74, 0
6, 7320, Note_on_c, 4, 72, 100
6, 7379, Note_on_c, 4, 72, 0
6, 7410, Note_on_c, 4, 71, 100
6, 7439, Note_on_c, 4, 71, 0
6, 7440, Note_on_c, 4, 71, 100
6, 7529, Note_on_c, 4, 71, 0
6, 7530, Note_on_c, 4, 69, 100
6, 7559, Note_on_c, 4, 69, 0
6, 7560, Note_on_c, 4, 69, 100
6, 7619, Note_on_c, 4, 69, 0
6, 7950, Note_on_c, 4, 69, 100
6, 7979, Note_on_c, 4, 69, 0
6, 7980, Note_on_c, 4, 72, 100
6, 8009, Note_on_c, 4, 72, 0
6, 8010, Note_on_c, 4, 76, 100
6, 8039, Note_on_c, 4, 76, 0
6, 8040, Note_on_c, 4, 72, 100
6, 8069, Note_on_c, 4, 72, 0
6, 8070, Note_on_c, 4, 69, 100
6, 8099, Note_on_c, 4, 69, 0
6, 8100, Note_on_c, 4, 81, 100
6, 8130, Note_on_c, 4, 79, 100
6, 8159, Note_on_c, 4, 79, 0
6, 8160, Note_on_c, 4, 81, 0
6, 8160, Note_on_c, 4, 81, 100
6, 8160, Note_on_c, 4, 77, 100
6, 8189, Note_on_c, 4, 77, 0
6, 8190, Note_on_c, 4, 76, 100
6, 8219, Note_on_c, 4, 76, 0
6, 8220, Note_on_c, 4, 81, 0
6, 8220, Note_on_c, 4, 79, 100
6, 8220, Note_on_c, 4, 74, 100
6, 8249, Note_on_c, 4, 74, 0
6, 8250, Note_on_c, 4, 73, 100
6, 8279, Note_on_c, 4, 73, 0
6, 8280, Note_on_c, 4, 79, 0
6, 8280, Note_on_c, 4, 74, 100
6, 8280, Note_on_c, 4, 77, 100
6, 8309, Note_on_c, 4, 77, 0
6, 8309, Note_on_c, 4, 74, 0
6, 8310, Note_on_c, 4, 62, 100
6, 8339, Note_on_c, 4, 62, 0
6, 8340, Note_on_c, 4, 65, 100
6, 8369, Note_on_c, 4, 65, 0
6, 8370, Note_on_c, 4, 69, 100
6, 8399, Note_on_c, 4, 69, 0
6, 8400, Note_on_c, 4, 65, 100
6, 8429, Note_on_c, 4, 65, 0
6, 8430, Note_on_c, 4, 62, 100
6, 8459, Note_on_c, 4, 62, 0
6, 8460, Note_on_c, 4, 69, 100
6, 8489, Note_on_c, 4, 69, 0
6, 8490, Note_on_c, 4, 65, 100
6, 8519, Note_on_c, 4, 65, 0
6, 8520, Note_on_c, 4, 69, 100
6, 8549, Note_on_c, 4, 69, 0
6, 8550, Note_on_c, 4, 74, 100
6, 8579, Note_on_c, 4, 74, 0
6, 8580, Note_on_c, 4, 69, 100
6, 8609, Note_on_c, 4, 69, 0
6, 8610, Note_on_c, 4, 65, 100
6, 8639, Note_on_c, 4, 65, 0
6, 8640, Note_on_c, 4, 74, 100
6, 8669, Note_on_c, 4, 74, 0
6, 8670, Note_on_c, 4, 69, 100
6, 8699, Note_on_c, 4, 69, 0
6, 8700, Note_on_c, 4, 74, 100
6, 8729, Note_on_c, 4, 74, 0
6, 8730, Note_on_c, 4, 77, 100
6, 8759, Note_on_c, 4, 77, 0
6, 8760, Note_on_c, 4, 74, 100
6, 8789, Note_on_c, 4, 74, 0
6, 8790, Note_on_c, 4, 69, 100
6, 8819, Note_on_c, 4, 69, 0
6, 8820, Note_on_c, 4, 74, 100
6, 8849, Note_on_c, 4, 74, 0
6, 8850, Note_on_c, 4, 66, 100
6, 8879, Note_on_c, 4, 66, 0
6, 8880, Note_on_c, 4, 67, 100
6, 8909, Note_on_c, 4, 67, 0
6, 8910, Note_on_c, 4, 69, 100
6, 8939, Note_on_c, 4, 69, 0
6, 8940, Note_on_c, 4, 70, 100
6, 8969, Note_on_c, 4, 70, 0
6, 8970, Note_on_c, 4, 72, 100
6, 8999, Note_on_c, 4, 72, 0
6, 9000, Note_on_c, 4, 74, 100
6, 9015, Note_on_c, 4, 74, 0
6, 9015, Note_on_c, 4, 67, 100
6, 9029, Note_on_c, 4, 67, 0
6, 9030, Note_on_c, 4, 69, 100
6, 9044, Note_on_c, 4, 69, 0
6, 9045, Note_on_c, 4, 70, 100
6, 9059, Note_on_c, 4, 70, 0
6, 9060, Note_on_c, 4, 72, 100
6, 9074, Note_on_c, 4, 72, 0
6, 9075, Note_on_c, 4, 74, 100
6, 9089, Note_on_c, 4, 74, 0
6, 9090, Note_on_c, 4, 76, 100
6, 9104, Note_on_c, 4, 76, 0
6, 9105, Note_on_c, 4, 77, 100
6, 9119, Note_on_c, 4, 77, 0
6, 9120, Note_on_c, 4, 79, 100
6, 9134, Note_on_c, 4, 79, 0
6, 9135, Note_on_c, 4, 77, 100
6, 9149, Note_on_c, 4, 77, 0
6, 9150, Note_on_c, 4, 76, 100
6, 9164, Note_on_c, 4, 76, 0
6, 9165, Note_on_c, 4, 74, 100
6, 9179, Note_on_c, 4, 74, 0
6, 9180, Note_on_c, 4, 76, 100
6, 9194, Note_on_c, 4, 76, 0
6, 9195, Note_on_c, 4, 60, 100
6, 9209, Note_on_c, 4, 60, 0
6, 9210, Note_on_c, 4, 62, 100
6, 9224, Note_on_c, 4, 62, 0
6, 9225, Note_on_c, 4, 64, 100
6, 9239, Note_on_c, 4, 64, 0
6, 9240, Note_on_c, 4, 65, 100
6, 9254, Note_on_c, 4, 65, 0
6, 9255, Note_on_c, 4, 67, 100
6, 9269, Note_on_c, 4, 67, 0
6, 9270, Note_on_c, 4, 69, 100
6, 9284, Note_on_c, 4, 69, 0
6, 9285, Note_on_c, 4, 70, 100
6, 9299, Note_on_c, 4, 70, 0
6, 9300, Note_on_c, 4, 72, 100
6, 9314, Note_on_c, 4, 72, 0
6, 9315, Note_on_c, 4, 70, 100
6, 9329, Note_on_c, 4, 70, 0
6, 9330, Note_on_c, 4, 69, 100
6, 9344, Note_on_c, 4, 69, 0
6, 9345, Note_on_c, 4, 67, 100
6, 9359, Note_on_c, 4, 67, 0
6, 9360, Note_on_c, 4, 69, 100
6, 9374, Note_on_c, 4, 69, 0
6, 9375, Note_on_c, 4, 65, 100
6, 9389, Note_on_c, 4, 65, 0
6, 9390, Note_on_c, 4, 67, 100
6, 9404, Note_on_c, 4, 67, 0
6, 9405, Note_on_c, 4, 69, 100
6, 9419, Note_on_c, 4, 69, 0
6, 9420, Note_on_c, 4, 70, 100
6, 9434, Note_on_c, 4, 70, 0
6, 9435, Note_on_c, 4, 72, 100
6, 9449, Note_on_c, 4, 72, 0
6, 9450, Note_on_c, 4, 74, 100
6, 9464, Note_on_c, 4, 74, 0
6, 9465, Note_on_c, 4, 76, 100
6, 9479, Note_on_c, 4, 76, 0
6, 9480, Note_on_c, 4, 77, 100
6, 9494, Note_on_c, 4, 77, 0
6, 9495, Note_on_c, 4, 76, 100
6, 9509, Note_on_c, 4, 76, 0
6, 9510, Note_on_c, 4, 74, 100
6, 9524, Note_on_c, 4, 74, 0
6, 9525, Note_on_c, 4, 72, 100
6, 9539, Note_on_c, 4, 72, 0
6, 9540, Note_on_c, 4, 74, 100
6, 9554, Note_on_c, 4, 74, 0
6, 9555, Note_on_c, 4, 58, 100
6, 9569, Note_on_c, 4, 58, 0
6, 9570, Note_on_c, 4, 60, 100
6, 9584, Note_on_c, 4, 60, 0
6, 9585, Note_on_c, 4, 62, 100
6, 9599, Note_on_c, 4, 62, 0
6, 9600, Note_on_c, 4, 64, 100
6, 9614, Note_on_c, 4, 64, 0
6, 9615, Note_on_c, 4, 65, 100
6, 9629, Note_on_c, 4, 65, 0
6, 9630, Note_on_c, 4, 67, 100
6, 9644, Note_on_c, 4, 67, 0
6, 9645, Note_on_c, 4, 69, 100
6, 9659, Note_on_c, 4, 69, 0
6, 9660, Note_on_c, 4, 70, 100
6, 9674, Note_on_c, 4, 70, 0
6, 9675, Note_on_c, 4, 69, 100
6, 9689, Note_on_c, 4, 69, 0
6, 9690, Note_on_c, 4, 67, 100
6, 9704, Note_on_c, 4, 67, 0
6, 9705, Note_on_c, 4, 65, 100
6, 9719, Note_on_c, 4, 65, 0
6, 9720, Note_on_c, 4, 67, 100
6, 9734, Note_on_c, 4, 67, 0
6, 9735, Note_on_c, 4, 64, 100
6, 9749, Note_on_c, 4, 64, 0
6, 9750, Note_on_c, 4, 65, 100
6, 9764, Note_on_c, 4, 65, 0
6, 9765, Note_on_c, 4, 67, 100
6, 9779, Note_on_c, 4, 67, 0
6, 9780, Note_on_c, 4, 69, 100
6, 9794, Note_on_c, 4, 69, 0
6, 9795, Note_on_c, 4, 71, 100
6, 9809, Note_on_c, 4, 71, 0
6, 9810, Note_on_c, 4, 73, 100
6, 9824, Note_on_c, 4, 73, 0
6, 9825, Note_on_c, 4, 74, 100
6, 9839, Note_on_c, 4, 74, 0
6, 9840, Note_on_c, 4, 76, 100
6, 9854, Note_on_c, 4, 76, 0
6, 9855, Note_on_c, 4, 74, 100
6, 9869, Note_on_c, 4, 74, 0
6, 9870, Note_on_c, 4, 73, 100
6, 9884, Note_on_c, 4, 73, 0
6, 9885, Note_on_c, 4, 71, 100
6, 9899, Note_on_c, 4, 71, 0
6, 9900, Note_on_c, 4, 73, 100
6, 9914, Note_on_c, 4, 73, 0
6, 9915, Note_on_c, 4, 57, 100
6, 9929, Note_on_c, 4, 57, 0
6, 9930, Note_on_c, 4, 59, 100
6, 9944, Note_on_c, 4, 59, 0
6, 9945, Note_on_c, 4, 61, 100
6, 9959, Note_on_c, 4, 61, 0
6, 9960, Note_on_c, 4, 62, 100
6, 9974, Note_on_c, 4, 62, 0
6, 9975, Note_on_c, 4, 64, 100
6, 9989, Note_on_c, 4, 64, 0
6, 9990, Note_on_c, 4, 65, 100
6, 10004, Note_on_c, 4, 65, 0
6, 10005, Note_on_c, 4, 67, 100
6, 10019, Note_on_c, 4, 67, 0
6, 10020, Note_on_c, 4, 69, 100
6, 10034, Note_on_c, 4, 69, 0
6, 10035, Note_on_c, 4, 67, 100
6, 10049, Note_on_c, 4, 67, 0
6, 10050, Note_on_c, 4, 65, 100
6, 10064, Note_on_c, 4, 65, 0
6, 10065, Note_on_c, 4, 64, 100
6, 10079, Note_on_c, 4, 64, 0
6, 10080, Note_on_c, 4, 65, 100
6, 10109, Note_on_c, 4, 65, 0
6, 10110, Note_on_c, 4, 62, 100
6, 10139, Note_on_c, 4, 62, 0
6, 10140, Note_on_c, 4, 65, 100
6, 10169, Note_on_c, 4, 65, 0
6, 10170, Note_on_c, 4, 69, 100
6, 10199, Note_on_c, 4, 69, 0
6, 10200, Note_on_c, 4, 74, 100
6, 10229, Note_on_c, 4, 74, 0
6, 10230, Note_on_c, 4, 73, 100
6, 10259, Note_on_c, 4, 73, 0
6, 10260, Note_on_c, 4, 74, 100
6, 10319, Note_on_c, 4, 74, 0
6, 10320, Note_on_c, 4, 81, 100
6, 10320, Note_on_c, 4, 77, 100
6, 10379, Note_on_c, 4, 77, 0
6, 10379, Note_on_c, 4, 81, 0
6, 10380, Note_on_c, 4, 76, 100
6, 10380, Note_on_c, 4, 79, 100
6, 10439, Note_on_c, 4, 79, 0
6, 10439, Note_on_c, 4, 76, 0
6, 10440, Note_on_c, 4, 74, 100
6, 10440, Note_on_c, 4, 77, 100
6, 10469, Note_on_c, 4, 77, 0
6, 10469, Note_on_c, 4, 74, 0
6, 10470, Note_on_c, 4, 81, 100
6, 10499, Note_on_c, 4, 81, 0
6, 10500, Note_on_c, 4, 79, 100
6, 10529, Note_on_c, 4, 79, 0
6, 10530, Note_on_c, 4, 77, 100
6, 10559, Note_on_c, 4, 77, 0
6, 10560, Note_on_c, 4, 76, 100
6, 10589, Note_on_c, 4, 76, 0
6, 10590, Note_on_c, 4, 74, 100
6, 10619, Note_on_c, 4, 74, 0
6, 10620, Note_on_c, 4, 73, 100
6, 10649, Note_on_c, 4, 73, 0
6, 10650, Note_on_c, 4, 71, 100
6, 10679, Note_on_c, 4, 71, 0
6, 10680, Note_on_c, 4, 73, 100
6, 10709, Note_on_c, 4, 73, 0
6, 10710, Note_on_c, 4, 74, 100
6, 10739, Note_on_c, 4, 74, 0
6, 10740, Note_on_c, 4, 73, 100
6, 10769, Note_on_c, 4, 73, 0
6, 10770, Note_on_c, 4, 74, 100
6, 10799, Note_on_c, 4, 74, 0
6, 10800, Note_on_c, 4, 76, 100
6, 10829, Note_on_c, 4, 76, 0
6, 10830, Note_on_c, 4, 77, 100
6, 10859, Note_on_c, 4, 77, 0
6, 10860, Note_on_c, 4, 76, 100
6, 10889, Note_on_c, 4, 76, 0
6, 10890, Note_on_c, 4, 74, 100
6, 10919, Note_on_c, 4, 74, 0
6, 10920, Note_on_c, 4, 73, 100
6, 10949, Note_on_c, 4, 73, 0
6, 10950, Note_on_c, 4, 71, 100
6, 10979, Note_on_c, 4, 71, 0
6, 10980, Note_on_c, 4, 69, 100
6, 11009, Note_on_c, 4, 69, 0
6, 11010, Note_on_c, 4, 64, 100
6, 11039, Note_on_c, 4, 64, 0
6, 11040, Note_on_c, 4, 69, 100
6, 11069, Note_on_c, 4, 69, 0
6, 11070, Note_on_c, 4, 71, 100
6, 11099, Note_on_c, 4, 71, 0
6, 11100, Note_on_c, 4, 69, 100
6, 11129, Note_on_c, 4, 69, 0
6, 11130, Note_on_c, 4, 71, 100
6, 11159, Note_on_c, 4, 71, 0
6, 11160, Note_on_c, 4, 73, 100
6, 11189, Note_on_c, 4, 73, 0
6, 11190, Note_on_c, 4, 74, 100
6, 11219, Note_on_c, 4, 74, 0
6, 11220, Note_on_c, 4, 73, 100
6, 11249, Note_on_c, 4, 73, 0
6, 11250, Note_on_c, 4, 71, 100
6, 11279, Note_on_c, 4, 71, 0
6, 11280, Note_on_c, 4, 73, 100
6, 11309, Note_on_c, 4, 73, 0
6, 11310, Note_on_c, 4, 74, 100
6, 11339, Note_on_c, 4, 74, 0
6, 11340, Note_on_c, 4, 76, 100
6, 11399, Note_on_c, 4, 76, 0
6, 11400, Note_on_c, 4, 76, 100
6, 11459, Note_on_c, 4, 76, 0
6, 11460, Note_on_c, 4, 79, 100
6, 11474, Note_on_c, 4, 79, 0
6, 11475, Note_on_c, 4, 77, 100
6, 11489, Note_on_c, 4, 77, 0
6, 11490, Note_on_c, 4, 76, 100
6, 11504, Note_on_c, 4, 76, 0
6, 11505, Note_on_c, 4, 77, 100
6, 11519, Note_on_c, 4, 77, 0
6, 11520, Note_on_c, 4, 81, 100
6, 11539, Note_on_c, 4, 81, 0
6, 11540, Note_on_c, 4, 79, 100
6, 11559, Note_on_c, 4, 79, 0
6, 11560, Note_on_c, 4, 81, 100
6, 11579, Note_on_c, 4, 81, 0
6, 11580, Note_on_c, 4, 79, 100
6, 11594, Note_on_c, 4, 79, 0
6, 11595, Note_on_c, 4, 81, 100
6, 11609, Note_on_c, 4, 81, 0
6, 11610, Note_on_c, 4, 79, 100
6, 11624, Note_on_c, 4, 79, 0
6, 11625, Note_on_c, 4, 81, 100
6, 11639, Note_on_c, 4, 81, 0
6, 11640, Note_on_c, 4, 79, 100
6, 11654, Note_on_c, 4, 79, 0
6, 11655, Note_on_c, 4, 81, 100
6, 11669, Note_on_c, 4, 81, 0
6, 11670, Note_on_c, 4, 79, 100
6, 11684, Note_on_c, 4, 79, 0
6, 11685, Note_on_c, 4, 81, 100
6, 11699, Note_on_c, 4, 81, 0
6, 11700, Note_on_c, 4, 79, 100
6, 11709, Note_on_c, 4, 79, 0
6, 11710, Note_on_c, 4, 81, 100
6, 11719, Note_on_c, 4, 81, 0
6, 11720, Note_on_c, 4, 79, 100
6, 11729, Note_on_c, 4, 79, 0
6, 11730, Note_on_c, 4, 81, 100
6, 11739, Note_on_c, 4, 81, 0
6, 11740, Note_on_c, 4, 79, 100
6, 11749, Note_on_c, 4, 79, 0
6, 11750, Note_on_c, 4, 81, 100
6, 11759, Note_on_c, 4, 81, 0
6, 11760, Note_on_c, 4, 79, 100
6, 11769, Note_on_c, 4, 79, 0
6, 11770, Note_on_c, 4, 81, 100
6, 11779, Note_on_c, 4, 81, 0
6, 11780, Note_on_c, 4, 79, 100
6, 11789, Note_on_c, 4, 79, 0
6, 11790, Note_on_c, 4, 81, 100
6, 11799, Note_on_c, 4, 81, 0
6, 11800, Note_on_c, 4, 79, 100
6, 11809, Note_on_c, 4, 79, 0
6, 11810, Note_on_c, 4, 81, 100
6, 11819, Note_on_c, 4, 81, 0
6, 11820, Note_on_c, 4, 79, 100
6, 11829, Note_on_c, 4, 79, 0
6, 11830, Note_on_c, 4, 81, 100
6, 11839, Note_on_c, 4, 81, 0
6, 11840, Note_on_c, 4, 79, 100
6, 11849, Note_on_c, 4, 79, 0
6, 11850, Note_on_c, 4, 81, 100
6, 11859, Note_on_c, 4, 81, 0
6, 11860, Note_on_c, 4, 79, 100
6, 11869, Note_on_c, 4, 79, 0
6, 11870, Note_on_c, 4, 81, 100
6, 11879, Note_on_c, 4, 81, 0
6, 11880, Note_on_c, 4, 79, 100
6, 11889, Note_on_c, 4, 79, 0
6, 11890, Note_on_c, 4, 81, 100
6, 11899, Note_on_c, 4, 81, 0
6, 11900, Note_on_c, 4, 79, 100
6, 11909, Note_on_c, 4, 79, 0
6, 11910, Note_on_c, 4, 81, 100
6, 11919, Note_on_c, 4, 81, 0
6, 11920, Note_on_c, 4, 79, 100
6, 11929, Note_on_c, 4, 79, 0
6, 11930, Note_on_c, 4, 81, 100
6, 11939, Note_on_c, 4, 81, 0
6, 11940, Note_on_c, 4, 79, 100
6, 11949, Note_on_c, 4, 79, 0
6, 11950, Note_on_c, 4, 81, 100
6, 11959, Note_on_c, 4, 81, 0
6, 11960, Note_on_c, 4, 79, 100
6, 11969, Note_on_c, 4, 79, 0
6, 11970, Note_on_c, 4, 81, 100
6, 11979, Note_on_c, 4, 81, 0
6, 11980, Note_on_c, 4, 79, 100
6, 11989, Note_on_c, 4, 79, 0
6, 11990, Note_on_c, 4, 81, 100
6, 11999, Note_on_c, 4, 81, 0
6, 12000, Note_on_c, 4, 79, 100
6, 12009, Note_on_c, 4, 79, 0
6, 12010, Note_on_c, 4, 81, 100
6, 12019, Note_on_c, 4, 81, 0
6, 12020, Note_on_c, 4, 79, 100
6, 12029, Note_on_c, 4, 79, 0
6, 12030, Note_on_c, 4, 81, 100
6, 12039, Note_on_c, 4, 81, 0
6, 12040, Note_on_c, 4, 79, 100
6, 12049, Note_on_c, 4, 79, 0
6, 12050, Note_on_c, 4, 81, 100
6, 12059, Note_on_c, 4, 81, 0
6, 12060, Note_on_c, 4, 79, 100
6, 12069, Note_on_c, 4, 79, 0
6, 12070, Note_on_c, 4, 81, 100
6, 12079, Note_on_c, 4, 81, 0
6, 12080, Note_on_c, 4, 79, 100
6, 12089, Note_on_c, 4, 79, 0
6, 12090, Note_on_c, 4, 81, 100
6, 12099, Note_on_c, 4, 81, 0
6, 12100, Note_on_c, 4, 79, 100
6, 12109, Note_on_c, 4, 79, 0
6, 12110, Note_on_c, 4, 81, 100
6, 12119, Note_on_c, 4, 81, 0
6, 12120, Note_on_c, 4, 79, 100
6, 12129, Note_on_c, 4, 79, 0
6, 12130, Note_on_c, 4, 81, 100
6, 12139, Note_on_c, 4, 81, 0
6, 12140, Note_on_c, 4, 79, 100
6, 12149, Note_on_c, 4, 79, 0
6, 12150, Note_on_c, 4, 81, 100
6, 12159, Note_on_c, 4, 81, 0
6, 12160, Note_on_c, 4, 79, 100
6, 12169, Note_on_c, 4, 79, 0
6, 12170, Note_on_c, 4, 81, 100
6, 12179, Note_on_c, 4, 81, 0
6, 12180, Note_on_c, 4, 79, 100
6, 12189, Note_on_c, 4, 79, 0
6, 12190, Note_on_c, 4, 81, 100
6, 12199, Note_on_c, 4, 81, 0
6, 12200, Note_on_c, 4, 79, 100
6, 12209, Note_on_c, 4, 79, 0
6, 12210, Note_on_c, 4, 81, 100
6, 12219, Note_on_c, 4, 81, 0
6, 12220, Note_on_c, 4, 79, 100
6, 12229, Note_on_c, 4, 79, 0
6, 12230, Note_on_c, 4, 81, 100
6, 12239, Note_on_c, 4, 81, 0
6, 12240, Note_on_c, 4, 79, 100
6, 12329, Note_on_c, 4, 79, 0
6, 12330, Note_on_c, 4, 73, 100
6, 12359, Note_on_c, 4, 73, 0
6, 12360, Note_on_c, 4, 74, 100
6, 12419, Note_on_c, 4, 74, 0
6, 12450, Note_on_c, 4, 76, 100
6, 12479, Note_on_c, 4, 76, 0
6, 12480, Note_on_c, 4, 76, 100
6, 12569, Note_on_c, 4, 76, 0
6, 12570, Note_on_c, 4, 74, 100
6, 12599, Note_on_c, 4, 74, 0
6, 12600, Note_on_c, 4, 74, 100
6, 12659, Note_on_c, 4, 74, 0
6, 12660, Note_on_c, 4, 69, 100
6, 12660, Note_on_c, 4, 72, 100
6, 12660, Note_on_c, 4, 74, 100
6, 12719, Note_on_c, 4, 74, 0
6, 12719, Note_on_c, 4, 72, 0
6, 12719, Note_on_c, 4, 69, 0
6, 12720, Note_on_c, 4, 69, 100
6, 12720, Note_on_c, 4, 72, 100
6, 12720, Note_on_c, 4, 74, 100
6, 12779, Note_on_c, 4, 74, 0
6, 12779, Note_on_c, 4, 72, 0
6, 12779, Note_on_c, 4, 69, 0
6, 12780, Note_on_c, 4, 70, 100
6, 12780, Note_on_c, 4, 67, 100
6, 12780, Note_on_c, 4, 74, 100
6, 12839, Note_on_c, 4, 74, 0
6, 12839, Note_on_c, 4, 67, 0
6, 12839, Note_on_c, 4, 70, 0
6, 12840, Note_on_c, 4, 70, 100
6, 12840, Note_on_c, 4, 67, 100
6, 12840, Note_on_c, 4, 74, 100
6, 12899, Note_on_c, 4, 74, 0
6, 12899, Note_on_c, 4, 67, 0
6, 12899, Note_on_c, 4, 70, 0
6, 12900, Note_on_c, 4, 70, 100
6, 12900, Note_on_c, 4, 74, 100
6, 12959, Note_on_c, 4, 74, 0
6, 12959, Note_on_c, 4, 70, 0
6, 12960, Note_on_c, 4, 71, 100
6, 12960, Note_on_c, 4, 74, 100
6, 12960, Note_on_c, 4, 76, 100
6, 13019, Note_on_c, 4, 76, 0
6, 13019, Note_on_c, 4, 74, 0
6, 13019, Note_on_c, 4, 71, 0
6, 13020, Note_on_c, 4, 71, 100
6, 13020, Note_on_c, 4, 74, 100
6, 13020, Note_on_c, 4, 76, 100
6, 13079, Note_on_c, 4, 76, 0
6, 13079, Note_on_c, 4, 74, 0
6, 13079, Note_on_c, 4, 71, 0
6, 13080, Note_on_c, 4, 71, 100
6, 13080, Note_on_c, 4, 74, 100
6, 13080, Note_on_c, 4, 76, 100
6, 13139, Note_on_c, 4, 76, 0
6, 13139, Note_on_c, 4, 74, 0
6, 13139, Note_on_c, 4, 71, 0
6, 13140, Note_on_c, 4, 69, 100
6, 13140, Note_on_c, 4, 74, 100
6, 13140, Note_on_c, 4, 77, 100
6, 13199, Note_on_c, 4, 77, 0
6, 13199, Note_on_c, 4, 74, 0
6, 13199, Note_on_c, 4, 69, 0
6, 13200, Note_on_c, 4, 69, 100
6, 13200, Note_on_c, 4, 74, 100
6, 13200, Note_on_c, 4, 77, 100
6, 13259, Note_on_c, 4, 77, 0
6, 13259, Note_on_c, 4, 74, 0
6, 13259, Note_on_c, 4, 69, 0
6, 13260, Note_on_c, 4, 69, 100
6, 13260, Note_on_c, 4, 74, 100
6, 13260, Note_on_c, 4, 77, 100
6, 13319, Note_on_c, 4, 77, 0
6, 13319, Note_on_c, 4, 74, 0
6, 13319, Note_on_c, 4, 69, 0
6, 13320, Note_on_c, 4, 67, 100
6, 13320, Note_on_c, 4, 74, 100
6, 13320, Note_on_c, 4, 79, 100
6, 13379, Note_on_c, 4, 79, 0
6, 13379, Note_on_c, 4, 74, 0
6, 13379, Note_on_c, 4, 67, 0
6, 13380, Note_on_c, 4, 74, 100
6, 13380, Note_on_c, 4, 67, 100
6, 13380, Note_on_c, 4, 79, 100
6, 13439, Note_on_c, 4, 79, 0
6, 13439, Note_on_c, 4, 67, 0
6, 13439, Note_on_c, 4, 74, 0
6, 13440, Note_on_c, 4, 67, 100
6, 13440, Note_on_c, 4, 74, 100
6, 13440, Note_on_c, 4, 79, 100
6, 13499, Note_on_c, 4, 79, 0
6, 13499, Note_on_c, 4, 74, 0
6, 13499, Note_on_c, 4, 67, 0
6, 13530, Note_on_c, 4, 74, 100
6, 13559, Note_on_c, 4, 74, 0
6, 13560, Note_on_c, 4, 80, 100
6, 13589, Note_on_c, 4, 80, 0
6, 13590, Note_on_c, 4, 83, 100
6, 13619, Note_on_c, 4, 83, 0
6, 13620, Note_on_c, 4, 80, 100
6, 13649, Note_on_c, 4, 80, 0
6, 13650, Note_on_c, 4, 74, 100
6, 13679, Note_on_c, 4, 74, 0
6, 13680, Note_on_c, 4, 81, 100
6, 13709, Note_on_c, 4, 81, 0
6, 13710, Note_on_c, 4, 76, 100
6, 13739, Note_on_c, 4, 76, 0
6, 13740, Note_on_c, 4, 77, 100
6, 13769, Note_on_c, 4, 77, 0
6, 13770, Note_on_c, 4, 73, 100
6, 13799, Note_on_c, 4, 73, 0
6, 13800, Note_on_c, 4, 74, 100
6, 13859, Note_on_c, 4, 74, 0
6, 13890, Note_on_c, 4, 76, 100
6, 13919, Note_on_c, 4, 76, 0
6, 13920, Note_on_c, 4, 76, 100
6, 14009, Note_on_c, 4, 76, 0
6, 14010, Note_on_c, 4, 74, 100
6, 14039, Note_on_c, 4, 74, 0
6, 14040, Note_on_c, 4, 74, 100
6, 14069, Note_on_c, 4, 74, 0
6, 14070, Note_on_c, 4, 69, 100
6, 14099, Note_on_c, 4, 69, 0
6, 14100, Note_on_c, 4, 67, 100
6, 14129, Note_on_c, 4, 67, 0
6, 14130, Note_on_c, 4, 65, 100
6, 14159, Note_on_c, 4, 65, 0
6, 14160, Note_on_c, 4, 64, 100
6, 14189, Note_on_c, 4, 64, 0
6, 14190, Note_on_c, 4, 62, 100
6, 14219, Note_on_c, 4, 62, 0
6, 14220, Note_on_c, 4, 61, 100
6, 14249, Note_on_c, 4, 61, 0
6, 14250, Note_on_c, 4, 64, 100
6, 14279, Note_on_c, 4, 64, 0
6, 14280, Note_on_c, 4, 67, 100
6, 14309, Note_on_c, 4, 67, 0
6, 14310, Note_on_c, 4, 70, 100
6, 14339, Note_on_c, 4, 70, 0
6, 14340, Note_on_c, 4, 69, 100
6, 14369, Note_on_c, 4, 69, 0
6, 14370, Note_on_c, 4, 67, 100
6, 14399, Note_on_c, 4, 67, 0
6, 14400, Note_on_c, 4, 65, 100
6, 14429, Note_on_c, 4, 65, 0
6, 14430, Note_on_c, 4, 69, 100
6, 14459, Note_on_c, 4, 69, 0
6, 14460, Note_on_c, 4, 67, 100
6, 14489, Note_on_c, 4, 67, 0
6, 14490, Note_on_c, 4, 65, 100
6, 14519, Note_on_c, 4, 65, 0
6, 14520, Note_on_c, 4, 64, 100
6, 14549, Note_on_c, 4, 64, 0
6, 14550, Note_on_c, 4, 62, 100
6, 14579, Note_on_c, 4, 62, 0
6, 14580, Note_on_c, 4, 68, 100
6, 14609, Note_on_c, 4, 68, 0
6, 14610, Note_on_c, 4, 71, 100
6, 14639, Note_on_c, 4, 71, 0
6, 14640, Note_on_c, 4, 74, 100
6, 14669, Note_on_c, 4, 74, 0
6, 14670, Note_on_c, 4, 77, 100
6, 14699, Note_on_c, 4, 77, 0
6, 14700, Note_on_c, 4, 76, 100
6, 14729, Note_on_c, 4, 76, 0
6, 14730, Note_on_c, 4, 74, 100
6, 14759, Note_on_c, 4, 74, 0
6, 14760, Note_on_c, 4, 72, 100
6, 14789, Note_on_c, 4, 72, 0
6, 14790, Note_on_c, 4, 76, 100
6, 14819, Note_on_c, 4, 76, 0
6, 14820, Note_on_c, 4, 74, 100
6, 14849, Note_on_c, 4, 74, 0
6, 14850, Note_on_c, 4, 72, 100
6, 14879, Note_on_c, 4, 72, 0
6, 14880, Note_on_c, 4, 71, 100
6, 14909, Note_on_c, 4, 71, 0
6, 14910, Note_on_c, 4, 69, 100
6, 14939, Note_on_c, 4, 69, 0
6, 14940, Note_on_c, 4, 75, 100
6, 14969, Note_on_c, 4, 75, 0
6, 14970, Note_on_c, 4, 78, 100
6, 14999, Note_on_c, 4, 78, 0
6, 15000, Note_on_c, 4, 81, 100
6, 15029, Note_on_c, 4, 81, 0
6, 15030, Note_on_c, 4, 84, 100
6, 15059, Note_on_c, 4, 84, 0
6, 15060, Note_on_c, 4, 83, 100
6, 15089, Note_on_c, 4, 83, 0
6, 15090, Note_on_c, 4, 81, 100
6, 15119, Note_on_c, 4, 81, 0
6, 15120, Note_on_c, 4, 80, 100
6, 15149, Note_on_c, 4, 80, 0
6, 15150, Note_on_c, 4, 76, 100
6, 15179, Note_on_c, 4, 76, 0
6, 15180, Note_on_c, 4, 83, 100
6, 15209, Note_on_c, 4, 83, 0
6, 15210, Note_on_c, 4, 77, 100
6, 15239, Note_on_c, 4, 77, 0
6, 15240, Note_on_c, 4, 76, 100
6, 15269, Note_on_c, 4, 76, 0
6, 15270, Note_on_c, 4, 74, 100
6, 15299, Note_on_c, 4, 74, 0
6, 15300, Note_on_c, 4, 72, 100
6, 15329, Note_on_c, 4, 72, 0
6, 15330, Note_on_c, 4, 76, 100
6, 15359, Note_on_c, 4, 76, 0
6, 15360, Note_on_c, 4, 81, 100
6, 15389, Note_on_c, 4, 81, 0
6, 15390, Note_on_c, 4, 76, 100
6, 15419, Note_on_c, 4, 76, 0
6, 15420, Note_on_c, 4, 74, 100
6, 15449, Note_on_c, 4, 74, 0
6, 15450, Note_on_c, 4, 72, 100
6, 15479, Note_on_c, 4, 72, 0
6, 15480, Note_on_c, 4, 71, 100
6, 15509, Note_on_c, 4, 71, 0
6, 15510, Note_on_c, 4, 81, 100
6, 15539, Note_on_c, 4, 81, 0
6, 15540, Note_on_c, 4, 80, 100
6, 15569, Note_on_c, 4, 80, 0
6, 15570, Note_on_c, 4, 83, 100
6, 15599, Note_on_c, 4, 83, 0
6, 15600, Note_on_c, 4, 76, 100
6, 15629, Note_on_c, 4, 76, 0
6, 15630, Note_on_c, 4, 74, 100
6, 15659, Note_on_c, 4, 74, 0
6, 15660, Note_on_c, 4, 72, 100
6, 15689, Note_on_c, 4, 72, 0
6, 15690, Note_on_c, 4, 81, 100
6, 15719, Note_on_c, 4, 81, 0
6, 15720, Note_on_c, 4, 71, 100
6, 15749, Note_on_c, 4, 71, 0
6, 15750, Note_on_c, 4, 81, 100
6, 15779, Note_on_c, 4, 81, 0
6, 15780, Note_on_c, 4, 79, 100
6, 15809, Note_on_c, 4, 79, 0
6, 15810, Note_on_c, 4, 71, 100
6, 15839, Note_on_c, 4, 71, 0
6, 15840, Note_on_c, 4, 73, 100
6, 15869, Note_on_c, 4, 73, 0
6, 15870, Note_on_c, 4, 69, 100
6, 15899, Note_on_c, 4, 69, 0
6, 15900, Note_on_c, 4, 76, 100
6, 15929, Note_on_c, 4, 76, 0
6, 15930, Note_on_c, 4, 70, 100
6, 15959, Note_on_c, 4, 70, 0
6, 15960, Note_on_c, 4, 69, 100
6, 15989, Note_on_c, 4, 69, 0
6, 15990, Note_on_c, 4, 67, 100
6, 16019, Note_on_c, 4, 67, 0
6, 16020, Note_on_c, 4, 65, 100
6, 16049, Note_on_c, 4, 65, 0
6, 16050, Note_on_c, 4, 69, 100
6, 16079, Note_on_c, 4, 69, 0
6, 16080, Note_on_c, 4, 74, 100
6, 16109, Note_on_c, 4, 74, 0
6, 16110, Note_on_c, 4, 69, 100
6, 16139, Note_on_c, 4, 69, 0
6, 16140, Note_on_c, 4, 67, 100
6, 16169, Note_on_c, 4, 67, 0
6, 16170, Note_on_c, 4, 65, 100
6, 16199, Note_on_c, 4, 65, 0
6, 16200, Note_on_c, 4, 64, 100
6, 16229, Note_on_c, 4, 64, 0
6, 16230, Note_on_c, 4, 74, 100
6, 16259, Note_on_c, 4, 74, 0
6, 16260, Note_on_c, 4, 73, 100
6, 16289, Note_on_c, 4, 73, 0
6, 16290, Note_on_c, 4, 76, 100
6, 16319, Note_on_c, 4, 76, 0
6, 16320, Note_on_c, 4, 69, 100
6, 16349, Note_on_c, 4, 69, 0
6, 16350, Note_on_c, 4, 67, 100
6, 16379, Note_on_c, 4, 67, 0
6, 16380, Note_on_c, 4, 65, 100
6, 16409, Note_on_c, 4, 65, 0
6, 16410, Note_on_c, 4, 74, 100
6, 16439, Note_on_c, 4, 74, 0
6, 16440, Note_on_c, 4, 64, 100
6, 16469, Note_on_c, 4, 64, 0
6, 16470, Note_on_c, 4, 74, 100
6, 16499, Note_on_c, 4, 74, 0
6, 16500, Note_on_c, 4, 72, 100
6, 16529, Note_on_c, 4, 72, 0
6, 16530, Note_on_c, 4, 64, 100
6, 16559, Note_on_c, 4, 64, 0
6, 16560, Note_on_c, 4, 66, 100
6, 16589, Note_on_c, 4, 66, 0
6, 16590, Note_on_c, 4, 69, 100
6, 16619, Note_on_c, 4, 69, 0
6, 16620, Note_on_c, 4, 72, 100
6, 16649, Note_on_c, 4, 72, 0
6, 16650, Note_on_c, 4, 75, 100
6, 16679, Note_on_c, 4, 75, 0
6, 16680, Note_on_c, 4, 74, 100
6, 16709, Note_on_c, 4, 74, 0
6, 16710, Note_on_c, 4, 72, 100
6, 16739, Note_on_c, 4, 72, 0
6, 16740, Note_on_c, 4, 70, 100
6, 16769, Note_on_c, 4, 70, 0
6, 16770, Note_on_c, 4, 74, 100
6, 16799, Note_on_c, 4, 74, 0
6, 16800, Note_on_c, 4, 79, 100
6, 16829, Note_on_c, 4, 79, 0
6, 16830, Note_on_c, 4, 81, 100
6, 16859, Note_on_c, 4, 81, 0
6, 16860, Note_on_c, 4, 82, 100
6, 16889, Note_on_c, 4, 82, 0
6, 16890, Note_on_c, 4, 77, 100
6, 16919, Note_on_c, 4, 77, 0
6, 16920, Note_on_c, 4, 75, 100
6, 16949, Note_on_c, 4, 75, 0
6, 16950, Note_on_c, 4, 79, 100
6, 16979, Note_on_c, 4, 79, 0
6, 16980, Note_on_c, 4, 72, 100
6, 17009, Note_on_c, 4, 72, 0
6, 17010, Note_on_c, 4, 82, 100
6, 17039, Note_on_c, 4, 82, 0
6, 17040, Note_on_c, 4, 81, 100
6, 17069, Note_on_c, 4, 81, 0
6, 17070, Note_on_c, 4, 79, 100
6, 17099, Note_on_c, 4, 79, 0
6, 17100, Note_on_c, 4, 78, 100
6, 17129, Note_on_c, 4, 78, 0
6, 17130, Note_on_c, 4, 74, 100
6, 17159, Note_on_c, 4, 74, 0
6, 17160, Note_on_c, 4, 81, 100
6, 17189, Note_on_c, 4, 81, 0
6, 17190, Note_on_c, 4, 75, 100
6, 17219, Note_on_c, 4, 75, 0
6, 17220, Note_on_c, 4, 74, 100
6, 17249, Note_on_c, 4, 74, 0
6, 17250, Note_on_c, 4, 72, 100
6, 17279, Note_on_c, 4, 72, 0
6, 17280, Note_on_c, 4, 70, 100
6, 17309, Note_on_c, 4, 70, 0
6, 17310, Note_on_c, 4, 74, 100
6, 17339, Note_on_c, 4, 74, 0
6, 17340, Note_on_c, 4, 79, 100
6, 17369, Note_on_c, 4, 79, 0
6, 17370, Note_on_c, 4, 74, 100
6, 17399, Note_on_c, 4, 74, 0
6, 17400, Note_on_c, 4, 72, 100
6, 17429, Note_on_c, 4, 72, 0
6, 17430, Note_on_c, 4, 70, 100
6, 17459, Note_on_c, 4, 70, 0
6, 17460, Note_on_c, 4, 69, 100
6, 17489, Note_on_c, 4, 69, 0
6, 17490, Note_on_c, 4, 79, 100
6, 17519, Note_on_c, 4, 79, 0
6, 17520, Note_on_c, 4, 78, 100
6, 17549, Note_on_c, 4, 78, 0
6, 17550, Note_on_c, 4, 81, 100
6, 17579, Note_on_c, 4, 81, 0
6, 17580, Note_on_c, 4, 74, 100
6, 17609, Note_on_c, 4, 74, 0
6, 17610, Note_on_c, 4, 72, 100
6, 17639, Note_on_c, 4, 72, 0
6, 17640, Note_on_c, 4, 70, 100
6, 17669, Note_on_c, 4, 70, 0
6, 17670, Note_on_c, 4, 79, 100
6, 17699, Note_on_c, 4, 79, 0
6, 17700, Note_on_c, 4, 69, 100
6, 17729, Note_on_c, 4, 69, 0
6, 17730, Note_on_c, 4, 79, 100
6, 17759, Note_on_c, 4, 79, 0
6, 17760, Note_on_c, 4, 78, 100
6, 17789, Note_on_c, 4, 78, 0
6, 17790, Note_on_c, 4, 69, 100
6, 17790, Note_on_c, 4, 72, 100
6, 17819, Note_on_c, 4, 72, 0
6, 17819, Note_on_c, 4, 69, 0
6, 17820, Note_on_c, 4, 71, 100
6, 17849, Note_on_c, 4, 71, 0
6, 17850, Note_on_c, 4, 77, 100
6, 17879, Note_on_c, 4, 77, 0
6, 17880, Note_on_c, 4, 72, 100
6, 17909, Note_on_c, 4, 72, 0
6, 17910, Note_on_c, 4, 77, 100
6, 17939, Note_on_c, 4, 77, 0
6, 17940, Note_on_c, 4, 76, 100
6, 17969, Note_on_c, 4, 76, 0
6, 17970, Note_on_c, 4, 70, 100
6, 17970, Note_on_c, 4, 67, 100
6, 17999, Note_on_c, 4, 67, 0
6, 17999, Note_on_c, 4, 70, 0
6, 18000, Note_on_c, 4, 69, 100
6, 18029, Note_on_c, 4, 69, 0
6, 18030, Note_on_c, 4, 75, 100
6, 18059, Note_on_c, 4, 75, 0
6, 18060, Note_on_c, 4, 70, 100
6, 18089, Note_on_c, 4, 70, 0
6, 18090, Note_on_c, 4, 75, 100
6, 18119, Note_on_c, 4, 75, 0
6, 18120, Note_on_c, 4, 74, 100
6, 18149, Note_on_c, 4, 74, 0
6, 18150, Note_on_c, 4, 65, 100
6, 18179, Note_on_c, 4, 65, 0
6, 18180, Note_on_c, 4, 67, 100
6, 18209, Note_on_c, 4, 67, 0
6, 18210, Note_on_c, 4, 74, 100
6, 18239, Note_on_c, 4, 74, 0
6, 18240, Note_on_c, 4, 69, 100
6, 18269, Note_on_c, 4, 69, 0
6, 18270, Note_on_c, 4, 74, 100
6, 18299, Note_on_c, 4, 74, 0
6, 18300, Note_on_c, 4, 73, 100
6, 18329, Note_on_c, 4, 73, 0
6, 18330, Note_on_c, 4, 64, 100
6, 18359, Note_on_c, 4, 64, 0
6, 18360, Note_on_c, 4, 66, 100
6, 18389, Note_on_c, 4, 66, 0
6, 18390, Note_on_c, 4, 72, 100
6, 18419, Note_on_c, 4, 72, 0
6, 18420, Note_on_c, 4, 70, 100
6, 18449, Note_on_c, 4, 70, 0
6, 18450, Note_on_c, 4, 74, 100
6, 18479, Note_on_c, 4, 74, 0
6, 18480, Note_on_c, 4, 79, 100
6, 18509, Note_on_c, 4, 79, 0
6, 18510, Note_on_c, 4, 82, 100
6, 18539, Note_on_c, 4, 82, 0
6, 18540, Note_on_c, 4, 76, 100
6, 18569, Note_on_c, 4, 76, 0
6, 18570, Note_on_c, 4, 72, 100
6, 18599, Note_on_c, 4, 72, 0
6, 18600, Note_on_c, 4, 79, 100
6, 18629, Note_on_c, 4, 79, 0
6, 18630, Note_on_c, 4, 70, 100
6, 18659, Note_on_c, 4, 70, 0
6, 18660, Note_on_c, 4, 69, 100
6, 18689, Note_on_c, 4, 69, 0
6, 18690, Note_on_c, 4, 67, 100
6, 18719, Note_on_c, 4, 67, 0
6, 18720, Note_on_c, 4, 68, 100
6, 18749, Note_on_c, 4, 68, 0
6, 18750, Note_on_c, 4, 77, 100
6, 18779, Note_on_c, 4, 77, 0
6, 18780, Note_on_c, 4, 67, 100
6, 18809, Note_on_c, 4, 67, 0
6, 18810, Note_on_c, 4, 77, 100
6, 18839, Note_on_c, 4, 77, 0
6, 18840, Note_on_c, 4, 76, 100
6, 18869, Note_on_c, 4, 76, 0
6, 18870, Note_on_c, 4, 73, 100
6, 18899, Note_on_c, 4, 73, 0
6, 18900, Note_on_c, 4, 70, 100
6, 18929, Note_on_c, 4, 70, 0
6, 18930, Note_on_c, 4, 67, 100
6, 18959, Note_on_c, 4, 67, 0
6, 18960, Note_on_c, 4, 64, 100
6, 18989, Note_on_c, 4, 64, 0
6, 18990, Note_on_c, 4, 67, 100
6, 19019, Note_on_c, 4, 67, 0
6, 19020, Note_on_c, 4, 60, 100
6, 19049, Note_on_c, 4, 60, 0
6, 19050, Note_on_c, 4, 58, 100
6, 19079, Note_on_c, 4, 58, 0
6, 19080, Note_on_c, 4, 57, 100
6, 19109, Note_on_c, 4, 57, 0
6, 19110, Note_on_c, 4, 60, 100
6, 19139, Note_on_c, 4, 60, 0
6, 19140, Note_on_c, 4, 65, 100
6, 19169, Note_on_c, 4, 65, 0
6, 19170, Note_on_c, 4, 69, 100
6, 19199, Note_on_c, 4, 69, 0
6, 19200, Note_on_c, 4, 72, 100
6, 19229, Note_on_c, 4, 72, 0
6, 19230, Note_on_c, 4, 76, 100
6, 19259, Note_on_c, 4, 76, 0
6, 19260, Note_on_c, 4, 77, 100
6, 19289, Note_on_c, 4, 77, 0
6, 19290, Note_on_c, 4, 70, 100
6, 19319, Note_on_c, 4, 70, 0
6, 19320, Note_on_c, 4, 64, 100
6, 19320, Note_on_c, 4, 67, 100
6, 19409, Note_on_c, 4, 67, 0
6, 19409, Note_on_c, 4, 64, 0
6, 19410, Note_on_c, 4, 65, 100
6, 19439, Note_on_c, 4, 65, 0
6, 19440, Note_on_c, 4, 65, 100
6, 19499, Note_on_c, 4, 65, 0
6, 19500, Note_on_c, 4, 77, 100
6, 19559, Note_on_c, 4, 77, 0
6, 19560, Note_on_c, 4, 81, 100
6, 19574, Note_on_c, 4, 81, 0
6, 19575, Note_on_c, 4, 79, 100
6, 19589, Note_on_c, 4, 79, 0
6, 19590, Note_on_c, 4, 77, 100
6, 19604, Note_on_c, 4, 77, 0
6, 19605, Note_on_c, 4, 79, 100
6, 19619, Note_on_c, 4, 79, 0
6, 19620, Note_on_c, 4, 81, 100
6, 19679, Note_on_c, 4, 81, 0
6, 19680, Note_on_c, 4, 81, 100
6, 19739, Note_on_c, 4, 81, 0
6, 19740, Note_on_c, 4, 84, 100
6, 19754, Note_on_c, 4, 84, 0
6, 19755, Note_on_c, 4, 82, 100
6, 19769, Note_on_c, 4, 82, 0
6, 19770, Note_on_c, 4, 81, 100
6, 19784, Note_on_c, 4, 81, 0
6, 19785, Note_on_c, 4, 82, 100
6, 19799, Note_on_c, 4, 82, 0
6, 19800, Note_on_c, 4, 84, 100
6, 19859, Note_on_c, 4, 84, 0
6, 19860, Note_on_c, 4, 84, 100
6, 19919, Note_on_c, 4, 84, 0
6, 19920, Note_on_c, 4, 86, 100
6, 19979, Note_on_c, 4, 86, 0
6, 19980, Note_on_c, 4, 84, 100
6, 20039, Note_on_c, 4, 84, 0
6, 20040, Note_on_c, 4, 82, 100
6, 20069, Note_on_c, 4, 82, 0
6, 20070, Note_on_c, 4, 81, 100
6, 20099, Note_on_c, 4, 81, 0
6, 20100, Note_on_c, 4, 79, 100
6, 20129, Note_on_c, 4, 79, 0
6, 20130, Note_on_c, 4, 77, 100
6, 20159, Note_on_c, 4, 77, 0
6, 20160, Note_on_c, 4, 76, 100
6, 20189, Note_on_c, 4, 76, 0
6, 20190, Note_on_c, 4, 74, 100
6, 20219, Note_on_c, 4, 74, 0
6, 20220, Note_on_c, 4, 72, 100
6, 20249, Note_on_c, 4, 72, 0
6, 20250, Note_on_c, 4, 74, 100
6, 20279, Note_on_c, 4, 74, 0
6, 20280, Note_on_c, 4, 76, 100
6, 20309, Note_on_c, 4, 76, 0
6, 20310, Note_on_c, 4, 77, 100
6, 20339, Note_on_c, 4, 77, 0
6, 20340, Note_on_c, 4, 79, 100
6, 20399, Note_on_c, 4, 79, 0
6, 20400, Note_on_c, 4, 79, 100
6, 20459, Note_on_c, 4, 79, 0
6, 20460, Note_on_c, 4, 81, 100
6, 20519, Note_on_c, 4, 81, 0
6, 20520, Note_on_c, 4, 79, 100
6, 20579, Note_on_c, 4, 79, 0
6, 20580, Note_on_c, 4, 60, 100
6, 20609, Note_on_c, 4, 60, 0
6, 20610, Note_on_c, 4, 62, 100
6, 20639, Note_on_c, 4, 62, 0
6, 20640, Note_on_c, 4, 64, 100
6, 20669, Note_on_c, 4, 64, 0
6, 20670, Note_on_c, 4, 65, 100
6, 20699, Note_on_c, 4, 65, 0
6, 20700, Note_on_c, 4, 67, 100
6, 20759, Note_on_c, 4, 67, 0
6, 20760, Note_on_c, 4, 60, 100
6, 20760, Note_on_c, 4, 64, 100
6, 20819, Note_on_c, 4, 64, 0
6, 20819, Note_on_c, 4, 60, 0
6, 20820, Note_on_c, 4, 60, 100
6, 20820, Note_on_c, 4, 65, 100
6, 20820, Note_on_c, 4, 69, 100
6, 20879, Note_on_c, 4, 69, 0
6, 20879, Note_on_c, 4, 65, 0
6, 20879, Note_on_c, 4, 60, 0
6, 20880, Note_on_c, 4, 64, 100
6, 20880, Note_on_c, 4, 67, 100
6, 20909, Note_on_c, 4, 67, 0
6, 20909, Note_on_c, 4, 64, 0
6, 20910, Note_on_c, 4, 72, 100
6, 20939, Note_on_c, 4, 72, 0
6, 20940, Note_on_c, 4, 76, 100
6, 20969, Note_on_c, 4, 76, 0
6, 20970, Note_on_c, 4, 79, 100
6, 20999, Note_on_c, 4, 79, 0
6, 21000, Note_on_c, 4, 84, 100
6, 21029, Note_on_c, 4, 84, 0
6, 21030, Note_on_c, 4, 83, 100
6, 21059, Note_on_c, 4, 83, 0
6, 21060, Note_on_c, 4, 84, 100
6, 21119, Note_on_c, 4, 84, 0
6, 21120, Note_on_c, 4, 79, 100
6, 21179, Note_on_c, 4, 79, 0
6, 21180, Note_on_c, 4, 77, 100
6, 21239, Note_on_c, 4, 77, 0
6, 21240, Note_on_c, 4, 76, 100
6, 21269, Note_on_c, 4, 76, 0
6, 21270, Note_on_c, 4, 79, 100
6, 21299, Note_on_c, 4, 79, 0
6, 21300, Note_on_c, 4, 77, 100
6, 21329, Note_on_c, 4, 77, 0
6, 21330, Note_on_c, 4, 76, 100
6, 21359, Note_on_c, 4, 76, 0
6, 21360, Note_on_c, 4, 74, 100
6, 21389, Note_on_c, 4, 74, 0
6, 21390, Note_on_c, 4, 72, 100
6, 21419, Note_on_c, 4, 72, 0
6, 21420, Note_on_c, 4, 71, 100
6, 21449, Note_on_c, 4, 71, 0
6, 21450, Note_on_c, 4, 69, 100
6, 21479, Note_on_c, 4, 69, 0
6, 21480, Note_on_c, 4, 71, 100
6, 21509, Note_on_c, 4, 71, 0
6, 21510, Note_on_c, 4, 72, 100
6, 21539, Note_on_c, 4, 72, 0
6, 21540, Note_on_c, 4, 71, 100
6, 21569, Note_on_c, 4, 71, 0
6, 21570, Note_on_c, 4, 72, 100
6, 21599, Note_on_c, 4, 72, 0
6, 21600, Note_on_c, 4, 74, 100
6, 21629, Note_on_c, 4, 74, 0
6, 21630, Note_on_c, 4, 72, 100
6, 21659, Note_on_c, 4, 72, 0
6, 21660, Note_on_c, 4, 71, 100
6, 21689, Note_on_c, 4, 71, 0
6, 21690, Note_on_c, 4, 69, 100
6, 21719, Note_on_c, 4, 69, 0
6, 21720, Note_on_c, 4, 67, 100
6, 21749, Note_on_c, 4, 67, 0
6, 21750, Note_on_c, 4, 69, 100
6, 21779, Note_on_c, 4, 69, 0
6, 21780, Note_on_c, 4, 71, 100
6, 21809, Note_on_c, 4, 71, 0
6, 21810, Note_on_c, 4, 72, 100
6, 21839, Note_on_c, 4, 72, 0
6, 21840, Note_on_c, 4, 71, 100
6, 21869, Note_on_c, 4, 71, 0
6, 21870, Note_on_c, 4, 69, 100
6, 21899, Note_on_c, 4, 69, 0
6, 21900, Note_on_c, 4, 67, 100
6, 21929, Note_on_c, 4, 67, 0
6, 21930, Note_on_c, 4, 69, 100
6, 21959, Note_on_c, 4, 69, 0
6, 21960, Note_on_c, 4, 71, 100
6, 21989, Note_on_c, 4, 71, 0
6, 21990, Note_on_c, 4, 67, 100
6, 22019, Note_on_c, 4, 67, 0
6, 22020, Note_on_c, 4, 71, 100
6, 22049, Note_on_c, 4, 71, 0
6, 22050, Note_on_c, 4, 74, 100
6, 22079, Note_on_c, 4, 74, 0
6, 22080, Note_on_c, 4, 79, 100
6, 22109, Note_on_c, 4, 79, 0
6, 22110, Note_on_c, 4, 77, 100
6, 22139, Note_on_c, 4, 77, 0
6, 22140, Note_on_c, 4, 76, 100
6, 22199, Note_on_c, 4, 76, 0
6, 22200, Note_on_c, 4, 77, 100
6, 22214, Note_on_c, 4, 77, 0
6, 22215, Note_on_c, 4, 76, 100
6, 22229, Note_on_c, 4, 76, 0
6, 22230, Note_on_c, 4, 77, 100
6, 22244, Note_on_c, 4, 77, 0
6, 22245, Note_on_c, 4, 76, 100
6, 22259, Note_on_c, 4, 76, 0
6, 22260, Note_on_c, 4, 77, 100
6, 22274, Note_on_c, 4, 77, 0
6, 22275, Note_on_c, 4, 76, 100
6, 22289, Note_on_c, 4, 76, 0
6, 22290, Note_on_c, 4, 74, 100
6, 22304, Note_on_c, 4, 74, 0
6, 22305, Note_on_c, 4, 76, 100
6, 22319, Note_on_c, 4, 76, 0
6, 22320, Note_on_c, 4, 77, 100
6, 22379, Note_on_c, 4, 77, 0
6, 22380, Note_on_c, 4, 69, 100
6, 22380, Note_on_c, 4, 72, 100
6, 22380, Note_on_c, 4, 77, 100
6, 22439, Note_on_c, 4, 77, 0
6, 22439, Note_on_c, 4, 72, 0
6, 22439, Note_on_c, 4, 69, 0
6, 22440, Note_on_c, 4, 65, 100
6, 22440, Note_on_c, 4, 72, 100
6, 22440, Note_on_c, 4, 77, 100
6, 22499, Note_on_c, 4, 77, 0
6, 22499, Note_on_c, 4, 72, 0
6, 22499, Note_on_c, 4, 65, 0
6, 22500, Note_on_c, 4, 65, 100
6, 22500, Note_on_c, 4, 77, 100
6, 22500, Note_on_c, 4, 74, 100
6, 22529, Note_on_c, 4, 74, 0
6, 22529, Note_on_c, 4, 77, 0
6, 22529, Note_on_c, 4, 65, 0
6, 22530, Note_on_c, 4, 70, 100
6, 22559, Note_on_c, 4, 70, 0
6, 22560, Note_on_c, 4, 74, 100
6, 22589, Note_on_c, 4, 74, 0
6, 22590, Note_on_c, 4, 77, 100
6, 22619, Note_on_c, 4, 77, 0
6, 22620, Note_on_c, 4, 82, 100
6, 22649, Note_on_c, 4, 82, 0
6, 22650, Note_on_c, 4, 79, 100
6, 22679, Note_on_c, 4, 79, 0
6, 22680, Note_on_c, 4, 76, 100
6, 22709, Note_on_c, 4, 76, 0
6, 22710, Note_on_c, 4, 79, 100
6, 22739, Note_on_c, 4, 79, 0
6, 22740, Note_on_c, 4, 84, 100
6, 22769, Note_on_c, 4, 84, 0
6, 22770, Note_on_c, 4, 76, 100
6, 22799, Note_on_c, 4, 76, 0
6, 22800, Note_on_c, 4, 77, 100
6, 22859, Note_on_c, 4, 77, 0
6, 22890, Note_on_c, 4, 82, 100
6, 22919, Note_on_c, 4, 82, 0
6, 22920, Note_on_c, 4, 79, 100
6, 23009, Note_on_c, 4, 79, 0
6, 23010, Note_on_c, 4, 77, 100
6, 23039, Note_on_c, 4, 77, 0
6, 23040, Note_on_c, 4, 77, 100
6, 23069, Note_on_c, 4, 77, 0
6, 23070, Note_on_c, 4, 65, 100
6, 23099, Note_on_c, 4, 65, 0
6, 23100, Note_on_c, 4, 69, 100
6, 23129, Note_on_c, 4, 69, 0
6, 23130, Note_on_c, 4, 72, 100
6, 23159, Note_on_c, 4, 72, 0
6, 23160, Note_on_c, 4, 77, 100
6, 23189, Note_on_c, 4, 77, 0
6, 23190, Note_on_c, 4, 76, 100
6, 23219, Note_on_c, 4, 76, 0
6, 23220, Note_on_c, 4, 77, 100
6, 23279, Note_on_c, 4, 77, 0
6, 23280, Note_on_c, 4, 72, 100
6, 23339, Note_on_c, 4, 72, 0
6, 23460, Note_on_c, 4, 76, 100
6, 23519, Note_on_c, 4, 76, 0
6, 23520, Note_on_c, 4, 79, 100
6, 23579, Note_on_c, 4, 79, 0
6, 23580, Note_on_c, 4, 84, 100
6, 23639, Note_on_c, 4, 84, 0
6, 23820, Note_on_c, 4, 76, 100
6, 23849, Note_on_c, 4, 76, 0
6, 23850, Note_on_c, 4, 77, 100
6, 23879, Note_on_c, 4, 77, 0
6, 23880, Note_on_c, 4, 76, 100
6, 23909, Note_on_c, 4, 76, 0
6, 23910, Note_on_c, 4, 77, 100
6, 23939, Note_on_c, 4, 77, 0
6, 23940, Note_on_c, 4, 79, 100
6, 23969, Note_on_c, 4, 79, 0
6, 23970, Note_on_c, 4, 69, 100
6, 23999, Note_on_c, 4, 69, 0
6, 24000, Note_on_c, 4, 73, 100
6, 24029, Note_on_c, 4, 73, 0
6, 24030, Note_on_c, 4, 76, 100
6, 24059, Note_on_c, 4, 76, 0
6, 24060, Note_on_c, 4, 81, 100
6, 24089, Note_on_c, 4, 81, 0
6, 24090, Note_on_c, 4, 79, 100
6, 24119, Note_on_c, 4, 79, 0
6, 24120, Note_on_c, 4, 77, 100
6, 24179, Note_on_c, 4, 77, 0
6, 24360, Note_on_c, 4, 81, 100
6, 24419, Note_on_c, 4, 81, 0
6, 24420, Note_on_c, 4, 79, 100
6, 24449, Note_on_c, 4, 79, 0
6, 24450, Note_on_c, 4, 77, 100
6, 24479, Note_on_c, 4, 77, 0
6, 24480, Note_on_c, 4, 76, 100
6, 24509, Note_on_c, 4, 76, 0
6, 24510, Note_on_c, 4, 69, 100
6, 24539, Note_on_c, 4, 69, 0
6, 24540, Note_on_c, 4, 73, 100
6, 24569, Note_on_c, 4, 73, 0
6, 24570, Note_on_c, 4, 76, 100
6, 24599, Note_on_c, 4, 76, 0
6, 24600, Note_on_c, 4, 73, 100
6, 24629, Note_on_c, 4, 73, 0
6, 24630, Note_on_c, 4, 69, 100
6, 24659, Note_on_c, 4, 69, 0
6, 24660, Note_on_c, 4, 76, 100
6, 24689, Note_on_c, 4, 76, 0
6, 24690, Note_on_c, 4, 73, 100
6, 24719, Note_on_c, 4, 73, 0
6, 24720, Note_on_c, 4, 76, 100
6, 24749, Note_on_c, 4, 76, 0
6, 24750, Note_on_c, 4, 79, 100
6, 24779, Note_on_c, 4, 79, 0
6, 24780, Note_on_c, 4, 76, 100
6, 24809, Note_on_c, 4, 76, 0
6, 24810, Note_on_c, 4, 73, 100
6, 24839, Note_on_c, 4, 73, 0
6, 24840, Note_on_c, 4, 69, 100
6, 24899, Note_on_c, 4, 69, 0
6, 24900, Note_on_c, 4, 78, 100
6, 24929, Note_on_c, 4, 78, 0
6, 24930, Note_on_c, 4, 79, 100
6, 24959, Note_on_c, 4, 79, 0
6, 24960, Note_on_c, 4, 78, 100
6, 24989, Note_on_c, 4, 78, 0
6, 24990, Note_on_c, 4, 79, 100
6, 25019, Note_on_c, 4, 79, 0
6, 25020, Note_on_c, 4, 81, 100
6, 25049, Note_on_c, 4, 81, 0
6, 25050, Note_on_c, 4, 82, 100
6, 25079, Note_on_c, 4, 82, 0
6, 25080, Note_on_c, 4, 81, 100
6, 25109, Note_on_c, 4, 81, 0
6, 25110, Note_on_c, 4, 79, 100
6, 25139, Note_on_c, 4, 79, 0
6, 25140, Note_on_c, 4, 81, 100
6, 25169, Note_on_c, 4, 81, 0
6, 25170, Note_on_c, 4, 78, 100
6, 25199, Note_on_c, 4, 78, 0
6, 25200, Note_on_c, 4, 74, 100
6, 25259, Note_on_c, 4, 74, 0
6, 25260, Note_on_c, 4, 82, 100
6, 25395, Note_on_c, 4, 82, 0
6, 25395, Note_on_c, 4, 81, 100
6, 25409, Note_on_c, 4, 81, 0
6, 25410, Note_on_c, 4, 79, 100
6, 25424, Note_on_c, 4, 79, 0
6, 25425, Note_on_c, 4, 77, 100
6, 25439, Note_on_c, 4, 77, 0
6, 25440, Note_on_c, 4, 75, 100
6, 25454, Note_on_c, 4, 75, 0
6, 25455, Note_on_c, 4, 74, 100
6, 25469, Note_on_c, 4, 74, 0
6, 25470, Note_on_c, 4, 72, 100
6, 25499, Note_on_c, 4, 72, 0
6, 25500, Note_on_c, 4, 84, 100
6, 25529, Note_on_c, 4, 84, 0
6, 25530, Note_on_c, 4, 82, 100
6, 25559, Note_on_c, 4, 82, 0
6, 25560, Note_on_c, 4, 81, 100
6, 25751, Note_on_c, 4, 81, 0
6, 25755, Note_on_c, 4, 79, 100
6, 25769, Note_on_c, 4, 79, 0
6, 25770, Note_on_c, 4, 77, 100
6, 25784, Note_on_c, 4, 77, 0
6, 25785, Note_on_c, 4, 75, 100
6, 25799, Note_on_c, 4, 75, 0
6, 25800, Note_on_c, 4, 74, 100
6, 25814, Note_on_c, 4, 74, 0
6, 25815, Note_on_c, 4, 72, 100
6, 25829, Note_on_c, 4, 72, 0
6, 25830, Note_on_c, 4, 70, 100
6, 25859, Note_on_c, 4, 70, 0
6, 25860, Note_on_c, 4, 82, 100
6, 25889, Note_on_c, 4, 82, 0
6, 25890, Note_on_c, 4, 81, 100
6, 25919, Note_on_c, 4, 81, 0
6, 25920, Note_on_c, 4, 79, 100
6, 26115, Note_on_c, 4, 79, 0
6, 26115, Note_on_c, 4, 77, 100
6, 26129, Note_on_c, 4, 77, 0
6, 26130, Note_on_c, 4, 75, 100
6, 26144, Note_on_c, 4, 75, 0
6, 26145, Note_on_c, 4, 74, 100
6, 26159, Note_on_c, 4, 74, 0
6, 26160, Note_on_c, 4, 72, 100
6, 26174, Note_on_c, 4, 72, 0
6, 26175, Note_on_c, 4, 70, 100
6, 26189, Note_on_c, 4, 70, 0
6, 26190, Note_on_c, 4, 69, 100
6, 26219, Note_on_c, 4, 69, 0
6, 26220, Note_on_c, 4, 81, 100
6, 26249, Note_on_c, 4, 81, 0
6, 26250, Note_on_c, 4, 79, 100
6, 26279, Note_on_c, 4, 79, 0
6, 26280, Note_on_c, 4, 78, 100
6, 26399, Note_on_c, 4, 78, 0
6, 26400, Note_on_c, 4, 77, 100
6, 26475, Note_on_c, 4, 77, 0
6, 26475, Note_on_c, 4, 75, 100
6, 26489, Note_on_c, 4, 75, 0
6, 26490, Note_on_c, 4, 74, 100
6, 26504, Note_on_c, 4, 74, 0
6, 26505, Note_on_c, 4, 72, 100
6, 26519, Note_on_c, 4, 72, 0
6, 26520, Note_on_c, 4, 71, 100
6, 26534, Note_on_c, 4, 71, 0
6, 26535, Note_on_c, 4, 69, 100
6, 26549, Note_on_c, 4, 69, 0
6, 26550, Note_on_c, 4, 67, 100
6, 26579, Note_on_c, 4, 67, 0
6, 26580, Note_on_c, 4, 79, 100
6, 26609, Note_on_c, 4, 79, 0
6, 26610, Note_on_c, 4, 77, 100
6, 26639, Note_on_c, 4, 77, 0
6, 26640, Note_on_c, 4, 75, 100
6, 26669, Note_on_c, 4, 75, 0
6, 26670, Note_on_c, 4, 72, 100
6, 26699, Note_on_c, 4, 72, 0
6, 26700, Note_on_c, 4, 67, 100
6, 26729, Note_on_c, 4, 67, 0
6, 26730, Note_on_c, 4, 72, 100
6, 26759, Note_on_c, 4, 72, 0
6, 26760, Note_on_c, 4, 75, 100
6, 26789, Note_on_c, 4, 75, 0
6, 26790, Note_on_c, 4, 79, 100
6, 26819, Note_on_c, 4, 79, 0
6, 26820, Note_on_c, 4, 75, 100
6, 26849, Note_on_c, 4, 75, 0
6, 26850, Note_on_c, 4, 72, 100
6, 26879, Note_on_c, 4, 72, 0
6, 26880, Note_on_c, 4, 67, 100
6, 26909, Note_on_c, 4, 67, 0
6, 26910, Note_on_c, 4, 72, 100
6, 26939, Note_on_c, 4, 72, 0
6, 26940, Note_on_c, 4, 75, 100
6, 26969, Note_on_c, 4, 75, 0
6, 26970, Note_on_c, 4, 79, 100
6, 26999, Note_on_c, 4, 79, 0
6, 27000, Note_on_c, 4, 75, 100
6, 27029, Note_on_c, 4, 75, 0
6, 27030, Note_on_c, 4, 72, 100
6, 27059, Note_on_c, 4, 72, 0
6, 27060, Note_on_c, 4, 68, 100
6, 27089, Note_on_c, 4, 68, 0
6, 27090, Note_on_c, 4, 72, 100
6, 27119, Note_on_c, 4, 72, 0
6, 27120, Note_on_c, 4, 75, 100
6, 27149, Note_on_c, 4, 75, 0
6, 27150, Note_on_c, 4, 80, 100
6, 27179, Note_on_c, 4, 80, 0
6, 27180, Note_on_c, 4, 75, 100
6, 27209, Note_on_c, 4, 75, 0
6, 27210, Note_on_c, 4, 72, 100
6, 27239, Note_on_c, 4, 72, 0
6, 27240, Note_on_c, 4, 68, 100
6, 27269, Note_on_c, 4, 68, 0
6, 27270, Note_on_c, 4, 72, 100
6, 27299, Note_on_c, 4, 72, 0
6, 27300, Note_on_c, 4, 75, 100
6, 27329, Note_on_c, 4, 75, 0
6, 27330, Note_on_c, 4, 80, 100
6, 27359, Note_on_c, 4, 80, 0
6, 27360, Note_on_c, 4, 75, 100
6, 27389, Note_on_c, 4, 75, 0
6, 27390, Note_on_c, 4, 72, 100
6, 27419, Note_on_c, 4, 72, 0
6, 27420, Note_on_c, 4, 69, 100
6, 27449, Note_on_c, 4, 69, 0
6, 27450, Note_on_c, 4, 72, 100
6, 27479, Note_on_c, 4, 72, 0
6, 27480, Note_on_c, 4, 75, 100
6, 27509, Note_on_c, 4, 75, 0
6, 27510, Note_on_c, 4, 78, 100
6, 27539, Note_on_c, 4, 78, 0
6, 27540, Note_on_c, 4, 75, 100
6, 27569, Note_on_c, 4, 75, 0
6, 27570, Note_on_c, 4, 72, 100
6, 27599, Note_on_c, 4, 72, 0
6, 27600, Note_on_c, 4, 69, 100
6, 27629, Note_on_c, 4, 69, 0
6, 27630, Note_on_c, 4, 72, 100
6, 27659, Note_on_c, 4, 72, 0
6, 27660, Note_on_c, 4, 75, 100
6, 27689, Note_on_c, 4, 75, 0
6, 27690, Note_on_c, 4, 78, 100
6, 27719, Note_on_c, 4, 78, 0
6, 27720, Note_on_c, 4, 76, 100
6, 27749, Note_on_c, 4, 76, 0
6, 27750, Note_on_c, 4, 73, 100
6, 27779, Note_on_c, 4, 73, 0
6, 27780, Note_on_c, 4, 70, 100
6, 27809, Note_on_c, 4, 70, 0
6, 27810, Note_on_c, 4, 73, 100
6, 27839, Note_on_c, 4, 73, 0
6, 27840, Note_on_c, 4, 76, 100
6, 27869, Note_on_c, 4, 76, 0
6, 27870, Note_on_c, 4, 79, 100
6, 27899, Note_on_c, 4, 79, 0
6, 27900, Note_on_c, 4, 76, 100
6, 27929, Note_on_c, 4, 76, 0
6, 27930, Note_on_c, 4, 73, 100
6, 27959, Note_on_c, 4, 73, 0
6, 27960, Note_on_c, 4, 70, 100
6, 27989, Note_on_c, 4, 70, 0
6, 27990, Note_on_c, 4, 73, 100
6, 28019, Note_on_c, 4, 73, 0
6, 28020, Note_on_c, 4, 76, 100
6, 28049, Note_on_c, 4, 76, 0
6, 28050, Note_on_c, 4, 79, 100
6, 28079, Note_on_c, 4, 79, 0
6, 28080, Note_on_c, 4, 78, 100
6, 28109, Note_on_c, 4, 78, 0
6, 28110, Note_on_c, 4, 75, 100
6, 28139, Note_on_c, 4, 75, 0
6, 28140, Note_on_c, 4, 72, 100
6, 28169, Note_on_c, 4, 72, 0
6, 28170, Note_on_c, 4, 75, 100
6, 28199, Note_on_c, 4, 75, 0
6, 28200, Note_on_c, 4, 78, 100
6, 28229, Note_on_c, 4, 78, 0
6, 28230, Note_on_c, 4, 81, 100
6, 28259, Note_on_c, 4, 81, 0
6, 28260, Note_on_c, 4, 78, 100
6, 28289, Note_on_c, 4, 78, 0
6, 28290, Note_on_c, 4, 75, 100
6, 28319, Note_on_c, 4, 75, 0
6, 28320, Note_on_c, 4, 72, 100
6, 28349, Note_on_c, 4, 72, 0
6, 28350, Note_on_c, 4, 75, 100
6, 28379, Note_on_c, 4, 75, 0
6, 28380, Note_on_c, 4, 78, 100
6, 28409, Note_on_c, 4, 78, 0
6, 28410, Note_on_c, 4, 81, 100
6, 28439, Note_on_c, 4, 81, 0
6, 28440, Note_on_c, 4, 79, 100
6, 28469, Note_on_c, 4, 79, 0
6, 28470, Note_on_c, 4, 76, 100
6, 28499, Note_on_c, 4, 76, 0
6, 28500, Note_on_c, 4, 73, 100
6, 28529, Note_on_c, 4, 73, 0
6, 28530, Note_on_c, 4, 76, 100
6, 28559, Note_on_c, 4, 76, 0
6, 28560, Note_on_c, 4, 79, 100
6, 28589, Note_on_c, 4, 79, 0
6, 28590, Note_on_c, 4, 82, 100
6, 28619, Note_on_c, 4, 82, 0
6, 28620, Note_on_c, 4, 79, 100
6, 28649, Note_on_c, 4, 79, 0
6, 28650, Note_on_c, 4, 76, 100
6, 28679, Note_on_c, 4, 76, 0
6, 28680, Note_on_c, 4, 73, 100
6, 28709, Note_on_c, 4, 73, 0
6, 28710, Note_on_c, 4, 76, 100
6, 28739, Note_on_c, 4, 76, 0
6, 28740, Note_on_c, 4, 79, 100
6, 28769, Note_on_c, 4, 79, 0
6, 28770, Note_on_c, 4, 82, 100
6, 28799, Note_on_c, 4, 82, 0
6, 28800, Note_on_c, 4, 81, 100
6, 28829, Note_on_c, 4, 81, 0
6, 28830, Note_on_c, 4, 78, 100
6, 28859, Note_on_c, 4, 78, 0
6, 28860, Note_on_c, 4, 75, 100
6, 28889, Note_on_c, 4, 75, 0
6, 28890, Note_on_c, 4, 78, 100
6, 28919, Note_on_c, 4, 78, 0
6, 28920, Note_on_c, 4, 81, 100
6, 28949, Note_on_c, 4, 81, 0
6, 28950, Note_on_c, 4, 84, 100
6, 28979, Note_on_c, 4, 84, 0
6, 28980, Note_on_c, 4, 81, 100
6, 29009, Note_on_c, 4, 81, 0
6, 29010, Note_on_c, 4, 78, 100
6, 29039, Note_on_c, 4, 78, 0
6, 29040, Note_on_c, 4, 75, 100
6, 29069, Note_on_c, 4, 75, 0
6, 29070, Note_on_c, 4, 78, 100
6, 29099, Note_on_c, 4, 78, 0
6, 29100, Note_on_c, 4, 81, 100
6, 29129, Note_on_c, 4, 81, 0
6, 29130, Note_on_c, 4, 84, 100
6, 29159, Note_on_c, 4, 84, 0
6, 29160, Note_on_c, 4, 82, 100
6, 29189, Note_on_c, 4, 82, 0
6, 29190, Note_on_c, 4, 78, 100
6, 29219, Note_on_c, 4, 78, 0
6, 29220, Note_on_c, 4, 79, 100
6, 29249, Note_on_c, 4, 79, 0
6, 29250, Note_on_c, 4, 77, 100
6, 29264, Note_on_c, 4, 77, 0
6, 29265, Note_on_c, 4, 75, 100
6, 29279, Note_on_c, 4, 75, 0
6, 29280, Note_on_c, 4, 74, 100
6, 29294, Note_on_c, 4, 74, 0
6, 29295, Note_on_c, 4, 72, 100
6, 29309, Note_on_c, 4, 72, 0
6, 29310, Note_on_c, 4, 70, 100
6, 29324, Note_on_c, 4, 70, 0
6, 29325, Note_on_c, 4, 69, 100
6, 29339, Note_on_c, 4, 69, 0
6, 29340, Note_on_c, 4, 67, 100
6, 29369, Note_on_c, 4, 67, 0
6, 29370, Note_on_c, 4, 70, 100
6, 29399, Note_on_c, 4, 70, 0
6, 29400, Note_on_c, 4, 74, 100
6, 29429, Note_on_c, 4, 74, 0
6, 29430, Note_on_c, 4, 79, 100
6, 29459, Note_on_c, 4, 79, 0
6, 29460, Note_on_c, 4, 69, 100
6, 29489, Note_on_c, 4, 69, 0
6, 29490, Note_on_c, 4, 79, 100
6, 29519, Note_on_c, 4, 79, 0
6, 29520, Note_on_c, 4, 78, 100
6, 29549, Note_on_c, 4, 78, 0
6, 29550, Note_on_c, 4, 74, 100
6, 29579, Note_on_c, 4, 74, 0
6, 29580, Note_on_c, 4, 72, 100
6, 29609, Note_on_c, 4, 72, 0
6, 29610, Note_on_c, 4, 70, 100
6, 29639, Note_on_c, 4, 70, 0
6, 29640, Note_on_c, 4, 72, 100
6, 29669, Note_on_c, 4, 72, 0
6, 29670, Note_on_c, 4, 67, 100
6, 29699, Note_on_c, 4, 67, 0
6, 29700, Note_on_c, 4, 66, 100
6, 29729, Note_on_c, 4, 66, 0
6, 29730, Note_on_c, 4, 69, 100
6, 29759, Note_on_c, 4, 69, 0
6, 29760, Note_on_c, 4, 72, 100
6, 29789, Note_on_c, 4, 72, 0
6, 29790, Note_on_c, 4, 75, 100
6, 29819, Note_on_c, 4, 75, 0
6, 29820, Note_on_c, 4, 72, 100
6, 29849, Note_on_c, 4, 72, 0
6, 29850, Note_on_c, 4, 69, 100
6, 29879, Note_on_c, 4, 69, 0
6, 29880, Note_on_c, 4, 63, 100
6, 29909, Note_on_c, 4, 63, 0
6, 29910, Note_on_c, 4, 66, 100
6, 29939, Note_on_c, 4, 66, 0
6, 29940, Note_on_c, 4, 69, 100
6, 29969, Note_on_c, 4, 69, 0
6, 29970, Note_on_c, 4, 72, 100
6, 29999, Note_on_c, 4, 72, 0
6, 30000, Note_on_c, 4, 69, 100
6, 30029, Note_on_c, 4, 69, 0
6, 30030, Note_on_c, 4, 66, 100
6, 30059, Note_on_c, 4, 66, 0
6, 30060, Note_on_c, 4, 63, 100
6, 30089, Note_on_c, 4, 63, 0
6, 30090, Note_on_c, 4, 66, 100
6, 30119, Note_on_c, 4, 66, 0
6, 30120, Note_on_c, 4, 69, 100
6, 30149, Note_on_c, 4, 69, 0
6, 30150, Note_on_c, 4, 72, 100
6, 30179, Note_on_c, 4, 72, 0
6, 30180, Note_on_c, 4, 67, 100
6, 30209, Note_on_c, 4, 67, 0
6, 30210, Note_on_c, 4, 70, 100
6, 30239, Note_on_c, 4, 70, 0
6, 30240, Note_on_c, 4, 60, 100
6, 30269, Note_on_c, 4, 60, 0
6, 30270, Note_on_c, 4, 63, 100
6, 30299, Note_on_c, 4, 63, 0
6, 30300, Note_on_c, 4, 66, 100
6, 30329, Note_on_c, 4, 66, 0
6, 30330, Note_on_c, 4, 69, 100
6, 30359, Note_on_c, 4, 69, 0
6, 30360, Note_on_c, 4, 66, 100
6, 30389, Note_on_c, 4, 66, 0
6, 30390, Note_on_c, 4, 63, 100
6, 30419, Note_on_c, 4, 63, 0
6, 30420, Note_on_c, 4, 60, 100
6, 30449, Note_on_c, 4, 60, 0
6, 30450, Note_on_c, 4, 63, 100
6, 30479, Note_on_c, 4, 63, 0
6, 30480, Note_on_c, 4, 66, 100
6, 30509, Note_on_c, 4, 66, 0
6, 30510, Note_on_c, 4, 69, 100
6, 30539, Note_on_c, 4, 69, 0
6, 30540, Note_on_c, 4, 62, 100
6, 30569, Note_on_c, 4, 62, 0
6, 30570, Note_on_c, 4, 67, 100
6, 30599, Note_on_c, 4, 67, 0
6, 30600, Note_on_c, 4, 63, 100
6, 30629, Note_on_c, 4, 63, 0
6, 30630, Note_on_c, 4, 60, 100
6, 30659, Note_on_c, 4, 60, 0
6, 30660, Note_on_c, 4, 57, 100
6, 30689, Note_on_c, 4, 57, 0
6, 30690, Note_on_c, 4, 60, 100
6, 30719, Note_on_c, 4, 60, 0
6, 30720, Note_on_c, 4, 54, 100
6, 30749, Note_on_c, 4, 54, 0
6, 30750, Note_on_c, 4, 60, 100
6, 30779, Note_on_c, 4, 60, 0
6, 30780, Note_on_c, 4, 58, 100
6, 30809, Note_on_c, 4, 58, 0
6, 30810, Note_on_c, 4, 62, 100
6, 30839, Note_on_c, 4, 62, 0
6, 30840, Note_on_c, 4, 55, 100
6, 30869, Note_on_c, 4, 55, 0
6, 30870, Note_on_c, 4, 58, 100
6, 30899, Note_on_c, 4, 58, 0
6, 30900, Note_on_c, 4, 60, 100
6, 30929, Note_on_c, 4, 60, 0
6, 30930, Note_on_c, 4, 63, 100
6, 30959, Note_on_c, 4, 63, 0
6, 30960, Note_on_c, 4, 57, 100
6, 30989, Note_on_c, 4, 57, 0
6, 30990, Note_on_c, 4, 60, 100
6, 31019, Note_on_c, 4, 60, 0
6, 31020, Note_on_c, 4, 53, 100
6, 31049, Note_on_c, 4, 53, 0
6, 31050, Note_on_c, 4, 60, 100
6, 31079, Note_on_c, 4, 60, 0
6, 31080, Note_on_c, 4, 62, 100
6, 31109, Note_on_c, 4, 62, 0
6, 31110, Note_on_c, 4, 63, 100
6, 31139, Note_on_c, 4, 63, 0
6, 31140, Note_on_c, 4, 65, 100
6, 31169, Note_on_c, 4, 65, 0
6, 31170, Note_on_c, 4, 62, 100
6, 31199, Note_on_c, 4, 62, 0
6, 31200, Note_on_c, 4, 59, 100
6, 31229, Note_on_c, 4, 59, 0
6, 31230, Note_on_c, 4, 62, 100
6, 31259, Note_on_c, 4, 62, 0
6, 31260, Note_on_c, 4, 55, 100
6, 31289, Note_on_c, 4, 55, 0
6, 31290, Note_on_c, 4, 65, 100
6, 31319, Note_on_c, 4, 65, 0
6, 31320, Note_on_c, 4, 63, 100
6, 31349, Note_on_c, 4, 63, 0
6, 31350, Note_on_c, 4, 67, 100
6, 31379, Note_on_c, 4, 67, 0
6, 31380, Note_on_c, 4, 60, 100
6, 31409, Note_on_c, 4, 60, 0
6, 31410, Note_on_c, 4, 67, 100
6, 31439, Note_on_c, 4, 67, 0
6, 31440, Note_on_c, 4, 69, 100
6, 31469, Note_on_c, 4, 69, 0
6, 31470, Note_on_c, 4, 70, 100
6, 31499, Note_on_c, 4, 70, 0
6, 31500, Note_on_c, 4, 72, 100
6, 31529, Note_on_c, 4, 72, 0
6, 31530, Note_on_c, 4, 69, 100
6, 31559, Note_on_c, 4, 69, 0
6, 31560, Note_on_c, 4, 66, 100
6, 31589, Note_on_c, 4, 66, 0
6, 31590, Note_on_c, 4, 69, 100
6, 31619, Note_on_c, 4, 69, 0
6, 31620, Note_on_c, 4, 62, 100
6, 31649, Note_on_c, 4, 62, 0
6, 31650, Note_on_c, 4, 72, 100
6, 31679, Note_on_c, 4, 72, 0
6, 31680, Note_on_c, 4, 70, 100
6, 31709, Note_on_c, 4, 70, 0
6, 31710, Note_on_c, 4, 74, 100
6, 31739, Note_on_c, 4, 74, 0
6, 31740, Note_on_c, 4, 67, 100
6, 31769, Note_on_c, 4, 67, 0
6, 31770, Note_on_c, 4, 74, 100
6, 31799, Note_on_c, 4, 74, 0
6, 31800, Note_on_c, 4, 76, 100
6, 31829, Note_on_c, 4, 76, 0
6, 31830, Note_on_c, 4, 77, 100
6, 31859, Note_on_c, 4, 77, 0
6, 31860, Note_on_c, 4, 79, 100
6, 31889, Note_on_c, 4, 79, 0
6, 31890, Note_on_c, 4, 76, 100
6, 31919, Note_on_c, 4, 76, 0
6, 31920, Note_on_c, 4, 73, 100
6, 31949, Note_on_c, 4, 73, 0
6, 31950, Note_on_c, 4, 76, 100
6, 31979, Note_on_c, 4, 76, 0
6, 31980, Note_on_c, 4, 69, 100
6, 32009, Note_on_c, 4, 69, 0
6, 32010, Note_on_c, 4, 79, 100
6, 32039, Note_on_c, 4, 79, 0
6, 32040, Note_on_c, 4, 77, 100
6, 32069, Note_on_c, 4, 77, 0
6, 32070, Note_on_c, 4, 81, 100
6, 32099, Note_on_c, 4, 81, 0
6, 32100, Note_on_c, 4, 74, 100
6, 32129, Note_on_c, 4, 74, 0
6, 32130, Note_on_c, 4, 77, 100
6, 32159, Note_on_c, 4, 77, 0
6, 32160, Note_on_c, 4, 78, 100
6, 32189, Note_on_c, 4, 78, 0
6, 32190, Note_on_c, 4, 72, 100
6, 32219, Note_on_c, 4, 72, 0
6, 32220, Note_on_c, 4, 71, 100
6, 32249, Note_on_c, 4, 71, 0
6, 32250, Note_on_c, 4, 74, 100
6, 32279, Note_on_c, 4, 74, 0
6, 32280, Note_on_c, 4, 67, 100
6, 32309, Note_on_c, 4, 67, 0
6, 32310, Note_on_c, 4, 74, 100
6, 32339, Note_on_c, 4, 74, 0
6, 32340, Note_on_c, 4, 79, 100
6, 32369, Note_on_c, 4, 79, 0
6, 32370, Note_on_c, 4, 77, 100
6, 32399, Note_on_c, 4, 77, 0
6, 32400, Note_on_c, 4, 75, 100
6, 32429, Note_on_c, 4, 75, 0
6, 32430, Note_on_c, 4, 79, 100
6, 32459, Note_on_c, 4, 79, 0
6, 32460, Note_on_c, 4, 72, 100
6, 32489, Note_on_c, 4, 72, 0
6, 32490, Note_on_c, 4, 75, 100
6, 32519, Note_on_c, 4, 75, 0
6, 32520, Note_on_c, 4, 79, 100
6, 32549, Note_on_c, 4, 79, 0
6, 32550, Note_on_c, 4, 70, 100
6, 32579, Note_on_c, 4, 70, 0
6, 32580, Note_on_c, 4, 69, 100
6, 32609, Note_on_c, 4, 69, 0
6, 32610, Note_on_c, 4, 72, 100
6, 32639, Note_on_c, 4, 72, 0
6, 32640, Note_on_c, 4, 65, 100
6, 32669, Note_on_c, 4, 65, 0
6, 32670, Note_on_c, 4, 72, 100
6, 32699, Note_on_c, 4, 72, 0
6, 32700, Note_on_c, 4, 77, 100
6, 32729, Note_on_c, 4, 77, 0
6, 32730, Note_on_c, 4, 75, 100
6, 32759, Note_on_c, 4, 75, 0
6, 32760, Note_on_c, 4, 74, 100
6, 32789, Note_on_c, 4, 74, 0
6, 32790, Note_on_c, 4, 77, 100
6, 32819, Note_on_c, 4, 77, 0
6, 32820, Note_on_c, 4, 70, 100
6, 32849, Note_on_c, 4, 70, 0
6, 32850, Note_on_c, 4, 74, 100
6, 32879, Note_on_c, 4, 74, 0
6, 32880, Note_on_c, 4, 77, 100
6, 32909, Note_on_c, 4, 77, 0
6, 32910, Note_on_c, 4, 68, 100
6, 32939, Note_on_c, 4, 68, 0
6, 32940, Note_on_c, 4, 67, 100
6, 32969, Note_on_c, 4, 67, 0
6, 32970, Note_on_c, 4, 70, 100
6, 32999, Note_on_c, 4, 70, 0
6, 33000, Note_on_c, 4, 63, 100
6, 33029, Note_on_c, 4, 63, 0
6, 33030, Note_on_c, 4, 67, 100
6, 33059, Note_on_c, 4, 67, 0
6, 33060, Note_on_c, 4, 70, 100
6, 33089, Note_on_c, 4, 70, 0
6, 33090, Note_on_c, 4, 62, 100
6, 33119, Note_on_c, 4, 62, 0
6, 33120, Note_on_c, 4, 61, 100
6, 33149, Note_on_c, 4, 61, 0
6, 33150, Note_on_c, 4, 64, 100
6, 33179, Note_on_c, 4, 64, 0
6, 33180, Note_on_c, 4, 67, 100
6, 33209, Note_on_c, 4, 67, 0
6, 33210, Note_on_c, 4, 70, 100
6, 33239, Note_on_c, 4, 70, 0
6, 33240, Note_on_c, 4, 69, 100
6, 33269, Note_on_c, 4, 69, 0
6, 33270, Note_on_c, 4, 67, 100
6, 33299, Note_on_c, 4, 67, 0
6, 33300, Note_on_c, 4, 66, 100
6, 33329, Note_on_c, 4, 66, 0
6, 33330, Note_on_c, 4, 69, 100
6, 33359, Note_on_c, 4, 69, 0
6, 33360, Note_on_c, 4, 72, 100
6, 33389, Note_on_c, 4, 72, 0
6, 33390, Note_on_c, 4, 75, 100
6, 33419, Note_on_c, 4, 75, 0
6, 33420, Note_on_c, 4, 74, 100
6, 33449, Note_on_c, 4, 74, 0
6, 33450, Note_on_c, 4, 72, 100
6, 33479, Note_on_c, 4, 72, 0
6, 33480, Note_on_c, 4, 70, 100
6, 33509, Note_on_c, 4, 70, 0
6, 33510, Note_on_c, 4, 66, 100
6, 33539, Note_on_c, 4, 66, 0
6, 33540, Note_on_c, 4, 67, 100
6, 33569, Note_on_c, 4, 67, 0
6, 33570, Note_on_c, 4, 62, 100
6, 33599, Note_on_c, 4, 62, 0
6, 33600, Note_on_c, 4, 60, 100
6, 33629, Note_on_c, 4, 60, 0
6, 33630, Note_on_c, 4, 58, 100
6, 33659, Note_on_c, 4, 58, 0
6, 33660, Note_on_c, 4, 57, 100
6, 33689, Note_on_c, 4, 57, 0
6, 33690, Note_on_c, 4, 55, 100
6, 33719, Note_on_c, 4, 55, 0
6, 33720, Note_on_c, 4, 50, 100
6, 33749, Note_on_c, 4, 50, 0
6, 33750, Note_on_c, 4, 55, 100
6, 33779, Note_on_c, 4, 55, 0
6, 33780, Note_on_c, 4, 67, 100
6, 33809, Note_on_c, 4, 67, 0
6, 33810, Note_on_c, 4, 66, 100
6, 33839, Note_on_c, 4, 66, 0
6, 33840, Note_on_c, 4, 67, 100
6, 33869, Note_on_c, 4, 67, 0
6, 33870, Note_on_c, 4, 67, 100
6, 33899, Note_on_c, 4, 67, 0
6, 33900, Note_on_c, 4, 70, 100
6, 33929, Note_on_c, 4, 70, 0
6, 33930, Note_on_c, 4, 74, 100
6, 33959, Note_on_c, 4, 74, 0
6, 33960, Note_on_c, 4, 79, 100
6, 33989, Note_on_c, 4, 79, 0
6, 33990, Note_on_c, 4, 78, 100
6, 34019, Note_on_c, 4, 78, 0
6, 34020, Note_on_c, 4, 79, 100
6, 34079, Note_on_c, 4, 79, 0
6, 34080, Note_on_c, 4, 86, 100
6, 34080, Note_on_c, 4, 82, 100
6, 34139, Note_on_c, 4, 82, 0
6, 34139, Note_on_c, 4, 86, 0
6, 34140, Note_on_c, 4, 81, 100
6, 34140, Note_on_c, 4, 84, 100
6, 34199, Note_on_c, 4, 84, 0
6, 34199, Note_on_c, 4, 81, 0
6, 34200, Note_on_c, 4, 79, 100
6, 34200, Note_on_c, 4, 82, 100
6, 34229, Note_on_c, 4, 82, 0
6, 34229, Note_on_c, 4, 79, 0
6, 34230, Note_on_c, 4, 86, 100
6, 34259, Note_on_c, 4, 86, 0
6, 34260, Note_on_c, 4, 84, 100
6, 34289, Note_on_c, 4, 84, 0
6, 34290, Note_on_c, 4, 82, 100
6, 34319, Note_on_c, 4, 82, 0
6, 34320, Note_on_c, 4, 81, 100
6, 34349, Note_on_c, 4, 81, 0
6, 34350, Note_on_c, 4, 79, 100
6, 34379, Note_on_c, 4, 79, 0
6, 34380, Note_on_c, 4, 78, 100
6, 34409, Note_on_c, 4, 78, 0
6, 34410, Note_on_c, 4, 76, 100
6, 34439, Note_on_c, 4, 76, 0
6, 34440, Note_on_c, 4, 78, 100
6, 34469, Note_on_c, 4, 78, 0
6, 34470, Note_on_c, 4, 79, 100
6, 34499, Note_on_c, 4, 79, 0
6, 34500, Note_on_c, 4, 78, 100
6, 34529, Note_on_c, 4, 78, 0
6, 34530, Note_on_c, 4, 79, 100
6, 34559, Note_on_c, 4, 79, 0
6, 34560, Note_on_c, 4, 81, 100
6, 34589, Note_on_c, 4, 81, 0
6, 34590, Note_on_c, 4, 79, 100
6, 34619, Note_on_c, 4, 79, 0
6, 34620, Note_on_c, 4, 78, 100
6, 34649, Note_on_c, 4, 78, 0
6, 34650, Note_on_c, 4, 76, 100
6, 34679, Note_on_c, 4, 76, 0
6, 34680, Note_on_c, 4, 74, 100
6, 34709, Note_on_c, 4, 74, 0
6, 34710, Note_on_c, 4, 76, 100
6, 34739, Note_on_c, 4, 76, 0
6, 34740, Note_on_c, 4, 78, 100
6, 34769, Note_on_c, 4, 78, 0
6, 34770, Note_on_c, 4, 79, 100
6, 34799, Note_on_c, 4, 79, 0
6, 34800, Note_on_c, 4, 78, 100
6, 34829, Note_on_c, 4, 78, 0
6, 34830, Note_on_c, 4, 76, 100
6, 34859, Note_on_c, 4, 76, 0
6, 34860, Note_on_c, 4, 74, 100
6, 34889, Note_on_c, 4, 74, 0
6, 34890, Note_on_c, 4, 76, 100
6, 34919, Note_on_c, 4, 76, 0
6, 34920, Note_on_c, 4, 78, 100
6, 34949, Note_on_c, 4, 78, 0
6, 34950, Note_on_c, 4, 81, 100
6, 34979, Note_on_c, 4, 81, 0
6, 34980, Note_on_c, 4, 74, 100
6, 35009, Note_on_c, 4, 74, 0
6, 35010, Note_on_c, 4, 76, 100
6, 35039, Note_on_c, 4, 76, 0
6, 35040, Note_on_c, 4, 78, 100
6, 35069, Note_on_c, 4, 78, 0
6, 35070, Note_on_c, 4, 79, 100
6, 35099, Note_on_c, 4, 79, 0
6, 35100, Note_on_c, 4, 81, 100
6, 35159, Note_on_c, 4, 81, 0
6, 35160, Note_on_c, 4, 81, 100
6, 35189, Note_on_c, 4, 81, 0
6, 35190, Note_on_c, 4, 82, 100
6, 35219, Note_on_c, 4, 82, 0
6, 35220, Note_on_c, 4, 82, 100
6, 35229, Note_on_c, 4, 82, 0
6, 35230, Note_on_c, 4, 84, 100
6, 35239, Note_on_c, 4, 84, 0
6, 35240, Note_on_c, 4, 82, 100
6, 35249, Note_on_c, 4, 82, 0
6, 35250, Note_on_c, 4, 81, 100
6, 35264, Note_on_c, 4, 81, 0
6, 35265, Note_on_c, 4, 82, 100
6, 35279, Note_on_c, 4, 82, 0
6, 35280, Note_on_c, 4, 84, 100
6, 35309, Note_on_c, 4, 84, 0
6, 35310, Note_on_c, 4, 81, 100
6, 35339, Note_on_c, 4, 81, 0
6, 35340, Note_on_c, 4, 78, 100
6, 35369, Note_on_c, 4, 78, 0
6, 35370, Note_on_c, 4, 79, 100
6, 35399, Note_on_c, 4, 79, 0
6, 35400, Note_on_c, 4, 81, 100
6, 35429, Note_on_c, 4, 81, 0
6, 35430, Note_on_c, 4, 75, 100
6, 35459, Note_on_c, 4, 75, 0
6, 35460, Note_on_c, 4, 72, 100
6, 35489, Note_on_c, 4, 72, 0
6, 35490, Note_on_c, 4, 74, 100
6, 35519, Note_on_c, 4, 74, 0
6, 35520, Note_on_c, 4, 75, 100
6, 35549, Note_on_c, 4, 75, 0
6, 35550, Note_on_c, 4, 72, 100
6, 35579, Note_on_c, 4, 72, 0
6, 35580, Note_on_c, 4, 69, 100
6, 35609, Note_on_c, 4, 69, 0
6, 35610, Note_on_c, 4, 70, 100
6, 35639, Note_on_c, 4, 70, 0
6, 35640, Note_on_c, 4, 72, 100
6, 35669, Note_on_c, 4, 72, 0
6, 35670, Note_on_c, 4, 69, 100
6, 35699, Note_on_c, 4, 69, 0
6, 35700, Note_on_c, 4, 66, 100
6, 35729, Note_on_c, 4, 66, 0
6, 35730, Note_on_c, 4, 67, 100
6, 35759, Note_on_c, 4, 67, 0
6, 35760, Note_on_c, 4, 69, 100
6, 35789, Note_on_c, 4, 69, 0
6, 35790, Note_on_c, 4, 66, 100
6, 35819, Note_on_c, 4, 66, 0
6, 35820, Note_on_c, 4, 62, 100
6, 35849, Note_on_c, 4, 62, 0
6, 35850, Note_on_c, 4, 64, 100
6, 35864, Note_on_c, 4, 64, 0
6, 35865, Note_on_c, 4, 66, 100
6, 35879, Note_on_c, 4, 66, 0
6, 35880, Note_on_c, 4, 67, 100
6, 35894, Note_on_c, 4, 67, 0
6, 35895, Note_on_c, 4, 66, 100
6, 35909, Note_on_c, 4, 66, 0
6, 35910, Note_on_c, 4, 67, 100
6, 35924, Note_on_c, 4, 67, 0
6, 35925, Note_on_c, 4, 69, 100
6, 35939, Note_on_c, 4, 69, 0
6, 35940, Note_on_c, 4, 70, 100
6, 35954, Note_on_c, 4, 70, 0
6, 35955, Note_on_c, 4, 69, 100
6, 35969, Note_on_c, 4, 69, 0
6, 35970, Note_on_c, 4, 70, 100
6, 35984, Note_on_c, 4, 70, 0
6, 35985, Note_on_c, 4, 72, 100
6, 35999, Note_on_c, 4, 72, 0
6, 36000, Note_on_c, 4, 74, 100
6, 36014, Note_on_c, 4, 74, 0
6, 36015, Note_on_c, 4, 67, 100
6, 36029, Note_on_c, 4, 67, 0
6, 36030, Note_on_c, 4, 69, 100
6, 36044, Note_on_c, 4, 69, 0
6, 36045, Note_on_c, 4, 70, 100
6, 36059, Note_on_c, 4, 70, 0
6, 36060, Note_on_c, 4, 72, 100
6, 36074, Note_on_c, 4, 72, 0
6, 36075, Note_on_c, 4, 74, 100
6, 36089, Note_on_c, 4, 74, 0
6, 36090, Note_on_c, 4, 76, 100
6, 36104, Note_on_c, 4, 76, 0
6, 36105, Note_on_c, 4, 78, 100
6, 36119, Note_on_c, 4, 78, 0
6, 36120, Note_on_c, 4, 79, 100
6, 36134, Note_on_c, 4, 79, 0
6, 36135, Note_on_c, 4, 78, 100
6, 36149, Note_on_c, 4, 78, 0
6, 36150, Note_on_c, 4, 79, 100
6, 36164, Note_on_c, 4, 79, 0
6, 36165, Note_on_c, 4, 81, 100
6, 36179, Note_on_c, 4, 81, 0
6, 36180, Note_on_c, 4, 82, 100
6, 36209, Note_on_c, 4, 82, 0
6, 36210, Note_on_c, 4, 79, 100
6, 36239, Note_on_c, 4, 79, 0
6, 36240, Note_on_c, 4, 74, 100
6, 36269, Note_on_c, 4, 74, 0
6, 36270, Note_on_c, 4, 79, 100
6, 36299, Note_on_c, 4, 79, 0
6, 36300, Note_on_c, 4, 69, 100
6, 36329, Note_on_c, 4, 69, 0
6, 36330, Note_on_c, 4, 78, 100
6, 36359, Note_on_c, 4, 78, 0
6, 36360, Note_on_c, 4, 79, 100
6, 36389, Note_on_c, 4, 79, 0
6, 36390, Note_on_c, 4, 67, 100
6, 36419, Note_on_c, 4, 67, 0
6, 36420, Note_on_c, 4, 70, 100
6, 36449, Note_on_c, 4, 70, 0
6, 36450, Note_on_c, 4, 74, 100
6, 36479, Note_on_c, 4, 74, 0
6, 36480, Note_on_c, 4, 70, 100
6, 36509, Note_on_c, 4, 70, 0
6, 36510, Note_on_c, 4, 67, 100
6, 36539, Note_on_c, 4, 67, 0
6, 36540, Note_on_c, 4, 79, 100
6, 36750, Note_on_c, 4, 79, 0
6, 36750, Note_on_c, 4, 69, 100
6, 36779, Note_on_c, 4, 69, 0
6, 36780, Note_on_c, 4, 73, 100
6, 36809, Note_on_c, 4, 73, 0
6, 36810, Note_on_c, 4, 76, 100
6, 36839, Note_on_c, 4, 76, 0
6, 36840, Note_on_c, 4, 73, 100
6, 36869, Note_on_c, 4, 73, 0
6, 36870, Note_on_c, 4, 69, 100
6, 36899, Note_on_c, 4, 69, 0
6, 36900, Note_on_c, 4, 81, 100
6, 36959, Note_on_c, 4, 81, 0
6, 36960, Note_on_c, 4, 81, 100
6, 37019, Note_on_c, 4, 81, 0
6, 37020, Note_on_c, 4, 79, 100
6, 37079, Note_on_c, 4, 79, 0
6, 37080, Note_on_c, 4, 77, 100
6, 37100, Note_on_c, 4, 77, 0
6, 37100, Note_on_c, 4, 79, 100
6, 37120, Note_on_c, 4, 79, 0
6, 37120, Note_on_c, 4, 77, 100
6, 37140, Note_on_c, 4, 77, 0
6, 37140, Note_on_c, 4, 79, 100
6, 37155, Note_on_c, 4, 79, 0
6, 37155, Note_on_c, 4, 77, 100
6, 37170, Note_on_c, 4, 77, 0
6, 37170, Note_on_c, 4, 79, 100
6, 37185, Note_on_c, 4, 79, 0
6, 37185, Note_on_c, 4, 77, 100
6, 37200, Note_on_c, 4, 77, 0
6, 37200, Note_on_c, 4, 79, 100
6, 37215, Note_on_c, 4, 79, 0
6, 37215, Note_on_c, 4, 77, 100
6, 37230, Note_on_c, 4, 77, 0
6, 37230, Note_on_c, 4, 79, 100
6, 37245, Note_on_c, 4, 79, 0
6, 37245, Note_on_c, 4, 77, 100
6, 37260, Note_on_c, 4, 77, 0
6, 37260, Note_on_c, 4, 79, 100
6, 37269, Note_on_c, 4, 79, 0
6, 37270, Note_on_c, 4, 77, 100
6, 37279, Note_on_c, 4, 77, 0
6, 37280, Note_on_c, 4, 79, 100
6, 37289, Note_on_c, 4, 79, 0
6, 37290, Note_on_c, 4, 77, 100
6, 37299, Note_on_c, 4, 77, 0
6, 37300, Note_on_c, 4, 79, 100
6, 37309, Note_on_c, 4, 79, 0
6, 37310, Note_on_c, 4, 77, 100
6, 37319, Note_on_c, 4, 77, 0
6, 37320, Note_on_c, 4, 79, 100
6, 37329, Note_on_c, 4, 79, 0
6, 37330, Note_on_c, 4, 77, 100
6, 37339, Note_on_c, 4, 77, 0
6, 37340, Note_on_c, 4, 79, 100
6, 37349, Note_on_c, 4, 79, 0
6, 37350, Note_on_c, 4, 77, 100
6, 37359, Note_on_c, 4, 77, 0
6, 37360, Note_on_c, 4, 79, 100
6, 37369, Note_on_c, 4, 79, 0
6, 37370, Note_on_c, 4, 77, 100
6, 37379, Note_on_c, 4, 77, 0
6, 37380, Note_on_c, 4, 79, 100
6, 37389, Note_on_c, 4, 79, 0
6, 37390, Note_on_c, 4, 77, 100
6, 37399, Note_on_c, 4, 77, 0
6, 37400, Note_on_c, 4, 79, 100
6, 37409, Note_on_c, 4, 79, 0
6, 37410, Note_on_c, 4, 77, 100
6, 37419, Note_on_c, 4, 77, 0
6, 37420, Note_on_c, 4, 79, 100
6, 37429, Note_on_c, 4, 79, 0
6, 37430, Note_on_c, 4, 77, 100
6, 37439, Note_on_c, 4, 77, 0
6, 37440, Note_on_c, 4, 79, 100
6, 37454, Note_on_c, 4, 79, 0
6, 37455, Note_on_c, 4, 77, 100
6, 37469, Note_on_c, 4, 77, 0
6, 37470, Note_on_c, 4, 68, 100
6, 37499, Note_on_c, 4, 68, 0
6, 37500, Note_on_c, 4, 71, 100
6, 37529, Note_on_c, 4, 71, 0
6, 37530, Note_on_c, 4, 74, 100
6, 37559, Note_on_c, 4, 74, 0
6, 37560, Note_on_c, 4, 71, 100
6, 37589, Note_on_c, 4, 71, 0
6, 37590, Note_on_c, 4, 68, 100
6, 37619, Note_on_c, 4, 68, 0
6, 37620, Note_on_c, 4, 69, 100
6, 37649, Note_on_c, 4, 69, 0
6, 37650, Note_on_c, 4, 73, 100
6, 37679, Note_on_c, 4, 73, 0
6, 37680, Note_on_c, 4, 76, 100
6, 37709, Note_on_c, 4, 76, 0
6, 37710, Note_on_c, 4, 68, 100
6, 37739, Note_on_c, 4, 68, 0
6, 37740, Note_on_c, 4, 71, 100
6, 37769, Note_on_c, 4, 71, 0
6, 37770, Note_on_c, 4, 76, 100
6, 37799, Note_on_c, 4, 76, 0
6, 37800, Note_on_c, 4, 64, 100
6, 37859, Note_on_c, 4, 64, 0
6, 37860, Note_on_c, 4, 72, 100
6, 37979, Note_on_c, 4, 72, 0
6, 37995, Note_on_c, 4, 70, 100
6, 38009, Note_on_c, 4, 70, 0
6, 38010, Note_on_c, 4, 69, 100
6, 38024, Note_on_c, 4, 69, 0
6, 38025, Note_on_c, 4, 67, 100
6, 38039, Note_on_c, 4, 67, 0
6, 38040, Note_on_c, 4, 66, 100
6, 38054, Note_on_c, 4, 66, 0
6, 38055, Note_on_c, 4, 64, 100
6, 38069, Note_on_c, 4, 64, 0
6, 38070, Note_on_c, 4, 62, 100
6, 38099, Note_on_c, 4, 62, 0
6, 38100, Note_on_c, 4, 74, 100
6, 38129, Note_on_c, 4, 74, 0
6, 38130, Note_on_c, 4, 72, 100
6, 38159, Note_on_c, 4, 72, 0
6, 38160, Note_on_c, 4, 71, 100
6, 38219, Note_on_c, 4, 71, 0
6, 38220, Note_on_c, 4, 70, 100
6, 38355, Note_on_c, 4, 70, 0
6, 38355, Note_on_c, 4, 69, 100
6, 38369, Note_on_c, 4, 69, 0
6, 38370, Note_on_c, 4, 67, 100
6, 38384, Note_on_c, 4, 67, 0
6, 38385, Note_on_c, 4, 65, 100
6, 38399, Note_on_c, 4, 65, 0
6, 38400, Note_on_c, 4, 64, 100
6, 38414, Note_on_c, 4, 64, 0
6, 38415, Note_on_c, 4, 62, 100
6, 38429, Note_on_c, 4, 62, 0
6, 38430, Note_on_c, 4, 60, 100
6, 38459, Note_on_c, 4, 60, 0
6, 38460, Note_on_c, 4, 72, 100
6, 38489, Note_on_c, 4, 72, 0
6, 38490, Note_on_c, 4, 70, 100
6, 38519, Note_on_c, 4, 70, 0
6, 38520, Note_on_c, 4, 69, 100
6, 38579, Note_on_c, 4, 69, 0
6, 38580, Note_on_c, 4, 81, 100
6, 38715, Note_on_c, 4, 81, 0
6, 38715, Note_on_c, 4, 79, 100
6, 38729, Note_on_c, 4, 79, 0
6, 38730, Note_on_c, 4, 77, 100
6, 38744, Note_on_c, 4, 77, 0
6, 38745, Note_on_c, 4, 76, 100
6, 38759, Note_on_c, 4, 76, 0
6, 38760, Note_on_c, 4, 74, 100
6, 38774, Note_on_c, 4, 74, 0
6, 38775, Note_on_c, 4, 72, 100
6, 38789, Note_on_c, 4, 72, 0
6, 38790, Note_on_c, 4, 70, 100
6, 38819, Note_on_c, 4, 70, 0
6, 38820, Note_on_c, 4, 82, 100
6, 38849, Note_on_c, 4, 82, 0
6, 38850, Note_on_c, 4, 81, 100
6, 38879, Note_on_c, 4, 81, 0
6, 38880, Note_on_c, 4, 79, 100
6, 39075, Note_on_c, 4, 79, 0
6, 39075, Note_on_c, 4, 77, 100
6, 39089, Note_on_c, 4, 77, 0
6, 39090, Note_on_c, 4, 76, 100
6, 39104, Note_on_c, 4, 76, 0
6, 39105, Note_on_c, 4, 74, 100
6, 39119, Note_on_c, 4, 74, 0
6, 39120, Note_on_c, 4, 73, 100
6, 39134, Note_on_c, 4, 73, 0
6, 39135, Note_on_c, 4, 71, 100
6, 39149, Note_on_c, 4, 71, 0
6, 39150, Note_on_c, 4, 69, 100
6, 39179, Note_on_c, 4, 69, 0
6, 39180, Note_on_c, 4, 81, 100
6, 39209, Note_on_c, 4, 81, 0
6, 39210, Note_on_c, 4, 79, 100
6, 39239, Note_on_c, 4, 79, 0
6, 39240, Note_on_c, 4, 77, 100
6, 39269, Note_on_c, 4, 77, 0
6, 39270, Note_on_c, 4, 74, 100
6, 39299, Note_on_c, 4, 74, 0
6, 39300, Note_on_c, 4, 73, 100
6, 39329, Note_on_c, 4, 73, 0
6, 39330, Note_on_c, 4, 74, 100
6, 39359, Note_on_c, 4, 74, 0
6, 39360, Note_on_c, 4, 79, 100
6, 39389, Note_on_c, 4, 79, 0
6, 39390, Note_on_c, 4, 74, 100
6, 39419, Note_on_c, 4, 74, 0
6, 39420, Note_on_c, 4, 81, 100
6, 39449, Note_on_c, 4, 81, 0
6, 39450, Note_on_c, 4, 74, 100
6, 39479, Note_on_c, 4, 74, 0
6, 39480, Note_on_c, 4, 79, 100
6, 39509, Note_on_c, 4, 79, 0
6, 39510, Note_on_c, 4, 74, 100
6, 39539, Note_on_c, 4, 74, 0
6, 39540, Note_on_c, 4, 77, 100
6, 39569, Note_on_c, 4, 77, 0
6, 39570, Note_on_c, 4, 74, 100
6, 39599, Note_on_c, 4, 74, 0
6, 39600, Note_on_c, 4, 79, 100
6, 39629, Note_on_c, 4, 79, 0
6, 39630, Note_on_c, 4, 74, 100
6, 39659, Note_on_c, 4, 74, 0
6, 39660, Note_on_c, 4, 73, 100
6, 39689, Note_on_c, 4, 73, 0
6, 39690, Note_on_c, 4, 74, 100
6, 39719, Note_on_c, 4, 74, 0
6, 39720, Note_on_c, 4, 81, 100
6, 39749, Note_on_c, 4, 81, 0
6, 39750, Note_on_c, 4, 74, 100
6, 39779, Note_on_c, 4, 74, 0
6, 39780, Note_on_c, 4, 82, 100
6, 39809, Note_on_c, 4, 82, 0
6, 39810, Note_on_c, 4, 74, 100
6, 39839, Note_on_c, 4, 74, 0
6, 39840, Note_on_c, 4, 81, 100
6, 39869, Note_on_c, 4, 81, 0
6, 39870, Note_on_c, 4, 74, 100
6, 39899, Note_on_c, 4, 74, 0
6, 39900, Note_on_c, 4, 79, 100
6, 39929, Note_on_c, 4, 79, 0
6, 39930, Note_on_c, 4, 74, 100
6, 39959, Note_on_c, 4, 74, 0
6, 39960, Note_on_c, 4, 81, 100
6, 39989, Note_on_c, 4, 81, 0
6, 39990, Note_on_c, 4, 74, 100
6, 40019, Note_on_c, 4, 74, 0
6, 40020, Note_on_c, 4, 73, 100
6, 40049, Note_on_c, 4, 73, 0
6, 40050, Note_on_c, 4, 74, 100
6, 40079, Note_on_c, 4, 74, 0
6, 40080, Note_on_c, 4, 82, 100
6, 40109, Note_on_c, 4, 82, 0
6, 40110, Note_on_c, 4, 74, 100
6, 40139, Note_on_c, 4, 74, 0
6, 40140, Note_on_c, 4, 84, 100
6, 40169, Note_on_c, 4, 84, 0
6, 40170, Note_on_c, 4, 74, 100
6, 40199, Note_on_c, 4, 74, 0
6, 40200, Note_on_c, 4, 82, 100
6, 40229, Note_on_c, 4, 82, 0
6, 40230, Note_on_c, 4, 74, 100
6, 40259, Note_on_c, 4, 74, 0
6, 40260, Note_on_c, 4, 81, 100
6, 40289, Note_on_c, 4, 81, 0
6, 40290, Note_on_c, 4, 74, 100
6, 40319, Note_on_c, 4, 74, 0
6, 40320, Note_on_c, 4, 82, 100
6, 40334, Note_on_c, 4, 82, 0
6, 40335, Note_on_c, 4, 79, 100
6, 40349, Note_on_c, 4, 79, 0
6, 40350, Note_on_c, 4, 74, 100
6, 40364, Note_on_c, 4, 74, 0
6, 40365, Note_on_c, 4, 70, 80
6, 40379, Note_on_c, 4, 70, 0
6, 40380, Note_on_c, 4, 67, 100
6, 40394, Note_on_c, 4, 67, 0
6, 40395, Note_on_c, 4, 70, 100
6, 40409, Note_on_c, 4, 70, 0
6, 40410, Note_on_c, 4, 74, 100
6, 40424, Note_on_c, 4, 74, 0
6, 40425, Note_on_c, 4, 79, 100
6, 40439, Note_on_c, 4, 79, 0
6, 40440, Note_on_c, 4, 82, 100
6, 40454, Note_on_c, 4, 82, 0
6, 40455, Note_on_c, 4, 86, 100
6, 40469, Note_on_c, 4, 86, 0
6, 40470, Note_on_c, 4, 82, 100
6, 40484, Note_on_c, 4, 82, 0
6, 40485, Note_on_c, 4, 79, 100
6, 40499, Note_on_c, 4, 79, 0
6, 40500, Note_on_c, 4, 81, 100
6, 40514, Note_on_c, 4, 81, 0
6, 40515, Note_on_c, 4, 77, 100
6, 40529, Note_on_c, 4, 77, 0
6, 40530, Note_on_c, 4, 74, 100
6, 40544, Note_on_c, 4, 74, 0
6, 40545, Note_on_c, 4, 69, 100
6, 40559, Note_on_c, 4, 69, 0
6, 40560, Note_on_c, 4, 65, 100
6, 40574, Note_on_c, 4, 65, 0
6, 40575, Note_on_c, 4, 69, 100
6, 40589, Note_on_c, 4, 69, 0
6, 40590, Note_on_c, 4, 74, 100
6, 40604, Note_on_c, 4, 74, 0
6, 40605, Note_on_c, 4, 77, 100
6, 40619, Note_on_c, 4, 77, 0
6, 40620, Note_on_c, 4, 81, 100
6, 40634, Note_on_c, 4, 81, 0
6, 40635, Note_on_c, 4, 86, 100
6, 40649, Note_on_c, 4, 86, 0
6, 40650, Note_on_c, 4, 81, 100
6, 40664, Note_on_c, 4, 81, 0
6, 40665, Note_on_c, 4, 77, 100
6, 40679, Note_on_c, 4, 77, 0
6, 40680, Note_on_c, 4, 79, 100
6, 40694, Note_on_c, 4, 79, 0
6, 40695, Note_on_c, 4, 76, 100
6, 40709, Note_on_c, 4, 76, 0
6, 40710, Note_on_c, 4, 73, 100
6, 40724, Note_on_c, 4, 73, 0
6, 40725, Note_on_c, 4, 69, 100
6, 40739, Note_on_c, 4, 69, 0
6, 40740, Note_on_c, 4, 64, 100
6, 40754, Note_on_c, 4, 64, 0
6, 40755, Note_on_c, 4, 69, 100
6, 40769, Note_on_c, 4, 69, 0
6, 40770, Note_on_c, 4, 73, 100
6, 40784, Note_on_c, 4, 73, 0
6, 40785, Note_on_c, 4, 76, 100
6, 40799, Note_on_c, 4, 76, 0
6, 40800, Note_on_c, 4, 79, 100
6, 40814, Note_on_c, 4, 79, 0
6, 40815, Note_on_c, 4, 82, 100
6, 40829, Note_on_c, 4, 82, 0
6, 40830, Note_on_c, 4, 79, 100
6, 40844, Note_on_c, 4, 79, 0
6, 40845, Note_on_c, 4, 76, 100
6, 40859, Note_on_c, 4, 76, 0
6, 40860, Note_on_c, 4, 77, 100
6, 40874, Note_on_c, 4, 77, 0
6, 40875, Note_on_c, 4, 81, 100
6, 40889, Note_on_c, 4, 81, 0
6, 40890, Note_on_c, 4, 77, 100
6, 40904, Note_on_c, 4, 77, 0
6, 40905, Note_on_c, 4, 74, 100
6, 40919, Note_on_c, 4, 74, 0
6, 40920, Note_on_c, 4, 76, 100
6, 40934, Note_on_c, 4, 76, 0
6, 40935, Note_on_c, 4, 79, 100
6, 40949, Note_on_c, 4, 79, 0
6, 40950, Note_on_c, 4, 76, 100
6, 40964, Note_on_c, 4, 76, 0
6, 40965, Note_on_c, 4, 73, 100
6, 40979, Note_on_c, 4, 73, 0
6, 40980, Note_on_c, 4, 74, 100
6, 40994, Note_on_c, 4, 74, 0
6, 40995, Note_on_c, 4, 77, 100
6, 41009, Note_on_c, 4, 77, 0
6, 41010, Note_on_c, 4, 74, 100
6, 41024, Note_on_c, 4, 74, 0
6, 41025, Note_on_c, 4, 69, 100
6, 41039, Note_on_c, 4, 69, 0
6, 41040, Note_on_c, 4, 70, 100
6, 41054, Note_on_c, 4, 70, 0
6, 41055, Note_on_c, 4, 67, 100
6, 41069, Note_on_c, 4, 67, 0
6, 41070, Note_on_c, 4, 65, 100
6, 41084, Note_on_c, 4, 65, 0
6, 41085, Note_on_c, 4, 64, 100
6, 41099, Note_on_c, 4, 64, 0
6, 41100, Note_on_c, 4, 69, 100
6, 41114, Note_on_c, 4, 69, 0
6, 41115, Note_on_c, 4, 65, 100
6, 41129, Note_on_c, 4, 65, 0
6, 41130, Note_on_c, 4, 64, 100
6, 41144, Note_on_c, 4, 64, 0
6, 41145, Note_on_c, 4, 62, 100
6, 41159, Note_on_c, 4, 62, 0
6, 41160, Note_on_c, 4, 67, 100
6, 41174, Note_on_c, 4, 67, 0
6, 41175, Note_on_c, 4, 64, 100
6, 41189, Note_on_c, 4, 64, 0
6, 41190, Note_on_c, 4, 62, 100
6, 41204, Note_on_c, 4, 62, 0
6, 41205, Note_on_c, 4, 61, 100
6, 41219, Note_on_c, 4, 61, 0
6, 41220, Note_on_c, 4, 65, 100
6, 41234, Note_on_c, 4, 65, 0
6, 41235, Note_on_c, 4, 62, 100
6, 41249, Note_on_c, 4, 62, 0
6, 41250, Note_on_c, 4, 60, 100
6, 41264, Note_on_c, 4, 60, 0
6, 41265, Note_on_c, 4, 58, 100
6, 41279, Note_on_c, 4, 58, 0
6, 41460, Note_on_c, 4, 59, 100
6, 41474, Note_on_c, 4, 59, 0
6, 41475, Note_on_c, 4, 62, 100
6, 41489, Note_on_c, 4, 62, 0
6, 41490, Note_on_c, 4, 65, 100
6, 41504, Note_on_c, 4, 65, 0
6, 41505, Note_on_c, 4, 68, 100
6, 41519, Note_on_c, 4, 68, 0
6, 41520, Note_on_c, 4, 62, 100
6, 41534, Note_on_c, 4, 62, 0
6, 41535, Note_on_c, 4, 65, 100
6, 41549, Note_on_c, 4, 65, 0
6, 41550, Note_on_c, 4, 59, 100
6, 41564, Note_on_c, 4, 59, 0
6, 41565, Note_on_c, 4, 62, 100
6, 41579, Note_on_c, 4, 62, 0
6, 41580, Note_on_c, 4, 56, 100
6, 41594, Note_on_c, 4, 56, 0
6, 41595, Note_on_c, 4, 59, 100
6, 41609, Note_on_c, 4, 59, 0
6, 41610, Note_on_c, 4, 62, 100
6, 41624, Note_on_c, 4, 62, 0
6, 41625, Note_on_c, 4, 65, 100
6, 41639, Note_on_c, 4, 65, 0
6, 41640, Note_on_c, 4, 68, 100
6, 41654, Note_on_c, 4, 68, 0
6, 41655, Note_on_c, 4, 71, 100
6, 41669, Note_on_c, 4, 71, 0
6, 41670, Note_on_c, 4, 74, 100
6, 41684, Note_on_c, 4, 74, 0
6, 41685, Note_on_c, 4, 77, 100
6, 41699, Note_on_c, 4, 77, 0
6, 41700, Note_on_c, 4, 83, 100
6, 41714, Note_on_c, 4, 83, 0
6, 41715, Note_on_c, 4, 77, 100
6, 41729, Note_on_c, 4, 77, 0
6, 41730, Note_on_c, 4, 76, 100
6, 41744, Note_on_c, 4, 76, 0
6, 41745, Note_on_c, 4, 74, 100
6, 41759, Note_on_c, 4, 74, 0
6, 41760, Note_on_c, 4, 73, 100
6, 41789, Note_on_c, 4, 73, 0
6, 41790, Note_on_c, 4, 69, 100
6, 41819, Note_on_c, 4, 69, 0
6, 41820, Note_on_c, 4, 68, 100
6, 41849, Note_on_c, 4, 68, 0
6, 41850, Note_on_c, 4, 69, 100
6, 41879, Note_on_c, 4, 69, 0
6, 41880, Note_on_c, 4, 74, 100
6, 41909, Note_on_c, 4, 74, 0
6, 41910, Note_on_c, 4, 69, 100
6, 41939, Note_on_c, 4, 69, 0
6, 41940, Note_on_c, 4, 76, 100
6, 41969, Note_on_c, 4, 76, 0
6, 41970, Note_on_c, 4, 69, 100
6, 41999, Note_on_c, 4, 69, 0
6, 42000, Note_on_c, 4, 74, 100
6, 42029, Note_on_c, 4, 74, 0
6, 42030, Note_on_c, 4, 69, 100
6, 42059, Note_on_c, 4, 69, 0
6, 42060, Note_on_c, 4, 73, 100
6, 42089, Note_on_c, 4, 73, 0
6, 42090, Note_on_c, 4, 69, 100
6, 42119, Note_on_c, 4, 69, 0
6, 42120, Note_on_c, 4, 74, 100
6, 42149, Note_on_c, 4, 74, 0
6, 42150, Note_on_c, 4, 69, 100
6, 42179, Note_on_c, 4, 69, 0
6, 42180, Note_on_c, 4, 68, 100
6, 42209, Note_on_c, 4, 68, 0
6, 42210, Note_on_c, 4, 69, 100
6, 42239, Note_on_c, 4, 69, 0
6, 42240, Note_on_c, 4, 76, 100
6, 42269, Note_on_c, 4, 76, 0
6, 42270, Note_on_c, 4, 69, 100
6, 42299, Note_on_c, 4, 69, 0
6, 42300, Note_on_c, 4, 77, 100
6, 42329, Note_on_c, 4, 77, 0
6, 42330, Note_on_c, 4, 69, 100
6, 42359, Note_on_c, 4, 69, 0
6, 42360, Note_on_c, 4, 76, 100
6, 42389, Note_on_c, 4, 76, 0
6, 42390, Note_on_c, 4, 69, 100
6, 42419, Note_on_c, 4, 69, 0
6, 42420, Note_on_c, 4, 74, 100
6, 42449, Note_on_c, 4, 74, 0
6, 42450, Note_on_c, 4, 69, 100
6, 42479, Note_on_c, 4, 69, 0
6, 42480, Note_on_c, 4, 76, 100
6, 42509, Note_on_c, 4, 76, 0
6, 42510, Note_on_c, 4, 69, 100
6, 42539, Note_on_c, 4, 69, 0
6, 42540, Note_on_c, 4, 68, 100
6, 42569, Note_on_c, 4, 68, 0
6, 42570, Note_on_c, 4, 69, 100
6, 42599, Note_on_c, 4, 69, 0
6, 42600, Note_on_c, 4, 77, 100
6, 42629, Note_on_c, 4, 77, 0
6, 42630, Note_on_c, 4, 69, 100
6, 42659, Note_on_c, 4, 69, 0
6, 42660, Note_on_c, 4, 79, 100
6, 42689, Note_on_c, 4, 79, 0
6, 42690, Note_on_c, 4, 69, 100
6, 42719, Note_on_c, 4, 69, 0
6, 42720, Note_on_c, 4, 77, 100
6, 42749, Note_on_c, 4, 77, 0
6, 42750, Note_on_c, 4, 69, 100
6, 42779, Note_on_c, 4, 69, 0
6, 42780, Note_on_c, 4, 76, 100
6, 42809, Note_on_c, 4, 76, 0
6, 42810, Note_on_c, 4, 69, 100
6, 42839, Note_on_c, 4, 69, 0
6, 42840, Note_on_c, 4, 77, 100
6, 42854, Note_on_c, 4, 77, 0
6, 42855, Note_on_c, 4, 73, 100
6, 42869, Note_on_c, 4, 73, 0
6, 42870, Note_on_c, 4, 74, 100
6, 42899, Note_on_c, 4, 74, 0
6, 42900, Note_on_c, 4, 81, 100
6, 42914, Note_on_c, 4, 81, 0
6, 42915, Note_on_c, 4, 73, 100
6, 42929, Note_on_c, 4, 73, 0
6, 42930, Note_on_c, 4, 74, 100
6, 42959, Note_on_c, 4, 74, 0
6, 42960, Note_on_c, 4, 77, 100
6, 42974, Note_on_c, 4, 77, 0
6, 42975, Note_on_c, 4, 73, 100
6, 42989, Note_on_c, 4, 73, 0
6, 42990, Note_on_c, 4, 74, 100
6, 43019, Note_on_c, 4, 74, 0
6, 43020, Note_on_c, 4, 76, 100
6, 43034, Note_on_c, 4, 76, 0
6, 43035, Note_on_c, 4, 70, 100
6, 43049, Note_on_c, 4, 70, 0
6, 43050, Note_on_c, 4, 73, 100
6, 43079, Note_on_c, 4, 73, 0
6, 43080, Note_on_c, 4, 79, 100
6, 43094, Note_on_c, 4, 79, 0
6, 43095, Note_on_c, 4, 70, 100
6, 43109, Note_on_c, 4, 70, 0
6, 43110, Note_on_c, 4, 73, 100
6, 43139, Note_on_c, 4, 73, 0
6, 43140, Note_on_c, 4, 76, 100
6, 43154, Note_on_c, 4, 76, 0
6, 43155, Note_on_c, 4, 70, 100
6, 43169, Note_on_c, 4, 70, 0
6, 43170, Note_on_c, 4, 73, 100
6, 43199, Note_on_c, 4, 73, 0
6, 43200, Note_on_c, 4, 74, 100
6, 43214, Note_on_c, 4, 74, 0
6, 43215, Note_on_c, 4, 69, 100
6, 43229, Note_on_c, 4, 69, 0
6, 43230, Note_on_c, 4, 71, 100
6, 43259, Note_on_c, 4, 71, 0
6, 43260, Note_on_c, 4, 77, 100
6, 43274, Note_on_c, 4, 77, 0
6, 43275, Note_on_c, 4, 69, 100
6, 43289, Note_on_c, 4, 69, 0
6, 43290, Note_on_c, 4, 71, 100
6, 43319, Note_on_c, 4, 71, 0
6, 43320, Note_on_c, 4, 74, 100
6, 43334, Note_on_c, 4, 74, 0
6, 43335, Note_on_c, 4, 69, 100
6, 43349, Note_on_c, 4, 69, 0
6, 43350, Note_on_c, 4, 71, 100
6, 43379, Note_on_c, 4, 71, 0
6, 43380, Note_on_c, 4, 73, 100
6, 43394, Note_on_c, 4, 73, 0
6, 43395, Note_on_c, 4, 68, 100
6, 43409, Note_on_c, 4, 68, 0
6, 43410, Note_on_c, 4, 69, 100
6, 43439, Note_on_c, 4, 69, 0
6, 43440, Note_on_c, 4, 76, 100
6, 43454, Note_on_c, 4, 76, 0
6, 43455, Note_on_c, 4, 68, 100
6, 43469, Note_on_c, 4, 68, 0
6, 43470, Note_on_c, 4, 69, 100
6, 43499, Note_on_c, 4, 69, 0
6, 43500, Note_on_c, 4, 73, 100
6, 43514, Note_on_c, 4, 73, 0
6, 43515, Note_on_c, 4, 68, 100
6, 43529, Note_on_c, 4, 68, 0
6, 43530, Note_on_c, 4, 69, 100
6, 43559, Note_on_c, 4, 69, 0
6, 43560, Note_on_c, 4, 71, 100
6, 43574, Note_on_c, 4, 71, 0
6, 43575, Note_on_c, 4, 68, 100
6, 43589, Note_on_c, 4, 68, 0
6, 43590, Note_on_c, 4, 69, 100
6, 43619, Note_on_c, 4, 69, 0
6, 43620, Note_on_c, 4, 74, 100
6, 43634, Note_on_c, 4, 74, 0
6, 43635, Note_on_c, 4, 68, 100
6, 43649, Note_on_c, 4, 68, 0
6, 43650, Note_on_c, 4, 69, 100
6, 43679, Note_on_c, 4, 69, 0
6, 43680, Note_on_c, 4, 72, 100
6, 43694, Note_on_c, 4, 72, 0
6, 43695, Note_on_c, 4, 68, 100
6, 43709, Note_on_c, 4, 68, 0
6, 43710, Note_on_c, 4, 69, 100
6, 43739, Note_on_c, 4, 69, 0
6, 43740, Note_on_c, 4, 73, 100
6, 43754, Note_on_c, 4, 73, 0
6, 43755, Note_on_c, 4, 69, 100
6, 43769, Note_on_c, 4, 69, 0
6, 43770, Note_on_c, 4, 70, 100
6, 43799, Note_on_c, 4, 70, 0
6, 43800, Note_on_c, 4, 76, 100
6, 43814, Note_on_c, 4, 76, 0
6, 43815, Note_on_c, 4, 69, 100
6, 43829, Note_on_c, 4, 69, 0
6, 43830, Note_on_c, 4, 70, 100
6, 43859, Note_on_c, 4, 70, 0
6, 43860, Note_on_c, 4, 73, 100
6, 43874, Note_on_c, 4, 73, 0
6, 43875, Note_on_c, 4, 69, 100
6, 43889, Note_on_c, 4, 69, 0
6, 43890, Note_on_c, 4, 70, 100
6, 43919, Note_on_c, 4, 70, 0
6, 43920, Note_on_c, 4, 58, 100
6, 43920, Note_on_c, 4, 65, 100
6, 43920, Note_on_c, 4, 74, 100
6, 43934, Note_on_c, 4, 74, 0
6, 43935, Note_on_c, 4, 72, 100
6, 43949, Note_on_c, 4, 72, 0
6, 43950, Note_on_c, 4, 70, 100
6, 43964, Note_on_c, 4, 70, 0
6, 43965, Note_on_c, 4, 69, 100
6, 43979, Note_on_c, 4, 69, 0
6, 43980, Note_on_c, 4, 65, 0
6, 43980, Note_on_c, 4, 58, 0
6, 43980, Note_on_c, 4, 67, 100
6, 43994, Note_on_c, 4, 67, 0
6, 43995, Note_on_c, 4, 65, 100
6, 44009, Note_on_c, 4, 65, 0
6, 44010, Note_on_c, 4, 64, 100
6, 44024, Note_on_c, 4, 64, 0
6, 44025, Note_on_c, 4, 62, 100
6, 44039, Note_on_c, 4, 62, 0
6, 44040, Note_on_c, 4, 60, 100
6, 44054, Note_on_c, 4, 60, 0
6, 44055, Note_on_c, 4, 58, 100
6, 44069, Note_on_c, 4, 58, 0
6, 44070, Note_on_c, 4, 57, 100
6, 44084, Note_on_c, 4, 57, 0
6, 44085, Note_on_c, 4, 55, 100
6, 44099, Note_on_c, 4, 55, 0
6, 44460, Note_on_c, 4, 62, 100
6, 44474, Note_on_c, 4, 62, 0
6, 44475, Note_on_c, 4, 64, 100
6, 44489, Note_on_c, 4, 64, 0
6, 44490, Note_on_c, 4, 65, 100
6, 44504, Note_on_c, 4, 65, 0
6, 44505, Note_on_c, 4, 67, 100
6, 44519, Note_on_c, 4, 67, 0
6, 44520, Note_on_c, 4, 69, 100
6, 44534, Note_on_c, 4, 69, 0
6, 44535, Note_on_c, 4, 71, 100
6, 44549, Note_on_c, 4, 71, 0
6, 44550, Note_on_c, 4, 73, 100
6, 44564, Note_on_c, 4, 73, 0
6, 44565, Note_on_c, 4, 74, 100
6, 44579, Note_on_c, 4, 74, 0
6, 44580, Note_on_c, 4, 76, 100
6, 44594, Note_on_c, 4, 76, 0
6, 44595, Note_on_c, 4, 79, 100
6, 44609, Note_on_c, 4, 79, 0
6, 44610, Note_on_c, 4, 77, 100
6, 44624, Note_on_c, 4, 77, 0
6, 44625, Note_on_c, 4, 76, 100
6, 44639, Note_on_c, 4, 76, 0
6, 44640, Note_on_c, 4, 77, 100
6, 44654, Note_on_c, 4, 77, 0
6, 44655, Note_on_c, 4, 74, 100
6, 44669, Note_on_c, 4, 74, 0
6, 44670, Note_on_c, 4, 77, 100
6, 44684, Note_on_c, 4, 77, 0
6, 44685, Note_on_c, 4, 81, 100
6, 44699, Note_on_c, 4, 81, 0
6, 44700, Note_on_c, 4, 86, 100
6, 44714, Note_on_c, 4, 86, 0
6, 44715, Note_on_c, 4, 82, 100
6, 44729, Note_on_c, 4, 82, 0
6, 44730, Note_on_c, 4, 80, 100
6, 44744, Note_on_c, 4, 80, 0
6, 44745, Note_on_c, 4, 77, 100
6, 44759, Note_on_c, 4, 77, 0
6, 44760, Note_on_c, 4, 74, 100
6, 44774, Note_on_c, 4, 74, 0
6, 44775, Note_on_c, 4, 70, 100
6, 44789, Note_on_c, 4, 70, 0
6, 44790, Note_on_c, 4, 68, 100
6, 44804, Note_on_c, 4, 68, 0
6, 44805, Note_on_c, 4, 65, 100
6, 44819, Note_on_c, 4, 65, 0
6, 44820, Note_on_c, 4, 62, 100
6, 44849, Note_on_c, 4, 62, 0
6, 44850, Note_on_c, 4, 65, 100
6, 44850, Note_on_c, 4, 74, 100
6, 44879, Note_on_c, 4, 74, 0
6, 44879, Note_on_c, 4, 65, 0
6, 44880, Note_on_c, 4, 64, 100
6, 44880, Note_on_c, 4, 73, 100
6, 44969, Note_on_c, 4, 73, 0
6, 44969, Note_on_c, 4, 64, 0
6, 44970, Note_on_c, 4, 65, 100
6, 44970, Note_on_c, 4, 74, 100
6, 44999, Note_on_c, 4, 74, 0
6, 44999, Note_on_c, 4, 65, 0
6, 45000, Note_on_c, 4, 74, 100
6, 45000, Note_on_c, 4, 65, 100
6, 45014, Note_on_c, 4, 65, 0
6, 45014, Note_on_c, 4, 74, 0
6, 45015, Note_on_c, 4, 86, 100
6, 45029, Note_on_c, 4, 86, 0
6, 45030, Note_on_c, 4, 85, 100
6, 45044, Note_on_c, 4, 85, 0
6, 45045, Note_on_c, 4, 83, 100
6, 45059, Note_on_c, 4, 83, 0
6, 45060, Note_on_c, 4, 81, 100
6, 45074, Note_on_c, 4, 81, 0
6, 45075, Note_on_c, 4, 86, 100
6, 45089, Note_on_c, 4, 86, 0
6, 45090, Note_on_c, 4, 85, 100
6, 45104, Note_on_c, 4, 85, 0
6, 45105, Note_on_c, 4, 83, 100
6, 45119, Note_on_c, 4, 83, 0
6, 45120, Note_on_c, 4, 81, 100
6, 45134, Note_on_c, 4, 81, 0
6, 45135, Note_on_c, 4, 79, 100
6, 45149, Note_on_c, 4, 79, 0
6, 45150, Note_on_c, 4, 77, 100
6, 45164, Note_on_c, 4, 77, 0
6, 45165, Note_on_c, 4, 76, 100
6, 45179, Note_on_c, 4, 76, 0
6, 45180, Note_on_c, 4, 74, 100
6, 45194, Note_on_c, 4, 74, 0
6, 45195, Note_on_c, 4, 74, 100
6, 45209, Note_on_c, 4, 74, 0
6, 45210, Note_on_c, 4, 73, 100
6, 45224, Note_on_c, 4, 73, 0
6, 45225, Note_on_c, 4, 71, 100
6, 45239, Note_on_c, 4, 71, 0
6, 45240, Note_on_c, 4, 69, 100
6, 45254, Note_on_c, 4, 69, 0
6, 45255, Note_on_c, 4, 74, 100
6, 45269, Note_on_c, 4, 74, 0
6, 45270, Note_on_c, 4, 73, 100
6, 45284, Note_on_c, 4, 73, 0
6, 45285, Note_on_c, 4, 71, 100
6, 45299, Note_on_c, 4, 71, 0
6, 45300, Note_on_c, 4, 69, 100
6, 45314, Note_on_c, 4, 69, 0
6, 45315, Note_on_c, 4, 67, 100
6, 45329, Note_on_c, 4, 67, 0
6, 45330, Note_on_c, 4, 65, 100
6, 45344, Note_on_c, 4, 65, 0
6, 45345, Note_on_c, 4, 64, 100
6, 45359, Note_on_c, 4, 64, 0
6, 45360, Note_on_c, 4, 62, 100
6, 45419, Note_on_c, 4, 62, 0
6, 45540, Note_on_c, 4, 61, 100
6, 45540, Note_on_c, 4, 69, 100
6, 45540, Note_on_c, 4, 64, 100
6, 45599, Note_on_c, 4, 64, 0
6, 45599, Note_on_c, 4, 69, 0
6, 45599, Note_on_c, 4, 61, 0
6, 45720, Note_on_c, 4, 64, 100
6, 45720, Note_on_c, 4, 73, 100
6, 45720, Note_on_c, 4, 69, 100
6, 45779, Note_on_c, 4, 69, 0
6, 45779, Note_on_c, 4, 73, 0
6, 45779, Note_on_c, 4, 64, 0
6, 45900, Note_on_c, 4, 69, 100
6, 45900, Note_on_c, 4, 73, 100
6, 45900, Note_on_c, 4, 76, 100
6, 45959, Note_on_c, 4, 76, 0
6, 45959, Note_on_c, 4, 73, 0
6, 45959, Note_on_c, 4, 69, 0
6, 46080, Note_on_c, 4, 73, 100
6, 46080, Note_on_c, 4, 81, 100
6, 46080, Note_on_c, 4, 76, 100
6, 46139, Note_on_c, 4, 76, 0
6, 46139, Note_on_c, 4, 81, 0
6, 46139, Note_on_c, 4, 73, 0
6, 46215, Note_on_c, 4, 59, 100
6, 46229, Note_on_c, 4, 59, 0
6, 46230, Note_on_c, 4, 61, 100
6, 46244, Note_on_c, 4, 61, 0
6, 46245, Note_on_c, 4, 62, 100
6, 46259, Note_on_c, 4, 62, 0
6, 46260, Note_on_c, 4, 64, 100
6, 46274, Note_on_c, 4, 64, 0
6, 46275, Note_on_c, 4, 57, 100
6, 46289, Note_on_c, 4, 57, 0
6, 46290, Note_on_c, 4, 59, 100
6, 46304, Note_on_c, 4, 59, 0
6, 46305, Note_on_c, 4, 61, 100
6, 46319, Note_on_c, 4, 61, 0
6, 46320, Note_on_c, 4, 62, 100
6, 46334, Note_on_c, 4, 62, 0
6, 46335, Note_on_c, 4, 64, 100
6, 46349, Note_on_c, 4, 64, 0
6, 46350, Note_on_c, 4, 65, 100
6, 46364, Note_on_c, 4, 65, 0
6, 46365, Note_on_c, 4, 67, 100
6, 46379, Note_on_c, 4, 67, 0
6, 46380, Note_on_c, 4, 69, 100
6, 46394, Note_on_c, 4, 69, 0
6, 46395, Note_on_c, 4, 71, 100
6, 46409, Note_on_c, 4, 71, 0
6, 46410, Note_on_c, 4, 73, 100
6, 46424, Note_on_c, 4, 73, 0
6, 46425, Note_on_c, 4, 74, 100
6, 46439, Note_on_c, 4, 74, 0
6, 46440, Note_on_c, 4, 76, 100
6, 46454, Note_on_c, 4, 76, 0
6, 46455, Note_on_c, 4, 69, 100
6, 46469, Note_on_c, 4, 69, 0
6, 46470, Note_on_c, 4, 71, 100
6, 46484, Note_on_c, 4, 71, 0
6, 46485, Note_on_c, 4, 73, 100
6, 46499, Note_on_c, 4, 73, 0
6, 46500, Note_on_c, 4, 74, 100
6, 46514, Note_on_c, 4, 74, 0
6, 46515, Note_on_c, 4, 76, 100
6, 46529, Note_on_c, 4, 76, 0
6, 46530, Note_on_c, 4, 77, 100
6, 46544, Note_on_c, 4, 77, 0
6, 46545, Note_on_c, 4, 79, 100
6, 46559, Note_on_c, 4, 79, 0
6, 46560, Note_on_c, 4, 81, 100
6, 46574, Note_on_c, 4, 81, 0
6, 46575, Note_on_c, 4, 79, 100
6, 46589, Note_on_c, 4, 79, 0
6, 46590, Note_on_c, 4, 77, 100
6, 46604, Note_on_c, 4, 77, 0
6, 46605, Note_on_c, 4, 76, 100
6, 46619, Note_on_c, 4, 76, 0
6, 46620, Note_on_c, 4, 77, 100
6, 46634, Note_on_c, 4, 77, 0
6, 46635, Note_on_c, 4, 74, 100
6, 46649, Note_on_c, 4, 74, 0
6, 46650, Note_on_c, 4, 76, 100
6, 46664, Note_on_c, 4, 76, 0
6, 46665, Note_on_c, 4, 77, 100
6, 46679, Note_on_c, 4, 77, 0
6, 46680, Note_on_c, 4, 79, 100
6, 46694, Note_on_c, 4, 79, 0
6, 46695, Note_on_c, 4, 81, 100
6, 46709, Note_on_c, 4, 81, 0
6, 46710, Note_on_c, 4, 83, 100
6, 46724, Note_on_c, 4, 83, 0
6, 46725, Note_on_c, 4, 85, 100
6, 46739, Note_on_c, 4, 85, 0
6, 46740, Note_on_c, 4, 86, 100
6, 46754, Note_on_c, 4, 86, 0
6, 46755, Note_on_c, 4, 84, 100
6, 46769, Note_on_c, 4, 84, 0
6, 46770, Note_on_c, 4, 82, 100
6, 46784, Note_on_c, 4, 82, 0
6, 46785, Note_on_c, 4, 81, 100
6, 46799, Note_on_c, 4, 81, 0
6, 46800, Note_on_c, 4, 82, 100
6, 46814, Note_on_c, 4, 82, 0
6, 46815, Note_on_c, 4, 67, 100
6, 46829, Note_on_c, 4, 67, 0
6, 46830, Note_on_c, 4, 69, 100
6, 46844, Note_on_c, 4, 69, 0
6, 46845, Note_on_c, 4, 70, 100
6, 46859, Note_on_c, 4, 70, 0
6, 46860, Note_on_c, 4, 72, 100
6, 46874, Note_on_c, 4, 72, 0
6, 46875, Note_on_c, 4, 74, 100
6, 46889, Note_on_c, 4, 74, 0
6, 46890, Note_on_c, 4, 76, 100
6, 46904, Note_on_c, 4, 76, 0
6, 46905, Note_on_c, 4, 77, 100
6, 46919, Note_on_c, 4, 77, 0
6, 46920, Note_on_c, 4, 79, 100
6, 46934, Note_on_c, 4, 79, 0
6, 46935, Note_on_c, 4, 77, 100
6, 46949, Note_on_c, 4, 77, 0
6, 46950, Note_on_c, 4, 76, 100
6, 46964, Note_on_c, 4, 76, 0
6, 46965, Note_on_c, 4, 74, 100
6, 46979, Note_on_c, 4, 74, 0
6, 46980, Note_on_c, 4, 76, 100
6, 46994, Note_on_c, 4, 76, 0
6, 46995, Note_on_c, 4, 60, 100
6, 47009, Note_on_c, 4, 60, 0
6, 47010, Note_on_c, 4, 62, 100
6, 47024, Note_on_c, 4, 62, 0
6, 47025, Note_on_c, 4, 64, 100
6, 47039, Note_on_c, 4, 64, 0
6, 47040, Note_on_c, 4, 65, 100
6, 47054, Note_on_c, 4, 65, 0
6, 47055, Note_on_c, 4, 67, 100
6, 47069, Note_on_c, 4, 67, 0
6, 47070, Note_on_c, 4, 69, 100
6, 47084, Note_on_c, 4, 69, 0
6, 47085, Note_on_c, 4, 70, 100
6, 47099, Note_on_c, 4, 70, 0
6, 47100, Note_on_c, 4, 72, 100
6, 47114, Note_on_c, 4, 72, 0
6, 47115, Note_on_c, 4, 70, 100
6, 47129, Note_on_c, 4, 70, 0
6, 47130, Note_on_c, 4, 69, 100
6, 47144, Note_on_c, 4, 69, 0
6, 47145, Note_on_c, 4, 67, 100
6, 47159, Note_on_c, 4, 67, 0
6, 47160, Note_on_c, 4, 69, 100
6, 47174, Note_on_c, 4, 69, 0
6, 47175, Note_on_c, 4, 53, 100
6, 47189, Note_on_c, 4, 53, 0
6, 47190, Note_on_c, 4, 55, 100
6, 47204, Note_on_c, 4, 55, 0
6, 47205, Note_on_c, 4, 57, 100
6, 47219, Note_on_c, 4, 57, 0
6, 47220, Note_on_c, 4, 58, 100
6, 47234, Note_on_c, 4, 58, 0
6, 47235, Note_on_c, 4, 60, 100
6, 47249, Note_on_c, 4, 60, 0
6, 47250, Note_on_c, 4, 62, 100
6, 47264, Note_on_c, 4, 62, 0
6, 47265, Note_on_c, 4, 64, 100
6, 47279, Note_on_c, 4, 64, 0
6, 47280, Note_on_c, 4, 65, 100
6, 47294, Note_on_c, 4, 65, 0
6, 47295, Note_on_c, 4, 64, 100
6, 47309, Note_on_c, 4, 64, 0
6, 47310, Note_on_c, 4, 62, 100
6, 47324, Note_on_c, 4, 62, 0
6, 47325, Note_on_c, 4, 60, 100
6, 47339, Note_on_c, 4, 60, 0
6, 47340, Note_on_c, 4, 62, 100
6, 47354, Note_on_c, 4, 62, 0
6, 47940, Note_on_c, 4, 55, 100
6, 47954, Note_on_c, 4, 55, 0
6, 47955, Note_on_c, 4, 57, 100
6, 47969, Note_on_c, 4, 57, 0
6, 47970, Note_on_c, 4, 59, 100
6, 47984, Note_on_c, 4, 59, 0
6, 47985, Note_on_c, 4, 61, 100
6, 47999, Note_on_c, 4, 61, 0
6, 48000, Note_on_c, 4, 62, 100
6, 48014, Note_on_c, 4, 62, 0
6, 48015, Note_on_c, 4, 64, 100
6, 48029, Note_on_c, 4, 64, 0
6, 48030, Note_on_c, 4, 65, 100
6, 48044, Note_on_c, 4, 65, 0
6, 48045, Note_on_c, 4, 64, 100
6, 48059, Note_on_c, 4, 64, 0
6, 48060, Note_on_c, 4, 63, 100
6, 48074, Note_on_c, 4, 63, 0
6, 48075, Note_on_c, 4, 62, 100
6, 48089, Note_on_c, 4, 62, 0
6, 48090, Note_on_c, 4, 63, 100
6, 48104, Note_on_c, 4, 63, 0
6, 48105, Note_on_c, 4, 67, 100
6, 48119, Note_on_c, 4, 67, 0
6, 48120, Note_on_c, 4, 63, 100
6, 48134, Note_on_c, 4, 63, 0
6, 48135, Note_on_c, 4, 62, 100
6, 48149, Note_on_c, 4, 62, 0
6, 48150, Note_on_c, 4, 63, 100
6, 48164, Note_on_c, 4, 63, 0
6, 48165, Note_on_c, 4, 67, 100
6, 48179, Note_on_c, 4, 67, 0
6, 48180, Note_on_c, 4, 62, 100
6, 48194, Note_on_c, 4, 62, 0
6, 48195, Note_on_c, 4, 61, 100
6, 48209, Note_on_c, 4, 61, 0
6, 48210, Note_on_c, 4, 62, 100
6, 48224, Note_on_c, 4, 62, 0
6, 48225, Note_on_c, 4, 67, 100
6, 48239, Note_on_c, 4, 67, 0
6, 48300, Note_on_c, 4, 79, 100
6, 48359, Note_on_c, 4, 79, 0
6, 48360, Note_on_c, 4, 79, 100
6, 48419, Note_on_c, 4, 79, 0
6, 48420, Note_on_c, 4, 73, 100
6, 48479, Note_on_c, 4, 73, 0
6, 48480, Note_on_c, 4, 76, 100
6, 48539, Note_on_c, 4, 76, 0
6, 48540, Note_on_c, 4, 76, 100
6, 48599, Note_on_c, 4, 76, 0
6, 48600, Note_on_c, 4, 67, 100
6, 48659, Note_on_c, 4, 67, 0
6, 48660, Note_on_c, 4, 70, 100
6, 48719, Note_on_c, 4, 70, 0
6, 48720, Note_on_c, 4, 70, 100
6, 48779, Note_on_c, 4, 70, 0
6, 48780, Note_on_c, 4, 64, 100
6, 48839, Note_on_c, 4, 64, 0
6, 48840, Note_on_c, 4, 67, 100
6, 48899, Note_on_c, 4, 67, 0
6, 48900, Note_on_c, 4, 67, 100
6, 48959, Note_on_c, 4, 67, 0
6, 48960, Note_on_c, 4, 57, 100
6, 49019, Note_on_c, 4, 57, 0
6, 49050, Note_on_c, 4, 79, 100
6, 49079, Note_on_c, 4, 79, 0
6, 49080, Note_on_c, 4, 77, 100
6, 49139, Note_on_c, 4, 77, 0
6, 49170, Note_on_c, 4, 76, 100
6, 49199, Note_on_c, 4, 76, 0
6, 49200, Note_on_c, 4, 76, 100
6, 49289, Note_on_c, 4, 76, 0
6, 49290, Note_on_c, 4, 74, 100
6, 49319, Note_on_c, 4, 74, 0
6, 49320, Note_on_c, 4, 74, 100
6, 49379, Note_on_c, 4, 74, 0
6, 49380, Note_on_c, 4, 62, 100
6, 49439, Note_on_c, 4, 62, 0
6, 49440, Note_on_c, 4, 64, 100
6, 49499, Note_on_c, 4, 64, 0
6, 49500, Note_on_c, 4, 65, 100
6, 49559, Note_on_c, 4, 65, 0
6, 49560, Note_on_c, 4, 65, 100
6, 49619, Note_on_c, 4, 65, 0
6, 49620, Note_on_c, 4, 67, 100
6, 49679, Note_on_c, 4, 67, 0
6, 49680, Note_on_c, 4, 69, 100
6, 49739, Note_on_c, 4, 69, 0
6, 49740, Note_on_c, 4, 69, 100
6, 49799, Note_on_c, 4, 69, 0
6, 49800, Note_on_c, 4, 70, 100
6, 49859, Note_on_c, 4, 70, 0
6, 49860, Note_on_c, 4, 69, 100
6, 49919, Note_on_c, 4, 69, 0
6, 49920, Note_on_c, 4, 67, 100
6, 49949, Note_on_c, 4, 67, 0
6, 49950, Note_on_c, 4, 65, 100
6, 49979, Note_on_c, 4, 65, 0
6, 49980, Note_on_c, 4, 64, 100
6, 50009, Note_on_c, 4, 64, 0
6, 50010, Note_on_c, 4, 62, 100
6, 50039, Note_on_c, 4, 62, 0
6, 50040, Note_on_c, 4, 61, 100
6, 50099, Note_on_c, 4, 61, 0
6, 50100, Note_on_c, 4, 57, 100
6, 50129, Note_on_c, 4, 57, 0
6, 50130, Note_on_c, 4, 59, 100
6, 50159, Note_on_c, 4, 59, 0
6, 50160, Note_on_c, 4, 61, 100
6, 50189, Note_on_c, 4, 61, 0
6, 50190, Note_on_c, 4, 62, 100
6, 50219, Note_on_c, 4, 62, 0
6, 50220, Note_on_c, 4, 64, 100
6, 50279, Note_on_c, 4, 64, 0
6, 50280, Note_on_c, 4, 64, 100
6, 50339, Note_on_c, 4, 64, 0
6, 50340, Note_on_c, 4, 65, 100
6, 50399, Note_on_c, 4, 65, 0
6, 50400, Note_on_c, 4, 64, 100
6, 50459, Note_on_c, 4, 64, 0
6, 50460, Note_on_c, 4, 57, 100
6, 50489, Note_on_c, 4, 57, 0
6, 50490, Note_on_c, 4, 59, 100
6, 50519, Note_on_c, 4, 59, 0
6, 50520, Note_on_c, 4, 61, 100
6, 50549, Note_on_c, 4, 61, 0
6, 50550, Note_on_c, 4, 62, 100
6, 50579, Note_on_c, 4, 62, 0
6, 50580, Note_on_c, 4, 64, 100
6, 50639, Note_on_c, 4, 64, 0
6, 50640, Note_on_c, 4, 64, 100
6, 50699, Note_on_c, 4, 64, 0
6, 50700, Note_on_c, 4, 65, 100
6, 50759, Note_on_c, 4, 65, 0
6, 50760, Note_on_c, 4, 64, 100
6, 50819, Note_on_c, 4, 64, 0
6, 50820, Note_on_c, 4, 57, 100
6, 50849, Note_on_c, 4, 57, 0
6, 50850, Note_on_c, 4, 59, 100
6, 50879, Note_on_c, 4, 59, 0
6, 50880, Note_on_c, 4, 61, 100
6, 50909, Note_on_c, 4, 61, 0
6, 50910, Note_on_c, 4, 62, 100
6, 50939, Note_on_c, 4, 62, 0
6, 50940, Note_on_c, 4, 64, 100
6, 50969, Note_on_c, 4, 64, 0
6, 50970, Note_on_c, 4, 62, 100
6, 50999, Note_on_c, 4, 62, 0
6, 51000, Note_on_c, 4, 61, 100
6, 51029, Note_on_c, 4, 61, 0
6, 51030, Note_on_c, 4, 62, 100
6, 51059, Note_on_c, 4, 62, 0
6, 51060, Note_on_c, 4, 64, 100
6, 51089, Note_on_c, 4, 64, 0
6, 51090, Note_on_c, 4, 65, 100
6, 51119, Note_on_c, 4, 65, 0
6, 51120, Note_on_c, 4, 67, 100
6, 51149, Note_on_c, 4, 67, 0
6, 51150, Note_on_c, 4, 65, 100
6, 51179, Note_on_c, 4, 65, 0
6, 51180, Note_on_c, 4, 64, 100
6, 51209, Note_on_c, 4, 64, 0
6, 51210, Note_on_c, 4, 65, 100
6, 51239, Note_on_c, 4, 65, 0
6, 51240, Note_on_c, 4, 67, 100
6, 51269, Note_on_c, 4, 67, 0
6, 51270, Note_on_c, 4, 69, 100
6, 51299, Note_on_c, 4, 69, 0
6, 51300, Note_on_c, 4, 70, 100
6, 51329, Note_on_c, 4, 70, 0
6, 51330, Note_on_c, 4, 69, 100
6, 51359, Note_on_c, 4, 69, 0
6, 51360, Note_on_c, 4, 67, 100
6, 51389, Note_on_c, 4, 67, 0
6, 51390, Note_on_c, 4, 65, 100
6, 51419, Note_on_c, 4, 65, 0
6, 51420, Note_on_c, 4, 64, 100
6, 51449, Note_on_c, 4, 64, 0
6, 51450, Note_on_c, 4, 62, 100
6, 51479, Note_on_c, 4, 62, 0
6, 51480, Note_on_c, 4, 61, 100
6, 51509, Note_on_c, 4, 61, 0
6, 51510, Note_on_c, 4, 64, 100
6, 51539, Note_on_c, 4, 64, 0
6, 51540, Note_on_c, 4, 57, 100
6, 51569, Note_on_c, 4, 57, 0
6, 51570, Note_on_c, 4, 61, 100
6, 51599, Note_on_c, 4, 61, 0
6, 51600, Note_on_c, 4, 62, 100
6, 51659, Note_on_c, 4, 62, 0
6, 51690, Note_on_c, 4, 55, 100
6, 51719, Note_on_c, 4, 55, 0
6, 51720, Note_on_c, 4, 57, 100
6, 51779, Note_on_c, 4, 57, 0
6, 51780, Note_on_c, 4, 57, 100
6, 51839, Note_on_c, 4, 57, 0
6, 51840, Note_on_c, 4, 62, 100
6, 52019, Note_on_c, 4, 62, 0
6, 52200, Note_on_c, 4, 77, 100
6, 52215, Note_on_c, 4, 77, 0
6, 52215, Note_on_c, 4, 76, 100
6, 52230, Note_on_c, 4, 76, 0
6, 52230, Note_on_c, 4, 77, 100
6, 52275, Note_on_c, 4, 77, 0
6, 52290, Note_on_c, 4, 72, 100
6, 52319, Note_on_c, 4, 72, 0
6, 52320, Note_on_c, 4, 72, 100
6, 52349, Note_on_c, 4, 72, 0
6, 52350, Note_on_c, 4, 74, 100
6, 52439, Note_on_c, 4, 74, 0
6, 52440, Note_on_c, 4, 72, 100
6, 52450, Note_on_c, 4, 72, 0
6, 52450, Note_on_c, 4, 74, 100
6, 52460, Note_on_c, 4, 74, 0
6, 52460, Note_on_c, 4, 72, 100
6, 52470, Note_on_c, 4, 72, 0
6, 52470, Note_on_c, 4, 70, 100
6, 52499, Note_on_c, 4, 70, 0
6, 52500, Note_on_c, 4, 69, 100
6, 52529, Note_on_c, 4, 69, 0
6, 52530, Note_on_c, 4, 70, 100
6, 52559, Note_on_c, 4, 70, 0
6, 52560, Note_on_c, 4, 70, 100
6, 52589, Note_on_c, 4, 70, 0
6, 52590, Note_on_c, 4, 69, 100
6, 52597, Note_on_c, 4, 70, 100
6, 52598, Note_on_c, 4, 69, 0
6, 52605, Note_on_c, 4, 70, 0
6, 52605, Note_on_c, 4, 69, 100
6, 52650, Note_on_c, 4, 69, 0
6, 52650, Note_on_c, 4, 70, 100
6, 52679, Note_on_c, 4, 70, 0
6, 52680, Note_on_c, 4, 72, 100
6, 52739, Note_on_c, 4, 72, 0
6, 52740, Note_on_c, 4, 65, 100
6, 52769, Note_on_c, 4, 65, 0
6, 52800, Note_on_c, 4, 69, 100
6, 52829, Note_on_c, 4, 69, 0
6, 52860, Note_on_c, 4, 72, 100
6, 52889, Note_on_c, 4, 72, 0
6, 52920, Note_on_c, 4, 79, 100
6, 52927, Note_on_c, 4, 77, 100
6, 52928, Note_on_c, 4, 79, 0
6, 52935, Note_on_c, 4, 77, 0
6, 52935, Note_on_c, 4, 79, 100
6, 53010, Note_on_c, 4, 79, 0
6, 53010, Note_on_c, 4, 74, 100
6, 53039, Note_on_c, 4, 74, 0
6, 53040, Note_on_c, 4, 74, 100
6, 53069, Note_on_c, 4, 74, 0
6, 53070, Note_on_c, 4, 75, 100
6, 53159, Note_on_c, 4, 75, 0
6, 53160, Note_on_c, 4, 74, 100
6, 53189, Note_on_c, 4, 74, 0
6, 53190, Note_on_c, 4, 72, 100
6, 53219, Note_on_c, 4, 72, 0
6, 53220, Note_on_c, 4, 71, 100
6, 53249, Note_on_c, 4, 71, 0
6, 53250, Note_on_c, 4, 72, 100
6, 53279, Note_on_c, 4, 72, 0
6, 53280, Note_on_c, 4, 72, 100
6, 53309, Note_on_c, 4, 72, 0
6, 53310, Note_on_c, 4, 71, 100
6, 53317, Note_on_c, 4, 72, 100
6, 53318, Note_on_c, 4, 71, 0
6, 53325, Note_on_c, 4, 72, 0
6, 53325, Note_on_c, 4, 71, 100
6, 53370, Note_on_c, 4, 71, 0
6, 53370, Note_on_c, 4, 72, 100
6, 53399, Note_on_c, 4, 72, 0
6, 53400, Note_on_c, 4, 74, 100
6, 53459, Note_on_c, 4, 74, 0
6, 53460, Note_on_c, 4, 67, 100
6, 53489, Note_on_c, 4, 67, 0
6, 53520, Note_on_c, 4, 71, 100
6, 53549, Note_on_c, 4, 71, 0
6, 53580, Note_on_c, 4, 74, 100
6, 53609, Note_on_c, 4, 74, 0
6, 53640, Note_on_c, 4, 83, 100
6, 53669, Note_on_c, 4, 83, 0
6, 53670, Note_on_c, 4, 84, 100
6, 53699, Note_on_c, 4, 84, 0
6, 53700, Note_on_c, 4, 86, 100
6, 53729, Note_on_c, 4, 86, 0
6, 53730, Note_on_c, 4, 76, 100
6, 53759, Note_on_c, 4, 76, 0
6, 53760, Note_on_c, 4, 76, 100
6, 53789, Note_on_c, 4, 76, 0
6, 53790, Note_on_c, 4, 77, 100
6, 53879, Note_on_c, 4, 77, 0
6, 53880, Note_on_c, 4, 76, 100
6, 53887, Note_on_c, 4, 77, 100
6, 53888, Note_on_c, 4, 76, 0
6, 53895, Note_on_c, 4, 77, 0
6, 53895, Note_on_c, 4, 76, 100
6, 53910, Note_on_c, 4, 76, 0
6, 53910, Note_on_c, 4, 74, 100
6, 53939, Note_on_c, 4, 74, 0
6, 53940, Note_on_c, 4, 76, 100
6, 53969, Note_on_c, 4, 76, 0
6, 53970, Note_on_c, 4, 77, 100
6, 53999, Note_on_c, 4, 77, 0
6, 54000, Note_on_c, 4, 79, 100
6, 54029, Note_on_c, 4, 79, 0
6, 54030, Note_on_c, 4, 71, 100
6, 54059, Note_on_c, 4, 71, 0
6, 54060, Note_on_c, 4, 72, 100
6, 54089, Note_on_c, 4, 72, 0
6, 54090, Note_on_c, 4, 67, 100
6, 54119, Note_on_c, 4, 67, 0
6, 54120, Note_on_c, 4, 70, 100
6, 54239, Note_on_c, 4, 70, 0
6, 54240, Note_on_c, 4, 69, 100
6, 54269, Note_on_c, 4, 69, 0
6, 54270, Note_on_c, 4, 71, 100
6, 54299, Note_on_c, 4, 71, 0
6, 54300, Note_on_c, 4, 72, 100
6, 54329, Note_on_c, 4, 72, 0
6, 54330, Note_on_c, 4, 74, 100
6, 54359, Note_on_c, 4, 74, 0
6, 54360, Note_on_c, 4, 74, 100
6, 54389, Note_on_c, 4, 74, 0
6, 54390, Note_on_c, 4, 75, 100
6, 54449, Note_on_c, 4, 75, 0
6, 54450, Note_on_c, 4, 80, 100
6, 54479, Note_on_c, 4, 80, 0
6, 54480, Note_on_c, 4, 79, 100
6, 54599, Note_on_c, 4, 79, 0
6, 54600, Note_on_c, 4, 72, 100
6, 54629, Note_on_c, 4, 72, 0
6, 54630, Note_on_c, 4, 71, 100
6, 54689, Note_on_c, 4, 71, 0
6, 54690, Note_on_c, 4, 72, 100
6, 54719, Note_on_c, 4, 72, 0
6, 54720, Note_on_c, 4, 72, 100
6, 54809, Note_on_c, 4, 72, 0
6, 54810, Note_on_c, 4, 64, 100
6, 54839, Note_on_c, 4, 64, 0
6, 54840, Note_on_c, 4, 67, 100
6, 54899, Note_on_c, 4, 67, 0
6, 54900, Note_on_c, 4, 60, 100
6, 55019, Note_on_c, 4, 60, 0
6, 55080, Note_on_c, 4, 77, 100
6, 55109, Note_on_c, 4, 77, 0
6, 55110, Note_on_c, 4, 76, 100
6, 55139, Note_on_c, 4, 76, 0
6, 55140, Note_on_c, 4, 77, 100
6, 55169, Note_on_c, 4, 77, 0
6, 55170, Note_on_c, 4, 72, 100
6, 55199, Note_on_c, 4, 72, 0
6, 55200, Note_on_c, 4, 74, 100
6, 55229, Note_on_c, 4, 74, 0
6, 55230, Note_on_c, 4, 76, 100
6, 55259, Note_on_c, 4, 76, 0
6, 55260, Note_on_c, 4, 77, 100
6, 55289, Note_on_c, 4, 77, 0
6, 55290, Note_on_c, 4, 74, 100
6, 55319, Note_on_c, 4, 74, 0
6, 55320, Note_on_c, 4, 72, 100
6, 55349, Note_on_c, 4, 72, 0
6, 55350, Note_on_c, 4, 70, 100
6, 55379, Note_on_c, 4, 70, 0
6, 55380, Note_on_c, 4, 69, 100
6, 55409, Note_on_c, 4, 69, 0
6, 55410, Note_on_c, 4, 70, 100
6, 55439, Note_on_c, 4, 70, 0
6, 55440, Note_on_c, 4, 69, 100
6, 55469, Note_on_c, 4, 69, 0
6, 55470, Note_on_c, 4, 70, 100
6, 55499, Note_on_c, 4, 70, 0
6, 55500, Note_on_c, 4, 72, 100
6, 55529, Note_on_c, 4, 72, 0
6, 55530, Note_on_c, 4, 77, 100
6, 55559, Note_on_c, 4, 77, 0
6, 55560, Note_on_c, 4, 69, 100
6, 55589, Note_on_c, 4, 69, 0
6, 55590, Note_on_c, 4, 67, 100
6, 55619, Note_on_c, 4, 67, 0
6, 55620, Note_on_c, 4, 65, 100
6, 55649, Note_on_c, 4, 65, 0
6, 55650, Note_on_c, 4, 67, 100
6, 55679, Note_on_c, 4, 67, 0
6, 55680, Note_on_c, 4, 69, 100
6, 55709, Note_on_c, 4, 69, 0
6, 55710, Note_on_c, 4, 70, 100
6, 55739, Note_on_c, 4, 70, 0
6, 55740, Note_on_c, 4, 72, 100
6, 55769, Note_on_c, 4, 72, 0
6, 55770, Note_on_c, 4, 74, 100
6, 55799, Note_on_c, 4, 74, 0
6, 55800, Note_on_c, 4, 79, 100
6, 55829, Note_on_c, 4, 79, 0
6, 55830, Note_on_c, 4, 77, 100
6, 55859, Note_on_c, 4, 77, 0
6, 55860, Note_on_c, 4, 79, 100
6, 55889, Note_on_c, 4, 79, 0
6, 55890, Note_on_c, 4, 71, 100
6, 55919, Note_on_c, 4, 71, 0
6, 55920, Note_on_c, 4, 72, 100
6, 55949, Note_on_c, 4, 72, 0
6, 55950, Note_on_c, 4, 74, 100
6, 55979, Note_on_c, 4, 74, 0
6, 55980, Note_on_c, 4, 75, 100
6, 56009, Note_on_c, 4, 75, 0
6, 56010, Note_on_c, 4, 81, 100
6, 56039, Note_on_c, 4, 81, 0
6, 56040, Note_on_c, 4, 75, 100
6, 56069, Note_on_c, 4, 75, 0
6, 56070, Note_on_c, 4, 74, 100
6, 56099, Note_on_c, 4, 74, 0
6, 56100, Note_on_c, 4, 72, 100
6, 56129, Note_on_c, 4, 72, 0
6, 56130, Note_on_c, 4, 74, 100
6, 56159, Note_on_c, 4, 74, 0
6, 56160, Note_on_c, 4, 71, 100
6, 56189, Note_on_c, 4, 71, 0
6, 56190, Note_on_c, 4, 72, 100
6, 56219, Note_on_c, 4, 72, 0
6, 56220, Note_on_c, 4, 74, 100
6, 56249, Note_on_c, 4, 74, 0
6, 56250, Note_on_c, 4, 79, 100
6, 56279, Note_on_c, 4, 79, 0
6, 56280, Note_on_c, 4, 71, 100
6, 56309, Note_on_c, 4, 71, 0
6, 56310, Note_on_c, 4, 69, 100
6, 56339, Note_on_c, 4, 69, 0
6, 56340, Note_on_c, 4, 67, 100
6, 56369, Note_on_c, 4, 67, 0
6, 56370, Note_on_c, 4, 69, 100
6, 56399, Note_on_c, 4, 69, 0
6, 56400, Note_on_c, 4, 71, 100
6, 56429, Note_on_c, 4, 71, 0
6, 56430, Note_on_c, 4, 72, 100
6, 56459, Note_on_c, 4, 72, 0
6, 56460, Note_on_c, 4, 74, 100
6, 56489, Note_on_c, 4, 74, 0
6, 56490, Note_on_c, 4, 76, 100
6, 56519, Note_on_c, 4, 76, 0
6, 56520, Note_on_c, 4, 77, 100
6, 56549, Note_on_c, 4, 77, 0
6, 56550, Note_on_c, 4, 83, 100
6, 56579, Note_on_c, 4, 83, 0
6, 56580, Note_on_c, 4, 84, 100
6, 56609, Note_on_c, 4, 84, 0
6, 56610, Note_on_c, 4, 86, 100
6, 56639, Note_on_c, 4, 86, 0
6, 56640, Note_on_c, 4, 76, 100
6, 56669, Note_on_c, 4, 76, 0
6, 56670, Note_on_c, 4, 74, 100
6, 56699, Note_on_c, 4, 74, 0
6, 56700, Note_on_c, 4, 72, 100
6, 56729, Note_on_c, 4, 72, 0
6, 56730, Note_on_c, 4, 74, 100
6, 56759, Note_on_c, 4, 74, 0
6, 56760, Note_on_c, 4, 76, 100
6, 56789, Note_on_c, 4, 76, 0
6, 56790, Note_on_c, 4, 71, 100
6, 56819, Note_on_c, 4, 71, 0
6, 56820, Note_on_c, 4, 72, 100
6, 56849, Note_on_c, 4, 72, 0
6, 56850, Note_on_c, 4, 76, 100
6, 56879, Note_on_c, 4, 76, 0
6, 56880, Note_on_c, 4, 79, 100
6, 56909, Note_on_c, 4, 79, 0
6, 56910, Note_on_c, 4, 69, 100
6, 56939, Note_on_c, 4, 69, 0
6, 56940, Note_on_c, 4, 70, 100
6, 56969, Note_on_c, 4, 70, 0
6, 56970, Note_on_c, 4, 67, 100
6, 56999, Note_on_c, 4, 67, 0
6, 57000, Note_on_c, 4, 65, 100
6, 57029, Note_on_c, 4, 65, 0
6, 57030, Note_on_c, 4, 64, 100
6, 57059, Note_on_c, 4, 64, 0
6, 57060, Note_on_c, 4, 69, 100
6, 57089, Note_on_c, 4, 69, 0
6, 57090, Note_on_c, 4, 62, 100
6, 57119, Note_on_c, 4, 62, 0
6, 57120, Note_on_c, 4, 63, 100
6, 57149, Note_on_c, 4, 63, 0
6, 57150, Note_on_c, 4, 66, 100
6, 57179, Note_on_c, 4, 66, 0
6, 57180, Note_on_c, 4, 69, 100
6, 57209, Note_on_c, 4, 69, 0
6, 57210, Note_on_c, 4, 72, 100
6, 57239, Note_on_c, 4, 72, 0
6, 57240, Note_on_c, 4, 66, 100
6, 57269, Note_on_c, 4, 66, 0
6, 57270, Note_on_c, 4, 67, 100
6, 57299, Note_on_c, 4, 67, 0
6, 57300, Note_on_c, 4, 62, 100
6, 57329, Note_on_c, 4, 62, 0
6, 57330, Note_on_c, 4, 63, 100
6, 57359, Note_on_c, 4, 63, 0
6, 57360, Note_on_c, 4, 59, 100
6, 57389, Note_on_c, 4, 59, 0
6, 57390, Note_on_c, 4, 60, 100
6, 57419, Note_on_c, 4, 60, 0
6, 57420, Note_on_c, 4, 55, 100
6, 57449, Note_on_c, 4, 55, 0
6, 57450, Note_on_c, 4, 62, 100
6, 57479, Note_on_c, 4, 62, 0
6, 57480, Note_on_c, 4, 65, 100
6, 57509, Note_on_c, 4, 65, 0
6, 57510, Note_on_c, 4, 67, 100
6, 57539, Note_on_c, 4, 67, 0
6, 57540, Note_on_c, 4, 72, 100
6, 57569, Note_on_c, 4, 72, 0
6, 57570, Note_on_c, 4, 71, 100
6, 57599, Note_on_c, 4, 71, 0
6, 57600, Note_on_c, 4, 72, 100
6, 57629, Note_on_c, 4, 72, 0
6, 57630, Note_on_c, 4, 69, 100
6, 57659, Note_on_c, 4, 69, 0
6, 57660, Note_on_c, 4, 67, 100
6, 57689, Note_on_c, 4, 67, 0
6, 57690, Note_on_c, 4, 65, 100
6, 57719, Note_on_c, 4, 65, 0
6, 57720, Note_on_c, 4, 64, 100
6, 57749, Note_on_c, 4, 64, 0
6, 57750, Note_on_c, 4, 62, 100
6, 57779, Note_on_c, 4, 62, 0
6, 57780, Note_on_c, 4, 60, 100
6, 57839, Note_on_c, 4, 60, 0
6, 57960, Note_on_c, 4, 65, 100
6, 58049, Note_on_c, 4, 65, 0
6, 58050, Note_on_c, 4, 69, 100
6, 58080, Note_on_c, 4, 69, 0
6, 58080, Note_on_c, 4, 72, 100
6, 58200, Note_on_c, 4, 72, 0
6, 58200, Note_on_c, 4, 75, 100
6, 58260, Note_on_c, 4, 75, 0
6, 58260, Note_on_c, 4, 74, 100
6, 58270, Note_on_c, 4, 74, 0
6, 58270, Note_on_c, 4, 75, 100
6, 58280, Note_on_c, 4, 75, 0
6, 58280, Note_on_c, 4, 74, 100
6, 58290, Note_on_c, 4, 74, 0
6, 58290, Note_on_c, 4, 75, 100
6, 58320, Note_on_c, 4, 75, 0
6, 58320, Note_on_c, 4, 75, 100
6, 58350, Note_on_c, 4, 75, 0
6, 58350, Note_on_c, 4, 74, 100
6, 58410, Note_on_c, 4, 74, 0
6, 58410, Note_on_c, 4, 78, 100
6, 58440, Note_on_c, 4, 78, 0
6, 58440, Note_on_c, 4, 81, 100
6, 58560, Note_on_c, 4, 81, 0
6, 58560, Note_on_c, 4, 82, 100
6, 58590, Note_on_c, 4, 82, 0
6, 58590, Note_on_c, 4, 81, 100
6, 58620, Note_on_c, 4, 81, 0
6, 58620, Note_on_c, 4, 79, 100
6, 58650, Note_on_c, 4, 79, 0
6, 58650, Note_on_c, 4, 81, 100
6, 58680, Note_on_c, 4, 81, 0
6, 58680, Note_on_c, 4, 81, 100
6, 58710, Note_on_c, 4, 81, 0
6, 58710, Note_on_c, 4, 82, 100
6, 58770, Note_on_c, 4, 82, 0
6, 58770, Note_on_c, 4, 79, 100
6, 58800, Note_on_c, 4, 79, 0
6, 58800, Note_on_c, 4, 77, 100
6, 58830, Note_on_c, 4, 77, 0
6, 58860, Note_on_c, 4, 77, 100
6, 58890, Note_on_c, 4, 77, 0
6, 58890, Note_on_c, 4, 75, 100
6, 58920, Note_on_c, 4, 75, 0
6, 58920, Note_on_c, 4, 81, 100
6, 58950, Note_on_c, 4, 81, 0
6, 58950, Note_on_c, 4, 82, 100
6, 58965, Note_on_c, 4, 82, 0
6, 58965, Note_on_c, 4, 84, 100
6, 58980, Note_on_c, 4, 84, 0
6, 58980, Note_on_c, 4, 82, 100
6, 59010, Note_on_c, 4, 82, 0
6, 59010, Note_on_c, 4, 81, 100
6, 59040, Note_on_c, 4, 81, 0
6, 59040, Note_on_c, 4, 79, 100
6, 59070, Note_on_c, 4, 79, 0
6, 59070, Note_on_c, 4, 78, 100
6, 59130, Note_on_c, 4, 78, 0
6, 59130, Note_on_c, 4, 81, 100
6, 59160, Note_on_c, 4, 81, 0
6, 59160, Note_on_c, 4, 75, 100
6, 59280, Note_on_c, 4, 75, 0
6, 59280, Note_on_c, 4, 74, 100
6, 59310, Note_on_c, 4, 74, 0
6, 59310, Note_on_c, 4, 72, 100
6, 59340, Note_on_c, 4, 72, 0
6, 59340, Note_on_c, 4, 70, 100
6, 59370, Note_on_c, 4, 70, 0
6, 59370, Note_on_c, 4, 69, 100
6, 59400, Note_on_c, 4, 69, 0
6, 59400, Note_on_c, 4, 69, 100
6, 59430, Note_on_c, 4, 69, 0
6, 59430, Note_on_c, 4, 70, 100
6, 59460, Note_on_c, 4, 70, 0
6, 59490, Note_on_c, 4, 74, 100
6, 59520, Note_on_c, 4, 74, 0
6, 59520, Note_on_c, 4, 79, 100
6, 59610, Note_on_c, 4, 79, 0
6, 59610, Note_on_c, 4, 76, 100
6, 59640, Note_on_c, 4, 76, 0
6, 59640, Note_on_c, 4, 77, 100
6, 59670, Note_on_c, 4, 77, 0
6, 59670, Note_on_c, 4, 79, 100
6, 59700, Note_on_c, 4, 79, 0
6, 59700, Note_on_c, 4, 81, 100
6, 59730, Note_on_c, 4, 81, 0
6, 59730, Note_on_c, 4, 82, 100
6, 59760, Note_on_c, 4, 82, 0
6, 59760, Note_on_c, 4, 74, 100
6, 59790, Note_on_c, 4, 74, 0
6, 59790, Note_on_c, 4, 73, 100
6, 59850, Note_on_c, 4, 73, 0
6, 59850, Note_on_c, 4, 76, 100
6, 59880, Note_on_c, 4, 76, 0
6, 59880, Note_on_c, 4, 67, 100
6, 59970, Note_on_c, 4, 67, 0
6, 59970, Note_on_c, 4, 70, 100
6, 60000, Note_on_c, 4, 70, 0
6, 60000, Note_on_c, 4, 69, 100
6, 60030, Note_on_c, 4, 69, 0
6, 60030, Note_on_c, 4, 67, 100
6, 60060, Note_on_c, 4, 67, 0
6, 60060, Note_on_c, 4, 65, 100
6, 60090, Note_on_c, 4, 65, 0
6, 60090, Note_on_c, 4, 64, 100
6, 60120, Note_on_c, 4, 64, 0
6, 60120, Note_on_c, 4, 64, 100
6, 60150, Note_on_c, 4, 64, 0
6, 60150, Note_on_c, 4, 65, 100
6, 60210, Note_on_c, 4, 65, 0
6, 60210, Note_on_c, 4, 69, 100
6, 60240, Note_on_c, 4, 69, 0
6, 60240, Note_on_c, 4, 74, 100
6, 60330, Note_on_c, 4, 74, 0
6, 60330, Note_on_c, 4, 73, 100
6, 60360, Note_on_c, 4, 73, 0
6, 60360, Note_on_c, 4, 74, 100
6, 60390, Note_on_c, 4, 74, 0
6, 60390, Note_on_c, 4, 76, 100
6, 60405, Note_on_c, 4, 76, 0
6, 60405, Note_on_c, 4, 77, 100
6, 60420, Note_on_c, 4, 77, 0
6, 60420, Note_on_c, 4, 76, 100
6, 60450, Note_on_c, 4, 76, 0
6, 60450, Note_on_c, 4, 74, 100
6, 60480, Note_on_c, 4, 74, 0
6, 60480, Note_on_c, 4, 74, 100
6, 60570, Note_on_c, 4, 74, 0
6, 60575, Note_on_c, 4, 65, 100
6, 60605, Note_on_c, 4, 65, 0
6, 60605, Note_on_c, 4, 69, 100
6, 60665, Note_on_c, 4, 69, 0
6, 60665, Note_on_c, 4, 62, 100
6, 60725, Note_on_c, 4, 62, 0
6, 60840, Note_on_c, 4, 67, 100
6, 60847, Note_on_c, 4, 65, 100
6, 60848, Note_on_c, 4, 67, 0
6, 60855, Note_on_c, 4, 65, 0
6, 60855, Note_on_c, 4, 67, 100
6, 60930, Note_on_c, 4, 67, 0
6, 60930, Note_on_c, 4, 71, 100
6, 60959, Note_on_c, 4, 71, 0
6, 60960, Note_on_c, 4, 74, 100
6, 61079, Note_on_c, 4, 74, 0
6, 61080, Note_on_c, 4, 77, 100
6, 61139, Note_on_c, 4, 77, 0
6, 61140, Note_on_c, 4, 76, 100
6, 61147, Note_on_c, 4, 77, 100
6, 61148, Note_on_c, 4, 76, 0
6, 61155, Note_on_c, 4, 77, 0
6, 61155, Note_on_c, 4, 76, 100
6, 61170, Note_on_c, 4, 76, 0
6, 61170, Note_on_c, 4, 77, 100
6, 61199, Note_on_c, 4, 77, 0
6, 61200, Note_on_c, 4, 77, 100
6, 61229, Note_on_c, 4, 77, 0
6, 61230, Note_on_c, 4, 76, 100
6, 61289, Note_on_c, 4, 76, 0
6, 61290, Note_on_c, 4, 79, 100
6, 61319, Note_on_c, 4, 79, 0
6, 61320, Note_on_c, 4, 84, 100
6, 61379, Note_on_c, 4, 84, 0
6, 61380, Note_on_c, 4, 72, 100
6, 61409, Note_on_c, 4, 72, 0
6, 61410, Note_on_c, 4, 74, 100
6, 61439, Note_on_c, 4, 74, 0
6, 61440, Note_on_c, 4, 76, 100
6, 61450, Note_on_c, 4, 76, 0
6, 61450, Note_on_c, 4, 74, 100
6, 61460, Note_on_c, 4, 74, 0
6, 61460, Note_on_c, 4, 76, 100
6, 61470, Note_on_c, 4, 76, 0
6, 61470, Note_on_c, 4, 74, 100
6, 61477, Note_on_c, 4, 76, 100
6, 61478, Note_on_c, 4, 74, 0
6, 61485, Note_on_c, 4, 76, 0
6, 61485, Note_on_c, 4, 74, 100
6, 61492, Note_on_c, 4, 76, 100
6, 61493, Note_on_c, 4, 74, 0
6, 61500, Note_on_c, 4, 76, 0
6, 61500, Note_on_c, 4, 74, 100
6, 61510, Note_on_c, 4, 74, 0
6, 61510, Note_on_c, 4, 76, 100
6, 61520, Note_on_c, 4, 76, 0
6, 61520, Note_on_c, 4, 74, 100
6, 61530, Note_on_c, 4, 74, 0
6, 61530, Note_on_c, 4, 72, 100
6, 61544, Note_on_c, 4, 72, 0
6, 61545, Note_on_c, 4, 74, 100
6, 61559, Note_on_c, 4, 74, 0
6, 61560, Note_on_c, 4, 74, 100
6, 61589, Note_on_c, 4, 74, 0
6, 61590, Note_on_c, 4, 75, 100
6, 61649, Note_on_c, 4, 75, 0
6, 61650, Note_on_c, 4, 79, 100
6, 61679, Note_on_c, 4, 79, 0
6, 61680, Note_on_c, 4, 77, 100
6, 61799, Note_on_c, 4, 77, 0
6, 61800, Note_on_c, 4, 72, 100
6, 61829, Note_on_c, 4, 72, 0
6, 61830, Note_on_c, 4, 75, 100
6, 61859, Note_on_c, 4, 75, 0
6, 61860, Note_on_c, 4, 74, 100
6, 61889, Note_on_c, 4, 74, 0
6, 61890, Note_on_c, 4, 75, 100
6, 61919, Note_on_c, 4, 75, 0
6, 61920, Note_on_c, 4, 75, 100
6, 61949, Note_on_c, 4, 75, 0
6, 61950, Note_on_c, 4, 74, 100
6, 61957, Note_on_c, 4, 72, 100
6, 61958, Note_on_c, 4, 74, 0
6, 61965, Note_on_c, 4, 72, 0
6, 61965, Note_on_c, 4, 74, 100
6, 62010, Note_on_c, 4, 74, 0
6, 62010, Note_on_c, 4, 75, 100
6, 62039, Note_on_c, 4, 75, 0
6, 62040, Note_on_c, 4, 77, 100
6, 62099, Note_on_c, 4, 77, 0
6, 62100, Note_on_c, 4, 75, 100
6, 62129, Note_on_c, 4, 75, 0
6, 62130, Note_on_c, 4, 74, 100
6, 62159, Note_on_c, 4, 74, 0
6, 62160, Note_on_c, 4, 72, 100
6, 62189, Note_on_c, 4, 72, 0
6, 62190, Note_on_c, 4, 70, 100
6, 62219, Note_on_c, 4, 70, 0
6, 62220, Note_on_c, 4, 69, 100
6, 62249, Note_on_c, 4, 69, 0
6, 62250, Note_on_c, 4, 67, 100
6, 62279, Note_on_c, 4, 67, 0
6, 62280, Note_on_c, 4, 69, 100
6, 62309, Note_on_c, 4, 69, 0
6, 62310, Note_on_c, 4, 70, 100
6, 62369, Note_on_c, 4, 70, 0
6, 62370, Note_on_c, 4, 72, 100
6, 62399, Note_on_c, 4, 72, 0
6, 62400, Note_on_c, 4, 70, 100
6, 62489, Note_on_c, 4, 70, 0
6, 62490, Note_on_c, 4, 79, 100
6, 62519, Note_on_c, 4, 79, 0
6, 62520, Note_on_c, 4, 77, 100
6, 62549, Note_on_c, 4, 77, 0
6, 62550, Note_on_c, 4, 76, 100
6, 62579, Note_on_c, 4, 76, 0
6, 62580, Note_on_c, 4, 74, 100
6, 62609, Note_on_c, 4, 74, 0
6, 62610, Note_on_c, 4, 72, 100
6, 62639, Note_on_c, 4, 72, 0
6, 62640, Note_on_c, 4, 70, 100
6, 62669, Note_on_c, 4, 70, 0
6, 62670, Note_on_c, 4, 69, 100
6, 62729, Note_on_c, 4, 69, 0
6, 62730, Note_on_c, 4, 72, 100
6, 62759, Note_on_c, 4, 72, 0
6, 62760, Note_on_c, 4, 77, 100
6, 62849, Note_on_c, 4, 77, 0
6, 62850, Note_on_c, 4, 79, 100
6, 62879, Note_on_c, 4, 79, 0
6, 62880, Note_on_c, 4, 81, 100
6, 62887, Note_on_c, 4, 79, 100
6, 62888, Note_on_c, 4, 81, 0
6, 62895, Note_on_c, 4, 79, 0
6, 62895, Note_on_c, 4, 81, 100
6, 62902, Note_on_c, 4, 79, 100
6, 62903, Note_on_c, 4, 81, 0
6, 62910, Note_on_c, 4, 79, 0
6, 62910, Note_on_c, 4, 77, 100
6, 62924, Note_on_c, 4, 77, 0
6, 62925, Note_on_c, 4, 79, 100
6, 62939, Note_on_c, 4, 79, 0
6, 62940, Note_on_c, 4, 81, 100
6, 63029, Note_on_c, 4, 81, 0
6, 63030, Note_on_c, 4, 79, 100
6, 63059, Note_on_c, 4, 79, 0
6, 63060, Note_on_c, 4, 77, 100
6, 63089, Note_on_c, 4, 77, 0
6, 63090, Note_on_c, 4, 76, 100
6, 63119, Note_on_c, 4, 76, 0
6, 63120, Note_on_c, 4, 77, 100
6, 63149, Note_on_c, 4, 77, 0
6, 63150, Note_on_c, 4, 74, 100
6, 63179, Note_on_c, 4, 74, 0
6, 63180, Note_on_c, 4, 67, 100
6, 63269, Note_on_c, 4, 67, 0
6, 63270, Note_on_c, 4, 81, 100
6, 63299, Note_on_c, 4, 81, 0
6, 63300, Note_on_c, 4, 79, 100
6, 63359, Note_on_c, 4, 79, 0
6, 63360, Note_on_c, 4, 77, 100
6, 63389, Note_on_c, 4, 77, 0
6, 63390, Note_on_c, 4, 76, 100
6, 63449, Note_on_c, 4, 76, 0
6, 63450, Note_on_c, 4, 74, 100
6, 63479, Note_on_c, 4, 74, 0
6, 63480, Note_on_c, 4, 72, 100
6, 63569, Note_on_c, 4, 72, 0
6, 63570, Note_on_c, 4, 74, 100
6, 63599, Note_on_c, 4, 74, 0
6, 63600, Note_on_c, 4, 76, 100
6, 63629, Note_on_c, 4, 76, 0
6, 63630, Note_on_c, 4, 77, 100
6, 63659, Note_on_c, 4, 77, 0
6, 63660, Note_on_c, 4, 79, 100
6, 63689, Note_on_c, 4, 79, 0
6, 63690, Note_on_c, 4, 81, 100
6, 63719, Note_on_c, 4, 81, 0
6, 63720, Note_on_c, 4, 81, 100
6, 63749, Note_on_c, 4, 81, 0
6, 63750, Note_on_c, 4, 82, 100
6, 63809, Note_on_c, 4, 82, 0
6, 63810, Note_on_c, 4, 79, 100
6, 63839, Note_on_c, 4, 79, 0
6, 63840, Note_on_c, 4, 79, 100
6, 63869, Note_on_c, 4, 79, 0
6, 63870, Note_on_c, 4, 81, 100
6, 63959, Note_on_c, 4, 81, 0
6, 63960, Note_on_c, 4, 79, 100
6, 63967, Note_on_c, 4, 81, 100
6, 63968, Note_on_c, 4, 79, 0
6, 63975, Note_on_c, 4, 81, 0
6, 63975, Note_on_c, 4, 79, 100
6, 63990, Note_on_c, 4, 79, 0
6, 63990, Note_on_c, 4, 77, 100
6, 64019, Note_on_c, 4, 77, 0
6, 64020, Note_on_c, 4, 76, 100
6, 64049, Note_on_c, 4, 76, 0
6, 64050, Note_on_c, 4, 77, 100
6, 64079, Note_on_c, 4, 77, 0
6, 64080, Note_on_c, 4, 77, 100
6, 64109, Note_on_c, 4, 77, 0
6, 64110, Note_on_c, 4, 76, 100
6, 64169, Note_on_c, 4, 76, 0
6, 64170, Note_on_c, 4, 77, 100
6, 64199, Note_on_c, 4, 77, 0
6, 64200, Note_on_c, 4, 79, 100
6, 64259, Note_on_c, 4, 79, 0
6, 64260, Note_on_c, 4, 72, 100
6, 64289, Note_on_c, 4, 72, 0
6, 64320, Note_on_c, 4, 76, 100
6, 64349, Note_on_c, 4, 76, 0
6, 64380, Note_on_c, 4, 79, 100
6, 64409, Note_on_c, 4, 79, 0
6, 64440, Note_on_c, 4, 84, 100
6, 64529, Note_on_c, 4, 84, 0
6, 64530, Note_on_c, 4, 81, 100
6, 64559, Note_on_c, 4, 81, 0
6, 64560, Note_on_c, 4, 81, 100
6, 64589, Note_on_c, 4, 81, 0
6, 64590, Note_on_c, 4, 82, 100
6, 64650, Note_on_c, 4, 82, 0
6, 64650, Note_on_c, 4, 79, 100
6, 64679, Note_on_c, 4, 79, 0
6, 64680, Note_on_c, 4, 80, 100
6, 64709, Note_on_c, 4, 80, 0
6, 64710, Note_on_c, 4, 77, 100
6, 64739, Note_on_c, 4, 77, 0
6, 64740, Note_on_c, 4, 77, 100
6, 64769, Note_on_c, 4, 77, 0
6, 64770, Note_on_c, 4, 79, 100
6, 64829, Note_on_c, 4, 79, 0
6, 64830, Note_on_c, 4, 76, 100
6, 64859, Note_on_c, 4, 76, 0
6, 64860, Note_on_c, 4, 77, 100
6, 64889, Note_on_c, 4, 77, 0
6, 64890, Note_on_c, 4, 72, 100
6, 64919, Note_on_c, 4, 72, 0
6, 64920, Note_on_c, 4, 73, 100
6, 64949, Note_on_c, 4, 73, 0
6, 64950, Note_on_c, 4, 71, 100
6, 64979, Note_on_c, 4, 71, 0
6, 64980, Note_on_c, 4, 72, 100
6, 65009, Note_on_c, 4, 72, 0
6, 65010, Note_on_c, 4, 68, 100
6, 65039, Note_on_c, 4, 68, 0
6, 65040, Note_on_c, 4, 70, 100
6, 65069, Note_on_c, 4, 70, 0
6, 65070, Note_on_c, 4, 67, 100
6, 65099, Note_on_c, 4, 67, 0
6, 65100, Note_on_c, 4, 68, 100
6, 65129, Note_on_c, 4, 68, 0
6, 65130, Note_on_c, 4, 65, 100
6, 65159, Note_on_c, 4, 65, 0
6, 65160, Note_on_c, 4, 66, 100
6, 65189, Note_on_c, 4, 66, 0
6, 65190, Note_on_c, 4, 64, 100
6, 65219, Note_on_c, 4, 64, 0
6, 65220, Note_on_c, 4, 65, 100
6, 65249, Note_on_c, 4, 65, 0
6, 65250, Note_on_c, 4, 61, 100
6, 65279, Note_on_c, 4, 61, 0
6, 65280, Note_on_c, 4, 60, 100
6, 65309, Note_on_c, 4, 60, 0
6, 65310, Note_on_c, 4, 59, 100
6, 65339, Note_on_c, 4, 59, 0
6, 65340, Note_on_c, 4, 60, 100
6, 65369, Note_on_c, 4, 60, 0
6, 65370, Note_on_c, 4, 80, 100
6, 65399, Note_on_c, 4, 80, 0
6, 65400, Note_on_c, 4, 77, 100
6, 65429, Note_on_c, 4, 77, 0
6, 65430, Note_on_c, 4, 76, 100
6, 65437, Note_on_c, 4, 77, 100
6, 65438, Note_on_c, 4, 76, 0
6, 65445, Note_on_c, 4, 77, 0
6, 65445, Note_on_c, 4, 76, 100
6, 65452, Note_on_c, 4, 77, 100
6, 65453, Note_on_c, 4, 76, 0
6, 65460, Note_on_c, 4, 77, 0
6, 65460, Note_on_c, 4, 76, 100
6, 65467, Note_on_c, 4, 77, 100
6, 65468, Note_on_c, 4, 76, 0
6, 65475, Note_on_c, 4, 77, 0
6, 65475, Note_on_c, 4, 76, 100
6, 65483, Note_on_c, 4, 76, 0
6, 65490, Note_on_c, 4, 77, 100
6, 65519, Note_on_c, 4, 77, 0
6, 65520, Note_on_c, 4, 77, 100
6, 65549, Note_on_c, 4, 77, 0
6, 65550, Note_on_c, 4, 76, 100
6, 65579, Note_on_c, 4, 76, 0
6, 65580, Note_on_c, 4, 77, 100
6, 65609, Note_on_c, 4, 77, 0
6, 65610, Note_on_c, 4, 80, 100
6, 65639, Note_on_c, 4, 80, 0
6, 65640, Note_on_c, 4, 79, 100
6, 65669, Note_on_c, 4, 79, 0
6, 65670, Note_on_c, 4, 76, 100
6, 65699, Note_on_c, 4, 76, 0
6, 65700, Note_on_c, 4, 77, 100
6, 65729, Note_on_c, 4, 77, 0
6, 65730, Note_on_c, 4, 74, 100
6, 65759, Note_on_c, 4, 74, 0
6, 65760, Note_on_c, 4, 72, 100
6, 65789, Note_on_c, 4, 72, 0
6, 65790, Note_on_c, 4, 71, 100
6, 65849, Note_on_c, 4, 71, 0
6, 65850, Note_on_c, 4, 72, 100
6, 65879, Note_on_c, 4, 72, 0
6, 65880, Note_on_c, 4, 82, 100
6, 65969, Note_on_c, 4, 82, 0
6, 65970, Note_on_c, 4, 79, 100
6, 65999, Note_on_c, 4, 79, 0
6, 66000, Note_on_c, 4, 81, 100
6, 66089, Note_on_c, 4, 81, 0
6, 66090, Note_on_c, 4, 79, 100
6, 66119, Note_on_c, 4, 79, 0
6, 66120, Note_on_c, 4, 77, 100
6, 66130, Note_on_c, 4, 77, 0
6, 66130, Note_on_c, 4, 76, 100
6, 66140, Note_on_c, 4, 76, 0
6, 66140, Note_on_c, 4, 77, 100
6, 66150, Note_on_c, 4, 77, 0
6, 66150, Note_on_c, 4, 76, 100
6, 66157, Note_on_c, 4, 77, 100
6, 66158, Note_on_c, 4, 76, 0
6, 66165, Note_on_c, 4, 77, 0
6, 66165, Note_on_c, 4, 76, 100
6, 66172, Note_on_c, 4, 77, 100
6, 66173, Note_on_c, 4, 76, 0
6, 66180, Note_on_c, 4, 77, 0
6, 66180, Note_on_c, 4, 76, 100
6, 66190, Note_on_c, 4, 76, 0
6, 66190, Note_on_c, 4, 77, 100
6, 66200, Note_on_c, 4, 77, 0
6, 66200, Note_on_c, 4, 76, 100
6, 66210, Note_on_c, 4, 76, 0
6, 66210, Note_on_c, 4, 77, 100
6, 66239, Note_on_c, 4, 77, 0
6, 66240, Note_on_c, 4, 77, 100
6, 66247, Note_on_c, 4, 76, 100
6, 66248, Note_on_c, 4, 77, 0
6, 66255, Note_on_c, 4, 76, 0
6, 66255, Note_on_c, 4, 77, 100
6, 66330, Note_on_c, 4, 77, 0
6, 66330, Note_on_c, 4, 69, 100
6, 66359, Note_on_c, 4, 69, 0
6, 66360, Note_on_c, 4, 72, 100
6, 66419, Note_on_c, 4, 72, 0
6, 66420, Note_on_c, 4, 65, 100
6, 66449, Note_on_c, 4, 65, 0
6, 66600, Note_on_c, 4, 65, 100
6, 66629, Note_on_c, 4, 65, 0
6, 66630, Note_on_c, 4, 67, 100
6, 66659, Note_on_c, 4, 67, 0
6, 66660, Note_on_c, 4, 69, 100
6, 66689, Note_on_c, 4, 69, 0
6, 66690, Note_on_c, 4, 70, 100
6, 66719, Note_on_c, 4, 70, 0
6, 66720, Note_on_c, 4, 72, 100
6, 66749, Note_on_c, 4, 72, 0
6, 66750, Note_on_c, 4, 74, 100
6, 66779, Note_on_c, 4, 74, 0
6, 66780, Note_on_c, 4, 75, 100
6, 66809, Note_on_c, 4, 75, 0
6, 66810, Note_on_c, 4, 74, 100
6, 66839, Note_on_c, 4, 74, 0
6, 66840, Note_on_c, 4, 75, 100
6, 66869, Note_on_c, 4, 75, 0
6, 66870, Note_on_c, 4, 79, 100
6, 66899, Note_on_c, 4, 79, 0
6, 66900, Note_on_c, 4, 77, 100
6, 66929, Note_on_c, 4, 77, 0
6, 66930, Note_on_c, 4, 75, 100
6, 66959, Note_on_c, 4, 75, 0
6, 66960, Note_on_c, 4, 74, 100
6, 66989, Note_on_c, 4, 74, 0
6, 66990, Note_on_c, 4, 76, 100
6, 67019, Note_on_c, 4, 76, 0
6, 67020, Note_on_c, 4, 78, 100
6, 67049, Note_on_c, 4, 78, 0
6, 67050, Note_on_c, 4, 79, 100
6, 67079, Note_on_c, 4, 79, 0
6, 67080, Note_on_c, 4, 81, 100
6, 67109, Note_on_c, 4, 81, 0
6, 67110, Note_on_c, 4, 82, 100
6, 67139, Note_on_c, 4, 82, 0
6, 67140, Note_on_c, 4, 72, 100
6, 67169, Note_on_c, 4, 72, 0
6, 67170, Note_on_c, 4, 70, 100
6, 67199, Note_on_c, 4, 70, 0
6, 67200, Note_on_c, 4, 72, 100
6, 67229, Note_on_c, 4, 72, 0
6, 67230, Note_on_c, 4, 81, 100
6, 67259, Note_on_c, 4, 81, 0
6, 67260, Note_on_c, 4, 82, 100
6, 67289, Note_on_c, 4, 82, 0
6, 67290, Note_on_c, 4, 84, 100
6, 67319, Note_on_c, 4, 84, 0
6, 67320, Note_on_c, 4, 82, 100
6, 67349, Note_on_c, 4, 82, 0
6, 67350, Note_on_c, 4, 81, 100
6, 67379, Note_on_c, 4, 81, 0
6, 67380, Note_on_c, 4, 79, 100
6, 67409, Note_on_c, 4, 79, 0
6, 67410, Note_on_c, 4, 81, 100
6, 67439, Note_on_c, 4, 81, 0
6, 67440, Note_on_c, 4, 82, 100
6, 67469, Note_on_c, 4, 82, 0
6, 67470, Note_on_c, 4, 77, 100
6, 67499, Note_on_c, 4, 77, 0
6, 67500, Note_on_c, 4, 75, 100
6, 67529, Note_on_c, 4, 75, 0
6, 67530, Note_on_c, 4, 74, 100
6, 67559, Note_on_c, 4, 74, 0
6, 67560, Note_on_c, 4, 75, 100
6, 67589, Note_on_c, 4, 75, 0
6, 67590, Note_on_c, 4, 84, 100
6, 67619, Note_on_c, 4, 84, 0
6, 67620, Note_on_c, 4, 81, 100
6, 67649, Note_on_c, 4, 81, 0
6, 67650, Note_on_c, 4, 82, 100
6, 67679, Note_on_c, 4, 82, 0
6, 67680, Note_on_c, 4, 78, 100
6, 67709, Note_on_c, 4, 78, 0
6, 67710, Note_on_c, 4, 79, 100
6, 67739, Note_on_c, 4, 79, 0
6, 67740, Note_on_c, 4, 81, 100
6, 67769, Note_on_c, 4, 81, 0
6, 67770, Note_on_c, 4, 72, 100
6, 67799, Note_on_c, 4, 72, 0
6, 67800, Note_on_c, 4, 74, 100
6, 67829, Note_on_c, 4, 74, 0
6, 67830, Note_on_c, 4, 75, 100
6, 67859, Note_on_c, 4, 75, 0
6, 67860, Note_on_c, 4, 69, 100
6, 67889, Note_on_c, 4, 69, 0
6, 67890, Note_on_c, 4, 70, 100
6, 67919, Note_on_c, 4, 70, 0
6, 67920, Note_on_c, 4, 72, 100
6, 67949, Note_on_c, 4, 72, 0
6, 67950, Note_on_c, 4, 75, 100
6, 67979, Note_on_c, 4, 75, 0
6, 67980, Note_on_c, 4, 74, 100
6, 68009, Note_on_c, 4, 74, 0
6, 68010, Note_on_c, 4, 72, 100
6, 68039, Note_on_c, 4, 72, 0
6, 68040, Note_on_c, 4, 70, 100
6, 68069, Note_on_c, 4, 70, 0
6, 68070, Note_on_c, 4, 69, 100
6, 68099, Note_on_c, 4, 69, 0
6, 68100, Note_on_c, 4, 70, 100
6, 68129, Note_on_c, 4, 70, 0
6, 68130, Note_on_c, 4, 74, 100
6, 68159, Note_on_c, 4, 74, 0
6, 68160, Note_on_c, 4, 76, 100
6, 68189, Note_on_c, 4, 76, 0
6, 68190, Note_on_c, 4, 77, 100
6, 68219, Note_on_c, 4, 77, 0
6, 68220, Note_on_c, 4, 79, 100
6, 68249, Note_on_c, 4, 79, 0
6, 68250, Note_on_c, 4, 76, 100
6, 68279, Note_on_c, 4, 76, 0
6, 68280, Note_on_c, 4, 77, 100
6, 68309, Note_on_c, 4, 77, 0
6, 68310, Note_on_c, 4, 79, 100
6, 68339, Note_on_c, 4, 79, 0
6, 68340, Note_on_c, 4, 81, 100
6, 68369, Note_on_c, 4, 81, 0
6, 68370, Note_on_c, 4, 82, 100
6, 68399, Note_on_c, 4, 82, 0
6, 68400, Note_on_c, 4, 73, 100
6, 68429, Note_on_c, 4, 73, 0
6, 68430, Note_on_c, 4, 76, 100
6, 68459, Note_on_c, 4, 76, 0
6, 68460, Note_on_c, 4, 74, 100
6, 68489, Note_on_c, 4, 74, 0
6, 68490, Note_on_c, 4, 73, 100
6, 68519, Note_on_c, 4, 73, 0
6, 68520, Note_on_c, 4, 71, 100
6, 68549, Note_on_c, 4, 71, 0
6, 68550, Note_on_c, 4, 69, 100
6, 68579, Note_on_c, 4, 69, 0
6, 68580, Note_on_c, 4, 76, 100
6, 68609, Note_on_c, 4, 76, 0
6, 68610, Note_on_c, 4, 70, 100
6, 68639, Note_on_c, 4, 70, 0
6, 68640, Note_on_c, 4, 69, 100
6, 68669, Note_on_c, 4, 69, 0
6, 68670, Note_on_c, 4, 67, 100
6, 68699, Note_on_c, 4, 67, 0
6, 68700, Note_on_c, 4, 65, 100
6, 68729, Note_on_c, 4, 65, 0
6, 68730, Note_on_c, 4, 64, 100
6, 68759, Note_on_c, 4, 64, 0
6, 68760, Note_on_c, 4, 65, 100
6, 68789, Note_on_c, 4, 65, 0
6, 68790, Note_on_c, 4, 64, 100
6, 68819, Note_on_c, 4, 64, 0
6, 68820, Note_on_c, 4, 65, 100
6, 68849, Note_on_c, 4, 65, 0
6, 68850, Note_on_c, 4, 69, 100
6, 68879, Note_on_c, 4, 69, 0
6, 68880, Note_on_c, 4, 74, 100
6, 68909, Note_on_c, 4, 74, 0
6, 68910, Note_on_c, 4, 73, 100
6, 68939, Note_on_c, 4, 73, 0
6, 68940, Note_on_c, 4, 74, 100
6, 68969, Note_on_c, 4, 74, 0
6, 68970, Note_on_c, 4, 76, 100
6, 68999, Note_on_c, 4, 76, 0
6, 69000, Note_on_c, 4, 77, 100
6, 69029, Note_on_c, 4, 77, 0
6, 69030, Note_on_c, 4, 79, 100
6, 69059, Note_on_c, 4, 79, 0
6, 69060, Note_on_c, 4, 81, 100
6, 69089, Note_on_c, 4, 81, 0
6, 69090, Note_on_c, 4, 73, 100
6, 69149, Note_on_c, 4, 73, 0
6, 69150, Note_on_c, 4, 74, 100
6, 69179, Note_on_c, 4, 74, 0
6, 69180, Note_on_c, 4, 65, 100
6, 69209, Note_on_c, 4, 65, 0
6, 69210, Note_on_c, 4, 67, 100
6, 69239, Note_on_c, 4, 67, 0
6, 69240, Note_on_c, 4, 69, 100
6, 69269, Note_on_c, 4, 69, 0
6, 69270, Note_on_c, 4, 65, 100
6, 69299, Note_on_c, 4, 65, 0
6, 69300, Note_on_c, 4, 62, 100
6, 69419, Note_on_c, 4, 62, 0
6, 69480, Note_on_c, 4, 67, 100
6, 69509, Note_on_c, 4, 67, 0
6, 69510, Note_on_c, 4, 69, 100
6, 69539, Note_on_c, 4, 69, 0
6, 69540, Note_on_c, 4, 71, 100
6, 69569, Note_on_c, 4, 71, 0
6, 69570, Note_on_c, 4, 72, 100
6, 69599, Note_on_c, 4, 72, 0
6, 69600, Note_on_c, 4, 74, 100
6, 69629, Note_on_c, 4, 74, 0
6, 69630, Note_on_c, 4, 76, 100
6, 69659, Note_on_c, 4, 76, 0
6, 69660, Note_on_c, 4, 77, 100
6, 69689, Note_on_c, 4, 77, 0
6, 69690, Note_on_c, 4, 76, 100
6, 69719, Note_on_c, 4, 76, 0
6, 69720, Note_on_c, 4, 77, 100
6, 69749, Note_on_c, 4, 77, 0
6, 69750, Note_on_c, 4, 81, 100
6, 69779, Note_on_c, 4, 81, 0
6, 69780, Note_on_c, 4, 79, 100
6, 69809, Note_on_c, 4, 79, 0
6, 69810, Note_on_c, 4, 77, 100
6, 69839, Note_on_c, 4, 77, 0
6, 69840, Note_on_c, 4, 76, 100
6, 69869, Note_on_c, 4, 76, 0
6, 69870, Note_on_c, 4, 77, 100
6, 69899, Note_on_c, 4, 77, 0
6, 69900, Note_on_c, 4, 79, 100
6, 69929, Note_on_c, 4, 79, 0
6, 69930, Note_on_c, 4, 81, 100
6, 69959, Note_on_c, 4, 81, 0
6, 69960, Note_on_c, 4, 82, 100
6, 69989, Note_on_c, 4, 82, 0
6, 69990, Note_on_c, 4, 84, 100
6, 70019, Note_on_c, 4, 84, 0
6, 70020, Note_on_c, 4, 77, 100
6, 70049, Note_on_c, 4, 77, 0
6, 70050, Note_on_c, 4, 76, 100
6, 70079, Note_on_c, 4, 76, 0
6, 70080, Note_on_c, 4, 74, 100
6, 70109, Note_on_c, 4, 74, 0
6, 70110, Note_on_c, 4, 72, 100
6, 70139, Note_on_c, 4, 72, 0
6, 70140, Note_on_c, 4, 75, 100
6, 70169, Note_on_c, 4, 75, 0
6, 70170, Note_on_c, 4, 74, 100
6, 70199, Note_on_c, 4, 74, 0
6, 70200, Note_on_c, 4, 75, 100
6, 70229, Note_on_c, 4, 75, 0
6, 70230, Note_on_c, 4, 74, 100
6, 70259, Note_on_c, 4, 74, 0
6, 70260, Note_on_c, 4, 75, 100
6, 70289, Note_on_c, 4, 75, 0
6, 70290, Note_on_c, 4, 81, 100
6, 70319, Note_on_c, 4, 81, 0
6, 70320, Note_on_c, 4, 82, 100
6, 70349, Note_on_c, 4, 82, 0
6, 70350, Note_on_c, 4, 84, 100
6, 70379, Note_on_c, 4, 84, 0
6, 70380, Note_on_c, 4, 82, 100
6, 70409, Note_on_c, 4, 82, 0
6, 70410, Note_on_c, 4, 81, 100
6, 70439, Note_on_c, 4, 81, 0
6, 70440, Note_on_c, 4, 79, 100
6, 70469, Note_on_c, 4, 79, 0
6, 70470, Note_on_c, 4, 77, 100
6, 70499, Note_on_c, 4, 77, 0
6, 70500, Note_on_c, 4, 84, 100
6, 70529, Note_on_c, 4, 84, 0
6, 70530, Note_on_c, 4, 75, 100
6, 70559, Note_on_c, 4, 75, 0
6, 70560, Note_on_c, 4, 74, 100
6, 70589, Note_on_c, 4, 74, 0
6, 70590, Note_on_c, 4, 75, 100
6, 70619, Note_on_c, 4, 75, 0
6, 70620, Note_on_c, 4, 77, 100
6, 70649, Note_on_c, 4, 77, 0
6, 70650, Note_on_c, 4, 82, 100
6, 70679, Note_on_c, 4, 82, 0
6, 70680, Note_on_c, 4, 74, 100
6, 70709, Note_on_c, 4, 74, 0
6, 70710, Note_on_c, 4, 72, 100
6, 70739, Note_on_c, 4, 72, 0
6, 70740, Note_on_c, 4, 70, 100
6, 70769, Note_on_c, 4, 70, 0
6, 70770, Note_on_c, 4, 74, 100
6, 70799, Note_on_c, 4, 74, 0
6, 70800, Note_on_c, 4, 72, 100
6, 70829, Note_on_c, 4, 72, 0
6, 70830, Note_on_c, 4, 70, 100
6, 70859, Note_on_c, 4, 70, 0
6, 70860, Note_on_c, 4, 69, 100
6, 70889, Note_on_c, 4, 69, 0
6, 70890, Note_on_c, 4, 67, 100
6, 70919, Note_on_c, 4, 67, 0
6, 70920, Note_on_c, 4, 70, 100
6, 70949, Note_on_c, 4, 70, 0
6, 70950, Note_on_c, 4, 69, 100
6, 70979, Note_on_c, 4, 69, 0
6, 70980, Note_on_c, 4, 70, 100
6, 71009, Note_on_c, 4, 70, 0
6, 71010, Note_on_c, 4, 76, 100
6, 71039, Note_on_c, 4, 76, 0
6, 71040, Note_on_c, 4, 77, 100
6, 71069, Note_on_c, 4, 77, 0
6, 71070, Note_on_c, 4, 79, 100
6, 71099, Note_on_c, 4, 79, 0
6, 71100, Note_on_c, 4, 77, 100
6, 71129, Note_on_c, 4, 77, 0
6, 71130, Note_on_c, 4, 76, 100
6, 71159, Note_on_c, 4, 76, 0
6, 71160, Note_on_c, 4, 74, 100
6, 71189, Note_on_c, 4, 74, 0
6, 71190, Note_on_c, 4, 72, 100
6, 71219, Note_on_c, 4, 72, 0
6, 71220, Note_on_c, 4, 79, 100
6, 71249, Note_on_c, 4, 79, 0
6, 71250, Note_on_c, 4, 70, 100
6, 71279, Note_on_c, 4, 70, 0
6, 71280, Note_on_c, 4, 69, 100
6, 71309, Note_on_c, 4, 69, 0
6, 71310, Note_on_c, 4, 70, 100
6, 71339, Note_on_c, 4, 70, 0
6, 71340, Note_on_c, 4, 72, 100
6, 71369, Note_on_c, 4, 72, 0
6, 71370, Note_on_c, 4, 77, 100
6, 71399, Note_on_c, 4, 77, 0
6, 71400, Note_on_c, 4, 69, 100
6, 71429, Note_on_c, 4, 69, 0
6, 71430, Note_on_c, 4, 67, 100
6, 71459, Note_on_c, 4, 67, 0
6, 71460, Note_on_c, 4, 65, 100
6, 71489, Note_on_c, 4, 65, 0
6, 71490, Note_on_c, 4, 69, 100
6, 71519, Note_on_c, 4, 69, 0
6, 71520, Note_on_c, 4, 72, 100
6, 71549, Note_on_c, 4, 72, 0
6, 71550, Note_on_c, 4, 76, 100
6, 71579, Note_on_c, 4, 76, 0
6, 71580, Note_on_c, 4, 77, 100
6, 71609, Note_on_c, 4, 77, 0
6, 71610, Note_on_c, 4, 79, 100
6, 71639, Note_on_c, 4, 79, 0
6, 71640, Note_on_c, 4, 77, 100
6, 71669, Note_on_c, 4, 77, 0
6, 71670, Note_on_c, 4, 76, 100
6, 71699, Note_on_c, 4, 76, 0
6, 71700, Note_on_c, 4, 77, 100
6, 71729, Note_on_c, 4, 77, 0
6, 71730, Note_on_c, 4, 81, 100
6, 71759, Note_on_c, 4, 81, 0
6, 71760, Note_on_c, 4, 74, 100
6, 71789, Note_on_c, 4, 74, 0
6, 71790, Note_on_c, 4, 77, 100
6, 71819, Note_on_c, 4, 77, 0
6, 71820, Note_on_c, 4, 71, 100
6, 71849, Note_on_c, 4, 71, 0
6, 71850, Note_on_c, 4, 74, 100
6, 71879, Note_on_c, 4, 74, 0
6, 71880, Note_on_c, 4, 77, 100
6, 71909, Note_on_c, 4, 77, 0
6, 71910, Note_on_c, 4, 81, 100
6, 71939, Note_on_c, 4, 81, 0
6, 71940, Note_on_c, 4, 79, 100
6, 71969, Note_on_c, 4, 79, 0
6, 71970, Note_on_c, 4, 77, 100
6, 71999, Note_on_c, 4, 77, 0
6, 72000, Note_on_c, 4, 76, 100
6, 72029, Note_on_c, 4, 76, 0
6, 72030, Note_on_c, 4, 77, 100
6, 72059, Note_on_c, 4, 77, 0
6, 72060, Note_on_c, 4, 79, 100
6, 72089, Note_on_c, 4, 79, 0
6, 72090, Note_on_c, 4, 84, 100
6, 72119, Note_on_c, 4, 84, 0
6, 72120, Note_on_c, 4, 76, 100
6, 72149, Note_on_c, 4, 76, 0
6, 72150, Note_on_c, 4, 74, 100
6, 72179, Note_on_c, 4, 74, 0
6, 72180, Note_on_c, 4, 72, 100
6, 72209, Note_on_c, 4, 72, 0
6, 72210, Note_on_c, 4, 74, 100
6, 72239, Note_on_c, 4, 74, 0
6, 72240, Note_on_c, 4, 76, 100
6, 72269, Note_on_c, 4, 76, 0
6, 72270, Note_on_c, 4, 77, 100
6, 72299, Note_on_c, 4, 77, 0
6, 72300, Note_on_c, 4, 79, 100
6, 72329, Note_on_c, 4, 79, 0
6, 72330, Note_on_c, 4, 81, 100
6, 72359, Note_on_c, 4, 81, 0
6, 72360, Note_on_c, 4, 82, 100
6, 72389, Note_on_c, 4, 82, 0
6, 72390, Note_on_c, 4, 81, 100
6, 72419, Note_on_c, 4, 81, 0
6, 72420, Note_on_c, 4, 82, 100
6, 72449, Note_on_c, 4, 82, 0
6, 72450, Note_on_c, 4, 79, 100
6, 72479, Note_on_c, 4, 79, 0
6, 72480, Note_on_c, 4, 81, 100
6, 72509, Note_on_c, 4, 81, 0
6, 72510, Note_on_c, 4, 79, 100
6, 72539, Note_on_c, 4, 79, 0
6, 72540, Note_on_c, 4, 81, 100
6, 72569, Note_on_c, 4, 81, 0
6, 72570, Note_on_c, 4, 77, 100
6, 72599, Note_on_c, 4, 77, 0
6, 72600, Note_on_c, 4, 79, 100
6, 72629, Note_on_c, 4, 79, 0
6, 72630, Note_on_c, 4, 76, 100
6, 72659, Note_on_c, 4, 76, 0
6, 72660, Note_on_c, 4, 77, 100
6, 72689, Note_on_c, 4, 77, 0
6, 72690, Note_on_c, 4, 74, 100
6, 72719, Note_on_c, 4, 74, 0
6, 72720, Note_on_c, 4, 76, 100
6, 72749, Note_on_c, 4, 76, 0
6, 72750, Note_on_c, 4, 74, 100
6, 72779, Note_on_c, 4, 74, 0
6, 72780, Note_on_c, 4, 76, 100
6, 72809, Note_on_c, 4, 76, 0
6, 72810, Note_on_c, 4, 72, 100
6, 72839, Note_on_c, 4, 72, 0
6, 72840, Note_on_c, 4, 74, 100
6, 72869, Note_on_c, 4, 74, 0
6, 72870, Note_on_c, 4, 71, 100
6, 72899, Note_on_c, 4, 71, 0
6, 72900, Note_on_c, 4, 72, 100
6, 72929, Note_on_c, 4, 72, 0
6, 72930, Note_on_c, 4, 76, 100
6, 72959, Note_on_c, 4, 76, 0
6, 72960, Note_on_c, 4, 79, 100
6, 72989, Note_on_c, 4, 79, 0
6, 72990, Note_on_c, 4, 72, 100
6, 73019, Note_on_c, 4, 72, 0
6, 73020, Note_on_c, 4, 76, 100
6, 73049, Note_on_c, 4, 76, 0
6, 73050, Note_on_c, 4, 79, 100
6, 73079, Note_on_c, 4, 79, 0
6, 73080, Note_on_c, 4, 84, 100
6, 73109, Note_on_c, 4, 84, 0
6, 73110, Note_on_c, 4, 82, 100
6, 73139, Note_on_c, 4, 82, 0
6, 73140, Note_on_c, 4, 84, 100
6, 73169, Note_on_c, 4, 84, 0
6, 73170, Note_on_c, 4, 81, 100
6, 73199, Note_on_c, 4, 81, 0
6, 73200, Note_on_c, 4, 82, 100
6, 73229, Note_on_c, 4, 82, 0
6, 73230, Note_on_c, 4, 81, 100
6, 73259, Note_on_c, 4, 81, 0
6, 73260, Note_on_c, 4, 82, 100
6, 73289, Note_on_c, 4, 82, 0
6, 73290, Note_on_c, 4, 79, 100
6, 73319, Note_on_c, 4, 79, 0
6, 73320, Note_on_c, 4, 80, 100
6, 73349, Note_on_c, 4, 80, 0
6, 73350, Note_on_c, 4, 77, 100
6, 73379, Note_on_c, 4, 77, 0
6, 73380, Note_on_c, 4, 79, 100
6, 73409, Note_on_c, 4, 79, 0
6, 73410, Note_on_c, 4, 77, 100
6, 73439, Note_on_c, 4, 77, 0
6, 73440, Note_on_c, 4, 79, 100
6, 73469, Note_on_c, 4, 79, 0
6, 73470, Note_on_c, 4, 76, 100
6, 73499, Note_on_c, 4, 76, 0
6, 73500, Note_on_c, 4, 77, 100
6, 73529, Note_on_c, 4, 77, 0
6, 73530, Note_on_c, 4, 72, 100
6, 73559, Note_on_c, 4, 72, 0
6, 73560, Note_on_c, 4, 73, 100
6, 73589, Note_on_c, 4, 73, 0
6, 73590, Note_on_c, 4, 71, 100
6, 73619, Note_on_c, 4, 71, 0
6, 73620, Note_on_c, 4, 72, 100
6, 73649, Note_on_c, 4, 72, 0
6, 73650, Note_on_c, 4, 80, 100
6, 73679, Note_on_c, 4, 80, 0
6, 73680, Note_on_c, 4, 70, 100
6, 73709, Note_on_c, 4, 70, 0
6, 73710, Note_on_c, 4, 79, 100
6, 73739, Note_on_c, 4, 79, 0
6, 73740, Note_on_c, 4, 68, 100
6, 73769, Note_on_c, 4, 68, 0
6, 73770, Note_on_c, 4, 77, 100
6, 73799, Note_on_c, 4, 77, 0
6, 73800, Note_on_c, 4, 66, 100
6, 73829, Note_on_c, 4, 66, 0
6, 73830, Note_on_c, 4, 70, 100
6, 73859, Note_on_c, 4, 70, 0
6, 73860, Note_on_c, 4, 64, 100
6, 73889, Note_on_c, 4, 64, 0
6, 73890, Note_on_c, 4, 65, 100
6, 73919, Note_on_c, 4, 65, 0
6, 73920, Note_on_c, 4, 59, 100
6, 73949, Note_on_c, 4, 59, 0
6, 73950, Note_on_c, 4, 60, 100
6, 73979, Note_on_c, 4, 60, 0
6, 74010, Note_on_c, 4, 80, 100
6, 74039, Note_on_c, 4, 80, 0
6, 74040, Note_on_c, 4, 79, 100
6, 74069, Note_on_c, 4, 79, 0
6, 74070, Note_on_c, 4, 82, 100
6, 74099, Note_on_c, 4, 82, 0
6, 74100, Note_on_c, 4, 76, 100
6, 74129, Note_on_c, 4, 76, 0
6, 74130, Note_on_c, 4, 77, 100
6, 74159, Note_on_c, 4, 77, 0
6, 74160, Note_on_c, 4, 65, 100
6, 74189, Note_on_c, 4, 65, 0
6, 74190, Note_on_c, 4, 77, 100
6, 74219, Note_on_c, 4, 77, 0
6, 74220, Note_on_c, 4, 80, 100
6, 74249, Note_on_c, 4, 80, 0
6, 74250, Note_on_c, 4, 77, 100
6, 74279, Note_on_c, 4, 77, 0
6, 74280, Note_on_c, 4, 76, 100
6, 74309, Note_on_c, 4, 76, 0
6, 74310, Note_on_c, 4, 77, 100
6, 74339, Note_on_c, 4, 77, 0
6, 74340, Note_on_c, 4, 71, 100
6, 74369, Note_on_c, 4, 71, 0
6, 74370, Note_on_c, 4, 74, 100
6, 74399, Note_on_c, 4, 74, 0
6, 74400, Note_on_c, 4, 77, 100
6, 74429, Note_on_c, 4, 77, 0
6, 74430, Note_on_c, 4, 80, 100
6, 74459, Note_on_c, 4, 80, 0
6, 74460, Note_on_c, 4, 79, 100
6, 74489, Note_on_c, 4, 79, 0
6, 74490, Note_on_c, 4, 77, 100
6, 74519, Note_on_c, 4, 77, 0
6, 74520, Note_on_c, 4, 82, 100
6, 74549, Note_on_c, 4, 82, 0
6, 74550, Note_on_c, 4, 79, 100
6, 74579, Note_on_c, 4, 79, 0
6, 74580, Note_on_c, 4, 76, 100
6, 74609, Note_on_c, 4, 76, 0
6, 74610, Note_on_c, 4, 72, 100
6, 74639, Note_on_c, 4, 72, 0
6, 74640, Note_on_c, 4, 81, 100
6, 74669, Note_on_c, 4, 81, 0
6, 74670, Note_on_c, 4, 77, 100
6, 74699, Note_on_c, 4, 77, 0
6, 74700, Note_on_c, 4, 74, 100
6, 74729, Note_on_c, 4, 74, 0
6, 74730, Note_on_c, 4, 79, 100
6, 74759, Note_on_c, 4, 79, 0
6, 74760, Note_on_c, 4, 77, 100
6, 74789, Note_on_c, 4, 77, 0
6, 74790, Note_on_c, 4, 76, 100
6, 74819, Note_on_c, 4, 76, 0
6, 74820, Note_on_c, 4, 77, 100
6, 74849, Note_on_c, 4, 77, 0
6, 74850, Note_on_c, 4, 76, 100
6, 74909, Note_on_c, 4, 76, 0
6, 74910, Note_on_c, 4, 77, 100
6, 74939, Note_on_c, 4, 77, 0
6, 74940, Note_on_c, 4, 69, 100
6, 74969, Note_on_c, 4, 69, 0
6, 74970, Note_on_c, 4, 70, 100
6, 74999, Note_on_c, 4, 70, 0
6, 75000, Note_on_c, 4, 72, 100
6, 75029, Note_on_c, 4, 72, 0
6, 75030, Note_on_c, 4, 69, 100
6, 75059, Note_on_c, 4, 69, 0
6, 75060, Note_on_c, 4, 65, 100
6, 75195, Note_on_c, 4, 65, 0
6, 75195, Note_on_c, 4, 64, 100
6, 75210, Note_on_c, 4, 64, 0
6, 75210, Note_on_c, 4, 65, 100
6, 75225, Note_on_c, 4, 65, 0
6, 75225, Note_on_c, 4, 67, 100
6, 75240, Note_on_c, 4, 67, 0
6, 75240, Note_on_c, 4, 69, 100
6, 75249, Note_on_c, 4, 69, 0
6, 75250, Note_on_c, 4, 70, 100
6, 75259, Note_on_c, 4, 70, 0
6, 75260, Note_on_c, 4, 72, 100
6, 75269, Note_on_c, 4, 72, 0
6, 75270, Note_on_c, 4, 69, 100
6, 75279, Note_on_c, 4, 69, 0
6, 75280, Note_on_c, 4, 70, 100
6, 75289, Note_on_c, 4, 70, 0
6, 75290, Note_on_c, 4, 72, 100
6, 75299, Note_on_c, 4, 72, 0
6, 75300, Note_on_c, 4, 74, 100
6, 75309, Note_on_c, 4, 74, 0
6, 75310, Note_on_c, 4, 76, 100
6, 75319, Note_on_c, 4, 76, 0
6, 75320, Note_on_c, 4, 77, 100
6, 75329, Note_on_c, 4, 77, 0
6, 75330, Note_on_c, 4, 72, 100
6, 75339, Note_on_c, 4, 72, 0
6, 75340, Note_on_c, 4, 74, 100
6, 75349, Note_on_c, 4, 74, 0
6, 75350, Note_on_c, 4, 76, 100
6, 75359, Note_on_c, 4, 76, 0
6, 75360, Note_on_c, 4, 77, 100
6, 75369, Note_on_c, 4, 77, 0
6, 75370, Note_on_c, 4, 79, 100
6, 75379, Note_on_c, 4, 79, 0
6, 75380, Note_on_c, 4, 81, 100
6, 75389, Note_on_c, 4, 81, 0
6, 75390, Note_on_c, 4, 76, 100
6, 75399, Note_on_c, 4, 76, 0
6, 75400, Note_on_c, 4, 77, 100
6, 75409, Note_on_c, 4, 77, 0
6, 75410, Note_on_c, 4, 79, 100
6, 75419, Note_on_c, 4, 79, 0
6, 75420, Note_on_c, 4, 81, 100
6, 75429, Note_on_c, 4, 81, 0
6, 75430, Note_on_c, 4, 82, 100
6, 75439, Note_on_c, 4, 82, 0
6, 75440, Note_on_c, 4, 84, 100
6, 75449, Note_on_c, 4, 84, 0
6, 75450, Note_on_c, 4, 86, 100
6, 75459, Note_on_c, 4, 86, 0
6, 75460, Note_on_c, 4, 84, 100
6, 75469, Note_on_c, 4, 84, 0
6, 75470, Note_on_c, 4, 82, 100
6, 75479, Note_on_c, 4, 82, 0
6, 75480, Note_on_c, 4, 81, 100
6, 75489, Note_on_c, 4, 81, 0
6, 75490, Note_on_c, 4, 82, 100
6, 75499, Note_on_c, 4, 82, 0
6, 75500, Note_on_c, 4, 81, 100
6, 75509, Note_on_c, 4, 81, 0
6, 75510, Note_on_c, 4, 79, 100
6, 75519, Note_on_c, 4, 79, 0
6, 75520, Note_on_c, 4, 77, 100
6, 75529, Note_on_c, 4, 77, 0
6, 75530, Note_on_c, 4, 76, 100
6, 75539, Note_on_c, 4, 76, 0
6, 75540, Note_on_c, 4, 77, 100
6, 75549, Note_on_c, 4, 77, 0
6, 75550, Note_on_c, 4, 79, 100
6, 75559, Note_on_c, 4, 79, 0
6, 75560, Note_on_c, 4, 77, 100
6, 75569, Note_on_c, 4, 77, 0
6, 75570, Note_on_c, 4, 76, 100
6, 75579, Note_on_c, 4, 76, 0
6, 75580, Note_on_c, 4, 74, 100
6, 75589, Note_on_c, 4, 74, 0
6, 75590, Note_on_c, 4, 73, 100
6, 75599, Note_on_c, 4, 73, 0
6, 75600, Note_on_c, 4, 74, 100
6, 75609, Note_on_c, 4, 74, 0
6, 75610, Note_on_c, 4, 70, 100
6, 75619, Note_on_c, 4, 70, 0
6, 75620, Note_on_c, 4, 69, 100
6, 75629, Note_on_c, 4, 69, 0
6, 75630, Note_on_c, 4, 67, 100
6, 75639, Note_on_c, 4, 67, 0
6, 75640, Note_on_c, 4, 65, 100
6, 75649, Note_on_c, 4, 65, 0
6, 75650, Note_on_c, 4, 64, 100
6, 75659, Note_on_c, 4, 64, 0
6, 75660, Note_on_c, 4, 65, 100
6, 75669, Note_on_c, 4, 65, 0
6, 75670, Note_on_c, 4, 67, 100
6, 75679, Note_on_c, 4, 67, 0
6, 75680, Note_on_c, 4, 65, 100
6, 75689, Note_on_c, 4, 65, 0
6, 75690, Note_on_c, 4, 64, 100
6, 75699, Note_on_c, 4, 64, 0
6, 75700, Note_on_c, 4, 62, 100
6, 75709, Note_on_c, 4, 62, 0
6, 75710, Note_on_c, 4, 61, 100
6, 75719, Note_on_c, 4, 61, 0
6, 75720, Note_on_c, 4, 62, 100
6, 75729, Note_on_c, 4, 62, 0
6, 75730, Note_on_c, 4, 65, 100
6, 75739, Note_on_c, 4, 65, 0
6, 75740, Note_on_c, 4, 64, 100
6, 75749, Note_on_c, 4, 64, 0
6, 75750, Note_on_c, 4, 62, 100
6, 75759, Note_on_c, 4, 62, 0
6, 75760, Note_on_c, 4, 61, 100
6, 75769, Note_on_c, 4, 61, 0
6, 75770, Note_on_c, 4, 62, 100
6, 75779, Note_on_c, 4, 62, 0
6, 76140, Note_on_c, 4, 74, 110
6, 76140, Note_on_c, 4, 69, 110
6, 76150, Note_on_c, 4, 74, 0
6, 76150, Note_on_c, 4, 76, 110
6, 76160, Note_on_c, 4, 76, 0
6, 76160, Note_on_c, 4, 74, 110
6, 76170, Note_on_c, 4, 74, 0
6, 76170, Note_on_c, 4, 76, 110
6, 76177, Note_on_c, 4, 74, 110
6, 76178, Note_on_c, 4, 76, 0
6, 76185, Note_on_c, 4, 74, 0
6, 76185, Note_on_c, 4, 76, 110
6, 76192, Note_on_c, 4, 74, 110
6, 76193, Note_on_c, 4, 76, 0
6, 76200, Note_on_c, 4, 74, 0
6, 76200, Note_on_c, 4, 69, 0
6, 76200, Note_on_c, 4, 76, 110
6, 76200, Note_on_c, 4, 67, 110
6, 76207, Note_on_c, 4, 74, 110
6, 76208, Note_on_c, 4, 76, 0
6, 76215, Note_on_c, 4, 74, 0
6, 76215, Note_on_c, 4, 76, 110
6, 76222, Note_on_c, 4, 74, 110
6, 76223, Note_on_c, 4, 76, 0
6, 76230, Note_on_c, 4, 74, 0
6, 76230, Note_on_c, 4, 76, 110
6, 76237, Note_on_c, 4, 74, 110
6, 76238, Note_on_c, 4, 76, 0
6, 76245, Note_on_c, 4, 74, 0
6, 76245, Note_on_c, 4, 76, 110
6, 76252, Note_on_c, 4, 74, 110
6, 76253, Note_on_c, 4, 76, 0
6, 76260, Note_on_c, 4, 74, 0
6, 76260, Note_on_c, 4, 76, 110
6, 76267, Note_on_c, 4, 74, 110
6, 76268, Note_on_c, 4, 76, 0
6, 76275, Note_on_c, 4, 74, 0
6, 76275, Note_on_c, 4, 76, 110
6, 76282, Note_on_c, 4, 74, 110
6, 76283, Note_on_c, 4, 76, 0
6, 76290, Note_on_c, 4, 74, 0
6, 76290, Note_on_c, 4, 72, 110
6, 76305, Note_on_c, 4, 72, 0
6, 76305, Note_on_c, 4, 74, 110
6, 76320, Note_on_c, 4, 74, 0
6, 76320, Note_on_c, 4, 67, 0
6, 76320, Note_on_c, 4, 73, 110
6, 76320, Note_on_c, 4, 69, 110
6, 76680, Note_on_c, 4, 69, 0
6, 76680, Note_on_c, 4, 73, 0
6, 78000, Note_on_c, 4, 76, 100
6, 78059, Note_on_c, 4, 76, 0
6, 78060, Note_on_c, 4, 81, 100
6, 78179, Note_on_c, 4, 81, 0
6, 78180, Note_on_c, 4, 80, 100
6, 78239, Note_on_c, 4, 80, 0
6, 78240, Note_on_c, 4, 81, 100
6, 78299, Note_on_c, 4, 81, 0
6, 78300, Note_on_c, 4, 83, 100
6, 78419, Note_on_c, 4, 83, 0
6, 78420, Note_on_c, 4, 84, 100
6, 78539, Note_on_c, 4, 84, 0
6, 78540, Note_on_c, 4, 83, 100
6, 78569, Note_on_c, 4, 83, 0
6, 78570, Note_on_c, 4, 81, 100
6, 78599, Note_on_c, 4, 81, 0
6, 78600, Note_on_c, 4, 84, 100
6, 78629, Note_on_c, 4, 84, 0
6, 78630, Note_on_c, 4, 83, 100
6, 78659, Note_on_c, 4, 83, 0
6, 78660, Note_on_c, 4, 81, 100
6, 78689, Note_on_c, 4, 81, 0
6, 78690, Note_on_c, 4, 80, 100
6, 78719, Note_on_c, 4, 80, 0
6, 78720, Note_on_c, 4, 81, 100
6, 78749, Note_on_c, 4, 81, 0
6, 78750, Note_on_c, 4, 83, 100
6, 78779, Note_on_c, 4, 83, 0
6, 78780, Note_on_c, 4, 84, 100
6, 78809, Note_on_c, 4, 84, 0
6, 78810, Note_on_c, 4, 86, 100
6, 78839, Note_on_c, 4, 86, 0
6, 78840, Note_on_c, 4, 84, 100
6, 78869, Note_on_c, 4, 84, 0
6, 78870, Note_on_c, 4, 82, 100
6, 78899, Note_on_c, 4, 82, 0
6, 78900, Note_on_c, 4, 81, 100
6, 78929, Note_on_c, 4, 81, 0
6, 78930, Note_on_c, 4, 79, 100
6, 78959, Note_on_c, 4, 79, 0
6, 78960, Note_on_c, 4, 78, 100
6, 78989, Note_on_c, 4, 78, 0
6, 79020, Note_on_c, 4, 81, 100
6, 79049, Note_on_c, 4, 81, 0
6, 79080, Note_on_c, 4, 74, 100
6, 79109, Note_on_c, 4, 74, 0
6, 79140, Note_on_c, 4, 78, 100
6, 79169, Note_on_c, 4, 78, 0
6, 79200, Note_on_c, 4, 79, 100
6, 79229, Note_on_c, 4, 79, 0
6, 79230, Note_on_c, 4, 81, 100
6, 79259, Note_on_c, 4, 81, 0
6, 79260, Note_on_c, 4, 82, 100
6, 79289, Note_on_c, 4, 82, 0
6, 79290, Note_on_c, 4, 84, 100
6, 79319, Note_on_c, 4, 84, 0
6, 79320, Note_on_c, 4, 82, 100
6, 79349, Note_on_c, 4, 82, 0
6, 79350, Note_on_c, 4, 81, 100
6, 79379, Note_on_c, 4, 81, 0
6, 79380, Note_on_c, 4, 79, 100
6, 79409, Note_on_c, 4, 79, 0
6, 79410, Note_on_c, 4, 77, 100
6, 79439, Note_on_c, 4, 77, 0
6, 79440, Note_on_c, 4, 76, 100
6, 79469, Note_on_c, 4, 76, 0
6, 79500, Note_on_c, 4, 79, 100
6, 79529, Note_on_c, 4, 79, 0
6, 79560, Note_on_c, 4, 72, 100
6, 79589, Note_on_c, 4, 72, 0
6, 79620, Note_on_c, 4, 76, 100
6, 79649, Note_on_c, 4, 76, 0
6, 79680, Note_on_c, 4, 77, 100
6, 79709, Note_on_c, 4, 77, 0
6, 79740, Note_on_c, 4, 81, 100
6, 79769, Note_on_c, 4, 81, 0
6, 79800, Note_on_c, 4, 70, 100
6, 79829, Note_on_c, 4, 70, 0
6, 79860, Note_on_c, 4, 79, 100
6, 79889, Note_on_c, 4, 79, 0
6, 79920, Note_on_c, 4, 69, 100
6, 79949, Note_on_c, 4, 69, 0
6, 79980, Note_on_c, 4, 77, 100
6, 80009, Note_on_c, 4, 77, 0
6, 80040, Note_on_c, 4, 67, 100
6, 80069, Note_on_c, 4, 67, 0
6, 80100, Note_on_c, 4, 76, 100
6, 80129, Note_on_c, 4, 76, 0
6, 80160, Note_on_c, 4, 65, 100
6, 80189, Note_on_c, 4, 65, 0
6, 80220, Note_on_c, 4, 74, 100
6, 80249, Note_on_c, 4, 74, 0
6, 80280, Note_on_c, 4, 64, 100
6, 80309, Note_on_c, 4, 64, 0
6, 80340, Note_on_c, 4, 73, 100
6, 80369, Note_on_c, 4, 73, 0
6, 80400, Note_on_c, 4, 74, 100
6, 80429, Note_on_c, 4, 74, 0
6, 80430, Note_on_c, 4, 77, 100
6, 80459, Note_on_c, 4, 77, 0
6, 80460, Note_on_c, 4, 76, 100
6, 80489, Note_on_c, 4, 76, 0
6, 80490, Note_on_c, 4, 77, 100
6, 80519, Note_on_c, 4, 77, 0
6, 80520, Note_on_c, 4, 79, 100
6, 80549, Note_on_c, 4, 79, 0
6, 80550, Note_on_c, 4, 81, 100
6, 80579, Note_on_c, 4, 81, 0
6, 80580, Note_on_c, 4, 77, 100
6, 80609, Note_on_c, 4, 77, 0
6, 80610, Note_on_c, 4, 79, 100
6, 80639, Note_on_c, 4, 79, 0
6, 80640, Note_on_c, 4, 81, 100
6, 80669, Note_on_c, 4, 81, 0
6, 80670, Note_on_c, 4, 77, 100
6, 80699, Note_on_c, 4, 77, 0
6, 80700, Note_on_c, 4, 76, 100
6, 80729, Note_on_c, 4, 76, 0
6, 80730, Note_on_c, 4, 74, 100
6, 80759, Note_on_c, 4, 74, 0
6, 80760, Note_on_c, 4, 82, 100
6, 80789, Note_on_c, 4, 82, 0
6, 80790, Note_on_c, 4, 79, 100
6, 80819, Note_on_c, 4, 79, 0
6, 80820, Note_on_c, 4, 77, 100
6, 80849, Note_on_c, 4, 77, 0
6, 80850, Note_on_c, 4, 76, 100
6, 80879, Note_on_c, 4, 76, 0
6, 80880, Note_on_c, 4, 85, 100
6, 80909, Note_on_c, 4, 85, 0
6, 80910, Note_on_c, 4, 81, 100
6, 80939, Note_on_c, 4, 81, 0
6, 80940, Note_on_c, 4, 79, 100
6, 80969, Note_on_c, 4, 79, 0
6, 80970, Note_on_c, 4, 77, 100
6, 80999, Note_on_c, 4, 77, 0
6, 81000, Note_on_c, 4, 82, 100
6, 81029, Note_on_c, 4, 82, 0
6, 81030, Note_on_c, 4, 79, 100
6, 81059, Note_on_c, 4, 79, 0
6, 81060, Note_on_c, 4, 77, 100
6, 81089, Note_on_c, 4, 77, 0
6, 81090, Note_on_c, 4, 76, 100
6, 81119, Note_on_c, 4, 76, 0
6, 81120, Note_on_c, 4, 77, 100
6, 81149, Note_on_c, 4, 77, 0
6, 81150, Note_on_c, 4, 83, 100
6, 81179, Note_on_c, 4, 83, 0
6, 81180, Note_on_c, 4, 84, 100
6, 81209, Note_on_c, 4, 84, 0
6, 81210, Note_on_c, 4, 86, 100
6, 81239, Note_on_c, 4, 86, 0
6, 81240, Note_on_c, 4, 74, 100
6, 81269, Note_on_c, 4, 74, 0
6, 81270, Note_on_c, 4, 80, 100
6, 81299, Note_on_c, 4, 80, 0
6, 81300, Note_on_c, 4, 81, 100
6, 81329, Note_on_c, 4, 81, 0
6, 81330, Note_on_c, 4, 83, 100
6, 81359, Note_on_c, 4, 83, 0
6, 81360, Note_on_c, 4, 72, 100
6, 81419, Note_on_c, 4, 72, 0
6, 81480, Note_on_c, 4, 71, 100
6, 81539, Note_on_c, 4, 71, 0
6, 81630, Note_on_c, 4, 69, 100
6, 81659, Note_on_c, 4, 69, 0
6, 81660, Note_on_c, 4, 68, 100
6, 81689, Note_on_c, 4, 68, 0
6, 81690, Note_on_c, 4, 69, 100
6, 81719, Note_on_c, 4, 69, 0
6, 81720, Note_on_c, 4, 71, 100
6, 81749, Note_on_c, 4, 71, 0
6, 81750, Note_on_c, 4, 69, 100
6, 81779, Note_on_c, 4, 69, 0
6, 81780, Note_on_c, 4, 68, 100
6, 81809, Note_on_c, 4, 68, 0
6, 81810, Note_on_c, 4, 69, 100
6, 81839, Note_on_c, 4, 69, 0
6, 81840, Note_on_c, 4, 72, 100
6, 81869, Note_on_c, 4, 72, 0
6, 81870, Note_on_c, 4, 69, 100
6, 81899, Note_on_c, 4, 69, 0
6, 81900, Note_on_c, 4, 68, 100
6, 81929, Note_on_c, 4, 68, 0
6, 81930, Note_on_c, 4, 69, 100
6, 81959, Note_on_c, 4, 69, 0
6, 81960, Note_on_c, 4, 77, 100
6, 81989, Note_on_c, 4, 77, 0
6, 81990, Note_on_c, 4, 71, 100
6, 82019, Note_on_c, 4, 71, 0
6, 82020, Note_on_c, 4, 72, 100
6, 82049, Note_on_c, 4, 72, 0
6, 82050, Note_on_c, 4, 74, 100
6, 82079, Note_on_c, 4, 74, 0
6, 82080, Note_on_c, 4, 72, 100
6, 82139, Note_on_c, 4, 72, 0
6, 82140, Note_on_c, 4, 76, 100
6, 82199, Note_on_c, 4, 76, 0
6, 82200, Note_on_c, 4, 81, 100
6, 82259, Note_on_c, 4, 81, 0
6, 82260, Note_on_c, 4, 81, 100
6, 82319, Note_on_c, 4, 81, 0
6, 82320, Note_on_c, 4, 81, 100
6, 82379, Note_on_c, 4, 81, 0
6, 82380, Note_on_c, 4, 79, 100
6, 82409, Note_on_c, 4, 79, 0
6, 82410, Note_on_c, 4, 77, 100
6, 82439, Note_on_c, 4, 77, 0
6, 82440, Note_on_c, 4, 76, 100
6, 82469, Note_on_c, 4, 76, 0
6, 82470, Note_on_c, 4, 74, 100
6, 82499, Note_on_c, 4, 74, 0
6, 82500, Note_on_c, 4, 72, 100
6, 82529, Note_on_c, 4, 72, 0
6, 82530, Note_on_c, 4, 70, 100
6, 82559, Note_on_c, 4, 70, 0
6, 82560, Note_on_c, 4, 69, 100
6, 82619, Note_on_c, 4, 69, 0
6, 82620, Note_on_c, 4, 72, 100
6, 82679, Note_on_c, 4, 72, 0
6, 82680, Note_on_c, 4, 77, 100
6, 82739, Note_on_c, 4, 77, 0
6, 82740, Note_on_c, 4, 77, 100
6, 82799, Note_on_c, 4, 77, 0
6, 82800, Note_on_c, 4, 77, 100
6, 82859, Note_on_c, 4, 77, 0
6, 82860, Note_on_c, 4, 76, 100
6, 82889, Note_on_c, 4, 76, 0
6, 82890, Note_on_c, 4, 74, 100
6, 82919, Note_on_c, 4, 74, 0
6, 82920, Note_on_c, 4, 72, 100
6, 82949, Note_on_c, 4, 72, 0
6, 82950, Note_on_c, 4, 70, 100
6, 82979, Note_on_c, 4, 70, 0
6, 82980, Note_on_c, 4, 69, 100
6, 83009, Note_on_c, 4, 69, 0
6, 83010, Note_on_c, 4, 73, 100
6, 83039, Note_on_c, 4, 73, 0
6, 83040, Note_on_c, 4, 65, 100
6, 83099, Note_on_c, 4, 65, 0
6, 83100, Note_on_c, 4, 69, 100
6, 83159, Note_on_c, 4, 69, 0
6, 83160, Note_on_c, 4, 74, 100
6, 83219, Note_on_c, 4, 74, 0
6, 83220, Note_on_c, 4, 74, 100
6, 83279, Note_on_c, 4, 74, 0
6, 83280, Note_on_c, 4, 73, 100
6, 83309, Note_on_c, 4, 73, 0
6, 83310, Note_on_c, 4, 76, 100
6, 83339, Note_on_c, 4, 76, 0
6, 83340, Note_on_c, 4, 74, 100
6, 83369, Note_on_c, 4, 74, 0
6, 83370, Note_on_c, 4, 77, 100
6, 83399, Note_on_c, 4, 77, 0
6, 83400, Note_on_c, 4, 76, 100
6, 83429, Note_on_c, 4, 76, 0
6, 83430, Note_on_c, 4, 79, 100
6, 83459, Note_on_c, 4, 79, 0
6, 83460, Note_on_c, 4, 77, 100
6, 83489, Note_on_c, 4, 77, 0
6, 83490, Note_on_c, 4, 76, 100
6, 83519, Note_on_c, 4, 76, 0
6, 83520, Note_on_c, 4, 77, 100
6, 83549, Note_on_c, 4, 77, 0
6, 83550, Note_on_c, 4, 74, 100
6, 83579, Note_on_c, 4, 74, 0
6, 83580, Note_on_c, 4, 73, 100
6, 83609, Note_on_c, 4, 73, 0
6, 83610, Note_on_c, 4, 71, 100
6, 83639, Note_on_c, 4, 71, 0
6, 83640, Note_on_c, 4, 79, 100
6, 83669, Note_on_c, 4, 79, 0
6, 83670, Note_on_c, 4, 76, 100
6, 83699, Note_on_c, 4, 76, 0
6, 83700, Note_on_c, 4, 74, 100
6, 83729, Note_on_c, 4, 74, 0
6, 83730, Note_on_c, 4, 73, 100
6, 83759, Note_on_c, 4, 73, 0
6, 83760, Note_on_c, 4, 81, 100
6, 83789, Note_on_c, 4, 81, 0
6, 83790, Note_on_c, 4, 74, 100
6, 83819, Note_on_c, 4, 74, 0
6, 83820, Note_on_c, 4, 76, 100
6, 83849, Note_on_c, 4, 76, 0
6, 83850, Note_on_c, 4, 77, 100
6, 83879, Note_on_c, 4, 77, 0
6, 83880, Note_on_c, 4, 79, 100
6, 83909, Note_on_c, 4, 79, 0
6, 83910, Note_on_c, 4, 73, 100
6, 83939, Note_on_c, 4, 73, 0
6, 83940, Note_on_c, 4, 74, 100
6, 83969, Note_on_c, 4, 74, 0
6, 83970, Note_on_c, 4, 76, 100
6, 83999, Note_on_c, 4, 76, 0
6, 84000, Note_on_c, 4, 77, 100
6, 84059, Note_on_c, 4, 77, 0
6, 84060, Note_on_c, 4, 74, 100
6, 84089, Note_on_c, 4, 74, 0
6, 84090, Note_on_c, 4, 76, 100
6, 84119, Note_on_c, 4, 76, 0
6, 84120, Note_on_c, 4, 77, 100
6, 84179, Note_on_c, 4, 77, 0
6, 84180, Note_on_c, 4, 81, 100
6, 84269, Note_on_c, 4, 81, 0
6, 84270, Note_on_c, 4, 77, 100
6, 84299, Note_on_c, 4, 77, 0
6, 84300, Note_on_c, 4, 79, 100
6, 84329, Note_on_c, 4, 79, 0
6, 84330, Note_on_c, 4, 81, 100
6, 84359, Note_on_c, 4, 81, 0
6, 84360, Note_on_c, 4, 79, 100
6, 84389, Note_on_c, 4, 79, 0
6, 84390, Note_on_c, 4, 77, 100
6, 84419, Note_on_c, 4, 77, 0
6, 84420, Note_on_c, 4, 76, 100
6, 84449, Note_on_c, 4, 76, 0
6, 84450, Note_on_c, 4, 74, 100
6, 84479, Note_on_c, 4, 74, 0
6, 84480, Note_on_c, 4, 76, 100
6, 84539, Note_on_c, 4, 76, 0
6, 84540, Note_on_c, 4, 72, 100
6, 84569, Note_on_c, 4, 72, 0
6, 84570, Note_on_c, 4, 74, 100
6, 84599, Note_on_c, 4, 74, 0
6, 84600, Note_on_c, 4, 76, 100
6, 84659, Note_on_c, 4, 76, 0
6, 84660, Note_on_c, 4, 79, 100
6, 84749, Note_on_c, 4, 79, 0
6, 84750, Note_on_c, 4, 76, 100
6, 84779, Note_on_c, 4, 76, 0
6, 84780, Note_on_c, 4, 77, 100
6, 84809, Note_on_c, 4, 77, 0
6, 84810, Note_on_c, 4, 79, 100
6, 84839, Note_on_c, 4, 79, 0
6, 84840, Note_on_c, 4, 77, 100
6, 84869, Note_on_c, 4, 77, 0
6, 84870, Note_on_c, 4, 76, 100
6, 84899, Note_on_c, 4, 76, 0
6, 84900, Note_on_c, 4, 74, 100
6, 84929, Note_on_c, 4, 74, 0
6, 84930, Note_on_c, 4, 73, 100
6, 84959, Note_on_c, 4, 73, 0
6, 84960, Note_on_c, 4, 74, 100
6, 85019, Note_on_c, 4, 74, 0
6, 85020, Note_on_c, 4, 70, 100
6, 85049, Note_on_c, 4, 70, 0
6, 85050, Note_on_c, 4, 72, 100
6, 85079, Note_on_c, 4, 72, 0
6, 85080, Note_on_c, 4, 74, 100
6, 85139, Note_on_c, 4, 74, 0
6, 85140, Note_on_c, 4, 77, 100
6, 85229, Note_on_c, 4, 77, 0
6, 85230, Note_on_c, 4, 74, 100
6, 85259, Note_on_c, 4, 74, 0
6, 85260, Note_on_c, 4, 76, 100
6, 85289, Note_on_c, 4, 76, 0
6, 85290, Note_on_c, 4, 77, 100
6, 85319, Note_on_c, 4, 77, 0
6, 85320, Note_on_c, 4, 76, 100
6, 85349, Note_on_c, 4, 76, 0
6, 85350, Note_on_c, 4, 74, 100
6, 85379, Note_on_c, 4, 74, 0
6, 85380, Note_on_c, 4, 73, 100
6, 85409, Note_on_c, 4, 73, 0
6, 85410, Note_on_c, 4, 71, 100
6, 85439, Note_on_c, 4, 71, 0
6, 85440, Note_on_c, 4, 73, 100
6, 85469, Note_on_c, 4, 73, 0
6, 85470, Note_on_c, 4, 71, 100
6, 85499, Note_on_c, 4, 71, 0
6, 85500, Note_on_c, 4, 73, 100
6, 85529, Note_on_c, 4, 73, 0
6, 85530, Note_on_c, 4, 74, 100
6, 85559, Note_on_c, 4, 74, 0
6, 85560, Note_on_c, 4, 76, 100
6, 85589, Note_on_c, 4, 76, 0
6, 85590, Note_on_c, 4, 73, 100
6, 85619, Note_on_c, 4, 73, 0
6, 85620, Note_on_c, 4, 74, 100
6, 85649, Note_on_c, 4, 74, 0
6, 85650, Note_on_c, 4, 76, 100
6, 85679, Note_on_c, 4, 76, 0
6, 85680, Note_on_c, 4, 69, 100
6, 85739, Note_on_c, 4, 69, 0
6, 85740, Note_on_c, 4, 74, 100
6, 85859, Note_on_c, 4, 74, 0
6, 85860, Note_on_c, 4, 73, 100
6, 85919, Note_on_c, 4, 73, 0
6, 85920, Note_on_c, 4, 74, 100
6, 85979, Note_on_c, 4, 74, 0
6, 85980, Note_on_c, 4, 76, 100
6, 86099, Note_on_c, 4, 76, 0
6, 86100, Note_on_c, 4, 77, 100
6, 86219, Note_on_c, 4, 77, 0
6, 86220, Note_on_c, 4, 76, 100
6, 86249, Note_on_c, 4, 76, 0
6, 86250, Note_on_c, 4, 74, 100
6, 86279, Note_on_c, 4, 74, 0
6, 86280, Note_on_c, 4, 77, 100
6, 86309, Note_on_c, 4, 77, 0
6, 86310, Note_on_c, 4, 76, 100
6, 86339, Note_on_c, 4, 76, 0
6, 86340, Note_on_c, 4, 74, 100
6, 86369, Note_on_c, 4, 74, 0
6, 86370, Note_on_c, 4, 73, 100
6, 86399, Note_on_c, 4, 73, 0
6, 86400, Note_on_c, 4, 74, 100
6, 86429, Note_on_c, 4, 74, 0
6, 86430, Note_on_c, 4, 69, 100
6, 86459, Note_on_c, 4, 69, 0
6, 86460, Note_on_c, 4, 65, 100
6, 86489, Note_on_c, 4, 65, 0
6, 86490, Note_on_c, 4, 69, 100
6, 86519, Note_on_c, 4, 69, 0
6, 86520, Note_on_c, 4, 62, 100
6, 86579, Note_on_c, 4, 62, 0
6, 86640, Note_on_c, 4, 69, 100
6, 86669, Note_on_c, 4, 69, 0
6, 86670, Note_on_c, 4, 65, 100
6, 86699, Note_on_c, 4, 65, 0
6, 86700, Note_on_c, 4, 64, 100
6, 86729, Note_on_c, 4, 64, 0
6, 86730, Note_on_c, 4, 62, 100
6, 86759, Note_on_c, 4, 62, 0
6, 86760, Note_on_c, 4, 69, 100
6, 86789, Note_on_c, 4, 69, 0
6, 86790, Note_on_c, 4, 65, 100
6, 86819, Note_on_c, 4, 65, 0
6, 86820, Note_on_c, 4, 64, 100
6, 86849, Note_on_c, 4, 64, 0
6, 86850, Note_on_c, 4, 62, 100
6, 86879, Note_on_c, 4, 62, 0
6, 86880, Note_on_c, 4, 70, 100
6, 86909, Note_on_c, 4, 70, 0
6, 86910, Note_on_c, 4, 67, 100
6, 86939, Note_on_c, 4, 67, 0
6, 86940, Note_on_c, 4, 69, 100
6, 86969, Note_on_c, 4, 69, 0
6, 86970, Note_on_c, 4, 64, 100
6, 86999, Note_on_c, 4, 64, 0
6, 87000, Note_on_c, 4, 65, 100
6, 87029, Note_on_c, 4, 65, 0
6, 87030, Note_on_c, 4, 62, 100
6, 87059, Note_on_c, 4, 62, 0
6, 87060, Note_on_c, 4, 65, 100
6, 87089, Note_on_c, 4, 65, 0
6, 87090, Note_on_c, 4, 69, 100
6, 87119, Note_on_c, 4, 69, 0
6, 87120, Note_on_c, 4, 74, 100
6, 87149, Note_on_c, 4, 74, 0
6, 87150, Note_on_c, 4, 71, 100
6, 87179, Note_on_c, 4, 71, 0
6, 87180, Note_on_c, 4, 69, 100
6, 87209, Note_on_c, 4, 69, 0
6, 87210, Note_on_c, 4, 68, 100
6, 87239, Note_on_c, 4, 68, 0
6, 87240, Note_on_c, 4, 74, 100
6, 87269, Note_on_c, 4, 74, 0
6, 87270, Note_on_c, 4, 71, 100
6, 87299, Note_on_c, 4, 71, 0
6, 87300, Note_on_c, 4, 69, 100
6, 87329, Note_on_c, 4, 69, 0
6, 87330, Note_on_c, 4, 68, 100
6, 87359, Note_on_c, 4, 68, 0
6, 87360, Note_on_c, 4, 77, 100
6, 87389, Note_on_c, 4, 77, 0
6, 87390, Note_on_c, 4, 74, 100
6, 87419, Note_on_c, 4, 74, 0
6, 87420, Note_on_c, 4, 76, 100
6, 87449, Note_on_c, 4, 76, 0
6, 87450, Note_on_c, 4, 71, 100
6, 87479, Note_on_c, 4, 71, 0
6, 87480, Note_on_c, 4, 72, 100
6, 87509, Note_on_c, 4, 72, 0
6, 87510, Note_on_c, 4, 69, 100
6, 87539, Note_on_c, 4, 69, 0
6, 87540, Note_on_c, 4, 72, 100
6, 87569, Note_on_c, 4, 72, 0
6, 87570, Note_on_c, 4, 76, 100
6, 87599, Note_on_c, 4, 76, 0
6, 87600, Note_on_c, 4, 81, 100
6, 87629, Note_on_c, 4, 81, 0
6, 87630, Note_on_c, 4, 72, 100
6, 87659, Note_on_c, 4, 72, 0
6, 87660, Note_on_c, 4, 70, 100
6, 87689, Note_on_c, 4, 70, 0
6, 87690, Note_on_c, 4, 69, 100
6, 87719, Note_on_c, 4, 69, 0
6, 87720, Note_on_c, 4, 81, 100
6, 87749, Note_on_c, 4, 81, 0
6, 87750, Note_on_c, 4, 72, 100
6, 87779, Note_on_c, 4, 72, 0
6, 87780, Note_on_c, 4, 70, 100
6, 87809, Note_on_c, 4, 70, 0
6, 87810, Note_on_c, 4, 69, 100
6, 87839, Note_on_c, 4, 69, 0
6, 87840, Note_on_c, 4, 81, 100
6, 87869, Note_on_c, 4, 81, 0
6, 87870, Note_on_c, 4, 72, 100
6, 87899, Note_on_c, 4, 72, 0
6, 87900, Note_on_c, 4, 74, 100
6, 87929, Note_on_c, 4, 74, 0
6, 87930, Note_on_c, 4, 69, 100
6, 87959, Note_on_c, 4, 69, 0
6, 87960, Note_on_c, 4, 70, 100
6, 87989, Note_on_c, 4, 70, 0
6, 87990, Note_on_c, 4, 67, 100
6, 88019, Note_on_c, 4, 67, 0
6, 88020, Note_on_c, 4, 70, 100
6, 88049, Note_on_c, 4, 70, 0
6, 88050, Note_on_c, 4, 74, 100
6, 88079, Note_on_c, 4, 74, 0
6, 88080, Note_on_c, 4, 79, 100
6, 88109, Note_on_c, 4, 79, 0
6, 88110, Note_on_c, 4, 70, 100
6, 88139, Note_on_c, 4, 70, 0
6, 88140, Note_on_c, 4, 69, 100
6, 88169, Note_on_c, 4, 69, 0
6, 88170, Note_on_c, 4, 67, 100
6, 88199, Note_on_c, 4, 67, 0
6, 88200, Note_on_c, 4, 79, 100
6, 88229, Note_on_c, 4, 79, 0
6, 88230, Note_on_c, 4, 70, 100
6, 88259, Note_on_c, 4, 70, 0
6, 88260, Note_on_c, 4, 69, 100
6, 88289, Note_on_c, 4, 69, 0
6, 88290, Note_on_c, 4, 67, 100
6, 88319, Note_on_c, 4, 67, 0
6, 88320, Note_on_c, 4, 79, 100
6, 88349, Note_on_c, 4, 79, 0
6, 88350, Note_on_c, 4, 70, 100
6, 88379, Note_on_c, 4, 70, 0
6, 88380, Note_on_c, 4, 72, 100
6, 88409, Note_on_c, 4, 72, 0
6, 88410, Note_on_c, 4, 67, 100
6, 88439, Note_on_c, 4, 67, 0
6, 88440, Note_on_c, 4, 69, 100
6, 88469, Note_on_c, 4, 69, 0
6, 88470, Note_on_c, 4, 65, 100
6, 88499, Note_on_c, 4, 65, 0
6, 88500, Note_on_c, 4, 69, 100
6, 88529, Note_on_c, 4, 69, 0
6, 88530, Note_on_c, 4, 70, 100
6, 88559, Note_on_c, 4, 70, 0
6, 88560, Note_on_c, 4, 72, 100
6, 88589, Note_on_c, 4, 72, 0
6, 88590, Note_on_c, 4, 77, 100
6, 88619, Note_on_c, 4, 77, 0
6, 88620, Note_on_c, 4, 79, 100
6, 88649, Note_on_c, 4, 79, 0
6, 88650, Note_on_c, 4, 81, 100
6, 88679, Note_on_c, 4, 81, 0
6, 88680, Note_on_c, 4, 74, 100
6, 88709, Note_on_c, 4, 74, 0
6, 88710, Note_on_c, 4, 69, 100
6, 88739, Note_on_c, 4, 69, 0
6, 88740, Note_on_c, 4, 70, 100
6, 88769, Note_on_c, 4, 70, 0
6, 88770, Note_on_c, 4, 72, 100
6, 88799, Note_on_c, 4, 72, 0
6, 88800, Note_on_c, 4, 74, 100
6, 88829, Note_on_c, 4, 74, 0
6, 88830, Note_on_c, 4, 79, 100
6, 88859, Note_on_c, 4, 79, 0
6, 88860, Note_on_c, 4, 81, 100
6, 88889, Note_on_c, 4, 81, 0
6, 88890, Note_on_c, 4, 82, 100
6, 88919, Note_on_c, 4, 82, 0
6, 88920, Note_on_c, 4, 76, 100
6, 88949, Note_on_c, 4, 76, 0
6, 88950, Note_on_c, 4, 71, 100
6, 88979, Note_on_c, 4, 71, 0
6, 88980, Note_on_c, 4, 72, 100
6, 89009, Note_on_c, 4, 72, 0
6, 89010, Note_on_c, 4, 74, 100
6, 89039, Note_on_c, 4, 74, 0
6, 89040, Note_on_c, 4, 76, 100
6, 89069, Note_on_c, 4, 76, 0
6, 89070, Note_on_c, 4, 81, 100
6, 89099, Note_on_c, 4, 81, 0
6, 89100, Note_on_c, 4, 82, 100
6, 89129, Note_on_c, 4, 82, 0
6, 89130, Note_on_c, 4, 84, 100
6, 89159, Note_on_c, 4, 84, 0
6, 89160, Note_on_c, 4, 74, 100
6, 89189, Note_on_c, 4, 74, 0
6, 89190, Note_on_c, 4, 79, 100
6, 89219, Note_on_c, 4, 79, 0
6, 89220, Note_on_c, 4, 81, 100
6, 89249, Note_on_c, 4, 81, 0
6, 89250, Note_on_c, 4, 82, 100
6, 89279, Note_on_c, 4, 82, 0
6, 89280, Note_on_c, 4, 72, 100
6, 89309, Note_on_c, 4, 72, 0
6, 89310, Note_on_c, 4, 77, 100
6, 89339, Note_on_c, 4, 77, 0
6, 89340, Note_on_c, 4, 79, 100
6, 89369, Note_on_c, 4, 79, 0
6, 89370, Note_on_c, 4, 81, 100
6, 89399, Note_on_c, 4, 81, 0
6, 89400, Note_on_c, 4, 70, 100
6, 89429, Note_on_c, 4, 70, 0
6, 89430, Note_on_c, 4, 76, 100
6, 89459, Note_on_c, 4, 76, 0
6, 89460, Note_on_c, 4, 77, 100
6, 89489, Note_on_c, 4, 77, 0
6, 89490, Note_on_c, 4, 79, 100
6, 89519, Note_on_c, 4, 79, 0
6, 89520, Note_on_c, 4, 69, 100
6, 89549, Note_on_c, 4, 69, 0
6, 89550, Note_on_c, 4, 72, 100
6, 89579, Note_on_c, 4, 72, 0
6, 89580, Note_on_c, 4, 74, 100
6, 89609, Note_on_c, 4, 74, 0
6, 89610, Note_on_c, 4, 76, 100
6, 89639, Note_on_c, 4, 76, 0
6, 89640, Note_on_c, 4, 77, 100
6, 89669, Note_on_c, 4, 77, 0
6, 89670, Note_on_c, 4, 71, 100
6, 89699, Note_on_c, 4, 71, 0
6, 89700, Note_on_c, 4, 72, 100
6, 89729, Note_on_c, 4, 72, 0
6, 89730, Note_on_c, 4, 74, 100
6, 89759, Note_on_c, 4, 74, 0
6, 89760, Note_on_c, 4, 68, 100
6, 89789, Note_on_c, 4, 68, 0
6, 89790, Note_on_c, 4, 71, 100
6, 89819, Note_on_c, 4, 71, 0
6, 89820, Note_on_c, 4, 72, 100
6, 89849, Note_on_c, 4, 72, 0
6, 89850, Note_on_c, 4, 74, 100
6, 89879, Note_on_c, 4, 74, 0
6, 89880, Note_on_c, 4, 68, 100
6, 89909, Note_on_c, 4, 68, 0
6, 89910, Note_on_c, 4, 62, 100
6, 89939, Note_on_c, 4, 62, 0
6, 89940, Note_on_c, 4, 64, 100
6, 89969, Note_on_c, 4, 64, 0
6, 89970, Note_on_c, 4, 65, 100
6, 89999, Note_on_c, 4, 65, 0
6, 90000, Note_on_c, 4, 62, 100
6, 90029, Note_on_c, 4, 62, 0
6, 90030, Note_on_c, 4, 68, 100
6, 90059, Note_on_c, 4, 68, 0
6, 90060, Note_on_c, 4, 69, 100
6, 90089, Note_on_c, 4, 69, 0
6, 90090, Note_on_c, 4, 71, 100
6, 90119, Note_on_c, 4, 71, 0
6, 90120, Note_on_c, 4, 62, 100
6, 90149, Note_on_c, 4, 62, 0
6, 90150, Note_on_c, 4, 59, 100
6, 90179, Note_on_c, 4, 59, 0
6, 90180, Note_on_c, 4, 60, 100
6, 90209, Note_on_c, 4, 60, 0
6, 90210, Note_on_c, 4, 62, 100
6, 90239, Note_on_c, 4, 62, 0
6, 90240, Note_on_c, 4, 59, 100
6, 90269, Note_on_c, 4, 59, 0
6, 90270, Note_on_c, 4, 62, 100
6, 90299, Note_on_c, 4, 62, 0
6, 90300, Note_on_c, 4, 64, 100
6, 90329, Note_on_c, 4, 64, 0
6, 90330, Note_on_c, 4, 65, 100
6, 90359, Note_on_c, 4, 65, 0
6, 90360, Note_on_c, 4, 59, 100
6, 90389, Note_on_c, 4, 59, 0
6, 90390, Note_on_c, 4, 56, 100
6, 90419, Note_on_c, 4, 56, 0
6, 90420, Note_on_c, 4, 57, 100
6, 90449, Note_on_c, 4, 57, 0
6, 90450, Note_on_c, 4, 59, 100
6, 90479, Note_on_c, 4, 59, 0
6, 90480, Note_on_c, 4, 56, 100
6, 90509, Note_on_c, 4, 56, 0
6, 90510, Note_on_c, 4, 77, 100
6, 90539, Note_on_c, 4, 77, 0
6, 90540, Note_on_c, 4, 76, 100
6, 90569, Note_on_c, 4, 76, 0
6, 90570, Note_on_c, 4, 74, 100
6, 90599, Note_on_c, 4, 74, 0
6, 90600, Note_on_c, 4, 72, 100
6, 90629, Note_on_c, 4, 72, 0
6, 90630, Note_on_c, 4, 71, 100
6, 90659, Note_on_c, 4, 71, 0
6, 90660, Note_on_c, 4, 69, 100
6, 90689, Note_on_c, 4, 69, 0
6, 90690, Note_on_c, 4, 71, 100
6, 90719, Note_on_c, 4, 71, 0
6, 90720, Note_on_c, 4, 64, 100
6, 90749, Note_on_c, 4, 64, 0
6, 90750, Note_on_c, 4, 69, 100
6, 90779, Note_on_c, 4, 69, 0
6, 90780, Note_on_c, 4, 71, 100
6, 90809, Note_on_c, 4, 71, 0
6, 90810, Note_on_c, 4, 68, 100
6, 90839, Note_on_c, 4, 68, 0
6, 90840, Note_on_c, 4, 69, 100
6, 90869, Note_on_c, 4, 69, 0
6, 90870, Note_on_c, 4, 72, 100
6, 90899, Note_on_c, 4, 72, 0
6, 90900, Note_on_c, 4, 63, 100
6, 90929, Note_on_c, 4, 63, 0
6, 90930, Note_on_c, 4, 64, 100
6, 90959, Note_on_c, 4, 64, 0
6, 90960, Note_on_c, 4, 71, 100
6, 90989, Note_on_c, 4, 71, 0
6, 90990, Note_on_c, 4, 74, 100
6, 91019, Note_on_c, 4, 74, 0
6, 91020, Note_on_c, 4, 63, 100
6, 91049, Note_on_c, 4, 63, 0
6, 91050, Note_on_c, 4, 64, 100
6, 91079, Note_on_c, 4, 64, 0
6, 91080, Note_on_c, 4, 72, 100
6, 91109, Note_on_c, 4, 72, 0
6, 91110, Note_on_c, 4, 76, 100
6, 91139, Note_on_c, 4, 76, 0
6, 91140, Note_on_c, 4, 68, 100
6, 91169, Note_on_c, 4, 68, 0
6, 91170, Note_on_c, 4, 69, 100
6, 91199, Note_on_c, 4, 69, 0
6, 91200, Note_on_c, 4, 74, 100
6, 91229, Note_on_c, 4, 74, 0
6, 91230, Note_on_c, 4, 77, 100
6, 91259, Note_on_c, 4, 77, 0
6, 91260, Note_on_c, 4, 68, 100
6, 91289, Note_on_c, 4, 68, 0
6, 91290, Note_on_c, 4, 69, 100
6, 91319, Note_on_c, 4, 69, 0
6, 91320, Note_on_c, 4, 76, 100
6, 91349, Note_on_c, 4, 76, 0
6, 91350, Note_on_c, 4, 79, 100
6, 91379, Note_on_c, 4, 79, 0
6, 91380, Note_on_c, 4, 68, 100
6, 91409, Note_on_c, 4, 68, 0
6, 91410, Note_on_c, 4, 69, 100
6, 91439, Note_on_c, 4, 69, 0
6, 91440, Note_on_c, 4, 77, 100
6, 91454, Note_on_c, 4, 77, 0
6, 91455, Note_on_c, 4, 79, 100
6, 91469, Note_on_c, 4, 79, 0
6, 91470, Note_on_c, 4, 77, 100
6, 91484, Note_on_c, 4, 77, 0
6, 91485, Note_on_c, 4, 79, 100
6, 91499, Note_on_c, 4, 79, 0
6, 91500, Note_on_c, 4, 77, 100
6, 91509, Note_on_c, 4, 77, 0
6, 91510, Note_on_c, 4, 79, 100
6, 91519, Note_on_c, 4, 79, 0
6, 91520, Note_on_c, 4, 77, 100
6, 91529, Note_on_c, 4, 77, 0
6, 91530, Note_on_c, 4, 79, 100
6, 91539, Note_on_c, 4, 79, 0
6, 91540, Note_on_c, 4, 77, 100
6, 91549, Note_on_c, 4, 77, 0
6, 91550, Note_on_c, 4, 79, 100
6, 91559, Note_on_c, 4, 79, 0
6, 91560, Note_on_c, 4, 77, 100
6, 91569, Note_on_c, 4, 77, 0
6, 91570, Note_on_c, 4, 79, 100
6, 91579, Note_on_c, 4, 79, 0
6, 91580, Note_on_c, 4, 77, 100
6, 91589, Note_on_c, 4, 77, 0
6, 91590, Note_on_c, 4, 79, 100
6, 91599, Note_on_c, 4, 79, 0
6, 91600, Note_on_c, 4, 77, 100
6, 91609, Note_on_c, 4, 77, 0
6, 91610, Note_on_c, 4, 79, 100
6, 91619, Note_on_c, 4, 79, 0
6, 91620, Note_on_c, 4, 77, 100
6, 91629, Note_on_c, 4, 77, 0
6, 91630, Note_on_c, 4, 79, 100
6, 91639, Note_on_c, 4, 79, 0
6, 91640, Note_on_c, 4, 77, 100
6, 91649, Note_on_c, 4, 77, 0
6, 91650, Note_on_c, 4, 79, 100
6, 91659, Note_on_c, 4, 79, 0
6, 91660, Note_on_c, 4, 77, 100
6, 91669, Note_on_c, 4, 77, 0
6, 91670, Note_on_c, 4, 79, 100
6, 91679, Note_on_c, 4, 79, 0
6, 91680, Note_on_c, 4, 77, 100
6, 91709, Note_on_c, 4, 77, 0
6, 91710, Note_on_c, 4, 74, 100
6, 91739, Note_on_c, 4, 74, 0
6, 91740, Note_on_c, 4, 72, 100
6, 91769, Note_on_c, 4, 72, 0
6, 91770, Note_on_c, 4, 71, 100
6, 91799, Note_on_c, 4, 71, 0
6, 91800, Note_on_c, 4, 76, 100
6, 91829, Note_on_c, 4, 76, 0
6, 91830, Note_on_c, 4, 72, 100
6, 91859, Note_on_c, 4, 72, 0
6, 91860, Note_on_c, 4, 68, 100
6, 91889, Note_on_c, 4, 68, 0
6, 91890, Note_on_c, 4, 69, 100
6, 91919, Note_on_c, 4, 69, 0
6, 91920, Note_on_c, 4, 74, 100
6, 91949, Note_on_c, 4, 74, 0
6, 91950, Note_on_c, 4, 71, 100
6, 91979, Note_on_c, 4, 71, 0
6, 91980, Note_on_c, 4, 69, 100
6, 92009, Note_on_c, 4, 69, 0
6, 92010, Note_on_c, 4, 68, 100
6, 92039, Note_on_c, 4, 68, 0
6, 92040, Note_on_c, 4, 72, 100
6, 92069, Note_on_c, 4, 72, 0
6, 92070, Note_on_c, 4, 69, 100
6, 92099, Note_on_c, 4, 69, 0
6, 92100, Note_on_c, 4, 64, 100
6, 92129, Note_on_c, 4, 64, 0
6, 92130, Note_on_c, 4, 65, 100
6, 92159, Note_on_c, 4, 65, 0
6, 92160, Note_on_c, 4, 70, 100
6, 92189, Note_on_c, 4, 70, 0
6, 92190, Note_on_c, 4, 67, 100
6, 92219, Note_on_c, 4, 67, 0
6, 92220, Note_on_c, 4, 65, 100
6, 92249, Note_on_c, 4, 65, 0
6, 92250, Note_on_c, 4, 64, 100
6, 92279, Note_on_c, 4, 64, 0
6, 92280, Note_on_c, 4, 69, 100
6, 92309, Note_on_c, 4, 69, 0
6, 92310, Note_on_c, 4, 65, 100
6, 92339, Note_on_c, 4, 65, 0
6, 92340, Note_on_c, 4, 61, 100
6, 92369, Note_on_c, 4, 61, 0
6, 92370, Note_on_c, 4, 62, 100
6, 92399, Note_on_c, 4, 62, 0
6, 92400, Note_on_c, 4, 68, 100
6, 92429, Note_on_c, 4, 68, 0
6, 92430, Note_on_c, 4, 65, 100
6, 92459, Note_on_c, 4, 65, 0
6, 92460, Note_on_c, 4, 61, 100
6, 92489, Note_on_c, 4, 61, 0
6, 92490, Note_on_c, 4, 62, 100
6, 92519, Note_on_c, 4, 62, 0
6, 92520, Note_on_c, 4, 69, 100
6, 92549, Note_on_c, 4, 69, 0
6, 92550, Note_on_c, 4, 66, 100
6, 92579, Note_on_c, 4, 66, 0
6, 92580, Note_on_c, 4, 61, 100
6, 92609, Note_on_c, 4, 61, 0
6, 92610, Note_on_c, 4, 62, 100
6, 92639, Note_on_c, 4, 62, 0
6, 92640, Note_on_c, 4, 71, 100
6, 92669, Note_on_c, 4, 71, 0
6, 92670, Note_on_c, 4, 68, 100
6, 92699, Note_on_c, 4, 68, 0
6, 92700, Note_on_c, 4, 65, 100
6, 92729, Note_on_c, 4, 65, 0
6, 92730, Note_on_c, 4, 64, 100
6, 92759, Note_on_c, 4, 64, 0
6, 92760, Note_on_c, 4, 62, 100
6, 92789, Note_on_c, 4, 62, 0
6, 92790, Note_on_c, 4, 65, 100
6, 92819, Note_on_c, 4, 65, 0
6, 92820, Note_on_c, 4, 64, 100
6, 92849, Note_on_c, 4, 64, 0
6, 92850, Note_on_c, 4, 62, 100
6, 92879, Note_on_c, 4, 62, 0
6, 92880, Note_on_c, 4, 60, 100
6, 92909, Note_on_c, 4, 60, 0
6, 92910, Note_on_c, 4, 64, 100
6, 92939, Note_on_c, 4, 64, 0
6, 92940, Note_on_c, 4, 69, 100
6, 92969, Note_on_c, 4, 69, 0
6, 92970, Note_on_c, 4, 72, 100
6, 92999, Note_on_c, 4, 72, 0
6, 93000, Note_on_c, 4, 71, 100
6, 93029, Note_on_c, 4, 71, 0
6, 93030, Note_on_c, 4, 69, 100
6, 93059, Note_on_c, 4, 69, 0
6, 93060, Note_on_c, 4, 75, 100
6, 93089, Note_on_c, 4, 75, 0
6, 93090, Note_on_c, 4, 76, 100
6, 93119, Note_on_c, 4, 76, 0
6, 93120, Note_on_c, 4, 68, 100
6, 93149, Note_on_c, 4, 68, 0
6, 93150, Note_on_c, 4, 71, 100
6, 93179, Note_on_c, 4, 71, 0
6, 93180, Note_on_c, 4, 74, 100
6, 93209, Note_on_c, 4, 74, 0
6, 93210, Note_on_c, 4, 77, 100
6, 93239, Note_on_c, 4, 77, 0
6, 93240, Note_on_c, 4, 76, 100
6, 93269, Note_on_c, 4, 76, 0
6, 93270, Note_on_c, 4, 74, 100
6, 93299, Note_on_c, 4, 74, 0
6, 93300, Note_on_c, 4, 80, 100
6, 93329, Note_on_c, 4, 80, 0
6, 93330, Note_on_c, 4, 81, 100
6, 93359, Note_on_c, 4, 81, 0
6, 93360, Note_on_c, 4, 72, 100
6, 93389, Note_on_c, 4, 72, 0
6, 93390, Note_on_c, 4, 76, 100
6, 93419, Note_on_c, 4, 76, 0
6, 93420, Note_on_c, 4, 81, 100
6, 93539, Note_on_c, 4, 81, 0
6, 93540, Note_on_c, 4, 80, 100
6, 93599, Note_on_c, 4, 80, 0
6, 93600, Note_on_c, 4, 81, 100
6, 93659, Note_on_c, 4, 81, 0
6, 93660, Note_on_c, 4, 83, 100
6, 93779, Note_on_c, 4, 83, 0
6, 93780, Note_on_c, 4, 84, 100
6, 93899, Note_on_c, 4, 84, 0
6, 93900, Note_on_c, 4, 83, 100
6, 93929, Note_on_c, 4, 83, 0
6, 93930, Note_on_c, 4, 81, 100
6, 93959, Note_on_c, 4, 81, 0
6, 93960, Note_on_c, 4, 84, 100
6, 93989, Note_on_c, 4, 84, 0
6, 93990, Note_on_c, 4, 83, 100
6, 94019, Note_on_c, 4, 83, 0
6, 94020, Note_on_c, 4, 81, 100
6, 94049, Note_on_c, 4, 81, 0
6, 94050, Note_on_c, 4, 80, 100
6, 94079, Note_on_c, 4, 80, 0
6, 94080, Note_on_c, 4, 81, 100
6, 94109, Note_on_c, 4, 81, 0
6, 94110, Note_on_c, 4, 76, 100
6, 94139, Note_on_c, 4, 76, 0
6, 94140, Note_on_c, 4, 72, 100
6, 94169, Note_on_c, 4, 72, 0
6, 94170, Note_on_c, 4, 76, 100
6, 94199, Note_on_c, 4, 76, 0
6, 94200, Note_on_c, 4, 69, 100
6, 94259, Note_on_c, 4, 69, 0
6, 101040, Note_on_c, 4, 69, 100
6, 101099, Note_on_c, 4, 69, 0
6, 101100, Note_on_c, 4, 74, 100
6, 101219, Note_on_c, 4, 74, 0
6, 101220, Note_on_c, 4, 73, 100
6, 101279, Note_on_c, 4, 73, 0
6, 101280, Note_on_c, 4, 74, 100
6, 101339, Note_on_c, 4, 74, 0
6, 101400, Note_on_c, 4, 76, 100
6, 101459, Note_on_c, 4, 76, 0
6, 101520, Note_on_c, 4, 77, 100
6, 101579, Note_on_c, 4, 77, 0
6, 101580, Note_on_c, 4, 76, 100
6, 101609, Note_on_c, 4, 76, 0
6, 101610, Note_on_c, 4, 74, 100
6, 101639, Note_on_c, 4, 74, 0
6, 101640, Note_on_c, 4, 73, 100
6, 101669, Note_on_c, 4, 73, 0
6, 101670, Note_on_c, 4, 76, 100
6, 101699, Note_on_c, 4, 76, 0
6, 101700, Note_on_c, 4, 74, 100
6, 101729, Note_on_c, 4, 74, 0
6, 101730, Note_on_c, 4, 73, 100
6, 101759, Note_on_c, 4, 73, 0
6, 101760, Note_on_c, 4, 74, 100
6, 101819, Note_on_c, 4, 74, 0
6, 101820, Note_on_c, 4, 81, 100
6, 101939, Note_on_c, 4, 81, 0
6, 101940, Note_on_c, 4, 79, 100
6, 101999, Note_on_c, 4, 79, 0
6, 102000, Note_on_c, 4, 77, 100
6, 102059, Note_on_c, 4, 77, 0
6, 102120, Note_on_c, 4, 76, 100
6, 102179, Note_on_c, 4, 76, 0
6, 102240, Note_on_c, 4, 74, 100
6, 102299, Note_on_c, 4, 74, 0
6, 102300, Note_on_c, 4, 82, 100
6, 102419, Note_on_c, 4, 82, 0
6, 102420, Note_on_c, 4, 81, 100
6, 102479, Note_on_c, 4, 81, 0
6, 102480, Note_on_c, 4, 79, 100
6, 102539, Note_on_c, 4, 79, 0
6, 102540, Note_on_c, 4, 77, 100
6, 102569, Note_on_c, 4, 77, 0
6, 102570, Note_on_c, 4, 76, 100
6, 102599, Note_on_c, 4, 76, 0
6, 102600, Note_on_c, 4, 77, 100
6, 102629, Note_on_c, 4, 77, 0
6, 102630, Note_on_c, 4, 81, 100
6, 102659, Note_on_c, 4, 81, 0
6, 102660, Note_on_c, 4, 79, 100
6, 102689, Note_on_c, 4, 79, 0
6, 102690, Note_on_c, 4, 77, 100
6, 102719, Note_on_c, 4, 77, 0
6, 102720, Note_on_c, 4, 76, 100
6, 102749, Note_on_c, 4, 76, 0
6, 102750, Note_on_c, 4, 74, 100
6, 102779, Note_on_c, 4, 74, 0
6, 102780, Note_on_c, 4, 72, 100
6, 102809, Note_on_c, 4, 72, 0
6, 102810, Note_on_c, 4, 74, 100
6, 102839, Note_on_c, 4, 74, 0
6, 102840, Note_on_c, 4, 76, 100
6, 102869, Note_on_c, 4, 76, 0
6, 102870, Note_on_c, 4, 77, 100
6, 102899, Note_on_c, 4, 77, 0
6, 102900, Note_on_c, 4, 79, 100
6, 102959, Note_on_c, 4, 79, 0
6, 102960, Note_on_c, 4, 72, 100
6, 103019, Note_on_c, 4, 72, 0
6, 103020, Note_on_c, 4, 77, 100
6, 103139, Note_on_c, 4, 77, 0
6, 103140, Note_on_c, 4, 76, 100
6, 103199, Note_on_c, 4, 76, 0
6, 103200, Note_on_c, 4, 77, 100
6, 103259, Note_on_c, 4, 77, 0
6, 103260, Note_on_c, 4, 79, 100
6, 103379, Note_on_c, 4, 79, 0
6, 103380, Note_on_c, 4, 81, 100
6, 103499, Note_on_c, 4, 81, 0
6, 103500, Note_on_c, 4, 79, 100
6, 103529, Note_on_c, 4, 79, 0
6, 103530, Note_on_c, 4, 77, 100
6, 103559, Note_on_c, 4, 77, 0
6, 103560, Note_on_c, 4, 81, 100
6, 103589, Note_on_c, 4, 81, 0
6, 103590, Note_on_c, 4, 79, 100
6, 103619, Note_on_c, 4, 79, 0
6, 103620, Note_on_c, 4, 77, 100
6, 103649, Note_on_c, 4, 77, 0
6, 103650, Note_on_c, 4, 76, 100
6, 103679, Note_on_c, 4, 76, 0
6, 103680, Note_on_c, 4, 77, 100
6, 103710, Note_on_c, 4, 77, 0
6, 103710, Note_on_c, 4, 72, 100
6, 103740, Note_on_c, 4, 72, 0
6, 103740, Note_on_c, 4, 74, 100
6, 103770, Note_on_c, 4, 74, 0
6, 103770, Note_on_c, 4, 76, 100
6, 103800, Note_on_c, 4, 76, 0
6, 103800, Note_on_c, 4, 77, 100
6, 103830, Note_on_c, 4, 77, 0
6, 103830, Note_on_c, 4, 79, 100
6, 103860, Note_on_c, 4, 79, 0
6, 103860, Note_on_c, 4, 81, 100
6, 103890, Note_on_c, 4, 81, 0
6, 103890, Note_on_c, 4, 83, 100
6, 103920, Note_on_c, 4, 83, 0
6, 103920, Note_on_c, 4, 84, 100
6, 103950, Note_on_c, 4, 84, 0
6, 103950, Note_on_c, 4, 83, 100
6, 103980, Note_on_c, 4, 83, 0
6, 103980, Note_on_c, 4, 81, 100
6, 104010, Note_on_c, 4, 81, 0
6, 104010, Note_on_c, 4, 79, 100
6, 104040, Note_on_c, 4, 79, 0
6, 104040, Note_on_c, 4, 84, 100
6, 104070, Note_on_c, 4, 84, 0
6, 104070, Note_on_c, 4, 81, 100
6, 104100, Note_on_c, 4, 81, 0
6, 104100, Note_on_c, 4, 79, 100
6, 104130, Note_on_c, 4, 79, 0
6, 104130, Note_on_c, 4, 77, 100
6, 104160, Note_on_c, 4, 77, 0
6, 104160, Note_on_c, 4, 84, 100
6, 104190, Note_on_c, 4, 84, 0
6, 104190, Note_on_c, 4, 79, 100
6, 104220, Note_on_c, 4, 79, 0
6, 104220, Note_on_c, 4, 77, 100
6, 104250, Note_on_c, 4, 77, 0
6, 104250, Note_on_c, 4, 76, 100
6, 104280, Note_on_c, 4, 76, 0
6, 104280, Note_on_c, 4, 84, 100
6, 104310, Note_on_c, 4, 84, 0
6, 104310, Note_on_c, 4, 77, 100
6, 104340, Note_on_c, 4, 77, 0
6, 104340, Note_on_c, 4, 76, 100
6, 104370, Note_on_c, 4, 76, 0
6, 104370, Note_on_c, 4, 74, 100
6, 104400, Note_on_c, 4, 74, 0
6, 104400, Note_on_c, 4, 84, 100
6, 104430, Note_on_c, 4, 84, 0
6, 104430, Note_on_c, 4, 76, 100
6, 104460, Note_on_c, 4, 76, 0
6, 104460, Note_on_c, 4, 74, 100
6, 104490, Note_on_c, 4, 74, 0
6, 104490, Note_on_c, 4, 72, 100
6, 104520, Note_on_c, 4, 72, 0
6, 104520, Note_on_c, 4, 76, 100
6, 104550, Note_on_c, 4, 76, 0
6, 104550, Note_on_c, 4, 74, 100
6, 104580, Note_on_c, 4, 74, 0
6, 104580, Note_on_c, 4, 72, 100
6, 104610, Note_on_c, 4, 72, 0
6, 104610, Note_on_c, 4, 71, 100
6, 104640, Note_on_c, 4, 71, 0
6, 104640, Note_on_c, 4, 72, 100
6, 104640, Note_on_c, 4, 60, 100
6, 104654, Note_on_c, 4, 60, 0
6, 104655, Note_on_c, 4, 67, 100
6, 104669, Note_on_c, 4, 67, 0
6, 104670, Note_on_c, 4, 69, 100
6, 104684, Note_on_c, 4, 69, 0
6, 104685, Note_on_c, 4, 71, 100
6, 104699, Note_on_c, 4, 71, 0
6, 104699, Note_on_c, 4, 72, 0
6, 104700, Note_on_c, 4, 72, 100
6, 104714, Note_on_c, 4, 72, 0
6, 104715, Note_on_c, 4, 74, 100
6, 104729, Note_on_c, 4, 74, 0
6, 104730, Note_on_c, 4, 76, 100
6, 104744, Note_on_c, 4, 76, 0
6, 104745, Note_on_c, 4, 77, 100
6, 104759, Note_on_c, 4, 77, 0
6, 104760, Note_on_c, 4, 76, 100
6, 104774, Note_on_c, 4, 76, 0
6, 104775, Note_on_c, 4, 74, 100
6, 104789, Note_on_c, 4, 74, 0
6, 104790, Note_on_c, 4, 72, 100
6, 104804, Note_on_c, 4, 72, 0
6, 104805, Note_on_c, 4, 70, 100
6, 104819, Note_on_c, 4, 70, 0
6, 104820, Note_on_c, 4, 69, 100
6, 104834, Note_on_c, 4, 69, 0
6, 104835, Note_on_c, 4, 67, 100
6, 104849, Note_on_c, 4, 67, 0
6, 104850, Note_on_c, 4, 66, 100
6, 104864, Note_on_c, 4, 66, 0
6, 104865, Note_on_c, 4, 64, 100
6, 104879, Note_on_c, 4, 64, 0
6, 104880, Note_on_c, 4, 84, 100
6, 104909, Note_on_c, 4, 84, 0
6, 104910, Note_on_c, 4, 78, 100
6, 104939, Note_on_c, 4, 78, 0
6, 104940, Note_on_c, 4, 76, 100
6, 104969, Note_on_c, 4, 76, 0
6, 104970, Note_on_c, 4, 74, 100
6, 104999, Note_on_c, 4, 74, 0
6, 105000, Note_on_c, 4, 84, 100
6, 105029, Note_on_c, 4, 84, 0
6, 105030, Note_on_c, 4, 78, 100
6, 105059, Note_on_c, 4, 78, 0
6, 105060, Note_on_c, 4, 76, 100
6, 105089, Note_on_c, 4, 76, 0
6, 105090, Note_on_c, 4, 74, 100
6, 105119, Note_on_c, 4, 74, 0
6, 105120, Note_on_c, 4, 82, 100
6, 105179, Note_on_c, 4, 82, 0
6, 105360, Note_on_c, 4, 72, 100
6, 105360, Note_on_c, 4, 67, 100
6, 105419, Note_on_c, 4, 67, 0
6, 105419, Note_on_c, 4, 72, 0
6, 105420, Note_on_c, 4, 72, 100
6, 105420, Note_on_c, 4, 67, 100
6, 105479, Note_on_c, 4, 67, 0
6, 105479, Note_on_c, 4, 72, 0
6, 105480, Note_on_c, 4, 67, 100
6, 105480, Note_on_c, 4, 72, 100
6, 105539, Note_on_c, 4, 72, 0
6, 105539, Note_on_c, 4, 67, 0
6, 105540, Note_on_c, 4, 67, 100
6, 105540, Note_on_c, 4, 72, 100
6, 105599, Note_on_c, 4, 72, 0
6, 105599, Note_on_c, 4, 67, 0
6, 105600, Note_on_c, 4, 69, 100
6, 105600, Note_on_c, 4, 72, 100
6, 105659, Note_on_c, 4, 72, 0
6, 105659, Note_on_c, 4, 69, 0
6, 105840, Note_on_c, 4, 72, 100
6, 105869, Note_on_c, 4, 72, 0
6, 105870, Note_on_c, 4, 69, 100
6, 105899, Note_on_c, 4, 69, 0
6, 105900, Note_on_c, 4, 67, 100
6, 105929, Note_on_c, 4, 67, 0
6, 105930, Note_on_c, 4, 65, 100
6, 105959, Note_on_c, 4, 65, 0
6, 105960, Note_on_c, 4, 72, 100
6, 105989, Note_on_c, 4, 72, 0
6, 105990, Note_on_c, 4, 75, 100
6, 106019, Note_on_c, 4, 75, 0
6, 106020, Note_on_c, 4, 74, 100
6, 106049, Note_on_c, 4, 74, 0
6, 106050, Note_on_c, 4, 72, 100
6, 106079, Note_on_c, 4, 72, 0
6, 106080, Note_on_c, 4, 72, 100
6, 106080, Note_on_c, 4, 78, 100
6, 106080, Note_on_c, 4, 81, 100
6, 106139, Note_on_c, 4, 81, 0
6, 106139, Note_on_c, 4, 78, 0
6, 106139, Note_on_c, 4, 72, 0
6, 106320, Note_on_c, 4, 77, 100
6, 106349, Note_on_c, 4, 77, 0
6, 106350, Note_on_c, 4, 83, 100
6, 106379, Note_on_c, 4, 83, 0
6, 106380, Note_on_c, 4, 84, 100
6, 106409, Note_on_c, 4, 84, 0
6, 106410, Note_on_c, 4, 86, 100
6, 106439, Note_on_c, 4, 86, 0
6, 106440, Note_on_c, 4, 77, 100
6, 106469, Note_on_c, 4, 77, 0
6, 106470, Note_on_c, 4, 83, 100
6, 106499, Note_on_c, 4, 83, 0
6, 106500, Note_on_c, 4, 84, 100
6, 106529, Note_on_c, 4, 84, 0
6, 106530, Note_on_c, 4, 86, 100
6, 106559, Note_on_c, 4, 86, 0
6, 106560, Note_on_c, 4, 76, 100
6, 106619, Note_on_c, 4, 76, 0
6, 106620, Note_on_c, 4, 60, 100
6, 106634, Note_on_c, 4, 60, 0
6, 106635, Note_on_c, 4, 62, 100
6, 106649, Note_on_c, 4, 62, 0
6, 106650, Note_on_c, 4, 64, 100
6, 106664, Note_on_c, 4, 64, 0
6, 106665, Note_on_c, 4, 62, 100
6, 106679, Note_on_c, 4, 62, 0
6, 106680, Note_on_c, 4, 64, 100
6, 106694, Note_on_c, 4, 64, 0
6, 106695, Note_on_c, 4, 65, 100
6, 106709, Note_on_c, 4, 65, 0
6, 106710, Note_on_c, 4, 67, 100
6, 106724, Note_on_c, 4, 67, 0
6, 106725, Note_on_c, 4, 69, 100
6, 106739, Note_on_c, 4, 69, 0
6, 106740, Note_on_c, 4, 70, 100
6, 106754, Note_on_c, 4, 70, 0
6, 106755, Note_on_c, 4, 72, 100
6, 106769, Note_on_c, 4, 72, 0
6, 106770, Note_on_c, 4, 74, 100
6, 106784, Note_on_c, 4, 74, 0
6, 106785, Note_on_c, 4, 76, 100
6, 106799, Note_on_c, 4, 76, 0
6, 106800, Note_on_c, 4, 77, 100
6, 106829, Note_on_c, 4, 77, 0
6, 106830, Note_on_c, 4, 81, 100
6, 106859, Note_on_c, 4, 81, 0
6, 106860, Note_on_c, 4, 83, 100
6, 106889, Note_on_c, 4, 83, 0
6, 106890, Note_on_c, 4, 84, 100
6, 106919, Note_on_c, 4, 84, 0
6, 106920, Note_on_c, 4, 76, 100
6, 106949, Note_on_c, 4, 76, 0
6, 106950, Note_on_c, 4, 81, 100
6, 106979, Note_on_c, 4, 81, 0
6, 106980, Note_on_c, 4, 83, 100
6, 107009, Note_on_c, 4, 83, 0
6, 107010, Note_on_c, 4, 84, 100
6, 107039, Note_on_c, 4, 84, 0
6, 107040, Note_on_c, 4, 75, 100
6, 107054, Note_on_c, 4, 75, 0
6, 107055, Note_on_c, 4, 84, 100
6, 107069, Note_on_c, 4, 84, 0
6, 107070, Note_on_c, 4, 83, 100
6, 107084, Note_on_c, 4, 83, 0
6, 107085, Note_on_c, 4, 81, 100
6, 107099, Note_on_c, 4, 81, 0
6, 107100, Note_on_c, 4, 83, 100
6, 107189, Note_on_c, 4, 83, 0
6, 107190, Note_on_c, 4, 77, 100
6, 107219, Note_on_c, 4, 77, 0
6, 107220, Note_on_c, 4, 76, 100
6, 107249, Note_on_c, 4, 76, 0
6, 107250, Note_on_c, 4, 74, 100
6, 107279, Note_on_c, 4, 74, 0
6, 107280, Note_on_c, 4, 73, 100
6, 107294, Note_on_c, 4, 73, 0
6, 107295, Note_on_c, 4, 82, 100
6, 107309, Note_on_c, 4, 82, 0
6, 107310, Note_on_c, 4, 81, 100
6, 107324, Note_on_c, 4, 81, 0
6, 107325, Note_on_c, 4, 79, 100
6, 107339, Note_on_c, 4, 79, 0
6, 107340, Note_on_c, 4, 81, 100
6, 107429, Note_on_c, 4, 81, 0
6, 107430, Note_on_c, 4, 75, 100
6, 107459, Note_on_c, 4, 75, 0
6, 107460, Note_on_c, 4, 74, 100
6, 107489, Note_on_c, 4, 74, 0
6, 107490, Note_on_c, 4, 72, 100
6, 107519, Note_on_c, 4, 72, 0
6, 107520, Note_on_c, 4, 71, 100
6, 107520, Note_on_c, 4, 62, 100
6, 107534, Note_on_c, 4, 62, 0
6, 107535, Note_on_c, 4, 67, 100
6, 107549, Note_on_c, 4, 67, 0
6, 107549, Note_on_c, 4, 71, 0
6, 107550, Note_on_c, 4, 69, 100
6, 107564, Note_on_c, 4, 69, 0
6, 107565, Note_on_c, 4, 71, 100
6, 107579, Note_on_c, 4, 71, 0
6, 107580, Note_on_c, 4, 72, 100
6, 107594, Note_on_c, 4, 72, 0
6, 107595, Note_on_c, 4, 74, 100
6, 107609, Note_on_c, 4, 74, 0
6, 107610, Note_on_c, 4, 76, 100
6, 107624, Note_on_c, 4, 76, 0
6, 107625, Note_on_c, 4, 77, 100
6, 107639, Note_on_c, 4, 77, 0
6, 107640, Note_on_c, 4, 79, 100
6, 107654, Note_on_c, 4, 79, 0
6, 107655, Note_on_c, 4, 81, 100
6, 107669, Note_on_c, 4, 81, 0
6, 107670, Note_on_c, 4, 79, 100
6, 107684, Note_on_c, 4, 79, 0
6, 107685, Note_on_c, 4, 77, 100
6, 107699, Note_on_c, 4, 77, 0
6, 107700, Note_on_c, 4, 76, 100
6, 107714, Note_on_c, 4, 76, 0
6, 107715, Note_on_c, 4, 74, 100
6, 107729, Note_on_c, 4, 74, 0
6, 107730, Note_on_c, 4, 72, 100
6, 107744, Note_on_c, 4, 72, 0
6, 107745, Note_on_c, 4, 71, 100
6, 107759, Note_on_c, 4, 71, 0
6, 107760, Note_on_c, 4, 69, 100
6, 107774, Note_on_c, 4, 69, 0
6, 107775, Note_on_c, 4, 66, 100
6, 107789, Note_on_c, 4, 66, 0
6, 107790, Note_on_c, 4, 68, 100
6, 107804, Note_on_c, 4, 68, 0
6, 107805, Note_on_c, 4, 69, 100
6, 107819, Note_on_c, 4, 69, 0
6, 107820, Note_on_c, 4, 71, 100
6, 107834, Note_on_c, 4, 71, 0
6, 107835, Note_on_c, 4, 72, 100
6, 107849, Note_on_c, 4, 72, 0
6, 107850, Note_on_c, 4, 74, 100
6, 107864, Note_on_c, 4, 74, 0
6, 107865, Note_on_c, 4, 76, 100
6, 107879, Note_on_c, 4, 76, 0
6, 107880, Note_on_c, 4, 77, 100
6, 107894, Note_on_c, 4, 77, 0
6, 107895, Note_on_c, 4, 79, 100
6, 107909, Note_on_c, 4, 79, 0
6, 107910, Note_on_c, 4, 77, 100
6, 107924, Note_on_c, 4, 77, 0
6, 107925, Note_on_c, 4, 76, 100
6, 107939, Note_on_c, 4, 76, 0
6, 107940, Note_on_c, 4, 74, 100
6, 107954, Note_on_c, 4, 74, 0
6, 107955, Note_on_c, 4, 72, 100
6, 107969, Note_on_c, 4, 72, 0
6, 107970, Note_on_c, 4, 70, 100
6, 107984, Note_on_c, 4, 70, 0
6, 107985, Note_on_c, 4, 69, 100
6, 107999, Note_on_c, 4, 69, 0
6, 108000, Note_on_c, 4, 68, 100
6, 108014, Note_on_c, 4, 68, 0
6, 108015, Note_on_c, 4, 64, 100
6, 108029, Note_on_c, 4, 64, 0
6, 108030, Note_on_c, 4, 66, 100
6, 108044, Note_on_c, 4, 66, 0
6, 108045, Note_on_c, 4, 68, 100
6, 108059, Note_on_c, 4, 68, 0
6, 108060, Note_on_c, 4, 69, 100
6, 108074, Note_on_c, 4, 69, 0
6, 108075, Note_on_c, 4, 71, 100
6, 108089, Note_on_c, 4, 71, 0
6, 108090, Note_on_c, 4, 72, 100
6, 108104, Note_on_c, 4, 72, 0
6, 108105, Note_on_c, 4, 74, 100
6, 108119, Note_on_c, 4, 74, 0
6, 108120, Note_on_c, 4, 76, 100
6, 108134, Note_on_c, 4, 76, 0
6, 108135, Note_on_c, 4, 77, 100
6, 108149, Note_on_c, 4, 77, 0
6, 108150, Note_on_c, 4, 76, 100
6, 108164, Note_on_c, 4, 76, 0
6, 108165, Note_on_c, 4, 74, 100
6, 108179, Note_on_c, 4, 74, 0
6, 108180, Note_on_c, 4, 72, 100
6, 108194, Note_on_c, 4, 72, 0
6, 108195, Note_on_c, 4, 71, 100
6, 108209, Note_on_c, 4, 71, 0
6, 108210, Note_on_c, 4, 69, 100
6, 108224, Note_on_c, 4, 69, 0
6, 108225, Note_on_c, 4, 68, 100
6, 108239, Note_on_c, 4, 68, 0
6, 108240, Note_on_c, 4, 69, 100
6, 108269, Note_on_c, 4, 69, 0
6, 108270, Note_on_c, 4, 68, 100
6, 108299, Note_on_c, 4, 68, 0
6, 108300, Note_on_c, 4, 66, 100
6, 108329, Note_on_c, 4, 66, 0
6, 108330, Note_on_c, 4, 64, 100
6, 108359, Note_on_c, 4, 64, 0
6, 108360, Note_on_c, 4, 69, 100
6, 108389, Note_on_c, 4, 69, 0
6, 108390, Note_on_c, 4, 65, 100
6, 108419, Note_on_c, 4, 65, 0
6, 108420, Note_on_c, 4, 64, 100
6, 108449, Note_on_c, 4, 64, 0
6, 108450, Note_on_c, 4, 62, 100
6, 108479, Note_on_c, 4, 62, 0
6, 108480, Note_on_c, 4, 69, 100
6, 108509, Note_on_c, 4, 69, 0
6, 108510, Note_on_c, 4, 64, 100
6, 108539, Note_on_c, 4, 64, 0
6, 108540, Note_on_c, 4, 62, 100
6, 108569, Note_on_c, 4, 62, 0
6, 108570, Note_on_c, 4, 60, 100
6, 108599, Note_on_c, 4, 60, 0
6, 108600, Note_on_c, 4, 69, 100
6, 108629, Note_on_c, 4, 69, 0
6, 108630, Note_on_c, 4, 62, 100
6, 108659, Note_on_c, 4, 62, 0
6, 108660, Note_on_c, 4, 60, 100
6, 108689, Note_on_c, 4, 60, 0
6, 108690, Note_on_c, 4, 59, 100
6, 108719, Note_on_c, 4, 59, 0
6, 108720, Note_on_c, 4, 69, 100
6, 108749, Note_on_c, 4, 69, 0
6, 108750, Note_on_c, 4, 64, 100
6, 108779, Note_on_c, 4, 64, 0
6, 108780, Note_on_c, 4, 62, 100
6, 108809, Note_on_c, 4, 62, 0
6, 108810, Note_on_c, 4, 60, 100
6, 108839, Note_on_c, 4, 60, 0
6, 108840, Note_on_c, 4, 64, 100
6, 108869, Note_on_c, 4, 64, 0
6, 108870, Note_on_c, 4, 62, 100
6, 108899, Note_on_c, 4, 62, 0
6, 108900, Note_on_c, 4, 60, 100
6, 108929, Note_on_c, 4, 60, 0
6, 108930, Note_on_c, 4, 59, 100
6, 108959, Note_on_c, 4, 59, 0
6, 108960, Note_on_c, 4, 57, 100
6, 108989, Note_on_c, 4, 57, 0
6, 108990, Note_on_c, 4, 60, 100
6, 109019, Note_on_c, 4, 60, 0
6, 109020, Note_on_c, 4, 59, 100
6, 109049, Note_on_c, 4, 59, 0
6, 109050, Note_on_c, 4, 57, 100
6, 109079, Note_on_c, 4, 57, 0
6, 109080, Note_on_c, 4, 65, 100
6, 109109, Note_on_c, 4, 65, 0
6, 109110, Note_on_c, 4, 62, 100
6, 109139, Note_on_c, 4, 62, 0
6, 109140, Note_on_c, 4, 60, 100
6, 109169, Note_on_c, 4, 60, 0
6, 109170, Note_on_c, 4, 59, 100
6, 109199, Note_on_c, 4, 59, 0
6, 109200, Note_on_c, 4, 64, 100
6, 109229, Note_on_c, 4, 64, 0
6, 109230, Note_on_c, 4, 60, 100
6, 109259, Note_on_c, 4, 60, 0
6, 109260, Note_on_c, 4, 59, 100
6, 109289, Note_on_c, 4, 59, 0
6, 109290, Note_on_c, 4, 57, 100
6, 109319, Note_on_c, 4, 57, 0
6, 109320, Note_on_c, 4, 62, 100
6, 109349, Note_on_c, 4, 62, 0
6, 109350, Note_on_c, 4, 60, 100
6, 109379, Note_on_c, 4, 60, 0
6, 109380, Note_on_c, 4, 59, 100
6, 109409, Note_on_c, 4, 59, 0
6, 109410, Note_on_c, 4, 57, 100
6, 109439, Note_on_c, 4, 57, 0
6, 109440, Note_on_c, 4, 64, 100
6, 109469, Note_on_c, 4, 64, 0
6, 109470, Note_on_c, 4, 60, 100
6, 109499, Note_on_c, 4, 60, 0
6, 109500, Note_on_c, 4, 59, 100
6, 109529, Note_on_c, 4, 59, 0
6, 109530, Note_on_c, 4, 57, 100
6, 109559, Note_on_c, 4, 57, 0
6, 109560, Note_on_c, 4, 65, 100
6, 109589, Note_on_c, 4, 65, 0
6, 109590, Note_on_c, 4, 62, 100
6, 109619, Note_on_c, 4, 62, 0
6, 109620, Note_on_c, 4, 60, 100
6, 109649, Note_on_c, 4, 60, 0
6, 109650, Note_on_c, 4, 59, 100
6, 109679, Note_on_c, 4, 59, 0
6, 109680, Note_on_c, 4, 64, 100
6, 109709, Note_on_c, 4, 64, 0
6, 109710, Note_on_c, 4, 60, 100
6, 109739, Note_on_c, 4, 60, 0
6, 109740, Note_on_c, 4, 59, 100
6, 109769, Note_on_c, 4, 59, 0
6, 109770, Note_on_c, 4, 57, 100
6, 109799, Note_on_c, 4, 57, 0
6, 109800, Note_on_c, 4, 62, 100
6, 109829, Note_on_c, 4, 62, 0
6, 109830, Note_on_c, 4, 60, 100
6, 109859, Note_on_c, 4, 60, 0
6, 109860, Note_on_c, 4, 59, 100
6, 109889, Note_on_c, 4, 59, 0
6, 109890, Note_on_c, 4, 57, 100
6, 109919, Note_on_c, 4, 57, 0
6, 109920, Note_on_c, 4, 64, 100
6, 109949, Note_on_c, 4, 64, 0
6, 109950, Note_on_c, 4, 56, 100
6, 109979, Note_on_c, 4, 56, 0
6, 109980, Note_on_c, 4, 57, 100
6, 110009, Note_on_c, 4, 57, 0
6, 110010, Note_on_c, 4, 65, 100
6, 110039, Note_on_c, 4, 65, 0
6, 110040, Note_on_c, 4, 59, 100
6, 110129, Note_on_c, 4, 59, 0
6, 110130, Note_on_c, 4, 57, 100
6, 110159, Note_on_c, 4, 57, 0
6, 110160, Note_on_c, 4, 57, 100
6, 110219, Note_on_c, 4, 57, 0
6, 118560, Note_on_c, 4, 74, 100
6, 118619, Note_on_c, 4, 74, 0
6, 118620, Note_on_c, 4, 79, 100
6, 118739, Note_on_c, 4, 79, 0
6, 118740, Note_on_c, 4, 78, 100
6, 118799, Note_on_c, 4, 78, 0
6, 118800, Note_on_c, 4, 79, 100
6, 118859, Note_on_c, 4, 79, 0
6, 118860, Note_on_c, 4, 81, 100
6, 118979, Note_on_c, 4, 81, 0
6, 118980, Note_on_c, 4, 82, 100
6, 119099, Note_on_c, 4, 82, 0
6, 119100, Note_on_c, 4, 81, 100
6, 119129, Note_on_c, 4, 81, 0
6, 119130, Note_on_c, 4, 79, 100
6, 119159, Note_on_c, 4, 79, 0
6, 119160, Note_on_c, 4, 82, 100
6, 119189, Note_on_c, 4, 82, 0
6, 119190, Note_on_c, 4, 81, 100
6, 119219, Note_on_c, 4, 81, 0
6, 119220, Note_on_c, 4, 79, 100
6, 119249, Note_on_c, 4, 79, 0
6, 119250, Note_on_c, 4, 78, 100
6, 119279, Note_on_c, 4, 78, 0
6, 119280, Note_on_c, 4, 79, 100
6, 119280, Note_on_c, 4, 55, 100
6, 119294, Note_on_c, 4, 55, 0
6, 119295, Note_on_c, 4, 62, 100
6, 119309, Note_on_c, 4, 62, 0
6, 119310, Note_on_c, 4, 79, 0
6, 119310, Note_on_c, 4, 64, 100
6, 119324, Note_on_c, 4, 64, 0
6, 119325, Note_on_c, 4, 66, 100
6, 119339, Note_on_c, 4, 66, 0
6, 119340, Note_on_c, 4, 67, 100
6, 119354, Note_on_c, 4, 67, 0
6, 119355, Note_on_c, 4, 69, 100
6, 119369, Note_on_c, 4, 69, 0
6, 119370, Note_on_c, 4, 70, 100
6, 119384, Note_on_c, 4, 70, 0
6, 119385, Note_on_c, 4, 72, 100
6, 119399, Note_on_c, 4, 72, 0
6, 119400, Note_on_c, 4, 70, 100
6, 119414, Note_on_c, 4, 70, 0
6, 119415, Note_on_c, 4, 69, 100
6, 119429, Note_on_c, 4, 69, 0
6, 119430, Note_on_c, 4, 67, 100
6, 119444, Note_on_c, 4, 67, 0
6, 119445, Note_on_c, 4, 65, 100
6, 119459, Note_on_c, 4, 65, 0
6, 119460, Note_on_c, 4, 64, 100
6, 119474, Note_on_c, 4, 64, 0
6, 119475, Note_on_c, 4, 62, 100
6, 119489, Note_on_c, 4, 62, 0
6, 119490, Note_on_c, 4, 60, 100
6, 119504, Note_on_c, 4, 60, 0
6, 119505, Note_on_c, 4, 58, 100
6, 119519, Note_on_c, 4, 58, 0
6, 119520, Note_on_c, 4, 77, 100
6, 119549, Note_on_c, 4, 77, 0
6, 119550, Note_on_c, 4, 76, 100
6, 119579, Note_on_c, 4, 76, 0
6, 119580, Note_on_c, 4, 74, 100
6, 119609, Note_on_c, 4, 74, 0
6, 119610, Note_on_c, 4, 72, 100
6, 119639, Note_on_c, 4, 72, 0
6, 119640, Note_on_c, 4, 77, 100
6, 119669, Note_on_c, 4, 77, 0
6, 119670, Note_on_c, 4, 74, 100
6, 119699, Note_on_c, 4, 74, 0
6, 119700, Note_on_c, 4, 72, 100
6, 119729, Note_on_c, 4, 72, 0
6, 119730, Note_on_c, 4, 70, 100
6, 119759, Note_on_c, 4, 70, 0
6, 119760, Note_on_c, 4, 77, 100
6, 119789, Note_on_c, 4, 77, 0
6, 119790, Note_on_c, 4, 72, 100
6, 119819, Note_on_c, 4, 72, 0
6, 119820, Note_on_c, 4, 70, 100
6, 119849, Note_on_c, 4, 70, 0
6, 119850, Note_on_c, 4, 69, 100
6, 119879, Note_on_c, 4, 69, 0
6, 119880, Note_on_c, 4, 77, 100
6, 119909, Note_on_c, 4, 77, 0
6, 119910, Note_on_c, 4, 70, 100
6, 119939, Note_on_c, 4, 70, 0
6, 119940, Note_on_c, 4, 69, 100
6, 119969, Note_on_c, 4, 69, 0
6, 119970, Note_on_c, 4, 67, 100
6, 119999, Note_on_c, 4, 67, 0
6, 120000, Note_on_c, 4, 65, 100
6, 120029, Note_on_c, 4, 65, 0
6, 120030, Note_on_c, 4, 81, 100
6, 120059, Note_on_c, 4, 81, 0
6, 120060, Note_on_c, 4, 79, 100
6, 120089, Note_on_c, 4, 79, 0
6, 120090, Note_on_c, 4, 77, 100
6, 120119, Note_on_c, 4, 77, 0
6, 120120, Note_on_c, 4, 81, 100
6, 120149, Note_on_c, 4, 81, 0
6, 120150, Note_on_c, 4, 79, 100
6, 120179, Note_on_c, 4, 79, 0
6, 120180, Note_on_c, 4, 77, 100
6, 120209, Note_on_c, 4, 77, 0
6, 120210, Note_on_c, 4, 76, 100
6, 120239, Note_on_c, 4, 76, 0
6, 120240, Note_on_c, 4, 77, 100
6, 120299, Note_on_c, 4, 77, 0
6, 120480, Note_on_c, 4, 74, 100
6, 120480, Note_on_c, 4, 67, 100
6, 120539, Note_on_c, 4, 67, 0
6, 120539, Note_on_c, 4, 74, 0
6, 120540, Note_on_c, 4, 74, 100
6, 120540, Note_on_c, 4, 67, 100
6, 120599, Note_on_c, 4, 67, 0
6, 120599, Note_on_c, 4, 74, 0
6, 120600, Note_on_c, 4, 74, 100
6, 120600, Note_on_c, 4, 67, 100
6, 120659, Note_on_c, 4, 67, 0
6, 120659, Note_on_c, 4, 74, 0
6, 120660, Note_on_c, 4, 74, 100
6, 120660, Note_on_c, 4, 67, 100
6, 120719, Note_on_c, 4, 67, 0
6, 120719, Note_on_c, 4, 74, 0
6, 120720, Note_on_c, 4, 72, 100
6, 120720, Note_on_c, 4, 76, 100
6, 120779, Note_on_c, 4, 76, 0
6, 120779, Note_on_c, 4, 72, 0
6, 120960, Note_on_c, 4, 65, 100
6, 120960, Note_on_c, 4, 60, 100
6, 121019, Note_on_c, 4, 60, 0
6, 121019, Note_on_c, 4, 65, 0
6, 121020, Note_on_c, 4, 60, 100
6, 121020, Note_on_c, 4, 65, 100
6, 121079, Note_on_c, 4, 65, 0
6, 121079, Note_on_c, 4, 60, 0
6, 121080, Note_on_c, 4, 65, 100
6, 121080, Note_on_c, 4, 60, 100
6, 121139, Note_on_c, 4, 60, 0
6, 121139, Note_on_c, 4, 65, 0
6, 121140, Note_on_c, 4, 63, 100
6, 121140, Note_on_c, 4, 65, 100
6, 121199, Note_on_c, 4, 65, 0
6, 121199, Note_on_c, 4, 63, 0
6, 121200, Note_on_c, 4, 62, 100
6, 121200, Note_on_c, 4, 65, 100
6, 121215, Note_on_c, 4, 57, 100
6, 121229, Note_on_c, 4, 57, 0
6, 121230, Note_on_c, 4, 65, 0
6, 121230, Note_on_c, 4, 62, 0
6, 121230, Note_on_c, 4, 58, 100
6, 121244, Note_on_c, 4, 58, 0
6, 121245, Note_on_c, 4, 60, 100
6, 121259, Note_on_c, 4, 60, 0
6, 121260, Note_on_c, 4, 62, 100
6, 121274, Note_on_c, 4, 62, 0
6, 121275, Note_on_c, 4, 63, 100
6, 121289, Note_on_c, 4, 63, 0
6, 121290, Note_on_c, 4, 65, 100
6, 121304, Note_on_c, 4, 65, 0
6, 121305, Note_on_c, 4, 67, 100
6, 121319, Note_on_c, 4, 67, 0
6, 121320, Note_on_c, 4, 65, 100
6, 121334, Note_on_c, 4, 65, 0
6, 121335, Note_on_c, 4, 62, 100
6, 121349, Note_on_c, 4, 62, 0
6, 121350, Note_on_c, 4, 63, 100
6, 121364, Note_on_c, 4, 63, 0
6, 121365, Note_on_c, 4, 65, 100
6, 121379, Note_on_c, 4, 65, 0
6, 121380, Note_on_c, 4, 67, 100
6, 121394, Note_on_c, 4, 67, 0
6, 121395, Note_on_c, 4, 69, 100
6, 121409, Note_on_c, 4, 69, 0
6, 121410, Note_on_c, 4, 70, 100
6, 121424, Note_on_c, 4, 70, 0
6, 121425, Note_on_c, 4, 72, 100
6, 121439, Note_on_c, 4, 72, 0
6, 121440, Note_on_c, 4, 74, 100
6, 121469, Note_on_c, 4, 74, 0
6, 121470, Note_on_c, 4, 65, 100
6, 121499, Note_on_c, 4, 65, 0
6, 121500, Note_on_c, 4, 63, 100
6, 121529, Note_on_c, 4, 63, 0
6, 121530, Note_on_c, 4, 62, 100
6, 121559, Note_on_c, 4, 62, 0
6, 121560, Note_on_c, 4, 74, 100
6, 121589, Note_on_c, 4, 74, 0
6, 121590, Note_on_c, 4, 65, 100
6, 121619, Note_on_c, 4, 65, 0
6, 121620, Note_on_c, 4, 63, 100
6, 121649, Note_on_c, 4, 63, 0
6, 121650, Note_on_c, 4, 62, 100
6, 121679, Note_on_c, 4, 62, 0
6, 121680, Note_on_c, 4, 71, 100
6, 121709, Note_on_c, 4, 71, 0
6, 121710, Note_on_c, 4, 65, 100
6, 121739, Note_on_c, 4, 65, 0
6, 121740, Note_on_c, 4, 63, 100
6, 121769, Note_on_c, 4, 63, 0
6, 121770, Note_on_c, 4, 62, 100
6, 121799, Note_on_c, 4, 62, 0
6, 121800, Note_on_c, 4, 67, 100
6, 121829, Note_on_c, 4, 67, 0
6, 121830, Note_on_c, 4, 71, 100
6, 121859, Note_on_c, 4, 71, 0
6, 121860, Note_on_c, 4, 69, 100
6, 121889, Note_on_c, 4, 69, 0
6, 121890, Note_on_c, 4, 67, 100
6, 121919, Note_on_c, 4, 67, 0
6, 121920, Note_on_c, 4, 70, 100
6, 121949, Note_on_c, 4, 70, 0
6, 121950, Note_on_c, 4, 76, 100
6, 121979, Note_on_c, 4, 76, 0
6, 121980, Note_on_c, 4, 77, 100
6, 122009, Note_on_c, 4, 77, 0
6, 122010, Note_on_c, 4, 79, 100
6, 122039, Note_on_c, 4, 79, 0
6, 122040, Note_on_c, 4, 70, 100
6, 122069, Note_on_c, 4, 70, 0
6, 122070, Note_on_c, 4, 76, 100
6, 122099, Note_on_c, 4, 76, 0
6, 122100, Note_on_c, 4, 77, 100
6, 122129, Note_on_c, 4, 77, 0
6, 122130, Note_on_c, 4, 79, 100
6, 122159, Note_on_c, 4, 79, 0
6, 122160, Note_on_c, 4, 69, 100
6, 122189, Note_on_c, 4, 69, 0
6, 122190, Note_on_c, 4, 72, 100
6, 122219, Note_on_c, 4, 72, 0
6, 122220, Note_on_c, 4, 74, 100
6, 122249, Note_on_c, 4, 74, 0
6, 122250, Note_on_c, 4, 75, 100
6, 122279, Note_on_c, 4, 75, 0
6, 122280, Note_on_c, 4, 65, 100
6, 122309, Note_on_c, 4, 65, 0
6, 122310, Note_on_c, 4, 69, 100
6, 122339, Note_on_c, 4, 69, 0
6, 122340, Note_on_c, 4, 67, 100
6, 122369, Note_on_c, 4, 67, 0
6, 122370, Note_on_c, 4, 65, 100
6, 122399, Note_on_c, 4, 65, 0
6, 122400, Note_on_c, 4, 70, 100
6, 122429, Note_on_c, 4, 70, 0
6, 122430, Note_on_c, 4, 74, 100
6, 122459, Note_on_c, 4, 74, 0
6, 122460, Note_on_c, 4, 76, 100
6, 122489, Note_on_c, 4, 76, 0
6, 122490, Note_on_c, 4, 77, 100
6, 122519, Note_on_c, 4, 77, 0
6, 122520, Note_on_c, 4, 69, 100
6, 122549, Note_on_c, 4, 69, 0
6, 122550, Note_on_c, 4, 74, 100
6, 122579, Note_on_c, 4, 74, 0
6, 122580, Note_on_c, 4, 76, 100
6, 122609, Note_on_c, 4, 76, 0
6, 122610, Note_on_c, 4, 77, 100
6, 122639, Note_on_c, 4, 77, 0
6, 122640, Note_on_c, 4, 68, 100
6, 122654, Note_on_c, 4, 68, 0
6, 122655, Note_on_c, 4, 77, 100
6, 122669, Note_on_c, 4, 77, 0
6, 122670, Note_on_c, 4, 76, 100
6, 122684, Note_on_c, 4, 76, 0
6, 122685, Note_on_c, 4, 74, 100
6, 122699, Note_on_c, 4, 74, 0
6, 122700, Note_on_c, 4, 76, 100
6, 122789, Note_on_c, 4, 76, 0
6, 122790, Note_on_c, 4, 70, 100
6, 122819, Note_on_c, 4, 70, 0
6, 122820, Note_on_c, 4, 69, 100
6, 122849, Note_on_c, 4, 69, 0
6, 122850, Note_on_c, 4, 67, 100
6, 122879, Note_on_c, 4, 67, 0
6, 122880, Note_on_c, 4, 66, 100
6, 122894, Note_on_c, 4, 66, 0
6, 122895, Note_on_c, 4, 75, 100
6, 122909, Note_on_c, 4, 75, 0
6, 122910, Note_on_c, 4, 74, 100
6, 122924, Note_on_c, 4, 74, 0
6, 122925, Note_on_c, 4, 72, 100
6, 122939, Note_on_c, 4, 72, 0
6, 122940, Note_on_c, 4, 74, 100
6, 123029, Note_on_c, 4, 74, 0
6, 123030, Note_on_c, 4, 68, 100
6, 123059, Note_on_c, 4, 68, 0
6, 123060, Note_on_c, 4, 67, 100
6, 123089, Note_on_c, 4, 67, 0
6, 123090, Note_on_c, 4, 65, 100
6, 123119, Note_on_c, 4, 65, 0
6, 123120, Note_on_c, 4, 55, 100
6, 123120, Note_on_c, 4, 64, 100
6, 123134, Note_on_c, 4, 64, 0
6, 123134, Note_on_c, 4, 55, 0
6, 123135, Note_on_c, 4, 60, 100
6, 123149, Note_on_c, 4, 60, 0
6, 123150, Note_on_c, 4, 62, 100
6, 123164, Note_on_c, 4, 62, 0
6, 123165, Note_on_c, 4, 64, 100
6, 123179, Note_on_c, 4, 64, 0
6, 123180, Note_on_c, 4, 65, 100
6, 123194, Note_on_c, 4, 65, 0
6, 123195, Note_on_c, 4, 67, 100
6, 123209, Note_on_c, 4, 67, 0
6, 123210, Note_on_c, 4, 69, 100
6, 123224, Note_on_c, 4, 69, 0
6, 123225, Note_on_c, 4, 70, 100
6, 123239, Note_on_c, 4, 70, 0
6, 123240, Note_on_c, 4, 72, 100
6, 123254, Note_on_c, 4, 72, 0
6, 123255, Note_on_c, 4, 74, 100
6, 123269, Note_on_c, 4, 74, 0
6, 123270, Note_on_c, 4, 72, 100
6, 123284, Note_on_c, 4, 72, 0
6, 123285, Note_on_c, 4, 70, 100
6, 123299, Note_on_c, 4, 70, 0
6, 123300, Note_on_c, 4, 69, 100
6, 123314, Note_on_c, 4, 69, 0
6, 123315, Note_on_c, 4, 67, 100
6, 123329, Note_on_c, 4, 67, 0
6, 123330, Note_on_c, 4, 65, 100
6, 123344, Note_on_c, 4, 65, 0
6, 123345, Note_on_c, 4, 64, 100
6, 123359, Note_on_c, 4, 64, 0
6, 123360, Note_on_c, 4, 62, 100
6, 123374, Note_on_c, 4, 62, 0
6, 123375, Note_on_c, 4, 59, 100
6, 123389, Note_on_c, 4, 59, 0
6, 123390, Note_on_c, 4, 61, 100
6, 123404, Note_on_c, 4, 61, 0
6, 123405, Note_on_c, 4, 62, 100
6, 123419, Note_on_c, 4, 62, 0
6, 123420, Note_on_c, 4, 64, 100
6, 123434, Note_on_c, 4, 64, 0
6, 123435, Note_on_c, 4, 65, 100
6, 123449, Note_on_c, 4, 65, 0
6, 123450, Note_on_c, 4, 67, 100
6, 123464, Note_on_c, 4, 67, 0
6, 123465, Note_on_c, 4, 69, 100
6, 123479, Note_on_c, 4, 69, 0
6, 123480, Note_on_c, 4, 70, 100
6, 123494, Note_on_c, 4, 70, 0
6, 123495, Note_on_c, 4, 72, 100
6, 123509, Note_on_c, 4, 72, 0
6, 123510, Note_on_c, 4, 70, 100
6, 123524, Note_on_c, 4, 70, 0
6, 123525, Note_on_c, 4, 69, 100
6, 123539, Note_on_c, 4, 69, 0
6, 123540, Note_on_c, 4, 67, 100
6, 123554, Note_on_c, 4, 67, 0
6, 123555, Note_on_c, 4, 65, 100
6, 123569, Note_on_c, 4, 65, 0
6, 123570, Note_on_c, 4, 63, 100
6, 123584, Note_on_c, 4, 63, 0
6, 123585, Note_on_c, 4, 62, 100
6, 123599, Note_on_c, 4, 62, 0
6, 123600, Note_on_c, 4, 61, 100
6, 123614, Note_on_c, 4, 61, 0
6, 123615, Note_on_c, 4, 59, 100
6, 123629, Note_on_c, 4, 59, 0
6, 123630, Note_on_c, 4, 57, 100
6, 123644, Note_on_c, 4, 57, 0
6, 123645, Note_on_c, 4, 59, 100
6, 123659, Note_on_c, 4, 59, 0
6, 123660, Note_on_c, 4, 61, 100
6, 123674, Note_on_c, 4, 61, 0
6, 123675, Note_on_c, 4, 62, 100
6, 123689, Note_on_c, 4, 62, 0
6, 123690, Note_on_c, 4, 64, 100
6, 123704, Note_on_c, 4, 64, 0
6, 123705, Note_on_c, 4, 65, 100
6, 123719, Note_on_c, 4, 65, 0
6, 123720, Note_on_c, 4, 67, 100
6, 123734, Note_on_c, 4, 67, 0
6, 123735, Note_on_c, 4, 69, 100
6, 123749, Note_on_c, 4, 69, 0
6, 123750, Note_on_c, 4, 71, 100
6, 123764, Note_on_c, 4, 71, 0
6, 123765, Note_on_c, 4, 73, 100
6, 123779, Note_on_c, 4, 73, 0
6, 123780, Note_on_c, 4, 74, 100
6, 123794, Note_on_c, 4, 74, 0
6, 123795, Note_on_c, 4, 76, 100
6, 123809, Note_on_c, 4, 76, 0
6, 123810, Note_on_c, 4, 77, 100
6, 123824, Note_on_c, 4, 77, 0
6, 123825, Note_on_c, 4, 79, 100
6, 123839, Note_on_c, 4, 79, 0
6, 123840, Note_on_c, 4, 81, 100
6, 123869, Note_on_c, 4, 81, 0
6, 123870, Note_on_c, 4, 74, 100
6, 123899, Note_on_c, 4, 74, 0
6, 123900, Note_on_c, 4, 76, 100
6, 123929, Note_on_c, 4, 76, 0
6, 123930, Note_on_c, 4, 77, 100
6, 123959, Note_on_c, 4, 77, 0
6, 123960, Note_on_c, 4, 79, 100
6, 123989, Note_on_c, 4, 79, 0
6, 123990, Note_on_c, 4, 81, 100
6, 124019, Note_on_c, 4, 81, 0
6, 124020, Note_on_c, 4, 77, 100
6, 124049, Note_on_c, 4, 77, 0
6, 124050, Note_on_c, 4, 79, 100
6, 124079, Note_on_c, 4, 79, 0
6, 124080, Note_on_c, 4, 81, 100
6, 124109, Note_on_c, 4, 81, 0
6, 124110, Note_on_c, 4, 77, 100
6, 124139, Note_on_c, 4, 77, 0
6, 124140, Note_on_c, 4, 76, 100
6, 124169, Note_on_c, 4, 76, 0
6, 124170, Note_on_c, 4, 74, 100
6, 124199, Note_on_c, 4, 74, 0
6, 124200, Note_on_c, 4, 82, 100
6, 124229, Note_on_c, 4, 82, 0
6, 124230, Note_on_c, 4, 79, 100
6, 124259, Note_on_c, 4, 79, 0
6, 124260, Note_on_c, 4, 77, 100
6, 124289, Note_on_c, 4, 77, 0
6, 124290, Note_on_c, 4, 76, 100
6, 124319, Note_on_c, 4, 76, 0
6, 124320, Note_on_c, 4, 85, 100
6, 124349, Note_on_c, 4, 85, 0
6, 124350, Note_on_c, 4, 81, 100
6, 124379, Note_on_c, 4, 81, 0
6, 124380, Note_on_c, 4, 86, 100
6, 124409, Note_on_c, 4, 86, 0
6, 124410, Note_on_c, 4, 74, 100
6, 124439, Note_on_c, 4, 74, 0
6, 124440, Note_on_c, 4, 81, 100
6, 124469, Note_on_c, 4, 81, 0
6, 124470, Note_on_c, 4, 79, 100
6, 124499, Note_on_c, 4, 79, 0
6, 124500, Note_on_c, 4, 77, 100
6, 124529, Note_on_c, 4, 77, 0
6, 124530, Note_on_c, 4, 76, 100
6, 124559, Note_on_c, 4, 76, 0
6, 124560, Note_on_c, 4, 77, 100
6, 124589, Note_on_c, 4, 77, 0
6, 124590, Note_on_c, 4, 69, 100
6, 124619, Note_on_c, 4, 69, 0
6, 124620, Note_on_c, 4, 74, 100
6, 124649, Note_on_c, 4, 74, 0
6, 124650, Note_on_c, 4, 77, 100
6, 124679, Note_on_c, 4, 77, 0
6, 124680, Note_on_c, 4, 81, 100
6, 124709, Note_on_c, 4, 81, 0
6, 124710, Note_on_c, 4, 74, 100
6, 124739, Note_on_c, 4, 74, 0
6, 124740, Note_on_c, 4, 77, 100
6, 124769, Note_on_c, 4, 77, 0
6, 124770, Note_on_c, 4, 81, 100
6, 124799, Note_on_c, 4, 81, 0
6, 124800, Note_on_c, 4, 86, 100
6, 124829, Note_on_c, 4, 86, 0
6, 124830, Note_on_c, 4, 82, 100
6, 124859, Note_on_c, 4, 82, 0
6, 124860, Note_on_c, 4, 81, 100
6, 124889, Note_on_c, 4, 81, 0
6, 124890, Note_on_c, 4, 79, 100
6, 124919, Note_on_c, 4, 79, 0
6, 124920, Note_on_c, 4, 84, 100
6, 124949, Note_on_c, 4, 84, 0
6, 124950, Note_on_c, 4, 81, 100
6, 124979, Note_on_c, 4, 81, 0
6, 124980, Note_on_c, 4, 79, 100
6, 125009, Note_on_c, 4, 79, 0
6, 125010, Note_on_c, 4, 78, 100
6, 125039, Note_on_c, 4, 78, 0
6, 125040, Note_on_c, 4, 82, 100
6, 125069, Note_on_c, 4, 82, 0
6, 125070, Note_on_c, 4, 79, 100
6, 125099, Note_on_c, 4, 79, 0
6, 125100, Note_on_c, 4, 77, 100
6, 125129, Note_on_c, 4, 77, 0
6, 125130, Note_on_c, 4, 76, 100
6, 125159, Note_on_c, 4, 76, 0
6, 125160, Note_on_c, 4, 81, 100
6, 125189, Note_on_c, 4, 81, 0
6, 125190, Note_on_c, 4, 77, 100
6, 125219, Note_on_c, 4, 77, 0
6, 125220, Note_on_c, 4, 76, 100
6, 125249, Note_on_c, 4, 76, 0
6, 125250, Note_on_c, 4, 74, 100
6, 125279, Note_on_c, 4, 74, 0
6, 125280, Note_on_c, 4, 79, 100
6, 125309, Note_on_c, 4, 79, 0
6, 125310, Note_on_c, 4, 76, 100
6, 125339, Note_on_c, 4, 76, 0
6, 125340, Note_on_c, 4, 74, 100
6, 125369, Note_on_c, 4, 74, 0
6, 125370, Note_on_c, 4, 72, 100
6, 125399, Note_on_c, 4, 72, 0
6, 125400, Note_on_c, 4, 77, 100
6, 125429, Note_on_c, 4, 77, 0
6, 125430, Note_on_c, 4, 74, 100
6, 125459, Note_on_c, 4, 74, 0
6, 125460, Note_on_c, 4, 72, 100
6, 125489, Note_on_c, 4, 72, 0
6, 125490, Note_on_c, 4, 71, 100
6, 125519, Note_on_c, 4, 71, 0
6, 125520, Note_on_c, 4, 76, 100
6, 125549, Note_on_c, 4, 76, 0
6, 125550, Note_on_c, 4, 72, 100
6, 125579, Note_on_c, 4, 72, 0
6, 125580, Note_on_c, 4, 71, 100
6, 125609, Note_on_c, 4, 71, 0
6, 125610, Note_on_c, 4, 69, 100
6, 125639, Note_on_c, 4, 69, 0
6, 125640, Note_on_c, 4, 74, 100
6, 125669, Note_on_c, 4, 74, 0
6, 125670, Note_on_c, 4, 70, 100
6, 125699, Note_on_c, 4, 70, 0
6, 125700, Note_on_c, 4, 69, 100
6, 125729, Note_on_c, 4, 69, 0
6, 125730, Note_on_c, 4, 67, 100
6, 125759, Note_on_c, 4, 67, 0
6, 125760, Note_on_c, 4, 72, 100
6, 125789, Note_on_c, 4, 72, 0
6, 125790, Note_on_c, 4, 69, 100
6, 125819, Note_on_c, 4, 69, 0
6, 125820, Note_on_c, 4, 67, 100
6, 125849, Note_on_c, 4, 67, 0
6, 125850, Note_on_c, 4, 65, 100
6, 125879, Note_on_c, 4, 65, 0
6, 125880, Note_on_c, 4, 70, 100
6, 125909, Note_on_c, 4, 70, 0
6, 125910, Note_on_c, 4, 67, 100
6, 125939, Note_on_c, 4, 67, 0
6, 125940, Note_on_c, 4, 65, 100
6, 125969, Note_on_c, 4, 65, 0
6, 125970, Note_on_c, 4, 64, 100
6, 125999, Note_on_c, 4, 64, 0
6, 126000, Note_on_c, 4, 69, 100
6, 126029, Note_on_c, 4, 69, 0
6, 126030, Note_on_c, 4, 65, 100
6, 126059, Note_on_c, 4, 65, 0
6, 126060, Note_on_c, 4, 64, 100
6, 126089, Note_on_c, 4, 64, 0
6, 126090, Note_on_c, 4, 62, 100
6, 126119, Note_on_c, 4, 62, 0
6, 126120, Note_on_c, 4, 67, 100
6, 126149, Note_on_c, 4, 67, 0
6, 126150, Note_on_c, 4, 63, 100
6, 126179, Note_on_c, 4, 63, 0
6, 126180, Note_on_c, 4, 62, 100
6, 126209, Note_on_c, 4, 62, 0
6, 126210, Note_on_c, 4, 60, 100
6, 126239, Note_on_c, 4, 60, 0
6, 126240, Note_on_c, 4, 65, 100
6, 126269, Note_on_c, 4, 65, 0
6, 126270, Note_on_c, 4, 62, 100
6, 126299, Note_on_c, 4, 62, 0
6, 126300, Note_on_c, 4, 60, 100
6, 126329, Note_on_c, 4, 60, 0
6, 126330, Note_on_c, 4, 58, 100
6, 126359, Note_on_c, 4, 58, 0
6, 126360, Note_on_c, 4, 63, 100
6, 126389, Note_on_c, 4, 63, 0
6, 126390, Note_on_c, 4, 60, 100
6, 126419, Note_on_c, 4, 60, 0
6, 126420, Note_on_c, 4, 58, 100
6, 126449, Note_on_c, 4, 58, 0
6, 126450, Note_on_c, 4, 57, 100
6, 126479, Note_on_c, 4, 57, 0
6, 126480, Note_on_c, 4, 62, 100
6, 126509, Note_on_c, 4, 62, 0
6, 126510, Note_on_c, 4, 58, 100
6, 126539, Note_on_c, 4, 58, 0
6, 126540, Note_on_c, 4, 57, 100
6, 126569, Note_on_c, 4, 57, 0
6, 126570, Note_on_c, 4, 55, 100
6, 126599, Note_on_c, 4, 55, 0
6, 126600, Note_on_c, 4, 60, 100
6, 126629, Note_on_c, 4, 60, 0
6, 126630, Note_on_c, 4, 57, 100
6, 126659, Note_on_c, 4, 57, 0
6, 126660, Note_on_c, 4, 55, 100
6, 126689, Note_on_c, 4, 55, 0
6, 126690, Note_on_c, 4, 53, 100
6, 126719, Note_on_c, 4, 53, 0
6, 126720, Note_on_c, 4, 58, 100
6, 126749, Note_on_c, 4, 58, 0
6, 126750, Note_on_c, 4, 55, 100
6, 126779, Note_on_c, 4, 55, 0
6, 126780, Note_on_c, 4, 53, 100
6, 126809, Note_on_c, 4, 53, 0
6, 126810, Note_on_c, 4, 52, 100
6, 126839, Note_on_c, 4, 52, 0
6, 126840, Note_on_c, 4, 57, 100
6, 126869, Note_on_c, 4, 57, 0
6, 126870, Note_on_c, 4, 53, 100
6, 126899, Note_on_c, 4, 53, 0
6, 126900, Note_on_c, 4, 52, 100
6, 126929, Note_on_c, 4, 52, 0
6, 126930, Note_on_c, 4, 50, 100
6, 126959, Note_on_c, 4, 50, 0
6, 127680, Note_on_c, 4, 69, 100
6, 127694, Note_on_c, 4, 69, 0
6, 127695, Note_on_c, 4, 65, 100
6, 127709, Note_on_c, 4, 65, 0
6, 127710, Note_on_c, 4, 62, 100
6, 127724, Note_on_c, 4, 62, 0
6, 127725, Note_on_c, 4, 64, 100
6, 127739, Note_on_c, 4, 64, 0
6, 127740, Note_on_c, 4, 65, 100
6, 127754, Note_on_c, 4, 65, 0
6, 127755, Note_on_c, 4, 67, 100
6, 127769, Note_on_c, 4, 67, 0
6, 127770, Note_on_c, 4, 69, 100
6, 127784, Note_on_c, 4, 69, 0
6, 127785, Note_on_c, 4, 71, 100
6, 127799, Note_on_c, 4, 71, 0
6, 127800, Note_on_c, 4, 73, 100
6, 127814, Note_on_c, 4, 73, 0
6, 127815, Note_on_c, 4, 74, 100
6, 127829, Note_on_c, 4, 74, 0
6, 127830, Note_on_c, 4, 76, 100
6, 127844, Note_on_c, 4, 76, 0
6, 127845, Note_on_c, 4, 77, 100
6, 127859, Note_on_c, 4, 77, 0
6, 127860, Note_on_c, 4, 79, 100
6, 127874, Note_on_c, 4, 79, 0
6, 127875, Note_on_c, 4, 81, 100
6, 127889, Note_on_c, 4, 81, 0
6, 127890, Note_on_c, 4, 83, 100
6, 127904, Note_on_c, 4, 83, 0
6, 127905, Note_on_c, 4, 85, 100
6, 127919, Note_on_c, 4, 85, 0
6, 127920, Note_on_c, 4, 86, 100
6, 127979, Note_on_c, 4, 86, 0
6, 127980, Note_on_c, 4, 74, 100
6, 128099, Note_on_c, 4, 74, 0
6, 128100, Note_on_c, 4, 73, 100
6, 128159, Note_on_c, 4, 73, 0
6, 128160, Note_on_c, 4, 74, 100
6, 128219, Note_on_c, 4, 74, 0
6, 128220, Note_on_c, 4, 76, 100
6, 128339, Note_on_c, 4, 76, 0
6, 128340, Note_on_c, 4, 77, 100
6, 128459, Note_on_c, 4, 77, 0
6, 128460, Note_on_c, 4, 76, 100
6, 128489, Note_on_c, 4, 76, 0
6, 128490, Note_on_c, 4, 74, 100
6, 128519, Note_on_c, 4, 74, 0
6, 128520, Note_on_c, 4, 77, 100
6, 128549, Note_on_c, 4, 77, 0
6, 128550, Note_on_c, 4, 76, 100
6, 128579, Note_on_c, 4, 76, 0
6, 128580, Note_on_c, 4, 74, 100
6, 128609, Note_on_c, 4, 74, 0
6, 128610, Note_on_c, 4, 73, 100
6, 128639, Note_on_c, 4, 73, 0
6, 128640, Note_on_c, 4, 74, 100
6, 128669, Note_on_c, 4, 74, 0
6, 128670, Note_on_c, 4, 76, 100
6, 128699, Note_on_c, 4, 76, 0
6, 128700, Note_on_c, 4, 77, 100
6, 128729, Note_on_c, 4, 77, 0
6, 128730, Note_on_c, 4, 74, 100
6, 128759, Note_on_c, 4, 74, 0
6, 128760, Note_on_c, 4, 79, 100
6, 128789, Note_on_c, 4, 79, 0
6, 128790, Note_on_c, 4, 77, 100
6, 128819, Note_on_c, 4, 77, 0
6, 128820, Note_on_c, 4, 76, 100
6, 128849, Note_on_c, 4, 76, 0
6, 128850, Note_on_c, 4, 74, 100
6, 128879, Note_on_c, 4, 74, 0
6, 128880, Note_on_c, 4, 76, 100
6, 128909, Note_on_c, 4, 76, 0
6, 128910, Note_on_c, 4, 77, 100
6, 128939, Note_on_c, 4, 77, 0
6, 128940, Note_on_c, 4, 79, 100
6, 128969, Note_on_c, 4, 79, 0
6, 128970, Note_on_c, 4, 76, 100
6, 128999, Note_on_c, 4, 76, 0
6, 129000, Note_on_c, 4, 81, 100
6, 129029, Note_on_c, 4, 81, 0
6, 129030, Note_on_c, 4, 79, 100
6, 129059, Note_on_c, 4, 79, 0
6, 129060, Note_on_c, 4, 77, 100
6, 129089, Note_on_c, 4, 77, 0
6, 129090, Note_on_c, 4, 76, 100
6, 129119, Note_on_c, 4, 76, 0
6, 129120, Note_on_c, 4, 79, 100
6, 129149, Note_on_c, 4, 79, 0
6, 129150, Note_on_c, 4, 77, 100
6, 129179, Note_on_c, 4, 77, 0
6, 129180, Note_on_c, 4, 76, 100
6, 129209, Note_on_c, 4, 76, 0
6, 129210, Note_on_c, 4, 74, 100
6, 129239, Note_on_c, 4, 74, 0
6, 129240, Note_on_c, 4, 77, 100
6, 129269, Note_on_c, 4, 77, 0
6, 129270, Note_on_c, 4, 76, 100
6, 129299, Note_on_c, 4, 76, 0
6, 129300, Note_on_c, 4, 74, 100
6, 129329, Note_on_c, 4, 74, 0
6, 129330, Note_on_c, 4, 73, 100
6, 129359, Note_on_c, 4, 73, 0
6, 129360, Note_on_c, 4, 74, 100
6, 129379, Note_on_c, 4, 74, 0
6, 129380, Note_on_c, 4, 76, 100
6, 129399, Note_on_c, 4, 76, 0
6, 129400, Note_on_c, 4, 74, 100
6, 129419, Note_on_c, 4, 74, 0
6, 129420, Note_on_c, 4, 76, 100
6, 129434, Note_on_c, 4, 76, 0
6, 129435, Note_on_c, 4, 74, 100
6, 129449, Note_on_c, 4, 74, 0
6, 129450, Note_on_c, 4, 76, 100
6, 129464, Note_on_c, 4, 76, 0
6, 129465, Note_on_c, 4, 74, 100
6, 129479, Note_on_c, 4, 74, 0
6, 129480, Note_on_c, 4, 76, 100
6, 129494, Note_on_c, 4, 76, 0
6, 129495, Note_on_c, 4, 74, 100
6, 129509, Note_on_c, 4, 74, 0
6, 129510, Note_on_c, 4, 76, 100
6, 129524, Note_on_c, 4, 76, 0
6, 129525, Note_on_c, 4, 74, 100
6, 129539, Note_on_c, 4, 74, 0
6, 129540, Note_on_c, 4, 76, 100
6, 129554, Note_on_c, 4, 76, 0
6, 129555, Note_on_c, 4, 74, 100
6, 129569, Note_on_c, 4, 74, 0
6, 129570, Note_on_c, 4, 76, 100
6, 129584, Note_on_c, 4, 76, 0
6, 129585, Note_on_c, 4, 74, 100
6, 129599, Note_on_c, 4, 74, 0
6, 129600, Note_on_c, 4, 76, 100
6, 129614, Note_on_c, 4, 76, 0
6, 129615, Note_on_c, 4, 74, 100
6, 129629, Note_on_c, 4, 74, 0
6, 129630, Note_on_c, 4, 76, 100
6, 129644, Note_on_c, 4, 76, 0
6, 129645, Note_on_c, 4, 74, 100
6, 129659, Note_on_c, 4, 74, 0
6, 129660, Note_on_c, 4, 76, 100
6, 129674, Note_on_c, 4, 76, 0
6, 129675, Note_on_c, 4, 74, 100
6, 129689, Note_on_c, 4, 74, 0
6, 129690, Note_on_c, 4, 76, 100
6, 129704, Note_on_c, 4, 76, 0
6, 129705, Note_on_c, 4, 74, 100
6, 129719, Note_on_c, 4, 74, 0
6, 129720, Note_on_c, 4, 76, 100
6, 129734, Note_on_c, 4, 76, 0
6, 129735, Note_on_c, 4, 74, 100
6, 129749, Note_on_c, 4, 74, 0
6, 129750, Note_on_c, 4, 76, 100
6, 129764, Note_on_c, 4, 76, 0
6, 129765, Note_on_c, 4, 74, 100
6, 129779, Note_on_c, 4, 74, 0
6, 129780, Note_on_c, 4, 76, 100
6, 129794, Note_on_c, 4, 76, 0
6, 129795, Note_on_c, 4, 74, 100
6, 129809, Note_on_c, 4, 74, 0
6, 129810, Note_on_c, 4, 76, 100
6, 129824, Note_on_c, 4, 76, 0
6, 129825, Note_on_c, 4, 74, 100
6, 129839, Note_on_c, 4, 74, 0
6, 129840, Note_on_c, 4, 76, 100
6, 129854, Note_on_c, 4, 76, 0
6, 129855, Note_on_c, 4, 74, 100
6, 129869, Note_on_c, 4, 74, 0
6, 129870, Note_on_c, 4, 76, 100
6, 129884, Note_on_c, 4, 76, 0
6, 129885, Note_on_c, 4, 74, 100
6, 129899, Note_on_c, 4, 74, 0
6, 129900, Note_on_c, 4, 76, 100
6, 129914, Note_on_c, 4, 76, 0
6, 129915, Note_on_c, 4, 74, 100
6, 129929, Note_on_c, 4, 74, 0
6, 129930, Note_on_c, 4, 76, 100
6, 129944, Note_on_c, 4, 76, 0
6, 129945, Note_on_c, 4, 74, 100
6, 129959, Note_on_c, 4, 74, 0
6, 129960, Note_on_c, 4, 76, 100
6, 129974, Note_on_c, 4, 76, 0
6, 129975, Note_on_c, 4, 74, 100
6, 129989, Note_on_c, 4, 74, 0
6, 129990, Note_on_c, 4, 76, 100
6, 130004, Note_on_c, 4, 76, 0
6, 130005, Note_on_c, 4, 74, 100
6, 130019, Note_on_c, 4, 74, 0
6, 130020, Note_on_c, 4, 76, 100
6, 130034, Note_on_c, 4, 76, 0
6, 130035, Note_on_c, 4, 74, 100
6, 130049, Note_on_c, 4, 74, 0
6, 130050, Note_on_c, 4, 76, 100
6, 130064, Note_on_c, 4, 76, 0
6, 130065, Note_on_c, 4, 74, 100
6, 130079, Note_on_c, 4, 74, 0
6, 130080, Note_on_c, 4, 76, 100
6, 130094, Note_on_c, 4, 76, 0
6, 130095, Note_on_c, 4, 74, 100
6, 130109, Note_on_c, 4, 74, 0
6, 130110, Note_on_c, 4, 76, 100
6, 130124, Note_on_c, 4, 76, 0
6, 130125, Note_on_c, 4, 74, 100
6, 130139, Note_on_c, 4, 74, 0
6, 130140, Note_on_c, 4, 76, 100
6, 130154, Note_on_c, 4, 76, 0
6, 130155, Note_on_c, 4, 74, 100
6, 130169, Note_on_c, 4, 74, 0
6, 130170, Note_on_c, 4, 76, 100
6, 130184, Note_on_c, 4, 76, 0
6, 130185, Note_on_c, 4, 74, 100
6, 130199, Note_on_c, 4, 74, 0
6, 130200, Note_on_c, 4, 76, 100
6, 130214, Note_on_c, 4, 76, 0
6, 130215, Note_on_c, 4, 74, 100
6, 130229, Note_on_c, 4, 74, 0
6, 130230, Note_on_c, 4, 76, 100
6, 130244, Note_on_c, 4, 76, 0
6, 130245, Note_on_c, 4, 74, 100
6, 130259, Note_on_c, 4, 74, 0
6, 130260, Note_on_c, 4, 76, 100
6, 130274, Note_on_c, 4, 76, 0
6, 130275, Note_on_c, 4, 74, 100
6, 130289, Note_on_c, 4, 74, 0
6, 130290, Note_on_c, 4, 76, 100
6, 130304, Note_on_c, 4, 76, 0
6, 130305, Note_on_c, 4, 74, 100
6, 130319, Note_on_c, 4, 74, 0
6, 130320, Note_on_c, 4, 76, 100
6, 130334, Note_on_c, 4, 76, 0
6, 130335, Note_on_c, 4, 74, 100
6, 130349, Note_on_c, 4, 74, 0
6, 130350, Note_on_c, 4, 76, 100
6, 130364, Note_on_c, 4, 76, 0
6, 130365, Note_on_c, 4, 74, 100
6, 130379, Note_on_c, 4, 74, 0
6, 130380, Note_on_c, 4, 76, 100
6, 130380, Note_on_c, 4, 67, 100
6, 130380, Note_on_c, 4, 70, 100
6, 130439, Note_on_c, 4, 70, 0
6, 130439, Note_on_c, 4, 67, 0
6, 130439, Note_on_c, 4, 76, 0
6, 130440, Note_on_c, 4, 69, 100
6, 130440, Note_on_c, 4, 65, 100
6, 130499, Note_on_c, 4, 65, 0
6, 130499, Note_on_c, 4, 69, 0
6, 130500, Note_on_c, 4, 73, 100
6, 130500, Note_on_c, 4, 69, 100
6, 130500, Note_on_c, 4, 67, 100
6, 130500, Note_on_c, 4, 64, 100
6, 130559, Note_on_c, 4, 64, 0
6, 130559, Note_on_c, 4, 73, 0
6, 130559, Note_on_c, 4, 69, 0
6, 130559, Note_on_c, 4, 67, 0
6, 130560, Note_on_c, 4, 74, 100
6, 130560, Note_on_c, 4, 69, 100
6, 130560, Note_on_c, 4, 65, 100
6, 130560, Note_on_c, 4, 62, 100
6, 130799, Note_on_c, 4, 62, 0
6, 130799, Note_on_c, 4, 74, 0
6, 130799, Note_on_c, 4, 69, 0
6, 130799, Note_on_c, 4, 65, 0
6, 130799, End_track
7, 0, Start_track
7, 0, MIDI_port, 0
7, 0, Title_t, "clave l i"
7, 0, Program_c, 5, 6
7, 60, Note_on_c, 5, 50, 110
7, 120, Note_on_c, 5, 50, 0
7, 120, Note_on_c, 5, 52, 110
7, 180, Note_on_c, 5, 52, 0
7, 180, Note_on_c, 5, 53, 110
7, 240, Note_on_c, 5, 53, 0
7, 240, Note_on_c, 5, 53, 110
7, 300, Note_on_c, 5, 53, 0
7, 300, Note_on_c, 5, 55, 110
7, 360, Note_on_c, 5, 55, 0
7, 360, Note_on_c, 5, 57, 110
7, 420, Note_on_c, 5, 57, 0
7, 420, Note_on_c, 5, 57, 110
7, 480, Note_on_c, 5, 57, 0
7, 480, Note_on_c, 5, 58, 110
7, 540, Note_on_c, 5, 58, 0
7, 540, Note_on_c, 5, 57, 110
7, 600, Note_on_c, 5, 57, 0
7, 600, Note_on_c, 5, 55, 110
7, 630, Note_on_c, 5, 55, 0
7, 630, Note_on_c, 5, 53, 110
7, 660, Note_on_c, 5, 53, 0
7, 660, Note_on_c, 5, 52, 110
7, 690, Note_on_c, 5, 52, 0
7, 690, Note_on_c, 5, 50, 110
7, 720, Note_on_c, 5, 50, 0
7, 720, Note_on_c, 5, 49, 110
7, 780, Note_on_c, 5, 49, 0
7, 780, Note_on_c, 5, 45, 110
7, 810, Note_on_c, 5, 45, 0
7, 810, Note_on_c, 5, 47, 110
7, 840, Note_on_c, 5, 47, 0
7, 840, Note_on_c, 5, 49, 110
7, 870, Note_on_c, 5, 49, 0
7, 870, Note_on_c, 5, 50, 110
7, 900, Note_on_c, 5, 50, 0
7, 900, Note_on_c, 5, 52, 110
7, 960, Note_on_c, 5, 52, 0
7, 960, Note_on_c, 5, 52, 110
7, 1020, Note_on_c, 5, 52, 0
7, 1020, Note_on_c, 5, 53, 110
7, 1080, Note_on_c, 5, 53, 0
7, 1080, Note_on_c, 5, 52, 110
7, 1140, Note_on_c, 5, 52, 0
7, 1140, Note_on_c, 5, 45, 110
7, 1170, Note_on_c, 5, 45, 0
7, 1170, Note_on_c, 5, 47, 110
7, 1200, Note_on_c, 5, 47, 0
7, 1200, Note_on_c, 5, 49, 110
7, 1230, Note_on_c, 5, 49, 0
7, 1230, Note_on_c, 5, 50, 110
7, 1260, Note_on_c, 5, 50, 0
7, 1260, Note_on_c, 5, 52, 110
7, 1320, Note_on_c, 5, 52, 0
7, 1320, Note_on_c, 5, 52, 110
7, 1380, Note_on_c, 5, 52, 0
7, 1380, Note_on_c, 5, 53, 110
7, 1440, Note_on_c, 5, 53, 0
7, 1440, Note_on_c, 5, 52, 110
7, 1500, Note_on_c, 5, 52, 0
7, 1500, Note_on_c, 5, 45, 110
7, 1530, Note_on_c, 5, 45, 0
7, 1530, Note_on_c, 5, 47, 110
7, 1560, Note_on_c, 5, 47, 0
7, 1560, Note_on_c, 5, 49, 110
7, 1590, Note_on_c, 5, 49, 0
7, 1590, Note_on_c, 5, 50, 110
7, 1620, Note_on_c, 5, 50, 0
7, 1620, Note_on_c, 5, 52, 110
7, 1650, Note_on_c, 5, 52, 0
7, 1650, Note_on_c, 5, 50, 110
7, 1680, Note_on_c, 5, 50, 0
7, 1680, Note_on_c, 5, 49, 110
7, 1710, Note_on_c, 5, 49, 0
7, 1710, Note_on_c, 5, 50, 110
7, 1740, Note_on_c, 5, 50, 0
7, 1740, Note_on_c, 5, 52, 110
7, 1770, Note_on_c, 5, 52, 0
7, 1770, Note_on_c, 5, 53, 110
7, 1800, Note_on_c, 5, 53, 0
7, 1800, Note_on_c, 5, 55, 110
7, 1830, Note_on_c, 5, 55, 0
7, 1830, Note_on_c, 5, 53, 110
7, 1860, Note_on_c, 5, 53, 0
7, 1860, Note_on_c, 5, 52, 110
7, 1890, Note_on_c, 5, 52, 0
7, 1890, Note_on_c, 5, 53, 110
7, 1920, Note_on_c, 5, 53, 0
7, 1920, Note_on_c, 5, 55, 110
7, 1950, Note_on_c, 5, 55, 0
7, 1950, Note_on_c, 5, 57, 110
7, 1980, Note_on_c, 5, 57, 0
7, 1980, Note_on_c, 5, 58, 110
7, 2010, Note_on_c, 5, 58, 0
7, 2010, Note_on_c, 5, 57, 110
7, 2040, Note_on_c, 5, 57, 0
7, 2040, Note_on_c, 5, 55, 110
7, 2070, Note_on_c, 5, 55, 0
7, 2070, Note_on_c, 5, 53, 110
7, 2100, Note_on_c, 5, 53, 0
7, 2100, Note_on_c, 5, 52, 110
7, 2130, Note_on_c, 5, 52, 0
7, 2130, Note_on_c, 5, 50, 110
7, 2160, Note_on_c, 5, 50, 0
7, 2160, Note_on_c, 5, 49, 110
7, 2190, Note_on_c, 5, 49, 0
7, 2190, Note_on_c, 5, 52, 110
7, 2220, Note_on_c, 5, 52, 0
7, 2220, Note_on_c, 5, 45, 110
7, 2250, Note_on_c, 5, 45, 0
7, 2250, Note_on_c, 5, 49, 110
7, 2280, Note_on_c, 5, 49, 0
7, 2280, Note_on_c, 5, 50, 110
7, 2340, Note_on_c, 5, 50, 0
7, 2370, Note_on_c, 5, 43, 110
7, 2400, Note_on_c, 5, 43, 0
7, 2400, Note_on_c, 5, 45, 110
7, 2460, Note_on_c, 5, 45, 0
7, 2460, Note_on_c, 5, 45, 110
7, 2520, Note_on_c, 5, 45, 0
7, 2520, Note_on_c, 5, 38, 110
7, 2520, Note_on_c, 5, 50, 110
7, 2580, Note_on_c, 5, 50, 0
7, 2580, Note_on_c, 5, 38, 0
7, 2760, Note_on_c, 5, 50, 110
7, 2820, Note_on_c, 5, 50, 0
7, 2820, Note_on_c, 5, 52, 110
7, 2880, Note_on_c, 5, 52, 0
7, 2880, Note_on_c, 5, 53, 110
7, 2940, Note_on_c, 5, 53, 0
7, 2940, Note_on_c, 5, 53, 110
7, 3000, Note_on_c, 5, 53, 0
7, 3000, Note_on_c, 5, 55, 110
7, 3060, Note_on_c, 5, 55, 0
7, 3060, Note_on_c, 5, 57, 110
7, 3120, Note_on_c, 5, 57, 0
7, 3120, Note_on_c, 5, 57, 110
7, 3180, Note_on_c, 5, 57, 0
7, 3180, Note_on_c, 5, 58, 110
7, 3240, Note_on_c, 5, 58, 0
7, 3240, Note_on_c, 5, 57, 110
7, 3300, Note_on_c, 5, 57, 0
7, 3300, Note_on_c, 5, 55, 110
7, 3330, Note_on_c, 5, 55, 0
7, 3330, Note_on_c, 5, 53, 110
7, 3360, Note_on_c, 5, 53, 0
7, 3360, Note_on_c, 5, 52, 110
7, 3390, Note_on_c, 5, 52, 0
7, 3390, Note_on_c, 5, 50, 110
7, 3420, Note_on_c, 5, 50, 0
7, 3420, Note_on_c, 5, 49, 110
7, 3480, Note_on_c, 5, 49, 0
7, 3480, Note_on_c, 5, 45, 110
7, 3540, Note_on_c, 5, 45, 0
7, 3540, Note_on_c, 5, 50, 110
7, 3600, Note_on_c, 5, 50, 0
7, 3600, Note_on_c, 5, 45, 110
7, 3660, Note_on_c, 5, 45, 0
7, 3660, Note_on_c, 5, 49, 110
7, 3720, Note_on_c, 5, 49, 0
7, 3720, Note_on_c, 5, 52, 110
7, 3780, Note_on_c, 5, 52, 0
7, 3780, Note_on_c, 5, 57, 110
7, 3840, Note_on_c, 5, 57, 0
7, 3840, Note_on_c, 5, 55, 110
7, 3870, Note_on_c, 5, 55, 0
7, 3870, Note_on_c, 5, 53, 110
7, 3900, Note_on_c, 5, 53, 0
7, 3900, Note_on_c, 5, 52, 110
7, 3930, Note_on_c, 5, 52, 0
7, 3930, Note_on_c, 5, 50, 110
7, 3960, Note_on_c, 5, 50, 0
7, 3960, Note_on_c, 5, 57, 110
7, 4020, Note_on_c, 5, 57, 0
7, 4200, Note_on_c, 5, 57, 110
7, 4260, Note_on_c, 5, 57, 0
7, 4260, Note_on_c, 5, 59, 110
7, 4320, Note_on_c, 5, 59, 0
7, 4320, Note_on_c, 5, 60, 110
7, 4380, Note_on_c, 5, 60, 0
7, 4380, Note_on_c, 5, 60, 110
7, 4440, Note_on_c, 5, 60, 0
7, 4440, Note_on_c, 5, 62, 110
7, 4500, Note_on_c, 5, 62, 0
7, 4500, Note_on_c, 5, 64, 110
7, 4560, Note_on_c, 5, 64, 0
7, 4560, Note_on_c, 5, 64, 110
7, 4620, Note_on_c, 5, 64, 0
7, 4620, Note_on_c, 5, 65, 110
7, 4680, Note_on_c, 5, 65, 0
7, 4680, Note_on_c, 5, 64, 110
7, 4740, Note_on_c, 5, 64, 0
7, 4740, Note_on_c, 5, 62, 110
7, 4770, Note_on_c, 5, 62, 0
7, 4770, Note_on_c, 5, 60, 110
7, 4800, Note_on_c, 5, 60, 0
7, 4800, Note_on_c, 5, 59, 110
7, 4830, Note_on_c, 5, 59, 0
7, 4830, Note_on_c, 5, 57, 110
7, 4860, Note_on_c, 5, 57, 0
7, 4860, Note_on_c, 5, 56, 110
7, 4920, Note_on_c, 5, 56, 0
7, 4920, Note_on_c, 5, 52, 110
7, 4980, Note_on_c, 5, 52, 0
7, 4980, Note_on_c, 5, 57, 110
7, 5040, Note_on_c, 5, 57, 0
7, 5040, Note_on_c, 5, 64, 110
7, 5070, Note_on_c, 5, 64, 0
7, 5070, Note_on_c, 5, 65, 110
7, 5100, Note_on_c, 5, 65, 0
7, 5100, Note_on_c, 5, 64, 110
7, 5130, Note_on_c, 5, 64, 0
7, 5130, Note_on_c, 5, 62, 110
7, 5160, Note_on_c, 5, 62, 0
7, 5160, Note_on_c, 5, 60, 110
7, 5190, Note_on_c, 5, 60, 0
7, 5190, Note_on_c, 5, 59, 110
7, 5220, Note_on_c, 5, 59, 0
7, 5220, Note_on_c, 5, 57, 110
7, 5280, Note_on_c, 5, 57, 0
7, 5280, Note_on_c, 5, 64, 110
7, 5340, Note_on_c, 5, 64, 0
7, 5340, Note_on_c, 5, 61, 110
7, 5400, Note_on_c, 5, 61, 0
7, 5400, Note_on_c, 5, 57, 100
7, 5459, Note_on_c, 5, 57, 0
7, 5460, Note_on_c, 5, 62, 100
7, 5519, Note_on_c, 5, 62, 0
7, 5520, Note_on_c, 5, 50, 100
7, 5579, Note_on_c, 5, 50, 0
7, 5580, Note_on_c, 5, 67, 100
7, 5609, Note_on_c, 5, 67, 0
7, 5610, Note_on_c, 5, 69, 100
7, 5639, Note_on_c, 5, 69, 0
7, 5640, Note_on_c, 5, 67, 100
7, 5669, Note_on_c, 5, 67, 0
7, 5670, Note_on_c, 5, 65, 100
7, 5699, Note_on_c, 5, 65, 0
7, 5700, Note_on_c, 5, 64, 100
7, 5729, Note_on_c, 5, 64, 0
7, 5730, Note_on_c, 5, 62, 100
7, 5759, Note_on_c, 5, 62, 0
7, 5760, Note_on_c, 5, 60, 100
7, 5819, Note_on_c, 5, 60, 0
7, 5820, Note_on_c, 5, 67, 100
7, 5879, Note_on_c, 5, 67, 0
7, 5880, Note_on_c, 5, 64, 100
7, 5939, Note_on_c, 5, 64, 0
7, 5940, Note_on_c, 5, 60, 100
7, 5999, Note_on_c, 5, 60, 0
7, 6000, Note_on_c, 5, 57, 100
7, 6059, Note_on_c, 5, 57, 0
7, 6060, Note_on_c, 5, 62, 100
7, 6119, Note_on_c, 5, 62, 0
7, 6120, Note_on_c, 5, 64, 100
7, 6179, Note_on_c, 5, 64, 0
7, 6180, Note_on_c, 5, 62, 100
7, 6209, Note_on_c, 5, 62, 0
7, 6210, Note_on_c, 5, 60, 100
7, 6239, Note_on_c, 5, 60, 0
7, 6240, Note_on_c, 5, 59, 100
7, 6269, Note_on_c, 5, 59, 0
7, 6270, Note_on_c, 5, 57, 100
7, 6299, Note_on_c, 5, 57, 0
7, 6300, Note_on_c, 5, 56, 100
7, 6359, Note_on_c, 5, 56, 0
7, 6360, Note_on_c, 5, 52, 100
7, 6419, Note_on_c, 5, 52, 0
7, 6420, Note_on_c, 5, 57, 100
7, 6479, Note_on_c, 5, 57, 0
7, 6480, Note_on_c, 5, 64, 100
7, 6539, Note_on_c, 5, 64, 0
7, 6540, Note_on_c, 5, 52, 100
7, 6569, Note_on_c, 5, 52, 0
7, 6570, Note_on_c, 5, 54, 100
7, 6599, Note_on_c, 5, 54, 0
7, 6600, Note_on_c, 5, 56, 100
7, 6629, Note_on_c, 5, 56, 0
7, 6630, Note_on_c, 5, 57, 100
7, 6659, Note_on_c, 5, 57, 0
7, 6660, Note_on_c, 5, 59, 100
7, 6689, Note_on_c, 5, 59, 0
7, 6690, Note_on_c, 5, 57, 100
7, 6719, Note_on_c, 5, 57, 0
7, 6720, Note_on_c, 5, 56, 100
7, 6749, Note_on_c, 5, 56, 0
7, 6750, Note_on_c, 5, 57, 100
7, 6779, Note_on_c, 5, 57, 0
7, 6780, Note_on_c, 5, 59, 100
7, 6809, Note_on_c, 5, 59, 0
7, 6810, Note_on_c, 5, 60, 100
7, 6839, Note_on_c, 5, 60, 0
7, 6840, Note_on_c, 5, 62, 100
7, 6869, Note_on_c, 5, 62, 0
7, 6870, Note_on_c, 5, 60, 100
7, 6899, Note_on_c, 5, 60, 0
7, 6900, Note_on_c, 5, 59, 100
7, 6929, Note_on_c, 5, 59, 0
7, 6930, Note_on_c, 5, 60, 100
7, 6959, Note_on_c, 5, 60, 0
7, 6960, Note_on_c, 5, 62, 100
7, 6989, Note_on_c, 5, 62, 0
7, 6990, Note_on_c, 5, 64, 100
7, 7019, Note_on_c, 5, 64, 0
7, 7020, Note_on_c, 5, 65, 100
7, 7049, Note_on_c, 5, 65, 0
7, 7050, Note_on_c, 5, 64, 100
7, 7079, Note_on_c, 5, 64, 0
7, 7080, Note_on_c, 5, 62, 100
7, 7109, Note_on_c, 5, 62, 0
7, 7110, Note_on_c, 5, 60, 100
7, 7139, Note_on_c, 5, 60, 0
7, 7140, Note_on_c, 5, 59, 100
7, 7169, Note_on_c, 5, 59, 0
7, 7170, Note_on_c, 5, 57, 100
7, 7199, Note_on_c, 5, 57, 0
7, 7200, Note_on_c, 5, 56, 100
7, 7229, Note_on_c, 5, 56, 0
7, 7230, Note_on_c, 5, 59, 100
7, 7259, Note_on_c, 5, 59, 0
7, 7260, Note_on_c, 5, 64, 100
7, 7289, Note_on_c, 5, 64, 0
7, 7290, Note_on_c, 5, 56, 100
7, 7319, Note_on_c, 5, 56, 0
7, 7320, Note_on_c, 5, 57, 100
7, 7379, Note_on_c, 5, 57, 0
7, 7410, Note_on_c, 5, 50, 100
7, 7439, Note_on_c, 5, 50, 0
7, 7440, Note_on_c, 5, 52, 100
7, 7499, Note_on_c, 5, 52, 0
7, 7500, Note_on_c, 5, 40, 100
7, 7559, Note_on_c, 5, 40, 0
7, 7560, Note_on_c, 5, 45, 100
7, 7619, Note_on_c, 5, 45, 0
7, 7620, Note_on_c, 5, 69, 100
7, 7679, Note_on_c, 5, 69, 0
7, 7680, Note_on_c, 5, 64, 100
7, 7739, Note_on_c, 5, 64, 0
7, 7740, Note_on_c, 5, 60, 100
7, 7769, Note_on_c, 5, 60, 0
7, 7770, Note_on_c, 5, 64, 100
7, 7799, Note_on_c, 5, 64, 0
7, 7800, Note_on_c, 5, 57, 100
7, 7829, Note_on_c, 5, 57, 0
7, 7830, Note_on_c, 5, 59, 100
7, 7859, Note_on_c, 5, 59, 0
7, 7860, Note_on_c, 5, 60, 100
7, 7889, Note_on_c, 5, 60, 0
7, 7890, Note_on_c, 5, 62, 100
7, 7919, Note_on_c, 5, 62, 0
7, 7920, Note_on_c, 5, 64, 100
7, 7979, Note_on_c, 5, 64, 0
7, 7980, Note_on_c, 5, 57, 100
7, 8039, Note_on_c, 5, 57, 0
7, 8040, Note_on_c, 5, 55, 100
7, 8099, Note_on_c, 5, 55, 0
7, 8100, Note_on_c, 5, 53, 100
7, 8159, Note_on_c, 5, 53, 0
7, 8160, Note_on_c, 5, 53, 100
7, 8219, Note_on_c, 5, 53, 0
7, 8220, Note_on_c, 5, 52, 100
7, 8279, Note_on_c, 5, 52, 0
7, 8280, Note_on_c, 5, 50, 100
7, 8339, Note_on_c, 5, 50, 0
7, 8460, Note_on_c, 5, 50, 100
7, 8519, Note_on_c, 5, 50, 0
7, 8700, Note_on_c, 5, 62, 100
7, 8759, Note_on_c, 5, 62, 0
7, 8760, Note_on_c, 5, 60, 100
7, 8819, Note_on_c, 5, 60, 0
7, 8820, Note_on_c, 5, 58, 100
7, 8879, Note_on_c, 5, 58, 0
7, 8880, Note_on_c, 5, 58, 100
7, 8939, Note_on_c, 5, 58, 0
7, 8940, Note_on_c, 5, 57, 100
7, 8999, Note_on_c, 5, 57, 0
7, 9000, Note_on_c, 5, 55, 100
7, 9059, Note_on_c, 5, 55, 0
7, 10080, Note_on_c, 5, 50, 100
7, 10199, Note_on_c, 5, 50, 0
7, 10320, Note_on_c, 5, 50, 100
7, 10379, Note_on_c, 5, 50, 0
7, 10380, Note_on_c, 5, 52, 100
7, 10439, Note_on_c, 5, 52, 0
7, 10440, Note_on_c, 5, 53, 100
7, 10499, Note_on_c, 5, 53, 0
7, 10500, Note_on_c, 5, 53, 100
7, 10559, Note_on_c, 5, 53, 0
7, 10560, Note_on_c, 5, 55, 100
7, 10619, Note_on_c, 5, 55, 0
7, 10620, Note_on_c, 5, 57, 100
7, 10679, Note_on_c, 5, 57, 0
7, 10680, Note_on_c, 5, 57, 100
7, 10739, Note_on_c, 5, 57, 0
7, 10740, Note_on_c, 5, 58, 100
7, 10799, Note_on_c, 5, 58, 0
7, 10800, Note_on_c, 5, 57, 100
7, 10859, Note_on_c, 5, 57, 0
7, 10860, Note_on_c, 5, 55, 100
7, 10889, Note_on_c, 5, 55, 0
7, 10890, Note_on_c, 5, 53, 100
7, 10919, Note_on_c, 5, 53, 0
7, 10920, Note_on_c, 5, 52, 100
7, 10949, Note_on_c, 5, 52, 0
7, 10950, Note_on_c, 5, 50, 100
7, 10979, Note_on_c, 5, 50, 0
7, 10980, Note_on_c, 5, 49, 100
7, 11039, Note_on_c, 5, 49, 0
7, 11040, Note_on_c, 5, 45, 100
7, 11099, Note_on_c, 5, 45, 0
7, 11100, Note_on_c, 5, 50, 100
7, 11159, Note_on_c, 5, 50, 0
7, 11160, Note_on_c, 5, 45, 100
7, 11580, Note_on_c, 5, 45, 0
7, 11580, Note_on_c, 5, 67, 100
7, 11639, Note_on_c, 5, 67, 0
7, 11640, Note_on_c, 5, 67, 100
7, 11699, Note_on_c, 5, 67, 0
7, 11700, Note_on_c, 5, 61, 100
7, 11759, Note_on_c, 5, 61, 0
7, 11760, Note_on_c, 5, 64, 100
7, 11819, Note_on_c, 5, 64, 0
7, 11820, Note_on_c, 5, 64, 100
7, 11879, Note_on_c, 5, 64, 0
7, 11880, Note_on_c, 5, 57, 100
7, 11939, Note_on_c, 5, 57, 0
7, 11940, Note_on_c, 5, 61, 100
7, 11999, Note_on_c, 5, 61, 0
7, 12000, Note_on_c, 5, 61, 100
7, 12059, Note_on_c, 5, 61, 0
7, 12060, Note_on_c, 5, 52, 100
7, 12119, Note_on_c, 5, 52, 0
7, 12120, Note_on_c, 5, 55, 100
7, 12179, Note_on_c, 5, 55, 0
7, 12180, Note_on_c, 5, 55, 100
7, 12239, Note_on_c, 5, 55, 0
7, 12240, Note_on_c, 5, 45, 100
7, 12269, Note_on_c, 5, 45, 0
7, 12270, Note_on_c, 5, 49, 100
7, 12299, Note_on_c, 5, 49, 0
7, 12300, Note_on_c, 5, 52, 100
7, 12329, Note_on_c, 5, 52, 0
7, 12330, Note_on_c, 5, 55, 100
7, 12359, Note_on_c, 5, 55, 0
7, 12360, Note_on_c, 5, 53, 100
7, 12419, Note_on_c, 5, 53, 0
7, 12450, Note_on_c, 5, 55, 100
7, 12479, Note_on_c, 5, 55, 0
7, 12480, Note_on_c, 5, 57, 100
7, 12539, Note_on_c, 5, 57, 0
7, 12540, Note_on_c, 5, 45, 100
7, 12599, Note_on_c, 5, 45, 0
7, 12600, Note_on_c, 5, 42, 100
7, 12659, Note_on_c, 5, 42, 0
7, 12660, Note_on_c, 5, 45, 100
7, 12719, Note_on_c, 5, 45, 0
7, 12720, Note_on_c, 5, 50, 100
7, 12779, Note_on_c, 5, 50, 0
7, 12780, Note_on_c, 5, 43, 100
7, 12839, Note_on_c, 5, 43, 0
7, 12840, Note_on_c, 5, 50, 100
7, 12899, Note_on_c, 5, 50, 0
7, 12900, Note_on_c, 5, 55, 100
7, 12959, Note_on_c, 5, 55, 0
7, 12960, Note_on_c, 5, 44, 100
7, 13019, Note_on_c, 5, 44, 0
7, 13020, Note_on_c, 5, 47, 100
7, 13079, Note_on_c, 5, 47, 0
7, 13080, Note_on_c, 5, 52, 100
7, 13139, Note_on_c, 5, 52, 0
7, 13140, Note_on_c, 5, 45, 100
7, 13199, Note_on_c, 5, 45, 0
7, 13200, Note_on_c, 5, 50, 100
7, 13259, Note_on_c, 5, 50, 0
7, 13260, Note_on_c, 5, 53, 100
7, 13319, Note_on_c, 5, 53, 0
7, 13320, Note_on_c, 5, 46, 100
7, 13379, Note_on_c, 5, 46, 0
7, 13380, Note_on_c, 5, 50, 100
7, 13439, Note_on_c, 5, 50, 0
7, 13440, Note_on_c, 5, 55, 100
7, 13499, Note_on_c, 5, 55, 0
7, 13500, Note_on_c, 5, 47, 100
7, 13559, Note_on_c, 5, 47, 0
7, 13560, Note_on_c, 5, 50, 100
7, 13619, Note_on_c, 5, 50, 0
7, 13620, Note_on_c, 5, 53, 100
7, 13679, Note_on_c, 5, 53, 0
7, 13680, Note_on_c, 5, 49, 100
7, 13709, Note_on_c, 5, 49, 0
7, 13710, Note_on_c, 5, 58, 100
7, 13739, Note_on_c, 5, 58, 0
7, 13740, Note_on_c, 5, 57, 100
7, 13769, Note_on_c, 5, 57, 0
7, 13770, Note_on_c, 5, 55, 100
7, 13799, Note_on_c, 5, 55, 0
7, 13800, Note_on_c, 5, 53, 100
7, 13829, Note_on_c, 5, 53, 0
7, 13830, Note_on_c, 5, 62, 100
7, 13859, Note_on_c, 5, 62, 0
7, 13860, Note_on_c, 5, 58, 100
7, 13889, Note_on_c, 5, 58, 0
7, 13890, Note_on_c, 5, 55, 100
7, 13919, Note_on_c, 5, 55, 0
7, 13920, Note_on_c, 5, 57, 100
7, 13979, Note_on_c, 5, 57, 0
7, 13980, Note_on_c, 5, 45, 100
7, 14039, Note_on_c, 5, 45, 0
7, 14040, Note_on_c, 5, 50, 100
7, 14159, Note_on_c, 5, 50, 0
7, 14250, Note_on_c, 5, 58, 100
7, 14279, Note_on_c, 5, 58, 0
7, 14280, Note_on_c, 5, 57, 100
7, 14309, Note_on_c, 5, 57, 0
7, 14310, Note_on_c, 5, 55, 100
7, 14339, Note_on_c, 5, 55, 0
7, 14340, Note_on_c, 5, 53, 100
7, 14369, Note_on_c, 5, 53, 0
7, 14370, Note_on_c, 5, 52, 100
7, 14399, Note_on_c, 5, 52, 0
7, 14400, Note_on_c, 5, 50, 100
7, 14519, Note_on_c, 5, 50, 0
7, 14610, Note_on_c, 5, 65, 100
7, 14639, Note_on_c, 5, 65, 0
7, 14640, Note_on_c, 5, 64, 100
7, 14669, Note_on_c, 5, 64, 0
7, 14670, Note_on_c, 5, 62, 100
7, 14699, Note_on_c, 5, 62, 0
7, 14700, Note_on_c, 5, 60, 100
7, 14729, Note_on_c, 5, 60, 0
7, 14730, Note_on_c, 5, 59, 100
7, 14759, Note_on_c, 5, 59, 0
7, 14760, Note_on_c, 5, 57, 100
7, 14879, Note_on_c, 5, 57, 0
7, 14970, Note_on_c, 5, 72, 100
7, 14999, Note_on_c, 5, 72, 0
7, 15000, Note_on_c, 5, 71, 100
7, 15029, Note_on_c, 5, 71, 0
7, 15030, Note_on_c, 5, 69, 100
7, 15059, Note_on_c, 5, 69, 0
7, 15060, Note_on_c, 5, 68, 100
7, 15089, Note_on_c, 5, 68, 0
7, 15090, Note_on_c, 5, 66, 100
7, 15119, Note_on_c, 5, 66, 0
7, 15120, Note_on_c, 5, 64, 100
7, 15179, Note_on_c, 5, 64, 0
7, 15180, Note_on_c, 5, 68, 100
7, 15239, Note_on_c, 5, 68, 0
7, 15240, Note_on_c, 5, 71, 100
7, 15299, Note_on_c, 5, 71, 0
7, 15300, Note_on_c, 5, 69, 100
7, 15359, Note_on_c, 5, 69, 0
7, 15360, Note_on_c, 5, 60, 100
7, 15419, Note_on_c, 5, 60, 0
7, 15420, Note_on_c, 5, 57, 100
7, 15479, Note_on_c, 5, 57, 0
7, 15480, Note_on_c, 5, 64, 100
7, 15509, Note_on_c, 5, 64, 0
7, 15510, Note_on_c, 5, 65, 100
7, 15539, Note_on_c, 5, 65, 0
7, 15540, Note_on_c, 5, 64, 100
7, 15569, Note_on_c, 5, 64, 0
7, 15570, Note_on_c, 5, 62, 100
7, 15599, Note_on_c, 5, 62, 0
7, 15600, Note_on_c, 5, 60, 100
7, 15629, Note_on_c, 5, 60, 0
7, 15630, Note_on_c, 5, 59, 100
7, 15659, Note_on_c, 5, 59, 0
7, 15660, Note_on_c, 5, 57, 100
7, 15689, Note_on_c, 5, 57, 0
7, 15690, Note_on_c, 5, 64, 100
7, 15719, Note_on_c, 5, 64, 0
7, 15720, Note_on_c, 5, 62, 100
7, 15749, Note_on_c, 5, 62, 0
7, 15750, Note_on_c, 5, 60, 100
7, 15779, Note_on_c, 5, 60, 0
7, 15780, Note_on_c, 5, 59, 100
7, 15809, Note_on_c, 5, 59, 0
7, 15810, Note_on_c, 5, 64, 100
7, 15839, Note_on_c, 5, 64, 0
7, 15840, Note_on_c, 5, 67, 100
7, 15899, Note_on_c, 5, 67, 0
7, 15900, Note_on_c, 5, 57, 100
7, 15959, Note_on_c, 5, 57, 0
7, 15960, Note_on_c, 5, 61, 100
7, 16019, Note_on_c, 5, 61, 0
7, 16020, Note_on_c, 5, 62, 100
7, 16079, Note_on_c, 5, 62, 0
7, 16080, Note_on_c, 5, 53, 100
7, 16139, Note_on_c, 5, 53, 0
7, 16140, Note_on_c, 5, 50, 100
7, 16199, Note_on_c, 5, 50, 0
7, 16200, Note_on_c, 5, 57, 100
7, 16229, Note_on_c, 5, 57, 0
7, 16230, Note_on_c, 5, 58, 100
7, 16259, Note_on_c, 5, 58, 0
7, 16260, Note_on_c, 5, 57, 100
7, 16289, Note_on_c, 5, 57, 0
7, 16290, Note_on_c, 5, 55, 100
7, 16319, Note_on_c, 5, 55, 0
7, 16320, Note_on_c, 5, 53, 100
7, 16349, Note_on_c, 5, 53, 0
7, 16350, Note_on_c, 5, 52, 100
7, 16379, Note_on_c, 5, 52, 0
7, 16380, Note_on_c, 5, 50, 100
7, 16409, Note_on_c, 5, 50, 0
7, 16410, Note_on_c, 5, 57, 100
7, 16439, Note_on_c, 5, 57, 0
7, 16440, Note_on_c, 5, 55, 100
7, 16469, Note_on_c, 5, 55, 0
7, 16470, Note_on_c, 5, 53, 100
7, 16499, Note_on_c, 5, 53, 0
7, 16500, Note_on_c, 5, 52, 100
7, 16529, Note_on_c, 5, 52, 0
7, 16530, Note_on_c, 5, 57, 100
7, 16559, Note_on_c, 5, 57, 0
7, 16560, Note_on_c, 5, 60, 100
7, 16589, Note_on_c, 5, 60, 0
7, 16590, Note_on_c, 5, 63, 100
7, 16619, Note_on_c, 5, 63, 0
7, 16620, Note_on_c, 5, 62, 100
7, 16649, Note_on_c, 5, 62, 0
7, 16650, Note_on_c, 5, 60, 100
7, 16679, Note_on_c, 5, 60, 0
7, 16680, Note_on_c, 5, 58, 100
7, 16709, Note_on_c, 5, 58, 0
7, 16710, Note_on_c, 5, 57, 100
7, 16739, Note_on_c, 5, 57, 0
7, 16740, Note_on_c, 5, 55, 100
7, 16799, Note_on_c, 5, 55, 0
7, 16800, Note_on_c, 5, 62, 100
7, 16859, Note_on_c, 5, 62, 0
7, 16860, Note_on_c, 5, 67, 100
7, 16979, Note_on_c, 5, 67, 0
7, 16980, Note_on_c, 5, 69, 100
7, 17009, Note_on_c, 5, 69, 0
7, 17010, Note_on_c, 5, 70, 100
7, 17039, Note_on_c, 5, 70, 0
7, 17040, Note_on_c, 5, 72, 100
7, 17159, Note_on_c, 5, 72, 0
7, 17160, Note_on_c, 5, 62, 100
7, 17219, Note_on_c, 5, 62, 0
7, 17220, Note_on_c, 5, 66, 100
7, 17279, Note_on_c, 5, 66, 0
7, 17280, Note_on_c, 5, 67, 100
7, 17339, Note_on_c, 5, 67, 0
7, 17340, Note_on_c, 5, 58, 100
7, 17399, Note_on_c, 5, 58, 0
7, 17400, Note_on_c, 5, 55, 100
7, 17459, Note_on_c, 5, 55, 0
7, 17460, Note_on_c, 5, 62, 100
7, 17489, Note_on_c, 5, 62, 0
7, 17490, Note_on_c, 5, 63, 100
7, 17519, Note_on_c, 5, 63, 0
7, 17520, Note_on_c, 5, 62, 100
7, 17549, Note_on_c, 5, 62, 0
7, 17550, Note_on_c, 5, 60, 100
7, 17579, Note_on_c, 5, 60, 0
7, 17580, Note_on_c, 5, 58, 100
7, 17609, Note_on_c, 5, 58, 0
7, 17610, Note_on_c, 5, 57, 100
7, 17639, Note_on_c, 5, 57, 0
7, 17640, Note_on_c, 5, 55, 100
7, 17669, Note_on_c, 5, 55, 0
7, 17670, Note_on_c, 5, 58, 100
7, 17699, Note_on_c, 5, 58, 0
7, 17700, Note_on_c, 5, 60, 100
7, 17729, Note_on_c, 5, 60, 0
7, 17730, Note_on_c, 5, 58, 100
7, 17759, Note_on_c, 5, 58, 0
7, 17760, Note_on_c, 5, 57, 100
7, 17789, Note_on_c, 5, 57, 0
7, 17790, Note_on_c, 5, 62, 100
7, 17819, Note_on_c, 5, 62, 0
7, 17820, Note_on_c, 5, 55, 100
7, 17849, Note_on_c, 5, 55, 0
7, 17850, Note_on_c, 5, 62, 100
7, 17879, Note_on_c, 5, 62, 0
7, 17880, Note_on_c, 5, 64, 100
7, 17909, Note_on_c, 5, 64, 0
7, 17910, Note_on_c, 5, 59, 100
7, 17939, Note_on_c, 5, 59, 0
7, 17940, Note_on_c, 5, 60, 100
7, 17969, Note_on_c, 5, 60, 0
7, 17970, Note_on_c, 5, 52, 100
7, 17999, Note_on_c, 5, 52, 0
7, 18000, Note_on_c, 5, 53, 100
7, 18029, Note_on_c, 5, 53, 0
7, 18030, Note_on_c, 5, 60, 100
7, 18059, Note_on_c, 5, 60, 0
7, 18060, Note_on_c, 5, 62, 100
7, 18089, Note_on_c, 5, 62, 0
7, 18090, Note_on_c, 5, 57, 100
7, 18119, Note_on_c, 5, 57, 0
7, 18120, Note_on_c, 5, 58, 100
7, 18149, Note_on_c, 5, 58, 0
7, 18150, Note_on_c, 5, 50, 100
7, 18179, Note_on_c, 5, 50, 0
7, 18180, Note_on_c, 5, 52, 100
7, 18209, Note_on_c, 5, 52, 0
7, 18210, Note_on_c, 5, 58, 100
7, 18239, Note_on_c, 5, 58, 0
7, 18240, Note_on_c, 5, 57, 100
7, 18269, Note_on_c, 5, 57, 0
7, 18270, Note_on_c, 5, 55, 100
7, 18299, Note_on_c, 5, 55, 0
7, 18300, Note_on_c, 5, 57, 100
7, 18329, Note_on_c, 5, 57, 0
7, 18330, Note_on_c, 5, 49, 100
7, 18359, Note_on_c, 5, 49, 0
7, 18360, Note_on_c, 5, 50, 100
7, 18389, Note_on_c, 5, 50, 0
7, 18390, Note_on_c, 5, 57, 100
7, 18419, Note_on_c, 5, 57, 0
7, 18420, Note_on_c, 5, 55, 100
7, 18449, Note_on_c, 5, 55, 0
7, 18450, Note_on_c, 5, 50, 100
7, 18479, Note_on_c, 5, 50, 0
7, 18480, Note_on_c, 5, 46, 100
7, 18509, Note_on_c, 5, 46, 0
7, 18510, Note_on_c, 5, 43, 100
7, 18539, Note_on_c, 5, 43, 0
7, 18540, Note_on_c, 5, 48, 100
7, 18569, Note_on_c, 5, 48, 0
7, 18570, Note_on_c, 5, 55, 100
7, 18599, Note_on_c, 5, 55, 0
7, 18600, Note_on_c, 5, 52, 100
7, 18629, Note_on_c, 5, 52, 0
7, 18630, Note_on_c, 5, 48, 100
7, 18659, Note_on_c, 5, 48, 0
7, 18660, Note_on_c, 5, 60, 100
7, 18689, Note_on_c, 5, 60, 0
7, 18690, Note_on_c, 5, 52, 100
7, 18719, Note_on_c, 5, 52, 0
7, 18720, Note_on_c, 5, 53, 100
7, 18749, Note_on_c, 5, 53, 0
7, 18750, Note_on_c, 5, 56, 100
7, 18779, Note_on_c, 5, 56, 0
7, 18780, Note_on_c, 5, 60, 100
7, 18809, Note_on_c, 5, 60, 0
7, 18810, Note_on_c, 5, 59, 100
7, 18839, Note_on_c, 5, 59, 0
7, 18840, Note_on_c, 5, 60, 100
7, 18959, Note_on_c, 5, 60, 0
7, 18960, Note_on_c, 5, 48, 100
7, 19019, Note_on_c, 5, 48, 0
7, 19290, Note_on_c, 5, 58, 100
7, 19319, Note_on_c, 5, 58, 0
7, 19320, Note_on_c, 5, 60, 100
7, 19379, Note_on_c, 5, 60, 0
7, 19380, Note_on_c, 5, 48, 100
7, 19439, Note_on_c, 5, 48, 0
7, 19470, Note_on_c, 5, 53, 100
7, 19499, Note_on_c, 5, 53, 0
7, 19500, Note_on_c, 5, 57, 100
7, 19529, Note_on_c, 5, 57, 0
7, 19530, Note_on_c, 5, 60, 100
7, 19559, Note_on_c, 5, 60, 0
7, 19560, Note_on_c, 5, 65, 100
7, 19589, Note_on_c, 5, 65, 0
7, 19590, Note_on_c, 5, 64, 100
7, 19619, Note_on_c, 5, 64, 0
7, 19620, Note_on_c, 5, 65, 100
7, 19679, Note_on_c, 5, 65, 0
7, 19680, Note_on_c, 5, 57, 100
7, 19680, Note_on_c, 5, 60, 100
7, 19739, Note_on_c, 5, 60, 0
7, 19739, Note_on_c, 5, 57, 0
7, 19740, Note_on_c, 5, 58, 100
7, 19740, Note_on_c, 5, 55, 100
7, 19799, Note_on_c, 5, 55, 0
7, 19799, Note_on_c, 5, 58, 0
7, 19800, Note_on_c, 5, 53, 100
7, 19800, Note_on_c, 5, 57, 100
7, 19829, Note_on_c, 5, 57, 0
7, 19829, Note_on_c, 5, 53, 0
7, 19830, Note_on_c, 5, 60, 100
7, 19859, Note_on_c, 5, 60, 0
7, 19860, Note_on_c, 5, 58, 100
7, 19889, Note_on_c, 5, 58, 0
7, 19890, Note_on_c, 5, 57, 100
7, 19919, Note_on_c, 5, 57, 0
7, 19920, Note_on_c, 5, 55, 100
7, 19949, Note_on_c, 5, 55, 0
7, 19950, Note_on_c, 5, 53, 100
7, 19979, Note_on_c, 5, 53, 0
7, 19980, Note_on_c, 5, 52, 100
7, 20009, Note_on_c, 5, 52, 0
7, 20010, Note_on_c, 5, 50, 100
7, 20039, Note_on_c, 5, 50, 0
7, 20040, Note_on_c, 5, 52, 100
7, 20069, Note_on_c, 5, 52, 0
7, 20070, Note_on_c, 5, 53, 100
7, 20099, Note_on_c, 5, 53, 0
7, 20100, Note_on_c, 5, 52, 100
7, 20129, Note_on_c, 5, 52, 0
7, 20130, Note_on_c, 5, 53, 100
7, 20159, Note_on_c, 5, 53, 0
7, 20160, Note_on_c, 5, 55, 100
7, 20219, Note_on_c, 5, 55, 0
7, 20220, Note_on_c, 5, 67, 100
7, 20249, Note_on_c, 5, 67, 0
7, 20250, Note_on_c, 5, 65, 100
7, 20279, Note_on_c, 5, 65, 0
7, 20280, Note_on_c, 5, 64, 100
7, 20309, Note_on_c, 5, 64, 0
7, 20310, Note_on_c, 5, 62, 100
7, 20339, Note_on_c, 5, 62, 0
7, 20340, Note_on_c, 5, 60, 100
7, 20369, Note_on_c, 5, 60, 0
7, 20370, Note_on_c, 5, 62, 100
7, 20399, Note_on_c, 5, 62, 0
7, 20400, Note_on_c, 5, 60, 100
7, 20429, Note_on_c, 5, 60, 0
7, 20430, Note_on_c, 5, 58, 100
7, 20459, Note_on_c, 5, 58, 0
7, 20460, Note_on_c, 5, 57, 100
7, 20489, Note_on_c, 5, 57, 0
7, 20490, Note_on_c, 5, 58, 100
7, 20519, Note_on_c, 5, 58, 0
7, 20520, Note_on_c, 5, 60, 100
7, 20579, Note_on_c, 5, 60, 0
7, 20580, Note_on_c, 5, 52, 100
7, 20639, Note_on_c, 5, 52, 0
7, 20640, Note_on_c, 5, 55, 100
7, 20699, Note_on_c, 5, 55, 0
7, 20700, Note_on_c, 5, 60, 100
7, 20759, Note_on_c, 5, 60, 0
7, 20760, Note_on_c, 5, 58, 100
7, 20789, Note_on_c, 5, 58, 0
7, 20790, Note_on_c, 5, 57, 100
7, 20819, Note_on_c, 5, 57, 0
7, 20820, Note_on_c, 5, 55, 100
7, 20849, Note_on_c, 5, 55, 0
7, 20850, Note_on_c, 5, 53, 100
7, 20879, Note_on_c, 5, 53, 0
7, 20880, Note_on_c, 5, 60, 100
7, 20939, Note_on_c, 5, 60, 0
7, 20940, Note_on_c, 5, 60, 100
7, 20999, Note_on_c, 5, 60, 0
7, 21000, Note_on_c, 5, 62, 100
7, 21059, Note_on_c, 5, 62, 0
7, 21060, Note_on_c, 5, 64, 100
7, 21119, Note_on_c, 5, 64, 0
7, 21120, Note_on_c, 5, 64, 100
7, 21179, Note_on_c, 5, 64, 0
7, 21180, Note_on_c, 5, 65, 100
7, 21239, Note_on_c, 5, 65, 0
7, 21240, Note_on_c, 5, 67, 100
7, 21299, Note_on_c, 5, 67, 0
7, 21300, Note_on_c, 5, 67, 100
7, 21359, Note_on_c, 5, 67, 0
7, 21360, Note_on_c, 5, 69, 100
7, 21419, Note_on_c, 5, 69, 0
7, 21420, Note_on_c, 5, 67, 100
7, 21479, Note_on_c, 5, 67, 0
7, 21480, Note_on_c, 5, 65, 100
7, 21509, Note_on_c, 5, 65, 0
7, 21510, Note_on_c, 5, 64, 100
7, 21539, Note_on_c, 5, 64, 0
7, 21540, Note_on_c, 5, 62, 100
7, 21569, Note_on_c, 5, 62, 0
7, 21570, Note_on_c, 5, 60, 100
7, 21599, Note_on_c, 5, 60, 0
7, 21600, Note_on_c, 5, 59, 100
7, 21629, Note_on_c, 5, 59, 0
7, 21630, Note_on_c, 5, 57, 100
7, 21659, Note_on_c, 5, 57, 0
7, 21660, Note_on_c, 5, 55, 100
7, 21689, Note_on_c, 5, 55, 0
7, 21690, Note_on_c, 5, 57, 100
7, 21719, Note_on_c, 5, 57, 0
7, 21720, Note_on_c, 5, 59, 100
7, 21749, Note_on_c, 5, 59, 0
7, 21750, Note_on_c, 5, 60, 100
7, 21779, Note_on_c, 5, 60, 0
7, 21780, Note_on_c, 5, 62, 100
7, 21839, Note_on_c, 5, 62, 0
7, 21840, Note_on_c, 5, 62, 100
7, 21899, Note_on_c, 5, 62, 0
7, 21900, Note_on_c, 5, 64, 100
7, 21959, Note_on_c, 5, 64, 0
7, 21960, Note_on_c, 5, 62, 100
7, 22019, Note_on_c, 5, 62, 0
7, 22020, Note_on_c, 5, 62, 100
7, 22079, Note_on_c, 5, 62, 0
7, 22080, Note_on_c, 5, 59, 100
7, 22139, Note_on_c, 5, 59, 0
7, 22140, Note_on_c, 5, 55, 100
7, 22199, Note_on_c, 5, 55, 0
7, 22200, Note_on_c, 5, 60, 100
7, 22259, Note_on_c, 5, 60, 0
7, 22260, Note_on_c, 5, 48, 100
7, 22319, Note_on_c, 5, 48, 0
7, 22320, Note_on_c, 5, 65, 100
7, 22349, Note_on_c, 5, 65, 0
7, 22350, Note_on_c, 5, 67, 100
7, 22379, Note_on_c, 5, 67, 0
7, 22380, Note_on_c, 5, 65, 100
7, 22409, Note_on_c, 5, 65, 0
7, 22410, Note_on_c, 5, 63, 100
7, 22439, Note_on_c, 5, 63, 0
7, 22440, Note_on_c, 5, 62, 100
7, 22469, Note_on_c, 5, 62, 0
7, 22470, Note_on_c, 5, 60, 100
7, 22499, Note_on_c, 5, 60, 0
7, 22500, Note_on_c, 5, 58, 100
7, 22559, Note_on_c, 5, 58, 0
7, 22560, Note_on_c, 5, 65, 100
7, 22619, Note_on_c, 5, 65, 0
7, 22620, Note_on_c, 5, 62, 100
7, 22679, Note_on_c, 5, 62, 0
7, 22680, Note_on_c, 5, 58, 100
7, 22769, Note_on_c, 5, 58, 0
7, 22770, Note_on_c, 5, 55, 100
7, 22799, Note_on_c, 5, 55, 0
7, 22800, Note_on_c, 5, 57, 100
7, 22859, Note_on_c, 5, 57, 0
7, 22890, Note_on_c, 5, 58, 100
7, 22919, Note_on_c, 5, 58, 0
7, 22920, Note_on_c, 5, 60, 100
7, 22979, Note_on_c, 5, 60, 0
7, 22980, Note_on_c, 5, 48, 100
7, 23039, Note_on_c, 5, 48, 0
7, 23040, Note_on_c, 5, 53, 100
7, 23099, Note_on_c, 5, 53, 0
7, 23100, Note_on_c, 5, 60, 100
7, 23129, Note_on_c, 5, 60, 0
7, 23130, Note_on_c, 5, 58, 100
7, 23159, Note_on_c, 5, 58, 0
7, 23160, Note_on_c, 5, 57, 100
7, 23189, Note_on_c, 5, 57, 0
7, 23190, Note_on_c, 5, 58, 100
7, 23219, Note_on_c, 5, 58, 0
7, 23220, Note_on_c, 5, 57, 100
7, 23249, Note_on_c, 5, 57, 0
7, 23250, Note_on_c, 5, 60, 100
7, 23279, Note_on_c, 5, 60, 0
7, 23280, Note_on_c, 5, 65, 100
7, 23309, Note_on_c, 5, 65, 0
7, 23310, Note_on_c, 5, 69, 100
7, 23339, Note_on_c, 5, 69, 0
7, 23340, Note_on_c, 5, 67, 100
7, 23369, Note_on_c, 5, 67, 0
7, 23370, Note_on_c, 5, 65, 100
7, 23399, Note_on_c, 5, 65, 0
7, 23400, Note_on_c, 5, 64, 100
7, 23459, Note_on_c, 5, 64, 0
7, 23460, Note_on_c, 5, 72, 100
7, 23519, Note_on_c, 5, 72, 0
7, 23520, Note_on_c, 5, 67, 100
7, 23579, Note_on_c, 5, 67, 0
7, 23580, Note_on_c, 5, 64, 100
7, 23609, Note_on_c, 5, 64, 0
7, 23610, Note_on_c, 5, 67, 100
7, 23639, Note_on_c, 5, 67, 0
7, 23640, Note_on_c, 5, 60, 100
7, 23669, Note_on_c, 5, 60, 0
7, 23670, Note_on_c, 5, 62, 100
7, 23699, Note_on_c, 5, 62, 0
7, 23700, Note_on_c, 5, 64, 100
7, 23729, Note_on_c, 5, 64, 0
7, 23730, Note_on_c, 5, 65, 100
7, 23759, Note_on_c, 5, 65, 0
7, 23760, Note_on_c, 5, 67, 100
7, 23819, Note_on_c, 5, 67, 0
7, 23820, Note_on_c, 5, 64, 100
7, 23879, Note_on_c, 5, 64, 0
7, 23880, Note_on_c, 5, 62, 100
7, 23939, Note_on_c, 5, 62, 0
7, 23940, Note_on_c, 5, 61, 100
7, 23999, Note_on_c, 5, 61, 0
7, 24000, Note_on_c, 5, 64, 100
7, 24059, Note_on_c, 5, 64, 0
7, 24060, Note_on_c, 5, 57, 100
7, 24119, Note_on_c, 5, 57, 0
7, 24120, Note_on_c, 5, 62, 100
7, 24149, Note_on_c, 5, 62, 0
7, 24150, Note_on_c, 5, 74, 100
7, 24179, Note_on_c, 5, 74, 0
7, 24180, Note_on_c, 5, 69, 100
7, 24209, Note_on_c, 5, 69, 0
7, 24210, Note_on_c, 5, 74, 100
7, 24239, Note_on_c, 5, 74, 0
7, 24240, Note_on_c, 5, 65, 100
7, 24269, Note_on_c, 5, 65, 0
7, 24270, Note_on_c, 5, 69, 100
7, 24299, Note_on_c, 5, 69, 0
7, 24300, Note_on_c, 5, 62, 100
7, 24329, Note_on_c, 5, 62, 0
7, 24330, Note_on_c, 5, 69, 100
7, 24359, Note_on_c, 5, 69, 0
7, 24360, Note_on_c, 5, 65, 100
7, 24389, Note_on_c, 5, 65, 0
7, 24390, Note_on_c, 5, 62, 100
7, 24419, Note_on_c, 5, 62, 0
7, 24420, Note_on_c, 5, 58, 100
7, 24449, Note_on_c, 5, 58, 0
7, 24450, Note_on_c, 5, 62, 100
7, 24479, Note_on_c, 5, 62, 0
7, 24480, Note_on_c, 5, 57, 100
7, 24599, Note_on_c, 5, 57, 0
7, 24660, Note_on_c, 5, 57, 100
7, 24779, Note_on_c, 5, 57, 0
7, 24900, Note_on_c, 5, 57, 100
7, 24959, Note_on_c, 5, 57, 0
7, 24960, Note_on_c, 5, 55, 100
7, 25019, Note_on_c, 5, 55, 0
7, 25020, Note_on_c, 5, 54, 100
7, 25079, Note_on_c, 5, 54, 0
7, 25080, Note_on_c, 5, 52, 100
7, 25139, Note_on_c, 5, 52, 0
7, 25140, Note_on_c, 5, 50, 100
7, 25199, Note_on_c, 5, 50, 0
7, 25200, Note_on_c, 5, 55, 100
7, 25259, Note_on_c, 5, 55, 0
7, 25260, Note_on_c, 5, 62, 100
7, 25319, Note_on_c, 5, 62, 0
7, 25320, Note_on_c, 5, 67, 100
7, 25379, Note_on_c, 5, 67, 0
7, 25380, Note_on_c, 5, 60, 100
7, 25439, Note_on_c, 5, 60, 0
7, 25440, Note_on_c, 5, 63, 100
7, 25499, Note_on_c, 5, 63, 0
7, 25500, Note_on_c, 5, 67, 100
7, 25559, Note_on_c, 5, 67, 0
7, 25560, Note_on_c, 5, 60, 100
7, 25619, Note_on_c, 5, 60, 0
7, 25620, Note_on_c, 5, 63, 100
7, 25679, Note_on_c, 5, 63, 0
7, 25680, Note_on_c, 5, 69, 100
7, 25739, Note_on_c, 5, 69, 0
7, 25740, Note_on_c, 5, 58, 100
7, 25799, Note_on_c, 5, 58, 0
7, 25800, Note_on_c, 5, 62, 100
7, 25859, Note_on_c, 5, 62, 0
7, 25860, Note_on_c, 5, 65, 100
7, 25919, Note_on_c, 5, 65, 0
7, 25920, Note_on_c, 5, 58, 100
7, 25979, Note_on_c, 5, 58, 0
7, 25980, Note_on_c, 5, 62, 100
7, 26039, Note_on_c, 5, 62, 0
7, 26040, Note_on_c, 5, 67, 100
7, 26099, Note_on_c, 5, 67, 0
7, 26100, Note_on_c, 5, 57, 100
7, 26159, Note_on_c, 5, 57, 0
7, 26160, Note_on_c, 5, 60, 100
7, 26219, Note_on_c, 5, 60, 0
7, 26220, Note_on_c, 5, 63, 100
7, 26279, Note_on_c, 5, 63, 0
7, 26280, Note_on_c, 5, 57, 100
7, 26339, Note_on_c, 5, 57, 0
7, 26340, Note_on_c, 5, 60, 100
7, 26399, Note_on_c, 5, 60, 0
7, 26400, Note_on_c, 5, 65, 100
7, 26459, Note_on_c, 5, 65, 0
7, 26460, Note_on_c, 5, 55, 100
7, 26519, Note_on_c, 5, 55, 0
7, 26520, Note_on_c, 5, 59, 100
7, 26579, Note_on_c, 5, 59, 0
7, 26580, Note_on_c, 5, 62, 100
7, 26639, Note_on_c, 5, 62, 0
7, 26670, Note_on_c, 5, 55, 100
7, 26699, Note_on_c, 5, 55, 0
7, 26700, Note_on_c, 5, 60, 100
7, 26729, Note_on_c, 5, 60, 0
7, 26730, Note_on_c, 5, 63, 100
7, 26759, Note_on_c, 5, 63, 0
7, 26760, Note_on_c, 5, 60, 100
7, 26789, Note_on_c, 5, 60, 0
7, 26790, Note_on_c, 5, 59, 100
7, 26819, Note_on_c, 5, 59, 0
7, 26820, Note_on_c, 5, 60, 100
7, 26849, Note_on_c, 5, 60, 0
7, 26850, Note_on_c, 5, 55, 100
7, 26879, Note_on_c, 5, 55, 0
7, 26880, Note_on_c, 5, 60, 100
7, 26909, Note_on_c, 5, 60, 0
7, 26910, Note_on_c, 5, 63, 100
7, 26939, Note_on_c, 5, 63, 0
7, 26940, Note_on_c, 5, 60, 100
7, 26969, Note_on_c, 5, 60, 0
7, 26970, Note_on_c, 5, 59, 100
7, 26999, Note_on_c, 5, 59, 0
7, 27000, Note_on_c, 5, 60, 100
7, 27029, Note_on_c, 5, 60, 0
7, 27030, Note_on_c, 5, 56, 100
7, 27059, Note_on_c, 5, 56, 0
7, 27060, Note_on_c, 5, 60, 100
7, 27089, Note_on_c, 5, 60, 0
7, 27090, Note_on_c, 5, 63, 100
7, 27119, Note_on_c, 5, 63, 0
7, 27120, Note_on_c, 5, 60, 100
7, 27149, Note_on_c, 5, 60, 0
7, 27150, Note_on_c, 5, 59, 100
7, 27179, Note_on_c, 5, 59, 0
7, 27180, Note_on_c, 5, 60, 100
7, 27209, Note_on_c, 5, 60, 0
7, 27210, Note_on_c, 5, 56, 100
7, 27239, Note_on_c, 5, 56, 0
7, 27240, Note_on_c, 5, 60, 100
7, 27269, Note_on_c, 5, 60, 0
7, 27270, Note_on_c, 5, 63, 100
7, 27299, Note_on_c, 5, 63, 0
7, 27300, Note_on_c, 5, 60, 100
7, 27329, Note_on_c, 5, 60, 0
7, 27330, Note_on_c, 5, 59, 100
7, 27359, Note_on_c, 5, 59, 0
7, 27360, Note_on_c, 5, 60, 100
7, 27389, Note_on_c, 5, 60, 0
7, 27390, Note_on_c, 5, 57, 100
7, 27419, Note_on_c, 5, 57, 0
7, 27420, Note_on_c, 5, 60, 100
7, 27449, Note_on_c, 5, 60, 0
7, 27450, Note_on_c, 5, 63, 100
7, 27479, Note_on_c, 5, 63, 0
7, 27480, Note_on_c, 5, 60, 100
7, 27509, Note_on_c, 5, 60, 0
7, 27510, Note_on_c, 5, 59, 100
7, 27539, Note_on_c, 5, 59, 0
7, 27540, Note_on_c, 5, 60, 100
7, 27569, Note_on_c, 5, 60, 0
7, 27570, Note_on_c, 5, 57, 100
7, 27599, Note_on_c, 5, 57, 0
7, 27600, Note_on_c, 5, 60, 100
7, 27629, Note_on_c, 5, 60, 0
7, 27630, Note_on_c, 5, 63, 100
7, 27659, Note_on_c, 5, 63, 0
7, 27660, Note_on_c, 5, 60, 100
7, 27689, Note_on_c, 5, 60, 0
7, 27690, Note_on_c, 5, 59, 100
7, 27719, Note_on_c, 5, 59, 0
7, 27720, Note_on_c, 5, 61, 100
7, 27749, Note_on_c, 5, 61, 0
7, 27750, Note_on_c, 5, 58, 100
7, 27779, Note_on_c, 5, 58, 0
7, 27780, Note_on_c, 5, 61, 100
7, 27809, Note_on_c, 5, 61, 0
7, 27810, Note_on_c, 5, 64, 100
7, 27839, Note_on_c, 5, 64, 0
7, 27840, Note_on_c, 5, 61, 100
7, 27869, Note_on_c, 5, 61, 0
7, 27870, Note_on_c, 5, 60, 100
7, 27899, Note_on_c, 5, 60, 0
7, 27900, Note_on_c, 5, 61, 100
7, 27929, Note_on_c, 5, 61, 0
7, 27930, Note_on_c, 5, 58, 100
7, 27959, Note_on_c, 5, 58, 0
7, 27960, Note_on_c, 5, 61, 100
7, 27989, Note_on_c, 5, 61, 0
7, 27990, Note_on_c, 5, 64, 100
7, 28019, Note_on_c, 5, 64, 0
7, 28020, Note_on_c, 5, 61, 100
7, 28049, Note_on_c, 5, 61, 0
7, 28050, Note_on_c, 5, 60, 100
7, 28079, Note_on_c, 5, 60, 0
7, 28080, Note_on_c, 5, 62, 100
7, 28109, Note_on_c, 5, 62, 0
7, 28110, Note_on_c, 5, 60, 100
7, 28139, Note_on_c, 5, 60, 0
7, 28140, Note_on_c, 5, 62, 100
7, 28169, Note_on_c, 5, 62, 0
7, 28170, Note_on_c, 5, 66, 100
7, 28199, Note_on_c, 5, 66, 0
7, 28200, Note_on_c, 5, 62, 100
7, 28229, Note_on_c, 5, 62, 0
7, 28230, Note_on_c, 5, 61, 100
7, 28259, Note_on_c, 5, 61, 0
7, 28260, Note_on_c, 5, 62, 100
7, 28289, Note_on_c, 5, 62, 0
7, 28290, Note_on_c, 5, 60, 100
7, 28319, Note_on_c, 5, 60, 0
7, 28320, Note_on_c, 5, 62, 100
7, 28349, Note_on_c, 5, 62, 0
7, 28350, Note_on_c, 5, 66, 100
7, 28379, Note_on_c, 5, 66, 0
7, 28380, Note_on_c, 5, 62, 100
7, 28409, Note_on_c, 5, 62, 0
7, 28410, Note_on_c, 5, 61, 100
7, 28439, Note_on_c, 5, 61, 0
7, 28440, Note_on_c, 5, 64, 100
7, 28469, Note_on_c, 5, 64, 0
7, 28470, Note_on_c, 5, 61, 100
7, 28499, Note_on_c, 5, 61, 0
7, 28500, Note_on_c, 5, 64, 100
7, 28529, Note_on_c, 5, 64, 0
7, 28530, Note_on_c, 5, 67, 100
7, 28559, Note_on_c, 5, 67, 0
7, 28560, Note_on_c, 5, 64, 100
7, 28589, Note_on_c, 5, 64, 0
7, 28590, Note_on_c, 5, 63, 100
7, 28619, Note_on_c, 5, 63, 0
7, 28620, Note_on_c, 5, 64, 100
7, 28649, Note_on_c, 5, 64, 0
7, 28650, Note_on_c, 5, 61, 100
7, 28679, Note_on_c, 5, 61, 0
7, 28680, Note_on_c, 5, 64, 100
7, 28709, Note_on_c, 5, 64, 0
7, 28710, Note_on_c, 5, 67, 100
7, 28739, Note_on_c, 5, 67, 0
7, 28740, Note_on_c, 5, 64, 100
7, 28769, Note_on_c, 5, 64, 0
7, 28770, Note_on_c, 5, 63, 100
7, 28799, Note_on_c, 5, 63, 0
7, 28800, Note_on_c, 5, 66, 100
7, 28829, Note_on_c, 5, 66, 0
7, 28830, Note_on_c, 5, 62, 100
7, 28859, Note_on_c, 5, 62, 0
7, 28860, Note_on_c, 5, 66, 100
7, 28889, Note_on_c, 5, 66, 0
7, 28890, Note_on_c, 5, 69, 100
7, 28919, Note_on_c, 5, 69, 0
7, 28920, Note_on_c, 5, 66, 100
7, 28949, Note_on_c, 5, 66, 0
7, 28950, Note_on_c, 5, 65, 100
7, 28979, Note_on_c, 5, 65, 0
7, 28980, Note_on_c, 5, 66, 100
7, 29009, Note_on_c, 5, 66, 0
7, 29010, Note_on_c, 5, 62, 100
7, 29039, Note_on_c, 5, 62, 0
7, 29040, Note_on_c, 5, 66, 100
7, 29069, Note_on_c, 5, 66, 0
7, 29070, Note_on_c, 5, 69, 100
7, 29099, Note_on_c, 5, 69, 0
7, 29100, Note_on_c, 5, 66, 100
7, 29129, Note_on_c, 5, 66, 0
7, 29130, Note_on_c, 5, 62, 100
7, 29159, Note_on_c, 5, 62, 0
7, 29160, Note_on_c, 5, 67, 100
7, 29219, Note_on_c, 5, 67, 0
7, 29220, Note_on_c, 5, 55, 100
7, 29279, Note_on_c, 5, 55, 0
7, 29280, Note_on_c, 5, 57, 100
7, 29339, Note_on_c, 5, 57, 0
7, 29340, Note_on_c, 5, 58, 100
7, 29399, Note_on_c, 5, 58, 0
7, 29400, Note_on_c, 5, 58, 100
7, 29459, Note_on_c, 5, 58, 0
7, 29460, Note_on_c, 5, 60, 100
7, 29519, Note_on_c, 5, 60, 0
7, 29520, Note_on_c, 5, 62, 100
7, 29579, Note_on_c, 5, 62, 0
7, 29580, Note_on_c, 5, 62, 100
7, 29639, Note_on_c, 5, 62, 0
7, 29640, Note_on_c, 5, 63, 100
7, 29699, Note_on_c, 5, 63, 0
7, 29700, Note_on_c, 5, 62, 100
7, 29759, Note_on_c, 5, 62, 0
7, 29760, Note_on_c, 5, 60, 100
7, 29789, Note_on_c, 5, 60, 0
7, 29790, Note_on_c, 5, 58, 100
7, 29819, Note_on_c, 5, 58, 0
7, 29820, Note_on_c, 5, 57, 100
7, 29849, Note_on_c, 5, 57, 0
7, 29850, Note_on_c, 5, 55, 100
7, 29879, Note_on_c, 5, 55, 0
7, 29880, Note_on_c, 5, 54, 100
7, 29939, Note_on_c, 5, 54, 0
7, 29940, Note_on_c, 5, 50, 100
7, 29969, Note_on_c, 5, 50, 0
7, 29970, Note_on_c, 5, 52, 100
7, 29999, Note_on_c, 5, 52, 0
7, 30000, Note_on_c, 5, 54, 100
7, 30029, Note_on_c, 5, 54, 0
7, 30030, Note_on_c, 5, 55, 100
7, 30059, Note_on_c, 5, 55, 0
7, 30060, Note_on_c, 5, 57, 100
7, 30119, Note_on_c, 5, 57, 0
7, 30120, Note_on_c, 5, 57, 100
7, 30179, Note_on_c, 5, 57, 0
7, 30180, Note_on_c, 5, 58, 100
7, 30239, Note_on_c, 5, 58, 0
7, 30240, Note_on_c, 5, 57, 100
7, 30299, Note_on_c, 5, 57, 0
7, 30300, Note_on_c, 5, 50, 100
7, 30329, Note_on_c, 5, 50, 0
7, 30330, Note_on_c, 5, 52, 100
7, 30359, Note_on_c, 5, 52, 0
7, 30360, Note_on_c, 5, 54, 100
7, 30389, Note_on_c, 5, 54, 0
7, 30390, Note_on_c, 5, 55, 100
7, 30419, Note_on_c, 5, 55, 0
7, 30420, Note_on_c, 5, 57, 100
7, 30479, Note_on_c, 5, 57, 0
7, 30480, Note_on_c, 5, 57, 100
7, 30539, Note_on_c, 5, 57, 0
7, 30540, Note_on_c, 5, 58, 100
7, 30599, Note_on_c, 5, 58, 0
7, 30600, Note_on_c, 5, 57, 100
7, 30659, Note_on_c, 5, 57, 0
7, 30690, Note_on_c, 5, 54, 100
7, 30719, Note_on_c, 5, 54, 0
7, 30720, Note_on_c, 5, 50, 100
7, 30749, Note_on_c, 5, 50, 0
7, 30750, Note_on_c, 5, 54, 100
7, 30779, Note_on_c, 5, 54, 0
7, 30780, Note_on_c, 5, 55, 100
7, 30839, Note_on_c, 5, 55, 0
7, 30870, Note_on_c, 5, 55, 100
7, 30899, Note_on_c, 5, 55, 0
7, 30900, Note_on_c, 5, 51, 100
7, 30929, Note_on_c, 5, 51, 0
7, 30930, Note_on_c, 5, 48, 100
7, 30959, Note_on_c, 5, 48, 0
7, 30960, Note_on_c, 5, 53, 100
7, 31019, Note_on_c, 5, 53, 0
7, 31050, Note_on_c, 5, 55, 100
7, 31079, Note_on_c, 5, 55, 0
7, 31080, Note_on_c, 5, 53, 100
7, 31109, Note_on_c, 5, 53, 0
7, 31110, Note_on_c, 5, 51, 100
7, 31139, Note_on_c, 5, 51, 0
7, 31140, Note_on_c, 5, 50, 100
7, 31199, Note_on_c, 5, 50, 0
7, 31230, Note_on_c, 5, 50, 100
7, 31259, Note_on_c, 5, 50, 0
7, 31260, Note_on_c, 5, 47, 100
7, 31289, Note_on_c, 5, 47, 0
7, 31290, Note_on_c, 5, 43, 100
7, 31319, Note_on_c, 5, 43, 0
7, 31320, Note_on_c, 5, 48, 100
7, 31379, Note_on_c, 5, 48, 0
7, 31410, Note_on_c, 5, 50, 100
7, 31439, Note_on_c, 5, 50, 0
7, 31440, Note_on_c, 5, 48, 100
7, 31469, Note_on_c, 5, 48, 0
7, 31470, Note_on_c, 5, 46, 100
7, 31499, Note_on_c, 5, 46, 0
7, 31500, Note_on_c, 5, 45, 100
7, 31559, Note_on_c, 5, 45, 0
7, 31590, Note_on_c, 5, 45, 100
7, 31619, Note_on_c, 5, 45, 0
7, 31620, Note_on_c, 5, 42, 100
7, 31649, Note_on_c, 5, 42, 0
7, 31650, Note_on_c, 5, 38, 100
7, 31679, Note_on_c, 5, 38, 0
7, 31680, Note_on_c, 5, 43, 100
7, 31739, Note_on_c, 5, 43, 0
7, 31770, Note_on_c, 5, 69, 100
7, 31799, Note_on_c, 5, 69, 0
7, 31800, Note_on_c, 5, 67, 100
7, 31829, Note_on_c, 5, 67, 0
7, 31830, Note_on_c, 5, 65, 100
7, 31859, Note_on_c, 5, 65, 0
7, 31860, Note_on_c, 5, 64, 100
7, 31889, Note_on_c, 5, 64, 0
7, 31890, Note_on_c, 5, 67, 100
7, 31919, Note_on_c, 5, 67, 0
7, 31920, Note_on_c, 5, 64, 100
7, 31949, Note_on_c, 5, 64, 0
7, 31950, Note_on_c, 5, 67, 100
7, 31979, Note_on_c, 5, 67, 0
7, 31980, Note_on_c, 5, 61, 100
7, 32009, Note_on_c, 5, 61, 0
7, 32010, Note_on_c, 5, 64, 100
7, 32039, Note_on_c, 5, 64, 0
7, 32040, Note_on_c, 5, 62, 100
7, 32069, Note_on_c, 5, 62, 0
7, 32070, Note_on_c, 5, 65, 100
7, 32099, Note_on_c, 5, 65, 0
7, 32100, Note_on_c, 5, 57, 100
7, 32129, Note_on_c, 5, 57, 0
7, 32130, Note_on_c, 5, 62, 100
7, 32159, Note_on_c, 5, 62, 0
7, 32160, Note_on_c, 5, 65, 100
7, 32189, Note_on_c, 5, 65, 0
7, 32190, Note_on_c, 5, 63, 100
7, 32219, Note_on_c, 5, 63, 0
7, 32220, Note_on_c, 5, 62, 100
7, 32249, Note_on_c, 5, 62, 0
7, 32250, Note_on_c, 5, 65, 100
7, 32279, Note_on_c, 5, 65, 0
7, 32280, Note_on_c, 5, 62, 100
7, 32309, Note_on_c, 5, 62, 0
7, 32310, Note_on_c, 5, 65, 100
7, 32339, Note_on_c, 5, 65, 0
7, 32340, Note_on_c, 5, 59, 100
7, 32369, Note_on_c, 5, 59, 0
7, 32370, Note_on_c, 5, 62, 100
7, 32399, Note_on_c, 5, 62, 0
7, 32400, Note_on_c, 5, 60, 100
7, 32429, Note_on_c, 5, 60, 0
7, 32430, Note_on_c, 5, 63, 100
7, 32459, Note_on_c, 5, 63, 0
7, 32460, Note_on_c, 5, 55, 100
7, 32489, Note_on_c, 5, 55, 0
7, 32490, Note_on_c, 5, 60, 100
7, 32519, Note_on_c, 5, 60, 0
7, 32520, Note_on_c, 5, 63, 100
7, 32549, Note_on_c, 5, 63, 0
7, 32550, Note_on_c, 5, 62, 100
7, 32579, Note_on_c, 5, 62, 0
7, 32580, Note_on_c, 5, 60, 100
7, 32609, Note_on_c, 5, 60, 0
7, 32610, Note_on_c, 5, 63, 100
7, 32639, Note_on_c, 5, 63, 0
7, 32640, Note_on_c, 5, 60, 100
7, 32669, Note_on_c, 5, 60, 0
7, 32670, Note_on_c, 5, 63, 100
7, 32699, Note_on_c, 5, 63, 0
7, 32700, Note_on_c, 5, 57, 100
7, 32729, Note_on_c, 5, 57, 0
7, 32730, Note_on_c, 5, 60, 100
7, 32759, Note_on_c, 5, 60, 0
7, 32760, Note_on_c, 5, 58, 100
7, 32789, Note_on_c, 5, 58, 0
7, 32790, Note_on_c, 5, 62, 100
7, 32819, Note_on_c, 5, 62, 0
7, 32820, Note_on_c, 5, 53, 100
7, 32849, Note_on_c, 5, 53, 0
7, 32850, Note_on_c, 5, 58, 100
7, 32879, Note_on_c, 5, 58, 0
7, 32880, Note_on_c, 5, 62, 100
7, 32909, Note_on_c, 5, 62, 0
7, 32910, Note_on_c, 5, 60, 100
7, 32939, Note_on_c, 5, 60, 0
7, 32940, Note_on_c, 5, 58, 100
7, 32999, Note_on_c, 5, 58, 0
7, 33000, Note_on_c, 5, 55, 100
7, 33059, Note_on_c, 5, 55, 0
7, 33060, Note_on_c, 5, 50, 100
7, 33119, Note_on_c, 5, 50, 0
7, 33120, Note_on_c, 5, 55, 100
7, 33149, Note_on_c, 5, 55, 0
7, 33150, Note_on_c, 5, 58, 100
7, 33179, Note_on_c, 5, 58, 0
7, 33180, Note_on_c, 5, 57, 100
7, 33209, Note_on_c, 5, 57, 0
7, 33210, Note_on_c, 5, 55, 100
7, 33239, Note_on_c, 5, 55, 0
7, 33240, Note_on_c, 5, 54, 100
7, 33269, Note_on_c, 5, 54, 0
7, 33270, Note_on_c, 5, 52, 100
7, 33299, Note_on_c, 5, 52, 0
7, 33300, Note_on_c, 5, 50, 100
7, 33329, Note_on_c, 5, 50, 0
7, 33330, Note_on_c, 5, 51, 100
7, 33359, Note_on_c, 5, 51, 0
7, 33360, Note_on_c, 5, 50, 100
7, 33389, Note_on_c, 5, 50, 0
7, 33390, Note_on_c, 5, 48, 100
7, 33419, Note_on_c, 5, 48, 0
7, 33420, Note_on_c, 5, 46, 100
7, 33449, Note_on_c, 5, 46, 0
7, 33450, Note_on_c, 5, 45, 100
7, 33479, Note_on_c, 5, 45, 0
7, 33480, Note_on_c, 5, 43, 100
7, 33539, Note_on_c, 5, 43, 0
7, 33540, Note_on_c, 5, 46, 100
7, 33599, Note_on_c, 5, 46, 0
7, 33600, Note_on_c, 5, 51, 100
7, 33659, Note_on_c, 5, 51, 0
7, 33660, Note_on_c, 5, 48, 100
7, 33719, Note_on_c, 5, 48, 0
7, 33720, Note_on_c, 5, 50, 100
7, 33779, Note_on_c, 5, 50, 0
7, 33780, Note_on_c, 5, 38, 100
7, 33839, Note_on_c, 5, 38, 0
7, 33840, Note_on_c, 5, 43, 100
7, 33899, Note_on_c, 5, 43, 0
7, 33900, Note_on_c, 5, 55, 100
7, 33959, Note_on_c, 5, 55, 0
7, 33960, Note_on_c, 5, 57, 100
7, 34019, Note_on_c, 5, 57, 0
7, 34020, Note_on_c, 5, 58, 100
7, 34079, Note_on_c, 5, 58, 0
7, 34080, Note_on_c, 5, 58, 100
7, 34139, Note_on_c, 5, 58, 0
7, 34140, Note_on_c, 5, 60, 100
7, 34199, Note_on_c, 5, 60, 0
7, 34200, Note_on_c, 5, 62, 100
7, 34259, Note_on_c, 5, 62, 0
7, 34260, Note_on_c, 5, 62, 100
7, 34319, Note_on_c, 5, 62, 0
7, 34320, Note_on_c, 5, 63, 100
7, 34379, Note_on_c, 5, 63, 0
7, 34380, Note_on_c, 5, 62, 100
7, 34439, Note_on_c, 5, 62, 0
7, 34440, Note_on_c, 5, 60, 100
7, 34469, Note_on_c, 5, 60, 0
7, 34470, Note_on_c, 5, 58, 100
7, 34499, Note_on_c, 5, 58, 0
7, 34500, Note_on_c, 5, 57, 100
7, 34529, Note_on_c, 5, 57, 0
7, 34530, Note_on_c, 5, 55, 100
7, 34559, Note_on_c, 5, 55, 0
7, 34560, Note_on_c, 5, 54, 100
7, 34619, Note_on_c, 5, 54, 0
7, 34620, Note_on_c, 5, 50, 100
7, 34649, Note_on_c, 5, 50, 0
7, 34650, Note_on_c, 5, 52, 100
7, 34679, Note_on_c, 5, 52, 0
7, 34680, Note_on_c, 5, 54, 100
7, 34709, Note_on_c, 5, 54, 0
7, 34710, Note_on_c, 5, 55, 100
7, 34739, Note_on_c, 5, 55, 0
7, 34740, Note_on_c, 5, 57, 100
7, 34799, Note_on_c, 5, 57, 0
7, 34800, Note_on_c, 5, 57, 100
7, 34859, Note_on_c, 5, 57, 0
7, 34860, Note_on_c, 5, 58, 100
7, 34919, Note_on_c, 5, 58, 0
7, 34920, Note_on_c, 5, 57, 100
7, 34979, Note_on_c, 5, 57, 0
7, 34980, Note_on_c, 5, 50, 100
7, 35009, Note_on_c, 5, 50, 0
7, 35010, Note_on_c, 5, 52, 100
7, 35039, Note_on_c, 5, 52, 0
7, 35040, Note_on_c, 5, 54, 100
7, 35069, Note_on_c, 5, 54, 0
7, 35070, Note_on_c, 5, 55, 100
7, 35099, Note_on_c, 5, 55, 0
7, 35100, Note_on_c, 5, 57, 100
7, 35159, Note_on_c, 5, 57, 0
7, 35160, Note_on_c, 5, 57, 100
7, 35219, Note_on_c, 5, 57, 0
7, 35220, Note_on_c, 5, 58, 100
7, 35279, Note_on_c, 5, 58, 0
7, 35280, Note_on_c, 5, 57, 100
7, 35339, Note_on_c, 5, 57, 0
7, 35340, Note_on_c, 5, 57, 100
7, 35399, Note_on_c, 5, 57, 0
7, 35400, Note_on_c, 5, 57, 100
7, 35459, Note_on_c, 5, 57, 0
7, 35460, Note_on_c, 5, 57, 100
7, 35519, Note_on_c, 5, 57, 0
7, 35520, Note_on_c, 5, 57, 100
7, 35579, Note_on_c, 5, 57, 0
7, 35580, Note_on_c, 5, 57, 100
7, 35639, Note_on_c, 5, 57, 0
7, 35640, Note_on_c, 5, 57, 100
7, 35699, Note_on_c, 5, 57, 0
7, 35700, Note_on_c, 5, 57, 100
7, 35759, Note_on_c, 5, 57, 0
7, 35760, Note_on_c, 5, 57, 100
7, 35819, Note_on_c, 5, 57, 0
7, 35820, Note_on_c, 5, 58, 100
7, 35879, Note_on_c, 5, 58, 0
7, 35880, Note_on_c, 5, 62, 100
7, 35880, Note_on_c, 5, 58, 100
7, 35939, Note_on_c, 5, 58, 0
7, 35939, Note_on_c, 5, 62, 0
7, 35940, Note_on_c, 5, 57, 100
7, 35940, Note_on_c, 5, 60, 100
7, 35999, Note_on_c, 5, 60, 0
7, 35999, Note_on_c, 5, 57, 0
7, 36000, Note_on_c, 5, 58, 100
7, 36000, Note_on_c, 5, 55, 100
7, 36059, Note_on_c, 5, 55, 0
7, 36059, Note_on_c, 5, 58, 0
7, 36060, Note_on_c, 5, 58, 100
7, 36060, Note_on_c, 5, 50, 100
7, 36119, Note_on_c, 5, 50, 0
7, 36119, Note_on_c, 5, 58, 0
7, 36120, Note_on_c, 5, 48, 100
7, 36120, Note_on_c, 5, 57, 100
7, 36179, Note_on_c, 5, 57, 0
7, 36179, Note_on_c, 5, 48, 0
7, 36180, Note_on_c, 5, 46, 100
7, 36180, Note_on_c, 5, 50, 100
7, 36180, Note_on_c, 5, 55, 100
7, 36209, Note_on_c, 5, 55, 0
7, 36209, Note_on_c, 5, 50, 0
7, 36209, Note_on_c, 5, 46, 0
7, 36210, Note_on_c, 5, 48, 100
7, 36239, Note_on_c, 5, 48, 0
7, 36240, Note_on_c, 5, 50, 100
7, 36299, Note_on_c, 5, 50, 0
7, 36300, Note_on_c, 5, 38, 100
7, 36359, Note_on_c, 5, 38, 0
7, 36360, Note_on_c, 5, 43, 100
7, 36419, Note_on_c, 5, 43, 0
7, 36570, Note_on_c, 5, 55, 100
7, 36599, Note_on_c, 5, 55, 0
7, 36600, Note_on_c, 5, 58, 100
7, 36629, Note_on_c, 5, 58, 0
7, 36630, Note_on_c, 5, 62, 100
7, 36659, Note_on_c, 5, 62, 0
7, 36660, Note_on_c, 5, 58, 100
7, 36689, Note_on_c, 5, 58, 0
7, 36690, Note_on_c, 5, 55, 100
7, 36719, Note_on_c, 5, 55, 0
7, 36720, Note_on_c, 5, 64, 100
7, 36779, Note_on_c, 5, 64, 0
7, 36780, Note_on_c, 5, 57, 100
7, 36839, Note_on_c, 5, 57, 0
7, 36840, Note_on_c, 5, 55, 100
7, 36899, Note_on_c, 5, 55, 0
7, 36900, Note_on_c, 5, 53, 100
7, 36959, Note_on_c, 5, 53, 0
7, 36960, Note_on_c, 5, 53, 100
7, 37019, Note_on_c, 5, 53, 0
7, 37020, Note_on_c, 5, 52, 100
7, 37079, Note_on_c, 5, 52, 0
7, 37080, Note_on_c, 5, 50, 100
7, 37139, Note_on_c, 5, 50, 0
7, 37140, Note_on_c, 5, 62, 100
7, 37199, Note_on_c, 5, 62, 0
7, 37200, Note_on_c, 5, 60, 100
7, 37259, Note_on_c, 5, 60, 0
7, 37260, Note_on_c, 5, 59, 100
7, 37319, Note_on_c, 5, 59, 0
7, 37320, Note_on_c, 5, 59, 100
7, 37379, Note_on_c, 5, 59, 0
7, 37380, Note_on_c, 5, 57, 100
7, 37439, Note_on_c, 5, 57, 0
7, 37440, Note_on_c, 5, 56, 100
7, 37499, Note_on_c, 5, 56, 0
7, 37500, Note_on_c, 5, 52, 100
7, 37559, Note_on_c, 5, 52, 0
7, 37560, Note_on_c, 5, 50, 100
7, 37619, Note_on_c, 5, 50, 0
7, 37620, Note_on_c, 5, 49, 100
7, 37679, Note_on_c, 5, 49, 0
7, 37680, Note_on_c, 5, 49, 100
7, 37739, Note_on_c, 5, 49, 0
7, 37740, Note_on_c, 5, 47, 100
7, 37799, Note_on_c, 5, 47, 0
7, 37800, Note_on_c, 5, 45, 100
7, 37859, Note_on_c, 5, 45, 0
7, 37920, Note_on_c, 5, 57, 100
7, 37979, Note_on_c, 5, 57, 0
7, 37980, Note_on_c, 5, 50, 100
7, 38039, Note_on_c, 5, 50, 0
7, 38040, Note_on_c, 5, 54, 100
7, 38099, Note_on_c, 5, 54, 0
7, 38100, Note_on_c, 5, 57, 100
7, 38159, Note_on_c, 5, 57, 0
7, 38160, Note_on_c, 5, 50, 100
7, 38219, Note_on_c, 5, 50, 0
7, 38220, Note_on_c, 5, 55, 100
7, 38279, Note_on_c, 5, 55, 0
7, 38280, Note_on_c, 5, 58, 100
7, 38339, Note_on_c, 5, 58, 0
7, 38340, Note_on_c, 5, 48, 100
7, 38399, Note_on_c, 5, 48, 0
7, 38400, Note_on_c, 5, 52, 100
7, 38459, Note_on_c, 5, 52, 0
7, 38460, Note_on_c, 5, 55, 100
7, 38519, Note_on_c, 5, 55, 0
7, 38520, Note_on_c, 5, 48, 100
7, 38579, Note_on_c, 5, 48, 0
7, 38580, Note_on_c, 5, 53, 100
7, 38639, Note_on_c, 5, 53, 0
7, 38640, Note_on_c, 5, 57, 100
7, 38699, Note_on_c, 5, 57, 0
7, 38700, Note_on_c, 5, 46, 100
7, 38759, Note_on_c, 5, 46, 0
7, 38760, Note_on_c, 5, 50, 100
7, 38819, Note_on_c, 5, 50, 0
7, 38820, Note_on_c, 5, 53, 100
7, 38879, Note_on_c, 5, 53, 0
7, 38880, Note_on_c, 5, 46, 100
7, 38939, Note_on_c, 5, 46, 0
7, 38940, Note_on_c, 5, 52, 100
7, 38999, Note_on_c, 5, 52, 0
7, 39000, Note_on_c, 5, 55, 100
7, 39059, Note_on_c, 5, 55, 0
7, 39060, Note_on_c, 5, 45, 100
7, 39119, Note_on_c, 5, 45, 0
7, 39120, Note_on_c, 5, 49, 100
7, 39179, Note_on_c, 5, 49, 0
7, 39180, Note_on_c, 5, 52, 100
7, 39239, Note_on_c, 5, 52, 0
7, 39240, Note_on_c, 5, 38, 100
7, 39299, Note_on_c, 5, 38, 0
7, 39300, Note_on_c, 5, 50, 100
7, 39359, Note_on_c, 5, 50, 0
7, 39360, Note_on_c, 5, 52, 100
7, 39419, Note_on_c, 5, 52, 0
7, 39420, Note_on_c, 5, 53, 100
7, 39479, Note_on_c, 5, 53, 0
7, 39480, Note_on_c, 5, 52, 100
7, 39539, Note_on_c, 5, 52, 0
7, 39540, Note_on_c, 5, 50, 100
7, 39599, Note_on_c, 5, 50, 0
7, 39660, Note_on_c, 5, 52, 100
7, 39719, Note_on_c, 5, 52, 0
7, 39720, Note_on_c, 5, 53, 100
7, 39779, Note_on_c, 5, 53, 0
7, 39780, Note_on_c, 5, 55, 100
7, 39839, Note_on_c, 5, 55, 0
7, 39840, Note_on_c, 5, 53, 100
7, 39899, Note_on_c, 5, 53, 0
7, 39900, Note_on_c, 5, 52, 100
7, 39959, Note_on_c, 5, 52, 0
7, 40020, Note_on_c, 5, 53, 100
7, 40079, Note_on_c, 5, 53, 0
7, 40080, Note_on_c, 5, 55, 100
7, 40139, Note_on_c, 5, 55, 0
7, 40140, Note_on_c, 5, 57, 100
7, 40199, Note_on_c, 5, 57, 0
7, 40200, Note_on_c, 5, 55, 100
7, 40259, Note_on_c, 5, 55, 0
7, 40260, Note_on_c, 5, 54, 100
7, 40319, Note_on_c, 5, 54, 0
7, 40320, Note_on_c, 5, 55, 100
7, 40379, Note_on_c, 5, 55, 0
7, 41280, Note_on_c, 5, 57, 100
7, 41294, Note_on_c, 5, 57, 0
7, 41295, Note_on_c, 5, 55, 100
7, 41309, Note_on_c, 5, 55, 0
7, 41310, Note_on_c, 5, 53, 100
7, 41324, Note_on_c, 5, 53, 0
7, 41325, Note_on_c, 5, 52, 100
7, 41339, Note_on_c, 5, 52, 0
7, 41340, Note_on_c, 5, 50, 100
7, 41354, Note_on_c, 5, 50, 0
7, 41355, Note_on_c, 5, 48, 100
7, 41369, Note_on_c, 5, 48, 0
7, 41370, Note_on_c, 5, 47, 100
7, 41384, Note_on_c, 5, 47, 0
7, 41385, Note_on_c, 5, 45, 100
7, 41399, Note_on_c, 5, 45, 0
7, 41400, Note_on_c, 5, 44, 100
7, 41414, Note_on_c, 5, 44, 0
7, 41415, Note_on_c, 5, 47, 100
7, 41429, Note_on_c, 5, 47, 0
7, 41430, Note_on_c, 5, 50, 100
7, 41444, Note_on_c, 5, 50, 0
7, 41445, Note_on_c, 5, 53, 100
7, 41459, Note_on_c, 5, 53, 0
7, 41820, Note_on_c, 5, 57, 100
7, 41879, Note_on_c, 5, 57, 0
7, 41880, Note_on_c, 5, 59, 100
7, 41939, Note_on_c, 5, 59, 0
7, 41940, Note_on_c, 5, 61, 100
7, 41999, Note_on_c, 5, 61, 0
7, 42000, Note_on_c, 5, 59, 100
7, 42059, Note_on_c, 5, 59, 0
7, 42060, Note_on_c, 5, 57, 100
7, 42119, Note_on_c, 5, 57, 0
7, 42180, Note_on_c, 5, 59, 100
7, 42239, Note_on_c, 5, 59, 0
7, 42240, Note_on_c, 5, 61, 100
7, 42299, Note_on_c, 5, 61, 0
7, 42300, Note_on_c, 5, 62, 100
7, 42359, Note_on_c, 5, 62, 0
7, 42360, Note_on_c, 5, 61, 100
7, 42419, Note_on_c, 5, 61, 0
7, 42420, Note_on_c, 5, 59, 100
7, 42479, Note_on_c, 5, 59, 0
7, 42540, Note_on_c, 5, 61, 100
7, 42599, Note_on_c, 5, 61, 0
7, 42600, Note_on_c, 5, 62, 100
7, 42659, Note_on_c, 5, 62, 0
7, 42660, Note_on_c, 5, 64, 100
7, 42719, Note_on_c, 5, 64, 0
7, 42720, Note_on_c, 5, 62, 100
7, 42779, Note_on_c, 5, 62, 0
7, 42780, Note_on_c, 5, 61, 100
7, 42839, Note_on_c, 5, 61, 0
7, 42840, Note_on_c, 5, 62, 100
7, 42885, Note_on_c, 5, 62, 0
7, 42885, Note_on_c, 5, 69, 100
7, 42899, Note_on_c, 5, 69, 0
7, 42900, Note_on_c, 5, 65, 100
7, 42945, Note_on_c, 5, 65, 0
7, 42945, Note_on_c, 5, 69, 100
7, 42959, Note_on_c, 5, 69, 0
7, 42960, Note_on_c, 5, 62, 100
7, 43005, Note_on_c, 5, 62, 0
7, 43005, Note_on_c, 5, 69, 100
7, 43019, Note_on_c, 5, 69, 0
7, 43020, Note_on_c, 5, 67, 100
7, 43065, Note_on_c, 5, 67, 0
7, 43065, Note_on_c, 5, 69, 100
7, 43079, Note_on_c, 5, 69, 0
7, 43080, Note_on_c, 5, 64, 100
7, 43125, Note_on_c, 5, 64, 0
7, 43125, Note_on_c, 5, 69, 100
7, 43139, Note_on_c, 5, 69, 0
7, 43140, Note_on_c, 5, 67, 100
7, 43185, Note_on_c, 5, 67, 0
7, 43185, Note_on_c, 5, 69, 100
7, 43199, Note_on_c, 5, 69, 0
7, 43200, Note_on_c, 5, 65, 100
7, 43245, Note_on_c, 5, 65, 0
7, 43245, Note_on_c, 5, 68, 100
7, 43259, Note_on_c, 5, 68, 0
7, 43260, Note_on_c, 5, 62, 100
7, 43305, Note_on_c, 5, 62, 0
7, 43305, Note_on_c, 5, 68, 100
7, 43319, Note_on_c, 5, 68, 0
7, 43320, Note_on_c, 5, 65, 100
7, 43365, Note_on_c, 5, 65, 0
7, 43365, Note_on_c, 5, 68, 100
7, 43379, Note_on_c, 5, 68, 0
7, 43380, Note_on_c, 5, 64, 100
7, 43425, Note_on_c, 5, 64, 0
7, 43425, Note_on_c, 5, 67, 100
7, 43439, Note_on_c, 5, 67, 0
7, 43440, Note_on_c, 5, 61, 100
7, 43485, Note_on_c, 5, 61, 0
7, 43485, Note_on_c, 5, 67, 100
7, 43499, Note_on_c, 5, 67, 0
7, 43500, Note_on_c, 5, 64, 100
7, 43545, Note_on_c, 5, 64, 0
7, 43545, Note_on_c, 5, 67, 100
7, 43559, Note_on_c, 5, 67, 0
7, 43560, Note_on_c, 5, 62, 100
7, 43605, Note_on_c, 5, 62, 0
7, 43605, Note_on_c, 5, 65, 100
7, 43619, Note_on_c, 5, 65, 0
7, 43620, Note_on_c, 5, 59, 100
7, 43665, Note_on_c, 5, 59, 0
7, 43665, Note_on_c, 5, 65, 100
7, 43679, Note_on_c, 5, 65, 0
7, 43680, Note_on_c, 5, 62, 100
7, 43725, Note_on_c, 5, 62, 0
7, 43725, Note_on_c, 5, 65, 100
7, 43739, Note_on_c, 5, 65, 0
7, 43740, Note_on_c, 5, 64, 100
7, 43785, Note_on_c, 5, 64, 0
7, 43785, Note_on_c, 5, 67, 100
7, 43799, Note_on_c, 5, 67, 0
7, 43800, Note_on_c, 5, 61, 100
7, 43845, Note_on_c, 5, 61, 0
7, 43845, Note_on_c, 5, 67, 100
7, 43859, Note_on_c, 5, 67, 0
7, 43860, Note_on_c, 5, 57, 100
7, 43905, Note_on_c, 5, 57, 0
7, 43905, Note_on_c, 5, 67, 100
7, 43919, Note_on_c, 5, 67, 0
7, 44100, Note_on_c, 5, 53, 100
7, 44114, Note_on_c, 5, 53, 0
7, 44115, Note_on_c, 5, 52, 100
7, 44129, Note_on_c, 5, 52, 0
7, 44130, Note_on_c, 5, 50, 100
7, 44144, Note_on_c, 5, 50, 0
7, 44145, Note_on_c, 5, 48, 100
7, 44159, Note_on_c, 5, 48, 0
7, 44160, Note_on_c, 5, 47, 100
7, 44174, Note_on_c, 5, 47, 0
7, 44175, Note_on_c, 5, 45, 100
7, 44189, Note_on_c, 5, 45, 0
7, 44190, Note_on_c, 5, 44, 100
7, 44204, Note_on_c, 5, 44, 0
7, 44205, Note_on_c, 5, 42, 100
7, 44219, Note_on_c, 5, 42, 0
7, 44220, Note_on_c, 5, 40, 100
7, 44234, Note_on_c, 5, 40, 0
7, 44235, Note_on_c, 5, 53, 100
7, 44249, Note_on_c, 5, 53, 0
7, 44250, Note_on_c, 5, 52, 100
7, 44264, Note_on_c, 5, 52, 0
7, 44265, Note_on_c, 5, 50, 100
7, 44279, Note_on_c, 5, 50, 0
7, 44280, Note_on_c, 5, 49, 100
7, 44294, Note_on_c, 5, 49, 0
7, 44295, Note_on_c, 5, 47, 100
7, 44309, Note_on_c, 5, 47, 0
7, 44310, Note_on_c, 5, 45, 100
7, 44324, Note_on_c, 5, 45, 0
7, 44325, Note_on_c, 5, 47, 100
7, 44339, Note_on_c, 5, 47, 0
7, 44340, Note_on_c, 5, 49, 100
7, 44354, Note_on_c, 5, 49, 0
7, 44355, Note_on_c, 5, 50, 100
7, 44369, Note_on_c, 5, 50, 0
7, 44370, Note_on_c, 5, 52, 100
7, 44384, Note_on_c, 5, 52, 0
7, 44385, Note_on_c, 5, 53, 100
7, 44399, Note_on_c, 5, 53, 0
7, 44400, Note_on_c, 5, 55, 100
7, 44414, Note_on_c, 5, 55, 0
7, 44415, Note_on_c, 5, 57, 100
7, 44429, Note_on_c, 5, 57, 0
7, 44430, Note_on_c, 5, 59, 100
7, 44444, Note_on_c, 5, 59, 0
7, 44445, Note_on_c, 5, 61, 100
7, 44459, Note_on_c, 5, 61, 0
7, 44850, Note_on_c, 5, 56, 100
7, 44879, Note_on_c, 5, 56, 0
7, 44880, Note_on_c, 5, 57, 100
7, 44999, Note_on_c, 5, 57, 0
7, 45000, Note_on_c, 5, 62, 100
7, 45059, Note_on_c, 5, 62, 0
7, 45240, Note_on_c, 5, 50, 100
7, 45299, Note_on_c, 5, 50, 0
7, 45300, Note_on_c, 5, 52, 100
7, 45359, Note_on_c, 5, 52, 0
7, 45360, Note_on_c, 5, 53, 100
7, 45419, Note_on_c, 5, 53, 0
7, 45420, Note_on_c, 5, 53, 100
7, 45479, Note_on_c, 5, 53, 0
7, 45480, Note_on_c, 5, 55, 100
7, 45539, Note_on_c, 5, 55, 0
7, 45540, Note_on_c, 5, 57, 100
7, 45599, Note_on_c, 5, 57, 0
7, 45600, Note_on_c, 5, 57, 100
7, 45659, Note_on_c, 5, 57, 0
7, 45660, Note_on_c, 5, 58, 100
7, 45719, Note_on_c, 5, 58, 0
7, 45720, Note_on_c, 5, 57, 100
7, 45779, Note_on_c, 5, 57, 0
7, 45780, Note_on_c, 5, 55, 100
7, 45809, Note_on_c, 5, 55, 0
7, 45810, Note_on_c, 5, 53, 100
7, 45839, Note_on_c, 5, 53, 0
7, 45840, Note_on_c, 5, 52, 100
7, 45869, Note_on_c, 5, 52, 0
7, 45870, Note_on_c, 5, 50, 100
7, 45899, Note_on_c, 5, 50, 0
7, 45900, Note_on_c, 5, 49, 100
7, 45959, Note_on_c, 5, 49, 0
7, 45960, Note_on_c, 5, 45, 100
7, 46019, Note_on_c, 5, 45, 0
7, 46020, Note_on_c, 5, 50, 100
7, 46079, Note_on_c, 5, 50, 0
7, 46080, Note_on_c, 5, 57, 100
7, 46094, Note_on_c, 5, 57, 0
7, 46095, Note_on_c, 5, 45, 100
7, 46109, Note_on_c, 5, 45, 0
7, 46110, Note_on_c, 5, 47, 100
7, 46124, Note_on_c, 5, 47, 0
7, 46125, Note_on_c, 5, 49, 100
7, 46139, Note_on_c, 5, 49, 0
7, 46140, Note_on_c, 5, 50, 100
7, 46154, Note_on_c, 5, 50, 0
7, 46155, Note_on_c, 5, 52, 100
7, 46169, Note_on_c, 5, 52, 0
7, 46170, Note_on_c, 5, 53, 100
7, 46184, Note_on_c, 5, 53, 0
7, 46185, Note_on_c, 5, 55, 100
7, 46199, Note_on_c, 5, 55, 0
7, 46200, Note_on_c, 5, 57, 100
7, 46214, Note_on_c, 5, 57, 0
7, 47355, Note_on_c, 5, 46, 100
7, 47369, Note_on_c, 5, 46, 0
7, 47370, Note_on_c, 5, 48, 100
7, 47384, Note_on_c, 5, 48, 0
7, 47385, Note_on_c, 5, 50, 100
7, 47399, Note_on_c, 5, 50, 0
7, 47400, Note_on_c, 5, 52, 100
7, 47414, Note_on_c, 5, 52, 0
7, 47415, Note_on_c, 5, 53, 100
7, 47429, Note_on_c, 5, 53, 0
7, 47430, Note_on_c, 5, 55, 100
7, 47444, Note_on_c, 5, 55, 0
7, 47445, Note_on_c, 5, 57, 100
7, 47459, Note_on_c, 5, 57, 0
7, 47460, Note_on_c, 5, 58, 100
7, 47474, Note_on_c, 5, 58, 0
7, 47475, Note_on_c, 5, 57, 100
7, 47489, Note_on_c, 5, 57, 0
7, 47490, Note_on_c, 5, 55, 100
7, 47504, Note_on_c, 5, 55, 0
7, 47505, Note_on_c, 5, 53, 100
7, 47519, Note_on_c, 5, 53, 0
7, 47520, Note_on_c, 5, 55, 100
7, 47534, Note_on_c, 5, 55, 0
7, 47535, Note_on_c, 5, 40, 100
7, 47549, Note_on_c, 5, 40, 0
7, 47550, Note_on_c, 5, 41, 100
7, 47564, Note_on_c, 5, 41, 0
7, 47565, Note_on_c, 5, 43, 100
7, 47579, Note_on_c, 5, 43, 0
7, 47580, Note_on_c, 5, 45, 100
7, 47594, Note_on_c, 5, 45, 0
7, 47595, Note_on_c, 5, 47, 100
7, 47609, Note_on_c, 5, 47, 0
7, 47610, Note_on_c, 5, 49, 100
7, 47624, Note_on_c, 5, 49, 0
7, 47625, Note_on_c, 5, 50, 100
7, 47639, Note_on_c, 5, 50, 0
7, 47640, Note_on_c, 5, 52, 100
7, 47654, Note_on_c, 5, 52, 0
7, 47655, Note_on_c, 5, 50, 100
7, 47669, Note_on_c, 5, 50, 0
7, 47670, Note_on_c, 5, 49, 100
7, 47684, Note_on_c, 5, 49, 0
7, 47685, Note_on_c, 5, 47, 100
7, 47699, Note_on_c, 5, 47, 0
7, 47700, Note_on_c, 5, 49, 100
7, 47714, Note_on_c, 5, 49, 0
7, 47715, Note_on_c, 5, 45, 100
7, 47729, Note_on_c, 5, 45, 0
7, 47730, Note_on_c, 5, 47, 100
7, 47744, Note_on_c, 5, 47, 0
7, 47745, Note_on_c, 5, 49, 100
7, 47759, Note_on_c, 5, 49, 0
7, 47760, Note_on_c, 5, 50, 100
7, 47774, Note_on_c, 5, 50, 0
7, 47775, Note_on_c, 5, 52, 100
7, 47789, Note_on_c, 5, 52, 0
7, 47790, Note_on_c, 5, 53, 100
7, 47804, Note_on_c, 5, 53, 0
7, 47805, Note_on_c, 5, 55, 100
7, 47819, Note_on_c, 5, 55, 0
7, 47820, Note_on_c, 5, 57, 100
7, 47834, Note_on_c, 5, 57, 0
7, 47835, Note_on_c, 5, 55, 100
7, 47849, Note_on_c, 5, 55, 0
7, 47850, Note_on_c, 5, 53, 100
7, 47864, Note_on_c, 5, 53, 0
7, 47865, Note_on_c, 5, 52, 100
7, 47879, Note_on_c, 5, 52, 0
7, 47880, Note_on_c, 5, 53, 100
7, 47894, Note_on_c, 5, 53, 0
7, 47895, Note_on_c, 5, 50, 100
7, 47909, Note_on_c, 5, 50, 0
7, 47910, Note_on_c, 5, 52, 100
7, 47924, Note_on_c, 5, 52, 0
7, 47925, Note_on_c, 5, 53, 100
7, 47939, Note_on_c, 5, 53, 0
7, 48240, Note_on_c, 5, 57, 100
7, 48240, Note_on_c, 5, 62, 100
7, 48259, Note_on_c, 5, 62, 0
7, 48260, Note_on_c, 5, 61, 100
7, 48279, Note_on_c, 5, 61, 0
7, 48280, Note_on_c, 5, 62, 100
7, 48299, Note_on_c, 5, 62, 0
7, 48300, Note_on_c, 5, 57, 0
7, 48300, Note_on_c, 5, 61, 100
7, 48314, Note_on_c, 5, 61, 0
7, 48315, Note_on_c, 5, 62, 100
7, 48329, Note_on_c, 5, 62, 0
7, 48330, Note_on_c, 5, 61, 100
7, 48344, Note_on_c, 5, 61, 0
7, 48345, Note_on_c, 5, 62, 100
7, 48359, Note_on_c, 5, 62, 0
7, 48360, Note_on_c, 5, 61, 100
7, 48374, Note_on_c, 5, 61, 0
7, 48375, Note_on_c, 5, 62, 100
7, 48389, Note_on_c, 5, 62, 0
7, 48390, Note_on_c, 5, 61, 100
7, 48404, Note_on_c, 5, 61, 0
7, 48405, Note_on_c, 5, 62, 100
7, 48419, Note_on_c, 5, 62, 0
7, 48420, Note_on_c, 5, 61, 100
7, 48429, Note_on_c, 5, 61, 0
7, 48430, Note_on_c, 5, 62, 100
7, 48439, Note_on_c, 5, 62, 0
7, 48440, Note_on_c, 5, 61, 100
7, 48449, Note_on_c, 5, 61, 0
7, 48450, Note_on_c, 5, 62, 100
7, 48459, Note_on_c, 5, 62, 0
7, 48460, Note_on_c, 5, 61, 100
7, 48469, Note_on_c, 5, 61, 0
7, 48470, Note_on_c, 5, 62, 100
7, 48479, Note_on_c, 5, 62, 0
7, 48480, Note_on_c, 5, 61, 100
7, 48489, Note_on_c, 5, 61, 0
7, 48490, Note_on_c, 5, 62, 100
7, 48499, Note_on_c, 5, 62, 0
7, 48500, Note_on_c, 5, 61, 100
7, 48509, Note_on_c, 5, 61, 0
7, 48510, Note_on_c, 5, 62, 100
7, 48519, Note_on_c, 5, 62, 0
7, 48520, Note_on_c, 5, 61, 100
7, 48529, Note_on_c, 5, 61, 0
7, 48530, Note_on_c, 5, 62, 100
7, 48539, Note_on_c, 5, 62, 0
7, 48540, Note_on_c, 5, 61, 100
7, 48549, Note_on_c, 5, 61, 0
7, 48550, Note_on_c, 5, 62, 100
7, 48559, Note_on_c, 5, 62, 0
7, 48560, Note_on_c, 5, 61, 100
7, 48569, Note_on_c, 5, 61, 0
7, 48570, Note_on_c, 5, 62, 100
7, 48579, Note_on_c, 5, 62, 0
7, 48580, Note_on_c, 5, 61, 100
7, 48589, Note_on_c, 5, 61, 0
7, 48590, Note_on_c, 5, 62, 100
7, 48599, Note_on_c, 5, 62, 0
7, 48600, Note_on_c, 5, 61, 100
7, 48609, Note_on_c, 5, 61, 0
7, 48610, Note_on_c, 5, 62, 100
7, 48619, Note_on_c, 5, 62, 0
7, 48620, Note_on_c, 5, 61, 100
7, 48629, Note_on_c, 5, 61, 0
7, 48630, Note_on_c, 5, 62, 100
7, 48639, Note_on_c, 5, 62, 0
7, 48640, Note_on_c, 5, 61, 100
7, 48649, Note_on_c, 5, 61, 0
7, 48650, Note_on_c, 5, 62, 100
7, 48659, Note_on_c, 5, 62, 0
7, 48660, Note_on_c, 5, 61, 100
7, 48669, Note_on_c, 5, 61, 0
7, 48670, Note_on_c, 5, 62, 100
7, 48679, Note_on_c, 5, 62, 0
7, 48680, Note_on_c, 5, 61, 100
7, 48689, Note_on_c, 5, 61, 0
7, 48690, Note_on_c, 5, 62, 100
7, 48699, Note_on_c, 5, 62, 0
7, 48700, Note_on_c, 5, 61, 100
7, 48709, Note_on_c, 5, 61, 0
7, 48710, Note_on_c, 5, 62, 100
7, 48719, Note_on_c, 5, 62, 0
7, 48720, Note_on_c, 5, 61, 100
7, 48729, Note_on_c, 5, 61, 0
7, 48730, Note_on_c, 5, 62, 100
7, 48739, Note_on_c, 5, 62, 0
7, 48740, Note_on_c, 5, 61, 100
7, 48749, Note_on_c, 5, 61, 0
7, 48750, Note_on_c, 5, 62, 100
7, 48759, Note_on_c, 5, 62, 0
7, 48760, Note_on_c, 5, 61, 100
7, 48769, Note_on_c, 5, 61, 0
7, 48770, Note_on_c, 5, 62, 100
7, 48779, Note_on_c, 5, 62, 0
7, 48780, Note_on_c, 5, 61, 100
7, 48789, Note_on_c, 5, 61, 0
7, 48790, Note_on_c, 5, 62, 100
7, 48799, Note_on_c, 5, 62, 0
7, 48800, Note_on_c, 5, 61, 100
7, 48809, Note_on_c, 5, 61, 0
7, 48810, Note_on_c, 5, 62, 100
7, 48819, Note_on_c, 5, 62, 0
7, 48820, Note_on_c, 5, 61, 100
7, 48829, Note_on_c, 5, 61, 0
7, 48830, Note_on_c, 5, 62, 100
7, 48839, Note_on_c, 5, 62, 0
7, 48840, Note_on_c, 5, 61, 100
7, 48849, Note_on_c, 5, 61, 0
7, 48850, Note_on_c, 5, 62, 100
7, 48859, Note_on_c, 5, 62, 0
7, 48860, Note_on_c, 5, 61, 100
7, 48869, Note_on_c, 5, 61, 0
7, 48870, Note_on_c, 5, 62, 100
7, 48879, Note_on_c, 5, 62, 0
7, 48880, Note_on_c, 5, 61, 100
7, 48889, Note_on_c, 5, 61, 0
7, 48890, Note_on_c, 5, 62, 100
7, 48899, Note_on_c, 5, 62, 0
7, 48900, Note_on_c, 5, 61, 100
7, 48909, Note_on_c, 5, 61, 0
7, 48910, Note_on_c, 5, 62, 100
7, 48919, Note_on_c, 5, 62, 0
7, 48920, Note_on_c, 5, 61, 100
7, 48929, Note_on_c, 5, 61, 0
7, 48930, Note_on_c, 5, 62, 100
7, 48939, Note_on_c, 5, 62, 0
7, 48940, Note_on_c, 5, 61, 100
7, 48949, Note_on_c, 5, 61, 0
7, 48950, Note_on_c, 5, 62, 100
7, 48959, Note_on_c, 5, 62, 0
7, 48960, Note_on_c, 5, 61, 100
7, 48989, Note_on_c, 5, 61, 0
7, 48990, Note_on_c, 5, 64, 100
7, 49019, Note_on_c, 5, 64, 0
7, 49020, Note_on_c, 5, 57, 100
7, 49049, Note_on_c, 5, 57, 0
7, 49050, Note_on_c, 5, 61, 100
7, 49079, Note_on_c, 5, 61, 0
7, 49080, Note_on_c, 5, 62, 100
7, 49139, Note_on_c, 5, 62, 0
7, 49170, Note_on_c, 5, 55, 100
7, 49199, Note_on_c, 5, 55, 0
7, 49200, Note_on_c, 5, 57, 100
7, 49259, Note_on_c, 5, 57, 0
7, 49260, Note_on_c, 5, 45, 100
7, 49319, Note_on_c, 5, 45, 0
7, 49320, Note_on_c, 5, 38, 100
7, 49379, Note_on_c, 5, 38, 0
7, 49380, Note_on_c, 5, 50, 100
7, 49439, Note_on_c, 5, 50, 0
7, 49440, Note_on_c, 5, 52, 100
7, 49499, Note_on_c, 5, 52, 0
7, 49500, Note_on_c, 5, 53, 100
7, 49559, Note_on_c, 5, 53, 0
7, 49560, Note_on_c, 5, 53, 100
7, 49619, Note_on_c, 5, 53, 0
7, 49620, Note_on_c, 5, 55, 100
7, 49679, Note_on_c, 5, 55, 0
7, 49680, Note_on_c, 5, 57, 100
7, 49739, Note_on_c, 5, 57, 0
7, 49740, Note_on_c, 5, 57, 100
7, 49799, Note_on_c, 5, 57, 0
7, 49800, Note_on_c, 5, 58, 100
7, 49859, Note_on_c, 5, 58, 0
7, 49860, Note_on_c, 5, 57, 100
7, 49919, Note_on_c, 5, 57, 0
7, 49920, Note_on_c, 5, 55, 100
7, 49949, Note_on_c, 5, 55, 0
7, 49950, Note_on_c, 5, 53, 100
7, 49979, Note_on_c, 5, 53, 0
7, 49980, Note_on_c, 5, 52, 100
7, 50009, Note_on_c, 5, 52, 0
7, 50010, Note_on_c, 5, 50, 100
7, 50039, Note_on_c, 5, 50, 0
7, 50040, Note_on_c, 5, 49, 100
7, 50099, Note_on_c, 5, 49, 0
7, 50100, Note_on_c, 5, 45, 100
7, 50129, Note_on_c, 5, 45, 0
7, 50130, Note_on_c, 5, 47, 100
7, 50159, Note_on_c, 5, 47, 0
7, 50160, Note_on_c, 5, 49, 100
7, 50189, Note_on_c, 5, 49, 0
7, 50190, Note_on_c, 5, 50, 100
7, 50219, Note_on_c, 5, 50, 0
7, 50220, Note_on_c, 5, 52, 100
7, 50279, Note_on_c, 5, 52, 0
7, 50280, Note_on_c, 5, 52, 100
7, 50339, Note_on_c, 5, 52, 0
7, 50340, Note_on_c, 5, 53, 100
7, 50399, Note_on_c, 5, 53, 0
7, 50400, Note_on_c, 5, 52, 100
7, 50459, Note_on_c, 5, 52, 0
7, 50460, Note_on_c, 5, 45, 100
7, 50489, Note_on_c, 5, 45, 0
7, 50490, Note_on_c, 5, 47, 100
7, 50519, Note_on_c, 5, 47, 0
7, 50520, Note_on_c, 5, 49, 100
7, 50549, Note_on_c, 5, 49, 0
7, 50550, Note_on_c, 5, 50, 100
7, 50579, Note_on_c, 5, 50, 0
7, 50580, Note_on_c, 5, 52, 100
7, 50639, Note_on_c, 5, 52, 0
7, 50640, Note_on_c, 5, 52, 100
7, 50699, Note_on_c, 5, 52, 0
7, 50700, Note_on_c, 5, 53, 100
7, 50759, Note_on_c, 5, 53, 0
7, 50760, Note_on_c, 5, 52, 100
7, 50819, Note_on_c, 5, 52, 0
7, 50820, Note_on_c, 5, 45, 100
7, 50849, Note_on_c, 5, 45, 0
7, 50850, Note_on_c, 5, 47, 100
7, 50879, Note_on_c, 5, 47, 0
7, 50880, Note_on_c, 5, 49, 100
7, 50909, Note_on_c, 5, 49, 0
7, 50910, Note_on_c, 5, 50, 100
7, 50939, Note_on_c, 5, 50, 0
7, 50940, Note_on_c, 5, 52, 100
7, 50969, Note_on_c, 5, 52, 0
7, 50970, Note_on_c, 5, 50, 100
7, 50999, Note_on_c, 5, 50, 0
7, 51000, Note_on_c, 5, 49, 100
7, 51029, Note_on_c, 5, 49, 0
7, 51030, Note_on_c, 5, 50, 100
7, 51059, Note_on_c, 5, 50, 0
7, 51060, Note_on_c, 5, 52, 100
7, 51089, Note_on_c, 5, 52, 0
7, 51090, Note_on_c, 5, 53, 100
7, 51119, Note_on_c, 5, 53, 0
7, 51120, Note_on_c, 5, 55, 100
7, 51149, Note_on_c, 5, 55, 0
7, 51150, Note_on_c, 5, 53, 100
7, 51179, Note_on_c, 5, 53, 0
7, 51180, Note_on_c, 5, 52, 100
7, 51209, Note_on_c, 5, 52, 0
7, 51210, Note_on_c, 5, 53, 100
7, 51239, Note_on_c, 5, 53, 0
7, 51240, Note_on_c, 5, 55, 100
7, 51269, Note_on_c, 5, 55, 0
7, 51270, Note_on_c, 5, 57, 100
7, 51299, Note_on_c, 5, 57, 0
7, 51300, Note_on_c, 5, 58, 100
7, 51329, Note_on_c, 5, 58, 0
7, 51330, Note_on_c, 5, 57, 100
7, 51359, Note_on_c, 5, 57, 0
7, 51360, Note_on_c, 5, 55, 100
7, 51389, Note_on_c, 5, 55, 0
7, 51390, Note_on_c, 5, 53, 100
7, 51419, Note_on_c, 5, 53, 0
7, 51420, Note_on_c, 5, 52, 100
7, 51449, Note_on_c, 5, 52, 0
7, 51450, Note_on_c, 5, 50, 100
7, 51479, Note_on_c, 5, 50, 0
7, 51480, Note_on_c, 5, 49, 100
7, 51509, Note_on_c, 5, 49, 0
7, 51510, Note_on_c, 5, 52, 100
7, 51539, Note_on_c, 5, 52, 0
7, 51540, Note_on_c, 5, 45, 100
7, 51569, Note_on_c, 5, 45, 0
7, 51570, Note_on_c, 5, 49, 100
7, 51599, Note_on_c, 5, 49, 0
7, 51600, Note_on_c, 5, 50, 100
7, 51659, Note_on_c, 5, 50, 0
7, 51690, Note_on_c, 5, 43, 100
7, 51719, Note_on_c, 5, 43, 0
7, 51720, Note_on_c, 5, 45, 100
7, 51779, Note_on_c, 5, 45, 0
7, 51780, Note_on_c, 5, 45, 100
7, 51839, Note_on_c, 5, 45, 0
7, 51840, Note_on_c, 5, 38, 100
7, 51840, Note_on_c, 5, 50, 100
7, 52019, Note_on_c, 5, 50, 0
7, 52019, Note_on_c, 5, 38, 0
7, 52200, Note_on_c, 5, 53, 100
7, 52200, Note_on_c, 5, 60, 100
7, 52200, Note_on_c, 5, 57, 100
7, 52259, Note_on_c, 5, 57, 0
7, 52259, Note_on_c, 5, 60, 0
7, 52259, Note_on_c, 5, 53, 0
7, 52380, Note_on_c, 5, 58, 100
7, 52380, Note_on_c, 5, 55, 100
7, 52380, Note_on_c, 5, 64, 100
7, 52439, Note_on_c, 5, 64, 0
7, 52439, Note_on_c, 5, 55, 0
7, 52439, Note_on_c, 5, 58, 0
7, 52560, Note_on_c, 5, 53, 100
7, 52560, Note_on_c, 5, 60, 100
7, 52560, Note_on_c, 5, 65, 100
7, 52619, Note_on_c, 5, 65, 0
7, 52619, Note_on_c, 5, 60, 0
7, 52619, Note_on_c, 5, 53, 0
7, 52740, Note_on_c, 5, 53, 100
7, 52740, Note_on_c, 5, 57, 100
7, 52740, Note_on_c, 5, 60, 100
7, 52799, Note_on_c, 5, 60, 0
7, 52799, Note_on_c, 5, 57, 0
7, 52799, Note_on_c, 5, 53, 0
7, 52920, Note_on_c, 5, 53, 100
7, 52920, Note_on_c, 5, 62, 100
7, 52920, Note_on_c, 5, 59, 100
7, 52979, Note_on_c, 5, 59, 0
7, 52979, Note_on_c, 5, 62, 0
7, 52979, Note_on_c, 5, 53, 0
7, 53100, Note_on_c, 5, 54, 100
7, 53100, Note_on_c, 5, 57, 100
7, 53100, Note_on_c, 5, 60, 100
7, 53159, Note_on_c, 5, 60, 0
7, 53159, Note_on_c, 5, 57, 0
7, 53159, Note_on_c, 5, 54, 0
7, 53280, Note_on_c, 5, 62, 100
7, 53280, Note_on_c, 5, 55, 100
7, 53280, Note_on_c, 5, 67, 100
7, 53339, Note_on_c, 5, 67, 0
7, 53339, Note_on_c, 5, 55, 0
7, 53339, Note_on_c, 5, 62, 0
7, 53460, Note_on_c, 5, 55, 100
7, 53460, Note_on_c, 5, 59, 100
7, 53460, Note_on_c, 5, 62, 100
7, 53519, Note_on_c, 5, 62, 0
7, 53519, Note_on_c, 5, 59, 0
7, 53519, Note_on_c, 5, 55, 0
7, 53640, Note_on_c, 5, 56, 100
7, 53640, Note_on_c, 5, 59, 100
7, 53640, Note_on_c, 5, 62, 100
7, 53699, Note_on_c, 5, 62, 0
7, 53699, Note_on_c, 5, 59, 0
7, 53699, Note_on_c, 5, 56, 0
7, 53820, Note_on_c, 5, 69, 100
7, 53820, Note_on_c, 5, 60, 100
7, 53820, Note_on_c, 5, 57, 100
7, 53879, Note_on_c, 5, 57, 0
7, 53879, Note_on_c, 5, 60, 0
7, 53879, Note_on_c, 5, 69, 0
7, 54000, Note_on_c, 5, 60, 100
7, 54000, Note_on_c, 5, 52, 100
7, 54000, Note_on_c, 5, 55, 100
7, 54059, Note_on_c, 5, 55, 0
7, 54059, Note_on_c, 5, 52, 0
7, 54059, Note_on_c, 5, 60, 0
7, 54180, Note_on_c, 5, 63, 100
7, 54180, Note_on_c, 5, 60, 100
7, 54180, Note_on_c, 5, 54, 100
7, 54239, Note_on_c, 5, 54, 0
7, 54239, Note_on_c, 5, 60, 0
7, 54239, Note_on_c, 5, 63, 0
7, 54360, Note_on_c, 5, 63, 100
7, 54360, Note_on_c, 5, 60, 100
7, 54360, Note_on_c, 5, 55, 100
7, 54419, Note_on_c, 5, 55, 0
7, 54419, Note_on_c, 5, 60, 0
7, 54419, Note_on_c, 5, 63, 0
7, 54540, Note_on_c, 5, 65, 100
7, 54540, Note_on_c, 5, 62, 100
7, 54540, Note_on_c, 5, 55, 100
7, 54599, Note_on_c, 5, 55, 0
7, 54599, Note_on_c, 5, 62, 0
7, 54599, Note_on_c, 5, 65, 0
7, 54720, Note_on_c, 5, 60, 100
7, 54720, Note_on_c, 5, 64, 100
7, 54779, Note_on_c, 5, 64, 0
7, 54779, Note_on_c, 5, 60, 0
7, 54930, Note_on_c, 5, 62, 100
7, 54959, Note_on_c, 5, 62, 0
7, 54960, Note_on_c, 5, 60, 100
7, 54989, Note_on_c, 5, 60, 0
7, 54990, Note_on_c, 5, 58, 100
7, 55019, Note_on_c, 5, 58, 0
7, 55020, Note_on_c, 5, 57, 100
7, 55049, Note_on_c, 5, 57, 0
7, 55050, Note_on_c, 5, 55, 100
7, 55079, Note_on_c, 5, 55, 0
7, 55080, Note_on_c, 5, 53, 100
7, 55139, Note_on_c, 5, 53, 0
7, 55140, Note_on_c, 5, 53, 100
7, 55199, Note_on_c, 5, 53, 0
7, 55200, Note_on_c, 5, 53, 100
7, 55259, Note_on_c, 5, 53, 0
7, 55260, Note_on_c, 5, 53, 100
7, 55319, Note_on_c, 5, 53, 0
7, 55320, Note_on_c, 5, 53, 100
7, 55379, Note_on_c, 5, 53, 0
7, 55380, Note_on_c, 5, 53, 100
7, 55439, Note_on_c, 5, 53, 0
7, 55440, Note_on_c, 5, 53, 100
7, 55499, Note_on_c, 5, 53, 0
7, 55500, Note_on_c, 5, 53, 100
7, 55559, Note_on_c, 5, 53, 0
7, 55560, Note_on_c, 5, 53, 100
7, 55619, Note_on_c, 5, 53, 0
7, 55620, Note_on_c, 5, 53, 100
7, 55679, Note_on_c, 5, 53, 0
7, 55680, Note_on_c, 5, 53, 100
7, 55739, Note_on_c, 5, 53, 0
7, 55740, Note_on_c, 5, 53, 100
7, 55799, Note_on_c, 5, 53, 0
7, 55800, Note_on_c, 5, 53, 100
7, 55859, Note_on_c, 5, 53, 0
7, 55860, Note_on_c, 5, 53, 100
7, 55919, Note_on_c, 5, 53, 0
7, 55920, Note_on_c, 5, 53, 100
7, 55979, Note_on_c, 5, 53, 0
7, 55980, Note_on_c, 5, 54, 100
7, 56039, Note_on_c, 5, 54, 0
7, 56040, Note_on_c, 5, 54, 100
7, 56099, Note_on_c, 5, 54, 0
7, 56100, Note_on_c, 5, 54, 100
7, 56159, Note_on_c, 5, 54, 0
7, 56160, Note_on_c, 5, 55, 100
7, 56219, Note_on_c, 5, 55, 0
7, 56220, Note_on_c, 5, 55, 100
7, 56279, Note_on_c, 5, 55, 0
7, 56280, Note_on_c, 5, 55, 100
7, 56339, Note_on_c, 5, 55, 0
7, 56340, Note_on_c, 5, 55, 100
7, 56399, Note_on_c, 5, 55, 0
7, 56400, Note_on_c, 5, 55, 100
7, 56459, Note_on_c, 5, 55, 0
7, 56460, Note_on_c, 5, 55, 100
7, 56519, Note_on_c, 5, 55, 0
7, 56520, Note_on_c, 5, 56, 100
7, 56579, Note_on_c, 5, 56, 0
7, 56580, Note_on_c, 5, 56, 100
7, 56639, Note_on_c, 5, 56, 0
7, 56640, Note_on_c, 5, 56, 100
7, 56699, Note_on_c, 5, 56, 0
7, 56700, Note_on_c, 5, 57, 100
7, 56759, Note_on_c, 5, 57, 0
7, 56760, Note_on_c, 5, 57, 100
7, 56819, Note_on_c, 5, 57, 0
7, 56820, Note_on_c, 5, 57, 100
7, 56879, Note_on_c, 5, 57, 0
7, 56880, Note_on_c, 5, 52, 100
7, 56939, Note_on_c, 5, 52, 0
7, 56940, Note_on_c, 5, 52, 100
7, 56999, Note_on_c, 5, 52, 0
7, 57000, Note_on_c, 5, 52, 100
7, 57059, Note_on_c, 5, 52, 0
7, 57060, Note_on_c, 5, 54, 100
7, 57119, Note_on_c, 5, 54, 0
7, 57120, Note_on_c, 5, 54, 100
7, 57179, Note_on_c, 5, 54, 0
7, 57180, Note_on_c, 5, 54, 100
7, 57239, Note_on_c, 5, 54, 0
7, 57240, Note_on_c, 5, 55, 100
7, 57299, Note_on_c, 5, 55, 0
7, 57300, Note_on_c, 5, 55, 100
7, 57359, Note_on_c, 5, 55, 0
7, 57360, Note_on_c, 5, 55, 100
7, 57419, Note_on_c, 5, 55, 0
7, 57420, Note_on_c, 5, 43, 100
7, 57479, Note_on_c, 5, 43, 0
7, 57480, Note_on_c, 5, 43, 100
7, 57539, Note_on_c, 5, 43, 0
7, 57540, Note_on_c, 5, 43, 100
7, 57599, Note_on_c, 5, 43, 0
7, 57600, Note_on_c, 5, 43, 100
7, 57719, Note_on_c, 5, 43, 0
7, 57810, Note_on_c, 5, 62, 100
7, 57839, Note_on_c, 5, 62, 0
7, 57840, Note_on_c, 5, 60, 100
7, 57869, Note_on_c, 5, 60, 0
7, 57870, Note_on_c, 5, 58, 100
7, 57899, Note_on_c, 5, 58, 0
7, 57900, Note_on_c, 5, 57, 100
7, 57929, Note_on_c, 5, 57, 0
7, 57930, Note_on_c, 5, 55, 100
7, 57959, Note_on_c, 5, 55, 0
7, 57960, Note_on_c, 5, 57, 100
7, 57960, Note_on_c, 5, 60, 100
7, 58019, Note_on_c, 5, 60, 0
7, 58019, Note_on_c, 5, 57, 0
7, 58140, Note_on_c, 5, 55, 100
7, 58140, Note_on_c, 5, 63, 100
7, 58140, Note_on_c, 5, 67, 100
7, 58199, Note_on_c, 5, 67, 0
7, 58199, Note_on_c, 5, 63, 0
7, 58199, Note_on_c, 5, 55, 0
7, 58320, Note_on_c, 5, 54, 100
7, 58320, Note_on_c, 5, 62, 100
7, 58320, Note_on_c, 5, 57, 100
7, 58379, Note_on_c, 5, 57, 0
7, 58379, Note_on_c, 5, 62, 0
7, 58379, Note_on_c, 5, 54, 0
7, 58500, Note_on_c, 5, 62, 100
7, 58500, Note_on_c, 5, 54, 100
7, 58500, Note_on_c, 5, 50, 100
7, 58500, Note_on_c, 5, 57, 100
7, 58559, Note_on_c, 5, 57, 0
7, 58559, Note_on_c, 5, 62, 0
7, 58559, Note_on_c, 5, 54, 0
7, 58559, Note_on_c, 5, 50, 0
7, 58680, Note_on_c, 5, 55, 100
7, 58680, Note_on_c, 5, 58, 100
7, 58680, Note_on_c, 5, 62, 100
7, 58739, Note_on_c, 5, 62, 0
7, 58739, Note_on_c, 5, 58, 0
7, 58739, Note_on_c, 5, 55, 0
7, 58860, Note_on_c, 5, 48, 100
7, 58860, Note_on_c, 5, 55, 100
7, 58860, Note_on_c, 5, 60, 100
7, 58919, Note_on_c, 5, 60, 0
7, 58919, Note_on_c, 5, 55, 0
7, 58919, Note_on_c, 5, 48, 0
7, 59040, Note_on_c, 5, 54, 100
7, 59040, Note_on_c, 5, 50, 100
7, 59040, Note_on_c, 5, 57, 100
7, 59099, Note_on_c, 5, 57, 0
7, 59099, Note_on_c, 5, 50, 0
7, 59099, Note_on_c, 5, 54, 0
7, 59220, Note_on_c, 5, 60, 100
7, 59220, Note_on_c, 5, 57, 100
7, 59220, Note_on_c, 5, 54, 100
7, 59279, Note_on_c, 5, 54, 0
7, 59279, Note_on_c, 5, 57, 0
7, 59279, Note_on_c, 5, 60, 0
7, 59400, Note_on_c, 5, 67, 100
7, 59400, Note_on_c, 5, 62, 100
7, 59400, Note_on_c, 5, 55, 100
7, 59459, Note_on_c, 5, 55, 0
7, 59459, Note_on_c, 5, 62, 0
7, 59459, Note_on_c, 5, 67, 0
7, 59580, Note_on_c, 5, 67, 100
7, 59580, Note_on_c, 5, 62, 100
7, 59580, Note_on_c, 5, 58, 100
7, 59639, Note_on_c, 5, 58, 0
7, 59639, Note_on_c, 5, 62, 0
7, 59639, Note_on_c, 5, 67, 0
7, 59760, Note_on_c, 5, 69, 100
7, 59760, Note_on_c, 5, 64, 100
7, 59760, Note_on_c, 5, 57, 100
7, 59819, Note_on_c, 5, 57, 0
7, 59819, Note_on_c, 5, 64, 0
7, 59819, Note_on_c, 5, 69, 0
7, 59940, Note_on_c, 5, 57, 100
7, 59940, Note_on_c, 5, 52, 100
7, 59940, Note_on_c, 5, 49, 100
7, 59999, Note_on_c, 5, 49, 0
7, 59999, Note_on_c, 5, 52, 0
7, 59999, Note_on_c, 5, 57, 0
7, 60120, Note_on_c, 5, 57, 100
7, 60120, Note_on_c, 5, 53, 100
7, 60120, Note_on_c, 5, 50, 100
7, 60179, Note_on_c, 5, 50, 0
7, 60179, Note_on_c, 5, 53, 0
7, 60179, Note_on_c, 5, 57, 0
7, 60300, Note_on_c, 5, 57, 100
7, 60300, Note_on_c, 5, 52, 100
7, 60300, Note_on_c, 5, 45, 100
7, 60359, Note_on_c, 5, 45, 0
7, 60359, Note_on_c, 5, 52, 0
7, 60359, Note_on_c, 5, 57, 0
7, 60480, Note_on_c, 5, 57, 100
7, 60480, Note_on_c, 5, 53, 100
7, 60480, Note_on_c, 5, 50, 100
7, 60539, Note_on_c, 5, 50, 0
7, 60539, Note_on_c, 5, 53, 0
7, 60539, Note_on_c, 5, 57, 0
7, 60690, Note_on_c, 5, 57, 100
7, 60719, Note_on_c, 5, 57, 0
7, 60720, Note_on_c, 5, 62, 100
7, 60749, Note_on_c, 5, 62, 0
7, 60750, Note_on_c, 5, 65, 100
7, 60779, Note_on_c, 5, 65, 0
7, 60780, Note_on_c, 5, 62, 100
7, 60809, Note_on_c, 5, 62, 0
7, 60810, Note_on_c, 5, 57, 100
7, 60839, Note_on_c, 5, 57, 0
7, 60840, Note_on_c, 5, 59, 100
7, 60840, Note_on_c, 5, 62, 100
7, 60899, Note_on_c, 5, 62, 0
7, 60899, Note_on_c, 5, 59, 0
7, 61020, Note_on_c, 5, 59, 100
7, 61020, Note_on_c, 5, 62, 100
7, 61020, Note_on_c, 5, 67, 100
7, 61079, Note_on_c, 5, 67, 0
7, 61079, Note_on_c, 5, 62, 0
7, 61079, Note_on_c, 5, 59, 0
7, 61200, Note_on_c, 5, 58, 100
7, 61200, Note_on_c, 5, 60, 100
7, 61200, Note_on_c, 5, 67, 100
7, 61259, Note_on_c, 5, 67, 0
7, 61259, Note_on_c, 5, 60, 0
7, 61259, Note_on_c, 5, 58, 0
7, 61380, Note_on_c, 5, 58, 100
7, 61380, Note_on_c, 5, 64, 100
7, 61380, Note_on_c, 5, 67, 100
7, 61439, Note_on_c, 5, 67, 0
7, 61439, Note_on_c, 5, 64, 0
7, 61439, Note_on_c, 5, 58, 0
7, 61560, Note_on_c, 5, 57, 100
7, 61560, Note_on_c, 5, 60, 100
7, 61560, Note_on_c, 5, 65, 100
7, 61619, Note_on_c, 5, 65, 0
7, 61619, Note_on_c, 5, 60, 0
7, 61619, Note_on_c, 5, 57, 0
7, 61740, Note_on_c, 5, 57, 100
7, 61740, Note_on_c, 5, 60, 100
7, 61740, Note_on_c, 5, 65, 100
7, 61799, Note_on_c, 5, 65, 0
7, 61799, Note_on_c, 5, 60, 0
7, 61799, Note_on_c, 5, 57, 0
7, 61920, Note_on_c, 5, 58, 100
7, 61920, Note_on_c, 5, 62, 100
7, 61920, Note_on_c, 5, 65, 100
7, 61979, Note_on_c, 5, 65, 0
7, 61979, Note_on_c, 5, 62, 0
7, 61979, Note_on_c, 5, 58, 0
7, 62100, Note_on_c, 5, 58, 100
7, 62100, Note_on_c, 5, 65, 100
7, 62159, Note_on_c, 5, 65, 0
7, 62159, Note_on_c, 5, 58, 0
7, 62280, Note_on_c, 5, 52, 100
7, 62280, Note_on_c, 5, 55, 100
7, 62280, Note_on_c, 5, 60, 100
7, 62339, Note_on_c, 5, 60, 0
7, 62339, Note_on_c, 5, 55, 0
7, 62339, Note_on_c, 5, 52, 0
7, 62460, Note_on_c, 5, 52, 100
7, 62460, Note_on_c, 5, 55, 100
7, 62460, Note_on_c, 5, 60, 100
7, 62519, Note_on_c, 5, 60, 0
7, 62519, Note_on_c, 5, 55, 0
7, 62519, Note_on_c, 5, 52, 0
7, 62640, Note_on_c, 5, 53, 100
7, 62640, Note_on_c, 5, 57, 100
7, 62640, Note_on_c, 5, 60, 100
7, 62699, Note_on_c, 5, 60, 0
7, 62699, Note_on_c, 5, 57, 0
7, 62699, Note_on_c, 5, 53, 0
7, 62820, Note_on_c, 5, 53, 100
7, 62820, Note_on_c, 5, 60, 100
7, 62820, Note_on_c, 5, 57, 100
7, 62879, Note_on_c, 5, 57, 0
7, 62879, Note_on_c, 5, 60, 0
7, 62879, Note_on_c, 5, 53, 0
7, 63000, Note_on_c, 5, 59, 100
7, 63000, Note_on_c, 5, 50, 100
7, 63000, Note_on_c, 5, 53, 100
7, 63059, Note_on_c, 5, 53, 0
7, 63059, Note_on_c, 5, 50, 0
7, 63059, Note_on_c, 5, 59, 0
7, 63180, Note_on_c, 5, 55, 100
7, 63180, Note_on_c, 5, 47, 100
7, 63180, Note_on_c, 5, 50, 100
7, 63239, Note_on_c, 5, 50, 0
7, 63239, Note_on_c, 5, 47, 0
7, 63239, Note_on_c, 5, 55, 0
7, 63360, Note_on_c, 5, 48, 100
7, 63360, Note_on_c, 5, 55, 100
7, 63360, Note_on_c, 5, 60, 100
7, 63419, Note_on_c, 5, 60, 0
7, 63419, Note_on_c, 5, 55, 0
7, 63419, Note_on_c, 5, 48, 0
7, 63540, Note_on_c, 5, 48, 100
7, 63540, Note_on_c, 5, 52, 100
7, 63540, Note_on_c, 5, 55, 100
7, 63599, Note_on_c, 5, 55, 0
7, 63599, Note_on_c, 5, 52, 0
7, 63599, Note_on_c, 5, 48, 0
7, 63720, Note_on_c, 5, 48, 100
7, 63720, Note_on_c, 5, 52, 100
7, 63720, Note_on_c, 5, 55, 100
7, 63779, Note_on_c, 5, 55, 0
7, 63779, Note_on_c, 5, 52, 0
7, 63779, Note_on_c, 5, 48, 0
7, 63900, Note_on_c, 5, 59, 100
7, 63900, Note_on_c, 5, 53, 100
7, 63900, Note_on_c, 5, 50, 100
7, 63900, Note_on_c, 5, 48, 100
7, 63959, Note_on_c, 5, 48, 0
7, 63959, Note_on_c, 5, 59, 0
7, 63959, Note_on_c, 5, 53, 0
7, 63959, Note_on_c, 5, 50, 0
7, 64080, Note_on_c, 5, 60, 100
7, 64080, Note_on_c, 5, 55, 100
7, 64080, Note_on_c, 5, 48, 100
7, 64139, Note_on_c, 5, 48, 0
7, 64139, Note_on_c, 5, 55, 0
7, 64139, Note_on_c, 5, 60, 0
7, 64260, Note_on_c, 5, 55, 100
7, 64260, Note_on_c, 5, 52, 100
7, 64260, Note_on_c, 5, 48, 100
7, 64319, Note_on_c, 5, 48, 0
7, 64319, Note_on_c, 5, 52, 0
7, 64319, Note_on_c, 5, 55, 0
7, 64440, Note_on_c, 5, 57, 100
7, 64440, Note_on_c, 5, 53, 100
7, 64440, Note_on_c, 5, 48, 100
7, 64499, Note_on_c, 5, 48, 0
7, 64499, Note_on_c, 5, 53, 0
7, 64499, Note_on_c, 5, 57, 0
7, 64620, Note_on_c, 5, 55, 100
7, 64620, Note_on_c, 5, 52, 100
7, 64620, Note_on_c, 5, 48, 100
7, 64679, Note_on_c, 5, 48, 0
7, 64679, Note_on_c, 5, 52, 0
7, 64679, Note_on_c, 5, 55, 0
7, 64800, Note_on_c, 5, 58, 100
7, 64800, Note_on_c, 5, 48, 100
7, 64800, Note_on_c, 5, 52, 100
7, 64859, Note_on_c, 5, 52, 0
7, 64859, Note_on_c, 5, 48, 0
7, 64859, Note_on_c, 5, 58, 0
7, 64980, Note_on_c, 5, 48, 100
7, 64980, Note_on_c, 5, 56, 100
7, 64980, Note_on_c, 5, 53, 100
7, 65039, Note_on_c, 5, 53, 0
7, 65039, Note_on_c, 5, 56, 0
7, 65039, Note_on_c, 5, 48, 0
7, 65160, Note_on_c, 5, 58, 100
7, 65160, Note_on_c, 5, 48, 100
7, 65219, Note_on_c, 5, 48, 0
7, 65219, Note_on_c, 5, 58, 0
7, 65340, Note_on_c, 5, 48, 100
7, 65340, Note_on_c, 5, 52, 100
7, 65340, Note_on_c, 5, 55, 100
7, 65399, Note_on_c, 5, 55, 0
7, 65399, Note_on_c, 5, 52, 0
7, 65399, Note_on_c, 5, 48, 0
7, 65520, Note_on_c, 5, 60, 100
7, 65520, Note_on_c, 5, 56, 100
7, 65520, Note_on_c, 5, 49, 100
7, 65579, Note_on_c, 5, 49, 0
7, 65579, Note_on_c, 5, 56, 0
7, 65579, Note_on_c, 5, 60, 0
7, 65700, Note_on_c, 5, 59, 100
7, 65700, Note_on_c, 5, 53, 100
7, 65700, Note_on_c, 5, 50, 100
7, 65759, Note_on_c, 5, 50, 0
7, 65759, Note_on_c, 5, 53, 0
7, 65759, Note_on_c, 5, 59, 0
7, 65880, Note_on_c, 5, 60, 100
7, 65880, Note_on_c, 5, 55, 100
7, 65880, Note_on_c, 5, 52, 100
7, 65939, Note_on_c, 5, 52, 0
7, 65939, Note_on_c, 5, 55, 0
7, 65939, Note_on_c, 5, 60, 0
7, 66000, Note_on_c, 5, 60, 100
7, 66000, Note_on_c, 5, 53, 100
7, 66059, Note_on_c, 5, 53, 0
7, 66059, Note_on_c, 5, 60, 0
7, 66060, Note_on_c, 5, 58, 100
7, 66060, Note_on_c, 5, 62, 100
7, 66119, Note_on_c, 5, 62, 0
7, 66119, Note_on_c, 5, 58, 0
7, 66120, Note_on_c, 5, 60, 100
7, 66179, Note_on_c, 5, 60, 0
7, 66180, Note_on_c, 5, 58, 100
7, 66180, Note_on_c, 5, 48, 100
7, 66239, Note_on_c, 5, 48, 0
7, 66239, Note_on_c, 5, 58, 0
7, 66240, Note_on_c, 5, 53, 100
7, 66240, Note_on_c, 5, 57, 100
7, 66299, Note_on_c, 5, 57, 0
7, 66299, Note_on_c, 5, 53, 0
7, 66450, Note_on_c, 5, 65, 100
7, 66479, Note_on_c, 5, 65, 0
7, 66480, Note_on_c, 5, 64, 100
7, 66509, Note_on_c, 5, 64, 0
7, 66510, Note_on_c, 5, 62, 100
7, 66539, Note_on_c, 5, 62, 0
7, 66540, Note_on_c, 5, 60, 100
7, 66569, Note_on_c, 5, 60, 0
7, 66570, Note_on_c, 5, 58, 100
7, 66599, Note_on_c, 5, 58, 0
7, 66600, Note_on_c, 5, 57, 100
7, 66659, Note_on_c, 5, 57, 0
7, 66660, Note_on_c, 5, 57, 100
7, 66719, Note_on_c, 5, 57, 0
7, 66720, Note_on_c, 5, 57, 100
7, 66779, Note_on_c, 5, 57, 0
7, 66780, Note_on_c, 5, 55, 100
7, 66839, Note_on_c, 5, 55, 0
7, 66840, Note_on_c, 5, 55, 100
7, 66899, Note_on_c, 5, 55, 0
7, 66900, Note_on_c, 5, 55, 100
7, 66959, Note_on_c, 5, 55, 0
7, 66960, Note_on_c, 5, 54, 100
7, 67019, Note_on_c, 5, 54, 0
7, 67020, Note_on_c, 5, 54, 100
7, 67079, Note_on_c, 5, 54, 0
7, 67080, Note_on_c, 5, 54, 100
7, 67139, Note_on_c, 5, 54, 0
7, 67140, Note_on_c, 5, 50, 100
7, 67199, Note_on_c, 5, 50, 0
7, 67200, Note_on_c, 5, 50, 100
7, 67259, Note_on_c, 5, 50, 0
7, 67260, Note_on_c, 5, 50, 100
7, 67319, Note_on_c, 5, 50, 0
7, 67320, Note_on_c, 5, 55, 100
7, 67379, Note_on_c, 5, 55, 0
7, 67380, Note_on_c, 5, 55, 100
7, 67439, Note_on_c, 5, 55, 0
7, 67440, Note_on_c, 5, 55, 100
7, 67499, Note_on_c, 5, 55, 0
7, 67500, Note_on_c, 5, 48, 100
7, 67559, Note_on_c, 5, 48, 0
7, 67560, Note_on_c, 5, 48, 100
7, 67619, Note_on_c, 5, 48, 0
7, 67620, Note_on_c, 5, 48, 100
7, 67679, Note_on_c, 5, 48, 0
7, 67680, Note_on_c, 5, 50, 100
7, 67739, Note_on_c, 5, 50, 0
7, 67740, Note_on_c, 5, 50, 100
7, 67799, Note_on_c, 5, 50, 0
7, 67800, Note_on_c, 5, 50, 100
7, 67859, Note_on_c, 5, 50, 0
7, 67860, Note_on_c, 5, 54, 100
7, 67919, Note_on_c, 5, 54, 0
7, 67920, Note_on_c, 5, 54, 100
7, 67979, Note_on_c, 5, 54, 0
7, 67980, Note_on_c, 5, 54, 100
7, 68039, Note_on_c, 5, 54, 0
7, 68040, Note_on_c, 5, 55, 100
7, 68099, Note_on_c, 5, 55, 0
7, 68100, Note_on_c, 5, 55, 100
7, 68159, Note_on_c, 5, 55, 0
7, 68160, Note_on_c, 5, 55, 100
7, 68219, Note_on_c, 5, 55, 0
7, 68220, Note_on_c, 5, 58, 100
7, 68279, Note_on_c, 5, 58, 0
7, 68280, Note_on_c, 5, 58, 100
7, 68339, Note_on_c, 5, 58, 0
7, 68340, Note_on_c, 5, 58, 100
7, 68399, Note_on_c, 5, 58, 0
7, 68400, Note_on_c, 5, 57, 100
7, 68459, Note_on_c, 5, 57, 0
7, 68460, Note_on_c, 5, 57, 100
7, 68519, Note_on_c, 5, 57, 0
7, 68520, Note_on_c, 5, 57, 100
7, 68579, Note_on_c, 5, 57, 0
7, 68580, Note_on_c, 5, 49, 100
7, 68639, Note_on_c, 5, 49, 0
7, 68640, Note_on_c, 5, 49, 100
7, 68699, Note_on_c, 5, 49, 0
7, 68700, Note_on_c, 5, 49, 100
7, 68759, Note_on_c, 5, 49, 0
7, 68760, Note_on_c, 5, 50, 100
7, 68819, Note_on_c, 5, 50, 0
7, 68820, Note_on_c, 5, 50, 100
7, 68879, Note_on_c, 5, 50, 0
7, 68880, Note_on_c, 5, 50, 100
7, 68939, Note_on_c, 5, 50, 0
7, 68940, Note_on_c, 5, 45, 100
7, 68999, Note_on_c, 5, 45, 0
7, 69000, Note_on_c, 5, 45, 100
7, 69059, Note_on_c, 5, 45, 0
7, 69060, Note_on_c, 5, 45, 100
7, 69119, Note_on_c, 5, 45, 0
7, 69120, Note_on_c, 5, 50, 100
7, 69330, Note_on_c, 5, 50, 0
7, 69330, Note_on_c, 5, 57, 100
7, 69359, Note_on_c, 5, 57, 0
7, 69360, Note_on_c, 5, 53, 100
7, 69389, Note_on_c, 5, 53, 0
7, 69390, Note_on_c, 5, 55, 100
7, 69419, Note_on_c, 5, 55, 0
7, 69420, Note_on_c, 5, 57, 100
7, 69449, Note_on_c, 5, 57, 0
7, 69450, Note_on_c, 5, 53, 100
7, 69479, Note_on_c, 5, 53, 0
7, 69480, Note_on_c, 5, 47, 100
7, 69539, Note_on_c, 5, 47, 0
7, 69540, Note_on_c, 5, 47, 100
7, 69599, Note_on_c, 5, 47, 0
7, 69600, Note_on_c, 5, 47, 100
7, 69659, Note_on_c, 5, 47, 0
7, 69660, Note_on_c, 5, 47, 100
7, 69719, Note_on_c, 5, 47, 0
7, 69720, Note_on_c, 5, 47, 100
7, 69779, Note_on_c, 5, 47, 0
7, 69780, Note_on_c, 5, 47, 100
7, 69839, Note_on_c, 5, 47, 0
7, 69840, Note_on_c, 5, 46, 100
7, 69899, Note_on_c, 5, 46, 0
7, 69900, Note_on_c, 5, 46, 100
7, 69959, Note_on_c, 5, 46, 0
7, 69960, Note_on_c, 5, 46, 100
7, 70019, Note_on_c, 5, 46, 0
7, 70020, Note_on_c, 5, 46, 100
7, 70079, Note_on_c, 5, 46, 0
7, 70080, Note_on_c, 5, 46, 100
7, 70139, Note_on_c, 5, 46, 0
7, 70140, Note_on_c, 5, 46, 100
7, 70199, Note_on_c, 5, 46, 0
7, 70200, Note_on_c, 5, 45, 100
7, 70259, Note_on_c, 5, 45, 0
7, 70260, Note_on_c, 5, 45, 100
7, 70319, Note_on_c, 5, 45, 0
7, 70320, Note_on_c, 5, 45, 100
7, 70379, Note_on_c, 5, 45, 0
7, 70380, Note_on_c, 5, 41, 100
7, 70439, Note_on_c, 5, 41, 0
7, 70440, Note_on_c, 5, 41, 100
7, 70499, Note_on_c, 5, 41, 0
7, 70500, Note_on_c, 5, 41, 100
7, 70559, Note_on_c, 5, 41, 0
7, 70560, Note_on_c, 5, 46, 100
7, 70619, Note_on_c, 5, 46, 0
7, 70620, Note_on_c, 5, 46, 100
7, 70679, Note_on_c, 5, 46, 0
7, 70680, Note_on_c, 5, 46, 100
7, 70739, Note_on_c, 5, 46, 0
7, 70740, Note_on_c, 5, 50, 100
7, 70799, Note_on_c, 5, 50, 0
7, 70800, Note_on_c, 5, 50, 100
7, 70859, Note_on_c, 5, 50, 0
7, 70860, Note_on_c, 5, 50, 100
7, 70919, Note_on_c, 5, 50, 0
7, 70920, Note_on_c, 5, 52, 100
7, 70979, Note_on_c, 5, 52, 0
7, 70980, Note_on_c, 5, 52, 100
7, 71039, Note_on_c, 5, 52, 0
7, 71040, Note_on_c, 5, 52, 100
7, 71099, Note_on_c, 5, 52, 0
7, 71100, Note_on_c, 5, 48, 100
7, 71159, Note_on_c, 5, 48, 0
7, 71160, Note_on_c, 5, 48, 100
7, 71219, Note_on_c, 5, 48, 0
7, 71220, Note_on_c, 5, 48, 100
7, 71279, Note_on_c, 5, 48, 0
7, 71280, Note_on_c, 5, 53, 100
7, 71339, Note_on_c, 5, 53, 0
7, 71340, Note_on_c, 5, 53, 100
7, 71399, Note_on_c, 5, 53, 0
7, 71400, Note_on_c, 5, 53, 100
7, 71459, Note_on_c, 5, 53, 0
7, 71460, Note_on_c, 5, 57, 100
7, 71519, Note_on_c, 5, 57, 0
7, 71520, Note_on_c, 5, 57, 100
7, 71579, Note_on_c, 5, 57, 0
7, 71580, Note_on_c, 5, 57, 100
7, 71639, Note_on_c, 5, 57, 0
7, 71640, Note_on_c, 5, 47, 100
7, 71699, Note_on_c, 5, 47, 0
7, 71700, Note_on_c, 5, 47, 100
7, 71759, Note_on_c, 5, 47, 0
7, 71760, Note_on_c, 5, 47, 100
7, 71819, Note_on_c, 5, 47, 0
7, 71820, Note_on_c, 5, 43, 100
7, 71879, Note_on_c, 5, 43, 0
7, 71880, Note_on_c, 5, 43, 100
7, 71939, Note_on_c, 5, 43, 0
7, 71940, Note_on_c, 5, 43, 100
7, 71999, Note_on_c, 5, 43, 0
7, 72000, Note_on_c, 5, 48, 100
7, 72059, Note_on_c, 5, 48, 0
7, 72060, Note_on_c, 5, 48, 100
7, 72119, Note_on_c, 5, 48, 0
7, 72120, Note_on_c, 5, 48, 100
7, 72179, Note_on_c, 5, 48, 0
7, 72180, Note_on_c, 5, 48, 100
7, 72239, Note_on_c, 5, 48, 0
7, 72240, Note_on_c, 5, 48, 100
7, 72299, Note_on_c, 5, 48, 0
7, 72300, Note_on_c, 5, 48, 100
7, 72359, Note_on_c, 5, 48, 0
7, 72360, Note_on_c, 5, 48, 100
7, 72419, Note_on_c, 5, 48, 0
7, 72420, Note_on_c, 5, 48, 100
7, 72479, Note_on_c, 5, 48, 0
7, 72480, Note_on_c, 5, 48, 100
7, 72539, Note_on_c, 5, 48, 0
7, 72540, Note_on_c, 5, 48, 100
7, 72599, Note_on_c, 5, 48, 0
7, 72600, Note_on_c, 5, 48, 100
7, 72659, Note_on_c, 5, 48, 0
7, 72660, Note_on_c, 5, 48, 100
7, 72719, Note_on_c, 5, 48, 0
7, 72720, Note_on_c, 5, 48, 100
7, 72779, Note_on_c, 5, 48, 0
7, 72780, Note_on_c, 5, 48, 100
7, 72839, Note_on_c, 5, 48, 0
7, 72840, Note_on_c, 5, 48, 100
7, 72899, Note_on_c, 5, 48, 0
7, 72900, Note_on_c, 5, 48, 100
7, 72959, Note_on_c, 5, 48, 0
7, 72960, Note_on_c, 5, 48, 100
7, 73019, Note_on_c, 5, 48, 0
7, 73020, Note_on_c, 5, 48, 100
7, 73079, Note_on_c, 5, 48, 0
7, 73080, Note_on_c, 5, 48, 100
7, 73139, Note_on_c, 5, 48, 0
7, 73140, Note_on_c, 5, 48, 100
7, 73199, Note_on_c, 5, 48, 0
7, 73200, Note_on_c, 5, 48, 100
7, 73259, Note_on_c, 5, 48, 0
7, 73260, Note_on_c, 5, 48, 100
7, 73319, Note_on_c, 5, 48, 0
7, 73320, Note_on_c, 5, 48, 100
7, 73379, Note_on_c, 5, 48, 0
7, 73380, Note_on_c, 5, 48, 100
7, 73439, Note_on_c, 5, 48, 0
7, 73440, Note_on_c, 5, 48, 100
7, 73499, Note_on_c, 5, 48, 0
7, 73500, Note_on_c, 5, 48, 100
7, 73559, Note_on_c, 5, 48, 0
7, 73560, Note_on_c, 5, 48, 100
7, 73619, Note_on_c, 5, 48, 0
7, 73620, Note_on_c, 5, 48, 100
7, 73679, Note_on_c, 5, 48, 0
7, 73680, Note_on_c, 5, 48, 100
7, 73739, Note_on_c, 5, 48, 0
7, 73740, Note_on_c, 5, 48, 100
7, 73799, Note_on_c, 5, 48, 0
7, 73800, Note_on_c, 5, 48, 100
7, 73859, Note_on_c, 5, 48, 0
7, 73860, Note_on_c, 5, 48, 100
7, 73919, Note_on_c, 5, 48, 0
7, 73920, Note_on_c, 5, 48, 100
7, 73979, Note_on_c, 5, 48, 0
7, 73980, Note_on_c, 5, 48, 100
7, 74039, Note_on_c, 5, 48, 0
7, 74040, Note_on_c, 5, 48, 100
7, 74099, Note_on_c, 5, 48, 0
7, 74100, Note_on_c, 5, 48, 100
7, 74159, Note_on_c, 5, 48, 0
7, 74160, Note_on_c, 5, 49, 100
7, 74219, Note_on_c, 5, 49, 0
7, 74220, Note_on_c, 5, 49, 100
7, 74279, Note_on_c, 5, 49, 0
7, 74280, Note_on_c, 5, 49, 100
7, 74339, Note_on_c, 5, 49, 0
7, 74340, Note_on_c, 5, 50, 100
7, 74399, Note_on_c, 5, 50, 0
7, 74400, Note_on_c, 5, 50, 100
7, 74459, Note_on_c, 5, 50, 0
7, 74460, Note_on_c, 5, 50, 100
7, 74519, Note_on_c, 5, 50, 0
7, 74520, Note_on_c, 5, 52, 100
7, 74579, Note_on_c, 5, 52, 0
7, 74580, Note_on_c, 5, 52, 100
7, 74639, Note_on_c, 5, 52, 0
7, 74640, Note_on_c, 5, 53, 100
7, 74699, Note_on_c, 5, 53, 0
7, 74700, Note_on_c, 5, 58, 100
7, 74759, Note_on_c, 5, 58, 0
7, 74760, Note_on_c, 5, 60, 100
7, 74819, Note_on_c, 5, 60, 0
7, 74820, Note_on_c, 5, 48, 100
7, 74879, Note_on_c, 5, 48, 0
7, 74880, Note_on_c, 5, 53, 100
7, 75090, Note_on_c, 5, 53, 0
7, 75090, Note_on_c, 5, 48, 100
7, 75119, Note_on_c, 5, 48, 0
7, 75120, Note_on_c, 5, 45, 100
7, 75149, Note_on_c, 5, 45, 0
7, 75150, Note_on_c, 5, 48, 100
7, 75179, Note_on_c, 5, 48, 0
7, 75180, Note_on_c, 5, 41, 100
7, 75239, Note_on_c, 5, 41, 0
7, 75780, Note_on_c, 5, 57, 100
7, 75789, Note_on_c, 5, 57, 0
7, 75790, Note_on_c, 5, 62, 100
7, 75799, Note_on_c, 5, 62, 0
7, 75800, Note_on_c, 5, 60, 100
7, 75809, Note_on_c, 5, 60, 0
7, 75810, Note_on_c, 5, 58, 100
7, 75819, Note_on_c, 5, 58, 0
7, 75820, Note_on_c, 5, 57, 100
7, 75829, Note_on_c, 5, 57, 0
7, 75830, Note_on_c, 5, 55, 100
7, 75839, Note_on_c, 5, 55, 0
7, 75840, Note_on_c, 5, 53, 100
7, 75849, Note_on_c, 5, 53, 0
7, 75850, Note_on_c, 5, 58, 100
7, 75859, Note_on_c, 5, 58, 0
7, 75860, Note_on_c, 5, 57, 100
7, 75869, Note_on_c, 5, 57, 0
7, 75870, Note_on_c, 5, 55, 100
7, 75879, Note_on_c, 5, 55, 0
7, 75880, Note_on_c, 5, 53, 100
7, 75889, Note_on_c, 5, 53, 0
7, 75890, Note_on_c, 5, 52, 100
7, 75899, Note_on_c, 5, 52, 0
7, 75900, Note_on_c, 5, 50, 100
7, 75909, Note_on_c, 5, 50, 0
7, 75910, Note_on_c, 5, 53, 100
7, 75919, Note_on_c, 5, 53, 0
7, 75920, Note_on_c, 5, 52, 100
7, 75929, Note_on_c, 5, 52, 0
7, 75930, Note_on_c, 5, 50, 100
7, 75939, Note_on_c, 5, 50, 0
7, 75940, Note_on_c, 5, 49, 100
7, 75949, Note_on_c, 5, 49, 0
7, 75950, Note_on_c, 5, 50, 100
7, 75959, Note_on_c, 5, 50, 0
7, 75960, Note_on_c, 5, 46, 100
7, 76319, Note_on_c, 5, 46, 0
7, 76320, Note_on_c, 5, 45, 100
7, 76679, Note_on_c, 5, 45, 0
7, 78000, Note_on_c, 5, 57, 100
7, 78059, Note_on_c, 5, 57, 0
7, 78120, Note_on_c, 5, 59, 100
7, 78179, Note_on_c, 5, 59, 0
7, 78240, Note_on_c, 5, 60, 100
7, 78299, Note_on_c, 5, 60, 0
7, 78360, Note_on_c, 5, 62, 100
7, 78419, Note_on_c, 5, 62, 0
7, 78480, Note_on_c, 5, 64, 100
7, 78539, Note_on_c, 5, 64, 0
7, 78540, Note_on_c, 5, 65, 100
7, 78599, Note_on_c, 5, 65, 0
7, 78600, Note_on_c, 5, 62, 100
7, 78659, Note_on_c, 5, 62, 0
7, 78660, Note_on_c, 5, 64, 100
7, 78719, Note_on_c, 5, 64, 0
7, 78720, Note_on_c, 5, 57, 100
7, 78779, Note_on_c, 5, 57, 0
7, 78780, Note_on_c, 5, 64, 100
7, 78839, Note_on_c, 5, 64, 0
7, 78840, Note_on_c, 5, 69, 100
7, 78899, Note_on_c, 5, 69, 0
7, 78900, Note_on_c, 5, 57, 100
7, 78959, Note_on_c, 5, 57, 0
7, 78960, Note_on_c, 5, 62, 100
7, 79019, Note_on_c, 5, 62, 0
7, 79020, Note_on_c, 5, 60, 100
7, 79079, Note_on_c, 5, 60, 0
7, 79080, Note_on_c, 5, 58, 100
7, 79139, Note_on_c, 5, 58, 0
7, 79140, Note_on_c, 5, 57, 100
7, 79199, Note_on_c, 5, 57, 0
7, 79200, Note_on_c, 5, 55, 100
7, 79259, Note_on_c, 5, 55, 0
7, 79260, Note_on_c, 5, 62, 100
7, 79319, Note_on_c, 5, 62, 0
7, 79320, Note_on_c, 5, 67, 100
7, 79379, Note_on_c, 5, 67, 0
7, 79380, Note_on_c, 5, 55, 100
7, 79439, Note_on_c, 5, 55, 0
7, 79440, Note_on_c, 5, 60, 100
7, 79499, Note_on_c, 5, 60, 0
7, 79500, Note_on_c, 5, 58, 100
7, 79559, Note_on_c, 5, 58, 0
7, 79560, Note_on_c, 5, 57, 100
7, 79619, Note_on_c, 5, 57, 0
7, 79620, Note_on_c, 5, 55, 100
7, 79679, Note_on_c, 5, 55, 0
7, 79680, Note_on_c, 5, 53, 100
7, 79739, Note_on_c, 5, 53, 0
7, 79740, Note_on_c, 5, 65, 100
7, 79799, Note_on_c, 5, 65, 0
7, 79800, Note_on_c, 5, 62, 100
7, 79859, Note_on_c, 5, 62, 0
7, 79860, Note_on_c, 5, 64, 100
7, 79919, Note_on_c, 5, 64, 0
7, 79920, Note_on_c, 5, 61, 100
7, 79979, Note_on_c, 5, 61, 0
7, 79980, Note_on_c, 5, 62, 100
7, 80039, Note_on_c, 5, 62, 0
7, 80040, Note_on_c, 5, 59, 100
7, 80099, Note_on_c, 5, 59, 0
7, 80100, Note_on_c, 5, 61, 100
7, 80159, Note_on_c, 5, 61, 0
7, 80190, Note_on_c, 5, 62, 100
7, 80219, Note_on_c, 5, 62, 0
7, 80220, Note_on_c, 5, 61, 100
7, 80249, Note_on_c, 5, 61, 0
7, 80250, Note_on_c, 5, 62, 100
7, 80279, Note_on_c, 5, 62, 0
7, 80310, Note_on_c, 5, 58, 100
7, 80339, Note_on_c, 5, 58, 0
7, 80340, Note_on_c, 5, 57, 100
7, 80369, Note_on_c, 5, 57, 0
7, 80370, Note_on_c, 5, 55, 100
7, 80399, Note_on_c, 5, 55, 0
7, 80400, Note_on_c, 5, 53, 100
7, 80429, Note_on_c, 5, 53, 0
7, 80430, Note_on_c, 5, 62, 100
7, 80459, Note_on_c, 5, 62, 0
7, 80460, Note_on_c, 5, 61, 100
7, 80489, Note_on_c, 5, 61, 0
7, 80490, Note_on_c, 5, 62, 100
7, 80519, Note_on_c, 5, 62, 0
7, 80520, Note_on_c, 5, 58, 100
7, 80549, Note_on_c, 5, 58, 0
7, 80550, Note_on_c, 5, 57, 100
7, 80579, Note_on_c, 5, 57, 0
7, 80580, Note_on_c, 5, 58, 100
7, 80609, Note_on_c, 5, 58, 0
7, 80610, Note_on_c, 5, 55, 100
7, 80639, Note_on_c, 5, 55, 0
7, 80640, Note_on_c, 5, 62, 100
7, 80669, Note_on_c, 5, 62, 0
7, 80670, Note_on_c, 5, 57, 100
7, 80699, Note_on_c, 5, 57, 0
7, 80700, Note_on_c, 5, 55, 100
7, 80729, Note_on_c, 5, 55, 0
7, 80730, Note_on_c, 5, 53, 100
7, 80759, Note_on_c, 5, 53, 0
7, 80760, Note_on_c, 5, 52, 100
7, 80789, Note_on_c, 5, 52, 0
7, 80790, Note_on_c, 5, 58, 100
7, 80819, Note_on_c, 5, 58, 0
7, 80820, Note_on_c, 5, 57, 100
7, 80849, Note_on_c, 5, 57, 0
7, 80850, Note_on_c, 5, 55, 100
7, 80879, Note_on_c, 5, 55, 0
7, 80880, Note_on_c, 5, 53, 100
7, 80909, Note_on_c, 5, 53, 0
7, 80910, Note_on_c, 5, 57, 100
7, 80939, Note_on_c, 5, 57, 0
7, 80940, Note_on_c, 5, 62, 100
7, 81029, Note_on_c, 5, 62, 0
7, 81030, Note_on_c, 5, 58, 100
7, 81059, Note_on_c, 5, 58, 0
7, 81060, Note_on_c, 5, 57, 100
7, 81089, Note_on_c, 5, 57, 0
7, 81090, Note_on_c, 5, 55, 100
7, 81119, Note_on_c, 5, 55, 0
7, 81120, Note_on_c, 5, 57, 100
7, 81149, Note_on_c, 5, 57, 0
7, 81150, Note_on_c, 5, 53, 100
7, 81179, Note_on_c, 5, 53, 0
7, 81180, Note_on_c, 5, 52, 100
7, 81209, Note_on_c, 5, 52, 0
7, 81210, Note_on_c, 5, 50, 100
7, 81239, Note_on_c, 5, 50, 0
7, 81240, Note_on_c, 5, 59, 100
7, 81269, Note_on_c, 5, 59, 0
7, 81270, Note_on_c, 5, 52, 100
7, 81299, Note_on_c, 5, 52, 0
7, 81300, Note_on_c, 5, 54, 100
7, 81329, Note_on_c, 5, 54, 0
7, 81330, Note_on_c, 5, 56, 100
7, 81359, Note_on_c, 5, 56, 0
7, 81360, Note_on_c, 5, 52, 100
7, 81360, Note_on_c, 5, 45, 100
7, 81419, Note_on_c, 5, 45, 0
7, 81419, Note_on_c, 5, 52, 0
7, 81420, Note_on_c, 5, 57, 100
7, 81480, Note_on_c, 5, 47, 100
7, 81539, Note_on_c, 5, 47, 0
7, 81539, Note_on_c, 5, 57, 0
7, 81540, Note_on_c, 5, 56, 100
7, 81599, Note_on_c, 5, 56, 0
7, 81600, Note_on_c, 5, 48, 100
7, 81600, Note_on_c, 5, 57, 100
7, 81659, Note_on_c, 5, 57, 0
7, 81659, Note_on_c, 5, 48, 0
7, 81660, Note_on_c, 5, 59, 100
7, 81720, Note_on_c, 5, 50, 100
7, 81779, Note_on_c, 5, 50, 0
7, 81779, Note_on_c, 5, 59, 0
7, 81780, Note_on_c, 5, 60, 100
7, 81840, Note_on_c, 5, 52, 100
7, 81900, Note_on_c, 5, 52, 0
7, 81900, Note_on_c, 5, 60, 0
7, 81900, Note_on_c, 5, 53, 100
7, 81900, Note_on_c, 5, 59, 100
7, 81930, Note_on_c, 5, 59, 0
7, 81930, Note_on_c, 5, 57, 100
7, 81960, Note_on_c, 5, 57, 0
7, 81960, Note_on_c, 5, 53, 0
7, 81960, Note_on_c, 5, 50, 100
7, 81960, Note_on_c, 5, 60, 100
7, 81990, Note_on_c, 5, 60, 0
7, 81990, Note_on_c, 5, 59, 100
7, 82020, Note_on_c, 5, 59, 0
7, 82020, Note_on_c, 5, 50, 0
7, 82020, Note_on_c, 5, 52, 100
7, 82020, Note_on_c, 5, 57, 100
7, 82050, Note_on_c, 5, 57, 0
7, 82050, Note_on_c, 5, 56, 100
7, 82080, Note_on_c, 5, 56, 0
7, 82080, Note_on_c, 5, 52, 0
7, 82080, Note_on_c, 5, 57, 100
7, 82080, Note_on_c, 5, 45, 100
7, 82140, Note_on_c, 5, 45, 0
7, 82140, Note_on_c, 5, 57, 0
7, 82140, Note_on_c, 5, 60, 100
7, 82169, Note_on_c, 5, 60, 0
7, 82170, Note_on_c, 5, 59, 100
7, 82199, Note_on_c, 5, 59, 0
7, 82200, Note_on_c, 5, 57, 100
7, 82229, Note_on_c, 5, 57, 0
7, 82230, Note_on_c, 5, 59, 100
7, 82259, Note_on_c, 5, 59, 0
7, 82260, Note_on_c, 5, 60, 100
7, 82289, Note_on_c, 5, 60, 0
7, 82290, Note_on_c, 5, 62, 100
7, 82319, Note_on_c, 5, 62, 0
7, 82320, Note_on_c, 5, 64, 100
7, 82349, Note_on_c, 5, 64, 0
7, 82350, Note_on_c, 5, 62, 100
7, 82379, Note_on_c, 5, 62, 0
7, 82380, Note_on_c, 5, 64, 100
7, 82409, Note_on_c, 5, 64, 0
7, 82410, Note_on_c, 5, 65, 100
7, 82439, Note_on_c, 5, 65, 0
7, 82440, Note_on_c, 5, 67, 100
7, 82469, Note_on_c, 5, 67, 0
7, 82470, Note_on_c, 5, 65, 100
7, 82499, Note_on_c, 5, 65, 0
7, 82500, Note_on_c, 5, 67, 100
7, 82529, Note_on_c, 5, 67, 0
7, 82530, Note_on_c, 5, 64, 100
7, 82559, Note_on_c, 5, 64, 0
7, 82560, Note_on_c, 5, 65, 100
7, 82589, Note_on_c, 5, 65, 0
7, 82590, Note_on_c, 5, 58, 100
7, 82619, Note_on_c, 5, 58, 0
7, 82620, Note_on_c, 5, 57, 100
7, 82649, Note_on_c, 5, 57, 0
7, 82650, Note_on_c, 5, 55, 100
7, 82679, Note_on_c, 5, 55, 0
7, 82680, Note_on_c, 5, 53, 100
7, 82709, Note_on_c, 5, 53, 0
7, 82710, Note_on_c, 5, 55, 100
7, 82739, Note_on_c, 5, 55, 0
7, 82740, Note_on_c, 5, 57, 100
7, 82769, Note_on_c, 5, 57, 0
7, 82770, Note_on_c, 5, 58, 100
7, 82799, Note_on_c, 5, 58, 0
7, 82800, Note_on_c, 5, 60, 100
7, 82829, Note_on_c, 5, 60, 0
7, 82830, Note_on_c, 5, 58, 100
7, 82859, Note_on_c, 5, 58, 0
7, 82860, Note_on_c, 5, 60, 100
7, 82889, Note_on_c, 5, 60, 0
7, 82890, Note_on_c, 5, 62, 100
7, 82919, Note_on_c, 5, 62, 0
7, 82920, Note_on_c, 5, 64, 100
7, 82949, Note_on_c, 5, 64, 0
7, 82950, Note_on_c, 5, 62, 100
7, 82979, Note_on_c, 5, 62, 0
7, 82980, Note_on_c, 5, 64, 100
7, 83009, Note_on_c, 5, 64, 0
7, 83010, Note_on_c, 5, 61, 100
7, 83039, Note_on_c, 5, 61, 0
7, 83040, Note_on_c, 5, 62, 100
7, 83069, Note_on_c, 5, 62, 0
7, 83070, Note_on_c, 5, 55, 100
7, 83099, Note_on_c, 5, 55, 0
7, 83100, Note_on_c, 5, 53, 100
7, 83129, Note_on_c, 5, 53, 0
7, 83130, Note_on_c, 5, 52, 100
7, 83159, Note_on_c, 5, 52, 0
7, 83160, Note_on_c, 5, 50, 100
7, 83189, Note_on_c, 5, 50, 0
7, 83190, Note_on_c, 5, 52, 100
7, 83219, Note_on_c, 5, 52, 0
7, 83220, Note_on_c, 5, 53, 100
7, 83249, Note_on_c, 5, 53, 0
7, 83250, Note_on_c, 5, 55, 100
7, 83279, Note_on_c, 5, 55, 0
7, 83280, Note_on_c, 5, 57, 100
7, 83280, Note_on_c, 5, 45, 100
7, 83339, Note_on_c, 5, 45, 0
7, 83339, Note_on_c, 5, 57, 0
7, 83340, Note_on_c, 5, 50, 100
7, 83459, Note_on_c, 5, 50, 0
7, 83460, Note_on_c, 5, 49, 100
7, 83519, Note_on_c, 5, 49, 0
7, 83520, Note_on_c, 5, 50, 100
7, 83579, Note_on_c, 5, 50, 0
7, 83580, Note_on_c, 5, 52, 100
7, 83699, Note_on_c, 5, 52, 0
7, 83700, Note_on_c, 5, 53, 100
7, 83819, Note_on_c, 5, 53, 0
7, 83820, Note_on_c, 5, 52, 100
7, 83849, Note_on_c, 5, 52, 0
7, 83850, Note_on_c, 5, 50, 100
7, 83879, Note_on_c, 5, 50, 0
7, 83880, Note_on_c, 5, 53, 100
7, 83909, Note_on_c, 5, 53, 0
7, 83910, Note_on_c, 5, 52, 100
7, 83939, Note_on_c, 5, 52, 0
7, 83940, Note_on_c, 5, 50, 100
7, 83969, Note_on_c, 5, 50, 0
7, 83970, Note_on_c, 5, 49, 100
7, 83999, Note_on_c, 5, 49, 0
7, 84000, Note_on_c, 5, 50, 100
7, 84059, Note_on_c, 5, 50, 0
7, 84060, Note_on_c, 5, 62, 100
7, 84089, Note_on_c, 5, 62, 0
7, 84090, Note_on_c, 5, 61, 100
7, 84119, Note_on_c, 5, 61, 0
7, 84120, Note_on_c, 5, 62, 100
7, 84179, Note_on_c, 5, 62, 0
7, 84180, Note_on_c, 5, 65, 100
7, 84239, Note_on_c, 5, 65, 0
7, 84240, Note_on_c, 5, 70, 100
7, 84269, Note_on_c, 5, 70, 0
7, 84270, Note_on_c, 5, 69, 100
7, 84299, Note_on_c, 5, 69, 0
7, 84300, Note_on_c, 5, 70, 100
7, 84329, Note_on_c, 5, 70, 0
7, 84330, Note_on_c, 5, 72, 100
7, 84359, Note_on_c, 5, 72, 0
7, 84360, Note_on_c, 5, 70, 100
7, 84389, Note_on_c, 5, 70, 0
7, 84390, Note_on_c, 5, 62, 100
7, 84419, Note_on_c, 5, 62, 0
7, 84420, Note_on_c, 5, 64, 100
7, 84449, Note_on_c, 5, 64, 0
7, 84450, Note_on_c, 5, 65, 100
7, 84479, Note_on_c, 5, 65, 0
7, 84480, Note_on_c, 5, 67, 100
7, 84539, Note_on_c, 5, 67, 0
7, 84540, Note_on_c, 5, 60, 100
7, 84569, Note_on_c, 5, 60, 0
7, 84570, Note_on_c, 5, 59, 100
7, 84599, Note_on_c, 5, 59, 0
7, 84600, Note_on_c, 5, 60, 100
7, 84659, Note_on_c, 5, 60, 0
7, 84660, Note_on_c, 5, 64, 100
7, 84719, Note_on_c, 5, 64, 0
7, 84720, Note_on_c, 5, 69, 100
7, 84749, Note_on_c, 5, 69, 0
7, 84750, Note_on_c, 5, 67, 100
7, 84779, Note_on_c, 5, 67, 0
7, 84780, Note_on_c, 5, 69, 100
7, 84809, Note_on_c, 5, 69, 0
7, 84810, Note_on_c, 5, 70, 100
7, 84839, Note_on_c, 5, 70, 0
7, 84840, Note_on_c, 5, 69, 100
7, 84869, Note_on_c, 5, 69, 0
7, 84870, Note_on_c, 5, 61, 100
7, 84899, Note_on_c, 5, 61, 0
7, 84900, Note_on_c, 5, 62, 100
7, 84929, Note_on_c, 5, 62, 0
7, 84930, Note_on_c, 5, 64, 100
7, 84959, Note_on_c, 5, 64, 0
7, 84960, Note_on_c, 5, 65, 100
7, 85019, Note_on_c, 5, 65, 0
7, 85020, Note_on_c, 5, 58, 100
7, 85049, Note_on_c, 5, 58, 0
7, 85050, Note_on_c, 5, 57, 100
7, 85079, Note_on_c, 5, 57, 0
7, 85080, Note_on_c, 5, 58, 100
7, 85139, Note_on_c, 5, 58, 0
7, 85140, Note_on_c, 5, 60, 100
7, 85199, Note_on_c, 5, 60, 0
7, 85200, Note_on_c, 5, 67, 100
7, 85229, Note_on_c, 5, 67, 0
7, 85230, Note_on_c, 5, 65, 100
7, 85259, Note_on_c, 5, 65, 0
7, 85260, Note_on_c, 5, 67, 100
7, 85289, Note_on_c, 5, 67, 0
7, 85290, Note_on_c, 5, 69, 100
7, 85319, Note_on_c, 5, 69, 0
7, 85320, Note_on_c, 5, 67, 100
7, 85349, Note_on_c, 5, 67, 0
7, 85350, Note_on_c, 5, 59, 100
7, 85379, Note_on_c, 5, 59, 0
7, 85380, Note_on_c, 5, 61, 100
7, 85409, Note_on_c, 5, 61, 0
7, 85410, Note_on_c, 5, 62, 100
7, 85439, Note_on_c, 5, 62, 0
7, 85440, Note_on_c, 5, 64, 100
7, 85499, Note_on_c, 5, 64, 0
7, 85500, Note_on_c, 5, 57, 100
7, 85559, Note_on_c, 5, 57, 0
7, 85560, Note_on_c, 5, 69, 100
7, 85589, Note_on_c, 5, 69, 0
7, 85590, Note_on_c, 5, 67, 100
7, 85619, Note_on_c, 5, 67, 0
7, 85620, Note_on_c, 5, 65, 100
7, 85649, Note_on_c, 5, 65, 0
7, 85650, Note_on_c, 5, 64, 100
7, 85679, Note_on_c, 5, 64, 0
7, 85680, Note_on_c, 5, 62, 100
7, 85709, Note_on_c, 5, 62, 0
7, 85710, Note_on_c, 5, 64, 100
7, 85739, Note_on_c, 5, 64, 0
7, 85740, Note_on_c, 5, 65, 100
7, 85769, Note_on_c, 5, 65, 0
7, 85770, Note_on_c, 5, 62, 100
7, 85799, Note_on_c, 5, 62, 0
7, 85800, Note_on_c, 5, 64, 100
7, 85829, Note_on_c, 5, 64, 0
7, 85830, Note_on_c, 5, 65, 100
7, 85859, Note_on_c, 5, 65, 0
7, 85860, Note_on_c, 5, 67, 100
7, 85889, Note_on_c, 5, 67, 0
7, 85890, Note_on_c, 5, 64, 100
7, 85919, Note_on_c, 5, 64, 0
7, 85920, Note_on_c, 5, 65, 100
7, 85949, Note_on_c, 5, 65, 0
7, 85950, Note_on_c, 5, 69, 100
7, 85979, Note_on_c, 5, 69, 0
7, 85980, Note_on_c, 5, 67, 100
7, 86009, Note_on_c, 5, 67, 0
7, 86010, Note_on_c, 5, 65, 100
7, 86039, Note_on_c, 5, 65, 0
7, 86040, Note_on_c, 5, 64, 100
7, 86069, Note_on_c, 5, 64, 0
7, 86070, Note_on_c, 5, 62, 100
7, 86099, Note_on_c, 5, 62, 0
7, 86100, Note_on_c, 5, 61, 100
7, 86129, Note_on_c, 5, 61, 0
7, 86130, Note_on_c, 5, 59, 100
7, 86159, Note_on_c, 5, 59, 0
7, 86160, Note_on_c, 5, 57, 100
7, 86219, Note_on_c, 5, 57, 0
7, 86220, Note_on_c, 5, 58, 100
7, 86279, Note_on_c, 5, 58, 0
7, 86280, Note_on_c, 5, 55, 100
7, 86339, Note_on_c, 5, 55, 0
7, 86340, Note_on_c, 5, 57, 100
7, 86399, Note_on_c, 5, 57, 0
7, 86400, Note_on_c, 5, 62, 100
7, 86519, Note_on_c, 5, 62, 0
7, 86550, Note_on_c, 5, 57, 100
7, 86579, Note_on_c, 5, 57, 0
7, 86580, Note_on_c, 5, 53, 100
7, 86609, Note_on_c, 5, 53, 0
7, 86610, Note_on_c, 5, 57, 100
7, 86639, Note_on_c, 5, 57, 0
7, 86640, Note_on_c, 5, 50, 100
7, 86669, Note_on_c, 5, 50, 0
7, 86670, Note_on_c, 5, 57, 100
7, 86699, Note_on_c, 5, 57, 0
7, 86700, Note_on_c, 5, 55, 100
7, 86729, Note_on_c, 5, 55, 0
7, 86730, Note_on_c, 5, 57, 100
7, 86759, Note_on_c, 5, 57, 0
7, 86760, Note_on_c, 5, 53, 100
7, 86789, Note_on_c, 5, 53, 0
7, 86790, Note_on_c, 5, 57, 100
7, 86819, Note_on_c, 5, 57, 0
7, 86820, Note_on_c, 5, 55, 100
7, 86849, Note_on_c, 5, 55, 0
7, 86850, Note_on_c, 5, 57, 100
7, 86879, Note_on_c, 5, 57, 0
7, 86880, Note_on_c, 5, 52, 100
7, 86909, Note_on_c, 5, 52, 0
7, 86910, Note_on_c, 5, 57, 100
7, 86939, Note_on_c, 5, 57, 0
7, 86940, Note_on_c, 5, 55, 100
7, 86969, Note_on_c, 5, 55, 0
7, 86970, Note_on_c, 5, 57, 100
7, 86999, Note_on_c, 5, 57, 0
7, 87000, Note_on_c, 5, 50, 100
7, 87059, Note_on_c, 5, 50, 0
7, 87120, Note_on_c, 5, 53, 100
7, 87149, Note_on_c, 5, 53, 0
7, 87150, Note_on_c, 5, 62, 100
7, 87179, Note_on_c, 5, 62, 0
7, 87180, Note_on_c, 5, 60, 100
7, 87209, Note_on_c, 5, 60, 0
7, 87210, Note_on_c, 5, 62, 100
7, 87239, Note_on_c, 5, 62, 0
7, 87240, Note_on_c, 5, 59, 100
7, 87269, Note_on_c, 5, 59, 0
7, 87270, Note_on_c, 5, 62, 100
7, 87299, Note_on_c, 5, 62, 0
7, 87300, Note_on_c, 5, 60, 100
7, 87329, Note_on_c, 5, 60, 0
7, 87330, Note_on_c, 5, 62, 100
7, 87359, Note_on_c, 5, 62, 0
7, 87360, Note_on_c, 5, 56, 100
7, 87389, Note_on_c, 5, 56, 0
7, 87390, Note_on_c, 5, 64, 100
7, 87419, Note_on_c, 5, 64, 0
7, 87420, Note_on_c, 5, 62, 100
7, 87449, Note_on_c, 5, 62, 0
7, 87450, Note_on_c, 5, 64, 100
7, 87479, Note_on_c, 5, 64, 0
7, 87480, Note_on_c, 5, 57, 100
7, 87539, Note_on_c, 5, 57, 0
7, 87600, Note_on_c, 5, 57, 100
7, 87629, Note_on_c, 5, 57, 0
7, 87630, Note_on_c, 5, 64, 100
7, 87659, Note_on_c, 5, 64, 0
7, 87660, Note_on_c, 5, 62, 100
7, 87689, Note_on_c, 5, 62, 0
7, 87690, Note_on_c, 5, 64, 100
7, 87719, Note_on_c, 5, 64, 0
7, 87720, Note_on_c, 5, 55, 100
7, 87749, Note_on_c, 5, 55, 0
7, 87750, Note_on_c, 5, 63, 100
7, 87779, Note_on_c, 5, 63, 0
7, 87780, Note_on_c, 5, 62, 100
7, 87809, Note_on_c, 5, 62, 0
7, 87810, Note_on_c, 5, 63, 100
7, 87839, Note_on_c, 5, 63, 0
7, 87840, Note_on_c, 5, 54, 100
7, 87869, Note_on_c, 5, 54, 0
7, 87870, Note_on_c, 5, 62, 100
7, 87899, Note_on_c, 5, 62, 0
7, 87900, Note_on_c, 5, 60, 100
7, 87929, Note_on_c, 5, 60, 0
7, 87930, Note_on_c, 5, 62, 100
7, 87959, Note_on_c, 5, 62, 0
7, 87960, Note_on_c, 5, 55, 100
7, 88019, Note_on_c, 5, 55, 0
7, 88080, Note_on_c, 5, 55, 100
7, 88109, Note_on_c, 5, 55, 0
7, 88110, Note_on_c, 5, 62, 100
7, 88139, Note_on_c, 5, 62, 0
7, 88140, Note_on_c, 5, 60, 100
7, 88169, Note_on_c, 5, 60, 0
7, 88170, Note_on_c, 5, 62, 100
7, 88199, Note_on_c, 5, 62, 0
7, 88200, Note_on_c, 5, 53, 100
7, 88229, Note_on_c, 5, 53, 0
7, 88230, Note_on_c, 5, 62, 100
7, 88259, Note_on_c, 5, 62, 0
7, 88260, Note_on_c, 5, 60, 100
7, 88289, Note_on_c, 5, 60, 0
7, 88290, Note_on_c, 5, 62, 100
7, 88319, Note_on_c, 5, 62, 0
7, 88320, Note_on_c, 5, 52, 100
7, 88349, Note_on_c, 5, 52, 0
7, 88350, Note_on_c, 5, 60, 100
7, 88379, Note_on_c, 5, 60, 0
7, 88380, Note_on_c, 5, 58, 100
7, 88409, Note_on_c, 5, 58, 0
7, 88410, Note_on_c, 5, 60, 100
7, 88439, Note_on_c, 5, 60, 0
7, 88440, Note_on_c, 5, 53, 100
7, 88499, Note_on_c, 5, 53, 0
7, 88590, Note_on_c, 5, 57, 100
7, 88619, Note_on_c, 5, 57, 0
7, 88620, Note_on_c, 5, 55, 100
7, 88649, Note_on_c, 5, 55, 0
7, 88650, Note_on_c, 5, 53, 100
7, 88679, Note_on_c, 5, 53, 0
7, 88680, Note_on_c, 5, 58, 100
7, 88709, Note_on_c, 5, 58, 0
7, 88710, Note_on_c, 5, 51, 100
7, 88739, Note_on_c, 5, 51, 0
7, 88740, Note_on_c, 5, 50, 100
7, 88769, Note_on_c, 5, 50, 0
7, 88770, Note_on_c, 5, 48, 100
7, 88799, Note_on_c, 5, 48, 0
7, 88800, Note_on_c, 5, 46, 100
7, 88829, Note_on_c, 5, 46, 0
7, 88830, Note_on_c, 5, 58, 100
7, 88859, Note_on_c, 5, 58, 0
7, 88860, Note_on_c, 5, 57, 100
7, 88889, Note_on_c, 5, 57, 0
7, 88890, Note_on_c, 5, 55, 100
7, 88919, Note_on_c, 5, 55, 0
7, 88920, Note_on_c, 5, 60, 100
7, 88949, Note_on_c, 5, 60, 0
7, 88950, Note_on_c, 5, 53, 100
7, 88979, Note_on_c, 5, 53, 0
7, 88980, Note_on_c, 5, 52, 100
7, 89009, Note_on_c, 5, 52, 0
7, 89010, Note_on_c, 5, 50, 100
7, 89039, Note_on_c, 5, 50, 0
7, 89040, Note_on_c, 5, 48, 100
7, 89069, Note_on_c, 5, 48, 0
7, 89070, Note_on_c, 5, 60, 100
7, 89099, Note_on_c, 5, 60, 0
7, 89100, Note_on_c, 5, 58, 100
7, 89129, Note_on_c, 5, 58, 0
7, 89130, Note_on_c, 5, 57, 100
7, 89159, Note_on_c, 5, 57, 0
7, 89160, Note_on_c, 5, 58, 100
7, 89189, Note_on_c, 5, 58, 0
7, 89190, Note_on_c, 5, 55, 100
7, 89219, Note_on_c, 5, 55, 0
7, 89220, Note_on_c, 5, 53, 100
7, 89249, Note_on_c, 5, 53, 0
7, 89250, Note_on_c, 5, 52, 100
7, 89279, Note_on_c, 5, 52, 0
7, 89280, Note_on_c, 5, 57, 100
7, 89309, Note_on_c, 5, 57, 0
7, 89310, Note_on_c, 5, 53, 100
7, 89339, Note_on_c, 5, 53, 0
7, 89340, Note_on_c, 5, 52, 100
7, 89369, Note_on_c, 5, 52, 0
7, 89370, Note_on_c, 5, 50, 100
7, 89399, Note_on_c, 5, 50, 0
7, 89400, Note_on_c, 5, 55, 100
7, 89429, Note_on_c, 5, 55, 0
7, 89430, Note_on_c, 5, 52, 100
7, 89459, Note_on_c, 5, 52, 0
7, 89460, Note_on_c, 5, 50, 100
7, 89489, Note_on_c, 5, 50, 0
7, 89490, Note_on_c, 5, 48, 100
7, 89519, Note_on_c, 5, 48, 0
7, 89520, Note_on_c, 5, 53, 100
7, 89549, Note_on_c, 5, 53, 0
7, 89550, Note_on_c, 5, 57, 100
7, 89579, Note_on_c, 5, 57, 0
7, 89580, Note_on_c, 5, 59, 100
7, 89609, Note_on_c, 5, 59, 0
7, 89610, Note_on_c, 5, 60, 100
7, 89639, Note_on_c, 5, 60, 0
7, 89640, Note_on_c, 5, 62, 100
7, 89669, Note_on_c, 5, 62, 0
7, 89670, Note_on_c, 5, 53, 100
7, 89699, Note_on_c, 5, 53, 0
7, 89700, Note_on_c, 5, 52, 100
7, 89729, Note_on_c, 5, 52, 0
7, 89730, Note_on_c, 5, 50, 100
7, 89759, Note_on_c, 5, 50, 0
7, 89760, Note_on_c, 5, 52, 100
7, 89819, Note_on_c, 5, 52, 0
7, 89820, Note_on_c, 5, 64, 100
7, 89879, Note_on_c, 5, 64, 0
7, 89880, Note_on_c, 5, 59, 100
7, 89939, Note_on_c, 5, 59, 0
7, 89940, Note_on_c, 5, 60, 100
7, 89999, Note_on_c, 5, 60, 0
7, 90000, Note_on_c, 5, 59, 100
7, 90059, Note_on_c, 5, 59, 0
7, 90060, Note_on_c, 5, 57, 100
7, 90119, Note_on_c, 5, 57, 0
7, 90120, Note_on_c, 5, 56, 100
7, 90179, Note_on_c, 5, 56, 0
7, 90180, Note_on_c, 5, 54, 100
7, 90239, Note_on_c, 5, 54, 0
7, 90240, Note_on_c, 5, 56, 100
7, 90299, Note_on_c, 5, 56, 0
7, 90300, Note_on_c, 5, 52, 100
7, 90359, Note_on_c, 5, 52, 0
7, 90360, Note_on_c, 5, 50, 100
7, 90419, Note_on_c, 5, 50, 0
7, 90420, Note_on_c, 5, 48, 100
7, 90479, Note_on_c, 5, 48, 0
7, 90480, Note_on_c, 5, 47, 100
7, 90539, Note_on_c, 5, 47, 0
7, 90540, Note_on_c, 5, 56, 100
7, 90599, Note_on_c, 5, 56, 0
7, 90600, Note_on_c, 5, 57, 100
7, 90629, Note_on_c, 5, 57, 0
7, 90630, Note_on_c, 5, 59, 100
7, 90659, Note_on_c, 5, 59, 0
7, 90660, Note_on_c, 5, 60, 100
7, 90689, Note_on_c, 5, 60, 0
7, 90690, Note_on_c, 5, 62, 100
7, 90719, Note_on_c, 5, 62, 0
7, 90720, Note_on_c, 5, 60, 100
7, 90749, Note_on_c, 5, 60, 0
7, 90750, Note_on_c, 5, 57, 100
7, 90779, Note_on_c, 5, 57, 0
7, 90780, Note_on_c, 5, 64, 100
7, 90809, Note_on_c, 5, 64, 0
7, 90810, Note_on_c, 5, 62, 100
7, 90839, Note_on_c, 5, 62, 0
7, 90840, Note_on_c, 5, 60, 100
7, 90869, Note_on_c, 5, 60, 0
7, 90870, Note_on_c, 5, 56, 100
7, 90899, Note_on_c, 5, 56, 0
7, 90900, Note_on_c, 5, 57, 100
7, 90989, Note_on_c, 5, 57, 0
7, 90990, Note_on_c, 5, 56, 100
7, 91019, Note_on_c, 5, 56, 0
7, 91020, Note_on_c, 5, 59, 100
7, 91109, Note_on_c, 5, 59, 0
7, 91110, Note_on_c, 5, 57, 100
7, 91139, Note_on_c, 5, 57, 0
7, 91140, Note_on_c, 5, 65, 100
7, 91229, Note_on_c, 5, 65, 0
7, 91230, Note_on_c, 5, 61, 100
7, 91259, Note_on_c, 5, 61, 0
7, 91260, Note_on_c, 5, 62, 100
7, 91349, Note_on_c, 5, 62, 0
7, 91350, Note_on_c, 5, 61, 100
7, 91379, Note_on_c, 5, 61, 0
7, 91380, Note_on_c, 5, 64, 100
7, 91469, Note_on_c, 5, 64, 0
7, 91470, Note_on_c, 5, 57, 100
7, 91499, Note_on_c, 5, 57, 0
7, 91500, Note_on_c, 5, 59, 100
7, 91529, Note_on_c, 5, 59, 0
7, 91530, Note_on_c, 5, 60, 100
7, 91559, Note_on_c, 5, 60, 0
7, 91560, Note_on_c, 5, 62, 100
7, 91589, Note_on_c, 5, 62, 0
7, 91590, Note_on_c, 5, 65, 100
7, 91619, Note_on_c, 5, 65, 0
7, 91620, Note_on_c, 5, 59, 100
7, 91649, Note_on_c, 5, 59, 0
7, 91650, Note_on_c, 5, 62, 100
7, 91679, Note_on_c, 5, 62, 0
7, 91680, Note_on_c, 5, 56, 100
7, 91709, Note_on_c, 5, 56, 0
7, 91710, Note_on_c, 5, 65, 100
7, 91739, Note_on_c, 5, 65, 0
7, 91740, Note_on_c, 5, 64, 100
7, 91769, Note_on_c, 5, 64, 0
7, 91770, Note_on_c, 5, 62, 100
7, 91799, Note_on_c, 5, 62, 0
7, 91800, Note_on_c, 5, 60, 100
7, 91829, Note_on_c, 5, 60, 0
7, 91830, Note_on_c, 5, 64, 100
7, 91859, Note_on_c, 5, 64, 0
7, 91860, Note_on_c, 5, 62, 100
7, 91889, Note_on_c, 5, 62, 0
7, 91890, Note_on_c, 5, 60, 100
7, 91919, Note_on_c, 5, 60, 0
7, 91920, Note_on_c, 5, 59, 100
7, 91949, Note_on_c, 5, 59, 0
7, 91950, Note_on_c, 5, 62, 100
7, 91979, Note_on_c, 5, 62, 0
7, 91980, Note_on_c, 5, 60, 100
7, 92009, Note_on_c, 5, 60, 0
7, 92010, Note_on_c, 5, 59, 100
7, 92039, Note_on_c, 5, 59, 0
7, 92040, Note_on_c, 5, 57, 100
7, 92069, Note_on_c, 5, 57, 0
7, 92070, Note_on_c, 5, 60, 100
7, 92099, Note_on_c, 5, 60, 0
7, 92100, Note_on_c, 5, 59, 100
7, 92129, Note_on_c, 5, 59, 0
7, 92130, Note_on_c, 5, 57, 100
7, 92159, Note_on_c, 5, 57, 0
7, 92160, Note_on_c, 5, 55, 100
7, 92189, Note_on_c, 5, 55, 0
7, 92190, Note_on_c, 5, 58, 100
7, 92219, Note_on_c, 5, 58, 0
7, 92220, Note_on_c, 5, 57, 100
7, 92249, Note_on_c, 5, 57, 0
7, 92250, Note_on_c, 5, 55, 100
7, 92279, Note_on_c, 5, 55, 0
7, 92280, Note_on_c, 5, 53, 100
7, 92309, Note_on_c, 5, 53, 0
7, 92310, Note_on_c, 5, 57, 100
7, 92339, Note_on_c, 5, 57, 0
7, 92340, Note_on_c, 5, 55, 100
7, 92369, Note_on_c, 5, 55, 0
7, 92370, Note_on_c, 5, 53, 100
7, 92399, Note_on_c, 5, 53, 0
7, 92400, Note_on_c, 5, 52, 100
7, 92459, Note_on_c, 5, 52, 0
7, 92460, Note_on_c, 5, 59, 100
7, 92519, Note_on_c, 5, 59, 0
7, 92520, Note_on_c, 5, 60, 100
7, 92579, Note_on_c, 5, 60, 0
7, 92580, Note_on_c, 5, 54, 100
7, 92639, Note_on_c, 5, 54, 0
7, 92640, Note_on_c, 5, 56, 100
7, 92699, Note_on_c, 5, 56, 0
7, 92700, Note_on_c, 5, 59, 100
7, 92759, Note_on_c, 5, 59, 0
7, 92760, Note_on_c, 5, 57, 100
7, 92819, Note_on_c, 5, 57, 0
7, 92820, Note_on_c, 5, 56, 100
7, 92879, Note_on_c, 5, 56, 0
7, 92880, Note_on_c, 5, 57, 100
7, 92939, Note_on_c, 5, 57, 0
7, 92940, Note_on_c, 5, 60, 100
7, 92999, Note_on_c, 5, 60, 0
7, 93000, Note_on_c, 5, 54, 100
7, 93059, Note_on_c, 5, 54, 0
7, 93060, Note_on_c, 5, 57, 100
7, 93119, Note_on_c, 5, 57, 0
7, 93120, Note_on_c, 5, 59, 100
7, 93179, Note_on_c, 5, 59, 0
7, 93180, Note_on_c, 5, 54, 100
7, 93239, Note_on_c, 5, 54, 0
7, 93240, Note_on_c, 5, 59, 100
7, 93299, Note_on_c, 5, 59, 0
7, 93300, Note_on_c, 5, 64, 100
7, 93389, Note_on_c, 5, 64, 0
7, 93390, Note_on_c, 5, 62, 100
7, 93419, Note_on_c, 5, 62, 0
7, 93420, Note_on_c, 5, 60, 100
7, 93449, Note_on_c, 5, 60, 0
7, 93450, Note_on_c, 5, 64, 100
7, 93479, Note_on_c, 5, 64, 0
7, 93480, Note_on_c, 5, 62, 100
7, 93509, Note_on_c, 5, 62, 0
7, 93510, Note_on_c, 5, 60, 100
7, 93539, Note_on_c, 5, 60, 0
7, 93540, Note_on_c, 5, 59, 100
7, 93569, Note_on_c, 5, 59, 0
7, 93570, Note_on_c, 5, 64, 100
7, 93599, Note_on_c, 5, 64, 0
7, 93600, Note_on_c, 5, 57, 100
7, 93629, Note_on_c, 5, 57, 0
7, 93630, Note_on_c, 5, 60, 100
7, 93659, Note_on_c, 5, 60, 0
7, 93660, Note_on_c, 5, 62, 100
7, 93689, Note_on_c, 5, 62, 0
7, 93690, Note_on_c, 5, 64, 100
7, 93719, Note_on_c, 5, 64, 0
7, 93720, Note_on_c, 5, 65, 100
7, 93749, Note_on_c, 5, 65, 0
7, 93750, Note_on_c, 5, 62, 100
7, 93779, Note_on_c, 5, 62, 0
7, 93780, Note_on_c, 5, 64, 100
7, 93809, Note_on_c, 5, 64, 0
7, 93810, Note_on_c, 5, 66, 100
7, 93839, Note_on_c, 5, 66, 0
7, 93840, Note_on_c, 5, 68, 100
7, 93869, Note_on_c, 5, 68, 0
7, 93870, Note_on_c, 5, 64, 100
7, 93899, Note_on_c, 5, 64, 0
7, 93900, Note_on_c, 5, 69, 100
7, 93959, Note_on_c, 5, 69, 0
7, 93960, Note_on_c, 5, 62, 100
7, 94019, Note_on_c, 5, 62, 0
7, 94020, Note_on_c, 5, 64, 100
7, 94079, Note_on_c, 5, 64, 0
7, 94080, Note_on_c, 5, 57, 100
7, 94199, Note_on_c, 5, 57, 0
7, 94230, Note_on_c, 5, 52, 100
7, 94259, Note_on_c, 5, 52, 0
7, 94260, Note_on_c, 5, 48, 100
7, 94289, Note_on_c, 5, 48, 0
7, 94290, Note_on_c, 5, 52, 100
7, 94319, Note_on_c, 5, 52, 0
7, 94320, Note_on_c, 5, 45, 100
7, 94379, Note_on_c, 5, 45, 0
7, 101040, Note_on_c, 5, 57, 100
7, 101069, Note_on_c, 5, 57, 0
7, 101070, Note_on_c, 5, 62, 100
7, 101099, Note_on_c, 5, 62, 0
7, 101100, Note_on_c, 5, 64, 100
7, 101129, Note_on_c, 5, 64, 0
7, 101130, Note_on_c, 5, 65, 100
7, 101159, Note_on_c, 5, 65, 0
7, 101160, Note_on_c, 5, 57, 100
7, 101189, Note_on_c, 5, 57, 0
7, 101190, Note_on_c, 5, 64, 100
7, 101219, Note_on_c, 5, 64, 0
7, 101220, Note_on_c, 5, 65, 100
7, 101249, Note_on_c, 5, 65, 0
7, 101250, Note_on_c, 5, 67, 100
7, 101279, Note_on_c, 5, 67, 0
7, 101280, Note_on_c, 5, 57, 100
7, 101309, Note_on_c, 5, 57, 0
7, 101310, Note_on_c, 5, 65, 100
7, 101339, Note_on_c, 5, 65, 0
7, 101340, Note_on_c, 5, 67, 100
7, 101369, Note_on_c, 5, 67, 0
7, 101370, Note_on_c, 5, 69, 100
7, 101399, Note_on_c, 5, 69, 0
7, 101400, Note_on_c, 5, 57, 100
7, 101429, Note_on_c, 5, 57, 0
7, 101430, Note_on_c, 5, 67, 100
7, 101459, Note_on_c, 5, 67, 0
7, 101460, Note_on_c, 5, 69, 100
7, 101489, Note_on_c, 5, 69, 0
7, 101490, Note_on_c, 5, 70, 100
7, 101519, Note_on_c, 5, 70, 0
7, 101520, Note_on_c, 5, 57, 100
7, 101549, Note_on_c, 5, 57, 0
7, 101550, Note_on_c, 5, 69, 100
7, 101579, Note_on_c, 5, 69, 0
7, 101580, Note_on_c, 5, 67, 100
7, 101609, Note_on_c, 5, 67, 0
7, 101610, Note_on_c, 5, 65, 100
7, 101639, Note_on_c, 5, 65, 0
7, 101640, Note_on_c, 5, 57, 100
7, 101669, Note_on_c, 5, 57, 0
7, 101670, Note_on_c, 5, 67, 100
7, 101699, Note_on_c, 5, 67, 0
7, 101700, Note_on_c, 5, 65, 100
7, 101729, Note_on_c, 5, 65, 0
7, 101730, Note_on_c, 5, 64, 100
7, 101759, Note_on_c, 5, 64, 0
7, 101760, Note_on_c, 5, 62, 100
7, 101789, Note_on_c, 5, 62, 0
7, 101790, Note_on_c, 5, 71, 100
7, 101819, Note_on_c, 5, 71, 0
7, 101820, Note_on_c, 5, 73, 100
7, 101849, Note_on_c, 5, 73, 0
7, 101850, Note_on_c, 5, 74, 100
7, 101879, Note_on_c, 5, 74, 0
7, 101880, Note_on_c, 5, 69, 100
7, 101909, Note_on_c, 5, 69, 0
7, 101910, Note_on_c, 5, 73, 100
7, 101939, Note_on_c, 5, 73, 0
7, 101940, Note_on_c, 5, 74, 100
7, 101969, Note_on_c, 5, 74, 0
7, 101970, Note_on_c, 5, 76, 100
7, 101999, Note_on_c, 5, 76, 0
7, 102000, Note_on_c, 5, 74, 100
7, 102029, Note_on_c, 5, 74, 0
7, 102030, Note_on_c, 5, 69, 100
7, 102059, Note_on_c, 5, 69, 0
7, 102060, Note_on_c, 5, 67, 100
7, 102089, Note_on_c, 5, 67, 0
7, 102090, Note_on_c, 5, 65, 100
7, 102119, Note_on_c, 5, 65, 0
7, 102120, Note_on_c, 5, 73, 100
7, 102149, Note_on_c, 5, 73, 0
7, 102150, Note_on_c, 5, 67, 100
7, 102179, Note_on_c, 5, 67, 0
7, 102180, Note_on_c, 5, 65, 100
7, 102209, Note_on_c, 5, 65, 0
7, 102210, Note_on_c, 5, 64, 100
7, 102239, Note_on_c, 5, 64, 0
7, 102240, Note_on_c, 5, 65, 100
7, 102269, Note_on_c, 5, 65, 0
7, 102270, Note_on_c, 5, 62, 100
7, 102299, Note_on_c, 5, 62, 0
7, 102300, Note_on_c, 5, 64, 100
7, 102329, Note_on_c, 5, 64, 0
7, 102330, Note_on_c, 5, 65, 100
7, 102359, Note_on_c, 5, 65, 0
7, 102360, Note_on_c, 5, 67, 100
7, 102389, Note_on_c, 5, 67, 0
7, 102390, Note_on_c, 5, 64, 100
7, 102419, Note_on_c, 5, 64, 0
7, 102420, Note_on_c, 5, 60, 100
7, 102449, Note_on_c, 5, 60, 0
7, 102450, Note_on_c, 5, 72, 100
7, 102479, Note_on_c, 5, 72, 0
7, 102480, Note_on_c, 5, 70, 100
7, 102509, Note_on_c, 5, 70, 0
7, 102510, Note_on_c, 5, 74, 100
7, 102539, Note_on_c, 5, 74, 0
7, 102540, Note_on_c, 5, 70, 100
7, 102569, Note_on_c, 5, 70, 0
7, 102570, Note_on_c, 5, 67, 100
7, 102599, Note_on_c, 5, 67, 0
7, 102600, Note_on_c, 5, 60, 100
7, 102659, Note_on_c, 5, 60, 0
7, 102660, Note_on_c, 5, 62, 100
7, 102719, Note_on_c, 5, 62, 0
7, 102720, Note_on_c, 5, 55, 100
7, 102779, Note_on_c, 5, 55, 0
7, 102780, Note_on_c, 5, 57, 100
7, 102809, Note_on_c, 5, 57, 0
7, 102810, Note_on_c, 5, 58, 100
7, 102839, Note_on_c, 5, 58, 0
7, 102840, Note_on_c, 5, 60, 100
7, 102869, Note_on_c, 5, 60, 0
7, 102870, Note_on_c, 5, 58, 100
7, 102899, Note_on_c, 5, 58, 0
7, 102900, Note_on_c, 5, 57, 100
7, 102929, Note_on_c, 5, 57, 0
7, 102930, Note_on_c, 5, 55, 100
7, 102959, Note_on_c, 5, 55, 0
7, 102960, Note_on_c, 5, 57, 100
7, 102989, Note_on_c, 5, 57, 0
7, 102990, Note_on_c, 5, 55, 100
7, 103019, Note_on_c, 5, 55, 0
7, 103020, Note_on_c, 5, 53, 100
7, 103049, Note_on_c, 5, 53, 0
7, 103050, Note_on_c, 5, 57, 100
7, 103079, Note_on_c, 5, 57, 0
7, 103080, Note_on_c, 5, 62, 100
7, 103109, Note_on_c, 5, 62, 0
7, 103110, Note_on_c, 5, 60, 100
7, 103139, Note_on_c, 5, 60, 0
7, 103140, Note_on_c, 5, 58, 100
7, 103169, Note_on_c, 5, 58, 0
7, 103170, Note_on_c, 5, 60, 100
7, 103199, Note_on_c, 5, 60, 0
7, 103200, Note_on_c, 5, 57, 100
7, 103229, Note_on_c, 5, 57, 0
7, 103230, Note_on_c, 5, 53, 100
7, 103259, Note_on_c, 5, 53, 0
7, 103260, Note_on_c, 5, 62, 100
7, 103289, Note_on_c, 5, 62, 0
7, 103290, Note_on_c, 5, 60, 100
7, 103319, Note_on_c, 5, 60, 0
7, 103320, Note_on_c, 5, 58, 100
7, 103349, Note_on_c, 5, 58, 0
7, 103350, Note_on_c, 5, 62, 100
7, 103379, Note_on_c, 5, 62, 0
7, 103380, Note_on_c, 5, 60, 100
7, 103409, Note_on_c, 5, 60, 0
7, 103410, Note_on_c, 5, 58, 100
7, 103439, Note_on_c, 5, 58, 0
7, 103440, Note_on_c, 5, 57, 100
7, 103469, Note_on_c, 5, 57, 0
7, 103470, Note_on_c, 5, 53, 100
7, 103499, Note_on_c, 5, 53, 0
7, 103500, Note_on_c, 5, 62, 100
7, 103559, Note_on_c, 5, 62, 0
7, 103560, Note_on_c, 5, 58, 100
7, 103619, Note_on_c, 5, 58, 0
7, 103620, Note_on_c, 5, 60, 100
7, 103679, Note_on_c, 5, 60, 0
7, 103680, Note_on_c, 5, 53, 100
7, 103709, Note_on_c, 5, 53, 0
7, 103710, Note_on_c, 5, 52, 100
7, 103739, Note_on_c, 5, 52, 0
7, 103740, Note_on_c, 5, 53, 100
7, 103769, Note_on_c, 5, 53, 0
7, 103770, Note_on_c, 5, 55, 100
7, 103799, Note_on_c, 5, 55, 0
7, 103800, Note_on_c, 5, 57, 100
7, 103829, Note_on_c, 5, 57, 0
7, 103830, Note_on_c, 5, 59, 100
7, 103859, Note_on_c, 5, 59, 0
7, 103860, Note_on_c, 5, 60, 100
7, 103889, Note_on_c, 5, 60, 0
7, 103890, Note_on_c, 5, 62, 100
7, 103919, Note_on_c, 5, 62, 0
7, 103920, Note_on_c, 5, 64, 100
7, 103949, Note_on_c, 5, 64, 0
7, 103950, Note_on_c, 5, 67, 100
7, 103979, Note_on_c, 5, 67, 0
7, 103980, Note_on_c, 5, 65, 100
7, 104009, Note_on_c, 5, 65, 0
7, 104010, Note_on_c, 5, 64, 100
7, 104039, Note_on_c, 5, 64, 0
7, 104040, Note_on_c, 5, 62, 100
7, 104069, Note_on_c, 5, 62, 0
7, 104070, Note_on_c, 5, 65, 100
7, 104099, Note_on_c, 5, 65, 0
7, 104100, Note_on_c, 5, 64, 100
7, 104129, Note_on_c, 5, 64, 0
7, 104130, Note_on_c, 5, 62, 100
7, 104159, Note_on_c, 5, 62, 0
7, 104160, Note_on_c, 5, 60, 100
7, 104189, Note_on_c, 5, 60, 0
7, 104190, Note_on_c, 5, 64, 100
7, 104219, Note_on_c, 5, 64, 0
7, 104220, Note_on_c, 5, 69, 100
7, 104249, Note_on_c, 5, 69, 0
7, 104250, Note_on_c, 5, 67, 100
7, 104279, Note_on_c, 5, 67, 0
7, 104280, Note_on_c, 5, 65, 100
7, 104309, Note_on_c, 5, 65, 0
7, 104310, Note_on_c, 5, 62, 100
7, 104339, Note_on_c, 5, 62, 0
7, 104340, Note_on_c, 5, 60, 100
7, 104369, Note_on_c, 5, 60, 0
7, 104370, Note_on_c, 5, 59, 100
7, 104399, Note_on_c, 5, 59, 0
7, 104400, Note_on_c, 5, 64, 100
7, 104429, Note_on_c, 5, 64, 0
7, 104430, Note_on_c, 5, 55, 100
7, 104459, Note_on_c, 5, 55, 0
7, 104460, Note_on_c, 5, 53, 100
7, 104489, Note_on_c, 5, 53, 0
7, 104490, Note_on_c, 5, 52, 100
7, 104519, Note_on_c, 5, 52, 0
7, 104520, Note_on_c, 5, 53, 100
7, 104579, Note_on_c, 5, 53, 0
7, 104580, Note_on_c, 5, 55, 100
7, 104639, Note_on_c, 5, 55, 0
7, 104880, Note_on_c, 5, 62, 100
7, 104909, Note_on_c, 5, 62, 0
7, 104910, Note_on_c, 5, 69, 100
7, 104939, Note_on_c, 5, 69, 0
7, 104940, Note_on_c, 5, 67, 100
7, 104969, Note_on_c, 5, 67, 0
7, 104970, Note_on_c, 5, 66, 100
7, 104999, Note_on_c, 5, 66, 0
7, 105000, Note_on_c, 5, 62, 100
7, 105029, Note_on_c, 5, 62, 0
7, 105030, Note_on_c, 5, 69, 100
7, 105059, Note_on_c, 5, 69, 0
7, 105060, Note_on_c, 5, 67, 100
7, 105089, Note_on_c, 5, 67, 0
7, 105090, Note_on_c, 5, 66, 100
7, 105119, Note_on_c, 5, 66, 0
7, 105120, Note_on_c, 5, 55, 100
7, 105120, Note_on_c, 5, 67, 100
7, 105179, Note_on_c, 5, 67, 0
7, 105179, Note_on_c, 5, 55, 0
7, 105360, Note_on_c, 5, 52, 100
7, 105419, Note_on_c, 5, 52, 0
7, 105420, Note_on_c, 5, 52, 100
7, 105479, Note_on_c, 5, 52, 0
7, 105480, Note_on_c, 5, 52, 100
7, 105539, Note_on_c, 5, 52, 0
7, 105540, Note_on_c, 5, 52, 100
7, 105599, Note_on_c, 5, 52, 0
7, 105600, Note_on_c, 5, 53, 100
7, 105659, Note_on_c, 5, 53, 0
7, 105840, Note_on_c, 5, 51, 100
7, 105899, Note_on_c, 5, 51, 0
7, 105900, Note_on_c, 5, 51, 100
7, 105959, Note_on_c, 5, 51, 0
7, 105960, Note_on_c, 5, 51, 100
7, 106019, Note_on_c, 5, 51, 0
7, 106020, Note_on_c, 5, 51, 100
7, 106079, Note_on_c, 5, 51, 0
7, 106080, Note_on_c, 5, 50, 100
7, 106139, Note_on_c, 5, 50, 0
7, 106140, Note_on_c, 5, 50, 100
7, 106199, Note_on_c, 5, 50, 0
7, 106200, Note_on_c, 5, 48, 100
7, 106259, Note_on_c, 5, 48, 0
7, 106260, Note_on_c, 5, 48, 100
7, 106319, Note_on_c, 5, 48, 0
7, 106320, Note_on_c, 5, 47, 100
7, 106349, Note_on_c, 5, 47, 0
7, 106350, Note_on_c, 5, 50, 100
7, 106379, Note_on_c, 5, 50, 0
7, 106380, Note_on_c, 5, 52, 100
7, 106409, Note_on_c, 5, 52, 0
7, 106410, Note_on_c, 5, 53, 100
7, 106439, Note_on_c, 5, 53, 0
7, 106440, Note_on_c, 5, 55, 100
7, 106469, Note_on_c, 5, 55, 0
7, 106470, Note_on_c, 5, 53, 100
7, 106499, Note_on_c, 5, 53, 0
7, 106500, Note_on_c, 5, 52, 100
7, 106529, Note_on_c, 5, 52, 0
7, 106530, Note_on_c, 5, 50, 100
7, 106559, Note_on_c, 5, 50, 0
7, 106560, Note_on_c, 5, 48, 100
7, 106574, Note_on_c, 5, 48, 0
7, 106575, Note_on_c, 5, 55, 100
7, 106589, Note_on_c, 5, 55, 0
7, 106590, Note_on_c, 5, 57, 100
7, 106604, Note_on_c, 5, 57, 0
7, 106605, Note_on_c, 5, 59, 100
7, 106619, Note_on_c, 5, 59, 0
7, 106800, Note_on_c, 5, 57, 100
7, 106829, Note_on_c, 5, 57, 0
7, 106830, Note_on_c, 5, 65, 100
7, 106859, Note_on_c, 5, 65, 0
7, 106860, Note_on_c, 5, 67, 100
7, 106889, Note_on_c, 5, 67, 0
7, 106890, Note_on_c, 5, 69, 100
7, 106919, Note_on_c, 5, 69, 0
7, 106920, Note_on_c, 5, 67, 100
7, 106949, Note_on_c, 5, 67, 0
7, 106950, Note_on_c, 5, 64, 100
7, 106979, Note_on_c, 5, 64, 0
7, 106980, Note_on_c, 5, 69, 100
7, 107009, Note_on_c, 5, 69, 0
7, 107010, Note_on_c, 5, 67, 100
7, 107039, Note_on_c, 5, 67, 0
7, 107040, Note_on_c, 5, 66, 100
7, 107099, Note_on_c, 5, 66, 0
7, 107100, Note_on_c, 5, 57, 100
7, 107159, Note_on_c, 5, 57, 0
7, 107160, Note_on_c, 5, 56, 100
7, 107219, Note_on_c, 5, 56, 0
7, 107220, Note_on_c, 5, 59, 100
7, 107279, Note_on_c, 5, 59, 0
7, 107280, Note_on_c, 5, 64, 100
7, 107339, Note_on_c, 5, 64, 0
7, 107340, Note_on_c, 5, 55, 100
7, 107399, Note_on_c, 5, 55, 0
7, 107400, Note_on_c, 5, 54, 100
7, 107459, Note_on_c, 5, 54, 0
7, 107460, Note_on_c, 5, 57, 100
7, 107519, Note_on_c, 5, 57, 0
7, 108270, Note_on_c, 5, 52, 100
7, 108299, Note_on_c, 5, 52, 0
7, 108300, Note_on_c, 5, 50, 100
7, 108329, Note_on_c, 5, 50, 0
7, 108330, Note_on_c, 5, 48, 100
7, 108359, Note_on_c, 5, 48, 0
7, 108360, Note_on_c, 5, 47, 100
7, 108389, Note_on_c, 5, 47, 0
7, 108390, Note_on_c, 5, 50, 100
7, 108419, Note_on_c, 5, 50, 0
7, 108420, Note_on_c, 5, 48, 100
7, 108449, Note_on_c, 5, 48, 0
7, 108450, Note_on_c, 5, 47, 100
7, 108479, Note_on_c, 5, 47, 0
7, 108480, Note_on_c, 5, 45, 100
7, 108509, Note_on_c, 5, 45, 0
7, 108510, Note_on_c, 5, 48, 100
7, 108539, Note_on_c, 5, 48, 0
7, 108540, Note_on_c, 5, 53, 100
7, 108569, Note_on_c, 5, 53, 0
7, 108570, Note_on_c, 5, 52, 100
7, 108599, Note_on_c, 5, 52, 0
7, 108600, Note_on_c, 5, 50, 100
7, 108629, Note_on_c, 5, 50, 0
7, 108630, Note_on_c, 5, 47, 100
7, 108659, Note_on_c, 5, 47, 0
7, 108660, Note_on_c, 5, 57, 100
7, 108689, Note_on_c, 5, 57, 0
7, 108690, Note_on_c, 5, 56, 100
7, 108719, Note_on_c, 5, 56, 0
7, 108720, Note_on_c, 5, 52, 100
7, 108749, Note_on_c, 5, 52, 0
7, 108750, Note_on_c, 5, 57, 100
7, 108779, Note_on_c, 5, 57, 0
7, 108780, Note_on_c, 5, 53, 100
7, 108809, Note_on_c, 5, 53, 0
7, 108810, Note_on_c, 5, 57, 100
7, 108839, Note_on_c, 5, 57, 0
7, 108840, Note_on_c, 5, 50, 100
7, 108899, Note_on_c, 5, 50, 0
7, 108900, Note_on_c, 5, 52, 100
7, 108959, Note_on_c, 5, 52, 0
7, 108960, Note_on_c, 5, 53, 100
7, 108989, Note_on_c, 5, 53, 0
7, 108990, Note_on_c, 5, 52, 100
7, 109019, Note_on_c, 5, 52, 0
7, 109020, Note_on_c, 5, 50, 100
7, 109049, Note_on_c, 5, 50, 0
7, 109050, Note_on_c, 5, 48, 100
7, 109079, Note_on_c, 5, 48, 0
7, 109080, Note_on_c, 5, 50, 100
7, 109109, Note_on_c, 5, 50, 0
7, 109110, Note_on_c, 5, 53, 100
7, 109139, Note_on_c, 5, 53, 0
7, 109140, Note_on_c, 5, 52, 100
7, 109169, Note_on_c, 5, 52, 0
7, 109170, Note_on_c, 5, 50, 100
7, 109199, Note_on_c, 5, 50, 0
7, 109200, Note_on_c, 5, 48, 100
7, 109229, Note_on_c, 5, 48, 0
7, 109230, Note_on_c, 5, 52, 100
7, 109259, Note_on_c, 5, 52, 0
7, 109260, Note_on_c, 5, 50, 100
7, 109289, Note_on_c, 5, 50, 0
7, 109290, Note_on_c, 5, 48, 100
7, 109319, Note_on_c, 5, 48, 0
7, 109320, Note_on_c, 5, 47, 100
7, 109349, Note_on_c, 5, 47, 0
7, 109350, Note_on_c, 5, 52, 100
7, 109379, Note_on_c, 5, 52, 0
7, 109380, Note_on_c, 5, 50, 100
7, 109409, Note_on_c, 5, 50, 0
7, 109410, Note_on_c, 5, 52, 100
7, 109439, Note_on_c, 5, 52, 0
7, 109440, Note_on_c, 5, 48, 100
7, 109469, Note_on_c, 5, 48, 0
7, 109470, Note_on_c, 5, 52, 100
7, 109499, Note_on_c, 5, 52, 0
7, 109500, Note_on_c, 5, 50, 100
7, 109529, Note_on_c, 5, 50, 0
7, 109530, Note_on_c, 5, 48, 100
7, 109559, Note_on_c, 5, 48, 0
7, 109560, Note_on_c, 5, 50, 100
7, 109589, Note_on_c, 5, 50, 0
7, 109590, Note_on_c, 5, 53, 100
7, 109619, Note_on_c, 5, 53, 0
7, 109620, Note_on_c, 5, 52, 100
7, 109649, Note_on_c, 5, 52, 0
7, 109650, Note_on_c, 5, 50, 100
7, 109679, Note_on_c, 5, 50, 0
7, 109680, Note_on_c, 5, 48, 100
7, 109709, Note_on_c, 5, 48, 0
7, 109710, Note_on_c, 5, 52, 100
7, 109739, Note_on_c, 5, 52, 0
7, 109740, Note_on_c, 5, 50, 100
7, 109769, Note_on_c, 5, 50, 0
7, 109770, Note_on_c, 5, 48, 100
7, 109799, Note_on_c, 5, 48, 0
7, 109800, Note_on_c, 5, 47, 100
7, 109829, Note_on_c, 5, 47, 0
7, 109830, Note_on_c, 5, 52, 100
7, 109859, Note_on_c, 5, 52, 0
7, 109860, Note_on_c, 5, 50, 100
7, 109889, Note_on_c, 5, 50, 0
7, 109890, Note_on_c, 5, 52, 100
7, 109919, Note_on_c, 5, 52, 0
7, 109920, Note_on_c, 5, 48, 100
7, 109979, Note_on_c, 5, 48, 0
7, 109980, Note_on_c, 5, 50, 100
7, 110039, Note_on_c, 5, 50, 0
7, 110040, Note_on_c, 5, 52, 100
7, 110099, Note_on_c, 5, 52, 0
7, 110100, Note_on_c, 5, 40, 100
7, 110159, Note_on_c, 5, 40, 0
7, 110160, Note_on_c, 5, 45, 100
7, 110219, Note_on_c, 5, 45, 0
7, 118560, Note_on_c, 5, 55, 100
7, 118589, Note_on_c, 5, 55, 0
7, 118590, Note_on_c, 5, 57, 100
7, 118619, Note_on_c, 5, 57, 0
7, 118620, Note_on_c, 5, 58, 100
7, 118649, Note_on_c, 5, 58, 0
7, 118650, Note_on_c, 5, 55, 100
7, 118679, Note_on_c, 5, 55, 0
7, 118680, Note_on_c, 5, 57, 100
7, 118709, Note_on_c, 5, 57, 0
7, 118710, Note_on_c, 5, 58, 100
7, 118739, Note_on_c, 5, 58, 0
7, 118740, Note_on_c, 5, 60, 100
7, 118769, Note_on_c, 5, 60, 0
7, 118770, Note_on_c, 5, 57, 100
7, 118799, Note_on_c, 5, 57, 0
7, 118800, Note_on_c, 5, 58, 100
7, 118829, Note_on_c, 5, 58, 0
7, 118830, Note_on_c, 5, 62, 100
7, 118859, Note_on_c, 5, 62, 0
7, 118860, Note_on_c, 5, 60, 100
7, 118889, Note_on_c, 5, 60, 0
7, 118890, Note_on_c, 5, 58, 100
7, 118919, Note_on_c, 5, 58, 0
7, 118920, Note_on_c, 5, 57, 100
7, 118949, Note_on_c, 5, 57, 0
7, 118950, Note_on_c, 5, 55, 100
7, 118979, Note_on_c, 5, 55, 0
7, 118980, Note_on_c, 5, 54, 100
7, 119009, Note_on_c, 5, 54, 0
7, 119010, Note_on_c, 5, 52, 100
7, 119039, Note_on_c, 5, 52, 0
7, 119040, Note_on_c, 5, 50, 100
7, 119099, Note_on_c, 5, 50, 0
7, 119100, Note_on_c, 5, 51, 100
7, 119159, Note_on_c, 5, 51, 0
7, 119160, Note_on_c, 5, 48, 100
7, 119219, Note_on_c, 5, 48, 0
7, 119220, Note_on_c, 5, 50, 100
7, 119279, Note_on_c, 5, 50, 0
7, 119520, Note_on_c, 5, 57, 100
7, 119549, Note_on_c, 5, 57, 0
7, 119550, Note_on_c, 5, 60, 100
7, 119579, Note_on_c, 5, 60, 0
7, 119580, Note_on_c, 5, 58, 100
7, 119609, Note_on_c, 5, 58, 0
7, 119610, Note_on_c, 5, 57, 100
7, 119639, Note_on_c, 5, 57, 0
7, 119640, Note_on_c, 5, 55, 100
7, 119669, Note_on_c, 5, 55, 0
7, 119670, Note_on_c, 5, 58, 100
7, 119699, Note_on_c, 5, 58, 0
7, 119700, Note_on_c, 5, 57, 100
7, 119729, Note_on_c, 5, 57, 0
7, 119730, Note_on_c, 5, 55, 100
7, 119759, Note_on_c, 5, 55, 0
7, 119760, Note_on_c, 5, 53, 100
7, 119789, Note_on_c, 5, 53, 0
7, 119790, Note_on_c, 5, 57, 100
7, 119819, Note_on_c, 5, 57, 0
7, 119820, Note_on_c, 5, 62, 100
7, 119849, Note_on_c, 5, 62, 0
7, 119850, Note_on_c, 5, 60, 100
7, 119879, Note_on_c, 5, 60, 0
7, 119880, Note_on_c, 5, 58, 100
7, 119909, Note_on_c, 5, 58, 0
7, 119910, Note_on_c, 5, 55, 100
7, 119939, Note_on_c, 5, 55, 0
7, 119940, Note_on_c, 5, 53, 100
7, 119969, Note_on_c, 5, 53, 0
7, 119970, Note_on_c, 5, 52, 100
7, 119999, Note_on_c, 5, 52, 0
7, 120000, Note_on_c, 5, 57, 100
7, 120029, Note_on_c, 5, 57, 0
7, 120030, Note_on_c, 5, 53, 100
7, 120059, Note_on_c, 5, 53, 0
7, 120060, Note_on_c, 5, 62, 100
7, 120119, Note_on_c, 5, 62, 0
7, 120120, Note_on_c, 5, 58, 100
7, 120179, Note_on_c, 5, 58, 0
7, 120180, Note_on_c, 5, 60, 100
7, 120239, Note_on_c, 5, 60, 0
7, 120240, Note_on_c, 5, 53, 100
7, 120299, Note_on_c, 5, 53, 0
7, 120480, Note_on_c, 5, 47, 100
7, 120539, Note_on_c, 5, 47, 0
7, 120540, Note_on_c, 5, 47, 100
7, 120599, Note_on_c, 5, 47, 0
7, 120600, Note_on_c, 5, 47, 100
7, 120659, Note_on_c, 5, 47, 0
7, 120660, Note_on_c, 5, 47, 100
7, 120719, Note_on_c, 5, 47, 0
7, 120720, Note_on_c, 5, 48, 100
7, 120779, Note_on_c, 5, 48, 0
7, 120960, Note_on_c, 5, 45, 100
7, 121019, Note_on_c, 5, 45, 0
7, 121020, Note_on_c, 5, 45, 100
7, 121079, Note_on_c, 5, 45, 0
7, 121080, Note_on_c, 5, 45, 100
7, 121139, Note_on_c, 5, 45, 0
7, 121140, Note_on_c, 5, 45, 100
7, 121199, Note_on_c, 5, 45, 0
7, 121200, Note_on_c, 5, 46, 100
7, 121214, Note_on_c, 5, 46, 0
7, 121440, Note_on_c, 5, 44, 100
7, 121469, Note_on_c, 5, 44, 0
7, 121470, Note_on_c, 5, 56, 100
7, 121499, Note_on_c, 5, 56, 0
7, 121500, Note_on_c, 5, 55, 100
7, 121529, Note_on_c, 5, 55, 0
7, 121530, Note_on_c, 5, 53, 100
7, 121559, Note_on_c, 5, 53, 0
7, 121560, Note_on_c, 5, 44, 100
7, 121589, Note_on_c, 5, 44, 0
7, 121590, Note_on_c, 5, 56, 100
7, 121619, Note_on_c, 5, 56, 0
7, 121620, Note_on_c, 5, 55, 100
7, 121649, Note_on_c, 5, 55, 0
7, 121650, Note_on_c, 5, 53, 100
7, 121679, Note_on_c, 5, 53, 0
7, 121680, Note_on_c, 5, 43, 100
7, 121709, Note_on_c, 5, 43, 0
7, 121710, Note_on_c, 5, 56, 100
7, 121739, Note_on_c, 5, 56, 0
7, 121740, Note_on_c, 5, 55, 100
7, 121769, Note_on_c, 5, 55, 0
7, 121770, Note_on_c, 5, 53, 100
7, 121799, Note_on_c, 5, 53, 0
7, 121800, Note_on_c, 5, 59, 100
7, 121829, Note_on_c, 5, 59, 0
7, 121830, Note_on_c, 5, 55, 100
7, 121859, Note_on_c, 5, 55, 0
7, 121860, Note_on_c, 5, 62, 100
7, 121889, Note_on_c, 5, 62, 0
7, 121890, Note_on_c, 5, 53, 100
7, 121919, Note_on_c, 5, 53, 0
7, 121920, Note_on_c, 5, 52, 100
7, 121949, Note_on_c, 5, 52, 0
7, 121950, Note_on_c, 5, 55, 100
7, 121979, Note_on_c, 5, 55, 0
7, 121980, Note_on_c, 5, 57, 100
7, 122009, Note_on_c, 5, 57, 0
7, 122010, Note_on_c, 5, 58, 100
7, 122039, Note_on_c, 5, 58, 0
7, 122040, Note_on_c, 5, 55, 100
7, 122069, Note_on_c, 5, 55, 0
7, 122070, Note_on_c, 5, 58, 100
7, 122099, Note_on_c, 5, 58, 0
7, 122100, Note_on_c, 5, 57, 100
7, 122129, Note_on_c, 5, 57, 0
7, 122130, Note_on_c, 5, 55, 100
7, 122159, Note_on_c, 5, 55, 0
7, 122160, Note_on_c, 5, 53, 100
7, 122189, Note_on_c, 5, 53, 0
7, 122190, Note_on_c, 5, 57, 100
7, 122219, Note_on_c, 5, 57, 0
7, 122220, Note_on_c, 5, 58, 100
7, 122249, Note_on_c, 5, 58, 0
7, 122250, Note_on_c, 5, 60, 100
7, 122279, Note_on_c, 5, 60, 0
7, 122280, Note_on_c, 5, 57, 100
7, 122309, Note_on_c, 5, 57, 0
7, 122310, Note_on_c, 5, 60, 100
7, 122339, Note_on_c, 5, 60, 0
7, 122340, Note_on_c, 5, 58, 100
7, 122369, Note_on_c, 5, 58, 0
7, 122370, Note_on_c, 5, 57, 100
7, 122399, Note_on_c, 5, 57, 0
7, 122400, Note_on_c, 5, 50, 100
7, 122429, Note_on_c, 5, 50, 0
7, 122430, Note_on_c, 5, 58, 100
7, 122459, Note_on_c, 5, 58, 0
7, 122460, Note_on_c, 5, 60, 100
7, 122489, Note_on_c, 5, 60, 0
7, 122490, Note_on_c, 5, 62, 100
7, 122519, Note_on_c, 5, 62, 0
7, 122520, Note_on_c, 5, 60, 100
7, 122549, Note_on_c, 5, 60, 0
7, 122550, Note_on_c, 5, 57, 100
7, 122579, Note_on_c, 5, 57, 0
7, 122580, Note_on_c, 5, 62, 100
7, 122609, Note_on_c, 5, 62, 0
7, 122610, Note_on_c, 5, 60, 100
7, 122639, Note_on_c, 5, 60, 0
7, 122640, Note_on_c, 5, 59, 100
7, 122699, Note_on_c, 5, 59, 0
7, 122700, Note_on_c, 5, 50, 100
7, 122759, Note_on_c, 5, 50, 0
7, 122760, Note_on_c, 5, 49, 100
7, 122819, Note_on_c, 5, 49, 0
7, 122820, Note_on_c, 5, 52, 100
7, 122879, Note_on_c, 5, 52, 0
7, 122880, Note_on_c, 5, 57, 100
7, 122939, Note_on_c, 5, 57, 0
7, 122940, Note_on_c, 5, 48, 100
7, 122999, Note_on_c, 5, 48, 0
7, 123000, Note_on_c, 5, 47, 100
7, 123059, Note_on_c, 5, 47, 0
7, 123060, Note_on_c, 5, 50, 100
7, 123119, Note_on_c, 5, 50, 0
7, 123840, Note_on_c, 5, 53, 100
7, 123869, Note_on_c, 5, 53, 0
7, 123870, Note_on_c, 5, 62, 100
7, 123899, Note_on_c, 5, 62, 0
7, 123900, Note_on_c, 5, 61, 100
7, 123929, Note_on_c, 5, 61, 0
7, 123930, Note_on_c, 5, 62, 100
7, 123959, Note_on_c, 5, 62, 0
7, 123960, Note_on_c, 5, 58, 100
7, 123989, Note_on_c, 5, 58, 0
7, 123990, Note_on_c, 5, 57, 100
7, 124019, Note_on_c, 5, 57, 0
7, 124020, Note_on_c, 5, 58, 100
7, 124049, Note_on_c, 5, 58, 0
7, 124050, Note_on_c, 5, 55, 100
7, 124079, Note_on_c, 5, 55, 0
7, 124080, Note_on_c, 5, 62, 100
7, 124109, Note_on_c, 5, 62, 0
7, 124110, Note_on_c, 5, 57, 100
7, 124139, Note_on_c, 5, 57, 0
7, 124140, Note_on_c, 5, 55, 100
7, 124169, Note_on_c, 5, 55, 0
7, 124170, Note_on_c, 5, 53, 100
7, 124199, Note_on_c, 5, 53, 0
7, 124200, Note_on_c, 5, 52, 100
7, 124229, Note_on_c, 5, 52, 0
7, 124230, Note_on_c, 5, 58, 100
7, 124259, Note_on_c, 5, 58, 0
7, 124260, Note_on_c, 5, 57, 100
7, 124289, Note_on_c, 5, 57, 0
7, 124290, Note_on_c, 5, 55, 100
7, 124319, Note_on_c, 5, 55, 0
7, 124320, Note_on_c, 5, 53, 100
7, 124349, Note_on_c, 5, 53, 0
7, 124350, Note_on_c, 5, 57, 100
7, 124379, Note_on_c, 5, 57, 0
7, 124380, Note_on_c, 5, 55, 100
7, 124409, Note_on_c, 5, 55, 0
7, 124410, Note_on_c, 5, 53, 100
7, 124439, Note_on_c, 5, 53, 0
7, 124440, Note_on_c, 5, 55, 100
7, 124499, Note_on_c, 5, 55, 0
7, 124500, Note_on_c, 5, 57, 100
7, 124559, Note_on_c, 5, 57, 0
7, 124560, Note_on_c, 5, 62, 100
7, 124589, Note_on_c, 5, 62, 0
7, 124590, Note_on_c, 5, 50, 100
7, 124619, Note_on_c, 5, 50, 0
7, 124620, Note_on_c, 5, 53, 100
7, 124649, Note_on_c, 5, 53, 0
7, 124650, Note_on_c, 5, 57, 100
7, 124679, Note_on_c, 5, 57, 0
7, 124680, Note_on_c, 5, 62, 100
7, 124709, Note_on_c, 5, 62, 0
7, 124710, Note_on_c, 5, 57, 100
7, 124739, Note_on_c, 5, 57, 0
7, 124740, Note_on_c, 5, 62, 100
7, 124769, Note_on_c, 5, 62, 0
7, 124770, Note_on_c, 5, 65, 100
7, 124799, Note_on_c, 5, 65, 0
7, 124800, Note_on_c, 5, 70, 100
7, 124829, Note_on_c, 5, 70, 0
7, 124830, Note_on_c, 5, 74, 100
7, 124859, Note_on_c, 5, 74, 0
7, 124860, Note_on_c, 5, 72, 100
7, 124889, Note_on_c, 5, 72, 0
7, 124890, Note_on_c, 5, 70, 100
7, 124919, Note_on_c, 5, 70, 0
7, 124920, Note_on_c, 5, 69, 100
7, 124949, Note_on_c, 5, 69, 0
7, 124950, Note_on_c, 5, 72, 100
7, 124979, Note_on_c, 5, 72, 0
7, 124980, Note_on_c, 5, 70, 100
7, 125009, Note_on_c, 5, 70, 0
7, 125010, Note_on_c, 5, 69, 100
7, 125039, Note_on_c, 5, 69, 0
7, 125040, Note_on_c, 5, 67, 100
7, 125069, Note_on_c, 5, 67, 0
7, 125070, Note_on_c, 5, 70, 100
7, 125099, Note_on_c, 5, 70, 0
7, 125100, Note_on_c, 5, 69, 100
7, 125129, Note_on_c, 5, 69, 0
7, 125130, Note_on_c, 5, 67, 100
7, 125159, Note_on_c, 5, 67, 0
7, 125160, Note_on_c, 5, 62, 100
7, 125189, Note_on_c, 5, 62, 0
7, 125190, Note_on_c, 5, 69, 100
7, 125219, Note_on_c, 5, 69, 0
7, 125220, Note_on_c, 5, 67, 100
7, 125249, Note_on_c, 5, 67, 0
7, 125250, Note_on_c, 5, 65, 100
7, 125279, Note_on_c, 5, 65, 0
7, 125280, Note_on_c, 5, 64, 100
7, 125309, Note_on_c, 5, 64, 0
7, 125310, Note_on_c, 5, 67, 100
7, 125339, Note_on_c, 5, 67, 0
7, 125340, Note_on_c, 5, 65, 100
7, 125369, Note_on_c, 5, 65, 0
7, 125370, Note_on_c, 5, 64, 100
7, 125399, Note_on_c, 5, 64, 0
7, 125400, Note_on_c, 5, 62, 100
7, 125429, Note_on_c, 5, 62, 0
7, 125430, Note_on_c, 5, 65, 100
7, 125459, Note_on_c, 5, 65, 0
7, 125460, Note_on_c, 5, 64, 100
7, 125489, Note_on_c, 5, 64, 0
7, 125490, Note_on_c, 5, 62, 100
7, 125519, Note_on_c, 5, 62, 0
7, 125520, Note_on_c, 5, 60, 100
7, 125549, Note_on_c, 5, 60, 0
7, 125550, Note_on_c, 5, 64, 100
7, 125579, Note_on_c, 5, 64, 0
7, 125580, Note_on_c, 5, 62, 100
7, 125609, Note_on_c, 5, 62, 0
7, 125610, Note_on_c, 5, 60, 100
7, 125639, Note_on_c, 5, 60, 0
7, 125640, Note_on_c, 5, 55, 100
7, 125669, Note_on_c, 5, 55, 0
7, 125670, Note_on_c, 5, 62, 100
7, 125699, Note_on_c, 5, 62, 0
7, 125700, Note_on_c, 5, 60, 100
7, 125729, Note_on_c, 5, 60, 0
7, 125730, Note_on_c, 5, 58, 100
7, 125759, Note_on_c, 5, 58, 0
7, 125760, Note_on_c, 5, 57, 100
7, 125789, Note_on_c, 5, 57, 0
7, 125790, Note_on_c, 5, 60, 100
7, 125819, Note_on_c, 5, 60, 0
7, 125820, Note_on_c, 5, 58, 100
7, 125849, Note_on_c, 5, 58, 0
7, 125850, Note_on_c, 5, 57, 100
7, 125879, Note_on_c, 5, 57, 0
7, 125880, Note_on_c, 5, 55, 100
7, 125909, Note_on_c, 5, 55, 0
7, 125910, Note_on_c, 5, 58, 100
7, 125939, Note_on_c, 5, 58, 0
7, 125940, Note_on_c, 5, 57, 100
7, 125969, Note_on_c, 5, 57, 0
7, 125970, Note_on_c, 5, 55, 100
7, 125999, Note_on_c, 5, 55, 0
7, 126000, Note_on_c, 5, 53, 100
7, 126029, Note_on_c, 5, 53, 0
7, 126030, Note_on_c, 5, 57, 100
7, 126059, Note_on_c, 5, 57, 0
7, 126060, Note_on_c, 5, 55, 100
7, 126089, Note_on_c, 5, 55, 0
7, 126090, Note_on_c, 5, 53, 100
7, 126119, Note_on_c, 5, 53, 0
7, 126120, Note_on_c, 5, 48, 100
7, 126149, Note_on_c, 5, 48, 0
7, 126150, Note_on_c, 5, 55, 100
7, 126179, Note_on_c, 5, 55, 0
7, 126180, Note_on_c, 5, 53, 100
7, 126209, Note_on_c, 5, 53, 0
7, 126210, Note_on_c, 5, 51, 100
7, 126239, Note_on_c, 5, 51, 0
7, 126240, Note_on_c, 5, 50, 100
7, 126269, Note_on_c, 5, 50, 0
7, 126270, Note_on_c, 5, 53, 100
7, 126299, Note_on_c, 5, 53, 0
7, 126300, Note_on_c, 5, 51, 100
7, 126329, Note_on_c, 5, 51, 0
7, 126330, Note_on_c, 5, 50, 100
7, 126359, Note_on_c, 5, 50, 0
7, 126360, Note_on_c, 5, 48, 100
7, 126389, Note_on_c, 5, 48, 0
7, 126390, Note_on_c, 5, 51, 100
7, 126419, Note_on_c, 5, 51, 0
7, 126420, Note_on_c, 5, 50, 100
7, 126449, Note_on_c, 5, 50, 0
7, 126450, Note_on_c, 5, 48, 100
7, 126479, Note_on_c, 5, 48, 0
7, 126480, Note_on_c, 5, 46, 100
7, 126509, Note_on_c, 5, 46, 0
7, 126510, Note_on_c, 5, 50, 100
7, 126539, Note_on_c, 5, 50, 0
7, 126540, Note_on_c, 5, 48, 100
7, 126569, Note_on_c, 5, 48, 0
7, 126570, Note_on_c, 5, 46, 100
7, 126599, Note_on_c, 5, 46, 0
7, 126600, Note_on_c, 5, 41, 100
7, 126629, Note_on_c, 5, 41, 0
7, 126630, Note_on_c, 5, 48, 100
7, 126659, Note_on_c, 5, 48, 0
7, 126660, Note_on_c, 5, 46, 100
7, 126689, Note_on_c, 5, 46, 0
7, 126690, Note_on_c, 5, 45, 100
7, 126719, Note_on_c, 5, 45, 0
7, 126720, Note_on_c, 5, 43, 100
7, 126749, Note_on_c, 5, 43, 0
7, 126750, Note_on_c, 5, 46, 100
7, 126779, Note_on_c, 5, 46, 0
7, 126780, Note_on_c, 5, 45, 100
7, 126809, Note_on_c, 5, 45, 0
7, 126810, Note_on_c, 5, 43, 100
7, 126839, Note_on_c, 5, 43, 0
7, 126840, Note_on_c, 5, 41, 100
7, 126869, Note_on_c, 5, 41, 0
7, 126870, Note_on_c, 5, 45, 100
7, 126899, Note_on_c, 5, 45, 0
7, 126900, Note_on_c, 5, 43, 100
7, 126929, Note_on_c, 5, 43, 0
7, 126930, Note_on_c, 5, 41, 100
7, 126959, Note_on_c, 5, 41, 0
7, 126960, Note_on_c, 5, 40, 100
7, 126960, Note_on_c, 5, 55, 100
7, 126989, Note_on_c, 5, 55, 0
7, 126989, Note_on_c, 5, 40, 0
7, 126990, Note_on_c, 5, 43, 100
7, 126990, Note_on_c, 5, 52, 100
7, 127019, Note_on_c, 5, 52, 0
7, 127019, Note_on_c, 5, 43, 0
7, 127020, Note_on_c, 5, 41, 100
7, 127020, Note_on_c, 5, 50, 100
7, 127049, Note_on_c, 5, 50, 0
7, 127049, Note_on_c, 5, 41, 0
7, 127050, Note_on_c, 5, 40, 100
7, 127050, Note_on_c, 5, 49, 100
7, 127079, Note_on_c, 5, 49, 0
7, 127079, Note_on_c, 5, 40, 0
7, 127080, Note_on_c, 5, 38, 100
7, 127080, Note_on_c, 5, 53, 100
7, 127109, Note_on_c, 5, 53, 0
7, 127109, Note_on_c, 5, 38, 0
7, 127110, Note_on_c, 5, 41, 100
7, 127110, Note_on_c, 5, 50, 100
7, 127139, Note_on_c, 5, 50, 0
7, 127139, Note_on_c, 5, 41, 0
7, 127140, Note_on_c, 5, 40, 100
7, 127140, Note_on_c, 5, 49, 100
7, 127169, Note_on_c, 5, 49, 0
7, 127169, Note_on_c, 5, 40, 0
7, 127170, Note_on_c, 5, 38, 100
7, 127170, Note_on_c, 5, 47, 100
7, 127199, Note_on_c, 5, 47, 0
7, 127199, Note_on_c, 5, 38, 0
7, 127200, Note_on_c, 5, 37, 100
7, 127200, Note_on_c, 5, 52, 100
7, 127229, Note_on_c, 5, 52, 0
7, 127229, Note_on_c, 5, 37, 0
7, 127230, Note_on_c, 5, 40, 100
7, 127230, Note_on_c, 5, 49, 100
7, 127259, Note_on_c, 5, 49, 0
7, 127259, Note_on_c, 5, 40, 0
7, 127260, Note_on_c, 5, 38, 100
7, 127260, Note_on_c, 5, 47, 100
7, 127289, Note_on_c, 5, 47, 0
7, 127289, Note_on_c, 5, 38, 0
7, 127290, Note_on_c, 5, 37, 100
7, 127290, Note_on_c, 5, 45, 100
7, 127319, Note_on_c, 5, 45, 0
7, 127319, Note_on_c, 5, 37, 0
7, 127320, Note_on_c, 5, 35, 100
7, 127320, Note_on_c, 5, 50, 100
7, 127349, Note_on_c, 5, 50, 0
7, 127349, Note_on_c, 5, 35, 0
7, 127350, Note_on_c, 5, 38, 100
7, 127350, Note_on_c, 5, 47, 100
7, 127379, Note_on_c, 5, 47, 0
7, 127379, Note_on_c, 5, 38, 0
7, 127380, Note_on_c, 5, 37, 100
7, 127380, Note_on_c, 5, 45, 100
7, 127409, Note_on_c, 5, 45, 0
7, 127409, Note_on_c, 5, 37, 0
7, 127410, Note_on_c, 5, 35, 100
7, 127410, Note_on_c, 5, 44, 100
7, 127439, Note_on_c, 5, 44, 0
7, 127439, Note_on_c, 5, 35, 0
7, 127440, Note_on_c, 5, 33, 100
7, 127440, Note_on_c, 5, 52, 100
7, 127454, Note_on_c, 5, 52, 0
7, 127455, Note_on_c, 5, 49, 100
7, 127469, Note_on_c, 5, 49, 0
7, 127470, Note_on_c, 5, 45, 100
7, 127484, Note_on_c, 5, 45, 0
7, 127485, Note_on_c, 5, 47, 100
7, 127499, Note_on_c, 5, 47, 0
7, 127499, Note_on_c, 5, 33, 0
7, 127500, Note_on_c, 5, 49, 100
7, 127514, Note_on_c, 5, 49, 0
7, 127515, Note_on_c, 5, 50, 100
7, 127529, Note_on_c, 5, 50, 0
7, 127530, Note_on_c, 5, 52, 100
7, 127544, Note_on_c, 5, 52, 0
7, 127545, Note_on_c, 5, 53, 100
7, 127559, Note_on_c, 5, 53, 0
7, 127560, Note_on_c, 5, 55, 100
7, 127574, Note_on_c, 5, 55, 0
7, 127575, Note_on_c, 5, 57, 100
7, 127589, Note_on_c, 5, 57, 0
7, 127590, Note_on_c, 5, 59, 100
7, 127604, Note_on_c, 5, 59, 0
7, 127605, Note_on_c, 5, 61, 100
7, 127619, Note_on_c, 5, 61, 0
7, 127620, Note_on_c, 5, 62, 100
7, 127634, Note_on_c, 5, 62, 0
7, 127635, Note_on_c, 5, 64, 100
7, 127649, Note_on_c, 5, 64, 0
7, 127650, Note_on_c, 5, 65, 100
7, 127664, Note_on_c, 5, 65, 0
7, 127665, Note_on_c, 5, 67, 100
7, 127679, Note_on_c, 5, 67, 0
7, 127920, Note_on_c, 5, 62, 100
7, 127949, Note_on_c, 5, 62, 0
7, 127950, Note_on_c, 5, 64, 100
7, 127979, Note_on_c, 5, 64, 0
7, 127980, Note_on_c, 5, 65, 100
7, 128009, Note_on_c, 5, 65, 0
7, 128010, Note_on_c, 5, 62, 100
7, 128039, Note_on_c, 5, 62, 0
7, 128040, Note_on_c, 5, 64, 100
7, 128069, Note_on_c, 5, 64, 0
7, 128070, Note_on_c, 5, 65, 100
7, 128099, Note_on_c, 5, 65, 0
7, 128100, Note_on_c, 5, 67, 100
7, 128129, Note_on_c, 5, 67, 0
7, 128130, Note_on_c, 5, 64, 100
7, 128159, Note_on_c, 5, 64, 0
7, 128160, Note_on_c, 5, 65, 100
7, 128189, Note_on_c, 5, 65, 0
7, 128190, Note_on_c, 5, 69, 100
7, 128219, Note_on_c, 5, 69, 0
7, 128220, Note_on_c, 5, 67, 100
7, 128249, Note_on_c, 5, 67, 0
7, 128250, Note_on_c, 5, 65, 100
7, 128279, Note_on_c, 5, 65, 0
7, 128280, Note_on_c, 5, 64, 100
7, 128309, Note_on_c, 5, 64, 0
7, 128310, Note_on_c, 5, 62, 100
7, 128339, Note_on_c, 5, 62, 0
7, 128340, Note_on_c, 5, 61, 100
7, 128369, Note_on_c, 5, 61, 0
7, 128370, Note_on_c, 5, 59, 100
7, 128399, Note_on_c, 5, 59, 0
7, 128400, Note_on_c, 5, 57, 100
7, 128459, Note_on_c, 5, 57, 0
7, 128460, Note_on_c, 5, 58, 100
7, 128519, Note_on_c, 5, 58, 0
7, 128520, Note_on_c, 5, 55, 100
7, 128579, Note_on_c, 5, 55, 0
7, 128580, Note_on_c, 5, 57, 100
7, 128639, Note_on_c, 5, 57, 0
7, 128640, Note_on_c, 5, 58, 100
7, 128699, Note_on_c, 5, 58, 0
7, 128700, Note_on_c, 5, 46, 100
7, 128759, Note_on_c, 5, 46, 0
7, 128760, Note_on_c, 5, 47, 100
7, 128819, Note_on_c, 5, 47, 0
7, 128820, Note_on_c, 5, 59, 100
7, 128879, Note_on_c, 5, 59, 0
7, 128880, Note_on_c, 5, 60, 100
7, 128939, Note_on_c, 5, 60, 0
7, 128940, Note_on_c, 5, 48, 100
7, 128999, Note_on_c, 5, 48, 0
7, 129000, Note_on_c, 5, 49, 100
7, 129059, Note_on_c, 5, 49, 0
7, 129060, Note_on_c, 5, 61, 100
7, 129119, Note_on_c, 5, 61, 0
7, 129120, Note_on_c, 5, 62, 100
7, 129179, Note_on_c, 5, 62, 0
7, 129180, Note_on_c, 5, 58, 100
7, 129239, Note_on_c, 5, 58, 0
7, 129240, Note_on_c, 5, 55, 100
7, 129299, Note_on_c, 5, 55, 0
7, 129300, Note_on_c, 5, 57, 100
7, 129359, Note_on_c, 5, 57, 0
7, 129360, Note_on_c, 5, 50, 100
7, 129389, Note_on_c, 5, 50, 0
7, 129390, Note_on_c, 5, 57, 100
7, 129419, Note_on_c, 5, 57, 0
7, 129420, Note_on_c, 5, 55, 100
7, 129449, Note_on_c, 5, 55, 0
7, 129450, Note_on_c, 5, 53, 100
7, 129479, Note_on_c, 5, 53, 0
7, 129480, Note_on_c, 5, 58, 100
7, 129509, Note_on_c, 5, 58, 0
7, 129510, Note_on_c, 5, 55, 100
7, 129539, Note_on_c, 5, 55, 0
7, 129540, Note_on_c, 5, 53, 100
7, 129569, Note_on_c, 5, 53, 0
7, 129570, Note_on_c, 5, 52, 100
7, 129599, Note_on_c, 5, 52, 0
7, 129600, Note_on_c, 5, 57, 100
7, 129629, Note_on_c, 5, 57, 0
7, 129630, Note_on_c, 5, 53, 100
7, 129659, Note_on_c, 5, 53, 0
7, 129660, Note_on_c, 5, 52, 100
7, 129689, Note_on_c, 5, 52, 0
7, 129690, Note_on_c, 5, 50, 100
7, 129719, Note_on_c, 5, 50, 0
7, 129720, Note_on_c, 5, 55, 100
7, 129749, Note_on_c, 5, 55, 0
7, 129750, Note_on_c, 5, 53, 100
7, 129779, Note_on_c, 5, 53, 0
7, 129780, Note_on_c, 5, 52, 100
7, 129809, Note_on_c, 5, 52, 0
7, 129810, Note_on_c, 5, 50, 100
7, 129839, Note_on_c, 5, 50, 0
7, 129840, Note_on_c, 5, 57, 100
7, 129869, Note_on_c, 5, 57, 0
7, 129870, Note_on_c, 5, 53, 100
7, 129899, Note_on_c, 5, 53, 0
7, 129900, Note_on_c, 5, 52, 100
7, 129929, Note_on_c, 5, 52, 0
7, 129930, Note_on_c, 5, 50, 100
7, 129959, Note_on_c, 5, 50, 0
7, 129960, Note_on_c, 5, 58, 100
7, 129989, Note_on_c, 5, 58, 0
7, 129990, Note_on_c, 5, 55, 100
7, 130019, Note_on_c, 5, 55, 0
7, 130020, Note_on_c, 5, 53, 100
7, 130049, Note_on_c, 5, 53, 0
7, 130050, Note_on_c, 5, 52, 100
7, 130079, Note_on_c, 5, 52, 0
7, 130080, Note_on_c, 5, 57, 100
7, 130109, Note_on_c, 5, 57, 0
7, 130110, Note_on_c, 5, 53, 100
7, 130139, Note_on_c, 5, 53, 0
7, 130140, Note_on_c, 5, 52, 100
7, 130169, Note_on_c, 5, 52, 0
7, 130170, Note_on_c, 5, 50, 100
7, 130199, Note_on_c, 5, 50, 0
7, 130200, Note_on_c, 5, 55, 100
7, 130229, Note_on_c, 5, 55, 0
7, 130230, Note_on_c, 5, 53, 100
7, 130259, Note_on_c, 5, 53, 0
7, 130260, Note_on_c, 5, 52, 100
7, 130289, Note_on_c, 5, 52, 0
7, 130290, Note_on_c, 5, 55, 100
7, 130319, Note_on_c, 5, 55, 0
7, 130320, Note_on_c, 5, 53, 100
7, 130349, Note_on_c, 5, 53, 0
7, 130350, Note_on_c, 5, 50, 100
7, 130379, Note_on_c, 5, 50, 0
7, 130380, Note_on_c, 5, 55, 100
7, 130439, Note_on_c, 5, 55, 0
7, 130440, Note_on_c, 5, 57, 100
7, 130499, Note_on_c, 5, 57, 0
7, 130500, Note_on_c, 5, 45, 100
7, 130559, Note_on_c, 5, 45, 0
7, 130560, Note_on_c, 5, 50, 100
7, 130560, Note_on_c, 5, 38, 100
7, 130799, Note_on_c, 5, 38, 0
7, 130799, Note_on_c, 5, 50, 0
7, 130799, End_track
8, 0, Start_track
8, 0, MIDI_port, 0
8, 0, Title_t, "clave h ii"
8, 0, Program_c, 6, 6
8, 60, Note_on_c, 6, 62, 110
8, 120, Note_on_c, 6, 62, 0
8, 120, Note_on_c, 6, 64, 110
8, 180, Note_on_c, 6, 64, 0
8, 180, Note_on_c, 6, 65, 110
8, 240, Note_on_c, 6, 65, 0
8, 240, Note_on_c, 6, 65, 110
8, 300, Note_on_c, 6, 65, 0
8, 300, Note_on_c, 6, 67, 110
8, 360, Note_on_c, 6, 67, 0
8, 360, Note_on_c, 6, 69, 110
8, 420, Note_on_c, 6, 69, 0
8, 420, Note_on_c, 6, 69, 110
8, 480, Note_on_c, 6, 69, 0
8, 480, Note_on_c, 6, 70, 110
8, 540, Note_on_c, 6, 70, 0
8, 540, Note_on_c, 6, 69, 110
8, 600, Note_on_c, 6, 69, 0
8, 600, Note_on_c, 6, 67, 110
8, 630, Note_on_c, 6, 67, 0
8, 630, Note_on_c, 6, 65, 110
8, 660, Note_on_c, 6, 65, 0
8, 660, Note_on_c, 6, 64, 110
8, 690, Note_on_c, 6, 64, 0
8, 690, Note_on_c, 6, 62, 110
8, 720, Note_on_c, 6, 62, 0
8, 720, Note_on_c, 6, 61, 110
8, 780, Note_on_c, 6, 61, 0
8, 780, Note_on_c, 6, 57, 110
8, 810, Note_on_c, 6, 57, 0
8, 810, Note_on_c, 6, 59, 110
8, 840, Note_on_c, 6, 59, 0
8, 840, Note_on_c, 6, 61, 110
8, 870, Note_on_c, 6, 61, 0
8, 870, Note_on_c, 6, 62, 110
8, 900, Note_on_c, 6, 62, 0
8, 900, Note_on_c, 6, 64, 110
8, 960, Note_on_c, 6, 64, 0
8, 960, Note_on_c, 6, 64, 110
8, 1020, Note_on_c, 6, 64, 0
8, 1020, Note_on_c, 6, 65, 110
8, 1080, Note_on_c, 6, 65, 0
8, 1080, Note_on_c, 6, 64, 110
8, 1140, Note_on_c, 6, 64, 0
8, 1140, Note_on_c, 6, 57, 110
8, 1170, Note_on_c, 6, 57, 0
8, 1170, Note_on_c, 6, 59, 110
8, 1200, Note_on_c, 6, 59, 0
8, 1200, Note_on_c, 6, 61, 110
8, 1230, Note_on_c, 6, 61, 0
8, 1230, Note_on_c, 6, 62, 110
8, 1260, Note_on_c, 6, 62, 0
8, 1260, Note_on_c, 6, 64, 110
8, 1320, Note_on_c, 6, 64, 0
8, 1320, Note_on_c, 6, 64, 110
8, 1380, Note_on_c, 6, 64, 0
8, 1380, Note_on_c, 6, 65, 110
8, 1440, Note_on_c, 6, 65, 0
8, 1440, Note_on_c, 6, 64, 110
8, 1500, Note_on_c, 6, 64, 0
8, 1500, Note_on_c, 6, 57, 110
8, 1530, Note_on_c, 6, 57, 0
8, 1530, Note_on_c, 6, 59, 110
8, 1560, Note_on_c, 6, 59, 0
8, 1560, Note_on_c, 6, 61, 110
8, 1590, Note_on_c, 6, 61, 0
8, 1590, Note_on_c, 6, 62, 110
8, 1620, Note_on_c, 6, 62, 0
8, 1620, Note_on_c, 6, 64, 110
8, 1650, Note_on_c, 6, 64, 0
8, 1650, Note_on_c, 6, 62, 110
8, 1680, Note_on_c, 6, 62, 0
8, 1680, Note_on_c, 6, 61, 110
8, 1710, Note_on_c, 6, 61, 0
8, 1710, Note_on_c, 6, 62, 110
8, 1740, Note_on_c, 6, 62, 0
8, 1740, Note_on_c, 6, 64, 110
8, 1770, Note_on_c, 6, 64, 0
8, 1770, Note_on_c, 6, 65, 110
8, 1800, Note_on_c, 6, 65, 0
8, 1800, Note_on_c, 6, 67, 110
8, 1830, Note_on_c, 6, 67, 0
8, 1830, Note_on_c, 6, 65, 110
8, 1860, Note_on_c, 6, 65, 0
8, 1860, Note_on_c, 6, 64, 110
8, 1890, Note_on_c, 6, 64, 0
8, 1890, Note_on_c, 6, 65, 110
8, 1920, Note_on_c, 6, 65, 0
8, 1920, Note_on_c, 6, 67, 110
8, 1950, Note_on_c, 6, 67, 0
8, 1950, Note_on_c, 6, 69, 110
8, 1980, Note_on_c, 6, 69, 0
8, 1980, Note_on_c, 6, 70, 110
8, 2010, Note_on_c, 6, 70, 0
8, 2010, Note_on_c, 6, 69, 110
8, 2040, Note_on_c, 6, 69, 0
8, 2040, Note_on_c, 6, 67, 110
8, 2070, Note_on_c, 6, 67, 0
8, 2070, Note_on_c, 6, 65, 110
8, 2100, Note_on_c, 6, 65, 0
8, 2100, Note_on_c, 6, 64, 110
8, 2130, Note_on_c, 6, 64, 0
8, 2130, Note_on_c, 6, 62, 110
8, 2160, Note_on_c, 6, 62, 0
8, 2160, Note_on_c, 6, 61, 110
8, 2190, Note_on_c, 6, 61, 0
8, 2190, Note_on_c, 6, 64, 110
8, 2220, Note_on_c, 6, 64, 0
8, 2220, Note_on_c, 6, 57, 110
8, 2250, Note_on_c, 6, 57, 0
8, 2250, Note_on_c, 6, 61, 110
8, 2280, Note_on_c, 6, 61, 0
8, 2280, Note_on_c, 6, 62, 110
8, 2340, Note_on_c, 6, 62, 0
8, 2370, Note_on_c, 6, 55, 110
8, 2400, Note_on_c, 6, 55, 0
8, 2400, Note_on_c, 6, 57, 110
8, 2460, Note_on_c, 6, 57, 0
8, 2460, Note_on_c, 6, 57, 110
8, 2520, Note_on_c, 6, 57, 0
8, 2550, Note_on_c, 6, 62, 110
8, 2580, Note_on_c, 6, 62, 0
8, 2580, Note_on_c, 6, 65, 110
8, 2610, Note_on_c, 6, 65, 0
8, 2610, Note_on_c, 6, 69, 110
8, 2640, Note_on_c, 6, 69, 0
8, 2640, Note_on_c, 6, 74, 110
8, 2670, Note_on_c, 6, 74, 0
8, 2670, Note_on_c, 6, 73, 110
8, 2700, Note_on_c, 6, 73, 0
8, 2700, Note_on_c, 6, 74, 110
8, 2760, Note_on_c, 6, 74, 0
8, 2760, Note_on_c, 6, 65, 110
8, 2760, Note_on_c, 6, 69, 110
8, 2820, Note_on_c, 6, 69, 0
8, 2820, Note_on_c, 6, 65, 0
8, 2820, Note_on_c, 6, 64, 110
8, 2820, Note_on_c, 6, 67, 110
8, 2880, Note_on_c, 6, 67, 0
8, 2880, Note_on_c, 6, 64, 0
8, 2880, Note_on_c, 6, 65, 110
8, 2880, Note_on_c, 6, 62, 110
8, 2910, Note_on_c, 6, 65, 0
8, 2910, Note_on_c, 6, 69, 110
8, 2940, Note_on_c, 6, 69, 0
8, 2940, Note_on_c, 6, 62, 0
8, 2940, Note_on_c, 6, 67, 110
8, 2970, Note_on_c, 6, 67, 0
8, 2970, Note_on_c, 6, 65, 110
8, 3000, Note_on_c, 6, 65, 0
8, 3000, Note_on_c, 6, 64, 110
8, 3030, Note_on_c, 6, 64, 0
8, 3030, Note_on_c, 6, 62, 110
8, 3060, Note_on_c, 6, 62, 0
8, 3060, Note_on_c, 6, 61, 110
8, 3090, Note_on_c, 6, 61, 0
8, 3090, Note_on_c, 6, 59, 110
8, 3120, Note_on_c, 6, 59, 0
8, 3120, Note_on_c, 6, 61, 110
8, 3150, Note_on_c, 6, 61, 0
8, 3150, Note_on_c, 6, 62, 110
8, 3180, Note_on_c, 6, 62, 0
8, 3180, Note_on_c, 6, 61, 110
8, 3210, Note_on_c, 6, 61, 0
8, 3210, Note_on_c, 6, 62, 110
8, 3240, Note_on_c, 6, 62, 0
8, 3240, Note_on_c, 6, 64, 110
8, 3270, Note_on_c, 6, 64, 0
8, 3270, Note_on_c, 6, 65, 110
8, 3300, Note_on_c, 6, 65, 0
8, 3300, Note_on_c, 6, 64, 110
8, 3330, Note_on_c, 6, 64, 0
8, 3330, Note_on_c, 6, 62, 110
8, 3360, Note_on_c, 6, 62, 0
8, 3360, Note_on_c, 6, 61, 110
8, 3390, Note_on_c, 6, 61, 0
8, 3390, Note_on_c, 6, 59, 110
8, 3420, Note_on_c, 6, 59, 0
8, 3420, Note_on_c, 6, 57, 110
8, 3480, Note_on_c, 6, 57, 0
8, 3480, Note_on_c, 6, 67, 110
8, 3480, Note_on_c, 6, 69, 110
8, 3480, Note_on_c, 6, 73, 110
8, 3540, Note_on_c, 6, 73, 0
8, 3540, Note_on_c, 6, 69, 0
8, 3540, Note_on_c, 6, 67, 0
8, 3540, Note_on_c, 6, 65, 110
8, 3540, Note_on_c, 6, 69, 110
8, 3540, Note_on_c, 6, 74, 110
8, 3600, Note_on_c, 6, 74, 0
8, 3600, Note_on_c, 6, 69, 0
8, 3600, Note_on_c, 6, 65, 0
8, 3600, Note_on_c, 6, 69, 110
8, 3600, Note_on_c, 6, 73, 110
8, 3600, Note_on_c, 6, 76, 110
8, 3660, Note_on_c, 6, 76, 0
8, 3660, Note_on_c, 6, 73, 0
8, 3660, Note_on_c, 6, 69, 0
8, 3660, Note_on_c, 6, 57, 110
8, 3690, Note_on_c, 6, 57, 0
8, 3690, Note_on_c, 6, 59, 110
8, 3720, Note_on_c, 6, 59, 0
8, 3720, Note_on_c, 6, 61, 110
8, 3750, Note_on_c, 6, 61, 0
8, 3750, Note_on_c, 6, 62, 110
8, 3780, Note_on_c, 6, 62, 0
8, 3780, Note_on_c, 6, 64, 110
8, 3840, Note_on_c, 6, 64, 0
8, 3840, Note_on_c, 6, 57, 110
8, 3840, Note_on_c, 6, 61, 110
8, 3840, Note_on_c, 6, 64, 110
8, 3900, Note_on_c, 6, 64, 0
8, 3900, Note_on_c, 6, 61, 0
8, 3900, Note_on_c, 6, 57, 0
8, 3900, Note_on_c, 6, 57, 110
8, 3900, Note_on_c, 6, 62, 110
8, 3900, Note_on_c, 6, 65, 110
8, 3960, Note_on_c, 6, 65, 0
8, 3960, Note_on_c, 6, 62, 0
8, 3960, Note_on_c, 6, 57, 0
8, 3960, Note_on_c, 6, 59, 110
8, 3960, Note_on_c, 6, 64, 110
8, 4020, Note_on_c, 6, 64, 0
8, 4020, Note_on_c, 6, 59, 0
8, 4020, Note_on_c, 6, 69, 110
8, 4080, Note_on_c, 6, 69, 0
8, 4080, Note_on_c, 6, 72, 110
8, 4095, Note_on_c, 6, 72, 0
8, 4095, Note_on_c, 6, 71, 110
8, 4110, Note_on_c, 6, 71, 0
8, 4110, Note_on_c, 6, 69, 110
8, 4125, Note_on_c, 6, 69, 0
8, 4125, Note_on_c, 6, 71, 110
8, 4140, Note_on_c, 6, 71, 0
8, 4140, Note_on_c, 6, 72, 110
8, 4200, Note_on_c, 6, 72, 0
8, 4200, Note_on_c, 6, 72, 110
8, 4260, Note_on_c, 6, 72, 0
8, 4260, Note_on_c, 6, 76, 110
8, 4275, Note_on_c, 6, 76, 0
8, 4275, Note_on_c, 6, 74, 110
8, 4290, Note_on_c, 6, 74, 0
8, 4290, Note_on_c, 6, 72, 110
8, 4305, Note_on_c, 6, 72, 0
8, 4305, Note_on_c, 6, 74, 110
8, 4320, Note_on_c, 6, 74, 0
8, 4320, Note_on_c, 6, 76, 110
8, 4380, Note_on_c, 6, 76, 0
8, 4380, Note_on_c, 6, 76, 110
8, 4440, Note_on_c, 6, 76, 0
8, 4440, Note_on_c, 6, 77, 110
8, 4500, Note_on_c, 6, 77, 0
8, 4500, Note_on_c, 6, 76, 110
8, 4560, Note_on_c, 6, 76, 0
8, 4560, Note_on_c, 6, 74, 110
8, 4590, Note_on_c, 6, 74, 0
8, 4590, Note_on_c, 6, 72, 110
8, 4620, Note_on_c, 6, 72, 0
8, 4620, Note_on_c, 6, 71, 110
8, 4650, Note_on_c, 6, 71, 0
8, 4650, Note_on_c, 6, 69, 110
8, 4680, Note_on_c, 6, 69, 0
8, 4680, Note_on_c, 6, 68, 110
8, 4710, Note_on_c, 6, 68, 0
8, 4710, Note_on_c, 6, 66, 110
8, 4740, Note_on_c, 6, 66, 0
8, 4740, Note_on_c, 6, 64, 110
8, 4770, Note_on_c, 6, 64, 0
8, 4770, Note_on_c, 6, 66, 110
8, 4800, Note_on_c, 6, 66, 0
8, 4800, Note_on_c, 6, 68, 110
8, 4830, Note_on_c, 6, 68, 0
8, 4830, Note_on_c, 6, 69, 110
8, 4860, Note_on_c, 6, 69, 0
8, 4860, Note_on_c, 6, 71, 110
8, 4920, Note_on_c, 6, 71, 0
8, 4920, Note_on_c, 6, 68, 110
8, 4920, Note_on_c, 6, 71, 110
8, 4980, Note_on_c, 6, 71, 0
8, 4980, Note_on_c, 6, 68, 0
8, 4980, Note_on_c, 6, 64, 110
8, 4980, Note_on_c, 6, 72, 110
8, 5040, Note_on_c, 6, 72, 0
8, 5040, Note_on_c, 6, 64, 0
8, 5040, Note_on_c, 6, 68, 110
8, 5040, Note_on_c, 6, 71, 110
8, 5070, Note_on_c, 6, 71, 0
8, 5070, Note_on_c, 6, 68, 0
8, 5070, Note_on_c, 6, 64, 110
8, 5100, Note_on_c, 6, 64, 0
8, 5100, Note_on_c, 6, 68, 110
8, 5130, Note_on_c, 6, 68, 0
8, 5130, Note_on_c, 6, 71, 110
8, 5160, Note_on_c, 6, 71, 0
8, 5160, Note_on_c, 6, 76, 110
8, 5190, Note_on_c, 6, 76, 0
8, 5190, Note_on_c, 6, 74, 110
8, 5220, Note_on_c, 6, 74, 0
8, 5220, Note_on_c, 6, 72, 110
8, 5280, Note_on_c, 6, 72, 0
8, 5280, Note_on_c, 6, 74, 110
8, 5295, Note_on_c, 6, 74, 0
8, 5295, Note_on_c, 6, 73, 110
8, 5310, Note_on_c, 6, 73, 0
8, 5310, Note_on_c, 6, 74, 110
8, 5325, Note_on_c, 6, 74, 0
8, 5325, Note_on_c, 6, 73, 110
8, 5340, Note_on_c, 6, 73, 0
8, 5340, Note_on_c, 6, 74, 110
8, 5355, Note_on_c, 6, 74, 0
8, 5355, Note_on_c, 6, 73, 110
8, 5370, Note_on_c, 6, 73, 0
8, 5370, Note_on_c, 6, 71, 110
8, 5385, Note_on_c, 6, 71, 0
8, 5385, Note_on_c, 6, 73, 110
8, 5400, Note_on_c, 6, 73, 0
8, 5400, Note_on_c, 6, 74, 100
8, 5459, Note_on_c, 6, 74, 0
8, 5460, Note_on_c, 6, 66, 100
8, 5460, Note_on_c, 6, 69, 100
8, 5460, Note_on_c, 6, 74, 100
8, 5519, Note_on_c, 6, 74, 0
8, 5519, Note_on_c, 6, 69, 0
8, 5519, Note_on_c, 6, 66, 0
8, 5520, Note_on_c, 6, 62, 100
8, 5520, Note_on_c, 6, 74, 100
8, 5520, Note_on_c, 6, 69, 100
8, 5579, Note_on_c, 6, 69, 0
8, 5579, Note_on_c, 6, 74, 0
8, 5579, Note_on_c, 6, 62, 0
8, 5580, Note_on_c, 6, 62, 100
8, 5580, Note_on_c, 6, 74, 100
8, 5580, Note_on_c, 6, 70, 100
8, 5609, Note_on_c, 6, 70, 0
8, 5609, Note_on_c, 6, 74, 0
8, 5609, Note_on_c, 6, 62, 0
8, 5610, Note_on_c, 6, 67, 100
8, 5639, Note_on_c, 6, 67, 0
8, 5640, Note_on_c, 6, 71, 100
8, 5669, Note_on_c, 6, 71, 0
8, 5670, Note_on_c, 6, 74, 100
8, 5699, Note_on_c, 6, 74, 0
8, 5700, Note_on_c, 6, 79, 100
8, 5729, Note_on_c, 6, 79, 0
8, 5730, Note_on_c, 6, 77, 100
8, 5759, Note_on_c, 6, 77, 0
8, 5760, Note_on_c, 6, 76, 100
8, 5819, Note_on_c, 6, 76, 0
8, 5820, Note_on_c, 6, 77, 100
8, 5834, Note_on_c, 6, 77, 0
8, 5835, Note_on_c, 6, 76, 100
8, 5849, Note_on_c, 6, 76, 0
8, 5850, Note_on_c, 6, 77, 100
8, 5864, Note_on_c, 6, 77, 0
8, 5865, Note_on_c, 6, 76, 100
8, 5879, Note_on_c, 6, 76, 0
8, 5880, Note_on_c, 6, 77, 100
8, 5894, Note_on_c, 6, 77, 0
8, 5895, Note_on_c, 6, 76, 100
8, 5909, Note_on_c, 6, 76, 0
8, 5910, Note_on_c, 6, 74, 100
8, 5924, Note_on_c, 6, 74, 0
8, 5925, Note_on_c, 6, 76, 100
8, 5939, Note_on_c, 6, 76, 0
8, 5940, Note_on_c, 6, 77, 100
8, 5999, Note_on_c, 6, 77, 0
8, 6000, Note_on_c, 6, 69, 100
8, 6000, Note_on_c, 6, 72, 100
8, 6000, Note_on_c, 6, 77, 100
8, 6059, Note_on_c, 6, 77, 0
8, 6059, Note_on_c, 6, 72, 0
8, 6059, Note_on_c, 6, 69, 0
8, 6060, Note_on_c, 6, 71, 100
8, 6060, Note_on_c, 6, 77, 100
8, 6060, Note_on_c, 6, 74, 100
8, 6119, Note_on_c, 6, 74, 0
8, 6119, Note_on_c, 6, 77, 0
8, 6119, Note_on_c, 6, 71, 0
8, 6120, Note_on_c, 6, 68, 100
8, 6120, Note_on_c, 6, 76, 100
8, 6120, Note_on_c, 6, 71, 100
8, 6178, Note_on_c, 6, 71, 0
8, 6178, Note_on_c, 6, 76, 0
8, 6178, Note_on_c, 6, 68, 0
8, 6180, Note_on_c, 6, 68, 100
8, 6209, Note_on_c, 6, 68, 0
8, 6210, Note_on_c, 6, 69, 100
8, 6239, Note_on_c, 6, 69, 0
8, 6240, Note_on_c, 6, 71, 100
8, 6269, Note_on_c, 6, 71, 0
8, 6270, Note_on_c, 6, 72, 100
8, 6299, Note_on_c, 6, 72, 0
8, 6300, Note_on_c, 6, 74, 100
8, 6329, Note_on_c, 6, 74, 0
8, 6330, Note_on_c, 6, 76, 100
8, 6359, Note_on_c, 6, 76, 0
8, 6360, Note_on_c, 6, 74, 100
8, 6389, Note_on_c, 6, 74, 0
8, 6390, Note_on_c, 6, 72, 100
8, 6419, Note_on_c, 6, 72, 0
8, 6420, Note_on_c, 6, 71, 100
8, 6449, Note_on_c, 6, 71, 0
8, 6450, Note_on_c, 6, 69, 100
8, 6479, Note_on_c, 6, 69, 0
8, 6480, Note_on_c, 6, 68, 100
8, 6539, Note_on_c, 6, 68, 0
8, 6900, Note_on_c, 6, 74, 100
8, 6959, Note_on_c, 6, 74, 0
8, 6960, Note_on_c, 6, 74, 100
8, 7019, Note_on_c, 6, 74, 0
8, 7020, Note_on_c, 6, 68, 100
8, 7079, Note_on_c, 6, 68, 0
8, 7080, Note_on_c, 6, 71, 100
8, 7139, Note_on_c, 6, 71, 0
8, 7140, Note_on_c, 6, 71, 100
8, 7199, Note_on_c, 6, 71, 0
8, 7200, Note_on_c, 6, 64, 100
8, 7229, Note_on_c, 6, 64, 0
8, 7230, Note_on_c, 6, 71, 100
8, 7259, Note_on_c, 6, 71, 0
8, 7260, Note_on_c, 6, 68, 100
8, 7289, Note_on_c, 6, 68, 0
8, 7290, Note_on_c, 6, 64, 100
8, 7319, Note_on_c, 6, 64, 0
8, 7320, Note_on_c, 6, 76, 100
8, 7379, Note_on_c, 6, 76, 0
8, 7410, Note_on_c, 6, 81, 100
8, 7439, Note_on_c, 6, 81, 0
8, 7440, Note_on_c, 6, 80, 100
8, 7529, Note_on_c, 6, 80, 0
8, 7530, Note_on_c, 6, 81, 100
8, 7559, Note_on_c, 6, 81, 0
8, 7560, Note_on_c, 6, 81, 100
8, 7619, Note_on_c, 6, 81, 0
8, 7770, Note_on_c, 6, 57, 100
8, 7799, Note_on_c, 6, 57, 0
8, 7800, Note_on_c, 6, 60, 100
8, 7829, Note_on_c, 6, 60, 0
8, 7830, Note_on_c, 6, 64, 100
8, 7859, Note_on_c, 6, 64, 0
8, 7860, Note_on_c, 6, 60, 100
8, 7889, Note_on_c, 6, 60, 0
8, 7890, Note_on_c, 6, 57, 100
8, 7919, Note_on_c, 6, 57, 0
8, 7920, Note_on_c, 6, 64, 100
8, 7949, Note_on_c, 6, 64, 0
8, 7950, Note_on_c, 6, 60, 100
8, 7979, Note_on_c, 6, 60, 0
8, 7980, Note_on_c, 6, 64, 100
8, 8009, Note_on_c, 6, 64, 0
8, 8010, Note_on_c, 6, 69, 100
8, 8039, Note_on_c, 6, 69, 0
8, 8040, Note_on_c, 6, 64, 100
8, 8069, Note_on_c, 6, 64, 0
8, 8070, Note_on_c, 6, 60, 100
8, 8099, Note_on_c, 6, 60, 0
8, 8100, Note_on_c, 6, 72, 100
8, 8129, Note_on_c, 6, 72, 0
8, 8130, Note_on_c, 6, 69, 100
8, 8159, Note_on_c, 6, 69, 0
8, 8160, Note_on_c, 6, 71, 100
8, 8189, Note_on_c, 6, 71, 0
8, 8190, Note_on_c, 6, 73, 100
8, 8219, Note_on_c, 6, 73, 0
8, 8220, Note_on_c, 6, 74, 100
8, 8249, Note_on_c, 6, 74, 0
8, 8250, Note_on_c, 6, 76, 100
8, 8279, Note_on_c, 6, 76, 0
8, 8280, Note_on_c, 6, 77, 100
8, 8339, Note_on_c, 6, 77, 0
8, 8670, Note_on_c, 6, 74, 100
8, 8699, Note_on_c, 6, 74, 0
8, 8700, Note_on_c, 6, 77, 100
8, 8729, Note_on_c, 6, 77, 0
8, 8730, Note_on_c, 6, 81, 100
8, 8759, Note_on_c, 6, 81, 0
8, 8760, Note_on_c, 6, 77, 100
8, 8789, Note_on_c, 6, 77, 0
8, 8790, Note_on_c, 6, 74, 100
8, 8819, Note_on_c, 6, 74, 0
8, 8820, Note_on_c, 6, 86, 100
8, 8850, Note_on_c, 6, 84, 100
8, 8879, Note_on_c, 6, 84, 0
8, 8880, Note_on_c, 6, 86, 0
8, 8880, Note_on_c, 6, 86, 100
8, 8880, Note_on_c, 6, 82, 100
8, 8909, Note_on_c, 6, 82, 0
8, 8910, Note_on_c, 6, 81, 100
8, 8939, Note_on_c, 6, 81, 0
8, 8940, Note_on_c, 6, 86, 0
8, 8940, Note_on_c, 6, 84, 100
8, 8940, Note_on_c, 6, 79, 100
8, 8969, Note_on_c, 6, 79, 0
8, 8970, Note_on_c, 6, 78, 100
8, 8999, Note_on_c, 6, 78, 0
8, 9000, Note_on_c, 6, 84, 0
8, 9000, Note_on_c, 6, 79, 100
8, 9000, Note_on_c, 6, 82, 100
8, 9019, Note_on_c, 6, 82, 0
8, 9020, Note_on_c, 6, 84, 100
8, 9039, Note_on_c, 6, 84, 0
8, 9040, Note_on_c, 6, 82, 100
8, 9059, Note_on_c, 6, 82, 0
8, 9060, Note_on_c, 6, 79, 0
8, 9060, Note_on_c, 6, 84, 100
8, 9074, Note_on_c, 6, 84, 0
8, 9075, Note_on_c, 6, 82, 100
8, 9089, Note_on_c, 6, 82, 0
8, 9090, Note_on_c, 6, 84, 100
8, 9104, Note_on_c, 6, 84, 0
8, 9105, Note_on_c, 6, 82, 100
8, 9119, Note_on_c, 6, 82, 0
8, 9120, Note_on_c, 6, 84, 100
8, 9129, Note_on_c, 6, 84, 0
8, 9130, Note_on_c, 6, 82, 100
8, 9139, Note_on_c, 6, 82, 0
8, 9140, Note_on_c, 6, 84, 100
8, 9149, Note_on_c, 6, 84, 0
8, 9150, Note_on_c, 6, 82, 100
8, 9159, Note_on_c, 6, 82, 0
8, 9160, Note_on_c, 6, 84, 100
8, 9169, Note_on_c, 6, 84, 0
8, 9170, Note_on_c, 6, 82, 100
8, 9179, Note_on_c, 6, 82, 0
8, 9180, Note_on_c, 6, 84, 100
8, 9189, Note_on_c, 6, 84, 0
8, 9190, Note_on_c, 6, 82, 100
8, 9199, Note_on_c, 6, 82, 0
8, 9200, Note_on_c, 6, 84, 100
8, 9209, Note_on_c, 6, 84, 0
8, 9210, Note_on_c, 6, 81, 100
8, 9224, Note_on_c, 6, 81, 0
8, 9225, Note_on_c, 6, 79, 100
8, 9239, Note_on_c, 6, 79, 0
8, 9240, Note_on_c, 6, 84, 100
8, 9299, Note_on_c, 6, 84, 0
8, 9300, Note_on_c, 6, 82, 100
8, 9359, Note_on_c, 6, 82, 0
8, 9360, Note_on_c, 6, 82, 100
8, 9374, Note_on_c, 6, 82, 0
8, 9375, Note_on_c, 6, 81, 100
8, 9389, Note_on_c, 6, 81, 0
8, 9390, Note_on_c, 6, 82, 100
8, 9404, Note_on_c, 6, 82, 0
8, 9405, Note_on_c, 6, 81, 100
8, 9419, Note_on_c, 6, 81, 0
8, 9420, Note_on_c, 6, 82, 100
8, 9429, Note_on_c, 6, 82, 0
8, 9430, Note_on_c, 6, 81, 100
8, 9439, Note_on_c, 6, 81, 0
8, 9440, Note_on_c, 6, 82, 100
8, 9449, Note_on_c, 6, 82, 0
8, 9450, Note_on_c, 6, 81, 100
8, 9459, Note_on_c, 6, 81, 0
8, 9460, Note_on_c, 6, 82, 100
8, 9469, Note_on_c, 6, 82, 0
8, 9470, Note_on_c, 6, 81, 100
8, 9479, Note_on_c, 6, 81, 0
8, 9480, Note_on_c, 6, 82, 100
8, 9489, Note_on_c, 6, 82, 0
8, 9490, Note_on_c, 6, 81, 100
8, 9499, Note_on_c, 6, 81, 0
8, 9500, Note_on_c, 6, 82, 100
8, 9509, Note_on_c, 6, 82, 0
8, 9510, Note_on_c, 6, 81, 100
8, 9519, Note_on_c, 6, 81, 0
8, 9520, Note_on_c, 6, 82, 100
8, 9529, Note_on_c, 6, 82, 0
8, 9530, Note_on_c, 6, 81, 100
8, 9539, Note_on_c, 6, 81, 0
8, 9540, Note_on_c, 6, 82, 100
8, 9554, Note_on_c, 6, 82, 0
8, 9555, Note_on_c, 6, 81, 100
8, 9569, Note_on_c, 6, 81, 0
8, 9570, Note_on_c, 6, 79, 100
8, 9584, Note_on_c, 6, 79, 0
8, 9585, Note_on_c, 6, 77, 100
8, 9599, Note_on_c, 6, 77, 0
8, 9600, Note_on_c, 6, 82, 100
8, 9659, Note_on_c, 6, 82, 0
8, 9660, Note_on_c, 6, 81, 100
8, 9719, Note_on_c, 6, 81, 0
8, 9720, Note_on_c, 6, 81, 100
8, 9739, Note_on_c, 6, 81, 0
8, 9740, Note_on_c, 6, 79, 100
8, 9759, Note_on_c, 6, 79, 0
8, 9760, Note_on_c, 6, 81, 100
8, 9779, Note_on_c, 6, 81, 0
8, 9780, Note_on_c, 6, 79, 100
8, 9794, Note_on_c, 6, 79, 0
8, 9795, Note_on_c, 6, 81, 100
8, 9809, Note_on_c, 6, 81, 0
8, 9810, Note_on_c, 6, 79, 100
8, 9824, Note_on_c, 6, 79, 0
8, 9825, Note_on_c, 6, 81, 100
8, 9839, Note_on_c, 6, 81, 0
8, 9840, Note_on_c, 6, 79, 100
8, 9854, Note_on_c, 6, 79, 0
8, 9855, Note_on_c, 6, 81, 100
8, 9869, Note_on_c, 6, 81, 0
8, 9870, Note_on_c, 6, 79, 100
8, 9884, Note_on_c, 6, 79, 0
8, 9885, Note_on_c, 6, 81, 100
8, 9899, Note_on_c, 6, 81, 0
8, 9900, Note_on_c, 6, 81, 100
8, 9914, Note_on_c, 6, 81, 0
8, 9915, Note_on_c, 6, 79, 100
8, 9929, Note_on_c, 6, 79, 0
8, 9930, Note_on_c, 6, 77, 100
8, 9944, Note_on_c, 6, 77, 0
8, 9945, Note_on_c, 6, 76, 100
8, 9959, Note_on_c, 6, 76, 0
8, 9960, Note_on_c, 6, 81, 100
8, 10019, Note_on_c, 6, 81, 0
8, 10020, Note_on_c, 6, 79, 100
8, 10079, Note_on_c, 6, 79, 0
8, 10080, Note_on_c, 6, 77, 100
8, 10199, Note_on_c, 6, 77, 0
8, 10290, Note_on_c, 6, 62, 100
8, 10319, Note_on_c, 6, 62, 0
8, 10320, Note_on_c, 6, 65, 100
8, 10349, Note_on_c, 6, 65, 0
8, 10350, Note_on_c, 6, 69, 100
8, 10379, Note_on_c, 6, 69, 0
8, 10380, Note_on_c, 6, 74, 100
8, 10409, Note_on_c, 6, 74, 0
8, 10410, Note_on_c, 6, 73, 100
8, 10439, Note_on_c, 6, 73, 0
8, 10440, Note_on_c, 6, 74, 100
8, 10469, Note_on_c, 6, 74, 0
8, 10470, Note_on_c, 6, 72, 100
8, 10499, Note_on_c, 6, 72, 0
8, 10500, Note_on_c, 6, 70, 100
8, 10529, Note_on_c, 6, 70, 0
8, 10530, Note_on_c, 6, 69, 100
8, 10559, Note_on_c, 6, 69, 0
8, 10560, Note_on_c, 6, 67, 100
8, 10589, Note_on_c, 6, 67, 0
8, 10590, Note_on_c, 6, 65, 100
8, 10619, Note_on_c, 6, 65, 0
8, 10620, Note_on_c, 6, 64, 100
8, 10679, Note_on_c, 6, 64, 0
8, 10680, Note_on_c, 6, 81, 100
8, 10739, Note_on_c, 6, 81, 0
8, 10740, Note_on_c, 6, 79, 100
8, 10755, Note_on_c, 6, 79, 0
8, 10755, Note_on_c, 6, 81, 100
8, 10770, Note_on_c, 6, 81, 0
8, 10770, Note_on_c, 6, 79, 100
8, 10800, Note_on_c, 6, 79, 0
8, 10800, Note_on_c, 6, 81, 100
8, 10859, Note_on_c, 6, 81, 0
8, 10860, Note_on_c, 6, 73, 100
8, 10889, Note_on_c, 6, 73, 0
8, 10890, Note_on_c, 6, 74, 100
8, 10919, Note_on_c, 6, 74, 0
8, 10920, Note_on_c, 6, 76, 100
8, 10949, Note_on_c, 6, 76, 0
8, 10950, Note_on_c, 6, 77, 100
8, 10979, Note_on_c, 6, 77, 0
8, 10980, Note_on_c, 6, 79, 100
8, 11009, Note_on_c, 6, 79, 0
8, 11010, Note_on_c, 6, 81, 100
8, 11039, Note_on_c, 6, 81, 0
8, 11040, Note_on_c, 6, 79, 100
8, 11069, Note_on_c, 6, 79, 0
8, 11070, Note_on_c, 6, 77, 100
8, 11099, Note_on_c, 6, 77, 0
8, 11100, Note_on_c, 6, 76, 100
8, 11129, Note_on_c, 6, 76, 0
8, 11130, Note_on_c, 6, 74, 100
8, 11159, Note_on_c, 6, 74, 0
8, 11160, Note_on_c, 6, 73, 100
8, 11189, Note_on_c, 6, 73, 0
8, 11190, Note_on_c, 6, 64, 100
8, 11219, Note_on_c, 6, 64, 0
8, 11220, Note_on_c, 6, 69, 100
8, 11249, Note_on_c, 6, 69, 0
8, 11250, Note_on_c, 6, 71, 100
8, 11279, Note_on_c, 6, 71, 0
8, 11280, Note_on_c, 6, 69, 100
8, 11309, Note_on_c, 6, 69, 0
8, 11310, Note_on_c, 6, 71, 100
8, 11339, Note_on_c, 6, 71, 0
8, 11340, Note_on_c, 6, 73, 100
8, 11369, Note_on_c, 6, 73, 0
8, 11370, Note_on_c, 6, 74, 100
8, 11399, Note_on_c, 6, 74, 0
8, 11400, Note_on_c, 6, 73, 100
8, 11429, Note_on_c, 6, 73, 0
8, 11430, Note_on_c, 6, 71, 100
8, 11459, Note_on_c, 6, 71, 0
8, 11460, Note_on_c, 6, 73, 100
8, 11489, Note_on_c, 6, 73, 0
8, 11490, Note_on_c, 6, 74, 100
8, 11519, Note_on_c, 6, 74, 0
8, 11520, Note_on_c, 6, 77, 100
8, 11539, Note_on_c, 6, 77, 0
8, 11540, Note_on_c, 6, 76, 100
8, 11559, Note_on_c, 6, 76, 0
8, 11560, Note_on_c, 6, 77, 100
8, 11579, Note_on_c, 6, 77, 0
8, 11580, Note_on_c, 6, 76, 100
8, 11594, Note_on_c, 6, 76, 0
8, 11595, Note_on_c, 6, 77, 100
8, 11609, Note_on_c, 6, 77, 0
8, 11610, Note_on_c, 6, 76, 100
8, 11624, Note_on_c, 6, 76, 0
8, 11625, Note_on_c, 6, 77, 100
8, 11639, Note_on_c, 6, 77, 0
8, 11640, Note_on_c, 6, 76, 100
8, 11649, Note_on_c, 6, 76, 0
8, 11650, Note_on_c, 6, 77, 100
8, 11659, Note_on_c, 6, 77, 0
8, 11660, Note_on_c, 6, 76, 100
8, 11669, Note_on_c, 6, 76, 0
8, 11670, Note_on_c, 6, 77, 100
8, 11679, Note_on_c, 6, 77, 0
8, 11680, Note_on_c, 6, 76, 100
8, 11689, Note_on_c, 6, 76, 0
8, 11690, Note_on_c, 6, 77, 100
8, 11699, Note_on_c, 6, 77, 0
8, 11700, Note_on_c, 6, 76, 100
8, 11709, Note_on_c, 6, 76, 0
8, 11710, Note_on_c, 6, 77, 100
8, 11719, Note_on_c, 6, 77, 0
8, 11720, Note_on_c, 6, 76, 100
8, 11729, Note_on_c, 6, 76, 0
8, 11730, Note_on_c, 6, 77, 100
8, 11739, Note_on_c, 6, 77, 0
8, 11740, Note_on_c, 6, 76, 100
8, 11749, Note_on_c, 6, 76, 0
8, 11750, Note_on_c, 6, 77, 100
8, 11759, Note_on_c, 6, 77, 0
8, 11760, Note_on_c, 6, 76, 100
8, 11769, Note_on_c, 6, 76, 0
8, 11770, Note_on_c, 6, 77, 100
8, 11779, Note_on_c, 6, 77, 0
8, 11780, Note_on_c, 6, 76, 100
8, 11789, Note_on_c, 6, 76, 0
8, 11790, Note_on_c, 6, 77, 100
8, 11799, Note_on_c, 6, 77, 0
8, 11800, Note_on_c, 6, 76, 100
8, 11809, Note_on_c, 6, 76, 0
8, 11810, Note_on_c, 6, 77, 100
8, 11819, Note_on_c, 6, 77, 0
8, 11820, Note_on_c, 6, 76, 100
8, 11829, Note_on_c, 6, 76, 0
8, 11830, Note_on_c, 6, 77, 100
8, 11839, Note_on_c, 6, 77, 0
8, 11840, Note_on_c, 6, 76, 100
8, 11849, Note_on_c, 6, 76, 0
8, 11850, Note_on_c, 6, 77, 100
8, 11859, Note_on_c, 6, 77, 0
8, 11860, Note_on_c, 6, 76, 100
8, 11869, Note_on_c, 6, 76, 0
8, 11870, Note_on_c, 6, 77, 100
8, 11879, Note_on_c, 6, 77, 0
8, 11880, Note_on_c, 6, 76, 100
8, 11889, Note_on_c, 6, 76, 0
8, 11890, Note_on_c, 6, 77, 100
8, 11899, Note_on_c, 6, 77, 0
8, 11900, Note_on_c, 6, 76, 100
8, 11909, Note_on_c, 6, 76, 0
8, 11910, Note_on_c, 6, 77, 100
8, 11919, Note_on_c, 6, 77, 0
8, 11920, Note_on_c, 6, 76, 100
8, 11929, Note_on_c, 6, 76, 0
8, 11930, Note_on_c, 6, 77, 100
8, 11939, Note_on_c, 6, 77, 0
8, 11940, Note_on_c, 6, 76, 100
8, 11949, Note_on_c, 6, 76, 0
8, 11950, Note_on_c, 6, 77, 100
8, 11959, Note_on_c, 6, 77, 0
8, 11960, Note_on_c, 6, 76, 100
8, 11969, Note_on_c, 6, 76, 0
8, 11970, Note_on_c, 6, 77, 100
8, 11979, Note_on_c, 6, 77, 0
8, 11980, Note_on_c, 6, 76, 100
8, 11989, Note_on_c, 6, 76, 0
8, 11990, Note_on_c, 6, 77, 100
8, 11999, Note_on_c, 6, 77, 0
8, 12000, Note_on_c, 6, 76, 100
8, 12009, Note_on_c, 6, 76, 0
8, 12010, Note_on_c, 6, 77, 100
8, 12019, Note_on_c, 6, 77, 0
8, 12020, Note_on_c, 6, 76, 100
8, 12029, Note_on_c, 6, 76, 0
8, 12030, Note_on_c, 6, 77, 100
8, 12039, Note_on_c, 6, 77, 0
8, 12040, Note_on_c, 6, 76, 100
8, 12049, Note_on_c, 6, 76, 0
8, 12050, Note_on_c, 6, 77, 100
8, 12059, Note_on_c, 6, 77, 0
8, 12060, Note_on_c, 6, 76, 100
8, 12069, Note_on_c, 6, 76, 0
8, 12070, Note_on_c, 6, 77, 100
8, 12079, Note_on_c, 6, 77, 0
8, 12080, Note_on_c, 6, 76, 100
8, 12089, Note_on_c, 6, 76, 0
8, 12090, Note_on_c, 6, 77, 100
8, 12099, Note_on_c, 6, 77, 0
8, 12100, Note_on_c, 6, 76, 100
8, 12109, Note_on_c, 6, 76, 0
8, 12110, Note_on_c, 6, 77, 100
8, 12119, Note_on_c, 6, 77, 0
8, 12120, Note_on_c, 6, 76, 100
8, 12129, Note_on_c, 6, 76, 0
8, 12130, Note_on_c, 6, 77, 100
8, 12139, Note_on_c, 6, 77, 0
8, 12140, Note_on_c, 6, 76, 100
8, 12149, Note_on_c, 6, 76, 0
8, 12150, Note_on_c, 6, 77, 100
8, 12159, Note_on_c, 6, 77, 0
8, 12160, Note_on_c, 6, 76, 100
8, 12169, Note_on_c, 6, 76, 0
8, 12170, Note_on_c, 6, 77, 100
8, 12179, Note_on_c, 6, 77, 0
8, 12180, Note_on_c, 6, 76, 100
8, 12189, Note_on_c, 6, 76, 0
8, 12190, Note_on_c, 6, 77, 100
8, 12199, Note_on_c, 6, 77, 0
8, 12200, Note_on_c, 6, 76, 100
8, 12209, Note_on_c, 6, 76, 0
8, 12210, Note_on_c, 6, 77, 100
8, 12219, Note_on_c, 6, 77, 0
8, 12220, Note_on_c, 6, 76, 100
8, 12229, Note_on_c, 6, 76, 0
8, 12230, Note_on_c, 6, 77, 100
8, 12239, Note_on_c, 6, 77, 0
8, 12240, Note_on_c, 6, 76, 100
8, 12329, Note_on_c, 6, 76, 0
8, 12330, Note_on_c, 6, 82, 100
8, 12359, Note_on_c, 6, 82, 0
8, 12360, Note_on_c, 6, 81, 100
8, 12419, Note_on_c, 6, 81, 0
8, 12450, Note_on_c, 6, 74, 100
8, 12479, Note_on_c, 6, 74, 0
8, 12480, Note_on_c, 6, 73, 100
8, 12569, Note_on_c, 6, 73, 0
8, 12570, Note_on_c, 6, 74, 100
8, 12599, Note_on_c, 6, 74, 0
8, 12600, Note_on_c, 6, 74, 100
8, 12719, Note_on_c, 6, 74, 0
8, 12810, Note_on_c, 6, 67, 100
8, 12839, Note_on_c, 6, 67, 0
8, 12840, Note_on_c, 6, 70, 100
8, 12869, Note_on_c, 6, 70, 0
8, 12870, Note_on_c, 6, 74, 100
8, 12899, Note_on_c, 6, 74, 0
8, 12900, Note_on_c, 6, 70, 100
8, 12929, Note_on_c, 6, 70, 0
8, 12930, Note_on_c, 6, 67, 100
8, 12959, Note_on_c, 6, 67, 0
8, 12960, Note_on_c, 6, 64, 100
8, 13079, Note_on_c, 6, 64, 0
8, 13170, Note_on_c, 6, 65, 100
8, 13199, Note_on_c, 6, 65, 0
8, 13200, Note_on_c, 6, 69, 100
8, 13229, Note_on_c, 6, 69, 0
8, 13230, Note_on_c, 6, 74, 100
8, 13259, Note_on_c, 6, 74, 0
8, 13260, Note_on_c, 6, 69, 100
8, 13289, Note_on_c, 6, 69, 0
8, 13290, Note_on_c, 6, 65, 100
8, 13319, Note_on_c, 6, 65, 0
8, 13320, Note_on_c, 6, 62, 100
8, 13439, Note_on_c, 6, 62, 0
8, 13530, Note_on_c, 6, 74, 100
8, 13559, Note_on_c, 6, 74, 0
8, 13560, Note_on_c, 6, 71, 100
8, 13589, Note_on_c, 6, 71, 0
8, 13590, Note_on_c, 6, 68, 100
8, 13619, Note_on_c, 6, 68, 0
8, 13620, Note_on_c, 6, 71, 100
8, 13649, Note_on_c, 6, 71, 0
8, 13650, Note_on_c, 6, 74, 100
8, 13679, Note_on_c, 6, 74, 0
8, 13680, Note_on_c, 6, 76, 100
8, 13739, Note_on_c, 6, 76, 0
8, 13770, Note_on_c, 6, 82, 100
8, 13799, Note_on_c, 6, 82, 0
8, 13800, Note_on_c, 6, 81, 100
8, 13859, Note_on_c, 6, 81, 0
8, 13890, Note_on_c, 6, 74, 100
8, 13919, Note_on_c, 6, 74, 0
8, 13920, Note_on_c, 6, 73, 100
8, 14009, Note_on_c, 6, 73, 0
8, 14010, Note_on_c, 6, 74, 100
8, 14069, Note_on_c, 6, 74, 0
8, 14070, Note_on_c, 6, 74, 100
8, 14189, Note_on_c, 6, 74, 0
8, 19500, Note_on_c, 6, 77, 100
8, 19559, Note_on_c, 6, 77, 0
8, 19560, Note_on_c, 6, 81, 100
8, 19574, Note_on_c, 6, 81, 0
8, 19575, Note_on_c, 6, 79, 100
8, 19589, Note_on_c, 6, 79, 0
8, 19590, Note_on_c, 6, 77, 100
8, 19604, Note_on_c, 6, 77, 0
8, 19605, Note_on_c, 6, 79, 100
8, 19619, Note_on_c, 6, 79, 0
8, 19620, Note_on_c, 6, 81, 100
8, 19679, Note_on_c, 6, 81, 0
8, 19680, Note_on_c, 6, 81, 100
8, 19739, Note_on_c, 6, 81, 0
8, 19740, Note_on_c, 6, 84, 100
8, 19754, Note_on_c, 6, 84, 0
8, 19755, Note_on_c, 6, 82, 100
8, 19769, Note_on_c, 6, 82, 0
8, 19770, Note_on_c, 6, 81, 100
8, 19784, Note_on_c, 6, 81, 0
8, 19785, Note_on_c, 6, 82, 100
8, 19799, Note_on_c, 6, 82, 0
8, 19800, Note_on_c, 6, 84, 100
8, 19859, Note_on_c, 6, 84, 0
8, 19860, Note_on_c, 6, 84, 100
8, 19919, Note_on_c, 6, 84, 0
8, 19920, Note_on_c, 6, 86, 100
8, 19979, Note_on_c, 6, 86, 0
8, 19980, Note_on_c, 6, 84, 100
8, 20039, Note_on_c, 6, 84, 0
8, 20040, Note_on_c, 6, 82, 100
8, 20069, Note_on_c, 6, 82, 0
8, 20070, Note_on_c, 6, 81, 100
8, 20099, Note_on_c, 6, 81, 0
8, 20100, Note_on_c, 6, 79, 100
8, 20129, Note_on_c, 6, 79, 0
8, 20130, Note_on_c, 6, 77, 100
8, 20159, Note_on_c, 6, 77, 0
8, 20160, Note_on_c, 6, 76, 100
8, 20189, Note_on_c, 6, 76, 0
8, 20190, Note_on_c, 6, 74, 100
8, 20219, Note_on_c, 6, 74, 0
8, 20220, Note_on_c, 6, 72, 100
8, 20249, Note_on_c, 6, 72, 0
8, 20250, Note_on_c, 6, 74, 100
8, 20279, Note_on_c, 6, 74, 0
8, 20280, Note_on_c, 6, 76, 100
8, 20309, Note_on_c, 6, 76, 0
8, 20310, Note_on_c, 6, 77, 100
8, 20339, Note_on_c, 6, 77, 0
8, 20340, Note_on_c, 6, 79, 100
8, 20399, Note_on_c, 6, 79, 0
8, 20400, Note_on_c, 6, 79, 100
8, 20459, Note_on_c, 6, 79, 0
8, 20460, Note_on_c, 6, 81, 100
8, 20519, Note_on_c, 6, 81, 0
8, 20520, Note_on_c, 6, 79, 100
8, 20579, Note_on_c, 6, 79, 0
8, 20580, Note_on_c, 6, 60, 100
8, 20609, Note_on_c, 6, 60, 0
8, 20610, Note_on_c, 6, 62, 100
8, 20639, Note_on_c, 6, 62, 0
8, 20640, Note_on_c, 6, 64, 100
8, 20669, Note_on_c, 6, 64, 0
8, 20670, Note_on_c, 6, 65, 100
8, 20699, Note_on_c, 6, 65, 0
8, 20700, Note_on_c, 6, 67, 100
8, 20759, Note_on_c, 6, 67, 0
8, 20760, Note_on_c, 6, 60, 100
8, 20760, Note_on_c, 6, 64, 100
8, 20819, Note_on_c, 6, 64, 0
8, 20819, Note_on_c, 6, 60, 0
8, 20820, Note_on_c, 6, 60, 100
8, 20820, Note_on_c, 6, 65, 100
8, 20820, Note_on_c, 6, 69, 100
8, 20879, Note_on_c, 6, 69, 0
8, 20879, Note_on_c, 6, 65, 0
8, 20879, Note_on_c, 6, 60, 0
8, 20880, Note_on_c, 6, 64, 100
8, 20880, Note_on_c, 6, 67, 100
8, 20939, Note_on_c, 6, 67, 0
8, 20939, Note_on_c, 6, 64, 0
8, 20940, Note_on_c, 6, 60, 100
8, 20999, Note_on_c, 6, 60, 0
8, 21000, Note_on_c, 6, 62, 100
8, 21015, Note_on_c, 6, 62, 0
8, 21015, Note_on_c, 6, 64, 100
8, 21030, Note_on_c, 6, 64, 0
8, 21030, Note_on_c, 6, 62, 100
8, 21059, Note_on_c, 6, 62, 0
8, 21060, Note_on_c, 6, 64, 100
8, 21119, Note_on_c, 6, 64, 0
8, 21120, Note_on_c, 6, 64, 100
8, 21179, Note_on_c, 6, 64, 0
8, 21180, Note_on_c, 6, 67, 100
8, 21194, Note_on_c, 6, 67, 0
8, 21195, Note_on_c, 6, 65, 100
8, 21209, Note_on_c, 6, 65, 0
8, 21210, Note_on_c, 6, 64, 100
8, 21224, Note_on_c, 6, 64, 0
8, 21225, Note_on_c, 6, 65, 100
8, 21239, Note_on_c, 6, 65, 0
8, 21240, Note_on_c, 6, 67, 100
8, 21299, Note_on_c, 6, 67, 0
8, 21300, Note_on_c, 6, 67, 100
8, 21359, Note_on_c, 6, 67, 0
8, 21360, Note_on_c, 6, 69, 100
8, 21419, Note_on_c, 6, 69, 0
8, 21420, Note_on_c, 6, 67, 100
8, 21479, Note_on_c, 6, 67, 0
8, 21480, Note_on_c, 6, 65, 100
8, 21509, Note_on_c, 6, 65, 0
8, 21510, Note_on_c, 6, 64, 100
8, 21539, Note_on_c, 6, 64, 0
8, 21540, Note_on_c, 6, 62, 100
8, 21569, Note_on_c, 6, 62, 0
8, 21570, Note_on_c, 6, 60, 100
8, 21599, Note_on_c, 6, 60, 0
8, 21600, Note_on_c, 6, 59, 100
8, 21629, Note_on_c, 6, 59, 0
8, 21630, Note_on_c, 6, 57, 100
8, 21659, Note_on_c, 6, 57, 0
8, 21660, Note_on_c, 6, 55, 100
8, 21689, Note_on_c, 6, 55, 0
8, 21690, Note_on_c, 6, 57, 100
8, 21719, Note_on_c, 6, 57, 0
8, 21720, Note_on_c, 6, 59, 100
8, 21749, Note_on_c, 6, 59, 0
8, 21750, Note_on_c, 6, 60, 100
8, 21779, Note_on_c, 6, 60, 0
8, 21780, Note_on_c, 6, 62, 100
8, 21839, Note_on_c, 6, 62, 0
8, 21840, Note_on_c, 6, 62, 100
8, 21899, Note_on_c, 6, 62, 0
8, 21900, Note_on_c, 6, 64, 100
8, 21959, Note_on_c, 6, 64, 0
8, 21960, Note_on_c, 6, 62, 100
8, 22019, Note_on_c, 6, 62, 0
8, 22020, Note_on_c, 6, 59, 100
8, 22020, Note_on_c, 6, 62, 100
8, 22020, Note_on_c, 6, 67, 100
8, 22079, Note_on_c, 6, 67, 0
8, 22079, Note_on_c, 6, 62, 0
8, 22079, Note_on_c, 6, 59, 0
8, 22080, Note_on_c, 6, 62, 100
8, 22080, Note_on_c, 6, 67, 100
8, 22080, Note_on_c, 6, 55, 100
8, 22139, Note_on_c, 6, 55, 0
8, 22139, Note_on_c, 6, 67, 0
8, 22139, Note_on_c, 6, 62, 0
8, 22140, Note_on_c, 6, 55, 100
8, 22140, Note_on_c, 6, 67, 100
8, 22140, Note_on_c, 6, 64, 100
8, 22169, Note_on_c, 6, 64, 0
8, 22169, Note_on_c, 6, 67, 0
8, 22169, Note_on_c, 6, 55, 0
8, 22170, Note_on_c, 6, 60, 100
8, 22199, Note_on_c, 6, 60, 0
8, 22200, Note_on_c, 6, 64, 100
8, 22229, Note_on_c, 6, 64, 0
8, 22230, Note_on_c, 6, 67, 100
8, 22259, Note_on_c, 6, 67, 0
8, 22260, Note_on_c, 6, 72, 100
8, 22289, Note_on_c, 6, 72, 0
8, 22290, Note_on_c, 6, 70, 100
8, 22319, Note_on_c, 6, 70, 0
8, 22320, Note_on_c, 6, 69, 100
8, 22379, Note_on_c, 6, 69, 0
8, 22380, Note_on_c, 6, 70, 100
8, 22394, Note_on_c, 6, 70, 0
8, 22395, Note_on_c, 6, 69, 100
8, 22409, Note_on_c, 6, 69, 0
8, 22410, Note_on_c, 6, 70, 100
8, 22424, Note_on_c, 6, 70, 0
8, 22425, Note_on_c, 6, 69, 100
8, 22439, Note_on_c, 6, 69, 0
8, 22440, Note_on_c, 6, 70, 100
8, 22454, Note_on_c, 6, 70, 0
8, 22455, Note_on_c, 6, 69, 100
8, 22469, Note_on_c, 6, 69, 0
8, 22470, Note_on_c, 6, 67, 100
8, 22484, Note_on_c, 6, 67, 0
8, 22485, Note_on_c, 6, 69, 100
8, 22499, Note_on_c, 6, 69, 0
8, 22500, Note_on_c, 6, 70, 100
8, 22559, Note_on_c, 6, 70, 0
8, 22560, Note_on_c, 6, 70, 100
8, 22619, Note_on_c, 6, 70, 0
8, 22620, Note_on_c, 6, 70, 100
8, 22679, Note_on_c, 6, 70, 0
8, 22680, Note_on_c, 6, 79, 100
8, 22769, Note_on_c, 6, 79, 0
8, 22770, Note_on_c, 6, 70, 100
8, 22799, Note_on_c, 6, 70, 0
8, 22800, Note_on_c, 6, 69, 100
8, 22859, Note_on_c, 6, 69, 0
8, 22890, Note_on_c, 6, 77, 100
8, 22919, Note_on_c, 6, 77, 0
8, 22920, Note_on_c, 6, 76, 100
8, 23009, Note_on_c, 6, 76, 0
8, 23010, Note_on_c, 6, 77, 100
8, 23039, Note_on_c, 6, 77, 0
8, 23040, Note_on_c, 6, 77, 100
8, 23159, Note_on_c, 6, 77, 0
8, 23250, Note_on_c, 6, 65, 100
8, 23279, Note_on_c, 6, 65, 0
8, 23280, Note_on_c, 6, 69, 100
8, 23309, Note_on_c, 6, 69, 0
8, 23310, Note_on_c, 6, 72, 100
8, 23339, Note_on_c, 6, 72, 0
8, 23340, Note_on_c, 6, 77, 100
8, 23369, Note_on_c, 6, 77, 0
8, 23370, Note_on_c, 6, 74, 100
8, 23399, Note_on_c, 6, 74, 0
8, 23400, Note_on_c, 6, 76, 100
8, 23519, Note_on_c, 6, 76, 0
8, 23610, Note_on_c, 6, 60, 100
8, 23639, Note_on_c, 6, 60, 0
8, 23640, Note_on_c, 6, 64, 100
8, 23669, Note_on_c, 6, 64, 0
8, 23670, Note_on_c, 6, 67, 100
8, 23699, Note_on_c, 6, 67, 0
8, 23700, Note_on_c, 6, 64, 100
8, 23729, Note_on_c, 6, 64, 0
8, 23730, Note_on_c, 6, 60, 100
8, 23759, Note_on_c, 6, 60, 0
8, 23760, Note_on_c, 6, 64, 100
8, 23819, Note_on_c, 6, 64, 0
8, 23820, Note_on_c, 6, 73, 100
8, 23849, Note_on_c, 6, 73, 0
8, 23850, Note_on_c, 6, 74, 100
8, 23879, Note_on_c, 6, 74, 0
8, 23880, Note_on_c, 6, 73, 100
8, 23909, Note_on_c, 6, 73, 0
8, 23910, Note_on_c, 6, 74, 100
8, 23939, Note_on_c, 6, 74, 0
8, 23940, Note_on_c, 6, 76, 100
8, 23969, Note_on_c, 6, 76, 0
8, 23970, Note_on_c, 6, 77, 100
8, 23999, Note_on_c, 6, 77, 0
8, 24000, Note_on_c, 6, 76, 100
8, 24029, Note_on_c, 6, 76, 0
8, 24030, Note_on_c, 6, 74, 100
8, 24059, Note_on_c, 6, 74, 0
8, 24060, Note_on_c, 6, 76, 100
8, 24089, Note_on_c, 6, 76, 0
8, 24090, Note_on_c, 6, 73, 100
8, 24119, Note_on_c, 6, 73, 0
8, 24120, Note_on_c, 6, 69, 100
8, 24149, Note_on_c, 6, 69, 0
8, 24150, Note_on_c, 6, 62, 100
8, 24179, Note_on_c, 6, 62, 0
8, 24180, Note_on_c, 6, 65, 100
8, 24209, Note_on_c, 6, 65, 0
8, 24210, Note_on_c, 6, 69, 100
8, 24239, Note_on_c, 6, 69, 0
8, 24240, Note_on_c, 6, 74, 100
8, 24269, Note_on_c, 6, 74, 0
8, 24270, Note_on_c, 6, 73, 100
8, 24299, Note_on_c, 6, 73, 0
8, 24300, Note_on_c, 6, 74, 100
8, 24359, Note_on_c, 6, 74, 0
8, 24360, Note_on_c, 6, 81, 100
8, 24419, Note_on_c, 6, 81, 0
8, 24420, Note_on_c, 6, 82, 100
8, 24509, Note_on_c, 6, 82, 0
8, 24510, Note_on_c, 6, 81, 100
8, 24539, Note_on_c, 6, 81, 0
8, 24540, Note_on_c, 6, 73, 100
8, 24599, Note_on_c, 6, 73, 0
8, 24600, Note_on_c, 6, 76, 100
8, 24659, Note_on_c, 6, 76, 0
8, 24660, Note_on_c, 6, 81, 100
8, 24779, Note_on_c, 6, 81, 0
8, 24900, Note_on_c, 6, 69, 100
8, 24929, Note_on_c, 6, 69, 0
8, 24930, Note_on_c, 6, 70, 100
8, 24959, Note_on_c, 6, 70, 0
8, 24960, Note_on_c, 6, 69, 100
8, 24989, Note_on_c, 6, 69, 0
8, 24990, Note_on_c, 6, 70, 100
8, 25019, Note_on_c, 6, 70, 0
8, 25020, Note_on_c, 6, 72, 100
8, 25049, Note_on_c, 6, 72, 0
8, 25050, Note_on_c, 6, 62, 100
8, 25079, Note_on_c, 6, 62, 0
8, 25080, Note_on_c, 6, 66, 100
8, 25109, Note_on_c, 6, 66, 0
8, 25110, Note_on_c, 6, 69, 100
8, 25139, Note_on_c, 6, 69, 0
8, 25140, Note_on_c, 6, 74, 100
8, 25169, Note_on_c, 6, 74, 0
8, 25170, Note_on_c, 6, 72, 100
8, 25199, Note_on_c, 6, 72, 0
8, 25200, Note_on_c, 6, 70, 100
8, 25229, Note_on_c, 6, 70, 0
8, 25230, Note_on_c, 6, 74, 100
8, 25259, Note_on_c, 6, 74, 0
8, 25260, Note_on_c, 6, 67, 100
8, 25289, Note_on_c, 6, 67, 0
8, 25290, Note_on_c, 6, 70, 100
8, 25319, Note_on_c, 6, 70, 0
8, 25320, Note_on_c, 6, 74, 100
8, 25349, Note_on_c, 6, 74, 0
8, 25350, Note_on_c, 6, 70, 100
8, 25379, Note_on_c, 6, 70, 0
8, 25380, Note_on_c, 6, 72, 100
8, 25409, Note_on_c, 6, 72, 0
8, 25410, Note_on_c, 6, 75, 100
8, 25439, Note_on_c, 6, 75, 0
8, 25440, Note_on_c, 6, 67, 100
8, 25469, Note_on_c, 6, 67, 0
8, 25470, Note_on_c, 6, 72, 100
8, 25499, Note_on_c, 6, 72, 0
8, 25500, Note_on_c, 6, 75, 100
8, 25529, Note_on_c, 6, 75, 0
8, 25530, Note_on_c, 6, 79, 100
8, 25559, Note_on_c, 6, 79, 0
8, 25560, Note_on_c, 6, 75, 100
8, 25589, Note_on_c, 6, 75, 0
8, 25590, Note_on_c, 6, 72, 100
8, 25619, Note_on_c, 6, 72, 0
8, 25620, Note_on_c, 6, 69, 100
8, 25649, Note_on_c, 6, 69, 0
8, 25650, Note_on_c, 6, 72, 100
8, 25679, Note_on_c, 6, 72, 0
8, 25680, Note_on_c, 6, 77, 100
8, 25709, Note_on_c, 6, 77, 0
8, 25710, Note_on_c, 6, 72, 100
8, 25739, Note_on_c, 6, 72, 0
8, 25740, Note_on_c, 6, 70, 100
8, 25769, Note_on_c, 6, 70, 0
8, 25770, Note_on_c, 6, 74, 100
8, 25799, Note_on_c, 6, 74, 0
8, 25800, Note_on_c, 6, 65, 100
8, 25829, Note_on_c, 6, 65, 0
8, 25830, Note_on_c, 6, 70, 100
8, 25859, Note_on_c, 6, 70, 0
8, 25860, Note_on_c, 6, 74, 100
8, 25889, Note_on_c, 6, 74, 0
8, 25890, Note_on_c, 6, 77, 100
8, 25919, Note_on_c, 6, 77, 0
8, 25920, Note_on_c, 6, 74, 100
8, 25949, Note_on_c, 6, 74, 0
8, 25950, Note_on_c, 6, 70, 100
8, 25979, Note_on_c, 6, 70, 0
8, 25980, Note_on_c, 6, 67, 100
8, 26009, Note_on_c, 6, 67, 0
8, 26010, Note_on_c, 6, 70, 100
8, 26039, Note_on_c, 6, 70, 0
8, 26040, Note_on_c, 6, 75, 100
8, 26069, Note_on_c, 6, 75, 0
8, 26070, Note_on_c, 6, 70, 100
8, 26099, Note_on_c, 6, 70, 0
8, 26100, Note_on_c, 6, 69, 100
8, 26129, Note_on_c, 6, 69, 0
8, 26130, Note_on_c, 6, 72, 100
8, 26159, Note_on_c, 6, 72, 0
8, 26160, Note_on_c, 6, 66, 100
8, 26189, Note_on_c, 6, 66, 0
8, 26190, Note_on_c, 6, 69, 100
8, 26219, Note_on_c, 6, 69, 0
8, 26220, Note_on_c, 6, 72, 100
8, 26249, Note_on_c, 6, 72, 0
8, 26250, Note_on_c, 6, 75, 100
8, 26279, Note_on_c, 6, 75, 0
8, 26280, Note_on_c, 6, 72, 100
8, 26309, Note_on_c, 6, 72, 0
8, 26310, Note_on_c, 6, 69, 100
8, 26339, Note_on_c, 6, 69, 0
8, 26340, Note_on_c, 6, 66, 100
8, 26369, Note_on_c, 6, 66, 0
8, 26370, Note_on_c, 6, 69, 100
8, 26399, Note_on_c, 6, 69, 0
8, 26400, Note_on_c, 6, 74, 100
8, 26429, Note_on_c, 6, 74, 0
8, 26430, Note_on_c, 6, 69, 100
8, 26459, Note_on_c, 6, 69, 0
8, 26460, Note_on_c, 6, 67, 100
8, 26489, Note_on_c, 6, 67, 0
8, 26490, Note_on_c, 6, 71, 100
8, 26519, Note_on_c, 6, 71, 0
8, 26520, Note_on_c, 6, 62, 100
8, 26549, Note_on_c, 6, 62, 0
8, 26550, Note_on_c, 6, 67, 100
8, 26579, Note_on_c, 6, 67, 0
8, 26580, Note_on_c, 6, 71, 100
8, 26609, Note_on_c, 6, 71, 0
8, 26610, Note_on_c, 6, 74, 100
8, 26639, Note_on_c, 6, 74, 0
8, 26640, Note_on_c, 6, 72, 100
8, 26699, Note_on_c, 6, 72, 0
8, 26700, Note_on_c, 6, 75, 100
8, 26759, Note_on_c, 6, 75, 0
8, 26760, Note_on_c, 6, 79, 100
8, 26819, Note_on_c, 6, 79, 0
8, 26820, Note_on_c, 6, 72, 100
8, 26879, Note_on_c, 6, 72, 0
8, 26880, Note_on_c, 6, 75, 100
8, 26939, Note_on_c, 6, 75, 0
8, 26940, Note_on_c, 6, 79, 100
8, 26999, Note_on_c, 6, 79, 0
8, 27000, Note_on_c, 6, 72, 100
8, 27059, Note_on_c, 6, 72, 0
8, 27060, Note_on_c, 6, 75, 100
8, 27119, Note_on_c, 6, 75, 0
8, 27120, Note_on_c, 6, 80, 100
8, 27179, Note_on_c, 6, 80, 0
8, 27180, Note_on_c, 6, 72, 100
8, 27239, Note_on_c, 6, 72, 0
8, 27240, Note_on_c, 6, 75, 100
8, 27299, Note_on_c, 6, 75, 0
8, 27300, Note_on_c, 6, 80, 100
8, 27359, Note_on_c, 6, 80, 0
8, 27360, Note_on_c, 6, 69, 100
8, 27419, Note_on_c, 6, 69, 0
8, 27420, Note_on_c, 6, 75, 100
8, 27479, Note_on_c, 6, 75, 0
8, 27480, Note_on_c, 6, 78, 100
8, 27539, Note_on_c, 6, 78, 0
8, 27540, Note_on_c, 6, 69, 100
8, 27599, Note_on_c, 6, 69, 0
8, 27600, Note_on_c, 6, 75, 100
8, 27659, Note_on_c, 6, 75, 0
8, 27660, Note_on_c, 6, 78, 100
8, 27719, Note_on_c, 6, 78, 0
8, 27720, Note_on_c, 6, 70, 100
8, 27779, Note_on_c, 6, 70, 0
8, 27780, Note_on_c, 6, 76, 100
8, 27839, Note_on_c, 6, 76, 0
8, 27840, Note_on_c, 6, 79, 100
8, 27899, Note_on_c, 6, 79, 0
8, 27900, Note_on_c, 6, 70, 100
8, 27959, Note_on_c, 6, 70, 0
8, 27960, Note_on_c, 6, 76, 100
8, 28019, Note_on_c, 6, 76, 0
8, 28020, Note_on_c, 6, 79, 100
8, 28079, Note_on_c, 6, 79, 0
8, 28080, Note_on_c, 6, 72, 100
8, 28139, Note_on_c, 6, 72, 0
8, 28140, Note_on_c, 6, 78, 100
8, 28199, Note_on_c, 6, 78, 0
8, 28200, Note_on_c, 6, 81, 100
8, 28259, Note_on_c, 6, 81, 0
8, 28260, Note_on_c, 6, 72, 100
8, 28319, Note_on_c, 6, 72, 0
8, 28320, Note_on_c, 6, 78, 100
8, 28379, Note_on_c, 6, 78, 0
8, 28380, Note_on_c, 6, 81, 100
8, 28439, Note_on_c, 6, 81, 0
8, 28440, Note_on_c, 6, 73, 100
8, 28499, Note_on_c, 6, 73, 0
8, 28500, Note_on_c, 6, 79, 100
8, 28559, Note_on_c, 6, 79, 0
8, 28560, Note_on_c, 6, 82, 100
8, 28619, Note_on_c, 6, 82, 0
8, 28620, Note_on_c, 6, 73, 100
8, 28679, Note_on_c, 6, 73, 0
8, 28680, Note_on_c, 6, 79, 100
8, 28739, Note_on_c, 6, 79, 0
8, 28740, Note_on_c, 6, 82, 100
8, 28799, Note_on_c, 6, 82, 0
8, 28800, Note_on_c, 6, 78, 100
8, 28859, Note_on_c, 6, 78, 0
8, 28860, Note_on_c, 6, 81, 100
8, 28919, Note_on_c, 6, 81, 0
8, 28920, Note_on_c, 6, 84, 100
8, 28979, Note_on_c, 6, 84, 0
8, 28980, Note_on_c, 6, 78, 100
8, 29039, Note_on_c, 6, 78, 0
8, 29040, Note_on_c, 6, 81, 100
8, 29099, Note_on_c, 6, 81, 0
8, 29100, Note_on_c, 6, 84, 100
8, 29159, Note_on_c, 6, 84, 0
8, 29220, Note_on_c, 6, 74, 100
8, 29220, Note_on_c, 6, 82, 100
8, 29220, Note_on_c, 6, 79, 100
8, 29279, Note_on_c, 6, 79, 0
8, 29279, Note_on_c, 6, 82, 0
8, 29279, Note_on_c, 6, 74, 0
8, 29400, Note_on_c, 6, 70, 100
8, 29400, Note_on_c, 6, 74, 100
8, 29400, Note_on_c, 6, 79, 100
8, 29459, Note_on_c, 6, 79, 0
8, 29459, Note_on_c, 6, 74, 0
8, 29459, Note_on_c, 6, 70, 0
8, 29580, Note_on_c, 6, 69, 100
8, 29580, Note_on_c, 6, 78, 100
8, 29580, Note_on_c, 6, 74, 100
8, 29639, Note_on_c, 6, 74, 0
8, 29639, Note_on_c, 6, 78, 0
8, 29639, Note_on_c, 6, 69, 0
8, 29760, Note_on_c, 6, 78, 100
8, 29760, Note_on_c, 6, 69, 100
8, 29760, Note_on_c, 6, 74, 100
8, 29819, Note_on_c, 6, 74, 0
8, 29819, Note_on_c, 6, 69, 0
8, 29819, Note_on_c, 6, 78, 0
8, 29940, Note_on_c, 6, 74, 100
8, 29940, Note_on_c, 6, 78, 100
8, 29940, Note_on_c, 6, 81, 100
8, 29999, Note_on_c, 6, 81, 0
8, 29999, Note_on_c, 6, 78, 0
8, 29999, Note_on_c, 6, 74, 0
8, 30120, Note_on_c, 6, 69, 100
8, 30120, Note_on_c, 6, 72, 100
8, 30120, Note_on_c, 6, 78, 100
8, 30179, Note_on_c, 6, 78, 0
8, 30179, Note_on_c, 6, 72, 0
8, 30179, Note_on_c, 6, 69, 0
8, 30300, Note_on_c, 6, 69, 100
8, 30300, Note_on_c, 6, 72, 100
8, 30300, Note_on_c, 6, 78, 100
8, 30359, Note_on_c, 6, 78, 0
8, 30359, Note_on_c, 6, 72, 0
8, 30359, Note_on_c, 6, 69, 0
8, 30480, Note_on_c, 6, 69, 100
8, 30480, Note_on_c, 6, 72, 100
8, 30480, Note_on_c, 6, 78, 100
8, 30539, Note_on_c, 6, 78, 0
8, 30539, Note_on_c, 6, 72, 0
8, 30539, Note_on_c, 6, 69, 0
8, 30600, Note_on_c, 6, 72, 100
8, 30600, Note_on_c, 6, 69, 100
8, 30659, Note_on_c, 6, 69, 0
8, 30659, Note_on_c, 6, 72, 0
8, 30720, Note_on_c, 6, 66, 100
8, 30720, Note_on_c, 6, 69, 100
8, 30779, Note_on_c, 6, 69, 0
8, 30779, Note_on_c, 6, 66, 0
8, 30780, Note_on_c, 6, 62, 100
8, 30780, Note_on_c, 6, 70, 100
8, 30839, Note_on_c, 6, 70, 0
8, 30839, Note_on_c, 6, 62, 0
8, 30900, Note_on_c, 6, 75, 100
8, 30900, Note_on_c, 6, 67, 100
8, 30959, Note_on_c, 6, 67, 0
8, 30959, Note_on_c, 6, 75, 0
8, 30960, Note_on_c, 6, 69, 100
8, 30960, Note_on_c, 6, 72, 100
8, 31019, Note_on_c, 6, 72, 0
8, 31019, Note_on_c, 6, 69, 0
8, 31080, Note_on_c, 6, 68, 100
8, 31080, Note_on_c, 6, 77, 100
8, 31139, Note_on_c, 6, 77, 0
8, 31139, Note_on_c, 6, 68, 0
8, 31140, Note_on_c, 6, 68, 100
8, 31140, Note_on_c, 6, 71, 100
8, 31199, Note_on_c, 6, 71, 0
8, 31199, Note_on_c, 6, 68, 0
8, 31260, Note_on_c, 6, 67, 100
8, 31260, Note_on_c, 6, 74, 100
8, 31319, Note_on_c, 6, 74, 0
8, 31319, Note_on_c, 6, 67, 0
8, 31320, Note_on_c, 6, 67, 100
8, 31320, Note_on_c, 6, 72, 100
8, 31379, Note_on_c, 6, 72, 0
8, 31379, Note_on_c, 6, 67, 0
8, 31440, Note_on_c, 6, 75, 100
8, 31440, Note_on_c, 6, 72, 100
8, 31499, Note_on_c, 6, 72, 0
8, 31499, Note_on_c, 6, 75, 0
8, 31500, Note_on_c, 6, 75, 100
8, 31500, Note_on_c, 6, 66, 100
8, 31559, Note_on_c, 6, 66, 0
8, 31559, Note_on_c, 6, 75, 0
8, 31620, Note_on_c, 6, 72, 100
8, 31620, Note_on_c, 6, 74, 100
8, 31679, Note_on_c, 6, 74, 0
8, 31679, Note_on_c, 6, 72, 0
8, 31680, Note_on_c, 6, 70, 100
8, 31680, Note_on_c, 6, 74, 100
8, 31739, Note_on_c, 6, 74, 0
8, 31739, Note_on_c, 6, 70, 0
8, 31800, Note_on_c, 6, 70, 100
8, 31800, Note_on_c, 6, 79, 100
8, 31859, Note_on_c, 6, 79, 0
8, 31859, Note_on_c, 6, 70, 0
8, 31860, Note_on_c, 6, 70, 100
8, 31860, Note_on_c, 6, 73, 100
8, 31919, Note_on_c, 6, 73, 0
8, 31919, Note_on_c, 6, 70, 0
8, 31980, Note_on_c, 6, 76, 100
8, 31980, Note_on_c, 6, 69, 100
8, 32039, Note_on_c, 6, 69, 0
8, 32039, Note_on_c, 6, 76, 0
8, 32040, Note_on_c, 6, 69, 100
8, 32040, Note_on_c, 6, 77, 100
8, 32099, Note_on_c, 6, 77, 0
8, 32099, Note_on_c, 6, 69, 0
8, 32160, Note_on_c, 6, 72, 100
8, 32160, Note_on_c, 6, 77, 100
8, 32219, Note_on_c, 6, 77, 0
8, 32219, Note_on_c, 6, 72, 0
8, 32220, Note_on_c, 6, 71, 100
8, 32220, Note_on_c, 6, 77, 100
8, 32279, Note_on_c, 6, 77, 0
8, 32279, Note_on_c, 6, 71, 0
8, 32340, Note_on_c, 6, 67, 100
8, 32340, Note_on_c, 6, 74, 100
8, 32399, Note_on_c, 6, 74, 0
8, 32399, Note_on_c, 6, 67, 0
8, 32400, Note_on_c, 6, 75, 100
8, 32400, Note_on_c, 6, 67, 100
8, 32459, Note_on_c, 6, 67, 0
8, 32459, Note_on_c, 6, 75, 0
8, 32520, Note_on_c, 6, 70, 100
8, 32520, Note_on_c, 6, 76, 100
8, 32579, Note_on_c, 6, 76, 0
8, 32579, Note_on_c, 6, 70, 0
8, 32580, Note_on_c, 6, 75, 100
8, 32580, Note_on_c, 6, 69, 100
8, 32639, Note_on_c, 6, 69, 0
8, 32639, Note_on_c, 6, 75, 0
8, 32700, Note_on_c, 6, 69, 100
8, 32700, Note_on_c, 6, 72, 100
8, 32759, Note_on_c, 6, 72, 0
8, 32759, Note_on_c, 6, 69, 0
8, 32760, Note_on_c, 6, 65, 100
8, 32760, Note_on_c, 6, 74, 100
8, 32819, Note_on_c, 6, 74, 0
8, 32819, Note_on_c, 6, 65, 0
8, 32880, Note_on_c, 6, 65, 100
8, 32880, Note_on_c, 6, 74, 100
8, 32939, Note_on_c, 6, 74, 0
8, 32939, Note_on_c, 6, 65, 0
8, 32940, Note_on_c, 6, 73, 100
8, 32940, Note_on_c, 6, 67, 100
8, 32999, Note_on_c, 6, 67, 0
8, 32999, Note_on_c, 6, 73, 0
8, 33060, Note_on_c, 6, 70, 100
8, 33060, Note_on_c, 6, 74, 100
8, 33119, Note_on_c, 6, 74, 0
8, 33119, Note_on_c, 6, 70, 0
8, 33120, Note_on_c, 6, 70, 100
8, 33120, Note_on_c, 6, 76, 100
8, 33179, Note_on_c, 6, 76, 0
8, 33179, Note_on_c, 6, 70, 0
8, 33240, Note_on_c, 6, 76, 100
8, 33240, Note_on_c, 6, 69, 100
8, 33299, Note_on_c, 6, 69, 0
8, 33299, Note_on_c, 6, 76, 0
8, 33300, Note_on_c, 6, 75, 100
8, 33300, Note_on_c, 6, 69, 100
8, 33359, Note_on_c, 6, 69, 0
8, 33359, Note_on_c, 6, 75, 0
8, 33420, Note_on_c, 6, 72, 100
8, 33420, Note_on_c, 6, 74, 100
8, 33479, Note_on_c, 6, 74, 0
8, 33479, Note_on_c, 6, 72, 0
8, 33480, Note_on_c, 6, 70, 100
8, 33480, Note_on_c, 6, 74, 100
8, 33539, Note_on_c, 6, 74, 0
8, 33539, Note_on_c, 6, 70, 0
8, 34050, Note_on_c, 6, 67, 100
8, 34079, Note_on_c, 6, 67, 0
8, 34080, Note_on_c, 6, 70, 100
8, 34109, Note_on_c, 6, 70, 0
8, 34110, Note_on_c, 6, 74, 100
8, 34139, Note_on_c, 6, 74, 0
8, 34140, Note_on_c, 6, 79, 100
8, 34169, Note_on_c, 6, 79, 0
8, 34170, Note_on_c, 6, 78, 100
8, 34199, Note_on_c, 6, 78, 0
8, 34200, Note_on_c, 6, 79, 100
8, 34229, Note_on_c, 6, 79, 0
8, 34230, Note_on_c, 6, 77, 100
8, 34259, Note_on_c, 6, 77, 0
8, 34260, Note_on_c, 6, 75, 100
8, 34289, Note_on_c, 6, 75, 0
8, 34290, Note_on_c, 6, 74, 100
8, 34319, Note_on_c, 6, 74, 0
8, 34320, Note_on_c, 6, 72, 100
8, 34349, Note_on_c, 6, 72, 0
8, 34350, Note_on_c, 6, 70, 100
8, 34379, Note_on_c, 6, 70, 0
8, 34380, Note_on_c, 6, 72, 100
8, 34409, Note_on_c, 6, 72, 0
8, 34410, Note_on_c, 6, 70, 100
8, 34439, Note_on_c, 6, 70, 0
8, 34440, Note_on_c, 6, 69, 100
8, 34469, Note_on_c, 6, 69, 0
8, 34470, Note_on_c, 6, 67, 100
8, 34499, Note_on_c, 6, 67, 0
8, 34500, Note_on_c, 6, 69, 100
8, 34529, Note_on_c, 6, 69, 0
8, 34530, Note_on_c, 6, 70, 100
8, 34559, Note_on_c, 6, 70, 0
8, 34560, Note_on_c, 6, 72, 100
8, 34589, Note_on_c, 6, 72, 0
8, 34590, Note_on_c, 6, 75, 100
8, 34619, Note_on_c, 6, 75, 0
8, 34620, Note_on_c, 6, 66, 100
8, 34649, Note_on_c, 6, 66, 0
8, 34650, Note_on_c, 6, 67, 100
8, 34679, Note_on_c, 6, 67, 0
8, 34680, Note_on_c, 6, 69, 100
8, 34709, Note_on_c, 6, 69, 0
8, 34710, Note_on_c, 6, 70, 100
8, 34739, Note_on_c, 6, 70, 0
8, 34740, Note_on_c, 6, 72, 100
8, 34769, Note_on_c, 6, 72, 0
8, 34770, Note_on_c, 6, 75, 100
8, 34799, Note_on_c, 6, 75, 0
8, 34800, Note_on_c, 6, 74, 100
8, 34829, Note_on_c, 6, 74, 0
8, 34830, Note_on_c, 6, 72, 100
8, 34859, Note_on_c, 6, 72, 0
8, 34860, Note_on_c, 6, 74, 100
8, 34889, Note_on_c, 6, 74, 0
8, 34890, Note_on_c, 6, 70, 100
8, 34919, Note_on_c, 6, 70, 0
8, 34920, Note_on_c, 6, 72, 100
8, 34979, Note_on_c, 6, 72, 0
8, 34980, Note_on_c, 6, 70, 100
8, 35009, Note_on_c, 6, 70, 0
8, 35010, Note_on_c, 6, 72, 100
8, 35039, Note_on_c, 6, 72, 0
8, 35040, Note_on_c, 6, 73, 100
8, 35069, Note_on_c, 6, 73, 0
8, 35070, Note_on_c, 6, 76, 100
8, 35099, Note_on_c, 6, 76, 0
8, 35100, Note_on_c, 6, 69, 100
8, 35159, Note_on_c, 6, 69, 0
8, 35160, Note_on_c, 6, 69, 100
8, 35219, Note_on_c, 6, 69, 0
8, 35220, Note_on_c, 6, 70, 100
8, 35279, Note_on_c, 6, 70, 0
8, 35280, Note_on_c, 6, 74, 100
8, 35299, Note_on_c, 6, 74, 0
8, 35300, Note_on_c, 6, 72, 100
8, 35319, Note_on_c, 6, 72, 0
8, 35320, Note_on_c, 6, 74, 100
8, 35339, Note_on_c, 6, 74, 0
8, 35340, Note_on_c, 6, 72, 100
8, 35354, Note_on_c, 6, 72, 0
8, 35355, Note_on_c, 6, 74, 100
8, 35369, Note_on_c, 6, 74, 0
8, 35370, Note_on_c, 6, 72, 100
8, 35384, Note_on_c, 6, 72, 0
8, 35385, Note_on_c, 6, 74, 100
8, 35399, Note_on_c, 6, 74, 0
8, 35400, Note_on_c, 6, 72, 100
8, 35409, Note_on_c, 6, 72, 0
8, 35410, Note_on_c, 6, 74, 100
8, 35419, Note_on_c, 6, 74, 0
8, 35420, Note_on_c, 6, 72, 100
8, 35429, Note_on_c, 6, 72, 0
8, 35430, Note_on_c, 6, 74, 100
8, 35439, Note_on_c, 6, 74, 0
8, 35440, Note_on_c, 6, 72, 100
8, 35449, Note_on_c, 6, 72, 0
8, 35450, Note_on_c, 6, 74, 100
8, 35459, Note_on_c, 6, 74, 0
8, 35460, Note_on_c, 6, 72, 100
8, 35469, Note_on_c, 6, 72, 0
8, 35470, Note_on_c, 6, 74, 100
8, 35479, Note_on_c, 6, 74, 0
8, 35480, Note_on_c, 6, 72, 100
8, 35489, Note_on_c, 6, 72, 0
8, 35490, Note_on_c, 6, 74, 100
8, 35499, Note_on_c, 6, 74, 0
8, 35500, Note_on_c, 6, 72, 100
8, 35509, Note_on_c, 6, 72, 0
8, 35510, Note_on_c, 6, 74, 100
8, 35519, Note_on_c, 6, 74, 0
8, 35520, Note_on_c, 6, 72, 100
8, 35529, Note_on_c, 6, 72, 0
8, 35530, Note_on_c, 6, 74, 100
8, 35539, Note_on_c, 6, 74, 0
8, 35540, Note_on_c, 6, 72, 100
8, 35549, Note_on_c, 6, 72, 0
8, 35550, Note_on_c, 6, 74, 100
8, 35559, Note_on_c, 6, 74, 0
8, 35560, Note_on_c, 6, 72, 100
8, 35569, Note_on_c, 6, 72, 0
8, 35570, Note_on_c, 6, 74, 100
8, 35579, Note_on_c, 6, 74, 0
8, 35580, Note_on_c, 6, 72, 100
8, 35589, Note_on_c, 6, 72, 0
8, 35590, Note_on_c, 6, 74, 100
8, 35599, Note_on_c, 6, 74, 0
8, 35600, Note_on_c, 6, 72, 100
8, 35609, Note_on_c, 6, 72, 0
8, 35610, Note_on_c, 6, 74, 100
8, 35619, Note_on_c, 6, 74, 0
8, 35620, Note_on_c, 6, 72, 100
8, 35629, Note_on_c, 6, 72, 0
8, 35630, Note_on_c, 6, 74, 100
8, 35639, Note_on_c, 6, 74, 0
8, 35640, Note_on_c, 6, 72, 100
8, 35649, Note_on_c, 6, 72, 0
8, 35650, Note_on_c, 6, 74, 100
8, 35659, Note_on_c, 6, 74, 0
8, 35660, Note_on_c, 6, 72, 100
8, 35669, Note_on_c, 6, 72, 0
8, 35670, Note_on_c, 6, 74, 100
8, 35679, Note_on_c, 6, 74, 0
8, 35680, Note_on_c, 6, 72, 100
8, 35689, Note_on_c, 6, 72, 0
8, 35690, Note_on_c, 6, 74, 100
8, 35699, Note_on_c, 6, 74, 0
8, 35700, Note_on_c, 6, 72, 100
8, 35709, Note_on_c, 6, 72, 0
8, 35710, Note_on_c, 6, 74, 100
8, 35719, Note_on_c, 6, 74, 0
8, 35720, Note_on_c, 6, 72, 100
8, 35729, Note_on_c, 6, 72, 0
8, 35730, Note_on_c, 6, 74, 100
8, 35739, Note_on_c, 6, 74, 0
8, 35740, Note_on_c, 6, 72, 100
8, 35749, Note_on_c, 6, 72, 0
8, 35750, Note_on_c, 6, 74, 100
8, 35759, Note_on_c, 6, 74, 0
8, 35760, Note_on_c, 6, 72, 100
8, 35769, Note_on_c, 6, 72, 0
8, 35770, Note_on_c, 6, 74, 100
8, 35779, Note_on_c, 6, 74, 0
8, 35780, Note_on_c, 6, 72, 100
8, 35789, Note_on_c, 6, 72, 0
8, 35790, Note_on_c, 6, 70, 100
8, 35805, Note_on_c, 6, 70, 0
8, 35805, Note_on_c, 6, 72, 100
8, 35820, Note_on_c, 6, 72, 0
8, 35820, Note_on_c, 6, 74, 100
8, 35879, Note_on_c, 6, 74, 0
8, 35895, Note_on_c, 6, 62, 100
8, 35909, Note_on_c, 6, 62, 0
8, 35910, Note_on_c, 6, 64, 100
8, 35924, Note_on_c, 6, 64, 0
8, 35925, Note_on_c, 6, 66, 100
8, 35939, Note_on_c, 6, 66, 0
8, 35940, Note_on_c, 6, 67, 100
8, 35954, Note_on_c, 6, 67, 0
8, 35955, Note_on_c, 6, 66, 100
8, 35969, Note_on_c, 6, 66, 0
8, 35970, Note_on_c, 6, 67, 100
8, 35984, Note_on_c, 6, 67, 0
8, 35985, Note_on_c, 6, 69, 100
8, 35999, Note_on_c, 6, 69, 0
8, 36000, Note_on_c, 6, 70, 100
8, 36029, Note_on_c, 6, 70, 0
8, 36030, Note_on_c, 6, 74, 100
8, 36059, Note_on_c, 6, 74, 0
8, 36060, Note_on_c, 6, 67, 100
8, 36089, Note_on_c, 6, 67, 0
8, 36090, Note_on_c, 6, 70, 100
8, 36119, Note_on_c, 6, 70, 0
8, 36120, Note_on_c, 6, 74, 100
8, 36149, Note_on_c, 6, 74, 0
8, 36150, Note_on_c, 6, 78, 100
8, 36179, Note_on_c, 6, 78, 0
8, 36180, Note_on_c, 6, 79, 100
8, 36239, Note_on_c, 6, 79, 0
8, 36240, Note_on_c, 6, 74, 100
8, 36269, Note_on_c, 6, 74, 0
8, 36270, Note_on_c, 6, 75, 100
8, 36299, Note_on_c, 6, 75, 0
8, 36300, Note_on_c, 6, 74, 100
8, 36329, Note_on_c, 6, 74, 0
8, 36330, Note_on_c, 6, 72, 100
8, 36359, Note_on_c, 6, 72, 0
8, 36360, Note_on_c, 6, 70, 100
8, 36379, Note_on_c, 6, 70, 0
8, 36380, Note_on_c, 6, 72, 100
8, 36399, Note_on_c, 6, 72, 0
8, 36400, Note_on_c, 6, 70, 100
8, 36419, Note_on_c, 6, 70, 0
8, 36420, Note_on_c, 6, 72, 100
8, 36434, Note_on_c, 6, 72, 0
8, 36435, Note_on_c, 6, 70, 100
8, 36449, Note_on_c, 6, 70, 0
8, 36450, Note_on_c, 6, 72, 100
8, 36464, Note_on_c, 6, 72, 0
8, 36465, Note_on_c, 6, 70, 100
8, 36479, Note_on_c, 6, 70, 0
8, 36480, Note_on_c, 6, 72, 100
8, 36489, Note_on_c, 6, 72, 0
8, 36490, Note_on_c, 6, 70, 100
8, 36499, Note_on_c, 6, 70, 0
8, 36500, Note_on_c, 6, 72, 100
8, 36509, Note_on_c, 6, 72, 0
8, 36510, Note_on_c, 6, 70, 100
8, 36519, Note_on_c, 6, 70, 0
8, 36520, Note_on_c, 6, 72, 100
8, 36529, Note_on_c, 6, 72, 0
8, 36530, Note_on_c, 6, 70, 100
8, 36539, Note_on_c, 6, 70, 0
8, 36540, Note_on_c, 6, 72, 100
8, 36549, Note_on_c, 6, 72, 0
8, 36550, Note_on_c, 6, 70, 100
8, 36559, Note_on_c, 6, 70, 0
8, 36560, Note_on_c, 6, 72, 100
8, 36569, Note_on_c, 6, 72, 0
8, 36570, Note_on_c, 6, 70, 100
8, 36579, Note_on_c, 6, 70, 0
8, 36580, Note_on_c, 6, 72, 100
8, 36589, Note_on_c, 6, 72, 0
8, 36590, Note_on_c, 6, 70, 100
8, 36599, Note_on_c, 6, 70, 0
8, 36600, Note_on_c, 6, 72, 100
8, 36609, Note_on_c, 6, 72, 0
8, 36610, Note_on_c, 6, 70, 100
8, 36619, Note_on_c, 6, 70, 0
8, 36620, Note_on_c, 6, 72, 100
8, 36629, Note_on_c, 6, 72, 0
8, 36630, Note_on_c, 6, 70, 100
8, 36639, Note_on_c, 6, 70, 0
8, 36640, Note_on_c, 6, 72, 100
8, 36649, Note_on_c, 6, 72, 0
8, 36650, Note_on_c, 6, 70, 100
8, 36659, Note_on_c, 6, 70, 0
8, 36660, Note_on_c, 6, 72, 100
8, 36669, Note_on_c, 6, 72, 0
8, 36670, Note_on_c, 6, 70, 100
8, 36679, Note_on_c, 6, 70, 0
8, 36680, Note_on_c, 6, 72, 100
8, 36689, Note_on_c, 6, 72, 0
8, 36690, Note_on_c, 6, 70, 100
8, 36699, Note_on_c, 6, 70, 0
8, 36700, Note_on_c, 6, 72, 100
8, 36709, Note_on_c, 6, 72, 0
8, 36710, Note_on_c, 6, 70, 100
8, 36719, Note_on_c, 6, 70, 0
8, 36720, Note_on_c, 6, 72, 100
8, 36729, Note_on_c, 6, 72, 0
8, 36730, Note_on_c, 6, 70, 100
8, 36739, Note_on_c, 6, 70, 0
8, 36740, Note_on_c, 6, 72, 100
8, 36749, Note_on_c, 6, 72, 0
8, 36750, Note_on_c, 6, 61, 100
8, 36779, Note_on_c, 6, 61, 0
8, 36780, Note_on_c, 6, 64, 100
8, 36809, Note_on_c, 6, 64, 0
8, 36810, Note_on_c, 6, 67, 100
8, 36839, Note_on_c, 6, 67, 0
8, 36840, Note_on_c, 6, 64, 100
8, 36869, Note_on_c, 6, 64, 0
8, 36870, Note_on_c, 6, 61, 100
8, 36899, Note_on_c, 6, 61, 0
8, 36900, Note_on_c, 6, 62, 100
8, 36929, Note_on_c, 6, 62, 0
8, 36930, Note_on_c, 6, 65, 100
8, 36959, Note_on_c, 6, 65, 0
8, 36960, Note_on_c, 6, 69, 100
8, 36989, Note_on_c, 6, 69, 0
8, 36990, Note_on_c, 6, 61, 100
8, 37019, Note_on_c, 6, 61, 0
8, 37020, Note_on_c, 6, 64, 100
8, 37049, Note_on_c, 6, 64, 0
8, 37050, Note_on_c, 6, 69, 100
8, 37079, Note_on_c, 6, 69, 0
8, 37080, Note_on_c, 6, 57, 100
8, 37109, Note_on_c, 6, 57, 0
8, 37110, Note_on_c, 6, 62, 100
8, 37139, Note_on_c, 6, 62, 0
8, 37140, Note_on_c, 6, 65, 100
8, 37169, Note_on_c, 6, 65, 0
8, 37170, Note_on_c, 6, 69, 100
8, 37199, Note_on_c, 6, 69, 0
8, 37200, Note_on_c, 6, 65, 100
8, 37229, Note_on_c, 6, 65, 0
8, 37230, Note_on_c, 6, 62, 100
8, 37259, Note_on_c, 6, 62, 0
8, 37260, Note_on_c, 6, 74, 100
8, 37470, Note_on_c, 6, 74, 0
8, 37470, Note_on_c, 6, 64, 100
8, 37499, Note_on_c, 6, 64, 0
8, 37500, Note_on_c, 6, 68, 100
8, 37529, Note_on_c, 6, 68, 0
8, 37530, Note_on_c, 6, 71, 100
8, 37559, Note_on_c, 6, 71, 0
8, 37560, Note_on_c, 6, 68, 100
8, 37589, Note_on_c, 6, 68, 0
8, 37590, Note_on_c, 6, 64, 100
8, 37619, Note_on_c, 6, 64, 0
8, 37620, Note_on_c, 6, 76, 100
8, 37679, Note_on_c, 6, 76, 0
8, 37680, Note_on_c, 6, 76, 100
8, 37739, Note_on_c, 6, 76, 0
8, 37740, Note_on_c, 6, 74, 100
8, 37799, Note_on_c, 6, 74, 0
8, 37800, Note_on_c, 6, 73, 100
8, 37829, Note_on_c, 6, 73, 0
8, 37830, Note_on_c, 6, 69, 100
8, 37859, Note_on_c, 6, 69, 0
8, 37860, Note_on_c, 6, 72, 100
8, 37889, Note_on_c, 6, 72, 0
8, 37890, Note_on_c, 6, 76, 100
8, 37919, Note_on_c, 6, 76, 0
8, 37920, Note_on_c, 6, 81, 100
8, 37949, Note_on_c, 6, 81, 0
8, 37950, Note_on_c, 6, 79, 100
8, 37979, Note_on_c, 6, 79, 0
8, 37980, Note_on_c, 6, 81, 100
8, 38190, Note_on_c, 6, 81, 0
8, 38190, Note_on_c, 6, 67, 100
8, 38219, Note_on_c, 6, 67, 0
8, 38220, Note_on_c, 6, 70, 100
8, 38249, Note_on_c, 6, 70, 0
8, 38250, Note_on_c, 6, 74, 100
8, 38279, Note_on_c, 6, 74, 0
8, 38280, Note_on_c, 6, 79, 100
8, 38309, Note_on_c, 6, 79, 0
8, 38310, Note_on_c, 6, 77, 100
8, 38339, Note_on_c, 6, 77, 0
8, 38340, Note_on_c, 6, 79, 100
8, 38550, Note_on_c, 6, 79, 0
8, 38550, Note_on_c, 6, 65, 100
8, 38579, Note_on_c, 6, 65, 0
8, 38580, Note_on_c, 6, 69, 100
8, 38609, Note_on_c, 6, 69, 0
8, 38610, Note_on_c, 6, 72, 100
8, 38639, Note_on_c, 6, 72, 0
8, 38640, Note_on_c, 6, 77, 100
8, 38669, Note_on_c, 6, 77, 0
8, 38670, Note_on_c, 6, 76, 100
8, 38699, Note_on_c, 6, 76, 0
8, 38700, Note_on_c, 6, 77, 100
8, 38910, Note_on_c, 6, 77, 0
8, 38910, Note_on_c, 6, 64, 100
8, 38939, Note_on_c, 6, 64, 0
8, 38940, Note_on_c, 6, 67, 100
8, 38969, Note_on_c, 6, 67, 0
8, 38970, Note_on_c, 6, 70, 100
8, 38999, Note_on_c, 6, 70, 0
8, 39000, Note_on_c, 6, 76, 100
8, 39029, Note_on_c, 6, 76, 0
8, 39030, Note_on_c, 6, 74, 100
8, 39059, Note_on_c, 6, 74, 0
8, 39060, Note_on_c, 6, 76, 100
8, 39089, Note_on_c, 6, 76, 0
8, 39090, Note_on_c, 6, 81, 100
8, 39119, Note_on_c, 6, 81, 0
8, 39120, Note_on_c, 6, 76, 100
8, 39149, Note_on_c, 6, 76, 0
8, 39150, Note_on_c, 6, 73, 100
8, 39179, Note_on_c, 6, 73, 0
8, 39180, Note_on_c, 6, 69, 100
8, 39209, Note_on_c, 6, 69, 0
8, 39210, Note_on_c, 6, 73, 100
8, 39239, Note_on_c, 6, 73, 0
8, 39240, Note_on_c, 6, 74, 100
8, 39299, Note_on_c, 6, 74, 0
8, 39420, Note_on_c, 6, 65, 100
8, 39420, Note_on_c, 6, 74, 100
8, 39479, Note_on_c, 6, 74, 0
8, 39479, Note_on_c, 6, 65, 0
8, 39480, Note_on_c, 6, 76, 100
8, 39480, Note_on_c, 6, 67, 100
8, 39539, Note_on_c, 6, 67, 0
8, 39539, Note_on_c, 6, 76, 0
8, 39540, Note_on_c, 6, 69, 100
8, 39540, Note_on_c, 6, 77, 100
8, 39599, Note_on_c, 6, 77, 0
8, 39599, Note_on_c, 6, 69, 0
8, 39780, Note_on_c, 6, 76, 100
8, 39780, Note_on_c, 6, 67, 100
8, 39839, Note_on_c, 6, 67, 0
8, 39839, Note_on_c, 6, 76, 0
8, 39840, Note_on_c, 6, 69, 100
8, 39840, Note_on_c, 6, 77, 100
8, 39899, Note_on_c, 6, 77, 0
8, 39899, Note_on_c, 6, 69, 0
8, 39900, Note_on_c, 6, 70, 100
8, 39900, Note_on_c, 6, 79, 100
8, 39959, Note_on_c, 6, 79, 0
8, 39959, Note_on_c, 6, 70, 0
8, 40140, Note_on_c, 6, 69, 100
8, 40140, Note_on_c, 6, 78, 100
8, 40199, Note_on_c, 6, 78, 0
8, 40199, Note_on_c, 6, 69, 0
8, 40200, Note_on_c, 6, 70, 100
8, 40200, Note_on_c, 6, 79, 100
8, 40259, Note_on_c, 6, 79, 0
8, 40259, Note_on_c, 6, 70, 0
8, 40260, Note_on_c, 6, 72, 100
8, 40260, Note_on_c, 6, 81, 100
8, 40319, Note_on_c, 6, 81, 0
8, 40319, Note_on_c, 6, 72, 0
8, 40320, Note_on_c, 6, 70, 100
8, 40320, Note_on_c, 6, 74, 100
8, 40320, Note_on_c, 6, 79, 100
8, 40379, Note_on_c, 6, 79, 0
8, 40379, Note_on_c, 6, 74, 0
8, 40379, Note_on_c, 6, 70, 0
8, 41940, Note_on_c, 6, 64, 100
8, 41940, Note_on_c, 6, 69, 100
8, 41940, Note_on_c, 6, 73, 100
8, 41999, Note_on_c, 6, 73, 0
8, 41999, Note_on_c, 6, 69, 0
8, 41999, Note_on_c, 6, 64, 0
8, 42300, Note_on_c, 6, 74, 100
8, 42300, Note_on_c, 6, 65, 100
8, 42300, Note_on_c, 6, 69, 100
8, 42359, Note_on_c, 6, 69, 0
8, 42359, Note_on_c, 6, 65, 0
8, 42359, Note_on_c, 6, 74, 0
8, 42660, Note_on_c, 6, 69, 100
8, 42660, Note_on_c, 6, 73, 100
8, 42660, Note_on_c, 6, 76, 100
8, 42719, Note_on_c, 6, 76, 0
8, 42719, Note_on_c, 6, 73, 0
8, 42719, Note_on_c, 6, 69, 0
8, 42900, Note_on_c, 6, 74, 100
8, 42900, Note_on_c, 6, 65, 100
8, 42900, Note_on_c, 6, 69, 100
8, 42959, Note_on_c, 6, 69, 0
8, 42959, Note_on_c, 6, 65, 0
8, 42959, Note_on_c, 6, 74, 0
8, 43080, Note_on_c, 6, 64, 100
8, 43080, Note_on_c, 6, 69, 100
8, 43080, Note_on_c, 6, 73, 100
8, 43139, Note_on_c, 6, 73, 0
8, 43139, Note_on_c, 6, 69, 0
8, 43139, Note_on_c, 6, 64, 0
8, 43260, Note_on_c, 6, 62, 100
8, 43260, Note_on_c, 6, 68, 100
8, 43260, Note_on_c, 6, 71, 100
8, 43319, Note_on_c, 6, 71, 0
8, 43319, Note_on_c, 6, 68, 0
8, 43319, Note_on_c, 6, 62, 0
8, 43440, Note_on_c, 6, 61, 100
8, 43440, Note_on_c, 6, 64, 100
8, 43440, Note_on_c, 6, 69, 100
8, 43499, Note_on_c, 6, 69, 0
8, 43499, Note_on_c, 6, 64, 0
8, 43499, Note_on_c, 6, 61, 0
8, 43620, Note_on_c, 6, 64, 100
8, 43620, Note_on_c, 6, 68, 100
8, 43620, Note_on_c, 6, 59, 100
8, 43679, Note_on_c, 6, 59, 0
8, 43679, Note_on_c, 6, 68, 0
8, 43679, Note_on_c, 6, 64, 0
8, 43800, Note_on_c, 6, 61, 100
8, 43800, Note_on_c, 6, 64, 100
8, 43800, Note_on_c, 6, 67, 100
8, 43859, Note_on_c, 6, 67, 0
8, 43859, Note_on_c, 6, 64, 0
8, 43859, Note_on_c, 6, 61, 0
8, 43980, Note_on_c, 6, 65, 100
8, 43980, Note_on_c, 6, 62, 100
8, 44039, Note_on_c, 6, 62, 0
8, 44039, Note_on_c, 6, 65, 0
8, 44040, Note_on_c, 6, 65, 100
8, 44040, Note_on_c, 6, 74, 100
8, 44099, Note_on_c, 6, 74, 0
8, 44099, Note_on_c, 6, 65, 0
8, 44160, Note_on_c, 6, 62, 100
8, 44160, Note_on_c, 6, 68, 100
8, 44219, Note_on_c, 6, 68, 0
8, 44219, Note_on_c, 6, 62, 0
8, 44220, Note_on_c, 6, 68, 100
8, 44220, Note_on_c, 6, 74, 100
8, 44279, Note_on_c, 6, 74, 0
8, 44279, Note_on_c, 6, 68, 0
8, 44340, Note_on_c, 6, 69, 100
8, 44340, Note_on_c, 6, 73, 100
8, 44340, Note_on_c, 6, 64, 100
8, 44399, Note_on_c, 6, 64, 0
8, 44399, Note_on_c, 6, 73, 0
8, 44399, Note_on_c, 6, 69, 0
8, 44400, Note_on_c, 6, 69, 100
8, 44400, Note_on_c, 6, 73, 100
8, 44400, Note_on_c, 6, 76, 100
8, 44459, Note_on_c, 6, 76, 0
8, 44459, Note_on_c, 6, 73, 0
8, 44459, Note_on_c, 6, 69, 0
8, 44520, Note_on_c, 6, 69, 100
8, 44520, Note_on_c, 6, 74, 100
8, 44579, Note_on_c, 6, 74, 0
8, 44579, Note_on_c, 6, 69, 0
8, 44580, Note_on_c, 6, 69, 100
8, 44580, Note_on_c, 6, 73, 100
8, 44580, Note_on_c, 6, 79, 100
8, 44639, Note_on_c, 6, 79, 0
8, 44639, Note_on_c, 6, 73, 0
8, 44639, Note_on_c, 6, 69, 0
8, 44640, Note_on_c, 6, 74, 100
8, 44640, Note_on_c, 6, 69, 100
8, 44640, Note_on_c, 6, 77, 100
8, 44699, Note_on_c, 6, 77, 0
8, 44699, Note_on_c, 6, 69, 0
8, 44699, Note_on_c, 6, 74, 0
8, 45030, Note_on_c, 6, 62, 100
8, 45059, Note_on_c, 6, 62, 0
8, 45060, Note_on_c, 6, 74, 100
8, 45060, Note_on_c, 6, 65, 100
8, 45089, Note_on_c, 6, 65, 0
8, 45090, Note_on_c, 6, 69, 100
8, 45119, Note_on_c, 6, 69, 0
8, 45120, Note_on_c, 6, 74, 0
8, 45120, Note_on_c, 6, 76, 100
8, 45120, Note_on_c, 6, 74, 100
8, 45149, Note_on_c, 6, 74, 0
8, 45150, Note_on_c, 6, 73, 100
8, 45179, Note_on_c, 6, 73, 0
8, 45180, Note_on_c, 6, 76, 0
8, 45180, Note_on_c, 6, 74, 100
8, 45180, Note_on_c, 6, 77, 100
8, 45239, Note_on_c, 6, 77, 0
8, 45239, Note_on_c, 6, 74, 0
8, 45240, Note_on_c, 6, 65, 100
8, 45240, Note_on_c, 6, 77, 100
8, 45240, Note_on_c, 6, 69, 100
8, 45299, Note_on_c, 6, 69, 0
8, 45299, Note_on_c, 6, 77, 0
8, 45299, Note_on_c, 6, 65, 0
8, 45300, Note_on_c, 6, 79, 100
8, 45300, Note_on_c, 6, 64, 100
8, 45300, Note_on_c, 6, 67, 100
8, 45359, Note_on_c, 6, 67, 0
8, 45359, Note_on_c, 6, 64, 0
8, 45359, Note_on_c, 6, 79, 0
8, 45360, Note_on_c, 6, 81, 100
8, 45419, Note_on_c, 6, 81, 0
8, 45420, Note_on_c, 6, 81, 100
8, 45479, Note_on_c, 6, 81, 0
8, 45480, Note_on_c, 6, 82, 100
8, 45539, Note_on_c, 6, 82, 0
8, 45540, Note_on_c, 6, 81, 100
8, 45599, Note_on_c, 6, 81, 0
8, 45600, Note_on_c, 6, 79, 100
8, 45629, Note_on_c, 6, 79, 0
8, 45630, Note_on_c, 6, 77, 100
8, 45659, Note_on_c, 6, 77, 0
8, 45660, Note_on_c, 6, 76, 100
8, 45689, Note_on_c, 6, 76, 0
8, 45690, Note_on_c, 6, 74, 100
8, 45719, Note_on_c, 6, 74, 0
8, 45720, Note_on_c, 6, 73, 100
8, 45749, Note_on_c, 6, 73, 0
8, 45750, Note_on_c, 6, 71, 100
8, 45779, Note_on_c, 6, 71, 0
8, 45780, Note_on_c, 6, 69, 100
8, 45809, Note_on_c, 6, 69, 0
8, 45810, Note_on_c, 6, 71, 100
8, 45839, Note_on_c, 6, 71, 0
8, 45840, Note_on_c, 6, 73, 100
8, 45869, Note_on_c, 6, 73, 0
8, 45870, Note_on_c, 6, 74, 100
8, 45899, Note_on_c, 6, 74, 0
8, 45900, Note_on_c, 6, 76, 100
8, 45959, Note_on_c, 6, 76, 0
8, 45960, Note_on_c, 6, 73, 100
8, 45960, Note_on_c, 6, 76, 100
8, 46019, Note_on_c, 6, 76, 0
8, 46019, Note_on_c, 6, 73, 0
8, 46020, Note_on_c, 6, 77, 100
8, 46020, Note_on_c, 6, 74, 100
8, 46079, Note_on_c, 6, 74, 0
8, 46079, Note_on_c, 6, 77, 0
8, 46080, Note_on_c, 6, 69, 100
8, 46080, Note_on_c, 6, 76, 100
8, 46139, Note_on_c, 6, 76, 0
8, 46139, Note_on_c, 6, 69, 0
8, 46140, Note_on_c, 6, 57, 100
8, 46169, Note_on_c, 6, 57, 0
8, 46170, Note_on_c, 6, 59, 100
8, 46199, Note_on_c, 6, 59, 0
8, 46200, Note_on_c, 6, 61, 100
8, 46229, Note_on_c, 6, 61, 0
8, 46230, Note_on_c, 6, 62, 100
8, 46259, Note_on_c, 6, 62, 0
8, 46260, Note_on_c, 6, 64, 100
8, 46319, Note_on_c, 6, 64, 0
8, 46320, Note_on_c, 6, 64, 100
8, 46379, Note_on_c, 6, 64, 0
8, 46380, Note_on_c, 6, 65, 100
8, 46439, Note_on_c, 6, 65, 0
8, 46440, Note_on_c, 6, 64, 100
8, 46559, Note_on_c, 6, 64, 0
8, 46650, Note_on_c, 6, 74, 100
8, 46679, Note_on_c, 6, 74, 0
8, 46680, Note_on_c, 6, 77, 100
8, 46709, Note_on_c, 6, 77, 0
8, 46710, Note_on_c, 6, 81, 100
8, 46739, Note_on_c, 6, 81, 0
8, 46740, Note_on_c, 6, 86, 100
8, 46769, Note_on_c, 6, 86, 0
8, 46770, Note_on_c, 6, 84, 100
8, 46799, Note_on_c, 6, 84, 0
8, 46800, Note_on_c, 6, 82, 100
8, 46819, Note_on_c, 6, 82, 0
8, 46820, Note_on_c, 6, 84, 100
8, 46839, Note_on_c, 6, 84, 0
8, 46840, Note_on_c, 6, 82, 100
8, 46859, Note_on_c, 6, 82, 0
8, 46860, Note_on_c, 6, 84, 100
8, 46874, Note_on_c, 6, 84, 0
8, 46875, Note_on_c, 6, 82, 100
8, 46889, Note_on_c, 6, 82, 0
8, 46890, Note_on_c, 6, 84, 100
8, 46904, Note_on_c, 6, 84, 0
8, 46905, Note_on_c, 6, 82, 100
8, 46919, Note_on_c, 6, 82, 0
8, 46920, Note_on_c, 6, 84, 100
8, 46929, Note_on_c, 6, 84, 0
8, 46930, Note_on_c, 6, 82, 100
8, 46939, Note_on_c, 6, 82, 0
8, 46940, Note_on_c, 6, 84, 100
8, 46949, Note_on_c, 6, 84, 0
8, 46950, Note_on_c, 6, 82, 100
8, 46959, Note_on_c, 6, 82, 0
8, 46960, Note_on_c, 6, 84, 100
8, 46969, Note_on_c, 6, 84, 0
8, 46970, Note_on_c, 6, 82, 100
8, 46979, Note_on_c, 6, 82, 0
8, 46980, Note_on_c, 6, 84, 100
8, 46994, Note_on_c, 6, 84, 0
8, 46995, Note_on_c, 6, 82, 100
8, 47009, Note_on_c, 6, 82, 0
8, 47010, Note_on_c, 6, 81, 100
8, 47024, Note_on_c, 6, 81, 0
8, 47025, Note_on_c, 6, 79, 100
8, 47039, Note_on_c, 6, 79, 0
8, 47040, Note_on_c, 6, 84, 100
8, 47099, Note_on_c, 6, 84, 0
8, 47100, Note_on_c, 6, 82, 100
8, 47159, Note_on_c, 6, 82, 0
8, 47160, Note_on_c, 6, 81, 100
8, 47179, Note_on_c, 6, 81, 0
8, 47180, Note_on_c, 6, 82, 100
8, 47199, Note_on_c, 6, 82, 0
8, 47200, Note_on_c, 6, 81, 100
8, 47219, Note_on_c, 6, 81, 0
8, 47220, Note_on_c, 6, 82, 100
8, 47234, Note_on_c, 6, 82, 0
8, 47235, Note_on_c, 6, 81, 100
8, 47249, Note_on_c, 6, 81, 0
8, 47250, Note_on_c, 6, 82, 100
8, 47264, Note_on_c, 6, 82, 0
8, 47265, Note_on_c, 6, 81, 100
8, 47279, Note_on_c, 6, 81, 0
8, 47280, Note_on_c, 6, 82, 100
8, 47289, Note_on_c, 6, 82, 0
8, 47290, Note_on_c, 6, 81, 100
8, 47299, Note_on_c, 6, 81, 0
8, 47300, Note_on_c, 6, 82, 100
8, 47309, Note_on_c, 6, 82, 0
8, 47310, Note_on_c, 6, 81, 100
8, 47319, Note_on_c, 6, 81, 0
8, 47320, Note_on_c, 6, 82, 100
8, 47329, Note_on_c, 6, 82, 0
8, 47330, Note_on_c, 6, 81, 100
8, 47339, Note_on_c, 6, 81, 0
8, 47340, Note_on_c, 6, 82, 100
8, 47354, Note_on_c, 6, 82, 0
8, 47355, Note_on_c, 6, 81, 100
8, 47369, Note_on_c, 6, 81, 0
8, 47370, Note_on_c, 6, 79, 100
8, 47384, Note_on_c, 6, 79, 0
8, 47385, Note_on_c, 6, 77, 100
8, 47399, Note_on_c, 6, 77, 0
8, 47400, Note_on_c, 6, 82, 100
8, 47459, Note_on_c, 6, 82, 0
8, 47460, Note_on_c, 6, 81, 100
8, 47519, Note_on_c, 6, 81, 0
8, 47520, Note_on_c, 6, 79, 100
8, 47539, Note_on_c, 6, 79, 0
8, 47540, Note_on_c, 6, 81, 100
8, 47559, Note_on_c, 6, 81, 0
8, 47560, Note_on_c, 6, 79, 100
8, 47579, Note_on_c, 6, 79, 0
8, 47580, Note_on_c, 6, 81, 100
8, 47594, Note_on_c, 6, 81, 0
8, 47595, Note_on_c, 6, 79, 100
8, 47609, Note_on_c, 6, 79, 0
8, 47610, Note_on_c, 6, 81, 100
8, 47624, Note_on_c, 6, 81, 0
8, 47625, Note_on_c, 6, 79, 100
8, 47639, Note_on_c, 6, 79, 0
8, 47640, Note_on_c, 6, 81, 100
8, 47649, Note_on_c, 6, 81, 0
8, 47650, Note_on_c, 6, 79, 100
8, 47659, Note_on_c, 6, 79, 0
8, 47660, Note_on_c, 6, 81, 100
8, 47669, Note_on_c, 6, 81, 0
8, 47670, Note_on_c, 6, 79, 100
8, 47679, Note_on_c, 6, 79, 0
8, 47680, Note_on_c, 6, 81, 100
8, 47689, Note_on_c, 6, 81, 0
8, 47690, Note_on_c, 6, 79, 100
8, 47699, Note_on_c, 6, 79, 0
8, 47700, Note_on_c, 6, 81, 100
8, 47714, Note_on_c, 6, 81, 0
8, 47715, Note_on_c, 6, 79, 100
8, 47729, Note_on_c, 6, 79, 0
8, 47730, Note_on_c, 6, 77, 100
8, 47744, Note_on_c, 6, 77, 0
8, 47745, Note_on_c, 6, 76, 100
8, 47759, Note_on_c, 6, 76, 0
8, 47760, Note_on_c, 6, 81, 100
8, 47819, Note_on_c, 6, 81, 0
8, 47820, Note_on_c, 6, 79, 100
8, 47879, Note_on_c, 6, 79, 0
8, 47880, Note_on_c, 6, 77, 100
8, 47939, Note_on_c, 6, 77, 0
8, 47940, Note_on_c, 6, 86, 100
8, 47999, Note_on_c, 6, 86, 0
8, 48000, Note_on_c, 6, 84, 100
8, 48059, Note_on_c, 6, 84, 0
8, 48060, Note_on_c, 6, 82, 100
8, 48119, Note_on_c, 6, 82, 0
8, 48120, Note_on_c, 6, 81, 100
8, 48179, Note_on_c, 6, 81, 0
8, 48180, Note_on_c, 6, 79, 100
8, 48239, Note_on_c, 6, 79, 0
8, 48240, Note_on_c, 6, 79, 100
8, 48359, Note_on_c, 6, 79, 0
8, 48480, Note_on_c, 6, 79, 100
8, 48539, Note_on_c, 6, 79, 0
8, 48540, Note_on_c, 6, 79, 100
8, 48599, Note_on_c, 6, 79, 0
8, 48600, Note_on_c, 6, 73, 100
8, 48659, Note_on_c, 6, 73, 0
8, 48660, Note_on_c, 6, 76, 100
8, 48719, Note_on_c, 6, 76, 0
8, 48720, Note_on_c, 6, 76, 100
8, 48779, Note_on_c, 6, 76, 0
8, 48780, Note_on_c, 6, 67, 100
8, 48839, Note_on_c, 6, 67, 0
8, 48840, Note_on_c, 6, 70, 100
8, 48899, Note_on_c, 6, 70, 0
8, 48900, Note_on_c, 6, 70, 100
8, 48959, Note_on_c, 6, 70, 0
8, 48960, Note_on_c, 6, 64, 100
8, 48989, Note_on_c, 6, 64, 0
8, 48990, Note_on_c, 6, 69, 100
8, 49019, Note_on_c, 6, 69, 0
8, 49020, Note_on_c, 6, 73, 100
8, 49049, Note_on_c, 6, 73, 0
8, 49050, Note_on_c, 6, 76, 100
8, 49079, Note_on_c, 6, 76, 0
8, 49080, Note_on_c, 6, 74, 100
8, 49139, Note_on_c, 6, 74, 0
8, 49170, Note_on_c, 6, 74, 100
8, 49199, Note_on_c, 6, 74, 0
8, 49200, Note_on_c, 6, 73, 100
8, 49289, Note_on_c, 6, 73, 0
8, 49290, Note_on_c, 6, 74, 100
8, 49319, Note_on_c, 6, 74, 0
8, 49320, Note_on_c, 6, 74, 100
8, 49379, Note_on_c, 6, 74, 0
8, 49380, Note_on_c, 6, 62, 100
8, 49439, Note_on_c, 6, 62, 0
8, 49440, Note_on_c, 6, 64, 100
8, 49499, Note_on_c, 6, 64, 0
8, 49500, Note_on_c, 6, 65, 100
8, 49559, Note_on_c, 6, 65, 0
8, 49560, Note_on_c, 6, 65, 100
8, 49619, Note_on_c, 6, 65, 0
8, 49620, Note_on_c, 6, 67, 100
8, 49679, Note_on_c, 6, 67, 0
8, 49680, Note_on_c, 6, 69, 100
8, 49739, Note_on_c, 6, 69, 0
8, 49740, Note_on_c, 6, 69, 100
8, 49799, Note_on_c, 6, 69, 0
8, 49800, Note_on_c, 6, 70, 100
8, 49859, Note_on_c, 6, 70, 0
8, 49860, Note_on_c, 6, 69, 100
8, 49919, Note_on_c, 6, 69, 0
8, 49920, Note_on_c, 6, 67, 100
8, 49949, Note_on_c, 6, 67, 0
8, 49950, Note_on_c, 6, 65, 100
8, 49979, Note_on_c, 6, 65, 0
8, 49980, Note_on_c, 6, 64, 100
8, 50009, Note_on_c, 6, 64, 0
8, 50010, Note_on_c, 6, 62, 100
8, 50039, Note_on_c, 6, 62, 0
8, 50040, Note_on_c, 6, 61, 100
8, 50099, Note_on_c, 6, 61, 0
8, 50100, Note_on_c, 6, 57, 100
8, 50129, Note_on_c, 6, 57, 0
8, 50130, Note_on_c, 6, 59, 100
8, 50159, Note_on_c, 6, 59, 0
8, 50160, Note_on_c, 6, 61, 100
8, 50189, Note_on_c, 6, 61, 0
8, 50190, Note_on_c, 6, 62, 100
8, 50219, Note_on_c, 6, 62, 0
8, 50220, Note_on_c, 6, 64, 100
8, 50279, Note_on_c, 6, 64, 0
8, 50280, Note_on_c, 6, 64, 100
8, 50339, Note_on_c, 6, 64, 0
8, 50340, Note_on_c, 6, 65, 100
8, 50399, Note_on_c, 6, 65, 0
8, 50400, Note_on_c, 6, 64, 100
8, 50459, Note_on_c, 6, 64, 0
8, 50460, Note_on_c, 6, 57, 100
8, 50489, Note_on_c, 6, 57, 0
8, 50490, Note_on_c, 6, 59, 100
8, 50519, Note_on_c, 6, 59, 0
8, 50520, Note_on_c, 6, 61, 100
8, 50549, Note_on_c, 6, 61, 0
8, 50550, Note_on_c, 6, 62, 100
8, 50579, Note_on_c, 6, 62, 0
8, 50580, Note_on_c, 6, 64, 100
8, 50639, Note_on_c, 6, 64, 0
8, 50640, Note_on_c, 6, 64, 100
8, 50699, Note_on_c, 6, 64, 0
8, 50700, Note_on_c, 6, 65, 100
8, 50759, Note_on_c, 6, 65, 0
8, 50760, Note_on_c, 6, 64, 100
8, 50819, Note_on_c, 6, 64, 0
8, 50820, Note_on_c, 6, 57, 100
8, 50849, Note_on_c, 6, 57, 0
8, 50850, Note_on_c, 6, 59, 100
8, 50879, Note_on_c, 6, 59, 0
8, 50880, Note_on_c, 6, 61, 100
8, 50909, Note_on_c, 6, 61, 0
8, 50910, Note_on_c, 6, 62, 100
8, 50939, Note_on_c, 6, 62, 0
8, 50940, Note_on_c, 6, 64, 100
8, 50969, Note_on_c, 6, 64, 0
8, 50970, Note_on_c, 6, 62, 100
8, 50999, Note_on_c, 6, 62, 0
8, 51000, Note_on_c, 6, 61, 100
8, 51029, Note_on_c, 6, 61, 0
8, 51030, Note_on_c, 6, 62, 100
8, 51059, Note_on_c, 6, 62, 0
8, 51060, Note_on_c, 6, 64, 100
8, 51089, Note_on_c, 6, 64, 0
8, 51090, Note_on_c, 6, 65, 100
8, 51119, Note_on_c, 6, 65, 0
8, 51120, Note_on_c, 6, 67, 100
8, 51149, Note_on_c, 6, 67, 0
8, 51150, Note_on_c, 6, 65, 100
8, 51179, Note_on_c, 6, 65, 0
8, 51180, Note_on_c, 6, 64, 100
8, 51209, Note_on_c, 6, 64, 0
8, 51210, Note_on_c, 6, 65, 100
8, 51239, Note_on_c, 6, 65, 0
8, 51240, Note_on_c, 6, 67, 100
8, 51269, Note_on_c, 6, 67, 0
8, 51270, Note_on_c, 6, 69, 100
8, 51299, Note_on_c, 6, 69, 0
8, 51300, Note_on_c, 6, 70, 100
8, 51329, Note_on_c, 6, 70, 0
8, 51330, Note_on_c, 6, 69, 100
8, 51359, Note_on_c, 6, 69, 0
8, 51360, Note_on_c, 6, 67, 100
8, 51389, Note_on_c, 6, 67, 0
8, 51390, Note_on_c, 6, 65, 100
8, 51419, Note_on_c, 6, 65, 0
8, 51420, Note_on_c, 6, 64, 100
8, 51449, Note_on_c, 6, 64, 0
8, 51450, Note_on_c, 6, 62, 100
8, 51479, Note_on_c, 6, 62, 0
8, 51480, Note_on_c, 6, 61, 100
8, 51509, Note_on_c, 6, 61, 0
8, 51510, Note_on_c, 6, 64, 100
8, 51539, Note_on_c, 6, 64, 0
8, 51540, Note_on_c, 6, 57, 100
8, 51569, Note_on_c, 6, 57, 0
8, 51570, Note_on_c, 6, 61, 100
8, 51599, Note_on_c, 6, 61, 0
8, 51600, Note_on_c, 6, 62, 100
8, 51659, Note_on_c, 6, 62, 0
8, 51690, Note_on_c, 6, 55, 100
8, 51719, Note_on_c, 6, 55, 0
8, 51720, Note_on_c, 6, 57, 100
8, 51779, Note_on_c, 6, 57, 0
8, 51780, Note_on_c, 6, 57, 100
8, 51839, Note_on_c, 6, 57, 0
8, 51840, Note_on_c, 6, 62, 100
8, 52019, Note_on_c, 6, 62, 0
8, 52200, Note_on_c, 6, 77, 100
8, 52215, Note_on_c, 6, 77, 0
8, 52215, Note_on_c, 6, 76, 100
8, 52230, Note_on_c, 6, 76, 0
8, 52230, Note_on_c, 6, 77, 100
8, 52275, Note_on_c, 6, 77, 0
8, 52290, Note_on_c, 6, 72, 100
8, 52319, Note_on_c, 6, 72, 0
8, 52320, Note_on_c, 6, 72, 100
8, 52349, Note_on_c, 6, 72, 0
8, 52350, Note_on_c, 6, 74, 100
8, 52439, Note_on_c, 6, 74, 0
8, 52440, Note_on_c, 6, 72, 100
8, 52450, Note_on_c, 6, 72, 0
8, 52450, Note_on_c, 6, 74, 100
8, 52460, Note_on_c, 6, 74, 0
8, 52460, Note_on_c, 6, 72, 100
8, 52470, Note_on_c, 6, 72, 0
8, 52470, Note_on_c, 6, 70, 100
8, 52499, Note_on_c, 6, 70, 0
8, 52500, Note_on_c, 6, 69, 100
8, 52529, Note_on_c, 6, 69, 0
8, 52530, Note_on_c, 6, 70, 100
8, 52559, Note_on_c, 6, 70, 0
8, 52560, Note_on_c, 6, 70, 100
8, 52589, Note_on_c, 6, 70, 0
8, 52590, Note_on_c, 6, 69, 100
8, 52597, Note_on_c, 6, 70, 100
8, 52598, Note_on_c, 6, 69, 0
8, 52605, Note_on_c, 6, 70, 0
8, 52605, Note_on_c, 6, 69, 100
8, 52650, Note_on_c, 6, 69, 0
8, 52650, Note_on_c, 6, 70, 100
8, 52679, Note_on_c, 6, 70, 0
8, 52680, Note_on_c, 6, 72, 100
8, 52739, Note_on_c, 6, 72, 0
8, 52740, Note_on_c, 6, 65, 100
8, 52769, Note_on_c, 6, 65, 0
8, 52800, Note_on_c, 6, 69, 100
8, 52829, Note_on_c, 6, 69, 0
8, 52860, Note_on_c, 6, 72, 100
8, 52889, Note_on_c, 6, 72, 0
8, 52920, Note_on_c, 6, 79, 100
8, 52927, Note_on_c, 6, 77, 100
8, 52928, Note_on_c, 6, 79, 0
8, 52935, Note_on_c, 6, 77, 0
8, 52935, Note_on_c, 6, 79, 100
8, 53010, Note_on_c, 6, 79, 0
8, 53010, Note_on_c, 6, 74, 100
8, 53039, Note_on_c, 6, 74, 0
8, 53040, Note_on_c, 6, 74, 100
8, 53069, Note_on_c, 6, 74, 0
8, 53070, Note_on_c, 6, 75, 100
8, 53159, Note_on_c, 6, 75, 0
8, 53160, Note_on_c, 6, 74, 100
8, 53189, Note_on_c, 6, 74, 0
8, 53190, Note_on_c, 6, 72, 100
8, 53219, Note_on_c, 6, 72, 0
8, 53220, Note_on_c, 6, 71, 100
8, 53249, Note_on_c, 6, 71, 0
8, 53250, Note_on_c, 6, 72, 100
8, 53279, Note_on_c, 6, 72, 0
8, 53280, Note_on_c, 6, 72, 100
8, 53309, Note_on_c, 6, 72, 0
8, 53310, Note_on_c, 6, 71, 100
8, 53317, Note_on_c, 6, 72, 100
8, 53318, Note_on_c, 6, 71, 0
8, 53325, Note_on_c, 6, 72, 0
8, 53325, Note_on_c, 6, 71, 100
8, 53370, Note_on_c, 6, 71, 0
8, 53370, Note_on_c, 6, 72, 100
8, 53399, Note_on_c, 6, 72, 0
8, 53400, Note_on_c, 6, 74, 100
8, 53459, Note_on_c, 6, 74, 0
8, 53460, Note_on_c, 6, 67, 100
8, 53489, Note_on_c, 6, 67, 0
8, 53520, Note_on_c, 6, 71, 100
8, 53549, Note_on_c, 6, 71, 0
8, 53580, Note_on_c, 6, 74, 100
8, 53609, Note_on_c, 6, 74, 0
8, 53640, Note_on_c, 6, 83, 100
8, 53669, Note_on_c, 6, 83, 0
8, 53670, Note_on_c, 6, 84, 100
8, 53699, Note_on_c, 6, 84, 0
8, 53700, Note_on_c, 6, 86, 100
8, 53729, Note_on_c, 6, 86, 0
8, 53730, Note_on_c, 6, 76, 100
8, 53759, Note_on_c, 6, 76, 0
8, 53760, Note_on_c, 6, 76, 100
8, 53789, Note_on_c, 6, 76, 0
8, 53790, Note_on_c, 6, 77, 100
8, 53879, Note_on_c, 6, 77, 0
8, 53880, Note_on_c, 6, 76, 100
8, 53887, Note_on_c, 6, 77, 100
8, 53888, Note_on_c, 6, 76, 0
8, 53895, Note_on_c, 6, 77, 0
8, 53895, Note_on_c, 6, 76, 100
8, 53910, Note_on_c, 6, 76, 0
8, 53910, Note_on_c, 6, 74, 100
8, 53939, Note_on_c, 6, 74, 0
8, 53940, Note_on_c, 6, 76, 100
8, 53969, Note_on_c, 6, 76, 0
8, 53970, Note_on_c, 6, 77, 100
8, 53999, Note_on_c, 6, 77, 0
8, 54000, Note_on_c, 6, 79, 100
8, 54029, Note_on_c, 6, 79, 0
8, 54030, Note_on_c, 6, 71, 100
8, 54059, Note_on_c, 6, 71, 0
8, 54060, Note_on_c, 6, 72, 100
8, 54089, Note_on_c, 6, 72, 0
8, 54090, Note_on_c, 6, 67, 100
8, 54119, Note_on_c, 6, 67, 0
8, 54120, Note_on_c, 6, 70, 100
8, 54239, Note_on_c, 6, 70, 0
8, 54240, Note_on_c, 6, 69, 100
8, 54269, Note_on_c, 6, 69, 0
8, 54270, Note_on_c, 6, 71, 100
8, 54299, Note_on_c, 6, 71, 0
8, 54300, Note_on_c, 6, 72, 100
8, 54329, Note_on_c, 6, 72, 0
8, 54330, Note_on_c, 6, 74, 100
8, 54359, Note_on_c, 6, 74, 0
8, 54360, Note_on_c, 6, 74, 100
8, 54389, Note_on_c, 6, 74, 0
8, 54390, Note_on_c, 6, 75, 100
8, 54449, Note_on_c, 6, 75, 0
8, 54450, Note_on_c, 6, 80, 100
8, 54479, Note_on_c, 6, 80, 0
8, 54480, Note_on_c, 6, 79, 100
8, 54599, Note_on_c, 6, 79, 0
8, 54600, Note_on_c, 6, 72, 100
8, 54629, Note_on_c, 6, 72, 0
8, 54630, Note_on_c, 6, 71, 100
8, 54689, Note_on_c, 6, 71, 0
8, 54690, Note_on_c, 6, 72, 100
8, 54719, Note_on_c, 6, 72, 0
8, 54720, Note_on_c, 6, 72, 100
8, 54809, Note_on_c, 6, 72, 0
8, 54810, Note_on_c, 6, 64, 100
8, 54839, Note_on_c, 6, 64, 0
8, 54840, Note_on_c, 6, 67, 100
8, 54899, Note_on_c, 6, 67, 0
8, 54900, Note_on_c, 6, 60, 100
8, 55019, Note_on_c, 6, 60, 0
8, 55140, Note_on_c, 6, 72, 100
8, 55140, Note_on_c, 6, 69, 100
8, 55170, Note_on_c, 6, 69, 0
8, 55170, Note_on_c, 6, 72, 0
8, 55200, Note_on_c, 6, 67, 100
8, 55200, Note_on_c, 6, 70, 100
8, 55230, Note_on_c, 6, 70, 0
8, 55230, Note_on_c, 6, 67, 0
8, 55320, Note_on_c, 6, 69, 100
8, 55320, Note_on_c, 6, 72, 100
8, 55350, Note_on_c, 6, 72, 0
8, 55350, Note_on_c, 6, 69, 0
8, 55380, Note_on_c, 6, 76, 100
8, 55380, Note_on_c, 6, 67, 100
8, 55410, Note_on_c, 6, 67, 0
8, 55410, Note_on_c, 6, 76, 0
8, 55500, Note_on_c, 6, 77, 100
8, 55500, Note_on_c, 6, 69, 100
8, 55530, Note_on_c, 6, 69, 0
8, 55530, Note_on_c, 6, 77, 0
8, 55560, Note_on_c, 6, 72, 100
8, 55560, Note_on_c, 6, 65, 100
8, 55590, Note_on_c, 6, 65, 0
8, 55590, Note_on_c, 6, 72, 0
8, 55680, Note_on_c, 6, 72, 100
8, 55680, Note_on_c, 6, 65, 100
8, 55710, Note_on_c, 6, 65, 0
8, 55710, Note_on_c, 6, 72, 0
8, 55740, Note_on_c, 6, 69, 100
8, 55740, Note_on_c, 6, 60, 100
8, 55770, Note_on_c, 6, 60, 0
8, 55770, Note_on_c, 6, 69, 0
8, 55860, Note_on_c, 6, 71, 100
8, 55860, Note_on_c, 6, 74, 100
8, 55890, Note_on_c, 6, 74, 0
8, 55890, Note_on_c, 6, 71, 0
8, 55920, Note_on_c, 6, 67, 100
8, 55920, Note_on_c, 6, 79, 100
8, 55950, Note_on_c, 6, 79, 0
8, 55950, Note_on_c, 6, 67, 0
8, 56040, Note_on_c, 6, 72, 100
8, 56040, Note_on_c, 6, 69, 100
8, 56070, Note_on_c, 6, 69, 0
8, 56070, Note_on_c, 6, 72, 0
8, 56100, Note_on_c, 6, 62, 100
8, 56100, Note_on_c, 6, 69, 100
8, 56130, Note_on_c, 6, 69, 0
8, 56130, Note_on_c, 6, 62, 0
8, 56220, Note_on_c, 6, 67, 100
8, 56220, Note_on_c, 6, 71, 100
8, 56250, Note_on_c, 6, 71, 0
8, 56250, Note_on_c, 6, 67, 0
8, 56280, Note_on_c, 6, 67, 100
8, 56280, Note_on_c, 6, 74, 100
8, 56310, Note_on_c, 6, 74, 0
8, 56310, Note_on_c, 6, 67, 0
8, 56400, Note_on_c, 6, 74, 100
8, 56400, Note_on_c, 6, 67, 100
8, 56430, Note_on_c, 6, 67, 0
8, 56430, Note_on_c, 6, 74, 0
8, 56460, Note_on_c, 6, 62, 100
8, 56460, Note_on_c, 6, 71, 100
8, 56490, Note_on_c, 6, 71, 0
8, 56490, Note_on_c, 6, 62, 0
8, 56580, Note_on_c, 6, 71, 100
8, 56580, Note_on_c, 6, 76, 100
8, 56610, Note_on_c, 6, 76, 0
8, 56610, Note_on_c, 6, 71, 0
8, 56640, Note_on_c, 6, 74, 100
8, 56640, Note_on_c, 6, 71, 100
8, 56670, Note_on_c, 6, 71, 0
8, 56670, Note_on_c, 6, 74, 0
8, 56760, Note_on_c, 6, 69, 100
8, 56760, Note_on_c, 6, 72, 100
8, 56790, Note_on_c, 6, 72, 0
8, 56790, Note_on_c, 6, 69, 0
8, 56820, Note_on_c, 6, 69, 100
8, 56820, Note_on_c, 6, 77, 100
8, 56850, Note_on_c, 6, 77, 0
8, 56850, Note_on_c, 6, 69, 0
8, 56940, Note_on_c, 6, 72, 100
8, 56940, Note_on_c, 6, 79, 100
8, 56970, Note_on_c, 6, 79, 0
8, 56970, Note_on_c, 6, 72, 0
8, 57000, Note_on_c, 6, 70, 100
8, 57000, Note_on_c, 6, 67, 100
8, 57030, Note_on_c, 6, 67, 0
8, 57030, Note_on_c, 6, 70, 0
8, 57120, Note_on_c, 6, 60, 100
8, 57120, Note_on_c, 6, 69, 100
8, 57150, Note_on_c, 6, 69, 0
8, 57150, Note_on_c, 6, 60, 0
8, 57180, Note_on_c, 6, 63, 100
8, 57180, Note_on_c, 6, 72, 100
8, 57210, Note_on_c, 6, 72, 0
8, 57210, Note_on_c, 6, 63, 0
8, 57300, Note_on_c, 6, 71, 100
8, 57300, Note_on_c, 6, 67, 100
8, 57330, Note_on_c, 6, 67, 0
8, 57330, Note_on_c, 6, 71, 0
8, 57360, Note_on_c, 6, 66, 100
8, 57360, Note_on_c, 6, 75, 100
8, 57390, Note_on_c, 6, 75, 0
8, 57390, Note_on_c, 6, 66, 0
8, 57480, Note_on_c, 6, 71, 100
8, 57480, Note_on_c, 6, 74, 100
8, 57510, Note_on_c, 6, 74, 0
8, 57510, Note_on_c, 6, 71, 0
8, 57540, Note_on_c, 6, 74, 100
8, 57540, Note_on_c, 6, 77, 100
8, 57570, Note_on_c, 6, 77, 0
8, 57570, Note_on_c, 6, 74, 0
8, 57660, Note_on_c, 6, 72, 100
8, 57660, Note_on_c, 6, 76, 100
8, 57690, Note_on_c, 6, 76, 0
8, 57690, Note_on_c, 6, 72, 0
8, 57720, Note_on_c, 6, 72, 100
8, 57720, Note_on_c, 6, 67, 100
8, 57750, Note_on_c, 6, 67, 0
8, 57750, Note_on_c, 6, 72, 0
8, 57780, Note_on_c, 6, 64, 100
8, 57780, Note_on_c, 6, 67, 100
8, 57899, Note_on_c, 6, 67, 0
8, 57899, Note_on_c, 6, 64, 0
8, 57960, Note_on_c, 6, 65, 100
8, 58049, Note_on_c, 6, 65, 0
8, 58050, Note_on_c, 6, 69, 100
8, 58080, Note_on_c, 6, 69, 0
8, 58080, Note_on_c, 6, 72, 100
8, 58200, Note_on_c, 6, 72, 0
8, 58200, Note_on_c, 6, 75, 100
8, 58260, Note_on_c, 6, 75, 0
8, 58260, Note_on_c, 6, 74, 100
8, 58270, Note_on_c, 6, 74, 0
8, 58270, Note_on_c, 6, 75, 100
8, 58280, Note_on_c, 6, 75, 0
8, 58280, Note_on_c, 6, 74, 100
8, 58290, Note_on_c, 6, 74, 0
8, 58290, Note_on_c, 6, 75, 100
8, 58320, Note_on_c, 6, 75, 0
8, 58320, Note_on_c, 6, 75, 100
8, 58350, Note_on_c, 6, 75, 0
8, 58350, Note_on_c, 6, 74, 100
8, 58410, Note_on_c, 6, 74, 0
8, 58410, Note_on_c, 6, 78, 100
8, 58440, Note_on_c, 6, 78, 0
8, 58440, Note_on_c, 6, 81, 100
8, 58560, Note_on_c, 6, 81, 0
8, 58560, Note_on_c, 6, 82, 100
8, 58590, Note_on_c, 6, 82, 0
8, 58590, Note_on_c, 6, 81, 100
8, 58620, Note_on_c, 6, 81, 0
8, 58620, Note_on_c, 6, 79, 100
8, 58650, Note_on_c, 6, 79, 0
8, 58650, Note_on_c, 6, 81, 100
8, 58680, Note_on_c, 6, 81, 0
8, 58680, Note_on_c, 6, 81, 100
8, 58710, Note_on_c, 6, 81, 0
8, 58710, Note_on_c, 6, 82, 100
8, 58770, Note_on_c, 6, 82, 0
8, 58770, Note_on_c, 6, 79, 100
8, 58800, Note_on_c, 6, 79, 0
8, 58800, Note_on_c, 6, 77, 100
8, 58830, Note_on_c, 6, 77, 0
8, 58860, Note_on_c, 6, 77, 100
8, 58890, Note_on_c, 6, 77, 0
8, 58890, Note_on_c, 6, 75, 100
8, 58920, Note_on_c, 6, 75, 0
8, 58920, Note_on_c, 6, 81, 100
8, 58950, Note_on_c, 6, 81, 0
8, 58950, Note_on_c, 6, 82, 100
8, 58965, Note_on_c, 6, 82, 0
8, 58965, Note_on_c, 6, 84, 100
8, 58980, Note_on_c, 6, 84, 0
8, 58980, Note_on_c, 6, 82, 100
8, 59010, Note_on_c, 6, 82, 0
8, 59010, Note_on_c, 6, 81, 100
8, 59040, Note_on_c, 6, 81, 0
8, 59040, Note_on_c, 6, 79, 100
8, 59070, Note_on_c, 6, 79, 0
8, 59070, Note_on_c, 6, 78, 100
8, 59130, Note_on_c, 6, 78, 0
8, 59130, Note_on_c, 6, 81, 100
8, 59160, Note_on_c, 6, 81, 0
8, 59160, Note_on_c, 6, 75, 100
8, 59280, Note_on_c, 6, 75, 0
8, 59280, Note_on_c, 6, 74, 100
8, 59310, Note_on_c, 6, 74, 0
8, 59310, Note_on_c, 6, 72, 100
8, 59340, Note_on_c, 6, 72, 0
8, 59340, Note_on_c, 6, 70, 100
8, 59370, Note_on_c, 6, 70, 0
8, 59370, Note_on_c, 6, 69, 100
8, 59400, Note_on_c, 6, 69, 0
8, 59400, Note_on_c, 6, 69, 100
8, 59430, Note_on_c, 6, 69, 0
8, 59430, Note_on_c, 6, 70, 100
8, 59460, Note_on_c, 6, 70, 0
8, 59490, Note_on_c, 6, 74, 100
8, 59520, Note_on_c, 6, 74, 0
8, 59520, Note_on_c, 6, 79, 100
8, 59610, Note_on_c, 6, 79, 0
8, 59610, Note_on_c, 6, 76, 100
8, 59640, Note_on_c, 6, 76, 0
8, 59640, Note_on_c, 6, 77, 100
8, 59670, Note_on_c, 6, 77, 0
8, 59670, Note_on_c, 6, 79, 100
8, 59700, Note_on_c, 6, 79, 0
8, 59700, Note_on_c, 6, 81, 100
8, 59730, Note_on_c, 6, 81, 0
8, 59730, Note_on_c, 6, 82, 100
8, 59760, Note_on_c, 6, 82, 0
8, 59760, Note_on_c, 6, 74, 100
8, 59790, Note_on_c, 6, 74, 0
8, 59790, Note_on_c, 6, 73, 100
8, 59850, Note_on_c, 6, 73, 0
8, 59850, Note_on_c, 6, 76, 100
8, 59880, Note_on_c, 6, 76, 0
8, 59880, Note_on_c, 6, 67, 100
8, 59970, Note_on_c, 6, 67, 0
8, 59970, Note_on_c, 6, 70, 100
8, 60000, Note_on_c, 6, 70, 0
8, 60000, Note_on_c, 6, 69, 100
8, 60030, Note_on_c, 6, 69, 0
8, 60030, Note_on_c, 6, 67, 100
8, 60060, Note_on_c, 6, 67, 0
8, 60060, Note_on_c, 6, 65, 100
8, 60090, Note_on_c, 6, 65, 0
8, 60090, Note_on_c, 6, 64, 100
8, 60120, Note_on_c, 6, 64, 0
8, 60120, Note_on_c, 6, 64, 100
8, 60150, Note_on_c, 6, 64, 0
8, 60150, Note_on_c, 6, 65, 100
8, 60210, Note_on_c, 6, 65, 0
8, 60210, Note_on_c, 6, 69, 100
8, 60240, Note_on_c, 6, 69, 0
8, 60240, Note_on_c, 6, 74, 100
8, 60330, Note_on_c, 6, 74, 0
8, 60330, Note_on_c, 6, 73, 100
8, 60360, Note_on_c, 6, 73, 0
8, 60360, Note_on_c, 6, 74, 100
8, 60390, Note_on_c, 6, 74, 0
8, 60390, Note_on_c, 6, 76, 100
8, 60405, Note_on_c, 6, 76, 0
8, 60405, Note_on_c, 6, 77, 100
8, 60420, Note_on_c, 6, 77, 0
8, 60420, Note_on_c, 6, 76, 100
8, 60450, Note_on_c, 6, 76, 0
8, 60450, Note_on_c, 6, 74, 100
8, 60480, Note_on_c, 6, 74, 0
8, 60480, Note_on_c, 6, 74, 100
8, 60570, Note_on_c, 6, 74, 0
8, 60575, Note_on_c, 6, 65, 100
8, 60605, Note_on_c, 6, 65, 0
8, 60605, Note_on_c, 6, 69, 100
8, 60665, Note_on_c, 6, 69, 0
8, 60665, Note_on_c, 6, 62, 100
8, 60725, Note_on_c, 6, 62, 0
8, 60840, Note_on_c, 6, 67, 100
8, 60847, Note_on_c, 6, 65, 100
8, 60848, Note_on_c, 6, 67, 0
8, 60855, Note_on_c, 6, 65, 0
8, 60855, Note_on_c, 6, 67, 100
8, 60930, Note_on_c, 6, 67, 0
8, 60930, Note_on_c, 6, 71, 100
8, 60959, Note_on_c, 6, 71, 0
8, 60960, Note_on_c, 6, 74, 100
8, 61079, Note_on_c, 6, 74, 0
8, 61080, Note_on_c, 6, 77, 100
8, 61139, Note_on_c, 6, 77, 0
8, 61140, Note_on_c, 6, 76, 100
8, 61147, Note_on_c, 6, 77, 100
8, 61148, Note_on_c, 6, 76, 0
8, 61155, Note_on_c, 6, 77, 0
8, 61155, Note_on_c, 6, 76, 100
8, 61170, Note_on_c, 6, 76, 0
8, 61170, Note_on_c, 6, 77, 100
8, 61199, Note_on_c, 6, 77, 0
8, 61200, Note_on_c, 6, 77, 100
8, 61229, Note_on_c, 6, 77, 0
8, 61230, Note_on_c, 6, 76, 100
8, 61289, Note_on_c, 6, 76, 0
8, 61290, Note_on_c, 6, 79, 100
8, 61319, Note_on_c, 6, 79, 0
8, 61320, Note_on_c, 6, 84, 100
8, 61379, Note_on_c, 6, 84, 0
8, 61380, Note_on_c, 6, 72, 100
8, 61409, Note_on_c, 6, 72, 0
8, 61410, Note_on_c, 6, 74, 100
8, 61439, Note_on_c, 6, 74, 0
8, 61440, Note_on_c, 6, 76, 100
8, 61450, Note_on_c, 6, 76, 0
8, 61450, Note_on_c, 6, 74, 100
8, 61460, Note_on_c, 6, 74, 0
8, 61460, Note_on_c, 6, 76, 100
8, 61470, Note_on_c, 6, 76, 0
8, 61470, Note_on_c, 6, 74, 100
8, 61477, Note_on_c, 6, 76, 100
8, 61478, Note_on_c, 6, 74, 0
8, 61485, Note_on_c, 6, 76, 0
8, 61485, Note_on_c, 6, 74, 100
8, 61492, Note_on_c, 6, 76, 100
8, 61493, Note_on_c, 6, 74, 0
8, 61500, Note_on_c, 6, 76, 0
8, 61500, Note_on_c, 6, 74, 100
8, 61510, Note_on_c, 6, 74, 0
8, 61510, Note_on_c, 6, 76, 100
8, 61520, Note_on_c, 6, 76, 0
8, 61520, Note_on_c, 6, 74, 100
8, 61530, Note_on_c, 6, 74, 0
8, 61530, Note_on_c, 6, 72, 100
8, 61544, Note_on_c, 6, 72, 0
8, 61545, Note_on_c, 6, 74, 100
8, 61559, Note_on_c, 6, 74, 0
8, 61560, Note_on_c, 6, 74, 100
8, 61589, Note_on_c, 6, 74, 0
8, 61590, Note_on_c, 6, 75, 100
8, 61649, Note_on_c, 6, 75, 0
8, 61650, Note_on_c, 6, 79, 100
8, 61679, Note_on_c, 6, 79, 0
8, 61680, Note_on_c, 6, 77, 100
8, 61799, Note_on_c, 6, 77, 0
8, 61800, Note_on_c, 6, 72, 100
8, 61829, Note_on_c, 6, 72, 0
8, 61830, Note_on_c, 6, 75, 100
8, 61859, Note_on_c, 6, 75, 0
8, 61860, Note_on_c, 6, 74, 100
8, 61889, Note_on_c, 6, 74, 0
8, 61890, Note_on_c, 6, 75, 100
8, 61919, Note_on_c, 6, 75, 0
8, 61920, Note_on_c, 6, 75, 100
8, 61949, Note_on_c, 6, 75, 0
8, 61950, Note_on_c, 6, 74, 100
8, 61957, Note_on_c, 6, 72, 100
8, 61958, Note_on_c, 6, 74, 0
8, 61965, Note_on_c, 6, 72, 0
8, 61965, Note_on_c, 6, 74, 100
8, 62010, Note_on_c, 6, 74, 0
8, 62010, Note_on_c, 6, 75, 100
8, 62039, Note_on_c, 6, 75, 0
8, 62040, Note_on_c, 6, 77, 100
8, 62099, Note_on_c, 6, 77, 0
8, 62100, Note_on_c, 6, 75, 100
8, 62129, Note_on_c, 6, 75, 0
8, 62130, Note_on_c, 6, 74, 100
8, 62159, Note_on_c, 6, 74, 0
8, 62160, Note_on_c, 6, 72, 100
8, 62189, Note_on_c, 6, 72, 0
8, 62190, Note_on_c, 6, 70, 100
8, 62219, Note_on_c, 6, 70, 0
8, 62220, Note_on_c, 6, 69, 100
8, 62249, Note_on_c, 6, 69, 0
8, 62250, Note_on_c, 6, 67, 100
8, 62279, Note_on_c, 6, 67, 0
8, 62280, Note_on_c, 6, 69, 100
8, 62309, Note_on_c, 6, 69, 0
8, 62310, Note_on_c, 6, 70, 100
8, 62369, Note_on_c, 6, 70, 0
8, 62370, Note_on_c, 6, 72, 100
8, 62399, Note_on_c, 6, 72, 0
8, 62400, Note_on_c, 6, 70, 100
8, 62489, Note_on_c, 6, 70, 0
8, 62490, Note_on_c, 6, 79, 100
8, 62519, Note_on_c, 6, 79, 0
8, 62520, Note_on_c, 6, 77, 100
8, 62549, Note_on_c, 6, 77, 0
8, 62550, Note_on_c, 6, 76, 100
8, 62579, Note_on_c, 6, 76, 0
8, 62580, Note_on_c, 6, 74, 100
8, 62609, Note_on_c, 6, 74, 0
8, 62610, Note_on_c, 6, 72, 100
8, 62639, Note_on_c, 6, 72, 0
8, 62640, Note_on_c, 6, 70, 100
8, 62669, Note_on_c, 6, 70, 0
8, 62670, Note_on_c, 6, 69, 100
8, 62729, Note_on_c, 6, 69, 0
8, 62730, Note_on_c, 6, 72, 100
8, 62759, Note_on_c, 6, 72, 0
8, 62760, Note_on_c, 6, 77, 100
8, 62849, Note_on_c, 6, 77, 0
8, 62850, Note_on_c, 6, 79, 100
8, 62879, Note_on_c, 6, 79, 0
8, 62880, Note_on_c, 6, 81, 100
8, 62887, Note_on_c, 6, 79, 100
8, 62888, Note_on_c, 6, 81, 0
8, 62895, Note_on_c, 6, 79, 0
8, 62895, Note_on_c, 6, 81, 100
8, 62902, Note_on_c, 6, 79, 100
8, 62903, Note_on_c, 6, 81, 0
8, 62910, Note_on_c, 6, 79, 0
8, 62910, Note_on_c, 6, 77, 100
8, 62924, Note_on_c, 6, 77, 0
8, 62925, Note_on_c, 6, 79, 100
8, 62939, Note_on_c, 6, 79, 0
8, 62940, Note_on_c, 6, 81, 100
8, 63029, Note_on_c, 6, 81, 0
8, 63030, Note_on_c, 6, 79, 100
8, 63059, Note_on_c, 6, 79, 0
8, 63060, Note_on_c, 6, 77, 100
8, 63089, Note_on_c, 6, 77, 0
8, 63090, Note_on_c, 6, 76, 100
8, 63119, Note_on_c, 6, 76, 0
8, 63120, Note_on_c, 6, 77, 100
8, 63149, Note_on_c, 6, 77, 0
8, 63150, Note_on_c, 6, 74, 100
8, 63179, Note_on_c, 6, 74, 0
8, 63180, Note_on_c, 6, 67, 100
8, 63269, Note_on_c, 6, 67, 0
8, 63270, Note_on_c, 6, 81, 100
8, 63299, Note_on_c, 6, 81, 0
8, 63300, Note_on_c, 6, 79, 100
8, 63359, Note_on_c, 6, 79, 0
8, 63360, Note_on_c, 6, 77, 100
8, 63389, Note_on_c, 6, 77, 0
8, 63390, Note_on_c, 6, 76, 100
8, 63449, Note_on_c, 6, 76, 0
8, 63450, Note_on_c, 6, 74, 100
8, 63479, Note_on_c, 6, 74, 0
8, 63480, Note_on_c, 6, 72, 100
8, 63569, Note_on_c, 6, 72, 0
8, 63570, Note_on_c, 6, 74, 100
8, 63599, Note_on_c, 6, 74, 0
8, 63600, Note_on_c, 6, 76, 100
8, 63629, Note_on_c, 6, 76, 0
8, 63630, Note_on_c, 6, 77, 100
8, 63659, Note_on_c, 6, 77, 0
8, 63660, Note_on_c, 6, 79, 100
8, 63689, Note_on_c, 6, 79, 0
8, 63690, Note_on_c, 6, 81, 100
8, 63719, Note_on_c, 6, 81, 0
8, 63720, Note_on_c, 6, 81, 100
8, 63749, Note_on_c, 6, 81, 0
8, 63750, Note_on_c, 6, 82, 100
8, 63809, Note_on_c, 6, 82, 0
8, 63810, Note_on_c, 6, 79, 100
8, 63839, Note_on_c, 6, 79, 0
8, 63840, Note_on_c, 6, 79, 100
8, 63869, Note_on_c, 6, 79, 0
8, 63870, Note_on_c, 6, 81, 100
8, 63959, Note_on_c, 6, 81, 0
8, 63960, Note_on_c, 6, 79, 100
8, 63967, Note_on_c, 6, 81, 100
8, 63968, Note_on_c, 6, 79, 0
8, 63975, Note_on_c, 6, 81, 0
8, 63975, Note_on_c, 6, 79, 100
8, 63990, Note_on_c, 6, 79, 0
8, 63990, Note_on_c, 6, 77, 100
8, 64019, Note_on_c, 6, 77, 0
8, 64020, Note_on_c, 6, 76, 100
8, 64049, Note_on_c, 6, 76, 0
8, 64050, Note_on_c, 6, 77, 100
8, 64079, Note_on_c, 6, 77, 0
8, 64080, Note_on_c, 6, 77, 100
8, 64109, Note_on_c, 6, 77, 0
8, 64110, Note_on_c, 6, 76, 100
8, 64169, Note_on_c, 6, 76, 0
8, 64170, Note_on_c, 6, 77, 100
8, 64199, Note_on_c, 6, 77, 0
8, 64200, Note_on_c, 6, 79, 100
8, 64259, Note_on_c, 6, 79, 0
8, 64260, Note_on_c, 6, 72, 100
8, 64289, Note_on_c, 6, 72, 0
8, 64320, Note_on_c, 6, 76, 100
8, 64349, Note_on_c, 6, 76, 0
8, 64380, Note_on_c, 6, 79, 100
8, 64409, Note_on_c, 6, 79, 0
8, 64440, Note_on_c, 6, 84, 100
8, 64529, Note_on_c, 6, 84, 0
8, 64530, Note_on_c, 6, 81, 100
8, 64559, Note_on_c, 6, 81, 0
8, 64560, Note_on_c, 6, 81, 100
8, 64589, Note_on_c, 6, 81, 0
8, 64590, Note_on_c, 6, 82, 100
8, 64650, Note_on_c, 6, 82, 0
8, 64650, Note_on_c, 6, 79, 100
8, 64679, Note_on_c, 6, 79, 0
8, 64680, Note_on_c, 6, 80, 100
8, 64709, Note_on_c, 6, 80, 0
8, 64710, Note_on_c, 6, 77, 100
8, 64739, Note_on_c, 6, 77, 0
8, 64740, Note_on_c, 6, 77, 100
8, 64769, Note_on_c, 6, 77, 0
8, 64770, Note_on_c, 6, 79, 100
8, 64829, Note_on_c, 6, 79, 0
8, 64830, Note_on_c, 6, 76, 100
8, 64859, Note_on_c, 6, 76, 0
8, 64860, Note_on_c, 6, 77, 100
8, 64889, Note_on_c, 6, 77, 0
8, 64890, Note_on_c, 6, 72, 100
8, 64919, Note_on_c, 6, 72, 0
8, 64920, Note_on_c, 6, 73, 100
8, 64949, Note_on_c, 6, 73, 0
8, 64950, Note_on_c, 6, 71, 100
8, 64979, Note_on_c, 6, 71, 0
8, 64980, Note_on_c, 6, 72, 100
8, 65009, Note_on_c, 6, 72, 0
8, 65010, Note_on_c, 6, 68, 100
8, 65039, Note_on_c, 6, 68, 0
8, 65040, Note_on_c, 6, 70, 100
8, 65069, Note_on_c, 6, 70, 0
8, 65070, Note_on_c, 6, 67, 100
8, 65099, Note_on_c, 6, 67, 0
8, 65100, Note_on_c, 6, 68, 100
8, 65129, Note_on_c, 6, 68, 0
8, 65130, Note_on_c, 6, 65, 100
8, 65159, Note_on_c, 6, 65, 0
8, 65160, Note_on_c, 6, 66, 100
8, 65189, Note_on_c, 6, 66, 0
8, 65190, Note_on_c, 6, 64, 100
8, 65219, Note_on_c, 6, 64, 0
8, 65220, Note_on_c, 6, 65, 100
8, 65249, Note_on_c, 6, 65, 0
8, 65250, Note_on_c, 6, 61, 100
8, 65279, Note_on_c, 6, 61, 0
8, 65280, Note_on_c, 6, 60, 100
8, 65309, Note_on_c, 6, 60, 0
8, 65310, Note_on_c, 6, 59, 100
8, 65339, Note_on_c, 6, 59, 0
8, 65340, Note_on_c, 6, 60, 100
8, 65369, Note_on_c, 6, 60, 0
8, 65370, Note_on_c, 6, 80, 100
8, 65399, Note_on_c, 6, 80, 0
8, 65400, Note_on_c, 6, 77, 100
8, 65429, Note_on_c, 6, 77, 0
8, 65430, Note_on_c, 6, 76, 100
8, 65437, Note_on_c, 6, 77, 100
8, 65438, Note_on_c, 6, 76, 0
8, 65445, Note_on_c, 6, 77, 0
8, 65445, Note_on_c, 6, 76, 100
8, 65452, Note_on_c, 6, 77, 100
8, 65453, Note_on_c, 6, 76, 0
8, 65460, Note_on_c, 6, 77, 0
8, 65460, Note_on_c, 6, 76, 100
8, 65467, Note_on_c, 6, 77, 100
8, 65468, Note_on_c, 6, 76, 0
8, 65475, Note_on_c, 6, 77, 0
8, 65475, Note_on_c, 6, 76, 100
8, 65483, Note_on_c, 6, 76, 0
8, 65490, Note_on_c, 6, 77, 100
8, 65519, Note_on_c, 6, 77, 0
8, 65520, Note_on_c, 6, 77, 100
8, 65549, Note_on_c, 6, 77, 0
8, 65550, Note_on_c, 6, 76, 100
8, 65579, Note_on_c, 6, 76, 0
8, 65580, Note_on_c, 6, 77, 100
8, 65609, Note_on_c, 6, 77, 0
8, 65610, Note_on_c, 6, 80, 100
8, 65639, Note_on_c, 6, 80, 0
8, 65640, Note_on_c, 6, 79, 100
8, 65669, Note_on_c, 6, 79, 0
8, 65670, Note_on_c, 6, 76, 100
8, 65699, Note_on_c, 6, 76, 0
8, 65700, Note_on_c, 6, 77, 100
8, 65729, Note_on_c, 6, 77, 0
8, 65730, Note_on_c, 6, 74, 100
8, 65759, Note_on_c, 6, 74, 0
8, 65760, Note_on_c, 6, 72, 100
8, 65789, Note_on_c, 6, 72, 0
8, 65790, Note_on_c, 6, 71, 100
8, 65849, Note_on_c, 6, 71, 0
8, 65850, Note_on_c, 6, 72, 100
8, 65879, Note_on_c, 6, 72, 0
8, 65880, Note_on_c, 6, 82, 100
8, 65969, Note_on_c, 6, 82, 0
8, 65970, Note_on_c, 6, 79, 100
8, 65999, Note_on_c, 6, 79, 0
8, 66000, Note_on_c, 6, 81, 100
8, 66089, Note_on_c, 6, 81, 0
8, 66090, Note_on_c, 6, 79, 100
8, 66119, Note_on_c, 6, 79, 0
8, 66120, Note_on_c, 6, 77, 100
8, 66130, Note_on_c, 6, 77, 0
8, 66130, Note_on_c, 6, 76, 100
8, 66140, Note_on_c, 6, 76, 0
8, 66140, Note_on_c, 6, 77, 100
8, 66150, Note_on_c, 6, 77, 0
8, 66150, Note_on_c, 6, 76, 100
8, 66157, Note_on_c, 6, 77, 100
8, 66158, Note_on_c, 6, 76, 0
8, 66165, Note_on_c, 6, 77, 0
8, 66165, Note_on_c, 6, 76, 100
8, 66172, Note_on_c, 6, 77, 100
8, 66173, Note_on_c, 6, 76, 0
8, 66180, Note_on_c, 6, 77, 0
8, 66180, Note_on_c, 6, 76, 100
8, 66190, Note_on_c, 6, 76, 0
8, 66190, Note_on_c, 6, 77, 100
8, 66200, Note_on_c, 6, 77, 0
8, 66200, Note_on_c, 6, 76, 100
8, 66210, Note_on_c, 6, 76, 0
8, 66210, Note_on_c, 6, 77, 100
8, 66239, Note_on_c, 6, 77, 0
8, 66240, Note_on_c, 6, 77, 100
8, 66247, Note_on_c, 6, 76, 100
8, 66248, Note_on_c, 6, 77, 0
8, 66255, Note_on_c, 6, 76, 0
8, 66255, Note_on_c, 6, 77, 100
8, 66330, Note_on_c, 6, 77, 0
8, 66330, Note_on_c, 6, 69, 100
8, 66359, Note_on_c, 6, 69, 0
8, 66360, Note_on_c, 6, 72, 100
8, 66419, Note_on_c, 6, 72, 0
8, 66420, Note_on_c, 6, 65, 100
8, 66449, Note_on_c, 6, 65, 0
8, 66660, Note_on_c, 6, 60, 100
8, 66660, Note_on_c, 6, 65, 100
8, 66719, Note_on_c, 6, 65, 0
8, 66719, Note_on_c, 6, 60, 0
8, 66720, Note_on_c, 6, 65, 100
8, 66720, Note_on_c, 6, 69, 100
8, 66779, Note_on_c, 6, 69, 0
8, 66779, Note_on_c, 6, 65, 0
8, 66840, Note_on_c, 6, 70, 100
8, 66840, Note_on_c, 6, 67, 100
8, 66899, Note_on_c, 6, 67, 0
8, 66899, Note_on_c, 6, 70, 0
8, 66900, Note_on_c, 6, 69, 100
8, 66900, Note_on_c, 6, 72, 100
8, 66959, Note_on_c, 6, 72, 0
8, 66959, Note_on_c, 6, 69, 0
8, 67020, Note_on_c, 6, 74, 100
8, 67020, Note_on_c, 6, 69, 100
8, 67079, Note_on_c, 6, 69, 0
8, 67079, Note_on_c, 6, 74, 0
8, 67080, Note_on_c, 6, 62, 100
8, 67080, Note_on_c, 6, 72, 100
8, 67139, Note_on_c, 6, 72, 0
8, 67139, Note_on_c, 6, 62, 0
8, 67200, Note_on_c, 6, 66, 100
8, 67200, Note_on_c, 6, 69, 100
8, 67259, Note_on_c, 6, 69, 0
8, 67259, Note_on_c, 6, 66, 0
8, 67260, Note_on_c, 6, 66, 100
8, 67260, Note_on_c, 6, 62, 100
8, 67319, Note_on_c, 6, 62, 0
8, 67319, Note_on_c, 6, 66, 0
8, 67380, Note_on_c, 6, 62, 100
8, 67380, Note_on_c, 6, 70, 100
8, 67439, Note_on_c, 6, 70, 0
8, 67439, Note_on_c, 6, 62, 0
8, 67440, Note_on_c, 6, 74, 100
8, 67440, Note_on_c, 6, 67, 100
8, 67499, Note_on_c, 6, 67, 0
8, 67499, Note_on_c, 6, 74, 0
8, 67560, Note_on_c, 6, 67, 100
8, 67560, Note_on_c, 6, 72, 100
8, 67619, Note_on_c, 6, 72, 0
8, 67619, Note_on_c, 6, 67, 0
8, 67620, Note_on_c, 6, 75, 100
8, 67620, Note_on_c, 6, 72, 100
8, 67679, Note_on_c, 6, 72, 0
8, 67679, Note_on_c, 6, 75, 0
8, 67740, Note_on_c, 6, 66, 100
8, 67740, Note_on_c, 6, 74, 100
8, 67799, Note_on_c, 6, 74, 0
8, 67799, Note_on_c, 6, 66, 0
8, 67800, Note_on_c, 6, 78, 100
8, 67800, Note_on_c, 6, 69, 100
8, 67859, Note_on_c, 6, 69, 0
8, 67859, Note_on_c, 6, 78, 0
8, 67920, Note_on_c, 6, 81, 100
8, 67920, Note_on_c, 6, 74, 100
8, 67979, Note_on_c, 6, 74, 0
8, 67979, Note_on_c, 6, 81, 0
8, 67980, Note_on_c, 6, 69, 100
8, 67980, Note_on_c, 6, 74, 100
8, 68039, Note_on_c, 6, 74, 0
8, 68039, Note_on_c, 6, 69, 0
8, 68100, Note_on_c, 6, 70, 100
8, 68100, Note_on_c, 6, 74, 100
8, 68159, Note_on_c, 6, 74, 0
8, 68159, Note_on_c, 6, 70, 0
8, 68160, Note_on_c, 6, 70, 100
8, 68160, Note_on_c, 6, 67, 100
8, 68219, Note_on_c, 6, 67, 0
8, 68219, Note_on_c, 6, 70, 0
8, 68280, Note_on_c, 6, 74, 100
8, 68280, Note_on_c, 6, 67, 100
8, 68339, Note_on_c, 6, 67, 0
8, 68339, Note_on_c, 6, 74, 0
8, 68340, Note_on_c, 6, 79, 100
8, 68340, Note_on_c, 6, 74, 100
8, 68399, Note_on_c, 6, 74, 0
8, 68399, Note_on_c, 6, 79, 0
8, 68460, Note_on_c, 6, 81, 100
8, 68460, Note_on_c, 6, 76, 100
8, 68519, Note_on_c, 6, 76, 0
8, 68519, Note_on_c, 6, 81, 0
8, 68520, Note_on_c, 6, 76, 100
8, 68520, Note_on_c, 6, 73, 100
8, 68579, Note_on_c, 6, 73, 0
8, 68579, Note_on_c, 6, 76, 0
8, 68640, Note_on_c, 6, 69, 100
8, 68640, Note_on_c, 6, 76, 100
8, 68699, Note_on_c, 6, 76, 0
8, 68699, Note_on_c, 6, 69, 0
8, 68700, Note_on_c, 6, 70, 100
8, 68700, Note_on_c, 6, 79, 100
8, 68759, Note_on_c, 6, 79, 0
8, 68759, Note_on_c, 6, 70, 0
8, 68820, Note_on_c, 6, 77, 100
8, 68820, Note_on_c, 6, 69, 100
8, 68879, Note_on_c, 6, 69, 0
8, 68879, Note_on_c, 6, 77, 0
8, 68880, Note_on_c, 6, 65, 100
8, 68880, Note_on_c, 6, 69, 100
8, 68939, Note_on_c, 6, 69, 0
8, 68939, Note_on_c, 6, 65, 0
8, 69000, Note_on_c, 6, 62, 100
8, 69000, Note_on_c, 6, 69, 100
8, 69059, Note_on_c, 6, 69, 0
8, 69059, Note_on_c, 6, 62, 0
8, 69060, Note_on_c, 6, 73, 100
8, 69060, Note_on_c, 6, 64, 100
8, 69119, Note_on_c, 6, 64, 0
8, 69119, Note_on_c, 6, 73, 0
8, 69180, Note_on_c, 6, 74, 100
8, 69180, Note_on_c, 6, 65, 100
8, 69239, Note_on_c, 6, 65, 0
8, 69239, Note_on_c, 6, 74, 0
8, 69240, Note_on_c, 6, 62, 100
8, 69240, Note_on_c, 6, 69, 100
8, 69299, Note_on_c, 6, 69, 0
8, 69299, Note_on_c, 6, 62, 0
8, 69300, Note_on_c, 6, 57, 100
8, 69300, Note_on_c, 6, 65, 100
8, 69419, Note_on_c, 6, 65, 0
8, 69419, Note_on_c, 6, 57, 0
8, 69540, Note_on_c, 6, 67, 100
8, 69540, Note_on_c, 6, 62, 100
8, 69599, Note_on_c, 6, 62, 0
8, 69599, Note_on_c, 6, 67, 0
8, 69600, Note_on_c, 6, 71, 100
8, 69600, Note_on_c, 6, 67, 100
8, 69659, Note_on_c, 6, 67, 0
8, 69659, Note_on_c, 6, 71, 0
8, 69720, Note_on_c, 6, 74, 100
8, 69720, Note_on_c, 6, 67, 100
8, 69779, Note_on_c, 6, 67, 0
8, 69779, Note_on_c, 6, 74, 0
8, 69780, Note_on_c, 6, 74, 100
8, 69780, Note_on_c, 6, 79, 100
8, 69839, Note_on_c, 6, 79, 0
8, 69839, Note_on_c, 6, 74, 0
8, 69900, Note_on_c, 6, 72, 100
8, 69900, Note_on_c, 6, 76, 100
8, 69959, Note_on_c, 6, 76, 0
8, 69959, Note_on_c, 6, 72, 0
8, 69960, Note_on_c, 6, 72, 100
8, 69960, Note_on_c, 6, 67, 100
8, 70019, Note_on_c, 6, 67, 0
8, 70019, Note_on_c, 6, 72, 0
8, 70080, Note_on_c, 6, 67, 100
8, 70080, Note_on_c, 6, 64, 100
8, 70139, Note_on_c, 6, 64, 0
8, 70139, Note_on_c, 6, 67, 0
8, 70140, Note_on_c, 6, 67, 100
8, 70140, Note_on_c, 6, 72, 100
8, 70199, Note_on_c, 6, 72, 0
8, 70199, Note_on_c, 6, 67, 0
8, 70260, Note_on_c, 6, 65, 100
8, 70260, Note_on_c, 6, 72, 100
8, 70319, Note_on_c, 6, 72, 0
8, 70319, Note_on_c, 6, 65, 0
8, 70320, Note_on_c, 6, 75, 100
8, 70320, Note_on_c, 6, 65, 100
8, 70379, Note_on_c, 6, 65, 0
8, 70379, Note_on_c, 6, 75, 0
8, 70440, Note_on_c, 6, 69, 100
8, 70440, Note_on_c, 6, 72, 100
8, 70499, Note_on_c, 6, 72, 0
8, 70499, Note_on_c, 6, 69, 0
8, 70500, Note_on_c, 6, 65, 100
8, 70500, Note_on_c, 6, 69, 100
8, 70559, Note_on_c, 6, 69, 0
8, 70559, Note_on_c, 6, 65, 0
8, 70620, Note_on_c, 6, 70, 100
8, 70620, Note_on_c, 6, 62, 100
8, 70679, Note_on_c, 6, 62, 0
8, 70679, Note_on_c, 6, 70, 0
8, 70680, Note_on_c, 6, 65, 100
8, 70680, Note_on_c, 6, 74, 100
8, 70739, Note_on_c, 6, 74, 0
8, 70739, Note_on_c, 6, 65, 0
8, 70800, Note_on_c, 6, 74, 100
8, 70800, Note_on_c, 6, 77, 100
8, 70859, Note_on_c, 6, 77, 0
8, 70859, Note_on_c, 6, 74, 0
8, 70860, Note_on_c, 6, 77, 100
8, 70860, Note_on_c, 6, 82, 100
8, 70919, Note_on_c, 6, 82, 0
8, 70919, Note_on_c, 6, 77, 0
8, 70980, Note_on_c, 6, 72, 100
8, 70980, Note_on_c, 6, 79, 100
8, 71039, Note_on_c, 6, 79, 0
8, 71039, Note_on_c, 6, 72, 0
8, 71040, Note_on_c, 6, 70, 100
8, 71040, Note_on_c, 6, 72, 100
8, 71099, Note_on_c, 6, 72, 0
8, 71099, Note_on_c, 6, 70, 0
8, 71160, Note_on_c, 6, 70, 100
8, 71160, Note_on_c, 6, 64, 100
8, 71219, Note_on_c, 6, 64, 0
8, 71219, Note_on_c, 6, 70, 0
8, 71220, Note_on_c, 6, 70, 100
8, 71220, Note_on_c, 6, 76, 100
8, 71279, Note_on_c, 6, 76, 0
8, 71279, Note_on_c, 6, 70, 0
8, 71340, Note_on_c, 6, 77, 100
8, 71340, Note_on_c, 6, 69, 100
8, 71399, Note_on_c, 6, 69, 0
8, 71399, Note_on_c, 6, 77, 0
8, 71400, Note_on_c, 6, 72, 100
8, 71400, Note_on_c, 6, 65, 100
8, 71459, Note_on_c, 6, 65, 0
8, 71459, Note_on_c, 6, 72, 0
8, 71520, Note_on_c, 6, 65, 100
8, 71520, Note_on_c, 6, 69, 100
8, 71579, Note_on_c, 6, 69, 0
8, 71579, Note_on_c, 6, 65, 0
8, 71580, Note_on_c, 6, 60, 100
8, 71580, Note_on_c, 6, 65, 100
8, 71639, Note_on_c, 6, 65, 0
8, 71639, Note_on_c, 6, 60, 0
8, 71700, Note_on_c, 6, 62, 100
8, 71700, Note_on_c, 6, 67, 100
8, 71759, Note_on_c, 6, 67, 0
8, 71759, Note_on_c, 6, 62, 0
8, 71760, Note_on_c, 6, 67, 100
8, 71760, Note_on_c, 6, 71, 100
8, 71819, Note_on_c, 6, 71, 0
8, 71819, Note_on_c, 6, 67, 0
8, 71880, Note_on_c, 6, 67, 100
8, 71880, Note_on_c, 6, 71, 100
8, 71939, Note_on_c, 6, 71, 0
8, 71939, Note_on_c, 6, 67, 0
8, 71940, Note_on_c, 6, 71, 100
8, 71940, Note_on_c, 6, 74, 100
8, 71999, Note_on_c, 6, 74, 0
8, 71999, Note_on_c, 6, 71, 0
8, 72060, Note_on_c, 6, 72, 100
8, 72060, Note_on_c, 6, 76, 100
8, 72119, Note_on_c, 6, 76, 0
8, 72119, Note_on_c, 6, 72, 0
8, 72120, Note_on_c, 6, 72, 100
8, 72120, Note_on_c, 6, 79, 100
8, 72179, Note_on_c, 6, 79, 0
8, 72179, Note_on_c, 6, 72, 0
8, 72240, Note_on_c, 6, 76, 100
8, 72240, Note_on_c, 6, 67, 100
8, 72299, Note_on_c, 6, 67, 0
8, 72299, Note_on_c, 6, 76, 0
8, 72300, Note_on_c, 6, 72, 100
8, 72300, Note_on_c, 6, 64, 100
8, 72359, Note_on_c, 6, 64, 0
8, 72359, Note_on_c, 6, 72, 0
8, 72420, Note_on_c, 6, 67, 100
8, 72420, Note_on_c, 6, 76, 100
8, 72479, Note_on_c, 6, 76, 0
8, 72479, Note_on_c, 6, 67, 0
8, 72480, Note_on_c, 6, 77, 100
8, 72480, Note_on_c, 6, 72, 100
8, 72539, Note_on_c, 6, 72, 0
8, 72539, Note_on_c, 6, 77, 0
8, 72600, Note_on_c, 6, 72, 100
8, 72600, Note_on_c, 6, 76, 100
8, 72659, Note_on_c, 6, 76, 0
8, 72659, Note_on_c, 6, 72, 0
8, 72660, Note_on_c, 6, 71, 100
8, 72660, Note_on_c, 6, 74, 100
8, 72719, Note_on_c, 6, 74, 0
8, 72719, Note_on_c, 6, 71, 0
8, 72780, Note_on_c, 6, 72, 100
8, 72780, Note_on_c, 6, 67, 100
8, 72839, Note_on_c, 6, 67, 0
8, 72839, Note_on_c, 6, 72, 0
8, 72840, Note_on_c, 6, 71, 100
8, 72840, Note_on_c, 6, 65, 100
8, 72899, Note_on_c, 6, 65, 0
8, 72899, Note_on_c, 6, 71, 0
8, 72960, Note_on_c, 6, 64, 100
8, 72960, Note_on_c, 6, 72, 100
8, 73019, Note_on_c, 6, 72, 0
8, 73019, Note_on_c, 6, 64, 0
8, 73020, Note_on_c, 6, 60, 100
8, 73020, Note_on_c, 6, 67, 100
8, 73079, Note_on_c, 6, 67, 0
8, 73079, Note_on_c, 6, 60, 0
8, 73140, Note_on_c, 6, 65, 100
8, 73140, Note_on_c, 6, 69, 100
8, 73199, Note_on_c, 6, 69, 0
8, 73199, Note_on_c, 6, 65, 0
8, 73200, Note_on_c, 6, 64, 100
8, 73200, Note_on_c, 6, 72, 100
8, 73259, Note_on_c, 6, 72, 0
8, 73259, Note_on_c, 6, 64, 0
8, 73320, Note_on_c, 6, 65, 100
8, 73320, Note_on_c, 6, 72, 100
8, 73379, Note_on_c, 6, 72, 0
8, 73379, Note_on_c, 6, 65, 0
8, 73380, Note_on_c, 6, 70, 100
8, 73380, Note_on_c, 6, 76, 100
8, 73439, Note_on_c, 6, 76, 0
8, 73439, Note_on_c, 6, 70, 0
8, 73500, Note_on_c, 6, 72, 100
8, 73500, Note_on_c, 6, 68, 100
8, 73559, Note_on_c, 6, 68, 0
8, 73559, Note_on_c, 6, 72, 0
8, 73560, Note_on_c, 6, 65, 100
8, 73560, Note_on_c, 6, 68, 100
8, 73619, Note_on_c, 6, 68, 0
8, 73619, Note_on_c, 6, 65, 0
8, 73680, Note_on_c, 6, 67, 100
8, 73680, Note_on_c, 6, 76, 100
8, 73739, Note_on_c, 6, 76, 0
8, 73739, Note_on_c, 6, 67, 0
8, 73740, Note_on_c, 6, 77, 100
8, 73740, Note_on_c, 6, 72, 100
8, 73799, Note_on_c, 6, 72, 0
8, 73799, Note_on_c, 6, 77, 0
8, 73860, Note_on_c, 6, 70, 100
8, 73860, Note_on_c, 6, 79, 100
8, 73919, Note_on_c, 6, 79, 0
8, 73919, Note_on_c, 6, 70, 0
8, 73920, Note_on_c, 6, 68, 100
8, 73920, Note_on_c, 6, 77, 100
8, 73979, Note_on_c, 6, 77, 0
8, 73979, Note_on_c, 6, 68, 0
8, 74040, Note_on_c, 6, 72, 100
8, 74040, Note_on_c, 6, 76, 100
8, 74099, Note_on_c, 6, 76, 0
8, 74099, Note_on_c, 6, 72, 0
8, 74100, Note_on_c, 6, 67, 100
8, 74100, Note_on_c, 6, 72, 100
8, 74159, Note_on_c, 6, 72, 0
8, 74159, Note_on_c, 6, 67, 0
8, 74220, Note_on_c, 6, 65, 100
8, 74220, Note_on_c, 6, 72, 100
8, 74279, Note_on_c, 6, 72, 0
8, 74279, Note_on_c, 6, 65, 0
8, 74280, Note_on_c, 6, 68, 100
8, 74280, Note_on_c, 6, 72, 100
8, 74339, Note_on_c, 6, 72, 0
8, 74339, Note_on_c, 6, 68, 0
8, 74400, Note_on_c, 6, 68, 100
8, 74400, Note_on_c, 6, 71, 100
8, 74459, Note_on_c, 6, 71, 0
8, 74459, Note_on_c, 6, 68, 0
8, 74460, Note_on_c, 6, 71, 100
8, 74460, Note_on_c, 6, 68, 100
8, 74519, Note_on_c, 6, 68, 0
8, 74519, Note_on_c, 6, 71, 0
8, 74580, Note_on_c, 6, 72, 100
8, 74580, Note_on_c, 6, 67, 100
8, 74639, Note_on_c, 6, 67, 0
8, 74639, Note_on_c, 6, 72, 0
8, 74640, Note_on_c, 6, 72, 100
8, 74640, Note_on_c, 6, 65, 100
8, 74699, Note_on_c, 6, 65, 0
8, 74699, Note_on_c, 6, 72, 0
8, 74760, Note_on_c, 6, 72, 100
8, 74760, Note_on_c, 6, 69, 100
8, 74819, Note_on_c, 6, 69, 0
8, 74819, Note_on_c, 6, 72, 0
8, 74820, Note_on_c, 6, 70, 100
8, 74820, Note_on_c, 6, 67, 100
8, 74879, Note_on_c, 6, 67, 0
8, 74879, Note_on_c, 6, 70, 0
8, 74940, Note_on_c, 6, 64, 100
8, 74940, Note_on_c, 6, 67, 100
8, 74999, Note_on_c, 6, 67, 0
8, 74999, Note_on_c, 6, 64, 0
8, 75000, Note_on_c, 6, 60, 100
8, 75000, Note_on_c, 6, 65, 100
8, 75059, Note_on_c, 6, 65, 0
8, 75059, Note_on_c, 6, 60, 0
8, 75060, Note_on_c, 6, 60, 100
8, 75060, Note_on_c, 6, 57, 100
8, 75179, Note_on_c, 6, 57, 0
8, 75179, Note_on_c, 6, 60, 0
8, 76140, Note_on_c, 6, 62, 110
8, 76140, Note_on_c, 6, 65, 110
8, 76170, Note_on_c, 6, 65, 0
8, 76170, Note_on_c, 6, 67, 110
8, 76200, Note_on_c, 6, 67, 0
8, 76200, Note_on_c, 6, 62, 0
8, 76200, Note_on_c, 6, 62, 110
8, 76200, Note_on_c, 6, 69, 110
8, 76210, Note_on_c, 6, 69, 0
8, 76210, Note_on_c, 6, 67, 110
8, 76220, Note_on_c, 6, 67, 0
8, 76220, Note_on_c, 6, 69, 110
8, 76230, Note_on_c, 6, 69, 0
8, 76230, Note_on_c, 6, 67, 110
8, 76237, Note_on_c, 6, 69, 110
8, 76238, Note_on_c, 6, 67, 0
8, 76245, Note_on_c, 6, 69, 0
8, 76245, Note_on_c, 6, 67, 110
8, 76252, Note_on_c, 6, 69, 110
8, 76253, Note_on_c, 6, 67, 0
8, 76260, Note_on_c, 6, 69, 0
8, 76260, Note_on_c, 6, 67, 110
8, 76270, Note_on_c, 6, 67, 0
8, 76270, Note_on_c, 6, 69, 110
8, 76280, Note_on_c, 6, 69, 0
8, 76280, Note_on_c, 6, 67, 110
8, 76290, Note_on_c, 6, 67, 0
8, 76290, Note_on_c, 6, 69, 110
8, 76320, Note_on_c, 6, 69, 0
8, 76320, Note_on_c, 6, 62, 0
8, 76320, Note_on_c, 6, 64, 110
8, 76320, Note_on_c, 6, 69, 110
8, 76680, Note_on_c, 6, 69, 0
8, 76680, Note_on_c, 6, 64, 0
8, 77040, Note_on_c, 6, 69, 100
8, 77099, Note_on_c, 6, 69, 0
8, 77100, Note_on_c, 6, 74, 100
8, 77219, Note_on_c, 6, 74, 0
8, 77220, Note_on_c, 6, 73, 100
8, 77279, Note_on_c, 6, 73, 0
8, 77280, Note_on_c, 6, 74, 100
8, 77339, Note_on_c, 6, 74, 0
8, 77340, Note_on_c, 6, 76, 100
8, 77459, Note_on_c, 6, 76, 0
8, 77460, Note_on_c, 6, 77, 100
8, 77579, Note_on_c, 6, 77, 0
8, 77580, Note_on_c, 6, 76, 100
8, 77609, Note_on_c, 6, 76, 0
8, 77610, Note_on_c, 6, 74, 100
8, 77639, Note_on_c, 6, 74, 0
8, 77640, Note_on_c, 6, 77, 100
8, 77669, Note_on_c, 6, 77, 0
8, 77670, Note_on_c, 6, 76, 100
8, 77699, Note_on_c, 6, 76, 0
8, 77700, Note_on_c, 6, 74, 100
8, 77729, Note_on_c, 6, 74, 0
8, 77730, Note_on_c, 6, 73, 100
8, 77759, Note_on_c, 6, 73, 0
8, 77760, Note_on_c, 6, 74, 100
8, 77819, Note_on_c, 6, 74, 0
8, 77820, Note_on_c, 6, 76, 100
8, 77849, Note_on_c, 6, 76, 0
8, 77850, Note_on_c, 6, 77, 100
8, 77879, Note_on_c, 6, 77, 0
8, 77880, Note_on_c, 6, 76, 100
8, 77909, Note_on_c, 6, 76, 0
8, 77910, Note_on_c, 6, 74, 100
8, 77939, Note_on_c, 6, 74, 0
8, 77940, Note_on_c, 6, 72, 100
8, 77969, Note_on_c, 6, 72, 0
8, 77970, Note_on_c, 6, 71, 100
8, 77999, Note_on_c, 6, 71, 0
8, 78000, Note_on_c, 6, 72, 100
8, 78029, Note_on_c, 6, 72, 0
8, 78030, Note_on_c, 6, 74, 100
8, 78059, Note_on_c, 6, 74, 0
8, 78060, Note_on_c, 6, 71, 100
8, 78089, Note_on_c, 6, 71, 0
8, 78090, Note_on_c, 6, 72, 100
8, 78119, Note_on_c, 6, 72, 0
8, 78120, Note_on_c, 6, 74, 100
8, 78149, Note_on_c, 6, 74, 0
8, 78150, Note_on_c, 6, 76, 100
8, 78179, Note_on_c, 6, 76, 0
8, 78180, Note_on_c, 6, 72, 100
8, 78209, Note_on_c, 6, 72, 0
8, 78210, Note_on_c, 6, 74, 100
8, 78239, Note_on_c, 6, 74, 0
8, 78240, Note_on_c, 6, 76, 100
8, 78269, Note_on_c, 6, 76, 0
8, 78270, Note_on_c, 6, 72, 100
8, 78299, Note_on_c, 6, 72, 0
8, 78300, Note_on_c, 6, 71, 100
8, 78329, Note_on_c, 6, 71, 0
8, 78330, Note_on_c, 6, 69, 100
8, 78359, Note_on_c, 6, 69, 0
8, 78360, Note_on_c, 6, 77, 100
8, 78389, Note_on_c, 6, 77, 0
8, 78390, Note_on_c, 6, 74, 100
8, 78419, Note_on_c, 6, 74, 0
8, 78420, Note_on_c, 6, 72, 100
8, 78449, Note_on_c, 6, 72, 0
8, 78450, Note_on_c, 6, 71, 100
8, 78479, Note_on_c, 6, 71, 0
8, 78480, Note_on_c, 6, 80, 100
8, 78509, Note_on_c, 6, 80, 0
8, 78510, Note_on_c, 6, 76, 100
8, 78539, Note_on_c, 6, 76, 0
8, 78540, Note_on_c, 6, 74, 100
8, 78569, Note_on_c, 6, 74, 0
8, 78570, Note_on_c, 6, 72, 100
8, 78599, Note_on_c, 6, 72, 0
8, 78600, Note_on_c, 6, 77, 100
8, 78629, Note_on_c, 6, 77, 0
8, 78630, Note_on_c, 6, 74, 100
8, 78659, Note_on_c, 6, 74, 0
8, 78660, Note_on_c, 6, 72, 100
8, 78689, Note_on_c, 6, 72, 0
8, 78690, Note_on_c, 6, 71, 100
8, 78719, Note_on_c, 6, 71, 0
8, 78720, Note_on_c, 6, 72, 100
8, 78779, Note_on_c, 6, 72, 0
8, 78780, Note_on_c, 6, 69, 100
8, 78839, Note_on_c, 6, 69, 0
8, 78840, Note_on_c, 6, 72, 100
8, 78899, Note_on_c, 6, 72, 0
8, 78900, Note_on_c, 6, 75, 100
8, 78989, Note_on_c, 6, 75, 0
8, 78990, Note_on_c, 6, 72, 100
8, 79019, Note_on_c, 6, 72, 0
8, 79020, Note_on_c, 6, 74, 100
8, 79049, Note_on_c, 6, 74, 0
8, 79050, Note_on_c, 6, 75, 100
8, 79079, Note_on_c, 6, 75, 0
8, 79080, Note_on_c, 6, 74, 100
8, 79109, Note_on_c, 6, 74, 0
8, 79110, Note_on_c, 6, 72, 100
8, 79139, Note_on_c, 6, 72, 0
8, 79140, Note_on_c, 6, 70, 100
8, 79169, Note_on_c, 6, 70, 0
8, 79170, Note_on_c, 6, 69, 100
8, 79199, Note_on_c, 6, 69, 0
8, 79200, Note_on_c, 6, 70, 100
8, 79259, Note_on_c, 6, 70, 0
8, 79260, Note_on_c, 6, 67, 100
8, 79319, Note_on_c, 6, 67, 0
8, 79320, Note_on_c, 6, 70, 100
8, 79379, Note_on_c, 6, 70, 0
8, 79380, Note_on_c, 6, 74, 100
8, 79469, Note_on_c, 6, 74, 0
8, 79470, Note_on_c, 6, 70, 100
8, 79499, Note_on_c, 6, 70, 0
8, 79500, Note_on_c, 6, 72, 100
8, 79529, Note_on_c, 6, 72, 0
8, 79530, Note_on_c, 6, 74, 100
8, 79559, Note_on_c, 6, 74, 0
8, 79560, Note_on_c, 6, 72, 100
8, 79589, Note_on_c, 6, 72, 0
8, 79590, Note_on_c, 6, 70, 100
8, 79619, Note_on_c, 6, 70, 0
8, 79620, Note_on_c, 6, 69, 100
8, 79649, Note_on_c, 6, 69, 0
8, 79650, Note_on_c, 6, 67, 100
8, 79679, Note_on_c, 6, 67, 0
8, 79680, Note_on_c, 6, 69, 100
8, 79709, Note_on_c, 6, 69, 0
8, 79710, Note_on_c, 6, 72, 100
8, 79739, Note_on_c, 6, 72, 0
8, 79740, Note_on_c, 6, 70, 100
8, 79769, Note_on_c, 6, 70, 0
8, 79770, Note_on_c, 6, 69, 100
8, 79799, Note_on_c, 6, 69, 0
8, 79800, Note_on_c, 6, 79, 100
8, 79829, Note_on_c, 6, 79, 0
8, 79830, Note_on_c, 6, 70, 100
8, 79859, Note_on_c, 6, 70, 0
8, 79860, Note_on_c, 6, 69, 100
8, 79889, Note_on_c, 6, 69, 0
8, 79890, Note_on_c, 6, 67, 100
8, 79919, Note_on_c, 6, 67, 0
8, 79920, Note_on_c, 6, 65, 100
8, 79949, Note_on_c, 6, 65, 0
8, 79950, Note_on_c, 6, 69, 100
8, 79979, Note_on_c, 6, 69, 0
8, 79980, Note_on_c, 6, 67, 100
8, 80009, Note_on_c, 6, 67, 0
8, 80010, Note_on_c, 6, 65, 100
8, 80039, Note_on_c, 6, 65, 0
8, 80040, Note_on_c, 6, 76, 100
8, 80069, Note_on_c, 6, 76, 0
8, 80070, Note_on_c, 6, 67, 100
8, 80099, Note_on_c, 6, 67, 0
8, 80100, Note_on_c, 6, 65, 100
8, 80129, Note_on_c, 6, 65, 0
8, 80130, Note_on_c, 6, 64, 100
8, 80159, Note_on_c, 6, 64, 0
8, 80160, Note_on_c, 6, 62, 100
8, 80189, Note_on_c, 6, 62, 0
8, 80190, Note_on_c, 6, 74, 100
8, 80219, Note_on_c, 6, 74, 0
8, 80220, Note_on_c, 6, 76, 100
8, 80249, Note_on_c, 6, 76, 0
8, 80250, Note_on_c, 6, 77, 100
8, 80279, Note_on_c, 6, 77, 0
8, 80280, Note_on_c, 6, 67, 100
8, 80309, Note_on_c, 6, 67, 0
8, 80310, Note_on_c, 6, 73, 100
8, 80339, Note_on_c, 6, 73, 0
8, 80340, Note_on_c, 6, 74, 100
8, 80369, Note_on_c, 6, 74, 0
8, 80370, Note_on_c, 6, 76, 100
8, 80399, Note_on_c, 6, 76, 0
8, 80400, Note_on_c, 6, 65, 100
8, 80459, Note_on_c, 6, 65, 0
8, 80520, Note_on_c, 6, 64, 100
8, 80579, Note_on_c, 6, 64, 0
8, 80640, Note_on_c, 6, 62, 100
8, 80699, Note_on_c, 6, 62, 0
8, 80760, Note_on_c, 6, 67, 100
8, 80819, Note_on_c, 6, 67, 0
8, 80880, Note_on_c, 6, 65, 100
8, 80939, Note_on_c, 6, 65, 0
8, 80940, Note_on_c, 6, 70, 100
8, 81059, Note_on_c, 6, 70, 0
8, 81060, Note_on_c, 6, 69, 100
8, 81179, Note_on_c, 6, 69, 0
8, 81180, Note_on_c, 6, 68, 100
8, 81209, Note_on_c, 6, 68, 0
8, 81210, Note_on_c, 6, 69, 100
8, 81239, Note_on_c, 6, 69, 0
8, 81240, Note_on_c, 6, 71, 100
8, 81299, Note_on_c, 6, 71, 0
8, 81300, Note_on_c, 6, 69, 100
8, 81329, Note_on_c, 6, 69, 0
8, 81330, Note_on_c, 6, 68, 100
8, 81359, Note_on_c, 6, 68, 0
8, 81360, Note_on_c, 6, 69, 100
8, 81389, Note_on_c, 6, 69, 0
8, 81390, Note_on_c, 6, 76, 100
8, 81419, Note_on_c, 6, 76, 0
8, 81420, Note_on_c, 6, 77, 100
8, 81449, Note_on_c, 6, 77, 0
8, 81450, Note_on_c, 6, 76, 100
8, 81479, Note_on_c, 6, 76, 0
8, 81480, Note_on_c, 6, 74, 100
8, 81509, Note_on_c, 6, 74, 0
8, 81510, Note_on_c, 6, 72, 100
8, 81539, Note_on_c, 6, 72, 0
8, 81540, Note_on_c, 6, 76, 100
8, 81569, Note_on_c, 6, 76, 0
8, 81570, Note_on_c, 6, 74, 100
8, 81599, Note_on_c, 6, 74, 0
8, 81600, Note_on_c, 6, 72, 100
8, 81629, Note_on_c, 6, 72, 0
8, 81630, Note_on_c, 6, 69, 100
8, 81659, Note_on_c, 6, 69, 0
8, 81660, Note_on_c, 6, 74, 100
8, 81689, Note_on_c, 6, 74, 0
8, 81690, Note_on_c, 6, 72, 100
8, 81719, Note_on_c, 6, 72, 0
8, 81720, Note_on_c, 6, 71, 100
8, 81749, Note_on_c, 6, 71, 0
8, 81750, Note_on_c, 6, 74, 100
8, 81779, Note_on_c, 6, 74, 0
8, 81780, Note_on_c, 6, 76, 100
8, 81809, Note_on_c, 6, 76, 0
8, 81810, Note_on_c, 6, 74, 100
8, 81839, Note_on_c, 6, 74, 0
8, 81840, Note_on_c, 6, 72, 100
8, 81899, Note_on_c, 6, 72, 0
8, 81900, Note_on_c, 6, 81, 100
8, 81959, Note_on_c, 6, 81, 0
8, 82020, Note_on_c, 6, 76, 100
8, 82109, Note_on_c, 6, 76, 0
8, 82110, Note_on_c, 6, 74, 100
8, 82139, Note_on_c, 6, 74, 0
8, 82140, Note_on_c, 6, 72, 100
8, 82169, Note_on_c, 6, 72, 0
8, 82170, Note_on_c, 6, 74, 100
8, 82199, Note_on_c, 6, 74, 0
8, 82200, Note_on_c, 6, 76, 100
8, 82229, Note_on_c, 6, 76, 0
8, 82230, Note_on_c, 6, 74, 100
8, 82259, Note_on_c, 6, 74, 0
8, 82260, Note_on_c, 6, 76, 100
8, 82289, Note_on_c, 6, 76, 0
8, 82290, Note_on_c, 6, 77, 100
8, 82319, Note_on_c, 6, 77, 0
8, 82320, Note_on_c, 6, 71, 100
8, 82379, Note_on_c, 6, 71, 0
8, 82380, Note_on_c, 6, 71, 100
8, 82439, Note_on_c, 6, 71, 0
8, 82440, Note_on_c, 6, 79, 100
8, 82499, Note_on_c, 6, 79, 0
8, 82500, Note_on_c, 6, 79, 100
8, 82559, Note_on_c, 6, 79, 0
8, 82560, Note_on_c, 6, 79, 100
8, 82619, Note_on_c, 6, 79, 0
8, 82620, Note_on_c, 6, 77, 100
8, 82649, Note_on_c, 6, 77, 0
8, 82650, Note_on_c, 6, 76, 100
8, 82679, Note_on_c, 6, 76, 0
8, 82680, Note_on_c, 6, 74, 100
8, 82709, Note_on_c, 6, 74, 0
8, 82710, Note_on_c, 6, 72, 100
8, 82739, Note_on_c, 6, 72, 0
8, 82740, Note_on_c, 6, 70, 100
8, 82769, Note_on_c, 6, 70, 0
8, 82770, Note_on_c, 6, 69, 100
8, 82799, Note_on_c, 6, 69, 0
8, 82800, Note_on_c, 6, 67, 100
8, 82859, Note_on_c, 6, 67, 0
8, 82860, Note_on_c, 6, 67, 100
8, 82919, Note_on_c, 6, 67, 0
8, 82920, Note_on_c, 6, 76, 100
8, 82979, Note_on_c, 6, 76, 0
8, 82980, Note_on_c, 6, 76, 100
8, 83039, Note_on_c, 6, 76, 0
8, 83040, Note_on_c, 6, 76, 100
8, 83099, Note_on_c, 6, 76, 0
8, 83100, Note_on_c, 6, 74, 100
8, 83129, Note_on_c, 6, 74, 0
8, 83130, Note_on_c, 6, 72, 100
8, 83159, Note_on_c, 6, 72, 0
8, 83160, Note_on_c, 6, 70, 100
8, 83189, Note_on_c, 6, 70, 0
8, 83190, Note_on_c, 6, 69, 100
8, 83219, Note_on_c, 6, 69, 0
8, 83220, Note_on_c, 6, 67, 100
8, 83249, Note_on_c, 6, 67, 0
8, 83250, Note_on_c, 6, 65, 100
8, 83279, Note_on_c, 6, 65, 0
8, 83280, Note_on_c, 6, 64, 100
8, 83309, Note_on_c, 6, 64, 0
8, 83310, Note_on_c, 6, 67, 100
8, 83339, Note_on_c, 6, 67, 0
8, 83340, Note_on_c, 6, 65, 100
8, 83369, Note_on_c, 6, 65, 0
8, 83370, Note_on_c, 6, 69, 100
8, 83399, Note_on_c, 6, 69, 0
8, 83400, Note_on_c, 6, 67, 100
8, 83429, Note_on_c, 6, 67, 0
8, 83430, Note_on_c, 6, 64, 100
8, 83459, Note_on_c, 6, 64, 0
8, 83460, Note_on_c, 6, 69, 100
8, 83489, Note_on_c, 6, 69, 0
8, 83490, Note_on_c, 6, 67, 100
8, 83519, Note_on_c, 6, 67, 0
8, 83520, Note_on_c, 6, 65, 100
8, 83549, Note_on_c, 6, 65, 0
8, 83550, Note_on_c, 6, 77, 100
8, 83579, Note_on_c, 6, 77, 0
8, 83580, Note_on_c, 6, 76, 100
8, 83609, Note_on_c, 6, 76, 0
8, 83610, Note_on_c, 6, 74, 100
8, 83639, Note_on_c, 6, 74, 0
8, 83640, Note_on_c, 6, 73, 100
8, 83669, Note_on_c, 6, 73, 0
8, 83670, Note_on_c, 6, 79, 100
8, 83699, Note_on_c, 6, 79, 0
8, 83700, Note_on_c, 6, 77, 100
8, 83729, Note_on_c, 6, 77, 0
8, 83730, Note_on_c, 6, 76, 100
8, 83759, Note_on_c, 6, 76, 0
8, 83760, Note_on_c, 6, 74, 100
8, 83789, Note_on_c, 6, 74, 0
8, 83790, Note_on_c, 6, 77, 100
8, 83819, Note_on_c, 6, 77, 0
8, 83820, Note_on_c, 6, 79, 100
8, 83849, Note_on_c, 6, 79, 0
8, 83850, Note_on_c, 6, 81, 100
8, 83879, Note_on_c, 6, 81, 0
8, 83880, Note_on_c, 6, 73, 100
8, 83909, Note_on_c, 6, 73, 0
8, 83910, Note_on_c, 6, 79, 100
8, 83939, Note_on_c, 6, 79, 0
8, 83940, Note_on_c, 6, 77, 100
8, 83969, Note_on_c, 6, 77, 0
8, 83970, Note_on_c, 6, 76, 100
8, 83999, Note_on_c, 6, 76, 0
8, 84000, Note_on_c, 6, 74, 100
8, 84029, Note_on_c, 6, 74, 0
8, 84030, Note_on_c, 6, 76, 100
8, 84059, Note_on_c, 6, 76, 0
8, 84060, Note_on_c, 6, 77, 100
8, 84089, Note_on_c, 6, 77, 0
8, 84090, Note_on_c, 6, 79, 100
8, 84119, Note_on_c, 6, 79, 0
8, 84120, Note_on_c, 6, 77, 100
8, 84149, Note_on_c, 6, 77, 0
8, 84150, Note_on_c, 6, 76, 100
8, 84179, Note_on_c, 6, 76, 0
8, 84180, Note_on_c, 6, 74, 100
8, 84209, Note_on_c, 6, 74, 0
8, 84210, Note_on_c, 6, 72, 100
8, 84239, Note_on_c, 6, 72, 0
8, 84240, Note_on_c, 6, 70, 100
8, 84299, Note_on_c, 6, 70, 0
8, 84300, Note_on_c, 6, 74, 100
8, 84359, Note_on_c, 6, 74, 0
8, 84360, Note_on_c, 6, 67, 100
8, 84419, Note_on_c, 6, 67, 0
8, 84420, Note_on_c, 6, 71, 100
8, 84479, Note_on_c, 6, 71, 0
8, 84480, Note_on_c, 6, 72, 100
8, 84509, Note_on_c, 6, 72, 0
8, 84510, Note_on_c, 6, 74, 100
8, 84539, Note_on_c, 6, 74, 0
8, 84540, Note_on_c, 6, 76, 100
8, 84569, Note_on_c, 6, 76, 0
8, 84570, Note_on_c, 6, 77, 100
8, 84599, Note_on_c, 6, 77, 0
8, 84600, Note_on_c, 6, 76, 100
8, 84629, Note_on_c, 6, 76, 0
8, 84630, Note_on_c, 6, 74, 100
8, 84659, Note_on_c, 6, 74, 0
8, 84660, Note_on_c, 6, 72, 100
8, 84689, Note_on_c, 6, 72, 0
8, 84690, Note_on_c, 6, 70, 100
8, 84719, Note_on_c, 6, 70, 0
8, 84720, Note_on_c, 6, 69, 100
8, 84779, Note_on_c, 6, 69, 0
8, 84780, Note_on_c, 6, 72, 100
8, 84839, Note_on_c, 6, 72, 0
8, 84840, Note_on_c, 6, 65, 100
8, 84899, Note_on_c, 6, 65, 0
8, 84900, Note_on_c, 6, 69, 100
8, 84959, Note_on_c, 6, 69, 0
8, 84960, Note_on_c, 6, 70, 100
8, 84989, Note_on_c, 6, 70, 0
8, 84990, Note_on_c, 6, 72, 100
8, 85019, Note_on_c, 6, 72, 0
8, 85020, Note_on_c, 6, 74, 100
8, 85049, Note_on_c, 6, 74, 0
8, 85050, Note_on_c, 6, 75, 100
8, 85079, Note_on_c, 6, 75, 0
8, 85080, Note_on_c, 6, 74, 100
8, 85109, Note_on_c, 6, 74, 0
8, 85110, Note_on_c, 6, 72, 100
8, 85139, Note_on_c, 6, 72, 0
8, 85140, Note_on_c, 6, 70, 100
8, 85169, Note_on_c, 6, 70, 0
8, 85170, Note_on_c, 6, 69, 100
8, 85199, Note_on_c, 6, 69, 0
8, 85200, Note_on_c, 6, 67, 100
8, 85259, Note_on_c, 6, 67, 0
8, 85260, Note_on_c, 6, 70, 100
8, 85319, Note_on_c, 6, 70, 0
8, 85320, Note_on_c, 6, 64, 100
8, 85379, Note_on_c, 6, 64, 0
8, 85380, Note_on_c, 6, 67, 100
8, 85469, Note_on_c, 6, 67, 0
8, 85470, Note_on_c, 6, 65, 100
8, 85499, Note_on_c, 6, 65, 0
8, 85500, Note_on_c, 6, 64, 100
8, 85529, Note_on_c, 6, 64, 0
8, 85530, Note_on_c, 6, 62, 100
8, 85559, Note_on_c, 6, 62, 0
8, 85560, Note_on_c, 6, 61, 100
8, 85589, Note_on_c, 6, 61, 0
8, 85590, Note_on_c, 6, 70, 100
8, 85619, Note_on_c, 6, 70, 0
8, 85620, Note_on_c, 6, 69, 100
8, 85649, Note_on_c, 6, 69, 0
8, 85650, Note_on_c, 6, 67, 100
8, 85679, Note_on_c, 6, 67, 0
8, 85680, Note_on_c, 6, 65, 100
8, 85710, Note_on_c, 6, 65, 0
8, 85710, Note_on_c, 6, 69, 100
8, 85740, Note_on_c, 6, 69, 0
8, 85740, Note_on_c, 6, 74, 100
8, 85860, Note_on_c, 6, 74, 0
8, 85860, Note_on_c, 6, 73, 100
8, 85919, Note_on_c, 6, 73, 0
8, 85920, Note_on_c, 6, 74, 100
8, 85979, Note_on_c, 6, 74, 0
8, 85980, Note_on_c, 6, 76, 100
8, 86099, Note_on_c, 6, 76, 0
8, 86100, Note_on_c, 6, 77, 100
8, 86219, Note_on_c, 6, 77, 0
8, 86220, Note_on_c, 6, 76, 100
8, 86249, Note_on_c, 6, 76, 0
8, 86250, Note_on_c, 6, 74, 100
8, 86279, Note_on_c, 6, 74, 0
8, 86280, Note_on_c, 6, 77, 100
8, 86309, Note_on_c, 6, 77, 0
8, 86310, Note_on_c, 6, 76, 100
8, 86339, Note_on_c, 6, 76, 0
8, 86340, Note_on_c, 6, 74, 100
8, 86369, Note_on_c, 6, 74, 0
8, 86370, Note_on_c, 6, 73, 100
8, 86399, Note_on_c, 6, 73, 0
8, 86400, Note_on_c, 6, 74, 100
8, 86429, Note_on_c, 6, 74, 0
8, 86430, Note_on_c, 6, 69, 100
8, 86459, Note_on_c, 6, 69, 0
8, 86460, Note_on_c, 6, 65, 100
8, 86489, Note_on_c, 6, 65, 0
8, 86490, Note_on_c, 6, 69, 100
8, 86519, Note_on_c, 6, 69, 0
8, 86520, Note_on_c, 6, 62, 100
8, 86579, Note_on_c, 6, 62, 0
8, 93360, Note_on_c, 6, 76, 100
8, 93419, Note_on_c, 6, 76, 0
8, 93420, Note_on_c, 6, 81, 100
8, 93539, Note_on_c, 6, 81, 0
8, 93540, Note_on_c, 6, 80, 100
8, 93599, Note_on_c, 6, 80, 0
8, 93600, Note_on_c, 6, 81, 100
8, 93659, Note_on_c, 6, 81, 0
8, 93660, Note_on_c, 6, 83, 100
8, 93779, Note_on_c, 6, 83, 0
8, 93780, Note_on_c, 6, 84, 100
8, 93899, Note_on_c, 6, 84, 0
8, 93900, Note_on_c, 6, 83, 100
8, 93929, Note_on_c, 6, 83, 0
8, 93930, Note_on_c, 6, 81, 100
8, 93959, Note_on_c, 6, 81, 0
8, 93960, Note_on_c, 6, 84, 100
8, 93989, Note_on_c, 6, 84, 0
8, 93990, Note_on_c, 6, 83, 100
8, 94019, Note_on_c, 6, 83, 0
8, 94020, Note_on_c, 6, 81, 100
8, 94049, Note_on_c, 6, 81, 0
8, 94050, Note_on_c, 6, 80, 100
8, 94079, Note_on_c, 6, 80, 0
8, 94080, Note_on_c, 6, 81, 100
8, 94109, Note_on_c, 6, 81, 0
8, 94110, Note_on_c, 6, 76, 100
8, 94139, Note_on_c, 6, 76, 0
8, 94140, Note_on_c, 6, 72, 100
8, 94169, Note_on_c, 6, 72, 0
8, 94170, Note_on_c, 6, 76, 100
8, 94199, Note_on_c, 6, 76, 0
8, 94200, Note_on_c, 6, 69, 100
8, 94259, Note_on_c, 6, 69, 0
8, 94320, Note_on_c, 6, 64, 100
8, 94349, Note_on_c, 6, 64, 0
8, 94350, Note_on_c, 6, 60, 100
8, 94379, Note_on_c, 6, 60, 0
8, 94380, Note_on_c, 6, 59, 100
8, 94409, Note_on_c, 6, 59, 0
8, 94410, Note_on_c, 6, 57, 100
8, 94439, Note_on_c, 6, 57, 0
8, 94440, Note_on_c, 6, 64, 100
8, 94469, Note_on_c, 6, 64, 0
8, 94470, Note_on_c, 6, 60, 100
8, 94499, Note_on_c, 6, 60, 0
8, 94500, Note_on_c, 6, 59, 100
8, 94529, Note_on_c, 6, 59, 0
8, 94530, Note_on_c, 6, 57, 100
8, 94559, Note_on_c, 6, 57, 0
8, 94560, Note_on_c, 6, 65, 100
8, 94589, Note_on_c, 6, 65, 0
8, 94590, Note_on_c, 6, 62, 100
8, 94619, Note_on_c, 6, 62, 0
8, 94620, Note_on_c, 6, 64, 100
8, 94649, Note_on_c, 6, 64, 0
8, 94650, Note_on_c, 6, 59, 100
8, 94679, Note_on_c, 6, 59, 0
8, 94680, Note_on_c, 6, 60, 100
8, 94709, Note_on_c, 6, 60, 0
8, 94710, Note_on_c, 6, 57, 100
8, 94739, Note_on_c, 6, 57, 0
8, 94740, Note_on_c, 6, 60, 100
8, 94769, Note_on_c, 6, 60, 0
8, 94770, Note_on_c, 6, 64, 100
8, 94799, Note_on_c, 6, 64, 0
8, 94800, Note_on_c, 6, 67, 100
8, 94829, Note_on_c, 6, 67, 0
8, 94830, Note_on_c, 6, 64, 100
8, 94859, Note_on_c, 6, 64, 0
8, 94860, Note_on_c, 6, 62, 100
8, 94889, Note_on_c, 6, 62, 0
8, 94890, Note_on_c, 6, 61, 100
8, 94919, Note_on_c, 6, 61, 0
8, 94920, Note_on_c, 6, 67, 100
8, 94949, Note_on_c, 6, 67, 0
8, 94950, Note_on_c, 6, 64, 100
8, 94979, Note_on_c, 6, 64, 0
8, 94980, Note_on_c, 6, 62, 100
8, 95009, Note_on_c, 6, 62, 0
8, 95010, Note_on_c, 6, 61, 100
8, 95039, Note_on_c, 6, 61, 0
8, 95040, Note_on_c, 6, 70, 100
8, 95069, Note_on_c, 6, 70, 0
8, 95070, Note_on_c, 6, 67, 100
8, 95099, Note_on_c, 6, 67, 0
8, 95100, Note_on_c, 6, 69, 100
8, 95129, Note_on_c, 6, 69, 0
8, 95130, Note_on_c, 6, 64, 100
8, 95159, Note_on_c, 6, 64, 0
8, 95160, Note_on_c, 6, 65, 100
8, 95189, Note_on_c, 6, 65, 0
8, 95190, Note_on_c, 6, 62, 100
8, 95219, Note_on_c, 6, 62, 0
8, 95220, Note_on_c, 6, 65, 100
8, 95249, Note_on_c, 6, 65, 0
8, 95250, Note_on_c, 6, 69, 100
8, 95279, Note_on_c, 6, 69, 0
8, 95280, Note_on_c, 6, 74, 100
8, 95309, Note_on_c, 6, 74, 0
8, 95310, Note_on_c, 6, 65, 100
8, 95339, Note_on_c, 6, 65, 0
8, 95340, Note_on_c, 6, 63, 100
8, 95369, Note_on_c, 6, 63, 0
8, 95370, Note_on_c, 6, 62, 100
8, 95399, Note_on_c, 6, 62, 0
8, 95400, Note_on_c, 6, 74, 100
8, 95429, Note_on_c, 6, 74, 0
8, 95430, Note_on_c, 6, 65, 100
8, 95459, Note_on_c, 6, 65, 0
8, 95460, Note_on_c, 6, 63, 100
8, 95489, Note_on_c, 6, 63, 0
8, 95490, Note_on_c, 6, 62, 100
8, 95519, Note_on_c, 6, 62, 0
8, 95520, Note_on_c, 6, 74, 100
8, 95549, Note_on_c, 6, 74, 0
8, 95550, Note_on_c, 6, 65, 100
8, 95579, Note_on_c, 6, 65, 0
8, 95580, Note_on_c, 6, 67, 100
8, 95609, Note_on_c, 6, 67, 0
8, 95610, Note_on_c, 6, 62, 100
8, 95639, Note_on_c, 6, 62, 0
8, 95640, Note_on_c, 6, 63, 100
8, 95669, Note_on_c, 6, 63, 0
8, 95670, Note_on_c, 6, 60, 100
8, 95699, Note_on_c, 6, 60, 0
8, 95700, Note_on_c, 6, 63, 100
8, 95729, Note_on_c, 6, 63, 0
8, 95730, Note_on_c, 6, 67, 100
8, 95759, Note_on_c, 6, 67, 0
8, 95760, Note_on_c, 6, 72, 100
8, 95789, Note_on_c, 6, 72, 0
8, 95790, Note_on_c, 6, 63, 100
8, 95819, Note_on_c, 6, 63, 0
8, 95820, Note_on_c, 6, 62, 100
8, 95849, Note_on_c, 6, 62, 0
8, 95850, Note_on_c, 6, 60, 100
8, 95879, Note_on_c, 6, 60, 0
8, 95880, Note_on_c, 6, 72, 100
8, 95909, Note_on_c, 6, 72, 0
8, 95910, Note_on_c, 6, 63, 100
8, 95939, Note_on_c, 6, 63, 0
8, 95940, Note_on_c, 6, 62, 100
8, 95969, Note_on_c, 6, 62, 0
8, 95970, Note_on_c, 6, 60, 100
8, 95999, Note_on_c, 6, 60, 0
8, 96000, Note_on_c, 6, 72, 100
8, 96029, Note_on_c, 6, 72, 0
8, 96030, Note_on_c, 6, 63, 100
8, 96059, Note_on_c, 6, 63, 0
8, 96060, Note_on_c, 6, 65, 100
8, 96089, Note_on_c, 6, 65, 0
8, 96090, Note_on_c, 6, 60, 100
8, 96119, Note_on_c, 6, 60, 0
8, 96120, Note_on_c, 6, 62, 100
8, 96149, Note_on_c, 6, 62, 0
8, 96150, Note_on_c, 6, 58, 100
8, 96179, Note_on_c, 6, 58, 0
8, 96180, Note_on_c, 6, 62, 100
8, 96209, Note_on_c, 6, 62, 0
8, 96210, Note_on_c, 6, 63, 100
8, 96239, Note_on_c, 6, 63, 0
8, 96240, Note_on_c, 6, 65, 100
8, 96269, Note_on_c, 6, 65, 0
8, 96270, Note_on_c, 6, 70, 100
8, 96299, Note_on_c, 6, 70, 0
8, 96300, Note_on_c, 6, 72, 100
8, 96329, Note_on_c, 6, 72, 0
8, 96330, Note_on_c, 6, 74, 100
8, 96359, Note_on_c, 6, 74, 0
8, 96360, Note_on_c, 6, 67, 100
8, 96389, Note_on_c, 6, 67, 0
8, 96390, Note_on_c, 6, 62, 100
8, 96419, Note_on_c, 6, 62, 0
8, 96420, Note_on_c, 6, 63, 100
8, 96449, Note_on_c, 6, 63, 0
8, 96450, Note_on_c, 6, 65, 100
8, 96479, Note_on_c, 6, 65, 0
8, 96480, Note_on_c, 6, 67, 100
8, 96509, Note_on_c, 6, 67, 0
8, 96510, Note_on_c, 6, 72, 100
8, 96539, Note_on_c, 6, 72, 0
8, 96540, Note_on_c, 6, 74, 100
8, 96569, Note_on_c, 6, 74, 0
8, 96570, Note_on_c, 6, 75, 100
8, 96599, Note_on_c, 6, 75, 0
8, 96600, Note_on_c, 6, 69, 100
8, 96629, Note_on_c, 6, 69, 0
8, 96630, Note_on_c, 6, 64, 100
8, 96659, Note_on_c, 6, 64, 0
8, 96660, Note_on_c, 6, 65, 100
8, 96689, Note_on_c, 6, 65, 0
8, 96690, Note_on_c, 6, 67, 100
8, 96719, Note_on_c, 6, 67, 0
8, 96720, Note_on_c, 6, 69, 100
8, 96749, Note_on_c, 6, 69, 0
8, 96750, Note_on_c, 6, 74, 100
8, 96779, Note_on_c, 6, 74, 0
8, 96780, Note_on_c, 6, 75, 100
8, 96809, Note_on_c, 6, 75, 0
8, 96810, Note_on_c, 6, 77, 100
8, 96839, Note_on_c, 6, 77, 0
8, 96840, Note_on_c, 6, 67, 100
8, 96869, Note_on_c, 6, 67, 0
8, 96870, Note_on_c, 6, 72, 100
8, 96899, Note_on_c, 6, 72, 0
8, 96900, Note_on_c, 6, 74, 100
8, 96929, Note_on_c, 6, 74, 0
8, 96930, Note_on_c, 6, 75, 100
8, 96959, Note_on_c, 6, 75, 0
8, 96960, Note_on_c, 6, 65, 100
8, 96989, Note_on_c, 6, 65, 0
8, 96990, Note_on_c, 6, 70, 100
8, 97019, Note_on_c, 6, 70, 0
8, 97020, Note_on_c, 6, 72, 100
8, 97049, Note_on_c, 6, 72, 0
8, 97050, Note_on_c, 6, 74, 100
8, 97079, Note_on_c, 6, 74, 0
8, 97080, Note_on_c, 6, 63, 100
8, 97109, Note_on_c, 6, 63, 0
8, 97110, Note_on_c, 6, 69, 100
8, 97139, Note_on_c, 6, 69, 0
8, 97140, Note_on_c, 6, 70, 100
8, 97169, Note_on_c, 6, 70, 0
8, 97170, Note_on_c, 6, 72, 100
8, 97199, Note_on_c, 6, 72, 0
8, 97200, Note_on_c, 6, 62, 100
8, 97229, Note_on_c, 6, 62, 0
8, 97230, Note_on_c, 6, 77, 100
8, 97259, Note_on_c, 6, 77, 0
8, 97260, Note_on_c, 6, 79, 100
8, 97289, Note_on_c, 6, 79, 0
8, 97290, Note_on_c, 6, 81, 100
8, 97319, Note_on_c, 6, 81, 0
8, 97320, Note_on_c, 6, 82, 100
8, 97349, Note_on_c, 6, 82, 0
8, 97350, Note_on_c, 6, 76, 100
8, 97379, Note_on_c, 6, 76, 0
8, 97380, Note_on_c, 6, 77, 100
8, 97409, Note_on_c, 6, 77, 0
8, 97410, Note_on_c, 6, 79, 100
8, 97439, Note_on_c, 6, 79, 0
8, 97440, Note_on_c, 6, 73, 100
8, 97469, Note_on_c, 6, 73, 0
8, 97470, Note_on_c, 6, 76, 100
8, 97499, Note_on_c, 6, 76, 0
8, 97500, Note_on_c, 6, 77, 100
8, 97529, Note_on_c, 6, 77, 0
8, 97530, Note_on_c, 6, 79, 100
8, 97559, Note_on_c, 6, 79, 0
8, 97560, Note_on_c, 6, 73, 100
8, 97589, Note_on_c, 6, 73, 0
8, 97590, Note_on_c, 6, 67, 100
8, 97619, Note_on_c, 6, 67, 0
8, 97620, Note_on_c, 6, 69, 100
8, 97649, Note_on_c, 6, 69, 0
8, 97650, Note_on_c, 6, 70, 100
8, 97679, Note_on_c, 6, 70, 0
8, 97680, Note_on_c, 6, 67, 100
8, 97709, Note_on_c, 6, 67, 0
8, 97710, Note_on_c, 6, 73, 100
8, 97739, Note_on_c, 6, 73, 0
8, 97740, Note_on_c, 6, 74, 100
8, 97769, Note_on_c, 6, 74, 0
8, 97770, Note_on_c, 6, 76, 100
8, 97799, Note_on_c, 6, 76, 0
8, 97800, Note_on_c, 6, 67, 100
8, 97829, Note_on_c, 6, 67, 0
8, 97830, Note_on_c, 6, 64, 100
8, 97859, Note_on_c, 6, 64, 0
8, 97860, Note_on_c, 6, 65, 100
8, 97889, Note_on_c, 6, 65, 0
8, 97890, Note_on_c, 6, 67, 100
8, 97919, Note_on_c, 6, 67, 0
8, 97920, Note_on_c, 6, 64, 100
8, 97949, Note_on_c, 6, 64, 0
8, 97950, Note_on_c, 6, 67, 100
8, 97979, Note_on_c, 6, 67, 0
8, 97980, Note_on_c, 6, 69, 100
8, 98009, Note_on_c, 6, 69, 0
8, 98010, Note_on_c, 6, 70, 100
8, 98039, Note_on_c, 6, 70, 0
8, 98040, Note_on_c, 6, 64, 100
8, 98069, Note_on_c, 6, 64, 0
8, 98070, Note_on_c, 6, 61, 100
8, 98099, Note_on_c, 6, 61, 0
8, 98100, Note_on_c, 6, 62, 100
8, 98129, Note_on_c, 6, 62, 0
8, 98130, Note_on_c, 6, 64, 100
8, 98159, Note_on_c, 6, 64, 0
8, 98160, Note_on_c, 6, 61, 100
8, 98189, Note_on_c, 6, 61, 0
8, 98190, Note_on_c, 6, 82, 100
8, 98219, Note_on_c, 6, 82, 0
8, 98220, Note_on_c, 6, 81, 100
8, 98249, Note_on_c, 6, 81, 0
8, 98250, Note_on_c, 6, 79, 100
8, 98279, Note_on_c, 6, 79, 0
8, 98280, Note_on_c, 6, 77, 100
8, 98309, Note_on_c, 6, 77, 0
8, 98310, Note_on_c, 6, 76, 100
8, 98339, Note_on_c, 6, 76, 0
8, 98340, Note_on_c, 6, 74, 100
8, 98369, Note_on_c, 6, 74, 0
8, 98370, Note_on_c, 6, 76, 100
8, 98399, Note_on_c, 6, 76, 0
8, 98400, Note_on_c, 6, 69, 100
8, 98429, Note_on_c, 6, 69, 0
8, 98430, Note_on_c, 6, 74, 100
8, 98459, Note_on_c, 6, 74, 0
8, 98460, Note_on_c, 6, 76, 100
8, 98489, Note_on_c, 6, 76, 0
8, 98490, Note_on_c, 6, 73, 100
8, 98519, Note_on_c, 6, 73, 0
8, 98520, Note_on_c, 6, 74, 100
8, 98549, Note_on_c, 6, 74, 0
8, 98550, Note_on_c, 6, 77, 100
8, 98579, Note_on_c, 6, 77, 0
8, 98580, Note_on_c, 6, 68, 100
8, 98609, Note_on_c, 6, 68, 0
8, 98610, Note_on_c, 6, 69, 100
8, 98639, Note_on_c, 6, 69, 0
8, 98640, Note_on_c, 6, 76, 100
8, 98669, Note_on_c, 6, 76, 0
8, 98670, Note_on_c, 6, 79, 100
8, 98699, Note_on_c, 6, 79, 0
8, 98700, Note_on_c, 6, 68, 100
8, 98729, Note_on_c, 6, 68, 0
8, 98730, Note_on_c, 6, 69, 100
8, 98759, Note_on_c, 6, 69, 0
8, 98760, Note_on_c, 6, 77, 100
8, 98789, Note_on_c, 6, 77, 0
8, 98790, Note_on_c, 6, 81, 100
8, 98819, Note_on_c, 6, 81, 0
8, 98820, Note_on_c, 6, 73, 100
8, 98849, Note_on_c, 6, 73, 0
8, 98850, Note_on_c, 6, 74, 100
8, 98879, Note_on_c, 6, 74, 0
8, 98880, Note_on_c, 6, 79, 100
8, 98909, Note_on_c, 6, 79, 0
8, 98910, Note_on_c, 6, 82, 100
8, 98939, Note_on_c, 6, 82, 0
8, 98940, Note_on_c, 6, 73, 100
8, 98969, Note_on_c, 6, 73, 0
8, 98970, Note_on_c, 6, 74, 100
8, 98999, Note_on_c, 6, 74, 0
8, 99000, Note_on_c, 6, 81, 100
8, 99029, Note_on_c, 6, 81, 0
8, 99030, Note_on_c, 6, 84, 100
8, 99059, Note_on_c, 6, 84, 0
8, 99060, Note_on_c, 6, 73, 100
8, 99089, Note_on_c, 6, 73, 0
8, 99090, Note_on_c, 6, 74, 100
8, 99119, Note_on_c, 6, 74, 0
8, 99120, Note_on_c, 6, 82, 100
8, 99134, Note_on_c, 6, 82, 0
8, 99135, Note_on_c, 6, 84, 100
8, 99149, Note_on_c, 6, 84, 0
8, 99150, Note_on_c, 6, 82, 100
8, 99164, Note_on_c, 6, 82, 0
8, 99165, Note_on_c, 6, 84, 100
8, 99179, Note_on_c, 6, 84, 0
8, 99180, Note_on_c, 6, 82, 100
8, 99189, Note_on_c, 6, 82, 0
8, 99190, Note_on_c, 6, 84, 100
8, 99199, Note_on_c, 6, 84, 0
8, 99200, Note_on_c, 6, 82, 100
8, 99209, Note_on_c, 6, 82, 0
8, 99210, Note_on_c, 6, 84, 100
8, 99219, Note_on_c, 6, 84, 0
8, 99220, Note_on_c, 6, 82, 100
8, 99229, Note_on_c, 6, 82, 0
8, 99230, Note_on_c, 6, 84, 100
8, 99239, Note_on_c, 6, 84, 0
8, 99240, Note_on_c, 6, 82, 100
8, 99249, Note_on_c, 6, 82, 0
8, 99250, Note_on_c, 6, 84, 100
8, 99259, Note_on_c, 6, 84, 0
8, 99260, Note_on_c, 6, 82, 100
8, 99269, Note_on_c, 6, 82, 0
8, 99270, Note_on_c, 6, 84, 100
8, 99279, Note_on_c, 6, 84, 0
8, 99280, Note_on_c, 6, 82, 100
8, 99289, Note_on_c, 6, 82, 0
8, 99290, Note_on_c, 6, 84, 100
8, 99299, Note_on_c, 6, 84, 0
8, 99300, Note_on_c, 6, 82, 100
8, 99309, Note_on_c, 6, 82, 0
8, 99310, Note_on_c, 6, 84, 100
8, 99319, Note_on_c, 6, 84, 0
8, 99320, Note_on_c, 6, 82, 100
8, 99329, Note_on_c, 6, 82, 0
8, 99330, Note_on_c, 6, 84, 100
8, 99339, Note_on_c, 6, 84, 0
8, 99340, Note_on_c, 6, 82, 100
8, 99349, Note_on_c, 6, 82, 0
8, 99350, Note_on_c, 6, 84, 100
8, 99360, Note_on_c, 6, 84, 0
8, 99360, Note_on_c, 6, 82, 100
8, 99389, Note_on_c, 6, 82, 0
8, 99395, Note_on_c, 6, 79, 100
8, 99424, Note_on_c, 6, 79, 0
8, 99425, Note_on_c, 6, 77, 100
8, 99454, Note_on_c, 6, 77, 0
8, 99455, Note_on_c, 6, 76, 100
8, 99484, Note_on_c, 6, 76, 0
8, 99485, Note_on_c, 6, 81, 100
8, 99514, Note_on_c, 6, 81, 0
8, 99515, Note_on_c, 6, 77, 100
8, 99544, Note_on_c, 6, 77, 0
8, 99545, Note_on_c, 6, 73, 100
8, 99574, Note_on_c, 6, 73, 0
8, 99575, Note_on_c, 6, 74, 100
8, 99604, Note_on_c, 6, 74, 0
8, 99605, Note_on_c, 6, 79, 100
8, 99634, Note_on_c, 6, 79, 0
8, 99635, Note_on_c, 6, 76, 100
8, 99664, Note_on_c, 6, 76, 0
8, 99665, Note_on_c, 6, 74, 100
8, 99694, Note_on_c, 6, 74, 0
8, 99695, Note_on_c, 6, 73, 100
8, 99724, Note_on_c, 6, 73, 0
8, 99725, Note_on_c, 6, 77, 100
8, 99754, Note_on_c, 6, 77, 0
8, 99755, Note_on_c, 6, 74, 100
8, 99784, Note_on_c, 6, 74, 0
8, 99785, Note_on_c, 6, 69, 100
8, 99814, Note_on_c, 6, 69, 0
8, 99815, Note_on_c, 6, 70, 100
8, 99844, Note_on_c, 6, 70, 0
8, 99845, Note_on_c, 6, 75, 100
8, 99874, Note_on_c, 6, 75, 0
8, 99875, Note_on_c, 6, 72, 100
8, 99904, Note_on_c, 6, 72, 0
8, 99905, Note_on_c, 6, 70, 100
8, 99934, Note_on_c, 6, 70, 0
8, 99935, Note_on_c, 6, 69, 100
8, 99964, Note_on_c, 6, 69, 0
8, 99965, Note_on_c, 6, 74, 100
8, 99994, Note_on_c, 6, 74, 0
8, 99995, Note_on_c, 6, 70, 100
8, 100024, Note_on_c, 6, 70, 0
8, 100025, Note_on_c, 6, 66, 100
8, 100054, Note_on_c, 6, 66, 0
8, 100055, Note_on_c, 6, 67, 100
8, 100084, Note_on_c, 6, 67, 0
8, 100085, Note_on_c, 6, 73, 100
8, 100114, Note_on_c, 6, 73, 0
8, 100115, Note_on_c, 6, 70, 100
8, 100144, Note_on_c, 6, 70, 0
8, 100145, Note_on_c, 6, 66, 100
8, 100174, Note_on_c, 6, 66, 0
8, 100175, Note_on_c, 6, 67, 100
8, 100204, Note_on_c, 6, 67, 0
8, 100205, Note_on_c, 6, 74, 100
8, 100234, Note_on_c, 6, 74, 0
8, 100235, Note_on_c, 6, 71, 100
8, 100264, Note_on_c, 6, 71, 0
8, 100265, Note_on_c, 6, 68, 100
8, 100294, Note_on_c, 6, 68, 0
8, 100295, Note_on_c, 6, 69, 100
8, 100324, Note_on_c, 6, 69, 0
8, 100325, Note_on_c, 6, 76, 100
8, 100354, Note_on_c, 6, 76, 0
8, 100355, Note_on_c, 6, 73, 100
8, 100384, Note_on_c, 6, 73, 0
8, 100385, Note_on_c, 6, 70, 100
8, 100414, Note_on_c, 6, 70, 0
8, 100415, Note_on_c, 6, 69, 100
8, 100444, Note_on_c, 6, 69, 0
8, 100445, Note_on_c, 6, 67, 100
8, 100474, Note_on_c, 6, 67, 0
8, 100475, Note_on_c, 6, 70, 100
8, 100504, Note_on_c, 6, 70, 0
8, 100505, Note_on_c, 6, 69, 100
8, 100534, Note_on_c, 6, 69, 0
8, 100535, Note_on_c, 6, 67, 100
8, 100564, Note_on_c, 6, 67, 0
8, 100565, Note_on_c, 6, 65, 100
8, 100594, Note_on_c, 6, 65, 0
8, 100595, Note_on_c, 6, 69, 100
8, 100624, Note_on_c, 6, 69, 0
8, 100625, Note_on_c, 6, 74, 100
8, 100654, Note_on_c, 6, 74, 0
8, 100655, Note_on_c, 6, 77, 100
8, 100684, Note_on_c, 6, 77, 0
8, 100685, Note_on_c, 6, 76, 100
8, 100714, Note_on_c, 6, 76, 0
8, 100715, Note_on_c, 6, 74, 100
8, 100744, Note_on_c, 6, 74, 0
8, 100745, Note_on_c, 6, 80, 100
8, 100774, Note_on_c, 6, 80, 0
8, 100775, Note_on_c, 6, 81, 100
8, 100804, Note_on_c, 6, 81, 0
8, 100805, Note_on_c, 6, 73, 100
8, 100834, Note_on_c, 6, 73, 0
8, 100835, Note_on_c, 6, 76, 100
8, 100864, Note_on_c, 6, 76, 0
8, 100865, Note_on_c, 6, 79, 100
8, 100894, Note_on_c, 6, 79, 0
8, 100895, Note_on_c, 6, 82, 100
8, 100924, Note_on_c, 6, 82, 0
8, 100925, Note_on_c, 6, 81, 100
8, 100954, Note_on_c, 6, 81, 0
8, 100955, Note_on_c, 6, 79, 100
8, 100984, Note_on_c, 6, 79, 0
8, 100985, Note_on_c, 6, 85, 100
8, 101014, Note_on_c, 6, 85, 0
8, 101015, Note_on_c, 6, 86, 100
8, 101040, Note_on_c, 6, 77, 100
8, 101044, Note_on_c, 6, 86, 0
8, 101099, Note_on_c, 6, 77, 0
8, 101160, Note_on_c, 6, 76, 100
8, 101219, Note_on_c, 6, 76, 0
8, 101280, Note_on_c, 6, 69, 100
8, 101339, Note_on_c, 6, 69, 0
8, 101340, Note_on_c, 6, 74, 100
8, 101459, Note_on_c, 6, 74, 0
8, 101460, Note_on_c, 6, 73, 100
8, 101519, Note_on_c, 6, 73, 0
8, 101520, Note_on_c, 6, 74, 100
8, 101579, Note_on_c, 6, 74, 0
8, 101640, Note_on_c, 6, 76, 100
8, 101699, Note_on_c, 6, 76, 0
8, 101760, Note_on_c, 6, 77, 100
8, 101819, Note_on_c, 6, 77, 0
8, 101820, Note_on_c, 6, 76, 100
8, 101849, Note_on_c, 6, 76, 0
8, 101850, Note_on_c, 6, 74, 100
8, 101879, Note_on_c, 6, 74, 0
8, 101880, Note_on_c, 6, 73, 100
8, 101909, Note_on_c, 6, 73, 0
8, 101910, Note_on_c, 6, 76, 100
8, 101939, Note_on_c, 6, 76, 0
8, 101940, Note_on_c, 6, 74, 100
8, 101969, Note_on_c, 6, 74, 0
8, 101970, Note_on_c, 6, 73, 100
8, 101999, Note_on_c, 6, 73, 0
8, 102000, Note_on_c, 6, 74, 100
8, 102059, Note_on_c, 6, 74, 0
8, 102060, Note_on_c, 6, 81, 100
8, 102179, Note_on_c, 6, 81, 0
8, 102180, Note_on_c, 6, 79, 100
8, 102239, Note_on_c, 6, 79, 0
8, 102240, Note_on_c, 6, 77, 100
8, 102299, Note_on_c, 6, 77, 0
8, 102360, Note_on_c, 6, 76, 100
8, 102419, Note_on_c, 6, 76, 0
8, 102480, Note_on_c, 6, 74, 100
8, 102539, Note_on_c, 6, 74, 0
8, 102540, Note_on_c, 6, 82, 100
8, 102659, Note_on_c, 6, 82, 0
8, 102660, Note_on_c, 6, 81, 100
8, 102719, Note_on_c, 6, 81, 0
8, 102720, Note_on_c, 6, 79, 100
8, 102749, Note_on_c, 6, 79, 0
8, 102750, Note_on_c, 6, 77, 100
8, 102779, Note_on_c, 6, 77, 0
8, 102780, Note_on_c, 6, 76, 100
8, 102809, Note_on_c, 6, 76, 0
8, 102810, Note_on_c, 6, 74, 100
8, 102839, Note_on_c, 6, 74, 0
8, 102840, Note_on_c, 6, 72, 100
8, 102869, Note_on_c, 6, 72, 0
8, 102870, Note_on_c, 6, 74, 100
8, 102899, Note_on_c, 6, 74, 0
8, 102900, Note_on_c, 6, 70, 100
8, 102929, Note_on_c, 6, 70, 0
8, 102930, Note_on_c, 6, 72, 100
8, 102959, Note_on_c, 6, 72, 0
8, 102960, Note_on_c, 6, 69, 100
8, 102989, Note_on_c, 6, 69, 0
8, 102990, Note_on_c, 6, 72, 100
8, 103019, Note_on_c, 6, 72, 0
8, 103020, Note_on_c, 6, 77, 100
8, 103139, Note_on_c, 6, 77, 0
8, 103140, Note_on_c, 6, 76, 100
8, 103199, Note_on_c, 6, 76, 0
8, 103200, Note_on_c, 6, 77, 100
8, 103259, Note_on_c, 6, 77, 0
8, 103260, Note_on_c, 6, 79, 100
8, 103379, Note_on_c, 6, 79, 0
8, 103380, Note_on_c, 6, 81, 100
8, 103499, Note_on_c, 6, 81, 0
8, 103500, Note_on_c, 6, 79, 100
8, 103529, Note_on_c, 6, 79, 0
8, 103530, Note_on_c, 6, 77, 100
8, 103559, Note_on_c, 6, 77, 0
8, 103560, Note_on_c, 6, 81, 100
8, 103589, Note_on_c, 6, 81, 0
8, 103590, Note_on_c, 6, 79, 100
8, 103619, Note_on_c, 6, 79, 0
8, 103620, Note_on_c, 6, 77, 100
8, 103649, Note_on_c, 6, 77, 0
8, 103650, Note_on_c, 6, 76, 100
8, 103679, Note_on_c, 6, 76, 0
8, 103680, Note_on_c, 6, 77, 100
8, 103739, Note_on_c, 6, 77, 0
8, 103920, Note_on_c, 6, 64, 100
8, 103920, Note_on_c, 6, 67, 100
8, 103979, Note_on_c, 6, 67, 0
8, 103979, Note_on_c, 6, 64, 0
8, 103980, Note_on_c, 6, 72, 100
8, 104040, Note_on_c, 6, 65, 100
8, 104099, Note_on_c, 6, 65, 0
8, 104100, Note_on_c, 6, 72, 0
8, 104100, Note_on_c, 6, 71, 100
8, 104159, Note_on_c, 6, 71, 0
8, 104160, Note_on_c, 6, 67, 100
8, 104160, Note_on_c, 6, 72, 100
8, 104219, Note_on_c, 6, 72, 0
8, 104219, Note_on_c, 6, 67, 0
8, 104220, Note_on_c, 6, 74, 100
8, 104280, Note_on_c, 6, 69, 100
8, 104339, Note_on_c, 6, 69, 0
8, 104340, Note_on_c, 6, 74, 0
8, 104340, Note_on_c, 6, 76, 100
8, 104400, Note_on_c, 6, 67, 100
8, 104459, Note_on_c, 6, 67, 0
8, 104460, Note_on_c, 6, 76, 0
8, 104460, Note_on_c, 6, 74, 100
8, 104460, Note_on_c, 6, 64, 100
8, 104490, Note_on_c, 6, 74, 0
8, 104490, Note_on_c, 6, 72, 100
8, 104519, Note_on_c, 6, 64, 0
8, 104520, Note_on_c, 6, 72, 0
8, 104520, Note_on_c, 6, 76, 100
8, 104520, Note_on_c, 6, 57, 100
8, 104550, Note_on_c, 6, 76, 0
8, 104550, Note_on_c, 6, 74, 100
8, 104579, Note_on_c, 6, 57, 0
8, 104580, Note_on_c, 6, 74, 0
8, 104580, Note_on_c, 6, 72, 100
8, 104580, Note_on_c, 6, 62, 100
8, 104610, Note_on_c, 6, 72, 0
8, 104610, Note_on_c, 6, 71, 100
8, 104639, Note_on_c, 6, 62, 0
8, 104640, Note_on_c, 6, 71, 0
8, 104640, Note_on_c, 6, 64, 100
8, 104640, Note_on_c, 6, 72, 100
8, 104699, Note_on_c, 6, 72, 0
8, 104699, Note_on_c, 6, 64, 0
8, 104880, Note_on_c, 6, 74, 100
8, 104880, Note_on_c, 6, 69, 100
8, 104939, Note_on_c, 6, 69, 0
8, 104939, Note_on_c, 6, 74, 0
8, 104940, Note_on_c, 6, 69, 100
8, 104940, Note_on_c, 6, 74, 100
8, 104999, Note_on_c, 6, 74, 0
8, 104999, Note_on_c, 6, 69, 0
8, 105000, Note_on_c, 6, 69, 100
8, 105000, Note_on_c, 6, 74, 100
8, 105059, Note_on_c, 6, 74, 0
8, 105059, Note_on_c, 6, 69, 0
8, 105060, Note_on_c, 6, 69, 100
8, 105060, Note_on_c, 6, 74, 100
8, 105119, Note_on_c, 6, 74, 0
8, 105119, Note_on_c, 6, 69, 0
8, 105120, Note_on_c, 6, 70, 100
8, 105120, Note_on_c, 6, 74, 100
8, 105120, Note_on_c, 6, 55, 100
8, 105134, Note_on_c, 6, 55, 0
8, 105135, Note_on_c, 6, 66, 100
8, 105149, Note_on_c, 6, 66, 0
8, 105149, Note_on_c, 6, 74, 0
8, 105149, Note_on_c, 6, 70, 0
8, 105150, Note_on_c, 6, 67, 100
8, 105164, Note_on_c, 6, 67, 0
8, 105165, Note_on_c, 6, 69, 100
8, 105179, Note_on_c, 6, 69, 0
8, 105180, Note_on_c, 6, 70, 100
8, 105194, Note_on_c, 6, 70, 0
8, 105195, Note_on_c, 6, 72, 100
8, 105209, Note_on_c, 6, 72, 0
8, 105210, Note_on_c, 6, 74, 100
8, 105224, Note_on_c, 6, 74, 0
8, 105225, Note_on_c, 6, 75, 100
8, 105239, Note_on_c, 6, 75, 0
8, 105240, Note_on_c, 6, 74, 100
8, 105254, Note_on_c, 6, 74, 0
8, 105255, Note_on_c, 6, 72, 100
8, 105269, Note_on_c, 6, 72, 0
8, 105270, Note_on_c, 6, 70, 100
8, 105284, Note_on_c, 6, 70, 0
8, 105285, Note_on_c, 6, 69, 100
8, 105299, Note_on_c, 6, 69, 0
8, 105300, Note_on_c, 6, 67, 100
8, 105314, Note_on_c, 6, 67, 0
8, 105315, Note_on_c, 6, 65, 100
8, 105329, Note_on_c, 6, 65, 0
8, 105330, Note_on_c, 6, 64, 100
8, 105344, Note_on_c, 6, 64, 0
8, 105345, Note_on_c, 6, 62, 100
8, 105359, Note_on_c, 6, 62, 0
8, 105360, Note_on_c, 6, 82, 100
8, 105389, Note_on_c, 6, 82, 0
8, 105390, Note_on_c, 6, 76, 100
8, 105419, Note_on_c, 6, 76, 0
8, 105420, Note_on_c, 6, 74, 100
8, 105449, Note_on_c, 6, 74, 0
8, 105450, Note_on_c, 6, 72, 100
8, 105479, Note_on_c, 6, 72, 0
8, 105480, Note_on_c, 6, 82, 100
8, 105509, Note_on_c, 6, 82, 0
8, 105510, Note_on_c, 6, 76, 100
8, 105539, Note_on_c, 6, 76, 0
8, 105540, Note_on_c, 6, 74, 100
8, 105569, Note_on_c, 6, 74, 0
8, 105570, Note_on_c, 6, 72, 100
8, 105599, Note_on_c, 6, 72, 0
8, 105600, Note_on_c, 6, 65, 100
8, 105600, Note_on_c, 6, 81, 100
8, 105659, Note_on_c, 6, 81, 0
8, 105659, Note_on_c, 6, 65, 0
8, 105840, Note_on_c, 6, 65, 100
8, 105840, Note_on_c, 6, 72, 100
8, 105899, Note_on_c, 6, 72, 0
8, 105899, Note_on_c, 6, 65, 0
8, 105900, Note_on_c, 6, 72, 100
8, 105900, Note_on_c, 6, 65, 100
8, 105959, Note_on_c, 6, 65, 0
8, 105959, Note_on_c, 6, 72, 0
8, 105960, Note_on_c, 6, 67, 100
8, 105960, Note_on_c, 6, 72, 100
8, 106019, Note_on_c, 6, 72, 0
8, 106019, Note_on_c, 6, 67, 0
8, 106020, Note_on_c, 6, 72, 100
8, 106020, Note_on_c, 6, 67, 100
8, 106079, Note_on_c, 6, 67, 0
8, 106079, Note_on_c, 6, 72, 0
8, 106080, Note_on_c, 6, 74, 100
8, 106109, Note_on_c, 6, 74, 0
8, 106110, Note_on_c, 6, 69, 100
8, 106139, Note_on_c, 6, 69, 0
8, 106140, Note_on_c, 6, 67, 100
8, 106169, Note_on_c, 6, 67, 0
8, 106170, Note_on_c, 6, 66, 100
8, 106199, Note_on_c, 6, 66, 0
8, 106200, Note_on_c, 6, 75, 100
8, 106229, Note_on_c, 6, 75, 0
8, 106230, Note_on_c, 6, 69, 100
8, 106259, Note_on_c, 6, 69, 0
8, 106260, Note_on_c, 6, 67, 100
8, 106289, Note_on_c, 6, 67, 0
8, 106290, Note_on_c, 6, 66, 100
8, 106319, Note_on_c, 6, 66, 0
8, 106320, Note_on_c, 6, 74, 100
8, 106349, Note_on_c, 6, 74, 0
8, 106350, Note_on_c, 6, 68, 100
8, 106379, Note_on_c, 6, 68, 0
8, 106380, Note_on_c, 6, 67, 100
8, 106409, Note_on_c, 6, 67, 0
8, 106410, Note_on_c, 6, 65, 100
8, 106439, Note_on_c, 6, 65, 0
8, 106440, Note_on_c, 6, 74, 100
8, 106469, Note_on_c, 6, 74, 0
8, 106470, Note_on_c, 6, 68, 100
8, 106499, Note_on_c, 6, 68, 0
8, 106500, Note_on_c, 6, 67, 100
8, 106529, Note_on_c, 6, 67, 0
8, 106530, Note_on_c, 6, 65, 100
8, 106559, Note_on_c, 6, 65, 0
8, 106560, Note_on_c, 6, 64, 100
8, 106560, Note_on_c, 6, 72, 100
8, 106560, Note_on_c, 6, 67, 100
8, 106619, Note_on_c, 6, 67, 0
8, 106619, Note_on_c, 6, 72, 0
8, 106619, Note_on_c, 6, 64, 0
8, 106800, Note_on_c, 6, 72, 100
8, 106829, Note_on_c, 6, 72, 0
8, 106830, Note_on_c, 6, 69, 100
8, 106859, Note_on_c, 6, 69, 0
8, 106860, Note_on_c, 6, 67, 100
8, 106889, Note_on_c, 6, 67, 0
8, 106890, Note_on_c, 6, 65, 100
8, 106919, Note_on_c, 6, 65, 0
8, 106920, Note_on_c, 6, 72, 100
8, 106949, Note_on_c, 6, 72, 0
8, 106950, Note_on_c, 6, 67, 100
8, 106979, Note_on_c, 6, 67, 0
8, 106980, Note_on_c, 6, 66, 100
8, 107009, Note_on_c, 6, 66, 0
8, 107010, Note_on_c, 6, 64, 100
8, 107039, Note_on_c, 6, 64, 0
8, 107040, Note_on_c, 6, 63, 100
8, 107040, Note_on_c, 6, 66, 100
8, 107040, Note_on_c, 6, 71, 100
8, 107099, Note_on_c, 6, 71, 0
8, 107099, Note_on_c, 6, 66, 0
8, 107099, Note_on_c, 6, 63, 0
8, 107220, Note_on_c, 6, 64, 100
8, 107220, Note_on_c, 6, 71, 100
8, 107279, Note_on_c, 6, 71, 0
8, 107279, Note_on_c, 6, 64, 0
8, 107280, Note_on_c, 6, 73, 100
8, 107280, Note_on_c, 6, 64, 100
8, 107280, Note_on_c, 6, 76, 100
8, 107280, Note_on_c, 6, 69, 100
8, 107339, Note_on_c, 6, 69, 0
8, 107339, Note_on_c, 6, 73, 0
8, 107339, Note_on_c, 6, 64, 0
8, 107339, Note_on_c, 6, 76, 0
8, 107460, Note_on_c, 6, 69, 100
8, 107460, Note_on_c, 6, 62, 100
8, 107519, Note_on_c, 6, 62, 0
8, 107519, Note_on_c, 6, 69, 0
8, 107520, Note_on_c, 6, 74, 100
8, 107520, Note_on_c, 6, 71, 100
8, 107520, Note_on_c, 6, 67, 100
8, 107520, Note_on_c, 6, 62, 100
8, 107579, Note_on_c, 6, 62, 0
8, 107579, Note_on_c, 6, 74, 0
8, 107579, Note_on_c, 6, 71, 0
8, 107579, Note_on_c, 6, 67, 0
8, 107700, Note_on_c, 6, 60, 100
8, 107700, Note_on_c, 6, 67, 100
8, 107759, Note_on_c, 6, 67, 0
8, 107759, Note_on_c, 6, 60, 0
8, 107760, Note_on_c, 6, 69, 100
8, 107760, Note_on_c, 6, 72, 100
8, 107760, Note_on_c, 6, 66, 100
8, 107760, Note_on_c, 6, 60, 100
8, 107819, Note_on_c, 6, 60, 0
8, 107819, Note_on_c, 6, 69, 0
8, 107819, Note_on_c, 6, 72, 0
8, 107819, Note_on_c, 6, 66, 0
8, 107940, Note_on_c, 6, 65, 100
8, 107940, Note_on_c, 6, 74, 100
8, 107999, Note_on_c, 6, 74, 0
8, 107999, Note_on_c, 6, 65, 0
8, 108000, Note_on_c, 6, 64, 100
8, 108000, Note_on_c, 6, 71, 100
8, 108059, Note_on_c, 6, 71, 0
8, 108059, Note_on_c, 6, 64, 0
8, 108240, Note_on_c, 6, 69, 100
8, 108240, Note_on_c, 6, 76, 100
8, 108299, Note_on_c, 6, 76, 0
8, 108299, Note_on_c, 6, 69, 0
8, 108300, Note_on_c, 6, 81, 100
8, 108360, Note_on_c, 6, 74, 100
8, 108419, Note_on_c, 6, 74, 0
8, 108419, Note_on_c, 6, 81, 0
8, 108420, Note_on_c, 6, 80, 100
8, 108479, Note_on_c, 6, 80, 0
8, 108480, Note_on_c, 6, 76, 100
8, 108480, Note_on_c, 6, 81, 100
8, 108539, Note_on_c, 6, 81, 0
8, 108539, Note_on_c, 6, 76, 0
8, 108540, Note_on_c, 6, 83, 100
8, 108600, Note_on_c, 6, 77, 100
8, 108659, Note_on_c, 6, 77, 0
8, 108659, Note_on_c, 6, 83, 0
8, 108660, Note_on_c, 6, 84, 100
8, 108720, Note_on_c, 6, 76, 100
8, 108779, Note_on_c, 6, 76, 0
8, 108779, Note_on_c, 6, 84, 0
8, 108780, Note_on_c, 6, 83, 100
8, 108809, Note_on_c, 6, 83, 0
8, 108810, Note_on_c, 6, 81, 100
8, 108839, Note_on_c, 6, 81, 0
8, 108840, Note_on_c, 6, 84, 100
8, 108869, Note_on_c, 6, 84, 0
8, 108870, Note_on_c, 6, 83, 100
8, 108899, Note_on_c, 6, 83, 0
8, 108900, Note_on_c, 6, 81, 100
8, 108929, Note_on_c, 6, 81, 0
8, 108930, Note_on_c, 6, 80, 100
8, 108959, Note_on_c, 6, 80, 0
8, 108960, Note_on_c, 6, 81, 100
8, 108979, Note_on_c, 6, 81, 0
8, 108980, Note_on_c, 6, 82, 100
8, 108999, Note_on_c, 6, 82, 0
8, 109000, Note_on_c, 6, 81, 100
8, 109019, Note_on_c, 6, 81, 0
8, 109020, Note_on_c, 6, 82, 100
8, 109034, Note_on_c, 6, 82, 0
8, 109035, Note_on_c, 6, 81, 100
8, 109049, Note_on_c, 6, 81, 0
8, 109050, Note_on_c, 6, 82, 100
8, 109064, Note_on_c, 6, 82, 0
8, 109065, Note_on_c, 6, 81, 100
8, 109079, Note_on_c, 6, 81, 0
8, 109080, Note_on_c, 6, 82, 100
8, 109094, Note_on_c, 6, 82, 0
8, 109095, Note_on_c, 6, 81, 100
8, 109109, Note_on_c, 6, 81, 0
8, 109110, Note_on_c, 6, 82, 100
8, 109124, Note_on_c, 6, 82, 0
8, 109125, Note_on_c, 6, 81, 100
8, 109139, Note_on_c, 6, 81, 0
8, 109141, Note_on_c, 6, 82, 100
8, 109155, Note_on_c, 6, 82, 0
8, 109156, Note_on_c, 6, 81, 100
8, 109170, Note_on_c, 6, 81, 0
8, 109171, Note_on_c, 6, 82, 100
8, 109185, Note_on_c, 6, 82, 0
8, 109186, Note_on_c, 6, 81, 100
8, 109200, Note_on_c, 6, 81, 0
8, 109202, Note_on_c, 6, 82, 100
8, 109216, Note_on_c, 6, 82, 0
8, 109217, Note_on_c, 6, 81, 100
8, 109231, Note_on_c, 6, 81, 0
8, 109232, Note_on_c, 6, 82, 100
8, 109246, Note_on_c, 6, 82, 0
8, 109247, Note_on_c, 6, 81, 100
8, 109261, Note_on_c, 6, 81, 0
8, 109263, Note_on_c, 6, 82, 100
8, 109277, Note_on_c, 6, 82, 0
8, 109278, Note_on_c, 6, 81, 100
8, 109292, Note_on_c, 6, 81, 0
8, 109293, Note_on_c, 6, 82, 100
8, 109307, Note_on_c, 6, 82, 0
8, 109308, Note_on_c, 6, 81, 100
8, 109322, Note_on_c, 6, 81, 0
8, 109324, Note_on_c, 6, 82, 100
8, 109338, Note_on_c, 6, 82, 0
8, 109339, Note_on_c, 6, 81, 100
8, 109353, Note_on_c, 6, 81, 0
8, 109354, Note_on_c, 6, 82, 100
8, 109368, Note_on_c, 6, 82, 0
8, 109369, Note_on_c, 6, 81, 100
8, 109383, Note_on_c, 6, 81, 0
8, 109385, Note_on_c, 6, 82, 100
8, 109399, Note_on_c, 6, 82, 0
8, 109400, Note_on_c, 6, 81, 100
8, 109414, Note_on_c, 6, 81, 0
8, 109415, Note_on_c, 6, 82, 100
8, 109429, Note_on_c, 6, 82, 0
8, 109430, Note_on_c, 6, 81, 100
8, 109440, Note_on_c, 6, 82, 100
8, 109444, Note_on_c, 6, 81, 0
8, 109454, Note_on_c, 6, 82, 0
8, 109455, Note_on_c, 6, 81, 100
8, 109469, Note_on_c, 6, 81, 0
8, 109470, Note_on_c, 6, 82, 100
8, 109484, Note_on_c, 6, 82, 0
8, 109485, Note_on_c, 6, 81, 100
8, 109499, Note_on_c, 6, 81, 0
8, 109501, Note_on_c, 6, 82, 100
8, 109515, Note_on_c, 6, 82, 0
8, 109516, Note_on_c, 6, 81, 100
8, 109530, Note_on_c, 6, 81, 0
8, 109531, Note_on_c, 6, 82, 100
8, 109545, Note_on_c, 6, 82, 0
8, 109546, Note_on_c, 6, 81, 100
8, 109560, Note_on_c, 6, 81, 0
8, 109562, Note_on_c, 6, 82, 100
8, 109576, Note_on_c, 6, 82, 0
8, 109577, Note_on_c, 6, 81, 100
8, 109591, Note_on_c, 6, 81, 0
8, 109592, Note_on_c, 6, 82, 100
8, 109606, Note_on_c, 6, 82, 0
8, 109607, Note_on_c, 6, 81, 100
8, 109621, Note_on_c, 6, 81, 0
8, 109623, Note_on_c, 6, 82, 100
8, 109637, Note_on_c, 6, 82, 0
8, 109638, Note_on_c, 6, 81, 100
8, 109652, Note_on_c, 6, 81, 0
8, 109653, Note_on_c, 6, 82, 100
8, 109667, Note_on_c, 6, 82, 0
8, 109668, Note_on_c, 6, 81, 100
8, 109682, Note_on_c, 6, 81, 0
8, 109684, Note_on_c, 6, 82, 100
8, 109698, Note_on_c, 6, 82, 0
8, 109699, Note_on_c, 6, 81, 100
8, 109713, Note_on_c, 6, 81, 0
8, 109714, Note_on_c, 6, 82, 100
8, 109728, Note_on_c, 6, 82, 0
8, 109729, Note_on_c, 6, 81, 100
8, 109743, Note_on_c, 6, 81, 0
8, 109745, Note_on_c, 6, 82, 100
8, 109759, Note_on_c, 6, 82, 0
8, 109760, Note_on_c, 6, 81, 100
8, 109774, Note_on_c, 6, 81, 0
8, 109775, Note_on_c, 6, 82, 100
8, 109789, Note_on_c, 6, 82, 0
8, 109790, Note_on_c, 6, 81, 100
8, 109800, Note_on_c, 6, 82, 100
8, 109804, Note_on_c, 6, 81, 0
8, 109814, Note_on_c, 6, 82, 0
8, 109815, Note_on_c, 6, 81, 100
8, 109829, Note_on_c, 6, 81, 0
8, 109830, Note_on_c, 6, 82, 100
8, 109844, Note_on_c, 6, 82, 0
8, 109845, Note_on_c, 6, 81, 100
8, 109859, Note_on_c, 6, 81, 0
8, 109860, Note_on_c, 6, 82, 100
8, 109880, Note_on_c, 6, 82, 0
8, 109880, Note_on_c, 6, 81, 100
8, 109900, Note_on_c, 6, 81, 0
8, 109900, Note_on_c, 6, 82, 100
8, 109920, Note_on_c, 6, 82, 0
8, 109920, Note_on_c, 6, 81, 100
8, 109979, Note_on_c, 6, 81, 0
8, 109980, Note_on_c, 6, 83, 100
8, 110039, Note_on_c, 6, 83, 0
8, 110040, Note_on_c, 6, 76, 100
8, 110099, Note_on_c, 6, 76, 0
8, 110100, Note_on_c, 6, 80, 100
8, 110159, Note_on_c, 6, 80, 0
8, 110160, Note_on_c, 6, 81, 100
8, 110219, Note_on_c, 6, 81, 0
8, 116880, Note_on_c, 6, 57, 100
8, 116939, Note_on_c, 6, 57, 0
8, 116940, Note_on_c, 6, 62, 100
8, 117059, Note_on_c, 6, 62, 0
8, 117060, Note_on_c, 6, 61, 100
8, 117119, Note_on_c, 6, 61, 0
8, 117120, Note_on_c, 6, 62, 100
8, 117179, Note_on_c, 6, 62, 0
8, 117240, Note_on_c, 6, 64, 100
8, 117299, Note_on_c, 6, 64, 0
8, 117360, Note_on_c, 6, 65, 100
8, 117419, Note_on_c, 6, 65, 0
8, 117420, Note_on_c, 6, 64, 100
8, 117449, Note_on_c, 6, 64, 0
8, 117450, Note_on_c, 6, 62, 100
8, 117479, Note_on_c, 6, 62, 0
8, 117480, Note_on_c, 6, 61, 100
8, 117509, Note_on_c, 6, 61, 0
8, 117510, Note_on_c, 6, 64, 100
8, 117539, Note_on_c, 6, 64, 0
8, 117540, Note_on_c, 6, 62, 100
8, 117569, Note_on_c, 6, 62, 0
8, 117570, Note_on_c, 6, 61, 100
8, 117599, Note_on_c, 6, 61, 0
8, 117600, Note_on_c, 6, 62, 100
8, 117659, Note_on_c, 6, 62, 0
8, 117660, Note_on_c, 6, 69, 100
8, 117779, Note_on_c, 6, 69, 0
8, 117780, Note_on_c, 6, 67, 100
8, 117839, Note_on_c, 6, 67, 0
8, 117840, Note_on_c, 6, 65, 100
8, 117899, Note_on_c, 6, 65, 0
8, 117960, Note_on_c, 6, 64, 100
8, 118019, Note_on_c, 6, 64, 0
8, 118080, Note_on_c, 6, 62, 100
8, 118139, Note_on_c, 6, 62, 0
8, 118140, Note_on_c, 6, 74, 100
8, 118259, Note_on_c, 6, 74, 0
8, 118260, Note_on_c, 6, 72, 100
8, 118319, Note_on_c, 6, 72, 0
8, 118320, Note_on_c, 6, 70, 100
8, 118379, Note_on_c, 6, 70, 0
8, 118440, Note_on_c, 6, 69, 100
8, 118499, Note_on_c, 6, 69, 0
8, 118560, Note_on_c, 6, 70, 100
8, 118589, Note_on_c, 6, 70, 0
8, 118590, Note_on_c, 6, 74, 100
8, 118619, Note_on_c, 6, 74, 0
8, 118620, Note_on_c, 6, 79, 100
8, 118739, Note_on_c, 6, 79, 0
8, 118740, Note_on_c, 6, 78, 100
8, 118799, Note_on_c, 6, 78, 0
8, 118800, Note_on_c, 6, 79, 100
8, 118859, Note_on_c, 6, 79, 0
8, 118860, Note_on_c, 6, 81, 100
8, 118979, Note_on_c, 6, 81, 0
8, 118980, Note_on_c, 6, 82, 100
8, 119099, Note_on_c, 6, 82, 0
8, 119100, Note_on_c, 6, 81, 100
8, 119129, Note_on_c, 6, 81, 0
8, 119130, Note_on_c, 6, 79, 100
8, 119159, Note_on_c, 6, 79, 0
8, 119160, Note_on_c, 6, 82, 100
8, 119189, Note_on_c, 6, 82, 0
8, 119190, Note_on_c, 6, 81, 100
8, 119219, Note_on_c, 6, 81, 0
8, 119220, Note_on_c, 6, 79, 100
8, 119249, Note_on_c, 6, 79, 0
8, 119250, Note_on_c, 6, 78, 100
8, 119279, Note_on_c, 6, 78, 0
8, 119280, Note_on_c, 6, 79, 100
8, 119339, Note_on_c, 6, 79, 0
8, 119520, Note_on_c, 6, 72, 100
8, 119579, Note_on_c, 6, 72, 0
8, 119580, Note_on_c, 6, 77, 100
8, 119699, Note_on_c, 6, 77, 0
8, 119700, Note_on_c, 6, 76, 100
8, 119759, Note_on_c, 6, 76, 0
8, 119760, Note_on_c, 6, 77, 100
8, 119819, Note_on_c, 6, 77, 0
8, 119820, Note_on_c, 6, 79, 100
8, 119939, Note_on_c, 6, 79, 0
8, 119940, Note_on_c, 6, 81, 100
8, 120059, Note_on_c, 6, 81, 0
8, 120060, Note_on_c, 6, 79, 100
8, 120089, Note_on_c, 6, 79, 0
8, 120090, Note_on_c, 6, 77, 100
8, 120119, Note_on_c, 6, 77, 0
8, 120120, Note_on_c, 6, 81, 100
8, 120149, Note_on_c, 6, 81, 0
8, 120150, Note_on_c, 6, 79, 100
8, 120179, Note_on_c, 6, 79, 0
8, 120180, Note_on_c, 6, 77, 100
8, 120209, Note_on_c, 6, 77, 0
8, 120210, Note_on_c, 6, 76, 100
8, 120239, Note_on_c, 6, 76, 0
8, 120240, Note_on_c, 6, 77, 100
8, 120240, Note_on_c, 6, 53, 100
8, 120254, Note_on_c, 6, 53, 0
8, 120255, Note_on_c, 6, 60, 100
8, 120269, Note_on_c, 6, 60, 0
8, 120270, Note_on_c, 6, 62, 100
8, 120284, Note_on_c, 6, 62, 0
8, 120285, Note_on_c, 6, 64, 100
8, 120299, Note_on_c, 6, 64, 0
8, 120299, Note_on_c, 6, 77, 0
8, 120300, Note_on_c, 6, 65, 100
8, 120314, Note_on_c, 6, 65, 0
8, 120315, Note_on_c, 6, 67, 100
8, 120329, Note_on_c, 6, 67, 0
8, 120330, Note_on_c, 6, 69, 100
8, 120344, Note_on_c, 6, 69, 0
8, 120345, Note_on_c, 6, 70, 100
8, 120359, Note_on_c, 6, 70, 0
8, 120360, Note_on_c, 6, 69, 100
8, 120374, Note_on_c, 6, 69, 0
8, 120375, Note_on_c, 6, 65, 100
8, 120389, Note_on_c, 6, 65, 0
8, 120390, Note_on_c, 6, 67, 100
8, 120404, Note_on_c, 6, 67, 0
8, 120405, Note_on_c, 6, 69, 100
8, 120419, Note_on_c, 6, 69, 0
8, 120420, Note_on_c, 6, 70, 100
8, 120434, Note_on_c, 6, 70, 0
8, 120435, Note_on_c, 6, 72, 100
8, 120449, Note_on_c, 6, 72, 0
8, 120450, Note_on_c, 6, 74, 100
8, 120464, Note_on_c, 6, 74, 0
8, 120465, Note_on_c, 6, 76, 100
8, 120479, Note_on_c, 6, 76, 0
8, 120480, Note_on_c, 6, 77, 100
8, 120509, Note_on_c, 6, 77, 0
8, 120510, Note_on_c, 6, 71, 100
8, 120539, Note_on_c, 6, 71, 0
8, 120540, Note_on_c, 6, 69, 100
8, 120569, Note_on_c, 6, 69, 0
8, 120570, Note_on_c, 6, 67, 100
8, 120599, Note_on_c, 6, 67, 0
8, 120600, Note_on_c, 6, 77, 100
8, 120629, Note_on_c, 6, 77, 0
8, 120630, Note_on_c, 6, 71, 100
8, 120659, Note_on_c, 6, 71, 0
8, 120660, Note_on_c, 6, 69, 100
8, 120689, Note_on_c, 6, 69, 0
8, 120690, Note_on_c, 6, 67, 100
8, 120719, Note_on_c, 6, 67, 0
8, 120720, Note_on_c, 6, 76, 100
8, 120779, Note_on_c, 6, 76, 0
8, 120960, Note_on_c, 6, 65, 100
8, 120960, Note_on_c, 6, 72, 100
8, 121019, Note_on_c, 6, 72, 0
8, 121019, Note_on_c, 6, 65, 0
8, 121020, Note_on_c, 6, 72, 100
8, 121020, Note_on_c, 6, 65, 100
8, 121079, Note_on_c, 6, 65, 0
8, 121079, Note_on_c, 6, 72, 0
8, 121080, Note_on_c, 6, 65, 100
8, 121080, Note_on_c, 6, 72, 100
8, 121139, Note_on_c, 6, 72, 0
8, 121139, Note_on_c, 6, 65, 0
8, 121140, Note_on_c, 6, 65, 100
8, 121140, Note_on_c, 6, 72, 100
8, 121199, Note_on_c, 6, 72, 0
8, 121199, Note_on_c, 6, 65, 0
8, 121200, Note_on_c, 6, 74, 100
8, 121200, Note_on_c, 6, 70, 100
8, 121259, Note_on_c, 6, 70, 0
8, 121259, Note_on_c, 6, 74, 0
8, 121440, Note_on_c, 6, 65, 100
8, 121469, Note_on_c, 6, 65, 0
8, 121470, Note_on_c, 6, 62, 100
8, 121499, Note_on_c, 6, 62, 0
8, 121500, Note_on_c, 6, 60, 100
8, 121529, Note_on_c, 6, 60, 0
8, 121530, Note_on_c, 6, 58, 100
8, 121559, Note_on_c, 6, 58, 0
8, 121560, Note_on_c, 6, 65, 100
8, 121589, Note_on_c, 6, 65, 0
8, 121590, Note_on_c, 6, 68, 100
8, 121619, Note_on_c, 6, 68, 0
8, 121620, Note_on_c, 6, 67, 100
8, 121649, Note_on_c, 6, 67, 0
8, 121650, Note_on_c, 6, 65, 100
8, 121679, Note_on_c, 6, 65, 0
8, 121680, Note_on_c, 6, 74, 100
8, 121680, Note_on_c, 6, 71, 100
8, 121680, Note_on_c, 6, 65, 100
8, 121739, Note_on_c, 6, 65, 0
8, 121739, Note_on_c, 6, 71, 0
8, 121739, Note_on_c, 6, 74, 0
8, 121920, Note_on_c, 6, 72, 100
8, 121949, Note_on_c, 6, 72, 0
8, 121950, Note_on_c, 6, 67, 100
8, 121979, Note_on_c, 6, 67, 0
8, 121980, Note_on_c, 6, 65, 100
8, 122009, Note_on_c, 6, 65, 0
8, 122010, Note_on_c, 6, 64, 100
8, 122039, Note_on_c, 6, 64, 0
8, 122040, Note_on_c, 6, 72, 100
8, 122069, Note_on_c, 6, 72, 0
8, 122070, Note_on_c, 6, 67, 100
8, 122099, Note_on_c, 6, 67, 0
8, 122100, Note_on_c, 6, 65, 100
8, 122129, Note_on_c, 6, 65, 0
8, 122130, Note_on_c, 6, 64, 100
8, 122159, Note_on_c, 6, 64, 0
8, 122160, Note_on_c, 6, 72, 100
8, 122160, Note_on_c, 6, 69, 100
8, 122219, Note_on_c, 6, 69, 0
8, 122219, Note_on_c, 6, 72, 0
8, 122400, Note_on_c, 6, 70, 100
8, 122429, Note_on_c, 6, 70, 0
8, 122430, Note_on_c, 6, 65, 100
8, 122459, Note_on_c, 6, 65, 0
8, 122460, Note_on_c, 6, 64, 100
8, 122489, Note_on_c, 6, 64, 0
8, 122490, Note_on_c, 6, 62, 100
8, 122519, Note_on_c, 6, 62, 0
8, 122520, Note_on_c, 6, 60, 100
8, 122549, Note_on_c, 6, 60, 0
8, 122550, Note_on_c, 6, 69, 100
8, 122579, Note_on_c, 6, 69, 0
8, 122580, Note_on_c, 6, 68, 100
8, 122609, Note_on_c, 6, 68, 0
8, 122610, Note_on_c, 6, 69, 100
8, 122639, Note_on_c, 6, 69, 0
8, 122640, Note_on_c, 6, 71, 100
8, 122699, Note_on_c, 6, 71, 0
8, 122700, Note_on_c, 6, 68, 100
8, 122700, Note_on_c, 6, 71, 100
8, 122759, Note_on_c, 6, 71, 0
8, 122759, Note_on_c, 6, 68, 0
8, 122760, Note_on_c, 6, 76, 100
8, 122760, Note_on_c, 6, 69, 100
8, 122819, Note_on_c, 6, 69, 0
8, 122819, Note_on_c, 6, 76, 0
8, 122940, Note_on_c, 6, 66, 100
8, 122940, Note_on_c, 6, 69, 100
8, 122999, Note_on_c, 6, 69, 0
8, 122999, Note_on_c, 6, 66, 0
8, 123000, Note_on_c, 6, 74, 100
8, 123000, Note_on_c, 6, 67, 100
8, 123059, Note_on_c, 6, 67, 0
8, 123059, Note_on_c, 6, 74, 0
8, 123180, Note_on_c, 6, 64, 100
8, 123180, Note_on_c, 6, 67, 100
8, 123239, Note_on_c, 6, 67, 0
8, 123239, Note_on_c, 6, 64, 0
8, 123240, Note_on_c, 6, 65, 100
8, 123240, Note_on_c, 6, 72, 100
8, 123299, Note_on_c, 6, 72, 0
8, 123299, Note_on_c, 6, 65, 0
8, 123420, Note_on_c, 6, 62, 100
8, 123420, Note_on_c, 6, 65, 100
8, 123479, Note_on_c, 6, 65, 0
8, 123479, Note_on_c, 6, 62, 0
8, 123480, Note_on_c, 6, 67, 100
8, 123480, Note_on_c, 6, 70, 100
8, 123539, Note_on_c, 6, 70, 0
8, 123539, Note_on_c, 6, 67, 0
8, 123600, Note_on_c, 6, 69, 100
8, 123600, Note_on_c, 6, 64, 100
8, 123600, Note_on_c, 6, 61, 100
8, 123719, Note_on_c, 6, 61, 0
8, 123719, Note_on_c, 6, 64, 0
8, 123719, Note_on_c, 6, 69, 0
8, 123840, Note_on_c, 6, 74, 100
8, 123899, Note_on_c, 6, 74, 0
8, 123960, Note_on_c, 6, 76, 100
8, 124019, Note_on_c, 6, 76, 0
8, 124080, Note_on_c, 6, 69, 100
8, 124109, Note_on_c, 6, 69, 0
8, 124110, Note_on_c, 6, 74, 100
8, 124139, Note_on_c, 6, 74, 0
8, 124140, Note_on_c, 6, 73, 100
8, 124169, Note_on_c, 6, 73, 0
8, 124170, Note_on_c, 6, 74, 100
8, 124199, Note_on_c, 6, 74, 0
8, 124200, Note_on_c, 6, 76, 100
8, 124229, Note_on_c, 6, 76, 0
8, 124230, Note_on_c, 6, 74, 100
8, 124259, Note_on_c, 6, 74, 0
8, 124260, Note_on_c, 6, 73, 100
8, 124289, Note_on_c, 6, 73, 0
8, 124290, Note_on_c, 6, 74, 100
8, 124319, Note_on_c, 6, 74, 0
8, 124320, Note_on_c, 6, 77, 100
8, 124349, Note_on_c, 6, 77, 0
8, 124350, Note_on_c, 6, 74, 100
8, 124379, Note_on_c, 6, 74, 0
8, 124380, Note_on_c, 6, 79, 100
8, 124409, Note_on_c, 6, 79, 0
8, 124410, Note_on_c, 6, 81, 100
8, 124439, Note_on_c, 6, 81, 0
8, 124440, Note_on_c, 6, 82, 100
8, 124469, Note_on_c, 6, 82, 0
8, 124470, Note_on_c, 6, 70, 100
8, 124499, Note_on_c, 6, 70, 0
8, 124500, Note_on_c, 6, 69, 100
8, 124529, Note_on_c, 6, 69, 0
8, 124530, Note_on_c, 6, 67, 100
8, 124559, Note_on_c, 6, 67, 0
8, 124560, Note_on_c, 6, 65, 100
8, 124619, Note_on_c, 6, 65, 0
8, 124860, Note_on_c, 6, 65, 100
8, 124860, Note_on_c, 6, 74, 100
8, 124919, Note_on_c, 6, 74, 0
8, 124919, Note_on_c, 6, 65, 0
8, 124920, Note_on_c, 6, 69, 100
8, 124920, Note_on_c, 6, 78, 100
8, 124979, Note_on_c, 6, 78, 0
8, 124979, Note_on_c, 6, 69, 0
8, 124980, Note_on_c, 6, 72, 100
8, 124980, Note_on_c, 6, 81, 100
8, 125039, Note_on_c, 6, 81, 0
8, 125039, Note_on_c, 6, 72, 0
8, 125040, Note_on_c, 6, 74, 100
8, 125040, Note_on_c, 6, 82, 100
8, 125099, Note_on_c, 6, 82, 0
8, 125099, Note_on_c, 6, 74, 0
8, 125820, Note_on_c, 6, 64, 100
8, 125820, Note_on_c, 6, 72, 100
8, 125879, Note_on_c, 6, 72, 0
8, 125879, Note_on_c, 6, 64, 0
8, 125880, Note_on_c, 6, 76, 100
8, 125880, Note_on_c, 6, 67, 100
8, 125939, Note_on_c, 6, 67, 0
8, 125939, Note_on_c, 6, 76, 0
8, 125940, Note_on_c, 6, 70, 100
8, 125940, Note_on_c, 6, 79, 100
8, 125999, Note_on_c, 6, 79, 0
8, 125999, Note_on_c, 6, 70, 0
8, 126000, Note_on_c, 6, 72, 100
8, 126000, Note_on_c, 6, 81, 100
8, 126059, Note_on_c, 6, 81, 0
8, 126059, Note_on_c, 6, 72, 0
8, 126780, Note_on_c, 6, 62, 100
8, 126780, Note_on_c, 6, 70, 100
8, 126839, Note_on_c, 6, 70, 0
8, 126839, Note_on_c, 6, 62, 0
8, 126840, Note_on_c, 6, 65, 100
8, 126840, Note_on_c, 6, 74, 100
8, 126899, Note_on_c, 6, 74, 0
8, 126899, Note_on_c, 6, 65, 0
8, 126900, Note_on_c, 6, 69, 100
8, 126900, Note_on_c, 6, 77, 100
8, 126959, Note_on_c, 6, 77, 0
8, 126959, Note_on_c, 6, 69, 0
8, 126960, Note_on_c, 6, 70, 100
8, 126960, Note_on_c, 6, 79, 100
8, 127019, Note_on_c, 6, 79, 0
8, 127019, Note_on_c, 6, 70, 0
8, 127740, Note_on_c, 6, 69, 100
8, 127740, Note_on_c, 6, 74, 100
8, 127799, Note_on_c, 6, 74, 0
8, 127799, Note_on_c, 6, 69, 0
8, 127800, Note_on_c, 6, 73, 100
8, 127800, Note_on_c, 6, 67, 100
8, 127859, Note_on_c, 6, 67, 0
8, 127859, Note_on_c, 6, 73, 0
8, 127860, Note_on_c, 6, 73, 100
8, 127860, Note_on_c, 6, 76, 100
8, 127919, Note_on_c, 6, 76, 0
8, 127919, Note_on_c, 6, 73, 0
8, 127920, Note_on_c, 6, 77, 100
8, 127920, Note_on_c, 6, 69, 100
8, 127979, Note_on_c, 6, 69, 0
8, 127979, Note_on_c, 6, 77, 0
8, 127980, Note_on_c, 6, 74, 100
8, 128099, Note_on_c, 6, 74, 0
8, 128100, Note_on_c, 6, 73, 100
8, 128159, Note_on_c, 6, 73, 0
8, 128160, Note_on_c, 6, 74, 100
8, 128219, Note_on_c, 6, 74, 0
8, 128220, Note_on_c, 6, 76, 100
8, 128339, Note_on_c, 6, 76, 0
8, 128340, Note_on_c, 6, 77, 100
8, 128459, Note_on_c, 6, 77, 0
8, 128460, Note_on_c, 6, 76, 100
8, 128489, Note_on_c, 6, 76, 0
8, 128490, Note_on_c, 6, 74, 100
8, 128519, Note_on_c, 6, 74, 0
8, 128520, Note_on_c, 6, 77, 100
8, 128549, Note_on_c, 6, 77, 0
8, 128550, Note_on_c, 6, 76, 100
8, 128579, Note_on_c, 6, 76, 0
8, 128580, Note_on_c, 6, 74, 100
8, 128609, Note_on_c, 6, 74, 0
8, 128610, Note_on_c, 6, 73, 100
8, 128639, Note_on_c, 6, 73, 0
8, 128640, Note_on_c, 6, 74, 100
8, 128669, Note_on_c, 6, 74, 0
8, 128670, Note_on_c, 6, 72, 100
8, 128699, Note_on_c, 6, 72, 0
8, 128700, Note_on_c, 6, 70, 100
8, 128729, Note_on_c, 6, 70, 0
8, 128730, Note_on_c, 6, 69, 100
8, 128759, Note_on_c, 6, 69, 0
8, 128760, Note_on_c, 6, 67, 100
8, 128789, Note_on_c, 6, 67, 0
8, 128790, Note_on_c, 6, 81, 100
8, 128819, Note_on_c, 6, 81, 0
8, 128820, Note_on_c, 6, 79, 100
8, 128849, Note_on_c, 6, 79, 0
8, 128850, Note_on_c, 6, 77, 100
8, 128879, Note_on_c, 6, 77, 0
8, 128880, Note_on_c, 6, 76, 100
8, 128909, Note_on_c, 6, 76, 0
8, 128910, Note_on_c, 6, 74, 100
8, 128939, Note_on_c, 6, 74, 0
8, 128940, Note_on_c, 6, 72, 100
8, 128969, Note_on_c, 6, 72, 0
8, 128970, Note_on_c, 6, 70, 100
8, 128999, Note_on_c, 6, 70, 0
8, 129000, Note_on_c, 6, 69, 100
8, 129029, Note_on_c, 6, 69, 0
8, 129030, Note_on_c, 6, 82, 100
8, 129059, Note_on_c, 6, 82, 0
8, 129060, Note_on_c, 6, 81, 100
8, 129089, Note_on_c, 6, 81, 0
8, 129090, Note_on_c, 6, 79, 100
8, 129119, Note_on_c, 6, 79, 0
8, 129120, Note_on_c, 6, 79, 100
8, 129149, Note_on_c, 6, 79, 0
8, 129150, Note_on_c, 6, 77, 100
8, 129179, Note_on_c, 6, 77, 0
8, 129180, Note_on_c, 6, 76, 100
8, 129209, Note_on_c, 6, 76, 0
8, 129210, Note_on_c, 6, 74, 100
8, 129239, Note_on_c, 6, 74, 0
8, 129240, Note_on_c, 6, 77, 100
8, 129269, Note_on_c, 6, 77, 0
8, 129270, Note_on_c, 6, 76, 100
8, 129299, Note_on_c, 6, 76, 0
8, 129300, Note_on_c, 6, 74, 100
8, 129329, Note_on_c, 6, 74, 0
8, 129330, Note_on_c, 6, 73, 100
8, 129359, Note_on_c, 6, 73, 0
8, 129360, Note_on_c, 6, 74, 100
8, 129379, Note_on_c, 6, 74, 0
8, 129380, Note_on_c, 6, 76, 100
8, 129399, Note_on_c, 6, 76, 0
8, 129400, Note_on_c, 6, 74, 100
8, 129419, Note_on_c, 6, 74, 0
8, 129420, Note_on_c, 6, 76, 100
8, 129434, Note_on_c, 6, 76, 0
8, 129435, Note_on_c, 6, 74, 100
8, 129449, Note_on_c, 6, 74, 0
8, 129450, Note_on_c, 6, 76, 100
8, 129464, Note_on_c, 6, 76, 0
8, 129465, Note_on_c, 6, 74, 100
8, 129479, Note_on_c, 6, 74, 0
8, 129480, Note_on_c, 6, 76, 100
8, 129494, Note_on_c, 6, 76, 0
8, 129495, Note_on_c, 6, 74, 100
8, 129509, Note_on_c, 6, 74, 0
8, 129510, Note_on_c, 6, 76, 100
8, 129524, Note_on_c, 6, 76, 0
8, 129525, Note_on_c, 6, 74, 100
8, 129539, Note_on_c, 6, 74, 0
8, 129540, Note_on_c, 6, 76, 100
8, 129554, Note_on_c, 6, 76, 0
8, 129555, Note_on_c, 6, 74, 100
8, 129569, Note_on_c, 6, 74, 0
8, 129570, Note_on_c, 6, 76, 100
8, 129584, Note_on_c, 6, 76, 0
8, 129585, Note_on_c, 6, 74, 100
8, 129599, Note_on_c, 6, 74, 0
8, 129600, Note_on_c, 6, 76, 100
8, 129614, Note_on_c, 6, 76, 0
8, 129615, Note_on_c, 6, 74, 100
8, 129629, Note_on_c, 6, 74, 0
8, 129630, Note_on_c, 6, 76, 100
8, 129644, Note_on_c, 6, 76, 0
8, 129645, Note_on_c, 6, 74, 100
8, 129659, Note_on_c, 6, 74, 0
8, 129660, Note_on_c, 6, 76, 100
8, 129674, Note_on_c, 6, 76, 0
8, 129675, Note_on_c, 6, 74, 100
8, 129689, Note_on_c, 6, 74, 0
8, 129690, Note_on_c, 6, 76, 100
8, 129704, Note_on_c, 6, 76, 0
8, 129705, Note_on_c, 6, 74, 100
8, 129719, Note_on_c, 6, 74, 0
8, 129720, Note_on_c, 6, 76, 100
8, 129734, Note_on_c, 6, 76, 0
8, 129735, Note_on_c, 6, 74, 100
8, 129749, Note_on_c, 6, 74, 0
8, 129750, Note_on_c, 6, 76, 100
8, 129764, Note_on_c, 6, 76, 0
8, 129765, Note_on_c, 6, 74, 100
8, 129779, Note_on_c, 6, 74, 0
8, 129780, Note_on_c, 6, 76, 100
8, 129794, Note_on_c, 6, 76, 0
8, 129795, Note_on_c, 6, 74, 100
8, 129809, Note_on_c, 6, 74, 0
8, 129810, Note_on_c, 6, 76, 100
8, 129824, Note_on_c, 6, 76, 0
8, 129825, Note_on_c, 6, 74, 100
8, 129839, Note_on_c, 6, 74, 0
8, 129840, Note_on_c, 6, 76, 100
8, 129854, Note_on_c, 6, 76, 0
8, 129855, Note_on_c, 6, 74, 100
8, 129869, Note_on_c, 6, 74, 0
8, 129870, Note_on_c, 6, 76, 100
8, 129884, Note_on_c, 6, 76, 0
8, 129885, Note_on_c, 6, 74, 100
8, 129899, Note_on_c, 6, 74, 0
8, 129900, Note_on_c, 6, 76, 100
8, 129914, Note_on_c, 6, 76, 0
8, 129915, Note_on_c, 6, 74, 100
8, 129929, Note_on_c, 6, 74, 0
8, 129930, Note_on_c, 6, 76, 100
8, 129944, Note_on_c, 6, 76, 0
8, 129945, Note_on_c, 6, 74, 100
8, 129959, Note_on_c, 6, 74, 0
8, 129960, Note_on_c, 6, 76, 100
8, 129974, Note_on_c, 6, 76, 0
8, 129975, Note_on_c, 6, 74, 100
8, 129989, Note_on_c, 6, 74, 0
8, 129990, Note_on_c, 6, 76, 100
8, 130004, Note_on_c, 6, 76, 0
8, 130005, Note_on_c, 6, 74, 100
8, 130019, Note_on_c, 6, 74, 0
8, 130020, Note_on_c, 6, 76, 100
8, 130034, Note_on_c, 6, 76, 0
8, 130035, Note_on_c, 6, 74, 100
8, 130049, Note_on_c, 6, 74, 0
8, 130050, Note_on_c, 6, 76, 100
8, 130064, Note_on_c, 6, 76, 0
8, 130065, Note_on_c, 6, 74, 100
8, 130079, Note_on_c, 6, 74, 0
8, 130080, Note_on_c, 6, 76, 100
8, 130094, Note_on_c, 6, 76, 0
8, 130095, Note_on_c, 6, 74, 100
8, 130109, Note_on_c, 6, 74, 0
8, 130110, Note_on_c, 6, 76, 100
8, 130124, Note_on_c, 6, 76, 0
8, 130125, Note_on_c, 6, 74, 100
8, 130139, Note_on_c, 6, 74, 0
8, 130140, Note_on_c, 6, 76, 100
8, 130154, Note_on_c, 6, 76, 0
8, 130155, Note_on_c, 6, 74, 100
8, 130169, Note_on_c, 6, 74, 0
8, 130170, Note_on_c, 6, 76, 100
8, 130184, Note_on_c, 6, 76, 0
8, 130185, Note_on_c, 6, 74, 100
8, 130199, Note_on_c, 6, 74, 0
8, 130200, Note_on_c, 6, 76, 100
8, 130214, Note_on_c, 6, 76, 0
8, 130215, Note_on_c, 6, 74, 100
8, 130229, Note_on_c, 6, 74, 0
8, 130230, Note_on_c, 6, 76, 100
8, 130244, Note_on_c, 6, 76, 0
8, 130245, Note_on_c, 6, 74, 100
8, 130259, Note_on_c, 6, 74, 0
8, 130260, Note_on_c, 6, 76, 100
8, 130274, Note_on_c, 6, 76, 0
8, 130275, Note_on_c, 6, 74, 100
8, 130289, Note_on_c, 6, 74, 0
8, 130290, Note_on_c, 6, 76, 100
8, 130304, Note_on_c, 6, 76, 0
8, 130305, Note_on_c, 6, 74, 100
8, 130319, Note_on_c, 6, 74, 0
8, 130320, Note_on_c, 6, 76, 100
8, 130334, Note_on_c, 6, 76, 0
8, 130335, Note_on_c, 6, 74, 100
8, 130349, Note_on_c, 6, 74, 0
8, 130350, Note_on_c, 6, 76, 100
8, 130364, Note_on_c, 6, 76, 0
8, 130365, Note_on_c, 6, 74, 100
8, 130379, Note_on_c, 6, 74, 0
8, 130380, Note_on_c, 6, 76, 100
8, 130380, Note_on_c, 6, 67, 100
8, 130380, Note_on_c, 6, 70, 100
8, 130439, Note_on_c, 6, 70, 0
8, 130439, Note_on_c, 6, 67, 0
8, 130439, Note_on_c, 6, 76, 0
8, 130440, Note_on_c, 6, 69, 100
8, 130440, Note_on_c, 6, 65, 100
8, 130499, Note_on_c, 6, 65, 0
8, 130499, Note_on_c, 6, 69, 0
8, 130500, Note_on_c, 6, 73, 100
8, 130500, Note_on_c, 6, 69, 100
8, 130500, Note_on_c, 6, 67, 100
8, 130500, Note_on_c, 6, 64, 100
8, 130559, Note_on_c, 6, 64, 0
8, 130559, Note_on_c, 6, 73, 0
8, 130559, Note_on_c, 6, 69, 0
8, 130559, Note_on_c, 6, 67, 0
8, 130560, Note_on_c, 6, 74, 100
8, 130560, Note_on_c, 6, 69, 100
8, 130560, Note_on_c, 6, 65, 100
8, 130560, Note_on_c, 6, 62, 100
8, 130799, Note_on_c, 6, 62, 0
8, 130799, Note_on_c, 6, 74, 0
8, 130799, Note_on_c, 6, 69, 0
8, 130799, Note_on_c, 6, 65, 0
8, 130799, End_track
9, 0, Start_track
9, 0, MIDI_port, 0
9, 0, Title_t, "clave l ii"
9, 0, Program_c, 7, 6
9, 60, Note_on_c, 7, 50, 110
9, 120, Note_on_c, 7, 50, 0
9, 120, Note_on_c, 7, 52, 110
9, 180, Note_on_c, 7, 52, 0
9, 180, Note_on_c, 7, 53, 110
9, 240, Note_on_c, 7, 53, 0
9, 240, Note_on_c, 7, 53, 110
9, 300, Note_on_c, 7, 53, 0
9, 300, Note_on_c, 7, 55, 110
9, 360, Note_on_c, 7, 55, 0
9, 360, Note_on_c, 7, 57, 110
9, 420, Note_on_c, 7, 57, 0
9, 420, Note_on_c, 7, 57, 110
9, 480, Note_on_c, 7, 57, 0
9, 480, Note_on_c, 7, 58, 110
9, 540, Note_on_c, 7, 58, 0
9, 540, Note_on_c, 7, 57, 110
9, 600, Note_on_c, 7, 57, 0
9, 600, Note_on_c, 7, 55, 110
9, 630, Note_on_c, 7, 55, 0
9, 630, Note_on_c, 7, 53, 110
9, 660, Note_on_c, 7, 53, 0
9, 660, Note_on_c, 7, 52, 110
9, 690, Note_on_c, 7, 52, 0
9, 690, Note_on_c, 7, 50, 110
9, 720, Note_on_c, 7, 50, 0
9, 720, Note_on_c, 7, 49, 110
9, 780, Note_on_c, 7, 49, 0
9, 780, Note_on_c, 7, 45, 110
9, 810, Note_on_c, 7, 45, 0
9, 810, Note_on_c, 7, 47, 110
9, 840, Note_on_c, 7, 47, 0
9, 840, Note_on_c, 7, 49, 110
9, 870, Note_on_c, 7, 49, 0
9, 870, Note_on_c, 7, 50, 110
9, 900, Note_on_c, 7, 50, 0
9, 900, Note_on_c, 7, 52, 110
9, 960, Note_on_c, 7, 52, 0
9, 960, Note_on_c, 7, 52, 110
9, 1020, Note_on_c, 7, 52, 0
9, 1020, Note_on_c, 7, 53, 110
9, 1080, Note_on_c, 7, 53, 0
9, 1080, Note_on_c, 7, 52, 110
9, 1140, Note_on_c, 7, 52, 0
9, 1140, Note_on_c, 7, 45, 110
9, 1170, Note_on_c, 7, 45, 0
9, 1170, Note_on_c, 7, 47, 110
9, 1200, Note_on_c, 7, 47, 0
9, 1200, Note_on_c, 7, 49, 110
9, 1230, Note_on_c, 7, 49, 0
9, 1230, Note_on_c, 7, 50, 110
9, 1260, Note_on_c, 7, 50, 0
9, 1260, Note_on_c, 7, 52, 110
9, 1320, Note_on_c, 7, 52, 0
9, 1320, Note_on_c, 7, 52, 110
9, 1380, Note_on_c, 7, 52, 0
9, 1380, Note_on_c, 7, 53, 110
9, 1440, Note_on_c, 7, 53, 0
9, 1440, Note_on_c, 7, 52, 110
9, 1500, Note_on_c, 7, 52, 0
9, 1500, Note_on_c, 7, 45, 110
9, 1530, Note_on_c, 7, 45, 0
9, 1530, Note_on_c, 7, 47, 110
9, 1560, Note_on_c, 7, 47, 0
9, 1560, Note_on_c, 7, 49, 110
9, 1590, Note_on_c, 7, 49, 0
9, 1590, Note_on_c, 7, 50, 110
9, 1620, Note_on_c, 7, 50, 0
9, 1620, Note_on_c, 7, 52, 110
9, 1650, Note_on_c, 7, 52, 0
9, 1650, Note_on_c, 7, 50, 110
9, 1680, Note_on_c, 7, 50, 0
9, 1680, Note_on_c, 7, 49, 110
9, 1710, Note_on_c, 7, 49, 0
9, 1710, Note_on_c, 7, 50, 110
9, 1740, Note_on_c, 7, 50, 0
9, 1740, Note_on_c, 7, 52, 110
9, 1770, Note_on_c, 7, 52, 0
9, 1770, Note_on_c, 7, 53, 110
9, 1800, Note_on_c, 7, 53, 0
9, 1800, Note_on_c, 7, 55, 110
9, 1830, Note_on_c, 7, 55, 0
9, 1830, Note_on_c, 7, 53, 110
9, 1860, Note_on_c, 7, 53, 0
9, 1860, Note_on_c, 7, 52, 110
9, 1890, Note_on_c, 7, 52, 0
9, 1890, Note_on_c, 7, 53, 110
9, 1920, Note_on_c, 7, 53, 0
9, 1920, Note_on_c, 7, 55, 110
9, 1950, Note_on_c, 7, 55, 0
9, 1950, Note_on_c, 7, 57, 110
9, 1980, Note_on_c, 7, 57, 0
9, 1980, Note_on_c, 7, 58, 110
9, 2010, Note_on_c, 7, 58, 0
9, 2010, Note_on_c, 7, 57, 110
9, 2040, Note_on_c, 7, 57, 0
9, 2040, Note_on_c, 7, 55, 110
9, 2070, Note_on_c, 7, 55, 0
9, 2070, Note_on_c, 7, 53, 110
9, 2100, Note_on_c, 7, 53, 0
9, 2100, Note_on_c, 7, 52, 110
9, 2130, Note_on_c, 7, 52, 0
9, 2130, Note_on_c, 7, 50, 110
9, 2160, Note_on_c, 7, 50, 0
9, 2160, Note_on_c, 7, 49, 110
9, 2190, Note_on_c, 7, 49, 0
9, 2190, Note_on_c, 7, 52, 110
9, 2220, Note_on_c, 7, 52, 0
9, 2220, Note_on_c, 7, 45, 110
9, 2250, Note_on_c, 7, 45, 0
9, 2250, Note_on_c, 7, 49, 110
9, 2280, Note_on_c, 7, 49, 0
9, 2280, Note_on_c, 7, 50, 110
9, 2340, Note_on_c, 7, 50, 0
9, 2370, Note_on_c, 7, 43, 110
9, 2400, Note_on_c, 7, 43, 0
9, 2400, Note_on_c, 7, 45, 110
9, 2460, Note_on_c, 7, 45, 0
9, 2460, Note_on_c, 7, 45, 110
9, 2520, Note_on_c, 7, 45, 0
9, 2520, Note_on_c, 7, 38, 110
9, 2520, Note_on_c, 7, 50, 110
9, 2580, Note_on_c, 7, 50, 0
9, 2580, Note_on_c, 7, 38, 0
9, 2760, Note_on_c, 7, 50, 110
9, 2820, Note_on_c, 7, 50, 0
9, 2820, Note_on_c, 7, 52, 110
9, 2880, Note_on_c, 7, 52, 0
9, 2880, Note_on_c, 7, 53, 110
9, 2940, Note_on_c, 7, 53, 0
9, 2940, Note_on_c, 7, 53, 110
9, 3000, Note_on_c, 7, 53, 0
9, 3000, Note_on_c, 7, 55, 110
9, 3060, Note_on_c, 7, 55, 0
9, 3060, Note_on_c, 7, 57, 110
9, 3120, Note_on_c, 7, 57, 0
9, 3120, Note_on_c, 7, 57, 110
9, 3180, Note_on_c, 7, 57, 0
9, 3180, Note_on_c, 7, 58, 110
9, 3240, Note_on_c, 7, 58, 0
9, 3240, Note_on_c, 7, 57, 110
9, 3300, Note_on_c, 7, 57, 0
9, 3300, Note_on_c, 7, 55, 110
9, 3330, Note_on_c, 7, 55, 0
9, 3330, Note_on_c, 7, 53, 110
9, 3360, Note_on_c, 7, 53, 0
9, 3360, Note_on_c, 7, 52, 110
9, 3390, Note_on_c, 7, 52, 0
9, 3390, Note_on_c, 7, 50, 110
9, 3420, Note_on_c, 7, 50, 0
9, 3420, Note_on_c, 7, 49, 110
9, 3480, Note_on_c, 7, 49, 0
9, 3480, Note_on_c, 7, 45, 110
9, 3540, Note_on_c, 7, 45, 0
9, 3540, Note_on_c, 7, 50, 110
9, 3600, Note_on_c, 7, 50, 0
9, 3600, Note_on_c, 7, 45, 110
9, 3660, Note_on_c, 7, 45, 0
9, 3660, Note_on_c, 7, 49, 110
9, 3720, Note_on_c, 7, 49, 0
9, 3720, Note_on_c, 7, 52, 110
9, 3780, Note_on_c, 7, 52, 0
9, 3780, Note_on_c, 7, 57, 110
9, 3840, Note_on_c, 7, 57, 0
9, 3840, Note_on_c, 7, 55, 110
9, 3870, Note_on_c, 7, 55, 0
9, 3870, Note_on_c, 7, 53, 110
9, 3900, Note_on_c, 7, 53, 0
9, 3900, Note_on_c, 7, 52, 110
9, 3930, Note_on_c, 7, 52, 0
9, 3930, Note_on_c, 7, 50, 110
9, 3960, Note_on_c, 7, 50, 0
9, 3960, Note_on_c, 7, 57, 110
9, 4020, Note_on_c, 7, 57, 0
9, 4200, Note_on_c, 7, 45, 110
9, 4260, Note_on_c, 7, 45, 0
9, 4260, Note_on_c, 7, 47, 110
9, 4320, Note_on_c, 7, 47, 0
9, 4320, Note_on_c, 7, 48, 110
9, 4380, Note_on_c, 7, 48, 0
9, 4380, Note_on_c, 7, 48, 110
9, 4440, Note_on_c, 7, 48, 0
9, 4440, Note_on_c, 7, 50, 110
9, 4500, Note_on_c, 7, 50, 0
9, 4500, Note_on_c, 7, 52, 110
9, 4560, Note_on_c, 7, 52, 0
9, 4560, Note_on_c, 7, 52, 110
9, 4620, Note_on_c, 7, 52, 0
9, 4620, Note_on_c, 7, 53, 110
9, 4680, Note_on_c, 7, 53, 0
9, 4680, Note_on_c, 7, 52, 110
9, 4740, Note_on_c, 7, 52, 0
9, 4740, Note_on_c, 7, 50, 110
9, 4770, Note_on_c, 7, 50, 0
9, 4770, Note_on_c, 7, 48, 110
9, 4800, Note_on_c, 7, 48, 0
9, 4800, Note_on_c, 7, 47, 110
9, 4830, Note_on_c, 7, 47, 0
9, 4830, Note_on_c, 7, 45, 110
9, 4860, Note_on_c, 7, 45, 0
9, 4860, Note_on_c, 7, 44, 110
9, 4920, Note_on_c, 7, 44, 0
9, 4920, Note_on_c, 7, 40, 110
9, 4980, Note_on_c, 7, 40, 0
9, 4980, Note_on_c, 7, 45, 110
9, 5040, Note_on_c, 7, 45, 0
9, 5040, Note_on_c, 7, 40, 110
9, 5100, Note_on_c, 7, 40, 0
9, 5100, Note_on_c, 7, 59, 110
9, 5160, Note_on_c, 7, 59, 0
9, 5160, Note_on_c, 7, 56, 110
9, 5220, Note_on_c, 7, 56, 0
9, 5220, Note_on_c, 7, 52, 110
9, 5280, Note_on_c, 7, 52, 0
9, 5280, Note_on_c, 7, 57, 110
9, 5340, Note_on_c, 7, 57, 0
9, 5340, Note_on_c, 7, 45, 110
9, 5400, Note_on_c, 7, 45, 0
9, 5400, Note_on_c, 7, 62, 100
9, 5429, Note_on_c, 7, 62, 0
9, 5430, Note_on_c, 7, 64, 100
9, 5459, Note_on_c, 7, 64, 0
9, 5460, Note_on_c, 7, 62, 100
9, 5489, Note_on_c, 7, 62, 0
9, 5490, Note_on_c, 7, 60, 100
9, 5519, Note_on_c, 7, 60, 0
9, 5520, Note_on_c, 7, 59, 100
9, 5549, Note_on_c, 7, 59, 0
9, 5550, Note_on_c, 7, 57, 100
9, 5579, Note_on_c, 7, 57, 0
9, 5580, Note_on_c, 7, 55, 100
9, 5639, Note_on_c, 7, 55, 0
9, 5640, Note_on_c, 7, 62, 100
9, 5699, Note_on_c, 7, 62, 0
9, 5700, Note_on_c, 7, 59, 100
9, 5759, Note_on_c, 7, 59, 0
9, 5760, Note_on_c, 7, 55, 100
9, 5819, Note_on_c, 7, 55, 0
9, 5820, Note_on_c, 7, 60, 100
9, 5879, Note_on_c, 7, 60, 0
9, 5880, Note_on_c, 7, 48, 100
9, 5939, Note_on_c, 7, 48, 0
9, 5940, Note_on_c, 7, 53, 100
9, 5999, Note_on_c, 7, 53, 0
9, 6000, Note_on_c, 7, 52, 100
9, 6059, Note_on_c, 7, 52, 0
9, 6060, Note_on_c, 7, 50, 100
9, 6119, Note_on_c, 7, 50, 0
9, 6120, Note_on_c, 7, 52, 100
9, 6149, Note_on_c, 7, 52, 0
9, 6150, Note_on_c, 7, 64, 100
9, 6179, Note_on_c, 7, 64, 0
9, 6180, Note_on_c, 7, 62, 100
9, 6209, Note_on_c, 7, 62, 0
9, 6210, Note_on_c, 7, 60, 100
9, 6239, Note_on_c, 7, 60, 0
9, 6240, Note_on_c, 7, 59, 100
9, 6269, Note_on_c, 7, 59, 0
9, 6270, Note_on_c, 7, 57, 100
9, 6299, Note_on_c, 7, 57, 0
9, 6300, Note_on_c, 7, 56, 100
9, 6359, Note_on_c, 7, 56, 0
9, 6360, Note_on_c, 7, 52, 100
9, 6419, Note_on_c, 7, 52, 0
9, 6420, Note_on_c, 7, 57, 100
9, 6479, Note_on_c, 7, 57, 0
9, 6480, Note_on_c, 7, 64, 100
9, 6539, Note_on_c, 7, 64, 0
9, 6540, Note_on_c, 7, 52, 100
9, 6569, Note_on_c, 7, 52, 0
9, 6570, Note_on_c, 7, 54, 100
9, 6599, Note_on_c, 7, 54, 0
9, 6600, Note_on_c, 7, 56, 100
9, 6629, Note_on_c, 7, 56, 0
9, 6630, Note_on_c, 7, 57, 100
9, 6659, Note_on_c, 7, 57, 0
9, 6660, Note_on_c, 7, 59, 100
9, 6689, Note_on_c, 7, 59, 0
9, 6690, Note_on_c, 7, 57, 100
9, 6719, Note_on_c, 7, 57, 0
9, 6720, Note_on_c, 7, 56, 100
9, 6749, Note_on_c, 7, 56, 0
9, 6750, Note_on_c, 7, 57, 100
9, 6779, Note_on_c, 7, 57, 0
9, 6780, Note_on_c, 7, 59, 100
9, 6809, Note_on_c, 7, 59, 0
9, 6810, Note_on_c, 7, 60, 100
9, 6839, Note_on_c, 7, 60, 0
9, 6840, Note_on_c, 7, 62, 100
9, 6869, Note_on_c, 7, 62, 0
9, 6870, Note_on_c, 7, 60, 100
9, 6899, Note_on_c, 7, 60, 0
9, 6900, Note_on_c, 7, 59, 100
9, 6929, Note_on_c, 7, 59, 0
9, 6930, Note_on_c, 7, 60, 100
9, 6959, Note_on_c, 7, 60, 0
9, 6960, Note_on_c, 7, 62, 100
9, 6989, Note_on_c, 7, 62, 0
9, 6990, Note_on_c, 7, 64, 100
9, 7019, Note_on_c, 7, 64, 0
9, 7020, Note_on_c, 7, 65, 100
9, 7049, Note_on_c, 7, 65, 0
9, 7050, Note_on_c, 7, 64, 100
9, 7079, Note_on_c, 7, 64, 0
9, 7080, Note_on_c, 7, 62, 100
9, 7109, Note_on_c, 7, 62, 0
9, 7110, Note_on_c, 7, 60, 100
9, 7139, Note_on_c, 7, 60, 0
9, 7140, Note_on_c, 7, 59, 100
9, 7169, Note_on_c, 7, 59, 0
9, 7170, Note_on_c, 7, 57, 100
9, 7199, Note_on_c, 7, 57, 0
9, 7200, Note_on_c, 7, 56, 100
9, 7229, Note_on_c, 7, 56, 0
9, 7230, Note_on_c, 7, 59, 100
9, 7259, Note_on_c, 7, 59, 0
9, 7260, Note_on_c, 7, 52, 100
9, 7289, Note_on_c, 7, 52, 0
9, 7290, Note_on_c, 7, 56, 100
9, 7319, Note_on_c, 7, 56, 0
9, 7320, Note_on_c, 7, 57, 100
9, 7379, Note_on_c, 7, 57, 0
9, 7410, Note_on_c, 7, 50, 100
9, 7439, Note_on_c, 7, 50, 0
9, 7440, Note_on_c, 7, 52, 100
9, 7499, Note_on_c, 7, 52, 0
9, 7500, Note_on_c, 7, 40, 100
9, 7559, Note_on_c, 7, 40, 0
9, 7560, Note_on_c, 7, 45, 100
9, 7589, Note_on_c, 7, 45, 0
9, 7590, Note_on_c, 7, 57, 100
9, 7619, Note_on_c, 7, 57, 0
9, 7620, Note_on_c, 7, 52, 100
9, 7649, Note_on_c, 7, 52, 0
9, 7650, Note_on_c, 7, 57, 100
9, 7679, Note_on_c, 7, 57, 0
9, 7680, Note_on_c, 7, 48, 100
9, 7709, Note_on_c, 7, 48, 0
9, 7710, Note_on_c, 7, 52, 100
9, 7739, Note_on_c, 7, 52, 0
9, 7740, Note_on_c, 7, 45, 100
9, 7859, Note_on_c, 7, 45, 0
9, 7980, Note_on_c, 7, 57, 100
9, 8039, Note_on_c, 7, 57, 0
9, 8040, Note_on_c, 7, 55, 100
9, 8099, Note_on_c, 7, 55, 0
9, 8100, Note_on_c, 7, 53, 100
9, 8159, Note_on_c, 7, 53, 0
9, 8160, Note_on_c, 7, 53, 100
9, 8219, Note_on_c, 7, 53, 0
9, 8220, Note_on_c, 7, 52, 100
9, 8279, Note_on_c, 7, 52, 0
9, 8280, Note_on_c, 7, 50, 100
9, 8339, Note_on_c, 7, 50, 0
9, 8340, Note_on_c, 7, 62, 100
9, 8399, Note_on_c, 7, 62, 0
9, 8400, Note_on_c, 7, 57, 100
9, 8459, Note_on_c, 7, 57, 0
9, 8460, Note_on_c, 7, 53, 100
9, 8489, Note_on_c, 7, 53, 0
9, 8490, Note_on_c, 7, 57, 100
9, 8519, Note_on_c, 7, 57, 0
9, 8520, Note_on_c, 7, 50, 100
9, 8549, Note_on_c, 7, 50, 0
9, 8550, Note_on_c, 7, 52, 100
9, 8579, Note_on_c, 7, 52, 0
9, 8580, Note_on_c, 7, 53, 100
9, 8609, Note_on_c, 7, 53, 0
9, 8610, Note_on_c, 7, 55, 100
9, 8639, Note_on_c, 7, 55, 0
9, 8640, Note_on_c, 7, 57, 100
9, 8699, Note_on_c, 7, 57, 0
9, 8700, Note_on_c, 7, 50, 100
9, 8759, Note_on_c, 7, 50, 0
9, 8760, Note_on_c, 7, 48, 100
9, 8819, Note_on_c, 7, 48, 0
9, 8820, Note_on_c, 7, 46, 100
9, 8879, Note_on_c, 7, 46, 0
9, 8880, Note_on_c, 7, 46, 100
9, 8939, Note_on_c, 7, 46, 0
9, 8940, Note_on_c, 7, 45, 100
9, 8999, Note_on_c, 7, 45, 0
9, 9000, Note_on_c, 7, 43, 100
9, 9029, Note_on_c, 7, 43, 0
9, 9030, Note_on_c, 7, 55, 100
9, 9059, Note_on_c, 7, 55, 0
9, 9060, Note_on_c, 7, 58, 100
9, 9089, Note_on_c, 7, 58, 0
9, 9090, Note_on_c, 7, 62, 100
9, 9119, Note_on_c, 7, 62, 0
9, 9120, Note_on_c, 7, 58, 100
9, 9149, Note_on_c, 7, 58, 0
9, 9150, Note_on_c, 7, 55, 100
9, 9179, Note_on_c, 7, 55, 0
9, 9180, Note_on_c, 7, 60, 100
9, 9390, Note_on_c, 7, 60, 0
9, 9390, Note_on_c, 7, 53, 100
9, 9419, Note_on_c, 7, 53, 0
9, 9420, Note_on_c, 7, 57, 100
9, 9449, Note_on_c, 7, 57, 0
9, 9450, Note_on_c, 7, 60, 100
9, 9479, Note_on_c, 7, 60, 0
9, 9480, Note_on_c, 7, 57, 100
9, 9509, Note_on_c, 7, 57, 0
9, 9510, Note_on_c, 7, 53, 100
9, 9539, Note_on_c, 7, 53, 0
9, 9540, Note_on_c, 7, 58, 100
9, 9750, Note_on_c, 7, 58, 0
9, 9750, Note_on_c, 7, 52, 100
9, 9779, Note_on_c, 7, 52, 0
9, 9780, Note_on_c, 7, 55, 100
9, 9809, Note_on_c, 7, 55, 0
9, 9810, Note_on_c, 7, 58, 100
9, 9839, Note_on_c, 7, 58, 0
9, 9840, Note_on_c, 7, 55, 100
9, 9869, Note_on_c, 7, 55, 0
9, 9870, Note_on_c, 7, 52, 100
9, 9899, Note_on_c, 7, 52, 0
9, 9900, Note_on_c, 7, 57, 100
9, 10139, Note_on_c, 7, 57, 0
9, 10140, Note_on_c, 7, 62, 100
9, 10199, Note_on_c, 7, 62, 0
9, 10200, Note_on_c, 7, 57, 100
9, 10259, Note_on_c, 7, 57, 0
9, 10260, Note_on_c, 7, 53, 100
9, 10319, Note_on_c, 7, 53, 0
9, 10320, Note_on_c, 7, 50, 100
9, 10379, Note_on_c, 7, 50, 0
9, 10380, Note_on_c, 7, 52, 100
9, 10439, Note_on_c, 7, 52, 0
9, 10440, Note_on_c, 7, 53, 100
9, 10499, Note_on_c, 7, 53, 0
9, 10500, Note_on_c, 7, 53, 100
9, 10559, Note_on_c, 7, 53, 0
9, 10560, Note_on_c, 7, 55, 100
9, 10619, Note_on_c, 7, 55, 0
9, 10620, Note_on_c, 7, 57, 100
9, 10679, Note_on_c, 7, 57, 0
9, 10680, Note_on_c, 7, 57, 100
9, 10739, Note_on_c, 7, 57, 0
9, 10740, Note_on_c, 7, 58, 100
9, 10799, Note_on_c, 7, 58, 0
9, 10800, Note_on_c, 7, 57, 100
9, 10859, Note_on_c, 7, 57, 0
9, 10860, Note_on_c, 7, 55, 100
9, 10889, Note_on_c, 7, 55, 0
9, 10890, Note_on_c, 7, 53, 100
9, 10919, Note_on_c, 7, 53, 0
9, 10920, Note_on_c, 7, 52, 100
9, 10949, Note_on_c, 7, 52, 0
9, 10950, Note_on_c, 7, 50, 100
9, 10979, Note_on_c, 7, 50, 0
9, 10980, Note_on_c, 7, 49, 100
9, 11039, Note_on_c, 7, 49, 0
9, 11040, Note_on_c, 7, 45, 100
9, 11099, Note_on_c, 7, 45, 0
9, 11100, Note_on_c, 7, 50, 100
9, 11159, Note_on_c, 7, 50, 0
9, 11160, Note_on_c, 7, 45, 100
9, 11550, Note_on_c, 7, 45, 0
9, 11550, Note_on_c, 7, 47, 100
9, 11579, Note_on_c, 7, 47, 0
9, 11580, Note_on_c, 7, 49, 100
9, 11609, Note_on_c, 7, 49, 0
9, 11610, Note_on_c, 7, 50, 100
9, 11639, Note_on_c, 7, 50, 0
9, 11640, Note_on_c, 7, 52, 100
9, 11669, Note_on_c, 7, 52, 0
9, 11670, Note_on_c, 7, 53, 100
9, 11699, Note_on_c, 7, 53, 0
9, 11700, Note_on_c, 7, 55, 100
9, 11759, Note_on_c, 7, 55, 0
9, 11760, Note_on_c, 7, 67, 100
9, 11819, Note_on_c, 7, 67, 0
9, 11820, Note_on_c, 7, 67, 100
9, 11879, Note_on_c, 7, 67, 0
9, 11880, Note_on_c, 7, 61, 100
9, 11939, Note_on_c, 7, 61, 0
9, 11940, Note_on_c, 7, 64, 100
9, 11999, Note_on_c, 7, 64, 0
9, 12000, Note_on_c, 7, 64, 100
9, 12059, Note_on_c, 7, 64, 0
9, 12060, Note_on_c, 7, 55, 100
9, 12119, Note_on_c, 7, 55, 0
9, 12120, Note_on_c, 7, 58, 100
9, 12179, Note_on_c, 7, 58, 0
9, 12180, Note_on_c, 7, 58, 100
9, 12239, Note_on_c, 7, 58, 0
9, 12240, Note_on_c, 7, 49, 100
9, 12270, Note_on_c, 7, 49, 0
9, 12270, Note_on_c, 7, 52, 100
9, 12300, Note_on_c, 7, 52, 0
9, 12300, Note_on_c, 7, 55, 100
9, 12330, Note_on_c, 7, 55, 0
9, 12330, Note_on_c, 7, 52, 100
9, 12360, Note_on_c, 7, 52, 0
9, 12360, Note_on_c, 7, 53, 100
9, 12420, Note_on_c, 7, 53, 0
9, 12450, Note_on_c, 7, 55, 100
9, 12479, Note_on_c, 7, 55, 0
9, 12480, Note_on_c, 7, 57, 100
9, 12539, Note_on_c, 7, 57, 0
9, 12540, Note_on_c, 7, 52, 100
9, 12599, Note_on_c, 7, 52, 0
9, 12600, Note_on_c, 7, 54, 100
9, 12629, Note_on_c, 7, 54, 0
9, 12630, Note_on_c, 7, 57, 100
9, 12659, Note_on_c, 7, 57, 0
9, 12660, Note_on_c, 7, 62, 100
9, 12689, Note_on_c, 7, 62, 0
9, 12690, Note_on_c, 7, 66, 100
9, 12719, Note_on_c, 7, 66, 0
9, 12720, Note_on_c, 7, 62, 100
9, 12749, Note_on_c, 7, 62, 0
9, 12750, Note_on_c, 7, 57, 100
9, 12779, Note_on_c, 7, 57, 0
9, 12780, Note_on_c, 7, 58, 100
9, 12899, Note_on_c, 7, 58, 0
9, 12990, Note_on_c, 7, 52, 100
9, 13019, Note_on_c, 7, 52, 0
9, 13020, Note_on_c, 7, 56, 100
9, 13049, Note_on_c, 7, 56, 0
9, 13050, Note_on_c, 7, 59, 100
9, 13079, Note_on_c, 7, 59, 0
9, 13080, Note_on_c, 7, 56, 100
9, 13109, Note_on_c, 7, 56, 0
9, 13110, Note_on_c, 7, 52, 100
9, 13139, Note_on_c, 7, 52, 0
9, 13140, Note_on_c, 7, 57, 100
9, 13259, Note_on_c, 7, 57, 0
9, 13350, Note_on_c, 7, 55, 100
9, 13379, Note_on_c, 7, 55, 0
9, 13380, Note_on_c, 7, 58, 100
9, 13409, Note_on_c, 7, 58, 0
9, 13410, Note_on_c, 7, 62, 100
9, 13439, Note_on_c, 7, 62, 0
9, 13440, Note_on_c, 7, 58, 100
9, 13469, Note_on_c, 7, 58, 0
9, 13470, Note_on_c, 7, 55, 100
9, 13499, Note_on_c, 7, 55, 0
9, 13500, Note_on_c, 7, 53, 100
9, 13619, Note_on_c, 7, 53, 0
9, 13710, Note_on_c, 7, 55, 100
9, 13739, Note_on_c, 7, 55, 0
9, 13740, Note_on_c, 7, 53, 100
9, 13769, Note_on_c, 7, 53, 0
9, 13770, Note_on_c, 7, 52, 100
9, 13799, Note_on_c, 7, 52, 0
9, 13800, Note_on_c, 7, 53, 100
9, 13829, Note_on_c, 7, 53, 0
9, 13830, Note_on_c, 7, 57, 100
9, 13859, Note_on_c, 7, 57, 0
9, 13860, Note_on_c, 7, 50, 100
9, 13889, Note_on_c, 7, 50, 0
9, 13890, Note_on_c, 7, 55, 100
9, 13919, Note_on_c, 7, 55, 0
9, 13920, Note_on_c, 7, 57, 100
9, 13979, Note_on_c, 7, 57, 0
9, 13980, Note_on_c, 7, 45, 100
9, 14039, Note_on_c, 7, 45, 0
9, 14040, Note_on_c, 7, 38, 100
9, 14159, Note_on_c, 7, 38, 0
9, 19650, Note_on_c, 7, 53, 100
9, 19679, Note_on_c, 7, 53, 0
9, 19680, Note_on_c, 7, 57, 100
9, 19709, Note_on_c, 7, 57, 0
9, 19710, Note_on_c, 7, 60, 100
9, 19739, Note_on_c, 7, 60, 0
9, 19740, Note_on_c, 7, 65, 100
9, 19769, Note_on_c, 7, 65, 0
9, 19770, Note_on_c, 7, 64, 100
9, 19799, Note_on_c, 7, 64, 0
9, 19800, Note_on_c, 7, 65, 100
9, 19829, Note_on_c, 7, 65, 0
9, 19830, Note_on_c, 7, 64, 100
9, 19859, Note_on_c, 7, 64, 0
9, 19860, Note_on_c, 7, 62, 100
9, 19889, Note_on_c, 7, 62, 0
9, 19890, Note_on_c, 7, 60, 100
9, 19919, Note_on_c, 7, 60, 0
9, 19920, Note_on_c, 7, 58, 100
9, 19949, Note_on_c, 7, 58, 0
9, 19950, Note_on_c, 7, 57, 100
9, 19979, Note_on_c, 7, 57, 0
9, 19980, Note_on_c, 7, 55, 100
9, 20009, Note_on_c, 7, 55, 0
9, 20010, Note_on_c, 7, 57, 100
9, 20039, Note_on_c, 7, 57, 0
9, 20040, Note_on_c, 7, 55, 100
9, 20069, Note_on_c, 7, 55, 0
9, 20070, Note_on_c, 7, 53, 100
9, 20099, Note_on_c, 7, 53, 0
9, 20100, Note_on_c, 7, 55, 100
9, 20129, Note_on_c, 7, 55, 0
9, 20130, Note_on_c, 7, 57, 100
9, 20159, Note_on_c, 7, 57, 0
9, 20160, Note_on_c, 7, 58, 100
9, 20189, Note_on_c, 7, 58, 0
9, 20190, Note_on_c, 7, 65, 100
9, 20219, Note_on_c, 7, 65, 0
9, 20220, Note_on_c, 7, 64, 100
9, 20249, Note_on_c, 7, 64, 0
9, 20250, Note_on_c, 7, 62, 100
9, 20279, Note_on_c, 7, 62, 0
9, 20280, Note_on_c, 7, 60, 100
9, 20309, Note_on_c, 7, 60, 0
9, 20310, Note_on_c, 7, 62, 100
9, 20339, Note_on_c, 7, 62, 0
9, 20340, Note_on_c, 7, 64, 100
9, 20369, Note_on_c, 7, 64, 0
9, 20370, Note_on_c, 7, 65, 100
9, 20399, Note_on_c, 7, 65, 0
9, 20400, Note_on_c, 7, 64, 100
9, 20429, Note_on_c, 7, 64, 0
9, 20430, Note_on_c, 7, 62, 100
9, 20459, Note_on_c, 7, 62, 0
9, 20460, Note_on_c, 7, 60, 100
9, 20489, Note_on_c, 7, 60, 0
9, 20490, Note_on_c, 7, 62, 100
9, 20519, Note_on_c, 7, 62, 0
9, 20520, Note_on_c, 7, 64, 100
9, 20579, Note_on_c, 7, 64, 0
9, 20580, Note_on_c, 7, 52, 100
9, 20639, Note_on_c, 7, 52, 0
9, 20640, Note_on_c, 7, 55, 100
9, 20699, Note_on_c, 7, 55, 0
9, 20700, Note_on_c, 7, 60, 100
9, 20759, Note_on_c, 7, 60, 0
9, 20760, Note_on_c, 7, 58, 100
9, 20789, Note_on_c, 7, 58, 0
9, 20790, Note_on_c, 7, 57, 100
9, 20819, Note_on_c, 7, 57, 0
9, 20820, Note_on_c, 7, 55, 100
9, 20849, Note_on_c, 7, 55, 0
9, 20850, Note_on_c, 7, 53, 100
9, 20879, Note_on_c, 7, 53, 0
9, 20880, Note_on_c, 7, 60, 100
9, 20939, Note_on_c, 7, 60, 0
9, 21120, Note_on_c, 7, 48, 100
9, 21179, Note_on_c, 7, 48, 0
9, 21180, Note_on_c, 7, 50, 100
9, 21239, Note_on_c, 7, 50, 0
9, 21240, Note_on_c, 7, 52, 100
9, 21299, Note_on_c, 7, 52, 0
9, 21300, Note_on_c, 7, 52, 100
9, 21359, Note_on_c, 7, 52, 0
9, 21360, Note_on_c, 7, 53, 100
9, 21419, Note_on_c, 7, 53, 0
9, 21420, Note_on_c, 7, 55, 100
9, 21479, Note_on_c, 7, 55, 0
9, 21480, Note_on_c, 7, 55, 100
9, 21539, Note_on_c, 7, 55, 0
9, 21540, Note_on_c, 7, 57, 100
9, 21599, Note_on_c, 7, 57, 0
9, 21600, Note_on_c, 7, 55, 100
9, 21659, Note_on_c, 7, 55, 0
9, 21660, Note_on_c, 7, 53, 100
9, 21689, Note_on_c, 7, 53, 0
9, 21690, Note_on_c, 7, 52, 100
9, 21719, Note_on_c, 7, 52, 0
9, 21720, Note_on_c, 7, 50, 100
9, 21749, Note_on_c, 7, 50, 0
9, 21750, Note_on_c, 7, 48, 100
9, 21779, Note_on_c, 7, 48, 0
9, 21780, Note_on_c, 7, 47, 100
9, 21839, Note_on_c, 7, 47, 0
9, 21840, Note_on_c, 7, 43, 100
9, 21899, Note_on_c, 7, 43, 0
9, 21900, Note_on_c, 7, 48, 100
9, 21959, Note_on_c, 7, 48, 0
9, 21960, Note_on_c, 7, 55, 100
9, 21989, Note_on_c, 7, 55, 0
9, 21990, Note_on_c, 7, 57, 100
9, 22019, Note_on_c, 7, 57, 0
9, 22020, Note_on_c, 7, 55, 100
9, 22049, Note_on_c, 7, 55, 0
9, 22050, Note_on_c, 7, 53, 100
9, 22079, Note_on_c, 7, 53, 0
9, 22080, Note_on_c, 7, 52, 100
9, 22109, Note_on_c, 7, 52, 0
9, 22110, Note_on_c, 7, 50, 100
9, 22139, Note_on_c, 7, 50, 0
9, 22140, Note_on_c, 7, 48, 100
9, 22199, Note_on_c, 7, 48, 0
9, 22200, Note_on_c, 7, 55, 100
9, 22259, Note_on_c, 7, 55, 0
9, 22260, Note_on_c, 7, 52, 100
9, 22319, Note_on_c, 7, 52, 0
9, 22320, Note_on_c, 7, 48, 100
9, 22379, Note_on_c, 7, 48, 0
9, 22380, Note_on_c, 7, 53, 100
9, 22439, Note_on_c, 7, 53, 0
9, 22440, Note_on_c, 7, 41, 100
9, 22499, Note_on_c, 7, 41, 0
9, 22500, Note_on_c, 7, 58, 100
9, 22529, Note_on_c, 7, 58, 0
9, 22530, Note_on_c, 7, 60, 100
9, 22559, Note_on_c, 7, 60, 0
9, 22560, Note_on_c, 7, 58, 100
9, 22589, Note_on_c, 7, 58, 0
9, 22590, Note_on_c, 7, 57, 100
9, 22619, Note_on_c, 7, 57, 0
9, 22620, Note_on_c, 7, 58, 100
9, 22649, Note_on_c, 7, 58, 0
9, 22650, Note_on_c, 7, 62, 100
9, 22679, Note_on_c, 7, 62, 0
9, 22680, Note_on_c, 7, 60, 100
9, 22769, Note_on_c, 7, 60, 0
9, 22770, Note_on_c, 7, 55, 100
9, 22799, Note_on_c, 7, 55, 0
9, 22800, Note_on_c, 7, 57, 100
9, 22859, Note_on_c, 7, 57, 0
9, 22890, Note_on_c, 7, 58, 100
9, 22919, Note_on_c, 7, 58, 0
9, 22920, Note_on_c, 7, 60, 100
9, 22979, Note_on_c, 7, 60, 0
9, 22980, Note_on_c, 7, 48, 100
9, 23039, Note_on_c, 7, 48, 0
9, 23040, Note_on_c, 7, 41, 100
9, 23099, Note_on_c, 7, 41, 0
9, 23100, Note_on_c, 7, 53, 100
9, 23159, Note_on_c, 7, 53, 0
9, 23160, Note_on_c, 7, 55, 100
9, 23219, Note_on_c, 7, 55, 0
9, 23220, Note_on_c, 7, 57, 100
9, 23279, Note_on_c, 7, 57, 0
9, 23280, Note_on_c, 7, 57, 100
9, 23339, Note_on_c, 7, 57, 0
9, 23340, Note_on_c, 7, 58, 100
9, 23399, Note_on_c, 7, 58, 0
9, 23400, Note_on_c, 7, 60, 100
9, 23429, Note_on_c, 7, 60, 0
9, 23430, Note_on_c, 7, 60, 100
9, 23459, Note_on_c, 7, 60, 0
9, 23460, Note_on_c, 7, 55, 100
9, 23489, Note_on_c, 7, 55, 0
9, 23490, Note_on_c, 7, 60, 100
9, 23519, Note_on_c, 7, 60, 0
9, 23520, Note_on_c, 7, 52, 100
9, 23549, Note_on_c, 7, 52, 0
9, 23550, Note_on_c, 7, 55, 100
9, 23579, Note_on_c, 7, 55, 0
9, 23580, Note_on_c, 7, 48, 100
9, 23699, Note_on_c, 7, 48, 0
9, 23820, Note_on_c, 7, 64, 100
9, 23879, Note_on_c, 7, 64, 0
9, 23880, Note_on_c, 7, 62, 100
9, 23939, Note_on_c, 7, 62, 0
9, 23940, Note_on_c, 7, 61, 100
9, 23999, Note_on_c, 7, 61, 0
9, 24000, Note_on_c, 7, 59, 100
9, 24059, Note_on_c, 7, 59, 0
9, 24060, Note_on_c, 7, 57, 100
9, 24119, Note_on_c, 7, 57, 0
9, 24120, Note_on_c, 7, 62, 100
9, 24179, Note_on_c, 7, 62, 0
9, 24180, Note_on_c, 7, 57, 100
9, 24209, Note_on_c, 7, 57, 0
9, 24210, Note_on_c, 7, 55, 100
9, 24239, Note_on_c, 7, 55, 0
9, 24240, Note_on_c, 7, 53, 100
9, 24269, Note_on_c, 7, 53, 0
9, 24270, Note_on_c, 7, 55, 100
9, 24299, Note_on_c, 7, 55, 0
9, 24300, Note_on_c, 7, 53, 100
9, 24329, Note_on_c, 7, 53, 0
9, 24330, Note_on_c, 7, 57, 100
9, 24359, Note_on_c, 7, 57, 0
9, 24360, Note_on_c, 7, 62, 100
9, 24389, Note_on_c, 7, 62, 0
9, 24390, Note_on_c, 7, 65, 100
9, 24419, Note_on_c, 7, 65, 0
9, 24420, Note_on_c, 7, 64, 100
9, 24449, Note_on_c, 7, 64, 0
9, 24450, Note_on_c, 7, 62, 100
9, 24479, Note_on_c, 7, 62, 0
9, 24480, Note_on_c, 7, 69, 100
9, 24539, Note_on_c, 7, 69, 0
9, 24540, Note_on_c, 7, 69, 100
9, 24599, Note_on_c, 7, 69, 0
9, 24600, Note_on_c, 7, 64, 100
9, 24659, Note_on_c, 7, 64, 0
9, 24660, Note_on_c, 7, 61, 100
9, 24690, Note_on_c, 7, 61, 0
9, 24690, Note_on_c, 7, 64, 100
9, 24720, Note_on_c, 7, 64, 0
9, 24720, Note_on_c, 7, 57, 100
9, 24750, Note_on_c, 7, 57, 0
9, 24750, Note_on_c, 7, 59, 100
9, 24780, Note_on_c, 7, 59, 0
9, 24780, Note_on_c, 7, 61, 100
9, 24810, Note_on_c, 7, 61, 0
9, 24810, Note_on_c, 7, 62, 100
9, 24840, Note_on_c, 7, 62, 0
9, 24840, Note_on_c, 7, 64, 100
9, 24899, Note_on_c, 7, 64, 0
9, 24900, Note_on_c, 7, 57, 100
9, 24959, Note_on_c, 7, 57, 0
9, 24960, Note_on_c, 7, 55, 100
9, 25019, Note_on_c, 7, 55, 0
9, 25020, Note_on_c, 7, 54, 100
9, 25079, Note_on_c, 7, 54, 0
9, 25080, Note_on_c, 7, 57, 100
9, 25139, Note_on_c, 7, 57, 0
9, 25140, Note_on_c, 7, 50, 100
9, 25199, Note_on_c, 7, 50, 0
9, 25200, Note_on_c, 7, 43, 100
9, 25259, Note_on_c, 7, 43, 0
9, 25260, Note_on_c, 7, 55, 100
9, 25319, Note_on_c, 7, 55, 0
9, 25320, Note_on_c, 7, 53, 100
9, 25379, Note_on_c, 7, 53, 0
9, 25380, Note_on_c, 7, 51, 100
9, 25439, Note_on_c, 7, 51, 0
9, 25440, Note_on_c, 7, 55, 100
9, 25499, Note_on_c, 7, 55, 0
9, 25500, Note_on_c, 7, 48, 100
9, 25559, Note_on_c, 7, 48, 0
9, 25620, Note_on_c, 7, 53, 100
9, 25679, Note_on_c, 7, 53, 0
9, 25680, Note_on_c, 7, 51, 100
9, 25739, Note_on_c, 7, 51, 0
9, 25740, Note_on_c, 7, 50, 100
9, 25799, Note_on_c, 7, 50, 0
9, 25800, Note_on_c, 7, 53, 100
9, 25859, Note_on_c, 7, 53, 0
9, 25860, Note_on_c, 7, 46, 100
9, 25919, Note_on_c, 7, 46, 0
9, 25980, Note_on_c, 7, 51, 100
9, 26039, Note_on_c, 7, 51, 0
9, 26040, Note_on_c, 7, 50, 100
9, 26099, Note_on_c, 7, 50, 0
9, 26100, Note_on_c, 7, 48, 100
9, 26159, Note_on_c, 7, 48, 0
9, 26160, Note_on_c, 7, 51, 100
9, 26219, Note_on_c, 7, 51, 0
9, 26220, Note_on_c, 7, 45, 100
9, 26279, Note_on_c, 7, 45, 0
9, 26340, Note_on_c, 7, 50, 100
9, 26399, Note_on_c, 7, 50, 0
9, 26400, Note_on_c, 7, 48, 100
9, 26459, Note_on_c, 7, 48, 0
9, 26460, Note_on_c, 7, 47, 100
9, 26519, Note_on_c, 7, 47, 0
9, 26520, Note_on_c, 7, 50, 100
9, 26579, Note_on_c, 7, 50, 0
9, 26580, Note_on_c, 7, 43, 100
9, 26639, Note_on_c, 7, 43, 0
9, 26640, Note_on_c, 7, 48, 100
9, 26759, Note_on_c, 7, 48, 0
9, 26820, Note_on_c, 7, 60, 100
9, 26879, Note_on_c, 7, 60, 0
9, 26880, Note_on_c, 7, 48, 100
9, 26939, Note_on_c, 7, 48, 0
9, 26940, Note_on_c, 7, 60, 100
9, 26999, Note_on_c, 7, 60, 0
9, 27000, Note_on_c, 7, 60, 100
9, 27119, Note_on_c, 7, 60, 0
9, 27180, Note_on_c, 7, 60, 100
9, 27239, Note_on_c, 7, 60, 0
9, 27240, Note_on_c, 7, 48, 100
9, 27299, Note_on_c, 7, 48, 0
9, 27300, Note_on_c, 7, 60, 100
9, 27359, Note_on_c, 7, 60, 0
9, 27360, Note_on_c, 7, 60, 100
9, 27479, Note_on_c, 7, 60, 0
9, 27540, Note_on_c, 7, 60, 100
9, 27599, Note_on_c, 7, 60, 0
9, 27600, Note_on_c, 7, 48, 100
9, 27659, Note_on_c, 7, 48, 0
9, 27660, Note_on_c, 7, 60, 100
9, 27719, Note_on_c, 7, 60, 0
9, 27720, Note_on_c, 7, 61, 100
9, 27839, Note_on_c, 7, 61, 0
9, 27900, Note_on_c, 7, 61, 100
9, 27959, Note_on_c, 7, 61, 0
9, 27960, Note_on_c, 7, 49, 100
9, 28019, Note_on_c, 7, 49, 0
9, 28020, Note_on_c, 7, 61, 100
9, 28079, Note_on_c, 7, 61, 0
9, 28080, Note_on_c, 7, 62, 100
9, 28199, Note_on_c, 7, 62, 0
9, 28260, Note_on_c, 7, 62, 100
9, 28319, Note_on_c, 7, 62, 0
9, 28320, Note_on_c, 7, 50, 100
9, 28379, Note_on_c, 7, 50, 0
9, 28380, Note_on_c, 7, 62, 100
9, 28439, Note_on_c, 7, 62, 0
9, 28440, Note_on_c, 7, 64, 100
9, 28559, Note_on_c, 7, 64, 0
9, 28620, Note_on_c, 7, 64, 100
9, 28679, Note_on_c, 7, 64, 0
9, 28680, Note_on_c, 7, 52, 100
9, 28739, Note_on_c, 7, 52, 0
9, 28740, Note_on_c, 7, 64, 100
9, 28799, Note_on_c, 7, 64, 0
9, 28800, Note_on_c, 7, 62, 100
9, 28919, Note_on_c, 7, 62, 0
9, 28980, Note_on_c, 7, 62, 100
9, 29039, Note_on_c, 7, 62, 0
9, 29040, Note_on_c, 7, 50, 100
9, 29099, Note_on_c, 7, 50, 0
9, 29100, Note_on_c, 7, 62, 100
9, 29159, Note_on_c, 7, 62, 0
9, 29160, Note_on_c, 7, 67, 100
9, 29219, Note_on_c, 7, 67, 0
9, 29220, Note_on_c, 7, 55, 100
9, 29279, Note_on_c, 7, 55, 0
9, 29280, Note_on_c, 7, 57, 100
9, 29339, Note_on_c, 7, 57, 0
9, 29340, Note_on_c, 7, 58, 100
9, 29399, Note_on_c, 7, 58, 0
9, 29400, Note_on_c, 7, 58, 100
9, 29459, Note_on_c, 7, 58, 0
9, 29460, Note_on_c, 7, 60, 100
9, 29519, Note_on_c, 7, 60, 0
9, 29520, Note_on_c, 7, 62, 100
9, 29579, Note_on_c, 7, 62, 0
9, 29580, Note_on_c, 7, 62, 100
9, 29639, Note_on_c, 7, 62, 0
9, 29640, Note_on_c, 7, 63, 100
9, 29699, Note_on_c, 7, 63, 0
9, 29700, Note_on_c, 7, 62, 100
9, 29759, Note_on_c, 7, 62, 0
9, 29760, Note_on_c, 7, 60, 100
9, 29789, Note_on_c, 7, 60, 0
9, 29790, Note_on_c, 7, 58, 100
9, 29819, Note_on_c, 7, 58, 0
9, 29820, Note_on_c, 7, 57, 100
9, 29849, Note_on_c, 7, 57, 0
9, 29850, Note_on_c, 7, 55, 100
9, 29879, Note_on_c, 7, 55, 0
9, 29880, Note_on_c, 7, 54, 100
9, 29939, Note_on_c, 7, 54, 0
9, 29940, Note_on_c, 7, 50, 100
9, 29969, Note_on_c, 7, 50, 0
9, 29970, Note_on_c, 7, 52, 100
9, 29999, Note_on_c, 7, 52, 0
9, 30000, Note_on_c, 7, 54, 100
9, 30029, Note_on_c, 7, 54, 0
9, 30030, Note_on_c, 7, 55, 100
9, 30059, Note_on_c, 7, 55, 0
9, 30060, Note_on_c, 7, 57, 100
9, 30119, Note_on_c, 7, 57, 0
9, 30120, Note_on_c, 7, 57, 100
9, 30179, Note_on_c, 7, 57, 0
9, 30180, Note_on_c, 7, 58, 100
9, 30239, Note_on_c, 7, 58, 0
9, 30240, Note_on_c, 7, 57, 100
9, 30299, Note_on_c, 7, 57, 0
9, 30300, Note_on_c, 7, 50, 100
9, 30329, Note_on_c, 7, 50, 0
9, 30330, Note_on_c, 7, 52, 100
9, 30359, Note_on_c, 7, 52, 0
9, 30360, Note_on_c, 7, 54, 100
9, 30389, Note_on_c, 7, 54, 0
9, 30390, Note_on_c, 7, 55, 100
9, 30419, Note_on_c, 7, 55, 0
9, 30420, Note_on_c, 7, 57, 100
9, 30479, Note_on_c, 7, 57, 0
9, 30480, Note_on_c, 7, 57, 100
9, 30539, Note_on_c, 7, 57, 0
9, 30540, Note_on_c, 7, 58, 100
9, 30599, Note_on_c, 7, 58, 0
9, 30600, Note_on_c, 7, 57, 100
9, 30659, Note_on_c, 7, 57, 0
9, 30720, Note_on_c, 7, 50, 100
9, 30779, Note_on_c, 7, 50, 0
9, 30780, Note_on_c, 7, 55, 100
9, 30839, Note_on_c, 7, 55, 0
9, 30900, Note_on_c, 7, 48, 100
9, 30959, Note_on_c, 7, 48, 0
9, 30960, Note_on_c, 7, 53, 100
9, 31019, Note_on_c, 7, 53, 0
9, 31080, Note_on_c, 7, 51, 100
9, 31139, Note_on_c, 7, 51, 0
9, 31140, Note_on_c, 7, 50, 100
9, 31199, Note_on_c, 7, 50, 0
9, 31260, Note_on_c, 7, 43, 100
9, 31319, Note_on_c, 7, 43, 0
9, 31320, Note_on_c, 7, 48, 100
9, 31379, Note_on_c, 7, 48, 0
9, 31440, Note_on_c, 7, 46, 100
9, 31499, Note_on_c, 7, 46, 0
9, 31500, Note_on_c, 7, 45, 100
9, 31559, Note_on_c, 7, 45, 0
9, 31620, Note_on_c, 7, 38, 100
9, 31679, Note_on_c, 7, 38, 0
9, 31680, Note_on_c, 7, 43, 100
9, 31739, Note_on_c, 7, 43, 0
9, 31800, Note_on_c, 7, 53, 100
9, 31859, Note_on_c, 7, 53, 0
9, 31860, Note_on_c, 7, 52, 100
9, 31919, Note_on_c, 7, 52, 0
9, 31980, Note_on_c, 7, 45, 100
9, 32039, Note_on_c, 7, 45, 0
9, 32040, Note_on_c, 7, 50, 100
9, 32099, Note_on_c, 7, 50, 0
9, 32160, Note_on_c, 7, 50, 100
9, 32219, Note_on_c, 7, 50, 0
9, 32220, Note_on_c, 7, 55, 100
9, 32279, Note_on_c, 7, 55, 0
9, 32340, Note_on_c, 7, 43, 100
9, 32399, Note_on_c, 7, 43, 0
9, 32400, Note_on_c, 7, 48, 100
9, 32459, Note_on_c, 7, 48, 0
9, 32520, Note_on_c, 7, 48, 100
9, 32579, Note_on_c, 7, 48, 0
9, 32580, Note_on_c, 7, 53, 100
9, 32639, Note_on_c, 7, 53, 0
9, 32700, Note_on_c, 7, 41, 100
9, 32759, Note_on_c, 7, 41, 0
9, 32760, Note_on_c, 7, 46, 100
9, 32819, Note_on_c, 7, 46, 0
9, 32880, Note_on_c, 7, 46, 100
9, 32939, Note_on_c, 7, 46, 0
9, 32940, Note_on_c, 7, 51, 100
9, 32999, Note_on_c, 7, 51, 0
9, 33060, Note_on_c, 7, 50, 100
9, 33119, Note_on_c, 7, 50, 0
9, 33120, Note_on_c, 7, 55, 100
9, 33179, Note_on_c, 7, 55, 0
9, 33240, Note_on_c, 7, 49, 100
9, 33299, Note_on_c, 7, 49, 0
9, 33300, Note_on_c, 7, 54, 100
9, 33359, Note_on_c, 7, 54, 0
9, 33420, Note_on_c, 7, 50, 100
9, 33479, Note_on_c, 7, 50, 0
9, 33480, Note_on_c, 7, 55, 100
9, 33539, Note_on_c, 7, 55, 0
9, 33900, Note_on_c, 7, 55, 100
9, 33959, Note_on_c, 7, 55, 0
9, 33960, Note_on_c, 7, 57, 100
9, 34019, Note_on_c, 7, 57, 0
9, 34020, Note_on_c, 7, 58, 100
9, 34079, Note_on_c, 7, 58, 0
9, 34080, Note_on_c, 7, 55, 100
9, 34080, Note_on_c, 7, 58, 100
9, 34139, Note_on_c, 7, 58, 0
9, 34139, Note_on_c, 7, 55, 0
9, 34140, Note_on_c, 7, 57, 100
9, 34140, Note_on_c, 7, 60, 100
9, 34199, Note_on_c, 7, 60, 0
9, 34199, Note_on_c, 7, 57, 0
9, 34200, Note_on_c, 7, 58, 100
9, 34200, Note_on_c, 7, 62, 100
9, 34259, Note_on_c, 7, 62, 0
9, 34259, Note_on_c, 7, 58, 0
9, 34260, Note_on_c, 7, 58, 100
9, 34260, Note_on_c, 7, 62, 100
9, 34319, Note_on_c, 7, 62, 0
9, 34319, Note_on_c, 7, 58, 0
9, 34320, Note_on_c, 7, 60, 100
9, 34320, Note_on_c, 7, 63, 100
9, 34379, Note_on_c, 7, 63, 0
9, 34379, Note_on_c, 7, 60, 0
9, 34380, Note_on_c, 7, 62, 100
9, 34439, Note_on_c, 7, 62, 0
9, 34440, Note_on_c, 7, 60, 100
9, 34469, Note_on_c, 7, 60, 0
9, 34470, Note_on_c, 7, 58, 100
9, 34499, Note_on_c, 7, 58, 0
9, 34500, Note_on_c, 7, 57, 100
9, 34529, Note_on_c, 7, 57, 0
9, 34530, Note_on_c, 7, 55, 100
9, 34559, Note_on_c, 7, 55, 0
9, 34560, Note_on_c, 7, 54, 100
9, 34619, Note_on_c, 7, 54, 0
9, 34620, Note_on_c, 7, 50, 100
9, 34649, Note_on_c, 7, 50, 0
9, 34650, Note_on_c, 7, 52, 100
9, 34679, Note_on_c, 7, 52, 0
9, 34680, Note_on_c, 7, 54, 100
9, 34709, Note_on_c, 7, 54, 0
9, 34710, Note_on_c, 7, 55, 100
9, 34739, Note_on_c, 7, 55, 0
9, 34740, Note_on_c, 7, 57, 100
9, 34799, Note_on_c, 7, 57, 0
9, 34800, Note_on_c, 7, 57, 100
9, 34859, Note_on_c, 7, 57, 0
9, 34860, Note_on_c, 7, 58, 100
9, 34919, Note_on_c, 7, 58, 0
9, 34920, Note_on_c, 7, 57, 100
9, 34979, Note_on_c, 7, 57, 0
9, 34980, Note_on_c, 7, 50, 100
9, 35009, Note_on_c, 7, 50, 0
9, 35010, Note_on_c, 7, 52, 100
9, 35039, Note_on_c, 7, 52, 0
9, 35040, Note_on_c, 7, 54, 100
9, 35069, Note_on_c, 7, 54, 0
9, 35070, Note_on_c, 7, 55, 100
9, 35099, Note_on_c, 7, 55, 0
9, 35100, Note_on_c, 7, 57, 100
9, 35159, Note_on_c, 7, 57, 0
9, 35160, Note_on_c, 7, 57, 100
9, 35219, Note_on_c, 7, 57, 0
9, 35220, Note_on_c, 7, 58, 100
9, 35279, Note_on_c, 7, 58, 0
9, 35280, Note_on_c, 7, 58, 100
9, 35299, Note_on_c, 7, 58, 0
9, 35300, Note_on_c, 7, 57, 100
9, 35319, Note_on_c, 7, 57, 0
9, 35320, Note_on_c, 7, 58, 100
9, 35339, Note_on_c, 7, 58, 0
9, 35340, Note_on_c, 7, 57, 100
9, 35354, Note_on_c, 7, 57, 0
9, 35355, Note_on_c, 7, 58, 100
9, 35369, Note_on_c, 7, 58, 0
9, 35370, Note_on_c, 7, 57, 100
9, 35384, Note_on_c, 7, 57, 0
9, 35385, Note_on_c, 7, 58, 100
9, 35399, Note_on_c, 7, 58, 0
9, 35400, Note_on_c, 7, 57, 100
9, 35409, Note_on_c, 7, 57, 0
9, 35410, Note_on_c, 7, 58, 100
9, 35419, Note_on_c, 7, 58, 0
9, 35420, Note_on_c, 7, 57, 100
9, 35429, Note_on_c, 7, 57, 0
9, 35430, Note_on_c, 7, 58, 100
9, 35439, Note_on_c, 7, 58, 0
9, 35440, Note_on_c, 7, 57, 100
9, 35449, Note_on_c, 7, 57, 0
9, 35450, Note_on_c, 7, 58, 100
9, 35459, Note_on_c, 7, 58, 0
9, 35460, Note_on_c, 7, 57, 100
9, 35469, Note_on_c, 7, 57, 0
9, 35470, Note_on_c, 7, 58, 100
9, 35479, Note_on_c, 7, 58, 0
9, 35480, Note_on_c, 7, 57, 100
9, 35489, Note_on_c, 7, 57, 0
9, 35490, Note_on_c, 7, 58, 100
9, 35499, Note_on_c, 7, 58, 0
9, 35500, Note_on_c, 7, 57, 100
9, 35509, Note_on_c, 7, 57, 0
9, 35510, Note_on_c, 7, 58, 100
9, 35519, Note_on_c, 7, 58, 0
9, 35520, Note_on_c, 7, 57, 100
9, 35529, Note_on_c, 7, 57, 0
9, 35530, Note_on_c, 7, 58, 100
9, 35539, Note_on_c, 7, 58, 0
9, 35540, Note_on_c, 7, 57, 100
9, 35549, Note_on_c, 7, 57, 0
9, 35550, Note_on_c, 7, 58, 100
9, 35559, Note_on_c, 7, 58, 0
9, 35560, Note_on_c, 7, 57, 100
9, 35569, Note_on_c, 7, 57, 0
9, 35570, Note_on_c, 7, 58, 100
9, 35579, Note_on_c, 7, 58, 0
9, 35580, Note_on_c, 7, 57, 100
9, 35589, Note_on_c, 7, 57, 0
9, 35590, Note_on_c, 7, 58, 100
9, 35599, Note_on_c, 7, 58, 0
9, 35600, Note_on_c, 7, 57, 100
9, 35609, Note_on_c, 7, 57, 0
9, 35610, Note_on_c, 7, 58, 100
9, 35619, Note_on_c, 7, 58, 0
9, 35620, Note_on_c, 7, 57, 100
9, 35629, Note_on_c, 7, 57, 0
9, 35630, Note_on_c, 7, 58, 100
9, 35639, Note_on_c, 7, 58, 0
9, 35640, Note_on_c, 7, 57, 100
9, 35649, Note_on_c, 7, 57, 0
9, 35650, Note_on_c, 7, 58, 100
9, 35659, Note_on_c, 7, 58, 0
9, 35660, Note_on_c, 7, 57, 100
9, 35669, Note_on_c, 7, 57, 0
9, 35670, Note_on_c, 7, 58, 100
9, 35679, Note_on_c, 7, 58, 0
9, 35680, Note_on_c, 7, 57, 100
9, 35689, Note_on_c, 7, 57, 0
9, 35690, Note_on_c, 7, 58, 100
9, 35699, Note_on_c, 7, 58, 0
9, 35700, Note_on_c, 7, 57, 100
9, 35709, Note_on_c, 7, 57, 0
9, 35710, Note_on_c, 7, 58, 100
9, 35719, Note_on_c, 7, 58, 0
9, 35720, Note_on_c, 7, 57, 100
9, 35729, Note_on_c, 7, 57, 0
9, 35730, Note_on_c, 7, 58, 100
9, 35739, Note_on_c, 7, 58, 0
9, 35740, Note_on_c, 7, 57, 100
9, 35749, Note_on_c, 7, 57, 0
9, 35750, Note_on_c, 7, 58, 100
9, 35759, Note_on_c, 7, 58, 0
9, 35760, Note_on_c, 7, 57, 100
9, 35774, Note_on_c, 7, 57, 0
9, 35775, Note_on_c, 7, 58, 100
9, 35789, Note_on_c, 7, 58, 0
9, 35790, Note_on_c, 7, 55, 100
9, 35804, Note_on_c, 7, 55, 0
9, 35805, Note_on_c, 7, 57, 100
9, 35819, Note_on_c, 7, 57, 0
9, 35820, Note_on_c, 7, 58, 100
9, 35879, Note_on_c, 7, 58, 0
9, 36240, Note_on_c, 7, 62, 100
9, 36299, Note_on_c, 7, 62, 0
9, 36300, Note_on_c, 7, 50, 100
9, 36359, Note_on_c, 7, 50, 0
9, 36360, Note_on_c, 7, 55, 100
9, 36419, Note_on_c, 7, 55, 0
9, 36420, Note_on_c, 7, 67, 100
9, 36479, Note_on_c, 7, 67, 0
9, 36480, Note_on_c, 7, 65, 100
9, 36539, Note_on_c, 7, 65, 0
9, 36540, Note_on_c, 7, 64, 100
9, 36599, Note_on_c, 7, 64, 0
9, 36600, Note_on_c, 7, 64, 100
9, 36659, Note_on_c, 7, 64, 0
9, 36660, Note_on_c, 7, 62, 100
9, 36719, Note_on_c, 7, 62, 0
9, 36720, Note_on_c, 7, 61, 100
9, 36779, Note_on_c, 7, 61, 0
9, 36780, Note_on_c, 7, 57, 100
9, 36839, Note_on_c, 7, 57, 0
9, 36840, Note_on_c, 7, 55, 100
9, 36899, Note_on_c, 7, 55, 0
9, 36900, Note_on_c, 7, 53, 100
9, 36959, Note_on_c, 7, 53, 0
9, 36960, Note_on_c, 7, 53, 100
9, 37019, Note_on_c, 7, 53, 0
9, 37020, Note_on_c, 7, 52, 100
9, 37079, Note_on_c, 7, 52, 0
9, 37080, Note_on_c, 7, 50, 100
9, 37199, Note_on_c, 7, 50, 0
9, 37290, Note_on_c, 7, 50, 100
9, 37319, Note_on_c, 7, 50, 0
9, 37320, Note_on_c, 7, 53, 100
9, 37349, Note_on_c, 7, 53, 0
9, 37350, Note_on_c, 7, 57, 100
9, 37379, Note_on_c, 7, 57, 0
9, 37380, Note_on_c, 7, 53, 100
9, 37409, Note_on_c, 7, 53, 0
9, 37410, Note_on_c, 7, 50, 100
9, 37439, Note_on_c, 7, 50, 0
9, 37440, Note_on_c, 7, 59, 100
9, 37499, Note_on_c, 7, 59, 0
9, 37500, Note_on_c, 7, 52, 100
9, 37559, Note_on_c, 7, 52, 0
9, 37560, Note_on_c, 7, 50, 100
9, 37619, Note_on_c, 7, 50, 0
9, 37620, Note_on_c, 7, 49, 100
9, 37679, Note_on_c, 7, 49, 0
9, 37680, Note_on_c, 7, 49, 100
9, 37739, Note_on_c, 7, 49, 0
9, 37740, Note_on_c, 7, 47, 100
9, 37799, Note_on_c, 7, 47, 0
9, 37800, Note_on_c, 7, 45, 100
9, 37859, Note_on_c, 7, 45, 0
9, 37860, Note_on_c, 7, 64, 100
9, 37919, Note_on_c, 7, 64, 0
9, 37920, Note_on_c, 7, 62, 100
9, 37979, Note_on_c, 7, 62, 0
9, 37980, Note_on_c, 7, 57, 100
9, 38010, Note_on_c, 7, 57, 0
9, 38010, Note_on_c, 7, 60, 100
9, 38040, Note_on_c, 7, 60, 0
9, 38040, Note_on_c, 7, 57, 100
9, 38070, Note_on_c, 7, 57, 0
9, 38070, Note_on_c, 7, 54, 100
9, 38100, Note_on_c, 7, 54, 0
9, 38100, Note_on_c, 7, 50, 100
9, 38130, Note_on_c, 7, 50, 0
9, 38130, Note_on_c, 7, 54, 100
9, 38160, Note_on_c, 7, 54, 0
9, 38160, Note_on_c, 7, 55, 100
9, 38219, Note_on_c, 7, 55, 0
9, 38220, Note_on_c, 7, 62, 100
9, 38279, Note_on_c, 7, 62, 0
9, 38280, Note_on_c, 7, 58, 100
9, 38339, Note_on_c, 7, 58, 0
9, 38340, Note_on_c, 7, 55, 100
9, 38369, Note_on_c, 7, 55, 0
9, 38370, Note_on_c, 7, 58, 100
9, 38399, Note_on_c, 7, 58, 0
9, 38400, Note_on_c, 7, 55, 100
9, 38429, Note_on_c, 7, 55, 0
9, 38430, Note_on_c, 7, 52, 100
9, 38459, Note_on_c, 7, 52, 0
9, 38460, Note_on_c, 7, 48, 100
9, 38489, Note_on_c, 7, 48, 0
9, 38490, Note_on_c, 7, 52, 100
9, 38519, Note_on_c, 7, 52, 0
9, 38520, Note_on_c, 7, 53, 100
9, 38579, Note_on_c, 7, 53, 0
9, 38580, Note_on_c, 7, 60, 100
9, 38639, Note_on_c, 7, 60, 0
9, 38640, Note_on_c, 7, 57, 100
9, 38699, Note_on_c, 7, 57, 0
9, 38700, Note_on_c, 7, 53, 100
9, 38729, Note_on_c, 7, 53, 0
9, 38730, Note_on_c, 7, 57, 100
9, 38759, Note_on_c, 7, 57, 0
9, 38760, Note_on_c, 7, 53, 100
9, 38789, Note_on_c, 7, 53, 0
9, 38790, Note_on_c, 7, 50, 100
9, 38819, Note_on_c, 7, 50, 0
9, 38820, Note_on_c, 7, 46, 100
9, 38849, Note_on_c, 7, 46, 0
9, 38850, Note_on_c, 7, 50, 100
9, 38879, Note_on_c, 7, 50, 0
9, 38880, Note_on_c, 7, 52, 100
9, 38939, Note_on_c, 7, 52, 0
9, 38940, Note_on_c, 7, 58, 100
9, 38999, Note_on_c, 7, 58, 0
9, 39000, Note_on_c, 7, 55, 100
9, 39059, Note_on_c, 7, 55, 0
9, 39060, Note_on_c, 7, 52, 100
9, 39119, Note_on_c, 7, 52, 0
9, 39120, Note_on_c, 7, 55, 100
9, 39179, Note_on_c, 7, 55, 0
9, 39180, Note_on_c, 7, 57, 100
9, 39239, Note_on_c, 7, 57, 0
9, 39240, Note_on_c, 7, 50, 100
9, 39240, Note_on_c, 7, 38, 100
9, 39299, Note_on_c, 7, 38, 0
9, 39299, Note_on_c, 7, 50, 0
9, 39600, Note_on_c, 7, 50, 100
9, 39600, Note_on_c, 7, 38, 100
9, 39659, Note_on_c, 7, 38, 0
9, 39659, Note_on_c, 7, 50, 0
9, 39960, Note_on_c, 7, 38, 100
9, 39960, Note_on_c, 7, 50, 100
9, 40019, Note_on_c, 7, 50, 0
9, 40019, Note_on_c, 7, 38, 0
9, 40320, Note_on_c, 7, 43, 100
9, 40379, Note_on_c, 7, 43, 0
9, 41940, Note_on_c, 7, 57, 100
9, 41999, Note_on_c, 7, 57, 0
9, 42300, Note_on_c, 7, 57, 100
9, 42359, Note_on_c, 7, 57, 0
9, 42660, Note_on_c, 7, 57, 100
9, 42719, Note_on_c, 7, 57, 0
9, 42900, Note_on_c, 7, 57, 100
9, 42959, Note_on_c, 7, 57, 0
9, 43080, Note_on_c, 7, 57, 100
9, 43139, Note_on_c, 7, 57, 0
9, 43260, Note_on_c, 7, 57, 100
9, 43319, Note_on_c, 7, 57, 0
9, 43440, Note_on_c, 7, 57, 100
9, 43499, Note_on_c, 7, 57, 0
9, 43620, Note_on_c, 7, 57, 100
9, 43679, Note_on_c, 7, 57, 0
9, 43800, Note_on_c, 7, 57, 100
9, 43859, Note_on_c, 7, 57, 0
9, 43980, Note_on_c, 7, 58, 100
9, 44039, Note_on_c, 7, 58, 0
9, 44040, Note_on_c, 7, 46, 100
9, 44099, Note_on_c, 7, 46, 0
9, 44160, Note_on_c, 7, 59, 100
9, 44219, Note_on_c, 7, 59, 0
9, 44220, Note_on_c, 7, 47, 100
9, 44279, Note_on_c, 7, 47, 0
9, 44340, Note_on_c, 7, 57, 100
9, 44399, Note_on_c, 7, 57, 0
9, 44400, Note_on_c, 7, 55, 100
9, 44459, Note_on_c, 7, 55, 0
9, 44460, Note_on_c, 7, 53, 100
9, 44519, Note_on_c, 7, 53, 0
9, 44520, Note_on_c, 7, 53, 100
9, 44579, Note_on_c, 7, 53, 0
9, 44580, Note_on_c, 7, 52, 100
9, 44639, Note_on_c, 7, 52, 0
9, 44640, Note_on_c, 7, 50, 100
9, 44699, Note_on_c, 7, 50, 0
9, 45360, Note_on_c, 7, 62, 100
9, 45360, Note_on_c, 7, 65, 100
9, 45389, Note_on_c, 7, 65, 0
9, 45389, Note_on_c, 7, 62, 0
9, 45390, Note_on_c, 7, 69, 100
9, 45419, Note_on_c, 7, 69, 0
9, 45420, Note_on_c, 7, 67, 100
9, 45449, Note_on_c, 7, 67, 0
9, 45450, Note_on_c, 7, 65, 100
9, 45479, Note_on_c, 7, 65, 0
9, 45480, Note_on_c, 7, 64, 100
9, 45509, Note_on_c, 7, 64, 0
9, 45510, Note_on_c, 7, 62, 100
9, 45539, Note_on_c, 7, 62, 0
9, 45540, Note_on_c, 7, 61, 100
9, 45569, Note_on_c, 7, 61, 0
9, 45570, Note_on_c, 7, 59, 100
9, 45599, Note_on_c, 7, 59, 0
9, 45600, Note_on_c, 7, 61, 100
9, 45629, Note_on_c, 7, 61, 0
9, 45630, Note_on_c, 7, 62, 100
9, 45659, Note_on_c, 7, 62, 0
9, 45660, Note_on_c, 7, 61, 100
9, 45689, Note_on_c, 7, 61, 0
9, 45690, Note_on_c, 7, 62, 100
9, 45719, Note_on_c, 7, 62, 0
9, 45720, Note_on_c, 7, 64, 100
9, 45809, Note_on_c, 7, 64, 0
9, 45810, Note_on_c, 7, 62, 100
9, 45839, Note_on_c, 7, 62, 0
9, 45840, Note_on_c, 7, 61, 100
9, 45869, Note_on_c, 7, 61, 0
9, 45870, Note_on_c, 7, 59, 100
9, 45899, Note_on_c, 7, 59, 0
9, 45900, Note_on_c, 7, 57, 100
9, 45929, Note_on_c, 7, 57, 0
9, 45930, Note_on_c, 7, 55, 100
9, 45959, Note_on_c, 7, 55, 0
9, 45960, Note_on_c, 7, 57, 100
9, 45989, Note_on_c, 7, 57, 0
9, 45990, Note_on_c, 7, 58, 100
9, 46019, Note_on_c, 7, 58, 0
9, 46020, Note_on_c, 7, 57, 100
9, 46049, Note_on_c, 7, 57, 0
9, 46050, Note_on_c, 7, 59, 100
9, 46079, Note_on_c, 7, 59, 0
9, 46080, Note_on_c, 7, 61, 100
9, 46139, Note_on_c, 7, 61, 0
9, 46140, Note_on_c, 7, 45, 100
9, 46169, Note_on_c, 7, 45, 0
9, 46170, Note_on_c, 7, 47, 100
9, 46199, Note_on_c, 7, 47, 0
9, 46200, Note_on_c, 7, 49, 100
9, 46229, Note_on_c, 7, 49, 0
9, 46230, Note_on_c, 7, 50, 100
9, 46259, Note_on_c, 7, 50, 0
9, 46260, Note_on_c, 7, 52, 100
9, 46319, Note_on_c, 7, 52, 0
9, 46320, Note_on_c, 7, 52, 100
9, 46379, Note_on_c, 7, 52, 0
9, 46380, Note_on_c, 7, 53, 100
9, 46439, Note_on_c, 7, 53, 0
9, 46440, Note_on_c, 7, 52, 100
9, 46559, Note_on_c, 7, 52, 0
9, 46680, Note_on_c, 7, 69, 100
9, 46739, Note_on_c, 7, 69, 0
9, 46740, Note_on_c, 7, 65, 100
9, 46799, Note_on_c, 7, 65, 0
9, 46800, Note_on_c, 7, 62, 100
9, 46829, Note_on_c, 7, 62, 0
9, 46830, Note_on_c, 7, 55, 100
9, 46859, Note_on_c, 7, 55, 0
9, 46860, Note_on_c, 7, 58, 100
9, 46889, Note_on_c, 7, 58, 0
9, 46890, Note_on_c, 7, 62, 100
9, 46919, Note_on_c, 7, 62, 0
9, 46920, Note_on_c, 7, 58, 100
9, 46949, Note_on_c, 7, 58, 0
9, 46950, Note_on_c, 7, 55, 100
9, 46979, Note_on_c, 7, 55, 0
9, 46980, Note_on_c, 7, 60, 100
9, 47190, Note_on_c, 7, 60, 0
9, 47190, Note_on_c, 7, 53, 100
9, 47219, Note_on_c, 7, 53, 0
9, 47220, Note_on_c, 7, 57, 100
9, 47249, Note_on_c, 7, 57, 0
9, 47250, Note_on_c, 7, 60, 100
9, 47279, Note_on_c, 7, 60, 0
9, 47280, Note_on_c, 7, 57, 100
9, 47309, Note_on_c, 7, 57, 0
9, 47310, Note_on_c, 7, 53, 100
9, 47339, Note_on_c, 7, 53, 0
9, 47340, Note_on_c, 7, 58, 100
9, 47550, Note_on_c, 7, 58, 0
9, 47550, Note_on_c, 7, 52, 100
9, 47579, Note_on_c, 7, 52, 0
9, 47580, Note_on_c, 7, 55, 100
9, 47609, Note_on_c, 7, 55, 0
9, 47610, Note_on_c, 7, 58, 100
9, 47639, Note_on_c, 7, 58, 0
9, 47640, Note_on_c, 7, 55, 100
9, 47669, Note_on_c, 7, 55, 0
9, 47670, Note_on_c, 7, 52, 100
9, 47699, Note_on_c, 7, 52, 0
9, 47700, Note_on_c, 7, 57, 100
9, 47939, Note_on_c, 7, 57, 0
9, 47940, Note_on_c, 7, 58, 100
9, 47999, Note_on_c, 7, 58, 0
9, 48000, Note_on_c, 7, 57, 100
9, 48059, Note_on_c, 7, 57, 0
9, 48060, Note_on_c, 7, 55, 100
9, 48119, Note_on_c, 7, 55, 0
9, 48120, Note_on_c, 7, 57, 100
9, 48179, Note_on_c, 7, 57, 0
9, 48180, Note_on_c, 7, 58, 100
9, 48239, Note_on_c, 7, 58, 0
9, 48240, Note_on_c, 7, 53, 100
9, 48259, Note_on_c, 7, 53, 0
9, 48260, Note_on_c, 7, 52, 100
9, 48279, Note_on_c, 7, 52, 0
9, 48280, Note_on_c, 7, 53, 100
9, 48299, Note_on_c, 7, 53, 0
9, 48300, Note_on_c, 7, 52, 100
9, 48314, Note_on_c, 7, 52, 0
9, 48315, Note_on_c, 7, 53, 100
9, 48329, Note_on_c, 7, 53, 0
9, 48330, Note_on_c, 7, 52, 100
9, 48344, Note_on_c, 7, 52, 0
9, 48345, Note_on_c, 7, 53, 100
9, 48359, Note_on_c, 7, 53, 0
9, 48360, Note_on_c, 7, 52, 100
9, 48369, Note_on_c, 7, 52, 0
9, 48370, Note_on_c, 7, 53, 100
9, 48379, Note_on_c, 7, 53, 0
9, 48380, Note_on_c, 7, 52, 100
9, 48389, Note_on_c, 7, 52, 0
9, 48390, Note_on_c, 7, 53, 100
9, 48399, Note_on_c, 7, 53, 0
9, 48400, Note_on_c, 7, 52, 100
9, 48409, Note_on_c, 7, 52, 0
9, 48410, Note_on_c, 7, 53, 100
9, 48419, Note_on_c, 7, 53, 0
9, 48420, Note_on_c, 7, 52, 100
9, 48429, Note_on_c, 7, 52, 0
9, 48430, Note_on_c, 7, 53, 100
9, 48439, Note_on_c, 7, 53, 0
9, 48440, Note_on_c, 7, 52, 100
9, 48449, Note_on_c, 7, 52, 0
9, 48450, Note_on_c, 7, 53, 100
9, 48459, Note_on_c, 7, 53, 0
9, 48460, Note_on_c, 7, 52, 100
9, 48469, Note_on_c, 7, 52, 0
9, 48470, Note_on_c, 7, 53, 100
9, 48479, Note_on_c, 7, 53, 0
9, 48480, Note_on_c, 7, 52, 100
9, 48489, Note_on_c, 7, 52, 0
9, 48490, Note_on_c, 7, 53, 100
9, 48499, Note_on_c, 7, 53, 0
9, 48500, Note_on_c, 7, 52, 100
9, 48509, Note_on_c, 7, 52, 0
9, 48510, Note_on_c, 7, 53, 100
9, 48519, Note_on_c, 7, 53, 0
9, 48520, Note_on_c, 7, 52, 100
9, 48529, Note_on_c, 7, 52, 0
9, 48530, Note_on_c, 7, 53, 100
9, 48539, Note_on_c, 7, 53, 0
9, 48540, Note_on_c, 7, 52, 100
9, 48549, Note_on_c, 7, 52, 0
9, 48550, Note_on_c, 7, 53, 100
9, 48559, Note_on_c, 7, 53, 0
9, 48560, Note_on_c, 7, 52, 100
9, 48569, Note_on_c, 7, 52, 0
9, 48570, Note_on_c, 7, 53, 100
9, 48579, Note_on_c, 7, 53, 0
9, 48580, Note_on_c, 7, 52, 100
9, 48589, Note_on_c, 7, 52, 0
9, 48590, Note_on_c, 7, 53, 100
9, 48599, Note_on_c, 7, 53, 0
9, 48600, Note_on_c, 7, 52, 100
9, 48609, Note_on_c, 7, 52, 0
9, 48610, Note_on_c, 7, 53, 100
9, 48619, Note_on_c, 7, 53, 0
9, 48620, Note_on_c, 7, 52, 100
9, 48629, Note_on_c, 7, 52, 0
9, 48630, Note_on_c, 7, 53, 100
9, 48639, Note_on_c, 7, 53, 0
9, 48640, Note_on_c, 7, 52, 100
9, 48649, Note_on_c, 7, 52, 0
9, 48650, Note_on_c, 7, 53, 100
9, 48659, Note_on_c, 7, 53, 0
9, 48660, Note_on_c, 7, 52, 100
9, 48669, Note_on_c, 7, 52, 0
9, 48670, Note_on_c, 7, 53, 100
9, 48679, Note_on_c, 7, 53, 0
9, 48680, Note_on_c, 7, 52, 100
9, 48689, Note_on_c, 7, 52, 0
9, 48690, Note_on_c, 7, 53, 100
9, 48699, Note_on_c, 7, 53, 0
9, 48700, Note_on_c, 7, 52, 100
9, 48709, Note_on_c, 7, 52, 0
9, 48710, Note_on_c, 7, 53, 100
9, 48719, Note_on_c, 7, 53, 0
9, 48720, Note_on_c, 7, 52, 100
9, 48729, Note_on_c, 7, 52, 0
9, 48730, Note_on_c, 7, 53, 100
9, 48739, Note_on_c, 7, 53, 0
9, 48740, Note_on_c, 7, 52, 100
9, 48749, Note_on_c, 7, 52, 0
9, 48750, Note_on_c, 7, 53, 100
9, 48759, Note_on_c, 7, 53, 0
9, 48760, Note_on_c, 7, 52, 100
9, 48769, Note_on_c, 7, 52, 0
9, 48770, Note_on_c, 7, 53, 100
9, 48779, Note_on_c, 7, 53, 0
9, 48780, Note_on_c, 7, 52, 100
9, 48789, Note_on_c, 7, 52, 0
9, 48790, Note_on_c, 7, 53, 100
9, 48799, Note_on_c, 7, 53, 0
9, 48800, Note_on_c, 7, 52, 100
9, 48809, Note_on_c, 7, 52, 0
9, 48810, Note_on_c, 7, 53, 100
9, 48819, Note_on_c, 7, 53, 0
9, 48820, Note_on_c, 7, 52, 100
9, 48829, Note_on_c, 7, 52, 0
9, 48830, Note_on_c, 7, 53, 100
9, 48839, Note_on_c, 7, 53, 0
9, 48840, Note_on_c, 7, 52, 100
9, 48849, Note_on_c, 7, 52, 0
9, 48850, Note_on_c, 7, 53, 100
9, 48859, Note_on_c, 7, 53, 0
9, 48860, Note_on_c, 7, 52, 100
9, 48869, Note_on_c, 7, 52, 0
9, 48870, Note_on_c, 7, 53, 100
9, 48879, Note_on_c, 7, 53, 0
9, 48880, Note_on_c, 7, 52, 100
9, 48889, Note_on_c, 7, 52, 0
9, 48890, Note_on_c, 7, 53, 100
9, 48899, Note_on_c, 7, 53, 0
9, 48900, Note_on_c, 7, 52, 100
9, 48909, Note_on_c, 7, 52, 0
9, 48910, Note_on_c, 7, 53, 100
9, 48919, Note_on_c, 7, 53, 0
9, 48920, Note_on_c, 7, 52, 100
9, 48929, Note_on_c, 7, 52, 0
9, 48930, Note_on_c, 7, 53, 100
9, 48939, Note_on_c, 7, 53, 0
9, 48940, Note_on_c, 7, 52, 100
9, 48949, Note_on_c, 7, 52, 0
9, 48950, Note_on_c, 7, 53, 100
9, 48959, Note_on_c, 7, 53, 0
9, 48960, Note_on_c, 7, 52, 100
9, 48989, Note_on_c, 7, 52, 0
9, 48990, Note_on_c, 7, 49, 100
9, 49019, Note_on_c, 7, 49, 0
9, 49020, Note_on_c, 7, 45, 100
9, 49049, Note_on_c, 7, 45, 0
9, 49050, Note_on_c, 7, 49, 100
9, 49079, Note_on_c, 7, 49, 0
9, 49080, Note_on_c, 7, 50, 100
9, 49139, Note_on_c, 7, 50, 0
9, 49170, Note_on_c, 7, 55, 100
9, 49199, Note_on_c, 7, 55, 0
9, 49200, Note_on_c, 7, 57, 100
9, 49259, Note_on_c, 7, 57, 0
9, 49260, Note_on_c, 7, 45, 100
9, 49319, Note_on_c, 7, 45, 0
9, 49320, Note_on_c, 7, 38, 100
9, 49379, Note_on_c, 7, 38, 0
9, 49380, Note_on_c, 7, 50, 100
9, 49439, Note_on_c, 7, 50, 0
9, 49440, Note_on_c, 7, 52, 100
9, 49499, Note_on_c, 7, 52, 0
9, 49500, Note_on_c, 7, 53, 100
9, 49559, Note_on_c, 7, 53, 0
9, 49560, Note_on_c, 7, 53, 100
9, 49619, Note_on_c, 7, 53, 0
9, 49620, Note_on_c, 7, 55, 100
9, 49679, Note_on_c, 7, 55, 0
9, 49680, Note_on_c, 7, 57, 100
9, 49739, Note_on_c, 7, 57, 0
9, 49740, Note_on_c, 7, 57, 100
9, 49799, Note_on_c, 7, 57, 0
9, 49800, Note_on_c, 7, 58, 100
9, 49859, Note_on_c, 7, 58, 0
9, 49860, Note_on_c, 7, 57, 100
9, 49919, Note_on_c, 7, 57, 0
9, 49920, Note_on_c, 7, 55, 100
9, 49949, Note_on_c, 7, 55, 0
9, 49950, Note_on_c, 7, 53, 100
9, 49979, Note_on_c, 7, 53, 0
9, 49980, Note_on_c, 7, 52, 100
9, 50009, Note_on_c, 7, 52, 0
9, 50010, Note_on_c, 7, 50, 100
9, 50039, Note_on_c, 7, 50, 0
9, 50040, Note_on_c, 7, 49, 100
9, 50099, Note_on_c, 7, 49, 0
9, 50100, Note_on_c, 7, 45, 100
9, 50129, Note_on_c, 7, 45, 0
9, 50130, Note_on_c, 7, 47, 100
9, 50159, Note_on_c, 7, 47, 0
9, 50160, Note_on_c, 7, 49, 100
9, 50189, Note_on_c, 7, 49, 0
9, 50190, Note_on_c, 7, 50, 100
9, 50219, Note_on_c, 7, 50, 0
9, 50220, Note_on_c, 7, 52, 100
9, 50279, Note_on_c, 7, 52, 0
9, 50280, Note_on_c, 7, 52, 100
9, 50339, Note_on_c, 7, 52, 0
9, 50340, Note_on_c, 7, 53, 100
9, 50399, Note_on_c, 7, 53, 0
9, 50400, Note_on_c, 7, 52, 100
9, 50459, Note_on_c, 7, 52, 0
9, 50460, Note_on_c, 7, 45, 100
9, 50489, Note_on_c, 7, 45, 0
9, 50490, Note_on_c, 7, 47, 100
9, 50519, Note_on_c, 7, 47, 0
9, 50520, Note_on_c, 7, 49, 100
9, 50549, Note_on_c, 7, 49, 0
9, 50550, Note_on_c, 7, 50, 100
9, 50579, Note_on_c, 7, 50, 0
9, 50580, Note_on_c, 7, 52, 100
9, 50639, Note_on_c, 7, 52, 0
9, 50640, Note_on_c, 7, 52, 100
9, 50699, Note_on_c, 7, 52, 0
9, 50700, Note_on_c, 7, 53, 100
9, 50759, Note_on_c, 7, 53, 0
9, 50760, Note_on_c, 7, 52, 100
9, 50819, Note_on_c, 7, 52, 0
9, 50820, Note_on_c, 7, 45, 100
9, 50849, Note_on_c, 7, 45, 0
9, 50850, Note_on_c, 7, 47, 100
9, 50879, Note_on_c, 7, 47, 0
9, 50880, Note_on_c, 7, 49, 100
9, 50909, Note_on_c, 7, 49, 0
9, 50910, Note_on_c, 7, 50, 100
9, 50939, Note_on_c, 7, 50, 0
9, 50940, Note_on_c, 7, 52, 100
9, 50969, Note_on_c, 7, 52, 0
9, 50970, Note_on_c, 7, 50, 100
9, 50999, Note_on_c, 7, 50, 0
9, 51000, Note_on_c, 7, 49, 100
9, 51029, Note_on_c, 7, 49, 0
9, 51030, Note_on_c, 7, 50, 100
9, 51059, Note_on_c, 7, 50, 0
9, 51060, Note_on_c, 7, 52, 100
9, 51089, Note_on_c, 7, 52, 0
9, 51090, Note_on_c, 7, 53, 100
9, 51119, Note_on_c, 7, 53, 0
9, 51120, Note_on_c, 7, 55, 100
9, 51149, Note_on_c, 7, 55, 0
9, 51150, Note_on_c, 7, 53, 100
9, 51179, Note_on_c, 7, 53, 0
9, 51180, Note_on_c, 7, 52, 100
9, 51209, Note_on_c, 7, 52, 0
9, 51210, Note_on_c, 7, 53, 100
9, 51239, Note_on_c, 7, 53, 0
9, 51240, Note_on_c, 7, 55, 100
9, 51269, Note_on_c, 7, 55, 0
9, 51270, Note_on_c, 7, 57, 100
9, 51299, Note_on_c, 7, 57, 0
9, 51300, Note_on_c, 7, 58, 100
9, 51329, Note_on_c, 7, 58, 0
9, 51330, Note_on_c, 7, 57, 100
9, 51359, Note_on_c, 7, 57, 0
9, 51360, Note_on_c, 7, 55, 100
9, 51389, Note_on_c, 7, 55, 0
9, 51390, Note_on_c, 7, 53, 100
9, 51419, Note_on_c, 7, 53, 0
9, 51420, Note_on_c, 7, 52, 100
9, 51449, Note_on_c, 7, 52, 0
9, 51450, Note_on_c, 7, 50, 100
9, 51479, Note_on_c, 7, 50, 0
9, 51480, Note_on_c, 7, 49, 100
9, 51509, Note_on_c, 7, 49, 0
9, 51510, Note_on_c, 7, 52, 100
9, 51539, Note_on_c, 7, 52, 0
9, 51540, Note_on_c, 7, 45, 100
9, 51569, Note_on_c, 7, 45, 0
9, 51570, Note_on_c, 7, 49, 100
9, 51599, Note_on_c, 7, 49, 0
9, 51600, Note_on_c, 7, 50, 100
9, 51659, Note_on_c, 7, 50, 0
9, 51690, Note_on_c, 7, 43, 100
9, 51719, Note_on_c, 7, 43, 0
9, 51720, Note_on_c, 7, 45, 100
9, 51779, Note_on_c, 7, 45, 0
9, 51780, Note_on_c, 7, 45, 100
9, 51839, Note_on_c, 7, 45, 0
9, 51840, Note_on_c, 7, 38, 100
9, 51840, Note_on_c, 7, 50, 100
9, 52019, Note_on_c, 7, 50, 0
9, 52019, Note_on_c, 7, 38, 0
9, 52200, Note_on_c, 7, 53, 100
9, 52200, Note_on_c, 7, 60, 100
9, 52200, Note_on_c, 7, 57, 100
9, 52259, Note_on_c, 7, 57, 0
9, 52259, Note_on_c, 7, 60, 0
9, 52259, Note_on_c, 7, 53, 0
9, 52380, Note_on_c, 7, 58, 100
9, 52380, Note_on_c, 7, 55, 100
9, 52380, Note_on_c, 7, 64, 100
9, 52439, Note_on_c, 7, 64, 0
9, 52439, Note_on_c, 7, 55, 0
9, 52439, Note_on_c, 7, 58, 0
9, 52560, Note_on_c, 7, 53, 100
9, 52560, Note_on_c, 7, 60, 100
9, 52560, Note_on_c, 7, 65, 100
9, 52619, Note_on_c, 7, 65, 0
9, 52619, Note_on_c, 7, 60, 0
9, 52619, Note_on_c, 7, 53, 0
9, 52740, Note_on_c, 7, 53, 100
9, 52740, Note_on_c, 7, 57, 100
9, 52740, Note_on_c, 7, 60, 100
9, 52799, Note_on_c, 7, 60, 0
9, 52799, Note_on_c, 7, 57, 0
9, 52799, Note_on_c, 7, 53, 0
9, 52920, Note_on_c, 7, 53, 100
9, 52920, Note_on_c, 7, 62, 100
9, 52920, Note_on_c, 7, 59, 100
9, 52979, Note_on_c, 7, 59, 0
9, 52979, Note_on_c, 7, 62, 0
9, 52979, Note_on_c, 7, 53, 0
9, 53100, Note_on_c, 7, 54, 100
9, 53100, Note_on_c, 7, 57, 100
9, 53100, Note_on_c, 7, 60, 100
9, 53159, Note_on_c, 7, 60, 0
9, 53159, Note_on_c, 7, 57, 0
9, 53159, Note_on_c, 7, 54, 0
9, 53280, Note_on_c, 7, 62, 100
9, 53280, Note_on_c, 7, 55, 100
9, 53280, Note_on_c, 7, 67, 100
9, 53339, Note_on_c, 7, 67, 0
9, 53339, Note_on_c, 7, 55, 0
9, 53339, Note_on_c, 7, 62, 0
9, 53460, Note_on_c, 7, 55, 100
9, 53460, Note_on_c, 7, 59, 100
9, 53460, Note_on_c, 7, 62, 100
9, 53519, Note_on_c, 7, 62, 0
9, 53519, Note_on_c, 7, 59, 0
9, 53519, Note_on_c, 7, 55, 0
9, 53640, Note_on_c, 7, 56, 100
9, 53640, Note_on_c, 7, 59, 100
9, 53640, Note_on_c, 7, 62, 100
9, 53699, Note_on_c, 7, 62, 0
9, 53699, Note_on_c, 7, 59, 0
9, 53699, Note_on_c, 7, 56, 0
9, 53820, Note_on_c, 7, 69, 100
9, 53820, Note_on_c, 7, 60, 100
9, 53820, Note_on_c, 7, 57, 100
9, 53879, Note_on_c, 7, 57, 0
9, 53879, Note_on_c, 7, 60, 0
9, 53879, Note_on_c, 7, 69, 0
9, 54000, Note_on_c, 7, 60, 100
9, 54000, Note_on_c, 7, 52, 100
9, 54000, Note_on_c, 7, 55, 100
9, 54059, Note_on_c, 7, 55, 0
9, 54059, Note_on_c, 7, 52, 0
9, 54059, Note_on_c, 7, 60, 0
9, 54180, Note_on_c, 7, 63, 100
9, 54180, Note_on_c, 7, 60, 100
9, 54180, Note_on_c, 7, 54, 100
9, 54239, Note_on_c, 7, 54, 0
9, 54239, Note_on_c, 7, 60, 0
9, 54239, Note_on_c, 7, 63, 0
9, 54360, Note_on_c, 7, 63, 100
9, 54360, Note_on_c, 7, 60, 100
9, 54360, Note_on_c, 7, 55, 100
9, 54419, Note_on_c, 7, 55, 0
9, 54419, Note_on_c, 7, 60, 0
9, 54419, Note_on_c, 7, 63, 0
9, 54540, Note_on_c, 7, 65, 100
9, 54540, Note_on_c, 7, 62, 100
9, 54540, Note_on_c, 7, 55, 100
9, 54599, Note_on_c, 7, 55, 0
9, 54599, Note_on_c, 7, 62, 0
9, 54599, Note_on_c, 7, 65, 0
9, 54720, Note_on_c, 7, 60, 100
9, 54720, Note_on_c, 7, 64, 100
9, 54779, Note_on_c, 7, 64, 0
9, 54779, Note_on_c, 7, 60, 0
9, 54930, Note_on_c, 7, 62, 100
9, 54959, Note_on_c, 7, 62, 0
9, 54960, Note_on_c, 7, 60, 100
9, 54989, Note_on_c, 7, 60, 0
9, 54990, Note_on_c, 7, 58, 100
9, 55019, Note_on_c, 7, 58, 0
9, 55020, Note_on_c, 7, 57, 100
9, 55049, Note_on_c, 7, 57, 0
9, 55050, Note_on_c, 7, 55, 100
9, 55079, Note_on_c, 7, 55, 0
9, 55080, Note_on_c, 7, 53, 100
9, 55110, Note_on_c, 7, 53, 0
9, 55140, Note_on_c, 7, 41, 100
9, 55170, Note_on_c, 7, 41, 0
9, 55260, Note_on_c, 7, 53, 100
9, 55290, Note_on_c, 7, 53, 0
9, 55320, Note_on_c, 7, 41, 100
9, 55350, Note_on_c, 7, 41, 0
9, 55440, Note_on_c, 7, 53, 100
9, 55470, Note_on_c, 7, 53, 0
9, 55500, Note_on_c, 7, 41, 100
9, 55530, Note_on_c, 7, 41, 0
9, 55620, Note_on_c, 7, 53, 100
9, 55650, Note_on_c, 7, 53, 0
9, 55680, Note_on_c, 7, 41, 100
9, 55710, Note_on_c, 7, 41, 0
9, 55800, Note_on_c, 7, 53, 100
9, 55830, Note_on_c, 7, 53, 0
9, 55860, Note_on_c, 7, 41, 100
9, 55890, Note_on_c, 7, 41, 0
9, 55980, Note_on_c, 7, 54, 100
9, 56010, Note_on_c, 7, 54, 0
9, 56040, Note_on_c, 7, 42, 100
9, 56070, Note_on_c, 7, 42, 0
9, 56160, Note_on_c, 7, 55, 100
9, 56190, Note_on_c, 7, 55, 0
9, 56220, Note_on_c, 7, 43, 100
9, 56250, Note_on_c, 7, 43, 0
9, 56340, Note_on_c, 7, 55, 100
9, 56370, Note_on_c, 7, 55, 0
9, 56400, Note_on_c, 7, 43, 100
9, 56430, Note_on_c, 7, 43, 0
9, 56520, Note_on_c, 7, 56, 100
9, 56550, Note_on_c, 7, 56, 0
9, 56580, Note_on_c, 7, 44, 100
9, 56610, Note_on_c, 7, 44, 0
9, 56700, Note_on_c, 7, 57, 100
9, 56730, Note_on_c, 7, 57, 0
9, 56760, Note_on_c, 7, 45, 100
9, 56790, Note_on_c, 7, 45, 0
9, 56880, Note_on_c, 7, 52, 100
9, 56910, Note_on_c, 7, 52, 0
9, 56940, Note_on_c, 7, 40, 100
9, 56970, Note_on_c, 7, 40, 0
9, 57060, Note_on_c, 7, 54, 100
9, 57090, Note_on_c, 7, 54, 0
9, 57120, Note_on_c, 7, 42, 100
9, 57150, Note_on_c, 7, 42, 0
9, 57240, Note_on_c, 7, 55, 100
9, 57270, Note_on_c, 7, 55, 0
9, 57300, Note_on_c, 7, 43, 100
9, 57330, Note_on_c, 7, 43, 0
9, 57420, Note_on_c, 7, 55, 100
9, 57450, Note_on_c, 7, 55, 0
9, 57480, Note_on_c, 7, 43, 100
9, 57510, Note_on_c, 7, 43, 0
9, 57600, Note_on_c, 7, 48, 100
9, 57660, Note_on_c, 7, 48, 0
9, 57810, Note_on_c, 7, 62, 100
9, 57839, Note_on_c, 7, 62, 0
9, 57840, Note_on_c, 7, 60, 100
9, 57869, Note_on_c, 7, 60, 0
9, 57870, Note_on_c, 7, 58, 100
9, 57899, Note_on_c, 7, 58, 0
9, 57900, Note_on_c, 7, 57, 100
9, 57929, Note_on_c, 7, 57, 0
9, 57930, Note_on_c, 7, 55, 100
9, 57959, Note_on_c, 7, 55, 0
9, 57960, Note_on_c, 7, 57, 100
9, 57960, Note_on_c, 7, 60, 100
9, 58019, Note_on_c, 7, 60, 0
9, 58019, Note_on_c, 7, 57, 0
9, 58140, Note_on_c, 7, 55, 100
9, 58140, Note_on_c, 7, 63, 100
9, 58140, Note_on_c, 7, 67, 100
9, 58199, Note_on_c, 7, 67, 0
9, 58199, Note_on_c, 7, 63, 0
9, 58199, Note_on_c, 7, 55, 0
9, 58320, Note_on_c, 7, 54, 100
9, 58320, Note_on_c, 7, 62, 100
9, 58320, Note_on_c, 7, 57, 100
9, 58379, Note_on_c, 7, 57, 0
9, 58379, Note_on_c, 7, 62, 0
9, 58379, Note_on_c, 7, 54, 0
9, 58500, Note_on_c, 7, 62, 100
9, 58500, Note_on_c, 7, 54, 100
9, 58500, Note_on_c, 7, 50, 100
9, 58500, Note_on_c, 7, 57, 100
9, 58559, Note_on_c, 7, 57, 0
9, 58559, Note_on_c, 7, 62, 0
9, 58559, Note_on_c, 7, 54, 0
9, 58559, Note_on_c, 7, 50, 0
9, 58680, Note_on_c, 7, 55, 100
9, 58680, Note_on_c, 7, 58, 100
9, 58680, Note_on_c, 7, 62, 100
9, 58739, Note_on_c, 7, 62, 0
9, 58739, Note_on_c, 7, 58, 0
9, 58739, Note_on_c, 7, 55, 0
9, 58860, Note_on_c, 7, 48, 100
9, 58860, Note_on_c, 7, 55, 100
9, 58860, Note_on_c, 7, 60, 100
9, 58919, Note_on_c, 7, 60, 0
9, 58919, Note_on_c, 7, 55, 0
9, 58919, Note_on_c, 7, 48, 0
9, 59040, Note_on_c, 7, 54, 100
9, 59040, Note_on_c, 7, 50, 100
9, 59040, Note_on_c, 7, 57, 100
9, 59099, Note_on_c, 7, 57, 0
9, 59099, Note_on_c, 7, 50, 0
9, 59099, Note_on_c, 7, 54, 0
9, 59220, Note_on_c, 7, 60, 100
9, 59220, Note_on_c, 7, 57, 100
9, 59220, Note_on_c, 7, 54, 100
9, 59279, Note_on_c, 7, 54, 0
9, 59279, Note_on_c, 7, 57, 0
9, 59279, Note_on_c, 7, 60, 0
9, 59400, Note_on_c, 7, 67, 100
9, 59400, Note_on_c, 7, 62, 100
9, 59400, Note_on_c, 7, 55, 100
9, 59459, Note_on_c, 7, 55, 0
9, 59459, Note_on_c, 7, 62, 0
9, 59459, Note_on_c, 7, 67, 0
9, 59580, Note_on_c, 7, 67, 100
9, 59580, Note_on_c, 7, 62, 100
9, 59580, Note_on_c, 7, 58, 100
9, 59639, Note_on_c, 7, 58, 0
9, 59639, Note_on_c, 7, 62, 0
9, 59639, Note_on_c, 7, 67, 0
9, 59760, Note_on_c, 7, 69, 100
9, 59760, Note_on_c, 7, 64, 100
9, 59760, Note_on_c, 7, 57, 100
9, 59819, Note_on_c, 7, 57, 0
9, 59819, Note_on_c, 7, 64, 0
9, 59819, Note_on_c, 7, 69, 0
9, 59940, Note_on_c, 7, 57, 100
9, 59940, Note_on_c, 7, 52, 100
9, 59940, Note_on_c, 7, 49, 100
9, 59999, Note_on_c, 7, 49, 0
9, 59999, Note_on_c, 7, 52, 0
9, 59999, Note_on_c, 7, 57, 0
9, 60120, Note_on_c, 7, 57, 100
9, 60120, Note_on_c, 7, 53, 100
9, 60120, Note_on_c, 7, 50, 100
9, 60179, Note_on_c, 7, 50, 0
9, 60179, Note_on_c, 7, 53, 0
9, 60179, Note_on_c, 7, 57, 0
9, 60300, Note_on_c, 7, 57, 100
9, 60300, Note_on_c, 7, 52, 100
9, 60300, Note_on_c, 7, 45, 100
9, 60359, Note_on_c, 7, 45, 0
9, 60359, Note_on_c, 7, 52, 0
9, 60359, Note_on_c, 7, 57, 0
9, 60480, Note_on_c, 7, 57, 100
9, 60480, Note_on_c, 7, 53, 100
9, 60480, Note_on_c, 7, 50, 100
9, 60539, Note_on_c, 7, 50, 0
9, 60539, Note_on_c, 7, 53, 0
9, 60539, Note_on_c, 7, 57, 0
9, 60690, Note_on_c, 7, 57, 100
9, 60719, Note_on_c, 7, 57, 0
9, 60720, Note_on_c, 7, 62, 100
9, 60749, Note_on_c, 7, 62, 0
9, 60750, Note_on_c, 7, 65, 100
9, 60779, Note_on_c, 7, 65, 0
9, 60780, Note_on_c, 7, 62, 100
9, 60809, Note_on_c, 7, 62, 0
9, 60810, Note_on_c, 7, 57, 100
9, 60839, Note_on_c, 7, 57, 0
9, 60840, Note_on_c, 7, 59, 100
9, 60840, Note_on_c, 7, 62, 100
9, 60899, Note_on_c, 7, 62, 0
9, 60899, Note_on_c, 7, 59, 0
9, 61020, Note_on_c, 7, 59, 100
9, 61020, Note_on_c, 7, 62, 100
9, 61020, Note_on_c, 7, 67, 100
9, 61079, Note_on_c, 7, 67, 0
9, 61079, Note_on_c, 7, 62, 0
9, 61079, Note_on_c, 7, 59, 0
9, 61200, Note_on_c, 7, 58, 100
9, 61200, Note_on_c, 7, 60, 100
9, 61200, Note_on_c, 7, 67, 100
9, 61259, Note_on_c, 7, 67, 0
9, 61259, Note_on_c, 7, 60, 0
9, 61259, Note_on_c, 7, 58, 0
9, 61380, Note_on_c, 7, 58, 100
9, 61380, Note_on_c, 7, 64, 100
9, 61380, Note_on_c, 7, 67, 100
9, 61439, Note_on_c, 7, 67, 0
9, 61439, Note_on_c, 7, 64, 0
9, 61439, Note_on_c, 7, 58, 0
9, 61560, Note_on_c, 7, 57, 100
9, 61560, Note_on_c, 7, 60, 100
9, 61560, Note_on_c, 7, 65, 100
9, 61619, Note_on_c, 7, 65, 0
9, 61619, Note_on_c, 7, 60, 0
9, 61619, Note_on_c, 7, 57, 0
9, 61740, Note_on_c, 7, 57, 100
9, 61740, Note_on_c, 7, 60, 100
9, 61740, Note_on_c, 7, 65, 100
9, 61799, Note_on_c, 7, 65, 0
9, 61799, Note_on_c, 7, 60, 0
9, 61799, Note_on_c, 7, 57, 0
9, 61920, Note_on_c, 7, 58, 100
9, 61920, Note_on_c, 7, 62, 100
9, 61920, Note_on_c, 7, 65, 100
9, 61979, Note_on_c, 7, 65, 0
9, 61979, Note_on_c, 7, 62, 0
9, 61979, Note_on_c, 7, 58, 0
9, 62100, Note_on_c, 7, 58, 100
9, 62100, Note_on_c, 7, 65, 100
9, 62159, Note_on_c, 7, 65, 0
9, 62159, Note_on_c, 7, 58, 0
9, 62280, Note_on_c, 7, 52, 100
9, 62280, Note_on_c, 7, 55, 100
9, 62280, Note_on_c, 7, 60, 100
9, 62339, Note_on_c, 7, 60, 0
9, 62339, Note_on_c, 7, 55, 0
9, 62339, Note_on_c, 7, 52, 0
9, 62460, Note_on_c, 7, 52, 100
9, 62460, Note_on_c, 7, 55, 100
9, 62460, Note_on_c, 7, 60, 100
9, 62519, Note_on_c, 7, 60, 0
9, 62519, Note_on_c, 7, 55, 0
9, 62519, Note_on_c, 7, 52, 0
9, 62640, Note_on_c, 7, 53, 100
9, 62640, Note_on_c, 7, 57, 100
9, 62640, Note_on_c, 7, 60, 100
9, 62699, Note_on_c, 7, 60, 0
9, 62699, Note_on_c, 7, 57, 0
9, 62699, Note_on_c, 7, 53, 0
9, 62820, Note_on_c, 7, 53, 100
9, 62820, Note_on_c, 7, 60, 100
9, 62820, Note_on_c, 7, 57, 100
9, 62879, Note_on_c, 7, 57, 0
9, 62879, Note_on_c, 7, 60, 0
9, 62879, Note_on_c, 7, 53, 0
9, 63000, Note_on_c, 7, 59, 100
9, 63000, Note_on_c, 7, 50, 100
9, 63000, Note_on_c, 7, 53, 100
9, 63059, Note_on_c, 7, 53, 0
9, 63059, Note_on_c, 7, 50, 0
9, 63059, Note_on_c, 7, 59, 0
9, 63180, Note_on_c, 7, 55, 100
9, 63180, Note_on_c, 7, 47, 100
9, 63180, Note_on_c, 7, 50, 100
9, 63239, Note_on_c, 7, 50, 0
9, 63239, Note_on_c, 7, 47, 0
9, 63239, Note_on_c, 7, 55, 0
9, 63360, Note_on_c, 7, 48, 100
9, 63360, Note_on_c, 7, 55, 100
9, 63360, Note_on_c, 7, 60, 100
9, 63419, Note_on_c, 7, 60, 0
9, 63419, Note_on_c, 7, 55, 0
9, 63419, Note_on_c, 7, 48, 0
9, 63540, Note_on_c, 7, 48, 100
9, 63540, Note_on_c, 7, 52, 100
9, 63540, Note_on_c, 7, 55, 100
9, 63599, Note_on_c, 7, 55, 0
9, 63599, Note_on_c, 7, 52, 0
9, 63599, Note_on_c, 7, 48, 0
9, 63720, Note_on_c, 7, 48, 100
9, 63720, Note_on_c, 7, 52, 100
9, 63720, Note_on_c, 7, 55, 100
9, 63779, Note_on_c, 7, 55, 0
9, 63779, Note_on_c, 7, 52, 0
9, 63779, Note_on_c, 7, 48, 0
9, 63900, Note_on_c, 7, 59, 100
9, 63900, Note_on_c, 7, 53, 100
9, 63900, Note_on_c, 7, 50, 100
9, 63900, Note_on_c, 7, 48, 100
9, 63959, Note_on_c, 7, 48, 0
9, 63959, Note_on_c, 7, 59, 0
9, 63959, Note_on_c, 7, 53, 0
9, 63959, Note_on_c, 7, 50, 0
9, 64080, Note_on_c, 7, 60, 100
9, 64080, Note_on_c, 7, 55, 100
9, 64080, Note_on_c, 7, 48, 100
9, 64139, Note_on_c, 7, 48, 0
9, 64139, Note_on_c, 7, 55, 0
9, 64139, Note_on_c, 7, 60, 0
9, 64260, Note_on_c, 7, 55, 100
9, 64260, Note_on_c, 7, 52, 100
9, 64260, Note_on_c, 7, 48, 100
9, 64319, Note_on_c, 7, 48, 0
9, 64319, Note_on_c, 7, 52, 0
9, 64319, Note_on_c, 7, 55, 0
9, 64440, Note_on_c, 7, 57, 100
9, 64440, Note_on_c, 7, 53, 100
9, 64440, Note_on_c, 7, 48, 100
9, 64499, Note_on_c, 7, 48, 0
9, 64499, Note_on_c, 7, 53, 0
9, 64499, Note_on_c, 7, 57, 0
9, 64620, Note_on_c, 7, 55, 100
9, 64620, Note_on_c, 7, 52, 100
9, 64620, Note_on_c, 7, 48, 100
9, 64679, Note_on_c, 7, 48, 0
9, 64679, Note_on_c, 7, 52, 0
9, 64679, Note_on_c, 7, 55, 0
9, 64800, Note_on_c, 7, 58, 100
9, 64800, Note_on_c, 7, 48, 100
9, 64800, Note_on_c, 7, 52, 100
9, 64859, Note_on_c, 7, 52, 0
9, 64859, Note_on_c, 7, 48, 0
9, 64859, Note_on_c, 7, 58, 0
9, 64980, Note_on_c, 7, 48, 100
9, 64980, Note_on_c, 7, 56, 100
9, 64980, Note_on_c, 7, 53, 100
9, 65039, Note_on_c, 7, 53, 0
9, 65039, Note_on_c, 7, 56, 0
9, 65039, Note_on_c, 7, 48, 0
9, 65160, Note_on_c, 7, 58, 100
9, 65160, Note_on_c, 7, 48, 100
9, 65219, Note_on_c, 7, 48, 0
9, 65219, Note_on_c, 7, 58, 0
9, 65340, Note_on_c, 7, 48, 100
9, 65340, Note_on_c, 7, 52, 100
9, 65340, Note_on_c, 7, 55, 100
9, 65399, Note_on_c, 7, 55, 0
9, 65399, Note_on_c, 7, 52, 0
9, 65399, Note_on_c, 7, 48, 0
9, 65520, Note_on_c, 7, 60, 100
9, 65520, Note_on_c, 7, 56, 100
9, 65520, Note_on_c, 7, 49, 100
9, 65579, Note_on_c, 7, 49, 0
9, 65579, Note_on_c, 7, 56, 0
9, 65579, Note_on_c, 7, 60, 0
9, 65700, Note_on_c, 7, 59, 100
9, 65700, Note_on_c, 7, 53, 100
9, 65700, Note_on_c, 7, 50, 100
9, 65759, Note_on_c, 7, 50, 0
9, 65759, Note_on_c, 7, 53, 0
9, 65759, Note_on_c, 7, 59, 0
9, 65880, Note_on_c, 7, 60, 100
9, 65880, Note_on_c, 7, 55, 100
9, 65880, Note_on_c, 7, 52, 100
9, 65939, Note_on_c, 7, 52, 0
9, 65939, Note_on_c, 7, 55, 0
9, 65939, Note_on_c, 7, 60, 0
9, 66000, Note_on_c, 7, 60, 100
9, 66000, Note_on_c, 7, 53, 100
9, 66059, Note_on_c, 7, 53, 0
9, 66059, Note_on_c, 7, 60, 0
9, 66060, Note_on_c, 7, 58, 100
9, 66060, Note_on_c, 7, 62, 100
9, 66119, Note_on_c, 7, 62, 0
9, 66119, Note_on_c, 7, 58, 0
9, 66120, Note_on_c, 7, 60, 100
9, 66179, Note_on_c, 7, 60, 0
9, 66180, Note_on_c, 7, 58, 100
9, 66180, Note_on_c, 7, 48, 100
9, 66239, Note_on_c, 7, 48, 0
9, 66239, Note_on_c, 7, 58, 0
9, 66240, Note_on_c, 7, 53, 100
9, 66240, Note_on_c, 7, 57, 100
9, 66299, Note_on_c, 7, 57, 0
9, 66299, Note_on_c, 7, 53, 0
9, 66450, Note_on_c, 7, 65, 100
9, 66479, Note_on_c, 7, 65, 0
9, 66480, Note_on_c, 7, 64, 100
9, 66509, Note_on_c, 7, 64, 0
9, 66510, Note_on_c, 7, 62, 100
9, 66539, Note_on_c, 7, 62, 0
9, 66540, Note_on_c, 7, 60, 100
9, 66569, Note_on_c, 7, 60, 0
9, 66570, Note_on_c, 7, 58, 100
9, 66599, Note_on_c, 7, 58, 0
9, 66600, Note_on_c, 7, 57, 100
9, 66659, Note_on_c, 7, 57, 0
9, 66660, Note_on_c, 7, 45, 100
9, 66719, Note_on_c, 7, 45, 0
9, 66780, Note_on_c, 7, 55, 100
9, 66839, Note_on_c, 7, 55, 0
9, 66840, Note_on_c, 7, 43, 100
9, 66899, Note_on_c, 7, 43, 0
9, 66960, Note_on_c, 7, 54, 100
9, 67019, Note_on_c, 7, 54, 0
9, 67020, Note_on_c, 7, 42, 100
9, 67079, Note_on_c, 7, 42, 0
9, 67140, Note_on_c, 7, 50, 100
9, 67199, Note_on_c, 7, 50, 0
9, 67200, Note_on_c, 7, 38, 100
9, 67259, Note_on_c, 7, 38, 0
9, 67320, Note_on_c, 7, 55, 100
9, 67379, Note_on_c, 7, 55, 0
9, 67380, Note_on_c, 7, 43, 100
9, 67439, Note_on_c, 7, 43, 0
9, 67500, Note_on_c, 7, 48, 100
9, 67559, Note_on_c, 7, 48, 0
9, 67560, Note_on_c, 7, 36, 100
9, 67619, Note_on_c, 7, 36, 0
9, 67680, Note_on_c, 7, 50, 100
9, 67739, Note_on_c, 7, 50, 0
9, 67740, Note_on_c, 7, 38, 100
9, 67799, Note_on_c, 7, 38, 0
9, 67860, Note_on_c, 7, 54, 100
9, 67919, Note_on_c, 7, 54, 0
9, 67920, Note_on_c, 7, 42, 100
9, 67979, Note_on_c, 7, 42, 0
9, 68040, Note_on_c, 7, 55, 100
9, 68099, Note_on_c, 7, 55, 0
9, 68100, Note_on_c, 7, 43, 100
9, 68159, Note_on_c, 7, 43, 0
9, 68220, Note_on_c, 7, 58, 100
9, 68279, Note_on_c, 7, 58, 0
9, 68280, Note_on_c, 7, 46, 100
9, 68339, Note_on_c, 7, 46, 0
9, 68400, Note_on_c, 7, 57, 100
9, 68459, Note_on_c, 7, 57, 0
9, 68460, Note_on_c, 7, 45, 100
9, 68519, Note_on_c, 7, 45, 0
9, 68580, Note_on_c, 7, 61, 100
9, 68639, Note_on_c, 7, 61, 0
9, 68640, Note_on_c, 7, 49, 100
9, 68699, Note_on_c, 7, 49, 0
9, 68760, Note_on_c, 7, 62, 100
9, 68819, Note_on_c, 7, 62, 0
9, 68820, Note_on_c, 7, 50, 100
9, 68879, Note_on_c, 7, 50, 0
9, 68940, Note_on_c, 7, 57, 100
9, 68999, Note_on_c, 7, 57, 0
9, 69000, Note_on_c, 7, 45, 100
9, 69059, Note_on_c, 7, 45, 0
9, 69120, Note_on_c, 7, 50, 100
9, 69299, Note_on_c, 7, 50, 0
9, 69330, Note_on_c, 7, 62, 100
9, 69359, Note_on_c, 7, 62, 0
9, 69360, Note_on_c, 7, 60, 100
9, 69389, Note_on_c, 7, 60, 0
9, 69390, Note_on_c, 7, 59, 100
9, 69419, Note_on_c, 7, 59, 0
9, 69420, Note_on_c, 7, 57, 100
9, 69449, Note_on_c, 7, 57, 0
9, 69450, Note_on_c, 7, 60, 100
9, 69479, Note_on_c, 7, 60, 0
9, 69480, Note_on_c, 7, 59, 100
9, 69539, Note_on_c, 7, 59, 0
9, 69540, Note_on_c, 7, 47, 100
9, 69599, Note_on_c, 7, 47, 0
9, 69660, Note_on_c, 7, 59, 100
9, 69719, Note_on_c, 7, 59, 0
9, 69720, Note_on_c, 7, 47, 100
9, 69779, Note_on_c, 7, 47, 0
9, 69840, Note_on_c, 7, 58, 100
9, 69899, Note_on_c, 7, 58, 0
9, 69900, Note_on_c, 7, 46, 100
9, 69959, Note_on_c, 7, 46, 0
9, 70020, Note_on_c, 7, 58, 100
9, 70079, Note_on_c, 7, 58, 0
9, 70080, Note_on_c, 7, 46, 100
9, 70139, Note_on_c, 7, 46, 0
9, 70200, Note_on_c, 7, 57, 100
9, 70259, Note_on_c, 7, 57, 0
9, 70260, Note_on_c, 7, 45, 100
9, 70319, Note_on_c, 7, 45, 0
9, 70380, Note_on_c, 7, 53, 100
9, 70439, Note_on_c, 7, 53, 0
9, 70440, Note_on_c, 7, 41, 100
9, 70499, Note_on_c, 7, 41, 0
9, 70560, Note_on_c, 7, 58, 100
9, 70619, Note_on_c, 7, 58, 0
9, 70620, Note_on_c, 7, 46, 100
9, 70679, Note_on_c, 7, 46, 0
9, 70740, Note_on_c, 7, 50, 100
9, 70799, Note_on_c, 7, 50, 0
9, 70800, Note_on_c, 7, 38, 100
9, 70859, Note_on_c, 7, 38, 0
9, 70920, Note_on_c, 7, 52, 100
9, 70979, Note_on_c, 7, 52, 0
9, 70980, Note_on_c, 7, 40, 100
9, 71039, Note_on_c, 7, 40, 0
9, 71100, Note_on_c, 7, 48, 100
9, 71159, Note_on_c, 7, 48, 0
9, 71160, Note_on_c, 7, 36, 100
9, 71219, Note_on_c, 7, 36, 0
9, 71280, Note_on_c, 7, 53, 100
9, 71339, Note_on_c, 7, 53, 0
9, 71340, Note_on_c, 7, 41, 100
9, 71399, Note_on_c, 7, 41, 0
9, 71460, Note_on_c, 7, 57, 100
9, 71519, Note_on_c, 7, 57, 0
9, 71520, Note_on_c, 7, 45, 100
9, 71579, Note_on_c, 7, 45, 0
9, 71640, Note_on_c, 7, 59, 100
9, 71699, Note_on_c, 7, 59, 0
9, 71700, Note_on_c, 7, 47, 100
9, 71759, Note_on_c, 7, 47, 0
9, 71820, Note_on_c, 7, 55, 100
9, 71879, Note_on_c, 7, 55, 0
9, 71880, Note_on_c, 7, 43, 100
9, 71939, Note_on_c, 7, 43, 0
9, 72000, Note_on_c, 7, 48, 100
9, 72059, Note_on_c, 7, 48, 0
9, 72060, Note_on_c, 7, 36, 100
9, 72119, Note_on_c, 7, 36, 0
9, 72180, Note_on_c, 7, 48, 100
9, 72239, Note_on_c, 7, 48, 0
9, 72240, Note_on_c, 7, 36, 100
9, 72299, Note_on_c, 7, 36, 0
9, 72360, Note_on_c, 7, 48, 100
9, 72419, Note_on_c, 7, 48, 0
9, 72420, Note_on_c, 7, 36, 100
9, 72479, Note_on_c, 7, 36, 0
9, 72540, Note_on_c, 7, 48, 100
9, 72599, Note_on_c, 7, 48, 0
9, 72600, Note_on_c, 7, 36, 100
9, 72659, Note_on_c, 7, 36, 0
9, 72720, Note_on_c, 7, 48, 100
9, 72779, Note_on_c, 7, 48, 0
9, 72780, Note_on_c, 7, 36, 100
9, 72839, Note_on_c, 7, 36, 0
9, 72900, Note_on_c, 7, 48, 100
9, 72959, Note_on_c, 7, 48, 0
9, 72960, Note_on_c, 7, 36, 100
9, 73019, Note_on_c, 7, 36, 0
9, 73080, Note_on_c, 7, 48, 100
9, 73139, Note_on_c, 7, 48, 0
9, 73140, Note_on_c, 7, 36, 100
9, 73199, Note_on_c, 7, 36, 0
9, 73260, Note_on_c, 7, 48, 100
9, 73319, Note_on_c, 7, 48, 0
9, 73320, Note_on_c, 7, 36, 100
9, 73379, Note_on_c, 7, 36, 0
9, 73440, Note_on_c, 7, 48, 100
9, 73499, Note_on_c, 7, 48, 0
9, 73500, Note_on_c, 7, 36, 100
9, 73559, Note_on_c, 7, 36, 0
9, 73620, Note_on_c, 7, 48, 100
9, 73679, Note_on_c, 7, 48, 0
9, 73680, Note_on_c, 7, 36, 100
9, 73739, Note_on_c, 7, 36, 0
9, 73800, Note_on_c, 7, 48, 100
9, 73859, Note_on_c, 7, 48, 0
9, 73860, Note_on_c, 7, 36, 100
9, 73919, Note_on_c, 7, 36, 0
9, 73980, Note_on_c, 7, 48, 100
9, 74039, Note_on_c, 7, 48, 0
9, 74040, Note_on_c, 7, 36, 100
9, 74099, Note_on_c, 7, 36, 0
9, 74160, Note_on_c, 7, 49, 100
9, 74219, Note_on_c, 7, 49, 0
9, 74220, Note_on_c, 7, 37, 100
9, 74279, Note_on_c, 7, 37, 0
9, 74340, Note_on_c, 7, 50, 100
9, 74399, Note_on_c, 7, 50, 0
9, 74400, Note_on_c, 7, 38, 100
9, 74459, Note_on_c, 7, 38, 0
9, 74520, Note_on_c, 7, 52, 100
9, 74579, Note_on_c, 7, 52, 0
9, 74580, Note_on_c, 7, 40, 100
9, 74639, Note_on_c, 7, 40, 0
9, 74640, Note_on_c, 7, 41, 100
9, 74699, Note_on_c, 7, 41, 0
9, 74700, Note_on_c, 7, 46, 100
9, 74759, Note_on_c, 7, 46, 0
9, 74760, Note_on_c, 7, 48, 100
9, 74819, Note_on_c, 7, 48, 0
9, 74820, Note_on_c, 7, 36, 100
9, 74879, Note_on_c, 7, 36, 0
9, 74880, Note_on_c, 7, 41, 110
9, 75180, Note_on_c, 7, 41, 0
9, 76140, Note_on_c, 7, 46, 110
9, 76320, Note_on_c, 7, 46, 0
9, 76320, Note_on_c, 7, 45, 110
9, 76680, Note_on_c, 7, 45, 0
9, 77040, Note_on_c, 7, 50, 100
9, 77099, Note_on_c, 7, 50, 0
9, 77160, Note_on_c, 7, 52, 100
9, 77219, Note_on_c, 7, 52, 0
9, 77280, Note_on_c, 7, 53, 100
9, 77339, Note_on_c, 7, 53, 0
9, 77400, Note_on_c, 7, 55, 100
9, 77459, Note_on_c, 7, 55, 0
9, 77520, Note_on_c, 7, 57, 100
9, 77579, Note_on_c, 7, 57, 0
9, 77580, Note_on_c, 7, 58, 100
9, 77639, Note_on_c, 7, 58, 0
9, 77640, Note_on_c, 7, 55, 100
9, 77699, Note_on_c, 7, 55, 0
9, 77700, Note_on_c, 7, 57, 100
9, 77759, Note_on_c, 7, 57, 0
9, 77760, Note_on_c, 7, 62, 100
9, 77819, Note_on_c, 7, 62, 0
9, 77820, Note_on_c, 7, 59, 100
9, 77879, Note_on_c, 7, 59, 0
9, 77880, Note_on_c, 7, 56, 100
9, 77939, Note_on_c, 7, 56, 0
9, 77940, Note_on_c, 7, 52, 100
9, 77999, Note_on_c, 7, 52, 0
9, 78000, Note_on_c, 7, 57, 100
9, 78089, Note_on_c, 7, 57, 0
9, 78090, Note_on_c, 7, 69, 100
9, 78119, Note_on_c, 7, 69, 0
9, 78120, Note_on_c, 7, 65, 100
9, 78149, Note_on_c, 7, 65, 0
9, 78150, Note_on_c, 7, 64, 100
9, 78179, Note_on_c, 7, 64, 0
9, 78180, Note_on_c, 7, 65, 100
9, 78209, Note_on_c, 7, 65, 0
9, 78210, Note_on_c, 7, 62, 100
9, 78239, Note_on_c, 7, 62, 0
9, 78240, Note_on_c, 7, 69, 100
9, 78269, Note_on_c, 7, 69, 0
9, 78270, Note_on_c, 7, 64, 100
9, 78299, Note_on_c, 7, 64, 0
9, 78300, Note_on_c, 7, 62, 100
9, 78329, Note_on_c, 7, 62, 0
9, 78330, Note_on_c, 7, 60, 100
9, 78359, Note_on_c, 7, 60, 0
9, 78360, Note_on_c, 7, 59, 100
9, 78389, Note_on_c, 7, 59, 0
9, 78390, Note_on_c, 7, 65, 100
9, 78419, Note_on_c, 7, 65, 0
9, 78420, Note_on_c, 7, 64, 100
9, 78449, Note_on_c, 7, 64, 0
9, 78450, Note_on_c, 7, 62, 100
9, 78479, Note_on_c, 7, 62, 0
9, 78480, Note_on_c, 7, 60, 100
9, 78509, Note_on_c, 7, 60, 0
9, 78510, Note_on_c, 7, 64, 100
9, 78539, Note_on_c, 7, 64, 0
9, 78540, Note_on_c, 7, 69, 100
9, 78629, Note_on_c, 7, 69, 0
9, 78630, Note_on_c, 7, 65, 100
9, 78659, Note_on_c, 7, 65, 0
9, 78660, Note_on_c, 7, 64, 100
9, 78689, Note_on_c, 7, 64, 0
9, 78690, Note_on_c, 7, 62, 100
9, 78719, Note_on_c, 7, 62, 0
9, 78720, Note_on_c, 7, 64, 100
9, 78749, Note_on_c, 7, 64, 0
9, 78750, Note_on_c, 7, 62, 100
9, 78779, Note_on_c, 7, 62, 0
9, 78780, Note_on_c, 7, 60, 100
9, 78809, Note_on_c, 7, 60, 0
9, 78810, Note_on_c, 7, 59, 100
9, 78839, Note_on_c, 7, 59, 0
9, 78840, Note_on_c, 7, 57, 100
9, 78869, Note_on_c, 7, 57, 0
9, 78870, Note_on_c, 7, 58, 100
9, 78899, Note_on_c, 7, 58, 0
9, 78900, Note_on_c, 7, 60, 100
9, 78929, Note_on_c, 7, 60, 0
9, 78930, Note_on_c, 7, 57, 100
9, 78959, Note_on_c, 7, 57, 0
9, 78960, Note_on_c, 7, 69, 100
9, 79019, Note_on_c, 7, 69, 0
9, 79020, Note_on_c, 7, 66, 100
9, 79079, Note_on_c, 7, 66, 0
9, 79080, Note_on_c, 7, 66, 100
9, 79139, Note_on_c, 7, 66, 0
9, 79140, Note_on_c, 7, 62, 100
9, 79199, Note_on_c, 7, 62, 0
9, 79200, Note_on_c, 7, 62, 100
9, 79229, Note_on_c, 7, 62, 0
9, 79230, Note_on_c, 7, 60, 100
9, 79259, Note_on_c, 7, 60, 0
9, 79260, Note_on_c, 7, 58, 100
9, 79289, Note_on_c, 7, 58, 0
9, 79290, Note_on_c, 7, 57, 100
9, 79319, Note_on_c, 7, 57, 0
9, 79320, Note_on_c, 7, 55, 100
9, 79349, Note_on_c, 7, 55, 0
9, 79350, Note_on_c, 7, 57, 100
9, 79379, Note_on_c, 7, 57, 0
9, 79380, Note_on_c, 7, 58, 100
9, 79409, Note_on_c, 7, 58, 0
9, 79410, Note_on_c, 7, 55, 100
9, 79439, Note_on_c, 7, 55, 0
9, 79440, Note_on_c, 7, 67, 100
9, 79499, Note_on_c, 7, 67, 0
9, 79500, Note_on_c, 7, 64, 100
9, 79559, Note_on_c, 7, 64, 0
9, 79560, Note_on_c, 7, 64, 100
9, 79619, Note_on_c, 7, 64, 0
9, 79620, Note_on_c, 7, 60, 100
9, 79679, Note_on_c, 7, 60, 0
9, 79680, Note_on_c, 7, 60, 100
9, 79739, Note_on_c, 7, 60, 0
9, 79740, Note_on_c, 7, 65, 100
9, 79859, Note_on_c, 7, 65, 0
9, 79860, Note_on_c, 7, 64, 100
9, 79979, Note_on_c, 7, 64, 0
9, 79980, Note_on_c, 7, 62, 100
9, 80099, Note_on_c, 7, 62, 0
9, 80100, Note_on_c, 7, 61, 100
9, 80159, Note_on_c, 7, 61, 0
9, 80160, Note_on_c, 7, 62, 100
9, 80219, Note_on_c, 7, 62, 0
9, 80220, Note_on_c, 7, 58, 100
9, 80279, Note_on_c, 7, 58, 0
9, 80280, Note_on_c, 7, 55, 100
9, 80339, Note_on_c, 7, 55, 0
9, 80340, Note_on_c, 7, 57, 100
9, 80400, Note_on_c, 7, 50, 100
9, 80459, Note_on_c, 7, 50, 0
9, 80459, Note_on_c, 7, 57, 0
9, 80520, Note_on_c, 7, 52, 100
9, 80520, Note_on_c, 7, 55, 100
9, 80579, Note_on_c, 7, 55, 0
9, 80579, Note_on_c, 7, 52, 0
9, 80640, Note_on_c, 7, 53, 100
9, 80699, Note_on_c, 7, 53, 0
9, 80700, Note_on_c, 7, 58, 100
9, 80700, Note_on_c, 7, 55, 100
9, 80729, Note_on_c, 7, 55, 0
9, 80730, Note_on_c, 7, 57, 100
9, 80759, Note_on_c, 7, 57, 0
9, 80760, Note_on_c, 7, 58, 0
9, 80760, Note_on_c, 7, 55, 100
9, 80819, Note_on_c, 7, 55, 0
9, 80820, Note_on_c, 7, 57, 100
9, 80849, Note_on_c, 7, 57, 0
9, 80850, Note_on_c, 7, 58, 100
9, 80879, Note_on_c, 7, 58, 0
9, 80880, Note_on_c, 7, 57, 100
9, 80939, Note_on_c, 7, 57, 0
9, 80940, Note_on_c, 7, 58, 100
9, 80969, Note_on_c, 7, 58, 0
9, 80970, Note_on_c, 7, 57, 100
9, 80999, Note_on_c, 7, 57, 0
9, 81000, Note_on_c, 7, 55, 100
9, 81059, Note_on_c, 7, 55, 0
9, 81060, Note_on_c, 7, 57, 100
9, 81119, Note_on_c, 7, 57, 0
9, 81120, Note_on_c, 7, 50, 100
9, 81179, Note_on_c, 7, 50, 0
9, 81240, Note_on_c, 7, 44, 100
9, 81299, Note_on_c, 7, 44, 0
9, 81300, Note_on_c, 7, 52, 100
9, 81359, Note_on_c, 7, 52, 0
9, 81360, Note_on_c, 7, 52, 100
9, 81360, Note_on_c, 7, 45, 100
9, 81419, Note_on_c, 7, 45, 0
9, 81419, Note_on_c, 7, 52, 0
9, 81420, Note_on_c, 7, 57, 100
9, 81480, Note_on_c, 7, 47, 100
9, 81539, Note_on_c, 7, 47, 0
9, 81539, Note_on_c, 7, 57, 0
9, 81540, Note_on_c, 7, 56, 100
9, 81599, Note_on_c, 7, 56, 0
9, 81600, Note_on_c, 7, 48, 100
9, 81600, Note_on_c, 7, 57, 100
9, 81659, Note_on_c, 7, 57, 0
9, 81659, Note_on_c, 7, 48, 0
9, 81660, Note_on_c, 7, 59, 100
9, 81720, Note_on_c, 7, 50, 100
9, 81779, Note_on_c, 7, 50, 0
9, 81779, Note_on_c, 7, 59, 0
9, 81780, Note_on_c, 7, 60, 100
9, 81840, Note_on_c, 7, 52, 100
9, 81900, Note_on_c, 7, 52, 0
9, 81900, Note_on_c, 7, 60, 0
9, 81900, Note_on_c, 7, 53, 100
9, 81900, Note_on_c, 7, 59, 100
9, 81930, Note_on_c, 7, 59, 0
9, 81930, Note_on_c, 7, 57, 100
9, 81960, Note_on_c, 7, 57, 0
9, 81960, Note_on_c, 7, 53, 0
9, 81960, Note_on_c, 7, 50, 100
9, 81960, Note_on_c, 7, 60, 100
9, 81990, Note_on_c, 7, 60, 0
9, 81990, Note_on_c, 7, 59, 100
9, 82020, Note_on_c, 7, 59, 0
9, 82020, Note_on_c, 7, 50, 0
9, 82020, Note_on_c, 7, 52, 100
9, 82020, Note_on_c, 7, 57, 100
9, 82050, Note_on_c, 7, 57, 0
9, 82050, Note_on_c, 7, 56, 100
9, 82080, Note_on_c, 7, 56, 0
9, 82080, Note_on_c, 7, 52, 0
9, 82080, Note_on_c, 7, 57, 100
9, 82080, Note_on_c, 7, 45, 100
9, 82140, Note_on_c, 7, 45, 0
9, 82140, Note_on_c, 7, 57, 0
9, 82140, Note_on_c, 7, 60, 100
9, 82169, Note_on_c, 7, 60, 0
9, 82170, Note_on_c, 7, 59, 100
9, 82199, Note_on_c, 7, 59, 0
9, 82200, Note_on_c, 7, 57, 100
9, 82229, Note_on_c, 7, 57, 0
9, 82230, Note_on_c, 7, 59, 100
9, 82259, Note_on_c, 7, 59, 0
9, 82260, Note_on_c, 7, 60, 100
9, 82289, Note_on_c, 7, 60, 0
9, 82290, Note_on_c, 7, 62, 100
9, 82319, Note_on_c, 7, 62, 0
9, 82320, Note_on_c, 7, 64, 100
9, 82349, Note_on_c, 7, 64, 0
9, 82350, Note_on_c, 7, 62, 100
9, 82379, Note_on_c, 7, 62, 0
9, 82380, Note_on_c, 7, 64, 100
9, 82409, Note_on_c, 7, 64, 0
9, 82410, Note_on_c, 7, 65, 100
9, 82439, Note_on_c, 7, 65, 0
9, 82440, Note_on_c, 7, 67, 100
9, 82469, Note_on_c, 7, 67, 0
9, 82470, Note_on_c, 7, 65, 100
9, 82499, Note_on_c, 7, 65, 0
9, 82500, Note_on_c, 7, 67, 100
9, 82529, Note_on_c, 7, 67, 0
9, 82530, Note_on_c, 7, 64, 100
9, 82559, Note_on_c, 7, 64, 0
9, 82560, Note_on_c, 7, 65, 100
9, 82589, Note_on_c, 7, 65, 0
9, 82590, Note_on_c, 7, 58, 100
9, 82619, Note_on_c, 7, 58, 0
9, 82620, Note_on_c, 7, 57, 100
9, 82649, Note_on_c, 7, 57, 0
9, 82650, Note_on_c, 7, 55, 100
9, 82679, Note_on_c, 7, 55, 0
9, 82680, Note_on_c, 7, 53, 100
9, 82709, Note_on_c, 7, 53, 0
9, 82710, Note_on_c, 7, 55, 100
9, 82739, Note_on_c, 7, 55, 0
9, 82740, Note_on_c, 7, 57, 100
9, 82769, Note_on_c, 7, 57, 0
9, 82770, Note_on_c, 7, 58, 100
9, 82799, Note_on_c, 7, 58, 0
9, 82800, Note_on_c, 7, 60, 100
9, 82829, Note_on_c, 7, 60, 0
9, 82830, Note_on_c, 7, 58, 100
9, 82859, Note_on_c, 7, 58, 0
9, 82860, Note_on_c, 7, 60, 100
9, 82889, Note_on_c, 7, 60, 0
9, 82890, Note_on_c, 7, 62, 100
9, 82919, Note_on_c, 7, 62, 0
9, 82920, Note_on_c, 7, 64, 100
9, 82949, Note_on_c, 7, 64, 0
9, 82950, Note_on_c, 7, 62, 100
9, 82979, Note_on_c, 7, 62, 0
9, 82980, Note_on_c, 7, 64, 100
9, 83009, Note_on_c, 7, 64, 0
9, 83010, Note_on_c, 7, 61, 100
9, 83039, Note_on_c, 7, 61, 0
9, 83040, Note_on_c, 7, 62, 100
9, 83069, Note_on_c, 7, 62, 0
9, 83070, Note_on_c, 7, 55, 100
9, 83099, Note_on_c, 7, 55, 0
9, 83100, Note_on_c, 7, 53, 100
9, 83129, Note_on_c, 7, 53, 0
9, 83130, Note_on_c, 7, 52, 100
9, 83159, Note_on_c, 7, 52, 0
9, 83160, Note_on_c, 7, 50, 100
9, 83189, Note_on_c, 7, 50, 0
9, 83190, Note_on_c, 7, 52, 100
9, 83219, Note_on_c, 7, 52, 0
9, 83220, Note_on_c, 7, 53, 100
9, 83249, Note_on_c, 7, 53, 0
9, 83250, Note_on_c, 7, 55, 100
9, 83279, Note_on_c, 7, 55, 0
9, 83280, Note_on_c, 7, 57, 100
9, 83280, Note_on_c, 7, 45, 100
9, 83339, Note_on_c, 7, 45, 0
9, 83339, Note_on_c, 7, 57, 0
9, 83340, Note_on_c, 7, 50, 100
9, 83459, Note_on_c, 7, 50, 0
9, 83460, Note_on_c, 7, 49, 100
9, 83519, Note_on_c, 7, 49, 0
9, 83520, Note_on_c, 7, 50, 100
9, 83579, Note_on_c, 7, 50, 0
9, 83580, Note_on_c, 7, 52, 100
9, 83699, Note_on_c, 7, 52, 0
9, 83700, Note_on_c, 7, 53, 100
9, 83819, Note_on_c, 7, 53, 0
9, 83820, Note_on_c, 7, 52, 100
9, 83849, Note_on_c, 7, 52, 0
9, 83850, Note_on_c, 7, 50, 100
9, 83879, Note_on_c, 7, 50, 0
9, 83880, Note_on_c, 7, 53, 100
9, 83909, Note_on_c, 7, 53, 0
9, 83910, Note_on_c, 7, 52, 100
9, 83939, Note_on_c, 7, 52, 0
9, 83940, Note_on_c, 7, 50, 100
9, 83969, Note_on_c, 7, 50, 0
9, 83970, Note_on_c, 7, 49, 100
9, 83999, Note_on_c, 7, 49, 0
9, 84000, Note_on_c, 7, 50, 100
9, 84059, Note_on_c, 7, 50, 0
9, 84060, Note_on_c, 7, 57, 100
9, 84119, Note_on_c, 7, 57, 0
9, 84120, Note_on_c, 7, 62, 100
9, 84179, Note_on_c, 7, 62, 0
9, 84180, Note_on_c, 7, 50, 100
9, 84239, Note_on_c, 7, 50, 0
9, 84240, Note_on_c, 7, 62, 100
9, 84299, Note_on_c, 7, 62, 0
9, 84300, Note_on_c, 7, 58, 100
9, 84419, Note_on_c, 7, 58, 0
9, 84420, Note_on_c, 7, 55, 100
9, 84479, Note_on_c, 7, 55, 0
9, 84480, Note_on_c, 7, 48, 100
9, 84539, Note_on_c, 7, 48, 0
9, 84540, Note_on_c, 7, 55, 100
9, 84599, Note_on_c, 7, 55, 0
9, 84600, Note_on_c, 7, 60, 100
9, 84659, Note_on_c, 7, 60, 0
9, 84660, Note_on_c, 7, 48, 100
9, 84719, Note_on_c, 7, 48, 0
9, 84720, Note_on_c, 7, 60, 100
9, 84779, Note_on_c, 7, 60, 0
9, 84780, Note_on_c, 7, 57, 100
9, 84899, Note_on_c, 7, 57, 0
9, 84900, Note_on_c, 7, 53, 100
9, 84959, Note_on_c, 7, 53, 0
9, 84960, Note_on_c, 7, 46, 100
9, 85019, Note_on_c, 7, 46, 0
9, 85020, Note_on_c, 7, 53, 100
9, 85079, Note_on_c, 7, 53, 0
9, 85080, Note_on_c, 7, 58, 100
9, 85139, Note_on_c, 7, 58, 0
9, 85140, Note_on_c, 7, 46, 100
9, 85199, Note_on_c, 7, 46, 0
9, 85200, Note_on_c, 7, 58, 100
9, 85259, Note_on_c, 7, 58, 0
9, 85260, Note_on_c, 7, 55, 100
9, 85379, Note_on_c, 7, 55, 0
9, 85380, Note_on_c, 7, 52, 100
9, 85439, Note_on_c, 7, 52, 0
9, 85440, Note_on_c, 7, 45, 100
9, 85499, Note_on_c, 7, 45, 0
9, 85500, Note_on_c, 7, 52, 100
9, 85559, Note_on_c, 7, 52, 0
9, 85560, Note_on_c, 7, 57, 100
9, 85619, Note_on_c, 7, 57, 0
9, 85620, Note_on_c, 7, 45, 100
9, 85679, Note_on_c, 7, 45, 0
9, 85680, Note_on_c, 7, 57, 100
9, 85709, Note_on_c, 7, 57, 0
9, 85710, Note_on_c, 7, 55, 100
9, 85739, Note_on_c, 7, 55, 0
9, 85740, Note_on_c, 7, 53, 100
9, 85769, Note_on_c, 7, 53, 0
9, 85770, Note_on_c, 7, 57, 100
9, 85799, Note_on_c, 7, 57, 0
9, 85800, Note_on_c, 7, 55, 100
9, 85829, Note_on_c, 7, 55, 0
9, 85830, Note_on_c, 7, 53, 100
9, 85859, Note_on_c, 7, 53, 0
9, 85860, Note_on_c, 7, 52, 100
9, 85889, Note_on_c, 7, 52, 0
9, 85890, Note_on_c, 7, 57, 100
9, 85919, Note_on_c, 7, 57, 0
9, 85920, Note_on_c, 7, 50, 100
9, 85949, Note_on_c, 7, 50, 0
9, 85950, Note_on_c, 7, 53, 100
9, 85979, Note_on_c, 7, 53, 0
9, 85980, Note_on_c, 7, 55, 100
9, 86009, Note_on_c, 7, 55, 0
9, 86010, Note_on_c, 7, 57, 100
9, 86039, Note_on_c, 7, 57, 0
9, 86040, Note_on_c, 7, 58, 100
9, 86069, Note_on_c, 7, 58, 0
9, 86070, Note_on_c, 7, 55, 100
9, 86099, Note_on_c, 7, 55, 0
9, 86100, Note_on_c, 7, 57, 100
9, 86129, Note_on_c, 7, 57, 0
9, 86130, Note_on_c, 7, 59, 100
9, 86159, Note_on_c, 7, 59, 0
9, 86160, Note_on_c, 7, 61, 100
9, 86189, Note_on_c, 7, 61, 0
9, 86190, Note_on_c, 7, 57, 100
9, 86219, Note_on_c, 7, 57, 0
9, 86220, Note_on_c, 7, 62, 100
9, 86279, Note_on_c, 7, 62, 0
9, 86280, Note_on_c, 7, 55, 100
9, 86339, Note_on_c, 7, 55, 0
9, 86340, Note_on_c, 7, 57, 100
9, 86399, Note_on_c, 7, 57, 0
9, 86400, Note_on_c, 7, 50, 100
9, 86519, Note_on_c, 7, 50, 0
9, 86550, Note_on_c, 7, 45, 100
9, 86579, Note_on_c, 7, 45, 0
9, 86580, Note_on_c, 7, 41, 100
9, 86609, Note_on_c, 7, 41, 0
9, 86610, Note_on_c, 7, 45, 100
9, 86639, Note_on_c, 7, 45, 0
9, 86640, Note_on_c, 7, 38, 100
9, 86699, Note_on_c, 7, 38, 0
9, 93360, Note_on_c, 7, 60, 100
9, 93389, Note_on_c, 7, 60, 0
9, 93390, Note_on_c, 7, 59, 100
9, 93419, Note_on_c, 7, 59, 0
9, 93420, Note_on_c, 7, 57, 100
9, 93449, Note_on_c, 7, 57, 0
9, 93450, Note_on_c, 7, 60, 100
9, 93479, Note_on_c, 7, 60, 0
9, 93480, Note_on_c, 7, 65, 100
9, 93509, Note_on_c, 7, 65, 0
9, 93510, Note_on_c, 7, 64, 100
9, 93539, Note_on_c, 7, 64, 0
9, 93540, Note_on_c, 7, 62, 100
9, 93569, Note_on_c, 7, 62, 0
9, 93570, Note_on_c, 7, 64, 100
9, 93599, Note_on_c, 7, 64, 0
9, 93600, Note_on_c, 7, 60, 100
9, 93629, Note_on_c, 7, 60, 0
9, 93630, Note_on_c, 7, 57, 100
9, 93659, Note_on_c, 7, 57, 0
9, 93660, Note_on_c, 7, 65, 100
9, 93689, Note_on_c, 7, 65, 0
9, 93690, Note_on_c, 7, 64, 100
9, 93719, Note_on_c, 7, 64, 0
9, 93720, Note_on_c, 7, 62, 100
9, 93749, Note_on_c, 7, 62, 0
9, 93750, Note_on_c, 7, 65, 100
9, 93779, Note_on_c, 7, 65, 0
9, 93780, Note_on_c, 7, 64, 100
9, 93809, Note_on_c, 7, 64, 0
9, 93810, Note_on_c, 7, 62, 100
9, 93839, Note_on_c, 7, 62, 0
9, 93840, Note_on_c, 7, 60, 100
9, 93869, Note_on_c, 7, 60, 0
9, 93870, Note_on_c, 7, 57, 100
9, 93899, Note_on_c, 7, 57, 0
9, 93900, Note_on_c, 7, 65, 100
9, 93959, Note_on_c, 7, 65, 0
9, 93960, Note_on_c, 7, 62, 100
9, 94019, Note_on_c, 7, 62, 0
9, 94020, Note_on_c, 7, 64, 100
9, 94079, Note_on_c, 7, 64, 0
9, 94080, Note_on_c, 7, 57, 100
9, 94199, Note_on_c, 7, 57, 0
9, 94230, Note_on_c, 7, 52, 100
9, 94259, Note_on_c, 7, 52, 0
9, 94260, Note_on_c, 7, 48, 100
9, 94289, Note_on_c, 7, 48, 0
9, 94290, Note_on_c, 7, 52, 100
9, 94319, Note_on_c, 7, 52, 0
9, 94320, Note_on_c, 7, 45, 100
9, 94349, Note_on_c, 7, 45, 0
9, 94350, Note_on_c, 7, 52, 100
9, 94379, Note_on_c, 7, 52, 0
9, 94380, Note_on_c, 7, 50, 100
9, 94409, Note_on_c, 7, 50, 0
9, 94410, Note_on_c, 7, 52, 100
9, 94439, Note_on_c, 7, 52, 0
9, 94440, Note_on_c, 7, 48, 100
9, 94469, Note_on_c, 7, 48, 0
9, 94470, Note_on_c, 7, 52, 100
9, 94499, Note_on_c, 7, 52, 0
9, 94500, Note_on_c, 7, 50, 100
9, 94529, Note_on_c, 7, 50, 0
9, 94530, Note_on_c, 7, 52, 100
9, 94559, Note_on_c, 7, 52, 0
9, 94560, Note_on_c, 7, 47, 100
9, 94589, Note_on_c, 7, 47, 0
9, 94590, Note_on_c, 7, 52, 100
9, 94619, Note_on_c, 7, 52, 0
9, 94620, Note_on_c, 7, 50, 100
9, 94649, Note_on_c, 7, 50, 0
9, 94650, Note_on_c, 7, 52, 100
9, 94679, Note_on_c, 7, 52, 0
9, 94680, Note_on_c, 7, 45, 100
9, 94739, Note_on_c, 7, 45, 0
9, 94800, Note_on_c, 7, 46, 100
9, 94829, Note_on_c, 7, 46, 0
9, 94830, Note_on_c, 7, 55, 100
9, 94859, Note_on_c, 7, 55, 0
9, 94860, Note_on_c, 7, 53, 100
9, 94889, Note_on_c, 7, 53, 0
9, 94890, Note_on_c, 7, 55, 100
9, 94919, Note_on_c, 7, 55, 0
9, 94920, Note_on_c, 7, 52, 100
9, 94949, Note_on_c, 7, 52, 0
9, 94950, Note_on_c, 7, 55, 100
9, 94979, Note_on_c, 7, 55, 0
9, 94980, Note_on_c, 7, 53, 100
9, 95009, Note_on_c, 7, 53, 0
9, 95010, Note_on_c, 7, 55, 100
9, 95039, Note_on_c, 7, 55, 0
9, 95040, Note_on_c, 7, 49, 100
9, 95069, Note_on_c, 7, 49, 0
9, 95070, Note_on_c, 7, 55, 100
9, 95099, Note_on_c, 7, 55, 0
9, 95100, Note_on_c, 7, 53, 100
9, 95129, Note_on_c, 7, 53, 0
9, 95130, Note_on_c, 7, 55, 100
9, 95159, Note_on_c, 7, 55, 0
9, 95160, Note_on_c, 7, 50, 100
9, 95219, Note_on_c, 7, 50, 0
9, 95280, Note_on_c, 7, 50, 100
9, 95309, Note_on_c, 7, 50, 0
9, 95310, Note_on_c, 7, 57, 100
9, 95339, Note_on_c, 7, 57, 0
9, 95340, Note_on_c, 7, 55, 100
9, 95369, Note_on_c, 7, 55, 0
9, 95370, Note_on_c, 7, 57, 100
9, 95399, Note_on_c, 7, 57, 0
9, 95400, Note_on_c, 7, 48, 100
9, 95429, Note_on_c, 7, 48, 0
9, 95430, Note_on_c, 7, 56, 100
9, 95459, Note_on_c, 7, 56, 0
9, 95460, Note_on_c, 7, 55, 100
9, 95489, Note_on_c, 7, 55, 0
9, 95490, Note_on_c, 7, 56, 100
9, 95519, Note_on_c, 7, 56, 0
9, 95520, Note_on_c, 7, 47, 100
9, 95549, Note_on_c, 7, 47, 0
9, 95550, Note_on_c, 7, 55, 100
9, 95579, Note_on_c, 7, 55, 0
9, 95580, Note_on_c, 7, 53, 100
9, 95609, Note_on_c, 7, 53, 0
9, 95610, Note_on_c, 7, 55, 100
9, 95639, Note_on_c, 7, 55, 0
9, 95640, Note_on_c, 7, 48, 100
9, 95699, Note_on_c, 7, 48, 0
9, 95760, Note_on_c, 7, 48, 100
9, 95789, Note_on_c, 7, 48, 0
9, 95790, Note_on_c, 7, 55, 100
9, 95819, Note_on_c, 7, 55, 0
9, 95820, Note_on_c, 7, 53, 100
9, 95849, Note_on_c, 7, 53, 0
9, 95850, Note_on_c, 7, 55, 100
9, 95879, Note_on_c, 7, 55, 0
9, 95880, Note_on_c, 7, 46, 100
9, 95909, Note_on_c, 7, 46, 0
9, 95910, Note_on_c, 7, 55, 100
9, 95939, Note_on_c, 7, 55, 0
9, 95940, Note_on_c, 7, 53, 100
9, 95969, Note_on_c, 7, 53, 0
9, 95970, Note_on_c, 7, 55, 100
9, 95999, Note_on_c, 7, 55, 0
9, 96000, Note_on_c, 7, 45, 100
9, 96029, Note_on_c, 7, 45, 0
9, 96030, Note_on_c, 7, 53, 100
9, 96059, Note_on_c, 7, 53, 0
9, 96060, Note_on_c, 7, 51, 100
9, 96089, Note_on_c, 7, 51, 0
9, 96090, Note_on_c, 7, 53, 100
9, 96119, Note_on_c, 7, 53, 0
9, 96120, Note_on_c, 7, 46, 100
9, 96179, Note_on_c, 7, 46, 0
9, 96270, Note_on_c, 7, 50, 100
9, 96299, Note_on_c, 7, 50, 0
9, 96300, Note_on_c, 7, 48, 100
9, 96329, Note_on_c, 7, 48, 0
9, 96330, Note_on_c, 7, 46, 100
9, 96359, Note_on_c, 7, 46, 0
9, 96360, Note_on_c, 7, 51, 100
9, 96389, Note_on_c, 7, 51, 0
9, 96390, Note_on_c, 7, 44, 100
9, 96419, Note_on_c, 7, 44, 0
9, 96420, Note_on_c, 7, 43, 100
9, 96449, Note_on_c, 7, 43, 0
9, 96450, Note_on_c, 7, 41, 100
9, 96479, Note_on_c, 7, 41, 0
9, 96480, Note_on_c, 7, 39, 100
9, 96509, Note_on_c, 7, 39, 0
9, 96510, Note_on_c, 7, 51, 100
9, 96539, Note_on_c, 7, 51, 0
9, 96540, Note_on_c, 7, 50, 100
9, 96569, Note_on_c, 7, 50, 0
9, 96570, Note_on_c, 7, 48, 100
9, 96599, Note_on_c, 7, 48, 0
9, 96600, Note_on_c, 7, 53, 100
9, 96629, Note_on_c, 7, 53, 0
9, 96630, Note_on_c, 7, 46, 100
9, 96659, Note_on_c, 7, 46, 0
9, 96660, Note_on_c, 7, 45, 100
9, 96689, Note_on_c, 7, 45, 0
9, 96690, Note_on_c, 7, 43, 100
9, 96719, Note_on_c, 7, 43, 0
9, 96720, Note_on_c, 7, 41, 100
9, 96749, Note_on_c, 7, 41, 0
9, 96750, Note_on_c, 7, 53, 100
9, 96779, Note_on_c, 7, 53, 0
9, 96780, Note_on_c, 7, 51, 100
9, 96809, Note_on_c, 7, 51, 0
9, 96810, Note_on_c, 7, 50, 100
9, 96839, Note_on_c, 7, 50, 0
9, 96840, Note_on_c, 7, 51, 100
9, 96869, Note_on_c, 7, 51, 0
9, 96870, Note_on_c, 7, 48, 100
9, 96899, Note_on_c, 7, 48, 0
9, 96900, Note_on_c, 7, 46, 100
9, 96929, Note_on_c, 7, 46, 0
9, 96930, Note_on_c, 7, 45, 100
9, 96959, Note_on_c, 7, 45, 0
9, 96960, Note_on_c, 7, 50, 100
9, 96989, Note_on_c, 7, 50, 0
9, 96990, Note_on_c, 7, 46, 100
9, 97019, Note_on_c, 7, 46, 0
9, 97020, Note_on_c, 7, 45, 100
9, 97049, Note_on_c, 7, 45, 0
9, 97050, Note_on_c, 7, 43, 100
9, 97079, Note_on_c, 7, 43, 0
9, 97080, Note_on_c, 7, 48, 100
9, 97109, Note_on_c, 7, 48, 0
9, 97110, Note_on_c, 7, 45, 100
9, 97139, Note_on_c, 7, 45, 0
9, 97140, Note_on_c, 7, 43, 100
9, 97169, Note_on_c, 7, 43, 0
9, 97170, Note_on_c, 7, 41, 100
9, 97199, Note_on_c, 7, 41, 0
9, 97200, Note_on_c, 7, 46, 100
9, 97229, Note_on_c, 7, 46, 0
9, 97230, Note_on_c, 7, 50, 100
9, 97259, Note_on_c, 7, 50, 0
9, 97260, Note_on_c, 7, 52, 100
9, 97289, Note_on_c, 7, 52, 0
9, 97290, Note_on_c, 7, 53, 100
9, 97319, Note_on_c, 7, 53, 0
9, 97320, Note_on_c, 7, 55, 100
9, 97349, Note_on_c, 7, 55, 0
9, 97350, Note_on_c, 7, 46, 100
9, 97379, Note_on_c, 7, 46, 0
9, 97380, Note_on_c, 7, 45, 100
9, 97409, Note_on_c, 7, 45, 0
9, 97410, Note_on_c, 7, 43, 100
9, 97439, Note_on_c, 7, 43, 0
9, 97440, Note_on_c, 7, 45, 100
9, 97499, Note_on_c, 7, 45, 0
9, 97500, Note_on_c, 7, 69, 100
9, 97559, Note_on_c, 7, 69, 0
9, 97560, Note_on_c, 7, 64, 100
9, 97619, Note_on_c, 7, 64, 0
9, 97620, Note_on_c, 7, 65, 100
9, 97679, Note_on_c, 7, 65, 0
9, 97680, Note_on_c, 7, 64, 100
9, 97739, Note_on_c, 7, 64, 0
9, 97740, Note_on_c, 7, 62, 100
9, 97799, Note_on_c, 7, 62, 0
9, 97800, Note_on_c, 7, 61, 100
9, 97859, Note_on_c, 7, 61, 0
9, 97860, Note_on_c, 7, 59, 100
9, 97919, Note_on_c, 7, 59, 0
9, 97920, Note_on_c, 7, 61, 100
9, 97979, Note_on_c, 7, 61, 0
9, 97980, Note_on_c, 7, 57, 100
9, 98039, Note_on_c, 7, 57, 0
9, 98040, Note_on_c, 7, 55, 100
9, 98099, Note_on_c, 7, 55, 0
9, 98100, Note_on_c, 7, 53, 100
9, 98159, Note_on_c, 7, 53, 0
9, 98160, Note_on_c, 7, 52, 100
9, 98219, Note_on_c, 7, 52, 0
9, 98220, Note_on_c, 7, 61, 100
9, 98279, Note_on_c, 7, 61, 0
9, 98280, Note_on_c, 7, 62, 100
9, 98309, Note_on_c, 7, 62, 0
9, 98310, Note_on_c, 7, 64, 100
9, 98339, Note_on_c, 7, 64, 0
9, 98340, Note_on_c, 7, 65, 100
9, 98369, Note_on_c, 7, 65, 0
9, 98370, Note_on_c, 7, 67, 100
9, 98399, Note_on_c, 7, 67, 0
9, 98400, Note_on_c, 7, 65, 100
9, 98429, Note_on_c, 7, 65, 0
9, 98430, Note_on_c, 7, 62, 100
9, 98459, Note_on_c, 7, 62, 0
9, 98460, Note_on_c, 7, 69, 100
9, 98489, Note_on_c, 7, 69, 0
9, 98490, Note_on_c, 7, 67, 100
9, 98519, Note_on_c, 7, 67, 0
9, 98520, Note_on_c, 7, 65, 100
9, 98549, Note_on_c, 7, 65, 0
9, 98550, Note_on_c, 7, 61, 100
9, 98579, Note_on_c, 7, 61, 0
9, 98580, Note_on_c, 7, 62, 100
9, 98669, Note_on_c, 7, 62, 0
9, 98670, Note_on_c, 7, 61, 100
9, 98699, Note_on_c, 7, 61, 0
9, 98700, Note_on_c, 7, 64, 100
9, 98789, Note_on_c, 7, 64, 0
9, 98790, Note_on_c, 7, 62, 100
9, 98819, Note_on_c, 7, 62, 0
9, 98820, Note_on_c, 7, 70, 100
9, 98909, Note_on_c, 7, 70, 0
9, 98910, Note_on_c, 7, 66, 100
9, 98939, Note_on_c, 7, 66, 0
9, 98940, Note_on_c, 7, 67, 100
9, 99029, Note_on_c, 7, 67, 0
9, 99030, Note_on_c, 7, 66, 100
9, 99059, Note_on_c, 7, 66, 0
9, 99060, Note_on_c, 7, 69, 100
9, 99149, Note_on_c, 7, 69, 0
9, 99150, Note_on_c, 7, 62, 100
9, 99179, Note_on_c, 7, 62, 0
9, 99180, Note_on_c, 7, 64, 100
9, 99209, Note_on_c, 7, 64, 0
9, 99210, Note_on_c, 7, 65, 100
9, 99239, Note_on_c, 7, 65, 0
9, 99240, Note_on_c, 7, 67, 100
9, 99269, Note_on_c, 7, 67, 0
9, 99270, Note_on_c, 7, 70, 100
9, 99299, Note_on_c, 7, 70, 0
9, 99300, Note_on_c, 7, 64, 100
9, 99329, Note_on_c, 7, 64, 0
9, 99330, Note_on_c, 7, 67, 100
9, 99359, Note_on_c, 7, 67, 0
9, 99360, Note_on_c, 7, 61, 100
9, 99389, Note_on_c, 7, 61, 0
9, 99390, Note_on_c, 7, 70, 100
9, 99419, Note_on_c, 7, 70, 0
9, 99420, Note_on_c, 7, 69, 100
9, 99449, Note_on_c, 7, 69, 0
9, 99450, Note_on_c, 7, 67, 100
9, 99479, Note_on_c, 7, 67, 0
9, 99480, Note_on_c, 7, 65, 100
9, 99509, Note_on_c, 7, 65, 0
9, 99510, Note_on_c, 7, 69, 100
9, 99539, Note_on_c, 7, 69, 0
9, 99540, Note_on_c, 7, 67, 100
9, 99569, Note_on_c, 7, 67, 0
9, 99570, Note_on_c, 7, 65, 100
9, 99599, Note_on_c, 7, 65, 0
9, 99600, Note_on_c, 7, 64, 100
9, 99629, Note_on_c, 7, 64, 0
9, 99630, Note_on_c, 7, 67, 100
9, 99659, Note_on_c, 7, 67, 0
9, 99660, Note_on_c, 7, 65, 100
9, 99689, Note_on_c, 7, 65, 0
9, 99690, Note_on_c, 7, 64, 100
9, 99719, Note_on_c, 7, 64, 0
9, 99720, Note_on_c, 7, 62, 100
9, 99749, Note_on_c, 7, 62, 0
9, 99750, Note_on_c, 7, 65, 100
9, 99779, Note_on_c, 7, 65, 0
9, 99780, Note_on_c, 7, 64, 100
9, 99809, Note_on_c, 7, 64, 0
9, 99810, Note_on_c, 7, 62, 100
9, 99839, Note_on_c, 7, 62, 0
9, 99840, Note_on_c, 7, 60, 100
9, 99869, Note_on_c, 7, 60, 0
9, 99870, Note_on_c, 7, 63, 100
9, 99899, Note_on_c, 7, 63, 0
9, 99900, Note_on_c, 7, 62, 100
9, 99929, Note_on_c, 7, 62, 0
9, 99930, Note_on_c, 7, 60, 100
9, 99959, Note_on_c, 7, 60, 0
9, 99960, Note_on_c, 7, 58, 100
9, 99989, Note_on_c, 7, 58, 0
9, 99990, Note_on_c, 7, 62, 100
9, 100019, Note_on_c, 7, 62, 0
9, 100020, Note_on_c, 7, 60, 100
9, 100049, Note_on_c, 7, 60, 0
9, 100050, Note_on_c, 7, 58, 100
9, 100079, Note_on_c, 7, 58, 0
9, 100080, Note_on_c, 7, 57, 100
9, 100139, Note_on_c, 7, 57, 0
9, 100140, Note_on_c, 7, 64, 100
9, 100199, Note_on_c, 7, 64, 0
9, 100200, Note_on_c, 7, 65, 100
9, 100259, Note_on_c, 7, 65, 0
9, 100260, Note_on_c, 7, 59, 100
9, 100319, Note_on_c, 7, 59, 0
9, 100320, Note_on_c, 7, 61, 100
9, 100379, Note_on_c, 7, 61, 0
9, 100380, Note_on_c, 7, 64, 100
9, 100439, Note_on_c, 7, 64, 0
9, 100440, Note_on_c, 7, 62, 100
9, 100499, Note_on_c, 7, 62, 0
9, 100500, Note_on_c, 7, 61, 100
9, 100559, Note_on_c, 7, 61, 0
9, 100560, Note_on_c, 7, 62, 100
9, 100619, Note_on_c, 7, 62, 0
9, 100620, Note_on_c, 7, 65, 100
9, 100679, Note_on_c, 7, 65, 0
9, 100680, Note_on_c, 7, 59, 100
9, 100739, Note_on_c, 7, 59, 0
9, 100740, Note_on_c, 7, 62, 100
9, 100799, Note_on_c, 7, 62, 0
9, 100800, Note_on_c, 7, 64, 100
9, 100859, Note_on_c, 7, 64, 0
9, 100860, Note_on_c, 7, 61, 100
9, 100919, Note_on_c, 7, 61, 0
9, 100920, Note_on_c, 7, 64, 100
9, 100979, Note_on_c, 7, 64, 0
9, 100980, Note_on_c, 7, 69, 100
9, 101039, Note_on_c, 7, 69, 0
9, 101040, Note_on_c, 7, 62, 100
9, 101099, Note_on_c, 7, 62, 0
9, 101160, Note_on_c, 7, 67, 100
9, 101219, Note_on_c, 7, 67, 0
9, 101280, Note_on_c, 7, 57, 100
9, 101309, Note_on_c, 7, 57, 0
9, 101310, Note_on_c, 7, 62, 100
9, 101339, Note_on_c, 7, 62, 0
9, 101340, Note_on_c, 7, 64, 100
9, 101369, Note_on_c, 7, 64, 0
9, 101370, Note_on_c, 7, 65, 100
9, 101399, Note_on_c, 7, 65, 0
9, 101400, Note_on_c, 7, 57, 100
9, 101429, Note_on_c, 7, 57, 0
9, 101430, Note_on_c, 7, 64, 100
9, 101459, Note_on_c, 7, 64, 0
9, 101460, Note_on_c, 7, 65, 100
9, 101489, Note_on_c, 7, 65, 0
9, 101490, Note_on_c, 7, 67, 100
9, 101519, Note_on_c, 7, 67, 0
9, 101520, Note_on_c, 7, 57, 100
9, 101549, Note_on_c, 7, 57, 0
9, 101550, Note_on_c, 7, 65, 100
9, 101579, Note_on_c, 7, 65, 0
9, 101580, Note_on_c, 7, 67, 100
9, 101609, Note_on_c, 7, 67, 0
9, 101610, Note_on_c, 7, 69, 100
9, 101639, Note_on_c, 7, 69, 0
9, 101640, Note_on_c, 7, 57, 100
9, 101669, Note_on_c, 7, 57, 0
9, 101670, Note_on_c, 7, 67, 100
9, 101699, Note_on_c, 7, 67, 0
9, 101700, Note_on_c, 7, 69, 100
9, 101729, Note_on_c, 7, 69, 0
9, 101730, Note_on_c, 7, 70, 100
9, 101759, Note_on_c, 7, 70, 0
9, 101760, Note_on_c, 7, 57, 100
9, 101789, Note_on_c, 7, 57, 0
9, 101790, Note_on_c, 7, 69, 100
9, 101819, Note_on_c, 7, 69, 0
9, 101820, Note_on_c, 7, 67, 100
9, 101849, Note_on_c, 7, 67, 0
9, 101850, Note_on_c, 7, 65, 100
9, 101879, Note_on_c, 7, 65, 0
9, 101880, Note_on_c, 7, 57, 100
9, 101909, Note_on_c, 7, 57, 0
9, 101910, Note_on_c, 7, 67, 100
9, 101939, Note_on_c, 7, 67, 0
9, 101940, Note_on_c, 7, 65, 100
9, 101969, Note_on_c, 7, 65, 0
9, 101970, Note_on_c, 7, 64, 100
9, 101999, Note_on_c, 7, 64, 0
9, 102000, Note_on_c, 7, 62, 100
9, 102029, Note_on_c, 7, 62, 0
9, 102030, Note_on_c, 7, 71, 100
9, 102059, Note_on_c, 7, 71, 0
9, 102060, Note_on_c, 7, 73, 100
9, 102089, Note_on_c, 7, 73, 0
9, 102090, Note_on_c, 7, 74, 100
9, 102119, Note_on_c, 7, 74, 0
9, 102120, Note_on_c, 7, 69, 100
9, 102149, Note_on_c, 7, 69, 0
9, 102150, Note_on_c, 7, 73, 100
9, 102179, Note_on_c, 7, 73, 0
9, 102180, Note_on_c, 7, 74, 100
9, 102209, Note_on_c, 7, 74, 0
9, 102210, Note_on_c, 7, 76, 100
9, 102239, Note_on_c, 7, 76, 0
9, 102240, Note_on_c, 7, 74, 100
9, 102269, Note_on_c, 7, 74, 0
9, 102270, Note_on_c, 7, 69, 100
9, 102299, Note_on_c, 7, 69, 0
9, 102300, Note_on_c, 7, 67, 100
9, 102329, Note_on_c, 7, 67, 0
9, 102330, Note_on_c, 7, 65, 100
9, 102359, Note_on_c, 7, 65, 0
9, 102360, Note_on_c, 7, 72, 100
9, 102389, Note_on_c, 7, 72, 0
9, 102390, Note_on_c, 7, 67, 100
9, 102419, Note_on_c, 7, 67, 0
9, 102420, Note_on_c, 7, 69, 100
9, 102449, Note_on_c, 7, 69, 0
9, 102450, Note_on_c, 7, 65, 100
9, 102479, Note_on_c, 7, 65, 0
9, 102480, Note_on_c, 7, 70, 100
9, 102509, Note_on_c, 7, 70, 0
9, 102510, Note_on_c, 7, 67, 100
9, 102539, Note_on_c, 7, 67, 0
9, 102540, Note_on_c, 7, 74, 100
9, 102569, Note_on_c, 7, 74, 0
9, 102570, Note_on_c, 7, 70, 100
9, 102599, Note_on_c, 7, 70, 0
9, 102600, Note_on_c, 7, 77, 100
9, 102629, Note_on_c, 7, 77, 0
9, 102630, Note_on_c, 7, 65, 100
9, 102659, Note_on_c, 7, 65, 0
9, 102660, Note_on_c, 7, 70, 100
9, 102749, Note_on_c, 7, 70, 0
9, 102750, Note_on_c, 7, 69, 100
9, 102779, Note_on_c, 7, 69, 0
9, 102780, Note_on_c, 7, 67, 100
9, 102869, Note_on_c, 7, 67, 0
9, 102870, Note_on_c, 7, 60, 100
9, 102899, Note_on_c, 7, 60, 0
9, 102900, Note_on_c, 7, 62, 100
9, 102929, Note_on_c, 7, 62, 0
9, 102930, Note_on_c, 7, 64, 100
9, 102959, Note_on_c, 7, 64, 0
9, 102960, Note_on_c, 7, 65, 100
9, 102989, Note_on_c, 7, 65, 0
9, 102990, Note_on_c, 7, 67, 100
9, 103019, Note_on_c, 7, 67, 0
9, 103020, Note_on_c, 7, 69, 100
9, 103049, Note_on_c, 7, 69, 0
9, 103050, Note_on_c, 7, 65, 100
9, 103079, Note_on_c, 7, 65, 0
9, 103080, Note_on_c, 7, 67, 100
9, 103109, Note_on_c, 7, 67, 0
9, 103110, Note_on_c, 7, 69, 100
9, 103139, Note_on_c, 7, 69, 0
9, 103140, Note_on_c, 7, 70, 100
9, 103169, Note_on_c, 7, 70, 0
9, 103170, Note_on_c, 7, 67, 100
9, 103199, Note_on_c, 7, 67, 0
9, 103200, Note_on_c, 7, 69, 100
9, 103229, Note_on_c, 7, 69, 0
9, 103230, Note_on_c, 7, 72, 100
9, 103259, Note_on_c, 7, 72, 0
9, 103260, Note_on_c, 7, 70, 100
9, 103289, Note_on_c, 7, 70, 0
9, 103290, Note_on_c, 7, 69, 100
9, 103319, Note_on_c, 7, 69, 0
9, 103320, Note_on_c, 7, 67, 100
9, 103349, Note_on_c, 7, 67, 0
9, 103350, Note_on_c, 7, 65, 100
9, 103379, Note_on_c, 7, 65, 0
9, 103380, Note_on_c, 7, 64, 100
9, 103409, Note_on_c, 7, 64, 0
9, 103410, Note_on_c, 7, 62, 100
9, 103439, Note_on_c, 7, 62, 0
9, 103440, Note_on_c, 7, 60, 100
9, 103499, Note_on_c, 7, 60, 0
9, 103500, Note_on_c, 7, 62, 100
9, 103559, Note_on_c, 7, 62, 0
9, 103560, Note_on_c, 7, 58, 100
9, 103619, Note_on_c, 7, 58, 0
9, 103620, Note_on_c, 7, 60, 100
9, 103679, Note_on_c, 7, 60, 0
9, 103680, Note_on_c, 7, 53, 100
9, 103739, Note_on_c, 7, 53, 0
9, 103920, Note_on_c, 7, 48, 100
9, 103979, Note_on_c, 7, 48, 0
9, 103980, Note_on_c, 7, 60, 100
9, 104039, Note_on_c, 7, 60, 0
9, 104040, Note_on_c, 7, 62, 100
9, 104099, Note_on_c, 7, 62, 0
9, 104100, Note_on_c, 7, 50, 100
9, 104159, Note_on_c, 7, 50, 0
9, 104160, Note_on_c, 7, 52, 100
9, 104219, Note_on_c, 7, 52, 0
9, 104220, Note_on_c, 7, 64, 100
9, 104279, Note_on_c, 7, 64, 0
9, 104280, Note_on_c, 7, 65, 100
9, 104339, Note_on_c, 7, 65, 0
9, 104340, Note_on_c, 7, 53, 100
9, 104399, Note_on_c, 7, 53, 0
9, 104400, Note_on_c, 7, 55, 100
9, 104459, Note_on_c, 7, 55, 0
9, 104460, Note_on_c, 7, 57, 100
9, 104519, Note_on_c, 7, 57, 0
9, 104520, Note_on_c, 7, 53, 100
9, 104579, Note_on_c, 7, 53, 0
9, 104580, Note_on_c, 7, 55, 100
9, 104639, Note_on_c, 7, 55, 0
9, 104640, Note_on_c, 7, 48, 100
9, 104699, Note_on_c, 7, 48, 0
9, 104880, Note_on_c, 7, 54, 100
9, 104939, Note_on_c, 7, 54, 0
9, 104940, Note_on_c, 7, 54, 100
9, 104999, Note_on_c, 7, 54, 0
9, 105000, Note_on_c, 7, 54, 100
9, 105059, Note_on_c, 7, 54, 0
9, 105060, Note_on_c, 7, 54, 100
9, 105119, Note_on_c, 7, 54, 0
9, 105360, Note_on_c, 7, 60, 100
9, 105389, Note_on_c, 7, 60, 0
9, 105390, Note_on_c, 7, 67, 100
9, 105419, Note_on_c, 7, 67, 0
9, 105420, Note_on_c, 7, 65, 100
9, 105449, Note_on_c, 7, 65, 0
9, 105450, Note_on_c, 7, 64, 100
9, 105479, Note_on_c, 7, 64, 0
9, 105480, Note_on_c, 7, 60, 100
9, 105509, Note_on_c, 7, 60, 0
9, 105510, Note_on_c, 7, 67, 100
9, 105539, Note_on_c, 7, 67, 0
9, 105540, Note_on_c, 7, 65, 100
9, 105569, Note_on_c, 7, 65, 0
9, 105570, Note_on_c, 7, 64, 100
9, 105599, Note_on_c, 7, 64, 0
9, 105600, Note_on_c, 7, 53, 100
9, 105659, Note_on_c, 7, 53, 0
9, 105840, Note_on_c, 7, 51, 100
9, 105899, Note_on_c, 7, 51, 0
9, 105900, Note_on_c, 7, 51, 100
9, 105959, Note_on_c, 7, 51, 0
9, 105960, Note_on_c, 7, 51, 100
9, 106019, Note_on_c, 7, 51, 0
9, 106080, Note_on_c, 7, 50, 100
9, 106109, Note_on_c, 7, 50, 0
9, 106110, Note_on_c, 7, 54, 100
9, 106139, Note_on_c, 7, 54, 0
9, 106140, Note_on_c, 7, 55, 100
9, 106169, Note_on_c, 7, 55, 0
9, 106170, Note_on_c, 7, 57, 100
9, 106199, Note_on_c, 7, 57, 0
9, 106200, Note_on_c, 7, 48, 100
9, 106229, Note_on_c, 7, 48, 0
9, 106230, Note_on_c, 7, 54, 100
9, 106259, Note_on_c, 7, 54, 0
9, 106260, Note_on_c, 7, 55, 100
9, 106289, Note_on_c, 7, 55, 0
9, 106290, Note_on_c, 7, 57, 100
9, 106319, Note_on_c, 7, 57, 0
9, 106320, Note_on_c, 7, 47, 100
9, 106379, Note_on_c, 7, 47, 0
9, 106380, Note_on_c, 7, 47, 100
9, 106439, Note_on_c, 7, 47, 0
9, 106440, Note_on_c, 7, 47, 100
9, 106499, Note_on_c, 7, 47, 0
9, 106500, Note_on_c, 7, 47, 100
9, 106559, Note_on_c, 7, 47, 0
9, 106560, Note_on_c, 7, 48, 100
9, 106619, Note_on_c, 7, 48, 0
9, 106620, Note_on_c, 7, 48, 100
9, 106679, Note_on_c, 7, 48, 0
9, 106680, Note_on_c, 7, 46, 100
9, 106739, Note_on_c, 7, 46, 0
9, 106740, Note_on_c, 7, 46, 100
9, 106799, Note_on_c, 7, 46, 0
9, 106800, Note_on_c, 7, 45, 100
9, 106859, Note_on_c, 7, 45, 0
9, 106860, Note_on_c, 7, 45, 100
9, 106919, Note_on_c, 7, 45, 0
9, 106920, Note_on_c, 7, 57, 100
9, 106979, Note_on_c, 7, 57, 0
9, 106980, Note_on_c, 7, 57, 100
9, 107039, Note_on_c, 7, 57, 0
9, 107040, Note_on_c, 7, 57, 100
9, 107099, Note_on_c, 7, 57, 0
9, 107160, Note_on_c, 7, 56, 100
9, 107219, Note_on_c, 7, 56, 0
9, 107280, Note_on_c, 7, 55, 100
9, 107339, Note_on_c, 7, 55, 0
9, 107400, Note_on_c, 7, 54, 100
9, 107459, Note_on_c, 7, 54, 0
9, 107520, Note_on_c, 7, 53, 100
9, 107579, Note_on_c, 7, 53, 0
9, 107640, Note_on_c, 7, 52, 100
9, 107699, Note_on_c, 7, 52, 0
9, 107760, Note_on_c, 7, 51, 100
9, 107819, Note_on_c, 7, 51, 0
9, 107880, Note_on_c, 7, 50, 100
9, 107939, Note_on_c, 7, 50, 0
9, 108000, Note_on_c, 7, 50, 100
9, 108059, Note_on_c, 7, 50, 0
9, 108240, Note_on_c, 7, 60, 100
9, 108299, Note_on_c, 7, 60, 0
9, 108300, Note_on_c, 7, 48, 100
9, 108359, Note_on_c, 7, 48, 0
9, 108360, Note_on_c, 7, 47, 100
9, 108419, Note_on_c, 7, 47, 0
9, 108420, Note_on_c, 7, 59, 100
9, 108479, Note_on_c, 7, 59, 0
9, 108480, Note_on_c, 7, 60, 100
9, 108539, Note_on_c, 7, 60, 0
9, 108540, Note_on_c, 7, 48, 100
9, 108599, Note_on_c, 7, 48, 0
9, 108600, Note_on_c, 7, 50, 100
9, 108659, Note_on_c, 7, 50, 0
9, 108660, Note_on_c, 7, 62, 100
9, 108719, Note_on_c, 7, 62, 0
9, 108720, Note_on_c, 7, 64, 100
9, 108779, Note_on_c, 7, 64, 0
9, 108780, Note_on_c, 7, 65, 100
9, 108839, Note_on_c, 7, 65, 0
9, 108840, Note_on_c, 7, 62, 100
9, 108899, Note_on_c, 7, 62, 0
9, 108900, Note_on_c, 7, 64, 100
9, 108959, Note_on_c, 7, 64, 0
9, 108960, Note_on_c, 7, 53, 100
9, 109019, Note_on_c, 7, 53, 0
9, 109080, Note_on_c, 7, 62, 100
9, 109139, Note_on_c, 7, 62, 0
9, 109200, Note_on_c, 7, 60, 100
9, 109259, Note_on_c, 7, 60, 0
9, 109320, Note_on_c, 7, 59, 100
9, 109379, Note_on_c, 7, 59, 0
9, 109440, Note_on_c, 7, 60, 100
9, 109499, Note_on_c, 7, 60, 0
9, 109560, Note_on_c, 7, 62, 100
9, 109619, Note_on_c, 7, 62, 0
9, 109680, Note_on_c, 7, 60, 100
9, 109739, Note_on_c, 7, 60, 0
9, 109800, Note_on_c, 7, 59, 100
9, 109859, Note_on_c, 7, 59, 0
9, 109920, Note_on_c, 7, 60, 100
9, 109979, Note_on_c, 7, 60, 0
9, 109980, Note_on_c, 7, 62, 100
9, 110039, Note_on_c, 7, 62, 0
9, 110040, Note_on_c, 7, 64, 100
9, 110099, Note_on_c, 7, 64, 0
9, 110100, Note_on_c, 7, 52, 100
9, 110159, Note_on_c, 7, 52, 0
9, 110160, Note_on_c, 7, 57, 100
9, 110219, Note_on_c, 7, 57, 0
9, 116910, Note_on_c, 7, 50, 100
9, 116939, Note_on_c, 7, 50, 0
9, 116940, Note_on_c, 7, 52, 100
9, 116969, Note_on_c, 7, 52, 0
9, 116970, Note_on_c, 7, 53, 100
9, 116999, Note_on_c, 7, 53, 0
9, 117000, Note_on_c, 7, 45, 100
9, 117029, Note_on_c, 7, 45, 0
9, 117030, Note_on_c, 7, 52, 100
9, 117059, Note_on_c, 7, 52, 0
9, 117060, Note_on_c, 7, 53, 100
9, 117089, Note_on_c, 7, 53, 0
9, 117090, Note_on_c, 7, 55, 100
9, 117119, Note_on_c, 7, 55, 0
9, 117120, Note_on_c, 7, 45, 100
9, 117149, Note_on_c, 7, 45, 0
9, 117150, Note_on_c, 7, 53, 100
9, 117179, Note_on_c, 7, 53, 0
9, 117180, Note_on_c, 7, 55, 100
9, 117209, Note_on_c, 7, 55, 0
9, 117210, Note_on_c, 7, 57, 100
9, 117239, Note_on_c, 7, 57, 0
9, 117240, Note_on_c, 7, 45, 100
9, 117269, Note_on_c, 7, 45, 0
9, 117270, Note_on_c, 7, 55, 100
9, 117299, Note_on_c, 7, 55, 0
9, 117300, Note_on_c, 7, 57, 100
9, 117329, Note_on_c, 7, 57, 0
9, 117330, Note_on_c, 7, 58, 100
9, 117359, Note_on_c, 7, 58, 0
9, 117360, Note_on_c, 7, 45, 100
9, 117389, Note_on_c, 7, 45, 0
9, 117390, Note_on_c, 7, 57, 100
9, 117419, Note_on_c, 7, 57, 0
9, 117420, Note_on_c, 7, 55, 100
9, 117449, Note_on_c, 7, 55, 0
9, 117450, Note_on_c, 7, 53, 100
9, 117479, Note_on_c, 7, 53, 0
9, 117480, Note_on_c, 7, 45, 100
9, 117509, Note_on_c, 7, 45, 0
9, 117510, Note_on_c, 7, 55, 100
9, 117539, Note_on_c, 7, 55, 0
9, 117540, Note_on_c, 7, 53, 100
9, 117569, Note_on_c, 7, 53, 0
9, 117570, Note_on_c, 7, 52, 100
9, 117599, Note_on_c, 7, 52, 0
9, 117600, Note_on_c, 7, 50, 100
9, 117629, Note_on_c, 7, 50, 0
9, 117630, Note_on_c, 7, 59, 100
9, 117659, Note_on_c, 7, 59, 0
9, 117660, Note_on_c, 7, 61, 100
9, 117689, Note_on_c, 7, 61, 0
9, 117690, Note_on_c, 7, 62, 100
9, 117719, Note_on_c, 7, 62, 0
9, 117720, Note_on_c, 7, 57, 100
9, 117749, Note_on_c, 7, 57, 0
9, 117750, Note_on_c, 7, 61, 100
9, 117779, Note_on_c, 7, 61, 0
9, 117780, Note_on_c, 7, 62, 100
9, 117809, Note_on_c, 7, 62, 0
9, 117810, Note_on_c, 7, 64, 100
9, 117839, Note_on_c, 7, 64, 0
9, 117840, Note_on_c, 7, 57, 100
9, 117869, Note_on_c, 7, 57, 0
9, 117870, Note_on_c, 7, 53, 100
9, 117899, Note_on_c, 7, 53, 0
9, 117900, Note_on_c, 7, 52, 100
9, 117929, Note_on_c, 7, 52, 0
9, 117930, Note_on_c, 7, 50, 100
9, 117959, Note_on_c, 7, 50, 0
9, 117960, Note_on_c, 7, 57, 100
9, 117989, Note_on_c, 7, 57, 0
9, 117990, Note_on_c, 7, 55, 100
9, 118019, Note_on_c, 7, 55, 0
9, 118020, Note_on_c, 7, 53, 100
9, 118049, Note_on_c, 7, 53, 0
9, 118050, Note_on_c, 7, 52, 100
9, 118079, Note_on_c, 7, 52, 0
9, 118080, Note_on_c, 7, 53, 100
9, 118109, Note_on_c, 7, 53, 0
9, 118110, Note_on_c, 7, 57, 100
9, 118139, Note_on_c, 7, 57, 0
9, 118140, Note_on_c, 7, 55, 100
9, 118169, Note_on_c, 7, 55, 0
9, 118170, Note_on_c, 7, 57, 100
9, 118199, Note_on_c, 7, 57, 0
9, 118200, Note_on_c, 7, 45, 100
9, 118229, Note_on_c, 7, 45, 0
9, 118230, Note_on_c, 7, 52, 100
9, 118259, Note_on_c, 7, 52, 0
9, 118260, Note_on_c, 7, 57, 100
9, 118349, Note_on_c, 7, 57, 0
9, 118350, Note_on_c, 7, 55, 100
9, 118379, Note_on_c, 7, 55, 0
9, 118380, Note_on_c, 7, 57, 100
9, 118409, Note_on_c, 7, 57, 0
9, 118410, Note_on_c, 7, 58, 100
9, 118439, Note_on_c, 7, 58, 0
9, 118440, Note_on_c, 7, 60, 100
9, 118469, Note_on_c, 7, 60, 0
9, 118470, Note_on_c, 7, 57, 100
9, 118499, Note_on_c, 7, 57, 0
9, 118500, Note_on_c, 7, 54, 100
9, 118529, Note_on_c, 7, 54, 0
9, 118530, Note_on_c, 7, 57, 100
9, 118559, Note_on_c, 7, 57, 0
9, 118560, Note_on_c, 7, 50, 100
9, 118589, Note_on_c, 7, 50, 0
9, 118590, Note_on_c, 7, 48, 100
9, 118619, Note_on_c, 7, 48, 0
9, 118620, Note_on_c, 7, 46, 100
9, 118649, Note_on_c, 7, 46, 0
9, 118650, Note_on_c, 7, 50, 100
9, 118679, Note_on_c, 7, 50, 0
9, 118680, Note_on_c, 7, 48, 100
9, 118709, Note_on_c, 7, 48, 0
9, 118710, Note_on_c, 7, 46, 100
9, 118739, Note_on_c, 7, 46, 0
9, 118740, Note_on_c, 7, 45, 100
9, 118769, Note_on_c, 7, 45, 0
9, 118770, Note_on_c, 7, 50, 100
9, 118799, Note_on_c, 7, 50, 0
9, 118800, Note_on_c, 7, 43, 100
9, 118829, Note_on_c, 7, 43, 0
9, 118830, Note_on_c, 7, 46, 100
9, 118859, Note_on_c, 7, 46, 0
9, 118860, Note_on_c, 7, 48, 100
9, 118889, Note_on_c, 7, 48, 0
9, 118890, Note_on_c, 7, 50, 100
9, 118919, Note_on_c, 7, 50, 0
9, 118920, Note_on_c, 7, 51, 100
9, 118949, Note_on_c, 7, 51, 0
9, 118950, Note_on_c, 7, 48, 100
9, 118979, Note_on_c, 7, 48, 0
9, 118980, Note_on_c, 7, 50, 100
9, 119009, Note_on_c, 7, 50, 0
9, 119010, Note_on_c, 7, 52, 100
9, 119039, Note_on_c, 7, 52, 0
9, 119040, Note_on_c, 7, 54, 100
9, 119069, Note_on_c, 7, 54, 0
9, 119070, Note_on_c, 7, 50, 100
9, 119099, Note_on_c, 7, 50, 0
9, 119100, Note_on_c, 7, 55, 100
9, 119159, Note_on_c, 7, 55, 0
9, 119160, Note_on_c, 7, 48, 100
9, 119219, Note_on_c, 7, 48, 0
9, 119220, Note_on_c, 7, 50, 100
9, 119279, Note_on_c, 7, 50, 0
9, 119280, Note_on_c, 7, 43, 100
9, 119339, Note_on_c, 7, 43, 0
9, 119520, Note_on_c, 7, 57, 100
9, 119579, Note_on_c, 7, 57, 0
9, 119640, Note_on_c, 7, 55, 100
9, 119699, Note_on_c, 7, 55, 0
9, 119760, Note_on_c, 7, 53, 100
9, 119819, Note_on_c, 7, 53, 0
9, 119880, Note_on_c, 7, 52, 100
9, 119939, Note_on_c, 7, 52, 0
9, 120000, Note_on_c, 7, 53, 100
9, 120059, Note_on_c, 7, 53, 0
9, 120060, Note_on_c, 7, 50, 100
9, 120119, Note_on_c, 7, 50, 0
9, 120120, Note_on_c, 7, 46, 100
9, 120179, Note_on_c, 7, 46, 0
9, 120180, Note_on_c, 7, 48, 100
9, 120239, Note_on_c, 7, 48, 0
9, 120480, Note_on_c, 7, 55, 100
9, 120509, Note_on_c, 7, 55, 0
9, 120510, Note_on_c, 7, 62, 100
9, 120539, Note_on_c, 7, 62, 0
9, 120540, Note_on_c, 7, 60, 100
9, 120569, Note_on_c, 7, 60, 0
9, 120570, Note_on_c, 7, 59, 100
9, 120599, Note_on_c, 7, 59, 0
9, 120600, Note_on_c, 7, 55, 100
9, 120629, Note_on_c, 7, 55, 0
9, 120630, Note_on_c, 7, 62, 100
9, 120659, Note_on_c, 7, 62, 0
9, 120660, Note_on_c, 7, 60, 100
9, 120689, Note_on_c, 7, 60, 0
9, 120690, Note_on_c, 7, 59, 100
9, 120719, Note_on_c, 7, 59, 0
9, 120720, Note_on_c, 7, 48, 100
9, 120720, Note_on_c, 7, 60, 100
9, 120779, Note_on_c, 7, 60, 0
9, 120779, Note_on_c, 7, 48, 0
9, 120960, Note_on_c, 7, 45, 100
9, 121019, Note_on_c, 7, 45, 0
9, 121020, Note_on_c, 7, 45, 100
9, 121079, Note_on_c, 7, 45, 0
9, 121080, Note_on_c, 7, 45, 100
9, 121139, Note_on_c, 7, 45, 0
9, 121140, Note_on_c, 7, 45, 100
9, 121199, Note_on_c, 7, 45, 0
9, 121200, Note_on_c, 7, 46, 100
9, 121259, Note_on_c, 7, 46, 0
9, 121440, Note_on_c, 7, 44, 100
9, 121499, Note_on_c, 7, 44, 0
9, 121500, Note_on_c, 7, 44, 100
9, 121559, Note_on_c, 7, 44, 0
9, 121560, Note_on_c, 7, 56, 100
9, 121619, Note_on_c, 7, 56, 0
9, 121620, Note_on_c, 7, 56, 100
9, 121679, Note_on_c, 7, 56, 0
9, 121680, Note_on_c, 7, 55, 100
9, 121739, Note_on_c, 7, 55, 0
9, 121920, Note_on_c, 7, 52, 100
9, 121979, Note_on_c, 7, 52, 0
9, 121980, Note_on_c, 7, 52, 100
9, 122039, Note_on_c, 7, 52, 0
9, 122040, Note_on_c, 7, 40, 100
9, 122099, Note_on_c, 7, 40, 0
9, 122100, Note_on_c, 7, 40, 100
9, 122159, Note_on_c, 7, 40, 0
9, 122160, Note_on_c, 7, 41, 100
9, 122219, Note_on_c, 7, 41, 0
9, 122400, Note_on_c, 7, 38, 100
9, 122459, Note_on_c, 7, 38, 0
9, 122460, Note_on_c, 7, 38, 100
9, 122519, Note_on_c, 7, 38, 0
9, 122520, Note_on_c, 7, 50, 100
9, 122579, Note_on_c, 7, 50, 0
9, 122580, Note_on_c, 7, 50, 100
9, 122639, Note_on_c, 7, 50, 0
9, 122640, Note_on_c, 7, 50, 100
9, 122699, Note_on_c, 7, 50, 0
9, 122760, Note_on_c, 7, 49, 100
9, 122819, Note_on_c, 7, 49, 0
9, 122880, Note_on_c, 7, 48, 100
9, 122939, Note_on_c, 7, 48, 0
9, 123000, Note_on_c, 7, 47, 100
9, 123059, Note_on_c, 7, 47, 0
9, 123120, Note_on_c, 7, 46, 100
9, 123179, Note_on_c, 7, 46, 0
9, 123240, Note_on_c, 7, 45, 100
9, 123299, Note_on_c, 7, 45, 0
9, 123360, Note_on_c, 7, 44, 100
9, 123419, Note_on_c, 7, 44, 0
9, 123480, Note_on_c, 7, 43, 100
9, 123539, Note_on_c, 7, 43, 0
9, 123600, Note_on_c, 7, 43, 100
9, 123719, Note_on_c, 7, 43, 0
9, 123840, Note_on_c, 7, 53, 100
9, 123899, Note_on_c, 7, 53, 0
9, 123900, Note_on_c, 7, 41, 100
9, 123959, Note_on_c, 7, 41, 0
9, 123960, Note_on_c, 7, 40, 100
9, 124019, Note_on_c, 7, 40, 0
9, 124020, Note_on_c, 7, 52, 100
9, 124079, Note_on_c, 7, 52, 0
9, 124080, Note_on_c, 7, 53, 100
9, 124139, Note_on_c, 7, 53, 0
9, 124140, Note_on_c, 7, 41, 100
9, 124199, Note_on_c, 7, 41, 0
9, 124200, Note_on_c, 7, 43, 100
9, 124259, Note_on_c, 7, 43, 0
9, 124260, Note_on_c, 7, 55, 100
9, 124319, Note_on_c, 7, 55, 0
9, 124320, Note_on_c, 7, 57, 100
9, 124379, Note_on_c, 7, 57, 0
9, 124380, Note_on_c, 7, 58, 100
9, 124439, Note_on_c, 7, 58, 0
9, 124440, Note_on_c, 7, 55, 100
9, 124499, Note_on_c, 7, 55, 0
9, 124500, Note_on_c, 7, 57, 100
9, 124559, Note_on_c, 7, 57, 0
9, 124560, Note_on_c, 7, 50, 100
9, 124619, Note_on_c, 7, 50, 0
9, 124860, Note_on_c, 7, 58, 100
9, 124919, Note_on_c, 7, 58, 0
9, 124920, Note_on_c, 7, 57, 100
9, 124979, Note_on_c, 7, 57, 0
9, 124980, Note_on_c, 7, 45, 100
9, 125039, Note_on_c, 7, 45, 0
9, 125040, Note_on_c, 7, 43, 100
9, 125099, Note_on_c, 7, 43, 0
9, 125820, Note_on_c, 7, 57, 100
9, 125879, Note_on_c, 7, 57, 0
9, 125880, Note_on_c, 7, 55, 100
9, 125939, Note_on_c, 7, 55, 0
9, 125940, Note_on_c, 7, 43, 100
9, 125999, Note_on_c, 7, 43, 0
9, 126000, Note_on_c, 7, 41, 100
9, 126059, Note_on_c, 7, 41, 0
9, 126780, Note_on_c, 7, 55, 100
9, 126839, Note_on_c, 7, 55, 0
9, 126840, Note_on_c, 7, 53, 100
9, 126899, Note_on_c, 7, 53, 0
9, 126900, Note_on_c, 7, 41, 100
9, 126959, Note_on_c, 7, 41, 0
9, 126960, Note_on_c, 7, 40, 100
9, 127019, Note_on_c, 7, 40, 0
9, 127740, Note_on_c, 7, 41, 100
9, 127799, Note_on_c, 7, 41, 0
9, 127800, Note_on_c, 7, 40, 100
9, 127859, Note_on_c, 7, 40, 0
9, 127860, Note_on_c, 7, 52, 100
9, 127919, Note_on_c, 7, 52, 0
9, 127920, Note_on_c, 7, 50, 100
9, 127920, Note_on_c, 7, 57, 100
9, 127949, Note_on_c, 7, 57, 0
9, 127949, Note_on_c, 7, 50, 0
9, 127950, Note_on_c, 7, 55, 100
9, 127979, Note_on_c, 7, 55, 0
9, 127980, Note_on_c, 7, 53, 100
9, 128009, Note_on_c, 7, 53, 0
9, 128010, Note_on_c, 7, 57, 100
9, 128039, Note_on_c, 7, 57, 0
9, 128040, Note_on_c, 7, 55, 100
9, 128069, Note_on_c, 7, 55, 0
9, 128070, Note_on_c, 7, 53, 100
9, 128099, Note_on_c, 7, 53, 0
9, 128100, Note_on_c, 7, 52, 100
9, 128129, Note_on_c, 7, 52, 0
9, 128130, Note_on_c, 7, 57, 100
9, 128159, Note_on_c, 7, 57, 0
9, 128160, Note_on_c, 7, 50, 100
9, 128189, Note_on_c, 7, 50, 0
9, 128190, Note_on_c, 7, 53, 100
9, 128219, Note_on_c, 7, 53, 0
9, 128220, Note_on_c, 7, 55, 100
9, 128249, Note_on_c, 7, 55, 0
9, 128250, Note_on_c, 7, 57, 100
9, 128279, Note_on_c, 7, 57, 0
9, 128280, Note_on_c, 7, 58, 100
9, 128309, Note_on_c, 7, 58, 0
9, 128310, Note_on_c, 7, 55, 100
9, 128339, Note_on_c, 7, 55, 0
9, 128340, Note_on_c, 7, 57, 100
9, 128369, Note_on_c, 7, 57, 0
9, 128370, Note_on_c, 7, 59, 100
9, 128399, Note_on_c, 7, 59, 0
9, 128400, Note_on_c, 7, 61, 100
9, 128429, Note_on_c, 7, 61, 0
9, 128430, Note_on_c, 7, 57, 100
9, 128459, Note_on_c, 7, 57, 0
9, 128460, Note_on_c, 7, 62, 100
9, 128519, Note_on_c, 7, 62, 0
9, 128520, Note_on_c, 7, 55, 100
9, 128579, Note_on_c, 7, 55, 0
9, 128580, Note_on_c, 7, 57, 100
9, 128639, Note_on_c, 7, 57, 0
9, 128640, Note_on_c, 7, 50, 100
9, 128699, Note_on_c, 7, 50, 0
9, 128700, Note_on_c, 7, 58, 100
9, 128759, Note_on_c, 7, 58, 0
9, 128760, Note_on_c, 7, 59, 100
9, 128819, Note_on_c, 7, 59, 0
9, 128820, Note_on_c, 7, 47, 100
9, 128879, Note_on_c, 7, 47, 0
9, 128880, Note_on_c, 7, 48, 100
9, 128939, Note_on_c, 7, 48, 0
9, 128940, Note_on_c, 7, 60, 100
9, 128999, Note_on_c, 7, 60, 0
9, 129000, Note_on_c, 7, 61, 100
9, 129059, Note_on_c, 7, 61, 0
9, 129060, Note_on_c, 7, 49, 100
9, 129119, Note_on_c, 7, 49, 0
9, 129120, Note_on_c, 7, 50, 100
9, 129179, Note_on_c, 7, 50, 0
9, 129180, Note_on_c, 7, 46, 100
9, 129239, Note_on_c, 7, 46, 0
9, 129240, Note_on_c, 7, 43, 100
9, 129299, Note_on_c, 7, 43, 0
9, 129300, Note_on_c, 7, 45, 100
9, 129359, Note_on_c, 7, 45, 0
9, 129360, Note_on_c, 7, 50, 100
9, 129389, Note_on_c, 7, 50, 0
9, 129390, Note_on_c, 7, 57, 100
9, 129419, Note_on_c, 7, 57, 0
9, 129420, Note_on_c, 7, 55, 100
9, 129449, Note_on_c, 7, 55, 0
9, 129450, Note_on_c, 7, 53, 100
9, 129479, Note_on_c, 7, 53, 0
9, 129480, Note_on_c, 7, 58, 100
9, 129509, Note_on_c, 7, 58, 0
9, 129510, Note_on_c, 7, 55, 100
9, 129539, Note_on_c, 7, 55, 0
9, 129540, Note_on_c, 7, 53, 100
9, 129569, Note_on_c, 7, 53, 0
9, 129570, Note_on_c, 7, 52, 100
9, 129599, Note_on_c, 7, 52, 0
9, 129600, Note_on_c, 7, 57, 100
9, 129629, Note_on_c, 7, 57, 0
9, 129630, Note_on_c, 7, 53, 100
9, 129659, Note_on_c, 7, 53, 0
9, 129660, Note_on_c, 7, 52, 100
9, 129689, Note_on_c, 7, 52, 0
9, 129690, Note_on_c, 7, 50, 100
9, 129719, Note_on_c, 7, 50, 0
9, 129720, Note_on_c, 7, 55, 100
9, 129749, Note_on_c, 7, 55, 0
9, 129750, Note_on_c, 7, 53, 100
9, 129779, Note_on_c, 7, 53, 0
9, 129780, Note_on_c, 7, 52, 100
9, 129809, Note_on_c, 7, 52, 0
9, 129810, Note_on_c, 7, 50, 100
9, 129839, Note_on_c, 7, 50, 0
9, 129840, Note_on_c, 7, 57, 100
9, 129869, Note_on_c, 7, 57, 0
9, 129870, Note_on_c, 7, 53, 100
9, 129899, Note_on_c, 7, 53, 0
9, 129900, Note_on_c, 7, 52, 100
9, 129929, Note_on_c, 7, 52, 0
9, 129930, Note_on_c, 7, 50, 100
9, 129959, Note_on_c, 7, 50, 0
9, 129960, Note_on_c, 7, 58, 100
9, 129989, Note_on_c, 7, 58, 0
9, 129990, Note_on_c, 7, 55, 100
9, 130019, Note_on_c, 7, 55, 0
9, 130020, Note_on_c, 7, 53, 100
9, 130049, Note_on_c, 7, 53, 0
9, 130050, Note_on_c, 7, 52, 100
9, 130079, Note_on_c, 7, 52, 0
9, 130080, Note_on_c, 7, 57, 100
9, 130109, Note_on_c, 7, 57, 0
9, 130110, Note_on_c, 7, 53, 100
9, 130139, Note_on_c, 7, 53, 0
9, 130140, Note_on_c, 7, 52, 100
9, 130169, Note_on_c, 7, 52, 0
9, 130170, Note_on_c, 7, 50, 100
9, 130199, Note_on_c, 7, 50, 0
9, 130200, Note_on_c, 7, 55, 100
9, 130229, Note_on_c, 7, 55, 0
9, 130230, Note_on_c, 7, 53, 100
9, 130259, Note_on_c, 7, 53, 0
9, 130260, Note_on_c, 7, 52, 100
9, 130289, Note_on_c, 7, 52, 0
9, 130290, Note_on_c, 7, 55, 100
9, 130319, Note_on_c, 7, 55, 0
9, 130320, Note_on_c, 7, 53, 100
9, 130349, Note_on_c, 7, 53, 0
9, 130350, Note_on_c, 7, 50, 100
9, 130379, Note_on_c, 7, 50, 0
9, 130380, Note_on_c, 7, 55, 100
9, 130439, Note_on_c, 7, 55, 0
9, 130440, Note_on_c, 7, 57, 100
9, 130499, Note_on_c, 7, 57, 0
9, 130500, Note_on_c, 7, 45, 100
9, 130559, Note_on_c, 7, 45, 0
9, 130560, Note_on_c, 7, 50, 100
9, 130560, Note_on_c, 7, 38, 100
9, 130799, Note_on_c, 7, 38, 0
9, 130799, Note_on_c, 7, 50, 0
9, 130799, End_track
10, 0, Start_track
10, 0, MIDI_port, 0
10, 0, Title_t, "clave h iii"
10, 0, Program_c, 8, 6
10, 60, Note_on_c, 8, 62, 110
10, 120, Note_on_c, 8, 62, 0
10, 120, Note_on_c, 8, 64, 110
10, 180, Note_on_c, 8, 64, 0
10, 180, Note_on_c, 8, 65, 110
10, 240, Note_on_c, 8, 65, 0
10, 240, Note_on_c, 8, 65, 110
10, 300, Note_on_c, 8, 65, 0
10, 300, Note_on_c, 8, 67, 110
10, 360, Note_on_c, 8, 67, 0
10, 360, Note_on_c, 8, 69, 110
10, 420, Note_on_c, 8, 69, 0
10, 420, Note_on_c, 8, 69, 110
10, 480, Note_on_c, 8, 69, 0
10, 480, Note_on_c, 8, 70, 110
10, 540, Note_on_c, 8, 70, 0
10, 540, Note_on_c, 8, 69, 110
10, 600, Note_on_c, 8, 69, 0
10, 600, Note_on_c, 8, 67, 110
10, 630, Note_on_c, 8, 67, 0
10, 630, Note_on_c, 8, 65, 110
10, 660, Note_on_c, 8, 65, 0
10, 660, Note_on_c, 8, 64, 110
10, 690, Note_on_c, 8, 64, 0
10, 690, Note_on_c, 8, 62, 110
10, 720, Note_on_c, 8, 62, 0
10, 720, Note_on_c, 8, 61, 110
10, 780, Note_on_c, 8, 61, 0
10, 780, Note_on_c, 8, 57, 110
10, 810, Note_on_c, 8, 57, 0
10, 810, Note_on_c, 8, 59, 110
10, 840, Note_on_c, 8, 59, 0
10, 840, Note_on_c, 8, 61, 110
10, 870, Note_on_c, 8, 61, 0
10, 870, Note_on_c, 8, 62, 110
10, 900, Note_on_c, 8, 62, 0
10, 900, Note_on_c, 8, 64, 110
10, 960, Note_on_c, 8, 64, 0
10, 960, Note_on_c, 8, 64, 110
10, 1020, Note_on_c, 8, 64, 0
10, 1020, Note_on_c, 8, 65, 110
10, 1080, Note_on_c, 8, 65, 0
10, 1080, Note_on_c, 8, 64, 110
10, 1140, Note_on_c, 8, 64, 0
10, 1140, Note_on_c, 8, 57, 110
10, 1170, Note_on_c, 8, 57, 0
10, 1170, Note_on_c, 8, 59, 110
10, 1200, Note_on_c, 8, 59, 0
10, 1200, Note_on_c, 8, 61, 110
10, 1230, Note_on_c, 8, 61, 0
10, 1230, Note_on_c, 8, 62, 110
10, 1260, Note_on_c, 8, 62, 0
10, 1260, Note_on_c, 8, 64, 110
10, 1320, Note_on_c, 8, 64, 0
10, 1320, Note_on_c, 8, 64, 110
10, 1380, Note_on_c, 8, 64, 0
10, 1380, Note_on_c, 8, 65, 110
10, 1440, Note_on_c, 8, 65, 0
10, 1440, Note_on_c, 8, 64, 110
10, 1500, Note_on_c, 8, 64, 0
10, 1500, Note_on_c, 8, 57, 110
10, 1530, Note_on_c, 8, 57, 0
10, 1530, Note_on_c, 8, 59, 110
10, 1560, Note_on_c, 8, 59, 0
10, 1560, Note_on_c, 8, 61, 110
10, 1590, Note_on_c, 8, 61, 0
10, 1590, Note_on_c, 8, 62, 110
10, 1620, Note_on_c, 8, 62, 0
10, 1620, Note_on_c, 8, 64, 110
10, 1650, Note_on_c, 8, 64, 0
10, 1650, Note_on_c, 8, 62, 110
10, 1680, Note_on_c, 8, 62, 0
10, 1680, Note_on_c, 8, 61, 110
10, 1710, Note_on_c, 8, 61, 0
10, 1710, Note_on_c, 8, 62, 110
10, 1740, Note_on_c, 8, 62, 0
10, 1740, Note_on_c, 8, 64, 110
10, 1770, Note_on_c, 8, 64, 0
10, 1770, Note_on_c, 8, 65, 110
10, 1800, Note_on_c, 8, 65, 0
10, 1800, Note_on_c, 8, 67, 110
10, 1830, Note_on_c, 8, 67, 0
10, 1830, Note_on_c, 8, 65, 110
10, 1860, Note_on_c, 8, 65, 0
10, 1860, Note_on_c, 8, 64, 110
10, 1890, Note_on_c, 8, 64, 0
10, 1890, Note_on_c, 8, 65, 110
10, 1920, Note_on_c, 8, 65, 0
10, 1920, Note_on_c, 8, 67, 110
10, 1950, Note_on_c, 8, 67, 0
10, 1950, Note_on_c, 8, 69, 110
10, 1980, Note_on_c, 8, 69, 0
10, 1980, Note_on_c, 8, 70, 110
10, 2010, Note_on_c, 8, 70, 0
10, 2010, Note_on_c, 8, 69, 110
10, 2040, Note_on_c, 8, 69, 0
10, 2040, Note_on_c, 8, 67, 110
10, 2070, Note_on_c, 8, 67, 0
10, 2070, Note_on_c, 8, 65, 110
10, 2100, Note_on_c, 8, 65, 0
10, 2100, Note_on_c, 8, 64, 110
10, 2130, Note_on_c, 8, 64, 0
10, 2130, Note_on_c, 8, 62, 110
10, 2160, Note_on_c, 8, 62, 0
10, 2160, Note_on_c, 8, 61, 110
10, 2190, Note_on_c, 8, 61, 0
10, 2190, Note_on_c, 8, 64, 110
10, 2220, Note_on_c, 8, 64, 0
10, 2220, Note_on_c, 8, 57, 110
10, 2250, Note_on_c, 8, 57, 0
10, 2250, Note_on_c, 8, 61, 110
10, 2280, Note_on_c, 8, 61, 0
10, 2280, Note_on_c, 8, 62, 110
10, 2340, Note_on_c, 8, 62, 0
10, 2370, Note_on_c, 8, 55, 110
10, 2400, Note_on_c, 8, 55, 0
10, 2400, Note_on_c, 8, 57, 110
10, 2460, Note_on_c, 8, 57, 0
10, 2460, Note_on_c, 8, 57, 110
10, 2520, Note_on_c, 8, 57, 0
10, 2730, Note_on_c, 8, 62, 110
10, 2760, Note_on_c, 8, 62, 0
10, 2760, Note_on_c, 8, 65, 110
10, 2790, Note_on_c, 8, 65, 0
10, 2790, Note_on_c, 8, 69, 110
10, 2820, Note_on_c, 8, 69, 0
10, 2820, Note_on_c, 8, 74, 110
10, 2850, Note_on_c, 8, 74, 0
10, 2850, Note_on_c, 8, 73, 110
10, 2880, Note_on_c, 8, 73, 0
10, 2880, Note_on_c, 8, 74, 110
10, 2910, Note_on_c, 8, 74, 0
10, 2910, Note_on_c, 8, 72, 110
10, 2940, Note_on_c, 8, 72, 0
10, 2940, Note_on_c, 8, 70, 110
10, 2970, Note_on_c, 8, 70, 0
10, 2970, Note_on_c, 8, 69, 110
10, 3000, Note_on_c, 8, 69, 0
10, 3000, Note_on_c, 8, 67, 110
10, 3030, Note_on_c, 8, 67, 0
10, 3030, Note_on_c, 8, 65, 110
10, 3060, Note_on_c, 8, 65, 0
10, 3060, Note_on_c, 8, 64, 110
10, 3120, Note_on_c, 8, 64, 0
10, 3120, Note_on_c, 8, 69, 110
10, 3180, Note_on_c, 8, 69, 0
10, 3180, Note_on_c, 8, 69, 110
10, 3195, Note_on_c, 8, 69, 0
10, 3195, Note_on_c, 8, 67, 110
10, 3210, Note_on_c, 8, 67, 0
10, 3210, Note_on_c, 8, 69, 110
10, 3225, Note_on_c, 8, 69, 0
10, 3225, Note_on_c, 8, 67, 110
10, 3240, Note_on_c, 8, 67, 0
10, 3240, Note_on_c, 8, 69, 110
10, 3300, Note_on_c, 8, 69, 0
10, 3300, Note_on_c, 8, 61, 110
10, 3330, Note_on_c, 8, 61, 0
10, 3330, Note_on_c, 8, 62, 110
10, 3360, Note_on_c, 8, 62, 0
10, 3360, Note_on_c, 8, 64, 110
10, 3390, Note_on_c, 8, 64, 0
10, 3390, Note_on_c, 8, 65, 110
10, 3420, Note_on_c, 8, 65, 0
10, 3420, Note_on_c, 8, 67, 110
10, 3450, Note_on_c, 8, 67, 0
10, 3450, Note_on_c, 8, 69, 110
10, 3480, Note_on_c, 8, 69, 0
10, 3480, Note_on_c, 8, 67, 110
10, 3510, Note_on_c, 8, 67, 0
10, 3510, Note_on_c, 8, 65, 110
10, 3540, Note_on_c, 8, 65, 0
10, 3540, Note_on_c, 8, 64, 110
10, 3570, Note_on_c, 8, 64, 0
10, 3570, Note_on_c, 8, 62, 110
10, 3600, Note_on_c, 8, 62, 0
10, 3600, Note_on_c, 8, 61, 110
10, 3630, Note_on_c, 8, 61, 0
10, 3630, Note_on_c, 8, 59, 110
10, 3660, Note_on_c, 8, 59, 0
10, 3660, Note_on_c, 8, 57, 110
10, 3690, Note_on_c, 8, 57, 0
10, 3690, Note_on_c, 8, 59, 110
10, 3720, Note_on_c, 8, 59, 0
10, 3720, Note_on_c, 8, 61, 110
10, 3750, Note_on_c, 8, 61, 0
10, 3750, Note_on_c, 8, 62, 110
10, 3780, Note_on_c, 8, 62, 0
10, 3780, Note_on_c, 8, 64, 110
10, 3840, Note_on_c, 8, 64, 0
10, 3840, Note_on_c, 8, 57, 110
10, 3840, Note_on_c, 8, 61, 110
10, 3840, Note_on_c, 8, 64, 110
10, 3900, Note_on_c, 8, 64, 0
10, 3900, Note_on_c, 8, 61, 0
10, 3900, Note_on_c, 8, 57, 0
10, 3900, Note_on_c, 8, 57, 110
10, 3900, Note_on_c, 8, 62, 110
10, 3900, Note_on_c, 8, 65, 110
10, 3960, Note_on_c, 8, 65, 0
10, 3960, Note_on_c, 8, 62, 0
10, 3960, Note_on_c, 8, 57, 0
10, 3960, Note_on_c, 8, 61, 110
10, 3960, Note_on_c, 8, 64, 110
10, 4020, Note_on_c, 8, 64, 0
10, 4020, Note_on_c, 8, 61, 0
10, 4170, Note_on_c, 8, 69, 110
10, 4200, Note_on_c, 8, 69, 0
10, 4200, Note_on_c, 8, 72, 110
10, 4230, Note_on_c, 8, 72, 0
10, 4230, Note_on_c, 8, 76, 110
10, 4260, Note_on_c, 8, 76, 0
10, 4260, Note_on_c, 8, 81, 110
10, 4290, Note_on_c, 8, 81, 0
10, 4290, Note_on_c, 8, 80, 110
10, 4320, Note_on_c, 8, 80, 0
10, 4320, Note_on_c, 8, 81, 110
10, 4350, Note_on_c, 8, 81, 0
10, 4350, Note_on_c, 8, 79, 110
10, 4380, Note_on_c, 8, 79, 0
10, 4380, Note_on_c, 8, 77, 110
10, 4410, Note_on_c, 8, 77, 0
10, 4410, Note_on_c, 8, 76, 110
10, 4440, Note_on_c, 8, 76, 0
10, 4440, Note_on_c, 8, 74, 110
10, 4470, Note_on_c, 8, 74, 0
10, 4470, Note_on_c, 8, 72, 110
10, 4500, Note_on_c, 8, 72, 0
10, 4500, Note_on_c, 8, 71, 110
10, 4560, Note_on_c, 8, 71, 0
10, 4560, Note_on_c, 8, 76, 110
10, 4620, Note_on_c, 8, 76, 0
10, 4620, Note_on_c, 8, 76, 110
10, 4635, Note_on_c, 8, 76, 0
10, 4635, Note_on_c, 8, 74, 110
10, 4650, Note_on_c, 8, 74, 0
10, 4650, Note_on_c, 8, 72, 110
10, 4665, Note_on_c, 8, 72, 0
10, 4665, Note_on_c, 8, 74, 110
10, 4680, Note_on_c, 8, 74, 0
10, 4680, Note_on_c, 8, 76, 110
10, 4740, Note_on_c, 8, 76, 0
10, 4740, Note_on_c, 8, 68, 110
10, 4770, Note_on_c, 8, 68, 0
10, 4770, Note_on_c, 8, 69, 110
10, 4800, Note_on_c, 8, 69, 0
10, 4800, Note_on_c, 8, 71, 110
10, 4830, Note_on_c, 8, 71, 0
10, 4830, Note_on_c, 8, 72, 110
10, 4860, Note_on_c, 8, 72, 0
10, 4860, Note_on_c, 8, 74, 110
10, 4890, Note_on_c, 8, 74, 0
10, 4890, Note_on_c, 8, 76, 110
10, 4920, Note_on_c, 8, 76, 0
10, 4920, Note_on_c, 8, 74, 110
10, 4950, Note_on_c, 8, 74, 0
10, 4950, Note_on_c, 8, 72, 110
10, 4980, Note_on_c, 8, 72, 0
10, 4980, Note_on_c, 8, 71, 110
10, 5010, Note_on_c, 8, 71, 0
10, 5010, Note_on_c, 8, 69, 110
10, 5040, Note_on_c, 8, 69, 0
10, 5040, Note_on_c, 8, 68, 110
10, 5100, Note_on_c, 8, 68, 0
10, 5100, Note_on_c, 8, 69, 110
10, 5115, Note_on_c, 8, 69, 0
10, 5115, Note_on_c, 8, 68, 110
10, 5130, Note_on_c, 8, 68, 0
10, 5130, Note_on_c, 8, 69, 110
10, 5145, Note_on_c, 8, 69, 0
10, 5145, Note_on_c, 8, 68, 110
10, 5160, Note_on_c, 8, 68, 0
10, 5160, Note_on_c, 8, 69, 110
10, 5175, Note_on_c, 8, 69, 0
10, 5175, Note_on_c, 8, 68, 110
10, 5190, Note_on_c, 8, 68, 0
10, 5190, Note_on_c, 8, 66, 110
10, 5205, Note_on_c, 8, 66, 0
10, 5205, Note_on_c, 8, 68, 110
10, 5220, Note_on_c, 8, 68, 0
10, 5220, Note_on_c, 8, 69, 110
10, 5280, Note_on_c, 8, 69, 0
10, 5280, Note_on_c, 8, 61, 110
10, 5280, Note_on_c, 8, 64, 110
10, 5280, Note_on_c, 8, 69, 110
10, 5340, Note_on_c, 8, 69, 0
10, 5340, Note_on_c, 8, 64, 0
10, 5340, Note_on_c, 8, 61, 0
10, 5340, Note_on_c, 8, 57, 110
10, 5340, Note_on_c, 8, 64, 110
10, 5340, Note_on_c, 8, 69, 110
10, 5400, Note_on_c, 8, 69, 0
10, 5400, Note_on_c, 8, 64, 0
10, 5400, Note_on_c, 8, 57, 0
10, 5400, Note_on_c, 8, 69, 100
10, 5400, Note_on_c, 8, 65, 100
10, 5400, Note_on_c, 8, 57, 100
10, 5429, Note_on_c, 8, 57, 0
10, 5429, Note_on_c, 8, 65, 0
10, 5429, Note_on_c, 8, 69, 0
10, 5430, Note_on_c, 8, 62, 100
10, 5459, Note_on_c, 8, 62, 0
10, 5460, Note_on_c, 8, 66, 100
10, 5489, Note_on_c, 8, 66, 0
10, 5490, Note_on_c, 8, 69, 100
10, 5519, Note_on_c, 8, 69, 0
10, 5520, Note_on_c, 8, 74, 100
10, 5549, Note_on_c, 8, 74, 0
10, 5550, Note_on_c, 8, 72, 100
10, 5579, Note_on_c, 8, 72, 0
10, 5580, Note_on_c, 8, 70, 100
10, 5639, Note_on_c, 8, 70, 0
10, 5640, Note_on_c, 8, 72, 100
10, 5654, Note_on_c, 8, 72, 0
10, 5655, Note_on_c, 8, 71, 100
10, 5669, Note_on_c, 8, 71, 0
10, 5670, Note_on_c, 8, 72, 100
10, 5684, Note_on_c, 8, 72, 0
10, 5685, Note_on_c, 8, 71, 100
10, 5699, Note_on_c, 8, 71, 0
10, 5700, Note_on_c, 8, 72, 100
10, 5714, Note_on_c, 8, 72, 0
10, 5715, Note_on_c, 8, 71, 100
10, 5729, Note_on_c, 8, 71, 0
10, 5730, Note_on_c, 8, 69, 100
10, 5744, Note_on_c, 8, 69, 0
10, 5745, Note_on_c, 8, 71, 100
10, 5759, Note_on_c, 8, 71, 0
10, 5760, Note_on_c, 8, 72, 100
10, 5819, Note_on_c, 8, 72, 0
10, 5820, Note_on_c, 8, 64, 100
10, 5820, Note_on_c, 8, 72, 100
10, 5820, Note_on_c, 8, 67, 100
10, 5879, Note_on_c, 8, 67, 0
10, 5879, Note_on_c, 8, 72, 0
10, 5879, Note_on_c, 8, 64, 0
10, 5880, Note_on_c, 8, 60, 100
10, 5880, Note_on_c, 8, 67, 100
10, 5880, Note_on_c, 8, 72, 100
10, 5939, Note_on_c, 8, 72, 0
10, 5939, Note_on_c, 8, 67, 0
10, 5939, Note_on_c, 8, 60, 0
10, 5940, Note_on_c, 8, 60, 100
10, 5940, Note_on_c, 8, 69, 100
10, 5940, Note_on_c, 8, 72, 100
10, 5969, Note_on_c, 8, 72, 0
10, 5969, Note_on_c, 8, 69, 0
10, 5969, Note_on_c, 8, 60, 0
10, 5970, Note_on_c, 8, 71, 100
10, 5999, Note_on_c, 8, 71, 0
10, 6000, Note_on_c, 8, 72, 100
10, 6029, Note_on_c, 8, 72, 0
10, 6030, Note_on_c, 8, 69, 100
10, 6059, Note_on_c, 8, 69, 0
10, 6060, Note_on_c, 8, 65, 100
10, 6089, Note_on_c, 8, 65, 0
10, 6090, Note_on_c, 8, 74, 100
10, 6119, Note_on_c, 8, 74, 0
10, 6120, Note_on_c, 8, 71, 100
10, 6149, Note_on_c, 8, 71, 0
10, 6150, Note_on_c, 8, 72, 100
10, 6179, Note_on_c, 8, 72, 0
10, 6180, Note_on_c, 8, 71, 100
10, 6209, Note_on_c, 8, 71, 0
10, 6210, Note_on_c, 8, 69, 100
10, 6239, Note_on_c, 8, 69, 0
10, 6240, Note_on_c, 8, 68, 100
10, 6269, Note_on_c, 8, 68, 0
10, 6270, Note_on_c, 8, 66, 100
10, 6299, Note_on_c, 8, 66, 0
10, 6300, Note_on_c, 8, 64, 100
10, 6359, Note_on_c, 8, 64, 0
10, 6360, Note_on_c, 8, 74, 100
10, 6360, Note_on_c, 8, 76, 100
10, 6360, Note_on_c, 8, 80, 100
10, 6419, Note_on_c, 8, 80, 0
10, 6419, Note_on_c, 8, 76, 0
10, 6419, Note_on_c, 8, 74, 0
10, 6420, Note_on_c, 8, 72, 100
10, 6420, Note_on_c, 8, 76, 100
10, 6420, Note_on_c, 8, 81, 100
10, 6479, Note_on_c, 8, 81, 0
10, 6479, Note_on_c, 8, 76, 0
10, 6479, Note_on_c, 8, 72, 0
10, 6480, Note_on_c, 8, 76, 100
10, 6480, Note_on_c, 8, 80, 100
10, 6480, Note_on_c, 8, 83, 100
10, 6539, Note_on_c, 8, 83, 0
10, 6539, Note_on_c, 8, 80, 0
10, 6539, Note_on_c, 8, 76, 0
10, 6720, Note_on_c, 8, 74, 100
10, 6779, Note_on_c, 8, 74, 0
10, 6780, Note_on_c, 8, 74, 100
10, 6839, Note_on_c, 8, 74, 0
10, 6840, Note_on_c, 8, 68, 100
10, 6899, Note_on_c, 8, 68, 0
10, 6900, Note_on_c, 8, 71, 100
10, 6959, Note_on_c, 8, 71, 0
10, 6960, Note_on_c, 8, 71, 100
10, 7019, Note_on_c, 8, 71, 0
10, 7020, Note_on_c, 8, 62, 100
10, 7079, Note_on_c, 8, 62, 0
10, 7080, Note_on_c, 8, 65, 100
10, 7139, Note_on_c, 8, 65, 0
10, 7140, Note_on_c, 8, 65, 100
10, 7199, Note_on_c, 8, 65, 0
10, 7200, Note_on_c, 8, 59, 100
10, 7229, Note_on_c, 8, 59, 0
10, 7230, Note_on_c, 8, 64, 100
10, 7259, Note_on_c, 8, 64, 0
10, 7260, Note_on_c, 8, 68, 100
10, 7289, Note_on_c, 8, 68, 0
10, 7290, Note_on_c, 8, 71, 100
10, 7319, Note_on_c, 8, 71, 0
10, 7320, Note_on_c, 8, 69, 100
10, 7379, Note_on_c, 8, 69, 0
10, 7410, Note_on_c, 8, 65, 100
10, 7439, Note_on_c, 8, 65, 0
10, 7440, Note_on_c, 8, 64, 100
10, 7499, Note_on_c, 8, 64, 0
10, 7500, Note_on_c, 8, 62, 100
10, 7559, Note_on_c, 8, 62, 0
10, 7560, Note_on_c, 8, 60, 100
10, 7589, Note_on_c, 8, 60, 0
10, 7590, Note_on_c, 8, 57, 100
10, 7619, Note_on_c, 8, 57, 0
10, 7620, Note_on_c, 8, 60, 100
10, 7649, Note_on_c, 8, 60, 0
10, 7650, Note_on_c, 8, 64, 100
10, 7679, Note_on_c, 8, 64, 0
10, 7680, Note_on_c, 8, 60, 100
10, 7709, Note_on_c, 8, 60, 0
10, 7710, Note_on_c, 8, 57, 100
10, 7739, Note_on_c, 8, 57, 0
10, 7740, Note_on_c, 8, 64, 100
10, 7769, Note_on_c, 8, 64, 0
10, 7770, Note_on_c, 8, 60, 100
10, 7799, Note_on_c, 8, 60, 0
10, 7800, Note_on_c, 8, 64, 100
10, 7829, Note_on_c, 8, 64, 0
10, 7830, Note_on_c, 8, 69, 100
10, 7859, Note_on_c, 8, 69, 0
10, 7860, Note_on_c, 8, 64, 100
10, 7889, Note_on_c, 8, 64, 0
10, 7890, Note_on_c, 8, 60, 100
10, 7919, Note_on_c, 8, 60, 0
10, 7920, Note_on_c, 8, 69, 100
10, 7949, Note_on_c, 8, 69, 0
10, 7950, Note_on_c, 8, 64, 100
10, 7979, Note_on_c, 8, 64, 0
10, 7980, Note_on_c, 8, 69, 100
10, 8009, Note_on_c, 8, 69, 0
10, 8010, Note_on_c, 8, 72, 100
10, 8039, Note_on_c, 8, 72, 0
10, 8040, Note_on_c, 8, 69, 100
10, 8069, Note_on_c, 8, 69, 0
10, 8070, Note_on_c, 8, 64, 100
10, 8099, Note_on_c, 8, 64, 0
10, 8100, Note_on_c, 8, 69, 100
10, 8129, Note_on_c, 8, 69, 0
10, 8130, Note_on_c, 8, 61, 100
10, 8159, Note_on_c, 8, 61, 0
10, 8160, Note_on_c, 8, 62, 100
10, 8189, Note_on_c, 8, 62, 0
10, 8190, Note_on_c, 8, 64, 100
10, 8219, Note_on_c, 8, 64, 0
10, 8220, Note_on_c, 8, 65, 100
10, 8249, Note_on_c, 8, 65, 0
10, 8250, Note_on_c, 8, 67, 100
10, 8279, Note_on_c, 8, 67, 0
10, 8280, Note_on_c, 8, 69, 100
10, 8339, Note_on_c, 8, 69, 0
10, 8490, Note_on_c, 8, 62, 100
10, 8519, Note_on_c, 8, 62, 0
10, 8520, Note_on_c, 8, 65, 100
10, 8549, Note_on_c, 8, 65, 0
10, 8550, Note_on_c, 8, 69, 100
10, 8579, Note_on_c, 8, 69, 0
10, 8580, Note_on_c, 8, 65, 100
10, 8609, Note_on_c, 8, 65, 0
10, 8610, Note_on_c, 8, 62, 100
10, 8639, Note_on_c, 8, 62, 0
10, 8640, Note_on_c, 8, 69, 100
10, 8669, Note_on_c, 8, 69, 0
10, 8670, Note_on_c, 8, 65, 100
10, 8699, Note_on_c, 8, 65, 0
10, 8700, Note_on_c, 8, 69, 100
10, 8729, Note_on_c, 8, 69, 0
10, 8730, Note_on_c, 8, 74, 100
10, 8759, Note_on_c, 8, 74, 0
10, 8760, Note_on_c, 8, 69, 100
10, 8789, Note_on_c, 8, 69, 0
10, 8790, Note_on_c, 8, 65, 100
10, 8819, Note_on_c, 8, 65, 0
10, 8820, Note_on_c, 8, 77, 100
10, 8849, Note_on_c, 8, 77, 0
10, 8850, Note_on_c, 8, 74, 100
10, 8879, Note_on_c, 8, 74, 0
10, 8880, Note_on_c, 8, 76, 100
10, 8909, Note_on_c, 8, 76, 0
10, 8910, Note_on_c, 8, 78, 100
10, 8939, Note_on_c, 8, 78, 0
10, 8940, Note_on_c, 8, 79, 100
10, 8969, Note_on_c, 8, 79, 0
10, 8970, Note_on_c, 8, 81, 100
10, 8999, Note_on_c, 8, 81, 0
10, 9000, Note_on_c, 8, 82, 100
10, 9029, Note_on_c, 8, 82, 0
10, 9030, Note_on_c, 8, 81, 100
10, 9059, Note_on_c, 8, 81, 0
10, 9060, Note_on_c, 8, 79, 100
10, 9119, Note_on_c, 8, 79, 0
10, 9120, Note_on_c, 8, 77, 100
10, 9179, Note_on_c, 8, 77, 0
10, 9180, Note_on_c, 8, 76, 100
10, 9199, Note_on_c, 8, 76, 0
10, 9200, Note_on_c, 8, 77, 100
10, 9219, Note_on_c, 8, 77, 0
10, 9220, Note_on_c, 8, 76, 100
10, 9239, Note_on_c, 8, 76, 0
10, 9240, Note_on_c, 8, 77, 100
10, 9254, Note_on_c, 8, 77, 0
10, 9255, Note_on_c, 8, 76, 100
10, 9269, Note_on_c, 8, 76, 0
10, 9270, Note_on_c, 8, 77, 100
10, 9284, Note_on_c, 8, 77, 0
10, 9285, Note_on_c, 8, 76, 100
10, 9299, Note_on_c, 8, 76, 0
10, 9300, Note_on_c, 8, 77, 100
10, 9309, Note_on_c, 8, 77, 0
10, 9310, Note_on_c, 8, 76, 100
10, 9319, Note_on_c, 8, 76, 0
10, 9320, Note_on_c, 8, 77, 100
10, 9329, Note_on_c, 8, 77, 0
10, 9330, Note_on_c, 8, 76, 100
10, 9339, Note_on_c, 8, 76, 0
10, 9340, Note_on_c, 8, 77, 100
10, 9349, Note_on_c, 8, 77, 0
10, 9350, Note_on_c, 8, 76, 100
10, 9359, Note_on_c, 8, 76, 0
10, 9360, Note_on_c, 8, 77, 100
10, 9374, Note_on_c, 8, 77, 0
10, 9375, Note_on_c, 8, 76, 100
10, 9389, Note_on_c, 8, 76, 0
10, 9390, Note_on_c, 8, 74, 100
10, 9404, Note_on_c, 8, 74, 0
10, 9405, Note_on_c, 8, 72, 100
10, 9419, Note_on_c, 8, 72, 0
10, 9420, Note_on_c, 8, 77, 100
10, 9479, Note_on_c, 8, 77, 0
10, 9480, Note_on_c, 8, 76, 100
10, 9539, Note_on_c, 8, 76, 0
10, 9540, Note_on_c, 8, 74, 100
10, 9559, Note_on_c, 8, 74, 0
10, 9560, Note_on_c, 8, 76, 100
10, 9579, Note_on_c, 8, 76, 0
10, 9580, Note_on_c, 8, 74, 100
10, 9599, Note_on_c, 8, 74, 0
10, 9600, Note_on_c, 8, 76, 100
10, 9614, Note_on_c, 8, 76, 0
10, 9615, Note_on_c, 8, 74, 100
10, 9629, Note_on_c, 8, 74, 0
10, 9630, Note_on_c, 8, 76, 100
10, 9644, Note_on_c, 8, 76, 0
10, 9645, Note_on_c, 8, 74, 100
10, 9659, Note_on_c, 8, 74, 0
10, 9660, Note_on_c, 8, 76, 100
10, 9669, Note_on_c, 8, 76, 0
10, 9670, Note_on_c, 8, 74, 100
10, 9679, Note_on_c, 8, 74, 0
10, 9680, Note_on_c, 8, 76, 100
10, 9689, Note_on_c, 8, 76, 0
10, 9690, Note_on_c, 8, 74, 100
10, 9699, Note_on_c, 8, 74, 0
10, 9700, Note_on_c, 8, 76, 100
10, 9709, Note_on_c, 8, 76, 0
10, 9710, Note_on_c, 8, 74, 100
10, 9719, Note_on_c, 8, 74, 0
10, 9720, Note_on_c, 8, 76, 100
10, 9734, Note_on_c, 8, 76, 0
10, 9735, Note_on_c, 8, 74, 100
10, 9749, Note_on_c, 8, 74, 0
10, 9750, Note_on_c, 8, 73, 100
10, 9764, Note_on_c, 8, 73, 0
10, 9765, Note_on_c, 8, 71, 100
10, 9779, Note_on_c, 8, 71, 0
10, 9780, Note_on_c, 8, 76, 100
10, 9839, Note_on_c, 8, 76, 0
10, 9840, Note_on_c, 8, 74, 100
10, 9899, Note_on_c, 8, 74, 0
10, 9900, Note_on_c, 8, 73, 100
10, 9919, Note_on_c, 8, 73, 0
10, 9920, Note_on_c, 8, 74, 100
10, 9939, Note_on_c, 8, 74, 0
10, 9940, Note_on_c, 8, 73, 100
10, 9959, Note_on_c, 8, 73, 0
10, 9960, Note_on_c, 8, 74, 100
10, 9974, Note_on_c, 8, 74, 0
10, 9975, Note_on_c, 8, 73, 100
10, 9989, Note_on_c, 8, 73, 0
10, 9990, Note_on_c, 8, 74, 100
10, 10004, Note_on_c, 8, 74, 0
10, 10005, Note_on_c, 8, 73, 100
10, 10019, Note_on_c, 8, 73, 0
10, 10020, Note_on_c, 8, 74, 100
10, 10034, Note_on_c, 8, 74, 0
10, 10035, Note_on_c, 8, 73, 100
10, 10049, Note_on_c, 8, 73, 0
10, 10050, Note_on_c, 8, 71, 100
10, 10064, Note_on_c, 8, 71, 0
10, 10065, Note_on_c, 8, 73, 100
10, 10079, Note_on_c, 8, 73, 0
10, 10080, Note_on_c, 8, 74, 100
10, 10139, Note_on_c, 8, 74, 0
10, 10140, Note_on_c, 8, 62, 100
10, 10199, Note_on_c, 8, 62, 0
10, 10200, Note_on_c, 8, 64, 100
10, 10259, Note_on_c, 8, 64, 0
10, 10260, Note_on_c, 8, 65, 100
10, 10319, Note_on_c, 8, 65, 0
10, 10320, Note_on_c, 8, 65, 100
10, 10379, Note_on_c, 8, 65, 0
10, 10380, Note_on_c, 8, 67, 100
10, 10439, Note_on_c, 8, 67, 0
10, 10440, Note_on_c, 8, 69, 100
10, 10499, Note_on_c, 8, 69, 0
10, 10500, Note_on_c, 8, 69, 100
10, 10559, Note_on_c, 8, 69, 0
10, 10560, Note_on_c, 8, 70, 100
10, 10619, Note_on_c, 8, 70, 0
10, 10620, Note_on_c, 8, 69, 100
10, 10679, Note_on_c, 8, 69, 0
10, 10680, Note_on_c, 8, 67, 100
10, 10709, Note_on_c, 8, 67, 0
10, 10710, Note_on_c, 8, 65, 100
10, 10739, Note_on_c, 8, 65, 0
10, 10740, Note_on_c, 8, 64, 100
10, 10769, Note_on_c, 8, 64, 0
10, 10770, Note_on_c, 8, 62, 100
10, 10799, Note_on_c, 8, 62, 0
10, 10800, Note_on_c, 8, 61, 100
10, 10829, Note_on_c, 8, 61, 0
10, 10830, Note_on_c, 8, 59, 100
10, 10859, Note_on_c, 8, 59, 0
10, 10860, Note_on_c, 8, 57, 100
10, 10889, Note_on_c, 8, 57, 0
10, 10890, Note_on_c, 8, 59, 100
10, 10919, Note_on_c, 8, 59, 0
10, 10920, Note_on_c, 8, 61, 100
10, 10949, Note_on_c, 8, 61, 0
10, 10950, Note_on_c, 8, 62, 100
10, 10979, Note_on_c, 8, 62, 0
10, 10980, Note_on_c, 8, 64, 100
10, 11039, Note_on_c, 8, 64, 0
10, 11040, Note_on_c, 8, 64, 100
10, 11099, Note_on_c, 8, 64, 0
10, 11100, Note_on_c, 8, 65, 100
10, 11159, Note_on_c, 8, 65, 0
10, 11160, Note_on_c, 8, 65, 100
10, 11189, Note_on_c, 8, 65, 0
10, 11190, Note_on_c, 8, 64, 100
10, 11249, Note_on_c, 8, 64, 0
10, 11250, Note_on_c, 8, 62, 100
10, 11279, Note_on_c, 8, 62, 0
10, 11280, Note_on_c, 8, 61, 100
10, 11309, Note_on_c, 8, 61, 0
10, 11310, Note_on_c, 8, 59, 100
10, 11339, Note_on_c, 8, 59, 0
10, 11340, Note_on_c, 8, 57, 100
10, 11369, Note_on_c, 8, 57, 0
10, 11370, Note_on_c, 8, 64, 100
10, 11399, Note_on_c, 8, 64, 0
10, 11400, Note_on_c, 8, 69, 100
10, 11429, Note_on_c, 8, 69, 0
10, 11430, Note_on_c, 8, 71, 100
10, 11459, Note_on_c, 8, 71, 0
10, 11460, Note_on_c, 8, 69, 100
10, 11489, Note_on_c, 8, 69, 0
10, 11490, Note_on_c, 8, 71, 100
10, 11519, Note_on_c, 8, 71, 0
10, 11520, Note_on_c, 8, 74, 100
10, 11539, Note_on_c, 8, 74, 0
10, 11540, Note_on_c, 8, 73, 100
10, 11559, Note_on_c, 8, 73, 0
10, 11560, Note_on_c, 8, 74, 100
10, 11579, Note_on_c, 8, 74, 0
10, 11580, Note_on_c, 8, 73, 100
10, 11594, Note_on_c, 8, 73, 0
10, 11595, Note_on_c, 8, 74, 100
10, 11609, Note_on_c, 8, 74, 0
10, 11610, Note_on_c, 8, 73, 100
10, 11624, Note_on_c, 8, 73, 0
10, 11625, Note_on_c, 8, 74, 100
10, 11639, Note_on_c, 8, 74, 0
10, 11640, Note_on_c, 8, 73, 100
10, 11649, Note_on_c, 8, 73, 0
10, 11650, Note_on_c, 8, 74, 100
10, 11659, Note_on_c, 8, 74, 0
10, 11660, Note_on_c, 8, 73, 100
10, 11669, Note_on_c, 8, 73, 0
10, 11670, Note_on_c, 8, 74, 100
10, 11679, Note_on_c, 8, 74, 0
10, 11680, Note_on_c, 8, 73, 100
10, 11689, Note_on_c, 8, 73, 0
10, 11690, Note_on_c, 8, 74, 100
10, 11699, Note_on_c, 8, 74, 0
10, 11700, Note_on_c, 8, 73, 100
10, 11709, Note_on_c, 8, 73, 0
10, 11710, Note_on_c, 8, 74, 100
10, 11719, Note_on_c, 8, 74, 0
10, 11720, Note_on_c, 8, 73, 100
10, 11729, Note_on_c, 8, 73, 0
10, 11730, Note_on_c, 8, 74, 100
10, 11739, Note_on_c, 8, 74, 0
10, 11740, Note_on_c, 8, 73, 100
10, 11749, Note_on_c, 8, 73, 0
10, 11750, Note_on_c, 8, 74, 100
10, 11759, Note_on_c, 8, 74, 0
10, 11760, Note_on_c, 8, 73, 100
10, 11769, Note_on_c, 8, 73, 0
10, 11770, Note_on_c, 8, 74, 100
10, 11779, Note_on_c, 8, 74, 0
10, 11780, Note_on_c, 8, 73, 100
10, 11789, Note_on_c, 8, 73, 0
10, 11790, Note_on_c, 8, 74, 100
10, 11799, Note_on_c, 8, 74, 0
10, 11800, Note_on_c, 8, 73, 100
10, 11809, Note_on_c, 8, 73, 0
10, 11810, Note_on_c, 8, 74, 100
10, 11819, Note_on_c, 8, 74, 0
10, 11820, Note_on_c, 8, 73, 100
10, 11829, Note_on_c, 8, 73, 0
10, 11830, Note_on_c, 8, 74, 100
10, 11839, Note_on_c, 8, 74, 0
10, 11840, Note_on_c, 8, 73, 100
10, 11849, Note_on_c, 8, 73, 0
10, 11850, Note_on_c, 8, 74, 100
10, 11859, Note_on_c, 8, 74, 0
10, 11860, Note_on_c, 8, 73, 100
10, 11869, Note_on_c, 8, 73, 0
10, 11870, Note_on_c, 8, 74, 100
10, 11879, Note_on_c, 8, 74, 0
10, 11880, Note_on_c, 8, 73, 100
10, 11889, Note_on_c, 8, 73, 0
10, 11890, Note_on_c, 8, 74, 100
10, 11899, Note_on_c, 8, 74, 0
10, 11900, Note_on_c, 8, 73, 100
10, 11909, Note_on_c, 8, 73, 0
10, 11910, Note_on_c, 8, 74, 100
10, 11919, Note_on_c, 8, 74, 0
10, 11920, Note_on_c, 8, 73, 100
10, 11929, Note_on_c, 8, 73, 0
10, 11930, Note_on_c, 8, 74, 100
10, 11939, Note_on_c, 8, 74, 0
10, 11940, Note_on_c, 8, 73, 100
10, 11949, Note_on_c, 8, 73, 0
10, 11950, Note_on_c, 8, 74, 100
10, 11959, Note_on_c, 8, 74, 0
10, 11960, Note_on_c, 8, 73, 100
10, 11969, Note_on_c, 8, 73, 0
10, 11970, Note_on_c, 8, 74, 100
10, 11979, Note_on_c, 8, 74, 0
10, 11980, Note_on_c, 8, 73, 100
10, 11989, Note_on_c, 8, 73, 0
10, 11990, Note_on_c, 8, 74, 100
10, 11999, Note_on_c, 8, 74, 0
10, 12000, Note_on_c, 8, 73, 100
10, 12009, Note_on_c, 8, 73, 0
10, 12010, Note_on_c, 8, 74, 100
10, 12019, Note_on_c, 8, 74, 0
10, 12020, Note_on_c, 8, 73, 100
10, 12029, Note_on_c, 8, 73, 0
10, 12030, Note_on_c, 8, 74, 100
10, 12039, Note_on_c, 8, 74, 0
10, 12040, Note_on_c, 8, 73, 100
10, 12049, Note_on_c, 8, 73, 0
10, 12050, Note_on_c, 8, 74, 100
10, 12059, Note_on_c, 8, 74, 0
10, 12060, Note_on_c, 8, 73, 100
10, 12069, Note_on_c, 8, 73, 0
10, 12070, Note_on_c, 8, 74, 100
10, 12079, Note_on_c, 8, 74, 0
10, 12080, Note_on_c, 8, 73, 100
10, 12089, Note_on_c, 8, 73, 0
10, 12090, Note_on_c, 8, 74, 100
10, 12099, Note_on_c, 8, 74, 0
10, 12100, Note_on_c, 8, 73, 100
10, 12109, Note_on_c, 8, 73, 0
10, 12110, Note_on_c, 8, 74, 100
10, 12119, Note_on_c, 8, 74, 0
10, 12120, Note_on_c, 8, 73, 100
10, 12129, Note_on_c, 8, 73, 0
10, 12130, Note_on_c, 8, 74, 100
10, 12139, Note_on_c, 8, 74, 0
10, 12140, Note_on_c, 8, 73, 100
10, 12149, Note_on_c, 8, 73, 0
10, 12150, Note_on_c, 8, 74, 100
10, 12159, Note_on_c, 8, 74, 0
10, 12160, Note_on_c, 8, 73, 100
10, 12169, Note_on_c, 8, 73, 0
10, 12170, Note_on_c, 8, 74, 100
10, 12179, Note_on_c, 8, 74, 0
10, 12180, Note_on_c, 8, 73, 100
10, 12189, Note_on_c, 8, 73, 0
10, 12190, Note_on_c, 8, 74, 100
10, 12199, Note_on_c, 8, 74, 0
10, 12200, Note_on_c, 8, 73, 100
10, 12209, Note_on_c, 8, 73, 0
10, 12210, Note_on_c, 8, 74, 100
10, 12219, Note_on_c, 8, 74, 0
10, 12220, Note_on_c, 8, 73, 100
10, 12229, Note_on_c, 8, 73, 0
10, 12230, Note_on_c, 8, 74, 100
10, 12239, Note_on_c, 8, 74, 0
10, 12240, Note_on_c, 8, 73, 100
10, 12329, Note_on_c, 8, 73, 0
10, 12330, Note_on_c, 8, 76, 100
10, 12359, Note_on_c, 8, 76, 0
10, 12360, Note_on_c, 8, 69, 100
10, 12419, Note_on_c, 8, 69, 0
10, 12450, Note_on_c, 8, 70, 100
10, 12479, Note_on_c, 8, 70, 0
10, 12480, Note_on_c, 8, 69, 100
10, 12509, Note_on_c, 8, 69, 0
10, 12510, Note_on_c, 8, 64, 100
10, 12539, Note_on_c, 8, 64, 0
10, 12540, Note_on_c, 8, 61, 100
10, 12569, Note_on_c, 8, 61, 0
10, 12570, Note_on_c, 8, 57, 100
10, 12599, Note_on_c, 8, 57, 0
10, 12600, Note_on_c, 8, 69, 100
10, 12629, Note_on_c, 8, 69, 0
10, 12630, Note_on_c, 8, 62, 100
10, 12659, Note_on_c, 8, 62, 0
10, 12660, Note_on_c, 8, 66, 100
10, 12689, Note_on_c, 8, 66, 0
10, 12690, Note_on_c, 8, 69, 100
10, 12719, Note_on_c, 8, 69, 0
10, 12720, Note_on_c, 8, 66, 100
10, 12749, Note_on_c, 8, 66, 0
10, 12750, Note_on_c, 8, 62, 100
10, 12779, Note_on_c, 8, 62, 0
10, 12780, Note_on_c, 8, 74, 100
10, 12899, Note_on_c, 8, 74, 0
10, 12990, Note_on_c, 8, 68, 100
10, 13019, Note_on_c, 8, 68, 0
10, 13020, Note_on_c, 8, 71, 100
10, 13049, Note_on_c, 8, 71, 0
10, 13050, Note_on_c, 8, 76, 100
10, 13079, Note_on_c, 8, 76, 0
10, 13080, Note_on_c, 8, 71, 100
10, 13109, Note_on_c, 8, 71, 0
10, 13110, Note_on_c, 8, 68, 100
10, 13139, Note_on_c, 8, 68, 0
10, 13140, Note_on_c, 8, 77, 100
10, 13259, Note_on_c, 8, 77, 0
10, 13350, Note_on_c, 8, 62, 100
10, 13379, Note_on_c, 8, 62, 0
10, 13380, Note_on_c, 8, 67, 100
10, 13409, Note_on_c, 8, 67, 0
10, 13410, Note_on_c, 8, 70, 100
10, 13439, Note_on_c, 8, 70, 0
10, 13440, Note_on_c, 8, 67, 100
10, 13469, Note_on_c, 8, 67, 0
10, 13470, Note_on_c, 8, 62, 100
10, 13499, Note_on_c, 8, 62, 0
10, 13500, Note_on_c, 8, 74, 100
10, 13619, Note_on_c, 8, 74, 0
10, 13710, Note_on_c, 8, 73, 100
10, 13739, Note_on_c, 8, 73, 0
10, 13740, Note_on_c, 8, 74, 100
10, 13769, Note_on_c, 8, 74, 0
10, 13770, Note_on_c, 8, 76, 100
10, 13799, Note_on_c, 8, 76, 0
10, 13800, Note_on_c, 8, 69, 100
10, 13859, Note_on_c, 8, 69, 0
10, 13890, Note_on_c, 8, 70, 100
10, 13919, Note_on_c, 8, 70, 0
10, 13920, Note_on_c, 8, 69, 100
10, 13979, Note_on_c, 8, 69, 0
10, 13980, Note_on_c, 8, 67, 100
10, 13980, Note_on_c, 8, 61, 100
10, 13980, Note_on_c, 8, 64, 100
10, 14039, Note_on_c, 8, 64, 0
10, 14039, Note_on_c, 8, 61, 0
10, 14039, Note_on_c, 8, 67, 0
10, 14040, Note_on_c, 8, 57, 100
10, 14040, Note_on_c, 8, 65, 100
10, 14040, Note_on_c, 8, 62, 100
10, 14159, Note_on_c, 8, 62, 0
10, 14159, Note_on_c, 8, 65, 0
10, 14159, Note_on_c, 8, 57, 0
10, 19500, Note_on_c, 8, 77, 100
10, 19559, Note_on_c, 8, 77, 0
10, 19560, Note_on_c, 8, 81, 100
10, 19574, Note_on_c, 8, 81, 0
10, 19575, Note_on_c, 8, 79, 100
10, 19589, Note_on_c, 8, 79, 0
10, 19590, Note_on_c, 8, 77, 100
10, 19604, Note_on_c, 8, 77, 0
10, 19605, Note_on_c, 8, 79, 100
10, 19619, Note_on_c, 8, 79, 0
10, 19620, Note_on_c, 8, 81, 100
10, 19679, Note_on_c, 8, 81, 0
10, 19680, Note_on_c, 8, 81, 100
10, 19739, Note_on_c, 8, 81, 0
10, 19740, Note_on_c, 8, 84, 100
10, 19754, Note_on_c, 8, 84, 0
10, 19755, Note_on_c, 8, 82, 100
10, 19769, Note_on_c, 8, 82, 0
10, 19770, Note_on_c, 8, 81, 100
10, 19784, Note_on_c, 8, 81, 0
10, 19785, Note_on_c, 8, 82, 100
10, 19799, Note_on_c, 8, 82, 0
10, 19800, Note_on_c, 8, 84, 100
10, 19859, Note_on_c, 8, 84, 0
10, 19860, Note_on_c, 8, 84, 100
10, 19919, Note_on_c, 8, 84, 0
10, 19920, Note_on_c, 8, 86, 100
10, 19979, Note_on_c, 8, 86, 0
10, 19980, Note_on_c, 8, 84, 100
10, 20039, Note_on_c, 8, 84, 0
10, 20040, Note_on_c, 8, 82, 100
10, 20069, Note_on_c, 8, 82, 0
10, 20070, Note_on_c, 8, 81, 100
10, 20099, Note_on_c, 8, 81, 0
10, 20100, Note_on_c, 8, 79, 100
10, 20129, Note_on_c, 8, 79, 0
10, 20130, Note_on_c, 8, 77, 100
10, 20159, Note_on_c, 8, 77, 0
10, 20160, Note_on_c, 8, 76, 100
10, 20189, Note_on_c, 8, 76, 0
10, 20190, Note_on_c, 8, 74, 100
10, 20219, Note_on_c, 8, 74, 0
10, 20220, Note_on_c, 8, 72, 100
10, 20249, Note_on_c, 8, 72, 0
10, 20250, Note_on_c, 8, 74, 100
10, 20279, Note_on_c, 8, 74, 0
10, 20280, Note_on_c, 8, 76, 100
10, 20309, Note_on_c, 8, 76, 0
10, 20310, Note_on_c, 8, 77, 100
10, 20339, Note_on_c, 8, 77, 0
10, 20340, Note_on_c, 8, 79, 100
10, 20399, Note_on_c, 8, 79, 0
10, 20400, Note_on_c, 8, 79, 100
10, 20459, Note_on_c, 8, 79, 0
10, 20460, Note_on_c, 8, 81, 100
10, 20519, Note_on_c, 8, 81, 0
10, 20520, Note_on_c, 8, 79, 100
10, 20579, Note_on_c, 8, 79, 0
10, 20580, Note_on_c, 8, 60, 100
10, 20609, Note_on_c, 8, 60, 0
10, 20610, Note_on_c, 8, 62, 100
10, 20639, Note_on_c, 8, 62, 0
10, 20640, Note_on_c, 8, 64, 100
10, 20669, Note_on_c, 8, 64, 0
10, 20670, Note_on_c, 8, 65, 100
10, 20699, Note_on_c, 8, 65, 0
10, 20700, Note_on_c, 8, 67, 100
10, 20759, Note_on_c, 8, 67, 0
10, 20760, Note_on_c, 8, 60, 100
10, 20760, Note_on_c, 8, 64, 100
10, 20819, Note_on_c, 8, 64, 0
10, 20819, Note_on_c, 8, 60, 0
10, 20820, Note_on_c, 8, 60, 100
10, 20820, Note_on_c, 8, 65, 100
10, 20820, Note_on_c, 8, 69, 100
10, 20879, Note_on_c, 8, 69, 0
10, 20879, Note_on_c, 8, 65, 0
10, 20879, Note_on_c, 8, 60, 0
10, 20880, Note_on_c, 8, 64, 100
10, 20880, Note_on_c, 8, 67, 100
10, 20939, Note_on_c, 8, 67, 0
10, 20939, Note_on_c, 8, 64, 0
10, 20940, Note_on_c, 8, 60, 100
10, 20999, Note_on_c, 8, 60, 0
10, 21000, Note_on_c, 8, 62, 100
10, 21059, Note_on_c, 8, 62, 0
10, 21090, Note_on_c, 8, 72, 100
10, 21119, Note_on_c, 8, 72, 0
10, 21120, Note_on_c, 8, 76, 100
10, 21149, Note_on_c, 8, 76, 0
10, 21150, Note_on_c, 8, 79, 100
10, 21179, Note_on_c, 8, 79, 0
10, 21180, Note_on_c, 8, 84, 100
10, 21209, Note_on_c, 8, 84, 0
10, 21210, Note_on_c, 8, 83, 100
10, 21239, Note_on_c, 8, 83, 0
10, 21240, Note_on_c, 8, 84, 100
10, 21269, Note_on_c, 8, 84, 0
10, 21270, Note_on_c, 8, 82, 100
10, 21299, Note_on_c, 8, 82, 0
10, 21300, Note_on_c, 8, 81, 100
10, 21329, Note_on_c, 8, 81, 0
10, 21330, Note_on_c, 8, 79, 100
10, 21359, Note_on_c, 8, 79, 0
10, 21360, Note_on_c, 8, 77, 100
10, 21389, Note_on_c, 8, 77, 0
10, 21390, Note_on_c, 8, 76, 100
10, 21419, Note_on_c, 8, 76, 0
10, 21420, Note_on_c, 8, 77, 100
10, 21449, Note_on_c, 8, 77, 0
10, 21450, Note_on_c, 8, 76, 100
10, 21479, Note_on_c, 8, 76, 0
10, 21480, Note_on_c, 8, 74, 100
10, 21509, Note_on_c, 8, 74, 0
10, 21510, Note_on_c, 8, 72, 100
10, 21539, Note_on_c, 8, 72, 0
10, 21540, Note_on_c, 8, 74, 100
10, 21569, Note_on_c, 8, 74, 0
10, 21570, Note_on_c, 8, 77, 100
10, 21599, Note_on_c, 8, 77, 0
10, 21600, Note_on_c, 8, 67, 100
10, 21629, Note_on_c, 8, 67, 0
10, 21630, Note_on_c, 8, 69, 100
10, 21659, Note_on_c, 8, 69, 0
10, 21660, Note_on_c, 8, 71, 100
10, 21689, Note_on_c, 8, 71, 0
10, 21690, Note_on_c, 8, 72, 100
10, 21719, Note_on_c, 8, 72, 0
10, 21720, Note_on_c, 8, 74, 100
10, 21749, Note_on_c, 8, 74, 0
10, 21750, Note_on_c, 8, 76, 100
10, 21779, Note_on_c, 8, 76, 0
10, 21780, Note_on_c, 8, 77, 100
10, 21809, Note_on_c, 8, 77, 0
10, 21810, Note_on_c, 8, 81, 100
10, 21839, Note_on_c, 8, 81, 0
10, 21840, Note_on_c, 8, 79, 100
10, 21869, Note_on_c, 8, 79, 0
10, 21870, Note_on_c, 8, 77, 100
10, 21899, Note_on_c, 8, 77, 0
10, 21900, Note_on_c, 8, 76, 100
10, 21929, Note_on_c, 8, 76, 0
10, 21930, Note_on_c, 8, 77, 100
10, 21959, Note_on_c, 8, 77, 0
10, 21960, Note_on_c, 8, 79, 100
10, 22019, Note_on_c, 8, 79, 0
10, 22020, Note_on_c, 8, 72, 100
10, 22034, Note_on_c, 8, 72, 0
10, 22035, Note_on_c, 8, 71, 100
10, 22049, Note_on_c, 8, 71, 0
10, 22050, Note_on_c, 8, 72, 100
10, 22064, Note_on_c, 8, 72, 0
10, 22065, Note_on_c, 8, 71, 100
10, 22079, Note_on_c, 8, 71, 0
10, 22080, Note_on_c, 8, 72, 100
10, 22094, Note_on_c, 8, 72, 0
10, 22095, Note_on_c, 8, 71, 100
10, 22109, Note_on_c, 8, 71, 0
10, 22110, Note_on_c, 8, 69, 100
10, 22124, Note_on_c, 8, 69, 0
10, 22125, Note_on_c, 8, 71, 100
10, 22139, Note_on_c, 8, 71, 0
10, 22140, Note_on_c, 8, 72, 100
10, 22199, Note_on_c, 8, 72, 0
10, 22200, Note_on_c, 8, 64, 100
10, 22200, Note_on_c, 8, 72, 100
10, 22200, Note_on_c, 8, 67, 100
10, 22259, Note_on_c, 8, 67, 0
10, 22259, Note_on_c, 8, 72, 0
10, 22259, Note_on_c, 8, 64, 0
10, 22260, Note_on_c, 8, 60, 100
10, 22260, Note_on_c, 8, 67, 100
10, 22260, Note_on_c, 8, 72, 100
10, 22319, Note_on_c, 8, 72, 0
10, 22319, Note_on_c, 8, 67, 0
10, 22319, Note_on_c, 8, 60, 0
10, 22320, Note_on_c, 8, 60, 100
10, 22320, Note_on_c, 8, 72, 100
10, 22320, Note_on_c, 8, 69, 100
10, 22349, Note_on_c, 8, 69, 0
10, 22349, Note_on_c, 8, 72, 0
10, 22349, Note_on_c, 8, 60, 0
10, 22350, Note_on_c, 8, 65, 100
10, 22379, Note_on_c, 8, 65, 0
10, 22380, Note_on_c, 8, 69, 100
10, 22409, Note_on_c, 8, 69, 0
10, 22410, Note_on_c, 8, 72, 100
10, 22439, Note_on_c, 8, 72, 0
10, 22440, Note_on_c, 8, 77, 100
10, 22469, Note_on_c, 8, 77, 0
10, 22470, Note_on_c, 8, 75, 100
10, 22499, Note_on_c, 8, 75, 0
10, 22500, Note_on_c, 8, 74, 100
10, 22559, Note_on_c, 8, 74, 0
10, 22560, Note_on_c, 8, 76, 100
10, 22574, Note_on_c, 8, 76, 0
10, 22575, Note_on_c, 8, 74, 100
10, 22589, Note_on_c, 8, 74, 0
10, 22590, Note_on_c, 8, 76, 100
10, 22604, Note_on_c, 8, 76, 0
10, 22605, Note_on_c, 8, 74, 100
10, 22619, Note_on_c, 8, 74, 0
10, 22620, Note_on_c, 8, 76, 100
10, 22634, Note_on_c, 8, 76, 0
10, 22635, Note_on_c, 8, 74, 100
10, 22649, Note_on_c, 8, 74, 0
10, 22650, Note_on_c, 8, 72, 100
10, 22664, Note_on_c, 8, 72, 0
10, 22665, Note_on_c, 8, 74, 100
10, 22679, Note_on_c, 8, 74, 0
10, 22680, Note_on_c, 8, 76, 100
10, 22769, Note_on_c, 8, 76, 0
10, 22770, Note_on_c, 8, 79, 100
10, 22799, Note_on_c, 8, 79, 0
10, 22800, Note_on_c, 8, 72, 100
10, 22859, Note_on_c, 8, 72, 0
10, 22890, Note_on_c, 8, 74, 100
10, 22919, Note_on_c, 8, 74, 0
10, 22920, Note_on_c, 8, 72, 100
10, 22979, Note_on_c, 8, 72, 0
10, 22980, Note_on_c, 8, 64, 100
10, 22980, Note_on_c, 8, 67, 100
10, 22980, Note_on_c, 8, 70, 100
10, 23039, Note_on_c, 8, 70, 0
10, 23039, Note_on_c, 8, 67, 0
10, 23039, Note_on_c, 8, 64, 0
10, 23040, Note_on_c, 8, 60, 100
10, 23040, Note_on_c, 8, 69, 100
10, 23040, Note_on_c, 8, 65, 100
10, 23159, Note_on_c, 8, 65, 0
10, 23159, Note_on_c, 8, 69, 0
10, 23159, Note_on_c, 8, 60, 0
10, 23280, Note_on_c, 8, 72, 100
10, 23339, Note_on_c, 8, 72, 0
10, 23340, Note_on_c, 8, 70, 100
10, 23369, Note_on_c, 8, 70, 0
10, 23370, Note_on_c, 8, 69, 100
10, 23399, Note_on_c, 8, 69, 0
10, 23400, Note_on_c, 8, 67, 100
10, 23429, Note_on_c, 8, 67, 0
10, 23430, Note_on_c, 8, 60, 100
10, 23459, Note_on_c, 8, 60, 0
10, 23460, Note_on_c, 8, 64, 100
10, 23489, Note_on_c, 8, 64, 0
10, 23490, Note_on_c, 8, 67, 100
10, 23519, Note_on_c, 8, 67, 0
10, 23520, Note_on_c, 8, 64, 100
10, 23549, Note_on_c, 8, 64, 0
10, 23550, Note_on_c, 8, 60, 100
10, 23579, Note_on_c, 8, 60, 0
10, 23580, Note_on_c, 8, 67, 100
10, 23609, Note_on_c, 8, 67, 0
10, 23610, Note_on_c, 8, 64, 100
10, 23639, Note_on_c, 8, 64, 0
10, 23640, Note_on_c, 8, 67, 100
10, 23669, Note_on_c, 8, 67, 0
10, 23670, Note_on_c, 8, 72, 100
10, 23699, Note_on_c, 8, 72, 0
10, 23700, Note_on_c, 8, 67, 100
10, 23729, Note_on_c, 8, 67, 0
10, 23730, Note_on_c, 8, 64, 100
10, 23759, Note_on_c, 8, 64, 0
10, 23760, Note_on_c, 8, 72, 100
10, 23779, Note_on_c, 8, 72, 0
10, 23780, Note_on_c, 8, 70, 100
10, 23799, Note_on_c, 8, 70, 0
10, 23800, Note_on_c, 8, 72, 100
10, 23819, Note_on_c, 8, 72, 0
10, 23820, Note_on_c, 8, 70, 100
10, 23834, Note_on_c, 8, 70, 0
10, 23835, Note_on_c, 8, 72, 100
10, 23849, Note_on_c, 8, 72, 0
10, 23850, Note_on_c, 8, 70, 100
10, 23864, Note_on_c, 8, 70, 0
10, 23865, Note_on_c, 8, 72, 100
10, 23879, Note_on_c, 8, 72, 0
10, 23880, Note_on_c, 8, 70, 100
10, 23889, Note_on_c, 8, 70, 0
10, 23890, Note_on_c, 8, 72, 100
10, 23899, Note_on_c, 8, 72, 0
10, 23900, Note_on_c, 8, 70, 100
10, 23909, Note_on_c, 8, 70, 0
10, 23910, Note_on_c, 8, 72, 100
10, 23919, Note_on_c, 8, 72, 0
10, 23920, Note_on_c, 8, 70, 100
10, 23929, Note_on_c, 8, 70, 0
10, 23930, Note_on_c, 8, 72, 100
10, 23939, Note_on_c, 8, 72, 0
10, 23940, Note_on_c, 8, 70, 100
10, 23969, Note_on_c, 8, 70, 0
10, 23970, Note_on_c, 8, 69, 100
10, 23999, Note_on_c, 8, 69, 0
10, 24000, Note_on_c, 8, 79, 100
10, 24059, Note_on_c, 8, 79, 0
10, 24060, Note_on_c, 8, 73, 100
10, 24119, Note_on_c, 8, 73, 0
10, 24120, Note_on_c, 8, 74, 100
10, 24239, Note_on_c, 8, 74, 0
10, 24330, Note_on_c, 8, 62, 100
10, 24359, Note_on_c, 8, 62, 0
10, 24360, Note_on_c, 8, 65, 100
10, 24389, Note_on_c, 8, 65, 0
10, 24390, Note_on_c, 8, 69, 100
10, 24419, Note_on_c, 8, 69, 0
10, 24420, Note_on_c, 8, 74, 100
10, 24449, Note_on_c, 8, 74, 0
10, 24450, Note_on_c, 8, 76, 100
10, 24479, Note_on_c, 8, 76, 0
10, 24480, Note_on_c, 8, 73, 100
10, 24599, Note_on_c, 8, 73, 0
10, 24690, Note_on_c, 8, 69, 100
10, 24719, Note_on_c, 8, 69, 0
10, 24720, Note_on_c, 8, 73, 100
10, 24749, Note_on_c, 8, 73, 0
10, 24750, Note_on_c, 8, 76, 100
10, 24779, Note_on_c, 8, 76, 0
10, 24780, Note_on_c, 8, 73, 100
10, 24809, Note_on_c, 8, 73, 0
10, 24810, Note_on_c, 8, 69, 100
10, 24839, Note_on_c, 8, 69, 0
10, 24840, Note_on_c, 8, 81, 100
10, 24899, Note_on_c, 8, 81, 0
10, 24900, Note_on_c, 8, 75, 100
10, 24919, Note_on_c, 8, 75, 0
10, 24920, Note_on_c, 8, 77, 100
10, 24939, Note_on_c, 8, 77, 0
10, 24940, Note_on_c, 8, 75, 100
10, 24959, Note_on_c, 8, 75, 0
10, 24960, Note_on_c, 8, 77, 100
10, 24974, Note_on_c, 8, 77, 0
10, 24975, Note_on_c, 8, 75, 100
10, 24989, Note_on_c, 8, 75, 0
10, 24990, Note_on_c, 8, 77, 100
10, 25004, Note_on_c, 8, 77, 0
10, 25005, Note_on_c, 8, 75, 100
10, 25019, Note_on_c, 8, 75, 0
10, 25020, Note_on_c, 8, 75, 100
10, 25049, Note_on_c, 8, 75, 0
10, 25050, Note_on_c, 8, 74, 100
10, 25079, Note_on_c, 8, 74, 0
10, 25080, Note_on_c, 8, 84, 100
10, 25139, Note_on_c, 8, 84, 0
10, 25140, Note_on_c, 8, 78, 100
10, 25199, Note_on_c, 8, 78, 0
10, 25200, Note_on_c, 8, 79, 100
10, 25259, Note_on_c, 8, 79, 0
10, 25440, Note_on_c, 8, 79, 100
10, 25590, Note_on_c, 8, 79, 0
10, 25590, Note_on_c, 8, 75, 100
10, 25619, Note_on_c, 8, 75, 0
10, 25620, Note_on_c, 8, 72, 100
10, 25649, Note_on_c, 8, 72, 0
10, 25650, Note_on_c, 8, 69, 100
10, 25679, Note_on_c, 8, 69, 0
10, 25680, Note_on_c, 8, 72, 100
10, 25709, Note_on_c, 8, 72, 0
10, 25710, Note_on_c, 8, 75, 100
10, 25739, Note_on_c, 8, 75, 0
10, 25740, Note_on_c, 8, 77, 100
10, 25950, Note_on_c, 8, 77, 0
10, 25950, Note_on_c, 8, 74, 100
10, 25979, Note_on_c, 8, 74, 0
10, 25980, Note_on_c, 8, 70, 100
10, 26009, Note_on_c, 8, 70, 0
10, 26010, Note_on_c, 8, 67, 100
10, 26039, Note_on_c, 8, 67, 0
10, 26040, Note_on_c, 8, 70, 100
10, 26069, Note_on_c, 8, 70, 0
10, 26070, Note_on_c, 8, 74, 100
10, 26099, Note_on_c, 8, 74, 0
10, 26100, Note_on_c, 8, 75, 100
10, 26310, Note_on_c, 8, 75, 0
10, 26310, Note_on_c, 8, 72, 100
10, 26339, Note_on_c, 8, 72, 0
10, 26340, Note_on_c, 8, 69, 100
10, 26369, Note_on_c, 8, 69, 0
10, 26370, Note_on_c, 8, 66, 100
10, 26399, Note_on_c, 8, 66, 0
10, 26400, Note_on_c, 8, 69, 100
10, 26429, Note_on_c, 8, 69, 0
10, 26430, Note_on_c, 8, 72, 100
10, 26459, Note_on_c, 8, 72, 0
10, 26460, Note_on_c, 8, 74, 100
10, 26639, Note_on_c, 8, 74, 0
10, 26640, Note_on_c, 8, 75, 100
10, 26699, Note_on_c, 8, 75, 0
10, 26700, Note_on_c, 8, 72, 100
10, 26759, Note_on_c, 8, 72, 0
10, 26760, Note_on_c, 8, 67, 100
10, 26819, Note_on_c, 8, 67, 0
10, 26820, Note_on_c, 8, 75, 100
10, 26879, Note_on_c, 8, 75, 0
10, 26880, Note_on_c, 8, 72, 100
10, 26939, Note_on_c, 8, 72, 0
10, 26940, Note_on_c, 8, 67, 100
10, 26999, Note_on_c, 8, 67, 0
10, 27000, Note_on_c, 8, 75, 100
10, 27059, Note_on_c, 8, 75, 0
10, 27060, Note_on_c, 8, 72, 100
10, 27119, Note_on_c, 8, 72, 0
10, 27120, Note_on_c, 8, 68, 100
10, 27179, Note_on_c, 8, 68, 0
10, 27180, Note_on_c, 8, 75, 100
10, 27239, Note_on_c, 8, 75, 0
10, 27240, Note_on_c, 8, 72, 100
10, 27299, Note_on_c, 8, 72, 0
10, 27300, Note_on_c, 8, 68, 100
10, 27359, Note_on_c, 8, 68, 0
10, 27360, Note_on_c, 8, 78, 100
10, 27419, Note_on_c, 8, 78, 0
10, 27420, Note_on_c, 8, 72, 100
10, 27479, Note_on_c, 8, 72, 0
10, 27480, Note_on_c, 8, 69, 100
10, 27539, Note_on_c, 8, 69, 0
10, 27540, Note_on_c, 8, 78, 100
10, 27599, Note_on_c, 8, 78, 0
10, 27600, Note_on_c, 8, 72, 100
10, 27659, Note_on_c, 8, 72, 0
10, 27660, Note_on_c, 8, 69, 100
10, 27719, Note_on_c, 8, 69, 0
10, 27720, Note_on_c, 8, 79, 100
10, 27779, Note_on_c, 8, 79, 0
10, 27780, Note_on_c, 8, 76, 100
10, 27839, Note_on_c, 8, 76, 0
10, 27840, Note_on_c, 8, 70, 100
10, 27899, Note_on_c, 8, 70, 0
10, 27900, Note_on_c, 8, 79, 100
10, 27959, Note_on_c, 8, 79, 0
10, 27960, Note_on_c, 8, 76, 100
10, 28019, Note_on_c, 8, 76, 0
10, 28020, Note_on_c, 8, 70, 100
10, 28079, Note_on_c, 8, 70, 0
10, 28080, Note_on_c, 8, 81, 100
10, 28139, Note_on_c, 8, 81, 0
10, 28140, Note_on_c, 8, 78, 100
10, 28199, Note_on_c, 8, 78, 0
10, 28200, Note_on_c, 8, 72, 100
10, 28259, Note_on_c, 8, 72, 0
10, 28260, Note_on_c, 8, 81, 100
10, 28319, Note_on_c, 8, 81, 0
10, 28320, Note_on_c, 8, 78, 100
10, 28379, Note_on_c, 8, 78, 0
10, 28380, Note_on_c, 8, 72, 100
10, 28439, Note_on_c, 8, 72, 0
10, 28440, Note_on_c, 8, 82, 100
10, 28499, Note_on_c, 8, 82, 0
10, 28500, Note_on_c, 8, 79, 100
10, 28559, Note_on_c, 8, 79, 0
10, 28560, Note_on_c, 8, 73, 100
10, 28619, Note_on_c, 8, 73, 0
10, 28620, Note_on_c, 8, 82, 100
10, 28679, Note_on_c, 8, 82, 0
10, 28680, Note_on_c, 8, 79, 100
10, 28739, Note_on_c, 8, 79, 0
10, 28740, Note_on_c, 8, 73, 100
10, 28799, Note_on_c, 8, 73, 0
10, 28800, Note_on_c, 8, 81, 100
10, 28859, Note_on_c, 8, 81, 0
10, 28860, Note_on_c, 8, 78, 100
10, 28919, Note_on_c, 8, 78, 0
10, 28920, Note_on_c, 8, 74, 100
10, 28979, Note_on_c, 8, 74, 0
10, 28980, Note_on_c, 8, 81, 100
10, 29039, Note_on_c, 8, 81, 0
10, 29040, Note_on_c, 8, 78, 100
10, 29099, Note_on_c, 8, 78, 0
10, 29100, Note_on_c, 8, 74, 100
10, 29159, Note_on_c, 8, 74, 0
10, 29160, Note_on_c, 8, 74, 100
10, 29160, Note_on_c, 8, 79, 100
10, 29160, Note_on_c, 8, 82, 100
10, 29219, Note_on_c, 8, 82, 0
10, 29219, Note_on_c, 8, 79, 0
10, 29219, Note_on_c, 8, 74, 0
10, 29340, Note_on_c, 8, 82, 100
10, 29340, Note_on_c, 8, 74, 100
10, 29340, Note_on_c, 8, 79, 100
10, 29399, Note_on_c, 8, 79, 0
10, 29399, Note_on_c, 8, 74, 0
10, 29399, Note_on_c, 8, 82, 0
10, 29520, Note_on_c, 8, 74, 100
10, 29520, Note_on_c, 8, 78, 100
10, 29520, Note_on_c, 8, 69, 100
10, 29579, Note_on_c, 8, 69, 0
10, 29579, Note_on_c, 8, 78, 0
10, 29579, Note_on_c, 8, 74, 0
10, 29700, Note_on_c, 8, 78, 100
10, 29700, Note_on_c, 8, 74, 100
10, 29700, Note_on_c, 8, 69, 100
10, 29759, Note_on_c, 8, 69, 0
10, 29759, Note_on_c, 8, 74, 0
10, 29759, Note_on_c, 8, 78, 0
10, 29880, Note_on_c, 8, 75, 100
10, 29880, Note_on_c, 8, 81, 100
10, 29880, Note_on_c, 8, 72, 100
10, 29939, Note_on_c, 8, 72, 0
10, 29939, Note_on_c, 8, 81, 0
10, 29939, Note_on_c, 8, 75, 0
10, 30060, Note_on_c, 8, 78, 100
10, 30060, Note_on_c, 8, 69, 100
10, 30060, Note_on_c, 8, 72, 100
10, 30119, Note_on_c, 8, 72, 0
10, 30119, Note_on_c, 8, 69, 0
10, 30119, Note_on_c, 8, 78, 0
10, 30240, Note_on_c, 8, 78, 100
10, 30240, Note_on_c, 8, 69, 100
10, 30240, Note_on_c, 8, 72, 100
10, 30299, Note_on_c, 8, 72, 0
10, 30299, Note_on_c, 8, 69, 0
10, 30299, Note_on_c, 8, 78, 0
10, 30420, Note_on_c, 8, 78, 100
10, 30420, Note_on_c, 8, 69, 100
10, 30420, Note_on_c, 8, 72, 100
10, 30479, Note_on_c, 8, 72, 0
10, 30479, Note_on_c, 8, 69, 0
10, 30479, Note_on_c, 8, 78, 0
10, 30600, Note_on_c, 8, 72, 100
10, 30600, Note_on_c, 8, 78, 100
10, 30629, Note_on_c, 8, 78, 0
10, 30630, Note_on_c, 8, 79, 100
10, 30659, Note_on_c, 8, 79, 0
10, 30660, Note_on_c, 8, 81, 100
10, 30719, Note_on_c, 8, 81, 0
10, 30720, Note_on_c, 8, 72, 0
10, 30780, Note_on_c, 8, 70, 100
10, 30780, Note_on_c, 8, 79, 100
10, 30809, Note_on_c, 8, 79, 0
10, 30810, Note_on_c, 8, 78, 100
10, 30839, Note_on_c, 8, 78, 0
10, 30840, Note_on_c, 8, 79, 100
10, 30899, Note_on_c, 8, 79, 0
10, 30900, Note_on_c, 8, 70, 0
10, 30960, Note_on_c, 8, 69, 100
10, 30960, Note_on_c, 8, 77, 100
10, 30989, Note_on_c, 8, 77, 0
10, 30990, Note_on_c, 8, 76, 100
10, 31019, Note_on_c, 8, 76, 0
10, 31020, Note_on_c, 8, 77, 100
10, 31079, Note_on_c, 8, 77, 0
10, 31080, Note_on_c, 8, 69, 0
10, 31140, Note_on_c, 8, 65, 100
10, 31140, Note_on_c, 8, 71, 100
10, 31169, Note_on_c, 8, 71, 0
10, 31170, Note_on_c, 8, 72, 100
10, 31199, Note_on_c, 8, 72, 0
10, 31200, Note_on_c, 8, 74, 100
10, 31259, Note_on_c, 8, 74, 0
10, 31260, Note_on_c, 8, 65, 0
10, 31320, Note_on_c, 8, 63, 100
10, 31320, Note_on_c, 8, 72, 100
10, 31349, Note_on_c, 8, 72, 0
10, 31350, Note_on_c, 8, 71, 100
10, 31379, Note_on_c, 8, 71, 0
10, 31380, Note_on_c, 8, 72, 100
10, 31439, Note_on_c, 8, 72, 0
10, 31440, Note_on_c, 8, 63, 0
10, 31500, Note_on_c, 8, 72, 100
10, 31500, Note_on_c, 8, 78, 100
10, 31529, Note_on_c, 8, 78, 0
10, 31530, Note_on_c, 8, 79, 100
10, 31559, Note_on_c, 8, 79, 0
10, 31560, Note_on_c, 8, 81, 100
10, 31619, Note_on_c, 8, 81, 0
10, 31620, Note_on_c, 8, 72, 0
10, 31680, Note_on_c, 8, 70, 100
10, 31680, Note_on_c, 8, 79, 100
10, 31709, Note_on_c, 8, 79, 0
10, 31710, Note_on_c, 8, 78, 100
10, 31739, Note_on_c, 8, 78, 0
10, 31740, Note_on_c, 8, 79, 100
10, 31799, Note_on_c, 8, 79, 0
10, 31800, Note_on_c, 8, 70, 0
10, 31860, Note_on_c, 8, 67, 100
10, 31860, Note_on_c, 8, 73, 100
10, 31889, Note_on_c, 8, 73, 0
10, 31890, Note_on_c, 8, 74, 100
10, 31919, Note_on_c, 8, 74, 0
10, 31920, Note_on_c, 8, 76, 100
10, 31979, Note_on_c, 8, 76, 0
10, 31980, Note_on_c, 8, 67, 0
10, 32040, Note_on_c, 8, 65, 100
10, 32040, Note_on_c, 8, 74, 100
10, 32069, Note_on_c, 8, 74, 0
10, 32070, Note_on_c, 8, 73, 100
10, 32099, Note_on_c, 8, 73, 0
10, 32100, Note_on_c, 8, 65, 0
10, 32100, Note_on_c, 8, 69, 100
10, 32100, Note_on_c, 8, 74, 100
10, 32159, Note_on_c, 8, 74, 0
10, 32159, Note_on_c, 8, 69, 0
10, 32220, Note_on_c, 8, 74, 100
10, 32220, Note_on_c, 8, 67, 100
10, 32249, Note_on_c, 8, 67, 0
10, 32250, Note_on_c, 8, 68, 100
10, 32279, Note_on_c, 8, 68, 0
10, 32280, Note_on_c, 8, 65, 100
10, 32339, Note_on_c, 8, 65, 0
10, 32340, Note_on_c, 8, 74, 0
10, 32400, Note_on_c, 8, 63, 100
10, 32400, Note_on_c, 8, 72, 100
10, 32429, Note_on_c, 8, 72, 0
10, 32430, Note_on_c, 8, 71, 100
10, 32459, Note_on_c, 8, 71, 0
10, 32460, Note_on_c, 8, 72, 100
10, 32519, Note_on_c, 8, 72, 0
10, 32520, Note_on_c, 8, 63, 0
10, 32580, Note_on_c, 8, 72, 100
10, 32580, Note_on_c, 8, 65, 100
10, 32609, Note_on_c, 8, 65, 0
10, 32610, Note_on_c, 8, 67, 100
10, 32639, Note_on_c, 8, 67, 0
10, 32640, Note_on_c, 8, 63, 100
10, 32699, Note_on_c, 8, 63, 0
10, 32700, Note_on_c, 8, 72, 0
10, 32760, Note_on_c, 8, 62, 100
10, 32760, Note_on_c, 8, 70, 100
10, 32789, Note_on_c, 8, 70, 0
10, 32790, Note_on_c, 8, 69, 100
10, 32819, Note_on_c, 8, 69, 0
10, 32820, Note_on_c, 8, 62, 0
10, 32820, Note_on_c, 8, 65, 100
10, 32820, Note_on_c, 8, 70, 100
10, 32879, Note_on_c, 8, 70, 0
10, 32879, Note_on_c, 8, 65, 0
10, 32940, Note_on_c, 8, 70, 100
10, 32940, Note_on_c, 8, 67, 100
10, 32969, Note_on_c, 8, 67, 0
10, 32970, Note_on_c, 8, 66, 100
10, 32999, Note_on_c, 8, 66, 0
10, 33000, Note_on_c, 8, 67, 100
10, 33059, Note_on_c, 8, 67, 0
10, 33060, Note_on_c, 8, 70, 0
10, 33120, Note_on_c, 8, 67, 100
10, 33120, Note_on_c, 8, 64, 100
10, 33149, Note_on_c, 8, 64, 0
10, 33150, Note_on_c, 8, 62, 100
10, 33179, Note_on_c, 8, 62, 0
10, 33180, Note_on_c, 8, 64, 100
10, 33239, Note_on_c, 8, 64, 0
10, 33240, Note_on_c, 8, 67, 0
10, 33300, Note_on_c, 8, 66, 100
10, 33300, Note_on_c, 8, 62, 100
10, 33359, Note_on_c, 8, 62, 0
10, 33359, Note_on_c, 8, 66, 0
10, 33360, Note_on_c, 8, 57, 100
10, 33360, Note_on_c, 8, 62, 100
10, 33419, Note_on_c, 8, 62, 0
10, 33419, Note_on_c, 8, 57, 0
10, 33420, Note_on_c, 8, 62, 100
10, 33420, Note_on_c, 8, 66, 100
10, 33479, Note_on_c, 8, 66, 0
10, 33479, Note_on_c, 8, 62, 0
10, 33480, Note_on_c, 8, 62, 100
10, 33480, Note_on_c, 8, 67, 100
10, 33539, Note_on_c, 8, 67, 0
10, 33539, Note_on_c, 8, 62, 0
10, 33900, Note_on_c, 8, 55, 100
10, 33959, Note_on_c, 8, 55, 0
10, 33960, Note_on_c, 8, 57, 100
10, 34019, Note_on_c, 8, 57, 0
10, 34020, Note_on_c, 8, 58, 100
10, 34079, Note_on_c, 8, 58, 0
10, 34080, Note_on_c, 8, 58, 100
10, 34139, Note_on_c, 8, 58, 0
10, 34140, Note_on_c, 8, 60, 100
10, 34199, Note_on_c, 8, 60, 0
10, 34200, Note_on_c, 8, 62, 100
10, 34259, Note_on_c, 8, 62, 0
10, 34260, Note_on_c, 8, 62, 100
10, 34319, Note_on_c, 8, 62, 0
10, 34320, Note_on_c, 8, 63, 100
10, 34379, Note_on_c, 8, 63, 0
10, 34380, Note_on_c, 8, 62, 100
10, 34439, Note_on_c, 8, 62, 0
10, 34440, Note_on_c, 8, 60, 100
10, 34469, Note_on_c, 8, 60, 0
10, 34470, Note_on_c, 8, 58, 100
10, 34499, Note_on_c, 8, 58, 0
10, 34500, Note_on_c, 8, 57, 100
10, 34529, Note_on_c, 8, 57, 0
10, 34530, Note_on_c, 8, 55, 100
10, 34559, Note_on_c, 8, 55, 0
10, 34560, Note_on_c, 8, 54, 100
10, 34619, Note_on_c, 8, 54, 0
10, 34620, Note_on_c, 8, 50, 100
10, 34649, Note_on_c, 8, 50, 0
10, 34650, Note_on_c, 8, 52, 100
10, 34679, Note_on_c, 8, 52, 0
10, 34680, Note_on_c, 8, 54, 100
10, 34709, Note_on_c, 8, 54, 0
10, 34710, Note_on_c, 8, 55, 100
10, 34739, Note_on_c, 8, 55, 0
10, 34740, Note_on_c, 8, 57, 100
10, 34799, Note_on_c, 8, 57, 0
10, 34800, Note_on_c, 8, 57, 100
10, 34859, Note_on_c, 8, 57, 0
10, 34860, Note_on_c, 8, 58, 100
10, 34919, Note_on_c, 8, 58, 0
10, 34920, Note_on_c, 8, 57, 100
10, 34979, Note_on_c, 8, 57, 0
10, 34980, Note_on_c, 8, 62, 100
10, 35009, Note_on_c, 8, 62, 0
10, 35010, Note_on_c, 8, 64, 100
10, 35039, Note_on_c, 8, 64, 0
10, 35040, Note_on_c, 8, 66, 100
10, 35069, Note_on_c, 8, 66, 0
10, 35070, Note_on_c, 8, 67, 100
10, 35099, Note_on_c, 8, 67, 0
10, 35100, Note_on_c, 8, 69, 100
10, 35159, Note_on_c, 8, 69, 0
10, 35160, Note_on_c, 8, 69, 100
10, 35219, Note_on_c, 8, 69, 0
10, 35220, Note_on_c, 8, 70, 100
10, 35279, Note_on_c, 8, 70, 0
10, 35280, Note_on_c, 8, 65, 100
10, 35299, Note_on_c, 8, 65, 0
10, 35300, Note_on_c, 8, 63, 100
10, 35319, Note_on_c, 8, 63, 0
10, 35320, Note_on_c, 8, 65, 100
10, 35339, Note_on_c, 8, 65, 0
10, 35340, Note_on_c, 8, 63, 100
10, 35354, Note_on_c, 8, 63, 0
10, 35355, Note_on_c, 8, 65, 100
10, 35369, Note_on_c, 8, 65, 0
10, 35370, Note_on_c, 8, 63, 100
10, 35384, Note_on_c, 8, 63, 0
10, 35385, Note_on_c, 8, 65, 100
10, 35399, Note_on_c, 8, 65, 0
10, 35400, Note_on_c, 8, 63, 100
10, 35409, Note_on_c, 8, 63, 0
10, 35410, Note_on_c, 8, 65, 100
10, 35419, Note_on_c, 8, 65, 0
10, 35420, Note_on_c, 8, 63, 100
10, 35429, Note_on_c, 8, 63, 0
10, 35430, Note_on_c, 8, 65, 100
10, 35439, Note_on_c, 8, 65, 0
10, 35440, Note_on_c, 8, 63, 100
10, 35449, Note_on_c, 8, 63, 0
10, 35450, Note_on_c, 8, 65, 100
10, 35459, Note_on_c, 8, 65, 0
10, 35460, Note_on_c, 8, 63, 100
10, 35469, Note_on_c, 8, 63, 0
10, 35470, Note_on_c, 8, 65, 100
10, 35479, Note_on_c, 8, 65, 0
10, 35480, Note_on_c, 8, 63, 100
10, 35489, Note_on_c, 8, 63, 0
10, 35490, Note_on_c, 8, 65, 100
10, 35499, Note_on_c, 8, 65, 0
10, 35500, Note_on_c, 8, 63, 100
10, 35509, Note_on_c, 8, 63, 0
10, 35510, Note_on_c, 8, 65, 100
10, 35519, Note_on_c, 8, 65, 0
10, 35520, Note_on_c, 8, 63, 100
10, 35529, Note_on_c, 8, 63, 0
10, 35530, Note_on_c, 8, 65, 100
10, 35539, Note_on_c, 8, 65, 0
10, 35540, Note_on_c, 8, 63, 100
10, 35549, Note_on_c, 8, 63, 0
10, 35550, Note_on_c, 8, 65, 100
10, 35559, Note_on_c, 8, 65, 0
10, 35560, Note_on_c, 8, 63, 100
10, 35569, Note_on_c, 8, 63, 0
10, 35570, Note_on_c, 8, 65, 100
10, 35579, Note_on_c, 8, 65, 0
10, 35580, Note_on_c, 8, 63, 100
10, 35589, Note_on_c, 8, 63, 0
10, 35590, Note_on_c, 8, 65, 100
10, 35599, Note_on_c, 8, 65, 0
10, 35600, Note_on_c, 8, 63, 100
10, 35609, Note_on_c, 8, 63, 0
10, 35610, Note_on_c, 8, 65, 100
10, 35619, Note_on_c, 8, 65, 0
10, 35620, Note_on_c, 8, 63, 100
10, 35629, Note_on_c, 8, 63, 0
10, 35630, Note_on_c, 8, 65, 100
10, 35639, Note_on_c, 8, 65, 0
10, 35640, Note_on_c, 8, 63, 100
10, 35649, Note_on_c, 8, 63, 0
10, 35650, Note_on_c, 8, 65, 100
10, 35659, Note_on_c, 8, 65, 0
10, 35660, Note_on_c, 8, 63, 100
10, 35669, Note_on_c, 8, 63, 0
10, 35670, Note_on_c, 8, 65, 100
10, 35679, Note_on_c, 8, 65, 0
10, 35680, Note_on_c, 8, 63, 100
10, 35689, Note_on_c, 8, 63, 0
10, 35690, Note_on_c, 8, 65, 100
10, 35699, Note_on_c, 8, 65, 0
10, 35700, Note_on_c, 8, 63, 100
10, 35709, Note_on_c, 8, 63, 0
10, 35710, Note_on_c, 8, 65, 100
10, 35719, Note_on_c, 8, 65, 0
10, 35720, Note_on_c, 8, 63, 100
10, 35729, Note_on_c, 8, 63, 0
10, 35730, Note_on_c, 8, 65, 100
10, 35739, Note_on_c, 8, 65, 0
10, 35740, Note_on_c, 8, 63, 100
10, 35749, Note_on_c, 8, 63, 0
10, 35750, Note_on_c, 8, 65, 100
10, 35759, Note_on_c, 8, 65, 0
10, 35760, Note_on_c, 8, 63, 100
10, 35789, Note_on_c, 8, 63, 0
10, 35790, Note_on_c, 8, 62, 100
10, 35804, Note_on_c, 8, 62, 0
10, 35805, Note_on_c, 8, 63, 100
10, 35819, Note_on_c, 8, 63, 0
10, 35820, Note_on_c, 8, 62, 100
10, 35879, Note_on_c, 8, 62, 0
10, 36075, Note_on_c, 8, 66, 100
10, 36089, Note_on_c, 8, 66, 0
10, 36090, Note_on_c, 8, 67, 100
10, 36104, Note_on_c, 8, 67, 0
10, 36105, Note_on_c, 8, 69, 100
10, 36119, Note_on_c, 8, 69, 0
10, 36120, Note_on_c, 8, 70, 100
10, 36134, Note_on_c, 8, 70, 0
10, 36135, Note_on_c, 8, 69, 100
10, 36149, Note_on_c, 8, 69, 0
10, 36150, Note_on_c, 8, 70, 100
10, 36164, Note_on_c, 8, 70, 0
10, 36165, Note_on_c, 8, 72, 100
10, 36179, Note_on_c, 8, 72, 0
10, 36180, Note_on_c, 8, 74, 100
10, 36239, Note_on_c, 8, 74, 0
10, 36240, Note_on_c, 8, 62, 100
10, 36240, Note_on_c, 8, 67, 100
10, 36240, Note_on_c, 8, 69, 100
10, 36299, Note_on_c, 8, 69, 0
10, 36299, Note_on_c, 8, 67, 0
10, 36299, Note_on_c, 8, 62, 0
10, 36300, Note_on_c, 8, 57, 100
10, 36300, Note_on_c, 8, 66, 100
10, 36300, Note_on_c, 8, 69, 100
10, 36359, Note_on_c, 8, 69, 0
10, 36359, Note_on_c, 8, 66, 0
10, 36359, Note_on_c, 8, 57, 0
10, 36360, Note_on_c, 8, 58, 100
10, 36360, Note_on_c, 8, 62, 100
10, 36360, Note_on_c, 8, 67, 100
10, 36389, Note_on_c, 8, 67, 0
10, 36389, Note_on_c, 8, 62, 0
10, 36389, Note_on_c, 8, 58, 0
10, 36390, Note_on_c, 8, 62, 100
10, 36419, Note_on_c, 8, 62, 0
10, 36420, Note_on_c, 8, 67, 100
10, 36449, Note_on_c, 8, 67, 0
10, 36450, Note_on_c, 8, 70, 100
10, 36479, Note_on_c, 8, 70, 0
10, 36480, Note_on_c, 8, 67, 100
10, 36509, Note_on_c, 8, 67, 0
10, 36510, Note_on_c, 8, 62, 100
10, 36539, Note_on_c, 8, 62, 0
10, 36540, Note_on_c, 8, 67, 100
10, 36569, Note_on_c, 8, 67, 0
10, 36570, Note_on_c, 8, 61, 100
10, 36599, Note_on_c, 8, 61, 0
10, 36600, Note_on_c, 8, 67, 100
10, 36629, Note_on_c, 8, 67, 0
10, 36630, Note_on_c, 8, 70, 100
10, 36659, Note_on_c, 8, 70, 0
10, 36660, Note_on_c, 8, 67, 100
10, 36689, Note_on_c, 8, 67, 0
10, 36690, Note_on_c, 8, 62, 100
10, 36719, Note_on_c, 8, 62, 0
10, 36720, Note_on_c, 8, 67, 100
10, 36749, Note_on_c, 8, 67, 0
10, 36750, Note_on_c, 8, 62, 100
10, 36779, Note_on_c, 8, 62, 0
10, 36780, Note_on_c, 8, 69, 100
10, 36809, Note_on_c, 8, 69, 0
10, 36810, Note_on_c, 8, 73, 100
10, 36839, Note_on_c, 8, 73, 0
10, 36840, Note_on_c, 8, 69, 100
10, 36869, Note_on_c, 8, 69, 0
10, 36870, Note_on_c, 8, 64, 100
10, 36899, Note_on_c, 8, 64, 0
10, 36900, Note_on_c, 8, 69, 100
10, 36929, Note_on_c, 8, 69, 0
10, 36930, Note_on_c, 8, 57, 100
10, 36959, Note_on_c, 8, 57, 0
10, 36960, Note_on_c, 8, 61, 100
10, 36989, Note_on_c, 8, 61, 0
10, 36990, Note_on_c, 8, 64, 100
10, 37019, Note_on_c, 8, 64, 0
10, 37020, Note_on_c, 8, 61, 100
10, 37049, Note_on_c, 8, 61, 0
10, 37050, Note_on_c, 8, 57, 100
10, 37079, Note_on_c, 8, 57, 0
10, 37080, Note_on_c, 8, 69, 100
10, 37199, Note_on_c, 8, 69, 0
10, 37470, Note_on_c, 8, 59, 100
10, 37499, Note_on_c, 8, 59, 0
10, 37500, Note_on_c, 8, 64, 100
10, 37529, Note_on_c, 8, 64, 0
10, 37530, Note_on_c, 8, 68, 100
10, 37559, Note_on_c, 8, 68, 0
10, 37560, Note_on_c, 8, 64, 100
10, 37589, Note_on_c, 8, 64, 0
10, 37590, Note_on_c, 8, 59, 100
10, 37619, Note_on_c, 8, 59, 0
10, 37620, Note_on_c, 8, 64, 100
10, 37649, Note_on_c, 8, 64, 0
10, 37650, Note_on_c, 8, 64, 100
10, 37679, Note_on_c, 8, 64, 0
10, 37680, Note_on_c, 8, 68, 100
10, 37709, Note_on_c, 8, 68, 0
10, 37710, Note_on_c, 8, 71, 100
10, 37739, Note_on_c, 8, 71, 0
10, 37740, Note_on_c, 8, 68, 100
10, 37769, Note_on_c, 8, 68, 0
10, 37770, Note_on_c, 8, 64, 100
10, 37799, Note_on_c, 8, 64, 0
10, 37800, Note_on_c, 8, 76, 100
10, 37829, Note_on_c, 8, 76, 0
10, 37830, Note_on_c, 8, 73, 100
10, 37859, Note_on_c, 8, 73, 0
10, 37860, Note_on_c, 8, 69, 100
10, 37889, Note_on_c, 8, 69, 0
10, 37890, Note_on_c, 8, 72, 100
10, 37919, Note_on_c, 8, 72, 0
10, 37920, Note_on_c, 8, 76, 100
10, 37949, Note_on_c, 8, 76, 0
10, 37950, Note_on_c, 8, 81, 100
10, 37979, Note_on_c, 8, 81, 0
10, 37980, Note_on_c, 8, 72, 100
10, 38009, Note_on_c, 8, 72, 0
10, 38010, Note_on_c, 8, 78, 100
10, 38039, Note_on_c, 8, 78, 0
10, 38040, Note_on_c, 8, 69, 100
10, 38069, Note_on_c, 8, 69, 0
10, 38070, Note_on_c, 8, 72, 100
10, 38099, Note_on_c, 8, 72, 0
10, 38100, Note_on_c, 8, 78, 100
10, 38129, Note_on_c, 8, 78, 0
10, 38130, Note_on_c, 8, 81, 100
10, 38159, Note_on_c, 8, 81, 0
10, 38160, Note_on_c, 8, 71, 100
10, 38189, Note_on_c, 8, 71, 0
10, 38190, Note_on_c, 8, 74, 100
10, 38219, Note_on_c, 8, 74, 0
10, 38220, Note_on_c, 8, 67, 100
10, 38249, Note_on_c, 8, 67, 0
10, 38250, Note_on_c, 8, 70, 100
10, 38279, Note_on_c, 8, 70, 0
10, 38280, Note_on_c, 8, 74, 100
10, 38309, Note_on_c, 8, 74, 0
10, 38310, Note_on_c, 8, 79, 100
10, 38339, Note_on_c, 8, 79, 0
10, 38340, Note_on_c, 8, 70, 100
10, 38369, Note_on_c, 8, 70, 0
10, 38370, Note_on_c, 8, 76, 100
10, 38399, Note_on_c, 8, 76, 0
10, 38400, Note_on_c, 8, 67, 100
10, 38429, Note_on_c, 8, 67, 0
10, 38430, Note_on_c, 8, 70, 100
10, 38459, Note_on_c, 8, 70, 0
10, 38460, Note_on_c, 8, 76, 100
10, 38489, Note_on_c, 8, 76, 0
10, 38490, Note_on_c, 8, 79, 100
10, 38519, Note_on_c, 8, 79, 0
10, 38520, Note_on_c, 8, 69, 100
10, 38549, Note_on_c, 8, 69, 0
10, 38550, Note_on_c, 8, 72, 100
10, 38579, Note_on_c, 8, 72, 0
10, 38580, Note_on_c, 8, 65, 100
10, 38609, Note_on_c, 8, 65, 0
10, 38610, Note_on_c, 8, 69, 100
10, 38639, Note_on_c, 8, 69, 0
10, 38640, Note_on_c, 8, 72, 100
10, 38669, Note_on_c, 8, 72, 0
10, 38670, Note_on_c, 8, 77, 100
10, 38699, Note_on_c, 8, 77, 0
10, 38700, Note_on_c, 8, 69, 100
10, 38729, Note_on_c, 8, 69, 0
10, 38730, Note_on_c, 8, 74, 100
10, 38759, Note_on_c, 8, 74, 0
10, 38760, Note_on_c, 8, 65, 100
10, 38789, Note_on_c, 8, 65, 0
10, 38790, Note_on_c, 8, 69, 100
10, 38819, Note_on_c, 8, 69, 0
10, 38820, Note_on_c, 8, 74, 100
10, 38849, Note_on_c, 8, 74, 0
10, 38850, Note_on_c, 8, 77, 100
10, 38879, Note_on_c, 8, 77, 0
10, 38880, Note_on_c, 8, 67, 100
10, 38909, Note_on_c, 8, 67, 0
10, 38910, Note_on_c, 8, 70, 100
10, 38939, Note_on_c, 8, 70, 0
10, 38940, Note_on_c, 8, 64, 100
10, 38969, Note_on_c, 8, 64, 0
10, 38970, Note_on_c, 8, 67, 100
10, 38999, Note_on_c, 8, 67, 0
10, 39000, Note_on_c, 8, 70, 100
10, 39029, Note_on_c, 8, 70, 0
10, 39030, Note_on_c, 8, 76, 100
10, 39059, Note_on_c, 8, 76, 0
10, 39060, Note_on_c, 8, 67, 100
10, 39089, Note_on_c, 8, 67, 0
10, 39090, Note_on_c, 8, 73, 100
10, 39119, Note_on_c, 8, 73, 0
10, 39120, Note_on_c, 8, 64, 100
10, 39149, Note_on_c, 8, 64, 0
10, 39150, Note_on_c, 8, 67, 100
10, 39179, Note_on_c, 8, 67, 0
10, 39180, Note_on_c, 8, 73, 100
10, 39209, Note_on_c, 8, 73, 0
10, 39210, Note_on_c, 8, 76, 100
10, 39239, Note_on_c, 8, 76, 0
10, 39240, Note_on_c, 8, 74, 100
10, 39299, Note_on_c, 8, 74, 0
10, 39420, Note_on_c, 8, 69, 100
10, 39420, Note_on_c, 8, 74, 100
10, 39420, Note_on_c, 8, 77, 100
10, 39479, Note_on_c, 8, 77, 0
10, 39479, Note_on_c, 8, 74, 0
10, 39479, Note_on_c, 8, 69, 0
10, 39780, Note_on_c, 8, 67, 100
10, 39780, Note_on_c, 8, 73, 100
10, 39780, Note_on_c, 8, 76, 100
10, 39839, Note_on_c, 8, 76, 0
10, 39839, Note_on_c, 8, 73, 0
10, 39839, Note_on_c, 8, 67, 0
10, 40140, Note_on_c, 8, 74, 100
10, 40140, Note_on_c, 8, 69, 100
10, 40140, Note_on_c, 8, 66, 100
10, 40199, Note_on_c, 8, 66, 0
10, 40199, Note_on_c, 8, 69, 0
10, 40199, Note_on_c, 8, 74, 0
10, 41940, Note_on_c, 8, 76, 100
10, 41940, Note_on_c, 8, 67, 100
10, 41999, Note_on_c, 8, 67, 0
10, 41999, Note_on_c, 8, 76, 0
10, 42000, Note_on_c, 8, 69, 100
10, 42000, Note_on_c, 8, 77, 100
10, 42059, Note_on_c, 8, 77, 0
10, 42059, Note_on_c, 8, 69, 0
10, 42060, Note_on_c, 8, 70, 100
10, 42060, Note_on_c, 8, 79, 100
10, 42119, Note_on_c, 8, 79, 0
10, 42119, Note_on_c, 8, 70, 0
10, 42300, Note_on_c, 8, 65, 100
10, 42300, Note_on_c, 8, 74, 100
10, 42359, Note_on_c, 8, 74, 0
10, 42359, Note_on_c, 8, 65, 0
10, 42360, Note_on_c, 8, 67, 100
10, 42360, Note_on_c, 8, 76, 100
10, 42419, Note_on_c, 8, 76, 0
10, 42419, Note_on_c, 8, 67, 0
10, 42420, Note_on_c, 8, 69, 100
10, 42420, Note_on_c, 8, 77, 100
10, 42479, Note_on_c, 8, 77, 0
10, 42479, Note_on_c, 8, 69, 0
10, 42660, Note_on_c, 8, 73, 100
10, 42660, Note_on_c, 8, 64, 100
10, 42719, Note_on_c, 8, 64, 0
10, 42719, Note_on_c, 8, 73, 0
10, 42720, Note_on_c, 8, 65, 100
10, 42720, Note_on_c, 8, 74, 100
10, 42779, Note_on_c, 8, 74, 0
10, 42779, Note_on_c, 8, 65, 0
10, 42780, Note_on_c, 8, 76, 100
10, 42780, Note_on_c, 8, 67, 100
10, 42839, Note_on_c, 8, 67, 0
10, 42839, Note_on_c, 8, 76, 0
10, 42960, Note_on_c, 8, 62, 100
10, 42960, Note_on_c, 8, 65, 100
10, 42960, Note_on_c, 8, 69, 100
10, 43019, Note_on_c, 8, 69, 0
10, 43019, Note_on_c, 8, 65, 0
10, 43019, Note_on_c, 8, 62, 0
10, 43140, Note_on_c, 8, 61, 100
10, 43140, Note_on_c, 8, 64, 100
10, 43140, Note_on_c, 8, 67, 100
10, 43199, Note_on_c, 8, 67, 0
10, 43199, Note_on_c, 8, 64, 0
10, 43199, Note_on_c, 8, 61, 0
10, 43320, Note_on_c, 8, 57, 100
10, 43320, Note_on_c, 8, 65, 100
10, 43320, Note_on_c, 8, 62, 100
10, 43379, Note_on_c, 8, 62, 0
10, 43379, Note_on_c, 8, 65, 0
10, 43379, Note_on_c, 8, 57, 0
10, 43500, Note_on_c, 8, 57, 100
10, 43500, Note_on_c, 8, 61, 100
10, 43500, Note_on_c, 8, 64, 100
10, 43559, Note_on_c, 8, 64, 0
10, 43559, Note_on_c, 8, 61, 0
10, 43559, Note_on_c, 8, 57, 0
10, 43680, Note_on_c, 8, 56, 100
10, 43680, Note_on_c, 8, 59, 100
10, 43680, Note_on_c, 8, 62, 100
10, 43739, Note_on_c, 8, 62, 0
10, 43739, Note_on_c, 8, 59, 0
10, 43739, Note_on_c, 8, 56, 0
10, 43860, Note_on_c, 8, 61, 100
10, 43860, Note_on_c, 8, 55, 100
10, 43860, Note_on_c, 8, 64, 100
10, 43919, Note_on_c, 8, 64, 0
10, 43919, Note_on_c, 8, 55, 0
10, 43919, Note_on_c, 8, 61, 0
10, 44040, Note_on_c, 8, 74, 100
10, 44040, Note_on_c, 8, 77, 100
10, 44099, Note_on_c, 8, 77, 0
10, 44099, Note_on_c, 8, 74, 0
10, 44100, Note_on_c, 8, 68, 100
10, 44100, Note_on_c, 8, 74, 100
10, 44159, Note_on_c, 8, 74, 0
10, 44159, Note_on_c, 8, 68, 0
10, 44220, Note_on_c, 8, 74, 100
10, 44220, Note_on_c, 8, 80, 100
10, 44220, Note_on_c, 8, 83, 100
10, 44279, Note_on_c, 8, 83, 0
10, 44279, Note_on_c, 8, 80, 0
10, 44279, Note_on_c, 8, 74, 0
10, 44280, Note_on_c, 8, 73, 100
10, 44280, Note_on_c, 8, 76, 100
10, 44339, Note_on_c, 8, 76, 0
10, 44339, Note_on_c, 8, 73, 0
10, 44400, Note_on_c, 8, 64, 100
10, 44400, Note_on_c, 8, 73, 100
10, 44400, Note_on_c, 8, 76, 100
10, 44459, Note_on_c, 8, 76, 0
10, 44459, Note_on_c, 8, 73, 0
10, 44459, Note_on_c, 8, 64, 0
10, 44460, Note_on_c, 8, 62, 100
10, 44460, Note_on_c, 8, 69, 100
10, 44519, Note_on_c, 8, 69, 0
10, 44519, Note_on_c, 8, 62, 0
10, 44580, Note_on_c, 8, 73, 100
10, 44580, Note_on_c, 8, 69, 100
10, 44580, Note_on_c, 8, 67, 100
10, 44580, Note_on_c, 8, 64, 100
10, 44639, Note_on_c, 8, 64, 0
10, 44639, Note_on_c, 8, 73, 0
10, 44639, Note_on_c, 8, 69, 0
10, 44639, Note_on_c, 8, 67, 0
10, 44640, Note_on_c, 8, 69, 100
10, 44640, Note_on_c, 8, 74, 100
10, 44640, Note_on_c, 8, 65, 100
10, 44699, Note_on_c, 8, 65, 0
10, 44699, Note_on_c, 8, 74, 0
10, 44699, Note_on_c, 8, 69, 0
10, 45060, Note_on_c, 8, 74, 100
10, 45119, Note_on_c, 8, 74, 0
10, 45120, Note_on_c, 8, 76, 100
10, 45179, Note_on_c, 8, 76, 0
10, 45180, Note_on_c, 8, 77, 100
10, 45239, Note_on_c, 8, 77, 0
10, 45240, Note_on_c, 8, 74, 100
10, 45240, Note_on_c, 8, 77, 100
10, 45299, Note_on_c, 8, 77, 0
10, 45299, Note_on_c, 8, 74, 0
10, 45300, Note_on_c, 8, 76, 100
10, 45300, Note_on_c, 8, 79, 100
10, 45359, Note_on_c, 8, 79, 0
10, 45359, Note_on_c, 8, 76, 0
10, 45360, Note_on_c, 8, 77, 100
10, 45360, Note_on_c, 8, 81, 100
10, 45419, Note_on_c, 8, 81, 0
10, 45419, Note_on_c, 8, 77, 0
10, 45420, Note_on_c, 8, 81, 100
10, 45479, Note_on_c, 8, 81, 0
10, 45480, Note_on_c, 8, 82, 100
10, 45539, Note_on_c, 8, 82, 0
10, 45540, Note_on_c, 8, 81, 100
10, 45599, Note_on_c, 8, 81, 0
10, 45600, Note_on_c, 8, 79, 100
10, 45629, Note_on_c, 8, 79, 0
10, 45630, Note_on_c, 8, 77, 100
10, 45659, Note_on_c, 8, 77, 0
10, 45660, Note_on_c, 8, 76, 100
10, 45689, Note_on_c, 8, 76, 0
10, 45690, Note_on_c, 8, 74, 100
10, 45719, Note_on_c, 8, 74, 0
10, 45720, Note_on_c, 8, 73, 100
10, 45749, Note_on_c, 8, 73, 0
10, 45750, Note_on_c, 8, 71, 100
10, 45779, Note_on_c, 8, 71, 0
10, 45780, Note_on_c, 8, 69, 100
10, 45809, Note_on_c, 8, 69, 0
10, 45810, Note_on_c, 8, 71, 100
10, 45839, Note_on_c, 8, 71, 0
10, 45840, Note_on_c, 8, 73, 100
10, 45869, Note_on_c, 8, 73, 0
10, 45870, Note_on_c, 8, 74, 100
10, 45899, Note_on_c, 8, 74, 0
10, 45900, Note_on_c, 8, 76, 100
10, 45959, Note_on_c, 8, 76, 0
10, 45960, Note_on_c, 8, 73, 100
10, 45960, Note_on_c, 8, 76, 100
10, 46019, Note_on_c, 8, 76, 0
10, 46019, Note_on_c, 8, 73, 0
10, 46020, Note_on_c, 8, 74, 100
10, 46020, Note_on_c, 8, 77, 100
10, 46079, Note_on_c, 8, 77, 0
10, 46079, Note_on_c, 8, 74, 0
10, 46080, Note_on_c, 8, 69, 100
10, 46080, Note_on_c, 8, 73, 100
10, 46080, Note_on_c, 8, 76, 100
10, 46139, Note_on_c, 8, 76, 0
10, 46139, Note_on_c, 8, 73, 0
10, 46139, Note_on_c, 8, 69, 0
10, 46140, Note_on_c, 8, 57, 100
10, 46169, Note_on_c, 8, 57, 0
10, 46170, Note_on_c, 8, 59, 100
10, 46199, Note_on_c, 8, 59, 0
10, 46200, Note_on_c, 8, 61, 100
10, 46229, Note_on_c, 8, 61, 0
10, 46230, Note_on_c, 8, 62, 100
10, 46259, Note_on_c, 8, 62, 0
10, 46260, Note_on_c, 8, 64, 100
10, 46319, Note_on_c, 8, 64, 0
10, 46320, Note_on_c, 8, 64, 100
10, 46379, Note_on_c, 8, 64, 0
10, 46380, Note_on_c, 8, 65, 100
10, 46439, Note_on_c, 8, 65, 0
10, 46440, Note_on_c, 8, 64, 100
10, 46469, Note_on_c, 8, 64, 0
10, 46470, Note_on_c, 8, 69, 100
10, 46499, Note_on_c, 8, 69, 0
10, 46500, Note_on_c, 8, 73, 100
10, 46529, Note_on_c, 8, 73, 0
10, 46530, Note_on_c, 8, 76, 100
10, 46559, Note_on_c, 8, 76, 0
10, 46560, Note_on_c, 8, 81, 100
10, 46589, Note_on_c, 8, 81, 0
10, 46590, Note_on_c, 8, 79, 100
10, 46619, Note_on_c, 8, 79, 0
10, 46620, Note_on_c, 8, 77, 100
10, 46639, Note_on_c, 8, 77, 0
10, 46640, Note_on_c, 8, 79, 100
10, 46659, Note_on_c, 8, 79, 0
10, 46660, Note_on_c, 8, 77, 100
10, 46679, Note_on_c, 8, 77, 0
10, 46680, Note_on_c, 8, 79, 100
10, 46694, Note_on_c, 8, 79, 0
10, 46695, Note_on_c, 8, 77, 100
10, 46709, Note_on_c, 8, 77, 0
10, 46710, Note_on_c, 8, 79, 100
10, 46724, Note_on_c, 8, 79, 0
10, 46725, Note_on_c, 8, 77, 100
10, 46739, Note_on_c, 8, 77, 0
10, 46740, Note_on_c, 8, 79, 100
10, 46749, Note_on_c, 8, 79, 0
10, 46750, Note_on_c, 8, 77, 100
10, 46759, Note_on_c, 8, 77, 0
10, 46760, Note_on_c, 8, 79, 100
10, 46769, Note_on_c, 8, 79, 0
10, 46770, Note_on_c, 8, 77, 100
10, 46779, Note_on_c, 8, 77, 0
10, 46780, Note_on_c, 8, 79, 100
10, 46789, Note_on_c, 8, 79, 0
10, 46790, Note_on_c, 8, 77, 100
10, 46799, Note_on_c, 8, 77, 0
10, 46800, Note_on_c, 8, 79, 100
10, 46814, Note_on_c, 8, 79, 0
10, 46815, Note_on_c, 8, 77, 100
10, 46829, Note_on_c, 8, 77, 0
10, 46830, Note_on_c, 8, 76, 100
10, 46844, Note_on_c, 8, 76, 0
10, 46845, Note_on_c, 8, 74, 100
10, 46859, Note_on_c, 8, 74, 0
10, 46860, Note_on_c, 8, 79, 100
10, 46919, Note_on_c, 8, 79, 0
10, 46920, Note_on_c, 8, 77, 100
10, 46979, Note_on_c, 8, 77, 0
10, 46980, Note_on_c, 8, 76, 100
10, 46999, Note_on_c, 8, 76, 0
10, 47000, Note_on_c, 8, 77, 100
10, 47019, Note_on_c, 8, 77, 0
10, 47020, Note_on_c, 8, 76, 100
10, 47039, Note_on_c, 8, 76, 0
10, 47040, Note_on_c, 8, 77, 100
10, 47054, Note_on_c, 8, 77, 0
10, 47055, Note_on_c, 8, 76, 100
10, 47069, Note_on_c, 8, 76, 0
10, 47070, Note_on_c, 8, 77, 100
10, 47084, Note_on_c, 8, 77, 0
10, 47085, Note_on_c, 8, 76, 100
10, 47099, Note_on_c, 8, 76, 0
10, 47100, Note_on_c, 8, 77, 100
10, 47109, Note_on_c, 8, 77, 0
10, 47110, Note_on_c, 8, 76, 100
10, 47119, Note_on_c, 8, 76, 0
10, 47120, Note_on_c, 8, 77, 100
10, 47129, Note_on_c, 8, 77, 0
10, 47130, Note_on_c, 8, 76, 100
10, 47139, Note_on_c, 8, 76, 0
10, 47140, Note_on_c, 8, 77, 100
10, 47149, Note_on_c, 8, 77, 0
10, 47150, Note_on_c, 8, 76, 100
10, 47159, Note_on_c, 8, 76, 0
10, 47160, Note_on_c, 8, 77, 100
10, 47174, Note_on_c, 8, 77, 0
10, 47175, Note_on_c, 8, 76, 100
10, 47189, Note_on_c, 8, 76, 0
10, 47190, Note_on_c, 8, 74, 100
10, 47204, Note_on_c, 8, 74, 0
10, 47205, Note_on_c, 8, 72, 100
10, 47219, Note_on_c, 8, 72, 0
10, 47220, Note_on_c, 8, 77, 100
10, 47279, Note_on_c, 8, 77, 0
10, 47280, Note_on_c, 8, 76, 100
10, 47339, Note_on_c, 8, 76, 0
10, 47340, Note_on_c, 8, 74, 100
10, 47359, Note_on_c, 8, 74, 0
10, 47360, Note_on_c, 8, 76, 100
10, 47379, Note_on_c, 8, 76, 0
10, 47380, Note_on_c, 8, 74, 100
10, 47399, Note_on_c, 8, 74, 0
10, 47400, Note_on_c, 8, 76, 100
10, 47414, Note_on_c, 8, 76, 0
10, 47415, Note_on_c, 8, 74, 100
10, 47429, Note_on_c, 8, 74, 0
10, 47430, Note_on_c, 8, 76, 100
10, 47444, Note_on_c, 8, 76, 0
10, 47445, Note_on_c, 8, 74, 100
10, 47459, Note_on_c, 8, 74, 0
10, 47460, Note_on_c, 8, 76, 100
10, 47469, Note_on_c, 8, 76, 0
10, 47470, Note_on_c, 8, 74, 100
10, 47479, Note_on_c, 8, 74, 0
10, 47480, Note_on_c, 8, 76, 100
10, 47489, Note_on_c, 8, 76, 0
10, 47490, Note_on_c, 8, 74, 100
10, 47499, Note_on_c, 8, 74, 0
10, 47500, Note_on_c, 8, 76, 100
10, 47509, Note_on_c, 8, 76, 0
10, 47510, Note_on_c, 8, 74, 100
10, 47519, Note_on_c, 8, 74, 0
10, 47520, Note_on_c, 8, 76, 100
10, 47534, Note_on_c, 8, 76, 0
10, 47535, Note_on_c, 8, 74, 100
10, 47549, Note_on_c, 8, 74, 0
10, 47550, Note_on_c, 8, 73, 100
10, 47564, Note_on_c, 8, 73, 0
10, 47565, Note_on_c, 8, 71, 100
10, 47579, Note_on_c, 8, 71, 0
10, 47580, Note_on_c, 8, 76, 100
10, 47639, Note_on_c, 8, 76, 0
10, 47640, Note_on_c, 8, 74, 100
10, 47699, Note_on_c, 8, 74, 0
10, 47700, Note_on_c, 8, 74, 100
10, 47714, Note_on_c, 8, 74, 0
10, 47715, Note_on_c, 8, 73, 100
10, 47729, Note_on_c, 8, 73, 0
10, 47730, Note_on_c, 8, 74, 100
10, 47744, Note_on_c, 8, 74, 0
10, 47745, Note_on_c, 8, 73, 100
10, 47759, Note_on_c, 8, 73, 0
10, 47760, Note_on_c, 8, 74, 100
10, 47769, Note_on_c, 8, 74, 0
10, 47770, Note_on_c, 8, 73, 100
10, 47779, Note_on_c, 8, 73, 0
10, 47780, Note_on_c, 8, 74, 100
10, 47789, Note_on_c, 8, 74, 0
10, 47790, Note_on_c, 8, 73, 100
10, 47799, Note_on_c, 8, 73, 0
10, 47800, Note_on_c, 8, 74, 100
10, 47809, Note_on_c, 8, 74, 0
10, 47810, Note_on_c, 8, 73, 100
10, 47819, Note_on_c, 8, 73, 0
10, 47820, Note_on_c, 8, 74, 100
10, 47829, Note_on_c, 8, 74, 0
10, 47830, Note_on_c, 8, 73, 100
10, 47839, Note_on_c, 8, 73, 0
10, 47840, Note_on_c, 8, 74, 100
10, 47849, Note_on_c, 8, 74, 0
10, 47850, Note_on_c, 8, 73, 100
10, 47859, Note_on_c, 8, 73, 0
10, 47860, Note_on_c, 8, 74, 100
10, 47869, Note_on_c, 8, 74, 0
10, 47870, Note_on_c, 8, 73, 100
10, 47879, Note_on_c, 8, 73, 0
10, 47880, Note_on_c, 8, 74, 100
10, 47939, Note_on_c, 8, 74, 0
10, 47940, Note_on_c, 8, 86, 100
10, 47999, Note_on_c, 8, 86, 0
10, 48000, Note_on_c, 8, 84, 100
10, 48059, Note_on_c, 8, 84, 0
10, 48060, Note_on_c, 8, 82, 100
10, 48119, Note_on_c, 8, 82, 0
10, 48120, Note_on_c, 8, 81, 100
10, 48179, Note_on_c, 8, 81, 0
10, 48180, Note_on_c, 8, 79, 100
10, 48239, Note_on_c, 8, 79, 0
10, 48240, Note_on_c, 8, 79, 100
10, 48359, Note_on_c, 8, 79, 0
10, 48660, Note_on_c, 8, 79, 100
10, 48719, Note_on_c, 8, 79, 0
10, 48720, Note_on_c, 8, 79, 100
10, 48779, Note_on_c, 8, 79, 0
10, 48780, Note_on_c, 8, 73, 100
10, 48839, Note_on_c, 8, 73, 0
10, 48840, Note_on_c, 8, 76, 100
10, 48899, Note_on_c, 8, 76, 0
10, 48900, Note_on_c, 8, 76, 100
10, 48959, Note_on_c, 8, 76, 0
10, 48960, Note_on_c, 8, 69, 100
10, 48989, Note_on_c, 8, 69, 0
10, 48990, Note_on_c, 8, 76, 100
10, 49019, Note_on_c, 8, 76, 0
10, 49020, Note_on_c, 8, 73, 100
10, 49049, Note_on_c, 8, 73, 0
10, 49050, Note_on_c, 8, 69, 100
10, 49079, Note_on_c, 8, 69, 0
10, 49080, Note_on_c, 8, 81, 100
10, 49139, Note_on_c, 8, 81, 0
10, 49170, Note_on_c, 8, 70, 100
10, 49199, Note_on_c, 8, 70, 0
10, 49200, Note_on_c, 8, 69, 100
10, 49259, Note_on_c, 8, 69, 0
10, 49260, Note_on_c, 8, 61, 100
10, 49260, Note_on_c, 8, 67, 100
10, 49319, Note_on_c, 8, 67, 0
10, 49319, Note_on_c, 8, 61, 0
10, 49320, Note_on_c, 8, 65, 100
10, 49320, Note_on_c, 8, 57, 100
10, 49379, Note_on_c, 8, 57, 0
10, 49379, Note_on_c, 8, 65, 0
10, 49380, Note_on_c, 8, 62, 100
10, 49439, Note_on_c, 8, 62, 0
10, 49440, Note_on_c, 8, 64, 100
10, 49499, Note_on_c, 8, 64, 0
10, 49500, Note_on_c, 8, 65, 100
10, 49559, Note_on_c, 8, 65, 0
10, 49560, Note_on_c, 8, 65, 100
10, 49619, Note_on_c, 8, 65, 0
10, 49620, Note_on_c, 8, 67, 100
10, 49679, Note_on_c, 8, 67, 0
10, 49680, Note_on_c, 8, 69, 100
10, 49739, Note_on_c, 8, 69, 0
10, 49740, Note_on_c, 8, 69, 100
10, 49799, Note_on_c, 8, 69, 0
10, 49800, Note_on_c, 8, 70, 100
10, 49859, Note_on_c, 8, 70, 0
10, 49860, Note_on_c, 8, 69, 100
10, 49919, Note_on_c, 8, 69, 0
10, 49920, Note_on_c, 8, 67, 100
10, 49949, Note_on_c, 8, 67, 0
10, 49950, Note_on_c, 8, 65, 100
10, 49979, Note_on_c, 8, 65, 0
10, 49980, Note_on_c, 8, 64, 100
10, 50009, Note_on_c, 8, 64, 0
10, 50010, Note_on_c, 8, 62, 100
10, 50039, Note_on_c, 8, 62, 0
10, 50040, Note_on_c, 8, 61, 100
10, 50099, Note_on_c, 8, 61, 0
10, 50100, Note_on_c, 8, 57, 100
10, 50129, Note_on_c, 8, 57, 0
10, 50130, Note_on_c, 8, 59, 100
10, 50159, Note_on_c, 8, 59, 0
10, 50160, Note_on_c, 8, 61, 100
10, 50189, Note_on_c, 8, 61, 0
10, 50190, Note_on_c, 8, 62, 100
10, 50219, Note_on_c, 8, 62, 0
10, 50220, Note_on_c, 8, 64, 100
10, 50279, Note_on_c, 8, 64, 0
10, 50280, Note_on_c, 8, 64, 100
10, 50339, Note_on_c, 8, 64, 0
10, 50340, Note_on_c, 8, 65, 100
10, 50399, Note_on_c, 8, 65, 0
10, 50400, Note_on_c, 8, 64, 100
10, 50459, Note_on_c, 8, 64, 0
10, 50460, Note_on_c, 8, 57, 100
10, 50489, Note_on_c, 8, 57, 0
10, 50490, Note_on_c, 8, 59, 100
10, 50519, Note_on_c, 8, 59, 0
10, 50520, Note_on_c, 8, 61, 100
10, 50549, Note_on_c, 8, 61, 0
10, 50550, Note_on_c, 8, 62, 100
10, 50579, Note_on_c, 8, 62, 0
10, 50580, Note_on_c, 8, 64, 100
10, 50639, Note_on_c, 8, 64, 0
10, 50640, Note_on_c, 8, 64, 100
10, 50699, Note_on_c, 8, 64, 0
10, 50700, Note_on_c, 8, 65, 100
10, 50759, Note_on_c, 8, 65, 0
10, 50760, Note_on_c, 8, 64, 100
10, 50819, Note_on_c, 8, 64, 0
10, 50820, Note_on_c, 8, 57, 100
10, 50849, Note_on_c, 8, 57, 0
10, 50850, Note_on_c, 8, 59, 100
10, 50879, Note_on_c, 8, 59, 0
10, 50880, Note_on_c, 8, 61, 100
10, 50909, Note_on_c, 8, 61, 0
10, 50910, Note_on_c, 8, 62, 100
10, 50939, Note_on_c, 8, 62, 0
10, 50940, Note_on_c, 8, 64, 100
10, 50969, Note_on_c, 8, 64, 0
10, 50970, Note_on_c, 8, 62, 100
10, 50999, Note_on_c, 8, 62, 0
10, 51000, Note_on_c, 8, 61, 100
10, 51029, Note_on_c, 8, 61, 0
10, 51030, Note_on_c, 8, 62, 100
10, 51059, Note_on_c, 8, 62, 0
10, 51060, Note_on_c, 8, 64, 100
10, 51089, Note_on_c, 8, 64, 0
10, 51090, Note_on_c, 8, 65, 100
10, 51119, Note_on_c, 8, 65, 0
10, 51120, Note_on_c, 8, 67, 100
10, 51149, Note_on_c, 8, 67, 0
10, 51150, Note_on_c, 8, 65, 100
10, 51179, Note_on_c, 8, 65, 0
10, 51180, Note_on_c, 8, 64, 100
10, 51209, Note_on_c, 8, 64, 0
10, 51210, Note_on_c, 8, 65, 100
10, 51239, Note_on_c, 8, 65, 0
10, 51240, Note_on_c, 8, 67, 100
10, 51269, Note_on_c, 8, 67, 0
10, 51270, Note_on_c, 8, 69, 100
10, 51299, Note_on_c, 8, 69, 0
10, 51300, Note_on_c, 8, 70, 100
10, 51329, Note_on_c, 8, 70, 0
10, 51330, Note_on_c, 8, 69, 100
10, 51359, Note_on_c, 8, 69, 0
10, 51360, Note_on_c, 8, 67, 100
10, 51389, Note_on_c, 8, 67, 0
10, 51390, Note_on_c, 8, 65, 100
10, 51419, Note_on_c, 8, 65, 0
10, 51420, Note_on_c, 8, 64, 100
10, 51449, Note_on_c, 8, 64, 0
10, 51450, Note_on_c, 8, 62, 100
10, 51479, Note_on_c, 8, 62, 0
10, 51480, Note_on_c, 8, 61, 100
10, 51509, Note_on_c, 8, 61, 0
10, 51510, Note_on_c, 8, 64, 100
10, 51539, Note_on_c, 8, 64, 0
10, 51540, Note_on_c, 8, 57, 100
10, 51569, Note_on_c, 8, 57, 0
10, 51570, Note_on_c, 8, 61, 100
10, 51599, Note_on_c, 8, 61, 0
10, 51600, Note_on_c, 8, 62, 100
10, 51659, Note_on_c, 8, 62, 0
10, 51690, Note_on_c, 8, 55, 100
10, 51719, Note_on_c, 8, 55, 0
10, 51720, Note_on_c, 8, 57, 100
10, 51779, Note_on_c, 8, 57, 0
10, 51780, Note_on_c, 8, 57, 100
10, 51839, Note_on_c, 8, 57, 0
10, 51840, Note_on_c, 8, 62, 100
10, 52019, Note_on_c, 8, 62, 0
10, 52200, Note_on_c, 8, 77, 100
10, 52215, Note_on_c, 8, 77, 0
10, 52215, Note_on_c, 8, 76, 100
10, 52230, Note_on_c, 8, 76, 0
10, 52230, Note_on_c, 8, 77, 100
10, 52275, Note_on_c, 8, 77, 0
10, 52290, Note_on_c, 8, 72, 100
10, 52319, Note_on_c, 8, 72, 0
10, 52320, Note_on_c, 8, 72, 100
10, 52349, Note_on_c, 8, 72, 0
10, 52350, Note_on_c, 8, 74, 100
10, 52439, Note_on_c, 8, 74, 0
10, 52440, Note_on_c, 8, 72, 100
10, 52450, Note_on_c, 8, 72, 0
10, 52450, Note_on_c, 8, 74, 100
10, 52460, Note_on_c, 8, 74, 0
10, 52460, Note_on_c, 8, 72, 100
10, 52470, Note_on_c, 8, 72, 0
10, 52470, Note_on_c, 8, 70, 100
10, 52499, Note_on_c, 8, 70, 0
10, 52500, Note_on_c, 8, 69, 100
10, 52529, Note_on_c, 8, 69, 0
10, 52530, Note_on_c, 8, 70, 100
10, 52559, Note_on_c, 8, 70, 0
10, 52560, Note_on_c, 8, 70, 100
10, 52589, Note_on_c, 8, 70, 0
10, 52590, Note_on_c, 8, 69, 100
10, 52597, Note_on_c, 8, 70, 100
10, 52598, Note_on_c, 8, 69, 0
10, 52605, Note_on_c, 8, 70, 0
10, 52605, Note_on_c, 8, 69, 100
10, 52650, Note_on_c, 8, 69, 0
10, 52650, Note_on_c, 8, 70, 100
10, 52679, Note_on_c, 8, 70, 0
10, 52680, Note_on_c, 8, 72, 100
10, 52739, Note_on_c, 8, 72, 0
10, 52740, Note_on_c, 8, 65, 100
10, 52769, Note_on_c, 8, 65, 0
10, 52800, Note_on_c, 8, 69, 100
10, 52829, Note_on_c, 8, 69, 0
10, 52860, Note_on_c, 8, 72, 100
10, 52889, Note_on_c, 8, 72, 0
10, 52920, Note_on_c, 8, 79, 100
10, 52927, Note_on_c, 8, 77, 100
10, 52928, Note_on_c, 8, 79, 0
10, 52935, Note_on_c, 8, 77, 0
10, 52935, Note_on_c, 8, 79, 100
10, 53010, Note_on_c, 8, 79, 0
10, 53010, Note_on_c, 8, 74, 100
10, 53039, Note_on_c, 8, 74, 0
10, 53040, Note_on_c, 8, 74, 100
10, 53069, Note_on_c, 8, 74, 0
10, 53070, Note_on_c, 8, 75, 100
10, 53159, Note_on_c, 8, 75, 0
10, 53160, Note_on_c, 8, 74, 100
10, 53189, Note_on_c, 8, 74, 0
10, 53190, Note_on_c, 8, 72, 100
10, 53219, Note_on_c, 8, 72, 0
10, 53220, Note_on_c, 8, 71, 100
10, 53249, Note_on_c, 8, 71, 0
10, 53250, Note_on_c, 8, 72, 100
10, 53279, Note_on_c, 8, 72, 0
10, 53280, Note_on_c, 8, 72, 100
10, 53309, Note_on_c, 8, 72, 0
10, 53310, Note_on_c, 8, 71, 100
10, 53317, Note_on_c, 8, 72, 100
10, 53318, Note_on_c, 8, 71, 0
10, 53325, Note_on_c, 8, 72, 0
10, 53325, Note_on_c, 8, 71, 100
10, 53370, Note_on_c, 8, 71, 0
10, 53370, Note_on_c, 8, 72, 100
10, 53399, Note_on_c, 8, 72, 0
10, 53400, Note_on_c, 8, 74, 100
10, 53459, Note_on_c, 8, 74, 0
10, 53460, Note_on_c, 8, 67, 100
10, 53489, Note_on_c, 8, 67, 0
10, 53520, Note_on_c, 8, 71, 100
10, 53549, Note_on_c, 8, 71, 0
10, 53580, Note_on_c, 8, 74, 100
10, 53609, Note_on_c, 8, 74, 0
10, 53640, Note_on_c, 8, 83, 100
10, 53669, Note_on_c, 8, 83, 0
10, 53670, Note_on_c, 8, 84, 100
10, 53699, Note_on_c, 8, 84, 0
10, 53700, Note_on_c, 8, 86, 100
10, 53729, Note_on_c, 8, 86, 0
10, 53730, Note_on_c, 8, 76, 100
10, 53759, Note_on_c, 8, 76, 0
10, 53760, Note_on_c, 8, 76, 100
10, 53789, Note_on_c, 8, 76, 0
10, 53790, Note_on_c, 8, 77, 100
10, 53879, Note_on_c, 8, 77, 0
10, 53880, Note_on_c, 8, 76, 100
10, 53887, Note_on_c, 8, 77, 100
10, 53888, Note_on_c, 8, 76, 0
10, 53895, Note_on_c, 8, 77, 0
10, 53895, Note_on_c, 8, 76, 100
10, 53910, Note_on_c, 8, 76, 0
10, 53910, Note_on_c, 8, 74, 100
10, 53939, Note_on_c, 8, 74, 0
10, 53940, Note_on_c, 8, 76, 100
10, 53969, Note_on_c, 8, 76, 0
10, 53970, Note_on_c, 8, 77, 100
10, 53999, Note_on_c, 8, 77, 0
10, 54000, Note_on_c, 8, 79, 100
10, 54029, Note_on_c, 8, 79, 0
10, 54030, Note_on_c, 8, 71, 100
10, 54059, Note_on_c, 8, 71, 0
10, 54060, Note_on_c, 8, 72, 100
10, 54089, Note_on_c, 8, 72, 0
10, 54090, Note_on_c, 8, 67, 100
10, 54119, Note_on_c, 8, 67, 0
10, 54120, Note_on_c, 8, 70, 100
10, 54239, Note_on_c, 8, 70, 0
10, 54240, Note_on_c, 8, 69, 100
10, 54269, Note_on_c, 8, 69, 0
10, 54270, Note_on_c, 8, 71, 100
10, 54299, Note_on_c, 8, 71, 0
10, 54300, Note_on_c, 8, 72, 100
10, 54329, Note_on_c, 8, 72, 0
10, 54330, Note_on_c, 8, 74, 100
10, 54359, Note_on_c, 8, 74, 0
10, 54360, Note_on_c, 8, 74, 100
10, 54389, Note_on_c, 8, 74, 0
10, 54390, Note_on_c, 8, 75, 100
10, 54449, Note_on_c, 8, 75, 0
10, 54450, Note_on_c, 8, 80, 100
10, 54479, Note_on_c, 8, 80, 0
10, 54480, Note_on_c, 8, 79, 100
10, 54599, Note_on_c, 8, 79, 0
10, 54600, Note_on_c, 8, 72, 100
10, 54629, Note_on_c, 8, 72, 0
10, 54630, Note_on_c, 8, 71, 100
10, 54689, Note_on_c, 8, 71, 0
10, 54690, Note_on_c, 8, 72, 100
10, 54719, Note_on_c, 8, 72, 0
10, 54720, Note_on_c, 8, 72, 100
10, 54809, Note_on_c, 8, 72, 0
10, 54810, Note_on_c, 8, 64, 100
10, 54839, Note_on_c, 8, 64, 0
10, 54840, Note_on_c, 8, 67, 100
10, 54899, Note_on_c, 8, 67, 0
10, 54900, Note_on_c, 8, 60, 100
10, 55019, Note_on_c, 8, 60, 0
10, 55080, Note_on_c, 8, 69, 100
10, 55080, Note_on_c, 8, 72, 100
10, 55110, Note_on_c, 8, 72, 0
10, 55110, Note_on_c, 8, 69, 0
10, 55200, Note_on_c, 8, 70, 100
10, 55200, Note_on_c, 8, 67, 100
10, 55230, Note_on_c, 8, 67, 0
10, 55230, Note_on_c, 8, 70, 0
10, 55260, Note_on_c, 8, 60, 100
10, 55260, Note_on_c, 8, 69, 100
10, 55290, Note_on_c, 8, 69, 0
10, 55290, Note_on_c, 8, 60, 0
10, 55380, Note_on_c, 8, 67, 100
10, 55380, Note_on_c, 8, 76, 100
10, 55410, Note_on_c, 8, 76, 0
10, 55410, Note_on_c, 8, 67, 0
10, 55440, Note_on_c, 8, 72, 100
10, 55440, Note_on_c, 8, 77, 100
10, 55470, Note_on_c, 8, 77, 0
10, 55470, Note_on_c, 8, 72, 0
10, 55560, Note_on_c, 8, 72, 100
10, 55560, Note_on_c, 8, 65, 100
10, 55590, Note_on_c, 8, 65, 0
10, 55590, Note_on_c, 8, 72, 0
10, 55620, Note_on_c, 8, 69, 100
10, 55620, Note_on_c, 8, 60, 100
10, 55650, Note_on_c, 8, 60, 0
10, 55650, Note_on_c, 8, 69, 0
10, 55740, Note_on_c, 8, 65, 100
10, 55740, Note_on_c, 8, 69, 100
10, 55770, Note_on_c, 8, 69, 0
10, 55770, Note_on_c, 8, 65, 0
10, 55800, Note_on_c, 8, 71, 100
10, 55800, Note_on_c, 8, 62, 100
10, 55830, Note_on_c, 8, 62, 0
10, 55830, Note_on_c, 8, 71, 0
10, 55920, Note_on_c, 8, 71, 100
10, 55920, Note_on_c, 8, 79, 100
10, 55950, Note_on_c, 8, 79, 0
10, 55950, Note_on_c, 8, 71, 0
10, 55980, Note_on_c, 8, 76, 100
10, 55980, Note_on_c, 8, 72, 100
10, 56010, Note_on_c, 8, 72, 0
10, 56010, Note_on_c, 8, 76, 0
10, 56100, Note_on_c, 8, 62, 100
10, 56100, Note_on_c, 8, 69, 100
10, 56130, Note_on_c, 8, 69, 0
10, 56130, Note_on_c, 8, 62, 0
10, 56160, Note_on_c, 8, 62, 100
10, 56160, Note_on_c, 8, 67, 100
10, 56190, Note_on_c, 8, 67, 0
10, 56190, Note_on_c, 8, 62, 0
10, 56280, Note_on_c, 8, 67, 100
10, 56280, Note_on_c, 8, 74, 100
10, 56310, Note_on_c, 8, 74, 0
10, 56310, Note_on_c, 8, 67, 0
10, 56340, Note_on_c, 8, 71, 100
10, 56340, Note_on_c, 8, 79, 100
10, 56370, Note_on_c, 8, 79, 0
10, 56370, Note_on_c, 8, 71, 0
10, 56460, Note_on_c, 8, 71, 100
10, 56460, Note_on_c, 8, 67, 100
10, 56490, Note_on_c, 8, 67, 0
10, 56490, Note_on_c, 8, 71, 0
10, 56520, Note_on_c, 8, 74, 100
10, 56520, Note_on_c, 8, 71, 100
10, 56550, Note_on_c, 8, 71, 0
10, 56550, Note_on_c, 8, 74, 0
10, 56640, Note_on_c, 8, 64, 100
10, 56640, Note_on_c, 8, 71, 100
10, 56670, Note_on_c, 8, 71, 0
10, 56670, Note_on_c, 8, 64, 0
10, 56700, Note_on_c, 8, 69, 100
10, 56700, Note_on_c, 8, 64, 100
10, 56730, Note_on_c, 8, 64, 0
10, 56730, Note_on_c, 8, 69, 0
10, 56820, Note_on_c, 8, 72, 100
10, 56820, Note_on_c, 8, 69, 100
10, 56850, Note_on_c, 8, 69, 0
10, 56850, Note_on_c, 8, 72, 0
10, 56880, Note_on_c, 8, 70, 100
10, 56880, Note_on_c, 8, 72, 100
10, 56910, Note_on_c, 8, 72, 0
10, 56910, Note_on_c, 8, 70, 0
10, 57000, Note_on_c, 8, 70, 100
10, 57000, Note_on_c, 8, 67, 100
10, 57030, Note_on_c, 8, 67, 0
10, 57030, Note_on_c, 8, 70, 0
10, 57060, Note_on_c, 8, 69, 100
10, 57060, Note_on_c, 8, 62, 100
10, 57090, Note_on_c, 8, 62, 0
10, 57090, Note_on_c, 8, 69, 0
10, 57180, Note_on_c, 8, 72, 100
10, 57180, Note_on_c, 8, 75, 100
10, 57210, Note_on_c, 8, 75, 0
10, 57210, Note_on_c, 8, 72, 0
10, 57240, Note_on_c, 8, 72, 100
10, 57240, Note_on_c, 8, 75, 100
10, 57270, Note_on_c, 8, 75, 0
10, 57270, Note_on_c, 8, 72, 0
10, 57360, Note_on_c, 8, 69, 100
10, 57360, Note_on_c, 8, 72, 100
10, 57390, Note_on_c, 8, 72, 0
10, 57390, Note_on_c, 8, 69, 0
10, 57420, Note_on_c, 8, 62, 100
10, 57420, Note_on_c, 8, 71, 100
10, 57450, Note_on_c, 8, 71, 0
10, 57450, Note_on_c, 8, 62, 0
10, 57540, Note_on_c, 8, 62, 100
10, 57540, Note_on_c, 8, 67, 100
10, 57570, Note_on_c, 8, 67, 0
10, 57570, Note_on_c, 8, 62, 0
10, 57600, Note_on_c, 8, 60, 100
10, 57600, Note_on_c, 8, 64, 100
10, 57630, Note_on_c, 8, 64, 0
10, 57630, Note_on_c, 8, 60, 0
10, 57720, Note_on_c, 8, 60, 100
10, 57720, Note_on_c, 8, 67, 100
10, 57750, Note_on_c, 8, 67, 0
10, 57750, Note_on_c, 8, 60, 0
10, 57780, Note_on_c, 8, 64, 100
10, 57780, Note_on_c, 8, 72, 100
10, 57899, Note_on_c, 8, 72, 0
10, 57899, Note_on_c, 8, 64, 0
10, 57960, Note_on_c, 8, 65, 100
10, 58049, Note_on_c, 8, 65, 0
10, 58050, Note_on_c, 8, 69, 100
10, 58080, Note_on_c, 8, 69, 0
10, 58080, Note_on_c, 8, 72, 100
10, 58200, Note_on_c, 8, 72, 0
10, 58200, Note_on_c, 8, 75, 100
10, 58260, Note_on_c, 8, 75, 0
10, 58260, Note_on_c, 8, 74, 100
10, 58270, Note_on_c, 8, 74, 0
10, 58270, Note_on_c, 8, 75, 100
10, 58280, Note_on_c, 8, 75, 0
10, 58280, Note_on_c, 8, 74, 100
10, 58290, Note_on_c, 8, 74, 0
10, 58290, Note_on_c, 8, 75, 100
10, 58320, Note_on_c, 8, 75, 0
10, 58320, Note_on_c, 8, 75, 100
10, 58350, Note_on_c, 8, 75, 0
10, 58350, Note_on_c, 8, 74, 100
10, 58410, Note_on_c, 8, 74, 0
10, 58410, Note_on_c, 8, 78, 100
10, 58440, Note_on_c, 8, 78, 0
10, 58440, Note_on_c, 8, 81, 100
10, 58560, Note_on_c, 8, 81, 0
10, 58560, Note_on_c, 8, 82, 100
10, 58590, Note_on_c, 8, 82, 0
10, 58590, Note_on_c, 8, 81, 100
10, 58620, Note_on_c, 8, 81, 0
10, 58620, Note_on_c, 8, 79, 100
10, 58650, Note_on_c, 8, 79, 0
10, 58650, Note_on_c, 8, 81, 100
10, 58680, Note_on_c, 8, 81, 0
10, 58680, Note_on_c, 8, 81, 100
10, 58710, Note_on_c, 8, 81, 0
10, 58710, Note_on_c, 8, 82, 100
10, 58770, Note_on_c, 8, 82, 0
10, 58770, Note_on_c, 8, 79, 100
10, 58800, Note_on_c, 8, 79, 0
10, 58800, Note_on_c, 8, 77, 100
10, 58830, Note_on_c, 8, 77, 0
10, 58860, Note_on_c, 8, 77, 100
10, 58890, Note_on_c, 8, 77, 0
10, 58890, Note_on_c, 8, 75, 100
10, 58920, Note_on_c, 8, 75, 0
10, 58920, Note_on_c, 8, 81, 100
10, 58950, Note_on_c, 8, 81, 0
10, 58950, Note_on_c, 8, 82, 100
10, 58965, Note_on_c, 8, 82, 0
10, 58965, Note_on_c, 8, 84, 100
10, 58980, Note_on_c, 8, 84, 0
10, 58980, Note_on_c, 8, 82, 100
10, 59010, Note_on_c, 8, 82, 0
10, 59010, Note_on_c, 8, 81, 100
10, 59040, Note_on_c, 8, 81, 0
10, 59040, Note_on_c, 8, 79, 100
10, 59070, Note_on_c, 8, 79, 0
10, 59070, Note_on_c, 8, 78, 100
10, 59130, Note_on_c, 8, 78, 0
10, 59130, Note_on_c, 8, 81, 100
10, 59160, Note_on_c, 8, 81, 0
10, 59160, Note_on_c, 8, 75, 100
10, 59280, Note_on_c, 8, 75, 0
10, 59280, Note_on_c, 8, 74, 100
10, 59310, Note_on_c, 8, 74, 0
10, 59310, Note_on_c, 8, 72, 100
10, 59340, Note_on_c, 8, 72, 0
10, 59340, Note_on_c, 8, 70, 100
10, 59370, Note_on_c, 8, 70, 0
10, 59370, Note_on_c, 8, 69, 100
10, 59400, Note_on_c, 8, 69, 0
10, 59400, Note_on_c, 8, 69, 100
10, 59430, Note_on_c, 8, 69, 0
10, 59430, Note_on_c, 8, 70, 100
10, 59460, Note_on_c, 8, 70, 0
10, 59490, Note_on_c, 8, 74, 100
10, 59520, Note_on_c, 8, 74, 0
10, 59520, Note_on_c, 8, 79, 100
10, 59610, Note_on_c, 8, 79, 0
10, 59610, Note_on_c, 8, 76, 100
10, 59640, Note_on_c, 8, 76, 0
10, 59640, Note_on_c, 8, 77, 100
10, 59670, Note_on_c, 8, 77, 0
10, 59670, Note_on_c, 8, 79, 100
10, 59700, Note_on_c, 8, 79, 0
10, 59700, Note_on_c, 8, 81, 100
10, 59730, Note_on_c, 8, 81, 0
10, 59730, Note_on_c, 8, 82, 100
10, 59760, Note_on_c, 8, 82, 0
10, 59760, Note_on_c, 8, 74, 100
10, 59790, Note_on_c, 8, 74, 0
10, 59790, Note_on_c, 8, 73, 100
10, 59850, Note_on_c, 8, 73, 0
10, 59850, Note_on_c, 8, 76, 100
10, 59880, Note_on_c, 8, 76, 0
10, 59880, Note_on_c, 8, 67, 100
10, 59970, Note_on_c, 8, 67, 0
10, 59970, Note_on_c, 8, 70, 100
10, 60000, Note_on_c, 8, 70, 0
10, 60000, Note_on_c, 8, 69, 100
10, 60030, Note_on_c, 8, 69, 0
10, 60030, Note_on_c, 8, 67, 100
10, 60060, Note_on_c, 8, 67, 0
10, 60060, Note_on_c, 8, 65, 100
10, 60090, Note_on_c, 8, 65, 0
10, 60090, Note_on_c, 8, 64, 100
10, 60120, Note_on_c, 8, 64, 0
10, 60120, Note_on_c, 8, 64, 100
10, 60150, Note_on_c, 8, 64, 0
10, 60150, Note_on_c, 8, 65, 100
10, 60210, Note_on_c, 8, 65, 0
10, 60210, Note_on_c, 8, 69, 100
10, 60240, Note_on_c, 8, 69, 0
10, 60240, Note_on_c, 8, 74, 100
10, 60330, Note_on_c, 8, 74, 0
10, 60330, Note_on_c, 8, 73, 100
10, 60360, Note_on_c, 8, 73, 0
10, 60360, Note_on_c, 8, 74, 100
10, 60390, Note_on_c, 8, 74, 0
10, 60390, Note_on_c, 8, 76, 100
10, 60405, Note_on_c, 8, 76, 0
10, 60405, Note_on_c, 8, 77, 100
10, 60420, Note_on_c, 8, 77, 0
10, 60420, Note_on_c, 8, 76, 100
10, 60450, Note_on_c, 8, 76, 0
10, 60450, Note_on_c, 8, 74, 100
10, 60480, Note_on_c, 8, 74, 0
10, 60480, Note_on_c, 8, 74, 100
10, 60570, Note_on_c, 8, 74, 0
10, 60575, Note_on_c, 8, 65, 100
10, 60605, Note_on_c, 8, 65, 0
10, 60605, Note_on_c, 8, 69, 100
10, 60665, Note_on_c, 8, 69, 0
10, 60665, Note_on_c, 8, 62, 100
10, 60725, Note_on_c, 8, 62, 0
10, 60840, Note_on_c, 8, 67, 100
10, 60847, Note_on_c, 8, 65, 100
10, 60848, Note_on_c, 8, 67, 0
10, 60855, Note_on_c, 8, 65, 0
10, 60855, Note_on_c, 8, 67, 100
10, 60930, Note_on_c, 8, 67, 0
10, 60930, Note_on_c, 8, 71, 100
10, 60959, Note_on_c, 8, 71, 0
10, 60960, Note_on_c, 8, 74, 100
10, 61079, Note_on_c, 8, 74, 0
10, 61080, Note_on_c, 8, 77, 100
10, 61139, Note_on_c, 8, 77, 0
10, 61140, Note_on_c, 8, 76, 100
10, 61147, Note_on_c, 8, 77, 100
10, 61148, Note_on_c, 8, 76, 0
10, 61155, Note_on_c, 8, 77, 0
10, 61155, Note_on_c, 8, 76, 100
10, 61170, Note_on_c, 8, 76, 0
10, 61170, Note_on_c, 8, 77, 100
10, 61199, Note_on_c, 8, 77, 0
10, 61200, Note_on_c, 8, 77, 100
10, 61229, Note_on_c, 8, 77, 0
10, 61230, Note_on_c, 8, 76, 100
10, 61289, Note_on_c, 8, 76, 0
10, 61290, Note_on_c, 8, 79, 100
10, 61319, Note_on_c, 8, 79, 0
10, 61320, Note_on_c, 8, 84, 100
10, 61379, Note_on_c, 8, 84, 0
10, 61380, Note_on_c, 8, 72, 100
10, 61409, Note_on_c, 8, 72, 0
10, 61410, Note_on_c, 8, 74, 100
10, 61439, Note_on_c, 8, 74, 0
10, 61440, Note_on_c, 8, 76, 100
10, 61450, Note_on_c, 8, 76, 0
10, 61450, Note_on_c, 8, 74, 100
10, 61460, Note_on_c, 8, 74, 0
10, 61460, Note_on_c, 8, 76, 100
10, 61470, Note_on_c, 8, 76, 0
10, 61470, Note_on_c, 8, 74, 100
10, 61477, Note_on_c, 8, 76, 100
10, 61478, Note_on_c, 8, 74, 0
10, 61485, Note_on_c, 8, 76, 0
10, 61485, Note_on_c, 8, 74, 100
10, 61492, Note_on_c, 8, 76, 100
10, 61493, Note_on_c, 8, 74, 0
10, 61500, Note_on_c, 8, 76, 0
10, 61500, Note_on_c, 8, 74, 100
10, 61510, Note_on_c, 8, 74, 0
10, 61510, Note_on_c, 8, 76, 100
10, 61520, Note_on_c, 8, 76, 0
10, 61520, Note_on_c, 8, 74, 100
10, 61530, Note_on_c, 8, 74, 0
10, 61530, Note_on_c, 8, 72, 100
10, 61544, Note_on_c, 8, 72, 0
10, 61545, Note_on_c, 8, 74, 100
10, 61559, Note_on_c, 8, 74, 0
10, 61560, Note_on_c, 8, 74, 100
10, 61589, Note_on_c, 8, 74, 0
10, 61590, Note_on_c, 8, 75, 100
10, 61649, Note_on_c, 8, 75, 0
10, 61650, Note_on_c, 8, 79, 100
10, 61679, Note_on_c, 8, 79, 0
10, 61680, Note_on_c, 8, 77, 100
10, 61799, Note_on_c, 8, 77, 0
10, 61800, Note_on_c, 8, 72, 100
10, 61829, Note_on_c, 8, 72, 0
10, 61830, Note_on_c, 8, 75, 100
10, 61859, Note_on_c, 8, 75, 0
10, 61860, Note_on_c, 8, 74, 100
10, 61889, Note_on_c, 8, 74, 0
10, 61890, Note_on_c, 8, 75, 100
10, 61919, Note_on_c, 8, 75, 0
10, 61920, Note_on_c, 8, 75, 100
10, 61949, Note_on_c, 8, 75, 0
10, 61950, Note_on_c, 8, 74, 100
10, 61957, Note_on_c, 8, 72, 100
10, 61958, Note_on_c, 8, 74, 0
10, 61965, Note_on_c, 8, 72, 0
10, 61965, Note_on_c, 8, 74, 100
10, 62010, Note_on_c, 8, 74, 0
10, 62010, Note_on_c, 8, 75, 100
10, 62039, Note_on_c, 8, 75, 0
10, 62040, Note_on_c, 8, 77, 100
10, 62099, Note_on_c, 8, 77, 0
10, 62100, Note_on_c, 8, 75, 100
10, 62129, Note_on_c, 8, 75, 0
10, 62130, Note_on_c, 8, 74, 100
10, 62159, Note_on_c, 8, 74, 0
10, 62160, Note_on_c, 8, 72, 100
10, 62189, Note_on_c, 8, 72, 0
10, 62190, Note_on_c, 8, 70, 100
10, 62219, Note_on_c, 8, 70, 0
10, 62220, Note_on_c, 8, 69, 100
10, 62249, Note_on_c, 8, 69, 0
10, 62250, Note_on_c, 8, 67, 100
10, 62279, Note_on_c, 8, 67, 0
10, 62280, Note_on_c, 8, 69, 100
10, 62309, Note_on_c, 8, 69, 0
10, 62310, Note_on_c, 8, 70, 100
10, 62369, Note_on_c, 8, 70, 0
10, 62370, Note_on_c, 8, 72, 100
10, 62399, Note_on_c, 8, 72, 0
10, 62400, Note_on_c, 8, 70, 100
10, 62489, Note_on_c, 8, 70, 0
10, 62490, Note_on_c, 8, 79, 100
10, 62519, Note_on_c, 8, 79, 0
10, 62520, Note_on_c, 8, 77, 100
10, 62549, Note_on_c, 8, 77, 0
10, 62550, Note_on_c, 8, 76, 100
10, 62579, Note_on_c, 8, 76, 0
10, 62580, Note_on_c, 8, 74, 100
10, 62609, Note_on_c, 8, 74, 0
10, 62610, Note_on_c, 8, 72, 100
10, 62639, Note_on_c, 8, 72, 0
10, 62640, Note_on_c, 8, 70, 100
10, 62669, Note_on_c, 8, 70, 0
10, 62670, Note_on_c, 8, 69, 100
10, 62729, Note_on_c, 8, 69, 0
10, 62730, Note_on_c, 8, 72, 100
10, 62759, Note_on_c, 8, 72, 0
10, 62760, Note_on_c, 8, 77, 100
10, 62849, Note_on_c, 8, 77, 0
10, 62850, Note_on_c, 8, 79, 100
10, 62879, Note_on_c, 8, 79, 0
10, 62880, Note_on_c, 8, 81, 100
10, 62887, Note_on_c, 8, 79, 100
10, 62888, Note_on_c, 8, 81, 0
10, 62895, Note_on_c, 8, 79, 0
10, 62895, Note_on_c, 8, 81, 100
10, 62902, Note_on_c, 8, 79, 100
10, 62903, Note_on_c, 8, 81, 0
10, 62910, Note_on_c, 8, 79, 0
10, 62910, Note_on_c, 8, 77, 100
10, 62924, Note_on_c, 8, 77, 0
10, 62925, Note_on_c, 8, 79, 100
10, 62939, Note_on_c, 8, 79, 0
10, 62940, Note_on_c, 8, 81, 100
10, 63029, Note_on_c, 8, 81, 0
10, 63030, Note_on_c, 8, 79, 100
10, 63059, Note_on_c, 8, 79, 0
10, 63060, Note_on_c, 8, 77, 100
10, 63089, Note_on_c, 8, 77, 0
10, 63090, Note_on_c, 8, 76, 100
10, 63119, Note_on_c, 8, 76, 0
10, 63120, Note_on_c, 8, 77, 100
10, 63149, Note_on_c, 8, 77, 0
10, 63150, Note_on_c, 8, 74, 100
10, 63179, Note_on_c, 8, 74, 0
10, 63180, Note_on_c, 8, 67, 100
10, 63269, Note_on_c, 8, 67, 0
10, 63270, Note_on_c, 8, 81, 100
10, 63299, Note_on_c, 8, 81, 0
10, 63300, Note_on_c, 8, 79, 100
10, 63359, Note_on_c, 8, 79, 0
10, 63360, Note_on_c, 8, 77, 100
10, 63389, Note_on_c, 8, 77, 0
10, 63390, Note_on_c, 8, 76, 100
10, 63449, Note_on_c, 8, 76, 0
10, 63450, Note_on_c, 8, 74, 100
10, 63479, Note_on_c, 8, 74, 0
10, 63480, Note_on_c, 8, 72, 100
10, 63569, Note_on_c, 8, 72, 0
10, 63570, Note_on_c, 8, 74, 100
10, 63599, Note_on_c, 8, 74, 0
10, 63600, Note_on_c, 8, 76, 100
10, 63629, Note_on_c, 8, 76, 0
10, 63630, Note_on_c, 8, 77, 100
10, 63659, Note_on_c, 8, 77, 0
10, 63660, Note_on_c, 8, 79, 100
10, 63689, Note_on_c, 8, 79, 0
10, 63690, Note_on_c, 8, 81, 100
10, 63719, Note_on_c, 8, 81, 0
10, 63720, Note_on_c, 8, 81, 100
10, 63749, Note_on_c, 8, 81, 0
10, 63750, Note_on_c, 8, 82, 100
10, 63809, Note_on_c, 8, 82, 0
10, 63810, Note_on_c, 8, 79, 100
10, 63839, Note_on_c, 8, 79, 0
10, 63840, Note_on_c, 8, 79, 100
10, 63869, Note_on_c, 8, 79, 0
10, 63870, Note_on_c, 8, 81, 100
10, 63959, Note_on_c, 8, 81, 0
10, 63960, Note_on_c, 8, 79, 100
10, 63967, Note_on_c, 8, 81, 100
10, 63968, Note_on_c, 8, 79, 0
10, 63975, Note_on_c, 8, 81, 0
10, 63975, Note_on_c, 8, 79, 100
10, 63990, Note_on_c, 8, 79, 0
10, 63990, Note_on_c, 8, 77, 100
10, 64019, Note_on_c, 8, 77, 0
10, 64020, Note_on_c, 8, 76, 100
10, 64049, Note_on_c, 8, 76, 0
10, 64050, Note_on_c, 8, 77, 100
10, 64079, Note_on_c, 8, 77, 0
10, 64080, Note_on_c, 8, 77, 100
10, 64109, Note_on_c, 8, 77, 0
10, 64110, Note_on_c, 8, 76, 100
10, 64169, Note_on_c, 8, 76, 0
10, 64170, Note_on_c, 8, 77, 100
10, 64199, Note_on_c, 8, 77, 0
10, 64200, Note_on_c, 8, 79, 100
10, 64259, Note_on_c, 8, 79, 0
10, 64260, Note_on_c, 8, 72, 100
10, 64289, Note_on_c, 8, 72, 0
10, 64320, Note_on_c, 8, 76, 100
10, 64349, Note_on_c, 8, 76, 0
10, 64380, Note_on_c, 8, 79, 100
10, 64409, Note_on_c, 8, 79, 0
10, 64440, Note_on_c, 8, 84, 100
10, 64529, Note_on_c, 8, 84, 0
10, 64530, Note_on_c, 8, 81, 100
10, 64559, Note_on_c, 8, 81, 0
10, 64560, Note_on_c, 8, 81, 100
10, 64589, Note_on_c, 8, 81, 0
10, 64590, Note_on_c, 8, 82, 100
10, 64650, Note_on_c, 8, 82, 0
10, 64650, Note_on_c, 8, 79, 100
10, 64679, Note_on_c, 8, 79, 0
10, 64680, Note_on_c, 8, 80, 100
10, 64709, Note_on_c, 8, 80, 0
10, 64710, Note_on_c, 8, 77, 100
10, 64739, Note_on_c, 8, 77, 0
10, 64740, Note_on_c, 8, 77, 100
10, 64769, Note_on_c, 8, 77, 0
10, 64770, Note_on_c, 8, 79, 100
10, 64829, Note_on_c, 8, 79, 0
10, 64830, Note_on_c, 8, 76, 100
10, 64859, Note_on_c, 8, 76, 0
10, 64860, Note_on_c, 8, 77, 100
10, 64889, Note_on_c, 8, 77, 0
10, 64890, Note_on_c, 8, 72, 100
10, 64919, Note_on_c, 8, 72, 0
10, 64920, Note_on_c, 8, 73, 100
10, 64949, Note_on_c, 8, 73, 0
10, 64950, Note_on_c, 8, 71, 100
10, 64979, Note_on_c, 8, 71, 0
10, 64980, Note_on_c, 8, 72, 100
10, 65009, Note_on_c, 8, 72, 0
10, 65010, Note_on_c, 8, 68, 100
10, 65039, Note_on_c, 8, 68, 0
10, 65040, Note_on_c, 8, 70, 100
10, 65069, Note_on_c, 8, 70, 0
10, 65070, Note_on_c, 8, 67, 100
10, 65099, Note_on_c, 8, 67, 0
10, 65100, Note_on_c, 8, 68, 100
10, 65129, Note_on_c, 8, 68, 0
10, 65130, Note_on_c, 8, 65, 100
10, 65159, Note_on_c, 8, 65, 0
10, 65160, Note_on_c, 8, 66, 100
10, 65189, Note_on_c, 8, 66, 0
10, 65190, Note_on_c, 8, 64, 100
10, 65219, Note_on_c, 8, 64, 0
10, 65220, Note_on_c, 8, 65, 100
10, 65249, Note_on_c, 8, 65, 0
10, 65250, Note_on_c, 8, 61, 100
10, 65279, Note_on_c, 8, 61, 0
10, 65280, Note_on_c, 8, 60, 100
10, 65309, Note_on_c, 8, 60, 0
10, 65310, Note_on_c, 8, 59, 100
10, 65339, Note_on_c, 8, 59, 0
10, 65340, Note_on_c, 8, 60, 100
10, 65369, Note_on_c, 8, 60, 0
10, 65370, Note_on_c, 8, 80, 100
10, 65399, Note_on_c, 8, 80, 0
10, 65400, Note_on_c, 8, 77, 100
10, 65429, Note_on_c, 8, 77, 0
10, 65430, Note_on_c, 8, 76, 100
10, 65437, Note_on_c, 8, 77, 100
10, 65438, Note_on_c, 8, 76, 0
10, 65445, Note_on_c, 8, 77, 0
10, 65445, Note_on_c, 8, 76, 100
10, 65452, Note_on_c, 8, 77, 100
10, 65453, Note_on_c, 8, 76, 0
10, 65460, Note_on_c, 8, 77, 0
10, 65460, Note_on_c, 8, 76, 100
10, 65467, Note_on_c, 8, 77, 100
10, 65468, Note_on_c, 8, 76, 0
10, 65475, Note_on_c, 8, 77, 0
10, 65475, Note_on_c, 8, 76, 100
10, 65483, Note_on_c, 8, 76, 0
10, 65490, Note_on_c, 8, 77, 100
10, 65519, Note_on_c, 8, 77, 0
10, 65520, Note_on_c, 8, 77, 100
10, 65549, Note_on_c, 8, 77, 0
10, 65550, Note_on_c, 8, 76, 100
10, 65579, Note_on_c, 8, 76, 0
10, 65580, Note_on_c, 8, 77, 100
10, 65609, Note_on_c, 8, 77, 0
10, 65610, Note_on_c, 8, 80, 100
10, 65639, Note_on_c, 8, 80, 0
10, 65640, Note_on_c, 8, 79, 100
10, 65669, Note_on_c, 8, 79, 0
10, 65670, Note_on_c, 8, 76, 100
10, 65699, Note_on_c, 8, 76, 0
10, 65700, Note_on_c, 8, 77, 100
10, 65729, Note_on_c, 8, 77, 0
10, 65730, Note_on_c, 8, 74, 100
10, 65759, Note_on_c, 8, 74, 0
10, 65760, Note_on_c, 8, 72, 100
10, 65789, Note_on_c, 8, 72, 0
10, 65790, Note_on_c, 8, 71, 100
10, 65849, Note_on_c, 8, 71, 0
10, 65850, Note_on_c, 8, 72, 100
10, 65879, Note_on_c, 8, 72, 0
10, 65880, Note_on_c, 8, 82, 100
10, 65969, Note_on_c, 8, 82, 0
10, 65970, Note_on_c, 8, 79, 100
10, 65999, Note_on_c, 8, 79, 0
10, 66000, Note_on_c, 8, 81, 100
10, 66089, Note_on_c, 8, 81, 0
10, 66090, Note_on_c, 8, 79, 100
10, 66119, Note_on_c, 8, 79, 0
10, 66120, Note_on_c, 8, 77, 100
10, 66130, Note_on_c, 8, 77, 0
10, 66130, Note_on_c, 8, 76, 100
10, 66140, Note_on_c, 8, 76, 0
10, 66140, Note_on_c, 8, 77, 100
10, 66150, Note_on_c, 8, 77, 0
10, 66150, Note_on_c, 8, 76, 100
10, 66157, Note_on_c, 8, 77, 100
10, 66158, Note_on_c, 8, 76, 0
10, 66165, Note_on_c, 8, 77, 0
10, 66165, Note_on_c, 8, 76, 100
10, 66172, Note_on_c, 8, 77, 100
10, 66173, Note_on_c, 8, 76, 0
10, 66180, Note_on_c, 8, 77, 0
10, 66180, Note_on_c, 8, 76, 100
10, 66190, Note_on_c, 8, 76, 0
10, 66190, Note_on_c, 8, 77, 100
10, 66200, Note_on_c, 8, 77, 0
10, 66200, Note_on_c, 8, 76, 100
10, 66210, Note_on_c, 8, 76, 0
10, 66210, Note_on_c, 8, 77, 100
10, 66239, Note_on_c, 8, 77, 0
10, 66240, Note_on_c, 8, 77, 100
10, 66247, Note_on_c, 8, 76, 100
10, 66248, Note_on_c, 8, 77, 0
10, 66255, Note_on_c, 8, 76, 0
10, 66255, Note_on_c, 8, 77, 100
10, 66330, Note_on_c, 8, 77, 0
10, 66330, Note_on_c, 8, 69, 100
10, 66359, Note_on_c, 8, 69, 0
10, 66360, Note_on_c, 8, 72, 100
10, 66419, Note_on_c, 8, 72, 0
10, 66420, Note_on_c, 8, 65, 100
10, 66449, Note_on_c, 8, 65, 0
10, 66600, Note_on_c, 8, 60, 100
10, 66600, Note_on_c, 8, 65, 100
10, 66659, Note_on_c, 8, 65, 0
10, 66659, Note_on_c, 8, 60, 0
10, 66720, Note_on_c, 8, 60, 100
10, 66720, Note_on_c, 8, 65, 100
10, 66779, Note_on_c, 8, 65, 0
10, 66779, Note_on_c, 8, 60, 0
10, 66780, Note_on_c, 8, 67, 100
10, 66780, Note_on_c, 8, 70, 100
10, 66839, Note_on_c, 8, 70, 0
10, 66839, Note_on_c, 8, 67, 0
10, 66900, Note_on_c, 8, 60, 100
10, 66900, Note_on_c, 8, 69, 100
10, 66959, Note_on_c, 8, 69, 0
10, 66959, Note_on_c, 8, 60, 0
10, 66960, Note_on_c, 8, 69, 100
10, 66960, Note_on_c, 8, 62, 100
10, 67019, Note_on_c, 8, 62, 0
10, 67019, Note_on_c, 8, 69, 0
10, 67080, Note_on_c, 8, 62, 100
10, 67080, Note_on_c, 8, 69, 100
10, 67139, Note_on_c, 8, 69, 0
10, 67139, Note_on_c, 8, 62, 0
10, 67140, Note_on_c, 8, 66, 100
10, 67140, Note_on_c, 8, 57, 100
10, 67199, Note_on_c, 8, 57, 0
10, 67199, Note_on_c, 8, 66, 0
10, 67260, Note_on_c, 8, 65, 100
10, 67260, Note_on_c, 8, 62, 100
10, 67319, Note_on_c, 8, 62, 0
10, 67319, Note_on_c, 8, 65, 0
10, 67320, Note_on_c, 8, 67, 100
10, 67320, Note_on_c, 8, 62, 100
10, 67379, Note_on_c, 8, 62, 0
10, 67379, Note_on_c, 8, 67, 0
10, 67440, Note_on_c, 8, 62, 100
10, 67440, Note_on_c, 8, 70, 100
10, 67499, Note_on_c, 8, 70, 0
10, 67499, Note_on_c, 8, 62, 0
10, 67500, Note_on_c, 8, 60, 100
10, 67500, Note_on_c, 8, 67, 100
10, 67559, Note_on_c, 8, 67, 0
10, 67559, Note_on_c, 8, 60, 0
10, 67620, Note_on_c, 8, 63, 100
10, 67620, Note_on_c, 8, 72, 100
10, 67679, Note_on_c, 8, 72, 0
10, 67679, Note_on_c, 8, 63, 0
10, 67680, Note_on_c, 8, 62, 100
10, 67680, Note_on_c, 8, 69, 100
10, 67739, Note_on_c, 8, 69, 0
10, 67739, Note_on_c, 8, 62, 0
10, 67800, Note_on_c, 8, 66, 100
10, 67800, Note_on_c, 8, 69, 100
10, 67859, Note_on_c, 8, 69, 0
10, 67859, Note_on_c, 8, 66, 0
10, 67860, Note_on_c, 8, 74, 100
10, 67860, Note_on_c, 8, 69, 100
10, 67919, Note_on_c, 8, 69, 0
10, 67919, Note_on_c, 8, 74, 0
10, 67980, Note_on_c, 8, 62, 100
10, 67980, Note_on_c, 8, 69, 100
10, 68039, Note_on_c, 8, 69, 0
10, 68039, Note_on_c, 8, 62, 0
10, 68040, Note_on_c, 8, 62, 100
10, 68040, Note_on_c, 8, 67, 100
10, 68099, Note_on_c, 8, 67, 0
10, 68099, Note_on_c, 8, 62, 0
10, 68160, Note_on_c, 8, 67, 100
10, 68160, Note_on_c, 8, 70, 100
10, 68219, Note_on_c, 8, 70, 0
10, 68219, Note_on_c, 8, 67, 0
10, 68220, Note_on_c, 8, 67, 100
10, 68220, Note_on_c, 8, 74, 100
10, 68279, Note_on_c, 8, 74, 0
10, 68279, Note_on_c, 8, 67, 0
10, 68340, Note_on_c, 8, 67, 100
10, 68340, Note_on_c, 8, 62, 100
10, 68399, Note_on_c, 8, 62, 0
10, 68399, Note_on_c, 8, 67, 0
10, 68400, Note_on_c, 8, 64, 100
10, 68400, Note_on_c, 8, 69, 100
10, 68459, Note_on_c, 8, 69, 0
10, 68459, Note_on_c, 8, 64, 0
10, 68520, Note_on_c, 8, 73, 100
10, 68520, Note_on_c, 8, 64, 100
10, 68579, Note_on_c, 8, 64, 0
10, 68579, Note_on_c, 8, 73, 0
10, 68580, Note_on_c, 8, 64, 100
10, 68580, Note_on_c, 8, 69, 100
10, 68639, Note_on_c, 8, 69, 0
10, 68639, Note_on_c, 8, 64, 0
10, 68700, Note_on_c, 8, 76, 100
10, 68700, Note_on_c, 8, 70, 100
10, 68759, Note_on_c, 8, 70, 0
10, 68759, Note_on_c, 8, 76, 0
10, 68760, Note_on_c, 8, 74, 100
10, 68760, Note_on_c, 8, 69, 100
10, 68819, Note_on_c, 8, 69, 0
10, 68819, Note_on_c, 8, 74, 0
10, 68880, Note_on_c, 8, 69, 100
10, 68880, Note_on_c, 8, 77, 100
10, 68939, Note_on_c, 8, 77, 0
10, 68939, Note_on_c, 8, 69, 0
10, 68940, Note_on_c, 8, 69, 100
10, 68940, Note_on_c, 8, 76, 100
10, 68999, Note_on_c, 8, 76, 0
10, 68999, Note_on_c, 8, 69, 0
10, 69060, Note_on_c, 8, 79, 100
10, 69060, Note_on_c, 8, 69, 100
10, 69119, Note_on_c, 8, 69, 0
10, 69119, Note_on_c, 8, 79, 0
10, 69120, Note_on_c, 8, 77, 100
10, 69120, Note_on_c, 8, 69, 100
10, 69179, Note_on_c, 8, 69, 0
10, 69179, Note_on_c, 8, 77, 0
10, 69240, Note_on_c, 8, 77, 100
10, 69240, Note_on_c, 8, 81, 100
10, 69299, Note_on_c, 8, 81, 0
10, 69299, Note_on_c, 8, 77, 0
10, 69300, Note_on_c, 8, 81, 100
10, 69300, Note_on_c, 8, 86, 100
10, 69419, Note_on_c, 8, 86, 0
10, 69419, Note_on_c, 8, 81, 0
10, 69480, Note_on_c, 8, 74, 100
10, 69480, Note_on_c, 8, 79, 100
10, 69539, Note_on_c, 8, 79, 0
10, 69539, Note_on_c, 8, 74, 0
10, 69600, Note_on_c, 8, 74, 100
10, 69600, Note_on_c, 8, 67, 100
10, 69659, Note_on_c, 8, 67, 0
10, 69659, Note_on_c, 8, 74, 0
10, 69660, Note_on_c, 8, 62, 100
10, 69660, Note_on_c, 8, 67, 100
10, 69719, Note_on_c, 8, 67, 0
10, 69719, Note_on_c, 8, 62, 0
10, 69780, Note_on_c, 8, 67, 100
10, 69780, Note_on_c, 8, 74, 100
10, 69839, Note_on_c, 8, 74, 0
10, 69839, Note_on_c, 8, 67, 0
10, 69840, Note_on_c, 8, 67, 100
10, 69840, Note_on_c, 8, 72, 100
10, 69899, Note_on_c, 8, 72, 0
10, 69899, Note_on_c, 8, 67, 0
10, 69960, Note_on_c, 8, 67, 100
10, 69960, Note_on_c, 8, 76, 100
10, 70019, Note_on_c, 8, 76, 0
10, 70019, Note_on_c, 8, 67, 0
10, 70020, Note_on_c, 8, 72, 100
10, 70020, Note_on_c, 8, 79, 100
10, 70079, Note_on_c, 8, 79, 0
10, 70079, Note_on_c, 8, 72, 0
10, 70140, Note_on_c, 8, 79, 100
10, 70140, Note_on_c, 8, 72, 100
10, 70199, Note_on_c, 8, 72, 0
10, 70199, Note_on_c, 8, 79, 0
10, 70200, Note_on_c, 8, 77, 100
10, 70200, Note_on_c, 8, 72, 100
10, 70259, Note_on_c, 8, 72, 0
10, 70259, Note_on_c, 8, 77, 0
10, 70320, Note_on_c, 8, 65, 100
10, 70320, Note_on_c, 8, 72, 100
10, 70379, Note_on_c, 8, 72, 0
10, 70379, Note_on_c, 8, 65, 0
10, 70380, Note_on_c, 8, 72, 100
10, 70380, Note_on_c, 8, 75, 100
10, 70439, Note_on_c, 8, 75, 0
10, 70439, Note_on_c, 8, 72, 0
10, 70500, Note_on_c, 8, 77, 100
10, 70500, Note_on_c, 8, 69, 100
10, 70559, Note_on_c, 8, 69, 0
10, 70559, Note_on_c, 8, 77, 0
10, 70560, Note_on_c, 8, 70, 100
10, 70560, Note_on_c, 8, 77, 100
10, 70619, Note_on_c, 8, 77, 0
10, 70619, Note_on_c, 8, 70, 0
10, 70680, Note_on_c, 8, 70, 100
10, 70680, Note_on_c, 8, 77, 100
10, 70739, Note_on_c, 8, 77, 0
10, 70739, Note_on_c, 8, 70, 0
10, 70740, Note_on_c, 8, 82, 100
10, 70740, Note_on_c, 8, 77, 100
10, 70799, Note_on_c, 8, 77, 0
10, 70799, Note_on_c, 8, 82, 0
10, 70860, Note_on_c, 8, 74, 100
10, 70860, Note_on_c, 8, 65, 100
10, 70919, Note_on_c, 8, 65, 0
10, 70919, Note_on_c, 8, 74, 0
10, 70920, Note_on_c, 8, 72, 100
10, 70920, Note_on_c, 8, 67, 100
10, 70979, Note_on_c, 8, 67, 0
10, 70979, Note_on_c, 8, 72, 0
10, 71040, Note_on_c, 8, 60, 100
10, 71040, Note_on_c, 8, 67, 100
10, 71099, Note_on_c, 8, 67, 0
10, 71099, Note_on_c, 8, 60, 0
10, 71100, Note_on_c, 8, 67, 100
10, 71100, Note_on_c, 8, 72, 100
10, 71159, Note_on_c, 8, 72, 0
10, 71159, Note_on_c, 8, 67, 0
10, 71220, Note_on_c, 8, 72, 100
10, 71220, Note_on_c, 8, 64, 100
10, 71279, Note_on_c, 8, 64, 0
10, 71279, Note_on_c, 8, 72, 0
10, 71280, Note_on_c, 8, 65, 100
10, 71280, Note_on_c, 8, 72, 100
10, 71339, Note_on_c, 8, 72, 0
10, 71339, Note_on_c, 8, 65, 0
10, 71400, Note_on_c, 8, 72, 100
10, 71400, Note_on_c, 8, 65, 100
10, 71459, Note_on_c, 8, 65, 0
10, 71459, Note_on_c, 8, 72, 0
10, 71460, Note_on_c, 8, 72, 100
10, 71460, Note_on_c, 8, 77, 100
10, 71519, Note_on_c, 8, 77, 0
10, 71519, Note_on_c, 8, 72, 0
10, 71580, Note_on_c, 8, 72, 100
10, 71580, Note_on_c, 8, 76, 100
10, 71639, Note_on_c, 8, 76, 0
10, 71639, Note_on_c, 8, 72, 0
10, 71640, Note_on_c, 8, 67, 100
10, 71640, Note_on_c, 8, 74, 100
10, 71699, Note_on_c, 8, 74, 0
10, 71699, Note_on_c, 8, 67, 0
10, 71760, Note_on_c, 8, 74, 100
10, 71760, Note_on_c, 8, 67, 100
10, 71819, Note_on_c, 8, 67, 0
10, 71819, Note_on_c, 8, 74, 0
10, 71820, Note_on_c, 8, 79, 100
10, 71820, Note_on_c, 8, 74, 100
10, 71879, Note_on_c, 8, 74, 0
10, 71879, Note_on_c, 8, 79, 0
10, 71940, Note_on_c, 8, 71, 100
10, 71940, Note_on_c, 8, 67, 100
10, 71999, Note_on_c, 8, 67, 0
10, 71999, Note_on_c, 8, 71, 0
10, 72000, Note_on_c, 8, 72, 100
10, 72000, Note_on_c, 8, 67, 100
10, 72059, Note_on_c, 8, 67, 0
10, 72059, Note_on_c, 8, 72, 0
10, 72120, Note_on_c, 8, 72, 100
10, 72120, Note_on_c, 8, 79, 100
10, 72179, Note_on_c, 8, 79, 0
10, 72179, Note_on_c, 8, 72, 0
10, 72180, Note_on_c, 8, 76, 100
10, 72180, Note_on_c, 8, 84, 100
10, 72239, Note_on_c, 8, 84, 0
10, 72239, Note_on_c, 8, 76, 0
10, 72300, Note_on_c, 8, 72, 100
10, 72300, Note_on_c, 8, 76, 100
10, 72359, Note_on_c, 8, 76, 0
10, 72359, Note_on_c, 8, 72, 0
10, 72360, Note_on_c, 8, 67, 100
10, 72360, Note_on_c, 8, 76, 100
10, 72419, Note_on_c, 8, 76, 0
10, 72419, Note_on_c, 8, 67, 0
10, 72480, Note_on_c, 8, 72, 100
10, 72480, Note_on_c, 8, 65, 100
10, 72539, Note_on_c, 8, 65, 0
10, 72539, Note_on_c, 8, 72, 0
10, 72540, Note_on_c, 8, 65, 100
10, 72540, Note_on_c, 8, 72, 100
10, 72599, Note_on_c, 8, 72, 0
10, 72599, Note_on_c, 8, 65, 0
10, 72660, Note_on_c, 8, 68, 100
10, 72660, Note_on_c, 8, 65, 100
10, 72719, Note_on_c, 8, 65, 0
10, 72719, Note_on_c, 8, 68, 0
10, 72720, Note_on_c, 8, 60, 100
10, 72720, Note_on_c, 8, 67, 100
10, 72779, Note_on_c, 8, 67, 0
10, 72779, Note_on_c, 8, 60, 0
10, 72840, Note_on_c, 8, 65, 100
10, 72840, Note_on_c, 8, 74, 100
10, 72899, Note_on_c, 8, 74, 0
10, 72899, Note_on_c, 8, 65, 0
10, 72900, Note_on_c, 8, 67, 100
10, 72900, Note_on_c, 8, 76, 100
10, 72959, Note_on_c, 8, 76, 0
10, 72959, Note_on_c, 8, 67, 0
10, 73020, Note_on_c, 8, 70, 100
10, 73020, Note_on_c, 8, 79, 100
10, 73079, Note_on_c, 8, 79, 0
10, 73079, Note_on_c, 8, 70, 0
10, 73080, Note_on_c, 8, 69, 100
10, 73080, Note_on_c, 8, 77, 100
10, 73139, Note_on_c, 8, 77, 0
10, 73139, Note_on_c, 8, 69, 0
10, 73200, Note_on_c, 8, 72, 100
10, 73200, Note_on_c, 8, 76, 100
10, 73259, Note_on_c, 8, 76, 0
10, 73259, Note_on_c, 8, 72, 0
10, 73260, Note_on_c, 8, 76, 100
10, 73260, Note_on_c, 8, 67, 100
10, 73319, Note_on_c, 8, 67, 0
10, 73319, Note_on_c, 8, 76, 0
10, 73380, Note_on_c, 8, 72, 100
10, 73380, Note_on_c, 8, 64, 100
10, 73439, Note_on_c, 8, 64, 0
10, 73439, Note_on_c, 8, 72, 0
10, 73440, Note_on_c, 8, 64, 100
10, 73440, Note_on_c, 8, 72, 100
10, 73499, Note_on_c, 8, 72, 0
10, 73499, Note_on_c, 8, 64, 0
10, 73560, Note_on_c, 8, 68, 100
10, 73560, Note_on_c, 8, 77, 100
10, 73619, Note_on_c, 8, 77, 0
10, 73619, Note_on_c, 8, 68, 0
10, 73620, Note_on_c, 8, 68, 100
10, 73620, Note_on_c, 8, 77, 100
10, 73679, Note_on_c, 8, 77, 0
10, 73679, Note_on_c, 8, 68, 0
10, 73740, Note_on_c, 8, 72, 100
10, 73740, Note_on_c, 8, 65, 100
10, 73799, Note_on_c, 8, 65, 0
10, 73799, Note_on_c, 8, 72, 0
10, 73800, Note_on_c, 8, 73, 100
10, 73800, Note_on_c, 8, 70, 100
10, 73859, Note_on_c, 8, 70, 0
10, 73859, Note_on_c, 8, 73, 0
10, 73920, Note_on_c, 8, 74, 100
10, 73920, Note_on_c, 8, 68, 100
10, 73979, Note_on_c, 8, 68, 0
10, 73979, Note_on_c, 8, 74, 0
10, 73980, Note_on_c, 8, 67, 100
10, 73980, Note_on_c, 8, 76, 100
10, 74039, Note_on_c, 8, 76, 0
10, 74039, Note_on_c, 8, 67, 0
10, 74100, Note_on_c, 8, 70, 100
10, 74100, Note_on_c, 8, 79, 100
10, 74159, Note_on_c, 8, 79, 0
10, 74159, Note_on_c, 8, 70, 0
10, 74160, Note_on_c, 8, 68, 100
10, 74160, Note_on_c, 8, 77, 100
10, 74219, Note_on_c, 8, 77, 0
10, 74219, Note_on_c, 8, 68, 0
10, 74280, Note_on_c, 8, 65, 100
10, 74280, Note_on_c, 8, 68, 100
10, 74339, Note_on_c, 8, 68, 0
10, 74339, Note_on_c, 8, 65, 0
10, 74340, Note_on_c, 8, 65, 100
10, 74340, Note_on_c, 8, 62, 100
10, 74399, Note_on_c, 8, 62, 0
10, 74399, Note_on_c, 8, 65, 0
10, 74460, Note_on_c, 8, 62, 100
10, 74460, Note_on_c, 8, 65, 100
10, 74519, Note_on_c, 8, 65, 0
10, 74519, Note_on_c, 8, 62, 0
10, 74520, Note_on_c, 8, 60, 100
10, 74520, Note_on_c, 8, 67, 100
10, 74579, Note_on_c, 8, 67, 0
10, 74579, Note_on_c, 8, 60, 0
10, 74640, Note_on_c, 8, 69, 100
10, 74640, Note_on_c, 8, 60, 100
10, 74699, Note_on_c, 8, 60, 0
10, 74699, Note_on_c, 8, 69, 0
10, 74700, Note_on_c, 8, 62, 100
10, 74700, Note_on_c, 8, 67, 100
10, 74759, Note_on_c, 8, 67, 0
10, 74759, Note_on_c, 8, 62, 0
10, 74820, Note_on_c, 8, 60, 100
10, 74820, Note_on_c, 8, 67, 100
10, 74879, Note_on_c, 8, 67, 0
10, 74879, Note_on_c, 8, 60, 0
10, 74880, Note_on_c, 8, 60, 100
10, 74880, Note_on_c, 8, 69, 100
10, 74939, Note_on_c, 8, 69, 0
10, 74939, Note_on_c, 8, 60, 0
10, 75000, Note_on_c, 8, 72, 100
10, 75000, Note_on_c, 8, 69, 100
10, 75059, Note_on_c, 8, 69, 0
10, 75059, Note_on_c, 8, 72, 0
10, 75060, Note_on_c, 8, 69, 100
10, 75060, Note_on_c, 8, 72, 100
10, 75060, Note_on_c, 8, 77, 100
10, 75179, Note_on_c, 8, 77, 0
10, 75179, Note_on_c, 8, 72, 0
10, 75179, Note_on_c, 8, 69, 0
10, 76140, Note_on_c, 8, 62, 110
10, 76140, Note_on_c, 8, 65, 110
10, 76140, Note_on_c, 8, 69, 110
10, 76200, Note_on_c, 8, 69, 0
10, 76200, Note_on_c, 8, 65, 0
10, 76200, Note_on_c, 8, 62, 0
10, 76200, Note_on_c, 8, 67, 110
10, 76230, Note_on_c, 8, 67, 0
10, 76230, Note_on_c, 8, 65, 110
10, 76260, Note_on_c, 8, 65, 0
10, 76260, Note_on_c, 8, 64, 110
10, 76290, Note_on_c, 8, 64, 0
10, 76290, Note_on_c, 8, 62, 110
10, 76320, Note_on_c, 8, 62, 0
10, 76320, Note_on_c, 8, 61, 110
10, 76320, Note_on_c, 8, 64, 110
10, 76680, Note_on_c, 8, 64, 0
10, 76680, Note_on_c, 8, 61, 0
10, 80400, Note_on_c, 8, 57, 100
10, 80459, Note_on_c, 8, 57, 0
10, 80460, Note_on_c, 8, 62, 100
10, 80579, Note_on_c, 8, 62, 0
10, 80580, Note_on_c, 8, 61, 100
10, 80639, Note_on_c, 8, 61, 0
10, 80640, Note_on_c, 8, 62, 100
10, 80699, Note_on_c, 8, 62, 0
10, 80700, Note_on_c, 8, 64, 100
10, 80819, Note_on_c, 8, 64, 0
10, 80820, Note_on_c, 8, 65, 100
10, 80939, Note_on_c, 8, 65, 0
10, 80940, Note_on_c, 8, 64, 100
10, 80969, Note_on_c, 8, 64, 0
10, 80970, Note_on_c, 8, 62, 100
10, 80999, Note_on_c, 8, 62, 0
10, 81000, Note_on_c, 8, 65, 100
10, 81029, Note_on_c, 8, 65, 0
10, 81030, Note_on_c, 8, 64, 100
10, 81059, Note_on_c, 8, 64, 0
10, 81060, Note_on_c, 8, 62, 100
10, 81089, Note_on_c, 8, 62, 0
10, 81090, Note_on_c, 8, 61, 100
10, 81119, Note_on_c, 8, 61, 0
10, 81120, Note_on_c, 8, 62, 100
10, 81179, Note_on_c, 8, 62, 0
10, 81180, Note_on_c, 8, 64, 100
10, 81209, Note_on_c, 8, 64, 0
10, 81210, Note_on_c, 8, 65, 100
10, 81239, Note_on_c, 8, 65, 0
10, 81240, Note_on_c, 8, 64, 100
10, 81269, Note_on_c, 8, 64, 0
10, 81270, Note_on_c, 8, 62, 100
10, 81299, Note_on_c, 8, 62, 0
10, 81300, Note_on_c, 8, 60, 100
10, 81329, Note_on_c, 8, 60, 0
10, 81330, Note_on_c, 8, 59, 100
10, 81359, Note_on_c, 8, 59, 0
10, 81360, Note_on_c, 8, 60, 100
10, 81389, Note_on_c, 8, 60, 0
10, 81390, Note_on_c, 8, 72, 100
10, 81419, Note_on_c, 8, 72, 0
10, 81420, Note_on_c, 8, 71, 100
10, 81449, Note_on_c, 8, 71, 0
10, 81450, Note_on_c, 8, 72, 100
10, 81479, Note_on_c, 8, 72, 0
10, 81480, Note_on_c, 8, 74, 100
10, 81509, Note_on_c, 8, 74, 0
10, 81510, Note_on_c, 8, 76, 100
10, 81539, Note_on_c, 8, 76, 0
10, 81540, Note_on_c, 8, 72, 100
10, 81569, Note_on_c, 8, 72, 0
10, 81570, Note_on_c, 8, 74, 100
10, 81599, Note_on_c, 8, 74, 0
10, 81600, Note_on_c, 8, 76, 100
10, 81629, Note_on_c, 8, 76, 0
10, 81630, Note_on_c, 8, 72, 100
10, 81659, Note_on_c, 8, 72, 0
10, 81660, Note_on_c, 8, 71, 100
10, 81689, Note_on_c, 8, 71, 0
10, 81690, Note_on_c, 8, 69, 100
10, 81719, Note_on_c, 8, 69, 0
10, 81720, Note_on_c, 8, 77, 100
10, 81749, Note_on_c, 8, 77, 0
10, 81750, Note_on_c, 8, 74, 100
10, 81779, Note_on_c, 8, 74, 0
10, 81780, Note_on_c, 8, 72, 100
10, 81809, Note_on_c, 8, 72, 0
10, 81810, Note_on_c, 8, 71, 100
10, 81839, Note_on_c, 8, 71, 0
10, 81840, Note_on_c, 8, 80, 100
10, 81869, Note_on_c, 8, 80, 0
10, 81870, Note_on_c, 8, 76, 100
10, 81899, Note_on_c, 8, 76, 0
10, 81900, Note_on_c, 8, 74, 100
10, 81929, Note_on_c, 8, 74, 0
10, 81930, Note_on_c, 8, 72, 100
10, 81959, Note_on_c, 8, 72, 0
10, 81960, Note_on_c, 8, 77, 100
10, 81989, Note_on_c, 8, 77, 0
10, 81990, Note_on_c, 8, 74, 100
10, 82019, Note_on_c, 8, 74, 0
10, 82020, Note_on_c, 8, 72, 100
10, 82049, Note_on_c, 8, 72, 0
10, 82050, Note_on_c, 8, 71, 100
10, 82079, Note_on_c, 8, 71, 0
10, 82080, Note_on_c, 8, 72, 100
10, 82139, Note_on_c, 8, 72, 0
10, 82140, Note_on_c, 8, 69, 100
10, 82199, Note_on_c, 8, 69, 0
10, 82200, Note_on_c, 8, 72, 100
10, 82259, Note_on_c, 8, 72, 0
10, 82260, Note_on_c, 8, 76, 100
10, 82319, Note_on_c, 8, 76, 0
10, 82320, Note_on_c, 8, 76, 100
10, 82379, Note_on_c, 8, 76, 0
10, 82380, Note_on_c, 8, 71, 100
10, 82439, Note_on_c, 8, 71, 0
10, 82440, Note_on_c, 8, 71, 100
10, 82499, Note_on_c, 8, 71, 0
10, 82500, Note_on_c, 8, 76, 100
10, 82559, Note_on_c, 8, 76, 0
10, 82560, Note_on_c, 8, 72, 100
10, 82619, Note_on_c, 8, 72, 0
10, 82620, Note_on_c, 8, 65, 100
10, 82679, Note_on_c, 8, 65, 0
10, 82680, Note_on_c, 8, 69, 100
10, 82739, Note_on_c, 8, 69, 0
10, 82740, Note_on_c, 8, 72, 100
10, 82799, Note_on_c, 8, 72, 0
10, 82800, Note_on_c, 8, 72, 100
10, 82859, Note_on_c, 8, 72, 0
10, 82860, Note_on_c, 8, 67, 100
10, 82919, Note_on_c, 8, 67, 0
10, 82920, Note_on_c, 8, 67, 100
10, 82979, Note_on_c, 8, 67, 0
10, 82980, Note_on_c, 8, 76, 100
10, 83039, Note_on_c, 8, 76, 0
10, 83040, Note_on_c, 8, 69, 100
10, 83099, Note_on_c, 8, 69, 0
10, 83100, Note_on_c, 8, 62, 100
10, 83159, Note_on_c, 8, 62, 0
10, 83160, Note_on_c, 8, 65, 100
10, 83219, Note_on_c, 8, 65, 0
10, 83220, Note_on_c, 8, 69, 100
10, 83279, Note_on_c, 8, 69, 0
10, 83280, Note_on_c, 8, 70, 100
10, 83300, Note_on_c, 8, 70, 0
10, 83300, Note_on_c, 8, 69, 100
10, 83320, Note_on_c, 8, 69, 0
10, 83320, Note_on_c, 8, 70, 100
10, 83340, Note_on_c, 8, 70, 0
10, 83340, Note_on_c, 8, 69, 100
10, 83347, Note_on_c, 8, 69, 0
10, 83347, Note_on_c, 8, 70, 100
10, 83354, Note_on_c, 8, 70, 0
10, 83355, Note_on_c, 8, 69, 100
10, 83362, Note_on_c, 8, 69, 0
10, 83362, Note_on_c, 8, 70, 100
10, 83369, Note_on_c, 8, 70, 0
10, 83370, Note_on_c, 8, 69, 100
10, 83380, Note_on_c, 8, 69, 0
10, 83380, Note_on_c, 8, 70, 100
10, 83390, Note_on_c, 8, 70, 0
10, 83390, Note_on_c, 8, 69, 100
10, 83400, Note_on_c, 8, 69, 0
10, 83400, Note_on_c, 8, 70, 100
10, 83410, Note_on_c, 8, 70, 0
10, 83410, Note_on_c, 8, 69, 100
10, 83420, Note_on_c, 8, 69, 0
10, 83420, Note_on_c, 8, 70, 100
10, 83430, Note_on_c, 8, 70, 0
10, 83430, Note_on_c, 8, 69, 100
10, 83440, Note_on_c, 8, 69, 0
10, 83440, Note_on_c, 8, 70, 100
10, 83450, Note_on_c, 8, 70, 0
10, 83450, Note_on_c, 8, 69, 100
10, 83460, Note_on_c, 8, 69, 0
10, 83460, Note_on_c, 8, 70, 100
10, 83470, Note_on_c, 8, 70, 0
10, 83470, Note_on_c, 8, 69, 100
10, 83480, Note_on_c, 8, 69, 0
10, 83480, Note_on_c, 8, 70, 100
10, 83490, Note_on_c, 8, 70, 0
10, 83490, Note_on_c, 8, 69, 100
10, 83500, Note_on_c, 8, 69, 0
10, 83500, Note_on_c, 8, 70, 100
10, 83510, Note_on_c, 8, 70, 0
10, 83510, Note_on_c, 8, 69, 100
10, 83520, Note_on_c, 8, 69, 0
10, 83520, Note_on_c, 8, 70, 100
10, 83530, Note_on_c, 8, 70, 0
10, 83530, Note_on_c, 8, 69, 100
10, 83540, Note_on_c, 8, 69, 0
10, 83540, Note_on_c, 8, 70, 100
10, 83550, Note_on_c, 8, 70, 0
10, 83550, Note_on_c, 8, 69, 100
10, 83560, Note_on_c, 8, 69, 0
10, 83560, Note_on_c, 8, 70, 100
10, 83570, Note_on_c, 8, 70, 0
10, 83570, Note_on_c, 8, 69, 100
10, 83580, Note_on_c, 8, 69, 0
10, 83580, Note_on_c, 8, 70, 100
10, 83590, Note_on_c, 8, 70, 0
10, 83590, Note_on_c, 8, 69, 100
10, 83600, Note_on_c, 8, 69, 0
10, 83600, Note_on_c, 8, 70, 100
10, 83610, Note_on_c, 8, 70, 0
10, 83610, Note_on_c, 8, 69, 100
10, 83620, Note_on_c, 8, 69, 0
10, 83620, Note_on_c, 8, 70, 100
10, 83630, Note_on_c, 8, 70, 0
10, 83630, Note_on_c, 8, 69, 100
10, 83640, Note_on_c, 8, 69, 0
10, 83640, Note_on_c, 8, 70, 100
10, 83650, Note_on_c, 8, 70, 0
10, 83650, Note_on_c, 8, 69, 100
10, 83660, Note_on_c, 8, 69, 0
10, 83660, Note_on_c, 8, 70, 100
10, 83670, Note_on_c, 8, 70, 0
10, 83670, Note_on_c, 8, 69, 100
10, 83680, Note_on_c, 8, 69, 0
10, 83680, Note_on_c, 8, 70, 100
10, 83690, Note_on_c, 8, 70, 0
10, 83690, Note_on_c, 8, 69, 100
10, 83700, Note_on_c, 8, 69, 0
10, 83700, Note_on_c, 8, 70, 100
10, 83710, Note_on_c, 8, 70, 0
10, 83710, Note_on_c, 8, 69, 100
10, 83720, Note_on_c, 8, 69, 0
10, 83720, Note_on_c, 8, 70, 100
10, 83730, Note_on_c, 8, 70, 0
10, 83730, Note_on_c, 8, 69, 100
10, 83740, Note_on_c, 8, 69, 0
10, 83740, Note_on_c, 8, 70, 100
10, 83750, Note_on_c, 8, 70, 0
10, 83750, Note_on_c, 8, 69, 100
10, 83760, Note_on_c, 8, 69, 0
10, 83760, Note_on_c, 8, 70, 100
10, 83770, Note_on_c, 8, 70, 0
10, 83770, Note_on_c, 8, 69, 100
10, 83780, Note_on_c, 8, 69, 0
10, 83780, Note_on_c, 8, 70, 100
10, 83790, Note_on_c, 8, 70, 0
10, 83790, Note_on_c, 8, 69, 100
10, 83800, Note_on_c, 8, 69, 0
10, 83800, Note_on_c, 8, 70, 100
10, 83810, Note_on_c, 8, 70, 0
10, 83810, Note_on_c, 8, 69, 100
10, 83820, Note_on_c, 8, 69, 0
10, 83820, Note_on_c, 8, 70, 100
10, 83830, Note_on_c, 8, 70, 0
10, 83830, Note_on_c, 8, 69, 100
10, 83840, Note_on_c, 8, 69, 0
10, 83840, Note_on_c, 8, 70, 100
10, 83850, Note_on_c, 8, 70, 0
10, 83850, Note_on_c, 8, 69, 100
10, 83860, Note_on_c, 8, 69, 0
10, 83860, Note_on_c, 8, 70, 100
10, 83870, Note_on_c, 8, 70, 0
10, 83870, Note_on_c, 8, 69, 100
10, 83880, Note_on_c, 8, 69, 0
10, 83880, Note_on_c, 8, 70, 100
10, 83890, Note_on_c, 8, 70, 0
10, 83890, Note_on_c, 8, 69, 100
10, 83900, Note_on_c, 8, 69, 0
10, 83900, Note_on_c, 8, 70, 100
10, 83910, Note_on_c, 8, 70, 0
10, 83910, Note_on_c, 8, 69, 100
10, 83920, Note_on_c, 8, 69, 0
10, 83920, Note_on_c, 8, 70, 100
10, 83930, Note_on_c, 8, 70, 0
10, 83930, Note_on_c, 8, 69, 100
10, 83940, Note_on_c, 8, 69, 0
10, 83940, Note_on_c, 8, 70, 100
10, 83950, Note_on_c, 8, 70, 0
10, 83950, Note_on_c, 8, 69, 100
10, 83960, Note_on_c, 8, 69, 0
10, 83960, Note_on_c, 8, 70, 100
10, 83970, Note_on_c, 8, 70, 0
10, 83970, Note_on_c, 8, 69, 100
10, 83980, Note_on_c, 8, 69, 0
10, 83980, Note_on_c, 8, 70, 100
10, 83990, Note_on_c, 8, 70, 0
10, 83990, Note_on_c, 8, 69, 100
10, 84000, Note_on_c, 8, 69, 0
10, 84000, Note_on_c, 8, 70, 100
10, 84015, Note_on_c, 8, 70, 0
10, 84015, Note_on_c, 8, 69, 100
10, 84030, Note_on_c, 8, 69, 0
10, 84030, Note_on_c, 8, 67, 100
10, 84059, Note_on_c, 8, 67, 0
10, 84060, Note_on_c, 8, 69, 100
10, 84089, Note_on_c, 8, 69, 0
10, 84090, Note_on_c, 8, 70, 100
10, 84119, Note_on_c, 8, 70, 0
10, 84120, Note_on_c, 8, 69, 100
10, 84149, Note_on_c, 8, 69, 0
10, 84150, Note_on_c, 8, 67, 100
10, 84179, Note_on_c, 8, 67, 0
10, 84180, Note_on_c, 8, 65, 100
10, 84209, Note_on_c, 8, 65, 0
10, 84210, Note_on_c, 8, 64, 100
10, 84239, Note_on_c, 8, 64, 0
10, 84240, Note_on_c, 8, 62, 100
10, 84299, Note_on_c, 8, 62, 0
10, 84300, Note_on_c, 8, 67, 100
10, 84359, Note_on_c, 8, 67, 0
10, 84360, Note_on_c, 8, 62, 100
10, 84419, Note_on_c, 8, 62, 0
10, 84420, Note_on_c, 8, 67, 100
10, 84509, Note_on_c, 8, 67, 0
10, 84510, Note_on_c, 8, 65, 100
10, 84539, Note_on_c, 8, 65, 0
10, 84540, Note_on_c, 8, 67, 100
10, 84569, Note_on_c, 8, 67, 0
10, 84570, Note_on_c, 8, 69, 100
10, 84599, Note_on_c, 8, 69, 0
10, 84600, Note_on_c, 8, 67, 100
10, 84629, Note_on_c, 8, 67, 0
10, 84630, Note_on_c, 8, 65, 100
10, 84659, Note_on_c, 8, 65, 0
10, 84660, Note_on_c, 8, 64, 100
10, 84689, Note_on_c, 8, 64, 0
10, 84690, Note_on_c, 8, 62, 100
10, 84719, Note_on_c, 8, 62, 0
10, 84720, Note_on_c, 8, 60, 100
10, 84779, Note_on_c, 8, 60, 0
10, 84780, Note_on_c, 8, 65, 100
10, 84839, Note_on_c, 8, 65, 0
10, 84840, Note_on_c, 8, 60, 100
10, 84899, Note_on_c, 8, 60, 0
10, 84900, Note_on_c, 8, 65, 100
10, 84989, Note_on_c, 8, 65, 0
10, 84990, Note_on_c, 8, 63, 100
10, 85019, Note_on_c, 8, 63, 0
10, 85020, Note_on_c, 8, 65, 100
10, 85049, Note_on_c, 8, 65, 0
10, 85050, Note_on_c, 8, 67, 100
10, 85079, Note_on_c, 8, 67, 0
10, 85080, Note_on_c, 8, 65, 100
10, 85109, Note_on_c, 8, 65, 0
10, 85110, Note_on_c, 8, 63, 100
10, 85139, Note_on_c, 8, 63, 0
10, 85140, Note_on_c, 8, 62, 100
10, 85169, Note_on_c, 8, 62, 0
10, 85170, Note_on_c, 8, 60, 100
10, 85199, Note_on_c, 8, 60, 0
10, 85200, Note_on_c, 8, 58, 100
10, 85259, Note_on_c, 8, 58, 0
10, 85260, Note_on_c, 8, 67, 100
10, 85319, Note_on_c, 8, 67, 0
10, 85320, Note_on_c, 8, 57, 100
10, 85379, Note_on_c, 8, 57, 0
10, 85380, Note_on_c, 8, 64, 100
10, 85469, Note_on_c, 8, 64, 0
10, 85470, Note_on_c, 8, 62, 100
10, 85499, Note_on_c, 8, 62, 0
10, 85500, Note_on_c, 8, 64, 100
10, 85529, Note_on_c, 8, 64, 0
10, 85530, Note_on_c, 8, 65, 100
10, 85559, Note_on_c, 8, 65, 0
10, 85560, Note_on_c, 8, 67, 100
10, 85589, Note_on_c, 8, 67, 0
10, 85590, Note_on_c, 8, 64, 100
10, 85619, Note_on_c, 8, 64, 0
10, 85620, Note_on_c, 8, 65, 100
10, 85649, Note_on_c, 8, 65, 0
10, 85650, Note_on_c, 8, 67, 100
10, 85679, Note_on_c, 8, 67, 0
10, 85680, Note_on_c, 8, 69, 100
10, 85739, Note_on_c, 8, 69, 0
10, 85740, Note_on_c, 8, 74, 100
10, 85860, Note_on_c, 8, 74, 0
10, 85860, Note_on_c, 8, 73, 100
10, 85919, Note_on_c, 8, 73, 0
10, 85920, Note_on_c, 8, 74, 100
10, 85979, Note_on_c, 8, 74, 0
10, 85980, Note_on_c, 8, 76, 100
10, 86099, Note_on_c, 8, 76, 0
10, 86100, Note_on_c, 8, 77, 100
10, 86219, Note_on_c, 8, 77, 0
10, 86220, Note_on_c, 8, 76, 100
10, 86249, Note_on_c, 8, 76, 0
10, 86250, Note_on_c, 8, 74, 100
10, 86279, Note_on_c, 8, 74, 0
10, 86280, Note_on_c, 8, 77, 100
10, 86309, Note_on_c, 8, 77, 0
10, 86310, Note_on_c, 8, 76, 100
10, 86339, Note_on_c, 8, 76, 0
10, 86340, Note_on_c, 8, 74, 100
10, 86369, Note_on_c, 8, 74, 0
10, 86370, Note_on_c, 8, 73, 100
10, 86399, Note_on_c, 8, 73, 0
10, 86400, Note_on_c, 8, 74, 100
10, 86429, Note_on_c, 8, 74, 0
10, 86430, Note_on_c, 8, 69, 100
10, 86459, Note_on_c, 8, 69, 0
10, 86460, Note_on_c, 8, 65, 100
10, 86489, Note_on_c, 8, 65, 0
10, 86490, Note_on_c, 8, 69, 100
10, 86519, Note_on_c, 8, 69, 0
10, 86520, Note_on_c, 8, 62, 100
10, 86579, Note_on_c, 8, 62, 0
10, 93360, Note_on_c, 8, 76, 100
10, 93419, Note_on_c, 8, 76, 0
10, 93420, Note_on_c, 8, 81, 100
10, 93539, Note_on_c, 8, 81, 0
10, 93540, Note_on_c, 8, 80, 100
10, 93599, Note_on_c, 8, 80, 0
10, 93600, Note_on_c, 8, 81, 100
10, 93659, Note_on_c, 8, 81, 0
10, 93660, Note_on_c, 8, 83, 100
10, 93779, Note_on_c, 8, 83, 0
10, 93780, Note_on_c, 8, 84, 100
10, 93899, Note_on_c, 8, 84, 0
10, 93900, Note_on_c, 8, 83, 100
10, 93929, Note_on_c, 8, 83, 0
10, 93930, Note_on_c, 8, 81, 100
10, 93959, Note_on_c, 8, 81, 0
10, 93960, Note_on_c, 8, 84, 100
10, 93989, Note_on_c, 8, 84, 0
10, 93990, Note_on_c, 8, 83, 100
10, 94019, Note_on_c, 8, 83, 0
10, 94020, Note_on_c, 8, 81, 100
10, 94049, Note_on_c, 8, 81, 0
10, 94050, Note_on_c, 8, 80, 100
10, 94079, Note_on_c, 8, 80, 0
10, 94080, Note_on_c, 8, 81, 100
10, 94109, Note_on_c, 8, 81, 0
10, 94110, Note_on_c, 8, 76, 100
10, 94139, Note_on_c, 8, 76, 0
10, 94140, Note_on_c, 8, 72, 100
10, 94169, Note_on_c, 8, 72, 0
10, 94170, Note_on_c, 8, 76, 100
10, 94199, Note_on_c, 8, 76, 0
10, 94200, Note_on_c, 8, 69, 100
10, 94259, Note_on_c, 8, 69, 0
10, 102960, Note_on_c, 8, 72, 100
10, 103019, Note_on_c, 8, 72, 0
10, 103020, Note_on_c, 8, 77, 100
10, 103139, Note_on_c, 8, 77, 0
10, 103140, Note_on_c, 8, 76, 100
10, 103199, Note_on_c, 8, 76, 0
10, 103200, Note_on_c, 8, 77, 100
10, 103259, Note_on_c, 8, 77, 0
10, 103260, Note_on_c, 8, 79, 100
10, 103379, Note_on_c, 8, 79, 0
10, 103380, Note_on_c, 8, 81, 100
10, 103499, Note_on_c, 8, 81, 0
10, 103500, Note_on_c, 8, 79, 100
10, 103529, Note_on_c, 8, 79, 0
10, 103530, Note_on_c, 8, 77, 100
10, 103559, Note_on_c, 8, 77, 0
10, 103560, Note_on_c, 8, 81, 100
10, 103589, Note_on_c, 8, 81, 0
10, 103590, Note_on_c, 8, 79, 100
10, 103619, Note_on_c, 8, 79, 0
10, 103620, Note_on_c, 8, 77, 100
10, 103649, Note_on_c, 8, 77, 0
10, 103650, Note_on_c, 8, 76, 100
10, 103679, Note_on_c, 8, 76, 0
10, 103680, Note_on_c, 8, 77, 110
10, 103740, Note_on_c, 8, 77, 0
10, 103920, Note_on_c, 8, 67, 100
10, 103979, Note_on_c, 8, 67, 0
10, 103980, Note_on_c, 8, 72, 100
10, 104040, Note_on_c, 8, 65, 100
10, 104099, Note_on_c, 8, 65, 0
10, 104100, Note_on_c, 8, 72, 0
10, 104100, Note_on_c, 8, 71, 100
10, 104159, Note_on_c, 8, 71, 0
10, 104160, Note_on_c, 8, 67, 100
10, 104160, Note_on_c, 8, 72, 100
10, 104219, Note_on_c, 8, 72, 0
10, 104219, Note_on_c, 8, 67, 0
10, 104220, Note_on_c, 8, 74, 100
10, 104280, Note_on_c, 8, 69, 100
10, 104339, Note_on_c, 8, 69, 0
10, 104340, Note_on_c, 8, 74, 0
10, 104340, Note_on_c, 8, 76, 100
10, 104400, Note_on_c, 8, 67, 100
10, 104459, Note_on_c, 8, 67, 0
10, 104460, Note_on_c, 8, 76, 0
10, 104460, Note_on_c, 8, 74, 100
10, 104460, Note_on_c, 8, 64, 100
10, 104490, Note_on_c, 8, 74, 0
10, 104490, Note_on_c, 8, 72, 100
10, 104519, Note_on_c, 8, 64, 0
10, 104520, Note_on_c, 8, 72, 0
10, 104520, Note_on_c, 8, 76, 100
10, 104520, Note_on_c, 8, 57, 100
10, 104550, Note_on_c, 8, 76, 0
10, 104550, Note_on_c, 8, 74, 100
10, 104579, Note_on_c, 8, 57, 0
10, 104580, Note_on_c, 8, 74, 0
10, 104580, Note_on_c, 8, 72, 100
10, 104580, Note_on_c, 8, 62, 100
10, 104610, Note_on_c, 8, 72, 0
10, 104610, Note_on_c, 8, 71, 100
10, 104639, Note_on_c, 8, 62, 0
10, 104640, Note_on_c, 8, 71, 0
10, 104640, Note_on_c, 8, 64, 100
10, 104640, Note_on_c, 8, 72, 100
10, 104700, Note_on_c, 8, 72, 0
10, 104700, Note_on_c, 8, 64, 0
10, 104880, Note_on_c, 8, 62, 100
10, 104880, Note_on_c, 8, 69, 100
10, 104939, Note_on_c, 8, 69, 0
10, 104939, Note_on_c, 8, 62, 0
10, 104940, Note_on_c, 8, 69, 100
10, 104940, Note_on_c, 8, 62, 100
10, 104999, Note_on_c, 8, 62, 0
10, 104999, Note_on_c, 8, 69, 0
10, 105000, Note_on_c, 8, 62, 100
10, 105000, Note_on_c, 8, 69, 100
10, 105059, Note_on_c, 8, 69, 0
10, 105059, Note_on_c, 8, 62, 0
10, 105060, Note_on_c, 8, 62, 100
10, 105060, Note_on_c, 8, 69, 100
10, 105119, Note_on_c, 8, 69, 0
10, 105119, Note_on_c, 8, 62, 0
10, 105120, Note_on_c, 8, 70, 100
10, 105120, Note_on_c, 8, 67, 100
10, 105179, Note_on_c, 8, 67, 0
10, 105179, Note_on_c, 8, 70, 0
10, 105360, Note_on_c, 8, 67, 100
10, 105360, Note_on_c, 8, 60, 100
10, 105419, Note_on_c, 8, 60, 0
10, 105419, Note_on_c, 8, 67, 0
10, 105420, Note_on_c, 8, 67, 100
10, 105420, Note_on_c, 8, 60, 100
10, 105479, Note_on_c, 8, 60, 0
10, 105479, Note_on_c, 8, 67, 0
10, 105480, Note_on_c, 8, 60, 100
10, 105480, Note_on_c, 8, 67, 100
10, 105539, Note_on_c, 8, 67, 0
10, 105539, Note_on_c, 8, 60, 0
10, 105540, Note_on_c, 8, 60, 100
10, 105540, Note_on_c, 8, 67, 100
10, 105599, Note_on_c, 8, 67, 0
10, 105599, Note_on_c, 8, 60, 0
10, 105600, Note_on_c, 8, 65, 100
10, 105600, Note_on_c, 8, 69, 100
10, 105615, Note_on_c, 8, 60, 100
10, 105629, Note_on_c, 8, 60, 0
10, 105629, Note_on_c, 8, 69, 0
10, 105629, Note_on_c, 8, 65, 0
10, 105630, Note_on_c, 8, 62, 100
10, 105644, Note_on_c, 8, 62, 0
10, 105645, Note_on_c, 8, 64, 100
10, 105659, Note_on_c, 8, 64, 0
10, 105660, Note_on_c, 8, 65, 100
10, 105674, Note_on_c, 8, 65, 0
10, 105675, Note_on_c, 8, 67, 100
10, 105689, Note_on_c, 8, 67, 0
10, 105690, Note_on_c, 8, 69, 100
10, 105704, Note_on_c, 8, 69, 0
10, 105705, Note_on_c, 8, 70, 100
10, 105719, Note_on_c, 8, 70, 0
10, 105720, Note_on_c, 8, 69, 100
10, 105734, Note_on_c, 8, 69, 0
10, 105735, Note_on_c, 8, 65, 100
10, 105749, Note_on_c, 8, 65, 0
10, 105750, Note_on_c, 8, 64, 100
10, 105764, Note_on_c, 8, 64, 0
10, 105765, Note_on_c, 8, 62, 100
10, 105779, Note_on_c, 8, 62, 0
10, 105780, Note_on_c, 8, 60, 100
10, 105794, Note_on_c, 8, 60, 0
10, 105795, Note_on_c, 8, 59, 100
10, 105809, Note_on_c, 8, 59, 0
10, 105810, Note_on_c, 8, 57, 100
10, 105824, Note_on_c, 8, 57, 0
10, 105825, Note_on_c, 8, 55, 100
10, 105839, Note_on_c, 8, 55, 0
10, 105840, Note_on_c, 8, 81, 100
10, 105869, Note_on_c, 8, 81, 0
10, 105870, Note_on_c, 8, 72, 100
10, 105899, Note_on_c, 8, 72, 0
10, 105900, Note_on_c, 8, 70, 100
10, 105929, Note_on_c, 8, 70, 0
10, 105930, Note_on_c, 8, 69, 100
10, 105959, Note_on_c, 8, 69, 0
10, 105960, Note_on_c, 8, 79, 100
10, 105989, Note_on_c, 8, 79, 0
10, 105990, Note_on_c, 8, 72, 100
10, 106019, Note_on_c, 8, 72, 0
10, 106020, Note_on_c, 8, 70, 100
10, 106049, Note_on_c, 8, 70, 0
10, 106050, Note_on_c, 8, 69, 100
10, 106079, Note_on_c, 8, 69, 0
10, 106080, Note_on_c, 8, 78, 100
10, 106109, Note_on_c, 8, 78, 0
10, 106110, Note_on_c, 8, 72, 100
10, 106139, Note_on_c, 8, 72, 0
10, 106140, Note_on_c, 8, 70, 100
10, 106169, Note_on_c, 8, 70, 0
10, 106170, Note_on_c, 8, 69, 100
10, 106199, Note_on_c, 8, 69, 0
10, 106200, Note_on_c, 8, 78, 100
10, 106229, Note_on_c, 8, 78, 0
10, 106230, Note_on_c, 8, 72, 100
10, 106259, Note_on_c, 8, 72, 0
10, 106260, Note_on_c, 8, 70, 100
10, 106289, Note_on_c, 8, 70, 0
10, 106290, Note_on_c, 8, 69, 100
10, 106319, Note_on_c, 8, 69, 0
10, 106320, Note_on_c, 8, 67, 100
10, 106349, Note_on_c, 8, 67, 0
10, 106350, Note_on_c, 8, 77, 100
10, 106379, Note_on_c, 8, 77, 0
10, 106380, Note_on_c, 8, 76, 100
10, 106409, Note_on_c, 8, 76, 0
10, 106410, Note_on_c, 8, 74, 100
10, 106439, Note_on_c, 8, 74, 0
10, 106440, Note_on_c, 8, 67, 100
10, 106469, Note_on_c, 8, 67, 0
10, 106470, Note_on_c, 8, 74, 100
10, 106499, Note_on_c, 8, 74, 0
10, 106500, Note_on_c, 8, 72, 100
10, 106529, Note_on_c, 8, 72, 0
10, 106530, Note_on_c, 8, 71, 100
10, 106559, Note_on_c, 8, 71, 0
10, 106560, Note_on_c, 8, 76, 100
10, 106560, Note_on_c, 8, 79, 100
10, 106619, Note_on_c, 8, 79, 0
10, 106619, Note_on_c, 8, 76, 0
10, 106800, Note_on_c, 8, 77, 100
10, 106829, Note_on_c, 8, 77, 0
10, 106830, Note_on_c, 8, 72, 100
10, 106859, Note_on_c, 8, 72, 0
10, 106860, Note_on_c, 8, 71, 100
10, 106889, Note_on_c, 8, 71, 0
10, 106890, Note_on_c, 8, 69, 100
10, 106919, Note_on_c, 8, 69, 0
10, 106920, Note_on_c, 8, 67, 100
10, 106949, Note_on_c, 8, 67, 0
10, 106950, Note_on_c, 8, 76, 100
10, 106979, Note_on_c, 8, 76, 0
10, 106980, Note_on_c, 8, 75, 100
10, 107009, Note_on_c, 8, 75, 0
10, 107010, Note_on_c, 8, 76, 100
10, 107039, Note_on_c, 8, 76, 0
10, 107040, Note_on_c, 8, 78, 100
10, 107099, Note_on_c, 8, 78, 0
10, 107100, Note_on_c, 8, 63, 100
10, 107100, Note_on_c, 8, 66, 100
10, 107159, Note_on_c, 8, 66, 0
10, 107159, Note_on_c, 8, 63, 0
10, 107160, Note_on_c, 8, 71, 100
10, 107160, Note_on_c, 8, 64, 100
10, 107219, Note_on_c, 8, 64, 0
10, 107219, Note_on_c, 8, 71, 0
10, 107340, Note_on_c, 8, 64, 100
10, 107340, Note_on_c, 8, 61, 100
10, 107399, Note_on_c, 8, 61, 0
10, 107399, Note_on_c, 8, 64, 0
10, 107400, Note_on_c, 8, 62, 100
10, 107400, Note_on_c, 8, 69, 100
10, 107459, Note_on_c, 8, 69, 0
10, 107459, Note_on_c, 8, 62, 0
10, 107580, Note_on_c, 8, 59, 100
10, 107580, Note_on_c, 8, 62, 100
10, 107639, Note_on_c, 8, 62, 0
10, 107639, Note_on_c, 8, 59, 0
10, 107640, Note_on_c, 8, 60, 100
10, 107640, Note_on_c, 8, 67, 100
10, 107699, Note_on_c, 8, 67, 0
10, 107699, Note_on_c, 8, 60, 0
10, 107820, Note_on_c, 8, 57, 100
10, 107820, Note_on_c, 8, 60, 100
10, 107879, Note_on_c, 8, 60, 0
10, 107879, Note_on_c, 8, 57, 0
10, 107880, Note_on_c, 8, 62, 100
10, 107880, Note_on_c, 8, 65, 100
10, 107939, Note_on_c, 8, 65, 0
10, 107939, Note_on_c, 8, 62, 0
10, 108000, Note_on_c, 8, 64, 100
10, 108000, Note_on_c, 8, 59, 100
10, 108000, Note_on_c, 8, 56, 100
10, 108059, Note_on_c, 8, 56, 0
10, 108059, Note_on_c, 8, 59, 0
10, 108059, Note_on_c, 8, 64, 0
10, 108240, Note_on_c, 8, 69, 100
10, 108240, Note_on_c, 8, 76, 100
10, 108299, Note_on_c, 8, 76, 0
10, 108299, Note_on_c, 8, 69, 0
10, 108300, Note_on_c, 8, 81, 100
10, 108360, Note_on_c, 8, 74, 100
10, 108419, Note_on_c, 8, 74, 0
10, 108419, Note_on_c, 8, 81, 0
10, 108420, Note_on_c, 8, 80, 100
10, 108479, Note_on_c, 8, 80, 0
10, 108480, Note_on_c, 8, 76, 100
10, 108480, Note_on_c, 8, 81, 100
10, 108539, Note_on_c, 8, 81, 0
10, 108539, Note_on_c, 8, 76, 0
10, 108540, Note_on_c, 8, 83, 100
10, 108600, Note_on_c, 8, 77, 100
10, 108659, Note_on_c, 8, 77, 0
10, 108659, Note_on_c, 8, 83, 0
10, 108660, Note_on_c, 8, 84, 100
10, 108720, Note_on_c, 8, 76, 100
10, 108779, Note_on_c, 8, 76, 0
10, 108779, Note_on_c, 8, 84, 0
10, 108780, Note_on_c, 8, 83, 100
10, 108809, Note_on_c, 8, 83, 0
10, 108810, Note_on_c, 8, 81, 100
10, 108839, Note_on_c, 8, 81, 0
10, 108840, Note_on_c, 8, 84, 100
10, 108869, Note_on_c, 8, 84, 0
10, 108870, Note_on_c, 8, 83, 100
10, 108899, Note_on_c, 8, 83, 0
10, 108900, Note_on_c, 8, 81, 100
10, 108929, Note_on_c, 8, 81, 0
10, 108930, Note_on_c, 8, 80, 100
10, 108959, Note_on_c, 8, 80, 0
10, 108960, Note_on_c, 8, 81, 100
10, 108979, Note_on_c, 8, 81, 0
10, 108980, Note_on_c, 8, 82, 100
10, 108999, Note_on_c, 8, 82, 0
10, 109000, Note_on_c, 8, 81, 100
10, 109019, Note_on_c, 8, 81, 0
10, 109020, Note_on_c, 8, 82, 100
10, 109034, Note_on_c, 8, 82, 0
10, 109035, Note_on_c, 8, 81, 100
10, 109049, Note_on_c, 8, 81, 0
10, 109050, Note_on_c, 8, 82, 100
10, 109064, Note_on_c, 8, 82, 0
10, 109065, Note_on_c, 8, 81, 100
10, 109079, Note_on_c, 8, 81, 0
10, 109080, Note_on_c, 8, 82, 100
10, 109094, Note_on_c, 8, 82, 0
10, 109095, Note_on_c, 8, 81, 100
10, 109109, Note_on_c, 8, 81, 0
10, 109110, Note_on_c, 8, 82, 100
10, 109124, Note_on_c, 8, 82, 0
10, 109125, Note_on_c, 8, 81, 100
10, 109139, Note_on_c, 8, 81, 0
10, 109141, Note_on_c, 8, 82, 100
10, 109155, Note_on_c, 8, 82, 0
10, 109156, Note_on_c, 8, 81, 100
10, 109170, Note_on_c, 8, 81, 0
10, 109171, Note_on_c, 8, 82, 100
10, 109185, Note_on_c, 8, 82, 0
10, 109186, Note_on_c, 8, 81, 100
10, 109200, Note_on_c, 8, 81, 0
10, 109202, Note_on_c, 8, 82, 100
10, 109216, Note_on_c, 8, 82, 0
10, 109217, Note_on_c, 8, 81, 100
10, 109231, Note_on_c, 8, 81, 0
10, 109232, Note_on_c, 8, 82, 100
10, 109246, Note_on_c, 8, 82, 0
10, 109247, Note_on_c, 8, 81, 100
10, 109261, Note_on_c, 8, 81, 0
10, 109263, Note_on_c, 8, 82, 100
10, 109277, Note_on_c, 8, 82, 0
10, 109278, Note_on_c, 8, 81, 100
10, 109292, Note_on_c, 8, 81, 0
10, 109293, Note_on_c, 8, 82, 100
10, 109307, Note_on_c, 8, 82, 0
10, 109308, Note_on_c, 8, 81, 100
10, 109322, Note_on_c, 8, 81, 0
10, 109324, Note_on_c, 8, 82, 100
10, 109338, Note_on_c, 8, 82, 0
10, 109339, Note_on_c, 8, 81, 100
10, 109353, Note_on_c, 8, 81, 0
10, 109354, Note_on_c, 8, 82, 100
10, 109368, Note_on_c, 8, 82, 0
10, 109369, Note_on_c, 8, 81, 100
10, 109383, Note_on_c, 8, 81, 0
10, 109385, Note_on_c, 8, 82, 100
10, 109399, Note_on_c, 8, 82, 0
10, 109400, Note_on_c, 8, 81, 100
10, 109414, Note_on_c, 8, 81, 0
10, 109415, Note_on_c, 8, 82, 100
10, 109429, Note_on_c, 8, 82, 0
10, 109430, Note_on_c, 8, 81, 100
10, 109440, Note_on_c, 8, 82, 100
10, 109444, Note_on_c, 8, 81, 0
10, 109454, Note_on_c, 8, 82, 0
10, 109455, Note_on_c, 8, 81, 100
10, 109469, Note_on_c, 8, 81, 0
10, 109470, Note_on_c, 8, 82, 100
10, 109484, Note_on_c, 8, 82, 0
10, 109485, Note_on_c, 8, 81, 100
10, 109499, Note_on_c, 8, 81, 0
10, 109501, Note_on_c, 8, 82, 100
10, 109515, Note_on_c, 8, 82, 0
10, 109516, Note_on_c, 8, 81, 100
10, 109530, Note_on_c, 8, 81, 0
10, 109531, Note_on_c, 8, 82, 100
10, 109545, Note_on_c, 8, 82, 0
10, 109546, Note_on_c, 8, 81, 100
10, 109560, Note_on_c, 8, 81, 0
10, 109562, Note_on_c, 8, 82, 100
10, 109576, Note_on_c, 8, 82, 0
10, 109577, Note_on_c, 8, 81, 100
10, 109591, Note_on_c, 8, 81, 0
10, 109592, Note_on_c, 8, 82, 100
10, 109606, Note_on_c, 8, 82, 0
10, 109607, Note_on_c, 8, 81, 100
10, 109621, Note_on_c, 8, 81, 0
10, 109623, Note_on_c, 8, 82, 100
10, 109637, Note_on_c, 8, 82, 0
10, 109638, Note_on_c, 8, 81, 100
10, 109652, Note_on_c, 8, 81, 0
10, 109653, Note_on_c, 8, 82, 100
10, 109667, Note_on_c, 8, 82, 0
10, 109668, Note_on_c, 8, 81, 100
10, 109682, Note_on_c, 8, 81, 0
10, 109684, Note_on_c, 8, 82, 100
10, 109698, Note_on_c, 8, 82, 0
10, 109699, Note_on_c, 8, 81, 100
10, 109713, Note_on_c, 8, 81, 0
10, 109714, Note_on_c, 8, 82, 100
10, 109728, Note_on_c, 8, 82, 0
10, 109729, Note_on_c, 8, 81, 100
10, 109743, Note_on_c, 8, 81, 0
10, 109745, Note_on_c, 8, 82, 100
10, 109759, Note_on_c, 8, 82, 0
10, 109760, Note_on_c, 8, 81, 100
10, 109774, Note_on_c, 8, 81, 0
10, 109775, Note_on_c, 8, 82, 100
10, 109789, Note_on_c, 8, 82, 0
10, 109790, Note_on_c, 8, 81, 100
10, 109800, Note_on_c, 8, 82, 100
10, 109804, Note_on_c, 8, 81, 0
10, 109814, Note_on_c, 8, 82, 0
10, 109815, Note_on_c, 8, 81, 100
10, 109829, Note_on_c, 8, 81, 0
10, 109830, Note_on_c, 8, 82, 100
10, 109844, Note_on_c, 8, 82, 0
10, 109845, Note_on_c, 8, 81, 100
10, 109859, Note_on_c, 8, 81, 0
10, 109860, Note_on_c, 8, 82, 100
10, 109880, Note_on_c, 8, 82, 0
10, 109880, Note_on_c, 8, 81, 100
10, 109900, Note_on_c, 8, 81, 0
10, 109900, Note_on_c, 8, 82, 100
10, 109920, Note_on_c, 8, 82, 0
10, 109920, Note_on_c, 8, 81, 100
10, 109949, Note_on_c, 8, 81, 0
10, 109950, Note_on_c, 8, 76, 100
10, 109979, Note_on_c, 8, 76, 0
10, 109980, Note_on_c, 8, 77, 100
10, 110009, Note_on_c, 8, 77, 0
10, 110010, Note_on_c, 8, 74, 100
10, 110039, Note_on_c, 8, 74, 0
10, 110040, Note_on_c, 8, 68, 100
10, 110069, Note_on_c, 8, 68, 0
10, 110070, Note_on_c, 8, 71, 100
10, 110099, Note_on_c, 8, 71, 0
10, 110100, Note_on_c, 8, 74, 100
10, 110129, Note_on_c, 8, 74, 0
10, 110130, Note_on_c, 8, 76, 100
10, 110159, Note_on_c, 8, 76, 0
10, 110160, Note_on_c, 8, 72, 100
10, 110189, Note_on_c, 8, 72, 0
10, 110190, Note_on_c, 8, 68, 100
10, 110219, Note_on_c, 8, 68, 0
10, 110220, Note_on_c, 8, 69, 100
10, 110249, Note_on_c, 8, 69, 0
10, 110250, Note_on_c, 8, 64, 100
10, 110279, Note_on_c, 8, 64, 0
10, 110280, Note_on_c, 8, 65, 100
10, 110309, Note_on_c, 8, 65, 0
10, 110310, Note_on_c, 8, 62, 100
10, 110339, Note_on_c, 8, 62, 0
10, 110340, Note_on_c, 8, 60, 100
10, 110369, Note_on_c, 8, 60, 0
10, 110370, Note_on_c, 8, 59, 100
10, 110399, Note_on_c, 8, 59, 0
10, 110400, Note_on_c, 8, 60, 100
10, 110400, Note_on_c, 8, 69, 100
10, 110429, Note_on_c, 8, 69, 0
10, 110430, Note_on_c, 8, 64, 100
10, 110459, Note_on_c, 8, 64, 0
10, 110460, Note_on_c, 8, 60, 0
10, 110460, Note_on_c, 8, 65, 100
10, 110489, Note_on_c, 8, 65, 0
10, 110490, Note_on_c, 8, 62, 100
10, 110519, Note_on_c, 8, 62, 0
10, 110520, Note_on_c, 8, 64, 100
10, 110549, Note_on_c, 8, 64, 0
10, 110550, Note_on_c, 8, 60, 100
10, 110579, Note_on_c, 8, 60, 0
10, 110580, Note_on_c, 8, 59, 100
10, 110609, Note_on_c, 8, 59, 0
10, 110610, Note_on_c, 8, 57, 100
10, 110639, Note_on_c, 8, 57, 0
10, 110640, Note_on_c, 8, 60, 100
10, 110669, Note_on_c, 8, 60, 0
10, 110670, Note_on_c, 8, 64, 100
10, 110699, Note_on_c, 8, 64, 0
10, 110700, Note_on_c, 8, 69, 100
10, 110729, Note_on_c, 8, 69, 0
10, 110730, Note_on_c, 8, 68, 100
10, 110759, Note_on_c, 8, 68, 0
10, 110760, Note_on_c, 8, 69, 100
10, 110789, Note_on_c, 8, 69, 0
10, 110790, Note_on_c, 8, 72, 100
10, 110819, Note_on_c, 8, 72, 0
10, 110820, Note_on_c, 8, 71, 100
10, 110849, Note_on_c, 8, 71, 0
10, 110850, Note_on_c, 8, 69, 100
10, 110879, Note_on_c, 8, 69, 0
10, 110880, Note_on_c, 8, 68, 100
10, 110909, Note_on_c, 8, 68, 0
10, 110910, Note_on_c, 8, 74, 100
10, 110939, Note_on_c, 8, 74, 0
10, 110940, Note_on_c, 8, 76, 100
10, 110969, Note_on_c, 8, 76, 0
10, 110970, Note_on_c, 8, 71, 100
10, 110999, Note_on_c, 8, 71, 0
10, 111000, Note_on_c, 8, 72, 100
10, 111029, Note_on_c, 8, 72, 0
10, 111030, Note_on_c, 8, 69, 100
10, 111059, Note_on_c, 8, 69, 0
10, 111060, Note_on_c, 8, 68, 100
10, 111089, Note_on_c, 8, 68, 0
10, 111090, Note_on_c, 8, 66, 100
10, 111119, Note_on_c, 8, 66, 0
10, 111120, Note_on_c, 8, 68, 100
10, 111120, Note_on_c, 8, 76, 100
10, 111149, Note_on_c, 8, 76, 0
10, 111150, Note_on_c, 8, 71, 100
10, 111179, Note_on_c, 8, 71, 0
10, 111180, Note_on_c, 8, 68, 0
10, 111180, Note_on_c, 8, 72, 100
10, 111209, Note_on_c, 8, 72, 0
10, 111210, Note_on_c, 8, 69, 100
10, 111239, Note_on_c, 8, 69, 0
10, 111240, Note_on_c, 8, 71, 100
10, 111269, Note_on_c, 8, 71, 0
10, 111270, Note_on_c, 8, 68, 100
10, 111299, Note_on_c, 8, 68, 0
10, 111300, Note_on_c, 8, 66, 100
10, 111329, Note_on_c, 8, 66, 0
10, 111330, Note_on_c, 8, 64, 100
10, 111359, Note_on_c, 8, 64, 0
10, 111360, Note_on_c, 8, 68, 100
10, 111389, Note_on_c, 8, 68, 0
10, 111390, Note_on_c, 8, 71, 100
10, 111419, Note_on_c, 8, 71, 0
10, 111420, Note_on_c, 8, 74, 100
10, 111449, Note_on_c, 8, 74, 0
10, 111450, Note_on_c, 8, 77, 100
10, 111479, Note_on_c, 8, 77, 0
10, 111480, Note_on_c, 8, 76, 100
10, 111509, Note_on_c, 8, 76, 0
10, 111510, Note_on_c, 8, 74, 100
10, 111539, Note_on_c, 8, 74, 0
10, 111540, Note_on_c, 8, 72, 100
10, 111569, Note_on_c, 8, 72, 0
10, 111570, Note_on_c, 8, 71, 100
10, 111599, Note_on_c, 8, 71, 0
10, 111600, Note_on_c, 8, 72, 100
10, 111629, Note_on_c, 8, 72, 0
10, 111630, Note_on_c, 8, 76, 100
10, 111659, Note_on_c, 8, 76, 0
10, 111660, Note_on_c, 8, 69, 100
10, 111689, Note_on_c, 8, 69, 0
10, 111690, Note_on_c, 8, 71, 100
10, 111719, Note_on_c, 8, 71, 0
10, 111720, Note_on_c, 8, 72, 100
10, 111749, Note_on_c, 8, 72, 0
10, 111750, Note_on_c, 8, 74, 100
10, 111779, Note_on_c, 8, 74, 0
10, 111780, Note_on_c, 8, 76, 100
10, 111809, Note_on_c, 8, 76, 0
10, 111810, Note_on_c, 8, 77, 100
10, 111839, Note_on_c, 8, 77, 0
10, 111840, Note_on_c, 8, 79, 100
10, 111869, Note_on_c, 8, 79, 0
10, 111870, Note_on_c, 8, 77, 100
10, 111899, Note_on_c, 8, 77, 0
10, 111900, Note_on_c, 8, 79, 100
10, 111929, Note_on_c, 8, 79, 0
10, 111930, Note_on_c, 8, 74, 100
10, 111959, Note_on_c, 8, 74, 0
10, 111960, Note_on_c, 8, 76, 100
10, 111989, Note_on_c, 8, 76, 0
10, 111990, Note_on_c, 8, 73, 100
10, 112019, Note_on_c, 8, 73, 0
10, 112020, Note_on_c, 8, 71, 100
10, 112049, Note_on_c, 8, 71, 0
10, 112050, Note_on_c, 8, 69, 100
10, 112079, Note_on_c, 8, 69, 0
10, 112080, Note_on_c, 8, 82, 100
10, 112109, Note_on_c, 8, 82, 0
10, 112110, Note_on_c, 8, 76, 100
10, 112139, Note_on_c, 8, 76, 0
10, 112140, Note_on_c, 8, 77, 100
10, 112169, Note_on_c, 8, 77, 0
10, 112170, Note_on_c, 8, 74, 100
10, 112199, Note_on_c, 8, 74, 0
10, 112200, Note_on_c, 8, 76, 100
10, 112229, Note_on_c, 8, 76, 0
10, 112230, Note_on_c, 8, 73, 100
10, 112259, Note_on_c, 8, 73, 0
10, 112260, Note_on_c, 8, 71, 100
10, 112289, Note_on_c, 8, 71, 0
10, 112290, Note_on_c, 8, 69, 100
10, 112319, Note_on_c, 8, 69, 0
10, 112320, Note_on_c, 8, 73, 100
10, 112349, Note_on_c, 8, 73, 0
10, 112350, Note_on_c, 8, 76, 100
10, 112379, Note_on_c, 8, 76, 0
10, 112380, Note_on_c, 8, 79, 100
10, 112409, Note_on_c, 8, 79, 0
10, 112410, Note_on_c, 8, 82, 100
10, 112439, Note_on_c, 8, 82, 0
10, 112440, Note_on_c, 8, 81, 100
10, 112469, Note_on_c, 8, 81, 0
10, 112470, Note_on_c, 8, 79, 100
10, 112499, Note_on_c, 8, 79, 0
10, 112500, Note_on_c, 8, 77, 100
10, 112529, Note_on_c, 8, 77, 0
10, 112530, Note_on_c, 8, 76, 100
10, 112559, Note_on_c, 8, 76, 0
10, 112560, Note_on_c, 8, 77, 100
10, 112589, Note_on_c, 8, 77, 0
10, 112590, Note_on_c, 8, 73, 100
10, 112619, Note_on_c, 8, 73, 0
10, 112620, Note_on_c, 8, 74, 100
10, 112649, Note_on_c, 8, 74, 0
10, 112650, Note_on_c, 8, 69, 100
10, 112679, Note_on_c, 8, 69, 0
10, 112680, Note_on_c, 8, 70, 100
10, 112709, Note_on_c, 8, 70, 0
10, 112710, Note_on_c, 8, 67, 100
10, 112739, Note_on_c, 8, 67, 0
10, 112740, Note_on_c, 8, 66, 100
10, 112769, Note_on_c, 8, 66, 0
10, 112770, Note_on_c, 8, 67, 100
10, 112799, Note_on_c, 8, 67, 0
10, 112800, Note_on_c, 8, 75, 100
10, 112829, Note_on_c, 8, 75, 0
10, 112830, Note_on_c, 8, 70, 100
10, 112859, Note_on_c, 8, 70, 0
10, 112860, Note_on_c, 8, 72, 100
10, 112889, Note_on_c, 8, 72, 0
10, 112890, Note_on_c, 8, 67, 100
10, 112919, Note_on_c, 8, 67, 0
10, 112920, Note_on_c, 8, 69, 100
10, 112949, Note_on_c, 8, 69, 0
10, 112950, Note_on_c, 8, 66, 100
10, 112979, Note_on_c, 8, 66, 0
10, 112980, Note_on_c, 8, 64, 100
10, 113009, Note_on_c, 8, 64, 0
10, 113010, Note_on_c, 8, 66, 100
10, 113039, Note_on_c, 8, 66, 0
10, 113040, Note_on_c, 8, 74, 100
10, 113069, Note_on_c, 8, 74, 0
10, 113070, Note_on_c, 8, 69, 100
10, 113099, Note_on_c, 8, 69, 0
10, 113100, Note_on_c, 8, 70, 100
10, 113129, Note_on_c, 8, 70, 0
10, 113130, Note_on_c, 8, 66, 100
10, 113159, Note_on_c, 8, 66, 0
10, 113160, Note_on_c, 8, 67, 100
10, 113189, Note_on_c, 8, 67, 0
10, 113190, Note_on_c, 8, 63, 100
10, 113219, Note_on_c, 8, 63, 0
10, 113220, Note_on_c, 8, 62, 100
10, 113249, Note_on_c, 8, 62, 0
10, 113250, Note_on_c, 8, 63, 100
10, 113279, Note_on_c, 8, 63, 0
10, 113280, Note_on_c, 8, 72, 100
10, 113309, Note_on_c, 8, 72, 0
10, 113310, Note_on_c, 8, 67, 100
10, 113339, Note_on_c, 8, 67, 0
10, 113340, Note_on_c, 8, 69, 100
10, 113369, Note_on_c, 8, 69, 0
10, 113370, Note_on_c, 8, 64, 100
10, 113399, Note_on_c, 8, 64, 0
10, 113400, Note_on_c, 8, 66, 100
10, 113429, Note_on_c, 8, 66, 0
10, 113430, Note_on_c, 8, 62, 100
10, 113459, Note_on_c, 8, 62, 0
10, 113460, Note_on_c, 8, 61, 100
10, 113489, Note_on_c, 8, 61, 0
10, 113490, Note_on_c, 8, 62, 100
10, 113519, Note_on_c, 8, 62, 0
10, 113520, Note_on_c, 8, 66, 100
10, 113549, Note_on_c, 8, 66, 0
10, 113550, Note_on_c, 8, 69, 100
10, 113579, Note_on_c, 8, 69, 0
10, 113580, Note_on_c, 8, 72, 100
10, 113609, Note_on_c, 8, 72, 0
10, 113610, Note_on_c, 8, 75, 100
10, 113639, Note_on_c, 8, 75, 0
10, 113640, Note_on_c, 8, 74, 100
10, 113669, Note_on_c, 8, 74, 0
10, 113670, Note_on_c, 8, 72, 100
10, 113699, Note_on_c, 8, 72, 0
10, 113700, Note_on_c, 8, 70, 100
10, 113729, Note_on_c, 8, 70, 0
10, 113730, Note_on_c, 8, 69, 100
10, 113759, Note_on_c, 8, 69, 0
10, 113760, Note_on_c, 8, 70, 100
10, 113789, Note_on_c, 8, 70, 0
10, 113790, Note_on_c, 8, 67, 100
10, 113819, Note_on_c, 8, 67, 0
10, 113820, Note_on_c, 8, 70, 100
10, 113849, Note_on_c, 8, 70, 0
10, 113850, Note_on_c, 8, 74, 100
10, 113879, Note_on_c, 8, 74, 0
10, 113880, Note_on_c, 8, 70, 100
10, 113909, Note_on_c, 8, 70, 0
10, 113910, Note_on_c, 8, 67, 100
10, 113939, Note_on_c, 8, 67, 0
10, 113940, Note_on_c, 8, 70, 100
10, 113969, Note_on_c, 8, 70, 0
10, 113970, Note_on_c, 8, 65, 100
10, 113999, Note_on_c, 8, 65, 0
10, 114000, Note_on_c, 8, 64, 100
10, 114029, Note_on_c, 8, 64, 0
10, 114030, Note_on_c, 8, 67, 100
10, 114059, Note_on_c, 8, 67, 0
10, 114060, Note_on_c, 8, 70, 100
10, 114089, Note_on_c, 8, 70, 0
10, 114090, Note_on_c, 8, 74, 100
10, 114119, Note_on_c, 8, 74, 0
10, 114120, Note_on_c, 8, 72, 100
10, 114149, Note_on_c, 8, 72, 0
10, 114150, Note_on_c, 8, 70, 100
10, 114179, Note_on_c, 8, 70, 0
10, 114180, Note_on_c, 8, 69, 100
10, 114209, Note_on_c, 8, 69, 0
10, 114210, Note_on_c, 8, 67, 100
10, 114239, Note_on_c, 8, 67, 0
10, 114240, Note_on_c, 8, 69, 100
10, 114269, Note_on_c, 8, 69, 0
10, 114270, Note_on_c, 8, 65, 100
10, 114299, Note_on_c, 8, 65, 0
10, 114300, Note_on_c, 8, 69, 100
10, 114329, Note_on_c, 8, 69, 0
10, 114330, Note_on_c, 8, 72, 100
10, 114359, Note_on_c, 8, 72, 0
10, 114360, Note_on_c, 8, 69, 100
10, 114389, Note_on_c, 8, 69, 0
10, 114390, Note_on_c, 8, 65, 100
10, 114419, Note_on_c, 8, 65, 0
10, 114420, Note_on_c, 8, 69, 100
10, 114449, Note_on_c, 8, 69, 0
10, 114450, Note_on_c, 8, 63, 100
10, 114479, Note_on_c, 8, 63, 0
10, 114480, Note_on_c, 8, 62, 100
10, 114539, Note_on_c, 8, 62, 0
10, 114540, Note_on_c, 8, 74, 100
10, 114569, Note_on_c, 8, 74, 0
10, 114570, Note_on_c, 8, 75, 100
10, 114599, Note_on_c, 8, 75, 0
10, 114600, Note_on_c, 8, 77, 100
10, 114659, Note_on_c, 8, 77, 0
10, 114660, Note_on_c, 8, 78, 100
10, 114779, Note_on_c, 8, 78, 0
10, 114780, Note_on_c, 8, 79, 100
10, 114839, Note_on_c, 8, 79, 0
10, 114840, Note_on_c, 8, 67, 100
10, 114899, Note_on_c, 8, 67, 0
10, 114900, Note_on_c, 8, 77, 100
10, 115019, Note_on_c, 8, 77, 0
10, 115020, Note_on_c, 8, 76, 100
10, 115049, Note_on_c, 8, 76, 0
10, 115050, Note_on_c, 8, 77, 100
10, 115079, Note_on_c, 8, 77, 0
10, 115080, Note_on_c, 8, 79, 100
10, 115139, Note_on_c, 8, 79, 0
10, 115140, Note_on_c, 8, 80, 100
10, 115259, Note_on_c, 8, 80, 0
10, 115260, Note_on_c, 8, 81, 100
10, 115319, Note_on_c, 8, 81, 0
10, 115320, Note_on_c, 8, 69, 100
10, 115379, Note_on_c, 8, 69, 0
10, 115380, Note_on_c, 8, 79, 100
10, 115439, Note_on_c, 8, 79, 0
10, 115440, Note_on_c, 8, 77, 100
10, 115469, Note_on_c, 8, 77, 0
10, 115470, Note_on_c, 8, 82, 100
10, 115484, Note_on_c, 8, 82, 0
10, 115485, Note_on_c, 8, 81, 100
10, 115499, Note_on_c, 8, 81, 0
10, 115500, Note_on_c, 8, 82, 100
10, 115529, Note_on_c, 8, 82, 0
10, 115530, Note_on_c, 8, 74, 100
10, 115559, Note_on_c, 8, 74, 0
10, 115560, Note_on_c, 8, 76, 100
10, 115589, Note_on_c, 8, 76, 0
10, 115590, Note_on_c, 8, 72, 100
10, 115619, Note_on_c, 8, 72, 0
10, 115620, Note_on_c, 8, 81, 100
10, 115709, Note_on_c, 8, 81, 0
10, 115710, Note_on_c, 8, 79, 100
10, 115724, Note_on_c, 8, 79, 0
10, 115725, Note_on_c, 8, 78, 100
10, 115739, Note_on_c, 8, 78, 0
10, 115740, Note_on_c, 8, 79, 100
10, 115769, Note_on_c, 8, 79, 0
10, 115770, Note_on_c, 8, 70, 100
10, 115799, Note_on_c, 8, 70, 0
10, 115800, Note_on_c, 8, 72, 100
10, 115829, Note_on_c, 8, 72, 0
10, 115830, Note_on_c, 8, 69, 100
10, 115859, Note_on_c, 8, 69, 0
10, 115860, Note_on_c, 8, 77, 100
10, 115949, Note_on_c, 8, 77, 0
10, 115950, Note_on_c, 8, 75, 100
10, 115964, Note_on_c, 8, 75, 0
10, 115965, Note_on_c, 8, 74, 100
10, 115979, Note_on_c, 8, 74, 0
10, 115980, Note_on_c, 8, 75, 100
10, 116009, Note_on_c, 8, 75, 0
10, 116010, Note_on_c, 8, 67, 100
10, 116039, Note_on_c, 8, 67, 0
10, 116040, Note_on_c, 8, 69, 100
10, 116069, Note_on_c, 8, 69, 0
10, 116070, Note_on_c, 8, 65, 100
10, 116099, Note_on_c, 8, 65, 0
10, 116100, Note_on_c, 8, 74, 100
10, 116189, Note_on_c, 8, 74, 0
10, 116190, Note_on_c, 8, 73, 100
10, 116204, Note_on_c, 8, 73, 0
10, 116205, Note_on_c, 8, 71, 100
10, 116219, Note_on_c, 8, 71, 0
10, 116220, Note_on_c, 8, 73, 100
10, 116249, Note_on_c, 8, 73, 0
10, 116250, Note_on_c, 8, 67, 100
10, 116279, Note_on_c, 8, 67, 0
10, 116280, Note_on_c, 8, 65, 100
10, 116309, Note_on_c, 8, 65, 0
10, 116310, Note_on_c, 8, 74, 100
10, 116339, Note_on_c, 8, 74, 0
10, 116340, Note_on_c, 8, 68, 100
10, 116369, Note_on_c, 8, 68, 0
10, 116370, Note_on_c, 8, 69, 100
10, 116399, Note_on_c, 8, 69, 0
10, 116400, Note_on_c, 8, 64, 100
10, 116429, Note_on_c, 8, 64, 0
10, 116430, Note_on_c, 8, 73, 100
10, 116459, Note_on_c, 8, 73, 0
10, 116460, Note_on_c, 8, 68, 100
10, 116489, Note_on_c, 8, 68, 0
10, 116490, Note_on_c, 8, 69, 100
10, 116519, Note_on_c, 8, 69, 0
10, 116520, Note_on_c, 8, 62, 100
10, 116549, Note_on_c, 8, 62, 0
10, 116550, Note_on_c, 8, 77, 100
10, 116579, Note_on_c, 8, 77, 0
10, 116580, Note_on_c, 8, 68, 100
10, 116609, Note_on_c, 8, 68, 0
10, 116610, Note_on_c, 8, 69, 100
10, 116639, Note_on_c, 8, 69, 0
10, 116640, Note_on_c, 8, 61, 100
10, 116669, Note_on_c, 8, 61, 0
10, 116670, Note_on_c, 8, 76, 100
10, 116699, Note_on_c, 8, 76, 0
10, 116700, Note_on_c, 8, 68, 100
10, 116729, Note_on_c, 8, 68, 0
10, 116730, Note_on_c, 8, 69, 100
10, 116759, Note_on_c, 8, 69, 0
10, 116760, Note_on_c, 8, 64, 100
10, 116789, Note_on_c, 8, 64, 0
10, 116790, Note_on_c, 8, 70, 100
10, 116819, Note_on_c, 8, 70, 0
10, 116820, Note_on_c, 8, 69, 100
10, 116849, Note_on_c, 8, 69, 0
10, 116850, Note_on_c, 8, 67, 100
10, 116879, Note_on_c, 8, 67, 0
10, 116880, Note_on_c, 8, 65, 100
10, 116939, Note_on_c, 8, 65, 0
10, 117000, Note_on_c, 8, 64, 100
10, 117059, Note_on_c, 8, 64, 0
10, 117120, Note_on_c, 8, 57, 100
10, 117179, Note_on_c, 8, 57, 0
10, 117180, Note_on_c, 8, 62, 100
10, 117299, Note_on_c, 8, 62, 0
10, 117300, Note_on_c, 8, 61, 100
10, 117359, Note_on_c, 8, 61, 0
10, 117360, Note_on_c, 8, 62, 100
10, 117419, Note_on_c, 8, 62, 0
10, 117480, Note_on_c, 8, 64, 100
10, 117539, Note_on_c, 8, 64, 0
10, 117600, Note_on_c, 8, 65, 100
10, 117659, Note_on_c, 8, 65, 0
10, 117660, Note_on_c, 8, 64, 100
10, 117689, Note_on_c, 8, 64, 0
10, 117690, Note_on_c, 8, 62, 100
10, 117719, Note_on_c, 8, 62, 0
10, 117720, Note_on_c, 8, 61, 100
10, 117749, Note_on_c, 8, 61, 0
10, 117750, Note_on_c, 8, 64, 100
10, 117779, Note_on_c, 8, 64, 0
10, 117780, Note_on_c, 8, 62, 100
10, 117809, Note_on_c, 8, 62, 0
10, 117810, Note_on_c, 8, 61, 100
10, 117839, Note_on_c, 8, 61, 0
10, 117840, Note_on_c, 8, 62, 100
10, 117899, Note_on_c, 8, 62, 0
10, 117900, Note_on_c, 8, 69, 100
10, 118019, Note_on_c, 8, 69, 0
10, 118020, Note_on_c, 8, 67, 100
10, 118079, Note_on_c, 8, 67, 0
10, 118080, Note_on_c, 8, 65, 100
10, 118139, Note_on_c, 8, 65, 0
10, 118200, Note_on_c, 8, 64, 100
10, 118259, Note_on_c, 8, 64, 0
10, 118320, Note_on_c, 8, 62, 100
10, 118379, Note_on_c, 8, 62, 0
10, 118380, Note_on_c, 8, 74, 100
10, 118499, Note_on_c, 8, 74, 0
10, 118500, Note_on_c, 8, 72, 100
10, 118559, Note_on_c, 8, 72, 0
10, 118560, Note_on_c, 8, 70, 100
10, 118589, Note_on_c, 8, 70, 0
10, 118590, Note_on_c, 8, 74, 100
10, 118619, Note_on_c, 8, 74, 0
10, 118620, Note_on_c, 8, 79, 100
10, 118739, Note_on_c, 8, 79, 0
10, 118740, Note_on_c, 8, 78, 100
10, 118799, Note_on_c, 8, 78, 0
10, 118800, Note_on_c, 8, 79, 100
10, 118859, Note_on_c, 8, 79, 0
10, 118860, Note_on_c, 8, 81, 100
10, 118979, Note_on_c, 8, 81, 0
10, 118980, Note_on_c, 8, 82, 100
10, 119099, Note_on_c, 8, 82, 0
10, 119100, Note_on_c, 8, 81, 100
10, 119129, Note_on_c, 8, 81, 0
10, 119130, Note_on_c, 8, 79, 100
10, 119159, Note_on_c, 8, 79, 0
10, 119160, Note_on_c, 8, 82, 100
10, 119189, Note_on_c, 8, 82, 0
10, 119190, Note_on_c, 8, 81, 100
10, 119219, Note_on_c, 8, 81, 0
10, 119220, Note_on_c, 8, 79, 100
10, 119249, Note_on_c, 8, 79, 0
10, 119250, Note_on_c, 8, 78, 100
10, 119279, Note_on_c, 8, 78, 0
10, 119280, Note_on_c, 8, 79, 100
10, 119339, Note_on_c, 8, 79, 0
10, 119520, Note_on_c, 8, 72, 100
10, 119579, Note_on_c, 8, 72, 0
10, 119580, Note_on_c, 8, 77, 100
10, 119699, Note_on_c, 8, 77, 0
10, 119700, Note_on_c, 8, 76, 100
10, 119759, Note_on_c, 8, 76, 0
10, 119760, Note_on_c, 8, 77, 100
10, 119819, Note_on_c, 8, 77, 0
10, 119820, Note_on_c, 8, 79, 100
10, 119939, Note_on_c, 8, 79, 0
10, 119940, Note_on_c, 8, 81, 100
10, 120059, Note_on_c, 8, 81, 0
10, 120060, Note_on_c, 8, 79, 100
10, 120089, Note_on_c, 8, 79, 0
10, 120090, Note_on_c, 8, 77, 100
10, 120119, Note_on_c, 8, 77, 0
10, 120120, Note_on_c, 8, 81, 100
10, 120149, Note_on_c, 8, 81, 0
10, 120150, Note_on_c, 8, 79, 100
10, 120179, Note_on_c, 8, 79, 0
10, 120180, Note_on_c, 8, 77, 100
10, 120209, Note_on_c, 8, 77, 0
10, 120210, Note_on_c, 8, 76, 100
10, 120239, Note_on_c, 8, 76, 0
10, 120240, Note_on_c, 8, 77, 100
10, 120299, Note_on_c, 8, 77, 0
10, 120480, Note_on_c, 8, 62, 100
10, 120480, Note_on_c, 8, 67, 100
10, 120539, Note_on_c, 8, 67, 0
10, 120539, Note_on_c, 8, 62, 0
10, 120540, Note_on_c, 8, 62, 100
10, 120540, Note_on_c, 8, 67, 100
10, 120599, Note_on_c, 8, 67, 0
10, 120599, Note_on_c, 8, 62, 0
10, 120600, Note_on_c, 8, 67, 100
10, 120600, Note_on_c, 8, 62, 100
10, 120659, Note_on_c, 8, 62, 0
10, 120659, Note_on_c, 8, 67, 0
10, 120660, Note_on_c, 8, 65, 100
10, 120660, Note_on_c, 8, 67, 100
10, 120719, Note_on_c, 8, 67, 0
10, 120719, Note_on_c, 8, 65, 0
10, 120720, Note_on_c, 8, 64, 100
10, 120720, Note_on_c, 8, 67, 100
10, 120735, Note_on_c, 8, 59, 100
10, 120749, Note_on_c, 8, 59, 0
10, 120749, Note_on_c, 8, 67, 0
10, 120749, Note_on_c, 8, 64, 0
10, 120750, Note_on_c, 8, 60, 100
10, 120764, Note_on_c, 8, 60, 0
10, 120765, Note_on_c, 8, 62, 100
10, 120779, Note_on_c, 8, 62, 0
10, 120780, Note_on_c, 8, 64, 100
10, 120794, Note_on_c, 8, 64, 0
10, 120795, Note_on_c, 8, 65, 100
10, 120809, Note_on_c, 8, 65, 0
10, 120810, Note_on_c, 8, 67, 100
10, 120824, Note_on_c, 8, 67, 0
10, 120825, Note_on_c, 8, 69, 100
10, 120839, Note_on_c, 8, 69, 0
10, 120840, Note_on_c, 8, 67, 100
10, 120854, Note_on_c, 8, 67, 0
10, 120855, Note_on_c, 8, 64, 100
10, 120869, Note_on_c, 8, 64, 0
10, 120870, Note_on_c, 8, 65, 100
10, 120884, Note_on_c, 8, 65, 0
10, 120885, Note_on_c, 8, 67, 100
10, 120899, Note_on_c, 8, 67, 0
10, 120900, Note_on_c, 8, 69, 100
10, 120914, Note_on_c, 8, 69, 0
10, 120915, Note_on_c, 8, 70, 100
10, 120929, Note_on_c, 8, 70, 0
10, 120930, Note_on_c, 8, 72, 100
10, 120944, Note_on_c, 8, 72, 0
10, 120945, Note_on_c, 8, 74, 100
10, 120959, Note_on_c, 8, 74, 0
10, 120960, Note_on_c, 8, 75, 100
10, 120989, Note_on_c, 8, 75, 0
10, 120990, Note_on_c, 8, 69, 100
10, 121019, Note_on_c, 8, 69, 0
10, 121020, Note_on_c, 8, 67, 100
10, 121049, Note_on_c, 8, 67, 0
10, 121050, Note_on_c, 8, 65, 100
10, 121079, Note_on_c, 8, 65, 0
10, 121080, Note_on_c, 8, 75, 100
10, 121109, Note_on_c, 8, 75, 0
10, 121110, Note_on_c, 8, 69, 100
10, 121139, Note_on_c, 8, 69, 0
10, 121140, Note_on_c, 8, 67, 100
10, 121169, Note_on_c, 8, 67, 0
10, 121170, Note_on_c, 8, 65, 100
10, 121199, Note_on_c, 8, 65, 0
10, 121200, Note_on_c, 8, 74, 100
10, 121259, Note_on_c, 8, 74, 0
10, 121440, Note_on_c, 8, 65, 100
10, 121469, Note_on_c, 8, 65, 0
10, 121470, Note_on_c, 8, 70, 100
10, 121499, Note_on_c, 8, 70, 0
10, 121500, Note_on_c, 8, 72, 100
10, 121529, Note_on_c, 8, 72, 0
10, 121530, Note_on_c, 8, 74, 100
10, 121559, Note_on_c, 8, 74, 0
10, 121560, Note_on_c, 8, 65, 100
10, 121589, Note_on_c, 8, 65, 0
10, 121590, Note_on_c, 8, 71, 100
10, 121619, Note_on_c, 8, 71, 0
10, 121620, Note_on_c, 8, 72, 100
10, 121649, Note_on_c, 8, 72, 0
10, 121650, Note_on_c, 8, 74, 100
10, 121679, Note_on_c, 8, 74, 0
10, 121680, Note_on_c, 8, 79, 100
10, 121680, Note_on_c, 8, 71, 100
10, 121680, Note_on_c, 8, 67, 100
10, 121739, Note_on_c, 8, 67, 0
10, 121739, Note_on_c, 8, 71, 0
10, 121739, Note_on_c, 8, 79, 0
10, 121920, Note_on_c, 8, 60, 100
10, 121949, Note_on_c, 8, 60, 0
10, 121950, Note_on_c, 8, 70, 100
10, 121979, Note_on_c, 8, 70, 0
10, 121980, Note_on_c, 8, 69, 100
10, 122009, Note_on_c, 8, 69, 0
10, 122010, Note_on_c, 8, 67, 100
10, 122039, Note_on_c, 8, 67, 0
10, 122040, Note_on_c, 8, 60, 100
10, 122069, Note_on_c, 8, 60, 0
10, 122070, Note_on_c, 8, 67, 100
10, 122099, Note_on_c, 8, 67, 0
10, 122100, Note_on_c, 8, 69, 100
10, 122129, Note_on_c, 8, 69, 0
10, 122130, Note_on_c, 8, 70, 100
10, 122159, Note_on_c, 8, 70, 0
10, 122160, Note_on_c, 8, 77, 100
10, 122160, Note_on_c, 8, 69, 100
10, 122160, Note_on_c, 8, 72, 100
10, 122219, Note_on_c, 8, 72, 0
10, 122219, Note_on_c, 8, 69, 0
10, 122219, Note_on_c, 8, 77, 0
10, 122400, Note_on_c, 8, 77, 100
10, 122429, Note_on_c, 8, 77, 0
10, 122430, Note_on_c, 8, 74, 100
10, 122459, Note_on_c, 8, 74, 0
10, 122460, Note_on_c, 8, 72, 100
10, 122489, Note_on_c, 8, 72, 0
10, 122490, Note_on_c, 8, 70, 100
10, 122519, Note_on_c, 8, 70, 0
10, 122520, Note_on_c, 8, 77, 100
10, 122549, Note_on_c, 8, 77, 0
10, 122550, Note_on_c, 8, 72, 100
10, 122579, Note_on_c, 8, 72, 0
10, 122580, Note_on_c, 8, 71, 100
10, 122609, Note_on_c, 8, 71, 0
10, 122610, Note_on_c, 8, 69, 100
10, 122639, Note_on_c, 8, 69, 0
10, 122640, Note_on_c, 8, 76, 100
10, 122640, Note_on_c, 8, 71, 100
10, 122640, Note_on_c, 8, 68, 100
10, 122699, Note_on_c, 8, 68, 0
10, 122699, Note_on_c, 8, 71, 0
10, 122699, Note_on_c, 8, 76, 0
10, 122820, Note_on_c, 8, 64, 100
10, 122820, Note_on_c, 8, 57, 100
10, 122879, Note_on_c, 8, 57, 0
10, 122879, Note_on_c, 8, 64, 0
10, 122880, Note_on_c, 8, 69, 100
10, 122880, Note_on_c, 8, 66, 100
10, 122880, Note_on_c, 8, 62, 100
10, 122880, Note_on_c, 8, 57, 100
10, 122939, Note_on_c, 8, 57, 0
10, 122939, Note_on_c, 8, 69, 0
10, 122939, Note_on_c, 8, 66, 0
10, 122939, Note_on_c, 8, 62, 0
10, 123060, Note_on_c, 8, 55, 100
10, 123060, Note_on_c, 8, 62, 100
10, 123119, Note_on_c, 8, 62, 0
10, 123119, Note_on_c, 8, 55, 0
10, 123120, Note_on_c, 8, 67, 100
10, 123120, Note_on_c, 8, 64, 100
10, 123120, Note_on_c, 8, 60, 100
10, 123120, Note_on_c, 8, 55, 100
10, 123179, Note_on_c, 8, 55, 0
10, 123179, Note_on_c, 8, 67, 0
10, 123179, Note_on_c, 8, 64, 0
10, 123179, Note_on_c, 8, 60, 0
10, 123300, Note_on_c, 8, 53, 100
10, 123300, Note_on_c, 8, 60, 100
10, 123359, Note_on_c, 8, 60, 0
10, 123359, Note_on_c, 8, 53, 0
10, 123360, Note_on_c, 8, 65, 100
10, 123360, Note_on_c, 8, 62, 100
10, 123360, Note_on_c, 8, 59, 100
10, 123360, Note_on_c, 8, 53, 100
10, 123419, Note_on_c, 8, 53, 0
10, 123419, Note_on_c, 8, 65, 0
10, 123419, Note_on_c, 8, 62, 0
10, 123419, Note_on_c, 8, 59, 0
10, 123540, Note_on_c, 8, 58, 100
10, 123540, Note_on_c, 8, 67, 100
10, 123599, Note_on_c, 8, 67, 0
10, 123599, Note_on_c, 8, 58, 0
10, 123600, Note_on_c, 8, 64, 100
10, 123600, Note_on_c, 8, 61, 100
10, 123600, Note_on_c, 8, 57, 100
10, 123719, Note_on_c, 8, 57, 0
10, 123719, Note_on_c, 8, 61, 0
10, 123719, Note_on_c, 8, 64, 0
10, 123840, Note_on_c, 8, 57, 100
10, 123899, Note_on_c, 8, 57, 0
10, 123900, Note_on_c, 8, 62, 100
10, 124019, Note_on_c, 8, 62, 0
10, 124020, Note_on_c, 8, 61, 100
10, 124079, Note_on_c, 8, 61, 0
10, 124080, Note_on_c, 8, 62, 100
10, 124139, Note_on_c, 8, 62, 0
10, 124140, Note_on_c, 8, 64, 100
10, 124259, Note_on_c, 8, 64, 0
10, 124260, Note_on_c, 8, 65, 100
10, 124379, Note_on_c, 8, 65, 0
10, 124380, Note_on_c, 8, 64, 100
10, 124409, Note_on_c, 8, 64, 0
10, 124410, Note_on_c, 8, 62, 100
10, 124439, Note_on_c, 8, 62, 0
10, 124440, Note_on_c, 8, 65, 100
10, 124469, Note_on_c, 8, 65, 0
10, 124470, Note_on_c, 8, 64, 100
10, 124499, Note_on_c, 8, 64, 0
10, 124500, Note_on_c, 8, 62, 100
10, 124529, Note_on_c, 8, 62, 0
10, 124530, Note_on_c, 8, 61, 100
10, 124559, Note_on_c, 8, 61, 0
10, 124560, Note_on_c, 8, 62, 100
10, 124619, Note_on_c, 8, 62, 0
10, 125340, Note_on_c, 8, 60, 100
10, 125340, Note_on_c, 8, 67, 100
10, 125399, Note_on_c, 8, 67, 0
10, 125399, Note_on_c, 8, 60, 0
10, 125400, Note_on_c, 8, 71, 100
10, 125400, Note_on_c, 8, 62, 100
10, 125459, Note_on_c, 8, 62, 0
10, 125459, Note_on_c, 8, 71, 0
10, 125460, Note_on_c, 8, 65, 100
10, 125460, Note_on_c, 8, 74, 100
10, 125519, Note_on_c, 8, 74, 0
10, 125519, Note_on_c, 8, 65, 0
10, 125520, Note_on_c, 8, 67, 100
10, 125520, Note_on_c, 8, 76, 100
10, 125579, Note_on_c, 8, 76, 0
10, 125579, Note_on_c, 8, 67, 0
10, 126300, Note_on_c, 8, 58, 100
10, 126300, Note_on_c, 8, 65, 100
10, 126359, Note_on_c, 8, 65, 0
10, 126359, Note_on_c, 8, 58, 0
10, 126360, Note_on_c, 8, 60, 100
10, 126360, Note_on_c, 8, 69, 100
10, 126419, Note_on_c, 8, 69, 0
10, 126419, Note_on_c, 8, 60, 0
10, 126420, Note_on_c, 8, 63, 100
10, 126420, Note_on_c, 8, 72, 100
10, 126479, Note_on_c, 8, 72, 0
10, 126479, Note_on_c, 8, 63, 0
10, 126480, Note_on_c, 8, 65, 100
10, 126480, Note_on_c, 8, 74, 100
10, 126539, Note_on_c, 8, 74, 0
10, 126539, Note_on_c, 8, 65, 0
10, 127260, Note_on_c, 8, 69, 100
10, 127260, Note_on_c, 8, 64, 100
10, 127319, Note_on_c, 8, 64, 0
10, 127319, Note_on_c, 8, 69, 0
10, 127320, Note_on_c, 8, 68, 100
10, 127320, Note_on_c, 8, 62, 100
10, 127379, Note_on_c, 8, 62, 0
10, 127379, Note_on_c, 8, 68, 0
10, 127380, Note_on_c, 8, 71, 100
10, 127380, Note_on_c, 8, 62, 100
10, 127439, Note_on_c, 8, 62, 0
10, 127439, Note_on_c, 8, 71, 0
10, 127440, Note_on_c, 8, 73, 100
10, 127440, Note_on_c, 8, 64, 100
10, 127499, Note_on_c, 8, 64, 0
10, 127499, Note_on_c, 8, 73, 0
10, 127920, Note_on_c, 8, 69, 100
10, 127979, Note_on_c, 8, 69, 0
10, 127980, Note_on_c, 8, 74, 100
10, 128099, Note_on_c, 8, 74, 0
10, 128100, Note_on_c, 8, 73, 100
10, 128159, Note_on_c, 8, 73, 0
10, 128160, Note_on_c, 8, 74, 100
10, 128219, Note_on_c, 8, 74, 0
10, 128220, Note_on_c, 8, 76, 100
10, 128339, Note_on_c, 8, 76, 0
10, 128340, Note_on_c, 8, 77, 100
10, 128459, Note_on_c, 8, 77, 0
10, 128460, Note_on_c, 8, 76, 100
10, 128489, Note_on_c, 8, 76, 0
10, 128490, Note_on_c, 8, 74, 100
10, 128519, Note_on_c, 8, 74, 0
10, 128520, Note_on_c, 8, 77, 100
10, 128549, Note_on_c, 8, 77, 0
10, 128550, Note_on_c, 8, 76, 100
10, 128579, Note_on_c, 8, 76, 0
10, 128580, Note_on_c, 8, 74, 100
10, 128609, Note_on_c, 8, 74, 0
10, 128610, Note_on_c, 8, 73, 100
10, 128639, Note_on_c, 8, 73, 0
10, 128640, Note_on_c, 8, 74, 100
10, 128699, Note_on_c, 8, 74, 0
10, 128700, Note_on_c, 8, 74, 100
10, 128819, Note_on_c, 8, 74, 0
10, 128820, Note_on_c, 8, 79, 100
10, 128939, Note_on_c, 8, 79, 0
10, 128940, Note_on_c, 8, 76, 100
10, 129059, Note_on_c, 8, 76, 0
10, 129060, Note_on_c, 8, 81, 100
10, 129119, Note_on_c, 8, 81, 0
10, 129120, Note_on_c, 8, 79, 100
10, 129149, Note_on_c, 8, 79, 0
10, 129150, Note_on_c, 8, 77, 100
10, 129179, Note_on_c, 8, 77, 0
10, 129180, Note_on_c, 8, 76, 100
10, 129209, Note_on_c, 8, 76, 0
10, 129210, Note_on_c, 8, 74, 100
10, 129239, Note_on_c, 8, 74, 0
10, 129240, Note_on_c, 8, 77, 100
10, 129269, Note_on_c, 8, 77, 0
10, 129270, Note_on_c, 8, 76, 100
10, 129299, Note_on_c, 8, 76, 0
10, 129300, Note_on_c, 8, 74, 100
10, 129329, Note_on_c, 8, 74, 0
10, 129330, Note_on_c, 8, 73, 100
10, 129359, Note_on_c, 8, 73, 0
10, 129360, Note_on_c, 8, 74, 100
10, 129379, Note_on_c, 8, 74, 0
10, 129380, Note_on_c, 8, 76, 100
10, 129399, Note_on_c, 8, 76, 0
10, 129400, Note_on_c, 8, 74, 100
10, 129419, Note_on_c, 8, 74, 0
10, 129420, Note_on_c, 8, 76, 100
10, 129434, Note_on_c, 8, 76, 0
10, 129435, Note_on_c, 8, 74, 100
10, 129449, Note_on_c, 8, 74, 0
10, 129450, Note_on_c, 8, 76, 100
10, 129464, Note_on_c, 8, 76, 0
10, 129465, Note_on_c, 8, 74, 100
10, 129479, Note_on_c, 8, 74, 0
10, 129480, Note_on_c, 8, 76, 100
10, 129494, Note_on_c, 8, 76, 0
10, 129495, Note_on_c, 8, 74, 100
10, 129509, Note_on_c, 8, 74, 0
10, 129510, Note_on_c, 8, 76, 100
10, 129524, Note_on_c, 8, 76, 0
10, 129525, Note_on_c, 8, 74, 100
10, 129539, Note_on_c, 8, 74, 0
10, 129540, Note_on_c, 8, 76, 100
10, 129554, Note_on_c, 8, 76, 0
10, 129555, Note_on_c, 8, 74, 100
10, 129569, Note_on_c, 8, 74, 0
10, 129570, Note_on_c, 8, 76, 100
10, 129584, Note_on_c, 8, 76, 0
10, 129585, Note_on_c, 8, 74, 100
10, 129599, Note_on_c, 8, 74, 0
10, 129600, Note_on_c, 8, 76, 100
10, 129614, Note_on_c, 8, 76, 0
10, 129615, Note_on_c, 8, 74, 100
10, 129629, Note_on_c, 8, 74, 0
10, 129630, Note_on_c, 8, 76, 100
10, 129644, Note_on_c, 8, 76, 0
10, 129645, Note_on_c, 8, 74, 100
10, 129659, Note_on_c, 8, 74, 0
10, 129660, Note_on_c, 8, 76, 100
10, 129674, Note_on_c, 8, 76, 0
10, 129675, Note_on_c, 8, 74, 100
10, 129689, Note_on_c, 8, 74, 0
10, 129690, Note_on_c, 8, 76, 100
10, 129704, Note_on_c, 8, 76, 0
10, 129705, Note_on_c, 8, 74, 100
10, 129719, Note_on_c, 8, 74, 0
10, 129720, Note_on_c, 8, 76, 100
10, 129734, Note_on_c, 8, 76, 0
10, 129735, Note_on_c, 8, 74, 100
10, 129749, Note_on_c, 8, 74, 0
10, 129750, Note_on_c, 8, 76, 100
10, 129764, Note_on_c, 8, 76, 0
10, 129765, Note_on_c, 8, 74, 100
10, 129779, Note_on_c, 8, 74, 0
10, 129780, Note_on_c, 8, 76, 100
10, 129794, Note_on_c, 8, 76, 0
10, 129795, Note_on_c, 8, 74, 100
10, 129809, Note_on_c, 8, 74, 0
10, 129810, Note_on_c, 8, 76, 100
10, 129824, Note_on_c, 8, 76, 0
10, 129825, Note_on_c, 8, 74, 100
10, 129839, Note_on_c, 8, 74, 0
10, 129840, Note_on_c, 8, 76, 100
10, 129854, Note_on_c, 8, 76, 0
10, 129855, Note_on_c, 8, 74, 100
10, 129869, Note_on_c, 8, 74, 0
10, 129870, Note_on_c, 8, 76, 100
10, 129884, Note_on_c, 8, 76, 0
10, 129885, Note_on_c, 8, 74, 100
10, 129899, Note_on_c, 8, 74, 0
10, 129900, Note_on_c, 8, 76, 100
10, 129914, Note_on_c, 8, 76, 0
10, 129915, Note_on_c, 8, 74, 100
10, 129929, Note_on_c, 8, 74, 0
10, 129930, Note_on_c, 8, 76, 100
10, 129944, Note_on_c, 8, 76, 0
10, 129945, Note_on_c, 8, 74, 100
10, 129959, Note_on_c, 8, 74, 0
10, 129960, Note_on_c, 8, 76, 100
10, 129974, Note_on_c, 8, 76, 0
10, 129975, Note_on_c, 8, 74, 100
10, 129989, Note_on_c, 8, 74, 0
10, 129990, Note_on_c, 8, 76, 100
10, 130004, Note_on_c, 8, 76, 0
10, 130005, Note_on_c, 8, 74, 100
10, 130019, Note_on_c, 8, 74, 0
10, 130020, Note_on_c, 8, 76, 100
10, 130034, Note_on_c, 8, 76, 0
10, 130035, Note_on_c, 8, 74, 100
10, 130049, Note_on_c, 8, 74, 0
10, 130050, Note_on_c, 8, 76, 100
10, 130064, Note_on_c, 8, 76, 0
10, 130065, Note_on_c, 8, 74, 100
10, 130079, Note_on_c, 8, 74, 0
10, 130080, Note_on_c, 8, 76, 100
10, 130094, Note_on_c, 8, 76, 0
10, 130095, Note_on_c, 8, 74, 100
10, 130109, Note_on_c, 8, 74, 0
10, 130110, Note_on_c, 8, 76, 100
10, 130124, Note_on_c, 8, 76, 0
10, 130125, Note_on_c, 8, 74, 100
10, 130139, Note_on_c, 8, 74, 0
10, 130140, Note_on_c, 8, 76, 100
10, 130154, Note_on_c, 8, 76, 0
10, 130155, Note_on_c, 8, 74, 100
10, 130169, Note_on_c, 8, 74, 0
10, 130170, Note_on_c, 8, 76, 100
10, 130184, Note_on_c, 8, 76, 0
10, 130185, Note_on_c, 8, 74, 100
10, 130199, Note_on_c, 8, 74, 0
10, 130200, Note_on_c, 8, 76, 100
10, 130214, Note_on_c, 8, 76, 0
10, 130215, Note_on_c, 8, 74, 100
10, 130229, Note_on_c, 8, 74, 0
10, 130230, Note_on_c, 8, 76, 100
10, 130244, Note_on_c, 8, 76, 0
10, 130245, Note_on_c, 8, 74, 100
10, 130259, Note_on_c, 8, 74, 0
10, 130260, Note_on_c, 8, 76, 100
10, 130274, Note_on_c, 8, 76, 0
10, 130275, Note_on_c, 8, 74, 100
10, 130289, Note_on_c, 8, 74, 0
10, 130290, Note_on_c, 8, 76, 100
10, 130304, Note_on_c, 8, 76, 0
10, 130305, Note_on_c, 8, 74, 100
10, 130319, Note_on_c, 8, 74, 0
10, 130320, Note_on_c, 8, 76, 100
10, 130334, Note_on_c, 8, 76, 0
10, 130335, Note_on_c, 8, 74, 100
10, 130349, Note_on_c, 8, 74, 0
10, 130350, Note_on_c, 8, 76, 100
10, 130364, Note_on_c, 8, 76, 0
10, 130365, Note_on_c, 8, 74, 100
10, 130379, Note_on_c, 8, 74, 0
10, 130380, Note_on_c, 8, 76, 100
10, 130380, Note_on_c, 8, 67, 100
10, 130380, Note_on_c, 8, 70, 100
10, 130439, Note_on_c, 8, 70, 0
10, 130439, Note_on_c, 8, 67, 0
10, 130439, Note_on_c, 8, 76, 0
10, 130440, Note_on_c, 8, 69, 100
10, 130440, Note_on_c, 8, 65, 100
10, 130499, Note_on_c, 8, 65, 0
10, 130499, Note_on_c, 8, 69, 0
10, 130500, Note_on_c, 8, 73, 100
10, 130500, Note_on_c, 8, 69, 100
10, 130500, Note_on_c, 8, 67, 100
10, 130500, Note_on_c, 8, 64, 100
10, 130559, Note_on_c, 8, 64, 0
10, 130559, Note_on_c, 8, 73, 0
10, 130559, Note_on_c, 8, 69, 0
10, 130559, Note_on_c, 8, 67, 0
10, 130560, Note_on_c, 8, 74, 100
10, 130560, Note_on_c, 8, 69, 100
10, 130560, Note_on_c, 8, 65, 100
10, 130560, Note_on_c, 8, 62, 100
10, 130799, Note_on_c, 8, 62, 0
10, 130799, Note_on_c, 8, 74, 0
10, 130799, Note_on_c, 8, 69, 0
10, 130799, Note_on_c, 8, 65, 0
10, 130799, End_track
11, 0, Start_track
11, 0, MIDI_port, 0
11, 0, Title_t, "clave l iii"
11, 0, Program_c, 10, 6
11, 60, Note_on_c, 10, 50, 110
11, 120, Note_on_c, 10, 50, 0
11, 120, Note_on_c, 10, 52, 110
11, 180, Note_on_c, 10, 52, 0
11, 180, Note_on_c, 10, 53, 110
11, 240, Note_on_c, 10, 53, 0
11, 240, Note_on_c, 10, 53, 110
11, 300, Note_on_c, 10, 53, 0
11, 300, Note_on_c, 10, 55, 110
11, 360, Note_on_c, 10, 55, 0
11, 360, Note_on_c, 10, 57, 110
11, 420, Note_on_c, 10, 57, 0
11, 420, Note_on_c, 10, 57, 110
11, 480, Note_on_c, 10, 57, 0
11, 480, Note_on_c, 10, 58, 110
11, 540, Note_on_c, 10, 58, 0
11, 540, Note_on_c, 10, 57, 110
11, 600, Note_on_c, 10, 57, 0
11, 600, Note_on_c, 10, 55, 110
11, 630, Note_on_c, 10, 55, 0
11, 630, Note_on_c, 10, 53, 110
11, 660, Note_on_c, 10, 53, 0
11, 660, Note_on_c, 10, 52, 110
11, 690, Note_on_c, 10, 52, 0
11, 690, Note_on_c, 10, 50, 110
11, 720, Note_on_c, 10, 50, 0
11, 720, Note_on_c, 10, 49, 110
11, 780, Note_on_c, 10, 49, 0
11, 780, Note_on_c, 10, 45, 110
11, 810, Note_on_c, 10, 45, 0
11, 810, Note_on_c, 10, 47, 110
11, 840, Note_on_c, 10, 47, 0
11, 840, Note_on_c, 10, 49, 110
11, 870, Note_on_c, 10, 49, 0
11, 870, Note_on_c, 10, 50, 110
11, 900, Note_on_c, 10, 50, 0
11, 900, Note_on_c, 10, 52, 110
11, 960, Note_on_c, 10, 52, 0
11, 960, Note_on_c, 10, 52, 110
11, 1020, Note_on_c, 10, 52, 0
11, 1020, Note_on_c, 10, 53, 110
11, 1080, Note_on_c, 10, 53, 0
11, 1080, Note_on_c, 10, 52, 110
11, 1140, Note_on_c, 10, 52, 0
11, 1140, Note_on_c, 10, 45, 110
11, 1170, Note_on_c, 10, 45, 0
11, 1170, Note_on_c, 10, 47, 110
11, 1200, Note_on_c, 10, 47, 0
11, 1200, Note_on_c, 10, 49, 110
11, 1230, Note_on_c, 10, 49, 0
11, 1230, Note_on_c, 10, 50, 110
11, 1260, Note_on_c, 10, 50, 0
11, 1260, Note_on_c, 10, 52, 110
11, 1320, Note_on_c, 10, 52, 0
11, 1320, Note_on_c, 10, 52, 110
11, 1380, Note_on_c, 10, 52, 0
11, 1380, Note_on_c, 10, 53, 110
11, 1440, Note_on_c, 10, 53, 0
11, 1440, Note_on_c, 10, 52, 110
11, 1500, Note_on_c, 10, 52, 0
11, 1500, Note_on_c, 10, 45, 110
11, 1530, Note_on_c, 10, 45, 0
11, 1530, Note_on_c, 10, 47, 110
11, 1560, Note_on_c, 10, 47, 0
11, 1560, Note_on_c, 10, 49, 110
11, 1590, Note_on_c, 10, 49, 0
11, 1590, Note_on_c, 10, 50, 110
11, 1620, Note_on_c, 10, 50, 0
11, 1620, Note_on_c, 10, 52, 110
11, 1650, Note_on_c, 10, 52, 0
11, 1650, Note_on_c, 10, 50, 110
11, 1680, Note_on_c, 10, 50, 0
11, 1680, Note_on_c, 10, 49, 110
11, 1710, Note_on_c, 10, 49, 0
11, 1710, Note_on_c, 10, 50, 110
11, 1740, Note_on_c, 10, 50, 0
11, 1740, Note_on_c, 10, 52, 110
11, 1770, Note_on_c, 10, 52, 0
11, 1770, Note_on_c, 10, 53, 110
11, 1800, Note_on_c, 10, 53, 0
11, 1800, Note_on_c, 10, 55, 110
11, 1830, Note_on_c, 10, 55, 0
11, 1830, Note_on_c, 10, 53, 110
11, 1860, Note_on_c, 10, 53, 0
11, 1860, Note_on_c, 10, 52, 110
11, 1890, Note_on_c, 10, 52, 0
11, 1890, Note_on_c, 10, 53, 110
11, 1920, Note_on_c, 10, 53, 0
11, 1920, Note_on_c, 10, 55, 110
11, 1950, Note_on_c, 10, 55, 0
11, 1950, Note_on_c, 10, 57, 110
11, 1980, Note_on_c, 10, 57, 0
11, 1980, Note_on_c, 10, 58, 110
11, 2010, Note_on_c, 10, 58, 0
11, 2010, Note_on_c, 10, 57, 110
11, 2040, Note_on_c, 10, 57, 0
11, 2040, Note_on_c, 10, 55, 110
11, 2070, Note_on_c, 10, 55, 0
11, 2070, Note_on_c, 10, 53, 110
11, 2100, Note_on_c, 10, 53, 0
11, 2100, Note_on_c, 10, 52, 110
11, 2130, Note_on_c, 10, 52, 0
11, 2130, Note_on_c, 10, 50, 110
11, 2160, Note_on_c, 10, 50, 0
11, 2160, Note_on_c, 10, 49, 110
11, 2190, Note_on_c, 10, 49, 0
11, 2190, Note_on_c, 10, 52, 110
11, 2220, Note_on_c, 10, 52, 0
11, 2220, Note_on_c, 10, 45, 110
11, 2250, Note_on_c, 10, 45, 0
11, 2250, Note_on_c, 10, 49, 110
11, 2280, Note_on_c, 10, 49, 0
11, 2280, Note_on_c, 10, 50, 110
11, 2340, Note_on_c, 10, 50, 0
11, 2370, Note_on_c, 10, 43, 110
11, 2400, Note_on_c, 10, 43, 0
11, 2400, Note_on_c, 10, 45, 110
11, 2460, Note_on_c, 10, 45, 0
11, 2460, Note_on_c, 10, 45, 110
11, 2520, Note_on_c, 10, 45, 0
11, 2520, Note_on_c, 10, 38, 110
11, 2520, Note_on_c, 10, 50, 110
11, 2580, Note_on_c, 10, 50, 0
11, 2580, Note_on_c, 10, 38, 0
11, 2760, Note_on_c, 10, 50, 110
11, 2820, Note_on_c, 10, 50, 0
11, 2820, Note_on_c, 10, 52, 110
11, 2880, Note_on_c, 10, 52, 0
11, 2880, Note_on_c, 10, 53, 110
11, 2940, Note_on_c, 10, 53, 0
11, 2940, Note_on_c, 10, 53, 110
11, 3000, Note_on_c, 10, 53, 0
11, 3000, Note_on_c, 10, 55, 110
11, 3060, Note_on_c, 10, 55, 0
11, 3060, Note_on_c, 10, 57, 110
11, 3120, Note_on_c, 10, 57, 0
11, 3120, Note_on_c, 10, 57, 110
11, 3180, Note_on_c, 10, 57, 0
11, 3180, Note_on_c, 10, 58, 110
11, 3240, Note_on_c, 10, 58, 0
11, 3240, Note_on_c, 10, 57, 110
11, 3300, Note_on_c, 10, 57, 0
11, 3300, Note_on_c, 10, 55, 110
11, 3330, Note_on_c, 10, 55, 0
11, 3330, Note_on_c, 10, 53, 110
11, 3360, Note_on_c, 10, 53, 0
11, 3360, Note_on_c, 10, 52, 110
11, 3390, Note_on_c, 10, 52, 0
11, 3390, Note_on_c, 10, 50, 110
11, 3420, Note_on_c, 10, 50, 0
11, 3420, Note_on_c, 10, 49, 110
11, 3480, Note_on_c, 10, 49, 0
11, 3480, Note_on_c, 10, 45, 110
11, 3540, Note_on_c, 10, 45, 0
11, 3540, Note_on_c, 10, 50, 110
11, 3600, Note_on_c, 10, 50, 0
11, 3600, Note_on_c, 10, 45, 110
11, 3660, Note_on_c, 10, 45, 0
11, 3660, Note_on_c, 10, 49, 110
11, 3720, Note_on_c, 10, 49, 0
11, 3720, Note_on_c, 10, 52, 110
11, 3780, Note_on_c, 10, 52, 0
11, 3780, Note_on_c, 10, 57, 110
11, 3840, Note_on_c, 10, 57, 0
11, 3840, Note_on_c, 10, 55, 110
11, 3870, Note_on_c, 10, 55, 0
11, 3870, Note_on_c, 10, 53, 110
11, 3900, Note_on_c, 10, 53, 0
11, 3900, Note_on_c, 10, 52, 110
11, 3930, Note_on_c, 10, 52, 0
11, 3930, Note_on_c, 10, 50, 110
11, 3960, Note_on_c, 10, 50, 0
11, 3960, Note_on_c, 10, 57, 110
11, 4020, Note_on_c, 10, 57, 0
11, 4200, Note_on_c, 10, 57, 110
11, 4260, Note_on_c, 10, 57, 0
11, 4260, Note_on_c, 10, 59, 110
11, 4320, Note_on_c, 10, 59, 0
11, 4320, Note_on_c, 10, 60, 110
11, 4380, Note_on_c, 10, 60, 0
11, 4380, Note_on_c, 10, 60, 110
11, 4440, Note_on_c, 10, 60, 0
11, 4440, Note_on_c, 10, 62, 110
11, 4500, Note_on_c, 10, 62, 0
11, 4500, Note_on_c, 10, 64, 110
11, 4560, Note_on_c, 10, 64, 0
11, 4560, Note_on_c, 10, 64, 110
11, 4620, Note_on_c, 10, 64, 0
11, 4620, Note_on_c, 10, 65, 110
11, 4680, Note_on_c, 10, 65, 0
11, 4680, Note_on_c, 10, 64, 110
11, 4740, Note_on_c, 10, 64, 0
11, 4740, Note_on_c, 10, 62, 110
11, 4770, Note_on_c, 10, 62, 0
11, 4770, Note_on_c, 10, 60, 110
11, 4800, Note_on_c, 10, 60, 0
11, 4800, Note_on_c, 10, 59, 110
11, 4830, Note_on_c, 10, 59, 0
11, 4830, Note_on_c, 10, 57, 110
11, 4860, Note_on_c, 10, 57, 0
11, 4860, Note_on_c, 10, 56, 110
11, 4920, Note_on_c, 10, 56, 0
11, 4920, Note_on_c, 10, 52, 110
11, 4980, Note_on_c, 10, 52, 0
11, 4980, Note_on_c, 10, 57, 110
11, 5040, Note_on_c, 10, 57, 0
11, 5040, Note_on_c, 10, 52, 110
11, 5100, Note_on_c, 10, 52, 0
11, 5100, Note_on_c, 10, 64, 110
11, 5160, Note_on_c, 10, 64, 0
11, 5160, Note_on_c, 10, 52, 110
11, 5220, Note_on_c, 10, 52, 0
11, 5220, Note_on_c, 10, 57, 110
11, 5250, Note_on_c, 10, 57, 0
11, 5250, Note_on_c, 10, 58, 110
11, 5280, Note_on_c, 10, 58, 0
11, 5280, Note_on_c, 10, 57, 110
11, 5310, Note_on_c, 10, 57, 0
11, 5310, Note_on_c, 10, 55, 110
11, 5340, Note_on_c, 10, 55, 0
11, 5340, Note_on_c, 10, 53, 110
11, 5370, Note_on_c, 10, 53, 0
11, 5370, Note_on_c, 10, 52, 110
11, 5400, Note_on_c, 10, 52, 0
11, 5400, Note_on_c, 10, 50, 100
11, 5459, Note_on_c, 10, 50, 0
11, 5460, Note_on_c, 10, 57, 100
11, 5519, Note_on_c, 10, 57, 0
11, 5520, Note_on_c, 10, 54, 100
11, 5579, Note_on_c, 10, 54, 0
11, 5580, Note_on_c, 10, 50, 100
11, 5639, Note_on_c, 10, 50, 0
11, 5640, Note_on_c, 10, 55, 100
11, 5699, Note_on_c, 10, 55, 0
11, 5700, Note_on_c, 10, 43, 100
11, 5759, Note_on_c, 10, 43, 0
11, 5760, Note_on_c, 10, 60, 100
11, 5789, Note_on_c, 10, 60, 0
11, 5790, Note_on_c, 10, 62, 100
11, 5819, Note_on_c, 10, 62, 0
11, 5820, Note_on_c, 10, 60, 100
11, 5849, Note_on_c, 10, 60, 0
11, 5850, Note_on_c, 10, 58, 100
11, 5879, Note_on_c, 10, 58, 0
11, 5880, Note_on_c, 10, 57, 100
11, 5909, Note_on_c, 10, 57, 0
11, 5910, Note_on_c, 10, 55, 100
11, 5939, Note_on_c, 10, 55, 0
11, 5940, Note_on_c, 10, 53, 100
11, 5999, Note_on_c, 10, 53, 0
11, 6000, Note_on_c, 10, 52, 100
11, 6059, Note_on_c, 10, 52, 0
11, 6060, Note_on_c, 10, 50, 100
11, 6119, Note_on_c, 10, 50, 0
11, 6120, Note_on_c, 10, 52, 100
11, 6179, Note_on_c, 10, 52, 0
11, 6180, Note_on_c, 10, 50, 100
11, 6209, Note_on_c, 10, 50, 0
11, 6210, Note_on_c, 10, 48, 100
11, 6239, Note_on_c, 10, 48, 0
11, 6240, Note_on_c, 10, 47, 100
11, 6269, Note_on_c, 10, 47, 0
11, 6270, Note_on_c, 10, 45, 100
11, 6299, Note_on_c, 10, 45, 0
11, 6300, Note_on_c, 10, 44, 100
11, 6359, Note_on_c, 10, 44, 0
11, 6360, Note_on_c, 10, 40, 100
11, 6419, Note_on_c, 10, 40, 0
11, 6420, Note_on_c, 10, 45, 100
11, 6479, Note_on_c, 10, 45, 0
11, 6480, Note_on_c, 10, 52, 100
11, 6539, Note_on_c, 10, 52, 0
11, 6540, Note_on_c, 10, 40, 100
11, 6569, Note_on_c, 10, 40, 0
11, 6570, Note_on_c, 10, 42, 100
11, 6599, Note_on_c, 10, 42, 0
11, 6600, Note_on_c, 10, 44, 100
11, 6629, Note_on_c, 10, 44, 0
11, 6630, Note_on_c, 10, 45, 100
11, 6659, Note_on_c, 10, 45, 0
11, 6660, Note_on_c, 10, 47, 100
11, 6689, Note_on_c, 10, 47, 0
11, 6690, Note_on_c, 10, 45, 100
11, 6719, Note_on_c, 10, 45, 0
11, 6720, Note_on_c, 10, 44, 100
11, 6749, Note_on_c, 10, 44, 0
11, 6750, Note_on_c, 10, 45, 100
11, 6779, Note_on_c, 10, 45, 0
11, 6780, Note_on_c, 10, 47, 100
11, 6809, Note_on_c, 10, 47, 0
11, 6810, Note_on_c, 10, 48, 100
11, 6839, Note_on_c, 10, 48, 0
11, 6840, Note_on_c, 10, 50, 100
11, 6869, Note_on_c, 10, 50, 0
11, 6870, Note_on_c, 10, 48, 100
11, 6899, Note_on_c, 10, 48, 0
11, 6900, Note_on_c, 10, 47, 100
11, 6929, Note_on_c, 10, 47, 0
11, 6930, Note_on_c, 10, 48, 100
11, 6959, Note_on_c, 10, 48, 0
11, 6960, Note_on_c, 10, 50, 100
11, 6989, Note_on_c, 10, 50, 0
11, 6990, Note_on_c, 10, 52, 100
11, 7019, Note_on_c, 10, 52, 0
11, 7020, Note_on_c, 10, 53, 100
11, 7049, Note_on_c, 10, 53, 0
11, 7050, Note_on_c, 10, 52, 100
11, 7079, Note_on_c, 10, 52, 0
11, 7080, Note_on_c, 10, 50, 100
11, 7109, Note_on_c, 10, 50, 0
11, 7110, Note_on_c, 10, 48, 100
11, 7139, Note_on_c, 10, 48, 0
11, 7140, Note_on_c, 10, 47, 100
11, 7169, Note_on_c, 10, 47, 0
11, 7170, Note_on_c, 10, 45, 100
11, 7199, Note_on_c, 10, 45, 0
11, 7200, Note_on_c, 10, 44, 100
11, 7229, Note_on_c, 10, 44, 0
11, 7230, Note_on_c, 10, 47, 100
11, 7259, Note_on_c, 10, 47, 0
11, 7260, Note_on_c, 10, 40, 100
11, 7289, Note_on_c, 10, 40, 0
11, 7290, Note_on_c, 10, 44, 100
11, 7319, Note_on_c, 10, 44, 0
11, 7320, Note_on_c, 10, 45, 100
11, 7379, Note_on_c, 10, 45, 0
11, 7410, Note_on_c, 10, 38, 100
11, 7439, Note_on_c, 10, 38, 0
11, 7440, Note_on_c, 10, 40, 100
11, 7499, Note_on_c, 10, 40, 0
11, 7500, Note_on_c, 10, 52, 100
11, 7559, Note_on_c, 10, 52, 0
11, 7560, Note_on_c, 10, 45, 100
11, 7679, Note_on_c, 10, 45, 0
11, 7740, Note_on_c, 10, 45, 100
11, 7859, Note_on_c, 10, 45, 0
11, 7980, Note_on_c, 10, 57, 100
11, 8039, Note_on_c, 10, 57, 0
11, 8040, Note_on_c, 10, 55, 100
11, 8099, Note_on_c, 10, 55, 0
11, 8100, Note_on_c, 10, 53, 100
11, 8159, Note_on_c, 10, 53, 0
11, 8160, Note_on_c, 10, 53, 100
11, 8219, Note_on_c, 10, 53, 0
11, 8220, Note_on_c, 10, 52, 100
11, 8279, Note_on_c, 10, 52, 0
11, 8280, Note_on_c, 10, 50, 100
11, 8309, Note_on_c, 10, 50, 0
11, 8310, Note_on_c, 10, 62, 100
11, 8339, Note_on_c, 10, 62, 0
11, 8340, Note_on_c, 10, 57, 100
11, 8369, Note_on_c, 10, 57, 0
11, 8370, Note_on_c, 10, 62, 100
11, 8399, Note_on_c, 10, 62, 0
11, 8400, Note_on_c, 10, 53, 100
11, 8429, Note_on_c, 10, 53, 0
11, 8430, Note_on_c, 10, 57, 100
11, 8459, Note_on_c, 10, 57, 0
11, 8460, Note_on_c, 10, 50, 100
11, 8579, Note_on_c, 10, 50, 0
11, 8700, Note_on_c, 10, 62, 100
11, 8759, Note_on_c, 10, 62, 0
11, 8760, Note_on_c, 10, 60, 100
11, 8819, Note_on_c, 10, 60, 0
11, 8820, Note_on_c, 10, 58, 100
11, 8879, Note_on_c, 10, 58, 0
11, 8880, Note_on_c, 10, 58, 100
11, 8939, Note_on_c, 10, 58, 0
11, 8940, Note_on_c, 10, 57, 100
11, 8999, Note_on_c, 10, 57, 0
11, 9000, Note_on_c, 10, 55, 100
11, 9210, Note_on_c, 10, 55, 0
11, 9210, Note_on_c, 10, 48, 100
11, 9239, Note_on_c, 10, 48, 0
11, 9240, Note_on_c, 10, 52, 100
11, 9269, Note_on_c, 10, 52, 0
11, 9270, Note_on_c, 10, 55, 100
11, 9299, Note_on_c, 10, 55, 0
11, 9300, Note_on_c, 10, 52, 100
11, 9329, Note_on_c, 10, 52, 0
11, 9330, Note_on_c, 10, 48, 100
11, 9359, Note_on_c, 10, 48, 0
11, 9360, Note_on_c, 10, 53, 100
11, 9570, Note_on_c, 10, 53, 0
11, 9570, Note_on_c, 10, 46, 100
11, 9599, Note_on_c, 10, 46, 0
11, 9600, Note_on_c, 10, 50, 100
11, 9629, Note_on_c, 10, 50, 0
11, 9630, Note_on_c, 10, 53, 100
11, 9659, Note_on_c, 10, 53, 0
11, 9660, Note_on_c, 10, 50, 100
11, 9689, Note_on_c, 10, 50, 0
11, 9690, Note_on_c, 10, 46, 100
11, 9719, Note_on_c, 10, 46, 0
11, 9720, Note_on_c, 10, 52, 100
11, 9930, Note_on_c, 10, 52, 0
11, 9930, Note_on_c, 10, 45, 100
11, 9959, Note_on_c, 10, 45, 0
11, 9960, Note_on_c, 10, 49, 100
11, 9989, Note_on_c, 10, 49, 0
11, 9990, Note_on_c, 10, 52, 100
11, 10019, Note_on_c, 10, 52, 0
11, 10020, Note_on_c, 10, 49, 100
11, 10049, Note_on_c, 10, 49, 0
11, 10050, Note_on_c, 10, 45, 100
11, 10079, Note_on_c, 10, 45, 0
11, 10080, Note_on_c, 10, 50, 100
11, 10139, Note_on_c, 10, 50, 0
11, 10140, Note_on_c, 10, 41, 100
11, 10199, Note_on_c, 10, 41, 0
11, 10200, Note_on_c, 10, 45, 100
11, 10259, Note_on_c, 10, 45, 0
11, 10260, Note_on_c, 10, 38, 100
11, 10319, Note_on_c, 10, 38, 0
11, 10320, Note_on_c, 10, 50, 100
11, 10379, Note_on_c, 10, 50, 0
11, 10380, Note_on_c, 10, 52, 100
11, 10439, Note_on_c, 10, 52, 0
11, 10440, Note_on_c, 10, 53, 100
11, 10499, Note_on_c, 10, 53, 0
11, 10500, Note_on_c, 10, 53, 100
11, 10559, Note_on_c, 10, 53, 0
11, 10560, Note_on_c, 10, 55, 100
11, 10619, Note_on_c, 10, 55, 0
11, 10620, Note_on_c, 10, 57, 100
11, 10679, Note_on_c, 10, 57, 0
11, 10680, Note_on_c, 10, 57, 100
11, 10739, Note_on_c, 10, 57, 0
11, 10740, Note_on_c, 10, 58, 100
11, 10799, Note_on_c, 10, 58, 0
11, 10800, Note_on_c, 10, 57, 100
11, 10859, Note_on_c, 10, 57, 0
11, 10860, Note_on_c, 10, 55, 100
11, 10889, Note_on_c, 10, 55, 0
11, 10890, Note_on_c, 10, 53, 100
11, 10919, Note_on_c, 10, 53, 0
11, 10920, Note_on_c, 10, 52, 100
11, 10949, Note_on_c, 10, 52, 0
11, 10950, Note_on_c, 10, 50, 100
11, 10979, Note_on_c, 10, 50, 0
11, 10980, Note_on_c, 10, 49, 100
11, 11039, Note_on_c, 10, 49, 0
11, 11040, Note_on_c, 10, 45, 100
11, 11099, Note_on_c, 10, 45, 0
11, 11100, Note_on_c, 10, 50, 100
11, 11159, Note_on_c, 10, 50, 0
11, 11160, Note_on_c, 10, 45, 100
11, 11580, Note_on_c, 10, 45, 0
11, 11580, Note_on_c, 10, 45, 100
11, 11609, Note_on_c, 10, 45, 0
11, 11610, Note_on_c, 10, 47, 100
11, 11639, Note_on_c, 10, 47, 0
11, 11640, Note_on_c, 10, 49, 100
11, 11669, Note_on_c, 10, 49, 0
11, 11670, Note_on_c, 10, 50, 100
11, 11699, Note_on_c, 10, 50, 0
11, 11700, Note_on_c, 10, 52, 100
11, 11729, Note_on_c, 10, 52, 0
11, 11730, Note_on_c, 10, 50, 100
11, 11759, Note_on_c, 10, 50, 0
11, 11760, Note_on_c, 10, 49, 100
11, 11789, Note_on_c, 10, 49, 0
11, 11790, Note_on_c, 10, 50, 100
11, 11819, Note_on_c, 10, 50, 0
11, 11820, Note_on_c, 10, 52, 100
11, 11849, Note_on_c, 10, 52, 0
11, 11850, Note_on_c, 10, 53, 100
11, 11879, Note_on_c, 10, 53, 0
11, 11880, Note_on_c, 10, 55, 100
11, 11939, Note_on_c, 10, 55, 0
11, 11940, Note_on_c, 10, 67, 100
11, 11999, Note_on_c, 10, 67, 0
11, 12000, Note_on_c, 10, 67, 100
11, 12059, Note_on_c, 10, 67, 0
11, 12060, Note_on_c, 10, 61, 100
11, 12119, Note_on_c, 10, 61, 0
11, 12120, Note_on_c, 10, 64, 100
11, 12179, Note_on_c, 10, 64, 0
11, 12180, Note_on_c, 10, 64, 100
11, 12239, Note_on_c, 10, 64, 0
11, 12240, Note_on_c, 10, 57, 100
11, 12269, Note_on_c, 10, 57, 0
11, 12270, Note_on_c, 10, 52, 100
11, 12299, Note_on_c, 10, 52, 0
11, 12300, Note_on_c, 10, 49, 100
11, 12329, Note_on_c, 10, 49, 0
11, 12330, Note_on_c, 10, 45, 100
11, 12359, Note_on_c, 10, 45, 0
11, 12360, Note_on_c, 10, 53, 100
11, 12419, Note_on_c, 10, 53, 0
11, 12450, Note_on_c, 10, 55, 100
11, 12479, Note_on_c, 10, 55, 0
11, 12480, Note_on_c, 10, 57, 100
11, 12539, Note_on_c, 10, 57, 0
11, 12540, Note_on_c, 10, 55, 100
11, 12599, Note_on_c, 10, 55, 0
11, 12600, Note_on_c, 10, 54, 100
11, 12719, Note_on_c, 10, 54, 0
11, 12810, Note_on_c, 10, 50, 100
11, 12839, Note_on_c, 10, 50, 0
11, 12840, Note_on_c, 10, 55, 100
11, 12869, Note_on_c, 10, 55, 0
11, 12870, Note_on_c, 10, 58, 100
11, 12899, Note_on_c, 10, 58, 0
11, 12900, Note_on_c, 10, 55, 100
11, 12929, Note_on_c, 10, 55, 0
11, 12930, Note_on_c, 10, 50, 100
11, 12959, Note_on_c, 10, 50, 0
11, 12960, Note_on_c, 10, 56, 100
11, 13079, Note_on_c, 10, 56, 0
11, 13170, Note_on_c, 10, 50, 100
11, 13199, Note_on_c, 10, 50, 0
11, 13200, Note_on_c, 10, 53, 100
11, 13229, Note_on_c, 10, 53, 0
11, 13230, Note_on_c, 10, 57, 100
11, 13259, Note_on_c, 10, 57, 0
11, 13260, Note_on_c, 10, 53, 100
11, 13289, Note_on_c, 10, 53, 0
11, 13290, Note_on_c, 10, 50, 100
11, 13319, Note_on_c, 10, 50, 0
11, 13320, Note_on_c, 10, 58, 100
11, 13439, Note_on_c, 10, 58, 0
11, 13530, Note_on_c, 10, 56, 100
11, 13559, Note_on_c, 10, 56, 0
11, 13560, Note_on_c, 10, 59, 100
11, 13589, Note_on_c, 10, 59, 0
11, 13590, Note_on_c, 10, 62, 100
11, 13619, Note_on_c, 10, 62, 0
11, 13620, Note_on_c, 10, 59, 100
11, 13649, Note_on_c, 10, 59, 0
11, 13650, Note_on_c, 10, 56, 100
11, 13679, Note_on_c, 10, 56, 0
11, 13680, Note_on_c, 10, 52, 100
11, 13739, Note_on_c, 10, 52, 0
11, 13770, Note_on_c, 10, 52, 100
11, 13799, Note_on_c, 10, 52, 0
11, 13800, Note_on_c, 10, 53, 100
11, 13829, Note_on_c, 10, 53, 0
11, 13830, Note_on_c, 10, 50, 100
11, 13859, Note_on_c, 10, 50, 0
11, 13860, Note_on_c, 10, 58, 100
11, 13889, Note_on_c, 10, 58, 0
11, 13890, Note_on_c, 10, 55, 100
11, 13919, Note_on_c, 10, 55, 0
11, 13920, Note_on_c, 10, 57, 100
11, 13979, Note_on_c, 10, 57, 0
11, 13980, Note_on_c, 10, 45, 100
11, 14039, Note_on_c, 10, 45, 0
11, 14040, Note_on_c, 10, 50, 100
11, 14159, Note_on_c, 10, 50, 0
11, 19680, Note_on_c, 10, 53, 100
11, 19709, Note_on_c, 10, 53, 0
11, 19710, Note_on_c, 10, 52, 100
11, 19739, Note_on_c, 10, 52, 0
11, 19740, Note_on_c, 10, 53, 100
11, 19769, Note_on_c, 10, 53, 0
11, 19770, Note_on_c, 10, 55, 100
11, 19799, Note_on_c, 10, 55, 0
11, 19800, Note_on_c, 10, 57, 100
11, 19829, Note_on_c, 10, 57, 0
11, 19830, Note_on_c, 10, 55, 100
11, 19859, Note_on_c, 10, 55, 0
11, 19860, Note_on_c, 10, 53, 100
11, 19889, Note_on_c, 10, 53, 0
11, 19890, Note_on_c, 10, 55, 100
11, 19919, Note_on_c, 10, 55, 0
11, 19920, Note_on_c, 10, 57, 100
11, 19949, Note_on_c, 10, 57, 0
11, 19950, Note_on_c, 10, 58, 100
11, 19979, Note_on_c, 10, 58, 0
11, 19980, Note_on_c, 10, 60, 100
11, 20039, Note_on_c, 10, 60, 0
11, 20040, Note_on_c, 10, 60, 100
11, 20099, Note_on_c, 10, 60, 0
11, 20100, Note_on_c, 10, 62, 100
11, 20159, Note_on_c, 10, 62, 0
11, 20160, Note_on_c, 10, 60, 100
11, 20219, Note_on_c, 10, 60, 0
11, 20220, Note_on_c, 10, 58, 100
11, 20249, Note_on_c, 10, 58, 0
11, 20250, Note_on_c, 10, 57, 100
11, 20279, Note_on_c, 10, 57, 0
11, 20280, Note_on_c, 10, 55, 100
11, 20309, Note_on_c, 10, 55, 0
11, 20310, Note_on_c, 10, 53, 100
11, 20339, Note_on_c, 10, 53, 0
11, 20340, Note_on_c, 10, 52, 100
11, 20399, Note_on_c, 10, 52, 0
11, 20400, Note_on_c, 10, 48, 100
11, 20459, Note_on_c, 10, 48, 0
11, 20460, Note_on_c, 10, 53, 100
11, 20519, Note_on_c, 10, 53, 0
11, 20520, Note_on_c, 10, 48, 100
11, 20579, Note_on_c, 10, 48, 0
11, 20580, Note_on_c, 10, 52, 100
11, 20639, Note_on_c, 10, 52, 0
11, 20640, Note_on_c, 10, 55, 100
11, 20699, Note_on_c, 10, 55, 0
11, 20700, Note_on_c, 10, 60, 100
11, 20759, Note_on_c, 10, 60, 0
11, 20760, Note_on_c, 10, 58, 100
11, 20789, Note_on_c, 10, 58, 0
11, 20790, Note_on_c, 10, 57, 100
11, 20819, Note_on_c, 10, 57, 0
11, 20820, Note_on_c, 10, 55, 100
11, 20849, Note_on_c, 10, 55, 0
11, 20850, Note_on_c, 10, 53, 100
11, 20879, Note_on_c, 10, 53, 0
11, 20880, Note_on_c, 10, 60, 100
11, 20939, Note_on_c, 10, 60, 0
11, 21060, Note_on_c, 10, 64, 100
11, 21119, Note_on_c, 10, 64, 0
11, 21120, Note_on_c, 10, 60, 100
11, 21120, Note_on_c, 10, 64, 100
11, 21179, Note_on_c, 10, 64, 0
11, 21179, Note_on_c, 10, 60, 0
11, 21180, Note_on_c, 10, 62, 100
11, 21180, Note_on_c, 10, 65, 100
11, 21239, Note_on_c, 10, 65, 0
11, 21239, Note_on_c, 10, 62, 0
11, 21240, Note_on_c, 10, 64, 100
11, 21240, Note_on_c, 10, 67, 100
11, 21299, Note_on_c, 10, 67, 0
11, 21299, Note_on_c, 10, 64, 0
11, 21300, Note_on_c, 10, 64, 100
11, 21300, Note_on_c, 10, 67, 100
11, 21359, Note_on_c, 10, 67, 0
11, 21359, Note_on_c, 10, 64, 0
11, 21360, Note_on_c, 10, 65, 100
11, 21360, Note_on_c, 10, 69, 100
11, 21419, Note_on_c, 10, 69, 0
11, 21419, Note_on_c, 10, 65, 0
11, 21420, Note_on_c, 10, 67, 100
11, 21479, Note_on_c, 10, 67, 0
11, 21480, Note_on_c, 10, 65, 100
11, 21509, Note_on_c, 10, 65, 0
11, 21510, Note_on_c, 10, 64, 100
11, 21539, Note_on_c, 10, 64, 0
11, 21540, Note_on_c, 10, 62, 100
11, 21569, Note_on_c, 10, 62, 0
11, 21570, Note_on_c, 10, 60, 100
11, 21599, Note_on_c, 10, 60, 0
11, 21600, Note_on_c, 10, 59, 100
11, 21629, Note_on_c, 10, 59, 0
11, 21630, Note_on_c, 10, 57, 100
11, 21659, Note_on_c, 10, 57, 0
11, 21660, Note_on_c, 10, 55, 100
11, 21689, Note_on_c, 10, 55, 0
11, 21690, Note_on_c, 10, 57, 100
11, 21719, Note_on_c, 10, 57, 0
11, 21720, Note_on_c, 10, 59, 100
11, 21749, Note_on_c, 10, 59, 0
11, 21750, Note_on_c, 10, 60, 100
11, 21779, Note_on_c, 10, 60, 0
11, 21780, Note_on_c, 10, 62, 100
11, 21839, Note_on_c, 10, 62, 0
11, 21840, Note_on_c, 10, 59, 100
11, 21840, Note_on_c, 10, 62, 100
11, 21899, Note_on_c, 10, 62, 0
11, 21899, Note_on_c, 10, 59, 0
11, 21900, Note_on_c, 10, 60, 100
11, 21900, Note_on_c, 10, 64, 100
11, 21959, Note_on_c, 10, 64, 0
11, 21959, Note_on_c, 10, 60, 0
11, 21960, Note_on_c, 10, 62, 100
11, 21960, Note_on_c, 10, 55, 100
11, 22019, Note_on_c, 10, 55, 0
11, 22019, Note_on_c, 10, 62, 0
11, 22020, Note_on_c, 10, 55, 100
11, 22079, Note_on_c, 10, 55, 0
11, 22080, Note_on_c, 10, 43, 100
11, 22139, Note_on_c, 10, 43, 0
11, 22140, Note_on_c, 10, 60, 100
11, 22169, Note_on_c, 10, 60, 0
11, 22170, Note_on_c, 10, 62, 100
11, 22199, Note_on_c, 10, 62, 0
11, 22200, Note_on_c, 10, 60, 100
11, 22229, Note_on_c, 10, 60, 0
11, 22230, Note_on_c, 10, 58, 100
11, 22259, Note_on_c, 10, 58, 0
11, 22260, Note_on_c, 10, 57, 100
11, 22289, Note_on_c, 10, 57, 0
11, 22290, Note_on_c, 10, 55, 100
11, 22319, Note_on_c, 10, 55, 0
11, 22320, Note_on_c, 10, 53, 100
11, 22379, Note_on_c, 10, 53, 0
11, 22380, Note_on_c, 10, 60, 100
11, 22439, Note_on_c, 10, 60, 0
11, 22440, Note_on_c, 10, 57, 100
11, 22499, Note_on_c, 10, 57, 0
11, 22500, Note_on_c, 10, 53, 100
11, 22559, Note_on_c, 10, 53, 0
11, 22560, Note_on_c, 10, 58, 100
11, 22619, Note_on_c, 10, 58, 0
11, 22620, Note_on_c, 10, 46, 100
11, 22679, Note_on_c, 10, 46, 0
11, 22680, Note_on_c, 10, 58, 100
11, 22769, Note_on_c, 10, 58, 0
11, 22770, Note_on_c, 10, 55, 100
11, 22799, Note_on_c, 10, 55, 0
11, 22800, Note_on_c, 10, 57, 100
11, 22859, Note_on_c, 10, 57, 0
11, 22890, Note_on_c, 10, 58, 100
11, 22919, Note_on_c, 10, 58, 0
11, 22920, Note_on_c, 10, 60, 100
11, 22979, Note_on_c, 10, 60, 0
11, 22980, Note_on_c, 10, 48, 100
11, 23039, Note_on_c, 10, 48, 0
11, 23040, Note_on_c, 10, 53, 100
11, 23069, Note_on_c, 10, 53, 0
11, 23070, Note_on_c, 10, 65, 100
11, 23099, Note_on_c, 10, 65, 0
11, 23100, Note_on_c, 10, 60, 100
11, 23129, Note_on_c, 10, 60, 0
11, 23130, Note_on_c, 10, 65, 100
11, 23159, Note_on_c, 10, 65, 0
11, 23160, Note_on_c, 10, 57, 100
11, 23189, Note_on_c, 10, 57, 0
11, 23190, Note_on_c, 10, 60, 100
11, 23219, Note_on_c, 10, 60, 0
11, 23220, Note_on_c, 10, 53, 100
11, 23249, Note_on_c, 10, 53, 0
11, 23250, Note_on_c, 10, 60, 100
11, 23279, Note_on_c, 10, 60, 0
11, 23280, Note_on_c, 10, 57, 100
11, 23309, Note_on_c, 10, 57, 0
11, 23310, Note_on_c, 10, 53, 100
11, 23339, Note_on_c, 10, 53, 0
11, 23340, Note_on_c, 10, 50, 100
11, 23369, Note_on_c, 10, 50, 0
11, 23370, Note_on_c, 10, 53, 100
11, 23399, Note_on_c, 10, 53, 0
11, 23400, Note_on_c, 10, 48, 100
11, 23519, Note_on_c, 10, 48, 0
11, 23580, Note_on_c, 10, 48, 100
11, 23699, Note_on_c, 10, 48, 0
11, 23820, Note_on_c, 10, 64, 100
11, 23879, Note_on_c, 10, 64, 0
11, 23880, Note_on_c, 10, 62, 100
11, 23939, Note_on_c, 10, 62, 0
11, 23940, Note_on_c, 10, 61, 100
11, 23999, Note_on_c, 10, 61, 0
11, 24000, Note_on_c, 10, 59, 100
11, 24059, Note_on_c, 10, 59, 0
11, 24060, Note_on_c, 10, 57, 100
11, 24119, Note_on_c, 10, 57, 0
11, 24120, Note_on_c, 10, 62, 100
11, 24179, Note_on_c, 10, 62, 0
11, 24180, Note_on_c, 10, 50, 100
11, 24239, Note_on_c, 10, 50, 0
11, 24240, Note_on_c, 10, 52, 100
11, 24299, Note_on_c, 10, 52, 0
11, 24300, Note_on_c, 10, 53, 100
11, 24359, Note_on_c, 10, 53, 0
11, 24360, Note_on_c, 10, 53, 100
11, 24419, Note_on_c, 10, 53, 0
11, 24420, Note_on_c, 10, 55, 100
11, 24479, Note_on_c, 10, 55, 0
11, 24480, Note_on_c, 10, 57, 100
11, 24509, Note_on_c, 10, 57, 0
11, 24510, Note_on_c, 10, 69, 100
11, 24539, Note_on_c, 10, 69, 0
11, 24540, Note_on_c, 10, 64, 100
11, 24569, Note_on_c, 10, 64, 0
11, 24570, Note_on_c, 10, 69, 100
11, 24599, Note_on_c, 10, 69, 0
11, 24600, Note_on_c, 10, 61, 100
11, 24629, Note_on_c, 10, 61, 0
11, 24630, Note_on_c, 10, 64, 100
11, 24659, Note_on_c, 10, 64, 0
11, 24660, Note_on_c, 10, 57, 100
11, 24779, Note_on_c, 10, 57, 0
11, 24900, Note_on_c, 10, 57, 100
11, 24959, Note_on_c, 10, 57, 0
11, 24960, Note_on_c, 10, 55, 100
11, 25019, Note_on_c, 10, 55, 0
11, 25020, Note_on_c, 10, 54, 100
11, 25079, Note_on_c, 10, 54, 0
11, 25080, Note_on_c, 10, 52, 100
11, 25139, Note_on_c, 10, 52, 0
11, 25140, Note_on_c, 10, 50, 100
11, 25199, Note_on_c, 10, 50, 0
11, 25200, Note_on_c, 10, 55, 100
11, 25259, Note_on_c, 10, 55, 0
11, 25260, Note_on_c, 10, 70, 100
11, 25319, Note_on_c, 10, 70, 0
11, 25320, Note_on_c, 10, 69, 100
11, 25379, Note_on_c, 10, 69, 0
11, 25380, Note_on_c, 10, 67, 100
11, 25409, Note_on_c, 10, 67, 0
11, 25410, Note_on_c, 10, 72, 100
11, 25439, Note_on_c, 10, 72, 0
11, 25440, Note_on_c, 10, 67, 100
11, 25469, Note_on_c, 10, 67, 0
11, 25470, Note_on_c, 10, 65, 100
11, 25499, Note_on_c, 10, 65, 0
11, 25500, Note_on_c, 10, 63, 100
11, 25529, Note_on_c, 10, 63, 0
11, 25530, Note_on_c, 10, 62, 100
11, 25559, Note_on_c, 10, 62, 0
11, 25560, Note_on_c, 10, 60, 100
11, 25619, Note_on_c, 10, 60, 0
11, 25620, Note_on_c, 10, 57, 100
11, 25679, Note_on_c, 10, 57, 0
11, 25680, Note_on_c, 10, 65, 100
11, 25769, Note_on_c, 10, 65, 0
11, 25770, Note_on_c, 10, 70, 100
11, 25799, Note_on_c, 10, 70, 0
11, 25800, Note_on_c, 10, 65, 100
11, 25829, Note_on_c, 10, 65, 0
11, 25830, Note_on_c, 10, 63, 100
11, 25859, Note_on_c, 10, 63, 0
11, 25860, Note_on_c, 10, 62, 100
11, 25889, Note_on_c, 10, 62, 0
11, 25890, Note_on_c, 10, 60, 100
11, 25919, Note_on_c, 10, 60, 0
11, 25920, Note_on_c, 10, 58, 100
11, 25979, Note_on_c, 10, 58, 0
11, 25980, Note_on_c, 10, 51, 100
11, 26039, Note_on_c, 10, 51, 0
11, 26040, Note_on_c, 10, 63, 100
11, 26129, Note_on_c, 10, 63, 0
11, 26130, Note_on_c, 10, 69, 100
11, 26159, Note_on_c, 10, 69, 0
11, 26160, Note_on_c, 10, 63, 100
11, 26189, Note_on_c, 10, 63, 0
11, 26190, Note_on_c, 10, 62, 100
11, 26219, Note_on_c, 10, 62, 0
11, 26220, Note_on_c, 10, 60, 100
11, 26249, Note_on_c, 10, 60, 0
11, 26250, Note_on_c, 10, 58, 100
11, 26279, Note_on_c, 10, 58, 0
11, 26280, Note_on_c, 10, 57, 100
11, 26339, Note_on_c, 10, 57, 0
11, 26340, Note_on_c, 10, 50, 100
11, 26399, Note_on_c, 10, 50, 0
11, 26400, Note_on_c, 10, 62, 100
11, 26489, Note_on_c, 10, 62, 0
11, 26490, Note_on_c, 10, 67, 100
11, 26519, Note_on_c, 10, 67, 0
11, 26520, Note_on_c, 10, 62, 100
11, 26549, Note_on_c, 10, 62, 0
11, 26550, Note_on_c, 10, 60, 100
11, 26579, Note_on_c, 10, 60, 0
11, 26580, Note_on_c, 10, 59, 100
11, 26609, Note_on_c, 10, 59, 0
11, 26610, Note_on_c, 10, 55, 100
11, 26639, Note_on_c, 10, 55, 0
11, 26640, Note_on_c, 10, 60, 100
11, 26699, Note_on_c, 10, 60, 0
11, 26730, Note_on_c, 10, 55, 100
11, 26759, Note_on_c, 10, 55, 0
11, 26760, Note_on_c, 10, 60, 100
11, 26789, Note_on_c, 10, 60, 0
11, 26790, Note_on_c, 10, 63, 100
11, 26819, Note_on_c, 10, 63, 0
11, 26820, Note_on_c, 10, 67, 100
11, 26879, Note_on_c, 10, 67, 0
11, 26910, Note_on_c, 10, 55, 100
11, 26939, Note_on_c, 10, 55, 0
11, 26940, Note_on_c, 10, 60, 100
11, 26969, Note_on_c, 10, 60, 0
11, 26970, Note_on_c, 10, 63, 100
11, 26999, Note_on_c, 10, 63, 0
11, 27000, Note_on_c, 10, 60, 100
11, 27059, Note_on_c, 10, 60, 0
11, 27090, Note_on_c, 10, 56, 100
11, 27119, Note_on_c, 10, 56, 0
11, 27120, Note_on_c, 10, 60, 100
11, 27149, Note_on_c, 10, 60, 0
11, 27150, Note_on_c, 10, 63, 100
11, 27179, Note_on_c, 10, 63, 0
11, 27180, Note_on_c, 10, 68, 100
11, 27239, Note_on_c, 10, 68, 0
11, 27270, Note_on_c, 10, 56, 100
11, 27299, Note_on_c, 10, 56, 0
11, 27300, Note_on_c, 10, 60, 100
11, 27329, Note_on_c, 10, 60, 0
11, 27330, Note_on_c, 10, 63, 100
11, 27359, Note_on_c, 10, 63, 0
11, 27360, Note_on_c, 10, 60, 100
11, 27419, Note_on_c, 10, 60, 0
11, 27450, Note_on_c, 10, 57, 100
11, 27479, Note_on_c, 10, 57, 0
11, 27480, Note_on_c, 10, 60, 100
11, 27509, Note_on_c, 10, 60, 0
11, 27510, Note_on_c, 10, 63, 100
11, 27539, Note_on_c, 10, 63, 0
11, 27540, Note_on_c, 10, 69, 100
11, 27599, Note_on_c, 10, 69, 0
11, 27630, Note_on_c, 10, 57, 100
11, 27659, Note_on_c, 10, 57, 0
11, 27660, Note_on_c, 10, 60, 100
11, 27689, Note_on_c, 10, 60, 0
11, 27690, Note_on_c, 10, 63, 100
11, 27719, Note_on_c, 10, 63, 0
11, 27720, Note_on_c, 10, 58, 100
11, 27779, Note_on_c, 10, 58, 0
11, 27810, Note_on_c, 10, 58, 100
11, 27839, Note_on_c, 10, 58, 0
11, 27840, Note_on_c, 10, 61, 100
11, 27869, Note_on_c, 10, 61, 0
11, 27870, Note_on_c, 10, 64, 100
11, 27899, Note_on_c, 10, 64, 0
11, 27900, Note_on_c, 10, 70, 100
11, 27959, Note_on_c, 10, 70, 0
11, 27990, Note_on_c, 10, 58, 100
11, 28019, Note_on_c, 10, 58, 0
11, 28020, Note_on_c, 10, 61, 100
11, 28049, Note_on_c, 10, 61, 0
11, 28050, Note_on_c, 10, 64, 100
11, 28079, Note_on_c, 10, 64, 0
11, 28080, Note_on_c, 10, 62, 100
11, 28139, Note_on_c, 10, 62, 0
11, 28170, Note_on_c, 10, 60, 100
11, 28199, Note_on_c, 10, 60, 0
11, 28200, Note_on_c, 10, 62, 100
11, 28229, Note_on_c, 10, 62, 0
11, 28230, Note_on_c, 10, 66, 100
11, 28259, Note_on_c, 10, 66, 0
11, 28260, Note_on_c, 10, 69, 100
11, 28319, Note_on_c, 10, 69, 0
11, 28350, Note_on_c, 10, 60, 100
11, 28379, Note_on_c, 10, 60, 0
11, 28380, Note_on_c, 10, 62, 100
11, 28409, Note_on_c, 10, 62, 0
11, 28410, Note_on_c, 10, 66, 100
11, 28439, Note_on_c, 10, 66, 0
11, 28440, Note_on_c, 10, 67, 100
11, 28499, Note_on_c, 10, 67, 0
11, 28530, Note_on_c, 10, 61, 100
11, 28559, Note_on_c, 10, 61, 0
11, 28560, Note_on_c, 10, 64, 100
11, 28589, Note_on_c, 10, 64, 0
11, 28590, Note_on_c, 10, 67, 100
11, 28619, Note_on_c, 10, 67, 0
11, 28620, Note_on_c, 10, 64, 100
11, 28679, Note_on_c, 10, 64, 0
11, 28710, Note_on_c, 10, 61, 100
11, 28739, Note_on_c, 10, 61, 0
11, 28740, Note_on_c, 10, 64, 100
11, 28769, Note_on_c, 10, 64, 0
11, 28770, Note_on_c, 10, 67, 100
11, 28799, Note_on_c, 10, 67, 0
11, 28800, Note_on_c, 10, 62, 100
11, 28859, Note_on_c, 10, 62, 0
11, 28890, Note_on_c, 10, 62, 100
11, 28919, Note_on_c, 10, 62, 0
11, 28920, Note_on_c, 10, 66, 100
11, 28949, Note_on_c, 10, 66, 0
11, 28950, Note_on_c, 10, 69, 100
11, 28979, Note_on_c, 10, 69, 0
11, 28980, Note_on_c, 10, 72, 100
11, 29039, Note_on_c, 10, 72, 0
11, 29070, Note_on_c, 10, 62, 100
11, 29099, Note_on_c, 10, 62, 0
11, 29100, Note_on_c, 10, 66, 100
11, 29129, Note_on_c, 10, 66, 0
11, 29130, Note_on_c, 10, 69, 100
11, 29159, Note_on_c, 10, 69, 0
11, 29160, Note_on_c, 10, 67, 100
11, 29219, Note_on_c, 10, 67, 0
11, 29220, Note_on_c, 10, 55, 100
11, 29279, Note_on_c, 10, 55, 0
11, 29280, Note_on_c, 10, 57, 100
11, 29339, Note_on_c, 10, 57, 0
11, 29340, Note_on_c, 10, 58, 100
11, 29399, Note_on_c, 10, 58, 0
11, 29400, Note_on_c, 10, 58, 100
11, 29459, Note_on_c, 10, 58, 0
11, 29460, Note_on_c, 10, 60, 100
11, 29519, Note_on_c, 10, 60, 0
11, 29520, Note_on_c, 10, 62, 100
11, 29579, Note_on_c, 10, 62, 0
11, 29580, Note_on_c, 10, 62, 100
11, 29639, Note_on_c, 10, 62, 0
11, 29640, Note_on_c, 10, 63, 100
11, 29699, Note_on_c, 10, 63, 0
11, 29700, Note_on_c, 10, 62, 100
11, 29759, Note_on_c, 10, 62, 0
11, 29760, Note_on_c, 10, 60, 100
11, 29789, Note_on_c, 10, 60, 0
11, 29790, Note_on_c, 10, 58, 100
11, 29819, Note_on_c, 10, 58, 0
11, 29820, Note_on_c, 10, 57, 100
11, 29849, Note_on_c, 10, 57, 0
11, 29850, Note_on_c, 10, 55, 100
11, 29879, Note_on_c, 10, 55, 0
11, 29880, Note_on_c, 10, 54, 100
11, 29939, Note_on_c, 10, 54, 0
11, 29940, Note_on_c, 10, 50, 100
11, 29969, Note_on_c, 10, 50, 0
11, 29970, Note_on_c, 10, 52, 100
11, 29999, Note_on_c, 10, 52, 0
11, 30000, Note_on_c, 10, 54, 100
11, 30029, Note_on_c, 10, 54, 0
11, 30030, Note_on_c, 10, 55, 100
11, 30059, Note_on_c, 10, 55, 0
11, 30060, Note_on_c, 10, 57, 100
11, 30119, Note_on_c, 10, 57, 0
11, 30120, Note_on_c, 10, 57, 100
11, 30179, Note_on_c, 10, 57, 0
11, 30180, Note_on_c, 10, 58, 100
11, 30239, Note_on_c, 10, 58, 0
11, 30240, Note_on_c, 10, 57, 100
11, 30299, Note_on_c, 10, 57, 0
11, 30300, Note_on_c, 10, 50, 100
11, 30329, Note_on_c, 10, 50, 0
11, 30330, Note_on_c, 10, 52, 100
11, 30359, Note_on_c, 10, 52, 0
11, 30360, Note_on_c, 10, 54, 100
11, 30389, Note_on_c, 10, 54, 0
11, 30390, Note_on_c, 10, 55, 100
11, 30419, Note_on_c, 10, 55, 0
11, 30420, Note_on_c, 10, 57, 100
11, 30479, Note_on_c, 10, 57, 0
11, 30480, Note_on_c, 10, 57, 100
11, 30539, Note_on_c, 10, 57, 0
11, 30540, Note_on_c, 10, 58, 100
11, 30599, Note_on_c, 10, 58, 0
11, 30600, Note_on_c, 10, 57, 100
11, 30659, Note_on_c, 10, 57, 0
11, 30660, Note_on_c, 10, 54, 100
11, 30719, Note_on_c, 10, 54, 0
11, 30780, Note_on_c, 10, 55, 100
11, 30839, Note_on_c, 10, 55, 0
11, 30840, Note_on_c, 10, 51, 100
11, 30899, Note_on_c, 10, 51, 0
11, 30960, Note_on_c, 10, 53, 100
11, 31019, Note_on_c, 10, 53, 0
11, 31020, Note_on_c, 10, 41, 100
11, 31079, Note_on_c, 10, 41, 0
11, 31140, Note_on_c, 10, 50, 100
11, 31199, Note_on_c, 10, 50, 0
11, 31200, Note_on_c, 10, 55, 100
11, 31259, Note_on_c, 10, 55, 0
11, 31320, Note_on_c, 10, 48, 100
11, 31379, Note_on_c, 10, 48, 0
11, 31380, Note_on_c, 10, 36, 100
11, 31439, Note_on_c, 10, 36, 0
11, 31500, Note_on_c, 10, 45, 100
11, 31559, Note_on_c, 10, 45, 0
11, 31560, Note_on_c, 10, 50, 100
11, 31619, Note_on_c, 10, 50, 0
11, 31680, Note_on_c, 10, 43, 100
11, 31739, Note_on_c, 10, 43, 0
11, 31740, Note_on_c, 10, 55, 100
11, 31799, Note_on_c, 10, 55, 0
11, 31860, Note_on_c, 10, 52, 100
11, 31919, Note_on_c, 10, 52, 0
11, 31920, Note_on_c, 10, 57, 100
11, 31979, Note_on_c, 10, 57, 0
11, 32040, Note_on_c, 10, 50, 100
11, 32099, Note_on_c, 10, 50, 0
11, 32100, Note_on_c, 10, 53, 100
11, 32159, Note_on_c, 10, 53, 0
11, 32220, Note_on_c, 10, 55, 100
11, 32279, Note_on_c, 10, 55, 0
11, 32280, Note_on_c, 10, 47, 100
11, 32339, Note_on_c, 10, 47, 0
11, 32400, Note_on_c, 10, 48, 100
11, 32459, Note_on_c, 10, 48, 0
11, 32460, Note_on_c, 10, 51, 100
11, 32519, Note_on_c, 10, 51, 0
11, 32580, Note_on_c, 10, 53, 100
11, 32639, Note_on_c, 10, 53, 0
11, 32640, Note_on_c, 10, 45, 100
11, 32699, Note_on_c, 10, 45, 0
11, 32760, Note_on_c, 10, 46, 100
11, 32819, Note_on_c, 10, 46, 0
11, 32820, Note_on_c, 10, 50, 100
11, 32879, Note_on_c, 10, 50, 0
11, 32940, Note_on_c, 10, 51, 100
11, 32999, Note_on_c, 10, 51, 0
11, 33000, Note_on_c, 10, 43, 100
11, 33059, Note_on_c, 10, 43, 0
11, 33120, Note_on_c, 10, 58, 100
11, 33179, Note_on_c, 10, 58, 0
11, 33180, Note_on_c, 10, 49, 100
11, 33239, Note_on_c, 10, 49, 0
11, 33300, Note_on_c, 10, 50, 100
11, 33359, Note_on_c, 10, 50, 0
11, 33360, Note_on_c, 10, 42, 100
11, 33419, Note_on_c, 10, 42, 0
11, 33420, Note_on_c, 10, 38, 100
11, 33479, Note_on_c, 10, 38, 0
11, 33480, Note_on_c, 10, 43, 100
11, 33539, Note_on_c, 10, 43, 0
11, 34080, Note_on_c, 10, 43, 100
11, 34139, Note_on_c, 10, 43, 0
11, 34140, Note_on_c, 10, 45, 100
11, 34199, Note_on_c, 10, 45, 0
11, 34200, Note_on_c, 10, 46, 100
11, 34259, Note_on_c, 10, 46, 0
11, 34260, Note_on_c, 10, 46, 100
11, 34319, Note_on_c, 10, 46, 0
11, 34320, Note_on_c, 10, 48, 100
11, 34379, Note_on_c, 10, 48, 0
11, 34380, Note_on_c, 10, 50, 100
11, 34439, Note_on_c, 10, 50, 0
11, 34440, Note_on_c, 10, 50, 100
11, 34499, Note_on_c, 10, 50, 0
11, 34500, Note_on_c, 10, 51, 100
11, 34559, Note_on_c, 10, 51, 0
11, 34560, Note_on_c, 10, 50, 100
11, 34619, Note_on_c, 10, 50, 0
11, 34620, Note_on_c, 10, 48, 100
11, 34649, Note_on_c, 10, 48, 0
11, 34650, Note_on_c, 10, 46, 100
11, 34679, Note_on_c, 10, 46, 0
11, 34680, Note_on_c, 10, 45, 100
11, 34709, Note_on_c, 10, 45, 0
11, 34710, Note_on_c, 10, 43, 100
11, 34739, Note_on_c, 10, 43, 0
11, 34740, Note_on_c, 10, 42, 100
11, 34799, Note_on_c, 10, 42, 0
11, 34800, Note_on_c, 10, 38, 100
11, 34859, Note_on_c, 10, 38, 0
11, 34860, Note_on_c, 10, 43, 100
11, 34919, Note_on_c, 10, 43, 0
11, 34920, Note_on_c, 10, 38, 100
11, 34979, Note_on_c, 10, 38, 0
11, 34980, Note_on_c, 10, 38, 100
11, 35009, Note_on_c, 10, 38, 0
11, 35010, Note_on_c, 10, 40, 100
11, 35039, Note_on_c, 10, 40, 0
11, 35040, Note_on_c, 10, 42, 100
11, 35069, Note_on_c, 10, 42, 0
11, 35070, Note_on_c, 10, 43, 100
11, 35099, Note_on_c, 10, 43, 0
11, 35100, Note_on_c, 10, 45, 100
11, 35159, Note_on_c, 10, 45, 0
11, 35160, Note_on_c, 10, 45, 100
11, 35219, Note_on_c, 10, 45, 0
11, 35220, Note_on_c, 10, 46, 100
11, 35279, Note_on_c, 10, 46, 0
11, 35280, Note_on_c, 10, 42, 100
11, 35339, Note_on_c, 10, 42, 0
11, 35340, Note_on_c, 10, 42, 100
11, 35399, Note_on_c, 10, 42, 0
11, 35400, Note_on_c, 10, 42, 100
11, 35459, Note_on_c, 10, 42, 0
11, 35460, Note_on_c, 10, 42, 100
11, 35519, Note_on_c, 10, 42, 0
11, 35520, Note_on_c, 10, 42, 100
11, 35579, Note_on_c, 10, 42, 0
11, 35580, Note_on_c, 10, 42, 100
11, 35639, Note_on_c, 10, 42, 0
11, 35640, Note_on_c, 10, 42, 100
11, 35699, Note_on_c, 10, 42, 0
11, 35700, Note_on_c, 10, 42, 100
11, 35759, Note_on_c, 10, 42, 0
11, 35760, Note_on_c, 10, 42, 100
11, 35819, Note_on_c, 10, 42, 0
11, 35820, Note_on_c, 10, 46, 100
11, 35879, Note_on_c, 10, 46, 0
11, 36240, Note_on_c, 10, 50, 100
11, 36299, Note_on_c, 10, 50, 0
11, 36300, Note_on_c, 10, 38, 100
11, 36359, Note_on_c, 10, 38, 0
11, 36360, Note_on_c, 10, 43, 100
11, 36419, Note_on_c, 10, 43, 0
11, 36780, Note_on_c, 10, 57, 100
11, 36839, Note_on_c, 10, 57, 0
11, 36840, Note_on_c, 10, 55, 100
11, 36899, Note_on_c, 10, 55, 0
11, 36900, Note_on_c, 10, 53, 100
11, 36959, Note_on_c, 10, 53, 0
11, 36960, Note_on_c, 10, 53, 100
11, 37019, Note_on_c, 10, 53, 0
11, 37020, Note_on_c, 10, 52, 100
11, 37079, Note_on_c, 10, 52, 0
11, 37080, Note_on_c, 10, 50, 100
11, 37109, Note_on_c, 10, 50, 0
11, 37110, Note_on_c, 10, 57, 100
11, 37139, Note_on_c, 10, 57, 0
11, 37140, Note_on_c, 10, 62, 100
11, 37169, Note_on_c, 10, 62, 0
11, 37170, Note_on_c, 10, 65, 100
11, 37199, Note_on_c, 10, 65, 0
11, 37200, Note_on_c, 10, 62, 100
11, 37229, Note_on_c, 10, 62, 0
11, 37230, Note_on_c, 10, 57, 100
11, 37259, Note_on_c, 10, 57, 0
11, 37260, Note_on_c, 10, 62, 100
11, 37289, Note_on_c, 10, 62, 0
11, 37290, Note_on_c, 10, 56, 100
11, 37319, Note_on_c, 10, 56, 0
11, 37320, Note_on_c, 10, 62, 100
11, 37349, Note_on_c, 10, 62, 0
11, 37350, Note_on_c, 10, 65, 100
11, 37379, Note_on_c, 10, 65, 0
11, 37380, Note_on_c, 10, 62, 100
11, 37409, Note_on_c, 10, 62, 0
11, 37410, Note_on_c, 10, 57, 100
11, 37439, Note_on_c, 10, 57, 0
11, 37440, Note_on_c, 10, 62, 100
11, 37499, Note_on_c, 10, 62, 0
11, 37500, Note_on_c, 10, 52, 100
11, 37559, Note_on_c, 10, 52, 0
11, 37560, Note_on_c, 10, 50, 100
11, 37619, Note_on_c, 10, 50, 0
11, 37620, Note_on_c, 10, 49, 100
11, 37679, Note_on_c, 10, 49, 0
11, 37680, Note_on_c, 10, 49, 100
11, 37739, Note_on_c, 10, 49, 0
11, 37740, Note_on_c, 10, 47, 100
11, 37799, Note_on_c, 10, 47, 0
11, 37800, Note_on_c, 10, 45, 100
11, 37859, Note_on_c, 10, 45, 0
11, 37860, Note_on_c, 10, 57, 100
11, 37919, Note_on_c, 10, 57, 0
11, 37920, Note_on_c, 10, 55, 100
11, 37979, Note_on_c, 10, 55, 0
11, 37980, Note_on_c, 10, 54, 100
11, 38039, Note_on_c, 10, 54, 0
11, 38040, Note_on_c, 10, 57, 100
11, 38099, Note_on_c, 10, 57, 0
11, 38100, Note_on_c, 10, 50, 100
11, 38159, Note_on_c, 10, 50, 0
11, 38160, Note_on_c, 10, 43, 100
11, 38219, Note_on_c, 10, 43, 0
11, 38220, Note_on_c, 10, 55, 100
11, 38279, Note_on_c, 10, 55, 0
11, 38280, Note_on_c, 10, 53, 100
11, 38339, Note_on_c, 10, 53, 0
11, 38340, Note_on_c, 10, 52, 100
11, 38399, Note_on_c, 10, 52, 0
11, 38400, Note_on_c, 10, 55, 100
11, 38459, Note_on_c, 10, 55, 0
11, 38460, Note_on_c, 10, 48, 100
11, 38519, Note_on_c, 10, 48, 0
11, 38520, Note_on_c, 10, 41, 100
11, 38579, Note_on_c, 10, 41, 0
11, 38580, Note_on_c, 10, 53, 100
11, 38639, Note_on_c, 10, 53, 0
11, 38640, Note_on_c, 10, 52, 100
11, 38699, Note_on_c, 10, 52, 0
11, 38700, Note_on_c, 10, 50, 100
11, 38759, Note_on_c, 10, 50, 0
11, 38760, Note_on_c, 10, 53, 100
11, 38819, Note_on_c, 10, 53, 0
11, 38820, Note_on_c, 10, 46, 100
11, 38879, Note_on_c, 10, 46, 0
11, 38880, Note_on_c, 10, 40, 100
11, 38939, Note_on_c, 10, 40, 0
11, 38940, Note_on_c, 10, 52, 100
11, 38999, Note_on_c, 10, 52, 0
11, 39000, Note_on_c, 10, 50, 100
11, 39059, Note_on_c, 10, 50, 0
11, 39060, Note_on_c, 10, 49, 100
11, 39119, Note_on_c, 10, 49, 0
11, 39120, Note_on_c, 10, 52, 100
11, 39179, Note_on_c, 10, 52, 0
11, 39180, Note_on_c, 10, 45, 100
11, 39239, Note_on_c, 10, 45, 0
11, 39240, Note_on_c, 10, 38, 100
11, 39299, Note_on_c, 10, 38, 0
11, 39420, Note_on_c, 10, 50, 100
11, 39479, Note_on_c, 10, 50, 0
11, 39780, Note_on_c, 10, 50, 100
11, 39839, Note_on_c, 10, 50, 0
11, 40140, Note_on_c, 10, 50, 100
11, 40199, Note_on_c, 10, 50, 0
11, 41760, Note_on_c, 10, 45, 100
11, 41760, Note_on_c, 10, 57, 100
11, 41819, Note_on_c, 10, 57, 0
11, 41819, Note_on_c, 10, 45, 0
11, 42120, Note_on_c, 10, 45, 100
11, 42120, Note_on_c, 10, 57, 100
11, 42179, Note_on_c, 10, 57, 0
11, 42179, Note_on_c, 10, 45, 0
11, 42480, Note_on_c, 10, 45, 100
11, 42480, Note_on_c, 10, 57, 100
11, 42539, Note_on_c, 10, 57, 0
11, 42539, Note_on_c, 10, 45, 0
11, 42960, Note_on_c, 10, 45, 100
11, 43019, Note_on_c, 10, 45, 0
11, 43140, Note_on_c, 10, 45, 100
11, 43199, Note_on_c, 10, 45, 0
11, 43320, Note_on_c, 10, 45, 100
11, 43379, Note_on_c, 10, 45, 0
11, 43500, Note_on_c, 10, 45, 100
11, 43559, Note_on_c, 10, 45, 0
11, 43680, Note_on_c, 10, 45, 100
11, 43739, Note_on_c, 10, 45, 0
11, 43860, Note_on_c, 10, 45, 100
11, 43919, Note_on_c, 10, 45, 0
11, 44040, Note_on_c, 10, 46, 100
11, 44099, Note_on_c, 10, 46, 0
11, 44100, Note_on_c, 10, 47, 100
11, 44159, Note_on_c, 10, 47, 0
11, 44220, Note_on_c, 10, 47, 100
11, 44279, Note_on_c, 10, 47, 0
11, 44280, Note_on_c, 10, 45, 100
11, 44339, Note_on_c, 10, 45, 0
11, 44340, Note_on_c, 10, 45, 100
11, 44340, Note_on_c, 10, 57, 100
11, 44399, Note_on_c, 10, 57, 0
11, 44399, Note_on_c, 10, 45, 0
11, 44400, Note_on_c, 10, 43, 100
11, 44400, Note_on_c, 10, 55, 100
11, 44459, Note_on_c, 10, 55, 0
11, 44459, Note_on_c, 10, 43, 0
11, 44460, Note_on_c, 10, 41, 100
11, 44460, Note_on_c, 10, 53, 100
11, 44519, Note_on_c, 10, 53, 0
11, 44519, Note_on_c, 10, 41, 0
11, 44520, Note_on_c, 10, 41, 100
11, 44520, Note_on_c, 10, 53, 100
11, 44579, Note_on_c, 10, 53, 0
11, 44579, Note_on_c, 10, 41, 0
11, 44580, Note_on_c, 10, 52, 100
11, 44580, Note_on_c, 10, 40, 100
11, 44639, Note_on_c, 10, 40, 0
11, 44639, Note_on_c, 10, 52, 0
11, 44640, Note_on_c, 10, 50, 100
11, 44640, Note_on_c, 10, 38, 100
11, 44699, Note_on_c, 10, 38, 0
11, 44699, Note_on_c, 10, 50, 0
11, 45210, Note_on_c, 10, 62, 100
11, 45239, Note_on_c, 10, 62, 0
11, 45240, Note_on_c, 10, 65, 100
11, 45269, Note_on_c, 10, 65, 0
11, 45270, Note_on_c, 10, 69, 100
11, 45299, Note_on_c, 10, 69, 0
11, 45300, Note_on_c, 10, 74, 100
11, 45329, Note_on_c, 10, 74, 0
11, 45330, Note_on_c, 10, 73, 100
11, 45359, Note_on_c, 10, 73, 0
11, 45360, Note_on_c, 10, 74, 100
11, 45389, Note_on_c, 10, 74, 0
11, 45390, Note_on_c, 10, 72, 100
11, 45419, Note_on_c, 10, 72, 0
11, 45420, Note_on_c, 10, 70, 100
11, 45449, Note_on_c, 10, 70, 0
11, 45450, Note_on_c, 10, 69, 100
11, 45479, Note_on_c, 10, 69, 0
11, 45480, Note_on_c, 10, 67, 100
11, 45509, Note_on_c, 10, 67, 0
11, 45510, Note_on_c, 10, 65, 100
11, 45539, Note_on_c, 10, 65, 0
11, 45540, Note_on_c, 10, 67, 100
11, 45569, Note_on_c, 10, 67, 0
11, 45570, Note_on_c, 10, 65, 100
11, 45599, Note_on_c, 10, 65, 0
11, 45600, Note_on_c, 10, 64, 100
11, 45629, Note_on_c, 10, 64, 0
11, 45630, Note_on_c, 10, 62, 100
11, 45659, Note_on_c, 10, 62, 0
11, 45660, Note_on_c, 10, 64, 100
11, 45689, Note_on_c, 10, 64, 0
11, 45690, Note_on_c, 10, 65, 100
11, 45719, Note_on_c, 10, 65, 0
11, 45720, Note_on_c, 10, 67, 100
11, 45779, Note_on_c, 10, 67, 0
11, 45780, Note_on_c, 10, 61, 100
11, 45809, Note_on_c, 10, 61, 0
11, 45810, Note_on_c, 10, 62, 100
11, 45839, Note_on_c, 10, 62, 0
11, 45840, Note_on_c, 10, 64, 100
11, 45869, Note_on_c, 10, 64, 0
11, 45870, Note_on_c, 10, 65, 100
11, 45899, Note_on_c, 10, 65, 0
11, 45900, Note_on_c, 10, 67, 100
11, 45929, Note_on_c, 10, 67, 0
11, 45930, Note_on_c, 10, 70, 100
11, 45959, Note_on_c, 10, 70, 0
11, 45960, Note_on_c, 10, 69, 100
11, 45989, Note_on_c, 10, 69, 0
11, 45990, Note_on_c, 10, 67, 100
11, 46019, Note_on_c, 10, 67, 0
11, 46020, Note_on_c, 10, 65, 100
11, 46049, Note_on_c, 10, 65, 0
11, 46050, Note_on_c, 10, 67, 100
11, 46079, Note_on_c, 10, 67, 0
11, 46080, Note_on_c, 10, 69, 100
11, 46139, Note_on_c, 10, 69, 0
11, 46140, Note_on_c, 10, 45, 100
11, 46169, Note_on_c, 10, 45, 0
11, 46170, Note_on_c, 10, 47, 100
11, 46199, Note_on_c, 10, 47, 0
11, 46200, Note_on_c, 10, 49, 100
11, 46229, Note_on_c, 10, 49, 0
11, 46230, Note_on_c, 10, 50, 100
11, 46259, Note_on_c, 10, 50, 0
11, 46260, Note_on_c, 10, 52, 100
11, 46319, Note_on_c, 10, 52, 0
11, 46320, Note_on_c, 10, 52, 100
11, 46379, Note_on_c, 10, 52, 0
11, 46380, Note_on_c, 10, 53, 100
11, 46439, Note_on_c, 10, 53, 0
11, 46440, Note_on_c, 10, 52, 100
11, 46499, Note_on_c, 10, 52, 0
11, 46500, Note_on_c, 10, 64, 100
11, 46559, Note_on_c, 10, 64, 0
11, 46560, Note_on_c, 10, 61, 100
11, 46619, Note_on_c, 10, 61, 0
11, 46620, Note_on_c, 10, 57, 100
11, 46679, Note_on_c, 10, 57, 0
11, 46680, Note_on_c, 10, 53, 100
11, 46739, Note_on_c, 10, 53, 0
11, 46740, Note_on_c, 10, 50, 100
11, 46799, Note_on_c, 10, 50, 0
11, 46800, Note_on_c, 10, 55, 100
11, 47010, Note_on_c, 10, 55, 0
11, 47010, Note_on_c, 10, 48, 100
11, 47039, Note_on_c, 10, 48, 0
11, 47040, Note_on_c, 10, 52, 100
11, 47069, Note_on_c, 10, 52, 0
11, 47070, Note_on_c, 10, 55, 100
11, 47099, Note_on_c, 10, 55, 0
11, 47100, Note_on_c, 10, 52, 100
11, 47129, Note_on_c, 10, 52, 0
11, 47130, Note_on_c, 10, 48, 100
11, 47159, Note_on_c, 10, 48, 0
11, 47160, Note_on_c, 10, 53, 100
11, 47370, Note_on_c, 10, 53, 0
11, 47370, Note_on_c, 10, 46, 100
11, 47399, Note_on_c, 10, 46, 0
11, 47400, Note_on_c, 10, 50, 100
11, 47429, Note_on_c, 10, 50, 0
11, 47430, Note_on_c, 10, 53, 100
11, 47459, Note_on_c, 10, 53, 0
11, 47460, Note_on_c, 10, 50, 100
11, 47489, Note_on_c, 10, 50, 0
11, 47490, Note_on_c, 10, 46, 100
11, 47519, Note_on_c, 10, 46, 0
11, 47520, Note_on_c, 10, 52, 100
11, 47730, Note_on_c, 10, 52, 0
11, 47730, Note_on_c, 10, 45, 100
11, 47759, Note_on_c, 10, 45, 0
11, 47760, Note_on_c, 10, 49, 100
11, 47789, Note_on_c, 10, 49, 0
11, 47790, Note_on_c, 10, 52, 100
11, 47819, Note_on_c, 10, 52, 0
11, 47820, Note_on_c, 10, 49, 100
11, 47849, Note_on_c, 10, 49, 0
11, 47850, Note_on_c, 10, 45, 100
11, 47879, Note_on_c, 10, 45, 0
11, 47880, Note_on_c, 10, 50, 100
11, 47939, Note_on_c, 10, 50, 0
11, 47940, Note_on_c, 10, 53, 100
11, 47999, Note_on_c, 10, 53, 0
11, 48000, Note_on_c, 10, 57, 100
11, 48059, Note_on_c, 10, 57, 0
11, 48060, Note_on_c, 10, 58, 100
11, 48119, Note_on_c, 10, 58, 0
11, 48120, Note_on_c, 10, 60, 100
11, 48179, Note_on_c, 10, 60, 0
11, 48180, Note_on_c, 10, 58, 100
11, 48239, Note_on_c, 10, 58, 0
11, 48240, Note_on_c, 10, 58, 100
11, 48259, Note_on_c, 10, 58, 0
11, 48260, Note_on_c, 10, 57, 100
11, 48279, Note_on_c, 10, 57, 0
11, 48280, Note_on_c, 10, 58, 100
11, 48299, Note_on_c, 10, 58, 0
11, 48300, Note_on_c, 10, 57, 100
11, 48314, Note_on_c, 10, 57, 0
11, 48315, Note_on_c, 10, 58, 100
11, 48329, Note_on_c, 10, 58, 0
11, 48330, Note_on_c, 10, 57, 100
11, 48344, Note_on_c, 10, 57, 0
11, 48345, Note_on_c, 10, 58, 100
11, 48359, Note_on_c, 10, 58, 0
11, 48360, Note_on_c, 10, 57, 100
11, 48369, Note_on_c, 10, 57, 0
11, 48370, Note_on_c, 10, 58, 100
11, 48379, Note_on_c, 10, 58, 0
11, 48380, Note_on_c, 10, 57, 100
11, 48389, Note_on_c, 10, 57, 0
11, 48390, Note_on_c, 10, 58, 100
11, 48399, Note_on_c, 10, 58, 0
11, 48400, Note_on_c, 10, 57, 100
11, 48409, Note_on_c, 10, 57, 0
11, 48410, Note_on_c, 10, 58, 100
11, 48419, Note_on_c, 10, 58, 0
11, 48420, Note_on_c, 10, 57, 100
11, 48429, Note_on_c, 10, 57, 0
11, 48430, Note_on_c, 10, 58, 100
11, 48439, Note_on_c, 10, 58, 0
11, 48440, Note_on_c, 10, 57, 100
11, 48449, Note_on_c, 10, 57, 0
11, 48450, Note_on_c, 10, 58, 100
11, 48459, Note_on_c, 10, 58, 0
11, 48460, Note_on_c, 10, 57, 100
11, 48469, Note_on_c, 10, 57, 0
11, 48470, Note_on_c, 10, 58, 100
11, 48479, Note_on_c, 10, 58, 0
11, 48480, Note_on_c, 10, 57, 100
11, 48489, Note_on_c, 10, 57, 0
11, 48490, Note_on_c, 10, 58, 100
11, 48499, Note_on_c, 10, 58, 0
11, 48500, Note_on_c, 10, 57, 100
11, 48509, Note_on_c, 10, 57, 0
11, 48510, Note_on_c, 10, 58, 100
11, 48519, Note_on_c, 10, 58, 0
11, 48520, Note_on_c, 10, 57, 100
11, 48529, Note_on_c, 10, 57, 0
11, 48530, Note_on_c, 10, 58, 100
11, 48539, Note_on_c, 10, 58, 0
11, 48540, Note_on_c, 10, 57, 100
11, 48549, Note_on_c, 10, 57, 0
11, 48550, Note_on_c, 10, 58, 100
11, 48559, Note_on_c, 10, 58, 0
11, 48560, Note_on_c, 10, 57, 100
11, 48569, Note_on_c, 10, 57, 0
11, 48570, Note_on_c, 10, 58, 100
11, 48579, Note_on_c, 10, 58, 0
11, 48580, Note_on_c, 10, 57, 100
11, 48589, Note_on_c, 10, 57, 0
11, 48590, Note_on_c, 10, 58, 100
11, 48599, Note_on_c, 10, 58, 0
11, 48600, Note_on_c, 10, 57, 100
11, 48609, Note_on_c, 10, 57, 0
11, 48610, Note_on_c, 10, 58, 100
11, 48619, Note_on_c, 10, 58, 0
11, 48620, Note_on_c, 10, 57, 100
11, 48629, Note_on_c, 10, 57, 0
11, 48630, Note_on_c, 10, 58, 100
11, 48639, Note_on_c, 10, 58, 0
11, 48640, Note_on_c, 10, 57, 100
11, 48649, Note_on_c, 10, 57, 0
11, 48650, Note_on_c, 10, 58, 100
11, 48659, Note_on_c, 10, 58, 0
11, 48660, Note_on_c, 10, 57, 100
11, 48669, Note_on_c, 10, 57, 0
11, 48670, Note_on_c, 10, 58, 100
11, 48679, Note_on_c, 10, 58, 0
11, 48680, Note_on_c, 10, 57, 100
11, 48689, Note_on_c, 10, 57, 0
11, 48690, Note_on_c, 10, 58, 100
11, 48699, Note_on_c, 10, 58, 0
11, 48700, Note_on_c, 10, 57, 100
11, 48709, Note_on_c, 10, 57, 0
11, 48710, Note_on_c, 10, 58, 100
11, 48719, Note_on_c, 10, 58, 0
11, 48720, Note_on_c, 10, 57, 100
11, 48749, Note_on_c, 10, 57, 0
11, 48750, Note_on_c, 10, 55, 100
11, 48764, Note_on_c, 10, 55, 0
11, 48765, Note_on_c, 10, 57, 100
11, 48779, Note_on_c, 10, 57, 0
11, 48780, Note_on_c, 10, 58, 100
11, 48789, Note_on_c, 10, 58, 0
11, 48790, Note_on_c, 10, 60, 100
11, 48799, Note_on_c, 10, 60, 0
11, 48800, Note_on_c, 10, 58, 100
11, 48809, Note_on_c, 10, 58, 0
11, 48810, Note_on_c, 10, 60, 100
11, 48819, Note_on_c, 10, 60, 0
11, 48820, Note_on_c, 10, 58, 100
11, 48829, Note_on_c, 10, 58, 0
11, 48830, Note_on_c, 10, 60, 100
11, 48839, Note_on_c, 10, 60, 0
11, 48840, Note_on_c, 10, 58, 100
11, 48849, Note_on_c, 10, 58, 0
11, 48850, Note_on_c, 10, 60, 100
11, 48859, Note_on_c, 10, 60, 0
11, 48860, Note_on_c, 10, 58, 100
11, 48869, Note_on_c, 10, 58, 0
11, 48870, Note_on_c, 10, 60, 100
11, 48879, Note_on_c, 10, 60, 0
11, 48880, Note_on_c, 10, 58, 100
11, 48889, Note_on_c, 10, 58, 0
11, 48890, Note_on_c, 10, 60, 100
11, 48899, Note_on_c, 10, 60, 0
11, 48900, Note_on_c, 10, 58, 100
11, 48929, Note_on_c, 10, 58, 0
11, 48930, Note_on_c, 10, 57, 100
11, 48944, Note_on_c, 10, 57, 0
11, 48945, Note_on_c, 10, 55, 100
11, 48959, Note_on_c, 10, 55, 0
11, 48960, Note_on_c, 10, 57, 100
11, 48989, Note_on_c, 10, 57, 0
11, 48990, Note_on_c, 10, 49, 100
11, 49019, Note_on_c, 10, 49, 0
11, 49020, Note_on_c, 10, 45, 100
11, 49049, Note_on_c, 10, 45, 0
11, 49050, Note_on_c, 10, 49, 100
11, 49079, Note_on_c, 10, 49, 0
11, 49080, Note_on_c, 10, 50, 100
11, 49139, Note_on_c, 10, 50, 0
11, 49170, Note_on_c, 10, 55, 100
11, 49199, Note_on_c, 10, 55, 0
11, 49200, Note_on_c, 10, 57, 100
11, 49259, Note_on_c, 10, 57, 0
11, 49260, Note_on_c, 10, 45, 100
11, 49319, Note_on_c, 10, 45, 0
11, 49320, Note_on_c, 10, 38, 100
11, 49379, Note_on_c, 10, 38, 0
11, 49380, Note_on_c, 10, 50, 100
11, 49439, Note_on_c, 10, 50, 0
11, 49440, Note_on_c, 10, 52, 100
11, 49499, Note_on_c, 10, 52, 0
11, 49500, Note_on_c, 10, 53, 100
11, 49559, Note_on_c, 10, 53, 0
11, 49560, Note_on_c, 10, 53, 100
11, 49619, Note_on_c, 10, 53, 0
11, 49620, Note_on_c, 10, 55, 100
11, 49679, Note_on_c, 10, 55, 0
11, 49680, Note_on_c, 10, 57, 100
11, 49739, Note_on_c, 10, 57, 0
11, 49740, Note_on_c, 10, 57, 100
11, 49799, Note_on_c, 10, 57, 0
11, 49800, Note_on_c, 10, 58, 100
11, 49859, Note_on_c, 10, 58, 0
11, 49860, Note_on_c, 10, 57, 100
11, 49919, Note_on_c, 10, 57, 0
11, 49920, Note_on_c, 10, 55, 100
11, 49949, Note_on_c, 10, 55, 0
11, 49950, Note_on_c, 10, 53, 100
11, 49979, Note_on_c, 10, 53, 0
11, 49980, Note_on_c, 10, 52, 100
11, 50009, Note_on_c, 10, 52, 0
11, 50010, Note_on_c, 10, 50, 100
11, 50039, Note_on_c, 10, 50, 0
11, 50040, Note_on_c, 10, 49, 100
11, 50099, Note_on_c, 10, 49, 0
11, 50100, Note_on_c, 10, 45, 100
11, 50129, Note_on_c, 10, 45, 0
11, 50130, Note_on_c, 10, 47, 100
11, 50159, Note_on_c, 10, 47, 0
11, 50160, Note_on_c, 10, 49, 100
11, 50189, Note_on_c, 10, 49, 0
11, 50190, Note_on_c, 10, 50, 100
11, 50219, Note_on_c, 10, 50, 0
11, 50220, Note_on_c, 10, 52, 100
11, 50279, Note_on_c, 10, 52, 0
11, 50280, Note_on_c, 10, 52, 100
11, 50339, Note_on_c, 10, 52, 0
11, 50340, Note_on_c, 10, 53, 100
11, 50399, Note_on_c, 10, 53, 0
11, 50400, Note_on_c, 10, 52, 100
11, 50459, Note_on_c, 10, 52, 0
11, 50460, Note_on_c, 10, 45, 100
11, 50489, Note_on_c, 10, 45, 0
11, 50490, Note_on_c, 10, 47, 100
11, 50519, Note_on_c, 10, 47, 0
11, 50520, Note_on_c, 10, 49, 100
11, 50549, Note_on_c, 10, 49, 0
11, 50550, Note_on_c, 10, 50, 100
11, 50579, Note_on_c, 10, 50, 0
11, 50580, Note_on_c, 10, 52, 100
11, 50639, Note_on_c, 10, 52, 0
11, 50640, Note_on_c, 10, 52, 100
11, 50699, Note_on_c, 10, 52, 0
11, 50700, Note_on_c, 10, 53, 100
11, 50759, Note_on_c, 10, 53, 0
11, 50760, Note_on_c, 10, 52, 100
11, 50819, Note_on_c, 10, 52, 0
11, 50820, Note_on_c, 10, 45, 100
11, 50849, Note_on_c, 10, 45, 0
11, 50850, Note_on_c, 10, 47, 100
11, 50879, Note_on_c, 10, 47, 0
11, 50880, Note_on_c, 10, 49, 100
11, 50909, Note_on_c, 10, 49, 0
11, 50910, Note_on_c, 10, 50, 100
11, 50939, Note_on_c, 10, 50, 0
11, 50940, Note_on_c, 10, 52, 100
11, 50969, Note_on_c, 10, 52, 0
11, 50970, Note_on_c, 10, 50, 100
11, 50999, Note_on_c, 10, 50, 0
11, 51000, Note_on_c, 10, 49, 100
11, 51029, Note_on_c, 10, 49, 0
11, 51030, Note_on_c, 10, 50, 100
11, 51059, Note_on_c, 10, 50, 0
11, 51060, Note_on_c, 10, 52, 100
11, 51089, Note_on_c, 10, 52, 0
11, 51090, Note_on_c, 10, 53, 100
11, 51119, Note_on_c, 10, 53, 0
11, 51120, Note_on_c, 10, 55, 100
11, 51149, Note_on_c, 10, 55, 0
11, 51150, Note_on_c, 10, 53, 100
11, 51179, Note_on_c, 10, 53, 0
11, 51180, Note_on_c, 10, 52, 100
11, 51209, Note_on_c, 10, 52, 0
11, 51210, Note_on_c, 10, 53, 100
11, 51239, Note_on_c, 10, 53, 0
11, 51240, Note_on_c, 10, 55, 100
11, 51269, Note_on_c, 10, 55, 0
11, 51270, Note_on_c, 10, 57, 100
11, 51299, Note_on_c, 10, 57, 0
11, 51300, Note_on_c, 10, 58, 100
11, 51329, Note_on_c, 10, 58, 0
11, 51330, Note_on_c, 10, 57, 100
11, 51359, Note_on_c, 10, 57, 0
11, 51360, Note_on_c, 10, 55, 100
11, 51389, Note_on_c, 10, 55, 0
11, 51390, Note_on_c, 10, 53, 100
11, 51419, Note_on_c, 10, 53, 0
11, 51420, Note_on_c, 10, 52, 100
11, 51449, Note_on_c, 10, 52, 0
11, 51450, Note_on_c, 10, 50, 100
11, 51479, Note_on_c, 10, 50, 0
11, 51480, Note_on_c, 10, 49, 100
11, 51509, Note_on_c, 10, 49, 0
11, 51510, Note_on_c, 10, 52, 100
11, 51539, Note_on_c, 10, 52, 0
11, 51540, Note_on_c, 10, 45, 100
11, 51569, Note_on_c, 10, 45, 0
11, 51570, Note_on_c, 10, 49, 100
11, 51599, Note_on_c, 10, 49, 0
11, 51600, Note_on_c, 10, 50, 100
11, 51659, Note_on_c, 10, 50, 0
11, 51690, Note_on_c, 10, 43, 100
11, 51719, Note_on_c, 10, 43, 0
11, 51720, Note_on_c, 10, 45, 100
11, 51779, Note_on_c, 10, 45, 0
11, 51780, Note_on_c, 10, 45, 100
11, 51839, Note_on_c, 10, 45, 0
11, 51840, Note_on_c, 10, 38, 100
11, 51840, Note_on_c, 10, 50, 100
11, 52019, Note_on_c, 10, 50, 0
11, 52019, Note_on_c, 10, 38, 0
11, 52200, Note_on_c, 10, 53, 100
11, 52200, Note_on_c, 10, 60, 100
11, 52200, Note_on_c, 10, 57, 100
11, 52259, Note_on_c, 10, 57, 0
11, 52259, Note_on_c, 10, 60, 0
11, 52259, Note_on_c, 10, 53, 0
11, 52380, Note_on_c, 10, 58, 100
11, 52380, Note_on_c, 10, 55, 100
11, 52380, Note_on_c, 10, 64, 100
11, 52439, Note_on_c, 10, 64, 0
11, 52439, Note_on_c, 10, 55, 0
11, 52439, Note_on_c, 10, 58, 0
11, 52560, Note_on_c, 10, 53, 100
11, 52560, Note_on_c, 10, 60, 100
11, 52560, Note_on_c, 10, 65, 100
11, 52619, Note_on_c, 10, 65, 0
11, 52619, Note_on_c, 10, 60, 0
11, 52619, Note_on_c, 10, 53, 0
11, 52740, Note_on_c, 10, 53, 100
11, 52740, Note_on_c, 10, 57, 100
11, 52740, Note_on_c, 10, 60, 100
11, 52799, Note_on_c, 10, 60, 0
11, 52799, Note_on_c, 10, 57, 0
11, 52799, Note_on_c, 10, 53, 0
11, 52920, Note_on_c, 10, 53, 100
11, 52920, Note_on_c, 10, 62, 100
11, 52920, Note_on_c, 10, 59, 100
11, 52979, Note_on_c, 10, 59, 0
11, 52979, Note_on_c, 10, 62, 0
11, 52979, Note_on_c, 10, 53, 0
11, 53100, Note_on_c, 10, 54, 100
11, 53100, Note_on_c, 10, 57, 100
11, 53100, Note_on_c, 10, 60, 100
11, 53159, Note_on_c, 10, 60, 0
11, 53159, Note_on_c, 10, 57, 0
11, 53159, Note_on_c, 10, 54, 0
11, 53280, Note_on_c, 10, 62, 100
11, 53280, Note_on_c, 10, 55, 100
11, 53280, Note_on_c, 10, 67, 100
11, 53339, Note_on_c, 10, 67, 0
11, 53339, Note_on_c, 10, 55, 0
11, 53339, Note_on_c, 10, 62, 0
11, 53460, Note_on_c, 10, 55, 100
11, 53460, Note_on_c, 10, 59, 100
11, 53460, Note_on_c, 10, 62, 100
11, 53519, Note_on_c, 10, 62, 0
11, 53519, Note_on_c, 10, 59, 0
11, 53519, Note_on_c, 10, 55, 0
11, 53640, Note_on_c, 10, 56, 100
11, 53640, Note_on_c, 10, 59, 100
11, 53640, Note_on_c, 10, 62, 100
11, 53699, Note_on_c, 10, 62, 0
11, 53699, Note_on_c, 10, 59, 0
11, 53699, Note_on_c, 10, 56, 0
11, 53820, Note_on_c, 10, 69, 100
11, 53820, Note_on_c, 10, 60, 100
11, 53820, Note_on_c, 10, 57, 100
11, 53879, Note_on_c, 10, 57, 0
11, 53879, Note_on_c, 10, 60, 0
11, 53879, Note_on_c, 10, 69, 0
11, 54000, Note_on_c, 10, 60, 100
11, 54000, Note_on_c, 10, 52, 100
11, 54000, Note_on_c, 10, 55, 100
11, 54059, Note_on_c, 10, 55, 0
11, 54059, Note_on_c, 10, 52, 0
11, 54059, Note_on_c, 10, 60, 0
11, 54180, Note_on_c, 10, 63, 100
11, 54180, Note_on_c, 10, 60, 100
11, 54180, Note_on_c, 10, 54, 100
11, 54239, Note_on_c, 10, 54, 0
11, 54239, Note_on_c, 10, 60, 0
11, 54239, Note_on_c, 10, 63, 0
11, 54360, Note_on_c, 10, 63, 100
11, 54360, Note_on_c, 10, 60, 100
11, 54360, Note_on_c, 10, 55, 100
11, 54419, Note_on_c, 10, 55, 0
11, 54419, Note_on_c, 10, 60, 0
11, 54419, Note_on_c, 10, 63, 0
11, 54540, Note_on_c, 10, 65, 100
11, 54540, Note_on_c, 10, 62, 100
11, 54540, Note_on_c, 10, 55, 100
11, 54599, Note_on_c, 10, 55, 0
11, 54599, Note_on_c, 10, 62, 0
11, 54599, Note_on_c, 10, 65, 0
11, 54720, Note_on_c, 10, 60, 100
11, 54720, Note_on_c, 10, 64, 100
11, 54779, Note_on_c, 10, 64, 0
11, 54779, Note_on_c, 10, 60, 0
11, 54930, Note_on_c, 10, 62, 100
11, 54959, Note_on_c, 10, 62, 0
11, 54960, Note_on_c, 10, 60, 100
11, 54989, Note_on_c, 10, 60, 0
11, 54990, Note_on_c, 10, 58, 100
11, 55019, Note_on_c, 10, 58, 0
11, 55020, Note_on_c, 10, 57, 100
11, 55049, Note_on_c, 10, 57, 0
11, 55050, Note_on_c, 10, 55, 100
11, 55079, Note_on_c, 10, 55, 0
11, 55080, Note_on_c, 10, 53, 100
11, 55110, Note_on_c, 10, 53, 0
11, 55200, Note_on_c, 10, 53, 100
11, 55230, Note_on_c, 10, 53, 0
11, 55260, Note_on_c, 10, 41, 100
11, 55290, Note_on_c, 10, 41, 0
11, 55380, Note_on_c, 10, 53, 100
11, 55410, Note_on_c, 10, 53, 0
11, 55440, Note_on_c, 10, 41, 100
11, 55470, Note_on_c, 10, 41, 0
11, 55560, Note_on_c, 10, 53, 100
11, 55590, Note_on_c, 10, 53, 0
11, 55620, Note_on_c, 10, 41, 100
11, 55650, Note_on_c, 10, 41, 0
11, 55740, Note_on_c, 10, 53, 100
11, 55770, Note_on_c, 10, 53, 0
11, 55800, Note_on_c, 10, 41, 100
11, 55830, Note_on_c, 10, 41, 0
11, 55920, Note_on_c, 10, 53, 100
11, 55950, Note_on_c, 10, 53, 0
11, 55980, Note_on_c, 10, 42, 100
11, 56010, Note_on_c, 10, 42, 0
11, 56100, Note_on_c, 10, 54, 100
11, 56130, Note_on_c, 10, 54, 0
11, 56160, Note_on_c, 10, 43, 100
11, 56190, Note_on_c, 10, 43, 0
11, 56280, Note_on_c, 10, 55, 100
11, 56310, Note_on_c, 10, 55, 0
11, 56340, Note_on_c, 10, 43, 100
11, 56370, Note_on_c, 10, 43, 0
11, 56460, Note_on_c, 10, 55, 100
11, 56490, Note_on_c, 10, 55, 0
11, 56520, Note_on_c, 10, 44, 100
11, 56550, Note_on_c, 10, 44, 0
11, 56640, Note_on_c, 10, 56, 100
11, 56670, Note_on_c, 10, 56, 0
11, 56700, Note_on_c, 10, 45, 100
11, 56730, Note_on_c, 10, 45, 0
11, 56820, Note_on_c, 10, 57, 100
11, 56850, Note_on_c, 10, 57, 0
11, 56880, Note_on_c, 10, 40, 100
11, 56910, Note_on_c, 10, 40, 0
11, 57000, Note_on_c, 10, 52, 100
11, 57030, Note_on_c, 10, 52, 0
11, 57060, Note_on_c, 10, 42, 100
11, 57090, Note_on_c, 10, 42, 0
11, 57180, Note_on_c, 10, 54, 100
11, 57210, Note_on_c, 10, 54, 0
11, 57240, Note_on_c, 10, 43, 100
11, 57270, Note_on_c, 10, 43, 0
11, 57360, Note_on_c, 10, 55, 100
11, 57390, Note_on_c, 10, 55, 0
11, 57420, Note_on_c, 10, 43, 100
11, 57450, Note_on_c, 10, 43, 0
11, 57540, Note_on_c, 10, 55, 100
11, 57570, Note_on_c, 10, 55, 0
11, 57600, Note_on_c, 10, 48, 100
11, 57630, Note_on_c, 10, 48, 0
11, 57810, Note_on_c, 10, 62, 100
11, 57839, Note_on_c, 10, 62, 0
11, 57840, Note_on_c, 10, 60, 100
11, 57869, Note_on_c, 10, 60, 0
11, 57870, Note_on_c, 10, 58, 100
11, 57899, Note_on_c, 10, 58, 0
11, 57900, Note_on_c, 10, 57, 100
11, 57929, Note_on_c, 10, 57, 0
11, 57930, Note_on_c, 10, 55, 100
11, 57959, Note_on_c, 10, 55, 0
11, 57960, Note_on_c, 10, 57, 100
11, 57960, Note_on_c, 10, 60, 100
11, 58019, Note_on_c, 10, 60, 0
11, 58019, Note_on_c, 10, 57, 0
11, 58140, Note_on_c, 10, 55, 100
11, 58140, Note_on_c, 10, 63, 100
11, 58140, Note_on_c, 10, 67, 100
11, 58199, Note_on_c, 10, 67, 0
11, 58199, Note_on_c, 10, 63, 0
11, 58199, Note_on_c, 10, 55, 0
11, 58320, Note_on_c, 10, 54, 100
11, 58320, Note_on_c, 10, 62, 100
11, 58320, Note_on_c, 10, 57, 100
11, 58379, Note_on_c, 10, 57, 0
11, 58379, Note_on_c, 10, 62, 0
11, 58379, Note_on_c, 10, 54, 0
11, 58500, Note_on_c, 10, 62, 100
11, 58500, Note_on_c, 10, 54, 100
11, 58500, Note_on_c, 10, 50, 100
11, 58500, Note_on_c, 10, 57, 100
11, 58559, Note_on_c, 10, 57, 0
11, 58559, Note_on_c, 10, 62, 0
11, 58559, Note_on_c, 10, 54, 0
11, 58559, Note_on_c, 10, 50, 0
11, 58680, Note_on_c, 10, 55, 100
11, 58680, Note_on_c, 10, 58, 100
11, 58680, Note_on_c, 10, 62, 100
11, 58739, Note_on_c, 10, 62, 0
11, 58739, Note_on_c, 10, 58, 0
11, 58739, Note_on_c, 10, 55, 0
11, 58860, Note_on_c, 10, 48, 100
11, 58860, Note_on_c, 10, 55, 100
11, 58860, Note_on_c, 10, 60, 100
11, 58919, Note_on_c, 10, 60, 0
11, 58919, Note_on_c, 10, 55, 0
11, 58919, Note_on_c, 10, 48, 0
11, 59040, Note_on_c, 10, 54, 100
11, 59040, Note_on_c, 10, 50, 100
11, 59040, Note_on_c, 10, 57, 100
11, 59099, Note_on_c, 10, 57, 0
11, 59099, Note_on_c, 10, 50, 0
11, 59099, Note_on_c, 10, 54, 0
11, 59220, Note_on_c, 10, 60, 100
11, 59220, Note_on_c, 10, 57, 100
11, 59220, Note_on_c, 10, 54, 100
11, 59279, Note_on_c, 10, 54, 0
11, 59279, Note_on_c, 10, 57, 0
11, 59279, Note_on_c, 10, 60, 0
11, 59400, Note_on_c, 10, 67, 100
11, 59400, Note_on_c, 10, 62, 100
11, 59400, Note_on_c, 10, 55, 100
11, 59459, Note_on_c, 10, 55, 0
11, 59459, Note_on_c, 10, 62, 0
11, 59459, Note_on_c, 10, 67, 0
11, 59580, Note_on_c, 10, 67, 100
11, 59580, Note_on_c, 10, 62, 100
11, 59580, Note_on_c, 10, 58, 100
11, 59639, Note_on_c, 10, 58, 0
11, 59639, Note_on_c, 10, 62, 0
11, 59639, Note_on_c, 10, 67, 0
11, 59760, Note_on_c, 10, 69, 100
11, 59760, Note_on_c, 10, 64, 100
11, 59760, Note_on_c, 10, 57, 100
11, 59819, Note_on_c, 10, 57, 0
11, 59819, Note_on_c, 10, 64, 0
11, 59819, Note_on_c, 10, 69, 0
11, 59940, Note_on_c, 10, 57, 100
11, 59940, Note_on_c, 10, 52, 100
11, 59940, Note_on_c, 10, 49, 100
11, 59999, Note_on_c, 10, 49, 0
11, 59999, Note_on_c, 10, 52, 0
11, 59999, Note_on_c, 10, 57, 0
11, 60120, Note_on_c, 10, 57, 100
11, 60120, Note_on_c, 10, 53, 100
11, 60120, Note_on_c, 10, 50, 100
11, 60179, Note_on_c, 10, 50, 0
11, 60179, Note_on_c, 10, 53, 0
11, 60179, Note_on_c, 10, 57, 0
11, 60300, Note_on_c, 10, 57, 100
11, 60300, Note_on_c, 10, 52, 100
11, 60300, Note_on_c, 10, 45, 100
11, 60359, Note_on_c, 10, 45, 0
11, 60359, Note_on_c, 10, 52, 0
11, 60359, Note_on_c, 10, 57, 0
11, 60480, Note_on_c, 10, 57, 100
11, 60480, Note_on_c, 10, 53, 100
11, 60480, Note_on_c, 10, 50, 100
11, 60539, Note_on_c, 10, 50, 0
11, 60539, Note_on_c, 10, 53, 0
11, 60539, Note_on_c, 10, 57, 0
11, 60690, Note_on_c, 10, 57, 100
11, 60719, Note_on_c, 10, 57, 0
11, 60720, Note_on_c, 10, 62, 100
11, 60749, Note_on_c, 10, 62, 0
11, 60750, Note_on_c, 10, 65, 100
11, 60779, Note_on_c, 10, 65, 0
11, 60780, Note_on_c, 10, 62, 100
11, 60809, Note_on_c, 10, 62, 0
11, 60810, Note_on_c, 10, 57, 100
11, 60839, Note_on_c, 10, 57, 0
11, 60840, Note_on_c, 10, 59, 100
11, 60840, Note_on_c, 10, 62, 100
11, 60899, Note_on_c, 10, 62, 0
11, 60899, Note_on_c, 10, 59, 0
11, 61020, Note_on_c, 10, 59, 100
11, 61020, Note_on_c, 10, 62, 100
11, 61020, Note_on_c, 10, 67, 100
11, 61079, Note_on_c, 10, 67, 0
11, 61079, Note_on_c, 10, 62, 0
11, 61079, Note_on_c, 10, 59, 0
11, 61200, Note_on_c, 10, 58, 100
11, 61200, Note_on_c, 10, 60, 100
11, 61200, Note_on_c, 10, 67, 100
11, 61259, Note_on_c, 10, 67, 0
11, 61259, Note_on_c, 10, 60, 0
11, 61259, Note_on_c, 10, 58, 0
11, 61380, Note_on_c, 10, 58, 100
11, 61380, Note_on_c, 10, 64, 100
11, 61380, Note_on_c, 10, 67, 100
11, 61439, Note_on_c, 10, 67, 0
11, 61439, Note_on_c, 10, 64, 0
11, 61439, Note_on_c, 10, 58, 0
11, 61560, Note_on_c, 10, 57, 100
11, 61560, Note_on_c, 10, 60, 100
11, 61560, Note_on_c, 10, 65, 100
11, 61619, Note_on_c, 10, 65, 0
11, 61619, Note_on_c, 10, 60, 0
11, 61619, Note_on_c, 10, 57, 0
11, 61740, Note_on_c, 10, 57, 100
11, 61740, Note_on_c, 10, 60, 100
11, 61740, Note_on_c, 10, 65, 100
11, 61799, Note_on_c, 10, 65, 0
11, 61799, Note_on_c, 10, 60, 0
11, 61799, Note_on_c, 10, 57, 0
11, 61920, Note_on_c, 10, 58, 100
11, 61920, Note_on_c, 10, 62, 100
11, 61920, Note_on_c, 10, 65, 100
11, 61979, Note_on_c, 10, 65, 0
11, 61979, Note_on_c, 10, 62, 0
11, 61979, Note_on_c, 10, 58, 0
11, 62100, Note_on_c, 10, 58, 100
11, 62100, Note_on_c, 10, 65, 100
11, 62159, Note_on_c, 10, 65, 0
11, 62159, Note_on_c, 10, 58, 0
11, 62280, Note_on_c, 10, 52, 100
11, 62280, Note_on_c, 10, 55, 100
11, 62280, Note_on_c, 10, 60, 100
11, 62339, Note_on_c, 10, 60, 0
11, 62339, Note_on_c, 10, 55, 0
11, 62339, Note_on_c, 10, 52, 0
11, 62460, Note_on_c, 10, 52, 100
11, 62460, Note_on_c, 10, 55, 100
11, 62460, Note_on_c, 10, 60, 100
11, 62519, Note_on_c, 10, 60, 0
11, 62519, Note_on_c, 10, 55, 0
11, 62519, Note_on_c, 10, 52, 0
11, 62640, Note_on_c, 10, 53, 100
11, 62640, Note_on_c, 10, 57, 100
11, 62640, Note_on_c, 10, 60, 100
11, 62699, Note_on_c, 10, 60, 0
11, 62699, Note_on_c, 10, 57, 0
11, 62699, Note_on_c, 10, 53, 0
11, 62820, Note_on_c, 10, 53, 100
11, 62820, Note_on_c, 10, 60, 100
11, 62820, Note_on_c, 10, 57, 100
11, 62879, Note_on_c, 10, 57, 0
11, 62879, Note_on_c, 10, 60, 0
11, 62879, Note_on_c, 10, 53, 0
11, 63000, Note_on_c, 10, 59, 100
11, 63000, Note_on_c, 10, 50, 100
11, 63000, Note_on_c, 10, 53, 100
11, 63059, Note_on_c, 10, 53, 0
11, 63059, Note_on_c, 10, 50, 0
11, 63059, Note_on_c, 10, 59, 0
11, 63180, Note_on_c, 10, 55, 100
11, 63180, Note_on_c, 10, 47, 100
11, 63180, Note_on_c, 10, 50, 100
11, 63239, Note_on_c, 10, 50, 0
11, 63239, Note_on_c, 10, 47, 0
11, 63239, Note_on_c, 10, 55, 0
11, 63360, Note_on_c, 10, 48, 100
11, 63360, Note_on_c, 10, 55, 100
11, 63360, Note_on_c, 10, 60, 100
11, 63419, Note_on_c, 10, 60, 0
11, 63419, Note_on_c, 10, 55, 0
11, 63419, Note_on_c, 10, 48, 0
11, 63540, Note_on_c, 10, 48, 100
11, 63540, Note_on_c, 10, 52, 100
11, 63540, Note_on_c, 10, 55, 100
11, 63599, Note_on_c, 10, 55, 0
11, 63599, Note_on_c, 10, 52, 0
11, 63599, Note_on_c, 10, 48, 0
11, 63720, Note_on_c, 10, 48, 100
11, 63720, Note_on_c, 10, 52, 100
11, 63720, Note_on_c, 10, 55, 100
11, 63779, Note_on_c, 10, 55, 0
11, 63779, Note_on_c, 10, 52, 0
11, 63779, Note_on_c, 10, 48, 0
11, 63900, Note_on_c, 10, 59, 100
11, 63900, Note_on_c, 10, 53, 100
11, 63900, Note_on_c, 10, 50, 100
11, 63900, Note_on_c, 10, 48, 100
11, 63959, Note_on_c, 10, 48, 0
11, 63959, Note_on_c, 10, 59, 0
11, 63959, Note_on_c, 10, 53, 0
11, 63959, Note_on_c, 10, 50, 0
11, 64080, Note_on_c, 10, 60, 100
11, 64080, Note_on_c, 10, 55, 100
11, 64080, Note_on_c, 10, 48, 100
11, 64139, Note_on_c, 10, 48, 0
11, 64139, Note_on_c, 10, 55, 0
11, 64139, Note_on_c, 10, 60, 0
11, 64260, Note_on_c, 10, 55, 100
11, 64260, Note_on_c, 10, 52, 100
11, 64260, Note_on_c, 10, 48, 100
11, 64319, Note_on_c, 10, 48, 0
11, 64319, Note_on_c, 10, 52, 0
11, 64319, Note_on_c, 10, 55, 0
11, 64440, Note_on_c, 10, 57, 100
11, 64440, Note_on_c, 10, 53, 100
11, 64440, Note_on_c, 10, 48, 100
11, 64499, Note_on_c, 10, 48, 0
11, 64499, Note_on_c, 10, 53, 0
11, 64499, Note_on_c, 10, 57, 0
11, 64620, Note_on_c, 10, 55, 100
11, 64620, Note_on_c, 10, 52, 100
11, 64620, Note_on_c, 10, 48, 100
11, 64679, Note_on_c, 10, 48, 0
11, 64679, Note_on_c, 10, 52, 0
11, 64679, Note_on_c, 10, 55, 0
11, 64800, Note_on_c, 10, 58, 100
11, 64800, Note_on_c, 10, 48, 100
11, 64800, Note_on_c, 10, 52, 100
11, 64859, Note_on_c, 10, 52, 0
11, 64859, Note_on_c, 10, 48, 0
11, 64859, Note_on_c, 10, 58, 0
11, 64980, Note_on_c, 10, 48, 100
11, 64980, Note_on_c, 10, 56, 100
11, 64980, Note_on_c, 10, 53, 100
11, 65039, Note_on_c, 10, 53, 0
11, 65039, Note_on_c, 10, 56, 0
11, 65039, Note_on_c, 10, 48, 0
11, 65160, Note_on_c, 10, 58, 100
11, 65160, Note_on_c, 10, 48, 100
11, 65219, Note_on_c, 10, 48, 0
11, 65219, Note_on_c, 10, 58, 0
11, 65340, Note_on_c, 10, 48, 100
11, 65340, Note_on_c, 10, 52, 100
11, 65340, Note_on_c, 10, 55, 100
11, 65399, Note_on_c, 10, 55, 0
11, 65399, Note_on_c, 10, 52, 0
11, 65399, Note_on_c, 10, 48, 0
11, 65520, Note_on_c, 10, 60, 100
11, 65520, Note_on_c, 10, 56, 100
11, 65520, Note_on_c, 10, 49, 100
11, 65579, Note_on_c, 10, 49, 0
11, 65579, Note_on_c, 10, 56, 0
11, 65579, Note_on_c, 10, 60, 0
11, 65700, Note_on_c, 10, 59, 100
11, 65700, Note_on_c, 10, 53, 100
11, 65700, Note_on_c, 10, 50, 100
11, 65759, Note_on_c, 10, 50, 0
11, 65759, Note_on_c, 10, 53, 0
11, 65759, Note_on_c, 10, 59, 0
11, 65880, Note_on_c, 10, 60, 100
11, 65880, Note_on_c, 10, 55, 100
11, 65880, Note_on_c, 10, 52, 100
11, 65939, Note_on_c, 10, 52, 0
11, 65939, Note_on_c, 10, 55, 0
11, 65939, Note_on_c, 10, 60, 0
11, 66000, Note_on_c, 10, 60, 100
11, 66000, Note_on_c, 10, 53, 100
11, 66059, Note_on_c, 10, 53, 0
11, 66059, Note_on_c, 10, 60, 0
11, 66060, Note_on_c, 10, 58, 100
11, 66060, Note_on_c, 10, 62, 100
11, 66119, Note_on_c, 10, 62, 0
11, 66119, Note_on_c, 10, 58, 0
11, 66120, Note_on_c, 10, 60, 100
11, 66179, Note_on_c, 10, 60, 0
11, 66180, Note_on_c, 10, 58, 100
11, 66180, Note_on_c, 10, 48, 100
11, 66239, Note_on_c, 10, 48, 0
11, 66239, Note_on_c, 10, 58, 0
11, 66240, Note_on_c, 10, 53, 100
11, 66240, Note_on_c, 10, 57, 100
11, 66299, Note_on_c, 10, 57, 0
11, 66299, Note_on_c, 10, 53, 0
11, 66450, Note_on_c, 10, 65, 100
11, 66479, Note_on_c, 10, 65, 0
11, 66480, Note_on_c, 10, 64, 100
11, 66509, Note_on_c, 10, 64, 0
11, 66510, Note_on_c, 10, 62, 100
11, 66539, Note_on_c, 10, 62, 0
11, 66540, Note_on_c, 10, 60, 100
11, 66569, Note_on_c, 10, 60, 0
11, 66570, Note_on_c, 10, 58, 100
11, 66599, Note_on_c, 10, 58, 0
11, 66600, Note_on_c, 10, 57, 100
11, 66659, Note_on_c, 10, 57, 0
11, 66720, Note_on_c, 10, 57, 100
11, 66779, Note_on_c, 10, 57, 0
11, 66780, Note_on_c, 10, 43, 100
11, 66839, Note_on_c, 10, 43, 0
11, 66900, Note_on_c, 10, 55, 100
11, 66959, Note_on_c, 10, 55, 0
11, 66960, Note_on_c, 10, 42, 100
11, 67019, Note_on_c, 10, 42, 0
11, 67080, Note_on_c, 10, 54, 100
11, 67139, Note_on_c, 10, 54, 0
11, 67140, Note_on_c, 10, 38, 100
11, 67199, Note_on_c, 10, 38, 0
11, 67260, Note_on_c, 10, 50, 100
11, 67319, Note_on_c, 10, 50, 0
11, 67320, Note_on_c, 10, 43, 100
11, 67379, Note_on_c, 10, 43, 0
11, 67440, Note_on_c, 10, 55, 100
11, 67499, Note_on_c, 10, 55, 0
11, 67500, Note_on_c, 10, 36, 100
11, 67559, Note_on_c, 10, 36, 0
11, 67620, Note_on_c, 10, 48, 100
11, 67679, Note_on_c, 10, 48, 0
11, 67680, Note_on_c, 10, 38, 100
11, 67739, Note_on_c, 10, 38, 0
11, 67800, Note_on_c, 10, 50, 100
11, 67859, Note_on_c, 10, 50, 0
11, 67860, Note_on_c, 10, 42, 100
11, 67919, Note_on_c, 10, 42, 0
11, 67980, Note_on_c, 10, 54, 100
11, 68039, Note_on_c, 10, 54, 0
11, 68040, Note_on_c, 10, 43, 100
11, 68099, Note_on_c, 10, 43, 0
11, 68160, Note_on_c, 10, 55, 100
11, 68219, Note_on_c, 10, 55, 0
11, 68220, Note_on_c, 10, 46, 100
11, 68279, Note_on_c, 10, 46, 0
11, 68340, Note_on_c, 10, 58, 100
11, 68399, Note_on_c, 10, 58, 0
11, 68400, Note_on_c, 10, 45, 100
11, 68459, Note_on_c, 10, 45, 0
11, 68520, Note_on_c, 10, 57, 100
11, 68579, Note_on_c, 10, 57, 0
11, 68580, Note_on_c, 10, 49, 100
11, 68639, Note_on_c, 10, 49, 0
11, 68700, Note_on_c, 10, 61, 100
11, 68759, Note_on_c, 10, 61, 0
11, 68760, Note_on_c, 10, 50, 100
11, 68819, Note_on_c, 10, 50, 0
11, 68880, Note_on_c, 10, 62, 100
11, 68939, Note_on_c, 10, 62, 0
11, 68940, Note_on_c, 10, 45, 100
11, 68999, Note_on_c, 10, 45, 0
11, 69060, Note_on_c, 10, 57, 100
11, 69119, Note_on_c, 10, 57, 0
11, 69120, Note_on_c, 10, 50, 100
11, 69299, Note_on_c, 10, 50, 0
11, 69330, Note_on_c, 10, 53, 100
11, 69359, Note_on_c, 10, 53, 0
11, 69360, Note_on_c, 10, 57, 100
11, 69389, Note_on_c, 10, 57, 0
11, 69390, Note_on_c, 10, 55, 100
11, 69419, Note_on_c, 10, 55, 0
11, 69420, Note_on_c, 10, 53, 100
11, 69449, Note_on_c, 10, 53, 0
11, 69450, Note_on_c, 10, 57, 100
11, 69479, Note_on_c, 10, 57, 0
11, 69480, Note_on_c, 10, 47, 100
11, 69539, Note_on_c, 10, 47, 0
11, 69600, Note_on_c, 10, 59, 100
11, 69659, Note_on_c, 10, 59, 0
11, 69660, Note_on_c, 10, 47, 100
11, 69719, Note_on_c, 10, 47, 0
11, 69780, Note_on_c, 10, 59, 100
11, 69839, Note_on_c, 10, 59, 0
11, 69840, Note_on_c, 10, 46, 100
11, 69899, Note_on_c, 10, 46, 0
11, 69960, Note_on_c, 10, 58, 100
11, 70019, Note_on_c, 10, 58, 0
11, 70020, Note_on_c, 10, 46, 100
11, 70079, Note_on_c, 10, 46, 0
11, 70140, Note_on_c, 10, 58, 100
11, 70199, Note_on_c, 10, 58, 0
11, 70200, Note_on_c, 10, 45, 100
11, 70259, Note_on_c, 10, 45, 0
11, 70320, Note_on_c, 10, 57, 100
11, 70379, Note_on_c, 10, 57, 0
11, 70380, Note_on_c, 10, 41, 100
11, 70439, Note_on_c, 10, 41, 0
11, 70500, Note_on_c, 10, 53, 100
11, 70559, Note_on_c, 10, 53, 0
11, 70560, Note_on_c, 10, 46, 100
11, 70619, Note_on_c, 10, 46, 0
11, 70680, Note_on_c, 10, 58, 100
11, 70739, Note_on_c, 10, 58, 0
11, 70740, Note_on_c, 10, 50, 100
11, 70799, Note_on_c, 10, 50, 0
11, 70860, Note_on_c, 10, 62, 100
11, 70919, Note_on_c, 10, 62, 0
11, 70920, Note_on_c, 10, 52, 100
11, 70979, Note_on_c, 10, 52, 0
11, 71040, Note_on_c, 10, 52, 100
11, 71099, Note_on_c, 10, 52, 0
11, 71100, Note_on_c, 10, 36, 100
11, 71159, Note_on_c, 10, 36, 0
11, 71220, Note_on_c, 10, 48, 100
11, 71279, Note_on_c, 10, 48, 0
11, 71280, Note_on_c, 10, 41, 100
11, 71339, Note_on_c, 10, 41, 0
11, 71400, Note_on_c, 10, 53, 100
11, 71459, Note_on_c, 10, 53, 0
11, 71460, Note_on_c, 10, 45, 100
11, 71519, Note_on_c, 10, 45, 0
11, 71580, Note_on_c, 10, 57, 100
11, 71639, Note_on_c, 10, 57, 0
11, 71640, Note_on_c, 10, 47, 100
11, 71699, Note_on_c, 10, 47, 0
11, 71760, Note_on_c, 10, 59, 100
11, 71819, Note_on_c, 10, 59, 0
11, 71820, Note_on_c, 10, 43, 100
11, 71879, Note_on_c, 10, 43, 0
11, 71940, Note_on_c, 10, 55, 100
11, 71999, Note_on_c, 10, 55, 0
11, 72000, Note_on_c, 10, 48, 100
11, 72059, Note_on_c, 10, 48, 0
11, 72120, Note_on_c, 10, 60, 100
11, 72179, Note_on_c, 10, 60, 0
11, 72180, Note_on_c, 10, 48, 100
11, 72239, Note_on_c, 10, 48, 0
11, 72300, Note_on_c, 10, 48, 100
11, 72359, Note_on_c, 10, 48, 0
11, 72360, Note_on_c, 10, 36, 100
11, 72419, Note_on_c, 10, 36, 0
11, 72480, Note_on_c, 10, 48, 100
11, 72539, Note_on_c, 10, 48, 0
11, 72540, Note_on_c, 10, 36, 100
11, 72599, Note_on_c, 10, 36, 0
11, 72660, Note_on_c, 10, 48, 100
11, 72719, Note_on_c, 10, 48, 0
11, 72720, Note_on_c, 10, 36, 100
11, 72779, Note_on_c, 10, 36, 0
11, 72840, Note_on_c, 10, 48, 100
11, 72899, Note_on_c, 10, 48, 0
11, 72900, Note_on_c, 10, 36, 100
11, 72959, Note_on_c, 10, 36, 0
11, 73020, Note_on_c, 10, 48, 100
11, 73079, Note_on_c, 10, 48, 0
11, 73080, Note_on_c, 10, 36, 100
11, 73139, Note_on_c, 10, 36, 0
11, 73200, Note_on_c, 10, 48, 100
11, 73259, Note_on_c, 10, 48, 0
11, 73260, Note_on_c, 10, 36, 100
11, 73319, Note_on_c, 10, 36, 0
11, 73380, Note_on_c, 10, 48, 100
11, 73439, Note_on_c, 10, 48, 0
11, 73440, Note_on_c, 10, 36, 100
11, 73499, Note_on_c, 10, 36, 0
11, 73560, Note_on_c, 10, 48, 100
11, 73619, Note_on_c, 10, 48, 0
11, 73620, Note_on_c, 10, 36, 100
11, 73679, Note_on_c, 10, 36, 0
11, 73740, Note_on_c, 10, 48, 100
11, 73799, Note_on_c, 10, 48, 0
11, 73800, Note_on_c, 10, 36, 100
11, 73859, Note_on_c, 10, 36, 0
11, 73920, Note_on_c, 10, 48, 100
11, 73979, Note_on_c, 10, 48, 0
11, 73980, Note_on_c, 10, 36, 100
11, 74039, Note_on_c, 10, 36, 0
11, 74100, Note_on_c, 10, 48, 100
11, 74159, Note_on_c, 10, 48, 0
11, 74160, Note_on_c, 10, 37, 100
11, 74219, Note_on_c, 10, 37, 0
11, 74280, Note_on_c, 10, 49, 100
11, 74339, Note_on_c, 10, 49, 0
11, 74340, Note_on_c, 10, 38, 100
11, 74399, Note_on_c, 10, 38, 0
11, 74460, Note_on_c, 10, 50, 100
11, 74519, Note_on_c, 10, 50, 0
11, 74520, Note_on_c, 10, 40, 100
11, 74579, Note_on_c, 10, 40, 0
11, 74640, Note_on_c, 10, 53, 100
11, 74699, Note_on_c, 10, 53, 0
11, 74700, Note_on_c, 10, 58, 100
11, 74759, Note_on_c, 10, 58, 0
11, 74760, Note_on_c, 10, 60, 100
11, 74819, Note_on_c, 10, 60, 0
11, 74820, Note_on_c, 10, 48, 100
11, 74879, Note_on_c, 10, 48, 0
11, 74880, Note_on_c, 10, 53, 100
11, 75180, Note_on_c, 10, 53, 0
11, 76140, Note_on_c, 10, 46, 100
11, 76320, Note_on_c, 10, 46, 0
11, 76320, Note_on_c, 10, 57, 100
11, 76320, Note_on_c, 10, 45, 100
11, 76680, Note_on_c, 10, 45, 0
11, 76680, Note_on_c, 10, 57, 0
11, 80400, Note_on_c, 10, 50, 100
11, 80459, Note_on_c, 10, 50, 0
11, 80520, Note_on_c, 10, 52, 100
11, 80579, Note_on_c, 10, 52, 0
11, 80640, Note_on_c, 10, 53, 100
11, 80699, Note_on_c, 10, 53, 0
11, 80760, Note_on_c, 10, 55, 100
11, 80819, Note_on_c, 10, 55, 0
11, 80880, Note_on_c, 10, 57, 100
11, 80939, Note_on_c, 10, 57, 0
11, 80940, Note_on_c, 10, 58, 100
11, 80999, Note_on_c, 10, 58, 0
11, 81000, Note_on_c, 10, 55, 100
11, 81059, Note_on_c, 10, 55, 0
11, 81060, Note_on_c, 10, 57, 100
11, 81119, Note_on_c, 10, 57, 0
11, 81120, Note_on_c, 10, 50, 100
11, 81179, Note_on_c, 10, 50, 0
11, 81180, Note_on_c, 10, 59, 100
11, 81239, Note_on_c, 10, 59, 0
11, 81240, Note_on_c, 10, 56, 100
11, 81299, Note_on_c, 10, 56, 0
11, 81300, Note_on_c, 10, 52, 100
11, 81359, Note_on_c, 10, 52, 0
11, 81360, Note_on_c, 10, 52, 100
11, 81360, Note_on_c, 10, 45, 100
11, 81419, Note_on_c, 10, 45, 0
11, 81419, Note_on_c, 10, 52, 0
11, 81420, Note_on_c, 10, 57, 100
11, 81480, Note_on_c, 10, 47, 100
11, 81539, Note_on_c, 10, 47, 0
11, 81540, Note_on_c, 10, 57, 0
11, 81540, Note_on_c, 10, 56, 100
11, 81599, Note_on_c, 10, 56, 0
11, 81600, Note_on_c, 10, 57, 100
11, 81600, Note_on_c, 10, 48, 100
11, 81659, Note_on_c, 10, 48, 0
11, 81659, Note_on_c, 10, 57, 0
11, 81660, Note_on_c, 10, 59, 100
11, 81720, Note_on_c, 10, 50, 100
11, 81779, Note_on_c, 10, 50, 0
11, 81780, Note_on_c, 10, 59, 0
11, 81780, Note_on_c, 10, 60, 100
11, 81840, Note_on_c, 10, 52, 100
11, 81899, Note_on_c, 10, 52, 0
11, 81900, Note_on_c, 10, 60, 0
11, 81900, Note_on_c, 10, 59, 100
11, 81900, Note_on_c, 10, 53, 100
11, 81930, Note_on_c, 10, 59, 0
11, 81930, Note_on_c, 10, 57, 100
11, 81959, Note_on_c, 10, 53, 0
11, 81960, Note_on_c, 10, 57, 0
11, 81960, Note_on_c, 10, 60, 100
11, 81960, Note_on_c, 10, 50, 100
11, 81990, Note_on_c, 10, 60, 0
11, 81990, Note_on_c, 10, 59, 100
11, 82019, Note_on_c, 10, 50, 0
11, 82020, Note_on_c, 10, 59, 0
11, 82020, Note_on_c, 10, 57, 100
11, 82020, Note_on_c, 10, 52, 100
11, 82050, Note_on_c, 10, 57, 0
11, 82050, Note_on_c, 10, 56, 100
11, 82079, Note_on_c, 10, 52, 0
11, 82080, Note_on_c, 10, 56, 0
11, 82080, Note_on_c, 10, 57, 100
11, 82080, Note_on_c, 10, 45, 100
11, 82140, Note_on_c, 10, 45, 0
11, 82140, Note_on_c, 10, 57, 0
11, 82140, Note_on_c, 10, 60, 100
11, 82169, Note_on_c, 10, 60, 0
11, 82170, Note_on_c, 10, 59, 100
11, 82199, Note_on_c, 10, 59, 0
11, 82200, Note_on_c, 10, 57, 100
11, 82229, Note_on_c, 10, 57, 0
11, 82230, Note_on_c, 10, 59, 100
11, 82259, Note_on_c, 10, 59, 0
11, 82260, Note_on_c, 10, 60, 100
11, 82289, Note_on_c, 10, 60, 0
11, 82290, Note_on_c, 10, 62, 100
11, 82319, Note_on_c, 10, 62, 0
11, 82320, Note_on_c, 10, 64, 100
11, 82349, Note_on_c, 10, 64, 0
11, 82350, Note_on_c, 10, 62, 100
11, 82379, Note_on_c, 10, 62, 0
11, 82380, Note_on_c, 10, 64, 100
11, 82409, Note_on_c, 10, 64, 0
11, 82410, Note_on_c, 10, 65, 100
11, 82439, Note_on_c, 10, 65, 0
11, 82440, Note_on_c, 10, 67, 100
11, 82469, Note_on_c, 10, 67, 0
11, 82470, Note_on_c, 10, 65, 100
11, 82499, Note_on_c, 10, 65, 0
11, 82500, Note_on_c, 10, 67, 100
11, 82529, Note_on_c, 10, 67, 0
11, 82530, Note_on_c, 10, 64, 100
11, 82559, Note_on_c, 10, 64, 0
11, 82560, Note_on_c, 10, 65, 100
11, 82589, Note_on_c, 10, 65, 0
11, 82590, Note_on_c, 10, 58, 100
11, 82619, Note_on_c, 10, 58, 0
11, 82620, Note_on_c, 10, 57, 100
11, 82649, Note_on_c, 10, 57, 0
11, 82650, Note_on_c, 10, 55, 100
11, 82679, Note_on_c, 10, 55, 0
11, 82680, Note_on_c, 10, 53, 100
11, 82709, Note_on_c, 10, 53, 0
11, 82710, Note_on_c, 10, 55, 100
11, 82739, Note_on_c, 10, 55, 0
11, 82740, Note_on_c, 10, 57, 100
11, 82769, Note_on_c, 10, 57, 0
11, 82770, Note_on_c, 10, 58, 100
11, 82799, Note_on_c, 10, 58, 0
11, 82800, Note_on_c, 10, 60, 100
11, 82829, Note_on_c, 10, 60, 0
11, 82830, Note_on_c, 10, 58, 100
11, 82859, Note_on_c, 10, 58, 0
11, 82860, Note_on_c, 10, 60, 100
11, 82889, Note_on_c, 10, 60, 0
11, 82890, Note_on_c, 10, 62, 100
11, 82919, Note_on_c, 10, 62, 0
11, 82920, Note_on_c, 10, 64, 100
11, 82949, Note_on_c, 10, 64, 0
11, 82950, Note_on_c, 10, 62, 100
11, 82979, Note_on_c, 10, 62, 0
11, 82980, Note_on_c, 10, 64, 100
11, 83009, Note_on_c, 10, 64, 0
11, 83010, Note_on_c, 10, 61, 100
11, 83039, Note_on_c, 10, 61, 0
11, 83040, Note_on_c, 10, 62, 100
11, 83069, Note_on_c, 10, 62, 0
11, 83070, Note_on_c, 10, 55, 100
11, 83099, Note_on_c, 10, 55, 0
11, 83100, Note_on_c, 10, 53, 100
11, 83129, Note_on_c, 10, 53, 0
11, 83130, Note_on_c, 10, 52, 100
11, 83159, Note_on_c, 10, 52, 0
11, 83160, Note_on_c, 10, 50, 100
11, 83189, Note_on_c, 10, 50, 0
11, 83190, Note_on_c, 10, 52, 100
11, 83219, Note_on_c, 10, 52, 0
11, 83220, Note_on_c, 10, 53, 100
11, 83249, Note_on_c, 10, 53, 0
11, 83250, Note_on_c, 10, 55, 100
11, 83279, Note_on_c, 10, 55, 0
11, 83280, Note_on_c, 10, 57, 100
11, 83280, Note_on_c, 10, 45, 100
11, 83339, Note_on_c, 10, 45, 0
11, 83339, Note_on_c, 10, 57, 0
11, 83340, Note_on_c, 10, 50, 100
11, 83459, Note_on_c, 10, 50, 0
11, 83460, Note_on_c, 10, 49, 100
11, 83519, Note_on_c, 10, 49, 0
11, 83520, Note_on_c, 10, 50, 100
11, 83579, Note_on_c, 10, 50, 0
11, 83580, Note_on_c, 10, 52, 100
11, 83699, Note_on_c, 10, 52, 0
11, 83700, Note_on_c, 10, 53, 100
11, 83819, Note_on_c, 10, 53, 0
11, 83820, Note_on_c, 10, 52, 100
11, 83849, Note_on_c, 10, 52, 0
11, 83850, Note_on_c, 10, 50, 100
11, 83879, Note_on_c, 10, 50, 0
11, 83880, Note_on_c, 10, 53, 100
11, 83909, Note_on_c, 10, 53, 0
11, 83910, Note_on_c, 10, 52, 100
11, 83939, Note_on_c, 10, 52, 0
11, 83940, Note_on_c, 10, 50, 100
11, 83969, Note_on_c, 10, 50, 0
11, 83970, Note_on_c, 10, 49, 100
11, 83999, Note_on_c, 10, 49, 0
11, 84000, Note_on_c, 10, 50, 100
11, 84059, Note_on_c, 10, 50, 0
11, 84060, Note_on_c, 10, 38, 100
11, 84119, Note_on_c, 10, 38, 0
11, 84180, Note_on_c, 10, 57, 100
11, 84239, Note_on_c, 10, 57, 0
11, 84240, Note_on_c, 10, 58, 100
11, 84299, Note_on_c, 10, 58, 0
11, 84300, Note_on_c, 10, 55, 100
11, 84359, Note_on_c, 10, 55, 0
11, 84420, Note_on_c, 10, 43, 100
11, 84479, Note_on_c, 10, 43, 0
11, 84480, Note_on_c, 10, 48, 100
11, 84539, Note_on_c, 10, 48, 0
11, 84540, Note_on_c, 10, 36, 100
11, 84599, Note_on_c, 10, 36, 0
11, 84660, Note_on_c, 10, 55, 100
11, 84719, Note_on_c, 10, 55, 0
11, 84720, Note_on_c, 10, 57, 100
11, 84779, Note_on_c, 10, 57, 0
11, 84780, Note_on_c, 10, 53, 100
11, 84839, Note_on_c, 10, 53, 0
11, 84900, Note_on_c, 10, 41, 100
11, 84959, Note_on_c, 10, 41, 0
11, 84960, Note_on_c, 10, 46, 100
11, 85019, Note_on_c, 10, 46, 0
11, 85020, Note_on_c, 10, 58, 100
11, 85079, Note_on_c, 10, 58, 0
11, 85140, Note_on_c, 10, 53, 100
11, 85199, Note_on_c, 10, 53, 0
11, 85200, Note_on_c, 10, 55, 100
11, 85259, Note_on_c, 10, 55, 0
11, 85260, Note_on_c, 10, 52, 100
11, 85319, Note_on_c, 10, 52, 0
11, 85380, Note_on_c, 10, 40, 100
11, 85439, Note_on_c, 10, 40, 0
11, 85440, Note_on_c, 10, 45, 100
11, 85499, Note_on_c, 10, 45, 0
11, 85500, Note_on_c, 10, 57, 100
11, 85589, Note_on_c, 10, 57, 0
11, 85590, Note_on_c, 10, 55, 100
11, 85619, Note_on_c, 10, 55, 0
11, 85620, Note_on_c, 10, 53, 100
11, 85649, Note_on_c, 10, 53, 0
11, 85650, Note_on_c, 10, 52, 100
11, 85679, Note_on_c, 10, 52, 0
11, 85680, Note_on_c, 10, 53, 100
11, 85709, Note_on_c, 10, 53, 0
11, 85710, Note_on_c, 10, 52, 100
11, 85739, Note_on_c, 10, 52, 0
11, 85740, Note_on_c, 10, 50, 100
11, 85769, Note_on_c, 10, 50, 0
11, 85770, Note_on_c, 10, 53, 100
11, 85799, Note_on_c, 10, 53, 0
11, 85800, Note_on_c, 10, 58, 100
11, 85829, Note_on_c, 10, 58, 0
11, 85830, Note_on_c, 10, 57, 100
11, 85859, Note_on_c, 10, 57, 0
11, 85860, Note_on_c, 10, 55, 100
11, 85889, Note_on_c, 10, 55, 0
11, 85890, Note_on_c, 10, 57, 100
11, 85919, Note_on_c, 10, 57, 0
11, 85920, Note_on_c, 10, 53, 100
11, 85949, Note_on_c, 10, 53, 0
11, 85950, Note_on_c, 10, 50, 100
11, 85979, Note_on_c, 10, 50, 0
11, 85980, Note_on_c, 10, 58, 100
11, 86009, Note_on_c, 10, 58, 0
11, 86010, Note_on_c, 10, 57, 100
11, 86039, Note_on_c, 10, 57, 0
11, 86040, Note_on_c, 10, 55, 100
11, 86069, Note_on_c, 10, 55, 0
11, 86070, Note_on_c, 10, 58, 100
11, 86099, Note_on_c, 10, 58, 0
11, 86100, Note_on_c, 10, 57, 100
11, 86129, Note_on_c, 10, 57, 0
11, 86130, Note_on_c, 10, 55, 100
11, 86159, Note_on_c, 10, 55, 0
11, 86160, Note_on_c, 10, 53, 100
11, 86189, Note_on_c, 10, 53, 0
11, 86190, Note_on_c, 10, 50, 100
11, 86219, Note_on_c, 10, 50, 0
11, 86220, Note_on_c, 10, 58, 100
11, 86279, Note_on_c, 10, 58, 0
11, 86280, Note_on_c, 10, 55, 100
11, 86339, Note_on_c, 10, 55, 0
11, 86340, Note_on_c, 10, 57, 100
11, 86399, Note_on_c, 10, 57, 0
11, 86400, Note_on_c, 10, 50, 100
11, 86519, Note_on_c, 10, 50, 0
11, 86550, Note_on_c, 10, 45, 100
11, 86579, Note_on_c, 10, 45, 0
11, 86580, Note_on_c, 10, 41, 100
11, 86609, Note_on_c, 10, 41, 0
11, 86610, Note_on_c, 10, 45, 100
11, 86639, Note_on_c, 10, 45, 0
11, 86640, Note_on_c, 10, 38, 100
11, 86699, Note_on_c, 10, 38, 0
11, 93360, Note_on_c, 10, 57, 100
11, 93389, Note_on_c, 10, 57, 0
11, 93390, Note_on_c, 10, 59, 100
11, 93419, Note_on_c, 10, 59, 0
11, 93420, Note_on_c, 10, 60, 100
11, 93449, Note_on_c, 10, 60, 0
11, 93450, Note_on_c, 10, 57, 100
11, 93479, Note_on_c, 10, 57, 0
11, 93480, Note_on_c, 10, 59, 100
11, 93509, Note_on_c, 10, 59, 0
11, 93510, Note_on_c, 10, 60, 100
11, 93539, Note_on_c, 10, 60, 0
11, 93540, Note_on_c, 10, 62, 100
11, 93569, Note_on_c, 10, 62, 0
11, 93570, Note_on_c, 10, 59, 100
11, 93599, Note_on_c, 10, 59, 0
11, 93600, Note_on_c, 10, 60, 100
11, 93629, Note_on_c, 10, 60, 0
11, 93630, Note_on_c, 10, 64, 100
11, 93659, Note_on_c, 10, 64, 0
11, 93660, Note_on_c, 10, 62, 100
11, 93689, Note_on_c, 10, 62, 0
11, 93690, Note_on_c, 10, 60, 100
11, 93719, Note_on_c, 10, 60, 0
11, 93720, Note_on_c, 10, 59, 100
11, 93749, Note_on_c, 10, 59, 0
11, 93750, Note_on_c, 10, 57, 100
11, 93779, Note_on_c, 10, 57, 0
11, 93780, Note_on_c, 10, 56, 100
11, 93809, Note_on_c, 10, 56, 0
11, 93810, Note_on_c, 10, 54, 100
11, 93839, Note_on_c, 10, 54, 0
11, 93840, Note_on_c, 10, 52, 100
11, 93899, Note_on_c, 10, 52, 0
11, 93900, Note_on_c, 10, 53, 100
11, 93959, Note_on_c, 10, 53, 0
11, 93960, Note_on_c, 10, 50, 100
11, 94019, Note_on_c, 10, 50, 0
11, 94020, Note_on_c, 10, 52, 100
11, 94079, Note_on_c, 10, 52, 0
11, 94080, Note_on_c, 10, 45, 100
11, 94199, Note_on_c, 10, 45, 0
11, 94230, Note_on_c, 10, 52, 100
11, 94259, Note_on_c, 10, 52, 0
11, 94260, Note_on_c, 10, 48, 100
11, 94289, Note_on_c, 10, 48, 0
11, 94290, Note_on_c, 10, 52, 100
11, 94319, Note_on_c, 10, 52, 0
11, 94320, Note_on_c, 10, 45, 100
11, 94379, Note_on_c, 10, 45, 0
11, 102960, Note_on_c, 10, 60, 100
11, 102989, Note_on_c, 10, 60, 0
11, 102990, Note_on_c, 10, 58, 100
11, 103019, Note_on_c, 10, 58, 0
11, 103020, Note_on_c, 10, 57, 100
11, 103049, Note_on_c, 10, 57, 0
11, 103050, Note_on_c, 10, 60, 100
11, 103079, Note_on_c, 10, 60, 0
11, 103080, Note_on_c, 10, 58, 100
11, 103109, Note_on_c, 10, 58, 0
11, 103110, Note_on_c, 10, 57, 100
11, 103139, Note_on_c, 10, 57, 0
11, 103140, Note_on_c, 10, 55, 100
11, 103169, Note_on_c, 10, 55, 0
11, 103170, Note_on_c, 10, 60, 100
11, 103199, Note_on_c, 10, 60, 0
11, 103200, Note_on_c, 10, 53, 100
11, 103229, Note_on_c, 10, 53, 0
11, 103230, Note_on_c, 10, 57, 100
11, 103259, Note_on_c, 10, 57, 0
11, 103260, Note_on_c, 10, 58, 100
11, 103289, Note_on_c, 10, 58, 0
11, 103290, Note_on_c, 10, 60, 100
11, 103319, Note_on_c, 10, 60, 0
11, 103320, Note_on_c, 10, 62, 100
11, 103349, Note_on_c, 10, 62, 0
11, 103350, Note_on_c, 10, 58, 100
11, 103379, Note_on_c, 10, 58, 0
11, 103380, Note_on_c, 10, 60, 100
11, 103409, Note_on_c, 10, 60, 0
11, 103410, Note_on_c, 10, 62, 100
11, 103439, Note_on_c, 10, 62, 0
11, 103440, Note_on_c, 10, 64, 100
11, 103469, Note_on_c, 10, 64, 0
11, 103470, Note_on_c, 10, 60, 100
11, 103499, Note_on_c, 10, 60, 0
11, 103500, Note_on_c, 10, 65, 100
11, 103559, Note_on_c, 10, 65, 0
11, 103560, Note_on_c, 10, 58, 100
11, 103619, Note_on_c, 10, 58, 0
11, 103620, Note_on_c, 10, 60, 100
11, 103679, Note_on_c, 10, 60, 0
11, 103680, Note_on_c, 10, 53, 100
11, 103739, Note_on_c, 10, 53, 0
11, 103920, Note_on_c, 10, 48, 100
11, 103979, Note_on_c, 10, 48, 0
11, 103980, Note_on_c, 10, 36, 100
11, 104039, Note_on_c, 10, 36, 0
11, 104040, Note_on_c, 10, 38, 100
11, 104099, Note_on_c, 10, 38, 0
11, 104100, Note_on_c, 10, 50, 100
11, 104159, Note_on_c, 10, 50, 0
11, 104160, Note_on_c, 10, 52, 100
11, 104219, Note_on_c, 10, 52, 0
11, 104220, Note_on_c, 10, 40, 100
11, 104279, Note_on_c, 10, 40, 0
11, 104280, Note_on_c, 10, 41, 100
11, 104339, Note_on_c, 10, 41, 0
11, 104340, Note_on_c, 10, 53, 100
11, 104399, Note_on_c, 10, 53, 0
11, 104400, Note_on_c, 10, 55, 100
11, 104459, Note_on_c, 10, 55, 0
11, 104460, Note_on_c, 10, 57, 100
11, 104519, Note_on_c, 10, 57, 0
11, 104520, Note_on_c, 10, 53, 100
11, 104579, Note_on_c, 10, 53, 0
11, 104580, Note_on_c, 10, 55, 100
11, 104639, Note_on_c, 10, 55, 0
11, 104640, Note_on_c, 10, 48, 100
11, 104699, Note_on_c, 10, 48, 0
11, 104880, Note_on_c, 10, 42, 100
11, 104939, Note_on_c, 10, 42, 0
11, 104940, Note_on_c, 10, 42, 100
11, 104999, Note_on_c, 10, 42, 0
11, 105000, Note_on_c, 10, 42, 100
11, 105059, Note_on_c, 10, 42, 0
11, 105060, Note_on_c, 10, 42, 100
11, 105119, Note_on_c, 10, 42, 0
11, 105120, Note_on_c, 10, 43, 100
11, 105179, Note_on_c, 10, 43, 0
11, 105360, Note_on_c, 10, 40, 100
11, 105419, Note_on_c, 10, 40, 0
11, 105420, Note_on_c, 10, 40, 100
11, 105479, Note_on_c, 10, 40, 0
11, 105480, Note_on_c, 10, 40, 100
11, 105539, Note_on_c, 10, 40, 0
11, 105540, Note_on_c, 10, 40, 100
11, 105599, Note_on_c, 10, 40, 0
11, 105600, Note_on_c, 10, 41, 100
11, 105614, Note_on_c, 10, 41, 0
11, 105840, Note_on_c, 10, 53, 100
11, 105869, Note_on_c, 10, 53, 0
11, 105870, Note_on_c, 10, 57, 100
11, 105899, Note_on_c, 10, 57, 0
11, 105900, Note_on_c, 10, 58, 100
11, 105929, Note_on_c, 10, 58, 0
11, 105930, Note_on_c, 10, 60, 100
11, 105959, Note_on_c, 10, 60, 0
11, 105960, Note_on_c, 10, 51, 100
11, 105989, Note_on_c, 10, 51, 0
11, 105990, Note_on_c, 10, 57, 100
11, 106019, Note_on_c, 10, 57, 0
11, 106020, Note_on_c, 10, 58, 100
11, 106049, Note_on_c, 10, 58, 0
11, 106050, Note_on_c, 10, 60, 100
11, 106079, Note_on_c, 10, 60, 0
11, 106080, Note_on_c, 10, 50, 100
11, 106139, Note_on_c, 10, 50, 0
11, 106140, Note_on_c, 10, 50, 100
11, 106199, Note_on_c, 10, 50, 0
11, 106200, Note_on_c, 10, 48, 100
11, 106259, Note_on_c, 10, 48, 0
11, 106260, Note_on_c, 10, 48, 100
11, 106319, Note_on_c, 10, 48, 0
11, 106320, Note_on_c, 10, 47, 100
11, 106379, Note_on_c, 10, 47, 0
11, 106380, Note_on_c, 10, 47, 100
11, 106439, Note_on_c, 10, 47, 0
11, 106440, Note_on_c, 10, 47, 100
11, 106499, Note_on_c, 10, 47, 0
11, 106500, Note_on_c, 10, 47, 100
11, 106559, Note_on_c, 10, 47, 0
11, 106560, Note_on_c, 10, 48, 100
11, 106619, Note_on_c, 10, 48, 0
11, 106620, Note_on_c, 10, 48, 100
11, 106679, Note_on_c, 10, 48, 0
11, 106680, Note_on_c, 10, 46, 100
11, 106739, Note_on_c, 10, 46, 0
11, 106740, Note_on_c, 10, 46, 100
11, 106799, Note_on_c, 10, 46, 0
11, 106800, Note_on_c, 10, 45, 100
11, 106859, Note_on_c, 10, 45, 0
11, 106860, Note_on_c, 10, 45, 100
11, 106919, Note_on_c, 10, 45, 0
11, 106920, Note_on_c, 10, 57, 100
11, 106979, Note_on_c, 10, 57, 0
11, 106980, Note_on_c, 10, 57, 100
11, 107039, Note_on_c, 10, 57, 0
11, 107040, Note_on_c, 10, 57, 100
11, 107099, Note_on_c, 10, 57, 0
11, 107160, Note_on_c, 10, 56, 100
11, 107219, Note_on_c, 10, 56, 0
11, 107280, Note_on_c, 10, 55, 100
11, 107339, Note_on_c, 10, 55, 0
11, 107400, Note_on_c, 10, 54, 100
11, 107459, Note_on_c, 10, 54, 0
11, 107520, Note_on_c, 10, 53, 100
11, 107579, Note_on_c, 10, 53, 0
11, 107640, Note_on_c, 10, 52, 100
11, 107699, Note_on_c, 10, 52, 0
11, 107760, Note_on_c, 10, 51, 100
11, 107819, Note_on_c, 10, 51, 0
11, 107880, Note_on_c, 10, 50, 100
11, 107939, Note_on_c, 10, 50, 0
11, 108000, Note_on_c, 10, 48, 100
11, 108059, Note_on_c, 10, 48, 0
11, 108240, Note_on_c, 10, 48, 100
11, 108299, Note_on_c, 10, 48, 0
11, 108300, Note_on_c, 10, 60, 100
11, 108359, Note_on_c, 10, 60, 0
11, 108360, Note_on_c, 10, 59, 100
11, 108419, Note_on_c, 10, 59, 0
11, 108420, Note_on_c, 10, 47, 100
11, 108479, Note_on_c, 10, 47, 0
11, 108480, Note_on_c, 10, 48, 100
11, 108539, Note_on_c, 10, 48, 0
11, 108540, Note_on_c, 10, 60, 100
11, 108599, Note_on_c, 10, 60, 0
11, 108600, Note_on_c, 10, 62, 100
11, 108659, Note_on_c, 10, 62, 0
11, 108660, Note_on_c, 10, 50, 100
11, 108719, Note_on_c, 10, 50, 0
11, 108720, Note_on_c, 10, 52, 100
11, 108779, Note_on_c, 10, 52, 0
11, 108780, Note_on_c, 10, 53, 100
11, 108839, Note_on_c, 10, 53, 0
11, 108840, Note_on_c, 10, 50, 100
11, 108899, Note_on_c, 10, 50, 0
11, 108900, Note_on_c, 10, 52, 100
11, 108959, Note_on_c, 10, 52, 0
11, 108960, Note_on_c, 10, 53, 100
11, 109019, Note_on_c, 10, 53, 0
11, 109080, Note_on_c, 10, 50, 100
11, 109139, Note_on_c, 10, 50, 0
11, 109200, Note_on_c, 10, 48, 100
11, 109259, Note_on_c, 10, 48, 0
11, 109320, Note_on_c, 10, 47, 100
11, 109379, Note_on_c, 10, 47, 0
11, 109440, Note_on_c, 10, 48, 100
11, 109499, Note_on_c, 10, 48, 0
11, 109560, Note_on_c, 10, 50, 100
11, 109619, Note_on_c, 10, 50, 0
11, 109680, Note_on_c, 10, 48, 100
11, 109739, Note_on_c, 10, 48, 0
11, 109800, Note_on_c, 10, 47, 100
11, 109859, Note_on_c, 10, 47, 0
11, 109920, Note_on_c, 10, 48, 100
11, 109979, Note_on_c, 10, 48, 0
11, 109980, Note_on_c, 10, 50, 100
11, 110039, Note_on_c, 10, 50, 0
11, 110040, Note_on_c, 10, 52, 100
11, 110099, Note_on_c, 10, 52, 0
11, 110100, Note_on_c, 10, 40, 100
11, 110159, Note_on_c, 10, 40, 0
11, 110160, Note_on_c, 10, 45, 100
11, 110219, Note_on_c, 10, 45, 0
11, 110220, Note_on_c, 10, 48, 100
11, 110279, Note_on_c, 10, 48, 0
11, 110280, Note_on_c, 10, 50, 100
11, 110339, Note_on_c, 10, 50, 0
11, 110340, Note_on_c, 10, 56, 100
11, 110399, Note_on_c, 10, 56, 0
11, 110400, Note_on_c, 10, 57, 100
11, 110459, Note_on_c, 10, 57, 0
11, 110460, Note_on_c, 10, 45, 100
11, 110489, Note_on_c, 10, 45, 0
11, 110490, Note_on_c, 10, 47, 100
11, 110519, Note_on_c, 10, 47, 0
11, 110520, Note_on_c, 10, 48, 100
11, 110579, Note_on_c, 10, 48, 0
11, 110580, Note_on_c, 10, 50, 100
11, 110639, Note_on_c, 10, 50, 0
11, 110640, Note_on_c, 10, 52, 100
11, 110669, Note_on_c, 10, 52, 0
11, 110670, Note_on_c, 10, 57, 100
11, 110699, Note_on_c, 10, 57, 0
11, 110700, Note_on_c, 10, 60, 100
11, 110729, Note_on_c, 10, 60, 0
11, 110730, Note_on_c, 10, 59, 100
11, 110759, Note_on_c, 10, 59, 0
11, 110760, Note_on_c, 10, 52, 100
11, 110789, Note_on_c, 10, 52, 0
11, 110790, Note_on_c, 10, 57, 100
11, 110819, Note_on_c, 10, 57, 0
11, 110820, Note_on_c, 10, 62, 100
11, 110849, Note_on_c, 10, 62, 0
11, 110850, Note_on_c, 10, 60, 100
11, 110879, Note_on_c, 10, 60, 0
11, 110880, Note_on_c, 10, 59, 100
11, 110939, Note_on_c, 10, 59, 0
11, 110940, Note_on_c, 10, 56, 100
11, 110999, Note_on_c, 10, 56, 0
11, 111000, Note_on_c, 10, 57, 100
11, 111059, Note_on_c, 10, 57, 0
11, 111060, Note_on_c, 10, 63, 100
11, 111119, Note_on_c, 10, 63, 0
11, 111120, Note_on_c, 10, 64, 100
11, 111179, Note_on_c, 10, 64, 0
11, 111180, Note_on_c, 10, 52, 100
11, 111209, Note_on_c, 10, 52, 0
11, 111210, Note_on_c, 10, 54, 100
11, 111239, Note_on_c, 10, 54, 0
11, 111240, Note_on_c, 10, 56, 100
11, 111299, Note_on_c, 10, 56, 0
11, 111300, Note_on_c, 10, 57, 100
11, 111359, Note_on_c, 10, 57, 0
11, 111360, Note_on_c, 10, 59, 100
11, 111389, Note_on_c, 10, 59, 0
11, 111390, Note_on_c, 10, 62, 100
11, 111419, Note_on_c, 10, 62, 0
11, 111420, Note_on_c, 10, 65, 100
11, 111449, Note_on_c, 10, 65, 0
11, 111450, Note_on_c, 10, 62, 100
11, 111479, Note_on_c, 10, 62, 0
11, 111480, Note_on_c, 10, 59, 100
11, 111509, Note_on_c, 10, 59, 0
11, 111510, Note_on_c, 10, 64, 100
11, 111539, Note_on_c, 10, 64, 0
11, 111540, Note_on_c, 10, 68, 100
11, 111569, Note_on_c, 10, 68, 0
11, 111570, Note_on_c, 10, 64, 100
11, 111599, Note_on_c, 10, 64, 0
11, 111600, Note_on_c, 10, 57, 100
11, 111659, Note_on_c, 10, 57, 0
11, 111660, Note_on_c, 10, 60, 100
11, 111719, Note_on_c, 10, 60, 0
11, 111720, Note_on_c, 10, 64, 100
11, 111779, Note_on_c, 10, 64, 0
11, 111780, Note_on_c, 10, 62, 100
11, 111839, Note_on_c, 10, 62, 0
11, 111840, Note_on_c, 10, 61, 100
11, 111899, Note_on_c, 10, 61, 0
11, 111900, Note_on_c, 10, 57, 100
11, 111959, Note_on_c, 10, 57, 0
11, 111960, Note_on_c, 10, 61, 100
11, 112019, Note_on_c, 10, 61, 0
11, 112020, Note_on_c, 10, 64, 100
11, 112079, Note_on_c, 10, 64, 0
11, 112080, Note_on_c, 10, 67, 100
11, 112139, Note_on_c, 10, 67, 0
11, 112140, Note_on_c, 10, 69, 100
11, 112199, Note_on_c, 10, 69, 0
11, 112200, Note_on_c, 10, 67, 100
11, 112259, Note_on_c, 10, 67, 0
11, 112260, Note_on_c, 10, 65, 100
11, 112319, Note_on_c, 10, 65, 0
11, 112320, Note_on_c, 10, 64, 100
11, 112349, Note_on_c, 10, 64, 0
11, 112350, Note_on_c, 10, 67, 100
11, 112379, Note_on_c, 10, 67, 0
11, 112380, Note_on_c, 10, 70, 100
11, 112409, Note_on_c, 10, 70, 0
11, 112410, Note_on_c, 10, 67, 100
11, 112439, Note_on_c, 10, 67, 0
11, 112440, Note_on_c, 10, 64, 100
11, 112469, Note_on_c, 10, 64, 0
11, 112470, Note_on_c, 10, 69, 100
11, 112499, Note_on_c, 10, 69, 0
11, 112500, Note_on_c, 10, 73, 100
11, 112529, Note_on_c, 10, 73, 0
11, 112530, Note_on_c, 10, 69, 100
11, 112559, Note_on_c, 10, 69, 0
11, 112560, Note_on_c, 10, 62, 100
11, 112619, Note_on_c, 10, 62, 0
11, 112620, Note_on_c, 10, 65, 100
11, 112679, Note_on_c, 10, 65, 0
11, 112680, Note_on_c, 10, 55, 100
11, 112739, Note_on_c, 10, 55, 0
11, 112740, Note_on_c, 10, 58, 100
11, 112799, Note_on_c, 10, 58, 0
11, 112800, Note_on_c, 10, 54, 100
11, 112859, Note_on_c, 10, 54, 0
11, 112860, Note_on_c, 10, 57, 100
11, 112919, Note_on_c, 10, 57, 0
11, 112920, Note_on_c, 10, 62, 100
11, 112979, Note_on_c, 10, 62, 0
11, 112980, Note_on_c, 10, 60, 100
11, 113039, Note_on_c, 10, 60, 0
11, 113040, Note_on_c, 10, 58, 100
11, 113099, Note_on_c, 10, 58, 0
11, 113100, Note_on_c, 10, 62, 100
11, 113159, Note_on_c, 10, 62, 0
11, 113160, Note_on_c, 10, 58, 100
11, 113219, Note_on_c, 10, 58, 0
11, 113220, Note_on_c, 10, 55, 100
11, 113279, Note_on_c, 10, 55, 0
11, 113280, Note_on_c, 10, 54, 100
11, 113339, Note_on_c, 10, 54, 0
11, 113340, Note_on_c, 10, 60, 100
11, 113399, Note_on_c, 10, 60, 0
11, 113400, Note_on_c, 10, 57, 100
11, 113459, Note_on_c, 10, 57, 0
11, 113460, Note_on_c, 10, 54, 100
11, 113519, Note_on_c, 10, 54, 0
11, 113520, Note_on_c, 10, 50, 100
11, 113549, Note_on_c, 10, 50, 0
11, 113550, Note_on_c, 10, 54, 100
11, 113579, Note_on_c, 10, 54, 0
11, 113580, Note_on_c, 10, 57, 100
11, 113609, Note_on_c, 10, 57, 0
11, 113610, Note_on_c, 10, 60, 100
11, 113639, Note_on_c, 10, 60, 0
11, 113640, Note_on_c, 10, 58, 100
11, 113669, Note_on_c, 10, 58, 0
11, 113670, Note_on_c, 10, 57, 100
11, 113699, Note_on_c, 10, 57, 0
11, 113700, Note_on_c, 10, 55, 100
11, 113729, Note_on_c, 10, 55, 0
11, 113730, Note_on_c, 10, 54, 100
11, 113759, Note_on_c, 10, 54, 0
11, 113760, Note_on_c, 10, 55, 100
11, 113789, Note_on_c, 10, 55, 0
11, 113790, Note_on_c, 10, 50, 100
11, 113819, Note_on_c, 10, 50, 0
11, 113820, Note_on_c, 10, 55, 100
11, 113849, Note_on_c, 10, 55, 0
11, 113850, Note_on_c, 10, 58, 100
11, 113879, Note_on_c, 10, 58, 0
11, 113880, Note_on_c, 10, 62, 100
11, 113909, Note_on_c, 10, 62, 0
11, 113910, Note_on_c, 10, 58, 100
11, 113939, Note_on_c, 10, 58, 0
11, 113940, Note_on_c, 10, 55, 100
11, 113969, Note_on_c, 10, 55, 0
11, 113970, Note_on_c, 10, 58, 100
11, 113999, Note_on_c, 10, 58, 0
11, 114000, Note_on_c, 10, 48, 100
11, 114029, Note_on_c, 10, 48, 0
11, 114030, Note_on_c, 10, 52, 100
11, 114059, Note_on_c, 10, 52, 0
11, 114060, Note_on_c, 10, 55, 100
11, 114089, Note_on_c, 10, 55, 0
11, 114090, Note_on_c, 10, 58, 100
11, 114119, Note_on_c, 10, 58, 0
11, 114120, Note_on_c, 10, 57, 100
11, 114149, Note_on_c, 10, 57, 0
11, 114150, Note_on_c, 10, 55, 100
11, 114179, Note_on_c, 10, 55, 0
11, 114180, Note_on_c, 10, 53, 100
11, 114209, Note_on_c, 10, 53, 0
11, 114210, Note_on_c, 10, 52, 100
11, 114239, Note_on_c, 10, 52, 0
11, 114240, Note_on_c, 10, 57, 100
11, 114269, Note_on_c, 10, 57, 0
11, 114270, Note_on_c, 10, 48, 100
11, 114299, Note_on_c, 10, 48, 0
11, 114300, Note_on_c, 10, 53, 100
11, 114329, Note_on_c, 10, 53, 0
11, 114330, Note_on_c, 10, 57, 100
11, 114359, Note_on_c, 10, 57, 0
11, 114360, Note_on_c, 10, 60, 100
11, 114389, Note_on_c, 10, 60, 0
11, 114390, Note_on_c, 10, 57, 100
11, 114419, Note_on_c, 10, 57, 0
11, 114420, Note_on_c, 10, 53, 100
11, 114449, Note_on_c, 10, 53, 0
11, 114450, Note_on_c, 10, 57, 100
11, 114479, Note_on_c, 10, 57, 0
11, 114480, Note_on_c, 10, 46, 100
11, 114509, Note_on_c, 10, 46, 0
11, 114510, Note_on_c, 10, 53, 100
11, 114539, Note_on_c, 10, 53, 0
11, 114540, Note_on_c, 10, 58, 100
11, 114569, Note_on_c, 10, 58, 0
11, 114570, Note_on_c, 10, 60, 100
11, 114599, Note_on_c, 10, 60, 0
11, 114600, Note_on_c, 10, 62, 100
11, 114629, Note_on_c, 10, 62, 0
11, 114630, Note_on_c, 10, 63, 100
11, 114659, Note_on_c, 10, 63, 0
11, 114660, Note_on_c, 10, 62, 100
11, 114689, Note_on_c, 10, 62, 0
11, 114690, Note_on_c, 10, 63, 100
11, 114719, Note_on_c, 10, 63, 0
11, 114720, Note_on_c, 10, 62, 100
11, 114749, Note_on_c, 10, 62, 0
11, 114750, Note_on_c, 10, 63, 100
11, 114779, Note_on_c, 10, 63, 0
11, 114780, Note_on_c, 10, 62, 100
11, 114809, Note_on_c, 10, 62, 0
11, 114810, Note_on_c, 10, 60, 100
11, 114839, Note_on_c, 10, 60, 0
11, 114840, Note_on_c, 10, 59, 100
11, 114869, Note_on_c, 10, 59, 0
11, 114870, Note_on_c, 10, 62, 100
11, 114899, Note_on_c, 10, 62, 0
11, 114900, Note_on_c, 10, 55, 100
11, 114929, Note_on_c, 10, 55, 0
11, 114930, Note_on_c, 10, 59, 100
11, 114959, Note_on_c, 10, 59, 0
11, 114960, Note_on_c, 10, 48, 100
11, 114989, Note_on_c, 10, 48, 0
11, 114990, Note_on_c, 10, 55, 100
11, 115019, Note_on_c, 10, 55, 0
11, 115020, Note_on_c, 10, 60, 100
11, 115049, Note_on_c, 10, 60, 0
11, 115050, Note_on_c, 10, 62, 100
11, 115079, Note_on_c, 10, 62, 0
11, 115080, Note_on_c, 10, 64, 100
11, 115109, Note_on_c, 10, 64, 0
11, 115110, Note_on_c, 10, 65, 100
11, 115139, Note_on_c, 10, 65, 0
11, 115140, Note_on_c, 10, 64, 100
11, 115169, Note_on_c, 10, 64, 0
11, 115170, Note_on_c, 10, 65, 100
11, 115199, Note_on_c, 10, 65, 0
11, 115200, Note_on_c, 10, 64, 100
11, 115229, Note_on_c, 10, 64, 0
11, 115230, Note_on_c, 10, 65, 100
11, 115259, Note_on_c, 10, 65, 0
11, 115260, Note_on_c, 10, 64, 100
11, 115289, Note_on_c, 10, 64, 0
11, 115290, Note_on_c, 10, 62, 100
11, 115319, Note_on_c, 10, 62, 0
11, 115320, Note_on_c, 10, 61, 100
11, 115349, Note_on_c, 10, 61, 0
11, 115350, Note_on_c, 10, 64, 100
11, 115379, Note_on_c, 10, 64, 0
11, 115380, Note_on_c, 10, 57, 100
11, 115409, Note_on_c, 10, 57, 0
11, 115410, Note_on_c, 10, 61, 100
11, 115439, Note_on_c, 10, 61, 0
11, 115440, Note_on_c, 10, 50, 100
11, 115469, Note_on_c, 10, 50, 0
11, 115470, Note_on_c, 10, 62, 100
11, 115499, Note_on_c, 10, 62, 0
11, 115500, Note_on_c, 10, 55, 100
11, 115529, Note_on_c, 10, 55, 0
11, 115530, Note_on_c, 10, 58, 100
11, 115559, Note_on_c, 10, 58, 0
11, 115560, Note_on_c, 10, 48, 100
11, 115589, Note_on_c, 10, 48, 0
11, 115590, Note_on_c, 10, 60, 100
11, 115619, Note_on_c, 10, 60, 0
11, 115620, Note_on_c, 10, 53, 100
11, 115649, Note_on_c, 10, 53, 0
11, 115650, Note_on_c, 10, 57, 100
11, 115679, Note_on_c, 10, 57, 0
11, 115680, Note_on_c, 10, 46, 100
11, 115709, Note_on_c, 10, 46, 0
11, 115710, Note_on_c, 10, 58, 100
11, 115739, Note_on_c, 10, 58, 0
11, 115740, Note_on_c, 10, 52, 100
11, 115769, Note_on_c, 10, 52, 0
11, 115770, Note_on_c, 10, 55, 100
11, 115799, Note_on_c, 10, 55, 0
11, 115800, Note_on_c, 10, 45, 100
11, 115829, Note_on_c, 10, 45, 0
11, 115830, Note_on_c, 10, 57, 100
11, 115859, Note_on_c, 10, 57, 0
11, 115860, Note_on_c, 10, 50, 100
11, 115889, Note_on_c, 10, 50, 0
11, 115890, Note_on_c, 10, 53, 100
11, 115919, Note_on_c, 10, 53, 0
11, 115920, Note_on_c, 10, 43, 100
11, 115949, Note_on_c, 10, 43, 0
11, 115950, Note_on_c, 10, 55, 100
11, 115979, Note_on_c, 10, 55, 0
11, 115980, Note_on_c, 10, 48, 100
11, 116009, Note_on_c, 10, 48, 0
11, 116010, Note_on_c, 10, 51, 100
11, 116039, Note_on_c, 10, 51, 0
11, 116040, Note_on_c, 10, 41, 100
11, 116069, Note_on_c, 10, 41, 0
11, 116070, Note_on_c, 10, 53, 100
11, 116099, Note_on_c, 10, 53, 0
11, 116100, Note_on_c, 10, 46, 100
11, 116129, Note_on_c, 10, 46, 0
11, 116130, Note_on_c, 10, 50, 100
11, 116159, Note_on_c, 10, 50, 0
11, 116160, Note_on_c, 10, 40, 100
11, 116189, Note_on_c, 10, 40, 0
11, 116190, Note_on_c, 10, 52, 100
11, 116219, Note_on_c, 10, 52, 0
11, 116220, Note_on_c, 10, 45, 100
11, 116249, Note_on_c, 10, 45, 0
11, 116250, Note_on_c, 10, 49, 100
11, 116279, Note_on_c, 10, 49, 0
11, 116280, Note_on_c, 10, 38, 100
11, 116309, Note_on_c, 10, 38, 0
11, 116310, Note_on_c, 10, 41, 100
11, 116339, Note_on_c, 10, 41, 0
11, 116340, Note_on_c, 10, 40, 100
11, 116369, Note_on_c, 10, 40, 0
11, 116370, Note_on_c, 10, 38, 100
11, 116399, Note_on_c, 10, 38, 0
11, 116400, Note_on_c, 10, 45, 100
11, 116459, Note_on_c, 10, 45, 0
11, 116460, Note_on_c, 10, 49, 100
11, 116519, Note_on_c, 10, 49, 0
11, 116520, Note_on_c, 10, 50, 100
11, 116579, Note_on_c, 10, 50, 0
11, 116580, Note_on_c, 10, 53, 100
11, 116639, Note_on_c, 10, 53, 0
11, 116640, Note_on_c, 10, 57, 100
11, 116699, Note_on_c, 10, 57, 0
11, 116700, Note_on_c, 10, 52, 100
11, 116759, Note_on_c, 10, 52, 0
11, 116760, Note_on_c, 10, 49, 100
11, 116819, Note_on_c, 10, 49, 0
11, 116820, Note_on_c, 10, 45, 100
11, 116879, Note_on_c, 10, 45, 0
11, 116880, Note_on_c, 10, 50, 100
11, 116909, Note_on_c, 10, 50, 0
11, 116910, Note_on_c, 10, 53, 100
11, 116939, Note_on_c, 10, 53, 0
11, 116940, Note_on_c, 10, 57, 100
11, 117029, Note_on_c, 10, 57, 0
11, 117030, Note_on_c, 10, 55, 100
11, 117059, Note_on_c, 10, 55, 0
11, 117060, Note_on_c, 10, 53, 100
11, 117089, Note_on_c, 10, 53, 0
11, 117090, Note_on_c, 10, 52, 100
11, 117119, Note_on_c, 10, 52, 0
11, 117120, Note_on_c, 10, 53, 100
11, 117149, Note_on_c, 10, 53, 0
11, 117150, Note_on_c, 10, 50, 100
11, 117179, Note_on_c, 10, 50, 0
11, 117180, Note_on_c, 10, 52, 100
11, 117209, Note_on_c, 10, 52, 0
11, 117210, Note_on_c, 10, 53, 100
11, 117239, Note_on_c, 10, 53, 0
11, 117240, Note_on_c, 10, 45, 100
11, 117269, Note_on_c, 10, 45, 0
11, 117270, Note_on_c, 10, 52, 100
11, 117299, Note_on_c, 10, 52, 0
11, 117300, Note_on_c, 10, 53, 100
11, 117329, Note_on_c, 10, 53, 0
11, 117330, Note_on_c, 10, 55, 100
11, 117359, Note_on_c, 10, 55, 0
11, 117360, Note_on_c, 10, 45, 100
11, 117389, Note_on_c, 10, 45, 0
11, 117390, Note_on_c, 10, 53, 100
11, 117419, Note_on_c, 10, 53, 0
11, 117420, Note_on_c, 10, 55, 100
11, 117449, Note_on_c, 10, 55, 0
11, 117450, Note_on_c, 10, 57, 100
11, 117479, Note_on_c, 10, 57, 0
11, 117480, Note_on_c, 10, 45, 100
11, 117509, Note_on_c, 10, 45, 0
11, 117510, Note_on_c, 10, 55, 100
11, 117539, Note_on_c, 10, 55, 0
11, 117540, Note_on_c, 10, 57, 100
11, 117569, Note_on_c, 10, 57, 0
11, 117570, Note_on_c, 10, 58, 100
11, 117599, Note_on_c, 10, 58, 0
11, 117600, Note_on_c, 10, 45, 100
11, 117629, Note_on_c, 10, 45, 0
11, 117630, Note_on_c, 10, 57, 100
11, 117659, Note_on_c, 10, 57, 0
11, 117660, Note_on_c, 10, 55, 100
11, 117689, Note_on_c, 10, 55, 0
11, 117690, Note_on_c, 10, 53, 100
11, 117719, Note_on_c, 10, 53, 0
11, 117720, Note_on_c, 10, 45, 100
11, 117749, Note_on_c, 10, 45, 0
11, 117750, Note_on_c, 10, 55, 100
11, 117779, Note_on_c, 10, 55, 0
11, 117780, Note_on_c, 10, 53, 100
11, 117809, Note_on_c, 10, 53, 0
11, 117810, Note_on_c, 10, 52, 100
11, 117839, Note_on_c, 10, 52, 0
11, 117840, Note_on_c, 10, 50, 100
11, 117869, Note_on_c, 10, 50, 0
11, 117870, Note_on_c, 10, 59, 100
11, 117899, Note_on_c, 10, 59, 0
11, 117900, Note_on_c, 10, 61, 100
11, 117929, Note_on_c, 10, 61, 0
11, 117930, Note_on_c, 10, 62, 100
11, 117959, Note_on_c, 10, 62, 0
11, 117960, Note_on_c, 10, 57, 100
11, 117989, Note_on_c, 10, 57, 0
11, 117990, Note_on_c, 10, 61, 100
11, 118019, Note_on_c, 10, 61, 0
11, 118020, Note_on_c, 10, 62, 100
11, 118049, Note_on_c, 10, 62, 0
11, 118050, Note_on_c, 10, 64, 100
11, 118079, Note_on_c, 10, 64, 0
11, 118080, Note_on_c, 10, 57, 100
11, 118109, Note_on_c, 10, 57, 0
11, 118110, Note_on_c, 10, 53, 100
11, 118139, Note_on_c, 10, 53, 0
11, 118140, Note_on_c, 10, 52, 100
11, 118169, Note_on_c, 10, 52, 0
11, 118170, Note_on_c, 10, 50, 100
11, 118199, Note_on_c, 10, 50, 0
11, 118200, Note_on_c, 10, 57, 100
11, 118229, Note_on_c, 10, 57, 0
11, 118230, Note_on_c, 10, 58, 100
11, 118259, Note_on_c, 10, 58, 0
11, 118260, Note_on_c, 10, 57, 100
11, 118289, Note_on_c, 10, 57, 0
11, 118290, Note_on_c, 10, 55, 100
11, 118319, Note_on_c, 10, 55, 0
11, 118320, Note_on_c, 10, 54, 100
11, 118349, Note_on_c, 10, 54, 0
11, 118350, Note_on_c, 10, 55, 100
11, 118379, Note_on_c, 10, 55, 0
11, 118380, Note_on_c, 10, 54, 100
11, 118409, Note_on_c, 10, 54, 0
11, 118410, Note_on_c, 10, 55, 100
11, 118439, Note_on_c, 10, 55, 0
11, 118440, Note_on_c, 10, 57, 100
11, 118469, Note_on_c, 10, 57, 0
11, 118470, Note_on_c, 10, 50, 100
11, 118499, Note_on_c, 10, 50, 0
11, 118500, Note_on_c, 10, 62, 100
11, 118589, Note_on_c, 10, 62, 0
11, 118590, Note_on_c, 10, 54, 100
11, 118619, Note_on_c, 10, 54, 0
11, 118620, Note_on_c, 10, 55, 100
11, 118649, Note_on_c, 10, 55, 0
11, 118650, Note_on_c, 10, 58, 100
11, 118679, Note_on_c, 10, 58, 0
11, 118680, Note_on_c, 10, 63, 100
11, 118709, Note_on_c, 10, 63, 0
11, 118710, Note_on_c, 10, 62, 100
11, 118739, Note_on_c, 10, 62, 0
11, 118740, Note_on_c, 10, 60, 100
11, 118769, Note_on_c, 10, 60, 0
11, 118770, Note_on_c, 10, 62, 100
11, 118799, Note_on_c, 10, 62, 0
11, 118800, Note_on_c, 10, 58, 100
11, 118829, Note_on_c, 10, 58, 0
11, 118830, Note_on_c, 10, 55, 100
11, 118859, Note_on_c, 10, 55, 0
11, 118860, Note_on_c, 10, 63, 100
11, 118889, Note_on_c, 10, 63, 0
11, 118890, Note_on_c, 10, 62, 100
11, 118919, Note_on_c, 10, 62, 0
11, 118920, Note_on_c, 10, 60, 100
11, 118949, Note_on_c, 10, 60, 0
11, 118950, Note_on_c, 10, 63, 100
11, 118979, Note_on_c, 10, 63, 0
11, 118980, Note_on_c, 10, 62, 100
11, 119009, Note_on_c, 10, 62, 0
11, 119010, Note_on_c, 10, 60, 100
11, 119039, Note_on_c, 10, 60, 0
11, 119040, Note_on_c, 10, 58, 100
11, 119069, Note_on_c, 10, 58, 0
11, 119070, Note_on_c, 10, 55, 100
11, 119099, Note_on_c, 10, 55, 0
11, 119100, Note_on_c, 10, 63, 100
11, 119159, Note_on_c, 10, 63, 0
11, 119160, Note_on_c, 10, 60, 100
11, 119219, Note_on_c, 10, 60, 0
11, 119220, Note_on_c, 10, 62, 100
11, 119279, Note_on_c, 10, 62, 0
11, 119280, Note_on_c, 10, 55, 100
11, 119339, Note_on_c, 10, 55, 0
11, 119520, Note_on_c, 10, 57, 100
11, 119579, Note_on_c, 10, 57, 0
11, 119640, Note_on_c, 10, 55, 100
11, 119699, Note_on_c, 10, 55, 0
11, 119760, Note_on_c, 10, 53, 100
11, 119819, Note_on_c, 10, 53, 0
11, 119880, Note_on_c, 10, 52, 100
11, 119939, Note_on_c, 10, 52, 0
11, 120000, Note_on_c, 10, 53, 100
11, 120059, Note_on_c, 10, 53, 0
11, 120060, Note_on_c, 10, 50, 100
11, 120119, Note_on_c, 10, 50, 0
11, 120120, Note_on_c, 10, 46, 100
11, 120179, Note_on_c, 10, 46, 0
11, 120180, Note_on_c, 10, 48, 100
11, 120239, Note_on_c, 10, 48, 0
11, 120240, Note_on_c, 10, 41, 100
11, 120299, Note_on_c, 10, 41, 0
11, 120480, Note_on_c, 10, 47, 100
11, 120539, Note_on_c, 10, 47, 0
11, 120540, Note_on_c, 10, 47, 100
11, 120599, Note_on_c, 10, 47, 0
11, 120600, Note_on_c, 10, 47, 100
11, 120659, Note_on_c, 10, 47, 0
11, 120660, Note_on_c, 10, 47, 100
11, 120719, Note_on_c, 10, 47, 0
11, 120720, Note_on_c, 10, 48, 100
11, 120734, Note_on_c, 10, 48, 0
11, 120960, Note_on_c, 10, 53, 100
11, 120989, Note_on_c, 10, 53, 0
11, 120990, Note_on_c, 10, 60, 100
11, 121019, Note_on_c, 10, 60, 0
11, 121020, Note_on_c, 10, 58, 100
11, 121049, Note_on_c, 10, 58, 0
11, 121050, Note_on_c, 10, 57, 100
11, 121079, Note_on_c, 10, 57, 0
11, 121080, Note_on_c, 10, 53, 100
11, 121109, Note_on_c, 10, 53, 0
11, 121110, Note_on_c, 10, 60, 100
11, 121139, Note_on_c, 10, 60, 0
11, 121140, Note_on_c, 10, 58, 100
11, 121169, Note_on_c, 10, 58, 0
11, 121170, Note_on_c, 10, 57, 100
11, 121199, Note_on_c, 10, 57, 0
11, 121200, Note_on_c, 10, 46, 100
11, 121200, Note_on_c, 10, 58, 100
11, 121259, Note_on_c, 10, 58, 0
11, 121259, Note_on_c, 10, 46, 0
11, 121440, Note_on_c, 10, 44, 100
11, 121499, Note_on_c, 10, 44, 0
11, 121500, Note_on_c, 10, 44, 100
11, 121559, Note_on_c, 10, 44, 0
11, 121560, Note_on_c, 10, 56, 100
11, 121619, Note_on_c, 10, 56, 0
11, 121620, Note_on_c, 10, 56, 100
11, 121679, Note_on_c, 10, 56, 0
11, 121680, Note_on_c, 10, 55, 100
11, 121739, Note_on_c, 10, 55, 0
11, 121920, Note_on_c, 10, 52, 100
11, 121979, Note_on_c, 10, 52, 0
11, 121980, Note_on_c, 10, 52, 100
11, 122039, Note_on_c, 10, 52, 0
11, 122040, Note_on_c, 10, 40, 100
11, 122099, Note_on_c, 10, 40, 0
11, 122100, Note_on_c, 10, 40, 100
11, 122159, Note_on_c, 10, 40, 0
11, 122160, Note_on_c, 10, 41, 100
11, 122219, Note_on_c, 10, 41, 0
11, 122400, Note_on_c, 10, 38, 100
11, 122459, Note_on_c, 10, 38, 0
11, 122460, Note_on_c, 10, 38, 100
11, 122519, Note_on_c, 10, 38, 0
11, 122520, Note_on_c, 10, 50, 100
11, 122579, Note_on_c, 10, 50, 0
11, 122580, Note_on_c, 10, 50, 100
11, 122639, Note_on_c, 10, 50, 0
11, 122640, Note_on_c, 10, 50, 100
11, 122699, Note_on_c, 10, 50, 0
11, 122760, Note_on_c, 10, 49, 100
11, 122819, Note_on_c, 10, 49, 0
11, 122880, Note_on_c, 10, 48, 100
11, 122939, Note_on_c, 10, 48, 0
11, 123000, Note_on_c, 10, 47, 100
11, 123059, Note_on_c, 10, 47, 0
11, 123120, Note_on_c, 10, 46, 100
11, 123179, Note_on_c, 10, 46, 0
11, 123240, Note_on_c, 10, 45, 100
11, 123299, Note_on_c, 10, 45, 0
11, 123360, Note_on_c, 10, 44, 100
11, 123419, Note_on_c, 10, 44, 0
11, 123480, Note_on_c, 10, 43, 100
11, 123539, Note_on_c, 10, 43, 0
11, 123600, Note_on_c, 10, 43, 100
11, 123719, Note_on_c, 10, 43, 0
11, 123840, Note_on_c, 10, 41, 100
11, 123899, Note_on_c, 10, 41, 0
11, 123900, Note_on_c, 10, 53, 100
11, 123959, Note_on_c, 10, 53, 0
11, 123960, Note_on_c, 10, 52, 100
11, 124019, Note_on_c, 10, 52, 0
11, 124020, Note_on_c, 10, 40, 100
11, 124079, Note_on_c, 10, 40, 0
11, 124080, Note_on_c, 10, 41, 100
11, 124139, Note_on_c, 10, 41, 0
11, 124140, Note_on_c, 10, 53, 100
11, 124199, Note_on_c, 10, 53, 0
11, 124200, Note_on_c, 10, 55, 100
11, 124259, Note_on_c, 10, 55, 0
11, 124260, Note_on_c, 10, 43, 100
11, 124319, Note_on_c, 10, 43, 0
11, 124320, Note_on_c, 10, 45, 100
11, 124379, Note_on_c, 10, 45, 0
11, 124380, Note_on_c, 10, 46, 100
11, 124439, Note_on_c, 10, 46, 0
11, 124440, Note_on_c, 10, 43, 100
11, 124499, Note_on_c, 10, 43, 0
11, 124500, Note_on_c, 10, 45, 100
11, 124559, Note_on_c, 10, 45, 0
11, 124560, Note_on_c, 10, 38, 100
11, 124619, Note_on_c, 10, 38, 0
11, 125340, Note_on_c, 10, 52, 100
11, 125399, Note_on_c, 10, 52, 0
11, 125400, Note_on_c, 10, 50, 100
11, 125459, Note_on_c, 10, 50, 0
11, 125460, Note_on_c, 10, 38, 100
11, 125519, Note_on_c, 10, 38, 0
11, 125520, Note_on_c, 10, 36, 100
11, 125579, Note_on_c, 10, 36, 0
11, 126300, Note_on_c, 10, 38, 100
11, 126359, Note_on_c, 10, 38, 0
11, 126360, Note_on_c, 10, 36, 100
11, 126419, Note_on_c, 10, 36, 0
11, 126420, Note_on_c, 10, 48, 100
11, 126479, Note_on_c, 10, 48, 0
11, 126480, Note_on_c, 10, 46, 100
11, 126539, Note_on_c, 10, 46, 0
11, 127260, Note_on_c, 10, 49, 100
11, 127319, Note_on_c, 10, 49, 0
11, 127320, Note_on_c, 10, 47, 100
11, 127379, Note_on_c, 10, 47, 0
11, 127380, Note_on_c, 10, 59, 100
11, 127439, Note_on_c, 10, 59, 0
11, 127440, Note_on_c, 10, 57, 100
11, 127499, Note_on_c, 10, 57, 0
11, 127920, Note_on_c, 10, 53, 100
11, 127949, Note_on_c, 10, 53, 0
11, 127950, Note_on_c, 10, 52, 100
11, 127979, Note_on_c, 10, 52, 0
11, 127980, Note_on_c, 10, 50, 100
11, 128009, Note_on_c, 10, 50, 0
11, 128010, Note_on_c, 10, 53, 100
11, 128039, Note_on_c, 10, 53, 0
11, 128040, Note_on_c, 10, 58, 100
11, 128069, Note_on_c, 10, 58, 0
11, 128070, Note_on_c, 10, 57, 100
11, 128099, Note_on_c, 10, 57, 0
11, 128100, Note_on_c, 10, 55, 100
11, 128129, Note_on_c, 10, 55, 0
11, 128130, Note_on_c, 10, 57, 100
11, 128159, Note_on_c, 10, 57, 0
11, 128160, Note_on_c, 10, 53, 100
11, 128189, Note_on_c, 10, 53, 0
11, 128190, Note_on_c, 10, 50, 100
11, 128219, Note_on_c, 10, 50, 0
11, 128220, Note_on_c, 10, 58, 100
11, 128249, Note_on_c, 10, 58, 0
11, 128250, Note_on_c, 10, 57, 100
11, 128279, Note_on_c, 10, 57, 0
11, 128280, Note_on_c, 10, 55, 100
11, 128309, Note_on_c, 10, 55, 0
11, 128310, Note_on_c, 10, 58, 100
11, 128339, Note_on_c, 10, 58, 0
11, 128340, Note_on_c, 10, 57, 100
11, 128369, Note_on_c, 10, 57, 0
11, 128370, Note_on_c, 10, 55, 100
11, 128399, Note_on_c, 10, 55, 0
11, 128400, Note_on_c, 10, 53, 100
11, 128429, Note_on_c, 10, 53, 0
11, 128430, Note_on_c, 10, 50, 100
11, 128459, Note_on_c, 10, 50, 0
11, 128460, Note_on_c, 10, 58, 100
11, 128519, Note_on_c, 10, 58, 0
11, 128520, Note_on_c, 10, 55, 100
11, 128579, Note_on_c, 10, 55, 0
11, 128580, Note_on_c, 10, 57, 100
11, 128639, Note_on_c, 10, 57, 0
11, 128640, Note_on_c, 10, 53, 100
11, 128640, Note_on_c, 10, 46, 100
11, 128640, Note_on_c, 10, 50, 100
11, 128699, Note_on_c, 10, 50, 0
11, 128699, Note_on_c, 10, 46, 0
11, 128699, Note_on_c, 10, 53, 0
11, 128760, Note_on_c, 10, 47, 100
11, 128760, Note_on_c, 10, 50, 100
11, 128760, Note_on_c, 10, 55, 100
11, 128819, Note_on_c, 10, 55, 0
11, 128819, Note_on_c, 10, 50, 0
11, 128819, Note_on_c, 10, 47, 0
11, 128880, Note_on_c, 10, 48, 100
11, 128880, Note_on_c, 10, 55, 100
11, 128880, Note_on_c, 10, 52, 100
11, 128939, Note_on_c, 10, 52, 0
11, 128939, Note_on_c, 10, 55, 0
11, 128939, Note_on_c, 10, 48, 0
11, 129000, Note_on_c, 10, 49, 100
11, 129000, Note_on_c, 10, 52, 100
11, 129000, Note_on_c, 10, 57, 100
11, 129059, Note_on_c, 10, 57, 0
11, 129059, Note_on_c, 10, 52, 0
11, 129059, Note_on_c, 10, 49, 0
11, 129120, Note_on_c, 10, 50, 100
11, 129120, Note_on_c, 10, 53, 100
11, 129120, Note_on_c, 10, 57, 100
11, 129179, Note_on_c, 10, 57, 0
11, 129179, Note_on_c, 10, 53, 0
11, 129179, Note_on_c, 10, 50, 0
11, 129180, Note_on_c, 10, 46, 100
11, 129239, Note_on_c, 10, 46, 0
11, 129240, Note_on_c, 10, 43, 100
11, 129299, Note_on_c, 10, 43, 0
11, 129300, Note_on_c, 10, 45, 100
11, 129359, Note_on_c, 10, 45, 0
11, 129360, Note_on_c, 10, 50, 100
11, 129389, Note_on_c, 10, 50, 0
11, 129390, Note_on_c, 10, 57, 100
11, 129419, Note_on_c, 10, 57, 0
11, 129420, Note_on_c, 10, 55, 100
11, 129449, Note_on_c, 10, 55, 0
11, 129450, Note_on_c, 10, 53, 100
11, 129479, Note_on_c, 10, 53, 0
11, 129480, Note_on_c, 10, 58, 100
11, 129509, Note_on_c, 10, 58, 0
11, 129510, Note_on_c, 10, 55, 100
11, 129539, Note_on_c, 10, 55, 0
11, 129540, Note_on_c, 10, 53, 100
11, 129569, Note_on_c, 10, 53, 0
11, 129570, Note_on_c, 10, 52, 100
11, 129599, Note_on_c, 10, 52, 0
11, 129600, Note_on_c, 10, 57, 100
11, 129629, Note_on_c, 10, 57, 0
11, 129630, Note_on_c, 10, 53, 100
11, 129659, Note_on_c, 10, 53, 0
11, 129660, Note_on_c, 10, 52, 100
11, 129689, Note_on_c, 10, 52, 0
11, 129690, Note_on_c, 10, 50, 100
11, 129719, Note_on_c, 10, 50, 0
11, 129720, Note_on_c, 10, 55, 100
11, 129749, Note_on_c, 10, 55, 0
11, 129750, Note_on_c, 10, 53, 100
11, 129779, Note_on_c, 10, 53, 0
11, 129780, Note_on_c, 10, 52, 100
11, 129809, Note_on_c, 10, 52, 0
11, 129810, Note_on_c, 10, 50, 100
11, 129839, Note_on_c, 10, 50, 0
11, 129840, Note_on_c, 10, 57, 100
11, 129869, Note_on_c, 10, 57, 0
11, 129870, Note_on_c, 10, 53, 100
11, 129899, Note_on_c, 10, 53, 0
11, 129900, Note_on_c, 10, 52, 100
11, 129929, Note_on_c, 10, 52, 0
11, 129930, Note_on_c, 10, 50, 100
11, 129959, Note_on_c, 10, 50, 0
11, 129960, Note_on_c, 10, 58, 100
11, 129989, Note_on_c, 10, 58, 0
11, 129990, Note_on_c, 10, 55, 100
11, 130019, Note_on_c, 10, 55, 0
11, 130020, Note_on_c, 10, 53, 100
11, 130049, Note_on_c, 10, 53, 0
11, 130050, Note_on_c, 10, 52, 100
11, 130079, Note_on_c, 10, 52, 0
11, 130080, Note_on_c, 10, 57, 100
11, 130109, Note_on_c, 10, 57, 0
11, 130110, Note_on_c, 10, 53, 100
11, 130139, Note_on_c, 10, 53, 0
11, 130140, Note_on_c, 10, 52, 100
11, 130169, Note_on_c, 10, 52, 0
11, 130170, Note_on_c, 10, 50, 100
11, 130199, Note_on_c, 10, 50, 0
11, 130200, Note_on_c, 10, 55, 100
11, 130229, Note_on_c, 10, 55, 0
11, 130230, Note_on_c, 10, 53, 100
11, 130259, Note_on_c, 10, 53, 0
11, 130260, Note_on_c, 10, 52, 100
11, 130289, Note_on_c, 10, 52, 0
11, 130290, Note_on_c, 10, 55, 100
11, 130319, Note_on_c, 10, 55, 0
11, 130320, Note_on_c, 10, 53, 100
11, 130349, Note_on_c, 10, 53, 0
11, 130350, Note_on_c, 10, 50, 100
11, 130379, Note_on_c, 10, 50, 0
11, 130380, Note_on_c, 10, 55, 100
11, 130439, Note_on_c, 10, 55, 0
11, 130440, Note_on_c, 10, 57, 100
11, 130499, Note_on_c, 10, 57, 0
11, 130500, Note_on_c, 10, 45, 100
11, 130559, Note_on_c, 10, 45, 0
11, 130560, Note_on_c, 10, 38, 100
11, 130560, Note_on_c, 10, 50, 100
11, 130799, Note_on_c, 10, 50, 0
11, 130799, Note_on_c, 10, 38, 0
11, 130799, End_track
12, 0, Start_track
12, 0, MIDI_port, 0
12, 0, Title_t, "J.S.BACH"
12, 0, End_track
13, 0, Start_track
13, 0, MIDI_port, 0
13, 0, Title_t, "BWV 1063"
13, 0, End_track
14, 0, Start_track
14, 0, MIDI_port, 0
14, 0, Title_t, "CONCERTO FOR THREE HARPSICHORDS"
14, 0, End_track
15, 0, Start_track
15, 0, MIDI_port, 0
15, 0, Title_t, "IN D MINOR"
15, 0, End_track
16, 0, Start_track
16, 0, MIDI_port, 0
16, 0, Title_t, "SECUENCED BY"
16, 0, End_track
17, 0, Start_track
17, 0, MIDI_port, 0
17, 0, Title_t, "MARCELO COPIA M"
17, 0, End_track
18, 0, Start_track
18, 0, MIDI_port, 0
18, 0, Title_t, "mcopia@entelchile.net"
18, 0, End_track
0, 0, End_of_file
