0, 0, Header, 1, 12, 120
1, 0, Start_track
1, 0, Time_signature, 1, 2, 24, 8
1, 0, Key_signature, -2, "major"
1, 0, Tempo, 666667
1, 0, Marker_t, "Vivace"
1, 120, Time_signature, 4, 2, 24, 8
1, 53400, Time_signature, 3, 1, 48, 8
1, 53400, Tempo, 1000000
1, 53400, Marker_t, "Adagio"
1, 96600, Time_signature, 6, 3, 12, 8
1, 96960, Tempo, 666667
1, 96960, Marker_t, "Allegro"
1, 97320, Tempo, 666667
1, 99795, Tempo, 666667
1, 136660, Tempo, 666667
1, 136666, Tempo, 670391
1, 136673, Tempo, 674157
1, 136676, Tempo, 677966
1, 136683, Tempo, 681818
1, 136690, Tempo, 685714
1, 136693, Tempo, 689655
1, 136700, Tempo, 693642
1, 136706, Tempo, 697674
1, 136710, Tempo, 701754
1, 136716, Tempo, 705882
1, 136723, Tempo, 710059
1, 136726, Tempo, 714286
1, 136733, Tempo, 718563
1, 136740, Tempo, 722892
1, 136743, Tempo, 727273
1, 136750, Tempo, 731707
1, 136756, Tempo, 736196
1, 136760, Tempo, 740741
1, 136766, Tempo, 745342
1, 136773, Tempo, 750000
1, 136776, Tempo, 754717
1, 136783, Tempo, 759494
1, 136790, Tempo, 764331
1, 136793, Tempo, 769231
1, 136800, Tempo, 774194
1, 136803, Tempo, 779221
1, 136810, Tempo, 784314
1, 136816, Tempo, 789474
1, 136820, Tempo, 794702
1, 136826, Tempo, 800000
1, 136833, Tempo, 805369
1, 136836, Tempo, 810811
1, 136843, Tempo, 816327
1, 136850, Tempo, 821918
1, 136853, Tempo, 827586
1, 136860, Tempo, 833333
1, 136866, Tempo, 839161
1, 136870, Tempo, 845070
1, 136876, Tempo, 851064
1, 136883, Tempo, 857143
1, 136886, Tempo, 863309
1, 136893, Tempo, 869565
1, 136900, Tempo, 875912
1, 136903, Tempo, 882353
1, 136910, Tempo, 888889
1, 136916, Tempo, 895522
1, 136920, Tempo, 902256
1, 136926, Tempo, 909091
1, 136930, Tempo, 916031
1, 136936, Tempo, 923077
1, 136943, Tempo, 930233
1, 136946, Tempo, 937500
1, 136953, Tempo, 944882
1, 136960, Tempo, 952381
1, 136963, Tempo, 960000
1, 136970, Tempo, 967742
1, 136976, Tempo, 975610
1, 136980, Tempo, 983607
1, 136986, Tempo, 991736
1, 136993, Tempo, 1000000
1, 136996, Tempo, 1008403
1, 137003, Tempo, 1016949
1, 137010, Tempo, 1025641
1, 137013, Tempo, 1034483
1, 137020, Tempo, 1043478
1, 137026, Tempo, 1052632
1, 137030, Tempo, 1061947
1, 137036, Tempo, 1071429
1, 137043, Tempo, 1081081
1, 137046, Tempo, 1090909
1, 137053, Tempo, 1100917
1, 137056, Tempo, 1111111
1, 137057, Tempo, 1061947
1, 137060, Tempo, 1100917
1, 137064, Tempo, 1111111
1, 137064, End_track
2, 0, Start_track
2, 0, MIDI_port, 0
2, 0, Title_t, "viola"
2, 0, Program_c, 0, 41
2, 60, Note_on_c, 0, 62, 90
2, 119, Note_on_c, 0, 62, 0
2, 120, Note_on_c, 0, 62, 90
2, 179, Note_on_c, 0, 62, 0
2, 180, Note_on_c, 0, 67, 90
2, 209, Note_on_c, 0, 67, 0
2, 210, Note_on_c, 0, 66, 90
2, 239, Note_on_c, 0, 66, 0
2, 240, Note_on_c, 0, 67, 90
2, 299, Note_on_c, 0, 67, 0
2, 300, Note_on_c, 0, 62, 90
2, 329, Note_on_c, 0, 62, 0
2, 330, Note_on_c, 0, 60, 90
2, 359, Note_on_c, 0, 60, 0
2, 360, Note_on_c, 0, 62, 90
2, 419, Note_on_c, 0, 62, 0
2, 420, Note_on_c, 0, 58, 90
2, 449, Note_on_c, 0, 58, 0
2, 450, Note_on_c, 0, 57, 90
2, 479, Note_on_c, 0, 57, 0
2, 480, Note_on_c, 0, 58, 90
2, 539, Note_on_c, 0, 58, 0
2, 540, Note_on_c, 0, 55, 90
2, 569, Note_on_c, 0, 55, 0
2, 570, Note_on_c, 0, 54, 90
2, 599, Note_on_c, 0, 54, 0
2, 600, Note_on_c, 0, 55, 90
2, 659, Note_on_c, 0, 55, 0
2, 660, Note_on_c, 0, 58, 90
2, 719, Note_on_c, 0, 58, 0
2, 720, Note_on_c, 0, 62, 90
2, 779, Note_on_c, 0, 62, 0
2, 780, Note_on_c, 0, 67, 90
2, 839, Note_on_c, 0, 67, 0
2, 840, Note_on_c, 0, 69, 90
2, 869, Note_on_c, 0, 69, 0
2, 870, Note_on_c, 0, 67, 90
2, 899, Note_on_c, 0, 67, 0
2, 900, Note_on_c, 0, 66, 90
2, 929, Note_on_c, 0, 66, 0
2, 930, Note_on_c, 0, 64, 90
2, 959, Note_on_c, 0, 64, 0
2, 960, Note_on_c, 0, 62, 90
2, 1019, Note_on_c, 0, 62, 0
2, 1020, Note_on_c, 0, 69, 90
2, 1079, Note_on_c, 0, 69, 0
2, 1080, Note_on_c, 0, 70, 90
2, 1109, Note_on_c, 0, 70, 0
2, 1110, Note_on_c, 0, 72, 90
2, 1139, Note_on_c, 0, 72, 0
2, 1140, Note_on_c, 0, 70, 90
2, 1169, Note_on_c, 0, 70, 0
2, 1170, Note_on_c, 0, 69, 90
2, 1199, Note_on_c, 0, 69, 0
2, 1200, Note_on_c, 0, 67, 90
2, 1229, Note_on_c, 0, 67, 0
2, 1230, Note_on_c, 0, 65, 90
2, 1259, Note_on_c, 0, 65, 0
2, 1260, Note_on_c, 0, 63, 90
2, 1289, Note_on_c, 0, 63, 0
2, 1290, Note_on_c, 0, 62, 90
2, 1319, Note_on_c, 0, 62, 0
2, 1320, Note_on_c, 0, 60, 90
2, 1379, Note_on_c, 0, 60, 0
2, 1380, Note_on_c, 0, 63, 90
2, 1439, Note_on_c, 0, 63, 0
2, 1440, Note_on_c, 0, 67, 90
2, 1499, Note_on_c, 0, 67, 0
2, 1500, Note_on_c, 0, 70, 90
2, 1559, Note_on_c, 0, 70, 0
2, 1560, Note_on_c, 0, 69, 90
2, 1589, Note_on_c, 0, 69, 0
2, 1590, Note_on_c, 0, 70, 90
2, 1619, Note_on_c, 0, 70, 0
2, 1620, Note_on_c, 0, 69, 90
2, 1649, Note_on_c, 0, 69, 0
2, 1650, Note_on_c, 0, 67, 90
2, 1679, Note_on_c, 0, 67, 0
2, 1680, Note_on_c, 0, 65, 90
2, 1709, Note_on_c, 0, 65, 0
2, 1710, Note_on_c, 0, 63, 90
2, 1739, Note_on_c, 0, 63, 0
2, 1740, Note_on_c, 0, 62, 90
2, 1769, Note_on_c, 0, 62, 0
2, 1770, Note_on_c, 0, 60, 90
2, 1799, Note_on_c, 0, 60, 0
2, 1800, Note_on_c, 0, 58, 90
2, 1859, Note_on_c, 0, 58, 0
2, 1860, Note_on_c, 0, 62, 90
2, 1919, Note_on_c, 0, 62, 0
2, 1920, Note_on_c, 0, 65, 90
2, 1979, Note_on_c, 0, 65, 0
2, 1980, Note_on_c, 0, 69, 90
2, 2039, Note_on_c, 0, 69, 0
2, 2040, Note_on_c, 0, 67, 90
2, 2069, Note_on_c, 0, 67, 0
2, 2070, Note_on_c, 0, 69, 90
2, 2099, Note_on_c, 0, 69, 0
2, 2100, Note_on_c, 0, 67, 90
2, 2129, Note_on_c, 0, 67, 0
2, 2130, Note_on_c, 0, 65, 90
2, 2159, Note_on_c, 0, 65, 0
2, 2160, Note_on_c, 0, 63, 90
2, 2189, Note_on_c, 0, 63, 0
2, 2190, Note_on_c, 0, 62, 90
2, 2219, Note_on_c, 0, 62, 0
2, 2220, Note_on_c, 0, 60, 90
2, 2249, Note_on_c, 0, 60, 0
2, 2250, Note_on_c, 0, 58, 90
2, 2279, Note_on_c, 0, 58, 0
2, 2280, Note_on_c, 0, 57, 90
2, 2309, Note_on_c, 0, 57, 0
2, 2310, Note_on_c, 0, 58, 90
2, 2339, Note_on_c, 0, 58, 0
2, 2340, Note_on_c, 0, 60, 90
2, 2369, Note_on_c, 0, 60, 0
2, 2370, Note_on_c, 0, 62, 90
2, 2399, Note_on_c, 0, 62, 0
2, 2400, Note_on_c, 0, 63, 90
2, 2429, Note_on_c, 0, 63, 0
2, 2430, Note_on_c, 0, 60, 90
2, 2459, Note_on_c, 0, 60, 0
2, 2460, Note_on_c, 0, 57, 90
2, 2489, Note_on_c, 0, 57, 0
2, 2490, Note_on_c, 0, 60, 90
2, 2519, Note_on_c, 0, 60, 0
2, 2520, Note_on_c, 0, 54, 90
2, 2549, Note_on_c, 0, 54, 0
2, 2550, Note_on_c, 0, 55, 90
2, 2579, Note_on_c, 0, 55, 0
2, 2580, Note_on_c, 0, 57, 90
2, 2609, Note_on_c, 0, 57, 0
2, 2610, Note_on_c, 0, 58, 90
2, 2639, Note_on_c, 0, 58, 0
2, 2640, Note_on_c, 0, 60, 90
2, 2669, Note_on_c, 0, 60, 0
2, 2670, Note_on_c, 0, 57, 90
2, 2699, Note_on_c, 0, 57, 0
2, 2700, Note_on_c, 0, 54, 90
2, 2729, Note_on_c, 0, 54, 0
2, 2730, Note_on_c, 0, 57, 90
2, 2759, Note_on_c, 0, 57, 0
2, 2760, Note_on_c, 0, 50, 90
2, 2789, Note_on_c, 0, 50, 0
2, 2790, Note_on_c, 0, 52, 90
2, 2819, Note_on_c, 0, 52, 0
2, 2820, Note_on_c, 0, 54, 90
2, 2849, Note_on_c, 0, 54, 0
2, 2850, Note_on_c, 0, 55, 90
2, 2879, Note_on_c, 0, 55, 0
2, 2880, Note_on_c, 0, 57, 90
2, 2909, Note_on_c, 0, 57, 0
2, 2910, Note_on_c, 0, 58, 90
2, 2939, Note_on_c, 0, 58, 0
2, 2940, Note_on_c, 0, 60, 90
2, 2969, Note_on_c, 0, 60, 0
2, 2970, Note_on_c, 0, 57, 90
2, 2999, Note_on_c, 0, 57, 0
2, 3000, Note_on_c, 0, 62, 90
2, 3029, Note_on_c, 0, 62, 0
2, 3030, Note_on_c, 0, 54, 90
2, 3059, Note_on_c, 0, 54, 0
2, 3060, Note_on_c, 0, 55, 90
2, 3149, Note_on_c, 0, 55, 0
2, 3150, Note_on_c, 0, 62, 90
2, 3179, Note_on_c, 0, 62, 0
2, 3180, Note_on_c, 0, 58, 90
2, 3209, Note_on_c, 0, 58, 0
2, 3210, Note_on_c, 0, 55, 90
2, 3239, Note_on_c, 0, 55, 0
2, 3240, Note_on_c, 0, 63, 90
2, 3269, Note_on_c, 0, 63, 0
2, 3270, Note_on_c, 0, 54, 90
2, 3299, Note_on_c, 0, 54, 0
2, 3300, Note_on_c, 0, 55, 90
2, 3389, Note_on_c, 0, 55, 0
2, 3390, Note_on_c, 0, 63, 90
2, 3419, Note_on_c, 0, 63, 0
2, 3420, Note_on_c, 0, 60, 90
2, 3449, Note_on_c, 0, 60, 0
2, 3450, Note_on_c, 0, 57, 90
2, 3479, Note_on_c, 0, 57, 0
2, 3480, Note_on_c, 0, 62, 90
2, 3509, Note_on_c, 0, 62, 0
2, 3510, Note_on_c, 0, 54, 90
2, 3539, Note_on_c, 0, 54, 0
2, 3540, Note_on_c, 0, 55, 90
2, 3569, Note_on_c, 0, 55, 0
2, 3570, Note_on_c, 0, 58, 90
2, 3599, Note_on_c, 0, 58, 0
2, 3600, Note_on_c, 0, 63, 90
2, 3629, Note_on_c, 0, 63, 0
2, 3630, Note_on_c, 0, 54, 90
2, 3659, Note_on_c, 0, 54, 0
2, 3660, Note_on_c, 0, 55, 90
2, 3689, Note_on_c, 0, 55, 0
2, 3690, Note_on_c, 0, 60, 90
2, 3719, Note_on_c, 0, 60, 0
2, 3720, Note_on_c, 0, 62, 90
2, 3779, Note_on_c, 0, 62, 0
2, 3780, Note_on_c, 0, 55, 90
2, 3839, Note_on_c, 0, 55, 0
2, 3840, Note_on_c, 0, 50, 90
2, 3899, Note_on_c, 0, 50, 0
2, 3900, Note_on_c, 0, 54, 90
2, 3959, Note_on_c, 0, 54, 0
2, 3960, Note_on_c, 0, 55, 90
2, 4019, Note_on_c, 0, 55, 0
2, 4020, Note_on_c, 0, 55, 90
2, 4049, Note_on_c, 0, 55, 0
2, 4050, Note_on_c, 0, 54, 90
2, 4079, Note_on_c, 0, 54, 0
2, 4080, Note_on_c, 0, 55, 90
2, 4139, Note_on_c, 0, 55, 0
2, 4140, Note_on_c, 0, 50, 90
2, 4169, Note_on_c, 0, 50, 0
2, 4170, Note_on_c, 0, 48, 90
2, 4199, Note_on_c, 0, 48, 0
2, 4200, Note_on_c, 0, 50, 90
2, 4259, Note_on_c, 0, 50, 0
2, 4260, Note_on_c, 0, 46, 90
2, 4289, Note_on_c, 0, 46, 0
2, 4290, Note_on_c, 0, 45, 90
2, 4319, Note_on_c, 0, 45, 0
2, 4320, Note_on_c, 0, 46, 90
2, 4379, Note_on_c, 0, 46, 0
2, 4380, Note_on_c, 0, 43, 90
2, 4409, Note_on_c, 0, 43, 0
2, 4410, Note_on_c, 0, 42, 90
2, 4439, Note_on_c, 0, 42, 0
2, 4440, Note_on_c, 0, 43, 90
2, 4499, Note_on_c, 0, 43, 0
2, 4500, Note_on_c, 0, 46, 90
2, 4559, Note_on_c, 0, 46, 0
2, 4560, Note_on_c, 0, 50, 90
2, 4619, Note_on_c, 0, 50, 0
2, 4620, Note_on_c, 0, 55, 90
2, 4679, Note_on_c, 0, 55, 0
2, 4680, Note_on_c, 0, 57, 90
2, 4709, Note_on_c, 0, 57, 0
2, 4710, Note_on_c, 0, 55, 90
2, 4739, Note_on_c, 0, 55, 0
2, 4740, Note_on_c, 0, 54, 90
2, 4769, Note_on_c, 0, 54, 0
2, 4770, Note_on_c, 0, 52, 90
2, 4799, Note_on_c, 0, 52, 0
2, 4800, Note_on_c, 0, 50, 90
2, 4859, Note_on_c, 0, 50, 0
2, 4860, Note_on_c, 0, 62, 90
2, 4919, Note_on_c, 0, 62, 0
2, 4920, Note_on_c, 0, 62, 90
2, 5430, Note_on_c, 0, 62, 0
2, 5430, Note_on_c, 0, 60, 90
2, 5459, Note_on_c, 0, 60, 0
2, 5460, Note_on_c, 0, 62, 90
2, 5489, Note_on_c, 0, 62, 0
2, 5490, Note_on_c, 0, 57, 90
2, 5519, Note_on_c, 0, 57, 0
2, 5520, Note_on_c, 0, 58, 90
2, 5549, Note_on_c, 0, 58, 0
2, 5550, Note_on_c, 0, 57, 90
2, 5579, Note_on_c, 0, 57, 0
2, 5580, Note_on_c, 0, 58, 90
2, 5609, Note_on_c, 0, 58, 0
2, 5610, Note_on_c, 0, 67, 90
2, 5639, Note_on_c, 0, 67, 0
2, 5640, Note_on_c, 0, 66, 90
2, 5669, Note_on_c, 0, 66, 0
2, 5670, Note_on_c, 0, 67, 90
2, 5699, Note_on_c, 0, 67, 0
2, 5700, Note_on_c, 0, 67, 90
2, 5709, Note_on_c, 0, 67, 0
2, 5710, Note_on_c, 0, 69, 90
2, 5719, Note_on_c, 0, 69, 0
2, 5720, Note_on_c, 0, 67, 90
2, 5729, Note_on_c, 0, 67, 0
2, 5730, Note_on_c, 0, 66, 90
2, 5744, Note_on_c, 0, 66, 0
2, 5745, Note_on_c, 0, 67, 90
2, 5759, Note_on_c, 0, 67, 0
2, 5760, Note_on_c, 0, 69, 90
2, 5789, Note_on_c, 0, 69, 0
2, 5790, Note_on_c, 0, 67, 90
2, 5819, Note_on_c, 0, 67, 0
2, 5820, Note_on_c, 0, 66, 90
2, 5849, Note_on_c, 0, 66, 0
2, 5850, Note_on_c, 0, 64, 90
2, 5879, Note_on_c, 0, 64, 0
2, 5880, Note_on_c, 0, 62, 90
2, 5939, Note_on_c, 0, 62, 0
2, 5940, Note_on_c, 0, 67, 90
2, 5969, Note_on_c, 0, 67, 0
2, 5970, Note_on_c, 0, 69, 90
2, 5999, Note_on_c, 0, 69, 0
2, 6000, Note_on_c, 0, 70, 90
2, 6149, Note_on_c, 0, 70, 0
2, 6150, Note_on_c, 0, 69, 90
2, 6179, Note_on_c, 0, 69, 0
2, 6180, Note_on_c, 0, 67, 90
2, 6209, Note_on_c, 0, 67, 0
2, 6210, Note_on_c, 0, 69, 90
2, 6239, Note_on_c, 0, 69, 0
2, 6240, Note_on_c, 0, 70, 90
2, 6299, Note_on_c, 0, 70, 0
2, 6300, Note_on_c, 0, 60, 90
2, 6419, Note_on_c, 0, 60, 0
2, 6420, Note_on_c, 0, 65, 90
2, 6449, Note_on_c, 0, 65, 0
2, 6450, Note_on_c, 0, 67, 90
2, 6479, Note_on_c, 0, 67, 0
2, 6480, Note_on_c, 0, 69, 90
2, 6629, Note_on_c, 0, 69, 0
2, 6630, Note_on_c, 0, 67, 90
2, 6659, Note_on_c, 0, 67, 0
2, 6660, Note_on_c, 0, 65, 90
2, 6689, Note_on_c, 0, 65, 0
2, 6690, Note_on_c, 0, 67, 90
2, 6719, Note_on_c, 0, 67, 0
2, 6720, Note_on_c, 0, 69, 90
2, 6779, Note_on_c, 0, 69, 0
2, 6780, Note_on_c, 0, 58, 90
2, 6899, Note_on_c, 0, 58, 0
2, 6900, Note_on_c, 0, 63, 90
2, 6929, Note_on_c, 0, 63, 0
2, 6930, Note_on_c, 0, 65, 90
2, 6959, Note_on_c, 0, 65, 0
2, 6960, Note_on_c, 0, 67, 90
2, 7139, Note_on_c, 0, 67, 0
2, 7140, Note_on_c, 0, 69, 90
2, 7169, Note_on_c, 0, 69, 0
2, 7170, Note_on_c, 0, 70, 90
2, 7199, Note_on_c, 0, 70, 0
2, 7200, Note_on_c, 0, 72, 90
2, 7379, Note_on_c, 0, 72, 0
2, 7380, Note_on_c, 0, 66, 90
2, 7409, Note_on_c, 0, 66, 0
2, 7410, Note_on_c, 0, 67, 90
2, 7439, Note_on_c, 0, 67, 0
2, 7440, Note_on_c, 0, 69, 90
2, 7619, Note_on_c, 0, 69, 0
2, 7620, Note_on_c, 0, 62, 90
2, 7649, Note_on_c, 0, 62, 0
2, 7650, Note_on_c, 0, 64, 90
2, 7679, Note_on_c, 0, 64, 0
2, 7680, Note_on_c, 0, 66, 90
2, 7709, Note_on_c, 0, 66, 0
2, 7710, Note_on_c, 0, 67, 90
2, 7739, Note_on_c, 0, 67, 0
2, 7740, Note_on_c, 0, 69, 90
2, 7769, Note_on_c, 0, 69, 0
2, 7770, Note_on_c, 0, 66, 90
2, 7799, Note_on_c, 0, 66, 0
2, 7800, Note_on_c, 0, 67, 90
2, 7859, Note_on_c, 0, 67, 0
2, 7860, Note_on_c, 0, 62, 90
2, 7889, Note_on_c, 0, 62, 0
2, 7890, Note_on_c, 0, 54, 90
2, 7919, Note_on_c, 0, 54, 0
2, 7920, Note_on_c, 0, 55, 90
2, 8099, Note_on_c, 0, 55, 0
2, 8100, Note_on_c, 0, 63, 90
2, 8129, Note_on_c, 0, 63, 0
2, 8130, Note_on_c, 0, 54, 90
2, 8159, Note_on_c, 0, 54, 0
2, 8160, Note_on_c, 0, 55, 90
2, 8339, Note_on_c, 0, 55, 0
2, 8340, Note_on_c, 0, 62, 90
2, 8369, Note_on_c, 0, 62, 0
2, 8370, Note_on_c, 0, 54, 90
2, 8399, Note_on_c, 0, 54, 0
2, 8400, Note_on_c, 0, 55, 90
2, 8460, Note_on_c, 0, 55, 0
2, 8460, Note_on_c, 0, 63, 90
2, 8489, Note_on_c, 0, 63, 0
2, 8490, Note_on_c, 0, 54, 90
2, 8519, Note_on_c, 0, 54, 0
2, 8520, Note_on_c, 0, 55, 90
2, 8639, Note_on_c, 0, 55, 0
2, 8700, Note_on_c, 0, 69, 90
2, 8759, Note_on_c, 0, 69, 0
2, 8760, Note_on_c, 0, 70, 90
2, 8819, Note_on_c, 0, 70, 0
2, 8820, Note_on_c, 0, 67, 90
2, 8879, Note_on_c, 0, 67, 0
2, 8880, Note_on_c, 0, 64, 90
2, 8939, Note_on_c, 0, 64, 0
2, 8940, Note_on_c, 0, 60, 90
2, 8999, Note_on_c, 0, 60, 0
2, 9000, Note_on_c, 0, 55, 90
2, 9059, Note_on_c, 0, 55, 0
2, 9060, Note_on_c, 0, 52, 90
2, 9119, Note_on_c, 0, 52, 0
2, 9120, Note_on_c, 0, 48, 90
2, 9179, Note_on_c, 0, 48, 0
2, 9180, Note_on_c, 0, 70, 90
2, 9239, Note_on_c, 0, 70, 0
2, 9240, Note_on_c, 0, 69, 90
2, 9299, Note_on_c, 0, 69, 0
2, 9300, Note_on_c, 0, 65, 90
2, 9359, Note_on_c, 0, 65, 0
2, 9360, Note_on_c, 0, 62, 90
2, 9419, Note_on_c, 0, 62, 0
2, 9420, Note_on_c, 0, 58, 90
2, 9479, Note_on_c, 0, 58, 0
2, 9480, Note_on_c, 0, 53, 90
2, 9539, Note_on_c, 0, 53, 0
2, 9540, Note_on_c, 0, 50, 90
2, 9599, Note_on_c, 0, 50, 0
2, 9600, Note_on_c, 0, 46, 90
2, 9659, Note_on_c, 0, 46, 0
2, 9660, Note_on_c, 0, 69, 90
2, 9719, Note_on_c, 0, 69, 0
2, 9720, Note_on_c, 0, 67, 90
2, 9779, Note_on_c, 0, 67, 0
2, 9780, Note_on_c, 0, 64, 90
2, 9839, Note_on_c, 0, 64, 0
2, 9840, Note_on_c, 0, 61, 90
2, 9899, Note_on_c, 0, 61, 0
2, 9900, Note_on_c, 0, 57, 90
2, 9959, Note_on_c, 0, 57, 0
2, 9960, Note_on_c, 0, 52, 90
2, 10019, Note_on_c, 0, 52, 0
2, 10020, Note_on_c, 0, 49, 90
2, 10079, Note_on_c, 0, 49, 0
2, 10080, Note_on_c, 0, 45, 90
2, 10139, Note_on_c, 0, 45, 0
2, 10140, Note_on_c, 0, 67, 90
2, 10199, Note_on_c, 0, 67, 0
2, 10200, Note_on_c, 0, 65, 90
2, 10229, Note_on_c, 0, 65, 0
2, 10230, Note_on_c, 0, 61, 90
2, 10259, Note_on_c, 0, 61, 0
2, 10260, Note_on_c, 0, 62, 90
2, 10349, Note_on_c, 0, 62, 0
2, 10350, Note_on_c, 0, 69, 90
2, 10379, Note_on_c, 0, 69, 0
2, 10380, Note_on_c, 0, 65, 90
2, 10409, Note_on_c, 0, 65, 0
2, 10410, Note_on_c, 0, 62, 90
2, 10439, Note_on_c, 0, 62, 0
2, 10440, Note_on_c, 0, 70, 90
2, 10469, Note_on_c, 0, 70, 0
2, 10470, Note_on_c, 0, 61, 90
2, 10499, Note_on_c, 0, 61, 0
2, 10500, Note_on_c, 0, 62, 90
2, 10589, Note_on_c, 0, 62, 0
2, 10590, Note_on_c, 0, 70, 90
2, 10619, Note_on_c, 0, 70, 0
2, 10620, Note_on_c, 0, 67, 90
2, 10649, Note_on_c, 0, 67, 0
2, 10650, Note_on_c, 0, 64, 90
2, 10679, Note_on_c, 0, 64, 0
2, 10680, Note_on_c, 0, 69, 90
2, 10709, Note_on_c, 0, 69, 0
2, 10710, Note_on_c, 0, 61, 90
2, 10739, Note_on_c, 0, 61, 0
2, 10740, Note_on_c, 0, 62, 90
2, 10769, Note_on_c, 0, 62, 0
2, 10770, Note_on_c, 0, 65, 90
2, 10799, Note_on_c, 0, 65, 0
2, 10800, Note_on_c, 0, 70, 90
2, 10829, Note_on_c, 0, 70, 0
2, 10830, Note_on_c, 0, 61, 90
2, 10859, Note_on_c, 0, 61, 0
2, 10860, Note_on_c, 0, 62, 90
2, 10889, Note_on_c, 0, 62, 0
2, 10890, Note_on_c, 0, 67, 90
2, 10919, Note_on_c, 0, 67, 0
2, 10920, Note_on_c, 0, 69, 90
2, 10979, Note_on_c, 0, 69, 0
2, 10980, Note_on_c, 0, 62, 90
2, 11039, Note_on_c, 0, 62, 0
2, 11040, Note_on_c, 0, 57, 90
2, 11099, Note_on_c, 0, 57, 0
2, 11100, Note_on_c, 0, 61, 90
2, 11159, Note_on_c, 0, 61, 0
2, 11160, Note_on_c, 0, 62, 90
2, 11189, Note_on_c, 0, 62, 0
2, 11190, Note_on_c, 0, 57, 90
2, 11219, Note_on_c, 0, 57, 0
2, 11220, Note_on_c, 0, 58, 90
2, 11249, Note_on_c, 0, 58, 0
2, 11250, Note_on_c, 0, 55, 90
2, 11279, Note_on_c, 0, 55, 0
2, 11280, Note_on_c, 0, 57, 90
2, 11309, Note_on_c, 0, 57, 0
2, 11310, Note_on_c, 0, 62, 90
2, 11339, Note_on_c, 0, 62, 0
2, 11340, Note_on_c, 0, 58, 90
2, 11369, Note_on_c, 0, 58, 0
2, 11370, Note_on_c, 0, 55, 90
2, 11399, Note_on_c, 0, 55, 0
2, 11400, Note_on_c, 0, 57, 90
2, 11429, Note_on_c, 0, 57, 0
2, 11430, Note_on_c, 0, 52, 90
2, 11459, Note_on_c, 0, 52, 0
2, 11460, Note_on_c, 0, 53, 90
2, 11489, Note_on_c, 0, 53, 0
2, 11490, Note_on_c, 0, 49, 90
2, 11519, Note_on_c, 0, 49, 0
2, 11520, Note_on_c, 0, 50, 90
2, 11549, Note_on_c, 0, 50, 0
2, 11550, Note_on_c, 0, 57, 90
2, 11579, Note_on_c, 0, 57, 0
2, 11580, Note_on_c, 0, 53, 90
2, 11609, Note_on_c, 0, 53, 0
2, 11610, Note_on_c, 0, 50, 90
2, 11639, Note_on_c, 0, 50, 0
2, 11640, Note_on_c, 0, 58, 90
2, 11669, Note_on_c, 0, 58, 0
2, 11670, Note_on_c, 0, 57, 90
2, 11699, Note_on_c, 0, 57, 0
2, 11700, Note_on_c, 0, 55, 90
2, 11729, Note_on_c, 0, 55, 0
2, 11730, Note_on_c, 0, 53, 90
2, 11759, Note_on_c, 0, 53, 0
2, 11760, Note_on_c, 0, 52, 90
2, 11849, Note_on_c, 0, 52, 0
2, 11850, Note_on_c, 0, 50, 90
2, 11879, Note_on_c, 0, 50, 0
2, 11880, Note_on_c, 0, 50, 90
2, 11999, Note_on_c, 0, 50, 0
2, 12060, Note_on_c, 0, 62, 90
2, 12089, Note_on_c, 0, 62, 0
2, 12090, Note_on_c, 0, 63, 90
2, 12119, Note_on_c, 0, 63, 0
2, 12120, Note_on_c, 0, 65, 90
2, 12149, Note_on_c, 0, 65, 0
2, 12150, Note_on_c, 0, 57, 90
2, 12179, Note_on_c, 0, 57, 0
2, 12180, Note_on_c, 0, 58, 90
2, 12269, Note_on_c, 0, 58, 0
2, 12270, Note_on_c, 0, 65, 90
2, 12299, Note_on_c, 0, 65, 0
2, 12300, Note_on_c, 0, 62, 90
2, 12329, Note_on_c, 0, 62, 0
2, 12330, Note_on_c, 0, 58, 90
2, 12359, Note_on_c, 0, 58, 0
2, 12360, Note_on_c, 0, 67, 90
2, 12389, Note_on_c, 0, 67, 0
2, 12390, Note_on_c, 0, 57, 90
2, 12419, Note_on_c, 0, 57, 0
2, 12420, Note_on_c, 0, 58, 90
2, 12509, Note_on_c, 0, 58, 0
2, 12510, Note_on_c, 0, 67, 90
2, 12539, Note_on_c, 0, 67, 0
2, 12540, Note_on_c, 0, 63, 90
2, 12569, Note_on_c, 0, 63, 0
2, 12570, Note_on_c, 0, 60, 90
2, 12599, Note_on_c, 0, 60, 0
2, 12600, Note_on_c, 0, 65, 90
2, 12629, Note_on_c, 0, 65, 0
2, 12630, Note_on_c, 0, 57, 90
2, 12659, Note_on_c, 0, 57, 0
2, 12660, Note_on_c, 0, 58, 90
2, 12689, Note_on_c, 0, 58, 0
2, 12690, Note_on_c, 0, 62, 90
2, 12719, Note_on_c, 0, 62, 0
2, 12720, Note_on_c, 0, 67, 90
2, 12749, Note_on_c, 0, 67, 0
2, 12750, Note_on_c, 0, 57, 90
2, 12779, Note_on_c, 0, 57, 0
2, 12780, Note_on_c, 0, 58, 90
2, 12809, Note_on_c, 0, 58, 0
2, 12810, Note_on_c, 0, 67, 90
2, 12839, Note_on_c, 0, 67, 0
2, 12840, Note_on_c, 0, 65, 90
2, 12899, Note_on_c, 0, 65, 0
2, 12900, Note_on_c, 0, 63, 90
2, 12929, Note_on_c, 0, 63, 0
2, 12930, Note_on_c, 0, 62, 90
2, 12959, Note_on_c, 0, 62, 0
2, 12960, Note_on_c, 0, 60, 90
2, 12989, Note_on_c, 0, 60, 0
2, 12990, Note_on_c, 0, 62, 90
2, 13019, Note_on_c, 0, 62, 0
2, 13020, Note_on_c, 0, 60, 90
2, 13049, Note_on_c, 0, 60, 0
2, 13050, Note_on_c, 0, 58, 90
2, 13079, Note_on_c, 0, 58, 0
2, 13080, Note_on_c, 0, 57, 90
2, 13139, Note_on_c, 0, 57, 0
2, 13140, Note_on_c, 0, 60, 90
2, 13169, Note_on_c, 0, 60, 0
2, 13170, Note_on_c, 0, 52, 90
2, 13199, Note_on_c, 0, 52, 0
2, 13200, Note_on_c, 0, 53, 90
2, 13379, Note_on_c, 0, 53, 0
2, 13380, Note_on_c, 0, 62, 90
2, 13409, Note_on_c, 0, 62, 0
2, 13410, Note_on_c, 0, 52, 90
2, 13439, Note_on_c, 0, 52, 0
2, 13440, Note_on_c, 0, 53, 90
2, 13619, Note_on_c, 0, 53, 0
2, 13620, Note_on_c, 0, 60, 90
2, 13649, Note_on_c, 0, 60, 0
2, 13650, Note_on_c, 0, 52, 90
2, 13679, Note_on_c, 0, 52, 0
2, 13680, Note_on_c, 0, 53, 90
2, 13739, Note_on_c, 0, 53, 0
2, 13740, Note_on_c, 0, 62, 90
2, 13769, Note_on_c, 0, 62, 0
2, 13770, Note_on_c, 0, 52, 90
2, 13799, Note_on_c, 0, 52, 0
2, 13800, Note_on_c, 0, 53, 90
2, 13859, Note_on_c, 0, 53, 0
2, 13860, Note_on_c, 0, 65, 90
2, 13979, Note_on_c, 0, 65, 0
2, 13980, Note_on_c, 0, 64, 90
2, 14039, Note_on_c, 0, 64, 0
2, 14040, Note_on_c, 0, 65, 90
2, 14069, Note_on_c, 0, 65, 0
2, 14070, Note_on_c, 0, 65, 90
2, 14084, Note_on_c, 0, 65, 0
2, 14085, Note_on_c, 0, 67, 90
2, 14099, Note_on_c, 0, 67, 0
2, 14100, Note_on_c, 0, 69, 90
2, 14129, Note_on_c, 0, 69, 0
2, 14130, Note_on_c, 0, 65, 90
2, 14144, Note_on_c, 0, 65, 0
2, 14145, Note_on_c, 0, 67, 90
2, 14159, Note_on_c, 0, 67, 0
2, 14160, Note_on_c, 0, 69, 90
2, 14189, Note_on_c, 0, 69, 0
2, 14190, Note_on_c, 0, 65, 90
2, 14219, Note_on_c, 0, 65, 0
2, 14220, Note_on_c, 0, 62, 90
2, 14249, Note_on_c, 0, 62, 0
2, 14250, Note_on_c, 0, 65, 90
2, 14279, Note_on_c, 0, 65, 0
2, 14280, Note_on_c, 0, 58, 90
2, 14309, Note_on_c, 0, 58, 0
2, 14310, Note_on_c, 0, 64, 90
2, 14324, Note_on_c, 0, 64, 0
2, 14325, Note_on_c, 0, 65, 90
2, 14339, Note_on_c, 0, 65, 0
2, 14340, Note_on_c, 0, 67, 90
2, 14369, Note_on_c, 0, 67, 0
2, 14370, Note_on_c, 0, 64, 90
2, 14384, Note_on_c, 0, 64, 0
2, 14385, Note_on_c, 0, 65, 90
2, 14399, Note_on_c, 0, 65, 0
2, 14400, Note_on_c, 0, 67, 90
2, 14429, Note_on_c, 0, 67, 0
2, 14430, Note_on_c, 0, 64, 90
2, 14459, Note_on_c, 0, 64, 0
2, 14460, Note_on_c, 0, 61, 90
2, 14489, Note_on_c, 0, 61, 0
2, 14490, Note_on_c, 0, 64, 90
2, 14519, Note_on_c, 0, 64, 0
2, 14520, Note_on_c, 0, 57, 90
2, 14549, Note_on_c, 0, 57, 0
2, 14550, Note_on_c, 0, 62, 90
2, 14564, Note_on_c, 0, 62, 0
2, 14565, Note_on_c, 0, 64, 90
2, 14579, Note_on_c, 0, 64, 0
2, 14580, Note_on_c, 0, 65, 90
2, 14609, Note_on_c, 0, 65, 0
2, 14610, Note_on_c, 0, 62, 90
2, 14624, Note_on_c, 0, 62, 0
2, 14625, Note_on_c, 0, 64, 90
2, 14639, Note_on_c, 0, 64, 0
2, 14640, Note_on_c, 0, 65, 90
2, 14669, Note_on_c, 0, 65, 0
2, 14670, Note_on_c, 0, 62, 90
2, 14699, Note_on_c, 0, 62, 0
2, 14700, Note_on_c, 0, 58, 90
2, 14729, Note_on_c, 0, 58, 0
2, 14730, Note_on_c, 0, 62, 90
2, 14759, Note_on_c, 0, 62, 0
2, 14760, Note_on_c, 0, 55, 90
2, 14789, Note_on_c, 0, 55, 0
2, 14790, Note_on_c, 0, 61, 90
2, 14804, Note_on_c, 0, 61, 0
2, 14805, Note_on_c, 0, 62, 90
2, 14819, Note_on_c, 0, 62, 0
2, 14820, Note_on_c, 0, 64, 90
2, 14849, Note_on_c, 0, 64, 0
2, 14850, Note_on_c, 0, 61, 90
2, 14864, Note_on_c, 0, 61, 0
2, 14865, Note_on_c, 0, 62, 90
2, 14879, Note_on_c, 0, 62, 0
2, 14880, Note_on_c, 0, 64, 90
2, 14909, Note_on_c, 0, 64, 0
2, 14910, Note_on_c, 0, 61, 90
2, 14939, Note_on_c, 0, 61, 0
2, 14940, Note_on_c, 0, 57, 90
2, 14969, Note_on_c, 0, 57, 0
2, 14970, Note_on_c, 0, 61, 90
2, 14999, Note_on_c, 0, 61, 0
2, 15000, Note_on_c, 0, 53, 90
2, 15059, Note_on_c, 0, 53, 0
2, 15060, Note_on_c, 0, 57, 90
2, 15119, Note_on_c, 0, 57, 0
2, 15120, Note_on_c, 0, 62, 90
2, 15269, Note_on_c, 0, 62, 0
2, 15270, Note_on_c, 0, 64, 90
2, 15284, Note_on_c, 0, 64, 0
2, 15285, Note_on_c, 0, 62, 90
2, 15299, Note_on_c, 0, 62, 0
2, 15300, Note_on_c, 0, 61, 90
2, 15329, Note_on_c, 0, 61, 0
2, 15330, Note_on_c, 0, 62, 90
2, 15359, Note_on_c, 0, 62, 0
2, 15360, Note_on_c, 0, 64, 90
2, 15509, Note_on_c, 0, 64, 0
2, 15510, Note_on_c, 0, 65, 90
2, 15524, Note_on_c, 0, 65, 0
2, 15525, Note_on_c, 0, 64, 90
2, 15539, Note_on_c, 0, 64, 0
2, 15540, Note_on_c, 0, 62, 90
2, 15569, Note_on_c, 0, 62, 0
2, 15570, Note_on_c, 0, 64, 90
2, 15599, Note_on_c, 0, 64, 0
2, 15600, Note_on_c, 0, 65, 90
2, 15749, Note_on_c, 0, 65, 0
2, 15750, Note_on_c, 0, 67, 90
2, 15764, Note_on_c, 0, 67, 0
2, 15765, Note_on_c, 0, 65, 90
2, 15779, Note_on_c, 0, 65, 0
2, 15780, Note_on_c, 0, 64, 90
2, 15809, Note_on_c, 0, 64, 0
2, 15810, Note_on_c, 0, 65, 90
2, 15839, Note_on_c, 0, 65, 0
2, 15840, Note_on_c, 0, 67, 90
2, 15989, Note_on_c, 0, 67, 0
2, 15990, Note_on_c, 0, 64, 90
2, 16004, Note_on_c, 0, 64, 0
2, 16005, Note_on_c, 0, 65, 90
2, 16019, Note_on_c, 0, 65, 0
2, 16020, Note_on_c, 0, 67, 90
2, 16049, Note_on_c, 0, 67, 0
2, 16050, Note_on_c, 0, 64, 90
2, 16064, Note_on_c, 0, 64, 0
2, 16065, Note_on_c, 0, 65, 90
2, 16079, Note_on_c, 0, 65, 0
2, 16080, Note_on_c, 0, 67, 90
2, 16109, Note_on_c, 0, 67, 0
2, 16110, Note_on_c, 0, 64, 90
2, 16139, Note_on_c, 0, 64, 0
2, 16140, Note_on_c, 0, 69, 90
2, 16289, Note_on_c, 0, 69, 0
2, 16290, Note_on_c, 0, 70, 90
2, 16319, Note_on_c, 0, 70, 0
2, 16320, Note_on_c, 0, 65, 90
2, 16335, Note_on_c, 0, 65, 0
2, 16335, Note_on_c, 0, 64, 90
2, 16350, Note_on_c, 0, 64, 0
2, 16350, Note_on_c, 0, 65, 90
2, 16365, Note_on_c, 0, 65, 0
2, 16365, Note_on_c, 0, 64, 90
2, 16380, Note_on_c, 0, 64, 0
2, 16380, Note_on_c, 0, 65, 90
2, 16395, Note_on_c, 0, 65, 0
2, 16395, Note_on_c, 0, 64, 90
2, 16410, Note_on_c, 0, 64, 0
2, 16410, Note_on_c, 0, 62, 90
2, 16439, Note_on_c, 0, 62, 0
2, 16440, Note_on_c, 0, 62, 90
2, 16499, Note_on_c, 0, 62, 0
2, 16500, Note_on_c, 0, 62, 90
2, 16529, Note_on_c, 0, 62, 0
2, 16530, Note_on_c, 0, 61, 90
2, 16559, Note_on_c, 0, 61, 0
2, 16560, Note_on_c, 0, 62, 90
2, 16619, Note_on_c, 0, 62, 0
2, 16620, Note_on_c, 0, 57, 90
2, 16649, Note_on_c, 0, 57, 0
2, 16650, Note_on_c, 0, 55, 90
2, 16679, Note_on_c, 0, 55, 0
2, 16680, Note_on_c, 0, 57, 90
2, 16739, Note_on_c, 0, 57, 0
2, 16740, Note_on_c, 0, 53, 90
2, 16769, Note_on_c, 0, 53, 0
2, 16770, Note_on_c, 0, 52, 90
2, 16799, Note_on_c, 0, 52, 0
2, 16800, Note_on_c, 0, 53, 90
2, 16859, Note_on_c, 0, 53, 0
2, 16860, Note_on_c, 0, 50, 90
2, 16889, Note_on_c, 0, 50, 0
2, 16890, Note_on_c, 0, 49, 90
2, 16919, Note_on_c, 0, 49, 0
2, 16920, Note_on_c, 0, 50, 90
2, 16979, Note_on_c, 0, 50, 0
2, 16980, Note_on_c, 0, 53, 90
2, 17039, Note_on_c, 0, 53, 0
2, 17040, Note_on_c, 0, 57, 90
2, 17099, Note_on_c, 0, 57, 0
2, 17100, Note_on_c, 0, 62, 90
2, 17159, Note_on_c, 0, 62, 0
2, 17160, Note_on_c, 0, 64, 90
2, 17189, Note_on_c, 0, 64, 0
2, 17190, Note_on_c, 0, 62, 90
2, 17219, Note_on_c, 0, 62, 0
2, 17220, Note_on_c, 0, 61, 90
2, 17249, Note_on_c, 0, 61, 0
2, 17250, Note_on_c, 0, 59, 90
2, 17279, Note_on_c, 0, 59, 0
2, 17280, Note_on_c, 0, 57, 90
2, 17339, Note_on_c, 0, 57, 0
2, 17340, Note_on_c, 0, 63, 90
2, 17369, Note_on_c, 0, 63, 0
2, 17370, Note_on_c, 0, 62, 90
2, 17399, Note_on_c, 0, 62, 0
2, 17400, Note_on_c, 0, 63, 90
2, 17459, Note_on_c, 0, 63, 0
2, 17460, Note_on_c, 0, 60, 90
2, 17489, Note_on_c, 0, 60, 0
2, 17490, Note_on_c, 0, 58, 90
2, 17519, Note_on_c, 0, 58, 0
2, 17520, Note_on_c, 0, 60, 90
2, 17579, Note_on_c, 0, 60, 0
2, 17580, Note_on_c, 0, 57, 90
2, 17609, Note_on_c, 0, 57, 0
2, 17610, Note_on_c, 0, 55, 90
2, 17639, Note_on_c, 0, 55, 0
2, 17640, Note_on_c, 0, 57, 90
2, 17699, Note_on_c, 0, 57, 0
2, 17700, Note_on_c, 0, 54, 90
2, 17729, Note_on_c, 0, 54, 0
2, 17730, Note_on_c, 0, 52, 90
2, 17759, Note_on_c, 0, 52, 0
2, 17760, Note_on_c, 0, 54, 90
2, 17819, Note_on_c, 0, 54, 0
2, 17820, Note_on_c, 0, 50, 90
2, 17849, Note_on_c, 0, 50, 0
2, 17850, Note_on_c, 0, 48, 90
2, 17879, Note_on_c, 0, 48, 0
2, 17880, Note_on_c, 0, 50, 90
2, 17939, Note_on_c, 0, 50, 0
2, 17940, Note_on_c, 0, 54, 90
2, 17999, Note_on_c, 0, 54, 0
2, 18000, Note_on_c, 0, 57, 90
2, 18059, Note_on_c, 0, 57, 0
2, 18060, Note_on_c, 0, 62, 90
2, 18119, Note_on_c, 0, 62, 0
2, 18120, Note_on_c, 0, 62, 90
2, 18149, Note_on_c, 0, 62, 0
2, 18150, Note_on_c, 0, 60, 90
2, 18179, Note_on_c, 0, 60, 0
2, 18180, Note_on_c, 0, 58, 90
2, 18209, Note_on_c, 0, 58, 0
2, 18210, Note_on_c, 0, 60, 90
2, 18239, Note_on_c, 0, 60, 0
2, 18240, Note_on_c, 0, 55, 90
2, 18299, Note_on_c, 0, 55, 0
2, 18300, Note_on_c, 0, 74, 90
2, 18359, Note_on_c, 0, 74, 0
2, 18360, Note_on_c, 0, 74, 90
2, 18900, Note_on_c, 0, 74, 0
2, 18900, Note_on_c, 0, 67, 90
2, 18929, Note_on_c, 0, 67, 0
2, 18930, Note_on_c, 0, 69, 90
2, 18959, Note_on_c, 0, 69, 0
2, 18960, Note_on_c, 0, 71, 90
2, 18989, Note_on_c, 0, 71, 0
2, 18990, Note_on_c, 0, 72, 90
2, 19019, Note_on_c, 0, 72, 0
2, 19020, Note_on_c, 0, 74, 90
2, 19049, Note_on_c, 0, 74, 0
2, 19050, Note_on_c, 0, 71, 90
2, 19079, Note_on_c, 0, 71, 0
2, 19080, Note_on_c, 0, 72, 90
2, 19199, Note_on_c, 0, 72, 0
2, 19230, Note_on_c, 0, 60, 90
2, 19259, Note_on_c, 0, 60, 0
2, 19260, Note_on_c, 0, 63, 90
2, 19289, Note_on_c, 0, 63, 0
2, 19290, Note_on_c, 0, 67, 90
2, 19319, Note_on_c, 0, 67, 0
2, 19320, Note_on_c, 0, 68, 90
2, 19349, Note_on_c, 0, 68, 0
2, 19350, Note_on_c, 0, 70, 90
2, 19379, Note_on_c, 0, 70, 0
2, 19380, Note_on_c, 0, 68, 90
2, 19409, Note_on_c, 0, 68, 0
2, 19410, Note_on_c, 0, 67, 90
2, 19439, Note_on_c, 0, 67, 0
2, 19440, Note_on_c, 0, 65, 90
2, 19469, Note_on_c, 0, 65, 0
2, 19470, Note_on_c, 0, 63, 90
2, 19499, Note_on_c, 0, 63, 0
2, 19500, Note_on_c, 0, 62, 90
2, 19529, Note_on_c, 0, 62, 0
2, 19530, Note_on_c, 0, 60, 90
2, 19559, Note_on_c, 0, 60, 0
2, 19560, Note_on_c, 0, 58, 90
2, 19619, Note_on_c, 0, 58, 0
2, 19620, Note_on_c, 0, 62, 90
2, 19679, Note_on_c, 0, 62, 0
2, 19680, Note_on_c, 0, 65, 90
2, 19739, Note_on_c, 0, 65, 0
2, 19740, Note_on_c, 0, 68, 90
2, 19799, Note_on_c, 0, 68, 0
2, 19800, Note_on_c, 0, 67, 90
2, 19829, Note_on_c, 0, 67, 0
2, 19830, Note_on_c, 0, 68, 90
2, 19859, Note_on_c, 0, 68, 0
2, 19860, Note_on_c, 0, 67, 90
2, 19889, Note_on_c, 0, 67, 0
2, 19890, Note_on_c, 0, 65, 90
2, 19919, Note_on_c, 0, 65, 0
2, 19920, Note_on_c, 0, 63, 90
2, 19949, Note_on_c, 0, 63, 0
2, 19950, Note_on_c, 0, 62, 90
2, 19979, Note_on_c, 0, 62, 0
2, 19980, Note_on_c, 0, 60, 90
2, 20009, Note_on_c, 0, 60, 0
2, 20010, Note_on_c, 0, 58, 90
2, 20039, Note_on_c, 0, 58, 0
2, 20040, Note_on_c, 0, 56, 90
2, 20099, Note_on_c, 0, 56, 0
2, 20100, Note_on_c, 0, 60, 90
2, 20159, Note_on_c, 0, 60, 0
2, 20160, Note_on_c, 0, 63, 90
2, 20219, Note_on_c, 0, 63, 0
2, 20220, Note_on_c, 0, 67, 90
2, 20279, Note_on_c, 0, 67, 0
2, 20280, Note_on_c, 0, 65, 90
2, 20309, Note_on_c, 0, 65, 0
2, 20310, Note_on_c, 0, 67, 90
2, 20339, Note_on_c, 0, 67, 0
2, 20340, Note_on_c, 0, 65, 90
2, 20369, Note_on_c, 0, 65, 0
2, 20370, Note_on_c, 0, 63, 90
2, 20399, Note_on_c, 0, 63, 0
2, 20400, Note_on_c, 0, 62, 90
2, 20429, Note_on_c, 0, 62, 0
2, 20430, Note_on_c, 0, 60, 90
2, 20459, Note_on_c, 0, 60, 0
2, 20460, Note_on_c, 0, 59, 90
2, 20489, Note_on_c, 0, 59, 0
2, 20490, Note_on_c, 0, 57, 90
2, 20519, Note_on_c, 0, 57, 0
2, 20520, Note_on_c, 0, 55, 90
2, 20579, Note_on_c, 0, 55, 0
2, 20580, Note_on_c, 0, 59, 90
2, 20639, Note_on_c, 0, 59, 0
2, 20640, Note_on_c, 0, 62, 90
2, 20699, Note_on_c, 0, 62, 0
2, 20700, Note_on_c, 0, 67, 90
2, 20759, Note_on_c, 0, 67, 0
2, 20760, Note_on_c, 0, 67, 90
2, 21270, Note_on_c, 0, 67, 0
2, 21270, Note_on_c, 0, 65, 90
2, 21299, Note_on_c, 0, 65, 0
2, 21300, Note_on_c, 0, 67, 90
2, 21329, Note_on_c, 0, 67, 0
2, 21330, Note_on_c, 0, 62, 90
2, 21359, Note_on_c, 0, 62, 0
2, 21360, Note_on_c, 0, 63, 90
2, 21389, Note_on_c, 0, 63, 0
2, 21390, Note_on_c, 0, 62, 90
2, 21419, Note_on_c, 0, 62, 0
2, 21420, Note_on_c, 0, 63, 90
2, 21449, Note_on_c, 0, 63, 0
2, 21450, Note_on_c, 0, 60, 90
2, 21479, Note_on_c, 0, 60, 0
2, 21480, Note_on_c, 0, 59, 90
2, 21509, Note_on_c, 0, 59, 0
2, 21510, Note_on_c, 0, 60, 90
2, 21539, Note_on_c, 0, 60, 0
2, 21540, Note_on_c, 0, 60, 90
2, 21549, Note_on_c, 0, 60, 0
2, 21550, Note_on_c, 0, 62, 90
2, 21559, Note_on_c, 0, 62, 0
2, 21560, Note_on_c, 0, 60, 90
2, 21569, Note_on_c, 0, 60, 0
2, 21570, Note_on_c, 0, 59, 90
2, 21584, Note_on_c, 0, 59, 0
2, 21585, Note_on_c, 0, 60, 90
2, 21599, Note_on_c, 0, 60, 0
2, 21600, Note_on_c, 0, 62, 90
2, 21629, Note_on_c, 0, 62, 0
2, 21630, Note_on_c, 0, 60, 90
2, 21659, Note_on_c, 0, 60, 0
2, 21660, Note_on_c, 0, 59, 90
2, 21689, Note_on_c, 0, 59, 0
2, 21690, Note_on_c, 0, 57, 90
2, 21719, Note_on_c, 0, 57, 0
2, 21720, Note_on_c, 0, 55, 90
2, 21779, Note_on_c, 0, 55, 0
2, 21780, Note_on_c, 0, 60, 90
2, 21809, Note_on_c, 0, 60, 0
2, 21810, Note_on_c, 0, 59, 90
2, 21839, Note_on_c, 0, 59, 0
2, 21840, Note_on_c, 0, 60, 90
2, 21899, Note_on_c, 0, 60, 0
2, 21900, Note_on_c, 0, 55, 90
2, 21929, Note_on_c, 0, 55, 0
2, 21930, Note_on_c, 0, 53, 90
2, 21959, Note_on_c, 0, 53, 0
2, 21960, Note_on_c, 0, 55, 90
2, 22019, Note_on_c, 0, 55, 0
2, 22020, Note_on_c, 0, 51, 90
2, 22049, Note_on_c, 0, 51, 0
2, 22050, Note_on_c, 0, 50, 90
2, 22079, Note_on_c, 0, 50, 0
2, 22080, Note_on_c, 0, 51, 90
2, 22139, Note_on_c, 0, 51, 0
2, 22140, Note_on_c, 0, 48, 90
2, 22169, Note_on_c, 0, 48, 0
2, 22170, Note_on_c, 0, 47, 90
2, 22199, Note_on_c, 0, 47, 0
2, 22200, Note_on_c, 0, 48, 90
2, 22259, Note_on_c, 0, 48, 0
2, 22260, Note_on_c, 0, 51, 90
2, 22319, Note_on_c, 0, 51, 0
2, 22320, Note_on_c, 0, 55, 90
2, 22379, Note_on_c, 0, 55, 0
2, 22380, Note_on_c, 0, 60, 90
2, 22439, Note_on_c, 0, 60, 0
2, 22440, Note_on_c, 0, 62, 90
2, 22469, Note_on_c, 0, 62, 0
2, 22470, Note_on_c, 0, 60, 90
2, 22499, Note_on_c, 0, 60, 0
2, 22500, Note_on_c, 0, 59, 90
2, 22529, Note_on_c, 0, 59, 0
2, 22530, Note_on_c, 0, 57, 90
2, 22559, Note_on_c, 0, 57, 0
2, 22560, Note_on_c, 0, 55, 90
2, 22589, Note_on_c, 0, 55, 0
2, 22590, Note_on_c, 0, 62, 90
2, 22619, Note_on_c, 0, 62, 0
2, 22620, Note_on_c, 0, 63, 90
2, 22649, Note_on_c, 0, 63, 0
2, 22650, Note_on_c, 0, 65, 90
2, 22679, Note_on_c, 0, 65, 0
2, 22680, Note_on_c, 0, 67, 90
2, 22919, Note_on_c, 0, 67, 0
2, 22950, Note_on_c, 0, 60, 90
2, 22979, Note_on_c, 0, 60, 0
2, 22980, Note_on_c, 0, 59, 90
2, 23009, Note_on_c, 0, 59, 0
2, 23010, Note_on_c, 0, 60, 90
2, 23039, Note_on_c, 0, 60, 0
2, 23040, Note_on_c, 0, 65, 90
2, 23189, Note_on_c, 0, 65, 0
2, 23190, Note_on_c, 0, 59, 90
2, 23219, Note_on_c, 0, 59, 0
2, 23220, Note_on_c, 0, 57, 90
2, 23249, Note_on_c, 0, 57, 0
2, 23250, Note_on_c, 0, 59, 90
2, 23279, Note_on_c, 0, 59, 0
2, 23280, Note_on_c, 0, 63, 90
2, 23429, Note_on_c, 0, 63, 0
2, 23430, Note_on_c, 0, 56, 90
2, 23459, Note_on_c, 0, 56, 0
2, 23460, Note_on_c, 0, 55, 90
2, 23489, Note_on_c, 0, 55, 0
2, 23490, Note_on_c, 0, 53, 90
2, 23519, Note_on_c, 0, 53, 0
2, 23520, Note_on_c, 0, 62, 90
2, 23669, Note_on_c, 0, 62, 0
2, 23670, Note_on_c, 0, 60, 90
2, 23684, Note_on_c, 0, 60, 0
2, 23685, Note_on_c, 0, 62, 90
2, 23699, Note_on_c, 0, 62, 0
2, 23700, Note_on_c, 0, 63, 90
2, 23729, Note_on_c, 0, 63, 0
2, 23730, Note_on_c, 0, 60, 90
2, 23744, Note_on_c, 0, 60, 0
2, 23745, Note_on_c, 0, 62, 90
2, 23759, Note_on_c, 0, 62, 0
2, 23760, Note_on_c, 0, 63, 90
2, 23789, Note_on_c, 0, 63, 0
2, 23790, Note_on_c, 0, 60, 90
2, 23819, Note_on_c, 0, 60, 0
2, 23820, Note_on_c, 0, 55, 90
2, 23849, Note_on_c, 0, 55, 0
2, 23850, Note_on_c, 0, 58, 90
2, 23879, Note_on_c, 0, 58, 0
2, 23880, Note_on_c, 0, 56, 90
2, 23909, Note_on_c, 0, 56, 0
2, 23910, Note_on_c, 0, 62, 90
2, 23924, Note_on_c, 0, 62, 0
2, 23925, Note_on_c, 0, 63, 90
2, 23939, Note_on_c, 0, 63, 0
2, 23940, Note_on_c, 0, 65, 90
2, 23969, Note_on_c, 0, 65, 0
2, 23970, Note_on_c, 0, 62, 90
2, 23984, Note_on_c, 0, 62, 0
2, 23985, Note_on_c, 0, 63, 90
2, 23999, Note_on_c, 0, 63, 0
2, 24000, Note_on_c, 0, 65, 90
2, 24029, Note_on_c, 0, 65, 0
2, 24030, Note_on_c, 0, 62, 90
2, 24059, Note_on_c, 0, 62, 0
2, 24060, Note_on_c, 0, 57, 90
2, 24089, Note_on_c, 0, 57, 0
2, 24090, Note_on_c, 0, 60, 90
2, 24119, Note_on_c, 0, 60, 0
2, 24120, Note_on_c, 0, 59, 90
2, 24149, Note_on_c, 0, 59, 0
2, 24150, Note_on_c, 0, 63, 90
2, 24164, Note_on_c, 0, 63, 0
2, 24165, Note_on_c, 0, 65, 90
2, 24179, Note_on_c, 0, 65, 0
2, 24180, Note_on_c, 0, 67, 90
2, 24209, Note_on_c, 0, 67, 0
2, 24210, Note_on_c, 0, 63, 90
2, 24224, Note_on_c, 0, 63, 0
2, 24225, Note_on_c, 0, 65, 90
2, 24239, Note_on_c, 0, 65, 0
2, 24240, Note_on_c, 0, 67, 90
2, 24269, Note_on_c, 0, 67, 0
2, 24270, Note_on_c, 0, 63, 90
2, 24299, Note_on_c, 0, 63, 0
2, 24300, Note_on_c, 0, 59, 90
2, 24329, Note_on_c, 0, 59, 0
2, 24330, Note_on_c, 0, 62, 90
2, 24359, Note_on_c, 0, 62, 0
2, 24360, Note_on_c, 0, 60, 90
2, 24389, Note_on_c, 0, 60, 0
2, 24390, Note_on_c, 0, 65, 90
2, 24404, Note_on_c, 0, 65, 0
2, 24405, Note_on_c, 0, 67, 90
2, 24419, Note_on_c, 0, 67, 0
2, 24420, Note_on_c, 0, 68, 90
2, 24449, Note_on_c, 0, 68, 0
2, 24450, Note_on_c, 0, 65, 90
2, 24464, Note_on_c, 0, 65, 0
2, 24465, Note_on_c, 0, 67, 90
2, 24479, Note_on_c, 0, 67, 0
2, 24480, Note_on_c, 0, 68, 90
2, 24509, Note_on_c, 0, 68, 0
2, 24510, Note_on_c, 0, 65, 90
2, 24539, Note_on_c, 0, 65, 0
2, 24540, Note_on_c, 0, 60, 90
2, 24569, Note_on_c, 0, 60, 0
2, 24570, Note_on_c, 0, 63, 90
2, 24599, Note_on_c, 0, 63, 0
2, 24600, Note_on_c, 0, 62, 90
2, 24629, Note_on_c, 0, 62, 0
2, 24630, Note_on_c, 0, 59, 90
2, 24644, Note_on_c, 0, 59, 0
2, 24645, Note_on_c, 0, 60, 90
2, 24659, Note_on_c, 0, 60, 0
2, 24660, Note_on_c, 0, 62, 90
2, 24689, Note_on_c, 0, 62, 0
2, 24690, Note_on_c, 0, 59, 90
2, 24704, Note_on_c, 0, 59, 0
2, 24705, Note_on_c, 0, 60, 90
2, 24719, Note_on_c, 0, 60, 0
2, 24720, Note_on_c, 0, 62, 90
2, 24749, Note_on_c, 0, 62, 0
2, 24750, Note_on_c, 0, 59, 90
2, 24779, Note_on_c, 0, 59, 0
2, 24780, Note_on_c, 0, 55, 90
2, 24809, Note_on_c, 0, 55, 0
2, 24810, Note_on_c, 0, 59, 90
2, 24839, Note_on_c, 0, 59, 0
2, 24840, Note_on_c, 0, 60, 90
2, 24869, Note_on_c, 0, 60, 0
2, 24870, Note_on_c, 0, 59, 90
2, 24899, Note_on_c, 0, 59, 0
2, 24900, Note_on_c, 0, 60, 90
2, 24929, Note_on_c, 0, 60, 0
2, 24930, Note_on_c, 0, 68, 90
2, 24959, Note_on_c, 0, 68, 0
2, 24960, Note_on_c, 0, 59, 90
2, 25049, Note_on_c, 0, 59, 0
2, 25050, Note_on_c, 0, 60, 90
2, 25079, Note_on_c, 0, 60, 0
2, 25080, Note_on_c, 0, 60, 90
2, 25139, Note_on_c, 0, 60, 0
2, 25140, Note_on_c, 0, 62, 90
2, 25154, Note_on_c, 0, 62, 0
2, 25155, Note_on_c, 0, 63, 90
2, 25169, Note_on_c, 0, 63, 0
2, 25170, Note_on_c, 0, 65, 90
2, 25199, Note_on_c, 0, 65, 0
2, 25200, Note_on_c, 0, 63, 90
2, 25259, Note_on_c, 0, 63, 0
2, 25260, Note_on_c, 0, 62, 90
2, 25274, Note_on_c, 0, 62, 0
2, 25275, Note_on_c, 0, 63, 90
2, 25289, Note_on_c, 0, 63, 0
2, 25290, Note_on_c, 0, 65, 90
2, 25319, Note_on_c, 0, 65, 0
2, 25320, Note_on_c, 0, 63, 90
2, 25379, Note_on_c, 0, 63, 0
2, 25380, Note_on_c, 0, 55, 90
2, 25409, Note_on_c, 0, 55, 0
2, 25410, Note_on_c, 0, 63, 90
2, 25439, Note_on_c, 0, 63, 0
2, 25440, Note_on_c, 0, 56, 90
2, 25469, Note_on_c, 0, 56, 0
2, 25470, Note_on_c, 0, 65, 90
2, 25499, Note_on_c, 0, 65, 0
2, 25500, Note_on_c, 0, 58, 90
2, 25529, Note_on_c, 0, 58, 0
2, 25530, Note_on_c, 0, 67, 90
2, 25559, Note_on_c, 0, 67, 0
2, 25560, Note_on_c, 0, 68, 90
2, 25619, Note_on_c, 0, 68, 0
2, 25620, Note_on_c, 0, 60, 90
2, 25634, Note_on_c, 0, 60, 0
2, 25635, Note_on_c, 0, 62, 90
2, 25649, Note_on_c, 0, 62, 0
2, 25650, Note_on_c, 0, 63, 90
2, 25679, Note_on_c, 0, 63, 0
2, 25680, Note_on_c, 0, 62, 90
2, 25739, Note_on_c, 0, 62, 0
2, 25740, Note_on_c, 0, 60, 90
2, 25754, Note_on_c, 0, 60, 0
2, 25755, Note_on_c, 0, 62, 90
2, 25769, Note_on_c, 0, 62, 0
2, 25770, Note_on_c, 0, 63, 90
2, 25799, Note_on_c, 0, 63, 0
2, 25800, Note_on_c, 0, 62, 90
2, 25859, Note_on_c, 0, 62, 0
2, 25860, Note_on_c, 0, 53, 90
2, 25889, Note_on_c, 0, 53, 0
2, 25890, Note_on_c, 0, 62, 90
2, 25919, Note_on_c, 0, 62, 0
2, 25920, Note_on_c, 0, 55, 90
2, 25949, Note_on_c, 0, 55, 0
2, 25950, Note_on_c, 0, 63, 90
2, 25979, Note_on_c, 0, 63, 0
2, 25980, Note_on_c, 0, 56, 90
2, 26009, Note_on_c, 0, 56, 0
2, 26010, Note_on_c, 0, 65, 90
2, 26039, Note_on_c, 0, 65, 0
2, 26040, Note_on_c, 0, 67, 90
2, 26099, Note_on_c, 0, 67, 0
2, 26100, Note_on_c, 0, 58, 90
2, 26114, Note_on_c, 0, 58, 0
2, 26115, Note_on_c, 0, 60, 90
2, 26129, Note_on_c, 0, 60, 0
2, 26130, Note_on_c, 0, 61, 90
2, 26159, Note_on_c, 0, 61, 0
2, 26160, Note_on_c, 0, 60, 90
2, 26219, Note_on_c, 0, 60, 0
2, 26220, Note_on_c, 0, 58, 90
2, 26234, Note_on_c, 0, 58, 0
2, 26235, Note_on_c, 0, 60, 90
2, 26249, Note_on_c, 0, 60, 0
2, 26250, Note_on_c, 0, 61, 90
2, 26279, Note_on_c, 0, 61, 0
2, 26280, Note_on_c, 0, 60, 90
2, 26339, Note_on_c, 0, 60, 0
2, 26340, Note_on_c, 0, 60, 90
2, 26369, Note_on_c, 0, 60, 0
2, 26370, Note_on_c, 0, 68, 90
2, 26399, Note_on_c, 0, 68, 0
2, 26400, Note_on_c, 0, 62, 90
2, 26429, Note_on_c, 0, 62, 0
2, 26430, Note_on_c, 0, 68, 90
2, 26459, Note_on_c, 0, 68, 0
2, 26460, Note_on_c, 0, 67, 90
2, 26489, Note_on_c, 0, 67, 0
2, 26490, Note_on_c, 0, 63, 90
2, 26519, Note_on_c, 0, 63, 0
2, 26520, Note_on_c, 0, 65, 90
2, 26549, Note_on_c, 0, 65, 0
2, 26550, Note_on_c, 0, 63, 90
2, 26579, Note_on_c, 0, 63, 0
2, 26580, Note_on_c, 0, 62, 90
2, 26609, Note_on_c, 0, 62, 0
2, 26610, Note_on_c, 0, 63, 90
2, 26639, Note_on_c, 0, 63, 0
2, 26640, Note_on_c, 0, 65, 90
2, 26789, Note_on_c, 0, 65, 0
2, 26790, Note_on_c, 0, 63, 90
2, 26819, Note_on_c, 0, 63, 0
2, 26820, Note_on_c, 0, 65, 90
2, 26849, Note_on_c, 0, 65, 0
2, 26850, Note_on_c, 0, 67, 90
2, 26879, Note_on_c, 0, 67, 0
2, 26880, Note_on_c, 0, 68, 90
2, 26909, Note_on_c, 0, 68, 0
2, 26910, Note_on_c, 0, 70, 90
2, 26939, Note_on_c, 0, 70, 0
2, 26940, Note_on_c, 0, 67, 90
2, 26969, Note_on_c, 0, 67, 0
2, 26970, Note_on_c, 0, 68, 90
2, 26999, Note_on_c, 0, 68, 0
2, 27000, Note_on_c, 0, 70, 90
2, 27029, Note_on_c, 0, 70, 0
2, 27030, Note_on_c, 0, 62, 90
2, 27059, Note_on_c, 0, 62, 0
2, 27060, Note_on_c, 0, 63, 90
2, 27149, Note_on_c, 0, 63, 0
2, 27150, Note_on_c, 0, 70, 90
2, 27179, Note_on_c, 0, 70, 0
2, 27180, Note_on_c, 0, 67, 90
2, 27209, Note_on_c, 0, 67, 0
2, 27210, Note_on_c, 0, 63, 90
2, 27239, Note_on_c, 0, 63, 0
2, 27240, Note_on_c, 0, 72, 90
2, 27270, Note_on_c, 0, 72, 0
2, 27270, Note_on_c, 0, 62, 90
2, 27299, Note_on_c, 0, 62, 0
2, 27300, Note_on_c, 0, 63, 90
2, 27389, Note_on_c, 0, 63, 0
2, 27390, Note_on_c, 0, 72, 90
2, 27419, Note_on_c, 0, 72, 0
2, 27420, Note_on_c, 0, 68, 90
2, 27449, Note_on_c, 0, 68, 0
2, 27450, Note_on_c, 0, 65, 90
2, 27479, Note_on_c, 0, 65, 0
2, 27480, Note_on_c, 0, 70, 90
2, 27509, Note_on_c, 0, 70, 0
2, 27510, Note_on_c, 0, 62, 90
2, 27539, Note_on_c, 0, 62, 0
2, 27540, Note_on_c, 0, 63, 90
2, 27569, Note_on_c, 0, 63, 0
2, 27570, Note_on_c, 0, 67, 90
2, 27599, Note_on_c, 0, 67, 0
2, 27600, Note_on_c, 0, 72, 90
2, 27629, Note_on_c, 0, 72, 0
2, 27630, Note_on_c, 0, 62, 90
2, 27659, Note_on_c, 0, 62, 0
2, 27660, Note_on_c, 0, 63, 90
2, 27689, Note_on_c, 0, 63, 0
2, 27690, Note_on_c, 0, 72, 90
2, 27719, Note_on_c, 0, 72, 0
2, 27720, Note_on_c, 0, 70, 90
2, 27780, Note_on_c, 0, 70, 0
2, 27780, Note_on_c, 0, 63, 90
2, 27840, Note_on_c, 0, 63, 0
2, 27840, Note_on_c, 0, 58, 90
2, 27900, Note_on_c, 0, 58, 0
2, 27900, Note_on_c, 0, 65, 90
2, 27959, Note_on_c, 0, 65, 0
2, 27960, Note_on_c, 0, 51, 90
2, 27989, Note_on_c, 0, 51, 0
2, 27990, Note_on_c, 0, 55, 90
2, 28019, Note_on_c, 0, 55, 0
2, 28020, Note_on_c, 0, 58, 90
2, 28049, Note_on_c, 0, 58, 0
2, 28050, Note_on_c, 0, 50, 90
2, 28079, Note_on_c, 0, 50, 0
2, 28080, Note_on_c, 0, 51, 90
2, 28109, Note_on_c, 0, 51, 0
2, 28110, Note_on_c, 0, 55, 90
2, 28139, Note_on_c, 0, 55, 0
2, 28140, Note_on_c, 0, 58, 90
2, 28169, Note_on_c, 0, 58, 0
2, 28170, Note_on_c, 0, 50, 90
2, 28199, Note_on_c, 0, 50, 0
2, 28200, Note_on_c, 0, 51, 90
2, 28229, Note_on_c, 0, 51, 0
2, 28230, Note_on_c, 0, 55, 90
2, 28259, Note_on_c, 0, 55, 0
2, 28260, Note_on_c, 0, 58, 90
2, 28289, Note_on_c, 0, 58, 0
2, 28290, Note_on_c, 0, 51, 90
2, 28319, Note_on_c, 0, 51, 0
2, 28320, Note_on_c, 0, 63, 90
2, 28469, Note_on_c, 0, 63, 0
2, 28470, Note_on_c, 0, 61, 90
2, 28499, Note_on_c, 0, 61, 0
2, 28500, Note_on_c, 0, 60, 90
2, 28529, Note_on_c, 0, 60, 0
2, 28530, Note_on_c, 0, 58, 90
2, 28559, Note_on_c, 0, 58, 0
2, 28560, Note_on_c, 0, 60, 90
2, 28589, Note_on_c, 0, 60, 0
2, 28590, Note_on_c, 0, 62, 90
2, 28619, Note_on_c, 0, 62, 0
2, 28620, Note_on_c, 0, 63, 90
2, 28709, Note_on_c, 0, 63, 0
2, 28710, Note_on_c, 0, 56, 90
2, 28739, Note_on_c, 0, 56, 0
2, 28740, Note_on_c, 0, 60, 90
2, 28769, Note_on_c, 0, 60, 0
2, 28770, Note_on_c, 0, 53, 90
2, 28799, Note_on_c, 0, 53, 0
2, 28800, Note_on_c, 0, 62, 90
2, 28949, Note_on_c, 0, 62, 0
2, 28950, Note_on_c, 0, 60, 90
2, 28979, Note_on_c, 0, 60, 0
2, 28980, Note_on_c, 0, 58, 90
2, 29009, Note_on_c, 0, 58, 0
2, 29010, Note_on_c, 0, 56, 90
2, 29039, Note_on_c, 0, 56, 0
2, 29040, Note_on_c, 0, 55, 90
2, 29069, Note_on_c, 0, 55, 0
2, 29070, Note_on_c, 0, 56, 90
2, 29099, Note_on_c, 0, 56, 0
2, 29100, Note_on_c, 0, 58, 90
2, 29189, Note_on_c, 0, 58, 0
2, 29190, Note_on_c, 0, 51, 90
2, 29219, Note_on_c, 0, 51, 0
2, 29220, Note_on_c, 0, 55, 90
2, 29249, Note_on_c, 0, 55, 0
2, 29250, Note_on_c, 0, 48, 90
2, 29279, Note_on_c, 0, 48, 0
2, 29280, Note_on_c, 0, 60, 90
2, 29429, Note_on_c, 0, 60, 0
2, 29430, Note_on_c, 0, 58, 90
2, 29459, Note_on_c, 0, 58, 0
2, 29460, Note_on_c, 0, 56, 90
2, 29489, Note_on_c, 0, 56, 0
2, 29490, Note_on_c, 0, 55, 90
2, 29519, Note_on_c, 0, 55, 0
2, 29520, Note_on_c, 0, 53, 90
2, 29549, Note_on_c, 0, 53, 0
2, 29550, Note_on_c, 0, 51, 90
2, 29579, Note_on_c, 0, 51, 0
2, 29580, Note_on_c, 0, 50, 90
2, 29609, Note_on_c, 0, 50, 0
2, 29610, Note_on_c, 0, 48, 90
2, 29639, Note_on_c, 0, 48, 0
2, 29640, Note_on_c, 0, 50, 90
2, 29669, Note_on_c, 0, 50, 0
2, 29670, Note_on_c, 0, 58, 90
2, 29699, Note_on_c, 0, 58, 0
2, 29700, Note_on_c, 0, 51, 90
2, 29729, Note_on_c, 0, 51, 0
2, 29730, Note_on_c, 0, 58, 90
2, 29759, Note_on_c, 0, 58, 0
2, 29760, Note_on_c, 0, 53, 90
2, 29789, Note_on_c, 0, 53, 0
2, 29790, Note_on_c, 0, 58, 90
2, 29819, Note_on_c, 0, 58, 0
2, 29820, Note_on_c, 0, 50, 90
2, 29849, Note_on_c, 0, 50, 0
2, 29850, Note_on_c, 0, 58, 90
2, 29879, Note_on_c, 0, 58, 0
2, 29880, Note_on_c, 0, 51, 90
2, 29909, Note_on_c, 0, 51, 0
2, 29910, Note_on_c, 0, 58, 90
2, 29939, Note_on_c, 0, 58, 0
2, 29940, Note_on_c, 0, 53, 90
2, 29969, Note_on_c, 0, 53, 0
2, 29970, Note_on_c, 0, 58, 90
2, 29999, Note_on_c, 0, 58, 0
2, 30000, Note_on_c, 0, 55, 90
2, 30029, Note_on_c, 0, 55, 0
2, 30030, Note_on_c, 0, 58, 90
2, 30059, Note_on_c, 0, 58, 0
2, 30060, Note_on_c, 0, 51, 90
2, 30089, Note_on_c, 0, 51, 0
2, 30090, Note_on_c, 0, 58, 90
2, 30119, Note_on_c, 0, 58, 0
2, 30120, Note_on_c, 0, 53, 90
2, 30149, Note_on_c, 0, 53, 0
2, 30150, Note_on_c, 0, 58, 90
2, 30179, Note_on_c, 0, 58, 0
2, 30180, Note_on_c, 0, 55, 90
2, 30209, Note_on_c, 0, 55, 0
2, 30210, Note_on_c, 0, 58, 90
2, 30239, Note_on_c, 0, 58, 0
2, 30240, Note_on_c, 0, 56, 90
2, 30269, Note_on_c, 0, 56, 0
2, 30270, Note_on_c, 0, 58, 90
2, 30299, Note_on_c, 0, 58, 0
2, 30300, Note_on_c, 0, 53, 90
2, 30329, Note_on_c, 0, 53, 0
2, 30330, Note_on_c, 0, 56, 90
2, 30359, Note_on_c, 0, 56, 0
2, 30360, Note_on_c, 0, 55, 90
2, 30419, Note_on_c, 0, 55, 0
2, 30420, Note_on_c, 0, 70, 90
2, 30479, Note_on_c, 0, 70, 0
2, 30480, Note_on_c, 0, 70, 90
2, 30870, Note_on_c, 0, 70, 0
2, 30870, Note_on_c, 0, 68, 90
2, 30899, Note_on_c, 0, 68, 0
2, 30900, Note_on_c, 0, 70, 90
2, 30929, Note_on_c, 0, 70, 0
2, 30930, Note_on_c, 0, 65, 90
2, 30959, Note_on_c, 0, 65, 0
2, 30960, Note_on_c, 0, 67, 90
2, 30989, Note_on_c, 0, 67, 0
2, 30990, Note_on_c, 0, 65, 90
2, 31019, Note_on_c, 0, 65, 0
2, 31020, Note_on_c, 0, 67, 90
2, 31049, Note_on_c, 0, 67, 0
2, 31050, Note_on_c, 0, 63, 90
2, 31079, Note_on_c, 0, 63, 0
2, 31080, Note_on_c, 0, 62, 90
2, 31109, Note_on_c, 0, 62, 0
2, 31110, Note_on_c, 0, 63, 90
2, 31139, Note_on_c, 0, 63, 0
2, 31140, Note_on_c, 0, 63, 90
2, 31149, Note_on_c, 0, 63, 0
2, 31150, Note_on_c, 0, 65, 90
2, 31159, Note_on_c, 0, 65, 0
2, 31160, Note_on_c, 0, 63, 90
2, 31169, Note_on_c, 0, 63, 0
2, 31170, Note_on_c, 0, 62, 90
2, 31184, Note_on_c, 0, 62, 0
2, 31185, Note_on_c, 0, 63, 90
2, 31199, Note_on_c, 0, 63, 0
2, 31200, Note_on_c, 0, 65, 90
2, 31229, Note_on_c, 0, 65, 0
2, 31230, Note_on_c, 0, 67, 90
2, 31244, Note_on_c, 0, 67, 0
2, 31245, Note_on_c, 0, 65, 90
2, 31259, Note_on_c, 0, 65, 0
2, 31260, Note_on_c, 0, 64, 90
2, 31289, Note_on_c, 0, 64, 0
2, 31290, Note_on_c, 0, 65, 90
2, 31319, Note_on_c, 0, 65, 0
2, 31320, Note_on_c, 0, 67, 90
2, 31860, Note_on_c, 0, 67, 0
2, 31860, Note_on_c, 0, 60, 90
2, 31889, Note_on_c, 0, 60, 0
2, 31890, Note_on_c, 0, 62, 90
2, 31919, Note_on_c, 0, 62, 0
2, 31920, Note_on_c, 0, 64, 90
2, 31949, Note_on_c, 0, 64, 0
2, 31950, Note_on_c, 0, 65, 90
2, 31979, Note_on_c, 0, 65, 0
2, 31980, Note_on_c, 0, 67, 90
2, 32009, Note_on_c, 0, 67, 0
2, 32010, Note_on_c, 0, 65, 90
2, 32039, Note_on_c, 0, 65, 0
2, 32040, Note_on_c, 0, 65, 90
2, 32069, Note_on_c, 0, 65, 0
2, 32070, Note_on_c, 0, 67, 90
2, 32159, Note_on_c, 0, 67, 0
2, 32220, Note_on_c, 0, 68, 90
2, 32249, Note_on_c, 0, 68, 0
2, 32250, Note_on_c, 0, 67, 90
2, 32279, Note_on_c, 0, 67, 0
2, 32280, Note_on_c, 0, 68, 90
2, 32339, Note_on_c, 0, 68, 0
2, 32340, Note_on_c, 0, 65, 90
2, 32369, Note_on_c, 0, 65, 0
2, 32370, Note_on_c, 0, 63, 90
2, 32399, Note_on_c, 0, 63, 0
2, 32400, Note_on_c, 0, 65, 90
2, 32459, Note_on_c, 0, 65, 0
2, 32460, Note_on_c, 0, 62, 90
2, 32489, Note_on_c, 0, 62, 0
2, 32490, Note_on_c, 0, 60, 90
2, 32519, Note_on_c, 0, 60, 0
2, 32520, Note_on_c, 0, 62, 90
2, 32579, Note_on_c, 0, 62, 0
2, 32580, Note_on_c, 0, 59, 90
2, 32609, Note_on_c, 0, 59, 0
2, 32610, Note_on_c, 0, 57, 90
2, 32639, Note_on_c, 0, 57, 0
2, 32640, Note_on_c, 0, 59, 90
2, 32699, Note_on_c, 0, 59, 0
2, 32700, Note_on_c, 0, 55, 90
2, 32729, Note_on_c, 0, 55, 0
2, 32730, Note_on_c, 0, 54, 90
2, 32759, Note_on_c, 0, 54, 0
2, 32760, Note_on_c, 0, 55, 90
2, 32819, Note_on_c, 0, 55, 0
2, 32820, Note_on_c, 0, 59, 90
2, 32879, Note_on_c, 0, 59, 0
2, 32880, Note_on_c, 0, 62, 90
2, 32939, Note_on_c, 0, 62, 0
2, 32940, Note_on_c, 0, 65, 90
2, 32999, Note_on_c, 0, 65, 0
2, 33000, Note_on_c, 0, 65, 90
2, 33029, Note_on_c, 0, 65, 0
2, 33030, Note_on_c, 0, 63, 90
2, 33059, Note_on_c, 0, 63, 0
2, 33060, Note_on_c, 0, 62, 90
2, 33089, Note_on_c, 0, 62, 0
2, 33090, Note_on_c, 0, 63, 90
2, 33119, Note_on_c, 0, 63, 0
2, 33120, Note_on_c, 0, 60, 90
2, 33149, Note_on_c, 0, 60, 0
2, 33150, Note_on_c, 0, 63, 90
2, 33179, Note_on_c, 0, 63, 0
2, 33180, Note_on_c, 0, 62, 90
2, 33209, Note_on_c, 0, 62, 0
2, 33210, Note_on_c, 0, 65, 90
2, 33239, Note_on_c, 0, 65, 0
2, 33240, Note_on_c, 0, 63, 90
2, 33299, Note_on_c, 0, 63, 0
2, 33300, Note_on_c, 0, 72, 90
2, 33359, Note_on_c, 0, 72, 0
2, 33360, Note_on_c, 0, 69, 90
2, 33419, Note_on_c, 0, 69, 0
2, 33420, Note_on_c, 0, 65, 90
2, 33479, Note_on_c, 0, 65, 0
2, 33480, Note_on_c, 0, 60, 90
2, 33539, Note_on_c, 0, 60, 0
2, 33540, Note_on_c, 0, 57, 90
2, 33599, Note_on_c, 0, 57, 0
2, 33600, Note_on_c, 0, 53, 90
2, 33659, Note_on_c, 0, 53, 0
2, 33660, Note_on_c, 0, 63, 90
2, 33719, Note_on_c, 0, 63, 0
2, 33720, Note_on_c, 0, 62, 90
2, 33779, Note_on_c, 0, 62, 0
2, 33780, Note_on_c, 0, 70, 90
2, 33839, Note_on_c, 0, 70, 0
2, 33840, Note_on_c, 0, 67, 90
2, 33899, Note_on_c, 0, 67, 0
2, 33900, Note_on_c, 0, 63, 90
2, 33959, Note_on_c, 0, 63, 0
2, 33960, Note_on_c, 0, 58, 90
2, 34019, Note_on_c, 0, 58, 0
2, 34020, Note_on_c, 0, 55, 90
2, 34079, Note_on_c, 0, 55, 0
2, 34080, Note_on_c, 0, 51, 90
2, 34139, Note_on_c, 0, 51, 0
2, 34140, Note_on_c, 0, 62, 90
2, 34199, Note_on_c, 0, 62, 0
2, 34200, Note_on_c, 0, 60, 90
2, 34259, Note_on_c, 0, 60, 0
2, 34260, Note_on_c, 0, 69, 90
2, 34319, Note_on_c, 0, 69, 0
2, 34320, Note_on_c, 0, 66, 90
2, 34379, Note_on_c, 0, 66, 0
2, 34380, Note_on_c, 0, 62, 90
2, 34439, Note_on_c, 0, 62, 0
2, 34440, Note_on_c, 0, 57, 90
2, 34499, Note_on_c, 0, 57, 0
2, 34500, Note_on_c, 0, 54, 90
2, 34559, Note_on_c, 0, 54, 0
2, 34560, Note_on_c, 0, 50, 90
2, 34619, Note_on_c, 0, 50, 0
2, 34620, Note_on_c, 0, 62, 90
2, 34679, Note_on_c, 0, 62, 0
2, 34680, Note_on_c, 0, 62, 90
2, 34739, Note_on_c, 0, 62, 0
2, 34740, Note_on_c, 0, 67, 90
2, 34769, Note_on_c, 0, 67, 0
2, 34770, Note_on_c, 0, 66, 90
2, 34799, Note_on_c, 0, 66, 0
2, 34800, Note_on_c, 0, 67, 90
2, 34859, Note_on_c, 0, 67, 0
2, 34860, Note_on_c, 0, 62, 90
2, 34889, Note_on_c, 0, 62, 0
2, 34890, Note_on_c, 0, 60, 90
2, 34919, Note_on_c, 0, 60, 0
2, 34920, Note_on_c, 0, 62, 90
2, 34979, Note_on_c, 0, 62, 0
2, 34980, Note_on_c, 0, 58, 90
2, 35009, Note_on_c, 0, 58, 0
2, 35010, Note_on_c, 0, 57, 90
2, 35039, Note_on_c, 0, 57, 0
2, 35040, Note_on_c, 0, 58, 90
2, 35099, Note_on_c, 0, 58, 0
2, 35100, Note_on_c, 0, 55, 90
2, 35129, Note_on_c, 0, 55, 0
2, 35130, Note_on_c, 0, 54, 90
2, 35159, Note_on_c, 0, 54, 0
2, 35160, Note_on_c, 0, 55, 90
2, 35218, Note_on_c, 0, 55, 0
2, 35220, Note_on_c, 0, 58, 90
2, 35278, Note_on_c, 0, 58, 0
2, 35280, Note_on_c, 0, 62, 90
2, 35338, Note_on_c, 0, 62, 0
2, 35340, Note_on_c, 0, 67, 90
2, 35398, Note_on_c, 0, 67, 0
2, 35400, Note_on_c, 0, 69, 90
2, 35429, Note_on_c, 0, 69, 0
2, 35430, Note_on_c, 0, 67, 90
2, 35459, Note_on_c, 0, 67, 0
2, 35460, Note_on_c, 0, 66, 90
2, 35489, Note_on_c, 0, 66, 0
2, 35490, Note_on_c, 0, 64, 90
2, 35519, Note_on_c, 0, 64, 0
2, 35520, Note_on_c, 0, 62, 90
2, 35549, Note_on_c, 0, 62, 0
2, 35550, Note_on_c, 0, 63, 90
2, 35579, Note_on_c, 0, 63, 0
2, 35580, Note_on_c, 0, 62, 90
2, 35609, Note_on_c, 0, 62, 0
2, 35610, Note_on_c, 0, 60, 90
2, 35639, Note_on_c, 0, 60, 0
2, 35640, Note_on_c, 0, 58, 90
2, 35669, Note_on_c, 0, 58, 0
2, 35700, Note_on_c, 0, 57, 90
2, 35714, Note_on_c, 0, 57, 0
2, 35715, Note_on_c, 0, 58, 90
2, 35729, Note_on_c, 0, 58, 0
2, 35730, Note_on_c, 0, 60, 90
2, 35759, Note_on_c, 0, 60, 0
2, 35760, Note_on_c, 0, 58, 90
2, 35819, Note_on_c, 0, 58, 0
2, 35820, Note_on_c, 0, 57, 90
2, 35834, Note_on_c, 0, 57, 0
2, 35835, Note_on_c, 0, 58, 90
2, 35849, Note_on_c, 0, 58, 0
2, 35850, Note_on_c, 0, 60, 90
2, 35879, Note_on_c, 0, 60, 0
2, 35880, Note_on_c, 0, 58, 90
2, 35939, Note_on_c, 0, 58, 0
2, 35940, Note_on_c, 0, 50, 90
2, 35969, Note_on_c, 0, 50, 0
2, 35970, Note_on_c, 0, 59, 90
2, 35999, Note_on_c, 0, 59, 0
2, 36000, Note_on_c, 0, 51, 90
2, 36029, Note_on_c, 0, 51, 0
2, 36030, Note_on_c, 0, 60, 90
2, 36059, Note_on_c, 0, 60, 0
2, 36060, Note_on_c, 0, 53, 90
2, 36089, Note_on_c, 0, 53, 0
2, 36090, Note_on_c, 0, 62, 90
2, 36119, Note_on_c, 0, 62, 0
2, 36120, Note_on_c, 0, 63, 90
2, 36179, Note_on_c, 0, 63, 0
2, 36180, Note_on_c, 0, 55, 90
2, 36194, Note_on_c, 0, 55, 0
2, 36195, Note_on_c, 0, 57, 90
2, 36209, Note_on_c, 0, 57, 0
2, 36210, Note_on_c, 0, 58, 90
2, 36239, Note_on_c, 0, 58, 0
2, 36240, Note_on_c, 0, 57, 90
2, 36299, Note_on_c, 0, 57, 0
2, 36300, Note_on_c, 0, 55, 90
2, 36314, Note_on_c, 0, 55, 0
2, 36315, Note_on_c, 0, 57, 90
2, 36329, Note_on_c, 0, 57, 0
2, 36330, Note_on_c, 0, 58, 90
2, 36359, Note_on_c, 0, 58, 0
2, 36360, Note_on_c, 0, 57, 90
2, 36419, Note_on_c, 0, 57, 0
2, 36420, Note_on_c, 0, 48, 90
2, 36449, Note_on_c, 0, 48, 0
2, 36450, Note_on_c, 0, 57, 90
2, 36479, Note_on_c, 0, 57, 0
2, 36480, Note_on_c, 0, 50, 90
2, 36509, Note_on_c, 0, 50, 0
2, 36510, Note_on_c, 0, 58, 90
2, 36539, Note_on_c, 0, 58, 0
2, 36540, Note_on_c, 0, 51, 90
2, 36569, Note_on_c, 0, 51, 0
2, 36570, Note_on_c, 0, 60, 90
2, 36599, Note_on_c, 0, 60, 0
2, 36600, Note_on_c, 0, 62, 90
2, 36629, Note_on_c, 0, 62, 0
2, 36660, Note_on_c, 0, 53, 90
2, 36674, Note_on_c, 0, 53, 0
2, 36675, Note_on_c, 0, 55, 90
2, 36689, Note_on_c, 0, 55, 0
2, 36690, Note_on_c, 0, 56, 90
2, 36719, Note_on_c, 0, 56, 0
2, 36720, Note_on_c, 0, 55, 90
2, 36779, Note_on_c, 0, 55, 0
2, 36780, Note_on_c, 0, 53, 90
2, 36794, Note_on_c, 0, 53, 0
2, 36795, Note_on_c, 0, 55, 90
2, 36809, Note_on_c, 0, 55, 0
2, 36810, Note_on_c, 0, 56, 90
2, 36839, Note_on_c, 0, 56, 0
2, 36840, Note_on_c, 0, 55, 90
2, 36899, Note_on_c, 0, 55, 0
2, 36900, Note_on_c, 0, 55, 90
2, 36929, Note_on_c, 0, 55, 0
2, 36930, Note_on_c, 0, 63, 90
2, 36959, Note_on_c, 0, 63, 0
2, 36960, Note_on_c, 0, 57, 90
2, 36989, Note_on_c, 0, 57, 0
2, 36990, Note_on_c, 0, 63, 90
2, 37019, Note_on_c, 0, 63, 0
2, 37020, Note_on_c, 0, 62, 90
2, 37049, Note_on_c, 0, 62, 0
2, 37050, Note_on_c, 0, 58, 90
2, 37079, Note_on_c, 0, 58, 0
2, 37080, Note_on_c, 0, 60, 90
2, 37109, Note_on_c, 0, 60, 0
2, 37110, Note_on_c, 0, 58, 90
2, 37139, Note_on_c, 0, 58, 0
2, 37140, Note_on_c, 0, 57, 90
2, 37169, Note_on_c, 0, 57, 0
2, 37170, Note_on_c, 0, 58, 90
2, 37199, Note_on_c, 0, 58, 0
2, 37200, Note_on_c, 0, 60, 90
2, 37349, Note_on_c, 0, 60, 0
2, 37350, Note_on_c, 0, 58, 90
2, 37379, Note_on_c, 0, 58, 0
2, 37380, Note_on_c, 0, 57, 90
2, 37409, Note_on_c, 0, 57, 0
2, 37410, Note_on_c, 0, 58, 90
2, 37439, Note_on_c, 0, 58, 0
2, 37440, Note_on_c, 0, 60, 90
2, 37469, Note_on_c, 0, 60, 0
2, 37470, Note_on_c, 0, 58, 90
2, 37499, Note_on_c, 0, 58, 0
2, 37500, Note_on_c, 0, 60, 90
2, 37529, Note_on_c, 0, 60, 0
2, 37530, Note_on_c, 0, 57, 90
2, 37559, Note_on_c, 0, 57, 0
2, 37560, Note_on_c, 0, 58, 90
2, 37589, Note_on_c, 0, 58, 0
2, 37590, Note_on_c, 0, 57, 90
2, 37619, Note_on_c, 0, 57, 0
2, 37620, Note_on_c, 0, 55, 90
2, 37649, Note_on_c, 0, 55, 0
2, 37650, Note_on_c, 0, 54, 90
2, 37679, Note_on_c, 0, 54, 0
2, 37680, Note_on_c, 0, 55, 90
2, 37709, Note_on_c, 0, 55, 0
2, 37710, Note_on_c, 0, 58, 90
2, 37739, Note_on_c, 0, 58, 0
2, 37740, Note_on_c, 0, 62, 90
2, 37769, Note_on_c, 0, 62, 0
2, 37770, Note_on_c, 0, 55, 90
2, 37799, Note_on_c, 0, 55, 0
2, 37800, Note_on_c, 0, 54, 90
2, 37829, Note_on_c, 0, 54, 0
2, 37830, Note_on_c, 0, 52, 90
2, 37859, Note_on_c, 0, 52, 0
2, 37860, Note_on_c, 0, 50, 90
2, 37889, Note_on_c, 0, 50, 0
2, 37890, Note_on_c, 0, 52, 90
2, 37919, Note_on_c, 0, 52, 0
2, 37920, Note_on_c, 0, 54, 90
2, 37949, Note_on_c, 0, 54, 0
2, 37950, Note_on_c, 0, 55, 90
2, 37979, Note_on_c, 0, 55, 0
2, 37980, Note_on_c, 0, 57, 90
2, 38009, Note_on_c, 0, 57, 0
2, 38010, Note_on_c, 0, 54, 90
2, 38039, Note_on_c, 0, 54, 0
2, 38040, Note_on_c, 0, 55, 90
2, 38099, Note_on_c, 0, 55, 0
2, 38100, Note_on_c, 0, 62, 90
2, 38129, Note_on_c, 0, 62, 0
2, 38130, Note_on_c, 0, 54, 90
2, 38159, Note_on_c, 0, 54, 0
2, 38160, Note_on_c, 0, 55, 90
2, 38339, Note_on_c, 0, 55, 0
2, 38340, Note_on_c, 0, 63, 90
2, 38369, Note_on_c, 0, 63, 0
2, 38370, Note_on_c, 0, 54, 90
2, 38399, Note_on_c, 0, 54, 0
2, 38400, Note_on_c, 0, 55, 90
2, 38579, Note_on_c, 0, 55, 0
2, 38580, Note_on_c, 0, 62, 90
2, 38609, Note_on_c, 0, 62, 0
2, 38610, Note_on_c, 0, 54, 90
2, 38639, Note_on_c, 0, 54, 0
2, 38640, Note_on_c, 0, 55, 90
2, 38699, Note_on_c, 0, 55, 0
2, 38700, Note_on_c, 0, 63, 90
2, 38729, Note_on_c, 0, 63, 0
2, 38730, Note_on_c, 0, 54, 90
2, 38759, Note_on_c, 0, 54, 0
2, 38760, Note_on_c, 0, 55, 90
2, 38819, Note_on_c, 0, 55, 0
2, 38820, Note_on_c, 0, 67, 90
2, 38939, Note_on_c, 0, 67, 0
2, 38940, Note_on_c, 0, 65, 90
2, 39029, Note_on_c, 0, 65, 0
2, 39030, Note_on_c, 0, 62, 90
2, 39044, Note_on_c, 0, 62, 0
2, 39045, Note_on_c, 0, 64, 90
2, 39059, Note_on_c, 0, 64, 0
2, 39060, Note_on_c, 0, 65, 90
2, 39089, Note_on_c, 0, 65, 0
2, 39090, Note_on_c, 0, 62, 90
2, 39104, Note_on_c, 0, 62, 0
2, 39105, Note_on_c, 0, 64, 90
2, 39119, Note_on_c, 0, 64, 0
2, 39120, Note_on_c, 0, 65, 90
2, 39149, Note_on_c, 0, 65, 0
2, 39150, Note_on_c, 0, 62, 90
2, 39179, Note_on_c, 0, 62, 0
2, 39180, Note_on_c, 0, 55, 90
2, 39209, Note_on_c, 0, 55, 0
2, 39210, Note_on_c, 0, 65, 90
2, 39239, Note_on_c, 0, 65, 0
2, 39240, Note_on_c, 0, 63, 90
2, 39360, Note_on_c, 0, 63, 0
2, 39420, Note_on_c, 0, 63, 90
2, 39509, Note_on_c, 0, 63, 0
2, 39510, Note_on_c, 0, 60, 90
2, 39524, Note_on_c, 0, 60, 0
2, 39525, Note_on_c, 0, 62, 90
2, 39539, Note_on_c, 0, 62, 0
2, 39540, Note_on_c, 0, 63, 90
2, 39569, Note_on_c, 0, 63, 0
2, 39570, Note_on_c, 0, 60, 90
2, 39584, Note_on_c, 0, 60, 0
2, 39585, Note_on_c, 0, 62, 90
2, 39599, Note_on_c, 0, 62, 0
2, 39600, Note_on_c, 0, 63, 90
2, 39629, Note_on_c, 0, 63, 0
2, 39630, Note_on_c, 0, 60, 90
2, 39659, Note_on_c, 0, 60, 0
2, 39660, Note_on_c, 0, 53, 90
2, 39689, Note_on_c, 0, 53, 0
2, 39690, Note_on_c, 0, 63, 90
2, 39719, Note_on_c, 0, 63, 0
2, 39720, Note_on_c, 0, 62, 90
2, 39779, Note_on_c, 0, 62, 0
2, 39780, Note_on_c, 0, 53, 90
2, 39839, Note_on_c, 0, 53, 0
2, 39840, Note_on_c, 0, 58, 90
2, 39989, Note_on_c, 0, 58, 0
2, 39990, Note_on_c, 0, 60, 90
2, 40004, Note_on_c, 0, 60, 0
2, 40005, Note_on_c, 0, 58, 90
2, 40019, Note_on_c, 0, 58, 0
2, 40020, Note_on_c, 0, 57, 90
2, 40049, Note_on_c, 0, 57, 0
2, 40050, Note_on_c, 0, 58, 90
2, 40079, Note_on_c, 0, 58, 0
2, 40080, Note_on_c, 0, 60, 90
2, 40229, Note_on_c, 0, 60, 0
2, 40230, Note_on_c, 0, 62, 90
2, 40244, Note_on_c, 0, 62, 0
2, 40245, Note_on_c, 0, 60, 90
2, 40259, Note_on_c, 0, 60, 0
2, 40260, Note_on_c, 0, 58, 90
2, 40289, Note_on_c, 0, 58, 0
2, 40290, Note_on_c, 0, 60, 90
2, 40319, Note_on_c, 0, 60, 0
2, 40320, Note_on_c, 0, 62, 90
2, 40469, Note_on_c, 0, 62, 0
2, 40470, Note_on_c, 0, 63, 90
2, 40484, Note_on_c, 0, 63, 0
2, 40485, Note_on_c, 0, 62, 90
2, 40499, Note_on_c, 0, 62, 0
2, 40500, Note_on_c, 0, 60, 90
2, 40529, Note_on_c, 0, 60, 0
2, 40530, Note_on_c, 0, 62, 90
2, 40559, Note_on_c, 0, 62, 0
2, 40560, Note_on_c, 0, 63, 90
2, 40709, Note_on_c, 0, 63, 0
2, 40710, Note_on_c, 0, 60, 90
2, 40724, Note_on_c, 0, 60, 0
2, 40725, Note_on_c, 0, 62, 90
2, 40739, Note_on_c, 0, 62, 0
2, 40740, Note_on_c, 0, 63, 90
2, 40769, Note_on_c, 0, 63, 0
2, 40770, Note_on_c, 0, 60, 90
2, 40784, Note_on_c, 0, 60, 0
2, 40785, Note_on_c, 0, 62, 90
2, 40799, Note_on_c, 0, 62, 0
2, 40800, Note_on_c, 0, 63, 90
2, 40829, Note_on_c, 0, 63, 0
2, 40830, Note_on_c, 0, 60, 90
2, 40859, Note_on_c, 0, 60, 0
2, 40860, Note_on_c, 0, 65, 90
2, 41009, Note_on_c, 0, 65, 0
2, 41010, Note_on_c, 0, 67, 90
2, 41039, Note_on_c, 0, 67, 0
2, 41040, Note_on_c, 0, 60, 90
2, 41059, Note_on_c, 0, 60, 0
2, 41060, Note_on_c, 0, 62, 90
2, 41079, Note_on_c, 0, 62, 0
2, 41080, Note_on_c, 0, 60, 90
2, 41099, Note_on_c, 0, 60, 0
2, 41100, Note_on_c, 0, 62, 90
2, 41114, Note_on_c, 0, 62, 0
2, 41115, Note_on_c, 0, 60, 90
2, 41129, Note_on_c, 0, 60, 0
2, 41130, Note_on_c, 0, 58, 90
2, 41159, Note_on_c, 0, 58, 0
2, 41160, Note_on_c, 0, 58, 90
2, 41189, Note_on_c, 0, 58, 0
2, 41190, Note_on_c, 0, 62, 90
2, 41219, Note_on_c, 0, 62, 0
2, 41220, Note_on_c, 0, 62, 90
2, 41249, Note_on_c, 0, 62, 0
2, 41250, Note_on_c, 0, 67, 90
2, 41279, Note_on_c, 0, 67, 0
2, 41280, Note_on_c, 0, 67, 90
2, 41309, Note_on_c, 0, 67, 0
2, 41310, Note_on_c, 0, 70, 90
2, 41339, Note_on_c, 0, 70, 0
2, 41340, Note_on_c, 0, 70, 90
2, 41369, Note_on_c, 0, 70, 0
2, 41370, Note_on_c, 0, 64, 90
2, 41399, Note_on_c, 0, 64, 0
2, 41400, Note_on_c, 0, 64, 90
2, 41429, Note_on_c, 0, 64, 0
2, 41430, Note_on_c, 0, 60, 90
2, 41459, Note_on_c, 0, 60, 0
2, 41460, Note_on_c, 0, 65, 90
2, 41489, Note_on_c, 0, 65, 0
2, 41490, Note_on_c, 0, 57, 90
2, 41519, Note_on_c, 0, 57, 0
2, 41520, Note_on_c, 0, 55, 90
2, 41549, Note_on_c, 0, 55, 0
2, 41550, Note_on_c, 0, 65, 90
2, 41579, Note_on_c, 0, 65, 0
2, 41580, Note_on_c, 0, 55, 90
2, 41609, Note_on_c, 0, 55, 0
2, 41610, Note_on_c, 0, 64, 90
2, 41639, Note_on_c, 0, 64, 0
2, 41640, Note_on_c, 0, 65, 90
2, 41669, Note_on_c, 0, 65, 0
2, 41670, Note_on_c, 0, 65, 90
2, 41684, Note_on_c, 0, 65, 0
2, 41685, Note_on_c, 0, 67, 90
2, 41699, Note_on_c, 0, 67, 0
2, 41700, Note_on_c, 0, 68, 90
2, 41729, Note_on_c, 0, 68, 0
2, 41730, Note_on_c, 0, 65, 90
2, 41744, Note_on_c, 0, 65, 0
2, 41745, Note_on_c, 0, 67, 90
2, 41759, Note_on_c, 0, 67, 0
2, 41760, Note_on_c, 0, 68, 90
2, 41789, Note_on_c, 0, 68, 0
2, 41790, Note_on_c, 0, 53, 90
2, 41804, Note_on_c, 0, 53, 0
2, 41805, Note_on_c, 0, 55, 90
2, 41819, Note_on_c, 0, 55, 0
2, 41820, Note_on_c, 0, 56, 90
2, 41849, Note_on_c, 0, 56, 0
2, 41850, Note_on_c, 0, 53, 90
2, 41864, Note_on_c, 0, 53, 0
2, 41865, Note_on_c, 0, 55, 90
2, 41879, Note_on_c, 0, 55, 0
2, 41880, Note_on_c, 0, 56, 90
2, 41939, Note_on_c, 0, 56, 0
2, 42150, Note_on_c, 0, 63, 90
2, 42164, Note_on_c, 0, 63, 0
2, 42165, Note_on_c, 0, 65, 90
2, 42179, Note_on_c, 0, 65, 0
2, 42180, Note_on_c, 0, 67, 90
2, 42209, Note_on_c, 0, 67, 0
2, 42210, Note_on_c, 0, 63, 90
2, 42224, Note_on_c, 0, 63, 0
2, 42225, Note_on_c, 0, 65, 90
2, 42239, Note_on_c, 0, 65, 0
2, 42240, Note_on_c, 0, 67, 90
2, 42269, Note_on_c, 0, 67, 0
2, 42270, Note_on_c, 0, 63, 90
2, 42299, Note_on_c, 0, 63, 0
2, 42300, Note_on_c, 0, 60, 90
2, 42329, Note_on_c, 0, 60, 0
2, 42330, Note_on_c, 0, 63, 90
2, 42359, Note_on_c, 0, 63, 0
2, 42360, Note_on_c, 0, 56, 90
2, 42389, Note_on_c, 0, 56, 0
2, 42390, Note_on_c, 0, 62, 90
2, 42404, Note_on_c, 0, 62, 0
2, 42405, Note_on_c, 0, 63, 90
2, 42419, Note_on_c, 0, 63, 0
2, 42420, Note_on_c, 0, 65, 90
2, 42449, Note_on_c, 0, 65, 0
2, 42450, Note_on_c, 0, 62, 90
2, 42464, Note_on_c, 0, 62, 0
2, 42465, Note_on_c, 0, 63, 90
2, 42479, Note_on_c, 0, 63, 0
2, 42480, Note_on_c, 0, 65, 90
2, 42509, Note_on_c, 0, 65, 0
2, 42510, Note_on_c, 0, 62, 90
2, 42539, Note_on_c, 0, 62, 0
2, 42540, Note_on_c, 0, 59, 90
2, 42569, Note_on_c, 0, 59, 0
2, 42570, Note_on_c, 0, 62, 90
2, 42599, Note_on_c, 0, 62, 0
2, 42600, Note_on_c, 0, 55, 90
2, 42629, Note_on_c, 0, 55, 0
2, 42630, Note_on_c, 0, 60, 90
2, 42644, Note_on_c, 0, 60, 0
2, 42645, Note_on_c, 0, 62, 90
2, 42659, Note_on_c, 0, 62, 0
2, 42660, Note_on_c, 0, 63, 90
2, 42689, Note_on_c, 0, 63, 0
2, 42690, Note_on_c, 0, 60, 90
2, 42704, Note_on_c, 0, 60, 0
2, 42705, Note_on_c, 0, 62, 90
2, 42719, Note_on_c, 0, 62, 0
2, 42720, Note_on_c, 0, 63, 90
2, 42749, Note_on_c, 0, 63, 0
2, 42750, Note_on_c, 0, 60, 90
2, 42779, Note_on_c, 0, 60, 0
2, 42780, Note_on_c, 0, 56, 90
2, 42809, Note_on_c, 0, 56, 0
2, 42810, Note_on_c, 0, 60, 90
2, 42839, Note_on_c, 0, 60, 0
2, 42840, Note_on_c, 0, 53, 90
2, 42869, Note_on_c, 0, 53, 0
2, 42870, Note_on_c, 0, 59, 90
2, 42884, Note_on_c, 0, 59, 0
2, 42885, Note_on_c, 0, 60, 90
2, 42899, Note_on_c, 0, 60, 0
2, 42900, Note_on_c, 0, 62, 90
2, 42929, Note_on_c, 0, 62, 0
2, 42930, Note_on_c, 0, 59, 90
2, 42944, Note_on_c, 0, 59, 0
2, 42945, Note_on_c, 0, 60, 90
2, 42959, Note_on_c, 0, 60, 0
2, 42960, Note_on_c, 0, 62, 90
2, 42989, Note_on_c, 0, 62, 0
2, 42990, Note_on_c, 0, 59, 90
2, 43019, Note_on_c, 0, 59, 0
2, 43020, Note_on_c, 0, 55, 90
2, 43049, Note_on_c, 0, 55, 0
2, 43050, Note_on_c, 0, 59, 90
2, 43079, Note_on_c, 0, 59, 0
2, 43080, Note_on_c, 0, 60, 90
2, 43139, Note_on_c, 0, 60, 0
2, 43140, Note_on_c, 0, 48, 90
2, 43199, Note_on_c, 0, 48, 0
2, 43350, Note_on_c, 0, 58, 90
2, 43364, Note_on_c, 0, 58, 0
2, 43365, Note_on_c, 0, 60, 90
2, 43379, Note_on_c, 0, 60, 0
2, 43380, Note_on_c, 0, 62, 90
2, 43409, Note_on_c, 0, 62, 0
2, 43410, Note_on_c, 0, 58, 90
2, 43424, Note_on_c, 0, 58, 0
2, 43425, Note_on_c, 0, 60, 90
2, 43439, Note_on_c, 0, 60, 0
2, 43440, Note_on_c, 0, 62, 90
2, 43469, Note_on_c, 0, 62, 0
2, 43470, Note_on_c, 0, 58, 90
2, 43499, Note_on_c, 0, 58, 0
2, 43500, Note_on_c, 0, 55, 90
2, 43529, Note_on_c, 0, 55, 0
2, 43530, Note_on_c, 0, 58, 90
2, 43559, Note_on_c, 0, 58, 0
2, 43560, Note_on_c, 0, 52, 90
2, 43619, Note_on_c, 0, 52, 0
2, 43620, Note_on_c, 0, 54, 90
2, 43649, Note_on_c, 0, 54, 0
2, 43650, Note_on_c, 0, 55, 90
2, 43679, Note_on_c, 0, 55, 0
2, 43680, Note_on_c, 0, 57, 90
2, 43829, Note_on_c, 0, 57, 0
2, 43830, Note_on_c, 0, 55, 90
2, 43844, Note_on_c, 0, 55, 0
2, 43845, Note_on_c, 0, 57, 90
2, 43859, Note_on_c, 0, 57, 0
2, 43860, Note_on_c, 0, 58, 90
2, 43889, Note_on_c, 0, 58, 0
2, 43890, Note_on_c, 0, 55, 90
2, 43904, Note_on_c, 0, 55, 0
2, 43905, Note_on_c, 0, 57, 90
2, 43919, Note_on_c, 0, 57, 0
2, 43920, Note_on_c, 0, 58, 90
2, 43949, Note_on_c, 0, 58, 0
2, 43950, Note_on_c, 0, 55, 90
2, 43979, Note_on_c, 0, 55, 0
2, 43980, Note_on_c, 0, 50, 90
2, 44009, Note_on_c, 0, 50, 0
2, 44010, Note_on_c, 0, 53, 90
2, 44039, Note_on_c, 0, 53, 0
2, 44040, Note_on_c, 0, 52, 90
2, 44069, Note_on_c, 0, 52, 0
2, 44070, Note_on_c, 0, 57, 90
2, 44084, Note_on_c, 0, 57, 0
2, 44085, Note_on_c, 0, 58, 90
2, 44099, Note_on_c, 0, 58, 0
2, 44100, Note_on_c, 0, 60, 90
2, 44129, Note_on_c, 0, 60, 0
2, 44130, Note_on_c, 0, 57, 90
2, 44144, Note_on_c, 0, 57, 0
2, 44145, Note_on_c, 0, 58, 90
2, 44159, Note_on_c, 0, 58, 0
2, 44160, Note_on_c, 0, 60, 90
2, 44189, Note_on_c, 0, 60, 0
2, 44190, Note_on_c, 0, 57, 90
2, 44219, Note_on_c, 0, 57, 0
2, 44220, Note_on_c, 0, 52, 90
2, 44249, Note_on_c, 0, 52, 0
2, 44250, Note_on_c, 0, 55, 90
2, 44279, Note_on_c, 0, 55, 0
2, 44280, Note_on_c, 0, 54, 90
2, 44309, Note_on_c, 0, 54, 0
2, 44310, Note_on_c, 0, 58, 90
2, 44324, Note_on_c, 0, 58, 0
2, 44325, Note_on_c, 0, 60, 90
2, 44339, Note_on_c, 0, 60, 0
2, 44340, Note_on_c, 0, 62, 90
2, 44369, Note_on_c, 0, 62, 0
2, 44370, Note_on_c, 0, 58, 90
2, 44384, Note_on_c, 0, 58, 0
2, 44385, Note_on_c, 0, 60, 90
2, 44399, Note_on_c, 0, 60, 0
2, 44400, Note_on_c, 0, 62, 90
2, 44429, Note_on_c, 0, 62, 0
2, 44430, Note_on_c, 0, 58, 90
2, 44459, Note_on_c, 0, 58, 0
2, 44460, Note_on_c, 0, 54, 90
2, 44489, Note_on_c, 0, 54, 0
2, 44490, Note_on_c, 0, 57, 90
2, 44519, Note_on_c, 0, 57, 0
2, 44520, Note_on_c, 0, 55, 90
2, 44549, Note_on_c, 0, 55, 0
2, 44550, Note_on_c, 0, 60, 90
2, 44564, Note_on_c, 0, 60, 0
2, 44565, Note_on_c, 0, 62, 90
2, 44579, Note_on_c, 0, 62, 0
2, 44580, Note_on_c, 0, 63, 90
2, 44609, Note_on_c, 0, 63, 0
2, 44610, Note_on_c, 0, 60, 90
2, 44624, Note_on_c, 0, 60, 0
2, 44625, Note_on_c, 0, 62, 90
2, 44639, Note_on_c, 0, 62, 0
2, 44640, Note_on_c, 0, 63, 90
2, 44669, Note_on_c, 0, 63, 0
2, 44670, Note_on_c, 0, 60, 90
2, 44699, Note_on_c, 0, 60, 0
2, 44700, Note_on_c, 0, 55, 90
2, 44729, Note_on_c, 0, 55, 0
2, 44730, Note_on_c, 0, 58, 90
2, 44759, Note_on_c, 0, 58, 0
2, 44760, Note_on_c, 0, 57, 90
2, 44789, Note_on_c, 0, 57, 0
2, 44790, Note_on_c, 0, 54, 90
2, 44804, Note_on_c, 0, 54, 0
2, 44805, Note_on_c, 0, 55, 90
2, 44819, Note_on_c, 0, 55, 0
2, 44820, Note_on_c, 0, 57, 90
2, 44849, Note_on_c, 0, 57, 0
2, 44850, Note_on_c, 0, 54, 90
2, 44864, Note_on_c, 0, 54, 0
2, 44865, Note_on_c, 0, 55, 90
2, 44879, Note_on_c, 0, 55, 0
2, 44880, Note_on_c, 0, 57, 90
2, 44909, Note_on_c, 0, 57, 0
2, 44910, Note_on_c, 0, 54, 90
2, 44939, Note_on_c, 0, 54, 0
2, 44940, Note_on_c, 0, 50, 90
2, 44969, Note_on_c, 0, 50, 0
2, 44970, Note_on_c, 0, 54, 90
2, 44999, Note_on_c, 0, 54, 0
2, 45000, Note_on_c, 0, 55, 90
2, 45029, Note_on_c, 0, 55, 0
2, 45030, Note_on_c, 0, 54, 90
2, 45059, Note_on_c, 0, 54, 0
2, 45060, Note_on_c, 0, 55, 90
2, 45089, Note_on_c, 0, 55, 0
2, 45090, Note_on_c, 0, 63, 90
2, 45119, Note_on_c, 0, 63, 0
2, 45120, Note_on_c, 0, 58, 90
2, 45134, Note_on_c, 0, 58, 0
2, 45135, Note_on_c, 0, 57, 90
2, 45149, Note_on_c, 0, 57, 0
2, 45150, Note_on_c, 0, 58, 90
2, 45164, Note_on_c, 0, 58, 0
2, 45165, Note_on_c, 0, 57, 90
2, 45179, Note_on_c, 0, 57, 0
2, 45180, Note_on_c, 0, 58, 90
2, 45194, Note_on_c, 0, 58, 0
2, 45195, Note_on_c, 0, 57, 90
2, 45209, Note_on_c, 0, 57, 0
2, 45210, Note_on_c, 0, 55, 90
2, 45239, Note_on_c, 0, 55, 0
2, 45240, Note_on_c, 0, 55, 90
2, 45299, Note_on_c, 0, 55, 0
2, 45300, Note_on_c, 0, 55, 90
2, 45329, Note_on_c, 0, 55, 0
2, 45330, Note_on_c, 0, 54, 90
2, 45359, Note_on_c, 0, 54, 0
2, 45360, Note_on_c, 0, 55, 90
2, 45419, Note_on_c, 0, 55, 0
2, 45420, Note_on_c, 0, 50, 90
2, 45449, Note_on_c, 0, 50, 0
2, 45450, Note_on_c, 0, 48, 90
2, 45479, Note_on_c, 0, 48, 0
2, 45480, Note_on_c, 0, 50, 90
2, 45539, Note_on_c, 0, 50, 0
2, 45540, Note_on_c, 0, 46, 90
2, 45569, Note_on_c, 0, 46, 0
2, 45570, Note_on_c, 0, 45, 90
2, 45599, Note_on_c, 0, 45, 0
2, 45600, Note_on_c, 0, 46, 90
2, 45659, Note_on_c, 0, 46, 0
2, 45660, Note_on_c, 0, 43, 90
2, 45689, Note_on_c, 0, 43, 0
2, 45690, Note_on_c, 0, 42, 90
2, 45719, Note_on_c, 0, 42, 0
2, 45720, Note_on_c, 0, 43, 90
2, 45779, Note_on_c, 0, 43, 0
2, 45780, Note_on_c, 0, 46, 90
2, 45839, Note_on_c, 0, 46, 0
2, 45840, Note_on_c, 0, 50, 90
2, 45899, Note_on_c, 0, 50, 0
2, 45900, Note_on_c, 0, 55, 90
2, 45959, Note_on_c, 0, 55, 0
2, 45960, Note_on_c, 0, 57, 90
2, 45989, Note_on_c, 0, 57, 0
2, 45990, Note_on_c, 0, 55, 90
2, 46019, Note_on_c, 0, 55, 0
2, 46020, Note_on_c, 0, 54, 90
2, 46049, Note_on_c, 0, 54, 0
2, 46050, Note_on_c, 0, 52, 90
2, 46079, Note_on_c, 0, 52, 0
2, 46080, Note_on_c, 0, 50, 90
2, 46109, Note_on_c, 0, 50, 0
2, 46110, Note_on_c, 0, 51, 90
2, 46139, Note_on_c, 0, 51, 0
2, 46140, Note_on_c, 0, 51, 90
2, 46149, Note_on_c, 0, 51, 0
2, 46150, Note_on_c, 0, 53, 90
2, 46159, Note_on_c, 0, 53, 0
2, 46160, Note_on_c, 0, 51, 90
2, 46169, Note_on_c, 0, 51, 0
2, 46170, Note_on_c, 0, 50, 90
2, 46184, Note_on_c, 0, 50, 0
2, 46185, Note_on_c, 0, 51, 90
2, 46199, Note_on_c, 0, 51, 0
2, 46200, Note_on_c, 0, 53, 90
2, 46259, Note_on_c, 0, 53, 0
2, 46260, Note_on_c, 0, 65, 90
2, 46289, Note_on_c, 0, 65, 0
2, 46290, Note_on_c, 0, 63, 90
2, 46319, Note_on_c, 0, 63, 0
2, 46320, Note_on_c, 0, 65, 90
2, 46379, Note_on_c, 0, 65, 0
2, 46380, Note_on_c, 0, 62, 90
2, 46409, Note_on_c, 0, 62, 0
2, 46410, Note_on_c, 0, 60, 90
2, 46439, Note_on_c, 0, 60, 0
2, 46440, Note_on_c, 0, 62, 90
2, 46499, Note_on_c, 0, 62, 0
2, 46500, Note_on_c, 0, 59, 90
2, 46529, Note_on_c, 0, 59, 0
2, 46530, Note_on_c, 0, 57, 90
2, 46559, Note_on_c, 0, 57, 0
2, 46560, Note_on_c, 0, 59, 90
2, 46619, Note_on_c, 0, 59, 0
2, 46620, Note_on_c, 0, 55, 90
2, 46649, Note_on_c, 0, 55, 0
2, 46650, Note_on_c, 0, 53, 90
2, 46679, Note_on_c, 0, 53, 0
2, 46680, Note_on_c, 0, 55, 90
2, 46739, Note_on_c, 0, 55, 0
2, 46740, Note_on_c, 0, 59, 90
2, 46799, Note_on_c, 0, 59, 0
2, 46800, Note_on_c, 0, 62, 90
2, 46859, Note_on_c, 0, 62, 0
2, 46860, Note_on_c, 0, 65, 90
2, 46919, Note_on_c, 0, 65, 0
2, 46920, Note_on_c, 0, 65, 90
2, 46949, Note_on_c, 0, 65, 0
2, 46950, Note_on_c, 0, 63, 90
2, 46979, Note_on_c, 0, 63, 0
2, 46980, Note_on_c, 0, 62, 90
2, 47009, Note_on_c, 0, 62, 0
2, 47010, Note_on_c, 0, 63, 90
2, 47039, Note_on_c, 0, 63, 0
2, 47040, Note_on_c, 0, 60, 90
2, 47069, Note_on_c, 0, 60, 0
2, 47070, Note_on_c, 0, 63, 90
2, 47099, Note_on_c, 0, 63, 0
2, 47100, Note_on_c, 0, 62, 90
2, 47129, Note_on_c, 0, 62, 0
2, 47130, Note_on_c, 0, 65, 90
2, 47159, Note_on_c, 0, 65, 0
2, 47160, Note_on_c, 0, 64, 90
2, 47189, Note_on_c, 0, 64, 0
2, 47190, Note_on_c, 0, 67, 90
2, 47219, Note_on_c, 0, 67, 0
2, 47220, Note_on_c, 0, 58, 90
2, 47249, Note_on_c, 0, 58, 0
2, 47250, Note_on_c, 0, 57, 90
2, 47279, Note_on_c, 0, 57, 0
2, 47280, Note_on_c, 0, 58, 90
2, 47309, Note_on_c, 0, 58, 0
2, 47310, Note_on_c, 0, 67, 90
2, 47339, Note_on_c, 0, 67, 0
2, 47340, Note_on_c, 0, 58, 90
2, 47369, Note_on_c, 0, 58, 0
2, 47370, Note_on_c, 0, 67, 90
2, 47399, Note_on_c, 0, 67, 0
2, 47400, Note_on_c, 0, 58, 90
2, 47429, Note_on_c, 0, 58, 0
2, 47430, Note_on_c, 0, 67, 90
2, 47459, Note_on_c, 0, 67, 0
2, 47460, Note_on_c, 0, 58, 90
2, 47489, Note_on_c, 0, 58, 0
2, 47490, Note_on_c, 0, 57, 90
2, 47519, Note_on_c, 0, 57, 0
2, 47520, Note_on_c, 0, 58, 90
2, 47549, Note_on_c, 0, 58, 0
2, 47550, Note_on_c, 0, 67, 90
2, 47579, Note_on_c, 0, 67, 0
2, 47580, Note_on_c, 0, 61, 90
2, 47609, Note_on_c, 0, 61, 0
2, 47610, Note_on_c, 0, 67, 90
2, 47639, Note_on_c, 0, 67, 0
2, 47640, Note_on_c, 0, 64, 90
2, 47669, Note_on_c, 0, 64, 0
2, 47670, Note_on_c, 0, 67, 90
2, 47699, Note_on_c, 0, 67, 0
2, 47700, Note_on_c, 0, 57, 90
2, 47729, Note_on_c, 0, 57, 0
2, 47730, Note_on_c, 0, 67, 90
2, 47759, Note_on_c, 0, 67, 0
2, 47760, Note_on_c, 0, 61, 90
2, 47789, Note_on_c, 0, 61, 0
2, 47790, Note_on_c, 0, 67, 90
2, 47819, Note_on_c, 0, 67, 0
2, 47820, Note_on_c, 0, 64, 90
2, 47849, Note_on_c, 0, 64, 0
2, 47850, Note_on_c, 0, 67, 90
2, 47879, Note_on_c, 0, 67, 0
2, 47880, Note_on_c, 0, 57, 90
2, 47939, Note_on_c, 0, 57, 0
2, 47940, Note_on_c, 0, 69, 90
2, 48029, Note_on_c, 0, 69, 0
2, 48030, Note_on_c, 0, 70, 90
2, 48059, Note_on_c, 0, 70, 0
2, 48060, Note_on_c, 0, 72, 90
2, 48089, Note_on_c, 0, 72, 0
2, 48090, Note_on_c, 0, 62, 90
2, 48119, Note_on_c, 0, 62, 0
2, 48120, Note_on_c, 0, 63, 90
2, 48179, Note_on_c, 0, 63, 0
2, 48180, Note_on_c, 0, 60, 90
2, 48209, Note_on_c, 0, 60, 0
2, 48210, Note_on_c, 0, 58, 90
2, 48239, Note_on_c, 0, 58, 0
2, 48240, Note_on_c, 0, 60, 90
2, 48299, Note_on_c, 0, 60, 0
2, 48300, Note_on_c, 0, 57, 90
2, 48329, Note_on_c, 0, 57, 0
2, 48330, Note_on_c, 0, 55, 90
2, 48359, Note_on_c, 0, 55, 0
2, 48360, Note_on_c, 0, 57, 90
2, 48419, Note_on_c, 0, 57, 0
2, 48420, Note_on_c, 0, 54, 90
2, 48449, Note_on_c, 0, 54, 0
2, 48450, Note_on_c, 0, 52, 90
2, 48479, Note_on_c, 0, 52, 0
2, 48480, Note_on_c, 0, 54, 90
2, 48539, Note_on_c, 0, 54, 0
2, 48540, Note_on_c, 0, 50, 90
2, 48569, Note_on_c, 0, 50, 0
2, 48570, Note_on_c, 0, 48, 90
2, 48599, Note_on_c, 0, 48, 0
2, 48600, Note_on_c, 0, 50, 90
2, 48659, Note_on_c, 0, 50, 0
2, 48660, Note_on_c, 0, 54, 90
2, 48719, Note_on_c, 0, 54, 0
2, 48720, Note_on_c, 0, 57, 90
2, 48779, Note_on_c, 0, 57, 0
2, 48780, Note_on_c, 0, 60, 90
2, 48839, Note_on_c, 0, 60, 0
2, 48840, Note_on_c, 0, 60, 90
2, 48869, Note_on_c, 0, 60, 0
2, 48870, Note_on_c, 0, 58, 90
2, 48899, Note_on_c, 0, 58, 0
2, 48900, Note_on_c, 0, 57, 90
2, 48929, Note_on_c, 0, 57, 0
2, 48930, Note_on_c, 0, 58, 90
2, 48959, Note_on_c, 0, 58, 0
2, 48960, Note_on_c, 0, 55, 90
2, 49019, Note_on_c, 0, 55, 0
2, 49020, Note_on_c, 0, 66, 90
2, 49079, Note_on_c, 0, 66, 0
2, 49080, Note_on_c, 0, 67, 90
2, 49109, Note_on_c, 0, 67, 0
2, 49110, Note_on_c, 0, 62, 90
2, 49139, Note_on_c, 0, 62, 0
2, 49140, Note_on_c, 0, 67, 90
2, 49169, Note_on_c, 0, 67, 0
2, 49170, Note_on_c, 0, 69, 90
2, 49199, Note_on_c, 0, 69, 0
2, 49200, Note_on_c, 0, 70, 90
2, 49349, Note_on_c, 0, 70, 0
2, 49350, Note_on_c, 0, 69, 90
2, 49379, Note_on_c, 0, 69, 0
2, 49380, Note_on_c, 0, 67, 90
2, 49409, Note_on_c, 0, 67, 0
2, 49410, Note_on_c, 0, 69, 90
2, 49439, Note_on_c, 0, 69, 0
2, 49440, Note_on_c, 0, 70, 90
2, 49499, Note_on_c, 0, 70, 0
2, 49500, Note_on_c, 0, 60, 90
2, 49619, Note_on_c, 0, 60, 0
2, 49620, Note_on_c, 0, 65, 90
2, 49649, Note_on_c, 0, 65, 0
2, 49650, Note_on_c, 0, 67, 90
2, 49679, Note_on_c, 0, 67, 0
2, 49680, Note_on_c, 0, 68, 90
2, 49829, Note_on_c, 0, 68, 0
2, 49830, Note_on_c, 0, 67, 90
2, 49859, Note_on_c, 0, 67, 0
2, 49860, Note_on_c, 0, 65, 90
2, 49889, Note_on_c, 0, 65, 0
2, 49890, Note_on_c, 0, 67, 90
2, 49919, Note_on_c, 0, 67, 0
2, 49920, Note_on_c, 0, 68, 90
2, 49979, Note_on_c, 0, 68, 0
2, 49980, Note_on_c, 0, 58, 90
2, 50099, Note_on_c, 0, 58, 0
2, 50100, Note_on_c, 0, 63, 90
2, 50129, Note_on_c, 0, 63, 0
2, 50130, Note_on_c, 0, 65, 90
2, 50159, Note_on_c, 0, 65, 0
2, 50160, Note_on_c, 0, 67, 90
2, 50339, Note_on_c, 0, 67, 0
2, 50340, Note_on_c, 0, 69, 90
2, 50369, Note_on_c, 0, 69, 0
2, 50370, Note_on_c, 0, 70, 90
2, 50399, Note_on_c, 0, 70, 0
2, 50400, Note_on_c, 0, 72, 90
2, 50579, Note_on_c, 0, 72, 0
2, 50580, Note_on_c, 0, 66, 90
2, 50609, Note_on_c, 0, 66, 0
2, 50610, Note_on_c, 0, 67, 90
2, 50639, Note_on_c, 0, 67, 0
2, 50640, Note_on_c, 0, 69, 90
2, 50819, Note_on_c, 0, 69, 0
2, 50820, Note_on_c, 0, 62, 90
2, 50849, Note_on_c, 0, 62, 0
2, 50850, Note_on_c, 0, 64, 90
2, 50879, Note_on_c, 0, 64, 0
2, 50880, Note_on_c, 0, 66, 90
2, 50909, Note_on_c, 0, 66, 0
2, 50910, Note_on_c, 0, 67, 90
2, 50939, Note_on_c, 0, 67, 0
2, 50940, Note_on_c, 0, 69, 90
2, 50969, Note_on_c, 0, 69, 0
2, 50970, Note_on_c, 0, 66, 90
2, 50999, Note_on_c, 0, 66, 0
2, 51000, Note_on_c, 0, 67, 90
2, 51059, Note_on_c, 0, 67, 0
2, 51060, Note_on_c, 0, 62, 90
2, 51089, Note_on_c, 0, 62, 0
2, 51090, Note_on_c, 0, 54, 90
2, 51119, Note_on_c, 0, 54, 0
2, 51120, Note_on_c, 0, 55, 90
2, 51299, Note_on_c, 0, 55, 0
2, 51300, Note_on_c, 0, 63, 90
2, 51329, Note_on_c, 0, 63, 0
2, 51330, Note_on_c, 0, 54, 90
2, 51359, Note_on_c, 0, 54, 0
2, 51360, Note_on_c, 0, 55, 90
2, 51539, Note_on_c, 0, 55, 0
2, 51540, Note_on_c, 0, 62, 90
2, 51569, Note_on_c, 0, 62, 0
2, 51570, Note_on_c, 0, 54, 90
2, 51599, Note_on_c, 0, 54, 0
2, 51600, Note_on_c, 0, 55, 90
2, 51659, Note_on_c, 0, 55, 0
2, 51660, Note_on_c, 0, 63, 90
2, 51689, Note_on_c, 0, 63, 0
2, 51690, Note_on_c, 0, 54, 90
2, 51719, Note_on_c, 0, 54, 0
2, 51720, Note_on_c, 0, 55, 90
2, 51809, Note_on_c, 0, 55, 0
2, 51810, Note_on_c, 0, 63, 90
2, 51839, Note_on_c, 0, 63, 0
2, 51840, Note_on_c, 0, 54, 90
2, 51860, Note_on_c, 0, 54, 0
2, 51860, Note_on_c, 0, 55, 90
2, 51880, Note_on_c, 0, 55, 0
2, 51880, Note_on_c, 0, 54, 90
2, 51900, Note_on_c, 0, 54, 0
2, 51900, Note_on_c, 0, 55, 90
2, 51915, Note_on_c, 0, 55, 0
2, 51915, Note_on_c, 0, 54, 90
2, 51930, Note_on_c, 0, 54, 0
2, 51930, Note_on_c, 0, 55, 90
2, 51959, Note_on_c, 0, 55, 0
2, 51960, Note_on_c, 0, 55, 90
2, 51989, Note_on_c, 0, 55, 0
2, 51990, Note_on_c, 0, 50, 90
2, 52019, Note_on_c, 0, 50, 0
2, 52020, Note_on_c, 0, 51, 90
2, 52049, Note_on_c, 0, 51, 0
2, 52050, Note_on_c, 0, 48, 90
2, 52079, Note_on_c, 0, 48, 0
2, 52080, Note_on_c, 0, 50, 90
2, 52109, Note_on_c, 0, 50, 0
2, 52110, Note_on_c, 0, 55, 90
2, 52139, Note_on_c, 0, 55, 0
2, 52140, Note_on_c, 0, 51, 90
2, 52169, Note_on_c, 0, 51, 0
2, 52170, Note_on_c, 0, 48, 90
2, 52199, Note_on_c, 0, 48, 0
2, 52200, Note_on_c, 0, 50, 90
2, 52229, Note_on_c, 0, 50, 0
2, 52230, Note_on_c, 0, 45, 90
2, 52259, Note_on_c, 0, 45, 0
2, 52260, Note_on_c, 0, 46, 90
2, 52289, Note_on_c, 0, 46, 0
2, 52290, Note_on_c, 0, 42, 90
2, 52319, Note_on_c, 0, 42, 0
2, 52320, Note_on_c, 0, 43, 90
2, 52349, Note_on_c, 0, 43, 0
2, 52350, Note_on_c, 0, 50, 90
2, 52379, Note_on_c, 0, 50, 0
2, 52380, Note_on_c, 0, 46, 90
2, 52409, Note_on_c, 0, 46, 0
2, 52410, Note_on_c, 0, 43, 90
2, 52439, Note_on_c, 0, 43, 0
2, 52440, Note_on_c, 0, 51, 90
2, 52469, Note_on_c, 0, 51, 0
2, 52470, Note_on_c, 0, 48, 90
2, 52499, Note_on_c, 0, 48, 0
2, 52500, Note_on_c, 0, 55, 90
2, 52529, Note_on_c, 0, 55, 0
2, 52560, Note_on_c, 0, 38, 90
2, 52619, Note_on_c, 0, 38, 0
2, 52620, Note_on_c, 0, 54, 90
2, 52634, Note_on_c, 0, 54, 0
2, 52635, Note_on_c, 0, 52, 90
2, 52649, Note_on_c, 0, 52, 0
2, 52650, Note_on_c, 0, 54, 90
2, 52679, Note_on_c, 0, 54, 0
2, 52680, Note_on_c, 0, 55, 90
2, 52680, Note_on_c, 0, 50, 90
2, 52680, Note_on_c, 0, 43, 90
2, 52859, Note_on_c, 0, 43, 0
2, 52859, Note_on_c, 0, 50, 0
2, 52859, Note_on_c, 0, 55, 0
2, 53400, Note_on_c, 0, 65, 100
2, 54150, Note_on_c, 0, 65, 0
2, 54150, Note_on_c, 0, 67, 90
2, 54179, Note_on_c, 0, 67, 0
2, 54180, Note_on_c, 0, 65, 90
2, 54209, Note_on_c, 0, 65, 0
2, 54210, Note_on_c, 0, 63, 90
2, 54239, Note_on_c, 0, 63, 0
2, 54240, Note_on_c, 0, 65, 90
2, 54329, Note_on_c, 0, 65, 0
2, 54330, Note_on_c, 0, 67, 90
2, 54359, Note_on_c, 0, 67, 0
2, 54360, Note_on_c, 0, 57, 90
2, 54389, Note_on_c, 0, 57, 0
2, 54390, Note_on_c, 0, 55, 90
2, 54419, Note_on_c, 0, 55, 0
2, 54420, Note_on_c, 0, 53, 90
2, 54479, Note_on_c, 0, 53, 0
2, 54480, Note_on_c, 0, 60, 90
2, 54509, Note_on_c, 0, 60, 0
2, 54510, Note_on_c, 0, 58, 90
2, 54539, Note_on_c, 0, 58, 0
2, 54540, Note_on_c, 0, 57, 90
2, 54599, Note_on_c, 0, 57, 0
2, 54600, Note_on_c, 0, 63, 90
2, 55140, Note_on_c, 0, 63, 0
2, 55140, Note_on_c, 0, 60, 90
2, 55199, Note_on_c, 0, 60, 0
2, 55200, Note_on_c, 0, 63, 90
2, 55259, Note_on_c, 0, 63, 0
2, 55260, Note_on_c, 0, 65, 90
2, 55319, Note_on_c, 0, 65, 0
2, 55320, Note_on_c, 0, 69, 90
2, 55379, Note_on_c, 0, 69, 0
2, 55380, Note_on_c, 0, 70, 90
2, 55439, Note_on_c, 0, 70, 0
2, 55440, Note_on_c, 0, 72, 90
2, 55619, Note_on_c, 0, 72, 0
2, 55620, Note_on_c, 0, 70, 90
2, 55649, Note_on_c, 0, 70, 0
2, 55650, Note_on_c, 0, 69, 90
2, 55679, Note_on_c, 0, 69, 0
2, 55680, Note_on_c, 0, 70, 90
2, 55709, Note_on_c, 0, 70, 0
2, 55710, Note_on_c, 0, 69, 90
2, 55739, Note_on_c, 0, 69, 0
2, 55740, Note_on_c, 0, 67, 90
2, 55799, Note_on_c, 0, 67, 0
2, 55800, Note_on_c, 0, 67, 90
2, 55829, Note_on_c, 0, 67, 0
2, 55830, Note_on_c, 0, 65, 90
2, 56069, Note_on_c, 0, 65, 0
2, 56070, Note_on_c, 0, 67, 90
2, 56099, Note_on_c, 0, 67, 0
2, 56100, Note_on_c, 0, 69, 90
2, 56129, Note_on_c, 0, 69, 0
2, 56130, Note_on_c, 0, 70, 90
2, 56159, Note_on_c, 0, 70, 0
2, 56160, Note_on_c, 0, 72, 90
2, 56189, Note_on_c, 0, 72, 0
2, 56190, Note_on_c, 0, 74, 90
2, 56219, Note_on_c, 0, 74, 0
2, 56220, Note_on_c, 0, 69, 90
2, 56279, Note_on_c, 0, 69, 0
2, 56280, Note_on_c, 0, 70, 90
2, 57060, Note_on_c, 0, 70, 0
2, 57060, Note_on_c, 0, 67, 90
2, 57119, Note_on_c, 0, 67, 0
2, 57120, Note_on_c, 0, 64, 90
2, 57179, Note_on_c, 0, 64, 0
2, 57180, Note_on_c, 0, 60, 90
2, 57239, Note_on_c, 0, 60, 0
2, 57240, Note_on_c, 0, 58, 90
2, 57299, Note_on_c, 0, 58, 0
2, 57300, Note_on_c, 0, 57, 90
2, 57359, Note_on_c, 0, 57, 0
2, 57360, Note_on_c, 0, 58, 90
2, 57419, Note_on_c, 0, 58, 0
2, 57420, Note_on_c, 0, 55, 90
2, 57479, Note_on_c, 0, 55, 0
2, 57480, Note_on_c, 0, 52, 90
2, 57539, Note_on_c, 0, 52, 0
2, 57540, Note_on_c, 0, 48, 90
2, 57599, Note_on_c, 0, 48, 0
2, 57600, Note_on_c, 0, 52, 90
2, 57659, Note_on_c, 0, 52, 0
2, 57660, Note_on_c, 0, 55, 90
2, 57719, Note_on_c, 0, 55, 0
2, 57720, Note_on_c, 0, 58, 90
2, 57959, Note_on_c, 0, 58, 0
2, 58020, Note_on_c, 0, 55, 90
2, 58079, Note_on_c, 0, 55, 0
2, 58080, Note_on_c, 0, 58, 90
2, 58139, Note_on_c, 0, 58, 0
2, 58140, Note_on_c, 0, 60, 90
2, 58199, Note_on_c, 0, 60, 0
2, 58200, Note_on_c, 0, 64, 90
2, 58259, Note_on_c, 0, 64, 0
2, 58260, Note_on_c, 0, 65, 90
2, 58319, Note_on_c, 0, 65, 0
2, 58320, Note_on_c, 0, 67, 90
2, 58499, Note_on_c, 0, 67, 0
2, 58500, Note_on_c, 0, 65, 90
2, 58529, Note_on_c, 0, 65, 0
2, 58530, Note_on_c, 0, 64, 90
2, 58559, Note_on_c, 0, 64, 0
2, 58560, Note_on_c, 0, 65, 90
2, 58589, Note_on_c, 0, 65, 0
2, 58590, Note_on_c, 0, 64, 90
2, 58619, Note_on_c, 0, 64, 0
2, 58620, Note_on_c, 0, 62, 90
2, 58679, Note_on_c, 0, 62, 0
2, 58680, Note_on_c, 0, 60, 90
2, 58709, Note_on_c, 0, 60, 0
2, 58710, Note_on_c, 0, 65, 90
2, 58739, Note_on_c, 0, 65, 0
2, 58740, Note_on_c, 0, 64, 90
2, 58769, Note_on_c, 0, 64, 0
2, 58770, Note_on_c, 0, 62, 90
2, 58799, Note_on_c, 0, 62, 0
2, 58800, Note_on_c, 0, 60, 90
2, 58859, Note_on_c, 0, 60, 0
2, 58860, Note_on_c, 0, 58, 90
2, 58919, Note_on_c, 0, 58, 0
2, 58920, Note_on_c, 0, 57, 90
2, 58979, Note_on_c, 0, 57, 0
2, 58980, Note_on_c, 0, 53, 90
2, 59039, Note_on_c, 0, 53, 0
2, 59040, Note_on_c, 0, 69, 90
2, 59219, Note_on_c, 0, 69, 0
2, 59220, Note_on_c, 0, 67, 90
2, 59249, Note_on_c, 0, 67, 0
2, 59250, Note_on_c, 0, 65, 90
2, 59279, Note_on_c, 0, 65, 0
2, 59280, Note_on_c, 0, 67, 90
2, 59339, Note_on_c, 0, 67, 0
2, 59340, Note_on_c, 0, 69, 90
2, 59399, Note_on_c, 0, 69, 0
2, 59400, Note_on_c, 0, 62, 90
2, 59670, Note_on_c, 0, 62, 0
2, 59670, Note_on_c, 0, 60, 90
2, 59699, Note_on_c, 0, 60, 0
2, 59700, Note_on_c, 0, 58, 90
2, 59729, Note_on_c, 0, 58, 0
2, 59730, Note_on_c, 0, 57, 90
2, 59759, Note_on_c, 0, 57, 0
2, 59760, Note_on_c, 0, 58, 90
2, 59939, Note_on_c, 0, 58, 0
2, 59940, Note_on_c, 0, 64, 90
2, 59969, Note_on_c, 0, 64, 0
2, 59970, Note_on_c, 0, 65, 90
2, 59999, Note_on_c, 0, 65, 0
2, 60000, Note_on_c, 0, 67, 90
2, 60179, Note_on_c, 0, 67, 0
2, 60180, Note_on_c, 0, 65, 90
2, 60209, Note_on_c, 0, 65, 0
2, 60210, Note_on_c, 0, 64, 90
2, 60239, Note_on_c, 0, 64, 0
2, 60240, Note_on_c, 0, 65, 90
2, 60299, Note_on_c, 0, 65, 0
2, 60300, Note_on_c, 0, 68, 90
2, 60359, Note_on_c, 0, 68, 0
2, 60360, Note_on_c, 0, 70, 90
2, 60389, Note_on_c, 0, 70, 0
2, 60390, Note_on_c, 0, 67, 90
2, 60419, Note_on_c, 0, 67, 0
2, 60420, Note_on_c, 0, 65, 90
2, 60449, Note_on_c, 0, 65, 0
2, 60450, Note_on_c, 0, 64, 90
2, 60479, Note_on_c, 0, 64, 0
2, 60480, Note_on_c, 0, 65, 90
2, 60539, Note_on_c, 0, 65, 0
2, 60540, Note_on_c, 0, 69, 90
2, 60599, Note_on_c, 0, 69, 0
2, 60600, Note_on_c, 0, 73, 90
2, 60779, Note_on_c, 0, 73, 0
2, 60780, Note_on_c, 0, 70, 90
2, 60839, Note_on_c, 0, 70, 0
2, 60840, Note_on_c, 0, 68, 90
2, 61079, Note_on_c, 0, 68, 0
2, 61080, Note_on_c, 0, 67, 90
2, 61095, Note_on_c, 0, 67, 0
2, 61095, Note_on_c, 0, 68, 90
2, 61110, Note_on_c, 0, 68, 0
2, 61110, Note_on_c, 0, 67, 90
2, 61140, Note_on_c, 0, 67, 0
2, 61140, Note_on_c, 0, 65, 90
2, 61199, Note_on_c, 0, 65, 0
2, 61200, Note_on_c, 0, 67, 90
2, 61319, Note_on_c, 0, 67, 0
2, 61320, Note_on_c, 0, 65, 90
2, 62039, Note_on_c, 0, 65, 0
2, 62040, Note_on_c, 0, 65, 100
2, 62790, Note_on_c, 0, 65, 0
2, 62790, Note_on_c, 0, 67, 90
2, 62819, Note_on_c, 0, 67, 0
2, 62820, Note_on_c, 0, 65, 90
2, 62849, Note_on_c, 0, 65, 0
2, 62850, Note_on_c, 0, 63, 90
2, 62879, Note_on_c, 0, 63, 0
2, 62880, Note_on_c, 0, 65, 90
2, 62969, Note_on_c, 0, 65, 0
2, 62970, Note_on_c, 0, 67, 90
2, 62999, Note_on_c, 0, 67, 0
2, 63000, Note_on_c, 0, 57, 90
2, 63029, Note_on_c, 0, 57, 0
2, 63030, Note_on_c, 0, 55, 90
2, 63059, Note_on_c, 0, 55, 0
2, 63060, Note_on_c, 0, 53, 90
2, 63119, Note_on_c, 0, 53, 0
2, 63120, Note_on_c, 0, 60, 90
2, 63149, Note_on_c, 0, 60, 0
2, 63150, Note_on_c, 0, 58, 90
2, 63179, Note_on_c, 0, 58, 0
2, 63180, Note_on_c, 0, 57, 90
2, 63239, Note_on_c, 0, 57, 0
2, 63240, Note_on_c, 0, 63, 90
2, 63780, Note_on_c, 0, 63, 0
2, 63780, Note_on_c, 0, 60, 90
2, 63839, Note_on_c, 0, 60, 0
2, 63840, Note_on_c, 0, 63, 90
2, 63899, Note_on_c, 0, 63, 0
2, 63900, Note_on_c, 0, 65, 90
2, 63959, Note_on_c, 0, 65, 0
2, 63960, Note_on_c, 0, 69, 90
2, 64019, Note_on_c, 0, 69, 0
2, 64020, Note_on_c, 0, 70, 90
2, 64079, Note_on_c, 0, 70, 0
2, 64080, Note_on_c, 0, 72, 90
2, 64259, Note_on_c, 0, 72, 0
2, 64260, Note_on_c, 0, 70, 90
2, 64289, Note_on_c, 0, 70, 0
2, 64290, Note_on_c, 0, 69, 90
2, 64319, Note_on_c, 0, 69, 0
2, 64320, Note_on_c, 0, 70, 90
2, 64349, Note_on_c, 0, 70, 0
2, 64350, Note_on_c, 0, 69, 90
2, 64379, Note_on_c, 0, 69, 0
2, 64380, Note_on_c, 0, 67, 90
2, 64439, Note_on_c, 0, 67, 0
2, 64440, Note_on_c, 0, 67, 90
2, 64469, Note_on_c, 0, 67, 0
2, 64470, Note_on_c, 0, 65, 90
2, 64709, Note_on_c, 0, 65, 0
2, 64710, Note_on_c, 0, 67, 90
2, 64739, Note_on_c, 0, 67, 0
2, 64740, Note_on_c, 0, 69, 90
2, 64769, Note_on_c, 0, 69, 0
2, 64770, Note_on_c, 0, 70, 90
2, 64799, Note_on_c, 0, 70, 0
2, 64800, Note_on_c, 0, 72, 90
2, 64829, Note_on_c, 0, 72, 0
2, 64830, Note_on_c, 0, 74, 90
2, 64859, Note_on_c, 0, 74, 0
2, 64860, Note_on_c, 0, 69, 90
2, 64919, Note_on_c, 0, 69, 0
2, 64920, Note_on_c, 0, 70, 90
2, 65700, Note_on_c, 0, 70, 0
2, 65700, Note_on_c, 0, 67, 90
2, 65759, Note_on_c, 0, 67, 0
2, 65760, Note_on_c, 0, 64, 90
2, 65819, Note_on_c, 0, 64, 0
2, 65820, Note_on_c, 0, 60, 90
2, 65879, Note_on_c, 0, 60, 0
2, 65880, Note_on_c, 0, 58, 90
2, 65939, Note_on_c, 0, 58, 0
2, 65940, Note_on_c, 0, 57, 90
2, 65999, Note_on_c, 0, 57, 0
2, 66000, Note_on_c, 0, 58, 90
2, 66059, Note_on_c, 0, 58, 0
2, 66060, Note_on_c, 0, 55, 90
2, 66119, Note_on_c, 0, 55, 0
2, 66120, Note_on_c, 0, 52, 90
2, 66179, Note_on_c, 0, 52, 0
2, 66180, Note_on_c, 0, 48, 90
2, 66239, Note_on_c, 0, 48, 0
2, 66240, Note_on_c, 0, 52, 90
2, 66299, Note_on_c, 0, 52, 0
2, 66300, Note_on_c, 0, 55, 90
2, 66359, Note_on_c, 0, 55, 0
2, 66360, Note_on_c, 0, 58, 90
2, 66599, Note_on_c, 0, 58, 0
2, 66660, Note_on_c, 0, 55, 90
2, 66719, Note_on_c, 0, 55, 0
2, 66720, Note_on_c, 0, 58, 90
2, 66779, Note_on_c, 0, 58, 0
2, 66780, Note_on_c, 0, 60, 90
2, 66839, Note_on_c, 0, 60, 0
2, 66840, Note_on_c, 0, 64, 90
2, 66899, Note_on_c, 0, 64, 0
2, 66900, Note_on_c, 0, 65, 90
2, 66959, Note_on_c, 0, 65, 0
2, 66960, Note_on_c, 0, 67, 90
2, 67139, Note_on_c, 0, 67, 0
2, 67140, Note_on_c, 0, 65, 90
2, 67169, Note_on_c, 0, 65, 0
2, 67170, Note_on_c, 0, 64, 90
2, 67199, Note_on_c, 0, 64, 0
2, 67200, Note_on_c, 0, 65, 90
2, 67229, Note_on_c, 0, 65, 0
2, 67230, Note_on_c, 0, 64, 90
2, 67259, Note_on_c, 0, 64, 0
2, 67260, Note_on_c, 0, 62, 90
2, 67319, Note_on_c, 0, 62, 0
2, 67320, Note_on_c, 0, 60, 90
2, 67349, Note_on_c, 0, 60, 0
2, 67350, Note_on_c, 0, 65, 90
2, 67379, Note_on_c, 0, 65, 0
2, 67380, Note_on_c, 0, 64, 90
2, 67409, Note_on_c, 0, 64, 0
2, 67410, Note_on_c, 0, 62, 90
2, 67439, Note_on_c, 0, 62, 0
2, 67440, Note_on_c, 0, 60, 90
2, 67499, Note_on_c, 0, 60, 0
2, 67500, Note_on_c, 0, 58, 90
2, 67559, Note_on_c, 0, 58, 0
2, 67560, Note_on_c, 0, 57, 90
2, 67619, Note_on_c, 0, 57, 0
2, 67620, Note_on_c, 0, 53, 90
2, 67679, Note_on_c, 0, 53, 0
2, 67680, Note_on_c, 0, 69, 90
2, 67859, Note_on_c, 0, 69, 0
2, 67860, Note_on_c, 0, 67, 90
2, 67889, Note_on_c, 0, 67, 0
2, 67890, Note_on_c, 0, 65, 90
2, 67919, Note_on_c, 0, 65, 0
2, 67920, Note_on_c, 0, 67, 90
2, 67979, Note_on_c, 0, 67, 0
2, 67980, Note_on_c, 0, 69, 90
2, 68039, Note_on_c, 0, 69, 0
2, 68040, Note_on_c, 0, 62, 90
2, 68310, Note_on_c, 0, 62, 0
2, 68310, Note_on_c, 0, 60, 90
2, 68339, Note_on_c, 0, 60, 0
2, 68340, Note_on_c, 0, 58, 90
2, 68369, Note_on_c, 0, 58, 0
2, 68370, Note_on_c, 0, 57, 90
2, 68399, Note_on_c, 0, 57, 0
2, 68400, Note_on_c, 0, 58, 90
2, 68579, Note_on_c, 0, 58, 0
2, 68580, Note_on_c, 0, 64, 90
2, 68609, Note_on_c, 0, 64, 0
2, 68610, Note_on_c, 0, 65, 90
2, 68639, Note_on_c, 0, 65, 0
2, 68640, Note_on_c, 0, 67, 90
2, 68819, Note_on_c, 0, 67, 0
2, 68820, Note_on_c, 0, 65, 90
2, 68849, Note_on_c, 0, 65, 0
2, 68850, Note_on_c, 0, 64, 90
2, 68879, Note_on_c, 0, 64, 0
2, 68880, Note_on_c, 0, 65, 90
2, 68939, Note_on_c, 0, 65, 0
2, 68940, Note_on_c, 0, 68, 90
2, 68999, Note_on_c, 0, 68, 0
2, 69000, Note_on_c, 0, 70, 90
2, 69029, Note_on_c, 0, 70, 0
2, 69030, Note_on_c, 0, 67, 90
2, 69059, Note_on_c, 0, 67, 0
2, 69060, Note_on_c, 0, 65, 90
2, 69089, Note_on_c, 0, 65, 0
2, 69090, Note_on_c, 0, 64, 90
2, 69119, Note_on_c, 0, 64, 0
2, 69120, Note_on_c, 0, 65, 90
2, 69179, Note_on_c, 0, 65, 0
2, 69180, Note_on_c, 0, 69, 90
2, 69239, Note_on_c, 0, 69, 0
2, 69240, Note_on_c, 0, 73, 90
2, 69419, Note_on_c, 0, 73, 0
2, 69420, Note_on_c, 0, 70, 90
2, 69479, Note_on_c, 0, 70, 0
2, 69480, Note_on_c, 0, 68, 90
2, 69719, Note_on_c, 0, 68, 0
2, 69720, Note_on_c, 0, 67, 90
2, 69735, Note_on_c, 0, 67, 0
2, 69735, Note_on_c, 0, 68, 90
2, 69750, Note_on_c, 0, 68, 0
2, 69750, Note_on_c, 0, 67, 90
2, 69780, Note_on_c, 0, 67, 0
2, 69780, Note_on_c, 0, 65, 90
2, 69839, Note_on_c, 0, 65, 0
2, 69840, Note_on_c, 0, 67, 90
2, 69959, Note_on_c, 0, 67, 0
2, 69960, Note_on_c, 0, 65, 90
2, 70679, Note_on_c, 0, 65, 0
2, 70920, Note_on_c, 0, 60, 90
2, 71159, Note_on_c, 0, 60, 0
2, 71160, Note_on_c, 0, 62, 90
2, 71279, Note_on_c, 0, 62, 0
2, 71280, Note_on_c, 0, 63, 90
2, 71399, Note_on_c, 0, 63, 0
2, 71400, Note_on_c, 0, 59, 90
2, 71639, Note_on_c, 0, 59, 0
2, 71640, Note_on_c, 0, 65, 90
2, 72240, Note_on_c, 0, 65, 0
2, 72240, Note_on_c, 0, 56, 90
2, 72359, Note_on_c, 0, 56, 0
2, 72360, Note_on_c, 0, 55, 90
2, 72449, Note_on_c, 0, 55, 0
2, 72450, Note_on_c, 0, 57, 90
2, 72479, Note_on_c, 0, 57, 0
2, 72480, Note_on_c, 0, 59, 90
2, 72509, Note_on_c, 0, 59, 0
2, 72510, Note_on_c, 0, 60, 90
2, 72539, Note_on_c, 0, 60, 0
2, 72540, Note_on_c, 0, 62, 90
2, 72569, Note_on_c, 0, 62, 0
2, 72570, Note_on_c, 0, 63, 90
2, 72599, Note_on_c, 0, 63, 0
2, 72600, Note_on_c, 0, 65, 90
2, 72629, Note_on_c, 0, 65, 0
2, 72630, Note_on_c, 0, 67, 90
2, 72659, Note_on_c, 0, 67, 0
2, 72660, Note_on_c, 0, 68, 90
2, 72779, Note_on_c, 0, 68, 0
2, 72780, Note_on_c, 0, 67, 90
2, 72839, Note_on_c, 0, 67, 0
2, 72840, Note_on_c, 0, 65, 90
2, 72869, Note_on_c, 0, 65, 0
2, 72870, Note_on_c, 0, 63, 90
2, 72884, Note_on_c, 0, 63, 0
2, 72885, Note_on_c, 0, 65, 90
2, 72899, Note_on_c, 0, 65, 0
2, 72900, Note_on_c, 0, 63, 90
2, 72914, Note_on_c, 0, 63, 0
2, 72915, Note_on_c, 0, 65, 90
2, 72929, Note_on_c, 0, 65, 0
2, 72930, Note_on_c, 0, 63, 90
2, 72939, Note_on_c, 0, 63, 0
2, 72940, Note_on_c, 0, 65, 90
2, 72949, Note_on_c, 0, 65, 0
2, 72950, Note_on_c, 0, 63, 90
2, 72959, Note_on_c, 0, 63, 0
2, 72960, Note_on_c, 0, 65, 90
2, 72969, Note_on_c, 0, 65, 0
2, 72970, Note_on_c, 0, 63, 90
2, 72979, Note_on_c, 0, 63, 0
2, 72980, Note_on_c, 0, 65, 90
2, 72989, Note_on_c, 0, 65, 0
2, 72990, Note_on_c, 0, 63, 90
2, 72999, Note_on_c, 0, 63, 0
2, 73000, Note_on_c, 0, 65, 90
2, 73009, Note_on_c, 0, 65, 0
2, 73010, Note_on_c, 0, 63, 90
2, 73019, Note_on_c, 0, 63, 0
2, 73020, Note_on_c, 0, 65, 90
2, 73029, Note_on_c, 0, 65, 0
2, 73030, Note_on_c, 0, 63, 90
2, 73039, Note_on_c, 0, 63, 0
2, 73040, Note_on_c, 0, 65, 90
2, 73049, Note_on_c, 0, 65, 0
2, 73050, Note_on_c, 0, 63, 90
2, 73059, Note_on_c, 0, 63, 0
2, 73060, Note_on_c, 0, 65, 90
2, 73069, Note_on_c, 0, 65, 0
2, 73070, Note_on_c, 0, 63, 90
2, 73079, Note_on_c, 0, 63, 0
2, 73080, Note_on_c, 0, 65, 90
2, 73089, Note_on_c, 0, 65, 0
2, 73090, Note_on_c, 0, 63, 90
2, 73099, Note_on_c, 0, 63, 0
2, 73100, Note_on_c, 0, 65, 90
2, 73109, Note_on_c, 0, 65, 0
2, 73110, Note_on_c, 0, 63, 90
2, 73119, Note_on_c, 0, 63, 0
2, 73120, Note_on_c, 0, 65, 90
2, 73129, Note_on_c, 0, 65, 0
2, 73130, Note_on_c, 0, 63, 90
2, 73139, Note_on_c, 0, 63, 0
2, 73140, Note_on_c, 0, 65, 90
2, 73149, Note_on_c, 0, 65, 0
2, 73150, Note_on_c, 0, 63, 90
2, 73159, Note_on_c, 0, 63, 0
2, 73160, Note_on_c, 0, 65, 90
2, 73169, Note_on_c, 0, 65, 0
2, 73170, Note_on_c, 0, 63, 90
2, 73179, Note_on_c, 0, 63, 0
2, 73180, Note_on_c, 0, 65, 90
2, 73189, Note_on_c, 0, 65, 0
2, 73190, Note_on_c, 0, 63, 90
2, 73199, Note_on_c, 0, 63, 0
2, 73200, Note_on_c, 0, 62, 90
2, 73319, Note_on_c, 0, 62, 0
2, 73320, Note_on_c, 0, 60, 90
2, 73559, Note_on_c, 0, 60, 0
2, 74280, Note_on_c, 0, 60, 90
2, 74399, Note_on_c, 0, 60, 0
2, 74400, Note_on_c, 0, 63, 90
2, 74459, Note_on_c, 0, 63, 0
2, 74460, Note_on_c, 0, 62, 90
2, 74519, Note_on_c, 0, 62, 0
2, 74520, Note_on_c, 0, 63, 90
2, 74790, Note_on_c, 0, 63, 0
2, 74790, Note_on_c, 0, 62, 90
2, 74819, Note_on_c, 0, 62, 0
2, 74820, Note_on_c, 0, 60, 90
2, 74849, Note_on_c, 0, 60, 0
2, 74850, Note_on_c, 0, 62, 90
2, 74879, Note_on_c, 0, 62, 0
2, 74880, Note_on_c, 0, 64, 90
2, 74909, Note_on_c, 0, 64, 0
2, 74910, Note_on_c, 0, 66, 90
2, 74939, Note_on_c, 0, 66, 0
2, 74940, Note_on_c, 0, 67, 90
2, 74969, Note_on_c, 0, 67, 0
2, 74970, Note_on_c, 0, 69, 90
2, 74999, Note_on_c, 0, 69, 0
2, 75000, Note_on_c, 0, 70, 90
2, 75059, Note_on_c, 0, 70, 0
2, 75060, Note_on_c, 0, 72, 90
2, 75089, Note_on_c, 0, 72, 0
2, 75090, Note_on_c, 0, 70, 90
2, 75119, Note_on_c, 0, 70, 0
2, 75120, Note_on_c, 0, 69, 90
2, 75149, Note_on_c, 0, 69, 0
2, 75150, Note_on_c, 0, 70, 90
2, 75179, Note_on_c, 0, 70, 0
2, 75180, Note_on_c, 0, 72, 90
2, 75239, Note_on_c, 0, 72, 0
2, 75240, Note_on_c, 0, 67, 90
2, 75269, Note_on_c, 0, 67, 0
2, 75270, Note_on_c, 0, 66, 90
2, 75284, Note_on_c, 0, 66, 0
2, 75285, Note_on_c, 0, 67, 90
2, 75299, Note_on_c, 0, 67, 0
2, 75300, Note_on_c, 0, 66, 90
2, 75309, Note_on_c, 0, 66, 0
2, 75310, Note_on_c, 0, 67, 90
2, 75319, Note_on_c, 0, 67, 0
2, 75320, Note_on_c, 0, 66, 90
2, 75329, Note_on_c, 0, 66, 0
2, 75330, Note_on_c, 0, 67, 90
2, 75339, Note_on_c, 0, 67, 0
2, 75340, Note_on_c, 0, 66, 90
2, 75349, Note_on_c, 0, 66, 0
2, 75350, Note_on_c, 0, 67, 90
2, 75359, Note_on_c, 0, 67, 0
2, 75360, Note_on_c, 0, 66, 90
2, 75369, Note_on_c, 0, 66, 0
2, 75370, Note_on_c, 0, 67, 90
2, 75379, Note_on_c, 0, 67, 0
2, 75380, Note_on_c, 0, 66, 90
2, 75389, Note_on_c, 0, 66, 0
2, 75390, Note_on_c, 0, 67, 90
2, 75399, Note_on_c, 0, 67, 0
2, 75400, Note_on_c, 0, 66, 90
2, 75409, Note_on_c, 0, 66, 0
2, 75410, Note_on_c, 0, 67, 90
2, 75419, Note_on_c, 0, 67, 0
2, 75420, Note_on_c, 0, 66, 90
2, 75429, Note_on_c, 0, 66, 0
2, 75430, Note_on_c, 0, 67, 90
2, 75439, Note_on_c, 0, 67, 0
2, 75440, Note_on_c, 0, 66, 90
2, 75449, Note_on_c, 0, 66, 0
2, 75450, Note_on_c, 0, 67, 90
2, 75459, Note_on_c, 0, 67, 0
2, 75460, Note_on_c, 0, 66, 90
2, 75469, Note_on_c, 0, 66, 0
2, 75470, Note_on_c, 0, 67, 90
2, 75479, Note_on_c, 0, 67, 0
2, 75480, Note_on_c, 0, 66, 90
2, 75489, Note_on_c, 0, 66, 0
2, 75490, Note_on_c, 0, 67, 90
2, 75499, Note_on_c, 0, 67, 0
2, 75500, Note_on_c, 0, 66, 90
2, 75509, Note_on_c, 0, 66, 0
2, 75510, Note_on_c, 0, 67, 90
2, 75519, Note_on_c, 0, 67, 0
2, 75520, Note_on_c, 0, 66, 90
2, 75529, Note_on_c, 0, 66, 0
2, 75530, Note_on_c, 0, 67, 90
2, 75539, Note_on_c, 0, 67, 0
2, 75540, Note_on_c, 0, 66, 90
2, 75549, Note_on_c, 0, 66, 0
2, 75550, Note_on_c, 0, 67, 90
2, 75559, Note_on_c, 0, 67, 0
2, 75560, Note_on_c, 0, 66, 90
2, 75569, Note_on_c, 0, 66, 0
2, 75570, Note_on_c, 0, 67, 90
2, 75579, Note_on_c, 0, 67, 0
2, 75580, Note_on_c, 0, 66, 90
2, 75589, Note_on_c, 0, 66, 0
2, 75590, Note_on_c, 0, 67, 90
2, 75599, Note_on_c, 0, 67, 0
2, 75600, Note_on_c, 0, 67, 90
2, 75719, Note_on_c, 0, 67, 0
2, 75720, Note_on_c, 0, 67, 90
2, 76440, Note_on_c, 0, 67, 0
2, 76680, Note_on_c, 0, 67, 90
2, 76799, Note_on_c, 0, 67, 0
2, 76800, Note_on_c, 0, 69, 90
2, 76919, Note_on_c, 0, 69, 0
2, 76920, Note_on_c, 0, 69, 90
2, 76979, Note_on_c, 0, 69, 0
2, 76980, Note_on_c, 0, 70, 90
2, 76994, Note_on_c, 0, 70, 0
2, 76995, Note_on_c, 0, 69, 90
2, 77009, Note_on_c, 0, 69, 0
2, 77010, Note_on_c, 0, 67, 90
2, 77024, Note_on_c, 0, 67, 0
2, 77025, Note_on_c, 0, 69, 90
2, 77039, Note_on_c, 0, 69, 0
2, 77040, Note_on_c, 0, 70, 90
2, 77159, Note_on_c, 0, 70, 0
2, 77160, Note_on_c, 0, 65, 90
2, 77219, Note_on_c, 0, 65, 0
2, 77220, Note_on_c, 0, 64, 90
2, 77939, Note_on_c, 0, 64, 0
2, 77940, Note_on_c, 0, 67, 90
2, 77999, Note_on_c, 0, 67, 0
2, 78000, Note_on_c, 0, 70, 90
2, 78059, Note_on_c, 0, 70, 0
2, 78060, Note_on_c, 0, 69, 90
2, 78119, Note_on_c, 0, 69, 0
2, 78120, Note_on_c, 0, 67, 90
2, 78179, Note_on_c, 0, 67, 0
2, 78180, Note_on_c, 0, 65, 90
2, 78239, Note_on_c, 0, 65, 0
2, 78240, Note_on_c, 0, 64, 90
2, 78299, Note_on_c, 0, 64, 0
2, 78300, Note_on_c, 0, 62, 90
2, 78359, Note_on_c, 0, 62, 0
2, 78360, Note_on_c, 0, 60, 90
2, 78419, Note_on_c, 0, 60, 0
2, 78420, Note_on_c, 0, 58, 90
2, 78479, Note_on_c, 0, 58, 0
2, 78480, Note_on_c, 0, 57, 90
2, 78539, Note_on_c, 0, 57, 0
2, 78540, Note_on_c, 0, 58, 90
2, 78599, Note_on_c, 0, 58, 0
2, 78600, Note_on_c, 0, 58, 90
2, 78659, Note_on_c, 0, 58, 0
2, 78660, Note_on_c, 0, 57, 90
2, 78674, Note_on_c, 0, 57, 0
2, 78675, Note_on_c, 0, 58, 90
2, 78689, Note_on_c, 0, 58, 0
2, 78690, Note_on_c, 0, 57, 90
2, 78704, Note_on_c, 0, 57, 0
2, 78705, Note_on_c, 0, 58, 90
2, 78719, Note_on_c, 0, 58, 0
2, 78720, Note_on_c, 0, 57, 90
2, 78734, Note_on_c, 0, 57, 0
2, 78735, Note_on_c, 0, 58, 90
2, 78744, Note_on_c, 0, 58, 0
2, 78745, Note_on_c, 0, 57, 90
2, 78754, Note_on_c, 0, 57, 0
2, 78755, Note_on_c, 0, 58, 90
2, 78764, Note_on_c, 0, 58, 0
2, 78765, Note_on_c, 0, 57, 90
2, 78774, Note_on_c, 0, 57, 0
2, 78775, Note_on_c, 0, 58, 90
2, 78784, Note_on_c, 0, 58, 0
2, 78785, Note_on_c, 0, 57, 90
2, 78794, Note_on_c, 0, 57, 0
2, 78795, Note_on_c, 0, 58, 90
2, 78804, Note_on_c, 0, 58, 0
2, 78805, Note_on_c, 0, 57, 90
2, 78814, Note_on_c, 0, 57, 0
2, 78815, Note_on_c, 0, 58, 90
2, 78824, Note_on_c, 0, 58, 0
2, 78825, Note_on_c, 0, 57, 90
2, 78834, Note_on_c, 0, 57, 0
2, 78835, Note_on_c, 0, 58, 90
2, 78844, Note_on_c, 0, 58, 0
2, 78845, Note_on_c, 0, 57, 90
2, 78854, Note_on_c, 0, 57, 0
2, 78855, Note_on_c, 0, 58, 90
2, 78864, Note_on_c, 0, 58, 0
2, 78865, Note_on_c, 0, 57, 90
2, 78874, Note_on_c, 0, 57, 0
2, 78875, Note_on_c, 0, 58, 90
2, 78884, Note_on_c, 0, 58, 0
2, 78885, Note_on_c, 0, 57, 90
2, 78894, Note_on_c, 0, 57, 0
2, 78895, Note_on_c, 0, 58, 90
2, 78904, Note_on_c, 0, 58, 0
2, 78905, Note_on_c, 0, 57, 90
2, 78914, Note_on_c, 0, 57, 0
2, 78915, Note_on_c, 0, 58, 90
2, 78924, Note_on_c, 0, 58, 0
2, 78925, Note_on_c, 0, 57, 90
2, 78934, Note_on_c, 0, 57, 0
2, 78935, Note_on_c, 0, 58, 90
2, 78944, Note_on_c, 0, 58, 0
2, 78945, Note_on_c, 0, 57, 90
2, 78954, Note_on_c, 0, 57, 0
2, 78960, Note_on_c, 0, 55, 90
2, 79080, Note_on_c, 0, 55, 0
2, 79080, Note_on_c, 0, 53, 90
2, 79320, Note_on_c, 0, 53, 0
2, 79560, Note_on_c, 0, 65, 90
2, 80100, Note_on_c, 0, 65, 0
2, 80100, Note_on_c, 0, 68, 90
2, 80159, Note_on_c, 0, 68, 0
2, 80160, Note_on_c, 0, 67, 90
2, 80219, Note_on_c, 0, 67, 0
2, 80220, Note_on_c, 0, 65, 90
2, 80279, Note_on_c, 0, 65, 0
2, 80280, Note_on_c, 0, 63, 90
2, 80339, Note_on_c, 0, 63, 0
2, 80340, Note_on_c, 0, 62, 90
2, 80399, Note_on_c, 0, 62, 0
2, 80400, Note_on_c, 0, 60, 90
2, 80459, Note_on_c, 0, 60, 0
2, 80460, Note_on_c, 0, 59, 90
2, 80519, Note_on_c, 0, 59, 0
2, 80520, Note_on_c, 0, 57, 90
2, 80579, Note_on_c, 0, 57, 0
2, 80580, Note_on_c, 0, 55, 90
2, 80639, Note_on_c, 0, 55, 0
2, 80640, Note_on_c, 0, 57, 90
2, 80699, Note_on_c, 0, 57, 0
2, 80700, Note_on_c, 0, 59, 90
2, 80759, Note_on_c, 0, 59, 0
2, 80760, Note_on_c, 0, 60, 90
2, 80819, Note_on_c, 0, 60, 0
2, 80820, Note_on_c, 0, 62, 90
2, 80879, Note_on_c, 0, 62, 0
2, 80880, Note_on_c, 0, 60, 90
2, 80939, Note_on_c, 0, 60, 0
2, 80940, Note_on_c, 0, 62, 90
2, 80999, Note_on_c, 0, 62, 0
2, 81000, Note_on_c, 0, 63, 90
2, 81014, Note_on_c, 0, 63, 0
2, 81015, Note_on_c, 0, 62, 90
2, 81029, Note_on_c, 0, 62, 0
2, 81030, Note_on_c, 0, 63, 90
2, 81039, Note_on_c, 0, 63, 0
2, 81040, Note_on_c, 0, 62, 90
2, 81049, Note_on_c, 0, 62, 0
2, 81050, Note_on_c, 0, 63, 90
2, 81059, Note_on_c, 0, 63, 0
2, 81060, Note_on_c, 0, 62, 90
2, 81069, Note_on_c, 0, 62, 0
2, 81070, Note_on_c, 0, 63, 90
2, 81079, Note_on_c, 0, 63, 0
2, 81080, Note_on_c, 0, 62, 90
2, 81089, Note_on_c, 0, 62, 0
2, 81090, Note_on_c, 0, 63, 90
2, 81099, Note_on_c, 0, 63, 0
2, 81100, Note_on_c, 0, 62, 90
2, 81109, Note_on_c, 0, 62, 0
2, 81110, Note_on_c, 0, 63, 90
2, 81119, Note_on_c, 0, 63, 0
2, 81120, Note_on_c, 0, 62, 90
2, 81129, Note_on_c, 0, 62, 0
2, 81130, Note_on_c, 0, 63, 90
2, 81139, Note_on_c, 0, 63, 0
2, 81140, Note_on_c, 0, 62, 90
2, 81149, Note_on_c, 0, 62, 0
2, 81150, Note_on_c, 0, 63, 90
2, 81159, Note_on_c, 0, 63, 0
2, 81160, Note_on_c, 0, 62, 90
2, 81169, Note_on_c, 0, 62, 0
2, 81170, Note_on_c, 0, 63, 90
2, 81179, Note_on_c, 0, 63, 0
2, 81180, Note_on_c, 0, 60, 90
2, 81209, Note_on_c, 0, 60, 0
2, 81210, Note_on_c, 0, 62, 90
2, 81239, Note_on_c, 0, 62, 0
2, 81240, Note_on_c, 0, 63, 90
2, 81299, Note_on_c, 0, 63, 0
2, 81300, Note_on_c, 0, 62, 90
2, 81359, Note_on_c, 0, 62, 0
2, 81360, Note_on_c, 0, 60, 90
2, 81419, Note_on_c, 0, 60, 0
2, 81420, Note_on_c, 0, 62, 90
2, 81449, Note_on_c, 0, 62, 0
2, 81450, Note_on_c, 0, 63, 90
2, 81479, Note_on_c, 0, 63, 0
2, 81480, Note_on_c, 0, 57, 90
2, 81599, Note_on_c, 0, 57, 0
2, 81600, Note_on_c, 0, 55, 90
2, 81659, Note_on_c, 0, 55, 0
2, 81660, Note_on_c, 0, 53, 90
2, 81719, Note_on_c, 0, 53, 0
2, 81720, Note_on_c, 0, 53, 90
2, 81899, Note_on_c, 0, 53, 0
2, 81900, Note_on_c, 0, 55, 90
2, 81929, Note_on_c, 0, 55, 0
2, 81930, Note_on_c, 0, 57, 90
2, 81959, Note_on_c, 0, 57, 0
2, 81960, Note_on_c, 0, 58, 90
2, 81989, Note_on_c, 0, 58, 0
2, 81990, Note_on_c, 0, 60, 90
2, 82019, Note_on_c, 0, 60, 0
2, 82020, Note_on_c, 0, 58, 90
2, 82049, Note_on_c, 0, 58, 0
2, 82050, Note_on_c, 0, 57, 90
2, 82079, Note_on_c, 0, 57, 0
2, 82080, Note_on_c, 0, 58, 90
2, 82380, Note_on_c, 0, 58, 0
2, 82380, Note_on_c, 0, 70, 90
2, 82439, Note_on_c, 0, 70, 0
2, 82440, Note_on_c, 0, 62, 90
2, 82484, Note_on_c, 0, 62, 0
2, 82485, Note_on_c, 0, 63, 90
2, 82499, Note_on_c, 0, 63, 0
2, 82500, Note_on_c, 0, 62, 90
2, 82529, Note_on_c, 0, 62, 0
2, 82530, Note_on_c, 0, 60, 90
2, 82559, Note_on_c, 0, 60, 0
2, 82560, Note_on_c, 0, 58, 90
2, 82589, Note_on_c, 0, 58, 0
2, 82590, Note_on_c, 0, 60, 90
2, 82619, Note_on_c, 0, 60, 0
2, 82620, Note_on_c, 0, 58, 90
2, 82649, Note_on_c, 0, 58, 0
2, 82650, Note_on_c, 0, 60, 90
2, 82679, Note_on_c, 0, 60, 0
2, 82680, Note_on_c, 0, 62, 90
2, 82689, Note_on_c, 0, 62, 0
2, 82690, Note_on_c, 0, 60, 90
2, 82699, Note_on_c, 0, 60, 0
2, 82700, Note_on_c, 0, 62, 90
2, 82709, Note_on_c, 0, 62, 0
2, 82710, Note_on_c, 0, 60, 90
2, 82719, Note_on_c, 0, 60, 0
2, 82720, Note_on_c, 0, 62, 90
2, 82729, Note_on_c, 0, 62, 0
2, 82730, Note_on_c, 0, 60, 90
2, 82739, Note_on_c, 0, 60, 0
2, 82740, Note_on_c, 0, 62, 90
2, 82749, Note_on_c, 0, 62, 0
2, 82750, Note_on_c, 0, 60, 90
2, 82759, Note_on_c, 0, 60, 0
2, 82760, Note_on_c, 0, 62, 90
2, 82769, Note_on_c, 0, 62, 0
2, 82770, Note_on_c, 0, 60, 90
2, 82779, Note_on_c, 0, 60, 0
2, 82780, Note_on_c, 0, 62, 90
2, 82789, Note_on_c, 0, 62, 0
2, 82790, Note_on_c, 0, 60, 90
2, 82799, Note_on_c, 0, 60, 0
2, 82800, Note_on_c, 0, 62, 90
2, 82809, Note_on_c, 0, 62, 0
2, 82810, Note_on_c, 0, 60, 90
2, 82819, Note_on_c, 0, 60, 0
2, 82820, Note_on_c, 0, 62, 90
2, 82829, Note_on_c, 0, 62, 0
2, 82830, Note_on_c, 0, 60, 90
2, 82839, Note_on_c, 0, 60, 0
2, 82840, Note_on_c, 0, 62, 90
2, 82849, Note_on_c, 0, 62, 0
2, 82850, Note_on_c, 0, 60, 90
2, 82859, Note_on_c, 0, 60, 0
2, 82860, Note_on_c, 0, 58, 90
2, 82889, Note_on_c, 0, 58, 0
2, 82890, Note_on_c, 0, 60, 90
2, 82919, Note_on_c, 0, 60, 0
2, 82920, Note_on_c, 0, 58, 90
2, 83639, Note_on_c, 0, 58, 0
2, 83880, Note_on_c, 0, 60, 90
2, 84119, Note_on_c, 0, 60, 0
2, 84120, Note_on_c, 0, 62, 90
2, 84239, Note_on_c, 0, 62, 0
2, 84240, Note_on_c, 0, 63, 90
2, 84359, Note_on_c, 0, 63, 0
2, 84360, Note_on_c, 0, 59, 90
2, 84599, Note_on_c, 0, 59, 0
2, 84600, Note_on_c, 0, 65, 90
2, 85200, Note_on_c, 0, 65, 0
2, 85200, Note_on_c, 0, 56, 90
2, 85319, Note_on_c, 0, 56, 0
2, 85320, Note_on_c, 0, 55, 90
2, 85409, Note_on_c, 0, 55, 0
2, 85410, Note_on_c, 0, 57, 90
2, 85439, Note_on_c, 0, 57, 0
2, 85440, Note_on_c, 0, 59, 90
2, 85469, Note_on_c, 0, 59, 0
2, 85470, Note_on_c, 0, 60, 90
2, 85499, Note_on_c, 0, 60, 0
2, 85500, Note_on_c, 0, 62, 90
2, 85529, Note_on_c, 0, 62, 0
2, 85530, Note_on_c, 0, 63, 90
2, 85559, Note_on_c, 0, 63, 0
2, 85560, Note_on_c, 0, 65, 90
2, 85589, Note_on_c, 0, 65, 0
2, 85590, Note_on_c, 0, 67, 90
2, 85619, Note_on_c, 0, 67, 0
2, 85620, Note_on_c, 0, 68, 90
2, 85739, Note_on_c, 0, 68, 0
2, 85740, Note_on_c, 0, 67, 90
2, 85799, Note_on_c, 0, 67, 0
2, 85800, Note_on_c, 0, 65, 90
2, 85829, Note_on_c, 0, 65, 0
2, 85830, Note_on_c, 0, 63, 90
2, 85844, Note_on_c, 0, 63, 0
2, 85845, Note_on_c, 0, 65, 90
2, 85859, Note_on_c, 0, 65, 0
2, 85860, Note_on_c, 0, 63, 90
2, 85874, Note_on_c, 0, 63, 0
2, 85875, Note_on_c, 0, 65, 90
2, 85889, Note_on_c, 0, 65, 0
2, 85890, Note_on_c, 0, 63, 90
2, 85899, Note_on_c, 0, 63, 0
2, 85900, Note_on_c, 0, 65, 90
2, 85909, Note_on_c, 0, 65, 0
2, 85910, Note_on_c, 0, 63, 90
2, 85919, Note_on_c, 0, 63, 0
2, 85920, Note_on_c, 0, 65, 90
2, 85929, Note_on_c, 0, 65, 0
2, 85930, Note_on_c, 0, 63, 90
2, 85939, Note_on_c, 0, 63, 0
2, 85940, Note_on_c, 0, 65, 90
2, 85949, Note_on_c, 0, 65, 0
2, 85950, Note_on_c, 0, 63, 90
2, 85959, Note_on_c, 0, 63, 0
2, 85960, Note_on_c, 0, 65, 90
2, 85969, Note_on_c, 0, 65, 0
2, 85970, Note_on_c, 0, 63, 90
2, 85979, Note_on_c, 0, 63, 0
2, 85980, Note_on_c, 0, 65, 90
2, 85989, Note_on_c, 0, 65, 0
2, 85990, Note_on_c, 0, 63, 90
2, 85999, Note_on_c, 0, 63, 0
2, 86000, Note_on_c, 0, 65, 90
2, 86009, Note_on_c, 0, 65, 0
2, 86010, Note_on_c, 0, 63, 90
2, 86019, Note_on_c, 0, 63, 0
2, 86020, Note_on_c, 0, 65, 90
2, 86029, Note_on_c, 0, 65, 0
2, 86030, Note_on_c, 0, 63, 90
2, 86039, Note_on_c, 0, 63, 0
2, 86040, Note_on_c, 0, 65, 90
2, 86049, Note_on_c, 0, 65, 0
2, 86050, Note_on_c, 0, 63, 90
2, 86059, Note_on_c, 0, 63, 0
2, 86060, Note_on_c, 0, 65, 90
2, 86069, Note_on_c, 0, 65, 0
2, 86070, Note_on_c, 0, 63, 90
2, 86079, Note_on_c, 0, 63, 0
2, 86080, Note_on_c, 0, 65, 90
2, 86089, Note_on_c, 0, 65, 0
2, 86090, Note_on_c, 0, 63, 90
2, 86099, Note_on_c, 0, 63, 0
2, 86100, Note_on_c, 0, 65, 90
2, 86109, Note_on_c, 0, 65, 0
2, 86110, Note_on_c, 0, 63, 90
2, 86119, Note_on_c, 0, 63, 0
2, 86120, Note_on_c, 0, 65, 90
2, 86129, Note_on_c, 0, 65, 0
2, 86130, Note_on_c, 0, 63, 90
2, 86139, Note_on_c, 0, 63, 0
2, 86140, Note_on_c, 0, 65, 90
2, 86149, Note_on_c, 0, 65, 0
2, 86150, Note_on_c, 0, 63, 90
2, 86159, Note_on_c, 0, 63, 0
2, 86160, Note_on_c, 0, 62, 90
2, 86279, Note_on_c, 0, 62, 0
2, 86280, Note_on_c, 0, 60, 90
2, 86519, Note_on_c, 0, 60, 0
2, 87240, Note_on_c, 0, 60, 90
2, 87359, Note_on_c, 0, 60, 0
2, 87360, Note_on_c, 0, 63, 90
2, 87419, Note_on_c, 0, 63, 0
2, 87420, Note_on_c, 0, 62, 90
2, 87479, Note_on_c, 0, 62, 0
2, 87480, Note_on_c, 0, 63, 90
2, 87750, Note_on_c, 0, 63, 0
2, 87750, Note_on_c, 0, 62, 90
2, 87779, Note_on_c, 0, 62, 0
2, 87780, Note_on_c, 0, 60, 90
2, 87809, Note_on_c, 0, 60, 0
2, 87810, Note_on_c, 0, 62, 90
2, 87839, Note_on_c, 0, 62, 0
2, 87840, Note_on_c, 0, 64, 90
2, 87869, Note_on_c, 0, 64, 0
2, 87870, Note_on_c, 0, 66, 90
2, 87899, Note_on_c, 0, 66, 0
2, 87900, Note_on_c, 0, 67, 90
2, 87929, Note_on_c, 0, 67, 0
2, 87930, Note_on_c, 0, 69, 90
2, 87959, Note_on_c, 0, 69, 0
2, 87960, Note_on_c, 0, 70, 90
2, 88019, Note_on_c, 0, 70, 0
2, 88020, Note_on_c, 0, 72, 90
2, 88049, Note_on_c, 0, 72, 0
2, 88050, Note_on_c, 0, 70, 90
2, 88079, Note_on_c, 0, 70, 0
2, 88080, Note_on_c, 0, 69, 90
2, 88109, Note_on_c, 0, 69, 0
2, 88110, Note_on_c, 0, 70, 90
2, 88139, Note_on_c, 0, 70, 0
2, 88140, Note_on_c, 0, 72, 90
2, 88199, Note_on_c, 0, 72, 0
2, 88200, Note_on_c, 0, 67, 90
2, 88229, Note_on_c, 0, 67, 0
2, 88230, Note_on_c, 0, 66, 90
2, 88244, Note_on_c, 0, 66, 0
2, 88245, Note_on_c, 0, 67, 90
2, 88259, Note_on_c, 0, 67, 0
2, 88260, Note_on_c, 0, 66, 90
2, 88269, Note_on_c, 0, 66, 0
2, 88270, Note_on_c, 0, 67, 90
2, 88279, Note_on_c, 0, 67, 0
2, 88280, Note_on_c, 0, 66, 90
2, 88289, Note_on_c, 0, 66, 0
2, 88290, Note_on_c, 0, 67, 90
2, 88299, Note_on_c, 0, 67, 0
2, 88300, Note_on_c, 0, 66, 90
2, 88309, Note_on_c, 0, 66, 0
2, 88310, Note_on_c, 0, 67, 90
2, 88319, Note_on_c, 0, 67, 0
2, 88320, Note_on_c, 0, 66, 90
2, 88329, Note_on_c, 0, 66, 0
2, 88330, Note_on_c, 0, 67, 90
2, 88339, Note_on_c, 0, 67, 0
2, 88340, Note_on_c, 0, 66, 90
2, 88349, Note_on_c, 0, 66, 0
2, 88350, Note_on_c, 0, 67, 90
2, 88359, Note_on_c, 0, 67, 0
2, 88360, Note_on_c, 0, 66, 90
2, 88369, Note_on_c, 0, 66, 0
2, 88370, Note_on_c, 0, 67, 90
2, 88379, Note_on_c, 0, 67, 0
2, 88380, Note_on_c, 0, 66, 90
2, 88389, Note_on_c, 0, 66, 0
2, 88390, Note_on_c, 0, 67, 90
2, 88399, Note_on_c, 0, 67, 0
2, 88400, Note_on_c, 0, 66, 90
2, 88409, Note_on_c, 0, 66, 0
2, 88410, Note_on_c, 0, 67, 90
2, 88419, Note_on_c, 0, 67, 0
2, 88420, Note_on_c, 0, 66, 90
2, 88429, Note_on_c, 0, 66, 0
2, 88430, Note_on_c, 0, 67, 90
2, 88439, Note_on_c, 0, 67, 0
2, 88440, Note_on_c, 0, 66, 90
2, 88449, Note_on_c, 0, 66, 0
2, 88450, Note_on_c, 0, 67, 90
2, 88459, Note_on_c, 0, 67, 0
2, 88460, Note_on_c, 0, 66, 90
2, 88469, Note_on_c, 0, 66, 0
2, 88470, Note_on_c, 0, 67, 90
2, 88479, Note_on_c, 0, 67, 0
2, 88480, Note_on_c, 0, 66, 90
2, 88489, Note_on_c, 0, 66, 0
2, 88490, Note_on_c, 0, 67, 90
2, 88499, Note_on_c, 0, 67, 0
2, 88500, Note_on_c, 0, 66, 90
2, 88509, Note_on_c, 0, 66, 0
2, 88510, Note_on_c, 0, 67, 90
2, 88519, Note_on_c, 0, 67, 0
2, 88520, Note_on_c, 0, 66, 90
2, 88529, Note_on_c, 0, 66, 0
2, 88530, Note_on_c, 0, 67, 90
2, 88539, Note_on_c, 0, 67, 0
2, 88540, Note_on_c, 0, 66, 90
2, 88549, Note_on_c, 0, 66, 0
2, 88550, Note_on_c, 0, 67, 90
2, 88559, Note_on_c, 0, 67, 0
2, 88560, Note_on_c, 0, 67, 90
2, 88679, Note_on_c, 0, 67, 0
2, 88680, Note_on_c, 0, 67, 90
2, 89400, Note_on_c, 0, 67, 0
2, 89640, Note_on_c, 0, 67, 90
2, 89759, Note_on_c, 0, 67, 0
2, 89760, Note_on_c, 0, 69, 90
2, 89879, Note_on_c, 0, 69, 0
2, 89880, Note_on_c, 0, 69, 90
2, 89939, Note_on_c, 0, 69, 0
2, 89940, Note_on_c, 0, 70, 90
2, 89954, Note_on_c, 0, 70, 0
2, 89955, Note_on_c, 0, 69, 90
2, 89969, Note_on_c, 0, 69, 0
2, 89970, Note_on_c, 0, 67, 90
2, 89984, Note_on_c, 0, 67, 0
2, 89985, Note_on_c, 0, 69, 90
2, 89999, Note_on_c, 0, 69, 0
2, 90000, Note_on_c, 0, 70, 90
2, 90119, Note_on_c, 0, 70, 0
2, 90120, Note_on_c, 0, 65, 90
2, 90179, Note_on_c, 0, 65, 0
2, 90180, Note_on_c, 0, 64, 90
2, 90899, Note_on_c, 0, 64, 0
2, 90900, Note_on_c, 0, 67, 90
2, 90959, Note_on_c, 0, 67, 0
2, 90960, Note_on_c, 0, 70, 90
2, 91019, Note_on_c, 0, 70, 0
2, 91020, Note_on_c, 0, 69, 90
2, 91079, Note_on_c, 0, 69, 0
2, 91080, Note_on_c, 0, 67, 90
2, 91139, Note_on_c, 0, 67, 0
2, 91140, Note_on_c, 0, 65, 90
2, 91199, Note_on_c, 0, 65, 0
2, 91200, Note_on_c, 0, 64, 90
2, 91259, Note_on_c, 0, 64, 0
2, 91260, Note_on_c, 0, 62, 90
2, 91319, Note_on_c, 0, 62, 0
2, 91320, Note_on_c, 0, 60, 90
2, 91379, Note_on_c, 0, 60, 0
2, 91380, Note_on_c, 0, 58, 90
2, 91439, Note_on_c, 0, 58, 0
2, 91440, Note_on_c, 0, 57, 90
2, 91499, Note_on_c, 0, 57, 0
2, 91500, Note_on_c, 0, 58, 90
2, 91559, Note_on_c, 0, 58, 0
2, 91560, Note_on_c, 0, 58, 90
2, 91619, Note_on_c, 0, 58, 0
2, 91620, Note_on_c, 0, 57, 90
2, 91634, Note_on_c, 0, 57, 0
2, 91635, Note_on_c, 0, 58, 90
2, 91649, Note_on_c, 0, 58, 0
2, 91650, Note_on_c, 0, 57, 90
2, 91664, Note_on_c, 0, 57, 0
2, 91665, Note_on_c, 0, 58, 90
2, 91679, Note_on_c, 0, 58, 0
2, 91680, Note_on_c, 0, 57, 90
2, 91694, Note_on_c, 0, 57, 0
2, 91695, Note_on_c, 0, 58, 90
2, 91704, Note_on_c, 0, 58, 0
2, 91705, Note_on_c, 0, 57, 90
2, 91714, Note_on_c, 0, 57, 0
2, 91715, Note_on_c, 0, 58, 90
2, 91724, Note_on_c, 0, 58, 0
2, 91725, Note_on_c, 0, 57, 90
2, 91734, Note_on_c, 0, 57, 0
2, 91735, Note_on_c, 0, 58, 90
2, 91744, Note_on_c, 0, 58, 0
2, 91745, Note_on_c, 0, 57, 90
2, 91754, Note_on_c, 0, 57, 0
2, 91755, Note_on_c, 0, 58, 90
2, 91764, Note_on_c, 0, 58, 0
2, 91765, Note_on_c, 0, 57, 90
2, 91774, Note_on_c, 0, 57, 0
2, 91775, Note_on_c, 0, 58, 90
2, 91784, Note_on_c, 0, 58, 0
2, 91785, Note_on_c, 0, 57, 90
2, 91794, Note_on_c, 0, 57, 0
2, 91795, Note_on_c, 0, 58, 90
2, 91804, Note_on_c, 0, 58, 0
2, 91805, Note_on_c, 0, 57, 90
2, 91814, Note_on_c, 0, 57, 0
2, 91815, Note_on_c, 0, 58, 90
2, 91824, Note_on_c, 0, 58, 0
2, 91825, Note_on_c, 0, 57, 90
2, 91834, Note_on_c, 0, 57, 0
2, 91835, Note_on_c, 0, 58, 90
2, 91844, Note_on_c, 0, 58, 0
2, 91845, Note_on_c, 0, 57, 90
2, 91854, Note_on_c, 0, 57, 0
2, 91855, Note_on_c, 0, 58, 90
2, 91864, Note_on_c, 0, 58, 0
2, 91865, Note_on_c, 0, 57, 90
2, 91874, Note_on_c, 0, 57, 0
2, 91875, Note_on_c, 0, 58, 90
2, 91884, Note_on_c, 0, 58, 0
2, 91885, Note_on_c, 0, 57, 90
2, 91894, Note_on_c, 0, 57, 0
2, 91895, Note_on_c, 0, 58, 90
2, 91904, Note_on_c, 0, 58, 0
2, 91905, Note_on_c, 0, 57, 90
2, 91914, Note_on_c, 0, 57, 0
2, 91920, Note_on_c, 0, 55, 90
2, 92040, Note_on_c, 0, 55, 0
2, 92040, Note_on_c, 0, 53, 90
2, 92280, Note_on_c, 0, 53, 0
2, 92520, Note_on_c, 0, 65, 90
2, 93060, Note_on_c, 0, 65, 0
2, 93060, Note_on_c, 0, 68, 90
2, 93119, Note_on_c, 0, 68, 0
2, 93120, Note_on_c, 0, 67, 90
2, 93179, Note_on_c, 0, 67, 0
2, 93180, Note_on_c, 0, 65, 90
2, 93239, Note_on_c, 0, 65, 0
2, 93240, Note_on_c, 0, 63, 90
2, 93299, Note_on_c, 0, 63, 0
2, 93300, Note_on_c, 0, 62, 90
2, 93359, Note_on_c, 0, 62, 0
2, 93360, Note_on_c, 0, 60, 90
2, 93419, Note_on_c, 0, 60, 0
2, 93420, Note_on_c, 0, 59, 90
2, 93479, Note_on_c, 0, 59, 0
2, 93480, Note_on_c, 0, 57, 90
2, 93539, Note_on_c, 0, 57, 0
2, 93540, Note_on_c, 0, 55, 90
2, 93599, Note_on_c, 0, 55, 0
2, 93600, Note_on_c, 0, 57, 90
2, 93659, Note_on_c, 0, 57, 0
2, 93660, Note_on_c, 0, 59, 90
2, 93719, Note_on_c, 0, 59, 0
2, 93720, Note_on_c, 0, 60, 90
2, 93779, Note_on_c, 0, 60, 0
2, 93780, Note_on_c, 0, 62, 90
2, 93839, Note_on_c, 0, 62, 0
2, 93840, Note_on_c, 0, 60, 90
2, 93899, Note_on_c, 0, 60, 0
2, 93900, Note_on_c, 0, 62, 90
2, 93959, Note_on_c, 0, 62, 0
2, 93960, Note_on_c, 0, 63, 90
2, 93974, Note_on_c, 0, 63, 0
2, 93975, Note_on_c, 0, 62, 90
2, 93989, Note_on_c, 0, 62, 0
2, 93990, Note_on_c, 0, 63, 90
2, 93999, Note_on_c, 0, 63, 0
2, 94000, Note_on_c, 0, 62, 90
2, 94009, Note_on_c, 0, 62, 0
2, 94010, Note_on_c, 0, 63, 90
2, 94019, Note_on_c, 0, 63, 0
2, 94020, Note_on_c, 0, 62, 90
2, 94029, Note_on_c, 0, 62, 0
2, 94030, Note_on_c, 0, 63, 90
2, 94039, Note_on_c, 0, 63, 0
2, 94040, Note_on_c, 0, 62, 90
2, 94049, Note_on_c, 0, 62, 0
2, 94050, Note_on_c, 0, 63, 90
2, 94059, Note_on_c, 0, 63, 0
2, 94060, Note_on_c, 0, 62, 90
2, 94069, Note_on_c, 0, 62, 0
2, 94070, Note_on_c, 0, 63, 90
2, 94079, Note_on_c, 0, 63, 0
2, 94080, Note_on_c, 0, 62, 90
2, 94089, Note_on_c, 0, 62, 0
2, 94090, Note_on_c, 0, 63, 90
2, 94099, Note_on_c, 0, 63, 0
2, 94100, Note_on_c, 0, 62, 90
2, 94109, Note_on_c, 0, 62, 0
2, 94110, Note_on_c, 0, 63, 90
2, 94119, Note_on_c, 0, 63, 0
2, 94120, Note_on_c, 0, 62, 90
2, 94129, Note_on_c, 0, 62, 0
2, 94130, Note_on_c, 0, 63, 90
2, 94139, Note_on_c, 0, 63, 0
2, 94140, Note_on_c, 0, 60, 90
2, 94169, Note_on_c, 0, 60, 0
2, 94170, Note_on_c, 0, 62, 90
2, 94199, Note_on_c, 0, 62, 0
2, 94200, Note_on_c, 0, 63, 90
2, 94259, Note_on_c, 0, 63, 0
2, 94260, Note_on_c, 0, 62, 90
2, 94319, Note_on_c, 0, 62, 0
2, 94320, Note_on_c, 0, 60, 90
2, 94379, Note_on_c, 0, 60, 0
2, 94380, Note_on_c, 0, 62, 90
2, 94409, Note_on_c, 0, 62, 0
2, 94410, Note_on_c, 0, 63, 90
2, 94439, Note_on_c, 0, 63, 0
2, 94440, Note_on_c, 0, 57, 90
2, 94559, Note_on_c, 0, 57, 0
2, 94560, Note_on_c, 0, 55, 90
2, 94619, Note_on_c, 0, 55, 0
2, 94620, Note_on_c, 0, 53, 90
2, 94679, Note_on_c, 0, 53, 0
2, 94680, Note_on_c, 0, 53, 90
2, 94859, Note_on_c, 0, 53, 0
2, 94860, Note_on_c, 0, 55, 90
2, 94889, Note_on_c, 0, 55, 0
2, 94890, Note_on_c, 0, 57, 90
2, 94919, Note_on_c, 0, 57, 0
2, 94920, Note_on_c, 0, 58, 90
2, 94949, Note_on_c, 0, 58, 0
2, 94950, Note_on_c, 0, 60, 90
2, 94979, Note_on_c, 0, 60, 0
2, 94980, Note_on_c, 0, 58, 90
2, 95009, Note_on_c, 0, 58, 0
2, 95010, Note_on_c, 0, 57, 90
2, 95039, Note_on_c, 0, 57, 0
2, 95040, Note_on_c, 0, 58, 90
2, 95340, Note_on_c, 0, 58, 0
2, 95340, Note_on_c, 0, 70, 90
2, 95399, Note_on_c, 0, 70, 0
2, 95400, Note_on_c, 0, 62, 90
2, 95444, Note_on_c, 0, 62, 0
2, 95445, Note_on_c, 0, 63, 90
2, 95459, Note_on_c, 0, 63, 0
2, 95460, Note_on_c, 0, 62, 90
2, 95489, Note_on_c, 0, 62, 0
2, 95490, Note_on_c, 0, 60, 90
2, 95519, Note_on_c, 0, 60, 0
2, 95520, Note_on_c, 0, 58, 90
2, 95549, Note_on_c, 0, 58, 0
2, 95550, Note_on_c, 0, 60, 90
2, 95579, Note_on_c, 0, 60, 0
2, 95580, Note_on_c, 0, 58, 90
2, 95609, Note_on_c, 0, 58, 0
2, 95610, Note_on_c, 0, 60, 90
2, 95639, Note_on_c, 0, 60, 0
2, 95640, Note_on_c, 0, 62, 90
2, 95649, Note_on_c, 0, 62, 0
2, 95650, Note_on_c, 0, 60, 90
2, 95659, Note_on_c, 0, 60, 0
2, 95660, Note_on_c, 0, 62, 90
2, 95669, Note_on_c, 0, 62, 0
2, 95670, Note_on_c, 0, 60, 90
2, 95679, Note_on_c, 0, 60, 0
2, 95680, Note_on_c, 0, 62, 90
2, 95689, Note_on_c, 0, 62, 0
2, 95690, Note_on_c, 0, 60, 90
2, 95699, Note_on_c, 0, 60, 0
2, 95700, Note_on_c, 0, 62, 90
2, 95709, Note_on_c, 0, 62, 0
2, 95710, Note_on_c, 0, 60, 90
2, 95719, Note_on_c, 0, 60, 0
2, 95720, Note_on_c, 0, 62, 90
2, 95729, Note_on_c, 0, 62, 0
2, 95730, Note_on_c, 0, 60, 90
2, 95739, Note_on_c, 0, 60, 0
2, 95740, Note_on_c, 0, 62, 90
2, 95749, Note_on_c, 0, 62, 0
2, 95750, Note_on_c, 0, 60, 90
2, 95759, Note_on_c, 0, 60, 0
2, 95760, Note_on_c, 0, 62, 90
2, 95769, Note_on_c, 0, 62, 0
2, 95770, Note_on_c, 0, 60, 90
2, 95779, Note_on_c, 0, 60, 0
2, 95780, Note_on_c, 0, 62, 90
2, 95789, Note_on_c, 0, 62, 0
2, 95790, Note_on_c, 0, 60, 90
2, 95799, Note_on_c, 0, 60, 0
2, 95800, Note_on_c, 0, 62, 90
2, 95809, Note_on_c, 0, 62, 0
2, 95810, Note_on_c, 0, 60, 90
2, 95819, Note_on_c, 0, 60, 0
2, 95820, Note_on_c, 0, 58, 90
2, 95849, Note_on_c, 0, 58, 0
2, 95850, Note_on_c, 0, 60, 90
2, 95879, Note_on_c, 0, 60, 0
2, 95880, Note_on_c, 0, 58, 90
2, 96599, Note_on_c, 0, 58, 0
2, 97740, Note_on_c, 0, 55, 100
2, 97800, Note_on_c, 0, 55, 0
2, 97800, Note_on_c, 0, 55, 100
2, 97860, Note_on_c, 0, 55, 0
2, 97860, Note_on_c, 0, 55, 100
2, 97920, Note_on_c, 0, 55, 0
2, 97920, Note_on_c, 0, 55, 100
2, 97980, Note_on_c, 0, 55, 0
2, 97980, Note_on_c, 0, 55, 100
2, 98040, Note_on_c, 0, 55, 0
2, 98040, Note_on_c, 0, 50, 100
2, 98100, Note_on_c, 0, 50, 0
2, 98100, Note_on_c, 0, 62, 100
2, 98160, Note_on_c, 0, 62, 0
2, 98160, Note_on_c, 0, 62, 100
2, 98220, Note_on_c, 0, 62, 0
2, 98220, Note_on_c, 0, 64, 100
2, 98280, Note_on_c, 0, 64, 0
2, 98280, Note_on_c, 0, 64, 100
2, 98310, Note_on_c, 0, 64, 0
2, 98310, Note_on_c, 0, 65, 100
2, 98340, Note_on_c, 0, 65, 0
2, 98340, Note_on_c, 0, 67, 100
2, 98370, Note_on_c, 0, 67, 0
2, 98370, Note_on_c, 0, 64, 100
2, 98400, Note_on_c, 0, 64, 0
2, 98400, Note_on_c, 0, 65, 100
2, 98430, Note_on_c, 0, 65, 0
2, 98430, Note_on_c, 0, 64, 100
2, 98460, Note_on_c, 0, 64, 0
2, 98460, Note_on_c, 0, 62, 100
2, 98490, Note_on_c, 0, 62, 0
2, 98490, Note_on_c, 0, 66, 100
2, 98520, Note_on_c, 0, 66, 0
2, 98520, Note_on_c, 0, 64, 100
2, 98550, Note_on_c, 0, 64, 0
2, 98550, Note_on_c, 0, 67, 100
2, 98580, Note_on_c, 0, 67, 0
2, 98580, Note_on_c, 0, 66, 100
2, 98610, Note_on_c, 0, 66, 0
2, 98610, Note_on_c, 0, 67, 100
2, 98625, Note_on_c, 0, 67, 0
2, 98625, Note_on_c, 0, 69, 100
2, 98640, Note_on_c, 0, 69, 0
2, 98640, Note_on_c, 0, 62, 100
2, 98670, Note_on_c, 0, 62, 0
2, 98670, Note_on_c, 0, 63, 100
2, 98700, Note_on_c, 0, 63, 0
2, 98700, Note_on_c, 0, 62, 100
2, 98730, Note_on_c, 0, 62, 0
2, 98730, Note_on_c, 0, 60, 100
2, 98760, Note_on_c, 0, 60, 0
2, 98760, Note_on_c, 0, 58, 100
2, 98790, Note_on_c, 0, 58, 0
2, 98790, Note_on_c, 0, 57, 100
2, 98820, Note_on_c, 0, 57, 0
2, 98820, Note_on_c, 0, 58, 100
2, 98850, Note_on_c, 0, 58, 0
2, 98850, Note_on_c, 0, 55, 100
2, 98880, Note_on_c, 0, 55, 0
2, 98880, Note_on_c, 0, 67, 100
2, 99000, Note_on_c, 0, 67, 0
2, 99000, Note_on_c, 0, 66, 100
2, 99020, Note_on_c, 0, 66, 0
2, 99020, Note_on_c, 0, 67, 100
2, 99040, Note_on_c, 0, 67, 0
2, 99040, Note_on_c, 0, 66, 100
2, 99060, Note_on_c, 0, 66, 0
2, 99060, Note_on_c, 0, 67, 100
2, 99075, Note_on_c, 0, 67, 0
2, 99075, Note_on_c, 0, 66, 100
2, 99090, Note_on_c, 0, 66, 0
2, 99090, Note_on_c, 0, 67, 100
2, 99105, Note_on_c, 0, 67, 0
2, 99105, Note_on_c, 0, 66, 100
2, 99120, Note_on_c, 0, 66, 0
2, 99120, Note_on_c, 0, 67, 100
2, 99240, Note_on_c, 0, 67, 0
2, 99360, Note_on_c, 0, 67, 100
2, 99420, Note_on_c, 0, 67, 0
2, 99420, Note_on_c, 0, 59, 100
2, 99480, Note_on_c, 0, 59, 0
2, 99480, Note_on_c, 0, 60, 90
2, 99599, Note_on_c, 0, 60, 0
2, 99720, Note_on_c, 0, 65, 90
2, 99779, Note_on_c, 0, 65, 0
2, 99780, Note_on_c, 0, 57, 90
2, 99839, Note_on_c, 0, 57, 0
2, 99840, Note_on_c, 0, 58, 90
2, 99959, Note_on_c, 0, 58, 0
2, 100080, Note_on_c, 0, 63, 90
2, 100139, Note_on_c, 0, 63, 0
2, 100140, Note_on_c, 0, 55, 90
2, 100199, Note_on_c, 0, 55, 0
2, 100200, Note_on_c, 0, 57, 90
2, 100259, Note_on_c, 0, 57, 0
2, 100260, Note_on_c, 0, 60, 90
2, 100319, Note_on_c, 0, 60, 0
2, 100320, Note_on_c, 0, 51, 90
2, 100379, Note_on_c, 0, 51, 0
2, 100380, Note_on_c, 0, 53, 90
2, 100619, Note_on_c, 0, 53, 0
2, 100620, Note_on_c, 0, 53, 90
2, 100679, Note_on_c, 0, 53, 0
2, 100680, Note_on_c, 0, 53, 90
2, 100739, Note_on_c, 0, 53, 0
2, 100740, Note_on_c, 0, 53, 90
2, 100799, Note_on_c, 0, 53, 0
2, 100800, Note_on_c, 0, 53, 90
2, 100859, Note_on_c, 0, 53, 0
2, 100860, Note_on_c, 0, 53, 90
2, 100919, Note_on_c, 0, 53, 0
2, 100920, Note_on_c, 0, 46, 90
2, 100979, Note_on_c, 0, 46, 0
2, 100980, Note_on_c, 0, 58, 90
2, 101039, Note_on_c, 0, 58, 0
2, 101040, Note_on_c, 0, 58, 90
2, 101099, Note_on_c, 0, 58, 0
2, 101100, Note_on_c, 0, 60, 90
2, 101159, Note_on_c, 0, 60, 0
2, 101160, Note_on_c, 0, 60, 90
2, 101189, Note_on_c, 0, 60, 0
2, 101190, Note_on_c, 0, 62, 90
2, 101219, Note_on_c, 0, 62, 0
2, 101220, Note_on_c, 0, 63, 90
2, 101249, Note_on_c, 0, 63, 0
2, 101250, Note_on_c, 0, 60, 90
2, 101279, Note_on_c, 0, 60, 0
2, 101280, Note_on_c, 0, 62, 90
2, 101309, Note_on_c, 0, 62, 0
2, 101310, Note_on_c, 0, 60, 90
2, 101339, Note_on_c, 0, 60, 0
2, 101340, Note_on_c, 0, 58, 90
2, 101369, Note_on_c, 0, 58, 0
2, 101370, Note_on_c, 0, 62, 90
2, 101399, Note_on_c, 0, 62, 0
2, 101400, Note_on_c, 0, 60, 90
2, 101429, Note_on_c, 0, 60, 0
2, 101430, Note_on_c, 0, 63, 90
2, 101459, Note_on_c, 0, 63, 0
2, 101460, Note_on_c, 0, 62, 90
2, 101489, Note_on_c, 0, 62, 0
2, 101490, Note_on_c, 0, 60, 90
2, 101519, Note_on_c, 0, 60, 0
2, 101520, Note_on_c, 0, 58, 90
2, 101549, Note_on_c, 0, 58, 0
2, 101550, Note_on_c, 0, 62, 90
2, 101579, Note_on_c, 0, 62, 0
2, 101580, Note_on_c, 0, 60, 90
2, 101609, Note_on_c, 0, 60, 0
2, 101610, Note_on_c, 0, 58, 90
2, 101639, Note_on_c, 0, 58, 0
2, 101640, Note_on_c, 0, 57, 90
2, 101669, Note_on_c, 0, 57, 0
2, 101670, Note_on_c, 0, 55, 90
2, 101699, Note_on_c, 0, 55, 0
2, 101700, Note_on_c, 0, 57, 90
2, 101729, Note_on_c, 0, 57, 0
2, 101730, Note_on_c, 0, 53, 90
2, 101759, Note_on_c, 0, 53, 0
2, 101760, Note_on_c, 0, 65, 90
2, 101879, Note_on_c, 0, 65, 0
2, 101880, Note_on_c, 0, 64, 90
2, 101999, Note_on_c, 0, 64, 0
2, 102000, Note_on_c, 0, 65, 90
2, 102019, Note_on_c, 0, 65, 0
2, 102020, Note_on_c, 0, 63, 90
2, 102039, Note_on_c, 0, 63, 0
2, 102040, Note_on_c, 0, 62, 90
2, 102059, Note_on_c, 0, 62, 0
2, 102060, Note_on_c, 0, 63, 90
2, 102079, Note_on_c, 0, 63, 0
2, 102080, Note_on_c, 0, 62, 90
2, 102099, Note_on_c, 0, 62, 0
2, 102100, Note_on_c, 0, 60, 90
2, 102119, Note_on_c, 0, 60, 0
2, 102120, Note_on_c, 0, 62, 90
2, 102139, Note_on_c, 0, 62, 0
2, 102140, Note_on_c, 0, 60, 90
2, 102159, Note_on_c, 0, 60, 0
2, 102160, Note_on_c, 0, 58, 90
2, 102179, Note_on_c, 0, 58, 0
2, 102180, Note_on_c, 0, 63, 90
2, 102199, Note_on_c, 0, 63, 0
2, 102200, Note_on_c, 0, 62, 90
2, 102219, Note_on_c, 0, 62, 0
2, 102220, Note_on_c, 0, 60, 90
2, 102239, Note_on_c, 0, 60, 0
2, 102240, Note_on_c, 0, 62, 90
2, 102259, Note_on_c, 0, 62, 0
2, 102260, Note_on_c, 0, 60, 90
2, 102279, Note_on_c, 0, 60, 0
2, 102280, Note_on_c, 0, 58, 90
2, 102299, Note_on_c, 0, 58, 0
2, 102300, Note_on_c, 0, 60, 90
2, 102319, Note_on_c, 0, 60, 0
2, 102320, Note_on_c, 0, 58, 90
2, 102339, Note_on_c, 0, 58, 0
2, 102340, Note_on_c, 0, 57, 90
2, 102359, Note_on_c, 0, 57, 0
2, 102360, Note_on_c, 0, 58, 90
2, 102449, Note_on_c, 0, 58, 0
2, 102450, Note_on_c, 0, 57, 90
2, 102479, Note_on_c, 0, 57, 0
2, 102480, Note_on_c, 0, 55, 90
2, 102509, Note_on_c, 0, 55, 0
2, 102510, Note_on_c, 0, 53, 90
2, 102539, Note_on_c, 0, 53, 0
2, 102540, Note_on_c, 0, 51, 90
2, 102569, Note_on_c, 0, 51, 0
2, 102570, Note_on_c, 0, 50, 90
2, 102599, Note_on_c, 0, 50, 0
2, 102600, Note_on_c, 0, 51, 90
2, 102629, Note_on_c, 0, 51, 0
2, 102630, Note_on_c, 0, 53, 90
2, 102659, Note_on_c, 0, 53, 0
2, 102660, Note_on_c, 0, 55, 90
2, 102689, Note_on_c, 0, 55, 0
2, 102690, Note_on_c, 0, 51, 90
2, 102719, Note_on_c, 0, 51, 0
2, 102720, Note_on_c, 0, 53, 90
2, 102779, Note_on_c, 0, 53, 0
2, 102780, Note_on_c, 0, 58, 90
2, 102899, Note_on_c, 0, 58, 0
2, 102900, Note_on_c, 0, 56, 90
2, 102919, Note_on_c, 0, 56, 0
2, 102920, Note_on_c, 0, 55, 90
2, 102939, Note_on_c, 0, 55, 0
2, 102940, Note_on_c, 0, 53, 90
2, 102959, Note_on_c, 0, 53, 0
2, 102960, Note_on_c, 0, 55, 90
2, 102979, Note_on_c, 0, 55, 0
2, 102980, Note_on_c, 0, 53, 90
2, 102999, Note_on_c, 0, 53, 0
2, 103000, Note_on_c, 0, 51, 90
2, 103019, Note_on_c, 0, 51, 0
2, 103020, Note_on_c, 0, 53, 90
2, 103039, Note_on_c, 0, 53, 0
2, 103040, Note_on_c, 0, 51, 90
2, 103059, Note_on_c, 0, 51, 0
2, 103060, Note_on_c, 0, 50, 90
2, 103079, Note_on_c, 0, 50, 0
2, 103080, Note_on_c, 0, 51, 90
2, 103169, Note_on_c, 0, 51, 0
2, 103170, Note_on_c, 0, 53, 90
2, 103199, Note_on_c, 0, 53, 0
2, 103200, Note_on_c, 0, 50, 90
2, 103290, Note_on_c, 0, 50, 0
2, 103290, Note_on_c, 0, 51, 90
2, 103319, Note_on_c, 0, 51, 0
2, 103320, Note_on_c, 0, 48, 90
2, 103410, Note_on_c, 0, 48, 0
2, 103410, Note_on_c, 0, 46, 90
2, 103439, Note_on_c, 0, 46, 0
2, 103440, Note_on_c, 0, 46, 90
2, 103619, Note_on_c, 0, 46, 0
2, 103680, Note_on_c, 0, 58, 90
2, 103739, Note_on_c, 0, 58, 0
2, 103740, Note_on_c, 0, 56, 90
2, 103799, Note_on_c, 0, 56, 0
2, 103800, Note_on_c, 0, 55, 90
2, 104040, Note_on_c, 0, 55, 0
2, 104040, Note_on_c, 0, 58, 90
2, 104069, Note_on_c, 0, 58, 0
2, 104070, Note_on_c, 0, 57, 90
2, 104099, Note_on_c, 0, 57, 0
2, 104100, Note_on_c, 0, 58, 90
2, 104129, Note_on_c, 0, 58, 0
2, 104130, Note_on_c, 0, 60, 90
2, 104159, Note_on_c, 0, 60, 0
2, 104160, Note_on_c, 0, 53, 90
2, 104400, Note_on_c, 0, 53, 0
2, 104400, Note_on_c, 0, 58, 90
2, 104459, Note_on_c, 0, 58, 0
2, 104460, Note_on_c, 0, 57, 90
2, 104489, Note_on_c, 0, 57, 0
2, 104490, Note_on_c, 0, 55, 90
2, 104519, Note_on_c, 0, 55, 0
2, 104520, Note_on_c, 0, 53, 90
2, 104549, Note_on_c, 0, 53, 0
2, 104550, Note_on_c, 0, 51, 90
2, 104565, Note_on_c, 0, 51, 0
2, 104565, Note_on_c, 0, 53, 90
2, 104580, Note_on_c, 0, 53, 0
2, 104580, Note_on_c, 0, 51, 90
2, 104595, Note_on_c, 0, 51, 0
2, 104595, Note_on_c, 0, 53, 90
2, 104610, Note_on_c, 0, 53, 0
2, 104610, Note_on_c, 0, 51, 90
2, 104625, Note_on_c, 0, 51, 0
2, 104625, Note_on_c, 0, 53, 90
2, 104640, Note_on_c, 0, 53, 0
2, 104640, Note_on_c, 0, 51, 90
2, 104655, Note_on_c, 0, 51, 0
2, 104655, Note_on_c, 0, 53, 90
2, 104670, Note_on_c, 0, 53, 0
2, 104670, Note_on_c, 0, 51, 90
2, 104685, Note_on_c, 0, 51, 0
2, 104685, Note_on_c, 0, 53, 90
2, 104700, Note_on_c, 0, 53, 0
2, 104700, Note_on_c, 0, 51, 90
2, 104715, Note_on_c, 0, 51, 0
2, 104715, Note_on_c, 0, 53, 90
2, 104730, Note_on_c, 0, 53, 0
2, 104730, Note_on_c, 0, 51, 90
2, 104745, Note_on_c, 0, 51, 0
2, 104745, Note_on_c, 0, 53, 90
2, 104760, Note_on_c, 0, 53, 0
2, 104760, Note_on_c, 0, 51, 90
2, 104775, Note_on_c, 0, 51, 0
2, 104775, Note_on_c, 0, 53, 90
2, 104790, Note_on_c, 0, 53, 0
2, 104790, Note_on_c, 0, 51, 90
2, 104805, Note_on_c, 0, 51, 0
2, 104805, Note_on_c, 0, 53, 90
2, 104820, Note_on_c, 0, 53, 0
2, 104820, Note_on_c, 0, 51, 90
2, 104849, Note_on_c, 0, 51, 0
2, 104850, Note_on_c, 0, 50, 90
2, 104865, Note_on_c, 0, 50, 0
2, 104865, Note_on_c, 0, 51, 90
2, 104880, Note_on_c, 0, 51, 0
2, 104880, Note_on_c, 0, 50, 90
2, 104939, Note_on_c, 0, 50, 0
2, 104940, Note_on_c, 0, 62, 90
2, 104999, Note_on_c, 0, 62, 0
2, 105000, Note_on_c, 0, 58, 90
2, 105059, Note_on_c, 0, 58, 0
2, 105060, Note_on_c, 0, 55, 90
2, 105089, Note_on_c, 0, 55, 0
2, 105090, Note_on_c, 0, 53, 90
2, 105119, Note_on_c, 0, 53, 0
2, 105120, Note_on_c, 0, 55, 90
2, 105149, Note_on_c, 0, 55, 0
2, 105150, Note_on_c, 0, 57, 90
2, 105179, Note_on_c, 0, 57, 0
2, 105180, Note_on_c, 0, 58, 90
2, 105209, Note_on_c, 0, 58, 0
2, 105210, Note_on_c, 0, 55, 90
2, 105239, Note_on_c, 0, 55, 0
2, 105240, Note_on_c, 0, 57, 90
2, 105269, Note_on_c, 0, 57, 0
2, 105270, Note_on_c, 0, 58, 90
2, 105299, Note_on_c, 0, 58, 0
2, 105300, Note_on_c, 0, 60, 90
2, 105329, Note_on_c, 0, 60, 0
2, 105330, Note_on_c, 0, 57, 90
2, 105359, Note_on_c, 0, 57, 0
2, 105360, Note_on_c, 0, 53, 90
2, 105389, Note_on_c, 0, 53, 0
2, 105390, Note_on_c, 0, 57, 90
2, 105419, Note_on_c, 0, 57, 0
2, 105420, Note_on_c, 0, 53, 90
2, 105449, Note_on_c, 0, 53, 0
2, 105450, Note_on_c, 0, 57, 90
2, 105479, Note_on_c, 0, 57, 0
2, 105480, Note_on_c, 0, 60, 90
2, 105509, Note_on_c, 0, 60, 0
2, 105510, Note_on_c, 0, 57, 90
2, 105539, Note_on_c, 0, 57, 0
2, 105540, Note_on_c, 0, 53, 90
2, 105569, Note_on_c, 0, 53, 0
2, 105570, Note_on_c, 0, 57, 90
2, 105599, Note_on_c, 0, 57, 0
2, 105600, Note_on_c, 0, 53, 90
2, 105629, Note_on_c, 0, 53, 0
2, 105630, Note_on_c, 0, 58, 90
2, 105659, Note_on_c, 0, 58, 0
2, 105660, Note_on_c, 0, 62, 90
2, 105689, Note_on_c, 0, 62, 0
2, 105690, Note_on_c, 0, 58, 90
2, 105719, Note_on_c, 0, 58, 0
2, 105720, Note_on_c, 0, 53, 90
2, 105749, Note_on_c, 0, 53, 0
2, 105750, Note_on_c, 0, 58, 90
2, 105779, Note_on_c, 0, 58, 0
2, 105780, Note_on_c, 0, 53, 90
2, 105809, Note_on_c, 0, 53, 0
2, 105810, Note_on_c, 0, 58, 90
2, 105839, Note_on_c, 0, 58, 0
2, 105840, Note_on_c, 0, 62, 90
2, 105869, Note_on_c, 0, 62, 0
2, 105870, Note_on_c, 0, 58, 90
2, 105899, Note_on_c, 0, 58, 0
2, 105900, Note_on_c, 0, 53, 90
2, 105929, Note_on_c, 0, 53, 0
2, 105930, Note_on_c, 0, 58, 90
2, 105959, Note_on_c, 0, 58, 0
2, 105960, Note_on_c, 0, 53, 90
2, 105989, Note_on_c, 0, 53, 0
2, 105990, Note_on_c, 0, 58, 90
2, 106019, Note_on_c, 0, 58, 0
2, 106020, Note_on_c, 0, 60, 90
2, 106049, Note_on_c, 0, 60, 0
2, 106050, Note_on_c, 0, 58, 90
2, 106079, Note_on_c, 0, 58, 0
2, 106080, Note_on_c, 0, 53, 90
2, 106109, Note_on_c, 0, 53, 0
2, 106110, Note_on_c, 0, 58, 90
2, 106139, Note_on_c, 0, 58, 0
2, 106140, Note_on_c, 0, 53, 90
2, 106169, Note_on_c, 0, 53, 0
2, 106170, Note_on_c, 0, 57, 90
2, 106199, Note_on_c, 0, 57, 0
2, 106200, Note_on_c, 0, 60, 90
2, 106229, Note_on_c, 0, 60, 0
2, 106230, Note_on_c, 0, 57, 90
2, 106259, Note_on_c, 0, 57, 0
2, 106260, Note_on_c, 0, 53, 90
2, 106289, Note_on_c, 0, 53, 0
2, 106290, Note_on_c, 0, 57, 90
2, 106319, Note_on_c, 0, 57, 0
2, 106320, Note_on_c, 0, 50, 90
2, 106349, Note_on_c, 0, 50, 0
2, 106350, Note_on_c, 0, 55, 90
2, 106379, Note_on_c, 0, 55, 0
2, 106380, Note_on_c, 0, 58, 90
2, 106409, Note_on_c, 0, 58, 0
2, 106410, Note_on_c, 0, 55, 90
2, 106439, Note_on_c, 0, 55, 0
2, 106440, Note_on_c, 0, 50, 90
2, 106469, Note_on_c, 0, 50, 0
2, 106470, Note_on_c, 0, 55, 90
2, 106499, Note_on_c, 0, 55, 0
2, 106500, Note_on_c, 0, 52, 90
2, 106529, Note_on_c, 0, 52, 0
2, 106530, Note_on_c, 0, 55, 90
2, 106559, Note_on_c, 0, 55, 0
2, 106560, Note_on_c, 0, 58, 90
2, 106589, Note_on_c, 0, 58, 0
2, 106590, Note_on_c, 0, 55, 90
2, 106619, Note_on_c, 0, 55, 0
2, 106620, Note_on_c, 0, 52, 90
2, 106649, Note_on_c, 0, 52, 0
2, 106650, Note_on_c, 0, 55, 90
2, 106679, Note_on_c, 0, 55, 0
2, 106680, Note_on_c, 0, 53, 90
2, 106709, Note_on_c, 0, 53, 0
2, 106710, Note_on_c, 0, 57, 90
2, 106739, Note_on_c, 0, 57, 0
2, 106740, Note_on_c, 0, 62, 90
2, 106769, Note_on_c, 0, 62, 0
2, 106770, Note_on_c, 0, 64, 90
2, 106799, Note_on_c, 0, 64, 0
2, 106800, Note_on_c, 0, 65, 90
2, 106829, Note_on_c, 0, 65, 0
2, 106830, Note_on_c, 0, 62, 90
2, 106859, Note_on_c, 0, 62, 0
2, 106860, Note_on_c, 0, 59, 90
2, 106919, Note_on_c, 0, 59, 0
2, 106920, Note_on_c, 0, 60, 90
2, 106934, Note_on_c, 0, 60, 0
2, 106935, Note_on_c, 0, 59, 90
2, 106949, Note_on_c, 0, 59, 0
2, 106950, Note_on_c, 0, 60, 90
2, 106964, Note_on_c, 0, 60, 0
2, 106965, Note_on_c, 0, 59, 90
2, 106979, Note_on_c, 0, 59, 0
2, 106980, Note_on_c, 0, 60, 90
2, 106994, Note_on_c, 0, 60, 0
2, 106995, Note_on_c, 0, 59, 90
2, 107009, Note_on_c, 0, 59, 0
2, 107010, Note_on_c, 0, 57, 90
2, 107024, Note_on_c, 0, 57, 0
2, 107025, Note_on_c, 0, 59, 90
2, 107039, Note_on_c, 0, 59, 0
2, 107040, Note_on_c, 0, 60, 90
2, 107099, Note_on_c, 0, 60, 0
2, 107100, Note_on_c, 0, 63, 90
2, 107159, Note_on_c, 0, 63, 0
2, 107160, Note_on_c, 0, 60, 90
2, 107219, Note_on_c, 0, 60, 0
2, 107220, Note_on_c, 0, 57, 90
2, 107249, Note_on_c, 0, 57, 0
2, 107250, Note_on_c, 0, 55, 90
2, 107279, Note_on_c, 0, 55, 0
2, 107280, Note_on_c, 0, 57, 90
2, 107309, Note_on_c, 0, 57, 0
2, 107310, Note_on_c, 0, 58, 90
2, 107339, Note_on_c, 0, 58, 0
2, 107340, Note_on_c, 0, 60, 90
2, 107369, Note_on_c, 0, 60, 0
2, 107370, Note_on_c, 0, 57, 90
2, 107399, Note_on_c, 0, 57, 0
2, 107400, Note_on_c, 0, 58, 90
2, 107429, Note_on_c, 0, 58, 0
2, 107430, Note_on_c, 0, 62, 90
2, 107459, Note_on_c, 0, 62, 0
2, 107460, Note_on_c, 0, 64, 90
2, 107489, Note_on_c, 0, 64, 0
2, 107490, Note_on_c, 0, 65, 90
2, 107519, Note_on_c, 0, 65, 0
2, 107520, Note_on_c, 0, 67, 90
2, 107549, Note_on_c, 0, 67, 0
2, 107550, Note_on_c, 0, 64, 90
2, 107579, Note_on_c, 0, 64, 0
2, 107580, Note_on_c, 0, 61, 90
2, 107639, Note_on_c, 0, 61, 0
2, 107640, Note_on_c, 0, 62, 90
2, 107654, Note_on_c, 0, 62, 0
2, 107655, Note_on_c, 0, 61, 90
2, 107669, Note_on_c, 0, 61, 0
2, 107670, Note_on_c, 0, 62, 90
2, 107684, Note_on_c, 0, 62, 0
2, 107685, Note_on_c, 0, 61, 90
2, 107699, Note_on_c, 0, 61, 0
2, 107700, Note_on_c, 0, 62, 90
2, 107714, Note_on_c, 0, 62, 0
2, 107715, Note_on_c, 0, 61, 90
2, 107729, Note_on_c, 0, 61, 0
2, 107730, Note_on_c, 0, 59, 90
2, 107744, Note_on_c, 0, 59, 0
2, 107745, Note_on_c, 0, 61, 90
2, 107759, Note_on_c, 0, 61, 0
2, 107760, Note_on_c, 0, 62, 90
2, 107879, Note_on_c, 0, 62, 0
2, 107880, Note_on_c, 0, 60, 90
2, 107939, Note_on_c, 0, 60, 0
2, 107940, Note_on_c, 0, 59, 90
2, 107999, Note_on_c, 0, 59, 0
2, 108000, Note_on_c, 0, 64, 90
2, 108059, Note_on_c, 0, 64, 0
2, 108060, Note_on_c, 0, 62, 90
2, 108119, Note_on_c, 0, 62, 0
2, 108120, Note_on_c, 0, 61, 90
2, 108209, Note_on_c, 0, 61, 0
2, 108210, Note_on_c, 0, 64, 90
2, 108239, Note_on_c, 0, 64, 0
2, 108240, Note_on_c, 0, 62, 90
2, 108269, Note_on_c, 0, 62, 0
2, 108270, Note_on_c, 0, 65, 90
2, 108299, Note_on_c, 0, 65, 0
2, 108300, Note_on_c, 0, 64, 90
2, 108329, Note_on_c, 0, 64, 0
2, 108330, Note_on_c, 0, 62, 90
2, 108359, Note_on_c, 0, 62, 0
2, 108360, Note_on_c, 0, 64, 90
2, 108539, Note_on_c, 0, 64, 0
2, 108540, Note_on_c, 0, 62, 90
2, 108569, Note_on_c, 0, 62, 0
2, 108570, Note_on_c, 0, 60, 90
2, 108599, Note_on_c, 0, 60, 0
2, 108600, Note_on_c, 0, 58, 90
2, 108629, Note_on_c, 0, 58, 0
2, 108630, Note_on_c, 0, 57, 90
2, 108659, Note_on_c, 0, 57, 0
2, 108660, Note_on_c, 0, 55, 90
2, 108689, Note_on_c, 0, 55, 0
2, 108690, Note_on_c, 0, 53, 90
2, 108719, Note_on_c, 0, 53, 0
2, 108720, Note_on_c, 0, 55, 90
2, 108749, Note_on_c, 0, 55, 0
2, 108750, Note_on_c, 0, 57, 90
2, 108779, Note_on_c, 0, 57, 0
2, 108780, Note_on_c, 0, 58, 90
2, 108809, Note_on_c, 0, 58, 0
2, 108810, Note_on_c, 0, 55, 90
2, 108839, Note_on_c, 0, 55, 0
2, 108840, Note_on_c, 0, 57, 90
2, 108959, Note_on_c, 0, 57, 0
2, 109080, Note_on_c, 0, 65, 90
2, 109139, Note_on_c, 0, 65, 0
2, 109140, Note_on_c, 0, 57, 90
2, 109199, Note_on_c, 0, 57, 0
2, 109200, Note_on_c, 0, 58, 90
2, 109319, Note_on_c, 0, 58, 0
2, 109440, Note_on_c, 0, 70, 90
2, 109499, Note_on_c, 0, 70, 0
2, 109500, Note_on_c, 0, 62, 90
2, 109559, Note_on_c, 0, 62, 0
2, 109560, Note_on_c, 0, 64, 90
2, 109649, Note_on_c, 0, 64, 0
2, 109650, Note_on_c, 0, 61, 90
2, 109679, Note_on_c, 0, 61, 0
2, 109680, Note_on_c, 0, 62, 90
2, 109769, Note_on_c, 0, 62, 0
2, 109770, Note_on_c, 0, 64, 90
2, 109799, Note_on_c, 0, 64, 0
2, 109800, Note_on_c, 0, 61, 90
2, 109889, Note_on_c, 0, 61, 0
2, 109890, Note_on_c, 0, 62, 90
2, 109919, Note_on_c, 0, 62, 0
2, 109920, Note_on_c, 0, 62, 90
2, 109949, Note_on_c, 0, 62, 0
2, 109950, Note_on_c, 0, 64, 90
2, 109979, Note_on_c, 0, 64, 0
2, 109980, Note_on_c, 0, 65, 90
2, 110009, Note_on_c, 0, 65, 0
2, 110010, Note_on_c, 0, 62, 90
2, 110039, Note_on_c, 0, 62, 0
2, 110040, Note_on_c, 0, 61, 90
2, 110069, Note_on_c, 0, 61, 0
2, 110070, Note_on_c, 0, 62, 90
2, 110099, Note_on_c, 0, 62, 0
2, 110100, Note_on_c, 0, 57, 90
2, 110129, Note_on_c, 0, 57, 0
2, 110130, Note_on_c, 0, 62, 90
2, 110159, Note_on_c, 0, 62, 0
2, 110160, Note_on_c, 0, 65, 90
2, 110189, Note_on_c, 0, 65, 0
2, 110190, Note_on_c, 0, 62, 90
2, 110219, Note_on_c, 0, 62, 0
2, 110220, Note_on_c, 0, 60, 90
2, 110249, Note_on_c, 0, 60, 0
2, 110250, Note_on_c, 0, 62, 90
2, 110279, Note_on_c, 0, 62, 0
2, 110280, Note_on_c, 0, 59, 90
2, 110309, Note_on_c, 0, 59, 0
2, 110310, Note_on_c, 0, 62, 90
2, 110339, Note_on_c, 0, 62, 0
2, 110340, Note_on_c, 0, 65, 90
2, 110369, Note_on_c, 0, 65, 0
2, 110370, Note_on_c, 0, 62, 90
2, 110399, Note_on_c, 0, 62, 0
2, 110400, Note_on_c, 0, 60, 90
2, 110429, Note_on_c, 0, 60, 0
2, 110430, Note_on_c, 0, 62, 90
2, 110459, Note_on_c, 0, 62, 0
2, 110460, Note_on_c, 0, 59, 90
2, 110489, Note_on_c, 0, 59, 0
2, 110490, Note_on_c, 0, 62, 90
2, 110519, Note_on_c, 0, 62, 0
2, 110520, Note_on_c, 0, 65, 90
2, 110549, Note_on_c, 0, 65, 0
2, 110550, Note_on_c, 0, 62, 90
2, 110579, Note_on_c, 0, 62, 0
2, 110580, Note_on_c, 0, 60, 90
2, 110609, Note_on_c, 0, 60, 0
2, 110610, Note_on_c, 0, 62, 90
2, 110639, Note_on_c, 0, 62, 0
2, 110640, Note_on_c, 0, 55, 90
2, 110669, Note_on_c, 0, 55, 0
2, 110670, Note_on_c, 0, 60, 90
2, 110699, Note_on_c, 0, 60, 0
2, 110700, Note_on_c, 0, 63, 90
2, 110729, Note_on_c, 0, 63, 0
2, 110730, Note_on_c, 0, 60, 90
2, 110759, Note_on_c, 0, 60, 0
2, 110760, Note_on_c, 0, 59, 90
2, 110789, Note_on_c, 0, 59, 0
2, 110790, Note_on_c, 0, 60, 90
2, 110819, Note_on_c, 0, 60, 0
2, 110820, Note_on_c, 0, 55, 90
2, 110849, Note_on_c, 0, 55, 0
2, 110850, Note_on_c, 0, 60, 90
2, 110879, Note_on_c, 0, 60, 0
2, 110880, Note_on_c, 0, 63, 90
2, 110909, Note_on_c, 0, 63, 0
2, 110910, Note_on_c, 0, 60, 90
2, 110939, Note_on_c, 0, 60, 0
2, 110940, Note_on_c, 0, 58, 90
2, 110969, Note_on_c, 0, 58, 0
2, 110970, Note_on_c, 0, 60, 90
2, 110999, Note_on_c, 0, 60, 0
2, 111000, Note_on_c, 0, 57, 90
2, 111029, Note_on_c, 0, 57, 0
2, 111030, Note_on_c, 0, 60, 90
2, 111059, Note_on_c, 0, 60, 0
2, 111060, Note_on_c, 0, 63, 90
2, 111089, Note_on_c, 0, 63, 0
2, 111090, Note_on_c, 0, 60, 90
2, 111119, Note_on_c, 0, 60, 0
2, 111120, Note_on_c, 0, 58, 90
2, 111149, Note_on_c, 0, 58, 0
2, 111150, Note_on_c, 0, 60, 90
2, 111179, Note_on_c, 0, 60, 0
2, 111180, Note_on_c, 0, 57, 90
2, 111209, Note_on_c, 0, 57, 0
2, 111210, Note_on_c, 0, 60, 90
2, 111239, Note_on_c, 0, 60, 0
2, 111240, Note_on_c, 0, 63, 90
2, 111269, Note_on_c, 0, 63, 0
2, 111270, Note_on_c, 0, 60, 90
2, 111299, Note_on_c, 0, 60, 0
2, 111300, Note_on_c, 0, 58, 90
2, 111329, Note_on_c, 0, 58, 0
2, 111330, Note_on_c, 0, 60, 90
2, 111359, Note_on_c, 0, 60, 0
2, 111360, Note_on_c, 0, 53, 90
2, 111389, Note_on_c, 0, 53, 0
2, 111390, Note_on_c, 0, 58, 90
2, 111419, Note_on_c, 0, 58, 0
2, 111420, Note_on_c, 0, 62, 90
2, 111449, Note_on_c, 0, 62, 0
2, 111450, Note_on_c, 0, 58, 90
2, 111479, Note_on_c, 0, 58, 0
2, 111480, Note_on_c, 0, 57, 90
2, 111509, Note_on_c, 0, 57, 0
2, 111510, Note_on_c, 0, 58, 90
2, 111539, Note_on_c, 0, 58, 0
2, 111540, Note_on_c, 0, 53, 90
2, 111569, Note_on_c, 0, 53, 0
2, 111570, Note_on_c, 0, 58, 90
2, 111599, Note_on_c, 0, 58, 0
2, 111600, Note_on_c, 0, 62, 90
2, 111629, Note_on_c, 0, 62, 0
2, 111630, Note_on_c, 0, 58, 90
2, 111659, Note_on_c, 0, 58, 0
2, 111660, Note_on_c, 0, 57, 90
2, 111689, Note_on_c, 0, 57, 0
2, 111690, Note_on_c, 0, 58, 90
2, 111719, Note_on_c, 0, 58, 0
2, 111720, Note_on_c, 0, 55, 90
2, 111749, Note_on_c, 0, 55, 0
2, 111750, Note_on_c, 0, 58, 90
2, 111779, Note_on_c, 0, 58, 0
2, 111780, Note_on_c, 0, 63, 90
2, 111809, Note_on_c, 0, 63, 0
2, 111810, Note_on_c, 0, 58, 90
2, 111839, Note_on_c, 0, 58, 0
2, 111840, Note_on_c, 0, 57, 90
2, 111869, Note_on_c, 0, 57, 0
2, 111870, Note_on_c, 0, 58, 90
2, 111899, Note_on_c, 0, 58, 0
2, 111900, Note_on_c, 0, 55, 90
2, 111929, Note_on_c, 0, 55, 0
2, 111930, Note_on_c, 0, 58, 90
2, 111959, Note_on_c, 0, 58, 0
2, 111960, Note_on_c, 0, 63, 90
2, 111989, Note_on_c, 0, 63, 0
2, 111990, Note_on_c, 0, 58, 90
2, 112019, Note_on_c, 0, 58, 0
2, 112020, Note_on_c, 0, 57, 90
2, 112049, Note_on_c, 0, 57, 0
2, 112050, Note_on_c, 0, 58, 90
2, 112079, Note_on_c, 0, 58, 0
2, 112080, Note_on_c, 0, 55, 90
2, 112109, Note_on_c, 0, 55, 0
2, 112110, Note_on_c, 0, 58, 90
2, 112139, Note_on_c, 0, 58, 0
2, 112140, Note_on_c, 0, 60, 90
2, 112169, Note_on_c, 0, 60, 0
2, 112170, Note_on_c, 0, 58, 90
2, 112199, Note_on_c, 0, 58, 0
2, 112200, Note_on_c, 0, 57, 90
2, 112229, Note_on_c, 0, 57, 0
2, 112230, Note_on_c, 0, 58, 90
2, 112259, Note_on_c, 0, 58, 0
2, 112260, Note_on_c, 0, 55, 90
2, 112289, Note_on_c, 0, 55, 0
2, 112290, Note_on_c, 0, 58, 90
2, 112319, Note_on_c, 0, 58, 0
2, 112320, Note_on_c, 0, 60, 90
2, 112349, Note_on_c, 0, 60, 0
2, 112350, Note_on_c, 0, 58, 90
2, 112379, Note_on_c, 0, 58, 0
2, 112380, Note_on_c, 0, 57, 90
2, 112409, Note_on_c, 0, 57, 0
2, 112410, Note_on_c, 0, 58, 90
2, 112439, Note_on_c, 0, 58, 0
2, 112440, Note_on_c, 0, 53, 90
2, 112443, Note_on_c, 0, 57, 90
2, 112446, Note_on_c, 0, 60, 90
2, 112450, Note_on_c, 0, 65, 90
2, 112559, Note_on_c, 0, 53, 0
2, 112562, Note_on_c, 0, 57, 0
2, 112565, Note_on_c, 0, 60, 0
2, 112569, Note_on_c, 0, 65, 0
2, 112620, Note_on_c, 0, 60, 90
2, 112859, Note_on_c, 0, 60, 0
2, 112860, Note_on_c, 0, 63, 90
2, 112919, Note_on_c, 0, 63, 0
2, 112920, Note_on_c, 0, 62, 90
2, 112979, Note_on_c, 0, 62, 0
2, 112980, Note_on_c, 0, 60, 90
2, 113039, Note_on_c, 0, 60, 0
2, 113040, Note_on_c, 0, 62, 90
2, 113069, Note_on_c, 0, 62, 0
2, 113070, Note_on_c, 0, 60, 90
2, 113099, Note_on_c, 0, 60, 0
2, 113100, Note_on_c, 0, 58, 90
2, 113129, Note_on_c, 0, 58, 0
2, 113130, Note_on_c, 0, 57, 90
2, 113159, Note_on_c, 0, 57, 0
2, 113160, Note_on_c, 0, 58, 90
2, 113189, Note_on_c, 0, 58, 0
2, 113190, Note_on_c, 0, 57, 90
2, 113219, Note_on_c, 0, 57, 0
2, 113220, Note_on_c, 0, 55, 90
2, 113249, Note_on_c, 0, 55, 0
2, 113250, Note_on_c, 0, 58, 90
2, 113279, Note_on_c, 0, 58, 0
2, 113280, Note_on_c, 0, 57, 90
2, 113309, Note_on_c, 0, 57, 0
2, 113310, Note_on_c, 0, 60, 90
2, 113339, Note_on_c, 0, 60, 0
2, 113340, Note_on_c, 0, 58, 90
2, 113579, Note_on_c, 0, 58, 0
2, 113580, Note_on_c, 0, 62, 90
2, 113639, Note_on_c, 0, 62, 0
2, 113640, Note_on_c, 0, 60, 90
2, 113699, Note_on_c, 0, 60, 0
2, 113700, Note_on_c, 0, 58, 90
2, 113759, Note_on_c, 0, 58, 0
2, 113760, Note_on_c, 0, 60, 90
2, 113789, Note_on_c, 0, 60, 0
2, 113790, Note_on_c, 0, 58, 90
2, 113819, Note_on_c, 0, 58, 0
2, 113820, Note_on_c, 0, 57, 90
2, 113849, Note_on_c, 0, 57, 0
2, 113850, Note_on_c, 0, 55, 90
2, 113879, Note_on_c, 0, 55, 0
2, 113880, Note_on_c, 0, 57, 90
2, 113909, Note_on_c, 0, 57, 0
2, 113910, Note_on_c, 0, 55, 90
2, 113939, Note_on_c, 0, 55, 0
2, 113940, Note_on_c, 0, 53, 90
2, 113969, Note_on_c, 0, 53, 0
2, 113970, Note_on_c, 0, 57, 90
2, 113999, Note_on_c, 0, 57, 0
2, 114000, Note_on_c, 0, 55, 90
2, 114029, Note_on_c, 0, 55, 0
2, 114030, Note_on_c, 0, 58, 90
2, 114059, Note_on_c, 0, 58, 0
2, 114060, Note_on_c, 0, 57, 90
2, 114239, Note_on_c, 0, 57, 0
2, 114270, Note_on_c, 0, 55, 90
2, 114299, Note_on_c, 0, 55, 0
2, 114300, Note_on_c, 0, 53, 90
2, 114329, Note_on_c, 0, 53, 0
2, 114330, Note_on_c, 0, 56, 90
2, 114359, Note_on_c, 0, 56, 0
2, 114360, Note_on_c, 0, 55, 90
2, 114389, Note_on_c, 0, 55, 0
2, 114390, Note_on_c, 0, 58, 90
2, 114419, Note_on_c, 0, 58, 0
2, 114420, Note_on_c, 0, 56, 90
2, 114599, Note_on_c, 0, 56, 0
2, 114630, Note_on_c, 0, 53, 90
2, 114659, Note_on_c, 0, 53, 0
2, 114660, Note_on_c, 0, 52, 90
2, 114689, Note_on_c, 0, 52, 0
2, 114690, Note_on_c, 0, 53, 90
2, 114719, Note_on_c, 0, 53, 0
2, 114720, Note_on_c, 0, 56, 90
2, 114749, Note_on_c, 0, 56, 0
2, 114750, Note_on_c, 0, 53, 90
2, 114779, Note_on_c, 0, 53, 0
2, 114780, Note_on_c, 0, 62, 90
2, 114809, Note_on_c, 0, 62, 0
2, 114810, Note_on_c, 0, 53, 90
2, 114839, Note_on_c, 0, 53, 0
2, 114840, Note_on_c, 0, 52, 90
2, 114869, Note_on_c, 0, 52, 0
2, 114870, Note_on_c, 0, 53, 90
2, 114899, Note_on_c, 0, 53, 0
2, 114900, Note_on_c, 0, 55, 90
2, 114929, Note_on_c, 0, 55, 0
2, 114930, Note_on_c, 0, 53, 90
2, 114959, Note_on_c, 0, 53, 0
2, 114960, Note_on_c, 0, 52, 90
2, 114989, Note_on_c, 0, 52, 0
2, 114990, Note_on_c, 0, 48, 90
2, 115019, Note_on_c, 0, 48, 0
2, 115020, Note_on_c, 0, 53, 90
2, 115049, Note_on_c, 0, 53, 0
2, 115050, Note_on_c, 0, 57, 90
2, 115079, Note_on_c, 0, 57, 0
2, 115080, Note_on_c, 0, 55, 90
2, 115109, Note_on_c, 0, 55, 0
2, 115110, Note_on_c, 0, 58, 90
2, 115139, Note_on_c, 0, 58, 0
2, 115140, Note_on_c, 0, 57, 90
2, 115169, Note_on_c, 0, 57, 0
2, 115170, Note_on_c, 0, 55, 90
2, 115199, Note_on_c, 0, 55, 0
2, 115200, Note_on_c, 0, 57, 90
2, 115229, Note_on_c, 0, 57, 0
2, 115230, Note_on_c, 0, 60, 90
2, 115259, Note_on_c, 0, 60, 0
2, 115260, Note_on_c, 0, 58, 90
2, 115289, Note_on_c, 0, 58, 0
2, 115290, Note_on_c, 0, 62, 90
2, 115319, Note_on_c, 0, 62, 0
2, 115320, Note_on_c, 0, 60, 90
2, 115740, Note_on_c, 0, 60, 0
2, 115740, Note_on_c, 0, 65, 90
2, 115799, Note_on_c, 0, 65, 0
2, 115800, Note_on_c, 0, 57, 90
2, 115859, Note_on_c, 0, 57, 0
2, 115860, Note_on_c, 0, 58, 90
2, 116039, Note_on_c, 0, 58, 0
2, 116070, Note_on_c, 0, 48, 90
2, 116099, Note_on_c, 0, 48, 0
2, 116100, Note_on_c, 0, 52, 90
2, 116129, Note_on_c, 0, 52, 0
2, 116130, Note_on_c, 0, 55, 90
2, 116159, Note_on_c, 0, 55, 0
2, 116160, Note_on_c, 0, 58, 90
2, 116189, Note_on_c, 0, 58, 0
2, 116190, Note_on_c, 0, 62, 90
2, 116219, Note_on_c, 0, 62, 0
2, 116220, Note_on_c, 0, 60, 90
2, 116249, Note_on_c, 0, 60, 0
2, 116250, Note_on_c, 0, 58, 90
2, 116279, Note_on_c, 0, 58, 0
2, 116280, Note_on_c, 0, 57, 90
2, 116339, Note_on_c, 0, 57, 0
2, 116340, Note_on_c, 0, 55, 90
2, 116369, Note_on_c, 0, 55, 0
2, 116370, Note_on_c, 0, 53, 90
2, 116399, Note_on_c, 0, 53, 0
2, 116400, Note_on_c, 0, 53, 90
2, 116429, Note_on_c, 0, 53, 0
2, 116430, Note_on_c, 0, 62, 90
2, 116459, Note_on_c, 0, 62, 0
2, 116460, Note_on_c, 0, 60, 90
2, 116489, Note_on_c, 0, 60, 0
2, 116490, Note_on_c, 0, 58, 90
2, 116519, Note_on_c, 0, 58, 0
2, 116520, Note_on_c, 0, 57, 90
2, 116549, Note_on_c, 0, 57, 0
2, 116550, Note_on_c, 0, 55, 90
2, 116579, Note_on_c, 0, 55, 0
2, 116580, Note_on_c, 0, 53, 90
2, 116609, Note_on_c, 0, 53, 0
2, 116610, Note_on_c, 0, 58, 90
2, 116639, Note_on_c, 0, 58, 0
2, 116640, Note_on_c, 0, 57, 90
2, 116669, Note_on_c, 0, 57, 0
2, 116670, Note_on_c, 0, 55, 90
2, 116699, Note_on_c, 0, 55, 0
2, 116700, Note_on_c, 0, 53, 90
2, 116729, Note_on_c, 0, 53, 0
2, 116730, Note_on_c, 0, 51, 90
2, 116759, Note_on_c, 0, 51, 0
2, 116760, Note_on_c, 0, 50, 90
2, 116789, Note_on_c, 0, 50, 0
2, 116790, Note_on_c, 0, 55, 90
2, 116819, Note_on_c, 0, 55, 0
2, 116820, Note_on_c, 0, 53, 90
2, 116849, Note_on_c, 0, 53, 0
2, 116850, Note_on_c, 0, 51, 90
2, 116879, Note_on_c, 0, 51, 0
2, 116880, Note_on_c, 0, 50, 90
2, 116909, Note_on_c, 0, 50, 0
2, 116910, Note_on_c, 0, 48, 90
2, 116939, Note_on_c, 0, 48, 0
2, 116940, Note_on_c, 0, 47, 90
2, 116999, Note_on_c, 0, 47, 0
2, 117000, Note_on_c, 0, 43, 90
2, 117059, Note_on_c, 0, 43, 0
2, 117060, Note_on_c, 0, 47, 90
2, 117119, Note_on_c, 0, 47, 0
2, 117120, Note_on_c, 0, 48, 90
2, 117179, Note_on_c, 0, 48, 0
2, 117180, Note_on_c, 0, 55, 90
2, 117239, Note_on_c, 0, 55, 0
2, 117240, Note_on_c, 0, 55, 90
2, 117299, Note_on_c, 0, 55, 0
2, 117300, Note_on_c, 0, 55, 90
2, 117359, Note_on_c, 0, 55, 0
2, 117360, Note_on_c, 0, 55, 90
2, 117419, Note_on_c, 0, 55, 0
2, 117420, Note_on_c, 0, 55, 90
2, 117479, Note_on_c, 0, 55, 0
2, 117480, Note_on_c, 0, 55, 90
2, 117539, Note_on_c, 0, 55, 0
2, 117540, Note_on_c, 0, 60, 90
2, 117599, Note_on_c, 0, 60, 0
2, 117600, Note_on_c, 0, 60, 90
2, 117659, Note_on_c, 0, 60, 0
2, 117660, Note_on_c, 0, 60, 90
2, 117719, Note_on_c, 0, 60, 0
2, 117720, Note_on_c, 0, 62, 90
2, 117749, Note_on_c, 0, 62, 0
2, 117750, Note_on_c, 0, 60, 90
2, 117779, Note_on_c, 0, 60, 0
2, 117780, Note_on_c, 0, 58, 90
2, 117809, Note_on_c, 0, 58, 0
2, 117810, Note_on_c, 0, 57, 90
2, 117839, Note_on_c, 0, 57, 0
2, 117840, Note_on_c, 0, 58, 90
2, 117869, Note_on_c, 0, 58, 0
2, 117870, Note_on_c, 0, 62, 90
2, 117899, Note_on_c, 0, 62, 0
2, 117900, Note_on_c, 0, 67, 90
2, 117929, Note_on_c, 0, 67, 0
2, 117930, Note_on_c, 0, 62, 90
2, 117959, Note_on_c, 0, 62, 0
2, 117960, Note_on_c, 0, 58, 90
2, 117989, Note_on_c, 0, 58, 0
2, 117990, Note_on_c, 0, 62, 90
2, 118019, Note_on_c, 0, 62, 0
2, 118020, Note_on_c, 0, 55, 90
2, 118049, Note_on_c, 0, 55, 0
2, 118050, Note_on_c, 0, 58, 90
2, 118079, Note_on_c, 0, 58, 0
2, 118080, Note_on_c, 0, 62, 90
2, 118109, Note_on_c, 0, 62, 0
2, 118110, Note_on_c, 0, 58, 90
2, 118139, Note_on_c, 0, 58, 0
2, 118140, Note_on_c, 0, 55, 90
2, 118169, Note_on_c, 0, 55, 0
2, 118170, Note_on_c, 0, 58, 90
2, 118199, Note_on_c, 0, 58, 0
2, 118200, Note_on_c, 0, 52, 90
2, 118229, Note_on_c, 0, 52, 0
2, 118230, Note_on_c, 0, 55, 90
2, 118259, Note_on_c, 0, 55, 0
2, 118260, Note_on_c, 0, 58, 90
2, 118289, Note_on_c, 0, 58, 0
2, 118290, Note_on_c, 0, 55, 90
2, 118319, Note_on_c, 0, 55, 0
2, 118320, Note_on_c, 0, 52, 90
2, 118349, Note_on_c, 0, 52, 0
2, 118350, Note_on_c, 0, 55, 90
2, 118379, Note_on_c, 0, 55, 0
2, 118380, Note_on_c, 0, 49, 90
2, 118409, Note_on_c, 0, 49, 0
2, 118410, Note_on_c, 0, 52, 90
2, 118439, Note_on_c, 0, 52, 0
2, 118440, Note_on_c, 0, 55, 90
2, 118469, Note_on_c, 0, 55, 0
2, 118470, Note_on_c, 0, 52, 90
2, 118499, Note_on_c, 0, 52, 0
2, 118500, Note_on_c, 0, 49, 90
2, 118529, Note_on_c, 0, 49, 0
2, 118530, Note_on_c, 0, 52, 90
2, 118559, Note_on_c, 0, 52, 0
2, 118560, Note_on_c, 0, 45, 90
2, 118679, Note_on_c, 0, 45, 0
2, 118800, Note_on_c, 0, 65, 90
2, 118859, Note_on_c, 0, 65, 0
2, 118860, Note_on_c, 0, 65, 90
2, 118919, Note_on_c, 0, 65, 0
2, 118920, Note_on_c, 0, 65, 90
2, 118979, Note_on_c, 0, 65, 0
2, 118980, Note_on_c, 0, 64, 90
2, 119039, Note_on_c, 0, 64, 0
2, 119040, Note_on_c, 0, 64, 90
2, 119099, Note_on_c, 0, 64, 0
2, 119100, Note_on_c, 0, 64, 90
2, 119159, Note_on_c, 0, 64, 0
2, 119160, Note_on_c, 0, 64, 90
2, 119219, Note_on_c, 0, 64, 0
2, 119220, Note_on_c, 0, 64, 90
2, 119279, Note_on_c, 0, 64, 0
2, 119280, Note_on_c, 0, 64, 90
2, 119339, Note_on_c, 0, 64, 0
2, 119340, Note_on_c, 0, 62, 90
2, 119399, Note_on_c, 0, 62, 0
2, 119400, Note_on_c, 0, 62, 90
2, 119459, Note_on_c, 0, 62, 0
2, 119460, Note_on_c, 0, 62, 90
2, 119519, Note_on_c, 0, 62, 0
2, 119520, Note_on_c, 0, 62, 90
2, 119579, Note_on_c, 0, 62, 0
2, 119580, Note_on_c, 0, 62, 90
2, 119639, Note_on_c, 0, 62, 0
2, 119640, Note_on_c, 0, 62, 90
2, 119669, Note_on_c, 0, 62, 0
2, 119670, Note_on_c, 0, 61, 90
2, 119849, Note_on_c, 0, 61, 0
2, 119850, Note_on_c, 0, 62, 90
2, 119879, Note_on_c, 0, 62, 0
2, 119880, Note_on_c, 0, 64, 90
2, 119894, Note_on_c, 0, 64, 0
2, 119895, Note_on_c, 0, 62, 90
2, 119909, Note_on_c, 0, 62, 0
2, 119910, Note_on_c, 0, 64, 90
2, 119924, Note_on_c, 0, 64, 0
2, 119925, Note_on_c, 0, 62, 90
2, 119939, Note_on_c, 0, 62, 0
2, 119940, Note_on_c, 0, 64, 90
2, 119954, Note_on_c, 0, 64, 0
2, 119955, Note_on_c, 0, 62, 90
2, 119969, Note_on_c, 0, 62, 0
2, 119970, Note_on_c, 0, 60, 90
2, 119984, Note_on_c, 0, 60, 0
2, 119985, Note_on_c, 0, 62, 90
2, 119999, Note_on_c, 0, 62, 0
2, 120000, Note_on_c, 0, 64, 90
2, 120059, Note_on_c, 0, 64, 0
2, 120060, Note_on_c, 0, 57, 90
2, 120119, Note_on_c, 0, 57, 0
2, 120120, Note_on_c, 0, 62, 90
2, 120239, Note_on_c, 0, 62, 0
2, 120240, Note_on_c, 0, 55, 90
2, 120299, Note_on_c, 0, 55, 0
2, 120300, Note_on_c, 0, 65, 90
2, 120389, Note_on_c, 0, 65, 0
2, 120390, Note_on_c, 0, 65, 90
2, 120419, Note_on_c, 0, 65, 0
2, 120420, Note_on_c, 0, 63, 90
2, 120449, Note_on_c, 0, 63, 0
2, 120450, Note_on_c, 0, 62, 90
2, 120479, Note_on_c, 0, 62, 0
2, 120480, Note_on_c, 0, 60, 90
2, 120509, Note_on_c, 0, 60, 0
2, 120510, Note_on_c, 0, 62, 90
2, 120539, Note_on_c, 0, 62, 0
2, 120540, Note_on_c, 0, 64, 90
2, 120569, Note_on_c, 0, 64, 0
2, 120570, Note_on_c, 0, 66, 90
2, 120599, Note_on_c, 0, 66, 0
2, 120600, Note_on_c, 0, 67, 90
2, 120614, Note_on_c, 0, 67, 0
2, 120615, Note_on_c, 0, 66, 90
2, 120629, Note_on_c, 0, 66, 0
2, 120630, Note_on_c, 0, 67, 90
2, 120644, Note_on_c, 0, 67, 0
2, 120645, Note_on_c, 0, 66, 90
2, 120659, Note_on_c, 0, 66, 0
2, 120660, Note_on_c, 0, 67, 90
2, 120674, Note_on_c, 0, 67, 0
2, 120675, Note_on_c, 0, 66, 90
2, 120689, Note_on_c, 0, 66, 0
2, 120690, Note_on_c, 0, 64, 90
2, 120704, Note_on_c, 0, 64, 0
2, 120705, Note_on_c, 0, 66, 90
2, 120719, Note_on_c, 0, 66, 0
2, 120720, Note_on_c, 0, 67, 90
2, 120870, Note_on_c, 0, 67, 0
2, 120870, Note_on_c, 0, 64, 90
2, 120899, Note_on_c, 0, 64, 0
2, 120900, Note_on_c, 0, 65, 90
2, 120929, Note_on_c, 0, 65, 0
2, 120930, Note_on_c, 0, 62, 90
2, 120959, Note_on_c, 0, 62, 0
2, 120960, Note_on_c, 0, 63, 90
2, 121049, Note_on_c, 0, 63, 0
2, 121050, Note_on_c, 0, 61, 90
2, 121079, Note_on_c, 0, 61, 0
2, 121080, Note_on_c, 0, 62, 90
2, 121169, Note_on_c, 0, 62, 0
2, 121170, Note_on_c, 0, 59, 90
2, 121199, Note_on_c, 0, 59, 0
2, 121200, Note_on_c, 0, 61, 90
2, 121229, Note_on_c, 0, 61, 0
2, 121230, Note_on_c, 0, 64, 90
2, 121259, Note_on_c, 0, 64, 0
2, 121260, Note_on_c, 0, 62, 90
2, 121289, Note_on_c, 0, 62, 0
2, 121290, Note_on_c, 0, 65, 90
2, 121319, Note_on_c, 0, 65, 0
2, 121320, Note_on_c, 0, 61, 90
2, 121409, Note_on_c, 0, 61, 0
2, 121410, Note_on_c, 0, 62, 90
2, 121439, Note_on_c, 0, 62, 0
2, 121440, Note_on_c, 0, 62, 90
2, 121559, Note_on_c, 0, 62, 0
2, 121680, Note_on_c, 0, 62, 90
2, 121739, Note_on_c, 0, 62, 0
2, 121740, Note_on_c, 0, 60, 90
2, 121799, Note_on_c, 0, 60, 0
2, 121800, Note_on_c, 0, 60, 90
2, 121829, Note_on_c, 0, 60, 0
2, 121830, Note_on_c, 0, 58, 90
2, 122039, Note_on_c, 0, 58, 0
2, 122040, Note_on_c, 0, 62, 90
2, 122069, Note_on_c, 0, 62, 0
2, 122070, Note_on_c, 0, 61, 90
2, 122099, Note_on_c, 0, 61, 0
2, 122100, Note_on_c, 0, 62, 90
2, 122129, Note_on_c, 0, 62, 0
2, 122130, Note_on_c, 0, 64, 90
2, 122159, Note_on_c, 0, 64, 0
2, 122160, Note_on_c, 0, 57, 90
2, 122399, Note_on_c, 0, 57, 0
2, 122400, Note_on_c, 0, 62, 90
2, 122459, Note_on_c, 0, 62, 0
2, 122460, Note_on_c, 0, 60, 90
2, 122489, Note_on_c, 0, 60, 0
2, 122490, Note_on_c, 0, 58, 90
2, 122519, Note_on_c, 0, 58, 0
2, 122520, Note_on_c, 0, 57, 90
2, 122549, Note_on_c, 0, 57, 0
2, 122550, Note_on_c, 0, 55, 90
2, 122569, Note_on_c, 0, 55, 0
2, 122570, Note_on_c, 0, 57, 90
2, 122589, Note_on_c, 0, 57, 0
2, 122590, Note_on_c, 0, 55, 90
2, 122609, Note_on_c, 0, 55, 0
2, 122610, Note_on_c, 0, 57, 90
2, 122624, Note_on_c, 0, 57, 0
2, 122625, Note_on_c, 0, 55, 90
2, 122639, Note_on_c, 0, 55, 0
2, 122640, Note_on_c, 0, 57, 90
2, 122654, Note_on_c, 0, 57, 0
2, 122655, Note_on_c, 0, 55, 90
2, 122669, Note_on_c, 0, 55, 0
2, 122670, Note_on_c, 0, 57, 90
2, 122684, Note_on_c, 0, 57, 0
2, 122685, Note_on_c, 0, 55, 90
2, 122699, Note_on_c, 0, 55, 0
2, 122700, Note_on_c, 0, 57, 90
2, 122714, Note_on_c, 0, 57, 0
2, 122715, Note_on_c, 0, 55, 90
2, 122729, Note_on_c, 0, 55, 0
2, 122730, Note_on_c, 0, 57, 90
2, 122744, Note_on_c, 0, 57, 0
2, 122745, Note_on_c, 0, 55, 90
2, 122759, Note_on_c, 0, 55, 0
2, 122760, Note_on_c, 0, 57, 90
2, 122774, Note_on_c, 0, 57, 0
2, 122775, Note_on_c, 0, 55, 90
2, 122789, Note_on_c, 0, 55, 0
2, 122790, Note_on_c, 0, 57, 90
2, 122804, Note_on_c, 0, 57, 0
2, 122805, Note_on_c, 0, 55, 90
2, 122819, Note_on_c, 0, 55, 0
2, 122820, Note_on_c, 0, 57, 90
2, 122834, Note_on_c, 0, 57, 0
2, 122835, Note_on_c, 0, 55, 90
2, 122849, Note_on_c, 0, 55, 0
2, 122850, Note_on_c, 0, 54, 90
2, 122864, Note_on_c, 0, 54, 0
2, 122865, Note_on_c, 0, 55, 90
2, 122879, Note_on_c, 0, 55, 0
2, 122880, Note_on_c, 0, 54, 90
2, 122939, Note_on_c, 0, 54, 0
2, 122940, Note_on_c, 0, 62, 90
2, 122999, Note_on_c, 0, 62, 0
2, 123000, Note_on_c, 0, 55, 90
2, 123059, Note_on_c, 0, 55, 0
2, 123060, Note_on_c, 0, 60, 90
2, 123089, Note_on_c, 0, 60, 0
2, 123090, Note_on_c, 0, 63, 90
2, 123119, Note_on_c, 0, 63, 0
2, 123120, Note_on_c, 0, 62, 90
2, 123149, Note_on_c, 0, 62, 0
2, 123150, Note_on_c, 0, 60, 90
2, 123179, Note_on_c, 0, 60, 0
2, 123180, Note_on_c, 0, 58, 90
2, 123209, Note_on_c, 0, 58, 0
2, 123210, Note_on_c, 0, 57, 90
2, 123239, Note_on_c, 0, 57, 0
2, 123240, Note_on_c, 0, 58, 90
2, 123299, Note_on_c, 0, 58, 0
2, 123300, Note_on_c, 0, 62, 90
2, 123359, Note_on_c, 0, 62, 0
2, 123360, Note_on_c, 0, 60, 90
2, 123419, Note_on_c, 0, 60, 0
2, 123420, Note_on_c, 0, 60, 90
2, 123449, Note_on_c, 0, 60, 0
2, 123450, Note_on_c, 0, 58, 90
2, 123659, Note_on_c, 0, 58, 0
2, 123660, Note_on_c, 0, 60, 90
2, 123689, Note_on_c, 0, 60, 0
2, 123690, Note_on_c, 0, 58, 90
2, 123719, Note_on_c, 0, 58, 0
2, 123720, Note_on_c, 0, 57, 90
2, 123749, Note_on_c, 0, 57, 0
2, 123750, Note_on_c, 0, 55, 90
2, 123779, Note_on_c, 0, 55, 0
2, 123780, Note_on_c, 0, 57, 90
2, 123959, Note_on_c, 0, 57, 0
2, 123990, Note_on_c, 0, 60, 90
2, 124019, Note_on_c, 0, 60, 0
2, 124020, Note_on_c, 0, 58, 90
2, 124049, Note_on_c, 0, 58, 0
2, 124050, Note_on_c, 0, 57, 90
2, 124079, Note_on_c, 0, 57, 0
2, 124080, Note_on_c, 0, 55, 90
2, 124109, Note_on_c, 0, 55, 0
2, 124110, Note_on_c, 0, 54, 90
2, 124139, Note_on_c, 0, 54, 0
2, 124140, Note_on_c, 0, 55, 90
2, 124229, Note_on_c, 0, 55, 0
2, 124230, Note_on_c, 0, 57, 90
2, 124244, Note_on_c, 0, 57, 0
2, 124245, Note_on_c, 0, 58, 90
2, 124259, Note_on_c, 0, 58, 0
2, 124260, Note_on_c, 0, 60, 90
2, 124289, Note_on_c, 0, 60, 0
2, 124290, Note_on_c, 0, 62, 90
2, 124319, Note_on_c, 0, 62, 0
2, 124320, Note_on_c, 0, 63, 90
2, 124379, Note_on_c, 0, 63, 0
2, 124380, Note_on_c, 0, 63, 90
2, 124439, Note_on_c, 0, 63, 0
2, 124440, Note_on_c, 0, 63, 90
2, 124499, Note_on_c, 0, 63, 0
2, 124500, Note_on_c, 0, 63, 90
2, 124529, Note_on_c, 0, 63, 0
2, 124530, Note_on_c, 0, 62, 90
2, 124709, Note_on_c, 0, 62, 0
2, 124710, Note_on_c, 0, 60, 90
2, 124739, Note_on_c, 0, 60, 0
2, 124740, Note_on_c, 0, 62, 90
2, 124769, Note_on_c, 0, 62, 0
2, 124770, Note_on_c, 0, 59, 90
2, 124799, Note_on_c, 0, 59, 0
2, 124800, Note_on_c, 0, 60, 90
2, 124889, Note_on_c, 0, 60, 0
2, 124890, Note_on_c, 0, 62, 90
2, 124919, Note_on_c, 0, 62, 0
2, 124920, Note_on_c, 0, 59, 90
2, 125009, Note_on_c, 0, 59, 0
2, 125010, Note_on_c, 0, 60, 90
2, 125039, Note_on_c, 0, 60, 0
2, 125040, Note_on_c, 0, 60, 90
2, 125099, Note_on_c, 0, 60, 0
2, 125100, Note_on_c, 0, 55, 90
2, 125159, Note_on_c, 0, 55, 0
2, 125160, Note_on_c, 0, 55, 90
2, 125219, Note_on_c, 0, 55, 0
2, 125220, Note_on_c, 0, 55, 90
2, 125279, Note_on_c, 0, 55, 0
2, 125280, Note_on_c, 0, 55, 90
2, 125339, Note_on_c, 0, 55, 0
2, 125340, Note_on_c, 0, 55, 90
2, 125399, Note_on_c, 0, 55, 0
2, 125400, Note_on_c, 0, 48, 90
2, 125459, Note_on_c, 0, 48, 0
2, 125460, Note_on_c, 0, 60, 90
2, 125519, Note_on_c, 0, 60, 0
2, 125520, Note_on_c, 0, 60, 90
2, 125579, Note_on_c, 0, 60, 0
2, 125580, Note_on_c, 0, 62, 90
2, 125639, Note_on_c, 0, 62, 0
2, 125640, Note_on_c, 0, 62, 90
2, 125669, Note_on_c, 0, 62, 0
2, 125670, Note_on_c, 0, 63, 90
2, 125699, Note_on_c, 0, 63, 0
2, 125700, Note_on_c, 0, 65, 90
2, 125729, Note_on_c, 0, 65, 0
2, 125730, Note_on_c, 0, 62, 90
2, 125759, Note_on_c, 0, 62, 0
2, 125760, Note_on_c, 0, 63, 90
2, 125789, Note_on_c, 0, 63, 0
2, 125790, Note_on_c, 0, 55, 90
2, 125819, Note_on_c, 0, 55, 0
2, 125820, Note_on_c, 0, 60, 90
2, 125849, Note_on_c, 0, 60, 0
2, 125850, Note_on_c, 0, 63, 90
2, 125879, Note_on_c, 0, 63, 0
2, 125880, Note_on_c, 0, 62, 90
2, 125909, Note_on_c, 0, 62, 0
2, 125910, Note_on_c, 0, 65, 90
2, 125939, Note_on_c, 0, 65, 0
2, 125940, Note_on_c, 0, 63, 90
2, 125969, Note_on_c, 0, 63, 0
2, 125970, Note_on_c, 0, 62, 90
2, 125999, Note_on_c, 0, 62, 0
2, 126000, Note_on_c, 0, 60, 90
2, 126029, Note_on_c, 0, 60, 0
2, 126030, Note_on_c, 0, 63, 90
2, 126059, Note_on_c, 0, 63, 0
2, 126060, Note_on_c, 0, 62, 90
2, 126089, Note_on_c, 0, 62, 0
2, 126090, Note_on_c, 0, 60, 90
2, 126119, Note_on_c, 0, 60, 0
2, 126120, Note_on_c, 0, 58, 90
2, 126149, Note_on_c, 0, 58, 0
2, 126150, Note_on_c, 0, 57, 90
2, 126179, Note_on_c, 0, 57, 0
2, 126180, Note_on_c, 0, 58, 90
2, 126209, Note_on_c, 0, 58, 0
2, 126210, Note_on_c, 0, 55, 90
2, 126239, Note_on_c, 0, 55, 0
2, 126240, Note_on_c, 0, 67, 90
2, 126359, Note_on_c, 0, 67, 0
2, 126360, Note_on_c, 0, 66, 90
2, 126479, Note_on_c, 0, 66, 0
2, 126480, Note_on_c, 0, 67, 90
2, 126499, Note_on_c, 0, 67, 0
2, 126500, Note_on_c, 0, 65, 90
2, 126519, Note_on_c, 0, 65, 0
2, 126520, Note_on_c, 0, 63, 90
2, 126539, Note_on_c, 0, 63, 0
2, 126540, Note_on_c, 0, 65, 90
2, 126559, Note_on_c, 0, 65, 0
2, 126560, Note_on_c, 0, 63, 90
2, 126579, Note_on_c, 0, 63, 0
2, 126580, Note_on_c, 0, 62, 90
2, 126599, Note_on_c, 0, 62, 0
2, 126600, Note_on_c, 0, 63, 90
2, 126619, Note_on_c, 0, 63, 0
2, 126620, Note_on_c, 0, 62, 90
2, 126639, Note_on_c, 0, 62, 0
2, 126640, Note_on_c, 0, 60, 90
2, 126659, Note_on_c, 0, 60, 0
2, 126660, Note_on_c, 0, 62, 90
2, 126679, Note_on_c, 0, 62, 0
2, 126680, Note_on_c, 0, 60, 90
2, 126699, Note_on_c, 0, 60, 0
2, 126700, Note_on_c, 0, 58, 90
2, 126719, Note_on_c, 0, 58, 0
2, 126720, Note_on_c, 0, 60, 90
2, 126739, Note_on_c, 0, 60, 0
2, 126740, Note_on_c, 0, 58, 90
2, 126759, Note_on_c, 0, 58, 0
2, 126760, Note_on_c, 0, 57, 90
2, 126779, Note_on_c, 0, 57, 0
2, 126780, Note_on_c, 0, 58, 90
2, 126799, Note_on_c, 0, 58, 0
2, 126800, Note_on_c, 0, 57, 90
2, 126819, Note_on_c, 0, 57, 0
2, 126820, Note_on_c, 0, 55, 90
2, 126839, Note_on_c, 0, 55, 0
2, 126840, Note_on_c, 0, 57, 90
2, 126899, Note_on_c, 0, 57, 0
2, 126900, Note_on_c, 0, 62, 90
2, 126929, Note_on_c, 0, 62, 0
2, 126930, Note_on_c, 0, 60, 90
2, 126959, Note_on_c, 0, 60, 0
2, 126960, Note_on_c, 0, 58, 90
2, 126989, Note_on_c, 0, 58, 0
2, 126990, Note_on_c, 0, 57, 90
2, 127019, Note_on_c, 0, 57, 0
2, 127020, Note_on_c, 0, 55, 90
2, 127049, Note_on_c, 0, 55, 0
2, 127050, Note_on_c, 0, 54, 90
2, 127079, Note_on_c, 0, 54, 0
2, 127080, Note_on_c, 0, 55, 90
2, 127109, Note_on_c, 0, 55, 0
2, 127110, Note_on_c, 0, 57, 90
2, 127139, Note_on_c, 0, 57, 0
2, 127140, Note_on_c, 0, 58, 90
2, 127169, Note_on_c, 0, 58, 0
2, 127170, Note_on_c, 0, 55, 90
2, 127199, Note_on_c, 0, 55, 0
2, 127200, Note_on_c, 0, 57, 90
2, 127319, Note_on_c, 0, 57, 0
2, 127440, Note_on_c, 0, 67, 90
2, 127499, Note_on_c, 0, 67, 0
2, 127500, Note_on_c, 0, 59, 90
2, 127559, Note_on_c, 0, 59, 0
2, 127560, Note_on_c, 0, 60, 90
2, 127799, Note_on_c, 0, 60, 0
2, 127800, Note_on_c, 0, 62, 90
2, 127814, Note_on_c, 0, 62, 0
2, 127815, Note_on_c, 0, 63, 90
2, 127829, Note_on_c, 0, 63, 0
2, 127830, Note_on_c, 0, 65, 90
2, 127859, Note_on_c, 0, 65, 0
2, 127860, Note_on_c, 0, 57, 90
2, 127919, Note_on_c, 0, 57, 0
2, 127920, Note_on_c, 0, 58, 90
2, 128159, Note_on_c, 0, 58, 0
2, 128160, Note_on_c, 0, 60, 90
2, 128174, Note_on_c, 0, 60, 0
2, 128175, Note_on_c, 0, 62, 90
2, 128189, Note_on_c, 0, 62, 0
2, 128190, Note_on_c, 0, 63, 90
2, 128219, Note_on_c, 0, 63, 0
2, 128220, Note_on_c, 0, 55, 90
2, 128279, Note_on_c, 0, 55, 0
2, 128280, Note_on_c, 0, 56, 90
2, 128459, Note_on_c, 0, 56, 0
2, 128490, Note_on_c, 0, 55, 90
2, 128519, Note_on_c, 0, 55, 0
2, 128520, Note_on_c, 0, 54, 90
2, 128549, Note_on_c, 0, 54, 0
2, 128550, Note_on_c, 0, 55, 90
2, 128579, Note_on_c, 0, 55, 0
2, 128580, Note_on_c, 0, 55, 90
2, 128589, Note_on_c, 0, 55, 0
2, 128590, Note_on_c, 0, 57, 90
2, 128599, Note_on_c, 0, 57, 0
2, 128600, Note_on_c, 0, 55, 90
2, 128609, Note_on_c, 0, 55, 0
2, 128610, Note_on_c, 0, 54, 90
2, 128624, Note_on_c, 0, 54, 0
2, 128625, Note_on_c, 0, 55, 90
2, 128639, Note_on_c, 0, 55, 0
2, 128640, Note_on_c, 0, 57, 90
2, 128669, Note_on_c, 0, 57, 0
2, 128670, Note_on_c, 0, 55, 90
2, 128699, Note_on_c, 0, 55, 0
2, 128700, Note_on_c, 0, 57, 90
2, 128729, Note_on_c, 0, 57, 0
2, 128730, Note_on_c, 0, 58, 90
2, 128759, Note_on_c, 0, 58, 0
2, 128760, Note_on_c, 0, 58, 90
2, 128769, Note_on_c, 0, 58, 0
2, 128770, Note_on_c, 0, 60, 90
2, 128779, Note_on_c, 0, 60, 0
2, 128780, Note_on_c, 0, 58, 90
2, 128789, Note_on_c, 0, 58, 0
2, 128790, Note_on_c, 0, 57, 90
2, 128804, Note_on_c, 0, 57, 0
2, 128805, Note_on_c, 0, 58, 90
2, 128819, Note_on_c, 0, 58, 0
2, 128820, Note_on_c, 0, 60, 90
2, 128849, Note_on_c, 0, 60, 0
2, 128850, Note_on_c, 0, 58, 90
2, 128879, Note_on_c, 0, 58, 0
2, 128880, Note_on_c, 0, 60, 90
2, 128909, Note_on_c, 0, 60, 0
2, 128910, Note_on_c, 0, 57, 90
2, 128939, Note_on_c, 0, 57, 0
2, 128940, Note_on_c, 0, 58, 90
2, 128969, Note_on_c, 0, 58, 0
2, 128970, Note_on_c, 0, 60, 90
2, 128999, Note_on_c, 0, 60, 0
2, 129000, Note_on_c, 0, 62, 90
2, 129059, Note_on_c, 0, 62, 0
2, 129060, Note_on_c, 0, 60, 90
2, 129089, Note_on_c, 0, 60, 0
2, 129090, Note_on_c, 0, 58, 90
2, 129119, Note_on_c, 0, 58, 0
2, 129120, Note_on_c, 0, 57, 90
2, 129149, Note_on_c, 0, 57, 0
2, 129150, Note_on_c, 0, 55, 90
2, 129179, Note_on_c, 0, 55, 0
2, 129180, Note_on_c, 0, 54, 90
2, 129209, Note_on_c, 0, 54, 0
2, 129210, Note_on_c, 0, 55, 90
2, 129239, Note_on_c, 0, 55, 0
2, 129240, Note_on_c, 0, 63, 90
2, 129419, Note_on_c, 0, 63, 0
2, 129420, Note_on_c, 0, 62, 90
2, 129449, Note_on_c, 0, 62, 0
2, 129450, Note_on_c, 0, 60, 90
2, 129479, Note_on_c, 0, 60, 0
2, 129480, Note_on_c, 0, 58, 90
2, 129509, Note_on_c, 0, 58, 0
2, 129510, Note_on_c, 0, 57, 90
2, 129539, Note_on_c, 0, 57, 0
2, 129540, Note_on_c, 0, 55, 90
2, 129569, Note_on_c, 0, 55, 0
2, 129570, Note_on_c, 0, 54, 90
2, 129599, Note_on_c, 0, 54, 0
2, 129600, Note_on_c, 0, 54, 90
2, 129629, Note_on_c, 0, 54, 0
2, 129630, Note_on_c, 0, 55, 90
2, 129749, Note_on_c, 0, 55, 0
2, 129750, Note_on_c, 0, 62, 90
2, 129779, Note_on_c, 0, 62, 0
2, 129780, Note_on_c, 0, 60, 90
2, 129809, Note_on_c, 0, 60, 0
2, 129810, Note_on_c, 0, 58, 90
2, 129839, Note_on_c, 0, 58, 0
2, 129840, Note_on_c, 0, 57, 90
2, 129869, Note_on_c, 0, 57, 0
2, 129870, Note_on_c, 0, 55, 90
2, 129899, Note_on_c, 0, 55, 0
2, 129900, Note_on_c, 0, 63, 90
2, 129929, Note_on_c, 0, 63, 0
2, 129930, Note_on_c, 0, 62, 90
2, 129959, Note_on_c, 0, 62, 0
2, 129960, Note_on_c, 0, 60, 90
2, 129989, Note_on_c, 0, 60, 0
2, 129990, Note_on_c, 0, 58, 90
2, 130019, Note_on_c, 0, 58, 0
2, 130020, Note_on_c, 0, 57, 90
2, 130049, Note_on_c, 0, 57, 0
2, 130050, Note_on_c, 0, 55, 90
2, 130079, Note_on_c, 0, 55, 0
2, 130080, Note_on_c, 0, 58, 90
2, 130139, Note_on_c, 0, 58, 0
2, 130140, Note_on_c, 0, 60, 90
2, 130140, Note_on_c, 0, 57, 90
2, 130140, Note_on_c, 0, 50, 90
2, 130199, Note_on_c, 0, 50, 0
2, 130199, Note_on_c, 0, 57, 0
2, 130199, Note_on_c, 0, 60, 0
2, 130200, Note_on_c, 0, 50, 90
2, 130200, Note_on_c, 0, 57, 90
2, 130259, Note_on_c, 0, 57, 0
2, 130259, Note_on_c, 0, 50, 0
2, 130260, Note_on_c, 0, 55, 90
2, 130260, Note_on_c, 0, 50, 90
2, 130319, Note_on_c, 0, 50, 0
2, 130319, Note_on_c, 0, 55, 0
2, 130320, Note_on_c, 0, 50, 90
2, 130379, Note_on_c, 0, 50, 0
2, 130380, Note_on_c, 0, 50, 90
2, 130439, Note_on_c, 0, 50, 0
2, 130440, Note_on_c, 0, 50, 90
2, 130499, Note_on_c, 0, 50, 0
2, 130500, Note_on_c, 0, 55, 90
2, 130559, Note_on_c, 0, 55, 0
2, 130560, Note_on_c, 0, 55, 90
2, 130619, Note_on_c, 0, 55, 0
2, 130620, Note_on_c, 0, 57, 90
2, 130679, Note_on_c, 0, 57, 0
2, 130680, Note_on_c, 0, 57, 90
2, 130709, Note_on_c, 0, 57, 0
2, 130710, Note_on_c, 0, 58, 90
2, 130739, Note_on_c, 0, 58, 0
2, 130740, Note_on_c, 0, 60, 90
2, 130769, Note_on_c, 0, 60, 0
2, 130770, Note_on_c, 0, 57, 90
2, 130799, Note_on_c, 0, 57, 0
2, 130800, Note_on_c, 0, 58, 90
2, 130859, Note_on_c, 0, 58, 0
2, 130860, Note_on_c, 0, 62, 90
2, 130919, Note_on_c, 0, 62, 0
2, 130920, Note_on_c, 0, 62, 90
2, 130979, Note_on_c, 0, 62, 0
2, 130980, Note_on_c, 0, 62, 90
2, 131039, Note_on_c, 0, 62, 0
2, 131040, Note_on_c, 0, 62, 90
2, 131099, Note_on_c, 0, 62, 0
2, 131100, Note_on_c, 0, 62, 90
2, 131159, Note_on_c, 0, 62, 0
2, 131160, Note_on_c, 0, 60, 90
2, 131219, Note_on_c, 0, 60, 0
2, 131220, Note_on_c, 0, 60, 90
2, 131279, Note_on_c, 0, 60, 0
2, 131280, Note_on_c, 0, 60, 90
2, 131339, Note_on_c, 0, 60, 0
2, 131340, Note_on_c, 0, 60, 90
2, 131399, Note_on_c, 0, 60, 0
2, 131400, Note_on_c, 0, 60, 90
2, 131459, Note_on_c, 0, 60, 0
2, 131460, Note_on_c, 0, 60, 90
2, 131519, Note_on_c, 0, 60, 0
2, 131520, Note_on_c, 0, 58, 90
2, 131579, Note_on_c, 0, 58, 0
2, 131580, Note_on_c, 0, 58, 90
2, 131639, Note_on_c, 0, 58, 0
2, 131640, Note_on_c, 0, 58, 90
2, 131699, Note_on_c, 0, 58, 0
2, 131700, Note_on_c, 0, 58, 90
2, 131759, Note_on_c, 0, 58, 0
2, 131760, Note_on_c, 0, 58, 90
2, 131819, Note_on_c, 0, 58, 0
2, 131820, Note_on_c, 0, 58, 90
2, 131879, Note_on_c, 0, 58, 0
2, 131880, Note_on_c, 0, 57, 90
2, 131909, Note_on_c, 0, 57, 0
2, 131910, Note_on_c, 0, 58, 90
2, 131939, Note_on_c, 0, 58, 0
2, 131940, Note_on_c, 0, 60, 90
2, 131954, Note_on_c, 0, 60, 0
2, 131955, Note_on_c, 0, 58, 90
2, 131969, Note_on_c, 0, 58, 0
2, 131970, Note_on_c, 0, 60, 90
2, 131984, Note_on_c, 0, 60, 0
2, 131985, Note_on_c, 0, 58, 90
2, 131999, Note_on_c, 0, 58, 0
2, 132000, Note_on_c, 0, 60, 90
2, 132014, Note_on_c, 0, 60, 0
2, 132015, Note_on_c, 0, 58, 90
2, 132029, Note_on_c, 0, 58, 0
2, 132030, Note_on_c, 0, 57, 90
2, 132044, Note_on_c, 0, 57, 0
2, 132045, Note_on_c, 0, 58, 90
2, 132059, Note_on_c, 0, 58, 0
2, 132060, Note_on_c, 0, 60, 90
2, 132239, Note_on_c, 0, 60, 0
2, 132270, Note_on_c, 0, 63, 90
2, 132299, Note_on_c, 0, 63, 0
2, 132300, Note_on_c, 0, 62, 90
2, 132329, Note_on_c, 0, 62, 0
2, 132330, Note_on_c, 0, 60, 90
2, 132359, Note_on_c, 0, 60, 0
2, 132360, Note_on_c, 0, 58, 90
2, 132389, Note_on_c, 0, 58, 0
2, 132390, Note_on_c, 0, 60, 90
2, 132419, Note_on_c, 0, 60, 0
2, 132420, Note_on_c, 0, 62, 90
2, 132449, Note_on_c, 0, 62, 0
2, 132450, Note_on_c, 0, 64, 90
2, 132479, Note_on_c, 0, 64, 0
2, 132480, Note_on_c, 0, 65, 90
2, 132494, Note_on_c, 0, 65, 0
2, 132495, Note_on_c, 0, 64, 90
2, 132509, Note_on_c, 0, 64, 0
2, 132510, Note_on_c, 0, 65, 90
2, 132524, Note_on_c, 0, 65, 0
2, 132525, Note_on_c, 0, 64, 90
2, 132539, Note_on_c, 0, 64, 0
2, 132540, Note_on_c, 0, 65, 90
2, 132554, Note_on_c, 0, 65, 0
2, 132555, Note_on_c, 0, 64, 90
2, 132569, Note_on_c, 0, 64, 0
2, 132570, Note_on_c, 0, 62, 90
2, 132584, Note_on_c, 0, 62, 0
2, 132585, Note_on_c, 0, 64, 90
2, 132599, Note_on_c, 0, 64, 0
2, 132600, Note_on_c, 0, 65, 90
2, 132959, Note_on_c, 0, 65, 0
2, 132990, Note_on_c, 0, 62, 90
2, 133019, Note_on_c, 0, 62, 0
2, 133020, Note_on_c, 0, 63, 90
2, 133049, Note_on_c, 0, 63, 0
2, 133050, Note_on_c, 0, 60, 90
2, 133079, Note_on_c, 0, 60, 0
2, 133080, Note_on_c, 0, 62, 90
2, 133199, Note_on_c, 0, 62, 0
2, 133230, Note_on_c, 0, 59, 90
2, 133259, Note_on_c, 0, 59, 0
2, 133260, Note_on_c, 0, 60, 90
2, 133349, Note_on_c, 0, 60, 0
2, 133350, Note_on_c, 0, 57, 90
2, 133379, Note_on_c, 0, 57, 0
2, 133380, Note_on_c, 0, 58, 90
2, 133409, Note_on_c, 0, 58, 0
2, 133410, Note_on_c, 0, 55, 90
2, 133439, Note_on_c, 0, 55, 0
2, 133440, Note_on_c, 0, 57, 90
2, 133559, Note_on_c, 0, 57, 0
2, 133590, Note_on_c, 0, 54, 90
2, 133619, Note_on_c, 0, 54, 0
2, 133620, Note_on_c, 0, 55, 90
2, 133709, Note_on_c, 0, 55, 0
2, 133710, Note_on_c, 0, 54, 90
2, 133739, Note_on_c, 0, 54, 0
2, 133740, Note_on_c, 0, 55, 90
2, 133799, Note_on_c, 0, 55, 0
2, 133800, Note_on_c, 0, 60, 90
2, 133889, Note_on_c, 0, 60, 0
2, 133890, Note_on_c, 0, 58, 90
2, 133919, Note_on_c, 0, 58, 0
2, 133920, Note_on_c, 0, 57, 90
2, 133949, Note_on_c, 0, 57, 0
2, 133950, Note_on_c, 0, 55, 90
2, 133979, Note_on_c, 0, 55, 0
2, 133980, Note_on_c, 0, 54, 90
2, 134009, Note_on_c, 0, 54, 0
2, 134010, Note_on_c, 0, 52, 90
2, 134039, Note_on_c, 0, 52, 0
2, 134040, Note_on_c, 0, 50, 90
2, 134069, Note_on_c, 0, 50, 0
2, 134070, Note_on_c, 0, 55, 90
2, 134099, Note_on_c, 0, 55, 0
2, 134100, Note_on_c, 0, 58, 90
2, 134129, Note_on_c, 0, 58, 0
2, 134130, Note_on_c, 0, 55, 90
2, 134159, Note_on_c, 0, 55, 0
2, 134160, Note_on_c, 0, 54, 90
2, 134189, Note_on_c, 0, 54, 0
2, 134190, Note_on_c, 0, 55, 90
2, 134219, Note_on_c, 0, 55, 0
2, 134220, Note_on_c, 0, 51, 90
2, 134249, Note_on_c, 0, 51, 0
2, 134250, Note_on_c, 0, 55, 90
2, 134279, Note_on_c, 0, 55, 0
2, 134280, Note_on_c, 0, 58, 90
2, 134309, Note_on_c, 0, 58, 0
2, 134310, Note_on_c, 0, 55, 90
2, 134339, Note_on_c, 0, 55, 0
2, 134340, Note_on_c, 0, 54, 90
2, 134369, Note_on_c, 0, 54, 0
2, 134370, Note_on_c, 0, 55, 90
2, 134399, Note_on_c, 0, 55, 0
2, 134400, Note_on_c, 0, 50, 90
2, 134429, Note_on_c, 0, 50, 0
2, 134430, Note_on_c, 0, 55, 90
2, 134459, Note_on_c, 0, 55, 0
2, 134460, Note_on_c, 0, 58, 90
2, 134489, Note_on_c, 0, 58, 0
2, 134490, Note_on_c, 0, 55, 90
2, 134519, Note_on_c, 0, 55, 0
2, 134520, Note_on_c, 0, 54, 90
2, 134549, Note_on_c, 0, 54, 0
2, 134550, Note_on_c, 0, 55, 90
2, 134579, Note_on_c, 0, 55, 0
2, 134580, Note_on_c, 0, 48, 90
2, 134609, Note_on_c, 0, 48, 0
2, 134610, Note_on_c, 0, 55, 90
2, 134639, Note_on_c, 0, 55, 0
2, 134640, Note_on_c, 0, 58, 90
2, 134669, Note_on_c, 0, 58, 0
2, 134670, Note_on_c, 0, 55, 90
2, 134699, Note_on_c, 0, 55, 0
2, 134700, Note_on_c, 0, 54, 90
2, 134729, Note_on_c, 0, 54, 0
2, 134730, Note_on_c, 0, 55, 90
2, 134759, Note_on_c, 0, 55, 0
2, 134760, Note_on_c, 0, 50, 90
2, 134789, Note_on_c, 0, 50, 0
2, 134790, Note_on_c, 0, 55, 90
2, 134819, Note_on_c, 0, 55, 0
2, 134820, Note_on_c, 0, 58, 90
2, 134849, Note_on_c, 0, 58, 0
2, 134850, Note_on_c, 0, 55, 90
2, 134879, Note_on_c, 0, 55, 0
2, 134880, Note_on_c, 0, 54, 90
2, 134909, Note_on_c, 0, 54, 0
2, 134910, Note_on_c, 0, 55, 90
2, 134939, Note_on_c, 0, 55, 0
2, 134940, Note_on_c, 0, 51, 90
2, 134969, Note_on_c, 0, 51, 0
2, 134970, Note_on_c, 0, 55, 90
2, 134999, Note_on_c, 0, 55, 0
2, 135000, Note_on_c, 0, 57, 90
2, 135029, Note_on_c, 0, 57, 0
2, 135030, Note_on_c, 0, 55, 90
2, 135059, Note_on_c, 0, 55, 0
2, 135060, Note_on_c, 0, 54, 90
2, 135089, Note_on_c, 0, 54, 0
2, 135090, Note_on_c, 0, 55, 90
2, 135119, Note_on_c, 0, 55, 0
2, 135120, Note_on_c, 0, 50, 90
2, 135149, Note_on_c, 0, 50, 0
2, 135150, Note_on_c, 0, 55, 90
2, 135179, Note_on_c, 0, 55, 0
2, 135180, Note_on_c, 0, 57, 90
2, 135209, Note_on_c, 0, 57, 0
2, 135210, Note_on_c, 0, 55, 90
2, 135239, Note_on_c, 0, 55, 0
2, 135240, Note_on_c, 0, 54, 90
2, 135269, Note_on_c, 0, 54, 0
2, 135270, Note_on_c, 0, 55, 90
2, 135299, Note_on_c, 0, 55, 0
2, 135300, Note_on_c, 0, 55, 90
2, 135479, Note_on_c, 0, 55, 0
2, 135510, Note_on_c, 0, 67, 90
2, 135539, Note_on_c, 0, 67, 0
2, 135540, Note_on_c, 0, 70, 90
2, 135569, Note_on_c, 0, 70, 0
2, 135570, Note_on_c, 0, 67, 90
2, 135599, Note_on_c, 0, 67, 0
2, 135600, Note_on_c, 0, 66, 90
2, 135629, Note_on_c, 0, 66, 0
2, 135630, Note_on_c, 0, 67, 90
2, 135659, Note_on_c, 0, 67, 0
2, 135660, Note_on_c, 0, 62, 90
2, 135749, Note_on_c, 0, 62, 0
2, 135750, Note_on_c, 0, 63, 90
2, 135779, Note_on_c, 0, 63, 0
2, 135780, Note_on_c, 0, 62, 90
2, 135809, Note_on_c, 0, 62, 0
2, 135810, Note_on_c, 0, 60, 90
2, 135839, Note_on_c, 0, 60, 0
2, 135840, Note_on_c, 0, 58, 90
2, 135869, Note_on_c, 0, 58, 0
2, 135870, Note_on_c, 0, 57, 90
2, 135899, Note_on_c, 0, 57, 0
2, 135900, Note_on_c, 0, 60, 90
2, 135929, Note_on_c, 0, 60, 0
2, 135930, Note_on_c, 0, 58, 90
2, 135959, Note_on_c, 0, 58, 0
2, 135960, Note_on_c, 0, 57, 90
2, 135989, Note_on_c, 0, 57, 0
2, 135990, Note_on_c, 0, 58, 90
2, 136019, Note_on_c, 0, 58, 0
2, 136020, Note_on_c, 0, 55, 90
2, 136049, Note_on_c, 0, 55, 0
2, 136050, Note_on_c, 0, 70, 90
2, 136079, Note_on_c, 0, 70, 0
2, 136080, Note_on_c, 0, 74, 90
2, 136109, Note_on_c, 0, 74, 0
2, 136110, Note_on_c, 0, 70, 90
2, 136139, Note_on_c, 0, 70, 0
2, 136140, Note_on_c, 0, 67, 90
2, 136169, Note_on_c, 0, 67, 0
2, 136170, Note_on_c, 0, 70, 90
2, 136199, Note_on_c, 0, 70, 0
2, 136200, Note_on_c, 0, 62, 90
2, 136229, Note_on_c, 0, 62, 0
2, 136230, Note_on_c, 0, 67, 90
2, 136259, Note_on_c, 0, 67, 0
2, 136260, Note_on_c, 0, 70, 90
2, 136289, Note_on_c, 0, 70, 0
2, 136290, Note_on_c, 0, 67, 90
2, 136319, Note_on_c, 0, 67, 0
2, 136320, Note_on_c, 0, 62, 90
2, 136349, Note_on_c, 0, 62, 0
2, 136350, Note_on_c, 0, 67, 90
2, 136379, Note_on_c, 0, 67, 0
2, 136380, Note_on_c, 0, 58, 90
2, 136409, Note_on_c, 0, 58, 0
2, 136410, Note_on_c, 0, 62, 90
2, 136439, Note_on_c, 0, 62, 0
2, 136440, Note_on_c, 0, 67, 90
2, 136469, Note_on_c, 0, 67, 0
2, 136470, Note_on_c, 0, 62, 90
2, 136499, Note_on_c, 0, 62, 0
2, 136500, Note_on_c, 0, 58, 90
2, 136529, Note_on_c, 0, 58, 0
2, 136530, Note_on_c, 0, 62, 90
2, 136559, Note_on_c, 0, 62, 0
2, 136560, Note_on_c, 0, 55, 90
2, 136589, Note_on_c, 0, 55, 0
2, 136590, Note_on_c, 0, 58, 90
2, 136619, Note_on_c, 0, 58, 0
2, 136620, Note_on_c, 0, 50, 90
2, 136649, Note_on_c, 0, 50, 0
2, 136650, Note_on_c, 0, 55, 90
2, 136679, Note_on_c, 0, 55, 0
2, 136680, Note_on_c, 0, 46, 90
2, 136709, Note_on_c, 0, 46, 0
2, 136710, Note_on_c, 0, 50, 90
2, 136739, Note_on_c, 0, 50, 0
2, 136740, Note_on_c, 0, 43, 90
2, 136920, Note_on_c, 0, 43, 0
2, 136920, End_track
3, 0, Start_track
3, 0, MIDI_port, 0
3, 0, Title_t, "clave h"
3, 0, Program_c, 1, 6
3, 60, Note_on_c, 1, 67, 90
3, 89, Note_on_c, 1, 67, 0
3, 90, Note_on_c, 1, 66, 90
3, 119, Note_on_c, 1, 66, 0
3, 120, Note_on_c, 1, 62, 90
3, 120, Note_on_c, 1, 67, 90
3, 179, Note_on_c, 1, 67, 0
3, 179, Note_on_c, 1, 62, 0
3, 180, Note_on_c, 1, 62, 90
3, 239, Note_on_c, 1, 62, 0
3, 240, Note_on_c, 1, 58, 90
3, 299, Note_on_c, 1, 58, 0
3, 300, Note_on_c, 1, 70, 90
3, 329, Note_on_c, 1, 70, 0
3, 330, Note_on_c, 1, 72, 90
3, 359, Note_on_c, 1, 72, 0
3, 360, Note_on_c, 1, 67, 90
3, 360, Note_on_c, 1, 74, 90
3, 419, Note_on_c, 1, 74, 0
3, 419, Note_on_c, 1, 67, 0
3, 420, Note_on_c, 1, 67, 90
3, 479, Note_on_c, 1, 67, 0
3, 480, Note_on_c, 1, 62, 90
3, 539, Note_on_c, 1, 62, 0
3, 540, Note_on_c, 1, 70, 90
3, 569, Note_on_c, 1, 70, 0
3, 570, Note_on_c, 1, 72, 90
3, 599, Note_on_c, 1, 72, 0
3, 600, Note_on_c, 1, 67, 90
3, 600, Note_on_c, 1, 74, 90
3, 629, Note_on_c, 1, 74, 0
3, 630, Note_on_c, 1, 72, 90
3, 659, Note_on_c, 1, 72, 0
3, 659, Note_on_c, 1, 67, 0
3, 660, Note_on_c, 1, 62, 90
3, 660, Note_on_c, 1, 70, 90
3, 689, Note_on_c, 1, 70, 0
3, 690, Note_on_c, 1, 72, 90
3, 719, Note_on_c, 1, 72, 0
3, 719, Note_on_c, 1, 62, 0
3, 720, Note_on_c, 1, 67, 90
3, 720, Note_on_c, 1, 74, 90
3, 749, Note_on_c, 1, 74, 0
3, 750, Note_on_c, 1, 72, 90
3, 779, Note_on_c, 1, 72, 0
3, 779, Note_on_c, 1, 67, 0
3, 780, Note_on_c, 1, 62, 90
3, 780, Note_on_c, 1, 70, 90
3, 809, Note_on_c, 1, 70, 0
3, 810, Note_on_c, 1, 72, 90
3, 839, Note_on_c, 1, 72, 0
3, 839, Note_on_c, 1, 62, 0
3, 840, Note_on_c, 1, 66, 90
3, 840, Note_on_c, 1, 74, 90
3, 899, Note_on_c, 1, 74, 0
3, 899, Note_on_c, 1, 66, 0
3, 900, Note_on_c, 1, 66, 90
3, 900, Note_on_c, 1, 69, 90
3, 959, Note_on_c, 1, 69, 0
3, 959, Note_on_c, 1, 66, 0
3, 960, Note_on_c, 1, 57, 90
3, 960, Note_on_c, 1, 62, 90
3, 1019, Note_on_c, 1, 62, 0
3, 1019, Note_on_c, 1, 57, 0
3, 1020, Note_on_c, 1, 57, 90
3, 1020, Note_on_c, 1, 62, 90
3, 1079, Note_on_c, 1, 62, 0
3, 1079, Note_on_c, 1, 57, 0
3, 1080, Note_on_c, 1, 70, 90
3, 1080, Note_on_c, 1, 62, 90
3, 1080, Note_on_c, 1, 67, 90
3, 1320, Note_on_c, 1, 67, 0
3, 1320, Note_on_c, 1, 62, 0
3, 1320, Note_on_c, 1, 70, 0
3, 1320, Note_on_c, 1, 72, 90
3, 1320, Note_on_c, 1, 67, 90
3, 1320, Note_on_c, 1, 70, 90
3, 1500, Note_on_c, 1, 72, 0
3, 1500, Note_on_c, 1, 67, 90
3, 1560, Note_on_c, 1, 67, 0
3, 1560, Note_on_c, 1, 70, 0
3, 1560, Note_on_c, 1, 67, 0
3, 1560, Note_on_c, 1, 69, 90
3, 1560, Note_on_c, 1, 60, 90
3, 1560, Note_on_c, 1, 65, 90
3, 1800, Note_on_c, 1, 65, 0
3, 1800, Note_on_c, 1, 60, 0
3, 1800, Note_on_c, 1, 69, 0
3, 1800, Note_on_c, 1, 70, 90
3, 1800, Note_on_c, 1, 65, 90
3, 1800, Note_on_c, 1, 69, 90
3, 2040, Note_on_c, 1, 69, 0
3, 2040, Note_on_c, 1, 65, 0
3, 2040, Note_on_c, 1, 70, 0
3, 2040, Note_on_c, 1, 58, 90
3, 2040, Note_on_c, 1, 63, 90
3, 2040, Note_on_c, 1, 67, 90
3, 2280, Note_on_c, 1, 67, 0
3, 2280, Note_on_c, 1, 63, 0
3, 2280, Note_on_c, 1, 58, 0
3, 2280, Note_on_c, 1, 63, 90
3, 2280, Note_on_c, 1, 69, 90
3, 2280, Note_on_c, 1, 67, 90
3, 2520, Note_on_c, 1, 67, 0
3, 2520, Note_on_c, 1, 69, 0
3, 2520, Note_on_c, 1, 63, 0
3, 2520, Note_on_c, 1, 66, 90
3, 2520, Note_on_c, 1, 62, 90
3, 2760, Note_on_c, 1, 62, 0
3, 2760, Note_on_c, 1, 66, 0
3, 2760, Note_on_c, 1, 62, 90
3, 2760, Note_on_c, 1, 60, 90
3, 2880, Note_on_c, 1, 62, 0
3, 2880, Note_on_c, 1, 66, 90
3, 3000, Note_on_c, 1, 66, 0
3, 3000, Note_on_c, 1, 60, 0
3, 3000, Note_on_c, 1, 58, 90
3, 3000, Note_on_c, 1, 62, 90
3, 3000, Note_on_c, 1, 67, 90
3, 3240, Note_on_c, 1, 67, 0
3, 3240, Note_on_c, 1, 62, 0
3, 3240, Note_on_c, 1, 58, 0
3, 3240, Note_on_c, 1, 60, 90
3, 3240, Note_on_c, 1, 63, 90
3, 3240, Note_on_c, 1, 67, 90
3, 3480, Note_on_c, 1, 67, 0
3, 3480, Note_on_c, 1, 63, 0
3, 3480, Note_on_c, 1, 60, 0
3, 3480, Note_on_c, 1, 67, 90
3, 3480, Note_on_c, 1, 70, 90
3, 3600, Note_on_c, 1, 70, 0
3, 3600, Note_on_c, 1, 67, 0
3, 3600, Note_on_c, 1, 67, 90
3, 3600, Note_on_c, 1, 69, 90
3, 3660, Note_on_c, 1, 67, 0
3, 3660, Note_on_c, 1, 60, 90
3, 3720, Note_on_c, 1, 60, 0
3, 3720, Note_on_c, 1, 69, 0
3, 3720, Note_on_c, 1, 62, 90
3, 3720, Note_on_c, 1, 67, 90
3, 3840, Note_on_c, 1, 67, 0
3, 3840, Note_on_c, 1, 62, 0
3, 3840, Note_on_c, 1, 62, 90
3, 3840, Note_on_c, 1, 66, 90
3, 3900, Note_on_c, 1, 74, 100
3, 3960, Note_on_c, 1, 74, 0
3, 3960, Note_on_c, 1, 66, 0
3, 3960, Note_on_c, 1, 62, 0
3, 3960, Note_on_c, 1, 74, 90
3, 3980, Note_on_c, 1, 74, 0
3, 3980, Note_on_c, 1, 75, 90
3, 4000, Note_on_c, 1, 75, 0
3, 4000, Note_on_c, 1, 74, 90
3, 4020, Note_on_c, 1, 74, 0
3, 4020, Note_on_c, 1, 75, 90
3, 4035, Note_on_c, 1, 75, 0
3, 4035, Note_on_c, 1, 74, 90
3, 4050, Note_on_c, 1, 74, 0
3, 4050, Note_on_c, 1, 75, 90
3, 4065, Note_on_c, 1, 75, 0
3, 4065, Note_on_c, 1, 74, 90
3, 4080, Note_on_c, 1, 74, 0
3, 4080, Note_on_c, 1, 75, 90
3, 4095, Note_on_c, 1, 75, 0
3, 4095, Note_on_c, 1, 74, 90
3, 4110, Note_on_c, 1, 74, 0
3, 4110, Note_on_c, 1, 75, 90
3, 4125, Note_on_c, 1, 75, 0
3, 4125, Note_on_c, 1, 74, 90
3, 4140, Note_on_c, 1, 74, 0
3, 4140, Note_on_c, 1, 75, 90
3, 4155, Note_on_c, 1, 75, 0
3, 4155, Note_on_c, 1, 74, 90
3, 4170, Note_on_c, 1, 74, 0
3, 4170, Note_on_c, 1, 75, 90
3, 4185, Note_on_c, 1, 75, 0
3, 4185, Note_on_c, 1, 74, 90
3, 4200, Note_on_c, 1, 74, 0
3, 4200, Note_on_c, 1, 75, 90
3, 4214, Note_on_c, 1, 75, 0
3, 4215, Note_on_c, 1, 74, 90
3, 4229, Note_on_c, 1, 74, 0
3, 4230, Note_on_c, 1, 75, 90
3, 4244, Note_on_c, 1, 75, 0
3, 4245, Note_on_c, 1, 74, 90
3, 4259, Note_on_c, 1, 74, 0
3, 4260, Note_on_c, 1, 75, 90
3, 4274, Note_on_c, 1, 75, 0
3, 4275, Note_on_c, 1, 74, 90
3, 4289, Note_on_c, 1, 74, 0
3, 4290, Note_on_c, 1, 75, 90
3, 4304, Note_on_c, 1, 75, 0
3, 4305, Note_on_c, 1, 74, 90
3, 4319, Note_on_c, 1, 74, 0
3, 4320, Note_on_c, 1, 75, 90
3, 4334, Note_on_c, 1, 75, 0
3, 4335, Note_on_c, 1, 74, 90
3, 4349, Note_on_c, 1, 74, 0
3, 4350, Note_on_c, 1, 75, 90
3, 4364, Note_on_c, 1, 75, 0
3, 4365, Note_on_c, 1, 74, 90
3, 4379, Note_on_c, 1, 74, 0
3, 4380, Note_on_c, 1, 75, 90
3, 4394, Note_on_c, 1, 75, 0
3, 4395, Note_on_c, 1, 74, 90
3, 4409, Note_on_c, 1, 74, 0
3, 4410, Note_on_c, 1, 75, 90
3, 4424, Note_on_c, 1, 75, 0
3, 4425, Note_on_c, 1, 74, 90
3, 4439, Note_on_c, 1, 74, 0
3, 4440, Note_on_c, 1, 75, 90
3, 4454, Note_on_c, 1, 75, 0
3, 4455, Note_on_c, 1, 74, 90
3, 4469, Note_on_c, 1, 74, 0
3, 4470, Note_on_c, 1, 72, 90
3, 4499, Note_on_c, 1, 72, 0
3, 4500, Note_on_c, 1, 74, 90
3, 4529, Note_on_c, 1, 74, 0
3, 4530, Note_on_c, 1, 69, 90
3, 4559, Note_on_c, 1, 69, 0
3, 4560, Note_on_c, 1, 70, 90
3, 4589, Note_on_c, 1, 70, 0
3, 4590, Note_on_c, 1, 69, 90
3, 4619, Note_on_c, 1, 69, 0
3, 4620, Note_on_c, 1, 70, 90
3, 4649, Note_on_c, 1, 70, 0
3, 4650, Note_on_c, 1, 79, 90
3, 4679, Note_on_c, 1, 79, 0
3, 4680, Note_on_c, 1, 78, 90
3, 4709, Note_on_c, 1, 78, 0
3, 4710, Note_on_c, 1, 79, 90
3, 4739, Note_on_c, 1, 79, 0
3, 4740, Note_on_c, 1, 79, 90
3, 4749, Note_on_c, 1, 79, 0
3, 4750, Note_on_c, 1, 81, 90
3, 4759, Note_on_c, 1, 81, 0
3, 4760, Note_on_c, 1, 79, 90
3, 4769, Note_on_c, 1, 79, 0
3, 4770, Note_on_c, 1, 78, 90
3, 4784, Note_on_c, 1, 78, 0
3, 4785, Note_on_c, 1, 79, 90
3, 4799, Note_on_c, 1, 79, 0
3, 4800, Note_on_c, 1, 81, 90
3, 4829, Note_on_c, 1, 81, 0
3, 4830, Note_on_c, 1, 79, 90
3, 4859, Note_on_c, 1, 79, 0
3, 4860, Note_on_c, 1, 78, 90
3, 4889, Note_on_c, 1, 78, 0
3, 4890, Note_on_c, 1, 76, 90
3, 4919, Note_on_c, 1, 76, 0
3, 4920, Note_on_c, 1, 74, 90
3, 4979, Note_on_c, 1, 74, 0
3, 4980, Note_on_c, 1, 79, 90
3, 5009, Note_on_c, 1, 79, 0
3, 5010, Note_on_c, 1, 78, 90
3, 5039, Note_on_c, 1, 78, 0
3, 5040, Note_on_c, 1, 79, 90
3, 5099, Note_on_c, 1, 79, 0
3, 5100, Note_on_c, 1, 74, 90
3, 5129, Note_on_c, 1, 74, 0
3, 5130, Note_on_c, 1, 72, 90
3, 5159, Note_on_c, 1, 72, 0
3, 5160, Note_on_c, 1, 74, 90
3, 5219, Note_on_c, 1, 74, 0
3, 5220, Note_on_c, 1, 70, 90
3, 5249, Note_on_c, 1, 70, 0
3, 5250, Note_on_c, 1, 69, 90
3, 5279, Note_on_c, 1, 69, 0
3, 5280, Note_on_c, 1, 70, 90
3, 5339, Note_on_c, 1, 70, 0
3, 5340, Note_on_c, 1, 67, 90
3, 5369, Note_on_c, 1, 67, 0
3, 5370, Note_on_c, 1, 66, 90
3, 5399, Note_on_c, 1, 66, 0
3, 5400, Note_on_c, 1, 67, 90
3, 5459, Note_on_c, 1, 67, 0
3, 5460, Note_on_c, 1, 70, 90
3, 5519, Note_on_c, 1, 70, 0
3, 5520, Note_on_c, 1, 74, 90
3, 5579, Note_on_c, 1, 74, 0
3, 5580, Note_on_c, 1, 79, 90
3, 5639, Note_on_c, 1, 79, 0
3, 5640, Note_on_c, 1, 81, 90
3, 5669, Note_on_c, 1, 81, 0
3, 5670, Note_on_c, 1, 79, 90
3, 5699, Note_on_c, 1, 79, 0
3, 5700, Note_on_c, 1, 78, 90
3, 5729, Note_on_c, 1, 78, 0
3, 5730, Note_on_c, 1, 76, 90
3, 5759, Note_on_c, 1, 76, 0
3, 5760, Note_on_c, 1, 74, 90
3, 5819, Note_on_c, 1, 74, 0
3, 5820, Note_on_c, 1, 81, 90
3, 5879, Note_on_c, 1, 81, 0
3, 5880, Note_on_c, 1, 82, 90
3, 5909, Note_on_c, 1, 82, 0
3, 5910, Note_on_c, 1, 84, 90
3, 5939, Note_on_c, 1, 84, 0
3, 5940, Note_on_c, 1, 82, 90
3, 5969, Note_on_c, 1, 82, 0
3, 5970, Note_on_c, 1, 81, 90
3, 5999, Note_on_c, 1, 81, 0
3, 6000, Note_on_c, 1, 79, 90
3, 6029, Note_on_c, 1, 79, 0
3, 6030, Note_on_c, 1, 77, 90
3, 6059, Note_on_c, 1, 77, 0
3, 6060, Note_on_c, 1, 75, 90
3, 6089, Note_on_c, 1, 75, 0
3, 6090, Note_on_c, 1, 74, 90
3, 6119, Note_on_c, 1, 74, 0
3, 6120, Note_on_c, 1, 72, 90
3, 6179, Note_on_c, 1, 72, 0
3, 6180, Note_on_c, 1, 75, 90
3, 6239, Note_on_c, 1, 75, 0
3, 6240, Note_on_c, 1, 79, 90
3, 6299, Note_on_c, 1, 79, 0
3, 6300, Note_on_c, 1, 82, 90
3, 6359, Note_on_c, 1, 82, 0
3, 6360, Note_on_c, 1, 81, 90
3, 6389, Note_on_c, 1, 81, 0
3, 6390, Note_on_c, 1, 82, 90
3, 6419, Note_on_c, 1, 82, 0
3, 6420, Note_on_c, 1, 81, 90
3, 6449, Note_on_c, 1, 81, 0
3, 6450, Note_on_c, 1, 79, 90
3, 6479, Note_on_c, 1, 79, 0
3, 6480, Note_on_c, 1, 77, 90
3, 6509, Note_on_c, 1, 77, 0
3, 6510, Note_on_c, 1, 75, 90
3, 6539, Note_on_c, 1, 75, 0
3, 6540, Note_on_c, 1, 74, 90
3, 6569, Note_on_c, 1, 74, 0
3, 6570, Note_on_c, 1, 72, 90
3, 6599, Note_on_c, 1, 72, 0
3, 6600, Note_on_c, 1, 70, 90
3, 6659, Note_on_c, 1, 70, 0
3, 6660, Note_on_c, 1, 74, 90
3, 6719, Note_on_c, 1, 74, 0
3, 6720, Note_on_c, 1, 77, 90
3, 6779, Note_on_c, 1, 77, 0
3, 6780, Note_on_c, 1, 81, 90
3, 6839, Note_on_c, 1, 81, 0
3, 6840, Note_on_c, 1, 79, 90
3, 6869, Note_on_c, 1, 79, 0
3, 6870, Note_on_c, 1, 81, 90
3, 6899, Note_on_c, 1, 81, 0
3, 6900, Note_on_c, 1, 79, 90
3, 6929, Note_on_c, 1, 79, 0
3, 6930, Note_on_c, 1, 77, 90
3, 6959, Note_on_c, 1, 77, 0
3, 6960, Note_on_c, 1, 75, 90
3, 6989, Note_on_c, 1, 75, 0
3, 6990, Note_on_c, 1, 74, 90
3, 7019, Note_on_c, 1, 74, 0
3, 7020, Note_on_c, 1, 72, 90
3, 7049, Note_on_c, 1, 72, 0
3, 7050, Note_on_c, 1, 70, 90
3, 7079, Note_on_c, 1, 70, 0
3, 7080, Note_on_c, 1, 69, 90
3, 7109, Note_on_c, 1, 69, 0
3, 7110, Note_on_c, 1, 70, 90
3, 7139, Note_on_c, 1, 70, 0
3, 7140, Note_on_c, 1, 72, 90
3, 7169, Note_on_c, 1, 72, 0
3, 7170, Note_on_c, 1, 74, 90
3, 7199, Note_on_c, 1, 74, 0
3, 7200, Note_on_c, 1, 75, 90
3, 7229, Note_on_c, 1, 75, 0
3, 7230, Note_on_c, 1, 72, 90
3, 7259, Note_on_c, 1, 72, 0
3, 7260, Note_on_c, 1, 69, 90
3, 7289, Note_on_c, 1, 69, 0
3, 7290, Note_on_c, 1, 72, 90
3, 7319, Note_on_c, 1, 72, 0
3, 7320, Note_on_c, 1, 66, 90
3, 7349, Note_on_c, 1, 66, 0
3, 7350, Note_on_c, 1, 67, 90
3, 7379, Note_on_c, 1, 67, 0
3, 7380, Note_on_c, 1, 69, 90
3, 7409, Note_on_c, 1, 69, 0
3, 7410, Note_on_c, 1, 70, 90
3, 7439, Note_on_c, 1, 70, 0
3, 7440, Note_on_c, 1, 72, 90
3, 7469, Note_on_c, 1, 72, 0
3, 7470, Note_on_c, 1, 69, 90
3, 7499, Note_on_c, 1, 69, 0
3, 7500, Note_on_c, 1, 66, 90
3, 7529, Note_on_c, 1, 66, 0
3, 7530, Note_on_c, 1, 69, 90
3, 7559, Note_on_c, 1, 69, 0
3, 7560, Note_on_c, 1, 62, 90
3, 7589, Note_on_c, 1, 62, 0
3, 7590, Note_on_c, 1, 64, 90
3, 7619, Note_on_c, 1, 64, 0
3, 7620, Note_on_c, 1, 66, 90
3, 7649, Note_on_c, 1, 66, 0
3, 7650, Note_on_c, 1, 67, 90
3, 7679, Note_on_c, 1, 67, 0
3, 7680, Note_on_c, 1, 69, 90
3, 7709, Note_on_c, 1, 69, 0
3, 7710, Note_on_c, 1, 70, 90
3, 7739, Note_on_c, 1, 70, 0
3, 7740, Note_on_c, 1, 72, 90
3, 7769, Note_on_c, 1, 72, 0
3, 7770, Note_on_c, 1, 69, 90
3, 7799, Note_on_c, 1, 69, 0
3, 7800, Note_on_c, 1, 74, 90
3, 7829, Note_on_c, 1, 74, 0
3, 7830, Note_on_c, 1, 66, 90
3, 7859, Note_on_c, 1, 66, 0
3, 7860, Note_on_c, 1, 67, 90
3, 7949, Note_on_c, 1, 67, 0
3, 7950, Note_on_c, 1, 74, 90
3, 7979, Note_on_c, 1, 74, 0
3, 7980, Note_on_c, 1, 70, 90
3, 8009, Note_on_c, 1, 70, 0
3, 8010, Note_on_c, 1, 67, 90
3, 8039, Note_on_c, 1, 67, 0
3, 8040, Note_on_c, 1, 75, 90
3, 8069, Note_on_c, 1, 75, 0
3, 8070, Note_on_c, 1, 66, 90
3, 8099, Note_on_c, 1, 66, 0
3, 8100, Note_on_c, 1, 67, 90
3, 8189, Note_on_c, 1, 67, 0
3, 8190, Note_on_c, 1, 75, 90
3, 8219, Note_on_c, 1, 75, 0
3, 8220, Note_on_c, 1, 72, 90
3, 8249, Note_on_c, 1, 72, 0
3, 8250, Note_on_c, 1, 69, 90
3, 8279, Note_on_c, 1, 69, 0
3, 8280, Note_on_c, 1, 74, 90
3, 8309, Note_on_c, 1, 74, 0
3, 8310, Note_on_c, 1, 66, 90
3, 8339, Note_on_c, 1, 66, 0
3, 8340, Note_on_c, 1, 67, 90
3, 8369, Note_on_c, 1, 67, 0
3, 8370, Note_on_c, 1, 70, 90
3, 8399, Note_on_c, 1, 70, 0
3, 8400, Note_on_c, 1, 75, 90
3, 8429, Note_on_c, 1, 75, 0
3, 8430, Note_on_c, 1, 66, 90
3, 8459, Note_on_c, 1, 66, 0
3, 8460, Note_on_c, 1, 67, 90
3, 8489, Note_on_c, 1, 67, 0
3, 8490, Note_on_c, 1, 72, 90
3, 8519, Note_on_c, 1, 72, 0
3, 8520, Note_on_c, 1, 74, 90
3, 8579, Note_on_c, 1, 74, 0
3, 8580, Note_on_c, 1, 67, 90
3, 8639, Note_on_c, 1, 67, 0
3, 8640, Note_on_c, 1, 62, 90
3, 8699, Note_on_c, 1, 62, 0
3, 8700, Note_on_c, 1, 67, 90
3, 8714, Note_on_c, 1, 67, 0
3, 8715, Note_on_c, 1, 66, 90
3, 8729, Note_on_c, 1, 66, 0
3, 8730, Note_on_c, 1, 64, 90
3, 8744, Note_on_c, 1, 64, 0
3, 8745, Note_on_c, 1, 66, 90
3, 8759, Note_on_c, 1, 66, 0
3, 8760, Note_on_c, 1, 67, 90
3, 8789, Note_on_c, 1, 67, 0
3, 8790, Note_on_c, 1, 70, 90
3, 8819, Note_on_c, 1, 70, 0
3, 8820, Note_on_c, 1, 74, 90
3, 8849, Note_on_c, 1, 74, 0
3, 8850, Note_on_c, 1, 69, 90
3, 8879, Note_on_c, 1, 69, 0
3, 8880, Note_on_c, 1, 70, 90
3, 8909, Note_on_c, 1, 70, 0
3, 8910, Note_on_c, 1, 76, 90
3, 8939, Note_on_c, 1, 76, 0
3, 8940, Note_on_c, 1, 79, 90
3, 8969, Note_on_c, 1, 79, 0
3, 8970, Note_on_c, 1, 69, 90
3, 8999, Note_on_c, 1, 69, 0
3, 9000, Note_on_c, 1, 70, 90
3, 9029, Note_on_c, 1, 70, 0
3, 9030, Note_on_c, 1, 76, 90
3, 9059, Note_on_c, 1, 76, 0
3, 9060, Note_on_c, 1, 79, 90
3, 9089, Note_on_c, 1, 79, 0
3, 9090, Note_on_c, 1, 69, 90
3, 9119, Note_on_c, 1, 69, 0
3, 9120, Note_on_c, 1, 70, 90
3, 9149, Note_on_c, 1, 70, 0
3, 9150, Note_on_c, 1, 76, 90
3, 9179, Note_on_c, 1, 76, 0
3, 9180, Note_on_c, 1, 74, 90
3, 9209, Note_on_c, 1, 74, 0
3, 9210, Note_on_c, 1, 76, 90
3, 9239, Note_on_c, 1, 76, 0
3, 9240, Note_on_c, 1, 65, 90
3, 9269, Note_on_c, 1, 65, 0
3, 9270, Note_on_c, 1, 69, 90
3, 9299, Note_on_c, 1, 69, 0
3, 9300, Note_on_c, 1, 72, 90
3, 9329, Note_on_c, 1, 72, 0
3, 9330, Note_on_c, 1, 67, 90
3, 9359, Note_on_c, 1, 67, 0
3, 9360, Note_on_c, 1, 69, 90
3, 9389, Note_on_c, 1, 69, 0
3, 9390, Note_on_c, 1, 74, 90
3, 9419, Note_on_c, 1, 74, 0
3, 9420, Note_on_c, 1, 77, 90
3, 9449, Note_on_c, 1, 77, 0
3, 9450, Note_on_c, 1, 67, 90
3, 9479, Note_on_c, 1, 67, 0
3, 9480, Note_on_c, 1, 69, 90
3, 9509, Note_on_c, 1, 69, 0
3, 9510, Note_on_c, 1, 74, 90
3, 9539, Note_on_c, 1, 74, 0
3, 9540, Note_on_c, 1, 77, 90
3, 9569, Note_on_c, 1, 77, 0
3, 9570, Note_on_c, 1, 67, 90
3, 9599, Note_on_c, 1, 67, 0
3, 9600, Note_on_c, 1, 69, 90
3, 9629, Note_on_c, 1, 69, 0
3, 9630, Note_on_c, 1, 74, 90
3, 9659, Note_on_c, 1, 74, 0
3, 9660, Note_on_c, 1, 73, 90
3, 9689, Note_on_c, 1, 73, 0
3, 9690, Note_on_c, 1, 74, 90
3, 9719, Note_on_c, 1, 74, 0
3, 9720, Note_on_c, 1, 64, 90
3, 9749, Note_on_c, 1, 64, 0
3, 9750, Note_on_c, 1, 67, 90
3, 9779, Note_on_c, 1, 67, 0
3, 9780, Note_on_c, 1, 70, 90
3, 9809, Note_on_c, 1, 70, 0
3, 9810, Note_on_c, 1, 67, 90
3, 9839, Note_on_c, 1, 67, 0
3, 9840, Note_on_c, 1, 69, 90
3, 9869, Note_on_c, 1, 69, 0
3, 9870, Note_on_c, 1, 73, 90
3, 9899, Note_on_c, 1, 73, 0
3, 9900, Note_on_c, 1, 76, 90
3, 9929, Note_on_c, 1, 76, 0
3, 9930, Note_on_c, 1, 65, 90
3, 9959, Note_on_c, 1, 65, 0
3, 9960, Note_on_c, 1, 67, 90
3, 9989, Note_on_c, 1, 67, 0
3, 9990, Note_on_c, 1, 73, 90
3, 10019, Note_on_c, 1, 73, 0
3, 10020, Note_on_c, 1, 76, 90
3, 10049, Note_on_c, 1, 76, 0
3, 10050, Note_on_c, 1, 65, 90
3, 10079, Note_on_c, 1, 65, 0
3, 10080, Note_on_c, 1, 67, 90
3, 10109, Note_on_c, 1, 67, 0
3, 10110, Note_on_c, 1, 73, 90
3, 10139, Note_on_c, 1, 73, 0
3, 10140, Note_on_c, 1, 71, 90
3, 10169, Note_on_c, 1, 71, 0
3, 10170, Note_on_c, 1, 73, 90
3, 10199, Note_on_c, 1, 73, 0
3, 10200, Note_on_c, 1, 62, 90
3, 10259, Note_on_c, 1, 62, 0
3, 10260, Note_on_c, 1, 81, 90
3, 10289, Note_on_c, 1, 81, 0
3, 10290, Note_on_c, 1, 73, 90
3, 10319, Note_on_c, 1, 73, 0
3, 10320, Note_on_c, 1, 74, 90
3, 10499, Note_on_c, 1, 74, 0
3, 10500, Note_on_c, 1, 82, 90
3, 10529, Note_on_c, 1, 82, 0
3, 10530, Note_on_c, 1, 73, 90
3, 10559, Note_on_c, 1, 73, 0
3, 10560, Note_on_c, 1, 74, 90
3, 10739, Note_on_c, 1, 74, 0
3, 10740, Note_on_c, 1, 81, 90
3, 10769, Note_on_c, 1, 81, 0
3, 10770, Note_on_c, 1, 73, 90
3, 10799, Note_on_c, 1, 73, 0
3, 10800, Note_on_c, 1, 74, 90
3, 10859, Note_on_c, 1, 74, 0
3, 10860, Note_on_c, 1, 82, 90
3, 10889, Note_on_c, 1, 82, 0
3, 10890, Note_on_c, 1, 73, 90
3, 10919, Note_on_c, 1, 73, 0
3, 10920, Note_on_c, 1, 74, 90
3, 11009, Note_on_c, 1, 74, 0
3, 11010, Note_on_c, 1, 76, 90
3, 11039, Note_on_c, 1, 76, 0
3, 11040, Note_on_c, 1, 77, 90
3, 11054, Note_on_c, 1, 77, 0
3, 11055, Note_on_c, 1, 76, 90
3, 11069, Note_on_c, 1, 76, 0
3, 11070, Note_on_c, 1, 77, 90
3, 11084, Note_on_c, 1, 77, 0
3, 11085, Note_on_c, 1, 76, 90
3, 11099, Note_on_c, 1, 76, 0
3, 11100, Note_on_c, 1, 77, 90
3, 11114, Note_on_c, 1, 77, 0
3, 11115, Note_on_c, 1, 76, 90
3, 11129, Note_on_c, 1, 76, 0
3, 11130, Note_on_c, 1, 74, 90
3, 11159, Note_on_c, 1, 74, 0
3, 11160, Note_on_c, 1, 74, 90
3, 11189, Note_on_c, 1, 74, 0
3, 11190, Note_on_c, 1, 73, 90
3, 11219, Note_on_c, 1, 73, 0
3, 11220, Note_on_c, 1, 74, 90
3, 11369, Note_on_c, 1, 74, 0
3, 11370, Note_on_c, 1, 73, 90
3, 11399, Note_on_c, 1, 73, 0
3, 11400, Note_on_c, 1, 74, 90
3, 11429, Note_on_c, 1, 74, 0
3, 11430, Note_on_c, 1, 73, 90
3, 11459, Note_on_c, 1, 73, 0
3, 11460, Note_on_c, 1, 73, 90
3, 11489, Note_on_c, 1, 73, 0
3, 11490, Note_on_c, 1, 74, 90
3, 11669, Note_on_c, 1, 74, 0
3, 11670, Note_on_c, 1, 73, 90
3, 11699, Note_on_c, 1, 73, 0
3, 11700, Note_on_c, 1, 74, 90
3, 11729, Note_on_c, 1, 74, 0
3, 11730, Note_on_c, 1, 76, 90
3, 11759, Note_on_c, 1, 76, 0
3, 11760, Note_on_c, 1, 73, 90
3, 11789, Note_on_c, 1, 73, 0
3, 11790, Note_on_c, 1, 74, 90
3, 11804, Note_on_c, 1, 74, 0
3, 11805, Note_on_c, 1, 73, 90
3, 11819, Note_on_c, 1, 73, 0
3, 11820, Note_on_c, 1, 71, 90
3, 11834, Note_on_c, 1, 71, 0
3, 11835, Note_on_c, 1, 73, 90
3, 11849, Note_on_c, 1, 73, 0
3, 11850, Note_on_c, 1, 74, 90
3, 11879, Note_on_c, 1, 74, 0
3, 11880, Note_on_c, 1, 74, 90
3, 11999, Note_on_c, 1, 74, 0
3, 12180, Note_on_c, 1, 70, 90
3, 12209, Note_on_c, 1, 70, 0
3, 12210, Note_on_c, 1, 69, 90
3, 12239, Note_on_c, 1, 69, 0
3, 12240, Note_on_c, 1, 67, 90
3, 12299, Note_on_c, 1, 67, 0
3, 12300, Note_on_c, 1, 62, 90
3, 12359, Note_on_c, 1, 62, 0
3, 12360, Note_on_c, 1, 63, 90
3, 12419, Note_on_c, 1, 63, 0
3, 12420, Note_on_c, 1, 63, 90
3, 12449, Note_on_c, 1, 63, 0
3, 12450, Note_on_c, 1, 62, 90
3, 12479, Note_on_c, 1, 62, 0
3, 12480, Note_on_c, 1, 63, 90
3, 12539, Note_on_c, 1, 63, 0
3, 12540, Note_on_c, 1, 70, 90
3, 12599, Note_on_c, 1, 70, 0
3, 12600, Note_on_c, 1, 62, 90
3, 12600, Note_on_c, 1, 65, 90
3, 12600, Note_on_c, 1, 70, 90
3, 12720, Note_on_c, 1, 70, 0
3, 12720, Note_on_c, 1, 65, 0
3, 12720, Note_on_c, 1, 62, 0
3, 12720, Note_on_c, 1, 63, 90
3, 12720, Note_on_c, 1, 67, 90
3, 12720, Note_on_c, 1, 72, 90
3, 12840, Note_on_c, 1, 72, 0
3, 12840, Note_on_c, 1, 67, 0
3, 12840, Note_on_c, 1, 63, 0
3, 12840, Note_on_c, 1, 65, 90
3, 12840, Note_on_c, 1, 70, 90
3, 12840, Note_on_c, 1, 74, 90
3, 12960, Note_on_c, 1, 74, 0
3, 12960, Note_on_c, 1, 70, 0
3, 12960, Note_on_c, 1, 65, 0
3, 13020, Note_on_c, 1, 81, 90
3, 13049, Note_on_c, 1, 81, 0
3, 13050, Note_on_c, 1, 82, 90
3, 13079, Note_on_c, 1, 82, 0
3, 13080, Note_on_c, 1, 84, 90
3, 13109, Note_on_c, 1, 84, 0
3, 13110, Note_on_c, 1, 76, 90
3, 13139, Note_on_c, 1, 76, 0
3, 13140, Note_on_c, 1, 77, 90
3, 13229, Note_on_c, 1, 77, 0
3, 13230, Note_on_c, 1, 84, 90
3, 13259, Note_on_c, 1, 84, 0
3, 13260, Note_on_c, 1, 81, 90
3, 13289, Note_on_c, 1, 81, 0
3, 13290, Note_on_c, 1, 77, 90
3, 13319, Note_on_c, 1, 77, 0
3, 13320, Note_on_c, 1, 86, 90
3, 13349, Note_on_c, 1, 86, 0
3, 13350, Note_on_c, 1, 76, 90
3, 13379, Note_on_c, 1, 76, 0
3, 13380, Note_on_c, 1, 77, 90
3, 13469, Note_on_c, 1, 77, 0
3, 13470, Note_on_c, 1, 86, 90
3, 13499, Note_on_c, 1, 86, 0
3, 13500, Note_on_c, 1, 82, 90
3, 13529, Note_on_c, 1, 82, 0
3, 13530, Note_on_c, 1, 79, 90
3, 13559, Note_on_c, 1, 79, 0
3, 13560, Note_on_c, 1, 84, 90
3, 13589, Note_on_c, 1, 84, 0
3, 13590, Note_on_c, 1, 76, 90
3, 13619, Note_on_c, 1, 76, 0
3, 13620, Note_on_c, 1, 77, 90
3, 13649, Note_on_c, 1, 77, 0
3, 13650, Note_on_c, 1, 81, 90
3, 13679, Note_on_c, 1, 81, 0
3, 13680, Note_on_c, 1, 86, 90
3, 13709, Note_on_c, 1, 86, 0
3, 13710, Note_on_c, 1, 76, 90
3, 13739, Note_on_c, 1, 76, 0
3, 13740, Note_on_c, 1, 77, 90
3, 13769, Note_on_c, 1, 77, 0
3, 13770, Note_on_c, 1, 86, 90
3, 13799, Note_on_c, 1, 86, 0
3, 13800, Note_on_c, 1, 84, 90
3, 13859, Note_on_c, 1, 84, 0
3, 13860, Note_on_c, 1, 82, 90
3, 13889, Note_on_c, 1, 82, 0
3, 13890, Note_on_c, 1, 81, 90
3, 13919, Note_on_c, 1, 81, 0
3, 13920, Note_on_c, 1, 79, 90
3, 13949, Note_on_c, 1, 79, 0
3, 13950, Note_on_c, 1, 81, 90
3, 13979, Note_on_c, 1, 81, 0
3, 13980, Note_on_c, 1, 82, 90
3, 14009, Note_on_c, 1, 82, 0
3, 14010, Note_on_c, 1, 79, 90
3, 14039, Note_on_c, 1, 79, 0
3, 14040, Note_on_c, 1, 81, 90
3, 14099, Note_on_c, 1, 81, 0
3, 14100, Note_on_c, 1, 72, 90
3, 14159, Note_on_c, 1, 72, 0
3, 14160, Note_on_c, 1, 77, 90
3, 14219, Note_on_c, 1, 77, 0
3, 14220, Note_on_c, 1, 81, 90
3, 14309, Note_on_c, 1, 81, 0
3, 14310, Note_on_c, 1, 74, 90
3, 14339, Note_on_c, 1, 74, 0
3, 14340, Note_on_c, 1, 73, 90
3, 14369, Note_on_c, 1, 73, 0
3, 14370, Note_on_c, 1, 74, 90
3, 14399, Note_on_c, 1, 74, 0
3, 14400, Note_on_c, 1, 79, 90
3, 14549, Note_on_c, 1, 79, 0
3, 14550, Note_on_c, 1, 73, 90
3, 14579, Note_on_c, 1, 73, 0
3, 14580, Note_on_c, 1, 71, 90
3, 14609, Note_on_c, 1, 71, 0
3, 14610, Note_on_c, 1, 73, 90
3, 14639, Note_on_c, 1, 73, 0
3, 14640, Note_on_c, 1, 77, 90
3, 14819, Note_on_c, 1, 77, 0
3, 14820, Note_on_c, 1, 79, 90
3, 14849, Note_on_c, 1, 79, 0
3, 14850, Note_on_c, 1, 77, 90
3, 14879, Note_on_c, 1, 77, 0
3, 14880, Note_on_c, 1, 76, 90
3, 15029, Note_on_c, 1, 76, 0
3, 15030, Note_on_c, 1, 74, 90
3, 15044, Note_on_c, 1, 74, 0
3, 15045, Note_on_c, 1, 76, 90
3, 15059, Note_on_c, 1, 76, 0
3, 15060, Note_on_c, 1, 77, 90
3, 15089, Note_on_c, 1, 77, 0
3, 15090, Note_on_c, 1, 74, 90
3, 15104, Note_on_c, 1, 74, 0
3, 15105, Note_on_c, 1, 76, 90
3, 15119, Note_on_c, 1, 76, 0
3, 15120, Note_on_c, 1, 77, 90
3, 15149, Note_on_c, 1, 77, 0
3, 15150, Note_on_c, 1, 74, 90
3, 15179, Note_on_c, 1, 74, 0
3, 15180, Note_on_c, 1, 69, 90
3, 15209, Note_on_c, 1, 69, 0
3, 15210, Note_on_c, 1, 74, 90
3, 15239, Note_on_c, 1, 74, 0
3, 15240, Note_on_c, 1, 70, 90
3, 15269, Note_on_c, 1, 70, 0
3, 15270, Note_on_c, 1, 76, 90
3, 15284, Note_on_c, 1, 76, 0
3, 15285, Note_on_c, 1, 77, 90
3, 15299, Note_on_c, 1, 77, 0
3, 15300, Note_on_c, 1, 79, 90
3, 15329, Note_on_c, 1, 79, 0
3, 15330, Note_on_c, 1, 76, 90
3, 15344, Note_on_c, 1, 76, 0
3, 15345, Note_on_c, 1, 77, 90
3, 15359, Note_on_c, 1, 77, 0
3, 15360, Note_on_c, 1, 79, 90
3, 15389, Note_on_c, 1, 79, 0
3, 15390, Note_on_c, 1, 76, 90
3, 15419, Note_on_c, 1, 76, 0
3, 15420, Note_on_c, 1, 71, 90
3, 15449, Note_on_c, 1, 71, 0
3, 15450, Note_on_c, 1, 74, 90
3, 15479, Note_on_c, 1, 74, 0
3, 15480, Note_on_c, 1, 73, 90
3, 15509, Note_on_c, 1, 73, 0
3, 15510, Note_on_c, 1, 77, 90
3, 15524, Note_on_c, 1, 77, 0
3, 15525, Note_on_c, 1, 79, 90
3, 15539, Note_on_c, 1, 79, 0
3, 15540, Note_on_c, 1, 81, 90
3, 15569, Note_on_c, 1, 81, 0
3, 15570, Note_on_c, 1, 77, 90
3, 15584, Note_on_c, 1, 77, 0
3, 15585, Note_on_c, 1, 79, 90
3, 15599, Note_on_c, 1, 79, 0
3, 15600, Note_on_c, 1, 81, 90
3, 15629, Note_on_c, 1, 81, 0
3, 15630, Note_on_c, 1, 77, 90
3, 15659, Note_on_c, 1, 77, 0
3, 15660, Note_on_c, 1, 73, 90
3, 15689, Note_on_c, 1, 73, 0
3, 15690, Note_on_c, 1, 76, 90
3, 15719, Note_on_c, 1, 76, 0
3, 15720, Note_on_c, 1, 74, 90
3, 15749, Note_on_c, 1, 74, 0
3, 15750, Note_on_c, 1, 79, 90
3, 15764, Note_on_c, 1, 79, 0
3, 15765, Note_on_c, 1, 81, 90
3, 15779, Note_on_c, 1, 81, 0
3, 15780, Note_on_c, 1, 82, 90
3, 15809, Note_on_c, 1, 82, 0
3, 15810, Note_on_c, 1, 79, 90
3, 15824, Note_on_c, 1, 79, 0
3, 15825, Note_on_c, 1, 81, 90
3, 15839, Note_on_c, 1, 81, 0
3, 15840, Note_on_c, 1, 82, 90
3, 15869, Note_on_c, 1, 82, 0
3, 15870, Note_on_c, 1, 79, 90
3, 15899, Note_on_c, 1, 79, 0
3, 15900, Note_on_c, 1, 74, 90
3, 15929, Note_on_c, 1, 74, 0
3, 15930, Note_on_c, 1, 77, 90
3, 15959, Note_on_c, 1, 77, 0
3, 15960, Note_on_c, 1, 76, 90
3, 15989, Note_on_c, 1, 76, 0
3, 15990, Note_on_c, 1, 73, 90
3, 16004, Note_on_c, 1, 73, 0
3, 16005, Note_on_c, 1, 74, 90
3, 16019, Note_on_c, 1, 74, 0
3, 16020, Note_on_c, 1, 76, 90
3, 16049, Note_on_c, 1, 76, 0
3, 16050, Note_on_c, 1, 73, 90
3, 16064, Note_on_c, 1, 73, 0
3, 16065, Note_on_c, 1, 74, 90
3, 16079, Note_on_c, 1, 74, 0
3, 16080, Note_on_c, 1, 76, 90
3, 16109, Note_on_c, 1, 76, 0
3, 16110, Note_on_c, 1, 73, 90
3, 16139, Note_on_c, 1, 73, 0
3, 16140, Note_on_c, 1, 69, 90
3, 16169, Note_on_c, 1, 69, 0
3, 16170, Note_on_c, 1, 73, 90
3, 16199, Note_on_c, 1, 73, 0
3, 16200, Note_on_c, 1, 74, 90
3, 16229, Note_on_c, 1, 74, 0
3, 16230, Note_on_c, 1, 73, 90
3, 16259, Note_on_c, 1, 73, 0
3, 16260, Note_on_c, 1, 74, 90
3, 16289, Note_on_c, 1, 74, 0
3, 16290, Note_on_c, 1, 82, 90
3, 16319, Note_on_c, 1, 82, 0
3, 16320, Note_on_c, 1, 73, 90
3, 16409, Note_on_c, 1, 73, 0
3, 16410, Note_on_c, 1, 74, 90
3, 16439, Note_on_c, 1, 74, 0
3, 16440, Note_on_c, 1, 74, 90
3, 16499, Note_on_c, 1, 74, 0
3, 16500, Note_on_c, 1, 74, 90
3, 16529, Note_on_c, 1, 74, 0
3, 16530, Note_on_c, 1, 73, 90
3, 16559, Note_on_c, 1, 73, 0
3, 16560, Note_on_c, 1, 74, 90
3, 16619, Note_on_c, 1, 74, 0
3, 16620, Note_on_c, 1, 69, 90
3, 16649, Note_on_c, 1, 69, 0
3, 16650, Note_on_c, 1, 67, 90
3, 16679, Note_on_c, 1, 67, 0
3, 16680, Note_on_c, 1, 69, 90
3, 16739, Note_on_c, 1, 69, 0
3, 16740, Note_on_c, 1, 65, 90
3, 16769, Note_on_c, 1, 65, 0
3, 16770, Note_on_c, 1, 64, 90
3, 16799, Note_on_c, 1, 64, 0
3, 16800, Note_on_c, 1, 65, 90
3, 16859, Note_on_c, 1, 65, 0
3, 16860, Note_on_c, 1, 62, 90
3, 16889, Note_on_c, 1, 62, 0
3, 16890, Note_on_c, 1, 61, 90
3, 16919, Note_on_c, 1, 61, 0
3, 16920, Note_on_c, 1, 62, 90
3, 16979, Note_on_c, 1, 62, 0
3, 16980, Note_on_c, 1, 65, 90
3, 17039, Note_on_c, 1, 65, 0
3, 17040, Note_on_c, 1, 69, 90
3, 17099, Note_on_c, 1, 69, 0
3, 17100, Note_on_c, 1, 74, 90
3, 17159, Note_on_c, 1, 74, 0
3, 17160, Note_on_c, 1, 76, 90
3, 17189, Note_on_c, 1, 76, 0
3, 17190, Note_on_c, 1, 74, 90
3, 17219, Note_on_c, 1, 74, 0
3, 17220, Note_on_c, 1, 73, 90
3, 17249, Note_on_c, 1, 73, 0
3, 17250, Note_on_c, 1, 71, 90
3, 17279, Note_on_c, 1, 71, 0
3, 17280, Note_on_c, 1, 69, 90
3, 17339, Note_on_c, 1, 69, 0
3, 17340, Note_on_c, 1, 81, 90
3, 17399, Note_on_c, 1, 81, 0
3, 17400, Note_on_c, 1, 81, 90
3, 17419, Note_on_c, 1, 81, 0
3, 17420, Note_on_c, 1, 82, 90
3, 17439, Note_on_c, 1, 82, 0
3, 17440, Note_on_c, 1, 81, 90
3, 17459, Note_on_c, 1, 81, 0
3, 17460, Note_on_c, 1, 82, 90
3, 17474, Note_on_c, 1, 82, 0
3, 17475, Note_on_c, 1, 81, 90
3, 17489, Note_on_c, 1, 81, 0
3, 17490, Note_on_c, 1, 82, 90
3, 17504, Note_on_c, 1, 82, 0
3, 17505, Note_on_c, 1, 81, 90
3, 17519, Note_on_c, 1, 81, 0
3, 17520, Note_on_c, 1, 82, 90
3, 17534, Note_on_c, 1, 82, 0
3, 17535, Note_on_c, 1, 81, 90
3, 17549, Note_on_c, 1, 81, 0
3, 17550, Note_on_c, 1, 82, 90
3, 17564, Note_on_c, 1, 82, 0
3, 17565, Note_on_c, 1, 81, 90
3, 17579, Note_on_c, 1, 81, 0
3, 17580, Note_on_c, 1, 82, 90
3, 17594, Note_on_c, 1, 82, 0
3, 17595, Note_on_c, 1, 81, 90
3, 17609, Note_on_c, 1, 81, 0
3, 17610, Note_on_c, 1, 82, 90
3, 17624, Note_on_c, 1, 82, 0
3, 17625, Note_on_c, 1, 81, 90
3, 17639, Note_on_c, 1, 81, 0
3, 17640, Note_on_c, 1, 82, 90
3, 17654, Note_on_c, 1, 82, 0
3, 17655, Note_on_c, 1, 81, 90
3, 17669, Note_on_c, 1, 81, 0
3, 17670, Note_on_c, 1, 82, 90
3, 17684, Note_on_c, 1, 82, 0
3, 17685, Note_on_c, 1, 81, 90
3, 17699, Note_on_c, 1, 81, 0
3, 17700, Note_on_c, 1, 82, 90
3, 17714, Note_on_c, 1, 82, 0
3, 17715, Note_on_c, 1, 81, 90
3, 17729, Note_on_c, 1, 81, 0
3, 17730, Note_on_c, 1, 82, 90
3, 17744, Note_on_c, 1, 82, 0
3, 17745, Note_on_c, 1, 81, 90
3, 17759, Note_on_c, 1, 81, 0
3, 17760, Note_on_c, 1, 82, 90
3, 17774, Note_on_c, 1, 82, 0
3, 17775, Note_on_c, 1, 81, 90
3, 17789, Note_on_c, 1, 81, 0
3, 17790, Note_on_c, 1, 82, 90
3, 17804, Note_on_c, 1, 82, 0
3, 17805, Note_on_c, 1, 81, 90
3, 17819, Note_on_c, 1, 81, 0
3, 17820, Note_on_c, 1, 82, 90
3, 17834, Note_on_c, 1, 82, 0
3, 17835, Note_on_c, 1, 81, 90
3, 17849, Note_on_c, 1, 81, 0
3, 17850, Note_on_c, 1, 82, 90
3, 17864, Note_on_c, 1, 82, 0
3, 17865, Note_on_c, 1, 81, 90
3, 17879, Note_on_c, 1, 81, 0
3, 17880, Note_on_c, 1, 82, 90
3, 17894, Note_on_c, 1, 82, 0
3, 17895, Note_on_c, 1, 81, 90
3, 17909, Note_on_c, 1, 81, 0
3, 17910, Note_on_c, 1, 79, 90
3, 17924, Note_on_c, 1, 79, 0
3, 17925, Note_on_c, 1, 81, 90
3, 17939, Note_on_c, 1, 81, 0
3, 17940, Note_on_c, 1, 74, 90
3, 17969, Note_on_c, 1, 74, 0
3, 17970, Note_on_c, 1, 76, 90
3, 17999, Note_on_c, 1, 76, 0
3, 18000, Note_on_c, 1, 78, 90
3, 18029, Note_on_c, 1, 78, 0
3, 18030, Note_on_c, 1, 79, 90
3, 18059, Note_on_c, 1, 79, 0
3, 18060, Note_on_c, 1, 81, 90
3, 18089, Note_on_c, 1, 81, 0
3, 18090, Note_on_c, 1, 78, 90
3, 18119, Note_on_c, 1, 78, 0
3, 18120, Note_on_c, 1, 79, 90
3, 18134, Note_on_c, 1, 79, 0
3, 18135, Note_on_c, 1, 81, 90
3, 18149, Note_on_c, 1, 81, 0
3, 18150, Note_on_c, 1, 79, 90
3, 18239, Note_on_c, 1, 79, 0
3, 18300, Note_on_c, 1, 80, 90
3, 18329, Note_on_c, 1, 80, 0
3, 18330, Note_on_c, 1, 79, 90
3, 18359, Note_on_c, 1, 79, 0
3, 18360, Note_on_c, 1, 80, 90
3, 18419, Note_on_c, 1, 80, 0
3, 18420, Note_on_c, 1, 77, 90
3, 18449, Note_on_c, 1, 77, 0
3, 18450, Note_on_c, 1, 75, 90
3, 18479, Note_on_c, 1, 75, 0
3, 18480, Note_on_c, 1, 77, 90
3, 18539, Note_on_c, 1, 77, 0
3, 18540, Note_on_c, 1, 74, 90
3, 18569, Note_on_c, 1, 74, 0
3, 18570, Note_on_c, 1, 72, 90
3, 18599, Note_on_c, 1, 72, 0
3, 18600, Note_on_c, 1, 74, 90
3, 18659, Note_on_c, 1, 74, 0
3, 18660, Note_on_c, 1, 71, 90
3, 18689, Note_on_c, 1, 71, 0
3, 18690, Note_on_c, 1, 69, 90
3, 18719, Note_on_c, 1, 69, 0
3, 18720, Note_on_c, 1, 71, 90
3, 18779, Note_on_c, 1, 71, 0
3, 18780, Note_on_c, 1, 67, 90
3, 18809, Note_on_c, 1, 67, 0
3, 18810, Note_on_c, 1, 65, 90
3, 18839, Note_on_c, 1, 65, 0
3, 18840, Note_on_c, 1, 67, 90
3, 18899, Note_on_c, 1, 67, 0
3, 18900, Note_on_c, 1, 71, 90
3, 18959, Note_on_c, 1, 71, 0
3, 18960, Note_on_c, 1, 74, 90
3, 19019, Note_on_c, 1, 74, 0
3, 19020, Note_on_c, 1, 77, 90
3, 19079, Note_on_c, 1, 77, 0
3, 19080, Note_on_c, 1, 77, 90
3, 19109, Note_on_c, 1, 77, 0
3, 19110, Note_on_c, 1, 75, 90
3, 19139, Note_on_c, 1, 75, 0
3, 19140, Note_on_c, 1, 74, 90
3, 19169, Note_on_c, 1, 74, 0
3, 19170, Note_on_c, 1, 75, 90
3, 19199, Note_on_c, 1, 75, 0
3, 19200, Note_on_c, 1, 72, 90
3, 19379, Note_on_c, 1, 72, 0
3, 19380, Note_on_c, 1, 77, 90
3, 19409, Note_on_c, 1, 77, 0
3, 19410, Note_on_c, 1, 79, 90
3, 19439, Note_on_c, 1, 79, 0
3, 19440, Note_on_c, 1, 80, 90
3, 19589, Note_on_c, 1, 80, 0
3, 19590, Note_on_c, 1, 79, 90
3, 19619, Note_on_c, 1, 79, 0
3, 19620, Note_on_c, 1, 77, 90
3, 19649, Note_on_c, 1, 77, 0
3, 19650, Note_on_c, 1, 79, 90
3, 19679, Note_on_c, 1, 79, 0
3, 19680, Note_on_c, 1, 80, 90
3, 19739, Note_on_c, 1, 80, 0
3, 19740, Note_on_c, 1, 70, 90
3, 19859, Note_on_c, 1, 70, 0
3, 19860, Note_on_c, 1, 75, 90
3, 19889, Note_on_c, 1, 75, 0
3, 19890, Note_on_c, 1, 77, 90
3, 19919, Note_on_c, 1, 77, 0
3, 19920, Note_on_c, 1, 79, 90
3, 20069, Note_on_c, 1, 79, 0
3, 20070, Note_on_c, 1, 77, 90
3, 20099, Note_on_c, 1, 77, 0
3, 20100, Note_on_c, 1, 75, 90
3, 20129, Note_on_c, 1, 75, 0
3, 20130, Note_on_c, 1, 77, 90
3, 20159, Note_on_c, 1, 77, 0
3, 20160, Note_on_c, 1, 79, 90
3, 20219, Note_on_c, 1, 79, 0
3, 20220, Note_on_c, 1, 68, 90
3, 20339, Note_on_c, 1, 68, 0
3, 20340, Note_on_c, 1, 74, 90
3, 20369, Note_on_c, 1, 74, 0
3, 20370, Note_on_c, 1, 75, 90
3, 20399, Note_on_c, 1, 75, 0
3, 20400, Note_on_c, 1, 77, 90
3, 20549, Note_on_c, 1, 77, 0
3, 20550, Note_on_c, 1, 75, 90
3, 20579, Note_on_c, 1, 75, 0
3, 20580, Note_on_c, 1, 74, 90
3, 20609, Note_on_c, 1, 74, 0
3, 20610, Note_on_c, 1, 75, 90
3, 20639, Note_on_c, 1, 75, 0
3, 20640, Note_on_c, 1, 77, 90
3, 20669, Note_on_c, 1, 77, 0
3, 20670, Note_on_c, 1, 80, 90
3, 20699, Note_on_c, 1, 80, 0
3, 20700, Note_on_c, 1, 79, 90
3, 20729, Note_on_c, 1, 79, 0
3, 20730, Note_on_c, 1, 77, 90
3, 20759, Note_on_c, 1, 77, 0
3, 20760, Note_on_c, 1, 75, 90
3, 20789, Note_on_c, 1, 75, 0
3, 20790, Note_on_c, 1, 74, 90
3, 20819, Note_on_c, 1, 74, 0
3, 20820, Note_on_c, 1, 72, 90
3, 20849, Note_on_c, 1, 72, 0
3, 20850, Note_on_c, 1, 71, 90
3, 20879, Note_on_c, 1, 71, 0
3, 20880, Note_on_c, 1, 72, 90
3, 20939, Note_on_c, 1, 72, 0
3, 20940, Note_on_c, 1, 67, 90
3, 20969, Note_on_c, 1, 67, 0
3, 20970, Note_on_c, 1, 65, 90
3, 20999, Note_on_c, 1, 65, 0
3, 21000, Note_on_c, 1, 67, 90
3, 21059, Note_on_c, 1, 67, 0
3, 21060, Note_on_c, 1, 63, 90
3, 21089, Note_on_c, 1, 63, 0
3, 21090, Note_on_c, 1, 62, 90
3, 21119, Note_on_c, 1, 62, 0
3, 21120, Note_on_c, 1, 63, 90
3, 21179, Note_on_c, 1, 63, 0
3, 21180, Note_on_c, 1, 60, 90
3, 21209, Note_on_c, 1, 60, 0
3, 21210, Note_on_c, 1, 59, 90
3, 21239, Note_on_c, 1, 59, 0
3, 21240, Note_on_c, 1, 60, 90
3, 21299, Note_on_c, 1, 60, 0
3, 21300, Note_on_c, 1, 63, 90
3, 21359, Note_on_c, 1, 63, 0
3, 21360, Note_on_c, 1, 67, 90
3, 21419, Note_on_c, 1, 67, 0
3, 21420, Note_on_c, 1, 72, 90
3, 21479, Note_on_c, 1, 72, 0
3, 21480, Note_on_c, 1, 74, 90
3, 21509, Note_on_c, 1, 74, 0
3, 21510, Note_on_c, 1, 72, 90
3, 21539, Note_on_c, 1, 72, 0
3, 21540, Note_on_c, 1, 71, 90
3, 21569, Note_on_c, 1, 71, 0
3, 21570, Note_on_c, 1, 69, 90
3, 21599, Note_on_c, 1, 69, 0
3, 21600, Note_on_c, 1, 67, 90
3, 21659, Note_on_c, 1, 67, 0
3, 21660, Note_on_c, 1, 79, 90
3, 21719, Note_on_c, 1, 79, 0
3, 21720, Note_on_c, 1, 79, 90
3, 21739, Note_on_c, 1, 79, 0
3, 21740, Note_on_c, 1, 81, 90
3, 21759, Note_on_c, 1, 81, 0
3, 21760, Note_on_c, 1, 79, 90
3, 21779, Note_on_c, 1, 79, 0
3, 21780, Note_on_c, 1, 81, 90
3, 21794, Note_on_c, 1, 81, 0
3, 21795, Note_on_c, 1, 79, 90
3, 21809, Note_on_c, 1, 79, 0
3, 21810, Note_on_c, 1, 81, 90
3, 21824, Note_on_c, 1, 81, 0
3, 21825, Note_on_c, 1, 79, 90
3, 21839, Note_on_c, 1, 79, 0
3, 21840, Note_on_c, 1, 81, 90
3, 21854, Note_on_c, 1, 81, 0
3, 21855, Note_on_c, 1, 79, 90
3, 21869, Note_on_c, 1, 79, 0
3, 21870, Note_on_c, 1, 81, 90
3, 21884, Note_on_c, 1, 81, 0
3, 21885, Note_on_c, 1, 79, 90
3, 21899, Note_on_c, 1, 79, 0
3, 21900, Note_on_c, 1, 81, 90
3, 21914, Note_on_c, 1, 81, 0
3, 21915, Note_on_c, 1, 79, 90
3, 21929, Note_on_c, 1, 79, 0
3, 21930, Note_on_c, 1, 81, 90
3, 21944, Note_on_c, 1, 81, 0
3, 21945, Note_on_c, 1, 79, 90
3, 21959, Note_on_c, 1, 79, 0
3, 21960, Note_on_c, 1, 81, 90
3, 21974, Note_on_c, 1, 81, 0
3, 21975, Note_on_c, 1, 79, 90
3, 21989, Note_on_c, 1, 79, 0
3, 21990, Note_on_c, 1, 81, 90
3, 22004, Note_on_c, 1, 81, 0
3, 22005, Note_on_c, 1, 79, 90
3, 22019, Note_on_c, 1, 79, 0
3, 22020, Note_on_c, 1, 81, 90
3, 22034, Note_on_c, 1, 81, 0
3, 22035, Note_on_c, 1, 79, 90
3, 22049, Note_on_c, 1, 79, 0
3, 22050, Note_on_c, 1, 81, 90
3, 22064, Note_on_c, 1, 81, 0
3, 22065, Note_on_c, 1, 79, 90
3, 22079, Note_on_c, 1, 79, 0
3, 22080, Note_on_c, 1, 81, 90
3, 22094, Note_on_c, 1, 81, 0
3, 22095, Note_on_c, 1, 79, 90
3, 22109, Note_on_c, 1, 79, 0
3, 22110, Note_on_c, 1, 81, 90
3, 22124, Note_on_c, 1, 81, 0
3, 22125, Note_on_c, 1, 79, 90
3, 22139, Note_on_c, 1, 79, 0
3, 22140, Note_on_c, 1, 81, 90
3, 22154, Note_on_c, 1, 81, 0
3, 22155, Note_on_c, 1, 79, 90
3, 22169, Note_on_c, 1, 79, 0
3, 22170, Note_on_c, 1, 81, 90
3, 22184, Note_on_c, 1, 81, 0
3, 22185, Note_on_c, 1, 79, 90
3, 22199, Note_on_c, 1, 79, 0
3, 22200, Note_on_c, 1, 81, 90
3, 22214, Note_on_c, 1, 81, 0
3, 22215, Note_on_c, 1, 79, 90
3, 22229, Note_on_c, 1, 79, 0
3, 22230, Note_on_c, 1, 77, 90
3, 22259, Note_on_c, 1, 77, 0
3, 22260, Note_on_c, 1, 79, 90
3, 22289, Note_on_c, 1, 79, 0
3, 22290, Note_on_c, 1, 74, 90
3, 22319, Note_on_c, 1, 74, 0
3, 22320, Note_on_c, 1, 75, 90
3, 22349, Note_on_c, 1, 75, 0
3, 22350, Note_on_c, 1, 74, 90
3, 22379, Note_on_c, 1, 74, 0
3, 22380, Note_on_c, 1, 75, 90
3, 22409, Note_on_c, 1, 75, 0
3, 22410, Note_on_c, 1, 84, 90
3, 22439, Note_on_c, 1, 84, 0
3, 22440, Note_on_c, 1, 83, 90
3, 22469, Note_on_c, 1, 83, 0
3, 22470, Note_on_c, 1, 84, 90
3, 22499, Note_on_c, 1, 84, 0
3, 22500, Note_on_c, 1, 84, 90
3, 22509, Note_on_c, 1, 84, 0
3, 22510, Note_on_c, 1, 86, 90
3, 22519, Note_on_c, 1, 86, 0
3, 22520, Note_on_c, 1, 84, 90
3, 22529, Note_on_c, 1, 84, 0
3, 22530, Note_on_c, 1, 83, 90
3, 22544, Note_on_c, 1, 83, 0
3, 22545, Note_on_c, 1, 84, 90
3, 22559, Note_on_c, 1, 84, 0
3, 22560, Note_on_c, 1, 86, 90
3, 22589, Note_on_c, 1, 86, 0
3, 22590, Note_on_c, 1, 84, 90
3, 22619, Note_on_c, 1, 84, 0
3, 22620, Note_on_c, 1, 83, 90
3, 22649, Note_on_c, 1, 83, 0
3, 22650, Note_on_c, 1, 81, 90
3, 22679, Note_on_c, 1, 81, 0
3, 22680, Note_on_c, 1, 79, 90
3, 22709, Note_on_c, 1, 79, 0
3, 22710, Note_on_c, 1, 75, 90
3, 22724, Note_on_c, 1, 75, 0
3, 22725, Note_on_c, 1, 77, 90
3, 22739, Note_on_c, 1, 77, 0
3, 22740, Note_on_c, 1, 79, 90
3, 22769, Note_on_c, 1, 79, 0
3, 22770, Note_on_c, 1, 75, 90
3, 22784, Note_on_c, 1, 75, 0
3, 22785, Note_on_c, 1, 77, 90
3, 22799, Note_on_c, 1, 77, 0
3, 22800, Note_on_c, 1, 79, 90
3, 22829, Note_on_c, 1, 79, 0
3, 22830, Note_on_c, 1, 75, 90
3, 22859, Note_on_c, 1, 75, 0
3, 22860, Note_on_c, 1, 72, 90
3, 22889, Note_on_c, 1, 72, 0
3, 22890, Note_on_c, 1, 75, 90
3, 22919, Note_on_c, 1, 75, 0
3, 22920, Note_on_c, 1, 68, 90
3, 22949, Note_on_c, 1, 68, 0
3, 22950, Note_on_c, 1, 74, 90
3, 22964, Note_on_c, 1, 74, 0
3, 22965, Note_on_c, 1, 75, 90
3, 22979, Note_on_c, 1, 75, 0
3, 22980, Note_on_c, 1, 77, 90
3, 23009, Note_on_c, 1, 77, 0
3, 23010, Note_on_c, 1, 74, 90
3, 23024, Note_on_c, 1, 74, 0
3, 23025, Note_on_c, 1, 75, 90
3, 23039, Note_on_c, 1, 75, 0
3, 23040, Note_on_c, 1, 77, 90
3, 23069, Note_on_c, 1, 77, 0
3, 23070, Note_on_c, 1, 74, 90
3, 23099, Note_on_c, 1, 74, 0
3, 23100, Note_on_c, 1, 71, 90
3, 23129, Note_on_c, 1, 71, 0
3, 23130, Note_on_c, 1, 74, 90
3, 23159, Note_on_c, 1, 74, 0
3, 23160, Note_on_c, 1, 67, 90
3, 23189, Note_on_c, 1, 67, 0
3, 23190, Note_on_c, 1, 72, 90
3, 23204, Note_on_c, 1, 72, 0
3, 23205, Note_on_c, 1, 74, 90
3, 23219, Note_on_c, 1, 74, 0
3, 23220, Note_on_c, 1, 75, 90
3, 23249, Note_on_c, 1, 75, 0
3, 23250, Note_on_c, 1, 72, 90
3, 23264, Note_on_c, 1, 72, 0
3, 23265, Note_on_c, 1, 74, 90
3, 23279, Note_on_c, 1, 74, 0
3, 23280, Note_on_c, 1, 75, 90
3, 23309, Note_on_c, 1, 75, 0
3, 23310, Note_on_c, 1, 72, 90
3, 23339, Note_on_c, 1, 72, 0
3, 23340, Note_on_c, 1, 68, 90
3, 23369, Note_on_c, 1, 68, 0
3, 23370, Note_on_c, 1, 72, 90
3, 23399, Note_on_c, 1, 72, 0
3, 23400, Note_on_c, 1, 65, 90
3, 23429, Note_on_c, 1, 65, 0
3, 23430, Note_on_c, 1, 71, 90
3, 23444, Note_on_c, 1, 71, 0
3, 23445, Note_on_c, 1, 72, 90
3, 23459, Note_on_c, 1, 72, 0
3, 23460, Note_on_c, 1, 74, 90
3, 23489, Note_on_c, 1, 74, 0
3, 23490, Note_on_c, 1, 71, 90
3, 23504, Note_on_c, 1, 71, 0
3, 23505, Note_on_c, 1, 72, 90
3, 23519, Note_on_c, 1, 72, 0
3, 23520, Note_on_c, 1, 74, 90
3, 23549, Note_on_c, 1, 74, 0
3, 23550, Note_on_c, 1, 71, 90
3, 23579, Note_on_c, 1, 71, 0
3, 23580, Note_on_c, 1, 67, 90
3, 23609, Note_on_c, 1, 67, 0
3, 23610, Note_on_c, 1, 65, 90
3, 23639, Note_on_c, 1, 65, 0
3, 23640, Note_on_c, 1, 63, 90
3, 23699, Note_on_c, 1, 63, 0
3, 23700, Note_on_c, 1, 67, 90
3, 23759, Note_on_c, 1, 67, 0
3, 23760, Note_on_c, 1, 72, 90
3, 23909, Note_on_c, 1, 72, 0
3, 23910, Note_on_c, 1, 74, 90
3, 23924, Note_on_c, 1, 74, 0
3, 23925, Note_on_c, 1, 72, 90
3, 23939, Note_on_c, 1, 72, 0
3, 23940, Note_on_c, 1, 71, 90
3, 23969, Note_on_c, 1, 71, 0
3, 23970, Note_on_c, 1, 72, 90
3, 23999, Note_on_c, 1, 72, 0
3, 24000, Note_on_c, 1, 72, 90
3, 24029, Note_on_c, 1, 72, 0
3, 24030, Note_on_c, 1, 74, 90
3, 24149, Note_on_c, 1, 74, 0
3, 24150, Note_on_c, 1, 75, 90
3, 24164, Note_on_c, 1, 75, 0
3, 24165, Note_on_c, 1, 74, 90
3, 24179, Note_on_c, 1, 74, 0
3, 24180, Note_on_c, 1, 72, 90
3, 24209, Note_on_c, 1, 72, 0
3, 24210, Note_on_c, 1, 74, 90
3, 24239, Note_on_c, 1, 74, 0
3, 24240, Note_on_c, 1, 74, 90
3, 24269, Note_on_c, 1, 74, 0
3, 24270, Note_on_c, 1, 75, 90
3, 24389, Note_on_c, 1, 75, 0
3, 24390, Note_on_c, 1, 77, 90
3, 24404, Note_on_c, 1, 77, 0
3, 24405, Note_on_c, 1, 75, 90
3, 24419, Note_on_c, 1, 75, 0
3, 24420, Note_on_c, 1, 74, 90
3, 24449, Note_on_c, 1, 74, 0
3, 24450, Note_on_c, 1, 75, 90
3, 24479, Note_on_c, 1, 75, 0
3, 24480, Note_on_c, 1, 75, 90
3, 24509, Note_on_c, 1, 75, 0
3, 24510, Note_on_c, 1, 77, 90
3, 24629, Note_on_c, 1, 77, 0
3, 24630, Note_on_c, 1, 74, 90
3, 24644, Note_on_c, 1, 74, 0
3, 24645, Note_on_c, 1, 75, 90
3, 24659, Note_on_c, 1, 75, 0
3, 24660, Note_on_c, 1, 77, 90
3, 24689, Note_on_c, 1, 77, 0
3, 24690, Note_on_c, 1, 74, 90
3, 24704, Note_on_c, 1, 74, 0
3, 24705, Note_on_c, 1, 75, 90
3, 24719, Note_on_c, 1, 75, 0
3, 24720, Note_on_c, 1, 77, 90
3, 24749, Note_on_c, 1, 77, 0
3, 24750, Note_on_c, 1, 74, 90
3, 24779, Note_on_c, 1, 74, 0
3, 24780, Note_on_c, 1, 79, 90
3, 24929, Note_on_c, 1, 79, 0
3, 24930, Note_on_c, 1, 80, 90
3, 24959, Note_on_c, 1, 80, 0
3, 24960, Note_on_c, 1, 74, 90
3, 24974, Note_on_c, 1, 74, 0
3, 24975, Note_on_c, 1, 72, 90
3, 24989, Note_on_c, 1, 72, 0
3, 24990, Note_on_c, 1, 74, 90
3, 25049, Note_on_c, 1, 74, 0
3, 25050, Note_on_c, 1, 72, 90
3, 25079, Note_on_c, 1, 72, 0
3, 25080, Note_on_c, 1, 72, 90
3, 25109, Note_on_c, 1, 72, 0
3, 25110, Note_on_c, 1, 75, 90
3, 25139, Note_on_c, 1, 75, 0
3, 25140, Note_on_c, 1, 79, 90
3, 25169, Note_on_c, 1, 79, 0
3, 25170, Note_on_c, 1, 71, 90
3, 25199, Note_on_c, 1, 71, 0
3, 25200, Note_on_c, 1, 72, 90
3, 25229, Note_on_c, 1, 72, 0
3, 25230, Note_on_c, 1, 75, 90
3, 25259, Note_on_c, 1, 75, 0
3, 25260, Note_on_c, 1, 79, 90
3, 25289, Note_on_c, 1, 79, 0
3, 25290, Note_on_c, 1, 71, 90
3, 25319, Note_on_c, 1, 71, 0
3, 25320, Note_on_c, 1, 72, 90
3, 25349, Note_on_c, 1, 72, 0
3, 25350, Note_on_c, 1, 75, 90
3, 25379, Note_on_c, 1, 75, 0
3, 25380, Note_on_c, 1, 79, 90
3, 25409, Note_on_c, 1, 79, 0
3, 25410, Note_on_c, 1, 72, 90
3, 25439, Note_on_c, 1, 72, 0
3, 25440, Note_on_c, 1, 84, 90
3, 25589, Note_on_c, 1, 84, 0
3, 25590, Note_on_c, 1, 82, 90
3, 25619, Note_on_c, 1, 82, 0
3, 25620, Note_on_c, 1, 80, 90
3, 25649, Note_on_c, 1, 80, 0
3, 25650, Note_on_c, 1, 79, 90
3, 25679, Note_on_c, 1, 79, 0
3, 25680, Note_on_c, 1, 77, 90
3, 25709, Note_on_c, 1, 77, 0
3, 25710, Note_on_c, 1, 79, 90
3, 25739, Note_on_c, 1, 79, 0
3, 25740, Note_on_c, 1, 80, 90
3, 25829, Note_on_c, 1, 80, 0
3, 25830, Note_on_c, 1, 74, 90
3, 25859, Note_on_c, 1, 74, 0
3, 25860, Note_on_c, 1, 77, 90
3, 25889, Note_on_c, 1, 77, 0
3, 25890, Note_on_c, 1, 70, 90
3, 25919, Note_on_c, 1, 70, 0
3, 25920, Note_on_c, 1, 82, 90
3, 26069, Note_on_c, 1, 82, 0
3, 26070, Note_on_c, 1, 80, 90
3, 26099, Note_on_c, 1, 80, 0
3, 26100, Note_on_c, 1, 79, 90
3, 26129, Note_on_c, 1, 79, 0
3, 26130, Note_on_c, 1, 77, 90
3, 26159, Note_on_c, 1, 77, 0
3, 26160, Note_on_c, 1, 75, 90
3, 26189, Note_on_c, 1, 75, 0
3, 26190, Note_on_c, 1, 77, 90
3, 26219, Note_on_c, 1, 77, 0
3, 26220, Note_on_c, 1, 79, 90
3, 26309, Note_on_c, 1, 79, 0
3, 26310, Note_on_c, 1, 72, 90
3, 26339, Note_on_c, 1, 72, 0
3, 26340, Note_on_c, 1, 75, 90
3, 26369, Note_on_c, 1, 75, 0
3, 26370, Note_on_c, 1, 68, 90
3, 26399, Note_on_c, 1, 68, 0
3, 26400, Note_on_c, 1, 80, 90
3, 26429, Note_on_c, 1, 80, 0
3, 26430, Note_on_c, 1, 74, 90
3, 26459, Note_on_c, 1, 74, 0
3, 26460, Note_on_c, 1, 75, 90
3, 26489, Note_on_c, 1, 75, 0
3, 26490, Note_on_c, 1, 72, 90
3, 26519, Note_on_c, 1, 72, 0
3, 26520, Note_on_c, 1, 74, 90
3, 26549, Note_on_c, 1, 74, 0
3, 26550, Note_on_c, 1, 75, 90
3, 26579, Note_on_c, 1, 75, 0
3, 26580, Note_on_c, 1, 77, 90
3, 26609, Note_on_c, 1, 77, 0
3, 26610, Note_on_c, 1, 79, 90
3, 26639, Note_on_c, 1, 79, 0
3, 26640, Note_on_c, 1, 80, 90
3, 26669, Note_on_c, 1, 80, 0
3, 26670, Note_on_c, 1, 77, 90
3, 26699, Note_on_c, 1, 77, 0
3, 26700, Note_on_c, 1, 74, 90
3, 26729, Note_on_c, 1, 74, 0
3, 26730, Note_on_c, 1, 77, 90
3, 26759, Note_on_c, 1, 77, 0
3, 26760, Note_on_c, 1, 70, 90
3, 26789, Note_on_c, 1, 70, 0
3, 26790, Note_on_c, 1, 72, 90
3, 26819, Note_on_c, 1, 72, 0
3, 26820, Note_on_c, 1, 74, 90
3, 26849, Note_on_c, 1, 74, 0
3, 26850, Note_on_c, 1, 75, 90
3, 26879, Note_on_c, 1, 75, 0
3, 26880, Note_on_c, 1, 77, 90
3, 26909, Note_on_c, 1, 77, 0
3, 26910, Note_on_c, 1, 74, 90
3, 26939, Note_on_c, 1, 74, 0
3, 26940, Note_on_c, 1, 70, 90
3, 26969, Note_on_c, 1, 70, 0
3, 26970, Note_on_c, 1, 74, 90
3, 26999, Note_on_c, 1, 74, 0
3, 27000, Note_on_c, 1, 75, 90
3, 27059, Note_on_c, 1, 75, 0
3, 27060, Note_on_c, 1, 82, 90
3, 27089, Note_on_c, 1, 82, 0
3, 27090, Note_on_c, 1, 74, 90
3, 27119, Note_on_c, 1, 74, 0
3, 27120, Note_on_c, 1, 74, 90
3, 27149, Note_on_c, 1, 74, 0
3, 27150, Note_on_c, 1, 75, 90
3, 27299, Note_on_c, 1, 75, 0
3, 27300, Note_on_c, 1, 84, 90
3, 27329, Note_on_c, 1, 84, 0
3, 27330, Note_on_c, 1, 74, 90
3, 27359, Note_on_c, 1, 74, 0
3, 27360, Note_on_c, 1, 74, 90
3, 27389, Note_on_c, 1, 74, 0
3, 27390, Note_on_c, 1, 75, 90
3, 27539, Note_on_c, 1, 75, 0
3, 27540, Note_on_c, 1, 82, 90
3, 27569, Note_on_c, 1, 82, 0
3, 27570, Note_on_c, 1, 74, 90
3, 27599, Note_on_c, 1, 74, 0
3, 27600, Note_on_c, 1, 74, 90
3, 27629, Note_on_c, 1, 74, 0
3, 27630, Note_on_c, 1, 75, 90
3, 27659, Note_on_c, 1, 75, 0
3, 27660, Note_on_c, 1, 84, 90
3, 27689, Note_on_c, 1, 84, 0
3, 27690, Note_on_c, 1, 74, 90
3, 27719, Note_on_c, 1, 74, 0
3, 27720, Note_on_c, 1, 75, 90
3, 27749, Note_on_c, 1, 75, 0
3, 27750, Note_on_c, 1, 80, 90
3, 27779, Note_on_c, 1, 80, 0
3, 27780, Note_on_c, 1, 79, 90
3, 27809, Note_on_c, 1, 79, 0
3, 27810, Note_on_c, 1, 77, 90
3, 27839, Note_on_c, 1, 77, 0
3, 27840, Note_on_c, 1, 77, 90
3, 27859, Note_on_c, 1, 77, 0
3, 27860, Note_on_c, 1, 79, 90
3, 27879, Note_on_c, 1, 79, 0
3, 27880, Note_on_c, 1, 77, 90
3, 27899, Note_on_c, 1, 77, 0
3, 27900, Note_on_c, 1, 79, 90
3, 27914, Note_on_c, 1, 79, 0
3, 27915, Note_on_c, 1, 77, 90
3, 27929, Note_on_c, 1, 77, 0
3, 27930, Note_on_c, 1, 75, 90
3, 27959, Note_on_c, 1, 75, 0
3, 27960, Note_on_c, 1, 75, 90
3, 28019, Note_on_c, 1, 75, 0
3, 28020, Note_on_c, 1, 77, 90
3, 28034, Note_on_c, 1, 77, 0
3, 28035, Note_on_c, 1, 79, 90
3, 28049, Note_on_c, 1, 79, 0
3, 28050, Note_on_c, 1, 80, 90
3, 28079, Note_on_c, 1, 80, 0
3, 28080, Note_on_c, 1, 79, 90
3, 28139, Note_on_c, 1, 79, 0
3, 28140, Note_on_c, 1, 77, 90
3, 28154, Note_on_c, 1, 77, 0
3, 28155, Note_on_c, 1, 79, 90
3, 28169, Note_on_c, 1, 79, 0
3, 28170, Note_on_c, 1, 80, 90
3, 28199, Note_on_c, 1, 80, 0
3, 28200, Note_on_c, 1, 79, 90
3, 28259, Note_on_c, 1, 79, 0
3, 28260, Note_on_c, 1, 70, 90
3, 28289, Note_on_c, 1, 70, 0
3, 28290, Note_on_c, 1, 79, 90
3, 28319, Note_on_c, 1, 79, 0
3, 28320, Note_on_c, 1, 72, 90
3, 28349, Note_on_c, 1, 72, 0
3, 28350, Note_on_c, 1, 80, 90
3, 28379, Note_on_c, 1, 80, 0
3, 28380, Note_on_c, 1, 73, 90
3, 28409, Note_on_c, 1, 73, 0
3, 28410, Note_on_c, 1, 82, 90
3, 28439, Note_on_c, 1, 82, 0
3, 28440, Note_on_c, 1, 82, 90
3, 28469, Note_on_c, 1, 82, 0
3, 28470, Note_on_c, 1, 84, 90
3, 28499, Note_on_c, 1, 84, 0
3, 28500, Note_on_c, 1, 75, 90
3, 28514, Note_on_c, 1, 75, 0
3, 28515, Note_on_c, 1, 77, 90
3, 28529, Note_on_c, 1, 77, 0
3, 28530, Note_on_c, 1, 79, 90
3, 28559, Note_on_c, 1, 79, 0
3, 28560, Note_on_c, 1, 77, 90
3, 28619, Note_on_c, 1, 77, 0
3, 28620, Note_on_c, 1, 75, 90
3, 28634, Note_on_c, 1, 75, 0
3, 28635, Note_on_c, 1, 77, 90
3, 28649, Note_on_c, 1, 77, 0
3, 28650, Note_on_c, 1, 79, 90
3, 28679, Note_on_c, 1, 79, 0
3, 28680, Note_on_c, 1, 77, 90
3, 28739, Note_on_c, 1, 77, 0
3, 28740, Note_on_c, 1, 68, 90
3, 28769, Note_on_c, 1, 68, 0
3, 28770, Note_on_c, 1, 77, 90
3, 28799, Note_on_c, 1, 77, 0
3, 28800, Note_on_c, 1, 70, 90
3, 28829, Note_on_c, 1, 70, 0
3, 28830, Note_on_c, 1, 79, 90
3, 28859, Note_on_c, 1, 79, 0
3, 28860, Note_on_c, 1, 72, 90
3, 28889, Note_on_c, 1, 72, 0
3, 28890, Note_on_c, 1, 80, 90
3, 28919, Note_on_c, 1, 80, 0
3, 28920, Note_on_c, 1, 80, 90
3, 28949, Note_on_c, 1, 80, 0
3, 28950, Note_on_c, 1, 82, 90
3, 28979, Note_on_c, 1, 82, 0
3, 28980, Note_on_c, 1, 74, 90
3, 28994, Note_on_c, 1, 74, 0
3, 28995, Note_on_c, 1, 75, 90
3, 29009, Note_on_c, 1, 75, 0
3, 29010, Note_on_c, 1, 77, 90
3, 29039, Note_on_c, 1, 77, 0
3, 29040, Note_on_c, 1, 75, 90
3, 29099, Note_on_c, 1, 75, 0
3, 29100, Note_on_c, 1, 74, 90
3, 29114, Note_on_c, 1, 74, 0
3, 29115, Note_on_c, 1, 75, 90
3, 29129, Note_on_c, 1, 75, 0
3, 29130, Note_on_c, 1, 77, 90
3, 29159, Note_on_c, 1, 77, 0
3, 29160, Note_on_c, 1, 75, 90
3, 29219, Note_on_c, 1, 75, 0
3, 29220, Note_on_c, 1, 67, 90
3, 29249, Note_on_c, 1, 67, 0
3, 29250, Note_on_c, 1, 75, 90
3, 29279, Note_on_c, 1, 75, 0
3, 29280, Note_on_c, 1, 68, 90
3, 29309, Note_on_c, 1, 68, 0
3, 29310, Note_on_c, 1, 77, 90
3, 29339, Note_on_c, 1, 77, 0
3, 29340, Note_on_c, 1, 70, 90
3, 29369, Note_on_c, 1, 70, 0
3, 29370, Note_on_c, 1, 79, 90
3, 29399, Note_on_c, 1, 79, 0
3, 29400, Note_on_c, 1, 80, 90
3, 29429, Note_on_c, 1, 80, 0
3, 29430, Note_on_c, 1, 79, 90
3, 29459, Note_on_c, 1, 79, 0
3, 29460, Note_on_c, 1, 77, 90
3, 29489, Note_on_c, 1, 77, 0
3, 29490, Note_on_c, 1, 79, 90
3, 29519, Note_on_c, 1, 79, 0
3, 29520, Note_on_c, 1, 80, 90
3, 29669, Note_on_c, 1, 80, 0
3, 29670, Note_on_c, 1, 79, 90
3, 29699, Note_on_c, 1, 79, 0
3, 29700, Note_on_c, 1, 77, 90
3, 29729, Note_on_c, 1, 77, 0
3, 29730, Note_on_c, 1, 79, 90
3, 29759, Note_on_c, 1, 79, 0
3, 29760, Note_on_c, 1, 80, 90
3, 29789, Note_on_c, 1, 80, 0
3, 29790, Note_on_c, 1, 79, 90
3, 29819, Note_on_c, 1, 79, 0
3, 29820, Note_on_c, 1, 80, 90
3, 29849, Note_on_c, 1, 80, 0
3, 29850, Note_on_c, 1, 77, 90
3, 29879, Note_on_c, 1, 77, 0
3, 29880, Note_on_c, 1, 79, 90
3, 29909, Note_on_c, 1, 79, 0
3, 29910, Note_on_c, 1, 77, 90
3, 29939, Note_on_c, 1, 77, 0
3, 29940, Note_on_c, 1, 75, 90
3, 29969, Note_on_c, 1, 75, 0
3, 29970, Note_on_c, 1, 74, 90
3, 29999, Note_on_c, 1, 74, 0
3, 30000, Note_on_c, 1, 75, 90
3, 30029, Note_on_c, 1, 75, 0
3, 30030, Note_on_c, 1, 79, 90
3, 30059, Note_on_c, 1, 79, 0
3, 30060, Note_on_c, 1, 82, 90
3, 30089, Note_on_c, 1, 82, 0
3, 30090, Note_on_c, 1, 75, 90
3, 30119, Note_on_c, 1, 75, 0
3, 30120, Note_on_c, 1, 74, 90
3, 30149, Note_on_c, 1, 74, 0
3, 30150, Note_on_c, 1, 72, 90
3, 30179, Note_on_c, 1, 72, 0
3, 30180, Note_on_c, 1, 70, 90
3, 30209, Note_on_c, 1, 70, 0
3, 30210, Note_on_c, 1, 72, 90
3, 30239, Note_on_c, 1, 72, 0
3, 30240, Note_on_c, 1, 74, 90
3, 30269, Note_on_c, 1, 74, 0
3, 30270, Note_on_c, 1, 75, 90
3, 30299, Note_on_c, 1, 75, 0
3, 30300, Note_on_c, 1, 77, 90
3, 30329, Note_on_c, 1, 77, 0
3, 30330, Note_on_c, 1, 74, 90
3, 30359, Note_on_c, 1, 74, 0
3, 30360, Note_on_c, 1, 75, 90
3, 30419, Note_on_c, 1, 75, 0
3, 30420, Note_on_c, 1, 70, 90
3, 30420, Note_on_c, 1, 67, 90
3, 30449, Note_on_c, 1, 67, 0
3, 30450, Note_on_c, 1, 65, 90
3, 30479, Note_on_c, 1, 65, 0
3, 30480, Note_on_c, 1, 70, 0
3, 30480, Note_on_c, 1, 67, 90
3, 30480, Note_on_c, 1, 70, 90
3, 30539, Note_on_c, 1, 70, 0
3, 30540, Note_on_c, 1, 67, 0
3, 30540, Note_on_c, 1, 63, 90
3, 30540, Note_on_c, 1, 67, 90
3, 30569, Note_on_c, 1, 67, 0
3, 30570, Note_on_c, 1, 65, 90
3, 30599, Note_on_c, 1, 65, 0
3, 30600, Note_on_c, 1, 63, 0
3, 30600, Note_on_c, 1, 63, 90
3, 30600, Note_on_c, 1, 67, 90
3, 30659, Note_on_c, 1, 67, 0
3, 30659, Note_on_c, 1, 63, 0
3, 30660, Note_on_c, 1, 58, 90
3, 30660, Note_on_c, 1, 63, 90
3, 30689, Note_on_c, 1, 63, 0
3, 30689, Note_on_c, 1, 58, 0
3, 30690, Note_on_c, 1, 56, 90
3, 30690, Note_on_c, 1, 62, 90
3, 30719, Note_on_c, 1, 62, 0
3, 30719, Note_on_c, 1, 56, 0
3, 30720, Note_on_c, 1, 58, 90
3, 30720, Note_on_c, 1, 63, 90
3, 30779, Note_on_c, 1, 63, 0
3, 30779, Note_on_c, 1, 58, 0
3, 30780, Note_on_c, 1, 58, 90
3, 30780, Note_on_c, 1, 67, 90
3, 30809, Note_on_c, 1, 67, 0
3, 30810, Note_on_c, 1, 65, 90
3, 30839, Note_on_c, 1, 65, 0
3, 30840, Note_on_c, 1, 58, 0
3, 30840, Note_on_c, 1, 58, 90
3, 30840, Note_on_c, 1, 67, 90
3, 30869, Note_on_c, 1, 67, 0
3, 30870, Note_on_c, 1, 70, 90
3, 30899, Note_on_c, 1, 70, 0
3, 30900, Note_on_c, 1, 58, 0
3, 30900, Note_on_c, 1, 75, 90
3, 30929, Note_on_c, 1, 75, 0
3, 30930, Note_on_c, 1, 74, 90
3, 30959, Note_on_c, 1, 74, 0
3, 30960, Note_on_c, 1, 74, 90
3, 30989, Note_on_c, 1, 74, 0
3, 30990, Note_on_c, 1, 75, 90
3, 31049, Note_on_c, 1, 75, 0
3, 31050, Note_on_c, 1, 79, 90
3, 31079, Note_on_c, 1, 79, 0
3, 31080, Note_on_c, 1, 77, 90
3, 31109, Note_on_c, 1, 77, 0
3, 31110, Note_on_c, 1, 75, 90
3, 31139, Note_on_c, 1, 75, 0
3, 31140, Note_on_c, 1, 74, 90
3, 31169, Note_on_c, 1, 74, 0
3, 31170, Note_on_c, 1, 72, 90
3, 31199, Note_on_c, 1, 72, 0
3, 31200, Note_on_c, 1, 70, 90
3, 31259, Note_on_c, 1, 70, 0
3, 31260, Note_on_c, 1, 85, 90
3, 31289, Note_on_c, 1, 85, 0
3, 31290, Note_on_c, 1, 84, 90
3, 31319, Note_on_c, 1, 84, 0
3, 31320, Note_on_c, 1, 85, 90
3, 31379, Note_on_c, 1, 85, 0
3, 31380, Note_on_c, 1, 82, 90
3, 31409, Note_on_c, 1, 82, 0
3, 31410, Note_on_c, 1, 80, 90
3, 31439, Note_on_c, 1, 80, 0
3, 31440, Note_on_c, 1, 82, 90
3, 31499, Note_on_c, 1, 82, 0
3, 31500, Note_on_c, 1, 79, 90
3, 31529, Note_on_c, 1, 79, 0
3, 31530, Note_on_c, 1, 77, 90
3, 31559, Note_on_c, 1, 77, 0
3, 31560, Note_on_c, 1, 79, 90
3, 31619, Note_on_c, 1, 79, 0
3, 31620, Note_on_c, 1, 76, 90
3, 31649, Note_on_c, 1, 76, 0
3, 31650, Note_on_c, 1, 74, 90
3, 31679, Note_on_c, 1, 74, 0
3, 31680, Note_on_c, 1, 76, 90
3, 31739, Note_on_c, 1, 76, 0
3, 31740, Note_on_c, 1, 72, 90
3, 31769, Note_on_c, 1, 72, 0
3, 31770, Note_on_c, 1, 70, 90
3, 31799, Note_on_c, 1, 70, 0
3, 31800, Note_on_c, 1, 72, 90
3, 31859, Note_on_c, 1, 72, 0
3, 31860, Note_on_c, 1, 76, 90
3, 31919, Note_on_c, 1, 76, 0
3, 31920, Note_on_c, 1, 79, 90
3, 31979, Note_on_c, 1, 79, 0
3, 31980, Note_on_c, 1, 82, 90
3, 32039, Note_on_c, 1, 82, 0
3, 32040, Note_on_c, 1, 82, 90
3, 32069, Note_on_c, 1, 82, 0
3, 32070, Note_on_c, 1, 80, 90
3, 32099, Note_on_c, 1, 80, 0
3, 32100, Note_on_c, 1, 79, 90
3, 32129, Note_on_c, 1, 79, 0
3, 32130, Note_on_c, 1, 80, 90
3, 32159, Note_on_c, 1, 80, 0
3, 32160, Note_on_c, 1, 77, 90
3, 32189, Note_on_c, 1, 77, 0
3, 32190, Note_on_c, 1, 84, 90
3, 32219, Note_on_c, 1, 84, 0
3, 32220, Note_on_c, 1, 83, 90
3, 32249, Note_on_c, 1, 83, 0
3, 32250, Note_on_c, 1, 84, 90
3, 32279, Note_on_c, 1, 84, 0
3, 32280, Note_on_c, 1, 86, 90
3, 32820, Note_on_c, 1, 86, 0
3, 32820, Note_on_c, 1, 79, 90
3, 32849, Note_on_c, 1, 79, 0
3, 32850, Note_on_c, 1, 81, 90
3, 32879, Note_on_c, 1, 81, 0
3, 32880, Note_on_c, 1, 83, 90
3, 32909, Note_on_c, 1, 83, 0
3, 32910, Note_on_c, 1, 84, 90
3, 32939, Note_on_c, 1, 84, 0
3, 32940, Note_on_c, 1, 86, 90
3, 32969, Note_on_c, 1, 86, 0
3, 32970, Note_on_c, 1, 83, 90
3, 32999, Note_on_c, 1, 83, 0
3, 33000, Note_on_c, 1, 84, 90
3, 33119, Note_on_c, 1, 84, 0
3, 33150, Note_on_c, 1, 72, 90
3, 33179, Note_on_c, 1, 72, 0
3, 33180, Note_on_c, 1, 71, 90
3, 33209, Note_on_c, 1, 71, 0
3, 33210, Note_on_c, 1, 74, 90
3, 33239, Note_on_c, 1, 74, 0
3, 33240, Note_on_c, 1, 72, 90
3, 33269, Note_on_c, 1, 72, 0
3, 33270, Note_on_c, 1, 75, 90
3, 33299, Note_on_c, 1, 75, 0
3, 33300, Note_on_c, 1, 79, 90
3, 33329, Note_on_c, 1, 79, 0
3, 33330, Note_on_c, 1, 74, 90
3, 33359, Note_on_c, 1, 74, 0
3, 33360, Note_on_c, 1, 75, 90
3, 33389, Note_on_c, 1, 75, 0
3, 33390, Note_on_c, 1, 81, 90
3, 33419, Note_on_c, 1, 81, 0
3, 33420, Note_on_c, 1, 84, 90
3, 33449, Note_on_c, 1, 84, 0
3, 33450, Note_on_c, 1, 74, 90
3, 33479, Note_on_c, 1, 74, 0
3, 33480, Note_on_c, 1, 75, 90
3, 33509, Note_on_c, 1, 75, 0
3, 33510, Note_on_c, 1, 81, 90
3, 33539, Note_on_c, 1, 81, 0
3, 33540, Note_on_c, 1, 84, 90
3, 33569, Note_on_c, 1, 84, 0
3, 33570, Note_on_c, 1, 74, 90
3, 33599, Note_on_c, 1, 74, 0
3, 33600, Note_on_c, 1, 75, 90
3, 33629, Note_on_c, 1, 75, 0
3, 33630, Note_on_c, 1, 81, 90
3, 33659, Note_on_c, 1, 81, 0
3, 33660, Note_on_c, 1, 79, 90
3, 33689, Note_on_c, 1, 79, 0
3, 33690, Note_on_c, 1, 81, 90
3, 33719, Note_on_c, 1, 81, 0
3, 33720, Note_on_c, 1, 70, 90
3, 33749, Note_on_c, 1, 70, 0
3, 33750, Note_on_c, 1, 74, 90
3, 33779, Note_on_c, 1, 74, 0
3, 33780, Note_on_c, 1, 77, 90
3, 33809, Note_on_c, 1, 77, 0
3, 33810, Note_on_c, 1, 72, 90
3, 33839, Note_on_c, 1, 72, 0
3, 33840, Note_on_c, 1, 74, 90
3, 33869, Note_on_c, 1, 74, 0
3, 33870, Note_on_c, 1, 79, 90
3, 33899, Note_on_c, 1, 79, 0
3, 33900, Note_on_c, 1, 82, 90
3, 33929, Note_on_c, 1, 82, 0
3, 33930, Note_on_c, 1, 72, 90
3, 33959, Note_on_c, 1, 72, 0
3, 33960, Note_on_c, 1, 74, 90
3, 33989, Note_on_c, 1, 74, 0
3, 33990, Note_on_c, 1, 79, 90
3, 34019, Note_on_c, 1, 79, 0
3, 34020, Note_on_c, 1, 82, 90
3, 34049, Note_on_c, 1, 82, 0
3, 34050, Note_on_c, 1, 72, 90
3, 34079, Note_on_c, 1, 72, 0
3, 34080, Note_on_c, 1, 74, 90
3, 34109, Note_on_c, 1, 74, 0
3, 34110, Note_on_c, 1, 79, 90
3, 34139, Note_on_c, 1, 79, 0
3, 34140, Note_on_c, 1, 78, 90
3, 34169, Note_on_c, 1, 78, 0
3, 34170, Note_on_c, 1, 79, 90
3, 34199, Note_on_c, 1, 79, 0
3, 34200, Note_on_c, 1, 69, 90
3, 34229, Note_on_c, 1, 69, 0
3, 34230, Note_on_c, 1, 72, 90
3, 34259, Note_on_c, 1, 72, 0
3, 34260, Note_on_c, 1, 75, 90
3, 34289, Note_on_c, 1, 75, 0
3, 34290, Note_on_c, 1, 70, 90
3, 34319, Note_on_c, 1, 70, 0
3, 34320, Note_on_c, 1, 72, 90
3, 34349, Note_on_c, 1, 72, 0
3, 34350, Note_on_c, 1, 78, 90
3, 34379, Note_on_c, 1, 78, 0
3, 34380, Note_on_c, 1, 81, 90
3, 34409, Note_on_c, 1, 81, 0
3, 34410, Note_on_c, 1, 70, 90
3, 34439, Note_on_c, 1, 70, 0
3, 34440, Note_on_c, 1, 72, 90
3, 34469, Note_on_c, 1, 72, 0
3, 34470, Note_on_c, 1, 78, 90
3, 34499, Note_on_c, 1, 78, 0
3, 34500, Note_on_c, 1, 81, 90
3, 34529, Note_on_c, 1, 81, 0
3, 34530, Note_on_c, 1, 70, 90
3, 34559, Note_on_c, 1, 70, 0
3, 34560, Note_on_c, 1, 72, 90
3, 34589, Note_on_c, 1, 72, 0
3, 34590, Note_on_c, 1, 78, 90
3, 34619, Note_on_c, 1, 78, 0
3, 34620, Note_on_c, 1, 76, 90
3, 34649, Note_on_c, 1, 76, 0
3, 34650, Note_on_c, 1, 78, 90
3, 34679, Note_on_c, 1, 78, 0
3, 34680, Note_on_c, 1, 67, 90
3, 34709, Note_on_c, 1, 67, 0
3, 34710, Note_on_c, 1, 70, 90
3, 34739, Note_on_c, 1, 70, 0
3, 34740, Note_on_c, 1, 74, 90
3, 34769, Note_on_c, 1, 74, 0
3, 34770, Note_on_c, 1, 78, 90
3, 34799, Note_on_c, 1, 78, 0
3, 34800, Note_on_c, 1, 79, 90
3, 34859, Note_on_c, 1, 79, 0
3, 34860, Note_on_c, 1, 74, 90
3, 34889, Note_on_c, 1, 74, 0
3, 34890, Note_on_c, 1, 72, 90
3, 34919, Note_on_c, 1, 72, 0
3, 34920, Note_on_c, 1, 74, 90
3, 34979, Note_on_c, 1, 74, 0
3, 34980, Note_on_c, 1, 70, 90
3, 35009, Note_on_c, 1, 70, 0
3, 35010, Note_on_c, 1, 69, 90
3, 35039, Note_on_c, 1, 69, 0
3, 35040, Note_on_c, 1, 70, 90
3, 35099, Note_on_c, 1, 70, 0
3, 35100, Note_on_c, 1, 67, 90
3, 35129, Note_on_c, 1, 67, 0
3, 35130, Note_on_c, 1, 66, 90
3, 35159, Note_on_c, 1, 66, 0
3, 35160, Note_on_c, 1, 67, 90
3, 35219, Note_on_c, 1, 67, 0
3, 35220, Note_on_c, 1, 70, 90
3, 35279, Note_on_c, 1, 70, 0
3, 35280, Note_on_c, 1, 74, 90
3, 35339, Note_on_c, 1, 74, 0
3, 35340, Note_on_c, 1, 79, 90
3, 35399, Note_on_c, 1, 79, 0
3, 35400, Note_on_c, 1, 81, 90
3, 35429, Note_on_c, 1, 81, 0
3, 35430, Note_on_c, 1, 79, 90
3, 35459, Note_on_c, 1, 79, 0
3, 35460, Note_on_c, 1, 78, 90
3, 35489, Note_on_c, 1, 78, 0
3, 35490, Note_on_c, 1, 76, 90
3, 35519, Note_on_c, 1, 76, 0
3, 35520, Note_on_c, 1, 74, 90
3, 35549, Note_on_c, 1, 74, 0
3, 35550, Note_on_c, 1, 72, 90
3, 35579, Note_on_c, 1, 72, 0
3, 35580, Note_on_c, 1, 70, 90
3, 35609, Note_on_c, 1, 70, 0
3, 35610, Note_on_c, 1, 69, 90
3, 35639, Note_on_c, 1, 69, 0
3, 35640, Note_on_c, 1, 67, 90
3, 35669, Note_on_c, 1, 67, 0
3, 35670, Note_on_c, 1, 70, 90
3, 35699, Note_on_c, 1, 70, 0
3, 35700, Note_on_c, 1, 74, 90
3, 35729, Note_on_c, 1, 74, 0
3, 35730, Note_on_c, 1, 66, 90
3, 35759, Note_on_c, 1, 66, 0
3, 35760, Note_on_c, 1, 67, 90
3, 35789, Note_on_c, 1, 67, 0
3, 35790, Note_on_c, 1, 70, 90
3, 35819, Note_on_c, 1, 70, 0
3, 35820, Note_on_c, 1, 74, 90
3, 35849, Note_on_c, 1, 74, 0
3, 35850, Note_on_c, 1, 66, 90
3, 35879, Note_on_c, 1, 66, 0
3, 35880, Note_on_c, 1, 67, 90
3, 35909, Note_on_c, 1, 67, 0
3, 35910, Note_on_c, 1, 70, 90
3, 35939, Note_on_c, 1, 70, 0
3, 35940, Note_on_c, 1, 74, 90
3, 35969, Note_on_c, 1, 74, 0
3, 35970, Note_on_c, 1, 67, 90
3, 35999, Note_on_c, 1, 67, 0
3, 36000, Note_on_c, 1, 79, 90
3, 36149, Note_on_c, 1, 79, 0
3, 36150, Note_on_c, 1, 77, 90
3, 36179, Note_on_c, 1, 77, 0
3, 36180, Note_on_c, 1, 75, 90
3, 36209, Note_on_c, 1, 75, 0
3, 36210, Note_on_c, 1, 74, 90
3, 36239, Note_on_c, 1, 74, 0
3, 36240, Note_on_c, 1, 72, 90
3, 36269, Note_on_c, 1, 72, 0
3, 36270, Note_on_c, 1, 74, 90
3, 36299, Note_on_c, 1, 74, 0
3, 36300, Note_on_c, 1, 75, 90
3, 36389, Note_on_c, 1, 75, 0
3, 36390, Note_on_c, 1, 69, 90
3, 36419, Note_on_c, 1, 69, 0
3, 36420, Note_on_c, 1, 72, 90
3, 36449, Note_on_c, 1, 72, 0
3, 36450, Note_on_c, 1, 65, 90
3, 36479, Note_on_c, 1, 65, 0
3, 36480, Note_on_c, 1, 77, 90
3, 36629, Note_on_c, 1, 77, 0
3, 36630, Note_on_c, 1, 75, 90
3, 36659, Note_on_c, 1, 75, 0
3, 36660, Note_on_c, 1, 74, 90
3, 36689, Note_on_c, 1, 74, 0
3, 36690, Note_on_c, 1, 72, 90
3, 36719, Note_on_c, 1, 72, 0
3, 36720, Note_on_c, 1, 70, 90
3, 36749, Note_on_c, 1, 70, 0
3, 36750, Note_on_c, 1, 72, 90
3, 36779, Note_on_c, 1, 72, 0
3, 36780, Note_on_c, 1, 74, 90
3, 36869, Note_on_c, 1, 74, 0
3, 36870, Note_on_c, 1, 67, 90
3, 36899, Note_on_c, 1, 67, 0
3, 36900, Note_on_c, 1, 70, 90
3, 36929, Note_on_c, 1, 70, 0
3, 36930, Note_on_c, 1, 63, 90
3, 36959, Note_on_c, 1, 63, 0
3, 36960, Note_on_c, 1, 75, 90
3, 36989, Note_on_c, 1, 75, 0
3, 36990, Note_on_c, 1, 69, 90
3, 37019, Note_on_c, 1, 69, 0
3, 37020, Note_on_c, 1, 70, 90
3, 37049, Note_on_c, 1, 70, 0
3, 37050, Note_on_c, 1, 67, 90
3, 37079, Note_on_c, 1, 67, 0
3, 37080, Note_on_c, 1, 75, 90
3, 37109, Note_on_c, 1, 75, 0
3, 37110, Note_on_c, 1, 74, 90
3, 37139, Note_on_c, 1, 74, 0
3, 37140, Note_on_c, 1, 72, 90
3, 37169, Note_on_c, 1, 72, 0
3, 37170, Note_on_c, 1, 70, 90
3, 37199, Note_on_c, 1, 70, 0
3, 37200, Note_on_c, 1, 69, 90
3, 37229, Note_on_c, 1, 69, 0
3, 37230, Note_on_c, 1, 67, 90
3, 37259, Note_on_c, 1, 67, 0
3, 37260, Note_on_c, 1, 66, 90
3, 37289, Note_on_c, 1, 66, 0
3, 37290, Note_on_c, 1, 64, 90
3, 37319, Note_on_c, 1, 64, 0
3, 37320, Note_on_c, 1, 66, 90
3, 37349, Note_on_c, 1, 66, 0
3, 37350, Note_on_c, 1, 74, 90
3, 37379, Note_on_c, 1, 74, 0
3, 37380, Note_on_c, 1, 67, 90
3, 37409, Note_on_c, 1, 67, 0
3, 37410, Note_on_c, 1, 74, 90
3, 37439, Note_on_c, 1, 74, 0
3, 37440, Note_on_c, 1, 69, 90
3, 37469, Note_on_c, 1, 69, 0
3, 37470, Note_on_c, 1, 74, 90
3, 37499, Note_on_c, 1, 74, 0
3, 37500, Note_on_c, 1, 66, 90
3, 37529, Note_on_c, 1, 66, 0
3, 37530, Note_on_c, 1, 74, 90
3, 37559, Note_on_c, 1, 74, 0
3, 37560, Note_on_c, 1, 67, 90
3, 37589, Note_on_c, 1, 67, 0
3, 37590, Note_on_c, 1, 74, 90
3, 37619, Note_on_c, 1, 74, 0
3, 37620, Note_on_c, 1, 69, 90
3, 37649, Note_on_c, 1, 69, 0
3, 37650, Note_on_c, 1, 74, 90
3, 37679, Note_on_c, 1, 74, 0
3, 37680, Note_on_c, 1, 70, 90
3, 37709, Note_on_c, 1, 70, 0
3, 37710, Note_on_c, 1, 74, 90
3, 37739, Note_on_c, 1, 74, 0
3, 37740, Note_on_c, 1, 67, 90
3, 37769, Note_on_c, 1, 67, 0
3, 37770, Note_on_c, 1, 74, 90
3, 37799, Note_on_c, 1, 74, 0
3, 37800, Note_on_c, 1, 69, 90
3, 37829, Note_on_c, 1, 69, 0
3, 37830, Note_on_c, 1, 74, 90
3, 37859, Note_on_c, 1, 74, 0
3, 37860, Note_on_c, 1, 70, 90
3, 37889, Note_on_c, 1, 70, 0
3, 37890, Note_on_c, 1, 74, 90
3, 37919, Note_on_c, 1, 74, 0
3, 37920, Note_on_c, 1, 72, 90
3, 37949, Note_on_c, 1, 72, 0
3, 37950, Note_on_c, 1, 74, 90
3, 37979, Note_on_c, 1, 74, 0
3, 37980, Note_on_c, 1, 69, 90
3, 38009, Note_on_c, 1, 69, 0
3, 38010, Note_on_c, 1, 74, 90
3, 38039, Note_on_c, 1, 74, 0
3, 38040, Note_on_c, 1, 70, 90
3, 38069, Note_on_c, 1, 70, 0
3, 38070, Note_on_c, 1, 66, 90
3, 38099, Note_on_c, 1, 66, 0
3, 38100, Note_on_c, 1, 67, 90
3, 38189, Note_on_c, 1, 67, 0
3, 38190, Note_on_c, 1, 74, 90
3, 38219, Note_on_c, 1, 74, 0
3, 38220, Note_on_c, 1, 70, 90
3, 38249, Note_on_c, 1, 70, 0
3, 38250, Note_on_c, 1, 67, 90
3, 38279, Note_on_c, 1, 67, 0
3, 38280, Note_on_c, 1, 75, 90
3, 38309, Note_on_c, 1, 75, 0
3, 38310, Note_on_c, 1, 66, 90
3, 38339, Note_on_c, 1, 66, 0
3, 38340, Note_on_c, 1, 67, 90
3, 38429, Note_on_c, 1, 67, 0
3, 38430, Note_on_c, 1, 75, 90
3, 38459, Note_on_c, 1, 75, 0
3, 38460, Note_on_c, 1, 72, 90
3, 38489, Note_on_c, 1, 72, 0
3, 38490, Note_on_c, 1, 69, 90
3, 38519, Note_on_c, 1, 69, 0
3, 38520, Note_on_c, 1, 74, 90
3, 38549, Note_on_c, 1, 74, 0
3, 38550, Note_on_c, 1, 66, 90
3, 38579, Note_on_c, 1, 66, 0
3, 38580, Note_on_c, 1, 67, 90
3, 38609, Note_on_c, 1, 67, 0
3, 38610, Note_on_c, 1, 70, 90
3, 38639, Note_on_c, 1, 70, 0
3, 38640, Note_on_c, 1, 75, 90
3, 38669, Note_on_c, 1, 75, 0
3, 38670, Note_on_c, 1, 66, 90
3, 38699, Note_on_c, 1, 66, 0
3, 38700, Note_on_c, 1, 67, 90
3, 38729, Note_on_c, 1, 67, 0
3, 38730, Note_on_c, 1, 72, 90
3, 38759, Note_on_c, 1, 72, 0
3, 38760, Note_on_c, 1, 74, 90
3, 38849, Note_on_c, 1, 74, 0
3, 38850, Note_on_c, 1, 75, 90
3, 38879, Note_on_c, 1, 75, 0
3, 38880, Note_on_c, 1, 70, 90
3, 38894, Note_on_c, 1, 70, 0
3, 38895, Note_on_c, 1, 69, 90
3, 38909, Note_on_c, 1, 69, 0
3, 38910, Note_on_c, 1, 70, 90
3, 38924, Note_on_c, 1, 70, 0
3, 38925, Note_on_c, 1, 69, 90
3, 38939, Note_on_c, 1, 69, 0
3, 38940, Note_on_c, 1, 70, 90
3, 38954, Note_on_c, 1, 70, 0
3, 38955, Note_on_c, 1, 69, 90
3, 38969, Note_on_c, 1, 69, 0
3, 38970, Note_on_c, 1, 67, 90
3, 38999, Note_on_c, 1, 67, 0
3, 39000, Note_on_c, 1, 67, 90
3, 39119, Note_on_c, 1, 67, 0
3, 39180, Note_on_c, 1, 82, 90
3, 39269, Note_on_c, 1, 82, 0
3, 39270, Note_on_c, 1, 79, 90
3, 39284, Note_on_c, 1, 79, 0
3, 39285, Note_on_c, 1, 81, 90
3, 39299, Note_on_c, 1, 81, 0
3, 39300, Note_on_c, 1, 82, 90
3, 39329, Note_on_c, 1, 82, 0
3, 39330, Note_on_c, 1, 79, 90
3, 39344, Note_on_c, 1, 79, 0
3, 39345, Note_on_c, 1, 81, 90
3, 39359, Note_on_c, 1, 81, 0
3, 39360, Note_on_c, 1, 82, 90
3, 39389, Note_on_c, 1, 82, 0
3, 39390, Note_on_c, 1, 79, 90
3, 39419, Note_on_c, 1, 79, 0
3, 39420, Note_on_c, 1, 72, 90
3, 39449, Note_on_c, 1, 72, 0
3, 39450, Note_on_c, 1, 82, 90
3, 39479, Note_on_c, 1, 82, 0
3, 39480, Note_on_c, 1, 82, 90
3, 39509, Note_on_c, 1, 82, 0
3, 39510, Note_on_c, 1, 81, 90
3, 39599, Note_on_c, 1, 81, 0
3, 39660, Note_on_c, 1, 80, 90
3, 39749, Note_on_c, 1, 80, 0
3, 39750, Note_on_c, 1, 77, 90
3, 39764, Note_on_c, 1, 77, 0
3, 39765, Note_on_c, 1, 79, 90
3, 39779, Note_on_c, 1, 79, 0
3, 39780, Note_on_c, 1, 80, 90
3, 39809, Note_on_c, 1, 80, 0
3, 39810, Note_on_c, 1, 77, 90
3, 39824, Note_on_c, 1, 77, 0
3, 39825, Note_on_c, 1, 79, 90
3, 39839, Note_on_c, 1, 79, 0
3, 39840, Note_on_c, 1, 80, 90
3, 39869, Note_on_c, 1, 80, 0
3, 39870, Note_on_c, 1, 77, 90
3, 39899, Note_on_c, 1, 77, 0
3, 39900, Note_on_c, 1, 70, 90
3, 39929, Note_on_c, 1, 70, 0
3, 39930, Note_on_c, 1, 80, 90
3, 39959, Note_on_c, 1, 80, 0
3, 39960, Note_on_c, 1, 79, 90
3, 39989, Note_on_c, 1, 79, 0
3, 39990, Note_on_c, 1, 72, 90
3, 40004, Note_on_c, 1, 72, 0
3, 40005, Note_on_c, 1, 74, 90
3, 40019, Note_on_c, 1, 74, 0
3, 40020, Note_on_c, 1, 75, 90
3, 40049, Note_on_c, 1, 75, 0
3, 40050, Note_on_c, 1, 72, 90
3, 40064, Note_on_c, 1, 72, 0
3, 40065, Note_on_c, 1, 74, 90
3, 40079, Note_on_c, 1, 74, 0
3, 40080, Note_on_c, 1, 75, 90
3, 40109, Note_on_c, 1, 75, 0
3, 40110, Note_on_c, 1, 72, 90
3, 40139, Note_on_c, 1, 72, 0
3, 40140, Note_on_c, 1, 67, 90
3, 40169, Note_on_c, 1, 67, 0
3, 40170, Note_on_c, 1, 70, 90
3, 40199, Note_on_c, 1, 70, 0
3, 40200, Note_on_c, 1, 69, 90
3, 40229, Note_on_c, 1, 69, 0
3, 40230, Note_on_c, 1, 74, 90
3, 40244, Note_on_c, 1, 74, 0
3, 40245, Note_on_c, 1, 75, 90
3, 40259, Note_on_c, 1, 75, 0
3, 40260, Note_on_c, 1, 77, 90
3, 40289, Note_on_c, 1, 77, 0
3, 40290, Note_on_c, 1, 74, 90
3, 40304, Note_on_c, 1, 74, 0
3, 40305, Note_on_c, 1, 75, 90
3, 40319, Note_on_c, 1, 75, 0
3, 40320, Note_on_c, 1, 77, 90
3, 40349, Note_on_c, 1, 77, 0
3, 40350, Note_on_c, 1, 74, 90
3, 40379, Note_on_c, 1, 74, 0
3, 40380, Note_on_c, 1, 69, 90
3, 40409, Note_on_c, 1, 69, 0
3, 40410, Note_on_c, 1, 72, 90
3, 40439, Note_on_c, 1, 72, 0
3, 40440, Note_on_c, 1, 70, 90
3, 40469, Note_on_c, 1, 70, 0
3, 40470, Note_on_c, 1, 75, 90
3, 40484, Note_on_c, 1, 75, 0
3, 40485, Note_on_c, 1, 77, 90
3, 40499, Note_on_c, 1, 77, 0
3, 40500, Note_on_c, 1, 79, 90
3, 40529, Note_on_c, 1, 79, 0
3, 40530, Note_on_c, 1, 75, 90
3, 40544, Note_on_c, 1, 75, 0
3, 40545, Note_on_c, 1, 77, 90
3, 40559, Note_on_c, 1, 77, 0
3, 40560, Note_on_c, 1, 79, 90
3, 40589, Note_on_c, 1, 79, 0
3, 40590, Note_on_c, 1, 75, 90
3, 40619, Note_on_c, 1, 75, 0
3, 40620, Note_on_c, 1, 70, 90
3, 40649, Note_on_c, 1, 70, 0
3, 40650, Note_on_c, 1, 74, 90
3, 40679, Note_on_c, 1, 74, 0
3, 40680, Note_on_c, 1, 72, 90
3, 40709, Note_on_c, 1, 72, 0
3, 40710, Note_on_c, 1, 69, 90
3, 40724, Note_on_c, 1, 69, 0
3, 40725, Note_on_c, 1, 70, 90
3, 40739, Note_on_c, 1, 70, 0
3, 40740, Note_on_c, 1, 72, 90
3, 40769, Note_on_c, 1, 72, 0
3, 40770, Note_on_c, 1, 69, 90
3, 40784, Note_on_c, 1, 69, 0
3, 40785, Note_on_c, 1, 70, 90
3, 40799, Note_on_c, 1, 70, 0
3, 40800, Note_on_c, 1, 72, 90
3, 40829, Note_on_c, 1, 72, 0
3, 40830, Note_on_c, 1, 69, 90
3, 40859, Note_on_c, 1, 69, 0
3, 40860, Note_on_c, 1, 65, 90
3, 40889, Note_on_c, 1, 65, 0
3, 40890, Note_on_c, 1, 69, 90
3, 40919, Note_on_c, 1, 69, 0
3, 40920, Note_on_c, 1, 70, 90
3, 40949, Note_on_c, 1, 70, 0
3, 40950, Note_on_c, 1, 69, 90
3, 40979, Note_on_c, 1, 69, 0
3, 40980, Note_on_c, 1, 70, 90
3, 41009, Note_on_c, 1, 70, 0
3, 41010, Note_on_c, 1, 79, 90
3, 41039, Note_on_c, 1, 79, 0
3, 41040, Note_on_c, 1, 69, 90
3, 41059, Note_on_c, 1, 69, 0
3, 41060, Note_on_c, 1, 70, 90
3, 41079, Note_on_c, 1, 70, 0
3, 41080, Note_on_c, 1, 69, 90
3, 41099, Note_on_c, 1, 69, 0
3, 41100, Note_on_c, 1, 70, 90
3, 41114, Note_on_c, 1, 70, 0
3, 41115, Note_on_c, 1, 69, 90
3, 41129, Note_on_c, 1, 69, 0
3, 41130, Note_on_c, 1, 70, 90
3, 41159, Note_on_c, 1, 70, 0
3, 41160, Note_on_c, 1, 70, 90
3, 41189, Note_on_c, 1, 70, 0
3, 41190, Note_on_c, 1, 79, 90
3, 41204, Note_on_c, 1, 79, 0
3, 41205, Note_on_c, 1, 81, 90
3, 41219, Note_on_c, 1, 81, 0
3, 41220, Note_on_c, 1, 82, 90
3, 41249, Note_on_c, 1, 82, 0
3, 41250, Note_on_c, 1, 79, 90
3, 41264, Note_on_c, 1, 79, 0
3, 41265, Note_on_c, 1, 81, 90
3, 41279, Note_on_c, 1, 81, 0
3, 41280, Note_on_c, 1, 82, 90
3, 41309, Note_on_c, 1, 82, 0
3, 41310, Note_on_c, 1, 67, 90
3, 41324, Note_on_c, 1, 67, 0
3, 41325, Note_on_c, 1, 69, 90
3, 41339, Note_on_c, 1, 69, 0
3, 41340, Note_on_c, 1, 70, 90
3, 41369, Note_on_c, 1, 70, 0
3, 41370, Note_on_c, 1, 67, 90
3, 41384, Note_on_c, 1, 67, 0
3, 41385, Note_on_c, 1, 69, 90
3, 41399, Note_on_c, 1, 69, 0
3, 41400, Note_on_c, 1, 70, 90
3, 41460, Note_on_c, 1, 70, 0
3, 41670, Note_on_c, 1, 72, 90
3, 41699, Note_on_c, 1, 72, 0
3, 41700, Note_on_c, 1, 72, 90
3, 41729, Note_on_c, 1, 72, 0
3, 41730, Note_on_c, 1, 77, 90
3, 41759, Note_on_c, 1, 77, 0
3, 41760, Note_on_c, 1, 77, 90
3, 41789, Note_on_c, 1, 77, 0
3, 41790, Note_on_c, 1, 80, 90
3, 41819, Note_on_c, 1, 80, 0
3, 41820, Note_on_c, 1, 80, 90
3, 41849, Note_on_c, 1, 80, 0
3, 41850, Note_on_c, 1, 74, 90
3, 41879, Note_on_c, 1, 74, 0
3, 41880, Note_on_c, 1, 74, 90
3, 41909, Note_on_c, 1, 74, 0
3, 41910, Note_on_c, 1, 70, 90
3, 41939, Note_on_c, 1, 70, 0
3, 41940, Note_on_c, 1, 75, 90
3, 41969, Note_on_c, 1, 75, 0
3, 41970, Note_on_c, 1, 67, 90
3, 41999, Note_on_c, 1, 67, 0
3, 42000, Note_on_c, 1, 65, 90
3, 42029, Note_on_c, 1, 65, 0
3, 42030, Note_on_c, 1, 75, 90
3, 42059, Note_on_c, 1, 75, 0
3, 42060, Note_on_c, 1, 65, 90
3, 42089, Note_on_c, 1, 65, 0
3, 42090, Note_on_c, 1, 74, 90
3, 42119, Note_on_c, 1, 74, 0
3, 42120, Note_on_c, 1, 75, 90
3, 42179, Note_on_c, 1, 75, 0
3, 42180, Note_on_c, 1, 70, 90
3, 42239, Note_on_c, 1, 70, 0
3, 42240, Note_on_c, 1, 75, 90
3, 42389, Note_on_c, 1, 75, 0
3, 42390, Note_on_c, 1, 69, 90
3, 42419, Note_on_c, 1, 69, 0
3, 42420, Note_on_c, 1, 71, 90
3, 42449, Note_on_c, 1, 71, 0
3, 42450, Note_on_c, 1, 72, 90
3, 42479, Note_on_c, 1, 72, 0
3, 42480, Note_on_c, 1, 74, 90
3, 42629, Note_on_c, 1, 74, 0
3, 42630, Note_on_c, 1, 67, 90
3, 42659, Note_on_c, 1, 67, 0
3, 42660, Note_on_c, 1, 69, 90
3, 42689, Note_on_c, 1, 69, 0
3, 42690, Note_on_c, 1, 71, 90
3, 42719, Note_on_c, 1, 71, 0
3, 42720, Note_on_c, 1, 72, 90
3, 42869, Note_on_c, 1, 72, 0
3, 42870, Note_on_c, 1, 77, 90
3, 42899, Note_on_c, 1, 77, 0
3, 42900, Note_on_c, 1, 79, 90
3, 42929, Note_on_c, 1, 79, 0
3, 42930, Note_on_c, 1, 80, 90
3, 42959, Note_on_c, 1, 80, 0
3, 42960, Note_on_c, 1, 71, 90
3, 43079, Note_on_c, 1, 71, 0
3, 43110, Note_on_c, 1, 72, 90
3, 43124, Note_on_c, 1, 72, 0
3, 43125, Note_on_c, 1, 74, 90
3, 43139, Note_on_c, 1, 74, 0
3, 43140, Note_on_c, 1, 75, 90
3, 43169, Note_on_c, 1, 75, 0
3, 43170, Note_on_c, 1, 72, 90
3, 43184, Note_on_c, 1, 72, 0
3, 43185, Note_on_c, 1, 74, 90
3, 43199, Note_on_c, 1, 74, 0
3, 43200, Note_on_c, 1, 75, 90
3, 43229, Note_on_c, 1, 75, 0
3, 43230, Note_on_c, 1, 72, 90
3, 43259, Note_on_c, 1, 72, 0
3, 43260, Note_on_c, 1, 69, 90
3, 43289, Note_on_c, 1, 69, 0
3, 43290, Note_on_c, 1, 72, 90
3, 43319, Note_on_c, 1, 72, 0
3, 43320, Note_on_c, 1, 66, 90
3, 43379, Note_on_c, 1, 66, 0
3, 43590, Note_on_c, 1, 69, 90
3, 43604, Note_on_c, 1, 69, 0
3, 43605, Note_on_c, 1, 70, 90
3, 43619, Note_on_c, 1, 70, 0
3, 43620, Note_on_c, 1, 72, 90
3, 43649, Note_on_c, 1, 72, 0
3, 43650, Note_on_c, 1, 69, 90
3, 43664, Note_on_c, 1, 69, 0
3, 43665, Note_on_c, 1, 70, 90
3, 43679, Note_on_c, 1, 70, 0
3, 43680, Note_on_c, 1, 72, 90
3, 43709, Note_on_c, 1, 72, 0
3, 43710, Note_on_c, 1, 69, 90
3, 43739, Note_on_c, 1, 69, 0
3, 43740, Note_on_c, 1, 66, 90
3, 43769, Note_on_c, 1, 66, 0
3, 43770, Note_on_c, 1, 69, 90
3, 43799, Note_on_c, 1, 69, 0
3, 43800, Note_on_c, 1, 70, 90
3, 43859, Note_on_c, 1, 70, 0
3, 43860, Note_on_c, 1, 74, 90
3, 43919, Note_on_c, 1, 74, 0
3, 43920, Note_on_c, 1, 79, 90
3, 43934, Note_on_c, 1, 79, 0
3, 43935, Note_on_c, 1, 78, 90
3, 43949, Note_on_c, 1, 78, 0
3, 43950, Note_on_c, 1, 79, 90
3, 44069, Note_on_c, 1, 79, 0
3, 44070, Note_on_c, 1, 81, 90
3, 44084, Note_on_c, 1, 81, 0
3, 44085, Note_on_c, 1, 79, 90
3, 44099, Note_on_c, 1, 79, 0
3, 44100, Note_on_c, 1, 78, 90
3, 44129, Note_on_c, 1, 78, 0
3, 44130, Note_on_c, 1, 79, 90
3, 44159, Note_on_c, 1, 79, 0
3, 44160, Note_on_c, 1, 81, 90
3, 44174, Note_on_c, 1, 81, 0
3, 44175, Note_on_c, 1, 79, 90
3, 44189, Note_on_c, 1, 79, 0
3, 44190, Note_on_c, 1, 81, 90
3, 44309, Note_on_c, 1, 81, 0
3, 44310, Note_on_c, 1, 82, 90
3, 44324, Note_on_c, 1, 82, 0
3, 44325, Note_on_c, 1, 81, 90
3, 44339, Note_on_c, 1, 81, 0
3, 44340, Note_on_c, 1, 79, 90
3, 44369, Note_on_c, 1, 79, 0
3, 44370, Note_on_c, 1, 81, 90
3, 44399, Note_on_c, 1, 81, 0
3, 44400, Note_on_c, 1, 82, 90
3, 44414, Note_on_c, 1, 82, 0
3, 44415, Note_on_c, 1, 81, 90
3, 44429, Note_on_c, 1, 81, 0
3, 44430, Note_on_c, 1, 82, 90
3, 44549, Note_on_c, 1, 82, 0
3, 44550, Note_on_c, 1, 84, 90
3, 44564, Note_on_c, 1, 84, 0
3, 44565, Note_on_c, 1, 82, 90
3, 44579, Note_on_c, 1, 82, 0
3, 44580, Note_on_c, 1, 81, 90
3, 44609, Note_on_c, 1, 81, 0
3, 44610, Note_on_c, 1, 82, 90
3, 44639, Note_on_c, 1, 82, 0
3, 44640, Note_on_c, 1, 84, 90
3, 44654, Note_on_c, 1, 84, 0
3, 44655, Note_on_c, 1, 82, 90
3, 44669, Note_on_c, 1, 82, 0
3, 44670, Note_on_c, 1, 84, 90
3, 44789, Note_on_c, 1, 84, 0
3, 44790, Note_on_c, 1, 81, 90
3, 44804, Note_on_c, 1, 81, 0
3, 44805, Note_on_c, 1, 82, 90
3, 44819, Note_on_c, 1, 82, 0
3, 44820, Note_on_c, 1, 84, 90
3, 44849, Note_on_c, 1, 84, 0
3, 44850, Note_on_c, 1, 81, 90
3, 44864, Note_on_c, 1, 81, 0
3, 44865, Note_on_c, 1, 82, 90
3, 44879, Note_on_c, 1, 82, 0
3, 44880, Note_on_c, 1, 84, 90
3, 44909, Note_on_c, 1, 84, 0
3, 44910, Note_on_c, 1, 81, 90
3, 44939, Note_on_c, 1, 81, 0
3, 44940, Note_on_c, 1, 86, 90
3, 45029, Note_on_c, 1, 86, 0
3, 45030, Note_on_c, 1, 81, 90
3, 45059, Note_on_c, 1, 81, 0
3, 45060, Note_on_c, 1, 82, 90
3, 45089, Note_on_c, 1, 82, 0
3, 45090, Note_on_c, 1, 79, 90
3, 45119, Note_on_c, 1, 79, 0
3, 45120, Note_on_c, 1, 78, 90
3, 45209, Note_on_c, 1, 78, 0
3, 45210, Note_on_c, 1, 79, 90
3, 45239, Note_on_c, 1, 79, 0
3, 45240, Note_on_c, 1, 79, 90
3, 45299, Note_on_c, 1, 79, 0
3, 45300, Note_on_c, 1, 79, 90
3, 45329, Note_on_c, 1, 79, 0
3, 45330, Note_on_c, 1, 78, 90
3, 45359, Note_on_c, 1, 78, 0
3, 45360, Note_on_c, 1, 79, 90
3, 45419, Note_on_c, 1, 79, 0
3, 45420, Note_on_c, 1, 74, 90
3, 45449, Note_on_c, 1, 74, 0
3, 45450, Note_on_c, 1, 72, 90
3, 45479, Note_on_c, 1, 72, 0
3, 45480, Note_on_c, 1, 74, 90
3, 45539, Note_on_c, 1, 74, 0
3, 45540, Note_on_c, 1, 70, 90
3, 45569, Note_on_c, 1, 70, 0
3, 45570, Note_on_c, 1, 69, 90
3, 45599, Note_on_c, 1, 69, 0
3, 45600, Note_on_c, 1, 70, 90
3, 45659, Note_on_c, 1, 70, 0
3, 45660, Note_on_c, 1, 67, 90
3, 45689, Note_on_c, 1, 67, 0
3, 45690, Note_on_c, 1, 66, 90
3, 45719, Note_on_c, 1, 66, 0
3, 45720, Note_on_c, 1, 67, 90
3, 45779, Note_on_c, 1, 67, 0
3, 45780, Note_on_c, 1, 70, 90
3, 45839, Note_on_c, 1, 70, 0
3, 45840, Note_on_c, 1, 74, 90
3, 45899, Note_on_c, 1, 74, 0
3, 45900, Note_on_c, 1, 79, 90
3, 45959, Note_on_c, 1, 79, 0
3, 45960, Note_on_c, 1, 81, 90
3, 45989, Note_on_c, 1, 81, 0
3, 45990, Note_on_c, 1, 79, 90
3, 46019, Note_on_c, 1, 79, 0
3, 46020, Note_on_c, 1, 78, 90
3, 46049, Note_on_c, 1, 78, 0
3, 46050, Note_on_c, 1, 76, 90
3, 46079, Note_on_c, 1, 76, 0
3, 46080, Note_on_c, 1, 74, 90
3, 46259, Note_on_c, 1, 74, 0
3, 46260, Note_on_c, 1, 68, 90
3, 46289, Note_on_c, 1, 68, 0
3, 46290, Note_on_c, 1, 67, 90
3, 46319, Note_on_c, 1, 67, 0
3, 46320, Note_on_c, 1, 68, 90
3, 46349, Note_on_c, 1, 68, 0
3, 46350, Note_on_c, 1, 77, 90
3, 46379, Note_on_c, 1, 77, 0
3, 46380, Note_on_c, 1, 68, 90
3, 46409, Note_on_c, 1, 68, 0
3, 46410, Note_on_c, 1, 77, 90
3, 46439, Note_on_c, 1, 77, 0
3, 46440, Note_on_c, 1, 68, 90
3, 46469, Note_on_c, 1, 68, 0
3, 46470, Note_on_c, 1, 77, 90
3, 46499, Note_on_c, 1, 77, 0
3, 46500, Note_on_c, 1, 67, 90
3, 46529, Note_on_c, 1, 67, 0
3, 46530, Note_on_c, 1, 65, 90
3, 46559, Note_on_c, 1, 65, 0
3, 46560, Note_on_c, 1, 67, 90
3, 46589, Note_on_c, 1, 67, 0
3, 46590, Note_on_c, 1, 77, 90
3, 46619, Note_on_c, 1, 77, 0
3, 46620, Note_on_c, 1, 71, 90
3, 46649, Note_on_c, 1, 71, 0
3, 46650, Note_on_c, 1, 77, 90
3, 46679, Note_on_c, 1, 77, 0
3, 46680, Note_on_c, 1, 74, 90
3, 46709, Note_on_c, 1, 74, 0
3, 46710, Note_on_c, 1, 77, 90
3, 46739, Note_on_c, 1, 77, 0
3, 46740, Note_on_c, 1, 67, 90
3, 46769, Note_on_c, 1, 67, 0
3, 46770, Note_on_c, 1, 77, 90
3, 46799, Note_on_c, 1, 77, 0
3, 46800, Note_on_c, 1, 71, 90
3, 46829, Note_on_c, 1, 71, 0
3, 46830, Note_on_c, 1, 77, 90
3, 46859, Note_on_c, 1, 77, 0
3, 46860, Note_on_c, 1, 74, 90
3, 46889, Note_on_c, 1, 74, 0
3, 46890, Note_on_c, 1, 77, 90
3, 46919, Note_on_c, 1, 77, 0
3, 46920, Note_on_c, 1, 67, 90
3, 46949, Note_on_c, 1, 67, 0
3, 46950, Note_on_c, 1, 79, 90
3, 46979, Note_on_c, 1, 79, 0
3, 46980, Note_on_c, 1, 77, 90
3, 47009, Note_on_c, 1, 77, 0
3, 47010, Note_on_c, 1, 79, 90
3, 47039, Note_on_c, 1, 79, 0
3, 47040, Note_on_c, 1, 75, 90
3, 47069, Note_on_c, 1, 75, 0
3, 47070, Note_on_c, 1, 72, 90
3, 47099, Note_on_c, 1, 72, 0
3, 47100, Note_on_c, 1, 79, 90
3, 47129, Note_on_c, 1, 79, 0
3, 47130, Note_on_c, 1, 70, 90
3, 47159, Note_on_c, 1, 70, 0
3, 47160, Note_on_c, 1, 69, 90
3, 47219, Note_on_c, 1, 69, 0
3, 47220, Note_on_c, 1, 79, 90
3, 47249, Note_on_c, 1, 79, 0
3, 47250, Note_on_c, 1, 77, 90
3, 47279, Note_on_c, 1, 77, 0
3, 47280, Note_on_c, 1, 79, 90
3, 47339, Note_on_c, 1, 79, 0
3, 47340, Note_on_c, 1, 76, 90
3, 47369, Note_on_c, 1, 76, 0
3, 47370, Note_on_c, 1, 74, 90
3, 47399, Note_on_c, 1, 74, 0
3, 47400, Note_on_c, 1, 76, 90
3, 47459, Note_on_c, 1, 76, 0
3, 47460, Note_on_c, 1, 73, 90
3, 47489, Note_on_c, 1, 73, 0
3, 47490, Note_on_c, 1, 71, 90
3, 47519, Note_on_c, 1, 71, 0
3, 47520, Note_on_c, 1, 73, 90
3, 47579, Note_on_c, 1, 73, 0
3, 47580, Note_on_c, 1, 69, 90
3, 47609, Note_on_c, 1, 69, 0
3, 47610, Note_on_c, 1, 67, 90
3, 47639, Note_on_c, 1, 67, 0
3, 47640, Note_on_c, 1, 69, 90
3, 47699, Note_on_c, 1, 69, 0
3, 47700, Note_on_c, 1, 73, 90
3, 47759, Note_on_c, 1, 73, 0
3, 47760, Note_on_c, 1, 76, 90
3, 47819, Note_on_c, 1, 76, 0
3, 47820, Note_on_c, 1, 79, 90
3, 47879, Note_on_c, 1, 79, 0
3, 47880, Note_on_c, 1, 79, 90
3, 47909, Note_on_c, 1, 79, 0
3, 47910, Note_on_c, 1, 78, 90
3, 47939, Note_on_c, 1, 78, 0
3, 47940, Note_on_c, 1, 76, 90
3, 47969, Note_on_c, 1, 76, 0
3, 47970, Note_on_c, 1, 78, 90
3, 47999, Note_on_c, 1, 78, 0
3, 48000, Note_on_c, 1, 74, 90
3, 48059, Note_on_c, 1, 74, 0
3, 48060, Note_on_c, 1, 81, 90
3, 48119, Note_on_c, 1, 81, 0
3, 48120, Note_on_c, 1, 81, 90
3, 48839, Note_on_c, 1, 81, 0
3, 48900, Note_on_c, 1, 74, 90
3, 48959, Note_on_c, 1, 74, 0
3, 48960, Note_on_c, 1, 79, 90
3, 48989, Note_on_c, 1, 79, 0
3, 48990, Note_on_c, 1, 82, 90
3, 49019, Note_on_c, 1, 82, 0
3, 49020, Note_on_c, 1, 81, 90
3, 49049, Note_on_c, 1, 81, 0
3, 49050, Note_on_c, 1, 84, 90
3, 49079, Note_on_c, 1, 84, 0
3, 49080, Note_on_c, 1, 82, 90
3, 49109, Note_on_c, 1, 82, 0
3, 49110, Note_on_c, 1, 84, 90
3, 49139, Note_on_c, 1, 84, 0
3, 49140, Note_on_c, 1, 82, 90
3, 49169, Note_on_c, 1, 82, 0
3, 49170, Note_on_c, 1, 81, 90
3, 49199, Note_on_c, 1, 81, 0
3, 49200, Note_on_c, 1, 79, 90
3, 49229, Note_on_c, 1, 79, 0
3, 49230, Note_on_c, 1, 77, 90
3, 49259, Note_on_c, 1, 77, 0
3, 49260, Note_on_c, 1, 75, 90
3, 49289, Note_on_c, 1, 75, 0
3, 49290, Note_on_c, 1, 74, 90
3, 49319, Note_on_c, 1, 74, 0
3, 49320, Note_on_c, 1, 72, 90
3, 49379, Note_on_c, 1, 72, 0
3, 49380, Note_on_c, 1, 75, 90
3, 49439, Note_on_c, 1, 75, 0
3, 49440, Note_on_c, 1, 79, 90
3, 49499, Note_on_c, 1, 79, 0
3, 49500, Note_on_c, 1, 82, 90
3, 49559, Note_on_c, 1, 82, 0
3, 49560, Note_on_c, 1, 81, 90
3, 49589, Note_on_c, 1, 81, 0
3, 49590, Note_on_c, 1, 82, 90
3, 49619, Note_on_c, 1, 82, 0
3, 49620, Note_on_c, 1, 81, 90
3, 49649, Note_on_c, 1, 81, 0
3, 49650, Note_on_c, 1, 79, 90
3, 49679, Note_on_c, 1, 79, 0
3, 49680, Note_on_c, 1, 77, 90
3, 49709, Note_on_c, 1, 77, 0
3, 49710, Note_on_c, 1, 75, 90
3, 49739, Note_on_c, 1, 75, 0
3, 49740, Note_on_c, 1, 74, 90
3, 49769, Note_on_c, 1, 74, 0
3, 49770, Note_on_c, 1, 72, 90
3, 49799, Note_on_c, 1, 72, 0
3, 49800, Note_on_c, 1, 70, 90
3, 49859, Note_on_c, 1, 70, 0
3, 49860, Note_on_c, 1, 74, 90
3, 49919, Note_on_c, 1, 74, 0
3, 49920, Note_on_c, 1, 77, 90
3, 49979, Note_on_c, 1, 77, 0
3, 49980, Note_on_c, 1, 80, 90
3, 50039, Note_on_c, 1, 80, 0
3, 50040, Note_on_c, 1, 79, 90
3, 50069, Note_on_c, 1, 79, 0
3, 50070, Note_on_c, 1, 80, 90
3, 50099, Note_on_c, 1, 80, 0
3, 50100, Note_on_c, 1, 79, 90
3, 50129, Note_on_c, 1, 79, 0
3, 50130, Note_on_c, 1, 77, 90
3, 50159, Note_on_c, 1, 77, 0
3, 50160, Note_on_c, 1, 75, 90
3, 50189, Note_on_c, 1, 75, 0
3, 50190, Note_on_c, 1, 74, 90
3, 50219, Note_on_c, 1, 74, 0
3, 50220, Note_on_c, 1, 72, 90
3, 50249, Note_on_c, 1, 72, 0
3, 50250, Note_on_c, 1, 70, 90
3, 50279, Note_on_c, 1, 70, 0
3, 50280, Note_on_c, 1, 69, 90
3, 50309, Note_on_c, 1, 69, 0
3, 50310, Note_on_c, 1, 70, 90
3, 50339, Note_on_c, 1, 70, 0
3, 50340, Note_on_c, 1, 72, 90
3, 50369, Note_on_c, 1, 72, 0
3, 50370, Note_on_c, 1, 74, 90
3, 50399, Note_on_c, 1, 74, 0
3, 50400, Note_on_c, 1, 75, 90
3, 50429, Note_on_c, 1, 75, 0
3, 50430, Note_on_c, 1, 72, 90
3, 50459, Note_on_c, 1, 72, 0
3, 50460, Note_on_c, 1, 69, 90
3, 50489, Note_on_c, 1, 69, 0
3, 50490, Note_on_c, 1, 72, 90
3, 50519, Note_on_c, 1, 72, 0
3, 50520, Note_on_c, 1, 66, 90
3, 50549, Note_on_c, 1, 66, 0
3, 50550, Note_on_c, 1, 67, 90
3, 50579, Note_on_c, 1, 67, 0
3, 50580, Note_on_c, 1, 69, 90
3, 50609, Note_on_c, 1, 69, 0
3, 50610, Note_on_c, 1, 70, 90
3, 50639, Note_on_c, 1, 70, 0
3, 50640, Note_on_c, 1, 72, 90
3, 50669, Note_on_c, 1, 72, 0
3, 50670, Note_on_c, 1, 69, 90
3, 50699, Note_on_c, 1, 69, 0
3, 50700, Note_on_c, 1, 66, 90
3, 50729, Note_on_c, 1, 66, 0
3, 50730, Note_on_c, 1, 69, 90
3, 50759, Note_on_c, 1, 69, 0
3, 50760, Note_on_c, 1, 62, 90
3, 50789, Note_on_c, 1, 62, 0
3, 50790, Note_on_c, 1, 64, 90
3, 50819, Note_on_c, 1, 64, 0
3, 50820, Note_on_c, 1, 66, 90
3, 50849, Note_on_c, 1, 66, 0
3, 50850, Note_on_c, 1, 67, 90
3, 50879, Note_on_c, 1, 67, 0
3, 50880, Note_on_c, 1, 69, 90
3, 50909, Note_on_c, 1, 69, 0
3, 50910, Note_on_c, 1, 70, 90
3, 50939, Note_on_c, 1, 70, 0
3, 50940, Note_on_c, 1, 72, 90
3, 50969, Note_on_c, 1, 72, 0
3, 50970, Note_on_c, 1, 69, 90
3, 50999, Note_on_c, 1, 69, 0
3, 51000, Note_on_c, 1, 74, 90
3, 51029, Note_on_c, 1, 74, 0
3, 51030, Note_on_c, 1, 66, 90
3, 51059, Note_on_c, 1, 66, 0
3, 51060, Note_on_c, 1, 67, 90
3, 51149, Note_on_c, 1, 67, 0
3, 51150, Note_on_c, 1, 74, 90
3, 51179, Note_on_c, 1, 74, 0
3, 51180, Note_on_c, 1, 70, 90
3, 51209, Note_on_c, 1, 70, 0
3, 51210, Note_on_c, 1, 67, 90
3, 51239, Note_on_c, 1, 67, 0
3, 51240, Note_on_c, 1, 75, 90
3, 51269, Note_on_c, 1, 75, 0
3, 51270, Note_on_c, 1, 66, 90
3, 51299, Note_on_c, 1, 66, 0
3, 51300, Note_on_c, 1, 67, 90
3, 51389, Note_on_c, 1, 67, 0
3, 51390, Note_on_c, 1, 75, 90
3, 51419, Note_on_c, 1, 75, 0
3, 51420, Note_on_c, 1, 72, 90
3, 51449, Note_on_c, 1, 72, 0
3, 51450, Note_on_c, 1, 69, 90
3, 51479, Note_on_c, 1, 69, 0
3, 51480, Note_on_c, 1, 74, 90
3, 51509, Note_on_c, 1, 74, 0
3, 51510, Note_on_c, 1, 66, 90
3, 51539, Note_on_c, 1, 66, 0
3, 51540, Note_on_c, 1, 67, 90
3, 51569, Note_on_c, 1, 67, 0
3, 51570, Note_on_c, 1, 70, 90
3, 51599, Note_on_c, 1, 70, 0
3, 51600, Note_on_c, 1, 75, 90
3, 51629, Note_on_c, 1, 75, 0
3, 51630, Note_on_c, 1, 66, 90
3, 51659, Note_on_c, 1, 66, 0
3, 51660, Note_on_c, 1, 67, 90
3, 51689, Note_on_c, 1, 67, 0
3, 51690, Note_on_c, 1, 72, 90
3, 51719, Note_on_c, 1, 72, 0
3, 51720, Note_on_c, 1, 74, 90
3, 51749, Note_on_c, 1, 74, 0
3, 51750, Note_on_c, 1, 78, 90
3, 51779, Note_on_c, 1, 78, 0
3, 51780, Note_on_c, 1, 79, 90
3, 51809, Note_on_c, 1, 79, 0
3, 51810, Note_on_c, 1, 81, 90
3, 51839, Note_on_c, 1, 81, 0
3, 51840, Note_on_c, 1, 81, 90
3, 51929, Note_on_c, 1, 81, 0
3, 51930, Note_on_c, 1, 79, 90
3, 51959, Note_on_c, 1, 79, 0
3, 51960, Note_on_c, 1, 79, 90
3, 51989, Note_on_c, 1, 79, 0
3, 51990, Note_on_c, 1, 78, 90
3, 52019, Note_on_c, 1, 78, 0
3, 52020, Note_on_c, 1, 79, 90
3, 52169, Note_on_c, 1, 79, 0
3, 52170, Note_on_c, 1, 78, 90
3, 52199, Note_on_c, 1, 78, 0
3, 52200, Note_on_c, 1, 79, 90
3, 52229, Note_on_c, 1, 79, 0
3, 52230, Note_on_c, 1, 78, 90
3, 52259, Note_on_c, 1, 78, 0
3, 52260, Note_on_c, 1, 78, 90
3, 52289, Note_on_c, 1, 78, 0
3, 52290, Note_on_c, 1, 79, 90
3, 52470, Note_on_c, 1, 79, 0
3, 52470, Note_on_c, 1, 75, 90
3, 52499, Note_on_c, 1, 75, 0
3, 52500, Note_on_c, 1, 74, 90
3, 52529, Note_on_c, 1, 74, 0
3, 52530, Note_on_c, 1, 72, 90
3, 52559, Note_on_c, 1, 72, 0
3, 52560, Note_on_c, 1, 70, 90
3, 52619, Note_on_c, 1, 70, 0
3, 52620, Note_on_c, 1, 69, 90
3, 52629, Note_on_c, 1, 69, 0
3, 52630, Note_on_c, 1, 70, 90
3, 52639, Note_on_c, 1, 70, 0
3, 52640, Note_on_c, 1, 69, 90
3, 52649, Note_on_c, 1, 69, 0
3, 52650, Note_on_c, 1, 67, 90
3, 52679, Note_on_c, 1, 67, 0
3, 52680, Note_on_c, 1, 58, 90
3, 52680, Note_on_c, 1, 62, 90
3, 52680, Note_on_c, 1, 67, 90
3, 52859, Note_on_c, 1, 67, 0
3, 52859, Note_on_c, 1, 62, 0
3, 52859, Note_on_c, 1, 58, 0
3, 53640, Note_on_c, 1, 70, 90
3, 53879, Note_on_c, 1, 70, 0
3, 53880, Note_on_c, 1, 72, 90
3, 53895, Note_on_c, 1, 72, 0
3, 53895, Note_on_c, 1, 70, 90
3, 53910, Note_on_c, 1, 70, 0
3, 53910, Note_on_c, 1, 72, 90
3, 54000, Note_on_c, 1, 72, 0
3, 54000, Note_on_c, 1, 74, 90
3, 54119, Note_on_c, 1, 74, 0
3, 54120, Note_on_c, 1, 70, 90
3, 54179, Note_on_c, 1, 70, 0
3, 54180, Note_on_c, 1, 69, 90
3, 54359, Note_on_c, 1, 69, 0
3, 54360, Note_on_c, 1, 75, 90
3, 54599, Note_on_c, 1, 75, 0
3, 54600, Note_on_c, 1, 74, 90
3, 54659, Note_on_c, 1, 74, 0
3, 54660, Note_on_c, 1, 72, 90
3, 54839, Note_on_c, 1, 72, 0
3, 54840, Note_on_c, 1, 70, 90
3, 54899, Note_on_c, 1, 70, 0
3, 54900, Note_on_c, 1, 69, 90
3, 54959, Note_on_c, 1, 69, 0
3, 54960, Note_on_c, 1, 67, 90
3, 55019, Note_on_c, 1, 67, 0
3, 55020, Note_on_c, 1, 65, 90
3, 55079, Note_on_c, 1, 65, 0
3, 55080, Note_on_c, 1, 65, 90
3, 55319, Note_on_c, 1, 65, 0
3, 55320, Note_on_c, 1, 63, 90
3, 55335, Note_on_c, 1, 63, 0
3, 55335, Note_on_c, 1, 65, 90
3, 55350, Note_on_c, 1, 65, 0
3, 55350, Note_on_c, 1, 63, 90
3, 55380, Note_on_c, 1, 63, 0
3, 55380, Note_on_c, 1, 62, 90
3, 55439, Note_on_c, 1, 62, 0
3, 55440, Note_on_c, 1, 63, 90
3, 55559, Note_on_c, 1, 63, 0
3, 55560, Note_on_c, 1, 62, 90
3, 55919, Note_on_c, 1, 62, 0
3, 55920, Note_on_c, 1, 60, 90
3, 56039, Note_on_c, 1, 60, 0
3, 56040, Note_on_c, 1, 58, 90
3, 56279, Note_on_c, 1, 58, 0
3, 56280, Note_on_c, 1, 74, 90
3, 56519, Note_on_c, 1, 74, 0
3, 56520, Note_on_c, 1, 72, 90
3, 56579, Note_on_c, 1, 72, 0
3, 56580, Note_on_c, 1, 70, 90
3, 56759, Note_on_c, 1, 70, 0
3, 56760, Note_on_c, 1, 69, 90
3, 56819, Note_on_c, 1, 69, 0
3, 56820, Note_on_c, 1, 67, 90
3, 56999, Note_on_c, 1, 67, 0
3, 57000, Note_on_c, 1, 65, 90
3, 57059, Note_on_c, 1, 65, 0
3, 57060, Note_on_c, 1, 64, 90
3, 57119, Note_on_c, 1, 64, 0
3, 57120, Note_on_c, 1, 60, 90
3, 57239, Note_on_c, 1, 60, 0
3, 57240, Note_on_c, 1, 67, 90
3, 57359, Note_on_c, 1, 67, 0
3, 57360, Note_on_c, 1, 64, 90
3, 57479, Note_on_c, 1, 64, 0
3, 57480, Note_on_c, 1, 70, 90
3, 57599, Note_on_c, 1, 70, 0
3, 57600, Note_on_c, 1, 67, 90
3, 57719, Note_on_c, 1, 67, 0
3, 57720, Note_on_c, 1, 76, 90
3, 57779, Note_on_c, 1, 76, 0
3, 57780, Note_on_c, 1, 77, 90
3, 57809, Note_on_c, 1, 77, 0
3, 57810, Note_on_c, 1, 79, 90
3, 57839, Note_on_c, 1, 79, 0
3, 57840, Note_on_c, 1, 77, 90
3, 57869, Note_on_c, 1, 77, 0
3, 57870, Note_on_c, 1, 76, 90
3, 57929, Note_on_c, 1, 76, 0
3, 57930, Note_on_c, 1, 74, 90
3, 57944, Note_on_c, 1, 74, 0
3, 57945, Note_on_c, 1, 72, 90
3, 57959, Note_on_c, 1, 72, 0
3, 57960, Note_on_c, 1, 72, 90
3, 58199, Note_on_c, 1, 72, 0
3, 58200, Note_on_c, 1, 70, 90
3, 58214, Note_on_c, 1, 70, 0
3, 58215, Note_on_c, 1, 72, 90
3, 58229, Note_on_c, 1, 72, 0
3, 58230, Note_on_c, 1, 70, 90
3, 58259, Note_on_c, 1, 70, 0
3, 58260, Note_on_c, 1, 69, 90
3, 58319, Note_on_c, 1, 69, 0
3, 58320, Note_on_c, 1, 70, 90
3, 58439, Note_on_c, 1, 70, 0
3, 58440, Note_on_c, 1, 70, 90
3, 58499, Note_on_c, 1, 70, 0
3, 58500, Note_on_c, 1, 69, 90
3, 58800, Note_on_c, 1, 69, 0
3, 58800, Note_on_c, 1, 70, 90
3, 58919, Note_on_c, 1, 70, 0
3, 58920, Note_on_c, 1, 70, 90
3, 58979, Note_on_c, 1, 70, 0
3, 58980, Note_on_c, 1, 72, 90
3, 59159, Note_on_c, 1, 72, 0
3, 59160, Note_on_c, 1, 62, 90
3, 59399, Note_on_c, 1, 62, 0
3, 59400, Note_on_c, 1, 67, 90
3, 59519, Note_on_c, 1, 67, 0
3, 59520, Note_on_c, 1, 70, 90
3, 59579, Note_on_c, 1, 70, 0
3, 59580, Note_on_c, 1, 69, 90
3, 59639, Note_on_c, 1, 69, 0
3, 59640, Note_on_c, 1, 70, 90
3, 59759, Note_on_c, 1, 70, 0
3, 59760, Note_on_c, 1, 67, 90
3, 59879, Note_on_c, 1, 67, 0
3, 59880, Note_on_c, 1, 65, 90
3, 59909, Note_on_c, 1, 65, 0
3, 59910, Note_on_c, 1, 64, 90
3, 59999, Note_on_c, 1, 64, 0
3, 60000, Note_on_c, 1, 62, 90
3, 60059, Note_on_c, 1, 62, 0
3, 60060, Note_on_c, 1, 60, 90
3, 60119, Note_on_c, 1, 60, 0
3, 60120, Note_on_c, 1, 68, 90
3, 60630, Note_on_c, 1, 68, 0
3, 60630, Note_on_c, 1, 67, 90
3, 60659, Note_on_c, 1, 67, 0
3, 60660, Note_on_c, 1, 65, 90
3, 60689, Note_on_c, 1, 65, 0
3, 60690, Note_on_c, 1, 64, 90
3, 60719, Note_on_c, 1, 64, 0
3, 60720, Note_on_c, 1, 65, 90
3, 60809, Note_on_c, 1, 65, 0
3, 60810, Note_on_c, 1, 73, 90
3, 60824, Note_on_c, 1, 73, 0
3, 60825, Note_on_c, 1, 72, 90
3, 60839, Note_on_c, 1, 72, 0
3, 60840, Note_on_c, 1, 65, 90
3, 60989, Note_on_c, 1, 65, 0
3, 60990, Note_on_c, 1, 64, 90
3, 61019, Note_on_c, 1, 64, 0
3, 61020, Note_on_c, 1, 62, 90
3, 61049, Note_on_c, 1, 62, 0
3, 61050, Note_on_c, 1, 64, 90
3, 61079, Note_on_c, 1, 64, 0
3, 61080, Note_on_c, 1, 65, 90
3, 61100, Note_on_c, 1, 65, 0
3, 61100, Note_on_c, 1, 64, 90
3, 61120, Note_on_c, 1, 64, 0
3, 61120, Note_on_c, 1, 65, 90
3, 61140, Note_on_c, 1, 65, 0
3, 61140, Note_on_c, 1, 64, 90
3, 61155, Note_on_c, 1, 64, 0
3, 61155, Note_on_c, 1, 65, 90
3, 61170, Note_on_c, 1, 65, 0
3, 61170, Note_on_c, 1, 64, 90
3, 61185, Note_on_c, 1, 64, 0
3, 61185, Note_on_c, 1, 65, 90
3, 61200, Note_on_c, 1, 65, 0
3, 61200, Note_on_c, 1, 64, 90
3, 61209, Note_on_c, 1, 64, 0
3, 61210, Note_on_c, 1, 65, 90
3, 61219, Note_on_c, 1, 65, 0
3, 61220, Note_on_c, 1, 64, 90
3, 61229, Note_on_c, 1, 64, 0
3, 61230, Note_on_c, 1, 65, 90
3, 61237, Note_on_c, 1, 64, 90
3, 61239, Note_on_c, 1, 65, 0
3, 61252, Note_on_c, 1, 64, 0
3, 61260, Note_on_c, 1, 65, 90
3, 61319, Note_on_c, 1, 65, 0
3, 61320, Note_on_c, 1, 65, 90
3, 62039, Note_on_c, 1, 65, 0
3, 62280, Note_on_c, 1, 70, 90
3, 62519, Note_on_c, 1, 70, 0
3, 62520, Note_on_c, 1, 72, 90
3, 62535, Note_on_c, 1, 72, 0
3, 62535, Note_on_c, 1, 70, 90
3, 62550, Note_on_c, 1, 70, 0
3, 62550, Note_on_c, 1, 72, 90
3, 62640, Note_on_c, 1, 72, 0
3, 62640, Note_on_c, 1, 74, 90
3, 62759, Note_on_c, 1, 74, 0
3, 62760, Note_on_c, 1, 70, 90
3, 62819, Note_on_c, 1, 70, 0
3, 62820, Note_on_c, 1, 69, 90
3, 62999, Note_on_c, 1, 69, 0
3, 63000, Note_on_c, 1, 75, 90
3, 63239, Note_on_c, 1, 75, 0
3, 63240, Note_on_c, 1, 74, 90
3, 63299, Note_on_c, 1, 74, 0
3, 63300, Note_on_c, 1, 72, 90
3, 63479, Note_on_c, 1, 72, 0
3, 63480, Note_on_c, 1, 70, 90
3, 63539, Note_on_c, 1, 70, 0
3, 63540, Note_on_c, 1, 69, 90
3, 63599, Note_on_c, 1, 69, 0
3, 63600, Note_on_c, 1, 67, 90
3, 63659, Note_on_c, 1, 67, 0
3, 63660, Note_on_c, 1, 65, 90
3, 63719, Note_on_c, 1, 65, 0
3, 63720, Note_on_c, 1, 65, 90
3, 63959, Note_on_c, 1, 65, 0
3, 63960, Note_on_c, 1, 63, 90
3, 63975, Note_on_c, 1, 63, 0
3, 63975, Note_on_c, 1, 65, 90
3, 63990, Note_on_c, 1, 65, 0
3, 63990, Note_on_c, 1, 63, 90
3, 64020, Note_on_c, 1, 63, 0
3, 64020, Note_on_c, 1, 62, 90
3, 64079, Note_on_c, 1, 62, 0
3, 64080, Note_on_c, 1, 63, 90
3, 64199, Note_on_c, 1, 63, 0
3, 64200, Note_on_c, 1, 62, 90
3, 64559, Note_on_c, 1, 62, 0
3, 64560, Note_on_c, 1, 60, 90
3, 64679, Note_on_c, 1, 60, 0
3, 64680, Note_on_c, 1, 58, 90
3, 64919, Note_on_c, 1, 58, 0
3, 64920, Note_on_c, 1, 74, 90
3, 65159, Note_on_c, 1, 74, 0
3, 65160, Note_on_c, 1, 72, 90
3, 65219, Note_on_c, 1, 72, 0
3, 65220, Note_on_c, 1, 70, 90
3, 65399, Note_on_c, 1, 70, 0
3, 65400, Note_on_c, 1, 69, 90
3, 65459, Note_on_c, 1, 69, 0
3, 65460, Note_on_c, 1, 67, 90
3, 65639, Note_on_c, 1, 67, 0
3, 65640, Note_on_c, 1, 65, 90
3, 65699, Note_on_c, 1, 65, 0
3, 65700, Note_on_c, 1, 64, 90
3, 65759, Note_on_c, 1, 64, 0
3, 65760, Note_on_c, 1, 60, 90
3, 65879, Note_on_c, 1, 60, 0
3, 65880, Note_on_c, 1, 67, 90
3, 65999, Note_on_c, 1, 67, 0
3, 66000, Note_on_c, 1, 64, 90
3, 66119, Note_on_c, 1, 64, 0
3, 66120, Note_on_c, 1, 70, 90
3, 66239, Note_on_c, 1, 70, 0
3, 66240, Note_on_c, 1, 67, 90
3, 66359, Note_on_c, 1, 67, 0
3, 66360, Note_on_c, 1, 76, 90
3, 66419, Note_on_c, 1, 76, 0
3, 66420, Note_on_c, 1, 77, 90
3, 66449, Note_on_c, 1, 77, 0
3, 66450, Note_on_c, 1, 79, 90
3, 66479, Note_on_c, 1, 79, 0
3, 66480, Note_on_c, 1, 77, 90
3, 66509, Note_on_c, 1, 77, 0
3, 66510, Note_on_c, 1, 76, 90
3, 66569, Note_on_c, 1, 76, 0
3, 66570, Note_on_c, 1, 74, 90
3, 66584, Note_on_c, 1, 74, 0
3, 66585, Note_on_c, 1, 72, 90
3, 66599, Note_on_c, 1, 72, 0
3, 66600, Note_on_c, 1, 72, 90
3, 66839, Note_on_c, 1, 72, 0
3, 66840, Note_on_c, 1, 70, 90
3, 66854, Note_on_c, 1, 70, 0
3, 66855, Note_on_c, 1, 72, 90
3, 66869, Note_on_c, 1, 72, 0
3, 66870, Note_on_c, 1, 70, 90
3, 66899, Note_on_c, 1, 70, 0
3, 66900, Note_on_c, 1, 69, 90
3, 66959, Note_on_c, 1, 69, 0
3, 66960, Note_on_c, 1, 70, 90
3, 67079, Note_on_c, 1, 70, 0
3, 67080, Note_on_c, 1, 70, 90
3, 67139, Note_on_c, 1, 70, 0
3, 67140, Note_on_c, 1, 69, 90
3, 67440, Note_on_c, 1, 69, 0
3, 67440, Note_on_c, 1, 70, 90
3, 67559, Note_on_c, 1, 70, 0
3, 67560, Note_on_c, 1, 70, 90
3, 67619, Note_on_c, 1, 70, 0
3, 67620, Note_on_c, 1, 72, 90
3, 67799, Note_on_c, 1, 72, 0
3, 67800, Note_on_c, 1, 62, 90
3, 68039, Note_on_c, 1, 62, 0
3, 68040, Note_on_c, 1, 67, 90
3, 68159, Note_on_c, 1, 67, 0
3, 68160, Note_on_c, 1, 70, 90
3, 68219, Note_on_c, 1, 70, 0
3, 68220, Note_on_c, 1, 69, 90
3, 68279, Note_on_c, 1, 69, 0
3, 68280, Note_on_c, 1, 70, 90
3, 68399, Note_on_c, 1, 70, 0
3, 68400, Note_on_c, 1, 67, 90
3, 68519, Note_on_c, 1, 67, 0
3, 68520, Note_on_c, 1, 65, 90
3, 68549, Note_on_c, 1, 65, 0
3, 68550, Note_on_c, 1, 64, 90
3, 68639, Note_on_c, 1, 64, 0
3, 68640, Note_on_c, 1, 62, 90
3, 68699, Note_on_c, 1, 62, 0
3, 68700, Note_on_c, 1, 60, 90
3, 68759, Note_on_c, 1, 60, 0
3, 68760, Note_on_c, 1, 68, 90
3, 69270, Note_on_c, 1, 68, 0
3, 69270, Note_on_c, 1, 67, 90
3, 69299, Note_on_c, 1, 67, 0
3, 69300, Note_on_c, 1, 65, 90
3, 69329, Note_on_c, 1, 65, 0
3, 69330, Note_on_c, 1, 64, 90
3, 69359, Note_on_c, 1, 64, 0
3, 69360, Note_on_c, 1, 65, 90
3, 69449, Note_on_c, 1, 65, 0
3, 69450, Note_on_c, 1, 73, 90
3, 69464, Note_on_c, 1, 73, 0
3, 69465, Note_on_c, 1, 72, 90
3, 69479, Note_on_c, 1, 72, 0
3, 69480, Note_on_c, 1, 65, 90
3, 69629, Note_on_c, 1, 65, 0
3, 69630, Note_on_c, 1, 64, 90
3, 69659, Note_on_c, 1, 64, 0
3, 69660, Note_on_c, 1, 62, 90
3, 69689, Note_on_c, 1, 62, 0
3, 69690, Note_on_c, 1, 64, 90
3, 69719, Note_on_c, 1, 64, 0
3, 69720, Note_on_c, 1, 65, 90
3, 69740, Note_on_c, 1, 65, 0
3, 69740, Note_on_c, 1, 64, 90
3, 69760, Note_on_c, 1, 64, 0
3, 69760, Note_on_c, 1, 65, 90
3, 69780, Note_on_c, 1, 65, 0
3, 69780, Note_on_c, 1, 64, 90
3, 69795, Note_on_c, 1, 64, 0
3, 69795, Note_on_c, 1, 65, 90
3, 69810, Note_on_c, 1, 65, 0
3, 69810, Note_on_c, 1, 64, 90
3, 69825, Note_on_c, 1, 64, 0
3, 69825, Note_on_c, 1, 65, 90
3, 69840, Note_on_c, 1, 65, 0
3, 69840, Note_on_c, 1, 64, 90
3, 69849, Note_on_c, 1, 64, 0
3, 69850, Note_on_c, 1, 65, 90
3, 69859, Note_on_c, 1, 65, 0
3, 69860, Note_on_c, 1, 64, 90
3, 69869, Note_on_c, 1, 64, 0
3, 69870, Note_on_c, 1, 65, 90
3, 69877, Note_on_c, 1, 64, 90
3, 69879, Note_on_c, 1, 65, 0
3, 69892, Note_on_c, 1, 64, 0
3, 69900, Note_on_c, 1, 65, 90
3, 69959, Note_on_c, 1, 65, 0
3, 69960, Note_on_c, 1, 65, 90
3, 70679, Note_on_c, 1, 65, 0
3, 70680, Note_on_c, 1, 77, 100
3, 70695, Note_on_c, 1, 77, 0
3, 70695, Note_on_c, 1, 75, 100
3, 70710, Note_on_c, 1, 75, 0
3, 70710, Note_on_c, 1, 77, 100
3, 71460, Note_on_c, 1, 77, 0
3, 71460, Note_on_c, 1, 68, 90
3, 71519, Note_on_c, 1, 68, 0
3, 71520, Note_on_c, 1, 67, 90
3, 71579, Note_on_c, 1, 67, 0
3, 71580, Note_on_c, 1, 65, 90
3, 71639, Note_on_c, 1, 65, 0
3, 71640, Note_on_c, 1, 67, 90
3, 71699, Note_on_c, 1, 67, 0
3, 71700, Note_on_c, 1, 71, 90
3, 71759, Note_on_c, 1, 71, 0
3, 71760, Note_on_c, 1, 74, 90
3, 71819, Note_on_c, 1, 74, 0
3, 71820, Note_on_c, 1, 75, 90
3, 71879, Note_on_c, 1, 75, 0
3, 71880, Note_on_c, 1, 77, 90
3, 71939, Note_on_c, 1, 77, 0
3, 71940, Note_on_c, 1, 74, 90
3, 71999, Note_on_c, 1, 74, 0
3, 72000, Note_on_c, 1, 77, 90
3, 72059, Note_on_c, 1, 77, 0
3, 72060, Note_on_c, 1, 79, 90
3, 72119, Note_on_c, 1, 79, 0
3, 72120, Note_on_c, 1, 80, 90
3, 72179, Note_on_c, 1, 80, 0
3, 72180, Note_on_c, 1, 77, 90
3, 72239, Note_on_c, 1, 77, 0
3, 72240, Note_on_c, 1, 83, 90
3, 72299, Note_on_c, 1, 83, 0
3, 72300, Note_on_c, 1, 84, 90
3, 72359, Note_on_c, 1, 84, 0
3, 72360, Note_on_c, 1, 86, 90
3, 72900, Note_on_c, 1, 86, 0
3, 72900, Note_on_c, 1, 84, 90
3, 72959, Note_on_c, 1, 84, 0
3, 72960, Note_on_c, 1, 83, 90
3, 73019, Note_on_c, 1, 83, 0
3, 73020, Note_on_c, 1, 86, 90
3, 73079, Note_on_c, 1, 86, 0
3, 73080, Note_on_c, 1, 84, 90
3, 73139, Note_on_c, 1, 84, 0
3, 73140, Note_on_c, 1, 81, 90
3, 73199, Note_on_c, 1, 81, 0
3, 73200, Note_on_c, 1, 79, 90
3, 73259, Note_on_c, 1, 79, 0
3, 73260, Note_on_c, 1, 77, 90
3, 73319, Note_on_c, 1, 77, 0
3, 73320, Note_on_c, 1, 75, 90
3, 73379, Note_on_c, 1, 75, 0
3, 73380, Note_on_c, 1, 74, 90
3, 73439, Note_on_c, 1, 74, 0
3, 73440, Note_on_c, 1, 72, 90
3, 73499, Note_on_c, 1, 72, 0
3, 73500, Note_on_c, 1, 70, 90
3, 73559, Note_on_c, 1, 70, 0
3, 73560, Note_on_c, 1, 69, 90
3, 73679, Note_on_c, 1, 69, 0
3, 73680, Note_on_c, 1, 72, 90
3, 73739, Note_on_c, 1, 72, 0
3, 73740, Note_on_c, 1, 70, 90
3, 73799, Note_on_c, 1, 70, 0
3, 73800, Note_on_c, 1, 70, 90
3, 73829, Note_on_c, 1, 70, 0
3, 73830, Note_on_c, 1, 72, 90
3, 74069, Note_on_c, 1, 72, 0
3, 74070, Note_on_c, 1, 70, 90
3, 74099, Note_on_c, 1, 70, 0
3, 74100, Note_on_c, 1, 69, 90
3, 74129, Note_on_c, 1, 69, 0
3, 74130, Note_on_c, 1, 70, 90
3, 74159, Note_on_c, 1, 70, 0
3, 74160, Note_on_c, 1, 72, 90
3, 74189, Note_on_c, 1, 72, 0
3, 74190, Note_on_c, 1, 74, 90
3, 74219, Note_on_c, 1, 74, 0
3, 74220, Note_on_c, 1, 76, 90
3, 74249, Note_on_c, 1, 76, 0
3, 74250, Note_on_c, 1, 78, 90
3, 74279, Note_on_c, 1, 78, 0
3, 74280, Note_on_c, 1, 79, 90
3, 74399, Note_on_c, 1, 79, 0
3, 74400, Note_on_c, 1, 78, 90
3, 74639, Note_on_c, 1, 78, 0
3, 74640, Note_on_c, 1, 81, 90
3, 74699, Note_on_c, 1, 81, 0
3, 74700, Note_on_c, 1, 79, 90
3, 74759, Note_on_c, 1, 79, 0
3, 74760, Note_on_c, 1, 79, 90
3, 74819, Note_on_c, 1, 79, 0
3, 74820, Note_on_c, 1, 81, 90
3, 75059, Note_on_c, 1, 81, 0
3, 75060, Note_on_c, 1, 79, 90
3, 75119, Note_on_c, 1, 79, 0
3, 75120, Note_on_c, 1, 84, 90
3, 75239, Note_on_c, 1, 84, 0
3, 75240, Note_on_c, 1, 82, 90
3, 75269, Note_on_c, 1, 82, 0
3, 75270, Note_on_c, 1, 81, 90
3, 75285, Note_on_c, 1, 81, 0
3, 75285, Note_on_c, 1, 82, 90
3, 75300, Note_on_c, 1, 82, 0
3, 75300, Note_on_c, 1, 81, 90
3, 75315, Note_on_c, 1, 81, 0
3, 75315, Note_on_c, 1, 82, 90
3, 75330, Note_on_c, 1, 82, 0
3, 75330, Note_on_c, 1, 81, 90
3, 75345, Note_on_c, 1, 81, 0
3, 75345, Note_on_c, 1, 82, 90
3, 75360, Note_on_c, 1, 82, 0
3, 75360, Note_on_c, 1, 81, 90
3, 75369, Note_on_c, 1, 81, 0
3, 75370, Note_on_c, 1, 82, 90
3, 75379, Note_on_c, 1, 82, 0
3, 75380, Note_on_c, 1, 81, 90
3, 75389, Note_on_c, 1, 81, 0
3, 75390, Note_on_c, 1, 82, 90
3, 75399, Note_on_c, 1, 82, 0
3, 75400, Note_on_c, 1, 81, 90
3, 75409, Note_on_c, 1, 81, 0
3, 75410, Note_on_c, 1, 82, 90
3, 75419, Note_on_c, 1, 82, 0
3, 75420, Note_on_c, 1, 81, 90
3, 75429, Note_on_c, 1, 81, 0
3, 75430, Note_on_c, 1, 82, 90
3, 75439, Note_on_c, 1, 82, 0
3, 75440, Note_on_c, 1, 81, 90
3, 75449, Note_on_c, 1, 81, 0
3, 75450, Note_on_c, 1, 82, 90
3, 75459, Note_on_c, 1, 82, 0
3, 75460, Note_on_c, 1, 81, 90
3, 75469, Note_on_c, 1, 81, 0
3, 75470, Note_on_c, 1, 82, 90
3, 75479, Note_on_c, 1, 82, 0
3, 75480, Note_on_c, 1, 81, 90
3, 75489, Note_on_c, 1, 81, 0
3, 75490, Note_on_c, 1, 82, 90
3, 75499, Note_on_c, 1, 82, 0
3, 75500, Note_on_c, 1, 81, 90
3, 75509, Note_on_c, 1, 81, 0
3, 75510, Note_on_c, 1, 82, 90
3, 75519, Note_on_c, 1, 82, 0
3, 75520, Note_on_c, 1, 81, 90
3, 75529, Note_on_c, 1, 81, 0
3, 75530, Note_on_c, 1, 82, 90
3, 75539, Note_on_c, 1, 82, 0
3, 75540, Note_on_c, 1, 81, 90
3, 75549, Note_on_c, 1, 81, 0
3, 75550, Note_on_c, 1, 82, 90
3, 75559, Note_on_c, 1, 82, 0
3, 75560, Note_on_c, 1, 81, 90
3, 75569, Note_on_c, 1, 81, 0
3, 75570, Note_on_c, 1, 82, 90
3, 75579, Note_on_c, 1, 82, 0
3, 75580, Note_on_c, 1, 81, 90
3, 75589, Note_on_c, 1, 81, 0
3, 75590, Note_on_c, 1, 82, 90
3, 75599, Note_on_c, 1, 82, 0
3, 75600, Note_on_c, 1, 79, 90
3, 75720, Note_on_c, 1, 79, 0
3, 75720, Note_on_c, 1, 79, 90
3, 76440, Note_on_c, 1, 79, 0
3, 77400, Note_on_c, 1, 70, 90
3, 77519, Note_on_c, 1, 70, 0
3, 77520, Note_on_c, 1, 72, 90
3, 77639, Note_on_c, 1, 72, 0
3, 77640, Note_on_c, 1, 72, 90
3, 77699, Note_on_c, 1, 72, 0
3, 77700, Note_on_c, 1, 74, 90
3, 77714, Note_on_c, 1, 74, 0
3, 77715, Note_on_c, 1, 72, 90
3, 77729, Note_on_c, 1, 72, 0
3, 77730, Note_on_c, 1, 70, 90
3, 77744, Note_on_c, 1, 70, 0
3, 77745, Note_on_c, 1, 72, 90
3, 77759, Note_on_c, 1, 72, 0
3, 77760, Note_on_c, 1, 74, 90
3, 77879, Note_on_c, 1, 74, 0
3, 77880, Note_on_c, 1, 67, 90
3, 77999, Note_on_c, 1, 67, 0
3, 78000, Note_on_c, 1, 79, 90
3, 78119, Note_on_c, 1, 79, 0
3, 78120, Note_on_c, 1, 77, 90
3, 78149, Note_on_c, 1, 77, 0
3, 78150, Note_on_c, 1, 76, 90
3, 78169, Note_on_c, 1, 76, 0
3, 78170, Note_on_c, 1, 77, 90
3, 78189, Note_on_c, 1, 77, 0
3, 78190, Note_on_c, 1, 76, 90
3, 78209, Note_on_c, 1, 76, 0
3, 78210, Note_on_c, 1, 77, 90
3, 78224, Note_on_c, 1, 77, 0
3, 78225, Note_on_c, 1, 76, 90
3, 78239, Note_on_c, 1, 76, 0
3, 78240, Note_on_c, 1, 77, 90
3, 78254, Note_on_c, 1, 77, 0
3, 78255, Note_on_c, 1, 76, 90
3, 78269, Note_on_c, 1, 76, 0
3, 78270, Note_on_c, 1, 77, 90
3, 78279, Note_on_c, 1, 77, 0
3, 78280, Note_on_c, 1, 76, 90
3, 78289, Note_on_c, 1, 76, 0
3, 78290, Note_on_c, 1, 77, 90
3, 78299, Note_on_c, 1, 77, 0
3, 78300, Note_on_c, 1, 76, 90
3, 78309, Note_on_c, 1, 76, 0
3, 78310, Note_on_c, 1, 77, 90
3, 78319, Note_on_c, 1, 77, 0
3, 78320, Note_on_c, 1, 76, 90
3, 78329, Note_on_c, 1, 76, 0
3, 78330, Note_on_c, 1, 77, 90
3, 78339, Note_on_c, 1, 77, 0
3, 78340, Note_on_c, 1, 76, 90
3, 78349, Note_on_c, 1, 76, 0
3, 78350, Note_on_c, 1, 77, 90
3, 78359, Note_on_c, 1, 77, 0
3, 78360, Note_on_c, 1, 76, 90
3, 78369, Note_on_c, 1, 76, 0
3, 78370, Note_on_c, 1, 77, 90
3, 78379, Note_on_c, 1, 77, 0
3, 78380, Note_on_c, 1, 76, 90
3, 78389, Note_on_c, 1, 76, 0
3, 78390, Note_on_c, 1, 77, 90
3, 78399, Note_on_c, 1, 77, 0
3, 78400, Note_on_c, 1, 76, 90
3, 78409, Note_on_c, 1, 76, 0
3, 78410, Note_on_c, 1, 77, 90
3, 78419, Note_on_c, 1, 77, 0
3, 78420, Note_on_c, 1, 76, 90
3, 78429, Note_on_c, 1, 76, 0
3, 78430, Note_on_c, 1, 77, 90
3, 78439, Note_on_c, 1, 77, 0
3, 78440, Note_on_c, 1, 76, 90
3, 78449, Note_on_c, 1, 76, 0
3, 78450, Note_on_c, 1, 77, 90
3, 78465, Note_on_c, 1, 77, 0
3, 78465, Note_on_c, 1, 76, 90
3, 78480, Note_on_c, 1, 76, 0
3, 78480, Note_on_c, 1, 77, 90
3, 78599, Note_on_c, 1, 77, 0
3, 78600, Note_on_c, 1, 77, 90
3, 78659, Note_on_c, 1, 77, 0
3, 78660, Note_on_c, 1, 72, 90
3, 78719, Note_on_c, 1, 72, 0
3, 78720, Note_on_c, 1, 75, 90
3, 78779, Note_on_c, 1, 75, 0
3, 78780, Note_on_c, 1, 74, 90
3, 78839, Note_on_c, 1, 74, 0
3, 78840, Note_on_c, 1, 72, 90
3, 78899, Note_on_c, 1, 72, 0
3, 78900, Note_on_c, 1, 70, 90
3, 78959, Note_on_c, 1, 70, 0
3, 78960, Note_on_c, 1, 69, 90
3, 79019, Note_on_c, 1, 69, 0
3, 79020, Note_on_c, 1, 70, 90
3, 79079, Note_on_c, 1, 70, 0
3, 79080, Note_on_c, 1, 72, 90
3, 79139, Note_on_c, 1, 72, 0
3, 79140, Note_on_c, 1, 69, 90
3, 79199, Note_on_c, 1, 69, 0
3, 79200, Note_on_c, 1, 67, 90
3, 79259, Note_on_c, 1, 67, 0
3, 79260, Note_on_c, 1, 65, 90
3, 79319, Note_on_c, 1, 65, 0
3, 79320, Note_on_c, 1, 70, 90
3, 79379, Note_on_c, 1, 70, 0
3, 79380, Note_on_c, 1, 72, 90
3, 79439, Note_on_c, 1, 72, 0
3, 79440, Note_on_c, 1, 70, 90
3, 79499, Note_on_c, 1, 70, 0
3, 79500, Note_on_c, 1, 72, 90
3, 79559, Note_on_c, 1, 72, 0
3, 79560, Note_on_c, 1, 74, 90
3, 79574, Note_on_c, 1, 74, 0
3, 79575, Note_on_c, 1, 72, 90
3, 79589, Note_on_c, 1, 72, 0
3, 79590, Note_on_c, 1, 74, 90
3, 79599, Note_on_c, 1, 74, 0
3, 79600, Note_on_c, 1, 72, 90
3, 79609, Note_on_c, 1, 72, 0
3, 79610, Note_on_c, 1, 74, 90
3, 79619, Note_on_c, 1, 74, 0
3, 79620, Note_on_c, 1, 72, 90
3, 79629, Note_on_c, 1, 72, 0
3, 79630, Note_on_c, 1, 74, 90
3, 79639, Note_on_c, 1, 74, 0
3, 79640, Note_on_c, 1, 72, 90
3, 79649, Note_on_c, 1, 72, 0
3, 79650, Note_on_c, 1, 74, 90
3, 79659, Note_on_c, 1, 74, 0
3, 79660, Note_on_c, 1, 72, 90
3, 79669, Note_on_c, 1, 72, 0
3, 79670, Note_on_c, 1, 74, 90
3, 79679, Note_on_c, 1, 74, 0
3, 79680, Note_on_c, 1, 72, 90
3, 79689, Note_on_c, 1, 72, 0
3, 79690, Note_on_c, 1, 74, 90
3, 79699, Note_on_c, 1, 74, 0
3, 79700, Note_on_c, 1, 72, 90
3, 79709, Note_on_c, 1, 72, 0
3, 79710, Note_on_c, 1, 74, 90
3, 79719, Note_on_c, 1, 74, 0
3, 79720, Note_on_c, 1, 72, 90
3, 79729, Note_on_c, 1, 72, 0
3, 79730, Note_on_c, 1, 74, 90
3, 79739, Note_on_c, 1, 74, 0
3, 79740, Note_on_c, 1, 72, 90
3, 79749, Note_on_c, 1, 72, 0
3, 79750, Note_on_c, 1, 74, 90
3, 79768, Note_on_c, 1, 74, 0
3, 79770, Note_on_c, 1, 70, 90
3, 79785, Note_on_c, 1, 70, 0
3, 79785, Note_on_c, 1, 72, 90
3, 79800, Note_on_c, 1, 72, 0
3, 79800, Note_on_c, 1, 74, 90
3, 79860, Note_on_c, 1, 74, 0
3, 79860, Note_on_c, 1, 72, 90
3, 79920, Note_on_c, 1, 72, 0
3, 79920, Note_on_c, 1, 70, 90
3, 79980, Note_on_c, 1, 70, 0
3, 79980, Note_on_c, 1, 72, 90
3, 80010, Note_on_c, 1, 72, 0
3, 80010, Note_on_c, 1, 74, 90
3, 80040, Note_on_c, 1, 74, 0
3, 80040, Note_on_c, 1, 67, 90
3, 81060, Note_on_c, 1, 67, 0
3, 81060, Note_on_c, 1, 65, 90
3, 81119, Note_on_c, 1, 65, 0
3, 81120, Note_on_c, 1, 63, 90
3, 81179, Note_on_c, 1, 63, 0
3, 81180, Note_on_c, 1, 62, 90
3, 81239, Note_on_c, 1, 62, 0
3, 81240, Note_on_c, 1, 60, 90
3, 81299, Note_on_c, 1, 60, 0
3, 81300, Note_on_c, 1, 58, 90
3, 81359, Note_on_c, 1, 58, 0
3, 81360, Note_on_c, 1, 57, 90
3, 81419, Note_on_c, 1, 57, 0
3, 81420, Note_on_c, 1, 55, 90
3, 81479, Note_on_c, 1, 55, 0
3, 81480, Note_on_c, 1, 53, 90
3, 81539, Note_on_c, 1, 53, 0
3, 81540, Note_on_c, 1, 65, 90
3, 81599, Note_on_c, 1, 65, 0
3, 81600, Note_on_c, 1, 72, 90
3, 81659, Note_on_c, 1, 72, 0
3, 81660, Note_on_c, 1, 75, 90
3, 81719, Note_on_c, 1, 75, 0
3, 81720, Note_on_c, 1, 73, 90
3, 82199, Note_on_c, 1, 73, 0
3, 82230, Note_on_c, 1, 72, 90
3, 82259, Note_on_c, 1, 72, 0
3, 82260, Note_on_c, 1, 70, 90
3, 82289, Note_on_c, 1, 70, 0
3, 82290, Note_on_c, 1, 69, 90
3, 82319, Note_on_c, 1, 69, 0
3, 82320, Note_on_c, 1, 70, 90
3, 82349, Note_on_c, 1, 70, 0
3, 82350, Note_on_c, 1, 66, 90
3, 82379, Note_on_c, 1, 66, 0
3, 82380, Note_on_c, 1, 65, 90
3, 82409, Note_on_c, 1, 65, 0
3, 82410, Note_on_c, 1, 64, 90
3, 82439, Note_on_c, 1, 64, 0
3, 82440, Note_on_c, 1, 65, 90
3, 82619, Note_on_c, 1, 65, 0
3, 82620, Note_on_c, 1, 67, 90
3, 82649, Note_on_c, 1, 67, 0
3, 82650, Note_on_c, 1, 69, 90
3, 82679, Note_on_c, 1, 69, 0
3, 82680, Note_on_c, 1, 70, 90
3, 82694, Note_on_c, 1, 70, 0
3, 82695, Note_on_c, 1, 69, 90
3, 82709, Note_on_c, 1, 69, 0
3, 82710, Note_on_c, 1, 70, 90
3, 82724, Note_on_c, 1, 70, 0
3, 82725, Note_on_c, 1, 69, 90
3, 82739, Note_on_c, 1, 69, 0
3, 82740, Note_on_c, 1, 70, 90
3, 82749, Note_on_c, 1, 70, 0
3, 82750, Note_on_c, 1, 69, 90
3, 82759, Note_on_c, 1, 69, 0
3, 82760, Note_on_c, 1, 70, 90
3, 82769, Note_on_c, 1, 70, 0
3, 82770, Note_on_c, 1, 69, 90
3, 82779, Note_on_c, 1, 69, 0
3, 82780, Note_on_c, 1, 70, 90
3, 82789, Note_on_c, 1, 70, 0
3, 82790, Note_on_c, 1, 69, 90
3, 82799, Note_on_c, 1, 69, 0
3, 82800, Note_on_c, 1, 70, 90
3, 82809, Note_on_c, 1, 70, 0
3, 82810, Note_on_c, 1, 69, 90
3, 82819, Note_on_c, 1, 69, 0
3, 82820, Note_on_c, 1, 70, 90
3, 82829, Note_on_c, 1, 70, 0
3, 82830, Note_on_c, 1, 69, 90
3, 82839, Note_on_c, 1, 69, 0
3, 82840, Note_on_c, 1, 70, 90
3, 82849, Note_on_c, 1, 70, 0
3, 82850, Note_on_c, 1, 69, 90
3, 82859, Note_on_c, 1, 69, 0
3, 82860, Note_on_c, 1, 70, 90
3, 82869, Note_on_c, 1, 70, 0
3, 82870, Note_on_c, 1, 69, 90
3, 82879, Note_on_c, 1, 69, 0
3, 82880, Note_on_c, 1, 70, 90
3, 82889, Note_on_c, 1, 70, 0
3, 82890, Note_on_c, 1, 69, 90
3, 82899, Note_on_c, 1, 69, 0
3, 82900, Note_on_c, 1, 67, 90
3, 82909, Note_on_c, 1, 67, 0
3, 82910, Note_on_c, 1, 69, 90
3, 82919, Note_on_c, 1, 69, 0
3, 82920, Note_on_c, 1, 70, 90
3, 83399, Note_on_c, 1, 70, 0
3, 83640, Note_on_c, 1, 77, 100
3, 83655, Note_on_c, 1, 77, 0
3, 83655, Note_on_c, 1, 75, 100
3, 83670, Note_on_c, 1, 75, 0
3, 83670, Note_on_c, 1, 77, 100
3, 84420, Note_on_c, 1, 77, 0
3, 84420, Note_on_c, 1, 68, 90
3, 84479, Note_on_c, 1, 68, 0
3, 84480, Note_on_c, 1, 67, 90
3, 84539, Note_on_c, 1, 67, 0
3, 84540, Note_on_c, 1, 65, 90
3, 84599, Note_on_c, 1, 65, 0
3, 84600, Note_on_c, 1, 67, 90
3, 84659, Note_on_c, 1, 67, 0
3, 84660, Note_on_c, 1, 71, 90
3, 84719, Note_on_c, 1, 71, 0
3, 84720, Note_on_c, 1, 74, 90
3, 84779, Note_on_c, 1, 74, 0
3, 84780, Note_on_c, 1, 75, 90
3, 84839, Note_on_c, 1, 75, 0
3, 84840, Note_on_c, 1, 77, 90
3, 84899, Note_on_c, 1, 77, 0
3, 84900, Note_on_c, 1, 74, 90
3, 84959, Note_on_c, 1, 74, 0
3, 84960, Note_on_c, 1, 77, 90
3, 85019, Note_on_c, 1, 77, 0
3, 85020, Note_on_c, 1, 79, 90
3, 85079, Note_on_c, 1, 79, 0
3, 85080, Note_on_c, 1, 80, 90
3, 85139, Note_on_c, 1, 80, 0
3, 85140, Note_on_c, 1, 77, 90
3, 85199, Note_on_c, 1, 77, 0
3, 85200, Note_on_c, 1, 83, 90
3, 85259, Note_on_c, 1, 83, 0
3, 85260, Note_on_c, 1, 84, 90
3, 85319, Note_on_c, 1, 84, 0
3, 85320, Note_on_c, 1, 86, 90
3, 85860, Note_on_c, 1, 86, 0
3, 85860, Note_on_c, 1, 84, 90
3, 85919, Note_on_c, 1, 84, 0
3, 85920, Note_on_c, 1, 83, 90
3, 85979, Note_on_c, 1, 83, 0
3, 85980, Note_on_c, 1, 86, 90
3, 86039, Note_on_c, 1, 86, 0
3, 86040, Note_on_c, 1, 84, 90
3, 86099, Note_on_c, 1, 84, 0
3, 86100, Note_on_c, 1, 81, 90
3, 86159, Note_on_c, 1, 81, 0
3, 86160, Note_on_c, 1, 79, 90
3, 86219, Note_on_c, 1, 79, 0
3, 86220, Note_on_c, 1, 77, 90
3, 86279, Note_on_c, 1, 77, 0
3, 86280, Note_on_c, 1, 75, 90
3, 86339, Note_on_c, 1, 75, 0
3, 86340, Note_on_c, 1, 74, 90
3, 86399, Note_on_c, 1, 74, 0
3, 86400, Note_on_c, 1, 72, 90
3, 86459, Note_on_c, 1, 72, 0
3, 86460, Note_on_c, 1, 70, 90
3, 86519, Note_on_c, 1, 70, 0
3, 86520, Note_on_c, 1, 69, 90
3, 86639, Note_on_c, 1, 69, 0
3, 86640, Note_on_c, 1, 72, 90
3, 86699, Note_on_c, 1, 72, 0
3, 86700, Note_on_c, 1, 70, 90
3, 86759, Note_on_c, 1, 70, 0
3, 86760, Note_on_c, 1, 70, 90
3, 86789, Note_on_c, 1, 70, 0
3, 86790, Note_on_c, 1, 72, 90
3, 87029, Note_on_c, 1, 72, 0
3, 87030, Note_on_c, 1, 70, 90
3, 87059, Note_on_c, 1, 70, 0
3, 87060, Note_on_c, 1, 69, 90
3, 87089, Note_on_c, 1, 69, 0
3, 87090, Note_on_c, 1, 70, 90
3, 87119, Note_on_c, 1, 70, 0
3, 87120, Note_on_c, 1, 72, 90
3, 87149, Note_on_c, 1, 72, 0
3, 87150, Note_on_c, 1, 74, 90
3, 87179, Note_on_c, 1, 74, 0
3, 87180, Note_on_c, 1, 76, 90
3, 87209, Note_on_c, 1, 76, 0
3, 87210, Note_on_c, 1, 78, 90
3, 87239, Note_on_c, 1, 78, 0
3, 87240, Note_on_c, 1, 79, 90
3, 87359, Note_on_c, 1, 79, 0
3, 87360, Note_on_c, 1, 78, 90
3, 87599, Note_on_c, 1, 78, 0
3, 87600, Note_on_c, 1, 81, 90
3, 87659, Note_on_c, 1, 81, 0
3, 87660, Note_on_c, 1, 79, 90
3, 87719, Note_on_c, 1, 79, 0
3, 87720, Note_on_c, 1, 79, 90
3, 87779, Note_on_c, 1, 79, 0
3, 87780, Note_on_c, 1, 81, 90
3, 88019, Note_on_c, 1, 81, 0
3, 88020, Note_on_c, 1, 79, 90
3, 88079, Note_on_c, 1, 79, 0
3, 88080, Note_on_c, 1, 84, 90
3, 88199, Note_on_c, 1, 84, 0
3, 88200, Note_on_c, 1, 82, 90
3, 88229, Note_on_c, 1, 82, 0
3, 88230, Note_on_c, 1, 81, 90
3, 88245, Note_on_c, 1, 81, 0
3, 88245, Note_on_c, 1, 82, 90
3, 88260, Note_on_c, 1, 82, 0
3, 88260, Note_on_c, 1, 81, 90
3, 88275, Note_on_c, 1, 81, 0
3, 88275, Note_on_c, 1, 82, 90
3, 88290, Note_on_c, 1, 82, 0
3, 88290, Note_on_c, 1, 81, 90
3, 88305, Note_on_c, 1, 81, 0
3, 88305, Note_on_c, 1, 82, 90
3, 88320, Note_on_c, 1, 82, 0
3, 88320, Note_on_c, 1, 81, 90
3, 88329, Note_on_c, 1, 81, 0
3, 88330, Note_on_c, 1, 82, 90
3, 88339, Note_on_c, 1, 82, 0
3, 88340, Note_on_c, 1, 81, 90
3, 88349, Note_on_c, 1, 81, 0
3, 88350, Note_on_c, 1, 82, 90
3, 88359, Note_on_c, 1, 82, 0
3, 88360, Note_on_c, 1, 81, 90
3, 88369, Note_on_c, 1, 81, 0
3, 88370, Note_on_c, 1, 82, 90
3, 88379, Note_on_c, 1, 82, 0
3, 88380, Note_on_c, 1, 81, 90
3, 88389, Note_on_c, 1, 81, 0
3, 88390, Note_on_c, 1, 82, 90
3, 88399, Note_on_c, 1, 82, 0
3, 88400, Note_on_c, 1, 81, 90
3, 88409, Note_on_c, 1, 81, 0
3, 88410, Note_on_c, 1, 82, 90
3, 88419, Note_on_c, 1, 82, 0
3, 88420, Note_on_c, 1, 81, 90
3, 88429, Note_on_c, 1, 81, 0
3, 88430, Note_on_c, 1, 82, 90
3, 88439, Note_on_c, 1, 82, 0
3, 88440, Note_on_c, 1, 81, 90
3, 88449, Note_on_c, 1, 81, 0
3, 88450, Note_on_c, 1, 82, 90
3, 88459, Note_on_c, 1, 82, 0
3, 88460, Note_on_c, 1, 81, 90
3, 88469, Note_on_c, 1, 81, 0
3, 88470, Note_on_c, 1, 82, 90
3, 88479, Note_on_c, 1, 82, 0
3, 88480, Note_on_c, 1, 81, 90
3, 88489, Note_on_c, 1, 81, 0
3, 88490, Note_on_c, 1, 82, 90
3, 88499, Note_on_c, 1, 82, 0
3, 88500, Note_on_c, 1, 81, 90
3, 88509, Note_on_c, 1, 81, 0
3, 88510, Note_on_c, 1, 82, 90
3, 88519, Note_on_c, 1, 82, 0
3, 88520, Note_on_c, 1, 81, 90
3, 88529, Note_on_c, 1, 81, 0
3, 88530, Note_on_c, 1, 82, 90
3, 88539, Note_on_c, 1, 82, 0
3, 88540, Note_on_c, 1, 81, 90
3, 88549, Note_on_c, 1, 81, 0
3, 88550, Note_on_c, 1, 82, 90
3, 88559, Note_on_c, 1, 82, 0
3, 88560, Note_on_c, 1, 79, 90
3, 88680, Note_on_c, 1, 79, 0
3, 88680, Note_on_c, 1, 79, 90
3, 89400, Note_on_c, 1, 79, 0
3, 90360, Note_on_c, 1, 70, 90
3, 90479, Note_on_c, 1, 70, 0
3, 90480, Note_on_c, 1, 72, 90
3, 90599, Note_on_c, 1, 72, 0
3, 90600, Note_on_c, 1, 72, 90
3, 90659, Note_on_c, 1, 72, 0
3, 90660, Note_on_c, 1, 74, 90
3, 90674, Note_on_c, 1, 74, 0
3, 90675, Note_on_c, 1, 72, 90
3, 90689, Note_on_c, 1, 72, 0
3, 90690, Note_on_c, 1, 70, 90
3, 90704, Note_on_c, 1, 70, 0
3, 90705, Note_on_c, 1, 72, 90
3, 90719, Note_on_c, 1, 72, 0
3, 90720, Note_on_c, 1, 74, 90
3, 90839, Note_on_c, 1, 74, 0
3, 90840, Note_on_c, 1, 67, 90
3, 90959, Note_on_c, 1, 67, 0
3, 90960, Note_on_c, 1, 79, 90
3, 91079, Note_on_c, 1, 79, 0
3, 91080, Note_on_c, 1, 77, 90
3, 91109, Note_on_c, 1, 77, 0
3, 91110, Note_on_c, 1, 76, 90
3, 91129, Note_on_c, 1, 76, 0
3, 91130, Note_on_c, 1, 77, 90
3, 91149, Note_on_c, 1, 77, 0
3, 91150, Note_on_c, 1, 76, 90
3, 91169, Note_on_c, 1, 76, 0
3, 91170, Note_on_c, 1, 77, 90
3, 91184, Note_on_c, 1, 77, 0
3, 91185, Note_on_c, 1, 76, 90
3, 91199, Note_on_c, 1, 76, 0
3, 91200, Note_on_c, 1, 77, 90
3, 91214, Note_on_c, 1, 77, 0
3, 91215, Note_on_c, 1, 76, 90
3, 91229, Note_on_c, 1, 76, 0
3, 91230, Note_on_c, 1, 77, 90
3, 91239, Note_on_c, 1, 77, 0
3, 91240, Note_on_c, 1, 76, 90
3, 91249, Note_on_c, 1, 76, 0
3, 91250, Note_on_c, 1, 77, 90
3, 91259, Note_on_c, 1, 77, 0
3, 91260, Note_on_c, 1, 76, 90
3, 91269, Note_on_c, 1, 76, 0
3, 91270, Note_on_c, 1, 77, 90
3, 91279, Note_on_c, 1, 77, 0
3, 91280, Note_on_c, 1, 76, 90
3, 91289, Note_on_c, 1, 76, 0
3, 91290, Note_on_c, 1, 77, 90
3, 91299, Note_on_c, 1, 77, 0
3, 91300, Note_on_c, 1, 76, 90
3, 91309, Note_on_c, 1, 76, 0
3, 91310, Note_on_c, 1, 77, 90
3, 91319, Note_on_c, 1, 77, 0
3, 91320, Note_on_c, 1, 76, 90
3, 91329, Note_on_c, 1, 76, 0
3, 91330, Note_on_c, 1, 77, 90
3, 91339, Note_on_c, 1, 77, 0
3, 91340, Note_on_c, 1, 76, 90
3, 91349, Note_on_c, 1, 76, 0
3, 91350, Note_on_c, 1, 77, 90
3, 91359, Note_on_c, 1, 77, 0
3, 91360, Note_on_c, 1, 76, 90
3, 91369, Note_on_c, 1, 76, 0
3, 91370, Note_on_c, 1, 77, 90
3, 91379, Note_on_c, 1, 77, 0
3, 91380, Note_on_c, 1, 76, 90
3, 91389, Note_on_c, 1, 76, 0
3, 91390, Note_on_c, 1, 77, 90
3, 91399, Note_on_c, 1, 77, 0
3, 91400, Note_on_c, 1, 76, 90
3, 91409, Note_on_c, 1, 76, 0
3, 91410, Note_on_c, 1, 77, 90
3, 91425, Note_on_c, 1, 77, 0
3, 91425, Note_on_c, 1, 76, 90
3, 91440, Note_on_c, 1, 76, 0
3, 91440, Note_on_c, 1, 77, 90
3, 91559, Note_on_c, 1, 77, 0
3, 91560, Note_on_c, 1, 77, 90
3, 91619, Note_on_c, 1, 77, 0
3, 91620, Note_on_c, 1, 72, 90
3, 91679, Note_on_c, 1, 72, 0
3, 91680, Note_on_c, 1, 75, 90
3, 91739, Note_on_c, 1, 75, 0
3, 91740, Note_on_c, 1, 74, 90
3, 91799, Note_on_c, 1, 74, 0
3, 91800, Note_on_c, 1, 72, 90
3, 91859, Note_on_c, 1, 72, 0
3, 91860, Note_on_c, 1, 70, 90
3, 91919, Note_on_c, 1, 70, 0
3, 91920, Note_on_c, 1, 69, 90
3, 91979, Note_on_c, 1, 69, 0
3, 91980, Note_on_c, 1, 70, 90
3, 92039, Note_on_c, 1, 70, 0
3, 92040, Note_on_c, 1, 72, 90
3, 92099, Note_on_c, 1, 72, 0
3, 92100, Note_on_c, 1, 69, 90
3, 92159, Note_on_c, 1, 69, 0
3, 92160, Note_on_c, 1, 67, 90
3, 92219, Note_on_c, 1, 67, 0
3, 92220, Note_on_c, 1, 65, 90
3, 92279, Note_on_c, 1, 65, 0
3, 92280, Note_on_c, 1, 70, 90
3, 92339, Note_on_c, 1, 70, 0
3, 92340, Note_on_c, 1, 72, 90
3, 92399, Note_on_c, 1, 72, 0
3, 92400, Note_on_c, 1, 70, 90
3, 92459, Note_on_c, 1, 70, 0
3, 92460, Note_on_c, 1, 72, 90
3, 92519, Note_on_c, 1, 72, 0
3, 92520, Note_on_c, 1, 74, 90
3, 92534, Note_on_c, 1, 74, 0
3, 92535, Note_on_c, 1, 72, 90
3, 92549, Note_on_c, 1, 72, 0
3, 92550, Note_on_c, 1, 74, 90
3, 92559, Note_on_c, 1, 74, 0
3, 92560, Note_on_c, 1, 72, 90
3, 92569, Note_on_c, 1, 72, 0
3, 92570, Note_on_c, 1, 74, 90
3, 92579, Note_on_c, 1, 74, 0
3, 92580, Note_on_c, 1, 72, 90
3, 92589, Note_on_c, 1, 72, 0
3, 92590, Note_on_c, 1, 74, 90
3, 92599, Note_on_c, 1, 74, 0
3, 92600, Note_on_c, 1, 72, 90
3, 92609, Note_on_c, 1, 72, 0
3, 92610, Note_on_c, 1, 74, 90
3, 92619, Note_on_c, 1, 74, 0
3, 92620, Note_on_c, 1, 72, 90
3, 92629, Note_on_c, 1, 72, 0
3, 92630, Note_on_c, 1, 74, 90
3, 92639, Note_on_c, 1, 74, 0
3, 92640, Note_on_c, 1, 72, 90
3, 92649, Note_on_c, 1, 72, 0
3, 92650, Note_on_c, 1, 74, 90
3, 92659, Note_on_c, 1, 74, 0
3, 92660, Note_on_c, 1, 72, 90
3, 92669, Note_on_c, 1, 72, 0
3, 92670, Note_on_c, 1, 74, 90
3, 92679, Note_on_c, 1, 74, 0
3, 92680, Note_on_c, 1, 72, 90
3, 92689, Note_on_c, 1, 72, 0
3, 92690, Note_on_c, 1, 74, 90
3, 92699, Note_on_c, 1, 74, 0
3, 92700, Note_on_c, 1, 72, 90
3, 92709, Note_on_c, 1, 72, 0
3, 92710, Note_on_c, 1, 74, 90
3, 92728, Note_on_c, 1, 74, 0
3, 92730, Note_on_c, 1, 70, 90
3, 92745, Note_on_c, 1, 70, 0
3, 92745, Note_on_c, 1, 72, 90
3, 92760, Note_on_c, 1, 72, 0
3, 92760, Note_on_c, 1, 74, 90
3, 92820, Note_on_c, 1, 74, 0
3, 92820, Note_on_c, 1, 72, 90
3, 92880, Note_on_c, 1, 72, 0
3, 92880, Note_on_c, 1, 70, 90
3, 92940, Note_on_c, 1, 70, 0
3, 92940, Note_on_c, 1, 72, 90
3, 92970, Note_on_c, 1, 72, 0
3, 92970, Note_on_c, 1, 74, 90
3, 93000, Note_on_c, 1, 74, 0
3, 93000, Note_on_c, 1, 67, 90
3, 94020, Note_on_c, 1, 67, 0
3, 94020, Note_on_c, 1, 65, 90
3, 94079, Note_on_c, 1, 65, 0
3, 94080, Note_on_c, 1, 63, 90
3, 94139, Note_on_c, 1, 63, 0
3, 94140, Note_on_c, 1, 62, 90
3, 94199, Note_on_c, 1, 62, 0
3, 94200, Note_on_c, 1, 60, 90
3, 94259, Note_on_c, 1, 60, 0
3, 94260, Note_on_c, 1, 58, 90
3, 94319, Note_on_c, 1, 58, 0
3, 94320, Note_on_c, 1, 57, 90
3, 94379, Note_on_c, 1, 57, 0
3, 94380, Note_on_c, 1, 55, 90
3, 94439, Note_on_c, 1, 55, 0
3, 94440, Note_on_c, 1, 53, 90
3, 94499, Note_on_c, 1, 53, 0
3, 94500, Note_on_c, 1, 65, 90
3, 94559, Note_on_c, 1, 65, 0
3, 94560, Note_on_c, 1, 72, 90
3, 94619, Note_on_c, 1, 72, 0
3, 94620, Note_on_c, 1, 75, 90
3, 94679, Note_on_c, 1, 75, 0
3, 94680, Note_on_c, 1, 73, 90
3, 95159, Note_on_c, 1, 73, 0
3, 95190, Note_on_c, 1, 72, 90
3, 95219, Note_on_c, 1, 72, 0
3, 95220, Note_on_c, 1, 70, 90
3, 95249, Note_on_c, 1, 70, 0
3, 95250, Note_on_c, 1, 69, 90
3, 95279, Note_on_c, 1, 69, 0
3, 95280, Note_on_c, 1, 70, 90
3, 95309, Note_on_c, 1, 70, 0
3, 95310, Note_on_c, 1, 66, 90
3, 95339, Note_on_c, 1, 66, 0
3, 95340, Note_on_c, 1, 65, 90
3, 95369, Note_on_c, 1, 65, 0
3, 95370, Note_on_c, 1, 64, 90
3, 95399, Note_on_c, 1, 64, 0
3, 95400, Note_on_c, 1, 65, 90
3, 95579, Note_on_c, 1, 65, 0
3, 95580, Note_on_c, 1, 67, 90
3, 95609, Note_on_c, 1, 67, 0
3, 95610, Note_on_c, 1, 69, 90
3, 95639, Note_on_c, 1, 69, 0
3, 95640, Note_on_c, 1, 70, 90
3, 95654, Note_on_c, 1, 70, 0
3, 95655, Note_on_c, 1, 69, 90
3, 95669, Note_on_c, 1, 69, 0
3, 95670, Note_on_c, 1, 70, 90
3, 95684, Note_on_c, 1, 70, 0
3, 95685, Note_on_c, 1, 69, 90
3, 95699, Note_on_c, 1, 69, 0
3, 95700, Note_on_c, 1, 70, 90
3, 95709, Note_on_c, 1, 70, 0
3, 95710, Note_on_c, 1, 69, 90
3, 95719, Note_on_c, 1, 69, 0
3, 95720, Note_on_c, 1, 70, 90
3, 95729, Note_on_c, 1, 70, 0
3, 95730, Note_on_c, 1, 69, 90
3, 95739, Note_on_c, 1, 69, 0
3, 95740, Note_on_c, 1, 70, 90
3, 95749, Note_on_c, 1, 70, 0
3, 95750, Note_on_c, 1, 69, 90
3, 95759, Note_on_c, 1, 69, 0
3, 95760, Note_on_c, 1, 70, 90
3, 95769, Note_on_c, 1, 70, 0
3, 95770, Note_on_c, 1, 69, 90
3, 95779, Note_on_c, 1, 69, 0
3, 95780, Note_on_c, 1, 70, 90
3, 95789, Note_on_c, 1, 70, 0
3, 95790, Note_on_c, 1, 69, 90
3, 95799, Note_on_c, 1, 69, 0
3, 95800, Note_on_c, 1, 70, 90
3, 95809, Note_on_c, 1, 70, 0
3, 95810, Note_on_c, 1, 69, 90
3, 95819, Note_on_c, 1, 69, 0
3, 95820, Note_on_c, 1, 70, 90
3, 95829, Note_on_c, 1, 70, 0
3, 95830, Note_on_c, 1, 69, 90
3, 95839, Note_on_c, 1, 69, 0
3, 95840, Note_on_c, 1, 70, 90
3, 95849, Note_on_c, 1, 70, 0
3, 95850, Note_on_c, 1, 69, 90
3, 95859, Note_on_c, 1, 69, 0
3, 95860, Note_on_c, 1, 67, 90
3, 95869, Note_on_c, 1, 67, 0
3, 95870, Note_on_c, 1, 69, 90
3, 95879, Note_on_c, 1, 69, 0
3, 95880, Note_on_c, 1, 70, 90
3, 96359, Note_on_c, 1, 70, 0
3, 97020, Note_on_c, 1, 74, 100
3, 97080, Note_on_c, 1, 74, 0
3, 97080, Note_on_c, 1, 74, 100
3, 97140, Note_on_c, 1, 74, 0
3, 97140, Note_on_c, 1, 74, 100
3, 97200, Note_on_c, 1, 74, 0
3, 97200, Note_on_c, 1, 74, 100
3, 97260, Note_on_c, 1, 74, 0
3, 97260, Note_on_c, 1, 74, 100
3, 97320, Note_on_c, 1, 74, 0
3, 97320, Note_on_c, 1, 67, 100
3, 97380, Note_on_c, 1, 67, 0
3, 97380, Note_on_c, 1, 79, 100
3, 97440, Note_on_c, 1, 79, 0
3, 97440, Note_on_c, 1, 79, 100
3, 97500, Note_on_c, 1, 79, 0
3, 97500, Note_on_c, 1, 81, 100
3, 97560, Note_on_c, 1, 81, 0
3, 97560, Note_on_c, 1, 81, 100
3, 97590, Note_on_c, 1, 81, 0
3, 97590, Note_on_c, 1, 82, 100
3, 97620, Note_on_c, 1, 82, 0
3, 97620, Note_on_c, 1, 84, 100
3, 97650, Note_on_c, 1, 84, 0
3, 97650, Note_on_c, 1, 81, 100
3, 97680, Note_on_c, 1, 81, 0
3, 97680, Note_on_c, 1, 82, 100
3, 97710, Note_on_c, 1, 82, 0
3, 97710, Note_on_c, 1, 74, 100
3, 97740, Note_on_c, 1, 74, 0
3, 97740, Note_on_c, 1, 79, 100
3, 97770, Note_on_c, 1, 79, 0
3, 97770, Note_on_c, 1, 82, 100
3, 97800, Note_on_c, 1, 82, 0
3, 97800, Note_on_c, 1, 81, 100
3, 97830, Note_on_c, 1, 81, 0
3, 97830, Note_on_c, 1, 84, 100
3, 97860, Note_on_c, 1, 84, 0
3, 97860, Note_on_c, 1, 82, 100
3, 97890, Note_on_c, 1, 82, 0
3, 97890, Note_on_c, 1, 81, 100
3, 97920, Note_on_c, 1, 81, 0
3, 97920, Note_on_c, 1, 79, 100
3, 97950, Note_on_c, 1, 79, 0
3, 97950, Note_on_c, 1, 82, 100
3, 97980, Note_on_c, 1, 82, 0
3, 97980, Note_on_c, 1, 81, 100
3, 98010, Note_on_c, 1, 81, 0
3, 98010, Note_on_c, 1, 79, 100
3, 98040, Note_on_c, 1, 79, 0
3, 98040, Note_on_c, 1, 77, 100
3, 98070, Note_on_c, 1, 77, 0
3, 98070, Note_on_c, 1, 76, 100
3, 98100, Note_on_c, 1, 76, 0
3, 98100, Note_on_c, 1, 77, 100
3, 98130, Note_on_c, 1, 77, 0
3, 98130, Note_on_c, 1, 74, 100
3, 98160, Note_on_c, 1, 74, 0
3, 98160, Note_on_c, 1, 86, 100
3, 98280, Note_on_c, 1, 86, 0
3, 98280, Note_on_c, 1, 85, 100
3, 98295, Note_on_c, 1, 85, 0
3, 98295, Note_on_c, 1, 86, 100
3, 98310, Note_on_c, 1, 86, 0
3, 98310, Note_on_c, 1, 85, 100
3, 98325, Note_on_c, 1, 85, 0
3, 98325, Note_on_c, 1, 86, 100
3, 98340, Note_on_c, 1, 86, 0
3, 98340, Note_on_c, 1, 85, 100
3, 98355, Note_on_c, 1, 85, 0
3, 98355, Note_on_c, 1, 86, 100
3, 98370, Note_on_c, 1, 86, 0
3, 98370, Note_on_c, 1, 85, 100
3, 98385, Note_on_c, 1, 85, 0
3, 98385, Note_on_c, 1, 83, 100
3, 98400, Note_on_c, 1, 83, 0
3, 98400, Note_on_c, 1, 86, 100
3, 98420, Note_on_c, 1, 86, 0
3, 98420, Note_on_c, 1, 84, 100
3, 98440, Note_on_c, 1, 84, 0
3, 98440, Note_on_c, 1, 82, 100
3, 98460, Note_on_c, 1, 82, 0
3, 98460, Note_on_c, 1, 84, 100
3, 98480, Note_on_c, 1, 84, 0
3, 98480, Note_on_c, 1, 82, 100
3, 98500, Note_on_c, 1, 82, 0
3, 98500, Note_on_c, 1, 81, 100
3, 98520, Note_on_c, 1, 81, 0
3, 98520, Note_on_c, 1, 82, 100
3, 98540, Note_on_c, 1, 82, 0
3, 98540, Note_on_c, 1, 81, 100
3, 98560, Note_on_c, 1, 81, 0
3, 98560, Note_on_c, 1, 79, 100
3, 98580, Note_on_c, 1, 79, 0
3, 98580, Note_on_c, 1, 84, 100
3, 98600, Note_on_c, 1, 84, 0
3, 98600, Note_on_c, 1, 82, 100
3, 98620, Note_on_c, 1, 82, 0
3, 98620, Note_on_c, 1, 81, 100
3, 98640, Note_on_c, 1, 81, 0
3, 98640, Note_on_c, 1, 82, 100
3, 98660, Note_on_c, 1, 82, 0
3, 98660, Note_on_c, 1, 81, 100
3, 98680, Note_on_c, 1, 81, 0
3, 98680, Note_on_c, 1, 79, 100
3, 98700, Note_on_c, 1, 79, 0
3, 98700, Note_on_c, 1, 81, 100
3, 98720, Note_on_c, 1, 81, 0
3, 98720, Note_on_c, 1, 79, 100
3, 98740, Note_on_c, 1, 79, 0
3, 98740, Note_on_c, 1, 78, 100
3, 98760, Note_on_c, 1, 78, 0
3, 98760, Note_on_c, 1, 79, 100
3, 98850, Note_on_c, 1, 79, 0
3, 98850, Note_on_c, 1, 77, 100
3, 98880, Note_on_c, 1, 77, 0
3, 98880, Note_on_c, 1, 75, 100
3, 98910, Note_on_c, 1, 75, 0
3, 98910, Note_on_c, 1, 74, 100
3, 98940, Note_on_c, 1, 74, 0
3, 98940, Note_on_c, 1, 72, 100
3, 98970, Note_on_c, 1, 72, 0
3, 98970, Note_on_c, 1, 70, 100
3, 99000, Note_on_c, 1, 70, 0
3, 99000, Note_on_c, 1, 72, 100
3, 99030, Note_on_c, 1, 72, 0
3, 99030, Note_on_c, 1, 74, 100
3, 99060, Note_on_c, 1, 74, 0
3, 99060, Note_on_c, 1, 75, 100
3, 99090, Note_on_c, 1, 75, 0
3, 99090, Note_on_c, 1, 72, 100
3, 99120, Note_on_c, 1, 72, 0
3, 99120, Note_on_c, 1, 74, 100
3, 99180, Note_on_c, 1, 74, 0
3, 99180, Note_on_c, 1, 86, 100
3, 99240, Note_on_c, 1, 86, 0
3, 99240, Note_on_c, 1, 78, 100
3, 99300, Note_on_c, 1, 78, 0
3, 99300, Note_on_c, 1, 78, 100
3, 99330, Note_on_c, 1, 78, 0
3, 99330, Note_on_c, 1, 79, 100
3, 99420, Note_on_c, 1, 79, 0
3, 99540, Note_on_c, 1, 84, 90
3, 99599, Note_on_c, 1, 84, 0
3, 99600, Note_on_c, 1, 76, 90
3, 99659, Note_on_c, 1, 76, 0
3, 99660, Note_on_c, 1, 76, 90
3, 99689, Note_on_c, 1, 76, 0
3, 99690, Note_on_c, 1, 77, 90
3, 99779, Note_on_c, 1, 77, 0
3, 99900, Note_on_c, 1, 82, 90
3, 99959, Note_on_c, 1, 82, 0
3, 99960, Note_on_c, 1, 74, 90
3, 100019, Note_on_c, 1, 74, 0
3, 100020, Note_on_c, 1, 75, 90
3, 100079, Note_on_c, 1, 75, 0
3, 100080, Note_on_c, 1, 79, 90
3, 100139, Note_on_c, 1, 79, 0
3, 100140, Note_on_c, 1, 70, 90
3, 100199, Note_on_c, 1, 70, 0
3, 100200, Note_on_c, 1, 75, 90
3, 100219, Note_on_c, 1, 75, 0
3, 100220, Note_on_c, 1, 77, 90
3, 100239, Note_on_c, 1, 77, 0
3, 100240, Note_on_c, 1, 75, 90
3, 100259, Note_on_c, 1, 75, 0
3, 100260, Note_on_c, 1, 77, 90
3, 100274, Note_on_c, 1, 77, 0
3, 100275, Note_on_c, 1, 75, 90
3, 100289, Note_on_c, 1, 75, 0
3, 100290, Note_on_c, 1, 77, 90
3, 100304, Note_on_c, 1, 77, 0
3, 100305, Note_on_c, 1, 75, 90
3, 100319, Note_on_c, 1, 75, 0
3, 100320, Note_on_c, 1, 77, 90
3, 100334, Note_on_c, 1, 77, 0
3, 100335, Note_on_c, 1, 75, 90
3, 100349, Note_on_c, 1, 75, 0
3, 100350, Note_on_c, 1, 77, 90
3, 100364, Note_on_c, 1, 77, 0
3, 100365, Note_on_c, 1, 75, 90
3, 100379, Note_on_c, 1, 75, 0
3, 100380, Note_on_c, 1, 77, 90
3, 100394, Note_on_c, 1, 77, 0
3, 100395, Note_on_c, 1, 75, 90
3, 100409, Note_on_c, 1, 75, 0
3, 100410, Note_on_c, 1, 77, 90
3, 100439, Note_on_c, 1, 77, 0
3, 100440, Note_on_c, 1, 75, 90
3, 100469, Note_on_c, 1, 75, 0
3, 100470, Note_on_c, 1, 74, 90
3, 100499, Note_on_c, 1, 74, 0
3, 100500, Note_on_c, 1, 72, 90
3, 100529, Note_on_c, 1, 72, 0
3, 100530, Note_on_c, 1, 70, 90
3, 100559, Note_on_c, 1, 70, 0
3, 100560, Note_on_c, 1, 69, 90
3, 100589, Note_on_c, 1, 69, 0
3, 100590, Note_on_c, 1, 74, 90
3, 100619, Note_on_c, 1, 74, 0
3, 100620, Note_on_c, 1, 72, 90
3, 100649, Note_on_c, 1, 72, 0
3, 100650, Note_on_c, 1, 70, 90
3, 100679, Note_on_c, 1, 70, 0
3, 100680, Note_on_c, 1, 69, 90
3, 100709, Note_on_c, 1, 69, 0
3, 100710, Note_on_c, 1, 67, 90
3, 100739, Note_on_c, 1, 67, 0
3, 100740, Note_on_c, 1, 65, 90
3, 100769, Note_on_c, 1, 65, 0
3, 100770, Note_on_c, 1, 70, 90
3, 100799, Note_on_c, 1, 70, 0
3, 100800, Note_on_c, 1, 69, 90
3, 100829, Note_on_c, 1, 69, 0
3, 100830, Note_on_c, 1, 67, 90
3, 100859, Note_on_c, 1, 67, 0
3, 100860, Note_on_c, 1, 65, 90
3, 100889, Note_on_c, 1, 65, 0
3, 100890, Note_on_c, 1, 63, 90
3, 100919, Note_on_c, 1, 63, 0
3, 100920, Note_on_c, 1, 62, 90
3, 100949, Note_on_c, 1, 62, 0
3, 100950, Note_on_c, 1, 60, 90
3, 100979, Note_on_c, 1, 60, 0
3, 100980, Note_on_c, 1, 62, 90
3, 101009, Note_on_c, 1, 62, 0
3, 101010, Note_on_c, 1, 58, 90
3, 101039, Note_on_c, 1, 58, 0
3, 101040, Note_on_c, 1, 70, 90
3, 101159, Note_on_c, 1, 70, 0
3, 101160, Note_on_c, 1, 69, 90
3, 101179, Note_on_c, 1, 69, 0
3, 101180, Note_on_c, 1, 70, 90
3, 101199, Note_on_c, 1, 70, 0
3, 101200, Note_on_c, 1, 69, 90
3, 101219, Note_on_c, 1, 69, 0
3, 101220, Note_on_c, 1, 70, 90
3, 101234, Note_on_c, 1, 70, 0
3, 101235, Note_on_c, 1, 69, 90
3, 101249, Note_on_c, 1, 69, 0
3, 101250, Note_on_c, 1, 70, 90
3, 101264, Note_on_c, 1, 70, 0
3, 101265, Note_on_c, 1, 69, 90
3, 101279, Note_on_c, 1, 69, 0
3, 101280, Note_on_c, 1, 70, 90
3, 101339, Note_on_c, 1, 70, 0
3, 101340, Note_on_c, 1, 70, 90
3, 101399, Note_on_c, 1, 70, 0
3, 101400, Note_on_c, 1, 70, 90
3, 101459, Note_on_c, 1, 70, 0
3, 101460, Note_on_c, 1, 70, 90
3, 101519, Note_on_c, 1, 70, 0
3, 101520, Note_on_c, 1, 70, 90
3, 101579, Note_on_c, 1, 70, 0
3, 101580, Note_on_c, 1, 70, 90
3, 101639, Note_on_c, 1, 70, 0
3, 101640, Note_on_c, 1, 65, 90
3, 101699, Note_on_c, 1, 65, 0
3, 101700, Note_on_c, 1, 77, 90
3, 101759, Note_on_c, 1, 77, 0
3, 101760, Note_on_c, 1, 77, 90
3, 101819, Note_on_c, 1, 77, 0
3, 101820, Note_on_c, 1, 79, 90
3, 101879, Note_on_c, 1, 79, 0
3, 101880, Note_on_c, 1, 79, 90
3, 101909, Note_on_c, 1, 79, 0
3, 101910, Note_on_c, 1, 81, 90
3, 101939, Note_on_c, 1, 81, 0
3, 101940, Note_on_c, 1, 82, 90
3, 101969, Note_on_c, 1, 82, 0
3, 101970, Note_on_c, 1, 79, 90
3, 101999, Note_on_c, 1, 79, 0
3, 102000, Note_on_c, 1, 81, 90
3, 102029, Note_on_c, 1, 81, 0
3, 102030, Note_on_c, 1, 79, 90
3, 102059, Note_on_c, 1, 79, 0
3, 102060, Note_on_c, 1, 77, 90
3, 102089, Note_on_c, 1, 77, 0
3, 102090, Note_on_c, 1, 81, 90
3, 102119, Note_on_c, 1, 81, 0
3, 102120, Note_on_c, 1, 79, 90
3, 102149, Note_on_c, 1, 79, 0
3, 102150, Note_on_c, 1, 82, 90
3, 102179, Note_on_c, 1, 82, 0
3, 102180, Note_on_c, 1, 81, 90
3, 102209, Note_on_c, 1, 81, 0
3, 102210, Note_on_c, 1, 79, 90
3, 102239, Note_on_c, 1, 79, 0
3, 102240, Note_on_c, 1, 77, 90
3, 102269, Note_on_c, 1, 77, 0
3, 102270, Note_on_c, 1, 79, 90
3, 102299, Note_on_c, 1, 79, 0
3, 102300, Note_on_c, 1, 77, 90
3, 102329, Note_on_c, 1, 77, 0
3, 102330, Note_on_c, 1, 75, 90
3, 102359, Note_on_c, 1, 75, 0
3, 102360, Note_on_c, 1, 74, 90
3, 102389, Note_on_c, 1, 74, 0
3, 102390, Note_on_c, 1, 72, 90
3, 102419, Note_on_c, 1, 72, 0
3, 102420, Note_on_c, 1, 74, 90
3, 102449, Note_on_c, 1, 74, 0
3, 102450, Note_on_c, 1, 70, 90
3, 102479, Note_on_c, 1, 70, 0
3, 102480, Note_on_c, 1, 82, 90
3, 102599, Note_on_c, 1, 82, 0
3, 102600, Note_on_c, 1, 81, 90
3, 102619, Note_on_c, 1, 81, 0
3, 102620, Note_on_c, 1, 82, 90
3, 102639, Note_on_c, 1, 82, 0
3, 102640, Note_on_c, 1, 81, 90
3, 102659, Note_on_c, 1, 81, 0
3, 102660, Note_on_c, 1, 82, 90
3, 102674, Note_on_c, 1, 82, 0
3, 102675, Note_on_c, 1, 81, 90
3, 102689, Note_on_c, 1, 81, 0
3, 102690, Note_on_c, 1, 82, 90
3, 102704, Note_on_c, 1, 82, 0
3, 102705, Note_on_c, 1, 81, 90
3, 102719, Note_on_c, 1, 81, 0
3, 102720, Note_on_c, 1, 82, 90
3, 102739, Note_on_c, 1, 82, 0
3, 102740, Note_on_c, 1, 80, 90
3, 102759, Note_on_c, 1, 80, 0
3, 102760, Note_on_c, 1, 79, 90
3, 102779, Note_on_c, 1, 79, 0
3, 102780, Note_on_c, 1, 80, 90
3, 102799, Note_on_c, 1, 80, 0
3, 102800, Note_on_c, 1, 79, 90
3, 102819, Note_on_c, 1, 79, 0
3, 102820, Note_on_c, 1, 77, 90
3, 102839, Note_on_c, 1, 77, 0
3, 102840, Note_on_c, 1, 79, 90
3, 102859, Note_on_c, 1, 79, 0
3, 102860, Note_on_c, 1, 77, 90
3, 102879, Note_on_c, 1, 77, 0
3, 102880, Note_on_c, 1, 75, 90
3, 102899, Note_on_c, 1, 75, 0
3, 102900, Note_on_c, 1, 77, 90
3, 102919, Note_on_c, 1, 77, 0
3, 102920, Note_on_c, 1, 75, 90
3, 102939, Note_on_c, 1, 75, 0
3, 102940, Note_on_c, 1, 74, 90
3, 102959, Note_on_c, 1, 74, 0
3, 102960, Note_on_c, 1, 75, 90
3, 102979, Note_on_c, 1, 75, 0
3, 102980, Note_on_c, 1, 74, 90
3, 102999, Note_on_c, 1, 74, 0
3, 103000, Note_on_c, 1, 72, 90
3, 103019, Note_on_c, 1, 72, 0
3, 103020, Note_on_c, 1, 74, 90
3, 103039, Note_on_c, 1, 74, 0
3, 103040, Note_on_c, 1, 72, 90
3, 103059, Note_on_c, 1, 72, 0
3, 103060, Note_on_c, 1, 70, 90
3, 103079, Note_on_c, 1, 70, 0
3, 103080, Note_on_c, 1, 70, 90
3, 103109, Note_on_c, 1, 70, 0
3, 103110, Note_on_c, 1, 72, 90
3, 103124, Note_on_c, 1, 72, 0
3, 103125, Note_on_c, 1, 70, 90
3, 103139, Note_on_c, 1, 70, 0
3, 103140, Note_on_c, 1, 72, 90
3, 103169, Note_on_c, 1, 72, 0
3, 103170, Note_on_c, 1, 74, 90
3, 103199, Note_on_c, 1, 74, 0
3, 103200, Note_on_c, 1, 72, 90
3, 103229, Note_on_c, 1, 72, 0
3, 103230, Note_on_c, 1, 70, 90
3, 103289, Note_on_c, 1, 70, 0
3, 103290, Note_on_c, 1, 72, 90
3, 103319, Note_on_c, 1, 72, 0
3, 103320, Note_on_c, 1, 69, 90
3, 103409, Note_on_c, 1, 69, 0
3, 103410, Note_on_c, 1, 70, 90
3, 103439, Note_on_c, 1, 70, 0
3, 103440, Note_on_c, 1, 70, 90
3, 103469, Note_on_c, 1, 70, 0
3, 103470, Note_on_c, 1, 74, 90
3, 103499, Note_on_c, 1, 74, 0
3, 103500, Note_on_c, 1, 77, 90
3, 103529, Note_on_c, 1, 77, 0
3, 103530, Note_on_c, 1, 74, 90
3, 103559, Note_on_c, 1, 74, 0
3, 103560, Note_on_c, 1, 70, 90
3, 103589, Note_on_c, 1, 70, 0
3, 103590, Note_on_c, 1, 74, 90
3, 103619, Note_on_c, 1, 74, 0
3, 103620, Note_on_c, 1, 70, 90
3, 103649, Note_on_c, 1, 70, 0
3, 103650, Note_on_c, 1, 74, 90
3, 103679, Note_on_c, 1, 74, 0
3, 103680, Note_on_c, 1, 77, 90
3, 103709, Note_on_c, 1, 77, 0
3, 103710, Note_on_c, 1, 74, 90
3, 103739, Note_on_c, 1, 74, 0
3, 103740, Note_on_c, 1, 70, 90
3, 103769, Note_on_c, 1, 70, 0
3, 103770, Note_on_c, 1, 74, 90
3, 103799, Note_on_c, 1, 74, 0
3, 103800, Note_on_c, 1, 70, 90
3, 103829, Note_on_c, 1, 70, 0
3, 103830, Note_on_c, 1, 75, 90
3, 103859, Note_on_c, 1, 75, 0
3, 103860, Note_on_c, 1, 79, 90
3, 103889, Note_on_c, 1, 79, 0
3, 103890, Note_on_c, 1, 75, 90
3, 103919, Note_on_c, 1, 75, 0
3, 103920, Note_on_c, 1, 70, 90
3, 103949, Note_on_c, 1, 70, 0
3, 103950, Note_on_c, 1, 75, 90
3, 103979, Note_on_c, 1, 75, 0
3, 103980, Note_on_c, 1, 70, 90
3, 104009, Note_on_c, 1, 70, 0
3, 104010, Note_on_c, 1, 75, 90
3, 104039, Note_on_c, 1, 75, 0
3, 104040, Note_on_c, 1, 79, 90
3, 104069, Note_on_c, 1, 79, 0
3, 104070, Note_on_c, 1, 75, 90
3, 104099, Note_on_c, 1, 75, 0
3, 104100, Note_on_c, 1, 70, 90
3, 104129, Note_on_c, 1, 70, 0
3, 104130, Note_on_c, 1, 75, 90
3, 104159, Note_on_c, 1, 75, 0
3, 104160, Note_on_c, 1, 70, 90
3, 104189, Note_on_c, 1, 70, 0
3, 104190, Note_on_c, 1, 75, 90
3, 104219, Note_on_c, 1, 75, 0
3, 104220, Note_on_c, 1, 77, 90
3, 104249, Note_on_c, 1, 77, 0
3, 104250, Note_on_c, 1, 75, 90
3, 104279, Note_on_c, 1, 75, 0
3, 104280, Note_on_c, 1, 70, 90
3, 104309, Note_on_c, 1, 70, 0
3, 104310, Note_on_c, 1, 75, 90
3, 104339, Note_on_c, 1, 75, 0
3, 104340, Note_on_c, 1, 70, 90
3, 104369, Note_on_c, 1, 70, 0
3, 104370, Note_on_c, 1, 74, 90
3, 104399, Note_on_c, 1, 74, 0
3, 104400, Note_on_c, 1, 77, 90
3, 104429, Note_on_c, 1, 77, 0
3, 104430, Note_on_c, 1, 74, 90
3, 104459, Note_on_c, 1, 74, 0
3, 104460, Note_on_c, 1, 70, 90
3, 104489, Note_on_c, 1, 70, 0
3, 104490, Note_on_c, 1, 74, 90
3, 104519, Note_on_c, 1, 74, 0
3, 104520, Note_on_c, 1, 67, 90
3, 104549, Note_on_c, 1, 67, 0
3, 104550, Note_on_c, 1, 72, 90
3, 104579, Note_on_c, 1, 72, 0
3, 104580, Note_on_c, 1, 75, 90
3, 104609, Note_on_c, 1, 75, 0
3, 104610, Note_on_c, 1, 72, 90
3, 104639, Note_on_c, 1, 72, 0
3, 104640, Note_on_c, 1, 67, 90
3, 104669, Note_on_c, 1, 67, 0
3, 104670, Note_on_c, 1, 72, 90
3, 104699, Note_on_c, 1, 72, 0
3, 104700, Note_on_c, 1, 69, 90
3, 104729, Note_on_c, 1, 69, 0
3, 104730, Note_on_c, 1, 72, 90
3, 104759, Note_on_c, 1, 72, 0
3, 104760, Note_on_c, 1, 77, 90
3, 104789, Note_on_c, 1, 77, 0
3, 104790, Note_on_c, 1, 72, 90
3, 104819, Note_on_c, 1, 72, 0
3, 104820, Note_on_c, 1, 69, 90
3, 104849, Note_on_c, 1, 69, 0
3, 104850, Note_on_c, 1, 72, 90
3, 104879, Note_on_c, 1, 72, 0
3, 104880, Note_on_c, 1, 70, 90
3, 104909, Note_on_c, 1, 70, 0
3, 104910, Note_on_c, 1, 74, 90
3, 104939, Note_on_c, 1, 74, 0
3, 104940, Note_on_c, 1, 79, 90
3, 104969, Note_on_c, 1, 79, 0
3, 104970, Note_on_c, 1, 81, 90
3, 104999, Note_on_c, 1, 81, 0
3, 105000, Note_on_c, 1, 82, 90
3, 105029, Note_on_c, 1, 82, 0
3, 105030, Note_on_c, 1, 79, 90
3, 105059, Note_on_c, 1, 79, 0
3, 105060, Note_on_c, 1, 76, 90
3, 105119, Note_on_c, 1, 76, 0
3, 105120, Note_on_c, 1, 77, 90
3, 105134, Note_on_c, 1, 77, 0
3, 105135, Note_on_c, 1, 76, 90
3, 105149, Note_on_c, 1, 76, 0
3, 105150, Note_on_c, 1, 77, 90
3, 105164, Note_on_c, 1, 77, 0
3, 105165, Note_on_c, 1, 76, 90
3, 105179, Note_on_c, 1, 76, 0
3, 105180, Note_on_c, 1, 77, 90
3, 105194, Note_on_c, 1, 77, 0
3, 105195, Note_on_c, 1, 76, 90
3, 105209, Note_on_c, 1, 76, 0
3, 105210, Note_on_c, 1, 74, 90
3, 105224, Note_on_c, 1, 74, 0
3, 105225, Note_on_c, 1, 76, 90
3, 105239, Note_on_c, 1, 76, 0
3, 105240, Note_on_c, 1, 77, 90
3, 105359, Note_on_c, 1, 77, 0
3, 105480, Note_on_c, 1, 77, 90
3, 105539, Note_on_c, 1, 77, 0
3, 105540, Note_on_c, 1, 75, 90
3, 105599, Note_on_c, 1, 75, 0
3, 105600, Note_on_c, 1, 75, 90
3, 105630, Note_on_c, 1, 75, 0
3, 105630, Note_on_c, 1, 74, 90
3, 105840, Note_on_c, 1, 74, 0
3, 105840, Note_on_c, 1, 77, 90
3, 105869, Note_on_c, 1, 77, 0
3, 105870, Note_on_c, 1, 76, 90
3, 105899, Note_on_c, 1, 76, 0
3, 105900, Note_on_c, 1, 77, 90
3, 105929, Note_on_c, 1, 77, 0
3, 105930, Note_on_c, 1, 79, 90
3, 105959, Note_on_c, 1, 79, 0
3, 105960, Note_on_c, 1, 72, 90
3, 106199, Note_on_c, 1, 72, 0
3, 106200, Note_on_c, 1, 77, 90
3, 106259, Note_on_c, 1, 77, 0
3, 106260, Note_on_c, 1, 76, 90
3, 106289, Note_on_c, 1, 76, 0
3, 106290, Note_on_c, 1, 74, 90
3, 106319, Note_on_c, 1, 74, 0
3, 106320, Note_on_c, 1, 72, 90
3, 106350, Note_on_c, 1, 72, 0
3, 106350, Note_on_c, 1, 70, 90
3, 106620, Note_on_c, 1, 70, 0
3, 106620, Note_on_c, 1, 69, 90
3, 106650, Note_on_c, 1, 69, 0
3, 106650, Note_on_c, 1, 70, 90
3, 106680, Note_on_c, 1, 70, 0
3, 106680, Note_on_c, 1, 69, 90
3, 106739, Note_on_c, 1, 69, 0
3, 106740, Note_on_c, 1, 81, 90
3, 106799, Note_on_c, 1, 81, 0
3, 106800, Note_on_c, 1, 77, 90
3, 106859, Note_on_c, 1, 77, 0
3, 106860, Note_on_c, 1, 74, 90
3, 106889, Note_on_c, 1, 74, 0
3, 106890, Note_on_c, 1, 72, 90
3, 106919, Note_on_c, 1, 72, 0
3, 106920, Note_on_c, 1, 74, 90
3, 106949, Note_on_c, 1, 74, 0
3, 106950, Note_on_c, 1, 76, 90
3, 106979, Note_on_c, 1, 76, 0
3, 106980, Note_on_c, 1, 77, 90
3, 107009, Note_on_c, 1, 77, 0
3, 107010, Note_on_c, 1, 74, 90
3, 107039, Note_on_c, 1, 74, 0
3, 107040, Note_on_c, 1, 76, 90
3, 107069, Note_on_c, 1, 76, 0
3, 107070, Note_on_c, 1, 79, 90
3, 107099, Note_on_c, 1, 79, 0
3, 107100, Note_on_c, 1, 81, 90
3, 107129, Note_on_c, 1, 81, 0
3, 107130, Note_on_c, 1, 82, 90
3, 107159, Note_on_c, 1, 82, 0
3, 107160, Note_on_c, 1, 84, 90
3, 107189, Note_on_c, 1, 84, 0
3, 107190, Note_on_c, 1, 81, 90
3, 107219, Note_on_c, 1, 81, 0
3, 107220, Note_on_c, 1, 78, 90
3, 107279, Note_on_c, 1, 78, 0
3, 107280, Note_on_c, 1, 79, 90
3, 107294, Note_on_c, 1, 79, 0
3, 107295, Note_on_c, 1, 78, 90
3, 107309, Note_on_c, 1, 78, 0
3, 107310, Note_on_c, 1, 79, 90
3, 107324, Note_on_c, 1, 79, 0
3, 107325, Note_on_c, 1, 78, 90
3, 107339, Note_on_c, 1, 78, 0
3, 107340, Note_on_c, 1, 79, 90
3, 107354, Note_on_c, 1, 79, 0
3, 107355, Note_on_c, 1, 78, 90
3, 107369, Note_on_c, 1, 78, 0
3, 107370, Note_on_c, 1, 76, 90
3, 107384, Note_on_c, 1, 76, 0
3, 107385, Note_on_c, 1, 78, 90
3, 107399, Note_on_c, 1, 78, 0
3, 107400, Note_on_c, 1, 79, 90
3, 107459, Note_on_c, 1, 79, 0
3, 107460, Note_on_c, 1, 82, 90
3, 107519, Note_on_c, 1, 82, 0
3, 107520, Note_on_c, 1, 79, 90
3, 107579, Note_on_c, 1, 79, 0
3, 107580, Note_on_c, 1, 76, 90
3, 107609, Note_on_c, 1, 76, 0
3, 107610, Note_on_c, 1, 74, 90
3, 107639, Note_on_c, 1, 74, 0
3, 107640, Note_on_c, 1, 76, 90
3, 107669, Note_on_c, 1, 76, 0
3, 107670, Note_on_c, 1, 77, 90
3, 107699, Note_on_c, 1, 77, 0
3, 107700, Note_on_c, 1, 79, 90
3, 107729, Note_on_c, 1, 79, 0
3, 107730, Note_on_c, 1, 76, 90
3, 107759, Note_on_c, 1, 76, 0
3, 107760, Note_on_c, 1, 77, 90
3, 107819, Note_on_c, 1, 77, 0
3, 107820, Note_on_c, 1, 81, 90
3, 107999, Note_on_c, 1, 81, 0
3, 108000, Note_on_c, 1, 79, 90
3, 108119, Note_on_c, 1, 79, 0
3, 108150, Note_on_c, 1, 77, 90
3, 108179, Note_on_c, 1, 77, 0
3, 108180, Note_on_c, 1, 76, 90
3, 108209, Note_on_c, 1, 76, 0
3, 108210, Note_on_c, 1, 79, 90
3, 108239, Note_on_c, 1, 79, 0
3, 108240, Note_on_c, 1, 77, 90
3, 108269, Note_on_c, 1, 77, 0
3, 108270, Note_on_c, 1, 81, 90
3, 108299, Note_on_c, 1, 81, 0
3, 108300, Note_on_c, 1, 79, 90
3, 108329, Note_on_c, 1, 79, 0
3, 108330, Note_on_c, 1, 77, 90
3, 108359, Note_on_c, 1, 77, 0
3, 108360, Note_on_c, 1, 79, 90
3, 108389, Note_on_c, 1, 79, 0
3, 108390, Note_on_c, 1, 82, 90
3, 108419, Note_on_c, 1, 82, 0
3, 108420, Note_on_c, 1, 81, 90
3, 108449, Note_on_c, 1, 81, 0
3, 108450, Note_on_c, 1, 79, 90
3, 108479, Note_on_c, 1, 79, 0
3, 108480, Note_on_c, 1, 77, 90
3, 108509, Note_on_c, 1, 77, 0
3, 108510, Note_on_c, 1, 76, 90
3, 108539, Note_on_c, 1, 76, 0
3, 108540, Note_on_c, 1, 77, 90
3, 108569, Note_on_c, 1, 77, 0
3, 108570, Note_on_c, 1, 81, 90
3, 108599, Note_on_c, 1, 81, 0
3, 108600, Note_on_c, 1, 86, 90
3, 108719, Note_on_c, 1, 86, 0
3, 108720, Note_on_c, 1, 85, 90
3, 108739, Note_on_c, 1, 85, 0
3, 108740, Note_on_c, 1, 86, 90
3, 108759, Note_on_c, 1, 86, 0
3, 108760, Note_on_c, 1, 85, 90
3, 108779, Note_on_c, 1, 85, 0
3, 108780, Note_on_c, 1, 86, 90
3, 108794, Note_on_c, 1, 86, 0
3, 108795, Note_on_c, 1, 85, 90
3, 108809, Note_on_c, 1, 85, 0
3, 108810, Note_on_c, 1, 83, 90
3, 108824, Note_on_c, 1, 83, 0
3, 108825, Note_on_c, 1, 85, 90
3, 108839, Note_on_c, 1, 85, 0
3, 108840, Note_on_c, 1, 86, 90
3, 108899, Note_on_c, 1, 86, 0
3, 108900, Note_on_c, 1, 81, 90
3, 108959, Note_on_c, 1, 81, 0
3, 108960, Note_on_c, 1, 73, 90
3, 109019, Note_on_c, 1, 73, 0
3, 109020, Note_on_c, 1, 73, 90
3, 109049, Note_on_c, 1, 73, 0
3, 109050, Note_on_c, 1, 74, 90
3, 109260, Note_on_c, 1, 74, 0
3, 109260, Note_on_c, 1, 86, 90
3, 109320, Note_on_c, 1, 86, 0
3, 109320, Note_on_c, 1, 78, 90
3, 109380, Note_on_c, 1, 78, 0
3, 109380, Note_on_c, 1, 78, 90
3, 109409, Note_on_c, 1, 78, 0
3, 109410, Note_on_c, 1, 79, 90
3, 109590, Note_on_c, 1, 79, 0
3, 109590, Note_on_c, 1, 82, 90
3, 109619, Note_on_c, 1, 82, 0
3, 109620, Note_on_c, 1, 81, 90
3, 109649, Note_on_c, 1, 81, 0
3, 109650, Note_on_c, 1, 79, 90
3, 109679, Note_on_c, 1, 79, 0
3, 109680, Note_on_c, 1, 77, 90
3, 109694, Note_on_c, 1, 77, 0
3, 109695, Note_on_c, 1, 79, 90
3, 109709, Note_on_c, 1, 79, 0
3, 109710, Note_on_c, 1, 81, 90
3, 109724, Note_on_c, 1, 81, 0
3, 109725, Note_on_c, 1, 82, 90
3, 109739, Note_on_c, 1, 82, 0
3, 109740, Note_on_c, 1, 81, 90
3, 109769, Note_on_c, 1, 81, 0
3, 109770, Note_on_c, 1, 79, 90
3, 109799, Note_on_c, 1, 79, 0
3, 109800, Note_on_c, 1, 77, 90
3, 109859, Note_on_c, 1, 77, 0
3, 109860, Note_on_c, 1, 76, 90
3, 109869, Note_on_c, 1, 76, 0
3, 109870, Note_on_c, 1, 77, 90
3, 109879, Note_on_c, 1, 77, 0
3, 109880, Note_on_c, 1, 76, 90
3, 109889, Note_on_c, 1, 76, 0
3, 109890, Note_on_c, 1, 74, 90
3, 109919, Note_on_c, 1, 74, 0
3, 109920, Note_on_c, 1, 74, 90
3, 110039, Note_on_c, 1, 74, 0
3, 110100, Note_on_c, 1, 77, 90
3, 110339, Note_on_c, 1, 77, 0
3, 110340, Note_on_c, 1, 80, 90
3, 110399, Note_on_c, 1, 80, 0
3, 110400, Note_on_c, 1, 79, 90
3, 110459, Note_on_c, 1, 79, 0
3, 110460, Note_on_c, 1, 77, 90
3, 110519, Note_on_c, 1, 77, 0
3, 110520, Note_on_c, 1, 79, 90
3, 110549, Note_on_c, 1, 79, 0
3, 110550, Note_on_c, 1, 77, 90
3, 110579, Note_on_c, 1, 77, 0
3, 110580, Note_on_c, 1, 75, 90
3, 110609, Note_on_c, 1, 75, 0
3, 110610, Note_on_c, 1, 74, 90
3, 110639, Note_on_c, 1, 74, 0
3, 110640, Note_on_c, 1, 75, 90
3, 110669, Note_on_c, 1, 75, 0
3, 110670, Note_on_c, 1, 74, 90
3, 110699, Note_on_c, 1, 74, 0
3, 110700, Note_on_c, 1, 72, 90
3, 110729, Note_on_c, 1, 72, 0
3, 110730, Note_on_c, 1, 75, 90
3, 110759, Note_on_c, 1, 75, 0
3, 110760, Note_on_c, 1, 74, 90
3, 110789, Note_on_c, 1, 74, 0
3, 110790, Note_on_c, 1, 77, 90
3, 110819, Note_on_c, 1, 77, 0
3, 110820, Note_on_c, 1, 75, 90
3, 111059, Note_on_c, 1, 75, 0
3, 111060, Note_on_c, 1, 79, 90
3, 111119, Note_on_c, 1, 79, 0
3, 111120, Note_on_c, 1, 77, 90
3, 111179, Note_on_c, 1, 77, 0
3, 111180, Note_on_c, 1, 75, 90
3, 111239, Note_on_c, 1, 75, 0
3, 111240, Note_on_c, 1, 77, 90
3, 111269, Note_on_c, 1, 77, 0
3, 111270, Note_on_c, 1, 75, 90
3, 111299, Note_on_c, 1, 75, 0
3, 111300, Note_on_c, 1, 74, 90
3, 111329, Note_on_c, 1, 74, 0
3, 111330, Note_on_c, 1, 72, 90
3, 111359, Note_on_c, 1, 72, 0
3, 111360, Note_on_c, 1, 74, 90
3, 111389, Note_on_c, 1, 74, 0
3, 111390, Note_on_c, 1, 72, 90
3, 111419, Note_on_c, 1, 72, 0
3, 111420, Note_on_c, 1, 70, 90
3, 111449, Note_on_c, 1, 70, 0
3, 111450, Note_on_c, 1, 74, 90
3, 111479, Note_on_c, 1, 74, 0
3, 111480, Note_on_c, 1, 72, 90
3, 111509, Note_on_c, 1, 72, 0
3, 111510, Note_on_c, 1, 75, 90
3, 111539, Note_on_c, 1, 75, 0
3, 111540, Note_on_c, 1, 74, 90
3, 111750, Note_on_c, 1, 74, 0
3, 111750, Note_on_c, 1, 72, 90
3, 111779, Note_on_c, 1, 72, 0
3, 111780, Note_on_c, 1, 70, 90
3, 111809, Note_on_c, 1, 70, 0
3, 111810, Note_on_c, 1, 73, 90
3, 111839, Note_on_c, 1, 73, 0
3, 111840, Note_on_c, 1, 72, 90
3, 111869, Note_on_c, 1, 72, 0
3, 111870, Note_on_c, 1, 75, 90
3, 111899, Note_on_c, 1, 75, 0
3, 111900, Note_on_c, 1, 73, 90
3, 112110, Note_on_c, 1, 73, 0
3, 112110, Note_on_c, 1, 70, 90
3, 112139, Note_on_c, 1, 70, 0
3, 112140, Note_on_c, 1, 69, 90
3, 112169, Note_on_c, 1, 69, 0
3, 112170, Note_on_c, 1, 70, 90
3, 112199, Note_on_c, 1, 70, 0
3, 112200, Note_on_c, 1, 73, 90
3, 112229, Note_on_c, 1, 73, 0
3, 112230, Note_on_c, 1, 70, 90
3, 112259, Note_on_c, 1, 70, 0
3, 112260, Note_on_c, 1, 79, 90
3, 112289, Note_on_c, 1, 79, 0
3, 112290, Note_on_c, 1, 70, 90
3, 112319, Note_on_c, 1, 70, 0
3, 112320, Note_on_c, 1, 69, 90
3, 112349, Note_on_c, 1, 69, 0
3, 112350, Note_on_c, 1, 70, 90
3, 112379, Note_on_c, 1, 70, 0
3, 112380, Note_on_c, 1, 72, 90
3, 112409, Note_on_c, 1, 72, 0
3, 112410, Note_on_c, 1, 70, 90
3, 112439, Note_on_c, 1, 70, 0
3, 112440, Note_on_c, 1, 69, 90
3, 112469, Note_on_c, 1, 69, 0
3, 112470, Note_on_c, 1, 72, 90
3, 112499, Note_on_c, 1, 72, 0
3, 112500, Note_on_c, 1, 77, 90
3, 112529, Note_on_c, 1, 77, 0
3, 112530, Note_on_c, 1, 72, 90
3, 112559, Note_on_c, 1, 72, 0
3, 112560, Note_on_c, 1, 77, 90
3, 112589, Note_on_c, 1, 77, 0
3, 112590, Note_on_c, 1, 81, 90
3, 112619, Note_on_c, 1, 81, 0
3, 112620, Note_on_c, 1, 77, 90
3, 112649, Note_on_c, 1, 77, 0
3, 112650, Note_on_c, 1, 81, 90
3, 112679, Note_on_c, 1, 81, 0
3, 112680, Note_on_c, 1, 84, 90
3, 112709, Note_on_c, 1, 84, 0
3, 112710, Note_on_c, 1, 81, 90
3, 112739, Note_on_c, 1, 81, 0
3, 112740, Note_on_c, 1, 79, 90
3, 112769, Note_on_c, 1, 79, 0
3, 112770, Note_on_c, 1, 81, 90
3, 112799, Note_on_c, 1, 81, 0
3, 112800, Note_on_c, 1, 78, 90
3, 112829, Note_on_c, 1, 78, 0
3, 112830, Note_on_c, 1, 81, 90
3, 112859, Note_on_c, 1, 81, 0
3, 112860, Note_on_c, 1, 84, 90
3, 112889, Note_on_c, 1, 84, 0
3, 112890, Note_on_c, 1, 81, 90
3, 112919, Note_on_c, 1, 81, 0
3, 112920, Note_on_c, 1, 79, 90
3, 112949, Note_on_c, 1, 79, 0
3, 112950, Note_on_c, 1, 81, 90
3, 112979, Note_on_c, 1, 81, 0
3, 112980, Note_on_c, 1, 78, 90
3, 113009, Note_on_c, 1, 78, 0
3, 113010, Note_on_c, 1, 81, 90
3, 113039, Note_on_c, 1, 81, 0
3, 113040, Note_on_c, 1, 84, 90
3, 113069, Note_on_c, 1, 84, 0
3, 113070, Note_on_c, 1, 81, 90
3, 113099, Note_on_c, 1, 81, 0
3, 113100, Note_on_c, 1, 79, 90
3, 113129, Note_on_c, 1, 79, 0
3, 113130, Note_on_c, 1, 81, 90
3, 113159, Note_on_c, 1, 81, 0
3, 113160, Note_on_c, 1, 74, 90
3, 113189, Note_on_c, 1, 74, 0
3, 113190, Note_on_c, 1, 79, 90
3, 113219, Note_on_c, 1, 79, 0
3, 113220, Note_on_c, 1, 82, 90
3, 113249, Note_on_c, 1, 82, 0
3, 113250, Note_on_c, 1, 79, 90
3, 113279, Note_on_c, 1, 79, 0
3, 113280, Note_on_c, 1, 78, 90
3, 113309, Note_on_c, 1, 78, 0
3, 113310, Note_on_c, 1, 79, 90
3, 113339, Note_on_c, 1, 79, 0
3, 113340, Note_on_c, 1, 74, 90
3, 113369, Note_on_c, 1, 74, 0
3, 113370, Note_on_c, 1, 79, 90
3, 113399, Note_on_c, 1, 79, 0
3, 113400, Note_on_c, 1, 82, 90
3, 113429, Note_on_c, 1, 82, 0
3, 113430, Note_on_c, 1, 79, 90
3, 113459, Note_on_c, 1, 79, 0
3, 113460, Note_on_c, 1, 77, 90
3, 113489, Note_on_c, 1, 77, 0
3, 113490, Note_on_c, 1, 79, 90
3, 113519, Note_on_c, 1, 79, 0
3, 113520, Note_on_c, 1, 76, 90
3, 113549, Note_on_c, 1, 76, 0
3, 113550, Note_on_c, 1, 79, 90
3, 113579, Note_on_c, 1, 79, 0
3, 113580, Note_on_c, 1, 82, 90
3, 113609, Note_on_c, 1, 82, 0
3, 113610, Note_on_c, 1, 79, 90
3, 113639, Note_on_c, 1, 79, 0
3, 113640, Note_on_c, 1, 77, 90
3, 113669, Note_on_c, 1, 77, 0
3, 113670, Note_on_c, 1, 79, 90
3, 113699, Note_on_c, 1, 79, 0
3, 113700, Note_on_c, 1, 76, 90
3, 113729, Note_on_c, 1, 76, 0
3, 113730, Note_on_c, 1, 79, 90
3, 113759, Note_on_c, 1, 79, 0
3, 113760, Note_on_c, 1, 82, 90
3, 113789, Note_on_c, 1, 82, 0
3, 113790, Note_on_c, 1, 79, 90
3, 113819, Note_on_c, 1, 79, 0
3, 113820, Note_on_c, 1, 77, 90
3, 113849, Note_on_c, 1, 77, 0
3, 113850, Note_on_c, 1, 79, 90
3, 113879, Note_on_c, 1, 79, 0
3, 113880, Note_on_c, 1, 72, 90
3, 113909, Note_on_c, 1, 72, 0
3, 113910, Note_on_c, 1, 77, 90
3, 113939, Note_on_c, 1, 77, 0
3, 113940, Note_on_c, 1, 81, 90
3, 113969, Note_on_c, 1, 81, 0
3, 113970, Note_on_c, 1, 77, 90
3, 113999, Note_on_c, 1, 77, 0
3, 114000, Note_on_c, 1, 76, 90
3, 114029, Note_on_c, 1, 76, 0
3, 114030, Note_on_c, 1, 77, 90
3, 114059, Note_on_c, 1, 77, 0
3, 114060, Note_on_c, 1, 72, 90
3, 114089, Note_on_c, 1, 72, 0
3, 114090, Note_on_c, 1, 77, 90
3, 114119, Note_on_c, 1, 77, 0
3, 114120, Note_on_c, 1, 81, 90
3, 114149, Note_on_c, 1, 81, 0
3, 114150, Note_on_c, 1, 77, 90
3, 114179, Note_on_c, 1, 77, 0
3, 114180, Note_on_c, 1, 76, 90
3, 114209, Note_on_c, 1, 76, 0
3, 114210, Note_on_c, 1, 77, 90
3, 114239, Note_on_c, 1, 77, 0
3, 114240, Note_on_c, 1, 74, 90
3, 114269, Note_on_c, 1, 74, 0
3, 114270, Note_on_c, 1, 77, 90
3, 114299, Note_on_c, 1, 77, 0
3, 114300, Note_on_c, 1, 80, 90
3, 114329, Note_on_c, 1, 80, 0
3, 114330, Note_on_c, 1, 77, 90
3, 114359, Note_on_c, 1, 77, 0
3, 114360, Note_on_c, 1, 76, 90
3, 114389, Note_on_c, 1, 76, 0
3, 114390, Note_on_c, 1, 77, 90
3, 114419, Note_on_c, 1, 77, 0
3, 114420, Note_on_c, 1, 74, 90
3, 114449, Note_on_c, 1, 74, 0
3, 114450, Note_on_c, 1, 77, 90
3, 114479, Note_on_c, 1, 77, 0
3, 114480, Note_on_c, 1, 80, 90
3, 114509, Note_on_c, 1, 80, 0
3, 114510, Note_on_c, 1, 77, 90
3, 114539, Note_on_c, 1, 77, 0
3, 114540, Note_on_c, 1, 76, 90
3, 114569, Note_on_c, 1, 76, 0
3, 114570, Note_on_c, 1, 77, 90
3, 114599, Note_on_c, 1, 77, 0
3, 114600, Note_on_c, 1, 74, 90
3, 114629, Note_on_c, 1, 74, 0
3, 114630, Note_on_c, 1, 77, 90
3, 114659, Note_on_c, 1, 77, 0
3, 114660, Note_on_c, 1, 79, 90
3, 114689, Note_on_c, 1, 79, 0
3, 114690, Note_on_c, 1, 77, 90
3, 114719, Note_on_c, 1, 77, 0
3, 114720, Note_on_c, 1, 76, 90
3, 114749, Note_on_c, 1, 76, 0
3, 114750, Note_on_c, 1, 77, 90
3, 114779, Note_on_c, 1, 77, 0
3, 114780, Note_on_c, 1, 74, 90
3, 114809, Note_on_c, 1, 74, 0
3, 114810, Note_on_c, 1, 77, 90
3, 114839, Note_on_c, 1, 77, 0
3, 114840, Note_on_c, 1, 79, 90
3, 114869, Note_on_c, 1, 79, 0
3, 114870, Note_on_c, 1, 77, 90
3, 114899, Note_on_c, 1, 77, 0
3, 114900, Note_on_c, 1, 76, 90
3, 114929, Note_on_c, 1, 76, 0
3, 114930, Note_on_c, 1, 77, 90
3, 114959, Note_on_c, 1, 77, 0
3, 114960, Note_on_c, 1, 72, 90
3, 115019, Note_on_c, 1, 72, 0
3, 115170, Note_on_c, 1, 72, 90
3, 115199, Note_on_c, 1, 72, 0
3, 115200, Note_on_c, 1, 77, 90
3, 115229, Note_on_c, 1, 77, 0
3, 115230, Note_on_c, 1, 81, 90
3, 115259, Note_on_c, 1, 81, 0
3, 115260, Note_on_c, 1, 79, 90
3, 115289, Note_on_c, 1, 79, 0
3, 115290, Note_on_c, 1, 82, 90
3, 115319, Note_on_c, 1, 82, 0
3, 115320, Note_on_c, 1, 82, 90
3, 115339, Note_on_c, 1, 82, 0
3, 115340, Note_on_c, 1, 81, 90
3, 115359, Note_on_c, 1, 81, 0
3, 115360, Note_on_c, 1, 79, 90
3, 115379, Note_on_c, 1, 79, 0
3, 115380, Note_on_c, 1, 81, 90
3, 115399, Note_on_c, 1, 81, 0
3, 115400, Note_on_c, 1, 79, 90
3, 115419, Note_on_c, 1, 79, 0
3, 115420, Note_on_c, 1, 77, 90
3, 115439, Note_on_c, 1, 77, 0
3, 115440, Note_on_c, 1, 79, 90
3, 115459, Note_on_c, 1, 79, 0
3, 115460, Note_on_c, 1, 77, 90
3, 115479, Note_on_c, 1, 77, 0
3, 115480, Note_on_c, 1, 76, 90
3, 115499, Note_on_c, 1, 76, 0
3, 115500, Note_on_c, 1, 77, 90
3, 115559, Note_on_c, 1, 77, 0
3, 115560, Note_on_c, 1, 81, 90
3, 115619, Note_on_c, 1, 81, 0
3, 115620, Note_on_c, 1, 72, 90
3, 115679, Note_on_c, 1, 72, 0
3, 115680, Note_on_c, 1, 74, 90
3, 115890, Note_on_c, 1, 74, 0
3, 115890, Note_on_c, 1, 70, 90
3, 115919, Note_on_c, 1, 70, 0
3, 115920, Note_on_c, 1, 74, 90
3, 115949, Note_on_c, 1, 74, 0
3, 115950, Note_on_c, 1, 77, 90
3, 115979, Note_on_c, 1, 77, 0
3, 115980, Note_on_c, 1, 82, 90
3, 116009, Note_on_c, 1, 82, 0
3, 116010, Note_on_c, 1, 77, 90
3, 116039, Note_on_c, 1, 77, 0
3, 116040, Note_on_c, 1, 79, 90
3, 116129, Note_on_c, 1, 79, 0
3, 116130, Note_on_c, 1, 76, 90
3, 116159, Note_on_c, 1, 76, 0
3, 116160, Note_on_c, 1, 77, 90
3, 116249, Note_on_c, 1, 77, 0
3, 116250, Note_on_c, 1, 79, 90
3, 116279, Note_on_c, 1, 79, 0
3, 116280, Note_on_c, 1, 76, 90
3, 116369, Note_on_c, 1, 76, 0
3, 116370, Note_on_c, 1, 77, 90
3, 116399, Note_on_c, 1, 77, 0
3, 116400, Note_on_c, 1, 77, 90
3, 116459, Note_on_c, 1, 77, 0
3, 116460, Note_on_c, 1, 72, 90
3, 116519, Note_on_c, 1, 72, 0
3, 116520, Note_on_c, 1, 72, 90
3, 116579, Note_on_c, 1, 72, 0
3, 116580, Note_on_c, 1, 72, 90
3, 116639, Note_on_c, 1, 72, 0
3, 116640, Note_on_c, 1, 72, 90
3, 116699, Note_on_c, 1, 72, 0
3, 116700, Note_on_c, 1, 72, 90
3, 116759, Note_on_c, 1, 72, 0
3, 116760, Note_on_c, 1, 65, 90
3, 116819, Note_on_c, 1, 65, 0
3, 116820, Note_on_c, 1, 77, 90
3, 116879, Note_on_c, 1, 77, 0
3, 116880, Note_on_c, 1, 77, 90
3, 116939, Note_on_c, 1, 77, 0
3, 116940, Note_on_c, 1, 77, 90
3, 116999, Note_on_c, 1, 77, 0
3, 117000, Note_on_c, 1, 79, 90
3, 117029, Note_on_c, 1, 79, 0
3, 117030, Note_on_c, 1, 77, 90
3, 117059, Note_on_c, 1, 77, 0
3, 117060, Note_on_c, 1, 75, 90
3, 117089, Note_on_c, 1, 75, 0
3, 117090, Note_on_c, 1, 74, 90
3, 117119, Note_on_c, 1, 74, 0
3, 117120, Note_on_c, 1, 75, 90
3, 117149, Note_on_c, 1, 75, 0
3, 117150, Note_on_c, 1, 79, 90
3, 117179, Note_on_c, 1, 79, 0
3, 117180, Note_on_c, 1, 84, 90
3, 117209, Note_on_c, 1, 84, 0
3, 117210, Note_on_c, 1, 79, 90
3, 117239, Note_on_c, 1, 79, 0
3, 117240, Note_on_c, 1, 75, 90
3, 117269, Note_on_c, 1, 75, 0
3, 117270, Note_on_c, 1, 79, 90
3, 117299, Note_on_c, 1, 79, 0
3, 117300, Note_on_c, 1, 72, 90
3, 117329, Note_on_c, 1, 72, 0
3, 117330, Note_on_c, 1, 75, 90
3, 117359, Note_on_c, 1, 75, 0
3, 117360, Note_on_c, 1, 79, 90
3, 117389, Note_on_c, 1, 79, 0
3, 117390, Note_on_c, 1, 75, 90
3, 117419, Note_on_c, 1, 75, 0
3, 117420, Note_on_c, 1, 72, 90
3, 117449, Note_on_c, 1, 72, 0
3, 117450, Note_on_c, 1, 75, 90
3, 117479, Note_on_c, 1, 75, 0
3, 117480, Note_on_c, 1, 69, 90
3, 117509, Note_on_c, 1, 69, 0
3, 117510, Note_on_c, 1, 72, 90
3, 117539, Note_on_c, 1, 72, 0
3, 117540, Note_on_c, 1, 75, 90
3, 117569, Note_on_c, 1, 75, 0
3, 117570, Note_on_c, 1, 72, 90
3, 117599, Note_on_c, 1, 72, 0
3, 117600, Note_on_c, 1, 69, 90
3, 117629, Note_on_c, 1, 69, 0
3, 117630, Note_on_c, 1, 72, 90
3, 117659, Note_on_c, 1, 72, 0
3, 117660, Note_on_c, 1, 66, 90
3, 117689, Note_on_c, 1, 66, 0
3, 117690, Note_on_c, 1, 69, 90
3, 117719, Note_on_c, 1, 69, 0
3, 117720, Note_on_c, 1, 72, 90
3, 117749, Note_on_c, 1, 72, 0
3, 117750, Note_on_c, 1, 69, 90
3, 117779, Note_on_c, 1, 69, 0
3, 117780, Note_on_c, 1, 66, 90
3, 117809, Note_on_c, 1, 66, 0
3, 117810, Note_on_c, 1, 69, 90
3, 117839, Note_on_c, 1, 69, 0
3, 117840, Note_on_c, 1, 62, 90
3, 117899, Note_on_c, 1, 62, 0
3, 117900, Note_on_c, 1, 74, 90
3, 117959, Note_on_c, 1, 74, 0
3, 117960, Note_on_c, 1, 74, 90
3, 118019, Note_on_c, 1, 74, 0
3, 118020, Note_on_c, 1, 74, 90
3, 118079, Note_on_c, 1, 74, 0
3, 118080, Note_on_c, 1, 74, 90
3, 118139, Note_on_c, 1, 74, 0
3, 118140, Note_on_c, 1, 74, 90
3, 118199, Note_on_c, 1, 74, 0
3, 118200, Note_on_c, 1, 67, 90
3, 118259, Note_on_c, 1, 67, 0
3, 118260, Note_on_c, 1, 79, 90
3, 118319, Note_on_c, 1, 79, 0
3, 118320, Note_on_c, 1, 79, 90
3, 118379, Note_on_c, 1, 79, 0
3, 118380, Note_on_c, 1, 79, 90
3, 118439, Note_on_c, 1, 79, 0
3, 118440, Note_on_c, 1, 81, 90
3, 118469, Note_on_c, 1, 81, 0
3, 118470, Note_on_c, 1, 79, 90
3, 118499, Note_on_c, 1, 79, 0
3, 118500, Note_on_c, 1, 77, 90
3, 118529, Note_on_c, 1, 77, 0
3, 118530, Note_on_c, 1, 76, 90
3, 118559, Note_on_c, 1, 76, 0
3, 118560, Note_on_c, 1, 77, 90
3, 118619, Note_on_c, 1, 77, 0
3, 118620, Note_on_c, 1, 81, 90
3, 118679, Note_on_c, 1, 81, 0
3, 118680, Note_on_c, 1, 81, 90
3, 118739, Note_on_c, 1, 81, 0
3, 118740, Note_on_c, 1, 81, 90
3, 118799, Note_on_c, 1, 81, 0
3, 118800, Note_on_c, 1, 81, 90
3, 118859, Note_on_c, 1, 81, 0
3, 118860, Note_on_c, 1, 81, 90
3, 118919, Note_on_c, 1, 81, 0
3, 118920, Note_on_c, 1, 79, 90
3, 118979, Note_on_c, 1, 79, 0
3, 118980, Note_on_c, 1, 79, 90
3, 119039, Note_on_c, 1, 79, 0
3, 119040, Note_on_c, 1, 79, 90
3, 119099, Note_on_c, 1, 79, 0
3, 119100, Note_on_c, 1, 79, 90
3, 119159, Note_on_c, 1, 79, 0
3, 119160, Note_on_c, 1, 79, 90
3, 119219, Note_on_c, 1, 79, 0
3, 119220, Note_on_c, 1, 79, 90
3, 119279, Note_on_c, 1, 79, 0
3, 119280, Note_on_c, 1, 77, 90
3, 119339, Note_on_c, 1, 77, 0
3, 119340, Note_on_c, 1, 77, 90
3, 119399, Note_on_c, 1, 77, 0
3, 119400, Note_on_c, 1, 77, 90
3, 119459, Note_on_c, 1, 77, 0
3, 119460, Note_on_c, 1, 77, 90
3, 119519, Note_on_c, 1, 77, 0
3, 119520, Note_on_c, 1, 77, 90
3, 119579, Note_on_c, 1, 77, 0
3, 119580, Note_on_c, 1, 77, 90
3, 119639, Note_on_c, 1, 77, 0
3, 119640, Note_on_c, 1, 76, 90
3, 119669, Note_on_c, 1, 76, 0
3, 119670, Note_on_c, 1, 77, 90
3, 119699, Note_on_c, 1, 77, 0
3, 119700, Note_on_c, 1, 79, 90
3, 119714, Note_on_c, 1, 79, 0
3, 119715, Note_on_c, 1, 77, 90
3, 119729, Note_on_c, 1, 77, 0
3, 119730, Note_on_c, 1, 79, 90
3, 119744, Note_on_c, 1, 79, 0
3, 119745, Note_on_c, 1, 77, 90
3, 119759, Note_on_c, 1, 77, 0
3, 119760, Note_on_c, 1, 79, 90
3, 119774, Note_on_c, 1, 79, 0
3, 119775, Note_on_c, 1, 77, 90
3, 119789, Note_on_c, 1, 77, 0
3, 119790, Note_on_c, 1, 76, 90
3, 119804, Note_on_c, 1, 76, 0
3, 119805, Note_on_c, 1, 77, 90
3, 119819, Note_on_c, 1, 77, 0
3, 119820, Note_on_c, 1, 79, 90
3, 119999, Note_on_c, 1, 79, 0
3, 120030, Note_on_c, 1, 82, 90
3, 120059, Note_on_c, 1, 82, 0
3, 120060, Note_on_c, 1, 81, 90
3, 120089, Note_on_c, 1, 81, 0
3, 120090, Note_on_c, 1, 79, 90
3, 120119, Note_on_c, 1, 79, 0
3, 120120, Note_on_c, 1, 77, 90
3, 120149, Note_on_c, 1, 77, 0
3, 120150, Note_on_c, 1, 79, 90
3, 120179, Note_on_c, 1, 79, 0
3, 120180, Note_on_c, 1, 81, 90
3, 120209, Note_on_c, 1, 81, 0
3, 120210, Note_on_c, 1, 83, 90
3, 120239, Note_on_c, 1, 83, 0
3, 120240, Note_on_c, 1, 84, 90
3, 120254, Note_on_c, 1, 84, 0
3, 120255, Note_on_c, 1, 83, 90
3, 120269, Note_on_c, 1, 83, 0
3, 120270, Note_on_c, 1, 84, 90
3, 120284, Note_on_c, 1, 84, 0
3, 120285, Note_on_c, 1, 83, 90
3, 120299, Note_on_c, 1, 83, 0
3, 120300, Note_on_c, 1, 84, 90
3, 120314, Note_on_c, 1, 84, 0
3, 120315, Note_on_c, 1, 83, 90
3, 120329, Note_on_c, 1, 83, 0
3, 120330, Note_on_c, 1, 81, 90
3, 120344, Note_on_c, 1, 81, 0
3, 120345, Note_on_c, 1, 83, 90
3, 120359, Note_on_c, 1, 83, 0
3, 120360, Note_on_c, 1, 84, 90
3, 120719, Note_on_c, 1, 84, 0
3, 120750, Note_on_c, 1, 81, 90
3, 120779, Note_on_c, 1, 81, 0
3, 120780, Note_on_c, 1, 82, 90
3, 120809, Note_on_c, 1, 82, 0
3, 120810, Note_on_c, 1, 79, 90
3, 120839, Note_on_c, 1, 79, 0
3, 120840, Note_on_c, 1, 81, 90
3, 120959, Note_on_c, 1, 81, 0
3, 120990, Note_on_c, 1, 78, 90
3, 121019, Note_on_c, 1, 78, 0
3, 121020, Note_on_c, 1, 79, 90
3, 121109, Note_on_c, 1, 79, 0
3, 121110, Note_on_c, 1, 76, 90
3, 121139, Note_on_c, 1, 76, 0
3, 121140, Note_on_c, 1, 77, 90
3, 121169, Note_on_c, 1, 77, 0
3, 121170, Note_on_c, 1, 74, 90
3, 121199, Note_on_c, 1, 74, 0
3, 121200, Note_on_c, 1, 76, 90
3, 121229, Note_on_c, 1, 76, 0
3, 121230, Note_on_c, 1, 79, 90
3, 121259, Note_on_c, 1, 79, 0
3, 121260, Note_on_c, 1, 77, 90
3, 121289, Note_on_c, 1, 77, 0
3, 121290, Note_on_c, 1, 79, 90
3, 121319, Note_on_c, 1, 79, 0
3, 121320, Note_on_c, 1, 76, 90
3, 121409, Note_on_c, 1, 76, 0
3, 121410, Note_on_c, 1, 74, 90
3, 121439, Note_on_c, 1, 74, 0
3, 121440, Note_on_c, 1, 74, 90
3, 121499, Note_on_c, 1, 74, 0
3, 121500, Note_on_c, 1, 81, 90
3, 121559, Note_on_c, 1, 81, 0
3, 121560, Note_on_c, 1, 79, 90
3, 121619, Note_on_c, 1, 79, 0
3, 121620, Note_on_c, 1, 79, 90
3, 121650, Note_on_c, 1, 79, 0
3, 121650, Note_on_c, 1, 77, 90
3, 121860, Note_on_c, 1, 77, 0
3, 121860, Note_on_c, 1, 79, 90
3, 121889, Note_on_c, 1, 79, 0
3, 121890, Note_on_c, 1, 77, 90
3, 121919, Note_on_c, 1, 77, 0
3, 121920, Note_on_c, 1, 76, 90
3, 121949, Note_on_c, 1, 76, 0
3, 121950, Note_on_c, 1, 74, 90
3, 121979, Note_on_c, 1, 74, 0
3, 121980, Note_on_c, 1, 76, 90
3, 122159, Note_on_c, 1, 76, 0
3, 122190, Note_on_c, 1, 79, 90
3, 122219, Note_on_c, 1, 79, 0
3, 122220, Note_on_c, 1, 77, 90
3, 122249, Note_on_c, 1, 77, 0
3, 122250, Note_on_c, 1, 76, 90
3, 122279, Note_on_c, 1, 76, 0
3, 122280, Note_on_c, 1, 74, 90
3, 122309, Note_on_c, 1, 74, 0
3, 122310, Note_on_c, 1, 73, 90
3, 122339, Note_on_c, 1, 73, 0
3, 122340, Note_on_c, 1, 74, 90
3, 122429, Note_on_c, 1, 74, 0
3, 122430, Note_on_c, 1, 76, 90
3, 122444, Note_on_c, 1, 76, 0
3, 122445, Note_on_c, 1, 77, 90
3, 122459, Note_on_c, 1, 77, 0
3, 122460, Note_on_c, 1, 79, 90
3, 122489, Note_on_c, 1, 79, 0
3, 122490, Note_on_c, 1, 81, 90
3, 122519, Note_on_c, 1, 81, 0
3, 122520, Note_on_c, 1, 82, 90
3, 122579, Note_on_c, 1, 82, 0
3, 122580, Note_on_c, 1, 82, 90
3, 122639, Note_on_c, 1, 82, 0
3, 122640, Note_on_c, 1, 82, 90
3, 122699, Note_on_c, 1, 82, 0
3, 122700, Note_on_c, 1, 82, 90
3, 122719, Note_on_c, 1, 82, 0
3, 122720, Note_on_c, 1, 84, 90
3, 122739, Note_on_c, 1, 84, 0
3, 122740, Note_on_c, 1, 82, 90
3, 122759, Note_on_c, 1, 82, 0
3, 122760, Note_on_c, 1, 84, 90
3, 122774, Note_on_c, 1, 84, 0
3, 122775, Note_on_c, 1, 82, 90
3, 122789, Note_on_c, 1, 82, 0
3, 122790, Note_on_c, 1, 84, 90
3, 122804, Note_on_c, 1, 84, 0
3, 122805, Note_on_c, 1, 82, 90
3, 122819, Note_on_c, 1, 82, 0
3, 122820, Note_on_c, 1, 84, 90
3, 122834, Note_on_c, 1, 84, 0
3, 122835, Note_on_c, 1, 82, 90
3, 122849, Note_on_c, 1, 82, 0
3, 122850, Note_on_c, 1, 84, 90
3, 122864, Note_on_c, 1, 84, 0
3, 122865, Note_on_c, 1, 82, 90
3, 122879, Note_on_c, 1, 82, 0
3, 122880, Note_on_c, 1, 84, 90
3, 122894, Note_on_c, 1, 84, 0
3, 122895, Note_on_c, 1, 82, 90
3, 122909, Note_on_c, 1, 82, 0
3, 122910, Note_on_c, 1, 81, 90
3, 122939, Note_on_c, 1, 81, 0
3, 122940, Note_on_c, 1, 82, 90
3, 122969, Note_on_c, 1, 82, 0
3, 122970, Note_on_c, 1, 78, 90
3, 122999, Note_on_c, 1, 78, 0
3, 123000, Note_on_c, 1, 79, 90
3, 123089, Note_on_c, 1, 79, 0
3, 123090, Note_on_c, 1, 81, 90
3, 123119, Note_on_c, 1, 81, 0
3, 123120, Note_on_c, 1, 78, 90
3, 123209, Note_on_c, 1, 78, 0
3, 123210, Note_on_c, 1, 79, 90
3, 123239, Note_on_c, 1, 79, 0
3, 123240, Note_on_c, 1, 79, 90
3, 123359, Note_on_c, 1, 79, 0
3, 123480, Note_on_c, 1, 79, 90
3, 123539, Note_on_c, 1, 79, 0
3, 123540, Note_on_c, 1, 77, 90
3, 123599, Note_on_c, 1, 77, 0
3, 123600, Note_on_c, 1, 77, 90
3, 123629, Note_on_c, 1, 77, 0
3, 123630, Note_on_c, 1, 75, 90
3, 123839, Note_on_c, 1, 75, 0
3, 123840, Note_on_c, 1, 79, 90
3, 123869, Note_on_c, 1, 79, 0
3, 123870, Note_on_c, 1, 78, 90
3, 123899, Note_on_c, 1, 78, 0
3, 123900, Note_on_c, 1, 79, 90
3, 123929, Note_on_c, 1, 79, 0
3, 123930, Note_on_c, 1, 81, 90
3, 123959, Note_on_c, 1, 81, 0
3, 123960, Note_on_c, 1, 70, 90
3, 124199, Note_on_c, 1, 70, 0
3, 124200, Note_on_c, 1, 79, 90
3, 124259, Note_on_c, 1, 79, 0
3, 124260, Note_on_c, 1, 77, 90
3, 124289, Note_on_c, 1, 77, 0
3, 124290, Note_on_c, 1, 75, 90
3, 124319, Note_on_c, 1, 75, 0
3, 124320, Note_on_c, 1, 74, 90
3, 124349, Note_on_c, 1, 74, 0
3, 124350, Note_on_c, 1, 72, 90
3, 124620, Note_on_c, 1, 72, 0
3, 124620, Note_on_c, 1, 71, 90
3, 124649, Note_on_c, 1, 71, 0
3, 124650, Note_on_c, 1, 72, 90
3, 124679, Note_on_c, 1, 72, 0
3, 124680, Note_on_c, 1, 71, 90
3, 124739, Note_on_c, 1, 71, 0
3, 124740, Note_on_c, 1, 79, 90
3, 124799, Note_on_c, 1, 79, 0
3, 124800, Note_on_c, 1, 72, 90
3, 124859, Note_on_c, 1, 72, 0
3, 124860, Note_on_c, 1, 77, 90
3, 124889, Note_on_c, 1, 77, 0
3, 124890, Note_on_c, 1, 80, 90
3, 124919, Note_on_c, 1, 80, 0
3, 124920, Note_on_c, 1, 79, 90
3, 124949, Note_on_c, 1, 79, 0
3, 124950, Note_on_c, 1, 77, 90
3, 124979, Note_on_c, 1, 77, 0
3, 124980, Note_on_c, 1, 75, 90
3, 125009, Note_on_c, 1, 75, 0
3, 125010, Note_on_c, 1, 74, 90
3, 125039, Note_on_c, 1, 74, 0
3, 125040, Note_on_c, 1, 75, 90
3, 125099, Note_on_c, 1, 75, 0
3, 125100, Note_on_c, 1, 79, 90
3, 125159, Note_on_c, 1, 79, 0
3, 125160, Note_on_c, 1, 72, 90
3, 125174, Note_on_c, 1, 72, 0
3, 125175, Note_on_c, 1, 71, 90
3, 125189, Note_on_c, 1, 71, 0
3, 125190, Note_on_c, 1, 69, 90
3, 125204, Note_on_c, 1, 69, 0
3, 125205, Note_on_c, 1, 71, 90
3, 125219, Note_on_c, 1, 71, 0
3, 125220, Note_on_c, 1, 72, 90
3, 125339, Note_on_c, 1, 72, 0
3, 125820, Note_on_c, 1, 72, 90
3, 125879, Note_on_c, 1, 72, 0
3, 125880, Note_on_c, 1, 72, 90
3, 125939, Note_on_c, 1, 72, 0
3, 125940, Note_on_c, 1, 72, 90
3, 125999, Note_on_c, 1, 72, 0
3, 126000, Note_on_c, 1, 72, 90
3, 126059, Note_on_c, 1, 72, 0
3, 126060, Note_on_c, 1, 72, 90
3, 126119, Note_on_c, 1, 72, 0
3, 126120, Note_on_c, 1, 67, 90
3, 126179, Note_on_c, 1, 67, 0
3, 126180, Note_on_c, 1, 79, 90
3, 126239, Note_on_c, 1, 79, 0
3, 126240, Note_on_c, 1, 79, 90
3, 126299, Note_on_c, 1, 79, 0
3, 126300, Note_on_c, 1, 81, 90
3, 126359, Note_on_c, 1, 81, 0
3, 126360, Note_on_c, 1, 81, 90
3, 126389, Note_on_c, 1, 81, 0
3, 126390, Note_on_c, 1, 82, 90
3, 126419, Note_on_c, 1, 82, 0
3, 126420, Note_on_c, 1, 84, 90
3, 126449, Note_on_c, 1, 84, 0
3, 126450, Note_on_c, 1, 81, 90
3, 126479, Note_on_c, 1, 81, 0
3, 126480, Note_on_c, 1, 82, 90
3, 126509, Note_on_c, 1, 82, 0
3, 126510, Note_on_c, 1, 74, 90
3, 126539, Note_on_c, 1, 74, 0
3, 126540, Note_on_c, 1, 79, 90
3, 126569, Note_on_c, 1, 79, 0
3, 126570, Note_on_c, 1, 82, 90
3, 126599, Note_on_c, 1, 82, 0
3, 126600, Note_on_c, 1, 81, 90
3, 126629, Note_on_c, 1, 81, 0
3, 126630, Note_on_c, 1, 84, 90
3, 126659, Note_on_c, 1, 84, 0
3, 126660, Note_on_c, 1, 82, 90
3, 126679, Note_on_c, 1, 82, 0
3, 126680, Note_on_c, 1, 81, 90
3, 126699, Note_on_c, 1, 81, 0
3, 126700, Note_on_c, 1, 79, 90
3, 126719, Note_on_c, 1, 79, 0
3, 126720, Note_on_c, 1, 81, 90
3, 126739, Note_on_c, 1, 81, 0
3, 126740, Note_on_c, 1, 79, 90
3, 126759, Note_on_c, 1, 79, 0
3, 126760, Note_on_c, 1, 78, 90
3, 126779, Note_on_c, 1, 78, 0
3, 126780, Note_on_c, 1, 79, 90
3, 126799, Note_on_c, 1, 79, 0
3, 126800, Note_on_c, 1, 78, 90
3, 126819, Note_on_c, 1, 78, 0
3, 126820, Note_on_c, 1, 76, 90
3, 126839, Note_on_c, 1, 76, 0
3, 126840, Note_on_c, 1, 78, 90
3, 126869, Note_on_c, 1, 78, 0
3, 126870, Note_on_c, 1, 76, 90
3, 126899, Note_on_c, 1, 76, 0
3, 126900, Note_on_c, 1, 78, 90
3, 126929, Note_on_c, 1, 78, 0
3, 126930, Note_on_c, 1, 74, 90
3, 126959, Note_on_c, 1, 74, 0
3, 126960, Note_on_c, 1, 86, 90
3, 127079, Note_on_c, 1, 86, 0
3, 127080, Note_on_c, 1, 84, 90
3, 127199, Note_on_c, 1, 84, 0
3, 127220, Note_on_c, 1, 82, 90
3, 127239, Note_on_c, 1, 82, 0
3, 127240, Note_on_c, 1, 81, 90
3, 127259, Note_on_c, 1, 81, 0
3, 127260, Note_on_c, 1, 82, 90
3, 127279, Note_on_c, 1, 82, 0
3, 127280, Note_on_c, 1, 81, 90
3, 127299, Note_on_c, 1, 81, 0
3, 127300, Note_on_c, 1, 79, 90
3, 127319, Note_on_c, 1, 79, 0
3, 127320, Note_on_c, 1, 81, 90
3, 127339, Note_on_c, 1, 81, 0
3, 127340, Note_on_c, 1, 79, 90
3, 127359, Note_on_c, 1, 79, 0
3, 127360, Note_on_c, 1, 78, 90
3, 127379, Note_on_c, 1, 78, 0
3, 127380, Note_on_c, 1, 79, 90
3, 127619, Note_on_c, 1, 79, 0
3, 127620, Note_on_c, 1, 80, 90
3, 127634, Note_on_c, 1, 80, 0
3, 127635, Note_on_c, 1, 82, 90
3, 127649, Note_on_c, 1, 82, 0
3, 127650, Note_on_c, 1, 84, 90
3, 127679, Note_on_c, 1, 84, 0
3, 127680, Note_on_c, 1, 76, 90
3, 127739, Note_on_c, 1, 76, 0
3, 127740, Note_on_c, 1, 76, 90
3, 127769, Note_on_c, 1, 76, 0
3, 127770, Note_on_c, 1, 77, 90
3, 127979, Note_on_c, 1, 77, 0
3, 127980, Note_on_c, 1, 79, 90
3, 127994, Note_on_c, 1, 79, 0
3, 127995, Note_on_c, 1, 81, 90
3, 128009, Note_on_c, 1, 81, 0
3, 128010, Note_on_c, 1, 82, 90
3, 128039, Note_on_c, 1, 82, 0
3, 128040, Note_on_c, 1, 74, 90
3, 128099, Note_on_c, 1, 74, 0
3, 128100, Note_on_c, 1, 74, 90
3, 128129, Note_on_c, 1, 74, 0
3, 128130, Note_on_c, 1, 75, 90
3, 128309, Note_on_c, 1, 75, 0
3, 128310, Note_on_c, 1, 74, 90
3, 128339, Note_on_c, 1, 74, 0
3, 128340, Note_on_c, 1, 72, 90
3, 128369, Note_on_c, 1, 72, 0
3, 128370, Note_on_c, 1, 70, 90
3, 128399, Note_on_c, 1, 70, 0
3, 128400, Note_on_c, 1, 68, 90
3, 128429, Note_on_c, 1, 68, 0
3, 128430, Note_on_c, 1, 67, 90
3, 128459, Note_on_c, 1, 67, 0
3, 128460, Note_on_c, 1, 72, 90
3, 128639, Note_on_c, 1, 72, 0
3, 128670, Note_on_c, 1, 74, 90
3, 128699, Note_on_c, 1, 74, 0
3, 128700, Note_on_c, 1, 72, 90
3, 128729, Note_on_c, 1, 72, 0
3, 128730, Note_on_c, 1, 70, 90
3, 128759, Note_on_c, 1, 70, 0
3, 128760, Note_on_c, 1, 69, 90
3, 128789, Note_on_c, 1, 69, 0
3, 128790, Note_on_c, 1, 67, 90
3, 128819, Note_on_c, 1, 67, 0
3, 128820, Note_on_c, 1, 66, 90
3, 128849, Note_on_c, 1, 66, 0
3, 128850, Note_on_c, 1, 70, 90
3, 128879, Note_on_c, 1, 70, 0
3, 128880, Note_on_c, 1, 69, 90
3, 128909, Note_on_c, 1, 69, 0
3, 128910, Note_on_c, 1, 67, 90
3, 128939, Note_on_c, 1, 67, 0
3, 128940, Note_on_c, 1, 66, 90
3, 128969, Note_on_c, 1, 66, 0
3, 128970, Note_on_c, 1, 64, 90
3, 128999, Note_on_c, 1, 64, 0
3, 129000, Note_on_c, 1, 62, 90
3, 129029, Note_on_c, 1, 62, 0
3, 129030, Note_on_c, 1, 67, 90
3, 129059, Note_on_c, 1, 67, 0
3, 129060, Note_on_c, 1, 70, 90
3, 129089, Note_on_c, 1, 70, 0
3, 129090, Note_on_c, 1, 67, 90
3, 129119, Note_on_c, 1, 67, 0
3, 129120, Note_on_c, 1, 66, 90
3, 129149, Note_on_c, 1, 66, 0
3, 129150, Note_on_c, 1, 67, 90
3, 129179, Note_on_c, 1, 67, 0
3, 129180, Note_on_c, 1, 63, 90
3, 129209, Note_on_c, 1, 63, 0
3, 129210, Note_on_c, 1, 67, 90
3, 129239, Note_on_c, 1, 67, 0
3, 129240, Note_on_c, 1, 70, 90
3, 129269, Note_on_c, 1, 70, 0
3, 129270, Note_on_c, 1, 67, 90
3, 129299, Note_on_c, 1, 67, 0
3, 129300, Note_on_c, 1, 66, 90
3, 129329, Note_on_c, 1, 66, 0
3, 129330, Note_on_c, 1, 67, 90
3, 129359, Note_on_c, 1, 67, 0
3, 129360, Note_on_c, 1, 62, 90
3, 129389, Note_on_c, 1, 62, 0
3, 129390, Note_on_c, 1, 67, 90
3, 129419, Note_on_c, 1, 67, 0
3, 129420, Note_on_c, 1, 70, 90
3, 129449, Note_on_c, 1, 70, 0
3, 129450, Note_on_c, 1, 67, 90
3, 129479, Note_on_c, 1, 67, 0
3, 129480, Note_on_c, 1, 66, 90
3, 129509, Note_on_c, 1, 66, 0
3, 129510, Note_on_c, 1, 67, 90
3, 129539, Note_on_c, 1, 67, 0
3, 129540, Note_on_c, 1, 60, 90
3, 129569, Note_on_c, 1, 60, 0
3, 129570, Note_on_c, 1, 67, 90
3, 129599, Note_on_c, 1, 67, 0
3, 129600, Note_on_c, 1, 70, 90
3, 129629, Note_on_c, 1, 70, 0
3, 129630, Note_on_c, 1, 67, 90
3, 129659, Note_on_c, 1, 67, 0
3, 129660, Note_on_c, 1, 66, 90
3, 129689, Note_on_c, 1, 66, 0
3, 129690, Note_on_c, 1, 67, 90
3, 129719, Note_on_c, 1, 67, 0
3, 129720, Note_on_c, 1, 62, 90
3, 129749, Note_on_c, 1, 62, 0
3, 129750, Note_on_c, 1, 67, 90
3, 129779, Note_on_c, 1, 67, 0
3, 129780, Note_on_c, 1, 70, 90
3, 129809, Note_on_c, 1, 70, 0
3, 129810, Note_on_c, 1, 67, 90
3, 129839, Note_on_c, 1, 67, 0
3, 129840, Note_on_c, 1, 66, 90
3, 129869, Note_on_c, 1, 66, 0
3, 129870, Note_on_c, 1, 67, 90
3, 129899, Note_on_c, 1, 67, 0
3, 129900, Note_on_c, 1, 63, 90
3, 129929, Note_on_c, 1, 63, 0
3, 129930, Note_on_c, 1, 67, 90
3, 129959, Note_on_c, 1, 67, 0
3, 129960, Note_on_c, 1, 69, 90
3, 129989, Note_on_c, 1, 69, 0
3, 129990, Note_on_c, 1, 67, 90
3, 130019, Note_on_c, 1, 67, 0
3, 130020, Note_on_c, 1, 66, 90
3, 130049, Note_on_c, 1, 66, 0
3, 130050, Note_on_c, 1, 67, 90
3, 130079, Note_on_c, 1, 67, 0
3, 130080, Note_on_c, 1, 62, 90
3, 130109, Note_on_c, 1, 62, 0
3, 130110, Note_on_c, 1, 67, 90
3, 130139, Note_on_c, 1, 67, 0
3, 130140, Note_on_c, 1, 69, 90
3, 130169, Note_on_c, 1, 69, 0
3, 130170, Note_on_c, 1, 67, 90
3, 130199, Note_on_c, 1, 67, 0
3, 130200, Note_on_c, 1, 62, 90
3, 130229, Note_on_c, 1, 62, 0
3, 130230, Note_on_c, 1, 66, 90
3, 130259, Note_on_c, 1, 66, 0
3, 130260, Note_on_c, 1, 67, 90
3, 130289, Note_on_c, 1, 67, 0
3, 130290, Note_on_c, 1, 70, 90
3, 130319, Note_on_c, 1, 70, 0
3, 130320, Note_on_c, 1, 74, 90
3, 130349, Note_on_c, 1, 74, 0
3, 130350, Note_on_c, 1, 67, 90
3, 130379, Note_on_c, 1, 67, 0
3, 130380, Note_on_c, 1, 70, 90
3, 130409, Note_on_c, 1, 70, 0
3, 130410, Note_on_c, 1, 74, 90
3, 130439, Note_on_c, 1, 74, 0
3, 130440, Note_on_c, 1, 79, 90
3, 130469, Note_on_c, 1, 79, 0
3, 130470, Note_on_c, 1, 74, 90
3, 130499, Note_on_c, 1, 74, 0
3, 130500, Note_on_c, 1, 70, 90
3, 130529, Note_on_c, 1, 70, 0
3, 130530, Note_on_c, 1, 67, 90
3, 130559, Note_on_c, 1, 67, 0
3, 130560, Note_on_c, 1, 79, 90
3, 130679, Note_on_c, 1, 79, 0
3, 130680, Note_on_c, 1, 78, 90
3, 130699, Note_on_c, 1, 78, 0
3, 130700, Note_on_c, 1, 79, 90
3, 130719, Note_on_c, 1, 79, 0
3, 130720, Note_on_c, 1, 78, 90
3, 130739, Note_on_c, 1, 78, 0
3, 130740, Note_on_c, 1, 79, 90
3, 130754, Note_on_c, 1, 79, 0
3, 130755, Note_on_c, 1, 78, 90
3, 130769, Note_on_c, 1, 78, 0
3, 130770, Note_on_c, 1, 79, 90
3, 130784, Note_on_c, 1, 79, 0
3, 130785, Note_on_c, 1, 78, 90
3, 130799, Note_on_c, 1, 78, 0
3, 130800, Note_on_c, 1, 79, 90
3, 130919, Note_on_c, 1, 79, 0
3, 131040, Note_on_c, 1, 82, 90
3, 131099, Note_on_c, 1, 82, 0
3, 131100, Note_on_c, 1, 82, 90
3, 131159, Note_on_c, 1, 82, 0
3, 131160, Note_on_c, 1, 82, 90
3, 131219, Note_on_c, 1, 82, 0
3, 131220, Note_on_c, 1, 81, 90
3, 131279, Note_on_c, 1, 81, 0
3, 131280, Note_on_c, 1, 81, 90
3, 131339, Note_on_c, 1, 81, 0
3, 131340, Note_on_c, 1, 81, 90
3, 131399, Note_on_c, 1, 81, 0
3, 131400, Note_on_c, 1, 81, 90
3, 131459, Note_on_c, 1, 81, 0
3, 131460, Note_on_c, 1, 81, 90
3, 131519, Note_on_c, 1, 81, 0
3, 131520, Note_on_c, 1, 81, 90
3, 131579, Note_on_c, 1, 81, 0
3, 131580, Note_on_c, 1, 79, 90
3, 131639, Note_on_c, 1, 79, 0
3, 131640, Note_on_c, 1, 79, 90
3, 131699, Note_on_c, 1, 79, 0
3, 131700, Note_on_c, 1, 79, 90
3, 131759, Note_on_c, 1, 79, 0
3, 131760, Note_on_c, 1, 79, 90
3, 131819, Note_on_c, 1, 79, 0
3, 131820, Note_on_c, 1, 79, 90
3, 131879, Note_on_c, 1, 79, 0
3, 131880, Note_on_c, 1, 79, 90
3, 131909, Note_on_c, 1, 79, 0
3, 131910, Note_on_c, 1, 78, 90
3, 132089, Note_on_c, 1, 78, 0
3, 132090, Note_on_c, 1, 79, 90
3, 132119, Note_on_c, 1, 79, 0
3, 132120, Note_on_c, 1, 81, 90
3, 132134, Note_on_c, 1, 81, 0
3, 132135, Note_on_c, 1, 79, 90
3, 132149, Note_on_c, 1, 79, 0
3, 132150, Note_on_c, 1, 81, 90
3, 132164, Note_on_c, 1, 81, 0
3, 132165, Note_on_c, 1, 79, 90
3, 132179, Note_on_c, 1, 79, 0
3, 132180, Note_on_c, 1, 81, 90
3, 132194, Note_on_c, 1, 81, 0
3, 132195, Note_on_c, 1, 79, 90
3, 132209, Note_on_c, 1, 79, 0
3, 132210, Note_on_c, 1, 78, 90
3, 132224, Note_on_c, 1, 78, 0
3, 132225, Note_on_c, 1, 79, 90
3, 132239, Note_on_c, 1, 79, 0
3, 132240, Note_on_c, 1, 81, 90
3, 132299, Note_on_c, 1, 81, 0
3, 132300, Note_on_c, 1, 74, 90
3, 132359, Note_on_c, 1, 74, 0
3, 132360, Note_on_c, 1, 79, 90
3, 132479, Note_on_c, 1, 79, 0
3, 132480, Note_on_c, 1, 72, 90
3, 132539, Note_on_c, 1, 72, 0
3, 132540, Note_on_c, 1, 82, 90
3, 132629, Note_on_c, 1, 82, 0
3, 132630, Note_on_c, 1, 82, 90
3, 132659, Note_on_c, 1, 82, 0
3, 132660, Note_on_c, 1, 81, 90
3, 132689, Note_on_c, 1, 81, 0
3, 132690, Note_on_c, 1, 79, 90
3, 132719, Note_on_c, 1, 79, 0
3, 132720, Note_on_c, 1, 77, 90
3, 132749, Note_on_c, 1, 77, 0
3, 132750, Note_on_c, 1, 79, 90
3, 132779, Note_on_c, 1, 79, 0
3, 132780, Note_on_c, 1, 81, 90
3, 132809, Note_on_c, 1, 81, 0
3, 132810, Note_on_c, 1, 83, 90
3, 132839, Note_on_c, 1, 83, 0
3, 132840, Note_on_c, 1, 83, 90
3, 132859, Note_on_c, 1, 83, 0
3, 132860, Note_on_c, 1, 84, 90
3, 132879, Note_on_c, 1, 84, 0
3, 132880, Note_on_c, 1, 83, 90
3, 132899, Note_on_c, 1, 83, 0
3, 132900, Note_on_c, 1, 84, 90
3, 132914, Note_on_c, 1, 84, 0
3, 132915, Note_on_c, 1, 83, 90
3, 132929, Note_on_c, 1, 83, 0
3, 132930, Note_on_c, 1, 81, 90
3, 132944, Note_on_c, 1, 81, 0
3, 132945, Note_on_c, 1, 83, 90
3, 132959, Note_on_c, 1, 83, 0
3, 132960, Note_on_c, 1, 84, 90
3, 133079, Note_on_c, 1, 84, 0
3, 133110, Note_on_c, 1, 81, 90
3, 133139, Note_on_c, 1, 81, 0
3, 133140, Note_on_c, 1, 82, 90
3, 133169, Note_on_c, 1, 82, 0
3, 133170, Note_on_c, 1, 79, 90
3, 133199, Note_on_c, 1, 79, 0
3, 133200, Note_on_c, 1, 80, 90
3, 133289, Note_on_c, 1, 80, 0
3, 133290, Note_on_c, 1, 78, 90
3, 133319, Note_on_c, 1, 78, 0
3, 133320, Note_on_c, 1, 79, 90
3, 133439, Note_on_c, 1, 79, 0
3, 133470, Note_on_c, 1, 76, 90
3, 133499, Note_on_c, 1, 76, 0
3, 133500, Note_on_c, 1, 77, 90
3, 133529, Note_on_c, 1, 77, 0
3, 133530, Note_on_c, 1, 74, 90
3, 133559, Note_on_c, 1, 74, 0
3, 133560, Note_on_c, 1, 75, 90
3, 133649, Note_on_c, 1, 75, 0
3, 133650, Note_on_c, 1, 73, 90
3, 133679, Note_on_c, 1, 73, 0
3, 133680, Note_on_c, 1, 74, 90
3, 133739, Note_on_c, 1, 74, 0
3, 133740, Note_on_c, 1, 72, 90
3, 133769, Note_on_c, 1, 72, 0
3, 133770, Note_on_c, 1, 70, 90
3, 133799, Note_on_c, 1, 70, 0
3, 133800, Note_on_c, 1, 69, 90
3, 133829, Note_on_c, 1, 69, 0
3, 133830, Note_on_c, 1, 67, 90
3, 133859, Note_on_c, 1, 67, 0
3, 133860, Note_on_c, 1, 66, 90
3, 133919, Note_on_c, 1, 66, 0
3, 133920, Note_on_c, 1, 74, 90
3, 134099, Note_on_c, 1, 74, 0
3, 134100, Note_on_c, 1, 72, 90
3, 134129, Note_on_c, 1, 72, 0
3, 134130, Note_on_c, 1, 70, 90
3, 134159, Note_on_c, 1, 70, 0
3, 134160, Note_on_c, 1, 69, 90
3, 134189, Note_on_c, 1, 69, 0
3, 134190, Note_on_c, 1, 67, 90
3, 134219, Note_on_c, 1, 67, 0
3, 134220, Note_on_c, 1, 66, 90
3, 134249, Note_on_c, 1, 66, 0
3, 134250, Note_on_c, 1, 67, 90
3, 134279, Note_on_c, 1, 67, 0
3, 134280, Note_on_c, 1, 75, 90
3, 134459, Note_on_c, 1, 75, 0
3, 134460, Note_on_c, 1, 74, 90
3, 134489, Note_on_c, 1, 74, 0
3, 134490, Note_on_c, 1, 72, 90
3, 134519, Note_on_c, 1, 72, 0
3, 134520, Note_on_c, 1, 70, 90
3, 134549, Note_on_c, 1, 70, 0
3, 134550, Note_on_c, 1, 69, 90
3, 134579, Note_on_c, 1, 69, 0
3, 134580, Note_on_c, 1, 67, 90
3, 134609, Note_on_c, 1, 67, 0
3, 134610, Note_on_c, 1, 66, 90
3, 134639, Note_on_c, 1, 66, 0
3, 134640, Note_on_c, 1, 67, 90
3, 134759, Note_on_c, 1, 67, 0
3, 134790, Note_on_c, 1, 74, 90
3, 134819, Note_on_c, 1, 74, 0
3, 134820, Note_on_c, 1, 72, 90
3, 134849, Note_on_c, 1, 72, 0
3, 134850, Note_on_c, 1, 70, 90
3, 134879, Note_on_c, 1, 70, 0
3, 134880, Note_on_c, 1, 69, 90
3, 134909, Note_on_c, 1, 69, 0
3, 134910, Note_on_c, 1, 67, 90
3, 134939, Note_on_c, 1, 67, 0
3, 134940, Note_on_c, 1, 75, 90
3, 134969, Note_on_c, 1, 75, 0
3, 134970, Note_on_c, 1, 74, 90
3, 134999, Note_on_c, 1, 74, 0
3, 135000, Note_on_c, 1, 72, 90
3, 135029, Note_on_c, 1, 72, 0
3, 135030, Note_on_c, 1, 70, 90
3, 135059, Note_on_c, 1, 70, 0
3, 135060, Note_on_c, 1, 69, 90
3, 135089, Note_on_c, 1, 69, 0
3, 135090, Note_on_c, 1, 67, 90
3, 135119, Note_on_c, 1, 67, 0
3, 135120, Note_on_c, 1, 70, 90
3, 135179, Note_on_c, 1, 70, 0
3, 135180, Note_on_c, 1, 72, 90
3, 135239, Note_on_c, 1, 72, 0
3, 135240, Note_on_c, 1, 69, 90
3, 135254, Note_on_c, 1, 69, 0
3, 135255, Note_on_c, 1, 70, 90
3, 135269, Note_on_c, 1, 70, 0
3, 135270, Note_on_c, 1, 72, 90
3, 135284, Note_on_c, 1, 72, 0
3, 135285, Note_on_c, 1, 70, 90
3, 135299, Note_on_c, 1, 70, 0
3, 135300, Note_on_c, 1, 69, 90
3, 135329, Note_on_c, 1, 69, 0
3, 135330, Note_on_c, 1, 79, 90
3, 135359, Note_on_c, 1, 79, 0
3, 135360, Note_on_c, 1, 82, 90
3, 135389, Note_on_c, 1, 82, 0
3, 135390, Note_on_c, 1, 79, 90
3, 135419, Note_on_c, 1, 79, 0
3, 135420, Note_on_c, 1, 78, 90
3, 135449, Note_on_c, 1, 78, 0
3, 135450, Note_on_c, 1, 79, 90
3, 135479, Note_on_c, 1, 79, 0
3, 135480, Note_on_c, 1, 73, 90
3, 135599, Note_on_c, 1, 73, 0
3, 135600, Note_on_c, 1, 72, 90
3, 135689, Note_on_c, 1, 72, 0
3, 135690, Note_on_c, 1, 75, 90
3, 135719, Note_on_c, 1, 75, 0
3, 135720, Note_on_c, 1, 74, 90
3, 135749, Note_on_c, 1, 74, 0
3, 135750, Note_on_c, 1, 72, 90
3, 135779, Note_on_c, 1, 72, 0
3, 135780, Note_on_c, 1, 70, 90
3, 135809, Note_on_c, 1, 70, 0
3, 135810, Note_on_c, 1, 69, 90
3, 135839, Note_on_c, 1, 69, 0
3, 135840, Note_on_c, 1, 67, 90
3, 135899, Note_on_c, 1, 67, 0
3, 135900, Note_on_c, 1, 69, 90
3, 135959, Note_on_c, 1, 69, 0
3, 135960, Note_on_c, 1, 67, 90
3, 135974, Note_on_c, 1, 67, 0
3, 135975, Note_on_c, 1, 66, 90
3, 135989, Note_on_c, 1, 66, 0
3, 135990, Note_on_c, 1, 64, 90
3, 136004, Note_on_c, 1, 64, 0
3, 136005, Note_on_c, 1, 66, 90
3, 136019, Note_on_c, 1, 66, 0
3, 136020, Note_on_c, 1, 67, 90
3, 136199, Note_on_c, 1, 67, 0
3, 136230, Note_on_c, 1, 70, 90
3, 136259, Note_on_c, 1, 70, 0
3, 136260, Note_on_c, 1, 74, 90
3, 136289, Note_on_c, 1, 74, 0
3, 136290, Note_on_c, 1, 70, 90
3, 136319, Note_on_c, 1, 70, 0
3, 136320, Note_on_c, 1, 67, 90
3, 136349, Note_on_c, 1, 67, 0
3, 136350, Note_on_c, 1, 70, 90
3, 136379, Note_on_c, 1, 70, 0
3, 136380, Note_on_c, 1, 62, 90
3, 136409, Note_on_c, 1, 62, 0
3, 136410, Note_on_c, 1, 67, 90
3, 136439, Note_on_c, 1, 67, 0
3, 136440, Note_on_c, 1, 70, 90
3, 136469, Note_on_c, 1, 70, 0
3, 136470, Note_on_c, 1, 67, 90
3, 136499, Note_on_c, 1, 67, 0
3, 136500, Note_on_c, 1, 62, 90
3, 136529, Note_on_c, 1, 62, 0
3, 136530, Note_on_c, 1, 67, 90
3, 136559, Note_on_c, 1, 67, 0
3, 136560, Note_on_c, 1, 58, 90
3, 136589, Note_on_c, 1, 58, 0
3, 136590, Note_on_c, 1, 62, 90
3, 136619, Note_on_c, 1, 62, 0
3, 136620, Note_on_c, 1, 67, 90
3, 136649, Note_on_c, 1, 67, 0
3, 136650, Note_on_c, 1, 62, 90
3, 136679, Note_on_c, 1, 62, 0
3, 136680, Note_on_c, 1, 58, 90
3, 136709, Note_on_c, 1, 58, 0
3, 136710, Note_on_c, 1, 62, 90
3, 136739, Note_on_c, 1, 62, 0
3, 136740, Note_on_c, 1, 55, 90
3, 136919, Note_on_c, 1, 55, 0
3, 136919, End_track
4, 0, Start_track
4, 0, MIDI_port, 0
4, 0, Title_t, "clave l"
4, 0, Program_c, 2, 6
4, 60, Note_on_c, 2, 55, 90
4, 89, Note_on_c, 2, 55, 0
4, 90, Note_on_c, 2, 57, 90
4, 119, Note_on_c, 2, 57, 0
4, 120, Note_on_c, 2, 58, 90
4, 179, Note_on_c, 2, 58, 0
4, 180, Note_on_c, 2, 55, 90
4, 239, Note_on_c, 2, 55, 0
4, 240, Note_on_c, 2, 43, 90
4, 299, Note_on_c, 2, 43, 0
4, 300, Note_on_c, 2, 55, 90
4, 329, Note_on_c, 2, 55, 0
4, 330, Note_on_c, 2, 57, 90
4, 359, Note_on_c, 2, 57, 0
4, 360, Note_on_c, 2, 58, 90
4, 419, Note_on_c, 2, 58, 0
4, 420, Note_on_c, 2, 55, 90
4, 479, Note_on_c, 2, 55, 0
4, 480, Note_on_c, 2, 43, 90
4, 539, Note_on_c, 2, 43, 0
4, 540, Note_on_c, 2, 55, 90
4, 569, Note_on_c, 2, 55, 0
4, 570, Note_on_c, 2, 57, 90
4, 599, Note_on_c, 2, 57, 0
4, 600, Note_on_c, 2, 58, 90
4, 629, Note_on_c, 2, 58, 0
4, 630, Note_on_c, 2, 57, 90
4, 659, Note_on_c, 2, 57, 0
4, 660, Note_on_c, 2, 55, 90
4, 689, Note_on_c, 2, 55, 0
4, 690, Note_on_c, 2, 57, 90
4, 719, Note_on_c, 2, 57, 0
4, 720, Note_on_c, 2, 58, 90
4, 749, Note_on_c, 2, 58, 0
4, 750, Note_on_c, 2, 57, 90
4, 779, Note_on_c, 2, 57, 0
4, 780, Note_on_c, 2, 58, 90
4, 809, Note_on_c, 2, 58, 0
4, 810, Note_on_c, 2, 55, 90
4, 839, Note_on_c, 2, 55, 0
4, 840, Note_on_c, 2, 62, 90
4, 899, Note_on_c, 2, 62, 0
4, 900, Note_on_c, 2, 50, 90
4, 959, Note_on_c, 2, 50, 0
4, 960, Note_on_c, 2, 54, 90
4, 1019, Note_on_c, 2, 54, 0
4, 1020, Note_on_c, 2, 50, 90
4, 1079, Note_on_c, 2, 50, 0
4, 1080, Note_on_c, 2, 43, 90
4, 1139, Note_on_c, 2, 43, 0
4, 1140, Note_on_c, 2, 46, 90
4, 1199, Note_on_c, 2, 46, 0
4, 1200, Note_on_c, 2, 50, 90
4, 1259, Note_on_c, 2, 50, 0
4, 1260, Note_on_c, 2, 55, 90
4, 1319, Note_on_c, 2, 55, 0
4, 1320, Note_on_c, 2, 51, 90
4, 1349, Note_on_c, 2, 51, 0
4, 1350, Note_on_c, 2, 53, 90
4, 1379, Note_on_c, 2, 53, 0
4, 1380, Note_on_c, 2, 51, 90
4, 1409, Note_on_c, 2, 51, 0
4, 1410, Note_on_c, 2, 50, 90
4, 1439, Note_on_c, 2, 50, 0
4, 1440, Note_on_c, 2, 48, 90
4, 1469, Note_on_c, 2, 48, 0
4, 1470, Note_on_c, 2, 46, 90
4, 1499, Note_on_c, 2, 46, 0
4, 1500, Note_on_c, 2, 45, 90
4, 1529, Note_on_c, 2, 45, 0
4, 1530, Note_on_c, 2, 43, 90
4, 1559, Note_on_c, 2, 43, 0
4, 1560, Note_on_c, 2, 41, 90
4, 1619, Note_on_c, 2, 41, 0
4, 1620, Note_on_c, 2, 45, 90
4, 1679, Note_on_c, 2, 45, 0
4, 1680, Note_on_c, 2, 48, 90
4, 1739, Note_on_c, 2, 48, 0
4, 1740, Note_on_c, 2, 53, 90
4, 1799, Note_on_c, 2, 53, 0
4, 1800, Note_on_c, 2, 50, 90
4, 1829, Note_on_c, 2, 50, 0
4, 1830, Note_on_c, 2, 51, 90
4, 1859, Note_on_c, 2, 51, 0
4, 1860, Note_on_c, 2, 50, 90
4, 1889, Note_on_c, 2, 50, 0
4, 1890, Note_on_c, 2, 48, 90
4, 1919, Note_on_c, 2, 48, 0
4, 1920, Note_on_c, 2, 46, 90
4, 1949, Note_on_c, 2, 46, 0
4, 1950, Note_on_c, 2, 45, 90
4, 1979, Note_on_c, 2, 45, 0
4, 1980, Note_on_c, 2, 43, 90
4, 2009, Note_on_c, 2, 43, 0
4, 2010, Note_on_c, 2, 41, 90
4, 2039, Note_on_c, 2, 41, 0
4, 2040, Note_on_c, 2, 39, 90
4, 2099, Note_on_c, 2, 39, 0
4, 2100, Note_on_c, 2, 43, 90
4, 2159, Note_on_c, 2, 43, 0
4, 2160, Note_on_c, 2, 46, 90
4, 2219, Note_on_c, 2, 46, 0
4, 2220, Note_on_c, 2, 51, 90
4, 2279, Note_on_c, 2, 51, 0
4, 2280, Note_on_c, 2, 48, 90
4, 2339, Note_on_c, 2, 48, 0
4, 2340, Note_on_c, 2, 48, 90
4, 2399, Note_on_c, 2, 48, 0
4, 2400, Note_on_c, 2, 48, 90
4, 2459, Note_on_c, 2, 48, 0
4, 2460, Note_on_c, 2, 48, 90
4, 2519, Note_on_c, 2, 48, 0
4, 2520, Note_on_c, 2, 48, 90
4, 2579, Note_on_c, 2, 48, 0
4, 2580, Note_on_c, 2, 48, 90
4, 2639, Note_on_c, 2, 48, 0
4, 2640, Note_on_c, 2, 48, 90
4, 2699, Note_on_c, 2, 48, 0
4, 2700, Note_on_c, 2, 48, 90
4, 2759, Note_on_c, 2, 48, 0
4, 2760, Note_on_c, 2, 48, 90
4, 2819, Note_on_c, 2, 48, 0
4, 2820, Note_on_c, 2, 48, 90
4, 2879, Note_on_c, 2, 48, 0
4, 2880, Note_on_c, 2, 48, 90
4, 2939, Note_on_c, 2, 48, 0
4, 2940, Note_on_c, 2, 48, 90
4, 2999, Note_on_c, 2, 48, 0
4, 3000, Note_on_c, 2, 46, 90
4, 3059, Note_on_c, 2, 46, 0
4, 3060, Note_on_c, 2, 50, 90
4, 3119, Note_on_c, 2, 50, 0
4, 3120, Note_on_c, 2, 46, 90
4, 3179, Note_on_c, 2, 46, 0
4, 3180, Note_on_c, 2, 43, 90
4, 3239, Note_on_c, 2, 43, 0
4, 3240, Note_on_c, 2, 48, 90
4, 3299, Note_on_c, 2, 48, 0
4, 3300, Note_on_c, 2, 51, 90
4, 3359, Note_on_c, 2, 51, 0
4, 3360, Note_on_c, 2, 48, 90
4, 3419, Note_on_c, 2, 48, 0
4, 3420, Note_on_c, 2, 45, 90
4, 3479, Note_on_c, 2, 45, 0
4, 3480, Note_on_c, 2, 46, 90
4, 3539, Note_on_c, 2, 46, 0
4, 3540, Note_on_c, 2, 43, 90
4, 3599, Note_on_c, 2, 43, 0
4, 3600, Note_on_c, 2, 48, 90
4, 3659, Note_on_c, 2, 48, 0
4, 3660, Note_on_c, 2, 45, 90
4, 3719, Note_on_c, 2, 45, 0
4, 3720, Note_on_c, 2, 46, 90
4, 3779, Note_on_c, 2, 46, 0
4, 3780, Note_on_c, 2, 43, 90
4, 3839, Note_on_c, 2, 43, 0
4, 3840, Note_on_c, 2, 50, 90
4, 3899, Note_on_c, 2, 50, 0
4, 3900, Note_on_c, 2, 38, 90
4, 3959, Note_on_c, 2, 38, 0
4, 3960, Note_on_c, 2, 43, 90
4, 4019, Note_on_c, 2, 43, 0
4, 4020, Note_on_c, 2, 55, 90
4, 4049, Note_on_c, 2, 55, 0
4, 4050, Note_on_c, 2, 54, 90
4, 4079, Note_on_c, 2, 54, 0
4, 4080, Note_on_c, 2, 55, 90
4, 4139, Note_on_c, 2, 55, 0
4, 4140, Note_on_c, 2, 50, 90
4, 4169, Note_on_c, 2, 50, 0
4, 4170, Note_on_c, 2, 48, 90
4, 4199, Note_on_c, 2, 48, 0
4, 4200, Note_on_c, 2, 50, 90
4, 4259, Note_on_c, 2, 50, 0
4, 4260, Note_on_c, 2, 46, 90
4, 4289, Note_on_c, 2, 46, 0
4, 4290, Note_on_c, 2, 45, 90
4, 4319, Note_on_c, 2, 45, 0
4, 4320, Note_on_c, 2, 46, 90
4, 4379, Note_on_c, 2, 46, 0
4, 4380, Note_on_c, 2, 43, 90
4, 4409, Note_on_c, 2, 43, 0
4, 4410, Note_on_c, 2, 42, 90
4, 4439, Note_on_c, 2, 42, 0
4, 4440, Note_on_c, 2, 43, 90
4, 4499, Note_on_c, 2, 43, 0
4, 4500, Note_on_c, 2, 46, 90
4, 4559, Note_on_c, 2, 46, 0
4, 4560, Note_on_c, 2, 50, 90
4, 4619, Note_on_c, 2, 50, 0
4, 4620, Note_on_c, 2, 55, 90
4, 4679, Note_on_c, 2, 55, 0
4, 4680, Note_on_c, 2, 57, 90
4, 4709, Note_on_c, 2, 57, 0
4, 4710, Note_on_c, 2, 55, 90
4, 4739, Note_on_c, 2, 55, 0
4, 4740, Note_on_c, 2, 54, 90
4, 4769, Note_on_c, 2, 54, 0
4, 4770, Note_on_c, 2, 52, 90
4, 4799, Note_on_c, 2, 52, 0
4, 4800, Note_on_c, 2, 50, 90
4, 4859, Note_on_c, 2, 50, 0
4, 4860, Note_on_c, 2, 57, 90
4, 4919, Note_on_c, 2, 57, 0
4, 4920, Note_on_c, 2, 58, 90
4, 4979, Note_on_c, 2, 58, 0
4, 4980, Note_on_c, 2, 55, 90
4, 5039, Note_on_c, 2, 55, 0
4, 5040, Note_on_c, 2, 43, 90
4, 5099, Note_on_c, 2, 43, 0
4, 5100, Note_on_c, 2, 55, 90
4, 5129, Note_on_c, 2, 55, 0
4, 5130, Note_on_c, 2, 57, 90
4, 5159, Note_on_c, 2, 57, 0
4, 5160, Note_on_c, 2, 58, 90
4, 5219, Note_on_c, 2, 58, 0
4, 5220, Note_on_c, 2, 55, 90
4, 5279, Note_on_c, 2, 55, 0
4, 5280, Note_on_c, 2, 43, 90
4, 5339, Note_on_c, 2, 43, 0
4, 5340, Note_on_c, 2, 45, 90
4, 5399, Note_on_c, 2, 45, 0
4, 5400, Note_on_c, 2, 46, 90
4, 5459, Note_on_c, 2, 46, 0
4, 5460, Note_on_c, 2, 43, 90
4, 5519, Note_on_c, 2, 43, 0
4, 5520, Note_on_c, 2, 41, 90
4, 5579, Note_on_c, 2, 41, 0
4, 5580, Note_on_c, 2, 39, 90
4, 5639, Note_on_c, 2, 39, 0
4, 5640, Note_on_c, 2, 38, 90
4, 5699, Note_on_c, 2, 38, 0
4, 5700, Note_on_c, 2, 40, 90
4, 5759, Note_on_c, 2, 40, 0
4, 5760, Note_on_c, 2, 42, 90
4, 5819, Note_on_c, 2, 42, 0
4, 5820, Note_on_c, 2, 38, 90
4, 5879, Note_on_c, 2, 38, 0
4, 5880, Note_on_c, 2, 43, 90
4, 5939, Note_on_c, 2, 43, 0
4, 5940, Note_on_c, 2, 46, 90
4, 5999, Note_on_c, 2, 46, 0
4, 6000, Note_on_c, 2, 50, 90
4, 6059, Note_on_c, 2, 50, 0
4, 6060, Note_on_c, 2, 55, 90
4, 6119, Note_on_c, 2, 55, 0
4, 6120, Note_on_c, 2, 51, 90
4, 6149, Note_on_c, 2, 51, 0
4, 6150, Note_on_c, 2, 53, 90
4, 6179, Note_on_c, 2, 53, 0
4, 6180, Note_on_c, 2, 51, 90
4, 6209, Note_on_c, 2, 51, 0
4, 6210, Note_on_c, 2, 50, 90
4, 6239, Note_on_c, 2, 50, 0
4, 6240, Note_on_c, 2, 48, 90
4, 6269, Note_on_c, 2, 48, 0
4, 6270, Note_on_c, 2, 46, 90
4, 6299, Note_on_c, 2, 46, 0
4, 6300, Note_on_c, 2, 45, 90
4, 6329, Note_on_c, 2, 45, 0
4, 6330, Note_on_c, 2, 43, 90
4, 6359, Note_on_c, 2, 43, 0
4, 6360, Note_on_c, 2, 41, 90
4, 6419, Note_on_c, 2, 41, 0
4, 6420, Note_on_c, 2, 45, 90
4, 6479, Note_on_c, 2, 45, 0
4, 6480, Note_on_c, 2, 48, 90
4, 6539, Note_on_c, 2, 48, 0
4, 6540, Note_on_c, 2, 53, 90
4, 6599, Note_on_c, 2, 53, 0
4, 6600, Note_on_c, 2, 50, 90
4, 6629, Note_on_c, 2, 50, 0
4, 6630, Note_on_c, 2, 51, 90
4, 6659, Note_on_c, 2, 51, 0
4, 6660, Note_on_c, 2, 50, 90
4, 6689, Note_on_c, 2, 50, 0
4, 6690, Note_on_c, 2, 48, 90
4, 6719, Note_on_c, 2, 48, 0
4, 6720, Note_on_c, 2, 46, 90
4, 6749, Note_on_c, 2, 46, 0
4, 6750, Note_on_c, 2, 45, 90
4, 6779, Note_on_c, 2, 45, 0
4, 6780, Note_on_c, 2, 43, 90
4, 6809, Note_on_c, 2, 43, 0
4, 6810, Note_on_c, 2, 41, 90
4, 6839, Note_on_c, 2, 41, 0
4, 6840, Note_on_c, 2, 39, 90
4, 6899, Note_on_c, 2, 39, 0
4, 6900, Note_on_c, 2, 43, 90
4, 6959, Note_on_c, 2, 43, 0
4, 6960, Note_on_c, 2, 46, 90
4, 7019, Note_on_c, 2, 46, 0
4, 7020, Note_on_c, 2, 51, 90
4, 7079, Note_on_c, 2, 51, 0
4, 7080, Note_on_c, 2, 48, 90
4, 7139, Note_on_c, 2, 48, 0
4, 7140, Note_on_c, 2, 48, 90
4, 7199, Note_on_c, 2, 48, 0
4, 7200, Note_on_c, 2, 48, 90
4, 7259, Note_on_c, 2, 48, 0
4, 7260, Note_on_c, 2, 48, 90
4, 7319, Note_on_c, 2, 48, 0
4, 7320, Note_on_c, 2, 48, 90
4, 7379, Note_on_c, 2, 48, 0
4, 7380, Note_on_c, 2, 48, 90
4, 7439, Note_on_c, 2, 48, 0
4, 7440, Note_on_c, 2, 48, 90
4, 7499, Note_on_c, 2, 48, 0
4, 7500, Note_on_c, 2, 48, 90
4, 7559, Note_on_c, 2, 48, 0
4, 7560, Note_on_c, 2, 48, 90
4, 7619, Note_on_c, 2, 48, 0
4, 7620, Note_on_c, 2, 48, 90
4, 7679, Note_on_c, 2, 48, 0
4, 7680, Note_on_c, 2, 48, 90
4, 7739, Note_on_c, 2, 48, 0
4, 7740, Note_on_c, 2, 48, 90
4, 7799, Note_on_c, 2, 48, 0
4, 7800, Note_on_c, 2, 46, 90
4, 7859, Note_on_c, 2, 46, 0
4, 7860, Note_on_c, 2, 50, 90
4, 7919, Note_on_c, 2, 50, 0
4, 7920, Note_on_c, 2, 46, 90
4, 7979, Note_on_c, 2, 46, 0
4, 7980, Note_on_c, 2, 43, 90
4, 8039, Note_on_c, 2, 43, 0
4, 8040, Note_on_c, 2, 48, 90
4, 8099, Note_on_c, 2, 48, 0
4, 8100, Note_on_c, 2, 51, 90
4, 8159, Note_on_c, 2, 51, 0
4, 8160, Note_on_c, 2, 48, 90
4, 8219, Note_on_c, 2, 48, 0
4, 8220, Note_on_c, 2, 45, 90
4, 8279, Note_on_c, 2, 45, 0
4, 8280, Note_on_c, 2, 46, 90
4, 8339, Note_on_c, 2, 46, 0
4, 8340, Note_on_c, 2, 43, 90
4, 8399, Note_on_c, 2, 43, 0
4, 8400, Note_on_c, 2, 48, 90
4, 8459, Note_on_c, 2, 48, 0
4, 8460, Note_on_c, 2, 45, 90
4, 8519, Note_on_c, 2, 45, 0
4, 8520, Note_on_c, 2, 46, 90
4, 8579, Note_on_c, 2, 46, 0
4, 8580, Note_on_c, 2, 48, 90
4, 8639, Note_on_c, 2, 48, 0
4, 8640, Note_on_c, 2, 50, 90
4, 8699, Note_on_c, 2, 50, 0
4, 8700, Note_on_c, 2, 38, 90
4, 8759, Note_on_c, 2, 38, 0
4, 8760, Note_on_c, 2, 43, 90
4, 8819, Note_on_c, 2, 43, 0
4, 8820, Note_on_c, 2, 55, 90
4, 8849, Note_on_c, 2, 55, 0
4, 8850, Note_on_c, 2, 54, 90
4, 8879, Note_on_c, 2, 54, 0
4, 8880, Note_on_c, 2, 55, 90
4, 8939, Note_on_c, 2, 55, 0
4, 8940, Note_on_c, 2, 52, 90
4, 8969, Note_on_c, 2, 52, 0
4, 8970, Note_on_c, 2, 50, 90
4, 8999, Note_on_c, 2, 50, 0
4, 9000, Note_on_c, 2, 52, 90
4, 9059, Note_on_c, 2, 52, 0
4, 9060, Note_on_c, 2, 48, 90
4, 9089, Note_on_c, 2, 48, 0
4, 9090, Note_on_c, 2, 46, 90
4, 9119, Note_on_c, 2, 46, 0
4, 9120, Note_on_c, 2, 48, 90
4, 9179, Note_on_c, 2, 48, 0
4, 9180, Note_on_c, 2, 36, 90
4, 9239, Note_on_c, 2, 36, 0
4, 9240, Note_on_c, 2, 41, 90
4, 9299, Note_on_c, 2, 41, 0
4, 9300, Note_on_c, 2, 53, 90
4, 9329, Note_on_c, 2, 53, 0
4, 9330, Note_on_c, 2, 52, 90
4, 9359, Note_on_c, 2, 52, 0
4, 9360, Note_on_c, 2, 53, 90
4, 9419, Note_on_c, 2, 53, 0
4, 9420, Note_on_c, 2, 50, 90
4, 9449, Note_on_c, 2, 50, 0
4, 9450, Note_on_c, 2, 49, 90
4, 9479, Note_on_c, 2, 49, 0
4, 9480, Note_on_c, 2, 50, 90
4, 9539, Note_on_c, 2, 50, 0
4, 9540, Note_on_c, 2, 46, 90
4, 9569, Note_on_c, 2, 46, 0
4, 9570, Note_on_c, 2, 45, 90
4, 9599, Note_on_c, 2, 45, 0
4, 9600, Note_on_c, 2, 46, 90
4, 9659, Note_on_c, 2, 46, 0
4, 9660, Note_on_c, 2, 34, 90
4, 9719, Note_on_c, 2, 34, 0
4, 9720, Note_on_c, 2, 40, 90
4, 9779, Note_on_c, 2, 40, 0
4, 9780, Note_on_c, 2, 52, 90
4, 9809, Note_on_c, 2, 52, 0
4, 9810, Note_on_c, 2, 50, 90
4, 9839, Note_on_c, 2, 50, 0
4, 9840, Note_on_c, 2, 52, 90
4, 9899, Note_on_c, 2, 52, 0
4, 9900, Note_on_c, 2, 49, 90
4, 9929, Note_on_c, 2, 49, 0
4, 9930, Note_on_c, 2, 47, 90
4, 9959, Note_on_c, 2, 47, 0
4, 9960, Note_on_c, 2, 49, 90
4, 10019, Note_on_c, 2, 49, 0
4, 10020, Note_on_c, 2, 45, 90
4, 10049, Note_on_c, 2, 45, 0
4, 10050, Note_on_c, 2, 43, 90
4, 10079, Note_on_c, 2, 43, 0
4, 10080, Note_on_c, 2, 45, 90
4, 10139, Note_on_c, 2, 45, 0
4, 10140, Note_on_c, 2, 33, 90
4, 10199, Note_on_c, 2, 33, 0
4, 10200, Note_on_c, 2, 38, 90
4, 10259, Note_on_c, 2, 38, 0
4, 10260, Note_on_c, 2, 41, 90
4, 10289, Note_on_c, 2, 41, 0
4, 10290, Note_on_c, 2, 40, 90
4, 10319, Note_on_c, 2, 40, 0
4, 10320, Note_on_c, 2, 41, 90
4, 10379, Note_on_c, 2, 41, 0
4, 10380, Note_on_c, 2, 38, 90
4, 10439, Note_on_c, 2, 38, 0
4, 10440, Note_on_c, 2, 43, 90
4, 10499, Note_on_c, 2, 43, 0
4, 10500, Note_on_c, 2, 31, 90
4, 10559, Note_on_c, 2, 31, 0
4, 10560, Note_on_c, 2, 43, 90
4, 10619, Note_on_c, 2, 43, 0
4, 10620, Note_on_c, 2, 40, 90
4, 10679, Note_on_c, 2, 40, 0
4, 10680, Note_on_c, 2, 41, 90
4, 10739, Note_on_c, 2, 41, 0
4, 10740, Note_on_c, 2, 38, 90
4, 10799, Note_on_c, 2, 38, 0
4, 10800, Note_on_c, 2, 43, 90
4, 10859, Note_on_c, 2, 43, 0
4, 10860, Note_on_c, 2, 40, 90
4, 10919, Note_on_c, 2, 40, 0
4, 10920, Note_on_c, 2, 41, 90
4, 10979, Note_on_c, 2, 41, 0
4, 10980, Note_on_c, 2, 46, 90
4, 11009, Note_on_c, 2, 46, 0
4, 11010, Note_on_c, 2, 43, 90
4, 11039, Note_on_c, 2, 43, 0
4, 11040, Note_on_c, 2, 45, 90
4, 11069, Note_on_c, 2, 45, 0
4, 11070, Note_on_c, 2, 49, 90
4, 11099, Note_on_c, 2, 49, 0
4, 11100, Note_on_c, 2, 52, 90
4, 11129, Note_on_c, 2, 52, 0
4, 11130, Note_on_c, 2, 57, 90
4, 11159, Note_on_c, 2, 57, 0
4, 11160, Note_on_c, 2, 53, 90
4, 11219, Note_on_c, 2, 53, 0
4, 11220, Note_on_c, 2, 50, 90
4, 11249, Note_on_c, 2, 50, 0
4, 11250, Note_on_c, 2, 52, 90
4, 11279, Note_on_c, 2, 52, 0
4, 11280, Note_on_c, 2, 53, 90
4, 11339, Note_on_c, 2, 53, 0
4, 11340, Note_on_c, 2, 55, 90
4, 11399, Note_on_c, 2, 55, 0
4, 11400, Note_on_c, 2, 53, 90
4, 11459, Note_on_c, 2, 53, 0
4, 11460, Note_on_c, 2, 57, 90
4, 11489, Note_on_c, 2, 57, 0
4, 11490, Note_on_c, 2, 55, 90
4, 11519, Note_on_c, 2, 55, 0
4, 11520, Note_on_c, 2, 53, 90
4, 11579, Note_on_c, 2, 53, 0
4, 11580, Note_on_c, 2, 50, 90
4, 11639, Note_on_c, 2, 50, 0
4, 11640, Note_on_c, 2, 55, 90
4, 11699, Note_on_c, 2, 55, 0
4, 11700, Note_on_c, 2, 52, 90
4, 11759, Note_on_c, 2, 52, 0
4, 11760, Note_on_c, 2, 57, 90
4, 11819, Note_on_c, 2, 57, 0
4, 11820, Note_on_c, 2, 45, 90
4, 11879, Note_on_c, 2, 45, 0
4, 11880, Note_on_c, 2, 38, 90
4, 11939, Note_on_c, 2, 38, 0
4, 11940, Note_on_c, 2, 50, 90
4, 11969, Note_on_c, 2, 50, 0
4, 11970, Note_on_c, 2, 51, 90
4, 11999, Note_on_c, 2, 51, 0
4, 12000, Note_on_c, 2, 50, 90
4, 12059, Note_on_c, 2, 50, 0
4, 12060, Note_on_c, 2, 48, 90
4, 12119, Note_on_c, 2, 48, 0
4, 12120, Note_on_c, 2, 46, 90
4, 12179, Note_on_c, 2, 46, 0
4, 12180, Note_on_c, 2, 50, 90
4, 12209, Note_on_c, 2, 50, 0
4, 12210, Note_on_c, 2, 48, 90
4, 12239, Note_on_c, 2, 48, 0
4, 12240, Note_on_c, 2, 50, 90
4, 12299, Note_on_c, 2, 50, 0
4, 12300, Note_on_c, 2, 46, 90
4, 12359, Note_on_c, 2, 46, 0
4, 12360, Note_on_c, 2, 51, 90
4, 12419, Note_on_c, 2, 51, 0
4, 12420, Note_on_c, 2, 55, 90
4, 12449, Note_on_c, 2, 55, 0
4, 12450, Note_on_c, 2, 53, 90
4, 12479, Note_on_c, 2, 53, 0
4, 12480, Note_on_c, 2, 51, 90
4, 12539, Note_on_c, 2, 51, 0
4, 12540, Note_on_c, 2, 48, 90
4, 12599, Note_on_c, 2, 48, 0
4, 12600, Note_on_c, 2, 50, 90
4, 12659, Note_on_c, 2, 50, 0
4, 12660, Note_on_c, 2, 46, 90
4, 12719, Note_on_c, 2, 46, 0
4, 12720, Note_on_c, 2, 51, 90
4, 12779, Note_on_c, 2, 51, 0
4, 12780, Note_on_c, 2, 48, 90
4, 12839, Note_on_c, 2, 48, 0
4, 12840, Note_on_c, 2, 50, 90
4, 12899, Note_on_c, 2, 50, 0
4, 12900, Note_on_c, 2, 58, 90
4, 12959, Note_on_c, 2, 58, 0
4, 12960, Note_on_c, 2, 52, 90
4, 13019, Note_on_c, 2, 52, 0
4, 13020, Note_on_c, 2, 48, 90
4, 13079, Note_on_c, 2, 48, 0
4, 13080, Note_on_c, 2, 41, 90
4, 13139, Note_on_c, 2, 41, 0
4, 13140, Note_on_c, 2, 45, 90
4, 13169, Note_on_c, 2, 45, 0
4, 13170, Note_on_c, 2, 43, 90
4, 13199, Note_on_c, 2, 43, 0
4, 13200, Note_on_c, 2, 45, 90
4, 13259, Note_on_c, 2, 45, 0
4, 13260, Note_on_c, 2, 41, 90
4, 13319, Note_on_c, 2, 41, 0
4, 13320, Note_on_c, 2, 46, 90
4, 13379, Note_on_c, 2, 46, 0
4, 13380, Note_on_c, 2, 34, 90
4, 13439, Note_on_c, 2, 34, 0
4, 13440, Note_on_c, 2, 46, 90
4, 13499, Note_on_c, 2, 46, 0
4, 13500, Note_on_c, 2, 43, 90
4, 13559, Note_on_c, 2, 43, 0
4, 13560, Note_on_c, 2, 45, 90
4, 13619, Note_on_c, 2, 45, 0
4, 13620, Note_on_c, 2, 41, 90
4, 13679, Note_on_c, 2, 41, 0
4, 13680, Note_on_c, 2, 46, 90
4, 13739, Note_on_c, 2, 46, 0
4, 13740, Note_on_c, 2, 43, 90
4, 13799, Note_on_c, 2, 43, 0
4, 13800, Note_on_c, 2, 45, 90
4, 13859, Note_on_c, 2, 45, 0
4, 13860, Note_on_c, 2, 46, 90
4, 13919, Note_on_c, 2, 46, 0
4, 13920, Note_on_c, 2, 48, 90
4, 13979, Note_on_c, 2, 48, 0
4, 13980, Note_on_c, 2, 36, 90
4, 14039, Note_on_c, 2, 36, 0
4, 14040, Note_on_c, 2, 41, 90
4, 14159, Note_on_c, 2, 41, 0
4, 14220, Note_on_c, 2, 53, 90
4, 14279, Note_on_c, 2, 53, 0
4, 14280, Note_on_c, 2, 50, 90
4, 14339, Note_on_c, 2, 50, 0
4, 14340, Note_on_c, 2, 46, 90
4, 14399, Note_on_c, 2, 46, 0
4, 14460, Note_on_c, 2, 52, 90
4, 14519, Note_on_c, 2, 52, 0
4, 14520, Note_on_c, 2, 49, 90
4, 14579, Note_on_c, 2, 49, 0
4, 14580, Note_on_c, 2, 45, 90
4, 14639, Note_on_c, 2, 45, 0
4, 14700, Note_on_c, 2, 50, 90
4, 14759, Note_on_c, 2, 50, 0
4, 14760, Note_on_c, 2, 46, 90
4, 14819, Note_on_c, 2, 46, 0
4, 14820, Note_on_c, 2, 43, 90
4, 14879, Note_on_c, 2, 43, 0
4, 14880, Note_on_c, 2, 37, 90
4, 14939, Note_on_c, 2, 37, 0
4, 14940, Note_on_c, 2, 45, 90
4, 14999, Note_on_c, 2, 45, 0
4, 15000, Note_on_c, 2, 50, 90
4, 15059, Note_on_c, 2, 50, 0
4, 15060, Note_on_c, 2, 38, 90
4, 15119, Note_on_c, 2, 38, 0
4, 15180, Note_on_c, 2, 50, 90
4, 15239, Note_on_c, 2, 50, 0
4, 15240, Note_on_c, 2, 55, 90
4, 15299, Note_on_c, 2, 55, 0
4, 15300, Note_on_c, 2, 58, 90
4, 15359, Note_on_c, 2, 58, 0
4, 15360, Note_on_c, 2, 52, 90
4, 15419, Note_on_c, 2, 52, 0
4, 15420, Note_on_c, 2, 55, 90
4, 15479, Note_on_c, 2, 55, 0
4, 15480, Note_on_c, 2, 57, 90
4, 15539, Note_on_c, 2, 57, 0
4, 15540, Note_on_c, 2, 61, 90
4, 15599, Note_on_c, 2, 61, 0
4, 15600, Note_on_c, 2, 53, 90
4, 15659, Note_on_c, 2, 53, 0
4, 15660, Note_on_c, 2, 57, 90
4, 15719, Note_on_c, 2, 57, 0
4, 15720, Note_on_c, 2, 58, 90
4, 15779, Note_on_c, 2, 58, 0
4, 15780, Note_on_c, 2, 62, 90
4, 15839, Note_on_c, 2, 62, 0
4, 15840, Note_on_c, 2, 55, 90
4, 15899, Note_on_c, 2, 55, 0
4, 15900, Note_on_c, 2, 58, 90
4, 15959, Note_on_c, 2, 58, 0
4, 15960, Note_on_c, 2, 49, 90
4, 16079, Note_on_c, 2, 49, 0
4, 16140, Note_on_c, 2, 55, 90
4, 16199, Note_on_c, 2, 55, 0
4, 16200, Note_on_c, 2, 53, 90
4, 16229, Note_on_c, 2, 53, 0
4, 16230, Note_on_c, 2, 52, 90
4, 16259, Note_on_c, 2, 52, 0
4, 16260, Note_on_c, 2, 53, 90
4, 16289, Note_on_c, 2, 53, 0
4, 16290, Note_on_c, 2, 55, 90
4, 16319, Note_on_c, 2, 55, 0
4, 16320, Note_on_c, 2, 57, 90
4, 16379, Note_on_c, 2, 57, 0
4, 16380, Note_on_c, 2, 45, 90
4, 16439, Note_on_c, 2, 45, 0
4, 16440, Note_on_c, 2, 50, 90
4, 16499, Note_on_c, 2, 50, 0
4, 16500, Note_on_c, 2, 45, 90
4, 16559, Note_on_c, 2, 45, 0
4, 16560, Note_on_c, 2, 38, 90
4, 16619, Note_on_c, 2, 38, 0
4, 16620, Note_on_c, 2, 50, 90
4, 16649, Note_on_c, 2, 50, 0
4, 16650, Note_on_c, 2, 52, 90
4, 16679, Note_on_c, 2, 52, 0
4, 16680, Note_on_c, 2, 53, 90
4, 16739, Note_on_c, 2, 53, 0
4, 16740, Note_on_c, 2, 50, 90
4, 16799, Note_on_c, 2, 50, 0
4, 16800, Note_on_c, 2, 38, 90
4, 16859, Note_on_c, 2, 38, 0
4, 16860, Note_on_c, 2, 50, 90
4, 16889, Note_on_c, 2, 50, 0
4, 16890, Note_on_c, 2, 52, 90
4, 16919, Note_on_c, 2, 52, 0
4, 16920, Note_on_c, 2, 53, 90
4, 16949, Note_on_c, 2, 53, 0
4, 16950, Note_on_c, 2, 55, 90
4, 16979, Note_on_c, 2, 55, 0
4, 16980, Note_on_c, 2, 57, 90
4, 17009, Note_on_c, 2, 57, 0
4, 17010, Note_on_c, 2, 55, 90
4, 17039, Note_on_c, 2, 55, 0
4, 17040, Note_on_c, 2, 53, 90
4, 17069, Note_on_c, 2, 53, 0
4, 17070, Note_on_c, 2, 52, 90
4, 17099, Note_on_c, 2, 52, 0
4, 17100, Note_on_c, 2, 53, 90
4, 17129, Note_on_c, 2, 53, 0
4, 17130, Note_on_c, 2, 50, 90
4, 17159, Note_on_c, 2, 50, 0
4, 17160, Note_on_c, 2, 49, 90
4, 17189, Note_on_c, 2, 49, 0
4, 17190, Note_on_c, 2, 50, 90
4, 17219, Note_on_c, 2, 50, 0
4, 17220, Note_on_c, 2, 52, 90
4, 17249, Note_on_c, 2, 52, 0
4, 17250, Note_on_c, 2, 50, 90
4, 17279, Note_on_c, 2, 50, 0
4, 17280, Note_on_c, 2, 49, 90
4, 17309, Note_on_c, 2, 49, 0
4, 17310, Note_on_c, 2, 47, 90
4, 17339, Note_on_c, 2, 47, 0
4, 17340, Note_on_c, 2, 45, 90
4, 17369, Note_on_c, 2, 45, 0
4, 17370, Note_on_c, 2, 43, 90
4, 17399, Note_on_c, 2, 43, 0
4, 17400, Note_on_c, 2, 42, 90
4, 17459, Note_on_c, 2, 42, 0
4, 17460, Note_on_c, 2, 51, 90
4, 17489, Note_on_c, 2, 51, 0
4, 17490, Note_on_c, 2, 50, 90
4, 17519, Note_on_c, 2, 50, 0
4, 17520, Note_on_c, 2, 51, 90
4, 17549, Note_on_c, 2, 51, 0
4, 17550, Note_on_c, 2, 48, 90
4, 17579, Note_on_c, 2, 48, 0
4, 17580, Note_on_c, 2, 54, 90
4, 17609, Note_on_c, 2, 54, 0
4, 17610, Note_on_c, 2, 52, 90
4, 17639, Note_on_c, 2, 52, 0
4, 17640, Note_on_c, 2, 54, 90
4, 17669, Note_on_c, 2, 54, 0
4, 17670, Note_on_c, 2, 50, 90
4, 17699, Note_on_c, 2, 50, 0
4, 17700, Note_on_c, 2, 57, 90
4, 17729, Note_on_c, 2, 57, 0
4, 17730, Note_on_c, 2, 55, 90
4, 17759, Note_on_c, 2, 55, 0
4, 17760, Note_on_c, 2, 57, 90
4, 17789, Note_on_c, 2, 57, 0
4, 17790, Note_on_c, 2, 54, 90
4, 17819, Note_on_c, 2, 54, 0
4, 17820, Note_on_c, 2, 57, 90
4, 17849, Note_on_c, 2, 57, 0
4, 17850, Note_on_c, 2, 60, 90
4, 17879, Note_on_c, 2, 60, 0
4, 17880, Note_on_c, 2, 54, 90
4, 17939, Note_on_c, 2, 54, 0
4, 17940, Note_on_c, 2, 57, 90
4, 17999, Note_on_c, 2, 57, 0
4, 18000, Note_on_c, 2, 62, 90
4, 18059, Note_on_c, 2, 62, 0
4, 18060, Note_on_c, 2, 50, 90
4, 18119, Note_on_c, 2, 50, 0
4, 18120, Note_on_c, 2, 43, 90
4, 18179, Note_on_c, 2, 43, 0
4, 18180, Note_on_c, 2, 45, 90
4, 18239, Note_on_c, 2, 45, 0
4, 18240, Note_on_c, 2, 46, 90
4, 18299, Note_on_c, 2, 46, 0
4, 18300, Note_on_c, 2, 48, 90
4, 18359, Note_on_c, 2, 48, 0
4, 18360, Note_on_c, 2, 47, 90
4, 18419, Note_on_c, 2, 47, 0
4, 18420, Note_on_c, 2, 56, 90
4, 18449, Note_on_c, 2, 56, 0
4, 18450, Note_on_c, 2, 55, 90
4, 18479, Note_on_c, 2, 55, 0
4, 18480, Note_on_c, 2, 56, 90
4, 18509, Note_on_c, 2, 56, 0
4, 18510, Note_on_c, 2, 53, 90
4, 18539, Note_on_c, 2, 53, 0
4, 18540, Note_on_c, 2, 59, 90
4, 18569, Note_on_c, 2, 59, 0
4, 18570, Note_on_c, 2, 57, 90
4, 18599, Note_on_c, 2, 57, 0
4, 18600, Note_on_c, 2, 59, 90
4, 18629, Note_on_c, 2, 59, 0
4, 18630, Note_on_c, 2, 55, 90
4, 18659, Note_on_c, 2, 55, 0
4, 18660, Note_on_c, 2, 62, 90
4, 18689, Note_on_c, 2, 62, 0
4, 18690, Note_on_c, 2, 60, 90
4, 18719, Note_on_c, 2, 60, 0
4, 18720, Note_on_c, 2, 62, 90
4, 18749, Note_on_c, 2, 62, 0
4, 18750, Note_on_c, 2, 59, 90
4, 18779, Note_on_c, 2, 59, 0
4, 18780, Note_on_c, 2, 62, 90
4, 18809, Note_on_c, 2, 62, 0
4, 18810, Note_on_c, 2, 65, 90
4, 18839, Note_on_c, 2, 65, 0
4, 18840, Note_on_c, 2, 59, 90
4, 18899, Note_on_c, 2, 59, 0
4, 18900, Note_on_c, 2, 62, 90
4, 18959, Note_on_c, 2, 62, 0
4, 18960, Note_on_c, 2, 59, 90
4, 19019, Note_on_c, 2, 59, 0
4, 19020, Note_on_c, 2, 55, 90
4, 19079, Note_on_c, 2, 55, 0
4, 19080, Note_on_c, 2, 48, 90
4, 19139, Note_on_c, 2, 48, 0
4, 19140, Note_on_c, 2, 50, 90
4, 19199, Note_on_c, 2, 50, 0
4, 19200, Note_on_c, 2, 51, 90
4, 19259, Note_on_c, 2, 51, 0
4, 19260, Note_on_c, 2, 48, 90
4, 19319, Note_on_c, 2, 48, 0
4, 19320, Note_on_c, 2, 41, 90
4, 19379, Note_on_c, 2, 41, 0
4, 19380, Note_on_c, 2, 44, 90
4, 19439, Note_on_c, 2, 44, 0
4, 19440, Note_on_c, 2, 48, 90
4, 19499, Note_on_c, 2, 48, 0
4, 19500, Note_on_c, 2, 53, 90
4, 19559, Note_on_c, 2, 53, 0
4, 19560, Note_on_c, 2, 50, 90
4, 19589, Note_on_c, 2, 50, 0
4, 19590, Note_on_c, 2, 51, 90
4, 19619, Note_on_c, 2, 51, 0
4, 19620, Note_on_c, 2, 50, 90
4, 19649, Note_on_c, 2, 50, 0
4, 19650, Note_on_c, 2, 48, 90
4, 19679, Note_on_c, 2, 48, 0
4, 19680, Note_on_c, 2, 46, 90
4, 19709, Note_on_c, 2, 46, 0
4, 19710, Note_on_c, 2, 44, 90
4, 19739, Note_on_c, 2, 44, 0
4, 19740, Note_on_c, 2, 43, 90
4, 19769, Note_on_c, 2, 43, 0
4, 19770, Note_on_c, 2, 41, 90
4, 19799, Note_on_c, 2, 41, 0
4, 19800, Note_on_c, 2, 39, 90
4, 19859, Note_on_c, 2, 39, 0
4, 19860, Note_on_c, 2, 43, 90
4, 19919, Note_on_c, 2, 43, 0
4, 19920, Note_on_c, 2, 46, 90
4, 19979, Note_on_c, 2, 46, 0
4, 19980, Note_on_c, 2, 51, 90
4, 20039, Note_on_c, 2, 51, 0
4, 20040, Note_on_c, 2, 48, 90
4, 20069, Note_on_c, 2, 48, 0
4, 20070, Note_on_c, 2, 50, 90
4, 20099, Note_on_c, 2, 50, 0
4, 20100, Note_on_c, 2, 48, 90
4, 20129, Note_on_c, 2, 48, 0
4, 20130, Note_on_c, 2, 46, 90
4, 20159, Note_on_c, 2, 46, 0
4, 20160, Note_on_c, 2, 44, 90
4, 20189, Note_on_c, 2, 44, 0
4, 20190, Note_on_c, 2, 43, 90
4, 20219, Note_on_c, 2, 43, 0
4, 20220, Note_on_c, 2, 41, 90
4, 20249, Note_on_c, 2, 41, 0
4, 20250, Note_on_c, 2, 39, 90
4, 20279, Note_on_c, 2, 39, 0
4, 20280, Note_on_c, 2, 38, 90
4, 20339, Note_on_c, 2, 38, 0
4, 20340, Note_on_c, 2, 41, 90
4, 20399, Note_on_c, 2, 41, 0
4, 20400, Note_on_c, 2, 44, 90
4, 20459, Note_on_c, 2, 44, 0
4, 20460, Note_on_c, 2, 50, 90
4, 20519, Note_on_c, 2, 50, 0
4, 20520, Note_on_c, 2, 47, 90
4, 20549, Note_on_c, 2, 47, 0
4, 20550, Note_on_c, 2, 48, 90
4, 20579, Note_on_c, 2, 48, 0
4, 20580, Note_on_c, 2, 47, 90
4, 20609, Note_on_c, 2, 47, 0
4, 20610, Note_on_c, 2, 45, 90
4, 20639, Note_on_c, 2, 45, 0
4, 20640, Note_on_c, 2, 43, 90
4, 20669, Note_on_c, 2, 43, 0
4, 20670, Note_on_c, 2, 41, 90
4, 20699, Note_on_c, 2, 41, 0
4, 20700, Note_on_c, 2, 39, 90
4, 20729, Note_on_c, 2, 39, 0
4, 20730, Note_on_c, 2, 38, 90
4, 20759, Note_on_c, 2, 38, 0
4, 20760, Note_on_c, 2, 36, 90
4, 20879, Note_on_c, 2, 36, 0
4, 20910, Note_on_c, 2, 53, 90
4, 20939, Note_on_c, 2, 53, 0
4, 20940, Note_on_c, 2, 51, 90
4, 20969, Note_on_c, 2, 51, 0
4, 20970, Note_on_c, 2, 50, 90
4, 20999, Note_on_c, 2, 50, 0
4, 21000, Note_on_c, 2, 51, 90
4, 21029, Note_on_c, 2, 51, 0
4, 21030, Note_on_c, 2, 50, 90
4, 21059, Note_on_c, 2, 50, 0
4, 21060, Note_on_c, 2, 48, 90
4, 21089, Note_on_c, 2, 48, 0
4, 21090, Note_on_c, 2, 47, 90
4, 21119, Note_on_c, 2, 47, 0
4, 21120, Note_on_c, 2, 48, 90
4, 21149, Note_on_c, 2, 48, 0
4, 21150, Note_on_c, 2, 43, 90
4, 21179, Note_on_c, 2, 43, 0
4, 21180, Note_on_c, 2, 51, 90
4, 21209, Note_on_c, 2, 51, 0
4, 21210, Note_on_c, 2, 50, 90
4, 21239, Note_on_c, 2, 50, 0
4, 21240, Note_on_c, 2, 51, 90
4, 21299, Note_on_c, 2, 51, 0
4, 21300, Note_on_c, 2, 48, 90
4, 21359, Note_on_c, 2, 48, 0
4, 21360, Note_on_c, 2, 46, 90
4, 21419, Note_on_c, 2, 46, 0
4, 21420, Note_on_c, 2, 44, 90
4, 21479, Note_on_c, 2, 44, 0
4, 21480, Note_on_c, 2, 43, 90
4, 21539, Note_on_c, 2, 43, 0
4, 21540, Note_on_c, 2, 45, 90
4, 21599, Note_on_c, 2, 45, 0
4, 21600, Note_on_c, 2, 47, 90
4, 21659, Note_on_c, 2, 47, 0
4, 21660, Note_on_c, 2, 43, 90
4, 21719, Note_on_c, 2, 43, 0
4, 21720, Note_on_c, 2, 48, 90
4, 21779, Note_on_c, 2, 48, 0
4, 21780, Note_on_c, 2, 36, 90
4, 21839, Note_on_c, 2, 36, 0
4, 21870, Note_on_c, 2, 47, 90
4, 21899, Note_on_c, 2, 47, 0
4, 21900, Note_on_c, 2, 48, 90
4, 21929, Note_on_c, 2, 48, 0
4, 21930, Note_on_c, 2, 50, 90
4, 21959, Note_on_c, 2, 50, 0
4, 21960, Note_on_c, 2, 51, 90
4, 21989, Note_on_c, 2, 51, 0
4, 21990, Note_on_c, 2, 48, 90
4, 22019, Note_on_c, 2, 48, 0
4, 22020, Note_on_c, 2, 51, 90
4, 22049, Note_on_c, 2, 51, 0
4, 22050, Note_on_c, 2, 55, 90
4, 22079, Note_on_c, 2, 55, 0
4, 22080, Note_on_c, 2, 60, 90
4, 22109, Note_on_c, 2, 60, 0
4, 22110, Note_on_c, 2, 55, 90
4, 22139, Note_on_c, 2, 55, 0
4, 22140, Note_on_c, 2, 51, 90
4, 22169, Note_on_c, 2, 51, 0
4, 22170, Note_on_c, 2, 55, 90
4, 22199, Note_on_c, 2, 55, 0
4, 22200, Note_on_c, 2, 48, 90
4, 22259, Note_on_c, 2, 48, 0
4, 22260, Note_on_c, 2, 60, 90
4, 22319, Note_on_c, 2, 60, 0
4, 22320, Note_on_c, 2, 58, 90
4, 22379, Note_on_c, 2, 58, 0
4, 22380, Note_on_c, 2, 56, 90
4, 22439, Note_on_c, 2, 56, 0
4, 22440, Note_on_c, 2, 55, 90
4, 22499, Note_on_c, 2, 55, 0
4, 22500, Note_on_c, 2, 57, 90
4, 22559, Note_on_c, 2, 57, 0
4, 22560, Note_on_c, 2, 59, 90
4, 22619, Note_on_c, 2, 59, 0
4, 22620, Note_on_c, 2, 55, 90
4, 22679, Note_on_c, 2, 55, 0
4, 22680, Note_on_c, 2, 51, 90
4, 22739, Note_on_c, 2, 51, 0
4, 22740, Note_on_c, 2, 48, 90
4, 22799, Note_on_c, 2, 48, 0
4, 22860, Note_on_c, 2, 51, 90
4, 22919, Note_on_c, 2, 51, 0
4, 22920, Note_on_c, 2, 48, 90
4, 22979, Note_on_c, 2, 48, 0
4, 22980, Note_on_c, 2, 44, 90
4, 23039, Note_on_c, 2, 44, 0
4, 23100, Note_on_c, 2, 50, 90
4, 23159, Note_on_c, 2, 50, 0
4, 23160, Note_on_c, 2, 47, 90
4, 23219, Note_on_c, 2, 47, 0
4, 23220, Note_on_c, 2, 43, 90
4, 23279, Note_on_c, 2, 43, 0
4, 23340, Note_on_c, 2, 48, 90
4, 23399, Note_on_c, 2, 48, 0
4, 23400, Note_on_c, 2, 44, 90
4, 23459, Note_on_c, 2, 44, 0
4, 23460, Note_on_c, 2, 41, 90
4, 23519, Note_on_c, 2, 41, 0
4, 23520, Note_on_c, 2, 35, 90
4, 23579, Note_on_c, 2, 35, 0
4, 23580, Note_on_c, 2, 47, 90
4, 23639, Note_on_c, 2, 47, 0
4, 23640, Note_on_c, 2, 48, 90
4, 23699, Note_on_c, 2, 48, 0
4, 23700, Note_on_c, 2, 36, 90
4, 23759, Note_on_c, 2, 36, 0
4, 23820, Note_on_c, 2, 48, 90
4, 23879, Note_on_c, 2, 48, 0
4, 23880, Note_on_c, 2, 53, 90
4, 23939, Note_on_c, 2, 53, 0
4, 23940, Note_on_c, 2, 56, 90
4, 23999, Note_on_c, 2, 56, 0
4, 24000, Note_on_c, 2, 50, 90
4, 24059, Note_on_c, 2, 50, 0
4, 24060, Note_on_c, 2, 53, 90
4, 24119, Note_on_c, 2, 53, 0
4, 24120, Note_on_c, 2, 55, 90
4, 24179, Note_on_c, 2, 55, 0
4, 24180, Note_on_c, 2, 59, 90
4, 24239, Note_on_c, 2, 59, 0
4, 24240, Note_on_c, 2, 51, 90
4, 24299, Note_on_c, 2, 51, 0
4, 24300, Note_on_c, 2, 55, 90
4, 24359, Note_on_c, 2, 55, 0
4, 24360, Note_on_c, 2, 56, 90
4, 24419, Note_on_c, 2, 56, 0
4, 24420, Note_on_c, 2, 60, 90
4, 24479, Note_on_c, 2, 60, 0
4, 24480, Note_on_c, 2, 53, 90
4, 24539, Note_on_c, 2, 53, 0
4, 24540, Note_on_c, 2, 56, 90
4, 24599, Note_on_c, 2, 56, 0
4, 24600, Note_on_c, 2, 47, 90
4, 24719, Note_on_c, 2, 47, 0
4, 24780, Note_on_c, 2, 53, 90
4, 24839, Note_on_c, 2, 53, 0
4, 24840, Note_on_c, 2, 51, 90
4, 24869, Note_on_c, 2, 51, 0
4, 24870, Note_on_c, 2, 50, 90
4, 24899, Note_on_c, 2, 50, 0
4, 24900, Note_on_c, 2, 51, 90
4, 24929, Note_on_c, 2, 51, 0
4, 24930, Note_on_c, 2, 53, 90
4, 24959, Note_on_c, 2, 53, 0
4, 24960, Note_on_c, 2, 55, 90
4, 25019, Note_on_c, 2, 55, 0
4, 25020, Note_on_c, 2, 43, 90
4, 25079, Note_on_c, 2, 43, 0
4, 25080, Note_on_c, 2, 48, 90
4, 25199, Note_on_c, 2, 48, 0
4, 25260, Note_on_c, 2, 43, 90
4, 25319, Note_on_c, 2, 43, 0
4, 25320, Note_on_c, 2, 48, 90
4, 25379, Note_on_c, 2, 48, 0
4, 25380, Note_on_c, 2, 60, 90
4, 25409, Note_on_c, 2, 60, 0
4, 25410, Note_on_c, 2, 58, 90
4, 25439, Note_on_c, 2, 58, 0
4, 25440, Note_on_c, 2, 56, 90
4, 25469, Note_on_c, 2, 56, 0
4, 25470, Note_on_c, 2, 55, 90
4, 25499, Note_on_c, 2, 55, 0
4, 25500, Note_on_c, 2, 53, 90
4, 25529, Note_on_c, 2, 53, 0
4, 25530, Note_on_c, 2, 52, 90
4, 25559, Note_on_c, 2, 52, 0
4, 25560, Note_on_c, 2, 53, 90
4, 25679, Note_on_c, 2, 53, 0
4, 25740, Note_on_c, 2, 41, 90
4, 25799, Note_on_c, 2, 41, 0
4, 25800, Note_on_c, 2, 46, 90
4, 25859, Note_on_c, 2, 46, 0
4, 25860, Note_on_c, 2, 58, 90
4, 25889, Note_on_c, 2, 58, 0
4, 25890, Note_on_c, 2, 56, 90
4, 25919, Note_on_c, 2, 56, 0
4, 25920, Note_on_c, 2, 55, 90
4, 25949, Note_on_c, 2, 55, 0
4, 25950, Note_on_c, 2, 53, 90
4, 25979, Note_on_c, 2, 53, 0
4, 25980, Note_on_c, 2, 51, 90
4, 26009, Note_on_c, 2, 51, 0
4, 26010, Note_on_c, 2, 50, 90
4, 26039, Note_on_c, 2, 50, 0
4, 26040, Note_on_c, 2, 51, 90
4, 26159, Note_on_c, 2, 51, 0
4, 26220, Note_on_c, 2, 39, 90
4, 26279, Note_on_c, 2, 39, 0
4, 26280, Note_on_c, 2, 44, 90
4, 26339, Note_on_c, 2, 44, 0
4, 26340, Note_on_c, 2, 56, 90
4, 26369, Note_on_c, 2, 56, 0
4, 26370, Note_on_c, 2, 55, 90
4, 26399, Note_on_c, 2, 55, 0
4, 26400, Note_on_c, 2, 53, 90
4, 26459, Note_on_c, 2, 53, 0
4, 26460, Note_on_c, 2, 51, 90
4, 26519, Note_on_c, 2, 51, 0
4, 26520, Note_on_c, 2, 58, 90
4, 26579, Note_on_c, 2, 58, 0
4, 26580, Note_on_c, 2, 56, 90
4, 26609, Note_on_c, 2, 56, 0
4, 26610, Note_on_c, 2, 55, 90
4, 26639, Note_on_c, 2, 55, 0
4, 26640, Note_on_c, 2, 53, 90
4, 26699, Note_on_c, 2, 53, 0
4, 26700, Note_on_c, 2, 55, 90
4, 26759, Note_on_c, 2, 55, 0
4, 26760, Note_on_c, 2, 56, 90
4, 26819, Note_on_c, 2, 56, 0
4, 26820, Note_on_c, 2, 56, 90
4, 26879, Note_on_c, 2, 56, 0
4, 26880, Note_on_c, 2, 56, 90
4, 26939, Note_on_c, 2, 56, 0
4, 26940, Note_on_c, 2, 56, 90
4, 26999, Note_on_c, 2, 56, 0
4, 27000, Note_on_c, 2, 55, 90
4, 27059, Note_on_c, 2, 55, 0
4, 27060, Note_on_c, 2, 55, 90
4, 27089, Note_on_c, 2, 55, 0
4, 27090, Note_on_c, 2, 53, 90
4, 27119, Note_on_c, 2, 53, 0
4, 27120, Note_on_c, 2, 55, 90
4, 27179, Note_on_c, 2, 55, 0
4, 27180, Note_on_c, 2, 51, 90
4, 27239, Note_on_c, 2, 51, 0
4, 27240, Note_on_c, 2, 56, 90
4, 27299, Note_on_c, 2, 56, 0
4, 27300, Note_on_c, 2, 44, 90
4, 27359, Note_on_c, 2, 44, 0
4, 27360, Note_on_c, 2, 56, 90
4, 27419, Note_on_c, 2, 56, 0
4, 27420, Note_on_c, 2, 53, 90
4, 27479, Note_on_c, 2, 53, 0
4, 27480, Note_on_c, 2, 55, 90
4, 27539, Note_on_c, 2, 55, 0
4, 27540, Note_on_c, 2, 51, 90
4, 27599, Note_on_c, 2, 51, 0
4, 27600, Note_on_c, 2, 56, 90
4, 27659, Note_on_c, 2, 56, 0
4, 27660, Note_on_c, 2, 53, 90
4, 27719, Note_on_c, 2, 53, 0
4, 27720, Note_on_c, 2, 55, 90
4, 27779, Note_on_c, 2, 55, 0
4, 27780, Note_on_c, 2, 56, 90
4, 27839, Note_on_c, 2, 56, 0
4, 27840, Note_on_c, 2, 58, 90
4, 27899, Note_on_c, 2, 58, 0
4, 27900, Note_on_c, 2, 46, 90
4, 27959, Note_on_c, 2, 46, 0
4, 27960, Note_on_c, 2, 39, 90
4, 28079, Note_on_c, 2, 39, 0
4, 28140, Note_on_c, 2, 34, 90
4, 28199, Note_on_c, 2, 34, 0
4, 28200, Note_on_c, 2, 39, 90
4, 28259, Note_on_c, 2, 39, 0
4, 28260, Note_on_c, 2, 51, 90
4, 28289, Note_on_c, 2, 51, 0
4, 28290, Note_on_c, 2, 49, 90
4, 28319, Note_on_c, 2, 49, 0
4, 28320, Note_on_c, 2, 48, 90
4, 28349, Note_on_c, 2, 48, 0
4, 28350, Note_on_c, 2, 46, 90
4, 28379, Note_on_c, 2, 46, 0
4, 28380, Note_on_c, 2, 44, 90
4, 28409, Note_on_c, 2, 44, 0
4, 28410, Note_on_c, 2, 43, 90
4, 28439, Note_on_c, 2, 43, 0
4, 28440, Note_on_c, 2, 44, 90
4, 28559, Note_on_c, 2, 44, 0
4, 28620, Note_on_c, 2, 44, 90
4, 28679, Note_on_c, 2, 44, 0
4, 28680, Note_on_c, 2, 38, 90
4, 28739, Note_on_c, 2, 38, 0
4, 28740, Note_on_c, 2, 50, 90
4, 28769, Note_on_c, 2, 50, 0
4, 28770, Note_on_c, 2, 48, 90
4, 28799, Note_on_c, 2, 48, 0
4, 28800, Note_on_c, 2, 46, 90
4, 28829, Note_on_c, 2, 46, 0
4, 28830, Note_on_c, 2, 44, 90
4, 28859, Note_on_c, 2, 44, 0
4, 28860, Note_on_c, 2, 43, 90
4, 28889, Note_on_c, 2, 43, 0
4, 28890, Note_on_c, 2, 41, 90
4, 28919, Note_on_c, 2, 41, 0
4, 28920, Note_on_c, 2, 43, 90
4, 29039, Note_on_c, 2, 43, 0
4, 29100, Note_on_c, 2, 43, 90
4, 29159, Note_on_c, 2, 43, 0
4, 29160, Note_on_c, 2, 36, 90
4, 29219, Note_on_c, 2, 36, 0
4, 29220, Note_on_c, 2, 48, 90
4, 29249, Note_on_c, 2, 48, 0
4, 29250, Note_on_c, 2, 46, 90
4, 29279, Note_on_c, 2, 46, 0
4, 29280, Note_on_c, 2, 44, 90
4, 29309, Note_on_c, 2, 44, 0
4, 29310, Note_on_c, 2, 43, 90
4, 29339, Note_on_c, 2, 43, 0
4, 29340, Note_on_c, 2, 41, 90
4, 29369, Note_on_c, 2, 41, 0
4, 29370, Note_on_c, 2, 39, 90
4, 29399, Note_on_c, 2, 39, 0
4, 29400, Note_on_c, 2, 41, 90
4, 29459, Note_on_c, 2, 41, 0
4, 29460, Note_on_c, 2, 53, 90
4, 29489, Note_on_c, 2, 53, 0
4, 29490, Note_on_c, 2, 51, 90
4, 29519, Note_on_c, 2, 51, 0
4, 29520, Note_on_c, 2, 50, 90
4, 29579, Note_on_c, 2, 50, 0
4, 29580, Note_on_c, 2, 53, 90
4, 29639, Note_on_c, 2, 53, 0
4, 29640, Note_on_c, 2, 46, 90
4, 29699, Note_on_c, 2, 46, 0
4, 29700, Note_on_c, 2, 46, 90
4, 29759, Note_on_c, 2, 46, 0
4, 29760, Note_on_c, 2, 46, 90
4, 29819, Note_on_c, 2, 46, 0
4, 29820, Note_on_c, 2, 46, 90
4, 29879, Note_on_c, 2, 46, 0
4, 29880, Note_on_c, 2, 46, 90
4, 29939, Note_on_c, 2, 46, 0
4, 29940, Note_on_c, 2, 46, 90
4, 29999, Note_on_c, 2, 46, 0
4, 30000, Note_on_c, 2, 46, 90
4, 30059, Note_on_c, 2, 46, 0
4, 30060, Note_on_c, 2, 46, 90
4, 30119, Note_on_c, 2, 46, 0
4, 30120, Note_on_c, 2, 46, 90
4, 30179, Note_on_c, 2, 46, 0
4, 30180, Note_on_c, 2, 46, 90
4, 30239, Note_on_c, 2, 46, 0
4, 30240, Note_on_c, 2, 46, 90
4, 30299, Note_on_c, 2, 46, 0
4, 30300, Note_on_c, 2, 46, 90
4, 30359, Note_on_c, 2, 46, 0
4, 30360, Note_on_c, 2, 39, 90
4, 30419, Note_on_c, 2, 39, 0
4, 30420, Note_on_c, 2, 63, 90
4, 30449, Note_on_c, 2, 63, 0
4, 30450, Note_on_c, 2, 62, 90
4, 30479, Note_on_c, 2, 62, 0
4, 30480, Note_on_c, 2, 63, 90
4, 30539, Note_on_c, 2, 63, 0
4, 30540, Note_on_c, 2, 58, 90
4, 30569, Note_on_c, 2, 58, 0
4, 30570, Note_on_c, 2, 56, 90
4, 30599, Note_on_c, 2, 56, 0
4, 30600, Note_on_c, 2, 58, 90
4, 30659, Note_on_c, 2, 58, 0
4, 30660, Note_on_c, 2, 55, 90
4, 30689, Note_on_c, 2, 55, 0
4, 30690, Note_on_c, 2, 53, 90
4, 30719, Note_on_c, 2, 53, 0
4, 30720, Note_on_c, 2, 55, 90
4, 30779, Note_on_c, 2, 55, 0
4, 30780, Note_on_c, 2, 51, 90
4, 30809, Note_on_c, 2, 51, 0
4, 30810, Note_on_c, 2, 50, 90
4, 30839, Note_on_c, 2, 50, 0
4, 30840, Note_on_c, 2, 51, 90
4, 30899, Note_on_c, 2, 51, 0
4, 30900, Note_on_c, 2, 55, 90
4, 30959, Note_on_c, 2, 55, 0
4, 30960, Note_on_c, 2, 58, 90
4, 31019, Note_on_c, 2, 58, 0
4, 31020, Note_on_c, 2, 63, 90
4, 31079, Note_on_c, 2, 63, 0
4, 31080, Note_on_c, 2, 58, 90
4, 31139, Note_on_c, 2, 58, 0
4, 31140, Note_on_c, 2, 46, 90
4, 31230, Note_on_c, 2, 46, 0
4, 31230, Note_on_c, 2, 44, 90
4, 31259, Note_on_c, 2, 44, 0
4, 31260, Note_on_c, 2, 43, 90
4, 31289, Note_on_c, 2, 43, 0
4, 31290, Note_on_c, 2, 41, 90
4, 31319, Note_on_c, 2, 41, 0
4, 31320, Note_on_c, 2, 40, 90
4, 31379, Note_on_c, 2, 40, 0
4, 31380, Note_on_c, 2, 49, 90
4, 31409, Note_on_c, 2, 49, 0
4, 31410, Note_on_c, 2, 48, 90
4, 31439, Note_on_c, 2, 48, 0
4, 31440, Note_on_c, 2, 49, 90
4, 31469, Note_on_c, 2, 49, 0
4, 31470, Note_on_c, 2, 46, 90
4, 31499, Note_on_c, 2, 46, 0
4, 31500, Note_on_c, 2, 52, 90
4, 31529, Note_on_c, 2, 52, 0
4, 31530, Note_on_c, 2, 50, 90
4, 31559, Note_on_c, 2, 50, 0
4, 31560, Note_on_c, 2, 52, 90
4, 31589, Note_on_c, 2, 52, 0
4, 31590, Note_on_c, 2, 48, 90
4, 31619, Note_on_c, 2, 48, 0
4, 31620, Note_on_c, 2, 55, 90
4, 31649, Note_on_c, 2, 55, 0
4, 31650, Note_on_c, 2, 53, 90
4, 31679, Note_on_c, 2, 53, 0
4, 31680, Note_on_c, 2, 55, 90
4, 31709, Note_on_c, 2, 55, 0
4, 31710, Note_on_c, 2, 52, 90
4, 31739, Note_on_c, 2, 52, 0
4, 31740, Note_on_c, 2, 55, 90
4, 31769, Note_on_c, 2, 55, 0
4, 31770, Note_on_c, 2, 58, 90
4, 31799, Note_on_c, 2, 58, 0
4, 31800, Note_on_c, 2, 52, 90
4, 31859, Note_on_c, 2, 52, 0
4, 31860, Note_on_c, 2, 55, 90
4, 31919, Note_on_c, 2, 55, 0
4, 31920, Note_on_c, 2, 60, 90
4, 31979, Note_on_c, 2, 60, 0
4, 31980, Note_on_c, 2, 48, 90
4, 32039, Note_on_c, 2, 48, 0
4, 32040, Note_on_c, 2, 53, 90
4, 32099, Note_on_c, 2, 53, 0
4, 32100, Note_on_c, 2, 55, 90
4, 32159, Note_on_c, 2, 55, 0
4, 32160, Note_on_c, 2, 56, 90
4, 32219, Note_on_c, 2, 56, 0
4, 32220, Note_on_c, 2, 53, 90
4, 32279, Note_on_c, 2, 53, 0
4, 32280, Note_on_c, 2, 47, 90
4, 32339, Note_on_c, 2, 47, 0
4, 32340, Note_on_c, 2, 56, 90
4, 32369, Note_on_c, 2, 56, 0
4, 32370, Note_on_c, 2, 55, 90
4, 32399, Note_on_c, 2, 55, 0
4, 32400, Note_on_c, 2, 56, 90
4, 32429, Note_on_c, 2, 56, 0
4, 32430, Note_on_c, 2, 53, 90
4, 32459, Note_on_c, 2, 53, 0
4, 32460, Note_on_c, 2, 59, 90
4, 32489, Note_on_c, 2, 59, 0
4, 32490, Note_on_c, 2, 57, 90
4, 32519, Note_on_c, 2, 57, 0
4, 32520, Note_on_c, 2, 59, 90
4, 32549, Note_on_c, 2, 59, 0
4, 32550, Note_on_c, 2, 55, 90
4, 32579, Note_on_c, 2, 55, 0
4, 32580, Note_on_c, 2, 62, 90
4, 32609, Note_on_c, 2, 62, 0
4, 32610, Note_on_c, 2, 60, 90
4, 32639, Note_on_c, 2, 60, 0
4, 32640, Note_on_c, 2, 62, 90
4, 32669, Note_on_c, 2, 62, 0
4, 32670, Note_on_c, 2, 59, 90
4, 32699, Note_on_c, 2, 59, 0
4, 32700, Note_on_c, 2, 62, 90
4, 32729, Note_on_c, 2, 62, 0
4, 32730, Note_on_c, 2, 65, 90
4, 32759, Note_on_c, 2, 65, 0
4, 32760, Note_on_c, 2, 59, 90
4, 32819, Note_on_c, 2, 59, 0
4, 32820, Note_on_c, 2, 62, 90
4, 32879, Note_on_c, 2, 62, 0
4, 32880, Note_on_c, 2, 55, 90
4, 32939, Note_on_c, 2, 55, 0
4, 32940, Note_on_c, 2, 43, 90
4, 32999, Note_on_c, 2, 43, 0
4, 33000, Note_on_c, 2, 48, 90
4, 33059, Note_on_c, 2, 48, 0
4, 33060, Note_on_c, 2, 36, 90
4, 33119, Note_on_c, 2, 36, 0
4, 33120, Note_on_c, 2, 39, 90
4, 33179, Note_on_c, 2, 39, 0
4, 33180, Note_on_c, 2, 43, 90
4, 33239, Note_on_c, 2, 43, 0
4, 33240, Note_on_c, 2, 48, 90
4, 33299, Note_on_c, 2, 48, 0
4, 33300, Note_on_c, 2, 60, 90
4, 33329, Note_on_c, 2, 60, 0
4, 33330, Note_on_c, 2, 59, 90
4, 33359, Note_on_c, 2, 59, 0
4, 33360, Note_on_c, 2, 60, 90
4, 33419, Note_on_c, 2, 60, 0
4, 33420, Note_on_c, 2, 57, 90
4, 33449, Note_on_c, 2, 57, 0
4, 33450, Note_on_c, 2, 55, 90
4, 33479, Note_on_c, 2, 55, 0
4, 33480, Note_on_c, 2, 57, 90
4, 33539, Note_on_c, 2, 57, 0
4, 33540, Note_on_c, 2, 53, 90
4, 33569, Note_on_c, 2, 53, 0
4, 33570, Note_on_c, 2, 52, 90
4, 33599, Note_on_c, 2, 52, 0
4, 33600, Note_on_c, 2, 53, 90
4, 33659, Note_on_c, 2, 53, 0
4, 33660, Note_on_c, 2, 41, 90
4, 33719, Note_on_c, 2, 41, 0
4, 33720, Note_on_c, 2, 46, 90
4, 33779, Note_on_c, 2, 46, 0
4, 33780, Note_on_c, 2, 58, 90
4, 33809, Note_on_c, 2, 58, 0
4, 33810, Note_on_c, 2, 57, 90
4, 33839, Note_on_c, 2, 57, 0
4, 33840, Note_on_c, 2, 58, 90
4, 33899, Note_on_c, 2, 58, 0
4, 33900, Note_on_c, 2, 55, 90
4, 33929, Note_on_c, 2, 55, 0
4, 33930, Note_on_c, 2, 54, 90
4, 33959, Note_on_c, 2, 54, 0
4, 33960, Note_on_c, 2, 55, 90
4, 34019, Note_on_c, 2, 55, 0
4, 34020, Note_on_c, 2, 51, 90
4, 34049, Note_on_c, 2, 51, 0
4, 34050, Note_on_c, 2, 50, 90
4, 34079, Note_on_c, 2, 50, 0
4, 34080, Note_on_c, 2, 51, 90
4, 34139, Note_on_c, 2, 51, 0
4, 34140, Note_on_c, 2, 39, 90
4, 34199, Note_on_c, 2, 39, 0
4, 34200, Note_on_c, 2, 45, 90
4, 34259, Note_on_c, 2, 45, 0
4, 34260, Note_on_c, 2, 57, 90
4, 34289, Note_on_c, 2, 57, 0
4, 34290, Note_on_c, 2, 55, 90
4, 34319, Note_on_c, 2, 55, 0
4, 34320, Note_on_c, 2, 57, 90
4, 34379, Note_on_c, 2, 57, 0
4, 34380, Note_on_c, 2, 54, 90
4, 34409, Note_on_c, 2, 54, 0
4, 34410, Note_on_c, 2, 52, 90
4, 34439, Note_on_c, 2, 52, 0
4, 34440, Note_on_c, 2, 54, 90
4, 34499, Note_on_c, 2, 54, 0
4, 34500, Note_on_c, 2, 50, 90
4, 34529, Note_on_c, 2, 50, 0
4, 34530, Note_on_c, 2, 48, 90
4, 34559, Note_on_c, 2, 48, 0
4, 34560, Note_on_c, 2, 50, 90
4, 34619, Note_on_c, 2, 50, 0
4, 34620, Note_on_c, 2, 38, 90
4, 34679, Note_on_c, 2, 38, 0
4, 34680, Note_on_c, 2, 43, 90
4, 34739, Note_on_c, 2, 43, 0
4, 34740, Note_on_c, 2, 55, 90
4, 34769, Note_on_c, 2, 55, 0
4, 34770, Note_on_c, 2, 57, 90
4, 34799, Note_on_c, 2, 57, 0
4, 34800, Note_on_c, 2, 58, 90
4, 34829, Note_on_c, 2, 58, 0
4, 34830, Note_on_c, 2, 60, 90
4, 34859, Note_on_c, 2, 60, 0
4, 34860, Note_on_c, 2, 58, 90
4, 34889, Note_on_c, 2, 58, 0
4, 34890, Note_on_c, 2, 57, 90
4, 34919, Note_on_c, 2, 57, 0
4, 34920, Note_on_c, 2, 58, 90
4, 34949, Note_on_c, 2, 58, 0
4, 34950, Note_on_c, 2, 57, 90
4, 34979, Note_on_c, 2, 57, 0
4, 34980, Note_on_c, 2, 55, 90
4, 35009, Note_on_c, 2, 55, 0
4, 35010, Note_on_c, 2, 54, 90
4, 35039, Note_on_c, 2, 54, 0
4, 35040, Note_on_c, 2, 55, 90
4, 35069, Note_on_c, 2, 55, 0
4, 35070, Note_on_c, 2, 50, 90
4, 35099, Note_on_c, 2, 50, 0
4, 35100, Note_on_c, 2, 55, 90
4, 35129, Note_on_c, 2, 55, 0
4, 35130, Note_on_c, 2, 57, 90
4, 35159, Note_on_c, 2, 57, 0
4, 35160, Note_on_c, 2, 58, 90
4, 35189, Note_on_c, 2, 58, 0
4, 35190, Note_on_c, 2, 57, 90
4, 35219, Note_on_c, 2, 57, 0
4, 35220, Note_on_c, 2, 55, 90
4, 35249, Note_on_c, 2, 55, 0
4, 35250, Note_on_c, 2, 57, 90
4, 35279, Note_on_c, 2, 57, 0
4, 35280, Note_on_c, 2, 58, 90
4, 35309, Note_on_c, 2, 58, 0
4, 35310, Note_on_c, 2, 57, 90
4, 35339, Note_on_c, 2, 57, 0
4, 35340, Note_on_c, 2, 58, 90
4, 35369, Note_on_c, 2, 58, 0
4, 35370, Note_on_c, 2, 55, 90
4, 35399, Note_on_c, 2, 55, 0
4, 35400, Note_on_c, 2, 62, 90
4, 35459, Note_on_c, 2, 62, 0
4, 35460, Note_on_c, 2, 50, 90
4, 35489, Note_on_c, 2, 50, 0
4, 35490, Note_on_c, 2, 52, 90
4, 35519, Note_on_c, 2, 52, 0
4, 35520, Note_on_c, 2, 54, 90
4, 35579, Note_on_c, 2, 54, 0
4, 35580, Note_on_c, 2, 50, 90
4, 35639, Note_on_c, 2, 50, 0
4, 35640, Note_on_c, 2, 55, 90
4, 35699, Note_on_c, 2, 55, 0
4, 35700, Note_on_c, 2, 43, 90
4, 35759, Note_on_c, 2, 43, 0
4, 35820, Note_on_c, 2, 38, 90
4, 35879, Note_on_c, 2, 38, 0
4, 35880, Note_on_c, 2, 43, 90
4, 35939, Note_on_c, 2, 43, 0
4, 35940, Note_on_c, 2, 55, 90
4, 35969, Note_on_c, 2, 55, 0
4, 35970, Note_on_c, 2, 53, 90
4, 35999, Note_on_c, 2, 53, 0
4, 36000, Note_on_c, 2, 51, 90
4, 36029, Note_on_c, 2, 51, 0
4, 36030, Note_on_c, 2, 50, 90
4, 36059, Note_on_c, 2, 50, 0
4, 36060, Note_on_c, 2, 48, 90
4, 36089, Note_on_c, 2, 48, 0
4, 36090, Note_on_c, 2, 47, 90
4, 36119, Note_on_c, 2, 47, 0
4, 36120, Note_on_c, 2, 48, 90
4, 36239, Note_on_c, 2, 48, 0
4, 36300, Note_on_c, 2, 36, 90
4, 36359, Note_on_c, 2, 36, 0
4, 36360, Note_on_c, 2, 41, 90
4, 36419, Note_on_c, 2, 41, 0
4, 36420, Note_on_c, 2, 53, 90
4, 36449, Note_on_c, 2, 53, 0
4, 36450, Note_on_c, 2, 51, 90
4, 36479, Note_on_c, 2, 51, 0
4, 36480, Note_on_c, 2, 50, 90
4, 36509, Note_on_c, 2, 50, 0
4, 36510, Note_on_c, 2, 48, 90
4, 36539, Note_on_c, 2, 48, 0
4, 36540, Note_on_c, 2, 46, 90
4, 36569, Note_on_c, 2, 46, 0
4, 36570, Note_on_c, 2, 45, 90
4, 36599, Note_on_c, 2, 45, 0
4, 36600, Note_on_c, 2, 46, 90
4, 36719, Note_on_c, 2, 46, 0
4, 36780, Note_on_c, 2, 46, 90
4, 36839, Note_on_c, 2, 46, 0
4, 36840, Note_on_c, 2, 39, 90
4, 36899, Note_on_c, 2, 39, 0
4, 36900, Note_on_c, 2, 51, 90
4, 36929, Note_on_c, 2, 51, 0
4, 36930, Note_on_c, 2, 50, 90
4, 36959, Note_on_c, 2, 50, 0
4, 36960, Note_on_c, 2, 48, 90
4, 37019, Note_on_c, 2, 48, 0
4, 37020, Note_on_c, 2, 46, 90
4, 37079, Note_on_c, 2, 46, 0
4, 37080, Note_on_c, 2, 45, 90
4, 37139, Note_on_c, 2, 45, 0
4, 37140, Note_on_c, 2, 57, 90
4, 37169, Note_on_c, 2, 57, 0
4, 37170, Note_on_c, 2, 55, 90
4, 37199, Note_on_c, 2, 55, 0
4, 37200, Note_on_c, 2, 54, 90
4, 37259, Note_on_c, 2, 54, 0
4, 37260, Note_on_c, 2, 57, 90
4, 37319, Note_on_c, 2, 57, 0
4, 37320, Note_on_c, 2, 50, 90
4, 37379, Note_on_c, 2, 50, 0
4, 37380, Note_on_c, 2, 38, 90
4, 37439, Note_on_c, 2, 38, 0
4, 37440, Note_on_c, 2, 38, 90
4, 37499, Note_on_c, 2, 38, 0
4, 37500, Note_on_c, 2, 38, 90
4, 37559, Note_on_c, 2, 38, 0
4, 37560, Note_on_c, 2, 50, 90
4, 37619, Note_on_c, 2, 50, 0
4, 37620, Note_on_c, 2, 38, 90
4, 37679, Note_on_c, 2, 38, 0
4, 37680, Note_on_c, 2, 38, 90
4, 37739, Note_on_c, 2, 38, 0
4, 37740, Note_on_c, 2, 38, 90
4, 37799, Note_on_c, 2, 38, 0
4, 37800, Note_on_c, 2, 50, 90
4, 37859, Note_on_c, 2, 50, 0
4, 37860, Note_on_c, 2, 38, 90
4, 37919, Note_on_c, 2, 38, 0
4, 37920, Note_on_c, 2, 38, 90
4, 37979, Note_on_c, 2, 38, 0
4, 37980, Note_on_c, 2, 38, 90
4, 38039, Note_on_c, 2, 38, 0
4, 38040, Note_on_c, 2, 43, 90
4, 38099, Note_on_c, 2, 43, 0
4, 38100, Note_on_c, 2, 55, 90
4, 38129, Note_on_c, 2, 55, 0
4, 38130, Note_on_c, 2, 57, 90
4, 38159, Note_on_c, 2, 57, 0
4, 38160, Note_on_c, 2, 58, 90
4, 38219, Note_on_c, 2, 58, 0
4, 38220, Note_on_c, 2, 55, 90
4, 38279, Note_on_c, 2, 55, 0
4, 38280, Note_on_c, 2, 60, 90
4, 38339, Note_on_c, 2, 60, 0
4, 38340, Note_on_c, 2, 48, 90
4, 38369, Note_on_c, 2, 48, 0
4, 38370, Note_on_c, 2, 50, 90
4, 38399, Note_on_c, 2, 50, 0
4, 38400, Note_on_c, 2, 51, 90
4, 38459, Note_on_c, 2, 51, 0
4, 38460, Note_on_c, 2, 45, 90
4, 38519, Note_on_c, 2, 45, 0
4, 38520, Note_on_c, 2, 46, 90
4, 38579, Note_on_c, 2, 46, 0
4, 38580, Note_on_c, 2, 43, 90
4, 38639, Note_on_c, 2, 43, 0
4, 38640, Note_on_c, 2, 48, 90
4, 38699, Note_on_c, 2, 48, 0
4, 38700, Note_on_c, 2, 45, 90
4, 38759, Note_on_c, 2, 45, 0
4, 38760, Note_on_c, 2, 46, 90
4, 38789, Note_on_c, 2, 46, 0
4, 38790, Note_on_c, 2, 45, 90
4, 38819, Note_on_c, 2, 45, 0
4, 38820, Note_on_c, 2, 46, 90
4, 38849, Note_on_c, 2, 46, 0
4, 38850, Note_on_c, 2, 48, 90
4, 38879, Note_on_c, 2, 48, 0
4, 38880, Note_on_c, 2, 50, 90
4, 38909, Note_on_c, 2, 50, 0
4, 38910, Note_on_c, 2, 48, 90
4, 38939, Note_on_c, 2, 48, 0
4, 38940, Note_on_c, 2, 50, 90
4, 38969, Note_on_c, 2, 50, 0
4, 38970, Note_on_c, 2, 45, 90
4, 38999, Note_on_c, 2, 45, 0
4, 39000, Note_on_c, 2, 47, 90
4, 39059, Note_on_c, 2, 47, 0
4, 39060, Note_on_c, 2, 50, 90
4, 39119, Note_on_c, 2, 50, 0
4, 39120, Note_on_c, 2, 55, 90
4, 39179, Note_on_c, 2, 55, 0
4, 39180, Note_on_c, 2, 43, 90
4, 39239, Note_on_c, 2, 43, 0
4, 39240, Note_on_c, 2, 48, 90
4, 39299, Note_on_c, 2, 48, 0
4, 39300, Note_on_c, 2, 55, 90
4, 39359, Note_on_c, 2, 55, 0
4, 39360, Note_on_c, 2, 60, 90
4, 39419, Note_on_c, 2, 60, 0
4, 39420, Note_on_c, 2, 48, 90
4, 39479, Note_on_c, 2, 48, 0
4, 39480, Note_on_c, 2, 53, 90
4, 39539, Note_on_c, 2, 53, 0
4, 39540, Note_on_c, 2, 48, 90
4, 39599, Note_on_c, 2, 48, 0
4, 39600, Note_on_c, 2, 41, 90
4, 39659, Note_on_c, 2, 41, 0
4, 39660, Note_on_c, 2, 53, 90
4, 39719, Note_on_c, 2, 53, 0
4, 39720, Note_on_c, 2, 46, 90
4, 39779, Note_on_c, 2, 46, 0
4, 39780, Note_on_c, 2, 48, 90
4, 39839, Note_on_c, 2, 48, 0
4, 39840, Note_on_c, 2, 50, 90
4, 39899, Note_on_c, 2, 50, 0
4, 39900, Note_on_c, 2, 46, 90
4, 39959, Note_on_c, 2, 46, 0
4, 39960, Note_on_c, 2, 51, 90
4, 40019, Note_on_c, 2, 51, 0
4, 40020, Note_on_c, 2, 55, 90
4, 40079, Note_on_c, 2, 55, 0
4, 40080, Note_on_c, 2, 48, 90
4, 40139, Note_on_c, 2, 48, 0
4, 40140, Note_on_c, 2, 51, 90
4, 40199, Note_on_c, 2, 51, 0
4, 40200, Note_on_c, 2, 53, 90
4, 40259, Note_on_c, 2, 53, 0
4, 40260, Note_on_c, 2, 57, 90
4, 40319, Note_on_c, 2, 57, 0
4, 40320, Note_on_c, 2, 50, 90
4, 40379, Note_on_c, 2, 50, 0
4, 40380, Note_on_c, 2, 53, 90
4, 40439, Note_on_c, 2, 53, 0
4, 40440, Note_on_c, 2, 55, 90
4, 40499, Note_on_c, 2, 55, 0
4, 40500, Note_on_c, 2, 58, 90
4, 40559, Note_on_c, 2, 58, 0
4, 40560, Note_on_c, 2, 51, 90
4, 40619, Note_on_c, 2, 51, 0
4, 40620, Note_on_c, 2, 55, 90
4, 40679, Note_on_c, 2, 55, 0
4, 40680, Note_on_c, 2, 45, 90
4, 40799, Note_on_c, 2, 45, 0
4, 40860, Note_on_c, 2, 51, 90
4, 40919, Note_on_c, 2, 51, 0
4, 40920, Note_on_c, 2, 50, 90
4, 40949, Note_on_c, 2, 50, 0
4, 40950, Note_on_c, 2, 48, 90
4, 40979, Note_on_c, 2, 48, 0
4, 40980, Note_on_c, 2, 50, 90
4, 41009, Note_on_c, 2, 50, 0
4, 41010, Note_on_c, 2, 51, 90
4, 41039, Note_on_c, 2, 51, 0
4, 41040, Note_on_c, 2, 53, 90
4, 41099, Note_on_c, 2, 53, 0
4, 41100, Note_on_c, 2, 41, 90
4, 41159, Note_on_c, 2, 41, 0
4, 41160, Note_on_c, 2, 46, 90
4, 41279, Note_on_c, 2, 46, 0
4, 41340, Note_on_c, 2, 43, 90
4, 41399, Note_on_c, 2, 43, 0
4, 41400, Note_on_c, 2, 48, 90
4, 41459, Note_on_c, 2, 48, 0
4, 41460, Note_on_c, 2, 50, 90
4, 41519, Note_on_c, 2, 50, 0
4, 41520, Note_on_c, 2, 46, 90
4, 41579, Note_on_c, 2, 46, 0
4, 41580, Note_on_c, 2, 48, 90
4, 41639, Note_on_c, 2, 48, 0
4, 41640, Note_on_c, 2, 41, 90
4, 41759, Note_on_c, 2, 41, 0
4, 41820, Note_on_c, 2, 41, 90
4, 41879, Note_on_c, 2, 41, 0
4, 41880, Note_on_c, 2, 46, 90
4, 41939, Note_on_c, 2, 46, 0
4, 41940, Note_on_c, 2, 48, 90
4, 41999, Note_on_c, 2, 48, 0
4, 42000, Note_on_c, 2, 44, 90
4, 42059, Note_on_c, 2, 44, 0
4, 42060, Note_on_c, 2, 46, 90
4, 42119, Note_on_c, 2, 46, 0
4, 42120, Note_on_c, 2, 39, 90
4, 42239, Note_on_c, 2, 39, 0
4, 42300, Note_on_c, 2, 51, 90
4, 42359, Note_on_c, 2, 51, 0
4, 42360, Note_on_c, 2, 53, 90
4, 42419, Note_on_c, 2, 53, 0
4, 42420, Note_on_c, 2, 51, 90
4, 42479, Note_on_c, 2, 51, 0
4, 42480, Note_on_c, 2, 50, 90
4, 42539, Note_on_c, 2, 50, 0
4, 42540, Note_on_c, 2, 53, 90
4, 42599, Note_on_c, 2, 53, 0
4, 42600, Note_on_c, 2, 47, 90
4, 42659, Note_on_c, 2, 47, 0
4, 42660, Note_on_c, 2, 43, 90
4, 42719, Note_on_c, 2, 43, 0
4, 42780, Note_on_c, 2, 48, 90
4, 42809, Note_on_c, 2, 48, 0
4, 42810, Note_on_c, 2, 46, 90
4, 42839, Note_on_c, 2, 46, 0
4, 42840, Note_on_c, 2, 44, 90
4, 42869, Note_on_c, 2, 44, 0
4, 42870, Note_on_c, 2, 43, 90
4, 42899, Note_on_c, 2, 43, 0
4, 42900, Note_on_c, 2, 41, 90
4, 42989, Note_on_c, 2, 41, 0
4, 42990, Note_on_c, 2, 44, 90
4, 43019, Note_on_c, 2, 44, 0
4, 43020, Note_on_c, 2, 43, 90
4, 43049, Note_on_c, 2, 43, 0
4, 43050, Note_on_c, 2, 41, 90
4, 43079, Note_on_c, 2, 41, 0
4, 43080, Note_on_c, 2, 39, 90
4, 43139, Note_on_c, 2, 39, 0
4, 43140, Note_on_c, 2, 43, 90
4, 43199, Note_on_c, 2, 43, 0
4, 43200, Note_on_c, 2, 36, 90
4, 43259, Note_on_c, 2, 36, 0
4, 43260, Note_on_c, 2, 48, 90
4, 43379, Note_on_c, 2, 48, 0
4, 43380, Note_on_c, 2, 46, 90
4, 43409, Note_on_c, 2, 46, 0
4, 43410, Note_on_c, 2, 45, 90
4, 43439, Note_on_c, 2, 45, 0
4, 43440, Note_on_c, 2, 46, 90
4, 43499, Note_on_c, 2, 46, 0
4, 43500, Note_on_c, 2, 58, 90
4, 43619, Note_on_c, 2, 58, 0
4, 43620, Note_on_c, 2, 57, 90
4, 43649, Note_on_c, 2, 57, 0
4, 43650, Note_on_c, 2, 55, 90
4, 43679, Note_on_c, 2, 55, 0
4, 43680, Note_on_c, 2, 54, 90
4, 43739, Note_on_c, 2, 54, 0
4, 43740, Note_on_c, 2, 50, 90
4, 43799, Note_on_c, 2, 50, 0
4, 43800, Note_on_c, 2, 55, 90
4, 43859, Note_on_c, 2, 55, 0
4, 43860, Note_on_c, 2, 43, 90
4, 43919, Note_on_c, 2, 43, 0
4, 43980, Note_on_c, 2, 43, 90
4, 44039, Note_on_c, 2, 43, 0
4, 44040, Note_on_c, 2, 48, 90
4, 44099, Note_on_c, 2, 48, 0
4, 44100, Note_on_c, 2, 52, 90
4, 44159, Note_on_c, 2, 52, 0
4, 44160, Note_on_c, 2, 45, 90
4, 44219, Note_on_c, 2, 45, 0
4, 44220, Note_on_c, 2, 48, 90
4, 44279, Note_on_c, 2, 48, 0
4, 44280, Note_on_c, 2, 50, 90
4, 44339, Note_on_c, 2, 50, 0
4, 44340, Note_on_c, 2, 54, 90
4, 44399, Note_on_c, 2, 54, 0
4, 44400, Note_on_c, 2, 46, 90
4, 44459, Note_on_c, 2, 46, 0
4, 44460, Note_on_c, 2, 50, 90
4, 44519, Note_on_c, 2, 50, 0
4, 44520, Note_on_c, 2, 51, 90
4, 44579, Note_on_c, 2, 51, 0
4, 44580, Note_on_c, 2, 55, 90
4, 44639, Note_on_c, 2, 55, 0
4, 44640, Note_on_c, 2, 48, 90
4, 44699, Note_on_c, 2, 48, 0
4, 44700, Note_on_c, 2, 51, 90
4, 44759, Note_on_c, 2, 51, 0
4, 44760, Note_on_c, 2, 42, 90
4, 44879, Note_on_c, 2, 42, 0
4, 44910, Note_on_c, 2, 48, 90
4, 44939, Note_on_c, 2, 48, 0
4, 44940, Note_on_c, 2, 46, 90
4, 44969, Note_on_c, 2, 46, 0
4, 44970, Note_on_c, 2, 45, 90
4, 44999, Note_on_c, 2, 45, 0
4, 45000, Note_on_c, 2, 46, 90
4, 45059, Note_on_c, 2, 46, 0
4, 45060, Note_on_c, 2, 43, 90
4, 45119, Note_on_c, 2, 43, 0
4, 45120, Note_on_c, 2, 50, 90
4, 45179, Note_on_c, 2, 50, 0
4, 45180, Note_on_c, 2, 38, 90
4, 45239, Note_on_c, 2, 38, 0
4, 45240, Note_on_c, 2, 43, 90
4, 45299, Note_on_c, 2, 43, 0
4, 45300, Note_on_c, 2, 67, 90
4, 45329, Note_on_c, 2, 67, 0
4, 45330, Note_on_c, 2, 66, 90
4, 45359, Note_on_c, 2, 66, 0
4, 45360, Note_on_c, 2, 67, 90
4, 45419, Note_on_c, 2, 67, 0
4, 45420, Note_on_c, 2, 62, 90
4, 45449, Note_on_c, 2, 62, 0
4, 45450, Note_on_c, 2, 60, 90
4, 45479, Note_on_c, 2, 60, 0
4, 45480, Note_on_c, 2, 62, 90
4, 45539, Note_on_c, 2, 62, 0
4, 45540, Note_on_c, 2, 58, 90
4, 45569, Note_on_c, 2, 58, 0
4, 45570, Note_on_c, 2, 57, 90
4, 45599, Note_on_c, 2, 57, 0
4, 45600, Note_on_c, 2, 58, 90
4, 45659, Note_on_c, 2, 58, 0
4, 45660, Note_on_c, 2, 55, 90
4, 45689, Note_on_c, 2, 55, 0
4, 45690, Note_on_c, 2, 54, 90
4, 45719, Note_on_c, 2, 54, 0
4, 45720, Note_on_c, 2, 55, 90
4, 45779, Note_on_c, 2, 55, 0
4, 45780, Note_on_c, 2, 58, 90
4, 45839, Note_on_c, 2, 58, 0
4, 45840, Note_on_c, 2, 62, 90
4, 45899, Note_on_c, 2, 62, 0
4, 45900, Note_on_c, 2, 67, 90
4, 45959, Note_on_c, 2, 67, 0
4, 45960, Note_on_c, 2, 69, 90
4, 45989, Note_on_c, 2, 69, 0
4, 45990, Note_on_c, 2, 67, 90
4, 46019, Note_on_c, 2, 67, 0
4, 46020, Note_on_c, 2, 66, 90
4, 46049, Note_on_c, 2, 66, 0
4, 46050, Note_on_c, 2, 64, 90
4, 46079, Note_on_c, 2, 64, 0
4, 46080, Note_on_c, 2, 62, 90
4, 46109, Note_on_c, 2, 62, 0
4, 46110, Note_on_c, 2, 60, 90
4, 46139, Note_on_c, 2, 60, 0
4, 46140, Note_on_c, 2, 59, 90
4, 46169, Note_on_c, 2, 59, 0
4, 46170, Note_on_c, 2, 57, 90
4, 46199, Note_on_c, 2, 57, 0
4, 46200, Note_on_c, 2, 59, 90
4, 46259, Note_on_c, 2, 59, 0
4, 46260, Note_on_c, 2, 47, 90
4, 46319, Note_on_c, 2, 47, 0
4, 46320, Note_on_c, 2, 47, 90
4, 46379, Note_on_c, 2, 47, 0
4, 46380, Note_on_c, 2, 47, 90
4, 46439, Note_on_c, 2, 47, 0
4, 46440, Note_on_c, 2, 47, 90
4, 46499, Note_on_c, 2, 47, 0
4, 46500, Note_on_c, 2, 47, 90
4, 46559, Note_on_c, 2, 47, 0
4, 46560, Note_on_c, 2, 47, 90
4, 46619, Note_on_c, 2, 47, 0
4, 46620, Note_on_c, 2, 47, 90
4, 46679, Note_on_c, 2, 47, 0
4, 46680, Note_on_c, 2, 47, 90
4, 46739, Note_on_c, 2, 47, 0
4, 46740, Note_on_c, 2, 47, 90
4, 46799, Note_on_c, 2, 47, 0
4, 46800, Note_on_c, 2, 47, 90
4, 46859, Note_on_c, 2, 47, 0
4, 46860, Note_on_c, 2, 47, 90
4, 46919, Note_on_c, 2, 47, 0
4, 46920, Note_on_c, 2, 48, 90
4, 46979, Note_on_c, 2, 48, 0
4, 46980, Note_on_c, 2, 48, 90
4, 47039, Note_on_c, 2, 48, 0
4, 47040, Note_on_c, 2, 48, 90
4, 47099, Note_on_c, 2, 48, 0
4, 47100, Note_on_c, 2, 60, 90
4, 47159, Note_on_c, 2, 60, 0
4, 47160, Note_on_c, 2, 61, 90
4, 47219, Note_on_c, 2, 61, 0
4, 47220, Note_on_c, 2, 49, 90
4, 47279, Note_on_c, 2, 49, 0
4, 47280, Note_on_c, 2, 49, 90
4, 47339, Note_on_c, 2, 49, 0
4, 47340, Note_on_c, 2, 49, 90
4, 47399, Note_on_c, 2, 49, 0
4, 47400, Note_on_c, 2, 49, 90
4, 47459, Note_on_c, 2, 49, 0
4, 47460, Note_on_c, 2, 49, 90
4, 47519, Note_on_c, 2, 49, 0
4, 47520, Note_on_c, 2, 49, 90
4, 47579, Note_on_c, 2, 49, 0
4, 47580, Note_on_c, 2, 49, 90
4, 47639, Note_on_c, 2, 49, 0
4, 47640, Note_on_c, 2, 49, 90
4, 47699, Note_on_c, 2, 49, 0
4, 47700, Note_on_c, 2, 49, 90
4, 47759, Note_on_c, 2, 49, 0
4, 47760, Note_on_c, 2, 49, 90
4, 47819, Note_on_c, 2, 49, 0
4, 47820, Note_on_c, 2, 49, 90
4, 47879, Note_on_c, 2, 49, 0
4, 47880, Note_on_c, 2, 50, 90
4, 47969, Note_on_c, 2, 50, 0
4, 47970, Note_on_c, 2, 62, 90
4, 47999, Note_on_c, 2, 62, 0
4, 48000, Note_on_c, 2, 60, 90
4, 48029, Note_on_c, 2, 60, 0
4, 48030, Note_on_c, 2, 58, 90
4, 48059, Note_on_c, 2, 58, 0
4, 48060, Note_on_c, 2, 57, 90
4, 48089, Note_on_c, 2, 57, 0
4, 48090, Note_on_c, 2, 55, 90
4, 48119, Note_on_c, 2, 55, 0
4, 48120, Note_on_c, 2, 54, 90
4, 48179, Note_on_c, 2, 54, 0
4, 48180, Note_on_c, 2, 42, 90
4, 48209, Note_on_c, 2, 42, 0
4, 48210, Note_on_c, 2, 51, 90
4, 48239, Note_on_c, 2, 51, 0
4, 48240, Note_on_c, 2, 42, 90
4, 48269, Note_on_c, 2, 42, 0
4, 48270, Note_on_c, 2, 51, 90
4, 48299, Note_on_c, 2, 51, 0
4, 48300, Note_on_c, 2, 42, 90
4, 48329, Note_on_c, 2, 42, 0
4, 48330, Note_on_c, 2, 51, 90
4, 48359, Note_on_c, 2, 51, 0
4, 48360, Note_on_c, 2, 42, 90
4, 48389, Note_on_c, 2, 42, 0
4, 48390, Note_on_c, 2, 50, 90
4, 48419, Note_on_c, 2, 50, 0
4, 48420, Note_on_c, 2, 42, 90
4, 48449, Note_on_c, 2, 42, 0
4, 48450, Note_on_c, 2, 50, 90
4, 48479, Note_on_c, 2, 50, 0
4, 48480, Note_on_c, 2, 42, 90
4, 48509, Note_on_c, 2, 42, 0
4, 48510, Note_on_c, 2, 50, 90
4, 48539, Note_on_c, 2, 50, 0
4, 48540, Note_on_c, 2, 42, 90
4, 48569, Note_on_c, 2, 42, 0
4, 48570, Note_on_c, 2, 50, 90
4, 48599, Note_on_c, 2, 50, 0
4, 48600, Note_on_c, 2, 42, 90
4, 48629, Note_on_c, 2, 42, 0
4, 48630, Note_on_c, 2, 48, 90
4, 48659, Note_on_c, 2, 48, 0
4, 48660, Note_on_c, 2, 46, 90
4, 48689, Note_on_c, 2, 46, 0
4, 48690, Note_on_c, 2, 45, 90
4, 48719, Note_on_c, 2, 45, 0
4, 48720, Note_on_c, 2, 43, 90
4, 48749, Note_on_c, 2, 43, 0
4, 48750, Note_on_c, 2, 41, 90
4, 48779, Note_on_c, 2, 41, 0
4, 48780, Note_on_c, 2, 39, 90
4, 48809, Note_on_c, 2, 39, 0
4, 48810, Note_on_c, 2, 38, 90
4, 48839, Note_on_c, 2, 38, 0
4, 48840, Note_on_c, 2, 43, 90
4, 48899, Note_on_c, 2, 43, 0
4, 48900, Note_on_c, 2, 55, 90
4, 48959, Note_on_c, 2, 55, 0
4, 48960, Note_on_c, 2, 46, 90
4, 49019, Note_on_c, 2, 46, 0
4, 49020, Note_on_c, 2, 50, 90
4, 49079, Note_on_c, 2, 50, 0
4, 49080, Note_on_c, 2, 43, 90
4, 49139, Note_on_c, 2, 43, 0
4, 49140, Note_on_c, 2, 46, 90
4, 49199, Note_on_c, 2, 46, 0
4, 49200, Note_on_c, 2, 50, 90
4, 49259, Note_on_c, 2, 50, 0
4, 49260, Note_on_c, 2, 55, 90
4, 49319, Note_on_c, 2, 55, 0
4, 49320, Note_on_c, 2, 51, 90
4, 49349, Note_on_c, 2, 51, 0
4, 49350, Note_on_c, 2, 53, 90
4, 49379, Note_on_c, 2, 53, 0
4, 49380, Note_on_c, 2, 51, 90
4, 49409, Note_on_c, 2, 51, 0
4, 49410, Note_on_c, 2, 50, 90
4, 49439, Note_on_c, 2, 50, 0
4, 49440, Note_on_c, 2, 48, 90
4, 49469, Note_on_c, 2, 48, 0
4, 49470, Note_on_c, 2, 46, 90
4, 49499, Note_on_c, 2, 46, 0
4, 49500, Note_on_c, 2, 45, 90
4, 49529, Note_on_c, 2, 45, 0
4, 49530, Note_on_c, 2, 43, 90
4, 49559, Note_on_c, 2, 43, 0
4, 49560, Note_on_c, 2, 41, 90
4, 49619, Note_on_c, 2, 41, 0
4, 49620, Note_on_c, 2, 45, 90
4, 49679, Note_on_c, 2, 45, 0
4, 49680, Note_on_c, 2, 48, 90
4, 49739, Note_on_c, 2, 48, 0
4, 49740, Note_on_c, 2, 53, 90
4, 49799, Note_on_c, 2, 53, 0
4, 49800, Note_on_c, 2, 50, 90
4, 49829, Note_on_c, 2, 50, 0
4, 49830, Note_on_c, 2, 51, 90
4, 49859, Note_on_c, 2, 51, 0
4, 49860, Note_on_c, 2, 50, 90
4, 49889, Note_on_c, 2, 50, 0
4, 49890, Note_on_c, 2, 48, 90
4, 49919, Note_on_c, 2, 48, 0
4, 49920, Note_on_c, 2, 46, 90
4, 49949, Note_on_c, 2, 46, 0
4, 49950, Note_on_c, 2, 44, 90
4, 49979, Note_on_c, 2, 44, 0
4, 49980, Note_on_c, 2, 43, 90
4, 50009, Note_on_c, 2, 43, 0
4, 50010, Note_on_c, 2, 41, 90
4, 50039, Note_on_c, 2, 41, 0
4, 50040, Note_on_c, 2, 39, 90
4, 50099, Note_on_c, 2, 39, 0
4, 50100, Note_on_c, 2, 43, 90
4, 50159, Note_on_c, 2, 43, 0
4, 50160, Note_on_c, 2, 46, 90
4, 50219, Note_on_c, 2, 46, 0
4, 50220, Note_on_c, 2, 51, 90
4, 50279, Note_on_c, 2, 51, 0
4, 50280, Note_on_c, 2, 48, 90
4, 50339, Note_on_c, 2, 48, 0
4, 50340, Note_on_c, 2, 48, 90
4, 50399, Note_on_c, 2, 48, 0
4, 50400, Note_on_c, 2, 48, 90
4, 50459, Note_on_c, 2, 48, 0
4, 50460, Note_on_c, 2, 48, 90
4, 50519, Note_on_c, 2, 48, 0
4, 50520, Note_on_c, 2, 48, 90
4, 50579, Note_on_c, 2, 48, 0
4, 50580, Note_on_c, 2, 48, 90
4, 50639, Note_on_c, 2, 48, 0
4, 50640, Note_on_c, 2, 48, 90
4, 50699, Note_on_c, 2, 48, 0
4, 50700, Note_on_c, 2, 48, 90
4, 50759, Note_on_c, 2, 48, 0
4, 50760, Note_on_c, 2, 48, 90
4, 50819, Note_on_c, 2, 48, 0
4, 50820, Note_on_c, 2, 48, 90
4, 50879, Note_on_c, 2, 48, 0
4, 50880, Note_on_c, 2, 48, 90
4, 50939, Note_on_c, 2, 48, 0
4, 50940, Note_on_c, 2, 48, 90
4, 50999, Note_on_c, 2, 48, 0
4, 51000, Note_on_c, 2, 46, 90
4, 51059, Note_on_c, 2, 46, 0
4, 51060, Note_on_c, 2, 46, 90
4, 51089, Note_on_c, 2, 46, 0
4, 51090, Note_on_c, 2, 45, 90
4, 51119, Note_on_c, 2, 45, 0
4, 51120, Note_on_c, 2, 46, 90
4, 51179, Note_on_c, 2, 46, 0
4, 51180, Note_on_c, 2, 43, 90
4, 51239, Note_on_c, 2, 43, 0
4, 51240, Note_on_c, 2, 48, 90
4, 51299, Note_on_c, 2, 48, 0
4, 51300, Note_on_c, 2, 36, 90
4, 51359, Note_on_c, 2, 36, 0
4, 51360, Note_on_c, 2, 48, 90
4, 51419, Note_on_c, 2, 48, 0
4, 51420, Note_on_c, 2, 45, 90
4, 51479, Note_on_c, 2, 45, 0
4, 51480, Note_on_c, 2, 46, 90
4, 51539, Note_on_c, 2, 46, 0
4, 51540, Note_on_c, 2, 43, 90
4, 51599, Note_on_c, 2, 43, 0
4, 51600, Note_on_c, 2, 48, 90
4, 51659, Note_on_c, 2, 48, 0
4, 51660, Note_on_c, 2, 45, 90
4, 51719, Note_on_c, 2, 45, 0
4, 51720, Note_on_c, 2, 46, 90
4, 51779, Note_on_c, 2, 46, 0
4, 51780, Note_on_c, 2, 51, 90
4, 51809, Note_on_c, 2, 51, 0
4, 51810, Note_on_c, 2, 48, 90
4, 51839, Note_on_c, 2, 48, 0
4, 51840, Note_on_c, 2, 50, 90
4, 51899, Note_on_c, 2, 50, 0
4, 51900, Note_on_c, 2, 38, 90
4, 51959, Note_on_c, 2, 38, 0
4, 51960, Note_on_c, 2, 39, 90
4, 52019, Note_on_c, 2, 39, 0
4, 52020, Note_on_c, 2, 48, 90
4, 52079, Note_on_c, 2, 48, 0
4, 52080, Note_on_c, 2, 46, 90
4, 52139, Note_on_c, 2, 46, 0
4, 52140, Note_on_c, 2, 45, 90
4, 52199, Note_on_c, 2, 45, 0
4, 52200, Note_on_c, 2, 46, 90
4, 52259, Note_on_c, 2, 46, 0
4, 52260, Note_on_c, 2, 50, 90
4, 52319, Note_on_c, 2, 50, 0
4, 52320, Note_on_c, 2, 46, 90
4, 52379, Note_on_c, 2, 46, 0
4, 52380, Note_on_c, 2, 43, 90
4, 52439, Note_on_c, 2, 43, 0
4, 52440, Note_on_c, 2, 36, 90
4, 52499, Note_on_c, 2, 36, 0
4, 52500, Note_on_c, 2, 48, 90
4, 52559, Note_on_c, 2, 48, 0
4, 52560, Note_on_c, 2, 50, 90
4, 52619, Note_on_c, 2, 50, 0
4, 52620, Note_on_c, 2, 38, 90
4, 52679, Note_on_c, 2, 38, 0
4, 52680, Note_on_c, 2, 55, 90
4, 52680, Note_on_c, 2, 43, 90
4, 52859, Note_on_c, 2, 43, 0
4, 52859, Note_on_c, 2, 55, 0
4, 53400, Note_on_c, 2, 46, 90
4, 53519, Note_on_c, 2, 46, 0
4, 53520, Note_on_c, 2, 48, 90
4, 53639, Note_on_c, 2, 48, 0
4, 53640, Note_on_c, 2, 50, 90
4, 53759, Note_on_c, 2, 50, 0
4, 53760, Note_on_c, 2, 48, 90
4, 53879, Note_on_c, 2, 48, 0
4, 53880, Note_on_c, 2, 46, 90
4, 54119, Note_on_c, 2, 46, 0
4, 54120, Note_on_c, 2, 48, 90
4, 54359, Note_on_c, 2, 48, 0
4, 54840, Note_on_c, 2, 41, 90
4, 54959, Note_on_c, 2, 41, 0
4, 54960, Note_on_c, 2, 43, 90
4, 55079, Note_on_c, 2, 43, 0
4, 55080, Note_on_c, 2, 45, 90
4, 55199, Note_on_c, 2, 45, 0
4, 55200, Note_on_c, 2, 43, 90
4, 55319, Note_on_c, 2, 43, 0
4, 55320, Note_on_c, 2, 41, 90
4, 55559, Note_on_c, 2, 41, 0
4, 55560, Note_on_c, 2, 46, 90
4, 55799, Note_on_c, 2, 46, 0
4, 56280, Note_on_c, 2, 46, 90
4, 56399, Note_on_c, 2, 46, 0
4, 56400, Note_on_c, 2, 45, 90
4, 56519, Note_on_c, 2, 45, 0
4, 56520, Note_on_c, 2, 43, 90
4, 56639, Note_on_c, 2, 43, 0
4, 56640, Note_on_c, 2, 45, 90
4, 56759, Note_on_c, 2, 45, 0
4, 56760, Note_on_c, 2, 46, 90
4, 56999, Note_on_c, 2, 46, 0
4, 57000, Note_on_c, 2, 48, 90
4, 57239, Note_on_c, 2, 48, 0
4, 57720, Note_on_c, 2, 48, 90
4, 57839, Note_on_c, 2, 48, 0
4, 57840, Note_on_c, 2, 50, 90
4, 57959, Note_on_c, 2, 50, 0
4, 57960, Note_on_c, 2, 52, 90
4, 58079, Note_on_c, 2, 52, 0
4, 58080, Note_on_c, 2, 50, 90
4, 58199, Note_on_c, 2, 50, 0
4, 58200, Note_on_c, 2, 48, 90
4, 58439, Note_on_c, 2, 48, 0
4, 58440, Note_on_c, 2, 53, 90
4, 58679, Note_on_c, 2, 53, 0
4, 59160, Note_on_c, 2, 46, 90
4, 59279, Note_on_c, 2, 46, 0
4, 59280, Note_on_c, 2, 45, 90
4, 59399, Note_on_c, 2, 45, 0
4, 59400, Note_on_c, 2, 46, 90
4, 59519, Note_on_c, 2, 46, 0
4, 59520, Note_on_c, 2, 50, 90
4, 59639, Note_on_c, 2, 50, 0
4, 59640, Note_on_c, 2, 43, 90
4, 59759, Note_on_c, 2, 43, 0
4, 59760, Note_on_c, 2, 55, 90
4, 59879, Note_on_c, 2, 55, 0
4, 59880, Note_on_c, 2, 48, 90
4, 59999, Note_on_c, 2, 48, 0
4, 60000, Note_on_c, 2, 52, 90
4, 60119, Note_on_c, 2, 52, 0
4, 60120, Note_on_c, 2, 53, 90
4, 60239, Note_on_c, 2, 53, 0
4, 60240, Note_on_c, 2, 51, 90
4, 60359, Note_on_c, 2, 51, 0
4, 60360, Note_on_c, 2, 49, 90
4, 60479, Note_on_c, 2, 49, 0
4, 60480, Note_on_c, 2, 48, 90
4, 60599, Note_on_c, 2, 48, 0
4, 60600, Note_on_c, 2, 46, 90
4, 60839, Note_on_c, 2, 46, 0
4, 60840, Note_on_c, 2, 48, 90
4, 61079, Note_on_c, 2, 48, 0
4, 61080, Note_on_c, 2, 36, 90
4, 61319, Note_on_c, 2, 36, 0
4, 61320, Note_on_c, 2, 41, 90
4, 61439, Note_on_c, 2, 41, 0
4, 61440, Note_on_c, 2, 48, 90
4, 61559, Note_on_c, 2, 48, 0
4, 61560, Note_on_c, 2, 53, 90
4, 61679, Note_on_c, 2, 53, 0
4, 61680, Note_on_c, 2, 51, 90
4, 61799, Note_on_c, 2, 51, 0
4, 61800, Note_on_c, 2, 50, 90
4, 61919, Note_on_c, 2, 50, 0
4, 61920, Note_on_c, 2, 48, 90
4, 62039, Note_on_c, 2, 48, 0
4, 62040, Note_on_c, 2, 46, 90
4, 62159, Note_on_c, 2, 46, 0
4, 62160, Note_on_c, 2, 48, 90
4, 62279, Note_on_c, 2, 48, 0
4, 62280, Note_on_c, 2, 50, 90
4, 62399, Note_on_c, 2, 50, 0
4, 62400, Note_on_c, 2, 48, 90
4, 62519, Note_on_c, 2, 48, 0
4, 62520, Note_on_c, 2, 46, 90
4, 62759, Note_on_c, 2, 46, 0
4, 62760, Note_on_c, 2, 48, 90
4, 62999, Note_on_c, 2, 48, 0
4, 63480, Note_on_c, 2, 41, 90
4, 63599, Note_on_c, 2, 41, 0
4, 63600, Note_on_c, 2, 43, 90
4, 63719, Note_on_c, 2, 43, 0
4, 63720, Note_on_c, 2, 45, 90
4, 63839, Note_on_c, 2, 45, 0
4, 63840, Note_on_c, 2, 43, 90
4, 63959, Note_on_c, 2, 43, 0
4, 63960, Note_on_c, 2, 41, 90
4, 64199, Note_on_c, 2, 41, 0
4, 64200, Note_on_c, 2, 46, 90
4, 64439, Note_on_c, 2, 46, 0
4, 64920, Note_on_c, 2, 46, 90
4, 65039, Note_on_c, 2, 46, 0
4, 65040, Note_on_c, 2, 45, 90
4, 65159, Note_on_c, 2, 45, 0
4, 65160, Note_on_c, 2, 43, 90
4, 65279, Note_on_c, 2, 43, 0
4, 65280, Note_on_c, 2, 45, 90
4, 65399, Note_on_c, 2, 45, 0
4, 65400, Note_on_c, 2, 46, 90
4, 65639, Note_on_c, 2, 46, 0
4, 65640, Note_on_c, 2, 48, 90
4, 65879, Note_on_c, 2, 48, 0
4, 66360, Note_on_c, 2, 48, 90
4, 66479, Note_on_c, 2, 48, 0
4, 66480, Note_on_c, 2, 50, 90
4, 66599, Note_on_c, 2, 50, 0
4, 66600, Note_on_c, 2, 52, 90
4, 66719, Note_on_c, 2, 52, 0
4, 66720, Note_on_c, 2, 50, 90
4, 66839, Note_on_c, 2, 50, 0
4, 66840, Note_on_c, 2, 48, 90
4, 67079, Note_on_c, 2, 48, 0
4, 67080, Note_on_c, 2, 53, 90
4, 67319, Note_on_c, 2, 53, 0
4, 67800, Note_on_c, 2, 46, 90
4, 67919, Note_on_c, 2, 46, 0
4, 67920, Note_on_c, 2, 45, 90
4, 68039, Note_on_c, 2, 45, 0
4, 68040, Note_on_c, 2, 46, 90
4, 68159, Note_on_c, 2, 46, 0
4, 68160, Note_on_c, 2, 50, 90
4, 68279, Note_on_c, 2, 50, 0
4, 68280, Note_on_c, 2, 43, 90
4, 68399, Note_on_c, 2, 43, 0
4, 68400, Note_on_c, 2, 55, 90
4, 68519, Note_on_c, 2, 55, 0
4, 68520, Note_on_c, 2, 48, 90
4, 68639, Note_on_c, 2, 48, 0
4, 68640, Note_on_c, 2, 52, 90
4, 68759, Note_on_c, 2, 52, 0
4, 68760, Note_on_c, 2, 53, 90
4, 68879, Note_on_c, 2, 53, 0
4, 68880, Note_on_c, 2, 51, 90
4, 68999, Note_on_c, 2, 51, 0
4, 69000, Note_on_c, 2, 49, 90
4, 69119, Note_on_c, 2, 49, 0
4, 69120, Note_on_c, 2, 48, 90
4, 69239, Note_on_c, 2, 48, 0
4, 69240, Note_on_c, 2, 46, 90
4, 69479, Note_on_c, 2, 46, 0
4, 69480, Note_on_c, 2, 48, 90
4, 69719, Note_on_c, 2, 48, 0
4, 69720, Note_on_c, 2, 36, 90
4, 69959, Note_on_c, 2, 36, 0
4, 69960, Note_on_c, 2, 41, 90
4, 70679, Note_on_c, 2, 41, 0
4, 70680, Note_on_c, 2, 53, 90
4, 70799, Note_on_c, 2, 53, 0
4, 70800, Note_on_c, 2, 55, 90
4, 70919, Note_on_c, 2, 55, 0
4, 70920, Note_on_c, 2, 57, 90
4, 71039, Note_on_c, 2, 57, 0
4, 71040, Note_on_c, 2, 55, 90
4, 71159, Note_on_c, 2, 55, 0
4, 71160, Note_on_c, 2, 53, 90
4, 71399, Note_on_c, 2, 53, 0
4, 71400, Note_on_c, 2, 62, 90
4, 71639, Note_on_c, 2, 62, 0
4, 72120, Note_on_c, 2, 50, 90
4, 72239, Note_on_c, 2, 50, 0
4, 72240, Note_on_c, 2, 48, 90
4, 72359, Note_on_c, 2, 48, 0
4, 72360, Note_on_c, 2, 47, 90
4, 72479, Note_on_c, 2, 47, 0
4, 72480, Note_on_c, 2, 50, 90
4, 72599, Note_on_c, 2, 50, 0
4, 72600, Note_on_c, 2, 43, 90
4, 72719, Note_on_c, 2, 43, 0
4, 72720, Note_on_c, 2, 47, 90
4, 72839, Note_on_c, 2, 47, 0
4, 72840, Note_on_c, 2, 48, 90
4, 73079, Note_on_c, 2, 48, 0
4, 73560, Note_on_c, 2, 48, 90
4, 73679, Note_on_c, 2, 48, 0
4, 73680, Note_on_c, 2, 50, 90
4, 73799, Note_on_c, 2, 50, 0
4, 73800, Note_on_c, 2, 51, 90
4, 73919, Note_on_c, 2, 51, 0
4, 73920, Note_on_c, 2, 48, 90
4, 74039, Note_on_c, 2, 48, 0
4, 74040, Note_on_c, 2, 45, 90
4, 74159, Note_on_c, 2, 45, 0
4, 74160, Note_on_c, 2, 43, 90
4, 74279, Note_on_c, 2, 43, 0
4, 74280, Note_on_c, 2, 45, 90
4, 74399, Note_on_c, 2, 45, 0
4, 74400, Note_on_c, 2, 46, 90
4, 74519, Note_on_c, 2, 46, 0
4, 74520, Note_on_c, 2, 48, 90
4, 74639, Note_on_c, 2, 48, 0
4, 74640, Note_on_c, 2, 45, 90
4, 74759, Note_on_c, 2, 45, 0
4, 74760, Note_on_c, 2, 42, 90
4, 74879, Note_on_c, 2, 42, 0
4, 74880, Note_on_c, 2, 38, 90
4, 74999, Note_on_c, 2, 38, 0
4, 75000, Note_on_c, 2, 43, 90
4, 75119, Note_on_c, 2, 43, 0
4, 75120, Note_on_c, 2, 51, 90
4, 75239, Note_on_c, 2, 51, 0
4, 75240, Note_on_c, 2, 50, 90
4, 75359, Note_on_c, 2, 50, 0
4, 75360, Note_on_c, 2, 48, 90
4, 75479, Note_on_c, 2, 48, 0
4, 75480, Note_on_c, 2, 50, 90
4, 75599, Note_on_c, 2, 50, 0
4, 75600, Note_on_c, 2, 38, 90
4, 75719, Note_on_c, 2, 38, 0
4, 75720, Note_on_c, 2, 43, 90
4, 75839, Note_on_c, 2, 43, 0
4, 75840, Note_on_c, 2, 50, 90
4, 75959, Note_on_c, 2, 50, 0
4, 75960, Note_on_c, 2, 55, 90
4, 76079, Note_on_c, 2, 55, 0
4, 76080, Note_on_c, 2, 57, 90
4, 76199, Note_on_c, 2, 57, 0
4, 76200, Note_on_c, 2, 57, 90
4, 76259, Note_on_c, 2, 57, 0
4, 76260, Note_on_c, 2, 58, 90
4, 76274, Note_on_c, 2, 58, 0
4, 76275, Note_on_c, 2, 57, 90
4, 76289, Note_on_c, 2, 57, 0
4, 76290, Note_on_c, 2, 55, 90
4, 76304, Note_on_c, 2, 55, 0
4, 76305, Note_on_c, 2, 57, 90
4, 76319, Note_on_c, 2, 57, 0
4, 76320, Note_on_c, 2, 58, 90
4, 76439, Note_on_c, 2, 58, 0
4, 76440, Note_on_c, 2, 52, 90
4, 76559, Note_on_c, 2, 52, 0
4, 76560, Note_on_c, 2, 50, 90
4, 76679, Note_on_c, 2, 50, 0
4, 76680, Note_on_c, 2, 52, 90
4, 76799, Note_on_c, 2, 52, 0
4, 76800, Note_on_c, 2, 53, 90
4, 76919, Note_on_c, 2, 53, 0
4, 76920, Note_on_c, 2, 53, 90
4, 76980, Note_on_c, 2, 53, 0
4, 76984, Note_on_c, 2, 55, 90
4, 76998, Note_on_c, 2, 55, 0
4, 76999, Note_on_c, 2, 53, 90
4, 77013, Note_on_c, 2, 53, 0
4, 77014, Note_on_c, 2, 52, 90
4, 77028, Note_on_c, 2, 52, 0
4, 77029, Note_on_c, 2, 53, 90
4, 77043, Note_on_c, 2, 53, 0
4, 77044, Note_on_c, 2, 55, 90
4, 77163, Note_on_c, 2, 55, 0
4, 77164, Note_on_c, 2, 48, 90
4, 77283, Note_on_c, 2, 48, 0
4, 77284, Note_on_c, 2, 46, 90
4, 77343, Note_on_c, 2, 46, 0
4, 77344, Note_on_c, 2, 45, 90
4, 77403, Note_on_c, 2, 45, 0
4, 77404, Note_on_c, 2, 43, 90
4, 77523, Note_on_c, 2, 43, 0
4, 77524, Note_on_c, 2, 45, 90
4, 77640, Note_on_c, 2, 45, 90
4, 77643, Note_on_c, 2, 45, 0
4, 77700, Note_on_c, 2, 45, 0
4, 77704, Note_on_c, 2, 46, 90
4, 77718, Note_on_c, 2, 46, 0
4, 77719, Note_on_c, 2, 45, 90
4, 77733, Note_on_c, 2, 45, 0
4, 77734, Note_on_c, 2, 43, 90
4, 77748, Note_on_c, 2, 43, 0
4, 77749, Note_on_c, 2, 45, 90
4, 77763, Note_on_c, 2, 45, 0
4, 77764, Note_on_c, 2, 46, 90
4, 77883, Note_on_c, 2, 46, 0
4, 77884, Note_on_c, 2, 36, 90
4, 78000, Note_on_c, 2, 34, 90
4, 78003, Note_on_c, 2, 36, 0
4, 78119, Note_on_c, 2, 34, 0
4, 78124, Note_on_c, 2, 36, 90
4, 78363, Note_on_c, 2, 36, 0
4, 78364, Note_on_c, 2, 48, 90
4, 78603, Note_on_c, 2, 48, 0
4, 78604, Note_on_c, 2, 41, 90
4, 78723, Note_on_c, 2, 41, 0
4, 78724, Note_on_c, 2, 48, 90
4, 78843, Note_on_c, 2, 48, 0
4, 78844, Note_on_c, 2, 53, 90
4, 78963, Note_on_c, 2, 53, 0
4, 78964, Note_on_c, 2, 51, 90
4, 79083, Note_on_c, 2, 51, 0
4, 79084, Note_on_c, 2, 51, 90
4, 79203, Note_on_c, 2, 51, 0
4, 79204, Note_on_c, 2, 50, 90
4, 79323, Note_on_c, 2, 50, 0
4, 79324, Note_on_c, 2, 50, 90
4, 79443, Note_on_c, 2, 50, 0
4, 79444, Note_on_c, 2, 48, 90
4, 79563, Note_on_c, 2, 48, 0
4, 79564, Note_on_c, 2, 46, 90
4, 79683, Note_on_c, 2, 46, 0
4, 79684, Note_on_c, 2, 45, 90
4, 79803, Note_on_c, 2, 45, 0
4, 79804, Note_on_c, 2, 46, 90
4, 79923, Note_on_c, 2, 46, 0
4, 79924, Note_on_c, 2, 38, 90
4, 80043, Note_on_c, 2, 38, 0
4, 80044, Note_on_c, 2, 39, 90
4, 80283, Note_on_c, 2, 39, 0
4, 80764, Note_on_c, 2, 51, 90
4, 80883, Note_on_c, 2, 51, 0
4, 80884, Note_on_c, 2, 50, 90
4, 81003, Note_on_c, 2, 50, 0
4, 81004, Note_on_c, 2, 48, 90
4, 81123, Note_on_c, 2, 48, 0
4, 81124, Note_on_c, 2, 47, 90
4, 81243, Note_on_c, 2, 47, 0
4, 81244, Note_on_c, 2, 48, 90
4, 81303, Note_on_c, 2, 48, 0
4, 81304, Note_on_c, 2, 50, 90
4, 81363, Note_on_c, 2, 50, 0
4, 81364, Note_on_c, 2, 51, 90
4, 81603, Note_on_c, 2, 51, 0
4, 81604, Note_on_c, 2, 45, 90
4, 81723, Note_on_c, 2, 45, 0
4, 81724, Note_on_c, 2, 46, 90
4, 81843, Note_on_c, 2, 46, 0
4, 81844, Note_on_c, 2, 43, 90
4, 81963, Note_on_c, 2, 43, 0
4, 81964, Note_on_c, 2, 44, 90
4, 82083, Note_on_c, 2, 44, 0
4, 82084, Note_on_c, 2, 40, 90
4, 82203, Note_on_c, 2, 40, 0
4, 82204, Note_on_c, 2, 41, 90
4, 82443, Note_on_c, 2, 41, 0
4, 82444, Note_on_c, 2, 53, 90
4, 82683, Note_on_c, 2, 53, 0
4, 82684, Note_on_c, 2, 41, 90
4, 82923, Note_on_c, 2, 41, 0
4, 82924, Note_on_c, 2, 46, 90
4, 83043, Note_on_c, 2, 46, 0
4, 83044, Note_on_c, 2, 45, 90
4, 83163, Note_on_c, 2, 45, 0
4, 83164, Note_on_c, 2, 46, 90
4, 83283, Note_on_c, 2, 46, 0
4, 83284, Note_on_c, 2, 48, 90
4, 83403, Note_on_c, 2, 48, 0
4, 83404, Note_on_c, 2, 50, 90
4, 83523, Note_on_c, 2, 50, 0
4, 83524, Note_on_c, 2, 51, 90
4, 83640, Note_on_c, 2, 53, 90
4, 83643, Note_on_c, 2, 51, 0
4, 83759, Note_on_c, 2, 53, 0
4, 83760, Note_on_c, 2, 55, 90
4, 83879, Note_on_c, 2, 55, 0
4, 83880, Note_on_c, 2, 57, 90
4, 83999, Note_on_c, 2, 57, 0
4, 84000, Note_on_c, 2, 55, 90
4, 84119, Note_on_c, 2, 55, 0
4, 84120, Note_on_c, 2, 53, 90
4, 84359, Note_on_c, 2, 53, 0
4, 84360, Note_on_c, 2, 62, 90
4, 84599, Note_on_c, 2, 62, 0
4, 85080, Note_on_c, 2, 50, 90
4, 85199, Note_on_c, 2, 50, 0
4, 85200, Note_on_c, 2, 48, 90
4, 85319, Note_on_c, 2, 48, 0
4, 85320, Note_on_c, 2, 47, 90
4, 85439, Note_on_c, 2, 47, 0
4, 85440, Note_on_c, 2, 50, 90
4, 85559, Note_on_c, 2, 50, 0
4, 85560, Note_on_c, 2, 43, 90
4, 85679, Note_on_c, 2, 43, 0
4, 85680, Note_on_c, 2, 47, 90
4, 85799, Note_on_c, 2, 47, 0
4, 85800, Note_on_c, 2, 48, 90
4, 86039, Note_on_c, 2, 48, 0
4, 86520, Note_on_c, 2, 48, 90
4, 86639, Note_on_c, 2, 48, 0
4, 86640, Note_on_c, 2, 50, 90
4, 86759, Note_on_c, 2, 50, 0
4, 86760, Note_on_c, 2, 51, 90
4, 86879, Note_on_c, 2, 51, 0
4, 86880, Note_on_c, 2, 48, 90
4, 86999, Note_on_c, 2, 48, 0
4, 87000, Note_on_c, 2, 45, 90
4, 87119, Note_on_c, 2, 45, 0
4, 87120, Note_on_c, 2, 43, 90
4, 87239, Note_on_c, 2, 43, 0
4, 87240, Note_on_c, 2, 45, 90
4, 87359, Note_on_c, 2, 45, 0
4, 87360, Note_on_c, 2, 46, 90
4, 87479, Note_on_c, 2, 46, 0
4, 87480, Note_on_c, 2, 48, 90
4, 87599, Note_on_c, 2, 48, 0
4, 87600, Note_on_c, 2, 45, 90
4, 87719, Note_on_c, 2, 45, 0
4, 87720, Note_on_c, 2, 42, 90
4, 87839, Note_on_c, 2, 42, 0
4, 87840, Note_on_c, 2, 38, 90
4, 87959, Note_on_c, 2, 38, 0
4, 87960, Note_on_c, 2, 43, 90
4, 88079, Note_on_c, 2, 43, 0
4, 88080, Note_on_c, 2, 51, 90
4, 88199, Note_on_c, 2, 51, 0
4, 88200, Note_on_c, 2, 50, 90
4, 88319, Note_on_c, 2, 50, 0
4, 88320, Note_on_c, 2, 48, 90
4, 88439, Note_on_c, 2, 48, 0
4, 88440, Note_on_c, 2, 50, 90
4, 88559, Note_on_c, 2, 50, 0
4, 88560, Note_on_c, 2, 38, 90
4, 88679, Note_on_c, 2, 38, 0
4, 88680, Note_on_c, 2, 43, 90
4, 88799, Note_on_c, 2, 43, 0
4, 88800, Note_on_c, 2, 50, 90
4, 88919, Note_on_c, 2, 50, 0
4, 88920, Note_on_c, 2, 55, 90
4, 89039, Note_on_c, 2, 55, 0
4, 89040, Note_on_c, 2, 57, 90
4, 89159, Note_on_c, 2, 57, 0
4, 89160, Note_on_c, 2, 57, 90
4, 89219, Note_on_c, 2, 57, 0
4, 89220, Note_on_c, 2, 58, 90
4, 89234, Note_on_c, 2, 58, 0
4, 89235, Note_on_c, 2, 57, 90
4, 89249, Note_on_c, 2, 57, 0
4, 89250, Note_on_c, 2, 55, 90
4, 89264, Note_on_c, 2, 55, 0
4, 89265, Note_on_c, 2, 57, 90
4, 89279, Note_on_c, 2, 57, 0
4, 89280, Note_on_c, 2, 58, 90
4, 89399, Note_on_c, 2, 58, 0
4, 89400, Note_on_c, 2, 52, 90
4, 89519, Note_on_c, 2, 52, 0
4, 89520, Note_on_c, 2, 50, 90
4, 89639, Note_on_c, 2, 50, 0
4, 89640, Note_on_c, 2, 52, 90
4, 89759, Note_on_c, 2, 52, 0
4, 89760, Note_on_c, 2, 53, 90
4, 89879, Note_on_c, 2, 53, 0
4, 89880, Note_on_c, 2, 53, 90
4, 89940, Note_on_c, 2, 53, 0
4, 89944, Note_on_c, 2, 55, 90
4, 89958, Note_on_c, 2, 55, 0
4, 89959, Note_on_c, 2, 53, 90
4, 89973, Note_on_c, 2, 53, 0
4, 89974, Note_on_c, 2, 52, 90
4, 89988, Note_on_c, 2, 52, 0
4, 89989, Note_on_c, 2, 53, 90
4, 90003, Note_on_c, 2, 53, 0
4, 90004, Note_on_c, 2, 55, 90
4, 90123, Note_on_c, 2, 55, 0
4, 90124, Note_on_c, 2, 48, 90
4, 90243, Note_on_c, 2, 48, 0
4, 90244, Note_on_c, 2, 46, 90
4, 90303, Note_on_c, 2, 46, 0
4, 90304, Note_on_c, 2, 45, 90
4, 90363, Note_on_c, 2, 45, 0
4, 90364, Note_on_c, 2, 43, 90
4, 90483, Note_on_c, 2, 43, 0
4, 90484, Note_on_c, 2, 45, 90
4, 90600, Note_on_c, 2, 45, 90
4, 90603, Note_on_c, 2, 45, 0
4, 90660, Note_on_c, 2, 45, 0
4, 90664, Note_on_c, 2, 46, 90
4, 90678, Note_on_c, 2, 46, 0
4, 90679, Note_on_c, 2, 45, 90
4, 90693, Note_on_c, 2, 45, 0
4, 90694, Note_on_c, 2, 43, 90
4, 90708, Note_on_c, 2, 43, 0
4, 90709, Note_on_c, 2, 45, 90
4, 90723, Note_on_c, 2, 45, 0
4, 90724, Note_on_c, 2, 46, 90
4, 90843, Note_on_c, 2, 46, 0
4, 90844, Note_on_c, 2, 36, 90
4, 90960, Note_on_c, 2, 34, 90
4, 90963, Note_on_c, 2, 36, 0
4, 91079, Note_on_c, 2, 34, 0
4, 91084, Note_on_c, 2, 36, 90
4, 91323, Note_on_c, 2, 36, 0
4, 91324, Note_on_c, 2, 48, 90
4, 91563, Note_on_c, 2, 48, 0
4, 91564, Note_on_c, 2, 41, 90
4, 91683, Note_on_c, 2, 41, 0
4, 91684, Note_on_c, 2, 48, 90
4, 91803, Note_on_c, 2, 48, 0
4, 91804, Note_on_c, 2, 53, 90
4, 91923, Note_on_c, 2, 53, 0
4, 91924, Note_on_c, 2, 51, 90
4, 92043, Note_on_c, 2, 51, 0
4, 92044, Note_on_c, 2, 51, 90
4, 92163, Note_on_c, 2, 51, 0
4, 92164, Note_on_c, 2, 50, 90
4, 92283, Note_on_c, 2, 50, 0
4, 92284, Note_on_c, 2, 50, 90
4, 92403, Note_on_c, 2, 50, 0
4, 92404, Note_on_c, 2, 48, 90
4, 92523, Note_on_c, 2, 48, 0
4, 92524, Note_on_c, 2, 46, 90
4, 92643, Note_on_c, 2, 46, 0
4, 92644, Note_on_c, 2, 45, 90
4, 92763, Note_on_c, 2, 45, 0
4, 92764, Note_on_c, 2, 46, 90
4, 92883, Note_on_c, 2, 46, 0
4, 92884, Note_on_c, 2, 38, 90
4, 93003, Note_on_c, 2, 38, 0
4, 93004, Note_on_c, 2, 39, 90
4, 93243, Note_on_c, 2, 39, 0
4, 93724, Note_on_c, 2, 51, 90
4, 93843, Note_on_c, 2, 51, 0
4, 93844, Note_on_c, 2, 50, 90
4, 93963, Note_on_c, 2, 50, 0
4, 93964, Note_on_c, 2, 48, 90
4, 94083, Note_on_c, 2, 48, 0
4, 94084, Note_on_c, 2, 47, 90
4, 94203, Note_on_c, 2, 47, 0
4, 94204, Note_on_c, 2, 48, 90
4, 94263, Note_on_c, 2, 48, 0
4, 94264, Note_on_c, 2, 50, 90
4, 94323, Note_on_c, 2, 50, 0
4, 94324, Note_on_c, 2, 51, 90
4, 94563, Note_on_c, 2, 51, 0
4, 94564, Note_on_c, 2, 45, 90
4, 94683, Note_on_c, 2, 45, 0
4, 94684, Note_on_c, 2, 46, 90
4, 94803, Note_on_c, 2, 46, 0
4, 94804, Note_on_c, 2, 43, 90
4, 94923, Note_on_c, 2, 43, 0
4, 94924, Note_on_c, 2, 44, 90
4, 95043, Note_on_c, 2, 44, 0
4, 95044, Note_on_c, 2, 40, 90
4, 95163, Note_on_c, 2, 40, 0
4, 95164, Note_on_c, 2, 41, 90
4, 95403, Note_on_c, 2, 41, 0
4, 95404, Note_on_c, 2, 53, 90
4, 95643, Note_on_c, 2, 53, 0
4, 95644, Note_on_c, 2, 41, 90
4, 95880, Note_on_c, 2, 46, 90
4, 95883, Note_on_c, 2, 41, 0
4, 96599, Note_on_c, 2, 46, 0
4, 96960, Note_on_c, 2, 55, 100
4, 97080, Note_on_c, 2, 55, 0
4, 97140, Note_on_c, 2, 53, 100
4, 97260, Note_on_c, 2, 53, 0
4, 97320, Note_on_c, 2, 51, 100
4, 97440, Note_on_c, 2, 51, 0
4, 97500, Note_on_c, 2, 48, 100
4, 97560, Note_on_c, 2, 48, 0
4, 97560, Note_on_c, 2, 50, 100
4, 97620, Note_on_c, 2, 50, 0
4, 97620, Note_on_c, 2, 38, 100
4, 97680, Note_on_c, 2, 38, 0
4, 97680, Note_on_c, 2, 43, 100
4, 97800, Note_on_c, 2, 43, 0
4, 98460, Note_on_c, 2, 50, 100
4, 98520, Note_on_c, 2, 50, 0
4, 98520, Note_on_c, 2, 50, 100
4, 98580, Note_on_c, 2, 50, 0
4, 98580, Note_on_c, 2, 50, 100
4, 98640, Note_on_c, 2, 50, 0
4, 98640, Note_on_c, 2, 50, 100
4, 98700, Note_on_c, 2, 50, 0
4, 98700, Note_on_c, 2, 50, 100
4, 98760, Note_on_c, 2, 50, 0
4, 98760, Note_on_c, 2, 43, 100
4, 98820, Note_on_c, 2, 43, 0
4, 98820, Note_on_c, 2, 55, 100
4, 98880, Note_on_c, 2, 55, 0
4, 98880, Note_on_c, 2, 55, 100
4, 98940, Note_on_c, 2, 55, 0
4, 98940, Note_on_c, 2, 57, 100
4, 99000, Note_on_c, 2, 57, 0
4, 99000, Note_on_c, 2, 57, 100
4, 99030, Note_on_c, 2, 57, 0
4, 99030, Note_on_c, 2, 58, 100
4, 99060, Note_on_c, 2, 58, 0
4, 99060, Note_on_c, 2, 60, 100
4, 99090, Note_on_c, 2, 60, 0
4, 99090, Note_on_c, 2, 57, 100
4, 99120, Note_on_c, 2, 57, 0
4, 99120, Note_on_c, 2, 58, 100
4, 99150, Note_on_c, 2, 58, 0
4, 99150, Note_on_c, 2, 57, 100
4, 99180, Note_on_c, 2, 57, 0
4, 99180, Note_on_c, 2, 55, 100
4, 99210, Note_on_c, 2, 55, 0
4, 99210, Note_on_c, 2, 58, 100
4, 99240, Note_on_c, 2, 58, 0
4, 99240, Note_on_c, 2, 57, 100
4, 99270, Note_on_c, 2, 57, 0
4, 99270, Note_on_c, 2, 60, 100
4, 99300, Note_on_c, 2, 60, 0
4, 99300, Note_on_c, 2, 58, 100
4, 99330, Note_on_c, 2, 58, 0
4, 99330, Note_on_c, 2, 57, 100
4, 99360, Note_on_c, 2, 57, 0
4, 99360, Note_on_c, 2, 55, 100
4, 99390, Note_on_c, 2, 55, 0
4, 99390, Note_on_c, 2, 57, 100
4, 99420, Note_on_c, 2, 57, 0
4, 99420, Note_on_c, 2, 53, 100
4, 99450, Note_on_c, 2, 53, 0
4, 99450, Note_on_c, 2, 55, 100
4, 99480, Note_on_c, 2, 55, 0
4, 99480, Note_on_c, 2, 52, 90
4, 99509, Note_on_c, 2, 52, 0
4, 99510, Note_on_c, 2, 55, 90
4, 99539, Note_on_c, 2, 55, 0
4, 99540, Note_on_c, 2, 53, 90
4, 99569, Note_on_c, 2, 53, 0
4, 99570, Note_on_c, 2, 57, 90
4, 99599, Note_on_c, 2, 57, 0
4, 99600, Note_on_c, 2, 55, 90
4, 99629, Note_on_c, 2, 55, 0
4, 99630, Note_on_c, 2, 58, 90
4, 99659, Note_on_c, 2, 58, 0
4, 99660, Note_on_c, 2, 57, 90
4, 99689, Note_on_c, 2, 57, 0
4, 99690, Note_on_c, 2, 55, 90
4, 99719, Note_on_c, 2, 55, 0
4, 99720, Note_on_c, 2, 53, 90
4, 99749, Note_on_c, 2, 53, 0
4, 99750, Note_on_c, 2, 55, 90
4, 99779, Note_on_c, 2, 55, 0
4, 99780, Note_on_c, 2, 51, 90
4, 99809, Note_on_c, 2, 51, 0
4, 99810, Note_on_c, 2, 53, 90
4, 99839, Note_on_c, 2, 53, 0
4, 99840, Note_on_c, 2, 50, 90
4, 99869, Note_on_c, 2, 50, 0
4, 99870, Note_on_c, 2, 53, 90
4, 99899, Note_on_c, 2, 53, 0
4, 99900, Note_on_c, 2, 51, 90
4, 99929, Note_on_c, 2, 51, 0
4, 99930, Note_on_c, 2, 55, 90
4, 99959, Note_on_c, 2, 55, 0
4, 99960, Note_on_c, 2, 53, 90
4, 99989, Note_on_c, 2, 53, 0
4, 99990, Note_on_c, 2, 56, 90
4, 100019, Note_on_c, 2, 56, 0
4, 100020, Note_on_c, 2, 55, 90
4, 100049, Note_on_c, 2, 55, 0
4, 100050, Note_on_c, 2, 53, 90
4, 100079, Note_on_c, 2, 53, 0
4, 100080, Note_on_c, 2, 51, 90
4, 100109, Note_on_c, 2, 51, 0
4, 100110, Note_on_c, 2, 53, 90
4, 100139, Note_on_c, 2, 53, 0
4, 100140, Note_on_c, 2, 50, 90
4, 100169, Note_on_c, 2, 50, 0
4, 100170, Note_on_c, 2, 51, 90
4, 100199, Note_on_c, 2, 51, 0
4, 100200, Note_on_c, 2, 48, 90
4, 100229, Note_on_c, 2, 48, 0
4, 100230, Note_on_c, 2, 53, 90
4, 100259, Note_on_c, 2, 53, 0
4, 100260, Note_on_c, 2, 51, 90
4, 100289, Note_on_c, 2, 51, 0
4, 100290, Note_on_c, 2, 50, 90
4, 100319, Note_on_c, 2, 50, 0
4, 100320, Note_on_c, 2, 48, 90
4, 100349, Note_on_c, 2, 48, 0
4, 100350, Note_on_c, 2, 46, 90
4, 100379, Note_on_c, 2, 46, 0
4, 100380, Note_on_c, 2, 45, 90
4, 100409, Note_on_c, 2, 45, 0
4, 100410, Note_on_c, 2, 50, 90
4, 100439, Note_on_c, 2, 50, 0
4, 100440, Note_on_c, 2, 48, 90
4, 100469, Note_on_c, 2, 48, 0
4, 100470, Note_on_c, 2, 46, 90
4, 100499, Note_on_c, 2, 46, 0
4, 100500, Note_on_c, 2, 45, 90
4, 100529, Note_on_c, 2, 45, 0
4, 100530, Note_on_c, 2, 43, 90
4, 100559, Note_on_c, 2, 43, 0
4, 100560, Note_on_c, 2, 41, 90
4, 100589, Note_on_c, 2, 41, 0
4, 100590, Note_on_c, 2, 46, 90
4, 100619, Note_on_c, 2, 46, 0
4, 100620, Note_on_c, 2, 45, 90
4, 100649, Note_on_c, 2, 45, 0
4, 100650, Note_on_c, 2, 43, 90
4, 100679, Note_on_c, 2, 43, 0
4, 100680, Note_on_c, 2, 41, 90
4, 100709, Note_on_c, 2, 41, 0
4, 100710, Note_on_c, 2, 39, 90
4, 100739, Note_on_c, 2, 39, 0
4, 100740, Note_on_c, 2, 38, 90
4, 100769, Note_on_c, 2, 38, 0
4, 100770, Note_on_c, 2, 43, 90
4, 100799, Note_on_c, 2, 43, 0
4, 100800, Note_on_c, 2, 41, 90
4, 100829, Note_on_c, 2, 41, 0
4, 100830, Note_on_c, 2, 39, 90
4, 100859, Note_on_c, 2, 39, 0
4, 100860, Note_on_c, 2, 38, 90
4, 100889, Note_on_c, 2, 38, 0
4, 100890, Note_on_c, 2, 36, 90
4, 100919, Note_on_c, 2, 36, 0
4, 100920, Note_on_c, 2, 34, 90
4, 100979, Note_on_c, 2, 34, 0
4, 100980, Note_on_c, 2, 55, 90
4, 101039, Note_on_c, 2, 55, 0
4, 101040, Note_on_c, 2, 50, 90
4, 101099, Note_on_c, 2, 50, 0
4, 101100, Note_on_c, 2, 51, 90
4, 101159, Note_on_c, 2, 51, 0
4, 101160, Note_on_c, 2, 48, 90
4, 101219, Note_on_c, 2, 48, 0
4, 101220, Note_on_c, 2, 53, 90
4, 101279, Note_on_c, 2, 53, 0
4, 101280, Note_on_c, 2, 46, 90
4, 101339, Note_on_c, 2, 46, 0
4, 101340, Note_on_c, 2, 50, 90
4, 101399, Note_on_c, 2, 50, 0
4, 101400, Note_on_c, 2, 53, 90
4, 101459, Note_on_c, 2, 53, 0
4, 101460, Note_on_c, 2, 58, 90
4, 101519, Note_on_c, 2, 58, 0
4, 101520, Note_on_c, 2, 57, 90
4, 101579, Note_on_c, 2, 57, 0
4, 101580, Note_on_c, 2, 55, 90
4, 101639, Note_on_c, 2, 55, 0
4, 101640, Note_on_c, 2, 62, 90
4, 101759, Note_on_c, 2, 62, 0
4, 101760, Note_on_c, 2, 57, 90
4, 101819, Note_on_c, 2, 57, 0
4, 101820, Note_on_c, 2, 58, 90
4, 101879, Note_on_c, 2, 58, 0
4, 101880, Note_on_c, 2, 55, 90
4, 101939, Note_on_c, 2, 55, 0
4, 101940, Note_on_c, 2, 60, 90
4, 101999, Note_on_c, 2, 60, 0
4, 102000, Note_on_c, 2, 53, 90
4, 102059, Note_on_c, 2, 53, 0
4, 102060, Note_on_c, 2, 41, 90
4, 102119, Note_on_c, 2, 41, 0
4, 102120, Note_on_c, 2, 41, 90
4, 102179, Note_on_c, 2, 41, 0
4, 102180, Note_on_c, 2, 41, 90
4, 102239, Note_on_c, 2, 41, 0
4, 102240, Note_on_c, 2, 41, 90
4, 102299, Note_on_c, 2, 41, 0
4, 102300, Note_on_c, 2, 41, 90
4, 102359, Note_on_c, 2, 41, 0
4, 102360, Note_on_c, 2, 34, 90
4, 102419, Note_on_c, 2, 34, 0
4, 102420, Note_on_c, 2, 46, 90
4, 102479, Note_on_c, 2, 46, 0
4, 102480, Note_on_c, 2, 46, 90
4, 102539, Note_on_c, 2, 46, 0
4, 102540, Note_on_c, 2, 48, 90
4, 102599, Note_on_c, 2, 48, 0
4, 102600, Note_on_c, 2, 48, 90
4, 102629, Note_on_c, 2, 48, 0
4, 102630, Note_on_c, 2, 50, 90
4, 102659, Note_on_c, 2, 50, 0
4, 102660, Note_on_c, 2, 51, 90
4, 102689, Note_on_c, 2, 51, 0
4, 102690, Note_on_c, 2, 48, 90
4, 102719, Note_on_c, 2, 48, 0
4, 102720, Note_on_c, 2, 50, 90
4, 102749, Note_on_c, 2, 50, 0
4, 102750, Note_on_c, 2, 48, 90
4, 102779, Note_on_c, 2, 48, 0
4, 102780, Note_on_c, 2, 46, 90
4, 102809, Note_on_c, 2, 46, 0
4, 102810, Note_on_c, 2, 50, 90
4, 102839, Note_on_c, 2, 50, 0
4, 102840, Note_on_c, 2, 48, 90
4, 102869, Note_on_c, 2, 48, 0
4, 102870, Note_on_c, 2, 51, 90
4, 102899, Note_on_c, 2, 51, 0
4, 102900, Note_on_c, 2, 50, 90
4, 102929, Note_on_c, 2, 50, 0
4, 102930, Note_on_c, 2, 53, 90
4, 102959, Note_on_c, 2, 53, 0
4, 102960, Note_on_c, 2, 51, 90
4, 102989, Note_on_c, 2, 51, 0
4, 102990, Note_on_c, 2, 55, 90
4, 103019, Note_on_c, 2, 55, 0
4, 103020, Note_on_c, 2, 53, 90
4, 103049, Note_on_c, 2, 53, 0
4, 103050, Note_on_c, 2, 57, 90
4, 103079, Note_on_c, 2, 57, 0
4, 103080, Note_on_c, 2, 45, 90
4, 103139, Note_on_c, 2, 45, 0
4, 103140, Note_on_c, 2, 41, 90
4, 103199, Note_on_c, 2, 41, 0
4, 103200, Note_on_c, 2, 46, 90
4, 103259, Note_on_c, 2, 46, 0
4, 103260, Note_on_c, 2, 51, 90
4, 103319, Note_on_c, 2, 51, 0
4, 103320, Note_on_c, 2, 53, 90
4, 103379, Note_on_c, 2, 53, 0
4, 103380, Note_on_c, 2, 41, 90
4, 103439, Note_on_c, 2, 41, 0
4, 103440, Note_on_c, 2, 46, 90
4, 103499, Note_on_c, 2, 46, 0
4, 103500, Note_on_c, 2, 46, 90
4, 103559, Note_on_c, 2, 46, 0
4, 103560, Note_on_c, 2, 46, 90
4, 103619, Note_on_c, 2, 46, 0
4, 103620, Note_on_c, 2, 46, 90
4, 103679, Note_on_c, 2, 46, 0
4, 103680, Note_on_c, 2, 46, 90
4, 103739, Note_on_c, 2, 46, 0
4, 103740, Note_on_c, 2, 46, 90
4, 103799, Note_on_c, 2, 46, 0
4, 103800, Note_on_c, 2, 46, 90
4, 103859, Note_on_c, 2, 46, 0
4, 103860, Note_on_c, 2, 46, 90
4, 103919, Note_on_c, 2, 46, 0
4, 103920, Note_on_c, 2, 46, 90
4, 103979, Note_on_c, 2, 46, 0
4, 103980, Note_on_c, 2, 46, 90
4, 104039, Note_on_c, 2, 46, 0
4, 104040, Note_on_c, 2, 46, 90
4, 104099, Note_on_c, 2, 46, 0
4, 104100, Note_on_c, 2, 46, 90
4, 104159, Note_on_c, 2, 46, 0
4, 104160, Note_on_c, 2, 46, 90
4, 104219, Note_on_c, 2, 46, 0
4, 104220, Note_on_c, 2, 46, 90
4, 104279, Note_on_c, 2, 46, 0
4, 104280, Note_on_c, 2, 46, 90
4, 104339, Note_on_c, 2, 46, 0
4, 104340, Note_on_c, 2, 46, 90
4, 104399, Note_on_c, 2, 46, 0
4, 104400, Note_on_c, 2, 46, 90
4, 104459, Note_on_c, 2, 46, 0
4, 104460, Note_on_c, 2, 46, 90
4, 104519, Note_on_c, 2, 46, 0
4, 104520, Note_on_c, 2, 46, 90
4, 104579, Note_on_c, 2, 46, 0
4, 104580, Note_on_c, 2, 46, 90
4, 104639, Note_on_c, 2, 46, 0
4, 104640, Note_on_c, 2, 46, 90
4, 104699, Note_on_c, 2, 46, 0
4, 104700, Note_on_c, 2, 46, 90
4, 104759, Note_on_c, 2, 46, 0
4, 104760, Note_on_c, 2, 46, 90
4, 104819, Note_on_c, 2, 46, 0
4, 104820, Note_on_c, 2, 46, 90
4, 104879, Note_on_c, 2, 46, 0
4, 104880, Note_on_c, 2, 46, 90
4, 104939, Note_on_c, 2, 46, 0
4, 104940, Note_on_c, 2, 46, 90
4, 104999, Note_on_c, 2, 46, 0
4, 105000, Note_on_c, 2, 43, 90
4, 105059, Note_on_c, 2, 43, 0
4, 105060, Note_on_c, 2, 48, 90
4, 105119, Note_on_c, 2, 48, 0
4, 105120, Note_on_c, 2, 46, 90
4, 105179, Note_on_c, 2, 46, 0
4, 105180, Note_on_c, 2, 48, 90
4, 105239, Note_on_c, 2, 48, 0
4, 105240, Note_on_c, 2, 41, 90
4, 105299, Note_on_c, 2, 41, 0
4, 105300, Note_on_c, 2, 41, 90
4, 105359, Note_on_c, 2, 41, 0
4, 105360, Note_on_c, 2, 41, 90
4, 105419, Note_on_c, 2, 41, 0
4, 105420, Note_on_c, 2, 41, 90
4, 105479, Note_on_c, 2, 41, 0
4, 105480, Note_on_c, 2, 41, 90
4, 105539, Note_on_c, 2, 41, 0
4, 105540, Note_on_c, 2, 41, 90
4, 105599, Note_on_c, 2, 41, 0
4, 105600, Note_on_c, 2, 41, 90
4, 105659, Note_on_c, 2, 41, 0
4, 105660, Note_on_c, 2, 41, 90
4, 105719, Note_on_c, 2, 41, 0
4, 105720, Note_on_c, 2, 41, 90
4, 105779, Note_on_c, 2, 41, 0
4, 105780, Note_on_c, 2, 41, 90
4, 105839, Note_on_c, 2, 41, 0
4, 105840, Note_on_c, 2, 41, 90
4, 105899, Note_on_c, 2, 41, 0
4, 105900, Note_on_c, 2, 41, 90
4, 105959, Note_on_c, 2, 41, 0
4, 105960, Note_on_c, 2, 41, 90
4, 106019, Note_on_c, 2, 41, 0
4, 106020, Note_on_c, 2, 41, 90
4, 106079, Note_on_c, 2, 41, 0
4, 106080, Note_on_c, 2, 41, 90
4, 106139, Note_on_c, 2, 41, 0
4, 106140, Note_on_c, 2, 41, 90
4, 106199, Note_on_c, 2, 41, 0
4, 106200, Note_on_c, 2, 41, 90
4, 106259, Note_on_c, 2, 41, 0
4, 106260, Note_on_c, 2, 41, 90
4, 106319, Note_on_c, 2, 41, 0
4, 106320, Note_on_c, 2, 41, 90
4, 106379, Note_on_c, 2, 41, 0
4, 106380, Note_on_c, 2, 41, 90
4, 106439, Note_on_c, 2, 41, 0
4, 106440, Note_on_c, 2, 41, 90
4, 106499, Note_on_c, 2, 41, 0
4, 106500, Note_on_c, 2, 41, 90
4, 106559, Note_on_c, 2, 41, 0
4, 106560, Note_on_c, 2, 41, 90
4, 106619, Note_on_c, 2, 41, 0
4, 106620, Note_on_c, 2, 41, 90
4, 106679, Note_on_c, 2, 41, 0
4, 106680, Note_on_c, 2, 41, 90
4, 106739, Note_on_c, 2, 41, 0
4, 106740, Note_on_c, 2, 53, 90
4, 106799, Note_on_c, 2, 53, 0
4, 106800, Note_on_c, 2, 50, 90
4, 106859, Note_on_c, 2, 50, 0
4, 106860, Note_on_c, 2, 55, 90
4, 106919, Note_on_c, 2, 55, 0
4, 106920, Note_on_c, 2, 53, 90
4, 106979, Note_on_c, 2, 53, 0
4, 106980, Note_on_c, 2, 55, 90
4, 107039, Note_on_c, 2, 55, 0
4, 107040, Note_on_c, 2, 48, 90
4, 107099, Note_on_c, 2, 48, 0
4, 107100, Note_on_c, 2, 48, 90
4, 107159, Note_on_c, 2, 48, 0
4, 107160, Note_on_c, 2, 45, 90
4, 107219, Note_on_c, 2, 45, 0
4, 107220, Note_on_c, 2, 50, 90
4, 107279, Note_on_c, 2, 50, 0
4, 107280, Note_on_c, 2, 48, 90
4, 107339, Note_on_c, 2, 48, 0
4, 107340, Note_on_c, 2, 50, 90
4, 107399, Note_on_c, 2, 50, 0
4, 107400, Note_on_c, 2, 43, 90
4, 107459, Note_on_c, 2, 43, 0
4, 107460, Note_on_c, 2, 55, 90
4, 107519, Note_on_c, 2, 55, 0
4, 107520, Note_on_c, 2, 52, 90
4, 107579, Note_on_c, 2, 52, 0
4, 107580, Note_on_c, 2, 57, 90
4, 107639, Note_on_c, 2, 57, 0
4, 107640, Note_on_c, 2, 55, 90
4, 107699, Note_on_c, 2, 55, 0
4, 107700, Note_on_c, 2, 57, 90
4, 107759, Note_on_c, 2, 57, 0
4, 107760, Note_on_c, 2, 50, 90
4, 107789, Note_on_c, 2, 50, 0
4, 107790, Note_on_c, 2, 49, 90
4, 107819, Note_on_c, 2, 49, 0
4, 107820, Note_on_c, 2, 50, 90
4, 107849, Note_on_c, 2, 50, 0
4, 107850, Note_on_c, 2, 52, 90
4, 107879, Note_on_c, 2, 52, 0
4, 107880, Note_on_c, 2, 53, 90
4, 107909, Note_on_c, 2, 53, 0
4, 107910, Note_on_c, 2, 50, 90
4, 107939, Note_on_c, 2, 50, 0
4, 107940, Note_on_c, 2, 55, 90
4, 107969, Note_on_c, 2, 55, 0
4, 107970, Note_on_c, 2, 53, 90
4, 107999, Note_on_c, 2, 53, 0
4, 108000, Note_on_c, 2, 55, 90
4, 108029, Note_on_c, 2, 55, 0
4, 108030, Note_on_c, 2, 57, 90
4, 108059, Note_on_c, 2, 57, 0
4, 108060, Note_on_c, 2, 58, 90
4, 108089, Note_on_c, 2, 58, 0
4, 108090, Note_on_c, 2, 55, 90
4, 108119, Note_on_c, 2, 55, 0
4, 108120, Note_on_c, 2, 57, 90
4, 108179, Note_on_c, 2, 57, 0
4, 108180, Note_on_c, 2, 45, 90
4, 108239, Note_on_c, 2, 45, 0
4, 108240, Note_on_c, 2, 45, 90
4, 108299, Note_on_c, 2, 45, 0
4, 108300, Note_on_c, 2, 45, 90
4, 108359, Note_on_c, 2, 45, 0
4, 108360, Note_on_c, 2, 45, 90
4, 108419, Note_on_c, 2, 45, 0
4, 108420, Note_on_c, 2, 45, 90
4, 108479, Note_on_c, 2, 45, 0
4, 108480, Note_on_c, 2, 38, 90
4, 108539, Note_on_c, 2, 38, 0
4, 108540, Note_on_c, 2, 50, 90
4, 108599, Note_on_c, 2, 50, 0
4, 108600, Note_on_c, 2, 50, 90
4, 108659, Note_on_c, 2, 50, 0
4, 108660, Note_on_c, 2, 52, 90
4, 108689, Note_on_c, 2, 52, 0
4, 108690, Note_on_c, 2, 50, 90
4, 108719, Note_on_c, 2, 50, 0
4, 108720, Note_on_c, 2, 52, 90
4, 108749, Note_on_c, 2, 52, 0
4, 108750, Note_on_c, 2, 53, 90
4, 108779, Note_on_c, 2, 53, 0
4, 108780, Note_on_c, 2, 55, 90
4, 108809, Note_on_c, 2, 55, 0
4, 108810, Note_on_c, 2, 52, 90
4, 108839, Note_on_c, 2, 52, 0
4, 108840, Note_on_c, 2, 53, 90
4, 108869, Note_on_c, 2, 53, 0
4, 108870, Note_on_c, 2, 52, 90
4, 108899, Note_on_c, 2, 52, 0
4, 108900, Note_on_c, 2, 50, 90
4, 108929, Note_on_c, 2, 50, 0
4, 108930, Note_on_c, 2, 53, 90
4, 108959, Note_on_c, 2, 53, 0
4, 108960, Note_on_c, 2, 52, 90
4, 108989, Note_on_c, 2, 52, 0
4, 108990, Note_on_c, 2, 55, 90
4, 109019, Note_on_c, 2, 55, 0
4, 109020, Note_on_c, 2, 53, 90
4, 109049, Note_on_c, 2, 53, 0
4, 109050, Note_on_c, 2, 52, 90
4, 109079, Note_on_c, 2, 52, 0
4, 109080, Note_on_c, 2, 50, 90
4, 109109, Note_on_c, 2, 50, 0
4, 109110, Note_on_c, 2, 52, 90
4, 109139, Note_on_c, 2, 52, 0
4, 109140, Note_on_c, 2, 53, 90
4, 109169, Note_on_c, 2, 53, 0
4, 109170, Note_on_c, 2, 50, 90
4, 109199, Note_on_c, 2, 50, 0
4, 109200, Note_on_c, 2, 55, 90
4, 109229, Note_on_c, 2, 55, 0
4, 109230, Note_on_c, 2, 54, 90
4, 109259, Note_on_c, 2, 54, 0
4, 109260, Note_on_c, 2, 55, 90
4, 109289, Note_on_c, 2, 55, 0
4, 109290, Note_on_c, 2, 58, 90
4, 109319, Note_on_c, 2, 58, 0
4, 109320, Note_on_c, 2, 57, 90
4, 109349, Note_on_c, 2, 57, 0
4, 109350, Note_on_c, 2, 60, 90
4, 109379, Note_on_c, 2, 60, 0
4, 109380, Note_on_c, 2, 58, 90
4, 109409, Note_on_c, 2, 58, 0
4, 109410, Note_on_c, 2, 57, 90
4, 109439, Note_on_c, 2, 57, 0
4, 109440, Note_on_c, 2, 55, 90
4, 109469, Note_on_c, 2, 55, 0
4, 109470, Note_on_c, 2, 57, 90
4, 109499, Note_on_c, 2, 57, 0
4, 109500, Note_on_c, 2, 58, 90
4, 109529, Note_on_c, 2, 58, 0
4, 109530, Note_on_c, 2, 55, 90
4, 109559, Note_on_c, 2, 55, 0
4, 109560, Note_on_c, 2, 61, 90
4, 109649, Note_on_c, 2, 61, 0
4, 109650, Note_on_c, 2, 57, 90
4, 109679, Note_on_c, 2, 57, 0
4, 109680, Note_on_c, 2, 62, 90
4, 109769, Note_on_c, 2, 62, 0
4, 109770, Note_on_c, 2, 55, 90
4, 109799, Note_on_c, 2, 55, 0
4, 109800, Note_on_c, 2, 57, 90
4, 109859, Note_on_c, 2, 57, 0
4, 109860, Note_on_c, 2, 45, 90
4, 109919, Note_on_c, 2, 45, 0
4, 109920, Note_on_c, 2, 50, 90
4, 109979, Note_on_c, 2, 50, 0
4, 109980, Note_on_c, 2, 57, 90
4, 110039, Note_on_c, 2, 57, 0
4, 110040, Note_on_c, 2, 53, 90
4, 110099, Note_on_c, 2, 53, 0
4, 110100, Note_on_c, 2, 50, 90
4, 110159, Note_on_c, 2, 50, 0
4, 110160, Note_on_c, 2, 62, 90
4, 110219, Note_on_c, 2, 62, 0
4, 110220, Note_on_c, 2, 50, 90
4, 110279, Note_on_c, 2, 50, 0
4, 110280, Note_on_c, 2, 55, 90
4, 110339, Note_on_c, 2, 55, 0
4, 110340, Note_on_c, 2, 50, 90
4, 110399, Note_on_c, 2, 50, 0
4, 110400, Note_on_c, 2, 47, 90
4, 110459, Note_on_c, 2, 47, 0
4, 110460, Note_on_c, 2, 43, 90
4, 110519, Note_on_c, 2, 43, 0
4, 110520, Note_on_c, 2, 55, 90
4, 110579, Note_on_c, 2, 55, 0
4, 110580, Note_on_c, 2, 43, 90
4, 110639, Note_on_c, 2, 43, 0
4, 110640, Note_on_c, 2, 48, 90
4, 110699, Note_on_c, 2, 48, 0
4, 110700, Note_on_c, 2, 55, 90
4, 110759, Note_on_c, 2, 55, 0
4, 110760, Note_on_c, 2, 51, 90
4, 110819, Note_on_c, 2, 51, 0
4, 110820, Note_on_c, 2, 48, 90
4, 110879, Note_on_c, 2, 48, 0
4, 110880, Note_on_c, 2, 60, 90
4, 110939, Note_on_c, 2, 60, 0
4, 110940, Note_on_c, 2, 55, 90
4, 110999, Note_on_c, 2, 55, 0
4, 111000, Note_on_c, 2, 53, 90
4, 111059, Note_on_c, 2, 53, 0
4, 111060, Note_on_c, 2, 48, 90
4, 111119, Note_on_c, 2, 48, 0
4, 111120, Note_on_c, 2, 45, 90
4, 111179, Note_on_c, 2, 45, 0
4, 111180, Note_on_c, 2, 41, 90
4, 111239, Note_on_c, 2, 41, 0
4, 111240, Note_on_c, 2, 53, 90
4, 111299, Note_on_c, 2, 53, 0
4, 111300, Note_on_c, 2, 41, 90
4, 111359, Note_on_c, 2, 41, 0
4, 111360, Note_on_c, 2, 46, 90
4, 111419, Note_on_c, 2, 46, 0
4, 111420, Note_on_c, 2, 53, 90
4, 111479, Note_on_c, 2, 53, 0
4, 111480, Note_on_c, 2, 50, 90
4, 111539, Note_on_c, 2, 50, 0
4, 111540, Note_on_c, 2, 46, 90
4, 111599, Note_on_c, 2, 46, 0
4, 111600, Note_on_c, 2, 58, 90
4, 111659, Note_on_c, 2, 58, 0
4, 111660, Note_on_c, 2, 46, 90
4, 111719, Note_on_c, 2, 46, 0
4, 111720, Note_on_c, 2, 52, 90
4, 111779, Note_on_c, 2, 52, 0
4, 111780, Note_on_c, 2, 52, 90
4, 111839, Note_on_c, 2, 52, 0
4, 111840, Note_on_c, 2, 52, 90
4, 111899, Note_on_c, 2, 52, 0
4, 111900, Note_on_c, 2, 52, 90
4, 111959, Note_on_c, 2, 52, 0
4, 111960, Note_on_c, 2, 52, 90
4, 112019, Note_on_c, 2, 52, 0
4, 112020, Note_on_c, 2, 52, 90
4, 112079, Note_on_c, 2, 52, 0
4, 112080, Note_on_c, 2, 40, 90
4, 112139, Note_on_c, 2, 40, 0
4, 112140, Note_on_c, 2, 40, 90
4, 112199, Note_on_c, 2, 40, 0
4, 112200, Note_on_c, 2, 40, 90
4, 112259, Note_on_c, 2, 40, 0
4, 112260, Note_on_c, 2, 40, 90
4, 112319, Note_on_c, 2, 40, 0
4, 112320, Note_on_c, 2, 40, 90
4, 112379, Note_on_c, 2, 40, 0
4, 112380, Note_on_c, 2, 40, 90
4, 112439, Note_on_c, 2, 40, 0
4, 112440, Note_on_c, 2, 41, 90
4, 112499, Note_on_c, 2, 41, 0
4, 112500, Note_on_c, 2, 45, 90
4, 112559, Note_on_c, 2, 45, 0
4, 112560, Note_on_c, 2, 48, 90
4, 112619, Note_on_c, 2, 48, 0
4, 112620, Note_on_c, 2, 53, 90
4, 112679, Note_on_c, 2, 53, 0
4, 112680, Note_on_c, 2, 57, 90
4, 112739, Note_on_c, 2, 57, 0
4, 112740, Note_on_c, 2, 60, 90
4, 112799, Note_on_c, 2, 60, 0
4, 112800, Note_on_c, 2, 62, 90
4, 112859, Note_on_c, 2, 62, 0
4, 112860, Note_on_c, 2, 57, 90
4, 112919, Note_on_c, 2, 57, 0
4, 112920, Note_on_c, 2, 54, 90
4, 112979, Note_on_c, 2, 54, 0
4, 112980, Note_on_c, 2, 50, 90
4, 113039, Note_on_c, 2, 50, 0
4, 113040, Note_on_c, 2, 62, 90
4, 113099, Note_on_c, 2, 62, 0
4, 113100, Note_on_c, 2, 50, 90
4, 113159, Note_on_c, 2, 50, 0
4, 113160, Note_on_c, 2, 55, 90
4, 113219, Note_on_c, 2, 55, 0
4, 113220, Note_on_c, 2, 50, 90
4, 113279, Note_on_c, 2, 50, 0
4, 113280, Note_on_c, 2, 46, 90
4, 113339, Note_on_c, 2, 46, 0
4, 113340, Note_on_c, 2, 43, 90
4, 113399, Note_on_c, 2, 43, 0
4, 113400, Note_on_c, 2, 55, 90
4, 113459, Note_on_c, 2, 55, 0
4, 113460, Note_on_c, 2, 43, 90
4, 113519, Note_on_c, 2, 43, 0
4, 113520, Note_on_c, 2, 48, 90
4, 113579, Note_on_c, 2, 48, 0
4, 113580, Note_on_c, 2, 55, 90
4, 113639, Note_on_c, 2, 55, 0
4, 113640, Note_on_c, 2, 52, 90
4, 113699, Note_on_c, 2, 52, 0
4, 113700, Note_on_c, 2, 48, 90
4, 113759, Note_on_c, 2, 48, 0
4, 113760, Note_on_c, 2, 60, 90
4, 113819, Note_on_c, 2, 60, 0
4, 113820, Note_on_c, 2, 48, 90
4, 113879, Note_on_c, 2, 48, 0
4, 113880, Note_on_c, 2, 53, 90
4, 113939, Note_on_c, 2, 53, 0
4, 113940, Note_on_c, 2, 48, 90
4, 113999, Note_on_c, 2, 48, 0
4, 114000, Note_on_c, 2, 45, 90
4, 114059, Note_on_c, 2, 45, 0
4, 114060, Note_on_c, 2, 41, 90
4, 114119, Note_on_c, 2, 41, 0
4, 114120, Note_on_c, 2, 53, 90
4, 114179, Note_on_c, 2, 53, 0
4, 114180, Note_on_c, 2, 41, 90
4, 114239, Note_on_c, 2, 41, 0
4, 114240, Note_on_c, 2, 47, 90
4, 114299, Note_on_c, 2, 47, 0
4, 114300, Note_on_c, 2, 47, 90
4, 114359, Note_on_c, 2, 47, 0
4, 114360, Note_on_c, 2, 47, 90
4, 114419, Note_on_c, 2, 47, 0
4, 114420, Note_on_c, 2, 47, 90
4, 114479, Note_on_c, 2, 47, 0
4, 114480, Note_on_c, 2, 47, 90
4, 114539, Note_on_c, 2, 47, 0
4, 114540, Note_on_c, 2, 47, 90
4, 114599, Note_on_c, 2, 47, 0
4, 114600, Note_on_c, 2, 35, 90
4, 114659, Note_on_c, 2, 35, 0
4, 114660, Note_on_c, 2, 35, 90
4, 114719, Note_on_c, 2, 35, 0
4, 114720, Note_on_c, 2, 35, 90
4, 114779, Note_on_c, 2, 35, 0
4, 114780, Note_on_c, 2, 35, 90
4, 114839, Note_on_c, 2, 35, 0
4, 114840, Note_on_c, 2, 35, 90
4, 114899, Note_on_c, 2, 35, 0
4, 114900, Note_on_c, 2, 35, 90
4, 114959, Note_on_c, 2, 35, 0
4, 114960, Note_on_c, 2, 36, 90
4, 115019, Note_on_c, 2, 36, 0
4, 115350, Note_on_c, 2, 36, 90
4, 115379, Note_on_c, 2, 36, 0
4, 115380, Note_on_c, 2, 41, 90
4, 115409, Note_on_c, 2, 41, 0
4, 115410, Note_on_c, 2, 45, 90
4, 115439, Note_on_c, 2, 45, 0
4, 115440, Note_on_c, 2, 43, 90
4, 115469, Note_on_c, 2, 43, 0
4, 115470, Note_on_c, 2, 46, 90
4, 115499, Note_on_c, 2, 46, 0
4, 115500, Note_on_c, 2, 45, 90
4, 115529, Note_on_c, 2, 45, 0
4, 115530, Note_on_c, 2, 48, 90
4, 115559, Note_on_c, 2, 48, 0
4, 115560, Note_on_c, 2, 41, 90
4, 115589, Note_on_c, 2, 41, 0
4, 115590, Note_on_c, 2, 43, 90
4, 115619, Note_on_c, 2, 43, 0
4, 115620, Note_on_c, 2, 45, 90
4, 115649, Note_on_c, 2, 45, 0
4, 115650, Note_on_c, 2, 41, 90
4, 115679, Note_on_c, 2, 41, 0
4, 115680, Note_on_c, 2, 46, 90
4, 115709, Note_on_c, 2, 46, 0
4, 115710, Note_on_c, 2, 45, 90
4, 115739, Note_on_c, 2, 45, 0
4, 115740, Note_on_c, 2, 46, 90
4, 115769, Note_on_c, 2, 46, 0
4, 115770, Note_on_c, 2, 50, 90
4, 115799, Note_on_c, 2, 50, 0
4, 115800, Note_on_c, 2, 48, 90
4, 115829, Note_on_c, 2, 48, 0
4, 115830, Note_on_c, 2, 51, 90
4, 115859, Note_on_c, 2, 51, 0
4, 115860, Note_on_c, 2, 50, 90
4, 115889, Note_on_c, 2, 50, 0
4, 115890, Note_on_c, 2, 53, 90
4, 115919, Note_on_c, 2, 53, 0
4, 115920, Note_on_c, 2, 46, 90
4, 115949, Note_on_c, 2, 46, 0
4, 115950, Note_on_c, 2, 48, 90
4, 115979, Note_on_c, 2, 48, 0
4, 115980, Note_on_c, 2, 50, 90
4, 116009, Note_on_c, 2, 50, 0
4, 116010, Note_on_c, 2, 46, 90
4, 116039, Note_on_c, 2, 46, 0
4, 116040, Note_on_c, 2, 52, 90
4, 116129, Note_on_c, 2, 52, 0
4, 116130, Note_on_c, 2, 48, 90
4, 116159, Note_on_c, 2, 48, 0
4, 116160, Note_on_c, 2, 53, 90
4, 116249, Note_on_c, 2, 53, 0
4, 116250, Note_on_c, 2, 46, 90
4, 116279, Note_on_c, 2, 46, 0
4, 116280, Note_on_c, 2, 48, 90
4, 116339, Note_on_c, 2, 48, 0
4, 116340, Note_on_c, 2, 36, 90
4, 116399, Note_on_c, 2, 36, 0
4, 116400, Note_on_c, 2, 41, 90
4, 116459, Note_on_c, 2, 41, 0
4, 116460, Note_on_c, 2, 45, 90
4, 116519, Note_on_c, 2, 45, 0
4, 116520, Note_on_c, 2, 48, 90
4, 116579, Note_on_c, 2, 48, 0
4, 116580, Note_on_c, 2, 53, 90
4, 116699, Note_on_c, 2, 53, 0
4, 116940, Note_on_c, 2, 50, 90
4, 116999, Note_on_c, 2, 50, 0
4, 117000, Note_on_c, 2, 47, 90
4, 117059, Note_on_c, 2, 47, 0
4, 117060, Note_on_c, 2, 43, 90
4, 117119, Note_on_c, 2, 43, 0
4, 117120, Note_on_c, 2, 36, 90
4, 117179, Note_on_c, 2, 36, 0
4, 117180, Note_on_c, 2, 39, 90
4, 117239, Note_on_c, 2, 39, 0
4, 117240, Note_on_c, 2, 43, 90
4, 117299, Note_on_c, 2, 43, 0
4, 117300, Note_on_c, 2, 48, 90
4, 117419, Note_on_c, 2, 48, 0
4, 117660, Note_on_c, 2, 45, 90
4, 117719, Note_on_c, 2, 45, 0
4, 117720, Note_on_c, 2, 42, 90
4, 117779, Note_on_c, 2, 42, 0
4, 117780, Note_on_c, 2, 38, 90
4, 117839, Note_on_c, 2, 38, 0
4, 117840, Note_on_c, 2, 43, 90
4, 117899, Note_on_c, 2, 43, 0
4, 117900, Note_on_c, 2, 46, 90
4, 117959, Note_on_c, 2, 46, 0
4, 117960, Note_on_c, 2, 50, 90
4, 118019, Note_on_c, 2, 50, 0
4, 118020, Note_on_c, 2, 55, 90
4, 118139, Note_on_c, 2, 55, 0
4, 118380, Note_on_c, 2, 52, 90
4, 118439, Note_on_c, 2, 52, 0
4, 118440, Note_on_c, 2, 49, 90
4, 118499, Note_on_c, 2, 49, 0
4, 118500, Note_on_c, 2, 45, 90
4, 118559, Note_on_c, 2, 45, 0
4, 118560, Note_on_c, 2, 50, 90
4, 118589, Note_on_c, 2, 50, 0
4, 118590, Note_on_c, 2, 57, 90
4, 118619, Note_on_c, 2, 57, 0
4, 118620, Note_on_c, 2, 60, 90
4, 118649, Note_on_c, 2, 60, 0
4, 118650, Note_on_c, 2, 65, 90
4, 118679, Note_on_c, 2, 65, 0
4, 118680, Note_on_c, 2, 64, 90
4, 118709, Note_on_c, 2, 64, 0
4, 118710, Note_on_c, 2, 67, 90
4, 118739, Note_on_c, 2, 67, 0
4, 118740, Note_on_c, 2, 65, 90
4, 118769, Note_on_c, 2, 65, 0
4, 118770, Note_on_c, 2, 64, 90
4, 118799, Note_on_c, 2, 64, 0
4, 118800, Note_on_c, 2, 62, 90
4, 118829, Note_on_c, 2, 62, 0
4, 118830, Note_on_c, 2, 64, 90
4, 118859, Note_on_c, 2, 64, 0
4, 118860, Note_on_c, 2, 60, 90
4, 118889, Note_on_c, 2, 60, 0
4, 118890, Note_on_c, 2, 62, 90
4, 118919, Note_on_c, 2, 62, 0
4, 118920, Note_on_c, 2, 59, 90
4, 118949, Note_on_c, 2, 59, 0
4, 118950, Note_on_c, 2, 55, 90
4, 118979, Note_on_c, 2, 55, 0
4, 118980, Note_on_c, 2, 60, 90
4, 119009, Note_on_c, 2, 60, 0
4, 119010, Note_on_c, 2, 64, 90
4, 119039, Note_on_c, 2, 64, 0
4, 119040, Note_on_c, 2, 62, 90
4, 119069, Note_on_c, 2, 62, 0
4, 119070, Note_on_c, 2, 65, 90
4, 119099, Note_on_c, 2, 65, 0
4, 119100, Note_on_c, 2, 64, 90
4, 119129, Note_on_c, 2, 64, 0
4, 119130, Note_on_c, 2, 62, 90
4, 119159, Note_on_c, 2, 62, 0
4, 119160, Note_on_c, 2, 60, 90
4, 119189, Note_on_c, 2, 60, 0
4, 119190, Note_on_c, 2, 62, 90
4, 119219, Note_on_c, 2, 62, 0
4, 119220, Note_on_c, 2, 58, 90
4, 119249, Note_on_c, 2, 58, 0
4, 119250, Note_on_c, 2, 60, 90
4, 119279, Note_on_c, 2, 60, 0
4, 119280, Note_on_c, 2, 57, 90
4, 119309, Note_on_c, 2, 57, 0
4, 119310, Note_on_c, 2, 53, 90
4, 119339, Note_on_c, 2, 53, 0
4, 119340, Note_on_c, 2, 58, 90
4, 119369, Note_on_c, 2, 58, 0
4, 119370, Note_on_c, 2, 62, 90
4, 119399, Note_on_c, 2, 62, 0
4, 119400, Note_on_c, 2, 60, 90
4, 119429, Note_on_c, 2, 60, 0
4, 119430, Note_on_c, 2, 63, 90
4, 119459, Note_on_c, 2, 63, 0
4, 119460, Note_on_c, 2, 62, 90
4, 119489, Note_on_c, 2, 62, 0
4, 119490, Note_on_c, 2, 60, 90
4, 119519, Note_on_c, 2, 60, 0
4, 119520, Note_on_c, 2, 58, 90
4, 119549, Note_on_c, 2, 58, 0
4, 119550, Note_on_c, 2, 60, 90
4, 119579, Note_on_c, 2, 60, 0
4, 119580, Note_on_c, 2, 57, 90
4, 119609, Note_on_c, 2, 57, 0
4, 119610, Note_on_c, 2, 58, 90
4, 119639, Note_on_c, 2, 58, 0
4, 119640, Note_on_c, 2, 55, 90
4, 119669, Note_on_c, 2, 55, 0
4, 119670, Note_on_c, 2, 57, 90
4, 119699, Note_on_c, 2, 57, 0
4, 119700, Note_on_c, 2, 58, 90
4, 119729, Note_on_c, 2, 58, 0
4, 119730, Note_on_c, 2, 57, 90
4, 119759, Note_on_c, 2, 57, 0
4, 119760, Note_on_c, 2, 55, 90
4, 119789, Note_on_c, 2, 55, 0
4, 119790, Note_on_c, 2, 53, 90
4, 119819, Note_on_c, 2, 53, 0
4, 119820, Note_on_c, 2, 52, 90
4, 119849, Note_on_c, 2, 52, 0
4, 119850, Note_on_c, 2, 53, 90
4, 119879, Note_on_c, 2, 53, 0
4, 119880, Note_on_c, 2, 55, 90
4, 119909, Note_on_c, 2, 55, 0
4, 119910, Note_on_c, 2, 53, 90
4, 119939, Note_on_c, 2, 53, 0
4, 119940, Note_on_c, 2, 52, 90
4, 119969, Note_on_c, 2, 52, 0
4, 119970, Note_on_c, 2, 50, 90
4, 119999, Note_on_c, 2, 50, 0
4, 120000, Note_on_c, 2, 49, 90
4, 120059, Note_on_c, 2, 49, 0
4, 120090, Note_on_c, 2, 49, 90
4, 120119, Note_on_c, 2, 49, 0
4, 120120, Note_on_c, 2, 50, 90
4, 120149, Note_on_c, 2, 50, 0
4, 120150, Note_on_c, 2, 52, 90
4, 120179, Note_on_c, 2, 52, 0
4, 120180, Note_on_c, 2, 53, 90
4, 120209, Note_on_c, 2, 53, 0
4, 120210, Note_on_c, 2, 52, 90
4, 120239, Note_on_c, 2, 52, 0
4, 120240, Note_on_c, 2, 53, 90
4, 120269, Note_on_c, 2, 53, 0
4, 120270, Note_on_c, 2, 57, 90
4, 120299, Note_on_c, 2, 57, 0
4, 120300, Note_on_c, 2, 55, 90
4, 120329, Note_on_c, 2, 55, 0
4, 120330, Note_on_c, 2, 59, 90
4, 120359, Note_on_c, 2, 59, 0
4, 120360, Note_on_c, 2, 57, 90
4, 120389, Note_on_c, 2, 57, 0
4, 120390, Note_on_c, 2, 55, 90
4, 120419, Note_on_c, 2, 55, 0
4, 120420, Note_on_c, 2, 57, 90
4, 120449, Note_on_c, 2, 57, 0
4, 120450, Note_on_c, 2, 59, 90
4, 120479, Note_on_c, 2, 59, 0
4, 120480, Note_on_c, 2, 57, 90
4, 120509, Note_on_c, 2, 57, 0
4, 120510, Note_on_c, 2, 59, 90
4, 120539, Note_on_c, 2, 59, 0
4, 120540, Note_on_c, 2, 60, 90
4, 120569, Note_on_c, 2, 60, 0
4, 120570, Note_on_c, 2, 59, 90
4, 120599, Note_on_c, 2, 59, 0
4, 120600, Note_on_c, 2, 60, 90
4, 120629, Note_on_c, 2, 60, 0
4, 120630, Note_on_c, 2, 63, 90
4, 120659, Note_on_c, 2, 63, 0
4, 120660, Note_on_c, 2, 62, 90
4, 120689, Note_on_c, 2, 62, 0
4, 120690, Note_on_c, 2, 55, 90
4, 120719, Note_on_c, 2, 55, 0
4, 120720, Note_on_c, 2, 63, 90
4, 120779, Note_on_c, 2, 63, 0
4, 120780, Note_on_c, 2, 62, 90
4, 120839, Note_on_c, 2, 62, 0
4, 120840, Note_on_c, 2, 61, 90
4, 120899, Note_on_c, 2, 61, 0
4, 120900, Note_on_c, 2, 62, 90
4, 120959, Note_on_c, 2, 62, 0
4, 120960, Note_on_c, 2, 60, 90
4, 120989, Note_on_c, 2, 60, 0
4, 120990, Note_on_c, 2, 57, 90
4, 121019, Note_on_c, 2, 57, 0
4, 121020, Note_on_c, 2, 58, 90
4, 121049, Note_on_c, 2, 58, 0
4, 121050, Note_on_c, 2, 57, 90
4, 121079, Note_on_c, 2, 57, 0
4, 121080, Note_on_c, 2, 58, 90
4, 121139, Note_on_c, 2, 58, 0
4, 121140, Note_on_c, 2, 57, 90
4, 121199, Note_on_c, 2, 57, 0
4, 121200, Note_on_c, 2, 55, 90
4, 121259, Note_on_c, 2, 55, 0
4, 121260, Note_on_c, 2, 54, 90
4, 121319, Note_on_c, 2, 54, 0
4, 121320, Note_on_c, 2, 57, 90
4, 121379, Note_on_c, 2, 57, 0
4, 121380, Note_on_c, 2, 45, 90
4, 121439, Note_on_c, 2, 45, 0
4, 121440, Note_on_c, 2, 50, 90
4, 121469, Note_on_c, 2, 50, 0
4, 121470, Note_on_c, 2, 52, 90
4, 121499, Note_on_c, 2, 52, 0
4, 121500, Note_on_c, 2, 53, 90
4, 121529, Note_on_c, 2, 53, 0
4, 121530, Note_on_c, 2, 55, 90
4, 121559, Note_on_c, 2, 55, 0
4, 121560, Note_on_c, 2, 57, 90
4, 121589, Note_on_c, 2, 57, 0
4, 121590, Note_on_c, 2, 53, 90
4, 121619, Note_on_c, 2, 53, 0
4, 121620, Note_on_c, 2, 50, 90
4, 121649, Note_on_c, 2, 50, 0
4, 121650, Note_on_c, 2, 53, 90
4, 121679, Note_on_c, 2, 53, 0
4, 121680, Note_on_c, 2, 57, 90
4, 121709, Note_on_c, 2, 57, 0
4, 121710, Note_on_c, 2, 53, 90
4, 121739, Note_on_c, 2, 53, 0
4, 121740, Note_on_c, 2, 50, 90
4, 121769, Note_on_c, 2, 50, 0
4, 121770, Note_on_c, 2, 53, 90
4, 121799, Note_on_c, 2, 53, 0
4, 121800, Note_on_c, 2, 50, 90
4, 121829, Note_on_c, 2, 50, 0
4, 121830, Note_on_c, 2, 55, 90
4, 121859, Note_on_c, 2, 55, 0
4, 121860, Note_on_c, 2, 58, 90
4, 121889, Note_on_c, 2, 58, 0
4, 121890, Note_on_c, 2, 55, 90
4, 121919, Note_on_c, 2, 55, 0
4, 121920, Note_on_c, 2, 50, 90
4, 121949, Note_on_c, 2, 50, 0
4, 121950, Note_on_c, 2, 55, 90
4, 121979, Note_on_c, 2, 55, 0
4, 121980, Note_on_c, 2, 50, 90
4, 122009, Note_on_c, 2, 50, 0
4, 122010, Note_on_c, 2, 55, 90
4, 122039, Note_on_c, 2, 55, 0
4, 122040, Note_on_c, 2, 58, 90
4, 122069, Note_on_c, 2, 58, 0
4, 122070, Note_on_c, 2, 55, 90
4, 122099, Note_on_c, 2, 55, 0
4, 122100, Note_on_c, 2, 50, 90
4, 122129, Note_on_c, 2, 50, 0
4, 122130, Note_on_c, 2, 55, 90
4, 122159, Note_on_c, 2, 55, 0
4, 122160, Note_on_c, 2, 50, 90
4, 122189, Note_on_c, 2, 50, 0
4, 122190, Note_on_c, 2, 55, 90
4, 122219, Note_on_c, 2, 55, 0
4, 122220, Note_on_c, 2, 57, 90
4, 122249, Note_on_c, 2, 57, 0
4, 122250, Note_on_c, 2, 55, 90
4, 122279, Note_on_c, 2, 55, 0
4, 122280, Note_on_c, 2, 50, 90
4, 122309, Note_on_c, 2, 50, 0
4, 122310, Note_on_c, 2, 55, 90
4, 122339, Note_on_c, 2, 55, 0
4, 122340, Note_on_c, 2, 50, 90
4, 122369, Note_on_c, 2, 50, 0
4, 122370, Note_on_c, 2, 53, 90
4, 122399, Note_on_c, 2, 53, 0
4, 122400, Note_on_c, 2, 57, 90
4, 122429, Note_on_c, 2, 57, 0
4, 122430, Note_on_c, 2, 53, 90
4, 122459, Note_on_c, 2, 53, 0
4, 122460, Note_on_c, 2, 50, 90
4, 122489, Note_on_c, 2, 50, 0
4, 122490, Note_on_c, 2, 53, 90
4, 122519, Note_on_c, 2, 53, 0
4, 122520, Note_on_c, 2, 50, 90
4, 122549, Note_on_c, 2, 50, 0
4, 122550, Note_on_c, 2, 52, 90
4, 122579, Note_on_c, 2, 52, 0
4, 122580, Note_on_c, 2, 55, 90
4, 122609, Note_on_c, 2, 55, 0
4, 122610, Note_on_c, 2, 52, 90
4, 122639, Note_on_c, 2, 52, 0
4, 122640, Note_on_c, 2, 50, 90
4, 122669, Note_on_c, 2, 50, 0
4, 122670, Note_on_c, 2, 52, 90
4, 122699, Note_on_c, 2, 52, 0
4, 122700, Note_on_c, 2, 49, 90
4, 122729, Note_on_c, 2, 49, 0
4, 122730, Note_on_c, 2, 52, 90
4, 122759, Note_on_c, 2, 52, 0
4, 122760, Note_on_c, 2, 57, 90
4, 122789, Note_on_c, 2, 57, 0
4, 122790, Note_on_c, 2, 52, 90
4, 122819, Note_on_c, 2, 52, 0
4, 122820, Note_on_c, 2, 49, 90
4, 122849, Note_on_c, 2, 49, 0
4, 122850, Note_on_c, 2, 52, 90
4, 122879, Note_on_c, 2, 52, 0
4, 122880, Note_on_c, 2, 48, 90
4, 122939, Note_on_c, 2, 48, 0
4, 122940, Note_on_c, 2, 46, 90
4, 122999, Note_on_c, 2, 46, 0
4, 123000, Note_on_c, 2, 51, 90
4, 123059, Note_on_c, 2, 51, 0
4, 123060, Note_on_c, 2, 45, 90
4, 123119, Note_on_c, 2, 45, 0
4, 123120, Note_on_c, 2, 50, 90
4, 123179, Note_on_c, 2, 50, 0
4, 123180, Note_on_c, 2, 38, 90
4, 123239, Note_on_c, 2, 38, 0
4, 123240, Note_on_c, 2, 43, 90
4, 123269, Note_on_c, 2, 43, 0
4, 123270, Note_on_c, 2, 45, 90
4, 123299, Note_on_c, 2, 45, 0
4, 123300, Note_on_c, 2, 46, 90
4, 123329, Note_on_c, 2, 46, 0
4, 123330, Note_on_c, 2, 48, 90
4, 123359, Note_on_c, 2, 48, 0
4, 123360, Note_on_c, 2, 50, 90
4, 123389, Note_on_c, 2, 50, 0
4, 123390, Note_on_c, 2, 46, 90
4, 123419, Note_on_c, 2, 46, 0
4, 123420, Note_on_c, 2, 43, 90
4, 123449, Note_on_c, 2, 43, 0
4, 123450, Note_on_c, 2, 46, 90
4, 123479, Note_on_c, 2, 46, 0
4, 123480, Note_on_c, 2, 50, 90
4, 123509, Note_on_c, 2, 50, 0
4, 123510, Note_on_c, 2, 46, 90
4, 123539, Note_on_c, 2, 46, 0
4, 123540, Note_on_c, 2, 43, 90
4, 123569, Note_on_c, 2, 43, 0
4, 123570, Note_on_c, 2, 46, 90
4, 123599, Note_on_c, 2, 46, 0
4, 123600, Note_on_c, 2, 43, 90
4, 123629, Note_on_c, 2, 43, 0
4, 123630, Note_on_c, 2, 48, 90
4, 123659, Note_on_c, 2, 48, 0
4, 123660, Note_on_c, 2, 51, 90
4, 123689, Note_on_c, 2, 51, 0
4, 123690, Note_on_c, 2, 48, 90
4, 123719, Note_on_c, 2, 48, 0
4, 123720, Note_on_c, 2, 43, 90
4, 123749, Note_on_c, 2, 43, 0
4, 123750, Note_on_c, 2, 48, 90
4, 123779, Note_on_c, 2, 48, 0
4, 123780, Note_on_c, 2, 43, 90
4, 123809, Note_on_c, 2, 43, 0
4, 123810, Note_on_c, 2, 48, 90
4, 123839, Note_on_c, 2, 48, 0
4, 123840, Note_on_c, 2, 51, 90
4, 123869, Note_on_c, 2, 51, 0
4, 123870, Note_on_c, 2, 48, 90
4, 123899, Note_on_c, 2, 48, 0
4, 123900, Note_on_c, 2, 43, 90
4, 123929, Note_on_c, 2, 43, 0
4, 123930, Note_on_c, 2, 48, 90
4, 123959, Note_on_c, 2, 48, 0
4, 123960, Note_on_c, 2, 43, 90
4, 123989, Note_on_c, 2, 43, 0
4, 123990, Note_on_c, 2, 48, 90
4, 124019, Note_on_c, 2, 48, 0
4, 124020, Note_on_c, 2, 50, 90
4, 124049, Note_on_c, 2, 50, 0
4, 124050, Note_on_c, 2, 48, 90
4, 124079, Note_on_c, 2, 48, 0
4, 124080, Note_on_c, 2, 43, 90
4, 124109, Note_on_c, 2, 43, 0
4, 124110, Note_on_c, 2, 48, 90
4, 124139, Note_on_c, 2, 48, 0
4, 124140, Note_on_c, 2, 43, 90
4, 124169, Note_on_c, 2, 43, 0
4, 124170, Note_on_c, 2, 46, 90
4, 124199, Note_on_c, 2, 46, 0
4, 124200, Note_on_c, 2, 50, 90
4, 124229, Note_on_c, 2, 50, 0
4, 124230, Note_on_c, 2, 46, 90
4, 124259, Note_on_c, 2, 46, 0
4, 124260, Note_on_c, 2, 43, 90
4, 124289, Note_on_c, 2, 43, 0
4, 124290, Note_on_c, 2, 46, 90
4, 124319, Note_on_c, 2, 46, 0
4, 124320, Note_on_c, 2, 43, 90
4, 124349, Note_on_c, 2, 43, 0
4, 124350, Note_on_c, 2, 45, 90
4, 124379, Note_on_c, 2, 45, 0
4, 124380, Note_on_c, 2, 48, 90
4, 124409, Note_on_c, 2, 48, 0
4, 124410, Note_on_c, 2, 45, 90
4, 124439, Note_on_c, 2, 45, 0
4, 124440, Note_on_c, 2, 43, 90
4, 124469, Note_on_c, 2, 43, 0
4, 124470, Note_on_c, 2, 45, 90
4, 124499, Note_on_c, 2, 45, 0
4, 124500, Note_on_c, 2, 42, 90
4, 124529, Note_on_c, 2, 42, 0
4, 124530, Note_on_c, 2, 45, 90
4, 124559, Note_on_c, 2, 45, 0
4, 124560, Note_on_c, 2, 50, 90
4, 124589, Note_on_c, 2, 50, 0
4, 124590, Note_on_c, 2, 45, 90
4, 124619, Note_on_c, 2, 45, 0
4, 124620, Note_on_c, 2, 42, 90
4, 124649, Note_on_c, 2, 42, 0
4, 124650, Note_on_c, 2, 45, 90
4, 124679, Note_on_c, 2, 45, 0
4, 124680, Note_on_c, 2, 41, 90
4, 124738, Note_on_c, 2, 41, 0
4, 124740, Note_on_c, 2, 39, 90
4, 124798, Note_on_c, 2, 39, 0
4, 124800, Note_on_c, 2, 44, 90
4, 124858, Note_on_c, 2, 44, 0
4, 124860, Note_on_c, 2, 38, 90
4, 124918, Note_on_c, 2, 38, 0
4, 124920, Note_on_c, 2, 43, 90
4, 124978, Note_on_c, 2, 43, 0
4, 124980, Note_on_c, 2, 31, 90
4, 125038, Note_on_c, 2, 31, 0
4, 125040, Note_on_c, 2, 36, 90
4, 125069, Note_on_c, 2, 36, 0
4, 125070, Note_on_c, 2, 43, 90
4, 125099, Note_on_c, 2, 43, 0
4, 125100, Note_on_c, 2, 48, 90
4, 125129, Note_on_c, 2, 48, 0
4, 125130, Note_on_c, 2, 51, 90
4, 125159, Note_on_c, 2, 51, 0
4, 125160, Note_on_c, 2, 50, 90
4, 125189, Note_on_c, 2, 50, 0
4, 125190, Note_on_c, 2, 53, 90
4, 125219, Note_on_c, 2, 53, 0
4, 125220, Note_on_c, 2, 51, 90
4, 125249, Note_on_c, 2, 51, 0
4, 125250, Note_on_c, 2, 55, 90
4, 125279, Note_on_c, 2, 55, 0
4, 125280, Note_on_c, 2, 53, 90
4, 125309, Note_on_c, 2, 53, 0
4, 125310, Note_on_c, 2, 51, 90
4, 125339, Note_on_c, 2, 51, 0
4, 125340, Note_on_c, 2, 50, 90
4, 125369, Note_on_c, 2, 50, 0
4, 125370, Note_on_c, 2, 48, 90
4, 125399, Note_on_c, 2, 48, 0
4, 125400, Note_on_c, 2, 56, 90
4, 125429, Note_on_c, 2, 56, 0
4, 125430, Note_on_c, 2, 58, 90
4, 125459, Note_on_c, 2, 58, 0
4, 125460, Note_on_c, 2, 56, 90
4, 125489, Note_on_c, 2, 56, 0
4, 125490, Note_on_c, 2, 55, 90
4, 125519, Note_on_c, 2, 55, 0
4, 125520, Note_on_c, 2, 53, 90
4, 125549, Note_on_c, 2, 53, 0
4, 125550, Note_on_c, 2, 51, 90
4, 125579, Note_on_c, 2, 51, 0
4, 125580, Note_on_c, 2, 53, 90
4, 125639, Note_on_c, 2, 53, 0
4, 125640, Note_on_c, 2, 50, 90
4, 125699, Note_on_c, 2, 50, 0
4, 125700, Note_on_c, 2, 55, 90
4, 125759, Note_on_c, 2, 55, 0
4, 125760, Note_on_c, 2, 48, 90
4, 125819, Note_on_c, 2, 48, 0
4, 125820, Note_on_c, 2, 51, 90
4, 125879, Note_on_c, 2, 51, 0
4, 125880, Note_on_c, 2, 55, 90
4, 125939, Note_on_c, 2, 55, 0
4, 125940, Note_on_c, 2, 60, 90
4, 125999, Note_on_c, 2, 60, 0
4, 126000, Note_on_c, 2, 48, 90
4, 126059, Note_on_c, 2, 48, 0
4, 126060, Note_on_c, 2, 50, 90
4, 126119, Note_on_c, 2, 50, 0
4, 126120, Note_on_c, 2, 51, 90
4, 126179, Note_on_c, 2, 51, 0
4, 126180, Note_on_c, 2, 63, 90
4, 126239, Note_on_c, 2, 63, 0
4, 126240, Note_on_c, 2, 62, 90
4, 126299, Note_on_c, 2, 62, 0
4, 126300, Note_on_c, 2, 60, 90
4, 126359, Note_on_c, 2, 60, 0
4, 126360, Note_on_c, 2, 62, 90
4, 126419, Note_on_c, 2, 62, 0
4, 126420, Note_on_c, 2, 50, 90
4, 126479, Note_on_c, 2, 50, 0
4, 126480, Note_on_c, 2, 55, 90
4, 126539, Note_on_c, 2, 55, 0
4, 126540, Note_on_c, 2, 43, 90
4, 126599, Note_on_c, 2, 43, 0
4, 126600, Note_on_c, 2, 43, 90
4, 126659, Note_on_c, 2, 43, 0
4, 126660, Note_on_c, 2, 43, 90
4, 126719, Note_on_c, 2, 43, 0
4, 126720, Note_on_c, 2, 43, 90
4, 126779, Note_on_c, 2, 43, 0
4, 126780, Note_on_c, 2, 43, 90
4, 126839, Note_on_c, 2, 43, 0
4, 126840, Note_on_c, 2, 38, 90
4, 126899, Note_on_c, 2, 38, 0
4, 126900, Note_on_c, 2, 50, 90
4, 126959, Note_on_c, 2, 50, 0
4, 126960, Note_on_c, 2, 50, 90
4, 127019, Note_on_c, 2, 50, 0
4, 127020, Note_on_c, 2, 52, 90
4, 127079, Note_on_c, 2, 52, 0
4, 127080, Note_on_c, 2, 52, 90
4, 127109, Note_on_c, 2, 52, 0
4, 127110, Note_on_c, 2, 54, 90
4, 127139, Note_on_c, 2, 54, 0
4, 127140, Note_on_c, 2, 55, 90
4, 127169, Note_on_c, 2, 55, 0
4, 127170, Note_on_c, 2, 52, 90
4, 127199, Note_on_c, 2, 52, 0
4, 127200, Note_on_c, 2, 54, 90
4, 127229, Note_on_c, 2, 54, 0
4, 127230, Note_on_c, 2, 50, 90
4, 127259, Note_on_c, 2, 50, 0
4, 127260, Note_on_c, 2, 55, 90
4, 127289, Note_on_c, 2, 55, 0
4, 127290, Note_on_c, 2, 58, 90
4, 127319, Note_on_c, 2, 58, 0
4, 127320, Note_on_c, 2, 57, 90
4, 127349, Note_on_c, 2, 57, 0
4, 127350, Note_on_c, 2, 60, 90
4, 127379, Note_on_c, 2, 60, 0
4, 127380, Note_on_c, 2, 58, 90
4, 127409, Note_on_c, 2, 58, 0
4, 127410, Note_on_c, 2, 57, 90
4, 127439, Note_on_c, 2, 57, 0
4, 127440, Note_on_c, 2, 55, 90
4, 127469, Note_on_c, 2, 55, 0
4, 127470, Note_on_c, 2, 57, 90
4, 127499, Note_on_c, 2, 57, 0
4, 127500, Note_on_c, 2, 53, 90
4, 127529, Note_on_c, 2, 53, 0
4, 127530, Note_on_c, 2, 55, 90
4, 127559, Note_on_c, 2, 55, 0
4, 127560, Note_on_c, 2, 52, 90
4, 127589, Note_on_c, 2, 52, 0
4, 127590, Note_on_c, 2, 55, 90
4, 127619, Note_on_c, 2, 55, 0
4, 127620, Note_on_c, 2, 53, 90
4, 127649, Note_on_c, 2, 53, 0
4, 127650, Note_on_c, 2, 56, 90
4, 127679, Note_on_c, 2, 56, 0
4, 127680, Note_on_c, 2, 55, 90
4, 127709, Note_on_c, 2, 55, 0
4, 127710, Note_on_c, 2, 58, 90
4, 127739, Note_on_c, 2, 58, 0
4, 127740, Note_on_c, 2, 56, 90
4, 127769, Note_on_c, 2, 56, 0
4, 127770, Note_on_c, 2, 55, 90
4, 127799, Note_on_c, 2, 55, 0
4, 127800, Note_on_c, 2, 53, 90
4, 127829, Note_on_c, 2, 53, 0
4, 127830, Note_on_c, 2, 55, 90
4, 127859, Note_on_c, 2, 55, 0
4, 127860, Note_on_c, 2, 51, 90
4, 127889, Note_on_c, 2, 51, 0
4, 127890, Note_on_c, 2, 53, 90
4, 127919, Note_on_c, 2, 53, 0
4, 127920, Note_on_c, 2, 50, 90
4, 127949, Note_on_c, 2, 50, 0
4, 127950, Note_on_c, 2, 53, 90
4, 127979, Note_on_c, 2, 53, 0
4, 127980, Note_on_c, 2, 51, 90
4, 128009, Note_on_c, 2, 51, 0
4, 128010, Note_on_c, 2, 55, 90
4, 128039, Note_on_c, 2, 55, 0
4, 128040, Note_on_c, 2, 53, 90
4, 128069, Note_on_c, 2, 53, 0
4, 128070, Note_on_c, 2, 56, 90
4, 128099, Note_on_c, 2, 56, 0
4, 128100, Note_on_c, 2, 55, 90
4, 128129, Note_on_c, 2, 55, 0
4, 128130, Note_on_c, 2, 56, 90
4, 128159, Note_on_c, 2, 56, 0
4, 128160, Note_on_c, 2, 55, 90
4, 128189, Note_on_c, 2, 55, 0
4, 128190, Note_on_c, 2, 53, 90
4, 128219, Note_on_c, 2, 53, 0
4, 128220, Note_on_c, 2, 51, 90
4, 128249, Note_on_c, 2, 51, 0
4, 128250, Note_on_c, 2, 50, 90
4, 128279, Note_on_c, 2, 50, 0
4, 128280, Note_on_c, 2, 48, 90
4, 128309, Note_on_c, 2, 48, 0
4, 128310, Note_on_c, 2, 53, 90
4, 128339, Note_on_c, 2, 53, 0
4, 128340, Note_on_c, 2, 51, 90
4, 128369, Note_on_c, 2, 51, 0
4, 128370, Note_on_c, 2, 50, 90
4, 128399, Note_on_c, 2, 50, 0
4, 128400, Note_on_c, 2, 48, 90
4, 128429, Note_on_c, 2, 48, 0
4, 128430, Note_on_c, 2, 46, 90
4, 128459, Note_on_c, 2, 46, 0
4, 128460, Note_on_c, 2, 44, 90
4, 128519, Note_on_c, 2, 44, 0
4, 128520, Note_on_c, 2, 60, 90
4, 128549, Note_on_c, 2, 60, 0
4, 128550, Note_on_c, 2, 58, 90
4, 128579, Note_on_c, 2, 58, 0
4, 128580, Note_on_c, 2, 56, 90
4, 128609, Note_on_c, 2, 56, 0
4, 128610, Note_on_c, 2, 55, 90
4, 128639, Note_on_c, 2, 55, 0
4, 128640, Note_on_c, 2, 54, 90
4, 128669, Note_on_c, 2, 54, 0
4, 128670, Note_on_c, 2, 58, 90
4, 128699, Note_on_c, 2, 58, 0
4, 128700, Note_on_c, 2, 57, 90
4, 128729, Note_on_c, 2, 57, 0
4, 128730, Note_on_c, 2, 55, 90
4, 128759, Note_on_c, 2, 55, 0
4, 128760, Note_on_c, 2, 54, 90
4, 128789, Note_on_c, 2, 54, 0
4, 128790, Note_on_c, 2, 52, 90
4, 128819, Note_on_c, 2, 52, 0
4, 128820, Note_on_c, 2, 50, 90
4, 128849, Note_on_c, 2, 50, 0
4, 128850, Note_on_c, 2, 55, 90
4, 128879, Note_on_c, 2, 55, 0
4, 128880, Note_on_c, 2, 54, 90
4, 128909, Note_on_c, 2, 54, 0
4, 128910, Note_on_c, 2, 52, 90
4, 128939, Note_on_c, 2, 52, 0
4, 128940, Note_on_c, 2, 50, 90
4, 128969, Note_on_c, 2, 50, 0
4, 128970, Note_on_c, 2, 48, 90
4, 128999, Note_on_c, 2, 48, 0
4, 129000, Note_on_c, 2, 46, 90
4, 129059, Note_on_c, 2, 46, 0
4, 129060, Note_on_c, 2, 46, 90
4, 129119, Note_on_c, 2, 46, 0
4, 129120, Note_on_c, 2, 46, 90
4, 129179, Note_on_c, 2, 46, 0
4, 129180, Note_on_c, 2, 48, 90
4, 129239, Note_on_c, 2, 48, 0
4, 129240, Note_on_c, 2, 48, 90
4, 129299, Note_on_c, 2, 48, 0
4, 129300, Note_on_c, 2, 48, 90
4, 129359, Note_on_c, 2, 48, 0
4, 129360, Note_on_c, 2, 50, 90
4, 129419, Note_on_c, 2, 50, 0
4, 129420, Note_on_c, 2, 50, 90
4, 129479, Note_on_c, 2, 50, 0
4, 129480, Note_on_c, 2, 50, 90
4, 129539, Note_on_c, 2, 50, 0
4, 129540, Note_on_c, 2, 51, 90
4, 129599, Note_on_c, 2, 51, 0
4, 129600, Note_on_c, 2, 51, 90
4, 129659, Note_on_c, 2, 51, 0
4, 129660, Note_on_c, 2, 51, 90
4, 129719, Note_on_c, 2, 51, 0
4, 129720, Note_on_c, 2, 46, 90
4, 129779, Note_on_c, 2, 46, 0
4, 129780, Note_on_c, 2, 46, 90
4, 129839, Note_on_c, 2, 46, 0
4, 129840, Note_on_c, 2, 46, 90
4, 129899, Note_on_c, 2, 46, 0
4, 129900, Note_on_c, 2, 48, 90
4, 129959, Note_on_c, 2, 48, 0
4, 129960, Note_on_c, 2, 48, 90
4, 130019, Note_on_c, 2, 48, 0
4, 130020, Note_on_c, 2, 48, 90
4, 130079, Note_on_c, 2, 48, 0
4, 130080, Note_on_c, 2, 50, 90
4, 130139, Note_on_c, 2, 50, 0
4, 130140, Note_on_c, 2, 50, 90
4, 130199, Note_on_c, 2, 50, 0
4, 130200, Note_on_c, 2, 50, 90
4, 130259, Note_on_c, 2, 50, 0
4, 130260, Note_on_c, 2, 43, 90
4, 130319, Note_on_c, 2, 43, 0
4, 130320, Note_on_c, 2, 55, 90
4, 130379, Note_on_c, 2, 55, 0
4, 130380, Note_on_c, 2, 54, 90
4, 130439, Note_on_c, 2, 54, 0
4, 130440, Note_on_c, 2, 55, 90
4, 130499, Note_on_c, 2, 55, 0
4, 130500, Note_on_c, 2, 63, 90
4, 130559, Note_on_c, 2, 63, 0
4, 130560, Note_on_c, 2, 62, 90
4, 130619, Note_on_c, 2, 62, 0
4, 130620, Note_on_c, 2, 60, 90
4, 130679, Note_on_c, 2, 60, 0
4, 130680, Note_on_c, 2, 57, 90
4, 130739, Note_on_c, 2, 57, 0
4, 130740, Note_on_c, 2, 62, 90
4, 130799, Note_on_c, 2, 62, 0
4, 130800, Note_on_c, 2, 55, 90
4, 130829, Note_on_c, 2, 55, 0
4, 130830, Note_on_c, 2, 50, 90
4, 130859, Note_on_c, 2, 50, 0
4, 130860, Note_on_c, 2, 55, 90
4, 130889, Note_on_c, 2, 55, 0
4, 130890, Note_on_c, 2, 58, 90
4, 130919, Note_on_c, 2, 58, 0
4, 130920, Note_on_c, 2, 57, 90
4, 130949, Note_on_c, 2, 57, 0
4, 130950, Note_on_c, 2, 60, 90
4, 130979, Note_on_c, 2, 60, 0
4, 130980, Note_on_c, 2, 58, 90
4, 131009, Note_on_c, 2, 58, 0
4, 131010, Note_on_c, 2, 57, 90
4, 131039, Note_on_c, 2, 57, 0
4, 131040, Note_on_c, 2, 55, 90
4, 131069, Note_on_c, 2, 55, 0
4, 131070, Note_on_c, 2, 57, 90
4, 131099, Note_on_c, 2, 57, 0
4, 131100, Note_on_c, 2, 53, 90
4, 131129, Note_on_c, 2, 53, 0
4, 131130, Note_on_c, 2, 55, 90
4, 131159, Note_on_c, 2, 55, 0
4, 131160, Note_on_c, 2, 52, 90
4, 131189, Note_on_c, 2, 52, 0
4, 131190, Note_on_c, 2, 48, 90
4, 131219, Note_on_c, 2, 48, 0
4, 131220, Note_on_c, 2, 53, 90
4, 131249, Note_on_c, 2, 53, 0
4, 131250, Note_on_c, 2, 57, 90
4, 131279, Note_on_c, 2, 57, 0
4, 131280, Note_on_c, 2, 55, 90
4, 131309, Note_on_c, 2, 55, 0
4, 131310, Note_on_c, 2, 58, 90
4, 131339, Note_on_c, 2, 58, 0
4, 131340, Note_on_c, 2, 57, 90
4, 131369, Note_on_c, 2, 57, 0
4, 131370, Note_on_c, 2, 55, 90
4, 131399, Note_on_c, 2, 55, 0
4, 131400, Note_on_c, 2, 53, 90
4, 131429, Note_on_c, 2, 53, 0
4, 131430, Note_on_c, 2, 55, 90
4, 131459, Note_on_c, 2, 55, 0
4, 131460, Note_on_c, 2, 51, 90
4, 131489, Note_on_c, 2, 51, 0
4, 131490, Note_on_c, 2, 53, 90
4, 131519, Note_on_c, 2, 53, 0
4, 131520, Note_on_c, 2, 50, 90
4, 131549, Note_on_c, 2, 50, 0
4, 131550, Note_on_c, 2, 46, 90
4, 131579, Note_on_c, 2, 46, 0
4, 131580, Note_on_c, 2, 51, 90
4, 131609, Note_on_c, 2, 51, 0
4, 131610, Note_on_c, 2, 55, 90
4, 131639, Note_on_c, 2, 55, 0
4, 131640, Note_on_c, 2, 53, 90
4, 131669, Note_on_c, 2, 53, 0
4, 131670, Note_on_c, 2, 56, 90
4, 131699, Note_on_c, 2, 56, 0
4, 131700, Note_on_c, 2, 55, 90
4, 131729, Note_on_c, 2, 55, 0
4, 131730, Note_on_c, 2, 53, 90
4, 131759, Note_on_c, 2, 53, 0
4, 131760, Note_on_c, 2, 51, 90
4, 131789, Note_on_c, 2, 51, 0
4, 131790, Note_on_c, 2, 53, 90
4, 131819, Note_on_c, 2, 53, 0
4, 131820, Note_on_c, 2, 50, 90
4, 131849, Note_on_c, 2, 50, 0
4, 131850, Note_on_c, 2, 51, 90
4, 131879, Note_on_c, 2, 51, 0
4, 131880, Note_on_c, 2, 48, 90
4, 131909, Note_on_c, 2, 48, 0
4, 131910, Note_on_c, 2, 50, 90
4, 131939, Note_on_c, 2, 50, 0
4, 131940, Note_on_c, 2, 51, 90
4, 131969, Note_on_c, 2, 51, 0
4, 131970, Note_on_c, 2, 50, 90
4, 131999, Note_on_c, 2, 50, 0
4, 132000, Note_on_c, 2, 48, 90
4, 132029, Note_on_c, 2, 48, 0
4, 132030, Note_on_c, 2, 46, 90
4, 132059, Note_on_c, 2, 46, 0
4, 132060, Note_on_c, 2, 45, 90
4, 132089, Note_on_c, 2, 45, 0
4, 132090, Note_on_c, 2, 46, 90
4, 132119, Note_on_c, 2, 46, 0
4, 132120, Note_on_c, 2, 48, 90
4, 132149, Note_on_c, 2, 48, 0
4, 132150, Note_on_c, 2, 46, 90
4, 132179, Note_on_c, 2, 46, 0
4, 132180, Note_on_c, 2, 45, 90
4, 132209, Note_on_c, 2, 45, 0
4, 132210, Note_on_c, 2, 43, 90
4, 132239, Note_on_c, 2, 43, 0
4, 132240, Note_on_c, 2, 42, 90
4, 132299, Note_on_c, 2, 42, 0
4, 132330, Note_on_c, 2, 42, 90
4, 132359, Note_on_c, 2, 42, 0
4, 132360, Note_on_c, 2, 43, 90
4, 132389, Note_on_c, 2, 43, 0
4, 132390, Note_on_c, 2, 45, 90
4, 132419, Note_on_c, 2, 45, 0
4, 132420, Note_on_c, 2, 46, 90
4, 132449, Note_on_c, 2, 46, 0
4, 132450, Note_on_c, 2, 45, 90
4, 132479, Note_on_c, 2, 45, 0
4, 132480, Note_on_c, 2, 46, 90
4, 132509, Note_on_c, 2, 46, 0
4, 132510, Note_on_c, 2, 50, 90
4, 132539, Note_on_c, 2, 50, 0
4, 132540, Note_on_c, 2, 48, 90
4, 132569, Note_on_c, 2, 48, 0
4, 132570, Note_on_c, 2, 52, 90
4, 132599, Note_on_c, 2, 52, 0
4, 132600, Note_on_c, 2, 50, 90
4, 132629, Note_on_c, 2, 50, 0
4, 132630, Note_on_c, 2, 49, 90
4, 132659, Note_on_c, 2, 49, 0
4, 132660, Note_on_c, 2, 50, 90
4, 132689, Note_on_c, 2, 50, 0
4, 132690, Note_on_c, 2, 52, 90
4, 132719, Note_on_c, 2, 52, 0
4, 132720, Note_on_c, 2, 50, 90
4, 132749, Note_on_c, 2, 50, 0
4, 132750, Note_on_c, 2, 52, 90
4, 132779, Note_on_c, 2, 52, 0
4, 132780, Note_on_c, 2, 53, 90
4, 132809, Note_on_c, 2, 53, 0
4, 132810, Note_on_c, 2, 52, 90
4, 132839, Note_on_c, 2, 52, 0
4, 132840, Note_on_c, 2, 53, 90
4, 132869, Note_on_c, 2, 53, 0
4, 132870, Note_on_c, 2, 56, 90
4, 132899, Note_on_c, 2, 56, 0
4, 132900, Note_on_c, 2, 55, 90
4, 132929, Note_on_c, 2, 55, 0
4, 132930, Note_on_c, 2, 48, 90
4, 132959, Note_on_c, 2, 48, 0
4, 132960, Note_on_c, 2, 56, 90
4, 133019, Note_on_c, 2, 56, 0
4, 133020, Note_on_c, 2, 55, 90
4, 133079, Note_on_c, 2, 55, 0
4, 133080, Note_on_c, 2, 54, 90
4, 133139, Note_on_c, 2, 54, 0
4, 133140, Note_on_c, 2, 55, 90
4, 133199, Note_on_c, 2, 55, 0
4, 133200, Note_on_c, 2, 53, 90
4, 133229, Note_on_c, 2, 53, 0
4, 133230, Note_on_c, 2, 50, 90
4, 133259, Note_on_c, 2, 50, 0
4, 133260, Note_on_c, 2, 51, 90
4, 133289, Note_on_c, 2, 51, 0
4, 133290, Note_on_c, 2, 50, 90
4, 133319, Note_on_c, 2, 50, 0
4, 133320, Note_on_c, 2, 51, 90
4, 133379, Note_on_c, 2, 51, 0
4, 133380, Note_on_c, 2, 50, 90
4, 133439, Note_on_c, 2, 50, 0
4, 133440, Note_on_c, 2, 49, 90
4, 133499, Note_on_c, 2, 49, 0
4, 133500, Note_on_c, 2, 50, 90
4, 133559, Note_on_c, 2, 50, 0
4, 133560, Note_on_c, 2, 48, 90
4, 133589, Note_on_c, 2, 48, 0
4, 133590, Note_on_c, 2, 45, 90
4, 133619, Note_on_c, 2, 45, 0
4, 133620, Note_on_c, 2, 46, 90
4, 133649, Note_on_c, 2, 46, 0
4, 133650, Note_on_c, 2, 45, 90
4, 133679, Note_on_c, 2, 45, 0
4, 133680, Note_on_c, 2, 46, 90
4, 133739, Note_on_c, 2, 46, 0
4, 133740, Note_on_c, 2, 51, 90
4, 133799, Note_on_c, 2, 51, 0
4, 133800, Note_on_c, 2, 39, 90
4, 133859, Note_on_c, 2, 39, 0
4, 133860, Note_on_c, 2, 38, 90
4, 133919, Note_on_c, 2, 38, 0
4, 133920, Note_on_c, 2, 50, 90
4, 133979, Note_on_c, 2, 50, 0
4, 133980, Note_on_c, 2, 48, 90
4, 134039, Note_on_c, 2, 48, 0
4, 134040, Note_on_c, 2, 46, 90
4, 134099, Note_on_c, 2, 46, 0
4, 134100, Note_on_c, 2, 46, 90
4, 134159, Note_on_c, 2, 46, 0
4, 134160, Note_on_c, 2, 46, 90
4, 134219, Note_on_c, 2, 46, 0
4, 134220, Note_on_c, 2, 48, 90
4, 134279, Note_on_c, 2, 48, 0
4, 134280, Note_on_c, 2, 48, 90
4, 134339, Note_on_c, 2, 48, 0
4, 134340, Note_on_c, 2, 48, 90
4, 134399, Note_on_c, 2, 48, 0
4, 134400, Note_on_c, 2, 50, 90
4, 134459, Note_on_c, 2, 50, 0
4, 134460, Note_on_c, 2, 50, 90
4, 134519, Note_on_c, 2, 50, 0
4, 134520, Note_on_c, 2, 50, 90
4, 134579, Note_on_c, 2, 50, 0
4, 134580, Note_on_c, 2, 51, 90
4, 134639, Note_on_c, 2, 51, 0
4, 134640, Note_on_c, 2, 51, 90
4, 134699, Note_on_c, 2, 51, 0
4, 134700, Note_on_c, 2, 51, 90
4, 134759, Note_on_c, 2, 51, 0
4, 134760, Note_on_c, 2, 46, 90
4, 134819, Note_on_c, 2, 46, 0
4, 134820, Note_on_c, 2, 46, 90
4, 134879, Note_on_c, 2, 46, 0
4, 134880, Note_on_c, 2, 46, 90
4, 134939, Note_on_c, 2, 46, 0
4, 134940, Note_on_c, 2, 48, 90
4, 134999, Note_on_c, 2, 48, 0
4, 135000, Note_on_c, 2, 48, 90
4, 135059, Note_on_c, 2, 48, 0
4, 135060, Note_on_c, 2, 48, 90
4, 135119, Note_on_c, 2, 48, 0
4, 135120, Note_on_c, 2, 50, 90
4, 135179, Note_on_c, 2, 50, 0
4, 135180, Note_on_c, 2, 48, 90
4, 135239, Note_on_c, 2, 48, 0
4, 135240, Note_on_c, 2, 50, 90
4, 135299, Note_on_c, 2, 50, 0
4, 135300, Note_on_c, 2, 39, 90
4, 135419, Note_on_c, 2, 39, 0
4, 135480, Note_on_c, 2, 40, 90
4, 135599, Note_on_c, 2, 40, 0
4, 135660, Note_on_c, 2, 42, 90
4, 135719, Note_on_c, 2, 42, 0
4, 135720, Note_on_c, 2, 54, 90
4, 135779, Note_on_c, 2, 54, 0
4, 135780, Note_on_c, 2, 50, 90
4, 135839, Note_on_c, 2, 50, 0
4, 135840, Note_on_c, 2, 55, 90
4, 135899, Note_on_c, 2, 55, 0
4, 135900, Note_on_c, 2, 48, 90
4, 135959, Note_on_c, 2, 48, 0
4, 135960, Note_on_c, 2, 50, 90
4, 136019, Note_on_c, 2, 50, 0
4, 136020, Note_on_c, 2, 43, 90
4, 136079, Note_on_c, 2, 43, 0
4, 136080, Note_on_c, 2, 46, 90
4, 136139, Note_on_c, 2, 46, 0
4, 136140, Note_on_c, 2, 50, 90
4, 136199, Note_on_c, 2, 50, 0
4, 136200, Note_on_c, 2, 55, 90
4, 136259, Note_on_c, 2, 55, 0
4, 136260, Note_on_c, 2, 50, 90
4, 136319, Note_on_c, 2, 50, 0
4, 136320, Note_on_c, 2, 46, 90
4, 136379, Note_on_c, 2, 46, 0
4, 136380, Note_on_c, 2, 43, 90
4, 136409, Note_on_c, 2, 43, 0
4, 136410, Note_on_c, 2, 46, 90
4, 136439, Note_on_c, 2, 46, 0
4, 136440, Note_on_c, 2, 50, 90
4, 136469, Note_on_c, 2, 50, 0
4, 136470, Note_on_c, 2, 46, 90
4, 136499, Note_on_c, 2, 46, 0
4, 136500, Note_on_c, 2, 43, 90
4, 136529, Note_on_c, 2, 43, 0
4, 136530, Note_on_c, 2, 46, 90
4, 136559, Note_on_c, 2, 46, 0
4, 136560, Note_on_c, 2, 38, 90
4, 136589, Note_on_c, 2, 38, 0
4, 136590, Note_on_c, 2, 43, 90
4, 136619, Note_on_c, 2, 43, 0
4, 136620, Note_on_c, 2, 46, 90
4, 136649, Note_on_c, 2, 46, 0
4, 136650, Note_on_c, 2, 43, 90
4, 136679, Note_on_c, 2, 43, 0
4, 136680, Note_on_c, 2, 38, 90
4, 136709, Note_on_c, 2, 38, 0
4, 136710, Note_on_c, 2, 34, 90
4, 136739, Note_on_c, 2, 34, 0
4, 136740, Note_on_c, 2, 43, 90
4, 136740, Note_on_c, 2, 31, 90
4, 136920, Note_on_c, 2, 31, 0
4, 136920, Note_on_c, 2, 43, 0
4, 136920, End_track
5, 0, Start_track
5, 0, MIDI_port, 0
5, 0, Title_t, "J.S.BACH"
5, 0, End_track
6, 0, Start_track
6, 0, MIDI_port, 0
6, 0, Title_t, "BWV 1029"
6, 0, End_track
7, 0, Start_track
7, 0, MIDI_port, 0
7, 0, Title_t, "SONATA FOR VIOLA DA GAMBA"
7, 0, End_track
8, 0, Start_track
8, 0, MIDI_port, 0
8, 0, Title_t, "AND HARPSICHORD"
8, 0, End_track
9, 0, Start_track
9, 0, MIDI_port, 0
9, 0, Title_t, "N3 IN G MINOR"
9, 0, End_track
10, 0, Start_track
10, 0, MIDI_port, 0
10, 0, Title_t, "SECUENCED BY"
10, 0, End_track
11, 0, Start_track
11, 0, MIDI_port, 0
11, 0, Title_t, "MARCELO COPIA M"
11, 0, End_track
12, 0, Start_track
12, 0, MIDI_port, 0
12, 0, Title_t, "mcopia@entelchile.net"
12, 0, End_track
0, 0, End_of_file
