0, 0, Header, 1, 17, 480
1, 0, Start_track
1, 0, Title_t, "untitled"
1, 0, Copyright_t, "Copyright © 1996 by David J. Grossman"
1, 0, Text_t, "David J. Grossman"
1, 0, Text_t, "soggetto with its retrograde\012"
1, 0, Text_t, "inverted soggetto with its retrograde\012"
1, 0, Text_t, "soggetto with its inversion\012"
1, 0, Text_t, "inverted soggetto with its inversion\012"
1, 0, Text_t, "Canon Duplex a 4\012"
1, 0, Text_t, "Canon simplex uber besagtes Fundament a 3\012"
1, 0, Text_t, "Idem a 3\012"
1, 0, Text_t, "Canon simplex a 3 il soggetto in Alto\012"
1, 0, Text_t, "Canon in unisono post semifusam a 3\012"
1, 0, Text_t, "Alio modo per syncopationes et per ligaturas a 2\012"
1, 0, Text_t, "Canon duplex ubers Fundament a 5\012"
1, 0, Text_t, "Canon duplex uber Fundamental - Noten a 5\012"
1, 0, Text_t, "Triplex Canon ( aka BWV 1076 )\012"
1, 0, Text_t, "Canon a 4 per Augmentationem et Diminutionem\012"
1, 0, SMPTE_offset, 96, 0, 3, 0, 0
1, 0, Time_signature, 2, 2, 24, 8
1, 0, Key_signature, 1, "major"
1, 0, Tempo, 600000
1, 0, Marker_t, "1"
1, 8640, Marker_t, "2"
1, 17280, Marker_t, "3"
1, 29760, Marker_t, "4"
1, 40320, Marker_t, "5"
1, 52800, Marker_t, "6"
1, 65280, Marker_t, "7"
1, 77760, Marker_t, "8"
1, 90240, Marker_t, "9"
1, 102720, Marker_t, "10"
1, 115200, Marker_t, "11"
1, 127680, Time_signature, 4, 2, 24, 8
1, 127680, Marker_t, "12"
1, 148800, Marker_t, "13"
1, 162240, Marker_t, "14"
1, 162240, End_track
2, 0, Start_track
2, 0, MIDI_port, 0
2, 0, Title_t, "Harpsichord"
2, 0, Program_c, 0, 6
2, 0, Control_c, 0, 7, 100
2, 0, Control_c, 0, 10, 79
2, 42480, Note_on_c, 0, 74, 100
2, 42600, Note_on_c, 0, 74, 0
2, 42600, Note_on_c, 0, 76, 100
2, 42720, Note_on_c, 0, 76, 0
2, 42720, Note_on_c, 0, 74, 100
2, 42840, Note_on_c, 0, 74, 0
2, 42840, Note_on_c, 0, 72, 100
2, 42960, Note_on_c, 0, 72, 0
2, 42960, Note_on_c, 0, 71, 100
2, 43080, Note_on_c, 0, 71, 0
2, 43080, Note_on_c, 0, 69, 100
2, 43200, Note_on_c, 0, 69, 0
2, 43200, Note_on_c, 0, 67, 100
2, 43320, Note_on_c, 0, 67, 0
2, 43320, Note_on_c, 0, 72, 100
2, 43440, Note_on_c, 0, 72, 0
2, 43440, Note_on_c, 0, 76, 100
2, 43560, Note_on_c, 0, 76, 0
2, 43560, Note_on_c, 0, 79, 100
2, 43680, Note_on_c, 0, 79, 0
2, 43680, Note_on_c, 0, 78, 100
2, 43800, Note_on_c, 0, 78, 0
2, 43800, Note_on_c, 0, 76, 100
2, 43920, Note_on_c, 0, 76, 0
2, 43920, Note_on_c, 0, 74, 100
2, 44040, Note_on_c, 0, 74, 0
2, 44040, Note_on_c, 0, 72, 100
2, 44160, Note_on_c, 0, 72, 0
2, 44160, Note_on_c, 0, 71, 100
2, 44400, Note_on_c, 0, 71, 0
2, 44400, Note_on_c, 0, 76, 100
2, 44640, Note_on_c, 0, 76, 0
2, 44640, Note_on_c, 0, 74, 100
2, 45240, Note_on_c, 0, 74, 0
2, 45240, Note_on_c, 0, 72, 100
2, 45300, Note_on_c, 0, 72, 0
2, 45300, Note_on_c, 0, 71, 100
2, 45360, Note_on_c, 0, 71, 0
2, 45360, Note_on_c, 0, 69, 100
2, 45480, Note_on_c, 0, 69, 0
2, 45480, Note_on_c, 0, 71, 100
2, 45600, Note_on_c, 0, 71, 0
2, 45600, Note_on_c, 0, 72, 100
2, 45720, Note_on_c, 0, 72, 0
2, 45720, Note_on_c, 0, 74, 100
2, 45840, Note_on_c, 0, 74, 0
2, 45840, Note_on_c, 0, 71, 100
2, 45960, Note_on_c, 0, 71, 0
2, 45960, Note_on_c, 0, 72, 100
2, 46080, Note_on_c, 0, 72, 0
2, 46080, Note_on_c, 0, 74, 100
2, 46200, Note_on_c, 0, 74, 0
2, 46200, Note_on_c, 0, 72, 100
2, 46320, Note_on_c, 0, 72, 0
2, 46320, Note_on_c, 0, 74, 100
2, 46440, Note_on_c, 0, 74, 0
2, 46440, Note_on_c, 0, 76, 100
2, 46560, Note_on_c, 0, 76, 0
2, 46560, Note_on_c, 0, 74, 100
2, 46680, Note_on_c, 0, 74, 0
2, 46680, Note_on_c, 0, 72, 100
2, 46800, Note_on_c, 0, 72, 0
2, 46800, Note_on_c, 0, 71, 100
2, 46920, Note_on_c, 0, 71, 0
2, 46920, Note_on_c, 0, 69, 100
2, 47040, Note_on_c, 0, 69, 0
2, 47040, Note_on_c, 0, 67, 100
2, 47160, Note_on_c, 0, 67, 0
2, 47160, Note_on_c, 0, 72, 100
2, 47280, Note_on_c, 0, 72, 0
2, 47280, Note_on_c, 0, 76, 100
2, 47400, Note_on_c, 0, 76, 0
2, 47400, Note_on_c, 0, 79, 100
2, 47520, Note_on_c, 0, 79, 0
2, 47520, Note_on_c, 0, 78, 100
2, 47640, Note_on_c, 0, 78, 0
2, 47640, Note_on_c, 0, 76, 100
2, 47760, Note_on_c, 0, 76, 0
2, 47760, Note_on_c, 0, 74, 100
2, 47880, Note_on_c, 0, 74, 0
2, 47880, Note_on_c, 0, 72, 100
2, 48000, Note_on_c, 0, 72, 0
2, 48000, Note_on_c, 0, 71, 100
2, 48240, Note_on_c, 0, 71, 0
2, 48240, Note_on_c, 0, 76, 100
2, 48480, Note_on_c, 0, 76, 0
2, 48480, Note_on_c, 0, 74, 100
2, 49080, Note_on_c, 0, 74, 0
2, 49080, Note_on_c, 0, 72, 100
2, 49140, Note_on_c, 0, 72, 0
2, 49140, Note_on_c, 0, 71, 100
2, 49200, Note_on_c, 0, 71, 0
2, 49200, Note_on_c, 0, 69, 100
2, 49320, Note_on_c, 0, 69, 0
2, 49320, Note_on_c, 0, 71, 100
2, 49440, Note_on_c, 0, 71, 0
2, 49440, Note_on_c, 0, 72, 100
2, 49560, Note_on_c, 0, 72, 0
2, 49560, Note_on_c, 0, 74, 100
2, 49680, Note_on_c, 0, 74, 0
2, 49680, Note_on_c, 0, 71, 100
2, 49800, Note_on_c, 0, 71, 0
2, 49800, Note_on_c, 0, 72, 100
2, 49920, Note_on_c, 0, 72, 0
2, 49920, Note_on_c, 0, 74, 100
2, 50040, Note_on_c, 0, 74, 0
2, 50040, Note_on_c, 0, 72, 100
2, 50160, Note_on_c, 0, 72, 0
2, 50160, Note_on_c, 0, 74, 100
2, 50280, Note_on_c, 0, 74, 0
2, 50280, Note_on_c, 0, 76, 100
2, 50400, Note_on_c, 0, 76, 0
2, 50400, Note_on_c, 0, 74, 100
2, 50520, Note_on_c, 0, 74, 0
2, 50520, Note_on_c, 0, 72, 100
2, 50640, Note_on_c, 0, 72, 0
2, 50640, Note_on_c, 0, 71, 100
2, 50760, Note_on_c, 0, 71, 0
2, 50760, Note_on_c, 0, 69, 100
2, 50880, Note_on_c, 0, 69, 0
2, 50880, Note_on_c, 0, 67, 100
2, 51000, Note_on_c, 0, 67, 0
2, 51000, Note_on_c, 0, 72, 100
2, 51120, Note_on_c, 0, 72, 0
2, 51120, Note_on_c, 0, 76, 100
2, 51240, Note_on_c, 0, 76, 0
2, 51240, Note_on_c, 0, 79, 100
2, 51360, Note_on_c, 0, 79, 0
2, 51360, Note_on_c, 0, 78, 100
2, 51480, Note_on_c, 0, 78, 0
2, 51480, Note_on_c, 0, 76, 100
2, 51600, Note_on_c, 0, 76, 0
2, 51600, Note_on_c, 0, 74, 100
2, 51720, Note_on_c, 0, 74, 0
2, 51720, Note_on_c, 0, 72, 100
2, 51840, Note_on_c, 0, 72, 0
2, 51840, Note_on_c, 0, 71, 100
2, 52800, Note_on_c, 0, 71, 0
2, 54840, Note_on_c, 0, 62, 100
2, 54960, Note_on_c, 0, 62, 0
2, 54960, Note_on_c, 0, 64, 100
2, 55080, Note_on_c, 0, 64, 0
2, 55080, Note_on_c, 0, 66, 100
2, 55200, Note_on_c, 0, 66, 0
2, 55200, Note_on_c, 0, 67, 100
2, 55440, Note_on_c, 0, 67, 0
2, 55440, Note_on_c, 0, 68, 100
2, 55680, Note_on_c, 0, 68, 0
2, 55680, Note_on_c, 0, 69, 100
2, 55920, Note_on_c, 0, 69, 0
2, 55920, Note_on_c, 0, 64, 100
2, 56160, Note_on_c, 0, 64, 0
2, 56160, Note_on_c, 0, 65, 100
2, 56400, Note_on_c, 0, 65, 0
2, 56400, Note_on_c, 0, 66, 100
2, 56640, Note_on_c, 0, 66, 0
2, 56640, Note_on_c, 0, 67, 100
2, 57120, Note_on_c, 0, 67, 0
2, 57240, Note_on_c, 0, 64, 100
2, 57360, Note_on_c, 0, 64, 0
2, 57360, Note_on_c, 0, 62, 100
2, 57480, Note_on_c, 0, 62, 0
2, 57480, Note_on_c, 0, 61, 100
2, 57600, Note_on_c, 0, 61, 0
2, 57600, Note_on_c, 0, 62, 100
2, 57720, Note_on_c, 0, 62, 0
2, 57720, Note_on_c, 0, 66, 100
2, 57840, Note_on_c, 0, 66, 0
2, 57840, Note_on_c, 0, 69, 100
2, 58200, Note_on_c, 0, 69, 0
2, 58200, Note_on_c, 0, 67, 100
2, 58260, Note_on_c, 0, 67, 0
2, 58260, Note_on_c, 0, 66, 100
2, 58320, Note_on_c, 0, 66, 0
2, 58320, Note_on_c, 0, 67, 100
2, 58440, Note_on_c, 0, 67, 0
2, 58440, Note_on_c, 0, 69, 100
2, 58560, Note_on_c, 0, 69, 0
2, 58560, Note_on_c, 0, 71, 100
2, 58680, Note_on_c, 0, 71, 0
2, 58680, Note_on_c, 0, 62, 100
2, 58800, Note_on_c, 0, 62, 0
2, 58800, Note_on_c, 0, 64, 100
2, 58920, Note_on_c, 0, 64, 0
2, 58920, Note_on_c, 0, 66, 100
2, 59040, Note_on_c, 0, 66, 0
2, 59040, Note_on_c, 0, 67, 100
2, 59280, Note_on_c, 0, 67, 0
2, 59280, Note_on_c, 0, 68, 100
2, 59520, Note_on_c, 0, 68, 0
2, 59520, Note_on_c, 0, 69, 100
2, 59760, Note_on_c, 0, 69, 0
2, 59760, Note_on_c, 0, 64, 100
2, 60000, Note_on_c, 0, 64, 0
2, 60000, Note_on_c, 0, 65, 100
2, 60240, Note_on_c, 0, 65, 0
2, 60240, Note_on_c, 0, 66, 100
2, 60480, Note_on_c, 0, 66, 0
2, 60480, Note_on_c, 0, 67, 100
2, 60960, Note_on_c, 0, 67, 0
2, 61080, Note_on_c, 0, 64, 100
2, 61200, Note_on_c, 0, 64, 0
2, 61200, Note_on_c, 0, 62, 100
2, 61320, Note_on_c, 0, 62, 0
2, 61320, Note_on_c, 0, 61, 100
2, 61440, Note_on_c, 0, 61, 0
2, 61440, Note_on_c, 0, 62, 100
2, 61560, Note_on_c, 0, 62, 0
2, 61560, Note_on_c, 0, 66, 100
2, 61680, Note_on_c, 0, 66, 0
2, 61680, Note_on_c, 0, 69, 100
2, 62040, Note_on_c, 0, 69, 0
2, 62040, Note_on_c, 0, 67, 100
2, 62100, Note_on_c, 0, 67, 0
2, 62100, Note_on_c, 0, 66, 100
2, 62160, Note_on_c, 0, 66, 0
2, 62160, Note_on_c, 0, 67, 100
2, 62280, Note_on_c, 0, 67, 0
2, 62280, Note_on_c, 0, 69, 100
2, 62400, Note_on_c, 0, 69, 0
2, 62400, Note_on_c, 0, 71, 100
2, 62520, Note_on_c, 0, 71, 0
2, 62520, Note_on_c, 0, 62, 100
2, 62640, Note_on_c, 0, 62, 0
2, 62640, Note_on_c, 0, 64, 100
2, 62760, Note_on_c, 0, 64, 0
2, 62760, Note_on_c, 0, 66, 100
2, 62880, Note_on_c, 0, 66, 0
2, 62880, Note_on_c, 0, 67, 100
2, 63120, Note_on_c, 0, 67, 0
2, 63120, Note_on_c, 0, 68, 100
2, 63360, Note_on_c, 0, 68, 0
2, 63360, Note_on_c, 0, 69, 100
2, 63600, Note_on_c, 0, 69, 0
2, 63600, Note_on_c, 0, 64, 100
2, 63840, Note_on_c, 0, 64, 0
2, 63840, Note_on_c, 0, 65, 100
2, 64080, Note_on_c, 0, 65, 0
2, 64080, Note_on_c, 0, 66, 100
2, 64320, Note_on_c, 0, 66, 0
2, 64320, Note_on_c, 0, 67, 100
2, 65280, Note_on_c, 0, 67, 0
2, 65880, Note_on_c, 0, 67, 100
2, 66000, Note_on_c, 0, 67, 0
2, 66000, Note_on_c, 0, 66, 100
2, 66120, Note_on_c, 0, 66, 0
2, 66120, Note_on_c, 0, 64, 100
2, 66240, Note_on_c, 0, 64, 0
2, 66240, Note_on_c, 0, 62, 100
2, 66360, Note_on_c, 0, 62, 0
2, 66360, Note_on_c, 0, 59, 100
2, 66480, Note_on_c, 0, 59, 0
2, 66480, Note_on_c, 0, 60, 100
2, 66600, Note_on_c, 0, 60, 0
2, 66600, Note_on_c, 0, 62, 100
2, 66720, Note_on_c, 0, 62, 0
2, 66720, Note_on_c, 0, 55, 100
2, 67320, Note_on_c, 0, 55, 0
2, 67320, Note_on_c, 0, 54, 100
2, 67440, Note_on_c, 0, 54, 0
2, 67440, Note_on_c, 0, 55, 100
2, 67560, Note_on_c, 0, 55, 0
2, 67560, Note_on_c, 0, 57, 100
2, 67680, Note_on_c, 0, 57, 0
2, 67680, Note_on_c, 0, 55, 100
2, 68280, Note_on_c, 0, 55, 0
2, 68280, Note_on_c, 0, 71, 100
2, 68400, Note_on_c, 0, 71, 0
2, 68400, Note_on_c, 0, 69, 100
2, 68520, Note_on_c, 0, 69, 0
2, 68520, Note_on_c, 0, 67, 100
2, 68640, Note_on_c, 0, 67, 0
2, 68640, Note_on_c, 0, 66, 100
2, 68760, Note_on_c, 0, 66, 0
2, 68760, Note_on_c, 0, 62, 100
2, 68880, Note_on_c, 0, 62, 0
2, 68880, Note_on_c, 0, 64, 100
2, 69000, Note_on_c, 0, 64, 0
2, 69000, Note_on_c, 0, 66, 100
2, 69120, Note_on_c, 0, 66, 0
2, 69120, Note_on_c, 0, 59, 100
2, 69360, Note_on_c, 0, 59, 0
2, 69360, Note_on_c, 0, 60, 100
2, 69600, Note_on_c, 0, 60, 0
2, 69600, Note_on_c, 0, 62, 100
2, 69720, Note_on_c, 0, 62, 0
2, 69720, Note_on_c, 0, 67, 100
2, 69840, Note_on_c, 0, 67, 0
2, 69840, Note_on_c, 0, 66, 100
2, 69960, Note_on_c, 0, 66, 0
2, 69960, Note_on_c, 0, 64, 100
2, 70080, Note_on_c, 0, 64, 0
2, 70080, Note_on_c, 0, 62, 100
2, 70200, Note_on_c, 0, 62, 0
2, 70200, Note_on_c, 0, 59, 100
2, 70320, Note_on_c, 0, 59, 0
2, 70320, Note_on_c, 0, 60, 100
2, 70440, Note_on_c, 0, 60, 0
2, 70440, Note_on_c, 0, 62, 100
2, 70560, Note_on_c, 0, 62, 0
2, 70560, Note_on_c, 0, 55, 100
2, 71160, Note_on_c, 0, 55, 0
2, 71160, Note_on_c, 0, 54, 100
2, 71280, Note_on_c, 0, 54, 0
2, 71280, Note_on_c, 0, 55, 100
2, 71400, Note_on_c, 0, 55, 0
2, 71400, Note_on_c, 0, 57, 100
2, 71520, Note_on_c, 0, 57, 0
2, 71520, Note_on_c, 0, 55, 100
2, 72120, Note_on_c, 0, 55, 0
2, 72120, Note_on_c, 0, 71, 100
2, 72240, Note_on_c, 0, 71, 0
2, 72240, Note_on_c, 0, 69, 100
2, 72360, Note_on_c, 0, 69, 0
2, 72360, Note_on_c, 0, 67, 100
2, 72480, Note_on_c, 0, 67, 0
2, 72480, Note_on_c, 0, 66, 100
2, 72600, Note_on_c, 0, 66, 0
2, 72600, Note_on_c, 0, 62, 100
2, 72720, Note_on_c, 0, 62, 0
2, 72720, Note_on_c, 0, 64, 100
2, 72840, Note_on_c, 0, 64, 0
2, 72840, Note_on_c, 0, 66, 100
2, 72960, Note_on_c, 0, 66, 0
2, 72960, Note_on_c, 0, 59, 100
2, 73200, Note_on_c, 0, 59, 0
2, 73200, Note_on_c, 0, 60, 100
2, 73440, Note_on_c, 0, 60, 0
2, 73440, Note_on_c, 0, 62, 100
2, 73560, Note_on_c, 0, 62, 0
2, 73560, Note_on_c, 0, 67, 100
2, 73680, Note_on_c, 0, 67, 0
2, 73680, Note_on_c, 0, 66, 100
2, 73800, Note_on_c, 0, 66, 0
2, 73800, Note_on_c, 0, 64, 100
2, 73920, Note_on_c, 0, 64, 0
2, 73920, Note_on_c, 0, 74, 100
2, 74520, Note_on_c, 0, 74, 0
2, 74520, Note_on_c, 0, 76, 100
2, 74640, Note_on_c, 0, 76, 0
2, 74640, Note_on_c, 0, 74, 100
2, 74760, Note_on_c, 0, 74, 0
2, 74760, Note_on_c, 0, 73, 100
2, 74880, Note_on_c, 0, 73, 0
2, 74880, Note_on_c, 0, 74, 100
2, 75480, Note_on_c, 0, 74, 0
2, 75480, Note_on_c, 0, 59, 100
2, 75600, Note_on_c, 0, 59, 0
2, 75600, Note_on_c, 0, 60, 100
2, 75720, Note_on_c, 0, 60, 0
2, 75720, Note_on_c, 0, 62, 100
2, 75840, Note_on_c, 0, 62, 0
2, 75840, Note_on_c, 0, 64, 100
2, 75960, Note_on_c, 0, 64, 0
2, 75960, Note_on_c, 0, 67, 100
2, 76080, Note_on_c, 0, 67, 0
2, 76080, Note_on_c, 0, 66, 100
2, 76200, Note_on_c, 0, 66, 0
2, 76200, Note_on_c, 0, 64, 100
2, 76320, Note_on_c, 0, 64, 0
2, 76320, Note_on_c, 0, 71, 100
2, 76560, Note_on_c, 0, 71, 0
2, 76560, Note_on_c, 0, 69, 100
2, 76800, Note_on_c, 0, 69, 0
2, 76800, Note_on_c, 0, 67, 100
2, 77760, Note_on_c, 0, 67, 0
2, 79920, Note_on_c, 0, 62, 100
2, 80040, Note_on_c, 0, 62, 0
2, 80040, Note_on_c, 0, 64, 100
2, 80160, Note_on_c, 0, 64, 0
2, 80160, Note_on_c, 0, 66, 100
2, 80400, Note_on_c, 0, 66, 0
2, 80400, Note_on_c, 0, 68, 100
2, 80640, Note_on_c, 0, 68, 0
2, 80640, Note_on_c, 0, 69, 100
2, 80880, Note_on_c, 0, 69, 0
2, 80880, Note_on_c, 0, 72, 100
2, 81120, Note_on_c, 0, 72, 0
2, 81120, Note_on_c, 0, 71, 100
2, 81360, Note_on_c, 0, 71, 0
2, 81360, Note_on_c, 0, 69, 100
2, 81600, Note_on_c, 0, 69, 0
2, 81600, Note_on_c, 0, 76, 100
2, 82080, Note_on_c, 0, 76, 0
2, 82320, Note_on_c, 0, 74, 100
2, 82560, Note_on_c, 0, 74, 0
2, 82560, Note_on_c, 0, 81, 100
2, 82800, Note_on_c, 0, 81, 0
2, 82800, Note_on_c, 0, 69, 100
2, 83040, Note_on_c, 0, 69, 0
2, 83040, Note_on_c, 0, 71, 100
2, 83280, Note_on_c, 0, 71, 0
2, 83280, Note_on_c, 0, 73, 100
2, 83520, Note_on_c, 0, 73, 0
2, 83520, Note_on_c, 0, 74, 100
2, 83760, Note_on_c, 0, 74, 0
2, 83760, Note_on_c, 0, 62, 100
2, 83880, Note_on_c, 0, 62, 0
2, 83880, Note_on_c, 0, 64, 100
2, 84000, Note_on_c, 0, 64, 0
2, 84000, Note_on_c, 0, 66, 100
2, 84240, Note_on_c, 0, 66, 0
2, 84240, Note_on_c, 0, 68, 100
2, 84480, Note_on_c, 0, 68, 0
2, 84480, Note_on_c, 0, 69, 100
2, 84720, Note_on_c, 0, 69, 0
2, 84720, Note_on_c, 0, 72, 100
2, 84960, Note_on_c, 0, 72, 0
2, 84960, Note_on_c, 0, 71, 100
2, 85200, Note_on_c, 0, 71, 0
2, 85200, Note_on_c, 0, 69, 100
2, 85440, Note_on_c, 0, 69, 0
2, 85440, Note_on_c, 0, 76, 100
2, 85920, Note_on_c, 0, 76, 0
2, 86160, Note_on_c, 0, 74, 100
2, 86400, Note_on_c, 0, 74, 0
2, 86400, Note_on_c, 0, 81, 100
2, 86640, Note_on_c, 0, 81, 0
2, 86640, Note_on_c, 0, 69, 100
2, 86880, Note_on_c, 0, 69, 0
2, 86880, Note_on_c, 0, 71, 100
2, 87120, Note_on_c, 0, 71, 0
2, 87120, Note_on_c, 0, 73, 100
2, 87360, Note_on_c, 0, 73, 0
2, 87360, Note_on_c, 0, 74, 100
2, 87600, Note_on_c, 0, 74, 0
2, 87600, Note_on_c, 0, 62, 100
2, 87720, Note_on_c, 0, 62, 0
2, 87720, Note_on_c, 0, 64, 100
2, 87840, Note_on_c, 0, 64, 0
2, 87840, Note_on_c, 0, 66, 100
2, 88080, Note_on_c, 0, 66, 0
2, 88080, Note_on_c, 0, 68, 100
2, 88320, Note_on_c, 0, 68, 0
2, 88320, Note_on_c, 0, 69, 100
2, 88560, Note_on_c, 0, 69, 0
2, 88560, Note_on_c, 0, 72, 100
2, 88800, Note_on_c, 0, 72, 0
2, 88800, Note_on_c, 0, 71, 100
2, 89040, Note_on_c, 0, 71, 0
2, 89040, Note_on_c, 0, 69, 100
2, 89280, Note_on_c, 0, 69, 0
2, 89280, Note_on_c, 0, 76, 100
2, 90240, Note_on_c, 0, 76, 0
2, 90360, Note_on_c, 0, 67, 100
2, 90480, Note_on_c, 0, 67, 0
2, 90480, Note_on_c, 0, 71, 100
2, 90600, Note_on_c, 0, 71, 0
2, 90600, Note_on_c, 0, 74, 100
2, 90720, Note_on_c, 0, 74, 0
2, 90720, Note_on_c, 0, 79, 100
2, 90840, Note_on_c, 0, 79, 0
2, 90840, Note_on_c, 0, 74, 100
2, 90960, Note_on_c, 0, 74, 0
2, 90960, Note_on_c, 0, 71, 100
2, 91080, Note_on_c, 0, 71, 0
2, 91080, Note_on_c, 0, 67, 100
2, 91200, Note_on_c, 0, 67, 0
2, 91200, Note_on_c, 0, 74, 100
2, 91320, Note_on_c, 0, 74, 0
2, 91320, Note_on_c, 0, 62, 100
2, 91440, Note_on_c, 0, 62, 0
2, 91440, Note_on_c, 0, 67, 100
2, 91560, Note_on_c, 0, 67, 0
2, 91560, Note_on_c, 0, 71, 100
2, 91680, Note_on_c, 0, 71, 0
2, 91680, Note_on_c, 0, 61, 100
2, 91800, Note_on_c, 0, 61, 0
2, 91800, Note_on_c, 0, 64, 100
2, 91920, Note_on_c, 0, 64, 0
2, 91920, Note_on_c, 0, 67, 100
2, 92040, Note_on_c, 0, 67, 0
2, 92040, Note_on_c, 0, 73, 100
2, 92160, Note_on_c, 0, 73, 0
2, 92280, Note_on_c, 0, 74, 100
2, 92400, Note_on_c, 0, 74, 0
2, 92400, Note_on_c, 0, 69, 100
2, 92520, Note_on_c, 0, 69, 0
2, 92520, Note_on_c, 0, 66, 100
2, 92640, Note_on_c, 0, 66, 0
2, 92640, Note_on_c, 0, 62, 100
2, 92760, Note_on_c, 0, 62, 0
2, 92760, Note_on_c, 0, 67, 100
2, 92880, Note_on_c, 0, 67, 0
2, 92880, Note_on_c, 0, 71, 100
2, 93000, Note_on_c, 0, 71, 0
2, 93000, Note_on_c, 0, 74, 100
2, 93120, Note_on_c, 0, 74, 0
2, 93120, Note_on_c, 0, 67, 100
2, 93240, Note_on_c, 0, 67, 0
2, 93240, Note_on_c, 0, 74, 100
2, 93360, Note_on_c, 0, 74, 0
2, 93360, Note_on_c, 0, 72, 100
2, 93480, Note_on_c, 0, 72, 0
2, 93480, Note_on_c, 0, 69, 100
2, 93600, Note_on_c, 0, 69, 0
2, 93600, Note_on_c, 0, 71, 100
2, 93720, Note_on_c, 0, 71, 0
2, 93720, Note_on_c, 0, 66, 100
2, 93840, Note_on_c, 0, 66, 0
2, 93840, Note_on_c, 0, 69, 100
2, 93960, Note_on_c, 0, 69, 0
2, 93960, Note_on_c, 0, 74, 100
2, 94020, Note_on_c, 0, 74, 0
2, 94020, Note_on_c, 0, 72, 100
2, 94080, Note_on_c, 0, 72, 0
2, 94080, Note_on_c, 0, 71, 100
2, 94140, Note_on_c, 0, 71, 0
2, 94140, Note_on_c, 0, 69, 100
2, 94200, Note_on_c, 0, 69, 0
2, 94200, Note_on_c, 0, 67, 100
2, 94320, Note_on_c, 0, 67, 0
2, 94320, Note_on_c, 0, 71, 100
2, 94440, Note_on_c, 0, 71, 0
2, 94440, Note_on_c, 0, 74, 100
2, 94560, Note_on_c, 0, 74, 0
2, 94560, Note_on_c, 0, 79, 100
2, 94680, Note_on_c, 0, 79, 0
2, 94680, Note_on_c, 0, 74, 100
2, 94800, Note_on_c, 0, 74, 0
2, 94800, Note_on_c, 0, 71, 100
2, 94920, Note_on_c, 0, 71, 0
2, 94920, Note_on_c, 0, 67, 100
2, 95040, Note_on_c, 0, 67, 0
2, 95040, Note_on_c, 0, 74, 100
2, 95160, Note_on_c, 0, 74, 0
2, 95160, Note_on_c, 0, 62, 100
2, 95280, Note_on_c, 0, 62, 0
2, 95280, Note_on_c, 0, 67, 100
2, 95400, Note_on_c, 0, 67, 0
2, 95400, Note_on_c, 0, 71, 100
2, 95520, Note_on_c, 0, 71, 0
2, 95520, Note_on_c, 0, 61, 100
2, 95640, Note_on_c, 0, 61, 0
2, 95640, Note_on_c, 0, 64, 100
2, 95760, Note_on_c, 0, 64, 0
2, 95760, Note_on_c, 0, 67, 100
2, 95880, Note_on_c, 0, 67, 0
2, 95880, Note_on_c, 0, 73, 100
2, 96000, Note_on_c, 0, 73, 0
2, 96120, Note_on_c, 0, 74, 100
2, 96240, Note_on_c, 0, 74, 0
2, 96240, Note_on_c, 0, 69, 100
2, 96360, Note_on_c, 0, 69, 0
2, 96360, Note_on_c, 0, 66, 100
2, 96480, Note_on_c, 0, 66, 0
2, 96480, Note_on_c, 0, 62, 100
2, 96600, Note_on_c, 0, 62, 0
2, 96600, Note_on_c, 0, 67, 100
2, 96720, Note_on_c, 0, 67, 0
2, 96720, Note_on_c, 0, 71, 100
2, 96840, Note_on_c, 0, 71, 0
2, 96840, Note_on_c, 0, 74, 100
2, 96960, Note_on_c, 0, 74, 0
2, 96960, Note_on_c, 0, 67, 100
2, 97080, Note_on_c, 0, 67, 0
2, 97080, Note_on_c, 0, 74, 100
2, 97200, Note_on_c, 0, 74, 0
2, 97200, Note_on_c, 0, 72, 100
2, 97320, Note_on_c, 0, 72, 0
2, 97320, Note_on_c, 0, 69, 100
2, 97440, Note_on_c, 0, 69, 0
2, 97440, Note_on_c, 0, 71, 100
2, 97560, Note_on_c, 0, 71, 0
2, 97560, Note_on_c, 0, 66, 100
2, 97680, Note_on_c, 0, 66, 0
2, 97680, Note_on_c, 0, 69, 100
2, 97800, Note_on_c, 0, 69, 0
2, 97800, Note_on_c, 0, 74, 100
2, 97860, Note_on_c, 0, 74, 0
2, 97860, Note_on_c, 0, 72, 100
2, 97920, Note_on_c, 0, 72, 0
2, 97920, Note_on_c, 0, 71, 100
2, 97980, Note_on_c, 0, 71, 0
2, 97980, Note_on_c, 0, 69, 100
2, 98040, Note_on_c, 0, 69, 0
2, 98040, Note_on_c, 0, 67, 100
2, 98160, Note_on_c, 0, 67, 0
2, 98160, Note_on_c, 0, 71, 100
2, 98280, Note_on_c, 0, 71, 0
2, 98280, Note_on_c, 0, 74, 100
2, 98400, Note_on_c, 0, 74, 0
2, 98400, Note_on_c, 0, 79, 100
2, 98520, Note_on_c, 0, 79, 0
2, 98520, Note_on_c, 0, 74, 100
2, 98640, Note_on_c, 0, 74, 0
2, 98640, Note_on_c, 0, 71, 100
2, 98760, Note_on_c, 0, 71, 0
2, 98760, Note_on_c, 0, 67, 100
2, 98880, Note_on_c, 0, 67, 0
2, 98880, Note_on_c, 0, 74, 100
2, 99000, Note_on_c, 0, 74, 0
2, 99000, Note_on_c, 0, 62, 100
2, 99120, Note_on_c, 0, 62, 0
2, 99120, Note_on_c, 0, 67, 100
2, 99240, Note_on_c, 0, 67, 0
2, 99240, Note_on_c, 0, 71, 100
2, 99360, Note_on_c, 0, 71, 0
2, 99360, Note_on_c, 0, 61, 100
2, 99480, Note_on_c, 0, 61, 0
2, 99480, Note_on_c, 0, 64, 100
2, 99600, Note_on_c, 0, 64, 0
2, 99600, Note_on_c, 0, 67, 100
2, 99720, Note_on_c, 0, 67, 0
2, 99720, Note_on_c, 0, 73, 100
2, 99840, Note_on_c, 0, 73, 0
2, 99960, Note_on_c, 0, 74, 100
2, 100080, Note_on_c, 0, 74, 0
2, 100080, Note_on_c, 0, 69, 100
2, 100200, Note_on_c, 0, 69, 0
2, 100200, Note_on_c, 0, 66, 100
2, 100320, Note_on_c, 0, 66, 0
2, 100320, Note_on_c, 0, 62, 100
2, 100440, Note_on_c, 0, 62, 0
2, 100440, Note_on_c, 0, 67, 100
2, 100560, Note_on_c, 0, 67, 0
2, 100560, Note_on_c, 0, 71, 100
2, 100680, Note_on_c, 0, 71, 0
2, 100680, Note_on_c, 0, 74, 100
2, 100800, Note_on_c, 0, 74, 0
2, 100800, Note_on_c, 0, 67, 100
2, 100920, Note_on_c, 0, 67, 0
2, 100920, Note_on_c, 0, 74, 100
2, 101040, Note_on_c, 0, 74, 0
2, 101040, Note_on_c, 0, 72, 100
2, 101160, Note_on_c, 0, 72, 0
2, 101160, Note_on_c, 0, 69, 100
2, 101280, Note_on_c, 0, 69, 0
2, 101280, Note_on_c, 0, 71, 100
2, 101400, Note_on_c, 0, 71, 0
2, 101400, Note_on_c, 0, 66, 100
2, 101520, Note_on_c, 0, 66, 0
2, 101520, Note_on_c, 0, 69, 100
2, 101640, Note_on_c, 0, 69, 0
2, 101640, Note_on_c, 0, 74, 100
2, 101700, Note_on_c, 0, 74, 0
2, 101700, Note_on_c, 0, 72, 100
2, 101760, Note_on_c, 0, 72, 0
2, 101760, Note_on_c, 0, 71, 100
2, 102720, Note_on_c, 0, 71, 0
2, 105360, Note_on_c, 0, 67, 100
2, 105840, Note_on_c, 0, 67, 0
2, 105840, Note_on_c, 0, 69, 100
2, 106320, Note_on_c, 0, 69, 0
2, 106320, Note_on_c, 0, 71, 100
2, 106680, Note_on_c, 0, 71, 0
2, 106680, Note_on_c, 0, 72, 100
2, 106800, Note_on_c, 0, 72, 0
2, 106800, Note_on_c, 0, 71, 100
2, 106920, Note_on_c, 0, 71, 0
2, 106920, Note_on_c, 0, 69, 100
2, 107040, Note_on_c, 0, 69, 0
2, 107040, Note_on_c, 0, 67, 100
2, 107160, Note_on_c, 0, 67, 0
2, 107160, Note_on_c, 0, 64, 100
2, 107280, Note_on_c, 0, 64, 0
2, 107280, Note_on_c, 0, 66, 100
2, 107400, Note_on_c, 0, 66, 0
2, 107400, Note_on_c, 0, 67, 100
2, 107520, Note_on_c, 0, 67, 0
2, 107520, Note_on_c, 0, 69, 100
2, 107640, Note_on_c, 0, 69, 0
2, 107640, Note_on_c, 0, 71, 100
2, 107760, Note_on_c, 0, 71, 0
2, 107760, Note_on_c, 0, 72, 100
2, 107880, Note_on_c, 0, 72, 0
2, 107880, Note_on_c, 0, 74, 100
2, 108000, Note_on_c, 0, 74, 0
2, 108000, Note_on_c, 0, 76, 100
2, 108120, Note_on_c, 0, 76, 0
2, 108120, Note_on_c, 0, 78, 100
2, 108240, Note_on_c, 0, 78, 0
2, 108240, Note_on_c, 0, 79, 100
2, 108360, Note_on_c, 0, 79, 0
2, 108360, Note_on_c, 0, 81, 100
2, 108480, Note_on_c, 0, 81, 0
2, 108480, Note_on_c, 0, 83, 100
2, 108600, Note_on_c, 0, 83, 0
2, 108600, Note_on_c, 0, 81, 100
2, 108720, Note_on_c, 0, 81, 0
2, 108720, Note_on_c, 0, 79, 100
2, 108960, Note_on_c, 0, 79, 0
2, 109200, Note_on_c, 0, 67, 100
2, 109680, Note_on_c, 0, 67, 0
2, 109680, Note_on_c, 0, 69, 100
2, 110160, Note_on_c, 0, 69, 0
2, 110160, Note_on_c, 0, 71, 100
2, 110520, Note_on_c, 0, 71, 0
2, 110520, Note_on_c, 0, 72, 100
2, 110640, Note_on_c, 0, 72, 0
2, 110640, Note_on_c, 0, 71, 100
2, 110760, Note_on_c, 0, 71, 0
2, 110760, Note_on_c, 0, 69, 100
2, 110880, Note_on_c, 0, 69, 0
2, 110880, Note_on_c, 0, 67, 100
2, 111000, Note_on_c, 0, 67, 0
2, 111000, Note_on_c, 0, 64, 100
2, 111120, Note_on_c, 0, 64, 0
2, 111120, Note_on_c, 0, 66, 100
2, 111240, Note_on_c, 0, 66, 0
2, 111240, Note_on_c, 0, 67, 100
2, 111360, Note_on_c, 0, 67, 0
2, 111360, Note_on_c, 0, 69, 100
2, 111480, Note_on_c, 0, 69, 0
2, 111480, Note_on_c, 0, 71, 100
2, 111600, Note_on_c, 0, 71, 0
2, 111600, Note_on_c, 0, 72, 100
2, 111720, Note_on_c, 0, 72, 0
2, 111720, Note_on_c, 0, 74, 100
2, 111840, Note_on_c, 0, 74, 0
2, 111840, Note_on_c, 0, 76, 100
2, 111960, Note_on_c, 0, 76, 0
2, 111960, Note_on_c, 0, 78, 100
2, 112080, Note_on_c, 0, 78, 0
2, 112080, Note_on_c, 0, 79, 100
2, 112200, Note_on_c, 0, 79, 0
2, 112200, Note_on_c, 0, 81, 100
2, 112320, Note_on_c, 0, 81, 0
2, 112320, Note_on_c, 0, 83, 100
2, 112440, Note_on_c, 0, 83, 0
2, 112440, Note_on_c, 0, 81, 100
2, 112560, Note_on_c, 0, 81, 0
2, 112560, Note_on_c, 0, 79, 100
2, 112800, Note_on_c, 0, 79, 0
2, 113040, Note_on_c, 0, 67, 100
2, 113520, Note_on_c, 0, 67, 0
2, 113520, Note_on_c, 0, 69, 100
2, 114000, Note_on_c, 0, 69, 0
2, 114000, Note_on_c, 0, 71, 100
2, 114240, Note_on_c, 0, 71, 0
2, 114240, Note_on_c, 0, 67, 100
2, 115200, Note_on_c, 0, 67, 0
2, 117840, Note_on_c, 0, 74, 100
2, 118080, Note_on_c, 0, 74, 0
2, 118080, Note_on_c, 0, 75, 100
2, 118320, Note_on_c, 0, 75, 0
2, 118320, Note_on_c, 0, 76, 100
2, 118560, Note_on_c, 0, 76, 0
2, 118560, Note_on_c, 0, 77, 100
2, 118800, Note_on_c, 0, 77, 0
2, 118800, Note_on_c, 0, 78, 100
2, 119040, Note_on_c, 0, 78, 0
2, 119040, Note_on_c, 0, 79, 100
2, 119160, Note_on_c, 0, 79, 0
2, 119160, Note_on_c, 0, 78, 100
2, 119280, Note_on_c, 0, 78, 0
2, 119280, Note_on_c, 0, 79, 100
2, 119400, Note_on_c, 0, 79, 0
2, 119400, Note_on_c, 0, 81, 100
2, 119520, Note_on_c, 0, 81, 0
2, 119520, Note_on_c, 0, 83, 100
2, 119760, Note_on_c, 0, 83, 0
2, 120240, Note_on_c, 0, 78, 100
2, 120480, Note_on_c, 0, 78, 0
2, 120480, Note_on_c, 0, 71, 100
2, 120600, Note_on_c, 0, 71, 0
2, 120600, Note_on_c, 0, 73, 100
2, 120720, Note_on_c, 0, 73, 0
2, 120720, Note_on_c, 0, 74, 100
2, 120840, Note_on_c, 0, 74, 0
2, 120840, Note_on_c, 0, 76, 100
2, 120960, Note_on_c, 0, 76, 0
2, 120960, Note_on_c, 0, 78, 100
2, 121440, Note_on_c, 0, 78, 0
2, 121680, Note_on_c, 0, 74, 100
2, 121920, Note_on_c, 0, 74, 0
2, 121920, Note_on_c, 0, 75, 100
2, 122160, Note_on_c, 0, 75, 0
2, 122160, Note_on_c, 0, 76, 100
2, 122400, Note_on_c, 0, 76, 0
2, 122400, Note_on_c, 0, 77, 100
2, 122640, Note_on_c, 0, 77, 0
2, 122640, Note_on_c, 0, 78, 100
2, 122880, Note_on_c, 0, 78, 0
2, 122880, Note_on_c, 0, 79, 100
2, 123000, Note_on_c, 0, 79, 0
2, 123000, Note_on_c, 0, 78, 100
2, 123120, Note_on_c, 0, 78, 0
2, 123120, Note_on_c, 0, 79, 100
2, 123240, Note_on_c, 0, 79, 0
2, 123240, Note_on_c, 0, 81, 100
2, 123360, Note_on_c, 0, 81, 0
2, 123360, Note_on_c, 0, 83, 100
2, 123600, Note_on_c, 0, 83, 0
2, 124080, Note_on_c, 0, 78, 100
2, 124320, Note_on_c, 0, 78, 0
2, 124320, Note_on_c, 0, 71, 100
2, 124440, Note_on_c, 0, 71, 0
2, 124440, Note_on_c, 0, 73, 100
2, 124560, Note_on_c, 0, 73, 0
2, 124560, Note_on_c, 0, 74, 100
2, 124680, Note_on_c, 0, 74, 0
2, 124680, Note_on_c, 0, 76, 100
2, 124800, Note_on_c, 0, 76, 0
2, 124800, Note_on_c, 0, 78, 100
2, 125280, Note_on_c, 0, 78, 0
2, 125520, Note_on_c, 0, 74, 100
2, 125760, Note_on_c, 0, 74, 0
2, 125760, Note_on_c, 0, 75, 100
2, 126000, Note_on_c, 0, 75, 0
2, 126000, Note_on_c, 0, 76, 100
2, 126240, Note_on_c, 0, 76, 0
2, 126240, Note_on_c, 0, 77, 100
2, 126480, Note_on_c, 0, 77, 0
2, 126480, Note_on_c, 0, 78, 100
2, 126720, Note_on_c, 0, 78, 0
2, 126720, Note_on_c, 0, 79, 100
2, 127680, Note_on_c, 0, 79, 0
2, 128280, Note_on_c, 0, 62, 100
2, 128400, Note_on_c, 0, 62, 0
2, 128400, Note_on_c, 0, 64, 100
2, 128520, Note_on_c, 0, 64, 0
2, 128520, Note_on_c, 0, 66, 100
2, 128640, Note_on_c, 0, 66, 0
2, 128640, Note_on_c, 0, 67, 100
2, 128760, Note_on_c, 0, 67, 0
2, 128760, Note_on_c, 0, 71, 100
2, 128880, Note_on_c, 0, 71, 0
2, 128880, Note_on_c, 0, 69, 100
2, 129000, Note_on_c, 0, 69, 0
2, 129000, Note_on_c, 0, 67, 100
2, 129120, Note_on_c, 0, 67, 0
2, 129120, Note_on_c, 0, 74, 100
2, 129240, Note_on_c, 0, 74, 0
2, 129240, Note_on_c, 0, 79, 100
2, 129360, Note_on_c, 0, 79, 0
2, 129360, Note_on_c, 0, 83, 100
2, 129960, Note_on_c, 0, 83, 0
2, 129960, Note_on_c, 0, 81, 100
2, 130080, Note_on_c, 0, 81, 0
2, 130080, Note_on_c, 0, 79, 100
2, 130200, Note_on_c, 0, 79, 0
2, 130200, Note_on_c, 0, 78, 100
2, 130320, Note_on_c, 0, 78, 0
2, 130320, Note_on_c, 0, 76, 100
2, 130440, Note_on_c, 0, 76, 0
2, 130440, Note_on_c, 0, 74, 100
2, 130560, Note_on_c, 0, 74, 0
2, 130560, Note_on_c, 0, 73, 100
2, 130800, Note_on_c, 0, 73, 0
2, 130800, Note_on_c, 0, 79, 100
2, 131040, Note_on_c, 0, 79, 0
2, 131160, Note_on_c, 0, 76, 100
2, 131280, Note_on_c, 0, 76, 0
2, 131280, Note_on_c, 0, 78, 100
2, 131400, Note_on_c, 0, 78, 0
2, 131400, Note_on_c, 0, 79, 100
2, 131520, Note_on_c, 0, 79, 0
2, 131520, Note_on_c, 0, 78, 100
2, 131760, Note_on_c, 0, 78, 0
2, 131760, Note_on_c, 0, 69, 100
2, 132000, Note_on_c, 0, 69, 0
2, 132120, Note_on_c, 0, 62, 100
2, 132240, Note_on_c, 0, 62, 0
2, 132240, Note_on_c, 0, 64, 100
2, 132360, Note_on_c, 0, 64, 0
2, 132360, Note_on_c, 0, 66, 100
2, 132480, Note_on_c, 0, 66, 0
2, 132480, Note_on_c, 0, 67, 100
2, 132720, Note_on_c, 0, 67, 0
2, 132720, Note_on_c, 0, 79, 100
2, 132960, Note_on_c, 0, 79, 0
2, 133080, Note_on_c, 0, 71, 100
2, 133200, Note_on_c, 0, 71, 0
2, 133200, Note_on_c, 0, 69, 100
2, 133320, Note_on_c, 0, 69, 0
2, 133320, Note_on_c, 0, 67, 100
2, 133440, Note_on_c, 0, 67, 0
2, 133440, Note_on_c, 0, 76, 100
2, 133680, Note_on_c, 0, 76, 0
2, 133680, Note_on_c, 0, 64, 100
2, 133920, Note_on_c, 0, 64, 0
2, 134040, Note_on_c, 0, 66, 100
2, 134160, Note_on_c, 0, 66, 0
2, 134160, Note_on_c, 0, 67, 100
2, 134280, Note_on_c, 0, 67, 0
2, 134280, Note_on_c, 0, 69, 100
2, 134400, Note_on_c, 0, 69, 0
2, 134400, Note_on_c, 0, 69, 100
2, 134520, Note_on_c, 0, 69, 0
2, 134520, Note_on_c, 0, 60, 100
2, 134640, Note_on_c, 0, 60, 0
2, 134640, Note_on_c, 0, 69, 100
2, 134880, Note_on_c, 0, 69, 0
2, 135000, Note_on_c, 0, 72, 100
2, 135120, Note_on_c, 0, 72, 0
2, 135120, Note_on_c, 0, 69, 100
2, 135240, Note_on_c, 0, 69, 0
2, 135240, Note_on_c, 0, 64, 100
2, 135360, Note_on_c, 0, 64, 0
2, 135360, Note_on_c, 0, 62, 100
2, 135600, Note_on_c, 0, 62, 0
2, 135600, Note_on_c, 0, 60, 100
2, 135840, Note_on_c, 0, 60, 0
2, 135840, Note_on_c, 0, 59, 100
2, 135960, Note_on_c, 0, 59, 0
2, 135960, Note_on_c, 0, 62, 100
2, 136080, Note_on_c, 0, 62, 0
2, 136080, Note_on_c, 0, 64, 100
2, 136200, Note_on_c, 0, 64, 0
2, 136200, Note_on_c, 0, 66, 100
2, 136320, Note_on_c, 0, 66, 0
2, 136320, Note_on_c, 0, 67, 100
2, 136440, Note_on_c, 0, 67, 0
2, 136440, Note_on_c, 0, 71, 100
2, 136560, Note_on_c, 0, 71, 0
2, 136560, Note_on_c, 0, 69, 100
2, 136680, Note_on_c, 0, 69, 0
2, 136680, Note_on_c, 0, 67, 100
2, 136800, Note_on_c, 0, 67, 0
2, 136800, Note_on_c, 0, 74, 100
2, 136920, Note_on_c, 0, 74, 0
2, 136920, Note_on_c, 0, 79, 100
2, 137040, Note_on_c, 0, 79, 0
2, 137040, Note_on_c, 0, 83, 100
2, 137640, Note_on_c, 0, 83, 0
2, 137640, Note_on_c, 0, 81, 100
2, 137760, Note_on_c, 0, 81, 0
2, 137760, Note_on_c, 0, 79, 100
2, 137880, Note_on_c, 0, 79, 0
2, 137880, Note_on_c, 0, 78, 100
2, 138000, Note_on_c, 0, 78, 0
2, 138000, Note_on_c, 0, 76, 100
2, 138120, Note_on_c, 0, 76, 0
2, 138120, Note_on_c, 0, 74, 100
2, 138240, Note_on_c, 0, 74, 0
2, 138240, Note_on_c, 0, 73, 100
2, 138480, Note_on_c, 0, 73, 0
2, 138480, Note_on_c, 0, 79, 100
2, 138720, Note_on_c, 0, 79, 0
2, 138840, Note_on_c, 0, 76, 100
2, 138960, Note_on_c, 0, 76, 0
2, 138960, Note_on_c, 0, 78, 100
2, 139080, Note_on_c, 0, 78, 0
2, 139080, Note_on_c, 0, 79, 100
2, 139200, Note_on_c, 0, 79, 0
2, 139200, Note_on_c, 0, 78, 100
2, 139440, Note_on_c, 0, 78, 0
2, 139440, Note_on_c, 0, 69, 100
2, 139680, Note_on_c, 0, 69, 0
2, 139800, Note_on_c, 0, 62, 100
2, 139920, Note_on_c, 0, 62, 0
2, 139920, Note_on_c, 0, 64, 100
2, 140040, Note_on_c, 0, 64, 0
2, 140040, Note_on_c, 0, 66, 100
2, 140160, Note_on_c, 0, 66, 0
2, 140160, Note_on_c, 0, 67, 100
2, 140400, Note_on_c, 0, 67, 0
2, 140400, Note_on_c, 0, 79, 100
2, 140640, Note_on_c, 0, 79, 0
2, 140760, Note_on_c, 0, 71, 100
2, 140880, Note_on_c, 0, 71, 0
2, 140880, Note_on_c, 0, 69, 100
2, 141000, Note_on_c, 0, 69, 0
2, 141000, Note_on_c, 0, 67, 100
2, 141120, Note_on_c, 0, 67, 0
2, 141120, Note_on_c, 0, 76, 100
2, 141360, Note_on_c, 0, 76, 0
2, 141360, Note_on_c, 0, 64, 100
2, 141600, Note_on_c, 0, 64, 0
2, 141720, Note_on_c, 0, 66, 100
2, 141840, Note_on_c, 0, 66, 0
2, 141840, Note_on_c, 0, 67, 100
2, 141960, Note_on_c, 0, 67, 0
2, 141960, Note_on_c, 0, 69, 100
2, 142080, Note_on_c, 0, 69, 0
2, 142080, Note_on_c, 0, 69, 100
2, 142200, Note_on_c, 0, 69, 0
2, 142200, Note_on_c, 0, 60, 100
2, 142320, Note_on_c, 0, 60, 0
2, 142320, Note_on_c, 0, 69, 100
2, 142560, Note_on_c, 0, 69, 0
2, 142680, Note_on_c, 0, 72, 100
2, 142800, Note_on_c, 0, 72, 0
2, 142800, Note_on_c, 0, 69, 100
2, 142920, Note_on_c, 0, 69, 0
2, 142920, Note_on_c, 0, 64, 100
2, 143040, Note_on_c, 0, 64, 0
2, 143040, Note_on_c, 0, 62, 100
2, 143280, Note_on_c, 0, 62, 0
2, 143280, Note_on_c, 0, 60, 100
2, 143520, Note_on_c, 0, 60, 0
2, 143520, Note_on_c, 0, 59, 100
2, 143640, Note_on_c, 0, 59, 0
2, 143640, Note_on_c, 0, 62, 100
2, 143760, Note_on_c, 0, 62, 0
2, 143760, Note_on_c, 0, 64, 100
2, 143880, Note_on_c, 0, 64, 0
2, 143880, Note_on_c, 0, 66, 100
2, 144000, Note_on_c, 0, 66, 0
2, 144000, Note_on_c, 0, 67, 100
2, 144120, Note_on_c, 0, 67, 0
2, 144120, Note_on_c, 0, 71, 100
2, 144240, Note_on_c, 0, 71, 0
2, 144240, Note_on_c, 0, 69, 100
2, 144360, Note_on_c, 0, 69, 0
2, 144360, Note_on_c, 0, 67, 100
2, 144480, Note_on_c, 0, 67, 0
2, 144480, Note_on_c, 0, 74, 100
2, 144600, Note_on_c, 0, 74, 0
2, 144600, Note_on_c, 0, 79, 100
2, 144720, Note_on_c, 0, 79, 0
2, 144720, Note_on_c, 0, 83, 100
2, 145320, Note_on_c, 0, 83, 0
2, 145320, Note_on_c, 0, 81, 100
2, 145440, Note_on_c, 0, 81, 0
2, 145440, Note_on_c, 0, 79, 100
2, 145560, Note_on_c, 0, 79, 0
2, 145560, Note_on_c, 0, 78, 100
2, 145680, Note_on_c, 0, 78, 0
2, 145680, Note_on_c, 0, 76, 100
2, 145800, Note_on_c, 0, 76, 0
2, 145800, Note_on_c, 0, 74, 100
2, 145920, Note_on_c, 0, 74, 0
2, 145920, Note_on_c, 0, 73, 100
2, 146160, Note_on_c, 0, 73, 0
2, 146160, Note_on_c, 0, 79, 100
2, 146400, Note_on_c, 0, 79, 0
2, 146520, Note_on_c, 0, 76, 100
2, 146640, Note_on_c, 0, 76, 0
2, 146640, Note_on_c, 0, 78, 100
2, 146760, Note_on_c, 0, 78, 0
2, 146760, Note_on_c, 0, 79, 100
2, 146880, Note_on_c, 0, 79, 0
2, 146880, Note_on_c, 0, 78, 100
2, 147120, Note_on_c, 0, 78, 0
2, 147120, Note_on_c, 0, 69, 100
2, 148800, Note_on_c, 0, 69, 0
2, 151200, Note_on_c, 0, 67, 100
2, 152160, Note_on_c, 0, 67, 0
2, 152160, Note_on_c, 0, 66, 100
2, 152640, Note_on_c, 0, 66, 0
2, 152640, Note_on_c, 0, 64, 100
2, 153120, Note_on_c, 0, 64, 0
2, 153120, Note_on_c, 0, 62, 100
2, 153600, Note_on_c, 0, 62, 0
2, 153840, Note_on_c, 0, 66, 100
2, 154080, Note_on_c, 0, 66, 0
2, 154080, Note_on_c, 0, 67, 100
2, 154320, Note_on_c, 0, 67, 0
2, 154320, Note_on_c, 0, 69, 100
2, 154560, Note_on_c, 0, 69, 0
2, 154560, Note_on_c, 0, 71, 100
2, 154800, Note_on_c, 0, 71, 0
2, 154800, Note_on_c, 0, 69, 100
2, 155040, Note_on_c, 0, 69, 0
2, 155040, Note_on_c, 0, 67, 100
2, 156000, Note_on_c, 0, 67, 0
2, 156000, Note_on_c, 0, 66, 100
2, 156480, Note_on_c, 0, 66, 0
2, 156480, Note_on_c, 0, 64, 100
2, 156960, Note_on_c, 0, 64, 0
2, 156960, Note_on_c, 0, 62, 100
2, 157440, Note_on_c, 0, 62, 0
2, 157680, Note_on_c, 0, 66, 100
2, 157920, Note_on_c, 0, 66, 0
2, 157920, Note_on_c, 0, 67, 100
2, 158160, Note_on_c, 0, 67, 0
2, 158160, Note_on_c, 0, 69, 100
2, 158400, Note_on_c, 0, 69, 0
2, 158400, Note_on_c, 0, 71, 100
2, 158640, Note_on_c, 0, 71, 0
2, 158640, Note_on_c, 0, 69, 100
2, 158880, Note_on_c, 0, 69, 0
2, 158880, Note_on_c, 0, 67, 100
2, 159840, Note_on_c, 0, 67, 0
2, 159840, Note_on_c, 0, 66, 100
2, 160320, Note_on_c, 0, 66, 0
2, 160320, Note_on_c, 0, 64, 100
2, 162240, Note_on_c, 0, 64, 0
2, 162360, Note_on_c, 0, 62, 100
2, 162480, Note_on_c, 0, 62, 0
2, 162480, Note_on_c, 0, 64, 100
2, 162600, Note_on_c, 0, 64, 0
2, 162600, Note_on_c, 0, 66, 100
2, 162720, Note_on_c, 0, 66, 0
2, 162720, Note_on_c, 0, 67, 100
2, 162840, Note_on_c, 0, 67, 0
2, 162840, Note_on_c, 0, 71, 100
2, 162960, Note_on_c, 0, 71, 0
2, 162960, Note_on_c, 0, 69, 100
2, 163080, Note_on_c, 0, 69, 0
2, 163080, Note_on_c, 0, 67, 100
2, 163200, Note_on_c, 0, 67, 0
2, 163200, Note_on_c, 0, 74, 100
2, 163440, Note_on_c, 0, 74, 0
2, 163440, Note_on_c, 0, 62, 100
2, 163680, Note_on_c, 0, 62, 0
2, 163800, Note_on_c, 0, 57, 100
2, 163920, Note_on_c, 0, 57, 0
2, 163920, Note_on_c, 0, 59, 100
2, 164040, Note_on_c, 0, 59, 0
2, 164040, Note_on_c, 0, 61, 100
2, 164160, Note_on_c, 0, 61, 0
2, 164160, Note_on_c, 0, 62, 100
2, 164280, Note_on_c, 0, 62, 0
2, 164280, Note_on_c, 0, 66, 100
2, 164400, Note_on_c, 0, 66, 0
2, 164400, Note_on_c, 0, 64, 100
2, 164520, Note_on_c, 0, 64, 0
2, 164520, Note_on_c, 0, 62, 100
2, 164640, Note_on_c, 0, 62, 0
2, 164640, Note_on_c, 0, 69, 100
2, 164760, Note_on_c, 0, 69, 0
2, 164760, Note_on_c, 0, 67, 100
2, 164880, Note_on_c, 0, 67, 0
2, 164880, Note_on_c, 0, 66, 100
2, 165000, Note_on_c, 0, 66, 0
2, 165000, Note_on_c, 0, 74, 100
2, 165120, Note_on_c, 0, 74, 0
2, 165240, Note_on_c, 0, 76, 100
2, 165300, Note_on_c, 0, 76, 0
2, 165300, Note_on_c, 0, 78, 100
2, 165360, Note_on_c, 0, 78, 0
2, 165360, Note_on_c, 0, 79, 100
2, 165480, Note_on_c, 0, 79, 0
2, 165480, Note_on_c, 0, 67, 100
2, 165720, Note_on_c, 0, 67, 0
2, 165720, Note_on_c, 0, 69, 100
2, 165780, Note_on_c, 0, 69, 0
2, 165780, Note_on_c, 0, 71, 100
2, 165840, Note_on_c, 0, 71, 0
2, 165840, Note_on_c, 0, 64, 100
2, 165960, Note_on_c, 0, 64, 0
2, 165960, Note_on_c, 0, 66, 100
2, 166020, Note_on_c, 0, 66, 0
2, 166020, Note_on_c, 0, 67, 100
2, 166080, Note_on_c, 0, 67, 0
2, 166080, Note_on_c, 0, 66, 100
2, 166200, Note_on_c, 0, 66, 0
2, 166200, Note_on_c, 0, 79, 100
2, 166320, Note_on_c, 0, 79, 0
2, 166320, Note_on_c, 0, 78, 100
2, 166440, Note_on_c, 0, 78, 0
2, 166440, Note_on_c, 0, 76, 100
2, 166560, Note_on_c, 0, 76, 0
2, 166560, Note_on_c, 0, 74, 100
2, 166680, Note_on_c, 0, 74, 0
2, 166680, Note_on_c, 0, 71, 100
2, 166800, Note_on_c, 0, 71, 0
2, 166800, Note_on_c, 0, 72, 100
2, 166920, Note_on_c, 0, 72, 0
2, 166920, Note_on_c, 0, 74, 100
2, 167040, Note_on_c, 0, 74, 0
2, 167040, Note_on_c, 0, 67, 100
2, 167160, Note_on_c, 0, 67, 0
2, 167160, Note_on_c, 0, 66, 100
2, 167280, Note_on_c, 0, 66, 0
2, 167280, Note_on_c, 0, 67, 100
2, 167400, Note_on_c, 0, 67, 0
2, 167400, Note_on_c, 0, 69, 100
2, 167520, Note_on_c, 0, 69, 0
2, 167520, Note_on_c, 0, 71, 100
2, 167640, Note_on_c, 0, 71, 0
2, 167640, Note_on_c, 0, 74, 100
2, 167760, Note_on_c, 0, 74, 0
2, 167760, Note_on_c, 0, 72, 100
2, 167880, Note_on_c, 0, 72, 0
2, 167880, Note_on_c, 0, 71, 100
2, 168000, Note_on_c, 0, 71, 0
2, 168000, Note_on_c, 0, 76, 100
2, 168120, Note_on_c, 0, 76, 0
2, 168120, Note_on_c, 0, 77, 100
2, 168240, Note_on_c, 0, 77, 0
2, 168240, Note_on_c, 0, 76, 100
2, 168360, Note_on_c, 0, 76, 0
2, 168360, Note_on_c, 0, 74, 100
2, 168480, Note_on_c, 0, 74, 0
2, 168480, Note_on_c, 0, 72, 100
2, 168600, Note_on_c, 0, 72, 0
2, 168600, Note_on_c, 0, 69, 100
2, 168720, Note_on_c, 0, 69, 0
2, 168720, Note_on_c, 0, 71, 100
2, 168840, Note_on_c, 0, 71, 0
2, 168840, Note_on_c, 0, 72, 100
2, 168960, Note_on_c, 0, 72, 0
2, 168960, Note_on_c, 0, 66, 100
2, 169080, Note_on_c, 0, 66, 0
2, 169080, Note_on_c, 0, 61, 100
2, 169200, Note_on_c, 0, 61, 0
2, 169200, Note_on_c, 0, 62, 100
2, 169320, Note_on_c, 0, 62, 0
2, 169320, Note_on_c, 0, 64, 100
2, 169440, Note_on_c, 0, 64, 0
2, 169440, Note_on_c, 0, 66, 100
2, 169560, Note_on_c, 0, 66, 0
2, 169560, Note_on_c, 0, 69, 100
2, 169680, Note_on_c, 0, 69, 0
2, 169680, Note_on_c, 0, 67, 100
2, 169800, Note_on_c, 0, 67, 0
2, 169800, Note_on_c, 0, 66, 100
2, 169920, Note_on_c, 0, 66, 0
2, 169920, Note_on_c, 0, 71, 100
2, 170040, Note_on_c, 0, 71, 0
2, 170040, Note_on_c, 0, 62, 100
2, 170160, Note_on_c, 0, 62, 0
2, 170160, Note_on_c, 0, 64, 100
2, 170280, Note_on_c, 0, 64, 0
2, 170280, Note_on_c, 0, 66, 100
2, 170400, Note_on_c, 0, 66, 0
2, 170400, Note_on_c, 0, 67, 100
2, 170520, Note_on_c, 0, 67, 0
2, 170520, Note_on_c, 0, 71, 100
2, 170640, Note_on_c, 0, 71, 0
2, 170640, Note_on_c, 0, 69, 100
2, 170760, Note_on_c, 0, 69, 0
2, 170760, Note_on_c, 0, 67, 100
2, 170880, Note_on_c, 0, 67, 0
2, 170880, Note_on_c, 0, 74, 100
2, 171120, Note_on_c, 0, 74, 0
2, 171120, Note_on_c, 0, 62, 100
2, 171360, Note_on_c, 0, 62, 0
2, 171480, Note_on_c, 0, 57, 100
2, 171600, Note_on_c, 0, 57, 0
2, 171600, Note_on_c, 0, 59, 100
2, 171720, Note_on_c, 0, 59, 0
2, 171720, Note_on_c, 0, 61, 100
2, 171840, Note_on_c, 0, 61, 0
2, 171840, Note_on_c, 0, 62, 100
2, 171960, Note_on_c, 0, 62, 0
2, 171960, Note_on_c, 0, 66, 100
2, 172080, Note_on_c, 0, 66, 0
2, 172080, Note_on_c, 0, 64, 100
2, 172200, Note_on_c, 0, 64, 0
2, 172200, Note_on_c, 0, 62, 100
2, 172320, Note_on_c, 0, 62, 0
2, 172320, Note_on_c, 0, 69, 100
2, 172440, Note_on_c, 0, 69, 0
2, 172440, Note_on_c, 0, 67, 100
2, 172560, Note_on_c, 0, 67, 0
2, 172560, Note_on_c, 0, 66, 100
2, 172680, Note_on_c, 0, 66, 0
2, 172680, Note_on_c, 0, 74, 100
2, 172800, Note_on_c, 0, 74, 0
2, 172920, Note_on_c, 0, 76, 100
2, 172980, Note_on_c, 0, 76, 0
2, 172980, Note_on_c, 0, 78, 100
2, 173040, Note_on_c, 0, 78, 0
2, 173040, Note_on_c, 0, 79, 100
2, 173160, Note_on_c, 0, 79, 0
2, 173160, Note_on_c, 0, 67, 100
2, 173400, Note_on_c, 0, 67, 0
2, 173400, Note_on_c, 0, 69, 100
2, 173460, Note_on_c, 0, 69, 0
2, 173460, Note_on_c, 0, 71, 100
2, 173520, Note_on_c, 0, 71, 0
2, 173520, Note_on_c, 0, 64, 100
2, 173640, Note_on_c, 0, 64, 0
2, 173640, Note_on_c, 0, 66, 100
2, 173700, Note_on_c, 0, 66, 0
2, 173700, Note_on_c, 0, 67, 100
2, 173760, Note_on_c, 0, 67, 0
2, 173760, Note_on_c, 0, 66, 100
2, 173880, Note_on_c, 0, 66, 0
2, 173880, Note_on_c, 0, 79, 100
2, 174000, Note_on_c, 0, 79, 0
2, 174000, Note_on_c, 0, 78, 100
2, 174120, Note_on_c, 0, 78, 0
2, 174120, Note_on_c, 0, 76, 100
2, 174240, Note_on_c, 0, 76, 0
2, 174240, Note_on_c, 0, 74, 100
2, 174360, Note_on_c, 0, 74, 0
2, 174360, Note_on_c, 0, 71, 100
2, 174480, Note_on_c, 0, 71, 0
2, 174480, Note_on_c, 0, 72, 100
2, 174600, Note_on_c, 0, 72, 0
2, 174600, Note_on_c, 0, 74, 100
2, 174720, Note_on_c, 0, 74, 0
2, 174720, Note_on_c, 0, 67, 100
2, 174840, Note_on_c, 0, 67, 0
2, 174840, Note_on_c, 0, 66, 100
2, 174960, Note_on_c, 0, 66, 0
2, 174960, Note_on_c, 0, 67, 100
2, 175080, Note_on_c, 0, 67, 0
2, 175080, Note_on_c, 0, 69, 100
2, 175200, Note_on_c, 0, 69, 0
2, 175200, Note_on_c, 0, 71, 100
2, 175320, Note_on_c, 0, 71, 0
2, 175320, Note_on_c, 0, 74, 100
2, 175440, Note_on_c, 0, 74, 0
2, 175440, Note_on_c, 0, 72, 100
2, 175560, Note_on_c, 0, 72, 0
2, 175560, Note_on_c, 0, 71, 100
2, 175680, Note_on_c, 0, 71, 0
2, 175680, Note_on_c, 0, 76, 100
2, 175800, Note_on_c, 0, 76, 0
2, 175800, Note_on_c, 0, 77, 100
2, 175920, Note_on_c, 0, 77, 0
2, 175920, Note_on_c, 0, 76, 100
2, 176040, Note_on_c, 0, 76, 0
2, 176040, Note_on_c, 0, 74, 100
2, 176160, Note_on_c, 0, 74, 0
2, 176160, Note_on_c, 0, 72, 100
2, 176280, Note_on_c, 0, 72, 0
2, 176280, Note_on_c, 0, 69, 100
2, 176400, Note_on_c, 0, 69, 0
2, 176400, Note_on_c, 0, 71, 100
2, 176520, Note_on_c, 0, 71, 0
2, 176520, Note_on_c, 0, 72, 100
2, 176640, Note_on_c, 0, 72, 0
2, 176640, Note_on_c, 0, 66, 100
2, 176760, Note_on_c, 0, 66, 0
2, 176760, Note_on_c, 0, 61, 100
2, 176880, Note_on_c, 0, 61, 0
2, 176880, Note_on_c, 0, 62, 100
2, 177000, Note_on_c, 0, 62, 0
2, 177000, Note_on_c, 0, 64, 100
2, 177120, Note_on_c, 0, 64, 0
2, 177120, Note_on_c, 0, 66, 100
2, 177240, Note_on_c, 0, 66, 0
2, 177240, Note_on_c, 0, 69, 100
2, 177360, Note_on_c, 0, 69, 0
2, 177360, Note_on_c, 0, 67, 100
2, 177480, Note_on_c, 0, 67, 0
2, 177480, Note_on_c, 0, 66, 100
2, 177600, Note_on_c, 0, 66, 0
2, 177600, Note_on_c, 0, 71, 100
2, 177720, Note_on_c, 0, 71, 0
2, 177720, Note_on_c, 0, 62, 100
2, 177840, Note_on_c, 0, 62, 0
2, 177840, Note_on_c, 0, 64, 100
2, 177960, Note_on_c, 0, 64, 0
2, 177960, Note_on_c, 0, 66, 100
2, 178080, Note_on_c, 0, 66, 0
2, 178080, Note_on_c, 0, 67, 100
2, 178200, Note_on_c, 0, 67, 0
2, 178200, Note_on_c, 0, 71, 100
2, 178320, Note_on_c, 0, 71, 0
2, 178320, Note_on_c, 0, 69, 100
2, 178440, Note_on_c, 0, 69, 0
2, 178440, Note_on_c, 0, 67, 100
2, 178560, Note_on_c, 0, 67, 0
2, 178560, Note_on_c, 0, 74, 100
2, 178800, Note_on_c, 0, 74, 0
2, 178800, Note_on_c, 0, 62, 100
2, 179040, Note_on_c, 0, 62, 0
2, 179160, Note_on_c, 0, 57, 100
2, 179280, Note_on_c, 0, 57, 0
2, 179280, Note_on_c, 0, 59, 100
2, 179400, Note_on_c, 0, 59, 0
2, 179400, Note_on_c, 0, 61, 100
2, 179520, Note_on_c, 0, 61, 0
2, 179520, Note_on_c, 0, 62, 100
2, 179640, Note_on_c, 0, 62, 0
2, 179640, Note_on_c, 0, 66, 100
2, 179760, Note_on_c, 0, 66, 0
2, 179760, Note_on_c, 0, 64, 100
2, 179880, Note_on_c, 0, 64, 0
2, 179880, Note_on_c, 0, 62, 100
2, 180000, Note_on_c, 0, 62, 0
2, 180000, Note_on_c, 0, 69, 100
2, 180120, Note_on_c, 0, 69, 0
2, 180120, Note_on_c, 0, 67, 100
2, 180240, Note_on_c, 0, 67, 0
2, 180240, Note_on_c, 0, 66, 100
2, 180360, Note_on_c, 0, 66, 0
2, 180360, Note_on_c, 0, 74, 100
2, 180480, Note_on_c, 0, 74, 0
2, 180600, Note_on_c, 0, 76, 100
2, 180660, Note_on_c, 0, 76, 0
2, 180660, Note_on_c, 0, 78, 100
2, 180720, Note_on_c, 0, 78, 0
2, 180720, Note_on_c, 0, 79, 100
2, 180840, Note_on_c, 0, 79, 0
2, 180840, Note_on_c, 0, 67, 100
2, 181080, Note_on_c, 0, 67, 0
2, 181080, Note_on_c, 0, 69, 100
2, 181140, Note_on_c, 0, 69, 0
2, 181140, Note_on_c, 0, 71, 100
2, 181200, Note_on_c, 0, 71, 0
2, 181200, Note_on_c, 0, 64, 100
2, 181320, Note_on_c, 0, 64, 0
2, 181320, Note_on_c, 0, 66, 100
2, 181380, Note_on_c, 0, 66, 0
2, 181380, Note_on_c, 0, 67, 100
2, 181440, Note_on_c, 0, 67, 0
2, 181440, Note_on_c, 0, 66, 100
2, 181560, Note_on_c, 0, 66, 0
2, 181560, Note_on_c, 0, 79, 100
2, 181680, Note_on_c, 0, 79, 0
2, 181680, Note_on_c, 0, 78, 100
2, 181800, Note_on_c, 0, 78, 0
2, 181800, Note_on_c, 0, 76, 100
2, 181920, Note_on_c, 0, 76, 0
2, 181920, Note_on_c, 0, 74, 100
2, 182040, Note_on_c, 0, 74, 0
2, 182040, Note_on_c, 0, 71, 100
2, 182160, Note_on_c, 0, 71, 0
2, 182160, Note_on_c, 0, 72, 100
2, 182280, Note_on_c, 0, 72, 0
2, 182280, Note_on_c, 0, 74, 100
2, 182400, Note_on_c, 0, 74, 0
2, 182400, Note_on_c, 0, 67, 100
2, 182520, Note_on_c, 0, 67, 0
2, 182520, Note_on_c, 0, 66, 100
2, 182640, Note_on_c, 0, 66, 0
2, 182640, Note_on_c, 0, 67, 100
2, 182760, Note_on_c, 0, 67, 0
2, 182760, Note_on_c, 0, 69, 100
2, 182880, Note_on_c, 0, 69, 0
2, 182880, Note_on_c, 0, 71, 100
2, 183000, Note_on_c, 0, 71, 0
2, 183000, Note_on_c, 0, 74, 100
2, 183120, Note_on_c, 0, 74, 0
2, 183120, Note_on_c, 0, 72, 100
2, 183240, Note_on_c, 0, 72, 0
2, 183240, Note_on_c, 0, 71, 100
2, 183360, Note_on_c, 0, 71, 0
2, 183360, Note_on_c, 0, 76, 100
2, 183480, Note_on_c, 0, 76, 0
2, 183480, Note_on_c, 0, 77, 100
2, 183600, Note_on_c, 0, 77, 0
2, 183600, Note_on_c, 0, 76, 100
2, 183720, Note_on_c, 0, 76, 0
2, 183720, Note_on_c, 0, 74, 100
2, 183840, Note_on_c, 0, 74, 0
2, 183840, Note_on_c, 0, 72, 100
2, 183960, Note_on_c, 0, 72, 0
2, 183960, Note_on_c, 0, 69, 100
2, 184080, Note_on_c, 0, 69, 0
2, 184080, Note_on_c, 0, 71, 100
2, 184200, Note_on_c, 0, 71, 0
2, 184200, Note_on_c, 0, 72, 100
2, 184320, Note_on_c, 0, 72, 0
2, 184320, Note_on_c, 0, 66, 100
2, 184440, Note_on_c, 0, 66, 0
2, 184440, Note_on_c, 0, 61, 100
2, 184560, Note_on_c, 0, 61, 0
2, 184560, Note_on_c, 0, 62, 100
2, 184680, Note_on_c, 0, 62, 0
2, 184680, Note_on_c, 0, 64, 100
2, 184800, Note_on_c, 0, 64, 0
2, 184800, Note_on_c, 0, 66, 100
2, 184920, Note_on_c, 0, 66, 0
2, 184920, Note_on_c, 0, 69, 100
2, 185040, Note_on_c, 0, 69, 0
2, 185040, Note_on_c, 0, 67, 100
2, 185160, Note_on_c, 0, 67, 0
2, 185160, Note_on_c, 0, 66, 100
2, 185280, Note_on_c, 0, 66, 0
2, 185280, Note_on_c, 0, 71, 100
2, 187200, Note_on_c, 0, 71, 0
2, 187200, End_track
3, 0, Start_track
3, 0, MIDI_port, 0
3, 0, Title_t, "( no instrument specified in score )"
3, 0, Program_c, 1, 6
3, 0, Control_c, 1, 7, 100
3, 0, Control_c, 1, 10, 69
3, 19680, Note_on_c, 1, 62, 100
3, 20160, Note_on_c, 1, 62, 0
3, 20160, Note_on_c, 1, 64, 100
3, 20640, Note_on_c, 1, 64, 0
3, 20640, Note_on_c, 1, 66, 100
3, 21120, Note_on_c, 1, 66, 0
3, 21120, Note_on_c, 1, 67, 100
3, 21600, Note_on_c, 1, 67, 0
3, 21600, Note_on_c, 1, 71, 100
3, 22080, Note_on_c, 1, 71, 0
3, 22080, Note_on_c, 1, 69, 100
3, 22560, Note_on_c, 1, 69, 0
3, 22560, Note_on_c, 1, 67, 100
3, 23040, Note_on_c, 1, 67, 0
3, 23040, Note_on_c, 1, 74, 100
3, 23520, Note_on_c, 1, 74, 0
3, 23520, Note_on_c, 1, 62, 100
3, 24000, Note_on_c, 1, 62, 0
3, 24000, Note_on_c, 1, 64, 100
3, 24480, Note_on_c, 1, 64, 0
3, 24480, Note_on_c, 1, 66, 100
3, 24960, Note_on_c, 1, 66, 0
3, 24960, Note_on_c, 1, 67, 100
3, 25440, Note_on_c, 1, 67, 0
3, 25440, Note_on_c, 1, 71, 100
3, 25920, Note_on_c, 1, 71, 0
3, 25920, Note_on_c, 1, 69, 100
3, 26400, Note_on_c, 1, 69, 0
3, 26400, Note_on_c, 1, 67, 100
3, 26880, Note_on_c, 1, 67, 0
3, 26880, Note_on_c, 1, 74, 100
3, 27360, Note_on_c, 1, 74, 0
3, 27360, Note_on_c, 1, 62, 100
3, 27840, Note_on_c, 1, 62, 0
3, 27840, Note_on_c, 1, 64, 100
3, 28320, Note_on_c, 1, 64, 0
3, 28320, Note_on_c, 1, 66, 100
3, 28800, Note_on_c, 1, 66, 0
3, 28800, Note_on_c, 1, 67, 100
3, 29760, Note_on_c, 1, 67, 0
3, 32160, Note_on_c, 1, 67, 100
3, 32640, Note_on_c, 1, 67, 0
3, 32640, Note_on_c, 1, 66, 100
3, 33120, Note_on_c, 1, 66, 0
3, 33120, Note_on_c, 1, 64, 100
3, 33600, Note_on_c, 1, 64, 0
3, 33600, Note_on_c, 1, 62, 100
3, 34080, Note_on_c, 1, 62, 0
3, 34080, Note_on_c, 1, 59, 100
3, 34560, Note_on_c, 1, 59, 0
3, 34560, Note_on_c, 1, 60, 100
3, 35040, Note_on_c, 1, 60, 0
3, 35040, Note_on_c, 1, 62, 100
3, 35520, Note_on_c, 1, 62, 0
3, 35520, Note_on_c, 1, 55, 100
3, 36000, Note_on_c, 1, 55, 0
3, 36000, Note_on_c, 1, 67, 100
3, 36480, Note_on_c, 1, 67, 0
3, 36480, Note_on_c, 1, 66, 100
3, 36960, Note_on_c, 1, 66, 0
3, 36960, Note_on_c, 1, 64, 100
3, 37440, Note_on_c, 1, 64, 0
3, 37440, Note_on_c, 1, 62, 100
3, 37920, Note_on_c, 1, 62, 0
3, 37920, Note_on_c, 1, 59, 100
3, 38400, Note_on_c, 1, 59, 0
3, 38400, Note_on_c, 1, 60, 100
3, 38880, Note_on_c, 1, 60, 0
3, 38880, Note_on_c, 1, 62, 100
3, 39360, Note_on_c, 1, 62, 0
3, 39360, Note_on_c, 1, 55, 100
3, 40320, Note_on_c, 1, 55, 0
3, 40560, Note_on_c, 1, 67, 100
3, 40680, Note_on_c, 1, 67, 0
3, 40680, Note_on_c, 1, 66, 100
3, 40800, Note_on_c, 1, 66, 0
3, 40800, Note_on_c, 1, 67, 100
3, 40920, Note_on_c, 1, 67, 0
3, 40920, Note_on_c, 1, 69, 100
3, 41040, Note_on_c, 1, 69, 0
3, 41040, Note_on_c, 1, 71, 100
3, 41160, Note_on_c, 1, 71, 0
3, 41160, Note_on_c, 1, 72, 100
3, 41280, Note_on_c, 1, 72, 0
3, 41280, Note_on_c, 1, 74, 100
3, 41400, Note_on_c, 1, 74, 0
3, 41400, Note_on_c, 1, 69, 100
3, 41520, Note_on_c, 1, 69, 0
3, 41520, Note_on_c, 1, 66, 100
3, 41640, Note_on_c, 1, 66, 0
3, 41640, Note_on_c, 1, 62, 100
3, 41760, Note_on_c, 1, 62, 0
3, 41760, Note_on_c, 1, 64, 100
3, 41880, Note_on_c, 1, 64, 0
3, 41880, Note_on_c, 1, 66, 100
3, 42000, Note_on_c, 1, 66, 0
3, 42000, Note_on_c, 1, 67, 100
3, 42120, Note_on_c, 1, 67, 0
3, 42120, Note_on_c, 1, 69, 100
3, 42240, Note_on_c, 1, 69, 0
3, 42240, Note_on_c, 1, 71, 100
3, 42480, Note_on_c, 1, 71, 0
3, 42480, Note_on_c, 1, 66, 100
3, 42720, Note_on_c, 1, 66, 0
3, 42720, Note_on_c, 1, 67, 100
3, 43320, Note_on_c, 1, 67, 0
3, 43320, Note_on_c, 1, 69, 100
3, 43380, Note_on_c, 1, 69, 0
3, 43380, Note_on_c, 1, 71, 100
3, 43440, Note_on_c, 1, 71, 0
3, 43440, Note_on_c, 1, 72, 100
3, 43560, Note_on_c, 1, 72, 0
3, 43560, Note_on_c, 1, 71, 100
3, 43680, Note_on_c, 1, 71, 0
3, 43680, Note_on_c, 1, 69, 100
3, 43800, Note_on_c, 1, 69, 0
3, 43800, Note_on_c, 1, 67, 100
3, 43920, Note_on_c, 1, 67, 0
3, 43920, Note_on_c, 1, 71, 100
3, 44040, Note_on_c, 1, 71, 0
3, 44040, Note_on_c, 1, 69, 100
3, 44160, Note_on_c, 1, 69, 0
3, 44160, Note_on_c, 1, 67, 100
3, 44280, Note_on_c, 1, 67, 0
3, 44280, Note_on_c, 1, 69, 100
3, 44400, Note_on_c, 1, 69, 0
3, 44400, Note_on_c, 1, 67, 100
3, 44520, Note_on_c, 1, 67, 0
3, 44520, Note_on_c, 1, 66, 100
3, 44640, Note_on_c, 1, 66, 0
3, 44640, Note_on_c, 1, 67, 100
3, 44760, Note_on_c, 1, 67, 0
3, 44760, Note_on_c, 1, 69, 100
3, 44880, Note_on_c, 1, 69, 0
3, 44880, Note_on_c, 1, 71, 100
3, 45000, Note_on_c, 1, 71, 0
3, 45000, Note_on_c, 1, 72, 100
3, 45120, Note_on_c, 1, 72, 0
3, 45120, Note_on_c, 1, 74, 100
3, 45240, Note_on_c, 1, 74, 0
3, 45240, Note_on_c, 1, 69, 100
3, 45360, Note_on_c, 1, 69, 0
3, 45360, Note_on_c, 1, 66, 100
3, 45480, Note_on_c, 1, 66, 0
3, 45480, Note_on_c, 1, 62, 100
3, 45600, Note_on_c, 1, 62, 0
3, 45600, Note_on_c, 1, 64, 100
3, 45720, Note_on_c, 1, 64, 0
3, 45720, Note_on_c, 1, 66, 100
3, 45840, Note_on_c, 1, 66, 0
3, 45840, Note_on_c, 1, 67, 100
3, 45960, Note_on_c, 1, 67, 0
3, 45960, Note_on_c, 1, 69, 100
3, 46080, Note_on_c, 1, 69, 0
3, 46080, Note_on_c, 1, 71, 100
3, 46320, Note_on_c, 1, 71, 0
3, 46320, Note_on_c, 1, 66, 100
3, 46560, Note_on_c, 1, 66, 0
3, 46560, Note_on_c, 1, 67, 100
3, 47160, Note_on_c, 1, 67, 0
3, 47160, Note_on_c, 1, 69, 100
3, 47220, Note_on_c, 1, 69, 0
3, 47220, Note_on_c, 1, 71, 100
3, 47280, Note_on_c, 1, 71, 0
3, 47280, Note_on_c, 1, 72, 100
3, 47400, Note_on_c, 1, 72, 0
3, 47400, Note_on_c, 1, 71, 100
3, 47520, Note_on_c, 1, 71, 0
3, 47520, Note_on_c, 1, 69, 100
3, 47640, Note_on_c, 1, 69, 0
3, 47640, Note_on_c, 1, 67, 100
3, 47760, Note_on_c, 1, 67, 0
3, 47760, Note_on_c, 1, 71, 100
3, 47880, Note_on_c, 1, 71, 0
3, 47880, Note_on_c, 1, 69, 100
3, 48000, Note_on_c, 1, 69, 0
3, 48000, Note_on_c, 1, 67, 100
3, 48120, Note_on_c, 1, 67, 0
3, 48120, Note_on_c, 1, 69, 100
3, 48240, Note_on_c, 1, 69, 0
3, 48240, Note_on_c, 1, 67, 100
3, 48360, Note_on_c, 1, 67, 0
3, 48360, Note_on_c, 1, 66, 100
3, 48480, Note_on_c, 1, 66, 0
3, 48480, Note_on_c, 1, 67, 100
3, 48600, Note_on_c, 1, 67, 0
3, 48600, Note_on_c, 1, 69, 100
3, 48720, Note_on_c, 1, 69, 0
3, 48720, Note_on_c, 1, 71, 100
3, 48840, Note_on_c, 1, 71, 0
3, 48840, Note_on_c, 1, 72, 100
3, 48960, Note_on_c, 1, 72, 0
3, 48960, Note_on_c, 1, 74, 100
3, 49080, Note_on_c, 1, 74, 0
3, 49080, Note_on_c, 1, 69, 100
3, 49200, Note_on_c, 1, 69, 0
3, 49200, Note_on_c, 1, 66, 100
3, 49320, Note_on_c, 1, 66, 0
3, 49320, Note_on_c, 1, 62, 100
3, 49440, Note_on_c, 1, 62, 0
3, 49440, Note_on_c, 1, 64, 100
3, 49560, Note_on_c, 1, 64, 0
3, 49560, Note_on_c, 1, 66, 100
3, 49680, Note_on_c, 1, 66, 0
3, 49680, Note_on_c, 1, 67, 100
3, 49800, Note_on_c, 1, 67, 0
3, 49800, Note_on_c, 1, 69, 100
3, 49920, Note_on_c, 1, 69, 0
3, 49920, Note_on_c, 1, 71, 100
3, 50160, Note_on_c, 1, 71, 0
3, 50160, Note_on_c, 1, 66, 100
3, 50400, Note_on_c, 1, 66, 0
3, 50400, Note_on_c, 1, 67, 100
3, 51000, Note_on_c, 1, 67, 0
3, 51000, Note_on_c, 1, 69, 100
3, 51060, Note_on_c, 1, 69, 0
3, 51060, Note_on_c, 1, 71, 100
3, 51120, Note_on_c, 1, 71, 0
3, 51120, Note_on_c, 1, 72, 100
3, 51240, Note_on_c, 1, 72, 0
3, 51240, Note_on_c, 1, 71, 100
3, 51360, Note_on_c, 1, 71, 0
3, 51360, Note_on_c, 1, 69, 100
3, 51480, Note_on_c, 1, 69, 0
3, 51480, Note_on_c, 1, 67, 100
3, 51600, Note_on_c, 1, 67, 0
3, 51600, Note_on_c, 1, 71, 100
3, 51720, Note_on_c, 1, 71, 0
3, 51720, Note_on_c, 1, 69, 100
3, 51840, Note_on_c, 1, 69, 0
3, 51840, Note_on_c, 1, 67, 100
3, 52800, Note_on_c, 1, 67, 0
3, 52920, Note_on_c, 1, 64, 100
3, 53040, Note_on_c, 1, 64, 0
3, 53040, Note_on_c, 1, 62, 100
3, 53160, Note_on_c, 1, 62, 0
3, 53160, Note_on_c, 1, 60, 100
3, 53280, Note_on_c, 1, 60, 0
3, 53280, Note_on_c, 1, 59, 100
3, 53520, Note_on_c, 1, 59, 0
3, 53520, Note_on_c, 1, 58, 100
3, 53760, Note_on_c, 1, 58, 0
3, 53760, Note_on_c, 1, 57, 100
3, 54000, Note_on_c, 1, 57, 0
3, 54000, Note_on_c, 1, 62, 100
3, 54240, Note_on_c, 1, 62, 0
3, 54240, Note_on_c, 1, 61, 100
3, 54480, Note_on_c, 1, 61, 0
3, 54480, Note_on_c, 1, 60, 100
3, 54720, Note_on_c, 1, 60, 0
3, 54720, Note_on_c, 1, 59, 100
3, 55200, Note_on_c, 1, 59, 0
3, 55320, Note_on_c, 1, 62, 100
3, 55440, Note_on_c, 1, 62, 0
3, 55440, Note_on_c, 1, 64, 100
3, 55560, Note_on_c, 1, 64, 0
3, 55560, Note_on_c, 1, 65, 100
3, 55680, Note_on_c, 1, 65, 0
3, 55680, Note_on_c, 1, 64, 100
3, 55800, Note_on_c, 1, 64, 0
3, 55800, Note_on_c, 1, 60, 100
3, 55920, Note_on_c, 1, 60, 0
3, 55920, Note_on_c, 1, 57, 100
3, 56280, Note_on_c, 1, 57, 0
3, 56280, Note_on_c, 1, 59, 100
3, 56340, Note_on_c, 1, 59, 0
3, 56340, Note_on_c, 1, 60, 100
3, 56400, Note_on_c, 1, 60, 0
3, 56400, Note_on_c, 1, 59, 100
3, 56520, Note_on_c, 1, 59, 0
3, 56520, Note_on_c, 1, 57, 100
3, 56640, Note_on_c, 1, 57, 0
3, 56640, Note_on_c, 1, 55, 100
3, 56760, Note_on_c, 1, 55, 0
3, 56760, Note_on_c, 1, 64, 100
3, 56880, Note_on_c, 1, 64, 0
3, 56880, Note_on_c, 1, 62, 100
3, 57000, Note_on_c, 1, 62, 0
3, 57000, Note_on_c, 1, 60, 100
3, 57120, Note_on_c, 1, 60, 0
3, 57120, Note_on_c, 1, 59, 100
3, 57360, Note_on_c, 1, 59, 0
3, 57360, Note_on_c, 1, 58, 100
3, 57600, Note_on_c, 1, 58, 0
3, 57600, Note_on_c, 1, 57, 100
3, 57840, Note_on_c, 1, 57, 0
3, 57840, Note_on_c, 1, 62, 100
3, 58080, Note_on_c, 1, 62, 0
3, 58080, Note_on_c, 1, 61, 100
3, 58320, Note_on_c, 1, 61, 0
3, 58320, Note_on_c, 1, 60, 100
3, 58560, Note_on_c, 1, 60, 0
3, 58560, Note_on_c, 1, 59, 100
3, 59040, Note_on_c, 1, 59, 0
3, 59160, Note_on_c, 1, 62, 100
3, 59280, Note_on_c, 1, 62, 0
3, 59280, Note_on_c, 1, 64, 100
3, 59400, Note_on_c, 1, 64, 0
3, 59400, Note_on_c, 1, 65, 100
3, 59520, Note_on_c, 1, 65, 0
3, 59520, Note_on_c, 1, 64, 100
3, 59640, Note_on_c, 1, 64, 0
3, 59640, Note_on_c, 1, 60, 100
3, 59760, Note_on_c, 1, 60, 0
3, 59760, Note_on_c, 1, 57, 100
3, 60120, Note_on_c, 1, 57, 0
3, 60120, Note_on_c, 1, 59, 100
3, 60180, Note_on_c, 1, 59, 0
3, 60180, Note_on_c, 1, 60, 100
3, 60240, Note_on_c, 1, 60, 0
3, 60240, Note_on_c, 1, 59, 100
3, 60360, Note_on_c, 1, 59, 0
3, 60360, Note_on_c, 1, 57, 100
3, 60480, Note_on_c, 1, 57, 0
3, 60480, Note_on_c, 1, 55, 100
3, 60600, Note_on_c, 1, 55, 0
3, 60600, Note_on_c, 1, 64, 100
3, 60720, Note_on_c, 1, 64, 0
3, 60720, Note_on_c, 1, 62, 100
3, 60840, Note_on_c, 1, 62, 0
3, 60840, Note_on_c, 1, 60, 100
3, 60960, Note_on_c, 1, 60, 0
3, 60960, Note_on_c, 1, 59, 100
3, 61200, Note_on_c, 1, 59, 0
3, 61200, Note_on_c, 1, 58, 100
3, 61440, Note_on_c, 1, 58, 0
3, 61440, Note_on_c, 1, 57, 100
3, 61680, Note_on_c, 1, 57, 0
3, 61680, Note_on_c, 1, 62, 100
3, 61920, Note_on_c, 1, 62, 0
3, 61920, Note_on_c, 1, 61, 100
3, 62160, Note_on_c, 1, 61, 0
3, 62160, Note_on_c, 1, 60, 100
3, 62400, Note_on_c, 1, 60, 0
3, 62400, Note_on_c, 1, 59, 100
3, 62880, Note_on_c, 1, 59, 0
3, 63000, Note_on_c, 1, 62, 100
3, 63120, Note_on_c, 1, 62, 0
3, 63120, Note_on_c, 1, 64, 100
3, 63240, Note_on_c, 1, 64, 0
3, 63240, Note_on_c, 1, 65, 100
3, 63360, Note_on_c, 1, 65, 0
3, 63360, Note_on_c, 1, 64, 100
3, 63480, Note_on_c, 1, 64, 0
3, 63480, Note_on_c, 1, 60, 100
3, 63600, Note_on_c, 1, 60, 0
3, 63600, Note_on_c, 1, 57, 100
3, 63960, Note_on_c, 1, 57, 0
3, 63960, Note_on_c, 1, 59, 100
3, 64020, Note_on_c, 1, 59, 0
3, 64020, Note_on_c, 1, 60, 100
3, 64080, Note_on_c, 1, 60, 0
3, 64080, Note_on_c, 1, 59, 100
3, 64200, Note_on_c, 1, 59, 0
3, 64200, Note_on_c, 1, 57, 100
3, 64320, Note_on_c, 1, 57, 0
3, 64320, Note_on_c, 1, 55, 100
3, 65280, Note_on_c, 1, 55, 0
3, 65400, Note_on_c, 1, 62, 100
3, 65520, Note_on_c, 1, 62, 0
3, 65520, Note_on_c, 1, 64, 100
3, 65640, Note_on_c, 1, 64, 0
3, 65640, Note_on_c, 1, 66, 100
3, 65760, Note_on_c, 1, 66, 0
3, 65760, Note_on_c, 1, 67, 100
3, 65880, Note_on_c, 1, 67, 0
3, 65880, Note_on_c, 1, 71, 100
3, 66000, Note_on_c, 1, 71, 0
3, 66000, Note_on_c, 1, 69, 100
3, 66120, Note_on_c, 1, 69, 0
3, 66120, Note_on_c, 1, 67, 100
3, 66240, Note_on_c, 1, 67, 0
3, 66240, Note_on_c, 1, 74, 100
3, 66840, Note_on_c, 1, 74, 0
3, 66840, Note_on_c, 1, 76, 100
3, 66960, Note_on_c, 1, 76, 0
3, 66960, Note_on_c, 1, 74, 100
3, 67080, Note_on_c, 1, 74, 0
3, 67080, Note_on_c, 1, 73, 100
3, 67200, Note_on_c, 1, 73, 0
3, 67200, Note_on_c, 1, 74, 100
3, 67800, Note_on_c, 1, 74, 0
3, 67800, Note_on_c, 1, 59, 100
3, 67920, Note_on_c, 1, 59, 0
3, 67920, Note_on_c, 1, 60, 100
3, 68040, Note_on_c, 1, 60, 0
3, 68040, Note_on_c, 1, 62, 100
3, 68160, Note_on_c, 1, 62, 0
3, 68160, Note_on_c, 1, 64, 100
3, 68280, Note_on_c, 1, 64, 0
3, 68280, Note_on_c, 1, 67, 100
3, 68400, Note_on_c, 1, 67, 0
3, 68400, Note_on_c, 1, 66, 100
3, 68520, Note_on_c, 1, 66, 0
3, 68520, Note_on_c, 1, 64, 100
3, 68640, Note_on_c, 1, 64, 0
3, 68640, Note_on_c, 1, 71, 100
3, 68880, Note_on_c, 1, 71, 0
3, 68880, Note_on_c, 1, 69, 100
3, 69120, Note_on_c, 1, 69, 0
3, 69120, Note_on_c, 1, 67, 100
3, 69240, Note_on_c, 1, 67, 0
3, 69240, Note_on_c, 1, 62, 100
3, 69360, Note_on_c, 1, 62, 0
3, 69360, Note_on_c, 1, 64, 100
3, 69480, Note_on_c, 1, 64, 0
3, 69480, Note_on_c, 1, 66, 100
3, 69600, Note_on_c, 1, 66, 0
3, 69600, Note_on_c, 1, 67, 100
3, 69720, Note_on_c, 1, 67, 0
3, 69720, Note_on_c, 1, 71, 100
3, 69840, Note_on_c, 1, 71, 0
3, 69840, Note_on_c, 1, 69, 100
3, 69960, Note_on_c, 1, 69, 0
3, 69960, Note_on_c, 1, 67, 100
3, 70080, Note_on_c, 1, 67, 0
3, 70080, Note_on_c, 1, 74, 100
3, 70680, Note_on_c, 1, 74, 0
3, 70680, Note_on_c, 1, 76, 100
3, 70800, Note_on_c, 1, 76, 0
3, 70800, Note_on_c, 1, 74, 100
3, 70920, Note_on_c, 1, 74, 0
3, 70920, Note_on_c, 1, 73, 100
3, 71040, Note_on_c, 1, 73, 0
3, 71040, Note_on_c, 1, 74, 100
3, 71640, Note_on_c, 1, 74, 0
3, 71640, Note_on_c, 1, 59, 100
3, 71760, Note_on_c, 1, 59, 0
3, 71760, Note_on_c, 1, 60, 100
3, 71880, Note_on_c, 1, 60, 0
3, 71880, Note_on_c, 1, 62, 100
3, 72000, Note_on_c, 1, 62, 0
3, 72000, Note_on_c, 1, 64, 100
3, 72120, Note_on_c, 1, 64, 0
3, 72120, Note_on_c, 1, 67, 100
3, 72240, Note_on_c, 1, 67, 0
3, 72240, Note_on_c, 1, 66, 100
3, 72360, Note_on_c, 1, 66, 0
3, 72360, Note_on_c, 1, 64, 100
3, 72480, Note_on_c, 1, 64, 0
3, 72480, Note_on_c, 1, 71, 100
3, 72720, Note_on_c, 1, 71, 0
3, 72720, Note_on_c, 1, 69, 100
3, 72960, Note_on_c, 1, 69, 0
3, 72960, Note_on_c, 1, 67, 100
3, 73080, Note_on_c, 1, 67, 0
3, 73080, Note_on_c, 1, 62, 100
3, 73200, Note_on_c, 1, 62, 0
3, 73200, Note_on_c, 1, 64, 100
3, 73320, Note_on_c, 1, 64, 0
3, 73320, Note_on_c, 1, 66, 100
3, 73440, Note_on_c, 1, 66, 0
3, 73440, Note_on_c, 1, 67, 100
3, 73560, Note_on_c, 1, 67, 0
3, 73560, Note_on_c, 1, 71, 100
3, 73680, Note_on_c, 1, 71, 0
3, 73680, Note_on_c, 1, 69, 100
3, 73800, Note_on_c, 1, 69, 0
3, 73800, Note_on_c, 1, 67, 100
3, 73920, Note_on_c, 1, 67, 0
3, 73920, Note_on_c, 1, 62, 100
3, 74040, Note_on_c, 1, 62, 0
3, 74040, Note_on_c, 1, 59, 100
3, 74160, Note_on_c, 1, 59, 0
3, 74160, Note_on_c, 1, 60, 100
3, 74280, Note_on_c, 1, 60, 0
3, 74280, Note_on_c, 1, 62, 100
3, 74400, Note_on_c, 1, 62, 0
3, 74400, Note_on_c, 1, 55, 100
3, 75000, Note_on_c, 1, 55, 0
3, 75000, Note_on_c, 1, 54, 100
3, 75120, Note_on_c, 1, 54, 0
3, 75120, Note_on_c, 1, 55, 100
3, 75240, Note_on_c, 1, 55, 0
3, 75240, Note_on_c, 1, 57, 100
3, 75360, Note_on_c, 1, 57, 0
3, 75360, Note_on_c, 1, 55, 100
3, 75960, Note_on_c, 1, 55, 0
3, 75960, Note_on_c, 1, 71, 100
3, 76080, Note_on_c, 1, 71, 0
3, 76080, Note_on_c, 1, 69, 100
3, 76200, Note_on_c, 1, 69, 0
3, 76200, Note_on_c, 1, 67, 100
3, 76320, Note_on_c, 1, 67, 0
3, 76320, Note_on_c, 1, 66, 100
3, 76440, Note_on_c, 1, 66, 0
3, 76440, Note_on_c, 1, 62, 100
3, 76560, Note_on_c, 1, 62, 0
3, 76560, Note_on_c, 1, 64, 100
3, 76680, Note_on_c, 1, 64, 0
3, 76680, Note_on_c, 1, 66, 100
3, 76800, Note_on_c, 1, 66, 0
3, 76800, Note_on_c, 1, 59, 100
3, 77760, Note_on_c, 1, 59, 0
3, 78240, Note_on_c, 1, 67, 100
3, 78720, Note_on_c, 1, 67, 0
3, 78720, Note_on_c, 1, 66, 100
3, 79200, Note_on_c, 1, 66, 0
3, 79200, Note_on_c, 1, 64, 100
3, 79680, Note_on_c, 1, 64, 0
3, 79680, Note_on_c, 1, 62, 100
3, 80160, Note_on_c, 1, 62, 0
3, 80160, Note_on_c, 1, 59, 100
3, 80640, Note_on_c, 1, 59, 0
3, 80640, Note_on_c, 1, 60, 100
3, 81120, Note_on_c, 1, 60, 0
3, 81120, Note_on_c, 1, 62, 100
3, 81600, Note_on_c, 1, 62, 0
3, 81600, Note_on_c, 1, 55, 100
3, 82080, Note_on_c, 1, 55, 0
3, 82080, Note_on_c, 1, 67, 100
3, 82560, Note_on_c, 1, 67, 0
3, 82560, Note_on_c, 1, 66, 100
3, 83040, Note_on_c, 1, 66, 0
3, 83040, Note_on_c, 1, 64, 100
3, 83520, Note_on_c, 1, 64, 0
3, 83520, Note_on_c, 1, 62, 100
3, 84000, Note_on_c, 1, 62, 0
3, 84000, Note_on_c, 1, 59, 100
3, 84480, Note_on_c, 1, 59, 0
3, 84480, Note_on_c, 1, 60, 100
3, 84960, Note_on_c, 1, 60, 0
3, 84960, Note_on_c, 1, 62, 100
3, 85440, Note_on_c, 1, 62, 0
3, 85440, Note_on_c, 1, 55, 100
3, 85920, Note_on_c, 1, 55, 0
3, 85920, Note_on_c, 1, 67, 100
3, 86400, Note_on_c, 1, 67, 0
3, 86400, Note_on_c, 1, 66, 100
3, 86880, Note_on_c, 1, 66, 0
3, 86880, Note_on_c, 1, 64, 100
3, 87360, Note_on_c, 1, 64, 0
3, 87360, Note_on_c, 1, 62, 100
3, 87840, Note_on_c, 1, 62, 0
3, 87840, Note_on_c, 1, 59, 100
3, 88320, Note_on_c, 1, 59, 0
3, 88320, Note_on_c, 1, 60, 100
3, 88800, Note_on_c, 1, 60, 0
3, 88800, Note_on_c, 1, 62, 100
3, 89280, Note_on_c, 1, 62, 0
3, 89280, Note_on_c, 1, 55, 100
3, 90240, Note_on_c, 1, 55, 0
3, 90240, Note_on_c, 1, 67, 100
3, 90360, Note_on_c, 1, 67, 0
3, 90360, Note_on_c, 1, 71, 100
3, 90480, Note_on_c, 1, 71, 0
3, 90480, Note_on_c, 1, 74, 100
3, 90600, Note_on_c, 1, 74, 0
3, 90600, Note_on_c, 1, 79, 100
3, 90720, Note_on_c, 1, 79, 0
3, 90720, Note_on_c, 1, 74, 100
3, 90840, Note_on_c, 1, 74, 0
3, 90840, Note_on_c, 1, 71, 100
3, 90960, Note_on_c, 1, 71, 0
3, 90960, Note_on_c, 1, 67, 100
3, 91080, Note_on_c, 1, 67, 0
3, 91080, Note_on_c, 1, 74, 100
3, 91200, Note_on_c, 1, 74, 0
3, 91200, Note_on_c, 1, 62, 100
3, 91320, Note_on_c, 1, 62, 0
3, 91320, Note_on_c, 1, 67, 100
3, 91440, Note_on_c, 1, 67, 0
3, 91440, Note_on_c, 1, 71, 100
3, 91560, Note_on_c, 1, 71, 0
3, 91560, Note_on_c, 1, 61, 100
3, 91680, Note_on_c, 1, 61, 0
3, 91680, Note_on_c, 1, 64, 100
3, 91800, Note_on_c, 1, 64, 0
3, 91800, Note_on_c, 1, 67, 100
3, 91920, Note_on_c, 1, 67, 0
3, 91920, Note_on_c, 1, 73, 100
3, 92040, Note_on_c, 1, 73, 0
3, 92160, Note_on_c, 1, 74, 100
3, 92280, Note_on_c, 1, 74, 0
3, 92280, Note_on_c, 1, 69, 100
3, 92400, Note_on_c, 1, 69, 0
3, 92400, Note_on_c, 1, 66, 100
3, 92520, Note_on_c, 1, 66, 0
3, 92520, Note_on_c, 1, 62, 100
3, 92640, Note_on_c, 1, 62, 0
3, 92640, Note_on_c, 1, 67, 100
3, 92760, Note_on_c, 1, 67, 0
3, 92760, Note_on_c, 1, 71, 100
3, 92880, Note_on_c, 1, 71, 0
3, 92880, Note_on_c, 1, 74, 100
3, 93000, Note_on_c, 1, 74, 0
3, 93000, Note_on_c, 1, 67, 100
3, 93120, Note_on_c, 1, 67, 0
3, 93120, Note_on_c, 1, 74, 100
3, 93240, Note_on_c, 1, 74, 0
3, 93240, Note_on_c, 1, 72, 100
3, 93360, Note_on_c, 1, 72, 0
3, 93360, Note_on_c, 1, 69, 100
3, 93480, Note_on_c, 1, 69, 0
3, 93480, Note_on_c, 1, 71, 100
3, 93600, Note_on_c, 1, 71, 0
3, 93600, Note_on_c, 1, 66, 100
3, 93720, Note_on_c, 1, 66, 0
3, 93720, Note_on_c, 1, 69, 100
3, 93840, Note_on_c, 1, 69, 0
3, 93840, Note_on_c, 1, 74, 100
3, 93900, Note_on_c, 1, 74, 0
3, 93900, Note_on_c, 1, 72, 100
3, 93960, Note_on_c, 1, 72, 0
3, 93960, Note_on_c, 1, 71, 100
3, 94020, Note_on_c, 1, 71, 0
3, 94020, Note_on_c, 1, 69, 100
3, 94080, Note_on_c, 1, 69, 0
3, 94080, Note_on_c, 1, 67, 100
3, 94200, Note_on_c, 1, 67, 0
3, 94200, Note_on_c, 1, 71, 100
3, 94320, Note_on_c, 1, 71, 0
3, 94320, Note_on_c, 1, 74, 100
3, 94440, Note_on_c, 1, 74, 0
3, 94440, Note_on_c, 1, 79, 100
3, 94560, Note_on_c, 1, 79, 0
3, 94560, Note_on_c, 1, 74, 100
3, 94680, Note_on_c, 1, 74, 0
3, 94680, Note_on_c, 1, 71, 100
3, 94800, Note_on_c, 1, 71, 0
3, 94800, Note_on_c, 1, 67, 100
3, 94920, Note_on_c, 1, 67, 0
3, 94920, Note_on_c, 1, 74, 100
3, 95040, Note_on_c, 1, 74, 0
3, 95040, Note_on_c, 1, 62, 100
3, 95160, Note_on_c, 1, 62, 0
3, 95160, Note_on_c, 1, 67, 100
3, 95280, Note_on_c, 1, 67, 0
3, 95280, Note_on_c, 1, 71, 100
3, 95400, Note_on_c, 1, 71, 0
3, 95400, Note_on_c, 1, 61, 100
3, 95520, Note_on_c, 1, 61, 0
3, 95520, Note_on_c, 1, 64, 100
3, 95640, Note_on_c, 1, 64, 0
3, 95640, Note_on_c, 1, 67, 100
3, 95760, Note_on_c, 1, 67, 0
3, 95760, Note_on_c, 1, 73, 100
3, 95880, Note_on_c, 1, 73, 0
3, 96000, Note_on_c, 1, 74, 100
3, 96120, Note_on_c, 1, 74, 0
3, 96120, Note_on_c, 1, 69, 100
3, 96240, Note_on_c, 1, 69, 0
3, 96240, Note_on_c, 1, 66, 100
3, 96360, Note_on_c, 1, 66, 0
3, 96360, Note_on_c, 1, 62, 100
3, 96480, Note_on_c, 1, 62, 0
3, 96480, Note_on_c, 1, 67, 100
3, 96600, Note_on_c, 1, 67, 0
3, 96600, Note_on_c, 1, 71, 100
3, 96720, Note_on_c, 1, 71, 0
3, 96720, Note_on_c, 1, 74, 100
3, 96840, Note_on_c, 1, 74, 0
3, 96840, Note_on_c, 1, 67, 100
3, 96960, Note_on_c, 1, 67, 0
3, 96960, Note_on_c, 1, 74, 100
3, 97080, Note_on_c, 1, 74, 0
3, 97080, Note_on_c, 1, 72, 100
3, 97200, Note_on_c, 1, 72, 0
3, 97200, Note_on_c, 1, 69, 100
3, 97320, Note_on_c, 1, 69, 0
3, 97320, Note_on_c, 1, 71, 100
3, 97440, Note_on_c, 1, 71, 0
3, 97440, Note_on_c, 1, 66, 100
3, 97560, Note_on_c, 1, 66, 0
3, 97560, Note_on_c, 1, 69, 100
3, 97680, Note_on_c, 1, 69, 0
3, 97680, Note_on_c, 1, 74, 100
3, 97740, Note_on_c, 1, 74, 0
3, 97740, Note_on_c, 1, 72, 100
3, 97800, Note_on_c, 1, 72, 0
3, 97800, Note_on_c, 1, 71, 100
3, 97860, Note_on_c, 1, 71, 0
3, 97860, Note_on_c, 1, 69, 100
3, 97920, Note_on_c, 1, 69, 0
3, 97920, Note_on_c, 1, 67, 100
3, 98040, Note_on_c, 1, 67, 0
3, 98040, Note_on_c, 1, 71, 100
3, 98160, Note_on_c, 1, 71, 0
3, 98160, Note_on_c, 1, 74, 100
3, 98280, Note_on_c, 1, 74, 0
3, 98280, Note_on_c, 1, 79, 100
3, 98400, Note_on_c, 1, 79, 0
3, 98400, Note_on_c, 1, 74, 100
3, 98520, Note_on_c, 1, 74, 0
3, 98520, Note_on_c, 1, 71, 100
3, 98640, Note_on_c, 1, 71, 0
3, 98640, Note_on_c, 1, 67, 100
3, 98760, Note_on_c, 1, 67, 0
3, 98760, Note_on_c, 1, 74, 100
3, 98880, Note_on_c, 1, 74, 0
3, 98880, Note_on_c, 1, 62, 100
3, 99000, Note_on_c, 1, 62, 0
3, 99000, Note_on_c, 1, 67, 100
3, 99120, Note_on_c, 1, 67, 0
3, 99120, Note_on_c, 1, 71, 100
3, 99240, Note_on_c, 1, 71, 0
3, 99240, Note_on_c, 1, 61, 100
3, 99360, Note_on_c, 1, 61, 0
3, 99360, Note_on_c, 1, 64, 100
3, 99480, Note_on_c, 1, 64, 0
3, 99480, Note_on_c, 1, 67, 100
3, 99600, Note_on_c, 1, 67, 0
3, 99600, Note_on_c, 1, 73, 100
3, 99720, Note_on_c, 1, 73, 0
3, 99840, Note_on_c, 1, 74, 100
3, 99960, Note_on_c, 1, 74, 0
3, 99960, Note_on_c, 1, 69, 100
3, 100080, Note_on_c, 1, 69, 0
3, 100080, Note_on_c, 1, 66, 100
3, 100200, Note_on_c, 1, 66, 0
3, 100200, Note_on_c, 1, 62, 100
3, 100320, Note_on_c, 1, 62, 0
3, 100320, Note_on_c, 1, 67, 100
3, 100440, Note_on_c, 1, 67, 0
3, 100440, Note_on_c, 1, 71, 100
3, 100560, Note_on_c, 1, 71, 0
3, 100560, Note_on_c, 1, 74, 100
3, 100680, Note_on_c, 1, 74, 0
3, 100680, Note_on_c, 1, 67, 100
3, 100800, Note_on_c, 1, 67, 0
3, 100800, Note_on_c, 1, 74, 100
3, 100920, Note_on_c, 1, 74, 0
3, 100920, Note_on_c, 1, 72, 100
3, 101040, Note_on_c, 1, 72, 0
3, 101040, Note_on_c, 1, 69, 100
3, 101160, Note_on_c, 1, 69, 0
3, 101160, Note_on_c, 1, 71, 100
3, 101280, Note_on_c, 1, 71, 0
3, 101280, Note_on_c, 1, 66, 100
3, 101400, Note_on_c, 1, 66, 0
3, 101400, Note_on_c, 1, 69, 100
3, 101520, Note_on_c, 1, 69, 0
3, 101520, Note_on_c, 1, 74, 100
3, 101580, Note_on_c, 1, 74, 0
3, 101580, Note_on_c, 1, 72, 100
3, 101640, Note_on_c, 1, 72, 0
3, 101640, Note_on_c, 1, 71, 100
3, 101700, Note_on_c, 1, 71, 0
3, 101700, Note_on_c, 1, 69, 100
3, 101760, Note_on_c, 1, 69, 0
3, 101760, Note_on_c, 1, 67, 100
3, 102720, Note_on_c, 1, 67, 0
3, 103440, Note_on_c, 1, 71, 100
3, 103920, Note_on_c, 1, 71, 0
3, 103920, Note_on_c, 1, 69, 100
3, 104400, Note_on_c, 1, 69, 0
3, 104400, Note_on_c, 1, 67, 100
3, 104760, Note_on_c, 1, 67, 0
3, 104760, Note_on_c, 1, 66, 100
3, 104880, Note_on_c, 1, 66, 0
3, 104880, Note_on_c, 1, 67, 100
3, 105000, Note_on_c, 1, 67, 0
3, 105000, Note_on_c, 1, 69, 100
3, 105120, Note_on_c, 1, 69, 0
3, 105120, Note_on_c, 1, 71, 100
3, 105240, Note_on_c, 1, 71, 0
3, 105240, Note_on_c, 1, 74, 100
3, 105360, Note_on_c, 1, 74, 0
3, 105360, Note_on_c, 1, 72, 100
3, 105480, Note_on_c, 1, 72, 0
3, 105480, Note_on_c, 1, 71, 100
3, 105600, Note_on_c, 1, 71, 0
3, 105600, Note_on_c, 1, 69, 100
3, 105720, Note_on_c, 1, 69, 0
3, 105720, Note_on_c, 1, 67, 100
3, 105840, Note_on_c, 1, 67, 0
3, 105840, Note_on_c, 1, 66, 100
3, 105960, Note_on_c, 1, 66, 0
3, 105960, Note_on_c, 1, 64, 100
3, 106080, Note_on_c, 1, 64, 0
3, 106080, Note_on_c, 1, 62, 100
3, 106200, Note_on_c, 1, 62, 0
3, 106200, Note_on_c, 1, 60, 100
3, 106320, Note_on_c, 1, 60, 0
3, 106320, Note_on_c, 1, 59, 100
3, 106440, Note_on_c, 1, 59, 0
3, 106440, Note_on_c, 1, 57, 100
3, 106560, Note_on_c, 1, 57, 0
3, 106560, Note_on_c, 1, 55, 100
3, 106680, Note_on_c, 1, 55, 0
3, 106680, Note_on_c, 1, 57, 100
3, 106800, Note_on_c, 1, 57, 0
3, 106800, Note_on_c, 1, 59, 100
3, 107040, Note_on_c, 1, 59, 0
3, 107280, Note_on_c, 1, 71, 100
3, 107760, Note_on_c, 1, 71, 0
3, 107760, Note_on_c, 1, 69, 100
3, 108240, Note_on_c, 1, 69, 0
3, 108240, Note_on_c, 1, 67, 100
3, 108600, Note_on_c, 1, 67, 0
3, 108600, Note_on_c, 1, 66, 100
3, 108720, Note_on_c, 1, 66, 0
3, 108720, Note_on_c, 1, 67, 100
3, 108840, Note_on_c, 1, 67, 0
3, 108840, Note_on_c, 1, 69, 100
3, 108960, Note_on_c, 1, 69, 0
3, 108960, Note_on_c, 1, 71, 100
3, 109080, Note_on_c, 1, 71, 0
3, 109080, Note_on_c, 1, 74, 100
3, 109200, Note_on_c, 1, 74, 0
3, 109200, Note_on_c, 1, 72, 100
3, 109320, Note_on_c, 1, 72, 0
3, 109320, Note_on_c, 1, 71, 100
3, 109440, Note_on_c, 1, 71, 0
3, 109440, Note_on_c, 1, 69, 100
3, 109560, Note_on_c, 1, 69, 0
3, 109560, Note_on_c, 1, 67, 100
3, 109680, Note_on_c, 1, 67, 0
3, 109680, Note_on_c, 1, 66, 100
3, 109800, Note_on_c, 1, 66, 0
3, 109800, Note_on_c, 1, 64, 100
3, 109920, Note_on_c, 1, 64, 0
3, 109920, Note_on_c, 1, 62, 100
3, 110040, Note_on_c, 1, 62, 0
3, 110040, Note_on_c, 1, 60, 100
3, 110160, Note_on_c, 1, 60, 0
3, 110160, Note_on_c, 1, 59, 100
3, 110280, Note_on_c, 1, 59, 0
3, 110280, Note_on_c, 1, 57, 100
3, 110400, Note_on_c, 1, 57, 0
3, 110400, Note_on_c, 1, 55, 100
3, 110520, Note_on_c, 1, 55, 0
3, 110520, Note_on_c, 1, 57, 100
3, 110640, Note_on_c, 1, 57, 0
3, 110640, Note_on_c, 1, 59, 100
3, 110880, Note_on_c, 1, 59, 0
3, 111120, Note_on_c, 1, 71, 100
3, 111600, Note_on_c, 1, 71, 0
3, 111600, Note_on_c, 1, 69, 100
3, 112080, Note_on_c, 1, 69, 0
3, 112080, Note_on_c, 1, 67, 100
3, 112440, Note_on_c, 1, 67, 0
3, 112440, Note_on_c, 1, 66, 100
3, 112560, Note_on_c, 1, 66, 0
3, 112560, Note_on_c, 1, 67, 100
3, 112680, Note_on_c, 1, 67, 0
3, 112680, Note_on_c, 1, 69, 100
3, 112800, Note_on_c, 1, 69, 0
3, 112800, Note_on_c, 1, 71, 100
3, 112920, Note_on_c, 1, 71, 0
3, 112920, Note_on_c, 1, 74, 100
3, 113040, Note_on_c, 1, 74, 0
3, 113040, Note_on_c, 1, 72, 100
3, 113160, Note_on_c, 1, 72, 0
3, 113160, Note_on_c, 1, 71, 100
3, 113280, Note_on_c, 1, 71, 0
3, 113280, Note_on_c, 1, 69, 100
3, 113400, Note_on_c, 1, 69, 0
3, 113400, Note_on_c, 1, 67, 100
3, 113520, Note_on_c, 1, 67, 0
3, 113520, Note_on_c, 1, 66, 100
3, 113640, Note_on_c, 1, 66, 0
3, 113640, Note_on_c, 1, 64, 100
3, 113760, Note_on_c, 1, 64, 0
3, 113760, Note_on_c, 1, 62, 100
3, 113880, Note_on_c, 1, 62, 0
3, 113880, Note_on_c, 1, 60, 100
3, 114000, Note_on_c, 1, 60, 0
3, 114000, Note_on_c, 1, 59, 100
3, 114120, Note_on_c, 1, 59, 0
3, 114120, Note_on_c, 1, 57, 100
3, 114240, Note_on_c, 1, 57, 0
3, 114240, Note_on_c, 1, 55, 100
3, 115200, Note_on_c, 1, 55, 0
3, 115920, Note_on_c, 1, 71, 100
3, 116160, Note_on_c, 1, 71, 0
3, 116160, Note_on_c, 1, 70, 100
3, 116400, Note_on_c, 1, 70, 0
3, 116400, Note_on_c, 1, 69, 100
3, 116640, Note_on_c, 1, 69, 0
3, 116640, Note_on_c, 1, 68, 100
3, 116880, Note_on_c, 1, 68, 0
3, 116880, Note_on_c, 1, 67, 100
3, 117120, Note_on_c, 1, 67, 0
3, 117120, Note_on_c, 1, 66, 100
3, 117240, Note_on_c, 1, 66, 0
3, 117240, Note_on_c, 1, 67, 100
3, 117360, Note_on_c, 1, 67, 0
3, 117360, Note_on_c, 1, 66, 100
3, 117480, Note_on_c, 1, 66, 0
3, 117480, Note_on_c, 1, 64, 100
3, 117600, Note_on_c, 1, 64, 0
3, 117600, Note_on_c, 1, 62, 100
3, 117840, Note_on_c, 1, 62, 0
3, 118320, Note_on_c, 1, 67, 100
3, 118560, Note_on_c, 1, 67, 0
3, 118560, Note_on_c, 1, 74, 100
3, 118680, Note_on_c, 1, 74, 0
3, 118680, Note_on_c, 1, 72, 100
3, 118800, Note_on_c, 1, 72, 0
3, 118800, Note_on_c, 1, 71, 100
3, 118920, Note_on_c, 1, 71, 0
3, 118920, Note_on_c, 1, 69, 100
3, 119040, Note_on_c, 1, 69, 0
3, 119040, Note_on_c, 1, 67, 100
3, 119520, Note_on_c, 1, 67, 0
3, 119760, Note_on_c, 1, 71, 100
3, 120000, Note_on_c, 1, 71, 0
3, 120000, Note_on_c, 1, 70, 100
3, 120240, Note_on_c, 1, 70, 0
3, 120240, Note_on_c, 1, 69, 100
3, 120480, Note_on_c, 1, 69, 0
3, 120480, Note_on_c, 1, 68, 100
3, 120720, Note_on_c, 1, 68, 0
3, 120720, Note_on_c, 1, 67, 100
3, 120960, Note_on_c, 1, 67, 0
3, 120960, Note_on_c, 1, 66, 100
3, 121080, Note_on_c, 1, 66, 0
3, 121080, Note_on_c, 1, 67, 100
3, 121200, Note_on_c, 1, 67, 0
3, 121200, Note_on_c, 1, 66, 100
3, 121320, Note_on_c, 1, 66, 0
3, 121320, Note_on_c, 1, 64, 100
3, 121440, Note_on_c, 1, 64, 0
3, 121440, Note_on_c, 1, 62, 100
3, 121680, Note_on_c, 1, 62, 0
3, 122160, Note_on_c, 1, 67, 100
3, 122400, Note_on_c, 1, 67, 0
3, 122400, Note_on_c, 1, 74, 100
3, 122520, Note_on_c, 1, 74, 0
3, 122520, Note_on_c, 1, 72, 100
3, 122640, Note_on_c, 1, 72, 0
3, 122640, Note_on_c, 1, 71, 100
3, 122760, Note_on_c, 1, 71, 0
3, 122760, Note_on_c, 1, 69, 100
3, 122880, Note_on_c, 1, 69, 0
3, 122880, Note_on_c, 1, 67, 100
3, 123360, Note_on_c, 1, 67, 0
3, 123600, Note_on_c, 1, 71, 100
3, 123840, Note_on_c, 1, 71, 0
3, 123840, Note_on_c, 1, 70, 100
3, 124080, Note_on_c, 1, 70, 0
3, 124080, Note_on_c, 1, 69, 100
3, 124320, Note_on_c, 1, 69, 0
3, 124320, Note_on_c, 1, 68, 100
3, 124560, Note_on_c, 1, 68, 0
3, 124560, Note_on_c, 1, 67, 100
3, 124800, Note_on_c, 1, 67, 0
3, 124800, Note_on_c, 1, 66, 100
3, 124920, Note_on_c, 1, 66, 0
3, 124920, Note_on_c, 1, 67, 100
3, 125040, Note_on_c, 1, 67, 0
3, 125040, Note_on_c, 1, 66, 100
3, 125160, Note_on_c, 1, 66, 0
3, 125160, Note_on_c, 1, 64, 100
3, 125280, Note_on_c, 1, 64, 0
3, 125280, Note_on_c, 1, 62, 100
3, 125520, Note_on_c, 1, 62, 0
3, 126000, Note_on_c, 1, 67, 100
3, 126240, Note_on_c, 1, 67, 0
3, 126240, Note_on_c, 1, 74, 100
3, 126360, Note_on_c, 1, 74, 0
3, 126360, Note_on_c, 1, 72, 100
3, 126480, Note_on_c, 1, 72, 0
3, 126480, Note_on_c, 1, 71, 100
3, 126600, Note_on_c, 1, 71, 0
3, 126600, Note_on_c, 1, 69, 100
3, 126720, Note_on_c, 1, 69, 0
3, 126720, Note_on_c, 1, 67, 100
3, 127680, Note_on_c, 1, 67, 0
3, 127800, Note_on_c, 1, 79, 100
3, 127920, Note_on_c, 1, 79, 0
3, 127920, Note_on_c, 1, 78, 100
3, 128040, Note_on_c, 1, 78, 0
3, 128040, Note_on_c, 1, 76, 100
3, 128160, Note_on_c, 1, 76, 0
3, 128160, Note_on_c, 1, 74, 100
3, 128280, Note_on_c, 1, 74, 0
3, 128280, Note_on_c, 1, 71, 100
3, 128400, Note_on_c, 1, 71, 0
3, 128400, Note_on_c, 1, 72, 100
3, 128520, Note_on_c, 1, 72, 0
3, 128520, Note_on_c, 1, 74, 100
3, 128640, Note_on_c, 1, 74, 0
3, 128640, Note_on_c, 1, 67, 100
3, 128760, Note_on_c, 1, 67, 0
3, 128760, Note_on_c, 1, 62, 100
3, 128880, Note_on_c, 1, 62, 0
3, 128880, Note_on_c, 1, 59, 100
3, 129480, Note_on_c, 1, 59, 0
3, 129480, Note_on_c, 1, 61, 100
3, 129600, Note_on_c, 1, 61, 0
3, 129600, Note_on_c, 1, 62, 100
3, 129720, Note_on_c, 1, 62, 0
3, 129720, Note_on_c, 1, 64, 100
3, 129840, Note_on_c, 1, 64, 0
3, 129840, Note_on_c, 1, 66, 100
3, 129960, Note_on_c, 1, 66, 0
3, 129960, Note_on_c, 1, 67, 100
3, 130080, Note_on_c, 1, 67, 0
3, 130080, Note_on_c, 1, 69, 100
3, 130320, Note_on_c, 1, 69, 0
3, 130320, Note_on_c, 1, 62, 100
3, 130560, Note_on_c, 1, 62, 0
3, 130680, Note_on_c, 1, 66, 100
3, 130800, Note_on_c, 1, 66, 0
3, 130800, Note_on_c, 1, 64, 100
3, 130920, Note_on_c, 1, 64, 0
3, 130920, Note_on_c, 1, 62, 100
3, 131040, Note_on_c, 1, 62, 0
3, 131040, Note_on_c, 1, 64, 100
3, 131280, Note_on_c, 1, 64, 0
3, 131280, Note_on_c, 1, 73, 100
3, 131520, Note_on_c, 1, 73, 0
3, 131640, Note_on_c, 1, 79, 100
3, 131760, Note_on_c, 1, 79, 0
3, 131760, Note_on_c, 1, 78, 100
3, 131880, Note_on_c, 1, 78, 0
3, 131880, Note_on_c, 1, 76, 100
3, 132000, Note_on_c, 1, 76, 0
3, 132000, Note_on_c, 1, 74, 100
3, 132240, Note_on_c, 1, 74, 0
3, 132240, Note_on_c, 1, 62, 100
3, 132480, Note_on_c, 1, 62, 0
3, 132600, Note_on_c, 1, 71, 100
3, 132720, Note_on_c, 1, 71, 0
3, 132720, Note_on_c, 1, 72, 100
3, 132840, Note_on_c, 1, 72, 0
3, 132840, Note_on_c, 1, 74, 100
3, 132960, Note_on_c, 1, 74, 0
3, 132960, Note_on_c, 1, 65, 100
3, 133200, Note_on_c, 1, 65, 0
3, 133200, Note_on_c, 1, 77, 100
3, 133440, Note_on_c, 1, 77, 0
3, 133560, Note_on_c, 1, 76, 100
3, 133680, Note_on_c, 1, 76, 0
3, 133680, Note_on_c, 1, 74, 100
3, 133800, Note_on_c, 1, 74, 0
3, 133800, Note_on_c, 1, 72, 100
3, 133920, Note_on_c, 1, 72, 0
3, 133920, Note_on_c, 1, 72, 100
3, 134040, Note_on_c, 1, 72, 0
3, 134040, Note_on_c, 1, 81, 100
3, 134160, Note_on_c, 1, 81, 0
3, 134160, Note_on_c, 1, 72, 100
3, 134400, Note_on_c, 1, 72, 0
3, 134520, Note_on_c, 1, 69, 100
3, 134640, Note_on_c, 1, 69, 0
3, 134640, Note_on_c, 1, 72, 100
3, 134760, Note_on_c, 1, 72, 0
3, 134760, Note_on_c, 1, 78, 100
3, 134880, Note_on_c, 1, 78, 0
3, 134880, Note_on_c, 1, 79, 100
3, 135120, Note_on_c, 1, 79, 0
3, 135120, Note_on_c, 1, 81, 100
3, 135360, Note_on_c, 1, 81, 0
3, 135360, Note_on_c, 1, 83, 100
3, 135480, Note_on_c, 1, 83, 0
3, 135480, Note_on_c, 1, 79, 100
3, 135600, Note_on_c, 1, 79, 0
3, 135600, Note_on_c, 1, 78, 100
3, 135720, Note_on_c, 1, 78, 0
3, 135720, Note_on_c, 1, 76, 100
3, 135840, Note_on_c, 1, 76, 0
3, 135840, Note_on_c, 1, 74, 100
3, 135960, Note_on_c, 1, 74, 0
3, 135960, Note_on_c, 1, 71, 100
3, 136080, Note_on_c, 1, 71, 0
3, 136080, Note_on_c, 1, 72, 100
3, 136200, Note_on_c, 1, 72, 0
3, 136200, Note_on_c, 1, 74, 100
3, 136320, Note_on_c, 1, 74, 0
3, 136320, Note_on_c, 1, 67, 100
3, 136440, Note_on_c, 1, 67, 0
3, 136440, Note_on_c, 1, 62, 100
3, 136560, Note_on_c, 1, 62, 0
3, 136560, Note_on_c, 1, 59, 100
3, 137160, Note_on_c, 1, 59, 0
3, 137160, Note_on_c, 1, 61, 100
3, 137280, Note_on_c, 1, 61, 0
3, 137280, Note_on_c, 1, 62, 100
3, 137400, Note_on_c, 1, 62, 0
3, 137400, Note_on_c, 1, 64, 100
3, 137520, Note_on_c, 1, 64, 0
3, 137520, Note_on_c, 1, 66, 100
3, 137640, Note_on_c, 1, 66, 0
3, 137640, Note_on_c, 1, 67, 100
3, 137760, Note_on_c, 1, 67, 0
3, 137760, Note_on_c, 1, 69, 100
3, 138000, Note_on_c, 1, 69, 0
3, 138000, Note_on_c, 1, 62, 100
3, 138240, Note_on_c, 1, 62, 0
3, 138360, Note_on_c, 1, 66, 100
3, 138480, Note_on_c, 1, 66, 0
3, 138480, Note_on_c, 1, 64, 100
3, 138600, Note_on_c, 1, 64, 0
3, 138600, Note_on_c, 1, 62, 100
3, 138720, Note_on_c, 1, 62, 0
3, 138720, Note_on_c, 1, 64, 100
3, 138960, Note_on_c, 1, 64, 0
3, 138960, Note_on_c, 1, 73, 100
3, 139200, Note_on_c, 1, 73, 0
3, 139320, Note_on_c, 1, 79, 100
3, 139440, Note_on_c, 1, 79, 0
3, 139440, Note_on_c, 1, 78, 100
3, 139560, Note_on_c, 1, 78, 0
3, 139560, Note_on_c, 1, 76, 100
3, 139680, Note_on_c, 1, 76, 0
3, 139680, Note_on_c, 1, 74, 100
3, 139920, Note_on_c, 1, 74, 0
3, 139920, Note_on_c, 1, 62, 100
3, 140160, Note_on_c, 1, 62, 0
3, 140280, Note_on_c, 1, 71, 100
3, 140400, Note_on_c, 1, 71, 0
3, 140400, Note_on_c, 1, 72, 100
3, 140520, Note_on_c, 1, 72, 0
3, 140520, Note_on_c, 1, 74, 100
3, 140640, Note_on_c, 1, 74, 0
3, 140640, Note_on_c, 1, 65, 100
3, 140880, Note_on_c, 1, 65, 0
3, 140880, Note_on_c, 1, 77, 100
3, 141120, Note_on_c, 1, 77, 0
3, 141240, Note_on_c, 1, 76, 100
3, 141360, Note_on_c, 1, 76, 0
3, 141360, Note_on_c, 1, 74, 100
3, 141480, Note_on_c, 1, 74, 0
3, 141480, Note_on_c, 1, 72, 100
3, 141600, Note_on_c, 1, 72, 0
3, 141600, Note_on_c, 1, 72, 100
3, 141720, Note_on_c, 1, 72, 0
3, 141720, Note_on_c, 1, 81, 100
3, 141840, Note_on_c, 1, 81, 0
3, 141840, Note_on_c, 1, 72, 100
3, 142080, Note_on_c, 1, 72, 0
3, 142200, Note_on_c, 1, 69, 100
3, 142320, Note_on_c, 1, 69, 0
3, 142320, Note_on_c, 1, 72, 100
3, 142440, Note_on_c, 1, 72, 0
3, 142440, Note_on_c, 1, 78, 100
3, 142560, Note_on_c, 1, 78, 0
3, 142560, Note_on_c, 1, 79, 100
3, 142800, Note_on_c, 1, 79, 0
3, 142800, Note_on_c, 1, 81, 100
3, 143040, Note_on_c, 1, 81, 0
3, 143040, Note_on_c, 1, 83, 100
3, 143160, Note_on_c, 1, 83, 0
3, 143160, Note_on_c, 1, 79, 100
3, 143280, Note_on_c, 1, 79, 0
3, 143280, Note_on_c, 1, 78, 100
3, 143400, Note_on_c, 1, 78, 0
3, 143400, Note_on_c, 1, 76, 100
3, 143520, Note_on_c, 1, 76, 0
3, 143520, Note_on_c, 1, 74, 100
3, 143640, Note_on_c, 1, 74, 0
3, 143640, Note_on_c, 1, 71, 100
3, 143760, Note_on_c, 1, 71, 0
3, 143760, Note_on_c, 1, 72, 100
3, 143880, Note_on_c, 1, 72, 0
3, 143880, Note_on_c, 1, 74, 100
3, 144000, Note_on_c, 1, 74, 0
3, 144000, Note_on_c, 1, 67, 100
3, 144120, Note_on_c, 1, 67, 0
3, 144120, Note_on_c, 1, 62, 100
3, 144240, Note_on_c, 1, 62, 0
3, 144240, Note_on_c, 1, 59, 100
3, 144840, Note_on_c, 1, 59, 0
3, 144840, Note_on_c, 1, 61, 100
3, 144960, Note_on_c, 1, 61, 0
3, 144960, Note_on_c, 1, 62, 100
3, 145080, Note_on_c, 1, 62, 0
3, 145080, Note_on_c, 1, 64, 100
3, 145200, Note_on_c, 1, 64, 0
3, 145200, Note_on_c, 1, 66, 100
3, 145320, Note_on_c, 1, 66, 0
3, 145320, Note_on_c, 1, 67, 100
3, 145440, Note_on_c, 1, 67, 0
3, 145440, Note_on_c, 1, 69, 100
3, 145680, Note_on_c, 1, 69, 0
3, 145680, Note_on_c, 1, 62, 100
3, 145920, Note_on_c, 1, 62, 0
3, 146040, Note_on_c, 1, 66, 100
3, 146160, Note_on_c, 1, 66, 0
3, 146160, Note_on_c, 1, 64, 100
3, 146280, Note_on_c, 1, 64, 0
3, 146280, Note_on_c, 1, 62, 100
3, 146400, Note_on_c, 1, 62, 0
3, 146400, Note_on_c, 1, 64, 100
3, 146640, Note_on_c, 1, 64, 0
3, 146640, Note_on_c, 1, 73, 100
3, 146880, Note_on_c, 1, 73, 0
3, 147000, Note_on_c, 1, 79, 100
3, 147120, Note_on_c, 1, 79, 0
3, 147120, Note_on_c, 1, 78, 100
3, 147240, Note_on_c, 1, 78, 0
3, 147240, Note_on_c, 1, 76, 100
3, 147360, Note_on_c, 1, 76, 0
3, 147360, Note_on_c, 1, 74, 100
3, 148800, Note_on_c, 1, 74, 0
3, 149280, Note_on_c, 1, 62, 100
3, 150240, Note_on_c, 1, 62, 0
3, 150240, Note_on_c, 1, 64, 100
3, 150720, Note_on_c, 1, 64, 0
3, 150720, Note_on_c, 1, 66, 100
3, 151200, Note_on_c, 1, 66, 0
3, 151200, Note_on_c, 1, 67, 100
3, 151680, Note_on_c, 1, 67, 0
3, 151920, Note_on_c, 1, 64, 100
3, 152160, Note_on_c, 1, 64, 0
3, 152160, Note_on_c, 1, 62, 100
3, 152400, Note_on_c, 1, 62, 0
3, 152400, Note_on_c, 1, 60, 100
3, 152640, Note_on_c, 1, 60, 0
3, 152640, Note_on_c, 1, 59, 100
3, 152880, Note_on_c, 1, 59, 0
3, 152880, Note_on_c, 1, 60, 100
3, 153120, Note_on_c, 1, 60, 0
3, 153120, Note_on_c, 1, 62, 100
3, 154080, Note_on_c, 1, 62, 0
3, 154080, Note_on_c, 1, 64, 100
3, 154560, Note_on_c, 1, 64, 0
3, 154560, Note_on_c, 1, 66, 100
3, 155040, Note_on_c, 1, 66, 0
3, 155040, Note_on_c, 1, 67, 100
3, 155520, Note_on_c, 1, 67, 0
3, 155760, Note_on_c, 1, 64, 100
3, 156000, Note_on_c, 1, 64, 0
3, 156000, Note_on_c, 1, 62, 100
3, 156240, Note_on_c, 1, 62, 0
3, 156240, Note_on_c, 1, 60, 100
3, 156480, Note_on_c, 1, 60, 0
3, 156480, Note_on_c, 1, 59, 100
3, 156720, Note_on_c, 1, 59, 0
3, 156720, Note_on_c, 1, 60, 100
3, 156960, Note_on_c, 1, 60, 0
3, 156960, Note_on_c, 1, 62, 100
3, 157920, Note_on_c, 1, 62, 0
3, 157920, Note_on_c, 1, 64, 100
3, 158400, Note_on_c, 1, 64, 0
3, 158400, Note_on_c, 1, 66, 100
3, 158880, Note_on_c, 1, 66, 0
3, 158880, Note_on_c, 1, 67, 100
3, 159360, Note_on_c, 1, 67, 0
3, 159600, Note_on_c, 1, 64, 100
3, 159840, Note_on_c, 1, 64, 0
3, 159840, Note_on_c, 1, 62, 100
3, 160080, Note_on_c, 1, 62, 0
3, 160080, Note_on_c, 1, 60, 100
3, 160320, Note_on_c, 1, 60, 0
3, 160320, Note_on_c, 1, 59, 100
3, 162240, Note_on_c, 1, 59, 0
3, 163440, Note_on_c, 1, 67, 100
3, 163680, Note_on_c, 1, 67, 0
3, 163680, Note_on_c, 1, 66, 100
3, 163920, Note_on_c, 1, 66, 0
3, 163920, Note_on_c, 1, 64, 100
3, 164160, Note_on_c, 1, 64, 0
3, 164160, Note_on_c, 1, 62, 100
3, 164400, Note_on_c, 1, 62, 0
3, 164400, Note_on_c, 1, 59, 100
3, 164640, Note_on_c, 1, 59, 0
3, 164640, Note_on_c, 1, 61, 100
3, 164880, Note_on_c, 1, 61, 0
3, 164880, Note_on_c, 1, 62, 100
3, 165120, Note_on_c, 1, 62, 0
3, 165120, Note_on_c, 1, 55, 100
3, 165600, Note_on_c, 1, 55, 0
3, 165600, Note_on_c, 1, 67, 100
3, 166080, Note_on_c, 1, 67, 0
3, 166320, Note_on_c, 1, 72, 100
3, 166560, Note_on_c, 1, 72, 0
3, 166560, Note_on_c, 1, 71, 100
3, 166800, Note_on_c, 1, 71, 0
3, 166800, Note_on_c, 1, 69, 100
3, 167040, Note_on_c, 1, 69, 0
3, 167040, Note_on_c, 1, 67, 100
3, 167280, Note_on_c, 1, 67, 0
3, 167280, Note_on_c, 1, 64, 100
3, 167520, Note_on_c, 1, 64, 0
3, 167520, Note_on_c, 1, 66, 100
3, 167760, Note_on_c, 1, 66, 0
3, 167760, Note_on_c, 1, 67, 100
3, 168000, Note_on_c, 1, 67, 0
3, 168000, Note_on_c, 1, 60, 100
3, 168240, Note_on_c, 1, 60, 0
3, 168240, Note_on_c, 1, 62, 100
3, 168480, Note_on_c, 1, 62, 0
3, 168480, Note_on_c, 1, 64, 100
3, 168720, Note_on_c, 1, 64, 0
3, 168720, Note_on_c, 1, 55, 100
3, 168960, Note_on_c, 1, 55, 0
3, 169200, Note_on_c, 1, 54, 100
3, 169320, Note_on_c, 1, 54, 0
3, 169320, Note_on_c, 1, 52, 100
3, 169440, Note_on_c, 1, 52, 0
3, 169440, Note_on_c, 1, 50, 100
3, 169680, Note_on_c, 1, 50, 0
3, 169680, Note_on_c, 1, 62, 100
3, 170160, Note_on_c, 1, 62, 0
3, 170160, Note_on_c, 1, 60, 100
3, 170280, Note_on_c, 1, 60, 0
3, 170280, Note_on_c, 1, 59, 100
3, 170400, Note_on_c, 1, 59, 0
3, 170400, Note_on_c, 1, 66, 100
3, 170640, Note_on_c, 1, 66, 0
3, 170640, Note_on_c, 1, 64, 100
3, 170760, Note_on_c, 1, 64, 0
3, 170760, Note_on_c, 1, 62, 100
3, 170880, Note_on_c, 1, 62, 0
3, 170880, Note_on_c, 1, 64, 100
3, 171120, Note_on_c, 1, 64, 0
3, 171120, Note_on_c, 1, 67, 100
3, 171360, Note_on_c, 1, 67, 0
3, 171360, Note_on_c, 1, 66, 100
3, 171600, Note_on_c, 1, 66, 0
3, 171600, Note_on_c, 1, 64, 100
3, 171840, Note_on_c, 1, 64, 0
3, 171840, Note_on_c, 1, 62, 100
3, 172080, Note_on_c, 1, 62, 0
3, 172080, Note_on_c, 1, 59, 100
3, 172320, Note_on_c, 1, 59, 0
3, 172320, Note_on_c, 1, 61, 100
3, 172560, Note_on_c, 1, 61, 0
3, 172560, Note_on_c, 1, 62, 100
3, 172800, Note_on_c, 1, 62, 0
3, 172800, Note_on_c, 1, 55, 100
3, 173280, Note_on_c, 1, 55, 0
3, 173280, Note_on_c, 1, 67, 100
3, 173760, Note_on_c, 1, 67, 0
3, 174000, Note_on_c, 1, 72, 100
3, 174240, Note_on_c, 1, 72, 0
3, 174240, Note_on_c, 1, 71, 100
3, 174480, Note_on_c, 1, 71, 0
3, 174480, Note_on_c, 1, 69, 100
3, 174720, Note_on_c, 1, 69, 0
3, 174720, Note_on_c, 1, 67, 100
3, 174960, Note_on_c, 1, 67, 0
3, 174960, Note_on_c, 1, 64, 100
3, 175200, Note_on_c, 1, 64, 0
3, 175200, Note_on_c, 1, 66, 100
3, 175440, Note_on_c, 1, 66, 0
3, 175440, Note_on_c, 1, 67, 100
3, 175680, Note_on_c, 1, 67, 0
3, 175680, Note_on_c, 1, 60, 100
3, 175920, Note_on_c, 1, 60, 0
3, 175920, Note_on_c, 1, 62, 100
3, 176160, Note_on_c, 1, 62, 0
3, 176160, Note_on_c, 1, 64, 100
3, 176400, Note_on_c, 1, 64, 0
3, 176400, Note_on_c, 1, 55, 100
3, 176640, Note_on_c, 1, 55, 0
3, 176880, Note_on_c, 1, 54, 100
3, 177000, Note_on_c, 1, 54, 0
3, 177000, Note_on_c, 1, 52, 100
3, 177120, Note_on_c, 1, 52, 0
3, 177120, Note_on_c, 1, 50, 100
3, 177360, Note_on_c, 1, 50, 0
3, 177360, Note_on_c, 1, 62, 100
3, 177840, Note_on_c, 1, 62, 0
3, 177840, Note_on_c, 1, 60, 100
3, 177960, Note_on_c, 1, 60, 0
3, 177960, Note_on_c, 1, 59, 100
3, 178080, Note_on_c, 1, 59, 0
3, 178080, Note_on_c, 1, 66, 100
3, 178320, Note_on_c, 1, 66, 0
3, 178320, Note_on_c, 1, 64, 100
3, 178440, Note_on_c, 1, 64, 0
3, 178440, Note_on_c, 1, 62, 100
3, 178560, Note_on_c, 1, 62, 0
3, 178560, Note_on_c, 1, 64, 100
3, 178800, Note_on_c, 1, 64, 0
3, 178800, Note_on_c, 1, 67, 100
3, 179040, Note_on_c, 1, 67, 0
3, 179040, Note_on_c, 1, 66, 100
3, 179280, Note_on_c, 1, 66, 0
3, 179280, Note_on_c, 1, 64, 100
3, 179520, Note_on_c, 1, 64, 0
3, 179520, Note_on_c, 1, 62, 100
3, 179760, Note_on_c, 1, 62, 0
3, 179760, Note_on_c, 1, 59, 100
3, 180000, Note_on_c, 1, 59, 0
3, 180000, Note_on_c, 1, 61, 100
3, 180240, Note_on_c, 1, 61, 0
3, 180240, Note_on_c, 1, 62, 100
3, 180480, Note_on_c, 1, 62, 0
3, 180480, Note_on_c, 1, 55, 100
3, 180960, Note_on_c, 1, 55, 0
3, 180960, Note_on_c, 1, 67, 100
3, 181440, Note_on_c, 1, 67, 0
3, 181680, Note_on_c, 1, 72, 100
3, 181920, Note_on_c, 1, 72, 0
3, 181920, Note_on_c, 1, 71, 100
3, 182160, Note_on_c, 1, 71, 0
3, 182160, Note_on_c, 1, 69, 100
3, 182400, Note_on_c, 1, 69, 0
3, 182400, Note_on_c, 1, 67, 100
3, 182640, Note_on_c, 1, 67, 0
3, 182640, Note_on_c, 1, 64, 100
3, 182880, Note_on_c, 1, 64, 0
3, 182880, Note_on_c, 1, 66, 100
3, 183120, Note_on_c, 1, 66, 0
3, 183120, Note_on_c, 1, 67, 100
3, 183360, Note_on_c, 1, 67, 0
3, 183360, Note_on_c, 1, 60, 100
3, 183600, Note_on_c, 1, 60, 0
3, 183600, Note_on_c, 1, 62, 100
3, 183840, Note_on_c, 1, 62, 0
3, 183840, Note_on_c, 1, 64, 100
3, 184080, Note_on_c, 1, 64, 0
3, 184080, Note_on_c, 1, 55, 100
3, 184320, Note_on_c, 1, 55, 0
3, 184560, Note_on_c, 1, 54, 100
3, 184680, Note_on_c, 1, 54, 0
3, 184680, Note_on_c, 1, 52, 100
3, 184800, Note_on_c, 1, 52, 0
3, 184800, Note_on_c, 1, 50, 100
3, 185040, Note_on_c, 1, 50, 0
3, 185040, Note_on_c, 1, 62, 100
3, 187200, Note_on_c, 1, 62, 0
3, 187200, End_track
4, 0, Start_track
4, 0, MIDI_port, 0
4, 0, Title_t, "--------------------------------------"
4, 0, Program_c, 2, 6
4, 0, Control_c, 2, 7, 100
4, 0, Control_c, 2, 10, 59
4, 480, Note_on_c, 2, 43, 100
4, 960, Note_on_c, 2, 43, 0
4, 960, Note_on_c, 2, 50, 100
4, 1440, Note_on_c, 2, 50, 0
4, 1440, Note_on_c, 2, 48, 100
4, 1920, Note_on_c, 2, 48, 0
4, 1920, Note_on_c, 2, 47, 100
4, 2400, Note_on_c, 2, 47, 0
4, 2400, Note_on_c, 2, 50, 100
4, 2880, Note_on_c, 2, 50, 0
4, 2880, Note_on_c, 2, 52, 100
4, 3360, Note_on_c, 2, 52, 0
4, 3360, Note_on_c, 2, 54, 100
4, 3840, Note_on_c, 2, 54, 0
4, 3840, Note_on_c, 2, 55, 100
4, 4320, Note_on_c, 2, 55, 0
4, 4320, Note_on_c, 2, 43, 100
4, 4800, Note_on_c, 2, 43, 0
4, 4800, Note_on_c, 2, 50, 100
4, 5280, Note_on_c, 2, 50, 0
4, 5280, Note_on_c, 2, 48, 100
4, 5760, Note_on_c, 2, 48, 0
4, 5760, Note_on_c, 2, 47, 100
4, 6240, Note_on_c, 2, 47, 0
4, 6240, Note_on_c, 2, 50, 100
4, 6720, Note_on_c, 2, 50, 0
4, 6720, Note_on_c, 2, 52, 100
4, 7200, Note_on_c, 2, 52, 0
4, 7200, Note_on_c, 2, 54, 100
4, 7680, Note_on_c, 2, 54, 0
4, 7680, Note_on_c, 2, 55, 100
4, 8640, Note_on_c, 2, 55, 0
4, 9120, Note_on_c, 2, 62, 100
4, 9600, Note_on_c, 2, 62, 0
4, 9600, Note_on_c, 2, 55, 100
4, 10080, Note_on_c, 2, 55, 0
4, 10080, Note_on_c, 2, 57, 100
4, 10560, Note_on_c, 2, 57, 0
4, 10560, Note_on_c, 2, 59, 100
4, 11040, Note_on_c, 2, 59, 0
4, 11040, Note_on_c, 2, 55, 100
4, 11520, Note_on_c, 2, 55, 0
4, 11520, Note_on_c, 2, 54, 100
4, 12000, Note_on_c, 2, 54, 0
4, 12000, Note_on_c, 2, 52, 100
4, 12480, Note_on_c, 2, 52, 0
4, 12480, Note_on_c, 2, 50, 100
4, 12960, Note_on_c, 2, 50, 0
4, 12960, Note_on_c, 2, 62, 100
4, 13440, Note_on_c, 2, 62, 0
4, 13440, Note_on_c, 2, 55, 100
4, 13920, Note_on_c, 2, 55, 0
4, 13920, Note_on_c, 2, 57, 100
4, 14400, Note_on_c, 2, 57, 0
4, 14400, Note_on_c, 2, 59, 100
4, 14880, Note_on_c, 2, 59, 0
4, 14880, Note_on_c, 2, 55, 100
4, 15360, Note_on_c, 2, 55, 0
4, 15360, Note_on_c, 2, 54, 100
4, 15840, Note_on_c, 2, 54, 0
4, 15840, Note_on_c, 2, 52, 100
4, 16320, Note_on_c, 2, 52, 0
4, 16320, Note_on_c, 2, 50, 100
4, 17280, Note_on_c, 2, 50, 0
4, 17760, Note_on_c, 2, 55, 100
4, 18240, Note_on_c, 2, 55, 0
4, 18240, Note_on_c, 2, 54, 100
4, 18720, Note_on_c, 2, 54, 0
4, 18720, Note_on_c, 2, 52, 100
4, 19200, Note_on_c, 2, 52, 0
4, 19200, Note_on_c, 2, 50, 100
4, 19680, Note_on_c, 2, 50, 0
4, 19680, Note_on_c, 2, 47, 100
4, 20160, Note_on_c, 2, 47, 0
4, 20160, Note_on_c, 2, 48, 100
4, 20640, Note_on_c, 2, 48, 0
4, 20640, Note_on_c, 2, 50, 100
4, 21120, Note_on_c, 2, 50, 0
4, 21120, Note_on_c, 2, 43, 100
4, 21600, Note_on_c, 2, 43, 0
4, 21600, Note_on_c, 2, 55, 100
4, 22080, Note_on_c, 2, 55, 0
4, 22080, Note_on_c, 2, 54, 100
4, 22560, Note_on_c, 2, 54, 0
4, 22560, Note_on_c, 2, 52, 100
4, 23040, Note_on_c, 2, 52, 0
4, 23040, Note_on_c, 2, 50, 100
4, 23520, Note_on_c, 2, 50, 0
4, 23520, Note_on_c, 2, 47, 100
4, 24000, Note_on_c, 2, 47, 0
4, 24000, Note_on_c, 2, 48, 100
4, 24480, Note_on_c, 2, 48, 0
4, 24480, Note_on_c, 2, 50, 100
4, 24960, Note_on_c, 2, 50, 0
4, 24960, Note_on_c, 2, 43, 100
4, 25440, Note_on_c, 2, 43, 0
4, 25440, Note_on_c, 2, 55, 100
4, 25920, Note_on_c, 2, 55, 0
4, 25920, Note_on_c, 2, 54, 100
4, 26400, Note_on_c, 2, 54, 0
4, 26400, Note_on_c, 2, 52, 100
4, 26880, Note_on_c, 2, 52, 0
4, 26880, Note_on_c, 2, 50, 100
4, 27360, Note_on_c, 2, 50, 0
4, 27360, Note_on_c, 2, 47, 100
4, 27840, Note_on_c, 2, 47, 0
4, 27840, Note_on_c, 2, 48, 100
4, 28320, Note_on_c, 2, 48, 0
4, 28320, Note_on_c, 2, 50, 100
4, 28800, Note_on_c, 2, 50, 0
4, 28800, Note_on_c, 2, 43, 100
4, 29760, Note_on_c, 2, 43, 0
4, 30240, Note_on_c, 2, 50, 100
4, 30720, Note_on_c, 2, 50, 0
4, 30720, Note_on_c, 2, 52, 100
4, 31200, Note_on_c, 2, 52, 0
4, 31200, Note_on_c, 2, 54, 100
4, 31680, Note_on_c, 2, 54, 0
4, 31680, Note_on_c, 2, 55, 100
4, 32160, Note_on_c, 2, 55, 0
4, 32160, Note_on_c, 2, 59, 100
4, 32640, Note_on_c, 2, 59, 0
4, 32640, Note_on_c, 2, 57, 100
4, 33120, Note_on_c, 2, 57, 0
4, 33120, Note_on_c, 2, 55, 100
4, 33600, Note_on_c, 2, 55, 0
4, 33600, Note_on_c, 2, 62, 100
4, 34080, Note_on_c, 2, 62, 0
4, 34080, Note_on_c, 2, 50, 100
4, 34560, Note_on_c, 2, 50, 0
4, 34560, Note_on_c, 2, 52, 100
4, 35040, Note_on_c, 2, 52, 0
4, 35040, Note_on_c, 2, 54, 100
4, 35520, Note_on_c, 2, 54, 0
4, 35520, Note_on_c, 2, 55, 100
4, 36000, Note_on_c, 2, 55, 0
4, 36000, Note_on_c, 2, 59, 100
4, 36480, Note_on_c, 2, 59, 0
4, 36480, Note_on_c, 2, 57, 100
4, 36960, Note_on_c, 2, 57, 0
4, 36960, Note_on_c, 2, 55, 100
4, 37440, Note_on_c, 2, 55, 0
4, 37440, Note_on_c, 2, 62, 100
4, 37920, Note_on_c, 2, 62, 0
4, 37920, Note_on_c, 2, 50, 100
4, 38400, Note_on_c, 2, 50, 0
4, 38400, Note_on_c, 2, 52, 100
4, 38880, Note_on_c, 2, 52, 0
4, 38880, Note_on_c, 2, 54, 100
4, 39360, Note_on_c, 2, 54, 0
4, 39360, Note_on_c, 2, 55, 100
4, 40320, Note_on_c, 2, 55, 0
4, 42720, Note_on_c, 2, 50, 100
4, 43200, Note_on_c, 2, 50, 0
4, 43200, Note_on_c, 2, 52, 100
4, 43680, Note_on_c, 2, 52, 0
4, 43680, Note_on_c, 2, 54, 100
4, 44160, Note_on_c, 2, 54, 0
4, 44160, Note_on_c, 2, 55, 100
4, 44640, Note_on_c, 2, 55, 0
4, 44640, Note_on_c, 2, 59, 100
4, 45120, Note_on_c, 2, 59, 0
4, 45120, Note_on_c, 2, 57, 100
4, 45600, Note_on_c, 2, 57, 0
4, 45600, Note_on_c, 2, 55, 100
4, 46080, Note_on_c, 2, 55, 0
4, 46080, Note_on_c, 2, 62, 100
4, 46560, Note_on_c, 2, 62, 0
4, 46560, Note_on_c, 2, 50, 100
4, 47040, Note_on_c, 2, 50, 0
4, 47040, Note_on_c, 2, 52, 100
4, 47520, Note_on_c, 2, 52, 0
4, 47520, Note_on_c, 2, 54, 100
4, 48000, Note_on_c, 2, 54, 0
4, 48000, Note_on_c, 2, 55, 100
4, 48480, Note_on_c, 2, 55, 0
4, 48480, Note_on_c, 2, 59, 100
4, 48960, Note_on_c, 2, 59, 0
4, 48960, Note_on_c, 2, 57, 100
4, 49440, Note_on_c, 2, 57, 0
4, 49440, Note_on_c, 2, 55, 100
4, 49920, Note_on_c, 2, 55, 0
4, 49920, Note_on_c, 2, 62, 100
4, 50400, Note_on_c, 2, 62, 0
4, 50400, Note_on_c, 2, 50, 100
4, 50880, Note_on_c, 2, 50, 0
4, 50880, Note_on_c, 2, 52, 100
4, 51360, Note_on_c, 2, 52, 0
4, 51360, Note_on_c, 2, 54, 100
4, 51840, Note_on_c, 2, 54, 0
4, 51840, Note_on_c, 2, 55, 100
4, 52800, Note_on_c, 2, 55, 0
4, 53280, Note_on_c, 2, 55, 100
4, 53760, Note_on_c, 2, 55, 0
4, 53760, Note_on_c, 2, 54, 100
4, 54240, Note_on_c, 2, 54, 0
4, 54240, Note_on_c, 2, 52, 100
4, 54720, Note_on_c, 2, 52, 0
4, 54720, Note_on_c, 2, 50, 100
4, 55200, Note_on_c, 2, 50, 0
4, 55200, Note_on_c, 2, 47, 100
4, 55680, Note_on_c, 2, 47, 0
4, 55680, Note_on_c, 2, 48, 100
4, 56160, Note_on_c, 2, 48, 0
4, 56160, Note_on_c, 2, 50, 100
4, 56640, Note_on_c, 2, 50, 0
4, 56640, Note_on_c, 2, 43, 100
4, 57120, Note_on_c, 2, 43, 0
4, 57120, Note_on_c, 2, 55, 100
4, 57600, Note_on_c, 2, 55, 0
4, 57600, Note_on_c, 2, 54, 100
4, 58080, Note_on_c, 2, 54, 0
4, 58080, Note_on_c, 2, 52, 100
4, 58560, Note_on_c, 2, 52, 0
4, 58560, Note_on_c, 2, 50, 100
4, 59040, Note_on_c, 2, 50, 0
4, 59040, Note_on_c, 2, 47, 100
4, 59520, Note_on_c, 2, 47, 0
4, 59520, Note_on_c, 2, 48, 100
4, 60000, Note_on_c, 2, 48, 0
4, 60000, Note_on_c, 2, 50, 100
4, 60480, Note_on_c, 2, 50, 0
4, 60480, Note_on_c, 2, 43, 100
4, 60960, Note_on_c, 2, 43, 0
4, 60960, Note_on_c, 2, 55, 100
4, 61440, Note_on_c, 2, 55, 0
4, 61440, Note_on_c, 2, 54, 100
4, 61920, Note_on_c, 2, 54, 0
4, 61920, Note_on_c, 2, 52, 100
4, 62400, Note_on_c, 2, 52, 0
4, 62400, Note_on_c, 2, 50, 100
4, 62880, Note_on_c, 2, 50, 0
4, 62880, Note_on_c, 2, 47, 100
4, 63360, Note_on_c, 2, 47, 0
4, 63360, Note_on_c, 2, 48, 100
4, 63840, Note_on_c, 2, 48, 0
4, 63840, Note_on_c, 2, 50, 100
4, 64320, Note_on_c, 2, 50, 0
4, 64320, Note_on_c, 2, 43, 100
4, 65280, Note_on_c, 2, 43, 0
4, 65760, Note_on_c, 2, 55, 100
4, 66240, Note_on_c, 2, 55, 0
4, 66240, Note_on_c, 2, 54, 100
4, 66720, Note_on_c, 2, 54, 0
4, 66720, Note_on_c, 2, 52, 100
4, 67200, Note_on_c, 2, 52, 0
4, 67200, Note_on_c, 2, 50, 100
4, 67680, Note_on_c, 2, 50, 0
4, 67680, Note_on_c, 2, 47, 100
4, 68160, Note_on_c, 2, 47, 0
4, 68160, Note_on_c, 2, 48, 100
4, 68640, Note_on_c, 2, 48, 0
4, 68640, Note_on_c, 2, 50, 100
4, 69120, Note_on_c, 2, 50, 0
4, 69120, Note_on_c, 2, 43, 100
4, 69600, Note_on_c, 2, 43, 0
4, 69600, Note_on_c, 2, 55, 100
4, 70080, Note_on_c, 2, 55, 0
4, 70080, Note_on_c, 2, 54, 100
4, 70560, Note_on_c, 2, 54, 0
4, 70560, Note_on_c, 2, 52, 100
4, 71040, Note_on_c, 2, 52, 0
4, 71040, Note_on_c, 2, 50, 100
4, 71520, Note_on_c, 2, 50, 0
4, 71520, Note_on_c, 2, 47, 100
4, 72000, Note_on_c, 2, 47, 0
4, 72000, Note_on_c, 2, 48, 100
4, 72480, Note_on_c, 2, 48, 0
4, 72480, Note_on_c, 2, 50, 100
4, 72960, Note_on_c, 2, 50, 0
4, 72960, Note_on_c, 2, 43, 100
4, 73440, Note_on_c, 2, 43, 0
4, 73440, Note_on_c, 2, 55, 100
4, 73920, Note_on_c, 2, 55, 0
4, 73920, Note_on_c, 2, 54, 100
4, 74400, Note_on_c, 2, 54, 0
4, 74400, Note_on_c, 2, 52, 100
4, 74880, Note_on_c, 2, 52, 0
4, 74880, Note_on_c, 2, 50, 100
4, 75360, Note_on_c, 2, 50, 0
4, 75360, Note_on_c, 2, 47, 100
4, 75840, Note_on_c, 2, 47, 0
4, 75840, Note_on_c, 2, 48, 100
4, 76320, Note_on_c, 2, 48, 0
4, 76320, Note_on_c, 2, 50, 100
4, 76800, Note_on_c, 2, 50, 0
4, 76800, Note_on_c, 2, 43, 100
4, 77760, Note_on_c, 2, 43, 0
4, 78000, Note_on_c, 2, 64, 100
4, 78120, Note_on_c, 2, 64, 0
4, 78120, Note_on_c, 2, 62, 100
4, 78240, Note_on_c, 2, 62, 0
4, 78240, Note_on_c, 2, 60, 100
4, 78480, Note_on_c, 2, 60, 0
4, 78480, Note_on_c, 2, 58, 100
4, 78720, Note_on_c, 2, 58, 0
4, 78720, Note_on_c, 2, 57, 100
4, 78960, Note_on_c, 2, 57, 0
4, 78960, Note_on_c, 2, 54, 100
4, 79200, Note_on_c, 2, 54, 0
4, 79200, Note_on_c, 2, 55, 100
4, 79440, Note_on_c, 2, 55, 0
4, 79440, Note_on_c, 2, 57, 100
4, 79680, Note_on_c, 2, 57, 0
4, 79680, Note_on_c, 2, 50, 100
4, 80160, Note_on_c, 2, 50, 0
4, 80400, Note_on_c, 2, 52, 100
4, 80640, Note_on_c, 2, 52, 0
4, 80640, Note_on_c, 2, 45, 100
4, 80880, Note_on_c, 2, 45, 0
4, 80880, Note_on_c, 2, 57, 100
4, 81120, Note_on_c, 2, 57, 0
4, 81120, Note_on_c, 2, 55, 100
4, 81360, Note_on_c, 2, 55, 0
4, 81360, Note_on_c, 2, 53, 100
4, 81600, Note_on_c, 2, 53, 0
4, 81600, Note_on_c, 2, 52, 100
4, 81840, Note_on_c, 2, 52, 0
4, 81840, Note_on_c, 2, 64, 100
4, 81960, Note_on_c, 2, 64, 0
4, 81960, Note_on_c, 2, 62, 100
4, 82080, Note_on_c, 2, 62, 0
4, 82080, Note_on_c, 2, 60, 100
4, 82320, Note_on_c, 2, 60, 0
4, 82320, Note_on_c, 2, 58, 100
4, 82560, Note_on_c, 2, 58, 0
4, 82560, Note_on_c, 2, 57, 100
4, 82800, Note_on_c, 2, 57, 0
4, 82800, Note_on_c, 2, 54, 100
4, 83040, Note_on_c, 2, 54, 0
4, 83040, Note_on_c, 2, 55, 100
4, 83280, Note_on_c, 2, 55, 0
4, 83280, Note_on_c, 2, 57, 100
4, 83520, Note_on_c, 2, 57, 0
4, 83520, Note_on_c, 2, 50, 100
4, 84000, Note_on_c, 2, 50, 0
4, 84240, Note_on_c, 2, 52, 100
4, 84480, Note_on_c, 2, 52, 0
4, 84480, Note_on_c, 2, 45, 100
4, 84720, Note_on_c, 2, 45, 0
4, 84720, Note_on_c, 2, 57, 100
4, 84960, Note_on_c, 2, 57, 0
4, 84960, Note_on_c, 2, 55, 100
4, 85200, Note_on_c, 2, 55, 0
4, 85200, Note_on_c, 2, 53, 100
4, 85440, Note_on_c, 2, 53, 0
4, 85440, Note_on_c, 2, 52, 100
4, 85680, Note_on_c, 2, 52, 0
4, 85680, Note_on_c, 2, 64, 100
4, 85800, Note_on_c, 2, 64, 0
4, 85800, Note_on_c, 2, 62, 100
4, 85920, Note_on_c, 2, 62, 0
4, 85920, Note_on_c, 2, 60, 100
4, 86160, Note_on_c, 2, 60, 0
4, 86160, Note_on_c, 2, 58, 100
4, 86400, Note_on_c, 2, 58, 0
4, 86400, Note_on_c, 2, 57, 100
4, 86640, Note_on_c, 2, 57, 0
4, 86640, Note_on_c, 2, 54, 100
4, 86880, Note_on_c, 2, 54, 0
4, 86880, Note_on_c, 2, 55, 100
4, 87120, Note_on_c, 2, 55, 0
4, 87120, Note_on_c, 2, 57, 100
4, 87360, Note_on_c, 2, 57, 0
4, 87360, Note_on_c, 2, 50, 100
4, 87840, Note_on_c, 2, 50, 0
4, 88080, Note_on_c, 2, 52, 100
4, 88320, Note_on_c, 2, 52, 0
4, 88320, Note_on_c, 2, 45, 100
4, 88560, Note_on_c, 2, 45, 0
4, 88560, Note_on_c, 2, 57, 100
4, 88800, Note_on_c, 2, 57, 0
4, 88800, Note_on_c, 2, 55, 100
4, 89040, Note_on_c, 2, 55, 0
4, 89040, Note_on_c, 2, 53, 100
4, 89280, Note_on_c, 2, 53, 0
4, 89280, Note_on_c, 2, 52, 100
4, 90240, Note_on_c, 2, 52, 0
4, 90720, Note_on_c, 2, 55, 100
4, 91200, Note_on_c, 2, 55, 0
4, 91200, Note_on_c, 2, 54, 100
4, 91680, Note_on_c, 2, 54, 0
4, 91680, Note_on_c, 2, 52, 100
4, 92160, Note_on_c, 2, 52, 0
4, 92160, Note_on_c, 2, 50, 100
4, 92640, Note_on_c, 2, 50, 0
4, 92640, Note_on_c, 2, 47, 100
4, 93120, Note_on_c, 2, 47, 0
4, 93120, Note_on_c, 2, 48, 100
4, 93600, Note_on_c, 2, 48, 0
4, 93600, Note_on_c, 2, 50, 100
4, 94080, Note_on_c, 2, 50, 0
4, 94080, Note_on_c, 2, 43, 100
4, 94560, Note_on_c, 2, 43, 0
4, 94560, Note_on_c, 2, 55, 100
4, 95040, Note_on_c, 2, 55, 0
4, 95040, Note_on_c, 2, 54, 100
4, 95520, Note_on_c, 2, 54, 0
4, 95520, Note_on_c, 2, 52, 100
4, 96000, Note_on_c, 2, 52, 0
4, 96000, Note_on_c, 2, 50, 100
4, 96480, Note_on_c, 2, 50, 0
4, 96480, Note_on_c, 2, 47, 100
4, 96960, Note_on_c, 2, 47, 0
4, 96960, Note_on_c, 2, 48, 100
4, 97440, Note_on_c, 2, 48, 0
4, 97440, Note_on_c, 2, 50, 100
4, 97920, Note_on_c, 2, 50, 0
4, 97920, Note_on_c, 2, 43, 100
4, 98400, Note_on_c, 2, 43, 0
4, 98400, Note_on_c, 2, 55, 100
4, 98880, Note_on_c, 2, 55, 0
4, 98880, Note_on_c, 2, 54, 100
4, 99360, Note_on_c, 2, 54, 0
4, 99360, Note_on_c, 2, 52, 100
4, 99840, Note_on_c, 2, 52, 0
4, 99840, Note_on_c, 2, 50, 100
4, 100320, Note_on_c, 2, 50, 0
4, 100320, Note_on_c, 2, 47, 100
4, 100800, Note_on_c, 2, 47, 0
4, 100800, Note_on_c, 2, 48, 100
4, 101280, Note_on_c, 2, 48, 0
4, 101280, Note_on_c, 2, 50, 100
4, 101760, Note_on_c, 2, 50, 0
4, 101760, Note_on_c, 2, 43, 100
4, 102720, Note_on_c, 2, 43, 0
4, 103200, Note_on_c, 2, 55, 100
4, 103680, Note_on_c, 2, 55, 0
4, 103680, Note_on_c, 2, 54, 100
4, 104160, Note_on_c, 2, 54, 0
4, 104160, Note_on_c, 2, 52, 100
4, 104640, Note_on_c, 2, 52, 0
4, 104640, Note_on_c, 2, 50, 100
4, 105120, Note_on_c, 2, 50, 0
4, 105120, Note_on_c, 2, 47, 100
4, 105600, Note_on_c, 2, 47, 0
4, 105600, Note_on_c, 2, 48, 100
4, 106080, Note_on_c, 2, 48, 0
4, 106080, Note_on_c, 2, 50, 100
4, 106560, Note_on_c, 2, 50, 0
4, 106560, Note_on_c, 2, 43, 100
4, 107040, Note_on_c, 2, 43, 0
4, 107040, Note_on_c, 2, 55, 100
4, 107520, Note_on_c, 2, 55, 0
4, 107520, Note_on_c, 2, 54, 100
4, 108000, Note_on_c, 2, 54, 0
4, 108000, Note_on_c, 2, 52, 100
4, 108480, Note_on_c, 2, 52, 0
4, 108480, Note_on_c, 2, 50, 100
4, 108960, Note_on_c, 2, 50, 0
4, 108960, Note_on_c, 2, 47, 100
4, 109440, Note_on_c, 2, 47, 0
4, 109440, Note_on_c, 2, 48, 100
4, 109920, Note_on_c, 2, 48, 0
4, 109920, Note_on_c, 2, 50, 100
4, 110400, Note_on_c, 2, 50, 0
4, 110400, Note_on_c, 2, 43, 100
4, 110880, Note_on_c, 2, 43, 0
4, 110880, Note_on_c, 2, 55, 100
4, 111360, Note_on_c, 2, 55, 0
4, 111360, Note_on_c, 2, 54, 100
4, 111840, Note_on_c, 2, 54, 0
4, 111840, Note_on_c, 2, 52, 100
4, 112320, Note_on_c, 2, 52, 0
4, 112320, Note_on_c, 2, 50, 100
4, 112800, Note_on_c, 2, 50, 0
4, 112800, Note_on_c, 2, 47, 100
4, 113280, Note_on_c, 2, 47, 0
4, 113280, Note_on_c, 2, 48, 100
4, 113760, Note_on_c, 2, 48, 0
4, 113760, Note_on_c, 2, 50, 100
4, 114240, Note_on_c, 2, 50, 0
4, 114240, Note_on_c, 2, 43, 100
4, 115200, Note_on_c, 2, 43, 0
4, 117840, Note_on_c, 2, 62, 100
4, 118080, Note_on_c, 2, 62, 0
4, 118080, Note_on_c, 2, 60, 100
4, 118320, Note_on_c, 2, 60, 0
4, 118320, Note_on_c, 2, 58, 100
4, 118560, Note_on_c, 2, 58, 0
4, 118560, Note_on_c, 2, 57, 100
4, 118800, Note_on_c, 2, 57, 0
4, 118800, Note_on_c, 2, 62, 100
4, 118920, Note_on_c, 2, 62, 0
4, 118920, Note_on_c, 2, 60, 100
4, 119040, Note_on_c, 2, 60, 0
4, 119040, Note_on_c, 2, 59, 100
4, 119280, Note_on_c, 2, 59, 0
4, 119280, Note_on_c, 2, 64, 100
4, 119520, Note_on_c, 2, 64, 0
4, 119520, Note_on_c, 2, 62, 100
4, 119640, Note_on_c, 2, 62, 0
4, 119640, Note_on_c, 2, 61, 100
4, 119760, Note_on_c, 2, 61, 0
4, 119760, Note_on_c, 2, 62, 100
4, 119880, Note_on_c, 2, 62, 0
4, 119880, Note_on_c, 2, 64, 100
4, 120000, Note_on_c, 2, 64, 0
4, 120000, Note_on_c, 2, 66, 100
4, 120480, Note_on_c, 2, 66, 0
4, 120720, Note_on_c, 2, 71, 100
4, 121080, Note_on_c, 2, 71, 0
4, 121080, Note_on_c, 2, 59, 100
4, 121320, Note_on_c, 2, 59, 0
4, 121320, Note_on_c, 2, 61, 100
4, 121440, Note_on_c, 2, 61, 0
4, 121440, Note_on_c, 2, 62, 100
4, 121560, Note_on_c, 2, 62, 0
4, 121560, Note_on_c, 2, 64, 100
4, 121680, Note_on_c, 2, 64, 0
4, 121680, Note_on_c, 2, 62, 100
4, 121920, Note_on_c, 2, 62, 0
4, 121920, Note_on_c, 2, 60, 100
4, 122160, Note_on_c, 2, 60, 0
4, 122160, Note_on_c, 2, 58, 100
4, 122400, Note_on_c, 2, 58, 0
4, 122400, Note_on_c, 2, 57, 100
4, 122640, Note_on_c, 2, 57, 0
4, 122640, Note_on_c, 2, 62, 100
4, 122760, Note_on_c, 2, 62, 0
4, 122760, Note_on_c, 2, 60, 100
4, 122880, Note_on_c, 2, 60, 0
4, 122880, Note_on_c, 2, 59, 100
4, 123120, Note_on_c, 2, 59, 0
4, 123120, Note_on_c, 2, 64, 100
4, 123360, Note_on_c, 2, 64, 0
4, 123360, Note_on_c, 2, 62, 100
4, 123480, Note_on_c, 2, 62, 0
4, 123480, Note_on_c, 2, 61, 100
4, 123600, Note_on_c, 2, 61, 0
4, 123600, Note_on_c, 2, 62, 100
4, 123720, Note_on_c, 2, 62, 0
4, 123720, Note_on_c, 2, 64, 100
4, 123840, Note_on_c, 2, 64, 0
4, 123840, Note_on_c, 2, 66, 100
4, 124320, Note_on_c, 2, 66, 0
4, 124560, Note_on_c, 2, 71, 100
4, 124920, Note_on_c, 2, 71, 0
4, 124920, Note_on_c, 2, 59, 100
4, 125160, Note_on_c, 2, 59, 0
4, 125160, Note_on_c, 2, 61, 100
4, 125280, Note_on_c, 2, 61, 0
4, 125280, Note_on_c, 2, 62, 100
4, 125400, Note_on_c, 2, 62, 0
4, 125400, Note_on_c, 2, 64, 100
4, 125520, Note_on_c, 2, 64, 0
4, 125520, Note_on_c, 2, 62, 100
4, 125760, Note_on_c, 2, 62, 0
4, 125760, Note_on_c, 2, 60, 100
4, 126000, Note_on_c, 2, 60, 0
4, 126000, Note_on_c, 2, 58, 100
4, 126240, Note_on_c, 2, 58, 0
4, 126240, Note_on_c, 2, 57, 100
4, 126480, Note_on_c, 2, 57, 0
4, 126480, Note_on_c, 2, 62, 100
4, 126600, Note_on_c, 2, 62, 0
4, 126600, Note_on_c, 2, 60, 100
4, 126720, Note_on_c, 2, 60, 0
4, 126720, Note_on_c, 2, 59, 100
4, 127680, Note_on_c, 2, 59, 0
4, 129840, Note_on_c, 2, 62, 100
4, 130080, Note_on_c, 2, 62, 0
4, 130080, Note_on_c, 2, 64, 100
4, 130320, Note_on_c, 2, 64, 0
4, 130320, Note_on_c, 2, 66, 100
4, 130560, Note_on_c, 2, 66, 0
4, 130560, Note_on_c, 2, 67, 100
4, 130800, Note_on_c, 2, 67, 0
4, 130800, Note_on_c, 2, 71, 100
4, 131040, Note_on_c, 2, 71, 0
4, 131040, Note_on_c, 2, 69, 100
4, 131280, Note_on_c, 2, 69, 0
4, 131280, Note_on_c, 2, 67, 100
4, 131520, Note_on_c, 2, 67, 0
4, 131520, Note_on_c, 2, 74, 100
4, 131760, Note_on_c, 2, 74, 0
4, 131760, Note_on_c, 2, 62, 100
4, 132000, Note_on_c, 2, 62, 0
4, 132000, Note_on_c, 2, 69, 100
4, 132480, Note_on_c, 2, 69, 0
4, 132480, Note_on_c, 2, 67, 100
4, 132960, Note_on_c, 2, 67, 0
4, 133680, Note_on_c, 2, 71, 100
4, 133920, Note_on_c, 2, 71, 0
4, 133920, Note_on_c, 2, 69, 100
4, 134160, Note_on_c, 2, 69, 0
4, 134160, Note_on_c, 2, 67, 100
4, 134400, Note_on_c, 2, 67, 0
4, 134400, Note_on_c, 2, 66, 100
4, 134640, Note_on_c, 2, 66, 0
4, 134640, Note_on_c, 2, 62, 100
4, 134880, Note_on_c, 2, 62, 0
4, 134880, Note_on_c, 2, 64, 100
4, 135120, Note_on_c, 2, 64, 0
4, 135120, Note_on_c, 2, 66, 100
4, 135360, Note_on_c, 2, 66, 0
4, 135360, Note_on_c, 2, 67, 100
4, 136080, Note_on_c, 2, 67, 0
4, 136080, Note_on_c, 2, 69, 100
4, 136320, Note_on_c, 2, 69, 0
4, 136320, Note_on_c, 2, 71, 100
4, 136800, Note_on_c, 2, 71, 0
4, 137520, Note_on_c, 2, 62, 100
4, 137760, Note_on_c, 2, 62, 0
4, 137760, Note_on_c, 2, 64, 100
4, 138000, Note_on_c, 2, 64, 0
4, 138000, Note_on_c, 2, 66, 100
4, 138240, Note_on_c, 2, 66, 0
4, 138240, Note_on_c, 2, 67, 100
4, 138480, Note_on_c, 2, 67, 0
4, 138480, Note_on_c, 2, 71, 100
4, 138720, Note_on_c, 2, 71, 0
4, 138720, Note_on_c, 2, 69, 100
4, 138960, Note_on_c, 2, 69, 0
4, 138960, Note_on_c, 2, 67, 100
4, 139200, Note_on_c, 2, 67, 0
4, 139200, Note_on_c, 2, 74, 100
4, 139440, Note_on_c, 2, 74, 0
4, 139440, Note_on_c, 2, 62, 100
4, 139680, Note_on_c, 2, 62, 0
4, 139680, Note_on_c, 2, 69, 100
4, 140160, Note_on_c, 2, 69, 0
4, 140160, Note_on_c, 2, 67, 100
4, 140640, Note_on_c, 2, 67, 0
4, 141360, Note_on_c, 2, 71, 100
4, 141600, Note_on_c, 2, 71, 0
4, 141600, Note_on_c, 2, 69, 100
4, 141840, Note_on_c, 2, 69, 0
4, 141840, Note_on_c, 2, 67, 100
4, 142080, Note_on_c, 2, 67, 0
4, 142080, Note_on_c, 2, 66, 100
4, 142320, Note_on_c, 2, 66, 0
4, 142320, Note_on_c, 2, 62, 100
4, 142560, Note_on_c, 2, 62, 0
4, 142560, Note_on_c, 2, 64, 100
4, 142800, Note_on_c, 2, 64, 0
4, 142800, Note_on_c, 2, 66, 100
4, 143040, Note_on_c, 2, 66, 0
4, 143040, Note_on_c, 2, 67, 100
4, 143760, Note_on_c, 2, 67, 0
4, 143760, Note_on_c, 2, 69, 100
4, 144000, Note_on_c, 2, 69, 0
4, 144000, Note_on_c, 2, 71, 100
4, 144480, Note_on_c, 2, 71, 0
4, 145200, Note_on_c, 2, 62, 100
4, 145440, Note_on_c, 2, 62, 0
4, 145440, Note_on_c, 2, 64, 100
4, 145680, Note_on_c, 2, 64, 0
4, 145680, Note_on_c, 2, 66, 100
4, 145920, Note_on_c, 2, 66, 0
4, 145920, Note_on_c, 2, 67, 100
4, 146160, Note_on_c, 2, 67, 0
4, 146160, Note_on_c, 2, 71, 100
4, 146400, Note_on_c, 2, 71, 0
4, 146400, Note_on_c, 2, 69, 100
4, 146640, Note_on_c, 2, 69, 0
4, 146640, Note_on_c, 2, 67, 100
4, 146880, Note_on_c, 2, 67, 0
4, 146880, Note_on_c, 2, 74, 100
4, 147120, Note_on_c, 2, 74, 0
4, 147120, Note_on_c, 2, 62, 100
4, 147360, Note_on_c, 2, 62, 0
4, 147360, Note_on_c, 2, 69, 100
4, 148800, Note_on_c, 2, 69, 0
4, 150720, Note_on_c, 2, 62, 100
4, 151680, Note_on_c, 2, 62, 0
4, 151680, Note_on_c, 2, 60, 100
4, 152160, Note_on_c, 2, 60, 0
4, 152160, Note_on_c, 2, 57, 100
4, 152640, Note_on_c, 2, 57, 0
4, 152640, Note_on_c, 2, 59, 100
4, 153600, Note_on_c, 2, 59, 0
4, 153600, Note_on_c, 2, 60, 100
4, 154560, Note_on_c, 2, 60, 0
4, 154560, Note_on_c, 2, 62, 100
4, 155520, Note_on_c, 2, 62, 0
4, 155520, Note_on_c, 2, 60, 100
4, 156000, Note_on_c, 2, 60, 0
4, 156000, Note_on_c, 2, 57, 100
4, 156480, Note_on_c, 2, 57, 0
4, 156480, Note_on_c, 2, 59, 100
4, 157440, Note_on_c, 2, 59, 0
4, 157440, Note_on_c, 2, 60, 100
4, 158400, Note_on_c, 2, 60, 0
4, 158400, Note_on_c, 2, 62, 100
4, 159360, Note_on_c, 2, 62, 0
4, 159360, Note_on_c, 2, 60, 100
4, 159840, Note_on_c, 2, 60, 0
4, 159840, Note_on_c, 2, 57, 100
4, 160320, Note_on_c, 2, 57, 0
4, 160320, Note_on_c, 2, 59, 100
4, 162240, Note_on_c, 2, 59, 0
4, 164640, Note_on_c, 2, 57, 100
4, 165120, Note_on_c, 2, 57, 0
4, 165120, Note_on_c, 2, 59, 100
4, 165600, Note_on_c, 2, 59, 0
4, 165600, Note_on_c, 2, 61, 100
4, 166080, Note_on_c, 2, 61, 0
4, 166080, Note_on_c, 2, 62, 100
4, 166560, Note_on_c, 2, 62, 0
4, 166560, Note_on_c, 2, 66, 100
4, 167040, Note_on_c, 2, 66, 0
4, 167040, Note_on_c, 2, 64, 100
4, 167520, Note_on_c, 2, 64, 0
4, 167520, Note_on_c, 2, 62, 100
4, 168000, Note_on_c, 2, 62, 0
4, 168000, Note_on_c, 2, 69, 100
4, 168480, Note_on_c, 2, 69, 0
4, 168480, Note_on_c, 2, 67, 100
4, 168960, Note_on_c, 2, 67, 0
4, 168960, Note_on_c, 2, 66, 100
4, 169440, Note_on_c, 2, 66, 0
4, 169440, Note_on_c, 2, 74, 100
4, 169920, Note_on_c, 2, 74, 0
4, 170400, Note_on_c, 2, 76, 100
4, 170640, Note_on_c, 2, 76, 0
4, 170640, Note_on_c, 2, 78, 100
4, 170880, Note_on_c, 2, 78, 0
4, 170880, Note_on_c, 2, 79, 100
4, 171360, Note_on_c, 2, 79, 0
4, 171360, Note_on_c, 2, 67, 100
4, 172320, Note_on_c, 2, 67, 0
4, 172320, Note_on_c, 2, 57, 100
4, 172800, Note_on_c, 2, 57, 0
4, 172800, Note_on_c, 2, 59, 100
4, 173280, Note_on_c, 2, 59, 0
4, 173280, Note_on_c, 2, 61, 100
4, 173760, Note_on_c, 2, 61, 0
4, 173760, Note_on_c, 2, 62, 100
4, 174240, Note_on_c, 2, 62, 0
4, 174240, Note_on_c, 2, 66, 100
4, 174720, Note_on_c, 2, 66, 0
4, 174720, Note_on_c, 2, 64, 100
4, 175200, Note_on_c, 2, 64, 0
4, 175200, Note_on_c, 2, 62, 100
4, 175680, Note_on_c, 2, 62, 0
4, 175680, Note_on_c, 2, 69, 100
4, 176160, Note_on_c, 2, 69, 0
4, 176160, Note_on_c, 2, 67, 100
4, 176640, Note_on_c, 2, 67, 0
4, 176640, Note_on_c, 2, 66, 100
4, 177120, Note_on_c, 2, 66, 0
4, 177120, Note_on_c, 2, 74, 100
4, 177600, Note_on_c, 2, 74, 0
4, 178080, Note_on_c, 2, 76, 100
4, 178320, Note_on_c, 2, 76, 0
4, 178320, Note_on_c, 2, 78, 100
4, 178560, Note_on_c, 2, 78, 0
4, 178560, Note_on_c, 2, 79, 100
4, 179040, Note_on_c, 2, 79, 0
4, 179040, Note_on_c, 2, 67, 100
4, 180000, Note_on_c, 2, 67, 0
4, 180000, Note_on_c, 2, 57, 100
4, 180480, Note_on_c, 2, 57, 0
4, 180480, Note_on_c, 2, 59, 100
4, 180960, Note_on_c, 2, 59, 0
4, 180960, Note_on_c, 2, 61, 100
4, 181440, Note_on_c, 2, 61, 0
4, 181440, Note_on_c, 2, 62, 100
4, 181920, Note_on_c, 2, 62, 0
4, 181920, Note_on_c, 2, 66, 100
4, 182400, Note_on_c, 2, 66, 0
4, 182400, Note_on_c, 2, 64, 100
4, 182880, Note_on_c, 2, 64, 0
4, 182880, Note_on_c, 2, 62, 100
4, 183360, Note_on_c, 2, 62, 0
4, 183360, Note_on_c, 2, 69, 100
4, 183840, Note_on_c, 2, 69, 0
4, 183840, Note_on_c, 2, 67, 100
4, 184320, Note_on_c, 2, 67, 0
4, 184320, Note_on_c, 2, 66, 100
4, 184800, Note_on_c, 2, 66, 0
4, 184800, Note_on_c, 2, 74, 100
4, 185280, Note_on_c, 2, 74, 0
4, 185280, Note_on_c, 2, 67, 100
4, 187200, Note_on_c, 2, 67, 0
4, 187200, End_track
5, 0, Start_track
5, 0, MIDI_port, 0
5, 0, Title_t, "Johann Sebastian Bach  (1685-1750)"
5, 0, Program_c, 3, 6
5, 0, Control_c, 3, 7, 100
5, 0, Control_c, 3, 10, 49
5, 480, Note_on_c, 3, 55, 100
5, 960, Note_on_c, 3, 55, 0
5, 960, Note_on_c, 3, 54, 100
5, 1440, Note_on_c, 3, 54, 0
5, 1440, Note_on_c, 3, 52, 100
5, 1920, Note_on_c, 3, 52, 0
5, 1920, Note_on_c, 3, 50, 100
5, 2400, Note_on_c, 3, 50, 0
5, 2400, Note_on_c, 3, 47, 100
5, 2880, Note_on_c, 3, 47, 0
5, 2880, Note_on_c, 3, 48, 100
5, 3360, Note_on_c, 3, 48, 0
5, 3360, Note_on_c, 3, 50, 100
5, 3840, Note_on_c, 3, 50, 0
5, 3840, Note_on_c, 3, 43, 100
5, 4320, Note_on_c, 3, 43, 0
5, 4320, Note_on_c, 3, 55, 100
5, 4800, Note_on_c, 3, 55, 0
5, 4800, Note_on_c, 3, 54, 100
5, 5280, Note_on_c, 3, 54, 0
5, 5280, Note_on_c, 3, 52, 100
5, 5760, Note_on_c, 3, 52, 0
5, 5760, Note_on_c, 3, 50, 100
5, 6240, Note_on_c, 3, 50, 0
5, 6240, Note_on_c, 3, 47, 100
5, 6720, Note_on_c, 3, 47, 0
5, 6720, Note_on_c, 3, 48, 100
5, 7200, Note_on_c, 3, 48, 0
5, 7200, Note_on_c, 3, 50, 100
5, 7680, Note_on_c, 3, 50, 0
5, 7680, Note_on_c, 3, 43, 100
5, 8640, Note_on_c, 3, 43, 0
5, 9120, Note_on_c, 3, 50, 100
5, 9600, Note_on_c, 3, 50, 0
5, 9600, Note_on_c, 3, 52, 100
5, 10080, Note_on_c, 3, 52, 0
5, 10080, Note_on_c, 3, 54, 100
5, 10560, Note_on_c, 3, 54, 0
5, 10560, Note_on_c, 3, 55, 100
5, 11040, Note_on_c, 3, 55, 0
5, 11040, Note_on_c, 3, 59, 100
5, 11520, Note_on_c, 3, 59, 0
5, 11520, Note_on_c, 3, 57, 100
5, 12000, Note_on_c, 3, 57, 0
5, 12000, Note_on_c, 3, 55, 100
5, 12480, Note_on_c, 3, 55, 0
5, 12480, Note_on_c, 3, 62, 100
5, 12960, Note_on_c, 3, 62, 0
5, 12960, Note_on_c, 3, 50, 100
5, 13440, Note_on_c, 3, 50, 0
5, 13440, Note_on_c, 3, 52, 100
5, 13920, Note_on_c, 3, 52, 0
5, 13920, Note_on_c, 3, 54, 100
5, 14400, Note_on_c, 3, 54, 0
5, 14400, Note_on_c, 3, 55, 100
5, 14880, Note_on_c, 3, 55, 0
5, 14880, Note_on_c, 3, 59, 100
5, 15360, Note_on_c, 3, 59, 0
5, 15360, Note_on_c, 3, 57, 100
5, 15840, Note_on_c, 3, 57, 0
5, 15840, Note_on_c, 3, 55, 100
5, 16320, Note_on_c, 3, 55, 0
5, 16320, Note_on_c, 3, 62, 100
5, 17280, Note_on_c, 3, 62, 0
5, 40800, Note_on_c, 3, 55, 100
5, 41280, Note_on_c, 3, 55, 0
5, 41280, Note_on_c, 3, 54, 100
5, 41760, Note_on_c, 3, 54, 0
5, 41760, Note_on_c, 3, 52, 100
5, 42240, Note_on_c, 3, 52, 0
5, 42240, Note_on_c, 3, 50, 100
5, 42720, Note_on_c, 3, 50, 0
5, 42720, Note_on_c, 3, 47, 100
5, 43200, Note_on_c, 3, 47, 0
5, 43200, Note_on_c, 3, 48, 100
5, 43680, Note_on_c, 3, 48, 0
5, 43680, Note_on_c, 3, 50, 100
5, 44160, Note_on_c, 3, 50, 0
5, 44160, Note_on_c, 3, 43, 100
5, 44640, Note_on_c, 3, 43, 0
5, 44640, Note_on_c, 3, 55, 100
5, 45120, Note_on_c, 3, 55, 0
5, 45120, Note_on_c, 3, 54, 100
5, 45600, Note_on_c, 3, 54, 0
5, 45600, Note_on_c, 3, 52, 100
5, 46080, Note_on_c, 3, 52, 0
5, 46080, Note_on_c, 3, 50, 100
5, 46560, Note_on_c, 3, 50, 0
5, 46560, Note_on_c, 3, 47, 100
5, 47040, Note_on_c, 3, 47, 0
5, 47040, Note_on_c, 3, 48, 100
5, 47520, Note_on_c, 3, 48, 0
5, 47520, Note_on_c, 3, 50, 100
5, 48000, Note_on_c, 3, 50, 0
5, 48000, Note_on_c, 3, 43, 100
5, 48480, Note_on_c, 3, 43, 0
5, 48480, Note_on_c, 3, 55, 100
5, 48960, Note_on_c, 3, 55, 0
5, 48960, Note_on_c, 3, 54, 100
5, 49440, Note_on_c, 3, 54, 0
5, 49440, Note_on_c, 3, 52, 100
5, 49920, Note_on_c, 3, 52, 0
5, 49920, Note_on_c, 3, 50, 100
5, 50400, Note_on_c, 3, 50, 0
5, 50400, Note_on_c, 3, 47, 100
5, 50880, Note_on_c, 3, 47, 0
5, 50880, Note_on_c, 3, 48, 100
5, 51360, Note_on_c, 3, 48, 0
5, 51360, Note_on_c, 3, 50, 100
5, 51840, Note_on_c, 3, 50, 0
5, 51840, Note_on_c, 3, 43, 100
5, 52800, Note_on_c, 3, 43, 0
5, 105120, Note_on_c, 3, 50, 100
5, 105600, Note_on_c, 3, 50, 0
5, 105600, Note_on_c, 3, 52, 100
5, 106080, Note_on_c, 3, 52, 0
5, 106080, Note_on_c, 3, 54, 100
5, 106560, Note_on_c, 3, 54, 0
5, 106560, Note_on_c, 3, 55, 100
5, 107040, Note_on_c, 3, 55, 0
5, 107040, Note_on_c, 3, 59, 100
5, 107520, Note_on_c, 3, 59, 0
5, 107520, Note_on_c, 3, 57, 100
5, 108000, Note_on_c, 3, 57, 0
5, 108000, Note_on_c, 3, 55, 100
5, 108480, Note_on_c, 3, 55, 0
5, 108480, Note_on_c, 3, 62, 100
5, 108960, Note_on_c, 3, 62, 0
5, 108960, Note_on_c, 3, 50, 100
5, 109440, Note_on_c, 3, 50, 0
5, 109440, Note_on_c, 3, 52, 100
5, 109920, Note_on_c, 3, 52, 0
5, 109920, Note_on_c, 3, 54, 100
5, 110400, Note_on_c, 3, 54, 0
5, 110400, Note_on_c, 3, 55, 100
5, 110880, Note_on_c, 3, 55, 0
5, 110880, Note_on_c, 3, 59, 100
5, 111360, Note_on_c, 3, 59, 0
5, 111360, Note_on_c, 3, 57, 100
5, 111840, Note_on_c, 3, 57, 0
5, 111840, Note_on_c, 3, 55, 100
5, 112320, Note_on_c, 3, 55, 0
5, 112320, Note_on_c, 3, 62, 100
5, 112800, Note_on_c, 3, 62, 0
5, 112800, Note_on_c, 3, 50, 100
5, 113280, Note_on_c, 3, 50, 0
5, 113280, Note_on_c, 3, 52, 100
5, 113760, Note_on_c, 3, 52, 0
5, 113760, Note_on_c, 3, 54, 100
5, 114240, Note_on_c, 3, 54, 0
5, 114240, Note_on_c, 3, 55, 100
5, 115200, Note_on_c, 3, 55, 0
5, 115920, Note_on_c, 3, 59, 100
5, 116160, Note_on_c, 3, 59, 0
5, 116160, Note_on_c, 3, 61, 100
5, 116400, Note_on_c, 3, 61, 0
5, 116400, Note_on_c, 3, 63, 100
5, 116640, Note_on_c, 3, 63, 0
5, 116640, Note_on_c, 3, 64, 100
5, 116880, Note_on_c, 3, 64, 0
5, 116880, Note_on_c, 3, 59, 100
5, 117000, Note_on_c, 3, 59, 0
5, 117000, Note_on_c, 3, 61, 100
5, 117120, Note_on_c, 3, 61, 0
5, 117120, Note_on_c, 3, 62, 100
5, 117360, Note_on_c, 3, 62, 0
5, 117360, Note_on_c, 3, 57, 100
5, 117600, Note_on_c, 3, 57, 0
5, 117600, Note_on_c, 3, 59, 100
5, 117720, Note_on_c, 3, 59, 0
5, 117720, Note_on_c, 3, 60, 100
5, 117840, Note_on_c, 3, 60, 0
5, 117840, Note_on_c, 3, 59, 100
5, 117960, Note_on_c, 3, 59, 0
5, 117960, Note_on_c, 3, 57, 100
5, 118080, Note_on_c, 3, 57, 0
5, 118080, Note_on_c, 3, 55, 100
5, 118560, Note_on_c, 3, 55, 0
5, 118800, Note_on_c, 3, 50, 100
5, 119160, Note_on_c, 3, 50, 0
5, 119160, Note_on_c, 3, 62, 100
5, 119400, Note_on_c, 3, 62, 0
5, 119400, Note_on_c, 3, 60, 100
5, 119520, Note_on_c, 3, 60, 0
5, 119520, Note_on_c, 3, 59, 100
5, 119640, Note_on_c, 3, 59, 0
5, 119640, Note_on_c, 3, 57, 100
5, 119760, Note_on_c, 3, 57, 0
5, 119760, Note_on_c, 3, 59, 100
5, 120000, Note_on_c, 3, 59, 0
5, 120000, Note_on_c, 3, 61, 100
5, 120240, Note_on_c, 3, 61, 0
5, 120240, Note_on_c, 3, 63, 100
5, 120480, Note_on_c, 3, 63, 0
5, 120480, Note_on_c, 3, 64, 100
5, 120720, Note_on_c, 3, 64, 0
5, 120720, Note_on_c, 3, 59, 100
5, 120840, Note_on_c, 3, 59, 0
5, 120840, Note_on_c, 3, 61, 100
5, 120960, Note_on_c, 3, 61, 0
5, 120960, Note_on_c, 3, 62, 100
5, 121200, Note_on_c, 3, 62, 0
5, 121200, Note_on_c, 3, 57, 100
5, 121440, Note_on_c, 3, 57, 0
5, 121440, Note_on_c, 3, 59, 100
5, 121560, Note_on_c, 3, 59, 0
5, 121560, Note_on_c, 3, 60, 100
5, 121680, Note_on_c, 3, 60, 0
5, 121680, Note_on_c, 3, 59, 100
5, 121800, Note_on_c, 3, 59, 0
5, 121800, Note_on_c, 3, 57, 100
5, 121920, Note_on_c, 3, 57, 0
5, 121920, Note_on_c, 3, 55, 100
5, 122400, Note_on_c, 3, 55, 0
5, 122640, Note_on_c, 3, 50, 100
5, 123000, Note_on_c, 3, 50, 0
5, 123000, Note_on_c, 3, 62, 100
5, 123240, Note_on_c, 3, 62, 0
5, 123240, Note_on_c, 3, 60, 100
5, 123360, Note_on_c, 3, 60, 0
5, 123360, Note_on_c, 3, 59, 100
5, 123480, Note_on_c, 3, 59, 0
5, 123480, Note_on_c, 3, 57, 100
5, 123600, Note_on_c, 3, 57, 0
5, 123600, Note_on_c, 3, 59, 100
5, 123840, Note_on_c, 3, 59, 0
5, 123840, Note_on_c, 3, 61, 100
5, 124080, Note_on_c, 3, 61, 0
5, 124080, Note_on_c, 3, 63, 100
5, 124320, Note_on_c, 3, 63, 0
5, 124320, Note_on_c, 3, 64, 100
5, 124560, Note_on_c, 3, 64, 0
5, 124560, Note_on_c, 3, 59, 100
5, 124680, Note_on_c, 3, 59, 0
5, 124680, Note_on_c, 3, 61, 100
5, 124800, Note_on_c, 3, 61, 0
5, 124800, Note_on_c, 3, 62, 100
5, 125040, Note_on_c, 3, 62, 0
5, 125040, Note_on_c, 3, 57, 100
5, 125280, Note_on_c, 3, 57, 0
5, 125280, Note_on_c, 3, 59, 100
5, 125400, Note_on_c, 3, 59, 0
5, 125400, Note_on_c, 3, 60, 100
5, 125520, Note_on_c, 3, 60, 0
5, 125520, Note_on_c, 3, 59, 100
5, 125640, Note_on_c, 3, 59, 0
5, 125640, Note_on_c, 3, 57, 100
5, 125760, Note_on_c, 3, 57, 0
5, 125760, Note_on_c, 3, 55, 100
5, 126240, Note_on_c, 3, 55, 0
5, 126480, Note_on_c, 3, 50, 100
5, 127680, Note_on_c, 3, 50, 0
5, 128880, Note_on_c, 3, 67, 100
5, 129120, Note_on_c, 3, 67, 0
5, 129120, Note_on_c, 3, 66, 100
5, 129360, Note_on_c, 3, 66, 0
5, 129360, Note_on_c, 3, 64, 100
5, 129600, Note_on_c, 3, 64, 0
5, 129600, Note_on_c, 3, 62, 100
5, 129840, Note_on_c, 3, 62, 0
5, 129840, Note_on_c, 3, 59, 100
5, 130080, Note_on_c, 3, 59, 0
5, 130080, Note_on_c, 3, 61, 100
5, 130320, Note_on_c, 3, 61, 0
5, 130320, Note_on_c, 3, 62, 100
5, 130560, Note_on_c, 3, 62, 0
5, 130560, Note_on_c, 3, 55, 100
5, 130800, Note_on_c, 3, 55, 0
5, 130800, Note_on_c, 3, 67, 100
5, 131040, Note_on_c, 3, 67, 0
5, 131040, Note_on_c, 3, 61, 100
5, 131520, Note_on_c, 3, 61, 0
5, 131520, Note_on_c, 3, 62, 100
5, 132000, Note_on_c, 3, 62, 0
5, 132720, Note_on_c, 3, 59, 100
5, 132960, Note_on_c, 3, 59, 0
5, 132960, Note_on_c, 3, 60, 100
5, 133200, Note_on_c, 3, 60, 0
5, 133200, Note_on_c, 3, 62, 100
5, 133440, Note_on_c, 3, 62, 0
5, 133440, Note_on_c, 3, 64, 100
5, 133680, Note_on_c, 3, 64, 0
5, 133680, Note_on_c, 3, 67, 100
5, 133920, Note_on_c, 3, 67, 0
5, 133920, Note_on_c, 3, 66, 100
5, 134160, Note_on_c, 3, 66, 0
5, 134160, Note_on_c, 3, 64, 100
5, 134400, Note_on_c, 3, 64, 0
5, 134400, Note_on_c, 3, 62, 100
5, 135120, Note_on_c, 3, 62, 0
5, 135120, Note_on_c, 3, 60, 100
5, 135360, Note_on_c, 3, 60, 0
5, 135360, Note_on_c, 3, 59, 100
5, 135840, Note_on_c, 3, 59, 0
5, 136560, Note_on_c, 3, 67, 100
5, 136800, Note_on_c, 3, 67, 0
5, 136800, Note_on_c, 3, 66, 100
5, 137040, Note_on_c, 3, 66, 0
5, 137040, Note_on_c, 3, 64, 100
5, 137280, Note_on_c, 3, 64, 0
5, 137280, Note_on_c, 3, 62, 100
5, 137520, Note_on_c, 3, 62, 0
5, 137520, Note_on_c, 3, 59, 100
5, 137760, Note_on_c, 3, 59, 0
5, 137760, Note_on_c, 3, 61, 100
5, 138000, Note_on_c, 3, 61, 0
5, 138000, Note_on_c, 3, 62, 100
5, 138240, Note_on_c, 3, 62, 0
5, 138240, Note_on_c, 3, 55, 100
5, 138480, Note_on_c, 3, 55, 0
5, 138480, Note_on_c, 3, 67, 100
5, 138720, Note_on_c, 3, 67, 0
5, 138720, Note_on_c, 3, 61, 100
5, 139200, Note_on_c, 3, 61, 0
5, 139200, Note_on_c, 3, 62, 100
5, 139680, Note_on_c, 3, 62, 0
5, 140400, Note_on_c, 3, 59, 100
5, 140640, Note_on_c, 3, 59, 0
5, 140640, Note_on_c, 3, 60, 100
5, 140880, Note_on_c, 3, 60, 0
5, 140880, Note_on_c, 3, 62, 100
5, 141120, Note_on_c, 3, 62, 0
5, 141120, Note_on_c, 3, 64, 100
5, 141360, Note_on_c, 3, 64, 0
5, 141360, Note_on_c, 3, 67, 100
5, 141600, Note_on_c, 3, 67, 0
5, 141600, Note_on_c, 3, 66, 100
5, 141840, Note_on_c, 3, 66, 0
5, 141840, Note_on_c, 3, 64, 100
5, 142080, Note_on_c, 3, 64, 0
5, 142080, Note_on_c, 3, 62, 100
5, 142800, Note_on_c, 3, 62, 0
5, 142800, Note_on_c, 3, 60, 100
5, 143040, Note_on_c, 3, 60, 0
5, 143040, Note_on_c, 3, 59, 100
5, 143520, Note_on_c, 3, 59, 0
5, 144240, Note_on_c, 3, 67, 100
5, 144480, Note_on_c, 3, 67, 0
5, 144480, Note_on_c, 3, 66, 100
5, 144720, Note_on_c, 3, 66, 0
5, 144720, Note_on_c, 3, 64, 100
5, 144960, Note_on_c, 3, 64, 0
5, 144960, Note_on_c, 3, 62, 100
5, 145200, Note_on_c, 3, 62, 0
5, 145200, Note_on_c, 3, 59, 100
5, 145440, Note_on_c, 3, 59, 0
5, 145440, Note_on_c, 3, 61, 100
5, 145680, Note_on_c, 3, 61, 0
5, 145680, Note_on_c, 3, 62, 100
5, 145920, Note_on_c, 3, 62, 0
5, 145920, Note_on_c, 3, 55, 100
5, 146160, Note_on_c, 3, 55, 0
5, 146160, Note_on_c, 3, 67, 100
5, 146400, Note_on_c, 3, 67, 0
5, 146400, Note_on_c, 3, 61, 100
5, 146880, Note_on_c, 3, 61, 0
5, 146880, Note_on_c, 3, 62, 100
5, 148800, Note_on_c, 3, 62, 0
5, 148800, Note_on_c, 3, 55, 100
5, 149760, Note_on_c, 3, 55, 0
5, 149760, Note_on_c, 3, 57, 100
5, 150240, Note_on_c, 3, 57, 0
5, 150240, Note_on_c, 3, 60, 100
5, 150720, Note_on_c, 3, 60, 0
5, 150720, Note_on_c, 3, 59, 100
5, 151680, Note_on_c, 3, 59, 0
5, 151680, Note_on_c, 3, 57, 100
5, 152640, Note_on_c, 3, 57, 0
5, 152640, Note_on_c, 3, 55, 100
5, 153600, Note_on_c, 3, 55, 0
5, 153600, Note_on_c, 3, 57, 100
5, 154080, Note_on_c, 3, 57, 0
5, 154080, Note_on_c, 3, 60, 100
5, 154560, Note_on_c, 3, 60, 0
5, 154560, Note_on_c, 3, 59, 100
5, 155520, Note_on_c, 3, 59, 0
5, 155520, Note_on_c, 3, 57, 100
5, 156480, Note_on_c, 3, 57, 0
5, 156480, Note_on_c, 3, 55, 100
5, 157440, Note_on_c, 3, 55, 0
5, 157440, Note_on_c, 3, 57, 100
5, 157920, Note_on_c, 3, 57, 0
5, 157920, Note_on_c, 3, 60, 100
5, 158400, Note_on_c, 3, 60, 0
5, 158400, Note_on_c, 3, 59, 100
5, 159360, Note_on_c, 3, 59, 0
5, 159360, Note_on_c, 3, 57, 100
5, 160320, Note_on_c, 3, 57, 0
5, 160320, Note_on_c, 3, 55, 100
5, 162240, Note_on_c, 3, 55, 0
5, 163200, Note_on_c, 3, 55, 100
5, 164160, Note_on_c, 3, 55, 0
5, 164160, Note_on_c, 3, 54, 100
5, 165120, Note_on_c, 3, 54, 0
5, 165120, Note_on_c, 3, 52, 100
5, 166080, Note_on_c, 3, 52, 0
5, 166080, Note_on_c, 3, 50, 100
5, 167040, Note_on_c, 3, 50, 0
5, 167040, Note_on_c, 3, 47, 100
5, 168000, Note_on_c, 3, 47, 0
5, 168000, Note_on_c, 3, 48, 100
5, 168960, Note_on_c, 3, 48, 0
5, 168960, Note_on_c, 3, 50, 100
5, 169920, Note_on_c, 3, 50, 0
5, 169920, Note_on_c, 3, 43, 100
5, 170880, Note_on_c, 3, 43, 0
5, 170880, Note_on_c, 3, 55, 100
5, 171840, Note_on_c, 3, 55, 0
5, 171840, Note_on_c, 3, 54, 100
5, 172800, Note_on_c, 3, 54, 0
5, 172800, Note_on_c, 3, 52, 100
5, 173760, Note_on_c, 3, 52, 0
5, 173760, Note_on_c, 3, 50, 100
5, 174720, Note_on_c, 3, 50, 0
5, 174720, Note_on_c, 3, 47, 100
5, 175680, Note_on_c, 3, 47, 0
5, 175680, Note_on_c, 3, 48, 100
5, 176640, Note_on_c, 3, 48, 0
5, 176640, Note_on_c, 3, 50, 100
5, 177600, Note_on_c, 3, 50, 0
5, 177600, Note_on_c, 3, 43, 100
5, 178560, Note_on_c, 3, 43, 0
5, 178560, Note_on_c, 3, 55, 100
5, 179520, Note_on_c, 3, 55, 0
5, 179520, Note_on_c, 3, 54, 100
5, 180480, Note_on_c, 3, 54, 0
5, 180480, Note_on_c, 3, 52, 100
5, 181440, Note_on_c, 3, 52, 0
5, 181440, Note_on_c, 3, 50, 100
5, 182400, Note_on_c, 3, 50, 0
5, 182400, Note_on_c, 3, 47, 100
5, 183360, Note_on_c, 3, 47, 0
5, 183360, Note_on_c, 3, 48, 100
5, 184320, Note_on_c, 3, 48, 0
5, 184320, Note_on_c, 3, 50, 100
5, 185280, Note_on_c, 3, 50, 0
5, 185280, Note_on_c, 3, 43, 100
5, 187200, Note_on_c, 3, 43, 0
5, 187200, End_track
6, 0, Start_track
6, 0, MIDI_port, 0
6, 0, Title_t, "14 Canons on the First Eight Notes of the Goldberg Ground"
6, 0, Program_c, 4, 6
6, 0, Control_c, 4, 7, 100
6, 0, Control_c, 4, 10, 79
6, 115680, Note_on_c, 4, 55, 100
6, 116160, Note_on_c, 4, 55, 0
6, 116160, Note_on_c, 4, 54, 100
6, 116640, Note_on_c, 4, 54, 0
6, 116640, Note_on_c, 4, 52, 100
6, 117120, Note_on_c, 4, 52, 0
6, 117120, Note_on_c, 4, 50, 100
6, 117600, Note_on_c, 4, 50, 0
6, 117600, Note_on_c, 4, 47, 100
6, 118080, Note_on_c, 4, 47, 0
6, 118080, Note_on_c, 4, 48, 100
6, 118560, Note_on_c, 4, 48, 0
6, 118560, Note_on_c, 4, 50, 100
6, 119040, Note_on_c, 4, 50, 0
6, 119040, Note_on_c, 4, 43, 100
6, 119520, Note_on_c, 4, 43, 0
6, 119520, Note_on_c, 4, 55, 100
6, 120000, Note_on_c, 4, 55, 0
6, 120000, Note_on_c, 4, 54, 100
6, 120480, Note_on_c, 4, 54, 0
6, 120480, Note_on_c, 4, 52, 100
6, 120960, Note_on_c, 4, 52, 0
6, 120960, Note_on_c, 4, 50, 100
6, 121440, Note_on_c, 4, 50, 0
6, 121440, Note_on_c, 4, 47, 100
6, 121920, Note_on_c, 4, 47, 0
6, 121920, Note_on_c, 4, 48, 100
6, 122400, Note_on_c, 4, 48, 0
6, 122400, Note_on_c, 4, 50, 100
6, 122880, Note_on_c, 4, 50, 0
6, 122880, Note_on_c, 4, 43, 100
6, 123360, Note_on_c, 4, 43, 0
6, 123360, Note_on_c, 4, 55, 100
6, 123840, Note_on_c, 4, 55, 0
6, 123840, Note_on_c, 4, 54, 100
6, 124320, Note_on_c, 4, 54, 0
6, 124320, Note_on_c, 4, 52, 100
6, 124800, Note_on_c, 4, 52, 0
6, 124800, Note_on_c, 4, 50, 100
6, 125280, Note_on_c, 4, 50, 0
6, 125280, Note_on_c, 4, 47, 100
6, 125760, Note_on_c, 4, 47, 0
6, 125760, Note_on_c, 4, 48, 100
6, 126240, Note_on_c, 4, 48, 0
6, 126240, Note_on_c, 4, 50, 100
6, 126720, Note_on_c, 4, 50, 0
6, 126720, Note_on_c, 4, 43, 100
6, 127680, Note_on_c, 4, 43, 0
6, 128640, Note_on_c, 4, 55, 100
6, 129600, Note_on_c, 4, 55, 0
6, 129600, Note_on_c, 4, 54, 100
6, 130560, Note_on_c, 4, 54, 0
6, 130560, Note_on_c, 4, 52, 100
6, 131520, Note_on_c, 4, 52, 0
6, 131520, Note_on_c, 4, 50, 100
6, 132480, Note_on_c, 4, 50, 0
6, 132480, Note_on_c, 4, 47, 100
6, 133440, Note_on_c, 4, 47, 0
6, 133440, Note_on_c, 4, 48, 100
6, 134400, Note_on_c, 4, 48, 0
6, 134400, Note_on_c, 4, 50, 100
6, 135360, Note_on_c, 4, 50, 0
6, 135360, Note_on_c, 4, 43, 100
6, 136320, Note_on_c, 4, 43, 0
6, 136320, Note_on_c, 4, 55, 100
6, 137280, Note_on_c, 4, 55, 0
6, 137280, Note_on_c, 4, 54, 100
6, 138240, Note_on_c, 4, 54, 0
6, 138240, Note_on_c, 4, 52, 100
6, 139200, Note_on_c, 4, 52, 0
6, 139200, Note_on_c, 4, 50, 100
6, 140160, Note_on_c, 4, 50, 0
6, 140160, Note_on_c, 4, 47, 100
6, 141120, Note_on_c, 4, 47, 0
6, 141120, Note_on_c, 4, 48, 100
6, 142080, Note_on_c, 4, 48, 0
6, 142080, Note_on_c, 4, 50, 100
6, 143040, Note_on_c, 4, 50, 0
6, 143040, Note_on_c, 4, 43, 100
6, 144000, Note_on_c, 4, 43, 0
6, 144000, Note_on_c, 4, 55, 100
6, 144960, Note_on_c, 4, 55, 0
6, 144960, Note_on_c, 4, 54, 100
6, 145920, Note_on_c, 4, 54, 0
6, 145920, Note_on_c, 4, 52, 100
6, 146880, Note_on_c, 4, 52, 0
6, 146880, Note_on_c, 4, 50, 100
6, 148800, Note_on_c, 4, 50, 0
6, 151200, Note_on_c, 4, 50, 100
6, 151680, Note_on_c, 4, 50, 0
6, 151680, Note_on_c, 4, 52, 100
6, 152160, Note_on_c, 4, 52, 0
6, 152160, Note_on_c, 4, 54, 100
6, 152640, Note_on_c, 4, 54, 0
6, 152640, Note_on_c, 4, 55, 100
6, 153120, Note_on_c, 4, 55, 0
6, 153120, Note_on_c, 4, 59, 100
6, 153600, Note_on_c, 4, 59, 0
6, 153600, Note_on_c, 4, 57, 100
6, 154080, Note_on_c, 4, 57, 0
6, 154080, Note_on_c, 4, 55, 100
6, 154560, Note_on_c, 4, 55, 0
6, 154560, Note_on_c, 4, 62, 100
6, 155040, Note_on_c, 4, 62, 0
6, 155040, Note_on_c, 4, 50, 100
6, 155520, Note_on_c, 4, 50, 0
6, 155520, Note_on_c, 4, 52, 100
6, 156000, Note_on_c, 4, 52, 0
6, 156000, Note_on_c, 4, 54, 100
6, 156480, Note_on_c, 4, 54, 0
6, 156480, Note_on_c, 4, 55, 100
6, 156960, Note_on_c, 4, 55, 0
6, 156960, Note_on_c, 4, 59, 100
6, 157440, Note_on_c, 4, 59, 0
6, 157440, Note_on_c, 4, 57, 100
6, 157920, Note_on_c, 4, 57, 0
6, 157920, Note_on_c, 4, 55, 100
6, 158400, Note_on_c, 4, 55, 0
6, 158400, Note_on_c, 4, 62, 100
6, 158880, Note_on_c, 4, 62, 0
6, 158880, Note_on_c, 4, 50, 100
6, 159360, Note_on_c, 4, 50, 0
6, 159360, Note_on_c, 4, 52, 100
6, 159840, Note_on_c, 4, 52, 0
6, 159840, Note_on_c, 4, 54, 100
6, 160320, Note_on_c, 4, 54, 0
6, 160320, Note_on_c, 4, 55, 100
6, 162240, Note_on_c, 4, 55, 0
6, 162240, End_track
7, 0, Start_track
7, 0, MIDI_port, 0
7, 0, Title_t, "BWV 1087"
7, 0, Program_c, 5, 6
7, 0, Control_c, 5, 7, 100
7, 0, Control_c, 5, 10, 69
7, 149280, Note_on_c, 5, 55, 100
7, 149760, Note_on_c, 5, 55, 0
7, 149760, Note_on_c, 5, 54, 100
7, 150240, Note_on_c, 5, 54, 0
7, 150240, Note_on_c, 5, 52, 100
7, 150720, Note_on_c, 5, 52, 0
7, 150720, Note_on_c, 5, 50, 100
7, 151200, Note_on_c, 5, 50, 0
7, 151200, Note_on_c, 5, 47, 100
7, 151680, Note_on_c, 5, 47, 0
7, 151680, Note_on_c, 5, 48, 100
7, 152160, Note_on_c, 5, 48, 0
7, 152160, Note_on_c, 5, 50, 100
7, 152640, Note_on_c, 5, 50, 0
7, 152640, Note_on_c, 5, 43, 100
7, 153120, Note_on_c, 5, 43, 0
7, 153120, Note_on_c, 5, 55, 100
7, 153600, Note_on_c, 5, 55, 0
7, 153600, Note_on_c, 5, 54, 100
7, 154080, Note_on_c, 5, 54, 0
7, 154080, Note_on_c, 5, 52, 100
7, 154560, Note_on_c, 5, 52, 0
7, 154560, Note_on_c, 5, 50, 100
7, 155040, Note_on_c, 5, 50, 0
7, 155040, Note_on_c, 5, 47, 100
7, 155520, Note_on_c, 5, 47, 0
7, 155520, Note_on_c, 5, 48, 100
7, 156000, Note_on_c, 5, 48, 0
7, 156000, Note_on_c, 5, 50, 100
7, 156480, Note_on_c, 5, 50, 0
7, 156480, Note_on_c, 5, 43, 100
7, 156960, Note_on_c, 5, 43, 0
7, 156960, Note_on_c, 5, 55, 100
7, 157440, Note_on_c, 5, 55, 0
7, 157440, Note_on_c, 5, 54, 100
7, 157920, Note_on_c, 5, 54, 0
7, 157920, Note_on_c, 5, 52, 100
7, 158400, Note_on_c, 5, 52, 0
7, 158400, Note_on_c, 5, 50, 100
7, 158880, Note_on_c, 5, 50, 0
7, 158880, Note_on_c, 5, 47, 100
7, 159360, Note_on_c, 5, 47, 0
7, 159360, Note_on_c, 5, 48, 100
7, 159840, Note_on_c, 5, 48, 0
7, 159840, Note_on_c, 5, 50, 100
7, 160320, Note_on_c, 5, 50, 0
7, 160320, Note_on_c, 5, 43, 100
7, 162240, Note_on_c, 5, 43, 0
7, 162240, End_track
8, 0, Start_track
8, 0, MIDI_port, 0
8, 0, Title_t, "--------------------------------------"
8, 0, End_track
9, 0, Start_track
9, 0, MIDI_port, 0
9, 0, Title_t, "Sequenced with Cakewalk Pro Audio by"
9, 0, End_track
10, 0, Start_track
10, 0, MIDI_port, 0
10, 0, Title_t, "David J. Grossman - dave@unpronounceable.com"
10, 0, End_track
11, 0, Start_track
11, 0, MIDI_port, 0
11, 0, Title_t, "This and other Bach MIDI files can be found at:"
11, 0, End_track
12, 0, Start_track
12, 0, MIDI_port, 0
12, 0, Title_t, "Dave's J.S. Bach Page"
12, 0, End_track
13, 0, Start_track
13, 0, MIDI_port, 0
13, 0, Title_t, "http://www.unpronounceable.com/bach"
13, 0, End_track
14, 0, Start_track
14, 0, MIDI_port, 0
14, 0, Title_t, "For more info about this work, check out:"
14, 0, End_track
15, 0, Start_track
15, 0, MIDI_port, 0
15, 0, Title_t, "http://jan.ucc.nau.edu/~tas3/bachindex.html"
15, 0, End_track
16, 0, Start_track
16, 0, MIDI_port, 0
16, 0, Title_t, "Original Filename: bwv1087.mid"
16, 0, End_track
17, 0, Start_track
17, 0, MIDI_port, 0
17, 0, Title_t, "Last Modified: October 4, 1997"
17, 0, End_track
0, 0, End_of_file
