0, 0, Header, 1, 19, 384
1, 0, Start_track
1, 0, Time_signature, 4, 2, 96, 8
1, 0, Sequencer_specific, 3, 0, 0, 65
1, 0, Sequencer_specific, 5, 0, 0, 119, 14, 1
1, 0, Tempo, 576923
1, 166644, Tempo, 594059
1, 166648, Tempo, 625000
1, 166656, Tempo, 645161
1, 166660, Tempo, 674157
1, 166664, Tempo, 674157
1, 166668, Tempo, 674157
1, 166676, Tempo, 705882
1, 166688, Tempo, 731707
1, 166692, Tempo, 750000
1, 166696, Tempo, 750000
1, 166700, Tempo, 789473
1, 166708, Tempo, 800000
1, 166712, Tempo, 800000
1, 166720, Tempo, 833333
1, 166724, Tempo, 833333
1, 166728, Tempo, 833333
1, 166732, Tempo, 845070
1, 166740, Tempo, 869565
1, 166744, Tempo, 895522
1, 166752, Tempo, 895522
1, 166756, Tempo, 937500
1, 166764, Tempo, 937500
1, 166772, Tempo, 1000000
1, 166784, Tempo, 1000000
1, 166788, Tempo, 1000000
1, 166796, Tempo, 1016949
1, 166804, Tempo, 1090909
1, 166808, Tempo, 1090909
1, 166820, Tempo, 1132075
1, 166824, Tempo, 1200000
1, 166828, Tempo, 1200000
1, 166836, Tempo, 1250000
1, 166840, Tempo, 1250000
1, 166848, Tempo, 1250000
1, 166892, Tempo, 1250000
1, 166980, Tempo, 1250000
1, 167156, Tempo, 1333333
1, 167200, Tempo, 1250000
1, 167220, Tempo, 1200000
1, 167224, Tempo, 1200000
1, 167232, Tempo, 1153846
1, 167236, Tempo, 1132075
1, 167244, Tempo, 1090909
1, 167256, Tempo, 1090909
1, 167260, Tempo, 1090909
1, 167264, Tempo, 1016949
1, 167268, Tempo, 1000000
1, 167276, Tempo, 1000000
1, 167284, Tempo, 937500
1, 167292, Tempo, 937500
1, 167296, Tempo, 869565
1, 167300, Tempo, 869565
1, 167308, Tempo, 845070
1, 167316, Tempo, 833333
1, 167320, Tempo, 800000
1, 167324, Tempo, 800000
1, 167328, Tempo, 800000
1, 167332, Tempo, 750000
1, 167340, Tempo, 731707
1, 167352, Tempo, 697674
1, 167356, Tempo, 681818
1, 167360, Tempo, 674157
1, 167364, Tempo, 674157
1, 167372, Tempo, 645161
1, 167384, Tempo, 625000
1, 167388, Tempo, 625000
1, 167392, Tempo, 600000
1, 167396, Tempo, 594059
1, 167404, Tempo, 582524
1, 167412, Tempo, 576923
1, 167416, Tempo, 576923
1, 167420, Tempo, 576923
1, 167424, Tempo, 571428
1, 167428, Tempo, 560747
1, 167436, Tempo, 566037
1, 167440, Tempo, 576923
1, 167448, Tempo, 576923
1, 167456, Tempo, 618556
1, 167460, Tempo, 625000
1, 167468, Tempo, 625000
1, 167472, Tempo, 645161
1, 167476, Tempo, 645161
1, 167480, Tempo, 666666
1, 167488, Tempo, 681818
1, 167492, Tempo, 689655
1, 167500, Tempo, 697674
1, 167504, Tempo, 705882
1, 167556, Tempo, 697674
1, 167572, Tempo, 689655
1, 167584, Tempo, 674157
1, 167596, Tempo, 674157
1, 167600, Tempo, 674157
1, 167604, Tempo, 645161
1, 167608, Tempo, 645161
1, 167616, Tempo, 645161
1, 167620, Tempo, 625000
1, 167628, Tempo, 625000
1, 167632, Tempo, 625000
1, 167636, Tempo, 618556
1, 167640, Tempo, 600000
1, 167648, Tempo, 588235
1, 167652, Tempo, 582524
1, 167660, Tempo, 576923
1, 167664, Tempo, 576923
1, 167672, Tempo, 576923
1, 167680, Tempo, 566037
1, 167692, Tempo, 555555
1, 167704, Tempo, 550458
1, 167712, Tempo, 530973
1, 167716, Tempo, 530973
1, 167732, Tempo, 517241
1, 167744, Tempo, 517241
1, 167748, Tempo, 512820
1, 167756, Tempo, 500000
1, 167764, Tempo, 500000
1, 167768, Tempo, 491803
1, 167776, Tempo, 491803
1, 167780, Tempo, 491803
1, 167788, Tempo, 480000
1, 167792, Tempo, 476190
1, 167796, Tempo, 468750
1, 167808, Tempo, 461538
1, 167820, Tempo, 458015
1, 167824, Tempo, 454545
1, 167832, Tempo, 444444
1, 167860, Tempo, 428571
1, 167872, Tempo, 419580
1, 167876, Tempo, 413793
1, 167888, Tempo, 408163
1, 167892, Tempo, 405405
1, 167904, Tempo, 400000
1, 167908, Tempo, 397350
1, 167920, Tempo, 389610
1, 167928, Tempo, 384615
1, 167936, Tempo, 375000
1, 167948, Tempo, 375000
1, 167952, Tempo, 370370
1, 167960, Tempo, 368098
1, 167968, Tempo, 363636
1, 167980, Tempo, 359281
1, 167988, Tempo, 359281
1, 168000, Tempo, 350877
1, 168024, Tempo, 348837
1, 168032, Tempo, 348837
1, 168044, Tempo, 340909
1, 168052, Tempo, 338983
1, 168064, Tempo, 338983
1, 168068, Tempo, 333333
1, 168076, Tempo, 329670
1, 168100, Tempo, 329670
1, 168112, Tempo, 324324
1, 168120, Tempo, 324324
1, 168128, Tempo, 317460
1, 168140, Tempo, 314136
1, 168148, Tempo, 312500
1, 168160, Tempo, 307692
1, 168164, Tempo, 306122
1, 168176, Tempo, 303030
1, 168204, Tempo, 295566
1, 168228, Tempo, 284360
1, 168240, Tempo, 279069
1, 168248, Tempo, 275229
1, 168256, Tempo, 271493
1, 168268, Tempo, 270270
1, 168276, Tempo, 267857
1, 168288, Tempo, 267857
1, 168300, Tempo, 264317
1, 168324, Tempo, 264317
1, 168336, Tempo, 264317
1, 168352, Tempo, 263157
1, 168432, Tempo, 259740
1, 168460, Tempo, 259740
1, 168496, Tempo, 259740
1, 168548, Tempo, 256410
1, 168664, Tempo, 259740
1, 168696, Tempo, 259740
1, 168736, Tempo, 263157
1, 168772, Tempo, 264317
1, 168800, Tempo, 264317
1, 168812, Tempo, 264317
1, 168820, Tempo, 267857
1, 168832, Tempo, 267857
1, 168848, Tempo, 270270
1, 168876, Tempo, 271493
1, 168880, Tempo, 272727
1, 168888, Tempo, 275229
1, 168900, Tempo, 279069
1, 168912, Tempo, 280373
1, 168920, Tempo, 281690
1, 168928, Tempo, 281690
1, 168948, Tempo, 284360
1, 168960, Tempo, 284360
1, 168964, Tempo, 285714
1, 168972, Tempo, 287081
1, 168980, Tempo, 289855
1, 168992, Tempo, 291262
1, 168996, Tempo, 295566
1, 169004, Tempo, 297029
1, 169008, Tempo, 298507
1, 169024, Tempo, 303030
1, 169028, Tempo, 303030
1, 169060, Tempo, 300000
1, 169152, Tempo, 298507
1, 169208, Tempo, 298507
1, 169236, Tempo, 298507
1, 169324, Tempo, 298507
1, 169732, Tempo, 298507
1, 169772, Tempo, 298507
1, 169780, Tempo, 300000
1, 169784, Tempo, 309278
1, 169792, Tempo, 312500
1, 169804, Tempo, 329670
1, 169812, Tempo, 329670
1, 169816, Tempo, 333333
1, 169824, Tempo, 338983
1, 169828, Tempo, 338983
1, 169836, Tempo, 340909
1, 169844, Tempo, 342857
1, 169852, Tempo, 348837
1, 169868, Tempo, 342857
1, 169880, Tempo, 338983
1, 169884, Tempo, 338983
1, 169888, Tempo, 338983
1, 169892, Tempo, 333333
1, 169900, Tempo, 329670
1, 171636, Tempo, 333333
1, 171648, Tempo, 535714
1, 171652, Tempo, 576923
1, 171656, Tempo, 625000
1, 171660, Tempo, 674157
1, 171668, Tempo, 681818
1, 171676, Tempo, 705882
1, 171680, Tempo, 731707
1, 171684, Tempo, 731707
1, 171688, Tempo, 731707
1, 171692, Tempo, 750000
1, 171700, Tempo, 750000
1, 172064, Tempo, 750000
1, 172084, Tempo, 750000
1, 172088, Tempo, 731707
1, 172128, Tempo, 731707
1, 172140, Tempo, 705882
1, 172168, Tempo, 697674
1, 172180, Tempo, 689655
1, 172204, Tempo, 681818
1, 172232, Tempo, 674157
1, 172260, Tempo, 674157
1, 172296, Tempo, 645161
1, 172324, Tempo, 645161
1, 172360, Tempo, 625000
1, 172388, Tempo, 625000
1, 172396, Tempo, 625000
1, 172404, Tempo, 600000
1, 172408, Tempo, 594059
1, 172420, Tempo, 588235
1, 172428, Tempo, 576923
1, 172456, Tempo, 576923
1, 172484, Tempo, 576923
1, 172512, Tempo, 571428
1, 172520, Tempo, 566037
1, 172532, Tempo, 555555
1, 172544, Tempo, 535714
1, 172568, Tempo, 530973
1, 172580, Tempo, 530973
1, 172608, Tempo, 521739
1, 172660, Tempo, 517241
1, 172664, Tempo, 517241
1, 172692, Tempo, 517241
1, 172696, Tempo, 500000
1, 172724, Tempo, 500000
1, 172728, Tempo, 491803
1, 172744, Tempo, 491803
1, 172748, Tempo, 491803
1, 172756, Tempo, 476190
1, 172788, Tempo, 476190
1, 172800, Tempo, 468750
1, 172872, Tempo, 465116
1, 172904, Tempo, 461538
1, 173156, Tempo, 458015
1, 173160, Tempo, 461538
1, 173168, Tempo, 468750
1, 173176, Tempo, 476190
1, 173180, Tempo, 491803
1, 173184, Tempo, 500000
1, 173192, Tempo, 512820
1, 173200, Tempo, 517241
1, 173208, Tempo, 530973
1, 173212, Tempo, 530973
1, 173216, Tempo, 550458
1, 173220, Tempo, 566037
1, 173224, Tempo, 576923
1, 173232, Tempo, 600000
1, 173240, Tempo, 625000
1, 173244, Tempo, 645161
1, 173248, Tempo, 666666
1, 173252, Tempo, 674157
1, 173256, Tempo, 689655
1, 173264, Tempo, 705882
1, 173272, Tempo, 731707
1, 173276, Tempo, 750000
1, 173280, Tempo, 779220
1, 173296, Tempo, 800000
1, 173308, Tempo, 789473
1, 173316, Tempo, 779220
1, 173328, Tempo, 750000
1, 173336, Tempo, 750000
1, 173344, Tempo, 731707
1, 173348, Tempo, 731707
1, 173356, Tempo, 731707
1, 173368, Tempo, 731707
1, 173380, Tempo, 705882
1, 173388, Tempo, 697674
1, 173392, Tempo, 689655
1, 173400, Tempo, 681818
1, 173412, Tempo, 674157
1, 173428, Tempo, 674157
1, 173436, Tempo, 666666
1, 173476, Tempo, 645161
1, 173484, Tempo, 645161
1, 173500, Tempo, 645161
1, 173520, Tempo, 625000
1, 173532, Tempo, 625000
1, 173540, Tempo, 625000
1, 173548, Tempo, 618556
1, 173560, Tempo, 600000
1, 173572, Tempo, 588235
1, 173580, Tempo, 582524
1, 173588, Tempo, 576923
1, 173592, Tempo, 576923
1, 173596, Tempo, 571428
1, 173604, Tempo, 566037
1, 173612, Tempo, 555555
1, 173616, Tempo, 550458
1, 173620, Tempo, 535714
1, 173628, Tempo, 530973
1, 173636, Tempo, 521739
1, 173644, Tempo, 517241
1, 173648, Tempo, 512820
1, 173660, Tempo, 500000
1, 173668, Tempo, 491803
1, 173680, Tempo, 491803
1, 173684, Tempo, 491803
1, 173688, Tempo, 476190
1, 173692, Tempo, 468750
1, 173700, Tempo, 465116
1, 173708, Tempo, 458015
1, 173712, Tempo, 454545
1, 173720, Tempo, 447761
1, 173732, Tempo, 441176
1, 173740, Tempo, 437956
1, 173744, Tempo, 437956
1, 173748, Tempo, 428571
1, 173756, Tempo, 422535
1, 173764, Tempo, 419580
1, 173776, Tempo, 413793
1, 173780, Tempo, 408163
1, 173784, Tempo, 405405
1, 173788, Tempo, 400000
1, 173796, Tempo, 400000
1, 173804, Tempo, 397350
1, 173812, Tempo, 389610
1, 173816, Tempo, 389610
1, 173820, Tempo, 384615
1, 173828, Tempo, 377358
1, 173840, Tempo, 375000
1, 173844, Tempo, 370370
1, 173852, Tempo, 368098
1, 173860, Tempo, 363636
1, 173868, Tempo, 359281
1, 173876, Tempo, 359281
1, 173880, Tempo, 352941
1, 173884, Tempo, 348837
1, 173892, Tempo, 348837
1, 173900, Tempo, 340909
1, 173904, Tempo, 338983
1, 173908, Tempo, 338983
1, 173916, Tempo, 333333
1, 173924, Tempo, 324324
1, 173932, Tempo, 322580
1, 173936, Tempo, 315789
1, 173940, Tempo, 312500
1, 173944, Tempo, 309278
1, 173948, Tempo, 306122
1, 173956, Tempo, 300000
1, 173960, Tempo, 298507
1, 173980, Tempo, 298507
1, 173984, Tempo, 298507
1, 173996, Tempo, 297029
1, 174032, Tempo, 295566
1, 174048, Tempo, 291262
1, 174064, Tempo, 289855
1, 174076, Tempo, 289855
1, 174080, Tempo, 287081
1, 174092, Tempo, 285714
1, 174096, Tempo, 284360
1, 174108, Tempo, 281690
1, 174120, Tempo, 279069
1, 174124, Tempo, 275229
1, 174132, Tempo, 275229
1, 174140, Tempo, 272727
1, 174144, Tempo, 271493
1, 174156, Tempo, 270270
1, 174172, Tempo, 269058
1, 174280, Tempo, 270270
1, 174336, Tempo, 271493
1, 174440, Tempo, 281690
1, 174524, Tempo, 281690
1, 174568, Tempo, 284360
1, 174580, Tempo, 285714
1, 174588, Tempo, 287081
1, 174592, Tempo, 289855
1, 174600, Tempo, 291262
1, 174604, Tempo, 297029
1, 174608, Tempo, 298507
1, 174612, Tempo, 303030
1, 174620, Tempo, 314136
1, 174624, Tempo, 324324
1, 174632, Tempo, 329670
1, 174636, Tempo, 329670
1, 174640, Tempo, 333333
1, 174644, Tempo, 348837
1, 174652, Tempo, 368098
1, 174656, Tempo, 375000
1, 174664, Tempo, 384615
1, 174696, Tempo, 384615
1, 174704, Tempo, 377358
1, 174768, Tempo, 375000
1, 174808, Tempo, 375000
1, 174840, Tempo, 370370
1, 174872, Tempo, 368098
1, 174940, Tempo, 368098
1, 174952, Tempo, 363636
1, 174968, Tempo, 363636
1, 174980, Tempo, 359281
1, 174984, Tempo, 359281
1, 175012, Tempo, 359281
1, 175016, Tempo, 352941
1, 175044, Tempo, 350877
1, 175052, Tempo, 348837
1, 175064, Tempo, 348837
1, 175088, Tempo, 348837
1, 175096, Tempo, 342857
1, 175100, Tempo, 340909
1, 175120, Tempo, 338983
1, 175132, Tempo, 338983
1, 175144, Tempo, 338983
1, 175160, Tempo, 333333
1, 175192, Tempo, 333333
1, 175208, Tempo, 329670
1, 175244, Tempo, 329670
1, 175324, Tempo, 329670
1, 175468, Tempo, 329670
1, 175576, Tempo, 333333
1, 175664, Tempo, 338983
1, 175708, Tempo, 338983
1, 175736, Tempo, 338983
1, 175740, Tempo, 340909
1, 175768, Tempo, 352941
1, 175800, Tempo, 359281
1, 175804, Tempo, 368098
1, 175820, Tempo, 368098
1, 176188, Tempo, 368098
1, 176212, Tempo, 363636
1, 176228, Tempo, 363636
1, 176236, Tempo, 359281
1, 176244, Tempo, 359281
1, 176264, Tempo, 359281
1, 176276, Tempo, 352941
1, 176288, Tempo, 350877
1, 176296, Tempo, 348837
1, 176308, Tempo, 348837
1, 176316, Tempo, 348837
1, 176332, Tempo, 342857
1, 176388, Tempo, 340909
1, 176444, Tempo, 338983
1, 176828, Tempo, 340909
1, 176864, Tempo, 342857
1, 176900, Tempo, 348837
1, 176956, Tempo, 348837
1, 177044, Tempo, 350877
1, 177084, Tempo, 352941
1, 177120, Tempo, 359281
1, 177156, Tempo, 359281
1, 177184, Tempo, 363636
1, 177212, Tempo, 363636
1, 177236, Tempo, 368098
1, 177276, Tempo, 368098
1, 177312, Tempo, 370370
1, 177356, Tempo, 375000
1, 177364, Tempo, 375000
1, 177376, Tempo, 384615
1, 177380, Tempo, 384615
1, 177384, Tempo, 389610
1, 177388, Tempo, 397350
1, 177396, Tempo, 405405
1, 177404, Tempo, 422535
1, 177408, Tempo, 437956
1, 177416, Tempo, 465116
1, 177424, Tempo, 476190
1, 177428, Tempo, 491803
1, 177432, Tempo, 491803
1, 177436, Tempo, 500000
1, 177440, Tempo, 517241
1, 177448, Tempo, 521739
1, 177456, Tempo, 535714
1, 177460, Tempo, 560747
1, 177464, Tempo, 582524
1, 177468, Tempo, 576923
1, 259572, Tempo, 582524
1, 259576, Tempo, 588235
1, 259588, Tempo, 612244
1, 259592, Tempo, 618556
1, 259608, Tempo, 625000
1, 259620, Tempo, 645161
1, 259668, Tempo, 645161
1, 259684, Tempo, 645161
1, 259696, Tempo, 638297
1, 259768, Tempo, 645161
1, 259780, Tempo, 638297
1, 259812, Tempo, 625000
1, 259844, Tempo, 625000
1, 259856, Tempo, 618556
1, 259896, Tempo, 625000
1, 259952, Tempo, 618556
1, 260240, Tempo, 625000
1, 260248, Tempo, 625000
1, 260260, Tempo, 638297
1, 260276, Tempo, 645161
1, 260324, Tempo, 638297
1, 260336, Tempo, 625000
1, 260344, Tempo, 625000
1, 260360, Tempo, 618556
1, 260420, Tempo, 625000
1, 260452, Tempo, 638297
1, 260532, Tempo, 625000
1, 260600, Tempo, 618556
1, 261508, Tempo, 625000
1, 261520, Tempo, 625000
1, 261536, Tempo, 638297
1, 261544, Tempo, 645161
1, 261584, Tempo, 645161
1, 261608, Tempo, 659340
1, 261696, Tempo, 674157
1, 261808, Tempo, 666666
1, 261848, Tempo, 659340
1, 261912, Tempo, 645161
1, 261928, Tempo, 645161
1, 261968, Tempo, 638297
1, 261976, Tempo, 625000
1, 261988, Tempo, 618556
1, 262008, Tempo, 612244
1, 262016, Tempo, 600000
1, 262024, Tempo, 594059
1, 262032, Tempo, 588235
1, 262040, Tempo, 582524
1, 262088, Tempo, 576923
1, 262360, Tempo, 588235
1, 262424, Tempo, 594059
1, 262456, Tempo, 600000
1, 262480, Tempo, 612244
1, 262508, Tempo, 618556
1, 262536, Tempo, 625000
1, 262572, Tempo, 625000
1, 262648, Tempo, 638297
1, 262656, Tempo, 645161
1, 262680, Tempo, 645161
1, 263044, Tempo, 659340
1, 263076, Tempo, 645161
1, 263084, Tempo, 645161
1, 263096, Tempo, 625000
1, 263108, Tempo, 625000
1, 263112, Tempo, 618556
1, 263120, Tempo, 612244
1, 263128, Tempo, 600000
1, 263180, Tempo, 594059
1, 263208, Tempo, 588235
1, 263212, Tempo, 582524
1, 263216, Tempo, 588235
1, 263220, Tempo, 594059
1, 263232, Tempo, 600000
1, 263236, Tempo, 612244
1, 263352, Tempo, 618556
1, 263384, Tempo, 625000
1, 263428, Tempo, 625000
1, 263860, Tempo, 638297
1, 263968, Tempo, 645161
1, 267260, Tempo, 645161
1, 267272, Tempo, 659340
1, 267312, Tempo, 666666
1, 267336, Tempo, 674157
1, 267368, Tempo, 674157
1, 267376, Tempo, 681818
1, 267392, Tempo, 689655
1, 267484, Tempo, 681818
1, 267500, Tempo, 674157
1, 267528, Tempo, 674157
1, 267548, Tempo, 666666
1, 267560, Tempo, 659340
1, 267572, Tempo, 645161
1, 267616, Tempo, 645161
1, 267656, Tempo, 638297
1, 267692, Tempo, 625000
1, 267820, Tempo, 638297
1, 267848, Tempo, 645161
1, 267872, Tempo, 645161
1, 267888, Tempo, 659340
1, 267956, Tempo, 666666
1, 268000, Tempo, 674157
1, 268012, Tempo, 674157
1, 268044, Tempo, 681818
1, 268080, Tempo, 689655
1, 268108, Tempo, 697674
1, 268392, Tempo, 689655
1, 268488, Tempo, 681818
1, 268648, Tempo, 674157
1, 268660, Tempo, 674157
1, 268684, Tempo, 666666
1, 268692, Tempo, 659340
1, 268700, Tempo, 645161
1, 268712, Tempo, 645161
1, 268716, Tempo, 638297
1, 268720, Tempo, 625000
1, 268732, Tempo, 625000
1, 268756, Tempo, 618556
1, 268768, Tempo, 612244
1, 268776, Tempo, 576923
1, 295388, Tempo, 582524
1, 295400, Tempo, 588235
1, 295416, Tempo, 594059
1, 295448, Tempo, 600000
1, 295472, Tempo, 612244
1, 295496, Tempo, 618556
1, 295512, Tempo, 625000
1, 295536, Tempo, 625000
1, 295612, Tempo, 638297
1, 295740, Tempo, 645161
1, 295804, Tempo, 645161
1, 295832, Tempo, 659340
1, 295864, Tempo, 666666
1, 295916, Tempo, 674157
1, 295932, Tempo, 674157
1, 295948, Tempo, 681818
1, 295960, Tempo, 689655
1, 296012, Tempo, 697674
1, 296044, Tempo, 705882
1, 296060, Tempo, 722891
1, 296444, Tempo, 731707
1, 296472, Tempo, 750000
1, 296484, Tempo, 750000
1, 296484, End_track
2, 0, Start_track
2, 0, Title_t, "Sequence begun by David J. Grossman"
2, 0, Key_signature, 0, "major"
2, 0, End_track
3, 0, Start_track
3, 0, Title_t, "Modified & completed by T.L. Hubeart"
3, 0, Key_signature, 0, "major"
3, 0, End_track
4, 0, Start_track
4, 0, Title_t, "Violin I"
4, 0, Control_c, 0, 0, 0
4, 0, Program_c, 0, 40
4, 0, Control_c, 0, 7, 97
4, 0, Control_c, 0, 10, 127
4, 0, Control_c, 0, 93, 0
4, 0, Key_signature, -1, "minor"
4, 0, Note_on_c, 0, 62, 100
4, 96, Note_off_c, 0, 62, 0
4, 96, Note_on_c, 0, 64, 100
4, 192, Note_off_c, 0, 64, 0
4, 192, Note_on_c, 0, 65, 100
4, 320, Note_off_c, 0, 65, 0
4, 384, Note_on_c, 0, 64, 100
4, 576, Note_off_c, 0, 64, 0
4, 576, Note_on_c, 0, 62, 100
4, 768, Note_off_c, 0, 62, 0
4, 768, Note_on_c, 0, 69, 100
4, 960, Note_off_c, 0, 69, 0
4, 960, Note_on_c, 0, 74, 100
4, 1344, Note_off_c, 0, 74, 0
4, 1344, Note_on_c, 0, 69, 100
4, 1536, Note_off_c, 0, 69, 0
4, 1536, Note_on_c, 0, 70, 100
4, 1724, Note_off_c, 0, 70, 0
4, 1728, Note_on_c, 0, 67, 100
4, 1820, Note_off_c, 0, 67, 0
4, 1824, Note_on_c, 0, 64, 100
4, 1916, Note_off_c, 0, 64, 0
4, 1920, Note_on_c, 0, 69, 100
4, 2108, Note_off_c, 0, 69, 0
4, 2112, Note_on_c, 0, 65, 100
4, 2204, Note_off_c, 0, 65, 0
4, 2208, Note_on_c, 0, 62, 100
4, 2300, Note_off_c, 0, 62, 0
4, 2304, Note_on_c, 0, 67, 100
4, 2492, Note_off_c, 0, 67, 0
4, 2496, Note_on_c, 0, 64, 100
4, 2588, Note_off_c, 0, 64, 0
4, 2592, Note_on_c, 0, 61, 100
4, 2684, Note_off_c, 0, 61, 0
4, 2688, Note_on_c, 0, 57, 100
4, 2816, Note_off_c, 0, 57, 0
4, 2880, Note_on_c, 0, 70, 100
4, 3260, Note_off_c, 0, 70, 0
4, 3264, Note_on_c, 0, 67, 100
4, 3356, Note_off_c, 0, 67, 0
4, 3360, Note_on_c, 0, 64, 100
4, 3452, Note_off_c, 0, 64, 0
4, 3456, Note_on_c, 0, 57, 100
4, 3584, Note_off_c, 0, 57, 0
4, 3648, Note_on_c, 0, 73, 100
4, 4028, Note_off_c, 0, 73, 0
4, 4032, Note_on_c, 0, 70, 100
4, 4124, Note_off_c, 0, 70, 0
4, 4128, Note_on_c, 0, 67, 100
4, 4220, Note_off_c, 0, 67, 0
4, 4224, Note_on_c, 0, 57, 100
4, 4352, Note_off_c, 0, 57, 0
4, 4416, Note_on_c, 0, 76, 100
4, 4796, Note_off_c, 0, 76, 0
4, 4800, Note_on_c, 0, 73, 100
4, 4892, Note_off_c, 0, 73, 0
4, 4896, Note_on_c, 0, 69, 100
4, 4988, Note_off_c, 0, 69, 0
4, 4992, Note_on_c, 0, 70, 100
4, 5084, Note_off_c, 0, 70, 0
4, 5088, Note_on_c, 0, 67, 100
4, 5180, Note_off_c, 0, 67, 0
4, 5184, Note_on_c, 0, 69, 100
4, 5276, Note_off_c, 0, 69, 0
4, 5280, Note_on_c, 0, 65, 100
4, 5372, Note_off_c, 0, 65, 0
4, 5376, Note_on_c, 0, 67, 100
4, 5468, Note_off_c, 0, 67, 0
4, 5472, Note_on_c, 0, 64, 100
4, 5564, Note_off_c, 0, 64, 0
4, 5568, Note_on_c, 0, 65, 100
4, 5660, Note_off_c, 0, 65, 0
4, 5664, Note_on_c, 0, 62, 100
4, 5756, Note_off_c, 0, 62, 0
4, 5760, Note_on_c, 0, 64, 100
4, 5852, Note_off_c, 0, 64, 0
4, 5856, Note_on_c, 0, 61, 100
4, 5948, Note_off_c, 0, 61, 0
4, 5952, Note_on_c, 0, 62, 100
4, 6044, Note_off_c, 0, 62, 0
4, 6048, Note_on_c, 0, 59, 100
4, 6140, Note_off_c, 0, 59, 0
4, 6144, Note_on_c, 0, 61, 100
4, 6236, Note_off_c, 0, 61, 0
4, 6240, Note_on_c, 0, 57, 100
4, 6332, Note_off_c, 0, 57, 0
4, 6336, Note_on_c, 0, 59, 100
4, 6428, Note_off_c, 0, 59, 0
4, 6432, Note_on_c, 0, 61, 100
4, 6524, Note_off_c, 0, 61, 0
4, 6528, Note_on_c, 0, 62, 100
4, 6620, Note_off_c, 0, 62, 0
4, 6624, Note_on_c, 0, 64, 100
4, 6716, Note_off_c, 0, 64, 0
4, 6720, Note_on_c, 0, 65, 100
4, 6812, Note_off_c, 0, 65, 0
4, 6816, Note_on_c, 0, 67, 100
4, 6908, Note_off_c, 0, 67, 0
4, 6912, Note_on_c, 0, 69, 100
4, 7004, Note_off_c, 0, 69, 0
4, 7008, Note_on_c, 0, 70, 100
4, 7100, Note_off_c, 0, 70, 0
4, 7104, Note_on_c, 0, 72, 100
4, 7232, Note_off_c, 0, 72, 0
4, 7296, Note_on_c, 0, 72, 100
4, 7388, Note_off_c, 0, 72, 0
4, 7392, Note_on_c, 0, 74, 100
4, 7484, Note_off_c, 0, 74, 0
4, 7488, Note_on_c, 0, 75, 100
4, 7616, Note_off_c, 0, 75, 0
4, 7680, Note_on_c, 0, 66, 100
4, 7788, Note_off_c, 0, 66, 0
4, 7872, Note_on_c, 0, 67, 100
4, 7980, Note_off_c, 0, 67, 0
4, 8064, Note_on_c, 0, 61, 100
4, 8172, Note_off_c, 0, 61, 0
4, 8256, Note_on_c, 0, 62, 100
4, 8364, Note_off_c, 0, 62, 0
4, 8448, Note_on_c, 0, 56, 100
4, 8636, Note_off_c, 0, 56, 0
4, 8832, Note_on_c, 0, 57, 100
4, 9020, Note_off_c, 0, 57, 0
4, 9216, Note_on_c, 0, 62, 85
4, 9404, Note_off_c, 0, 62, 0
4, 9600, Note_on_c, 0, 74, 85
4, 9788, Note_off_c, 0, 74, 0
4, 9792, Note_on_c, 0, 73, 85
4, 9980, Note_off_c, 0, 73, 0
4, 10368, Note_on_c, 0, 77, 85
4, 10556, Note_off_c, 0, 77, 0
4, 10560, Note_on_c, 0, 76, 85
4, 10748, Note_off_c, 0, 76, 0
4, 11136, Note_on_c, 0, 81, 85
4, 11324, Note_off_c, 0, 81, 0
4, 11328, Note_on_c, 0, 79, 85
4, 11516, Note_off_c, 0, 79, 0
4, 11904, Note_on_c, 0, 77, 85
4, 12092, Note_off_c, 0, 77, 0
4, 12096, Note_on_c, 0, 76, 85
4, 12284, Note_off_c, 0, 76, 0
4, 12672, Note_on_c, 0, 74, 85
4, 12860, Note_off_c, 0, 74, 0
4, 12864, Note_on_c, 0, 73, 85
4, 13052, Note_off_c, 0, 73, 0
4, 13440, Note_on_c, 0, 74, 85
4, 13628, Note_off_c, 0, 74, 0
4, 13632, Note_on_c, 0, 73, 85
4, 13820, Note_off_c, 0, 73, 0
4, 14208, Note_on_c, 0, 67, 85
4, 14396, Note_off_c, 0, 67, 0
4, 14400, Note_on_c, 0, 64, 85
4, 14588, Note_off_c, 0, 64, 0
4, 14976, Note_on_c, 0, 65, 85
4, 15164, Note_off_c, 0, 65, 0
4, 15168, Note_on_c, 0, 64, 85
4, 15356, Note_off_c, 0, 64, 0
4, 15744, Note_on_c, 0, 62, 85
4, 15932, Note_off_c, 0, 62, 0
4, 15936, Note_on_c, 0, 61, 85
4, 16124, Note_off_c, 0, 61, 0
4, 16128, Note_on_c, 0, 62, 85
4, 16508, Note_off_c, 0, 62, 0
4, 18432, Note_on_c, 0, 62, 100
4, 18528, Note_off_c, 0, 62, 0
4, 18528, Note_on_c, 0, 64, 100
4, 18624, Note_off_c, 0, 64, 0
4, 18624, Note_on_c, 0, 65, 100
4, 18752, Note_off_c, 0, 65, 0
4, 18816, Note_on_c, 0, 64, 100
4, 19008, Note_off_c, 0, 64, 0
4, 19008, Note_on_c, 0, 62, 100
4, 19200, Note_off_c, 0, 62, 0
4, 19200, Note_on_c, 0, 69, 100
4, 19392, Note_off_c, 0, 69, 0
4, 19392, Note_on_c, 0, 74, 100
4, 19776, Note_off_c, 0, 74, 0
4, 19776, Note_on_c, 0, 69, 100
4, 19968, Note_off_c, 0, 69, 0
4, 19968, Note_on_c, 0, 70, 100
4, 20156, Note_off_c, 0, 70, 0
4, 20160, Note_on_c, 0, 67, 100
4, 20252, Note_off_c, 0, 67, 0
4, 20256, Note_on_c, 0, 64, 100
4, 20348, Note_off_c, 0, 64, 0
4, 20352, Note_on_c, 0, 69, 100
4, 20540, Note_off_c, 0, 69, 0
4, 20544, Note_on_c, 0, 65, 100
4, 20636, Note_off_c, 0, 65, 0
4, 20640, Note_on_c, 0, 62, 100
4, 20732, Note_off_c, 0, 62, 0
4, 20736, Note_on_c, 0, 67, 100
4, 20924, Note_off_c, 0, 67, 0
4, 20928, Note_on_c, 0, 64, 100
4, 21020, Note_off_c, 0, 64, 0
4, 21024, Note_on_c, 0, 61, 100
4, 21116, Note_off_c, 0, 61, 0
4, 21120, Note_on_c, 0, 57, 100
4, 21248, Note_off_c, 0, 57, 0
4, 21312, Note_on_c, 0, 70, 100
4, 21692, Note_off_c, 0, 70, 0
4, 21696, Note_on_c, 0, 67, 100
4, 21788, Note_off_c, 0, 67, 0
4, 21792, Note_on_c, 0, 64, 100
4, 21884, Note_off_c, 0, 64, 0
4, 21888, Note_on_c, 0, 57, 100
4, 22016, Note_off_c, 0, 57, 0
4, 22080, Note_on_c, 0, 73, 100
4, 22460, Note_off_c, 0, 73, 0
4, 22464, Note_on_c, 0, 70, 100
4, 22556, Note_off_c, 0, 70, 0
4, 22560, Note_on_c, 0, 67, 100
4, 22652, Note_off_c, 0, 67, 0
4, 22656, Note_on_c, 0, 57, 100
4, 22784, Note_off_c, 0, 57, 0
4, 22848, Note_on_c, 0, 76, 100
4, 23228, Note_off_c, 0, 76, 0
4, 23232, Note_on_c, 0, 73, 100
4, 23324, Note_off_c, 0, 73, 0
4, 23328, Note_on_c, 0, 69, 100
4, 23420, Note_off_c, 0, 69, 0
4, 23424, Note_on_c, 0, 70, 100
4, 23516, Note_off_c, 0, 70, 0
4, 23520, Note_on_c, 0, 67, 100
4, 23612, Note_off_c, 0, 67, 0
4, 23616, Note_on_c, 0, 69, 100
4, 23708, Note_off_c, 0, 69, 0
4, 23712, Note_on_c, 0, 65, 100
4, 23804, Note_off_c, 0, 65, 0
4, 23808, Note_on_c, 0, 67, 100
4, 23900, Note_off_c, 0, 67, 0
4, 23904, Note_on_c, 0, 64, 100
4, 23996, Note_off_c, 0, 64, 0
4, 24000, Note_on_c, 0, 65, 100
4, 24092, Note_off_c, 0, 65, 0
4, 24096, Note_on_c, 0, 62, 100
4, 24188, Note_off_c, 0, 62, 0
4, 24192, Note_on_c, 0, 64, 100
4, 24284, Note_off_c, 0, 64, 0
4, 24288, Note_on_c, 0, 61, 100
4, 24380, Note_off_c, 0, 61, 0
4, 24384, Note_on_c, 0, 62, 100
4, 24476, Note_off_c, 0, 62, 0
4, 24480, Note_on_c, 0, 59, 100
4, 24572, Note_off_c, 0, 59, 0
4, 24576, Note_on_c, 0, 61, 100
4, 24668, Note_off_c, 0, 61, 0
4, 24672, Note_on_c, 0, 57, 100
4, 24764, Note_off_c, 0, 57, 0
4, 24768, Note_on_c, 0, 59, 100
4, 24860, Note_off_c, 0, 59, 0
4, 24864, Note_on_c, 0, 61, 100
4, 24956, Note_off_c, 0, 61, 0
4, 24960, Note_on_c, 0, 62, 100
4, 25052, Note_off_c, 0, 62, 0
4, 25056, Note_on_c, 0, 64, 100
4, 25148, Note_off_c, 0, 64, 0
4, 25152, Note_on_c, 0, 65, 100
4, 25244, Note_off_c, 0, 65, 0
4, 25248, Note_on_c, 0, 67, 100
4, 25340, Note_off_c, 0, 67, 0
4, 25344, Note_on_c, 0, 69, 100
4, 25436, Note_off_c, 0, 69, 0
4, 25440, Note_on_c, 0, 70, 100
4, 25532, Note_off_c, 0, 70, 0
4, 25536, Note_on_c, 0, 72, 100
4, 25664, Note_off_c, 0, 72, 0
4, 25728, Note_on_c, 0, 72, 100
4, 25820, Note_off_c, 0, 72, 0
4, 25824, Note_on_c, 0, 74, 100
4, 25916, Note_off_c, 0, 74, 0
4, 25920, Note_on_c, 0, 75, 100
4, 26048, Note_off_c, 0, 75, 0
4, 26112, Note_on_c, 0, 66, 100
4, 26300, Note_off_c, 0, 66, 0
4, 26304, Note_on_c, 0, 67, 100
4, 26492, Note_off_c, 0, 67, 0
4, 26880, Note_on_c, 0, 64, 100
4, 27068, Note_off_c, 0, 64, 0
4, 27072, Note_on_c, 0, 65, 100
4, 27260, Note_off_c, 0, 65, 0
4, 27648, Note_on_c, 0, 77, 100
4, 28028, Note_off_c, 0, 77, 0
4, 28416, Note_on_c, 0, 74, 100
4, 28796, Note_off_c, 0, 74, 0
4, 29184, Note_on_c, 0, 64, 100
4, 29372, Note_off_c, 0, 64, 0
4, 29376, Note_on_c, 0, 66, 100
4, 29468, Note_off_c, 0, 66, 0
4, 29472, Note_on_c, 0, 68, 100
4, 29564, Note_off_c, 0, 68, 0
4, 29568, Note_on_c, 0, 69, 100
4, 29660, Note_off_c, 0, 69, 0
4, 29664, Note_on_c, 0, 71, 100
4, 29756, Note_off_c, 0, 71, 0
4, 29760, Note_on_c, 0, 72, 100
4, 29852, Note_off_c, 0, 72, 0
4, 29856, Note_on_c, 0, 74, 100
4, 29948, Note_off_c, 0, 74, 0
4, 29952, Note_on_c, 0, 76, 100
4, 30044, Note_off_c, 0, 76, 0
4, 30048, Note_on_c, 0, 77, 100
4, 30140, Note_off_c, 0, 77, 0
4, 30144, Note_on_c, 0, 79, 100
4, 30272, Note_off_c, 0, 79, 0
4, 30336, Note_on_c, 0, 79, 100
4, 30428, Note_off_c, 0, 79, 0
4, 30432, Note_on_c, 0, 81, 100
4, 30524, Note_off_c, 0, 81, 0
4, 30528, Note_on_c, 0, 82, 100
4, 30656, Note_off_c, 0, 82, 0
4, 30720, Note_on_c, 0, 73, 100
4, 30828, Note_off_c, 0, 73, 0
4, 30912, Note_on_c, 0, 74, 100
4, 31020, Note_off_c, 0, 74, 0
4, 31104, Note_on_c, 0, 68, 100
4, 31212, Note_off_c, 0, 68, 0
4, 31296, Note_on_c, 0, 69, 100
4, 31404, Note_off_c, 0, 69, 0
4, 31488, Note_on_c, 0, 63, 100
4, 31676, Note_off_c, 0, 63, 0
4, 31872, Note_on_c, 0, 64, 100
4, 32060, Note_off_c, 0, 64, 0
4, 32256, Note_on_c, 0, 57, 100
4, 32444, Note_off_c, 0, 57, 0
4, 32640, Note_on_c, 0, 69, 85
4, 32828, Note_off_c, 0, 69, 0
4, 32832, Note_on_c, 0, 68, 85
4, 33020, Note_off_c, 0, 68, 0
4, 33408, Note_on_c, 0, 72, 85
4, 33596, Note_off_c, 0, 72, 0
4, 33600, Note_on_c, 0, 71, 85
4, 33788, Note_off_c, 0, 71, 0
4, 34176, Note_on_c, 0, 76, 85
4, 34364, Note_off_c, 0, 76, 0
4, 34368, Note_on_c, 0, 74, 85
4, 34556, Note_off_c, 0, 74, 0
4, 34944, Note_on_c, 0, 72, 85
4, 35132, Note_off_c, 0, 72, 0
4, 35136, Note_on_c, 0, 71, 85
4, 35324, Note_off_c, 0, 71, 0
4, 35712, Note_on_c, 0, 69, 85
4, 35900, Note_off_c, 0, 69, 0
4, 35904, Note_on_c, 0, 68, 85
4, 36092, Note_off_c, 0, 68, 0
4, 36480, Note_on_c, 0, 69, 85
4, 36668, Note_off_c, 0, 69, 0
4, 36672, Note_on_c, 0, 68, 85
4, 36860, Note_off_c, 0, 68, 0
4, 37248, Note_on_c, 0, 62, 85
4, 37436, Note_off_c, 0, 62, 0
4, 37440, Note_on_c, 0, 59, 85
4, 37628, Note_off_c, 0, 59, 0
4, 38016, Note_on_c, 0, 59, 85
4, 38204, Note_off_c, 0, 59, 0
4, 38208, Note_on_c, 0, 56, 85
4, 38396, Note_off_c, 0, 56, 0
4, 38400, Note_on_c, 0, 57, 85
4, 38780, Note_off_c, 0, 57, 0
4, 41472, Note_on_c, 0, 69, 85
4, 41568, Note_off_c, 0, 69, 0
4, 41568, Note_on_c, 0, 71, 85
4, 41664, Note_off_c, 0, 71, 0
4, 41664, Note_on_c, 0, 72, 85
4, 41772, Note_off_c, 0, 72, 0
4, 41856, Note_on_c, 0, 71, 85
4, 42048, Note_off_c, 0, 71, 0
4, 42048, Note_on_c, 0, 69, 85
4, 42240, Note_off_c, 0, 69, 0
4, 42240, Note_on_c, 0, 76, 85
4, 42432, Note_off_c, 0, 76, 0
4, 42432, Note_on_c, 0, 81, 85
4, 42812, Note_off_c, 0, 81, 0
4, 42816, Note_on_c, 0, 73, 85
4, 43008, Note_off_c, 0, 73, 0
4, 43008, Note_on_c, 0, 74, 85
4, 43200, Note_off_c, 0, 74, 0
4, 43392, Note_on_c, 0, 77, 85
4, 43584, Note_off_c, 0, 77, 0
4, 43776, Note_on_c, 0, 74, 85
4, 43968, Note_off_c, 0, 74, 0
4, 44160, Note_on_c, 0, 69, 85
4, 44352, Note_off_c, 0, 69, 0
4, 44544, Note_on_c, 0, 67, 85
4, 44640, Note_off_c, 0, 67, 0
4, 44640, Note_on_c, 0, 69, 85
4, 44736, Note_off_c, 0, 69, 0
4, 44736, Note_on_c, 0, 70, 85
4, 44844, Note_off_c, 0, 70, 0
4, 44928, Note_on_c, 0, 69, 85
4, 45120, Note_off_c, 0, 69, 0
4, 45120, Note_on_c, 0, 67, 85
4, 45312, Note_off_c, 0, 67, 0
4, 45312, Note_on_c, 0, 74, 85
4, 45504, Note_off_c, 0, 74, 0
4, 45504, Note_on_c, 0, 79, 85
4, 45884, Note_off_c, 0, 79, 0
4, 45888, Note_on_c, 0, 71, 85
4, 46080, Note_off_c, 0, 71, 0
4, 46080, Note_on_c, 0, 72, 85
4, 46272, Note_off_c, 0, 72, 0
4, 46464, Note_on_c, 0, 76, 85
4, 46656, Note_off_c, 0, 76, 0
4, 46848, Note_on_c, 0, 72, 85
4, 47040, Note_off_c, 0, 72, 0
4, 47232, Note_on_c, 0, 67, 85
4, 47424, Note_off_c, 0, 67, 0
4, 47616, Note_on_c, 0, 65, 85
4, 47712, Note_off_c, 0, 65, 0
4, 47712, Note_on_c, 0, 67, 85
4, 47808, Note_off_c, 0, 67, 0
4, 47808, Note_on_c, 0, 69, 85
4, 47916, Note_off_c, 0, 69, 0
4, 48000, Note_on_c, 0, 67, 85
4, 48192, Note_off_c, 0, 67, 0
4, 48192, Note_on_c, 0, 65, 85
4, 48384, Note_off_c, 0, 65, 0
4, 48384, Note_on_c, 0, 72, 85
4, 48576, Note_off_c, 0, 72, 0
4, 48576, Note_on_c, 0, 77, 85
4, 48956, Note_off_c, 0, 77, 0
4, 48960, Note_on_c, 0, 69, 85
4, 49152, Note_off_c, 0, 69, 0
4, 49152, Note_on_c, 0, 70, 85
4, 49344, Note_off_c, 0, 70, 0
4, 49536, Note_on_c, 0, 74, 85
4, 49728, Note_off_c, 0, 74, 0
4, 49920, Note_on_c, 0, 70, 85
4, 50112, Note_off_c, 0, 70, 0
4, 50304, Note_on_c, 0, 65, 85
4, 50496, Note_off_c, 0, 65, 0
4, 50688, Note_on_c, 0, 64, 85
4, 50880, Note_off_c, 0, 64, 0
4, 50880, Note_on_c, 0, 64, 85
4, 51072, Note_off_c, 0, 64, 0
4, 51072, Note_on_c, 0, 68, 85
4, 51264, Note_off_c, 0, 68, 0
4, 51264, Note_on_c, 0, 68, 85
4, 51456, Note_off_c, 0, 68, 0
4, 51456, Note_on_c, 0, 69, 85
4, 51648, Note_off_c, 0, 69, 0
4, 51648, Note_on_c, 0, 69, 85
4, 51840, Note_off_c, 0, 69, 0
4, 51840, Note_on_c, 0, 72, 85
4, 52032, Note_off_c, 0, 72, 0
4, 52032, Note_on_c, 0, 72, 85
4, 52224, Note_off_c, 0, 72, 0
4, 52224, Note_on_c, 0, 62, 85
4, 52416, Note_off_c, 0, 62, 0
4, 52416, Note_on_c, 0, 62, 85
4, 52608, Note_off_c, 0, 62, 0
4, 52608, Note_on_c, 0, 66, 85
4, 52800, Note_off_c, 0, 66, 0
4, 52800, Note_on_c, 0, 66, 85
4, 52992, Note_off_c, 0, 66, 0
4, 52992, Note_on_c, 0, 67, 85
4, 53184, Note_off_c, 0, 67, 0
4, 53184, Note_on_c, 0, 67, 85
4, 53376, Note_off_c, 0, 67, 0
4, 53376, Note_on_c, 0, 70, 85
4, 53568, Note_off_c, 0, 70, 0
4, 53568, Note_on_c, 0, 70, 85
4, 53760, Note_off_c, 0, 70, 0
4, 53760, Note_on_c, 0, 60, 85
4, 53952, Note_off_c, 0, 60, 0
4, 53952, Note_on_c, 0, 60, 85
4, 54144, Note_off_c, 0, 60, 0
4, 54144, Note_on_c, 0, 64, 85
4, 54336, Note_off_c, 0, 64, 0
4, 54336, Note_on_c, 0, 64, 85
4, 54528, Note_off_c, 0, 64, 0
4, 54528, Note_on_c, 0, 65, 85
4, 54720, Note_off_c, 0, 65, 0
4, 54720, Note_on_c, 0, 65, 85
4, 54912, Note_off_c, 0, 65, 0
4, 54912, Note_on_c, 0, 69, 85
4, 55104, Note_off_c, 0, 69, 0
4, 55104, Note_on_c, 0, 69, 85
4, 55296, Note_off_c, 0, 69, 0
4, 55296, Note_on_c, 0, 70, 85
4, 56064, Note_off_c, 0, 70, 0
4, 56064, Note_on_c, 0, 69, 85
4, 56832, Note_off_c, 0, 69, 0
4, 56832, Note_on_c, 0, 67, 85
4, 57600, Note_off_c, 0, 67, 0
4, 57600, Note_on_c, 0, 65, 85
4, 57984, Note_off_c, 0, 65, 0
4, 58176, Note_on_c, 0, 67, 100
4, 58368, Note_off_c, 0, 67, 0
4, 58368, Note_on_c, 0, 69, 100
4, 58460, Note_off_c, 0, 69, 0
4, 58464, Note_on_c, 0, 72, 100
4, 58556, Note_off_c, 0, 72, 0
4, 58560, Note_on_c, 0, 74, 100
4, 58652, Note_off_c, 0, 74, 0
4, 58656, Note_on_c, 0, 76, 100
4, 58748, Note_off_c, 0, 76, 0
4, 58752, Note_on_c, 0, 77, 100
4, 58844, Note_off_c, 0, 77, 0
4, 58848, Note_on_c, 0, 79, 100
4, 58940, Note_off_c, 0, 79, 0
4, 58944, Note_on_c, 0, 81, 100
4, 59036, Note_off_c, 0, 81, 0
4, 59040, Note_on_c, 0, 82, 100
4, 59132, Note_off_c, 0, 82, 0
4, 59136, Note_on_c, 0, 84, 100
4, 59244, Note_off_c, 0, 84, 0
4, 59328, Note_on_c, 0, 77, 100
4, 59436, Note_off_c, 0, 77, 0
4, 59520, Note_on_c, 0, 67, 100
4, 59628, Note_off_c, 0, 67, 0
4, 59712, Note_on_c, 0, 76, 100
4, 59820, Note_off_c, 0, 76, 0
4, 59904, Note_on_c, 0, 77, 85
4, 61436, Note_off_c, 0, 77, 0
4, 61440, Note_on_c, 0, 79, 85
4, 62204, Note_off_c, 0, 79, 0
4, 62208, Note_on_c, 0, 76, 85
4, 62972, Note_off_c, 0, 76, 0
4, 62976, Note_on_c, 0, 77, 100
4, 63164, Note_off_c, 0, 77, 0
4, 63168, Note_on_c, 0, 65, 100
4, 63356, Note_off_c, 0, 65, 0
4, 63360, Note_on_c, 0, 69, 100
4, 63548, Note_off_c, 0, 69, 0
4, 63552, Note_on_c, 0, 72, 100
4, 63740, Note_off_c, 0, 72, 0
4, 63744, Note_on_c, 0, 62, 100
4, 63932, Note_off_c, 0, 62, 0
4, 63936, Note_on_c, 0, 81, 100
4, 64028, Note_off_c, 0, 81, 0
4, 64032, Note_on_c, 0, 79, 100
4, 64124, Note_off_c, 0, 79, 0
4, 64128, Note_on_c, 0, 78, 100
4, 64220, Note_off_c, 0, 78, 0
4, 64224, Note_on_c, 0, 76, 100
4, 64316, Note_off_c, 0, 76, 0
4, 64320, Note_on_c, 0, 74, 100
4, 64412, Note_off_c, 0, 74, 0
4, 64416, Note_on_c, 0, 72, 100
4, 64508, Note_off_c, 0, 72, 0
4, 64512, Note_on_c, 0, 70, 100
4, 64700, Note_off_c, 0, 70, 0
4, 64704, Note_on_c, 0, 67, 100
4, 64892, Note_off_c, 0, 67, 0
4, 64896, Note_on_c, 0, 70, 100
4, 65084, Note_off_c, 0, 70, 0
4, 65088, Note_on_c, 0, 74, 100
4, 65276, Note_off_c, 0, 74, 0
4, 65280, Note_on_c, 0, 64, 100
4, 65468, Note_off_c, 0, 64, 0
4, 65472, Note_on_c, 0, 83, 100
4, 65564, Note_off_c, 0, 83, 0
4, 65568, Note_on_c, 0, 81, 100
4, 65660, Note_off_c, 0, 81, 0
4, 65664, Note_on_c, 0, 80, 100
4, 65756, Note_off_c, 0, 80, 0
4, 65760, Note_on_c, 0, 78, 100
4, 65852, Note_off_c, 0, 78, 0
4, 65856, Note_on_c, 0, 76, 100
4, 65948, Note_off_c, 0, 76, 0
4, 65952, Note_on_c, 0, 74, 100
4, 66044, Note_off_c, 0, 74, 0
4, 66048, Note_on_c, 0, 73, 100
4, 66236, Note_off_c, 0, 73, 0
4, 66240, Note_on_c, 0, 73, 100
4, 66428, Note_off_c, 0, 73, 0
4, 66432, Note_on_c, 0, 76, 100
4, 66620, Note_off_c, 0, 76, 0
4, 66624, Note_on_c, 0, 79, 100
4, 66812, Note_off_c, 0, 79, 0
4, 66816, Note_on_c, 0, 69, 100
4, 67004, Note_off_c, 0, 69, 0
4, 67008, Note_on_c, 0, 76, 100
4, 67100, Note_off_c, 0, 76, 0
4, 67104, Note_on_c, 0, 74, 100
4, 67196, Note_off_c, 0, 74, 0
4, 67200, Note_on_c, 0, 73, 100
4, 67292, Note_off_c, 0, 73, 0
4, 67296, Note_on_c, 0, 71, 100
4, 67388, Note_off_c, 0, 71, 0
4, 67392, Note_on_c, 0, 69, 100
4, 67484, Note_off_c, 0, 69, 0
4, 67488, Note_on_c, 0, 67, 100
4, 67580, Note_off_c, 0, 67, 0
4, 67584, Note_on_c, 0, 65, 100
4, 67676, Note_off_c, 0, 65, 0
4, 67680, Note_on_c, 0, 67, 100
4, 67772, Note_off_c, 0, 67, 0
4, 67776, Note_on_c, 0, 69, 100
4, 67868, Note_off_c, 0, 69, 0
4, 67872, Note_on_c, 0, 67, 100
4, 67964, Note_off_c, 0, 67, 0
4, 67968, Note_on_c, 0, 65, 100
4, 68060, Note_off_c, 0, 65, 0
4, 68064, Note_on_c, 0, 64, 100
4, 68156, Note_off_c, 0, 64, 0
4, 68160, Note_on_c, 0, 62, 100
4, 68252, Note_off_c, 0, 62, 0
4, 68256, Note_on_c, 0, 61, 100
4, 68348, Note_off_c, 0, 61, 0
4, 68352, Note_on_c, 0, 62, 100
4, 68732, Note_off_c, 0, 62, 0
4, 68928, Note_on_c, 0, 74, 85
4, 69308, Note_off_c, 0, 74, 0
4, 69312, Note_on_c, 0, 65, 85
4, 69404, Note_off_c, 0, 65, 0
4, 69408, Note_on_c, 0, 62, 85
4, 69500, Note_off_c, 0, 62, 0
4, 69504, Note_on_c, 0, 56, 85
4, 69692, Note_off_c, 0, 56, 0
4, 69696, Note_on_c, 0, 74, 85
4, 70076, Note_off_c, 0, 74, 0
4, 70080, Note_on_c, 0, 65, 85
4, 70172, Note_off_c, 0, 65, 0
4, 70176, Note_on_c, 0, 62, 85
4, 70268, Note_off_c, 0, 62, 0
4, 70272, Note_on_c, 0, 56, 85
4, 70460, Note_off_c, 0, 56, 0
4, 70464, Note_on_c, 0, 68, 85
4, 70652, Note_off_c, 0, 68, 0
4, 70656, Note_on_c, 0, 69, 85
4, 70844, Note_off_c, 0, 69, 0
4, 70848, Note_on_c, 0, 64, 85
4, 71036, Note_off_c, 0, 64, 0
4, 71040, Note_on_c, 0, 60, 85
4, 71228, Note_off_c, 0, 60, 0
4, 71232, Note_on_c, 0, 64, 85
4, 71420, Note_off_c, 0, 64, 0
4, 71424, Note_on_c, 0, 69, 85
4, 71612, Note_off_c, 0, 69, 0
4, 71616, Note_on_c, 0, 64, 85
4, 71804, Note_off_c, 0, 64, 0
4, 71808, Note_on_c, 0, 60, 85
4, 71996, Note_off_c, 0, 60, 0
4, 72000, Note_on_c, 0, 79, 85
4, 72380, Note_off_c, 0, 79, 0
4, 72384, Note_on_c, 0, 70, 85
4, 72476, Note_off_c, 0, 70, 0
4, 72480, Note_on_c, 0, 67, 85
4, 72572, Note_off_c, 0, 67, 0
4, 72576, Note_on_c, 0, 61, 85
4, 72764, Note_off_c, 0, 61, 0
4, 72768, Note_on_c, 0, 79, 85
4, 73148, Note_off_c, 0, 79, 0
4, 73152, Note_on_c, 0, 70, 85
4, 73244, Note_off_c, 0, 70, 0
4, 73248, Note_on_c, 0, 67, 85
4, 73340, Note_off_c, 0, 67, 0
4, 73344, Note_on_c, 0, 61, 85
4, 73532, Note_off_c, 0, 61, 0
4, 73536, Note_on_c, 0, 73, 85
4, 73724, Note_off_c, 0, 73, 0
4, 73728, Note_on_c, 0, 74, 85
4, 73916, Note_off_c, 0, 74, 0
4, 73920, Note_on_c, 0, 69, 85
4, 74108, Note_off_c, 0, 69, 0
4, 74112, Note_on_c, 0, 65, 85
4, 74300, Note_off_c, 0, 65, 0
4, 74304, Note_on_c, 0, 69, 85
4, 74492, Note_off_c, 0, 69, 0
4, 74496, Note_on_c, 0, 74, 85
4, 74684, Note_off_c, 0, 74, 0
4, 74688, Note_on_c, 0, 69, 85
4, 74876, Note_off_c, 0, 69, 0
4, 74880, Note_on_c, 0, 65, 85
4, 75068, Note_off_c, 0, 65, 0
4, 75072, Note_on_c, 0, 81, 85
4, 75452, Note_off_c, 0, 81, 0
4, 75456, Note_on_c, 0, 72, 85
4, 75548, Note_off_c, 0, 72, 0
4, 75552, Note_on_c, 0, 69, 85
4, 75644, Note_off_c, 0, 69, 0
4, 75648, Note_on_c, 0, 63, 85
4, 75836, Note_off_c, 0, 63, 0
4, 75840, Note_on_c, 0, 81, 85
4, 76220, Note_off_c, 0, 81, 0
4, 76224, Note_on_c, 0, 72, 85
4, 76316, Note_off_c, 0, 72, 0
4, 76320, Note_on_c, 0, 69, 85
4, 76412, Note_off_c, 0, 69, 0
4, 76416, Note_on_c, 0, 63, 85
4, 76604, Note_off_c, 0, 63, 0
4, 76608, Note_on_c, 0, 71, 85
4, 76988, Note_off_c, 0, 71, 0
4, 76992, Note_on_c, 0, 65, 85
4, 77084, Note_off_c, 0, 65, 0
4, 77088, Note_on_c, 0, 62, 85
4, 77180, Note_off_c, 0, 62, 0
4, 77184, Note_on_c, 0, 56, 85
4, 77372, Note_off_c, 0, 56, 0
4, 77376, Note_on_c, 0, 71, 85
4, 77756, Note_off_c, 0, 71, 0
4, 77760, Note_on_c, 0, 65, 85
4, 77852, Note_off_c, 0, 65, 0
4, 77856, Note_on_c, 0, 62, 85
4, 77948, Note_off_c, 0, 62, 0
4, 77952, Note_on_c, 0, 56, 85
4, 78140, Note_off_c, 0, 56, 0
4, 78144, Note_on_c, 0, 76, 85
4, 78332, Note_off_c, 0, 76, 0
4, 78336, Note_on_c, 0, 76, 85
4, 78524, Note_off_c, 0, 76, 0
4, 78528, Note_on_c, 0, 72, 85
4, 78716, Note_off_c, 0, 72, 0
4, 78720, Note_on_c, 0, 69, 85
4, 78908, Note_off_c, 0, 69, 0
4, 78912, Note_on_c, 0, 72, 85
4, 79100, Note_off_c, 0, 72, 0
4, 79104, Note_on_c, 0, 76, 85
4, 79292, Note_off_c, 0, 76, 0
4, 79296, Note_on_c, 0, 72, 85
4, 79484, Note_off_c, 0, 72, 0
4, 79488, Note_on_c, 0, 69, 85
4, 79676, Note_off_c, 0, 69, 0
4, 79680, Note_on_c, 0, 72, 85
4, 79868, Note_off_c, 0, 72, 0
4, 79872, Note_on_c, 0, 77, 85
4, 80060, Note_off_c, 0, 77, 0
4, 80064, Note_on_c, 0, 72, 85
4, 80252, Note_off_c, 0, 72, 0
4, 80256, Note_on_c, 0, 69, 85
4, 80444, Note_off_c, 0, 69, 0
4, 80448, Note_on_c, 0, 72, 85
4, 80636, Note_off_c, 0, 72, 0
4, 80640, Note_on_c, 0, 76, 85
4, 80828, Note_off_c, 0, 76, 0
4, 80832, Note_on_c, 0, 72, 85
4, 81020, Note_off_c, 0, 72, 0
4, 81024, Note_on_c, 0, 69, 85
4, 81212, Note_off_c, 0, 69, 0
4, 81216, Note_on_c, 0, 72, 85
4, 81404, Note_off_c, 0, 72, 0
4, 81408, Note_on_c, 0, 77, 85
4, 81596, Note_off_c, 0, 77, 0
4, 81600, Note_on_c, 0, 76, 85
4, 81728, Note_off_c, 0, 76, 0
4, 81792, Note_on_c, 0, 74, 85
4, 81980, Note_off_c, 0, 74, 0
4, 81984, Note_on_c, 0, 72, 85
4, 82112, Note_off_c, 0, 72, 0
4, 82176, Note_on_c, 0, 71, 85
4, 82364, Note_off_c, 0, 71, 0
4, 82368, Note_on_c, 0, 69, 85
4, 82496, Note_off_c, 0, 69, 0
4, 82560, Note_on_c, 0, 68, 85
4, 82748, Note_off_c, 0, 68, 0
4, 82752, Note_on_c, 0, 66, 85
4, 82880, Note_off_c, 0, 66, 0
4, 82944, Note_on_c, 0, 64, 85
4, 83132, Note_off_c, 0, 64, 0
4, 84480, Note_on_c, 0, 69, 100
4, 84572, Note_off_c, 0, 69, 0
4, 84576, Note_on_c, 0, 71, 100
4, 84668, Note_off_c, 0, 71, 0
4, 84672, Note_on_c, 0, 72, 100
4, 84800, Note_off_c, 0, 72, 0
4, 84864, Note_on_c, 0, 71, 100
4, 85052, Note_off_c, 0, 71, 0
4, 85056, Note_on_c, 0, 69, 100
4, 85244, Note_off_c, 0, 69, 0
4, 85248, Note_on_c, 0, 76, 100
4, 85436, Note_off_c, 0, 76, 0
4, 85440, Note_on_c, 0, 81, 100
4, 85820, Note_off_c, 0, 81, 0
4, 85824, Note_on_c, 0, 76, 100
4, 86012, Note_off_c, 0, 76, 0
4, 86016, Note_on_c, 0, 77, 100
4, 86204, Note_off_c, 0, 77, 0
4, 86208, Note_on_c, 0, 74, 100
4, 86300, Note_off_c, 0, 74, 0
4, 86304, Note_on_c, 0, 71, 100
4, 86396, Note_off_c, 0, 71, 0
4, 86400, Note_on_c, 0, 76, 100
4, 86588, Note_off_c, 0, 76, 0
4, 86592, Note_on_c, 0, 72, 100
4, 86684, Note_off_c, 0, 72, 0
4, 86688, Note_on_c, 0, 69, 100
4, 86780, Note_off_c, 0, 69, 0
4, 86784, Note_on_c, 0, 74, 100
4, 86972, Note_off_c, 0, 74, 0
4, 86976, Note_on_c, 0, 71, 100
4, 87068, Note_off_c, 0, 71, 0
4, 87072, Note_on_c, 0, 68, 100
4, 87164, Note_off_c, 0, 68, 0
4, 87168, Note_on_c, 0, 64, 100
4, 87356, Note_off_c, 0, 64, 0
4, 87360, Note_on_c, 0, 77, 100
4, 87740, Note_off_c, 0, 77, 0
4, 87744, Note_on_c, 0, 74, 100
4, 87836, Note_off_c, 0, 74, 0
4, 87840, Note_on_c, 0, 71, 100
4, 87932, Note_off_c, 0, 71, 0
4, 87936, Note_on_c, 0, 64, 100
4, 88124, Note_off_c, 0, 64, 0
4, 88128, Note_on_c, 0, 80, 100
4, 88508, Note_off_c, 0, 80, 0
4, 88512, Note_on_c, 0, 77, 100
4, 88604, Note_off_c, 0, 77, 0
4, 88608, Note_on_c, 0, 74, 100
4, 88700, Note_off_c, 0, 74, 0
4, 88704, Note_on_c, 0, 64, 100
4, 88892, Note_off_c, 0, 64, 0
4, 88896, Note_on_c, 0, 83, 100
4, 89276, Note_off_c, 0, 83, 0
4, 89280, Note_on_c, 0, 80, 100
4, 89372, Note_off_c, 0, 80, 0
4, 89376, Note_on_c, 0, 76, 100
4, 89468, Note_off_c, 0, 76, 0
4, 89472, Note_on_c, 0, 77, 100
4, 89564, Note_off_c, 0, 77, 0
4, 89568, Note_on_c, 0, 74, 100
4, 89660, Note_off_c, 0, 74, 0
4, 89664, Note_on_c, 0, 76, 100
4, 89756, Note_off_c, 0, 76, 0
4, 89760, Note_on_c, 0, 72, 100
4, 89852, Note_off_c, 0, 72, 0
4, 89856, Note_on_c, 0, 74, 100
4, 89948, Note_off_c, 0, 74, 0
4, 89952, Note_on_c, 0, 71, 100
4, 90044, Note_off_c, 0, 71, 0
4, 90048, Note_on_c, 0, 72, 100
4, 90140, Note_off_c, 0, 72, 0
4, 90144, Note_on_c, 0, 69, 100
4, 90236, Note_off_c, 0, 69, 0
4, 90240, Note_on_c, 0, 71, 100
4, 90332, Note_off_c, 0, 71, 0
4, 90336, Note_on_c, 0, 68, 100
4, 90428, Note_off_c, 0, 68, 0
4, 90432, Note_on_c, 0, 69, 100
4, 90524, Note_off_c, 0, 69, 0
4, 90528, Note_on_c, 0, 66, 100
4, 90620, Note_off_c, 0, 66, 0
4, 90624, Note_on_c, 0, 68, 100
4, 90716, Note_off_c, 0, 68, 0
4, 90720, Note_on_c, 0, 64, 100
4, 90812, Note_off_c, 0, 64, 0
4, 90816, Note_on_c, 0, 66, 100
4, 90908, Note_off_c, 0, 66, 0
4, 90912, Note_on_c, 0, 68, 100
4, 91004, Note_off_c, 0, 68, 0
4, 91008, Note_on_c, 0, 69, 100
4, 91100, Note_off_c, 0, 69, 0
4, 91104, Note_on_c, 0, 71, 100
4, 91196, Note_off_c, 0, 71, 0
4, 91200, Note_on_c, 0, 72, 100
4, 91292, Note_off_c, 0, 72, 0
4, 91296, Note_on_c, 0, 74, 100
4, 91388, Note_off_c, 0, 74, 0
4, 91392, Note_on_c, 0, 76, 100
4, 91484, Note_off_c, 0, 76, 0
4, 91488, Note_on_c, 0, 77, 100
4, 91580, Note_off_c, 0, 77, 0
4, 91584, Note_on_c, 0, 79, 100
4, 91712, Note_off_c, 0, 79, 0
4, 91776, Note_on_c, 0, 79, 100
4, 91868, Note_off_c, 0, 79, 0
4, 91872, Note_on_c, 0, 81, 100
4, 91964, Note_off_c, 0, 81, 0
4, 91968, Note_on_c, 0, 82, 100
4, 92096, Note_off_c, 0, 82, 0
4, 92160, Note_on_c, 0, 73, 100
4, 92288, Note_off_c, 0, 73, 0
4, 92352, Note_on_c, 0, 74, 100
4, 92480, Note_off_c, 0, 74, 0
4, 92544, Note_on_c, 0, 68, 100
4, 92672, Note_off_c, 0, 68, 0
4, 92736, Note_on_c, 0, 69, 100
4, 92864, Note_off_c, 0, 69, 0
4, 92928, Note_on_c, 0, 63, 100
4, 93116, Note_off_c, 0, 63, 0
4, 93312, Note_on_c, 0, 64, 100
4, 93500, Note_off_c, 0, 64, 0
4, 93696, Note_on_c, 0, 57, 100
4, 93884, Note_off_c, 0, 57, 0
4, 93888, Note_on_c, 0, 57, 85
4, 94076, Note_off_c, 0, 57, 0
4, 94080, Note_on_c, 0, 59, 85
4, 94268, Note_off_c, 0, 59, 0
4, 94272, Note_on_c, 0, 60, 85
4, 94460, Note_off_c, 0, 60, 0
4, 94464, Note_on_c, 0, 62, 85
4, 94652, Note_off_c, 0, 62, 0
4, 94656, Note_on_c, 0, 65, 85
4, 94844, Note_off_c, 0, 65, 0
4, 94848, Note_on_c, 0, 64, 85
4, 95036, Note_off_c, 0, 64, 0
4, 95040, Note_on_c, 0, 62, 85
4, 95228, Note_off_c, 0, 62, 0
4, 95232, Note_on_c, 0, 60, 85
4, 95420, Note_off_c, 0, 60, 0
4, 95424, Note_on_c, 0, 57, 85
4, 95612, Note_off_c, 0, 57, 0
4, 95616, Note_on_c, 0, 59, 85
4, 95804, Note_off_c, 0, 59, 0
4, 95808, Note_on_c, 0, 60, 85
4, 95996, Note_off_c, 0, 60, 0
4, 96000, Note_on_c, 0, 62, 85
4, 96188, Note_off_c, 0, 62, 0
4, 96192, Note_on_c, 0, 65, 85
4, 96380, Note_off_c, 0, 65, 0
4, 96384, Note_on_c, 0, 64, 85
4, 96572, Note_off_c, 0, 64, 0
4, 96576, Note_on_c, 0, 62, 85
4, 96764, Note_off_c, 0, 62, 0
4, 96768, Note_on_c, 0, 60, 85
4, 96956, Note_off_c, 0, 60, 0
4, 96960, Note_on_c, 0, 69, 85
4, 97148, Note_off_c, 0, 69, 0
4, 97152, Note_on_c, 0, 68, 85
4, 97340, Note_off_c, 0, 68, 0
4, 97344, Note_on_c, 0, 69, 85
4, 97532, Note_off_c, 0, 69, 0
4, 97536, Note_on_c, 0, 71, 85
4, 97724, Note_off_c, 0, 71, 0
4, 97728, Note_on_c, 0, 69, 85
4, 97916, Note_off_c, 0, 69, 0
4, 97920, Note_on_c, 0, 71, 85
4, 98108, Note_off_c, 0, 71, 0
4, 98112, Note_on_c, 0, 68, 85
4, 98300, Note_off_c, 0, 68, 0
4, 98304, Note_on_c, 0, 69, 85
4, 98492, Note_off_c, 0, 69, 0
4, 98496, Note_on_c, 0, 69, 85
4, 98684, Note_off_c, 0, 69, 0
4, 98688, Note_on_c, 0, 68, 85
4, 98876, Note_off_c, 0, 68, 0
4, 98880, Note_on_c, 0, 69, 85
4, 99068, Note_off_c, 0, 69, 0
4, 99072, Note_on_c, 0, 71, 85
4, 99260, Note_off_c, 0, 71, 0
4, 99264, Note_on_c, 0, 69, 85
4, 99452, Note_off_c, 0, 69, 0
4, 99456, Note_on_c, 0, 71, 85
4, 99644, Note_off_c, 0, 71, 0
4, 99648, Note_on_c, 0, 68, 85
4, 99836, Note_off_c, 0, 68, 0
4, 99840, Note_on_c, 0, 69, 85
4, 100028, Note_off_c, 0, 69, 0
4, 100032, Note_on_c, 0, 64, 85
4, 100220, Note_off_c, 0, 64, 0
4, 100224, Note_on_c, 0, 65, 85
4, 100412, Note_off_c, 0, 65, 0
4, 100416, Note_on_c, 0, 62, 85
4, 100604, Note_off_c, 0, 62, 0
4, 100608, Note_on_c, 0, 64, 85
4, 100796, Note_off_c, 0, 64, 0
4, 100800, Note_on_c, 0, 69, 85
4, 100988, Note_off_c, 0, 69, 0
4, 100992, Note_on_c, 0, 65, 85
4, 101180, Note_off_c, 0, 65, 0
4, 101184, Note_on_c, 0, 62, 85
4, 101372, Note_off_c, 0, 62, 0
4, 101376, Note_on_c, 0, 64, 85
4, 101564, Note_off_c, 0, 64, 0
4, 101568, Note_on_c, 0, 64, 85
4, 101948, Note_off_c, 0, 64, 0
4, 101952, Note_on_c, 0, 62, 85
4, 102140, Note_off_c, 0, 62, 0
4, 102144, Note_on_c, 0, 60, 85
4, 102332, Note_off_c, 0, 60, 0
4, 102336, Note_on_c, 0, 60, 85
4, 102716, Note_off_c, 0, 60, 0
4, 102720, Note_on_c, 0, 59, 85
4, 102908, Note_off_c, 0, 59, 0
4, 102912, Note_on_c, 0, 57, 85
4, 103292, Note_off_c, 0, 57, 0
4, 104640, Note_on_c, 0, 76, 100
4, 104828, Note_off_c, 0, 76, 0
4, 104832, Note_on_c, 0, 78, 100
4, 105020, Note_off_c, 0, 78, 0
4, 105024, Note_on_c, 0, 79, 100
4, 105212, Note_off_c, 0, 79, 0
4, 105216, Note_on_c, 0, 81, 100
4, 105404, Note_off_c, 0, 81, 0
4, 105600, Note_on_c, 0, 78, 100
4, 105788, Note_off_c, 0, 78, 0
4, 105984, Note_on_c, 0, 76, 100
4, 106172, Note_off_c, 0, 76, 0
4, 106176, Note_on_c, 0, 64, 85
4, 106364, Note_off_c, 0, 64, 0
4, 106368, Note_on_c, 0, 66, 85
4, 106556, Note_off_c, 0, 66, 0
4, 106560, Note_on_c, 0, 67, 85
4, 106748, Note_off_c, 0, 67, 0
4, 106752, Note_on_c, 0, 69, 85
4, 106940, Note_off_c, 0, 69, 0
4, 106944, Note_on_c, 0, 72, 85
4, 107132, Note_off_c, 0, 72, 0
4, 107136, Note_on_c, 0, 71, 85
4, 107324, Note_off_c, 0, 71, 0
4, 107328, Note_on_c, 0, 69, 85
4, 107516, Note_off_c, 0, 69, 0
4, 107520, Note_on_c, 0, 67, 85
4, 107708, Note_off_c, 0, 67, 0
4, 107712, Note_on_c, 0, 64, 85
4, 107900, Note_off_c, 0, 64, 0
4, 107904, Note_on_c, 0, 66, 85
4, 108092, Note_off_c, 0, 66, 0
4, 108096, Note_on_c, 0, 67, 85
4, 108284, Note_off_c, 0, 67, 0
4, 108288, Note_on_c, 0, 69, 85
4, 108476, Note_off_c, 0, 69, 0
4, 108480, Note_on_c, 0, 72, 85
4, 108668, Note_off_c, 0, 72, 0
4, 108672, Note_on_c, 0, 71, 85
4, 108860, Note_off_c, 0, 71, 0
4, 108864, Note_on_c, 0, 69, 85
4, 109052, Note_off_c, 0, 69, 0
4, 109056, Note_on_c, 0, 67, 85
4, 109244, Note_off_c, 0, 67, 0
4, 109248, Note_on_c, 0, 76, 85
4, 109436, Note_off_c, 0, 76, 0
4, 109440, Note_on_c, 0, 75, 85
4, 109628, Note_off_c, 0, 75, 0
4, 109632, Note_on_c, 0, 76, 85
4, 109820, Note_off_c, 0, 76, 0
4, 109824, Note_on_c, 0, 78, 85
4, 110012, Note_off_c, 0, 78, 0
4, 110016, Note_on_c, 0, 76, 85
4, 110204, Note_off_c, 0, 76, 0
4, 110208, Note_on_c, 0, 78, 85
4, 110396, Note_off_c, 0, 78, 0
4, 110400, Note_on_c, 0, 75, 85
4, 110588, Note_off_c, 0, 75, 0
4, 110592, Note_on_c, 0, 76, 85
4, 110780, Note_off_c, 0, 76, 0
4, 110784, Note_on_c, 0, 76, 85
4, 110972, Note_off_c, 0, 76, 0
4, 110976, Note_on_c, 0, 75, 85
4, 111164, Note_off_c, 0, 75, 0
4, 111168, Note_on_c, 0, 76, 85
4, 111356, Note_off_c, 0, 76, 0
4, 111360, Note_on_c, 0, 78, 85
4, 111548, Note_off_c, 0, 78, 0
4, 111552, Note_on_c, 0, 76, 85
4, 111740, Note_off_c, 0, 76, 0
4, 111744, Note_on_c, 0, 78, 85
4, 111932, Note_off_c, 0, 78, 0
4, 111936, Note_on_c, 0, 75, 85
4, 112124, Note_off_c, 0, 75, 0
4, 112128, Note_on_c, 0, 76, 85
4, 112316, Note_off_c, 0, 76, 0
4, 112320, Note_on_c, 0, 71, 85
4, 112508, Note_off_c, 0, 71, 0
4, 112512, Note_on_c, 0, 72, 85
4, 112700, Note_off_c, 0, 72, 0
4, 112704, Note_on_c, 0, 69, 85
4, 112892, Note_off_c, 0, 69, 0
4, 112896, Note_on_c, 0, 71, 85
4, 113084, Note_off_c, 0, 71, 0
4, 113088, Note_on_c, 0, 76, 85
4, 113276, Note_off_c, 0, 76, 0
4, 113280, Note_on_c, 0, 72, 85
4, 113468, Note_off_c, 0, 72, 0
4, 113472, Note_on_c, 0, 69, 85
4, 113660, Note_off_c, 0, 69, 0
4, 113664, Note_on_c, 0, 71, 85
4, 113852, Note_off_c, 0, 71, 0
4, 113856, Note_on_c, 0, 71, 85
4, 114236, Note_off_c, 0, 71, 0
4, 114240, Note_on_c, 0, 69, 85
4, 114428, Note_off_c, 0, 69, 0
4, 114432, Note_on_c, 0, 67, 85
4, 114620, Note_off_c, 0, 67, 0
4, 114624, Note_on_c, 0, 67, 85
4, 115004, Note_off_c, 0, 67, 0
4, 115008, Note_on_c, 0, 66, 85
4, 115196, Note_off_c, 0, 66, 0
4, 115200, Note_on_c, 0, 64, 85
4, 115388, Note_off_c, 0, 64, 0
4, 116928, Note_on_c, 0, 76, 85
4, 117308, Note_off_c, 0, 76, 0
4, 117312, Note_on_c, 0, 71, 85
4, 117404, Note_off_c, 0, 71, 0
4, 117408, Note_on_c, 0, 67, 85
4, 117500, Note_off_c, 0, 67, 0
4, 117504, Note_on_c, 0, 64, 85
4, 117692, Note_off_c, 0, 64, 0
4, 117696, Note_on_c, 0, 76, 85
4, 118076, Note_off_c, 0, 76, 0
4, 118080, Note_on_c, 0, 72, 85
4, 118172, Note_off_c, 0, 72, 0
4, 118176, Note_on_c, 0, 69, 85
4, 118268, Note_off_c, 0, 69, 0
4, 118272, Note_on_c, 0, 64, 85
4, 118460, Note_off_c, 0, 64, 0
4, 118464, Note_on_c, 0, 76, 85
4, 118844, Note_off_c, 0, 76, 0
4, 118848, Note_on_c, 0, 71, 85
4, 118940, Note_off_c, 0, 71, 0
4, 118944, Note_on_c, 0, 67, 85
4, 119036, Note_off_c, 0, 67, 0
4, 119040, Note_on_c, 0, 64, 85
4, 119228, Note_off_c, 0, 64, 0
4, 119232, Note_on_c, 0, 76, 85
4, 119612, Note_off_c, 0, 76, 0
4, 119616, Note_on_c, 0, 72, 85
4, 119708, Note_off_c, 0, 72, 0
4, 119712, Note_on_c, 0, 69, 85
4, 119804, Note_off_c, 0, 69, 0
4, 119808, Note_on_c, 0, 64, 85
4, 119996, Note_off_c, 0, 64, 0
4, 138240, Note_on_c, 0, 72, 85
4, 139776, Note_off_c, 0, 72, 0
4, 139776, Note_on_c, 0, 74, 85
4, 140544, Note_off_c, 0, 74, 0
4, 140544, Note_on_c, 0, 71, 85
4, 141312, Note_off_c, 0, 71, 0
4, 141312, Note_on_c, 0, 72, 100
4, 141440, Note_off_c, 0, 72, 0
4, 141504, Note_on_c, 0, 60, 100
4, 141632, Note_off_c, 0, 60, 0
4, 141696, Note_on_c, 0, 64, 100
4, 141824, Note_off_c, 0, 64, 0
4, 141888, Note_on_c, 0, 67, 100
4, 142016, Note_off_c, 0, 67, 0
4, 142080, Note_on_c, 0, 57, 100
4, 142208, Note_off_c, 0, 57, 0
4, 142272, Note_on_c, 0, 76, 100
4, 142364, Note_off_c, 0, 76, 0
4, 142368, Note_on_c, 0, 74, 100
4, 142460, Note_off_c, 0, 74, 0
4, 142464, Note_on_c, 0, 73, 100
4, 142556, Note_off_c, 0, 73, 0
4, 142560, Note_on_c, 0, 71, 100
4, 142652, Note_off_c, 0, 71, 0
4, 142656, Note_on_c, 0, 69, 100
4, 142748, Note_off_c, 0, 69, 0
4, 142752, Note_on_c, 0, 67, 100
4, 142844, Note_off_c, 0, 67, 0
4, 142848, Note_on_c, 0, 65, 100
4, 142988, Note_off_c, 0, 65, 0
4, 143040, Note_on_c, 0, 62, 100
4, 143212, Note_off_c, 0, 62, 0
4, 143232, Note_on_c, 0, 66, 100
4, 143404, Note_off_c, 0, 66, 0
4, 143424, Note_on_c, 0, 69, 100
4, 143596, Note_off_c, 0, 69, 0
4, 143616, Note_on_c, 0, 72, 100
4, 143744, Note_off_c, 0, 72, 0
4, 143808, Note_on_c, 0, 81, 100
4, 143892, Note_off_c, 0, 81, 0
4, 143904, Note_on_c, 0, 79, 100
4, 143988, Note_off_c, 0, 79, 0
4, 144000, Note_on_c, 0, 78, 100
4, 144084, Note_off_c, 0, 78, 0
4, 144096, Note_on_c, 0, 76, 100
4, 144180, Note_off_c, 0, 76, 0
4, 144192, Note_on_c, 0, 74, 100
4, 144276, Note_off_c, 0, 74, 0
4, 144288, Note_on_c, 0, 72, 100
4, 144372, Note_off_c, 0, 72, 0
4, 144384, Note_on_c, 0, 70, 100
4, 144640, Note_off_c, 0, 70, 0
4, 145344, Note_on_c, 0, 74, 85
4, 145472, Note_off_c, 0, 74, 0
4, 145536, Note_on_c, 0, 79, 85
4, 145664, Note_off_c, 0, 79, 0
4, 145728, Note_on_c, 0, 82, 85
4, 145856, Note_off_c, 0, 82, 0
4, 145920, Note_on_c, 0, 72, 85
4, 146176, Note_off_c, 0, 72, 0
4, 146880, Note_on_c, 0, 75, 85
4, 147008, Note_off_c, 0, 75, 0
4, 147072, Note_on_c, 0, 81, 85
4, 147200, Note_off_c, 0, 81, 0
4, 147264, Note_on_c, 0, 84, 85
4, 147392, Note_off_c, 0, 84, 0
4, 147456, Note_on_c, 0, 74, 85
4, 147712, Note_off_c, 0, 74, 0
4, 148416, Note_on_c, 0, 74, 85
4, 148544, Note_off_c, 0, 74, 0
4, 148608, Note_on_c, 0, 70, 85
4, 148736, Note_off_c, 0, 70, 0
4, 148800, Note_on_c, 0, 67, 85
4, 148928, Note_off_c, 0, 67, 0
4, 148992, Note_on_c, 0, 75, 85
4, 149248, Note_off_c, 0, 75, 0
4, 149952, Note_on_c, 0, 75, 85
4, 150080, Note_off_c, 0, 75, 0
4, 150144, Note_on_c, 0, 72, 85
4, 150272, Note_off_c, 0, 72, 0
4, 150336, Note_on_c, 0, 69, 85
4, 150464, Note_off_c, 0, 69, 0
4, 150528, Note_on_c, 0, 66, 85
4, 150908, Note_off_c, 0, 66, 0
4, 151488, Note_on_c, 0, 62, 85
4, 151676, Note_off_c, 0, 62, 0
4, 151680, Note_on_c, 0, 66, 85
4, 151868, Note_off_c, 0, 66, 0
4, 151872, Note_on_c, 0, 69, 85
4, 152060, Note_off_c, 0, 69, 0
4, 152064, Note_on_c, 0, 76, 85
4, 152444, Note_off_c, 0, 76, 0
4, 153024, Note_on_c, 0, 70, 85
4, 153212, Note_off_c, 0, 70, 0
4, 153216, Note_on_c, 0, 67, 85
4, 153404, Note_off_c, 0, 67, 0
4, 153408, Note_on_c, 0, 64, 85
4, 153596, Note_off_c, 0, 64, 0
4, 153600, Note_on_c, 0, 57, 85
4, 153788, Note_off_c, 0, 57, 0
4, 154560, Note_on_c, 0, 72, 85
4, 154748, Note_off_c, 0, 72, 0
4, 154752, Note_on_c, 0, 69, 85
4, 154940, Note_off_c, 0, 69, 0
4, 154944, Note_on_c, 0, 66, 85
4, 155132, Note_off_c, 0, 66, 0
4, 155136, Note_on_c, 0, 62, 85
4, 155324, Note_off_c, 0, 62, 0
4, 156096, Note_on_c, 0, 81, 85
4, 156284, Note_off_c, 0, 81, 0
4, 156288, Note_on_c, 0, 78, 85
4, 156476, Note_off_c, 0, 78, 0
4, 156480, Note_on_c, 0, 72, 85
4, 156668, Note_off_c, 0, 72, 0
4, 156672, Note_on_c, 0, 66, 85
4, 156860, Note_off_c, 0, 66, 0
4, 158208, Note_on_c, 0, 67, 100
4, 158300, Note_off_c, 0, 67, 0
4, 158304, Note_on_c, 0, 69, 100
4, 158396, Note_off_c, 0, 69, 0
4, 158400, Note_on_c, 0, 70, 100
4, 158528, Note_off_c, 0, 70, 0
4, 158592, Note_on_c, 0, 69, 100
4, 158780, Note_off_c, 0, 69, 0
4, 158784, Note_on_c, 0, 67, 100
4, 158972, Note_off_c, 0, 67, 0
4, 158976, Note_on_c, 0, 74, 100
4, 159164, Note_off_c, 0, 74, 0
4, 159168, Note_on_c, 0, 79, 100
4, 159548, Note_off_c, 0, 79, 0
4, 159552, Note_on_c, 0, 74, 100
4, 159740, Note_off_c, 0, 74, 0
4, 159744, Note_on_c, 0, 75, 100
4, 159932, Note_off_c, 0, 75, 0
4, 159936, Note_on_c, 0, 72, 100
4, 160028, Note_off_c, 0, 72, 0
4, 160032, Note_on_c, 0, 69, 100
4, 160124, Note_off_c, 0, 69, 0
4, 160128, Note_on_c, 0, 74, 100
4, 160316, Note_off_c, 0, 74, 0
4, 160320, Note_on_c, 0, 70, 100
4, 160412, Note_off_c, 0, 70, 0
4, 160416, Note_on_c, 0, 67, 100
4, 160508, Note_off_c, 0, 67, 0
4, 160512, Note_on_c, 0, 72, 100
4, 160700, Note_off_c, 0, 72, 0
4, 160704, Note_on_c, 0, 69, 100
4, 160796, Note_off_c, 0, 69, 0
4, 160800, Note_on_c, 0, 66, 100
4, 160892, Note_off_c, 0, 66, 0
4, 160896, Note_on_c, 0, 62, 100
4, 161084, Note_off_c, 0, 62, 0
4, 161088, Note_on_c, 0, 75, 100
4, 161468, Note_off_c, 0, 75, 0
4, 161472, Note_on_c, 0, 72, 100
4, 161564, Note_off_c, 0, 72, 0
4, 161568, Note_on_c, 0, 69, 100
4, 161660, Note_off_c, 0, 69, 0
4, 161664, Note_on_c, 0, 62, 100
4, 161852, Note_off_c, 0, 62, 0
4, 161856, Note_on_c, 0, 78, 100
4, 162236, Note_off_c, 0, 78, 0
4, 162240, Note_on_c, 0, 75, 100
4, 162332, Note_off_c, 0, 75, 0
4, 162336, Note_on_c, 0, 72, 100
4, 162428, Note_off_c, 0, 72, 0
4, 162432, Note_on_c, 0, 62, 100
4, 162620, Note_off_c, 0, 62, 0
4, 162624, Note_on_c, 0, 81, 100
4, 163004, Note_off_c, 0, 81, 0
4, 163008, Note_on_c, 0, 78, 100
4, 163100, Note_off_c, 0, 78, 0
4, 163104, Note_on_c, 0, 74, 100
4, 163196, Note_off_c, 0, 74, 0
4, 163200, Note_on_c, 0, 75, 100
4, 163292, Note_off_c, 0, 75, 0
4, 163296, Note_on_c, 0, 72, 100
4, 163388, Note_off_c, 0, 72, 0
4, 163392, Note_on_c, 0, 74, 100
4, 163484, Note_off_c, 0, 74, 0
4, 163488, Note_on_c, 0, 70, 100
4, 163580, Note_off_c, 0, 70, 0
4, 163584, Note_on_c, 0, 72, 100
4, 163676, Note_off_c, 0, 72, 0
4, 163680, Note_on_c, 0, 69, 100
4, 163772, Note_off_c, 0, 69, 0
4, 163776, Note_on_c, 0, 70, 100
4, 163868, Note_off_c, 0, 70, 0
4, 163872, Note_on_c, 0, 67, 100
4, 163964, Note_off_c, 0, 67, 0
4, 163968, Note_on_c, 0, 69, 100
4, 164060, Note_off_c, 0, 69, 0
4, 164064, Note_on_c, 0, 66, 100
4, 164156, Note_off_c, 0, 66, 0
4, 164160, Note_on_c, 0, 67, 100
4, 164252, Note_off_c, 0, 67, 0
4, 164256, Note_on_c, 0, 64, 100
4, 164348, Note_off_c, 0, 64, 0
4, 164352, Note_on_c, 0, 66, 100
4, 164444, Note_off_c, 0, 66, 0
4, 164448, Note_on_c, 0, 62, 100
4, 164540, Note_off_c, 0, 62, 0
4, 164544, Note_on_c, 0, 64, 100
4, 164636, Note_off_c, 0, 64, 0
4, 164640, Note_on_c, 0, 66, 100
4, 164732, Note_off_c, 0, 66, 0
4, 164736, Note_on_c, 0, 67, 100
4, 164828, Note_off_c, 0, 67, 0
4, 164832, Note_on_c, 0, 69, 100
4, 164924, Note_off_c, 0, 69, 0
4, 164928, Note_on_c, 0, 70, 100
4, 165020, Note_off_c, 0, 70, 0
4, 165024, Note_on_c, 0, 72, 100
4, 165116, Note_off_c, 0, 72, 0
4, 165120, Note_on_c, 0, 74, 100
4, 165212, Note_off_c, 0, 74, 0
4, 165216, Note_on_c, 0, 75, 100
4, 165308, Note_off_c, 0, 75, 0
4, 165312, Note_on_c, 0, 77, 100
4, 165440, Note_off_c, 0, 77, 0
4, 165504, Note_on_c, 0, 77, 100
4, 165596, Note_off_c, 0, 77, 0
4, 165600, Note_on_c, 0, 79, 100
4, 165692, Note_off_c, 0, 79, 0
4, 165696, Note_on_c, 0, 80, 100
4, 165824, Note_off_c, 0, 80, 0
4, 165888, Note_on_c, 0, 71, 100
4, 165996, Note_off_c, 0, 71, 0
4, 166080, Note_on_c, 0, 72, 100
4, 166188, Note_off_c, 0, 72, 0
4, 166272, Note_on_c, 0, 66, 100
4, 166380, Note_off_c, 0, 66, 0
4, 166464, Note_on_c, 0, 67, 100
4, 166572, Note_off_c, 0, 67, 0
4, 166656, Note_on_c, 0, 61, 100
4, 167036, Note_off_c, 0, 61, 0
4, 177600, Note_on_c, 0, 79, 100
4, 177728, Note_off_c, 0, 79, 0
4, 177792, Note_on_c, 0, 81, 100
4, 177920, Note_off_c, 0, 81, 0
4, 177984, Note_on_c, 0, 78, 100
4, 178112, Note_off_c, 0, 78, 0
4, 178176, Note_on_c, 0, 79, 100
4, 178432, Note_off_c, 0, 79, 0
4, 178944, Note_on_c, 0, 79, 100
4, 179036, Note_off_c, 0, 79, 0
4, 179040, Note_on_c, 0, 77, 100
4, 179132, Note_off_c, 0, 77, 0
4, 179136, Note_on_c, 0, 76, 100
4, 179228, Note_off_c, 0, 76, 0
4, 179232, Note_on_c, 0, 74, 100
4, 179324, Note_off_c, 0, 74, 0
4, 179328, Note_on_c, 0, 72, 100
4, 179420, Note_off_c, 0, 72, 0
4, 179424, Note_on_c, 0, 70, 100
4, 179516, Note_off_c, 0, 70, 0
4, 179520, Note_on_c, 0, 69, 100
4, 179612, Note_off_c, 0, 69, 0
4, 179616, Note_on_c, 0, 67, 100
4, 179708, Note_off_c, 0, 67, 0
4, 179712, Note_on_c, 0, 65, 100
4, 179840, Note_off_c, 0, 65, 0
4, 179904, Note_on_c, 0, 77, 100
4, 180032, Note_off_c, 0, 77, 0
4, 180480, Note_on_c, 0, 77, 100
4, 180572, Note_off_c, 0, 77, 0
4, 180576, Note_on_c, 0, 76, 100
4, 180668, Note_off_c, 0, 76, 0
4, 180672, Note_on_c, 0, 74, 100
4, 180764, Note_off_c, 0, 74, 0
4, 180768, Note_on_c, 0, 72, 100
4, 180860, Note_off_c, 0, 72, 0
4, 180864, Note_on_c, 0, 70, 100
4, 180956, Note_off_c, 0, 70, 0
4, 180960, Note_on_c, 0, 69, 100
4, 181052, Note_off_c, 0, 69, 0
4, 181056, Note_on_c, 0, 67, 100
4, 181148, Note_off_c, 0, 67, 0
4, 181152, Note_on_c, 0, 65, 100
4, 181244, Note_off_c, 0, 65, 0
4, 181248, Note_on_c, 0, 64, 100
4, 181376, Note_off_c, 0, 64, 0
4, 181440, Note_on_c, 0, 76, 100
4, 181568, Note_off_c, 0, 76, 0
4, 182016, Note_on_c, 0, 76, 100
4, 182108, Note_off_c, 0, 76, 0
4, 182112, Note_on_c, 0, 74, 100
4, 182204, Note_off_c, 0, 74, 0
4, 182208, Note_on_c, 0, 73, 100
4, 182300, Note_off_c, 0, 73, 0
4, 182304, Note_on_c, 0, 71, 100
4, 182396, Note_off_c, 0, 71, 0
4, 182400, Note_on_c, 0, 69, 100
4, 182492, Note_off_c, 0, 69, 0
4, 182496, Note_on_c, 0, 67, 100
4, 182588, Note_off_c, 0, 67, 0
4, 182592, Note_on_c, 0, 65, 100
4, 182684, Note_off_c, 0, 65, 0
4, 182688, Note_on_c, 0, 64, 100
4, 182780, Note_off_c, 0, 64, 0
4, 182784, Note_on_c, 0, 62, 85
4, 182972, Note_off_c, 0, 62, 0
4, 182976, Note_on_c, 0, 74, 85
4, 183164, Note_off_c, 0, 74, 0
4, 183360, Note_on_c, 0, 74, 85
4, 183548, Note_off_c, 0, 74, 0
4, 183552, Note_on_c, 0, 76, 85
4, 183740, Note_off_c, 0, 76, 0
4, 183744, Note_on_c, 0, 79, 85
4, 183932, Note_off_c, 0, 79, 0
4, 184128, Note_on_c, 0, 76, 85
4, 184316, Note_off_c, 0, 76, 0
4, 184320, Note_on_c, 0, 77, 85
4, 184508, Note_off_c, 0, 77, 0
4, 184512, Note_on_c, 0, 81, 85
4, 184700, Note_off_c, 0, 81, 0
4, 184896, Note_on_c, 0, 77, 85
4, 185084, Note_off_c, 0, 77, 0
4, 185088, Note_on_c, 0, 76, 85
4, 185276, Note_off_c, 0, 76, 0
4, 185280, Note_on_c, 0, 79, 85
4, 185468, Note_off_c, 0, 79, 0
4, 185664, Note_on_c, 0, 76, 85
4, 185852, Note_off_c, 0, 76, 0
4, 185856, Note_on_c, 0, 77, 90
4, 186044, Note_off_c, 0, 77, 0
4, 186048, Note_on_c, 0, 81, 90
4, 186140, Note_off_c, 0, 81, 0
4, 186144, Note_on_c, 0, 77, 90
4, 186236, Note_off_c, 0, 77, 0
4, 186240, Note_on_c, 0, 74, 90
4, 186428, Note_off_c, 0, 74, 0
4, 186432, Note_on_c, 0, 81, 90
4, 186716, Note_off_c, 0, 81, 0
4, 186816, Note_on_c, 0, 81, 90
4, 186908, Note_off_c, 0, 81, 0
4, 186912, Note_on_c, 0, 77, 90
4, 187004, Note_off_c, 0, 77, 0
4, 187008, Note_on_c, 0, 74, 90
4, 187196, Note_off_c, 0, 74, 0
4, 187200, Note_on_c, 0, 82, 90
4, 187580, Note_off_c, 0, 82, 0
4, 187584, Note_on_c, 0, 76, 90
4, 187676, Note_off_c, 0, 76, 0
4, 187680, Note_on_c, 0, 72, 90
4, 187772, Note_off_c, 0, 72, 0
4, 187776, Note_on_c, 0, 69, 90
4, 187964, Note_off_c, 0, 69, 0
4, 187968, Note_on_c, 0, 81, 90
4, 188348, Note_off_c, 0, 81, 0
4, 188352, Note_on_c, 0, 76, 90
4, 188444, Note_off_c, 0, 76, 0
4, 188448, Note_on_c, 0, 72, 90
4, 188540, Note_off_c, 0, 72, 0
4, 188544, Note_on_c, 0, 69, 90
4, 188732, Note_off_c, 0, 69, 0
4, 188736, Note_on_c, 0, 81, 90
4, 189116, Note_off_c, 0, 81, 0
4, 189120, Note_on_c, 0, 81, 90
4, 189212, Note_off_c, 0, 81, 0
4, 189216, Note_on_c, 0, 77, 90
4, 189308, Note_off_c, 0, 77, 0
4, 189312, Note_on_c, 0, 74, 90
4, 189500, Note_off_c, 0, 74, 0
4, 189504, Note_on_c, 0, 81, 90
4, 189788, Note_off_c, 0, 81, 0
4, 189888, Note_on_c, 0, 81, 90
4, 189980, Note_off_c, 0, 81, 0
4, 189984, Note_on_c, 0, 77, 90
4, 190076, Note_off_c, 0, 77, 0
4, 190080, Note_on_c, 0, 74, 90
4, 190268, Note_off_c, 0, 74, 0
4, 190272, Note_on_c, 0, 82, 90
4, 190600, Note_off_c, 0, 82, 0
4, 190656, Note_on_c, 0, 82, 90
4, 190748, Note_off_c, 0, 82, 0
4, 190752, Note_on_c, 0, 79, 90
4, 190844, Note_off_c, 0, 79, 0
4, 190848, Note_on_c, 0, 76, 90
4, 191036, Note_off_c, 0, 76, 0
4, 191040, Note_on_c, 0, 79, 90
4, 191420, Note_off_c, 0, 79, 0
4, 191424, Note_on_c, 0, 76, 90
4, 191516, Note_off_c, 0, 76, 0
4, 191520, Note_on_c, 0, 73, 90
4, 191612, Note_off_c, 0, 73, 0
4, 191616, Note_on_c, 0, 69, 90
4, 191804, Note_off_c, 0, 69, 0
4, 191808, Note_on_c, 0, 73, 90
4, 191996, Note_off_c, 0, 73, 0
4, 192000, Note_on_c, 0, 77, 90
4, 192188, Note_off_c, 0, 77, 0
4, 192384, Note_on_c, 0, 81, 90
4, 192572, Note_off_c, 0, 81, 0
4, 192768, Note_on_c, 0, 78, 90
4, 192956, Note_off_c, 0, 78, 0
4, 193152, Note_on_c, 0, 74, 90
4, 193340, Note_off_c, 0, 74, 0
4, 193536, Note_on_c, 0, 67, 90
4, 193628, Note_off_c, 0, 67, 0
4, 193632, Note_on_c, 0, 69, 90
4, 193724, Note_off_c, 0, 69, 0
4, 193728, Note_on_c, 0, 70, 90
4, 193856, Note_off_c, 0, 70, 0
4, 193920, Note_on_c, 0, 69, 90
4, 194108, Note_off_c, 0, 69, 0
4, 194112, Note_on_c, 0, 67, 90
4, 194300, Note_off_c, 0, 67, 0
4, 194304, Note_on_c, 0, 74, 90
4, 194492, Note_off_c, 0, 74, 0
4, 194496, Note_on_c, 0, 79, 90
4, 194876, Note_off_c, 0, 79, 0
4, 194880, Note_on_c, 0, 74, 90
4, 195068, Note_off_c, 0, 74, 0
4, 195072, Note_on_c, 0, 67, 90
4, 195260, Note_off_c, 0, 67, 0
4, 195456, Note_on_c, 0, 79, 90
4, 195644, Note_off_c, 0, 79, 0
4, 195840, Note_on_c, 0, 76, 90
4, 196028, Note_off_c, 0, 76, 0
4, 196224, Note_on_c, 0, 72, 90
4, 196412, Note_off_c, 0, 72, 0
4, 196608, Note_on_c, 0, 65, 90
4, 196700, Note_off_c, 0, 65, 0
4, 196704, Note_on_c, 0, 67, 90
4, 196796, Note_off_c, 0, 67, 0
4, 196800, Note_on_c, 0, 69, 90
4, 196928, Note_off_c, 0, 69, 0
4, 196992, Note_on_c, 0, 67, 90
4, 197180, Note_off_c, 0, 67, 0
4, 197184, Note_on_c, 0, 65, 90
4, 197372, Note_off_c, 0, 65, 0
4, 197376, Note_on_c, 0, 72, 90
4, 197564, Note_off_c, 0, 72, 0
4, 197568, Note_on_c, 0, 77, 90
4, 197948, Note_off_c, 0, 77, 0
4, 197952, Note_on_c, 0, 72, 90
4, 198140, Note_off_c, 0, 72, 0
4, 198144, Note_on_c, 0, 65, 90
4, 198332, Note_off_c, 0, 65, 0
4, 198528, Note_on_c, 0, 77, 90
4, 198716, Note_off_c, 0, 77, 0
4, 198912, Note_on_c, 0, 74, 90
4, 199100, Note_off_c, 0, 74, 0
4, 199296, Note_on_c, 0, 70, 90
4, 199484, Note_off_c, 0, 70, 0
4, 199680, Note_on_c, 0, 63, 90
4, 199772, Note_off_c, 0, 63, 0
4, 199776, Note_on_c, 0, 65, 90
4, 199868, Note_off_c, 0, 65, 0
4, 199872, Note_on_c, 0, 67, 90
4, 200000, Note_off_c, 0, 67, 0
4, 200064, Note_on_c, 0, 65, 90
4, 200252, Note_off_c, 0, 65, 0
4, 200256, Note_on_c, 0, 63, 90
4, 200444, Note_off_c, 0, 63, 0
4, 200448, Note_on_c, 0, 70, 90
4, 200636, Note_off_c, 0, 70, 0
4, 200640, Note_on_c, 0, 75, 90
4, 201020, Note_off_c, 0, 75, 0
4, 201024, Note_on_c, 0, 70, 90
4, 201212, Note_off_c, 0, 70, 0
4, 201216, Note_on_c, 0, 69, 85
4, 201344, Note_off_c, 0, 69, 0
4, 201408, Note_on_c, 0, 69, 85
4, 201536, Note_off_c, 0, 69, 0
4, 201600, Note_on_c, 0, 73, 85
4, 201728, Note_off_c, 0, 73, 0
4, 201792, Note_on_c, 0, 73, 85
4, 201920, Note_off_c, 0, 73, 0
4, 201984, Note_on_c, 0, 74, 85
4, 202112, Note_off_c, 0, 74, 0
4, 202176, Note_on_c, 0, 74, 85
4, 202304, Note_off_c, 0, 74, 0
4, 202368, Note_on_c, 0, 77, 85
4, 202496, Note_off_c, 0, 77, 0
4, 202560, Note_on_c, 0, 77, 85
4, 202688, Note_off_c, 0, 77, 0
4, 202752, Note_on_c, 0, 67, 85
4, 202880, Note_off_c, 0, 67, 0
4, 202944, Note_on_c, 0, 67, 85
4, 203072, Note_off_c, 0, 67, 0
4, 203136, Note_on_c, 0, 71, 85
4, 203264, Note_off_c, 0, 71, 0
4, 203328, Note_on_c, 0, 71, 85
4, 203456, Note_off_c, 0, 71, 0
4, 203520, Note_on_c, 0, 72, 85
4, 203648, Note_off_c, 0, 72, 0
4, 203712, Note_on_c, 0, 72, 85
4, 203840, Note_off_c, 0, 72, 0
4, 203904, Note_on_c, 0, 75, 85
4, 204032, Note_off_c, 0, 75, 0
4, 204096, Note_on_c, 0, 75, 85
4, 204224, Note_off_c, 0, 75, 0
4, 204288, Note_on_c, 0, 65, 85
4, 204416, Note_off_c, 0, 65, 0
4, 204480, Note_on_c, 0, 65, 85
4, 204608, Note_off_c, 0, 65, 0
4, 204672, Note_on_c, 0, 69, 85
4, 204800, Note_off_c, 0, 69, 0
4, 204864, Note_on_c, 0, 69, 85
4, 204992, Note_off_c, 0, 69, 0
4, 205056, Note_on_c, 0, 70, 85
4, 205184, Note_off_c, 0, 70, 0
4, 205248, Note_on_c, 0, 70, 85
4, 205376, Note_off_c, 0, 70, 0
4, 205440, Note_on_c, 0, 74, 85
4, 205568, Note_off_c, 0, 74, 0
4, 205632, Note_on_c, 0, 74, 85
4, 205760, Note_off_c, 0, 74, 0
4, 205824, Note_on_c, 0, 75, 85
4, 206588, Note_off_c, 0, 75, 0
4, 206592, Note_on_c, 0, 74, 85
4, 207356, Note_off_c, 0, 74, 0
4, 207360, Note_on_c, 0, 72, 85
4, 208124, Note_off_c, 0, 72, 0
4, 208128, Note_on_c, 0, 70, 85
4, 208508, Note_off_c, 0, 70, 0
4, 208704, Note_on_c, 0, 72, 85
4, 208892, Note_off_c, 0, 72, 0
4, 208896, Note_on_c, 0, 74, 100
4, 208988, Note_off_c, 0, 74, 0
4, 208992, Note_on_c, 0, 65, 100
4, 209084, Note_off_c, 0, 65, 0
4, 209088, Note_on_c, 0, 67, 100
4, 209180, Note_off_c, 0, 67, 0
4, 209184, Note_on_c, 0, 69, 100
4, 209276, Note_off_c, 0, 69, 0
4, 209280, Note_on_c, 0, 70, 100
4, 209372, Note_off_c, 0, 70, 0
4, 209376, Note_on_c, 0, 72, 100
4, 209468, Note_off_c, 0, 72, 0
4, 209472, Note_on_c, 0, 74, 100
4, 209564, Note_off_c, 0, 74, 0
4, 209568, Note_on_c, 0, 75, 100
4, 209660, Note_off_c, 0, 75, 0
4, 209664, Note_on_c, 0, 77, 100
4, 209852, Note_off_c, 0, 77, 0
4, 209856, Note_on_c, 0, 70, 100
4, 210044, Note_off_c, 0, 70, 0
4, 210048, Note_on_c, 0, 65, 100
4, 210236, Note_off_c, 0, 65, 0
4, 210240, Note_on_c, 0, 69, 100
4, 210428, Note_off_c, 0, 69, 0
4, 210432, Note_on_c, 0, 70, 100
4, 210776, Note_off_c, 0, 70, 0
4, 211008, Note_on_c, 0, 65, 85
4, 211196, Note_off_c, 0, 65, 0
4, 211200, Note_on_c, 0, 67, 85
4, 211388, Note_off_c, 0, 67, 0
4, 211392, Note_on_c, 0, 65, 85
4, 211520, Note_off_c, 0, 65, 0
4, 211584, Note_on_c, 0, 68, 85
4, 211772, Note_off_c, 0, 68, 0
4, 211776, Note_on_c, 0, 67, 85
4, 211904, Note_off_c, 0, 67, 0
4, 211968, Note_on_c, 0, 65, 85
4, 212348, Note_off_c, 0, 65, 0
4, 212544, Note_on_c, 0, 62, 85
4, 212732, Note_off_c, 0, 62, 0
4, 212736, Note_on_c, 0, 63, 85
4, 212924, Note_off_c, 0, 63, 0
4, 212928, Note_on_c, 0, 62, 85
4, 213056, Note_off_c, 0, 62, 0
4, 213120, Note_on_c, 0, 65, 85
4, 213308, Note_off_c, 0, 65, 0
4, 213312, Note_on_c, 0, 63, 85
4, 213440, Note_off_c, 0, 63, 0
4, 213504, Note_on_c, 0, 62, 85
4, 213884, Note_off_c, 0, 62, 0
4, 214464, Note_on_c, 0, 71, 100
4, 214592, Note_off_c, 0, 71, 0
4, 214656, Note_on_c, 0, 71, 100
4, 214784, Note_off_c, 0, 71, 0
4, 214848, Note_on_c, 0, 71, 100
4, 214976, Note_off_c, 0, 71, 0
4, 215040, Note_on_c, 0, 72, 100
4, 215420, Note_off_c, 0, 72, 0
4, 216768, Note_on_c, 0, 73, 100
4, 216896, Note_off_c, 0, 73, 0
4, 216960, Note_on_c, 0, 73, 100
4, 217088, Note_off_c, 0, 73, 0
4, 217152, Note_on_c, 0, 73, 100
4, 217280, Note_off_c, 0, 73, 0
4, 217344, Note_on_c, 0, 74, 100
4, 217724, Note_off_c, 0, 74, 0
4, 219072, Note_on_c, 0, 78, 100
4, 219200, Note_off_c, 0, 78, 0
4, 219264, Note_on_c, 0, 78, 100
4, 219392, Note_off_c, 0, 78, 0
4, 219456, Note_on_c, 0, 78, 100
4, 219584, Note_off_c, 0, 78, 0
4, 219648, Note_on_c, 0, 79, 100
4, 220028, Note_off_c, 0, 79, 0
4, 220224, Note_on_c, 0, 82, 85
4, 220412, Note_off_c, 0, 82, 0
4, 220416, Note_on_c, 0, 84, 85
4, 220796, Note_off_c, 0, 84, 0
4, 220992, Note_on_c, 0, 84, 85
4, 221180, Note_off_c, 0, 84, 0
4, 221184, Note_on_c, 0, 86, 85
4, 221564, Note_off_c, 0, 86, 0
4, 221760, Note_on_c, 0, 74, 85
4, 221948, Note_off_c, 0, 74, 0
4, 221952, Note_on_c, 0, 81, 85
4, 222140, Note_off_c, 0, 81, 0
4, 222144, Note_on_c, 0, 79, 85
4, 222332, Note_off_c, 0, 79, 0
4, 222336, Note_on_c, 0, 77, 85
4, 222524, Note_off_c, 0, 77, 0
4, 222528, Note_on_c, 0, 76, 85
4, 222716, Note_off_c, 0, 76, 0
4, 222720, Note_on_c, 0, 74, 85
4, 222908, Note_off_c, 0, 74, 0
4, 222912, Note_on_c, 0, 75, 85
4, 223100, Note_off_c, 0, 75, 0
4, 223104, Note_on_c, 0, 74, 85
4, 223292, Note_off_c, 0, 74, 0
4, 223296, Note_on_c, 0, 72, 85
4, 223484, Note_off_c, 0, 72, 0
4, 223488, Note_on_c, 0, 70, 85
4, 223676, Note_off_c, 0, 70, 0
4, 223680, Note_on_c, 0, 74, 85
4, 223868, Note_off_c, 0, 74, 0
4, 223872, Note_on_c, 0, 79, 85
4, 224384, Note_off_c, 0, 79, 0
4, 224448, Note_on_c, 0, 79, 85
4, 224636, Note_off_c, 0, 79, 0
4, 224640, Note_on_c, 0, 77, 85
4, 224828, Note_off_c, 0, 77, 0
4, 224832, Note_on_c, 0, 76, 85
4, 225020, Note_off_c, 0, 76, 0
4, 225024, Note_on_c, 0, 77, 85
4, 225212, Note_off_c, 0, 77, 0
4, 225216, Note_on_c, 0, 69, 85
4, 225404, Note_off_c, 0, 69, 0
4, 225408, Note_on_c, 0, 70, 85
4, 225596, Note_off_c, 0, 70, 0
4, 225600, Note_on_c, 0, 72, 85
4, 225788, Note_off_c, 0, 72, 0
4, 225792, Note_on_c, 0, 70, 85
4, 226172, Note_off_c, 0, 70, 0
4, 226368, Note_on_c, 0, 74, 85
4, 226556, Note_off_c, 0, 74, 0
4, 226560, Note_on_c, 0, 76, 85
4, 226940, Note_off_c, 0, 76, 0
4, 227136, Note_on_c, 0, 77, 85
4, 227324, Note_off_c, 0, 77, 0
4, 227328, Note_on_c, 0, 79, 85
4, 227708, Note_off_c, 0, 79, 0
4, 227904, Note_on_c, 0, 74, 85
4, 228092, Note_off_c, 0, 74, 0
4, 228096, Note_on_c, 0, 76, 85
4, 228476, Note_off_c, 0, 76, 0
4, 228672, Note_on_c, 0, 76, 85
4, 228860, Note_off_c, 0, 76, 0
4, 228864, Note_on_c, 0, 77, 85
4, 229052, Note_off_c, 0, 77, 0
4, 229248, Note_on_c, 0, 77, 85
4, 229436, Note_off_c, 0, 77, 0
4, 229632, Note_on_c, 0, 75, 85
4, 229820, Note_off_c, 0, 75, 0
4, 230016, Note_on_c, 0, 73, 85
4, 230204, Note_off_c, 0, 73, 0
4, 230400, Note_on_c, 0, 74, 85
4, 230588, Note_off_c, 0, 74, 0
4, 230784, Note_on_c, 0, 69, 85
4, 230972, Note_off_c, 0, 69, 0
4, 231168, Note_on_c, 0, 67, 85
4, 231356, Note_off_c, 0, 67, 0
4, 231552, Note_on_c, 0, 64, 85
4, 231740, Note_off_c, 0, 64, 0
4, 231936, Note_on_c, 0, 65, 85
4, 232124, Note_off_c, 0, 65, 0
4, 232128, Note_on_c, 0, 69, 85
4, 232316, Note_off_c, 0, 69, 0
4, 232320, Note_on_c, 0, 67, 85
4, 232508, Note_off_c, 0, 67, 0
4, 232512, Note_on_c, 0, 69, 85
4, 232700, Note_off_c, 0, 69, 0
4, 232704, Note_on_c, 0, 70, 85
4, 232892, Note_off_c, 0, 70, 0
4, 232896, Note_on_c, 0, 69, 85
4, 233084, Note_off_c, 0, 69, 0
4, 233088, Note_on_c, 0, 70, 85
4, 233276, Note_off_c, 0, 70, 0
4, 233280, Note_on_c, 0, 67, 85
4, 233468, Note_off_c, 0, 67, 0
4, 233472, Note_on_c, 0, 69, 85
4, 233660, Note_off_c, 0, 69, 0
4, 233664, Note_on_c, 0, 62, 85
4, 233852, Note_off_c, 0, 62, 0
4, 233856, Note_on_c, 0, 67, 85
4, 234044, Note_off_c, 0, 67, 0
4, 234048, Note_on_c, 0, 69, 85
4, 234236, Note_off_c, 0, 69, 0
4, 234240, Note_on_c, 0, 70, 85
4, 234428, Note_off_c, 0, 70, 0
4, 234432, Note_on_c, 0, 69, 85
4, 234620, Note_off_c, 0, 69, 0
4, 234624, Note_on_c, 0, 70, 85
4, 234812, Note_off_c, 0, 70, 0
4, 234816, Note_on_c, 0, 67, 85
4, 235004, Note_off_c, 0, 67, 0
4, 235008, Note_on_c, 0, 69, 85
4, 235196, Note_off_c, 0, 69, 0
4, 235200, Note_on_c, 0, 74, 85
4, 235580, Note_off_c, 0, 74, 0
4, 235584, Note_on_c, 0, 73, 85
4, 235772, Note_off_c, 0, 73, 0
4, 235776, Note_on_c, 0, 74, 85
4, 235964, Note_off_c, 0, 74, 0
4, 235968, Note_on_c, 0, 69, 85
4, 236156, Note_off_c, 0, 69, 0
4, 236160, Note_on_c, 0, 70, 85
4, 236348, Note_off_c, 0, 70, 0
4, 236352, Note_on_c, 0, 67, 85
4, 236540, Note_off_c, 0, 67, 0
4, 236544, Note_on_c, 0, 69, 85
4, 236732, Note_off_c, 0, 69, 0
4, 236736, Note_on_c, 0, 65, 85
4, 236924, Note_off_c, 0, 65, 0
4, 236928, Note_on_c, 0, 65, 85
4, 237100, Note_off_c, 0, 65, 0
4, 237120, Note_on_c, 0, 64, 85
4, 237308, Note_off_c, 0, 64, 0
4, 237312, Note_on_c, 0, 62, 85
4, 237500, Note_off_c, 0, 62, 0
4, 237504, Note_on_c, 0, 74, 85
4, 237692, Note_off_c, 0, 74, 0
4, 237696, Note_on_c, 0, 76, 85
4, 237868, Note_off_c, 0, 76, 0
4, 237888, Note_on_c, 0, 76, 85
4, 238076, Note_off_c, 0, 76, 0
4, 238080, Note_on_c, 0, 69, 85
4, 238460, Note_off_c, 0, 69, 0
4, 239616, Note_on_c, 0, 69, 85
4, 239996, Note_off_c, 0, 69, 0
4, 254016, Note_on_c, 0, 74, 85
4, 254148, Note_off_c, 0, 74, 0
4, 254208, Note_on_c, 0, 74, 85
4, 254340, Note_off_c, 0, 74, 0
4, 254784, Note_on_c, 0, 74, 85
4, 254916, Note_off_c, 0, 74, 0
4, 254976, Note_on_c, 0, 74, 85
4, 255108, Note_off_c, 0, 74, 0
4, 255552, Note_on_c, 0, 74, 85
4, 255684, Note_off_c, 0, 74, 0
4, 255744, Note_on_c, 0, 74, 85
4, 255876, Note_off_c, 0, 74, 0
4, 256320, Note_on_c, 0, 74, 85
4, 256452, Note_off_c, 0, 74, 0
4, 256512, Note_on_c, 0, 74, 85
4, 256644, Note_off_c, 0, 74, 0
4, 257088, Note_on_c, 0, 74, 85
4, 257220, Note_off_c, 0, 74, 0
4, 257280, Note_on_c, 0, 74, 85
4, 257412, Note_off_c, 0, 74, 0
4, 257856, Note_on_c, 0, 74, 85
4, 257988, Note_off_c, 0, 74, 0
4, 258048, Note_on_c, 0, 74, 85
4, 258180, Note_off_c, 0, 74, 0
4, 258624, Note_on_c, 0, 74, 85
4, 258756, Note_off_c, 0, 74, 0
4, 258816, Note_on_c, 0, 74, 85
4, 258948, Note_off_c, 0, 74, 0
4, 259392, Note_on_c, 0, 74, 85
4, 259524, Note_off_c, 0, 74, 0
4, 259584, Note_on_c, 0, 74, 85
4, 261116, Note_off_c, 0, 74, 0
4, 261120, Note_on_c, 0, 73, 85
4, 262652, Note_off_c, 0, 73, 0
4, 262656, Note_on_c, 0, 74, 85
4, 264188, Note_off_c, 0, 74, 0
4, 264192, Note_on_c, 0, 76, 85
4, 264956, Note_off_c, 0, 76, 0
4, 264960, Note_on_c, 0, 77, 85
4, 266492, Note_off_c, 0, 77, 0
4, 266496, Note_on_c, 0, 76, 85
4, 268796, Note_off_c, 0, 76, 0
4, 268800, Note_on_c, 0, 62, 100
4, 268896, Note_off_c, 0, 62, 0
4, 268896, Note_on_c, 0, 64, 100
4, 268992, Note_off_c, 0, 64, 0
4, 268992, Note_on_c, 0, 65, 100
4, 269120, Note_off_c, 0, 65, 0
4, 269184, Note_on_c, 0, 64, 100
4, 269376, Note_off_c, 0, 64, 0
4, 269376, Note_on_c, 0, 62, 100
4, 269568, Note_off_c, 0, 62, 0
4, 269568, Note_on_c, 0, 69, 100
4, 269760, Note_off_c, 0, 69, 0
4, 269760, Note_on_c, 0, 74, 100
4, 270144, Note_off_c, 0, 74, 0
4, 270144, Note_on_c, 0, 69, 100
4, 270336, Note_off_c, 0, 69, 0
4, 270336, Note_on_c, 0, 70, 100
4, 270524, Note_off_c, 0, 70, 0
4, 270528, Note_on_c, 0, 67, 100
4, 270620, Note_off_c, 0, 67, 0
4, 270624, Note_on_c, 0, 64, 100
4, 270716, Note_off_c, 0, 64, 0
4, 270720, Note_on_c, 0, 69, 100
4, 270908, Note_off_c, 0, 69, 0
4, 270912, Note_on_c, 0, 65, 100
4, 271004, Note_off_c, 0, 65, 0
4, 271008, Note_on_c, 0, 62, 100
4, 271100, Note_off_c, 0, 62, 0
4, 271104, Note_on_c, 0, 67, 100
4, 271292, Note_off_c, 0, 67, 0
4, 271296, Note_on_c, 0, 64, 100
4, 271388, Note_off_c, 0, 64, 0
4, 271392, Note_on_c, 0, 61, 100
4, 271484, Note_off_c, 0, 61, 0
4, 271488, Note_on_c, 0, 57, 100
4, 271616, Note_off_c, 0, 57, 0
4, 271680, Note_on_c, 0, 76, 87
4, 272060, Note_off_c, 0, 76, 0
4, 272064, Note_on_c, 0, 70, 85
4, 272156, Note_off_c, 0, 70, 0
4, 272160, Note_on_c, 0, 67, 85
4, 272252, Note_off_c, 0, 67, 0
4, 272256, Note_on_c, 0, 61, 85
4, 272444, Note_off_c, 0, 61, 0
4, 272448, Note_on_c, 0, 76, 85
4, 272828, Note_off_c, 0, 76, 0
4, 272832, Note_on_c, 0, 70, 85
4, 272924, Note_off_c, 0, 70, 0
4, 272928, Note_on_c, 0, 67, 85
4, 273020, Note_off_c, 0, 67, 0
4, 273024, Note_on_c, 0, 61, 85
4, 273212, Note_off_c, 0, 61, 0
4, 273216, Note_on_c, 0, 73, 85
4, 273404, Note_off_c, 0, 73, 0
4, 273408, Note_on_c, 0, 74, 85
4, 273596, Note_off_c, 0, 74, 0
4, 273600, Note_on_c, 0, 69, 85
4, 273788, Note_off_c, 0, 69, 0
4, 273792, Note_on_c, 0, 65, 85
4, 273980, Note_off_c, 0, 65, 0
4, 273984, Note_on_c, 0, 69, 85
4, 274172, Note_off_c, 0, 69, 0
4, 274176, Note_on_c, 0, 74, 85
4, 274364, Note_off_c, 0, 74, 0
4, 274368, Note_on_c, 0, 69, 85
4, 274556, Note_off_c, 0, 69, 0
4, 274560, Note_on_c, 0, 62, 85
4, 274748, Note_off_c, 0, 62, 0
4, 274752, Note_on_c, 0, 84, 85
4, 275132, Note_off_c, 0, 84, 0
4, 275136, Note_on_c, 0, 75, 85
4, 275228, Note_off_c, 0, 75, 0
4, 275232, Note_on_c, 0, 72, 85
4, 275324, Note_off_c, 0, 72, 0
4, 275328, Note_on_c, 0, 66, 85
4, 275516, Note_off_c, 0, 66, 0
4, 275520, Note_on_c, 0, 84, 85
4, 275900, Note_off_c, 0, 84, 0
4, 275904, Note_on_c, 0, 75, 85
4, 275996, Note_off_c, 0, 75, 0
4, 276000, Note_on_c, 0, 72, 85
4, 276092, Note_off_c, 0, 72, 0
4, 276096, Note_on_c, 0, 66, 85
4, 276284, Note_off_c, 0, 66, 0
4, 276288, Note_on_c, 0, 78, 85
4, 276476, Note_off_c, 0, 78, 0
4, 276480, Note_on_c, 0, 79, 85
4, 276668, Note_off_c, 0, 79, 0
4, 276672, Note_on_c, 0, 74, 85
4, 276860, Note_off_c, 0, 74, 0
4, 276864, Note_on_c, 0, 70, 85
4, 277052, Note_off_c, 0, 70, 0
4, 277056, Note_on_c, 0, 74, 85
4, 277244, Note_off_c, 0, 74, 0
4, 277248, Note_on_c, 0, 79, 85
4, 277436, Note_off_c, 0, 79, 0
4, 277440, Note_on_c, 0, 74, 85
4, 277628, Note_off_c, 0, 74, 0
4, 277632, Note_on_c, 0, 70, 85
4, 277820, Note_off_c, 0, 70, 0
4, 277824, Note_on_c, 0, 74, 85
4, 278204, Note_off_c, 0, 74, 0
4, 278208, Note_on_c, 0, 65, 85
4, 278300, Note_off_c, 0, 65, 0
4, 278304, Note_on_c, 0, 62, 85
4, 278396, Note_off_c, 0, 62, 0
4, 278400, Note_on_c, 0, 56, 85
4, 278588, Note_off_c, 0, 56, 0
4, 278592, Note_on_c, 0, 74, 85
4, 278972, Note_off_c, 0, 74, 0
4, 278976, Note_on_c, 0, 65, 85
4, 279068, Note_off_c, 0, 65, 0
4, 279072, Note_on_c, 0, 62, 85
4, 279164, Note_off_c, 0, 62, 0
4, 279168, Note_on_c, 0, 56, 85
4, 279356, Note_off_c, 0, 56, 0
4, 279360, Note_on_c, 0, 76, 85
4, 279740, Note_off_c, 0, 76, 0
4, 279744, Note_on_c, 0, 70, 85
4, 279836, Note_off_c, 0, 70, 0
4, 279840, Note_on_c, 0, 67, 85
4, 279932, Note_off_c, 0, 67, 0
4, 279936, Note_on_c, 0, 61, 85
4, 280124, Note_off_c, 0, 61, 0
4, 280128, Note_on_c, 0, 76, 85
4, 280508, Note_off_c, 0, 76, 0
4, 280512, Note_on_c, 0, 70, 85
4, 280604, Note_off_c, 0, 70, 0
4, 280608, Note_on_c, 0, 67, 85
4, 280700, Note_off_c, 0, 67, 0
4, 280704, Note_on_c, 0, 61, 85
4, 280892, Note_off_c, 0, 61, 0
4, 280896, Note_on_c, 0, 81, 85
4, 281040, Note_off_c, 0, 81, 0
4, 281088, Note_on_c, 0, 81, 85
4, 281232, Note_off_c, 0, 81, 0
4, 281280, Note_on_c, 0, 77, 85
4, 281424, Note_off_c, 0, 77, 0
4, 281472, Note_on_c, 0, 74, 85
4, 281616, Note_off_c, 0, 74, 0
4, 281664, Note_on_c, 0, 77, 85
4, 281808, Note_off_c, 0, 77, 0
4, 281856, Note_on_c, 0, 81, 85
4, 282000, Note_off_c, 0, 81, 0
4, 282048, Note_on_c, 0, 77, 85
4, 282192, Note_off_c, 0, 77, 0
4, 282240, Note_on_c, 0, 74, 85
4, 282384, Note_off_c, 0, 74, 0
4, 282432, Note_on_c, 0, 77, 85
4, 282576, Note_off_c, 0, 77, 0
4, 282624, Note_on_c, 0, 82, 85
4, 282768, Note_off_c, 0, 82, 0
4, 282816, Note_on_c, 0, 77, 85
4, 282960, Note_off_c, 0, 77, 0
4, 283008, Note_on_c, 0, 74, 85
4, 283152, Note_off_c, 0, 74, 0
4, 283200, Note_on_c, 0, 77, 85
4, 283344, Note_off_c, 0, 77, 0
4, 283392, Note_on_c, 0, 81, 85
4, 283536, Note_off_c, 0, 81, 0
4, 283584, Note_on_c, 0, 77, 85
4, 283728, Note_off_c, 0, 77, 0
4, 283776, Note_on_c, 0, 74, 85
4, 283920, Note_off_c, 0, 74, 0
4, 283968, Note_on_c, 0, 77, 85
4, 284112, Note_off_c, 0, 77, 0
4, 284160, Note_on_c, 0, 76, 85
4, 284348, Note_off_c, 0, 76, 0
4, 284352, Note_on_c, 0, 74, 85
4, 284480, Note_off_c, 0, 74, 0
4, 284544, Note_on_c, 0, 73, 85
4, 284732, Note_off_c, 0, 73, 0
4, 284736, Note_on_c, 0, 74, 85
4, 284864, Note_off_c, 0, 74, 0
4, 284928, Note_on_c, 0, 70, 85
4, 285116, Note_off_c, 0, 70, 0
4, 285120, Note_on_c, 0, 76, 85
4, 285248, Note_off_c, 0, 76, 0
4, 285312, Note_on_c, 0, 79, 85
4, 285500, Note_off_c, 0, 79, 0
4, 285504, Note_on_c, 0, 70, 85
4, 285632, Note_off_c, 0, 70, 0
4, 285696, Note_on_c, 0, 69, 85
4, 285884, Note_off_c, 0, 69, 0
4, 287232, Note_on_c, 0, 62, 100
4, 287328, Note_off_c, 0, 62, 0
4, 287328, Note_on_c, 0, 64, 100
4, 287424, Note_off_c, 0, 64, 0
4, 287424, Note_on_c, 0, 65, 100
4, 287552, Note_off_c, 0, 65, 0
4, 287616, Note_on_c, 0, 64, 100
4, 287808, Note_off_c, 0, 64, 0
4, 287808, Note_on_c, 0, 62, 100
4, 288000, Note_off_c, 0, 62, 0
4, 288000, Note_on_c, 0, 69, 100
4, 288192, Note_off_c, 0, 69, 0
4, 288192, Note_on_c, 0, 74, 100
4, 288576, Note_off_c, 0, 74, 0
4, 288576, Note_on_c, 0, 69, 100
4, 288768, Note_off_c, 0, 69, 0
4, 288768, Note_on_c, 0, 70, 100
4, 288956, Note_off_c, 0, 70, 0
4, 288960, Note_on_c, 0, 67, 100
4, 289052, Note_off_c, 0, 67, 0
4, 289056, Note_on_c, 0, 64, 100
4, 289148, Note_off_c, 0, 64, 0
4, 289152, Note_on_c, 0, 69, 100
4, 289340, Note_off_c, 0, 69, 0
4, 289344, Note_on_c, 0, 65, 100
4, 289436, Note_off_c, 0, 65, 0
4, 289440, Note_on_c, 0, 62, 100
4, 289532, Note_off_c, 0, 62, 0
4, 289536, Note_on_c, 0, 67, 100
4, 289724, Note_off_c, 0, 67, 0
4, 289728, Note_on_c, 0, 64, 100
4, 289820, Note_off_c, 0, 64, 0
4, 289824, Note_on_c, 0, 61, 100
4, 289916, Note_off_c, 0, 61, 0
4, 289920, Note_on_c, 0, 57, 100
4, 290048, Note_off_c, 0, 57, 0
4, 290112, Note_on_c, 0, 70, 100
4, 290492, Note_off_c, 0, 70, 0
4, 290496, Note_on_c, 0, 67, 100
4, 290588, Note_off_c, 0, 67, 0
4, 290592, Note_on_c, 0, 64, 100
4, 290684, Note_off_c, 0, 64, 0
4, 290688, Note_on_c, 0, 57, 100
4, 290816, Note_off_c, 0, 57, 0
4, 290880, Note_on_c, 0, 73, 100
4, 291260, Note_off_c, 0, 73, 0
4, 291264, Note_on_c, 0, 70, 100
4, 291356, Note_off_c, 0, 70, 0
4, 291360, Note_on_c, 0, 67, 100
4, 291452, Note_off_c, 0, 67, 0
4, 291456, Note_on_c, 0, 57, 100
4, 291584, Note_off_c, 0, 57, 0
4, 291648, Note_on_c, 0, 76, 100
4, 292028, Note_off_c, 0, 76, 0
4, 292032, Note_on_c, 0, 73, 100
4, 292124, Note_off_c, 0, 73, 0
4, 292128, Note_on_c, 0, 69, 100
4, 292220, Note_off_c, 0, 69, 0
4, 292224, Note_on_c, 0, 70, 100
4, 292316, Note_off_c, 0, 70, 0
4, 292320, Note_on_c, 0, 67, 100
4, 292412, Note_off_c, 0, 67, 0
4, 292416, Note_on_c, 0, 69, 100
4, 292508, Note_off_c, 0, 69, 0
4, 292512, Note_on_c, 0, 65, 100
4, 292604, Note_off_c, 0, 65, 0
4, 292608, Note_on_c, 0, 67, 100
4, 292700, Note_off_c, 0, 67, 0
4, 292704, Note_on_c, 0, 64, 100
4, 292796, Note_off_c, 0, 64, 0
4, 292800, Note_on_c, 0, 65, 100
4, 292892, Note_off_c, 0, 65, 0
4, 292896, Note_on_c, 0, 62, 100
4, 292988, Note_off_c, 0, 62, 0
4, 292992, Note_on_c, 0, 64, 100
4, 293084, Note_off_c, 0, 64, 0
4, 293088, Note_on_c, 0, 61, 100
4, 293180, Note_off_c, 0, 61, 0
4, 293184, Note_on_c, 0, 62, 100
4, 293276, Note_off_c, 0, 62, 0
4, 293280, Note_on_c, 0, 59, 100
4, 293372, Note_off_c, 0, 59, 0
4, 293376, Note_on_c, 0, 61, 100
4, 293468, Note_off_c, 0, 61, 0
4, 293472, Note_on_c, 0, 57, 100
4, 293564, Note_off_c, 0, 57, 0
4, 293568, Note_on_c, 0, 59, 100
4, 293660, Note_off_c, 0, 59, 0
4, 293664, Note_on_c, 0, 61, 100
4, 293756, Note_off_c, 0, 61, 0
4, 293760, Note_on_c, 0, 62, 100
4, 293852, Note_off_c, 0, 62, 0
4, 293856, Note_on_c, 0, 64, 100
4, 293948, Note_off_c, 0, 64, 0
4, 293952, Note_on_c, 0, 65, 100
4, 294044, Note_off_c, 0, 65, 0
4, 294048, Note_on_c, 0, 67, 100
4, 294140, Note_off_c, 0, 67, 0
4, 294144, Note_on_c, 0, 69, 100
4, 294236, Note_off_c, 0, 69, 0
4, 294240, Note_on_c, 0, 70, 100
4, 294332, Note_off_c, 0, 70, 0
4, 294336, Note_on_c, 0, 72, 100
4, 294464, Note_off_c, 0, 72, 0
4, 294528, Note_on_c, 0, 72, 100
4, 294620, Note_off_c, 0, 72, 0
4, 294624, Note_on_c, 0, 74, 100
4, 294716, Note_off_c, 0, 74, 0
4, 294720, Note_on_c, 0, 75, 100
4, 294848, Note_off_c, 0, 75, 0
4, 294912, Note_on_c, 0, 66, 100
4, 295020, Note_off_c, 0, 66, 0
4, 295104, Note_on_c, 0, 67, 100
4, 295212, Note_off_c, 0, 67, 0
4, 295296, Note_on_c, 0, 61, 100
4, 295404, Note_off_c, 0, 61, 0
4, 295488, Note_on_c, 0, 62, 100
4, 295596, Note_off_c, 0, 62, 0
4, 295680, Note_on_c, 0, 56, 100
4, 295868, Note_off_c, 0, 56, 0
4, 296064, Note_on_c, 0, 57, 100
4, 296252, Note_off_c, 0, 57, 0
4, 296448, Note_on_c, 0, 62, 100
4, 297212, Note_off_c, 0, 62, 0
4, 297212, End_track
5, 0, Start_track
5, 0, Title_t, "Violin II"
5, 0, Control_c, 1, 0, 0
5, 0, Program_c, 1, 41
5, 0, Control_c, 1, 7, 85
5, 0, Control_c, 1, 10, 0
5, 0, Control_c, 1, 93, 15
5, 0, Key_signature, -1, "minor"
5, 0, Note_on_c, 1, 62, 100
5, 96, Note_off_c, 1, 62, 0
5, 96, Note_on_c, 1, 64, 100
5, 192, Note_off_c, 1, 64, 0
5, 192, Note_on_c, 1, 65, 100
5, 320, Note_off_c, 1, 65, 0
5, 384, Note_on_c, 1, 64, 100
5, 576, Note_off_c, 1, 64, 0
5, 576, Note_on_c, 1, 62, 100
5, 768, Note_off_c, 1, 62, 0
5, 768, Note_on_c, 1, 69, 100
5, 960, Note_off_c, 1, 69, 0
5, 960, Note_on_c, 1, 74, 100
5, 1344, Note_off_c, 1, 74, 0
5, 1344, Note_on_c, 1, 69, 100
5, 1536, Note_off_c, 1, 69, 0
5, 1536, Note_on_c, 1, 70, 100
5, 1724, Note_off_c, 1, 70, 0
5, 1728, Note_on_c, 1, 67, 100
5, 1820, Note_off_c, 1, 67, 0
5, 1824, Note_on_c, 1, 64, 100
5, 1916, Note_off_c, 1, 64, 0
5, 1920, Note_on_c, 1, 69, 100
5, 2108, Note_off_c, 1, 69, 0
5, 2112, Note_on_c, 1, 65, 100
5, 2204, Note_off_c, 1, 65, 0
5, 2208, Note_on_c, 1, 62, 100
5, 2300, Note_off_c, 1, 62, 0
5, 2304, Note_on_c, 1, 67, 100
5, 2492, Note_off_c, 1, 67, 0
5, 2496, Note_on_c, 1, 64, 100
5, 2588, Note_off_c, 1, 64, 0
5, 2592, Note_on_c, 1, 61, 100
5, 2684, Note_off_c, 1, 61, 0
5, 2688, Note_on_c, 1, 57, 100
5, 2816, Note_off_c, 1, 57, 0
5, 2880, Note_on_c, 1, 70, 100
5, 3260, Note_off_c, 1, 70, 0
5, 3264, Note_on_c, 1, 67, 100
5, 3356, Note_off_c, 1, 67, 0
5, 3360, Note_on_c, 1, 64, 100
5, 3452, Note_off_c, 1, 64, 0
5, 3456, Note_on_c, 1, 57, 100
5, 3584, Note_off_c, 1, 57, 0
5, 3648, Note_on_c, 1, 73, 100
5, 4028, Note_off_c, 1, 73, 0
5, 4032, Note_on_c, 1, 70, 100
5, 4124, Note_off_c, 1, 70, 0
5, 4128, Note_on_c, 1, 67, 100
5, 4220, Note_off_c, 1, 67, 0
5, 4224, Note_on_c, 1, 57, 100
5, 4352, Note_off_c, 1, 57, 0
5, 4416, Note_on_c, 1, 76, 100
5, 4796, Note_off_c, 1, 76, 0
5, 4800, Note_on_c, 1, 73, 100
5, 4892, Note_off_c, 1, 73, 0
5, 4896, Note_on_c, 1, 69, 100
5, 4988, Note_off_c, 1, 69, 0
5, 4992, Note_on_c, 1, 70, 100
5, 5084, Note_off_c, 1, 70, 0
5, 5088, Note_on_c, 1, 67, 100
5, 5180, Note_off_c, 1, 67, 0
5, 5184, Note_on_c, 1, 69, 100
5, 5276, Note_off_c, 1, 69, 0
5, 5280, Note_on_c, 1, 65, 100
5, 5372, Note_off_c, 1, 65, 0
5, 5376, Note_on_c, 1, 67, 100
5, 5468, Note_off_c, 1, 67, 0
5, 5472, Note_on_c, 1, 64, 100
5, 5564, Note_off_c, 1, 64, 0
5, 5568, Note_on_c, 1, 65, 100
5, 5660, Note_off_c, 1, 65, 0
5, 5664, Note_on_c, 1, 62, 100
5, 5756, Note_off_c, 1, 62, 0
5, 5760, Note_on_c, 1, 64, 100
5, 5852, Note_off_c, 1, 64, 0
5, 5856, Note_on_c, 1, 61, 100
5, 5948, Note_off_c, 1, 61, 0
5, 5952, Note_on_c, 1, 62, 100
5, 6044, Note_off_c, 1, 62, 0
5, 6048, Note_on_c, 1, 59, 100
5, 6140, Note_off_c, 1, 59, 0
5, 6144, Note_on_c, 1, 61, 100
5, 6236, Note_off_c, 1, 61, 0
5, 6240, Note_on_c, 1, 57, 100
5, 6332, Note_off_c, 1, 57, 0
5, 6336, Note_on_c, 1, 59, 100
5, 6428, Note_off_c, 1, 59, 0
5, 6432, Note_on_c, 1, 61, 100
5, 6524, Note_off_c, 1, 61, 0
5, 6528, Note_on_c, 1, 62, 100
5, 6620, Note_off_c, 1, 62, 0
5, 6624, Note_on_c, 1, 64, 100
5, 6716, Note_off_c, 1, 64, 0
5, 6720, Note_on_c, 1, 65, 100
5, 6812, Note_off_c, 1, 65, 0
5, 6816, Note_on_c, 1, 67, 100
5, 6908, Note_off_c, 1, 67, 0
5, 6912, Note_on_c, 1, 69, 100
5, 7004, Note_off_c, 1, 69, 0
5, 7008, Note_on_c, 1, 70, 100
5, 7100, Note_off_c, 1, 70, 0
5, 7104, Note_on_c, 1, 72, 100
5, 7232, Note_off_c, 1, 72, 0
5, 7296, Note_on_c, 1, 72, 100
5, 7388, Note_off_c, 1, 72, 0
5, 7392, Note_on_c, 1, 74, 100
5, 7484, Note_off_c, 1, 74, 0
5, 7488, Note_on_c, 1, 75, 100
5, 7616, Note_off_c, 1, 75, 0
5, 7680, Note_on_c, 1, 66, 100
5, 7788, Note_off_c, 1, 66, 0
5, 7872, Note_on_c, 1, 67, 100
5, 7980, Note_off_c, 1, 67, 0
5, 8064, Note_on_c, 1, 61, 100
5, 8172, Note_off_c, 1, 61, 0
5, 8256, Note_on_c, 1, 62, 100
5, 8364, Note_off_c, 1, 62, 0
5, 8448, Note_on_c, 1, 56, 100
5, 8636, Note_off_c, 1, 56, 0
5, 8832, Note_on_c, 1, 57, 100
5, 9020, Note_off_c, 1, 57, 0
5, 9216, Note_on_c, 1, 62, 85
5, 9404, Note_off_c, 1, 62, 0
5, 9600, Note_on_c, 1, 69, 85
5, 9788, Note_off_c, 1, 69, 0
5, 9792, Note_on_c, 1, 67, 85
5, 9980, Note_off_c, 1, 67, 0
5, 10368, Note_on_c, 1, 74, 85
5, 10556, Note_off_c, 1, 74, 0
5, 10560, Note_on_c, 1, 73, 85
5, 10748, Note_off_c, 1, 73, 0
5, 11136, Note_on_c, 1, 74, 85
5, 11324, Note_off_c, 1, 74, 0
5, 11328, Note_on_c, 1, 73, 85
5, 11516, Note_off_c, 1, 73, 0
5, 11904, Note_on_c, 1, 74, 85
5, 12092, Note_off_c, 1, 74, 0
5, 12096, Note_on_c, 1, 73, 85
5, 12284, Note_off_c, 1, 73, 0
5, 12672, Note_on_c, 1, 69, 85
5, 12860, Note_off_c, 1, 69, 0
5, 12864, Note_on_c, 1, 67, 85
5, 13052, Note_off_c, 1, 67, 0
5, 13440, Note_on_c, 1, 65, 85
5, 13628, Note_off_c, 1, 65, 0
5, 13632, Note_on_c, 1, 64, 85
5, 13820, Note_off_c, 1, 64, 0
5, 14208, Note_on_c, 1, 62, 85
5, 14396, Note_off_c, 1, 62, 0
5, 14400, Note_on_c, 1, 61, 85
5, 14588, Note_off_c, 1, 61, 0
5, 14976, Note_on_c, 1, 62, 85
5, 15164, Note_off_c, 1, 62, 0
5, 15168, Note_on_c, 1, 61, 85
5, 15356, Note_off_c, 1, 61, 0
5, 15744, Note_on_c, 1, 65, 85
5, 15932, Note_off_c, 1, 65, 0
5, 15936, Note_on_c, 1, 64, 85
5, 16124, Note_off_c, 1, 64, 0
5, 16128, Note_on_c, 1, 65, 85
5, 16508, Note_off_c, 1, 65, 0
5, 18432, Note_on_c, 1, 62, 100
5, 18528, Note_off_c, 1, 62, 0
5, 18528, Note_on_c, 1, 64, 100
5, 18624, Note_off_c, 1, 64, 0
5, 18624, Note_on_c, 1, 65, 100
5, 18752, Note_off_c, 1, 65, 0
5, 18816, Note_on_c, 1, 64, 100
5, 19008, Note_off_c, 1, 64, 0
5, 19008, Note_on_c, 1, 62, 100
5, 19200, Note_off_c, 1, 62, 0
5, 19200, Note_on_c, 1, 69, 100
5, 19392, Note_off_c, 1, 69, 0
5, 19392, Note_on_c, 1, 74, 100
5, 19776, Note_off_c, 1, 74, 0
5, 19776, Note_on_c, 1, 69, 100
5, 19968, Note_off_c, 1, 69, 0
5, 19968, Note_on_c, 1, 70, 100
5, 20156, Note_off_c, 1, 70, 0
5, 20160, Note_on_c, 1, 67, 100
5, 20252, Note_off_c, 1, 67, 0
5, 20256, Note_on_c, 1, 64, 100
5, 20348, Note_off_c, 1, 64, 0
5, 20352, Note_on_c, 1, 69, 100
5, 20540, Note_off_c, 1, 69, 0
5, 20544, Note_on_c, 1, 65, 100
5, 20636, Note_off_c, 1, 65, 0
5, 20640, Note_on_c, 1, 62, 100
5, 20732, Note_off_c, 1, 62, 0
5, 20736, Note_on_c, 1, 67, 100
5, 20924, Note_off_c, 1, 67, 0
5, 20928, Note_on_c, 1, 64, 100
5, 21020, Note_off_c, 1, 64, 0
5, 21024, Note_on_c, 1, 61, 100
5, 21116, Note_off_c, 1, 61, 0
5, 21120, Note_on_c, 1, 57, 100
5, 21248, Note_off_c, 1, 57, 0
5, 21312, Note_on_c, 1, 70, 100
5, 21692, Note_off_c, 1, 70, 0
5, 21696, Note_on_c, 1, 67, 100
5, 21788, Note_off_c, 1, 67, 0
5, 21792, Note_on_c, 1, 64, 100
5, 21884, Note_off_c, 1, 64, 0
5, 21888, Note_on_c, 1, 57, 100
5, 22016, Note_off_c, 1, 57, 0
5, 22080, Note_on_c, 1, 73, 100
5, 22460, Note_off_c, 1, 73, 0
5, 22464, Note_on_c, 1, 70, 100
5, 22556, Note_off_c, 1, 70, 0
5, 22560, Note_on_c, 1, 67, 100
5, 22652, Note_off_c, 1, 67, 0
5, 22656, Note_on_c, 1, 57, 100
5, 22784, Note_off_c, 1, 57, 0
5, 22848, Note_on_c, 1, 76, 100
5, 23228, Note_off_c, 1, 76, 0
5, 23232, Note_on_c, 1, 73, 100
5, 23324, Note_off_c, 1, 73, 0
5, 23328, Note_on_c, 1, 69, 100
5, 23420, Note_off_c, 1, 69, 0
5, 23424, Note_on_c, 1, 70, 100
5, 23516, Note_off_c, 1, 70, 0
5, 23520, Note_on_c, 1, 67, 100
5, 23612, Note_off_c, 1, 67, 0
5, 23616, Note_on_c, 1, 69, 100
5, 23708, Note_off_c, 1, 69, 0
5, 23712, Note_on_c, 1, 65, 100
5, 23804, Note_off_c, 1, 65, 0
5, 23808, Note_on_c, 1, 67, 100
5, 23900, Note_off_c, 1, 67, 0
5, 23904, Note_on_c, 1, 64, 100
5, 23996, Note_off_c, 1, 64, 0
5, 24000, Note_on_c, 1, 65, 100
5, 24092, Note_off_c, 1, 65, 0
5, 24096, Note_on_c, 1, 62, 100
5, 24188, Note_off_c, 1, 62, 0
5, 24192, Note_on_c, 1, 64, 100
5, 24284, Note_off_c, 1, 64, 0
5, 24288, Note_on_c, 1, 61, 100
5, 24380, Note_off_c, 1, 61, 0
5, 24384, Note_on_c, 1, 62, 100
5, 24476, Note_off_c, 1, 62, 0
5, 24480, Note_on_c, 1, 59, 100
5, 24572, Note_off_c, 1, 59, 0
5, 24576, Note_on_c, 1, 61, 100
5, 24668, Note_off_c, 1, 61, 0
5, 24672, Note_on_c, 1, 57, 100
5, 24764, Note_off_c, 1, 57, 0
5, 24768, Note_on_c, 1, 59, 100
5, 24860, Note_off_c, 1, 59, 0
5, 24864, Note_on_c, 1, 61, 100
5, 24956, Note_off_c, 1, 61, 0
5, 24960, Note_on_c, 1, 62, 100
5, 25052, Note_off_c, 1, 62, 0
5, 25056, Note_on_c, 1, 64, 100
5, 25148, Note_off_c, 1, 64, 0
5, 25152, Note_on_c, 1, 65, 100
5, 25244, Note_off_c, 1, 65, 0
5, 25248, Note_on_c, 1, 67, 100
5, 25340, Note_off_c, 1, 67, 0
5, 25344, Note_on_c, 1, 69, 100
5, 25436, Note_off_c, 1, 69, 0
5, 25440, Note_on_c, 1, 70, 100
5, 25532, Note_off_c, 1, 70, 0
5, 25536, Note_on_c, 1, 72, 100
5, 25664, Note_off_c, 1, 72, 0
5, 25728, Note_on_c, 1, 72, 100
5, 25820, Note_off_c, 1, 72, 0
5, 25824, Note_on_c, 1, 74, 100
5, 25916, Note_off_c, 1, 74, 0
5, 25920, Note_on_c, 1, 75, 100
5, 26048, Note_off_c, 1, 75, 0
5, 26112, Note_on_c, 1, 66, 100
5, 26300, Note_off_c, 1, 66, 0
5, 26304, Note_on_c, 1, 67, 100
5, 26492, Note_off_c, 1, 67, 0
5, 26880, Note_on_c, 1, 64, 100
5, 27068, Note_off_c, 1, 64, 0
5, 27072, Note_on_c, 1, 65, 100
5, 27260, Note_off_c, 1, 65, 0
5, 27648, Note_on_c, 1, 74, 100
5, 28028, Note_off_c, 1, 74, 0
5, 28416, Note_on_c, 1, 65, 100
5, 28796, Note_off_c, 1, 65, 0
5, 29184, Note_on_c, 1, 59, 100
5, 29276, Note_off_c, 1, 59, 0
5, 29280, Note_on_c, 1, 64, 100
5, 29372, Note_off_c, 1, 64, 0
5, 29376, Note_on_c, 1, 66, 100
5, 29468, Note_off_c, 1, 66, 0
5, 29472, Note_on_c, 1, 68, 100
5, 29564, Note_off_c, 1, 68, 0
5, 29568, Note_on_c, 1, 69, 100
5, 29660, Note_off_c, 1, 69, 0
5, 29664, Note_on_c, 1, 71, 100
5, 29756, Note_off_c, 1, 71, 0
5, 29760, Note_on_c, 1, 72, 100
5, 29852, Note_off_c, 1, 72, 0
5, 29856, Note_on_c, 1, 74, 100
5, 29948, Note_off_c, 1, 74, 0
5, 29952, Note_on_c, 1, 76, 100
5, 30044, Note_off_c, 1, 76, 0
5, 30048, Note_on_c, 1, 77, 100
5, 30140, Note_off_c, 1, 77, 0
5, 30144, Note_on_c, 1, 79, 100
5, 30272, Note_off_c, 1, 79, 0
5, 30336, Note_on_c, 1, 79, 100
5, 30428, Note_off_c, 1, 79, 0
5, 30432, Note_on_c, 1, 81, 100
5, 30524, Note_off_c, 1, 81, 0
5, 30528, Note_on_c, 1, 82, 100
5, 30656, Note_off_c, 1, 82, 0
5, 30720, Note_on_c, 1, 73, 100
5, 30828, Note_off_c, 1, 73, 0
5, 30912, Note_on_c, 1, 74, 100
5, 31020, Note_off_c, 1, 74, 0
5, 31104, Note_on_c, 1, 68, 100
5, 31212, Note_off_c, 1, 68, 0
5, 31296, Note_on_c, 1, 69, 100
5, 31404, Note_off_c, 1, 69, 0
5, 31488, Note_on_c, 1, 63, 100
5, 31680, Note_off_c, 1, 63, 0
5, 31872, Note_on_c, 1, 64, 100
5, 32064, Note_off_c, 1, 64, 0
5, 32256, Note_on_c, 1, 57, 100
5, 32448, Note_off_c, 1, 57, 0
5, 32640, Note_on_c, 1, 64, 85
5, 32828, Note_off_c, 1, 64, 0
5, 32832, Note_on_c, 1, 62, 85
5, 33020, Note_off_c, 1, 62, 0
5, 33408, Note_on_c, 1, 69, 85
5, 33596, Note_off_c, 1, 69, 0
5, 33600, Note_on_c, 1, 68, 85
5, 33788, Note_off_c, 1, 68, 0
5, 34176, Note_on_c, 1, 69, 85
5, 34364, Note_off_c, 1, 69, 0
5, 34368, Note_on_c, 1, 68, 85
5, 34556, Note_off_c, 1, 68, 0
5, 34944, Note_on_c, 1, 69, 85
5, 35132, Note_off_c, 1, 69, 0
5, 35136, Note_on_c, 1, 68, 85
5, 35324, Note_off_c, 1, 68, 0
5, 35712, Note_on_c, 1, 64, 85
5, 35900, Note_off_c, 1, 64, 0
5, 35904, Note_on_c, 1, 62, 85
5, 36092, Note_off_c, 1, 62, 0
5, 36480, Note_on_c, 1, 60, 85
5, 36668, Note_off_c, 1, 60, 0
5, 36672, Note_on_c, 1, 59, 85
5, 36860, Note_off_c, 1, 59, 0
5, 37248, Note_on_c, 1, 57, 85
5, 37436, Note_off_c, 1, 57, 0
5, 37440, Note_on_c, 1, 56, 85
5, 37628, Note_off_c, 1, 56, 0
5, 38016, Note_on_c, 1, 62, 85
5, 38204, Note_off_c, 1, 62, 0
5, 38208, Note_on_c, 1, 59, 85
5, 38396, Note_off_c, 1, 59, 0
5, 38400, Note_on_c, 1, 64, 85
5, 38780, Note_off_c, 1, 64, 0
5, 41472, Note_on_c, 1, 64, 85
5, 41664, Note_off_c, 1, 64, 0
5, 41856, Note_on_c, 1, 76, 85
5, 42048, Note_off_c, 1, 76, 0
5, 42240, Note_on_c, 1, 73, 85
5, 42432, Note_off_c, 1, 73, 0
5, 42624, Note_on_c, 1, 69, 85
5, 42816, Note_off_c, 1, 69, 0
5, 43008, Note_on_c, 1, 62, 85
5, 43104, Note_off_c, 1, 62, 0
5, 43104, Note_on_c, 1, 64, 85
5, 43200, Note_off_c, 1, 64, 0
5, 43200, Note_on_c, 1, 65, 85
5, 43308, Note_off_c, 1, 65, 0
5, 43392, Note_on_c, 1, 64, 85
5, 43584, Note_off_c, 1, 64, 0
5, 43584, Note_on_c, 1, 62, 85
5, 43776, Note_off_c, 1, 62, 0
5, 43776, Note_on_c, 1, 69, 85
5, 43968, Note_off_c, 1, 69, 0
5, 43968, Note_on_c, 1, 74, 85
5, 44348, Note_off_c, 1, 74, 0
5, 44352, Note_on_c, 1, 69, 85
5, 44544, Note_off_c, 1, 69, 0
5, 44544, Note_on_c, 1, 62, 85
5, 44736, Note_off_c, 1, 62, 0
5, 44928, Note_on_c, 1, 74, 85
5, 45120, Note_off_c, 1, 74, 0
5, 45312, Note_on_c, 1, 71, 85
5, 45504, Note_off_c, 1, 71, 0
5, 45696, Note_on_c, 1, 67, 85
5, 45888, Note_off_c, 1, 67, 0
5, 46080, Note_on_c, 1, 60, 85
5, 46176, Note_off_c, 1, 60, 0
5, 46176, Note_on_c, 1, 62, 85
5, 46272, Note_off_c, 1, 62, 0
5, 46272, Note_on_c, 1, 64, 85
5, 46380, Note_off_c, 1, 64, 0
5, 46464, Note_on_c, 1, 62, 85
5, 46656, Note_off_c, 1, 62, 0
5, 46656, Note_on_c, 1, 60, 85
5, 46848, Note_off_c, 1, 60, 0
5, 46848, Note_on_c, 1, 67, 85
5, 47040, Note_off_c, 1, 67, 0
5, 47040, Note_on_c, 1, 72, 85
5, 47420, Note_off_c, 1, 72, 0
5, 47424, Note_on_c, 1, 67, 85
5, 47616, Note_off_c, 1, 67, 0
5, 47616, Note_on_c, 1, 60, 85
5, 47808, Note_off_c, 1, 60, 0
5, 48000, Note_on_c, 1, 72, 85
5, 48192, Note_off_c, 1, 72, 0
5, 48384, Note_on_c, 1, 69, 85
5, 48576, Note_off_c, 1, 69, 0
5, 48768, Note_on_c, 1, 65, 85
5, 48960, Note_off_c, 1, 65, 0
5, 49152, Note_on_c, 1, 58, 85
5, 49248, Note_off_c, 1, 58, 0
5, 49248, Note_on_c, 1, 60, 85
5, 49344, Note_off_c, 1, 60, 0
5, 49344, Note_on_c, 1, 62, 85
5, 49452, Note_off_c, 1, 62, 0
5, 49536, Note_on_c, 1, 60, 85
5, 49728, Note_off_c, 1, 60, 0
5, 49728, Note_on_c, 1, 58, 85
5, 49920, Note_off_c, 1, 58, 0
5, 49920, Note_on_c, 1, 65, 85
5, 50112, Note_off_c, 1, 65, 0
5, 50112, Note_on_c, 1, 70, 85
5, 50492, Note_off_c, 1, 70, 0
5, 50496, Note_on_c, 1, 65, 85
5, 50688, Note_off_c, 1, 65, 0
5, 50688, Note_on_c, 1, 59, 85
5, 50880, Note_off_c, 1, 59, 0
5, 51072, Note_on_c, 1, 59, 85
5, 51264, Note_off_c, 1, 59, 0
5, 51456, Note_on_c, 1, 60, 85
5, 51648, Note_off_c, 1, 60, 0
5, 51840, Note_on_c, 1, 64, 85
5, 52032, Note_off_c, 1, 64, 0
5, 52224, Note_on_c, 1, 66, 85
5, 52416, Note_off_c, 1, 66, 0
5, 52608, Note_on_c, 1, 57, 85
5, 52800, Note_off_c, 1, 57, 0
5, 52992, Note_on_c, 1, 58, 85
5, 53184, Note_off_c, 1, 58, 0
5, 53376, Note_on_c, 1, 62, 85
5, 53568, Note_off_c, 1, 62, 0
5, 53760, Note_on_c, 1, 64, 85
5, 53952, Note_off_c, 1, 64, 0
5, 54144, Note_on_c, 1, 55, 85
5, 54336, Note_off_c, 1, 55, 0
5, 54528, Note_on_c, 1, 57, 85
5, 54720, Note_off_c, 1, 57, 0
5, 54912, Note_on_c, 1, 60, 85
5, 55104, Note_off_c, 1, 60, 0
5, 55296, Note_on_c, 1, 62, 85
5, 55488, Note_off_c, 1, 62, 0
5, 55680, Note_on_c, 1, 64, 85
5, 55872, Note_off_c, 1, 64, 0
5, 56064, Note_on_c, 1, 64, 85
5, 56256, Note_off_c, 1, 64, 0
5, 56448, Note_on_c, 1, 62, 85
5, 56640, Note_off_c, 1, 62, 0
5, 56832, Note_on_c, 1, 62, 85
5, 57024, Note_off_c, 1, 62, 0
5, 57216, Note_on_c, 1, 60, 85
5, 57408, Note_off_c, 1, 60, 0
5, 57600, Note_on_c, 1, 65, 85
5, 57984, Note_off_c, 1, 65, 0
5, 58176, Note_on_c, 1, 72, 100
5, 58368, Note_off_c, 1, 72, 0
5, 58368, Note_on_c, 1, 65, 100
5, 58460, Note_off_c, 1, 65, 0
5, 58464, Note_on_c, 1, 72, 100
5, 58556, Note_off_c, 1, 72, 0
5, 58560, Note_on_c, 1, 74, 100
5, 58652, Note_off_c, 1, 74, 0
5, 58656, Note_on_c, 1, 76, 100
5, 58748, Note_off_c, 1, 76, 0
5, 58752, Note_on_c, 1, 77, 100
5, 58844, Note_off_c, 1, 77, 0
5, 58848, Note_on_c, 1, 79, 100
5, 58940, Note_off_c, 1, 79, 0
5, 58944, Note_on_c, 1, 81, 100
5, 59036, Note_off_c, 1, 81, 0
5, 59040, Note_on_c, 1, 82, 100
5, 59132, Note_off_c, 1, 82, 0
5, 59136, Note_on_c, 1, 84, 100
5, 59244, Note_off_c, 1, 84, 0
5, 59328, Note_on_c, 1, 77, 100
5, 59436, Note_off_c, 1, 77, 0
5, 59520, Note_on_c, 1, 67, 100
5, 59628, Note_off_c, 1, 67, 0
5, 59712, Note_on_c, 1, 76, 100
5, 59820, Note_off_c, 1, 76, 0
5, 59904, Note_on_c, 1, 72, 85
5, 61436, Note_off_c, 1, 72, 0
5, 61440, Note_on_c, 1, 70, 85
5, 62972, Note_off_c, 1, 70, 0
5, 62976, Note_on_c, 1, 72, 100
5, 63356, Note_off_c, 1, 72, 0
5, 63936, Note_on_c, 1, 66, 100
5, 64124, Note_off_c, 1, 66, 0
5, 64128, Note_on_c, 1, 67, 100
5, 64316, Note_off_c, 1, 67, 0
5, 64320, Note_on_c, 1, 69, 100
5, 64508, Note_off_c, 1, 69, 0
5, 64512, Note_on_c, 1, 62, 100
5, 64892, Note_off_c, 1, 62, 0
5, 65472, Note_on_c, 1, 68, 100
5, 65660, Note_off_c, 1, 68, 0
5, 65664, Note_on_c, 1, 69, 100
5, 65852, Note_off_c, 1, 69, 0
5, 65856, Note_on_c, 1, 71, 100
5, 66044, Note_off_c, 1, 71, 0
5, 66048, Note_on_c, 1, 64, 100
5, 66428, Note_off_c, 1, 64, 0
5, 67008, Note_on_c, 1, 73, 100
5, 67196, Note_off_c, 1, 73, 0
5, 67200, Note_on_c, 1, 74, 100
5, 67388, Note_off_c, 1, 74, 0
5, 67392, Note_on_c, 1, 76, 100
5, 67580, Note_off_c, 1, 76, 0
5, 67584, Note_on_c, 1, 69, 100
5, 67868, Note_off_c, 1, 69, 0
5, 67872, Note_on_c, 1, 70, 100
5, 67964, Note_off_c, 1, 70, 0
5, 67968, Note_on_c, 1, 69, 100
5, 68060, Note_off_c, 1, 69, 0
5, 68064, Note_on_c, 1, 67, 100
5, 68156, Note_off_c, 1, 67, 0
5, 68160, Note_on_c, 1, 65, 100
5, 68252, Note_off_c, 1, 65, 0
5, 68256, Note_on_c, 1, 64, 100
5, 68348, Note_off_c, 1, 64, 0
5, 68352, Note_on_c, 1, 62, 100
5, 68732, Note_off_c, 1, 62, 0
5, 69312, Note_on_c, 1, 74, 85
5, 69692, Note_off_c, 1, 74, 0
5, 69696, Note_on_c, 1, 71, 85
5, 69788, Note_off_c, 1, 71, 0
5, 69792, Note_on_c, 1, 68, 85
5, 69884, Note_off_c, 1, 68, 0
5, 69888, Note_on_c, 1, 59, 85
5, 70076, Note_off_c, 1, 59, 0
5, 70080, Note_on_c, 1, 74, 85
5, 70460, Note_off_c, 1, 74, 0
5, 70464, Note_on_c, 1, 71, 85
5, 70556, Note_off_c, 1, 71, 0
5, 70560, Note_on_c, 1, 68, 85
5, 70652, Note_off_c, 1, 68, 0
5, 70656, Note_on_c, 1, 64, 85
5, 70844, Note_off_c, 1, 64, 0
5, 70848, Note_on_c, 1, 60, 85
5, 71036, Note_off_c, 1, 60, 0
5, 71040, Note_on_c, 1, 57, 85
5, 71228, Note_off_c, 1, 57, 0
5, 71232, Note_on_c, 1, 60, 85
5, 71420, Note_off_c, 1, 60, 0
5, 71424, Note_on_c, 1, 64, 85
5, 71612, Note_off_c, 1, 64, 0
5, 71616, Note_on_c, 1, 60, 85
5, 71804, Note_off_c, 1, 60, 0
5, 71808, Note_on_c, 1, 57, 85
5, 71996, Note_off_c, 1, 57, 0
5, 72000, Note_on_c, 1, 61, 85
5, 72188, Note_off_c, 1, 61, 0
5, 72192, Note_on_c, 1, 64, 85
5, 72380, Note_off_c, 1, 64, 0
5, 72384, Note_on_c, 1, 79, 85
5, 72764, Note_off_c, 1, 79, 0
5, 72768, Note_on_c, 1, 76, 85
5, 72860, Note_off_c, 1, 76, 0
5, 72864, Note_on_c, 1, 73, 85
5, 72956, Note_off_c, 1, 73, 0
5, 72960, Note_on_c, 1, 64, 85
5, 73148, Note_off_c, 1, 64, 0
5, 73152, Note_on_c, 1, 79, 85
5, 73532, Note_off_c, 1, 79, 0
5, 73536, Note_on_c, 1, 76, 85
5, 73628, Note_off_c, 1, 76, 0
5, 73632, Note_on_c, 1, 73, 85
5, 73724, Note_off_c, 1, 73, 0
5, 73728, Note_on_c, 1, 69, 85
5, 73916, Note_off_c, 1, 69, 0
5, 73920, Note_on_c, 1, 65, 85
5, 74108, Note_off_c, 1, 65, 0
5, 74112, Note_on_c, 1, 62, 85
5, 74300, Note_off_c, 1, 62, 0
5, 74304, Note_on_c, 1, 65, 85
5, 74492, Note_off_c, 1, 65, 0
5, 74496, Note_on_c, 1, 69, 85
5, 74684, Note_off_c, 1, 69, 0
5, 74688, Note_on_c, 1, 65, 85
5, 74876, Note_off_c, 1, 65, 0
5, 74880, Note_on_c, 1, 62, 85
5, 75068, Note_off_c, 1, 62, 0
5, 75072, Note_on_c, 1, 65, 85
5, 75260, Note_off_c, 1, 65, 0
5, 75264, Note_on_c, 1, 71, 85
5, 75452, Note_off_c, 1, 71, 0
5, 75456, Note_on_c, 1, 81, 85
5, 75836, Note_off_c, 1, 81, 0
5, 75840, Note_on_c, 1, 78, 85
5, 75932, Note_off_c, 1, 78, 0
5, 75936, Note_on_c, 1, 75, 85
5, 76028, Note_off_c, 1, 75, 0
5, 76032, Note_on_c, 1, 66, 85
5, 76220, Note_off_c, 1, 66, 0
5, 76224, Note_on_c, 1, 81, 85
5, 76604, Note_off_c, 1, 81, 0
5, 76608, Note_on_c, 1, 78, 85
5, 76700, Note_off_c, 1, 78, 0
5, 76704, Note_on_c, 1, 75, 85
5, 76796, Note_off_c, 1, 75, 0
5, 76800, Note_on_c, 1, 76, 85
5, 76988, Note_off_c, 1, 76, 0
5, 76992, Note_on_c, 1, 74, 85
5, 77372, Note_off_c, 1, 74, 0
5, 77376, Note_on_c, 1, 71, 85
5, 77468, Note_off_c, 1, 71, 0
5, 77472, Note_on_c, 1, 68, 85
5, 77564, Note_off_c, 1, 68, 0
5, 77568, Note_on_c, 1, 64, 85
5, 77756, Note_off_c, 1, 64, 0
5, 77760, Note_on_c, 1, 74, 85
5, 78140, Note_off_c, 1, 74, 0
5, 78144, Note_on_c, 1, 71, 85
5, 78236, Note_off_c, 1, 71, 0
5, 78240, Note_on_c, 1, 68, 85
5, 78332, Note_off_c, 1, 68, 0
5, 78336, Note_on_c, 1, 69, 85
5, 78524, Note_off_c, 1, 69, 0
5, 78528, Note_on_c, 1, 64, 85
5, 78716, Note_off_c, 1, 64, 0
5, 78720, Note_on_c, 1, 60, 85
5, 78908, Note_off_c, 1, 60, 0
5, 78912, Note_on_c, 1, 64, 85
5, 79100, Note_off_c, 1, 64, 0
5, 79104, Note_on_c, 1, 69, 85
5, 79292, Note_off_c, 1, 69, 0
5, 79296, Note_on_c, 1, 64, 85
5, 79484, Note_off_c, 1, 64, 0
5, 79488, Note_on_c, 1, 60, 85
5, 79676, Note_off_c, 1, 60, 0
5, 79680, Note_on_c, 1, 64, 85
5, 79868, Note_off_c, 1, 64, 0
5, 79872, Note_on_c, 1, 69, 85
5, 80060, Note_off_c, 1, 69, 0
5, 80064, Note_on_c, 1, 65, 85
5, 80252, Note_off_c, 1, 65, 0
5, 80256, Note_on_c, 1, 60, 85
5, 80444, Note_off_c, 1, 60, 0
5, 80448, Note_on_c, 1, 69, 85
5, 80636, Note_off_c, 1, 69, 0
5, 80640, Note_on_c, 1, 69, 85
5, 80828, Note_off_c, 1, 69, 0
5, 80832, Note_on_c, 1, 64, 85
5, 81020, Note_off_c, 1, 64, 0
5, 81024, Note_on_c, 1, 60, 85
5, 81212, Note_off_c, 1, 60, 0
5, 81216, Note_on_c, 1, 64, 85
5, 81404, Note_off_c, 1, 64, 0
5, 81408, Note_on_c, 1, 69, 85
5, 81596, Note_off_c, 1, 69, 0
5, 81600, Note_on_c, 1, 67, 85
5, 81728, Note_off_c, 1, 67, 0
5, 81792, Note_on_c, 1, 65, 85
5, 81980, Note_off_c, 1, 65, 0
5, 81984, Note_on_c, 1, 64, 85
5, 82112, Note_off_c, 1, 64, 0
5, 82176, Note_on_c, 1, 62, 85
5, 82364, Note_off_c, 1, 62, 0
5, 82368, Note_on_c, 1, 60, 85
5, 82496, Note_off_c, 1, 60, 0
5, 82560, Note_on_c, 1, 59, 85
5, 82748, Note_off_c, 1, 59, 0
5, 82752, Note_on_c, 1, 62, 85
5, 82880, Note_off_c, 1, 62, 0
5, 82944, Note_on_c, 1, 60, 85
5, 83132, Note_off_c, 1, 60, 0
5, 85248, Note_on_c, 1, 72, 100
5, 85340, Note_off_c, 1, 72, 0
5, 85344, Note_on_c, 1, 74, 100
5, 85436, Note_off_c, 1, 74, 0
5, 85440, Note_on_c, 1, 76, 100
5, 85568, Note_off_c, 1, 76, 0
5, 85632, Note_on_c, 1, 74, 100
5, 85820, Note_off_c, 1, 74, 0
5, 85824, Note_on_c, 1, 72, 100
5, 86204, Note_off_c, 1, 72, 0
5, 86208, Note_on_c, 1, 71, 100
5, 86588, Note_off_c, 1, 71, 0
5, 86592, Note_on_c, 1, 69, 100
5, 86972, Note_off_c, 1, 69, 0
5, 86976, Note_on_c, 1, 74, 100
5, 87356, Note_off_c, 1, 74, 0
5, 87360, Note_on_c, 1, 71, 100
5, 87452, Note_off_c, 1, 71, 0
5, 87456, Note_on_c, 1, 68, 100
5, 87548, Note_off_c, 1, 68, 0
5, 87552, Note_on_c, 1, 62, 100
5, 87740, Note_off_c, 1, 62, 0
5, 87744, Note_on_c, 1, 77, 100
5, 88124, Note_off_c, 1, 77, 0
5, 88128, Note_on_c, 1, 74, 100
5, 88220, Note_off_c, 1, 74, 0
5, 88224, Note_on_c, 1, 71, 100
5, 88316, Note_off_c, 1, 71, 0
5, 88320, Note_on_c, 1, 62, 100
5, 88508, Note_off_c, 1, 62, 0
5, 88512, Note_on_c, 1, 80, 100
5, 88892, Note_off_c, 1, 80, 0
5, 88896, Note_on_c, 1, 77, 100
5, 88988, Note_off_c, 1, 77, 0
5, 88992, Note_on_c, 1, 74, 100
5, 89084, Note_off_c, 1, 74, 0
5, 89088, Note_on_c, 1, 62, 100
5, 89276, Note_off_c, 1, 62, 0
5, 89280, Note_on_c, 1, 83, 100
5, 89660, Note_off_c, 1, 83, 0
5, 89664, Note_on_c, 1, 80, 100
5, 89756, Note_off_c, 1, 80, 0
5, 89760, Note_on_c, 1, 76, 100
5, 89852, Note_off_c, 1, 76, 0
5, 89856, Note_on_c, 1, 77, 100
5, 89948, Note_off_c, 1, 77, 0
5, 89952, Note_on_c, 1, 74, 100
5, 90044, Note_off_c, 1, 74, 0
5, 90048, Note_on_c, 1, 76, 100
5, 90140, Note_off_c, 1, 76, 0
5, 90144, Note_on_c, 1, 72, 100
5, 90236, Note_off_c, 1, 72, 0
5, 90240, Note_on_c, 1, 74, 100
5, 90332, Note_off_c, 1, 74, 0
5, 90336, Note_on_c, 1, 71, 100
5, 90428, Note_off_c, 1, 71, 0
5, 90432, Note_on_c, 1, 72, 100
5, 90524, Note_off_c, 1, 72, 0
5, 90528, Note_on_c, 1, 69, 100
5, 90620, Note_off_c, 1, 69, 0
5, 90624, Note_on_c, 1, 76, 100
5, 92348, Note_off_c, 1, 76, 0
5, 92352, Note_on_c, 1, 77, 100
5, 92480, Note_off_c, 1, 77, 0
5, 92544, Note_on_c, 1, 71, 100
5, 92672, Note_off_c, 1, 71, 0
5, 92736, Note_on_c, 1, 72, 100
5, 92864, Note_off_c, 1, 72, 0
5, 92928, Note_on_c, 1, 63, 100
5, 93116, Note_off_c, 1, 63, 0
5, 93312, Note_on_c, 1, 64, 100
5, 93500, Note_off_c, 1, 64, 0
5, 93696, Note_on_c, 1, 57, 100
5, 93884, Note_off_c, 1, 57, 0
5, 104640, Note_on_c, 1, 76, 100
5, 104828, Note_off_c, 1, 76, 0
5, 104832, Note_on_c, 1, 75, 100
5, 105020, Note_off_c, 1, 75, 0
5, 105024, Note_on_c, 1, 76, 100
5, 105212, Note_off_c, 1, 76, 0
5, 105216, Note_on_c, 1, 78, 100
5, 105404, Note_off_c, 1, 78, 0
5, 105600, Note_on_c, 1, 75, 100
5, 105788, Note_off_c, 1, 75, 0
5, 105984, Note_on_c, 1, 71, 100
5, 106172, Note_off_c, 1, 71, 0
5, 117312, Note_on_c, 1, 76, 85
5, 117692, Note_off_c, 1, 76, 0
5, 117696, Note_on_c, 1, 72, 85
5, 117788, Note_off_c, 1, 72, 0
5, 117792, Note_on_c, 1, 69, 85
5, 117884, Note_off_c, 1, 69, 0
5, 117888, Note_on_c, 1, 64, 85
5, 118076, Note_off_c, 1, 64, 0
5, 118080, Note_on_c, 1, 76, 85
5, 118460, Note_off_c, 1, 76, 0
5, 118464, Note_on_c, 1, 71, 85
5, 118556, Note_off_c, 1, 71, 0
5, 118560, Note_on_c, 1, 67, 85
5, 118652, Note_off_c, 1, 67, 0
5, 118656, Note_on_c, 1, 64, 85
5, 118844, Note_off_c, 1, 64, 0
5, 118848, Note_on_c, 1, 76, 85
5, 119228, Note_off_c, 1, 76, 0
5, 119232, Note_on_c, 1, 72, 85
5, 119324, Note_off_c, 1, 72, 0
5, 119328, Note_on_c, 1, 69, 85
5, 119420, Note_off_c, 1, 69, 0
5, 119424, Note_on_c, 1, 64, 85
5, 119612, Note_off_c, 1, 64, 0
5, 119616, Note_on_c, 1, 76, 85
5, 119996, Note_off_c, 1, 76, 0
5, 138240, Note_on_c, 1, 67, 85
5, 139776, Note_off_c, 1, 67, 0
5, 139776, Note_on_c, 1, 65, 85
5, 141312, Note_off_c, 1, 65, 0
5, 141312, Note_on_c, 1, 67, 100
5, 141596, Note_off_c, 1, 67, 0
5, 142272, Note_on_c, 1, 67, 100
5, 142460, Note_off_c, 1, 67, 0
5, 142464, Note_on_c, 1, 65, 100
5, 142652, Note_off_c, 1, 65, 0
5, 142656, Note_on_c, 1, 64, 100
5, 142844, Note_off_c, 1, 64, 0
5, 142848, Note_on_c, 1, 62, 100
5, 143132, Note_off_c, 1, 62, 0
5, 143808, Note_on_c, 1, 72, 100
5, 143980, Note_off_c, 1, 72, 0
5, 144000, Note_on_c, 1, 70, 100
5, 144172, Note_off_c, 1, 70, 0
5, 144192, Note_on_c, 1, 69, 100
5, 144364, Note_off_c, 1, 69, 0
5, 144384, Note_on_c, 1, 67, 100
5, 144640, Note_off_c, 1, 67, 0
5, 145344, Note_on_c, 1, 70, 85
5, 145472, Note_off_c, 1, 70, 0
5, 145536, Note_on_c, 1, 74, 85
5, 145664, Note_off_c, 1, 74, 0
5, 145728, Note_on_c, 1, 70, 85
5, 145856, Note_off_c, 1, 70, 0
5, 145920, Note_on_c, 1, 63, 85
5, 146176, Note_off_c, 1, 63, 0
5, 146880, Note_on_c, 1, 72, 85
5, 147008, Note_off_c, 1, 72, 0
5, 147072, Note_on_c, 1, 75, 85
5, 147200, Note_off_c, 1, 75, 0
5, 147264, Note_on_c, 1, 72, 85
5, 147392, Note_off_c, 1, 72, 0
5, 147456, Note_on_c, 1, 70, 85
5, 147712, Note_off_c, 1, 70, 0
5, 148416, Note_on_c, 1, 67, 85
5, 148544, Note_off_c, 1, 67, 0
5, 148608, Note_on_c, 1, 62, 85
5, 148736, Note_off_c, 1, 62, 0
5, 148800, Note_on_c, 1, 70, 85
5, 148928, Note_off_c, 1, 70, 0
5, 148992, Note_on_c, 1, 72, 85
5, 149248, Note_off_c, 1, 72, 0
5, 149952, Note_on_c, 1, 72, 85
5, 150080, Note_off_c, 1, 72, 0
5, 150144, Note_on_c, 1, 67, 85
5, 150272, Note_off_c, 1, 67, 0
5, 150336, Note_on_c, 1, 63, 85
5, 150464, Note_off_c, 1, 63, 0
5, 150528, Note_on_c, 1, 57, 85
5, 150716, Note_off_c, 1, 57, 0
5, 150720, Note_on_c, 1, 62, 85
5, 150908, Note_off_c, 1, 62, 0
5, 150912, Note_on_c, 1, 66, 85
5, 151100, Note_off_c, 1, 66, 0
5, 151104, Note_on_c, 1, 69, 85
5, 151292, Note_off_c, 1, 69, 0
5, 151296, Note_on_c, 1, 74, 85
5, 151676, Note_off_c, 1, 74, 0
5, 152256, Note_on_c, 1, 70, 85
5, 152444, Note_off_c, 1, 70, 0
5, 152448, Note_on_c, 1, 67, 85
5, 152636, Note_off_c, 1, 67, 0
5, 152640, Note_on_c, 1, 64, 85
5, 152828, Note_off_c, 1, 64, 0
5, 152832, Note_on_c, 1, 61, 85
5, 153020, Note_off_c, 1, 61, 0
5, 153792, Note_on_c, 1, 69, 85
5, 153980, Note_off_c, 1, 69, 0
5, 153984, Note_on_c, 1, 66, 85
5, 154172, Note_off_c, 1, 66, 0
5, 154176, Note_on_c, 1, 60, 85
5, 154364, Note_off_c, 1, 60, 0
5, 154368, Note_on_c, 1, 57, 85
5, 154556, Note_off_c, 1, 57, 0
5, 155328, Note_on_c, 1, 78, 85
5, 155516, Note_off_c, 1, 78, 0
5, 155520, Note_on_c, 1, 72, 85
5, 155708, Note_off_c, 1, 72, 0
5, 155712, Note_on_c, 1, 69, 85
5, 155900, Note_off_c, 1, 69, 0
5, 155904, Note_on_c, 1, 62, 85
5, 156284, Note_off_c, 1, 62, 0
5, 158208, Note_on_c, 1, 67, 100
5, 158300, Note_off_c, 1, 67, 0
5, 158304, Note_on_c, 1, 69, 100
5, 158396, Note_off_c, 1, 69, 0
5, 158400, Note_on_c, 1, 70, 100
5, 158528, Note_off_c, 1, 70, 0
5, 158592, Note_on_c, 1, 69, 100
5, 158780, Note_off_c, 1, 69, 0
5, 158784, Note_on_c, 1, 67, 100
5, 158972, Note_off_c, 1, 67, 0
5, 158976, Note_on_c, 1, 74, 100
5, 159164, Note_off_c, 1, 74, 0
5, 159168, Note_on_c, 1, 79, 100
5, 159548, Note_off_c, 1, 79, 0
5, 159552, Note_on_c, 1, 74, 100
5, 159740, Note_off_c, 1, 74, 0
5, 159744, Note_on_c, 1, 75, 100
5, 159932, Note_off_c, 1, 75, 0
5, 159936, Note_on_c, 1, 72, 100
5, 160028, Note_off_c, 1, 72, 0
5, 160032, Note_on_c, 1, 69, 100
5, 160124, Note_off_c, 1, 69, 0
5, 160128, Note_on_c, 1, 74, 100
5, 160316, Note_off_c, 1, 74, 0
5, 160320, Note_on_c, 1, 70, 100
5, 160412, Note_off_c, 1, 70, 0
5, 160416, Note_on_c, 1, 67, 100
5, 160508, Note_off_c, 1, 67, 0
5, 160512, Note_on_c, 1, 72, 100
5, 160700, Note_off_c, 1, 72, 0
5, 160704, Note_on_c, 1, 69, 100
5, 160796, Note_off_c, 1, 69, 0
5, 160800, Note_on_c, 1, 66, 100
5, 160892, Note_off_c, 1, 66, 0
5, 160896, Note_on_c, 1, 62, 100
5, 161084, Note_off_c, 1, 62, 0
5, 161088, Note_on_c, 1, 75, 100
5, 161468, Note_off_c, 1, 75, 0
5, 161472, Note_on_c, 1, 72, 100
5, 161564, Note_off_c, 1, 72, 0
5, 161568, Note_on_c, 1, 69, 100
5, 161660, Note_off_c, 1, 69, 0
5, 161664, Note_on_c, 1, 62, 100
5, 161852, Note_off_c, 1, 62, 0
5, 161856, Note_on_c, 1, 78, 100
5, 162236, Note_off_c, 1, 78, 0
5, 162240, Note_on_c, 1, 75, 100
5, 162332, Note_off_c, 1, 75, 0
5, 162336, Note_on_c, 1, 72, 100
5, 162428, Note_off_c, 1, 72, 0
5, 162432, Note_on_c, 1, 62, 100
5, 162620, Note_off_c, 1, 62, 0
5, 162624, Note_on_c, 1, 81, 100
5, 163004, Note_off_c, 1, 81, 0
5, 163008, Note_on_c, 1, 78, 100
5, 163100, Note_off_c, 1, 78, 0
5, 163104, Note_on_c, 1, 74, 100
5, 163196, Note_off_c, 1, 74, 0
5, 163200, Note_on_c, 1, 75, 100
5, 163292, Note_off_c, 1, 75, 0
5, 163296, Note_on_c, 1, 72, 100
5, 163388, Note_off_c, 1, 72, 0
5, 163392, Note_on_c, 1, 74, 100
5, 163484, Note_off_c, 1, 74, 0
5, 163488, Note_on_c, 1, 70, 100
5, 163580, Note_off_c, 1, 70, 0
5, 163584, Note_on_c, 1, 72, 100
5, 163676, Note_off_c, 1, 72, 0
5, 163680, Note_on_c, 1, 69, 100
5, 163772, Note_off_c, 1, 69, 0
5, 163776, Note_on_c, 1, 70, 100
5, 163868, Note_off_c, 1, 70, 0
5, 163872, Note_on_c, 1, 67, 100
5, 163964, Note_off_c, 1, 67, 0
5, 163968, Note_on_c, 1, 69, 100
5, 164060, Note_off_c, 1, 69, 0
5, 164064, Note_on_c, 1, 66, 100
5, 164156, Note_off_c, 1, 66, 0
5, 164160, Note_on_c, 1, 67, 100
5, 164252, Note_off_c, 1, 67, 0
5, 164256, Note_on_c, 1, 64, 100
5, 164348, Note_off_c, 1, 64, 0
5, 164352, Note_on_c, 1, 66, 100
5, 164444, Note_off_c, 1, 66, 0
5, 164448, Note_on_c, 1, 62, 100
5, 164540, Note_off_c, 1, 62, 0
5, 164544, Note_on_c, 1, 64, 100
5, 164636, Note_off_c, 1, 64, 0
5, 164640, Note_on_c, 1, 66, 100
5, 164732, Note_off_c, 1, 66, 0
5, 164736, Note_on_c, 1, 67, 100
5, 164828, Note_off_c, 1, 67, 0
5, 164832, Note_on_c, 1, 69, 100
5, 164924, Note_off_c, 1, 69, 0
5, 164928, Note_on_c, 1, 70, 100
5, 165020, Note_off_c, 1, 70, 0
5, 165024, Note_on_c, 1, 72, 100
5, 165116, Note_off_c, 1, 72, 0
5, 165120, Note_on_c, 1, 74, 100
5, 165212, Note_off_c, 1, 74, 0
5, 165216, Note_on_c, 1, 75, 100
5, 165308, Note_off_c, 1, 75, 0
5, 165312, Note_on_c, 1, 77, 100
5, 165440, Note_off_c, 1, 77, 0
5, 165504, Note_on_c, 1, 77, 100
5, 165596, Note_off_c, 1, 77, 0
5, 165600, Note_on_c, 1, 79, 100
5, 165692, Note_off_c, 1, 79, 0
5, 165696, Note_on_c, 1, 80, 100
5, 165824, Note_off_c, 1, 80, 0
5, 165888, Note_on_c, 1, 71, 100
5, 165996, Note_off_c, 1, 71, 0
5, 166080, Note_on_c, 1, 72, 100
5, 166188, Note_off_c, 1, 72, 0
5, 166272, Note_on_c, 1, 66, 100
5, 166380, Note_off_c, 1, 66, 0
5, 166464, Note_on_c, 1, 67, 100
5, 166572, Note_off_c, 1, 67, 0
5, 166656, Note_on_c, 1, 61, 100
5, 167036, Note_off_c, 1, 61, 0
5, 177600, Note_on_c, 1, 70, 100
5, 177728, Note_off_c, 1, 70, 0
5, 177792, Note_on_c, 1, 75, 100
5, 177920, Note_off_c, 1, 75, 0
5, 177984, Note_on_c, 1, 74, 100
5, 178112, Note_off_c, 1, 74, 0
5, 178176, Note_on_c, 1, 74, 100
5, 178268, Note_off_c, 1, 74, 0
5, 178272, Note_on_c, 1, 72, 100
5, 178364, Note_off_c, 1, 72, 0
5, 178368, Note_on_c, 1, 70, 100
5, 178460, Note_off_c, 1, 70, 0
5, 178464, Note_on_c, 1, 69, 100
5, 178556, Note_off_c, 1, 69, 0
5, 178560, Note_on_c, 1, 67, 100
5, 178652, Note_off_c, 1, 67, 0
5, 178656, Note_on_c, 1, 65, 100
5, 178748, Note_off_c, 1, 65, 0
5, 178752, Note_on_c, 1, 63, 100
5, 178844, Note_off_c, 1, 63, 0
5, 178848, Note_on_c, 1, 62, 100
5, 178940, Note_off_c, 1, 62, 0
5, 178944, Note_on_c, 1, 60, 100
5, 179132, Note_off_c, 1, 60, 0
5, 179136, Note_on_c, 1, 72, 100
5, 179324, Note_off_c, 1, 72, 0
5, 179712, Note_on_c, 1, 72, 100
5, 179804, Note_off_c, 1, 72, 0
5, 179808, Note_on_c, 1, 70, 100
5, 179900, Note_off_c, 1, 70, 0
5, 179904, Note_on_c, 1, 69, 100
5, 179996, Note_off_c, 1, 69, 0
5, 180000, Note_on_c, 1, 67, 100
5, 180092, Note_off_c, 1, 67, 0
5, 180096, Note_on_c, 1, 65, 100
5, 180188, Note_off_c, 1, 65, 0
5, 180192, Note_on_c, 1, 63, 100
5, 180284, Note_off_c, 1, 63, 0
5, 180288, Note_on_c, 1, 62, 100
5, 180380, Note_off_c, 1, 62, 0
5, 180384, Note_on_c, 1, 60, 100
5, 180476, Note_off_c, 1, 60, 0
5, 180480, Note_on_c, 1, 58, 100
5, 180608, Note_off_c, 1, 58, 0
5, 180672, Note_on_c, 1, 70, 100
5, 180800, Note_off_c, 1, 70, 0
5, 181248, Note_on_c, 1, 70, 100
5, 181340, Note_off_c, 1, 70, 0
5, 181344, Note_on_c, 1, 69, 100
5, 181436, Note_off_c, 1, 69, 0
5, 181440, Note_on_c, 1, 67, 100
5, 181532, Note_off_c, 1, 67, 0
5, 181536, Note_on_c, 1, 65, 100
5, 181628, Note_off_c, 1, 65, 0
5, 181632, Note_on_c, 1, 64, 100
5, 181724, Note_off_c, 1, 64, 0
5, 181728, Note_on_c, 1, 62, 100
5, 181820, Note_off_c, 1, 62, 0
5, 181824, Note_on_c, 1, 61, 100
5, 181916, Note_off_c, 1, 61, 0
5, 181920, Note_on_c, 1, 59, 100
5, 181968, Note_on_c, 1, 57, 100
5, 182012, Note_off_c, 1, 59, 0
5, 182096, Note_off_c, 1, 57, 0
5, 182208, Note_on_c, 1, 69, 100
5, 182336, Note_off_c, 1, 69, 0
5, 182976, Note_on_c, 1, 65, 85
5, 183164, Note_off_c, 1, 65, 0
5, 183168, Note_on_c, 1, 69, 85
5, 183356, Note_off_c, 1, 69, 0
5, 183360, Note_on_c, 1, 74, 85
5, 183548, Note_off_c, 1, 74, 0
5, 183744, Note_on_c, 1, 69, 85
5, 183932, Note_off_c, 1, 69, 0
5, 183936, Note_on_c, 1, 76, 85
5, 184124, Note_off_c, 1, 76, 0
5, 184128, Note_on_c, 1, 79, 85
5, 184316, Note_off_c, 1, 79, 0
5, 184512, Note_on_c, 1, 77, 85
5, 184700, Note_off_c, 1, 77, 0
5, 184704, Note_on_c, 1, 81, 85
5, 184892, Note_off_c, 1, 81, 0
5, 184896, Note_on_c, 1, 86, 85
5, 185084, Note_off_c, 1, 86, 0
5, 185280, Note_on_c, 1, 69, 85
5, 185468, Note_off_c, 1, 69, 0
5, 185472, Note_on_c, 1, 76, 85
5, 185660, Note_off_c, 1, 76, 0
5, 185664, Note_on_c, 1, 79, 85
5, 185852, Note_off_c, 1, 79, 0
5, 186048, Note_on_c, 1, 81, 90
5, 186332, Note_off_c, 1, 81, 0
5, 186432, Note_on_c, 1, 81, 90
5, 186524, Note_off_c, 1, 81, 0
5, 186528, Note_on_c, 1, 77, 90
5, 186620, Note_off_c, 1, 77, 0
5, 186624, Note_on_c, 1, 74, 90
5, 186812, Note_off_c, 1, 74, 0
5, 186816, Note_on_c, 1, 82, 90
5, 187196, Note_off_c, 1, 82, 0
5, 187200, Note_on_c, 1, 74, 90
5, 187292, Note_off_c, 1, 74, 0
5, 187296, Note_on_c, 1, 70, 90
5, 187388, Note_off_c, 1, 70, 0
5, 187392, Note_on_c, 1, 64, 90
5, 187580, Note_off_c, 1, 64, 0
5, 187584, Note_on_c, 1, 81, 90
5, 187964, Note_off_c, 1, 81, 0
5, 187968, Note_on_c, 1, 76, 90
5, 188060, Note_off_c, 1, 76, 0
5, 188064, Note_on_c, 1, 72, 90
5, 188156, Note_off_c, 1, 72, 0
5, 188160, Note_on_c, 1, 69, 90
5, 188348, Note_off_c, 1, 69, 0
5, 188352, Note_on_c, 1, 81, 90
5, 188732, Note_off_c, 1, 81, 0
5, 188736, Note_on_c, 1, 76, 90
5, 188828, Note_off_c, 1, 76, 0
5, 188832, Note_on_c, 1, 72, 90
5, 188924, Note_off_c, 1, 72, 0
5, 188928, Note_on_c, 1, 65, 90
5, 189116, Note_off_c, 1, 65, 0
5, 189120, Note_on_c, 1, 81, 90
5, 189404, Note_off_c, 1, 81, 0
5, 189504, Note_on_c, 1, 81, 90
5, 189596, Note_off_c, 1, 81, 0
5, 189600, Note_on_c, 1, 77, 90
5, 189692, Note_off_c, 1, 77, 0
5, 189696, Note_on_c, 1, 74, 90
5, 189884, Note_off_c, 1, 74, 0
5, 189888, Note_on_c, 1, 82, 90
5, 190268, Note_off_c, 1, 82, 0
5, 190272, Note_on_c, 1, 74, 90
5, 190364, Note_off_c, 1, 74, 0
5, 190368, Note_on_c, 1, 70, 90
5, 190460, Note_off_c, 1, 70, 0
5, 190464, Note_on_c, 1, 76, 90
5, 190652, Note_off_c, 1, 76, 0
5, 190656, Note_on_c, 1, 73, 90
5, 191036, Note_off_c, 1, 73, 0
5, 191040, Note_on_c, 1, 76, 90
5, 191132, Note_off_c, 1, 76, 0
5, 191136, Note_on_c, 1, 73, 90
5, 191228, Note_off_c, 1, 73, 0
5, 191232, Note_on_c, 1, 69, 90
5, 191372, Note_off_c, 1, 69, 0
5, 191424, Note_on_c, 1, 69, 90
5, 191804, Note_off_c, 1, 69, 0
5, 191808, Note_on_c, 1, 64, 90
5, 191900, Note_off_c, 1, 64, 0
5, 191904, Note_on_c, 1, 61, 90
5, 191996, Note_off_c, 1, 61, 0
5, 192000, Note_on_c, 1, 62, 90
5, 192092, Note_off_c, 1, 62, 0
5, 192096, Note_on_c, 1, 64, 90
5, 192188, Note_off_c, 1, 64, 0
5, 192192, Note_on_c, 1, 65, 90
5, 192320, Note_off_c, 1, 65, 0
5, 192384, Note_on_c, 1, 64, 90
5, 192572, Note_off_c, 1, 64, 0
5, 192576, Note_on_c, 1, 62, 90
5, 192764, Note_off_c, 1, 62, 0
5, 192768, Note_on_c, 1, 69, 90
5, 192956, Note_off_c, 1, 69, 0
5, 192960, Note_on_c, 1, 74, 90
5, 193340, Note_off_c, 1, 74, 0
5, 193344, Note_on_c, 1, 66, 90
5, 193532, Note_off_c, 1, 66, 0
5, 193536, Note_on_c, 1, 67, 90
5, 193724, Note_off_c, 1, 67, 0
5, 193920, Note_on_c, 1, 70, 90
5, 194108, Note_off_c, 1, 70, 0
5, 194304, Note_on_c, 1, 67, 90
5, 194492, Note_off_c, 1, 67, 0
5, 194688, Note_on_c, 1, 62, 90
5, 194876, Note_off_c, 1, 62, 0
5, 195072, Note_on_c, 1, 60, 90
5, 195164, Note_off_c, 1, 60, 0
5, 195168, Note_on_c, 1, 62, 90
5, 195260, Note_off_c, 1, 62, 0
5, 195264, Note_on_c, 1, 63, 90
5, 195392, Note_off_c, 1, 63, 0
5, 195456, Note_on_c, 1, 62, 90
5, 195644, Note_off_c, 1, 62, 0
5, 195648, Note_on_c, 1, 60, 90
5, 195836, Note_off_c, 1, 60, 0
5, 195840, Note_on_c, 1, 67, 90
5, 196028, Note_off_c, 1, 67, 0
5, 196032, Note_on_c, 1, 72, 90
5, 196412, Note_off_c, 1, 72, 0
5, 196416, Note_on_c, 1, 67, 90
5, 196604, Note_off_c, 1, 67, 0
5, 196608, Note_on_c, 1, 65, 90
5, 196796, Note_off_c, 1, 65, 0
5, 196992, Note_on_c, 1, 69, 90
5, 197180, Note_off_c, 1, 69, 0
5, 197376, Note_on_c, 1, 65, 90
5, 197564, Note_off_c, 1, 65, 0
5, 197760, Note_on_c, 1, 60, 90
5, 197948, Note_off_c, 1, 60, 0
5, 198144, Note_on_c, 1, 58, 90
5, 198236, Note_off_c, 1, 58, 0
5, 198240, Note_on_c, 1, 60, 90
5, 198332, Note_off_c, 1, 60, 0
5, 198336, Note_on_c, 1, 62, 90
5, 198464, Note_off_c, 1, 62, 0
5, 198528, Note_on_c, 1, 60, 90
5, 198716, Note_off_c, 1, 60, 0
5, 198720, Note_on_c, 1, 58, 90
5, 198908, Note_off_c, 1, 58, 0
5, 198912, Note_on_c, 1, 65, 90
5, 199100, Note_off_c, 1, 65, 0
5, 199104, Note_on_c, 1, 70, 90
5, 199484, Note_off_c, 1, 70, 0
5, 199488, Note_on_c, 1, 65, 90
5, 199676, Note_off_c, 1, 65, 0
5, 199680, Note_on_c, 1, 63, 90
5, 199868, Note_off_c, 1, 63, 0
5, 200064, Note_on_c, 1, 67, 90
5, 200252, Note_off_c, 1, 67, 0
5, 200448, Note_on_c, 1, 63, 90
5, 200636, Note_off_c, 1, 63, 0
5, 200832, Note_on_c, 1, 67, 90
5, 201020, Note_off_c, 1, 67, 0
5, 201216, Note_on_c, 1, 64, 85
5, 201404, Note_off_c, 1, 64, 0
5, 201600, Note_on_c, 1, 64, 85
5, 201788, Note_off_c, 1, 64, 0
5, 201984, Note_on_c, 1, 65, 85
5, 202172, Note_off_c, 1, 65, 0
5, 202368, Note_on_c, 1, 69, 85
5, 202556, Note_off_c, 1, 69, 0
5, 202752, Note_on_c, 1, 71, 85
5, 202940, Note_off_c, 1, 71, 0
5, 203136, Note_on_c, 1, 62, 85
5, 203324, Note_off_c, 1, 62, 0
5, 203520, Note_on_c, 1, 63, 85
5, 203708, Note_off_c, 1, 63, 0
5, 203904, Note_on_c, 1, 67, 85
5, 204092, Note_off_c, 1, 67, 0
5, 204288, Note_on_c, 1, 69, 85
5, 204476, Note_off_c, 1, 69, 0
5, 204672, Note_on_c, 1, 60, 85
5, 204860, Note_off_c, 1, 60, 0
5, 205056, Note_on_c, 1, 62, 85
5, 205244, Note_off_c, 1, 62, 0
5, 205440, Note_on_c, 1, 65, 85
5, 205628, Note_off_c, 1, 65, 0
5, 205824, Note_on_c, 1, 67, 85
5, 206012, Note_off_c, 1, 67, 0
5, 206208, Note_on_c, 1, 69, 85
5, 206396, Note_off_c, 1, 69, 0
5, 206592, Note_on_c, 1, 69, 85
5, 206780, Note_off_c, 1, 69, 0
5, 206976, Note_on_c, 1, 67, 85
5, 207164, Note_off_c, 1, 67, 0
5, 207360, Note_on_c, 1, 67, 85
5, 207548, Note_off_c, 1, 67, 0
5, 207744, Note_on_c, 1, 65, 85
5, 207932, Note_off_c, 1, 65, 0
5, 208128, Note_on_c, 1, 70, 85
5, 208508, Note_off_c, 1, 70, 0
5, 208704, Note_on_c, 1, 65, 85
5, 208892, Note_off_c, 1, 65, 0
5, 208896, Note_on_c, 1, 62, 100
5, 208988, Note_off_c, 1, 62, 0
5, 208992, Note_on_c, 1, 65, 100
5, 209084, Note_off_c, 1, 65, 0
5, 209088, Note_on_c, 1, 67, 100
5, 209180, Note_off_c, 1, 67, 0
5, 209184, Note_on_c, 1, 69, 100
5, 209276, Note_off_c, 1, 69, 0
5, 209280, Note_on_c, 1, 70, 100
5, 209372, Note_off_c, 1, 70, 0
5, 209376, Note_on_c, 1, 72, 100
5, 209468, Note_off_c, 1, 72, 0
5, 209472, Note_on_c, 1, 74, 100
5, 209564, Note_off_c, 1, 74, 0
5, 209568, Note_on_c, 1, 75, 100
5, 209660, Note_off_c, 1, 75, 0
5, 209664, Note_on_c, 1, 77, 100
5, 209852, Note_off_c, 1, 77, 0
5, 209856, Note_on_c, 1, 70, 100
5, 210044, Note_off_c, 1, 70, 0
5, 210048, Note_on_c, 1, 65, 100
5, 210236, Note_off_c, 1, 65, 0
5, 210240, Note_on_c, 1, 69, 100
5, 210428, Note_off_c, 1, 69, 0
5, 210432, Note_on_c, 1, 70, 100
5, 210776, Note_off_c, 1, 70, 0
5, 211008, Note_on_c, 1, 62, 85
5, 211196, Note_off_c, 1, 62, 0
5, 211200, Note_on_c, 1, 63, 85
5, 211388, Note_off_c, 1, 63, 0
5, 211392, Note_on_c, 1, 62, 85
5, 211520, Note_off_c, 1, 62, 0
5, 211584, Note_on_c, 1, 65, 85
5, 211772, Note_off_c, 1, 65, 0
5, 211776, Note_on_c, 1, 63, 85
5, 211904, Note_off_c, 1, 63, 0
5, 211968, Note_on_c, 1, 62, 85
5, 212060, Note_off_c, 1, 62, 0
5, 212064, Note_on_c, 1, 63, 85
5, 212156, Note_off_c, 1, 63, 0
5, 212160, Note_on_c, 1, 65, 85
5, 212288, Note_off_c, 1, 65, 0
5, 212352, Note_on_c, 1, 63, 85
5, 212540, Note_off_c, 1, 63, 0
5, 212544, Note_on_c, 1, 62, 85
5, 212732, Note_off_c, 1, 62, 0
5, 212736, Note_on_c, 1, 70, 85
5, 212924, Note_off_c, 1, 70, 0
5, 212928, Note_on_c, 1, 58, 85
5, 213116, Note_off_c, 1, 58, 0
5, 213120, Note_on_c, 1, 62, 85
5, 213308, Note_off_c, 1, 62, 0
5, 213312, Note_on_c, 1, 63, 85
5, 213500, Note_off_c, 1, 63, 0
5, 213504, Note_on_c, 1, 65, 85
5, 213884, Note_off_c, 1, 65, 0
5, 214464, Note_on_c, 1, 67, 100
5, 214592, Note_off_c, 1, 67, 0
5, 214656, Note_on_c, 1, 67, 100
5, 214784, Note_off_c, 1, 67, 0
5, 214848, Note_on_c, 1, 67, 100
5, 214976, Note_off_c, 1, 67, 0
5, 215040, Note_on_c, 1, 67, 100
5, 215420, Note_off_c, 1, 67, 0
5, 216768, Note_on_c, 1, 69, 100
5, 216896, Note_off_c, 1, 69, 0
5, 216960, Note_on_c, 1, 69, 100
5, 217088, Note_off_c, 1, 69, 0
5, 217152, Note_on_c, 1, 69, 100
5, 217280, Note_off_c, 1, 69, 0
5, 217344, Note_on_c, 1, 69, 100
5, 217724, Note_off_c, 1, 69, 0
5, 219072, Note_on_c, 1, 74, 100
5, 219200, Note_off_c, 1, 74, 0
5, 219264, Note_on_c, 1, 74, 100
5, 219392, Note_off_c, 1, 74, 0
5, 219456, Note_on_c, 1, 74, 100
5, 219584, Note_off_c, 1, 74, 0
5, 219648, Note_on_c, 1, 74, 100
5, 219836, Note_off_c, 1, 74, 0
5, 219840, Note_on_c, 1, 70, 85
5, 220028, Note_off_c, 1, 70, 0
5, 220032, Note_on_c, 1, 75, 85
5, 220604, Note_off_c, 1, 75, 0
5, 220608, Note_on_c, 1, 72, 85
5, 220796, Note_off_c, 1, 72, 0
5, 220800, Note_on_c, 1, 78, 85
5, 221372, Note_off_c, 1, 78, 0
5, 221376, Note_on_c, 1, 74, 85
5, 221564, Note_off_c, 1, 74, 0
5, 221568, Note_on_c, 1, 79, 85
5, 222140, Note_off_c, 1, 79, 0
5, 222144, Note_on_c, 1, 76, 85
5, 222332, Note_off_c, 1, 76, 0
5, 222336, Note_on_c, 1, 81, 85
5, 222848, Note_off_c, 1, 81, 0
5, 222912, Note_on_c, 1, 81, 85
5, 223100, Note_off_c, 1, 81, 0
5, 223104, Note_on_c, 1, 79, 85
5, 223292, Note_off_c, 1, 79, 0
5, 223296, Note_on_c, 1, 78, 85
5, 223484, Note_off_c, 1, 78, 0
5, 223488, Note_on_c, 1, 79, 85
5, 223676, Note_off_c, 1, 79, 0
5, 223680, Note_on_c, 1, 71, 85
5, 223868, Note_off_c, 1, 71, 0
5, 223872, Note_on_c, 1, 72, 85
5, 224060, Note_off_c, 1, 72, 0
5, 224064, Note_on_c, 1, 74, 85
5, 224252, Note_off_c, 1, 74, 0
5, 224256, Note_on_c, 1, 72, 85
5, 224444, Note_off_c, 1, 72, 0
5, 224448, Note_on_c, 1, 74, 85
5, 224636, Note_off_c, 1, 74, 0
5, 224640, Note_on_c, 1, 72, 85
5, 224828, Note_off_c, 1, 72, 0
5, 224832, Note_on_c, 1, 70, 85
5, 225020, Note_off_c, 1, 70, 0
5, 225024, Note_on_c, 1, 69, 85
5, 225212, Note_off_c, 1, 69, 0
5, 225216, Note_on_c, 1, 72, 85
5, 225404, Note_off_c, 1, 72, 0
5, 225408, Note_on_c, 1, 77, 85
5, 225920, Note_off_c, 1, 77, 0
5, 225984, Note_on_c, 1, 77, 85
5, 226172, Note_off_c, 1, 77, 0
5, 226176, Note_on_c, 1, 76, 85
5, 226364, Note_off_c, 1, 76, 0
5, 226368, Note_on_c, 1, 74, 85
5, 226556, Note_off_c, 1, 74, 0
5, 226560, Note_on_c, 1, 73, 85
5, 226748, Note_off_c, 1, 73, 0
5, 226752, Note_on_c, 1, 74, 85
5, 226940, Note_off_c, 1, 74, 0
5, 226944, Note_on_c, 1, 73, 85
5, 227132, Note_off_c, 1, 73, 0
5, 227136, Note_on_c, 1, 74, 85
5, 227324, Note_off_c, 1, 74, 0
5, 227328, Note_on_c, 1, 67, 85
5, 227516, Note_off_c, 1, 67, 0
5, 227520, Note_on_c, 1, 69, 85
5, 227708, Note_off_c, 1, 69, 0
5, 227712, Note_on_c, 1, 67, 85
5, 227900, Note_off_c, 1, 67, 0
5, 227904, Note_on_c, 1, 65, 85
5, 228092, Note_off_c, 1, 65, 0
5, 228096, Note_on_c, 1, 64, 85
5, 228476, Note_off_c, 1, 64, 0
5, 228672, Note_on_c, 1, 64, 85
5, 228860, Note_off_c, 1, 64, 0
5, 228864, Note_on_c, 1, 62, 85
5, 229004, Note_off_c, 1, 62, 0
5, 229056, Note_on_c, 1, 62, 85
5, 229244, Note_off_c, 1, 62, 0
5, 229248, Note_on_c, 1, 64, 85
5, 229436, Note_off_c, 1, 64, 0
5, 229440, Note_on_c, 1, 65, 85
5, 229628, Note_off_c, 1, 65, 0
5, 229632, Note_on_c, 1, 67, 85
5, 229820, Note_off_c, 1, 67, 0
5, 229824, Note_on_c, 1, 70, 85
5, 230012, Note_off_c, 1, 70, 0
5, 230016, Note_on_c, 1, 69, 85
5, 230204, Note_off_c, 1, 69, 0
5, 230208, Note_on_c, 1, 67, 85
5, 230396, Note_off_c, 1, 67, 0
5, 230400, Note_on_c, 1, 65, 85
5, 230588, Note_off_c, 1, 65, 0
5, 230592, Note_on_c, 1, 67, 85
5, 230780, Note_off_c, 1, 67, 0
5, 230784, Note_on_c, 1, 69, 85
5, 230972, Note_off_c, 1, 69, 0
5, 230976, Note_on_c, 1, 65, 85
5, 231164, Note_off_c, 1, 65, 0
5, 231168, Note_on_c, 1, 70, 85
5, 231356, Note_off_c, 1, 70, 0
5, 231360, Note_on_c, 1, 67, 85
5, 231548, Note_off_c, 1, 67, 0
5, 231552, Note_on_c, 1, 61, 85
5, 231740, Note_off_c, 1, 61, 0
5, 231744, Note_on_c, 1, 69, 85
5, 231932, Note_off_c, 1, 69, 0
5, 231936, Note_on_c, 1, 69, 85
5, 232316, Note_off_c, 1, 69, 0
5, 232704, Note_on_c, 1, 73, 85
5, 233084, Note_off_c, 1, 73, 0
5, 233472, Note_on_c, 1, 74, 85
5, 233852, Note_off_c, 1, 74, 0
5, 234240, Note_on_c, 1, 73, 85
5, 234620, Note_off_c, 1, 73, 0
5, 235008, Note_on_c, 1, 74, 85
5, 235388, Note_off_c, 1, 74, 0
5, 235968, Note_on_c, 1, 74, 85
5, 236156, Note_off_c, 1, 74, 0
5, 236160, Note_on_c, 1, 73, 85
5, 236348, Note_off_c, 1, 73, 0
5, 236352, Note_on_c, 1, 76, 85
5, 236540, Note_off_c, 1, 76, 0
5, 236544, Note_on_c, 1, 74, 85
5, 236924, Note_off_c, 1, 74, 0
5, 237504, Note_on_c, 1, 65, 85
5, 237692, Note_off_c, 1, 65, 0
5, 237696, Note_on_c, 1, 64, 85
5, 237868, Note_off_c, 1, 64, 0
5, 237888, Note_on_c, 1, 64, 85
5, 238076, Note_off_c, 1, 64, 0
5, 238080, Note_on_c, 1, 62, 85
5, 238460, Note_off_c, 1, 62, 0
5, 239616, Note_on_c, 1, 65, 85
5, 239996, Note_off_c, 1, 65, 0
5, 254016, Note_on_c, 1, 65, 85
5, 254148, Note_off_c, 1, 65, 0
5, 254208, Note_on_c, 1, 65, 85
5, 254340, Note_off_c, 1, 65, 0
5, 254784, Note_on_c, 1, 64, 85
5, 254916, Note_off_c, 1, 64, 0
5, 254976, Note_on_c, 1, 57, 85
5, 255108, Note_off_c, 1, 57, 0
5, 255552, Note_on_c, 1, 65, 85
5, 255684, Note_off_c, 1, 65, 0
5, 255744, Note_on_c, 1, 65, 85
5, 255876, Note_off_c, 1, 65, 0
5, 256320, Note_on_c, 1, 65, 85
5, 256452, Note_off_c, 1, 65, 0
5, 256512, Note_on_c, 1, 67, 85
5, 256644, Note_off_c, 1, 67, 0
5, 257088, Note_on_c, 1, 64, 85
5, 257220, Note_off_c, 1, 64, 0
5, 257280, Note_on_c, 1, 64, 85
5, 257412, Note_off_c, 1, 64, 0
5, 257856, Note_on_c, 1, 67, 85
5, 257988, Note_off_c, 1, 67, 0
5, 258048, Note_on_c, 1, 69, 85
5, 258180, Note_off_c, 1, 69, 0
5, 258624, Note_on_c, 1, 67, 85
5, 258756, Note_off_c, 1, 67, 0
5, 258816, Note_on_c, 1, 69, 85
5, 258948, Note_off_c, 1, 69, 0
5, 259392, Note_on_c, 1, 69, 85
5, 259524, Note_off_c, 1, 69, 0
5, 259584, Note_on_c, 1, 71, 85
5, 261116, Note_off_c, 1, 71, 0
5, 261120, Note_on_c, 1, 70, 85
5, 261884, Note_off_c, 1, 70, 0
5, 261888, Note_on_c, 1, 69, 85
5, 262652, Note_off_c, 1, 69, 0
5, 262656, Note_on_c, 1, 69, 85
5, 263420, Note_off_c, 1, 69, 0
5, 263424, Note_on_c, 1, 71, 85
5, 264188, Note_off_c, 1, 71, 0
5, 264192, Note_on_c, 1, 73, 85
5, 264956, Note_off_c, 1, 73, 0
5, 264960, Note_on_c, 1, 74, 85
5, 268028, Note_off_c, 1, 74, 0
5, 268032, Note_on_c, 1, 73, 85
5, 268796, Note_off_c, 1, 73, 0
5, 268800, Note_on_c, 1, 62, 100
5, 268896, Note_off_c, 1, 62, 0
5, 268896, Note_on_c, 1, 64, 100
5, 268992, Note_off_c, 1, 64, 0
5, 268992, Note_on_c, 1, 65, 100
5, 269120, Note_off_c, 1, 65, 0
5, 269184, Note_on_c, 1, 64, 100
5, 269376, Note_off_c, 1, 64, 0
5, 269376, Note_on_c, 1, 62, 100
5, 269568, Note_off_c, 1, 62, 0
5, 269568, Note_on_c, 1, 69, 100
5, 269760, Note_off_c, 1, 69, 0
5, 269760, Note_on_c, 1, 74, 100
5, 270144, Note_off_c, 1, 74, 0
5, 270144, Note_on_c, 1, 69, 100
5, 270336, Note_off_c, 1, 69, 0
5, 270336, Note_on_c, 1, 70, 100
5, 270524, Note_off_c, 1, 70, 0
5, 270528, Note_on_c, 1, 67, 100
5, 270620, Note_off_c, 1, 67, 0
5, 270624, Note_on_c, 1, 64, 100
5, 270716, Note_off_c, 1, 64, 0
5, 270720, Note_on_c, 1, 69, 100
5, 270908, Note_off_c, 1, 69, 0
5, 270912, Note_on_c, 1, 65, 100
5, 271004, Note_off_c, 1, 65, 0
5, 271008, Note_on_c, 1, 62, 100
5, 271100, Note_off_c, 1, 62, 0
5, 271104, Note_on_c, 1, 67, 100
5, 271292, Note_off_c, 1, 67, 0
5, 271296, Note_on_c, 1, 64, 100
5, 271388, Note_off_c, 1, 64, 0
5, 271392, Note_on_c, 1, 61, 100
5, 271484, Note_off_c, 1, 61, 0
5, 271488, Note_on_c, 1, 57, 100
5, 271616, Note_off_c, 1, 57, 0
5, 271680, Note_on_c, 1, 70, 87
5, 272060, Note_off_c, 1, 70, 0
5, 272064, Note_on_c, 1, 79, 85
5, 272444, Note_off_c, 1, 79, 0
5, 272448, Note_on_c, 1, 76, 85
5, 272540, Note_off_c, 1, 76, 0
5, 272544, Note_on_c, 1, 73, 85
5, 272636, Note_off_c, 1, 73, 0
5, 272640, Note_on_c, 1, 64, 85
5, 272828, Note_off_c, 1, 64, 0
5, 272832, Note_on_c, 1, 79, 85
5, 273212, Note_off_c, 1, 79, 0
5, 273216, Note_on_c, 1, 76, 85
5, 273308, Note_off_c, 1, 76, 0
5, 273312, Note_on_c, 1, 73, 85
5, 273404, Note_off_c, 1, 73, 0
5, 273408, Note_on_c, 1, 69, 85
5, 273596, Note_off_c, 1, 69, 0
5, 273600, Note_on_c, 1, 65, 85
5, 273788, Note_off_c, 1, 65, 0
5, 273792, Note_on_c, 1, 62, 85
5, 273980, Note_off_c, 1, 62, 0
5, 273984, Note_on_c, 1, 65, 85
5, 274172, Note_off_c, 1, 65, 0
5, 274176, Note_on_c, 1, 69, 85
5, 274364, Note_off_c, 1, 69, 0
5, 274368, Note_on_c, 1, 65, 85
5, 274556, Note_off_c, 1, 65, 0
5, 274560, Note_on_c, 1, 62, 85
5, 274748, Note_off_c, 1, 62, 0
5, 274752, Note_on_c, 1, 66, 85
5, 274940, Note_off_c, 1, 66, 0
5, 274944, Note_on_c, 1, 75, 85
5, 275132, Note_off_c, 1, 75, 0
5, 275136, Note_on_c, 1, 84, 85
5, 275516, Note_off_c, 1, 84, 0
5, 275520, Note_on_c, 1, 81, 85
5, 275612, Note_off_c, 1, 81, 0
5, 275616, Note_on_c, 1, 78, 85
5, 275708, Note_off_c, 1, 78, 0
5, 275712, Note_on_c, 1, 69, 85
5, 275900, Note_off_c, 1, 69, 0
5, 275904, Note_on_c, 1, 84, 85
5, 276284, Note_off_c, 1, 84, 0
5, 276288, Note_on_c, 1, 81, 85
5, 276380, Note_off_c, 1, 81, 0
5, 276384, Note_on_c, 1, 78, 85
5, 276476, Note_off_c, 1, 78, 0
5, 276480, Note_on_c, 1, 74, 85
5, 276668, Note_off_c, 1, 74, 0
5, 276672, Note_on_c, 1, 70, 85
5, 276860, Note_off_c, 1, 70, 0
5, 276864, Note_on_c, 1, 67, 85
5, 277052, Note_off_c, 1, 67, 0
5, 277056, Note_on_c, 1, 70, 85
5, 277244, Note_off_c, 1, 70, 0
5, 277248, Note_on_c, 1, 74, 85
5, 277436, Note_off_c, 1, 74, 0
5, 277440, Note_on_c, 1, 70, 85
5, 277628, Note_off_c, 1, 70, 0
5, 277632, Note_on_c, 1, 67, 85
5, 277820, Note_off_c, 1, 67, 0
5, 277824, Note_on_c, 1, 70, 85
5, 278012, Note_off_c, 1, 70, 0
5, 278016, Note_on_c, 1, 77, 85
5, 278204, Note_off_c, 1, 77, 0
5, 278208, Note_on_c, 1, 74, 85
5, 278588, Note_off_c, 1, 74, 0
5, 278592, Note_on_c, 1, 71, 85
5, 278684, Note_off_c, 1, 71, 0
5, 278688, Note_on_c, 1, 68, 85
5, 278780, Note_off_c, 1, 68, 0
5, 278784, Note_on_c, 1, 56, 85
5, 278972, Note_off_c, 1, 56, 0
5, 278976, Note_on_c, 1, 74, 85
5, 279356, Note_off_c, 1, 74, 0
5, 279360, Note_on_c, 1, 71, 85
5, 279452, Note_off_c, 1, 71, 0
5, 279456, Note_on_c, 1, 68, 85
5, 279548, Note_off_c, 1, 68, 0
5, 279552, Note_on_c, 1, 69, 85
5, 279740, Note_off_c, 1, 69, 0
5, 279744, Note_on_c, 1, 67, 85
5, 280124, Note_off_c, 1, 67, 0
5, 280128, Note_on_c, 1, 64, 85
5, 280220, Note_off_c, 1, 64, 0
5, 280224, Note_on_c, 1, 61, 85
5, 280316, Note_off_c, 1, 61, 0
5, 280320, Note_on_c, 1, 57, 85
5, 280508, Note_off_c, 1, 57, 0
5, 280512, Note_on_c, 1, 67, 85
5, 280892, Note_off_c, 1, 67, 0
5, 280896, Note_on_c, 1, 64, 85
5, 280988, Note_off_c, 1, 64, 0
5, 280992, Note_on_c, 1, 61, 85
5, 281084, Note_off_c, 1, 61, 0
5, 281088, Note_on_c, 1, 74, 85
5, 281232, Note_off_c, 1, 74, 0
5, 281280, Note_on_c, 1, 69, 85
5, 281424, Note_off_c, 1, 69, 0
5, 281472, Note_on_c, 1, 65, 85
5, 281616, Note_off_c, 1, 65, 0
5, 281664, Note_on_c, 1, 69, 85
5, 281808, Note_off_c, 1, 69, 0
5, 281856, Note_on_c, 1, 74, 85
5, 282000, Note_off_c, 1, 74, 0
5, 282048, Note_on_c, 1, 69, 85
5, 282192, Note_off_c, 1, 69, 0
5, 282240, Note_on_c, 1, 65, 85
5, 282384, Note_off_c, 1, 65, 0
5, 282432, Note_on_c, 1, 69, 85
5, 282576, Note_off_c, 1, 69, 0
5, 282624, Note_on_c, 1, 74, 85
5, 282768, Note_off_c, 1, 74, 0
5, 282816, Note_on_c, 1, 70, 85
5, 282960, Note_off_c, 1, 70, 0
5, 283008, Note_on_c, 1, 65, 85
5, 283152, Note_off_c, 1, 65, 0
5, 283200, Note_on_c, 1, 70, 85
5, 283344, Note_off_c, 1, 70, 0
5, 283392, Note_on_c, 1, 74, 85
5, 283536, Note_off_c, 1, 74, 0
5, 283584, Note_on_c, 1, 69, 85
5, 283728, Note_off_c, 1, 69, 0
5, 283776, Note_on_c, 1, 65, 85
5, 283920, Note_off_c, 1, 65, 0
5, 283968, Note_on_c, 1, 69, 85
5, 284112, Note_off_c, 1, 69, 0
5, 284160, Note_on_c, 1, 58, 85
5, 284348, Note_off_c, 1, 58, 0
5, 284352, Note_on_c, 1, 62, 85
5, 284480, Note_off_c, 1, 62, 0
5, 284544, Note_on_c, 1, 64, 85
5, 284732, Note_off_c, 1, 64, 0
5, 284736, Note_on_c, 1, 65, 85
5, 284864, Note_off_c, 1, 65, 0
5, 284928, Note_on_c, 1, 64, 85
5, 285116, Note_off_c, 1, 64, 0
5, 285120, Note_on_c, 1, 67, 85
5, 285248, Note_off_c, 1, 67, 0
5, 285312, Note_on_c, 1, 61, 85
5, 285500, Note_off_c, 1, 61, 0
5, 285504, Note_on_c, 1, 67, 85
5, 285632, Note_off_c, 1, 67, 0
5, 285696, Note_on_c, 1, 65, 85
5, 285884, Note_off_c, 1, 65, 0
5, 287232, Note_on_c, 1, 62, 100
5, 287328, Note_off_c, 1, 62, 0
5, 287328, Note_on_c, 1, 64, 100
5, 287424, Note_off_c, 1, 64, 0
5, 287424, Note_on_c, 1, 65, 100
5, 287552, Note_off_c, 1, 65, 0
5, 287616, Note_on_c, 1, 64, 100
5, 287808, Note_off_c, 1, 64, 0
5, 287808, Note_on_c, 1, 62, 100
5, 288000, Note_off_c, 1, 62, 0
5, 288000, Note_on_c, 1, 69, 100
5, 288192, Note_off_c, 1, 69, 0
5, 288192, Note_on_c, 1, 74, 100
5, 288576, Note_off_c, 1, 74, 0
5, 288576, Note_on_c, 1, 69, 100
5, 288768, Note_off_c, 1, 69, 0
5, 288768, Note_on_c, 1, 70, 100
5, 288956, Note_off_c, 1, 70, 0
5, 288960, Note_on_c, 1, 67, 100
5, 289052, Note_off_c, 1, 67, 0
5, 289056, Note_on_c, 1, 64, 100
5, 289148, Note_off_c, 1, 64, 0
5, 289152, Note_on_c, 1, 69, 100
5, 289340, Note_off_c, 1, 69, 0
5, 289344, Note_on_c, 1, 65, 100
5, 289436, Note_off_c, 1, 65, 0
5, 289440, Note_on_c, 1, 62, 100
5, 289532, Note_off_c, 1, 62, 0
5, 289536, Note_on_c, 1, 67, 100
5, 289724, Note_off_c, 1, 67, 0
5, 289728, Note_on_c, 1, 64, 100
5, 289820, Note_off_c, 1, 64, 0
5, 289824, Note_on_c, 1, 61, 100
5, 289916, Note_off_c, 1, 61, 0
5, 289920, Note_on_c, 1, 57, 100
5, 290048, Note_off_c, 1, 57, 0
5, 290112, Note_on_c, 1, 70, 100
5, 290492, Note_off_c, 1, 70, 0
5, 290496, Note_on_c, 1, 67, 100
5, 290588, Note_off_c, 1, 67, 0
5, 290592, Note_on_c, 1, 64, 100
5, 290684, Note_off_c, 1, 64, 0
5, 290688, Note_on_c, 1, 57, 100
5, 290816, Note_off_c, 1, 57, 0
5, 290880, Note_on_c, 1, 73, 100
5, 291260, Note_off_c, 1, 73, 0
5, 291264, Note_on_c, 1, 70, 100
5, 291356, Note_off_c, 1, 70, 0
5, 291360, Note_on_c, 1, 67, 100
5, 291452, Note_off_c, 1, 67, 0
5, 291456, Note_on_c, 1, 57, 100
5, 291584, Note_off_c, 1, 57, 0
5, 291648, Note_on_c, 1, 76, 100
5, 292028, Note_off_c, 1, 76, 0
5, 292032, Note_on_c, 1, 73, 100
5, 292124, Note_off_c, 1, 73, 0
5, 292128, Note_on_c, 1, 69, 100
5, 292220, Note_off_c, 1, 69, 0
5, 292224, Note_on_c, 1, 70, 100
5, 292316, Note_off_c, 1, 70, 0
5, 292320, Note_on_c, 1, 67, 100
5, 292412, Note_off_c, 1, 67, 0
5, 292416, Note_on_c, 1, 69, 100
5, 292508, Note_off_c, 1, 69, 0
5, 292512, Note_on_c, 1, 65, 100
5, 292604, Note_off_c, 1, 65, 0
5, 292608, Note_on_c, 1, 67, 100
5, 292700, Note_off_c, 1, 67, 0
5, 292704, Note_on_c, 1, 64, 100
5, 292796, Note_off_c, 1, 64, 0
5, 292800, Note_on_c, 1, 65, 100
5, 292892, Note_off_c, 1, 65, 0
5, 292896, Note_on_c, 1, 62, 100
5, 292988, Note_off_c, 1, 62, 0
5, 292992, Note_on_c, 1, 64, 100
5, 293084, Note_off_c, 1, 64, 0
5, 293088, Note_on_c, 1, 61, 100
5, 293180, Note_off_c, 1, 61, 0
5, 293184, Note_on_c, 1, 62, 100
5, 293276, Note_off_c, 1, 62, 0
5, 293280, Note_on_c, 1, 59, 100
5, 293372, Note_off_c, 1, 59, 0
5, 293376, Note_on_c, 1, 61, 100
5, 293468, Note_off_c, 1, 61, 0
5, 293472, Note_on_c, 1, 57, 100
5, 293564, Note_off_c, 1, 57, 0
5, 293568, Note_on_c, 1, 59, 100
5, 293660, Note_off_c, 1, 59, 0
5, 293664, Note_on_c, 1, 61, 100
5, 293756, Note_off_c, 1, 61, 0
5, 293760, Note_on_c, 1, 62, 100
5, 293852, Note_off_c, 1, 62, 0
5, 293856, Note_on_c, 1, 64, 100
5, 293948, Note_off_c, 1, 64, 0
5, 293952, Note_on_c, 1, 65, 100
5, 294044, Note_off_c, 1, 65, 0
5, 294048, Note_on_c, 1, 67, 100
5, 294140, Note_off_c, 1, 67, 0
5, 294144, Note_on_c, 1, 69, 100
5, 294236, Note_off_c, 1, 69, 0
5, 294240, Note_on_c, 1, 70, 100
5, 294332, Note_off_c, 1, 70, 0
5, 294336, Note_on_c, 1, 72, 100
5, 294464, Note_off_c, 1, 72, 0
5, 294528, Note_on_c, 1, 72, 100
5, 294620, Note_off_c, 1, 72, 0
5, 294624, Note_on_c, 1, 74, 100
5, 294716, Note_off_c, 1, 74, 0
5, 294720, Note_on_c, 1, 75, 100
5, 294848, Note_off_c, 1, 75, 0
5, 294912, Note_on_c, 1, 66, 100
5, 295020, Note_off_c, 1, 66, 0
5, 295104, Note_on_c, 1, 67, 100
5, 295212, Note_off_c, 1, 67, 0
5, 295296, Note_on_c, 1, 61, 100
5, 295404, Note_off_c, 1, 61, 0
5, 295488, Note_on_c, 1, 62, 100
5, 295596, Note_off_c, 1, 62, 0
5, 295680, Note_on_c, 1, 56, 100
5, 295868, Note_off_c, 1, 56, 0
5, 296064, Note_on_c, 1, 57, 100
5, 296252, Note_off_c, 1, 57, 0
5, 296448, Note_on_c, 1, 62, 100
5, 297212, Note_off_c, 1, 62, 0
5, 297212, End_track
6, 0, Start_track
6, 0, Title_t, "Viola"
6, 0, Control_c, 2, 0, 0
6, 0, Program_c, 2, 42
6, 0, Control_c, 2, 7, 72
6, 0, Control_c, 2, 10, 96
6, 0, Control_c, 2, 93, 21
6, 0, Key_signature, -1, "minor"
6, 0, Note_on_c, 2, 62, 100
6, 96, Note_off_c, 2, 62, 0
6, 96, Note_on_c, 2, 64, 100
6, 192, Note_off_c, 2, 64, 0
6, 192, Note_on_c, 2, 65, 100
6, 320, Note_off_c, 2, 65, 0
6, 384, Note_on_c, 2, 64, 100
6, 576, Note_off_c, 2, 64, 0
6, 576, Note_on_c, 2, 62, 100
6, 768, Note_off_c, 2, 62, 0
6, 768, Note_on_c, 2, 69, 100
6, 960, Note_off_c, 2, 69, 0
6, 960, Note_on_c, 2, 74, 100
6, 1344, Note_off_c, 2, 74, 0
6, 1344, Note_on_c, 2, 69, 100
6, 1536, Note_off_c, 2, 69, 0
6, 1536, Note_on_c, 2, 70, 100
6, 1724, Note_off_c, 2, 70, 0
6, 1728, Note_on_c, 2, 67, 100
6, 1820, Note_off_c, 2, 67, 0
6, 1824, Note_on_c, 2, 64, 100
6, 1916, Note_off_c, 2, 64, 0
6, 1920, Note_on_c, 2, 69, 100
6, 2108, Note_off_c, 2, 69, 0
6, 2112, Note_on_c, 2, 65, 100
6, 2204, Note_off_c, 2, 65, 0
6, 2208, Note_on_c, 2, 62, 100
6, 2300, Note_off_c, 2, 62, 0
6, 2304, Note_on_c, 2, 67, 100
6, 2492, Note_off_c, 2, 67, 0
6, 2496, Note_on_c, 2, 64, 100
6, 2588, Note_off_c, 2, 64, 0
6, 2592, Note_on_c, 2, 61, 100
6, 2684, Note_off_c, 2, 61, 0
6, 2688, Note_on_c, 2, 57, 100
6, 2816, Note_off_c, 2, 57, 0
6, 2880, Note_on_c, 2, 70, 100
6, 3260, Note_off_c, 2, 70, 0
6, 3264, Note_on_c, 2, 67, 100
6, 3356, Note_off_c, 2, 67, 0
6, 3360, Note_on_c, 2, 64, 100
6, 3452, Note_off_c, 2, 64, 0
6, 3456, Note_on_c, 2, 57, 100
6, 3584, Note_off_c, 2, 57, 0
6, 3648, Note_on_c, 2, 73, 100
6, 4028, Note_off_c, 2, 73, 0
6, 4032, Note_on_c, 2, 70, 100
6, 4124, Note_off_c, 2, 70, 0
6, 4128, Note_on_c, 2, 67, 100
6, 4220, Note_off_c, 2, 67, 0
6, 4224, Note_on_c, 2, 57, 100
6, 4352, Note_off_c, 2, 57, 0
6, 4416, Note_on_c, 2, 76, 100
6, 4796, Note_off_c, 2, 76, 0
6, 4800, Note_on_c, 2, 73, 100
6, 4892, Note_off_c, 2, 73, 0
6, 4896, Note_on_c, 2, 69, 100
6, 4988, Note_off_c, 2, 69, 0
6, 4992, Note_on_c, 2, 70, 100
6, 5084, Note_off_c, 2, 70, 0
6, 5088, Note_on_c, 2, 67, 100
6, 5180, Note_off_c, 2, 67, 0
6, 5184, Note_on_c, 2, 69, 100
6, 5276, Note_off_c, 2, 69, 0
6, 5280, Note_on_c, 2, 65, 100
6, 5372, Note_off_c, 2, 65, 0
6, 5376, Note_on_c, 2, 67, 100
6, 5468, Note_off_c, 2, 67, 0
6, 5472, Note_on_c, 2, 64, 100
6, 5564, Note_off_c, 2, 64, 0
6, 5568, Note_on_c, 2, 65, 100
6, 5660, Note_off_c, 2, 65, 0
6, 5664, Note_on_c, 2, 62, 100
6, 5756, Note_off_c, 2, 62, 0
6, 5760, Note_on_c, 2, 64, 100
6, 5852, Note_off_c, 2, 64, 0
6, 5856, Note_on_c, 2, 61, 100
6, 5948, Note_off_c, 2, 61, 0
6, 5952, Note_on_c, 2, 62, 100
6, 6044, Note_off_c, 2, 62, 0
6, 6048, Note_on_c, 2, 59, 100
6, 6140, Note_off_c, 2, 59, 0
6, 6144, Note_on_c, 2, 61, 100
6, 6236, Note_off_c, 2, 61, 0
6, 6240, Note_on_c, 2, 57, 100
6, 6332, Note_off_c, 2, 57, 0
6, 6336, Note_on_c, 2, 59, 100
6, 6428, Note_off_c, 2, 59, 0
6, 6432, Note_on_c, 2, 61, 100
6, 6524, Note_off_c, 2, 61, 0
6, 6528, Note_on_c, 2, 62, 100
6, 6620, Note_off_c, 2, 62, 0
6, 6624, Note_on_c, 2, 64, 100
6, 6716, Note_off_c, 2, 64, 0
6, 6720, Note_on_c, 2, 65, 100
6, 6812, Note_off_c, 2, 65, 0
6, 6816, Note_on_c, 2, 67, 100
6, 6908, Note_off_c, 2, 67, 0
6, 6912, Note_on_c, 2, 69, 100
6, 7004, Note_off_c, 2, 69, 0
6, 7008, Note_on_c, 2, 70, 100
6, 7100, Note_off_c, 2, 70, 0
6, 7104, Note_on_c, 2, 72, 100
6, 7232, Note_off_c, 2, 72, 0
6, 7296, Note_on_c, 2, 72, 100
6, 7388, Note_off_c, 2, 72, 0
6, 7392, Note_on_c, 2, 74, 100
6, 7484, Note_off_c, 2, 74, 0
6, 7488, Note_on_c, 2, 75, 100
6, 7616, Note_off_c, 2, 75, 0
6, 7680, Note_on_c, 2, 66, 100
6, 7788, Note_off_c, 2, 66, 0
6, 7872, Note_on_c, 2, 67, 100
6, 7980, Note_off_c, 2, 67, 0
6, 8064, Note_on_c, 2, 61, 100
6, 8172, Note_off_c, 2, 61, 0
6, 8256, Note_on_c, 2, 62, 100
6, 8364, Note_off_c, 2, 62, 0
6, 8448, Note_on_c, 2, 56, 100
6, 8636, Note_off_c, 2, 56, 0
6, 8832, Note_on_c, 2, 57, 100
6, 9020, Note_off_c, 2, 57, 0
6, 9216, Note_on_c, 2, 62, 85
6, 9404, Note_off_c, 2, 62, 0
6, 9408, Note_on_c, 2, 62, 85
6, 9596, Note_off_c, 2, 62, 0
6, 9600, Note_on_c, 2, 62, 85
6, 9788, Note_off_c, 2, 62, 0
6, 9792, Note_on_c, 2, 62, 85
6, 9980, Note_off_c, 2, 62, 0
6, 9984, Note_on_c, 2, 62, 85
6, 10172, Note_off_c, 2, 62, 0
6, 10176, Note_on_c, 2, 62, 85
6, 10364, Note_off_c, 2, 62, 0
6, 10368, Note_on_c, 2, 62, 85
6, 10556, Note_off_c, 2, 62, 0
6, 10560, Note_on_c, 2, 62, 85
6, 10748, Note_off_c, 2, 62, 0
6, 10752, Note_on_c, 2, 62, 85
6, 10940, Note_off_c, 2, 62, 0
6, 10944, Note_on_c, 2, 62, 85
6, 11132, Note_off_c, 2, 62, 0
6, 11136, Note_on_c, 2, 62, 85
6, 11324, Note_off_c, 2, 62, 0
6, 11328, Note_on_c, 2, 62, 85
6, 11516, Note_off_c, 2, 62, 0
6, 11520, Note_on_c, 2, 62, 85
6, 11708, Note_off_c, 2, 62, 0
6, 11712, Note_on_c, 2, 62, 85
6, 11900, Note_off_c, 2, 62, 0
6, 11904, Note_on_c, 2, 62, 85
6, 12092, Note_off_c, 2, 62, 0
6, 12096, Note_on_c, 2, 62, 85
6, 12284, Note_off_c, 2, 62, 0
6, 12288, Note_on_c, 2, 62, 85
6, 12476, Note_off_c, 2, 62, 0
6, 12480, Note_on_c, 2, 62, 85
6, 12668, Note_off_c, 2, 62, 0
6, 12672, Note_on_c, 2, 62, 85
6, 12860, Note_off_c, 2, 62, 0
6, 12864, Note_on_c, 2, 62, 85
6, 13052, Note_off_c, 2, 62, 0
6, 13056, Note_on_c, 2, 62, 85
6, 13244, Note_off_c, 2, 62, 0
6, 13248, Note_on_c, 2, 62, 85
6, 13436, Note_off_c, 2, 62, 0
6, 13440, Note_on_c, 2, 62, 85
6, 13628, Note_off_c, 2, 62, 0
6, 13632, Note_on_c, 2, 62, 85
6, 13820, Note_off_c, 2, 62, 0
6, 13824, Note_on_c, 2, 62, 85
6, 14012, Note_off_c, 2, 62, 0
6, 14016, Note_on_c, 2, 62, 85
6, 14204, Note_off_c, 2, 62, 0
6, 14208, Note_on_c, 2, 62, 85
6, 14396, Note_off_c, 2, 62, 0
6, 14400, Note_on_c, 2, 62, 85
6, 14588, Note_off_c, 2, 62, 0
6, 14592, Note_on_c, 2, 62, 85
6, 14780, Note_off_c, 2, 62, 0
6, 14784, Note_on_c, 2, 62, 85
6, 14972, Note_off_c, 2, 62, 0
6, 14976, Note_on_c, 2, 62, 85
6, 15164, Note_off_c, 2, 62, 0
6, 15168, Note_on_c, 2, 62, 85
6, 15356, Note_off_c, 2, 62, 0
6, 15360, Note_on_c, 2, 62, 85
6, 15548, Note_off_c, 2, 62, 0
6, 15552, Note_on_c, 2, 62, 85
6, 15740, Note_off_c, 2, 62, 0
6, 15744, Note_on_c, 2, 62, 85
6, 15932, Note_off_c, 2, 62, 0
6, 15936, Note_on_c, 2, 62, 85
6, 16124, Note_off_c, 2, 62, 0
6, 16128, Note_on_c, 2, 62, 85
6, 16316, Note_off_c, 2, 62, 0
6, 16320, Note_on_c, 2, 62, 85
6, 16508, Note_off_c, 2, 62, 0
6, 16512, Note_on_c, 2, 62, 85
6, 16700, Note_off_c, 2, 62, 0
6, 16704, Note_on_c, 2, 62, 85
6, 16892, Note_off_c, 2, 62, 0
6, 16896, Note_on_c, 2, 62, 85
6, 17276, Note_off_c, 2, 62, 0
6, 19200, Note_on_c, 2, 65, 100
6, 19292, Note_off_c, 2, 65, 0
6, 19296, Note_on_c, 2, 67, 100
6, 19388, Note_off_c, 2, 67, 0
6, 19392, Note_on_c, 2, 69, 100
6, 19520, Note_off_c, 2, 69, 0
6, 19584, Note_on_c, 2, 67, 100
6, 19772, Note_off_c, 2, 67, 0
6, 19776, Note_on_c, 2, 65, 100
6, 20156, Note_off_c, 2, 65, 0
6, 20160, Note_on_c, 2, 64, 100
6, 20540, Note_off_c, 2, 64, 0
6, 20544, Note_on_c, 2, 62, 100
6, 20924, Note_off_c, 2, 62, 0
6, 20928, Note_on_c, 2, 67, 100
6, 21308, Note_off_c, 2, 67, 0
6, 21312, Note_on_c, 2, 64, 100
6, 21404, Note_off_c, 2, 64, 0
6, 21408, Note_on_c, 2, 61, 100
6, 21500, Note_off_c, 2, 61, 0
6, 21504, Note_on_c, 2, 55, 100
6, 21692, Note_off_c, 2, 55, 0
6, 21696, Note_on_c, 2, 70, 100
6, 22076, Note_off_c, 2, 70, 0
6, 22080, Note_on_c, 2, 67, 100
6, 22172, Note_off_c, 2, 67, 0
6, 22176, Note_on_c, 2, 64, 100
6, 22268, Note_off_c, 2, 64, 0
6, 22272, Note_on_c, 2, 55, 100
6, 22460, Note_off_c, 2, 55, 0
6, 22464, Note_on_c, 2, 73, 100
6, 22844, Note_off_c, 2, 73, 0
6, 22848, Note_on_c, 2, 70, 100
6, 22940, Note_off_c, 2, 70, 0
6, 22944, Note_on_c, 2, 67, 100
6, 23036, Note_off_c, 2, 67, 0
6, 23040, Note_on_c, 2, 55, 100
6, 23228, Note_off_c, 2, 55, 0
6, 23232, Note_on_c, 2, 76, 100
6, 23612, Note_off_c, 2, 76, 0
6, 23616, Note_on_c, 2, 73, 100
6, 23708, Note_off_c, 2, 73, 0
6, 23712, Note_on_c, 2, 69, 100
6, 23804, Note_off_c, 2, 69, 0
6, 23808, Note_on_c, 2, 70, 100
6, 23900, Note_off_c, 2, 70, 0
6, 23904, Note_on_c, 2, 67, 100
6, 23996, Note_off_c, 2, 67, 0
6, 24000, Note_on_c, 2, 69, 100
6, 24092, Note_off_c, 2, 69, 0
6, 24096, Note_on_c, 2, 65, 100
6, 24188, Note_off_c, 2, 65, 0
6, 24192, Note_on_c, 2, 67, 100
6, 24284, Note_off_c, 2, 67, 0
6, 24288, Note_on_c, 2, 64, 100
6, 24380, Note_off_c, 2, 64, 0
6, 24384, Note_on_c, 2, 65, 100
6, 24480, Note_off_c, 2, 65, 0
6, 24480, Note_on_c, 2, 62, 100
6, 24576, Note_off_c, 2, 62, 0
6, 24576, Note_on_c, 2, 69, 100
6, 26300, Note_off_c, 2, 69, 0
6, 26304, Note_on_c, 2, 62, 100
6, 26492, Note_off_c, 2, 62, 0
6, 26880, Note_on_c, 2, 61, 100
6, 27068, Note_off_c, 2, 61, 0
6, 27072, Note_on_c, 2, 62, 100
6, 27260, Note_off_c, 2, 62, 0
6, 27648, Note_on_c, 2, 71, 100
6, 28028, Note_off_c, 2, 71, 0
6, 28416, Note_on_c, 2, 68, 100
6, 28796, Note_off_c, 2, 68, 0
6, 29184, Note_on_c, 2, 56, 100
6, 29276, Note_off_c, 2, 56, 0
6, 29280, Note_on_c, 2, 76, 100
6, 29372, Note_off_c, 2, 76, 0
6, 29376, Note_on_c, 2, 74, 100
6, 29468, Note_off_c, 2, 74, 0
6, 29472, Note_on_c, 2, 72, 100
6, 29564, Note_off_c, 2, 72, 0
6, 29568, Note_on_c, 2, 71, 100
6, 29660, Note_off_c, 2, 71, 0
6, 29664, Note_on_c, 2, 69, 100
6, 29756, Note_off_c, 2, 69, 0
6, 29760, Note_on_c, 2, 68, 100
6, 29852, Note_off_c, 2, 68, 0
6, 29856, Note_on_c, 2, 66, 100
6, 29948, Note_off_c, 2, 66, 0
6, 29952, Note_on_c, 2, 64, 100
6, 30908, Note_off_c, 2, 64, 0
6, 30912, Note_on_c, 2, 65, 100
6, 31020, Note_off_c, 2, 65, 0
6, 31104, Note_on_c, 2, 59, 100
6, 31212, Note_off_c, 2, 59, 0
6, 31296, Note_on_c, 2, 60, 100
6, 31404, Note_off_c, 2, 60, 0
6, 31488, Note_on_c, 2, 51, 100
6, 31676, Note_off_c, 2, 51, 0
6, 31872, Note_on_c, 2, 52, 100
6, 32060, Note_off_c, 2, 52, 0
6, 32256, Note_on_c, 2, 57, 100
6, 32444, Note_off_c, 2, 57, 0
6, 32448, Note_on_c, 2, 57, 85
6, 32636, Note_off_c, 2, 57, 0
6, 32640, Note_on_c, 2, 57, 85
6, 32828, Note_off_c, 2, 57, 0
6, 32832, Note_on_c, 2, 57, 85
6, 33020, Note_off_c, 2, 57, 0
6, 33024, Note_on_c, 2, 57, 85
6, 33212, Note_off_c, 2, 57, 0
6, 33216, Note_on_c, 2, 57, 85
6, 33404, Note_off_c, 2, 57, 0
6, 33408, Note_on_c, 2, 57, 85
6, 33596, Note_off_c, 2, 57, 0
6, 33600, Note_on_c, 2, 57, 85
6, 33788, Note_off_c, 2, 57, 0
6, 33792, Note_on_c, 2, 57, 85
6, 33980, Note_off_c, 2, 57, 0
6, 33984, Note_on_c, 2, 57, 85
6, 34172, Note_off_c, 2, 57, 0
6, 34176, Note_on_c, 2, 57, 85
6, 34364, Note_off_c, 2, 57, 0
6, 34368, Note_on_c, 2, 57, 85
6, 34556, Note_off_c, 2, 57, 0
6, 34560, Note_on_c, 2, 57, 85
6, 34748, Note_off_c, 2, 57, 0
6, 34752, Note_on_c, 2, 57, 85
6, 34940, Note_off_c, 2, 57, 0
6, 34944, Note_on_c, 2, 57, 85
6, 35132, Note_off_c, 2, 57, 0
6, 35136, Note_on_c, 2, 57, 85
6, 35324, Note_off_c, 2, 57, 0
6, 35328, Note_on_c, 2, 57, 85
6, 35516, Note_off_c, 2, 57, 0
6, 35520, Note_on_c, 2, 57, 85
6, 35708, Note_off_c, 2, 57, 0
6, 35712, Note_on_c, 2, 57, 85
6, 35900, Note_off_c, 2, 57, 0
6, 35904, Note_on_c, 2, 57, 85
6, 36092, Note_off_c, 2, 57, 0
6, 36096, Note_on_c, 2, 57, 85
6, 36284, Note_off_c, 2, 57, 0
6, 36288, Note_on_c, 2, 57, 85
6, 36476, Note_off_c, 2, 57, 0
6, 36480, Note_on_c, 2, 57, 85
6, 36668, Note_off_c, 2, 57, 0
6, 36672, Note_on_c, 2, 57, 85
6, 36860, Note_off_c, 2, 57, 0
6, 36864, Note_on_c, 2, 57, 85
6, 37052, Note_off_c, 2, 57, 0
6, 37056, Note_on_c, 2, 57, 85
6, 37244, Note_off_c, 2, 57, 0
6, 37248, Note_on_c, 2, 57, 85
6, 37436, Note_off_c, 2, 57, 0
6, 37440, Note_on_c, 2, 57, 85
6, 37628, Note_off_c, 2, 57, 0
6, 37632, Note_on_c, 2, 57, 85
6, 37820, Note_off_c, 2, 57, 0
6, 37824, Note_on_c, 2, 57, 85
6, 38012, Note_off_c, 2, 57, 0
6, 38016, Note_on_c, 2, 57, 85
6, 38204, Note_off_c, 2, 57, 0
6, 38208, Note_on_c, 2, 57, 85
6, 38396, Note_off_c, 2, 57, 0
6, 38400, Note_on_c, 2, 57, 85
6, 38588, Note_off_c, 2, 57, 0
6, 38592, Note_on_c, 2, 57, 85
6, 38780, Note_off_c, 2, 57, 0
6, 38784, Note_on_c, 2, 57, 85
6, 38972, Note_off_c, 2, 57, 0
6, 38976, Note_on_c, 2, 57, 85
6, 39164, Note_off_c, 2, 57, 0
6, 39168, Note_on_c, 2, 57, 85
6, 39356, Note_off_c, 2, 57, 0
6, 39360, Note_on_c, 2, 57, 85
6, 39548, Note_off_c, 2, 57, 0
6, 39552, Note_on_c, 2, 57, 85
6, 39740, Note_off_c, 2, 57, 0
6, 39744, Note_on_c, 2, 57, 85
6, 39932, Note_off_c, 2, 57, 0
6, 39936, Note_on_c, 2, 57, 85
6, 40316, Note_off_c, 2, 57, 0
6, 41856, Note_on_c, 2, 69, 85
6, 42240, Note_off_c, 2, 69, 0
6, 42624, Note_on_c, 2, 67, 85
6, 43008, Note_off_c, 2, 67, 0
6, 43392, Note_on_c, 2, 65, 85
6, 43776, Note_off_c, 2, 65, 0
6, 44160, Note_on_c, 2, 66, 85
6, 44544, Note_off_c, 2, 66, 0
6, 44928, Note_on_c, 2, 67, 85
6, 45312, Note_off_c, 2, 67, 0
6, 45696, Note_on_c, 2, 65, 85
6, 46080, Note_off_c, 2, 65, 0
6, 46464, Note_on_c, 2, 64, 85
6, 46848, Note_off_c, 2, 64, 0
6, 47232, Note_on_c, 2, 64, 85
6, 47616, Note_off_c, 2, 64, 0
6, 48000, Note_on_c, 2, 65, 85
6, 48384, Note_off_c, 2, 65, 0
6, 48768, Note_on_c, 2, 63, 85
6, 49152, Note_off_c, 2, 63, 0
6, 49536, Note_on_c, 2, 62, 85
6, 49920, Note_off_c, 2, 62, 0
6, 50304, Note_on_c, 2, 62, 85
6, 50688, Note_off_c, 2, 62, 0
6, 50688, Note_on_c, 2, 64, 85
6, 50880, Note_off_c, 2, 64, 0
6, 50880, Note_on_c, 2, 71, 85
6, 51264, Note_off_c, 2, 71, 0
6, 51264, Note_on_c, 2, 64, 85
6, 51648, Note_off_c, 2, 64, 0
6, 51648, Note_on_c, 2, 60, 85
6, 52032, Note_off_c, 2, 60, 0
6, 52032, Note_on_c, 2, 57, 85
6, 52416, Note_off_c, 2, 57, 0
6, 52416, Note_on_c, 2, 69, 85
6, 52800, Note_off_c, 2, 69, 0
6, 52800, Note_on_c, 2, 62, 85
6, 53184, Note_off_c, 2, 62, 0
6, 53184, Note_on_c, 2, 58, 85
6, 53568, Note_off_c, 2, 58, 0
6, 53568, Note_on_c, 2, 55, 85
6, 53952, Note_off_c, 2, 55, 0
6, 53952, Note_on_c, 2, 67, 85
6, 54336, Note_off_c, 2, 67, 0
6, 54336, Note_on_c, 2, 60, 85
6, 54720, Note_off_c, 2, 60, 0
6, 54720, Note_on_c, 2, 57, 85
6, 55104, Note_off_c, 2, 57, 0
6, 55104, Note_on_c, 2, 53, 85
6, 55488, Note_off_c, 2, 53, 0
6, 55488, Note_on_c, 2, 70, 85
6, 55872, Note_off_c, 2, 70, 0
6, 55872, Note_on_c, 2, 67, 85
6, 56064, Note_off_c, 2, 67, 0
6, 56064, Note_on_c, 2, 64, 85
6, 56256, Note_off_c, 2, 64, 0
6, 56256, Note_on_c, 2, 69, 85
6, 56640, Note_off_c, 2, 69, 0
6, 56640, Note_on_c, 2, 65, 85
6, 56832, Note_off_c, 2, 65, 0
6, 56832, Note_on_c, 2, 62, 85
6, 57024, Note_off_c, 2, 62, 0
6, 57024, Note_on_c, 2, 67, 85
6, 57404, Note_off_c, 2, 67, 0
6, 57408, Note_on_c, 2, 64, 85
6, 57600, Note_off_c, 2, 64, 0
6, 57600, Note_on_c, 2, 60, 85
6, 57984, Note_off_c, 2, 60, 0
6, 58176, Note_on_c, 2, 55, 100
6, 58368, Note_off_c, 2, 55, 0
6, 58368, Note_on_c, 2, 62, 100
6, 58752, Note_off_c, 2, 62, 0
6, 58848, Note_on_c, 2, 64, 100
6, 58940, Note_off_c, 2, 64, 0
6, 58944, Note_on_c, 2, 65, 100
6, 59036, Note_off_c, 2, 65, 0
6, 59040, Note_on_c, 2, 67, 100
6, 59132, Note_off_c, 2, 67, 0
6, 59136, Note_on_c, 2, 69, 100
6, 59244, Note_off_c, 2, 69, 0
6, 59328, Note_on_c, 2, 74, 100
6, 59436, Note_off_c, 2, 74, 0
6, 59520, Note_on_c, 2, 72, 100
6, 59628, Note_off_c, 2, 72, 0
6, 59712, Note_on_c, 2, 70, 100
6, 59820, Note_off_c, 2, 70, 0
6, 59904, Note_on_c, 2, 69, 85
6, 61436, Note_off_c, 2, 69, 0
6, 61440, Note_on_c, 2, 64, 85
6, 62204, Note_off_c, 2, 64, 0
6, 62208, Note_on_c, 2, 67, 85
6, 62972, Note_off_c, 2, 67, 0
6, 62976, Note_on_c, 2, 69, 100
6, 63356, Note_off_c, 2, 69, 0
6, 63936, Note_on_c, 2, 60, 100
6, 64124, Note_off_c, 2, 60, 0
6, 64128, Note_on_c, 2, 58, 100
6, 64316, Note_off_c, 2, 58, 0
6, 64320, Note_on_c, 2, 57, 100
6, 64508, Note_off_c, 2, 57, 0
6, 64512, Note_on_c, 2, 55, 100
6, 64892, Note_off_c, 2, 55, 0
6, 65472, Note_on_c, 2, 62, 100
6, 65660, Note_off_c, 2, 62, 0
6, 65664, Note_on_c, 2, 60, 100
6, 65852, Note_off_c, 2, 60, 0
6, 65856, Note_on_c, 2, 59, 100
6, 66044, Note_off_c, 2, 59, 0
6, 66048, Note_on_c, 2, 57, 100
6, 66428, Note_off_c, 2, 57, 0
6, 67008, Note_on_c, 2, 67, 100
6, 67196, Note_off_c, 2, 67, 0
6, 67200, Note_on_c, 2, 65, 100
6, 67388, Note_off_c, 2, 65, 0
6, 67392, Note_on_c, 2, 64, 100
6, 67580, Note_off_c, 2, 64, 0
6, 67584, Note_on_c, 2, 62, 100
6, 67772, Note_off_c, 2, 62, 0
6, 67776, Note_on_c, 2, 64, 100
6, 67964, Note_off_c, 2, 64, 0
6, 67968, Note_on_c, 2, 65, 100
6, 68156, Note_off_c, 2, 65, 0
6, 68160, Note_on_c, 2, 67, 100
6, 68348, Note_off_c, 2, 67, 0
6, 68352, Note_on_c, 2, 69, 100
6, 68540, Note_off_c, 2, 69, 0
6, 68544, Note_on_c, 2, 67, 100
6, 68732, Note_off_c, 2, 67, 0
6, 68736, Note_on_c, 2, 69, 100
6, 68924, Note_off_c, 2, 69, 0
6, 68928, Note_on_c, 2, 71, 100
6, 69116, Note_off_c, 2, 71, 0
6, 69120, Note_on_c, 2, 59, 85
6, 69500, Note_off_c, 2, 59, 0
6, 69504, Note_on_c, 2, 64, 85
6, 69884, Note_off_c, 2, 64, 0
6, 70272, Note_on_c, 2, 64, 85
6, 70652, Note_off_c, 2, 64, 0
6, 71040, Note_on_c, 2, 57, 85
6, 71420, Note_off_c, 2, 57, 0
6, 71808, Note_on_c, 2, 57, 85
6, 72188, Note_off_c, 2, 57, 0
6, 72576, Note_on_c, 2, 69, 85
6, 72956, Note_off_c, 2, 69, 0
6, 73344, Note_on_c, 2, 69, 85
6, 73724, Note_off_c, 2, 69, 0
6, 74112, Note_on_c, 2, 62, 85
6, 74492, Note_off_c, 2, 62, 0
6, 74880, Note_on_c, 2, 62, 85
6, 75260, Note_off_c, 2, 62, 0
6, 75648, Note_on_c, 2, 71, 85
6, 76028, Note_off_c, 2, 71, 0
6, 76416, Note_on_c, 2, 71, 85
6, 76796, Note_off_c, 2, 71, 0
6, 77184, Note_on_c, 2, 64, 85
6, 77564, Note_off_c, 2, 64, 0
6, 77952, Note_on_c, 2, 64, 85
6, 78332, Note_off_c, 2, 64, 0
6, 78720, Note_on_c, 2, 69, 85
6, 79100, Note_off_c, 2, 69, 0
6, 79488, Note_on_c, 2, 67, 85
6, 79868, Note_off_c, 2, 67, 0
6, 80256, Note_on_c, 2, 65, 85
6, 80636, Note_off_c, 2, 65, 0
6, 81024, Note_on_c, 2, 64, 85
6, 81404, Note_off_c, 2, 64, 0
6, 81792, Note_on_c, 2, 62, 85
6, 82172, Note_off_c, 2, 62, 0
6, 82560, Note_on_c, 2, 56, 85
6, 82940, Note_off_c, 2, 56, 0
6, 82944, Note_on_c, 2, 57, 85
6, 83132, Note_off_c, 2, 57, 0
6, 85248, Note_on_c, 2, 57, 100
6, 85340, Note_off_c, 2, 57, 0
6, 85344, Note_on_c, 2, 59, 100
6, 85436, Note_off_c, 2, 59, 0
6, 85440, Note_on_c, 2, 60, 100
6, 85568, Note_off_c, 2, 60, 0
6, 85632, Note_on_c, 2, 59, 100
6, 85820, Note_off_c, 2, 59, 0
6, 85824, Note_on_c, 2, 57, 100
6, 86012, Note_off_c, 2, 57, 0
6, 86016, Note_on_c, 2, 62, 100
6, 86204, Note_off_c, 2, 62, 0
6, 86400, Note_on_c, 2, 60, 100
6, 86588, Note_off_c, 2, 60, 0
6, 86784, Note_on_c, 2, 59, 100
6, 86972, Note_off_c, 2, 59, 0
6, 87168, Note_on_c, 2, 57, 100
6, 87356, Note_off_c, 2, 57, 0
6, 87552, Note_on_c, 2, 56, 100
6, 87740, Note_off_c, 2, 56, 0
6, 87936, Note_on_c, 2, 57, 100
6, 88124, Note_off_c, 2, 57, 0
6, 88320, Note_on_c, 2, 59, 100
6, 88508, Note_off_c, 2, 59, 0
6, 88704, Note_on_c, 2, 60, 100
6, 88892, Note_off_c, 2, 60, 0
6, 89088, Note_on_c, 2, 62, 100
6, 89276, Note_off_c, 2, 62, 0
6, 89280, Note_on_c, 2, 62, 100
6, 89468, Note_off_c, 2, 62, 0
6, 89472, Note_on_c, 2, 62, 100
6, 89660, Note_off_c, 2, 62, 0
6, 89664, Note_on_c, 2, 62, 100
6, 89852, Note_off_c, 2, 62, 0
6, 89856, Note_on_c, 2, 62, 100
6, 90044, Note_off_c, 2, 62, 0
6, 90048, Note_on_c, 2, 62, 100
6, 90236, Note_off_c, 2, 62, 0
6, 90240, Note_on_c, 2, 62, 100
6, 90428, Note_off_c, 2, 62, 0
6, 90432, Note_on_c, 2, 62, 100
6, 90620, Note_off_c, 2, 62, 0
6, 90624, Note_on_c, 2, 62, 100
6, 91004, Note_off_c, 2, 62, 0
6, 92160, Note_on_c, 2, 58, 100
6, 92348, Note_off_c, 2, 58, 0
6, 92352, Note_on_c, 2, 57, 100
6, 92480, Note_off_c, 2, 57, 0
6, 92544, Note_on_c, 2, 62, 100
6, 92732, Note_off_c, 2, 62, 0
6, 92736, Note_on_c, 2, 64, 100
6, 92864, Note_off_c, 2, 64, 0
6, 92928, Note_on_c, 2, 63, 100
6, 93116, Note_off_c, 2, 63, 0
6, 93312, Note_on_c, 2, 64, 100
6, 93500, Note_off_c, 2, 64, 0
6, 93696, Note_on_c, 2, 57, 100
6, 93884, Note_off_c, 2, 57, 0
6, 104640, Note_on_c, 2, 57, 100
6, 104732, Note_off_c, 2, 57, 0
6, 104736, Note_on_c, 2, 55, 100
6, 104828, Note_off_c, 2, 55, 0
6, 104832, Note_on_c, 2, 54, 100
6, 105020, Note_off_c, 2, 54, 0
6, 105024, Note_on_c, 2, 59, 100
6, 105212, Note_off_c, 2, 59, 0
6, 105216, Note_on_c, 2, 60, 100
6, 105404, Note_off_c, 2, 60, 0
6, 105600, Note_on_c, 2, 59, 100
6, 105788, Note_off_c, 2, 59, 0
6, 105984, Note_on_c, 2, 59, 100
6, 106172, Note_off_c, 2, 59, 0
6, 120000, Note_on_c, 2, 64, 85
6, 120188, Note_off_c, 2, 64, 0
6, 120192, Note_on_c, 2, 63, 85
6, 120380, Note_off_c, 2, 63, 0
6, 120384, Note_on_c, 2, 64, 85
6, 120572, Note_off_c, 2, 64, 0
6, 120576, Note_on_c, 2, 60, 85
6, 120764, Note_off_c, 2, 60, 0
6, 120768, Note_on_c, 2, 57, 85
6, 120956, Note_off_c, 2, 57, 0
6, 120960, Note_on_c, 2, 59, 85
6, 121148, Note_off_c, 2, 59, 0
6, 121152, Note_on_c, 2, 71, 85
6, 121340, Note_off_c, 2, 71, 0
6, 121344, Note_on_c, 2, 64, 85
6, 121532, Note_off_c, 2, 64, 0
6, 121536, Note_on_c, 2, 65, 85
6, 121724, Note_off_c, 2, 65, 0
6, 121728, Note_on_c, 2, 62, 85
6, 121916, Note_off_c, 2, 62, 0
6, 121920, Note_on_c, 2, 64, 85
6, 122108, Note_off_c, 2, 64, 0
6, 122112, Note_on_c, 2, 57, 85
6, 122300, Note_off_c, 2, 57, 0
6, 122304, Note_on_c, 2, 59, 85
6, 122492, Note_off_c, 2, 59, 0
6, 122496, Note_on_c, 2, 60, 85
6, 122684, Note_off_c, 2, 60, 0
6, 122688, Note_on_c, 2, 57, 85
6, 122876, Note_off_c, 2, 57, 0
6, 122880, Note_on_c, 2, 53, 85
6, 123068, Note_off_c, 2, 53, 0
6, 123072, Note_on_c, 2, 62, 85
6, 123260, Note_off_c, 2, 62, 0
6, 123264, Note_on_c, 2, 59, 85
6, 123452, Note_off_c, 2, 59, 0
6, 123456, Note_on_c, 2, 55, 85
6, 123644, Note_off_c, 2, 55, 0
6, 123648, Note_on_c, 2, 60, 85
6, 123836, Note_off_c, 2, 60, 0
6, 123840, Note_on_c, 2, 48, 85
6, 124028, Note_off_c, 2, 48, 0
6, 124032, Note_on_c, 2, 50, 85
6, 124220, Note_off_c, 2, 50, 0
6, 124224, Note_on_c, 2, 52, 85
6, 124412, Note_off_c, 2, 52, 0
6, 124416, Note_on_c, 2, 53, 85
6, 124604, Note_off_c, 2, 53, 0
6, 124608, Note_on_c, 2, 52, 85
6, 124796, Note_off_c, 2, 52, 0
6, 124800, Note_on_c, 2, 53, 85
6, 124988, Note_off_c, 2, 53, 0
6, 124992, Note_on_c, 2, 55, 85
6, 125180, Note_off_c, 2, 55, 0
6, 125184, Note_on_c, 2, 57, 85
6, 125372, Note_off_c, 2, 57, 0
6, 125376, Note_on_c, 2, 55, 85
6, 125564, Note_off_c, 2, 55, 0
6, 125568, Note_on_c, 2, 53, 85
6, 125756, Note_off_c, 2, 53, 0
6, 125760, Note_on_c, 2, 50, 85
6, 125948, Note_off_c, 2, 50, 0
6, 125952, Note_on_c, 2, 55, 85
6, 126140, Note_off_c, 2, 55, 0
6, 126144, Note_on_c, 2, 55, 85
6, 126332, Note_off_c, 2, 55, 0
6, 126336, Note_on_c, 2, 55, 85
6, 126524, Note_off_c, 2, 55, 0
6, 126528, Note_on_c, 2, 55, 85
6, 126716, Note_off_c, 2, 55, 0
6, 126720, Note_on_c, 2, 55, 85
6, 126908, Note_off_c, 2, 55, 0
6, 126912, Note_on_c, 2, 55, 85
6, 127100, Note_off_c, 2, 55, 0
6, 127104, Note_on_c, 2, 55, 85
6, 127292, Note_off_c, 2, 55, 0
6, 127296, Note_on_c, 2, 55, 85
6, 127484, Note_off_c, 2, 55, 0
6, 127488, Note_on_c, 2, 54, 85
6, 127676, Note_off_c, 2, 54, 0
6, 127680, Note_on_c, 2, 54, 85
6, 127868, Note_off_c, 2, 54, 0
6, 127872, Note_on_c, 2, 54, 85
6, 128060, Note_off_c, 2, 54, 0
6, 128064, Note_on_c, 2, 54, 85
6, 128252, Note_off_c, 2, 54, 0
6, 128256, Note_on_c, 2, 54, 85
6, 128444, Note_off_c, 2, 54, 0
6, 128448, Note_on_c, 2, 54, 85
6, 128636, Note_off_c, 2, 54, 0
6, 128640, Note_on_c, 2, 54, 85
6, 128828, Note_off_c, 2, 54, 0
6, 128832, Note_on_c, 2, 54, 85
6, 129020, Note_off_c, 2, 54, 0
6, 129024, Note_on_c, 2, 55, 85
6, 129212, Note_off_c, 2, 55, 0
6, 129216, Note_on_c, 2, 55, 85
6, 129404, Note_off_c, 2, 55, 0
6, 129408, Note_on_c, 2, 55, 85
6, 129596, Note_off_c, 2, 55, 0
6, 129600, Note_on_c, 2, 55, 85
6, 129788, Note_off_c, 2, 55, 0
6, 129792, Note_on_c, 2, 55, 85
6, 129980, Note_off_c, 2, 55, 0
6, 129984, Note_on_c, 2, 55, 85
6, 130172, Note_off_c, 2, 55, 0
6, 130176, Note_on_c, 2, 55, 85
6, 130364, Note_off_c, 2, 55, 0
6, 130368, Note_on_c, 2, 55, 85
6, 130556, Note_off_c, 2, 55, 0
6, 130560, Note_on_c, 2, 55, 85
6, 130752, Note_off_c, 2, 55, 0
6, 130752, Note_on_c, 2, 55, 85
6, 130944, Note_off_c, 2, 55, 0
6, 130944, Note_on_c, 2, 55, 85
6, 131136, Note_off_c, 2, 55, 0
6, 131136, Note_on_c, 2, 55, 85
6, 131328, Note_off_c, 2, 55, 0
6, 131328, Note_on_c, 2, 55, 85
6, 131520, Note_off_c, 2, 55, 0
6, 131520, Note_on_c, 2, 55, 85
6, 131712, Note_off_c, 2, 55, 0
6, 131712, Note_on_c, 2, 55, 85
6, 131904, Note_off_c, 2, 55, 0
6, 131904, Note_on_c, 2, 55, 85
6, 132096, Note_off_c, 2, 55, 0
6, 132096, Note_on_c, 2, 55, 85
6, 132288, Note_off_c, 2, 55, 0
6, 132288, Note_on_c, 2, 55, 85
6, 132480, Note_off_c, 2, 55, 0
6, 132480, Note_on_c, 2, 55, 85
6, 132672, Note_off_c, 2, 55, 0
6, 132672, Note_on_c, 2, 55, 85
6, 132864, Note_off_c, 2, 55, 0
6, 132864, Note_on_c, 2, 55, 85
6, 133056, Note_off_c, 2, 55, 0
6, 133056, Note_on_c, 2, 55, 85
6, 133248, Note_off_c, 2, 55, 0
6, 133248, Note_on_c, 2, 55, 85
6, 133440, Note_off_c, 2, 55, 0
6, 133440, Note_on_c, 2, 55, 85
6, 133632, Note_off_c, 2, 55, 0
6, 133632, Note_on_c, 2, 55, 85
6, 133824, Note_off_c, 2, 55, 0
6, 133824, Note_on_c, 2, 55, 85
6, 134016, Note_off_c, 2, 55, 0
6, 134016, Note_on_c, 2, 55, 85
6, 134208, Note_off_c, 2, 55, 0
6, 134208, Note_on_c, 2, 55, 85
6, 134400, Note_off_c, 2, 55, 0
6, 134400, Note_on_c, 2, 55, 85
6, 134592, Note_off_c, 2, 55, 0
6, 134592, Note_on_c, 2, 55, 85
6, 134784, Note_off_c, 2, 55, 0
6, 134784, Note_on_c, 2, 55, 85
6, 134976, Note_off_c, 2, 55, 0
6, 134976, Note_on_c, 2, 55, 85
6, 135168, Note_off_c, 2, 55, 0
6, 135168, Note_on_c, 2, 55, 85
6, 135360, Note_off_c, 2, 55, 0
6, 135360, Note_on_c, 2, 55, 85
6, 135552, Note_off_c, 2, 55, 0
6, 135552, Note_on_c, 2, 55, 85
6, 135744, Note_off_c, 2, 55, 0
6, 135744, Note_on_c, 2, 55, 85
6, 135936, Note_off_c, 2, 55, 0
6, 135936, Note_on_c, 2, 55, 85
6, 136128, Note_off_c, 2, 55, 0
6, 136128, Note_on_c, 2, 55, 85
6, 136320, Note_off_c, 2, 55, 0
6, 136320, Note_on_c, 2, 55, 85
6, 136512, Note_off_c, 2, 55, 0
6, 136512, Note_on_c, 2, 55, 85
6, 136704, Note_off_c, 2, 55, 0
6, 136704, Note_on_c, 2, 55, 85
6, 136896, Note_off_c, 2, 55, 0
6, 136896, Note_on_c, 2, 55, 85
6, 137088, Note_off_c, 2, 55, 0
6, 137088, Note_on_c, 2, 55, 85
6, 137280, Note_off_c, 2, 55, 0
6, 137280, Note_on_c, 2, 55, 85
6, 137472, Note_off_c, 2, 55, 0
6, 137472, Note_on_c, 2, 55, 85
6, 137664, Note_off_c, 2, 55, 0
6, 137664, Note_on_c, 2, 55, 85
6, 137856, Note_off_c, 2, 55, 0
6, 137856, Note_on_c, 2, 55, 85
6, 138048, Note_off_c, 2, 55, 0
6, 138048, Note_on_c, 2, 55, 85
6, 138240, Note_off_c, 2, 55, 0
6, 138240, Note_on_c, 2, 64, 85
6, 139776, Note_off_c, 2, 64, 0
6, 139776, Note_on_c, 2, 59, 85
6, 140544, Note_off_c, 2, 59, 0
6, 140544, Note_on_c, 2, 62, 85
6, 141312, Note_off_c, 2, 62, 0
6, 141312, Note_on_c, 2, 64, 100
6, 141596, Note_off_c, 2, 64, 0
6, 142272, Note_on_c, 2, 61, 100
6, 142460, Note_off_c, 2, 61, 0
6, 142464, Note_on_c, 2, 62, 100
6, 142652, Note_off_c, 2, 62, 0
6, 142656, Note_on_c, 2, 64, 100
6, 142844, Note_off_c, 2, 64, 0
6, 142848, Note_on_c, 2, 57, 100
6, 143132, Note_off_c, 2, 57, 0
6, 143808, Note_on_c, 2, 66, 100
6, 143980, Note_off_c, 2, 66, 0
6, 144000, Note_on_c, 2, 67, 100
6, 144172, Note_off_c, 2, 67, 0
6, 144192, Note_on_c, 2, 69, 100
6, 144364, Note_off_c, 2, 69, 0
6, 144384, Note_on_c, 2, 62, 100
6, 144640, Note_off_c, 2, 62, 0
6, 145344, Note_on_c, 2, 70, 85
6, 145472, Note_off_c, 2, 70, 0
6, 145536, Note_on_c, 2, 67, 85
6, 145664, Note_off_c, 2, 67, 0
6, 145728, Note_on_c, 2, 62, 85
6, 145856, Note_off_c, 2, 62, 0
6, 145920, Note_on_c, 2, 69, 85
6, 146176, Note_off_c, 2, 69, 0
6, 146880, Note_on_c, 2, 72, 85
6, 147008, Note_off_c, 2, 72, 0
6, 147072, Note_on_c, 2, 69, 85
6, 147200, Note_off_c, 2, 69, 0
6, 147264, Note_on_c, 2, 60, 85
6, 147392, Note_off_c, 2, 60, 0
6, 147456, Note_on_c, 2, 67, 85
6, 147712, Note_off_c, 2, 67, 0
6, 148416, Note_on_c, 2, 58, 85
6, 148544, Note_off_c, 2, 58, 0
6, 148608, Note_on_c, 2, 62, 85
6, 148736, Note_off_c, 2, 62, 0
6, 148800, Note_on_c, 2, 67, 85
6, 148928, Note_off_c, 2, 67, 0
6, 148992, Note_on_c, 2, 67, 85
6, 149248, Note_off_c, 2, 67, 0
6, 149952, Note_on_c, 2, 63, 85
6, 150080, Note_off_c, 2, 63, 0
6, 150144, Note_on_c, 2, 67, 85
6, 150272, Note_off_c, 2, 67, 0
6, 150336, Note_on_c, 2, 72, 85
6, 150464, Note_off_c, 2, 72, 0
6, 150528, Note_on_c, 2, 74, 85
6, 150908, Note_off_c, 2, 74, 0
6, 151296, Note_on_c, 2, 69, 85
6, 151676, Note_off_c, 2, 69, 0
6, 152064, Note_on_c, 2, 67, 85
6, 152444, Note_off_c, 2, 67, 0
6, 152832, Note_on_c, 2, 64, 85
6, 153212, Note_off_c, 2, 64, 0
6, 153600, Note_on_c, 2, 60, 85
6, 153980, Note_off_c, 2, 60, 0
6, 154368, Note_on_c, 2, 63, 85
6, 154748, Note_off_c, 2, 63, 0
6, 155136, Note_on_c, 2, 57, 85
6, 155516, Note_off_c, 2, 57, 0
6, 155904, Note_on_c, 2, 66, 85
6, 156284, Note_off_c, 2, 66, 0
6, 158208, Note_on_c, 2, 58, 100
6, 158300, Note_off_c, 2, 58, 0
6, 158304, Note_on_c, 2, 60, 100
6, 158396, Note_off_c, 2, 60, 0
6, 158400, Note_on_c, 2, 62, 100
6, 158528, Note_off_c, 2, 62, 0
6, 158592, Note_on_c, 2, 60, 100
6, 158780, Note_off_c, 2, 60, 0
6, 158784, Note_on_c, 2, 58, 100
6, 158972, Note_off_c, 2, 58, 0
6, 158976, Note_on_c, 2, 67, 100
6, 159068, Note_off_c, 2, 67, 0
6, 159072, Note_on_c, 2, 66, 100
6, 159164, Note_off_c, 2, 66, 0
6, 159168, Note_on_c, 2, 67, 100
6, 159296, Note_off_c, 2, 67, 0
6, 159360, Note_on_c, 2, 69, 100
6, 159548, Note_off_c, 2, 69, 0
6, 159552, Note_on_c, 2, 70, 100
6, 159740, Note_off_c, 2, 70, 0
6, 159744, Note_on_c, 2, 67, 100
6, 159932, Note_off_c, 2, 67, 0
6, 159936, Note_on_c, 2, 63, 100
6, 160124, Note_off_c, 2, 63, 0
6, 160128, Note_on_c, 2, 62, 100
6, 160316, Note_off_c, 2, 62, 0
6, 160512, Note_on_c, 2, 63, 100
6, 160700, Note_off_c, 2, 63, 0
6, 160896, Note_on_c, 2, 67, 100
6, 161084, Note_off_c, 2, 67, 0
6, 161280, Note_on_c, 2, 69, 100
6, 161468, Note_off_c, 2, 69, 0
6, 161664, Note_on_c, 2, 70, 100
6, 161852, Note_off_c, 2, 70, 0
6, 162048, Note_on_c, 2, 72, 100
6, 162236, Note_off_c, 2, 72, 0
6, 162432, Note_on_c, 2, 70, 100
6, 162620, Note_off_c, 2, 70, 0
6, 162816, Note_on_c, 2, 69, 100
6, 162944, Note_off_c, 2, 69, 0
6, 163008, Note_on_c, 2, 69, 100
6, 163136, Note_off_c, 2, 69, 0
6, 163200, Note_on_c, 2, 69, 100
6, 163328, Note_off_c, 2, 69, 0
6, 163392, Note_on_c, 2, 69, 100
6, 163520, Note_off_c, 2, 69, 0
6, 163584, Note_on_c, 2, 69, 100
6, 163712, Note_off_c, 2, 69, 0
6, 163968, Note_on_c, 2, 69, 100
6, 164096, Note_off_c, 2, 69, 0
6, 164352, Note_on_c, 2, 69, 100
6, 164608, Note_off_c, 2, 69, 0
6, 165120, Note_on_c, 2, 67, 100
6, 165308, Note_off_c, 2, 67, 0
6, 165504, Note_on_c, 2, 62, 100
6, 165692, Note_off_c, 2, 62, 0
6, 165888, Note_on_c, 2, 62, 100
6, 166076, Note_off_c, 2, 62, 0
6, 166080, Note_on_c, 2, 67, 100
6, 166208, Note_off_c, 2, 67, 0
6, 166272, Note_on_c, 2, 69, 100
6, 166460, Note_off_c, 2, 69, 0
6, 166464, Note_on_c, 2, 70, 100
6, 166592, Note_off_c, 2, 70, 0
6, 166656, Note_on_c, 2, 61, 100
6, 167036, Note_off_c, 2, 61, 0
6, 177600, Note_on_c, 2, 67, 100
6, 177728, Note_off_c, 2, 67, 0
6, 177792, Note_on_c, 2, 72, 100
6, 177920, Note_off_c, 2, 72, 0
6, 177984, Note_on_c, 2, 69, 100
6, 178112, Note_off_c, 2, 69, 0
6, 178176, Note_on_c, 2, 70, 100
6, 178432, Note_off_c, 2, 70, 0
6, 178944, Note_on_c, 2, 60, 100
6, 179036, Note_off_c, 2, 60, 0
6, 179040, Note_on_c, 2, 62, 100
6, 179132, Note_off_c, 2, 62, 0
6, 179136, Note_on_c, 2, 64, 100
6, 179264, Note_off_c, 2, 64, 0
6, 179328, Note_on_c, 2, 62, 100
6, 179516, Note_off_c, 2, 62, 0
6, 179520, Note_on_c, 2, 60, 100
6, 179708, Note_off_c, 2, 60, 0
6, 179712, Note_on_c, 2, 65, 100
6, 179900, Note_off_c, 2, 65, 0
6, 179904, Note_on_c, 2, 72, 100
6, 180284, Note_off_c, 2, 72, 0
6, 180288, Note_on_c, 2, 65, 100
6, 180476, Note_off_c, 2, 65, 0
6, 180480, Note_on_c, 2, 58, 100
6, 180572, Note_off_c, 2, 58, 0
6, 180576, Note_on_c, 2, 60, 100
6, 180668, Note_off_c, 2, 60, 0
6, 180672, Note_on_c, 2, 62, 100
6, 180800, Note_off_c, 2, 62, 0
6, 180864, Note_on_c, 2, 60, 100
6, 181052, Note_off_c, 2, 60, 0
6, 181056, Note_on_c, 2, 58, 100
6, 181244, Note_off_c, 2, 58, 0
6, 181248, Note_on_c, 2, 64, 100
6, 181436, Note_off_c, 2, 64, 0
6, 181440, Note_on_c, 2, 70, 100
6, 181820, Note_off_c, 2, 70, 0
6, 181824, Note_on_c, 2, 64, 100
6, 182012, Note_off_c, 2, 64, 0
6, 182016, Note_on_c, 2, 57, 100
6, 182108, Note_off_c, 2, 57, 0
6, 182112, Note_on_c, 2, 59, 100
6, 182204, Note_off_c, 2, 59, 0
6, 182208, Note_on_c, 2, 61, 100
6, 182336, Note_off_c, 2, 61, 0
6, 182400, Note_on_c, 2, 59, 100
6, 182588, Note_off_c, 2, 59, 0
6, 182592, Note_on_c, 2, 57, 100
6, 182780, Note_off_c, 2, 57, 0
6, 182784, Note_on_c, 2, 62, 85
6, 182972, Note_off_c, 2, 62, 0
6, 182976, Note_on_c, 2, 69, 85
6, 183356, Note_off_c, 2, 69, 0
6, 183360, Note_on_c, 2, 62, 85
6, 183548, Note_off_c, 2, 62, 0
6, 183552, Note_on_c, 2, 61, 85
6, 183740, Note_off_c, 2, 61, 0
6, 183744, Note_on_c, 2, 69, 85
6, 184124, Note_off_c, 2, 69, 0
6, 184128, Note_on_c, 2, 61, 85
6, 184316, Note_off_c, 2, 61, 0
6, 184320, Note_on_c, 2, 62, 85
6, 184508, Note_off_c, 2, 62, 0
6, 184512, Note_on_c, 2, 69, 85
6, 184892, Note_off_c, 2, 69, 0
6, 184896, Note_on_c, 2, 62, 85
6, 185084, Note_off_c, 2, 62, 0
6, 185088, Note_on_c, 2, 61, 85
6, 185276, Note_off_c, 2, 61, 0
6, 185280, Note_on_c, 2, 69, 85
6, 185660, Note_off_c, 2, 69, 0
6, 185664, Note_on_c, 2, 61, 85
6, 185852, Note_off_c, 2, 61, 0
6, 185856, Note_on_c, 2, 62, 90
6, 185996, Note_off_c, 2, 62, 0
6, 186048, Note_on_c, 2, 62, 90
6, 186188, Note_off_c, 2, 62, 0
6, 186240, Note_on_c, 2, 62, 90
6, 186380, Note_off_c, 2, 62, 0
6, 186432, Note_on_c, 2, 62, 90
6, 186572, Note_off_c, 2, 62, 0
6, 186624, Note_on_c, 2, 62, 90
6, 186764, Note_off_c, 2, 62, 0
6, 186816, Note_on_c, 2, 62, 90
6, 186956, Note_off_c, 2, 62, 0
6, 187008, Note_on_c, 2, 62, 90
6, 187148, Note_off_c, 2, 62, 0
6, 187200, Note_on_c, 2, 62, 90
6, 187340, Note_off_c, 2, 62, 0
6, 187392, Note_on_c, 2, 60, 90
6, 187532, Note_off_c, 2, 60, 0
6, 187584, Note_on_c, 2, 60, 90
6, 187724, Note_off_c, 2, 60, 0
6, 187776, Note_on_c, 2, 60, 90
6, 187916, Note_off_c, 2, 60, 0
6, 187968, Note_on_c, 2, 60, 90
6, 188108, Note_off_c, 2, 60, 0
6, 188160, Note_on_c, 2, 60, 90
6, 188300, Note_off_c, 2, 60, 0
6, 188352, Note_on_c, 2, 60, 90
6, 188492, Note_off_c, 2, 60, 0
6, 188544, Note_on_c, 2, 60, 90
6, 188684, Note_off_c, 2, 60, 0
6, 188736, Note_on_c, 2, 60, 90
6, 188876, Note_off_c, 2, 60, 0
6, 188928, Note_on_c, 2, 58, 90
6, 189068, Note_off_c, 2, 58, 0
6, 189120, Note_on_c, 2, 58, 90
6, 189260, Note_off_c, 2, 58, 0
6, 189312, Note_on_c, 2, 58, 90
6, 189452, Note_off_c, 2, 58, 0
6, 189504, Note_on_c, 2, 58, 90
6, 189644, Note_off_c, 2, 58, 0
6, 189696, Note_on_c, 2, 58, 90
6, 189836, Note_off_c, 2, 58, 0
6, 189888, Note_on_c, 2, 58, 90
6, 190028, Note_off_c, 2, 58, 0
6, 190080, Note_on_c, 2, 58, 90
6, 190220, Note_off_c, 2, 58, 0
6, 190272, Note_on_c, 2, 58, 90
6, 190412, Note_off_c, 2, 58, 0
6, 190464, Note_on_c, 2, 57, 90
6, 190604, Note_off_c, 2, 57, 0
6, 190656, Note_on_c, 2, 57, 90
6, 190796, Note_off_c, 2, 57, 0
6, 190848, Note_on_c, 2, 57, 90
6, 190988, Note_off_c, 2, 57, 0
6, 191040, Note_on_c, 2, 57, 90
6, 191180, Note_off_c, 2, 57, 0
6, 191232, Note_on_c, 2, 57, 90
6, 191372, Note_off_c, 2, 57, 0
6, 191424, Note_on_c, 2, 57, 90
6, 191564, Note_off_c, 2, 57, 0
6, 191616, Note_on_c, 2, 57, 90
6, 191756, Note_off_c, 2, 57, 0
6, 191808, Note_on_c, 2, 57, 90
6, 191948, Note_off_c, 2, 57, 0
6, 192000, Note_on_c, 2, 57, 90
6, 192380, Note_off_c, 2, 57, 0
6, 192384, Note_on_c, 2, 62, 90
6, 192764, Note_off_c, 2, 62, 0
6, 193152, Note_on_c, 2, 60, 90
6, 193532, Note_off_c, 2, 60, 0
6, 193920, Note_on_c, 2, 58, 90
6, 194300, Note_off_c, 2, 58, 0
6, 194688, Note_on_c, 2, 59, 90
6, 195068, Note_off_c, 2, 59, 0
6, 195456, Note_on_c, 2, 60, 90
6, 195836, Note_off_c, 2, 60, 0
6, 196224, Note_on_c, 2, 58, 90
6, 196604, Note_off_c, 2, 58, 0
6, 196992, Note_on_c, 2, 57, 90
6, 197372, Note_off_c, 2, 57, 0
6, 197760, Note_on_c, 2, 57, 90
6, 198140, Note_off_c, 2, 57, 0
6, 198528, Note_on_c, 2, 58, 90
6, 198908, Note_off_c, 2, 58, 0
6, 199296, Note_on_c, 2, 56, 90
6, 199676, Note_off_c, 2, 56, 0
6, 200064, Note_on_c, 2, 55, 90
6, 200444, Note_off_c, 2, 55, 0
6, 200832, Note_on_c, 2, 55, 90
6, 201212, Note_off_c, 2, 55, 0
6, 201216, Note_on_c, 2, 57, 85
6, 201404, Note_off_c, 2, 57, 0
6, 201408, Note_on_c, 2, 76, 85
6, 201788, Note_off_c, 2, 76, 0
6, 201792, Note_on_c, 2, 69, 85
6, 202172, Note_off_c, 2, 69, 0
6, 202176, Note_on_c, 2, 65, 85
6, 202556, Note_off_c, 2, 65, 0
6, 202560, Note_on_c, 2, 62, 85
6, 202940, Note_off_c, 2, 62, 0
6, 202944, Note_on_c, 2, 74, 85
6, 203324, Note_off_c, 2, 74, 0
6, 203328, Note_on_c, 2, 67, 85
6, 203708, Note_off_c, 2, 67, 0
6, 203712, Note_on_c, 2, 63, 85
6, 204092, Note_off_c, 2, 63, 0
6, 204096, Note_on_c, 2, 60, 85
6, 204476, Note_off_c, 2, 60, 0
6, 204480, Note_on_c, 2, 72, 85
6, 204860, Note_off_c, 2, 72, 0
6, 204864, Note_on_c, 2, 65, 85
6, 205244, Note_off_c, 2, 65, 0
6, 205248, Note_on_c, 2, 62, 85
6, 205628, Note_off_c, 2, 62, 0
6, 205632, Note_on_c, 2, 58, 85
6, 206012, Note_off_c, 2, 58, 0
6, 206016, Note_on_c, 2, 63, 85
6, 206396, Note_off_c, 2, 63, 0
6, 206400, Note_on_c, 2, 60, 85
6, 206588, Note_off_c, 2, 60, 0
6, 206592, Note_on_c, 2, 57, 85
6, 206780, Note_off_c, 2, 57, 0
6, 206784, Note_on_c, 2, 62, 85
6, 207164, Note_off_c, 2, 62, 0
6, 207168, Note_on_c, 2, 58, 85
6, 207356, Note_off_c, 2, 58, 0
6, 207360, Note_on_c, 2, 53, 85
6, 207548, Note_off_c, 2, 53, 0
6, 207552, Note_on_c, 2, 60, 85
6, 207932, Note_off_c, 2, 60, 0
6, 207936, Note_on_c, 2, 53, 85
6, 208124, Note_off_c, 2, 53, 0
6, 208128, Note_on_c, 2, 50, 85
6, 208508, Note_off_c, 2, 50, 0
6, 208704, Note_on_c, 2, 60, 85
6, 208892, Note_off_c, 2, 60, 0
6, 208896, Note_on_c, 2, 67, 100
6, 209276, Note_off_c, 2, 67, 0
6, 209472, Note_on_c, 2, 58, 100
6, 209564, Note_off_c, 2, 58, 0
6, 209568, Note_on_c, 2, 60, 100
6, 209660, Note_off_c, 2, 60, 0
6, 209664, Note_on_c, 2, 62, 100
6, 209852, Note_off_c, 2, 62, 0
6, 209856, Note_on_c, 2, 67, 100
6, 210044, Note_off_c, 2, 67, 0
6, 210048, Note_on_c, 2, 65, 100
6, 210236, Note_off_c, 2, 65, 0
6, 210240, Note_on_c, 2, 63, 100
6, 210428, Note_off_c, 2, 63, 0
6, 210432, Note_on_c, 2, 62, 85
6, 210524, Note_off_c, 2, 62, 0
6, 210528, Note_on_c, 2, 63, 85
6, 210620, Note_off_c, 2, 63, 0
6, 210624, Note_on_c, 2, 65, 85
6, 210752, Note_off_c, 2, 65, 0
6, 210816, Note_on_c, 2, 63, 85
6, 211004, Note_off_c, 2, 63, 0
6, 211008, Note_on_c, 2, 62, 85
6, 211196, Note_off_c, 2, 62, 0
6, 211200, Note_on_c, 2, 70, 85
6, 211388, Note_off_c, 2, 70, 0
6, 211392, Note_on_c, 2, 58, 85
6, 211580, Note_off_c, 2, 58, 0
6, 211584, Note_on_c, 2, 62, 85
6, 211772, Note_off_c, 2, 62, 0
6, 211776, Note_on_c, 2, 63, 85
6, 211964, Note_off_c, 2, 63, 0
6, 211968, Note_on_c, 2, 65, 85
6, 212348, Note_off_c, 2, 65, 0
6, 212544, Note_on_c, 2, 53, 85
6, 212732, Note_off_c, 2, 53, 0
6, 212736, Note_on_c, 2, 55, 85
6, 212924, Note_off_c, 2, 55, 0
6, 212928, Note_on_c, 2, 53, 85
6, 213056, Note_off_c, 2, 53, 0
6, 213120, Note_on_c, 2, 56, 85
6, 213308, Note_off_c, 2, 56, 0
6, 213312, Note_on_c, 2, 55, 85
6, 213440, Note_off_c, 2, 55, 0
6, 213504, Note_on_c, 2, 53, 85
6, 213884, Note_off_c, 2, 53, 0
6, 214464, Note_on_c, 2, 62, 100
6, 214592, Note_off_c, 2, 62, 0
6, 214656, Note_on_c, 2, 62, 100
6, 214784, Note_off_c, 2, 62, 0
6, 214848, Note_on_c, 2, 62, 100
6, 214976, Note_off_c, 2, 62, 0
6, 215040, Note_on_c, 2, 60, 100
6, 215420, Note_off_c, 2, 60, 0
6, 216768, Note_on_c, 2, 64, 100
6, 216896, Note_off_c, 2, 64, 0
6, 216960, Note_on_c, 2, 64, 100
6, 217088, Note_off_c, 2, 64, 0
6, 217152, Note_on_c, 2, 64, 100
6, 217280, Note_off_c, 2, 64, 0
6, 217344, Note_on_c, 2, 62, 100
6, 217724, Note_off_c, 2, 62, 0
6, 219072, Note_on_c, 2, 69, 100
6, 219200, Note_off_c, 2, 69, 0
6, 219264, Note_on_c, 2, 69, 100
6, 219392, Note_off_c, 2, 69, 0
6, 219456, Note_on_c, 2, 69, 100
6, 219584, Note_off_c, 2, 69, 0
6, 219648, Note_on_c, 2, 67, 100
6, 220028, Note_off_c, 2, 67, 0
6, 220224, Note_on_c, 2, 70, 85
6, 220412, Note_off_c, 2, 70, 0
6, 220416, Note_on_c, 2, 66, 85
6, 220796, Note_off_c, 2, 66, 0
6, 220992, Note_on_c, 2, 69, 85
6, 221180, Note_off_c, 2, 69, 0
6, 221184, Note_on_c, 2, 62, 85
6, 221564, Note_off_c, 2, 62, 0
6, 221760, Note_on_c, 2, 62, 85
6, 221948, Note_off_c, 2, 62, 0
6, 221952, Note_on_c, 2, 64, 85
6, 222332, Note_off_c, 2, 64, 0
6, 222528, Note_on_c, 2, 64, 85
6, 222716, Note_off_c, 2, 64, 0
6, 222720, Note_on_c, 2, 57, 85
6, 223100, Note_off_c, 2, 57, 0
6, 223680, Note_on_c, 2, 67, 85
6, 223868, Note_off_c, 2, 67, 0
6, 223872, Note_on_c, 2, 60, 85
6, 224060, Note_off_c, 2, 60, 0
6, 224064, Note_on_c, 2, 55, 85
6, 224252, Note_off_c, 2, 55, 0
6, 224256, Note_on_c, 2, 60, 85
6, 224636, Note_off_c, 2, 60, 0
6, 225216, Note_on_c, 2, 65, 85
6, 225404, Note_off_c, 2, 65, 0
6, 225408, Note_on_c, 2, 58, 85
6, 225596, Note_off_c, 2, 58, 0
6, 225600, Note_on_c, 2, 53, 85
6, 225788, Note_off_c, 2, 53, 0
6, 225792, Note_on_c, 2, 58, 85
6, 225980, Note_off_c, 2, 58, 0
6, 225984, Note_on_c, 2, 62, 85
6, 226172, Note_off_c, 2, 62, 0
6, 226176, Note_on_c, 2, 67, 85
6, 226364, Note_off_c, 2, 67, 0
6, 226368, Note_on_c, 2, 69, 85
6, 226556, Note_off_c, 2, 69, 0
6, 226560, Note_on_c, 2, 70, 85
6, 226748, Note_off_c, 2, 70, 0
6, 226752, Note_on_c, 2, 69, 85
6, 226940, Note_off_c, 2, 69, 0
6, 226944, Note_on_c, 2, 70, 85
6, 227132, Note_off_c, 2, 70, 0
6, 227136, Note_on_c, 2, 62, 85
6, 227324, Note_off_c, 2, 62, 0
6, 227328, Note_on_c, 2, 64, 85
6, 227516, Note_off_c, 2, 64, 0
6, 227520, Note_on_c, 2, 62, 85
6, 227708, Note_off_c, 2, 62, 0
6, 227712, Note_on_c, 2, 64, 85
6, 227900, Note_off_c, 2, 64, 0
6, 227904, Note_on_c, 2, 65, 85
6, 228092, Note_off_c, 2, 65, 0
6, 228096, Note_on_c, 2, 67, 85
6, 228284, Note_off_c, 2, 67, 0
6, 228288, Note_on_c, 2, 64, 85
6, 228476, Note_off_c, 2, 64, 0
6, 228480, Note_on_c, 2, 61, 85
6, 228668, Note_off_c, 2, 61, 0
6, 228672, Note_on_c, 2, 57, 85
6, 228860, Note_off_c, 2, 57, 0
6, 228864, Note_on_c, 2, 62, 85
6, 229052, Note_off_c, 2, 62, 0
6, 229440, Note_on_c, 2, 62, 85
6, 229628, Note_off_c, 2, 62, 0
6, 229632, Note_on_c, 2, 70, 85
6, 229820, Note_off_c, 2, 70, 0
6, 230016, Note_on_c, 2, 64, 85
6, 230204, Note_off_c, 2, 64, 0
6, 230400, Note_on_c, 2, 62, 85
6, 230588, Note_off_c, 2, 62, 0
6, 230976, Note_on_c, 2, 62, 85
6, 231164, Note_off_c, 2, 62, 0
6, 231168, Note_on_c, 2, 58, 85
6, 231356, Note_off_c, 2, 58, 0
6, 231552, Note_on_c, 2, 57, 85
6, 231740, Note_off_c, 2, 57, 0
6, 231936, Note_on_c, 2, 57, 85
6, 232124, Note_off_c, 2, 57, 0
6, 232128, Note_on_c, 2, 62, 85
6, 232268, Note_off_c, 2, 62, 0
6, 232320, Note_on_c, 2, 62, 85
6, 232460, Note_off_c, 2, 62, 0
6, 232512, Note_on_c, 2, 62, 85
6, 232652, Note_off_c, 2, 62, 0
6, 232704, Note_on_c, 2, 62, 85
6, 232844, Note_off_c, 2, 62, 0
6, 232896, Note_on_c, 2, 62, 85
6, 233036, Note_off_c, 2, 62, 0
6, 233088, Note_on_c, 2, 62, 85
6, 233228, Note_off_c, 2, 62, 0
6, 233280, Note_on_c, 2, 62, 85
6, 233420, Note_off_c, 2, 62, 0
6, 233472, Note_on_c, 2, 62, 85
6, 233612, Note_off_c, 2, 62, 0
6, 233664, Note_on_c, 2, 62, 85
6, 233804, Note_off_c, 2, 62, 0
6, 233856, Note_on_c, 2, 62, 85
6, 233996, Note_off_c, 2, 62, 0
6, 234048, Note_on_c, 2, 62, 85
6, 234188, Note_off_c, 2, 62, 0
6, 234240, Note_on_c, 2, 62, 85
6, 234380, Note_off_c, 2, 62, 0
6, 234432, Note_on_c, 2, 62, 85
6, 234572, Note_off_c, 2, 62, 0
6, 234624, Note_on_c, 2, 62, 85
6, 234764, Note_off_c, 2, 62, 0
6, 234816, Note_on_c, 2, 62, 85
6, 234956, Note_off_c, 2, 62, 0
6, 235008, Note_on_c, 2, 62, 85
6, 235148, Note_off_c, 2, 62, 0
6, 235200, Note_on_c, 2, 62, 85
6, 235340, Note_off_c, 2, 62, 0
6, 235392, Note_on_c, 2, 62, 85
6, 235532, Note_off_c, 2, 62, 0
6, 235584, Note_on_c, 2, 62, 85
6, 235724, Note_off_c, 2, 62, 0
6, 235776, Note_on_c, 2, 62, 85
6, 235916, Note_off_c, 2, 62, 0
6, 235968, Note_on_c, 2, 62, 85
6, 236108, Note_off_c, 2, 62, 0
6, 236160, Note_on_c, 2, 62, 85
6, 236300, Note_off_c, 2, 62, 0
6, 236352, Note_on_c, 2, 62, 85
6, 236492, Note_off_c, 2, 62, 0
6, 236544, Note_on_c, 2, 62, 85
6, 236684, Note_off_c, 2, 62, 0
6, 236736, Note_on_c, 2, 62, 85
6, 236876, Note_off_c, 2, 62, 0
6, 236928, Note_on_c, 2, 62, 85
6, 237068, Note_off_c, 2, 62, 0
6, 237120, Note_on_c, 2, 62, 85
6, 237260, Note_off_c, 2, 62, 0
6, 237312, Note_on_c, 2, 62, 85
6, 237452, Note_off_c, 2, 62, 0
6, 237504, Note_on_c, 2, 62, 85
6, 237644, Note_off_c, 2, 62, 0
6, 237696, Note_on_c, 2, 62, 85
6, 237836, Note_off_c, 2, 62, 0
6, 237888, Note_on_c, 2, 62, 85
6, 238028, Note_off_c, 2, 62, 0
6, 238080, Note_on_c, 2, 62, 85
6, 238460, Note_off_c, 2, 62, 0
6, 239616, Note_on_c, 2, 62, 85
6, 239996, Note_off_c, 2, 62, 0
6, 254016, Note_on_c, 2, 59, 85
6, 254148, Note_off_c, 2, 59, 0
6, 254208, Note_on_c, 2, 59, 85
6, 254340, Note_off_c, 2, 59, 0
6, 254784, Note_on_c, 2, 59, 85
6, 254916, Note_off_c, 2, 59, 0
6, 254976, Note_on_c, 2, 65, 85
6, 255108, Note_off_c, 2, 65, 0
6, 255552, Note_on_c, 2, 62, 85
6, 255684, Note_off_c, 2, 62, 0
6, 255744, Note_on_c, 2, 62, 85
6, 255876, Note_off_c, 2, 62, 0
6, 256320, Note_on_c, 2, 62, 85
6, 256452, Note_off_c, 2, 62, 0
6, 256512, Note_on_c, 2, 64, 85
6, 256644, Note_off_c, 2, 64, 0
6, 257088, Note_on_c, 2, 55, 85
6, 257220, Note_off_c, 2, 55, 0
6, 257280, Note_on_c, 2, 55, 85
6, 257412, Note_off_c, 2, 55, 0
6, 257856, Note_on_c, 2, 52, 85
6, 257988, Note_off_c, 2, 52, 0
6, 258048, Note_on_c, 2, 53, 85
6, 258180, Note_off_c, 2, 53, 0
6, 258624, Note_on_c, 2, 64, 85
6, 258756, Note_off_c, 2, 64, 0
6, 258816, Note_on_c, 2, 65, 85
6, 258948, Note_off_c, 2, 65, 0
6, 259392, Note_on_c, 2, 65, 85
6, 259524, Note_off_c, 2, 65, 0
6, 259584, Note_on_c, 2, 65, 85
6, 260348, Note_off_c, 2, 65, 0
6, 260352, Note_on_c, 2, 64, 85
6, 262652, Note_off_c, 2, 64, 0
6, 262656, Note_on_c, 2, 62, 85
6, 264188, Note_off_c, 2, 62, 0
6, 264192, Note_on_c, 2, 67, 85
6, 264956, Note_off_c, 2, 67, 0
6, 264960, Note_on_c, 2, 65, 85
6, 265724, Note_off_c, 2, 65, 0
6, 265728, Note_on_c, 2, 59, 85
6, 266492, Note_off_c, 2, 59, 0
6, 266496, Note_on_c, 2, 71, 85
6, 267260, Note_off_c, 2, 71, 0
6, 267264, Note_on_c, 2, 64, 85
6, 268028, Note_off_c, 2, 64, 0
6, 268032, Note_on_c, 2, 67, 85
6, 268796, Note_off_c, 2, 67, 0
6, 268800, Note_on_c, 2, 62, 100
6, 268896, Note_off_c, 2, 62, 0
6, 268896, Note_on_c, 2, 64, 100
6, 268992, Note_off_c, 2, 64, 0
6, 268992, Note_on_c, 2, 65, 100
6, 269120, Note_off_c, 2, 65, 0
6, 269184, Note_on_c, 2, 64, 100
6, 269376, Note_off_c, 2, 64, 0
6, 269376, Note_on_c, 2, 62, 100
6, 269568, Note_off_c, 2, 62, 0
6, 269568, Note_on_c, 2, 69, 100
6, 269760, Note_off_c, 2, 69, 0
6, 269760, Note_on_c, 2, 74, 100
6, 270144, Note_off_c, 2, 74, 0
6, 270144, Note_on_c, 2, 69, 100
6, 270336, Note_off_c, 2, 69, 0
6, 270336, Note_on_c, 2, 70, 100
6, 270524, Note_off_c, 2, 70, 0
6, 270528, Note_on_c, 2, 67, 100
6, 270620, Note_off_c, 2, 67, 0
6, 270624, Note_on_c, 2, 64, 100
6, 270716, Note_off_c, 2, 64, 0
6, 270720, Note_on_c, 2, 69, 100
6, 270908, Note_off_c, 2, 69, 0
6, 270912, Note_on_c, 2, 65, 100
6, 271004, Note_off_c, 2, 65, 0
6, 271008, Note_on_c, 2, 62, 100
6, 271100, Note_off_c, 2, 62, 0
6, 271104, Note_on_c, 2, 67, 100
6, 271292, Note_off_c, 2, 67, 0
6, 271296, Note_on_c, 2, 64, 100
6, 271388, Note_off_c, 2, 64, 0
6, 271392, Note_on_c, 2, 61, 100
6, 271484, Note_off_c, 2, 61, 0
6, 271488, Note_on_c, 2, 57, 100
6, 271616, Note_off_c, 2, 57, 0
6, 271680, Note_on_c, 2, 67, 85
6, 271832, Note_off_c, 2, 67, 0
6, 271872, Note_on_c, 2, 67, 85
6, 272024, Note_off_c, 2, 67, 0
6, 272064, Note_on_c, 2, 67, 85
6, 272216, Note_off_c, 2, 67, 0
6, 272256, Note_on_c, 2, 67, 85
6, 272408, Note_off_c, 2, 67, 0
6, 272448, Note_on_c, 2, 67, 85
6, 272600, Note_off_c, 2, 67, 0
6, 272640, Note_on_c, 2, 67, 85
6, 272792, Note_off_c, 2, 67, 0
6, 272832, Note_on_c, 2, 67, 85
6, 272984, Note_off_c, 2, 67, 0
6, 273024, Note_on_c, 2, 69, 85
6, 273176, Note_off_c, 2, 69, 0
6, 273216, Note_on_c, 2, 69, 85
6, 273368, Note_off_c, 2, 69, 0
6, 273408, Note_on_c, 2, 69, 85
6, 273788, Note_off_c, 2, 69, 0
6, 273792, Note_on_c, 2, 62, 85
6, 274172, Note_off_c, 2, 62, 0
6, 274560, Note_on_c, 2, 62, 85
6, 274940, Note_off_c, 2, 62, 0
6, 274944, Note_on_c, 2, 60, 85
6, 275096, Note_off_c, 2, 60, 0
6, 275136, Note_on_c, 2, 60, 85
6, 275288, Note_off_c, 2, 60, 0
6, 275328, Note_on_c, 2, 60, 85
6, 275480, Note_off_c, 2, 60, 0
6, 275520, Note_on_c, 2, 60, 85
6, 275672, Note_off_c, 2, 60, 0
6, 275712, Note_on_c, 2, 60, 85
6, 275864, Note_off_c, 2, 60, 0
6, 275904, Note_on_c, 2, 60, 85
6, 276056, Note_off_c, 2, 60, 0
6, 276096, Note_on_c, 2, 62, 85
6, 276248, Note_off_c, 2, 62, 0
6, 276288, Note_on_c, 2, 62, 85
6, 276440, Note_off_c, 2, 62, 0
6, 276480, Note_on_c, 2, 62, 85
6, 276860, Note_off_c, 2, 62, 0
6, 276864, Note_on_c, 2, 55, 85
6, 277244, Note_off_c, 2, 55, 0
6, 277632, Note_on_c, 2, 55, 85
6, 278012, Note_off_c, 2, 55, 0
6, 278016, Note_on_c, 2, 62, 85
6, 278188, Note_off_c, 2, 62, 0
6, 278208, Note_on_c, 2, 62, 85
6, 278380, Note_off_c, 2, 62, 0
6, 278400, Note_on_c, 2, 62, 85
6, 278572, Note_off_c, 2, 62, 0
6, 278592, Note_on_c, 2, 62, 85
6, 278764, Note_off_c, 2, 62, 0
6, 278784, Note_on_c, 2, 62, 85
6, 278956, Note_off_c, 2, 62, 0
6, 278976, Note_on_c, 2, 62, 85
6, 279148, Note_off_c, 2, 62, 0
6, 279168, Note_on_c, 2, 64, 85
6, 279340, Note_off_c, 2, 64, 0
6, 279360, Note_on_c, 2, 64, 85
6, 279532, Note_off_c, 2, 64, 0
6, 279552, Note_on_c, 2, 64, 85
6, 279724, Note_off_c, 2, 64, 0
6, 279744, Note_on_c, 2, 64, 85
6, 279916, Note_off_c, 2, 64, 0
6, 279936, Note_on_c, 2, 67, 85
6, 280108, Note_off_c, 2, 67, 0
6, 280128, Note_on_c, 2, 67, 85
6, 280300, Note_off_c, 2, 67, 0
6, 280320, Note_on_c, 2, 67, 85
6, 280492, Note_off_c, 2, 67, 0
6, 280512, Note_on_c, 2, 67, 85
6, 280684, Note_off_c, 2, 67, 0
6, 280704, Note_on_c, 2, 69, 85
6, 280876, Note_off_c, 2, 69, 0
6, 280896, Note_on_c, 2, 69, 85
6, 281068, Note_off_c, 2, 69, 0
6, 281088, Note_on_c, 2, 69, 85
6, 281376, Note_off_c, 2, 69, 0
6, 281472, Note_on_c, 2, 62, 85
6, 281760, Note_off_c, 2, 62, 0
6, 282240, Note_on_c, 2, 60, 85
6, 282528, Note_off_c, 2, 60, 0
6, 283008, Note_on_c, 2, 58, 85
6, 283296, Note_off_c, 2, 58, 0
6, 283776, Note_on_c, 2, 57, 85
6, 284064, Note_off_c, 2, 57, 0
6, 284544, Note_on_c, 2, 55, 85
6, 284924, Note_off_c, 2, 55, 0
6, 285312, Note_on_c, 2, 52, 85
6, 285500, Note_off_c, 2, 52, 0
6, 285504, Note_on_c, 2, 61, 85
6, 285692, Note_off_c, 2, 61, 0
6, 285696, Note_on_c, 2, 62, 85
6, 285884, Note_off_c, 2, 62, 0
6, 287232, Note_on_c, 2, 62, 100
6, 287328, Note_off_c, 2, 62, 0
6, 287328, Note_on_c, 2, 64, 100
6, 287424, Note_off_c, 2, 64, 0
6, 287424, Note_on_c, 2, 65, 100
6, 287552, Note_off_c, 2, 65, 0
6, 287616, Note_on_c, 2, 64, 100
6, 287808, Note_off_c, 2, 64, 0
6, 287808, Note_on_c, 2, 62, 100
6, 288000, Note_off_c, 2, 62, 0
6, 288000, Note_on_c, 2, 69, 100
6, 288192, Note_off_c, 2, 69, 0
6, 288192, Note_on_c, 2, 74, 100
6, 288576, Note_off_c, 2, 74, 0
6, 288576, Note_on_c, 2, 69, 100
6, 288768, Note_off_c, 2, 69, 0
6, 288768, Note_on_c, 2, 70, 100
6, 288956, Note_off_c, 2, 70, 0
6, 288960, Note_on_c, 2, 67, 100
6, 289052, Note_off_c, 2, 67, 0
6, 289056, Note_on_c, 2, 64, 100
6, 289148, Note_off_c, 2, 64, 0
6, 289152, Note_on_c, 2, 69, 100
6, 289340, Note_off_c, 2, 69, 0
6, 289344, Note_on_c, 2, 65, 100
6, 289436, Note_off_c, 2, 65, 0
6, 289440, Note_on_c, 2, 62, 100
6, 289532, Note_off_c, 2, 62, 0
6, 289536, Note_on_c, 2, 67, 100
6, 289724, Note_off_c, 2, 67, 0
6, 289728, Note_on_c, 2, 64, 100
6, 289820, Note_off_c, 2, 64, 0
6, 289824, Note_on_c, 2, 61, 100
6, 289916, Note_off_c, 2, 61, 0
6, 289920, Note_on_c, 2, 57, 100
6, 290048, Note_off_c, 2, 57, 0
6, 290112, Note_on_c, 2, 70, 100
6, 290492, Note_off_c, 2, 70, 0
6, 290496, Note_on_c, 2, 67, 100
6, 290588, Note_off_c, 2, 67, 0
6, 290592, Note_on_c, 2, 64, 100
6, 290684, Note_off_c, 2, 64, 0
6, 290688, Note_on_c, 2, 57, 100
6, 290816, Note_off_c, 2, 57, 0
6, 290880, Note_on_c, 2, 73, 100
6, 291260, Note_off_c, 2, 73, 0
6, 291264, Note_on_c, 2, 70, 100
6, 291356, Note_off_c, 2, 70, 0
6, 291360, Note_on_c, 2, 67, 100
6, 291452, Note_off_c, 2, 67, 0
6, 291456, Note_on_c, 2, 57, 100
6, 291584, Note_off_c, 2, 57, 0
6, 291648, Note_on_c, 2, 76, 100
6, 292028, Note_off_c, 2, 76, 0
6, 292032, Note_on_c, 2, 73, 100
6, 292124, Note_off_c, 2, 73, 0
6, 292128, Note_on_c, 2, 69, 100
6, 292220, Note_off_c, 2, 69, 0
6, 292224, Note_on_c, 2, 70, 100
6, 292316, Note_off_c, 2, 70, 0
6, 292320, Note_on_c, 2, 67, 100
6, 292412, Note_off_c, 2, 67, 0
6, 292416, Note_on_c, 2, 69, 100
6, 292508, Note_off_c, 2, 69, 0
6, 292512, Note_on_c, 2, 65, 100
6, 292604, Note_off_c, 2, 65, 0
6, 292608, Note_on_c, 2, 67, 100
6, 292700, Note_off_c, 2, 67, 0
6, 292704, Note_on_c, 2, 64, 100
6, 292796, Note_off_c, 2, 64, 0
6, 292800, Note_on_c, 2, 65, 100
6, 292892, Note_off_c, 2, 65, 0
6, 292896, Note_on_c, 2, 62, 100
6, 292988, Note_off_c, 2, 62, 0
6, 292992, Note_on_c, 2, 64, 100
6, 293084, Note_off_c, 2, 64, 0
6, 293088, Note_on_c, 2, 61, 100
6, 293180, Note_off_c, 2, 61, 0
6, 293184, Note_on_c, 2, 62, 100
6, 293276, Note_off_c, 2, 62, 0
6, 293280, Note_on_c, 2, 59, 100
6, 293372, Note_off_c, 2, 59, 0
6, 293376, Note_on_c, 2, 61, 100
6, 293468, Note_off_c, 2, 61, 0
6, 293472, Note_on_c, 2, 57, 100
6, 293564, Note_off_c, 2, 57, 0
6, 293568, Note_on_c, 2, 59, 100
6, 293660, Note_off_c, 2, 59, 0
6, 293664, Note_on_c, 2, 61, 100
6, 293756, Note_off_c, 2, 61, 0
6, 293760, Note_on_c, 2, 62, 100
6, 293852, Note_off_c, 2, 62, 0
6, 293856, Note_on_c, 2, 64, 100
6, 293948, Note_off_c, 2, 64, 0
6, 293952, Note_on_c, 2, 65, 100
6, 294044, Note_off_c, 2, 65, 0
6, 294048, Note_on_c, 2, 67, 100
6, 294140, Note_off_c, 2, 67, 0
6, 294144, Note_on_c, 2, 69, 100
6, 294236, Note_off_c, 2, 69, 0
6, 294240, Note_on_c, 2, 70, 100
6, 294332, Note_off_c, 2, 70, 0
6, 294336, Note_on_c, 2, 72, 100
6, 294464, Note_off_c, 2, 72, 0
6, 294528, Note_on_c, 2, 72, 100
6, 294620, Note_off_c, 2, 72, 0
6, 294624, Note_on_c, 2, 74, 100
6, 294716, Note_off_c, 2, 74, 0
6, 294720, Note_on_c, 2, 75, 100
6, 294848, Note_off_c, 2, 75, 0
6, 294912, Note_on_c, 2, 66, 100
6, 295020, Note_off_c, 2, 66, 0
6, 295104, Note_on_c, 2, 67, 100
6, 295212, Note_off_c, 2, 67, 0
6, 295296, Note_on_c, 2, 61, 100
6, 295404, Note_off_c, 2, 61, 0
6, 295488, Note_on_c, 2, 62, 100
6, 295596, Note_off_c, 2, 62, 0
6, 295680, Note_on_c, 2, 56, 100
6, 295868, Note_off_c, 2, 56, 0
6, 296064, Note_on_c, 2, 57, 100
6, 296252, Note_off_c, 2, 57, 0
6, 296448, Note_on_c, 2, 50, 100
6, 297212, Note_off_c, 2, 50, 0
6, 297212, End_track
7, 0, Start_track
7, 0, Title_t, "Cello"
7, 0, Control_c, 3, 0, 0
7, 0, Program_c, 3, 43
7, 0, Control_c, 3, 7, 79
7, 0, Control_c, 3, 10, 32
7, 0, Control_c, 3, 93, 14
7, 0, Key_signature, -1, "minor"
7, 0, Note_on_c, 3, 50, 100
7, 96, Note_off_c, 3, 50, 0
7, 96, Note_on_c, 3, 52, 100
7, 192, Note_off_c, 3, 52, 0
7, 192, Note_on_c, 3, 53, 100
7, 320, Note_off_c, 3, 53, 0
7, 384, Note_on_c, 3, 52, 100
7, 576, Note_off_c, 3, 52, 0
7, 576, Note_on_c, 3, 50, 100
7, 768, Note_off_c, 3, 50, 0
7, 768, Note_on_c, 3, 57, 100
7, 960, Note_off_c, 3, 57, 0
7, 960, Note_on_c, 3, 62, 100
7, 1344, Note_off_c, 3, 62, 0
7, 1344, Note_on_c, 3, 57, 100
7, 1536, Note_off_c, 3, 57, 0
7, 1536, Note_on_c, 3, 58, 100
7, 1724, Note_off_c, 3, 58, 0
7, 1728, Note_on_c, 3, 55, 100
7, 1820, Note_off_c, 3, 55, 0
7, 1824, Note_on_c, 3, 52, 100
7, 1916, Note_off_c, 3, 52, 0
7, 1920, Note_on_c, 3, 57, 100
7, 2108, Note_off_c, 3, 57, 0
7, 2112, Note_on_c, 3, 53, 100
7, 2204, Note_off_c, 3, 53, 0
7, 2208, Note_on_c, 3, 50, 100
7, 2300, Note_off_c, 3, 50, 0
7, 2304, Note_on_c, 3, 55, 100
7, 2492, Note_off_c, 3, 55, 0
7, 2496, Note_on_c, 3, 52, 100
7, 2588, Note_off_c, 3, 52, 0
7, 2592, Note_on_c, 3, 49, 100
7, 2684, Note_off_c, 3, 49, 0
7, 2688, Note_on_c, 3, 45, 100
7, 2816, Note_off_c, 3, 45, 0
7, 2880, Note_on_c, 3, 58, 100
7, 3260, Note_off_c, 3, 58, 0
7, 3264, Note_on_c, 3, 55, 100
7, 3356, Note_off_c, 3, 55, 0
7, 3360, Note_on_c, 3, 52, 100
7, 3452, Note_off_c, 3, 52, 0
7, 3456, Note_on_c, 3, 45, 100
7, 3584, Note_off_c, 3, 45, 0
7, 3648, Note_on_c, 3, 61, 100
7, 4028, Note_off_c, 3, 61, 0
7, 4032, Note_on_c, 3, 58, 100
7, 4124, Note_off_c, 3, 58, 0
7, 4128, Note_on_c, 3, 55, 100
7, 4220, Note_off_c, 3, 55, 0
7, 4224, Note_on_c, 3, 45, 100
7, 4352, Note_off_c, 3, 45, 0
7, 4416, Note_on_c, 3, 64, 100
7, 4796, Note_off_c, 3, 64, 0
7, 4800, Note_on_c, 3, 61, 100
7, 4892, Note_off_c, 3, 61, 0
7, 4896, Note_on_c, 3, 57, 100
7, 4988, Note_off_c, 3, 57, 0
7, 4992, Note_on_c, 3, 58, 100
7, 5084, Note_off_c, 3, 58, 0
7, 5088, Note_on_c, 3, 55, 100
7, 5180, Note_off_c, 3, 55, 0
7, 5184, Note_on_c, 3, 57, 100
7, 5276, Note_off_c, 3, 57, 0
7, 5280, Note_on_c, 3, 53, 100
7, 5372, Note_off_c, 3, 53, 0
7, 5376, Note_on_c, 3, 55, 100
7, 5468, Note_off_c, 3, 55, 0
7, 5472, Note_on_c, 3, 52, 100
7, 5564, Note_off_c, 3, 52, 0
7, 5568, Note_on_c, 3, 53, 100
7, 5660, Note_off_c, 3, 53, 0
7, 5664, Note_on_c, 3, 50, 100
7, 5756, Note_off_c, 3, 50, 0
7, 5760, Note_on_c, 3, 52, 100
7, 5852, Note_off_c, 3, 52, 0
7, 5856, Note_on_c, 3, 49, 100
7, 5948, Note_off_c, 3, 49, 0
7, 5952, Note_on_c, 3, 50, 100
7, 6044, Note_off_c, 3, 50, 0
7, 6048, Note_on_c, 3, 47, 100
7, 6140, Note_off_c, 3, 47, 0
7, 6144, Note_on_c, 3, 49, 100
7, 6236, Note_off_c, 3, 49, 0
7, 6240, Note_on_c, 3, 45, 100
7, 6332, Note_off_c, 3, 45, 0
7, 6336, Note_on_c, 3, 47, 100
7, 6428, Note_off_c, 3, 47, 0
7, 6432, Note_on_c, 3, 49, 100
7, 6524, Note_off_c, 3, 49, 0
7, 6528, Note_on_c, 3, 50, 100
7, 6620, Note_off_c, 3, 50, 0
7, 6624, Note_on_c, 3, 52, 100
7, 6716, Note_off_c, 3, 52, 0
7, 6720, Note_on_c, 3, 53, 100
7, 6812, Note_off_c, 3, 53, 0
7, 6816, Note_on_c, 3, 55, 100
7, 6908, Note_off_c, 3, 55, 0
7, 6912, Note_on_c, 3, 57, 100
7, 7004, Note_off_c, 3, 57, 0
7, 7008, Note_on_c, 3, 58, 100
7, 7100, Note_off_c, 3, 58, 0
7, 7104, Note_on_c, 3, 60, 100
7, 7232, Note_off_c, 3, 60, 0
7, 7296, Note_on_c, 3, 60, 100
7, 7388, Note_off_c, 3, 60, 0
7, 7392, Note_on_c, 3, 62, 100
7, 7484, Note_off_c, 3, 62, 0
7, 7488, Note_on_c, 3, 63, 100
7, 7616, Note_off_c, 3, 63, 0
7, 7680, Note_on_c, 3, 54, 100
7, 7788, Note_off_c, 3, 54, 0
7, 7872, Note_on_c, 3, 55, 100
7, 7980, Note_off_c, 3, 55, 0
7, 8064, Note_on_c, 3, 49, 100
7, 8172, Note_off_c, 3, 49, 0
7, 8256, Note_on_c, 3, 50, 100
7, 8364, Note_off_c, 3, 50, 0
7, 8448, Note_on_c, 3, 44, 100
7, 8636, Note_off_c, 3, 44, 0
7, 8832, Note_on_c, 3, 45, 100
7, 9020, Note_off_c, 3, 45, 0
7, 9216, Note_on_c, 3, 38, 85
7, 9596, Note_off_c, 3, 38, 0
7, 11520, Note_on_c, 3, 38, 85
7, 11900, Note_off_c, 3, 38, 0
7, 13824, Note_on_c, 3, 38, 85
7, 14204, Note_off_c, 3, 38, 0
7, 16128, Note_on_c, 3, 38, 85
7, 16508, Note_off_c, 3, 38, 0
7, 18432, Note_on_c, 3, 38, 100
7, 18816, Note_off_c, 3, 38, 0
7, 19200, Note_on_c, 3, 50, 100
7, 19296, Note_off_c, 3, 50, 0
7, 19296, Note_on_c, 3, 52, 100
7, 19392, Note_off_c, 3, 52, 0
7, 19392, Note_on_c, 3, 53, 100
7, 19520, Note_off_c, 3, 53, 0
7, 19584, Note_on_c, 3, 52, 100
7, 19776, Note_off_c, 3, 52, 0
7, 19776, Note_on_c, 3, 50, 100
7, 19968, Note_off_c, 3, 50, 0
7, 19968, Note_on_c, 3, 55, 100
7, 20160, Note_off_c, 3, 55, 0
7, 20352, Note_on_c, 3, 53, 100
7, 20544, Note_off_c, 3, 53, 0
7, 20736, Note_on_c, 3, 52, 100
7, 20928, Note_off_c, 3, 52, 0
7, 21120, Note_on_c, 3, 50, 100
7, 21312, Note_off_c, 3, 50, 0
7, 21504, Note_on_c, 3, 49, 100
7, 21696, Note_off_c, 3, 49, 0
7, 21888, Note_on_c, 3, 50, 100
7, 22080, Note_off_c, 3, 50, 0
7, 22272, Note_on_c, 3, 52, 100
7, 22464, Note_off_c, 3, 52, 0
7, 22656, Note_on_c, 3, 53, 100
7, 22848, Note_off_c, 3, 53, 0
7, 23040, Note_on_c, 3, 55, 100
7, 23232, Note_off_c, 3, 55, 0
7, 23232, Note_on_c, 3, 55, 100
7, 23424, Note_off_c, 3, 55, 0
7, 23424, Note_on_c, 3, 55, 100
7, 23616, Note_off_c, 3, 55, 0
7, 23616, Note_on_c, 3, 55, 100
7, 23808, Note_off_c, 3, 55, 0
7, 23808, Note_on_c, 3, 55, 100
7, 24000, Note_off_c, 3, 55, 0
7, 24000, Note_on_c, 3, 55, 100
7, 24192, Note_off_c, 3, 55, 0
7, 24192, Note_on_c, 3, 55, 100
7, 24384, Note_off_c, 3, 55, 0
7, 24384, Note_on_c, 3, 55, 100
7, 24576, Note_off_c, 3, 55, 0
7, 24576, Note_on_c, 3, 55, 100
7, 24956, Note_off_c, 3, 55, 0
7, 25344, Note_on_c, 3, 54, 100
7, 25436, Note_off_c, 3, 54, 0
7, 25440, Note_on_c, 3, 55, 100
7, 25532, Note_off_c, 3, 55, 0
7, 25536, Note_on_c, 3, 57, 100
7, 25664, Note_off_c, 3, 57, 0
7, 25728, Note_on_c, 3, 57, 100
7, 25820, Note_off_c, 3, 57, 0
7, 25824, Note_on_c, 3, 58, 100
7, 25916, Note_off_c, 3, 58, 0
7, 25920, Note_on_c, 3, 60, 100
7, 26048, Note_off_c, 3, 60, 0
7, 26112, Note_on_c, 3, 60, 100
7, 26300, Note_off_c, 3, 60, 0
7, 26304, Note_on_c, 3, 59, 100
7, 26432, Note_off_c, 3, 59, 0
7, 26496, Note_on_c, 3, 58, 100
7, 26684, Note_off_c, 3, 58, 0
7, 26688, Note_on_c, 3, 57, 100
7, 26816, Note_off_c, 3, 57, 0
7, 26880, Note_on_c, 3, 57, 100
7, 27068, Note_off_c, 3, 57, 0
7, 27072, Note_on_c, 3, 56, 100
7, 27200, Note_off_c, 3, 56, 0
7, 27264, Note_on_c, 3, 55, 100
7, 27452, Note_off_c, 3, 55, 0
7, 27456, Note_on_c, 3, 53, 100
7, 27584, Note_off_c, 3, 53, 0
7, 27648, Note_on_c, 3, 44, 100
7, 27836, Note_off_c, 3, 44, 0
7, 27840, Note_on_c, 3, 45, 100
7, 28028, Note_off_c, 3, 45, 0
7, 28032, Note_on_c, 3, 45, 100
7, 28220, Note_off_c, 3, 45, 0
7, 28224, Note_on_c, 3, 47, 100
7, 28412, Note_off_c, 3, 47, 0
7, 28416, Note_on_c, 3, 47, 100
7, 28604, Note_off_c, 3, 47, 0
7, 28608, Note_on_c, 3, 48, 100
7, 28796, Note_off_c, 3, 48, 0
7, 28800, Note_on_c, 3, 48, 100
7, 28988, Note_off_c, 3, 48, 0
7, 28992, Note_on_c, 3, 50, 100
7, 29180, Note_off_c, 3, 50, 0
7, 29184, Note_on_c, 3, 50, 100
7, 29564, Note_off_c, 3, 50, 0
7, 29952, Note_on_c, 3, 49, 100
7, 30044, Note_off_c, 3, 49, 0
7, 30048, Note_on_c, 3, 50, 100
7, 30140, Note_off_c, 3, 50, 0
7, 30144, Note_on_c, 3, 52, 100
7, 30272, Note_off_c, 3, 52, 0
7, 30336, Note_on_c, 3, 52, 100
7, 30428, Note_off_c, 3, 52, 0
7, 30432, Note_on_c, 3, 53, 100
7, 30524, Note_off_c, 3, 53, 0
7, 30528, Note_on_c, 3, 55, 100
7, 30656, Note_off_c, 3, 55, 0
7, 30720, Note_on_c, 3, 55, 100
7, 30908, Note_off_c, 3, 55, 0
7, 30912, Note_on_c, 3, 53, 100
7, 31020, Note_off_c, 3, 53, 0
7, 31104, Note_on_c, 3, 53, 100
7, 31292, Note_off_c, 3, 53, 0
7, 31296, Note_on_c, 3, 52, 100
7, 31404, Note_off_c, 3, 52, 0
7, 31488, Note_on_c, 3, 51, 100
7, 31680, Note_off_c, 3, 51, 0
7, 31872, Note_on_c, 3, 52, 100
7, 32064, Note_off_c, 3, 52, 0
7, 32256, Note_on_c, 3, 45, 100
7, 32640, Note_off_c, 3, 45, 0
7, 34560, Note_on_c, 3, 45, 85
7, 34944, Note_off_c, 3, 45, 0
7, 36864, Note_on_c, 3, 45, 85
7, 37248, Note_off_c, 3, 45, 0
7, 39168, Note_on_c, 3, 45, 85
7, 39552, Note_off_c, 3, 45, 0
7, 41472, Note_on_c, 3, 57, 85
7, 41664, Note_off_c, 3, 57, 0
7, 41664, Note_on_c, 3, 57, 85
7, 41856, Note_off_c, 3, 57, 0
7, 41856, Note_on_c, 3, 57, 85
7, 42048, Note_off_c, 3, 57, 0
7, 42048, Note_on_c, 3, 57, 85
7, 42240, Note_off_c, 3, 57, 0
7, 42240, Note_on_c, 3, 55, 85
7, 42432, Note_off_c, 3, 55, 0
7, 42432, Note_on_c, 3, 55, 85
7, 42624, Note_off_c, 3, 55, 0
7, 42624, Note_on_c, 3, 55, 85
7, 42816, Note_off_c, 3, 55, 0
7, 42816, Note_on_c, 3, 55, 85
7, 43008, Note_off_c, 3, 55, 0
7, 43008, Note_on_c, 3, 53, 85
7, 43200, Note_off_c, 3, 53, 0
7, 43200, Note_on_c, 3, 53, 85
7, 43392, Note_off_c, 3, 53, 0
7, 43392, Note_on_c, 3, 53, 85
7, 43584, Note_off_c, 3, 53, 0
7, 43584, Note_on_c, 3, 53, 85
7, 43776, Note_off_c, 3, 53, 0
7, 43776, Note_on_c, 3, 54, 85
7, 43968, Note_off_c, 3, 54, 0
7, 43968, Note_on_c, 3, 54, 85
7, 44160, Note_off_c, 3, 54, 0
7, 44160, Note_on_c, 3, 54, 85
7, 44352, Note_off_c, 3, 54, 0
7, 44352, Note_on_c, 3, 54, 85
7, 44544, Note_off_c, 3, 54, 0
7, 44544, Note_on_c, 3, 55, 85
7, 44736, Note_off_c, 3, 55, 0
7, 44736, Note_on_c, 3, 55, 85
7, 44928, Note_off_c, 3, 55, 0
7, 44928, Note_on_c, 3, 55, 85
7, 45120, Note_off_c, 3, 55, 0
7, 45120, Note_on_c, 3, 55, 85
7, 45312, Note_off_c, 3, 55, 0
7, 45312, Note_on_c, 3, 53, 85
7, 45504, Note_off_c, 3, 53, 0
7, 45504, Note_on_c, 3, 53, 85
7, 45696, Note_off_c, 3, 53, 0
7, 45696, Note_on_c, 3, 53, 85
7, 45888, Note_off_c, 3, 53, 0
7, 45888, Note_on_c, 3, 53, 85
7, 46080, Note_off_c, 3, 53, 0
7, 46080, Note_on_c, 3, 52, 85
7, 46272, Note_off_c, 3, 52, 0
7, 46272, Note_on_c, 3, 52, 85
7, 46464, Note_off_c, 3, 52, 0
7, 46464, Note_on_c, 3, 52, 85
7, 46656, Note_off_c, 3, 52, 0
7, 46656, Note_on_c, 3, 52, 85
7, 46848, Note_off_c, 3, 52, 0
7, 46848, Note_on_c, 3, 52, 85
7, 47040, Note_off_c, 3, 52, 0
7, 47040, Note_on_c, 3, 52, 85
7, 47232, Note_off_c, 3, 52, 0
7, 47232, Note_on_c, 3, 52, 85
7, 47424, Note_off_c, 3, 52, 0
7, 47424, Note_on_c, 3, 52, 85
7, 47616, Note_off_c, 3, 52, 0
7, 47616, Note_on_c, 3, 53, 85
7, 47808, Note_off_c, 3, 53, 0
7, 47808, Note_on_c, 3, 53, 85
7, 48000, Note_off_c, 3, 53, 0
7, 48000, Note_on_c, 3, 53, 85
7, 48192, Note_off_c, 3, 53, 0
7, 48192, Note_on_c, 3, 53, 85
7, 48384, Note_off_c, 3, 53, 0
7, 48384, Note_on_c, 3, 51, 85
7, 48576, Note_off_c, 3, 51, 0
7, 48576, Note_on_c, 3, 51, 85
7, 48768, Note_off_c, 3, 51, 0
7, 48768, Note_on_c, 3, 51, 85
7, 48960, Note_off_c, 3, 51, 0
7, 48960, Note_on_c, 3, 51, 85
7, 49152, Note_off_c, 3, 51, 0
7, 49152, Note_on_c, 3, 50, 85
7, 49344, Note_off_c, 3, 50, 0
7, 49344, Note_on_c, 3, 50, 85
7, 49536, Note_off_c, 3, 50, 0
7, 49536, Note_on_c, 3, 50, 85
7, 49728, Note_off_c, 3, 50, 0
7, 49728, Note_on_c, 3, 50, 85
7, 49920, Note_off_c, 3, 50, 0
7, 49920, Note_on_c, 3, 50, 85
7, 50112, Note_off_c, 3, 50, 0
7, 50112, Note_on_c, 3, 50, 85
7, 50304, Note_off_c, 3, 50, 0
7, 50304, Note_on_c, 3, 50, 85
7, 50496, Note_off_c, 3, 50, 0
7, 50496, Note_on_c, 3, 50, 85
7, 50688, Note_off_c, 3, 50, 0
7, 50688, Note_on_c, 3, 50, 85
7, 51072, Note_off_c, 3, 50, 0
7, 51456, Note_on_c, 3, 48, 85
7, 51840, Note_off_c, 3, 48, 0
7, 52224, Note_on_c, 3, 48, 85
7, 52608, Note_off_c, 3, 48, 0
7, 52992, Note_on_c, 3, 46, 85
7, 53376, Note_off_c, 3, 46, 0
7, 53760, Note_on_c, 3, 46, 85
7, 54144, Note_off_c, 3, 46, 0
7, 54528, Note_on_c, 3, 45, 85
7, 54912, Note_off_c, 3, 45, 0
7, 54912, Note_on_c, 3, 57, 85
7, 55680, Note_off_c, 3, 57, 0
7, 55680, Note_on_c, 3, 55, 85
7, 56448, Note_off_c, 3, 55, 0
7, 56448, Note_on_c, 3, 53, 85
7, 57216, Note_off_c, 3, 53, 0
7, 57216, Note_on_c, 3, 52, 85
7, 57600, Note_off_c, 3, 52, 0
7, 57600, Note_on_c, 3, 53, 85
7, 57984, Note_off_c, 3, 53, 0
7, 58176, Note_on_c, 3, 52, 100
7, 58368, Note_off_c, 3, 52, 0
7, 58368, Note_on_c, 3, 50, 100
7, 58752, Note_off_c, 3, 50, 0
7, 58944, Note_on_c, 3, 48, 100
7, 59036, Note_off_c, 3, 48, 0
7, 59040, Note_on_c, 3, 46, 100
7, 59132, Note_off_c, 3, 46, 0
7, 59136, Note_on_c, 3, 45, 100
7, 59244, Note_off_c, 3, 45, 0
7, 59328, Note_on_c, 3, 46, 100
7, 59436, Note_off_c, 3, 46, 0
7, 59520, Note_on_c, 3, 48, 100
7, 59628, Note_off_c, 3, 48, 0
7, 59712, Note_on_c, 3, 36, 100
7, 59820, Note_off_c, 3, 36, 0
7, 59904, Note_on_c, 3, 41, 85
7, 60092, Note_off_c, 3, 41, 0
7, 60096, Note_on_c, 3, 41, 85
7, 60284, Note_off_c, 3, 41, 0
7, 60288, Note_on_c, 3, 41, 85
7, 60476, Note_off_c, 3, 41, 0
7, 60480, Note_on_c, 3, 41, 85
7, 60668, Note_off_c, 3, 41, 0
7, 60672, Note_on_c, 3, 41, 85
7, 60860, Note_off_c, 3, 41, 0
7, 60864, Note_on_c, 3, 41, 85
7, 61052, Note_off_c, 3, 41, 0
7, 61056, Note_on_c, 3, 41, 85
7, 61244, Note_off_c, 3, 41, 0
7, 61248, Note_on_c, 3, 41, 85
7, 61436, Note_off_c, 3, 41, 0
7, 61440, Note_on_c, 3, 41, 85
7, 61628, Note_off_c, 3, 41, 0
7, 61632, Note_on_c, 3, 41, 85
7, 61820, Note_off_c, 3, 41, 0
7, 61824, Note_on_c, 3, 41, 85
7, 62012, Note_off_c, 3, 41, 0
7, 62016, Note_on_c, 3, 41, 85
7, 62204, Note_off_c, 3, 41, 0
7, 62208, Note_on_c, 3, 41, 85
7, 62396, Note_off_c, 3, 41, 0
7, 62400, Note_on_c, 3, 41, 85
7, 62588, Note_off_c, 3, 41, 0
7, 62592, Note_on_c, 3, 41, 85
7, 62780, Note_off_c, 3, 41, 0
7, 62784, Note_on_c, 3, 41, 85
7, 62972, Note_off_c, 3, 41, 0
7, 62976, Note_on_c, 3, 41, 100
7, 63356, Note_off_c, 3, 41, 0
7, 63936, Note_on_c, 3, 50, 100
7, 64124, Note_off_c, 3, 50, 0
7, 64128, Note_on_c, 3, 52, 100
7, 64316, Note_off_c, 3, 52, 0
7, 64320, Note_on_c, 3, 54, 100
7, 64508, Note_off_c, 3, 54, 0
7, 64512, Note_on_c, 3, 55, 100
7, 64892, Note_off_c, 3, 55, 0
7, 65472, Note_on_c, 3, 52, 100
7, 65660, Note_off_c, 3, 52, 0
7, 65664, Note_on_c, 3, 54, 100
7, 65852, Note_off_c, 3, 54, 0
7, 65856, Note_on_c, 3, 56, 100
7, 66044, Note_off_c, 3, 56, 0
7, 66048, Note_on_c, 3, 57, 100
7, 66428, Note_off_c, 3, 57, 0
7, 67008, Note_on_c, 3, 45, 100
7, 67196, Note_off_c, 3, 45, 0
7, 67200, Note_on_c, 3, 47, 100
7, 67388, Note_off_c, 3, 47, 0
7, 67392, Note_on_c, 3, 49, 100
7, 67580, Note_off_c, 3, 49, 0
7, 67584, Note_on_c, 3, 50, 100
7, 67772, Note_off_c, 3, 50, 0
7, 67776, Note_on_c, 3, 49, 100
7, 67964, Note_off_c, 3, 49, 0
7, 67968, Note_on_c, 3, 50, 100
7, 68156, Note_off_c, 3, 50, 0
7, 68160, Note_on_c, 3, 52, 100
7, 68348, Note_off_c, 3, 52, 0
7, 68352, Note_on_c, 3, 53, 100
7, 68540, Note_off_c, 3, 53, 0
7, 68544, Note_on_c, 3, 52, 100
7, 68732, Note_off_c, 3, 52, 0
7, 68736, Note_on_c, 3, 53, 100
7, 68924, Note_off_c, 3, 53, 0
7, 68928, Note_on_c, 3, 50, 100
7, 69116, Note_off_c, 3, 50, 0
7, 69120, Note_on_c, 3, 52, 85
7, 69500, Note_off_c, 3, 52, 0
7, 69888, Note_on_c, 3, 52, 85
7, 70268, Note_off_c, 3, 52, 0
7, 70656, Note_on_c, 3, 45, 85
7, 71036, Note_off_c, 3, 45, 0
7, 71424, Note_on_c, 3, 45, 85
7, 71804, Note_off_c, 3, 45, 0
7, 72192, Note_on_c, 3, 57, 85
7, 72572, Note_off_c, 3, 57, 0
7, 72960, Note_on_c, 3, 57, 85
7, 73340, Note_off_c, 3, 57, 0
7, 73728, Note_on_c, 3, 50, 85
7, 74108, Note_off_c, 3, 50, 0
7, 74496, Note_on_c, 3, 50, 85
7, 74876, Note_off_c, 3, 50, 0
7, 75264, Note_on_c, 3, 59, 85
7, 75644, Note_off_c, 3, 59, 0
7, 76032, Note_on_c, 3, 59, 85
7, 76412, Note_off_c, 3, 59, 0
7, 76800, Note_on_c, 3, 52, 85
7, 77180, Note_off_c, 3, 52, 0
7, 77568, Note_on_c, 3, 52, 85
7, 77948, Note_off_c, 3, 52, 0
7, 78336, Note_on_c, 3, 57, 85
7, 78716, Note_off_c, 3, 57, 0
7, 79104, Note_on_c, 3, 55, 85
7, 79484, Note_off_c, 3, 55, 0
7, 79872, Note_on_c, 3, 53, 85
7, 80252, Note_off_c, 3, 53, 0
7, 80640, Note_on_c, 3, 52, 85
7, 81020, Note_off_c, 3, 52, 0
7, 81408, Note_on_c, 3, 50, 85
7, 81788, Note_off_c, 3, 50, 0
7, 82176, Note_on_c, 3, 44, 85
7, 82556, Note_off_c, 3, 44, 0
7, 82944, Note_on_c, 3, 45, 85
7, 83324, Note_off_c, 3, 45, 0
7, 83520, Note_on_c, 3, 45, 85
7, 83612, Note_off_c, 3, 45, 0
7, 83616, Note_on_c, 3, 47, 85
7, 83708, Note_off_c, 3, 47, 0
7, 83712, Note_on_c, 3, 48, 85
7, 83900, Note_off_c, 3, 48, 0
7, 83904, Note_on_c, 3, 50, 85
7, 84092, Note_off_c, 3, 50, 0
7, 84096, Note_on_c, 3, 52, 85
7, 84284, Note_off_c, 3, 52, 0
7, 84288, Note_on_c, 3, 40, 85
7, 84476, Note_off_c, 3, 40, 0
7, 84480, Note_on_c, 3, 45, 100
7, 84668, Note_off_c, 3, 45, 0
7, 84672, Note_on_c, 3, 45, 100
7, 84860, Note_off_c, 3, 45, 0
7, 84864, Note_on_c, 3, 45, 100
7, 85052, Note_off_c, 3, 45, 0
7, 85056, Note_on_c, 3, 45, 100
7, 85244, Note_off_c, 3, 45, 0
7, 85248, Note_on_c, 3, 45, 100
7, 85436, Note_off_c, 3, 45, 0
7, 85440, Note_on_c, 3, 45, 100
7, 85628, Note_off_c, 3, 45, 0
7, 85632, Note_on_c, 3, 45, 100
7, 85820, Note_off_c, 3, 45, 0
7, 85824, Note_on_c, 3, 45, 100
7, 86012, Note_off_c, 3, 45, 0
7, 86016, Note_on_c, 3, 45, 100
7, 86204, Note_off_c, 3, 45, 0
7, 86208, Note_on_c, 3, 45, 100
7, 86396, Note_off_c, 3, 45, 0
7, 86400, Note_on_c, 3, 45, 100
7, 86588, Note_off_c, 3, 45, 0
7, 86592, Note_on_c, 3, 45, 100
7, 86780, Note_off_c, 3, 45, 0
7, 86784, Note_on_c, 3, 45, 100
7, 86972, Note_off_c, 3, 45, 0
7, 86976, Note_on_c, 3, 45, 100
7, 87164, Note_off_c, 3, 45, 0
7, 87168, Note_on_c, 3, 45, 100
7, 87356, Note_off_c, 3, 45, 0
7, 87360, Note_on_c, 3, 45, 100
7, 87548, Note_off_c, 3, 45, 0
7, 87552, Note_on_c, 3, 45, 100
7, 87740, Note_off_c, 3, 45, 0
7, 87744, Note_on_c, 3, 45, 100
7, 87932, Note_off_c, 3, 45, 0
7, 87936, Note_on_c, 3, 45, 100
7, 88124, Note_off_c, 3, 45, 0
7, 88128, Note_on_c, 3, 45, 100
7, 88316, Note_off_c, 3, 45, 0
7, 88320, Note_on_c, 3, 45, 100
7, 88508, Note_off_c, 3, 45, 0
7, 88512, Note_on_c, 3, 45, 100
7, 88700, Note_off_c, 3, 45, 0
7, 88704, Note_on_c, 3, 45, 100
7, 88892, Note_off_c, 3, 45, 0
7, 88896, Note_on_c, 3, 45, 100
7, 89084, Note_off_c, 3, 45, 0
7, 89088, Note_on_c, 3, 45, 100
7, 89468, Note_off_c, 3, 45, 0
7, 91392, Note_on_c, 3, 49, 100
7, 91484, Note_off_c, 3, 49, 0
7, 91488, Note_on_c, 3, 50, 100
7, 91580, Note_off_c, 3, 50, 0
7, 91584, Note_on_c, 3, 52, 100
7, 91712, Note_off_c, 3, 52, 0
7, 91776, Note_on_c, 3, 52, 100
7, 91868, Note_off_c, 3, 52, 0
7, 91872, Note_on_c, 3, 53, 100
7, 91964, Note_off_c, 3, 53, 0
7, 91968, Note_on_c, 3, 55, 100
7, 92096, Note_off_c, 3, 55, 0
7, 92160, Note_on_c, 3, 55, 100
7, 92348, Note_off_c, 3, 55, 0
7, 92352, Note_on_c, 3, 53, 100
7, 92480, Note_off_c, 3, 53, 0
7, 92544, Note_on_c, 3, 53, 100
7, 92732, Note_off_c, 3, 53, 0
7, 92736, Note_on_c, 3, 52, 100
7, 92864, Note_off_c, 3, 52, 0
7, 92928, Note_on_c, 3, 51, 100
7, 93116, Note_off_c, 3, 51, 0
7, 93312, Note_on_c, 3, 52, 100
7, 93500, Note_off_c, 3, 52, 0
7, 93696, Note_on_c, 3, 45, 100
7, 94076, Note_off_c, 3, 45, 0
7, 95232, Note_on_c, 3, 45, 85
7, 95612, Note_off_c, 3, 45, 0
7, 96768, Note_on_c, 3, 45, 85
7, 97148, Note_off_c, 3, 45, 0
7, 98304, Note_on_c, 3, 45, 85
7, 98684, Note_off_c, 3, 45, 0
7, 99840, Note_on_c, 3, 45, 85
7, 100220, Note_off_c, 3, 45, 0
7, 101376, Note_on_c, 3, 45, 85
7, 101756, Note_off_c, 3, 45, 0
7, 104640, Note_on_c, 3, 57, 100
7, 105020, Note_off_c, 3, 57, 0
7, 105024, Note_on_c, 3, 55, 100
7, 105212, Note_off_c, 3, 55, 0
7, 105216, Note_on_c, 3, 54, 100
7, 105404, Note_off_c, 3, 54, 0
7, 105408, Note_on_c, 3, 59, 100
7, 105788, Note_off_c, 3, 59, 0
7, 105792, Note_on_c, 3, 47, 100
7, 105980, Note_off_c, 3, 47, 0
7, 105984, Note_on_c, 3, 52, 100
7, 106364, Note_off_c, 3, 52, 0
7, 107520, Note_on_c, 3, 52, 85
7, 107900, Note_off_c, 3, 52, 0
7, 109056, Note_on_c, 3, 52, 85
7, 109436, Note_off_c, 3, 52, 0
7, 110592, Note_on_c, 3, 52, 85
7, 110972, Note_off_c, 3, 52, 0
7, 112128, Note_on_c, 3, 52, 85
7, 112508, Note_off_c, 3, 52, 0
7, 113664, Note_on_c, 3, 52, 85
7, 114044, Note_off_c, 3, 52, 0
7, 138240, Note_on_c, 3, 36, 85
7, 138432, Note_off_c, 3, 36, 0
7, 138432, Note_on_c, 3, 36, 85
7, 138624, Note_off_c, 3, 36, 0
7, 138624, Note_on_c, 3, 36, 85
7, 138816, Note_off_c, 3, 36, 0
7, 138816, Note_on_c, 3, 36, 85
7, 139008, Note_off_c, 3, 36, 0
7, 139008, Note_on_c, 3, 36, 85
7, 139200, Note_off_c, 3, 36, 0
7, 139200, Note_on_c, 3, 36, 85
7, 139392, Note_off_c, 3, 36, 0
7, 139392, Note_on_c, 3, 36, 85
7, 139584, Note_off_c, 3, 36, 0
7, 139584, Note_on_c, 3, 36, 85
7, 139776, Note_off_c, 3, 36, 0
7, 139776, Note_on_c, 3, 36, 85
7, 139968, Note_off_c, 3, 36, 0
7, 139968, Note_on_c, 3, 36, 85
7, 140160, Note_off_c, 3, 36, 0
7, 140160, Note_on_c, 3, 36, 85
7, 140352, Note_off_c, 3, 36, 0
7, 140352, Note_on_c, 3, 36, 85
7, 140544, Note_off_c, 3, 36, 0
7, 140544, Note_on_c, 3, 36, 85
7, 140736, Note_off_c, 3, 36, 0
7, 140736, Note_on_c, 3, 36, 85
7, 140928, Note_off_c, 3, 36, 0
7, 140928, Note_on_c, 3, 36, 85
7, 141120, Note_off_c, 3, 36, 0
7, 141120, Note_on_c, 3, 36, 85
7, 141312, Note_off_c, 3, 36, 0
7, 141312, Note_on_c, 3, 36, 100
7, 141596, Note_off_c, 3, 36, 0
7, 142272, Note_on_c, 3, 45, 100
7, 142460, Note_off_c, 3, 45, 0
7, 142464, Note_on_c, 3, 47, 100
7, 142652, Note_off_c, 3, 47, 0
7, 142656, Note_on_c, 3, 49, 100
7, 142844, Note_off_c, 3, 49, 0
7, 142848, Note_on_c, 3, 50, 100
7, 143132, Note_off_c, 3, 50, 0
7, 143808, Note_on_c, 3, 50, 100
7, 143980, Note_off_c, 3, 50, 0
7, 144000, Note_on_c, 3, 52, 100
7, 144172, Note_off_c, 3, 52, 0
7, 144192, Note_on_c, 3, 54, 100
7, 144364, Note_off_c, 3, 54, 0
7, 144384, Note_on_c, 3, 55, 100
7, 144512, Note_off_c, 3, 55, 0
7, 144576, Note_on_c, 3, 54, 85
7, 144748, Note_off_c, 3, 54, 0
7, 144768, Note_on_c, 3, 55, 85
7, 144940, Note_off_c, 3, 55, 0
7, 144960, Note_on_c, 3, 57, 85
7, 145132, Note_off_c, 3, 57, 0
7, 145152, Note_on_c, 3, 58, 85
7, 145324, Note_off_c, 3, 58, 0
7, 145344, Note_on_c, 3, 62, 85
7, 145472, Note_off_c, 3, 62, 0
7, 145536, Note_on_c, 3, 58, 85
7, 145664, Note_off_c, 3, 58, 0
7, 145728, Note_on_c, 3, 55, 85
7, 145856, Note_off_c, 3, 55, 0
7, 145920, Note_on_c, 3, 57, 85
7, 146048, Note_off_c, 3, 57, 0
7, 146112, Note_on_c, 3, 55, 85
7, 146240, Note_off_c, 3, 55, 0
7, 146304, Note_on_c, 3, 57, 85
7, 146432, Note_off_c, 3, 57, 0
7, 146496, Note_on_c, 3, 58, 85
7, 146624, Note_off_c, 3, 58, 0
7, 146688, Note_on_c, 3, 60, 85
7, 146816, Note_off_c, 3, 60, 0
7, 146880, Note_on_c, 3, 63, 85
7, 147008, Note_off_c, 3, 63, 0
7, 147072, Note_on_c, 3, 60, 85
7, 147200, Note_off_c, 3, 60, 0
7, 147264, Note_on_c, 3, 57, 85
7, 147392, Note_off_c, 3, 57, 0
7, 147456, Note_on_c, 3, 58, 85
7, 147584, Note_off_c, 3, 58, 0
7, 147648, Note_on_c, 3, 60, 85
7, 147776, Note_off_c, 3, 60, 0
7, 147840, Note_on_c, 3, 58, 85
7, 147968, Note_off_c, 3, 58, 0
7, 148032, Note_on_c, 3, 57, 85
7, 148160, Note_off_c, 3, 57, 0
7, 148224, Note_on_c, 3, 55, 85
7, 148352, Note_off_c, 3, 55, 0
7, 148416, Note_on_c, 3, 58, 85
7, 148544, Note_off_c, 3, 58, 0
7, 148608, Note_on_c, 3, 55, 85
7, 148736, Note_off_c, 3, 55, 0
7, 148800, Note_on_c, 3, 51, 85
7, 148928, Note_off_c, 3, 51, 0
7, 148992, Note_on_c, 3, 48, 85
7, 149120, Note_off_c, 3, 48, 0
7, 149184, Note_on_c, 3, 55, 85
7, 149312, Note_off_c, 3, 55, 0
7, 149376, Note_on_c, 3, 51, 85
7, 149504, Note_off_c, 3, 51, 0
7, 149568, Note_on_c, 3, 50, 85
7, 149696, Note_off_c, 3, 50, 0
7, 149760, Note_on_c, 3, 48, 85
7, 149888, Note_off_c, 3, 48, 0
7, 149952, Note_on_c, 3, 43, 85
7, 150080, Note_off_c, 3, 43, 0
7, 150144, Note_on_c, 3, 39, 85
7, 150272, Note_off_c, 3, 39, 0
7, 150336, Note_on_c, 3, 36, 85
7, 150464, Note_off_c, 3, 36, 0
7, 150528, Note_on_c, 3, 48, 85
7, 150908, Note_off_c, 3, 48, 0
7, 151296, Note_on_c, 3, 48, 85
7, 151676, Note_off_c, 3, 48, 0
7, 152064, Note_on_c, 3, 49, 85
7, 152444, Note_off_c, 3, 49, 0
7, 152832, Note_on_c, 3, 49, 85
7, 153212, Note_off_c, 3, 49, 0
7, 153600, Note_on_c, 3, 51, 85
7, 153980, Note_off_c, 3, 51, 0
7, 154368, Note_on_c, 3, 51, 85
7, 154748, Note_off_c, 3, 51, 0
7, 155136, Note_on_c, 3, 50, 85
7, 155516, Note_off_c, 3, 50, 0
7, 155904, Note_on_c, 3, 50, 85
7, 156284, Note_off_c, 3, 50, 0
7, 156864, Note_on_c, 3, 62, 85
7, 157052, Note_off_c, 3, 62, 0
7, 157056, Note_on_c, 3, 58, 85
7, 157244, Note_off_c, 3, 58, 0
7, 157248, Note_on_c, 3, 55, 85
7, 157436, Note_off_c, 3, 55, 0
7, 157440, Note_on_c, 3, 51, 85
7, 157568, Note_off_c, 3, 51, 0
7, 157632, Note_on_c, 3, 48, 85
7, 157760, Note_off_c, 3, 48, 0
7, 157824, Note_on_c, 3, 50, 85
7, 157952, Note_off_c, 3, 50, 0
7, 158016, Note_on_c, 3, 38, 85
7, 158144, Note_off_c, 3, 38, 0
7, 158208, Note_on_c, 3, 43, 100
7, 158588, Note_off_c, 3, 43, 0
7, 158976, Note_on_c, 3, 55, 100
7, 159068, Note_off_c, 3, 55, 0
7, 159072, Note_on_c, 3, 57, 100
7, 159164, Note_off_c, 3, 57, 0
7, 159168, Note_on_c, 3, 58, 100
7, 159296, Note_off_c, 3, 58, 0
7, 159360, Note_on_c, 3, 57, 100
7, 159548, Note_off_c, 3, 57, 0
7, 159552, Note_on_c, 3, 55, 100
7, 159740, Note_off_c, 3, 55, 0
7, 159744, Note_on_c, 3, 60, 100
7, 159932, Note_off_c, 3, 60, 0
7, 160128, Note_on_c, 3, 58, 100
7, 160316, Note_off_c, 3, 58, 0
7, 160512, Note_on_c, 3, 57, 100
7, 160700, Note_off_c, 3, 57, 0
7, 160896, Note_on_c, 3, 55, 100
7, 161084, Note_off_c, 3, 55, 0
7, 161280, Note_on_c, 3, 54, 100
7, 161468, Note_off_c, 3, 54, 0
7, 161664, Note_on_c, 3, 55, 100
7, 161852, Note_off_c, 3, 55, 0
7, 162048, Note_on_c, 3, 57, 100
7, 162236, Note_off_c, 3, 57, 0
7, 162432, Note_on_c, 3, 58, 100
7, 162620, Note_off_c, 3, 58, 0
7, 162816, Note_on_c, 3, 60, 100
7, 162944, Note_off_c, 3, 60, 0
7, 163008, Note_on_c, 3, 60, 100
7, 163136, Note_off_c, 3, 60, 0
7, 163200, Note_on_c, 3, 60, 100
7, 163328, Note_off_c, 3, 60, 0
7, 163392, Note_on_c, 3, 60, 100
7, 163520, Note_off_c, 3, 60, 0
7, 163584, Note_on_c, 3, 60, 100
7, 163712, Note_off_c, 3, 60, 0
7, 163776, Note_on_c, 3, 60, 100
7, 163904, Note_off_c, 3, 60, 0
7, 163968, Note_on_c, 3, 60, 100
7, 164096, Note_off_c, 3, 60, 0
7, 164160, Note_on_c, 3, 60, 100
7, 164288, Note_off_c, 3, 60, 0
7, 164352, Note_on_c, 3, 60, 100
7, 164608, Note_off_c, 3, 60, 0
7, 165120, Note_on_c, 3, 47, 100
7, 165212, Note_off_c, 3, 47, 0
7, 165216, Note_on_c, 3, 48, 100
7, 165308, Note_off_c, 3, 48, 0
7, 165312, Note_on_c, 3, 50, 100
7, 165440, Note_off_c, 3, 50, 0
7, 165504, Note_on_c, 3, 50, 100
7, 165596, Note_off_c, 3, 50, 0
7, 165600, Note_on_c, 3, 51, 100
7, 165692, Note_off_c, 3, 51, 0
7, 165696, Note_on_c, 3, 53, 100
7, 165824, Note_off_c, 3, 53, 0
7, 165888, Note_on_c, 3, 53, 100
7, 166076, Note_off_c, 3, 53, 0
7, 166080, Note_on_c, 3, 51, 100
7, 166208, Note_off_c, 3, 51, 0
7, 166272, Note_on_c, 3, 51, 100
7, 166460, Note_off_c, 3, 51, 0
7, 166464, Note_on_c, 3, 50, 100
7, 166592, Note_off_c, 3, 50, 0
7, 166656, Note_on_c, 3, 49, 100
7, 167036, Note_off_c, 3, 49, 0
7, 177600, Note_on_c, 3, 51, 100
7, 177728, Note_off_c, 3, 51, 0
7, 177792, Note_on_c, 3, 48, 100
7, 177920, Note_off_c, 3, 48, 0
7, 177984, Note_on_c, 3, 50, 100
7, 178112, Note_off_c, 3, 50, 0
7, 178176, Note_on_c, 3, 43, 100
7, 178268, Note_off_c, 3, 43, 0
7, 178272, Note_on_c, 3, 45, 100
7, 178364, Note_off_c, 3, 45, 0
7, 178368, Note_on_c, 3, 46, 100
7, 178496, Note_off_c, 3, 46, 0
7, 178560, Note_on_c, 3, 45, 100
7, 178748, Note_off_c, 3, 45, 0
7, 178752, Note_on_c, 3, 43, 100
7, 178940, Note_off_c, 3, 43, 0
7, 178944, Note_on_c, 3, 48, 100
7, 179132, Note_off_c, 3, 48, 0
7, 179136, Note_on_c, 3, 55, 100
7, 179516, Note_off_c, 3, 55, 0
7, 179520, Note_on_c, 3, 48, 100
7, 179708, Note_off_c, 3, 48, 0
7, 179712, Note_on_c, 3, 41, 100
7, 179804, Note_off_c, 3, 41, 0
7, 179808, Note_on_c, 3, 43, 100
7, 179900, Note_off_c, 3, 43, 0
7, 179904, Note_on_c, 3, 45, 100
7, 180032, Note_off_c, 3, 45, 0
7, 180096, Note_on_c, 3, 43, 100
7, 180284, Note_off_c, 3, 43, 0
7, 180288, Note_on_c, 3, 41, 100
7, 180476, Note_off_c, 3, 41, 0
7, 180480, Note_on_c, 3, 46, 100
7, 180668, Note_off_c, 3, 46, 0
7, 180672, Note_on_c, 3, 53, 100
7, 181052, Note_off_c, 3, 53, 0
7, 181056, Note_on_c, 3, 46, 100
7, 181244, Note_off_c, 3, 46, 0
7, 181248, Note_on_c, 3, 40, 100
7, 181340, Note_off_c, 3, 40, 0
7, 181344, Note_on_c, 3, 41, 100
7, 181436, Note_off_c, 3, 41, 0
7, 181440, Note_on_c, 3, 43, 100
7, 181568, Note_off_c, 3, 43, 0
7, 181632, Note_on_c, 3, 41, 100
7, 181820, Note_off_c, 3, 41, 0
7, 181824, Note_on_c, 3, 40, 100
7, 181968, Note_on_c, 3, 45, 100
7, 182012, Note_off_c, 3, 40, 0
7, 182156, Note_off_c, 3, 45, 0
7, 182208, Note_on_c, 3, 52, 100
7, 182588, Note_off_c, 3, 52, 0
7, 182592, Note_on_c, 3, 45, 100
7, 182780, Note_off_c, 3, 45, 0
7, 182784, Note_on_c, 3, 38, 85
7, 182876, Note_off_c, 3, 38, 0
7, 182880, Note_on_c, 3, 40, 85
7, 182972, Note_off_c, 3, 40, 0
7, 182976, Note_on_c, 3, 41, 85
7, 183104, Note_off_c, 3, 41, 0
7, 183168, Note_on_c, 3, 40, 85
7, 183356, Note_off_c, 3, 40, 0
7, 183360, Note_on_c, 3, 38, 85
7, 183548, Note_off_c, 3, 38, 0
7, 183552, Note_on_c, 3, 45, 85
7, 183644, Note_off_c, 3, 45, 0
7, 183648, Note_on_c, 3, 47, 85
7, 183740, Note_off_c, 3, 47, 0
7, 183744, Note_on_c, 3, 49, 85
7, 183872, Note_off_c, 3, 49, 0
7, 183936, Note_on_c, 3, 47, 85
7, 184124, Note_off_c, 3, 47, 0
7, 184128, Note_on_c, 3, 45, 85
7, 184316, Note_off_c, 3, 45, 0
7, 184320, Note_on_c, 3, 50, 85
7, 184412, Note_off_c, 3, 50, 0
7, 184416, Note_on_c, 3, 52, 85
7, 184508, Note_off_c, 3, 52, 0
7, 184512, Note_on_c, 3, 53, 85
7, 184640, Note_off_c, 3, 53, 0
7, 184704, Note_on_c, 3, 52, 85
7, 184892, Note_off_c, 3, 52, 0
7, 184896, Note_on_c, 3, 50, 85
7, 185084, Note_off_c, 3, 50, 0
7, 185088, Note_on_c, 3, 57, 85
7, 185180, Note_off_c, 3, 57, 0
7, 185184, Note_on_c, 3, 59, 85
7, 185276, Note_off_c, 3, 59, 0
7, 185280, Note_on_c, 3, 61, 85
7, 185408, Note_off_c, 3, 61, 0
7, 185472, Note_on_c, 3, 59, 85
7, 185660, Note_off_c, 3, 59, 0
7, 185664, Note_on_c, 3, 57, 85
7, 185852, Note_off_c, 3, 57, 0
7, 185856, Note_on_c, 3, 62, 90
7, 186236, Note_off_c, 3, 62, 0
7, 186816, Note_on_c, 3, 62, 90
7, 187004, Note_off_c, 3, 62, 0
7, 187008, Note_on_c, 3, 58, 90
7, 187196, Note_off_c, 3, 58, 0
7, 187200, Note_on_c, 3, 55, 90
7, 187388, Note_off_c, 3, 55, 0
7, 187392, Note_on_c, 3, 60, 90
7, 187772, Note_off_c, 3, 60, 0
7, 188352, Note_on_c, 3, 48, 90
7, 188540, Note_off_c, 3, 48, 0
7, 188544, Note_on_c, 3, 53, 90
7, 188732, Note_off_c, 3, 53, 0
7, 188736, Note_on_c, 3, 57, 90
7, 188924, Note_off_c, 3, 57, 0
7, 188928, Note_on_c, 3, 46, 90
7, 189308, Note_off_c, 3, 46, 0
7, 189888, Note_on_c, 3, 46, 90
7, 190076, Note_off_c, 3, 46, 0
7, 190080, Note_on_c, 3, 52, 90
7, 190268, Note_off_c, 3, 52, 0
7, 190272, Note_on_c, 3, 55, 90
7, 190460, Note_off_c, 3, 55, 0
7, 190464, Note_on_c, 3, 45, 90
7, 190844, Note_off_c, 3, 45, 0
7, 191424, Note_on_c, 3, 52, 90
7, 191612, Note_off_c, 3, 52, 0
7, 191616, Note_on_c, 3, 49, 90
7, 191804, Note_off_c, 3, 49, 0
7, 191808, Note_on_c, 3, 45, 90
7, 191996, Note_off_c, 3, 45, 0
7, 192000, Note_on_c, 3, 50, 90
7, 192140, Note_off_c, 3, 50, 0
7, 192192, Note_on_c, 3, 50, 90
7, 192332, Note_off_c, 3, 50, 0
7, 192384, Note_on_c, 3, 50, 90
7, 192524, Note_off_c, 3, 50, 0
7, 192576, Note_on_c, 3, 50, 90
7, 192716, Note_off_c, 3, 50, 0
7, 192768, Note_on_c, 3, 48, 90
7, 192908, Note_off_c, 3, 48, 0
7, 192960, Note_on_c, 3, 48, 90
7, 193100, Note_off_c, 3, 48, 0
7, 193152, Note_on_c, 3, 48, 90
7, 193292, Note_off_c, 3, 48, 0
7, 193344, Note_on_c, 3, 48, 90
7, 193484, Note_off_c, 3, 48, 0
7, 193536, Note_on_c, 3, 46, 90
7, 193676, Note_off_c, 3, 46, 0
7, 193728, Note_on_c, 3, 46, 90
7, 193868, Note_off_c, 3, 46, 0
7, 193920, Note_on_c, 3, 46, 90
7, 194060, Note_off_c, 3, 46, 0
7, 194112, Note_on_c, 3, 46, 90
7, 194252, Note_off_c, 3, 46, 0
7, 194304, Note_on_c, 3, 47, 90
7, 194444, Note_off_c, 3, 47, 0
7, 194496, Note_on_c, 3, 47, 90
7, 194636, Note_off_c, 3, 47, 0
7, 194688, Note_on_c, 3, 47, 90
7, 194828, Note_off_c, 3, 47, 0
7, 194880, Note_on_c, 3, 47, 90
7, 195020, Note_off_c, 3, 47, 0
7, 195072, Note_on_c, 3, 48, 90
7, 195212, Note_off_c, 3, 48, 0
7, 195264, Note_on_c, 3, 48, 90
7, 195404, Note_off_c, 3, 48, 0
7, 195456, Note_on_c, 3, 48, 90
7, 195596, Note_off_c, 3, 48, 0
7, 195648, Note_on_c, 3, 48, 90
7, 195788, Note_off_c, 3, 48, 0
7, 195840, Note_on_c, 3, 46, 90
7, 195980, Note_off_c, 3, 46, 0
7, 196032, Note_on_c, 3, 46, 90
7, 196172, Note_off_c, 3, 46, 0
7, 196224, Note_on_c, 3, 46, 90
7, 196364, Note_off_c, 3, 46, 0
7, 196416, Note_on_c, 3, 46, 90
7, 196556, Note_off_c, 3, 46, 0
7, 196608, Note_on_c, 3, 45, 90
7, 196748, Note_off_c, 3, 45, 0
7, 196800, Note_on_c, 3, 45, 90
7, 196940, Note_off_c, 3, 45, 0
7, 196992, Note_on_c, 3, 45, 90
7, 197132, Note_off_c, 3, 45, 0
7, 197184, Note_on_c, 3, 45, 90
7, 197324, Note_off_c, 3, 45, 0
7, 197376, Note_on_c, 3, 45, 90
7, 197516, Note_off_c, 3, 45, 0
7, 197568, Note_on_c, 3, 45, 90
7, 197708, Note_off_c, 3, 45, 0
7, 197760, Note_on_c, 3, 45, 90
7, 197900, Note_off_c, 3, 45, 0
7, 197952, Note_on_c, 3, 45, 90
7, 198092, Note_off_c, 3, 45, 0
7, 198144, Note_on_c, 3, 46, 90
7, 198284, Note_off_c, 3, 46, 0
7, 198336, Note_on_c, 3, 46, 90
7, 198476, Note_off_c, 3, 46, 0
7, 198528, Note_on_c, 3, 46, 90
7, 198668, Note_off_c, 3, 46, 0
7, 198720, Note_on_c, 3, 46, 90
7, 198860, Note_off_c, 3, 46, 0
7, 198912, Note_on_c, 3, 44, 90
7, 199052, Note_off_c, 3, 44, 0
7, 199104, Note_on_c, 3, 44, 90
7, 199244, Note_off_c, 3, 44, 0
7, 199296, Note_on_c, 3, 44, 90
7, 199436, Note_off_c, 3, 44, 0
7, 199488, Note_on_c, 3, 44, 90
7, 199628, Note_off_c, 3, 44, 0
7, 199680, Note_on_c, 3, 43, 90
7, 199820, Note_off_c, 3, 43, 0
7, 199872, Note_on_c, 3, 43, 90
7, 200012, Note_off_c, 3, 43, 0
7, 200064, Note_on_c, 3, 43, 90
7, 200204, Note_off_c, 3, 43, 0
7, 200256, Note_on_c, 3, 43, 90
7, 200396, Note_off_c, 3, 43, 0
7, 200448, Note_on_c, 3, 43, 90
7, 200588, Note_off_c, 3, 43, 0
7, 200640, Note_on_c, 3, 43, 90
7, 200780, Note_off_c, 3, 43, 0
7, 200832, Note_on_c, 3, 43, 90
7, 200972, Note_off_c, 3, 43, 0
7, 201024, Note_on_c, 3, 43, 90
7, 201164, Note_off_c, 3, 43, 0
7, 201216, Note_on_c, 3, 43, 85
7, 201596, Note_off_c, 3, 43, 0
7, 201984, Note_on_c, 3, 41, 85
7, 202364, Note_off_c, 3, 41, 0
7, 202752, Note_on_c, 3, 41, 85
7, 203132, Note_off_c, 3, 41, 0
7, 203520, Note_on_c, 3, 39, 85
7, 203900, Note_off_c, 3, 39, 0
7, 204288, Note_on_c, 3, 39, 85
7, 204668, Note_off_c, 3, 39, 0
7, 205056, Note_on_c, 3, 38, 85
7, 205436, Note_off_c, 3, 38, 0
7, 205440, Note_on_c, 3, 50, 85
7, 206204, Note_off_c, 3, 50, 0
7, 206208, Note_on_c, 3, 48, 85
7, 206972, Note_off_c, 3, 48, 0
7, 206976, Note_on_c, 3, 46, 85
7, 207740, Note_off_c, 3, 46, 0
7, 207744, Note_on_c, 3, 45, 85
7, 208124, Note_off_c, 3, 45, 0
7, 208128, Note_on_c, 3, 46, 85
7, 208508, Note_off_c, 3, 46, 0
7, 208704, Note_on_c, 3, 45, 85
7, 208892, Note_off_c, 3, 45, 0
7, 208896, Note_on_c, 3, 43, 100
7, 209276, Note_off_c, 3, 43, 0
7, 209472, Note_on_c, 3, 41, 100
7, 209564, Note_off_c, 3, 41, 0
7, 209568, Note_on_c, 3, 39, 100
7, 209660, Note_off_c, 3, 39, 0
7, 209664, Note_on_c, 3, 38, 100
7, 209852, Note_off_c, 3, 38, 0
7, 209856, Note_on_c, 3, 39, 100
7, 210044, Note_off_c, 3, 39, 0
7, 210048, Note_on_c, 3, 41, 100
7, 210176, Note_off_c, 3, 41, 0
7, 210240, Note_on_c, 3, 41, 100
7, 210428, Note_off_c, 3, 41, 0
7, 210432, Note_on_c, 3, 46, 85
7, 210524, Note_off_c, 3, 46, 0
7, 210528, Note_on_c, 3, 48, 85
7, 210620, Note_off_c, 3, 48, 0
7, 210624, Note_on_c, 3, 50, 85
7, 210752, Note_off_c, 3, 50, 0
7, 210816, Note_on_c, 3, 48, 85
7, 211004, Note_off_c, 3, 48, 0
7, 211008, Note_on_c, 3, 46, 85
7, 211196, Note_off_c, 3, 46, 0
7, 211200, Note_on_c, 3, 51, 85
7, 211388, Note_off_c, 3, 51, 0
7, 211392, Note_on_c, 3, 58, 85
7, 211772, Note_off_c, 3, 58, 0
7, 211776, Note_on_c, 3, 51, 85
7, 211964, Note_off_c, 3, 51, 0
7, 211968, Note_on_c, 3, 46, 85
7, 212060, Note_off_c, 3, 46, 0
7, 212064, Note_on_c, 3, 48, 85
7, 212156, Note_off_c, 3, 48, 0
7, 212160, Note_on_c, 3, 50, 85
7, 212288, Note_off_c, 3, 50, 0
7, 212352, Note_on_c, 3, 48, 85
7, 212540, Note_off_c, 3, 48, 0
7, 212544, Note_on_c, 3, 46, 85
7, 212732, Note_off_c, 3, 46, 0
7, 212736, Note_on_c, 3, 51, 85
7, 212924, Note_off_c, 3, 51, 0
7, 212928, Note_on_c, 3, 58, 85
7, 213308, Note_off_c, 3, 58, 0
7, 213312, Note_on_c, 3, 51, 85
7, 213500, Note_off_c, 3, 51, 0
7, 213504, Note_on_c, 3, 46, 85
7, 213884, Note_off_c, 3, 46, 0
7, 214464, Note_on_c, 3, 43, 100
7, 214592, Note_off_c, 3, 43, 0
7, 214656, Note_on_c, 3, 43, 100
7, 214784, Note_off_c, 3, 43, 0
7, 214848, Note_on_c, 3, 43, 100
7, 214976, Note_off_c, 3, 43, 0
7, 215040, Note_on_c, 3, 48, 100
7, 215420, Note_off_c, 3, 48, 0
7, 216768, Note_on_c, 3, 45, 100
7, 216896, Note_off_c, 3, 45, 0
7, 216960, Note_on_c, 3, 45, 100
7, 217088, Note_off_c, 3, 45, 0
7, 217152, Note_on_c, 3, 45, 100
7, 217280, Note_off_c, 3, 45, 0
7, 217344, Note_on_c, 3, 50, 100
7, 217724, Note_off_c, 3, 50, 0
7, 219072, Note_on_c, 3, 50, 100
7, 219200, Note_off_c, 3, 50, 0
7, 219264, Note_on_c, 3, 50, 100
7, 219392, Note_off_c, 3, 50, 0
7, 219456, Note_on_c, 3, 50, 100
7, 219584, Note_off_c, 3, 50, 0
7, 219648, Note_on_c, 3, 55, 100
7, 220028, Note_off_c, 3, 55, 0
7, 220224, Note_on_c, 3, 55, 85
7, 220412, Note_off_c, 3, 55, 0
7, 220416, Note_on_c, 3, 57, 85
7, 220796, Note_off_c, 3, 57, 0
7, 220992, Note_on_c, 3, 57, 85
7, 221180, Note_off_c, 3, 57, 0
7, 221184, Note_on_c, 3, 58, 85
7, 221564, Note_off_c, 3, 58, 0
7, 221760, Note_on_c, 3, 58, 85
7, 221948, Note_off_c, 3, 58, 0
7, 221952, Note_on_c, 3, 49, 85
7, 222332, Note_off_c, 3, 49, 0
7, 222528, Note_on_c, 3, 49, 85
7, 222716, Note_off_c, 3, 49, 0
7, 222720, Note_on_c, 3, 50, 85
7, 223100, Note_off_c, 3, 50, 0
7, 223680, Note_on_c, 3, 55, 85
7, 223868, Note_off_c, 3, 55, 0
7, 223872, Note_on_c, 3, 57, 85
7, 224060, Note_off_c, 3, 57, 0
7, 224064, Note_on_c, 3, 59, 85
7, 224252, Note_off_c, 3, 59, 0
7, 224256, Note_on_c, 3, 60, 85
7, 224636, Note_off_c, 3, 60, 0
7, 225216, Note_on_c, 3, 53, 85
7, 225404, Note_off_c, 3, 53, 0
7, 225408, Note_on_c, 3, 55, 85
7, 225596, Note_off_c, 3, 55, 0
7, 225600, Note_on_c, 3, 57, 85
7, 225788, Note_off_c, 3, 57, 0
7, 225792, Note_on_c, 3, 58, 85
7, 225980, Note_off_c, 3, 58, 0
7, 225984, Note_on_c, 3, 60, 85
7, 226172, Note_off_c, 3, 60, 0
7, 226176, Note_on_c, 3, 58, 85
7, 226364, Note_off_c, 3, 58, 0
7, 226368, Note_on_c, 3, 57, 85
7, 226556, Note_off_c, 3, 57, 0
7, 226560, Note_on_c, 3, 55, 85
7, 226748, Note_off_c, 3, 55, 0
7, 226752, Note_on_c, 3, 57, 85
7, 226940, Note_off_c, 3, 57, 0
7, 226944, Note_on_c, 3, 55, 85
7, 227132, Note_off_c, 3, 55, 0
7, 227136, Note_on_c, 3, 53, 85
7, 227324, Note_off_c, 3, 53, 0
7, 227328, Note_on_c, 3, 52, 85
7, 227516, Note_off_c, 3, 52, 0
7, 227520, Note_on_c, 3, 53, 85
7, 227708, Note_off_c, 3, 53, 0
7, 227712, Note_on_c, 3, 52, 85
7, 227900, Note_off_c, 3, 52, 0
7, 227904, Note_on_c, 3, 50, 85
7, 228092, Note_off_c, 3, 50, 0
7, 228096, Note_on_c, 3, 49, 85
7, 228284, Note_off_c, 3, 49, 0
7, 228288, Note_on_c, 3, 47, 85
7, 228476, Note_off_c, 3, 47, 0
7, 228480, Note_on_c, 3, 45, 85
7, 228668, Note_off_c, 3, 45, 0
7, 228672, Note_on_c, 3, 43, 85
7, 228860, Note_off_c, 3, 43, 0
7, 228864, Note_on_c, 3, 41, 85
7, 229052, Note_off_c, 3, 41, 0
7, 229248, Note_on_c, 3, 46, 85
7, 229436, Note_off_c, 3, 46, 0
7, 229632, Note_on_c, 3, 43, 85
7, 229820, Note_off_c, 3, 43, 0
7, 230016, Note_on_c, 3, 45, 85
7, 230204, Note_off_c, 3, 45, 0
7, 230400, Note_on_c, 3, 46, 85
7, 230588, Note_off_c, 3, 46, 0
7, 230784, Note_on_c, 3, 41, 85
7, 230972, Note_off_c, 3, 41, 0
7, 231168, Note_on_c, 3, 43, 85
7, 231356, Note_off_c, 3, 43, 0
7, 231552, Note_on_c, 3, 45, 85
7, 231740, Note_off_c, 3, 45, 0
7, 231936, Note_on_c, 3, 38, 85
7, 232316, Note_off_c, 3, 38, 0
7, 233472, Note_on_c, 3, 38, 85
7, 233852, Note_off_c, 3, 38, 0
7, 235008, Note_on_c, 3, 38, 85
7, 235388, Note_off_c, 3, 38, 0
7, 236544, Note_on_c, 3, 38, 85
7, 236924, Note_off_c, 3, 38, 0
7, 238080, Note_on_c, 3, 38, 85
7, 238460, Note_off_c, 3, 38, 0
7, 239616, Note_on_c, 3, 38, 85
7, 239996, Note_off_c, 3, 38, 0
7, 253632, Note_on_c, 3, 44, 85
7, 253764, Note_off_c, 3, 44, 0
7, 253824, Note_on_c, 3, 44, 85
7, 253956, Note_off_c, 3, 44, 0
7, 254400, Note_on_c, 3, 44, 85
7, 254532, Note_off_c, 3, 44, 0
7, 254592, Note_on_c, 3, 44, 85
7, 254724, Note_off_c, 3, 44, 0
7, 255168, Note_on_c, 3, 45, 85
7, 255300, Note_off_c, 3, 45, 0
7, 255360, Note_on_c, 3, 45, 85
7, 255492, Note_off_c, 3, 45, 0
7, 255936, Note_on_c, 3, 45, 85
7, 256068, Note_off_c, 3, 45, 0
7, 256128, Note_on_c, 3, 45, 85
7, 256260, Note_off_c, 3, 45, 0
7, 256704, Note_on_c, 3, 46, 85
7, 256836, Note_off_c, 3, 46, 0
7, 256896, Note_on_c, 3, 46, 85
7, 257028, Note_off_c, 3, 46, 0
7, 257472, Note_on_c, 3, 46, 85
7, 257604, Note_off_c, 3, 46, 0
7, 257664, Note_on_c, 3, 46, 85
7, 257796, Note_off_c, 3, 46, 0
7, 258240, Note_on_c, 3, 45, 85
7, 258372, Note_off_c, 3, 45, 0
7, 258432, Note_on_c, 3, 45, 85
7, 258564, Note_off_c, 3, 45, 0
7, 259008, Note_on_c, 3, 45, 85
7, 259140, Note_off_c, 3, 45, 0
7, 259200, Note_on_c, 3, 45, 85
7, 259332, Note_off_c, 3, 45, 0
7, 259584, Note_on_c, 3, 44, 85
7, 261116, Note_off_c, 3, 44, 0
7, 261120, Note_on_c, 3, 45, 85
7, 268796, Note_off_c, 3, 45, 0
7, 268800, Note_on_c, 3, 50, 100
7, 268896, Note_off_c, 3, 50, 0
7, 268896, Note_on_c, 3, 52, 100
7, 268992, Note_off_c, 3, 52, 0
7, 268992, Note_on_c, 3, 53, 100
7, 269120, Note_off_c, 3, 53, 0
7, 269184, Note_on_c, 3, 52, 100
7, 269376, Note_off_c, 3, 52, 0
7, 269376, Note_on_c, 3, 50, 100
7, 269568, Note_off_c, 3, 50, 0
7, 269568, Note_on_c, 3, 57, 100
7, 269760, Note_off_c, 3, 57, 0
7, 269760, Note_on_c, 3, 62, 100
7, 270144, Note_off_c, 3, 62, 0
7, 270144, Note_on_c, 3, 57, 100
7, 270336, Note_off_c, 3, 57, 0
7, 270336, Note_on_c, 3, 58, 100
7, 270524, Note_off_c, 3, 58, 0
7, 270528, Note_on_c, 3, 55, 100
7, 270620, Note_off_c, 3, 55, 0
7, 270624, Note_on_c, 3, 52, 100
7, 270716, Note_off_c, 3, 52, 0
7, 270720, Note_on_c, 3, 57, 100
7, 270908, Note_off_c, 3, 57, 0
7, 270912, Note_on_c, 3, 53, 100
7, 271004, Note_off_c, 3, 53, 0
7, 271008, Note_on_c, 3, 50, 100
7, 271100, Note_off_c, 3, 50, 0
7, 271104, Note_on_c, 3, 55, 100
7, 271292, Note_off_c, 3, 55, 0
7, 271296, Note_on_c, 3, 52, 100
7, 271388, Note_off_c, 3, 52, 0
7, 271392, Note_on_c, 3, 49, 100
7, 271484, Note_off_c, 3, 49, 0
7, 271488, Note_on_c, 3, 45, 100
7, 271616, Note_off_c, 3, 45, 0
7, 271680, Note_on_c, 3, 49, 100
7, 271868, Note_off_c, 3, 49, 0
7, 271872, Note_on_c, 3, 52, 85
7, 272060, Note_off_c, 3, 52, 0
7, 272064, Note_on_c, 3, 55, 85
7, 272252, Note_off_c, 3, 55, 0
7, 272256, Note_on_c, 3, 58, 85
7, 272444, Note_off_c, 3, 58, 0
7, 272448, Note_on_c, 3, 55, 85
7, 272636, Note_off_c, 3, 55, 0
7, 272640, Note_on_c, 3, 52, 85
7, 272828, Note_off_c, 3, 52, 0
7, 272832, Note_on_c, 3, 49, 85
7, 273020, Note_off_c, 3, 49, 0
7, 273024, Note_on_c, 3, 45, 85
7, 273212, Note_off_c, 3, 45, 0
7, 273216, Note_on_c, 3, 57, 85
7, 273404, Note_off_c, 3, 57, 0
7, 273408, Note_on_c, 3, 50, 85
7, 273788, Note_off_c, 3, 50, 0
7, 274176, Note_on_c, 3, 50, 85
7, 274556, Note_off_c, 3, 50, 0
7, 274944, Note_on_c, 3, 45, 85
7, 275132, Note_off_c, 3, 45, 0
7, 275136, Note_on_c, 3, 48, 85
7, 275324, Note_off_c, 3, 48, 0
7, 275328, Note_on_c, 3, 51, 85
7, 275516, Note_off_c, 3, 51, 0
7, 275520, Note_on_c, 3, 48, 85
7, 275708, Note_off_c, 3, 48, 0
7, 275712, Note_on_c, 3, 45, 85
7, 275900, Note_off_c, 3, 45, 0
7, 275904, Note_on_c, 3, 42, 85
7, 276092, Note_off_c, 3, 42, 0
7, 276096, Note_on_c, 3, 38, 85
7, 276284, Note_off_c, 3, 38, 0
7, 276288, Note_on_c, 3, 50, 85
7, 276476, Note_off_c, 3, 50, 0
7, 276480, Note_on_c, 3, 43, 85
7, 276860, Note_off_c, 3, 43, 0
7, 277248, Note_on_c, 3, 43, 85
7, 277628, Note_off_c, 3, 43, 0
7, 278016, Note_on_c, 3, 47, 85
7, 278204, Note_off_c, 3, 47, 0
7, 278208, Note_on_c, 3, 50, 85
7, 278396, Note_off_c, 3, 50, 0
7, 278400, Note_on_c, 3, 53, 85
7, 278588, Note_off_c, 3, 53, 0
7, 278592, Note_on_c, 3, 50, 85
7, 278780, Note_off_c, 3, 50, 0
7, 278784, Note_on_c, 3, 47, 85
7, 278972, Note_off_c, 3, 47, 0
7, 278976, Note_on_c, 3, 44, 85
7, 279164, Note_off_c, 3, 44, 0
7, 279168, Note_on_c, 3, 40, 85
7, 279356, Note_off_c, 3, 40, 0
7, 279360, Note_on_c, 3, 52, 85
7, 279548, Note_off_c, 3, 52, 0
7, 279552, Note_on_c, 3, 45, 85
7, 279740, Note_off_c, 3, 45, 0
7, 279744, Note_on_c, 3, 55, 85
7, 279932, Note_off_c, 3, 55, 0
7, 279936, Note_on_c, 3, 58, 85
7, 280124, Note_off_c, 3, 58, 0
7, 280128, Note_on_c, 3, 55, 85
7, 280316, Note_off_c, 3, 55, 0
7, 280320, Note_on_c, 3, 52, 85
7, 280508, Note_off_c, 3, 52, 0
7, 280512, Note_on_c, 3, 49, 85
7, 280700, Note_off_c, 3, 49, 0
7, 280704, Note_on_c, 3, 45, 85
7, 280892, Note_off_c, 3, 45, 0
7, 280896, Note_on_c, 3, 57, 85
7, 281084, Note_off_c, 3, 57, 0
7, 281088, Note_on_c, 3, 50, 85
7, 281376, Note_off_c, 3, 50, 0
7, 281856, Note_on_c, 3, 48, 85
7, 282144, Note_off_c, 3, 48, 0
7, 282624, Note_on_c, 3, 46, 85
7, 282912, Note_off_c, 3, 46, 0
7, 283392, Note_on_c, 3, 45, 85
7, 283680, Note_off_c, 3, 45, 0
7, 284160, Note_on_c, 3, 43, 85
7, 284540, Note_off_c, 3, 43, 0
7, 284928, Note_on_c, 3, 37, 85
7, 285308, Note_off_c, 3, 37, 0
7, 285696, Note_on_c, 3, 38, 85
7, 286076, Note_off_c, 3, 38, 0
7, 286272, Note_on_c, 3, 50, 85
7, 286364, Note_off_c, 3, 50, 0
7, 286368, Note_on_c, 3, 52, 85
7, 286460, Note_off_c, 3, 52, 0
7, 286464, Note_on_c, 3, 53, 85
7, 286592, Note_off_c, 3, 53, 0
7, 286656, Note_on_c, 3, 55, 85
7, 286784, Note_off_c, 3, 55, 0
7, 286848, Note_on_c, 3, 57, 85
7, 286976, Note_off_c, 3, 57, 0
7, 287040, Note_on_c, 3, 45, 85
7, 287168, Note_off_c, 3, 45, 0
7, 287232, Note_on_c, 3, 50, 100
7, 287328, Note_off_c, 3, 50, 0
7, 287328, Note_on_c, 3, 52, 100
7, 287424, Note_off_c, 3, 52, 0
7, 287424, Note_on_c, 3, 53, 100
7, 287552, Note_off_c, 3, 53, 0
7, 287616, Note_on_c, 3, 52, 100
7, 287808, Note_off_c, 3, 52, 0
7, 287808, Note_on_c, 3, 50, 100
7, 288000, Note_off_c, 3, 50, 0
7, 288000, Note_on_c, 3, 57, 100
7, 288192, Note_off_c, 3, 57, 0
7, 288192, Note_on_c, 3, 62, 100
7, 288576, Note_off_c, 3, 62, 0
7, 288576, Note_on_c, 3, 57, 100
7, 288768, Note_off_c, 3, 57, 0
7, 288768, Note_on_c, 3, 58, 100
7, 288956, Note_off_c, 3, 58, 0
7, 288960, Note_on_c, 3, 55, 100
7, 289052, Note_off_c, 3, 55, 0
7, 289056, Note_on_c, 3, 52, 100
7, 289148, Note_off_c, 3, 52, 0
7, 289152, Note_on_c, 3, 57, 100
7, 289340, Note_off_c, 3, 57, 0
7, 289344, Note_on_c, 3, 53, 100
7, 289436, Note_off_c, 3, 53, 0
7, 289440, Note_on_c, 3, 50, 100
7, 289532, Note_off_c, 3, 50, 0
7, 289536, Note_on_c, 3, 55, 100
7, 289724, Note_off_c, 3, 55, 0
7, 289728, Note_on_c, 3, 52, 100
7, 289820, Note_off_c, 3, 52, 0
7, 289824, Note_on_c, 3, 49, 100
7, 289916, Note_off_c, 3, 49, 0
7, 289920, Note_on_c, 3, 45, 100
7, 290048, Note_off_c, 3, 45, 0
7, 290112, Note_on_c, 3, 58, 100
7, 290492, Note_off_c, 3, 58, 0
7, 290496, Note_on_c, 3, 55, 100
7, 290588, Note_off_c, 3, 55, 0
7, 290592, Note_on_c, 3, 52, 100
7, 290684, Note_off_c, 3, 52, 0
7, 290688, Note_on_c, 3, 45, 100
7, 290816, Note_off_c, 3, 45, 0
7, 290880, Note_on_c, 3, 61, 100
7, 291260, Note_off_c, 3, 61, 0
7, 291264, Note_on_c, 3, 58, 100
7, 291356, Note_off_c, 3, 58, 0
7, 291360, Note_on_c, 3, 55, 100
7, 291452, Note_off_c, 3, 55, 0
7, 291456, Note_on_c, 3, 45, 100
7, 291584, Note_off_c, 3, 45, 0
7, 291648, Note_on_c, 3, 64, 100
7, 292028, Note_off_c, 3, 64, 0
7, 292032, Note_on_c, 3, 61, 100
7, 292124, Note_off_c, 3, 61, 0
7, 292128, Note_on_c, 3, 57, 100
7, 292220, Note_off_c, 3, 57, 0
7, 292224, Note_on_c, 3, 58, 100
7, 292316, Note_off_c, 3, 58, 0
7, 292320, Note_on_c, 3, 55, 100
7, 292412, Note_off_c, 3, 55, 0
7, 292416, Note_on_c, 3, 57, 100
7, 292508, Note_off_c, 3, 57, 0
7, 292512, Note_on_c, 3, 53, 100
7, 292604, Note_off_c, 3, 53, 0
7, 292608, Note_on_c, 3, 55, 100
7, 292700, Note_off_c, 3, 55, 0
7, 292704, Note_on_c, 3, 52, 100
7, 292796, Note_off_c, 3, 52, 0
7, 292800, Note_on_c, 3, 53, 100
7, 292892, Note_off_c, 3, 53, 0
7, 292896, Note_on_c, 3, 50, 100
7, 292988, Note_off_c, 3, 50, 0
7, 292992, Note_on_c, 3, 52, 100
7, 293084, Note_off_c, 3, 52, 0
7, 293088, Note_on_c, 3, 49, 100
7, 293180, Note_off_c, 3, 49, 0
7, 293184, Note_on_c, 3, 50, 100
7, 293276, Note_off_c, 3, 50, 0
7, 293280, Note_on_c, 3, 47, 100
7, 293372, Note_off_c, 3, 47, 0
7, 293376, Note_on_c, 3, 49, 100
7, 293468, Note_off_c, 3, 49, 0
7, 293472, Note_on_c, 3, 45, 100
7, 293564, Note_off_c, 3, 45, 0
7, 293568, Note_on_c, 3, 47, 100
7, 293660, Note_off_c, 3, 47, 0
7, 293664, Note_on_c, 3, 49, 100
7, 293756, Note_off_c, 3, 49, 0
7, 293760, Note_on_c, 3, 50, 100
7, 293852, Note_off_c, 3, 50, 0
7, 293856, Note_on_c, 3, 52, 100
7, 293948, Note_off_c, 3, 52, 0
7, 293952, Note_on_c, 3, 53, 100
7, 294044, Note_off_c, 3, 53, 0
7, 294048, Note_on_c, 3, 55, 100
7, 294140, Note_off_c, 3, 55, 0
7, 294144, Note_on_c, 3, 57, 100
7, 294236, Note_off_c, 3, 57, 0
7, 294240, Note_on_c, 3, 58, 100
7, 294332, Note_off_c, 3, 58, 0
7, 294336, Note_on_c, 3, 60, 100
7, 294464, Note_off_c, 3, 60, 0
7, 294528, Note_on_c, 3, 60, 100
7, 294620, Note_off_c, 3, 60, 0
7, 294624, Note_on_c, 3, 62, 100
7, 294716, Note_off_c, 3, 62, 0
7, 294720, Note_on_c, 3, 63, 100
7, 294848, Note_off_c, 3, 63, 0
7, 294912, Note_on_c, 3, 54, 100
7, 295020, Note_off_c, 3, 54, 0
7, 295104, Note_on_c, 3, 55, 100
7, 295212, Note_off_c, 3, 55, 0
7, 295296, Note_on_c, 3, 49, 100
7, 295404, Note_off_c, 3, 49, 0
7, 295488, Note_on_c, 3, 50, 100
7, 295596, Note_off_c, 3, 50, 0
7, 295680, Note_on_c, 3, 44, 100
7, 295868, Note_off_c, 3, 44, 0
7, 296064, Note_on_c, 3, 45, 100
7, 296252, Note_off_c, 3, 45, 0
7, 296448, Note_on_c, 3, 38, 100
7, 297212, Note_off_c, 3, 38, 0
7, 297212, End_track
8, 0, Start_track
8, 0, Title_t, "Bass"
8, 0, Control_c, 3, 0, 0
8, 0, Program_c, 3, 43
8, 0, Control_c, 3, 7, 79
8, 0, Control_c, 3, 10, 32
8, 0, Control_c, 3, 93, 14
8, 0, Key_signature, -1, "minor"
8, 0, Note_on_c, 3, 38, 100
8, 96, Note_off_c, 3, 38, 0
8, 96, Note_on_c, 3, 40, 100
8, 192, Note_off_c, 3, 40, 0
8, 192, Note_on_c, 3, 41, 100
8, 320, Note_off_c, 3, 41, 0
8, 384, Note_on_c, 3, 40, 100
8, 576, Note_off_c, 3, 40, 0
8, 576, Note_on_c, 3, 38, 100
8, 768, Note_off_c, 3, 38, 0
8, 768, Note_on_c, 3, 45, 100
8, 960, Note_off_c, 3, 45, 0
8, 960, Note_on_c, 3, 50, 100
8, 1344, Note_off_c, 3, 50, 0
8, 1344, Note_on_c, 3, 45, 100
8, 1536, Note_off_c, 3, 45, 0
8, 1536, Note_on_c, 3, 46, 100
8, 1724, Note_off_c, 3, 46, 0
8, 1728, Note_on_c, 3, 43, 100
8, 1820, Note_off_c, 3, 43, 0
8, 1824, Note_on_c, 3, 40, 100
8, 1916, Note_off_c, 3, 40, 0
8, 1920, Note_on_c, 3, 45, 100
8, 2108, Note_off_c, 3, 45, 0
8, 2112, Note_on_c, 3, 41, 100
8, 2204, Note_off_c, 3, 41, 0
8, 2208, Note_on_c, 3, 38, 100
8, 2300, Note_off_c, 3, 38, 0
8, 2304, Note_on_c, 3, 43, 100
8, 2492, Note_off_c, 3, 43, 0
8, 2496, Note_on_c, 3, 40, 100
8, 2588, Note_off_c, 3, 40, 0
8, 2592, Note_on_c, 3, 37, 100
8, 2684, Note_off_c, 3, 37, 0
8, 2688, Note_on_c, 3, 33, 100
8, 2816, Note_off_c, 3, 33, 0
8, 2880, Note_on_c, 3, 46, 100
8, 3260, Note_off_c, 3, 46, 0
8, 3264, Note_on_c, 3, 43, 100
8, 3356, Note_off_c, 3, 43, 0
8, 3360, Note_on_c, 3, 40, 100
8, 3452, Note_off_c, 3, 40, 0
8, 3456, Note_on_c, 3, 33, 100
8, 3584, Note_off_c, 3, 33, 0
8, 3648, Note_on_c, 3, 49, 100
8, 4028, Note_off_c, 3, 49, 0
8, 4032, Note_on_c, 3, 46, 100
8, 4124, Note_off_c, 3, 46, 0
8, 4128, Note_on_c, 3, 43, 100
8, 4220, Note_off_c, 3, 43, 0
8, 4224, Note_on_c, 3, 33, 100
8, 4352, Note_off_c, 3, 33, 0
8, 4416, Note_on_c, 3, 52, 100
8, 4796, Note_off_c, 3, 52, 0
8, 4800, Note_on_c, 3, 49, 100
8, 4892, Note_off_c, 3, 49, 0
8, 4896, Note_on_c, 3, 45, 100
8, 4988, Note_off_c, 3, 45, 0
8, 4992, Note_on_c, 3, 46, 100
8, 5084, Note_off_c, 3, 46, 0
8, 5088, Note_on_c, 3, 43, 100
8, 5180, Note_off_c, 3, 43, 0
8, 5184, Note_on_c, 3, 45, 100
8, 5276, Note_off_c, 3, 45, 0
8, 5280, Note_on_c, 3, 41, 100
8, 5372, Note_off_c, 3, 41, 0
8, 5376, Note_on_c, 3, 43, 100
8, 5468, Note_off_c, 3, 43, 0
8, 5472, Note_on_c, 3, 40, 100
8, 5564, Note_off_c, 3, 40, 0
8, 5568, Note_on_c, 3, 41, 100
8, 5660, Note_off_c, 3, 41, 0
8, 5664, Note_on_c, 3, 38, 100
8, 5756, Note_off_c, 3, 38, 0
8, 5760, Note_on_c, 3, 40, 100
8, 5852, Note_off_c, 3, 40, 0
8, 5856, Note_on_c, 3, 37, 100
8, 5948, Note_off_c, 3, 37, 0
8, 5952, Note_on_c, 3, 38, 100
8, 6044, Note_off_c, 3, 38, 0
8, 6048, Note_on_c, 3, 35, 100
8, 6140, Note_off_c, 3, 35, 0
8, 6144, Note_on_c, 3, 37, 100
8, 6236, Note_off_c, 3, 37, 0
8, 6240, Note_on_c, 3, 33, 100
8, 6332, Note_off_c, 3, 33, 0
8, 6336, Note_on_c, 3, 35, 100
8, 6428, Note_off_c, 3, 35, 0
8, 6432, Note_on_c, 3, 37, 100
8, 6524, Note_off_c, 3, 37, 0
8, 6528, Note_on_c, 3, 38, 100
8, 6620, Note_off_c, 3, 38, 0
8, 6624, Note_on_c, 3, 40, 100
8, 6716, Note_off_c, 3, 40, 0
8, 6720, Note_on_c, 3, 41, 100
8, 6812, Note_off_c, 3, 41, 0
8, 6816, Note_on_c, 3, 43, 100
8, 6908, Note_off_c, 3, 43, 0
8, 6912, Note_on_c, 3, 45, 100
8, 7004, Note_off_c, 3, 45, 0
8, 7008, Note_on_c, 3, 46, 100
8, 7100, Note_off_c, 3, 46, 0
8, 7104, Note_on_c, 3, 48, 100
8, 7232, Note_off_c, 3, 48, 0
8, 7296, Note_on_c, 3, 48, 100
8, 7388, Note_off_c, 3, 48, 0
8, 7392, Note_on_c, 3, 50, 100
8, 7484, Note_off_c, 3, 50, 0
8, 7488, Note_on_c, 3, 51, 100
8, 7616, Note_off_c, 3, 51, 0
8, 7680, Note_on_c, 3, 42, 100
8, 7788, Note_off_c, 3, 42, 0
8, 7872, Note_on_c, 3, 43, 100
8, 7980, Note_off_c, 3, 43, 0
8, 8064, Note_on_c, 3, 37, 100
8, 8172, Note_off_c, 3, 37, 0
8, 8256, Note_on_c, 3, 38, 100
8, 8364, Note_off_c, 3, 38, 0
8, 8448, Note_on_c, 3, 32, 100
8, 8636, Note_off_c, 3, 32, 0
8, 8832, Note_on_c, 3, 33, 100
8, 9020, Note_off_c, 3, 33, 0
8, 9216, Note_on_c, 3, 26, 85
8, 9596, Note_off_c, 3, 26, 0
8, 11520, Note_on_c, 3, 26, 85
8, 11900, Note_off_c, 3, 26, 0
8, 13824, Note_on_c, 3, 26, 85
8, 14204, Note_off_c, 3, 26, 0
8, 16128, Note_on_c, 3, 26, 85
8, 16508, Note_off_c, 3, 26, 0
8, 18432, Note_on_c, 3, 26, 100
8, 18816, Note_off_c, 3, 26, 0
8, 19200, Note_on_c, 3, 38, 100
8, 19296, Note_off_c, 3, 38, 0
8, 19296, Note_on_c, 3, 40, 100
8, 19392, Note_off_c, 3, 40, 0
8, 19392, Note_on_c, 3, 41, 100
8, 19520, Note_off_c, 3, 41, 0
8, 19584, Note_on_c, 3, 40, 100
8, 19776, Note_off_c, 3, 40, 0
8, 19776, Note_on_c, 3, 38, 100
8, 19968, Note_off_c, 3, 38, 0
8, 19968, Note_on_c, 3, 43, 100
8, 20160, Note_off_c, 3, 43, 0
8, 20352, Note_on_c, 3, 41, 100
8, 20544, Note_off_c, 3, 41, 0
8, 20736, Note_on_c, 3, 40, 100
8, 20928, Note_off_c, 3, 40, 0
8, 21120, Note_on_c, 3, 38, 100
8, 21312, Note_off_c, 3, 38, 0
8, 21504, Note_on_c, 3, 37, 100
8, 21696, Note_off_c, 3, 37, 0
8, 21888, Note_on_c, 3, 38, 100
8, 22080, Note_off_c, 3, 38, 0
8, 22272, Note_on_c, 3, 40, 100
8, 22464, Note_off_c, 3, 40, 0
8, 22656, Note_on_c, 3, 41, 100
8, 22848, Note_off_c, 3, 41, 0
8, 23040, Note_on_c, 3, 43, 100
8, 23232, Note_off_c, 3, 43, 0
8, 23232, Note_on_c, 3, 43, 100
8, 23424, Note_off_c, 3, 43, 0
8, 23424, Note_on_c, 3, 43, 100
8, 23616, Note_off_c, 3, 43, 0
8, 23616, Note_on_c, 3, 43, 100
8, 23808, Note_off_c, 3, 43, 0
8, 23808, Note_on_c, 3, 43, 100
8, 24000, Note_off_c, 3, 43, 0
8, 24000, Note_on_c, 3, 43, 100
8, 24192, Note_off_c, 3, 43, 0
8, 24192, Note_on_c, 3, 43, 100
8, 24384, Note_off_c, 3, 43, 0
8, 24384, Note_on_c, 3, 43, 100
8, 24576, Note_off_c, 3, 43, 0
8, 24576, Note_on_c, 3, 43, 100
8, 24956, Note_off_c, 3, 43, 0
8, 25344, Note_on_c, 3, 42, 100
8, 25436, Note_off_c, 3, 42, 0
8, 25440, Note_on_c, 3, 43, 100
8, 25532, Note_off_c, 3, 43, 0
8, 25536, Note_on_c, 3, 45, 100
8, 25664, Note_off_c, 3, 45, 0
8, 25728, Note_on_c, 3, 45, 100
8, 25820, Note_off_c, 3, 45, 0
8, 25824, Note_on_c, 3, 46, 100
8, 25916, Note_off_c, 3, 46, 0
8, 25920, Note_on_c, 3, 48, 100
8, 26048, Note_off_c, 3, 48, 0
8, 26112, Note_on_c, 3, 48, 100
8, 26300, Note_off_c, 3, 48, 0
8, 26304, Note_on_c, 3, 47, 100
8, 26432, Note_off_c, 3, 47, 0
8, 26496, Note_on_c, 3, 46, 100
8, 26684, Note_off_c, 3, 46, 0
8, 26688, Note_on_c, 3, 45, 100
8, 26816, Note_off_c, 3, 45, 0
8, 26880, Note_on_c, 3, 45, 100
8, 27068, Note_off_c, 3, 45, 0
8, 27072, Note_on_c, 3, 44, 100
8, 27200, Note_off_c, 3, 44, 0
8, 27264, Note_on_c, 3, 43, 100
8, 27452, Note_off_c, 3, 43, 0
8, 27456, Note_on_c, 3, 41, 100
8, 27584, Note_off_c, 3, 41, 0
8, 27648, Note_on_c, 3, 32, 100
8, 27836, Note_off_c, 3, 32, 0
8, 27840, Note_on_c, 3, 33, 100
8, 28028, Note_off_c, 3, 33, 0
8, 28032, Note_on_c, 3, 33, 100
8, 28220, Note_off_c, 3, 33, 0
8, 28224, Note_on_c, 3, 35, 100
8, 28412, Note_off_c, 3, 35, 0
8, 28416, Note_on_c, 3, 35, 100
8, 28604, Note_off_c, 3, 35, 0
8, 28608, Note_on_c, 3, 36, 100
8, 28796, Note_off_c, 3, 36, 0
8, 28800, Note_on_c, 3, 36, 100
8, 28988, Note_off_c, 3, 36, 0
8, 28992, Note_on_c, 3, 38, 100
8, 29180, Note_off_c, 3, 38, 0
8, 29184, Note_on_c, 3, 38, 100
8, 29564, Note_off_c, 3, 38, 0
8, 29952, Note_on_c, 3, 37, 100
8, 30044, Note_off_c, 3, 37, 0
8, 30048, Note_on_c, 3, 38, 100
8, 30140, Note_off_c, 3, 38, 0
8, 30144, Note_on_c, 3, 40, 100
8, 30272, Note_off_c, 3, 40, 0
8, 30336, Note_on_c, 3, 40, 100
8, 30428, Note_off_c, 3, 40, 0
8, 30432, Note_on_c, 3, 41, 100
8, 30524, Note_off_c, 3, 41, 0
8, 30528, Note_on_c, 3, 43, 100
8, 30656, Note_off_c, 3, 43, 0
8, 30720, Note_on_c, 3, 43, 100
8, 30908, Note_off_c, 3, 43, 0
8, 30912, Note_on_c, 3, 41, 100
8, 31020, Note_off_c, 3, 41, 0
8, 31104, Note_on_c, 3, 41, 100
8, 31292, Note_off_c, 3, 41, 0
8, 31296, Note_on_c, 3, 40, 100
8, 31404, Note_off_c, 3, 40, 0
8, 31488, Note_on_c, 3, 39, 100
8, 31680, Note_off_c, 3, 39, 0
8, 31872, Note_on_c, 3, 40, 100
8, 32064, Note_off_c, 3, 40, 0
8, 32256, Note_on_c, 3, 33, 100
8, 32640, Note_off_c, 3, 33, 0
8, 34560, Note_on_c, 3, 33, 85
8, 34944, Note_off_c, 3, 33, 0
8, 36864, Note_on_c, 3, 33, 85
8, 37248, Note_off_c, 3, 33, 0
8, 39168, Note_on_c, 3, 33, 85
8, 39552, Note_off_c, 3, 33, 0
8, 41472, Note_on_c, 3, 45, 85
8, 41664, Note_off_c, 3, 45, 0
8, 41664, Note_on_c, 3, 45, 85
8, 41856, Note_off_c, 3, 45, 0
8, 41856, Note_on_c, 3, 45, 85
8, 42048, Note_off_c, 3, 45, 0
8, 42048, Note_on_c, 3, 45, 85
8, 42240, Note_off_c, 3, 45, 0
8, 42240, Note_on_c, 3, 43, 85
8, 42432, Note_off_c, 3, 43, 0
8, 42432, Note_on_c, 3, 43, 85
8, 42624, Note_off_c, 3, 43, 0
8, 42624, Note_on_c, 3, 43, 85
8, 42816, Note_off_c, 3, 43, 0
8, 42816, Note_on_c, 3, 43, 85
8, 43008, Note_off_c, 3, 43, 0
8, 43008, Note_on_c, 3, 41, 85
8, 43200, Note_off_c, 3, 41, 0
8, 43200, Note_on_c, 3, 41, 85
8, 43392, Note_off_c, 3, 41, 0
8, 43392, Note_on_c, 3, 41, 85
8, 43584, Note_off_c, 3, 41, 0
8, 43584, Note_on_c, 3, 41, 85
8, 43776, Note_off_c, 3, 41, 0
8, 43776, Note_on_c, 3, 42, 85
8, 43968, Note_off_c, 3, 42, 0
8, 43968, Note_on_c, 3, 42, 85
8, 44160, Note_off_c, 3, 42, 0
8, 44160, Note_on_c, 3, 42, 85
8, 44352, Note_off_c, 3, 42, 0
8, 44352, Note_on_c, 3, 42, 85
8, 44544, Note_off_c, 3, 42, 0
8, 44544, Note_on_c, 3, 43, 85
8, 44736, Note_off_c, 3, 43, 0
8, 44736, Note_on_c, 3, 43, 85
8, 44928, Note_off_c, 3, 43, 0
8, 44928, Note_on_c, 3, 43, 85
8, 45120, Note_off_c, 3, 43, 0
8, 45120, Note_on_c, 3, 43, 85
8, 45312, Note_off_c, 3, 43, 0
8, 45312, Note_on_c, 3, 41, 85
8, 45504, Note_off_c, 3, 41, 0
8, 45504, Note_on_c, 3, 41, 85
8, 45696, Note_off_c, 3, 41, 0
8, 45696, Note_on_c, 3, 41, 85
8, 45888, Note_off_c, 3, 41, 0
8, 45888, Note_on_c, 3, 41, 85
8, 46080, Note_off_c, 3, 41, 0
8, 46080, Note_on_c, 3, 40, 85
8, 46272, Note_off_c, 3, 40, 0
8, 46272, Note_on_c, 3, 40, 85
8, 46464, Note_off_c, 3, 40, 0
8, 46464, Note_on_c, 3, 40, 85
8, 46656, Note_off_c, 3, 40, 0
8, 46656, Note_on_c, 3, 40, 85
8, 46848, Note_off_c, 3, 40, 0
8, 46848, Note_on_c, 3, 40, 85
8, 47040, Note_off_c, 3, 40, 0
8, 47040, Note_on_c, 3, 40, 85
8, 47232, Note_off_c, 3, 40, 0
8, 47232, Note_on_c, 3, 40, 85
8, 47424, Note_off_c, 3, 40, 0
8, 47424, Note_on_c, 3, 40, 85
8, 47616, Note_off_c, 3, 40, 0
8, 47616, Note_on_c, 3, 41, 85
8, 47808, Note_off_c, 3, 41, 0
8, 47808, Note_on_c, 3, 41, 85
8, 48000, Note_off_c, 3, 41, 0
8, 48000, Note_on_c, 3, 41, 85
8, 48192, Note_off_c, 3, 41, 0
8, 48192, Note_on_c, 3, 41, 85
8, 48384, Note_off_c, 3, 41, 0
8, 48384, Note_on_c, 3, 39, 85
8, 48576, Note_off_c, 3, 39, 0
8, 48576, Note_on_c, 3, 39, 85
8, 48768, Note_off_c, 3, 39, 0
8, 48768, Note_on_c, 3, 39, 85
8, 48960, Note_off_c, 3, 39, 0
8, 48960, Note_on_c, 3, 39, 85
8, 49152, Note_off_c, 3, 39, 0
8, 49152, Note_on_c, 3, 38, 85
8, 49344, Note_off_c, 3, 38, 0
8, 49344, Note_on_c, 3, 38, 85
8, 49536, Note_off_c, 3, 38, 0
8, 49536, Note_on_c, 3, 38, 85
8, 49728, Note_off_c, 3, 38, 0
8, 49728, Note_on_c, 3, 38, 85
8, 49920, Note_off_c, 3, 38, 0
8, 49920, Note_on_c, 3, 38, 85
8, 50112, Note_off_c, 3, 38, 0
8, 50112, Note_on_c, 3, 38, 85
8, 50304, Note_off_c, 3, 38, 0
8, 50304, Note_on_c, 3, 38, 85
8, 50496, Note_off_c, 3, 38, 0
8, 50496, Note_on_c, 3, 38, 85
8, 50688, Note_off_c, 3, 38, 0
8, 50688, Note_on_c, 3, 38, 85
8, 51072, Note_off_c, 3, 38, 0
8, 51456, Note_on_c, 3, 36, 85
8, 51840, Note_off_c, 3, 36, 0
8, 52224, Note_on_c, 3, 36, 85
8, 52608, Note_off_c, 3, 36, 0
8, 52992, Note_on_c, 3, 34, 85
8, 53376, Note_off_c, 3, 34, 0
8, 53760, Note_on_c, 3, 34, 85
8, 54144, Note_off_c, 3, 34, 0
8, 54528, Note_on_c, 3, 33, 85
8, 54912, Note_off_c, 3, 33, 0
8, 54912, Note_on_c, 3, 45, 85
8, 55680, Note_off_c, 3, 45, 0
8, 55680, Note_on_c, 3, 43, 85
8, 56448, Note_off_c, 3, 43, 0
8, 56448, Note_on_c, 3, 41, 85
8, 57216, Note_off_c, 3, 41, 0
8, 57216, Note_on_c, 3, 40, 85
8, 57600, Note_off_c, 3, 40, 0
8, 57600, Note_on_c, 3, 41, 85
8, 57984, Note_off_c, 3, 41, 0
8, 58176, Note_on_c, 3, 40, 100
8, 58368, Note_off_c, 3, 40, 0
8, 58368, Note_on_c, 3, 38, 100
8, 58752, Note_off_c, 3, 38, 0
8, 58944, Note_on_c, 3, 36, 100
8, 59036, Note_off_c, 3, 36, 0
8, 59040, Note_on_c, 3, 34, 100
8, 59132, Note_off_c, 3, 34, 0
8, 59136, Note_on_c, 3, 33, 100
8, 59244, Note_off_c, 3, 33, 0
8, 59328, Note_on_c, 3, 34, 100
8, 59436, Note_off_c, 3, 34, 0
8, 59520, Note_on_c, 3, 36, 100
8, 59628, Note_off_c, 3, 36, 0
8, 59712, Note_on_c, 3, 24, 100
8, 59820, Note_off_c, 3, 24, 0
8, 59904, Note_on_c, 3, 29, 85
8, 60092, Note_off_c, 3, 29, 0
8, 60096, Note_on_c, 3, 29, 85
8, 60284, Note_off_c, 3, 29, 0
8, 60288, Note_on_c, 3, 29, 85
8, 60476, Note_off_c, 3, 29, 0
8, 60480, Note_on_c, 3, 29, 85
8, 60668, Note_off_c, 3, 29, 0
8, 60672, Note_on_c, 3, 29, 85
8, 60860, Note_off_c, 3, 29, 0
8, 60864, Note_on_c, 3, 29, 85
8, 61052, Note_off_c, 3, 29, 0
8, 61056, Note_on_c, 3, 29, 85
8, 61244, Note_off_c, 3, 29, 0
8, 61248, Note_on_c, 3, 29, 85
8, 61436, Note_off_c, 3, 29, 0
8, 61440, Note_on_c, 3, 29, 85
8, 61628, Note_off_c, 3, 29, 0
8, 61632, Note_on_c, 3, 29, 85
8, 61820, Note_off_c, 3, 29, 0
8, 61824, Note_on_c, 3, 29, 85
8, 62012, Note_off_c, 3, 29, 0
8, 62016, Note_on_c, 3, 29, 85
8, 62204, Note_off_c, 3, 29, 0
8, 62208, Note_on_c, 3, 29, 85
8, 62396, Note_off_c, 3, 29, 0
8, 62400, Note_on_c, 3, 29, 85
8, 62588, Note_off_c, 3, 29, 0
8, 62592, Note_on_c, 3, 29, 85
8, 62780, Note_off_c, 3, 29, 0
8, 62784, Note_on_c, 3, 29, 85
8, 62972, Note_off_c, 3, 29, 0
8, 62976, Note_on_c, 3, 29, 100
8, 63356, Note_off_c, 3, 29, 0
8, 63936, Note_on_c, 3, 38, 100
8, 64124, Note_off_c, 3, 38, 0
8, 64128, Note_on_c, 3, 40, 100
8, 64316, Note_off_c, 3, 40, 0
8, 64320, Note_on_c, 3, 42, 100
8, 64508, Note_off_c, 3, 42, 0
8, 64512, Note_on_c, 3, 43, 100
8, 64892, Note_off_c, 3, 43, 0
8, 65472, Note_on_c, 3, 40, 100
8, 65660, Note_off_c, 3, 40, 0
8, 65664, Note_on_c, 3, 42, 100
8, 65852, Note_off_c, 3, 42, 0
8, 65856, Note_on_c, 3, 44, 100
8, 66044, Note_off_c, 3, 44, 0
8, 66048, Note_on_c, 3, 45, 100
8, 66428, Note_off_c, 3, 45, 0
8, 67008, Note_on_c, 3, 33, 100
8, 67196, Note_off_c, 3, 33, 0
8, 67200, Note_on_c, 3, 35, 100
8, 67388, Note_off_c, 3, 35, 0
8, 67392, Note_on_c, 3, 37, 100
8, 67580, Note_off_c, 3, 37, 0
8, 67584, Note_on_c, 3, 38, 100
8, 67772, Note_off_c, 3, 38, 0
8, 67776, Note_on_c, 3, 37, 100
8, 67964, Note_off_c, 3, 37, 0
8, 67968, Note_on_c, 3, 38, 100
8, 68156, Note_off_c, 3, 38, 0
8, 68160, Note_on_c, 3, 40, 100
8, 68348, Note_off_c, 3, 40, 0
8, 68352, Note_on_c, 3, 41, 100
8, 68540, Note_off_c, 3, 41, 0
8, 68544, Note_on_c, 3, 40, 100
8, 68732, Note_off_c, 3, 40, 0
8, 68736, Note_on_c, 3, 41, 100
8, 68924, Note_off_c, 3, 41, 0
8, 68928, Note_on_c, 3, 38, 100
8, 69116, Note_off_c, 3, 38, 0
8, 69120, Note_on_c, 3, 40, 85
8, 69500, Note_off_c, 3, 40, 0
8, 69888, Note_on_c, 3, 40, 85
8, 70268, Note_off_c, 3, 40, 0
8, 70656, Note_on_c, 3, 33, 85
8, 71036, Note_off_c, 3, 33, 0
8, 71424, Note_on_c, 3, 33, 85
8, 71804, Note_off_c, 3, 33, 0
8, 72192, Note_on_c, 3, 45, 85
8, 72572, Note_off_c, 3, 45, 0
8, 72960, Note_on_c, 3, 45, 85
8, 73340, Note_off_c, 3, 45, 0
8, 73728, Note_on_c, 3, 38, 85
8, 74108, Note_off_c, 3, 38, 0
8, 74496, Note_on_c, 3, 38, 85
8, 74876, Note_off_c, 3, 38, 0
8, 75264, Note_on_c, 3, 47, 85
8, 75644, Note_off_c, 3, 47, 0
8, 76032, Note_on_c, 3, 47, 85
8, 76412, Note_off_c, 3, 47, 0
8, 76800, Note_on_c, 3, 40, 85
8, 77180, Note_off_c, 3, 40, 0
8, 77568, Note_on_c, 3, 40, 85
8, 77948, Note_off_c, 3, 40, 0
8, 78336, Note_on_c, 3, 45, 85
8, 78716, Note_off_c, 3, 45, 0
8, 79104, Note_on_c, 3, 43, 85
8, 79484, Note_off_c, 3, 43, 0
8, 79872, Note_on_c, 3, 41, 85
8, 80252, Note_off_c, 3, 41, 0
8, 80640, Note_on_c, 3, 40, 85
8, 81020, Note_off_c, 3, 40, 0
8, 81408, Note_on_c, 3, 38, 85
8, 81788, Note_off_c, 3, 38, 0
8, 82176, Note_on_c, 3, 32, 85
8, 82556, Note_off_c, 3, 32, 0
8, 82944, Note_on_c, 3, 33, 85
8, 83324, Note_off_c, 3, 33, 0
8, 83520, Note_on_c, 3, 33, 85
8, 83612, Note_off_c, 3, 33, 0
8, 83616, Note_on_c, 3, 35, 85
8, 83708, Note_off_c, 3, 35, 0
8, 83712, Note_on_c, 3, 36, 85
8, 83900, Note_off_c, 3, 36, 0
8, 83904, Note_on_c, 3, 38, 85
8, 84092, Note_off_c, 3, 38, 0
8, 84096, Note_on_c, 3, 40, 85
8, 84284, Note_off_c, 3, 40, 0
8, 84288, Note_on_c, 3, 28, 85
8, 84476, Note_off_c, 3, 28, 0
8, 84480, Note_on_c, 3, 33, 100
8, 84668, Note_off_c, 3, 33, 0
8, 84672, Note_on_c, 3, 33, 100
8, 84860, Note_off_c, 3, 33, 0
8, 84864, Note_on_c, 3, 33, 100
8, 85052, Note_off_c, 3, 33, 0
8, 85056, Note_on_c, 3, 33, 100
8, 85244, Note_off_c, 3, 33, 0
8, 85248, Note_on_c, 3, 33, 100
8, 85436, Note_off_c, 3, 33, 0
8, 85440, Note_on_c, 3, 33, 100
8, 85628, Note_off_c, 3, 33, 0
8, 85632, Note_on_c, 3, 33, 100
8, 85820, Note_off_c, 3, 33, 0
8, 85824, Note_on_c, 3, 33, 100
8, 86012, Note_off_c, 3, 33, 0
8, 86016, Note_on_c, 3, 33, 100
8, 86204, Note_off_c, 3, 33, 0
8, 86208, Note_on_c, 3, 33, 100
8, 86396, Note_off_c, 3, 33, 0
8, 86400, Note_on_c, 3, 33, 100
8, 86588, Note_off_c, 3, 33, 0
8, 86592, Note_on_c, 3, 33, 100
8, 86780, Note_off_c, 3, 33, 0
8, 86784, Note_on_c, 3, 33, 100
8, 86972, Note_off_c, 3, 33, 0
8, 86976, Note_on_c, 3, 33, 100
8, 87164, Note_off_c, 3, 33, 0
8, 87168, Note_on_c, 3, 33, 100
8, 87356, Note_off_c, 3, 33, 0
8, 87360, Note_on_c, 3, 33, 100
8, 87548, Note_off_c, 3, 33, 0
8, 87552, Note_on_c, 3, 33, 100
8, 87740, Note_off_c, 3, 33, 0
8, 87744, Note_on_c, 3, 33, 100
8, 87932, Note_off_c, 3, 33, 0
8, 87936, Note_on_c, 3, 33, 100
8, 88124, Note_off_c, 3, 33, 0
8, 88128, Note_on_c, 3, 33, 100
8, 88316, Note_off_c, 3, 33, 0
8, 88320, Note_on_c, 3, 33, 100
8, 88508, Note_off_c, 3, 33, 0
8, 88512, Note_on_c, 3, 33, 100
8, 88700, Note_off_c, 3, 33, 0
8, 88704, Note_on_c, 3, 33, 100
8, 88892, Note_off_c, 3, 33, 0
8, 88896, Note_on_c, 3, 33, 100
8, 89084, Note_off_c, 3, 33, 0
8, 89088, Note_on_c, 3, 33, 100
8, 89088, Note_on_c, 3, 33, 100
8, 89468, Note_off_c, 3, 33, 0
8, 89468, Note_off_c, 3, 33, 0
8, 91392, Note_on_c, 3, 37, 100
8, 91484, Note_off_c, 3, 37, 0
8, 91488, Note_on_c, 3, 38, 100
8, 91580, Note_off_c, 3, 38, 0
8, 91584, Note_on_c, 3, 40, 100
8, 91712, Note_off_c, 3, 40, 0
8, 91776, Note_on_c, 3, 40, 100
8, 91868, Note_off_c, 3, 40, 0
8, 91872, Note_on_c, 3, 41, 100
8, 91964, Note_off_c, 3, 41, 0
8, 91968, Note_on_c, 3, 43, 100
8, 92096, Note_off_c, 3, 43, 0
8, 92160, Note_on_c, 3, 43, 100
8, 92348, Note_off_c, 3, 43, 0
8, 92352, Note_on_c, 3, 41, 100
8, 92480, Note_off_c, 3, 41, 0
8, 92544, Note_on_c, 3, 41, 100
8, 92732, Note_off_c, 3, 41, 0
8, 92736, Note_on_c, 3, 40, 100
8, 92864, Note_off_c, 3, 40, 0
8, 92928, Note_on_c, 3, 39, 100
8, 93116, Note_off_c, 3, 39, 0
8, 93312, Note_on_c, 3, 40, 100
8, 93500, Note_off_c, 3, 40, 0
8, 93696, Note_on_c, 3, 33, 100
8, 94076, Note_off_c, 3, 33, 0
8, 95232, Note_on_c, 3, 33, 85
8, 95612, Note_off_c, 3, 33, 0
8, 96768, Note_on_c, 3, 33, 85
8, 97148, Note_off_c, 3, 33, 0
8, 98304, Note_on_c, 3, 33, 85
8, 98684, Note_off_c, 3, 33, 0
8, 99840, Note_on_c, 3, 33, 85
8, 100220, Note_off_c, 3, 33, 0
8, 101376, Note_on_c, 3, 33, 85
8, 101756, Note_off_c, 3, 33, 0
8, 104640, Note_on_c, 3, 45, 100
8, 105020, Note_off_c, 3, 45, 0
8, 105024, Note_on_c, 3, 43, 100
8, 105212, Note_off_c, 3, 43, 0
8, 105216, Note_on_c, 3, 42, 100
8, 105404, Note_off_c, 3, 42, 0
8, 105408, Note_on_c, 3, 47, 100
8, 105788, Note_off_c, 3, 47, 0
8, 105792, Note_on_c, 3, 35, 100
8, 105980, Note_off_c, 3, 35, 0
8, 105984, Note_on_c, 3, 40, 100
8, 106364, Note_off_c, 3, 40, 0
8, 107520, Note_on_c, 3, 40, 85
8, 107900, Note_off_c, 3, 40, 0
8, 109056, Note_on_c, 3, 40, 85
8, 109436, Note_off_c, 3, 40, 0
8, 110592, Note_on_c, 3, 40, 85
8, 110972, Note_off_c, 3, 40, 0
8, 112128, Note_on_c, 3, 40, 85
8, 112508, Note_off_c, 3, 40, 0
8, 113664, Note_on_c, 3, 40, 85
8, 114044, Note_off_c, 3, 40, 0
8, 138240, Note_on_c, 3, 24, 85
8, 138432, Note_off_c, 3, 24, 0
8, 138432, Note_on_c, 3, 24, 85
8, 138624, Note_off_c, 3, 24, 0
8, 138624, Note_on_c, 3, 24, 85
8, 138816, Note_off_c, 3, 24, 0
8, 138816, Note_on_c, 3, 24, 85
8, 139008, Note_off_c, 3, 24, 0
8, 139008, Note_on_c, 3, 24, 85
8, 139200, Note_off_c, 3, 24, 0
8, 139200, Note_on_c, 3, 24, 85
8, 139392, Note_off_c, 3, 24, 0
8, 139392, Note_on_c, 3, 24, 85
8, 139584, Note_off_c, 3, 24, 0
8, 139584, Note_on_c, 3, 24, 85
8, 139776, Note_off_c, 3, 24, 0
8, 139776, Note_on_c, 3, 24, 85
8, 139968, Note_off_c, 3, 24, 0
8, 139968, Note_on_c, 3, 24, 85
8, 140160, Note_off_c, 3, 24, 0
8, 140160, Note_on_c, 3, 24, 85
8, 140352, Note_off_c, 3, 24, 0
8, 140352, Note_on_c, 3, 24, 85
8, 140544, Note_off_c, 3, 24, 0
8, 140544, Note_on_c, 3, 24, 85
8, 140736, Note_off_c, 3, 24, 0
8, 140736, Note_on_c, 3, 24, 85
8, 140928, Note_off_c, 3, 24, 0
8, 140928, Note_on_c, 3, 24, 85
8, 141120, Note_off_c, 3, 24, 0
8, 141120, Note_on_c, 3, 24, 85
8, 141312, Note_off_c, 3, 24, 0
8, 141312, Note_on_c, 3, 24, 100
8, 141596, Note_off_c, 3, 24, 0
8, 142272, Note_on_c, 3, 33, 100
8, 142460, Note_off_c, 3, 33, 0
8, 142464, Note_on_c, 3, 35, 100
8, 142652, Note_off_c, 3, 35, 0
8, 142656, Note_on_c, 3, 37, 100
8, 142844, Note_off_c, 3, 37, 0
8, 142848, Note_on_c, 3, 38, 100
8, 143132, Note_off_c, 3, 38, 0
8, 143808, Note_on_c, 3, 38, 100
8, 143980, Note_off_c, 3, 38, 0
8, 144000, Note_on_c, 3, 40, 100
8, 144172, Note_off_c, 3, 40, 0
8, 144192, Note_on_c, 3, 42, 100
8, 144364, Note_off_c, 3, 42, 0
8, 144384, Note_on_c, 3, 43, 100
8, 144512, Note_off_c, 3, 43, 0
8, 144576, Note_on_c, 3, 42, 85
8, 144748, Note_off_c, 3, 42, 0
8, 144768, Note_on_c, 3, 43, 85
8, 144940, Note_off_c, 3, 43, 0
8, 144960, Note_on_c, 3, 45, 85
8, 145132, Note_off_c, 3, 45, 0
8, 145152, Note_on_c, 3, 46, 85
8, 145324, Note_off_c, 3, 46, 0
8, 145344, Note_on_c, 3, 50, 85
8, 145472, Note_off_c, 3, 50, 0
8, 145536, Note_on_c, 3, 46, 85
8, 145664, Note_off_c, 3, 46, 0
8, 145728, Note_on_c, 3, 43, 85
8, 145856, Note_off_c, 3, 43, 0
8, 145920, Note_on_c, 3, 45, 85
8, 146048, Note_off_c, 3, 45, 0
8, 146112, Note_on_c, 3, 43, 85
8, 146240, Note_off_c, 3, 43, 0
8, 146304, Note_on_c, 3, 45, 85
8, 146432, Note_off_c, 3, 45, 0
8, 146496, Note_on_c, 3, 46, 85
8, 146624, Note_off_c, 3, 46, 0
8, 146688, Note_on_c, 3, 48, 85
8, 146816, Note_off_c, 3, 48, 0
8, 146880, Note_on_c, 3, 51, 85
8, 147008, Note_off_c, 3, 51, 0
8, 147072, Note_on_c, 3, 48, 85
8, 147200, Note_off_c, 3, 48, 0
8, 147264, Note_on_c, 3, 45, 85
8, 147392, Note_off_c, 3, 45, 0
8, 147456, Note_on_c, 3, 46, 85
8, 147584, Note_off_c, 3, 46, 0
8, 147648, Note_on_c, 3, 48, 85
8, 147776, Note_off_c, 3, 48, 0
8, 147840, Note_on_c, 3, 46, 85
8, 147968, Note_off_c, 3, 46, 0
8, 148032, Note_on_c, 3, 45, 85
8, 148160, Note_off_c, 3, 45, 0
8, 148224, Note_on_c, 3, 43, 85
8, 148352, Note_off_c, 3, 43, 0
8, 148416, Note_on_c, 3, 46, 85
8, 148544, Note_off_c, 3, 46, 0
8, 148608, Note_on_c, 3, 43, 85
8, 148736, Note_off_c, 3, 43, 0
8, 148800, Note_on_c, 3, 39, 85
8, 148928, Note_off_c, 3, 39, 0
8, 148992, Note_on_c, 3, 36, 85
8, 149120, Note_off_c, 3, 36, 0
8, 149184, Note_on_c, 3, 43, 85
8, 149312, Note_off_c, 3, 43, 0
8, 149376, Note_on_c, 3, 39, 85
8, 149504, Note_off_c, 3, 39, 0
8, 149568, Note_on_c, 3, 38, 85
8, 149696, Note_off_c, 3, 38, 0
8, 149760, Note_on_c, 3, 36, 85
8, 149888, Note_off_c, 3, 36, 0
8, 149952, Note_on_c, 3, 31, 85
8, 150080, Note_off_c, 3, 31, 0
8, 150144, Note_on_c, 3, 27, 85
8, 150272, Note_off_c, 3, 27, 0
8, 150336, Note_on_c, 3, 24, 85
8, 150464, Note_off_c, 3, 24, 0
8, 150528, Note_on_c, 3, 36, 85
8, 150908, Note_off_c, 3, 36, 0
8, 151296, Note_on_c, 3, 36, 85
8, 151676, Note_off_c, 3, 36, 0
8, 152064, Note_on_c, 3, 37, 85
8, 152444, Note_off_c, 3, 37, 0
8, 152832, Note_on_c, 3, 37, 85
8, 153212, Note_off_c, 3, 37, 0
8, 153600, Note_on_c, 3, 39, 85
8, 153980, Note_off_c, 3, 39, 0
8, 154368, Note_on_c, 3, 39, 85
8, 154748, Note_off_c, 3, 39, 0
8, 155136, Note_on_c, 3, 38, 85
8, 155516, Note_off_c, 3, 38, 0
8, 155904, Note_on_c, 3, 38, 85
8, 156284, Note_off_c, 3, 38, 0
8, 156864, Note_on_c, 3, 50, 85
8, 157052, Note_off_c, 3, 50, 0
8, 157056, Note_on_c, 3, 46, 85
8, 157244, Note_off_c, 3, 46, 0
8, 157248, Note_on_c, 3, 43, 85
8, 157436, Note_off_c, 3, 43, 0
8, 157440, Note_on_c, 3, 39, 85
8, 157568, Note_off_c, 3, 39, 0
8, 157632, Note_on_c, 3, 36, 85
8, 157760, Note_off_c, 3, 36, 0
8, 157824, Note_on_c, 3, 38, 85
8, 157952, Note_off_c, 3, 38, 0
8, 158016, Note_on_c, 3, 26, 85
8, 158144, Note_off_c, 3, 26, 0
8, 158208, Note_on_c, 3, 31, 100
8, 158588, Note_off_c, 3, 31, 0
8, 158976, Note_on_c, 3, 43, 100
8, 159068, Note_off_c, 3, 43, 0
8, 159072, Note_on_c, 3, 45, 100
8, 159164, Note_off_c, 3, 45, 0
8, 159168, Note_on_c, 3, 46, 100
8, 159296, Note_off_c, 3, 46, 0
8, 159360, Note_on_c, 3, 45, 100
8, 159548, Note_off_c, 3, 45, 0
8, 159552, Note_on_c, 3, 43, 100
8, 159740, Note_off_c, 3, 43, 0
8, 159744, Note_on_c, 3, 48, 100
8, 159932, Note_off_c, 3, 48, 0
8, 160128, Note_on_c, 3, 46, 100
8, 160316, Note_off_c, 3, 46, 0
8, 160512, Note_on_c, 3, 45, 100
8, 160700, Note_off_c, 3, 45, 0
8, 160896, Note_on_c, 3, 43, 100
8, 161084, Note_off_c, 3, 43, 0
8, 161280, Note_on_c, 3, 42, 100
8, 161468, Note_off_c, 3, 42, 0
8, 161664, Note_on_c, 3, 43, 100
8, 161852, Note_off_c, 3, 43, 0
8, 162048, Note_on_c, 3, 45, 100
8, 162236, Note_off_c, 3, 45, 0
8, 162432, Note_on_c, 3, 46, 100
8, 162620, Note_off_c, 3, 46, 0
8, 162816, Note_on_c, 3, 48, 100
8, 162944, Note_off_c, 3, 48, 0
8, 163008, Note_on_c, 3, 48, 100
8, 163136, Note_off_c, 3, 48, 0
8, 163200, Note_on_c, 3, 48, 100
8, 163328, Note_off_c, 3, 48, 0
8, 163392, Note_on_c, 3, 48, 100
8, 163520, Note_off_c, 3, 48, 0
8, 163584, Note_on_c, 3, 48, 100
8, 163712, Note_off_c, 3, 48, 0
8, 163776, Note_on_c, 3, 48, 100
8, 163904, Note_off_c, 3, 48, 0
8, 163968, Note_on_c, 3, 48, 100
8, 164096, Note_off_c, 3, 48, 0
8, 164160, Note_on_c, 3, 48, 100
8, 164288, Note_off_c, 3, 48, 0
8, 164352, Note_on_c, 3, 48, 100
8, 164608, Note_off_c, 3, 48, 0
8, 165120, Note_on_c, 3, 35, 100
8, 165212, Note_off_c, 3, 35, 0
8, 165216, Note_on_c, 3, 36, 100
8, 165308, Note_off_c, 3, 36, 0
8, 165312, Note_on_c, 3, 38, 100
8, 165440, Note_off_c, 3, 38, 0
8, 165504, Note_on_c, 3, 38, 100
8, 165596, Note_off_c, 3, 38, 0
8, 165600, Note_on_c, 3, 39, 100
8, 165692, Note_off_c, 3, 39, 0
8, 165696, Note_on_c, 3, 41, 100
8, 165824, Note_off_c, 3, 41, 0
8, 165888, Note_on_c, 3, 41, 100
8, 166076, Note_off_c, 3, 41, 0
8, 166080, Note_on_c, 3, 39, 100
8, 166208, Note_off_c, 3, 39, 0
8, 166272, Note_on_c, 3, 39, 100
8, 166460, Note_off_c, 3, 39, 0
8, 166464, Note_on_c, 3, 38, 100
8, 166592, Note_off_c, 3, 38, 0
8, 166656, Note_on_c, 3, 37, 100
8, 167036, Note_off_c, 3, 37, 0
8, 177600, Note_on_c, 3, 39, 100
8, 177728, Note_off_c, 3, 39, 0
8, 177792, Note_on_c, 3, 36, 100
8, 177920, Note_off_c, 3, 36, 0
8, 177984, Note_on_c, 3, 38, 100
8, 178112, Note_off_c, 3, 38, 0
8, 178176, Note_on_c, 3, 31, 100
8, 178268, Note_off_c, 3, 31, 0
8, 178272, Note_on_c, 3, 33, 100
8, 178364, Note_off_c, 3, 33, 0
8, 178368, Note_on_c, 3, 34, 100
8, 178496, Note_off_c, 3, 34, 0
8, 178560, Note_on_c, 3, 33, 100
8, 178748, Note_off_c, 3, 33, 0
8, 178752, Note_on_c, 3, 31, 100
8, 178940, Note_off_c, 3, 31, 0
8, 178944, Note_on_c, 3, 36, 100
8, 179132, Note_off_c, 3, 36, 0
8, 179136, Note_on_c, 3, 43, 100
8, 179516, Note_off_c, 3, 43, 0
8, 179520, Note_on_c, 3, 36, 100
8, 179708, Note_off_c, 3, 36, 0
8, 179712, Note_on_c, 3, 29, 100
8, 179804, Note_off_c, 3, 29, 0
8, 179808, Note_on_c, 3, 31, 100
8, 179900, Note_off_c, 3, 31, 0
8, 179904, Note_on_c, 3, 33, 100
8, 180032, Note_off_c, 3, 33, 0
8, 180096, Note_on_c, 3, 31, 100
8, 180284, Note_off_c, 3, 31, 0
8, 180288, Note_on_c, 3, 29, 100
8, 180476, Note_off_c, 3, 29, 0
8, 180480, Note_on_c, 3, 34, 100
8, 180668, Note_off_c, 3, 34, 0
8, 180672, Note_on_c, 3, 41, 100
8, 181052, Note_off_c, 3, 41, 0
8, 181056, Note_on_c, 3, 34, 100
8, 181244, Note_off_c, 3, 34, 0
8, 181248, Note_on_c, 3, 28, 100
8, 181340, Note_off_c, 3, 28, 0
8, 181344, Note_on_c, 3, 29, 100
8, 181436, Note_off_c, 3, 29, 0
8, 181440, Note_on_c, 3, 31, 100
8, 181568, Note_off_c, 3, 31, 0
8, 181632, Note_on_c, 3, 29, 100
8, 181820, Note_off_c, 3, 29, 0
8, 181824, Note_on_c, 3, 28, 100
8, 181968, Note_on_c, 3, 33, 100
8, 182012, Note_off_c, 3, 28, 0
8, 182156, Note_off_c, 3, 33, 0
8, 182208, Note_on_c, 3, 40, 100
8, 182588, Note_off_c, 3, 40, 0
8, 182592, Note_on_c, 3, 33, 100
8, 182780, Note_off_c, 3, 33, 0
8, 182784, Note_on_c, 3, 26, 85
8, 182876, Note_off_c, 3, 26, 0
8, 182880, Note_on_c, 3, 28, 85
8, 182972, Note_off_c, 3, 28, 0
8, 182976, Note_on_c, 3, 29, 85
8, 183104, Note_off_c, 3, 29, 0
8, 183168, Note_on_c, 3, 28, 85
8, 183356, Note_off_c, 3, 28, 0
8, 183360, Note_on_c, 3, 26, 85
8, 183548, Note_off_c, 3, 26, 0
8, 183552, Note_on_c, 3, 33, 85
8, 183644, Note_off_c, 3, 33, 0
8, 183648, Note_on_c, 3, 35, 85
8, 183740, Note_off_c, 3, 35, 0
8, 183744, Note_on_c, 3, 37, 85
8, 183872, Note_off_c, 3, 37, 0
8, 183936, Note_on_c, 3, 35, 85
8, 184124, Note_off_c, 3, 35, 0
8, 184128, Note_on_c, 3, 33, 85
8, 184316, Note_off_c, 3, 33, 0
8, 184320, Note_on_c, 3, 38, 85
8, 184412, Note_off_c, 3, 38, 0
8, 184416, Note_on_c, 3, 40, 85
8, 184508, Note_off_c, 3, 40, 0
8, 184512, Note_on_c, 3, 41, 85
8, 184640, Note_off_c, 3, 41, 0
8, 184704, Note_on_c, 3, 40, 85
8, 184892, Note_off_c, 3, 40, 0
8, 184896, Note_on_c, 3, 38, 85
8, 185084, Note_off_c, 3, 38, 0
8, 185088, Note_on_c, 3, 45, 85
8, 185180, Note_off_c, 3, 45, 0
8, 185184, Note_on_c, 3, 47, 85
8, 185276, Note_off_c, 3, 47, 0
8, 185280, Note_on_c, 3, 49, 85
8, 185408, Note_off_c, 3, 49, 0
8, 185472, Note_on_c, 3, 47, 85
8, 185660, Note_off_c, 3, 47, 0
8, 185664, Note_on_c, 3, 45, 85
8, 185852, Note_off_c, 3, 45, 0
8, 185856, Note_on_c, 3, 50, 90
8, 186236, Note_off_c, 3, 50, 0
8, 186816, Note_on_c, 3, 50, 90
8, 187004, Note_off_c, 3, 50, 0
8, 187008, Note_on_c, 3, 46, 90
8, 187196, Note_off_c, 3, 46, 0
8, 187200, Note_on_c, 3, 43, 90
8, 187388, Note_off_c, 3, 43, 0
8, 187392, Note_on_c, 3, 48, 90
8, 187772, Note_off_c, 3, 48, 0
8, 188352, Note_on_c, 3, 36, 90
8, 188540, Note_off_c, 3, 36, 0
8, 188544, Note_on_c, 3, 41, 90
8, 188732, Note_off_c, 3, 41, 0
8, 188736, Note_on_c, 3, 45, 90
8, 188924, Note_off_c, 3, 45, 0
8, 188928, Note_on_c, 3, 34, 90
8, 189308, Note_off_c, 3, 34, 0
8, 189888, Note_on_c, 3, 34, 90
8, 190076, Note_off_c, 3, 34, 0
8, 190080, Note_on_c, 3, 40, 90
8, 190268, Note_off_c, 3, 40, 0
8, 190272, Note_on_c, 3, 43, 90
8, 190460, Note_off_c, 3, 43, 0
8, 190464, Note_on_c, 3, 33, 90
8, 190844, Note_off_c, 3, 33, 0
8, 191424, Note_on_c, 3, 40, 90
8, 191612, Note_off_c, 3, 40, 0
8, 191616, Note_on_c, 3, 37, 90
8, 191804, Note_off_c, 3, 37, 0
8, 191808, Note_on_c, 3, 33, 90
8, 191996, Note_off_c, 3, 33, 0
8, 192000, Note_on_c, 3, 38, 90
8, 192140, Note_off_c, 3, 38, 0
8, 192192, Note_on_c, 3, 38, 90
8, 192332, Note_off_c, 3, 38, 0
8, 192384, Note_on_c, 3, 38, 90
8, 192524, Note_off_c, 3, 38, 0
8, 192576, Note_on_c, 3, 38, 90
8, 192716, Note_off_c, 3, 38, 0
8, 192768, Note_on_c, 3, 36, 90
8, 192908, Note_off_c, 3, 36, 0
8, 192960, Note_on_c, 3, 36, 90
8, 193100, Note_off_c, 3, 36, 0
8, 193152, Note_on_c, 3, 36, 90
8, 193292, Note_off_c, 3, 36, 0
8, 193344, Note_on_c, 3, 36, 90
8, 193484, Note_off_c, 3, 36, 0
8, 193536, Note_on_c, 3, 34, 90
8, 193676, Note_off_c, 3, 34, 0
8, 193728, Note_on_c, 3, 34, 90
8, 193868, Note_off_c, 3, 34, 0
8, 193920, Note_on_c, 3, 34, 90
8, 194060, Note_off_c, 3, 34, 0
8, 194112, Note_on_c, 3, 34, 90
8, 194252, Note_off_c, 3, 34, 0
8, 194304, Note_on_c, 3, 35, 90
8, 194444, Note_off_c, 3, 35, 0
8, 194496, Note_on_c, 3, 35, 90
8, 194636, Note_off_c, 3, 35, 0
8, 194688, Note_on_c, 3, 35, 90
8, 194828, Note_off_c, 3, 35, 0
8, 194880, Note_on_c, 3, 35, 90
8, 195020, Note_off_c, 3, 35, 0
8, 195072, Note_on_c, 3, 36, 90
8, 195212, Note_off_c, 3, 36, 0
8, 195264, Note_on_c, 3, 36, 90
8, 195404, Note_off_c, 3, 36, 0
8, 195456, Note_on_c, 3, 36, 90
8, 195596, Note_off_c, 3, 36, 0
8, 195648, Note_on_c, 3, 36, 90
8, 195788, Note_off_c, 3, 36, 0
8, 195840, Note_on_c, 3, 34, 90
8, 195980, Note_off_c, 3, 34, 0
8, 196032, Note_on_c, 3, 34, 90
8, 196172, Note_off_c, 3, 34, 0
8, 196224, Note_on_c, 3, 34, 90
8, 196364, Note_off_c, 3, 34, 0
8, 196416, Note_on_c, 3, 34, 90
8, 196556, Note_off_c, 3, 34, 0
8, 196608, Note_on_c, 3, 33, 90
8, 196748, Note_off_c, 3, 33, 0
8, 196800, Note_on_c, 3, 33, 90
8, 196940, Note_off_c, 3, 33, 0
8, 196992, Note_on_c, 3, 33, 90
8, 197132, Note_off_c, 3, 33, 0
8, 197184, Note_on_c, 3, 33, 90
8, 197324, Note_off_c, 3, 33, 0
8, 197376, Note_on_c, 3, 33, 90
8, 197516, Note_off_c, 3, 33, 0
8, 197568, Note_on_c, 3, 33, 90
8, 197708, Note_off_c, 3, 33, 0
8, 197760, Note_on_c, 3, 33, 90
8, 197900, Note_off_c, 3, 33, 0
8, 197952, Note_on_c, 3, 33, 90
8, 198092, Note_off_c, 3, 33, 0
8, 198144, Note_on_c, 3, 34, 90
8, 198284, Note_off_c, 3, 34, 0
8, 198336, Note_on_c, 3, 34, 90
8, 198476, Note_off_c, 3, 34, 0
8, 198528, Note_on_c, 3, 34, 90
8, 198668, Note_off_c, 3, 34, 0
8, 198720, Note_on_c, 3, 34, 90
8, 198860, Note_off_c, 3, 34, 0
8, 198912, Note_on_c, 3, 32, 90
8, 199052, Note_off_c, 3, 32, 0
8, 199104, Note_on_c, 3, 32, 90
8, 199244, Note_off_c, 3, 32, 0
8, 199296, Note_on_c, 3, 32, 90
8, 199436, Note_off_c, 3, 32, 0
8, 199488, Note_on_c, 3, 32, 90
8, 199628, Note_off_c, 3, 32, 0
8, 199680, Note_on_c, 3, 31, 90
8, 199820, Note_off_c, 3, 31, 0
8, 199872, Note_on_c, 3, 31, 90
8, 200012, Note_off_c, 3, 31, 0
8, 200064, Note_on_c, 3, 31, 90
8, 200204, Note_off_c, 3, 31, 0
8, 200256, Note_on_c, 3, 31, 90
8, 200396, Note_off_c, 3, 31, 0
8, 200448, Note_on_c, 3, 31, 90
8, 200588, Note_off_c, 3, 31, 0
8, 200640, Note_on_c, 3, 31, 90
8, 200780, Note_off_c, 3, 31, 0
8, 200832, Note_on_c, 3, 31, 90
8, 200972, Note_off_c, 3, 31, 0
8, 201024, Note_on_c, 3, 31, 90
8, 201164, Note_off_c, 3, 31, 0
8, 201216, Note_on_c, 3, 31, 85
8, 201596, Note_off_c, 3, 31, 0
8, 201984, Note_on_c, 3, 29, 85
8, 202364, Note_off_c, 3, 29, 0
8, 202752, Note_on_c, 3, 29, 85
8, 203132, Note_off_c, 3, 29, 0
8, 203520, Note_on_c, 3, 27, 85
8, 203900, Note_off_c, 3, 27, 0
8, 204288, Note_on_c, 3, 27, 85
8, 204668, Note_off_c, 3, 27, 0
8, 205056, Note_on_c, 3, 26, 85
8, 205436, Note_off_c, 3, 26, 0
8, 205440, Note_on_c, 3, 38, 85
8, 206204, Note_off_c, 3, 38, 0
8, 206208, Note_on_c, 3, 36, 85
8, 206972, Note_off_c, 3, 36, 0
8, 206976, Note_on_c, 3, 34, 85
8, 207740, Note_off_c, 3, 34, 0
8, 207744, Note_on_c, 3, 33, 85
8, 208124, Note_off_c, 3, 33, 0
8, 208128, Note_on_c, 3, 34, 85
8, 208508, Note_off_c, 3, 34, 0
8, 208704, Note_on_c, 3, 33, 85
8, 208892, Note_off_c, 3, 33, 0
8, 208896, Note_on_c, 3, 31, 100
8, 209276, Note_off_c, 3, 31, 0
8, 209472, Note_on_c, 3, 29, 100
8, 209564, Note_off_c, 3, 29, 0
8, 209568, Note_on_c, 3, 27, 100
8, 209660, Note_off_c, 3, 27, 0
8, 209664, Note_on_c, 3, 26, 100
8, 209852, Note_off_c, 3, 26, 0
8, 209856, Note_on_c, 3, 27, 100
8, 210044, Note_off_c, 3, 27, 0
8, 210048, Note_on_c, 3, 29, 100
8, 210176, Note_off_c, 3, 29, 0
8, 210240, Note_on_c, 3, 29, 100
8, 210428, Note_off_c, 3, 29, 0
8, 210432, Note_on_c, 3, 34, 85
8, 210524, Note_off_c, 3, 34, 0
8, 210528, Note_on_c, 3, 36, 85
8, 210620, Note_off_c, 3, 36, 0
8, 210624, Note_on_c, 3, 38, 85
8, 210752, Note_off_c, 3, 38, 0
8, 210816, Note_on_c, 3, 36, 85
8, 211004, Note_off_c, 3, 36, 0
8, 211008, Note_on_c, 3, 34, 85
8, 211196, Note_off_c, 3, 34, 0
8, 211200, Note_on_c, 3, 39, 85
8, 211388, Note_off_c, 3, 39, 0
8, 211392, Note_on_c, 3, 46, 85
8, 211772, Note_off_c, 3, 46, 0
8, 211776, Note_on_c, 3, 39, 85
8, 211964, Note_off_c, 3, 39, 0
8, 211968, Note_on_c, 3, 34, 85
8, 212060, Note_off_c, 3, 34, 0
8, 212064, Note_on_c, 3, 36, 85
8, 212156, Note_off_c, 3, 36, 0
8, 212160, Note_on_c, 3, 38, 85
8, 212288, Note_off_c, 3, 38, 0
8, 212352, Note_on_c, 3, 36, 85
8, 212540, Note_off_c, 3, 36, 0
8, 212544, Note_on_c, 3, 34, 85
8, 212732, Note_off_c, 3, 34, 0
8, 212736, Note_on_c, 3, 39, 85
8, 212924, Note_off_c, 3, 39, 0
8, 212928, Note_on_c, 3, 46, 85
8, 213308, Note_off_c, 3, 46, 0
8, 213312, Note_on_c, 3, 39, 85
8, 213500, Note_off_c, 3, 39, 0
8, 213504, Note_on_c, 3, 34, 85
8, 213884, Note_off_c, 3, 34, 0
8, 214464, Note_on_c, 3, 31, 100
8, 214592, Note_off_c, 3, 31, 0
8, 214656, Note_on_c, 3, 31, 100
8, 214784, Note_off_c, 3, 31, 0
8, 214848, Note_on_c, 3, 31, 100
8, 214976, Note_off_c, 3, 31, 0
8, 215040, Note_on_c, 3, 36, 100
8, 215420, Note_off_c, 3, 36, 0
8, 216768, Note_on_c, 3, 33, 100
8, 216896, Note_off_c, 3, 33, 0
8, 216960, Note_on_c, 3, 33, 100
8, 217088, Note_off_c, 3, 33, 0
8, 217152, Note_on_c, 3, 33, 100
8, 217280, Note_off_c, 3, 33, 0
8, 217344, Note_on_c, 3, 38, 100
8, 217724, Note_off_c, 3, 38, 0
8, 219072, Note_on_c, 3, 38, 100
8, 219200, Note_off_c, 3, 38, 0
8, 219264, Note_on_c, 3, 38, 100
8, 219392, Note_off_c, 3, 38, 0
8, 219456, Note_on_c, 3, 38, 100
8, 219584, Note_off_c, 3, 38, 0
8, 219648, Note_on_c, 3, 43, 100
8, 220028, Note_off_c, 3, 43, 0
8, 220224, Note_on_c, 3, 43, 85
8, 220412, Note_off_c, 3, 43, 0
8, 220416, Note_on_c, 3, 45, 85
8, 220796, Note_off_c, 3, 45, 0
8, 220992, Note_on_c, 3, 45, 85
8, 221180, Note_off_c, 3, 45, 0
8, 221184, Note_on_c, 3, 46, 85
8, 221564, Note_off_c, 3, 46, 0
8, 221760, Note_on_c, 3, 46, 85
8, 221948, Note_off_c, 3, 46, 0
8, 221952, Note_on_c, 3, 37, 85
8, 222332, Note_off_c, 3, 37, 0
8, 222528, Note_on_c, 3, 37, 85
8, 222716, Note_off_c, 3, 37, 0
8, 222720, Note_on_c, 3, 38, 85
8, 223100, Note_off_c, 3, 38, 0
8, 223680, Note_on_c, 3, 43, 85
8, 223868, Note_off_c, 3, 43, 0
8, 223872, Note_on_c, 3, 45, 85
8, 224060, Note_off_c, 3, 45, 0
8, 224064, Note_on_c, 3, 47, 85
8, 224252, Note_off_c, 3, 47, 0
8, 224256, Note_on_c, 3, 48, 85
8, 224636, Note_off_c, 3, 48, 0
8, 225216, Note_on_c, 3, 41, 85
8, 225404, Note_off_c, 3, 41, 0
8, 225408, Note_on_c, 3, 43, 85
8, 225596, Note_off_c, 3, 43, 0
8, 225600, Note_on_c, 3, 45, 85
8, 225788, Note_off_c, 3, 45, 0
8, 225792, Note_on_c, 3, 46, 85
8, 225980, Note_off_c, 3, 46, 0
8, 225984, Note_on_c, 3, 48, 85
8, 226172, Note_off_c, 3, 48, 0
8, 226176, Note_on_c, 3, 46, 85
8, 226364, Note_off_c, 3, 46, 0
8, 226368, Note_on_c, 3, 45, 85
8, 226556, Note_off_c, 3, 45, 0
8, 226560, Note_on_c, 3, 43, 85
8, 226748, Note_off_c, 3, 43, 0
8, 226752, Note_on_c, 3, 45, 85
8, 226940, Note_off_c, 3, 45, 0
8, 226944, Note_on_c, 3, 43, 85
8, 227132, Note_off_c, 3, 43, 0
8, 227136, Note_on_c, 3, 41, 85
8, 227324, Note_off_c, 3, 41, 0
8, 227328, Note_on_c, 3, 40, 85
8, 227516, Note_off_c, 3, 40, 0
8, 227520, Note_on_c, 3, 41, 85
8, 227708, Note_off_c, 3, 41, 0
8, 227712, Note_on_c, 3, 40, 85
8, 227900, Note_off_c, 3, 40, 0
8, 227904, Note_on_c, 3, 38, 85
8, 228092, Note_off_c, 3, 38, 0
8, 228096, Note_on_c, 3, 37, 85
8, 228284, Note_off_c, 3, 37, 0
8, 228288, Note_on_c, 3, 35, 85
8, 228476, Note_off_c, 3, 35, 0
8, 228480, Note_on_c, 3, 33, 85
8, 228668, Note_off_c, 3, 33, 0
8, 228672, Note_on_c, 3, 31, 85
8, 228860, Note_off_c, 3, 31, 0
8, 228864, Note_on_c, 3, 29, 85
8, 229052, Note_off_c, 3, 29, 0
8, 229248, Note_on_c, 3, 34, 85
8, 229436, Note_off_c, 3, 34, 0
8, 229632, Note_on_c, 3, 31, 85
8, 229820, Note_off_c, 3, 31, 0
8, 230016, Note_on_c, 3, 33, 85
8, 230204, Note_off_c, 3, 33, 0
8, 230400, Note_on_c, 3, 34, 85
8, 230588, Note_off_c, 3, 34, 0
8, 230784, Note_on_c, 3, 29, 85
8, 230972, Note_off_c, 3, 29, 0
8, 231168, Note_on_c, 3, 31, 85
8, 231356, Note_off_c, 3, 31, 0
8, 231552, Note_on_c, 3, 33, 85
8, 231740, Note_off_c, 3, 33, 0
8, 231936, Note_on_c, 3, 26, 85
8, 232316, Note_off_c, 3, 26, 0
8, 233472, Note_on_c, 3, 26, 85
8, 233852, Note_off_c, 3, 26, 0
8, 235008, Note_on_c, 3, 26, 85
8, 235388, Note_off_c, 3, 26, 0
8, 236544, Note_on_c, 3, 26, 85
8, 236924, Note_off_c, 3, 26, 0
8, 238080, Note_on_c, 3, 26, 85
8, 238460, Note_off_c, 3, 26, 0
8, 239616, Note_on_c, 3, 26, 85
8, 239996, Note_off_c, 3, 26, 0
8, 253632, Note_on_c, 3, 32, 85
8, 253764, Note_off_c, 3, 32, 0
8, 253824, Note_on_c, 3, 32, 85
8, 253956, Note_off_c, 3, 32, 0
8, 254400, Note_on_c, 3, 32, 85
8, 254532, Note_off_c, 3, 32, 0
8, 254592, Note_on_c, 3, 32, 85
8, 254724, Note_off_c, 3, 32, 0
8, 255168, Note_on_c, 3, 33, 85
8, 255300, Note_off_c, 3, 33, 0
8, 255360, Note_on_c, 3, 33, 85
8, 255492, Note_off_c, 3, 33, 0
8, 255936, Note_on_c, 3, 33, 85
8, 256068, Note_off_c, 3, 33, 0
8, 256128, Note_on_c, 3, 33, 85
8, 256260, Note_off_c, 3, 33, 0
8, 256704, Note_on_c, 3, 34, 85
8, 256836, Note_off_c, 3, 34, 0
8, 256896, Note_on_c, 3, 34, 85
8, 257028, Note_off_c, 3, 34, 0
8, 257472, Note_on_c, 3, 34, 85
8, 257604, Note_off_c, 3, 34, 0
8, 257664, Note_on_c, 3, 34, 85
8, 257796, Note_off_c, 3, 34, 0
8, 258240, Note_on_c, 3, 33, 85
8, 258372, Note_off_c, 3, 33, 0
8, 258432, Note_on_c, 3, 33, 85
8, 258564, Note_off_c, 3, 33, 0
8, 259008, Note_on_c, 3, 33, 85
8, 259140, Note_off_c, 3, 33, 0
8, 259200, Note_on_c, 3, 33, 85
8, 259332, Note_off_c, 3, 33, 0
8, 259584, Note_on_c, 3, 32, 85
8, 261116, Note_off_c, 3, 32, 0
8, 261120, Note_on_c, 3, 33, 85
8, 268796, Note_off_c, 3, 33, 0
8, 268800, Note_on_c, 3, 38, 100
8, 268896, Note_off_c, 3, 38, 0
8, 268896, Note_on_c, 3, 40, 100
8, 268992, Note_off_c, 3, 40, 0
8, 268992, Note_on_c, 3, 41, 100
8, 269120, Note_off_c, 3, 41, 0
8, 269184, Note_on_c, 3, 40, 100
8, 269376, Note_off_c, 3, 40, 0
8, 269376, Note_on_c, 3, 38, 100
8, 269568, Note_off_c, 3, 38, 0
8, 269568, Note_on_c, 3, 45, 100
8, 269760, Note_off_c, 3, 45, 0
8, 269760, Note_on_c, 3, 50, 100
8, 270144, Note_off_c, 3, 50, 0
8, 270144, Note_on_c, 3, 45, 100
8, 270336, Note_off_c, 3, 45, 0
8, 270336, Note_on_c, 3, 46, 100
8, 270524, Note_off_c, 3, 46, 0
8, 270528, Note_on_c, 3, 43, 100
8, 270620, Note_off_c, 3, 43, 0
8, 270624, Note_on_c, 3, 40, 100
8, 270716, Note_off_c, 3, 40, 0
8, 270720, Note_on_c, 3, 45, 100
8, 270908, Note_off_c, 3, 45, 0
8, 270912, Note_on_c, 3, 41, 100
8, 271004, Note_off_c, 3, 41, 0
8, 271008, Note_on_c, 3, 38, 100
8, 271100, Note_off_c, 3, 38, 0
8, 271104, Note_on_c, 3, 43, 100
8, 271292, Note_off_c, 3, 43, 0
8, 271296, Note_on_c, 3, 40, 100
8, 271388, Note_off_c, 3, 40, 0
8, 271392, Note_on_c, 3, 37, 100
8, 271484, Note_off_c, 3, 37, 0
8, 271488, Note_on_c, 3, 33, 100
8, 271616, Note_off_c, 3, 33, 0
8, 271680, Note_on_c, 3, 37, 100
8, 271868, Note_off_c, 3, 37, 0
8, 271872, Note_on_c, 3, 40, 85
8, 272060, Note_off_c, 3, 40, 0
8, 272064, Note_on_c, 3, 43, 85
8, 272252, Note_off_c, 3, 43, 0
8, 272256, Note_on_c, 3, 46, 85
8, 272444, Note_off_c, 3, 46, 0
8, 272448, Note_on_c, 3, 43, 85
8, 272636, Note_off_c, 3, 43, 0
8, 272640, Note_on_c, 3, 40, 85
8, 272828, Note_off_c, 3, 40, 0
8, 272832, Note_on_c, 3, 37, 85
8, 273020, Note_off_c, 3, 37, 0
8, 273024, Note_on_c, 3, 33, 85
8, 273212, Note_off_c, 3, 33, 0
8, 273216, Note_on_c, 3, 45, 85
8, 273404, Note_off_c, 3, 45, 0
8, 273408, Note_on_c, 3, 38, 85
8, 273788, Note_off_c, 3, 38, 0
8, 274176, Note_on_c, 3, 38, 85
8, 274556, Note_off_c, 3, 38, 0
8, 274944, Note_on_c, 3, 33, 85
8, 275132, Note_off_c, 3, 33, 0
8, 275136, Note_on_c, 3, 36, 85
8, 275324, Note_off_c, 3, 36, 0
8, 275328, Note_on_c, 3, 39, 85
8, 275516, Note_off_c, 3, 39, 0
8, 275520, Note_on_c, 3, 36, 85
8, 275708, Note_off_c, 3, 36, 0
8, 275712, Note_on_c, 3, 33, 85
8, 275900, Note_off_c, 3, 33, 0
8, 275904, Note_on_c, 3, 30, 85
8, 276092, Note_off_c, 3, 30, 0
8, 276096, Note_on_c, 3, 26, 85
8, 276284, Note_off_c, 3, 26, 0
8, 276288, Note_on_c, 3, 38, 85
8, 276476, Note_off_c, 3, 38, 0
8, 276480, Note_on_c, 3, 31, 85
8, 276860, Note_off_c, 3, 31, 0
8, 277248, Note_on_c, 3, 31, 85
8, 277628, Note_off_c, 3, 31, 0
8, 278016, Note_on_c, 3, 35, 85
8, 278204, Note_off_c, 3, 35, 0
8, 278208, Note_on_c, 3, 38, 85
8, 278396, Note_off_c, 3, 38, 0
8, 278400, Note_on_c, 3, 41, 85
8, 278588, Note_off_c, 3, 41, 0
8, 278592, Note_on_c, 3, 38, 85
8, 278780, Note_off_c, 3, 38, 0
8, 278784, Note_on_c, 3, 35, 85
8, 278972, Note_off_c, 3, 35, 0
8, 278976, Note_on_c, 3, 32, 85
8, 279164, Note_off_c, 3, 32, 0
8, 279168, Note_on_c, 3, 28, 85
8, 279356, Note_off_c, 3, 28, 0
8, 279360, Note_on_c, 3, 40, 85
8, 279548, Note_off_c, 3, 40, 0
8, 279552, Note_on_c, 3, 33, 85
8, 279740, Note_off_c, 3, 33, 0
8, 279744, Note_on_c, 3, 43, 85
8, 279932, Note_off_c, 3, 43, 0
8, 279936, Note_on_c, 3, 46, 85
8, 280124, Note_off_c, 3, 46, 0
8, 280128, Note_on_c, 3, 43, 85
8, 280316, Note_off_c, 3, 43, 0
8, 280320, Note_on_c, 3, 40, 85
8, 280508, Note_off_c, 3, 40, 0
8, 280512, Note_on_c, 3, 37, 85
8, 280700, Note_off_c, 3, 37, 0
8, 280704, Note_on_c, 3, 33, 85
8, 280892, Note_off_c, 3, 33, 0
8, 280896, Note_on_c, 3, 45, 85
8, 281084, Note_off_c, 3, 45, 0
8, 281088, Note_on_c, 3, 38, 85
8, 281376, Note_off_c, 3, 38, 0
8, 281856, Note_on_c, 3, 36, 85
8, 282144, Note_off_c, 3, 36, 0
8, 282624, Note_on_c, 3, 34, 85
8, 282912, Note_off_c, 3, 34, 0
8, 283392, Note_on_c, 3, 33, 85
8, 283680, Note_off_c, 3, 33, 0
8, 284160, Note_on_c, 3, 31, 85
8, 284540, Note_off_c, 3, 31, 0
8, 284928, Note_on_c, 3, 25, 85
8, 285308, Note_off_c, 3, 25, 0
8, 285696, Note_on_c, 3, 26, 85
8, 286076, Note_off_c, 3, 26, 0
8, 286272, Note_on_c, 3, 38, 85
8, 286364, Note_off_c, 3, 38, 0
8, 286368, Note_on_c, 3, 40, 85
8, 286460, Note_off_c, 3, 40, 0
8, 286464, Note_on_c, 3, 41, 85
8, 286592, Note_off_c, 3, 41, 0
8, 286656, Note_on_c, 3, 43, 85
8, 286784, Note_off_c, 3, 43, 0
8, 286848, Note_on_c, 3, 45, 85
8, 286976, Note_off_c, 3, 45, 0
8, 287040, Note_on_c, 3, 33, 85
8, 287168, Note_off_c, 3, 33, 0
8, 287232, Note_on_c, 3, 38, 100
8, 287328, Note_off_c, 3, 38, 0
8, 287328, Note_on_c, 3, 40, 100
8, 287424, Note_off_c, 3, 40, 0
8, 287424, Note_on_c, 3, 41, 100
8, 287552, Note_off_c, 3, 41, 0
8, 287616, Note_on_c, 3, 40, 100
8, 287808, Note_off_c, 3, 40, 0
8, 287808, Note_on_c, 3, 38, 100
8, 288000, Note_off_c, 3, 38, 0
8, 288000, Note_on_c, 3, 45, 100
8, 288192, Note_off_c, 3, 45, 0
8, 288192, Note_on_c, 3, 50, 100
8, 288576, Note_off_c, 3, 50, 0
8, 288576, Note_on_c, 3, 45, 100
8, 288768, Note_off_c, 3, 45, 0
8, 288768, Note_on_c, 3, 46, 100
8, 288956, Note_off_c, 3, 46, 0
8, 288960, Note_on_c, 3, 43, 100
8, 289052, Note_off_c, 3, 43, 0
8, 289056, Note_on_c, 3, 40, 100
8, 289148, Note_off_c, 3, 40, 0
8, 289152, Note_on_c, 3, 45, 100
8, 289340, Note_off_c, 3, 45, 0
8, 289344, Note_on_c, 3, 41, 100
8, 289436, Note_off_c, 3, 41, 0
8, 289440, Note_on_c, 3, 38, 100
8, 289532, Note_off_c, 3, 38, 0
8, 289536, Note_on_c, 3, 43, 100
8, 289724, Note_off_c, 3, 43, 0
8, 289728, Note_on_c, 3, 40, 100
8, 289820, Note_off_c, 3, 40, 0
8, 289824, Note_on_c, 3, 37, 100
8, 289916, Note_off_c, 3, 37, 0
8, 289920, Note_on_c, 3, 33, 100
8, 290048, Note_off_c, 3, 33, 0
8, 290112, Note_on_c, 3, 46, 100
8, 290492, Note_off_c, 3, 46, 0
8, 290496, Note_on_c, 3, 43, 100
8, 290588, Note_off_c, 3, 43, 0
8, 290592, Note_on_c, 3, 40, 100
8, 290684, Note_off_c, 3, 40, 0
8, 290688, Note_on_c, 3, 33, 100
8, 290816, Note_off_c, 3, 33, 0
8, 290880, Note_on_c, 3, 49, 100
8, 291260, Note_off_c, 3, 49, 0
8, 291264, Note_on_c, 3, 46, 100
8, 291356, Note_off_c, 3, 46, 0
8, 291360, Note_on_c, 3, 43, 100
8, 291452, Note_off_c, 3, 43, 0
8, 291456, Note_on_c, 3, 33, 100
8, 291584, Note_off_c, 3, 33, 0
8, 291648, Note_on_c, 3, 52, 100
8, 292028, Note_off_c, 3, 52, 0
8, 292032, Note_on_c, 3, 49, 100
8, 292124, Note_off_c, 3, 49, 0
8, 292128, Note_on_c, 3, 45, 100
8, 292220, Note_off_c, 3, 45, 0
8, 292224, Note_on_c, 3, 46, 100
8, 292316, Note_off_c, 3, 46, 0
8, 292320, Note_on_c, 3, 43, 100
8, 292412, Note_off_c, 3, 43, 0
8, 292416, Note_on_c, 3, 45, 100
8, 292508, Note_off_c, 3, 45, 0
8, 292512, Note_on_c, 3, 41, 100
8, 292604, Note_off_c, 3, 41, 0
8, 292608, Note_on_c, 3, 43, 100
8, 292700, Note_off_c, 3, 43, 0
8, 292704, Note_on_c, 3, 40, 100
8, 292796, Note_off_c, 3, 40, 0
8, 292800, Note_on_c, 3, 41, 100
8, 292892, Note_off_c, 3, 41, 0
8, 292896, Note_on_c, 3, 38, 100
8, 292988, Note_off_c, 3, 38, 0
8, 292992, Note_on_c, 3, 40, 100
8, 293084, Note_off_c, 3, 40, 0
8, 293088, Note_on_c, 3, 37, 100
8, 293180, Note_off_c, 3, 37, 0
8, 293184, Note_on_c, 3, 38, 100
8, 293276, Note_off_c, 3, 38, 0
8, 293280, Note_on_c, 3, 35, 100
8, 293372, Note_off_c, 3, 35, 0
8, 293376, Note_on_c, 3, 37, 100
8, 293468, Note_off_c, 3, 37, 0
8, 293472, Note_on_c, 3, 33, 100
8, 293564, Note_off_c, 3, 33, 0
8, 293568, Note_on_c, 3, 35, 100
8, 293660, Note_off_c, 3, 35, 0
8, 293664, Note_on_c, 3, 37, 100
8, 293756, Note_off_c, 3, 37, 0
8, 293760, Note_on_c, 3, 38, 100
8, 293852, Note_off_c, 3, 38, 0
8, 293856, Note_on_c, 3, 40, 100
8, 293948, Note_off_c, 3, 40, 0
8, 293952, Note_on_c, 3, 41, 100
8, 294044, Note_off_c, 3, 41, 0
8, 294048, Note_on_c, 3, 43, 100
8, 294140, Note_off_c, 3, 43, 0
8, 294144, Note_on_c, 3, 45, 100
8, 294236, Note_off_c, 3, 45, 0
8, 294240, Note_on_c, 3, 46, 100
8, 294332, Note_off_c, 3, 46, 0
8, 294336, Note_on_c, 3, 48, 100
8, 294464, Note_off_c, 3, 48, 0
8, 294528, Note_on_c, 3, 48, 100
8, 294620, Note_off_c, 3, 48, 0
8, 294624, Note_on_c, 3, 50, 100
8, 294716, Note_off_c, 3, 50, 0
8, 294720, Note_on_c, 3, 51, 100
8, 294848, Note_off_c, 3, 51, 0
8, 294912, Note_on_c, 3, 42, 100
8, 295020, Note_off_c, 3, 42, 0
8, 295104, Note_on_c, 3, 43, 100
8, 295212, Note_off_c, 3, 43, 0
8, 295296, Note_on_c, 3, 37, 100
8, 295404, Note_off_c, 3, 37, 0
8, 295488, Note_on_c, 3, 38, 100
8, 295596, Note_off_c, 3, 38, 0
8, 295680, Note_on_c, 3, 32, 100
8, 295868, Note_off_c, 3, 32, 0
8, 296064, Note_on_c, 3, 33, 100
8, 296252, Note_off_c, 3, 33, 0
8, 296448, Note_on_c, 3, 26, 100
8, 297212, Note_off_c, 3, 26, 0
8, 297212, End_track
9, 0, Start_track
9, 0, Title_t, "Keyboard RH"
9, 0, Control_c, 4, 0, 0
9, 0, Program_c, 4, 6
9, 0, Control_c, 4, 7, 92
9, 0, Control_c, 4, 10, 44
9, 0, Key_signature, -1, "minor"
9, 0, Note_on_c, 4, 62, 100
9, 96, Note_off_c, 4, 62, 0
9, 96, Note_on_c, 4, 64, 100
9, 192, Note_off_c, 4, 64, 0
9, 192, Note_on_c, 4, 65, 100
9, 320, Note_off_c, 4, 65, 0
9, 384, Note_on_c, 4, 64, 100
9, 576, Note_off_c, 4, 64, 0
9, 576, Note_on_c, 4, 62, 100
9, 768, Note_off_c, 4, 62, 0
9, 768, Note_on_c, 4, 69, 100
9, 960, Note_off_c, 4, 69, 0
9, 960, Note_on_c, 4, 74, 100
9, 1344, Note_off_c, 4, 74, 0
9, 1344, Note_on_c, 4, 69, 100
9, 1536, Note_off_c, 4, 69, 0
9, 1536, Note_on_c, 4, 70, 100
9, 1724, Note_off_c, 4, 70, 0
9, 1728, Note_on_c, 4, 67, 100
9, 1820, Note_off_c, 4, 67, 0
9, 1824, Note_on_c, 4, 64, 100
9, 1916, Note_off_c, 4, 64, 0
9, 1920, Note_on_c, 4, 69, 100
9, 2108, Note_off_c, 4, 69, 0
9, 2112, Note_on_c, 4, 65, 100
9, 2204, Note_off_c, 4, 65, 0
9, 2208, Note_on_c, 4, 62, 100
9, 2300, Note_off_c, 4, 62, 0
9, 2304, Note_on_c, 4, 67, 100
9, 2492, Note_off_c, 4, 67, 0
9, 2496, Note_on_c, 4, 64, 100
9, 2588, Note_off_c, 4, 64, 0
9, 2592, Note_on_c, 4, 61, 100
9, 2684, Note_off_c, 4, 61, 0
9, 2688, Note_on_c, 4, 57, 100
9, 2816, Note_off_c, 4, 57, 0
9, 2880, Note_on_c, 4, 70, 100
9, 3260, Note_off_c, 4, 70, 0
9, 3264, Note_on_c, 4, 67, 100
9, 3356, Note_off_c, 4, 67, 0
9, 3360, Note_on_c, 4, 64, 100
9, 3452, Note_off_c, 4, 64, 0
9, 3456, Note_on_c, 4, 57, 100
9, 3584, Note_off_c, 4, 57, 0
9, 3648, Note_on_c, 4, 73, 100
9, 4028, Note_off_c, 4, 73, 0
9, 4032, Note_on_c, 4, 70, 100
9, 4124, Note_off_c, 4, 70, 0
9, 4128, Note_on_c, 4, 67, 100
9, 4220, Note_off_c, 4, 67, 0
9, 4224, Note_on_c, 4, 57, 100
9, 4352, Note_off_c, 4, 57, 0
9, 4416, Note_on_c, 4, 76, 100
9, 4796, Note_off_c, 4, 76, 0
9, 4800, Note_on_c, 4, 73, 100
9, 4892, Note_off_c, 4, 73, 0
9, 4896, Note_on_c, 4, 69, 100
9, 4988, Note_off_c, 4, 69, 0
9, 4992, Note_on_c, 4, 70, 100
9, 5084, Note_off_c, 4, 70, 0
9, 5088, Note_on_c, 4, 67, 100
9, 5180, Note_off_c, 4, 67, 0
9, 5184, Note_on_c, 4, 69, 100
9, 5276, Note_off_c, 4, 69, 0
9, 5280, Note_on_c, 4, 65, 100
9, 5372, Note_off_c, 4, 65, 0
9, 5376, Note_on_c, 4, 67, 100
9, 5468, Note_off_c, 4, 67, 0
9, 5472, Note_on_c, 4, 64, 100
9, 5564, Note_off_c, 4, 64, 0
9, 5568, Note_on_c, 4, 65, 100
9, 5660, Note_off_c, 4, 65, 0
9, 5664, Note_on_c, 4, 62, 100
9, 5756, Note_off_c, 4, 62, 0
9, 5760, Note_on_c, 4, 64, 100
9, 5852, Note_off_c, 4, 64, 0
9, 5856, Note_on_c, 4, 61, 100
9, 5948, Note_off_c, 4, 61, 0
9, 5952, Note_on_c, 4, 62, 100
9, 6044, Note_off_c, 4, 62, 0
9, 6048, Note_on_c, 4, 59, 100
9, 6140, Note_off_c, 4, 59, 0
9, 6144, Note_on_c, 4, 61, 100
9, 6236, Note_off_c, 4, 61, 0
9, 6240, Note_on_c, 4, 57, 100
9, 6332, Note_off_c, 4, 57, 0
9, 6336, Note_on_c, 4, 59, 100
9, 6428, Note_off_c, 4, 59, 0
9, 6432, Note_on_c, 4, 61, 100
9, 6524, Note_off_c, 4, 61, 0
9, 6528, Note_on_c, 4, 62, 100
9, 6620, Note_off_c, 4, 62, 0
9, 6624, Note_on_c, 4, 64, 100
9, 6716, Note_off_c, 4, 64, 0
9, 6720, Note_on_c, 4, 65, 100
9, 6812, Note_off_c, 4, 65, 0
9, 6816, Note_on_c, 4, 67, 100
9, 6908, Note_off_c, 4, 67, 0
9, 6912, Note_on_c, 4, 69, 100
9, 7004, Note_off_c, 4, 69, 0
9, 7008, Note_on_c, 4, 70, 100
9, 7100, Note_off_c, 4, 70, 0
9, 7104, Note_on_c, 4, 72, 100
9, 7232, Note_off_c, 4, 72, 0
9, 7296, Note_on_c, 4, 72, 100
9, 7388, Note_off_c, 4, 72, 0
9, 7392, Note_on_c, 4, 74, 100
9, 7484, Note_off_c, 4, 74, 0
9, 7488, Note_on_c, 4, 75, 100
9, 7616, Note_off_c, 4, 75, 0
9, 7680, Note_on_c, 4, 66, 100
9, 7788, Note_off_c, 4, 66, 0
9, 7872, Note_on_c, 4, 67, 100
9, 7980, Note_off_c, 4, 67, 0
9, 8064, Note_on_c, 4, 61, 100
9, 8172, Note_off_c, 4, 61, 0
9, 8256, Note_on_c, 4, 62, 100
9, 8364, Note_off_c, 4, 62, 0
9, 8448, Note_on_c, 4, 56, 100
9, 8636, Note_off_c, 4, 56, 0
9, 8832, Note_on_c, 4, 57, 100
9, 9020, Note_off_c, 4, 57, 0
9, 9216, Note_on_c, 4, 62, 100
9, 9260, Note_off_c, 4, 62, 0
9, 9264, Note_on_c, 4, 64, 100
9, 9308, Note_off_c, 4, 64, 0
9, 9312, Note_on_c, 4, 65, 100
9, 9356, Note_off_c, 4, 65, 0
9, 9360, Note_on_c, 4, 67, 100
9, 9404, Note_off_c, 4, 67, 0
9, 9408, Note_on_c, 4, 69, 100
9, 9500, Note_off_c, 4, 69, 0
9, 9504, Note_on_c, 4, 64, 100
9, 9596, Note_off_c, 4, 64, 0
9, 9600, Note_on_c, 4, 65, 100
9, 9692, Note_off_c, 4, 65, 0
9, 9696, Note_on_c, 4, 62, 100
9, 9788, Note_off_c, 4, 62, 0
9, 9792, Note_on_c, 4, 64, 100
9, 9884, Note_off_c, 4, 64, 0
9, 9888, Note_on_c, 4, 61, 100
9, 9980, Note_off_c, 4, 61, 0
9, 9984, Note_on_c, 4, 62, 100
9, 10076, Note_off_c, 4, 62, 0
9, 10080, Note_on_c, 4, 57, 100
9, 10172, Note_off_c, 4, 57, 0
9, 10176, Note_on_c, 4, 58, 100
9, 10268, Note_off_c, 4, 58, 0
9, 10272, Note_on_c, 4, 55, 100
9, 10364, Note_off_c, 4, 55, 0
9, 10368, Note_on_c, 4, 57, 100
9, 10460, Note_off_c, 4, 57, 0
9, 10464, Note_on_c, 4, 62, 100
9, 10556, Note_off_c, 4, 62, 0
9, 10560, Note_on_c, 4, 64, 100
9, 10652, Note_off_c, 4, 64, 0
9, 10656, Note_on_c, 4, 61, 100
9, 10748, Note_off_c, 4, 61, 0
9, 10752, Note_on_c, 4, 62, 100
9, 10844, Note_off_c, 4, 62, 0
9, 10848, Note_on_c, 4, 65, 100
9, 10940, Note_off_c, 4, 65, 0
9, 10944, Note_on_c, 4, 67, 100
9, 11036, Note_off_c, 4, 67, 0
9, 11040, Note_on_c, 4, 64, 100
9, 11132, Note_off_c, 4, 64, 0
9, 11136, Note_on_c, 4, 65, 100
9, 11228, Note_off_c, 4, 65, 0
9, 11232, Note_on_c, 4, 69, 100
9, 11324, Note_off_c, 4, 69, 0
9, 11328, Note_on_c, 4, 70, 100
9, 11420, Note_off_c, 4, 70, 0
9, 11424, Note_on_c, 4, 67, 100
9, 11516, Note_off_c, 4, 67, 0
9, 11520, Note_on_c, 4, 69, 100
9, 11564, Note_off_c, 4, 69, 0
9, 11568, Note_on_c, 4, 73, 100
9, 11612, Note_off_c, 4, 73, 0
9, 11616, Note_on_c, 4, 74, 100
9, 11660, Note_off_c, 4, 74, 0
9, 11664, Note_on_c, 4, 76, 100
9, 11708, Note_off_c, 4, 76, 0
9, 11712, Note_on_c, 4, 77, 100
9, 11804, Note_off_c, 4, 77, 0
9, 11808, Note_on_c, 4, 73, 100
9, 11900, Note_off_c, 4, 73, 0
9, 11904, Note_on_c, 4, 74, 100
9, 11996, Note_off_c, 4, 74, 0
9, 12000, Note_on_c, 4, 69, 100
9, 12092, Note_off_c, 4, 69, 0
9, 12096, Note_on_c, 4, 70, 100
9, 12188, Note_off_c, 4, 70, 0
9, 12192, Note_on_c, 4, 67, 100
9, 12284, Note_off_c, 4, 67, 0
9, 12288, Note_on_c, 4, 69, 100
9, 12380, Note_off_c, 4, 69, 0
9, 12384, Note_on_c, 4, 65, 100
9, 12476, Note_off_c, 4, 65, 0
9, 12480, Note_on_c, 4, 67, 100
9, 12572, Note_off_c, 4, 67, 0
9, 12576, Note_on_c, 4, 64, 100
9, 12668, Note_off_c, 4, 64, 0
9, 12672, Note_on_c, 4, 65, 100
9, 12764, Note_off_c, 4, 65, 0
9, 12768, Note_on_c, 4, 69, 100
9, 12860, Note_off_c, 4, 69, 0
9, 12864, Note_on_c, 4, 70, 100
9, 12956, Note_off_c, 4, 70, 0
9, 12960, Note_on_c, 4, 67, 100
9, 13052, Note_off_c, 4, 67, 0
9, 13056, Note_on_c, 4, 69, 100
9, 13148, Note_off_c, 4, 69, 0
9, 13152, Note_on_c, 4, 74, 100
9, 13244, Note_off_c, 4, 74, 0
9, 13248, Note_on_c, 4, 76, 100
9, 13340, Note_off_c, 4, 76, 0
9, 13344, Note_on_c, 4, 73, 100
9, 13436, Note_off_c, 4, 73, 0
9, 13440, Note_on_c, 4, 74, 100
9, 13532, Note_off_c, 4, 74, 0
9, 13536, Note_on_c, 4, 77, 100
9, 13628, Note_off_c, 4, 77, 0
9, 13632, Note_on_c, 4, 79, 100
9, 13724, Note_off_c, 4, 79, 0
9, 13728, Note_on_c, 4, 76, 100
9, 13820, Note_off_c, 4, 76, 0
9, 13824, Note_on_c, 4, 77, 100
9, 13868, Note_off_c, 4, 77, 0
9, 13872, Note_on_c, 4, 81, 100
9, 13916, Note_off_c, 4, 81, 0
9, 13920, Note_on_c, 4, 83, 100
9, 13964, Note_off_c, 4, 83, 0
9, 13968, Note_on_c, 4, 85, 100
9, 14012, Note_off_c, 4, 85, 0
9, 14016, Note_on_c, 4, 86, 100
9, 14108, Note_off_c, 4, 86, 0
9, 14112, Note_on_c, 4, 81, 100
9, 14204, Note_off_c, 4, 81, 0
9, 14208, Note_on_c, 4, 82, 100
9, 14300, Note_off_c, 4, 82, 0
9, 14304, Note_on_c, 4, 79, 100
9, 14396, Note_off_c, 4, 79, 0
9, 14400, Note_on_c, 4, 81, 100
9, 14492, Note_off_c, 4, 81, 0
9, 14496, Note_on_c, 4, 76, 100
9, 14588, Note_off_c, 4, 76, 0
9, 14592, Note_on_c, 4, 77, 100
9, 14684, Note_off_c, 4, 77, 0
9, 14688, Note_on_c, 4, 76, 100
9, 14780, Note_off_c, 4, 76, 0
9, 14784, Note_on_c, 4, 77, 100
9, 14876, Note_off_c, 4, 77, 0
9, 14880, Note_on_c, 4, 73, 100
9, 14972, Note_off_c, 4, 73, 0
9, 14976, Note_on_c, 4, 74, 100
9, 15068, Note_off_c, 4, 74, 0
9, 15072, Note_on_c, 4, 77, 100
9, 15164, Note_off_c, 4, 77, 0
9, 15168, Note_on_c, 4, 79, 100
9, 15260, Note_off_c, 4, 79, 0
9, 15264, Note_on_c, 4, 76, 100
9, 15356, Note_off_c, 4, 76, 0
9, 15360, Note_on_c, 4, 77, 100
9, 15452, Note_off_c, 4, 77, 0
9, 15456, Note_on_c, 4, 81, 100
9, 15548, Note_off_c, 4, 81, 0
9, 15552, Note_on_c, 4, 82, 100
9, 15644, Note_off_c, 4, 82, 0
9, 15648, Note_on_c, 4, 79, 100
9, 15740, Note_off_c, 4, 79, 0
9, 15744, Note_on_c, 4, 81, 100
9, 15836, Note_off_c, 4, 81, 0
9, 15840, Note_on_c, 4, 86, 100
9, 15932, Note_off_c, 4, 86, 0
9, 15936, Note_on_c, 4, 82, 100
9, 16028, Note_off_c, 4, 82, 0
9, 16032, Note_on_c, 4, 79, 100
9, 16124, Note_off_c, 4, 79, 0
9, 16128, Note_on_c, 4, 81, 100
9, 16220, Note_off_c, 4, 81, 0
9, 16224, Note_on_c, 4, 86, 100
9, 16316, Note_off_c, 4, 86, 0
9, 16320, Note_on_c, 4, 79, 100
9, 16412, Note_off_c, 4, 79, 0
9, 16416, Note_on_c, 4, 76, 100
9, 16508, Note_off_c, 4, 76, 0
9, 16512, Note_on_c, 4, 77, 100
9, 16604, Note_off_c, 4, 77, 0
9, 16608, Note_on_c, 4, 86, 100
9, 16700, Note_off_c, 4, 86, 0
9, 16704, Note_on_c, 4, 76, 100
9, 16796, Note_off_c, 4, 76, 0
9, 16800, Note_on_c, 4, 73, 100
9, 16892, Note_off_c, 4, 73, 0
9, 16896, Note_on_c, 4, 74, 100
9, 16988, Note_off_c, 4, 74, 0
9, 16992, Note_on_c, 4, 86, 100
9, 17084, Note_off_c, 4, 86, 0
9, 17088, Note_on_c, 4, 81, 100
9, 17180, Note_off_c, 4, 81, 0
9, 17184, Note_on_c, 4, 77, 100
9, 17276, Note_off_c, 4, 77, 0
9, 17280, Note_on_c, 4, 74, 100
9, 17372, Note_off_c, 4, 74, 0
9, 17376, Note_on_c, 4, 81, 100
9, 17468, Note_off_c, 4, 81, 0
9, 17472, Note_on_c, 4, 77, 100
9, 17564, Note_off_c, 4, 77, 0
9, 17568, Note_on_c, 4, 74, 100
9, 17660, Note_off_c, 4, 74, 0
9, 17664, Note_on_c, 4, 69, 100
9, 17756, Note_off_c, 4, 69, 0
9, 17760, Note_on_c, 4, 77, 100
9, 17852, Note_off_c, 4, 77, 0
9, 17856, Note_on_c, 4, 74, 100
9, 17948, Note_off_c, 4, 74, 0
9, 17952, Note_on_c, 4, 69, 100
9, 18044, Note_off_c, 4, 69, 0
9, 18048, Note_on_c, 4, 65, 100
9, 18140, Note_off_c, 4, 65, 0
9, 18144, Note_on_c, 4, 74, 100
9, 18236, Note_off_c, 4, 74, 0
9, 18240, Note_on_c, 4, 69, 100
9, 18332, Note_off_c, 4, 69, 0
9, 18336, Note_on_c, 4, 65, 100
9, 18428, Note_off_c, 4, 65, 0
9, 18432, Note_on_c, 4, 62, 100
9, 18524, Note_off_c, 4, 62, 0
9, 18528, Note_on_c, 4, 64, 100
9, 18620, Note_off_c, 4, 64, 0
9, 18624, Note_on_c, 4, 65, 100
9, 18812, Note_off_c, 4, 65, 0
9, 18816, Note_on_c, 4, 64, 100
9, 19004, Note_off_c, 4, 64, 0
9, 19008, Note_on_c, 4, 62, 100
9, 19196, Note_off_c, 4, 62, 0
9, 19200, Note_on_c, 4, 69, 100
9, 19388, Note_off_c, 4, 69, 0
9, 19392, Note_on_c, 4, 74, 100
9, 19772, Note_off_c, 4, 74, 0
9, 19776, Note_on_c, 4, 69, 100
9, 19964, Note_off_c, 4, 69, 0
9, 19968, Note_on_c, 4, 70, 100
9, 20156, Note_off_c, 4, 70, 0
9, 20160, Note_on_c, 4, 67, 100
9, 20252, Note_off_c, 4, 67, 0
9, 20256, Note_on_c, 4, 64, 100
9, 20348, Note_off_c, 4, 64, 0
9, 20352, Note_on_c, 4, 69, 100
9, 20540, Note_off_c, 4, 69, 0
9, 20544, Note_on_c, 4, 65, 100
9, 20636, Note_off_c, 4, 65, 0
9, 20640, Note_on_c, 4, 62, 100
9, 20732, Note_off_c, 4, 62, 0
9, 20736, Note_on_c, 4, 67, 100
9, 20924, Note_off_c, 4, 67, 0
9, 20928, Note_on_c, 4, 64, 100
9, 21020, Note_off_c, 4, 64, 0
9, 21024, Note_on_c, 4, 61, 100
9, 21116, Note_off_c, 4, 61, 0
9, 21120, Note_on_c, 4, 57, 100
9, 21308, Note_off_c, 4, 57, 0
9, 21312, Note_on_c, 4, 70, 100
9, 21692, Note_off_c, 4, 70, 0
9, 21696, Note_on_c, 4, 67, 100
9, 21788, Note_off_c, 4, 67, 0
9, 21792, Note_on_c, 4, 64, 100
9, 21884, Note_off_c, 4, 64, 0
9, 21888, Note_on_c, 4, 57, 100
9, 22076, Note_off_c, 4, 57, 0
9, 22080, Note_on_c, 4, 73, 100
9, 22460, Note_off_c, 4, 73, 0
9, 22464, Note_on_c, 4, 70, 100
9, 22556, Note_off_c, 4, 70, 0
9, 22560, Note_on_c, 4, 67, 100
9, 22652, Note_off_c, 4, 67, 0
9, 22656, Note_on_c, 4, 57, 100
9, 22844, Note_off_c, 4, 57, 0
9, 22848, Note_on_c, 4, 76, 100
9, 23228, Note_off_c, 4, 76, 0
9, 23232, Note_on_c, 4, 73, 100
9, 23324, Note_off_c, 4, 73, 0
9, 23328, Note_on_c, 4, 69, 100
9, 23420, Note_off_c, 4, 69, 0
9, 23424, Note_on_c, 4, 70, 100
9, 23516, Note_off_c, 4, 70, 0
9, 23520, Note_on_c, 4, 67, 100
9, 23612, Note_off_c, 4, 67, 0
9, 23616, Note_on_c, 4, 69, 100
9, 23708, Note_off_c, 4, 69, 0
9, 23712, Note_on_c, 4, 65, 100
9, 23804, Note_off_c, 4, 65, 0
9, 23808, Note_on_c, 4, 67, 100
9, 23900, Note_off_c, 4, 67, 0
9, 23904, Note_on_c, 4, 64, 100
9, 23996, Note_off_c, 4, 64, 0
9, 24000, Note_on_c, 4, 65, 100
9, 24092, Note_off_c, 4, 65, 0
9, 24096, Note_on_c, 4, 62, 100
9, 24188, Note_off_c, 4, 62, 0
9, 24192, Note_on_c, 4, 64, 100
9, 24284, Note_off_c, 4, 64, 0
9, 24288, Note_on_c, 4, 61, 100
9, 24380, Note_off_c, 4, 61, 0
9, 24384, Note_on_c, 4, 62, 100
9, 24476, Note_off_c, 4, 62, 0
9, 24480, Note_on_c, 4, 59, 100
9, 24572, Note_off_c, 4, 59, 0
9, 24576, Note_on_c, 4, 61, 100
9, 24668, Note_off_c, 4, 61, 0
9, 24672, Note_on_c, 4, 57, 100
9, 24764, Note_off_c, 4, 57, 0
9, 24768, Note_on_c, 4, 59, 100
9, 24860, Note_off_c, 4, 59, 0
9, 24864, Note_on_c, 4, 61, 100
9, 24956, Note_off_c, 4, 61, 0
9, 24960, Note_on_c, 4, 62, 100
9, 25052, Note_off_c, 4, 62, 0
9, 25056, Note_on_c, 4, 64, 100
9, 25148, Note_off_c, 4, 64, 0
9, 25152, Note_on_c, 4, 65, 100
9, 25244, Note_off_c, 4, 65, 0
9, 25248, Note_on_c, 4, 67, 100
9, 25340, Note_off_c, 4, 67, 0
9, 25344, Note_on_c, 4, 69, 100
9, 25436, Note_off_c, 4, 69, 0
9, 25440, Note_on_c, 4, 70, 100
9, 25532, Note_off_c, 4, 70, 0
9, 25536, Note_on_c, 4, 72, 100
9, 25664, Note_off_c, 4, 72, 0
9, 25728, Note_on_c, 4, 72, 100
9, 25820, Note_off_c, 4, 72, 0
9, 25824, Note_on_c, 4, 74, 100
9, 25916, Note_off_c, 4, 74, 0
9, 25920, Note_on_c, 4, 75, 100
9, 26048, Note_off_c, 4, 75, 0
9, 26112, Note_on_c, 4, 62, 100
9, 26112, Note_on_c, 4, 66, 100
9, 26300, Note_off_c, 4, 66, 0
9, 26304, Note_on_c, 4, 67, 100
9, 26492, Note_off_c, 4, 62, 0
9, 26492, Note_off_c, 4, 67, 0
9, 26496, Note_on_c, 4, 64, 100
9, 26496, Note_on_c, 4, 73, 100
9, 26624, Note_off_c, 4, 64, 0
9, 26624, Note_off_c, 4, 73, 0
9, 26688, Note_on_c, 4, 65, 100
9, 26688, Note_on_c, 4, 74, 100
9, 26816, Note_off_c, 4, 65, 0
9, 26816, Note_off_c, 4, 74, 0
9, 26880, Note_on_c, 4, 64, 100
9, 26880, Note_on_c, 4, 61, 100
9, 27068, Note_off_c, 4, 64, 0
9, 27068, Note_off_c, 4, 61, 0
9, 27072, Note_on_c, 4, 62, 100
9, 27072, Note_on_c, 4, 65, 100
9, 27260, Note_off_c, 4, 62, 0
9, 27260, Note_off_c, 4, 65, 0
9, 27264, Note_on_c, 4, 64, 100
9, 27264, Note_on_c, 4, 73, 100
9, 27392, Note_off_c, 4, 64, 0
9, 27392, Note_off_c, 4, 73, 0
9, 27456, Note_on_c, 4, 65, 100
9, 27456, Note_on_c, 4, 74, 100
9, 27584, Note_off_c, 4, 65, 0
9, 27584, Note_off_c, 4, 74, 0
9, 27632, Note_on_c, 4, 74, 100
9, 27648, Note_on_c, 4, 71, 100
9, 27656, Note_on_c, 4, 76, 100
9, 27660, Note_off_c, 4, 74, 0
9, 27672, Note_on_c, 4, 77, 100
9, 27684, Note_off_c, 4, 76, 0
9, 27936, Note_on_c, 4, 76, 100
9, 27956, Note_off_c, 4, 77, 0
9, 28028, Note_off_c, 4, 71, 0
9, 28028, Note_off_c, 4, 76, 0
9, 28032, Note_on_c, 4, 74, 100
9, 28124, Note_off_c, 4, 74, 0
9, 28128, Note_on_c, 4, 72, 100
9, 28220, Note_off_c, 4, 72, 0
9, 28224, Note_on_c, 4, 71, 100
9, 28316, Note_off_c, 4, 71, 0
9, 28320, Note_on_c, 4, 69, 100
9, 28404, Note_on_c, 4, 71, 100
9, 28412, Note_off_c, 4, 69, 0
9, 28428, Note_on_c, 4, 72, 100
9, 28432, Note_off_c, 4, 71, 0
9, 28448, Note_on_c, 4, 74, 100
9, 28456, Note_off_c, 4, 72, 0
9, 28704, Note_on_c, 4, 72, 100
9, 28732, Note_off_c, 4, 74, 0
9, 28796, Note_off_c, 4, 72, 0
9, 28800, Note_on_c, 4, 71, 100
9, 28892, Note_off_c, 4, 71, 0
9, 28896, Note_on_c, 4, 69, 100
9, 28988, Note_off_c, 4, 69, 0
9, 28992, Note_on_c, 4, 68, 100
9, 29084, Note_off_c, 4, 68, 0
9, 29088, Note_on_c, 4, 66, 100
9, 29180, Note_off_c, 4, 66, 0
9, 29184, Note_on_c, 4, 64, 100
9, 29372, Note_off_c, 4, 64, 0
9, 29376, Note_on_c, 4, 66, 100
9, 29468, Note_off_c, 4, 66, 0
9, 29472, Note_on_c, 4, 68, 100
9, 29564, Note_off_c, 4, 68, 0
9, 29568, Note_on_c, 4, 69, 100
9, 29660, Note_off_c, 4, 69, 0
9, 29664, Note_on_c, 4, 71, 100
9, 29756, Note_off_c, 4, 71, 0
9, 29760, Note_on_c, 4, 72, 100
9, 29852, Note_off_c, 4, 72, 0
9, 29856, Note_on_c, 4, 74, 100
9, 29948, Note_off_c, 4, 74, 0
9, 29952, Note_on_c, 4, 76, 100
9, 30044, Note_off_c, 4, 76, 0
9, 30048, Note_on_c, 4, 77, 100
9, 30140, Note_off_c, 4, 77, 0
9, 30144, Note_on_c, 4, 79, 100
9, 30272, Note_off_c, 4, 79, 0
9, 30336, Note_on_c, 4, 79, 100
9, 30428, Note_off_c, 4, 79, 0
9, 30432, Note_on_c, 4, 81, 100
9, 30524, Note_off_c, 4, 81, 0
9, 30528, Note_on_c, 4, 82, 100
9, 30656, Note_off_c, 4, 82, 0
9, 30720, Note_on_c, 4, 64, 100
9, 30720, Note_on_c, 4, 73, 100
9, 30828, Note_off_c, 4, 64, 0
9, 30828, Note_off_c, 4, 73, 0
9, 30912, Note_on_c, 4, 65, 100
9, 30912, Note_on_c, 4, 74, 100
9, 31020, Note_off_c, 4, 65, 0
9, 31020, Note_off_c, 4, 74, 0
9, 31104, Note_on_c, 4, 62, 100
9, 31104, Note_on_c, 4, 68, 100
9, 31212, Note_off_c, 4, 62, 0
9, 31212, Note_off_c, 4, 68, 0
9, 31296, Note_on_c, 4, 64, 100
9, 31296, Note_on_c, 4, 69, 100
9, 31404, Note_off_c, 4, 64, 0
9, 31404, Note_off_c, 4, 69, 0
9, 31488, Note_on_c, 4, 63, 100
9, 31676, Note_off_c, 4, 63, 0
9, 31872, Note_on_c, 4, 64, 100
9, 32060, Note_off_c, 4, 64, 0
9, 32256, Note_on_c, 4, 57, 100
9, 32300, Note_off_c, 4, 57, 0
9, 32304, Note_on_c, 4, 59, 100
9, 32348, Note_off_c, 4, 59, 0
9, 32352, Note_on_c, 4, 60, 100
9, 32396, Note_off_c, 4, 60, 0
9, 32400, Note_on_c, 4, 62, 100
9, 32444, Note_off_c, 4, 62, 0
9, 32448, Note_on_c, 4, 64, 100
9, 32540, Note_off_c, 4, 64, 0
9, 32544, Note_on_c, 4, 59, 100
9, 32636, Note_off_c, 4, 59, 0
9, 32640, Note_on_c, 4, 60, 100
9, 32732, Note_off_c, 4, 60, 0
9, 32736, Note_on_c, 4, 57, 100
9, 32828, Note_off_c, 4, 57, 0
9, 32832, Note_on_c, 4, 59, 100
9, 32924, Note_off_c, 4, 59, 0
9, 32928, Note_on_c, 4, 56, 100
9, 33020, Note_off_c, 4, 56, 0
9, 33024, Note_on_c, 4, 57, 100
9, 33116, Note_off_c, 4, 57, 0
9, 33120, Note_on_c, 4, 52, 100
9, 33212, Note_off_c, 4, 52, 0
9, 33216, Note_on_c, 4, 53, 100
9, 33308, Note_off_c, 4, 53, 0
9, 33312, Note_on_c, 4, 50, 100
9, 33404, Note_off_c, 4, 50, 0
9, 33408, Note_on_c, 4, 52, 100
9, 33500, Note_off_c, 4, 52, 0
9, 33504, Note_on_c, 4, 57, 100
9, 33596, Note_off_c, 4, 57, 0
9, 33600, Note_on_c, 4, 59, 100
9, 33692, Note_off_c, 4, 59, 0
9, 33696, Note_on_c, 4, 56, 100
9, 33788, Note_off_c, 4, 56, 0
9, 33792, Note_on_c, 4, 57, 100
9, 33884, Note_off_c, 4, 57, 0
9, 33888, Note_on_c, 4, 60, 100
9, 33980, Note_off_c, 4, 60, 0
9, 33984, Note_on_c, 4, 62, 100
9, 34076, Note_off_c, 4, 62, 0
9, 34080, Note_on_c, 4, 59, 100
9, 34172, Note_off_c, 4, 59, 0
9, 34176, Note_on_c, 4, 60, 100
9, 34268, Note_off_c, 4, 60, 0
9, 34272, Note_on_c, 4, 64, 100
9, 34364, Note_off_c, 4, 64, 0
9, 34368, Note_on_c, 4, 65, 100
9, 34460, Note_off_c, 4, 65, 0
9, 34464, Note_on_c, 4, 62, 100
9, 34556, Note_off_c, 4, 62, 0
9, 34560, Note_on_c, 4, 64, 100
9, 34604, Note_off_c, 4, 64, 0
9, 34608, Note_on_c, 4, 68, 100
9, 34652, Note_off_c, 4, 68, 0
9, 34656, Note_on_c, 4, 69, 100
9, 34700, Note_off_c, 4, 69, 0
9, 34704, Note_on_c, 4, 71, 100
9, 34748, Note_off_c, 4, 71, 0
9, 34752, Note_on_c, 4, 72, 100
9, 34844, Note_off_c, 4, 72, 0
9, 34848, Note_on_c, 4, 68, 100
9, 34940, Note_off_c, 4, 68, 0
9, 34944, Note_on_c, 4, 69, 100
9, 35036, Note_off_c, 4, 69, 0
9, 35040, Note_on_c, 4, 64, 100
9, 35132, Note_off_c, 4, 64, 0
9, 35136, Note_on_c, 4, 65, 100
9, 35228, Note_off_c, 4, 65, 0
9, 35232, Note_on_c, 4, 62, 100
9, 35324, Note_off_c, 4, 62, 0
9, 35328, Note_on_c, 4, 64, 100
9, 35420, Note_off_c, 4, 64, 0
9, 35424, Note_on_c, 4, 60, 100
9, 35516, Note_off_c, 4, 60, 0
9, 35520, Note_on_c, 4, 62, 100
9, 35612, Note_off_c, 4, 62, 0
9, 35616, Note_on_c, 4, 59, 100
9, 35708, Note_off_c, 4, 59, 0
9, 35712, Note_on_c, 4, 60, 100
9, 35804, Note_off_c, 4, 60, 0
9, 35808, Note_on_c, 4, 64, 100
9, 35900, Note_off_c, 4, 64, 0
9, 35904, Note_on_c, 4, 65, 100
9, 35996, Note_off_c, 4, 65, 0
9, 36000, Note_on_c, 4, 62, 100
9, 36092, Note_off_c, 4, 62, 0
9, 36096, Note_on_c, 4, 64, 100
9, 36188, Note_off_c, 4, 64, 0
9, 36192, Note_on_c, 4, 69, 100
9, 36284, Note_off_c, 4, 69, 0
9, 36288, Note_on_c, 4, 71, 100
9, 36380, Note_off_c, 4, 71, 0
9, 36384, Note_on_c, 4, 68, 100
9, 36476, Note_off_c, 4, 68, 0
9, 36480, Note_on_c, 4, 69, 100
9, 36572, Note_off_c, 4, 69, 0
9, 36576, Note_on_c, 4, 72, 100
9, 36668, Note_off_c, 4, 72, 0
9, 36672, Note_on_c, 4, 74, 100
9, 36764, Note_off_c, 4, 74, 0
9, 36768, Note_on_c, 4, 71, 100
9, 36860, Note_off_c, 4, 71, 0
9, 36864, Note_on_c, 4, 72, 100
9, 36956, Note_off_c, 4, 72, 0
9, 36960, Note_on_c, 4, 68, 100
9, 37052, Note_off_c, 4, 68, 0
9, 37056, Note_on_c, 4, 69, 100
9, 37148, Note_off_c, 4, 69, 0
9, 37152, Note_on_c, 4, 64, 100
9, 37244, Note_off_c, 4, 64, 0
9, 37248, Note_on_c, 4, 65, 100
9, 37340, Note_off_c, 4, 65, 0
9, 37344, Note_on_c, 4, 62, 100
9, 37436, Note_off_c, 4, 62, 0
9, 37440, Note_on_c, 4, 64, 100
9, 37532, Note_off_c, 4, 64, 0
9, 37536, Note_on_c, 4, 59, 100
9, 37628, Note_off_c, 4, 59, 0
9, 37632, Note_on_c, 4, 60, 100
9, 37724, Note_off_c, 4, 60, 0
9, 37728, Note_on_c, 4, 56, 100
9, 37820, Note_off_c, 4, 56, 0
9, 37824, Note_on_c, 4, 57, 100
9, 37916, Note_off_c, 4, 57, 0
9, 37920, Note_on_c, 4, 52, 100
9, 38012, Note_off_c, 4, 52, 0
9, 38016, Note_on_c, 4, 53, 100
9, 38108, Note_off_c, 4, 53, 0
9, 38112, Note_on_c, 4, 50, 100
9, 38204, Note_off_c, 4, 50, 0
9, 38208, Note_on_c, 4, 52, 100
9, 38300, Note_off_c, 4, 52, 0
9, 38304, Note_on_c, 4, 47, 100
9, 38396, Note_off_c, 4, 47, 0
9, 38400, Note_on_c, 4, 48, 100
9, 38492, Note_off_c, 4, 48, 0
9, 38496, Note_on_c, 4, 44, 100
9, 38588, Note_off_c, 4, 44, 0
9, 38592, Note_on_c, 4, 45, 100
9, 38684, Note_off_c, 4, 45, 0
9, 38688, Note_on_c, 4, 48, 100
9, 38780, Note_off_c, 4, 48, 0
9, 38784, Note_on_c, 4, 52, 100
9, 38876, Note_off_c, 4, 52, 0
9, 38880, Note_on_c, 4, 47, 100
9, 38972, Note_off_c, 4, 47, 0
9, 38976, Note_on_c, 4, 48, 100
9, 39068, Note_off_c, 4, 48, 0
9, 39072, Note_on_c, 4, 52, 100
9, 39164, Note_off_c, 4, 52, 0
9, 39168, Note_on_c, 4, 57, 100
9, 39260, Note_off_c, 4, 57, 0
9, 39264, Note_on_c, 4, 51, 100
9, 39356, Note_off_c, 4, 51, 0
9, 39360, Note_on_c, 4, 52, 100
9, 39452, Note_off_c, 4, 52, 0
9, 39456, Note_on_c, 4, 57, 100
9, 39548, Note_off_c, 4, 57, 0
9, 39552, Note_on_c, 4, 60, 100
9, 39644, Note_off_c, 4, 60, 0
9, 39648, Note_on_c, 4, 56, 100
9, 39740, Note_off_c, 4, 56, 0
9, 39744, Note_on_c, 4, 57, 100
9, 39836, Note_off_c, 4, 57, 0
9, 39840, Note_on_c, 4, 60, 100
9, 39932, Note_off_c, 4, 60, 0
9, 39936, Note_on_c, 4, 64, 100
9, 40028, Note_off_c, 4, 64, 0
9, 40032, Note_on_c, 4, 59, 100
9, 40124, Note_off_c, 4, 59, 0
9, 40128, Note_on_c, 4, 60, 100
9, 40220, Note_off_c, 4, 60, 0
9, 40224, Note_on_c, 4, 64, 100
9, 40316, Note_off_c, 4, 64, 0
9, 40320, Note_on_c, 4, 69, 100
9, 40508, Note_off_c, 4, 69, 0
9, 40512, Note_on_c, 4, 72, 100
9, 40512, Note_on_c, 4, 69, 100
9, 40512, Note_on_c, 4, 64, 100
9, 40700, Note_off_c, 4, 72, 0
9, 40700, Note_off_c, 4, 69, 0
9, 40700, Note_off_c, 4, 64, 0
9, 40704, Note_on_c, 4, 76, 100
9, 40704, Note_on_c, 4, 72, 100
9, 40704, Note_on_c, 4, 69, 100
9, 40892, Note_off_c, 4, 76, 0
9, 40892, Note_off_c, 4, 72, 0
9, 40892, Note_off_c, 4, 69, 0
9, 40896, Note_on_c, 4, 64, 100
9, 40896, Note_on_c, 4, 69, 100
9, 40896, Note_on_c, 4, 60, 100
9, 41084, Note_off_c, 4, 64, 0
9, 41084, Note_off_c, 4, 69, 0
9, 41084, Note_off_c, 4, 60, 0
9, 41088, Note_on_c, 4, 72, 100
9, 41088, Note_on_c, 4, 69, 100
9, 41088, Note_on_c, 4, 64, 100
9, 41276, Note_off_c, 4, 72, 0
9, 41276, Note_off_c, 4, 69, 0
9, 41276, Note_off_c, 4, 64, 0
9, 41280, Note_on_c, 4, 76, 100
9, 41280, Note_on_c, 4, 72, 100
9, 41280, Note_on_c, 4, 69, 100
9, 41468, Note_off_c, 4, 76, 0
9, 41468, Note_off_c, 4, 72, 0
9, 41468, Note_off_c, 4, 69, 0
9, 41472, Note_on_c, 4, 81, 100
9, 41472, Note_on_c, 4, 76, 100
9, 41472, Note_on_c, 4, 72, 100
9, 41564, Note_off_c, 4, 81, 0
9, 41564, Note_off_c, 4, 76, 0
9, 41564, Note_off_c, 4, 72, 0
9, 41568, Note_on_c, 4, 69, 100
9, 41660, Note_off_c, 4, 69, 0
9, 41664, Note_on_c, 4, 72, 100
9, 41756, Note_off_c, 4, 72, 0
9, 41760, Note_on_c, 4, 76, 100
9, 41852, Note_off_c, 4, 76, 0
9, 41856, Note_on_c, 4, 81, 100
9, 41948, Note_off_c, 4, 81, 0
9, 41952, Note_on_c, 4, 69, 100
9, 42044, Note_off_c, 4, 69, 0
9, 42048, Note_on_c, 4, 72, 100
9, 42140, Note_off_c, 4, 72, 0
9, 42144, Note_on_c, 4, 76, 100
9, 42236, Note_off_c, 4, 76, 0
9, 42240, Note_on_c, 4, 81, 100
9, 42332, Note_off_c, 4, 81, 0
9, 42336, Note_on_c, 4, 69, 100
9, 42428, Note_off_c, 4, 69, 0
9, 42432, Note_on_c, 4, 73, 100
9, 42524, Note_off_c, 4, 73, 0
9, 42528, Note_on_c, 4, 76, 100
9, 42620, Note_off_c, 4, 76, 0
9, 42624, Note_on_c, 4, 81, 100
9, 42716, Note_off_c, 4, 81, 0
9, 42720, Note_on_c, 4, 69, 100
9, 42812, Note_off_c, 4, 69, 0
9, 42816, Note_on_c, 4, 73, 100
9, 42908, Note_off_c, 4, 73, 0
9, 42912, Note_on_c, 4, 76, 100
9, 43004, Note_off_c, 4, 76, 0
9, 43008, Note_on_c, 4, 81, 100
9, 43100, Note_off_c, 4, 81, 0
9, 43104, Note_on_c, 4, 69, 100
9, 43196, Note_off_c, 4, 69, 0
9, 43200, Note_on_c, 4, 74, 100
9, 43292, Note_off_c, 4, 74, 0
9, 43296, Note_on_c, 4, 77, 100
9, 43388, Note_off_c, 4, 77, 0
9, 43392, Note_on_c, 4, 81, 100
9, 43484, Note_off_c, 4, 81, 0
9, 43488, Note_on_c, 4, 69, 100
9, 43580, Note_off_c, 4, 69, 0
9, 43584, Note_on_c, 4, 74, 100
9, 43676, Note_off_c, 4, 74, 0
9, 43680, Note_on_c, 4, 77, 100
9, 43772, Note_off_c, 4, 77, 0
9, 43776, Note_on_c, 4, 81, 100
9, 43868, Note_off_c, 4, 81, 0
9, 43872, Note_on_c, 4, 69, 100
9, 43964, Note_off_c, 4, 69, 0
9, 43968, Note_on_c, 4, 72, 100
9, 44060, Note_off_c, 4, 72, 0
9, 44064, Note_on_c, 4, 78, 100
9, 44156, Note_off_c, 4, 78, 0
9, 44160, Note_on_c, 4, 81, 100
9, 44252, Note_off_c, 4, 81, 0
9, 44256, Note_on_c, 4, 78, 100
9, 44348, Note_off_c, 4, 78, 0
9, 44352, Note_on_c, 4, 72, 100
9, 44444, Note_off_c, 4, 72, 0
9, 44448, Note_on_c, 4, 69, 100
9, 44540, Note_off_c, 4, 69, 0
9, 44544, Note_on_c, 4, 70, 100
9, 44636, Note_off_c, 4, 70, 0
9, 44640, Note_on_c, 4, 67, 100
9, 44732, Note_off_c, 4, 67, 0
9, 44736, Note_on_c, 4, 70, 100
9, 44828, Note_off_c, 4, 70, 0
9, 44832, Note_on_c, 4, 74, 100
9, 44924, Note_off_c, 4, 74, 0
9, 44928, Note_on_c, 4, 79, 100
9, 45020, Note_off_c, 4, 79, 0
9, 45024, Note_on_c, 4, 67, 100
9, 45116, Note_off_c, 4, 67, 0
9, 45120, Note_on_c, 4, 70, 100
9, 45212, Note_off_c, 4, 70, 0
9, 45216, Note_on_c, 4, 74, 100
9, 45308, Note_off_c, 4, 74, 0
9, 45312, Note_on_c, 4, 79, 100
9, 45404, Note_off_c, 4, 79, 0
9, 45408, Note_on_c, 4, 67, 100
9, 45500, Note_off_c, 4, 67, 0
9, 45504, Note_on_c, 4, 71, 100
9, 45596, Note_off_c, 4, 71, 0
9, 45600, Note_on_c, 4, 74, 100
9, 45692, Note_off_c, 4, 74, 0
9, 45696, Note_on_c, 4, 79, 100
9, 45788, Note_off_c, 4, 79, 0
9, 45792, Note_on_c, 4, 67, 100
9, 45884, Note_off_c, 4, 67, 0
9, 45888, Note_on_c, 4, 71, 100
9, 45980, Note_off_c, 4, 71, 0
9, 45984, Note_on_c, 4, 74, 100
9, 46076, Note_off_c, 4, 74, 0
9, 46080, Note_on_c, 4, 79, 100
9, 46172, Note_off_c, 4, 79, 0
9, 46176, Note_on_c, 4, 67, 100
9, 46268, Note_off_c, 4, 67, 0
9, 46272, Note_on_c, 4, 72, 100
9, 46364, Note_off_c, 4, 72, 0
9, 46368, Note_on_c, 4, 76, 100
9, 46460, Note_off_c, 4, 76, 0
9, 46464, Note_on_c, 4, 79, 100
9, 46556, Note_off_c, 4, 79, 0
9, 46560, Note_on_c, 4, 67, 100
9, 46652, Note_off_c, 4, 67, 0
9, 46656, Note_on_c, 4, 72, 100
9, 46748, Note_off_c, 4, 72, 0
9, 46752, Note_on_c, 4, 76, 100
9, 46844, Note_off_c, 4, 76, 0
9, 46848, Note_on_c, 4, 79, 100
9, 46940, Note_off_c, 4, 79, 0
9, 46944, Note_on_c, 4, 67, 100
9, 47036, Note_off_c, 4, 67, 0
9, 47040, Note_on_c, 4, 70, 100
9, 47132, Note_off_c, 4, 70, 0
9, 47136, Note_on_c, 4, 76, 100
9, 47228, Note_off_c, 4, 76, 0
9, 47232, Note_on_c, 4, 79, 100
9, 47324, Note_off_c, 4, 79, 0
9, 47328, Note_on_c, 4, 76, 100
9, 47420, Note_off_c, 4, 76, 0
9, 47424, Note_on_c, 4, 70, 100
9, 47516, Note_off_c, 4, 70, 0
9, 47520, Note_on_c, 4, 67, 100
9, 47612, Note_off_c, 4, 67, 0
9, 47616, Note_on_c, 4, 69, 100
9, 47708, Note_off_c, 4, 69, 0
9, 47712, Note_on_c, 4, 65, 100
9, 47804, Note_off_c, 4, 65, 0
9, 47808, Note_on_c, 4, 69, 100
9, 47900, Note_off_c, 4, 69, 0
9, 47904, Note_on_c, 4, 72, 100
9, 47996, Note_off_c, 4, 72, 0
9, 48000, Note_on_c, 4, 77, 100
9, 48092, Note_off_c, 4, 77, 0
9, 48096, Note_on_c, 4, 65, 100
9, 48188, Note_off_c, 4, 65, 0
9, 48192, Note_on_c, 4, 69, 100
9, 48284, Note_off_c, 4, 69, 0
9, 48288, Note_on_c, 4, 72, 100
9, 48380, Note_off_c, 4, 72, 0
9, 48384, Note_on_c, 4, 77, 100
9, 48476, Note_off_c, 4, 77, 0
9, 48480, Note_on_c, 4, 65, 100
9, 48572, Note_off_c, 4, 65, 0
9, 48576, Note_on_c, 4, 69, 100
9, 48668, Note_off_c, 4, 69, 0
9, 48672, Note_on_c, 4, 72, 100
9, 48764, Note_off_c, 4, 72, 0
9, 48768, Note_on_c, 4, 77, 100
9, 48860, Note_off_c, 4, 77, 0
9, 48864, Note_on_c, 4, 65, 100
9, 48956, Note_off_c, 4, 65, 0
9, 48960, Note_on_c, 4, 69, 100
9, 49052, Note_off_c, 4, 69, 0
9, 49056, Note_on_c, 4, 72, 100
9, 49148, Note_off_c, 4, 72, 0
9, 49152, Note_on_c, 4, 77, 100
9, 49244, Note_off_c, 4, 77, 0
9, 49248, Note_on_c, 4, 65, 100
9, 49340, Note_off_c, 4, 65, 0
9, 49344, Note_on_c, 4, 70, 100
9, 49436, Note_off_c, 4, 70, 0
9, 49440, Note_on_c, 4, 74, 100
9, 49532, Note_off_c, 4, 74, 0
9, 49536, Note_on_c, 4, 77, 100
9, 49628, Note_off_c, 4, 77, 0
9, 49632, Note_on_c, 4, 65, 100
9, 49724, Note_off_c, 4, 65, 0
9, 49728, Note_on_c, 4, 70, 100
9, 49820, Note_off_c, 4, 70, 0
9, 49824, Note_on_c, 4, 74, 100
9, 49916, Note_off_c, 4, 74, 0
9, 49920, Note_on_c, 4, 77, 100
9, 50012, Note_off_c, 4, 77, 0
9, 50016, Note_on_c, 4, 65, 100
9, 50108, Note_off_c, 4, 65, 0
9, 50112, Note_on_c, 4, 70, 100
9, 50204, Note_off_c, 4, 70, 0
9, 50208, Note_on_c, 4, 74, 100
9, 50300, Note_off_c, 4, 74, 0
9, 50304, Note_on_c, 4, 77, 100
9, 50396, Note_off_c, 4, 77, 0
9, 50400, Note_on_c, 4, 74, 100
9, 50492, Note_off_c, 4, 74, 0
9, 50496, Note_on_c, 4, 70, 100
9, 50588, Note_off_c, 4, 70, 0
9, 50592, Note_on_c, 4, 74, 100
9, 50684, Note_off_c, 4, 74, 0
9, 50688, Note_on_c, 4, 68, 100
9, 50780, Note_off_c, 4, 68, 0
9, 50784, Note_on_c, 4, 64, 100
9, 50876, Note_off_c, 4, 64, 0
9, 50880, Note_on_c, 4, 68, 100
9, 50972, Note_off_c, 4, 68, 0
9, 50976, Note_on_c, 4, 71, 100
9, 51068, Note_off_c, 4, 71, 0
9, 51072, Note_on_c, 4, 76, 100
9, 51164, Note_off_c, 4, 76, 0
9, 51168, Note_on_c, 4, 64, 100
9, 51260, Note_off_c, 4, 64, 0
9, 51264, Note_on_c, 4, 68, 100
9, 51356, Note_off_c, 4, 68, 0
9, 51360, Note_on_c, 4, 71, 100
9, 51452, Note_off_c, 4, 71, 0
9, 51456, Note_on_c, 4, 76, 100
9, 51548, Note_off_c, 4, 76, 0
9, 51552, Note_on_c, 4, 64, 100
9, 51644, Note_off_c, 4, 64, 0
9, 51648, Note_on_c, 4, 69, 100
9, 51740, Note_off_c, 4, 69, 0
9, 51744, Note_on_c, 4, 72, 100
9, 51836, Note_off_c, 4, 72, 0
9, 51840, Note_on_c, 4, 76, 100
9, 51932, Note_off_c, 4, 76, 0
9, 51936, Note_on_c, 4, 72, 100
9, 52028, Note_off_c, 4, 72, 0
9, 52032, Note_on_c, 4, 69, 100
9, 52124, Note_off_c, 4, 69, 0
9, 52128, Note_on_c, 4, 72, 100
9, 52220, Note_off_c, 4, 72, 0
9, 52224, Note_on_c, 4, 66, 100
9, 52316, Note_off_c, 4, 66, 0
9, 52320, Note_on_c, 4, 62, 100
9, 52412, Note_off_c, 4, 62, 0
9, 52416, Note_on_c, 4, 66, 100
9, 52508, Note_off_c, 4, 66, 0
9, 52512, Note_on_c, 4, 69, 100
9, 52604, Note_off_c, 4, 69, 0
9, 52608, Note_on_c, 4, 74, 100
9, 52700, Note_off_c, 4, 74, 0
9, 52704, Note_on_c, 4, 62, 100
9, 52796, Note_off_c, 4, 62, 0
9, 52800, Note_on_c, 4, 66, 100
9, 52892, Note_off_c, 4, 66, 0
9, 52896, Note_on_c, 4, 69, 100
9, 52988, Note_off_c, 4, 69, 0
9, 52992, Note_on_c, 4, 74, 100
9, 53084, Note_off_c, 4, 74, 0
9, 53088, Note_on_c, 4, 62, 100
9, 53180, Note_off_c, 4, 62, 0
9, 53184, Note_on_c, 4, 67, 100
9, 53276, Note_off_c, 4, 67, 0
9, 53280, Note_on_c, 4, 70, 100
9, 53372, Note_off_c, 4, 70, 0
9, 53376, Note_on_c, 4, 74, 100
9, 53468, Note_off_c, 4, 74, 0
9, 53472, Note_on_c, 4, 70, 100
9, 53564, Note_off_c, 4, 70, 0
9, 53568, Note_on_c, 4, 67, 100
9, 53660, Note_off_c, 4, 67, 0
9, 53664, Note_on_c, 4, 70, 100
9, 53756, Note_off_c, 4, 70, 0
9, 53760, Note_on_c, 4, 64, 100
9, 53852, Note_off_c, 4, 64, 0
9, 53856, Note_on_c, 4, 60, 100
9, 53948, Note_off_c, 4, 60, 0
9, 53952, Note_on_c, 4, 64, 100
9, 54044, Note_off_c, 4, 64, 0
9, 54048, Note_on_c, 4, 67, 100
9, 54140, Note_off_c, 4, 67, 0
9, 54144, Note_on_c, 4, 72, 100
9, 54236, Note_off_c, 4, 72, 0
9, 54240, Note_on_c, 4, 60, 100
9, 54332, Note_off_c, 4, 60, 0
9, 54336, Note_on_c, 4, 64, 100
9, 54428, Note_off_c, 4, 64, 0
9, 54432, Note_on_c, 4, 67, 100
9, 54524, Note_off_c, 4, 67, 0
9, 54528, Note_on_c, 4, 72, 100
9, 54620, Note_off_c, 4, 72, 0
9, 54624, Note_on_c, 4, 60, 100
9, 54716, Note_off_c, 4, 60, 0
9, 54720, Note_on_c, 4, 65, 100
9, 54812, Note_off_c, 4, 65, 0
9, 54816, Note_on_c, 4, 69, 100
9, 54908, Note_off_c, 4, 69, 0
9, 54912, Note_on_c, 4, 72, 100
9, 55004, Note_off_c, 4, 72, 0
9, 55008, Note_on_c, 4, 69, 100
9, 55100, Note_off_c, 4, 69, 0
9, 55104, Note_on_c, 4, 65, 100
9, 55196, Note_off_c, 4, 65, 0
9, 55200, Note_on_c, 4, 69, 100
9, 55292, Note_off_c, 4, 69, 0
9, 55296, Note_on_c, 4, 62, 100
9, 55388, Note_off_c, 4, 62, 0
9, 55392, Note_on_c, 4, 58, 100
9, 55484, Note_off_c, 4, 58, 0
9, 55488, Note_on_c, 4, 62, 100
9, 55580, Note_off_c, 4, 62, 0
9, 55584, Note_on_c, 4, 65, 100
9, 55676, Note_off_c, 4, 65, 0
9, 55680, Note_on_c, 4, 70, 100
9, 55772, Note_off_c, 4, 70, 0
9, 55776, Note_on_c, 4, 67, 100
9, 55868, Note_off_c, 4, 67, 0
9, 55872, Note_on_c, 4, 64, 100
9, 55964, Note_off_c, 4, 64, 0
9, 55968, Note_on_c, 4, 67, 100
9, 56060, Note_off_c, 4, 67, 0
9, 56064, Note_on_c, 4, 60, 100
9, 56156, Note_off_c, 4, 60, 0
9, 56160, Note_on_c, 4, 57, 100
9, 56252, Note_off_c, 4, 57, 0
9, 56256, Note_on_c, 4, 60, 100
9, 56348, Note_off_c, 4, 60, 0
9, 56352, Note_on_c, 4, 64, 100
9, 56444, Note_off_c, 4, 64, 0
9, 56448, Note_on_c, 4, 69, 100
9, 56540, Note_off_c, 4, 69, 0
9, 56544, Note_on_c, 4, 65, 100
9, 56636, Note_off_c, 4, 65, 0
9, 56640, Note_on_c, 4, 62, 100
9, 56732, Note_off_c, 4, 62, 0
9, 56736, Note_on_c, 4, 65, 100
9, 56828, Note_off_c, 4, 65, 0
9, 56832, Note_on_c, 4, 58, 100
9, 56924, Note_off_c, 4, 58, 0
9, 56928, Note_on_c, 4, 55, 100
9, 57020, Note_off_c, 4, 55, 0
9, 57024, Note_on_c, 4, 58, 100
9, 57116, Note_off_c, 4, 58, 0
9, 57120, Note_on_c, 4, 62, 100
9, 57212, Note_off_c, 4, 62, 0
9, 57216, Note_on_c, 4, 67, 100
9, 57308, Note_off_c, 4, 67, 0
9, 57312, Note_on_c, 4, 64, 100
9, 57404, Note_off_c, 4, 64, 0
9, 57408, Note_on_c, 4, 60, 100
9, 57500, Note_off_c, 4, 60, 0
9, 57504, Note_on_c, 4, 64, 100
9, 57596, Note_off_c, 4, 64, 0
9, 57600, Note_on_c, 4, 57, 100
9, 57692, Note_off_c, 4, 57, 0
9, 57696, Note_on_c, 4, 65, 100
9, 57788, Note_off_c, 4, 65, 0
9, 57792, Note_on_c, 4, 67, 100
9, 57884, Note_off_c, 4, 67, 0
9, 57888, Note_on_c, 4, 69, 100
9, 57980, Note_off_c, 4, 69, 0
9, 57984, Note_on_c, 4, 70, 100
9, 58076, Note_off_c, 4, 70, 0
9, 58080, Note_on_c, 4, 72, 100
9, 58172, Note_off_c, 4, 72, 0
9, 58176, Note_on_c, 4, 74, 100
9, 58268, Note_off_c, 4, 74, 0
9, 58272, Note_on_c, 4, 76, 100
9, 58364, Note_off_c, 4, 76, 0
9, 58368, Note_on_c, 4, 77, 100
9, 58460, Note_off_c, 4, 77, 0
9, 58464, Note_on_c, 4, 72, 100
9, 58556, Note_off_c, 4, 72, 0
9, 58560, Note_on_c, 4, 74, 100
9, 58652, Note_off_c, 4, 74, 0
9, 58656, Note_on_c, 4, 76, 100
9, 58748, Note_off_c, 4, 76, 0
9, 58752, Note_on_c, 4, 77, 100
9, 58844, Note_off_c, 4, 77, 0
9, 58848, Note_on_c, 4, 79, 100
9, 58940, Note_off_c, 4, 79, 0
9, 58944, Note_on_c, 4, 81, 100
9, 59036, Note_off_c, 4, 81, 0
9, 59040, Note_on_c, 4, 82, 100
9, 59132, Note_off_c, 4, 82, 0
9, 59136, Note_on_c, 4, 84, 100
9, 59324, Note_off_c, 4, 84, 0
9, 59328, Note_on_c, 4, 77, 100
9, 59516, Note_off_c, 4, 77, 0
9, 59520, Note_on_c, 4, 67, 100
9, 59708, Note_off_c, 4, 67, 0
9, 59712, Note_on_c, 4, 76, 100
9, 59900, Note_off_c, 4, 76, 0
9, 59904, Note_on_c, 4, 65, 100
9, 59996, Note_off_c, 4, 65, 0
9, 60000, Note_on_c, 4, 67, 100
9, 60092, Note_off_c, 4, 67, 0
9, 60096, Note_on_c, 4, 69, 100
9, 60284, Note_off_c, 4, 69, 0
9, 60288, Note_on_c, 4, 67, 100
9, 60476, Note_off_c, 4, 67, 0
9, 60480, Note_on_c, 4, 65, 100
9, 60668, Note_off_c, 4, 65, 0
9, 60672, Note_on_c, 4, 72, 100
9, 60860, Note_off_c, 4, 72, 0
9, 60864, Note_on_c, 4, 81, 100
9, 61244, Note_off_c, 4, 81, 0
9, 61248, Note_on_c, 4, 72, 100
9, 61436, Note_off_c, 4, 72, 0
9, 61440, Note_on_c, 4, 64, 100
9, 61532, Note_off_c, 4, 64, 0
9, 61536, Note_on_c, 4, 65, 100
9, 61628, Note_off_c, 4, 65, 0
9, 61632, Note_on_c, 4, 67, 100
9, 61820, Note_off_c, 4, 67, 0
9, 61824, Note_on_c, 4, 65, 100
9, 62012, Note_off_c, 4, 65, 0
9, 62016, Note_on_c, 4, 64, 100
9, 62204, Note_off_c, 4, 64, 0
9, 62208, Note_on_c, 4, 70, 100
9, 62396, Note_off_c, 4, 70, 0
9, 62400, Note_on_c, 4, 79, 100
9, 62780, Note_off_c, 4, 79, 0
9, 62784, Note_on_c, 4, 70, 100
9, 62972, Note_off_c, 4, 70, 0
9, 62976, Note_on_c, 4, 69, 100
9, 63068, Note_off_c, 4, 69, 0
9, 63072, Note_on_c, 4, 70, 100
9, 63164, Note_off_c, 4, 70, 0
9, 63168, Note_on_c, 4, 72, 100
9, 63356, Note_off_c, 4, 72, 0
9, 63360, Note_on_c, 4, 72, 100
9, 63452, Note_off_c, 4, 72, 0
9, 63456, Note_on_c, 4, 74, 100
9, 63548, Note_off_c, 4, 74, 0
9, 63552, Note_on_c, 4, 75, 100
9, 63740, Note_off_c, 4, 75, 0
9, 63744, Note_on_c, 4, 66, 100
9, 63932, Note_off_c, 4, 66, 0
9, 63936, Note_on_c, 4, 81, 100
9, 64028, Note_off_c, 4, 81, 0
9, 64032, Note_on_c, 4, 79, 100
9, 64124, Note_off_c, 4, 79, 0
9, 64128, Note_on_c, 4, 78, 100
9, 64220, Note_off_c, 4, 78, 0
9, 64224, Note_on_c, 4, 76, 100
9, 64316, Note_off_c, 4, 76, 0
9, 64320, Note_on_c, 4, 74, 100
9, 64412, Note_off_c, 4, 74, 0
9, 64416, Note_on_c, 4, 72, 100
9, 64508, Note_off_c, 4, 72, 0
9, 64512, Note_on_c, 4, 70, 100
9, 64604, Note_off_c, 4, 70, 0
9, 64608, Note_on_c, 4, 72, 100
9, 64700, Note_off_c, 4, 72, 0
9, 64704, Note_on_c, 4, 74, 100
9, 64892, Note_off_c, 4, 74, 0
9, 64896, Note_on_c, 4, 74, 100
9, 64988, Note_off_c, 4, 74, 0
9, 64992, Note_on_c, 4, 76, 100
9, 65084, Note_off_c, 4, 76, 0
9, 65088, Note_on_c, 4, 77, 100
9, 65276, Note_off_c, 4, 77, 0
9, 65280, Note_on_c, 4, 68, 100
9, 65468, Note_off_c, 4, 68, 0
9, 65472, Note_on_c, 4, 83, 100
9, 65564, Note_off_c, 4, 83, 0
9, 65568, Note_on_c, 4, 81, 100
9, 65660, Note_off_c, 4, 81, 0
9, 65664, Note_on_c, 4, 80, 100
9, 65756, Note_off_c, 4, 80, 0
9, 65760, Note_on_c, 4, 78, 100
9, 65852, Note_off_c, 4, 78, 0
9, 65856, Note_on_c, 4, 76, 100
9, 65948, Note_off_c, 4, 76, 0
9, 65952, Note_on_c, 4, 74, 100
9, 66044, Note_off_c, 4, 74, 0
9, 66048, Note_on_c, 4, 73, 100
9, 66140, Note_off_c, 4, 73, 0
9, 66144, Note_on_c, 4, 74, 100
9, 66236, Note_off_c, 4, 74, 0
9, 66240, Note_on_c, 4, 76, 100
9, 66332, Note_off_c, 4, 76, 0
9, 66336, Note_on_c, 4, 77, 100
9, 66428, Note_off_c, 4, 77, 0
9, 66432, Note_on_c, 4, 79, 100
9, 66524, Note_off_c, 4, 79, 0
9, 66528, Note_on_c, 4, 81, 100
9, 66620, Note_off_c, 4, 81, 0
9, 66624, Note_on_c, 4, 82, 100
9, 66716, Note_off_c, 4, 82, 0
9, 66720, Note_on_c, 4, 79, 100
9, 66812, Note_off_c, 4, 79, 0
9, 66816, Note_on_c, 4, 73, 100
9, 67004, Note_off_c, 4, 73, 0
9, 67008, Note_on_c, 4, 76, 100
9, 67100, Note_off_c, 4, 76, 0
9, 67104, Note_on_c, 4, 74, 100
9, 67196, Note_off_c, 4, 74, 0
9, 67200, Note_on_c, 4, 72, 100
9, 67292, Note_off_c, 4, 72, 0
9, 67296, Note_on_c, 4, 71, 100
9, 67388, Note_off_c, 4, 71, 0
9, 67392, Note_on_c, 4, 69, 100
9, 67484, Note_off_c, 4, 69, 0
9, 67488, Note_on_c, 4, 67, 100
9, 67580, Note_off_c, 4, 67, 0
9, 67584, Note_on_c, 4, 65, 100
9, 67676, Note_off_c, 4, 65, 0
9, 67680, Note_on_c, 4, 67, 100
9, 67772, Note_off_c, 4, 67, 0
9, 67776, Note_on_c, 4, 69, 100
9, 67868, Note_off_c, 4, 69, 0
9, 67872, Note_on_c, 4, 67, 100
9, 67964, Note_off_c, 4, 67, 0
9, 67968, Note_on_c, 4, 65, 100
9, 68060, Note_off_c, 4, 65, 0
9, 68064, Note_on_c, 4, 64, 100
9, 68156, Note_off_c, 4, 64, 0
9, 68160, Note_on_c, 4, 62, 100
9, 68252, Note_off_c, 4, 62, 0
9, 68256, Note_on_c, 4, 61, 100
9, 68348, Note_off_c, 4, 61, 0
9, 68352, Note_on_c, 4, 62, 100
9, 68444, Note_off_c, 4, 62, 0
9, 68448, Note_on_c, 4, 65, 100
9, 68540, Note_off_c, 4, 65, 0
9, 68544, Note_on_c, 4, 69, 100
9, 68636, Note_off_c, 4, 69, 0
9, 68640, Note_on_c, 4, 73, 100
9, 68732, Note_off_c, 4, 73, 0
9, 68736, Note_on_c, 4, 74, 100
9, 68828, Note_off_c, 4, 74, 0
9, 68832, Note_on_c, 4, 69, 100
9, 68924, Note_off_c, 4, 69, 0
9, 68928, Note_on_c, 4, 65, 100
9, 69020, Note_off_c, 4, 65, 0
9, 69024, Note_on_c, 4, 62, 100
9, 69116, Note_off_c, 4, 62, 0
9, 69216, Note_on_c, 4, 65, 100
9, 69308, Note_off_c, 4, 65, 0
9, 69312, Note_on_c, 4, 71, 100
9, 69404, Note_off_c, 4, 71, 0
9, 69408, Note_on_c, 4, 69, 100
9, 69500, Note_off_c, 4, 69, 0
9, 69504, Note_on_c, 4, 71, 100
9, 69596, Note_off_c, 4, 71, 0
9, 69600, Note_on_c, 4, 65, 100
9, 69692, Note_off_c, 4, 65, 0
9, 69696, Note_on_c, 4, 64, 100
9, 69788, Note_off_c, 4, 64, 0
9, 69792, Note_on_c, 4, 62, 100
9, 69884, Note_off_c, 4, 62, 0
9, 69984, Note_on_c, 4, 65, 100
9, 70076, Note_off_c, 4, 65, 0
9, 70080, Note_on_c, 4, 71, 100
9, 70172, Note_off_c, 4, 71, 0
9, 70176, Note_on_c, 4, 69, 100
9, 70268, Note_off_c, 4, 69, 0
9, 70272, Note_on_c, 4, 71, 100
9, 70364, Note_off_c, 4, 71, 0
9, 70368, Note_on_c, 4, 65, 100
9, 70460, Note_off_c, 4, 65, 0
9, 70464, Note_on_c, 4, 64, 100
9, 70556, Note_off_c, 4, 64, 0
9, 70560, Note_on_c, 4, 62, 100
9, 70652, Note_off_c, 4, 62, 0
9, 70656, Note_on_c, 4, 60, 100
9, 70748, Note_off_c, 4, 60, 0
9, 70752, Note_on_c, 4, 64, 100
9, 70844, Note_off_c, 4, 64, 0
9, 70848, Note_on_c, 4, 69, 100
9, 70940, Note_off_c, 4, 69, 0
9, 70944, Note_on_c, 4, 68, 100
9, 71036, Note_off_c, 4, 68, 0
9, 71040, Note_on_c, 4, 69, 100
9, 71132, Note_off_c, 4, 69, 0
9, 71136, Note_on_c, 4, 65, 100
9, 71228, Note_off_c, 4, 65, 0
9, 71232, Note_on_c, 4, 64, 100
9, 71324, Note_off_c, 4, 64, 0
9, 71328, Note_on_c, 4, 62, 100
9, 71420, Note_off_c, 4, 62, 0
9, 71424, Note_on_c, 4, 60, 100
9, 71516, Note_off_c, 4, 60, 0
9, 71520, Note_on_c, 4, 64, 100
9, 71612, Note_off_c, 4, 64, 0
9, 71616, Note_on_c, 4, 69, 100
9, 71708, Note_off_c, 4, 69, 0
9, 71712, Note_on_c, 4, 68, 100
9, 71804, Note_off_c, 4, 68, 0
9, 71808, Note_on_c, 4, 69, 100
9, 71900, Note_off_c, 4, 69, 0
9, 71904, Note_on_c, 4, 65, 100
9, 71996, Note_off_c, 4, 65, 0
9, 72000, Note_on_c, 4, 64, 100
9, 72092, Note_off_c, 4, 64, 0
9, 72096, Note_on_c, 4, 62, 100
9, 72188, Note_off_c, 4, 62, 0
9, 72288, Note_on_c, 4, 70, 100
9, 72380, Note_off_c, 4, 70, 0
9, 72384, Note_on_c, 4, 76, 100
9, 72476, Note_off_c, 4, 76, 0
9, 72480, Note_on_c, 4, 74, 100
9, 72572, Note_off_c, 4, 74, 0
9, 72576, Note_on_c, 4, 76, 100
9, 72668, Note_off_c, 4, 76, 0
9, 72672, Note_on_c, 4, 70, 100
9, 72764, Note_off_c, 4, 70, 0
9, 72768, Note_on_c, 4, 69, 100
9, 72860, Note_off_c, 4, 69, 0
9, 72864, Note_on_c, 4, 67, 100
9, 72956, Note_off_c, 4, 67, 0
9, 73056, Note_on_c, 4, 70, 100
9, 73148, Note_off_c, 4, 70, 0
9, 73152, Note_on_c, 4, 76, 100
9, 73244, Note_off_c, 4, 76, 0
9, 73248, Note_on_c, 4, 74, 100
9, 73340, Note_off_c, 4, 74, 0
9, 73344, Note_on_c, 4, 76, 100
9, 73436, Note_off_c, 4, 76, 0
9, 73440, Note_on_c, 4, 70, 100
9, 73532, Note_off_c, 4, 70, 0
9, 73536, Note_on_c, 4, 69, 100
9, 73628, Note_off_c, 4, 69, 0
9, 73632, Note_on_c, 4, 67, 100
9, 73724, Note_off_c, 4, 67, 0
9, 73728, Note_on_c, 4, 65, 100
9, 73820, Note_off_c, 4, 65, 0
9, 73824, Note_on_c, 4, 69, 100
9, 73916, Note_off_c, 4, 69, 0
9, 73920, Note_on_c, 4, 74, 100
9, 74012, Note_off_c, 4, 74, 0
9, 74016, Note_on_c, 4, 73, 100
9, 74108, Note_off_c, 4, 73, 0
9, 74112, Note_on_c, 4, 74, 100
9, 74204, Note_off_c, 4, 74, 0
9, 74208, Note_on_c, 4, 70, 100
9, 74300, Note_off_c, 4, 70, 0
9, 74304, Note_on_c, 4, 69, 100
9, 74396, Note_off_c, 4, 69, 0
9, 74400, Note_on_c, 4, 67, 100
9, 74492, Note_off_c, 4, 67, 0
9, 74496, Note_on_c, 4, 65, 100
9, 74588, Note_off_c, 4, 65, 0
9, 74592, Note_on_c, 4, 69, 100
9, 74684, Note_off_c, 4, 69, 0
9, 74688, Note_on_c, 4, 74, 100
9, 74780, Note_off_c, 4, 74, 0
9, 74784, Note_on_c, 4, 73, 100
9, 74876, Note_off_c, 4, 73, 0
9, 74880, Note_on_c, 4, 74, 100
9, 74972, Note_off_c, 4, 74, 0
9, 74976, Note_on_c, 4, 67, 100
9, 75068, Note_off_c, 4, 67, 0
9, 75072, Note_on_c, 4, 65, 100
9, 75164, Note_off_c, 4, 65, 0
9, 75168, Note_on_c, 4, 64, 100
9, 75260, Note_off_c, 4, 64, 0
9, 75360, Note_on_c, 4, 72, 100
9, 75452, Note_off_c, 4, 72, 0
9, 75456, Note_on_c, 4, 78, 100
9, 75548, Note_off_c, 4, 78, 0
9, 75552, Note_on_c, 4, 76, 100
9, 75644, Note_off_c, 4, 76, 0
9, 75648, Note_on_c, 4, 78, 100
9, 75740, Note_off_c, 4, 78, 0
9, 75744, Note_on_c, 4, 72, 100
9, 75836, Note_off_c, 4, 72, 0
9, 75840, Note_on_c, 4, 71, 100
9, 75932, Note_off_c, 4, 71, 0
9, 75936, Note_on_c, 4, 69, 100
9, 76028, Note_off_c, 4, 69, 0
9, 76128, Note_on_c, 4, 72, 100
9, 76220, Note_off_c, 4, 72, 0
9, 76224, Note_on_c, 4, 78, 100
9, 76316, Note_off_c, 4, 78, 0
9, 76320, Note_on_c, 4, 76, 100
9, 76412, Note_off_c, 4, 76, 0
9, 76416, Note_on_c, 4, 78, 100
9, 76508, Note_off_c, 4, 78, 0
9, 76512, Note_on_c, 4, 72, 100
9, 76604, Note_off_c, 4, 72, 0
9, 76608, Note_on_c, 4, 71, 100
9, 76700, Note_off_c, 4, 71, 0
9, 76704, Note_on_c, 4, 69, 100
9, 76796, Note_off_c, 4, 69, 0
9, 76896, Note_on_c, 4, 77, 100
9, 76988, Note_off_c, 4, 77, 0
9, 76992, Note_on_c, 4, 83, 100
9, 77084, Note_off_c, 4, 83, 0
9, 77088, Note_on_c, 4, 81, 100
9, 77180, Note_off_c, 4, 81, 0
9, 77184, Note_on_c, 4, 83, 100
9, 77276, Note_off_c, 4, 83, 0
9, 77280, Note_on_c, 4, 77, 100
9, 77372, Note_off_c, 4, 77, 0
9, 77376, Note_on_c, 4, 76, 100
9, 77468, Note_off_c, 4, 76, 0
9, 77472, Note_on_c, 4, 74, 100
9, 77564, Note_off_c, 4, 74, 0
9, 77664, Note_on_c, 4, 77, 100
9, 77756, Note_off_c, 4, 77, 0
9, 77760, Note_on_c, 4, 83, 100
9, 77852, Note_off_c, 4, 83, 0
9, 77856, Note_on_c, 4, 81, 100
9, 77948, Note_off_c, 4, 81, 0
9, 77952, Note_on_c, 4, 83, 100
9, 78044, Note_off_c, 4, 83, 0
9, 78048, Note_on_c, 4, 77, 100
9, 78140, Note_off_c, 4, 77, 0
9, 78144, Note_on_c, 4, 76, 100
9, 78236, Note_off_c, 4, 76, 0
9, 78240, Note_on_c, 4, 74, 100
9, 78332, Note_off_c, 4, 74, 0
9, 78336, Note_on_c, 4, 72, 100
9, 78428, Note_off_c, 4, 72, 0
9, 78432, Note_on_c, 4, 76, 100
9, 78524, Note_off_c, 4, 76, 0
9, 78528, Note_on_c, 4, 81, 100
9, 78620, Note_off_c, 4, 81, 0
9, 78624, Note_on_c, 4, 80, 100
9, 78716, Note_off_c, 4, 80, 0
9, 78720, Note_on_c, 4, 81, 100
9, 78812, Note_off_c, 4, 81, 0
9, 78816, Note_on_c, 4, 74, 100
9, 78908, Note_off_c, 4, 74, 0
9, 78912, Note_on_c, 4, 72, 100
9, 79004, Note_off_c, 4, 72, 0
9, 79008, Note_on_c, 4, 71, 100
9, 79100, Note_off_c, 4, 71, 0
9, 79104, Note_on_c, 4, 69, 100
9, 79196, Note_off_c, 4, 69, 0
9, 79200, Note_on_c, 4, 72, 100
9, 79292, Note_off_c, 4, 72, 0
9, 79296, Note_on_c, 4, 81, 100
9, 79388, Note_off_c, 4, 81, 0
9, 79392, Note_on_c, 4, 80, 100
9, 79484, Note_off_c, 4, 80, 0
9, 79488, Note_on_c, 4, 81, 100
9, 79580, Note_off_c, 4, 81, 0
9, 79584, Note_on_c, 4, 70, 100
9, 79676, Note_off_c, 4, 70, 0
9, 79680, Note_on_c, 4, 69, 100
9, 79772, Note_off_c, 4, 69, 0
9, 79776, Note_on_c, 4, 67, 100
9, 79868, Note_off_c, 4, 67, 0
9, 79968, Note_on_c, 4, 72, 100
9, 80060, Note_off_c, 4, 72, 0
9, 80064, Note_on_c, 4, 81, 100
9, 80156, Note_off_c, 4, 81, 0
9, 80160, Note_on_c, 4, 80, 100
9, 80252, Note_off_c, 4, 80, 0
9, 80256, Note_on_c, 4, 81, 100
9, 80348, Note_off_c, 4, 81, 0
9, 80352, Note_on_c, 4, 65, 100
9, 80444, Note_off_c, 4, 65, 0
9, 80448, Note_on_c, 4, 64, 100
9, 80540, Note_off_c, 4, 64, 0
9, 80544, Note_on_c, 4, 62, 100
9, 80636, Note_off_c, 4, 62, 0
9, 80736, Note_on_c, 4, 76, 100
9, 80828, Note_off_c, 4, 76, 0
9, 80832, Note_on_c, 4, 81, 100
9, 80924, Note_off_c, 4, 81, 0
9, 80928, Note_on_c, 4, 80, 100
9, 81020, Note_off_c, 4, 80, 0
9, 81024, Note_on_c, 4, 81, 100
9, 81116, Note_off_c, 4, 81, 0
9, 81120, Note_on_c, 4, 76, 100
9, 81212, Note_off_c, 4, 76, 0
9, 81216, Note_on_c, 4, 74, 100
9, 81308, Note_off_c, 4, 74, 0
9, 81312, Note_on_c, 4, 72, 100
9, 81404, Note_off_c, 4, 72, 0
9, 81408, Note_on_c, 4, 77, 100
9, 81500, Note_off_c, 4, 77, 0
9, 81504, Note_on_c, 4, 74, 100
9, 81596, Note_off_c, 4, 74, 0
9, 81600, Note_on_c, 4, 72, 100
9, 81692, Note_off_c, 4, 72, 0
9, 81696, Note_on_c, 4, 71, 100
9, 81788, Note_off_c, 4, 71, 0
9, 81792, Note_on_c, 4, 74, 100
9, 81884, Note_off_c, 4, 74, 0
9, 81888, Note_on_c, 4, 71, 100
9, 81980, Note_off_c, 4, 71, 0
9, 81984, Note_on_c, 4, 69, 100
9, 82076, Note_off_c, 4, 69, 0
9, 82080, Note_on_c, 4, 68, 100
9, 82172, Note_off_c, 4, 68, 0
9, 82176, Note_on_c, 4, 71, 100
9, 82268, Note_off_c, 4, 71, 0
9, 82272, Note_on_c, 4, 68, 100
9, 82364, Note_off_c, 4, 68, 0
9, 82368, Note_on_c, 4, 66, 100
9, 82460, Note_off_c, 4, 66, 0
9, 82464, Note_on_c, 4, 64, 100
9, 82556, Note_off_c, 4, 64, 0
9, 82560, Note_on_c, 4, 65, 100
9, 82652, Note_off_c, 4, 65, 0
9, 82656, Note_on_c, 4, 62, 100
9, 82748, Note_off_c, 4, 62, 0
9, 82752, Note_on_c, 4, 60, 100
9, 82844, Note_off_c, 4, 60, 0
9, 82848, Note_on_c, 4, 59, 100
9, 82940, Note_off_c, 4, 59, 0
9, 82944, Note_on_c, 4, 60, 100
9, 83036, Note_off_c, 4, 60, 0
9, 83040, Note_on_c, 4, 64, 100
9, 83132, Note_off_c, 4, 64, 0
9, 83136, Note_on_c, 4, 69, 100
9, 83228, Note_off_c, 4, 69, 0
9, 83232, Note_on_c, 4, 68, 100
9, 83324, Note_off_c, 4, 68, 0
9, 83328, Note_on_c, 4, 69, 100
9, 83420, Note_off_c, 4, 69, 0
9, 83424, Note_on_c, 4, 64, 100
9, 83516, Note_off_c, 4, 64, 0
9, 83520, Note_on_c, 4, 72, 100
9, 83612, Note_off_c, 4, 72, 0
9, 83616, Note_on_c, 4, 69, 100
9, 83708, Note_off_c, 4, 69, 0
9, 83712, Note_on_c, 4, 76, 100
9, 83900, Note_off_c, 4, 76, 0
9, 83904, Note_on_c, 4, 69, 100
9, 84092, Note_off_c, 4, 69, 0
9, 84096, Note_on_c, 4, 64, 100
9, 84284, Note_off_c, 4, 64, 0
9, 84288, Note_on_c, 4, 68, 100
9, 84476, Note_off_c, 4, 68, 0
9, 84480, Note_on_c, 4, 69, 100
9, 84572, Note_off_c, 4, 69, 0
9, 84576, Note_on_c, 4, 71, 100
9, 84668, Note_off_c, 4, 71, 0
9, 84672, Note_on_c, 4, 72, 100
9, 84860, Note_off_c, 4, 72, 0
9, 84864, Note_on_c, 4, 71, 100
9, 85052, Note_off_c, 4, 71, 0
9, 85056, Note_on_c, 4, 69, 100
9, 85244, Note_off_c, 4, 69, 0
9, 85248, Note_on_c, 4, 76, 100
9, 85436, Note_off_c, 4, 76, 0
9, 85440, Note_on_c, 4, 81, 100
9, 85820, Note_off_c, 4, 81, 0
9, 85824, Note_on_c, 4, 76, 100
9, 86012, Note_off_c, 4, 76, 0
9, 86016, Note_on_c, 4, 77, 100
9, 86204, Note_off_c, 4, 77, 0
9, 86208, Note_on_c, 4, 74, 100
9, 86300, Note_off_c, 4, 74, 0
9, 86304, Note_on_c, 4, 71, 100
9, 86396, Note_off_c, 4, 71, 0
9, 86400, Note_on_c, 4, 76, 100
9, 86588, Note_off_c, 4, 76, 0
9, 86592, Note_on_c, 4, 72, 100
9, 86684, Note_off_c, 4, 72, 0
9, 86688, Note_on_c, 4, 69, 100
9, 86780, Note_off_c, 4, 69, 0
9, 86784, Note_on_c, 4, 74, 100
9, 86972, Note_off_c, 4, 74, 0
9, 86976, Note_on_c, 4, 71, 100
9, 87068, Note_off_c, 4, 71, 0
9, 87072, Note_on_c, 4, 68, 100
9, 87164, Note_off_c, 4, 68, 0
9, 87168, Note_on_c, 4, 64, 100
9, 87356, Note_off_c, 4, 64, 0
9, 87360, Note_on_c, 4, 77, 100
9, 87740, Note_off_c, 4, 77, 0
9, 87744, Note_on_c, 4, 74, 100
9, 87836, Note_off_c, 4, 74, 0
9, 87840, Note_on_c, 4, 71, 100
9, 87932, Note_off_c, 4, 71, 0
9, 87936, Note_on_c, 4, 64, 100
9, 88124, Note_off_c, 4, 64, 0
9, 88128, Note_on_c, 4, 80, 100
9, 88508, Note_off_c, 4, 80, 0
9, 88512, Note_on_c, 4, 77, 100
9, 88604, Note_off_c, 4, 77, 0
9, 88608, Note_on_c, 4, 74, 100
9, 88700, Note_off_c, 4, 74, 0
9, 88704, Note_on_c, 4, 64, 100
9, 88892, Note_off_c, 4, 64, 0
9, 88896, Note_on_c, 4, 83, 100
9, 89276, Note_off_c, 4, 83, 0
9, 89280, Note_on_c, 4, 80, 100
9, 89372, Note_off_c, 4, 80, 0
9, 89376, Note_on_c, 4, 76, 100
9, 89468, Note_off_c, 4, 76, 0
9, 89472, Note_on_c, 4, 77, 100
9, 89564, Note_off_c, 4, 77, 0
9, 89568, Note_on_c, 4, 74, 100
9, 89660, Note_off_c, 4, 74, 0
9, 89664, Note_on_c, 4, 76, 100
9, 89756, Note_off_c, 4, 76, 0
9, 89760, Note_on_c, 4, 72, 100
9, 89852, Note_off_c, 4, 72, 0
9, 89856, Note_on_c, 4, 74, 100
9, 89948, Note_off_c, 4, 74, 0
9, 89952, Note_on_c, 4, 71, 100
9, 90044, Note_off_c, 4, 71, 0
9, 90048, Note_on_c, 4, 72, 100
9, 90140, Note_off_c, 4, 72, 0
9, 90144, Note_on_c, 4, 69, 100
9, 90236, Note_off_c, 4, 69, 0
9, 90240, Note_on_c, 4, 71, 100
9, 90332, Note_off_c, 4, 71, 0
9, 90336, Note_on_c, 4, 68, 100
9, 90428, Note_off_c, 4, 68, 0
9, 90432, Note_on_c, 4, 69, 100
9, 90524, Note_off_c, 4, 69, 0
9, 90528, Note_on_c, 4, 66, 100
9, 90620, Note_off_c, 4, 66, 0
9, 90624, Note_on_c, 4, 68, 100
9, 90716, Note_off_c, 4, 68, 0
9, 90720, Note_on_c, 4, 64, 100
9, 90812, Note_off_c, 4, 64, 0
9, 90816, Note_on_c, 4, 66, 100
9, 90908, Note_off_c, 4, 66, 0
9, 90912, Note_on_c, 4, 68, 100
9, 91004, Note_off_c, 4, 68, 0
9, 91008, Note_on_c, 4, 69, 100
9, 91100, Note_off_c, 4, 69, 0
9, 91104, Note_on_c, 4, 71, 100
9, 91196, Note_off_c, 4, 71, 0
9, 91200, Note_on_c, 4, 72, 100
9, 91292, Note_off_c, 4, 72, 0
9, 91296, Note_on_c, 4, 74, 100
9, 91388, Note_off_c, 4, 74, 0
9, 91392, Note_on_c, 4, 76, 100
9, 91484, Note_off_c, 4, 76, 0
9, 91488, Note_on_c, 4, 77, 100
9, 91580, Note_off_c, 4, 77, 0
9, 91584, Note_on_c, 4, 79, 100
9, 91712, Note_off_c, 4, 79, 0
9, 91776, Note_on_c, 4, 79, 100
9, 91868, Note_off_c, 4, 79, 0
9, 91872, Note_on_c, 4, 81, 100
9, 91964, Note_off_c, 4, 81, 0
9, 91968, Note_on_c, 4, 82, 100
9, 92096, Note_off_c, 4, 82, 0
9, 92160, Note_on_c, 4, 64, 100
9, 92160, Note_on_c, 4, 73, 100
9, 92288, Note_off_c, 4, 64, 0
9, 92288, Note_off_c, 4, 73, 0
9, 92352, Note_on_c, 4, 65, 100
9, 92352, Note_on_c, 4, 74, 100
9, 92480, Note_off_c, 4, 65, 0
9, 92480, Note_off_c, 4, 74, 0
9, 92544, Note_on_c, 4, 62, 100
9, 92544, Note_on_c, 4, 68, 100
9, 92672, Note_off_c, 4, 62, 0
9, 92672, Note_off_c, 4, 68, 0
9, 92736, Note_on_c, 4, 64, 100
9, 92736, Note_on_c, 4, 69, 100
9, 92864, Note_off_c, 4, 64, 0
9, 92864, Note_off_c, 4, 69, 0
9, 92928, Note_on_c, 4, 63, 100
9, 93116, Note_off_c, 4, 63, 0
9, 93312, Note_on_c, 4, 64, 100
9, 93500, Note_off_c, 4, 64, 0
9, 93888, Note_on_c, 4, 69, 100
9, 93980, Note_off_c, 4, 69, 0
9, 94080, Note_on_c, 4, 68, 100
9, 94172, Note_off_c, 4, 68, 0
9, 94272, Note_on_c, 4, 69, 100
9, 94364, Note_off_c, 4, 69, 0
9, 94464, Note_on_c, 4, 70, 100
9, 94556, Note_off_c, 4, 70, 0
9, 94656, Note_on_c, 4, 69, 100
9, 94748, Note_off_c, 4, 69, 0
9, 94848, Note_on_c, 4, 68, 100
9, 94940, Note_off_c, 4, 68, 0
9, 95040, Note_on_c, 4, 69, 100
9, 95132, Note_off_c, 4, 69, 0
9, 95232, Note_on_c, 4, 64, 100
9, 95324, Note_off_c, 4, 64, 0
9, 95424, Note_on_c, 4, 69, 100
9, 95516, Note_off_c, 4, 69, 0
9, 95616, Note_on_c, 4, 68, 100
9, 95708, Note_off_c, 4, 68, 0
9, 95808, Note_on_c, 4, 69, 100
9, 95900, Note_off_c, 4, 69, 0
9, 96000, Note_on_c, 4, 70, 100
9, 96092, Note_off_c, 4, 70, 0
9, 96192, Note_on_c, 4, 69, 100
9, 96284, Note_off_c, 4, 69, 0
9, 96384, Note_on_c, 4, 68, 100
9, 96476, Note_off_c, 4, 68, 0
9, 96576, Note_on_c, 4, 69, 100
9, 96668, Note_off_c, 4, 69, 0
9, 96768, Note_on_c, 4, 64, 100
9, 96860, Note_off_c, 4, 64, 0
9, 96960, Note_on_c, 4, 72, 100
9, 96960, Note_on_c, 4, 64, 100
9, 97052, Note_off_c, 4, 72, 0
9, 97052, Note_off_c, 4, 64, 0
9, 97152, Note_on_c, 4, 71, 100
9, 97152, Note_on_c, 4, 62, 100
9, 97244, Note_off_c, 4, 71, 0
9, 97244, Note_off_c, 4, 62, 0
9, 97344, Note_on_c, 4, 72, 100
9, 97344, Note_on_c, 4, 64, 100
9, 97436, Note_off_c, 4, 72, 0
9, 97436, Note_off_c, 4, 64, 0
9, 97536, Note_on_c, 4, 74, 100
9, 97536, Note_on_c, 4, 65, 100
9, 97628, Note_off_c, 4, 74, 0
9, 97628, Note_off_c, 4, 65, 0
9, 97728, Note_on_c, 4, 72, 100
9, 97728, Note_on_c, 4, 64, 100
9, 97820, Note_off_c, 4, 72, 0
9, 97820, Note_off_c, 4, 64, 0
9, 97920, Note_on_c, 4, 74, 100
9, 97920, Note_on_c, 4, 65, 100
9, 98012, Note_off_c, 4, 74, 0
9, 98012, Note_off_c, 4, 65, 0
9, 98112, Note_on_c, 4, 71, 100
9, 98112, Note_on_c, 4, 62, 100
9, 98204, Note_off_c, 4, 71, 0
9, 98204, Note_off_c, 4, 62, 0
9, 98304, Note_on_c, 4, 72, 100
9, 98304, Note_on_c, 4, 64, 100
9, 98396, Note_off_c, 4, 72, 0
9, 98396, Note_off_c, 4, 64, 0
9, 98496, Note_on_c, 4, 72, 100
9, 98496, Note_on_c, 4, 64, 100
9, 98588, Note_off_c, 4, 72, 0
9, 98588, Note_off_c, 4, 64, 0
9, 98688, Note_on_c, 4, 71, 100
9, 98688, Note_on_c, 4, 62, 100
9, 98780, Note_off_c, 4, 71, 0
9, 98780, Note_off_c, 4, 62, 0
9, 98880, Note_on_c, 4, 72, 100
9, 98880, Note_on_c, 4, 64, 100
9, 98972, Note_off_c, 4, 72, 0
9, 98972, Note_off_c, 4, 64, 0
9, 99072, Note_on_c, 4, 74, 100
9, 99072, Note_on_c, 4, 65, 100
9, 99164, Note_off_c, 4, 74, 0
9, 99164, Note_off_c, 4, 65, 0
9, 99264, Note_on_c, 4, 72, 100
9, 99264, Note_on_c, 4, 64, 100
9, 99356, Note_off_c, 4, 72, 0
9, 99356, Note_off_c, 4, 64, 0
9, 99456, Note_on_c, 4, 74, 100
9, 99456, Note_on_c, 4, 65, 100
9, 99548, Note_off_c, 4, 74, 0
9, 99548, Note_off_c, 4, 65, 0
9, 99648, Note_on_c, 4, 71, 100
9, 99648, Note_on_c, 4, 62, 100
9, 99740, Note_off_c, 4, 71, 0
9, 99740, Note_off_c, 4, 62, 0
9, 99840, Note_on_c, 4, 72, 100
9, 99840, Note_on_c, 4, 64, 100
9, 99932, Note_off_c, 4, 72, 0
9, 99932, Note_off_c, 4, 64, 0
9, 100032, Note_on_c, 4, 69, 100
9, 100032, Note_on_c, 4, 60, 100
9, 100124, Note_off_c, 4, 69, 0
9, 100124, Note_off_c, 4, 60, 0
9, 100224, Note_on_c, 4, 70, 100
9, 100224, Note_on_c, 4, 62, 100
9, 100316, Note_off_c, 4, 70, 0
9, 100316, Note_off_c, 4, 62, 0
9, 100416, Note_on_c, 4, 59, 100
9, 100416, Note_on_c, 4, 68, 100
9, 100508, Note_off_c, 4, 59, 0
9, 100508, Note_off_c, 4, 68, 0
9, 100608, Note_on_c, 4, 69, 100
9, 100608, Note_on_c, 4, 60, 100
9, 100700, Note_off_c, 4, 69, 0
9, 100700, Note_off_c, 4, 60, 0
9, 100800, Note_on_c, 4, 72, 100
9, 100800, Note_on_c, 4, 64, 100
9, 100892, Note_off_c, 4, 72, 0
9, 100892, Note_off_c, 4, 64, 0
9, 100992, Note_on_c, 4, 70, 100
9, 100992, Note_on_c, 4, 62, 100
9, 101084, Note_off_c, 4, 70, 0
9, 101084, Note_off_c, 4, 62, 0
9, 101184, Note_on_c, 4, 68, 100
9, 101184, Note_on_c, 4, 59, 100
9, 101276, Note_off_c, 4, 68, 0
9, 101276, Note_off_c, 4, 59, 0
9, 101376, Note_on_c, 4, 69, 100
9, 101376, Note_on_c, 4, 60, 100
9, 101468, Note_off_c, 4, 69, 0
9, 101468, Note_off_c, 4, 60, 0
9, 101568, Note_on_c, 4, 64, 100
9, 101568, Note_on_c, 4, 60, 100
9, 101660, Note_off_c, 4, 64, 0
9, 101660, Note_off_c, 4, 60, 0
9, 101760, Note_on_c, 4, 62, 100
9, 101760, Note_on_c, 4, 66, 100
9, 101852, Note_off_c, 4, 62, 0
9, 101852, Note_off_c, 4, 66, 0
9, 101952, Note_on_c, 4, 68, 100
9, 101952, Note_on_c, 4, 59, 100
9, 102044, Note_off_c, 4, 68, 0
9, 102044, Note_off_c, 4, 59, 0
9, 102144, Note_on_c, 4, 69, 100
9, 102144, Note_on_c, 4, 60, 100
9, 102236, Note_off_c, 4, 69, 0
9, 102236, Note_off_c, 4, 60, 0
9, 102336, Note_on_c, 4, 64, 100
9, 102336, Note_on_c, 4, 60, 100
9, 102428, Note_off_c, 4, 64, 0
9, 102428, Note_off_c, 4, 60, 0
9, 102528, Note_on_c, 4, 66, 100
9, 102528, Note_on_c, 4, 62, 100
9, 102620, Note_off_c, 4, 66, 0
9, 102620, Note_off_c, 4, 62, 0
9, 102720, Note_on_c, 4, 68, 100
9, 102720, Note_on_c, 4, 59, 100
9, 102812, Note_off_c, 4, 68, 0
9, 102812, Note_off_c, 4, 59, 0
9, 102912, Note_on_c, 4, 69, 100
9, 102912, Note_on_c, 4, 60, 100
9, 103004, Note_off_c, 4, 69, 0
9, 103004, Note_off_c, 4, 60, 0
9, 103104, Note_on_c, 4, 64, 100
9, 103104, Note_on_c, 4, 60, 100
9, 103196, Note_off_c, 4, 64, 0
9, 103196, Note_off_c, 4, 60, 0
9, 103296, Note_on_c, 4, 66, 100
9, 103296, Note_on_c, 4, 62, 100
9, 103388, Note_off_c, 4, 66, 0
9, 103388, Note_off_c, 4, 62, 0
9, 103488, Note_on_c, 4, 64, 100
9, 103488, Note_on_c, 4, 68, 100
9, 103580, Note_off_c, 4, 64, 0
9, 103580, Note_off_c, 4, 68, 0
9, 103680, Note_on_c, 4, 66, 100
9, 103680, Note_on_c, 4, 69, 100
9, 103772, Note_off_c, 4, 66, 0
9, 103772, Note_off_c, 4, 69, 0
9, 103872, Note_on_c, 4, 68, 100
9, 103872, Note_on_c, 4, 71, 100
9, 103964, Note_off_c, 4, 68, 0
9, 103964, Note_off_c, 4, 71, 0
9, 104064, Note_on_c, 4, 69, 100
9, 104064, Note_on_c, 4, 72, 100
9, 104156, Note_off_c, 4, 69, 0
9, 104156, Note_off_c, 4, 72, 0
9, 104256, Note_on_c, 4, 74, 100
9, 104256, Note_on_c, 4, 71, 100
9, 104348, Note_off_c, 4, 74, 0
9, 104348, Note_off_c, 4, 71, 0
9, 104448, Note_on_c, 4, 76, 100
9, 104540, Note_off_c, 4, 76, 0
9, 104544, Note_on_c, 4, 69, 100
9, 104636, Note_off_c, 4, 69, 0
9, 104640, Note_on_c, 4, 72, 100
9, 104732, Note_off_c, 4, 72, 0
9, 104736, Note_on_c, 4, 76, 100
9, 104828, Note_off_c, 4, 76, 0
9, 104832, Note_on_c, 4, 81, 100
9, 104924, Note_off_c, 4, 81, 0
9, 104928, Note_on_c, 4, 79, 100
9, 105020, Note_off_c, 4, 79, 0
9, 105024, Note_on_c, 4, 78, 100
9, 105116, Note_off_c, 4, 78, 0
9, 105120, Note_on_c, 4, 76, 100
9, 105212, Note_off_c, 4, 76, 0
9, 105216, Note_on_c, 4, 75, 100
9, 105308, Note_off_c, 4, 75, 0
9, 105312, Note_on_c, 4, 78, 100
9, 105404, Note_off_c, 4, 78, 0
9, 105408, Note_on_c, 4, 81, 100
9, 105500, Note_off_c, 4, 81, 0
9, 105504, Note_on_c, 4, 84, 100
9, 105596, Note_off_c, 4, 84, 0
9, 105600, Note_on_c, 4, 83, 100
9, 105692, Note_off_c, 4, 83, 0
9, 105696, Note_on_c, 4, 81, 100
9, 105788, Note_off_c, 4, 81, 0
9, 105792, Note_on_c, 4, 79, 100
9, 105884, Note_off_c, 4, 79, 0
9, 105888, Note_on_c, 4, 78, 100
9, 105980, Note_off_c, 4, 78, 0
9, 105984, Note_on_c, 4, 79, 100
9, 106172, Note_off_c, 4, 79, 0
9, 106176, Note_on_c, 4, 76, 100
9, 106268, Note_off_c, 4, 76, 0
9, 106368, Note_on_c, 4, 75, 100
9, 106460, Note_off_c, 4, 75, 0
9, 106560, Note_on_c, 4, 76, 100
9, 106652, Note_off_c, 4, 76, 0
9, 106752, Note_on_c, 4, 77, 100
9, 106844, Note_off_c, 4, 77, 0
9, 106944, Note_on_c, 4, 76, 100
9, 107036, Note_off_c, 4, 76, 0
9, 107136, Note_on_c, 4, 75, 100
9, 107228, Note_off_c, 4, 75, 0
9, 107328, Note_on_c, 4, 76, 100
9, 107420, Note_off_c, 4, 76, 0
9, 107520, Note_on_c, 4, 71, 100
9, 107612, Note_off_c, 4, 71, 0
9, 107712, Note_on_c, 4, 76, 100
9, 107804, Note_off_c, 4, 76, 0
9, 107904, Note_on_c, 4, 75, 100
9, 107996, Note_off_c, 4, 75, 0
9, 108096, Note_on_c, 4, 76, 100
9, 108188, Note_off_c, 4, 76, 0
9, 108288, Note_on_c, 4, 77, 100
9, 108380, Note_off_c, 4, 77, 0
9, 108480, Note_on_c, 4, 76, 100
9, 108572, Note_off_c, 4, 76, 0
9, 108672, Note_on_c, 4, 75, 100
9, 108764, Note_off_c, 4, 75, 0
9, 108864, Note_on_c, 4, 76, 100
9, 108956, Note_off_c, 4, 76, 0
9, 109056, Note_on_c, 4, 71, 100
9, 109148, Note_off_c, 4, 71, 0
9, 109248, Note_on_c, 4, 79, 100
9, 109248, Note_on_c, 4, 71, 100
9, 109340, Note_off_c, 4, 79, 0
9, 109340, Note_off_c, 4, 71, 0
9, 109440, Note_on_c, 4, 69, 100
9, 109440, Note_on_c, 4, 78, 100
9, 109532, Note_off_c, 4, 69, 0
9, 109532, Note_off_c, 4, 78, 0
9, 109632, Note_on_c, 4, 79, 100
9, 109632, Note_on_c, 4, 71, 100
9, 109724, Note_off_c, 4, 79, 0
9, 109724, Note_off_c, 4, 71, 0
9, 109824, Note_on_c, 4, 81, 100
9, 109824, Note_on_c, 4, 72, 100
9, 109916, Note_off_c, 4, 81, 0
9, 109916, Note_off_c, 4, 72, 0
9, 110016, Note_on_c, 4, 79, 100
9, 110016, Note_on_c, 4, 71, 100
9, 110108, Note_off_c, 4, 79, 0
9, 110108, Note_off_c, 4, 71, 0
9, 110208, Note_on_c, 4, 81, 100
9, 110208, Note_on_c, 4, 72, 100
9, 110300, Note_off_c, 4, 81, 0
9, 110300, Note_off_c, 4, 72, 0
9, 110400, Note_on_c, 4, 78, 100
9, 110400, Note_on_c, 4, 69, 100
9, 110492, Note_off_c, 4, 78, 0
9, 110492, Note_off_c, 4, 69, 0
9, 110592, Note_on_c, 4, 79, 100
9, 110592, Note_on_c, 4, 71, 100
9, 110684, Note_off_c, 4, 79, 0
9, 110684, Note_off_c, 4, 71, 0
9, 110784, Note_on_c, 4, 79, 100
9, 110784, Note_on_c, 4, 71, 100
9, 110876, Note_off_c, 4, 79, 0
9, 110876, Note_off_c, 4, 71, 0
9, 110976, Note_on_c, 4, 78, 100
9, 110976, Note_on_c, 4, 69, 100
9, 111068, Note_off_c, 4, 78, 0
9, 111068, Note_off_c, 4, 69, 0
9, 111168, Note_on_c, 4, 79, 100
9, 111168, Note_on_c, 4, 71, 100
9, 111260, Note_off_c, 4, 79, 0
9, 111260, Note_off_c, 4, 71, 0
9, 111360, Note_on_c, 4, 81, 100
9, 111360, Note_on_c, 4, 72, 100
9, 111452, Note_off_c, 4, 81, 0
9, 111452, Note_off_c, 4, 72, 0
9, 111552, Note_on_c, 4, 79, 100
9, 111552, Note_on_c, 4, 71, 100
9, 111644, Note_off_c, 4, 79, 0
9, 111644, Note_off_c, 4, 71, 0
9, 111744, Note_on_c, 4, 81, 100
9, 111744, Note_on_c, 4, 72, 100
9, 111836, Note_off_c, 4, 81, 0
9, 111836, Note_off_c, 4, 72, 0
9, 111936, Note_on_c, 4, 78, 100
9, 111936, Note_on_c, 4, 69, 100
9, 112028, Note_off_c, 4, 78, 0
9, 112028, Note_off_c, 4, 69, 0
9, 112128, Note_on_c, 4, 79, 100
9, 112128, Note_on_c, 4, 71, 100
9, 112220, Note_off_c, 4, 79, 0
9, 112220, Note_off_c, 4, 71, 0
9, 112320, Note_on_c, 4, 76, 100
9, 112320, Note_on_c, 4, 67, 100
9, 112412, Note_off_c, 4, 76, 0
9, 112412, Note_off_c, 4, 67, 0
9, 112512, Note_on_c, 4, 77, 100
9, 112512, Note_on_c, 4, 69, 100
9, 112604, Note_off_c, 4, 77, 0
9, 112604, Note_off_c, 4, 69, 0
9, 112704, Note_on_c, 4, 75, 100
9, 112704, Note_on_c, 4, 66, 100
9, 112796, Note_off_c, 4, 75, 0
9, 112796, Note_off_c, 4, 66, 0
9, 112896, Note_on_c, 4, 76, 100
9, 112896, Note_on_c, 4, 67, 100
9, 112988, Note_off_c, 4, 76, 0
9, 112988, Note_off_c, 4, 67, 0
9, 113088, Note_on_c, 4, 79, 100
9, 113088, Note_on_c, 4, 71, 100
9, 113180, Note_off_c, 4, 79, 0
9, 113180, Note_off_c, 4, 71, 0
9, 113280, Note_on_c, 4, 77, 100
9, 113280, Note_on_c, 4, 69, 100
9, 113372, Note_off_c, 4, 77, 0
9, 113372, Note_off_c, 4, 69, 0
9, 113472, Note_on_c, 4, 75, 100
9, 113472, Note_on_c, 4, 66, 100
9, 113564, Note_off_c, 4, 75, 0
9, 113564, Note_off_c, 4, 66, 0
9, 113664, Note_on_c, 4, 76, 100
9, 113664, Note_on_c, 4, 67, 100
9, 113756, Note_off_c, 4, 76, 0
9, 113756, Note_off_c, 4, 67, 0
9, 113856, Note_on_c, 4, 71, 100
9, 113856, Note_on_c, 4, 67, 100
9, 113948, Note_off_c, 4, 71, 0
9, 113948, Note_off_c, 4, 67, 0
9, 114048, Note_on_c, 4, 73, 100
9, 114048, Note_on_c, 4, 69, 100
9, 114140, Note_off_c, 4, 73, 0
9, 114140, Note_off_c, 4, 69, 0
9, 114240, Note_on_c, 4, 75, 100
9, 114240, Note_on_c, 4, 66, 100
9, 114332, Note_off_c, 4, 75, 0
9, 114332, Note_off_c, 4, 66, 0
9, 114432, Note_on_c, 4, 76, 100
9, 114432, Note_on_c, 4, 67, 100
9, 114524, Note_off_c, 4, 76, 0
9, 114524, Note_off_c, 4, 67, 0
9, 114624, Note_on_c, 4, 71, 100
9, 114624, Note_on_c, 4, 67, 100
9, 114716, Note_off_c, 4, 71, 0
9, 114716, Note_off_c, 4, 67, 0
9, 114816, Note_on_c, 4, 69, 100
9, 114816, Note_on_c, 4, 73, 100
9, 114908, Note_off_c, 4, 69, 0
9, 114908, Note_off_c, 4, 73, 0
9, 115008, Note_on_c, 4, 75, 100
9, 115008, Note_on_c, 4, 66, 100
9, 115100, Note_off_c, 4, 75, 0
9, 115100, Note_off_c, 4, 66, 0
9, 115200, Note_on_c, 4, 76, 100
9, 115200, Note_on_c, 4, 67, 100
9, 115292, Note_off_c, 4, 76, 0
9, 115292, Note_off_c, 4, 67, 0
9, 115392, Note_on_c, 4, 71, 100
9, 115392, Note_on_c, 4, 67, 100
9, 115484, Note_off_c, 4, 71, 0
9, 115484, Note_off_c, 4, 67, 0
9, 115584, Note_on_c, 4, 69, 100
9, 115584, Note_on_c, 4, 73, 100
9, 115676, Note_off_c, 4, 69, 0
9, 115676, Note_off_c, 4, 73, 0
9, 115776, Note_on_c, 4, 71, 100
9, 115776, Note_on_c, 4, 75, 100
9, 115868, Note_off_c, 4, 71, 0
9, 115868, Note_off_c, 4, 75, 0
9, 115968, Note_on_c, 4, 73, 100
9, 115968, Note_on_c, 4, 76, 100
9, 116060, Note_off_c, 4, 73, 0
9, 116060, Note_off_c, 4, 76, 0
9, 116160, Note_on_c, 4, 75, 100
9, 116160, Note_on_c, 4, 78, 100
9, 116252, Note_off_c, 4, 75, 0
9, 116252, Note_off_c, 4, 78, 0
9, 116352, Note_on_c, 4, 76, 100
9, 116352, Note_on_c, 4, 79, 100
9, 116444, Note_off_c, 4, 76, 0
9, 116444, Note_off_c, 4, 79, 0
9, 116544, Note_on_c, 4, 78, 100
9, 116544, Note_on_c, 4, 81, 100
9, 116636, Note_off_c, 4, 78, 0
9, 116636, Note_off_c, 4, 81, 0
9, 116736, Note_on_c, 4, 79, 100
9, 116736, Note_on_c, 4, 83, 100
9, 116828, Note_off_c, 4, 79, 0
9, 116828, Note_off_c, 4, 83, 0
9, 116928, Note_on_c, 4, 79, 100
9, 116928, Note_on_c, 4, 83, 100
9, 117020, Note_off_c, 4, 79, 0
9, 117020, Note_off_c, 4, 83, 0
9, 117120, Note_on_c, 4, 81, 100
9, 117120, Note_on_c, 4, 84, 100
9, 117212, Note_off_c, 4, 81, 0
9, 117212, Note_off_c, 4, 84, 0
9, 117312, Note_on_c, 4, 83, 100
9, 117312, Note_on_c, 4, 79, 100
9, 117404, Note_off_c, 4, 83, 0
9, 117404, Note_off_c, 4, 79, 0
9, 117504, Note_on_c, 4, 81, 100
9, 117504, Note_on_c, 4, 84, 100
9, 117596, Note_off_c, 4, 81, 0
9, 117596, Note_off_c, 4, 84, 0
9, 117696, Note_on_c, 4, 78, 100
9, 117696, Note_on_c, 4, 81, 100
9, 117788, Note_off_c, 4, 78, 0
9, 117788, Note_off_c, 4, 81, 0
9, 117888, Note_on_c, 4, 83, 100
9, 117888, Note_on_c, 4, 79, 100
9, 117980, Note_off_c, 4, 83, 0
9, 117980, Note_off_c, 4, 79, 0
9, 118080, Note_on_c, 4, 78, 100
9, 118080, Note_on_c, 4, 81, 100
9, 118172, Note_off_c, 4, 78, 0
9, 118172, Note_off_c, 4, 81, 0
9, 118272, Note_on_c, 4, 83, 100
9, 118272, Note_on_c, 4, 79, 100
9, 118364, Note_off_c, 4, 83, 0
9, 118364, Note_off_c, 4, 79, 0
9, 118464, Note_on_c, 4, 76, 100
9, 118464, Note_on_c, 4, 79, 100
9, 118556, Note_off_c, 4, 76, 0
9, 118556, Note_off_c, 4, 79, 0
9, 118656, Note_on_c, 4, 81, 100
9, 118656, Note_on_c, 4, 78, 100
9, 118748, Note_off_c, 4, 81, 0
9, 118748, Note_off_c, 4, 78, 0
9, 118848, Note_on_c, 4, 76, 100
9, 118848, Note_on_c, 4, 79, 100
9, 118940, Note_off_c, 4, 76, 0
9, 118940, Note_off_c, 4, 79, 0
9, 119040, Note_on_c, 4, 78, 100
9, 119040, Note_on_c, 4, 81, 100
9, 119132, Note_off_c, 4, 78, 0
9, 119132, Note_off_c, 4, 81, 0
9, 119232, Note_on_c, 4, 75, 100
9, 119232, Note_on_c, 4, 78, 100
9, 119324, Note_off_c, 4, 75, 0
9, 119324, Note_off_c, 4, 78, 0
9, 119424, Note_on_c, 4, 76, 100
9, 119424, Note_on_c, 4, 79, 100
9, 119516, Note_off_c, 4, 76, 0
9, 119516, Note_off_c, 4, 79, 0
9, 119616, Note_on_c, 4, 75, 100
9, 119616, Note_on_c, 4, 78, 100
9, 119708, Note_off_c, 4, 75, 0
9, 119708, Note_off_c, 4, 78, 0
9, 119808, Note_on_c, 4, 76, 100
9, 119808, Note_on_c, 4, 79, 100
9, 119900, Note_off_c, 4, 76, 0
9, 119900, Note_off_c, 4, 79, 0
9, 120000, Note_on_c, 4, 80, 100
9, 120000, Note_on_c, 4, 74, 100
9, 120092, Note_off_c, 4, 80, 0
9, 120092, Note_off_c, 4, 74, 0
9, 120192, Note_on_c, 4, 81, 100
9, 120192, Note_on_c, 4, 72, 100
9, 120284, Note_off_c, 4, 81, 0
9, 120284, Note_off_c, 4, 72, 0
9, 120384, Note_on_c, 4, 79, 100
9, 120384, Note_on_c, 4, 71, 100
9, 120476, Note_off_c, 4, 79, 0
9, 120476, Note_off_c, 4, 71, 0
9, 120576, Note_on_c, 4, 78, 100
9, 120576, Note_on_c, 4, 69, 100
9, 120668, Note_off_c, 4, 78, 0
9, 120668, Note_off_c, 4, 69, 0
9, 120768, Note_on_c, 4, 76, 100
9, 120768, Note_on_c, 4, 67, 100
9, 120860, Note_off_c, 4, 76, 0
9, 120860, Note_off_c, 4, 67, 0
9, 120960, Note_on_c, 4, 76, 100
9, 120960, Note_on_c, 4, 66, 100
9, 121052, Note_off_c, 4, 76, 0
9, 121052, Note_off_c, 4, 66, 0
9, 121152, Note_on_c, 4, 74, 100
9, 121152, Note_on_c, 4, 66, 100
9, 121244, Note_off_c, 4, 74, 0
9, 121244, Note_off_c, 4, 66, 0
9, 121344, Note_on_c, 4, 74, 100
9, 121344, Note_on_c, 4, 68, 100
9, 121436, Note_off_c, 4, 74, 0
9, 121436, Note_off_c, 4, 68, 0
9, 121536, Note_on_c, 4, 69, 100
9, 121536, Note_on_c, 4, 72, 100
9, 121628, Note_off_c, 4, 69, 0
9, 121628, Note_off_c, 4, 72, 0
9, 121728, Note_on_c, 4, 69, 100
9, 121728, Note_on_c, 4, 71, 100
9, 121820, Note_off_c, 4, 69, 0
9, 121820, Note_off_c, 4, 71, 0
9, 121920, Note_on_c, 4, 76, 100
9, 121920, Note_on_c, 4, 67, 100
9, 122012, Note_off_c, 4, 76, 0
9, 122012, Note_off_c, 4, 67, 0
9, 122112, Note_on_c, 4, 76, 100
9, 122112, Note_on_c, 4, 65, 100
9, 122204, Note_off_c, 4, 76, 0
9, 122204, Note_off_c, 4, 65, 0
9, 122304, Note_on_c, 4, 74, 100
9, 122304, Note_on_c, 4, 65, 100
9, 122396, Note_off_c, 4, 74, 0
9, 122396, Note_off_c, 4, 65, 0
9, 122496, Note_on_c, 4, 74, 100
9, 122496, Note_on_c, 4, 64, 100
9, 122588, Note_off_c, 4, 74, 0
9, 122588, Note_off_c, 4, 64, 0
9, 122688, Note_on_c, 4, 72, 100
9, 122688, Note_on_c, 4, 64, 100
9, 122780, Note_off_c, 4, 72, 0
9, 122780, Note_off_c, 4, 64, 0
9, 122880, Note_on_c, 4, 72, 100
9, 122880, Note_on_c, 4, 62, 100
9, 122972, Note_off_c, 4, 72, 0
9, 122972, Note_off_c, 4, 62, 0
9, 123072, Note_on_c, 4, 69, 100
9, 123072, Note_on_c, 4, 62, 100
9, 123164, Note_off_c, 4, 69, 0
9, 123164, Note_off_c, 4, 62, 0
9, 123264, Note_on_c, 4, 71, 100
9, 123264, Note_on_c, 4, 62, 100
9, 123356, Note_off_c, 4, 71, 0
9, 123356, Note_off_c, 4, 62, 0
9, 123456, Note_on_c, 4, 67, 100
9, 123456, Note_on_c, 4, 71, 100
9, 123548, Note_off_c, 4, 67, 0
9, 123548, Note_off_c, 4, 71, 0
9, 123648, Note_on_c, 4, 67, 100
9, 123648, Note_on_c, 4, 72, 100
9, 123740, Note_off_c, 4, 67, 0
9, 123740, Note_off_c, 4, 72, 0
9, 123840, Note_on_c, 4, 72, 100
9, 123840, Note_on_c, 4, 70, 100
9, 123932, Note_off_c, 4, 72, 0
9, 123932, Note_off_c, 4, 70, 0
9, 124032, Note_on_c, 4, 72, 100
9, 124032, Note_on_c, 4, 69, 100
9, 124124, Note_off_c, 4, 72, 0
9, 124124, Note_off_c, 4, 69, 0
9, 124224, Note_on_c, 4, 70, 100
9, 124224, Note_on_c, 4, 67, 100
9, 124316, Note_off_c, 4, 70, 0
9, 124316, Note_off_c, 4, 67, 0
9, 124416, Note_on_c, 4, 69, 100
9, 124508, Note_off_c, 4, 69, 0
9, 124512, Note_on_c, 4, 71, 100
9, 124604, Note_off_c, 4, 71, 0
9, 124608, Note_on_c, 4, 72, 100
9, 124700, Note_off_c, 4, 72, 0
9, 124704, Note_on_c, 4, 76, 100
9, 124796, Note_off_c, 4, 76, 0
9, 124800, Note_on_c, 4, 81, 100
9, 124892, Note_off_c, 4, 81, 0
9, 124896, Note_on_c, 4, 76, 100
9, 124988, Note_off_c, 4, 76, 0
9, 124992, Note_on_c, 4, 77, 100
9, 125084, Note_off_c, 4, 77, 0
9, 125088, Note_on_c, 4, 74, 100
9, 125180, Note_off_c, 4, 74, 0
9, 125184, Note_on_c, 4, 69, 100
9, 125276, Note_off_c, 4, 69, 0
9, 125280, Note_on_c, 4, 71, 100
9, 125372, Note_off_c, 4, 71, 0
9, 125376, Note_on_c, 4, 72, 100
9, 125468, Note_off_c, 4, 72, 0
9, 125472, Note_on_c, 4, 76, 100
9, 125564, Note_off_c, 4, 76, 0
9, 125568, Note_on_c, 4, 81, 100
9, 125660, Note_off_c, 4, 81, 0
9, 125664, Note_on_c, 4, 76, 100
9, 125756, Note_off_c, 4, 76, 0
9, 125760, Note_on_c, 4, 77, 100
9, 125852, Note_off_c, 4, 77, 0
9, 125856, Note_on_c, 4, 74, 100
9, 125948, Note_off_c, 4, 74, 0
9, 125952, Note_on_c, 4, 71, 100
9, 126044, Note_off_c, 4, 71, 0
9, 126048, Note_on_c, 4, 72, 100
9, 126140, Note_off_c, 4, 72, 0
9, 126144, Note_on_c, 4, 74, 100
9, 126236, Note_off_c, 4, 74, 0
9, 126240, Note_on_c, 4, 77, 100
9, 126332, Note_off_c, 4, 77, 0
9, 126336, Note_on_c, 4, 79, 100
9, 126428, Note_off_c, 4, 79, 0
9, 126432, Note_on_c, 4, 74, 100
9, 126524, Note_off_c, 4, 74, 0
9, 126528, Note_on_c, 4, 76, 100
9, 126620, Note_off_c, 4, 76, 0
9, 126624, Note_on_c, 4, 72, 100
9, 126716, Note_off_c, 4, 72, 0
9, 126720, Note_on_c, 4, 71, 100
9, 126812, Note_off_c, 4, 71, 0
9, 126816, Note_on_c, 4, 72, 100
9, 126908, Note_off_c, 4, 72, 0
9, 126912, Note_on_c, 4, 74, 100
9, 127004, Note_off_c, 4, 74, 0
9, 127008, Note_on_c, 4, 77, 100
9, 127100, Note_off_c, 4, 77, 0
9, 127104, Note_on_c, 4, 79, 100
9, 127196, Note_off_c, 4, 79, 0
9, 127200, Note_on_c, 4, 74, 100
9, 127292, Note_off_c, 4, 74, 0
9, 127296, Note_on_c, 4, 76, 100
9, 127388, Note_off_c, 4, 76, 0
9, 127392, Note_on_c, 4, 71, 100
9, 127484, Note_off_c, 4, 71, 0
9, 127488, Note_on_c, 4, 69, 100
9, 127580, Note_off_c, 4, 69, 0
9, 127584, Note_on_c, 4, 71, 100
9, 127676, Note_off_c, 4, 71, 0
9, 127680, Note_on_c, 4, 72, 100
9, 127772, Note_off_c, 4, 72, 0
9, 127776, Note_on_c, 4, 75, 100
9, 127868, Note_off_c, 4, 75, 0
9, 127872, Note_on_c, 4, 81, 100
9, 127964, Note_off_c, 4, 81, 0
9, 127968, Note_on_c, 4, 72, 100
9, 128060, Note_off_c, 4, 72, 0
9, 128064, Note_on_c, 4, 81, 100
9, 128156, Note_off_c, 4, 81, 0
9, 128160, Note_on_c, 4, 72, 100
9, 128252, Note_off_c, 4, 72, 0
9, 128256, Note_on_c, 4, 69, 100
9, 128348, Note_off_c, 4, 69, 0
9, 128352, Note_on_c, 4, 71, 100
9, 128444, Note_off_c, 4, 71, 0
9, 128448, Note_on_c, 4, 72, 100
9, 128540, Note_off_c, 4, 72, 0
9, 128544, Note_on_c, 4, 75, 100
9, 128636, Note_off_c, 4, 75, 0
9, 128640, Note_on_c, 4, 81, 100
9, 128732, Note_off_c, 4, 81, 0
9, 128736, Note_on_c, 4, 72, 100
9, 128828, Note_off_c, 4, 72, 0
9, 128832, Note_on_c, 4, 81, 100
9, 128924, Note_off_c, 4, 81, 0
9, 128928, Note_on_c, 4, 72, 100
9, 129020, Note_off_c, 4, 72, 0
9, 129024, Note_on_c, 4, 71, 100
9, 129116, Note_off_c, 4, 71, 0
9, 129120, Note_on_c, 4, 72, 100
9, 129212, Note_off_c, 4, 72, 0
9, 129216, Note_on_c, 4, 74, 100
9, 129308, Note_off_c, 4, 74, 0
9, 129312, Note_on_c, 4, 77, 100
9, 129404, Note_off_c, 4, 77, 0
9, 129408, Note_on_c, 4, 80, 100
9, 129500, Note_off_c, 4, 80, 0
9, 129504, Note_on_c, 4, 71, 100
9, 129596, Note_off_c, 4, 71, 0
9, 129600, Note_on_c, 4, 80, 100
9, 129692, Note_off_c, 4, 80, 0
9, 129696, Note_on_c, 4, 71, 100
9, 129788, Note_off_c, 4, 71, 0
9, 129792, Note_on_c, 4, 71, 100
9, 129884, Note_off_c, 4, 71, 0
9, 129888, Note_on_c, 4, 72, 100
9, 129980, Note_off_c, 4, 72, 0
9, 129984, Note_on_c, 4, 74, 100
9, 130076, Note_off_c, 4, 74, 0
9, 130080, Note_on_c, 4, 77, 100
9, 130172, Note_off_c, 4, 77, 0
9, 130176, Note_on_c, 4, 80, 100
9, 130268, Note_off_c, 4, 80, 0
9, 130272, Note_on_c, 4, 71, 100
9, 130364, Note_off_c, 4, 71, 0
9, 130368, Note_on_c, 4, 80, 100
9, 130460, Note_off_c, 4, 80, 0
9, 130464, Note_on_c, 4, 71, 100
9, 130556, Note_off_c, 4, 71, 0
9, 130560, Note_on_c, 4, 66, 100
9, 130652, Note_off_c, 4, 66, 0
9, 130656, Note_on_c, 4, 67, 100
9, 130748, Note_off_c, 4, 67, 0
9, 130752, Note_on_c, 4, 69, 100
9, 130844, Note_off_c, 4, 69, 0
9, 130848, Note_on_c, 4, 72, 100
9, 130940, Note_off_c, 4, 72, 0
9, 130944, Note_on_c, 4, 75, 100
9, 131036, Note_off_c, 4, 75, 0
9, 131040, Note_on_c, 4, 66, 100
9, 131132, Note_off_c, 4, 66, 0
9, 131136, Note_on_c, 4, 75, 100
9, 131228, Note_off_c, 4, 75, 0
9, 131232, Note_on_c, 4, 66, 100
9, 131324, Note_off_c, 4, 66, 0
9, 131328, Note_on_c, 4, 66, 100
9, 131420, Note_off_c, 4, 66, 0
9, 131424, Note_on_c, 4, 67, 100
9, 131516, Note_off_c, 4, 67, 0
9, 131520, Note_on_c, 4, 69, 100
9, 131612, Note_off_c, 4, 69, 0
9, 131616, Note_on_c, 4, 72, 100
9, 131708, Note_off_c, 4, 72, 0
9, 131712, Note_on_c, 4, 75, 100
9, 131804, Note_off_c, 4, 75, 0
9, 131808, Note_on_c, 4, 66, 100
9, 131900, Note_off_c, 4, 66, 0
9, 131904, Note_on_c, 4, 75, 100
9, 131996, Note_off_c, 4, 75, 0
9, 132000, Note_on_c, 4, 66, 100
9, 132092, Note_off_c, 4, 66, 0
9, 132096, Note_on_c, 4, 65, 100
9, 132188, Note_off_c, 4, 65, 0
9, 132192, Note_on_c, 4, 67, 100
9, 132284, Note_off_c, 4, 67, 0
9, 132288, Note_on_c, 4, 68, 100
9, 132380, Note_off_c, 4, 68, 0
9, 132384, Note_on_c, 4, 71, 100
9, 132476, Note_off_c, 4, 71, 0
9, 132480, Note_on_c, 4, 74, 100
9, 132572, Note_off_c, 4, 74, 0
9, 132576, Note_on_c, 4, 65, 100
9, 132668, Note_off_c, 4, 65, 0
9, 132672, Note_on_c, 4, 74, 100
9, 132764, Note_off_c, 4, 74, 0
9, 132768, Note_on_c, 4, 65, 100
9, 132860, Note_off_c, 4, 65, 0
9, 132864, Note_on_c, 4, 65, 100
9, 132956, Note_off_c, 4, 65, 0
9, 132960, Note_on_c, 4, 67, 100
9, 133052, Note_off_c, 4, 67, 0
9, 133056, Note_on_c, 4, 68, 100
9, 133148, Note_off_c, 4, 68, 0
9, 133152, Note_on_c, 4, 71, 100
9, 133244, Note_off_c, 4, 71, 0
9, 133248, Note_on_c, 4, 74, 100
9, 133340, Note_off_c, 4, 74, 0
9, 133344, Note_on_c, 4, 65, 100
9, 133436, Note_off_c, 4, 65, 0
9, 133440, Note_on_c, 4, 74, 100
9, 133532, Note_off_c, 4, 74, 0
9, 133536, Note_on_c, 4, 65, 100
9, 133628, Note_off_c, 4, 65, 0
9, 133632, Note_on_c, 4, 63, 100
9, 133724, Note_off_c, 4, 63, 0
9, 133728, Note_on_c, 4, 65, 100
9, 133820, Note_off_c, 4, 65, 0
9, 133824, Note_on_c, 4, 67, 100
9, 133916, Note_off_c, 4, 67, 0
9, 133920, Note_on_c, 4, 71, 100
9, 134012, Note_off_c, 4, 71, 0
9, 134016, Note_on_c, 4, 72, 100
9, 134108, Note_off_c, 4, 72, 0
9, 134112, Note_on_c, 4, 63, 100
9, 134204, Note_off_c, 4, 63, 0
9, 134208, Note_on_c, 4, 72, 100
9, 134300, Note_off_c, 4, 72, 0
9, 134304, Note_on_c, 4, 63, 100
9, 134396, Note_off_c, 4, 63, 0
9, 134400, Note_on_c, 4, 63, 100
9, 134492, Note_off_c, 4, 63, 0
9, 134496, Note_on_c, 4, 65, 100
9, 134588, Note_off_c, 4, 65, 0
9, 134592, Note_on_c, 4, 67, 100
9, 134684, Note_off_c, 4, 67, 0
9, 134688, Note_on_c, 4, 71, 100
9, 134780, Note_off_c, 4, 71, 0
9, 134784, Note_on_c, 4, 72, 100
9, 134876, Note_off_c, 4, 72, 0
9, 134880, Note_on_c, 4, 63, 100
9, 134972, Note_off_c, 4, 63, 0
9, 134976, Note_on_c, 4, 72, 100
9, 135068, Note_off_c, 4, 72, 0
9, 135072, Note_on_c, 4, 63, 100
9, 135164, Note_off_c, 4, 63, 0
9, 135168, Note_on_c, 4, 62, 100
9, 135260, Note_off_c, 4, 62, 0
9, 135264, Note_on_c, 4, 63, 100
9, 135356, Note_off_c, 4, 63, 0
9, 135360, Note_on_c, 4, 65, 100
9, 135452, Note_off_c, 4, 65, 0
9, 135456, Note_on_c, 4, 71, 100
9, 135548, Note_off_c, 4, 71, 0
9, 135552, Note_on_c, 4, 72, 100
9, 135644, Note_off_c, 4, 72, 0
9, 135648, Note_on_c, 4, 62, 100
9, 135740, Note_off_c, 4, 62, 0
9, 135744, Note_on_c, 4, 72, 100
9, 135836, Note_off_c, 4, 72, 0
9, 135840, Note_on_c, 4, 62, 100
9, 135932, Note_off_c, 4, 62, 0
9, 135936, Note_on_c, 4, 62, 100
9, 136028, Note_off_c, 4, 62, 0
9, 136032, Note_on_c, 4, 63, 100
9, 136124, Note_off_c, 4, 63, 0
9, 136128, Note_on_c, 4, 65, 100
9, 136220, Note_off_c, 4, 65, 0
9, 136224, Note_on_c, 4, 71, 100
9, 136316, Note_off_c, 4, 71, 0
9, 136320, Note_on_c, 4, 72, 100
9, 136412, Note_off_c, 4, 72, 0
9, 136416, Note_on_c, 4, 62, 100
9, 136508, Note_off_c, 4, 62, 0
9, 136512, Note_on_c, 4, 72, 100
9, 136604, Note_off_c, 4, 72, 0
9, 136608, Note_on_c, 4, 62, 100
9, 136700, Note_off_c, 4, 62, 0
9, 136704, Note_on_c, 4, 62, 100
9, 136796, Note_off_c, 4, 62, 0
9, 136800, Note_on_c, 4, 63, 100
9, 136892, Note_off_c, 4, 63, 0
9, 136896, Note_on_c, 4, 65, 100
9, 136988, Note_off_c, 4, 65, 0
9, 136992, Note_on_c, 4, 68, 100
9, 137084, Note_off_c, 4, 68, 0
9, 137088, Note_on_c, 4, 71, 100
9, 137180, Note_off_c, 4, 71, 0
9, 137184, Note_on_c, 4, 62, 100
9, 137276, Note_off_c, 4, 62, 0
9, 137280, Note_on_c, 4, 71, 100
9, 137372, Note_off_c, 4, 71, 0
9, 137376, Note_on_c, 4, 62, 100
9, 137468, Note_off_c, 4, 62, 0
9, 137472, Note_on_c, 4, 62, 100
9, 137564, Note_off_c, 4, 62, 0
9, 137568, Note_on_c, 4, 63, 100
9, 137660, Note_off_c, 4, 63, 0
9, 137664, Note_on_c, 4, 65, 100
9, 137756, Note_off_c, 4, 65, 0
9, 137760, Note_on_c, 4, 68, 100
9, 137852, Note_off_c, 4, 68, 0
9, 137856, Note_on_c, 4, 71, 100
9, 137948, Note_off_c, 4, 71, 0
9, 137952, Note_on_c, 4, 62, 100
9, 138044, Note_off_c, 4, 62, 0
9, 138048, Note_on_c, 4, 71, 100
9, 138140, Note_off_c, 4, 71, 0
9, 138144, Note_on_c, 4, 62, 100
9, 138236, Note_off_c, 4, 62, 0
9, 138240, Note_on_c, 4, 60, 100
9, 138332, Note_off_c, 4, 60, 0
9, 138336, Note_on_c, 4, 62, 100
9, 138428, Note_off_c, 4, 62, 0
9, 138432, Note_on_c, 4, 64, 100
9, 138560, Note_off_c, 4, 64, 0
9, 138624, Note_on_c, 4, 62, 100
9, 138812, Note_off_c, 4, 62, 0
9, 138816, Note_on_c, 4, 60, 100
9, 139004, Note_off_c, 4, 60, 0
9, 139008, Note_on_c, 4, 67, 100
9, 139196, Note_off_c, 4, 67, 0
9, 139200, Note_on_c, 4, 76, 100
9, 139580, Note_off_c, 4, 76, 0
9, 139584, Note_on_c, 4, 67, 100
9, 139772, Note_off_c, 4, 67, 0
9, 139776, Note_on_c, 4, 59, 100
9, 139868, Note_off_c, 4, 59, 0
9, 139872, Note_on_c, 4, 60, 100
9, 139964, Note_off_c, 4, 60, 0
9, 139968, Note_on_c, 4, 62, 100
9, 140096, Note_off_c, 4, 62, 0
9, 140160, Note_on_c, 4, 60, 100
9, 140348, Note_off_c, 4, 60, 0
9, 140352, Note_on_c, 4, 59, 100
9, 140540, Note_off_c, 4, 59, 0
9, 140544, Note_on_c, 4, 65, 100
9, 140732, Note_off_c, 4, 65, 0
9, 140736, Note_on_c, 4, 74, 100
9, 141116, Note_off_c, 4, 74, 0
9, 141120, Note_on_c, 4, 65, 100
9, 141308, Note_off_c, 4, 65, 0
9, 141312, Note_on_c, 4, 64, 100
9, 141404, Note_off_c, 4, 64, 0
9, 141408, Note_on_c, 4, 65, 100
9, 141500, Note_off_c, 4, 65, 0
9, 141504, Note_on_c, 4, 67, 100
9, 141644, Note_off_c, 4, 67, 0
9, 141696, Note_on_c, 4, 67, 100
9, 141788, Note_off_c, 4, 67, 0
9, 141792, Note_on_c, 4, 69, 100
9, 141884, Note_off_c, 4, 69, 0
9, 141888, Note_on_c, 4, 70, 100
9, 142028, Note_off_c, 4, 70, 0
9, 142080, Note_on_c, 4, 61, 100
9, 142220, Note_off_c, 4, 61, 0
9, 142272, Note_on_c, 4, 76, 100
9, 142364, Note_off_c, 4, 76, 0
9, 142368, Note_on_c, 4, 74, 100
9, 142460, Note_off_c, 4, 74, 0
9, 142464, Note_on_c, 4, 73, 100
9, 142556, Note_off_c, 4, 73, 0
9, 142560, Note_on_c, 4, 71, 100
9, 142652, Note_off_c, 4, 71, 0
9, 142656, Note_on_c, 4, 69, 100
9, 142748, Note_off_c, 4, 69, 0
9, 142752, Note_on_c, 4, 67, 100
9, 142844, Note_off_c, 4, 67, 0
9, 142848, Note_on_c, 4, 65, 100
9, 142932, Note_off_c, 4, 65, 0
9, 142944, Note_on_c, 4, 62, 100
9, 143028, Note_off_c, 4, 62, 0
9, 143040, Note_on_c, 4, 65, 100
9, 143124, Note_off_c, 4, 65, 0
9, 143136, Note_on_c, 4, 69, 100
9, 143220, Note_off_c, 4, 69, 0
9, 143232, Note_on_c, 4, 72, 100
9, 143316, Note_off_c, 4, 72, 0
9, 143328, Note_on_c, 4, 69, 100
9, 143412, Note_off_c, 4, 69, 0
9, 143424, Note_on_c, 4, 72, 100
9, 143508, Note_off_c, 4, 72, 0
9, 143520, Note_on_c, 4, 75, 100
9, 143604, Note_off_c, 4, 75, 0
9, 143616, Note_on_c, 4, 66, 100
9, 143744, Note_off_c, 4, 66, 0
9, 143808, Note_on_c, 4, 81, 100
9, 143892, Note_off_c, 4, 81, 0
9, 143904, Note_on_c, 4, 79, 100
9, 143988, Note_off_c, 4, 79, 0
9, 144000, Note_on_c, 4, 78, 100
9, 144084, Note_off_c, 4, 78, 0
9, 144096, Note_on_c, 4, 76, 100
9, 144180, Note_off_c, 4, 76, 0
9, 144192, Note_on_c, 4, 74, 100
9, 144276, Note_off_c, 4, 74, 0
9, 144288, Note_on_c, 4, 72, 100
9, 144372, Note_off_c, 4, 72, 0
9, 144384, Note_on_c, 4, 70, 100
9, 144512, Note_off_c, 4, 70, 0
9, 144672, Note_on_c, 4, 69, 100
9, 144736, Note_off_c, 4, 69, 0
9, 144768, Note_on_c, 4, 70, 100
9, 144832, Note_off_c, 4, 70, 0
9, 144864, Note_on_c, 4, 74, 100
9, 144928, Note_off_c, 4, 74, 0
9, 144960, Note_on_c, 4, 78, 100
9, 145024, Note_off_c, 4, 78, 0
9, 145056, Note_on_c, 4, 79, 100
9, 145120, Note_off_c, 4, 79, 0
9, 145152, Note_on_c, 4, 70, 100
9, 145280, Note_off_c, 4, 70, 0
9, 145440, Note_on_c, 4, 69, 100
9, 145504, Note_off_c, 4, 69, 0
9, 145536, Note_on_c, 4, 70, 100
9, 145600, Note_off_c, 4, 70, 0
9, 145632, Note_on_c, 4, 74, 100
9, 145696, Note_off_c, 4, 74, 0
9, 145728, Note_on_c, 4, 78, 100
9, 145792, Note_off_c, 4, 78, 0
9, 145824, Note_on_c, 4, 79, 100
9, 145888, Note_off_c, 4, 79, 0
9, 145920, Note_on_c, 4, 72, 100
9, 146012, Note_off_c, 4, 72, 0
9, 146016, Note_on_c, 4, 70, 100
9, 146108, Note_off_c, 4, 70, 0
9, 146112, Note_on_c, 4, 72, 100
9, 146204, Note_off_c, 4, 72, 0
9, 146208, Note_on_c, 4, 74, 100
9, 146300, Note_off_c, 4, 74, 0
9, 146304, Note_on_c, 4, 75, 100
9, 146396, Note_off_c, 4, 75, 0
9, 146400, Note_on_c, 4, 78, 100
9, 146492, Note_off_c, 4, 78, 0
9, 146496, Note_on_c, 4, 79, 100
9, 146588, Note_off_c, 4, 79, 0
9, 146592, Note_on_c, 4, 81, 100
9, 146684, Note_off_c, 4, 81, 0
9, 146688, Note_on_c, 4, 72, 100
9, 146780, Note_off_c, 4, 72, 0
9, 146784, Note_on_c, 4, 70, 100
9, 146876, Note_off_c, 4, 70, 0
9, 146880, Note_on_c, 4, 72, 100
9, 146972, Note_off_c, 4, 72, 0
9, 146976, Note_on_c, 4, 74, 100
9, 147068, Note_off_c, 4, 74, 0
9, 147072, Note_on_c, 4, 75, 100
9, 147164, Note_off_c, 4, 75, 0
9, 147168, Note_on_c, 4, 78, 100
9, 147260, Note_off_c, 4, 78, 0
9, 147264, Note_on_c, 4, 79, 100
9, 147356, Note_off_c, 4, 79, 0
9, 147360, Note_on_c, 4, 81, 100
9, 147452, Note_off_c, 4, 81, 0
9, 147456, Note_on_c, 4, 74, 100
9, 147548, Note_off_c, 4, 74, 0
9, 147552, Note_on_c, 4, 72, 100
9, 147644, Note_off_c, 4, 72, 0
9, 147648, Note_on_c, 4, 74, 100
9, 147740, Note_off_c, 4, 74, 0
9, 147744, Note_on_c, 4, 78, 100
9, 147836, Note_off_c, 4, 78, 0
9, 147840, Note_on_c, 4, 79, 100
9, 147932, Note_off_c, 4, 79, 0
9, 147936, Note_on_c, 4, 81, 100
9, 148028, Note_off_c, 4, 81, 0
9, 148032, Note_on_c, 4, 82, 100
9, 148124, Note_off_c, 4, 82, 0
9, 148128, Note_on_c, 4, 79, 100
9, 148220, Note_off_c, 4, 79, 0
9, 148224, Note_on_c, 4, 74, 100
9, 148316, Note_off_c, 4, 74, 0
9, 148320, Note_on_c, 4, 72, 100
9, 148412, Note_off_c, 4, 72, 0
9, 148416, Note_on_c, 4, 74, 100
9, 148508, Note_off_c, 4, 74, 0
9, 148512, Note_on_c, 4, 78, 100
9, 148604, Note_off_c, 4, 78, 0
9, 148608, Note_on_c, 4, 79, 100
9, 148700, Note_off_c, 4, 79, 0
9, 148704, Note_on_c, 4, 81, 100
9, 148796, Note_off_c, 4, 81, 0
9, 148800, Note_on_c, 4, 82, 100
9, 148892, Note_off_c, 4, 82, 0
9, 148896, Note_on_c, 4, 79, 100
9, 148988, Note_off_c, 4, 79, 0
9, 148992, Note_on_c, 4, 75, 100
9, 149180, Note_off_c, 4, 75, 0
9, 149280, Note_on_c, 4, 69, 100
9, 149372, Note_off_c, 4, 69, 0
9, 149376, Note_on_c, 4, 70, 100
9, 149468, Note_off_c, 4, 70, 0
9, 149472, Note_on_c, 4, 72, 100
9, 149564, Note_off_c, 4, 72, 0
9, 149568, Note_on_c, 4, 74, 100
9, 149660, Note_off_c, 4, 74, 0
9, 149664, Note_on_c, 4, 75, 100
9, 149756, Note_off_c, 4, 75, 0
9, 149760, Note_on_c, 4, 75, 100
9, 149948, Note_off_c, 4, 75, 0
9, 150048, Note_on_c, 4, 69, 100
9, 150140, Note_off_c, 4, 69, 0
9, 150144, Note_on_c, 4, 70, 100
9, 150236, Note_off_c, 4, 70, 0
9, 150240, Note_on_c, 4, 72, 100
9, 150332, Note_off_c, 4, 72, 0
9, 150336, Note_on_c, 4, 74, 100
9, 150428, Note_off_c, 4, 74, 0
9, 150432, Note_on_c, 4, 75, 100
9, 150524, Note_off_c, 4, 75, 0
9, 150528, Note_on_c, 4, 74, 100
9, 150716, Note_off_c, 4, 74, 0
9, 150816, Note_on_c, 4, 69, 100
9, 150908, Note_off_c, 4, 69, 0
9, 150912, Note_on_c, 4, 74, 100
9, 151004, Note_off_c, 4, 74, 0
9, 151008, Note_on_c, 4, 69, 100
9, 151100, Note_off_c, 4, 69, 0
9, 151104, Note_on_c, 4, 66, 100
9, 151196, Note_off_c, 4, 66, 0
9, 151200, Note_on_c, 4, 62, 100
9, 151292, Note_off_c, 4, 62, 0
9, 151296, Note_on_c, 4, 74, 100
9, 151484, Note_off_c, 4, 74, 0
9, 151584, Note_on_c, 4, 69, 100
9, 151676, Note_off_c, 4, 69, 0
9, 151680, Note_on_c, 4, 74, 100
9, 151772, Note_off_c, 4, 74, 0
9, 151776, Note_on_c, 4, 69, 100
9, 151868, Note_off_c, 4, 69, 0
9, 151872, Note_on_c, 4, 66, 100
9, 151964, Note_off_c, 4, 66, 0
9, 151968, Note_on_c, 4, 62, 100
9, 152060, Note_off_c, 4, 62, 0
9, 152064, Note_on_c, 4, 70, 100
9, 152156, Note_off_c, 4, 70, 0
9, 152160, Note_on_c, 4, 69, 100
9, 152252, Note_off_c, 4, 69, 0
9, 152256, Note_on_c, 4, 70, 100
9, 152348, Note_off_c, 4, 70, 0
9, 152640, Note_on_c, 4, 70, 100
9, 152732, Note_off_c, 4, 70, 0
9, 152736, Note_on_c, 4, 69, 100
9, 152828, Note_off_c, 4, 69, 0
9, 152832, Note_on_c, 4, 70, 100
9, 152924, Note_off_c, 4, 70, 0
9, 152928, Note_on_c, 4, 69, 100
9, 153020, Note_off_c, 4, 69, 0
9, 153024, Note_on_c, 4, 70, 100
9, 153116, Note_off_c, 4, 70, 0
9, 153408, Note_on_c, 4, 70, 100
9, 153452, Note_off_c, 4, 70, 0
9, 153456, Note_on_c, 4, 69, 100
9, 153500, Note_off_c, 4, 69, 0
9, 153504, Note_on_c, 4, 67, 100
9, 153596, Note_off_c, 4, 67, 0
9, 153600, Note_on_c, 4, 72, 100
9, 153692, Note_off_c, 4, 72, 0
9, 153696, Note_on_c, 4, 70, 100
9, 153788, Note_off_c, 4, 70, 0
9, 153792, Note_on_c, 4, 72, 100
9, 153884, Note_off_c, 4, 72, 0
9, 154176, Note_on_c, 4, 66, 100
9, 154268, Note_off_c, 4, 66, 0
9, 154272, Note_on_c, 4, 69, 100
9, 154364, Note_off_c, 4, 69, 0
9, 154368, Note_on_c, 4, 72, 100
9, 154460, Note_off_c, 4, 72, 0
9, 154464, Note_on_c, 4, 70, 100
9, 154556, Note_off_c, 4, 70, 0
9, 154560, Note_on_c, 4, 72, 100
9, 154652, Note_off_c, 4, 72, 0
9, 155040, Note_on_c, 4, 72, 100
9, 155132, Note_off_c, 4, 72, 0
9, 155136, Note_on_c, 4, 78, 100
9, 155228, Note_off_c, 4, 78, 0
9, 155232, Note_on_c, 4, 76, 100
9, 155324, Note_off_c, 4, 76, 0
9, 155328, Note_on_c, 4, 78, 100
9, 155420, Note_off_c, 4, 78, 0
9, 155808, Note_on_c, 4, 78, 100
9, 155900, Note_off_c, 4, 78, 0
9, 155904, Note_on_c, 4, 81, 100
9, 155996, Note_off_c, 4, 81, 0
9, 156000, Note_on_c, 4, 79, 100
9, 156092, Note_off_c, 4, 79, 0
9, 156096, Note_on_c, 4, 81, 100
9, 156188, Note_off_c, 4, 81, 0
9, 156480, Note_on_c, 4, 78, 100
9, 156572, Note_off_c, 4, 78, 0
9, 156576, Note_on_c, 4, 81, 100
9, 156668, Note_off_c, 4, 81, 0
9, 156672, Note_on_c, 4, 84, 100
9, 156764, Note_off_c, 4, 84, 0
9, 156768, Note_on_c, 4, 81, 100
9, 156860, Note_off_c, 4, 81, 0
9, 156864, Note_on_c, 4, 82, 100
9, 156956, Note_off_c, 4, 82, 0
9, 156960, Note_on_c, 4, 78, 100
9, 157052, Note_off_c, 4, 78, 0
9, 157056, Note_on_c, 4, 79, 100
9, 157148, Note_off_c, 4, 79, 0
9, 157152, Note_on_c, 4, 74, 100
9, 157244, Note_off_c, 4, 74, 0
9, 157248, Note_on_c, 4, 75, 100
9, 157340, Note_off_c, 4, 75, 0
9, 157344, Note_on_c, 4, 71, 100
9, 157436, Note_off_c, 4, 71, 0
9, 157440, Note_on_c, 4, 72, 100
9, 157532, Note_off_c, 4, 72, 0
9, 157536, Note_on_c, 4, 81, 100
9, 157628, Note_off_c, 4, 81, 0
9, 157632, Note_on_c, 4, 78, 100
9, 157724, Note_off_c, 4, 78, 0
9, 157728, Note_on_c, 4, 79, 100
9, 157820, Note_off_c, 4, 79, 0
9, 157824, Note_on_c, 4, 70, 100
9, 157916, Note_off_c, 4, 70, 0
9, 157920, Note_on_c, 4, 79, 100
9, 158012, Note_off_c, 4, 79, 0
9, 158016, Note_on_c, 4, 69, 100
9, 158108, Note_off_c, 4, 69, 0
9, 158112, Note_on_c, 4, 78, 100
9, 158204, Note_off_c, 4, 78, 0
9, 158208, Note_on_c, 4, 79, 100
9, 158588, Note_off_c, 4, 79, 0
9, 158976, Note_on_c, 4, 82, 100
9, 159068, Note_off_c, 4, 82, 0
9, 159072, Note_on_c, 4, 84, 100
9, 159164, Note_off_c, 4, 84, 0
9, 159168, Note_on_c, 4, 86, 100
9, 159296, Note_off_c, 4, 86, 0
9, 159360, Note_on_c, 4, 84, 100
9, 159548, Note_off_c, 4, 84, 0
9, 159552, Note_on_c, 4, 82, 100
9, 159932, Note_off_c, 4, 82, 0
9, 159936, Note_on_c, 4, 81, 100
9, 160316, Note_off_c, 4, 81, 0
9, 160320, Note_on_c, 4, 79, 100
9, 160700, Note_off_c, 4, 79, 0
9, 160704, Note_on_c, 4, 72, 100
9, 161084, Note_off_c, 4, 72, 0
9, 161088, Note_on_c, 4, 69, 100
9, 161180, Note_off_c, 4, 69, 0
9, 161184, Note_on_c, 4, 66, 100
9, 161276, Note_off_c, 4, 66, 0
9, 161280, Note_on_c, 4, 60, 100
9, 161468, Note_off_c, 4, 60, 0
9, 161472, Note_on_c, 4, 75, 100
9, 161856, Note_on_c, 4, 72, 100
9, 161948, Note_off_c, 4, 72, 0
9, 161952, Note_on_c, 4, 69, 100
9, 162044, Note_off_c, 4, 75, 0
9, 162044, Note_off_c, 4, 69, 0
9, 162048, Note_on_c, 4, 60, 100
9, 162236, Note_off_c, 4, 60, 0
9, 162240, Note_on_c, 4, 78, 100
9, 162620, Note_off_c, 4, 78, 0
9, 162624, Note_on_c, 4, 75, 100
9, 162716, Note_off_c, 4, 75, 0
9, 162720, Note_on_c, 4, 72, 100
9, 162812, Note_off_c, 4, 72, 0
9, 162816, Note_on_c, 4, 62, 100
9, 163004, Note_off_c, 4, 62, 0
9, 163008, Note_on_c, 4, 81, 100
9, 163388, Note_off_c, 4, 81, 0
9, 163392, Note_on_c, 4, 78, 100
9, 163484, Note_off_c, 4, 78, 0
9, 163488, Note_on_c, 4, 74, 100
9, 163580, Note_off_c, 4, 74, 0
9, 163584, Note_on_c, 4, 75, 100
9, 163676, Note_off_c, 4, 75, 0
9, 163680, Note_on_c, 4, 72, 100
9, 163772, Note_off_c, 4, 72, 0
9, 163776, Note_on_c, 4, 74, 100
9, 163868, Note_off_c, 4, 74, 0
9, 163872, Note_on_c, 4, 70, 100
9, 163964, Note_off_c, 4, 70, 0
9, 163968, Note_on_c, 4, 72, 100
9, 164060, Note_off_c, 4, 72, 0
9, 164064, Note_on_c, 4, 69, 100
9, 164156, Note_off_c, 4, 69, 0
9, 164160, Note_on_c, 4, 70, 100
9, 164252, Note_off_c, 4, 70, 0
9, 164256, Note_on_c, 4, 67, 100
9, 164348, Note_off_c, 4, 67, 0
9, 164352, Note_on_c, 4, 75, 100
9, 164496, Note_on_c, 4, 74, 100
9, 164500, Note_off_c, 4, 75, 0
9, 164568, Note_on_c, 4, 75, 100
9, 164572, Note_off_c, 4, 74, 0
9, 164624, Note_off_c, 4, 75, 0
9, 164628, Note_on_c, 4, 74, 100
9, 164676, Note_on_c, 4, 75, 100
9, 164684, Note_off_c, 4, 74, 0
9, 164732, Note_off_c, 4, 75, 0
9, 164732, Note_on_c, 4, 74, 100
9, 164784, Note_off_c, 4, 74, 0
9, 164784, Note_on_c, 4, 75, 100
9, 164836, Note_off_c, 4, 75, 0
9, 164836, Note_on_c, 4, 74, 100
9, 164888, Note_off_c, 4, 74, 0
9, 164888, Note_on_c, 4, 75, 100
9, 164940, Note_off_c, 4, 75, 0
9, 164948, Note_on_c, 4, 74, 100
9, 165000, Note_off_c, 4, 74, 0
9, 165000, Note_on_c, 4, 75, 100
9, 165056, Note_off_c, 4, 75, 0
9, 165064, Note_on_c, 4, 74, 100
9, 165112, Note_off_c, 4, 74, 0
9, 165116, Note_on_c, 4, 75, 100
9, 165168, Note_off_c, 4, 75, 0
9, 165172, Note_on_c, 4, 74, 100
9, 165224, Note_off_c, 4, 74, 0
9, 165232, Note_on_c, 4, 75, 100
9, 165284, Note_off_c, 4, 75, 0
9, 165284, Note_on_c, 4, 74, 100
9, 165332, Note_off_c, 4, 74, 0
9, 165344, Note_on_c, 4, 75, 100
9, 165396, Note_off_c, 4, 75, 0
9, 165396, Note_on_c, 4, 74, 100
9, 165440, Note_off_c, 4, 74, 0
9, 165456, Note_on_c, 4, 75, 100
9, 165500, Note_on_c, 4, 74, 100
9, 165504, Note_off_c, 4, 75, 0
9, 165544, Note_off_c, 4, 74, 0
9, 165560, Note_on_c, 4, 75, 100
9, 165604, Note_on_c, 4, 74, 100
9, 165612, Note_off_c, 4, 75, 0
9, 165660, Note_off_c, 4, 74, 0
9, 165672, Note_on_c, 4, 75, 100
9, 165720, Note_on_c, 4, 74, 100
9, 165724, Note_off_c, 4, 75, 0
9, 165772, Note_off_c, 4, 74, 0
9, 165780, Note_on_c, 4, 75, 100
9, 165832, Note_off_c, 4, 75, 0
9, 165832, Note_on_c, 4, 74, 100
9, 165884, Note_off_c, 4, 74, 0
9, 165884, Note_on_c, 4, 75, 100
9, 165888, Note_on_c, 4, 74, 100
9, 165936, Note_off_c, 4, 75, 0
9, 166076, Note_off_c, 4, 74, 0
9, 166656, Note_on_c, 4, 82, 100
9, 166752, Note_off_c, 4, 82, 0
9, 166752, Note_on_c, 4, 81, 100
9, 166800, Note_off_c, 4, 81, 0
9, 166800, Note_on_c, 4, 82, 100
9, 166848, Note_off_c, 4, 82, 0
9, 166848, Note_on_c, 4, 81, 100
9, 166872, Note_on_c, 4, 82, 100
9, 166884, Note_off_c, 4, 81, 0
9, 166896, Note_on_c, 4, 81, 100
9, 166904, Note_off_c, 4, 82, 0
9, 166920, Note_on_c, 4, 82, 100
9, 166928, Note_off_c, 4, 81, 0
9, 166944, Note_on_c, 4, 81, 100
9, 166952, Note_off_c, 4, 82, 0
9, 166968, Note_on_c, 4, 82, 100
9, 166976, Note_off_c, 4, 81, 0
9, 166992, Note_on_c, 4, 81, 100
9, 167000, Note_off_c, 4, 82, 0
9, 167016, Note_on_c, 4, 82, 100
9, 167024, Note_off_c, 4, 81, 0
9, 167040, Note_on_c, 4, 81, 100
9, 167048, Note_off_c, 4, 82, 0
9, 167076, Note_off_c, 4, 81, 0
9, 167088, Note_on_c, 4, 82, 100
9, 167520, Note_on_c, 4, 84, 100
9, 167524, Note_off_c, 4, 82, 0
9, 167612, Note_off_c, 4, 84, 0
9, 167616, Note_on_c, 4, 82, 100
9, 167708, Note_off_c, 4, 82, 0
9, 167712, Note_on_c, 4, 81, 100
9, 167804, Note_off_c, 4, 81, 0
9, 167808, Note_on_c, 4, 79, 100
9, 167900, Note_off_c, 4, 79, 0
9, 167904, Note_on_c, 4, 81, 100
9, 167996, Note_off_c, 4, 81, 0
9, 168000, Note_on_c, 4, 82, 100
9, 168092, Note_off_c, 4, 82, 0
9, 168096, Note_on_c, 4, 81, 100
9, 168188, Note_off_c, 4, 81, 0
9, 168192, Note_on_c, 4, 79, 100
9, 168284, Note_off_c, 4, 79, 0
9, 168288, Note_on_c, 4, 77, 100
9, 168380, Note_off_c, 4, 77, 0
9, 168384, Note_on_c, 4, 76, 100
9, 168476, Note_off_c, 4, 76, 0
9, 168480, Note_on_c, 4, 77, 100
9, 168572, Note_off_c, 4, 77, 0
9, 168576, Note_on_c, 4, 79, 100
9, 168668, Note_off_c, 4, 79, 0
9, 168672, Note_on_c, 4, 77, 100
9, 168764, Note_off_c, 4, 77, 0
9, 168768, Note_on_c, 4, 76, 100
9, 168860, Note_off_c, 4, 76, 0
9, 168864, Note_on_c, 4, 74, 100
9, 168956, Note_off_c, 4, 74, 0
9, 168960, Note_on_c, 4, 73, 100
9, 169052, Note_off_c, 4, 73, 0
9, 169056, Note_on_c, 4, 74, 100
9, 169148, Note_off_c, 4, 74, 0
9, 169152, Note_on_c, 4, 76, 100
9, 169244, Note_off_c, 4, 76, 0
9, 169248, Note_on_c, 4, 74, 100
9, 169340, Note_off_c, 4, 74, 0
9, 169344, Note_on_c, 4, 73, 100
9, 169436, Note_off_c, 4, 73, 0
9, 169440, Note_on_c, 4, 71, 100
9, 169532, Note_off_c, 4, 71, 0
9, 169536, Note_on_c, 4, 69, 100
9, 169628, Note_off_c, 4, 69, 0
9, 169632, Note_on_c, 4, 71, 100
9, 169724, Note_off_c, 4, 71, 0
9, 169728, Note_on_c, 4, 73, 100
9, 169820, Note_off_c, 4, 73, 0
9, 169824, Note_on_c, 4, 71, 100
9, 169916, Note_off_c, 4, 71, 0
9, 169920, Note_on_c, 4, 69, 100
9, 170012, Note_off_c, 4, 69, 0
9, 170016, Note_on_c, 4, 67, 100
9, 170108, Note_off_c, 4, 67, 0
9, 170112, Note_on_c, 4, 70, 100
9, 170204, Note_off_c, 4, 70, 0
9, 170208, Note_on_c, 4, 69, 100
9, 170300, Note_off_c, 4, 69, 0
9, 170304, Note_on_c, 4, 67, 100
9, 170396, Note_off_c, 4, 67, 0
9, 170400, Note_on_c, 4, 65, 100
9, 170492, Note_off_c, 4, 65, 0
9, 170496, Note_on_c, 4, 64, 100
9, 170588, Note_off_c, 4, 64, 0
9, 170592, Note_on_c, 4, 65, 100
9, 170684, Note_off_c, 4, 65, 0
9, 170688, Note_on_c, 4, 67, 100
9, 170780, Note_off_c, 4, 67, 0
9, 170784, Note_on_c, 4, 65, 100
9, 170876, Note_off_c, 4, 65, 0
9, 170880, Note_on_c, 4, 64, 100
9, 170972, Note_off_c, 4, 64, 0
9, 170976, Note_on_c, 4, 62, 100
9, 171068, Note_off_c, 4, 62, 0
9, 171072, Note_on_c, 4, 61, 100
9, 171164, Note_off_c, 4, 61, 0
9, 171168, Note_on_c, 4, 62, 100
9, 171260, Note_off_c, 4, 62, 0
9, 171264, Note_on_c, 4, 64, 100
9, 171356, Note_off_c, 4, 64, 0
9, 171360, Note_on_c, 4, 62, 100
9, 171452, Note_off_c, 4, 62, 0
9, 171456, Note_on_c, 4, 61, 100
9, 171548, Note_off_c, 4, 61, 0
9, 171552, Note_on_c, 4, 59, 100
9, 171644, Note_off_c, 4, 59, 0
9, 173568, Note_on_c, 4, 64, 100
9, 173660, Note_off_c, 4, 64, 0
9, 173664, Note_on_c, 4, 65, 100
9, 173756, Note_off_c, 4, 65, 0
9, 173760, Note_on_c, 4, 67, 100
9, 173852, Note_off_c, 4, 67, 0
9, 173856, Note_on_c, 4, 64, 100
9, 173948, Note_off_c, 4, 64, 0
9, 174336, Note_on_c, 4, 67, 100
9, 174428, Note_off_c, 4, 67, 0
9, 174432, Note_on_c, 4, 69, 100
9, 174524, Note_off_c, 4, 69, 0
9, 174528, Note_on_c, 4, 70, 100
9, 174620, Note_off_c, 4, 70, 0
9, 174624, Note_on_c, 4, 67, 100
9, 174716, Note_off_c, 4, 67, 0
9, 174720, Note_on_c, 4, 64, 100
9, 174812, Note_off_c, 4, 64, 0
9, 174816, Note_on_c, 4, 65, 100
9, 174908, Note_off_c, 4, 65, 0
9, 174912, Note_on_c, 4, 67, 100
9, 175004, Note_off_c, 4, 67, 0
9, 175008, Note_on_c, 4, 69, 100
9, 175100, Note_off_c, 4, 69, 0
9, 175104, Note_on_c, 4, 70, 100
9, 175196, Note_off_c, 4, 70, 0
9, 175200, Note_on_c, 4, 73, 100
9, 175292, Note_off_c, 4, 73, 0
9, 175296, Note_on_c, 4, 74, 100
9, 175388, Note_off_c, 4, 74, 0
9, 175392, Note_on_c, 4, 76, 100
9, 175484, Note_off_c, 4, 76, 0
9, 175488, Note_on_c, 4, 74, 100
9, 175580, Note_off_c, 4, 74, 0
9, 175584, Note_on_c, 4, 73, 100
9, 175676, Note_off_c, 4, 73, 0
9, 175680, Note_on_c, 4, 71, 100
9, 175772, Note_off_c, 4, 71, 0
9, 175776, Note_on_c, 4, 69, 100
9, 175868, Note_off_c, 4, 69, 0
9, 175872, Note_on_c, 4, 67, 100
9, 175964, Note_off_c, 4, 67, 0
9, 175968, Note_on_c, 4, 69, 100
9, 176060, Note_off_c, 4, 69, 0
9, 176064, Note_on_c, 4, 71, 100
9, 176156, Note_off_c, 4, 71, 0
9, 176160, Note_on_c, 4, 73, 100
9, 176252, Note_off_c, 4, 73, 0
9, 176256, Note_on_c, 4, 74, 100
9, 176348, Note_off_c, 4, 74, 0
9, 176352, Note_on_c, 4, 76, 100
9, 176444, Note_off_c, 4, 76, 0
9, 176448, Note_on_c, 4, 77, 100
9, 176540, Note_off_c, 4, 77, 0
9, 176544, Note_on_c, 4, 79, 100
9, 176636, Note_off_c, 4, 79, 0
9, 176640, Note_on_c, 4, 81, 100
9, 176732, Note_off_c, 4, 81, 0
9, 176736, Note_on_c, 4, 82, 100
9, 176828, Note_off_c, 4, 82, 0
9, 176832, Note_on_c, 4, 81, 100
9, 176924, Note_off_c, 4, 81, 0
9, 176928, Note_on_c, 4, 79, 100
9, 177020, Note_off_c, 4, 79, 0
9, 177024, Note_on_c, 4, 77, 100
9, 177116, Note_off_c, 4, 77, 0
9, 177120, Note_on_c, 4, 76, 100
9, 177212, Note_off_c, 4, 76, 0
9, 177216, Note_on_c, 4, 74, 100
9, 177308, Note_off_c, 4, 74, 0
9, 177312, Note_on_c, 4, 73, 100
9, 177404, Note_off_c, 4, 73, 0
9, 177408, Note_on_c, 4, 74, 100
9, 177536, Note_off_c, 4, 74, 0
9, 177600, Note_on_c, 4, 70, 100
9, 177600, Note_on_c, 4, 75, 100
9, 177600, Note_on_c, 4, 79, 100
9, 177728, Note_off_c, 4, 70, 0
9, 177728, Note_off_c, 4, 75, 0
9, 177728, Note_off_c, 4, 79, 0
9, 177792, Note_on_c, 4, 72, 100
9, 177792, Note_on_c, 4, 81, 100
9, 177792, Note_on_c, 4, 75, 100
9, 177920, Note_off_c, 4, 72, 0
9, 177920, Note_off_c, 4, 81, 0
9, 177920, Note_off_c, 4, 75, 0
9, 177984, Note_on_c, 4, 69, 100
9, 177984, Note_on_c, 4, 74, 100
9, 177984, Note_on_c, 4, 78, 100
9, 178112, Note_off_c, 4, 69, 0
9, 178112, Note_off_c, 4, 74, 0
9, 178112, Note_off_c, 4, 78, 0
9, 178176, Note_on_c, 4, 70, 100
9, 178176, Note_on_c, 4, 74, 100
9, 178176, Note_on_c, 4, 79, 100
9, 178304, Note_off_c, 4, 70, 0
9, 178304, Note_off_c, 4, 74, 0
9, 178304, Note_off_c, 4, 79, 0
9, 178588, Note_on_c, 4, 81, 100
9, 178660, Note_on_c, 4, 82, 100
9, 178672, Note_off_c, 4, 81, 0
9, 178712, Note_off_c, 4, 82, 0
9, 178712, Note_on_c, 4, 84, 100
9, 178788, Note_on_c, 4, 82, 100
9, 178796, Note_off_c, 4, 84, 0
9, 178832, Note_on_c, 4, 84, 100
9, 178840, Note_off_c, 4, 82, 0
9, 178892, Note_on_c, 4, 82, 100
9, 178936, Note_off_c, 4, 82, 0
9, 178976, Note_on_c, 4, 82, 100
9, 178992, Note_off_c, 4, 84, 0
9, 179012, Note_off_c, 4, 82, 0
9, 179020, Note_on_c, 4, 84, 100
9, 179068, Note_on_c, 4, 82, 100
9, 179080, Note_off_c, 4, 84, 0
9, 179112, Note_off_c, 4, 82, 0
9, 179112, Note_on_c, 4, 84, 100
9, 179180, Note_off_c, 4, 84, 0
9, 179204, Note_on_c, 4, 84, 100
9, 179244, Note_on_c, 4, 82, 100
9, 179260, Note_off_c, 4, 84, 0
9, 179300, Note_on_c, 4, 84, 100
9, 179304, Note_off_c, 4, 82, 0
9, 179416, Note_off_c, 4, 84, 0
9, 179420, Note_on_c, 4, 82, 100
9, 179464, Note_off_c, 4, 82, 0
9, 179472, Note_on_c, 4, 84, 100
9, 179536, Note_on_c, 4, 82, 100
9, 179544, Note_off_c, 4, 84, 0
9, 179560, Note_on_c, 4, 84, 100
9, 179616, Note_off_c, 4, 84, 0
9, 179616, Note_on_c, 4, 82, 100
9, 179628, Note_off_c, 4, 82, 0
9, 179652, Note_off_c, 4, 82, 0
9, 179652, Note_on_c, 4, 84, 100
9, 179684, Note_on_c, 4, 82, 100
9, 179688, Note_off_c, 4, 84, 0
9, 179712, Note_on_c, 4, 81, 100
9, 179716, Note_off_c, 4, 82, 0
9, 179756, Note_off_c, 4, 81, 0
9, 179760, Note_on_c, 4, 82, 100
9, 179804, Note_off_c, 4, 82, 0
9, 179808, Note_on_c, 4, 81, 100
9, 179852, Note_off_c, 4, 81, 0
9, 179856, Note_on_c, 4, 82, 100
9, 179900, Note_off_c, 4, 82, 0
9, 179904, Note_on_c, 4, 81, 100
9, 179948, Note_off_c, 4, 81, 0
9, 179952, Note_on_c, 4, 82, 100
9, 179996, Note_off_c, 4, 82, 0
9, 180000, Note_on_c, 4, 81, 100
9, 180044, Note_off_c, 4, 81, 0
9, 180048, Note_on_c, 4, 82, 100
9, 180092, Note_off_c, 4, 82, 0
9, 180096, Note_on_c, 4, 81, 100
9, 180140, Note_off_c, 4, 81, 0
9, 180144, Note_on_c, 4, 82, 100
9, 180188, Note_off_c, 4, 82, 0
9, 180192, Note_on_c, 4, 81, 100
9, 180236, Note_off_c, 4, 81, 0
9, 180240, Note_on_c, 4, 82, 100
9, 180284, Note_off_c, 4, 82, 0
9, 180288, Note_on_c, 4, 81, 100
9, 180332, Note_off_c, 4, 81, 0
9, 180336, Note_on_c, 4, 82, 100
9, 180380, Note_off_c, 4, 82, 0
9, 180384, Note_on_c, 4, 81, 100
9, 180428, Note_off_c, 4, 81, 0
9, 180432, Note_on_c, 4, 82, 100
9, 180476, Note_off_c, 4, 82, 0
9, 180480, Note_on_c, 4, 81, 100
9, 180524, Note_off_c, 4, 81, 0
9, 180528, Note_on_c, 4, 82, 100
9, 180572, Note_off_c, 4, 82, 0
9, 180576, Note_on_c, 4, 81, 100
9, 180620, Note_off_c, 4, 81, 0
9, 180624, Note_on_c, 4, 82, 100
9, 180668, Note_off_c, 4, 82, 0
9, 180672, Note_on_c, 4, 81, 100
9, 180716, Note_off_c, 4, 81, 0
9, 180720, Note_on_c, 4, 82, 100
9, 180764, Note_off_c, 4, 82, 0
9, 180768, Note_on_c, 4, 81, 100
9, 180812, Note_off_c, 4, 81, 0
9, 180816, Note_on_c, 4, 82, 100
9, 180860, Note_off_c, 4, 82, 0
9, 180864, Note_on_c, 4, 81, 100
9, 180908, Note_off_c, 4, 81, 0
9, 180912, Note_on_c, 4, 82, 100
9, 180956, Note_off_c, 4, 82, 0
9, 180960, Note_on_c, 4, 81, 100
9, 181004, Note_off_c, 4, 81, 0
9, 181008, Note_on_c, 4, 82, 100
9, 181052, Note_off_c, 4, 82, 0
9, 181056, Note_on_c, 4, 81, 100
9, 181100, Note_off_c, 4, 81, 0
9, 181104, Note_on_c, 4, 82, 100
9, 181148, Note_off_c, 4, 82, 0
9, 181152, Note_on_c, 4, 81, 100
9, 181196, Note_off_c, 4, 81, 0
9, 181200, Note_on_c, 4, 82, 100
9, 181244, Note_off_c, 4, 82, 0
9, 181248, Note_on_c, 4, 79, 100
9, 181292, Note_off_c, 4, 79, 0
9, 181296, Note_on_c, 4, 81, 100
9, 181340, Note_off_c, 4, 81, 0
9, 181344, Note_on_c, 4, 79, 100
9, 181388, Note_off_c, 4, 79, 0
9, 181392, Note_on_c, 4, 81, 100
9, 181436, Note_off_c, 4, 81, 0
9, 181440, Note_on_c, 4, 79, 100
9, 181484, Note_off_c, 4, 79, 0
9, 181488, Note_on_c, 4, 81, 100
9, 181532, Note_off_c, 4, 81, 0
9, 181536, Note_on_c, 4, 79, 100
9, 181580, Note_off_c, 4, 79, 0
9, 181584, Note_on_c, 4, 81, 100
9, 181628, Note_off_c, 4, 81, 0
9, 181632, Note_on_c, 4, 79, 100
9, 181676, Note_off_c, 4, 79, 0
9, 181680, Note_on_c, 4, 81, 100
9, 181724, Note_off_c, 4, 81, 0
9, 181728, Note_on_c, 4, 79, 100
9, 181772, Note_off_c, 4, 79, 0
9, 181776, Note_on_c, 4, 81, 100
9, 181820, Note_off_c, 4, 81, 0
9, 181824, Note_on_c, 4, 79, 100
9, 181868, Note_off_c, 4, 79, 0
9, 181872, Note_on_c, 4, 81, 100
9, 181916, Note_off_c, 4, 81, 0
9, 181920, Note_on_c, 4, 79, 100
9, 181964, Note_off_c, 4, 79, 0
9, 181968, Note_on_c, 4, 81, 100
9, 182012, Note_off_c, 4, 81, 0
9, 182016, Note_on_c, 4, 79, 100
9, 182060, Note_off_c, 4, 79, 0
9, 182064, Note_on_c, 4, 81, 100
9, 182108, Note_off_c, 4, 81, 0
9, 182112, Note_on_c, 4, 79, 100
9, 182156, Note_off_c, 4, 79, 0
9, 182160, Note_on_c, 4, 81, 100
9, 182204, Note_off_c, 4, 81, 0
9, 182208, Note_on_c, 4, 79, 100
9, 182252, Note_off_c, 4, 79, 0
9, 182256, Note_on_c, 4, 81, 100
9, 182300, Note_off_c, 4, 81, 0
9, 182304, Note_on_c, 4, 79, 100
9, 182348, Note_off_c, 4, 79, 0
9, 182352, Note_on_c, 4, 81, 100
9, 182396, Note_off_c, 4, 81, 0
9, 182400, Note_on_c, 4, 79, 100
9, 182444, Note_off_c, 4, 79, 0
9, 182448, Note_on_c, 4, 81, 100
9, 182492, Note_off_c, 4, 81, 0
9, 182496, Note_on_c, 4, 79, 100
9, 182540, Note_off_c, 4, 79, 0
9, 182544, Note_on_c, 4, 81, 100
9, 182588, Note_off_c, 4, 81, 0
9, 182592, Note_on_c, 4, 79, 100
9, 182636, Note_off_c, 4, 79, 0
9, 182640, Note_on_c, 4, 81, 100
9, 182684, Note_off_c, 4, 81, 0
9, 182688, Note_on_c, 4, 79, 100
9, 182732, Note_off_c, 4, 79, 0
9, 182736, Note_on_c, 4, 81, 100
9, 182780, Note_off_c, 4, 81, 0
9, 182784, Note_on_c, 4, 77, 100
9, 182848, Note_off_c, 4, 77, 0
9, 182880, Note_on_c, 4, 81, 100
9, 182944, Note_off_c, 4, 81, 0
9, 182976, Note_on_c, 4, 81, 100
9, 183040, Note_off_c, 4, 81, 0
9, 183072, Note_on_c, 4, 81, 100
9, 183136, Note_off_c, 4, 81, 0
9, 183168, Note_on_c, 4, 79, 100
9, 183232, Note_off_c, 4, 79, 0
9, 183264, Note_on_c, 4, 81, 100
9, 183328, Note_off_c, 4, 81, 0
9, 183360, Note_on_c, 4, 77, 100
9, 183424, Note_off_c, 4, 77, 0
9, 183456, Note_on_c, 4, 81, 100
9, 183520, Note_off_c, 4, 81, 0
9, 183552, Note_on_c, 4, 76, 100
9, 183644, Note_off_c, 4, 76, 0
9, 183648, Note_on_c, 4, 81, 100
9, 183740, Note_off_c, 4, 81, 0
9, 183744, Note_on_c, 4, 79, 100
9, 183836, Note_off_c, 4, 79, 0
9, 183840, Note_on_c, 4, 77, 100
9, 183932, Note_off_c, 4, 77, 0
9, 183936, Note_on_c, 4, 76, 100
9, 184028, Note_off_c, 4, 76, 0
9, 184032, Note_on_c, 4, 74, 100
9, 184124, Note_off_c, 4, 74, 0
9, 184128, Note_on_c, 4, 73, 100
9, 184220, Note_off_c, 4, 73, 0
9, 184224, Note_on_c, 4, 71, 100
9, 184316, Note_off_c, 4, 71, 0
9, 184320, Note_on_c, 4, 69, 100
9, 184384, Note_off_c, 4, 69, 0
9, 184416, Note_on_c, 4, 69, 100
9, 184480, Note_off_c, 4, 69, 0
9, 184512, Note_on_c, 4, 69, 100
9, 184576, Note_off_c, 4, 69, 0
9, 184608, Note_on_c, 4, 69, 100
9, 184672, Note_off_c, 4, 69, 0
9, 184704, Note_on_c, 4, 67, 100
9, 184768, Note_off_c, 4, 67, 0
9, 184800, Note_on_c, 4, 69, 100
9, 184864, Note_off_c, 4, 69, 0
9, 184896, Note_on_c, 4, 65, 100
9, 184960, Note_off_c, 4, 65, 0
9, 184992, Note_on_c, 4, 69, 100
9, 185056, Note_off_c, 4, 69, 0
9, 185088, Note_on_c, 4, 64, 100
9, 185180, Note_off_c, 4, 64, 0
9, 185184, Note_on_c, 4, 69, 100
9, 185276, Note_off_c, 4, 69, 0
9, 185280, Note_on_c, 4, 67, 100
9, 185372, Note_off_c, 4, 67, 0
9, 185376, Note_on_c, 4, 65, 100
9, 185468, Note_off_c, 4, 65, 0
9, 185472, Note_on_c, 4, 64, 100
9, 185564, Note_off_c, 4, 64, 0
9, 185568, Note_on_c, 4, 62, 100
9, 185660, Note_off_c, 4, 62, 0
9, 185664, Note_on_c, 4, 61, 100
9, 185756, Note_off_c, 4, 61, 0
9, 185760, Note_on_c, 4, 59, 100
9, 185852, Note_off_c, 4, 59, 0
9, 185856, Note_on_c, 4, 57, 100
9, 185948, Note_off_c, 4, 57, 0
9, 185952, Note_on_c, 4, 62, 100
9, 186044, Note_off_c, 4, 62, 0
9, 186048, Note_on_c, 4, 64, 100
9, 186140, Note_off_c, 4, 64, 0
9, 186144, Note_on_c, 4, 65, 100
9, 186236, Note_off_c, 4, 65, 0
9, 186240, Note_on_c, 4, 67, 100
9, 186332, Note_off_c, 4, 67, 0
9, 186336, Note_on_c, 4, 64, 100
9, 186428, Note_off_c, 4, 64, 0
9, 186432, Note_on_c, 4, 65, 100
9, 186524, Note_off_c, 4, 65, 0
9, 186528, Note_on_c, 4, 62, 100
9, 186620, Note_off_c, 4, 62, 0
9, 186624, Note_on_c, 4, 57, 100
9, 186716, Note_off_c, 4, 57, 0
9, 186720, Note_on_c, 4, 62, 100
9, 186812, Note_off_c, 4, 62, 0
9, 186816, Note_on_c, 4, 64, 100
9, 186908, Note_off_c, 4, 64, 0
9, 186912, Note_on_c, 4, 65, 100
9, 187004, Note_off_c, 4, 65, 0
9, 187008, Note_on_c, 4, 67, 100
9, 187100, Note_off_c, 4, 67, 0
9, 187104, Note_on_c, 4, 64, 100
9, 187196, Note_off_c, 4, 64, 0
9, 187200, Note_on_c, 4, 65, 100
9, 187292, Note_off_c, 4, 65, 0
9, 187296, Note_on_c, 4, 62, 100
9, 187388, Note_off_c, 4, 62, 0
9, 187392, Note_on_c, 4, 64, 100
9, 187484, Note_off_c, 4, 64, 0
9, 187488, Note_on_c, 4, 69, 100
9, 187580, Note_off_c, 4, 69, 0
9, 187584, Note_on_c, 4, 71, 100
9, 187676, Note_off_c, 4, 71, 0
9, 187680, Note_on_c, 4, 72, 100
9, 187772, Note_off_c, 4, 72, 0
9, 187776, Note_on_c, 4, 74, 100
9, 187868, Note_off_c, 4, 74, 0
9, 187872, Note_on_c, 4, 71, 100
9, 187964, Note_off_c, 4, 71, 0
9, 187968, Note_on_c, 4, 72, 100
9, 188060, Note_off_c, 4, 72, 0
9, 188064, Note_on_c, 4, 69, 100
9, 188156, Note_off_c, 4, 69, 0
9, 188160, Note_on_c, 4, 64, 100
9, 188252, Note_off_c, 4, 64, 0
9, 188256, Note_on_c, 4, 69, 100
9, 188348, Note_off_c, 4, 69, 0
9, 188352, Note_on_c, 4, 71, 100
9, 188444, Note_off_c, 4, 71, 0
9, 188448, Note_on_c, 4, 72, 100
9, 188540, Note_off_c, 4, 72, 0
9, 188544, Note_on_c, 4, 74, 100
9, 188636, Note_off_c, 4, 74, 0
9, 188640, Note_on_c, 4, 71, 100
9, 188732, Note_off_c, 4, 71, 0
9, 188736, Note_on_c, 4, 72, 100
9, 188828, Note_off_c, 4, 72, 0
9, 188832, Note_on_c, 4, 69, 100
9, 188924, Note_off_c, 4, 69, 0
9, 188928, Note_on_c, 4, 62, 100
9, 189020, Note_off_c, 4, 62, 0
9, 189024, Note_on_c, 4, 74, 100
9, 189116, Note_off_c, 4, 74, 0
9, 189120, Note_on_c, 4, 76, 100
9, 189212, Note_off_c, 4, 76, 0
9, 189216, Note_on_c, 4, 77, 100
9, 189308, Note_off_c, 4, 77, 0
9, 189312, Note_on_c, 4, 79, 100
9, 189404, Note_off_c, 4, 79, 0
9, 189408, Note_on_c, 4, 76, 100
9, 189500, Note_off_c, 4, 76, 0
9, 189504, Note_on_c, 4, 77, 100
9, 189596, Note_off_c, 4, 77, 0
9, 189600, Note_on_c, 4, 74, 100
9, 189692, Note_off_c, 4, 74, 0
9, 189696, Note_on_c, 4, 62, 100
9, 189788, Note_off_c, 4, 62, 0
9, 189792, Note_on_c, 4, 74, 100
9, 189884, Note_off_c, 4, 74, 0
9, 189888, Note_on_c, 4, 76, 100
9, 189980, Note_off_c, 4, 76, 0
9, 189984, Note_on_c, 4, 77, 100
9, 190076, Note_off_c, 4, 77, 0
9, 190080, Note_on_c, 4, 79, 100
9, 190172, Note_off_c, 4, 79, 0
9, 190176, Note_on_c, 4, 76, 100
9, 190268, Note_off_c, 4, 76, 0
9, 190272, Note_on_c, 4, 77, 100
9, 190364, Note_off_c, 4, 77, 0
9, 190368, Note_on_c, 4, 74, 100
9, 190460, Note_off_c, 4, 74, 0
9, 190464, Note_on_c, 4, 73, 100
9, 190556, Note_off_c, 4, 73, 0
9, 190560, Note_on_c, 4, 76, 100
9, 190652, Note_off_c, 4, 76, 0
9, 190656, Note_on_c, 4, 77, 100
9, 190748, Note_off_c, 4, 77, 0
9, 190752, Note_on_c, 4, 79, 100
9, 190844, Note_off_c, 4, 79, 0
9, 190848, Note_on_c, 4, 81, 100
9, 190940, Note_off_c, 4, 81, 0
9, 190944, Note_on_c, 4, 77, 100
9, 191036, Note_off_c, 4, 77, 0
9, 191040, Note_on_c, 4, 79, 100
9, 191132, Note_off_c, 4, 79, 0
9, 191136, Note_on_c, 4, 76, 100
9, 191228, Note_off_c, 4, 76, 0
9, 191232, Note_on_c, 4, 73, 100
9, 191324, Note_off_c, 4, 73, 0
9, 191328, Note_on_c, 4, 76, 100
9, 191420, Note_off_c, 4, 76, 0
9, 191424, Note_on_c, 4, 77, 100
9, 191516, Note_off_c, 4, 77, 0
9, 191520, Note_on_c, 4, 79, 100
9, 191612, Note_off_c, 4, 79, 0
9, 191616, Note_on_c, 4, 81, 100
9, 191708, Note_off_c, 4, 81, 0
9, 191712, Note_on_c, 4, 77, 100
9, 191804, Note_off_c, 4, 77, 0
9, 191808, Note_on_c, 4, 79, 100
9, 191900, Note_off_c, 4, 79, 0
9, 191904, Note_on_c, 4, 76, 100
9, 191996, Note_off_c, 4, 76, 0
9, 192000, Note_on_c, 4, 77, 100
9, 192092, Note_off_c, 4, 77, 0
9, 192096, Note_on_c, 4, 74, 100
9, 192188, Note_off_c, 4, 74, 0
9, 192192, Note_on_c, 4, 77, 100
9, 192284, Note_off_c, 4, 77, 0
9, 192288, Note_on_c, 4, 81, 100
9, 192380, Note_off_c, 4, 81, 0
9, 192384, Note_on_c, 4, 86, 100
9, 192476, Note_off_c, 4, 86, 0
9, 192480, Note_on_c, 4, 74, 100
9, 192572, Note_off_c, 4, 74, 0
9, 192576, Note_on_c, 4, 77, 100
9, 192668, Note_off_c, 4, 77, 0
9, 192672, Note_on_c, 4, 81, 100
9, 192764, Note_off_c, 4, 81, 0
9, 192768, Note_on_c, 4, 86, 100
9, 192860, Note_off_c, 4, 86, 0
9, 192864, Note_on_c, 4, 74, 100
9, 192956, Note_off_c, 4, 74, 0
9, 192960, Note_on_c, 4, 78, 100
9, 193052, Note_off_c, 4, 78, 0
9, 193056, Note_on_c, 4, 81, 100
9, 193148, Note_off_c, 4, 81, 0
9, 193152, Note_on_c, 4, 86, 100
9, 193244, Note_off_c, 4, 86, 0
9, 193248, Note_on_c, 4, 74, 100
9, 193340, Note_off_c, 4, 74, 0
9, 193344, Note_on_c, 4, 78, 100
9, 193436, Note_off_c, 4, 78, 0
9, 193440, Note_on_c, 4, 81, 100
9, 193532, Note_off_c, 4, 81, 0
9, 193536, Note_on_c, 4, 86, 100
9, 193628, Note_off_c, 4, 86, 0
9, 193632, Note_on_c, 4, 74, 100
9, 193724, Note_off_c, 4, 74, 0
9, 193728, Note_on_c, 4, 79, 100
9, 193820, Note_off_c, 4, 79, 0
9, 193824, Note_on_c, 4, 82, 100
9, 193916, Note_off_c, 4, 82, 0
9, 193920, Note_on_c, 4, 86, 100
9, 194012, Note_off_c, 4, 86, 0
9, 194016, Note_on_c, 4, 74, 100
9, 194108, Note_off_c, 4, 74, 0
9, 194112, Note_on_c, 4, 79, 100
9, 194204, Note_off_c, 4, 79, 0
9, 194208, Note_on_c, 4, 82, 100
9, 194300, Note_off_c, 4, 82, 0
9, 194304, Note_on_c, 4, 86, 100
9, 194396, Note_off_c, 4, 86, 0
9, 194400, Note_on_c, 4, 74, 100
9, 194492, Note_off_c, 4, 74, 0
9, 194496, Note_on_c, 4, 77, 100
9, 194588, Note_off_c, 4, 77, 0
9, 194592, Note_on_c, 4, 83, 100
9, 194684, Note_off_c, 4, 83, 0
9, 194688, Note_on_c, 4, 86, 100
9, 194780, Note_off_c, 4, 86, 0
9, 194784, Note_on_c, 4, 83, 100
9, 194876, Note_off_c, 4, 83, 0
9, 194880, Note_on_c, 4, 77, 100
9, 194972, Note_off_c, 4, 77, 0
9, 194976, Note_on_c, 4, 74, 100
9, 195068, Note_off_c, 4, 74, 0
9, 195072, Note_on_c, 4, 75, 100
9, 195164, Note_off_c, 4, 75, 0
9, 195168, Note_on_c, 4, 72, 100
9, 195260, Note_off_c, 4, 72, 0
9, 195264, Note_on_c, 4, 75, 100
9, 195356, Note_off_c, 4, 75, 0
9, 195360, Note_on_c, 4, 79, 100
9, 195452, Note_off_c, 4, 79, 0
9, 195456, Note_on_c, 4, 84, 100
9, 195548, Note_off_c, 4, 84, 0
9, 195552, Note_on_c, 4, 72, 100
9, 195644, Note_off_c, 4, 72, 0
9, 195648, Note_on_c, 4, 75, 100
9, 195740, Note_off_c, 4, 75, 0
9, 195744, Note_on_c, 4, 79, 100
9, 195836, Note_off_c, 4, 79, 0
9, 195840, Note_on_c, 4, 84, 100
9, 195932, Note_off_c, 4, 84, 0
9, 195936, Note_on_c, 4, 72, 100
9, 196028, Note_off_c, 4, 72, 0
9, 196032, Note_on_c, 4, 76, 100
9, 196124, Note_off_c, 4, 76, 0
9, 196128, Note_on_c, 4, 79, 100
9, 196220, Note_off_c, 4, 79, 0
9, 196224, Note_on_c, 4, 84, 100
9, 196316, Note_off_c, 4, 84, 0
9, 196320, Note_on_c, 4, 72, 100
9, 196412, Note_off_c, 4, 72, 0
9, 196416, Note_on_c, 4, 76, 100
9, 196508, Note_off_c, 4, 76, 0
9, 196512, Note_on_c, 4, 79, 100
9, 196604, Note_off_c, 4, 79, 0
9, 196608, Note_on_c, 4, 84, 100
9, 196700, Note_off_c, 4, 84, 0
9, 196704, Note_on_c, 4, 72, 100
9, 196796, Note_off_c, 4, 72, 0
9, 196800, Note_on_c, 4, 77, 100
9, 196892, Note_off_c, 4, 77, 0
9, 196896, Note_on_c, 4, 81, 100
9, 196988, Note_off_c, 4, 81, 0
9, 196992, Note_on_c, 4, 84, 100
9, 197084, Note_off_c, 4, 84, 0
9, 197088, Note_on_c, 4, 72, 100
9, 197180, Note_off_c, 4, 72, 0
9, 197184, Note_on_c, 4, 77, 100
9, 197276, Note_off_c, 4, 77, 0
9, 197280, Note_on_c, 4, 81, 100
9, 197372, Note_off_c, 4, 81, 0
9, 197376, Note_on_c, 4, 84, 100
9, 197468, Note_off_c, 4, 84, 0
9, 197472, Note_on_c, 4, 72, 100
9, 197564, Note_off_c, 4, 72, 0
9, 197568, Note_on_c, 4, 75, 100
9, 197660, Note_off_c, 4, 75, 0
9, 197664, Note_on_c, 4, 81, 100
9, 197756, Note_off_c, 4, 81, 0
9, 197760, Note_on_c, 4, 84, 100
9, 197852, Note_off_c, 4, 84, 0
9, 197856, Note_on_c, 4, 81, 100
9, 197948, Note_off_c, 4, 81, 0
9, 197952, Note_on_c, 4, 75, 100
9, 198044, Note_off_c, 4, 75, 0
9, 198048, Note_on_c, 4, 72, 100
9, 198140, Note_off_c, 4, 72, 0
9, 198144, Note_on_c, 4, 74, 100
9, 198236, Note_off_c, 4, 74, 0
9, 198240, Note_on_c, 4, 70, 100
9, 198332, Note_off_c, 4, 70, 0
9, 198336, Note_on_c, 4, 74, 100
9, 198428, Note_off_c, 4, 74, 0
9, 198432, Note_on_c, 4, 77, 100
9, 198524, Note_off_c, 4, 77, 0
9, 198528, Note_on_c, 4, 82, 100
9, 198620, Note_off_c, 4, 82, 0
9, 198624, Note_on_c, 4, 70, 100
9, 198716, Note_off_c, 4, 70, 0
9, 198720, Note_on_c, 4, 74, 100
9, 198812, Note_off_c, 4, 74, 0
9, 198816, Note_on_c, 4, 77, 100
9, 198908, Note_off_c, 4, 77, 0
9, 198912, Note_on_c, 4, 82, 100
9, 199004, Note_off_c, 4, 82, 0
9, 199008, Note_on_c, 4, 70, 100
9, 199100, Note_off_c, 4, 70, 0
9, 199104, Note_on_c, 4, 74, 100
9, 199196, Note_off_c, 4, 74, 0
9, 199200, Note_on_c, 4, 77, 100
9, 199292, Note_off_c, 4, 77, 0
9, 199296, Note_on_c, 4, 82, 100
9, 199388, Note_off_c, 4, 82, 0
9, 199392, Note_on_c, 4, 70, 100
9, 199484, Note_off_c, 4, 70, 0
9, 199488, Note_on_c, 4, 74, 100
9, 199580, Note_off_c, 4, 74, 0
9, 199584, Note_on_c, 4, 77, 100
9, 199676, Note_off_c, 4, 77, 0
9, 199680, Note_on_c, 4, 82, 100
9, 199772, Note_off_c, 4, 82, 0
9, 199776, Note_on_c, 4, 70, 100
9, 199868, Note_off_c, 4, 70, 0
9, 199872, Note_on_c, 4, 75, 100
9, 199964, Note_off_c, 4, 75, 0
9, 199968, Note_on_c, 4, 79, 100
9, 200060, Note_off_c, 4, 79, 0
9, 200064, Note_on_c, 4, 82, 100
9, 200156, Note_off_c, 4, 82, 0
9, 200160, Note_on_c, 4, 70, 100
9, 200252, Note_off_c, 4, 70, 0
9, 200256, Note_on_c, 4, 75, 100
9, 200348, Note_off_c, 4, 75, 0
9, 200352, Note_on_c, 4, 79, 100
9, 200444, Note_off_c, 4, 79, 0
9, 200448, Note_on_c, 4, 82, 100
9, 200540, Note_off_c, 4, 82, 0
9, 200544, Note_on_c, 4, 70, 100
9, 200636, Note_off_c, 4, 70, 0
9, 200640, Note_on_c, 4, 75, 100
9, 200732, Note_off_c, 4, 75, 0
9, 200736, Note_on_c, 4, 79, 100
9, 200828, Note_off_c, 4, 79, 0
9, 200832, Note_on_c, 4, 82, 100
9, 200924, Note_off_c, 4, 82, 0
9, 200928, Note_on_c, 4, 79, 100
9, 201020, Note_off_c, 4, 79, 0
9, 201024, Note_on_c, 4, 75, 100
9, 201116, Note_off_c, 4, 75, 0
9, 201120, Note_on_c, 4, 79, 100
9, 201212, Note_off_c, 4, 79, 0
9, 201216, Note_on_c, 4, 73, 100
9, 201308, Note_off_c, 4, 73, 0
9, 201312, Note_on_c, 4, 69, 100
9, 201404, Note_off_c, 4, 69, 0
9, 201408, Note_on_c, 4, 73, 100
9, 201500, Note_off_c, 4, 73, 0
9, 201504, Note_on_c, 4, 76, 100
9, 201596, Note_off_c, 4, 76, 0
9, 201600, Note_on_c, 4, 81, 100
9, 201692, Note_off_c, 4, 81, 0
9, 201696, Note_on_c, 4, 69, 100
9, 201788, Note_off_c, 4, 69, 0
9, 201792, Note_on_c, 4, 73, 100
9, 201884, Note_off_c, 4, 73, 0
9, 201888, Note_on_c, 4, 76, 100
9, 201980, Note_off_c, 4, 76, 0
9, 201984, Note_on_c, 4, 81, 100
9, 202076, Note_off_c, 4, 81, 0
9, 202080, Note_on_c, 4, 69, 100
9, 202172, Note_off_c, 4, 69, 0
9, 202176, Note_on_c, 4, 74, 100
9, 202268, Note_off_c, 4, 74, 0
9, 202272, Note_on_c, 4, 77, 100
9, 202364, Note_off_c, 4, 77, 0
9, 202368, Note_on_c, 4, 81, 100
9, 202460, Note_off_c, 4, 81, 0
9, 202464, Note_on_c, 4, 77, 100
9, 202556, Note_off_c, 4, 77, 0
9, 202560, Note_on_c, 4, 74, 100
9, 202652, Note_off_c, 4, 74, 0
9, 202656, Note_on_c, 4, 77, 100
9, 202748, Note_off_c, 4, 77, 0
9, 202752, Note_on_c, 4, 71, 100
9, 202844, Note_off_c, 4, 71, 0
9, 202848, Note_on_c, 4, 67, 100
9, 202940, Note_off_c, 4, 67, 0
9, 202944, Note_on_c, 4, 71, 100
9, 203036, Note_off_c, 4, 71, 0
9, 203040, Note_on_c, 4, 74, 100
9, 203132, Note_off_c, 4, 74, 0
9, 203136, Note_on_c, 4, 79, 100
9, 203228, Note_off_c, 4, 79, 0
9, 203232, Note_on_c, 4, 67, 100
9, 203324, Note_off_c, 4, 67, 0
9, 203328, Note_on_c, 4, 71, 100
9, 203420, Note_off_c, 4, 71, 0
9, 203424, Note_on_c, 4, 74, 100
9, 203516, Note_off_c, 4, 74, 0
9, 203520, Note_on_c, 4, 79, 100
9, 203612, Note_off_c, 4, 79, 0
9, 203616, Note_on_c, 4, 67, 100
9, 203708, Note_off_c, 4, 67, 0
9, 203712, Note_on_c, 4, 72, 100
9, 203804, Note_off_c, 4, 72, 0
9, 203808, Note_on_c, 4, 75, 100
9, 203900, Note_off_c, 4, 75, 0
9, 203904, Note_on_c, 4, 79, 100
9, 203996, Note_off_c, 4, 79, 0
9, 204000, Note_on_c, 4, 75, 100
9, 204092, Note_off_c, 4, 75, 0
9, 204096, Note_on_c, 4, 72, 100
9, 204188, Note_off_c, 4, 72, 0
9, 204192, Note_on_c, 4, 75, 100
9, 204284, Note_off_c, 4, 75, 0
9, 204288, Note_on_c, 4, 69, 100
9, 204380, Note_off_c, 4, 69, 0
9, 204384, Note_on_c, 4, 65, 100
9, 204476, Note_off_c, 4, 65, 0
9, 204480, Note_on_c, 4, 69, 100
9, 204572, Note_off_c, 4, 69, 0
9, 204576, Note_on_c, 4, 72, 100
9, 204668, Note_off_c, 4, 72, 0
9, 204672, Note_on_c, 4, 77, 100
9, 204764, Note_off_c, 4, 77, 0
9, 204768, Note_on_c, 4, 65, 100
9, 204860, Note_off_c, 4, 65, 0
9, 204864, Note_on_c, 4, 69, 100
9, 204956, Note_off_c, 4, 69, 0
9, 204960, Note_on_c, 4, 72, 100
9, 205052, Note_off_c, 4, 72, 0
9, 205056, Note_on_c, 4, 77, 100
9, 205148, Note_off_c, 4, 77, 0
9, 205152, Note_on_c, 4, 65, 100
9, 205244, Note_off_c, 4, 65, 0
9, 205248, Note_on_c, 4, 70, 100
9, 205340, Note_off_c, 4, 70, 0
9, 205344, Note_on_c, 4, 74, 100
9, 205436, Note_off_c, 4, 74, 0
9, 205440, Note_on_c, 4, 77, 100
9, 205532, Note_off_c, 4, 77, 0
9, 205536, Note_on_c, 4, 74, 100
9, 205628, Note_off_c, 4, 74, 0
9, 205632, Note_on_c, 4, 70, 100
9, 205724, Note_off_c, 4, 70, 0
9, 205728, Note_on_c, 4, 74, 100
9, 205820, Note_off_c, 4, 74, 0
9, 205824, Note_on_c, 4, 67, 100
9, 205916, Note_off_c, 4, 67, 0
9, 205920, Note_on_c, 4, 63, 100
9, 206012, Note_off_c, 4, 63, 0
9, 206016, Note_on_c, 4, 67, 100
9, 206108, Note_off_c, 4, 67, 0
9, 206112, Note_on_c, 4, 70, 100
9, 206204, Note_off_c, 4, 70, 0
9, 206208, Note_on_c, 4, 75, 100
9, 206300, Note_off_c, 4, 75, 0
9, 206304, Note_on_c, 4, 72, 100
9, 206396, Note_off_c, 4, 72, 0
9, 206400, Note_on_c, 4, 69, 100
9, 206492, Note_off_c, 4, 69, 0
9, 206496, Note_on_c, 4, 72, 100
9, 206588, Note_off_c, 4, 72, 0
9, 206592, Note_on_c, 4, 65, 100
9, 206684, Note_off_c, 4, 65, 0
9, 206688, Note_on_c, 4, 62, 100
9, 206780, Note_off_c, 4, 62, 0
9, 206784, Note_on_c, 4, 65, 100
9, 206876, Note_off_c, 4, 65, 0
9, 206880, Note_on_c, 4, 69, 100
9, 206972, Note_off_c, 4, 69, 0
9, 206976, Note_on_c, 4, 74, 100
9, 207068, Note_off_c, 4, 74, 0
9, 207072, Note_on_c, 4, 70, 100
9, 207164, Note_off_c, 4, 70, 0
9, 207168, Note_on_c, 4, 67, 100
9, 207260, Note_off_c, 4, 67, 0
9, 207264, Note_on_c, 4, 70, 100
9, 207356, Note_off_c, 4, 70, 0
9, 207360, Note_on_c, 4, 63, 100
9, 207452, Note_off_c, 4, 63, 0
9, 207456, Note_on_c, 4, 60, 100
9, 207548, Note_off_c, 4, 60, 0
9, 207552, Note_on_c, 4, 63, 100
9, 207644, Note_off_c, 4, 63, 0
9, 207648, Note_on_c, 4, 67, 100
9, 207740, Note_off_c, 4, 67, 0
9, 207744, Note_on_c, 4, 72, 100
9, 207836, Note_off_c, 4, 72, 0
9, 207840, Note_on_c, 4, 69, 100
9, 207932, Note_off_c, 4, 69, 0
9, 207936, Note_on_c, 4, 65, 100
9, 208028, Note_off_c, 4, 65, 0
9, 208032, Note_on_c, 4, 69, 100
9, 208124, Note_off_c, 4, 69, 0
9, 208128, Note_on_c, 4, 62, 100
9, 208220, Note_off_c, 4, 62, 0
9, 208224, Note_on_c, 4, 58, 100
9, 208316, Note_off_c, 4, 58, 0
9, 208320, Note_on_c, 4, 60, 100
9, 208412, Note_off_c, 4, 60, 0
9, 208416, Note_on_c, 4, 62, 100
9, 208508, Note_off_c, 4, 62, 0
9, 208512, Note_on_c, 4, 63, 100
9, 208604, Note_off_c, 4, 63, 0
9, 208608, Note_on_c, 4, 65, 100
9, 208700, Note_off_c, 4, 65, 0
9, 208704, Note_on_c, 4, 67, 100
9, 208796, Note_off_c, 4, 67, 0
9, 208800, Note_on_c, 4, 69, 100
9, 208892, Note_off_c, 4, 69, 0
9, 208896, Note_on_c, 4, 70, 100
9, 208988, Note_off_c, 4, 70, 0
9, 208992, Note_on_c, 4, 65, 100
9, 209084, Note_off_c, 4, 65, 0
9, 209088, Note_on_c, 4, 67, 100
9, 209180, Note_off_c, 4, 67, 0
9, 209184, Note_on_c, 4, 69, 100
9, 209276, Note_off_c, 4, 69, 0
9, 209280, Note_on_c, 4, 70, 100
9, 209372, Note_off_c, 4, 70, 0
9, 209376, Note_on_c, 4, 72, 100
9, 209468, Note_off_c, 4, 72, 0
9, 209472, Note_on_c, 4, 74, 100
9, 209564, Note_off_c, 4, 74, 0
9, 209568, Note_on_c, 4, 75, 100
9, 209660, Note_off_c, 4, 75, 0
9, 209664, Note_on_c, 4, 77, 100
9, 209852, Note_off_c, 4, 77, 0
9, 209856, Note_on_c, 4, 62, 100
9, 209856, Note_on_c, 4, 70, 100
9, 210044, Note_off_c, 4, 62, 0
9, 210044, Note_off_c, 4, 70, 0
9, 210048, Note_on_c, 4, 60, 100
9, 210048, Note_on_c, 4, 65, 100
9, 210236, Note_off_c, 4, 60, 0
9, 210236, Note_off_c, 4, 65, 0
9, 210240, Note_on_c, 4, 69, 100
9, 210428, Note_off_c, 4, 69, 0
9, 210432, Note_on_c, 4, 60, 100
9, 210476, Note_off_c, 4, 60, 0
9, 210480, Note_on_c, 4, 58, 100
9, 210524, Note_off_c, 4, 58, 0
9, 210528, Note_on_c, 4, 60, 100
9, 210572, Note_off_c, 4, 60, 0
9, 210576, Note_on_c, 4, 58, 100
9, 210620, Note_off_c, 4, 58, 0
9, 210624, Note_on_c, 4, 60, 100
9, 210668, Note_off_c, 4, 60, 0
9, 210672, Note_on_c, 4, 58, 100
9, 210716, Note_off_c, 4, 58, 0
9, 210720, Note_on_c, 4, 60, 100
9, 210764, Note_off_c, 4, 60, 0
9, 210768, Note_on_c, 4, 58, 100
9, 210812, Note_off_c, 4, 58, 0
9, 210816, Note_on_c, 4, 60, 100
9, 210860, Note_off_c, 4, 60, 0
9, 210864, Note_on_c, 4, 58, 100
9, 210908, Note_off_c, 4, 58, 0
9, 210912, Note_on_c, 4, 60, 100
9, 210956, Note_off_c, 4, 60, 0
9, 210960, Note_on_c, 4, 58, 100
9, 211004, Note_off_c, 4, 58, 0
9, 211008, Note_on_c, 4, 60, 100
9, 211052, Note_off_c, 4, 60, 0
9, 211056, Note_on_c, 4, 58, 100
9, 211100, Note_off_c, 4, 58, 0
9, 211104, Note_on_c, 4, 60, 100
9, 211148, Note_off_c, 4, 60, 0
9, 211152, Note_on_c, 4, 58, 100
9, 211196, Note_off_c, 4, 58, 0
9, 211200, Note_on_c, 4, 60, 100
9, 211244, Note_off_c, 4, 60, 0
9, 211248, Note_on_c, 4, 58, 100
9, 211292, Note_off_c, 4, 58, 0
9, 211296, Note_on_c, 4, 60, 100
9, 211340, Note_off_c, 4, 60, 0
9, 211344, Note_on_c, 4, 58, 100
9, 211388, Note_off_c, 4, 58, 0
9, 211392, Note_on_c, 4, 60, 100
9, 211436, Note_off_c, 4, 60, 0
9, 211440, Note_on_c, 4, 58, 100
9, 211484, Note_off_c, 4, 58, 0
9, 211488, Note_on_c, 4, 60, 100
9, 211532, Note_off_c, 4, 60, 0
9, 211536, Note_on_c, 4, 58, 100
9, 211580, Note_off_c, 4, 58, 0
9, 211584, Note_on_c, 4, 60, 100
9, 211628, Note_off_c, 4, 60, 0
9, 211632, Note_on_c, 4, 58, 100
9, 211676, Note_off_c, 4, 58, 0
9, 211680, Note_on_c, 4, 60, 100
9, 211724, Note_off_c, 4, 60, 0
9, 211728, Note_on_c, 4, 58, 100
9, 211772, Note_off_c, 4, 58, 0
9, 211776, Note_on_c, 4, 60, 100
9, 211820, Note_off_c, 4, 60, 0
9, 211824, Note_on_c, 4, 58, 100
9, 211868, Note_off_c, 4, 58, 0
9, 211872, Note_on_c, 4, 60, 100
9, 211916, Note_off_c, 4, 60, 0
9, 211920, Note_on_c, 4, 58, 100
9, 211964, Note_off_c, 4, 58, 0
9, 211968, Note_on_c, 4, 60, 100
9, 212012, Note_off_c, 4, 60, 0
9, 212016, Note_on_c, 4, 58, 100
9, 212060, Note_off_c, 4, 58, 0
9, 212064, Note_on_c, 4, 60, 100
9, 212108, Note_off_c, 4, 60, 0
9, 212112, Note_on_c, 4, 58, 100
9, 212156, Note_off_c, 4, 58, 0
9, 212160, Note_on_c, 4, 60, 100
9, 212204, Note_off_c, 4, 60, 0
9, 212208, Note_on_c, 4, 58, 100
9, 212252, Note_off_c, 4, 58, 0
9, 212256, Note_on_c, 4, 60, 100
9, 212300, Note_off_c, 4, 60, 0
9, 212304, Note_on_c, 4, 58, 100
9, 212348, Note_off_c, 4, 58, 0
9, 212352, Note_on_c, 4, 60, 100
9, 212396, Note_off_c, 4, 60, 0
9, 212400, Note_on_c, 4, 58, 100
9, 212444, Note_off_c, 4, 58, 0
9, 212448, Note_on_c, 4, 60, 100
9, 212492, Note_off_c, 4, 60, 0
9, 212496, Note_on_c, 4, 58, 100
9, 212540, Note_off_c, 4, 58, 0
9, 212544, Note_on_c, 4, 60, 100
9, 212588, Note_off_c, 4, 60, 0
9, 212592, Note_on_c, 4, 58, 100
9, 212636, Note_off_c, 4, 58, 0
9, 212640, Note_on_c, 4, 60, 100
9, 212684, Note_off_c, 4, 60, 0
9, 212688, Note_on_c, 4, 58, 100
9, 212732, Note_off_c, 4, 58, 0
9, 212736, Note_on_c, 4, 60, 100
9, 212780, Note_off_c, 4, 60, 0
9, 212784, Note_on_c, 4, 58, 100
9, 212828, Note_off_c, 4, 58, 0
9, 212832, Note_on_c, 4, 60, 100
9, 212876, Note_off_c, 4, 60, 0
9, 212880, Note_on_c, 4, 58, 100
9, 212924, Note_off_c, 4, 58, 0
9, 212928, Note_on_c, 4, 60, 100
9, 212972, Note_off_c, 4, 60, 0
9, 212976, Note_on_c, 4, 58, 100
9, 213020, Note_off_c, 4, 58, 0
9, 213024, Note_on_c, 4, 60, 100
9, 213068, Note_off_c, 4, 60, 0
9, 213072, Note_on_c, 4, 58, 100
9, 213116, Note_off_c, 4, 58, 0
9, 213120, Note_on_c, 4, 60, 100
9, 213164, Note_off_c, 4, 60, 0
9, 213168, Note_on_c, 4, 58, 100
9, 213212, Note_off_c, 4, 58, 0
9, 213216, Note_on_c, 4, 60, 100
9, 213260, Note_off_c, 4, 60, 0
9, 213264, Note_on_c, 4, 58, 100
9, 213308, Note_off_c, 4, 58, 0
9, 213312, Note_on_c, 4, 60, 100
9, 213356, Note_off_c, 4, 60, 0
9, 213360, Note_on_c, 4, 58, 100
9, 213404, Note_off_c, 4, 58, 0
9, 213408, Note_on_c, 4, 60, 100
9, 213452, Note_off_c, 4, 60, 0
9, 213456, Note_on_c, 4, 58, 100
9, 213568, Note_off_c, 4, 58, 0
9, 213600, Note_on_c, 4, 45, 100
9, 213692, Note_off_c, 4, 45, 0
9, 213696, Note_on_c, 4, 46, 100
9, 213788, Note_off_c, 4, 46, 0
9, 213792, Note_on_c, 4, 48, 100
9, 213884, Note_off_c, 4, 48, 0
9, 213888, Note_on_c, 4, 50, 100
9, 213980, Note_off_c, 4, 50, 0
9, 213984, Note_on_c, 4, 51, 100
9, 214076, Note_off_c, 4, 51, 0
9, 214080, Note_on_c, 4, 53, 100
9, 214172, Note_off_c, 4, 53, 0
9, 214176, Note_on_c, 4, 55, 100
9, 214268, Note_off_c, 4, 55, 0
9, 214272, Note_on_c, 4, 56, 100
9, 214364, Note_off_c, 4, 56, 0
9, 214368, Note_on_c, 4, 59, 100
9, 214460, Note_off_c, 4, 59, 0
9, 214464, Note_on_c, 4, 60, 100
9, 214556, Note_off_c, 4, 60, 0
9, 214560, Note_on_c, 4, 62, 100
9, 214652, Note_off_c, 4, 62, 0
9, 214656, Note_on_c, 4, 60, 100
9, 214748, Note_off_c, 4, 60, 0
9, 214752, Note_on_c, 4, 59, 100
9, 214844, Note_off_c, 4, 59, 0
9, 214848, Note_on_c, 4, 57, 100
9, 214940, Note_off_c, 4, 57, 0
9, 214944, Note_on_c, 4, 55, 100
9, 215036, Note_off_c, 4, 55, 0
9, 215040, Note_on_c, 4, 63, 100
9, 215132, Note_off_c, 4, 63, 0
9, 215136, Note_on_c, 4, 60, 100
9, 215228, Note_off_c, 4, 60, 0
9, 215232, Note_on_c, 4, 59, 100
9, 215324, Note_off_c, 4, 59, 0
9, 215328, Note_on_c, 4, 60, 100
9, 215420, Note_off_c, 4, 60, 0
9, 215424, Note_on_c, 4, 55, 100
9, 215516, Note_off_c, 4, 55, 0
9, 215520, Note_on_c, 4, 60, 100
9, 215612, Note_off_c, 4, 60, 0
9, 215616, Note_on_c, 4, 51, 100
9, 215708, Note_off_c, 4, 51, 0
9, 215712, Note_on_c, 4, 55, 100
9, 215804, Note_off_c, 4, 55, 0
9, 215808, Note_on_c, 4, 48, 100
9, 215900, Note_off_c, 4, 48, 0
9, 215904, Note_on_c, 4, 47, 100
9, 215996, Note_off_c, 4, 47, 0
9, 216000, Note_on_c, 4, 48, 100
9, 216092, Note_off_c, 4, 48, 0
9, 216096, Note_on_c, 4, 50, 100
9, 216188, Note_off_c, 4, 50, 0
9, 216192, Note_on_c, 4, 51, 100
9, 216284, Note_off_c, 4, 51, 0
9, 216288, Note_on_c, 4, 53, 100
9, 216380, Note_off_c, 4, 53, 0
9, 216384, Note_on_c, 4, 55, 100
9, 216476, Note_off_c, 4, 55, 0
9, 216480, Note_on_c, 4, 57, 100
9, 216572, Note_off_c, 4, 57, 0
9, 216576, Note_on_c, 4, 58, 100
9, 216668, Note_off_c, 4, 58, 0
9, 216672, Note_on_c, 4, 61, 100
9, 216764, Note_off_c, 4, 61, 0
9, 216768, Note_on_c, 4, 62, 100
9, 216860, Note_off_c, 4, 62, 0
9, 216864, Note_on_c, 4, 64, 100
9, 216956, Note_off_c, 4, 64, 0
9, 216960, Note_on_c, 4, 62, 100
9, 217052, Note_off_c, 4, 62, 0
9, 217056, Note_on_c, 4, 61, 100
9, 217148, Note_off_c, 4, 61, 0
9, 217152, Note_on_c, 4, 59, 100
9, 217244, Note_off_c, 4, 59, 0
9, 217248, Note_on_c, 4, 57, 100
9, 217340, Note_off_c, 4, 57, 0
9, 217344, Note_on_c, 4, 65, 100
9, 217436, Note_off_c, 4, 65, 0
9, 217440, Note_on_c, 4, 62, 100
9, 217532, Note_off_c, 4, 62, 0
9, 217536, Note_on_c, 4, 61, 100
9, 217628, Note_off_c, 4, 61, 0
9, 217632, Note_on_c, 4, 62, 100
9, 217724, Note_off_c, 4, 62, 0
9, 217728, Note_on_c, 4, 57, 100
9, 217820, Note_off_c, 4, 57, 0
9, 217824, Note_on_c, 4, 62, 100
9, 217868, Note_off_c, 4, 62, 0
9, 217872, Note_on_c, 4, 57, 100
9, 217916, Note_off_c, 4, 57, 0
9, 217920, Note_on_c, 4, 53, 100
9, 218012, Note_off_c, 4, 53, 0
9, 218016, Note_on_c, 4, 57, 100
9, 218060, Note_off_c, 4, 57, 0
9, 218064, Note_on_c, 4, 53, 100
9, 218108, Note_off_c, 4, 53, 0
9, 218112, Note_on_c, 4, 50, 100
9, 218204, Note_off_c, 4, 50, 0
9, 218208, Note_on_c, 4, 52, 100
9, 218300, Note_off_c, 4, 52, 0
9, 218304, Note_on_c, 4, 53, 100
9, 218396, Note_off_c, 4, 53, 0
9, 218400, Note_on_c, 4, 55, 100
9, 218492, Note_off_c, 4, 55, 0
9, 218496, Note_on_c, 4, 57, 100
9, 218588, Note_off_c, 4, 57, 0
9, 218592, Note_on_c, 4, 58, 100
9, 218684, Note_off_c, 4, 58, 0
9, 218688, Note_on_c, 4, 60, 100
9, 218780, Note_off_c, 4, 60, 0
9, 218784, Note_on_c, 4, 62, 100
9, 218876, Note_off_c, 4, 62, 0
9, 218880, Note_on_c, 4, 63, 100
9, 218972, Note_off_c, 4, 63, 0
9, 218976, Note_on_c, 4, 66, 100
9, 219068, Note_off_c, 4, 66, 0
9, 219072, Note_on_c, 4, 67, 100
9, 219164, Note_off_c, 4, 67, 0
9, 219168, Note_on_c, 4, 69, 100
9, 219260, Note_off_c, 4, 69, 0
9, 219264, Note_on_c, 4, 67, 100
9, 219356, Note_off_c, 4, 67, 0
9, 219360, Note_on_c, 4, 66, 100
9, 219452, Note_off_c, 4, 66, 0
9, 219456, Note_on_c, 4, 64, 100
9, 219548, Note_off_c, 4, 64, 0
9, 219552, Note_on_c, 4, 62, 100
9, 219616, Note_off_c, 4, 62, 0
9, 219648, Note_on_c, 4, 70, 100
9, 219740, Note_off_c, 4, 70, 0
9, 219744, Note_on_c, 4, 67, 100
9, 219836, Note_off_c, 4, 67, 0
9, 219840, Note_on_c, 4, 69, 100
9, 219932, Note_off_c, 4, 69, 0
9, 219936, Note_on_c, 4, 70, 100
9, 220028, Note_off_c, 4, 70, 0
9, 220032, Note_on_c, 4, 69, 100
9, 220124, Note_off_c, 4, 69, 0
9, 220128, Note_on_c, 4, 67, 100
9, 220220, Note_off_c, 4, 67, 0
9, 220224, Note_on_c, 4, 66, 100
9, 220316, Note_off_c, 4, 66, 0
9, 220320, Note_on_c, 4, 64, 100
9, 220384, Note_off_c, 4, 64, 0
9, 220416, Note_on_c, 4, 72, 100
9, 220508, Note_off_c, 4, 72, 0
9, 220512, Note_on_c, 4, 69, 100
9, 220604, Note_off_c, 4, 69, 0
9, 220608, Note_on_c, 4, 70, 100
9, 220700, Note_off_c, 4, 70, 0
9, 220704, Note_on_c, 4, 72, 100
9, 220796, Note_off_c, 4, 72, 0
9, 220800, Note_on_c, 4, 70, 100
9, 220892, Note_off_c, 4, 70, 0
9, 220896, Note_on_c, 4, 69, 100
9, 220988, Note_off_c, 4, 69, 0
9, 220992, Note_on_c, 4, 67, 100
9, 221084, Note_off_c, 4, 67, 0
9, 221088, Note_on_c, 4, 66, 100
9, 221152, Note_off_c, 4, 66, 0
9, 221184, Note_on_c, 4, 74, 100
9, 221276, Note_off_c, 4, 74, 0
9, 221280, Note_on_c, 4, 70, 100
9, 221372, Note_off_c, 4, 70, 0
9, 221376, Note_on_c, 4, 72, 100
9, 221468, Note_off_c, 4, 72, 0
9, 221472, Note_on_c, 4, 74, 100
9, 221564, Note_off_c, 4, 74, 0
9, 221568, Note_on_c, 4, 72, 100
9, 221660, Note_off_c, 4, 72, 0
9, 221664, Note_on_c, 4, 70, 100
9, 221756, Note_off_c, 4, 70, 0
9, 221760, Note_on_c, 4, 69, 100
9, 221852, Note_off_c, 4, 69, 0
9, 221856, Note_on_c, 4, 67, 100
9, 221920, Note_off_c, 4, 67, 0
9, 221952, Note_on_c, 4, 76, 100
9, 222044, Note_off_c, 4, 76, 0
9, 222048, Note_on_c, 4, 73, 100
9, 222140, Note_off_c, 4, 73, 0
9, 222144, Note_on_c, 4, 74, 100
9, 222236, Note_off_c, 4, 74, 0
9, 222240, Note_on_c, 4, 76, 100
9, 222332, Note_off_c, 4, 76, 0
9, 222336, Note_on_c, 4, 74, 100
9, 222428, Note_off_c, 4, 74, 0
9, 222432, Note_on_c, 4, 73, 100
9, 222524, Note_off_c, 4, 73, 0
9, 222528, Note_on_c, 4, 71, 100
9, 222620, Note_off_c, 4, 71, 0
9, 222624, Note_on_c, 4, 69, 100
9, 222688, Note_off_c, 4, 69, 0
9, 222720, Note_on_c, 4, 77, 100
9, 222812, Note_off_c, 4, 77, 0
9, 222816, Note_on_c, 4, 74, 100
9, 222908, Note_off_c, 4, 74, 0
9, 222912, Note_on_c, 4, 72, 100
9, 223004, Note_off_c, 4, 72, 0
9, 223008, Note_on_c, 4, 74, 100
9, 223100, Note_off_c, 4, 74, 0
9, 223104, Note_on_c, 4, 70, 100
9, 223196, Note_off_c, 4, 70, 0
9, 223200, Note_on_c, 4, 74, 100
9, 223292, Note_off_c, 4, 74, 0
9, 223296, Note_on_c, 4, 69, 100
9, 223388, Note_off_c, 4, 69, 0
9, 223392, Note_on_c, 4, 74, 100
9, 223484, Note_off_c, 4, 74, 0
9, 223488, Note_on_c, 4, 67, 100
9, 223580, Note_off_c, 4, 67, 0
9, 223584, Note_on_c, 4, 74, 100
9, 223676, Note_off_c, 4, 74, 0
9, 223680, Note_on_c, 4, 76, 100
9, 223772, Note_off_c, 4, 76, 0
9, 223776, Note_on_c, 4, 77, 100
9, 223868, Note_off_c, 4, 77, 0
9, 223872, Note_on_c, 4, 76, 100
9, 223964, Note_off_c, 4, 76, 0
9, 223968, Note_on_c, 4, 74, 100
9, 224060, Note_off_c, 4, 74, 0
9, 224064, Note_on_c, 4, 72, 100
9, 224156, Note_off_c, 4, 72, 0
9, 224160, Note_on_c, 4, 71, 100
9, 224252, Note_off_c, 4, 71, 0
9, 224256, Note_on_c, 4, 76, 100
9, 224348, Note_off_c, 4, 76, 0
9, 224352, Note_on_c, 4, 72, 100
9, 224444, Note_off_c, 4, 72, 0
9, 224448, Note_on_c, 4, 70, 100
9, 224540, Note_off_c, 4, 70, 0
9, 224544, Note_on_c, 4, 72, 100
9, 224636, Note_off_c, 4, 72, 0
9, 224640, Note_on_c, 4, 69, 100
9, 224732, Note_off_c, 4, 69, 0
9, 224736, Note_on_c, 4, 72, 100
9, 224828, Note_off_c, 4, 72, 0
9, 224832, Note_on_c, 4, 67, 100
9, 224924, Note_off_c, 4, 67, 0
9, 224928, Note_on_c, 4, 72, 100
9, 225020, Note_off_c, 4, 72, 0
9, 225024, Note_on_c, 4, 65, 100
9, 225116, Note_off_c, 4, 65, 0
9, 225120, Note_on_c, 4, 72, 100
9, 225212, Note_off_c, 4, 72, 0
9, 225216, Note_on_c, 4, 74, 100
9, 225308, Note_off_c, 4, 74, 0
9, 225312, Note_on_c, 4, 75, 100
9, 225404, Note_off_c, 4, 75, 0
9, 225408, Note_on_c, 4, 74, 100
9, 225500, Note_off_c, 4, 74, 0
9, 225504, Note_on_c, 4, 72, 100
9, 225596, Note_off_c, 4, 72, 0
9, 225600, Note_on_c, 4, 70, 100
9, 225692, Note_off_c, 4, 70, 0
9, 225696, Note_on_c, 4, 69, 100
9, 225788, Note_off_c, 4, 69, 0
9, 225792, Note_on_c, 4, 74, 100
9, 225884, Note_off_c, 4, 74, 0
9, 225888, Note_on_c, 4, 70, 100
9, 225980, Note_off_c, 4, 70, 0
9, 225984, Note_on_c, 4, 69, 100
9, 226076, Note_off_c, 4, 69, 0
9, 226080, Note_on_c, 4, 70, 100
9, 226172, Note_off_c, 4, 70, 0
9, 226176, Note_on_c, 4, 67, 100
9, 226268, Note_off_c, 4, 67, 0
9, 226272, Note_on_c, 4, 70, 100
9, 226364, Note_off_c, 4, 70, 0
9, 226368, Note_on_c, 4, 65, 100
9, 226460, Note_off_c, 4, 65, 0
9, 226464, Note_on_c, 4, 70, 100
9, 226556, Note_off_c, 4, 70, 0
9, 226560, Note_on_c, 4, 64, 100
9, 226652, Note_off_c, 4, 64, 0
9, 226656, Note_on_c, 4, 67, 100
9, 226748, Note_off_c, 4, 67, 0
9, 226752, Note_on_c, 4, 65, 100
9, 226844, Note_off_c, 4, 65, 0
9, 226848, Note_on_c, 4, 67, 100
9, 226940, Note_off_c, 4, 67, 0
9, 226944, Note_on_c, 4, 64, 100
9, 227036, Note_off_c, 4, 64, 0
9, 227040, Note_on_c, 4, 67, 100
9, 227132, Note_off_c, 4, 67, 0
9, 227136, Note_on_c, 4, 62, 100
9, 227228, Note_off_c, 4, 62, 0
9, 227232, Note_on_c, 4, 67, 100
9, 227324, Note_off_c, 4, 67, 0
9, 227328, Note_on_c, 4, 61, 100
9, 227420, Note_off_c, 4, 61, 0
9, 227424, Note_on_c, 4, 67, 100
9, 227516, Note_off_c, 4, 67, 0
9, 227520, Note_on_c, 4, 62, 100
9, 227612, Note_off_c, 4, 62, 0
9, 227616, Note_on_c, 4, 67, 100
9, 227708, Note_off_c, 4, 67, 0
9, 227712, Note_on_c, 4, 61, 100
9, 227804, Note_off_c, 4, 61, 0
9, 227808, Note_on_c, 4, 67, 100
9, 227900, Note_off_c, 4, 67, 0
9, 227904, Note_on_c, 4, 59, 100
9, 227996, Note_off_c, 4, 59, 0
9, 228000, Note_on_c, 4, 67, 100
9, 228092, Note_off_c, 4, 67, 0
9, 228096, Note_on_c, 4, 57, 100
9, 228188, Note_off_c, 4, 57, 0
9, 228192, Note_on_c, 4, 67, 100
9, 228284, Note_off_c, 4, 67, 0
9, 228288, Note_on_c, 4, 61, 100
9, 228380, Note_off_c, 4, 61, 0
9, 228384, Note_on_c, 4, 67, 100
9, 228476, Note_off_c, 4, 67, 0
9, 228480, Note_on_c, 4, 64, 100
9, 228572, Note_off_c, 4, 64, 0
9, 228576, Note_on_c, 4, 67, 100
9, 228668, Note_off_c, 4, 67, 0
9, 228672, Note_on_c, 4, 61, 100
9, 228764, Note_off_c, 4, 61, 0
9, 228768, Note_on_c, 4, 64, 100
9, 228860, Note_off_c, 4, 64, 0
9, 228864, Note_on_c, 4, 62, 100
9, 228864, Note_on_c, 4, 69, 100
9, 228956, Note_off_c, 4, 62, 0
9, 228956, Note_off_c, 4, 69, 0
9, 229056, Note_on_c, 4, 62, 100
9, 229056, Note_on_c, 4, 65, 100
9, 229148, Note_off_c, 4, 62, 0
9, 229148, Note_off_c, 4, 65, 0
9, 229248, Note_on_c, 4, 61, 100
9, 229248, Note_on_c, 4, 64, 100
9, 229340, Note_off_c, 4, 61, 0
9, 229340, Note_off_c, 4, 64, 0
9, 229440, Note_on_c, 4, 62, 100
9, 229440, Note_on_c, 4, 65, 100
9, 229532, Note_off_c, 4, 62, 0
9, 229532, Note_off_c, 4, 65, 0
9, 229632, Note_on_c, 4, 63, 100
9, 229632, Note_on_c, 4, 67, 100
9, 229724, Note_off_c, 4, 63, 0
9, 229724, Note_off_c, 4, 67, 0
9, 229824, Note_on_c, 4, 62, 100
9, 229824, Note_on_c, 4, 70, 100
9, 229916, Note_off_c, 4, 62, 0
9, 229916, Note_off_c, 4, 70, 0
9, 230016, Note_on_c, 4, 61, 100
9, 230016, Note_on_c, 4, 69, 100
9, 230108, Note_off_c, 4, 61, 0
9, 230108, Note_off_c, 4, 69, 0
9, 230208, Note_on_c, 4, 64, 100
9, 230208, Note_on_c, 4, 67, 100
9, 230300, Note_off_c, 4, 64, 0
9, 230300, Note_off_c, 4, 67, 0
9, 230400, Note_on_c, 4, 62, 100
9, 230400, Note_on_c, 4, 65, 100
9, 230492, Note_off_c, 4, 62, 0
9, 230492, Note_off_c, 4, 65, 0
9, 230592, Note_on_c, 4, 62, 100
9, 230592, Note_on_c, 4, 67, 100
9, 230684, Note_off_c, 4, 62, 0
9, 230684, Note_off_c, 4, 67, 0
9, 230784, Note_on_c, 4, 61, 100
9, 230784, Note_on_c, 4, 69, 100
9, 230876, Note_off_c, 4, 61, 0
9, 230876, Note_off_c, 4, 69, 0
9, 230976, Note_on_c, 4, 62, 100
9, 230976, Note_on_c, 4, 65, 100
9, 231068, Note_off_c, 4, 62, 0
9, 231068, Note_off_c, 4, 65, 0
9, 231168, Note_on_c, 4, 63, 100
9, 231168, Note_on_c, 4, 70, 100
9, 231260, Note_off_c, 4, 63, 0
9, 231260, Note_off_c, 4, 70, 0
9, 231360, Note_on_c, 4, 62, 100
9, 231360, Note_on_c, 4, 67, 100
9, 231452, Note_off_c, 4, 62, 0
9, 231452, Note_off_c, 4, 67, 0
9, 231552, Note_on_c, 4, 61, 100
9, 231552, Note_on_c, 4, 64, 100
9, 231644, Note_off_c, 4, 61, 0
9, 231644, Note_off_c, 4, 64, 0
9, 231744, Note_on_c, 4, 61, 100
9, 231744, Note_on_c, 4, 69, 100
9, 231836, Note_off_c, 4, 61, 0
9, 231836, Note_off_c, 4, 69, 0
9, 231936, Note_on_c, 4, 62, 100
9, 231936, Note_on_c, 4, 65, 100
9, 232028, Note_off_c, 4, 62, 0
9, 232028, Note_off_c, 4, 65, 0
9, 232128, Note_on_c, 4, 62, 100
9, 232128, Note_on_c, 4, 65, 100
9, 232220, Note_off_c, 4, 62, 0
9, 232220, Note_off_c, 4, 65, 0
9, 232320, Note_on_c, 4, 61, 100
9, 232320, Note_on_c, 4, 64, 100
9, 232412, Note_off_c, 4, 61, 0
9, 232412, Note_off_c, 4, 64, 0
9, 232512, Note_on_c, 4, 62, 100
9, 232512, Note_on_c, 4, 65, 100
9, 232604, Note_off_c, 4, 62, 0
9, 232604, Note_off_c, 4, 65, 0
9, 232704, Note_on_c, 4, 64, 100
9, 232704, Note_on_c, 4, 67, 100
9, 232796, Note_off_c, 4, 64, 0
9, 232796, Note_off_c, 4, 67, 0
9, 232896, Note_on_c, 4, 62, 100
9, 232896, Note_on_c, 4, 65, 100
9, 232988, Note_off_c, 4, 62, 0
9, 232988, Note_off_c, 4, 65, 0
9, 233088, Note_on_c, 4, 64, 100
9, 233088, Note_on_c, 4, 67, 100
9, 233180, Note_off_c, 4, 64, 0
9, 233180, Note_off_c, 4, 67, 0
9, 233280, Note_on_c, 4, 61, 100
9, 233280, Note_on_c, 4, 64, 100
9, 233372, Note_off_c, 4, 61, 0
9, 233372, Note_off_c, 4, 64, 0
9, 233472, Note_on_c, 4, 62, 100
9, 233472, Note_on_c, 4, 65, 100
9, 233564, Note_off_c, 4, 62, 0
9, 233564, Note_off_c, 4, 65, 0
9, 233664, Note_on_c, 4, 62, 100
9, 233664, Note_on_c, 4, 65, 100
9, 233756, Note_off_c, 4, 62, 0
9, 233756, Note_off_c, 4, 65, 0
9, 233856, Note_on_c, 4, 61, 100
9, 233856, Note_on_c, 4, 64, 100
9, 233948, Note_off_c, 4, 61, 0
9, 233948, Note_off_c, 4, 64, 0
9, 234048, Note_on_c, 4, 62, 100
9, 234048, Note_on_c, 4, 65, 100
9, 234140, Note_off_c, 4, 62, 0
9, 234140, Note_off_c, 4, 65, 0
9, 234240, Note_on_c, 4, 64, 100
9, 234240, Note_on_c, 4, 67, 100
9, 234332, Note_off_c, 4, 64, 0
9, 234332, Note_off_c, 4, 67, 0
9, 234432, Note_on_c, 4, 62, 100
9, 234432, Note_on_c, 4, 65, 100
9, 234524, Note_off_c, 4, 62, 0
9, 234524, Note_off_c, 4, 65, 0
9, 234624, Note_on_c, 4, 64, 100
9, 234624, Note_on_c, 4, 67, 100
9, 234716, Note_off_c, 4, 64, 0
9, 234716, Note_off_c, 4, 67, 0
9, 234816, Note_on_c, 4, 61, 100
9, 234816, Note_on_c, 4, 64, 100
9, 234908, Note_off_c, 4, 61, 0
9, 234908, Note_off_c, 4, 64, 0
9, 235008, Note_on_c, 4, 62, 100
9, 235008, Note_on_c, 4, 65, 100
9, 235100, Note_off_c, 4, 62, 0
9, 235100, Note_off_c, 4, 65, 0
9, 235200, Note_on_c, 4, 65, 100
9, 235200, Note_on_c, 4, 69, 100
9, 235292, Note_off_c, 4, 65, 0
9, 235292, Note_off_c, 4, 69, 0
9, 235392, Note_on_c, 4, 67, 100
9, 235392, Note_on_c, 4, 70, 100
9, 235484, Note_off_c, 4, 67, 0
9, 235484, Note_off_c, 4, 70, 0
9, 235584, Note_on_c, 4, 64, 100
9, 235584, Note_on_c, 4, 67, 100
9, 235676, Note_off_c, 4, 64, 0
9, 235676, Note_off_c, 4, 67, 0
9, 235776, Note_on_c, 4, 65, 100
9, 235776, Note_on_c, 4, 69, 100
9, 235868, Note_off_c, 4, 65, 0
9, 235868, Note_off_c, 4, 69, 0
9, 235968, Note_on_c, 4, 62, 100
9, 235968, Note_on_c, 4, 65, 100
9, 236060, Note_off_c, 4, 62, 0
9, 236060, Note_off_c, 4, 65, 0
9, 236160, Note_on_c, 4, 64, 100
9, 236160, Note_on_c, 4, 67, 100
9, 236252, Note_off_c, 4, 64, 0
9, 236252, Note_off_c, 4, 67, 0
9, 236352, Note_on_c, 4, 61, 100
9, 236352, Note_on_c, 4, 64, 100
9, 236444, Note_off_c, 4, 61, 0
9, 236444, Note_off_c, 4, 64, 0
9, 236544, Note_on_c, 4, 62, 100
9, 236544, Note_on_c, 4, 65, 100
9, 236636, Note_off_c, 4, 62, 0
9, 236636, Note_off_c, 4, 65, 0
9, 236736, Note_on_c, 4, 65, 100
9, 236736, Note_on_c, 4, 69, 100
9, 236828, Note_off_c, 4, 65, 0
9, 236828, Note_off_c, 4, 69, 0
9, 236928, Note_on_c, 4, 67, 100
9, 236928, Note_on_c, 4, 71, 100
9, 237020, Note_off_c, 4, 67, 0
9, 237020, Note_off_c, 4, 71, 0
9, 237120, Note_on_c, 4, 64, 100
9, 237120, Note_on_c, 4, 73, 100
9, 237212, Note_off_c, 4, 64, 0
9, 237212, Note_off_c, 4, 73, 0
9, 237312, Note_on_c, 4, 65, 100
9, 237312, Note_on_c, 4, 74, 100
9, 237404, Note_off_c, 4, 65, 0
9, 237404, Note_off_c, 4, 74, 0
9, 237504, Note_on_c, 4, 57, 100
9, 237504, Note_on_c, 4, 65, 100
9, 237596, Note_off_c, 4, 57, 0
9, 237596, Note_off_c, 4, 65, 0
9, 237696, Note_on_c, 4, 59, 100
9, 237696, Note_on_c, 4, 67, 100
9, 237788, Note_off_c, 4, 59, 0
9, 237788, Note_off_c, 4, 67, 0
9, 237888, Note_on_c, 4, 61, 100
9, 237888, Note_on_c, 4, 64, 100
9, 237980, Note_off_c, 4, 61, 0
9, 237980, Note_off_c, 4, 64, 0
9, 238080, Note_on_c, 4, 62, 100
9, 238080, Note_on_c, 4, 65, 100
9, 238172, Note_off_c, 4, 62, 0
9, 238172, Note_off_c, 4, 65, 0
9, 238272, Note_on_c, 4, 62, 100
9, 238272, Note_on_c, 4, 65, 100
9, 238364, Note_off_c, 4, 62, 0
9, 238364, Note_off_c, 4, 65, 0
9, 238464, Note_on_c, 4, 64, 100
9, 238464, Note_on_c, 4, 67, 100
9, 238556, Note_off_c, 4, 64, 0
9, 238556, Note_off_c, 4, 67, 0
9, 238656, Note_on_c, 4, 65, 100
9, 238656, Note_on_c, 4, 69, 100
9, 238748, Note_off_c, 4, 65, 0
9, 238748, Note_off_c, 4, 69, 0
9, 238848, Note_on_c, 4, 67, 100
9, 238848, Note_on_c, 4, 71, 100
9, 238940, Note_off_c, 4, 67, 0
9, 238940, Note_off_c, 4, 71, 0
9, 239040, Note_on_c, 4, 69, 100
9, 239040, Note_on_c, 4, 73, 100
9, 239132, Note_off_c, 4, 69, 0
9, 239132, Note_off_c, 4, 73, 0
9, 239232, Note_on_c, 4, 71, 100
9, 239232, Note_on_c, 4, 74, 100
9, 239324, Note_off_c, 4, 71, 0
9, 239324, Note_off_c, 4, 74, 0
9, 239424, Note_on_c, 4, 73, 100
9, 239424, Note_on_c, 4, 76, 100
9, 239516, Note_off_c, 4, 73, 0
9, 239516, Note_off_c, 4, 76, 0
9, 239616, Note_on_c, 4, 74, 100
9, 239616, Note_on_c, 4, 77, 100
9, 239708, Note_off_c, 4, 74, 0
9, 239708, Note_off_c, 4, 77, 0
9, 239808, Note_on_c, 4, 74, 100
9, 239808, Note_on_c, 4, 77, 100
9, 239900, Note_off_c, 4, 74, 0
9, 239900, Note_off_c, 4, 77, 0
9, 240000, Note_on_c, 4, 81, 100
9, 240000, Note_on_c, 4, 72, 100
9, 240092, Note_off_c, 4, 81, 0
9, 240092, Note_off_c, 4, 72, 0
9, 240192, Note_on_c, 4, 81, 100
9, 240192, Note_on_c, 4, 72, 100
9, 240284, Note_off_c, 4, 81, 0
9, 240284, Note_off_c, 4, 72, 0
9, 240384, Note_on_c, 4, 71, 100
9, 240384, Note_on_c, 4, 81, 100
9, 240476, Note_off_c, 4, 71, 0
9, 240476, Note_off_c, 4, 81, 0
9, 240576, Note_on_c, 4, 71, 100
9, 240576, Note_on_c, 4, 81, 100
9, 240668, Note_off_c, 4, 71, 0
9, 240668, Note_off_c, 4, 81, 0
9, 240768, Note_on_c, 4, 70, 100
9, 240768, Note_on_c, 4, 79, 100
9, 240860, Note_off_c, 4, 70, 0
9, 240860, Note_off_c, 4, 79, 0
9, 240960, Note_on_c, 4, 70, 100
9, 240960, Note_on_c, 4, 79, 100
9, 241052, Note_off_c, 4, 70, 0
9, 241052, Note_off_c, 4, 79, 0
9, 241152, Note_on_c, 4, 69, 100
9, 241152, Note_on_c, 4, 79, 100
9, 241244, Note_off_c, 4, 69, 0
9, 241244, Note_off_c, 4, 79, 0
9, 241344, Note_on_c, 4, 69, 100
9, 241344, Note_on_c, 4, 79, 100
9, 241436, Note_off_c, 4, 69, 0
9, 241436, Note_off_c, 4, 79, 0
9, 241536, Note_on_c, 4, 69, 100
9, 241536, Note_on_c, 4, 77, 100
9, 241628, Note_off_c, 4, 69, 0
9, 241628, Note_off_c, 4, 77, 0
9, 241728, Note_on_c, 4, 69, 100
9, 241728, Note_on_c, 4, 77, 100
9, 241820, Note_off_c, 4, 69, 0
9, 241820, Note_off_c, 4, 77, 0
9, 241920, Note_on_c, 4, 68, 100
9, 241920, Note_on_c, 4, 77, 100
9, 242012, Note_off_c, 4, 68, 0
9, 242012, Note_off_c, 4, 77, 0
9, 242112, Note_on_c, 4, 68, 100
9, 242112, Note_on_c, 4, 77, 100
9, 242204, Note_off_c, 4, 68, 0
9, 242204, Note_off_c, 4, 77, 0
9, 242304, Note_on_c, 4, 67, 100
9, 242304, Note_on_c, 4, 76, 100
9, 242396, Note_off_c, 4, 67, 0
9, 242396, Note_off_c, 4, 76, 0
9, 242496, Note_on_c, 4, 67, 100
9, 242496, Note_on_c, 4, 76, 100
9, 242588, Note_off_c, 4, 67, 0
9, 242588, Note_off_c, 4, 76, 0
9, 242688, Note_on_c, 4, 66, 100
9, 242688, Note_on_c, 4, 76, 100
9, 242780, Note_off_c, 4, 66, 0
9, 242780, Note_off_c, 4, 76, 0
9, 242880, Note_on_c, 4, 66, 100
9, 242880, Note_on_c, 4, 76, 100
9, 242972, Note_off_c, 4, 66, 0
9, 242972, Note_off_c, 4, 76, 0
9, 243072, Note_on_c, 4, 65, 100
9, 243072, Note_on_c, 4, 74, 100
9, 243164, Note_off_c, 4, 65, 0
9, 243164, Note_off_c, 4, 74, 0
9, 243264, Note_on_c, 4, 65, 100
9, 243264, Note_on_c, 4, 74, 100
9, 243356, Note_off_c, 4, 65, 0
9, 243356, Note_off_c, 4, 74, 0
9, 243456, Note_on_c, 4, 64, 100
9, 243456, Note_on_c, 4, 74, 100
9, 243548, Note_off_c, 4, 64, 0
9, 243548, Note_off_c, 4, 74, 0
9, 243648, Note_on_c, 4, 64, 100
9, 243648, Note_on_c, 4, 74, 100
9, 243740, Note_off_c, 4, 64, 0
9, 243740, Note_off_c, 4, 74, 0
9, 243840, Note_on_c, 4, 63, 100
9, 243840, Note_on_c, 4, 72, 100
9, 243932, Note_off_c, 4, 63, 0
9, 243932, Note_off_c, 4, 72, 0
9, 244032, Note_on_c, 4, 63, 100
9, 244032, Note_on_c, 4, 72, 100
9, 244124, Note_off_c, 4, 63, 0
9, 244124, Note_off_c, 4, 72, 0
9, 244224, Note_on_c, 4, 62, 100
9, 244224, Note_on_c, 4, 72, 100
9, 244316, Note_off_c, 4, 62, 0
9, 244316, Note_off_c, 4, 72, 0
9, 244416, Note_on_c, 4, 62, 100
9, 244416, Note_on_c, 4, 72, 100
9, 244508, Note_off_c, 4, 62, 0
9, 244508, Note_off_c, 4, 72, 0
9, 244608, Note_on_c, 4, 67, 100
9, 244608, Note_on_c, 4, 70, 100
9, 244700, Note_off_c, 4, 67, 0
9, 244700, Note_off_c, 4, 70, 0
9, 244800, Note_on_c, 4, 67, 100
9, 244800, Note_on_c, 4, 70, 100
9, 244892, Note_off_c, 4, 67, 0
9, 244892, Note_off_c, 4, 70, 0
9, 244992, Note_on_c, 4, 67, 100
9, 244992, Note_on_c, 4, 69, 100
9, 245084, Note_off_c, 4, 67, 0
9, 245084, Note_off_c, 4, 69, 0
9, 245184, Note_on_c, 4, 67, 100
9, 245184, Note_on_c, 4, 69, 100
9, 245276, Note_off_c, 4, 67, 0
9, 245276, Note_off_c, 4, 69, 0
9, 245376, Note_on_c, 4, 65, 100
9, 245376, Note_on_c, 4, 74, 100
9, 245468, Note_off_c, 4, 65, 0
9, 245468, Note_off_c, 4, 74, 0
9, 245568, Note_on_c, 4, 65, 100
9, 245568, Note_on_c, 4, 74, 100
9, 245660, Note_off_c, 4, 65, 0
9, 245660, Note_off_c, 4, 74, 0
9, 245760, Note_on_c, 4, 64, 100
9, 245760, Note_on_c, 4, 74, 100
9, 245852, Note_off_c, 4, 64, 0
9, 245852, Note_off_c, 4, 74, 0
9, 245952, Note_on_c, 4, 64, 100
9, 245952, Note_on_c, 4, 74, 100
9, 246044, Note_off_c, 4, 64, 0
9, 246044, Note_off_c, 4, 74, 0
9, 246144, Note_on_c, 4, 69, 100
9, 246144, Note_on_c, 4, 72, 100
9, 246236, Note_off_c, 4, 69, 0
9, 246236, Note_off_c, 4, 72, 0
9, 246336, Note_on_c, 4, 69, 100
9, 246336, Note_on_c, 4, 72, 100
9, 246428, Note_off_c, 4, 69, 0
9, 246428, Note_off_c, 4, 72, 0
9, 246528, Note_on_c, 4, 69, 100
9, 246528, Note_on_c, 4, 70, 100
9, 246620, Note_off_c, 4, 69, 0
9, 246620, Note_off_c, 4, 70, 0
9, 246720, Note_on_c, 4, 69, 100
9, 246720, Note_on_c, 4, 70, 100
9, 246812, Note_off_c, 4, 69, 0
9, 246812, Note_off_c, 4, 70, 0
9, 246912, Note_on_c, 4, 67, 100
9, 246912, Note_on_c, 4, 70, 100
9, 247004, Note_off_c, 4, 67, 0
9, 247004, Note_off_c, 4, 70, 0
9, 247104, Note_on_c, 4, 67, 100
9, 247104, Note_on_c, 4, 70, 100
9, 247196, Note_off_c, 4, 67, 0
9, 247196, Note_off_c, 4, 70, 0
9, 247296, Note_on_c, 4, 67, 100
9, 247296, Note_on_c, 4, 69, 100
9, 247388, Note_off_c, 4, 67, 0
9, 247388, Note_off_c, 4, 69, 0
9, 247488, Note_on_c, 4, 67, 100
9, 247488, Note_on_c, 4, 69, 100
9, 247580, Note_off_c, 4, 67, 0
9, 247580, Note_off_c, 4, 69, 0
9, 247680, Note_on_c, 4, 65, 100
9, 247680, Note_on_c, 4, 69, 100
9, 247772, Note_off_c, 4, 65, 0
9, 247772, Note_off_c, 4, 69, 0
9, 247872, Note_on_c, 4, 65, 100
9, 247872, Note_on_c, 4, 69, 100
9, 247964, Note_off_c, 4, 65, 0
9, 247964, Note_off_c, 4, 69, 0
9, 248064, Note_on_c, 4, 65, 100
9, 248064, Note_on_c, 4, 67, 100
9, 248156, Note_off_c, 4, 65, 0
9, 248156, Note_off_c, 4, 67, 0
9, 248256, Note_on_c, 4, 65, 100
9, 248256, Note_on_c, 4, 67, 100
9, 248348, Note_off_c, 4, 65, 0
9, 248348, Note_off_c, 4, 67, 0
9, 248448, Note_on_c, 4, 64, 100
9, 248448, Note_on_c, 4, 67, 100
9, 248540, Note_off_c, 4, 64, 0
9, 248540, Note_off_c, 4, 67, 0
9, 248640, Note_on_c, 4, 64, 100
9, 248640, Note_on_c, 4, 67, 100
9, 248732, Note_off_c, 4, 64, 0
9, 248732, Note_off_c, 4, 67, 0
9, 248832, Note_on_c, 4, 64, 100
9, 248832, Note_on_c, 4, 65, 100
9, 248924, Note_off_c, 4, 64, 0
9, 248924, Note_off_c, 4, 65, 0
9, 249024, Note_on_c, 4, 64, 100
9, 249024, Note_on_c, 4, 65, 100
9, 249116, Note_off_c, 4, 64, 0
9, 249116, Note_off_c, 4, 65, 0
9, 249216, Note_on_c, 4, 62, 100
9, 249216, Note_on_c, 4, 65, 100
9, 249308, Note_off_c, 4, 62, 0
9, 249308, Note_off_c, 4, 65, 0
9, 249408, Note_on_c, 4, 62, 100
9, 249408, Note_on_c, 4, 65, 100
9, 249500, Note_off_c, 4, 62, 0
9, 249500, Note_off_c, 4, 65, 0
9, 249600, Note_on_c, 4, 62, 100
9, 249600, Note_on_c, 4, 64, 100
9, 249692, Note_off_c, 4, 62, 0
9, 249692, Note_off_c, 4, 64, 0
9, 249792, Note_on_c, 4, 62, 100
9, 249792, Note_on_c, 4, 64, 100
9, 249884, Note_off_c, 4, 62, 0
9, 249884, Note_off_c, 4, 64, 0
9, 249984, Note_on_c, 4, 61, 100
9, 249984, Note_on_c, 4, 64, 100
9, 250076, Note_off_c, 4, 61, 0
9, 250076, Note_off_c, 4, 64, 0
9, 250176, Note_on_c, 4, 61, 100
9, 250176, Note_on_c, 4, 64, 100
9, 250268, Note_off_c, 4, 61, 0
9, 250268, Note_off_c, 4, 64, 0
9, 250368, Note_on_c, 4, 60, 100
9, 250368, Note_on_c, 4, 66, 100
9, 250460, Note_off_c, 4, 60, 0
9, 250460, Note_off_c, 4, 66, 0
9, 250560, Note_on_c, 4, 60, 100
9, 250560, Note_on_c, 4, 66, 100
9, 250652, Note_off_c, 4, 60, 0
9, 250652, Note_off_c, 4, 66, 0
9, 250752, Note_on_c, 4, 59, 100
9, 250752, Note_on_c, 4, 67, 100
9, 250844, Note_off_c, 4, 59, 0
9, 250844, Note_off_c, 4, 67, 0
9, 250944, Note_on_c, 4, 59, 100
9, 250944, Note_on_c, 4, 67, 100
9, 251036, Note_off_c, 4, 59, 0
9, 251036, Note_off_c, 4, 67, 0
9, 251136, Note_on_c, 4, 58, 100
9, 251136, Note_on_c, 4, 64, 100
9, 251228, Note_off_c, 4, 58, 0
9, 251228, Note_off_c, 4, 64, 0
9, 251328, Note_on_c, 4, 58, 100
9, 251328, Note_on_c, 4, 64, 100
9, 251420, Note_off_c, 4, 58, 0
9, 251420, Note_off_c, 4, 64, 0
9, 251520, Note_on_c, 4, 57, 100
9, 251520, Note_on_c, 4, 65, 100
9, 251612, Note_off_c, 4, 57, 0
9, 251612, Note_off_c, 4, 65, 0
9, 251712, Note_on_c, 4, 57, 100
9, 251712, Note_on_c, 4, 65, 100
9, 251804, Note_off_c, 4, 57, 0
9, 251804, Note_off_c, 4, 65, 0
9, 251904, Note_on_c, 4, 56, 100
9, 251904, Note_on_c, 4, 62, 100
9, 251996, Note_off_c, 4, 56, 0
9, 251996, Note_off_c, 4, 62, 0
9, 252096, Note_on_c, 4, 56, 100
9, 252096, Note_on_c, 4, 62, 100
9, 252188, Note_off_c, 4, 56, 0
9, 252188, Note_off_c, 4, 62, 0
9, 252288, Note_on_c, 4, 55, 100
9, 252288, Note_on_c, 4, 63, 100
9, 252380, Note_off_c, 4, 55, 0
9, 252380, Note_off_c, 4, 63, 0
9, 252480, Note_on_c, 4, 55, 100
9, 252480, Note_on_c, 4, 63, 100
9, 252572, Note_off_c, 4, 55, 0
9, 252572, Note_off_c, 4, 63, 0
9, 252672, Note_on_c, 4, 55, 100
9, 252672, Note_on_c, 4, 61, 100
9, 252764, Note_off_c, 4, 55, 0
9, 252764, Note_off_c, 4, 61, 0
9, 252864, Note_on_c, 4, 55, 100
9, 252864, Note_on_c, 4, 61, 100
9, 252956, Note_off_c, 4, 55, 0
9, 252956, Note_off_c, 4, 61, 0
9, 253056, Note_on_c, 4, 53, 100
9, 253056, Note_on_c, 4, 62, 100
9, 253148, Note_off_c, 4, 53, 0
9, 253148, Note_off_c, 4, 62, 0
9, 253248, Note_on_c, 4, 53, 100
9, 253248, Note_on_c, 4, 62, 100
9, 253340, Note_off_c, 4, 53, 0
9, 253340, Note_off_c, 4, 62, 0
9, 259680, Note_on_c, 4, 64, 100
9, 259724, Note_off_c, 4, 64, 0
9, 259728, Note_on_c, 4, 65, 100
9, 259772, Note_off_c, 4, 65, 0
9, 259776, Note_on_c, 4, 71, 100
9, 259820, Note_off_c, 4, 71, 0
9, 259824, Note_on_c, 4, 65, 100
9, 259868, Note_off_c, 4, 65, 0
9, 259872, Note_on_c, 4, 64, 100
9, 259916, Note_off_c, 4, 64, 0
9, 260064, Note_on_c, 4, 64, 100
9, 260108, Note_off_c, 4, 64, 0
9, 260112, Note_on_c, 4, 65, 100
9, 260156, Note_off_c, 4, 65, 0
9, 260160, Note_on_c, 4, 71, 100
9, 260204, Note_off_c, 4, 71, 0
9, 260208, Note_on_c, 4, 65, 100
9, 260252, Note_off_c, 4, 65, 0
9, 260256, Note_on_c, 4, 64, 100
9, 260300, Note_off_c, 4, 64, 0
9, 260448, Note_on_c, 4, 59, 100
9, 260492, Note_off_c, 4, 59, 0
9, 260496, Note_on_c, 4, 64, 100
9, 260540, Note_off_c, 4, 64, 0
9, 260544, Note_on_c, 4, 71, 100
9, 260588, Note_off_c, 4, 71, 0
9, 260592, Note_on_c, 4, 64, 100
9, 260636, Note_off_c, 4, 64, 0
9, 260640, Note_on_c, 4, 59, 100
9, 260684, Note_off_c, 4, 59, 0
9, 260832, Note_on_c, 4, 59, 100
9, 260876, Note_off_c, 4, 59, 0
9, 260880, Note_on_c, 4, 64, 100
9, 260924, Note_off_c, 4, 64, 0
9, 260928, Note_on_c, 4, 71, 100
9, 260972, Note_off_c, 4, 71, 0
9, 260976, Note_on_c, 4, 64, 100
9, 261020, Note_off_c, 4, 64, 0
9, 261024, Note_on_c, 4, 59, 100
9, 261068, Note_off_c, 4, 59, 0
9, 261216, Note_on_c, 4, 62, 100
9, 261260, Note_off_c, 4, 62, 0
9, 261264, Note_on_c, 4, 64, 100
9, 261308, Note_off_c, 4, 64, 0
9, 261312, Note_on_c, 4, 70, 100
9, 261356, Note_off_c, 4, 70, 0
9, 261360, Note_on_c, 4, 64, 100
9, 261404, Note_off_c, 4, 64, 0
9, 261408, Note_on_c, 4, 62, 100
9, 261452, Note_off_c, 4, 62, 0
9, 261600, Note_on_c, 4, 62, 100
9, 261644, Note_off_c, 4, 62, 0
9, 261648, Note_on_c, 4, 64, 100
9, 261692, Note_off_c, 4, 64, 0
9, 261696, Note_on_c, 4, 70, 100
9, 261740, Note_off_c, 4, 70, 0
9, 261744, Note_on_c, 4, 64, 100
9, 261788, Note_off_c, 4, 64, 0
9, 261792, Note_on_c, 4, 62, 100
9, 261836, Note_off_c, 4, 62, 0
9, 261984, Note_on_c, 4, 57, 100
9, 262028, Note_off_c, 4, 57, 0
9, 262032, Note_on_c, 4, 64, 100
9, 262076, Note_off_c, 4, 64, 0
9, 262080, Note_on_c, 4, 69, 100
9, 262124, Note_off_c, 4, 69, 0
9, 262128, Note_on_c, 4, 64, 100
9, 262172, Note_off_c, 4, 64, 0
9, 262176, Note_on_c, 4, 57, 100
9, 262220, Note_off_c, 4, 57, 0
9, 262368, Note_on_c, 4, 57, 100
9, 262412, Note_off_c, 4, 57, 0
9, 262416, Note_on_c, 4, 64, 100
9, 262460, Note_off_c, 4, 64, 0
9, 262464, Note_on_c, 4, 69, 100
9, 262508, Note_off_c, 4, 69, 0
9, 262512, Note_on_c, 4, 64, 100
9, 262556, Note_off_c, 4, 64, 0
9, 262560, Note_on_c, 4, 57, 100
9, 262604, Note_off_c, 4, 57, 0
9, 262752, Note_on_c, 4, 57, 100
9, 262796, Note_off_c, 4, 57, 0
9, 262800, Note_on_c, 4, 62, 100
9, 262844, Note_off_c, 4, 62, 0
9, 262848, Note_on_c, 4, 69, 100
9, 262892, Note_off_c, 4, 69, 0
9, 262896, Note_on_c, 4, 62, 100
9, 262940, Note_off_c, 4, 62, 0
9, 262944, Note_on_c, 4, 57, 100
9, 262988, Note_off_c, 4, 57, 0
9, 263136, Note_on_c, 4, 57, 100
9, 263180, Note_off_c, 4, 57, 0
9, 263184, Note_on_c, 4, 62, 100
9, 263228, Note_off_c, 4, 62, 0
9, 263232, Note_on_c, 4, 69, 100
9, 263276, Note_off_c, 4, 69, 0
9, 263280, Note_on_c, 4, 62, 100
9, 263324, Note_off_c, 4, 62, 0
9, 263328, Note_on_c, 4, 57, 100
9, 263372, Note_off_c, 4, 57, 0
9, 263520, Note_on_c, 4, 61, 100
9, 263564, Note_off_c, 4, 61, 0
9, 263568, Note_on_c, 4, 69, 100
9, 263612, Note_off_c, 4, 69, 0
9, 263616, Note_on_c, 4, 71, 100
9, 263660, Note_off_c, 4, 71, 0
9, 263664, Note_on_c, 4, 69, 100
9, 263708, Note_off_c, 4, 69, 0
9, 263712, Note_on_c, 4, 61, 100
9, 263756, Note_off_c, 4, 61, 0
9, 263904, Note_on_c, 4, 61, 100
9, 263948, Note_off_c, 4, 61, 0
9, 263952, Note_on_c, 4, 69, 100
9, 263996, Note_off_c, 4, 69, 0
9, 264000, Note_on_c, 4, 71, 100
9, 264044, Note_off_c, 4, 71, 0
9, 264048, Note_on_c, 4, 69, 100
9, 264092, Note_off_c, 4, 69, 0
9, 264096, Note_on_c, 4, 61, 100
9, 264140, Note_off_c, 4, 61, 0
9, 264288, Note_on_c, 4, 65, 100
9, 264332, Note_off_c, 4, 65, 0
9, 264336, Note_on_c, 4, 67, 100
9, 264380, Note_off_c, 4, 67, 0
9, 264384, Note_on_c, 4, 73, 100
9, 264428, Note_off_c, 4, 73, 0
9, 264432, Note_on_c, 4, 67, 100
9, 264476, Note_off_c, 4, 67, 0
9, 264480, Note_on_c, 4, 65, 100
9, 264524, Note_off_c, 4, 65, 0
9, 264672, Note_on_c, 4, 65, 100
9, 264716, Note_off_c, 4, 65, 0
9, 264720, Note_on_c, 4, 67, 100
9, 264764, Note_off_c, 4, 67, 0
9, 264768, Note_on_c, 4, 73, 100
9, 264812, Note_off_c, 4, 73, 0
9, 264816, Note_on_c, 4, 67, 100
9, 264860, Note_off_c, 4, 67, 0
9, 264864, Note_on_c, 4, 65, 100
9, 264908, Note_off_c, 4, 65, 0
9, 265056, Note_on_c, 4, 69, 100
9, 265100, Note_off_c, 4, 69, 0
9, 265104, Note_on_c, 4, 73, 100
9, 265148, Note_off_c, 4, 73, 0
9, 265152, Note_on_c, 4, 74, 100
9, 265196, Note_off_c, 4, 74, 0
9, 265200, Note_on_c, 4, 73, 100
9, 265244, Note_off_c, 4, 73, 0
9, 265248, Note_on_c, 4, 69, 100
9, 265292, Note_off_c, 4, 69, 0
9, 265440, Note_on_c, 4, 69, 100
9, 265484, Note_off_c, 4, 69, 0
9, 265488, Note_on_c, 4, 73, 100
9, 265532, Note_off_c, 4, 73, 0
9, 265536, Note_on_c, 4, 74, 100
9, 265580, Note_off_c, 4, 74, 0
9, 265584, Note_on_c, 4, 73, 100
9, 265628, Note_off_c, 4, 73, 0
9, 265632, Note_on_c, 4, 69, 100
9, 265676, Note_off_c, 4, 69, 0
9, 265824, Note_on_c, 4, 71, 100
9, 265868, Note_off_c, 4, 71, 0
9, 265872, Note_on_c, 4, 73, 100
9, 265916, Note_off_c, 4, 73, 0
9, 265920, Note_on_c, 4, 74, 100
9, 265964, Note_off_c, 4, 74, 0
9, 265968, Note_on_c, 4, 73, 100
9, 266012, Note_off_c, 4, 73, 0
9, 266016, Note_on_c, 4, 71, 100
9, 266060, Note_off_c, 4, 71, 0
9, 266208, Note_on_c, 4, 71, 100
9, 266252, Note_off_c, 4, 71, 0
9, 266256, Note_on_c, 4, 73, 100
9, 266300, Note_off_c, 4, 73, 0
9, 266304, Note_on_c, 4, 74, 100
9, 266348, Note_off_c, 4, 74, 0
9, 266352, Note_on_c, 4, 73, 100
9, 266396, Note_off_c, 4, 73, 0
9, 266400, Note_on_c, 4, 71, 100
9, 266444, Note_off_c, 4, 71, 0
9, 266592, Note_on_c, 4, 71, 100
9, 266636, Note_off_c, 4, 71, 0
9, 266640, Note_on_c, 4, 73, 100
9, 266684, Note_off_c, 4, 73, 0
9, 266688, Note_on_c, 4, 74, 100
9, 266732, Note_off_c, 4, 74, 0
9, 266736, Note_on_c, 4, 73, 100
9, 266780, Note_off_c, 4, 73, 0
9, 266784, Note_on_c, 4, 71, 100
9, 266828, Note_off_c, 4, 71, 0
9, 266976, Note_on_c, 4, 71, 100
9, 267020, Note_off_c, 4, 71, 0
9, 267024, Note_on_c, 4, 73, 100
9, 267068, Note_off_c, 4, 73, 0
9, 267072, Note_on_c, 4, 74, 100
9, 267116, Note_off_c, 4, 74, 0
9, 267120, Note_on_c, 4, 73, 100
9, 267164, Note_off_c, 4, 73, 0
9, 267168, Note_on_c, 4, 71, 100
9, 267212, Note_off_c, 4, 71, 0
9, 267360, Note_on_c, 4, 64, 100
9, 267404, Note_off_c, 4, 64, 0
9, 267408, Note_on_c, 4, 70, 100
9, 267452, Note_off_c, 4, 70, 0
9, 267456, Note_on_c, 4, 74, 100
9, 267500, Note_off_c, 4, 74, 0
9, 267504, Note_on_c, 4, 70, 100
9, 267548, Note_off_c, 4, 70, 0
9, 267552, Note_on_c, 4, 64, 100
9, 267596, Note_off_c, 4, 64, 0
9, 267744, Note_on_c, 4, 64, 100
9, 267788, Note_off_c, 4, 64, 0
9, 267792, Note_on_c, 4, 70, 100
9, 267836, Note_off_c, 4, 70, 0
9, 267840, Note_on_c, 4, 74, 100
9, 267884, Note_off_c, 4, 74, 0
9, 267888, Note_on_c, 4, 70, 100
9, 267932, Note_off_c, 4, 70, 0
9, 267936, Note_on_c, 4, 64, 100
9, 267980, Note_off_c, 4, 64, 0
9, 268128, Note_on_c, 4, 64, 100
9, 268172, Note_off_c, 4, 64, 0
9, 268176, Note_on_c, 4, 69, 100
9, 268220, Note_off_c, 4, 69, 0
9, 268224, Note_on_c, 4, 73, 100
9, 268268, Note_off_c, 4, 73, 0
9, 268272, Note_on_c, 4, 69, 100
9, 268316, Note_off_c, 4, 69, 0
9, 268320, Note_on_c, 4, 64, 100
9, 268364, Note_off_c, 4, 64, 0
9, 268512, Note_on_c, 4, 64, 100
9, 268556, Note_off_c, 4, 64, 0
9, 268560, Note_on_c, 4, 69, 100
9, 268604, Note_off_c, 4, 69, 0
9, 268608, Note_on_c, 4, 73, 100
9, 268652, Note_off_c, 4, 73, 0
9, 268656, Note_on_c, 4, 69, 100
9, 268700, Note_off_c, 4, 69, 0
9, 268704, Note_on_c, 4, 64, 100
9, 268748, Note_off_c, 4, 64, 0
9, 268800, Note_on_c, 4, 62, 100
9, 268896, Note_off_c, 4, 62, 0
9, 268896, Note_on_c, 4, 64, 100
9, 268992, Note_off_c, 4, 64, 0
9, 268992, Note_on_c, 4, 65, 100
9, 269120, Note_off_c, 4, 65, 0
9, 269184, Note_on_c, 4, 64, 100
9, 269376, Note_off_c, 4, 64, 0
9, 269376, Note_on_c, 4, 62, 100
9, 269568, Note_off_c, 4, 62, 0
9, 269568, Note_on_c, 4, 69, 100
9, 269760, Note_off_c, 4, 69, 0
9, 269760, Note_on_c, 4, 74, 100
9, 270144, Note_off_c, 4, 74, 0
9, 270144, Note_on_c, 4, 69, 100
9, 270336, Note_off_c, 4, 69, 0
9, 270336, Note_on_c, 4, 70, 100
9, 270524, Note_off_c, 4, 70, 0
9, 270528, Note_on_c, 4, 67, 100
9, 270620, Note_off_c, 4, 67, 0
9, 270624, Note_on_c, 4, 64, 100
9, 270716, Note_off_c, 4, 64, 0
9, 270720, Note_on_c, 4, 69, 100
9, 270908, Note_off_c, 4, 69, 0
9, 270912, Note_on_c, 4, 65, 100
9, 271004, Note_off_c, 4, 65, 0
9, 271008, Note_on_c, 4, 62, 100
9, 271100, Note_off_c, 4, 62, 0
9, 271104, Note_on_c, 4, 67, 100
9, 271292, Note_off_c, 4, 67, 0
9, 271296, Note_on_c, 4, 64, 100
9, 271388, Note_off_c, 4, 64, 0
9, 271392, Note_on_c, 4, 61, 100
9, 271484, Note_off_c, 4, 61, 0
9, 271488, Note_on_c, 4, 57, 100
9, 271616, Note_off_c, 4, 57, 0
9, 271680, Note_on_c, 4, 70, 100
9, 271868, Note_off_c, 4, 70, 0
9, 271968, Note_on_c, 4, 58, 100
9, 272060, Note_off_c, 4, 58, 0
9, 272064, Note_on_c, 4, 64, 100
9, 272156, Note_off_c, 4, 64, 0
9, 272160, Note_on_c, 4, 62, 100
9, 272252, Note_off_c, 4, 62, 0
9, 272256, Note_on_c, 4, 64, 100
9, 272348, Note_off_c, 4, 64, 0
9, 272352, Note_on_c, 4, 58, 100
9, 272444, Note_off_c, 4, 58, 0
9, 272448, Note_on_c, 4, 57, 100
9, 272540, Note_off_c, 4, 57, 0
9, 272544, Note_on_c, 4, 55, 100
9, 272636, Note_off_c, 4, 55, 0
9, 272736, Note_on_c, 4, 58, 100
9, 272828, Note_off_c, 4, 58, 0
9, 272832, Note_on_c, 4, 64, 100
9, 272924, Note_off_c, 4, 64, 0
9, 272928, Note_on_c, 4, 62, 100
9, 273020, Note_off_c, 4, 62, 0
9, 273024, Note_on_c, 4, 64, 100
9, 273116, Note_off_c, 4, 64, 0
9, 273120, Note_on_c, 4, 58, 100
9, 273212, Note_off_c, 4, 58, 0
9, 273216, Note_on_c, 4, 57, 100
9, 273308, Note_off_c, 4, 57, 0
9, 273312, Note_on_c, 4, 55, 100
9, 273404, Note_off_c, 4, 55, 0
9, 273408, Note_on_c, 4, 53, 100
9, 273500, Note_off_c, 4, 53, 0
9, 273504, Note_on_c, 4, 57, 100
9, 273596, Note_off_c, 4, 57, 0
9, 273600, Note_on_c, 4, 62, 100
9, 273692, Note_off_c, 4, 62, 0
9, 273696, Note_on_c, 4, 61, 100
9, 273788, Note_off_c, 4, 61, 0
9, 273792, Note_on_c, 4, 62, 100
9, 273884, Note_off_c, 4, 62, 0
9, 273888, Note_on_c, 4, 58, 100
9, 273980, Note_off_c, 4, 58, 0
9, 273984, Note_on_c, 4, 57, 100
9, 274076, Note_off_c, 4, 57, 0
9, 274080, Note_on_c, 4, 55, 100
9, 274172, Note_off_c, 4, 55, 0
9, 274176, Note_on_c, 4, 53, 100
9, 274268, Note_off_c, 4, 53, 0
9, 274272, Note_on_c, 4, 57, 100
9, 274364, Note_off_c, 4, 57, 0
9, 274368, Note_on_c, 4, 62, 100
9, 274460, Note_off_c, 4, 62, 0
9, 274464, Note_on_c, 4, 61, 100
9, 274556, Note_off_c, 4, 61, 0
9, 274560, Note_on_c, 4, 62, 100
9, 274652, Note_off_c, 4, 62, 0
9, 274656, Note_on_c, 4, 58, 100
9, 274748, Note_off_c, 4, 58, 0
9, 274752, Note_on_c, 4, 57, 100
9, 274844, Note_off_c, 4, 57, 0
9, 274848, Note_on_c, 4, 55, 100
9, 274940, Note_off_c, 4, 55, 0
9, 275040, Note_on_c, 4, 63, 100
9, 275132, Note_off_c, 4, 63, 0
9, 275136, Note_on_c, 4, 69, 100
9, 275228, Note_off_c, 4, 69, 0
9, 275232, Note_on_c, 4, 67, 100
9, 275324, Note_off_c, 4, 67, 0
9, 275328, Note_on_c, 4, 69, 100
9, 275420, Note_off_c, 4, 69, 0
9, 275424, Note_on_c, 4, 63, 100
9, 275516, Note_off_c, 4, 63, 0
9, 275520, Note_on_c, 4, 62, 100
9, 275612, Note_off_c, 4, 62, 0
9, 275616, Note_on_c, 4, 60, 100
9, 275708, Note_off_c, 4, 60, 0
9, 275808, Note_on_c, 4, 63, 100
9, 275900, Note_off_c, 4, 63, 0
9, 275904, Note_on_c, 4, 69, 100
9, 275996, Note_off_c, 4, 69, 0
9, 276000, Note_on_c, 4, 67, 100
9, 276092, Note_off_c, 4, 67, 0
9, 276096, Note_on_c, 4, 69, 100
9, 276188, Note_off_c, 4, 69, 0
9, 276192, Note_on_c, 4, 63, 100
9, 276284, Note_off_c, 4, 63, 0
9, 276288, Note_on_c, 4, 62, 100
9, 276380, Note_off_c, 4, 62, 0
9, 276384, Note_on_c, 4, 60, 100
9, 276476, Note_off_c, 4, 60, 0
9, 276576, Note_on_c, 4, 62, 100
9, 276668, Note_off_c, 4, 62, 0
9, 276672, Note_on_c, 4, 67, 100
9, 276764, Note_off_c, 4, 67, 0
9, 276768, Note_on_c, 4, 66, 100
9, 276860, Note_off_c, 4, 66, 0
9, 276864, Note_on_c, 4, 67, 100
9, 276956, Note_off_c, 4, 67, 0
9, 276960, Note_on_c, 4, 63, 100
9, 277052, Note_off_c, 4, 63, 0
9, 277056, Note_on_c, 4, 62, 100
9, 277148, Note_off_c, 4, 62, 0
9, 277152, Note_on_c, 4, 60, 100
9, 277244, Note_off_c, 4, 60, 0
9, 277344, Note_on_c, 4, 62, 100
9, 277436, Note_off_c, 4, 62, 0
9, 277440, Note_on_c, 4, 67, 100
9, 277532, Note_off_c, 4, 67, 0
9, 277536, Note_on_c, 4, 66, 100
9, 277628, Note_off_c, 4, 66, 0
9, 277632, Note_on_c, 4, 67, 100
9, 277724, Note_off_c, 4, 67, 0
9, 277728, Note_on_c, 4, 60, 100
9, 277820, Note_off_c, 4, 60, 0
9, 277824, Note_on_c, 4, 58, 100
9, 277916, Note_off_c, 4, 58, 0
9, 277920, Note_on_c, 4, 57, 100
9, 278012, Note_off_c, 4, 57, 0
9, 278112, Note_on_c, 4, 65, 100
9, 278204, Note_off_c, 4, 65, 0
9, 278208, Note_on_c, 4, 71, 100
9, 278300, Note_off_c, 4, 71, 0
9, 278304, Note_on_c, 4, 69, 100
9, 278396, Note_off_c, 4, 69, 0
9, 278400, Note_on_c, 4, 71, 100
9, 278492, Note_off_c, 4, 71, 0
9, 278496, Note_on_c, 4, 65, 100
9, 278588, Note_off_c, 4, 65, 0
9, 278592, Note_on_c, 4, 64, 100
9, 278684, Note_off_c, 4, 64, 0
9, 278688, Note_on_c, 4, 62, 100
9, 278780, Note_off_c, 4, 62, 0
9, 278880, Note_on_c, 4, 65, 100
9, 278972, Note_off_c, 4, 65, 0
9, 278976, Note_on_c, 4, 71, 100
9, 279068, Note_off_c, 4, 71, 0
9, 279072, Note_on_c, 4, 69, 100
9, 279164, Note_off_c, 4, 69, 0
9, 279168, Note_on_c, 4, 71, 100
9, 279260, Note_off_c, 4, 71, 0
9, 279264, Note_on_c, 4, 65, 100
9, 279356, Note_off_c, 4, 65, 0
9, 279360, Note_on_c, 4, 64, 100
9, 279452, Note_off_c, 4, 64, 0
9, 279456, Note_on_c, 4, 62, 100
9, 279548, Note_off_c, 4, 62, 0
9, 279552, Note_on_c, 4, 61, 100
9, 279644, Note_off_c, 4, 61, 0
9, 279648, Note_on_c, 4, 70, 100
9, 279740, Note_off_c, 4, 70, 0
9, 279744, Note_on_c, 4, 76, 100
9, 279836, Note_off_c, 4, 76, 0
9, 279840, Note_on_c, 4, 74, 100
9, 279932, Note_off_c, 4, 74, 0
9, 279936, Note_on_c, 4, 76, 100
9, 280028, Note_off_c, 4, 76, 0
9, 280032, Note_on_c, 4, 70, 100
9, 280124, Note_off_c, 4, 70, 0
9, 280128, Note_on_c, 4, 69, 100
9, 280220, Note_off_c, 4, 69, 0
9, 280224, Note_on_c, 4, 67, 100
9, 280316, Note_off_c, 4, 67, 0
9, 280320, Note_on_c, 4, 61, 100
9, 280412, Note_off_c, 4, 61, 0
9, 280416, Note_on_c, 4, 70, 100
9, 280508, Note_off_c, 4, 70, 0
9, 280512, Note_on_c, 4, 76, 100
9, 280604, Note_off_c, 4, 76, 0
9, 280608, Note_on_c, 4, 74, 100
9, 280700, Note_off_c, 4, 74, 0
9, 280704, Note_on_c, 4, 76, 100
9, 280796, Note_off_c, 4, 76, 0
9, 280800, Note_on_c, 4, 70, 100
9, 280892, Note_off_c, 4, 70, 0
9, 280896, Note_on_c, 4, 69, 100
9, 280988, Note_off_c, 4, 69, 0
9, 280992, Note_on_c, 4, 67, 100
9, 281084, Note_off_c, 4, 67, 0
9, 281184, Note_on_c, 4, 69, 100
9, 281276, Note_off_c, 4, 69, 0
9, 281280, Note_on_c, 4, 74, 100
9, 281372, Note_off_c, 4, 74, 0
9, 281376, Note_on_c, 4, 73, 100
9, 281468, Note_off_c, 4, 73, 0
9, 281472, Note_on_c, 4, 74, 100
9, 281564, Note_off_c, 4, 74, 0
9, 281568, Note_on_c, 4, 67, 100
9, 281660, Note_off_c, 4, 67, 0
9, 281664, Note_on_c, 4, 65, 100
9, 281756, Note_off_c, 4, 65, 0
9, 281760, Note_on_c, 4, 64, 100
9, 281852, Note_off_c, 4, 64, 0
9, 281952, Note_on_c, 4, 69, 100
9, 282044, Note_off_c, 4, 69, 0
9, 282048, Note_on_c, 4, 74, 100
9, 282140, Note_off_c, 4, 74, 0
9, 282144, Note_on_c, 4, 73, 100
9, 282236, Note_off_c, 4, 73, 0
9, 282240, Note_on_c, 4, 74, 100
9, 282332, Note_off_c, 4, 74, 0
9, 282720, Note_on_c, 4, 65, 100
9, 282812, Note_off_c, 4, 65, 0
9, 282816, Note_on_c, 4, 74, 100
9, 282908, Note_off_c, 4, 74, 0
9, 282912, Note_on_c, 4, 73, 100
9, 283004, Note_off_c, 4, 73, 0
9, 283008, Note_on_c, 4, 74, 100
9, 283100, Note_off_c, 4, 74, 0
9, 283488, Note_on_c, 4, 69, 100
9, 283580, Note_off_c, 4, 69, 0
9, 283584, Note_on_c, 4, 74, 100
9, 283676, Note_off_c, 4, 74, 0
9, 283680, Note_on_c, 4, 73, 100
9, 283772, Note_off_c, 4, 73, 0
9, 283776, Note_on_c, 4, 74, 100
9, 283868, Note_off_c, 4, 74, 0
9, 283872, Note_on_c, 4, 69, 100
9, 283964, Note_off_c, 4, 69, 0
9, 283968, Note_on_c, 4, 67, 100
9, 284060, Note_off_c, 4, 67, 0
9, 284064, Note_on_c, 4, 65, 100
9, 284156, Note_off_c, 4, 65, 0
9, 284160, Note_on_c, 4, 70, 100
9, 284252, Note_off_c, 4, 70, 0
9, 284256, Note_on_c, 4, 67, 100
9, 284348, Note_off_c, 4, 67, 0
9, 284352, Note_on_c, 4, 65, 100
9, 284444, Note_off_c, 4, 65, 0
9, 284448, Note_on_c, 4, 64, 100
9, 284540, Note_off_c, 4, 64, 0
9, 284544, Note_on_c, 4, 67, 100
9, 284636, Note_off_c, 4, 67, 0
9, 284640, Note_on_c, 4, 64, 100
9, 284732, Note_off_c, 4, 64, 0
9, 284736, Note_on_c, 4, 62, 100
9, 284828, Note_off_c, 4, 62, 0
9, 284832, Note_on_c, 4, 61, 100
9, 284924, Note_off_c, 4, 61, 0
9, 284928, Note_on_c, 4, 64, 100
9, 285020, Note_off_c, 4, 64, 0
9, 285024, Note_on_c, 4, 61, 100
9, 285116, Note_off_c, 4, 61, 0
9, 285120, Note_on_c, 4, 59, 100
9, 285212, Note_off_c, 4, 59, 0
9, 285216, Note_on_c, 4, 57, 100
9, 285308, Note_off_c, 4, 57, 0
9, 285312, Note_on_c, 4, 58, 100
9, 285404, Note_off_c, 4, 58, 0
9, 285408, Note_on_c, 4, 55, 100
9, 285500, Note_off_c, 4, 55, 0
9, 285504, Note_on_c, 4, 53, 100
9, 285596, Note_off_c, 4, 53, 0
9, 285600, Note_on_c, 4, 52, 100
9, 285692, Note_off_c, 4, 52, 0
9, 285696, Note_on_c, 4, 53, 100
9, 285788, Note_off_c, 4, 53, 0
9, 285792, Note_on_c, 4, 57, 100
9, 285884, Note_off_c, 4, 57, 0
9, 285888, Note_on_c, 4, 62, 100
9, 285980, Note_off_c, 4, 62, 0
9, 285984, Note_on_c, 4, 61, 100
9, 286076, Note_off_c, 4, 61, 0
9, 286080, Note_on_c, 4, 62, 100
9, 286172, Note_off_c, 4, 62, 0
9, 286176, Note_on_c, 4, 57, 100
9, 286268, Note_off_c, 4, 57, 0
9, 286272, Note_on_c, 4, 65, 100
9, 286364, Note_off_c, 4, 65, 0
9, 286368, Note_on_c, 4, 62, 100
9, 286460, Note_off_c, 4, 62, 0
9, 286464, Note_on_c, 4, 69, 100
9, 286652, Note_off_c, 4, 69, 0
9, 286656, Note_on_c, 4, 62, 100
9, 286844, Note_off_c, 4, 62, 0
9, 286848, Note_on_c, 4, 57, 100
9, 287036, Note_off_c, 4, 57, 0
9, 287040, Note_on_c, 4, 61, 100
9, 287228, Note_off_c, 4, 61, 0
9, 287232, Note_on_c, 4, 62, 100
9, 287328, Note_off_c, 4, 62, 0
9, 287328, Note_on_c, 4, 64, 100
9, 287424, Note_off_c, 4, 64, 0
9, 287424, Note_on_c, 4, 65, 100
9, 287552, Note_off_c, 4, 65, 0
9, 287616, Note_on_c, 4, 64, 100
9, 287808, Note_off_c, 4, 64, 0
9, 287808, Note_on_c, 4, 62, 100
9, 288000, Note_off_c, 4, 62, 0
9, 288000, Note_on_c, 4, 69, 100
9, 288192, Note_off_c, 4, 69, 0
9, 288192, Note_on_c, 4, 74, 100
9, 288576, Note_off_c, 4, 74, 0
9, 288576, Note_on_c, 4, 69, 100
9, 288768, Note_off_c, 4, 69, 0
9, 288768, Note_on_c, 4, 70, 100
9, 288956, Note_off_c, 4, 70, 0
9, 288960, Note_on_c, 4, 67, 100
9, 289052, Note_off_c, 4, 67, 0
9, 289056, Note_on_c, 4, 64, 100
9, 289148, Note_off_c, 4, 64, 0
9, 289152, Note_on_c, 4, 69, 100
9, 289340, Note_off_c, 4, 69, 0
9, 289344, Note_on_c, 4, 65, 100
9, 289436, Note_off_c, 4, 65, 0
9, 289440, Note_on_c, 4, 62, 100
9, 289532, Note_off_c, 4, 62, 0
9, 289536, Note_on_c, 4, 67, 100
9, 289724, Note_off_c, 4, 67, 0
9, 289728, Note_on_c, 4, 64, 100
9, 289820, Note_off_c, 4, 64, 0
9, 289824, Note_on_c, 4, 61, 100
9, 289916, Note_off_c, 4, 61, 0
9, 289920, Note_on_c, 4, 57, 100
9, 290048, Note_off_c, 4, 57, 0
9, 290112, Note_on_c, 4, 70, 100
9, 290492, Note_off_c, 4, 70, 0
9, 290496, Note_on_c, 4, 67, 100
9, 290588, Note_off_c, 4, 67, 0
9, 290592, Note_on_c, 4, 64, 100
9, 290684, Note_off_c, 4, 64, 0
9, 290688, Note_on_c, 4, 57, 100
9, 290816, Note_off_c, 4, 57, 0
9, 290880, Note_on_c, 4, 73, 100
9, 291260, Note_off_c, 4, 73, 0
9, 291264, Note_on_c, 4, 70, 100
9, 291356, Note_off_c, 4, 70, 0
9, 291360, Note_on_c, 4, 67, 100
9, 291452, Note_off_c, 4, 67, 0
9, 291456, Note_on_c, 4, 57, 100
9, 291584, Note_off_c, 4, 57, 0
9, 291648, Note_on_c, 4, 76, 100
9, 292028, Note_off_c, 4, 76, 0
9, 292032, Note_on_c, 4, 73, 100
9, 292124, Note_off_c, 4, 73, 0
9, 292128, Note_on_c, 4, 69, 100
9, 292220, Note_off_c, 4, 69, 0
9, 292224, Note_on_c, 4, 70, 100
9, 292316, Note_off_c, 4, 70, 0
9, 292320, Note_on_c, 4, 67, 100
9, 292412, Note_off_c, 4, 67, 0
9, 292416, Note_on_c, 4, 69, 100
9, 292508, Note_off_c, 4, 69, 0
9, 292512, Note_on_c, 4, 65, 100
9, 292604, Note_off_c, 4, 65, 0
9, 292608, Note_on_c, 4, 67, 100
9, 292700, Note_off_c, 4, 67, 0
9, 292704, Note_on_c, 4, 64, 100
9, 292796, Note_off_c, 4, 64, 0
9, 292800, Note_on_c, 4, 65, 100
9, 292892, Note_off_c, 4, 65, 0
9, 292896, Note_on_c, 4, 62, 100
9, 292988, Note_off_c, 4, 62, 0
9, 292992, Note_on_c, 4, 64, 100
9, 293084, Note_off_c, 4, 64, 0
9, 293088, Note_on_c, 4, 61, 100
9, 293180, Note_off_c, 4, 61, 0
9, 293184, Note_on_c, 4, 62, 100
9, 293276, Note_off_c, 4, 62, 0
9, 293280, Note_on_c, 4, 59, 100
9, 293372, Note_off_c, 4, 59, 0
9, 293376, Note_on_c, 4, 61, 100
9, 293468, Note_off_c, 4, 61, 0
9, 293472, Note_on_c, 4, 57, 100
9, 293564, Note_off_c, 4, 57, 0
9, 293568, Note_on_c, 4, 59, 100
9, 293660, Note_off_c, 4, 59, 0
9, 293664, Note_on_c, 4, 61, 100
9, 293756, Note_off_c, 4, 61, 0
9, 293760, Note_on_c, 4, 62, 100
9, 293852, Note_off_c, 4, 62, 0
9, 293856, Note_on_c, 4, 64, 100
9, 293948, Note_off_c, 4, 64, 0
9, 293952, Note_on_c, 4, 65, 100
9, 294044, Note_off_c, 4, 65, 0
9, 294048, Note_on_c, 4, 67, 100
9, 294140, Note_off_c, 4, 67, 0
9, 294144, Note_on_c, 4, 69, 100
9, 294236, Note_off_c, 4, 69, 0
9, 294240, Note_on_c, 4, 70, 100
9, 294332, Note_off_c, 4, 70, 0
9, 294336, Note_on_c, 4, 72, 100
9, 294464, Note_off_c, 4, 72, 0
9, 294528, Note_on_c, 4, 72, 100
9, 294620, Note_off_c, 4, 72, 0
9, 294624, Note_on_c, 4, 74, 100
9, 294716, Note_off_c, 4, 74, 0
9, 294720, Note_on_c, 4, 75, 100
9, 294848, Note_off_c, 4, 75, 0
9, 294912, Note_on_c, 4, 66, 100
9, 295020, Note_off_c, 4, 66, 0
9, 295104, Note_on_c, 4, 67, 100
9, 295212, Note_off_c, 4, 67, 0
9, 295296, Note_on_c, 4, 61, 100
9, 295404, Note_off_c, 4, 61, 0
9, 295488, Note_on_c, 4, 62, 100
9, 295596, Note_off_c, 4, 62, 0
9, 295680, Note_on_c, 4, 56, 100
9, 295868, Note_off_c, 4, 56, 0
9, 296064, Note_on_c, 4, 64, 100
9, 296064, Note_on_c, 4, 67, 100
9, 296064, Note_on_c, 4, 69, 100
9, 296064, Note_on_c, 4, 73, 100
9, 296192, Note_off_c, 4, 64, 0
9, 296192, Note_off_c, 4, 67, 0
9, 296192, Note_off_c, 4, 69, 0
9, 296192, Note_off_c, 4, 73, 0
9, 296448, Note_on_c, 4, 62, 100
9, 296448, Note_on_c, 4, 65, 100
9, 296448, Note_on_c, 4, 69, 100
9, 296448, Note_on_c, 4, 74, 100
9, 297212, Note_off_c, 4, 62, 0
9, 297212, Note_off_c, 4, 65, 0
9, 297212, Note_off_c, 4, 69, 0
9, 297212, Note_off_c, 4, 74, 0
9, 297212, End_track
10, 0, Start_track
10, 0, Title_t, "Keyboard LH"
10, 0, Control_c, 4, 0, 0
10, 0, Program_c, 4, 6
10, 0, Control_c, 4, 7, 92
10, 0, Control_c, 4, 10, 44
10, 0, Key_signature, -1, "minor"
10, 0, Note_on_c, 4, 50, 100
10, 96, Note_off_c, 4, 50, 0
10, 96, Note_on_c, 4, 52, 100
10, 192, Note_off_c, 4, 52, 0
10, 192, Note_on_c, 4, 53, 100
10, 320, Note_off_c, 4, 53, 0
10, 384, Note_on_c, 4, 52, 100
10, 576, Note_off_c, 4, 52, 0
10, 576, Note_on_c, 4, 50, 100
10, 768, Note_off_c, 4, 50, 0
10, 768, Note_on_c, 4, 57, 100
10, 960, Note_off_c, 4, 57, 0
10, 960, Note_on_c, 4, 62, 100
10, 1344, Note_off_c, 4, 62, 0
10, 1344, Note_on_c, 4, 57, 100
10, 1536, Note_off_c, 4, 57, 0
10, 1536, Note_on_c, 4, 58, 100
10, 1724, Note_off_c, 4, 58, 0
10, 1728, Note_on_c, 4, 55, 100
10, 1820, Note_off_c, 4, 55, 0
10, 1824, Note_on_c, 4, 52, 100
10, 1916, Note_off_c, 4, 52, 0
10, 1920, Note_on_c, 4, 57, 100
10, 2108, Note_off_c, 4, 57, 0
10, 2112, Note_on_c, 4, 53, 100
10, 2204, Note_off_c, 4, 53, 0
10, 2208, Note_on_c, 4, 50, 100
10, 2300, Note_off_c, 4, 50, 0
10, 2304, Note_on_c, 4, 55, 100
10, 2492, Note_off_c, 4, 55, 0
10, 2496, Note_on_c, 4, 52, 100
10, 2588, Note_off_c, 4, 52, 0
10, 2592, Note_on_c, 4, 49, 100
10, 2684, Note_off_c, 4, 49, 0
10, 2688, Note_on_c, 4, 45, 100
10, 2816, Note_off_c, 4, 45, 0
10, 2880, Note_on_c, 4, 58, 100
10, 3260, Note_off_c, 4, 58, 0
10, 3264, Note_on_c, 4, 55, 100
10, 3356, Note_off_c, 4, 55, 0
10, 3360, Note_on_c, 4, 52, 100
10, 3452, Note_off_c, 4, 52, 0
10, 3456, Note_on_c, 4, 45, 100
10, 3584, Note_off_c, 4, 45, 0
10, 3648, Note_on_c, 4, 61, 100
10, 4028, Note_off_c, 4, 61, 0
10, 4032, Note_on_c, 4, 58, 100
10, 4124, Note_off_c, 4, 58, 0
10, 4128, Note_on_c, 4, 55, 100
10, 4220, Note_off_c, 4, 55, 0
10, 4224, Note_on_c, 4, 45, 100
10, 4352, Note_off_c, 4, 45, 0
10, 4416, Note_on_c, 4, 64, 100
10, 4796, Note_off_c, 4, 64, 0
10, 4800, Note_on_c, 4, 61, 100
10, 4892, Note_off_c, 4, 61, 0
10, 4896, Note_on_c, 4, 57, 100
10, 4988, Note_off_c, 4, 57, 0
10, 4992, Note_on_c, 4, 58, 100
10, 5084, Note_off_c, 4, 58, 0
10, 5088, Note_on_c, 4, 55, 100
10, 5180, Note_off_c, 4, 55, 0
10, 5184, Note_on_c, 4, 57, 100
10, 5276, Note_off_c, 4, 57, 0
10, 5280, Note_on_c, 4, 53, 100
10, 5372, Note_off_c, 4, 53, 0
10, 5376, Note_on_c, 4, 55, 100
10, 5468, Note_off_c, 4, 55, 0
10, 5472, Note_on_c, 4, 52, 100
10, 5564, Note_off_c, 4, 52, 0
10, 5568, Note_on_c, 4, 53, 100
10, 5660, Note_off_c, 4, 53, 0
10, 5664, Note_on_c, 4, 50, 100
10, 5756, Note_off_c, 4, 50, 0
10, 5760, Note_on_c, 4, 52, 100
10, 5852, Note_off_c, 4, 52, 0
10, 5856, Note_on_c, 4, 49, 100
10, 5948, Note_off_c, 4, 49, 0
10, 5952, Note_on_c, 4, 50, 100
10, 6044, Note_off_c, 4, 50, 0
10, 6048, Note_on_c, 4, 47, 100
10, 6140, Note_off_c, 4, 47, 0
10, 6144, Note_on_c, 4, 49, 100
10, 6236, Note_off_c, 4, 49, 0
10, 6240, Note_on_c, 4, 45, 100
10, 6332, Note_off_c, 4, 45, 0
10, 6336, Note_on_c, 4, 47, 100
10, 6428, Note_off_c, 4, 47, 0
10, 6432, Note_on_c, 4, 49, 100
10, 6524, Note_off_c, 4, 49, 0
10, 6528, Note_on_c, 4, 50, 100
10, 6620, Note_off_c, 4, 50, 0
10, 6624, Note_on_c, 4, 52, 100
10, 6716, Note_off_c, 4, 52, 0
10, 6720, Note_on_c, 4, 53, 100
10, 6812, Note_off_c, 4, 53, 0
10, 6816, Note_on_c, 4, 55, 100
10, 6908, Note_off_c, 4, 55, 0
10, 6912, Note_on_c, 4, 57, 100
10, 7004, Note_off_c, 4, 57, 0
10, 7008, Note_on_c, 4, 58, 100
10, 7100, Note_off_c, 4, 58, 0
10, 7104, Note_on_c, 4, 60, 100
10, 7232, Note_off_c, 4, 60, 0
10, 7296, Note_on_c, 4, 60, 100
10, 7388, Note_off_c, 4, 60, 0
10, 7392, Note_on_c, 4, 62, 100
10, 7484, Note_off_c, 4, 62, 0
10, 7488, Note_on_c, 4, 63, 100
10, 7616, Note_off_c, 4, 63, 0
10, 7680, Note_on_c, 4, 54, 100
10, 7788, Note_off_c, 4, 54, 0
10, 7872, Note_on_c, 4, 55, 100
10, 7980, Note_off_c, 4, 55, 0
10, 8064, Note_on_c, 4, 49, 100
10, 8172, Note_off_c, 4, 49, 0
10, 8256, Note_on_c, 4, 50, 100
10, 8364, Note_off_c, 4, 50, 0
10, 8448, Note_on_c, 4, 44, 100
10, 8636, Note_off_c, 4, 44, 0
10, 8832, Note_on_c, 4, 45, 100
10, 9020, Note_off_c, 4, 45, 0
10, 9216, Note_on_c, 4, 50, 100
10, 9216, Note_on_c, 4, 38, 100
10, 9596, Note_off_c, 4, 50, 0
10, 9596, Note_off_c, 4, 38, 0
10, 9984, Note_on_c, 4, 50, 100
10, 9984, Note_on_c, 4, 38, 100
10, 10364, Note_off_c, 4, 50, 0
10, 10364, Note_off_c, 4, 38, 0
10, 10752, Note_on_c, 4, 50, 100
10, 10752, Note_on_c, 4, 38, 100
10, 11132, Note_off_c, 4, 50, 0
10, 11132, Note_off_c, 4, 38, 0
10, 11520, Note_on_c, 4, 50, 100
10, 11564, Note_off_c, 4, 50, 0
10, 11568, Note_on_c, 4, 52, 100
10, 11612, Note_off_c, 4, 52, 0
10, 11616, Note_on_c, 4, 53, 100
10, 11660, Note_off_c, 4, 53, 0
10, 11664, Note_on_c, 4, 55, 100
10, 11708, Note_off_c, 4, 55, 0
10, 11712, Note_on_c, 4, 57, 100
10, 11804, Note_off_c, 4, 57, 0
10, 11808, Note_on_c, 4, 52, 100
10, 11900, Note_off_c, 4, 52, 0
10, 11904, Note_on_c, 4, 53, 100
10, 11996, Note_off_c, 4, 53, 0
10, 12000, Note_on_c, 4, 50, 100
10, 12092, Note_off_c, 4, 50, 0
10, 12096, Note_on_c, 4, 55, 100
10, 12188, Note_off_c, 4, 55, 0
10, 12192, Note_on_c, 4, 52, 100
10, 12284, Note_off_c, 4, 52, 0
10, 12288, Note_on_c, 4, 53, 100
10, 12380, Note_off_c, 4, 53, 0
10, 12384, Note_on_c, 4, 50, 100
10, 12476, Note_off_c, 4, 50, 0
10, 12480, Note_on_c, 4, 52, 100
10, 12572, Note_off_c, 4, 52, 0
10, 12576, Note_on_c, 4, 49, 100
10, 12668, Note_off_c, 4, 49, 0
10, 12672, Note_on_c, 4, 50, 100
10, 12764, Note_off_c, 4, 50, 0
10, 12768, Note_on_c, 4, 53, 100
10, 12860, Note_off_c, 4, 53, 0
10, 12864, Note_on_c, 4, 55, 100
10, 12956, Note_off_c, 4, 55, 0
10, 12960, Note_on_c, 4, 52, 100
10, 13052, Note_off_c, 4, 52, 0
10, 13056, Note_on_c, 4, 53, 100
10, 13148, Note_off_c, 4, 53, 0
10, 13152, Note_on_c, 4, 65, 100
10, 13244, Note_off_c, 4, 65, 0
10, 13248, Note_on_c, 4, 67, 100
10, 13340, Note_off_c, 4, 67, 0
10, 13344, Note_on_c, 4, 64, 100
10, 13436, Note_off_c, 4, 64, 0
10, 13440, Note_on_c, 4, 65, 100
10, 13532, Note_off_c, 4, 65, 0
10, 13536, Note_on_c, 4, 69, 100
10, 13628, Note_off_c, 4, 69, 0
10, 13632, Note_on_c, 4, 70, 100
10, 13724, Note_off_c, 4, 70, 0
10, 13728, Note_on_c, 4, 67, 100
10, 13820, Note_off_c, 4, 67, 0
10, 13824, Note_on_c, 4, 69, 100
10, 13868, Note_off_c, 4, 69, 0
10, 13872, Note_on_c, 4, 67, 100
10, 13916, Note_off_c, 4, 67, 0
10, 13920, Note_on_c, 4, 65, 100
10, 13964, Note_off_c, 4, 65, 0
10, 13968, Note_on_c, 4, 64, 100
10, 14012, Note_off_c, 4, 64, 0
10, 14016, Note_on_c, 4, 65, 100
10, 14108, Note_off_c, 4, 65, 0
10, 14112, Note_on_c, 4, 62, 100
10, 14204, Note_off_c, 4, 62, 0
10, 14208, Note_on_c, 4, 74, 100
10, 14396, Note_off_c, 4, 74, 0
10, 14592, Note_on_c, 4, 57, 100
10, 14636, Note_off_c, 4, 57, 0
10, 14640, Note_on_c, 4, 62, 100
10, 14684, Note_off_c, 4, 62, 0
10, 14688, Note_on_c, 4, 64, 100
10, 14732, Note_off_c, 4, 64, 0
10, 14736, Note_on_c, 4, 65, 100
10, 14780, Note_off_c, 4, 65, 0
10, 14784, Note_on_c, 4, 67, 100
10, 14876, Note_off_c, 4, 67, 0
10, 14880, Note_on_c, 4, 64, 100
10, 14972, Note_off_c, 4, 64, 0
10, 14976, Note_on_c, 4, 65, 100
10, 15068, Note_off_c, 4, 65, 0
10, 15072, Note_on_c, 4, 69, 100
10, 15164, Note_off_c, 4, 69, 0
10, 15168, Note_on_c, 4, 70, 100
10, 15260, Note_off_c, 4, 70, 0
10, 15264, Note_on_c, 4, 67, 100
10, 15356, Note_off_c, 4, 67, 0
10, 15360, Note_on_c, 4, 69, 100
10, 15452, Note_off_c, 4, 69, 0
10, 15456, Note_on_c, 4, 65, 100
10, 15548, Note_off_c, 4, 65, 0
10, 15552, Note_on_c, 4, 67, 100
10, 15644, Note_off_c, 4, 67, 0
10, 15648, Note_on_c, 4, 64, 100
10, 15740, Note_off_c, 4, 64, 0
10, 15744, Note_on_c, 4, 65, 100
10, 15836, Note_off_c, 4, 65, 0
10, 15840, Note_on_c, 4, 62, 100
10, 15932, Note_off_c, 4, 62, 0
10, 15936, Note_on_c, 4, 67, 100
10, 16028, Note_off_c, 4, 67, 0
10, 16032, Note_on_c, 4, 64, 100
10, 16124, Note_off_c, 4, 64, 0
10, 16128, Note_on_c, 4, 65, 100
10, 16220, Note_off_c, 4, 65, 0
10, 16224, Note_on_c, 4, 62, 100
10, 16316, Note_off_c, 4, 62, 0
10, 16320, Note_on_c, 4, 58, 100
10, 16412, Note_off_c, 4, 58, 0
10, 16416, Note_on_c, 4, 55, 100
10, 16508, Note_off_c, 4, 55, 0
10, 16512, Note_on_c, 4, 57, 100
10, 16604, Note_off_c, 4, 57, 0
10, 16608, Note_on_c, 4, 53, 100
10, 16700, Note_off_c, 4, 53, 0
10, 16704, Note_on_c, 4, 55, 100
10, 16796, Note_off_c, 4, 55, 0
10, 16800, Note_on_c, 4, 52, 100
10, 16892, Note_off_c, 4, 52, 0
10, 16896, Note_on_c, 4, 53, 100
10, 16988, Note_off_c, 4, 53, 0
10, 16992, Note_on_c, 4, 38, 100
10, 17084, Note_off_c, 4, 38, 0
10, 17088, Note_on_c, 4, 41, 100
10, 17180, Note_off_c, 4, 41, 0
10, 17184, Note_on_c, 4, 45, 100
10, 17276, Note_off_c, 4, 45, 0
10, 17280, Note_on_c, 4, 50, 100
10, 17372, Note_off_c, 4, 50, 0
10, 17376, Note_on_c, 4, 41, 100
10, 17468, Note_off_c, 4, 41, 0
10, 17472, Note_on_c, 4, 45, 100
10, 17564, Note_off_c, 4, 45, 0
10, 17568, Note_on_c, 4, 50, 100
10, 17660, Note_off_c, 4, 50, 0
10, 17664, Note_on_c, 4, 53, 100
10, 17756, Note_off_c, 4, 53, 0
10, 17760, Note_on_c, 4, 45, 100
10, 17852, Note_off_c, 4, 45, 0
10, 17856, Note_on_c, 4, 50, 100
10, 17948, Note_off_c, 4, 50, 0
10, 17952, Note_on_c, 4, 53, 100
10, 18044, Note_off_c, 4, 53, 0
10, 18048, Note_on_c, 4, 57, 100
10, 18140, Note_off_c, 4, 57, 0
10, 18144, Note_on_c, 4, 50, 100
10, 18236, Note_off_c, 4, 50, 0
10, 18240, Note_on_c, 4, 53, 100
10, 18332, Note_off_c, 4, 53, 0
10, 18336, Note_on_c, 4, 57, 100
10, 18428, Note_off_c, 4, 57, 0
10, 18432, Note_on_c, 4, 62, 100
10, 18620, Note_off_c, 4, 62, 0
10, 19200, Note_on_c, 4, 50, 100
10, 19292, Note_off_c, 4, 50, 0
10, 19296, Note_on_c, 4, 52, 100
10, 19388, Note_off_c, 4, 52, 0
10, 19392, Note_on_c, 4, 53, 100
10, 19580, Note_off_c, 4, 53, 0
10, 19584, Note_on_c, 4, 52, 100
10, 19772, Note_off_c, 4, 52, 0
10, 19776, Note_on_c, 4, 50, 100
10, 19964, Note_off_c, 4, 50, 0
10, 19968, Note_on_c, 4, 55, 100
10, 20156, Note_off_c, 4, 55, 0
10, 20160, Note_on_c, 4, 65, 100
10, 20252, Note_off_c, 4, 65, 0
10, 20256, Note_on_c, 4, 61, 100
10, 20348, Note_off_c, 4, 61, 0
10, 20352, Note_on_c, 4, 53, 100
10, 20540, Note_off_c, 4, 53, 0
10, 20544, Note_on_c, 4, 62, 100
10, 20636, Note_off_c, 4, 62, 0
10, 20640, Note_on_c, 4, 58, 100
10, 20732, Note_off_c, 4, 58, 0
10, 20736, Note_on_c, 4, 52, 100
10, 20828, Note_off_c, 4, 52, 0
10, 20832, Note_on_c, 4, 53, 100
10, 20924, Note_off_c, 4, 53, 0
10, 20928, Note_on_c, 4, 55, 100
10, 21020, Note_off_c, 4, 55, 0
10, 21024, Note_on_c, 4, 52, 100
10, 21116, Note_off_c, 4, 52, 0
10, 21120, Note_on_c, 4, 50, 100
10, 21212, Note_off_c, 4, 50, 0
10, 21216, Note_on_c, 4, 52, 100
10, 21308, Note_off_c, 4, 52, 0
10, 21312, Note_on_c, 4, 55, 100
10, 21404, Note_off_c, 4, 55, 0
10, 21408, Note_on_c, 4, 52, 100
10, 21500, Note_off_c, 4, 52, 0
10, 21504, Note_on_c, 4, 49, 100
10, 21596, Note_off_c, 4, 49, 0
10, 21600, Note_on_c, 4, 50, 100
10, 21692, Note_off_c, 4, 50, 0
10, 21696, Note_on_c, 4, 52, 100
10, 21788, Note_off_c, 4, 52, 0
10, 21792, Note_on_c, 4, 49, 100
10, 21884, Note_off_c, 4, 49, 0
10, 21888, Note_on_c, 4, 50, 100
10, 21980, Note_off_c, 4, 50, 0
10, 21984, Note_on_c, 4, 53, 100
10, 22076, Note_off_c, 4, 53, 0
10, 22080, Note_on_c, 4, 52, 100
10, 22172, Note_off_c, 4, 52, 0
10, 22176, Note_on_c, 4, 50, 100
10, 22268, Note_off_c, 4, 50, 0
10, 22272, Note_on_c, 4, 52, 100
10, 22364, Note_off_c, 4, 52, 0
10, 22368, Note_on_c, 4, 53, 100
10, 22460, Note_off_c, 4, 53, 0
10, 22464, Note_on_c, 4, 55, 100
10, 22556, Note_off_c, 4, 55, 0
10, 22560, Note_on_c, 4, 52, 100
10, 22652, Note_off_c, 4, 52, 0
10, 22656, Note_on_c, 4, 53, 100
10, 22748, Note_off_c, 4, 53, 0
10, 22752, Note_on_c, 4, 57, 100
10, 22844, Note_off_c, 4, 57, 0
10, 22848, Note_on_c, 4, 55, 100
10, 22940, Note_off_c, 4, 55, 0
10, 22944, Note_on_c, 4, 53, 100
10, 23036, Note_off_c, 4, 53, 0
10, 23040, Note_on_c, 4, 55, 100
10, 23132, Note_off_c, 4, 55, 0
10, 23136, Note_on_c, 4, 43, 100
10, 23228, Note_off_c, 4, 43, 0
10, 23232, Note_on_c, 4, 55, 100
10, 23324, Note_off_c, 4, 55, 0
10, 23328, Note_on_c, 4, 53, 100
10, 23420, Note_off_c, 4, 53, 0
10, 23424, Note_on_c, 4, 55, 100
10, 23612, Note_off_c, 4, 55, 0
10, 23904, Note_on_c, 4, 43, 100
10, 23996, Note_off_c, 4, 43, 0
10, 24000, Note_on_c, 4, 55, 100
10, 24092, Note_off_c, 4, 55, 0
10, 24096, Note_on_c, 4, 53, 100
10, 24188, Note_off_c, 4, 53, 0
10, 24192, Note_on_c, 4, 55, 100
10, 24380, Note_off_c, 4, 55, 0
10, 24576, Note_on_c, 4, 52, 100
10, 24576, Note_on_c, 4, 43, 100
10, 24768, Note_off_c, 4, 52, 0
10, 24860, Note_off_c, 4, 43, 0
10, 24864, Note_on_c, 4, 45, 100
10, 24956, Note_off_c, 4, 45, 0
10, 24960, Note_on_c, 4, 47, 100
10, 25052, Note_off_c, 4, 47, 0
10, 25056, Note_on_c, 4, 49, 100
10, 25148, Note_off_c, 4, 49, 0
10, 25152, Note_on_c, 4, 50, 100
10, 25244, Note_off_c, 4, 50, 0
10, 25248, Note_on_c, 4, 52, 100
10, 25340, Note_off_c, 4, 52, 0
10, 25344, Note_on_c, 4, 54, 100
10, 25436, Note_off_c, 4, 54, 0
10, 25440, Note_on_c, 4, 55, 100
10, 25532, Note_off_c, 4, 55, 0
10, 25536, Note_on_c, 4, 57, 100
10, 25664, Note_off_c, 4, 57, 0
10, 25728, Note_on_c, 4, 57, 100
10, 25820, Note_off_c, 4, 57, 0
10, 25824, Note_on_c, 4, 58, 100
10, 25916, Note_off_c, 4, 58, 0
10, 25920, Note_on_c, 4, 60, 100
10, 26048, Note_off_c, 4, 60, 0
10, 26112, Note_on_c, 4, 60, 100
10, 26300, Note_off_c, 4, 60, 0
10, 26304, Note_on_c, 4, 59, 100
10, 26492, Note_off_c, 4, 59, 0
10, 26496, Note_on_c, 4, 58, 100
10, 26624, Note_off_c, 4, 58, 0
10, 26688, Note_on_c, 4, 57, 100
10, 26816, Note_off_c, 4, 57, 0
10, 26880, Note_on_c, 4, 57, 100
10, 27068, Note_off_c, 4, 57, 0
10, 27072, Note_on_c, 4, 56, 100
10, 27260, Note_off_c, 4, 56, 0
10, 27264, Note_on_c, 4, 55, 100
10, 27392, Note_off_c, 4, 55, 0
10, 27456, Note_on_c, 4, 53, 100
10, 27584, Note_off_c, 4, 53, 0
10, 27648, Note_on_c, 4, 50, 100
10, 27648, Note_on_c, 4, 44, 100
10, 27836, Note_off_c, 4, 50, 0
10, 27836, Note_off_c, 4, 44, 0
10, 27840, Note_on_c, 4, 45, 100
10, 28028, Note_off_c, 4, 45, 0
10, 28032, Note_on_c, 4, 45, 100
10, 28032, Note_on_c, 4, 53, 100
10, 28220, Note_off_c, 4, 45, 0
10, 28220, Note_off_c, 4, 53, 0
10, 28224, Note_on_c, 4, 47, 100
10, 28412, Note_off_c, 4, 47, 0
10, 28416, Note_on_c, 4, 56, 100
10, 28416, Note_on_c, 4, 47, 100
10, 28604, Note_off_c, 4, 56, 0
10, 28604, Note_off_c, 4, 47, 0
10, 28608, Note_on_c, 4, 48, 100
10, 28796, Note_off_c, 4, 48, 0
10, 28800, Note_on_c, 4, 52, 100
10, 28800, Note_on_c, 4, 48, 100
10, 28988, Note_off_c, 4, 52, 0
10, 28988, Note_off_c, 4, 48, 0
10, 28992, Note_on_c, 4, 50, 100
10, 29180, Note_off_c, 4, 50, 0
10, 29184, Note_on_c, 4, 56, 100
10, 29184, Note_on_c, 4, 59, 100
10, 29184, Note_on_c, 4, 50, 100
10, 29564, Note_off_c, 4, 56, 0
10, 29564, Note_off_c, 4, 59, 0
10, 29564, Note_off_c, 4, 50, 0
10, 29952, Note_on_c, 4, 57, 100
10, 29952, Note_on_c, 4, 52, 100
10, 29952, Note_on_c, 4, 49, 100
10, 30044, Note_off_c, 4, 49, 0
10, 30048, Note_on_c, 4, 50, 100
10, 30140, Note_off_c, 4, 57, 0
10, 30140, Note_off_c, 4, 52, 0
10, 30140, Note_off_c, 4, 50, 0
10, 30144, Note_on_c, 4, 52, 100
10, 30272, Note_off_c, 4, 52, 0
10, 30336, Note_on_c, 4, 52, 100
10, 30428, Note_off_c, 4, 52, 0
10, 30432, Note_on_c, 4, 53, 100
10, 30524, Note_off_c, 4, 53, 0
10, 30528, Note_on_c, 4, 55, 100
10, 30656, Note_off_c, 4, 55, 0
10, 30720, Note_on_c, 4, 55, 100
10, 30720, Note_on_c, 4, 58, 100
10, 30828, Note_off_c, 4, 55, 0
10, 30828, Note_off_c, 4, 58, 0
10, 30912, Note_on_c, 4, 53, 100
10, 30912, Note_on_c, 4, 57, 100
10, 31020, Note_off_c, 4, 53, 0
10, 31020, Note_off_c, 4, 57, 0
10, 31104, Note_on_c, 4, 53, 100
10, 31104, Note_on_c, 4, 59, 100
10, 31212, Note_off_c, 4, 53, 0
10, 31212, Note_off_c, 4, 59, 0
10, 31296, Note_on_c, 4, 52, 100
10, 31296, Note_on_c, 4, 60, 100
10, 31404, Note_off_c, 4, 52, 0
10, 31404, Note_off_c, 4, 60, 0
10, 31488, Note_on_c, 4, 51, 100
10, 31676, Note_off_c, 4, 51, 0
10, 31872, Note_on_c, 4, 52, 100
10, 32060, Note_off_c, 4, 52, 0
10, 32256, Note_on_c, 4, 45, 100
10, 32636, Note_off_c, 4, 45, 0
10, 33024, Note_on_c, 4, 45, 100
10, 33024, Note_on_c, 4, 33, 100
10, 33404, Note_off_c, 4, 45, 0
10, 33404, Note_off_c, 4, 33, 0
10, 33792, Note_on_c, 4, 45, 100
10, 33792, Note_on_c, 4, 33, 100
10, 34172, Note_off_c, 4, 45, 0
10, 34172, Note_off_c, 4, 33, 0
10, 34560, Note_on_c, 4, 45, 100
10, 34604, Note_off_c, 4, 45, 0
10, 34608, Note_on_c, 4, 47, 100
10, 34652, Note_off_c, 4, 47, 0
10, 34656, Note_on_c, 4, 48, 100
10, 34700, Note_off_c, 4, 48, 0
10, 34704, Note_on_c, 4, 50, 100
10, 34748, Note_off_c, 4, 50, 0
10, 34752, Note_on_c, 4, 52, 100
10, 34844, Note_off_c, 4, 52, 0
10, 34848, Note_on_c, 4, 47, 100
10, 34940, Note_off_c, 4, 47, 0
10, 34944, Note_on_c, 4, 48, 100
10, 35036, Note_off_c, 4, 48, 0
10, 35040, Note_on_c, 4, 45, 100
10, 35132, Note_off_c, 4, 45, 0
10, 35136, Note_on_c, 4, 50, 100
10, 35228, Note_off_c, 4, 50, 0
10, 35232, Note_on_c, 4, 47, 100
10, 35324, Note_off_c, 4, 47, 0
10, 35328, Note_on_c, 4, 48, 100
10, 35420, Note_off_c, 4, 48, 0
10, 35424, Note_on_c, 4, 45, 100
10, 35516, Note_off_c, 4, 45, 0
10, 35520, Note_on_c, 4, 47, 100
10, 35612, Note_off_c, 4, 47, 0
10, 35616, Note_on_c, 4, 44, 100
10, 35708, Note_off_c, 4, 44, 0
10, 35712, Note_on_c, 4, 45, 100
10, 35804, Note_off_c, 4, 45, 0
10, 35808, Note_on_c, 4, 48, 100
10, 35900, Note_off_c, 4, 48, 0
10, 35904, Note_on_c, 4, 50, 100
10, 35996, Note_off_c, 4, 50, 0
10, 36000, Note_on_c, 4, 47, 100
10, 36092, Note_off_c, 4, 47, 0
10, 36096, Note_on_c, 4, 48, 100
10, 36188, Note_off_c, 4, 48, 0
10, 36192, Note_on_c, 4, 60, 100
10, 36284, Note_off_c, 4, 60, 0
10, 36288, Note_on_c, 4, 62, 100
10, 36380, Note_off_c, 4, 62, 0
10, 36384, Note_on_c, 4, 59, 100
10, 36476, Note_off_c, 4, 59, 0
10, 36480, Note_on_c, 4, 60, 100
10, 36572, Note_off_c, 4, 60, 0
10, 36576, Note_on_c, 4, 64, 100
10, 36668, Note_off_c, 4, 64, 0
10, 36672, Note_on_c, 4, 65, 100
10, 36764, Note_off_c, 4, 65, 0
10, 36768, Note_on_c, 4, 62, 100
10, 36860, Note_off_c, 4, 62, 0
10, 36864, Note_on_c, 4, 64, 100
10, 36956, Note_off_c, 4, 64, 0
10, 36960, Note_on_c, 4, 59, 100
10, 37052, Note_off_c, 4, 59, 0
10, 37056, Note_on_c, 4, 60, 100
10, 37148, Note_off_c, 4, 60, 0
10, 37152, Note_on_c, 4, 56, 100
10, 37244, Note_off_c, 4, 56, 0
10, 37248, Note_on_c, 4, 57, 100
10, 37436, Note_off_c, 4, 57, 0
10, 37440, Note_on_c, 4, 56, 100
10, 37440, Note_on_c, 4, 50, 100
10, 37440, Note_on_c, 4, 45, 100
10, 37628, Note_off_c, 4, 56, 0
10, 37628, Note_off_c, 4, 50, 0
10, 37628, Note_off_c, 4, 45, 0
10, 37632, Note_on_c, 4, 52, 100
10, 37632, Note_on_c, 4, 48, 100
10, 37632, Note_on_c, 4, 45, 100
10, 37820, Note_off_c, 4, 52, 0
10, 37820, Note_off_c, 4, 48, 0
10, 37820, Note_off_c, 4, 45, 0
10, 38400, Note_on_c, 4, 33, 100
10, 38784, Note_off_c, 4, 33, 0
10, 39264, Note_on_c, 4, 47, 100
10, 39360, Note_off_c, 4, 47, 0
10, 39360, Note_on_c, 4, 48, 100
10, 39456, Note_off_c, 4, 48, 0
10, 39456, Note_on_c, 4, 52, 100
10, 39552, Note_off_c, 4, 52, 0
10, 39552, Note_on_c, 4, 57, 100
10, 39648, Note_off_c, 4, 57, 0
10, 39648, Note_on_c, 4, 47, 100
10, 39744, Note_off_c, 4, 47, 0
10, 39744, Note_on_c, 4, 48, 100
10, 39840, Note_off_c, 4, 48, 0
10, 39840, Note_on_c, 4, 52, 100
10, 39936, Note_off_c, 4, 52, 0
10, 39936, Note_on_c, 4, 57, 100
10, 40128, Note_off_c, 4, 57, 0
10, 40416, Note_on_c, 4, 57, 100
10, 40416, Note_on_c, 4, 45, 100
10, 40512, Note_off_c, 4, 57, 0
10, 40512, Note_off_c, 4, 45, 0
10, 40608, Note_on_c, 4, 57, 100
10, 40608, Note_on_c, 4, 45, 100
10, 40704, Note_off_c, 4, 57, 0
10, 40704, Note_off_c, 4, 45, 0
10, 40800, Note_on_c, 4, 57, 100
10, 40800, Note_on_c, 4, 45, 100
10, 40896, Note_off_c, 4, 57, 0
10, 40896, Note_off_c, 4, 45, 0
10, 40992, Note_on_c, 4, 57, 100
10, 40992, Note_on_c, 4, 45, 100
10, 41088, Note_off_c, 4, 57, 0
10, 41088, Note_off_c, 4, 45, 0
10, 41184, Note_on_c, 4, 57, 100
10, 41184, Note_on_c, 4, 45, 100
10, 41280, Note_off_c, 4, 57, 0
10, 41280, Note_off_c, 4, 45, 0
10, 41376, Note_on_c, 4, 57, 100
10, 41376, Note_on_c, 4, 45, 100
10, 41472, Note_off_c, 4, 57, 0
10, 41472, Note_off_c, 4, 45, 0
10, 41664, Note_on_c, 4, 57, 100
10, 41852, Note_off_c, 4, 57, 0
10, 41856, Note_on_c, 4, 57, 100
10, 42044, Note_off_c, 4, 57, 0
10, 42048, Note_on_c, 4, 45, 100
10, 42236, Note_off_c, 4, 45, 0
10, 42240, Note_on_c, 4, 43, 100
10, 42428, Note_off_c, 4, 43, 0
10, 42432, Note_on_c, 4, 55, 100
10, 42620, Note_off_c, 4, 55, 0
10, 42624, Note_on_c, 4, 55, 100
10, 42812, Note_off_c, 4, 55, 0
10, 42816, Note_on_c, 4, 43, 100
10, 43004, Note_off_c, 4, 43, 0
10, 43008, Note_on_c, 4, 41, 100
10, 43196, Note_off_c, 4, 41, 0
10, 43200, Note_on_c, 4, 53, 100
10, 43388, Note_off_c, 4, 53, 0
10, 43392, Note_on_c, 4, 53, 100
10, 43580, Note_off_c, 4, 53, 0
10, 43584, Note_on_c, 4, 41, 100
10, 43772, Note_off_c, 4, 41, 0
10, 43776, Note_on_c, 4, 42, 100
10, 43964, Note_off_c, 4, 42, 0
10, 43968, Note_on_c, 4, 54, 100
10, 44156, Note_off_c, 4, 54, 0
10, 44160, Note_on_c, 4, 54, 100
10, 44348, Note_off_c, 4, 54, 0
10, 44352, Note_on_c, 4, 42, 100
10, 44540, Note_off_c, 4, 42, 0
10, 44544, Note_on_c, 4, 43, 100
10, 44732, Note_off_c, 4, 43, 0
10, 44736, Note_on_c, 4, 55, 100
10, 44924, Note_off_c, 4, 55, 0
10, 44928, Note_on_c, 4, 55, 100
10, 45116, Note_off_c, 4, 55, 0
10, 45120, Note_on_c, 4, 43, 100
10, 45308, Note_off_c, 4, 43, 0
10, 45312, Note_on_c, 4, 41, 100
10, 45500, Note_off_c, 4, 41, 0
10, 45504, Note_on_c, 4, 53, 100
10, 45692, Note_off_c, 4, 53, 0
10, 45696, Note_on_c, 4, 53, 100
10, 45884, Note_off_c, 4, 53, 0
10, 45888, Note_on_c, 4, 41, 100
10, 46076, Note_off_c, 4, 41, 0
10, 46080, Note_on_c, 4, 40, 100
10, 46268, Note_off_c, 4, 40, 0
10, 46272, Note_on_c, 4, 52, 100
10, 46460, Note_off_c, 4, 52, 0
10, 46464, Note_on_c, 4, 52, 100
10, 46652, Note_off_c, 4, 52, 0
10, 46656, Note_on_c, 4, 40, 100
10, 46844, Note_off_c, 4, 40, 0
10, 46848, Note_on_c, 4, 40, 100
10, 47036, Note_off_c, 4, 40, 0
10, 47040, Note_on_c, 4, 52, 100
10, 47228, Note_off_c, 4, 52, 0
10, 47232, Note_on_c, 4, 52, 100
10, 47420, Note_off_c, 4, 52, 0
10, 47424, Note_on_c, 4, 40, 100
10, 47612, Note_off_c, 4, 40, 0
10, 47616, Note_on_c, 4, 41, 100
10, 47804, Note_off_c, 4, 41, 0
10, 47808, Note_on_c, 4, 53, 100
10, 47996, Note_off_c, 4, 53, 0
10, 48000, Note_on_c, 4, 53, 100
10, 48188, Note_off_c, 4, 53, 0
10, 48192, Note_on_c, 4, 41, 100
10, 48380, Note_off_c, 4, 41, 0
10, 48384, Note_on_c, 4, 39, 100
10, 48572, Note_off_c, 4, 39, 0
10, 48576, Note_on_c, 4, 51, 100
10, 48764, Note_off_c, 4, 51, 0
10, 48768, Note_on_c, 4, 51, 100
10, 48956, Note_off_c, 4, 51, 0
10, 48960, Note_on_c, 4, 39, 100
10, 49148, Note_off_c, 4, 39, 0
10, 49152, Note_on_c, 4, 38, 100
10, 49340, Note_off_c, 4, 38, 0
10, 49344, Note_on_c, 4, 50, 100
10, 49532, Note_off_c, 4, 50, 0
10, 49536, Note_on_c, 4, 50, 100
10, 49724, Note_off_c, 4, 50, 0
10, 49728, Note_on_c, 4, 38, 100
10, 49916, Note_off_c, 4, 38, 0
10, 49920, Note_on_c, 4, 38, 100
10, 50108, Note_off_c, 4, 38, 0
10, 50112, Note_on_c, 4, 50, 100
10, 50300, Note_off_c, 4, 50, 0
10, 50304, Note_on_c, 4, 50, 100
10, 50492, Note_off_c, 4, 50, 0
10, 50496, Note_on_c, 4, 38, 100
10, 50684, Note_off_c, 4, 38, 0
10, 50688, Note_on_c, 4, 38, 100
10, 50780, Note_off_c, 4, 38, 0
10, 50784, Note_on_c, 4, 62, 100
10, 50876, Note_off_c, 4, 62, 0
10, 50880, Note_on_c, 4, 59, 100
10, 50972, Note_off_c, 4, 59, 0
10, 50976, Note_on_c, 4, 56, 100
10, 51068, Note_off_c, 4, 56, 0
10, 51072, Note_on_c, 4, 52, 100
10, 51164, Note_off_c, 4, 52, 0
10, 51168, Note_on_c, 4, 59, 100
10, 51260, Note_off_c, 4, 59, 0
10, 51264, Note_on_c, 4, 55, 100
10, 51356, Note_off_c, 4, 55, 0
10, 51360, Note_on_c, 4, 52, 100
10, 51452, Note_off_c, 4, 52, 0
10, 51456, Note_on_c, 4, 48, 100
10, 51644, Note_off_c, 4, 48, 0
10, 51648, Note_on_c, 4, 60, 100
10, 51836, Note_off_c, 4, 60, 0
10, 52320, Note_on_c, 4, 60, 100
10, 52412, Note_off_c, 4, 60, 0
10, 52416, Note_on_c, 4, 57, 100
10, 52508, Note_off_c, 4, 57, 0
10, 52512, Note_on_c, 4, 54, 100
10, 52604, Note_off_c, 4, 54, 0
10, 52608, Note_on_c, 4, 50, 100
10, 52700, Note_off_c, 4, 50, 0
10, 52704, Note_on_c, 4, 57, 100
10, 52796, Note_off_c, 4, 57, 0
10, 52800, Note_on_c, 4, 54, 100
10, 52892, Note_off_c, 4, 54, 0
10, 52896, Note_on_c, 4, 50, 100
10, 52988, Note_off_c, 4, 50, 0
10, 52992, Note_on_c, 4, 46, 100
10, 53180, Note_off_c, 4, 46, 0
10, 53184, Note_on_c, 4, 58, 100
10, 53372, Note_off_c, 4, 58, 0
10, 53856, Note_on_c, 4, 58, 100
10, 53948, Note_off_c, 4, 58, 0
10, 53952, Note_on_c, 4, 55, 100
10, 54044, Note_off_c, 4, 55, 0
10, 54048, Note_on_c, 4, 52, 100
10, 54140, Note_off_c, 4, 52, 0
10, 54144, Note_on_c, 4, 48, 100
10, 54236, Note_off_c, 4, 48, 0
10, 54240, Note_on_c, 4, 55, 100
10, 54332, Note_off_c, 4, 55, 0
10, 54336, Note_on_c, 4, 52, 100
10, 54428, Note_off_c, 4, 52, 0
10, 54432, Note_on_c, 4, 48, 100
10, 54524, Note_off_c, 4, 48, 0
10, 54528, Note_on_c, 4, 45, 100
10, 54716, Note_off_c, 4, 45, 0
10, 54720, Note_on_c, 4, 57, 100
10, 54908, Note_off_c, 4, 57, 0
10, 55008, Note_on_c, 4, 57, 100
10, 55100, Note_off_c, 4, 57, 0
10, 55104, Note_on_c, 4, 60, 100
10, 55196, Note_off_c, 4, 60, 0
10, 55200, Note_on_c, 4, 57, 100
10, 55292, Note_off_c, 4, 57, 0
10, 55296, Note_on_c, 4, 45, 100
10, 55388, Note_off_c, 4, 45, 0
10, 55392, Note_on_c, 4, 50, 100
10, 55484, Note_off_c, 4, 50, 0
10, 55488, Note_on_c, 4, 53, 100
10, 55580, Note_off_c, 4, 53, 0
10, 55584, Note_on_c, 4, 57, 100
10, 55676, Note_off_c, 4, 57, 0
10, 55680, Note_on_c, 4, 43, 100
10, 55772, Note_off_c, 4, 43, 0
10, 55776, Note_on_c, 4, 55, 100
10, 55868, Note_off_c, 4, 55, 0
10, 55872, Note_on_c, 4, 58, 100
10, 55964, Note_off_c, 4, 58, 0
10, 55968, Note_on_c, 4, 55, 100
10, 56060, Note_off_c, 4, 55, 0
10, 56064, Note_on_c, 4, 43, 100
10, 56156, Note_off_c, 4, 43, 0
10, 56160, Note_on_c, 4, 48, 100
10, 56252, Note_off_c, 4, 48, 0
10, 56256, Note_on_c, 4, 52, 100
10, 56348, Note_off_c, 4, 52, 0
10, 56352, Note_on_c, 4, 55, 100
10, 56444, Note_off_c, 4, 55, 0
10, 56448, Note_on_c, 4, 41, 100
10, 56540, Note_off_c, 4, 41, 0
10, 56544, Note_on_c, 4, 53, 100
10, 56636, Note_off_c, 4, 53, 0
10, 56640, Note_on_c, 4, 57, 100
10, 56732, Note_off_c, 4, 57, 0
10, 56736, Note_on_c, 4, 53, 100
10, 56828, Note_off_c, 4, 53, 0
10, 56832, Note_on_c, 4, 41, 100
10, 56924, Note_off_c, 4, 41, 0
10, 56928, Note_on_c, 4, 46, 100
10, 57020, Note_off_c, 4, 46, 0
10, 57024, Note_on_c, 4, 50, 100
10, 57116, Note_off_c, 4, 50, 0
10, 57120, Note_on_c, 4, 53, 100
10, 57212, Note_off_c, 4, 53, 0
10, 57216, Note_on_c, 4, 40, 100
10, 57308, Note_off_c, 4, 40, 0
10, 57312, Note_on_c, 4, 52, 100
10, 57404, Note_off_c, 4, 52, 0
10, 57408, Note_on_c, 4, 55, 100
10, 57500, Note_off_c, 4, 55, 0
10, 57504, Note_on_c, 4, 52, 100
10, 57596, Note_off_c, 4, 52, 0
10, 57600, Note_on_c, 4, 41, 100
10, 57692, Note_off_c, 4, 41, 0
10, 57696, Note_on_c, 4, 45, 100
10, 57788, Note_off_c, 4, 45, 0
10, 57792, Note_on_c, 4, 46, 100
10, 57884, Note_off_c, 4, 46, 0
10, 57888, Note_on_c, 4, 48, 100
10, 57980, Note_off_c, 4, 48, 0
10, 57984, Note_on_c, 4, 50, 100
10, 58076, Note_off_c, 4, 50, 0
10, 58080, Note_on_c, 4, 52, 100
10, 58172, Note_off_c, 4, 52, 0
10, 58176, Note_on_c, 4, 53, 100
10, 58268, Note_off_c, 4, 53, 0
10, 58272, Note_on_c, 4, 52, 100
10, 58364, Note_off_c, 4, 52, 0
10, 58368, Note_on_c, 4, 50, 100
10, 58460, Note_off_c, 4, 50, 0
10, 58464, Note_on_c, 4, 52, 100
10, 58556, Note_off_c, 4, 52, 0
10, 58560, Note_on_c, 4, 53, 100
10, 58652, Note_off_c, 4, 53, 0
10, 58656, Note_on_c, 4, 55, 100
10, 58748, Note_off_c, 4, 55, 0
10, 58752, Note_on_c, 4, 57, 100
10, 58844, Note_off_c, 4, 57, 0
10, 58848, Note_on_c, 4, 58, 100
10, 58940, Note_off_c, 4, 58, 0
10, 58944, Note_on_c, 4, 60, 100
10, 59036, Note_off_c, 4, 60, 0
10, 59040, Note_on_c, 4, 58, 100
10, 59132, Note_off_c, 4, 58, 0
10, 59136, Note_on_c, 4, 57, 100
10, 59324, Note_off_c, 4, 57, 0
10, 59328, Note_on_c, 4, 60, 100
10, 59372, Note_off_c, 4, 60, 0
10, 59376, Note_on_c, 4, 58, 100
10, 59420, Note_off_c, 4, 58, 0
10, 59424, Note_on_c, 4, 57, 100
10, 59468, Note_off_c, 4, 57, 0
10, 59472, Note_on_c, 4, 58, 100
10, 59516, Note_off_c, 4, 58, 0
10, 59520, Note_on_c, 4, 60, 100
10, 59708, Note_off_c, 4, 60, 0
10, 59712, Note_on_c, 4, 48, 100
10, 59900, Note_off_c, 4, 48, 0
10, 59904, Note_on_c, 4, 53, 100
10, 59904, Note_on_c, 4, 41, 100
10, 60284, Note_off_c, 4, 53, 0
10, 60284, Note_off_c, 4, 41, 0
10, 60672, Note_on_c, 4, 57, 100
10, 60764, Note_off_c, 4, 57, 0
10, 60768, Note_on_c, 4, 58, 100
10, 60860, Note_off_c, 4, 58, 0
10, 60864, Note_on_c, 4, 60, 100
10, 60956, Note_off_c, 4, 60, 0
10, 60960, Note_on_c, 4, 58, 100
10, 61052, Note_off_c, 4, 58, 0
10, 61056, Note_on_c, 4, 62, 100
10, 61148, Note_off_c, 4, 62, 0
10, 61152, Note_on_c, 4, 60, 100
10, 61244, Note_off_c, 4, 60, 0
10, 61248, Note_on_c, 4, 58, 100
10, 61340, Note_off_c, 4, 58, 0
10, 61344, Note_on_c, 4, 57, 100
10, 61436, Note_off_c, 4, 57, 0
10, 61440, Note_on_c, 4, 55, 100
10, 61532, Note_off_c, 4, 55, 0
10, 61536, Note_on_c, 4, 57, 100
10, 61628, Note_off_c, 4, 57, 0
10, 61632, Note_on_c, 4, 58, 100
10, 61724, Note_off_c, 4, 58, 0
10, 61728, Note_on_c, 4, 57, 100
10, 61820, Note_off_c, 4, 57, 0
10, 61824, Note_on_c, 4, 58, 100
10, 61916, Note_off_c, 4, 58, 0
10, 61920, Note_on_c, 4, 57, 100
10, 62012, Note_off_c, 4, 57, 0
10, 62016, Note_on_c, 4, 55, 100
10, 62108, Note_off_c, 4, 55, 0
10, 62112, Note_on_c, 4, 53, 100
10, 62204, Note_off_c, 4, 53, 0
10, 62208, Note_on_c, 4, 52, 100
10, 62300, Note_off_c, 4, 52, 0
10, 62304, Note_on_c, 4, 53, 100
10, 62396, Note_off_c, 4, 53, 0
10, 62400, Note_on_c, 4, 52, 100
10, 62492, Note_off_c, 4, 52, 0
10, 62496, Note_on_c, 4, 50, 100
10, 62588, Note_off_c, 4, 50, 0
10, 62592, Note_on_c, 4, 48, 100
10, 62684, Note_off_c, 4, 48, 0
10, 62688, Note_on_c, 4, 46, 100
10, 62780, Note_off_c, 4, 46, 0
10, 62784, Note_on_c, 4, 45, 100
10, 62876, Note_off_c, 4, 45, 0
10, 62880, Note_on_c, 4, 43, 100
10, 62972, Note_off_c, 4, 43, 0
10, 62976, Note_on_c, 4, 53, 100
10, 62976, Note_on_c, 4, 41, 100
10, 62976, Note_on_c, 4, 48, 100
10, 63356, Note_off_c, 4, 53, 0
10, 63356, Note_off_c, 4, 41, 0
10, 63356, Note_off_c, 4, 48, 0
10, 63936, Note_on_c, 4, 60, 100
10, 63936, Note_on_c, 4, 50, 100
10, 64124, Note_off_c, 4, 60, 0
10, 64124, Note_off_c, 4, 50, 0
10, 64128, Note_on_c, 4, 58, 100
10, 64128, Note_on_c, 4, 52, 100
10, 64316, Note_off_c, 4, 58, 0
10, 64316, Note_off_c, 4, 52, 0
10, 64320, Note_on_c, 4, 57, 100
10, 64320, Note_on_c, 4, 54, 100
10, 64508, Note_off_c, 4, 57, 0
10, 64508, Note_off_c, 4, 54, 0
10, 64512, Note_on_c, 4, 55, 100
10, 64512, Note_on_c, 4, 50, 100
10, 64512, Note_on_c, 4, 43, 100
10, 64892, Note_off_c, 4, 55, 0
10, 64892, Note_off_c, 4, 50, 0
10, 64892, Note_off_c, 4, 43, 0
10, 65472, Note_on_c, 4, 62, 100
10, 65472, Note_on_c, 4, 52, 100
10, 65660, Note_off_c, 4, 62, 0
10, 65660, Note_off_c, 4, 52, 0
10, 65664, Note_on_c, 4, 60, 100
10, 65664, Note_on_c, 4, 54, 100
10, 65852, Note_off_c, 4, 60, 0
10, 65852, Note_off_c, 4, 54, 0
10, 65856, Note_on_c, 4, 56, 100
10, 65856, Note_on_c, 4, 59, 100
10, 66044, Note_off_c, 4, 56, 0
10, 66044, Note_off_c, 4, 59, 0
10, 66048, Note_on_c, 4, 57, 100
10, 66048, Note_on_c, 4, 45, 100
10, 66048, Note_on_c, 4, 52, 100
10, 66428, Note_off_c, 4, 57, 0
10, 66428, Note_off_c, 4, 45, 0
10, 66428, Note_off_c, 4, 52, 0
10, 67008, Note_on_c, 4, 67, 100
10, 67008, Note_on_c, 4, 57, 100
10, 67196, Note_off_c, 4, 67, 0
10, 67196, Note_off_c, 4, 57, 0
10, 67200, Note_on_c, 4, 65, 100
10, 67200, Note_on_c, 4, 59, 100
10, 67388, Note_off_c, 4, 65, 0
10, 67388, Note_off_c, 4, 59, 0
10, 67392, Note_on_c, 4, 64, 100
10, 67392, Note_on_c, 4, 61, 100
10, 67580, Note_off_c, 4, 64, 0
10, 67580, Note_off_c, 4, 61, 0
10, 67584, Note_on_c, 4, 62, 100
10, 67772, Note_off_c, 4, 62, 0
10, 67776, Note_on_c, 4, 49, 100
10, 67964, Note_off_c, 4, 49, 0
10, 67968, Note_on_c, 4, 50, 100
10, 68156, Note_off_c, 4, 50, 0
10, 68160, Note_on_c, 4, 52, 100
10, 68348, Note_off_c, 4, 52, 0
10, 68352, Note_on_c, 4, 53, 100
10, 68540, Note_off_c, 4, 53, 0
10, 68544, Note_on_c, 4, 52, 100
10, 68732, Note_off_c, 4, 52, 0
10, 68736, Note_on_c, 4, 53, 100
10, 68924, Note_off_c, 4, 53, 0
10, 68928, Note_on_c, 4, 50, 100
10, 69116, Note_off_c, 4, 50, 0
10, 69120, Note_on_c, 4, 56, 100
10, 69120, Note_on_c, 4, 52, 100
10, 69500, Note_off_c, 4, 56, 0
10, 69500, Note_off_c, 4, 52, 0
10, 69888, Note_on_c, 4, 52, 100
10, 69888, Note_on_c, 4, 56, 100
10, 70268, Note_off_c, 4, 52, 0
10, 70268, Note_off_c, 4, 56, 0
10, 70656, Note_on_c, 4, 52, 100
10, 70656, Note_on_c, 4, 57, 100
10, 70656, Note_on_c, 4, 45, 100
10, 71036, Note_off_c, 4, 52, 0
10, 71036, Note_off_c, 4, 57, 0
10, 71036, Note_off_c, 4, 45, 0
10, 71424, Note_on_c, 4, 52, 100
10, 71424, Note_on_c, 4, 45, 100
10, 71424, Note_on_c, 4, 57, 100
10, 71804, Note_off_c, 4, 52, 0
10, 71804, Note_off_c, 4, 45, 0
10, 71804, Note_off_c, 4, 57, 0
10, 72192, Note_on_c, 4, 57, 100
10, 72192, Note_on_c, 4, 61, 100
10, 72572, Note_off_c, 4, 57, 0
10, 72572, Note_off_c, 4, 61, 0
10, 72960, Note_on_c, 4, 61, 100
10, 72960, Note_on_c, 4, 57, 100
10, 73340, Note_off_c, 4, 61, 0
10, 73340, Note_off_c, 4, 57, 0
10, 73728, Note_on_c, 4, 57, 100
10, 73728, Note_on_c, 4, 50, 100
10, 73728, Note_on_c, 4, 62, 100
10, 74108, Note_off_c, 4, 57, 0
10, 74108, Note_off_c, 4, 50, 0
10, 74108, Note_off_c, 4, 62, 0
10, 74496, Note_on_c, 4, 57, 100
10, 74496, Note_on_c, 4, 62, 100
10, 74496, Note_on_c, 4, 50, 100
10, 74876, Note_off_c, 4, 57, 0
10, 74876, Note_off_c, 4, 62, 0
10, 74876, Note_off_c, 4, 50, 0
10, 75264, Note_on_c, 4, 59, 100
10, 75264, Note_on_c, 4, 63, 100
10, 75644, Note_off_c, 4, 59, 0
10, 75644, Note_off_c, 4, 63, 0
10, 76032, Note_on_c, 4, 63, 100
10, 76032, Note_on_c, 4, 59, 100
10, 76412, Note_off_c, 4, 63, 0
10, 76412, Note_off_c, 4, 59, 0
10, 76800, Note_on_c, 4, 64, 100
10, 76800, Note_on_c, 4, 68, 100
10, 77180, Note_off_c, 4, 64, 0
10, 77180, Note_off_c, 4, 68, 0
10, 77568, Note_on_c, 4, 68, 100
10, 77568, Note_on_c, 4, 64, 100
10, 77948, Note_off_c, 4, 68, 0
10, 77948, Note_off_c, 4, 64, 0
10, 78336, Note_on_c, 4, 69, 100
10, 78336, Note_on_c, 4, 57, 100
10, 78716, Note_off_c, 4, 69, 0
10, 78716, Note_off_c, 4, 57, 0
10, 79104, Note_on_c, 4, 64, 100
10, 79104, Note_on_c, 4, 55, 100
10, 79484, Note_off_c, 4, 64, 0
10, 79484, Note_off_c, 4, 55, 0
10, 79872, Note_on_c, 4, 65, 100
10, 79872, Note_on_c, 4, 53, 100
10, 80252, Note_off_c, 4, 65, 0
10, 80252, Note_off_c, 4, 53, 0
10, 80640, Note_on_c, 4, 60, 100
10, 80640, Note_on_c, 4, 52, 100
10, 81020, Note_off_c, 4, 60, 0
10, 81020, Note_off_c, 4, 52, 0
10, 81408, Note_on_c, 4, 62, 100
10, 81408, Note_on_c, 4, 50, 100
10, 81788, Note_off_c, 4, 62, 0
10, 81788, Note_off_c, 4, 50, 0
10, 82176, Note_on_c, 4, 52, 100
10, 82176, Note_on_c, 4, 44, 100
10, 82556, Note_off_c, 4, 52, 0
10, 82556, Note_off_c, 4, 44, 0
10, 82944, Note_on_c, 4, 52, 100
10, 82944, Note_on_c, 4, 45, 100
10, 83324, Note_off_c, 4, 52, 0
10, 83324, Note_off_c, 4, 45, 0
10, 83520, Note_on_c, 4, 45, 100
10, 83612, Note_off_c, 4, 45, 0
10, 83616, Note_on_c, 4, 47, 100
10, 83708, Note_off_c, 4, 47, 0
10, 83712, Note_on_c, 4, 48, 100
10, 83900, Note_off_c, 4, 48, 0
10, 83904, Note_on_c, 4, 52, 100
10, 83948, Note_off_c, 4, 52, 0
10, 83956, Note_on_c, 4, 50, 100
10, 84000, Note_off_c, 4, 50, 0
10, 84000, Note_on_c, 4, 48, 100
10, 84044, Note_off_c, 4, 48, 0
10, 84048, Note_on_c, 4, 50, 100
10, 84092, Note_off_c, 4, 50, 0
10, 84096, Note_on_c, 4, 52, 100
10, 84284, Note_off_c, 4, 52, 0
10, 84288, Note_on_c, 4, 40, 100
10, 84476, Note_off_c, 4, 40, 0
10, 84480, Note_on_c, 4, 57, 100
10, 84480, Note_on_c, 4, 45, 100
10, 84480, Note_on_c, 4, 48, 100
10, 84480, Note_on_c, 4, 52, 100
10, 84860, Note_off_c, 4, 57, 0
10, 84860, Note_off_c, 4, 45, 0
10, 84860, Note_off_c, 4, 48, 0
10, 84860, Note_off_c, 4, 52, 0
10, 85248, Note_on_c, 4, 57, 100
10, 85340, Note_off_c, 4, 57, 0
10, 85344, Note_on_c, 4, 59, 100
10, 85436, Note_off_c, 4, 59, 0
10, 85440, Note_on_c, 4, 60, 100
10, 85568, Note_off_c, 4, 60, 0
10, 85632, Note_on_c, 4, 59, 100
10, 85820, Note_off_c, 4, 59, 0
10, 85824, Note_on_c, 4, 57, 100
10, 86012, Note_off_c, 4, 57, 0
10, 86016, Note_on_c, 4, 62, 100
10, 86204, Note_off_c, 4, 62, 0
10, 86208, Note_on_c, 4, 71, 100
10, 86300, Note_off_c, 4, 71, 0
10, 86304, Note_on_c, 4, 68, 100
10, 86396, Note_off_c, 4, 68, 0
10, 86400, Note_on_c, 4, 60, 100
10, 86588, Note_off_c, 4, 60, 0
10, 86592, Note_on_c, 4, 69, 100
10, 86684, Note_off_c, 4, 69, 0
10, 86688, Note_on_c, 4, 65, 100
10, 86780, Note_off_c, 4, 65, 0
10, 86784, Note_on_c, 4, 59, 100
10, 86876, Note_off_c, 4, 59, 0
10, 86880, Note_on_c, 4, 60, 100
10, 86972, Note_off_c, 4, 60, 0
10, 86976, Note_on_c, 4, 62, 100
10, 87068, Note_off_c, 4, 62, 0
10, 87072, Note_on_c, 4, 59, 100
10, 87164, Note_off_c, 4, 59, 0
10, 87168, Note_on_c, 4, 57, 100
10, 87260, Note_off_c, 4, 57, 0
10, 87264, Note_on_c, 4, 59, 100
10, 87356, Note_off_c, 4, 59, 0
10, 87360, Note_on_c, 4, 62, 100
10, 87452, Note_off_c, 4, 62, 0
10, 87456, Note_on_c, 4, 59, 100
10, 87548, Note_off_c, 4, 59, 0
10, 87552, Note_on_c, 4, 56, 100
10, 87644, Note_off_c, 4, 56, 0
10, 87648, Note_on_c, 4, 57, 100
10, 87740, Note_off_c, 4, 57, 0
10, 87744, Note_on_c, 4, 59, 100
10, 87836, Note_off_c, 4, 59, 0
10, 87840, Note_on_c, 4, 56, 100
10, 87932, Note_off_c, 4, 56, 0
10, 87936, Note_on_c, 4, 57, 100
10, 88028, Note_off_c, 4, 57, 0
10, 88032, Note_on_c, 4, 60, 100
10, 88124, Note_off_c, 4, 60, 0
10, 88128, Note_on_c, 4, 59, 100
10, 88220, Note_off_c, 4, 59, 0
10, 88224, Note_on_c, 4, 57, 100
10, 88316, Note_off_c, 4, 57, 0
10, 88320, Note_on_c, 4, 59, 100
10, 88412, Note_off_c, 4, 59, 0
10, 88416, Note_on_c, 4, 60, 100
10, 88508, Note_off_c, 4, 60, 0
10, 88512, Note_on_c, 4, 62, 100
10, 88604, Note_off_c, 4, 62, 0
10, 88608, Note_on_c, 4, 59, 100
10, 88700, Note_off_c, 4, 59, 0
10, 88704, Note_on_c, 4, 60, 100
10, 88796, Note_off_c, 4, 60, 0
10, 88800, Note_on_c, 4, 64, 100
10, 88892, Note_off_c, 4, 64, 0
10, 88896, Note_on_c, 4, 62, 100
10, 88988, Note_off_c, 4, 62, 0
10, 88992, Note_on_c, 4, 60, 100
10, 89084, Note_off_c, 4, 60, 0
10, 89088, Note_on_c, 4, 62, 100
10, 89180, Note_off_c, 4, 62, 0
10, 89184, Note_on_c, 4, 50, 100
10, 89276, Note_off_c, 4, 50, 0
10, 89280, Note_on_c, 4, 62, 100
10, 89372, Note_off_c, 4, 62, 0
10, 89376, Note_on_c, 4, 60, 100
10, 89468, Note_off_c, 4, 60, 0
10, 89472, Note_on_c, 4, 62, 100
10, 89660, Note_off_c, 4, 62, 0
10, 89952, Note_on_c, 4, 50, 100
10, 90044, Note_off_c, 4, 50, 0
10, 90048, Note_on_c, 4, 62, 100
10, 90140, Note_off_c, 4, 62, 0
10, 90144, Note_on_c, 4, 60, 100
10, 90236, Note_off_c, 4, 60, 0
10, 90240, Note_on_c, 4, 62, 100
10, 90428, Note_off_c, 4, 62, 0
10, 90624, Note_on_c, 4, 59, 100
10, 90624, Note_on_c, 4, 52, 100
10, 90624, Note_on_c, 4, 50, 100
10, 90812, Note_off_c, 4, 59, 0
10, 90812, Note_off_c, 4, 52, 0
10, 90908, Note_off_c, 4, 50, 0
10, 90912, Note_on_c, 4, 52, 100
10, 91004, Note_off_c, 4, 52, 0
10, 91008, Note_on_c, 4, 54, 100
10, 91100, Note_off_c, 4, 54, 0
10, 91104, Note_on_c, 4, 56, 100
10, 91196, Note_off_c, 4, 56, 0
10, 91200, Note_on_c, 4, 57, 100
10, 91292, Note_off_c, 4, 57, 0
10, 91296, Note_on_c, 4, 59, 100
10, 91388, Note_off_c, 4, 59, 0
10, 91392, Note_on_c, 4, 61, 100
10, 91484, Note_off_c, 4, 61, 0
10, 91488, Note_on_c, 4, 62, 100
10, 91580, Note_off_c, 4, 62, 0
10, 91584, Note_on_c, 4, 64, 100
10, 91712, Note_off_c, 4, 64, 0
10, 91776, Note_on_c, 4, 64, 100
10, 91868, Note_off_c, 4, 64, 0
10, 91872, Note_on_c, 4, 65, 100
10, 91964, Note_off_c, 4, 65, 0
10, 91968, Note_on_c, 4, 67, 100
10, 92096, Note_off_c, 4, 67, 0
10, 92160, Note_on_c, 4, 58, 100
10, 92160, Note_on_c, 4, 55, 100
10, 92288, Note_off_c, 4, 58, 0
10, 92288, Note_off_c, 4, 55, 0
10, 92352, Note_on_c, 4, 57, 100
10, 92352, Note_on_c, 4, 53, 100
10, 92480, Note_off_c, 4, 57, 0
10, 92480, Note_off_c, 4, 53, 0
10, 92544, Note_on_c, 4, 59, 100
10, 92544, Note_on_c, 4, 53, 100
10, 92672, Note_off_c, 4, 59, 0
10, 92672, Note_off_c, 4, 53, 0
10, 92736, Note_on_c, 4, 60, 100
10, 92736, Note_on_c, 4, 52, 100
10, 92864, Note_off_c, 4, 60, 0
10, 92864, Note_off_c, 4, 52, 0
10, 92928, Note_on_c, 4, 51, 100
10, 93116, Note_off_c, 4, 51, 0
10, 93312, Note_on_c, 4, 52, 100
10, 93500, Note_off_c, 4, 52, 0
10, 93696, Note_on_c, 4, 57, 100
10, 93788, Note_off_c, 4, 57, 0
10, 93792, Note_on_c, 4, 69, 100
10, 93884, Note_off_c, 4, 69, 0
10, 93984, Note_on_c, 4, 69, 100
10, 94076, Note_off_c, 4, 69, 0
10, 94176, Note_on_c, 4, 69, 100
10, 94268, Note_off_c, 4, 69, 0
10, 94368, Note_on_c, 4, 69, 100
10, 94460, Note_off_c, 4, 69, 0
10, 94560, Note_on_c, 4, 69, 100
10, 94652, Note_off_c, 4, 69, 0
10, 94752, Note_on_c, 4, 69, 100
10, 94844, Note_off_c, 4, 69, 0
10, 94944, Note_on_c, 4, 69, 100
10, 95036, Note_off_c, 4, 69, 0
10, 95136, Note_on_c, 4, 69, 100
10, 95228, Note_off_c, 4, 69, 0
10, 95232, Note_on_c, 4, 57, 100
10, 95324, Note_off_c, 4, 57, 0
10, 95328, Note_on_c, 4, 69, 100
10, 95420, Note_off_c, 4, 69, 0
10, 95520, Note_on_c, 4, 69, 100
10, 95612, Note_off_c, 4, 69, 0
10, 95712, Note_on_c, 4, 69, 100
10, 95804, Note_off_c, 4, 69, 0
10, 95904, Note_on_c, 4, 69, 100
10, 95996, Note_off_c, 4, 69, 0
10, 96096, Note_on_c, 4, 69, 100
10, 96188, Note_off_c, 4, 69, 0
10, 96288, Note_on_c, 4, 69, 100
10, 96380, Note_off_c, 4, 69, 0
10, 96480, Note_on_c, 4, 69, 100
10, 96572, Note_off_c, 4, 69, 0
10, 96672, Note_on_c, 4, 69, 100
10, 96764, Note_off_c, 4, 69, 0
10, 96768, Note_on_c, 4, 57, 100
10, 96860, Note_off_c, 4, 57, 0
10, 96864, Note_on_c, 4, 69, 100
10, 96956, Note_off_c, 4, 69, 0
10, 97056, Note_on_c, 4, 69, 100
10, 97148, Note_off_c, 4, 69, 0
10, 97248, Note_on_c, 4, 69, 100
10, 97340, Note_off_c, 4, 69, 0
10, 97440, Note_on_c, 4, 69, 100
10, 97532, Note_off_c, 4, 69, 0
10, 97632, Note_on_c, 4, 69, 100
10, 97724, Note_off_c, 4, 69, 0
10, 97824, Note_on_c, 4, 69, 100
10, 97916, Note_off_c, 4, 69, 0
10, 98016, Note_on_c, 4, 69, 100
10, 98108, Note_off_c, 4, 69, 0
10, 98208, Note_on_c, 4, 69, 100
10, 98300, Note_off_c, 4, 69, 0
10, 98400, Note_on_c, 4, 69, 100
10, 98492, Note_off_c, 4, 69, 0
10, 98592, Note_on_c, 4, 69, 100
10, 98684, Note_off_c, 4, 69, 0
10, 98784, Note_on_c, 4, 69, 100
10, 98876, Note_off_c, 4, 69, 0
10, 98976, Note_on_c, 4, 69, 100
10, 99068, Note_off_c, 4, 69, 0
10, 99168, Note_on_c, 4, 69, 100
10, 99260, Note_off_c, 4, 69, 0
10, 99360, Note_on_c, 4, 69, 100
10, 99452, Note_off_c, 4, 69, 0
10, 99552, Note_on_c, 4, 69, 100
10, 99644, Note_off_c, 4, 69, 0
10, 99744, Note_on_c, 4, 69, 100
10, 99836, Note_off_c, 4, 69, 0
10, 99936, Note_on_c, 4, 69, 100
10, 100028, Note_off_c, 4, 69, 0
10, 100128, Note_on_c, 4, 69, 100
10, 100220, Note_off_c, 4, 69, 0
10, 100320, Note_on_c, 4, 69, 100
10, 100412, Note_off_c, 4, 69, 0
10, 100512, Note_on_c, 4, 69, 100
10, 100604, Note_off_c, 4, 69, 0
10, 100704, Note_on_c, 4, 69, 100
10, 100796, Note_off_c, 4, 69, 0
10, 100896, Note_on_c, 4, 69, 100
10, 100988, Note_off_c, 4, 69, 0
10, 101088, Note_on_c, 4, 69, 100
10, 101180, Note_off_c, 4, 69, 0
10, 101280, Note_on_c, 4, 69, 100
10, 101372, Note_off_c, 4, 69, 0
10, 101472, Note_on_c, 4, 69, 100
10, 101564, Note_off_c, 4, 69, 0
10, 101664, Note_on_c, 4, 69, 100
10, 101756, Note_off_c, 4, 69, 0
10, 101856, Note_on_c, 4, 69, 100
10, 101948, Note_off_c, 4, 69, 0
10, 102048, Note_on_c, 4, 69, 100
10, 102140, Note_off_c, 4, 69, 0
10, 102240, Note_on_c, 4, 69, 100
10, 102332, Note_off_c, 4, 69, 0
10, 102432, Note_on_c, 4, 69, 100
10, 102524, Note_off_c, 4, 69, 0
10, 102624, Note_on_c, 4, 69, 100
10, 102716, Note_off_c, 4, 69, 0
10, 102816, Note_on_c, 4, 69, 100
10, 102908, Note_off_c, 4, 69, 0
10, 103008, Note_on_c, 4, 69, 100
10, 103100, Note_off_c, 4, 69, 0
10, 103200, Note_on_c, 4, 69, 100
10, 103292, Note_off_c, 4, 69, 0
10, 103392, Note_on_c, 4, 69, 100
10, 103484, Note_off_c, 4, 69, 0
10, 103584, Note_on_c, 4, 69, 100
10, 103676, Note_off_c, 4, 69, 0
10, 103776, Note_on_c, 4, 69, 100
10, 103868, Note_off_c, 4, 69, 0
10, 103968, Note_on_c, 4, 69, 100
10, 104060, Note_off_c, 4, 69, 0
10, 104160, Note_on_c, 4, 69, 100
10, 104252, Note_off_c, 4, 69, 0
10, 104352, Note_on_c, 4, 69, 100
10, 104444, Note_off_c, 4, 69, 0
10, 104448, Note_on_c, 4, 72, 100
10, 104540, Note_off_c, 4, 72, 0
10, 104640, Note_on_c, 4, 57, 100
10, 104732, Note_off_c, 4, 57, 0
10, 104736, Note_on_c, 4, 59, 100
10, 104828, Note_off_c, 4, 59, 0
10, 104832, Note_on_c, 4, 57, 100
10, 105020, Note_off_c, 4, 57, 0
10, 105024, Note_on_c, 4, 55, 100
10, 105212, Note_off_c, 4, 55, 0
10, 105216, Note_on_c, 4, 54, 100
10, 105404, Note_off_c, 4, 54, 0
10, 105408, Note_on_c, 4, 59, 100
10, 105500, Note_off_c, 4, 59, 0
10, 105504, Note_on_c, 4, 57, 100
10, 105596, Note_off_c, 4, 57, 0
10, 105600, Note_on_c, 4, 59, 100
10, 105788, Note_off_c, 4, 59, 0
10, 105792, Note_on_c, 4, 47, 100
10, 105980, Note_off_c, 4, 47, 0
10, 105984, Note_on_c, 4, 52, 100
10, 106076, Note_off_c, 4, 52, 0
10, 106080, Note_on_c, 4, 64, 100
10, 106172, Note_off_c, 4, 64, 0
10, 106272, Note_on_c, 4, 76, 100
10, 106364, Note_off_c, 4, 76, 0
10, 106464, Note_on_c, 4, 76, 100
10, 106556, Note_off_c, 4, 76, 0
10, 106656, Note_on_c, 4, 76, 100
10, 106748, Note_off_c, 4, 76, 0
10, 106848, Note_on_c, 4, 76, 100
10, 106940, Note_off_c, 4, 76, 0
10, 107040, Note_on_c, 4, 76, 100
10, 107132, Note_off_c, 4, 76, 0
10, 107232, Note_on_c, 4, 76, 100
10, 107324, Note_off_c, 4, 76, 0
10, 107424, Note_on_c, 4, 76, 100
10, 107516, Note_off_c, 4, 76, 0
10, 107520, Note_on_c, 4, 64, 100
10, 107612, Note_off_c, 4, 64, 0
10, 107616, Note_on_c, 4, 76, 100
10, 107708, Note_off_c, 4, 76, 0
10, 107808, Note_on_c, 4, 76, 100
10, 107900, Note_off_c, 4, 76, 0
10, 108000, Note_on_c, 4, 76, 100
10, 108092, Note_off_c, 4, 76, 0
10, 108192, Note_on_c, 4, 76, 100
10, 108284, Note_off_c, 4, 76, 0
10, 108384, Note_on_c, 4, 76, 100
10, 108476, Note_off_c, 4, 76, 0
10, 108576, Note_on_c, 4, 76, 100
10, 108668, Note_off_c, 4, 76, 0
10, 108768, Note_on_c, 4, 76, 100
10, 108860, Note_off_c, 4, 76, 0
10, 108960, Note_on_c, 4, 76, 100
10, 109052, Note_off_c, 4, 76, 0
10, 109056, Note_on_c, 4, 64, 100
10, 109148, Note_off_c, 4, 64, 0
10, 109152, Note_on_c, 4, 76, 100
10, 109244, Note_off_c, 4, 76, 0
10, 109344, Note_on_c, 4, 76, 100
10, 109436, Note_off_c, 4, 76, 0
10, 109536, Note_on_c, 4, 76, 100
10, 109628, Note_off_c, 4, 76, 0
10, 109728, Note_on_c, 4, 76, 100
10, 109820, Note_off_c, 4, 76, 0
10, 109920, Note_on_c, 4, 76, 100
10, 110012, Note_off_c, 4, 76, 0
10, 110112, Note_on_c, 4, 76, 100
10, 110204, Note_off_c, 4, 76, 0
10, 110304, Note_on_c, 4, 76, 100
10, 110396, Note_off_c, 4, 76, 0
10, 110496, Note_on_c, 4, 76, 100
10, 110588, Note_off_c, 4, 76, 0
10, 110688, Note_on_c, 4, 76, 100
10, 110780, Note_off_c, 4, 76, 0
10, 110880, Note_on_c, 4, 76, 100
10, 110972, Note_off_c, 4, 76, 0
10, 111072, Note_on_c, 4, 76, 100
10, 111164, Note_off_c, 4, 76, 0
10, 111264, Note_on_c, 4, 76, 100
10, 111356, Note_off_c, 4, 76, 0
10, 111456, Note_on_c, 4, 76, 100
10, 111548, Note_off_c, 4, 76, 0
10, 111648, Note_on_c, 4, 76, 100
10, 111740, Note_off_c, 4, 76, 0
10, 111840, Note_on_c, 4, 76, 100
10, 111932, Note_off_c, 4, 76, 0
10, 112032, Note_on_c, 4, 76, 100
10, 112124, Note_off_c, 4, 76, 0
10, 112224, Note_on_c, 4, 76, 100
10, 112316, Note_off_c, 4, 76, 0
10, 112416, Note_on_c, 4, 76, 100
10, 112508, Note_off_c, 4, 76, 0
10, 112608, Note_on_c, 4, 76, 100
10, 112700, Note_off_c, 4, 76, 0
10, 112800, Note_on_c, 4, 76, 100
10, 112892, Note_off_c, 4, 76, 0
10, 112992, Note_on_c, 4, 76, 100
10, 113084, Note_off_c, 4, 76, 0
10, 113184, Note_on_c, 4, 76, 100
10, 113276, Note_off_c, 4, 76, 0
10, 113376, Note_on_c, 4, 76, 100
10, 113468, Note_off_c, 4, 76, 0
10, 113568, Note_on_c, 4, 76, 100
10, 113660, Note_off_c, 4, 76, 0
10, 113760, Note_on_c, 4, 76, 100
10, 113852, Note_off_c, 4, 76, 0
10, 113952, Note_on_c, 4, 76, 100
10, 114044, Note_off_c, 4, 76, 0
10, 114144, Note_on_c, 4, 76, 100
10, 114236, Note_off_c, 4, 76, 0
10, 114336, Note_on_c, 4, 76, 100
10, 114428, Note_off_c, 4, 76, 0
10, 114528, Note_on_c, 4, 76, 100
10, 114620, Note_off_c, 4, 76, 0
10, 114720, Note_on_c, 4, 76, 100
10, 114812, Note_off_c, 4, 76, 0
10, 114912, Note_on_c, 4, 76, 100
10, 115004, Note_off_c, 4, 76, 0
10, 115104, Note_on_c, 4, 76, 100
10, 115196, Note_off_c, 4, 76, 0
10, 115296, Note_on_c, 4, 76, 100
10, 115388, Note_off_c, 4, 76, 0
10, 115488, Note_on_c, 4, 76, 100
10, 115580, Note_off_c, 4, 76, 0
10, 115680, Note_on_c, 4, 76, 100
10, 115772, Note_off_c, 4, 76, 0
10, 115872, Note_on_c, 4, 76, 100
10, 115964, Note_off_c, 4, 76, 0
10, 116064, Note_on_c, 4, 76, 100
10, 116156, Note_off_c, 4, 76, 0
10, 116256, Note_on_c, 4, 76, 100
10, 116348, Note_off_c, 4, 76, 0
10, 116448, Note_on_c, 4, 76, 100
10, 116540, Note_off_c, 4, 76, 0
10, 116640, Note_on_c, 4, 76, 100
10, 116732, Note_off_c, 4, 76, 0
10, 116832, Note_on_c, 4, 76, 100
10, 116924, Note_off_c, 4, 76, 0
10, 117024, Note_on_c, 4, 76, 100
10, 117116, Note_off_c, 4, 76, 0
10, 117216, Note_on_c, 4, 76, 100
10, 117308, Note_off_c, 4, 76, 0
10, 117408, Note_on_c, 4, 76, 100
10, 117500, Note_off_c, 4, 76, 0
10, 117600, Note_on_c, 4, 76, 100
10, 117692, Note_off_c, 4, 76, 0
10, 117792, Note_on_c, 4, 76, 100
10, 117884, Note_off_c, 4, 76, 0
10, 117984, Note_on_c, 4, 76, 100
10, 118076, Note_off_c, 4, 76, 0
10, 118176, Note_on_c, 4, 76, 100
10, 118268, Note_off_c, 4, 76, 0
10, 118368, Note_on_c, 4, 76, 100
10, 118460, Note_off_c, 4, 76, 0
10, 118560, Note_on_c, 4, 76, 100
10, 118652, Note_off_c, 4, 76, 0
10, 118752, Note_on_c, 4, 76, 100
10, 118844, Note_off_c, 4, 76, 0
10, 118944, Note_on_c, 4, 76, 100
10, 119036, Note_off_c, 4, 76, 0
10, 119136, Note_on_c, 4, 76, 100
10, 119228, Note_off_c, 4, 76, 0
10, 119328, Note_on_c, 4, 76, 100
10, 119420, Note_off_c, 4, 76, 0
10, 119520, Note_on_c, 4, 76, 100
10, 119612, Note_off_c, 4, 76, 0
10, 119712, Note_on_c, 4, 76, 100
10, 119804, Note_off_c, 4, 76, 0
10, 119904, Note_on_c, 4, 76, 100
10, 119996, Note_off_c, 4, 76, 0
10, 120096, Note_on_c, 4, 76, 100
10, 120188, Note_off_c, 4, 76, 0
10, 120288, Note_on_c, 4, 76, 100
10, 120380, Note_off_c, 4, 76, 0
10, 120480, Note_on_c, 4, 76, 100
10, 120572, Note_off_c, 4, 76, 0
10, 120672, Note_on_c, 4, 76, 100
10, 120764, Note_off_c, 4, 76, 0
10, 120864, Note_on_c, 4, 76, 100
10, 120956, Note_off_c, 4, 76, 0
10, 121056, Note_on_c, 4, 76, 100
10, 121148, Note_off_c, 4, 76, 0
10, 121248, Note_on_c, 4, 76, 100
10, 121340, Note_off_c, 4, 76, 0
10, 121440, Note_on_c, 4, 76, 100
10, 121532, Note_off_c, 4, 76, 0
10, 121632, Note_on_c, 4, 76, 100
10, 121724, Note_off_c, 4, 76, 0
10, 121824, Note_on_c, 4, 76, 100
10, 121916, Note_off_c, 4, 76, 0
10, 122016, Note_on_c, 4, 76, 100
10, 122108, Note_off_c, 4, 76, 0
10, 122208, Note_on_c, 4, 76, 100
10, 122300, Note_off_c, 4, 76, 0
10, 122400, Note_on_c, 4, 76, 100
10, 122492, Note_off_c, 4, 76, 0
10, 122592, Note_on_c, 4, 76, 100
10, 122684, Note_off_c, 4, 76, 0
10, 122784, Note_on_c, 4, 76, 100
10, 122876, Note_off_c, 4, 76, 0
10, 122976, Note_on_c, 4, 77, 100
10, 123068, Note_off_c, 4, 77, 0
10, 123168, Note_on_c, 4, 77, 100
10, 123260, Note_off_c, 4, 77, 0
10, 123360, Note_on_c, 4, 77, 100
10, 123452, Note_off_c, 4, 77, 0
10, 123552, Note_on_c, 4, 77, 100
10, 123644, Note_off_c, 4, 77, 0
10, 123744, Note_on_c, 4, 76, 100
10, 123836, Note_off_c, 4, 76, 0
10, 123936, Note_on_c, 4, 76, 100
10, 124028, Note_off_c, 4, 76, 0
10, 124128, Note_on_c, 4, 76, 100
10, 124220, Note_off_c, 4, 76, 0
10, 124320, Note_on_c, 4, 76, 100
10, 124412, Note_off_c, 4, 76, 0
10, 124416, Note_on_c, 4, 65, 100
10, 124508, Note_off_c, 4, 65, 0
10, 125184, Note_on_c, 4, 65, 100
10, 125276, Note_off_c, 4, 65, 0
10, 125952, Note_on_c, 4, 65, 100
10, 126044, Note_off_c, 4, 65, 0
10, 126720, Note_on_c, 4, 65, 100
10, 126812, Note_off_c, 4, 65, 0
10, 127488, Note_on_c, 4, 63, 100
10, 127580, Note_off_c, 4, 63, 0
10, 128256, Note_on_c, 4, 63, 100
10, 128348, Note_off_c, 4, 63, 0
10, 129024, Note_on_c, 4, 62, 100
10, 129116, Note_off_c, 4, 62, 0
10, 129792, Note_on_c, 4, 62, 100
10, 129884, Note_off_c, 4, 62, 0
10, 130560, Note_on_c, 4, 57, 100
10, 130652, Note_off_c, 4, 57, 0
10, 131328, Note_on_c, 4, 57, 100
10, 131420, Note_off_c, 4, 57, 0
10, 132096, Note_on_c, 4, 55, 100
10, 132188, Note_off_c, 4, 55, 0
10, 132864, Note_on_c, 4, 55, 100
10, 132956, Note_off_c, 4, 55, 0
10, 133632, Note_on_c, 4, 55, 100
10, 133724, Note_off_c, 4, 55, 0
10, 134400, Note_on_c, 4, 55, 100
10, 134492, Note_off_c, 4, 55, 0
10, 135168, Note_on_c, 4, 55, 100
10, 135260, Note_off_c, 4, 55, 0
10, 135936, Note_on_c, 4, 55, 100
10, 136028, Note_off_c, 4, 55, 0
10, 136704, Note_on_c, 4, 55, 100
10, 136796, Note_off_c, 4, 55, 0
10, 137472, Note_on_c, 4, 55, 100
10, 137564, Note_off_c, 4, 55, 0
10, 138240, Note_on_c, 4, 48, 100
10, 138428, Note_off_c, 4, 48, 0
10, 139008, Note_on_c, 4, 52, 100
10, 139100, Note_off_c, 4, 52, 0
10, 139104, Note_on_c, 4, 53, 100
10, 139196, Note_off_c, 4, 53, 0
10, 139200, Note_on_c, 4, 55, 100
10, 139292, Note_off_c, 4, 55, 0
10, 139296, Note_on_c, 4, 53, 100
10, 139388, Note_off_c, 4, 53, 0
10, 139392, Note_on_c, 4, 57, 100
10, 139484, Note_off_c, 4, 57, 0
10, 139488, Note_on_c, 4, 55, 100
10, 139580, Note_off_c, 4, 55, 0
10, 139584, Note_on_c, 4, 53, 100
10, 139676, Note_off_c, 4, 53, 0
10, 139680, Note_on_c, 4, 52, 100
10, 139772, Note_off_c, 4, 52, 0
10, 139776, Note_on_c, 4, 50, 100
10, 139868, Note_off_c, 4, 50, 0
10, 139872, Note_on_c, 4, 52, 100
10, 139964, Note_off_c, 4, 52, 0
10, 139968, Note_on_c, 4, 53, 100
10, 140060, Note_off_c, 4, 53, 0
10, 140064, Note_on_c, 4, 52, 100
10, 140156, Note_off_c, 4, 52, 0
10, 140160, Note_on_c, 4, 53, 100
10, 140252, Note_off_c, 4, 53, 0
10, 140256, Note_on_c, 4, 52, 100
10, 140348, Note_off_c, 4, 52, 0
10, 140352, Note_on_c, 4, 50, 100
10, 140444, Note_off_c, 4, 50, 0
10, 140448, Note_on_c, 4, 48, 100
10, 140540, Note_off_c, 4, 48, 0
10, 140544, Note_on_c, 4, 50, 100
10, 140636, Note_off_c, 4, 50, 0
10, 140640, Note_on_c, 4, 48, 100
10, 140732, Note_off_c, 4, 48, 0
10, 140736, Note_on_c, 4, 47, 100
10, 140828, Note_off_c, 4, 47, 0
10, 140832, Note_on_c, 4, 45, 100
10, 140924, Note_off_c, 4, 45, 0
10, 140928, Note_on_c, 4, 43, 100
10, 141020, Note_off_c, 4, 43, 0
10, 141024, Note_on_c, 4, 41, 100
10, 141116, Note_off_c, 4, 41, 0
10, 141120, Note_on_c, 4, 40, 100
10, 141212, Note_off_c, 4, 40, 0
10, 141216, Note_on_c, 4, 38, 100
10, 141308, Note_off_c, 4, 38, 0
10, 141312, Note_on_c, 4, 36, 100
10, 141500, Note_off_c, 4, 36, 0
10, 142272, Note_on_c, 4, 57, 100
10, 142272, Note_on_c, 4, 61, 100
10, 142460, Note_off_c, 4, 57, 0
10, 142460, Note_off_c, 4, 61, 0
10, 142464, Note_on_c, 4, 59, 100
10, 142464, Note_on_c, 4, 62, 100
10, 142652, Note_off_c, 4, 59, 0
10, 142652, Note_off_c, 4, 62, 0
10, 142656, Note_on_c, 4, 61, 100
10, 142656, Note_on_c, 4, 64, 100
10, 142844, Note_off_c, 4, 61, 0
10, 142844, Note_off_c, 4, 64, 0
10, 142848, Note_on_c, 4, 62, 100
10, 143020, Note_off_c, 4, 62, 0
10, 143808, Note_on_c, 4, 62, 100
10, 143808, Note_on_c, 4, 66, 100
10, 143980, Note_off_c, 4, 62, 0
10, 143980, Note_off_c, 4, 66, 0
10, 144000, Note_on_c, 4, 64, 100
10, 144000, Note_on_c, 4, 67, 100
10, 144172, Note_off_c, 4, 64, 0
10, 144172, Note_off_c, 4, 67, 0
10, 144192, Note_on_c, 4, 66, 100
10, 144192, Note_on_c, 4, 69, 100
10, 144364, Note_off_c, 4, 66, 0
10, 144364, Note_off_c, 4, 69, 0
10, 144384, Note_on_c, 4, 67, 100
10, 144384, Note_on_c, 4, 55, 100
10, 144448, Note_off_c, 4, 67, 0
10, 144480, Note_on_c, 4, 66, 100
10, 144512, Note_off_c, 4, 55, 0
10, 144544, Note_off_c, 4, 66, 0
10, 144576, Note_on_c, 4, 67, 100
10, 144640, Note_off_c, 4, 67, 0
10, 145152, Note_on_c, 4, 67, 100
10, 145152, Note_on_c, 4, 55, 100
10, 145216, Note_off_c, 4, 67, 0
10, 145248, Note_on_c, 4, 66, 100
10, 145280, Note_off_c, 4, 55, 0
10, 145312, Note_off_c, 4, 66, 0
10, 145344, Note_on_c, 4, 67, 100
10, 145408, Note_off_c, 4, 67, 0
10, 145920, Note_on_c, 4, 67, 100
10, 145920, Note_on_c, 4, 57, 100
10, 146108, Note_off_c, 4, 67, 0
10, 146108, Note_off_c, 4, 57, 0
10, 146688, Note_on_c, 4, 67, 100
10, 146688, Note_on_c, 4, 57, 100
10, 146876, Note_off_c, 4, 67, 0
10, 146876, Note_off_c, 4, 57, 0
10, 147456, Note_on_c, 4, 58, 100
10, 147456, Note_on_c, 4, 67, 100
10, 147644, Note_off_c, 4, 58, 0
10, 147644, Note_off_c, 4, 67, 0
10, 148224, Note_on_c, 4, 58, 100
10, 148224, Note_on_c, 4, 67, 100
10, 148412, Note_off_c, 4, 58, 0
10, 148412, Note_off_c, 4, 67, 0
10, 148992, Note_on_c, 4, 67, 100
10, 148992, Note_on_c, 4, 60, 100
10, 149084, Note_off_c, 4, 67, 0
10, 149084, Note_off_c, 4, 60, 0
10, 149088, Note_on_c, 4, 66, 100
10, 149180, Note_off_c, 4, 66, 0
10, 149184, Note_on_c, 4, 67, 100
10, 149276, Note_off_c, 4, 67, 0
10, 149760, Note_on_c, 4, 67, 100
10, 149760, Note_on_c, 4, 60, 100
10, 149852, Note_off_c, 4, 67, 0
10, 149852, Note_off_c, 4, 60, 0
10, 149856, Note_on_c, 4, 66, 100
10, 149948, Note_off_c, 4, 66, 0
10, 149952, Note_on_c, 4, 67, 100
10, 150044, Note_off_c, 4, 67, 0
10, 150528, Note_on_c, 4, 60, 100
10, 150528, Note_on_c, 4, 66, 100
10, 150620, Note_off_c, 4, 60, 0
10, 150620, Note_off_c, 4, 66, 0
10, 150624, Note_on_c, 4, 64, 100
10, 150716, Note_off_c, 4, 64, 0
10, 150720, Note_on_c, 4, 66, 100
10, 150812, Note_off_c, 4, 66, 0
10, 151296, Note_on_c, 4, 60, 100
10, 151296, Note_on_c, 4, 66, 100
10, 151388, Note_off_c, 4, 60, 0
10, 151388, Note_off_c, 4, 66, 0
10, 151392, Note_on_c, 4, 64, 100
10, 151484, Note_off_c, 4, 64, 0
10, 151488, Note_on_c, 4, 66, 100
10, 151580, Note_off_c, 4, 66, 0
10, 152064, Note_on_c, 4, 61, 100
10, 152064, Note_on_c, 4, 66, 100
10, 152156, Note_off_c, 4, 61, 0
10, 152156, Note_off_c, 4, 66, 0
10, 152160, Note_on_c, 4, 64, 100
10, 152252, Note_off_c, 4, 64, 0
10, 152256, Note_on_c, 4, 66, 100
10, 152348, Note_off_c, 4, 66, 0
10, 152352, Note_on_c, 4, 61, 100
10, 152444, Note_off_c, 4, 61, 0
10, 152448, Note_on_c, 4, 64, 100
10, 152540, Note_off_c, 4, 64, 0
10, 152544, Note_on_c, 4, 67, 100
10, 152636, Note_off_c, 4, 67, 0
10, 152736, Note_on_c, 4, 66, 100
10, 152828, Note_off_c, 4, 66, 0
10, 152832, Note_on_c, 4, 61, 100
10, 152832, Note_on_c, 4, 66, 100
10, 152924, Note_off_c, 4, 61, 0
10, 152924, Note_off_c, 4, 66, 0
10, 152928, Note_on_c, 4, 64, 100
10, 153020, Note_off_c, 4, 64, 0
10, 153024, Note_on_c, 4, 66, 100
10, 153116, Note_off_c, 4, 66, 0
10, 153120, Note_on_c, 4, 61, 100
10, 153212, Note_off_c, 4, 61, 0
10, 153216, Note_on_c, 4, 64, 100
10, 153308, Note_off_c, 4, 64, 0
10, 153312, Note_on_c, 4, 67, 100
10, 153404, Note_off_c, 4, 67, 0
10, 153600, Note_on_c, 4, 66, 100
10, 153600, Note_on_c, 4, 63, 100
10, 153692, Note_off_c, 4, 66, 0
10, 153692, Note_off_c, 4, 63, 0
10, 153888, Note_on_c, 4, 57, 100
10, 153980, Note_off_c, 4, 57, 0
10, 153984, Note_on_c, 4, 60, 100
10, 154076, Note_off_c, 4, 60, 0
10, 154080, Note_on_c, 4, 63, 100
10, 154172, Note_off_c, 4, 63, 0
10, 154368, Note_on_c, 4, 66, 100
10, 154368, Note_on_c, 4, 63, 100
10, 154460, Note_off_c, 4, 66, 0
10, 154460, Note_off_c, 4, 63, 0
10, 154656, Note_on_c, 4, 57, 100
10, 154748, Note_off_c, 4, 57, 0
10, 154752, Note_on_c, 4, 60, 100
10, 154844, Note_off_c, 4, 60, 0
10, 154848, Note_on_c, 4, 66, 100
10, 154940, Note_off_c, 4, 66, 0
10, 154944, Note_on_c, 4, 69, 100
10, 155036, Note_off_c, 4, 69, 0
10, 155136, Note_on_c, 4, 62, 100
10, 155136, Note_on_c, 4, 72, 100
10, 155228, Note_off_c, 4, 62, 0
10, 155228, Note_off_c, 4, 72, 0
10, 155424, Note_on_c, 4, 62, 100
10, 155516, Note_off_c, 4, 62, 0
10, 155520, Note_on_c, 4, 66, 100
10, 155612, Note_off_c, 4, 66, 0
10, 155616, Note_on_c, 4, 69, 100
10, 155708, Note_off_c, 4, 69, 0
10, 155712, Note_on_c, 4, 72, 100
10, 155804, Note_off_c, 4, 72, 0
10, 155904, Note_on_c, 4, 62, 100
10, 155904, Note_on_c, 4, 72, 100
10, 155996, Note_off_c, 4, 62, 0
10, 155996, Note_off_c, 4, 72, 0
10, 156192, Note_on_c, 4, 62, 100
10, 156284, Note_off_c, 4, 62, 0
10, 156288, Note_on_c, 4, 69, 100
10, 156380, Note_off_c, 4, 69, 0
10, 156384, Note_on_c, 4, 72, 100
10, 156476, Note_off_c, 4, 72, 0
10, 156864, Note_on_c, 4, 74, 100
10, 156956, Note_off_c, 4, 74, 0
10, 156960, Note_on_c, 4, 69, 100
10, 157052, Note_off_c, 4, 69, 0
10, 157056, Note_on_c, 4, 70, 100
10, 157148, Note_off_c, 4, 70, 0
10, 157152, Note_on_c, 4, 66, 100
10, 157244, Note_off_c, 4, 66, 0
10, 157248, Note_on_c, 4, 67, 100
10, 157340, Note_off_c, 4, 67, 0
10, 157344, Note_on_c, 4, 62, 100
10, 157436, Note_off_c, 4, 62, 0
10, 157440, Note_on_c, 4, 63, 100
10, 157532, Note_off_c, 4, 63, 0
10, 157536, Note_on_c, 4, 62, 100
10, 157628, Note_off_c, 4, 62, 0
10, 157632, Note_on_c, 4, 63, 100
10, 157724, Note_off_c, 4, 63, 0
10, 157728, Note_on_c, 4, 60, 100
10, 157820, Note_off_c, 4, 60, 0
10, 157824, Note_on_c, 4, 62, 100
10, 158012, Note_off_c, 4, 62, 0
10, 158016, Note_on_c, 4, 50, 100
10, 158204, Note_off_c, 4, 50, 0
10, 158208, Note_on_c, 4, 55, 100
10, 158588, Note_off_c, 4, 55, 0
10, 158976, Note_on_c, 4, 55, 100
10, 159068, Note_off_c, 4, 55, 0
10, 159072, Note_on_c, 4, 57, 100
10, 159164, Note_off_c, 4, 57, 0
10, 159168, Note_on_c, 4, 58, 100
10, 159296, Note_off_c, 4, 58, 0
10, 159360, Note_on_c, 4, 57, 100
10, 159548, Note_off_c, 4, 57, 0
10, 159552, Note_on_c, 4, 55, 100
10, 159740, Note_off_c, 4, 55, 0
10, 159744, Note_on_c, 4, 60, 100
10, 159836, Note_off_c, 4, 60, 0
10, 159840, Note_on_c, 4, 58, 100
10, 159932, Note_off_c, 4, 58, 0
10, 159936, Note_on_c, 4, 60, 100
10, 160028, Note_off_c, 4, 60, 0
10, 160032, Note_on_c, 4, 62, 100
10, 160124, Note_off_c, 4, 62, 0
10, 160128, Note_on_c, 4, 58, 100
10, 160220, Note_off_c, 4, 58, 0
10, 160224, Note_on_c, 4, 57, 100
10, 160316, Note_off_c, 4, 57, 0
10, 160320, Note_on_c, 4, 58, 100
10, 160412, Note_off_c, 4, 58, 0
10, 160416, Note_on_c, 4, 60, 100
10, 160508, Note_off_c, 4, 60, 0
10, 160512, Note_on_c, 4, 57, 100
10, 160604, Note_off_c, 4, 57, 0
10, 160608, Note_on_c, 4, 45, 100
10, 160700, Note_off_c, 4, 45, 0
10, 160704, Note_on_c, 4, 48, 100
10, 160796, Note_off_c, 4, 48, 0
10, 160800, Note_on_c, 4, 51, 100
10, 160892, Note_off_c, 4, 51, 0
10, 160896, Note_on_c, 4, 55, 100
10, 160988, Note_off_c, 4, 55, 0
10, 160992, Note_on_c, 4, 43, 100
10, 161084, Note_off_c, 4, 43, 0
10, 161088, Note_on_c, 4, 48, 100
10, 161180, Note_off_c, 4, 48, 0
10, 161184, Note_on_c, 4, 51, 100
10, 161276, Note_off_c, 4, 51, 0
10, 161280, Note_on_c, 4, 42, 100
10, 161344, Note_off_c, 4, 42, 0
10, 161376, Note_on_c, 4, 57, 100
10, 161468, Note_off_c, 4, 57, 0
10, 161472, Note_on_c, 4, 55, 100
10, 161564, Note_off_c, 4, 55, 0
10, 161568, Note_on_c, 4, 54, 100
10, 161660, Note_off_c, 4, 54, 0
10, 161664, Note_on_c, 4, 43, 100
10, 161728, Note_off_c, 4, 43, 0
10, 161760, Note_on_c, 4, 58, 100
10, 161852, Note_off_c, 4, 58, 0
10, 161856, Note_on_c, 4, 57, 100
10, 161948, Note_off_c, 4, 57, 0
10, 161952, Note_on_c, 4, 55, 100
10, 162044, Note_off_c, 4, 55, 0
10, 162048, Note_on_c, 4, 45, 100
10, 162112, Note_off_c, 4, 45, 0
10, 162144, Note_on_c, 4, 60, 100
10, 162236, Note_off_c, 4, 60, 0
10, 162240, Note_on_c, 4, 58, 100
10, 162332, Note_off_c, 4, 58, 0
10, 162336, Note_on_c, 4, 57, 100
10, 162428, Note_off_c, 4, 57, 0
10, 162432, Note_on_c, 4, 46, 100
10, 162496, Note_off_c, 4, 46, 0
10, 162528, Note_on_c, 4, 62, 100
10, 162620, Note_off_c, 4, 62, 0
10, 162624, Note_on_c, 4, 60, 100
10, 162716, Note_off_c, 4, 60, 0
10, 162720, Note_on_c, 4, 58, 100
10, 162812, Note_off_c, 4, 58, 0
10, 162816, Note_on_c, 4, 60, 100
10, 162908, Note_off_c, 4, 60, 0
10, 162912, Note_on_c, 4, 48, 100
10, 163004, Note_off_c, 4, 48, 0
10, 163008, Note_on_c, 4, 60, 100
10, 163100, Note_off_c, 4, 60, 0
10, 163104, Note_on_c, 4, 58, 100
10, 163196, Note_off_c, 4, 58, 0
10, 163200, Note_on_c, 4, 60, 100
10, 163388, Note_off_c, 4, 60, 0
10, 163680, Note_on_c, 4, 51, 100
10, 163772, Note_off_c, 4, 51, 0
10, 163776, Note_on_c, 4, 63, 100
10, 163868, Note_off_c, 4, 63, 0
10, 163872, Note_on_c, 4, 62, 100
10, 163964, Note_off_c, 4, 62, 0
10, 163968, Note_on_c, 4, 63, 100
10, 164156, Note_off_c, 4, 63, 0
10, 164448, Note_on_c, 4, 58, 100
10, 164540, Note_off_c, 4, 58, 0
10, 164544, Note_on_c, 4, 57, 100
10, 164636, Note_off_c, 4, 57, 0
10, 164640, Note_on_c, 4, 55, 100
10, 164732, Note_off_c, 4, 55, 0
10, 164736, Note_on_c, 4, 54, 100
10, 164828, Note_off_c, 4, 54, 0
10, 164832, Note_on_c, 4, 51, 100
10, 164924, Note_off_c, 4, 51, 0
10, 164928, Note_on_c, 4, 50, 100
10, 165020, Note_off_c, 4, 50, 0
10, 165024, Note_on_c, 4, 48, 100
10, 165116, Note_off_c, 4, 48, 0
10, 165120, Note_on_c, 4, 46, 100
10, 165212, Note_off_c, 4, 46, 0
10, 165216, Note_on_c, 4, 48, 100
10, 165308, Note_off_c, 4, 48, 0
10, 165312, Note_on_c, 4, 50, 100
10, 165404, Note_off_c, 4, 50, 0
10, 165408, Note_on_c, 4, 51, 100
10, 165500, Note_off_c, 4, 51, 0
10, 165504, Note_on_c, 4, 50, 100
10, 165596, Note_off_c, 4, 50, 0
10, 165600, Note_on_c, 4, 51, 100
10, 165692, Note_off_c, 4, 51, 0
10, 165696, Note_on_c, 4, 53, 100
10, 165788, Note_off_c, 4, 53, 0
10, 165792, Note_on_c, 4, 55, 100
10, 165884, Note_off_c, 4, 55, 0
10, 165888, Note_on_c, 4, 53, 100
10, 165980, Note_off_c, 4, 53, 0
10, 165984, Note_on_c, 4, 62, 100
10, 166076, Note_off_c, 4, 62, 0
10, 166080, Note_on_c, 4, 51, 100
10, 166172, Note_off_c, 4, 51, 0
10, 166176, Note_on_c, 4, 50, 100
10, 166268, Note_off_c, 4, 50, 0
10, 166272, Note_on_c, 4, 51, 100
10, 166364, Note_off_c, 4, 51, 0
10, 166368, Note_on_c, 4, 60, 100
10, 166460, Note_off_c, 4, 60, 0
10, 166464, Note_on_c, 4, 50, 100
10, 166556, Note_off_c, 4, 50, 0
10, 166560, Note_on_c, 4, 58, 100
10, 166652, Note_off_c, 4, 58, 0
10, 166656, Note_on_c, 4, 49, 100
10, 166656, Note_on_c, 4, 52, 100
10, 166656, Note_on_c, 4, 55, 100
10, 167036, Note_off_c, 4, 49, 0
10, 167036, Note_off_c, 4, 52, 0
10, 167036, Note_off_c, 4, 55, 0
10, 171660, Note_on_c, 4, 57, 100
10, 171904, Note_on_c, 4, 59, 100
10, 171932, Note_off_c, 4, 57, 0
10, 172028, Note_on_c, 4, 57, 100
10, 172032, Note_off_c, 4, 59, 0
10, 172116, Note_off_c, 4, 57, 0
10, 172120, Note_on_c, 4, 59, 100
10, 172200, Note_on_c, 4, 57, 100
10, 172216, Note_off_c, 4, 59, 0
10, 172256, Note_on_c, 4, 59, 100
10, 172296, Note_off_c, 4, 57, 0
10, 172332, Note_on_c, 4, 57, 100
10, 172352, Note_off_c, 4, 59, 0
10, 172388, Note_on_c, 4, 59, 100
10, 172412, Note_off_c, 4, 57, 0
10, 172464, Note_on_c, 4, 57, 100
10, 172468, Note_off_c, 4, 59, 0
10, 172512, Note_on_c, 4, 59, 100
10, 172540, Note_off_c, 4, 57, 0
10, 172560, Note_on_c, 4, 57, 100
10, 172576, Note_off_c, 4, 59, 0
10, 173060, Note_off_c, 4, 57, 0
10, 173280, Note_on_c, 4, 59, 100
10, 173372, Note_off_c, 4, 59, 0
10, 173376, Note_on_c, 4, 61, 100
10, 173468, Note_off_c, 4, 61, 0
10, 173472, Note_on_c, 4, 62, 100
10, 173564, Note_off_c, 4, 62, 0
10, 173952, Note_on_c, 4, 61, 100
10, 174044, Note_off_c, 4, 61, 0
10, 174048, Note_on_c, 4, 62, 100
10, 174140, Note_off_c, 4, 62, 0
10, 174144, Note_on_c, 4, 64, 100
10, 174236, Note_off_c, 4, 64, 0
10, 174240, Note_on_c, 4, 65, 100
10, 174332, Note_off_c, 4, 65, 0
10, 177600, Note_on_c, 4, 51, 100
10, 177728, Note_off_c, 4, 51, 0
10, 177792, Note_on_c, 4, 48, 100
10, 177920, Note_off_c, 4, 48, 0
10, 177984, Note_on_c, 4, 50, 100
10, 178112, Note_off_c, 4, 50, 0
10, 178176, Note_on_c, 4, 55, 100
10, 178268, Note_off_c, 4, 55, 0
10, 178272, Note_on_c, 4, 57, 100
10, 178364, Note_off_c, 4, 57, 0
10, 178368, Note_on_c, 4, 58, 100
10, 178496, Note_off_c, 4, 58, 0
10, 178560, Note_on_c, 4, 57, 100
10, 178748, Note_off_c, 4, 57, 0
10, 178752, Note_on_c, 4, 55, 100
10, 178940, Note_off_c, 4, 55, 0
10, 178944, Note_on_c, 4, 60, 100
10, 179036, Note_off_c, 4, 60, 0
10, 179040, Note_on_c, 4, 62, 100
10, 179132, Note_off_c, 4, 62, 0
10, 179136, Note_on_c, 4, 64, 100
10, 179264, Note_off_c, 4, 64, 0
10, 179328, Note_on_c, 4, 62, 100
10, 179516, Note_off_c, 4, 62, 0
10, 179520, Note_on_c, 4, 60, 100
10, 179708, Note_off_c, 4, 60, 0
10, 179712, Note_on_c, 4, 53, 100
10, 179804, Note_off_c, 4, 53, 0
10, 179808, Note_on_c, 4, 55, 100
10, 179900, Note_off_c, 4, 55, 0
10, 179904, Note_on_c, 4, 57, 100
10, 180032, Note_off_c, 4, 57, 0
10, 180096, Note_on_c, 4, 55, 100
10, 180284, Note_off_c, 4, 55, 0
10, 180288, Note_on_c, 4, 53, 100
10, 180476, Note_off_c, 4, 53, 0
10, 180480, Note_on_c, 4, 58, 100
10, 180572, Note_off_c, 4, 58, 0
10, 180576, Note_on_c, 4, 60, 100
10, 180668, Note_off_c, 4, 60, 0
10, 180672, Note_on_c, 4, 62, 100
10, 180800, Note_off_c, 4, 62, 0
10, 180864, Note_on_c, 4, 60, 100
10, 181052, Note_off_c, 4, 60, 0
10, 181056, Note_on_c, 4, 58, 100
10, 181244, Note_off_c, 4, 58, 0
10, 181248, Note_on_c, 4, 52, 100
10, 181340, Note_off_c, 4, 52, 0
10, 181344, Note_on_c, 4, 53, 100
10, 181436, Note_off_c, 4, 53, 0
10, 181440, Note_on_c, 4, 55, 100
10, 181568, Note_off_c, 4, 55, 0
10, 181632, Note_on_c, 4, 53, 100
10, 181820, Note_off_c, 4, 53, 0
10, 181824, Note_on_c, 4, 52, 100
10, 182012, Note_off_c, 4, 52, 0
10, 182016, Note_on_c, 4, 57, 100
10, 182108, Note_off_c, 4, 57, 0
10, 182112, Note_on_c, 4, 59, 100
10, 182204, Note_off_c, 4, 59, 0
10, 182208, Note_on_c, 4, 61, 100
10, 182336, Note_off_c, 4, 61, 0
10, 182400, Note_on_c, 4, 59, 100
10, 182588, Note_off_c, 4, 59, 0
10, 182592, Note_on_c, 4, 57, 100
10, 182780, Note_off_c, 4, 57, 0
10, 182784, Note_on_c, 4, 50, 100
10, 182876, Note_off_c, 4, 50, 0
10, 182880, Note_on_c, 4, 52, 100
10, 182972, Note_off_c, 4, 52, 0
10, 182976, Note_on_c, 4, 53, 100
10, 183104, Note_off_c, 4, 53, 0
10, 183168, Note_on_c, 4, 52, 100
10, 183356, Note_off_c, 4, 52, 0
10, 183360, Note_on_c, 4, 50, 100
10, 183548, Note_off_c, 4, 50, 0
10, 183552, Note_on_c, 4, 57, 100
10, 183740, Note_off_c, 4, 57, 0
10, 183744, Note_on_c, 4, 45, 100
10, 183932, Note_off_c, 4, 45, 0
10, 184320, Note_on_c, 4, 38, 100
10, 184412, Note_off_c, 4, 38, 0
10, 184416, Note_on_c, 4, 40, 100
10, 184508, Note_off_c, 4, 40, 0
10, 184512, Note_on_c, 4, 41, 100
10, 184640, Note_off_c, 4, 41, 0
10, 184704, Note_on_c, 4, 40, 100
10, 184892, Note_off_c, 4, 40, 0
10, 184896, Note_on_c, 4, 38, 100
10, 185084, Note_off_c, 4, 38, 0
10, 185088, Note_on_c, 4, 45, 100
10, 185276, Note_off_c, 4, 45, 0
10, 185280, Note_on_c, 4, 33, 100
10, 185468, Note_off_c, 4, 33, 0
10, 185952, Note_on_c, 4, 50, 100
10, 186044, Note_off_c, 4, 50, 0
10, 186048, Note_on_c, 4, 49, 100
10, 186140, Note_off_c, 4, 49, 0
10, 186144, Note_on_c, 4, 50, 100
10, 186236, Note_off_c, 4, 50, 0
10, 186240, Note_on_c, 4, 38, 100
10, 186428, Note_off_c, 4, 38, 0
10, 186720, Note_on_c, 4, 50, 100
10, 186812, Note_off_c, 4, 50, 0
10, 186816, Note_on_c, 4, 48, 100
10, 186908, Note_off_c, 4, 48, 0
10, 186912, Note_on_c, 4, 50, 100
10, 187004, Note_off_c, 4, 50, 0
10, 187008, Note_on_c, 4, 46, 100
10, 187100, Note_off_c, 4, 46, 0
10, 187104, Note_on_c, 4, 43, 100
10, 187196, Note_off_c, 4, 43, 0
10, 187200, Note_on_c, 4, 45, 100
10, 187292, Note_off_c, 4, 45, 0
10, 187296, Note_on_c, 4, 46, 100
10, 187388, Note_off_c, 4, 46, 0
10, 187392, Note_on_c, 4, 45, 100
10, 187484, Note_off_c, 4, 45, 0
10, 187488, Note_on_c, 4, 57, 100
10, 187580, Note_off_c, 4, 57, 0
10, 187584, Note_on_c, 4, 56, 100
10, 187676, Note_off_c, 4, 56, 0
10, 187680, Note_on_c, 4, 57, 100
10, 187772, Note_off_c, 4, 57, 0
10, 187776, Note_on_c, 4, 45, 100
10, 187964, Note_off_c, 4, 45, 0
10, 188256, Note_on_c, 4, 57, 100
10, 188348, Note_off_c, 4, 57, 0
10, 188352, Note_on_c, 4, 56, 100
10, 188444, Note_off_c, 4, 56, 0
10, 188448, Note_on_c, 4, 57, 100
10, 188540, Note_off_c, 4, 57, 0
10, 188544, Note_on_c, 4, 53, 100
10, 188636, Note_off_c, 4, 53, 0
10, 188640, Note_on_c, 4, 50, 100
10, 188732, Note_off_c, 4, 50, 0
10, 188736, Note_on_c, 4, 52, 100
10, 188828, Note_off_c, 4, 52, 0
10, 188832, Note_on_c, 4, 53, 100
10, 188924, Note_off_c, 4, 53, 0
10, 188928, Note_on_c, 4, 46, 100
10, 189020, Note_off_c, 4, 46, 0
10, 189024, Note_on_c, 4, 62, 100
10, 189116, Note_off_c, 4, 62, 0
10, 189120, Note_on_c, 4, 61, 100
10, 189212, Note_off_c, 4, 61, 0
10, 189216, Note_on_c, 4, 62, 100
10, 189308, Note_off_c, 4, 62, 0
10, 189312, Note_on_c, 4, 46, 100
10, 189500, Note_off_c, 4, 46, 0
10, 189792, Note_on_c, 4, 62, 100
10, 189884, Note_off_c, 4, 62, 0
10, 189888, Note_on_c, 4, 61, 100
10, 189980, Note_off_c, 4, 61, 0
10, 189984, Note_on_c, 4, 62, 100
10, 190076, Note_off_c, 4, 62, 0
10, 190080, Note_on_c, 4, 58, 100
10, 190172, Note_off_c, 4, 58, 0
10, 190176, Note_on_c, 4, 55, 100
10, 190268, Note_off_c, 4, 55, 0
10, 190272, Note_on_c, 4, 57, 100
10, 190364, Note_off_c, 4, 57, 0
10, 190368, Note_on_c, 4, 58, 100
10, 190460, Note_off_c, 4, 58, 0
10, 190464, Note_on_c, 4, 45, 100
10, 190556, Note_off_c, 4, 45, 0
10, 190560, Note_on_c, 4, 64, 100
10, 190652, Note_off_c, 4, 64, 0
10, 190656, Note_on_c, 4, 62, 100
10, 190748, Note_off_c, 4, 62, 0
10, 190752, Note_on_c, 4, 64, 100
10, 190844, Note_off_c, 4, 64, 0
10, 190848, Note_on_c, 4, 61, 100
10, 191036, Note_off_c, 4, 61, 0
10, 191328, Note_on_c, 4, 64, 100
10, 191420, Note_off_c, 4, 64, 0
10, 191424, Note_on_c, 4, 62, 100
10, 191516, Note_off_c, 4, 62, 0
10, 191520, Note_on_c, 4, 64, 100
10, 191612, Note_off_c, 4, 64, 0
10, 191616, Note_on_c, 4, 61, 100
10, 191708, Note_off_c, 4, 61, 0
10, 191712, Note_on_c, 4, 62, 100
10, 191804, Note_off_c, 4, 62, 0
10, 191808, Note_on_c, 4, 64, 100
10, 191900, Note_off_c, 4, 64, 0
10, 191904, Note_on_c, 4, 57, 100
10, 191996, Note_off_c, 4, 57, 0
10, 192000, Note_on_c, 4, 62, 100
10, 192188, Note_off_c, 4, 62, 0
10, 192192, Note_on_c, 4, 50, 100
10, 192320, Note_off_c, 4, 50, 0
10, 192384, Note_on_c, 4, 50, 100
10, 192572, Note_off_c, 4, 50, 0
10, 192576, Note_on_c, 4, 62, 100
10, 192764, Note_off_c, 4, 62, 0
10, 192768, Note_on_c, 4, 60, 100
10, 192956, Note_off_c, 4, 60, 0
10, 192960, Note_on_c, 4, 48, 100
10, 193088, Note_off_c, 4, 48, 0
10, 193152, Note_on_c, 4, 48, 100
10, 193340, Note_off_c, 4, 48, 0
10, 193344, Note_on_c, 4, 60, 100
10, 193532, Note_off_c, 4, 60, 0
10, 193536, Note_on_c, 4, 58, 100
10, 193724, Note_off_c, 4, 58, 0
10, 193728, Note_on_c, 4, 46, 100
10, 193856, Note_off_c, 4, 46, 0
10, 193920, Note_on_c, 4, 46, 100
10, 194108, Note_off_c, 4, 46, 0
10, 194112, Note_on_c, 4, 58, 100
10, 194300, Note_off_c, 4, 58, 0
10, 194304, Note_on_c, 4, 59, 100
10, 194492, Note_off_c, 4, 59, 0
10, 194496, Note_on_c, 4, 47, 100
10, 194624, Note_off_c, 4, 47, 0
10, 194688, Note_on_c, 4, 47, 100
10, 194876, Note_off_c, 4, 47, 0
10, 194880, Note_on_c, 4, 59, 100
10, 195068, Note_off_c, 4, 59, 0
10, 195072, Note_on_c, 4, 60, 100
10, 195260, Note_off_c, 4, 60, 0
10, 195264, Note_on_c, 4, 48, 100
10, 195392, Note_off_c, 4, 48, 0
10, 195456, Note_on_c, 4, 48, 100
10, 195644, Note_off_c, 4, 48, 0
10, 195648, Note_on_c, 4, 60, 100
10, 195836, Note_off_c, 4, 60, 0
10, 195840, Note_on_c, 4, 58, 100
10, 196028, Note_off_c, 4, 58, 0
10, 196032, Note_on_c, 4, 46, 100
10, 196160, Note_off_c, 4, 46, 0
10, 196224, Note_on_c, 4, 46, 100
10, 196412, Note_off_c, 4, 46, 0
10, 196416, Note_on_c, 4, 58, 100
10, 196604, Note_off_c, 4, 58, 0
10, 196608, Note_on_c, 4, 57, 100
10, 196796, Note_off_c, 4, 57, 0
10, 196800, Note_on_c, 4, 45, 100
10, 196928, Note_off_c, 4, 45, 0
10, 196992, Note_on_c, 4, 45, 100
10, 197180, Note_off_c, 4, 45, 0
10, 197184, Note_on_c, 4, 57, 100
10, 197372, Note_off_c, 4, 57, 0
10, 197376, Note_on_c, 4, 57, 100
10, 197564, Note_off_c, 4, 57, 0
10, 197568, Note_on_c, 4, 45, 100
10, 197696, Note_off_c, 4, 45, 0
10, 197760, Note_on_c, 4, 45, 100
10, 197948, Note_off_c, 4, 45, 0
10, 197952, Note_on_c, 4, 57, 100
10, 198140, Note_off_c, 4, 57, 0
10, 198144, Note_on_c, 4, 58, 100
10, 198332, Note_off_c, 4, 58, 0
10, 198336, Note_on_c, 4, 46, 100
10, 198464, Note_off_c, 4, 46, 0
10, 198528, Note_on_c, 4, 46, 100
10, 198716, Note_off_c, 4, 46, 0
10, 198720, Note_on_c, 4, 58, 100
10, 198908, Note_off_c, 4, 58, 0
10, 198912, Note_on_c, 4, 56, 100
10, 199100, Note_off_c, 4, 56, 0
10, 199104, Note_on_c, 4, 44, 100
10, 199232, Note_off_c, 4, 44, 0
10, 199296, Note_on_c, 4, 44, 100
10, 199484, Note_off_c, 4, 44, 0
10, 199488, Note_on_c, 4, 56, 100
10, 199676, Note_off_c, 4, 56, 0
10, 199680, Note_on_c, 4, 55, 100
10, 199868, Note_off_c, 4, 55, 0
10, 199872, Note_on_c, 4, 43, 100
10, 200000, Note_off_c, 4, 43, 0
10, 200064, Note_on_c, 4, 43, 100
10, 200252, Note_off_c, 4, 43, 0
10, 200256, Note_on_c, 4, 55, 100
10, 200444, Note_off_c, 4, 55, 0
10, 200448, Note_on_c, 4, 55, 100
10, 200636, Note_off_c, 4, 55, 0
10, 200640, Note_on_c, 4, 43, 100
10, 200768, Note_off_c, 4, 43, 0
10, 200832, Note_on_c, 4, 43, 100
10, 201020, Note_off_c, 4, 43, 0
10, 201024, Note_on_c, 4, 55, 100
10, 201212, Note_off_c, 4, 55, 0
10, 201216, Note_on_c, 4, 55, 100
10, 201308, Note_off_c, 4, 55, 0
10, 201312, Note_on_c, 4, 67, 100
10, 201404, Note_off_c, 4, 67, 0
10, 201408, Note_on_c, 4, 64, 100
10, 201500, Note_off_c, 4, 64, 0
10, 201504, Note_on_c, 4, 61, 100
10, 201596, Note_off_c, 4, 61, 0
10, 201600, Note_on_c, 4, 57, 100
10, 201692, Note_off_c, 4, 57, 0
10, 201696, Note_on_c, 4, 64, 100
10, 201788, Note_off_c, 4, 64, 0
10, 201792, Note_on_c, 4, 61, 100
10, 201884, Note_off_c, 4, 61, 0
10, 201888, Note_on_c, 4, 57, 100
10, 201980, Note_off_c, 4, 57, 0
10, 201984, Note_on_c, 4, 53, 100
10, 202172, Note_off_c, 4, 53, 0
10, 202176, Note_on_c, 4, 65, 100
10, 202364, Note_off_c, 4, 65, 0
10, 202848, Note_on_c, 4, 65, 100
10, 202940, Note_off_c, 4, 65, 0
10, 202944, Note_on_c, 4, 62, 100
10, 203036, Note_off_c, 4, 62, 0
10, 203040, Note_on_c, 4, 59, 100
10, 203132, Note_off_c, 4, 59, 0
10, 203136, Note_on_c, 4, 55, 100
10, 203228, Note_off_c, 4, 55, 0
10, 203232, Note_on_c, 4, 62, 100
10, 203324, Note_off_c, 4, 62, 0
10, 203328, Note_on_c, 4, 59, 100
10, 203420, Note_off_c, 4, 59, 0
10, 203424, Note_on_c, 4, 55, 100
10, 203516, Note_off_c, 4, 55, 0
10, 203520, Note_on_c, 4, 51, 100
10, 203708, Note_off_c, 4, 51, 0
10, 203712, Note_on_c, 4, 63, 100
10, 203900, Note_off_c, 4, 63, 0
10, 204384, Note_on_c, 4, 63, 100
10, 204476, Note_off_c, 4, 63, 0
10, 204480, Note_on_c, 4, 60, 100
10, 204572, Note_off_c, 4, 60, 0
10, 204576, Note_on_c, 4, 57, 100
10, 204668, Note_off_c, 4, 57, 0
10, 204672, Note_on_c, 4, 53, 100
10, 204764, Note_off_c, 4, 53, 0
10, 204768, Note_on_c, 4, 60, 100
10, 204860, Note_off_c, 4, 60, 0
10, 204864, Note_on_c, 4, 57, 100
10, 204956, Note_off_c, 4, 57, 0
10, 204960, Note_on_c, 4, 53, 100
10, 205052, Note_off_c, 4, 53, 0
10, 205056, Note_on_c, 4, 50, 100
10, 205244, Note_off_c, 4, 50, 0
10, 205248, Note_on_c, 4, 62, 100
10, 205436, Note_off_c, 4, 62, 0
10, 205536, Note_on_c, 4, 62, 100
10, 205628, Note_off_c, 4, 62, 0
10, 205632, Note_on_c, 4, 65, 100
10, 205724, Note_off_c, 4, 65, 0
10, 205728, Note_on_c, 4, 62, 100
10, 205820, Note_off_c, 4, 62, 0
10, 205824, Note_on_c, 4, 50, 100
10, 205916, Note_off_c, 4, 50, 0
10, 205920, Note_on_c, 4, 55, 100
10, 206012, Note_off_c, 4, 55, 0
10, 206016, Note_on_c, 4, 58, 100
10, 206108, Note_off_c, 4, 58, 0
10, 206112, Note_on_c, 4, 62, 100
10, 206204, Note_off_c, 4, 62, 0
10, 206208, Note_on_c, 4, 48, 100
10, 206300, Note_off_c, 4, 48, 0
10, 206304, Note_on_c, 4, 60, 100
10, 206396, Note_off_c, 4, 60, 0
10, 206400, Note_on_c, 4, 63, 100
10, 206492, Note_off_c, 4, 63, 0
10, 206496, Note_on_c, 4, 60, 100
10, 206588, Note_off_c, 4, 60, 0
10, 206592, Note_on_c, 4, 48, 100
10, 206684, Note_off_c, 4, 48, 0
10, 206688, Note_on_c, 4, 53, 100
10, 206780, Note_off_c, 4, 53, 0
10, 206784, Note_on_c, 4, 57, 100
10, 206876, Note_off_c, 4, 57, 0
10, 206880, Note_on_c, 4, 60, 100
10, 206972, Note_off_c, 4, 60, 0
10, 206976, Note_on_c, 4, 46, 100
10, 207068, Note_off_c, 4, 46, 0
10, 207072, Note_on_c, 4, 58, 100
10, 207164, Note_off_c, 4, 58, 0
10, 207168, Note_on_c, 4, 62, 100
10, 207260, Note_off_c, 4, 62, 0
10, 207264, Note_on_c, 4, 58, 100
10, 207356, Note_off_c, 4, 58, 0
10, 207360, Note_on_c, 4, 46, 100
10, 207452, Note_off_c, 4, 46, 0
10, 207456, Note_on_c, 4, 51, 100
10, 207548, Note_off_c, 4, 51, 0
10, 207552, Note_on_c, 4, 55, 100
10, 207644, Note_off_c, 4, 55, 0
10, 207648, Note_on_c, 4, 58, 100
10, 207740, Note_off_c, 4, 58, 0
10, 207744, Note_on_c, 4, 45, 100
10, 207836, Note_off_c, 4, 45, 0
10, 207840, Note_on_c, 4, 57, 100
10, 207932, Note_off_c, 4, 57, 0
10, 207936, Note_on_c, 4, 60, 100
10, 208028, Note_off_c, 4, 60, 0
10, 208032, Note_on_c, 4, 57, 100
10, 208124, Note_off_c, 4, 57, 0
10, 208128, Note_on_c, 4, 46, 100
10, 208220, Note_off_c, 4, 46, 0
10, 208224, Note_on_c, 4, 50, 100
10, 208316, Note_off_c, 4, 50, 0
10, 208320, Note_on_c, 4, 51, 100
10, 208412, Note_off_c, 4, 51, 0
10, 208416, Note_on_c, 4, 53, 100
10, 208508, Note_off_c, 4, 53, 0
10, 208512, Note_on_c, 4, 55, 100
10, 208604, Note_off_c, 4, 55, 0
10, 208608, Note_on_c, 4, 57, 100
10, 208700, Note_off_c, 4, 57, 0
10, 208704, Note_on_c, 4, 58, 100
10, 208796, Note_off_c, 4, 58, 0
10, 208800, Note_on_c, 4, 57, 100
10, 208892, Note_off_c, 4, 57, 0
10, 208896, Note_on_c, 4, 55, 100
10, 208988, Note_off_c, 4, 55, 0
10, 208992, Note_on_c, 4, 57, 100
10, 209084, Note_off_c, 4, 57, 0
10, 209088, Note_on_c, 4, 58, 100
10, 209180, Note_off_c, 4, 58, 0
10, 209184, Note_on_c, 4, 60, 100
10, 209276, Note_off_c, 4, 60, 0
10, 209280, Note_on_c, 4, 62, 100
10, 209372, Note_off_c, 4, 62, 0
10, 209376, Note_on_c, 4, 63, 100
10, 209468, Note_off_c, 4, 63, 0
10, 209472, Note_on_c, 4, 65, 100
10, 209564, Note_off_c, 4, 65, 0
10, 209568, Note_on_c, 4, 63, 100
10, 209660, Note_off_c, 4, 63, 0
10, 209664, Note_on_c, 4, 62, 100
10, 209852, Note_off_c, 4, 62, 0
10, 209856, Note_on_c, 4, 51, 100
10, 209856, Note_on_c, 4, 55, 100
10, 210044, Note_off_c, 4, 51, 0
10, 210044, Note_off_c, 4, 55, 0
10, 210048, Note_on_c, 4, 53, 100
10, 210048, Note_on_c, 4, 57, 100
10, 210236, Note_off_c, 4, 53, 0
10, 210236, Note_off_c, 4, 57, 0
10, 210240, Note_on_c, 4, 41, 100
10, 210428, Note_off_c, 4, 41, 0
10, 210432, Note_on_c, 4, 34, 100
10, 210524, Note_off_c, 4, 34, 0
10, 210528, Note_on_c, 4, 36, 100
10, 210620, Note_off_c, 4, 36, 0
10, 210624, Note_on_c, 4, 38, 100
10, 210752, Note_off_c, 4, 38, 0
10, 210816, Note_on_c, 4, 36, 100
10, 211004, Note_off_c, 4, 36, 0
10, 211008, Note_on_c, 4, 34, 100
10, 211196, Note_off_c, 4, 34, 0
10, 211200, Note_on_c, 4, 39, 100
10, 211388, Note_off_c, 4, 39, 0
10, 211392, Note_on_c, 4, 46, 100
10, 211772, Note_off_c, 4, 46, 0
10, 211776, Note_on_c, 4, 39, 100
10, 211964, Note_off_c, 4, 39, 0
10, 211968, Note_on_c, 4, 34, 100
10, 212060, Note_off_c, 4, 34, 0
10, 212064, Note_on_c, 4, 36, 100
10, 212156, Note_off_c, 4, 36, 0
10, 212160, Note_on_c, 4, 38, 100
10, 212288, Note_off_c, 4, 38, 0
10, 212352, Note_on_c, 4, 36, 100
10, 212540, Note_off_c, 4, 36, 0
10, 212544, Note_on_c, 4, 34, 100
10, 212732, Note_off_c, 4, 34, 0
10, 212736, Note_on_c, 4, 39, 100
10, 212924, Note_off_c, 4, 39, 0
10, 212928, Note_on_c, 4, 46, 100
10, 213308, Note_off_c, 4, 46, 0
10, 213312, Note_on_c, 4, 39, 100
10, 213500, Note_off_c, 4, 39, 0
10, 213504, Note_on_c, 4, 34, 100
10, 213692, Note_off_c, 4, 34, 0
10, 214464, Note_on_c, 4, 31, 100
10, 214464, Note_on_c, 4, 43, 100
10, 214636, Note_off_c, 4, 31, 0
10, 214636, Note_off_c, 4, 43, 0
10, 214656, Note_on_c, 4, 31, 100
10, 214656, Note_on_c, 4, 43, 100
10, 214828, Note_off_c, 4, 31, 0
10, 214828, Note_off_c, 4, 43, 0
10, 214848, Note_on_c, 4, 31, 100
10, 214848, Note_on_c, 4, 43, 100
10, 215020, Note_off_c, 4, 31, 0
10, 215020, Note_off_c, 4, 43, 0
10, 215040, Note_on_c, 4, 36, 100
10, 215040, Note_on_c, 4, 48, 100
10, 215420, Note_off_c, 4, 36, 0
10, 215420, Note_off_c, 4, 48, 0
10, 216768, Note_on_c, 4, 33, 100
10, 216768, Note_on_c, 4, 45, 100
10, 216940, Note_off_c, 4, 33, 0
10, 216940, Note_off_c, 4, 45, 0
10, 216960, Note_on_c, 4, 33, 100
10, 216960, Note_on_c, 4, 45, 100
10, 217132, Note_off_c, 4, 33, 0
10, 217132, Note_off_c, 4, 45, 0
10, 217152, Note_on_c, 4, 33, 100
10, 217152, Note_on_c, 4, 45, 100
10, 217324, Note_off_c, 4, 33, 0
10, 217324, Note_off_c, 4, 45, 0
10, 217344, Note_on_c, 4, 38, 100
10, 217344, Note_on_c, 4, 50, 100
10, 217724, Note_off_c, 4, 38, 0
10, 217724, Note_off_c, 4, 50, 0
10, 219072, Note_on_c, 4, 38, 100
10, 219072, Note_on_c, 4, 50, 100
10, 219244, Note_off_c, 4, 38, 0
10, 219244, Note_off_c, 4, 50, 0
10, 219264, Note_on_c, 4, 38, 100
10, 219264, Note_on_c, 4, 50, 100
10, 219436, Note_off_c, 4, 38, 0
10, 219436, Note_off_c, 4, 50, 0
10, 219456, Note_on_c, 4, 38, 100
10, 219456, Note_on_c, 4, 50, 100
10, 219628, Note_off_c, 4, 38, 0
10, 219628, Note_off_c, 4, 50, 0
10, 219648, Note_on_c, 4, 55, 100
10, 219648, Note_on_c, 4, 43, 100
10, 219740, Note_off_c, 4, 55, 0
10, 219740, Note_off_c, 4, 43, 0
10, 219744, Note_on_c, 4, 58, 100
10, 219836, Note_off_c, 4, 58, 0
10, 219840, Note_on_c, 4, 60, 100
10, 219932, Note_off_c, 4, 60, 0
10, 219936, Note_on_c, 4, 62, 100
10, 220028, Note_off_c, 4, 62, 0
10, 220032, Note_on_c, 4, 60, 100
10, 220124, Note_off_c, 4, 60, 0
10, 220128, Note_on_c, 4, 58, 100
10, 220220, Note_off_c, 4, 58, 0
10, 220224, Note_on_c, 4, 57, 100
10, 220316, Note_off_c, 4, 57, 0
10, 220320, Note_on_c, 4, 55, 100
10, 220412, Note_off_c, 4, 55, 0
10, 220416, Note_on_c, 4, 57, 100
10, 220508, Note_off_c, 4, 57, 0
10, 220512, Note_on_c, 4, 60, 100
10, 220604, Note_off_c, 4, 60, 0
10, 220608, Note_on_c, 4, 62, 100
10, 220700, Note_off_c, 4, 62, 0
10, 220704, Note_on_c, 4, 63, 100
10, 220796, Note_off_c, 4, 63, 0
10, 220800, Note_on_c, 4, 62, 100
10, 220892, Note_off_c, 4, 62, 0
10, 220896, Note_on_c, 4, 60, 100
10, 220988, Note_off_c, 4, 60, 0
10, 220992, Note_on_c, 4, 58, 100
10, 221084, Note_off_c, 4, 58, 0
10, 221088, Note_on_c, 4, 57, 100
10, 221180, Note_off_c, 4, 57, 0
10, 221184, Note_on_c, 4, 58, 100
10, 221276, Note_off_c, 4, 58, 0
10, 221280, Note_on_c, 4, 55, 100
10, 221372, Note_off_c, 4, 55, 0
10, 221376, Note_on_c, 4, 57, 100
10, 221468, Note_off_c, 4, 57, 0
10, 221472, Note_on_c, 4, 58, 100
10, 221564, Note_off_c, 4, 58, 0
10, 221568, Note_on_c, 4, 57, 100
10, 221660, Note_off_c, 4, 57, 0
10, 221664, Note_on_c, 4, 55, 100
10, 221756, Note_off_c, 4, 55, 0
10, 221760, Note_on_c, 4, 54, 100
10, 221852, Note_off_c, 4, 54, 0
10, 221856, Note_on_c, 4, 55, 100
10, 221948, Note_off_c, 4, 55, 0
10, 221952, Note_on_c, 4, 49, 100
10, 222044, Note_off_c, 4, 49, 0
10, 222048, Note_on_c, 4, 52, 100
10, 222140, Note_off_c, 4, 52, 0
10, 222144, Note_on_c, 4, 53, 100
10, 222236, Note_off_c, 4, 53, 0
10, 222240, Note_on_c, 4, 55, 100
10, 222332, Note_off_c, 4, 55, 0
10, 222336, Note_on_c, 4, 45, 100
10, 222524, Note_off_c, 4, 45, 0
10, 222528, Note_on_c, 4, 49, 100
10, 222716, Note_off_c, 4, 49, 0
10, 222720, Note_on_c, 4, 50, 100
10, 222908, Note_off_c, 4, 50, 0
10, 222912, Note_on_c, 4, 54, 100
10, 223100, Note_off_c, 4, 54, 0
10, 223104, Note_on_c, 4, 55, 100
10, 223292, Note_off_c, 4, 55, 0
10, 223296, Note_on_c, 4, 57, 100
10, 223484, Note_off_c, 4, 57, 0
10, 223488, Note_on_c, 4, 58, 100
10, 223676, Note_off_c, 4, 58, 0
10, 223680, Note_on_c, 4, 55, 100
10, 223868, Note_off_c, 4, 55, 0
10, 223872, Note_on_c, 4, 57, 100
10, 224060, Note_off_c, 4, 57, 0
10, 224064, Note_on_c, 4, 59, 100
10, 224252, Note_off_c, 4, 59, 0
10, 224256, Note_on_c, 4, 48, 100
10, 224444, Note_off_c, 4, 48, 0
10, 224448, Note_on_c, 4, 52, 100
10, 224636, Note_off_c, 4, 52, 0
10, 224640, Note_on_c, 4, 53, 100
10, 224828, Note_off_c, 4, 53, 0
10, 224832, Note_on_c, 4, 55, 100
10, 225020, Note_off_c, 4, 55, 0
10, 225024, Note_on_c, 4, 57, 100
10, 225212, Note_off_c, 4, 57, 0
10, 225216, Note_on_c, 4, 53, 100
10, 225404, Note_off_c, 4, 53, 0
10, 225408, Note_on_c, 4, 55, 100
10, 225596, Note_off_c, 4, 55, 0
10, 225600, Note_on_c, 4, 57, 100
10, 225788, Note_off_c, 4, 57, 0
10, 225792, Note_on_c, 4, 46, 100
10, 225980, Note_off_c, 4, 46, 0
10, 225984, Note_on_c, 4, 60, 100
10, 226172, Note_off_c, 4, 60, 0
10, 226176, Note_on_c, 4, 58, 100
10, 226364, Note_off_c, 4, 58, 0
10, 226368, Note_on_c, 4, 57, 100
10, 226556, Note_off_c, 4, 57, 0
10, 226560, Note_on_c, 4, 55, 100
10, 226748, Note_off_c, 4, 55, 0
10, 226752, Note_on_c, 4, 57, 100
10, 226940, Note_off_c, 4, 57, 0
10, 226944, Note_on_c, 4, 55, 100
10, 227132, Note_off_c, 4, 55, 0
10, 227136, Note_on_c, 4, 53, 100
10, 227324, Note_off_c, 4, 53, 0
10, 227328, Note_on_c, 4, 52, 100
10, 227516, Note_off_c, 4, 52, 0
10, 227520, Note_on_c, 4, 53, 100
10, 227708, Note_off_c, 4, 53, 0
10, 227712, Note_on_c, 4, 52, 100
10, 227900, Note_off_c, 4, 52, 0
10, 227904, Note_on_c, 4, 50, 100
10, 228092, Note_off_c, 4, 50, 0
10, 228096, Note_on_c, 4, 49, 100
10, 228284, Note_off_c, 4, 49, 0
10, 228288, Note_on_c, 4, 52, 100
10, 228476, Note_off_c, 4, 52, 0
10, 228480, Note_on_c, 4, 57, 100
10, 228668, Note_off_c, 4, 57, 0
10, 228672, Note_on_c, 4, 55, 100
10, 228860, Note_off_c, 4, 55, 0
10, 228864, Note_on_c, 4, 53, 100
10, 228956, Note_off_c, 4, 53, 0
10, 228960, Note_on_c, 4, 41, 100
10, 229052, Note_off_c, 4, 41, 0
10, 229152, Note_on_c, 4, 50, 100
10, 229244, Note_off_c, 4, 50, 0
10, 229248, Note_on_c, 4, 46, 100
10, 229340, Note_off_c, 4, 46, 0
10, 229344, Note_on_c, 4, 50, 100
10, 229436, Note_off_c, 4, 50, 0
10, 229440, Note_on_c, 4, 45, 100
10, 229532, Note_off_c, 4, 45, 0
10, 229536, Note_on_c, 4, 50, 100
10, 229628, Note_off_c, 4, 50, 0
10, 229632, Note_on_c, 4, 43, 100
10, 229724, Note_off_c, 4, 43, 0
10, 229728, Note_on_c, 4, 50, 100
10, 229820, Note_off_c, 4, 50, 0
10, 229824, Note_on_c, 4, 40, 100
10, 229916, Note_off_c, 4, 40, 0
10, 229920, Note_on_c, 4, 50, 100
10, 230012, Note_off_c, 4, 50, 0
10, 230016, Note_on_c, 4, 45, 100
10, 230108, Note_off_c, 4, 45, 0
10, 230112, Note_on_c, 4, 49, 100
10, 230204, Note_off_c, 4, 49, 0
10, 230208, Note_on_c, 4, 45, 100
10, 230300, Note_off_c, 4, 45, 0
10, 230304, Note_on_c, 4, 49, 100
10, 230396, Note_off_c, 4, 49, 0
10, 230400, Note_on_c, 4, 46, 100
10, 230492, Note_off_c, 4, 46, 0
10, 230496, Note_on_c, 4, 50, 100
10, 230588, Note_off_c, 4, 50, 0
10, 230592, Note_on_c, 4, 46, 100
10, 230684, Note_off_c, 4, 46, 0
10, 230688, Note_on_c, 4, 50, 100
10, 230780, Note_off_c, 4, 50, 0
10, 230784, Note_on_c, 4, 41, 100
10, 230876, Note_off_c, 4, 41, 0
10, 230880, Note_on_c, 4, 50, 100
10, 230972, Note_off_c, 4, 50, 0
10, 230976, Note_on_c, 4, 41, 100
10, 231068, Note_off_c, 4, 41, 0
10, 231072, Note_on_c, 4, 50, 100
10, 231164, Note_off_c, 4, 50, 0
10, 231168, Note_on_c, 4, 43, 100
10, 231260, Note_off_c, 4, 43, 0
10, 231264, Note_on_c, 4, 50, 100
10, 231356, Note_off_c, 4, 50, 0
10, 231360, Note_on_c, 4, 43, 100
10, 231452, Note_off_c, 4, 43, 0
10, 231456, Note_on_c, 4, 50, 100
10, 231548, Note_off_c, 4, 50, 0
10, 231552, Note_on_c, 4, 45, 100
10, 231644, Note_off_c, 4, 45, 0
10, 231648, Note_on_c, 4, 49, 100
10, 231740, Note_off_c, 4, 49, 0
10, 231744, Note_on_c, 4, 45, 100
10, 231836, Note_off_c, 4, 45, 0
10, 231840, Note_on_c, 4, 49, 100
10, 231932, Note_off_c, 4, 49, 0
10, 231936, Note_on_c, 4, 38, 100
10, 232028, Note_off_c, 4, 38, 0
10, 232032, Note_on_c, 4, 50, 100
10, 232124, Note_off_c, 4, 50, 0
10, 232224, Note_on_c, 4, 38, 100
10, 232224, Note_on_c, 4, 50, 100
10, 232316, Note_off_c, 4, 38, 0
10, 232316, Note_off_c, 4, 50, 0
10, 232416, Note_on_c, 4, 38, 100
10, 232416, Note_on_c, 4, 50, 100
10, 232508, Note_off_c, 4, 38, 0
10, 232508, Note_off_c, 4, 50, 0
10, 232608, Note_on_c, 4, 38, 100
10, 232608, Note_on_c, 4, 50, 100
10, 232700, Note_off_c, 4, 38, 0
10, 232700, Note_off_c, 4, 50, 0
10, 232800, Note_on_c, 4, 38, 100
10, 232800, Note_on_c, 4, 50, 100
10, 232892, Note_off_c, 4, 38, 0
10, 232892, Note_off_c, 4, 50, 0
10, 232992, Note_on_c, 4, 38, 100
10, 232992, Note_on_c, 4, 50, 100
10, 233084, Note_off_c, 4, 38, 0
10, 233084, Note_off_c, 4, 50, 0
10, 233184, Note_on_c, 4, 38, 100
10, 233184, Note_on_c, 4, 50, 100
10, 233276, Note_off_c, 4, 38, 0
10, 233276, Note_off_c, 4, 50, 0
10, 233376, Note_on_c, 4, 38, 100
10, 233376, Note_on_c, 4, 50, 100
10, 233468, Note_off_c, 4, 38, 0
10, 233468, Note_off_c, 4, 50, 0
10, 233568, Note_on_c, 4, 38, 100
10, 233568, Note_on_c, 4, 50, 100
10, 233660, Note_off_c, 4, 38, 0
10, 233660, Note_off_c, 4, 50, 0
10, 233760, Note_on_c, 4, 38, 100
10, 233760, Note_on_c, 4, 50, 100
10, 233852, Note_off_c, 4, 38, 0
10, 233852, Note_off_c, 4, 50, 0
10, 233952, Note_on_c, 4, 38, 100
10, 233952, Note_on_c, 4, 50, 100
10, 234044, Note_off_c, 4, 38, 0
10, 234044, Note_off_c, 4, 50, 0
10, 234144, Note_on_c, 4, 38, 100
10, 234144, Note_on_c, 4, 50, 100
10, 234236, Note_off_c, 4, 38, 0
10, 234236, Note_off_c, 4, 50, 0
10, 234336, Note_on_c, 4, 38, 100
10, 234336, Note_on_c, 4, 50, 100
10, 234428, Note_off_c, 4, 38, 0
10, 234428, Note_off_c, 4, 50, 0
10, 234528, Note_on_c, 4, 38, 100
10, 234528, Note_on_c, 4, 50, 100
10, 234620, Note_off_c, 4, 38, 0
10, 234620, Note_off_c, 4, 50, 0
10, 234720, Note_on_c, 4, 38, 100
10, 234720, Note_on_c, 4, 50, 100
10, 234812, Note_off_c, 4, 38, 0
10, 234812, Note_off_c, 4, 50, 0
10, 234912, Note_on_c, 4, 38, 100
10, 234912, Note_on_c, 4, 50, 100
10, 235004, Note_off_c, 4, 38, 0
10, 235004, Note_off_c, 4, 50, 0
10, 235104, Note_on_c, 4, 38, 100
10, 235104, Note_on_c, 4, 50, 100
10, 235196, Note_off_c, 4, 38, 0
10, 235196, Note_off_c, 4, 50, 0
10, 235296, Note_on_c, 4, 38, 100
10, 235296, Note_on_c, 4, 50, 100
10, 235388, Note_off_c, 4, 38, 0
10, 235388, Note_off_c, 4, 50, 0
10, 235488, Note_on_c, 4, 38, 100
10, 235488, Note_on_c, 4, 50, 100
10, 235580, Note_off_c, 4, 38, 0
10, 235580, Note_off_c, 4, 50, 0
10, 235680, Note_on_c, 4, 38, 100
10, 235680, Note_on_c, 4, 50, 100
10, 235772, Note_off_c, 4, 38, 0
10, 235772, Note_off_c, 4, 50, 0
10, 235872, Note_on_c, 4, 38, 100
10, 235872, Note_on_c, 4, 50, 100
10, 235964, Note_off_c, 4, 38, 0
10, 235964, Note_off_c, 4, 50, 0
10, 236064, Note_on_c, 4, 38, 100
10, 236064, Note_on_c, 4, 50, 100
10, 236156, Note_off_c, 4, 38, 0
10, 236156, Note_off_c, 4, 50, 0
10, 236256, Note_on_c, 4, 38, 100
10, 236256, Note_on_c, 4, 50, 100
10, 236348, Note_off_c, 4, 38, 0
10, 236348, Note_off_c, 4, 50, 0
10, 236448, Note_on_c, 4, 38, 100
10, 236448, Note_on_c, 4, 50, 100
10, 236540, Note_off_c, 4, 38, 0
10, 236540, Note_off_c, 4, 50, 0
10, 236640, Note_on_c, 4, 38, 100
10, 236640, Note_on_c, 4, 50, 100
10, 236732, Note_off_c, 4, 38, 0
10, 236732, Note_off_c, 4, 50, 0
10, 236832, Note_on_c, 4, 38, 100
10, 236832, Note_on_c, 4, 50, 100
10, 236924, Note_off_c, 4, 38, 0
10, 236924, Note_off_c, 4, 50, 0
10, 237024, Note_on_c, 4, 38, 100
10, 237024, Note_on_c, 4, 50, 100
10, 237116, Note_off_c, 4, 38, 0
10, 237116, Note_off_c, 4, 50, 0
10, 237216, Note_on_c, 4, 38, 100
10, 237216, Note_on_c, 4, 50, 100
10, 237308, Note_off_c, 4, 38, 0
10, 237308, Note_off_c, 4, 50, 0
10, 237408, Note_on_c, 4, 38, 100
10, 237408, Note_on_c, 4, 50, 100
10, 237500, Note_off_c, 4, 38, 0
10, 237500, Note_off_c, 4, 50, 0
10, 237600, Note_on_c, 4, 38, 100
10, 237600, Note_on_c, 4, 50, 100
10, 237692, Note_off_c, 4, 38, 0
10, 237692, Note_off_c, 4, 50, 0
10, 237792, Note_on_c, 4, 38, 100
10, 237792, Note_on_c, 4, 50, 100
10, 237884, Note_off_c, 4, 38, 0
10, 237884, Note_off_c, 4, 50, 0
10, 237984, Note_on_c, 4, 38, 100
10, 237984, Note_on_c, 4, 50, 100
10, 238076, Note_off_c, 4, 38, 0
10, 238076, Note_off_c, 4, 50, 0
10, 238176, Note_on_c, 4, 38, 100
10, 238176, Note_on_c, 4, 50, 100
10, 238268, Note_off_c, 4, 38, 0
10, 238268, Note_off_c, 4, 50, 0
10, 238368, Note_on_c, 4, 38, 100
10, 238368, Note_on_c, 4, 50, 100
10, 238460, Note_off_c, 4, 38, 0
10, 238460, Note_off_c, 4, 50, 0
10, 238560, Note_on_c, 4, 38, 100
10, 238560, Note_on_c, 4, 50, 100
10, 238652, Note_off_c, 4, 38, 0
10, 238652, Note_off_c, 4, 50, 0
10, 238752, Note_on_c, 4, 38, 100
10, 238752, Note_on_c, 4, 50, 100
10, 238844, Note_off_c, 4, 38, 0
10, 238844, Note_off_c, 4, 50, 0
10, 238944, Note_on_c, 4, 38, 100
10, 238944, Note_on_c, 4, 50, 100
10, 239036, Note_off_c, 4, 38, 0
10, 239036, Note_off_c, 4, 50, 0
10, 239136, Note_on_c, 4, 38, 100
10, 239136, Note_on_c, 4, 50, 100
10, 239228, Note_off_c, 4, 38, 0
10, 239228, Note_off_c, 4, 50, 0
10, 239328, Note_on_c, 4, 38, 100
10, 239328, Note_on_c, 4, 50, 100
10, 239420, Note_off_c, 4, 38, 0
10, 239420, Note_off_c, 4, 50, 0
10, 239520, Note_on_c, 4, 38, 100
10, 239520, Note_on_c, 4, 50, 100
10, 239612, Note_off_c, 4, 38, 0
10, 239612, Note_off_c, 4, 50, 0
10, 239712, Note_on_c, 4, 38, 100
10, 239712, Note_on_c, 4, 50, 100
10, 239804, Note_off_c, 4, 38, 0
10, 239804, Note_off_c, 4, 50, 0
10, 239904, Note_on_c, 4, 38, 100
10, 239904, Note_on_c, 4, 50, 100
10, 239996, Note_off_c, 4, 38, 0
10, 239996, Note_off_c, 4, 50, 0
10, 240096, Note_on_c, 4, 38, 100
10, 240096, Note_on_c, 4, 50, 100
10, 240188, Note_off_c, 4, 38, 0
10, 240188, Note_off_c, 4, 50, 0
10, 240288, Note_on_c, 4, 38, 100
10, 240288, Note_on_c, 4, 50, 100
10, 240380, Note_off_c, 4, 38, 0
10, 240380, Note_off_c, 4, 50, 0
10, 240480, Note_on_c, 4, 38, 100
10, 240480, Note_on_c, 4, 50, 100
10, 240572, Note_off_c, 4, 38, 0
10, 240572, Note_off_c, 4, 50, 0
10, 240672, Note_on_c, 4, 38, 100
10, 240672, Note_on_c, 4, 50, 100
10, 240764, Note_off_c, 4, 38, 0
10, 240764, Note_off_c, 4, 50, 0
10, 240864, Note_on_c, 4, 38, 100
10, 240864, Note_on_c, 4, 50, 100
10, 240956, Note_off_c, 4, 38, 0
10, 240956, Note_off_c, 4, 50, 0
10, 241056, Note_on_c, 4, 38, 100
10, 241056, Note_on_c, 4, 50, 100
10, 241148, Note_off_c, 4, 38, 0
10, 241148, Note_off_c, 4, 50, 0
10, 241248, Note_on_c, 4, 38, 100
10, 241248, Note_on_c, 4, 50, 100
10, 241340, Note_off_c, 4, 38, 0
10, 241340, Note_off_c, 4, 50, 0
10, 241440, Note_on_c, 4, 38, 100
10, 241440, Note_on_c, 4, 50, 100
10, 241532, Note_off_c, 4, 38, 0
10, 241532, Note_off_c, 4, 50, 0
10, 241632, Note_on_c, 4, 38, 100
10, 241632, Note_on_c, 4, 50, 100
10, 241724, Note_off_c, 4, 38, 0
10, 241724, Note_off_c, 4, 50, 0
10, 241824, Note_on_c, 4, 38, 100
10, 241824, Note_on_c, 4, 50, 100
10, 241916, Note_off_c, 4, 38, 0
10, 241916, Note_off_c, 4, 50, 0
10, 242016, Note_on_c, 4, 38, 100
10, 242016, Note_on_c, 4, 50, 100
10, 242108, Note_off_c, 4, 38, 0
10, 242108, Note_off_c, 4, 50, 0
10, 242208, Note_on_c, 4, 38, 100
10, 242208, Note_on_c, 4, 50, 100
10, 242300, Note_off_c, 4, 38, 0
10, 242300, Note_off_c, 4, 50, 0
10, 242400, Note_on_c, 4, 38, 100
10, 242400, Note_on_c, 4, 50, 100
10, 242492, Note_off_c, 4, 38, 0
10, 242492, Note_off_c, 4, 50, 0
10, 242592, Note_on_c, 4, 38, 100
10, 242592, Note_on_c, 4, 50, 100
10, 242684, Note_off_c, 4, 38, 0
10, 242684, Note_off_c, 4, 50, 0
10, 242784, Note_on_c, 4, 38, 100
10, 242784, Note_on_c, 4, 50, 100
10, 242876, Note_off_c, 4, 38, 0
10, 242876, Note_off_c, 4, 50, 0
10, 242976, Note_on_c, 4, 38, 100
10, 242976, Note_on_c, 4, 50, 100
10, 243068, Note_off_c, 4, 38, 0
10, 243068, Note_off_c, 4, 50, 0
10, 243168, Note_on_c, 4, 38, 100
10, 243168, Note_on_c, 4, 50, 100
10, 243260, Note_off_c, 4, 38, 0
10, 243260, Note_off_c, 4, 50, 0
10, 243360, Note_on_c, 4, 38, 100
10, 243360, Note_on_c, 4, 50, 100
10, 243452, Note_off_c, 4, 38, 0
10, 243452, Note_off_c, 4, 50, 0
10, 243552, Note_on_c, 4, 38, 100
10, 243552, Note_on_c, 4, 50, 100
10, 243644, Note_off_c, 4, 38, 0
10, 243644, Note_off_c, 4, 50, 0
10, 243744, Note_on_c, 4, 38, 100
10, 243744, Note_on_c, 4, 50, 100
10, 243836, Note_off_c, 4, 38, 0
10, 243836, Note_off_c, 4, 50, 0
10, 243936, Note_on_c, 4, 38, 100
10, 243936, Note_on_c, 4, 50, 100
10, 244028, Note_off_c, 4, 38, 0
10, 244028, Note_off_c, 4, 50, 0
10, 244128, Note_on_c, 4, 38, 100
10, 244128, Note_on_c, 4, 50, 100
10, 244220, Note_off_c, 4, 38, 0
10, 244220, Note_off_c, 4, 50, 0
10, 244320, Note_on_c, 4, 38, 100
10, 244320, Note_on_c, 4, 50, 100
10, 244412, Note_off_c, 4, 38, 0
10, 244412, Note_off_c, 4, 50, 0
10, 244512, Note_on_c, 4, 38, 100
10, 244512, Note_on_c, 4, 50, 100
10, 244604, Note_off_c, 4, 38, 0
10, 244604, Note_off_c, 4, 50, 0
10, 244704, Note_on_c, 4, 38, 100
10, 244704, Note_on_c, 4, 50, 100
10, 244796, Note_off_c, 4, 38, 0
10, 244796, Note_off_c, 4, 50, 0
10, 244896, Note_on_c, 4, 38, 100
10, 244896, Note_on_c, 4, 50, 100
10, 244988, Note_off_c, 4, 38, 0
10, 244988, Note_off_c, 4, 50, 0
10, 245088, Note_on_c, 4, 38, 100
10, 245088, Note_on_c, 4, 50, 100
10, 245180, Note_off_c, 4, 38, 0
10, 245180, Note_off_c, 4, 50, 0
10, 245280, Note_on_c, 4, 38, 100
10, 245280, Note_on_c, 4, 50, 100
10, 245372, Note_off_c, 4, 38, 0
10, 245372, Note_off_c, 4, 50, 0
10, 245472, Note_on_c, 4, 38, 100
10, 245472, Note_on_c, 4, 50, 100
10, 245564, Note_off_c, 4, 38, 0
10, 245564, Note_off_c, 4, 50, 0
10, 245664, Note_on_c, 4, 38, 100
10, 245664, Note_on_c, 4, 50, 100
10, 245756, Note_off_c, 4, 38, 0
10, 245756, Note_off_c, 4, 50, 0
10, 245856, Note_on_c, 4, 38, 100
10, 245856, Note_on_c, 4, 50, 100
10, 245948, Note_off_c, 4, 38, 0
10, 245948, Note_off_c, 4, 50, 0
10, 246048, Note_on_c, 4, 38, 100
10, 246048, Note_on_c, 4, 50, 100
10, 246140, Note_off_c, 4, 38, 0
10, 246140, Note_off_c, 4, 50, 0
10, 246240, Note_on_c, 4, 38, 100
10, 246240, Note_on_c, 4, 50, 100
10, 246332, Note_off_c, 4, 38, 0
10, 246332, Note_off_c, 4, 50, 0
10, 246432, Note_on_c, 4, 38, 100
10, 246432, Note_on_c, 4, 50, 100
10, 246524, Note_off_c, 4, 38, 0
10, 246524, Note_off_c, 4, 50, 0
10, 246624, Note_on_c, 4, 38, 100
10, 246624, Note_on_c, 4, 50, 100
10, 246716, Note_off_c, 4, 38, 0
10, 246716, Note_off_c, 4, 50, 0
10, 246816, Note_on_c, 4, 38, 100
10, 246816, Note_on_c, 4, 50, 100
10, 246908, Note_off_c, 4, 38, 0
10, 246908, Note_off_c, 4, 50, 0
10, 247008, Note_on_c, 4, 38, 100
10, 247008, Note_on_c, 4, 50, 100
10, 247100, Note_off_c, 4, 38, 0
10, 247100, Note_off_c, 4, 50, 0
10, 247200, Note_on_c, 4, 38, 100
10, 247200, Note_on_c, 4, 50, 100
10, 247292, Note_off_c, 4, 38, 0
10, 247292, Note_off_c, 4, 50, 0
10, 247392, Note_on_c, 4, 38, 100
10, 247392, Note_on_c, 4, 50, 100
10, 247484, Note_off_c, 4, 38, 0
10, 247484, Note_off_c, 4, 50, 0
10, 247584, Note_on_c, 4, 38, 100
10, 247584, Note_on_c, 4, 50, 100
10, 247676, Note_off_c, 4, 38, 0
10, 247676, Note_off_c, 4, 50, 0
10, 247776, Note_on_c, 4, 38, 100
10, 247776, Note_on_c, 4, 50, 100
10, 247868, Note_off_c, 4, 38, 0
10, 247868, Note_off_c, 4, 50, 0
10, 247968, Note_on_c, 4, 38, 100
10, 247968, Note_on_c, 4, 50, 100
10, 248060, Note_off_c, 4, 38, 0
10, 248060, Note_off_c, 4, 50, 0
10, 248160, Note_on_c, 4, 38, 100
10, 248160, Note_on_c, 4, 50, 100
10, 248252, Note_off_c, 4, 38, 0
10, 248252, Note_off_c, 4, 50, 0
10, 248352, Note_on_c, 4, 38, 100
10, 248352, Note_on_c, 4, 50, 100
10, 248444, Note_off_c, 4, 38, 0
10, 248444, Note_off_c, 4, 50, 0
10, 248544, Note_on_c, 4, 38, 100
10, 248544, Note_on_c, 4, 50, 100
10, 248636, Note_off_c, 4, 38, 0
10, 248636, Note_off_c, 4, 50, 0
10, 248736, Note_on_c, 4, 38, 100
10, 248736, Note_on_c, 4, 50, 100
10, 248828, Note_off_c, 4, 38, 0
10, 248828, Note_off_c, 4, 50, 0
10, 248928, Note_on_c, 4, 38, 100
10, 248928, Note_on_c, 4, 50, 100
10, 249020, Note_off_c, 4, 38, 0
10, 249020, Note_off_c, 4, 50, 0
10, 249120, Note_on_c, 4, 38, 100
10, 249120, Note_on_c, 4, 50, 100
10, 249212, Note_off_c, 4, 38, 0
10, 249212, Note_off_c, 4, 50, 0
10, 249312, Note_on_c, 4, 38, 100
10, 249312, Note_on_c, 4, 50, 100
10, 249404, Note_off_c, 4, 38, 0
10, 249404, Note_off_c, 4, 50, 0
10, 249504, Note_on_c, 4, 38, 100
10, 249504, Note_on_c, 4, 50, 100
10, 249596, Note_off_c, 4, 38, 0
10, 249596, Note_off_c, 4, 50, 0
10, 249696, Note_on_c, 4, 38, 100
10, 249696, Note_on_c, 4, 50, 100
10, 249788, Note_off_c, 4, 38, 0
10, 249788, Note_off_c, 4, 50, 0
10, 249888, Note_on_c, 4, 38, 100
10, 249888, Note_on_c, 4, 50, 100
10, 249980, Note_off_c, 4, 38, 0
10, 249980, Note_off_c, 4, 50, 0
10, 250080, Note_on_c, 4, 38, 100
10, 250080, Note_on_c, 4, 50, 100
10, 250172, Note_off_c, 4, 38, 0
10, 250172, Note_off_c, 4, 50, 0
10, 250272, Note_on_c, 4, 38, 100
10, 250272, Note_on_c, 4, 50, 100
10, 250364, Note_off_c, 4, 38, 0
10, 250364, Note_off_c, 4, 50, 0
10, 250464, Note_on_c, 4, 38, 100
10, 250464, Note_on_c, 4, 50, 100
10, 250556, Note_off_c, 4, 38, 0
10, 250556, Note_off_c, 4, 50, 0
10, 250656, Note_on_c, 4, 38, 100
10, 250656, Note_on_c, 4, 50, 100
10, 250748, Note_off_c, 4, 38, 0
10, 250748, Note_off_c, 4, 50, 0
10, 250848, Note_on_c, 4, 38, 100
10, 250848, Note_on_c, 4, 50, 100
10, 250940, Note_off_c, 4, 38, 0
10, 250940, Note_off_c, 4, 50, 0
10, 251040, Note_on_c, 4, 38, 100
10, 251040, Note_on_c, 4, 50, 100
10, 251132, Note_off_c, 4, 38, 0
10, 251132, Note_off_c, 4, 50, 0
10, 251232, Note_on_c, 4, 38, 100
10, 251232, Note_on_c, 4, 50, 100
10, 251324, Note_off_c, 4, 38, 0
10, 251324, Note_off_c, 4, 50, 0
10, 251424, Note_on_c, 4, 38, 100
10, 251424, Note_on_c, 4, 50, 100
10, 251516, Note_off_c, 4, 38, 0
10, 251516, Note_off_c, 4, 50, 0
10, 251616, Note_on_c, 4, 38, 100
10, 251616, Note_on_c, 4, 50, 100
10, 251708, Note_off_c, 4, 38, 0
10, 251708, Note_off_c, 4, 50, 0
10, 251808, Note_on_c, 4, 38, 100
10, 251808, Note_on_c, 4, 50, 100
10, 251900, Note_off_c, 4, 38, 0
10, 251900, Note_off_c, 4, 50, 0
10, 252000, Note_on_c, 4, 38, 100
10, 252000, Note_on_c, 4, 50, 100
10, 252092, Note_off_c, 4, 38, 0
10, 252092, Note_off_c, 4, 50, 0
10, 252192, Note_on_c, 4, 38, 100
10, 252192, Note_on_c, 4, 50, 100
10, 252284, Note_off_c, 4, 38, 0
10, 252284, Note_off_c, 4, 50, 0
10, 252384, Note_on_c, 4, 38, 100
10, 252384, Note_on_c, 4, 50, 100
10, 252476, Note_off_c, 4, 38, 0
10, 252476, Note_off_c, 4, 50, 0
10, 252576, Note_on_c, 4, 38, 100
10, 252576, Note_on_c, 4, 50, 100
10, 252668, Note_off_c, 4, 38, 0
10, 252668, Note_off_c, 4, 50, 0
10, 252768, Note_on_c, 4, 38, 100
10, 252768, Note_on_c, 4, 50, 100
10, 252860, Note_off_c, 4, 38, 0
10, 252860, Note_off_c, 4, 50, 0
10, 252960, Note_on_c, 4, 38, 100
10, 252960, Note_on_c, 4, 50, 100
10, 253052, Note_off_c, 4, 38, 0
10, 253052, Note_off_c, 4, 50, 0
10, 253152, Note_on_c, 4, 38, 100
10, 253152, Note_on_c, 4, 50, 100
10, 253244, Note_off_c, 4, 38, 0
10, 253244, Note_off_c, 4, 50, 0
10, 253344, Note_on_c, 4, 38, 100
10, 253344, Note_on_c, 4, 50, 100
10, 253436, Note_off_c, 4, 38, 0
10, 253436, Note_off_c, 4, 50, 0
10, 253440, Note_on_c, 4, 50, 100
10, 253440, Note_on_c, 4, 44, 100
10, 253532, Note_off_c, 4, 50, 0
10, 253532, Note_off_c, 4, 44, 0
10, 253536, Note_on_c, 4, 52, 100
10, 253628, Note_off_c, 4, 52, 0
10, 253632, Note_on_c, 4, 53, 100
10, 253724, Note_off_c, 4, 53, 0
10, 253728, Note_on_c, 4, 59, 100
10, 253820, Note_off_c, 4, 59, 0
10, 253824, Note_on_c, 4, 62, 100
10, 253916, Note_off_c, 4, 62, 0
10, 253920, Note_on_c, 4, 57, 100
10, 254012, Note_off_c, 4, 57, 0
10, 254016, Note_on_c, 4, 59, 100
10, 254108, Note_off_c, 4, 59, 0
10, 254112, Note_on_c, 4, 56, 100
10, 254204, Note_off_c, 4, 56, 0
10, 254208, Note_on_c, 4, 50, 100
10, 254208, Note_on_c, 4, 44, 100
10, 254300, Note_off_c, 4, 50, 0
10, 254300, Note_off_c, 4, 44, 0
10, 254304, Note_on_c, 4, 52, 100
10, 254396, Note_off_c, 4, 52, 0
10, 254400, Note_on_c, 4, 53, 100
10, 254492, Note_off_c, 4, 53, 0
10, 254496, Note_on_c, 4, 59, 100
10, 254588, Note_off_c, 4, 59, 0
10, 254592, Note_on_c, 4, 62, 100
10, 254684, Note_off_c, 4, 62, 0
10, 254688, Note_on_c, 4, 59, 100
10, 254780, Note_off_c, 4, 59, 0
10, 254784, Note_on_c, 4, 56, 100
10, 254876, Note_off_c, 4, 56, 0
10, 254880, Note_on_c, 4, 52, 100
10, 254972, Note_off_c, 4, 52, 0
10, 254976, Note_on_c, 4, 53, 100
10, 254976, Note_on_c, 4, 45, 100
10, 255068, Note_off_c, 4, 53, 0
10, 255068, Note_off_c, 4, 45, 0
10, 255072, Note_on_c, 4, 55, 100
10, 255164, Note_off_c, 4, 55, 0
10, 255168, Note_on_c, 4, 57, 100
10, 255260, Note_off_c, 4, 57, 0
10, 255264, Note_on_c, 4, 61, 100
10, 255356, Note_off_c, 4, 61, 0
10, 255360, Note_on_c, 4, 62, 100
10, 255452, Note_off_c, 4, 62, 0
10, 255456, Note_on_c, 4, 57, 100
10, 255548, Note_off_c, 4, 57, 0
10, 255552, Note_on_c, 4, 58, 100
10, 255644, Note_off_c, 4, 58, 0
10, 255648, Note_on_c, 4, 55, 100
10, 255740, Note_off_c, 4, 55, 0
10, 255744, Note_on_c, 4, 53, 100
10, 255744, Note_on_c, 4, 45, 100
10, 255836, Note_off_c, 4, 53, 0
10, 255836, Note_off_c, 4, 45, 0
10, 255840, Note_on_c, 4, 55, 100
10, 255932, Note_off_c, 4, 55, 0
10, 255936, Note_on_c, 4, 57, 100
10, 256028, Note_off_c, 4, 57, 0
10, 256032, Note_on_c, 4, 61, 100
10, 256124, Note_off_c, 4, 61, 0
10, 256128, Note_on_c, 4, 62, 100
10, 256220, Note_off_c, 4, 62, 0
10, 256224, Note_on_c, 4, 57, 100
10, 256316, Note_off_c, 4, 57, 0
10, 256320, Note_on_c, 4, 53, 100
10, 256412, Note_off_c, 4, 53, 0
10, 256416, Note_on_c, 4, 50, 100
10, 256508, Note_off_c, 4, 50, 0
10, 256512, Note_on_c, 4, 52, 100
10, 256512, Note_on_c, 4, 46, 100
10, 256604, Note_off_c, 4, 52, 0
10, 256604, Note_off_c, 4, 46, 0
10, 256608, Note_on_c, 4, 53, 100
10, 256700, Note_off_c, 4, 53, 0
10, 256704, Note_on_c, 4, 55, 100
10, 256796, Note_off_c, 4, 55, 0
10, 256800, Note_on_c, 4, 61, 100
10, 256892, Note_off_c, 4, 61, 0
10, 256896, Note_on_c, 4, 62, 100
10, 256988, Note_off_c, 4, 62, 0
10, 256992, Note_on_c, 4, 57, 100
10, 257084, Note_off_c, 4, 57, 0
10, 257088, Note_on_c, 4, 58, 100
10, 257180, Note_off_c, 4, 58, 0
10, 257184, Note_on_c, 4, 55, 100
10, 257276, Note_off_c, 4, 55, 0
10, 257280, Note_on_c, 4, 52, 100
10, 257280, Note_on_c, 4, 46, 100
10, 257372, Note_off_c, 4, 52, 0
10, 257372, Note_off_c, 4, 46, 0
10, 257376, Note_on_c, 4, 53, 100
10, 257468, Note_off_c, 4, 53, 0
10, 257472, Note_on_c, 4, 55, 100
10, 257564, Note_off_c, 4, 55, 0
10, 257568, Note_on_c, 4, 61, 100
10, 257660, Note_off_c, 4, 61, 0
10, 257664, Note_on_c, 4, 62, 100
10, 257756, Note_off_c, 4, 62, 0
10, 257760, Note_on_c, 4, 58, 100
10, 257852, Note_off_c, 4, 58, 0
10, 257856, Note_on_c, 4, 55, 100
10, 257948, Note_off_c, 4, 55, 0
10, 257952, Note_on_c, 4, 52, 100
10, 258044, Note_off_c, 4, 52, 0
10, 258048, Note_on_c, 4, 53, 100
10, 258048, Note_on_c, 4, 45, 100
10, 258140, Note_off_c, 4, 53, 0
10, 258140, Note_off_c, 4, 45, 0
10, 258144, Note_on_c, 4, 52, 100
10, 258236, Note_off_c, 4, 52, 0
10, 258240, Note_on_c, 4, 53, 100
10, 258332, Note_off_c, 4, 53, 0
10, 258336, Note_on_c, 4, 57, 100
10, 258428, Note_off_c, 4, 57, 0
10, 258432, Note_on_c, 4, 62, 100
10, 258524, Note_off_c, 4, 62, 0
10, 258528, Note_on_c, 4, 57, 100
10, 258620, Note_off_c, 4, 57, 0
10, 258624, Note_on_c, 4, 58, 100
10, 258716, Note_off_c, 4, 58, 0
10, 258720, Note_on_c, 4, 55, 100
10, 258812, Note_off_c, 4, 55, 0
10, 258816, Note_on_c, 4, 53, 100
10, 258816, Note_on_c, 4, 45, 100
10, 258908, Note_off_c, 4, 53, 0
10, 258908, Note_off_c, 4, 45, 0
10, 258912, Note_on_c, 4, 52, 100
10, 259004, Note_off_c, 4, 52, 0
10, 259008, Note_on_c, 4, 53, 100
10, 259100, Note_off_c, 4, 53, 0
10, 259104, Note_on_c, 4, 57, 100
10, 259196, Note_off_c, 4, 57, 0
10, 259200, Note_on_c, 4, 62, 100
10, 259292, Note_off_c, 4, 62, 0
10, 259296, Note_on_c, 4, 57, 100
10, 259388, Note_off_c, 4, 57, 0
10, 259392, Note_on_c, 4, 65, 100
10, 259484, Note_off_c, 4, 65, 0
10, 259488, Note_on_c, 4, 62, 100
10, 259580, Note_off_c, 4, 62, 0
10, 259584, Note_on_c, 4, 56, 100
10, 259628, Note_off_c, 4, 56, 0
10, 259632, Note_on_c, 4, 62, 100
10, 259676, Note_off_c, 4, 62, 0
10, 259920, Note_on_c, 4, 62, 100
10, 259964, Note_off_c, 4, 62, 0
10, 259968, Note_on_c, 4, 56, 100
10, 260012, Note_off_c, 4, 56, 0
10, 260016, Note_on_c, 4, 62, 100
10, 260060, Note_off_c, 4, 62, 0
10, 260304, Note_on_c, 4, 62, 100
10, 260348, Note_off_c, 4, 62, 0
10, 260352, Note_on_c, 4, 56, 100
10, 260396, Note_off_c, 4, 56, 0
10, 260400, Note_on_c, 4, 62, 100
10, 260444, Note_off_c, 4, 62, 0
10, 260688, Note_on_c, 4, 62, 100
10, 260732, Note_off_c, 4, 62, 0
10, 260736, Note_on_c, 4, 56, 100
10, 260780, Note_off_c, 4, 56, 0
10, 260784, Note_on_c, 4, 62, 100
10, 260828, Note_off_c, 4, 62, 0
10, 261072, Note_on_c, 4, 62, 100
10, 261116, Note_off_c, 4, 62, 0
10, 261120, Note_on_c, 4, 55, 100
10, 261164, Note_off_c, 4, 55, 0
10, 261168, Note_on_c, 4, 61, 100
10, 261212, Note_off_c, 4, 61, 0
10, 261456, Note_on_c, 4, 61, 100
10, 261500, Note_off_c, 4, 61, 0
10, 261504, Note_on_c, 4, 55, 100
10, 261548, Note_off_c, 4, 55, 0
10, 261552, Note_on_c, 4, 61, 100
10, 261596, Note_off_c, 4, 61, 0
10, 261840, Note_on_c, 4, 61, 100
10, 261884, Note_off_c, 4, 61, 0
10, 261888, Note_on_c, 4, 55, 100
10, 261932, Note_off_c, 4, 55, 0
10, 261936, Note_on_c, 4, 61, 100
10, 261980, Note_off_c, 4, 61, 0
10, 262224, Note_on_c, 4, 61, 100
10, 262268, Note_off_c, 4, 61, 0
10, 262272, Note_on_c, 4, 55, 100
10, 262316, Note_off_c, 4, 55, 0
10, 262320, Note_on_c, 4, 61, 100
10, 262364, Note_off_c, 4, 61, 0
10, 262608, Note_on_c, 4, 61, 100
10, 262652, Note_off_c, 4, 61, 0
10, 262656, Note_on_c, 4, 54, 100
10, 262700, Note_off_c, 4, 54, 0
10, 262704, Note_on_c, 4, 60, 100
10, 262748, Note_off_c, 4, 60, 0
10, 262992, Note_on_c, 4, 60, 100
10, 263036, Note_off_c, 4, 60, 0
10, 263040, Note_on_c, 4, 54, 100
10, 263084, Note_off_c, 4, 54, 0
10, 263088, Note_on_c, 4, 60, 100
10, 263132, Note_off_c, 4, 60, 0
10, 263376, Note_on_c, 4, 60, 100
10, 263420, Note_off_c, 4, 60, 0
10, 263424, Note_on_c, 4, 53, 100
10, 263468, Note_off_c, 4, 53, 0
10, 263472, Note_on_c, 4, 62, 100
10, 263516, Note_off_c, 4, 62, 0
10, 263760, Note_on_c, 4, 62, 100
10, 263804, Note_off_c, 4, 62, 0
10, 263808, Note_on_c, 4, 53, 100
10, 263852, Note_off_c, 4, 53, 0
10, 263856, Note_on_c, 4, 62, 100
10, 263900, Note_off_c, 4, 62, 0
10, 264144, Note_on_c, 4, 62, 100
10, 264188, Note_off_c, 4, 62, 0
10, 264192, Note_on_c, 4, 58, 100
10, 264236, Note_off_c, 4, 58, 0
10, 264240, Note_on_c, 4, 64, 100
10, 264284, Note_off_c, 4, 64, 0
10, 264528, Note_on_c, 4, 64, 100
10, 264572, Note_off_c, 4, 64, 0
10, 264576, Note_on_c, 4, 58, 100
10, 264620, Note_off_c, 4, 58, 0
10, 264624, Note_on_c, 4, 64, 100
10, 264668, Note_off_c, 4, 64, 0
10, 264912, Note_on_c, 4, 64, 100
10, 264956, Note_off_c, 4, 64, 0
10, 264960, Note_on_c, 4, 57, 100
10, 265004, Note_off_c, 4, 57, 0
10, 265008, Note_on_c, 4, 65, 100
10, 265052, Note_off_c, 4, 65, 0
10, 265296, Note_on_c, 4, 65, 100
10, 265340, Note_off_c, 4, 65, 0
10, 265344, Note_on_c, 4, 57, 100
10, 265388, Note_off_c, 4, 57, 0
10, 265392, Note_on_c, 4, 65, 100
10, 265436, Note_off_c, 4, 65, 0
10, 265680, Note_on_c, 4, 65, 100
10, 265724, Note_off_c, 4, 65, 0
10, 265728, Note_on_c, 4, 56, 100
10, 265772, Note_off_c, 4, 56, 0
10, 265776, Note_on_c, 4, 65, 100
10, 265820, Note_off_c, 4, 65, 0
10, 266064, Note_on_c, 4, 65, 100
10, 266108, Note_off_c, 4, 65, 0
10, 266112, Note_on_c, 4, 56, 100
10, 266156, Note_off_c, 4, 56, 0
10, 266160, Note_on_c, 4, 65, 100
10, 266204, Note_off_c, 4, 65, 0
10, 266448, Note_on_c, 4, 65, 100
10, 266492, Note_off_c, 4, 65, 0
10, 266496, Note_on_c, 4, 56, 100
10, 266540, Note_off_c, 4, 56, 0
10, 266544, Note_on_c, 4, 64, 100
10, 266588, Note_off_c, 4, 64, 0
10, 266832, Note_on_c, 4, 64, 100
10, 266876, Note_off_c, 4, 64, 0
10, 266880, Note_on_c, 4, 56, 100
10, 266924, Note_off_c, 4, 56, 0
10, 266928, Note_on_c, 4, 64, 100
10, 266972, Note_off_c, 4, 64, 0
10, 267216, Note_on_c, 4, 64, 100
10, 267260, Note_off_c, 4, 64, 0
10, 267264, Note_on_c, 4, 57, 100
10, 267308, Note_off_c, 4, 57, 0
10, 267312, Note_on_c, 4, 67, 100
10, 267356, Note_off_c, 4, 67, 0
10, 267600, Note_on_c, 4, 67, 100
10, 267644, Note_off_c, 4, 67, 0
10, 267648, Note_on_c, 4, 57, 100
10, 267692, Note_off_c, 4, 57, 0
10, 267696, Note_on_c, 4, 67, 100
10, 267740, Note_off_c, 4, 67, 0
10, 267984, Note_on_c, 4, 67, 100
10, 268028, Note_off_c, 4, 67, 0
10, 268032, Note_on_c, 4, 57, 100
10, 268076, Note_off_c, 4, 57, 0
10, 268080, Note_on_c, 4, 67, 100
10, 268124, Note_off_c, 4, 67, 0
10, 268368, Note_on_c, 4, 67, 100
10, 268412, Note_off_c, 4, 67, 0
10, 268416, Note_on_c, 4, 57, 100
10, 268460, Note_off_c, 4, 57, 0
10, 268464, Note_on_c, 4, 67, 100
10, 268508, Note_off_c, 4, 67, 0
10, 268752, Note_on_c, 4, 57, 100
10, 268796, Note_off_c, 4, 57, 0
10, 268800, Note_on_c, 4, 50, 100
10, 268896, Note_off_c, 4, 50, 0
10, 268896, Note_on_c, 4, 52, 100
10, 268992, Note_off_c, 4, 52, 0
10, 268992, Note_on_c, 4, 53, 100
10, 269120, Note_off_c, 4, 53, 0
10, 269184, Note_on_c, 4, 52, 100
10, 269376, Note_off_c, 4, 52, 0
10, 269376, Note_on_c, 4, 50, 100
10, 269568, Note_off_c, 4, 50, 0
10, 269568, Note_on_c, 4, 57, 100
10, 269760, Note_off_c, 4, 57, 0
10, 269760, Note_on_c, 4, 62, 100
10, 270144, Note_off_c, 4, 62, 0
10, 270144, Note_on_c, 4, 57, 100
10, 270336, Note_off_c, 4, 57, 0
10, 270336, Note_on_c, 4, 58, 100
10, 270524, Note_off_c, 4, 58, 0
10, 270528, Note_on_c, 4, 55, 100
10, 270620, Note_off_c, 4, 55, 0
10, 270624, Note_on_c, 4, 52, 100
10, 270716, Note_off_c, 4, 52, 0
10, 270720, Note_on_c, 4, 57, 100
10, 270908, Note_off_c, 4, 57, 0
10, 270912, Note_on_c, 4, 53, 100
10, 271004, Note_off_c, 4, 53, 0
10, 271008, Note_on_c, 4, 50, 100
10, 271100, Note_off_c, 4, 50, 0
10, 271104, Note_on_c, 4, 55, 100
10, 271292, Note_off_c, 4, 55, 0
10, 271296, Note_on_c, 4, 52, 100
10, 271388, Note_off_c, 4, 52, 0
10, 271392, Note_on_c, 4, 49, 100
10, 271484, Note_off_c, 4, 49, 0
10, 271488, Note_on_c, 4, 45, 100
10, 271580, Note_off_c, 4, 45, 0
10, 271584, Note_on_c, 4, 53, 100
10, 271676, Note_off_c, 4, 53, 0
10, 271680, Note_on_c, 4, 52, 100
10, 271772, Note_off_c, 4, 52, 0
10, 271776, Note_on_c, 4, 50, 100
10, 271868, Note_off_c, 4, 50, 0
10, 271872, Note_on_c, 4, 49, 100
10, 271964, Note_off_c, 4, 49, 0
10, 272640, Note_on_c, 4, 49, 100
10, 272732, Note_off_c, 4, 49, 0
10, 273408, Note_on_c, 4, 50, 100
10, 273500, Note_off_c, 4, 50, 0
10, 274176, Note_on_c, 4, 50, 100
10, 274268, Note_off_c, 4, 50, 0
10, 274944, Note_on_c, 4, 54, 100
10, 275036, Note_off_c, 4, 54, 0
10, 275712, Note_on_c, 4, 54, 100
10, 275804, Note_off_c, 4, 54, 0
10, 276480, Note_on_c, 4, 55, 100
10, 276572, Note_off_c, 4, 55, 0
10, 277248, Note_on_c, 4, 55, 100
10, 277340, Note_off_c, 4, 55, 0
10, 278016, Note_on_c, 4, 56, 100
10, 278108, Note_off_c, 4, 56, 0
10, 278784, Note_on_c, 4, 56, 100
10, 278876, Note_off_c, 4, 56, 0
10, 279552, Note_on_c, 4, 57, 100
10, 279644, Note_off_c, 4, 57, 0
10, 280320, Note_on_c, 4, 57, 100
10, 280412, Note_off_c, 4, 57, 0
10, 281088, Note_on_c, 4, 65, 100
10, 281088, Note_on_c, 4, 62, 100
10, 281180, Note_off_c, 4, 65, 0
10, 281180, Note_off_c, 4, 62, 0
10, 281856, Note_on_c, 4, 53, 100
10, 281856, Note_on_c, 4, 62, 100
10, 281948, Note_off_c, 4, 53, 0
10, 281948, Note_off_c, 4, 62, 0
10, 282336, Note_on_c, 4, 64, 100
10, 282428, Note_off_c, 4, 64, 0
10, 282432, Note_on_c, 4, 62, 100
10, 282524, Note_off_c, 4, 62, 0
10, 282528, Note_on_c, 4, 60, 100
10, 282620, Note_off_c, 4, 60, 0
10, 282624, Note_on_c, 4, 46, 100
10, 282624, Note_on_c, 4, 58, 100
10, 282716, Note_off_c, 4, 46, 0
10, 282716, Note_off_c, 4, 58, 0
10, 283104, Note_on_c, 4, 58, 100
10, 283196, Note_off_c, 4, 58, 0
10, 283200, Note_on_c, 4, 57, 100
10, 283292, Note_off_c, 4, 57, 0
10, 283296, Note_on_c, 4, 55, 100
10, 283388, Note_off_c, 4, 55, 0
10, 283392, Note_on_c, 4, 41, 100
10, 283392, Note_on_c, 4, 53, 100
10, 283484, Note_off_c, 4, 41, 0
10, 283484, Note_off_c, 4, 53, 0
10, 284160, Note_on_c, 4, 55, 100
10, 284160, Note_on_c, 4, 43, 100
10, 284348, Note_off_c, 4, 55, 0
10, 284348, Note_off_c, 4, 43, 0
10, 284928, Note_on_c, 4, 49, 100
10, 284928, Note_on_c, 4, 55, 100
10, 285116, Note_off_c, 4, 49, 0
10, 285116, Note_off_c, 4, 55, 0
10, 285696, Note_on_c, 4, 50, 100
10, 286076, Note_off_c, 4, 50, 0
10, 286272, Note_on_c, 4, 38, 100
10, 286364, Note_off_c, 4, 38, 0
10, 286368, Note_on_c, 4, 40, 100
10, 286460, Note_off_c, 4, 40, 0
10, 286464, Note_on_c, 4, 41, 100
10, 286652, Note_off_c, 4, 41, 0
10, 286656, Note_on_c, 4, 45, 100
10, 286700, Note_off_c, 4, 45, 0
10, 286708, Note_on_c, 4, 43, 100
10, 286752, Note_off_c, 4, 43, 0
10, 286752, Note_on_c, 4, 41, 100
10, 286796, Note_off_c, 4, 41, 0
10, 286800, Note_on_c, 4, 43, 100
10, 286844, Note_off_c, 4, 43, 0
10, 286848, Note_on_c, 4, 45, 100
10, 287036, Note_off_c, 4, 45, 0
10, 287040, Note_on_c, 4, 33, 100
10, 287228, Note_off_c, 4, 33, 0
10, 287232, Note_on_c, 4, 50, 100
10, 287232, Note_on_c, 4, 38, 100
10, 287328, Note_off_c, 4, 50, 0
10, 287328, Note_on_c, 4, 52, 100
10, 287424, Note_off_c, 4, 52, 0
10, 287424, Note_on_c, 4, 53, 100
10, 287552, Note_off_c, 4, 53, 0
10, 287612, Note_off_c, 4, 38, 0
10, 287616, Note_on_c, 4, 52, 100
10, 287808, Note_off_c, 4, 52, 0
10, 287808, Note_on_c, 4, 50, 100
10, 288000, Note_off_c, 4, 50, 0
10, 288000, Note_on_c, 4, 57, 100
10, 288192, Note_off_c, 4, 57, 0
10, 288192, Note_on_c, 4, 62, 100
10, 288576, Note_off_c, 4, 62, 0
10, 288576, Note_on_c, 4, 57, 100
10, 288768, Note_off_c, 4, 57, 0
10, 288768, Note_on_c, 4, 58, 100
10, 288956, Note_off_c, 4, 58, 0
10, 288960, Note_on_c, 4, 55, 100
10, 289052, Note_off_c, 4, 55, 0
10, 289056, Note_on_c, 4, 52, 100
10, 289148, Note_off_c, 4, 52, 0
10, 289152, Note_on_c, 4, 57, 100
10, 289340, Note_off_c, 4, 57, 0
10, 289344, Note_on_c, 4, 53, 100
10, 289436, Note_off_c, 4, 53, 0
10, 289440, Note_on_c, 4, 50, 100
10, 289532, Note_off_c, 4, 50, 0
10, 289536, Note_on_c, 4, 55, 100
10, 289724, Note_off_c, 4, 55, 0
10, 289728, Note_on_c, 4, 52, 100
10, 289820, Note_off_c, 4, 52, 0
10, 289824, Note_on_c, 4, 49, 100
10, 289916, Note_off_c, 4, 49, 0
10, 289920, Note_on_c, 4, 45, 100
10, 290048, Note_off_c, 4, 45, 0
10, 290112, Note_on_c, 4, 58, 100
10, 290492, Note_off_c, 4, 58, 0
10, 290496, Note_on_c, 4, 55, 100
10, 290588, Note_off_c, 4, 55, 0
10, 290592, Note_on_c, 4, 52, 100
10, 290684, Note_off_c, 4, 52, 0
10, 290688, Note_on_c, 4, 45, 100
10, 290816, Note_off_c, 4, 45, 0
10, 290880, Note_on_c, 4, 61, 100
10, 291260, Note_off_c, 4, 61, 0
10, 291264, Note_on_c, 4, 58, 100
10, 291356, Note_off_c, 4, 58, 0
10, 291360, Note_on_c, 4, 55, 100
10, 291452, Note_off_c, 4, 55, 0
10, 291456, Note_on_c, 4, 45, 100
10, 291584, Note_off_c, 4, 45, 0
10, 291648, Note_on_c, 4, 64, 100
10, 292028, Note_off_c, 4, 64, 0
10, 292032, Note_on_c, 4, 61, 100
10, 292124, Note_off_c, 4, 61, 0
10, 292128, Note_on_c, 4, 57, 100
10, 292220, Note_off_c, 4, 57, 0
10, 292224, Note_on_c, 4, 58, 100
10, 292316, Note_off_c, 4, 58, 0
10, 292320, Note_on_c, 4, 55, 100
10, 292412, Note_off_c, 4, 55, 0
10, 292416, Note_on_c, 4, 57, 100
10, 292508, Note_off_c, 4, 57, 0
10, 292512, Note_on_c, 4, 53, 100
10, 292604, Note_off_c, 4, 53, 0
10, 292608, Note_on_c, 4, 55, 100
10, 292700, Note_off_c, 4, 55, 0
10, 292704, Note_on_c, 4, 52, 100
10, 292796, Note_off_c, 4, 52, 0
10, 292800, Note_on_c, 4, 53, 100
10, 292892, Note_off_c, 4, 53, 0
10, 292896, Note_on_c, 4, 50, 100
10, 292988, Note_off_c, 4, 50, 0
10, 292992, Note_on_c, 4, 52, 100
10, 293084, Note_off_c, 4, 52, 0
10, 293088, Note_on_c, 4, 49, 100
10, 293180, Note_off_c, 4, 49, 0
10, 293184, Note_on_c, 4, 50, 100
10, 293276, Note_off_c, 4, 50, 0
10, 293280, Note_on_c, 4, 47, 100
10, 293372, Note_off_c, 4, 47, 0
10, 293376, Note_on_c, 4, 49, 100
10, 293468, Note_off_c, 4, 49, 0
10, 293472, Note_on_c, 4, 45, 100
10, 293564, Note_off_c, 4, 45, 0
10, 293568, Note_on_c, 4, 47, 100
10, 293660, Note_off_c, 4, 47, 0
10, 293664, Note_on_c, 4, 49, 100
10, 293756, Note_off_c, 4, 49, 0
10, 293760, Note_on_c, 4, 50, 100
10, 293852, Note_off_c, 4, 50, 0
10, 293856, Note_on_c, 4, 52, 100
10, 293948, Note_off_c, 4, 52, 0
10, 293952, Note_on_c, 4, 53, 100
10, 294044, Note_off_c, 4, 53, 0
10, 294048, Note_on_c, 4, 55, 100
10, 294140, Note_off_c, 4, 55, 0
10, 294144, Note_on_c, 4, 57, 100
10, 294236, Note_off_c, 4, 57, 0
10, 294240, Note_on_c, 4, 58, 100
10, 294332, Note_off_c, 4, 58, 0
10, 294336, Note_on_c, 4, 60, 100
10, 294464, Note_off_c, 4, 60, 0
10, 294528, Note_on_c, 4, 60, 100
10, 294620, Note_off_c, 4, 60, 0
10, 294624, Note_on_c, 4, 62, 100
10, 294716, Note_off_c, 4, 62, 0
10, 294720, Note_on_c, 4, 63, 100
10, 294848, Note_off_c, 4, 63, 0
10, 294912, Note_on_c, 4, 54, 100
10, 295020, Note_off_c, 4, 54, 0
10, 295104, Note_on_c, 4, 55, 100
10, 295212, Note_off_c, 4, 55, 0
10, 295296, Note_on_c, 4, 49, 100
10, 295404, Note_off_c, 4, 49, 0
10, 295488, Note_on_c, 4, 50, 100
10, 295596, Note_off_c, 4, 50, 0
10, 295680, Note_on_c, 4, 44, 100
10, 295868, Note_off_c, 4, 44, 0
10, 296064, Note_on_c, 4, 57, 100
10, 296064, Note_on_c, 4, 45, 100
10, 296192, Note_off_c, 4, 57, 0
10, 296192, Note_off_c, 4, 45, 0
10, 296448, Note_on_c, 4, 38, 100
10, 296448, Note_on_c, 4, 50, 100
10, 297212, Note_off_c, 4, 38, 0
10, 297212, Note_off_c, 4, 50, 0
10, 297212, End_track
11, 0, Start_track
11, 0, Title_t, "Harpsichord Concerto No. 1 in D minor - BWV 1052"
11, 0, Control_c, 6, 7, 92
11, 0, Key_signature, -1, "minor"
11, 0, End_track
12, 0, Start_track
12, 0, Title_t, "1st Movement: Allegro "
12, 0, Control_c, 6, 7, 92
12, 0, Key_signature, -1, "minor"
12, 0, End_track
13, 0, Start_track
13, 0, Title_t, "by Johann Sebastian Bach  (1685-1750)"
13, 0, Control_c, 6, 7, 92
13, 0, Key_signature, -1, "minor"
13, 0, End_track
14, 0, Start_track
14, 0, Title_t, "Copyright 1996-1997 by D.J. Grossman & T.L. Hubeart Jr."
14, 0, Control_c, 6, 7, 92
14, 0, Key_signature, -1, "minor"
14, 0, End_track
15, 0, Start_track
15, 0, Title_t, "Cakewalk Pro Audio/Midisoft Studio/Cakewalk 2.01 used"
15, 0, Control_c, 6, 7, 92
15, 0, Key_signature, -1, "minor"
15, 0, End_track
16, 0, Start_track
16, 0, Title_t, "Last Modified by DJG: 9-11-96/by TLH: 9-25-97"
16, 0, Control_c, 6, 7, 92
16, 0, Key_signature, -1, "minor"
16, 0, End_track
17, 0, Start_track
17, 0, Title_t, "This is a finished movement. Any volunteers for movements 2 & 3???"
17, 0, Control_c, 6, 7, 92
17, 0, Key_signature, -1, "minor"
17, 0, End_track
18, 0, Start_track
18, 0, Title_t, "Dave's Home Page: http://www.unpronounceable.com"
18, 0, Control_c, 6, 7, 100
18, 0, End_track
19, 0, Start_track
19, 0, Title_t, "Tom's Home Page: http://members.aol.com/basfawlty"
19, 0, Control_c, 6, 7, 100
19, 0, End_track
0, 0, End_of_file
