0, 0, Header, 1, 13, 120
1, 0, Start_track
1, 0, Time_signature, 3, 2, 24, 8
1, 0, Key_signature, 2, "major"
1, 0, Tempo, 1200000
1, 0, Marker_t, "Adagio"
1, 8640, Time_signature, 2, 2, 24, 8
1, 8640, Tempo, 666667
1, 8640, Marker_t, "Allegro"
1, 16320, Marker_t, "2º"
1, 47280, Time_signature, 3, 3, 12, 8
1, 47280, Tempo, 1200000
1, 47280, Marker_t, "Andante"
1, 47460, Time_signature, 12, 3, 12, 8
1, 69060, Time_signature, 6, 3, 12, 8
1, 69060, Tempo, 750000
1, 69060, Marker_t, "Allegro"
1, 69060, End_track
2, 0, Start_track
2, 0, MIDI_port, 0
2, 0, Title_t, "Viola da gamba"
2, 0, Program_c, 0, 41
2, 0, Note_on_c, 0, 62, 90
2, 119, Note_on_c, 0, 62, 0
2, 180, Note_on_c, 0, 57, 90
2, 239, Note_on_c, 0, 57, 0
2, 240, Note_on_c, 0, 59, 90
2, 329, Note_on_c, 0, 59, 0
2, 330, Note_on_c, 0, 61, 90
2, 344, Note_on_c, 0, 61, 0
2, 345, Note_on_c, 0, 62, 90
2, 359, Note_on_c, 0, 62, 0
2, 360, Note_on_c, 0, 55, 90
2, 389, Note_on_c, 0, 55, 0
2, 390, Note_on_c, 0, 54, 90
2, 400, Note_on_c, 0, 54, 0
2, 400, Note_on_c, 0, 55, 90
2, 410, Note_on_c, 0, 55, 0
2, 410, Note_on_c, 0, 54, 90
2, 420, Note_on_c, 0, 54, 0
2, 420, Note_on_c, 0, 52, 90
2, 449, Note_on_c, 0, 52, 0
2, 450, Note_on_c, 0, 50, 90
2, 479, Note_on_c, 0, 50, 0
2, 480, Note_on_c, 0, 62, 90
2, 839, Note_on_c, 0, 62, 0
2, 870, Note_on_c, 0, 61, 90
2, 899, Note_on_c, 0, 61, 0
2, 900, Note_on_c, 0, 62, 90
2, 929, Note_on_c, 0, 62, 0
2, 930, Note_on_c, 0, 66, 90
2, 959, Note_on_c, 0, 66, 0
2, 960, Note_on_c, 0, 64, 90
2, 989, Note_on_c, 0, 64, 0
2, 990, Note_on_c, 0, 62, 90
2, 1019, Note_on_c, 0, 62, 0
2, 1020, Note_on_c, 0, 61, 90
2, 1049, Note_on_c, 0, 61, 0
2, 1050, Note_on_c, 0, 62, 90
2, 1079, Note_on_c, 0, 62, 0
2, 1080, Note_on_c, 0, 61, 90
2, 1139, Note_on_c, 0, 61, 0
2, 1140, Note_on_c, 0, 59, 90
2, 1169, Note_on_c, 0, 59, 0
2, 1170, Note_on_c, 0, 57, 90
2, 1199, Note_on_c, 0, 57, 0
2, 1440, Note_on_c, 0, 69, 90
2, 1559, Note_on_c, 0, 69, 0
2, 1620, Note_on_c, 0, 64, 90
2, 1679, Note_on_c, 0, 64, 0
2, 1680, Note_on_c, 0, 66, 90
2, 1769, Note_on_c, 0, 66, 0
2, 1770, Note_on_c, 0, 68, 90
2, 1785, Note_on_c, 0, 68, 0
2, 1785, Note_on_c, 0, 69, 90
2, 1800, Note_on_c, 0, 69, 0
2, 1800, Note_on_c, 0, 61, 90
2, 1859, Note_on_c, 0, 61, 0
2, 1860, Note_on_c, 0, 59, 90
2, 1889, Note_on_c, 0, 59, 0
2, 1890, Note_on_c, 0, 57, 90
2, 1919, Note_on_c, 0, 57, 0
2, 1920, Note_on_c, 0, 63, 90
2, 2159, Note_on_c, 0, 63, 0
2, 2160, Note_on_c, 0, 64, 90
2, 2219, Note_on_c, 0, 64, 0
2, 2220, Note_on_c, 0, 59, 90
2, 2279, Note_on_c, 0, 59, 0
2, 2280, Note_on_c, 0, 67, 90
2, 2309, Note_on_c, 0, 67, 0
2, 2310, Note_on_c, 0, 58, 90
2, 2339, Note_on_c, 0, 58, 0
2, 2340, Note_on_c, 0, 61, 90
2, 2369, Note_on_c, 0, 61, 0
2, 2370, Note_on_c, 0, 62, 90
2, 2399, Note_on_c, 0, 62, 0
2, 2400, Note_on_c, 0, 64, 90
2, 2429, Note_on_c, 0, 64, 0
2, 2430, Note_on_c, 0, 67, 90
2, 2459, Note_on_c, 0, 67, 0
2, 2460, Note_on_c, 0, 66, 90
2, 2489, Note_on_c, 0, 66, 0
2, 2490, Note_on_c, 0, 64, 90
2, 2519, Note_on_c, 0, 64, 0
2, 2520, Note_on_c, 0, 62, 90
2, 2530, Note_on_c, 0, 62, 0
2, 2530, Note_on_c, 0, 64, 90
2, 2540, Note_on_c, 0, 64, 0
2, 2540, Note_on_c, 0, 62, 90
2, 2550, Note_on_c, 0, 62, 0
2, 2550, Note_on_c, 0, 64, 90
2, 2557, Note_on_c, 0, 62, 90
2, 2558, Note_on_c, 0, 64, 0
2, 2565, Note_on_c, 0, 62, 0
2, 2565, Note_on_c, 0, 64, 90
2, 2572, Note_on_c, 0, 62, 90
2, 2573, Note_on_c, 0, 64, 0
2, 2580, Note_on_c, 0, 62, 0
2, 2580, Note_on_c, 0, 61, 90
2, 2609, Note_on_c, 0, 61, 0
2, 2610, Note_on_c, 0, 59, 90
2, 2639, Note_on_c, 0, 59, 0
2, 2640, Note_on_c, 0, 65, 90
2, 2759, Note_on_c, 0, 65, 0
2, 2880, Note_on_c, 0, 66, 90
2, 2999, Note_on_c, 0, 66, 0
2, 3060, Note_on_c, 0, 61, 90
2, 3119, Note_on_c, 0, 61, 0
2, 3120, Note_on_c, 0, 62, 90
2, 3149, Note_on_c, 0, 62, 0
2, 3150, Note_on_c, 0, 66, 90
2, 3179, Note_on_c, 0, 66, 0
2, 3180, Note_on_c, 0, 65, 90
2, 3209, Note_on_c, 0, 65, 0
2, 3210, Note_on_c, 0, 66, 90
2, 3239, Note_on_c, 0, 66, 0
2, 3240, Note_on_c, 0, 57, 90
2, 3299, Note_on_c, 0, 57, 0
2, 3300, Note_on_c, 0, 56, 90
2, 3329, Note_on_c, 0, 56, 0
2, 3330, Note_on_c, 0, 54, 90
2, 3359, Note_on_c, 0, 54, 0
2, 3360, Note_on_c, 0, 66, 90
2, 3660, Note_on_c, 0, 66, 0
2, 3690, Note_on_c, 0, 68, 90
2, 3704, Note_on_c, 0, 68, 0
2, 3705, Note_on_c, 0, 69, 90
2, 3719, Note_on_c, 0, 69, 0
2, 3720, Note_on_c, 0, 68, 90
2, 3749, Note_on_c, 0, 68, 0
2, 3750, Note_on_c, 0, 66, 90
2, 3779, Note_on_c, 0, 66, 0
2, 3780, Note_on_c, 0, 64, 90
2, 3809, Note_on_c, 0, 64, 0
2, 3810, Note_on_c, 0, 62, 90
2, 3839, Note_on_c, 0, 62, 0
2, 3840, Note_on_c, 0, 61, 90
2, 3869, Note_on_c, 0, 61, 0
2, 3870, Note_on_c, 0, 62, 90
2, 3899, Note_on_c, 0, 62, 0
2, 3900, Note_on_c, 0, 64, 90
2, 3929, Note_on_c, 0, 64, 0
2, 3930, Note_on_c, 0, 61, 90
2, 3959, Note_on_c, 0, 61, 0
2, 3960, Note_on_c, 0, 58, 90
2, 3970, Note_on_c, 0, 58, 0
2, 3970, Note_on_c, 0, 59, 90
2, 3980, Note_on_c, 0, 59, 0
2, 3980, Note_on_c, 0, 58, 90
2, 3990, Note_on_c, 0, 58, 0
2, 3990, Note_on_c, 0, 59, 90
2, 3997, Note_on_c, 0, 58, 90
2, 3998, Note_on_c, 0, 59, 0
2, 4005, Note_on_c, 0, 58, 0
2, 4005, Note_on_c, 0, 59, 90
2, 4012, Note_on_c, 0, 58, 90
2, 4013, Note_on_c, 0, 59, 0
2, 4020, Note_on_c, 0, 58, 0
2, 4020, Note_on_c, 0, 56, 90
2, 4049, Note_on_c, 0, 56, 0
2, 4050, Note_on_c, 0, 54, 90
2, 4079, Note_on_c, 0, 54, 0
2, 4080, Note_on_c, 0, 59, 90
2, 4199, Note_on_c, 0, 59, 0
2, 4230, Note_on_c, 0, 67, 90
2, 4259, Note_on_c, 0, 67, 0
2, 4260, Note_on_c, 0, 66, 90
2, 4289, Note_on_c, 0, 66, 0
2, 4290, Note_on_c, 0, 64, 90
2, 4319, Note_on_c, 0, 64, 0
2, 4320, Note_on_c, 0, 62, 90
2, 4349, Note_on_c, 0, 62, 0
2, 4350, Note_on_c, 0, 61, 90
2, 4379, Note_on_c, 0, 61, 0
2, 4380, Note_on_c, 0, 62, 90
2, 4409, Note_on_c, 0, 62, 0
2, 4410, Note_on_c, 0, 59, 90
2, 4439, Note_on_c, 0, 59, 0
2, 4440, Note_on_c, 0, 58, 90
2, 4450, Note_on_c, 0, 58, 0
2, 4450, Note_on_c, 0, 59, 90
2, 4460, Note_on_c, 0, 59, 0
2, 4460, Note_on_c, 0, 58, 90
2, 4470, Note_on_c, 0, 58, 0
2, 4470, Note_on_c, 0, 59, 90
2, 4480, Note_on_c, 0, 59, 0
2, 4480, Note_on_c, 0, 58, 90
2, 4490, Note_on_c, 0, 58, 0
2, 4490, Note_on_c, 0, 59, 90
2, 4500, Note_on_c, 0, 59, 0
2, 4500, Note_on_c, 0, 58, 90
2, 4507, Note_on_c, 0, 59, 90
2, 4508, Note_on_c, 0, 58, 0
2, 4515, Note_on_c, 0, 59, 0
2, 4515, Note_on_c, 0, 58, 90
2, 4522, Note_on_c, 0, 59, 90
2, 4523, Note_on_c, 0, 58, 0
2, 4530, Note_on_c, 0, 59, 0
2, 4530, Note_on_c, 0, 58, 90
2, 4537, Note_on_c, 0, 59, 90
2, 4538, Note_on_c, 0, 58, 0
2, 4545, Note_on_c, 0, 59, 0
2, 4545, Note_on_c, 0, 58, 90
2, 4552, Note_on_c, 0, 59, 90
2, 4553, Note_on_c, 0, 58, 0
2, 4560, Note_on_c, 0, 59, 0
2, 4560, Note_on_c, 0, 58, 90
2, 4567, Note_on_c, 0, 59, 90
2, 4568, Note_on_c, 0, 58, 0
2, 4575, Note_on_c, 0, 59, 0
2, 4575, Note_on_c, 0, 58, 90
2, 4582, Note_on_c, 0, 59, 90
2, 4583, Note_on_c, 0, 58, 0
2, 4590, Note_on_c, 0, 59, 0
2, 4590, Note_on_c, 0, 58, 90
2, 4600, Note_on_c, 0, 58, 0
2, 4600, Note_on_c, 0, 56, 90
2, 4610, Note_on_c, 0, 56, 0
2, 4610, Note_on_c, 0, 58, 90
2, 4620, Note_on_c, 0, 58, 0
2, 4620, Note_on_c, 0, 59, 90
2, 4679, Note_on_c, 0, 59, 0
2, 4680, Note_on_c, 0, 59, 90
2, 4799, Note_on_c, 0, 59, 0
2, 5220, Note_on_c, 0, 59, 90
2, 5279, Note_on_c, 0, 59, 0
2, 5280, Note_on_c, 0, 57, 90
2, 5309, Note_on_c, 0, 57, 0
2, 5310, Note_on_c, 0, 56, 90
2, 5369, Note_on_c, 0, 56, 0
2, 5370, Note_on_c, 0, 54, 90
2, 5384, Note_on_c, 0, 54, 0
2, 5385, Note_on_c, 0, 52, 90
2, 5399, Note_on_c, 0, 52, 0
2, 5400, Note_on_c, 0, 60, 90
2, 5459, Note_on_c, 0, 60, 0
2, 5460, Note_on_c, 0, 62, 90
2, 5489, Note_on_c, 0, 62, 0
2, 5490, Note_on_c, 0, 64, 90
2, 5519, Note_on_c, 0, 64, 0
2, 5520, Note_on_c, 0, 57, 90
2, 5759, Note_on_c, 0, 57, 0
2, 5790, Note_on_c, 0, 57, 90
2, 5819, Note_on_c, 0, 57, 0
2, 5820, Note_on_c, 0, 59, 90
2, 5849, Note_on_c, 0, 59, 0
2, 5850, Note_on_c, 0, 60, 90
2, 5879, Note_on_c, 0, 60, 0
2, 5880, Note_on_c, 0, 54, 90
2, 5909, Note_on_c, 0, 54, 0
2, 5910, Note_on_c, 0, 54, 90
2, 5939, Note_on_c, 0, 54, 0
2, 5940, Note_on_c, 0, 55, 90
2, 5969, Note_on_c, 0, 55, 0
2, 5970, Note_on_c, 0, 57, 90
2, 5999, Note_on_c, 0, 57, 0
2, 6000, Note_on_c, 0, 55, 90
2, 6029, Note_on_c, 0, 55, 0
2, 6030, Note_on_c, 0, 54, 90
2, 6059, Note_on_c, 0, 54, 0
2, 6060, Note_on_c, 0, 52, 90
2, 6089, Note_on_c, 0, 52, 0
2, 6090, Note_on_c, 0, 50, 90
2, 6119, Note_on_c, 0, 50, 0
2, 6120, Note_on_c, 0, 59, 90
2, 6179, Note_on_c, 0, 59, 0
2, 6180, Note_on_c, 0, 60, 90
2, 6209, Note_on_c, 0, 60, 0
2, 6210, Note_on_c, 0, 62, 90
2, 6239, Note_on_c, 0, 62, 0
2, 6240, Note_on_c, 0, 55, 90
2, 6479, Note_on_c, 0, 55, 0
2, 6510, Note_on_c, 0, 55, 90
2, 6539, Note_on_c, 0, 55, 0
2, 6540, Note_on_c, 0, 57, 90
2, 6569, Note_on_c, 0, 57, 0
2, 6570, Note_on_c, 0, 59, 90
2, 6599, Note_on_c, 0, 59, 0
2, 6600, Note_on_c, 0, 57, 90
2, 6629, Note_on_c, 0, 57, 0
2, 6630, Note_on_c, 0, 61, 90
2, 6659, Note_on_c, 0, 61, 0
2, 6660, Note_on_c, 0, 64, 90
2, 6689, Note_on_c, 0, 64, 0
2, 6690, Note_on_c, 0, 62, 90
2, 6719, Note_on_c, 0, 62, 0
2, 6720, Note_on_c, 0, 61, 90
2, 6749, Note_on_c, 0, 61, 0
2, 6750, Note_on_c, 0, 59, 90
2, 6779, Note_on_c, 0, 59, 0
2, 6780, Note_on_c, 0, 57, 90
2, 6809, Note_on_c, 0, 57, 0
2, 6810, Note_on_c, 0, 55, 90
2, 6839, Note_on_c, 0, 55, 0
2, 6840, Note_on_c, 0, 54, 90
2, 6869, Note_on_c, 0, 54, 0
2, 6870, Note_on_c, 0, 59, 90
2, 6899, Note_on_c, 0, 59, 0
2, 6900, Note_on_c, 0, 57, 90
2, 6929, Note_on_c, 0, 57, 0
2, 6930, Note_on_c, 0, 55, 90
2, 6959, Note_on_c, 0, 55, 0
2, 6960, Note_on_c, 0, 54, 90
2, 7079, Note_on_c, 0, 54, 0
2, 7080, Note_on_c, 0, 52, 90
2, 7090, Note_on_c, 0, 52, 0
2, 7090, Note_on_c, 0, 54, 90
2, 7100, Note_on_c, 0, 54, 0
2, 7100, Note_on_c, 0, 52, 90
2, 7110, Note_on_c, 0, 52, 0
2, 7110, Note_on_c, 0, 54, 90
2, 7117, Note_on_c, 0, 52, 90
2, 7118, Note_on_c, 0, 54, 0
2, 7125, Note_on_c, 0, 52, 0
2, 7125, Note_on_c, 0, 54, 90
2, 7132, Note_on_c, 0, 52, 90
2, 7133, Note_on_c, 0, 54, 0
2, 7140, Note_on_c, 0, 52, 0
2, 7140, Note_on_c, 0, 54, 90
2, 7147, Note_on_c, 0, 52, 90
2, 7148, Note_on_c, 0, 54, 0
2, 7155, Note_on_c, 0, 52, 0
2, 7155, Note_on_c, 0, 54, 90
2, 7162, Note_on_c, 0, 52, 90
2, 7163, Note_on_c, 0, 54, 0
2, 7170, Note_on_c, 0, 52, 0
2, 7170, Note_on_c, 0, 50, 90
2, 7199, Note_on_c, 0, 50, 0
2, 7200, Note_on_c, 0, 50, 90
2, 7740, Note_on_c, 0, 50, 0
2, 7740, Note_on_c, 0, 62, 90
2, 7770, Note_on_c, 0, 62, 0
2, 7770, Note_on_c, 0, 61, 90
2, 7800, Note_on_c, 0, 61, 0
2, 7800, Note_on_c, 0, 62, 90
2, 7830, Note_on_c, 0, 62, 0
2, 7830, Note_on_c, 0, 66, 90
2, 7860, Note_on_c, 0, 66, 0
2, 7860, Note_on_c, 0, 64, 90
2, 7920, Note_on_c, 0, 64, 0
2, 7920, Note_on_c, 0, 62, 90
2, 8040, Note_on_c, 0, 62, 0
2, 8040, Note_on_c, 0, 61, 90
2, 8280, Note_on_c, 0, 61, 0
2, 8640, Note_on_c, 0, 62, 90
2, 8669, Note_on_c, 0, 62, 0
2, 8670, Note_on_c, 0, 64, 90
2, 8699, Note_on_c, 0, 64, 0
2, 8700, Note_on_c, 0, 66, 90
2, 8819, Note_on_c, 0, 66, 0
2, 8820, Note_on_c, 0, 64, 90
2, 8849, Note_on_c, 0, 64, 0
2, 8850, Note_on_c, 0, 62, 90
2, 8879, Note_on_c, 0, 62, 0
2, 8880, Note_on_c, 0, 61, 90
2, 8909, Note_on_c, 0, 61, 0
2, 8910, Note_on_c, 0, 62, 90
2, 8939, Note_on_c, 0, 62, 0
2, 8940, Note_on_c, 0, 64, 90
2, 9059, Note_on_c, 0, 64, 0
2, 9060, Note_on_c, 0, 62, 90
2, 9089, Note_on_c, 0, 62, 0
2, 9090, Note_on_c, 0, 61, 90
2, 9119, Note_on_c, 0, 61, 0
2, 9120, Note_on_c, 0, 62, 90
2, 9149, Note_on_c, 0, 62, 0
2, 9150, Note_on_c, 0, 57, 90
2, 9179, Note_on_c, 0, 57, 0
2, 9180, Note_on_c, 0, 66, 90
2, 9209, Note_on_c, 0, 66, 0
2, 9210, Note_on_c, 0, 57, 90
2, 9239, Note_on_c, 0, 57, 0
2, 9240, Note_on_c, 0, 64, 90
2, 9269, Note_on_c, 0, 64, 0
2, 9270, Note_on_c, 0, 57, 90
2, 9299, Note_on_c, 0, 57, 0
2, 9300, Note_on_c, 0, 62, 90
2, 9329, Note_on_c, 0, 62, 0
2, 9330, Note_on_c, 0, 57, 90
2, 9359, Note_on_c, 0, 57, 0
2, 9360, Note_on_c, 0, 61, 90
2, 9419, Note_on_c, 0, 61, 0
2, 9420, Note_on_c, 0, 57, 90
2, 9479, Note_on_c, 0, 57, 0
2, 9480, Note_on_c, 0, 61, 90
2, 9539, Note_on_c, 0, 61, 0
2, 9540, Note_on_c, 0, 64, 90
2, 9599, Note_on_c, 0, 64, 0
2, 9600, Note_on_c, 0, 66, 90
2, 9629, Note_on_c, 0, 66, 0
2, 9630, Note_on_c, 0, 67, 90
2, 9659, Note_on_c, 0, 67, 0
2, 9660, Note_on_c, 0, 69, 90
2, 9779, Note_on_c, 0, 69, 0
2, 9780, Note_on_c, 0, 67, 90
2, 9809, Note_on_c, 0, 67, 0
2, 9810, Note_on_c, 0, 66, 90
2, 9839, Note_on_c, 0, 66, 0
2, 9840, Note_on_c, 0, 64, 90
2, 9869, Note_on_c, 0, 64, 0
2, 9870, Note_on_c, 0, 66, 90
2, 9899, Note_on_c, 0, 66, 0
2, 9900, Note_on_c, 0, 67, 90
2, 10019, Note_on_c, 0, 67, 0
2, 10020, Note_on_c, 0, 66, 90
2, 10049, Note_on_c, 0, 66, 0
2, 10050, Note_on_c, 0, 64, 90
2, 10079, Note_on_c, 0, 64, 0
2, 10080, Note_on_c, 0, 66, 90
2, 10139, Note_on_c, 0, 66, 0
2, 10140, Note_on_c, 0, 62, 90
2, 10199, Note_on_c, 0, 62, 0
2, 10200, Note_on_c, 0, 61, 90
2, 10215, Note_on_c, 0, 61, 0
2, 10215, Note_on_c, 0, 62, 90
2, 10230, Note_on_c, 0, 62, 0
2, 10230, Note_on_c, 0, 61, 90
2, 10259, Note_on_c, 0, 61, 0
2, 10260, Note_on_c, 0, 62, 90
2, 10319, Note_on_c, 0, 62, 0
2, 10320, Note_on_c, 0, 64, 90
2, 10349, Note_on_c, 0, 64, 0
2, 10350, Note_on_c, 0, 62, 90
2, 10379, Note_on_c, 0, 62, 0
2, 10380, Note_on_c, 0, 61, 90
2, 10409, Note_on_c, 0, 61, 0
2, 10410, Note_on_c, 0, 59, 90
2, 10439, Note_on_c, 0, 59, 0
2, 10440, Note_on_c, 0, 57, 90
2, 10469, Note_on_c, 0, 57, 0
2, 10470, Note_on_c, 0, 55, 90
2, 10499, Note_on_c, 0, 55, 0
2, 10500, Note_on_c, 0, 54, 90
2, 10529, Note_on_c, 0, 54, 0
2, 10530, Note_on_c, 0, 52, 90
2, 10559, Note_on_c, 0, 52, 0
2, 10560, Note_on_c, 0, 50, 90
2, 10619, Note_on_c, 0, 50, 0
2, 10620, Note_on_c, 0, 62, 90
2, 10649, Note_on_c, 0, 62, 0
2, 10650, Note_on_c, 0, 61, 90
2, 10679, Note_on_c, 0, 61, 0
2, 10680, Note_on_c, 0, 62, 90
2, 10799, Note_on_c, 0, 62, 0
2, 10830, Note_on_c, 0, 60, 90
2, 10859, Note_on_c, 0, 60, 0
2, 10860, Note_on_c, 0, 59, 90
2, 10889, Note_on_c, 0, 59, 0
2, 10890, Note_on_c, 0, 62, 90
2, 10919, Note_on_c, 0, 62, 0
2, 10920, Note_on_c, 0, 67, 90
2, 10949, Note_on_c, 0, 67, 0
2, 10950, Note_on_c, 0, 62, 90
2, 10979, Note_on_c, 0, 62, 0
2, 10980, Note_on_c, 0, 59, 90
2, 11009, Note_on_c, 0, 59, 0
2, 11010, Note_on_c, 0, 55, 90
2, 11039, Note_on_c, 0, 55, 0
2, 11040, Note_on_c, 0, 59, 90
2, 11099, Note_on_c, 0, 59, 0
2, 11100, Note_on_c, 0, 64, 90
2, 11129, Note_on_c, 0, 64, 0
2, 11130, Note_on_c, 0, 63, 90
2, 11159, Note_on_c, 0, 63, 0
2, 11160, Note_on_c, 0, 64, 90
2, 11279, Note_on_c, 0, 64, 0
2, 11310, Note_on_c, 0, 62, 90
2, 11339, Note_on_c, 0, 62, 0
2, 11340, Note_on_c, 0, 61, 90
2, 11369, Note_on_c, 0, 61, 0
2, 11370, Note_on_c, 0, 64, 90
2, 11399, Note_on_c, 0, 64, 0
2, 11400, Note_on_c, 0, 69, 90
2, 11429, Note_on_c, 0, 69, 0
2, 11430, Note_on_c, 0, 64, 90
2, 11459, Note_on_c, 0, 64, 0
2, 11460, Note_on_c, 0, 61, 90
2, 11489, Note_on_c, 0, 61, 0
2, 11490, Note_on_c, 0, 64, 90
2, 11519, Note_on_c, 0, 64, 0
2, 11520, Note_on_c, 0, 66, 90
2, 11579, Note_on_c, 0, 66, 0
2, 11580, Note_on_c, 0, 66, 90
2, 11699, Note_on_c, 0, 66, 0
2, 11700, Note_on_c, 0, 64, 90
2, 11729, Note_on_c, 0, 64, 0
2, 11730, Note_on_c, 0, 63, 90
2, 11759, Note_on_c, 0, 63, 0
2, 11760, Note_on_c, 0, 64, 90
2, 11819, Note_on_c, 0, 64, 0
2, 11820, Note_on_c, 0, 64, 90
2, 11939, Note_on_c, 0, 64, 0
2, 11940, Note_on_c, 0, 62, 90
2, 11969, Note_on_c, 0, 62, 0
2, 11970, Note_on_c, 0, 61, 90
2, 11999, Note_on_c, 0, 61, 0
2, 12000, Note_on_c, 0, 62, 90
2, 12059, Note_on_c, 0, 62, 0
2, 12060, Note_on_c, 0, 61, 90
2, 12089, Note_on_c, 0, 61, 0
2, 12090, Note_on_c, 0, 59, 90
2, 12119, Note_on_c, 0, 59, 0
2, 12120, Note_on_c, 0, 57, 90
2, 12149, Note_on_c, 0, 57, 0
2, 12150, Note_on_c, 0, 55, 90
2, 12179, Note_on_c, 0, 55, 0
2, 12180, Note_on_c, 0, 54, 90
2, 12209, Note_on_c, 0, 54, 0
2, 12210, Note_on_c, 0, 52, 90
2, 12239, Note_on_c, 0, 52, 0
2, 12240, Note_on_c, 0, 54, 90
2, 12269, Note_on_c, 0, 54, 0
2, 12270, Note_on_c, 0, 55, 90
2, 12299, Note_on_c, 0, 55, 0
2, 12300, Note_on_c, 0, 57, 90
2, 12329, Note_on_c, 0, 57, 0
2, 12330, Note_on_c, 0, 54, 90
2, 12359, Note_on_c, 0, 54, 0
2, 12360, Note_on_c, 0, 50, 90
2, 12389, Note_on_c, 0, 50, 0
2, 12390, Note_on_c, 0, 54, 90
2, 12419, Note_on_c, 0, 54, 0
2, 12420, Note_on_c, 0, 55, 90
2, 12449, Note_on_c, 0, 55, 0
2, 12450, Note_on_c, 0, 57, 90
2, 12479, Note_on_c, 0, 57, 0
2, 12480, Note_on_c, 0, 59, 90
2, 12509, Note_on_c, 0, 59, 0
2, 12510, Note_on_c, 0, 61, 90
2, 12539, Note_on_c, 0, 61, 0
2, 12540, Note_on_c, 0, 62, 90
2, 12629, Note_on_c, 0, 62, 0
2, 12630, Note_on_c, 0, 61, 90
2, 12659, Note_on_c, 0, 61, 0
2, 12660, Note_on_c, 0, 59, 90
2, 12689, Note_on_c, 0, 59, 0
2, 12690, Note_on_c, 0, 57, 90
2, 12719, Note_on_c, 0, 57, 0
2, 12720, Note_on_c, 0, 56, 90
2, 12749, Note_on_c, 0, 56, 0
2, 12750, Note_on_c, 0, 57, 90
2, 12779, Note_on_c, 0, 57, 0
2, 12780, Note_on_c, 0, 59, 90
2, 12809, Note_on_c, 0, 59, 0
2, 12810, Note_on_c, 0, 56, 90
2, 12839, Note_on_c, 0, 56, 0
2, 12840, Note_on_c, 0, 52, 90
2, 12869, Note_on_c, 0, 52, 0
2, 12870, Note_on_c, 0, 56, 90
2, 12899, Note_on_c, 0, 56, 0
2, 12900, Note_on_c, 0, 57, 90
2, 12929, Note_on_c, 0, 57, 0
2, 12930, Note_on_c, 0, 59, 90
2, 12959, Note_on_c, 0, 59, 0
2, 12960, Note_on_c, 0, 61, 90
2, 12989, Note_on_c, 0, 61, 0
2, 12990, Note_on_c, 0, 62, 90
2, 13019, Note_on_c, 0, 62, 0
2, 13020, Note_on_c, 0, 64, 90
2, 13109, Note_on_c, 0, 64, 0
2, 13110, Note_on_c, 0, 62, 90
2, 13139, Note_on_c, 0, 62, 0
2, 13140, Note_on_c, 0, 61, 90
2, 13169, Note_on_c, 0, 61, 0
2, 13170, Note_on_c, 0, 59, 90
2, 13199, Note_on_c, 0, 59, 0
2, 13200, Note_on_c, 0, 57, 90
2, 13229, Note_on_c, 0, 57, 0
2, 13230, Note_on_c, 0, 59, 90
2, 13259, Note_on_c, 0, 59, 0
2, 13260, Note_on_c, 0, 61, 90
2, 13289, Note_on_c, 0, 61, 0
2, 13290, Note_on_c, 0, 57, 90
2, 13319, Note_on_c, 0, 57, 0
2, 13320, Note_on_c, 0, 54, 90
2, 13349, Note_on_c, 0, 54, 0
2, 13350, Note_on_c, 0, 57, 90
2, 13379, Note_on_c, 0, 57, 0
2, 13380, Note_on_c, 0, 59, 90
2, 13409, Note_on_c, 0, 59, 0
2, 13410, Note_on_c, 0, 61, 90
2, 13439, Note_on_c, 0, 61, 0
2, 13440, Note_on_c, 0, 62, 90
2, 13469, Note_on_c, 0, 62, 0
2, 13470, Note_on_c, 0, 64, 90
2, 13499, Note_on_c, 0, 64, 0
2, 13500, Note_on_c, 0, 66, 90
2, 13589, Note_on_c, 0, 66, 0
2, 13590, Note_on_c, 0, 62, 90
2, 13619, Note_on_c, 0, 62, 0
2, 13620, Note_on_c, 0, 64, 90
2, 13649, Note_on_c, 0, 64, 0
2, 13650, Note_on_c, 0, 66, 90
2, 13679, Note_on_c, 0, 66, 0
2, 13680, Note_on_c, 0, 56, 90
2, 13709, Note_on_c, 0, 56, 0
2, 13710, Note_on_c, 0, 57, 90
2, 13739, Note_on_c, 0, 57, 0
2, 13740, Note_on_c, 0, 59, 90
2, 13769, Note_on_c, 0, 59, 0
2, 13770, Note_on_c, 0, 56, 90
2, 13799, Note_on_c, 0, 56, 0
2, 13800, Note_on_c, 0, 52, 90
2, 13829, Note_on_c, 0, 52, 0
2, 13830, Note_on_c, 0, 56, 90
2, 13859, Note_on_c, 0, 56, 0
2, 13860, Note_on_c, 0, 59, 90
2, 13889, Note_on_c, 0, 59, 0
2, 13890, Note_on_c, 0, 62, 90
2, 13919, Note_on_c, 0, 62, 0
2, 13920, Note_on_c, 0, 61, 90
2, 13949, Note_on_c, 0, 61, 0
2, 13950, Note_on_c, 0, 62, 90
2, 13979, Note_on_c, 0, 62, 0
2, 13980, Note_on_c, 0, 64, 90
2, 14009, Note_on_c, 0, 64, 0
2, 14010, Note_on_c, 0, 66, 90
2, 14039, Note_on_c, 0, 66, 0
2, 14040, Note_on_c, 0, 59, 90
2, 14055, Note_on_c, 0, 59, 0
2, 14055, Note_on_c, 0, 61, 90
2, 14070, Note_on_c, 0, 61, 0
2, 14070, Note_on_c, 0, 59, 90
2, 14080, Note_on_c, 0, 59, 0
2, 14080, Note_on_c, 0, 61, 90
2, 14090, Note_on_c, 0, 61, 0
2, 14090, Note_on_c, 0, 59, 90
2, 14100, Note_on_c, 0, 59, 0
2, 14100, Note_on_c, 0, 61, 90
2, 14115, Note_on_c, 0, 61, 0
2, 14115, Note_on_c, 0, 59, 90
2, 14130, Note_on_c, 0, 59, 0
2, 14130, Note_on_c, 0, 57, 90
2, 14159, Note_on_c, 0, 57, 0
2, 14160, Note_on_c, 0, 57, 90
2, 14279, Note_on_c, 0, 57, 0
2, 14340, Note_on_c, 0, 64, 90
2, 14429, Note_on_c, 0, 64, 0
2, 14430, Note_on_c, 0, 67, 90
2, 14459, Note_on_c, 0, 67, 0
2, 14460, Note_on_c, 0, 66, 90
2, 14489, Note_on_c, 0, 66, 0
2, 14490, Note_on_c, 0, 64, 90
2, 14519, Note_on_c, 0, 64, 0
2, 14520, Note_on_c, 0, 62, 90
2, 14579, Note_on_c, 0, 62, 0
2, 14580, Note_on_c, 0, 62, 90
2, 14669, Note_on_c, 0, 62, 0
2, 14670, Note_on_c, 0, 59, 90
2, 14699, Note_on_c, 0, 59, 0
2, 14700, Note_on_c, 0, 56, 90
2, 14729, Note_on_c, 0, 56, 0
2, 14730, Note_on_c, 0, 59, 90
2, 14759, Note_on_c, 0, 59, 0
2, 14760, Note_on_c, 0, 49, 90
2, 14819, Note_on_c, 0, 49, 0
2, 14820, Note_on_c, 0, 61, 90
2, 14909, Note_on_c, 0, 61, 0
2, 14910, Note_on_c, 0, 64, 90
2, 14939, Note_on_c, 0, 64, 0
2, 14940, Note_on_c, 0, 61, 90
2, 14969, Note_on_c, 0, 61, 0
2, 14970, Note_on_c, 0, 57, 90
2, 14999, Note_on_c, 0, 57, 0
2, 15000, Note_on_c, 0, 54, 90
2, 15029, Note_on_c, 0, 54, 0
2, 15030, Note_on_c, 0, 62, 90
2, 15059, Note_on_c, 0, 62, 0
2, 15060, Note_on_c, 0, 59, 90
2, 15089, Note_on_c, 0, 59, 0
2, 15090, Note_on_c, 0, 56, 90
2, 15119, Note_on_c, 0, 56, 0
2, 15120, Note_on_c, 0, 52, 90
2, 15239, Note_on_c, 0, 52, 0
2, 15270, Note_on_c, 0, 52, 90
2, 15299, Note_on_c, 0, 52, 0
2, 15300, Note_on_c, 0, 54, 90
2, 15329, Note_on_c, 0, 54, 0
2, 15330, Note_on_c, 0, 56, 90
2, 15359, Note_on_c, 0, 56, 0
2, 15360, Note_on_c, 0, 57, 90
2, 15389, Note_on_c, 0, 57, 0
2, 15390, Note_on_c, 0, 59, 90
2, 15419, Note_on_c, 0, 59, 0
2, 15420, Note_on_c, 0, 60, 90
2, 15539, Note_on_c, 0, 60, 0
2, 15540, Note_on_c, 0, 59, 90
2, 15569, Note_on_c, 0, 59, 0
2, 15570, Note_on_c, 0, 57, 90
2, 15599, Note_on_c, 0, 57, 0
2, 15600, Note_on_c, 0, 56, 90
2, 15629, Note_on_c, 0, 56, 0
2, 15630, Note_on_c, 0, 57, 90
2, 15659, Note_on_c, 0, 57, 0
2, 15660, Note_on_c, 0, 59, 90
2, 15779, Note_on_c, 0, 59, 0
2, 15780, Note_on_c, 0, 57, 90
2, 15809, Note_on_c, 0, 57, 0
2, 15810, Note_on_c, 0, 56, 90
2, 15839, Note_on_c, 0, 56, 0
2, 15840, Note_on_c, 0, 64, 90
2, 15899, Note_on_c, 0, 64, 0
2, 15900, Note_on_c, 0, 62, 90
2, 15929, Note_on_c, 0, 62, 0
2, 15930, Note_on_c, 0, 61, 90
2, 15959, Note_on_c, 0, 61, 0
2, 15960, Note_on_c, 0, 62, 90
2, 15989, Note_on_c, 0, 62, 0
2, 15990, Note_on_c, 0, 61, 90
2, 16019, Note_on_c, 0, 61, 0
2, 16020, Note_on_c, 0, 59, 90
2, 16049, Note_on_c, 0, 59, 0
2, 16050, Note_on_c, 0, 61, 90
2, 16079, Note_on_c, 0, 61, 0
2, 16080, Note_on_c, 0, 57, 90
2, 16319, Note_on_c, 0, 57, 0
2, 16320, Note_on_c, 0, 62, 90
2, 16349, Note_on_c, 0, 62, 0
2, 16350, Note_on_c, 0, 64, 90
2, 16379, Note_on_c, 0, 64, 0
2, 16380, Note_on_c, 0, 66, 90
2, 16499, Note_on_c, 0, 66, 0
2, 16500, Note_on_c, 0, 64, 90
2, 16529, Note_on_c, 0, 64, 0
2, 16530, Note_on_c, 0, 62, 90
2, 16559, Note_on_c, 0, 62, 0
2, 16560, Note_on_c, 0, 61, 90
2, 16589, Note_on_c, 0, 61, 0
2, 16590, Note_on_c, 0, 62, 90
2, 16619, Note_on_c, 0, 62, 0
2, 16620, Note_on_c, 0, 64, 90
2, 16739, Note_on_c, 0, 64, 0
2, 16740, Note_on_c, 0, 62, 90
2, 16769, Note_on_c, 0, 62, 0
2, 16770, Note_on_c, 0, 61, 90
2, 16799, Note_on_c, 0, 61, 0
2, 16800, Note_on_c, 0, 62, 90
2, 16829, Note_on_c, 0, 62, 0
2, 16830, Note_on_c, 0, 57, 90
2, 16859, Note_on_c, 0, 57, 0
2, 16860, Note_on_c, 0, 66, 90
2, 16889, Note_on_c, 0, 66, 0
2, 16890, Note_on_c, 0, 57, 90
2, 16919, Note_on_c, 0, 57, 0
2, 16920, Note_on_c, 0, 64, 90
2, 16949, Note_on_c, 0, 64, 0
2, 16950, Note_on_c, 0, 57, 90
2, 16979, Note_on_c, 0, 57, 0
2, 16980, Note_on_c, 0, 62, 90
2, 17009, Note_on_c, 0, 62, 0
2, 17010, Note_on_c, 0, 57, 90
2, 17039, Note_on_c, 0, 57, 0
2, 17040, Note_on_c, 0, 61, 90
2, 17099, Note_on_c, 0, 61, 0
2, 17100, Note_on_c, 0, 57, 90
2, 17159, Note_on_c, 0, 57, 0
2, 17160, Note_on_c, 0, 61, 90
2, 17219, Note_on_c, 0, 61, 0
2, 17220, Note_on_c, 0, 64, 90
2, 17279, Note_on_c, 0, 64, 0
2, 17280, Note_on_c, 0, 66, 90
2, 17309, Note_on_c, 0, 66, 0
2, 17310, Note_on_c, 0, 67, 90
2, 17339, Note_on_c, 0, 67, 0
2, 17340, Note_on_c, 0, 69, 90
2, 17459, Note_on_c, 0, 69, 0
2, 17460, Note_on_c, 0, 67, 90
2, 17489, Note_on_c, 0, 67, 0
2, 17490, Note_on_c, 0, 66, 90
2, 17519, Note_on_c, 0, 66, 0
2, 17520, Note_on_c, 0, 64, 90
2, 17549, Note_on_c, 0, 64, 0
2, 17550, Note_on_c, 0, 66, 90
2, 17579, Note_on_c, 0, 66, 0
2, 17580, Note_on_c, 0, 67, 90
2, 17699, Note_on_c, 0, 67, 0
2, 17700, Note_on_c, 0, 66, 90
2, 17729, Note_on_c, 0, 66, 0
2, 17730, Note_on_c, 0, 64, 90
2, 17759, Note_on_c, 0, 64, 0
2, 17760, Note_on_c, 0, 66, 90
2, 17819, Note_on_c, 0, 66, 0
2, 17820, Note_on_c, 0, 62, 90
2, 17879, Note_on_c, 0, 62, 0
2, 17880, Note_on_c, 0, 61, 90
2, 17895, Note_on_c, 0, 61, 0
2, 17895, Note_on_c, 0, 62, 90
2, 17910, Note_on_c, 0, 62, 0
2, 17910, Note_on_c, 0, 61, 90
2, 17939, Note_on_c, 0, 61, 0
2, 17940, Note_on_c, 0, 62, 90
2, 17999, Note_on_c, 0, 62, 0
2, 18000, Note_on_c, 0, 64, 90
2, 18029, Note_on_c, 0, 64, 0
2, 18030, Note_on_c, 0, 62, 90
2, 18059, Note_on_c, 0, 62, 0
2, 18060, Note_on_c, 0, 61, 90
2, 18089, Note_on_c, 0, 61, 0
2, 18090, Note_on_c, 0, 59, 90
2, 18119, Note_on_c, 0, 59, 0
2, 18120, Note_on_c, 0, 57, 90
2, 18149, Note_on_c, 0, 57, 0
2, 18150, Note_on_c, 0, 55, 90
2, 18179, Note_on_c, 0, 55, 0
2, 18180, Note_on_c, 0, 54, 90
2, 18209, Note_on_c, 0, 54, 0
2, 18210, Note_on_c, 0, 52, 90
2, 18239, Note_on_c, 0, 52, 0
2, 18240, Note_on_c, 0, 50, 90
2, 18299, Note_on_c, 0, 50, 0
2, 18300, Note_on_c, 0, 62, 90
2, 18329, Note_on_c, 0, 62, 0
2, 18330, Note_on_c, 0, 61, 90
2, 18359, Note_on_c, 0, 61, 0
2, 18360, Note_on_c, 0, 62, 90
2, 18479, Note_on_c, 0, 62, 0
2, 18510, Note_on_c, 0, 60, 90
2, 18539, Note_on_c, 0, 60, 0
2, 18540, Note_on_c, 0, 59, 90
2, 18569, Note_on_c, 0, 59, 0
2, 18570, Note_on_c, 0, 62, 90
2, 18599, Note_on_c, 0, 62, 0
2, 18600, Note_on_c, 0, 67, 90
2, 18629, Note_on_c, 0, 67, 0
2, 18630, Note_on_c, 0, 62, 90
2, 18659, Note_on_c, 0, 62, 0
2, 18660, Note_on_c, 0, 59, 90
2, 18689, Note_on_c, 0, 59, 0
2, 18690, Note_on_c, 0, 55, 90
2, 18719, Note_on_c, 0, 55, 0
2, 18720, Note_on_c, 0, 59, 90
2, 18779, Note_on_c, 0, 59, 0
2, 18780, Note_on_c, 0, 64, 90
2, 18809, Note_on_c, 0, 64, 0
2, 18810, Note_on_c, 0, 63, 90
2, 18839, Note_on_c, 0, 63, 0
2, 18840, Note_on_c, 0, 64, 90
2, 18959, Note_on_c, 0, 64, 0
2, 18990, Note_on_c, 0, 62, 90
2, 19019, Note_on_c, 0, 62, 0
2, 19020, Note_on_c, 0, 61, 90
2, 19049, Note_on_c, 0, 61, 0
2, 19050, Note_on_c, 0, 64, 90
2, 19079, Note_on_c, 0, 64, 0
2, 19080, Note_on_c, 0, 69, 90
2, 19109, Note_on_c, 0, 69, 0
2, 19110, Note_on_c, 0, 64, 90
2, 19139, Note_on_c, 0, 64, 0
2, 19140, Note_on_c, 0, 61, 90
2, 19169, Note_on_c, 0, 61, 0
2, 19170, Note_on_c, 0, 64, 90
2, 19199, Note_on_c, 0, 64, 0
2, 19200, Note_on_c, 0, 66, 90
2, 19259, Note_on_c, 0, 66, 0
2, 19260, Note_on_c, 0, 66, 90
2, 19379, Note_on_c, 0, 66, 0
2, 19380, Note_on_c, 0, 64, 90
2, 19409, Note_on_c, 0, 64, 0
2, 19410, Note_on_c, 0, 63, 90
2, 19439, Note_on_c, 0, 63, 0
2, 19440, Note_on_c, 0, 64, 90
2, 19499, Note_on_c, 0, 64, 0
2, 19500, Note_on_c, 0, 64, 90
2, 19619, Note_on_c, 0, 64, 0
2, 19620, Note_on_c, 0, 62, 90
2, 19649, Note_on_c, 0, 62, 0
2, 19650, Note_on_c, 0, 61, 90
2, 19679, Note_on_c, 0, 61, 0
2, 19680, Note_on_c, 0, 62, 90
2, 19739, Note_on_c, 0, 62, 0
2, 19740, Note_on_c, 0, 61, 90
2, 19769, Note_on_c, 0, 61, 0
2, 19770, Note_on_c, 0, 59, 90
2, 19799, Note_on_c, 0, 59, 0
2, 19800, Note_on_c, 0, 57, 90
2, 19829, Note_on_c, 0, 57, 0
2, 19830, Note_on_c, 0, 55, 90
2, 19859, Note_on_c, 0, 55, 0
2, 19860, Note_on_c, 0, 54, 90
2, 19889, Note_on_c, 0, 54, 0
2, 19890, Note_on_c, 0, 52, 90
2, 19919, Note_on_c, 0, 52, 0
2, 19920, Note_on_c, 0, 54, 90
2, 19949, Note_on_c, 0, 54, 0
2, 19950, Note_on_c, 0, 55, 90
2, 19979, Note_on_c, 0, 55, 0
2, 19980, Note_on_c, 0, 57, 90
2, 20009, Note_on_c, 0, 57, 0
2, 20010, Note_on_c, 0, 54, 90
2, 20039, Note_on_c, 0, 54, 0
2, 20040, Note_on_c, 0, 50, 90
2, 20069, Note_on_c, 0, 50, 0
2, 20070, Note_on_c, 0, 54, 90
2, 20099, Note_on_c, 0, 54, 0
2, 20100, Note_on_c, 0, 55, 90
2, 20129, Note_on_c, 0, 55, 0
2, 20130, Note_on_c, 0, 57, 90
2, 20159, Note_on_c, 0, 57, 0
2, 20160, Note_on_c, 0, 59, 90
2, 20189, Note_on_c, 0, 59, 0
2, 20190, Note_on_c, 0, 61, 90
2, 20219, Note_on_c, 0, 61, 0
2, 20220, Note_on_c, 0, 62, 90
2, 20309, Note_on_c, 0, 62, 0
2, 20310, Note_on_c, 0, 61, 90
2, 20339, Note_on_c, 0, 61, 0
2, 20340, Note_on_c, 0, 59, 90
2, 20369, Note_on_c, 0, 59, 0
2, 20370, Note_on_c, 0, 57, 90
2, 20399, Note_on_c, 0, 57, 0
2, 20400, Note_on_c, 0, 56, 90
2, 20429, Note_on_c, 0, 56, 0
2, 20430, Note_on_c, 0, 57, 90
2, 20459, Note_on_c, 0, 57, 0
2, 20460, Note_on_c, 0, 59, 90
2, 20489, Note_on_c, 0, 59, 0
2, 20490, Note_on_c, 0, 56, 90
2, 20519, Note_on_c, 0, 56, 0
2, 20520, Note_on_c, 0, 52, 90
2, 20549, Note_on_c, 0, 52, 0
2, 20550, Note_on_c, 0, 56, 90
2, 20579, Note_on_c, 0, 56, 0
2, 20580, Note_on_c, 0, 57, 90
2, 20609, Note_on_c, 0, 57, 0
2, 20610, Note_on_c, 0, 59, 90
2, 20639, Note_on_c, 0, 59, 0
2, 20640, Note_on_c, 0, 61, 90
2, 20669, Note_on_c, 0, 61, 0
2, 20670, Note_on_c, 0, 62, 90
2, 20699, Note_on_c, 0, 62, 0
2, 20700, Note_on_c, 0, 64, 90
2, 20789, Note_on_c, 0, 64, 0
2, 20790, Note_on_c, 0, 62, 90
2, 20819, Note_on_c, 0, 62, 0
2, 20820, Note_on_c, 0, 61, 90
2, 20849, Note_on_c, 0, 61, 0
2, 20850, Note_on_c, 0, 59, 90
2, 20879, Note_on_c, 0, 59, 0
2, 20880, Note_on_c, 0, 57, 90
2, 20909, Note_on_c, 0, 57, 0
2, 20910, Note_on_c, 0, 59, 90
2, 20939, Note_on_c, 0, 59, 0
2, 20940, Note_on_c, 0, 61, 90
2, 20969, Note_on_c, 0, 61, 0
2, 20970, Note_on_c, 0, 57, 90
2, 20999, Note_on_c, 0, 57, 0
2, 21000, Note_on_c, 0, 54, 90
2, 21029, Note_on_c, 0, 54, 0
2, 21030, Note_on_c, 0, 57, 90
2, 21059, Note_on_c, 0, 57, 0
2, 21060, Note_on_c, 0, 59, 90
2, 21089, Note_on_c, 0, 59, 0
2, 21090, Note_on_c, 0, 61, 90
2, 21119, Note_on_c, 0, 61, 0
2, 21120, Note_on_c, 0, 62, 90
2, 21149, Note_on_c, 0, 62, 0
2, 21150, Note_on_c, 0, 64, 90
2, 21179, Note_on_c, 0, 64, 0
2, 21180, Note_on_c, 0, 66, 90
2, 21269, Note_on_c, 0, 66, 0
2, 21270, Note_on_c, 0, 62, 90
2, 21299, Note_on_c, 0, 62, 0
2, 21300, Note_on_c, 0, 64, 90
2, 21329, Note_on_c, 0, 64, 0
2, 21330, Note_on_c, 0, 66, 90
2, 21359, Note_on_c, 0, 66, 0
2, 21360, Note_on_c, 0, 56, 90
2, 21389, Note_on_c, 0, 56, 0
2, 21390, Note_on_c, 0, 57, 90
2, 21419, Note_on_c, 0, 57, 0
2, 21420, Note_on_c, 0, 59, 90
2, 21449, Note_on_c, 0, 59, 0
2, 21450, Note_on_c, 0, 56, 90
2, 21479, Note_on_c, 0, 56, 0
2, 21480, Note_on_c, 0, 52, 90
2, 21509, Note_on_c, 0, 52, 0
2, 21510, Note_on_c, 0, 56, 90
2, 21539, Note_on_c, 0, 56, 0
2, 21540, Note_on_c, 0, 59, 90
2, 21569, Note_on_c, 0, 59, 0
2, 21570, Note_on_c, 0, 62, 90
2, 21599, Note_on_c, 0, 62, 0
2, 21600, Note_on_c, 0, 61, 90
2, 21629, Note_on_c, 0, 61, 0
2, 21630, Note_on_c, 0, 62, 90
2, 21659, Note_on_c, 0, 62, 0
2, 21660, Note_on_c, 0, 64, 90
2, 21689, Note_on_c, 0, 64, 0
2, 21690, Note_on_c, 0, 66, 90
2, 21719, Note_on_c, 0, 66, 0
2, 21720, Note_on_c, 0, 59, 90
2, 21735, Note_on_c, 0, 59, 0
2, 21735, Note_on_c, 0, 61, 90
2, 21750, Note_on_c, 0, 61, 0
2, 21750, Note_on_c, 0, 59, 90
2, 21760, Note_on_c, 0, 59, 0
2, 21760, Note_on_c, 0, 61, 90
2, 21770, Note_on_c, 0, 61, 0
2, 21770, Note_on_c, 0, 59, 90
2, 21780, Note_on_c, 0, 59, 0
2, 21780, Note_on_c, 0, 61, 90
2, 21795, Note_on_c, 0, 61, 0
2, 21795, Note_on_c, 0, 59, 90
2, 21810, Note_on_c, 0, 59, 0
2, 21810, Note_on_c, 0, 57, 90
2, 21839, Note_on_c, 0, 57, 0
2, 21840, Note_on_c, 0, 57, 90
2, 21959, Note_on_c, 0, 57, 0
2, 22020, Note_on_c, 0, 64, 90
2, 22109, Note_on_c, 0, 64, 0
2, 22110, Note_on_c, 0, 67, 90
2, 22139, Note_on_c, 0, 67, 0
2, 22140, Note_on_c, 0, 66, 90
2, 22169, Note_on_c, 0, 66, 0
2, 22170, Note_on_c, 0, 64, 90
2, 22199, Note_on_c, 0, 64, 0
2, 22200, Note_on_c, 0, 62, 90
2, 22259, Note_on_c, 0, 62, 0
2, 22260, Note_on_c, 0, 62, 90
2, 22349, Note_on_c, 0, 62, 0
2, 22350, Note_on_c, 0, 59, 90
2, 22379, Note_on_c, 0, 59, 0
2, 22380, Note_on_c, 0, 56, 90
2, 22409, Note_on_c, 0, 56, 0
2, 22410, Note_on_c, 0, 59, 90
2, 22439, Note_on_c, 0, 59, 0
2, 22440, Note_on_c, 0, 49, 90
2, 22499, Note_on_c, 0, 49, 0
2, 22500, Note_on_c, 0, 61, 90
2, 22589, Note_on_c, 0, 61, 0
2, 22590, Note_on_c, 0, 64, 90
2, 22619, Note_on_c, 0, 64, 0
2, 22620, Note_on_c, 0, 61, 90
2, 22649, Note_on_c, 0, 61, 0
2, 22650, Note_on_c, 0, 57, 90
2, 22679, Note_on_c, 0, 57, 0
2, 22680, Note_on_c, 0, 54, 90
2, 22709, Note_on_c, 0, 54, 0
2, 22710, Note_on_c, 0, 62, 90
2, 22739, Note_on_c, 0, 62, 0
2, 22740, Note_on_c, 0, 59, 90
2, 22769, Note_on_c, 0, 59, 0
2, 22770, Note_on_c, 0, 56, 90
2, 22799, Note_on_c, 0, 56, 0
2, 22800, Note_on_c, 0, 52, 90
2, 22919, Note_on_c, 0, 52, 0
2, 22950, Note_on_c, 0, 52, 90
2, 22979, Note_on_c, 0, 52, 0
2, 22980, Note_on_c, 0, 54, 90
2, 23009, Note_on_c, 0, 54, 0
2, 23010, Note_on_c, 0, 56, 90
2, 23039, Note_on_c, 0, 56, 0
2, 23040, Note_on_c, 0, 57, 90
2, 23069, Note_on_c, 0, 57, 0
2, 23070, Note_on_c, 0, 59, 90
2, 23099, Note_on_c, 0, 59, 0
2, 23100, Note_on_c, 0, 60, 90
2, 23219, Note_on_c, 0, 60, 0
2, 23220, Note_on_c, 0, 59, 90
2, 23249, Note_on_c, 0, 59, 0
2, 23250, Note_on_c, 0, 57, 90
2, 23279, Note_on_c, 0, 57, 0
2, 23280, Note_on_c, 0, 56, 90
2, 23309, Note_on_c, 0, 56, 0
2, 23310, Note_on_c, 0, 57, 90
2, 23339, Note_on_c, 0, 57, 0
2, 23340, Note_on_c, 0, 59, 90
2, 23459, Note_on_c, 0, 59, 0
2, 23460, Note_on_c, 0, 57, 90
2, 23489, Note_on_c, 0, 57, 0
2, 23490, Note_on_c, 0, 56, 90
2, 23519, Note_on_c, 0, 56, 0
2, 23520, Note_on_c, 0, 64, 90
2, 23579, Note_on_c, 0, 64, 0
2, 23580, Note_on_c, 0, 62, 90
2, 23609, Note_on_c, 0, 62, 0
2, 23610, Note_on_c, 0, 61, 90
2, 23639, Note_on_c, 0, 61, 0
2, 23640, Note_on_c, 0, 62, 90
2, 23669, Note_on_c, 0, 62, 0
2, 23670, Note_on_c, 0, 61, 90
2, 23699, Note_on_c, 0, 61, 0
2, 23700, Note_on_c, 0, 59, 90
2, 23729, Note_on_c, 0, 59, 0
2, 23730, Note_on_c, 0, 61, 90
2, 23759, Note_on_c, 0, 61, 0
2, 23760, Note_on_c, 0, 57, 90
2, 23999, Note_on_c, 0, 57, 0
2, 24960, Note_on_c, 0, 57, 90
2, 24989, Note_on_c, 0, 57, 0
2, 24990, Note_on_c, 0, 59, 90
2, 25019, Note_on_c, 0, 59, 0
2, 25020, Note_on_c, 0, 60, 90
2, 25139, Note_on_c, 0, 60, 0
2, 25140, Note_on_c, 0, 59, 90
2, 25169, Note_on_c, 0, 59, 0
2, 25170, Note_on_c, 0, 57, 90
2, 25199, Note_on_c, 0, 57, 0
2, 25200, Note_on_c, 0, 55, 90
2, 25229, Note_on_c, 0, 55, 0
2, 25230, Note_on_c, 0, 54, 90
2, 25259, Note_on_c, 0, 54, 0
2, 25260, Note_on_c, 0, 52, 90
2, 25289, Note_on_c, 0, 52, 0
2, 25290, Note_on_c, 0, 50, 90
2, 25319, Note_on_c, 0, 50, 0
2, 25320, Note_on_c, 0, 52, 90
2, 25349, Note_on_c, 0, 52, 0
2, 25350, Note_on_c, 0, 54, 90
2, 25379, Note_on_c, 0, 54, 0
2, 25380, Note_on_c, 0, 55, 90
2, 25409, Note_on_c, 0, 55, 0
2, 25410, Note_on_c, 0, 57, 90
2, 25439, Note_on_c, 0, 57, 0
2, 25440, Note_on_c, 0, 59, 90
2, 25469, Note_on_c, 0, 59, 0
2, 25470, Note_on_c, 0, 60, 90
2, 25499, Note_on_c, 0, 60, 0
2, 25500, Note_on_c, 0, 62, 90
2, 25529, Note_on_c, 0, 62, 0
2, 25530, Note_on_c, 0, 64, 90
2, 25559, Note_on_c, 0, 64, 0
2, 25560, Note_on_c, 0, 62, 90
2, 25589, Note_on_c, 0, 62, 0
2, 25590, Note_on_c, 0, 60, 90
2, 25619, Note_on_c, 0, 60, 0
2, 25620, Note_on_c, 0, 59, 90
2, 25649, Note_on_c, 0, 59, 0
2, 25650, Note_on_c, 0, 57, 90
2, 25679, Note_on_c, 0, 57, 0
2, 25680, Note_on_c, 0, 60, 90
2, 25709, Note_on_c, 0, 60, 0
2, 25710, Note_on_c, 0, 59, 90
2, 25739, Note_on_c, 0, 59, 0
2, 25740, Note_on_c, 0, 57, 90
2, 25769, Note_on_c, 0, 57, 0
2, 25770, Note_on_c, 0, 59, 90
2, 25799, Note_on_c, 0, 59, 0
2, 25800, Note_on_c, 0, 55, 90
2, 25829, Note_on_c, 0, 55, 0
2, 25830, Note_on_c, 0, 59, 90
2, 25859, Note_on_c, 0, 59, 0
2, 25860, Note_on_c, 0, 62, 90
2, 25889, Note_on_c, 0, 62, 0
2, 25890, Note_on_c, 0, 67, 90
2, 25919, Note_on_c, 0, 67, 0
2, 25920, Note_on_c, 0, 64, 90
2, 25979, Note_on_c, 0, 64, 0
2, 25980, Note_on_c, 0, 55, 90
2, 26039, Note_on_c, 0, 55, 0
2, 26040, Note_on_c, 0, 60, 90
2, 26099, Note_on_c, 0, 60, 0
2, 26100, Note_on_c, 0, 64, 90
2, 26189, Note_on_c, 0, 64, 0
2, 26190, Note_on_c, 0, 62, 90
2, 26219, Note_on_c, 0, 62, 0
2, 26220, Note_on_c, 0, 60, 90
2, 26249, Note_on_c, 0, 60, 0
2, 26250, Note_on_c, 0, 59, 90
2, 26279, Note_on_c, 0, 59, 0
2, 26280, Note_on_c, 0, 57, 90
2, 26309, Note_on_c, 0, 57, 0
2, 26310, Note_on_c, 0, 59, 90
2, 26339, Note_on_c, 0, 59, 0
2, 26340, Note_on_c, 0, 60, 90
2, 26369, Note_on_c, 0, 60, 0
2, 26370, Note_on_c, 0, 64, 90
2, 26399, Note_on_c, 0, 64, 0
2, 26400, Note_on_c, 0, 63, 90
2, 26459, Note_on_c, 0, 63, 0
2, 26460, Note_on_c, 0, 59, 90
2, 26519, Note_on_c, 0, 59, 0
2, 26520, Note_on_c, 0, 54, 90
2, 26579, Note_on_c, 0, 54, 0
2, 26580, Note_on_c, 0, 66, 90
2, 26699, Note_on_c, 0, 66, 0
2, 26700, Note_on_c, 0, 59, 90
2, 26759, Note_on_c, 0, 59, 0
2, 26760, Note_on_c, 0, 64, 90
2, 26789, Note_on_c, 0, 64, 0
2, 26790, Note_on_c, 0, 66, 90
2, 26819, Note_on_c, 0, 66, 0
2, 26820, Note_on_c, 0, 67, 90
2, 26909, Note_on_c, 0, 67, 0
2, 26910, Note_on_c, 0, 66, 90
2, 26939, Note_on_c, 0, 66, 0
2, 26940, Note_on_c, 0, 64, 90
2, 26969, Note_on_c, 0, 64, 0
2, 26970, Note_on_c, 0, 62, 90
2, 26999, Note_on_c, 0, 62, 0
2, 27000, Note_on_c, 0, 61, 90
2, 27059, Note_on_c, 0, 61, 0
2, 27060, Note_on_c, 0, 66, 90
2, 27149, Note_on_c, 0, 66, 0
2, 27150, Note_on_c, 0, 64, 90
2, 27179, Note_on_c, 0, 64, 0
2, 27180, Note_on_c, 0, 62, 90
2, 27209, Note_on_c, 0, 62, 0
2, 27210, Note_on_c, 0, 61, 90
2, 27239, Note_on_c, 0, 61, 0
2, 27240, Note_on_c, 0, 59, 90
2, 27299, Note_on_c, 0, 59, 0
2, 27300, Note_on_c, 0, 67, 90
2, 27389, Note_on_c, 0, 67, 0
2, 27390, Note_on_c, 0, 58, 90
2, 27419, Note_on_c, 0, 58, 0
2, 27420, Note_on_c, 0, 59, 90
2, 27449, Note_on_c, 0, 59, 0
2, 27450, Note_on_c, 0, 61, 90
2, 27479, Note_on_c, 0, 61, 0
2, 27480, Note_on_c, 0, 54, 90
2, 27539, Note_on_c, 0, 54, 0
2, 27540, Note_on_c, 0, 58, 90
2, 27599, Note_on_c, 0, 58, 0
2, 27600, Note_on_c, 0, 59, 90
2, 27629, Note_on_c, 0, 59, 0
2, 27630, Note_on_c, 0, 61, 90
2, 27659, Note_on_c, 0, 61, 0
2, 27660, Note_on_c, 0, 62, 90
2, 27779, Note_on_c, 0, 62, 0
2, 27780, Note_on_c, 0, 61, 90
2, 27809, Note_on_c, 0, 61, 0
2, 27810, Note_on_c, 0, 59, 90
2, 27839, Note_on_c, 0, 59, 0
2, 27840, Note_on_c, 0, 57, 90
2, 27869, Note_on_c, 0, 57, 0
2, 27870, Note_on_c, 0, 56, 90
2, 27899, Note_on_c, 0, 56, 0
2, 27900, Note_on_c, 0, 54, 90
2, 27929, Note_on_c, 0, 54, 0
2, 27930, Note_on_c, 0, 52, 90
2, 27959, Note_on_c, 0, 52, 0
2, 27960, Note_on_c, 0, 54, 90
2, 27989, Note_on_c, 0, 54, 0
2, 27990, Note_on_c, 0, 56, 90
2, 28019, Note_on_c, 0, 56, 0
2, 28020, Note_on_c, 0, 57, 90
2, 28049, Note_on_c, 0, 57, 0
2, 28050, Note_on_c, 0, 59, 90
2, 28079, Note_on_c, 0, 59, 0
2, 28080, Note_on_c, 0, 61, 90
2, 28109, Note_on_c, 0, 61, 0
2, 28110, Note_on_c, 0, 62, 90
2, 28139, Note_on_c, 0, 62, 0
2, 28140, Note_on_c, 0, 64, 90
2, 28169, Note_on_c, 0, 64, 0
2, 28170, Note_on_c, 0, 66, 90
2, 28199, Note_on_c, 0, 66, 0
2, 28200, Note_on_c, 0, 64, 90
2, 28229, Note_on_c, 0, 64, 0
2, 28230, Note_on_c, 0, 62, 90
2, 28259, Note_on_c, 0, 62, 0
2, 28260, Note_on_c, 0, 61, 90
2, 28289, Note_on_c, 0, 61, 0
2, 28290, Note_on_c, 0, 59, 90
2, 28319, Note_on_c, 0, 59, 0
2, 28320, Note_on_c, 0, 62, 90
2, 28349, Note_on_c, 0, 62, 0
2, 28350, Note_on_c, 0, 61, 90
2, 28379, Note_on_c, 0, 61, 0
2, 28380, Note_on_c, 0, 59, 90
2, 28409, Note_on_c, 0, 59, 0
2, 28410, Note_on_c, 0, 61, 90
2, 28439, Note_on_c, 0, 61, 0
2, 28440, Note_on_c, 0, 57, 90
2, 28559, Note_on_c, 0, 57, 0
2, 28620, Note_on_c, 0, 64, 90
2, 28649, Note_on_c, 0, 64, 0
2, 28650, Note_on_c, 0, 66, 90
2, 28679, Note_on_c, 0, 66, 0
2, 28680, Note_on_c, 0, 67, 90
2, 28739, Note_on_c, 0, 67, 0
2, 28860, Note_on_c, 0, 66, 90
2, 28889, Note_on_c, 0, 66, 0
2, 28890, Note_on_c, 0, 67, 90
2, 28919, Note_on_c, 0, 67, 0
2, 28920, Note_on_c, 0, 66, 90
2, 28949, Note_on_c, 0, 66, 0
2, 28950, Note_on_c, 0, 64, 90
2, 28979, Note_on_c, 0, 64, 0
2, 28980, Note_on_c, 0, 62, 90
2, 29009, Note_on_c, 0, 62, 0
2, 29010, Note_on_c, 0, 61, 90
2, 29039, Note_on_c, 0, 61, 0
2, 29040, Note_on_c, 0, 62, 90
2, 29099, Note_on_c, 0, 62, 0
2, 29100, Note_on_c, 0, 66, 90
2, 29159, Note_on_c, 0, 66, 0
2, 29160, Note_on_c, 0, 71, 90
2, 29279, Note_on_c, 0, 71, 0
2, 29310, Note_on_c, 0, 68, 90
2, 29339, Note_on_c, 0, 68, 0
2, 29340, Note_on_c, 0, 69, 90
2, 29369, Note_on_c, 0, 69, 0
2, 29370, Note_on_c, 0, 66, 90
2, 29399, Note_on_c, 0, 66, 0
2, 29400, Note_on_c, 0, 66, 90
2, 29429, Note_on_c, 0, 66, 0
2, 29430, Note_on_c, 0, 65, 90
2, 29445, Note_on_c, 0, 65, 0
2, 29445, Note_on_c, 0, 66, 90
2, 29460, Note_on_c, 0, 66, 0
2, 29460, Note_on_c, 0, 65, 90
2, 29490, Note_on_c, 0, 65, 0
2, 29490, Note_on_c, 0, 66, 90
2, 29519, Note_on_c, 0, 66, 0
2, 29520, Note_on_c, 0, 66, 90
2, 29759, Note_on_c, 0, 66, 0
2, 29760, Note_on_c, 0, 66, 90
2, 29789, Note_on_c, 0, 66, 0
2, 29790, Note_on_c, 0, 67, 90
2, 29819, Note_on_c, 0, 67, 0
2, 29820, Note_on_c, 0, 69, 90
2, 29939, Note_on_c, 0, 69, 0
2, 29940, Note_on_c, 0, 67, 90
2, 29969, Note_on_c, 0, 67, 0
2, 29970, Note_on_c, 0, 66, 90
2, 29999, Note_on_c, 0, 66, 0
2, 30000, Note_on_c, 0, 64, 90
2, 30029, Note_on_c, 0, 64, 0
2, 30030, Note_on_c, 0, 66, 90
2, 30059, Note_on_c, 0, 66, 0
2, 30060, Note_on_c, 0, 67, 90
2, 30179, Note_on_c, 0, 67, 0
2, 30180, Note_on_c, 0, 66, 90
2, 30209, Note_on_c, 0, 66, 0
2, 30210, Note_on_c, 0, 64, 90
2, 30239, Note_on_c, 0, 64, 0
2, 30240, Note_on_c, 0, 66, 90
2, 30299, Note_on_c, 0, 66, 0
2, 30300, Note_on_c, 0, 62, 90
2, 30359, Note_on_c, 0, 62, 0
2, 30360, Note_on_c, 0, 61, 90
2, 30375, Note_on_c, 0, 61, 0
2, 30375, Note_on_c, 0, 62, 90
2, 30390, Note_on_c, 0, 62, 0
2, 30390, Note_on_c, 0, 61, 90
2, 30419, Note_on_c, 0, 61, 0
2, 30420, Note_on_c, 0, 62, 90
2, 30479, Note_on_c, 0, 62, 0
2, 30480, Note_on_c, 0, 64, 90
2, 30509, Note_on_c, 0, 64, 0
2, 30510, Note_on_c, 0, 62, 90
2, 30539, Note_on_c, 0, 62, 0
2, 30540, Note_on_c, 0, 61, 90
2, 30569, Note_on_c, 0, 61, 0
2, 30570, Note_on_c, 0, 59, 90
2, 30599, Note_on_c, 0, 59, 0
2, 30600, Note_on_c, 0, 57, 90
2, 30629, Note_on_c, 0, 57, 0
2, 30630, Note_on_c, 0, 55, 90
2, 30659, Note_on_c, 0, 55, 0
2, 30660, Note_on_c, 0, 54, 90
2, 30689, Note_on_c, 0, 54, 0
2, 30690, Note_on_c, 0, 52, 90
2, 30719, Note_on_c, 0, 52, 0
2, 30720, Note_on_c, 0, 50, 90
2, 30749, Note_on_c, 0, 50, 0
2, 30750, Note_on_c, 0, 52, 90
2, 30779, Note_on_c, 0, 52, 0
2, 30780, Note_on_c, 0, 54, 90
2, 30809, Note_on_c, 0, 54, 0
2, 30810, Note_on_c, 0, 52, 90
2, 30839, Note_on_c, 0, 52, 0
2, 30840, Note_on_c, 0, 50, 90
2, 30869, Note_on_c, 0, 50, 0
2, 30870, Note_on_c, 0, 54, 90
2, 30899, Note_on_c, 0, 54, 0
2, 30900, Note_on_c, 0, 57, 90
2, 30929, Note_on_c, 0, 57, 0
2, 30930, Note_on_c, 0, 62, 90
2, 30959, Note_on_c, 0, 62, 0
2, 30960, Note_on_c, 0, 61, 90
2, 30989, Note_on_c, 0, 61, 0
2, 30990, Note_on_c, 0, 62, 90
2, 31019, Note_on_c, 0, 62, 0
2, 31020, Note_on_c, 0, 64, 90
2, 31049, Note_on_c, 0, 64, 0
2, 31050, Note_on_c, 0, 62, 90
2, 31079, Note_on_c, 0, 62, 0
2, 31080, Note_on_c, 0, 61, 90
2, 31109, Note_on_c, 0, 61, 0
2, 31110, Note_on_c, 0, 64, 90
2, 31139, Note_on_c, 0, 64, 0
2, 31140, Note_on_c, 0, 57, 90
2, 31169, Note_on_c, 0, 57, 0
2, 31170, Note_on_c, 0, 61, 90
2, 31199, Note_on_c, 0, 61, 0
2, 31200, Note_on_c, 0, 62, 90
2, 31229, Note_on_c, 0, 62, 0
2, 31230, Note_on_c, 0, 57, 90
2, 31259, Note_on_c, 0, 57, 0
2, 31260, Note_on_c, 0, 66, 90
2, 31289, Note_on_c, 0, 66, 0
2, 31290, Note_on_c, 0, 57, 90
2, 31319, Note_on_c, 0, 57, 0
2, 31320, Note_on_c, 0, 64, 90
2, 31349, Note_on_c, 0, 64, 0
2, 31350, Note_on_c, 0, 57, 90
2, 31379, Note_on_c, 0, 57, 0
2, 31380, Note_on_c, 0, 62, 90
2, 31409, Note_on_c, 0, 62, 0
2, 31410, Note_on_c, 0, 57, 90
2, 31439, Note_on_c, 0, 57, 0
2, 31440, Note_on_c, 0, 61, 90
2, 31469, Note_on_c, 0, 61, 0
2, 31470, Note_on_c, 0, 62, 90
2, 31499, Note_on_c, 0, 62, 0
2, 31500, Note_on_c, 0, 64, 90
2, 31529, Note_on_c, 0, 64, 0
2, 31530, Note_on_c, 0, 62, 90
2, 31559, Note_on_c, 0, 62, 0
2, 31560, Note_on_c, 0, 61, 90
2, 31589, Note_on_c, 0, 61, 0
2, 31590, Note_on_c, 0, 59, 90
2, 31619, Note_on_c, 0, 59, 0
2, 31620, Note_on_c, 0, 57, 90
2, 31649, Note_on_c, 0, 57, 0
2, 31650, Note_on_c, 0, 55, 90
2, 31679, Note_on_c, 0, 55, 0
2, 31680, Note_on_c, 0, 54, 90
2, 31709, Note_on_c, 0, 54, 0
2, 31710, Note_on_c, 0, 55, 90
2, 31739, Note_on_c, 0, 55, 0
2, 31740, Note_on_c, 0, 57, 90
2, 31769, Note_on_c, 0, 57, 0
2, 31770, Note_on_c, 0, 54, 90
2, 31799, Note_on_c, 0, 54, 0
2, 31800, Note_on_c, 0, 50, 90
2, 31829, Note_on_c, 0, 50, 0
2, 31830, Note_on_c, 0, 54, 90
2, 31859, Note_on_c, 0, 54, 0
2, 31860, Note_on_c, 0, 57, 90
2, 31889, Note_on_c, 0, 57, 0
2, 31890, Note_on_c, 0, 60, 90
2, 31919, Note_on_c, 0, 60, 0
2, 31920, Note_on_c, 0, 59, 90
2, 31949, Note_on_c, 0, 59, 0
2, 31950, Note_on_c, 0, 60, 90
2, 31979, Note_on_c, 0, 60, 0
2, 31980, Note_on_c, 0, 62, 90
2, 32069, Note_on_c, 0, 62, 0
2, 32070, Note_on_c, 0, 50, 90
2, 32099, Note_on_c, 0, 50, 0
2, 32100, Note_on_c, 0, 52, 90
2, 32129, Note_on_c, 0, 52, 0
2, 32130, Note_on_c, 0, 54, 90
2, 32159, Note_on_c, 0, 54, 0
2, 32160, Note_on_c, 0, 55, 90
2, 32189, Note_on_c, 0, 55, 0
2, 32190, Note_on_c, 0, 57, 90
2, 32219, Note_on_c, 0, 57, 0
2, 32220, Note_on_c, 0, 59, 90
2, 32249, Note_on_c, 0, 59, 0
2, 32250, Note_on_c, 0, 55, 90
2, 32279, Note_on_c, 0, 55, 0
2, 32280, Note_on_c, 0, 52, 90
2, 32309, Note_on_c, 0, 52, 0
2, 32310, Note_on_c, 0, 55, 90
2, 32339, Note_on_c, 0, 55, 0
2, 32340, Note_on_c, 0, 59, 90
2, 32369, Note_on_c, 0, 59, 0
2, 32370, Note_on_c, 0, 62, 90
2, 32399, Note_on_c, 0, 62, 0
2, 32400, Note_on_c, 0, 61, 90
2, 32429, Note_on_c, 0, 61, 0
2, 32430, Note_on_c, 0, 62, 90
2, 32459, Note_on_c, 0, 62, 0
2, 32460, Note_on_c, 0, 64, 90
2, 32549, Note_on_c, 0, 64, 0
2, 32550, Note_on_c, 0, 64, 90
2, 32579, Note_on_c, 0, 64, 0
2, 32580, Note_on_c, 0, 66, 90
2, 32609, Note_on_c, 0, 66, 0
2, 32610, Note_on_c, 0, 67, 90
2, 32639, Note_on_c, 0, 67, 0
2, 32640, Note_on_c, 0, 69, 90
2, 32699, Note_on_c, 0, 69, 0
2, 32700, Note_on_c, 0, 69, 90
2, 32819, Note_on_c, 0, 69, 0
2, 32820, Note_on_c, 0, 67, 90
2, 32849, Note_on_c, 0, 67, 0
2, 32850, Note_on_c, 0, 66, 90
2, 32879, Note_on_c, 0, 66, 0
2, 32880, Note_on_c, 0, 67, 90
2, 32939, Note_on_c, 0, 67, 0
2, 32940, Note_on_c, 0, 67, 90
2, 33059, Note_on_c, 0, 67, 0
2, 33060, Note_on_c, 0, 66, 90
2, 33089, Note_on_c, 0, 66, 0
2, 33090, Note_on_c, 0, 64, 90
2, 33119, Note_on_c, 0, 64, 0
2, 33120, Note_on_c, 0, 66, 90
2, 33179, Note_on_c, 0, 66, 0
2, 33180, Note_on_c, 0, 64, 90
2, 33209, Note_on_c, 0, 64, 0
2, 33210, Note_on_c, 0, 62, 90
2, 33239, Note_on_c, 0, 62, 0
2, 33240, Note_on_c, 0, 66, 90
2, 33269, Note_on_c, 0, 66, 0
2, 33270, Note_on_c, 0, 64, 90
2, 33299, Note_on_c, 0, 64, 0
2, 33300, Note_on_c, 0, 62, 90
2, 33329, Note_on_c, 0, 62, 0
2, 33330, Note_on_c, 0, 61, 90
2, 33359, Note_on_c, 0, 61, 0
2, 33360, Note_on_c, 0, 62, 90
2, 33389, Note_on_c, 0, 62, 0
2, 33390, Note_on_c, 0, 57, 90
2, 33419, Note_on_c, 0, 57, 0
2, 33420, Note_on_c, 0, 54, 90
2, 33449, Note_on_c, 0, 54, 0
2, 33450, Note_on_c, 0, 50, 90
2, 33479, Note_on_c, 0, 50, 0
2, 33480, Note_on_c, 0, 60, 90
2, 33599, Note_on_c, 0, 60, 0
2, 33630, Note_on_c, 0, 57, 90
2, 33659, Note_on_c, 0, 57, 0
2, 33660, Note_on_c, 0, 54, 90
2, 33689, Note_on_c, 0, 54, 0
2, 33690, Note_on_c, 0, 50, 90
2, 33719, Note_on_c, 0, 50, 0
2, 33720, Note_on_c, 0, 59, 90
2, 33839, Note_on_c, 0, 59, 0
2, 33870, Note_on_c, 0, 55, 90
2, 33899, Note_on_c, 0, 55, 0
2, 33900, Note_on_c, 0, 52, 90
2, 33929, Note_on_c, 0, 52, 0
2, 33930, Note_on_c, 0, 49, 90
2, 33959, Note_on_c, 0, 49, 0
2, 33960, Note_on_c, 0, 57, 90
2, 34079, Note_on_c, 0, 57, 0
2, 34110, Note_on_c, 0, 54, 90
2, 34139, Note_on_c, 0, 54, 0
2, 34140, Note_on_c, 0, 50, 90
2, 34169, Note_on_c, 0, 50, 0
2, 34170, Note_on_c, 0, 47, 90
2, 34199, Note_on_c, 0, 47, 0
2, 34200, Note_on_c, 0, 55, 90
2, 34319, Note_on_c, 0, 55, 0
2, 34350, Note_on_c, 0, 57, 90
2, 34379, Note_on_c, 0, 57, 0
2, 34380, Note_on_c, 0, 61, 90
2, 34409, Note_on_c, 0, 61, 0
2, 34410, Note_on_c, 0, 64, 90
2, 34439, Note_on_c, 0, 64, 0
2, 34440, Note_on_c, 0, 69, 90
2, 34469, Note_on_c, 0, 69, 0
2, 34470, Note_on_c, 0, 67, 90
2, 34499, Note_on_c, 0, 67, 0
2, 34500, Note_on_c, 0, 65, 90
2, 34529, Note_on_c, 0, 65, 0
2, 34530, Note_on_c, 0, 64, 90
2, 34559, Note_on_c, 0, 64, 0
2, 34560, Note_on_c, 0, 65, 90
2, 34589, Note_on_c, 0, 65, 0
2, 34590, Note_on_c, 0, 67, 90
2, 34619, Note_on_c, 0, 67, 0
2, 34620, Note_on_c, 0, 69, 90
2, 34739, Note_on_c, 0, 69, 0
2, 34740, Note_on_c, 0, 67, 90
2, 34769, Note_on_c, 0, 67, 0
2, 34770, Note_on_c, 0, 65, 90
2, 34799, Note_on_c, 0, 65, 0
2, 34800, Note_on_c, 0, 64, 90
2, 34829, Note_on_c, 0, 64, 0
2, 34830, Note_on_c, 0, 65, 90
2, 34859, Note_on_c, 0, 65, 0
2, 34860, Note_on_c, 0, 67, 90
2, 34979, Note_on_c, 0, 67, 0
2, 34980, Note_on_c, 0, 66, 90
2, 35009, Note_on_c, 0, 66, 0
2, 35010, Note_on_c, 0, 64, 90
2, 35039, Note_on_c, 0, 64, 0
2, 35040, Note_on_c, 0, 67, 90
2, 35069, Note_on_c, 0, 67, 0
2, 35070, Note_on_c, 0, 66, 90
2, 35099, Note_on_c, 0, 66, 0
2, 35100, Note_on_c, 0, 64, 90
2, 35129, Note_on_c, 0, 64, 0
2, 35130, Note_on_c, 0, 62, 90
2, 35159, Note_on_c, 0, 62, 0
2, 35160, Note_on_c, 0, 57, 90
2, 35219, Note_on_c, 0, 57, 0
2, 35220, Note_on_c, 0, 61, 90
2, 35279, Note_on_c, 0, 61, 0
2, 35280, Note_on_c, 0, 62, 90
2, 35519, Note_on_c, 0, 62, 0
2, 36480, Note_on_c, 0, 57, 90
2, 36509, Note_on_c, 0, 57, 0
2, 36510, Note_on_c, 0, 59, 90
2, 36539, Note_on_c, 0, 59, 0
2, 36540, Note_on_c, 0, 60, 90
2, 36659, Note_on_c, 0, 60, 0
2, 36660, Note_on_c, 0, 59, 90
2, 36689, Note_on_c, 0, 59, 0
2, 36690, Note_on_c, 0, 57, 90
2, 36719, Note_on_c, 0, 57, 0
2, 36720, Note_on_c, 0, 55, 90
2, 36749, Note_on_c, 0, 55, 0
2, 36750, Note_on_c, 0, 54, 90
2, 36779, Note_on_c, 0, 54, 0
2, 36780, Note_on_c, 0, 52, 90
2, 36809, Note_on_c, 0, 52, 0
2, 36810, Note_on_c, 0, 50, 90
2, 36839, Note_on_c, 0, 50, 0
2, 36840, Note_on_c, 0, 52, 90
2, 36869, Note_on_c, 0, 52, 0
2, 36870, Note_on_c, 0, 54, 90
2, 36899, Note_on_c, 0, 54, 0
2, 36900, Note_on_c, 0, 55, 90
2, 36929, Note_on_c, 0, 55, 0
2, 36930, Note_on_c, 0, 57, 90
2, 36959, Note_on_c, 0, 57, 0
2, 36960, Note_on_c, 0, 59, 90
2, 36989, Note_on_c, 0, 59, 0
2, 36990, Note_on_c, 0, 60, 90
2, 37019, Note_on_c, 0, 60, 0
2, 37020, Note_on_c, 0, 62, 90
2, 37049, Note_on_c, 0, 62, 0
2, 37050, Note_on_c, 0, 64, 90
2, 37079, Note_on_c, 0, 64, 0
2, 37080, Note_on_c, 0, 62, 90
2, 37109, Note_on_c, 0, 62, 0
2, 37110, Note_on_c, 0, 60, 90
2, 37139, Note_on_c, 0, 60, 0
2, 37140, Note_on_c, 0, 59, 90
2, 37169, Note_on_c, 0, 59, 0
2, 37170, Note_on_c, 0, 57, 90
2, 37199, Note_on_c, 0, 57, 0
2, 37200, Note_on_c, 0, 60, 90
2, 37229, Note_on_c, 0, 60, 0
2, 37230, Note_on_c, 0, 59, 90
2, 37259, Note_on_c, 0, 59, 0
2, 37260, Note_on_c, 0, 57, 90
2, 37289, Note_on_c, 0, 57, 0
2, 37290, Note_on_c, 0, 59, 90
2, 37319, Note_on_c, 0, 59, 0
2, 37320, Note_on_c, 0, 55, 90
2, 37349, Note_on_c, 0, 55, 0
2, 37350, Note_on_c, 0, 59, 90
2, 37379, Note_on_c, 0, 59, 0
2, 37380, Note_on_c, 0, 62, 90
2, 37409, Note_on_c, 0, 62, 0
2, 37410, Note_on_c, 0, 67, 90
2, 37439, Note_on_c, 0, 67, 0
2, 37440, Note_on_c, 0, 64, 90
2, 37499, Note_on_c, 0, 64, 0
2, 37500, Note_on_c, 0, 55, 90
2, 37559, Note_on_c, 0, 55, 0
2, 37560, Note_on_c, 0, 60, 90
2, 37619, Note_on_c, 0, 60, 0
2, 37620, Note_on_c, 0, 64, 90
2, 37709, Note_on_c, 0, 64, 0
2, 37710, Note_on_c, 0, 62, 90
2, 37739, Note_on_c, 0, 62, 0
2, 37740, Note_on_c, 0, 60, 90
2, 37769, Note_on_c, 0, 60, 0
2, 37770, Note_on_c, 0, 59, 90
2, 37799, Note_on_c, 0, 59, 0
2, 37800, Note_on_c, 0, 57, 90
2, 37829, Note_on_c, 0, 57, 0
2, 37830, Note_on_c, 0, 59, 90
2, 37859, Note_on_c, 0, 59, 0
2, 37860, Note_on_c, 0, 60, 90
2, 37889, Note_on_c, 0, 60, 0
2, 37890, Note_on_c, 0, 64, 90
2, 37919, Note_on_c, 0, 64, 0
2, 37920, Note_on_c, 0, 63, 90
2, 37979, Note_on_c, 0, 63, 0
2, 37980, Note_on_c, 0, 59, 90
2, 38039, Note_on_c, 0, 59, 0
2, 38040, Note_on_c, 0, 54, 90
2, 38099, Note_on_c, 0, 54, 0
2, 38100, Note_on_c, 0, 66, 90
2, 38219, Note_on_c, 0, 66, 0
2, 38220, Note_on_c, 0, 59, 90
2, 38279, Note_on_c, 0, 59, 0
2, 38280, Note_on_c, 0, 64, 90
2, 38309, Note_on_c, 0, 64, 0
2, 38310, Note_on_c, 0, 66, 90
2, 38339, Note_on_c, 0, 66, 0
2, 38340, Note_on_c, 0, 67, 90
2, 38429, Note_on_c, 0, 67, 0
2, 38430, Note_on_c, 0, 66, 90
2, 38459, Note_on_c, 0, 66, 0
2, 38460, Note_on_c, 0, 64, 90
2, 38489, Note_on_c, 0, 64, 0
2, 38490, Note_on_c, 0, 62, 90
2, 38519, Note_on_c, 0, 62, 0
2, 38520, Note_on_c, 0, 61, 90
2, 38579, Note_on_c, 0, 61, 0
2, 38580, Note_on_c, 0, 66, 90
2, 38669, Note_on_c, 0, 66, 0
2, 38670, Note_on_c, 0, 64, 90
2, 38699, Note_on_c, 0, 64, 0
2, 38700, Note_on_c, 0, 62, 90
2, 38729, Note_on_c, 0, 62, 0
2, 38730, Note_on_c, 0, 61, 90
2, 38759, Note_on_c, 0, 61, 0
2, 38760, Note_on_c, 0, 59, 90
2, 38819, Note_on_c, 0, 59, 0
2, 38820, Note_on_c, 0, 67, 90
2, 38909, Note_on_c, 0, 67, 0
2, 38910, Note_on_c, 0, 58, 90
2, 38939, Note_on_c, 0, 58, 0
2, 38940, Note_on_c, 0, 59, 90
2, 38969, Note_on_c, 0, 59, 0
2, 38970, Note_on_c, 0, 61, 90
2, 38999, Note_on_c, 0, 61, 0
2, 39000, Note_on_c, 0, 54, 90
2, 39059, Note_on_c, 0, 54, 0
2, 39060, Note_on_c, 0, 58, 90
2, 39119, Note_on_c, 0, 58, 0
2, 39120, Note_on_c, 0, 59, 90
2, 39149, Note_on_c, 0, 59, 0
2, 39150, Note_on_c, 0, 61, 90
2, 39179, Note_on_c, 0, 61, 0
2, 39180, Note_on_c, 0, 62, 90
2, 39299, Note_on_c, 0, 62, 0
2, 39300, Note_on_c, 0, 61, 90
2, 39329, Note_on_c, 0, 61, 0
2, 39330, Note_on_c, 0, 59, 90
2, 39359, Note_on_c, 0, 59, 0
2, 39360, Note_on_c, 0, 57, 90
2, 39389, Note_on_c, 0, 57, 0
2, 39390, Note_on_c, 0, 56, 90
2, 39419, Note_on_c, 0, 56, 0
2, 39420, Note_on_c, 0, 54, 90
2, 39449, Note_on_c, 0, 54, 0
2, 39450, Note_on_c, 0, 52, 90
2, 39479, Note_on_c, 0, 52, 0
2, 39480, Note_on_c, 0, 54, 90
2, 39509, Note_on_c, 0, 54, 0
2, 39510, Note_on_c, 0, 56, 90
2, 39539, Note_on_c, 0, 56, 0
2, 39540, Note_on_c, 0, 57, 90
2, 39569, Note_on_c, 0, 57, 0
2, 39570, Note_on_c, 0, 59, 90
2, 39599, Note_on_c, 0, 59, 0
2, 39600, Note_on_c, 0, 61, 90
2, 39629, Note_on_c, 0, 61, 0
2, 39630, Note_on_c, 0, 62, 90
2, 39659, Note_on_c, 0, 62, 0
2, 39660, Note_on_c, 0, 64, 90
2, 39689, Note_on_c, 0, 64, 0
2, 39690, Note_on_c, 0, 66, 90
2, 39719, Note_on_c, 0, 66, 0
2, 39720, Note_on_c, 0, 64, 90
2, 39749, Note_on_c, 0, 64, 0
2, 39750, Note_on_c, 0, 62, 90
2, 39779, Note_on_c, 0, 62, 0
2, 39780, Note_on_c, 0, 61, 90
2, 39809, Note_on_c, 0, 61, 0
2, 39810, Note_on_c, 0, 59, 90
2, 39839, Note_on_c, 0, 59, 0
2, 39840, Note_on_c, 0, 62, 90
2, 39869, Note_on_c, 0, 62, 0
2, 39870, Note_on_c, 0, 61, 90
2, 39899, Note_on_c, 0, 61, 0
2, 39900, Note_on_c, 0, 59, 90
2, 39929, Note_on_c, 0, 59, 0
2, 39930, Note_on_c, 0, 61, 90
2, 39959, Note_on_c, 0, 61, 0
2, 39960, Note_on_c, 0, 57, 90
2, 40079, Note_on_c, 0, 57, 0
2, 40140, Note_on_c, 0, 64, 90
2, 40169, Note_on_c, 0, 64, 0
2, 40170, Note_on_c, 0, 66, 90
2, 40199, Note_on_c, 0, 66, 0
2, 40200, Note_on_c, 0, 67, 90
2, 40259, Note_on_c, 0, 67, 0
2, 40380, Note_on_c, 0, 66, 90
2, 40409, Note_on_c, 0, 66, 0
2, 40410, Note_on_c, 0, 67, 90
2, 40439, Note_on_c, 0, 67, 0
2, 40440, Note_on_c, 0, 66, 90
2, 40469, Note_on_c, 0, 66, 0
2, 40470, Note_on_c, 0, 64, 90
2, 40499, Note_on_c, 0, 64, 0
2, 40500, Note_on_c, 0, 62, 90
2, 40529, Note_on_c, 0, 62, 0
2, 40530, Note_on_c, 0, 61, 90
2, 40559, Note_on_c, 0, 61, 0
2, 40560, Note_on_c, 0, 62, 90
2, 40619, Note_on_c, 0, 62, 0
2, 40620, Note_on_c, 0, 66, 90
2, 40679, Note_on_c, 0, 66, 0
2, 40680, Note_on_c, 0, 71, 90
2, 40799, Note_on_c, 0, 71, 0
2, 40830, Note_on_c, 0, 68, 90
2, 40859, Note_on_c, 0, 68, 0
2, 40860, Note_on_c, 0, 69, 90
2, 40889, Note_on_c, 0, 69, 0
2, 40890, Note_on_c, 0, 66, 90
2, 40919, Note_on_c, 0, 66, 0
2, 40920, Note_on_c, 0, 66, 90
2, 40949, Note_on_c, 0, 66, 0
2, 40950, Note_on_c, 0, 65, 90
2, 40965, Note_on_c, 0, 65, 0
2, 40965, Note_on_c, 0, 66, 90
2, 40980, Note_on_c, 0, 66, 0
2, 40980, Note_on_c, 0, 65, 90
2, 41010, Note_on_c, 0, 65, 0
2, 41010, Note_on_c, 0, 66, 90
2, 41039, Note_on_c, 0, 66, 0
2, 41040, Note_on_c, 0, 66, 90
2, 41279, Note_on_c, 0, 66, 0
2, 41280, Note_on_c, 0, 66, 90
2, 41309, Note_on_c, 0, 66, 0
2, 41310, Note_on_c, 0, 67, 90
2, 41339, Note_on_c, 0, 67, 0
2, 41340, Note_on_c, 0, 69, 90
2, 41459, Note_on_c, 0, 69, 0
2, 41460, Note_on_c, 0, 67, 90
2, 41489, Note_on_c, 0, 67, 0
2, 41490, Note_on_c, 0, 66, 90
2, 41519, Note_on_c, 0, 66, 0
2, 41520, Note_on_c, 0, 64, 90
2, 41549, Note_on_c, 0, 64, 0
2, 41550, Note_on_c, 0, 66, 90
2, 41579, Note_on_c, 0, 66, 0
2, 41580, Note_on_c, 0, 67, 90
2, 41699, Note_on_c, 0, 67, 0
2, 41700, Note_on_c, 0, 66, 90
2, 41729, Note_on_c, 0, 66, 0
2, 41730, Note_on_c, 0, 64, 90
2, 41759, Note_on_c, 0, 64, 0
2, 41760, Note_on_c, 0, 66, 90
2, 41819, Note_on_c, 0, 66, 0
2, 41820, Note_on_c, 0, 62, 90
2, 41879, Note_on_c, 0, 62, 0
2, 41880, Note_on_c, 0, 61, 90
2, 41895, Note_on_c, 0, 61, 0
2, 41895, Note_on_c, 0, 62, 90
2, 41910, Note_on_c, 0, 62, 0
2, 41910, Note_on_c, 0, 61, 90
2, 41939, Note_on_c, 0, 61, 0
2, 41940, Note_on_c, 0, 62, 90
2, 41999, Note_on_c, 0, 62, 0
2, 42000, Note_on_c, 0, 64, 90
2, 42029, Note_on_c, 0, 64, 0
2, 42030, Note_on_c, 0, 62, 90
2, 42059, Note_on_c, 0, 62, 0
2, 42060, Note_on_c, 0, 61, 90
2, 42089, Note_on_c, 0, 61, 0
2, 42090, Note_on_c, 0, 59, 90
2, 42119, Note_on_c, 0, 59, 0
2, 42120, Note_on_c, 0, 57, 90
2, 42149, Note_on_c, 0, 57, 0
2, 42150, Note_on_c, 0, 55, 90
2, 42179, Note_on_c, 0, 55, 0
2, 42180, Note_on_c, 0, 54, 90
2, 42209, Note_on_c, 0, 54, 0
2, 42210, Note_on_c, 0, 52, 90
2, 42239, Note_on_c, 0, 52, 0
2, 42240, Note_on_c, 0, 50, 90
2, 42269, Note_on_c, 0, 50, 0
2, 42270, Note_on_c, 0, 52, 90
2, 42299, Note_on_c, 0, 52, 0
2, 42300, Note_on_c, 0, 54, 90
2, 42329, Note_on_c, 0, 54, 0
2, 42330, Note_on_c, 0, 52, 90
2, 42359, Note_on_c, 0, 52, 0
2, 42360, Note_on_c, 0, 50, 90
2, 42389, Note_on_c, 0, 50, 0
2, 42390, Note_on_c, 0, 54, 90
2, 42419, Note_on_c, 0, 54, 0
2, 42420, Note_on_c, 0, 57, 90
2, 42449, Note_on_c, 0, 57, 0
2, 42450, Note_on_c, 0, 62, 90
2, 42479, Note_on_c, 0, 62, 0
2, 42480, Note_on_c, 0, 61, 90
2, 42509, Note_on_c, 0, 61, 0
2, 42510, Note_on_c, 0, 62, 90
2, 42539, Note_on_c, 0, 62, 0
2, 42540, Note_on_c, 0, 64, 90
2, 42569, Note_on_c, 0, 64, 0
2, 42570, Note_on_c, 0, 62, 90
2, 42599, Note_on_c, 0, 62, 0
2, 42600, Note_on_c, 0, 61, 90
2, 42629, Note_on_c, 0, 61, 0
2, 42630, Note_on_c, 0, 64, 90
2, 42659, Note_on_c, 0, 64, 0
2, 42660, Note_on_c, 0, 57, 90
2, 42689, Note_on_c, 0, 57, 0
2, 42690, Note_on_c, 0, 61, 90
2, 42719, Note_on_c, 0, 61, 0
2, 42720, Note_on_c, 0, 62, 90
2, 42749, Note_on_c, 0, 62, 0
2, 42750, Note_on_c, 0, 57, 90
2, 42779, Note_on_c, 0, 57, 0
2, 42780, Note_on_c, 0, 66, 90
2, 42809, Note_on_c, 0, 66, 0
2, 42810, Note_on_c, 0, 57, 90
2, 42839, Note_on_c, 0, 57, 0
2, 42840, Note_on_c, 0, 64, 90
2, 42869, Note_on_c, 0, 64, 0
2, 42870, Note_on_c, 0, 57, 90
2, 42899, Note_on_c, 0, 57, 0
2, 42900, Note_on_c, 0, 62, 90
2, 42929, Note_on_c, 0, 62, 0
2, 42930, Note_on_c, 0, 57, 90
2, 42959, Note_on_c, 0, 57, 0
2, 42960, Note_on_c, 0, 61, 90
2, 42989, Note_on_c, 0, 61, 0
2, 42990, Note_on_c, 0, 62, 90
2, 43019, Note_on_c, 0, 62, 0
2, 43020, Note_on_c, 0, 64, 90
2, 43049, Note_on_c, 0, 64, 0
2, 43050, Note_on_c, 0, 62, 90
2, 43079, Note_on_c, 0, 62, 0
2, 43080, Note_on_c, 0, 61, 90
2, 43109, Note_on_c, 0, 61, 0
2, 43110, Note_on_c, 0, 59, 90
2, 43139, Note_on_c, 0, 59, 0
2, 43140, Note_on_c, 0, 57, 90
2, 43169, Note_on_c, 0, 57, 0
2, 43170, Note_on_c, 0, 55, 90
2, 43199, Note_on_c, 0, 55, 0
2, 43200, Note_on_c, 0, 54, 90
2, 43229, Note_on_c, 0, 54, 0
2, 43230, Note_on_c, 0, 55, 90
2, 43259, Note_on_c, 0, 55, 0
2, 43260, Note_on_c, 0, 57, 90
2, 43289, Note_on_c, 0, 57, 0
2, 43290, Note_on_c, 0, 54, 90
2, 43319, Note_on_c, 0, 54, 0
2, 43320, Note_on_c, 0, 50, 90
2, 43349, Note_on_c, 0, 50, 0
2, 43350, Note_on_c, 0, 54, 90
2, 43379, Note_on_c, 0, 54, 0
2, 43380, Note_on_c, 0, 57, 90
2, 43409, Note_on_c, 0, 57, 0
2, 43410, Note_on_c, 0, 60, 90
2, 43439, Note_on_c, 0, 60, 0
2, 43440, Note_on_c, 0, 59, 90
2, 43469, Note_on_c, 0, 59, 0
2, 43470, Note_on_c, 0, 60, 90
2, 43499, Note_on_c, 0, 60, 0
2, 43500, Note_on_c, 0, 62, 90
2, 43589, Note_on_c, 0, 62, 0
2, 43590, Note_on_c, 0, 50, 90
2, 43619, Note_on_c, 0, 50, 0
2, 43620, Note_on_c, 0, 52, 90
2, 43649, Note_on_c, 0, 52, 0
2, 43650, Note_on_c, 0, 54, 90
2, 43679, Note_on_c, 0, 54, 0
2, 43680, Note_on_c, 0, 55, 90
2, 43709, Note_on_c, 0, 55, 0
2, 43710, Note_on_c, 0, 57, 90
2, 43739, Note_on_c, 0, 57, 0
2, 43740, Note_on_c, 0, 59, 90
2, 43769, Note_on_c, 0, 59, 0
2, 43770, Note_on_c, 0, 55, 90
2, 43799, Note_on_c, 0, 55, 0
2, 43800, Note_on_c, 0, 52, 90
2, 43829, Note_on_c, 0, 52, 0
2, 43830, Note_on_c, 0, 55, 90
2, 43859, Note_on_c, 0, 55, 0
2, 43860, Note_on_c, 0, 59, 90
2, 43889, Note_on_c, 0, 59, 0
2, 43890, Note_on_c, 0, 62, 90
2, 43919, Note_on_c, 0, 62, 0
2, 43920, Note_on_c, 0, 61, 90
2, 43949, Note_on_c, 0, 61, 0
2, 43950, Note_on_c, 0, 62, 90
2, 43979, Note_on_c, 0, 62, 0
2, 43980, Note_on_c, 0, 64, 90
2, 44069, Note_on_c, 0, 64, 0
2, 44070, Note_on_c, 0, 64, 90
2, 44099, Note_on_c, 0, 64, 0
2, 44100, Note_on_c, 0, 66, 90
2, 44129, Note_on_c, 0, 66, 0
2, 44130, Note_on_c, 0, 67, 90
2, 44159, Note_on_c, 0, 67, 0
2, 44160, Note_on_c, 0, 69, 90
2, 44219, Note_on_c, 0, 69, 0
2, 44220, Note_on_c, 0, 69, 90
2, 44339, Note_on_c, 0, 69, 0
2, 44340, Note_on_c, 0, 67, 90
2, 44369, Note_on_c, 0, 67, 0
2, 44370, Note_on_c, 0, 66, 90
2, 44399, Note_on_c, 0, 66, 0
2, 44400, Note_on_c, 0, 67, 90
2, 44459, Note_on_c, 0, 67, 0
2, 44460, Note_on_c, 0, 67, 90
2, 44579, Note_on_c, 0, 67, 0
2, 44580, Note_on_c, 0, 66, 90
2, 44609, Note_on_c, 0, 66, 0
2, 44610, Note_on_c, 0, 64, 90
2, 44639, Note_on_c, 0, 64, 0
2, 44640, Note_on_c, 0, 66, 90
2, 44699, Note_on_c, 0, 66, 0
2, 44700, Note_on_c, 0, 64, 90
2, 44729, Note_on_c, 0, 64, 0
2, 44730, Note_on_c, 0, 62, 90
2, 44759, Note_on_c, 0, 62, 0
2, 44760, Note_on_c, 0, 66, 90
2, 44789, Note_on_c, 0, 66, 0
2, 44790, Note_on_c, 0, 64, 90
2, 44819, Note_on_c, 0, 64, 0
2, 44820, Note_on_c, 0, 62, 90
2, 44849, Note_on_c, 0, 62, 0
2, 44850, Note_on_c, 0, 61, 90
2, 44879, Note_on_c, 0, 61, 0
2, 44880, Note_on_c, 0, 62, 90
2, 44909, Note_on_c, 0, 62, 0
2, 44910, Note_on_c, 0, 57, 90
2, 44939, Note_on_c, 0, 57, 0
2, 44940, Note_on_c, 0, 54, 90
2, 44969, Note_on_c, 0, 54, 0
2, 44970, Note_on_c, 0, 50, 90
2, 44999, Note_on_c, 0, 50, 0
2, 45000, Note_on_c, 0, 60, 90
2, 45119, Note_on_c, 0, 60, 0
2, 45150, Note_on_c, 0, 57, 90
2, 45179, Note_on_c, 0, 57, 0
2, 45180, Note_on_c, 0, 54, 90
2, 45209, Note_on_c, 0, 54, 0
2, 45210, Note_on_c, 0, 50, 90
2, 45239, Note_on_c, 0, 50, 0
2, 45240, Note_on_c, 0, 59, 90
2, 45359, Note_on_c, 0, 59, 0
2, 45390, Note_on_c, 0, 55, 90
2, 45419, Note_on_c, 0, 55, 0
2, 45420, Note_on_c, 0, 52, 90
2, 45449, Note_on_c, 0, 52, 0
2, 45450, Note_on_c, 0, 49, 90
2, 45479, Note_on_c, 0, 49, 0
2, 45480, Note_on_c, 0, 57, 90
2, 45599, Note_on_c, 0, 57, 0
2, 45630, Note_on_c, 0, 54, 90
2, 45659, Note_on_c, 0, 54, 0
2, 45660, Note_on_c, 0, 50, 90
2, 45689, Note_on_c, 0, 50, 0
2, 45690, Note_on_c, 0, 47, 90
2, 45719, Note_on_c, 0, 47, 0
2, 45720, Note_on_c, 0, 55, 90
2, 45839, Note_on_c, 0, 55, 0
2, 45870, Note_on_c, 0, 57, 90
2, 45899, Note_on_c, 0, 57, 0
2, 45900, Note_on_c, 0, 61, 90
2, 45929, Note_on_c, 0, 61, 0
2, 45930, Note_on_c, 0, 64, 90
2, 45959, Note_on_c, 0, 64, 0
2, 45960, Note_on_c, 0, 69, 90
2, 45989, Note_on_c, 0, 69, 0
2, 45990, Note_on_c, 0, 67, 90
2, 46019, Note_on_c, 0, 67, 0
2, 46020, Note_on_c, 0, 65, 90
2, 46049, Note_on_c, 0, 65, 0
2, 46050, Note_on_c, 0, 64, 90
2, 46079, Note_on_c, 0, 64, 0
2, 46080, Note_on_c, 0, 65, 90
2, 46109, Note_on_c, 0, 65, 0
2, 46110, Note_on_c, 0, 67, 90
2, 46139, Note_on_c, 0, 67, 0
2, 46140, Note_on_c, 0, 69, 90
2, 46259, Note_on_c, 0, 69, 0
2, 46260, Note_on_c, 0, 67, 90
2, 46289, Note_on_c, 0, 67, 0
2, 46290, Note_on_c, 0, 65, 90
2, 46319, Note_on_c, 0, 65, 0
2, 46320, Note_on_c, 0, 64, 90
2, 46349, Note_on_c, 0, 64, 0
2, 46350, Note_on_c, 0, 65, 90
2, 46379, Note_on_c, 0, 65, 0
2, 46380, Note_on_c, 0, 67, 90
2, 46499, Note_on_c, 0, 67, 0
2, 46500, Note_on_c, 0, 66, 90
2, 46529, Note_on_c, 0, 66, 0
2, 46530, Note_on_c, 0, 64, 90
2, 46559, Note_on_c, 0, 64, 0
2, 46560, Note_on_c, 0, 67, 90
2, 46589, Note_on_c, 0, 67, 0
2, 46590, Note_on_c, 0, 66, 90
2, 46619, Note_on_c, 0, 66, 0
2, 46620, Note_on_c, 0, 64, 90
2, 46649, Note_on_c, 0, 64, 0
2, 46650, Note_on_c, 0, 62, 90
2, 46679, Note_on_c, 0, 62, 0
2, 46680, Note_on_c, 0, 57, 90
2, 46739, Note_on_c, 0, 57, 0
2, 46740, Note_on_c, 0, 61, 90
2, 46799, Note_on_c, 0, 61, 0
2, 46800, Note_on_c, 0, 50, 90
2, 46810, Note_on_c, 0, 54, 90
2, 46830, Note_on_c, 0, 57, 90
2, 46840, Note_on_c, 0, 62, 90
2, 47039, Note_on_c, 0, 62, 0
2, 47039, Note_on_c, 0, 50, 0
2, 47039, Note_on_c, 0, 54, 0
2, 47039, Note_on_c, 0, 57, 0
2, 47400, Note_on_c, 0, 54, 90
2, 47459, Note_on_c, 0, 54, 0
2, 47460, Note_on_c, 0, 59, 90
2, 47549, Note_on_c, 0, 59, 0
2, 47550, Note_on_c, 0, 62, 90
2, 47579, Note_on_c, 0, 62, 0
2, 47580, Note_on_c, 0, 61, 90
2, 47639, Note_on_c, 0, 61, 0
2, 47640, Note_on_c, 0, 59, 90
2, 47699, Note_on_c, 0, 59, 0
2, 47700, Note_on_c, 0, 59, 90
2, 47714, Note_on_c, 0, 59, 0
2, 47715, Note_on_c, 0, 61, 90
2, 47729, Note_on_c, 0, 61, 0
2, 47730, Note_on_c, 0, 62, 90
2, 47759, Note_on_c, 0, 62, 0
2, 47760, Note_on_c, 0, 61, 90
2, 47820, Note_on_c, 0, 61, 0
2, 47820, Note_on_c, 0, 52, 90
2, 47834, Note_on_c, 0, 52, 0
2, 47835, Note_on_c, 0, 54, 90
2, 47849, Note_on_c, 0, 54, 0
2, 47850, Note_on_c, 0, 55, 90
2, 47909, Note_on_c, 0, 55, 0
2, 47910, Note_on_c, 0, 54, 90
2, 47939, Note_on_c, 0, 54, 0
2, 47940, Note_on_c, 0, 52, 90
2, 47999, Note_on_c, 0, 52, 0
2, 48000, Note_on_c, 0, 50, 90
2, 48010, Note_on_c, 0, 50, 0
2, 48010, Note_on_c, 0, 52, 90
2, 48020, Note_on_c, 0, 52, 0
2, 48020, Note_on_c, 0, 50, 90
2, 48030, Note_on_c, 0, 50, 0
2, 48030, Note_on_c, 0, 52, 90
2, 48037, Note_on_c, 0, 50, 90
2, 48038, Note_on_c, 0, 52, 0
2, 48060, Note_on_c, 0, 50, 0
2, 48060, Note_on_c, 0, 49, 90
2, 48089, Note_on_c, 0, 49, 0
2, 48090, Note_on_c, 0, 47, 90
2, 48119, Note_on_c, 0, 47, 0
2, 48120, Note_on_c, 0, 59, 90
2, 48239, Note_on_c, 0, 59, 0
2, 48240, Note_on_c, 0, 57, 90
2, 48269, Note_on_c, 0, 57, 0
2, 48270, Note_on_c, 0, 56, 90
2, 48299, Note_on_c, 0, 56, 0
2, 48300, Note_on_c, 0, 57, 90
2, 48419, Note_on_c, 0, 57, 0
2, 48420, Note_on_c, 0, 56, 90
2, 48434, Note_on_c, 0, 56, 0
2, 48435, Note_on_c, 0, 54, 90
2, 48449, Note_on_c, 0, 54, 0
2, 48450, Note_on_c, 0, 53, 90
2, 48479, Note_on_c, 0, 53, 0
2, 48480, Note_on_c, 0, 54, 90
2, 48569, Note_on_c, 0, 54, 0
2, 48570, Note_on_c, 0, 62, 90
2, 48599, Note_on_c, 0, 62, 0
2, 48600, Note_on_c, 0, 61, 90
2, 48629, Note_on_c, 0, 61, 0
2, 48630, Note_on_c, 0, 59, 90
2, 48659, Note_on_c, 0, 59, 0
2, 48660, Note_on_c, 0, 61, 90
2, 48689, Note_on_c, 0, 61, 0
2, 48690, Note_on_c, 0, 62, 90
2, 48719, Note_on_c, 0, 62, 0
2, 48720, Note_on_c, 0, 53, 90
2, 48749, Note_on_c, 0, 53, 0
2, 48750, Note_on_c, 0, 54, 90
2, 48779, Note_on_c, 0, 54, 0
2, 48780, Note_on_c, 0, 56, 90
2, 48809, Note_on_c, 0, 56, 0
2, 48810, Note_on_c, 0, 59, 90
2, 48839, Note_on_c, 0, 59, 0
2, 48840, Note_on_c, 0, 57, 90
2, 48869, Note_on_c, 0, 57, 0
2, 48870, Note_on_c, 0, 56, 90
2, 48899, Note_on_c, 0, 56, 0
2, 48900, Note_on_c, 0, 57, 90
2, 48929, Note_on_c, 0, 57, 0
2, 48930, Note_on_c, 0, 59, 90
2, 48959, Note_on_c, 0, 59, 0
2, 48960, Note_on_c, 0, 61, 90
2, 49019, Note_on_c, 0, 61, 0
2, 49020, Note_on_c, 0, 66, 90
2, 49049, Note_on_c, 0, 66, 0
2, 49050, Note_on_c, 0, 65, 90
2, 49079, Note_on_c, 0, 65, 0
2, 49080, Note_on_c, 0, 66, 90
2, 49319, Note_on_c, 0, 66, 0
2, 49320, Note_on_c, 0, 65, 90
2, 49379, Note_on_c, 0, 65, 0
2, 49380, Note_on_c, 0, 68, 90
2, 49469, Note_on_c, 0, 68, 0
2, 49470, Note_on_c, 0, 65, 90
2, 49499, Note_on_c, 0, 65, 0
2, 49500, Note_on_c, 0, 66, 90
2, 49529, Note_on_c, 0, 66, 0
2, 49530, Note_on_c, 0, 68, 90
2, 49559, Note_on_c, 0, 68, 0
2, 49560, Note_on_c, 0, 69, 90
2, 49620, Note_on_c, 0, 69, 0
2, 49620, Note_on_c, 0, 69, 90
2, 49679, Note_on_c, 0, 69, 0
2, 49680, Note_on_c, 0, 68, 90
2, 49799, Note_on_c, 0, 68, 0
2, 49800, Note_on_c, 0, 66, 90
2, 50039, Note_on_c, 0, 66, 0
2, 50040, Note_on_c, 0, 64, 90
2, 50069, Note_on_c, 0, 64, 0
2, 50070, Note_on_c, 0, 63, 90
2, 50099, Note_on_c, 0, 63, 0
2, 50100, Note_on_c, 0, 64, 90
2, 50159, Note_on_c, 0, 64, 0
2, 50160, Note_on_c, 0, 63, 90
2, 50219, Note_on_c, 0, 63, 0
2, 50220, Note_on_c, 0, 56, 90
2, 50279, Note_on_c, 0, 56, 0
2, 50280, Note_on_c, 0, 60, 90
2, 50339, Note_on_c, 0, 60, 0
2, 50340, Note_on_c, 0, 61, 90
2, 50550, Note_on_c, 0, 61, 0
2, 50550, Note_on_c, 0, 68, 90
2, 50579, Note_on_c, 0, 68, 0
2, 50580, Note_on_c, 0, 66, 90
2, 50609, Note_on_c, 0, 66, 0
2, 50610, Note_on_c, 0, 64, 90
2, 50639, Note_on_c, 0, 64, 0
2, 50640, Note_on_c, 0, 63, 90
2, 50669, Note_on_c, 0, 63, 0
2, 50670, Note_on_c, 0, 61, 90
2, 50699, Note_on_c, 0, 61, 0
2, 50700, Note_on_c, 0, 68, 90
2, 50759, Note_on_c, 0, 68, 0
2, 50760, Note_on_c, 0, 56, 90
2, 50819, Note_on_c, 0, 56, 0
2, 50820, Note_on_c, 0, 60, 90
2, 50830, Note_on_c, 0, 60, 0
2, 50830, Note_on_c, 0, 62, 90
2, 50840, Note_on_c, 0, 62, 0
2, 50840, Note_on_c, 0, 60, 90
2, 50850, Note_on_c, 0, 60, 0
2, 50850, Note_on_c, 0, 62, 90
2, 50857, Note_on_c, 0, 60, 90
2, 50858, Note_on_c, 0, 62, 0
2, 50865, Note_on_c, 0, 60, 0
2, 50865, Note_on_c, 0, 62, 90
2, 50872, Note_on_c, 0, 60, 90
2, 50873, Note_on_c, 0, 62, 0
2, 50880, Note_on_c, 0, 60, 0
2, 50880, Note_on_c, 0, 61, 90
2, 50999, Note_on_c, 0, 61, 0
2, 51720, Note_on_c, 0, 64, 90
2, 51779, Note_on_c, 0, 64, 0
2, 51780, Note_on_c, 0, 69, 90
2, 51869, Note_on_c, 0, 69, 0
2, 51870, Note_on_c, 0, 73, 90
2, 51899, Note_on_c, 0, 73, 0
2, 51900, Note_on_c, 0, 71, 90
2, 51959, Note_on_c, 0, 71, 0
2, 51960, Note_on_c, 0, 69, 90
2, 52019, Note_on_c, 0, 69, 0
2, 52020, Note_on_c, 0, 69, 90
2, 52034, Note_on_c, 0, 69, 0
2, 52035, Note_on_c, 0, 71, 90
2, 52049, Note_on_c, 0, 71, 0
2, 52050, Note_on_c, 0, 73, 90
2, 52079, Note_on_c, 0, 73, 0
2, 52080, Note_on_c, 0, 71, 90
2, 52139, Note_on_c, 0, 71, 0
2, 52140, Note_on_c, 0, 62, 90
2, 52154, Note_on_c, 0, 62, 0
2, 52155, Note_on_c, 0, 64, 90
2, 52169, Note_on_c, 0, 64, 0
2, 52170, Note_on_c, 0, 66, 90
2, 52229, Note_on_c, 0, 66, 0
2, 52230, Note_on_c, 0, 64, 90
2, 52259, Note_on_c, 0, 64, 0
2, 52260, Note_on_c, 0, 62, 90
2, 52319, Note_on_c, 0, 62, 0
2, 52320, Note_on_c, 0, 61, 90
2, 52379, Note_on_c, 0, 61, 0
2, 52380, Note_on_c, 0, 59, 90
2, 52409, Note_on_c, 0, 59, 0
2, 52410, Note_on_c, 0, 57, 90
2, 52439, Note_on_c, 0, 57, 0
2, 52440, Note_on_c, 0, 59, 90
2, 52499, Note_on_c, 0, 59, 0
2, 52500, Note_on_c, 0, 61, 90
2, 52529, Note_on_c, 0, 61, 0
2, 52530, Note_on_c, 0, 59, 90
2, 52559, Note_on_c, 0, 59, 0
2, 52560, Note_on_c, 0, 62, 90
2, 52589, Note_on_c, 0, 62, 0
2, 52590, Note_on_c, 0, 61, 90
2, 52619, Note_on_c, 0, 61, 0
2, 52620, Note_on_c, 0, 66, 90
2, 52649, Note_on_c, 0, 66, 0
2, 52650, Note_on_c, 0, 64, 90
2, 52679, Note_on_c, 0, 64, 0
2, 52680, Note_on_c, 0, 64, 90
2, 52709, Note_on_c, 0, 64, 0
2, 52710, Note_on_c, 0, 62, 90
2, 52739, Note_on_c, 0, 62, 0
2, 52740, Note_on_c, 0, 66, 90
2, 52769, Note_on_c, 0, 66, 0
2, 52770, Note_on_c, 0, 64, 90
2, 52799, Note_on_c, 0, 64, 0
2, 52800, Note_on_c, 0, 62, 90
2, 52829, Note_on_c, 0, 62, 0
2, 52830, Note_on_c, 0, 61, 90
2, 52859, Note_on_c, 0, 61, 0
2, 52860, Note_on_c, 0, 59, 90
2, 52889, Note_on_c, 0, 59, 0
2, 52890, Note_on_c, 0, 57, 90
2, 52919, Note_on_c, 0, 57, 0
2, 52920, Note_on_c, 0, 56, 90
2, 52949, Note_on_c, 0, 56, 0
2, 52950, Note_on_c, 0, 57, 90
2, 52979, Note_on_c, 0, 57, 0
2, 52980, Note_on_c, 0, 59, 90
2, 53009, Note_on_c, 0, 59, 0
2, 53010, Note_on_c, 0, 56, 90
2, 53039, Note_on_c, 0, 56, 0
2, 53040, Note_on_c, 0, 52, 90
2, 53159, Note_on_c, 0, 52, 0
2, 53220, Note_on_c, 0, 59, 90
2, 53399, Note_on_c, 0, 59, 0
2, 53400, Note_on_c, 0, 57, 90
2, 53639, Note_on_c, 0, 57, 0
2, 53640, Note_on_c, 0, 55, 90
2, 53669, Note_on_c, 0, 55, 0
2, 53670, Note_on_c, 0, 54, 90
2, 53699, Note_on_c, 0, 54, 0
2, 53700, Note_on_c, 0, 55, 90
2, 53759, Note_on_c, 0, 55, 0
2, 53760, Note_on_c, 0, 54, 90
2, 53879, Note_on_c, 0, 54, 0
2, 53880, Note_on_c, 0, 59, 90
2, 53939, Note_on_c, 0, 59, 0
2, 53940, Note_on_c, 0, 64, 90
2, 54029, Note_on_c, 0, 64, 0
2, 54030, Note_on_c, 0, 67, 90
2, 54059, Note_on_c, 0, 67, 0
2, 54060, Note_on_c, 0, 66, 90
2, 54119, Note_on_c, 0, 66, 0
2, 54120, Note_on_c, 0, 64, 90
2, 54179, Note_on_c, 0, 64, 0
2, 54180, Note_on_c, 0, 64, 90
2, 54194, Note_on_c, 0, 64, 0
2, 54195, Note_on_c, 0, 66, 90
2, 54209, Note_on_c, 0, 66, 0
2, 54210, Note_on_c, 0, 67, 90
2, 54239, Note_on_c, 0, 67, 0
2, 54240, Note_on_c, 0, 66, 90
2, 54299, Note_on_c, 0, 66, 0
2, 54300, Note_on_c, 0, 57, 90
2, 54314, Note_on_c, 0, 57, 0
2, 54315, Note_on_c, 0, 59, 90
2, 54329, Note_on_c, 0, 59, 0
2, 54330, Note_on_c, 0, 60, 90
2, 54389, Note_on_c, 0, 60, 0
2, 54390, Note_on_c, 0, 59, 90
2, 54419, Note_on_c, 0, 59, 0
2, 54420, Note_on_c, 0, 57, 90
2, 54479, Note_on_c, 0, 57, 0
2, 54480, Note_on_c, 0, 55, 90
2, 54539, Note_on_c, 0, 55, 0
2, 54540, Note_on_c, 0, 54, 90
2, 54569, Note_on_c, 0, 54, 0
2, 54570, Note_on_c, 0, 52, 90
2, 54599, Note_on_c, 0, 52, 0
2, 54600, Note_on_c, 0, 64, 90
2, 54719, Note_on_c, 0, 64, 0
2, 54720, Note_on_c, 0, 62, 90
2, 54749, Note_on_c, 0, 62, 0
2, 54750, Note_on_c, 0, 60, 90
2, 54779, Note_on_c, 0, 60, 0
2, 54780, Note_on_c, 0, 62, 90
2, 54899, Note_on_c, 0, 62, 0
2, 54900, Note_on_c, 0, 60, 90
2, 54914, Note_on_c, 0, 60, 0
2, 54915, Note_on_c, 0, 59, 90
2, 54929, Note_on_c, 0, 59, 0
2, 54930, Note_on_c, 0, 57, 90
2, 54959, Note_on_c, 0, 57, 0
2, 54960, Note_on_c, 0, 59, 90
2, 55079, Note_on_c, 0, 59, 0
2, 55080, Note_on_c, 0, 55, 90
2, 55090, Note_on_c, 0, 55, 0
2, 55090, Note_on_c, 0, 57, 90
2, 55100, Note_on_c, 0, 57, 0
2, 55100, Note_on_c, 0, 55, 90
2, 55110, Note_on_c, 0, 55, 0
2, 55110, Note_on_c, 0, 57, 90
2, 55125, Note_on_c, 0, 57, 0
2, 55125, Note_on_c, 0, 55, 90
2, 55140, Note_on_c, 0, 55, 0
2, 55140, Note_on_c, 0, 54, 90
2, 55169, Note_on_c, 0, 54, 0
2, 55170, Note_on_c, 0, 52, 90
2, 55199, Note_on_c, 0, 52, 0
2, 55200, Note_on_c, 0, 52, 90
2, 55319, Note_on_c, 0, 52, 0
2, 55320, Note_on_c, 0, 59, 90
2, 55379, Note_on_c, 0, 59, 0
2, 55380, Note_on_c, 0, 59, 90
2, 55409, Note_on_c, 0, 59, 0
2, 55410, Note_on_c, 0, 58, 90
2, 55469, Note_on_c, 0, 58, 0
2, 55470, Note_on_c, 0, 67, 90
2, 55499, Note_on_c, 0, 67, 0
2, 55500, Note_on_c, 0, 66, 90
2, 55559, Note_on_c, 0, 66, 0
2, 55560, Note_on_c, 0, 62, 90
2, 55570, Note_on_c, 0, 62, 0
2, 55570, Note_on_c, 0, 64, 90
2, 55580, Note_on_c, 0, 64, 0
2, 55580, Note_on_c, 0, 62, 90
2, 55590, Note_on_c, 0, 62, 0
2, 55590, Note_on_c, 0, 64, 90
2, 55605, Note_on_c, 0, 64, 0
2, 55605, Note_on_c, 0, 62, 90
2, 55620, Note_on_c, 0, 62, 0
2, 55620, Note_on_c, 0, 61, 90
2, 55649, Note_on_c, 0, 61, 0
2, 55650, Note_on_c, 0, 59, 90
2, 55679, Note_on_c, 0, 59, 0
2, 55680, Note_on_c, 0, 59, 90
2, 55694, Note_on_c, 0, 59, 0
2, 55695, Note_on_c, 0, 61, 90
2, 55709, Note_on_c, 0, 61, 0
2, 55710, Note_on_c, 0, 62, 90
2, 55739, Note_on_c, 0, 62, 0
2, 55740, Note_on_c, 0, 60, 90
2, 55750, Note_on_c, 0, 60, 0
2, 55750, Note_on_c, 0, 62, 90
2, 55760, Note_on_c, 0, 62, 0
2, 55760, Note_on_c, 0, 60, 90
2, 55770, Note_on_c, 0, 60, 0
2, 55770, Note_on_c, 0, 62, 90
2, 55777, Note_on_c, 0, 60, 90
2, 55778, Note_on_c, 0, 62, 0
2, 55785, Note_on_c, 0, 60, 0
2, 55785, Note_on_c, 0, 62, 90
2, 55792, Note_on_c, 0, 60, 90
2, 55793, Note_on_c, 0, 62, 0
2, 55800, Note_on_c, 0, 60, 0
2, 55800, Note_on_c, 0, 62, 90
2, 55815, Note_on_c, 0, 62, 0
2, 55815, Note_on_c, 0, 60, 90
2, 55830, Note_on_c, 0, 60, 0
2, 55830, Note_on_c, 0, 59, 90
2, 55859, Note_on_c, 0, 59, 0
2, 55860, Note_on_c, 0, 60, 90
2, 55919, Note_on_c, 0, 60, 0
2, 55920, Note_on_c, 0, 59, 90
2, 55979, Note_on_c, 0, 59, 0
2, 55980, Note_on_c, 0, 57, 90
2, 56009, Note_on_c, 0, 57, 0
2, 56010, Note_on_c, 0, 55, 90
2, 56039, Note_on_c, 0, 55, 0
2, 56040, Note_on_c, 0, 57, 90
2, 56050, Note_on_c, 0, 57, 0
2, 56050, Note_on_c, 0, 59, 90
2, 56060, Note_on_c, 0, 59, 0
2, 56060, Note_on_c, 0, 57, 90
2, 56070, Note_on_c, 0, 57, 0
2, 56070, Note_on_c, 0, 55, 90
2, 56084, Note_on_c, 0, 55, 0
2, 56085, Note_on_c, 0, 57, 90
2, 56099, Note_on_c, 0, 57, 0
2, 56100, Note_on_c, 0, 59, 90
2, 56129, Note_on_c, 0, 59, 0
2, 56130, Note_on_c, 0, 60, 90
2, 56159, Note_on_c, 0, 60, 0
2, 56160, Note_on_c, 0, 62, 90
2, 56219, Note_on_c, 0, 62, 0
2, 56220, Note_on_c, 0, 60, 90
2, 56279, Note_on_c, 0, 60, 0
2, 56280, Note_on_c, 0, 59, 90
2, 56339, Note_on_c, 0, 59, 0
2, 56340, Note_on_c, 0, 64, 90
2, 56369, Note_on_c, 0, 64, 0
2, 56370, Note_on_c, 0, 62, 90
2, 56399, Note_on_c, 0, 62, 0
2, 56400, Note_on_c, 0, 61, 90
2, 56429, Note_on_c, 0, 61, 0
2, 56430, Note_on_c, 0, 59, 90
2, 56459, Note_on_c, 0, 59, 0
2, 56460, Note_on_c, 0, 57, 90
2, 56489, Note_on_c, 0, 57, 0
2, 56490, Note_on_c, 0, 55, 90
2, 56519, Note_on_c, 0, 55, 0
2, 56520, Note_on_c, 0, 60, 90
2, 56549, Note_on_c, 0, 60, 0
2, 56550, Note_on_c, 0, 59, 90
2, 56579, Note_on_c, 0, 59, 0
2, 56580, Note_on_c, 0, 57, 90
2, 56609, Note_on_c, 0, 57, 0
2, 56610, Note_on_c, 0, 59, 90
2, 56639, Note_on_c, 0, 59, 0
2, 56640, Note_on_c, 0, 55, 90
2, 56759, Note_on_c, 0, 55, 0
2, 57480, Note_on_c, 0, 57, 90
2, 57539, Note_on_c, 0, 57, 0
2, 57540, Note_on_c, 0, 62, 90
2, 57629, Note_on_c, 0, 62, 0
2, 57630, Note_on_c, 0, 66, 90
2, 57659, Note_on_c, 0, 66, 0
2, 57660, Note_on_c, 0, 64, 90
2, 57719, Note_on_c, 0, 64, 0
2, 57720, Note_on_c, 0, 62, 90
2, 57779, Note_on_c, 0, 62, 0
2, 57780, Note_on_c, 0, 62, 90
2, 57794, Note_on_c, 0, 62, 0
2, 57795, Note_on_c, 0, 64, 90
2, 57809, Note_on_c, 0, 64, 0
2, 57810, Note_on_c, 0, 66, 90
2, 57839, Note_on_c, 0, 66, 0
2, 57840, Note_on_c, 0, 64, 90
2, 57899, Note_on_c, 0, 64, 0
2, 57900, Note_on_c, 0, 64, 90
2, 57989, Note_on_c, 0, 64, 0
2, 57990, Note_on_c, 0, 67, 90
2, 58019, Note_on_c, 0, 67, 0
2, 58020, Note_on_c, 0, 66, 90
2, 58079, Note_on_c, 0, 66, 0
2, 58080, Note_on_c, 0, 64, 90
2, 58139, Note_on_c, 0, 64, 0
2, 58140, Note_on_c, 0, 64, 90
2, 58154, Note_on_c, 0, 64, 0
2, 58155, Note_on_c, 0, 66, 90
2, 58169, Note_on_c, 0, 66, 0
2, 58170, Note_on_c, 0, 67, 90
2, 58199, Note_on_c, 0, 67, 0
2, 58200, Note_on_c, 0, 66, 90
2, 58259, Note_on_c, 0, 66, 0
2, 58260, Note_on_c, 0, 66, 90
2, 58319, Note_on_c, 0, 66, 0
2, 58320, Note_on_c, 0, 66, 90
2, 58334, Note_on_c, 0, 66, 0
2, 58335, Note_on_c, 0, 67, 90
2, 58349, Note_on_c, 0, 67, 0
2, 58350, Note_on_c, 0, 69, 90
2, 58379, Note_on_c, 0, 69, 0
2, 58380, Note_on_c, 0, 67, 90
2, 58439, Note_on_c, 0, 67, 0
2, 58440, Note_on_c, 0, 67, 90
2, 58499, Note_on_c, 0, 67, 0
2, 58500, Note_on_c, 0, 67, 90
2, 58514, Note_on_c, 0, 67, 0
2, 58515, Note_on_c, 0, 69, 90
2, 58529, Note_on_c, 0, 69, 0
2, 58530, Note_on_c, 0, 71, 90
2, 58559, Note_on_c, 0, 71, 0
2, 58560, Note_on_c, 0, 69, 90
2, 58619, Note_on_c, 0, 69, 0
2, 58620, Note_on_c, 0, 66, 90
2, 58630, Note_on_c, 0, 66, 0
2, 58630, Note_on_c, 0, 67, 90
2, 58640, Note_on_c, 0, 67, 0
2, 58640, Note_on_c, 0, 66, 90
2, 58650, Note_on_c, 0, 66, 0
2, 58650, Note_on_c, 0, 67, 90
2, 58657, Note_on_c, 0, 66, 90
2, 58658, Note_on_c, 0, 67, 0
2, 58665, Note_on_c, 0, 66, 0
2, 58665, Note_on_c, 0, 67, 90
2, 58672, Note_on_c, 0, 66, 90
2, 58673, Note_on_c, 0, 67, 0
2, 58680, Note_on_c, 0, 66, 0
2, 58680, Note_on_c, 0, 67, 90
2, 58695, Note_on_c, 0, 67, 0
2, 58695, Note_on_c, 0, 66, 90
2, 58710, Note_on_c, 0, 66, 0
2, 58710, Note_on_c, 0, 64, 90
2, 58739, Note_on_c, 0, 64, 0
2, 58740, Note_on_c, 0, 62, 90
2, 58799, Note_on_c, 0, 62, 0
2, 58800, Note_on_c, 0, 60, 90
2, 58859, Note_on_c, 0, 60, 0
2, 58860, Note_on_c, 0, 59, 90
2, 59039, Note_on_c, 0, 59, 0
2, 59070, Note_on_c, 0, 61, 90
2, 59084, Note_on_c, 0, 61, 0
2, 59085, Note_on_c, 0, 63, 90
2, 59099, Note_on_c, 0, 63, 0
2, 59100, Note_on_c, 0, 64, 90
2, 59129, Note_on_c, 0, 64, 0
2, 59130, Note_on_c, 0, 66, 90
2, 59159, Note_on_c, 0, 66, 0
2, 59160, Note_on_c, 0, 67, 90
2, 59219, Note_on_c, 0, 67, 0
2, 59220, Note_on_c, 0, 66, 90
2, 59399, Note_on_c, 0, 66, 0
2, 59430, Note_on_c, 0, 64, 90
2, 59444, Note_on_c, 0, 64, 0
2, 59445, Note_on_c, 0, 62, 90
2, 59459, Note_on_c, 0, 62, 0
2, 59460, Note_on_c, 0, 61, 90
2, 59474, Note_on_c, 0, 61, 0
2, 59475, Note_on_c, 0, 62, 90
2, 59489, Note_on_c, 0, 62, 0
2, 59490, Note_on_c, 0, 64, 90
2, 59519, Note_on_c, 0, 64, 0
2, 59520, Note_on_c, 0, 58, 90
2, 59639, Note_on_c, 0, 58, 0
2, 59640, Note_on_c, 0, 54, 90
2, 59699, Note_on_c, 0, 54, 0
2, 59700, Note_on_c, 0, 59, 90
2, 59789, Note_on_c, 0, 59, 0
2, 59790, Note_on_c, 0, 62, 90
2, 59819, Note_on_c, 0, 62, 0
2, 59820, Note_on_c, 0, 61, 90
2, 59879, Note_on_c, 0, 61, 0
2, 59880, Note_on_c, 0, 59, 90
2, 59939, Note_on_c, 0, 59, 0
2, 59940, Note_on_c, 0, 59, 90
2, 59954, Note_on_c, 0, 59, 0
2, 59955, Note_on_c, 0, 61, 90
2, 59969, Note_on_c, 0, 61, 0
2, 59970, Note_on_c, 0, 62, 90
2, 59999, Note_on_c, 0, 62, 0
2, 60000, Note_on_c, 0, 61, 90
2, 60059, Note_on_c, 0, 61, 0
2, 60060, Note_on_c, 0, 52, 90
2, 60074, Note_on_c, 0, 52, 0
2, 60075, Note_on_c, 0, 54, 90
2, 60089, Note_on_c, 0, 54, 0
2, 60090, Note_on_c, 0, 55, 90
2, 60149, Note_on_c, 0, 55, 0
2, 60150, Note_on_c, 0, 54, 90
2, 60179, Note_on_c, 0, 54, 0
2, 60180, Note_on_c, 0, 52, 90
2, 60239, Note_on_c, 0, 52, 0
2, 60240, Note_on_c, 0, 51, 90
2, 60299, Note_on_c, 0, 51, 0
2, 60300, Note_on_c, 0, 49, 90
2, 60329, Note_on_c, 0, 49, 0
2, 60330, Note_on_c, 0, 47, 90
2, 60359, Note_on_c, 0, 47, 0
2, 60360, Note_on_c, 0, 59, 90
2, 60419, Note_on_c, 0, 59, 0
2, 60420, Note_on_c, 0, 67, 90
2, 60439, Note_on_c, 0, 67, 0
2, 60440, Note_on_c, 0, 66, 90
2, 60459, Note_on_c, 0, 66, 0
2, 60460, Note_on_c, 0, 64, 90
2, 60479, Note_on_c, 0, 64, 0
2, 60480, Note_on_c, 0, 64, 90
2, 60539, Note_on_c, 0, 64, 0
2, 60540, Note_on_c, 0, 63, 90
2, 60599, Note_on_c, 0, 63, 0
2, 60600, Note_on_c, 0, 57, 90
2, 61230, Note_on_c, 0, 57, 0
2, 61230, Note_on_c, 0, 63, 90
2, 61259, Note_on_c, 0, 63, 0
2, 61260, Note_on_c, 0, 66, 90
2, 61289, Note_on_c, 0, 66, 0
2, 61290, Note_on_c, 0, 64, 90
2, 61319, Note_on_c, 0, 64, 0
2, 61320, Note_on_c, 0, 66, 90
2, 61499, Note_on_c, 0, 66, 0
2, 61530, Note_on_c, 0, 63, 90
2, 61559, Note_on_c, 0, 63, 0
2, 61560, Note_on_c, 0, 64, 90
2, 61589, Note_on_c, 0, 64, 0
2, 61590, Note_on_c, 0, 66, 90
2, 61619, Note_on_c, 0, 66, 0
2, 61620, Note_on_c, 0, 67, 90
2, 61679, Note_on_c, 0, 67, 0
2, 61680, Note_on_c, 0, 67, 90
2, 61859, Note_on_c, 0, 67, 0
2, 61890, Note_on_c, 0, 66, 90
2, 61904, Note_on_c, 0, 66, 0
2, 61905, Note_on_c, 0, 64, 90
2, 61919, Note_on_c, 0, 64, 0
2, 61920, Note_on_c, 0, 62, 90
2, 61949, Note_on_c, 0, 62, 0
2, 61950, Note_on_c, 0, 61, 90
2, 61979, Note_on_c, 0, 61, 0
2, 61980, Note_on_c, 0, 59, 90
2, 62009, Note_on_c, 0, 59, 0
2, 62010, Note_on_c, 0, 58, 90
2, 62039, Note_on_c, 0, 58, 0
2, 62040, Note_on_c, 0, 66, 90
2, 62219, Note_on_c, 0, 66, 0
2, 62250, Note_on_c, 0, 69, 90
2, 62279, Note_on_c, 0, 69, 0
2, 62280, Note_on_c, 0, 67, 90
2, 62309, Note_on_c, 0, 67, 0
2, 62310, Note_on_c, 0, 66, 90
2, 62339, Note_on_c, 0, 66, 0
2, 62340, Note_on_c, 0, 64, 90
2, 62369, Note_on_c, 0, 64, 0
2, 62370, Note_on_c, 0, 63, 90
2, 62399, Note_on_c, 0, 63, 0
2, 62400, Note_on_c, 0, 64, 90
2, 62639, Note_on_c, 0, 64, 0
2, 62640, Note_on_c, 0, 62, 90
2, 62669, Note_on_c, 0, 62, 0
2, 62670, Note_on_c, 0, 61, 90
2, 62699, Note_on_c, 0, 61, 0
2, 62700, Note_on_c, 0, 62, 90
2, 62819, Note_on_c, 0, 62, 0
2, 62820, Note_on_c, 0, 61, 90
2, 62834, Note_on_c, 0, 61, 0
2, 62835, Note_on_c, 0, 59, 90
2, 62849, Note_on_c, 0, 59, 0
2, 62850, Note_on_c, 0, 58, 90
2, 62879, Note_on_c, 0, 58, 0
2, 62880, Note_on_c, 0, 59, 90
2, 62969, Note_on_c, 0, 59, 0
2, 62970, Note_on_c, 0, 67, 90
2, 62999, Note_on_c, 0, 67, 0
2, 63000, Note_on_c, 0, 66, 90
2, 63029, Note_on_c, 0, 66, 0
2, 63030, Note_on_c, 0, 64, 90
2, 63059, Note_on_c, 0, 64, 0
2, 63060, Note_on_c, 0, 66, 90
2, 63089, Note_on_c, 0, 66, 0
2, 63090, Note_on_c, 0, 67, 90
2, 63119, Note_on_c, 0, 67, 0
2, 63120, Note_on_c, 0, 58, 90
2, 63149, Note_on_c, 0, 58, 0
2, 63150, Note_on_c, 0, 59, 90
2, 63179, Note_on_c, 0, 59, 0
2, 63180, Note_on_c, 0, 61, 90
2, 63209, Note_on_c, 0, 61, 0
2, 63210, Note_on_c, 0, 64, 90
2, 63239, Note_on_c, 0, 64, 0
2, 63240, Note_on_c, 0, 62, 90
2, 63269, Note_on_c, 0, 62, 0
2, 63270, Note_on_c, 0, 61, 90
2, 63299, Note_on_c, 0, 61, 0
2, 63300, Note_on_c, 0, 62, 90
2, 63329, Note_on_c, 0, 62, 0
2, 63330, Note_on_c, 0, 64, 90
2, 63359, Note_on_c, 0, 64, 0
2, 63360, Note_on_c, 0, 66, 90
2, 63419, Note_on_c, 0, 66, 0
2, 63420, Note_on_c, 0, 58, 90
2, 63479, Note_on_c, 0, 58, 0
2, 63480, Note_on_c, 0, 59, 90
2, 63719, Note_on_c, 0, 59, 0
2, 63720, Note_on_c, 0, 58, 90
2, 63779, Note_on_c, 0, 58, 0
2, 63780, Note_on_c, 0, 61, 90
2, 63869, Note_on_c, 0, 61, 0
2, 63870, Note_on_c, 0, 58, 90
2, 63899, Note_on_c, 0, 58, 0
2, 63900, Note_on_c, 0, 59, 90
2, 63929, Note_on_c, 0, 59, 0
2, 63930, Note_on_c, 0, 61, 90
2, 63959, Note_on_c, 0, 61, 0
2, 63960, Note_on_c, 0, 62, 90
2, 64019, Note_on_c, 0, 62, 0
2, 64020, Note_on_c, 0, 60, 90
2, 64199, Note_on_c, 0, 60, 0
2, 64200, Note_on_c, 0, 59, 90
2, 64289, Note_on_c, 0, 59, 0
2, 64290, Note_on_c, 0, 57, 90
2, 64319, Note_on_c, 0, 57, 0
2, 64320, Note_on_c, 0, 60, 90
2, 64349, Note_on_c, 0, 60, 0
2, 64350, Note_on_c, 0, 59, 90
2, 64379, Note_on_c, 0, 59, 0
2, 64380, Note_on_c, 0, 57, 90
2, 64409, Note_on_c, 0, 57, 0
2, 64410, Note_on_c, 0, 54, 90
2, 64439, Note_on_c, 0, 54, 0
2, 64440, Note_on_c, 0, 55, 90
2, 64469, Note_on_c, 0, 55, 0
2, 64470, Note_on_c, 0, 59, 90
2, 64499, Note_on_c, 0, 59, 0
2, 64500, Note_on_c, 0, 57, 90
2, 64529, Note_on_c, 0, 57, 0
2, 64530, Note_on_c, 0, 55, 90
2, 64559, Note_on_c, 0, 55, 0
2, 64560, Note_on_c, 0, 55, 90
2, 64619, Note_on_c, 0, 55, 0
2, 64620, Note_on_c, 0, 54, 90
2, 64679, Note_on_c, 0, 54, 0
2, 64680, Note_on_c, 0, 64, 90
2, 64709, Note_on_c, 0, 64, 0
2, 64710, Note_on_c, 0, 66, 90
2, 64724, Note_on_c, 0, 66, 0
2, 64725, Note_on_c, 0, 67, 90
2, 64739, Note_on_c, 0, 67, 0
2, 64740, Note_on_c, 0, 66, 90
2, 64799, Note_on_c, 0, 66, 0
2, 64800, Note_on_c, 0, 58, 90
2, 64859, Note_on_c, 0, 58, 0
2, 64860, Note_on_c, 0, 59, 90
2, 64919, Note_on_c, 0, 59, 0
2, 64920, Note_on_c, 0, 64, 90
2, 64949, Note_on_c, 0, 64, 0
2, 64950, Note_on_c, 0, 62, 90
2, 64979, Note_on_c, 0, 62, 0
2, 64980, Note_on_c, 0, 64, 90
2, 65009, Note_on_c, 0, 64, 0
2, 65010, Note_on_c, 0, 67, 90
2, 65039, Note_on_c, 0, 67, 0
2, 65040, Note_on_c, 0, 66, 90
2, 65069, Note_on_c, 0, 66, 0
2, 65070, Note_on_c, 0, 64, 90
2, 65099, Note_on_c, 0, 64, 0
2, 65100, Note_on_c, 0, 62, 90
2, 65189, Note_on_c, 0, 62, 0
2, 65190, Note_on_c, 0, 61, 90
2, 65219, Note_on_c, 0, 61, 0
2, 65220, Note_on_c, 0, 62, 90
2, 65279, Note_on_c, 0, 62, 0
2, 65280, Note_on_c, 0, 61, 90
2, 65399, Note_on_c, 0, 61, 0
2, 65400, Note_on_c, 0, 54, 90
2, 65459, Note_on_c, 0, 54, 0
2, 65460, Note_on_c, 0, 59, 90
2, 65549, Note_on_c, 0, 59, 0
2, 65550, Note_on_c, 0, 62, 90
2, 65579, Note_on_c, 0, 62, 0
2, 65580, Note_on_c, 0, 61, 90
2, 65639, Note_on_c, 0, 61, 0
2, 65640, Note_on_c, 0, 59, 90
2, 65699, Note_on_c, 0, 59, 0
2, 65700, Note_on_c, 0, 59, 90
2, 65714, Note_on_c, 0, 59, 0
2, 65715, Note_on_c, 0, 61, 90
2, 65729, Note_on_c, 0, 61, 0
2, 65730, Note_on_c, 0, 62, 90
2, 65759, Note_on_c, 0, 62, 0
2, 65760, Note_on_c, 0, 61, 90
2, 65819, Note_on_c, 0, 61, 0
2, 65820, Note_on_c, 0, 61, 90
2, 65909, Note_on_c, 0, 61, 0
2, 65910, Note_on_c, 0, 64, 90
2, 65939, Note_on_c, 0, 64, 0
2, 65940, Note_on_c, 0, 62, 90
2, 65999, Note_on_c, 0, 62, 0
2, 66000, Note_on_c, 0, 61, 90
2, 66059, Note_on_c, 0, 61, 0
2, 66060, Note_on_c, 0, 61, 90
2, 66074, Note_on_c, 0, 61, 0
2, 66075, Note_on_c, 0, 62, 90
2, 66089, Note_on_c, 0, 62, 0
2, 66090, Note_on_c, 0, 64, 90
2, 66119, Note_on_c, 0, 64, 0
2, 66120, Note_on_c, 0, 62, 90
2, 66179, Note_on_c, 0, 62, 0
2, 66180, Note_on_c, 0, 63, 90
2, 66239, Note_on_c, 0, 63, 0
2, 66240, Note_on_c, 0, 63, 90
2, 66254, Note_on_c, 0, 63, 0
2, 66255, Note_on_c, 0, 64, 90
2, 66269, Note_on_c, 0, 64, 0
2, 66270, Note_on_c, 0, 66, 90
2, 66299, Note_on_c, 0, 66, 0
2, 66300, Note_on_c, 0, 64, 90
2, 66359, Note_on_c, 0, 64, 0
2, 66360, Note_on_c, 0, 65, 90
2, 66419, Note_on_c, 0, 65, 0
2, 66420, Note_on_c, 0, 65, 90
2, 66434, Note_on_c, 0, 65, 0
2, 66435, Note_on_c, 0, 66, 90
2, 66449, Note_on_c, 0, 66, 0
2, 66450, Note_on_c, 0, 68, 90
2, 66479, Note_on_c, 0, 68, 0
2, 66480, Note_on_c, 0, 66, 90
2, 66539, Note_on_c, 0, 66, 0
2, 66540, Note_on_c, 0, 62, 90
2, 66629, Note_on_c, 0, 62, 0
2, 66630, Note_on_c, 0, 61, 90
2, 66659, Note_on_c, 0, 61, 0
2, 66660, Note_on_c, 0, 59, 90
2, 66719, Note_on_c, 0, 59, 0
2, 66720, Note_on_c, 0, 59, 90
2, 67825, Note_on_c, 0, 58, 90
2, 67830, Note_on_c, 0, 59, 0
2, 67854, Note_on_c, 0, 58, 0
2, 67855, Note_on_c, 0, 61, 90
2, 67884, Note_on_c, 0, 61, 0
2, 67885, Note_on_c, 0, 59, 90
2, 67914, Note_on_c, 0, 59, 0
2, 67915, Note_on_c, 0, 61, 90
2, 68004, Note_on_c, 0, 61, 0
2, 68005, Note_on_c, 0, 66, 90
2, 68034, Note_on_c, 0, 66, 0
2, 68035, Note_on_c, 0, 54, 90
2, 68094, Note_on_c, 0, 54, 0
2, 68095, Note_on_c, 0, 58, 90
2, 68154, Note_on_c, 0, 58, 0
2, 68155, Note_on_c, 0, 50, 90
2, 68170, Note_on_c, 0, 54, 90
2, 68180, Note_on_c, 0, 59, 90
2, 68274, Note_on_c, 0, 50, 0
2, 68279, Note_on_c, 0, 59, 0
2, 68279, Note_on_c, 0, 54, 0
2, 69060, Note_on_c, 0, 57, 100
2, 69120, Note_on_c, 0, 57, 0
2, 69120, Note_on_c, 0, 62, 100
2, 69180, Note_on_c, 0, 62, 0
2, 69180, Note_on_c, 0, 64, 100
2, 69240, Note_on_c, 0, 64, 0
2, 69240, Note_on_c, 0, 66, 100
2, 69360, Note_on_c, 0, 66, 0
2, 69420, Note_on_c, 0, 57, 100
2, 69480, Note_on_c, 0, 57, 0
2, 69480, Note_on_c, 0, 64, 100
2, 69540, Note_on_c, 0, 64, 0
2, 69540, Note_on_c, 0, 66, 100
2, 69600, Note_on_c, 0, 66, 0
2, 69600, Note_on_c, 0, 67, 100
2, 69720, Note_on_c, 0, 67, 0
2, 69780, Note_on_c, 0, 62, 100
2, 69810, Note_on_c, 0, 62, 0
2, 69810, Note_on_c, 0, 64, 100
2, 69840, Note_on_c, 0, 64, 0
2, 69840, Note_on_c, 0, 66, 100
2, 69870, Note_on_c, 0, 66, 0
2, 69870, Note_on_c, 0, 67, 100
2, 69900, Note_on_c, 0, 67, 0
2, 69900, Note_on_c, 0, 64, 100
2, 69930, Note_on_c, 0, 64, 0
2, 69930, Note_on_c, 0, 66, 100
2, 69960, Note_on_c, 0, 66, 0
2, 69960, Note_on_c, 0, 62, 100
2, 69990, Note_on_c, 0, 62, 0
2, 69990, Note_on_c, 0, 64, 100
2, 70020, Note_on_c, 0, 64, 0
2, 70020, Note_on_c, 0, 66, 100
2, 70050, Note_on_c, 0, 66, 0
2, 70050, Note_on_c, 0, 67, 100
2, 70080, Note_on_c, 0, 67, 0
2, 70080, Note_on_c, 0, 64, 100
2, 70110, Note_on_c, 0, 64, 0
2, 70110, Note_on_c, 0, 66, 100
2, 70140, Note_on_c, 0, 66, 0
2, 70140, Note_on_c, 0, 62, 100
2, 70170, Note_on_c, 0, 62, 0
2, 70170, Note_on_c, 0, 64, 100
2, 70200, Note_on_c, 0, 64, 0
2, 70200, Note_on_c, 0, 66, 100
2, 70230, Note_on_c, 0, 66, 0
2, 70230, Note_on_c, 0, 64, 100
2, 70260, Note_on_c, 0, 64, 0
2, 70260, Note_on_c, 0, 66, 100
2, 70290, Note_on_c, 0, 66, 0
2, 70290, Note_on_c, 0, 67, 100
2, 70320, Note_on_c, 0, 67, 0
2, 70320, Note_on_c, 0, 64, 100
2, 70350, Note_on_c, 0, 64, 0
2, 70350, Note_on_c, 0, 66, 100
2, 70380, Note_on_c, 0, 66, 0
2, 70380, Note_on_c, 0, 67, 100
2, 70410, Note_on_c, 0, 67, 0
2, 70410, Note_on_c, 0, 64, 100
2, 70440, Note_on_c, 0, 64, 0
2, 70440, Note_on_c, 0, 66, 100
2, 70470, Note_on_c, 0, 66, 0
2, 70470, Note_on_c, 0, 67, 100
2, 70500, Note_on_c, 0, 67, 0
2, 70500, Note_on_c, 0, 66, 100
2, 70560, Note_on_c, 0, 66, 0
2, 70560, Note_on_c, 0, 57, 100
2, 70590, Note_on_c, 0, 57, 0
2, 70590, Note_on_c, 0, 59, 100
2, 70620, Note_on_c, 0, 59, 0
2, 70620, Note_on_c, 0, 57, 100
2, 70680, Note_on_c, 0, 57, 0
2, 70680, Note_on_c, 0, 57, 100
2, 70740, Note_on_c, 0, 57, 0
2, 70740, Note_on_c, 0, 66, 100
2, 70770, Note_on_c, 0, 66, 0
2, 70770, Note_on_c, 0, 64, 100
2, 70800, Note_on_c, 0, 64, 0
2, 70800, Note_on_c, 0, 62, 100
2, 70830, Note_on_c, 0, 62, 0
2, 70830, Note_on_c, 0, 66, 100
2, 70860, Note_on_c, 0, 66, 0
2, 70860, Note_on_c, 0, 64, 100
2, 70920, Note_on_c, 0, 64, 0
2, 70920, Note_on_c, 0, 57, 100
2, 70950, Note_on_c, 0, 57, 0
2, 70950, Note_on_c, 0, 59, 100
2, 70980, Note_on_c, 0, 59, 0
2, 70980, Note_on_c, 0, 57, 100
2, 71040, Note_on_c, 0, 57, 0
2, 71040, Note_on_c, 0, 57, 100
2, 71100, Note_on_c, 0, 57, 0
2, 71100, Note_on_c, 0, 67, 100
2, 71130, Note_on_c, 0, 67, 0
2, 71130, Note_on_c, 0, 66, 100
2, 71160, Note_on_c, 0, 66, 0
2, 71160, Note_on_c, 0, 64, 100
2, 71190, Note_on_c, 0, 64, 0
2, 71190, Note_on_c, 0, 67, 100
2, 71220, Note_on_c, 0, 67, 0
2, 71220, Note_on_c, 0, 66, 100
2, 71250, Note_on_c, 0, 66, 0
2, 71250, Note_on_c, 0, 67, 100
2, 71280, Note_on_c, 0, 67, 0
2, 71280, Note_on_c, 0, 69, 100
2, 71310, Note_on_c, 0, 69, 0
2, 71310, Note_on_c, 0, 71, 100
2, 71340, Note_on_c, 0, 71, 0
2, 71340, Note_on_c, 0, 67, 100
2, 71370, Note_on_c, 0, 67, 0
2, 71370, Note_on_c, 0, 69, 100
2, 71400, Note_on_c, 0, 69, 0
2, 71400, Note_on_c, 0, 66, 100
2, 71430, Note_on_c, 0, 66, 0
2, 71430, Note_on_c, 0, 67, 100
2, 71460, Note_on_c, 0, 67, 0
2, 71460, Note_on_c, 0, 69, 100
2, 71490, Note_on_c, 0, 69, 0
2, 71490, Note_on_c, 0, 71, 100
2, 71520, Note_on_c, 0, 71, 0
2, 71520, Note_on_c, 0, 67, 100
2, 71550, Note_on_c, 0, 67, 0
2, 71550, Note_on_c, 0, 69, 100
2, 71580, Note_on_c, 0, 69, 0
2, 71580, Note_on_c, 0, 66, 100
2, 71610, Note_on_c, 0, 66, 0
2, 71610, Note_on_c, 0, 67, 100
2, 71640, Note_on_c, 0, 67, 0
2, 71640, Note_on_c, 0, 69, 100
2, 71670, Note_on_c, 0, 69, 0
2, 71670, Note_on_c, 0, 67, 100
2, 71700, Note_on_c, 0, 67, 0
2, 71700, Note_on_c, 0, 69, 100
2, 71730, Note_on_c, 0, 69, 0
2, 71730, Note_on_c, 0, 71, 100
2, 71760, Note_on_c, 0, 71, 0
2, 71760, Note_on_c, 0, 64, 100
2, 71790, Note_on_c, 0, 64, 0
2, 71790, Note_on_c, 0, 66, 100
2, 71820, Note_on_c, 0, 66, 0
2, 71820, Note_on_c, 0, 67, 100
2, 71850, Note_on_c, 0, 67, 0
2, 71850, Note_on_c, 0, 66, 100
2, 71880, Note_on_c, 0, 66, 0
2, 71880, Note_on_c, 0, 67, 100
2, 71910, Note_on_c, 0, 67, 0
2, 71910, Note_on_c, 0, 69, 100
2, 71940, Note_on_c, 0, 69, 0
2, 71940, Note_on_c, 0, 62, 100
2, 71970, Note_on_c, 0, 62, 0
2, 71970, Note_on_c, 0, 64, 100
2, 72000, Note_on_c, 0, 64, 0
2, 72000, Note_on_c, 0, 66, 100
2, 72030, Note_on_c, 0, 66, 0
2, 72030, Note_on_c, 0, 64, 100
2, 72060, Note_on_c, 0, 64, 0
2, 72060, Note_on_c, 0, 66, 100
2, 72090, Note_on_c, 0, 66, 0
2, 72090, Note_on_c, 0, 67, 100
2, 72120, Note_on_c, 0, 67, 0
2, 72120, Note_on_c, 0, 61, 100
2, 72150, Note_on_c, 0, 61, 0
2, 72150, Note_on_c, 0, 62, 100
2, 72180, Note_on_c, 0, 62, 0
2, 72180, Note_on_c, 0, 64, 100
2, 72210, Note_on_c, 0, 64, 0
2, 72210, Note_on_c, 0, 62, 100
2, 72240, Note_on_c, 0, 62, 0
2, 72240, Note_on_c, 0, 64, 100
2, 72270, Note_on_c, 0, 64, 0
2, 72270, Note_on_c, 0, 66, 100
2, 72300, Note_on_c, 0, 66, 0
2, 72300, Note_on_c, 0, 59, 100
2, 72330, Note_on_c, 0, 59, 0
2, 72330, Note_on_c, 0, 61, 100
2, 72360, Note_on_c, 0, 61, 0
2, 72360, Note_on_c, 0, 62, 100
2, 72390, Note_on_c, 0, 62, 0
2, 72390, Note_on_c, 0, 61, 100
2, 72420, Note_on_c, 0, 61, 0
2, 72420, Note_on_c, 0, 62, 100
2, 72450, Note_on_c, 0, 62, 0
2, 72450, Note_on_c, 0, 64, 100
2, 72480, Note_on_c, 0, 64, 0
2, 72480, Note_on_c, 0, 61, 100
2, 72540, Note_on_c, 0, 61, 0
2, 72540, Note_on_c, 0, 59, 100
2, 72570, Note_on_c, 0, 59, 0
2, 72570, Note_on_c, 0, 57, 100
2, 72600, Note_on_c, 0, 57, 0
2, 72600, Note_on_c, 0, 62, 100
2, 72720, Note_on_c, 0, 62, 0
2, 72720, Note_on_c, 0, 61, 100
2, 72735, Note_on_c, 0, 61, 0
2, 72735, Note_on_c, 0, 62, 100
2, 72750, Note_on_c, 0, 62, 0
2, 72750, Note_on_c, 0, 61, 100
2, 72765, Note_on_c, 0, 61, 0
2, 72765, Note_on_c, 0, 62, 100
2, 72780, Note_on_c, 0, 62, 0
2, 72780, Note_on_c, 0, 61, 100
2, 72795, Note_on_c, 0, 61, 0
2, 72795, Note_on_c, 0, 62, 100
2, 72810, Note_on_c, 0, 62, 0
2, 72810, Note_on_c, 0, 59, 100
2, 72825, Note_on_c, 0, 59, 0
2, 72825, Note_on_c, 0, 61, 100
2, 72840, Note_on_c, 0, 61, 0
2, 72840, Note_on_c, 0, 62, 100
2, 72870, Note_on_c, 0, 62, 0
2, 72870, Note_on_c, 0, 54, 100
2, 72900, Note_on_c, 0, 54, 0
2, 72900, Note_on_c, 0, 55, 100
2, 72930, Note_on_c, 0, 55, 0
2, 72930, Note_on_c, 0, 57, 100
2, 72960, Note_on_c, 0, 57, 0
2, 72960, Note_on_c, 0, 59, 100
2, 72990, Note_on_c, 0, 59, 0
2, 72990, Note_on_c, 0, 57, 100
2, 73020, Note_on_c, 0, 57, 0
2, 73020, Note_on_c, 0, 59, 100
2, 73050, Note_on_c, 0, 59, 0
2, 73050, Note_on_c, 0, 61, 100
2, 73080, Note_on_c, 0, 61, 0
2, 73080, Note_on_c, 0, 59, 100
2, 73110, Note_on_c, 0, 59, 0
2, 73110, Note_on_c, 0, 57, 100
2, 73140, Note_on_c, 0, 57, 0
2, 73140, Note_on_c, 0, 56, 100
2, 73170, Note_on_c, 0, 56, 0
2, 73170, Note_on_c, 0, 54, 100
2, 73200, Note_on_c, 0, 54, 0
2, 73200, Note_on_c, 0, 55, 100
2, 73260, Note_on_c, 0, 55, 0
2, 73260, Note_on_c, 0, 57, 100
2, 73290, Note_on_c, 0, 57, 0
2, 73290, Note_on_c, 0, 59, 100
2, 73320, Note_on_c, 0, 59, 0
2, 73320, Note_on_c, 0, 61, 100
2, 73380, Note_on_c, 0, 61, 0
2, 73380, Note_on_c, 0, 59, 90
2, 73409, Note_on_c, 0, 59, 0
2, 73410, Note_on_c, 0, 57, 90
2, 73439, Note_on_c, 0, 57, 0
2, 73440, Note_on_c, 0, 56, 90
2, 73529, Note_on_c, 0, 56, 0
2, 73530, Note_on_c, 0, 57, 90
2, 73559, Note_on_c, 0, 57, 0
2, 73560, Note_on_c, 0, 57, 90
2, 73620, Note_on_c, 0, 57, 0
2, 73620, Note_on_c, 0, 69, 90
2, 73799, Note_on_c, 0, 69, 0
2, 73800, Note_on_c, 0, 68, 90
2, 73979, Note_on_c, 0, 68, 0
2, 73980, Note_on_c, 0, 66, 90
2, 74159, Note_on_c, 0, 66, 0
2, 74160, Note_on_c, 0, 64, 90
2, 74339, Note_on_c, 0, 64, 0
2, 74340, Note_on_c, 0, 62, 90
2, 74459, Note_on_c, 0, 62, 0
2, 74490, Note_on_c, 0, 59, 90
2, 74519, Note_on_c, 0, 59, 0
2, 74520, Note_on_c, 0, 61, 90
2, 74549, Note_on_c, 0, 61, 0
2, 74550, Note_on_c, 0, 62, 90
2, 74579, Note_on_c, 0, 62, 0
2, 74580, Note_on_c, 0, 64, 90
2, 74609, Note_on_c, 0, 64, 0
2, 74610, Note_on_c, 0, 62, 90
2, 74639, Note_on_c, 0, 62, 0
2, 74640, Note_on_c, 0, 64, 90
2, 74669, Note_on_c, 0, 64, 0
2, 74670, Note_on_c, 0, 66, 90
2, 74699, Note_on_c, 0, 66, 0
2, 74700, Note_on_c, 0, 59, 90
2, 74789, Note_on_c, 0, 59, 0
2, 74790, Note_on_c, 0, 57, 90
2, 74819, Note_on_c, 0, 57, 0
2, 74820, Note_on_c, 0, 57, 90
2, 74879, Note_on_c, 0, 57, 0
2, 74880, Note_on_c, 0, 52, 90
2, 74909, Note_on_c, 0, 52, 0
2, 74910, Note_on_c, 0, 54, 90
2, 74939, Note_on_c, 0, 54, 0
2, 74940, Note_on_c, 0, 52, 90
2, 74999, Note_on_c, 0, 52, 0
2, 75000, Note_on_c, 0, 52, 90
2, 75059, Note_on_c, 0, 52, 0
2, 75060, Note_on_c, 0, 61, 90
2, 75089, Note_on_c, 0, 61, 0
2, 75090, Note_on_c, 0, 59, 90
2, 75119, Note_on_c, 0, 59, 0
2, 75120, Note_on_c, 0, 57, 90
2, 75149, Note_on_c, 0, 57, 0
2, 75150, Note_on_c, 0, 61, 90
2, 75179, Note_on_c, 0, 61, 0
2, 75180, Note_on_c, 0, 59, 90
2, 75239, Note_on_c, 0, 59, 0
2, 75240, Note_on_c, 0, 52, 90
2, 75269, Note_on_c, 0, 52, 0
2, 75270, Note_on_c, 0, 54, 90
2, 75299, Note_on_c, 0, 54, 0
2, 75300, Note_on_c, 0, 52, 90
2, 75359, Note_on_c, 0, 52, 0
2, 75360, Note_on_c, 0, 52, 90
2, 75419, Note_on_c, 0, 52, 0
2, 75420, Note_on_c, 0, 62, 90
2, 75449, Note_on_c, 0, 62, 0
2, 75450, Note_on_c, 0, 61, 90
2, 75479, Note_on_c, 0, 61, 0
2, 75480, Note_on_c, 0, 59, 90
2, 75509, Note_on_c, 0, 59, 0
2, 75510, Note_on_c, 0, 62, 90
2, 75539, Note_on_c, 0, 62, 0
2, 75540, Note_on_c, 0, 61, 90
2, 75569, Note_on_c, 0, 61, 0
2, 75570, Note_on_c, 0, 62, 90
2, 75599, Note_on_c, 0, 62, 0
2, 75600, Note_on_c, 0, 64, 90
2, 75629, Note_on_c, 0, 64, 0
2, 75630, Note_on_c, 0, 66, 90
2, 75659, Note_on_c, 0, 66, 0
2, 75660, Note_on_c, 0, 62, 90
2, 75689, Note_on_c, 0, 62, 0
2, 75690, Note_on_c, 0, 64, 90
2, 75719, Note_on_c, 0, 64, 0
2, 75720, Note_on_c, 0, 61, 90
2, 75749, Note_on_c, 0, 61, 0
2, 75750, Note_on_c, 0, 62, 90
2, 75779, Note_on_c, 0, 62, 0
2, 75780, Note_on_c, 0, 64, 90
2, 75809, Note_on_c, 0, 64, 0
2, 75810, Note_on_c, 0, 66, 90
2, 75839, Note_on_c, 0, 66, 0
2, 75840, Note_on_c, 0, 62, 90
2, 75869, Note_on_c, 0, 62, 0
2, 75870, Note_on_c, 0, 64, 90
2, 75899, Note_on_c, 0, 64, 0
2, 75900, Note_on_c, 0, 61, 90
2, 75929, Note_on_c, 0, 61, 0
2, 75930, Note_on_c, 0, 62, 90
2, 75959, Note_on_c, 0, 62, 0
2, 75960, Note_on_c, 0, 64, 90
2, 75989, Note_on_c, 0, 64, 0
2, 75990, Note_on_c, 0, 61, 90
2, 76019, Note_on_c, 0, 61, 0
2, 76020, Note_on_c, 0, 62, 90
2, 76049, Note_on_c, 0, 62, 0
2, 76050, Note_on_c, 0, 64, 90
2, 76079, Note_on_c, 0, 64, 0
2, 76080, Note_on_c, 0, 62, 90
2, 76199, Note_on_c, 0, 62, 0
2, 76260, Note_on_c, 0, 54, 90
2, 76319, Note_on_c, 0, 54, 0
2, 76320, Note_on_c, 0, 59, 90
2, 76379, Note_on_c, 0, 59, 0
2, 76380, Note_on_c, 0, 61, 90
2, 76439, Note_on_c, 0, 61, 0
2, 76440, Note_on_c, 0, 62, 90
2, 76559, Note_on_c, 0, 62, 0
2, 76620, Note_on_c, 0, 54, 90
2, 76679, Note_on_c, 0, 54, 0
2, 76680, Note_on_c, 0, 61, 90
2, 76739, Note_on_c, 0, 61, 0
2, 76740, Note_on_c, 0, 62, 90
2, 76799, Note_on_c, 0, 62, 0
2, 76800, Note_on_c, 0, 64, 90
2, 76919, Note_on_c, 0, 64, 0
2, 76980, Note_on_c, 0, 59, 90
2, 77009, Note_on_c, 0, 59, 0
2, 77010, Note_on_c, 0, 61, 90
2, 77039, Note_on_c, 0, 61, 0
2, 77040, Note_on_c, 0, 62, 90
2, 77069, Note_on_c, 0, 62, 0
2, 77070, Note_on_c, 0, 64, 90
2, 77099, Note_on_c, 0, 64, 0
2, 77100, Note_on_c, 0, 61, 90
2, 77129, Note_on_c, 0, 61, 0
2, 77130, Note_on_c, 0, 62, 90
2, 77159, Note_on_c, 0, 62, 0
2, 77160, Note_on_c, 0, 59, 90
2, 77189, Note_on_c, 0, 59, 0
2, 77190, Note_on_c, 0, 61, 90
2, 77219, Note_on_c, 0, 61, 0
2, 77220, Note_on_c, 0, 62, 90
2, 77249, Note_on_c, 0, 62, 0
2, 77250, Note_on_c, 0, 64, 90
2, 77279, Note_on_c, 0, 64, 0
2, 77280, Note_on_c, 0, 61, 90
2, 77309, Note_on_c, 0, 61, 0
2, 77310, Note_on_c, 0, 62, 90
2, 77339, Note_on_c, 0, 62, 0
2, 77340, Note_on_c, 0, 59, 90
2, 77399, Note_on_c, 0, 59, 0
2, 77400, Note_on_c, 0, 66, 90
2, 77459, Note_on_c, 0, 66, 0
2, 77460, Note_on_c, 0, 71, 90
2, 77519, Note_on_c, 0, 71, 0
2, 77520, Note_on_c, 0, 68, 90
2, 77639, Note_on_c, 0, 68, 0
2, 77670, Note_on_c, 0, 66, 90
2, 77684, Note_on_c, 0, 66, 0
2, 77685, Note_on_c, 0, 68, 90
2, 77699, Note_on_c, 0, 68, 0
2, 77700, Note_on_c, 0, 69, 90
2, 77939, Note_on_c, 0, 69, 0
2, 77940, Note_on_c, 0, 69, 90
2, 77969, Note_on_c, 0, 69, 0
2, 77970, Note_on_c, 0, 71, 90
2, 77999, Note_on_c, 0, 71, 0
2, 78000, Note_on_c, 0, 72, 90
2, 78059, Note_on_c, 0, 72, 0
2, 78060, Note_on_c, 0, 71, 90
2, 78149, Note_on_c, 0, 71, 0
2, 78150, Note_on_c, 0, 69, 90
2, 78179, Note_on_c, 0, 69, 0
2, 78180, Note_on_c, 0, 67, 90
2, 78209, Note_on_c, 0, 67, 0
2, 78210, Note_on_c, 0, 66, 90
2, 78239, Note_on_c, 0, 66, 0
2, 78240, Note_on_c, 0, 67, 90
2, 78269, Note_on_c, 0, 67, 0
2, 78270, Note_on_c, 0, 69, 90
2, 78299, Note_on_c, 0, 69, 0
2, 78300, Note_on_c, 0, 66, 90
2, 78320, Note_on_c, 0, 66, 0
2, 78320, Note_on_c, 0, 67, 90
2, 78340, Note_on_c, 0, 67, 0
2, 78340, Note_on_c, 0, 66, 90
2, 78360, Note_on_c, 0, 66, 0
2, 78360, Note_on_c, 0, 67, 90
2, 78375, Note_on_c, 0, 67, 0
2, 78375, Note_on_c, 0, 66, 90
2, 78390, Note_on_c, 0, 66, 0
2, 78390, Note_on_c, 0, 64, 90
2, 78419, Note_on_c, 0, 64, 0
2, 78420, Note_on_c, 0, 64, 90
2, 79740, Note_on_c, 0, 64, 0
2, 79740, Note_on_c, 0, 69, 90
2, 79769, Note_on_c, 0, 69, 0
2, 79770, Note_on_c, 0, 67, 90
2, 79799, Note_on_c, 0, 67, 0
2, 79800, Note_on_c, 0, 66, 90
2, 79829, Note_on_c, 0, 66, 0
2, 79830, Note_on_c, 0, 64, 90
2, 79859, Note_on_c, 0, 64, 0
2, 79860, Note_on_c, 0, 62, 90
2, 79919, Note_on_c, 0, 62, 0
2, 79920, Note_on_c, 0, 57, 90
2, 79949, Note_on_c, 0, 57, 0
2, 79950, Note_on_c, 0, 59, 90
2, 79979, Note_on_c, 0, 59, 0
2, 79980, Note_on_c, 0, 57, 90
2, 80039, Note_on_c, 0, 57, 0
2, 80040, Note_on_c, 0, 57, 90
2, 80099, Note_on_c, 0, 57, 0
2, 80100, Note_on_c, 0, 66, 90
2, 80129, Note_on_c, 0, 66, 0
2, 80130, Note_on_c, 0, 64, 90
2, 80159, Note_on_c, 0, 64, 0
2, 80160, Note_on_c, 0, 62, 90
2, 80189, Note_on_c, 0, 62, 0
2, 80190, Note_on_c, 0, 66, 90
2, 80219, Note_on_c, 0, 66, 0
2, 80220, Note_on_c, 0, 64, 90
2, 80279, Note_on_c, 0, 64, 0
2, 80280, Note_on_c, 0, 57, 90
2, 80309, Note_on_c, 0, 57, 0
2, 80310, Note_on_c, 0, 59, 90
2, 80339, Note_on_c, 0, 59, 0
2, 80340, Note_on_c, 0, 57, 90
2, 80399, Note_on_c, 0, 57, 0
2, 80400, Note_on_c, 0, 57, 90
2, 80459, Note_on_c, 0, 57, 0
2, 80460, Note_on_c, 0, 67, 90
2, 80489, Note_on_c, 0, 67, 0
2, 80490, Note_on_c, 0, 66, 90
2, 80519, Note_on_c, 0, 66, 0
2, 80520, Note_on_c, 0, 64, 90
2, 80549, Note_on_c, 0, 64, 0
2, 80550, Note_on_c, 0, 67, 90
2, 80579, Note_on_c, 0, 67, 0
2, 80580, Note_on_c, 0, 66, 90
2, 80609, Note_on_c, 0, 66, 0
2, 80610, Note_on_c, 0, 67, 90
2, 80639, Note_on_c, 0, 67, 0
2, 80640, Note_on_c, 0, 69, 90
2, 80669, Note_on_c, 0, 69, 0
2, 80670, Note_on_c, 0, 71, 90
2, 80699, Note_on_c, 0, 71, 0
2, 80700, Note_on_c, 0, 67, 90
2, 80729, Note_on_c, 0, 67, 0
2, 80730, Note_on_c, 0, 69, 90
2, 80759, Note_on_c, 0, 69, 0
2, 80760, Note_on_c, 0, 66, 90
2, 80789, Note_on_c, 0, 66, 0
2, 80790, Note_on_c, 0, 67, 90
2, 80819, Note_on_c, 0, 67, 0
2, 80820, Note_on_c, 0, 69, 90
2, 80849, Note_on_c, 0, 69, 0
2, 80850, Note_on_c, 0, 71, 90
2, 80879, Note_on_c, 0, 71, 0
2, 80880, Note_on_c, 0, 67, 90
2, 80909, Note_on_c, 0, 67, 0
2, 80910, Note_on_c, 0, 69, 90
2, 80939, Note_on_c, 0, 69, 0
2, 80940, Note_on_c, 0, 66, 90
2, 80969, Note_on_c, 0, 66, 0
2, 80970, Note_on_c, 0, 67, 90
2, 80999, Note_on_c, 0, 67, 0
2, 81000, Note_on_c, 0, 69, 90
2, 81029, Note_on_c, 0, 69, 0
2, 81030, Note_on_c, 0, 66, 90
2, 81059, Note_on_c, 0, 66, 0
2, 81060, Note_on_c, 0, 67, 90
2, 81089, Note_on_c, 0, 67, 0
2, 81090, Note_on_c, 0, 69, 90
2, 81119, Note_on_c, 0, 69, 0
2, 81120, Note_on_c, 0, 59, 90
2, 81149, Note_on_c, 0, 59, 0
2, 81150, Note_on_c, 0, 61, 90
2, 81179, Note_on_c, 0, 61, 0
2, 81180, Note_on_c, 0, 62, 90
2, 81209, Note_on_c, 0, 62, 0
2, 81210, Note_on_c, 0, 59, 90
2, 81239, Note_on_c, 0, 59, 0
2, 81240, Note_on_c, 0, 61, 90
2, 81269, Note_on_c, 0, 61, 0
2, 81270, Note_on_c, 0, 62, 90
2, 81299, Note_on_c, 0, 62, 0
2, 81300, Note_on_c, 0, 64, 90
2, 81479, Note_on_c, 0, 64, 0
2, 81510, Note_on_c, 0, 66, 90
2, 81539, Note_on_c, 0, 66, 0
2, 81540, Note_on_c, 0, 67, 90
2, 81569, Note_on_c, 0, 67, 0
2, 81570, Note_on_c, 0, 64, 90
2, 81599, Note_on_c, 0, 64, 0
2, 81600, Note_on_c, 0, 66, 90
2, 81629, Note_on_c, 0, 66, 0
2, 81630, Note_on_c, 0, 67, 90
2, 81659, Note_on_c, 0, 67, 0
2, 81660, Note_on_c, 0, 61, 90
2, 81689, Note_on_c, 0, 61, 0
2, 81690, Note_on_c, 0, 62, 90
2, 81719, Note_on_c, 0, 62, 0
2, 81720, Note_on_c, 0, 64, 90
2, 81749, Note_on_c, 0, 64, 0
2, 81750, Note_on_c, 0, 61, 90
2, 81779, Note_on_c, 0, 61, 0
2, 81780, Note_on_c, 0, 62, 90
2, 81809, Note_on_c, 0, 62, 0
2, 81810, Note_on_c, 0, 64, 90
2, 81839, Note_on_c, 0, 64, 0
2, 81840, Note_on_c, 0, 57, 90
2, 82019, Note_on_c, 0, 57, 0
2, 82050, Note_on_c, 0, 59, 90
2, 82079, Note_on_c, 0, 59, 0
2, 82080, Note_on_c, 0, 61, 90
2, 82109, Note_on_c, 0, 61, 0
2, 82110, Note_on_c, 0, 57, 90
2, 82139, Note_on_c, 0, 57, 0
2, 82140, Note_on_c, 0, 59, 90
2, 82169, Note_on_c, 0, 59, 0
2, 82170, Note_on_c, 0, 61, 90
2, 82199, Note_on_c, 0, 61, 0
2, 82200, Note_on_c, 0, 54, 90
2, 82229, Note_on_c, 0, 54, 0
2, 82230, Note_on_c, 0, 55, 90
2, 82259, Note_on_c, 0, 55, 0
2, 82260, Note_on_c, 0, 57, 90
2, 82289, Note_on_c, 0, 57, 0
2, 82290, Note_on_c, 0, 54, 90
2, 82319, Note_on_c, 0, 54, 0
2, 82320, Note_on_c, 0, 55, 90
2, 82349, Note_on_c, 0, 55, 0
2, 82350, Note_on_c, 0, 57, 90
2, 82379, Note_on_c, 0, 57, 0
2, 82380, Note_on_c, 0, 50, 90
2, 82559, Note_on_c, 0, 50, 0
2, 82560, Note_on_c, 0, 62, 90
2, 82589, Note_on_c, 0, 62, 0
2, 82590, Note_on_c, 0, 64, 90
2, 82619, Note_on_c, 0, 64, 0
2, 82620, Note_on_c, 0, 66, 90
2, 82649, Note_on_c, 0, 66, 0
2, 82650, Note_on_c, 0, 62, 90
2, 82679, Note_on_c, 0, 62, 0
2, 82680, Note_on_c, 0, 64, 90
2, 82709, Note_on_c, 0, 64, 0
2, 82710, Note_on_c, 0, 66, 90
2, 82739, Note_on_c, 0, 66, 0
2, 82740, Note_on_c, 0, 59, 90
2, 82769, Note_on_c, 0, 59, 0
2, 82770, Note_on_c, 0, 61, 90
2, 82799, Note_on_c, 0, 61, 0
2, 82800, Note_on_c, 0, 62, 90
2, 82829, Note_on_c, 0, 62, 0
2, 82830, Note_on_c, 0, 59, 90
2, 82859, Note_on_c, 0, 59, 0
2, 82860, Note_on_c, 0, 61, 90
2, 82889, Note_on_c, 0, 61, 0
2, 82890, Note_on_c, 0, 62, 90
2, 82919, Note_on_c, 0, 62, 0
2, 82920, Note_on_c, 0, 64, 90
2, 82949, Note_on_c, 0, 64, 0
2, 82950, Note_on_c, 0, 66, 90
2, 82979, Note_on_c, 0, 66, 0
2, 82980, Note_on_c, 0, 67, 90
2, 83009, Note_on_c, 0, 67, 0
2, 83010, Note_on_c, 0, 64, 90
2, 83039, Note_on_c, 0, 64, 0
2, 83040, Note_on_c, 0, 66, 90
2, 83069, Note_on_c, 0, 66, 0
2, 83070, Note_on_c, 0, 67, 90
2, 83099, Note_on_c, 0, 67, 0
2, 83100, Note_on_c, 0, 61, 90
2, 83129, Note_on_c, 0, 61, 0
2, 83130, Note_on_c, 0, 62, 90
2, 83159, Note_on_c, 0, 62, 0
2, 83160, Note_on_c, 0, 64, 90
2, 83189, Note_on_c, 0, 64, 0
2, 83190, Note_on_c, 0, 61, 90
2, 83219, Note_on_c, 0, 61, 0
2, 83220, Note_on_c, 0, 62, 90
2, 83249, Note_on_c, 0, 62, 0
2, 83250, Note_on_c, 0, 64, 90
2, 83279, Note_on_c, 0, 64, 0
2, 83280, Note_on_c, 0, 66, 90
2, 83309, Note_on_c, 0, 66, 0
2, 83310, Note_on_c, 0, 67, 90
2, 83339, Note_on_c, 0, 67, 0
2, 83340, Note_on_c, 0, 69, 90
2, 83369, Note_on_c, 0, 69, 0
2, 83370, Note_on_c, 0, 66, 90
2, 83399, Note_on_c, 0, 66, 0
2, 83400, Note_on_c, 0, 67, 90
2, 83429, Note_on_c, 0, 67, 0
2, 83430, Note_on_c, 0, 69, 90
2, 83459, Note_on_c, 0, 69, 0
2, 83460, Note_on_c, 0, 62, 90
2, 83489, Note_on_c, 0, 62, 0
2, 83490, Note_on_c, 0, 64, 90
2, 83519, Note_on_c, 0, 64, 0
2, 83520, Note_on_c, 0, 66, 90
2, 83549, Note_on_c, 0, 66, 0
2, 83550, Note_on_c, 0, 62, 90
2, 83579, Note_on_c, 0, 62, 0
2, 83580, Note_on_c, 0, 64, 90
2, 83609, Note_on_c, 0, 64, 0
2, 83610, Note_on_c, 0, 66, 90
2, 83639, Note_on_c, 0, 66, 0
2, 83640, Note_on_c, 0, 67, 90
2, 83819, Note_on_c, 0, 67, 0
2, 83850, Note_on_c, 0, 66, 90
2, 83879, Note_on_c, 0, 66, 0
2, 83880, Note_on_c, 0, 67, 90
2, 83909, Note_on_c, 0, 67, 0
2, 83910, Note_on_c, 0, 69, 90
2, 83939, Note_on_c, 0, 69, 0
2, 83940, Note_on_c, 0, 66, 90
2, 83969, Note_on_c, 0, 66, 0
2, 83970, Note_on_c, 0, 67, 90
2, 83999, Note_on_c, 0, 67, 0
2, 84000, Note_on_c, 0, 64, 90
2, 84029, Note_on_c, 0, 64, 0
2, 84030, Note_on_c, 0, 66, 90
2, 84059, Note_on_c, 0, 66, 0
2, 84060, Note_on_c, 0, 67, 90
2, 84089, Note_on_c, 0, 67, 0
2, 84090, Note_on_c, 0, 69, 90
2, 84119, Note_on_c, 0, 69, 0
2, 84120, Note_on_c, 0, 66, 90
2, 84149, Note_on_c, 0, 66, 0
2, 84150, Note_on_c, 0, 67, 90
2, 84179, Note_on_c, 0, 67, 0
2, 84180, Note_on_c, 0, 64, 90
2, 84239, Note_on_c, 0, 64, 0
2, 84240, Note_on_c, 0, 57, 90
2, 84269, Note_on_c, 0, 57, 0
2, 84270, Note_on_c, 0, 59, 90
2, 84299, Note_on_c, 0, 59, 0
2, 84300, Note_on_c, 0, 57, 90
2, 84359, Note_on_c, 0, 57, 0
2, 84360, Note_on_c, 0, 57, 90
2, 84419, Note_on_c, 0, 57, 0
2, 84420, Note_on_c, 0, 67, 90
2, 84449, Note_on_c, 0, 67, 0
2, 84450, Note_on_c, 0, 66, 90
2, 84479, Note_on_c, 0, 66, 0
2, 84480, Note_on_c, 0, 64, 90
2, 84509, Note_on_c, 0, 64, 0
2, 84510, Note_on_c, 0, 67, 90
2, 84539, Note_on_c, 0, 67, 0
2, 84540, Note_on_c, 0, 66, 90
2, 84960, Note_on_c, 0, 66, 0
2, 84960, Note_on_c, 0, 55, 90
2, 84990, Note_on_c, 0, 55, 0
2, 84990, Note_on_c, 0, 57, 90
2, 85020, Note_on_c, 0, 57, 0
2, 85020, Note_on_c, 0, 55, 90
2, 85080, Note_on_c, 0, 55, 0
2, 85080, Note_on_c, 0, 55, 90
2, 85140, Note_on_c, 0, 55, 0
2, 85140, Note_on_c, 0, 66, 90
2, 85170, Note_on_c, 0, 66, 0
2, 85170, Note_on_c, 0, 64, 90
2, 85200, Note_on_c, 0, 64, 0
2, 85200, Note_on_c, 0, 62, 90
2, 85230, Note_on_c, 0, 62, 0
2, 85230, Note_on_c, 0, 66, 90
2, 85260, Note_on_c, 0, 66, 0
2, 85260, Note_on_c, 0, 64, 90
2, 85680, Note_on_c, 0, 64, 0
2, 85680, Note_on_c, 0, 54, 90
2, 85710, Note_on_c, 0, 54, 0
2, 85710, Note_on_c, 0, 55, 90
2, 85740, Note_on_c, 0, 55, 0
2, 85740, Note_on_c, 0, 54, 90
2, 85800, Note_on_c, 0, 54, 0
2, 85800, Note_on_c, 0, 54, 90
2, 85860, Note_on_c, 0, 54, 0
2, 85860, Note_on_c, 0, 64, 90
2, 85890, Note_on_c, 0, 64, 0
2, 85890, Note_on_c, 0, 62, 90
2, 85920, Note_on_c, 0, 62, 0
2, 85920, Note_on_c, 0, 61, 90
2, 85950, Note_on_c, 0, 61, 0
2, 85950, Note_on_c, 0, 64, 90
2, 85980, Note_on_c, 0, 64, 0
2, 85980, Note_on_c, 0, 62, 90
2, 86400, Note_on_c, 0, 62, 0
2, 86400, Note_on_c, 0, 52, 90
2, 86430, Note_on_c, 0, 52, 0
2, 86430, Note_on_c, 0, 54, 90
2, 86460, Note_on_c, 0, 54, 0
2, 86460, Note_on_c, 0, 52, 90
2, 86520, Note_on_c, 0, 52, 0
2, 86520, Note_on_c, 0, 52, 90
2, 86580, Note_on_c, 0, 52, 0
2, 86580, Note_on_c, 0, 62, 90
2, 86610, Note_on_c, 0, 62, 0
2, 86610, Note_on_c, 0, 61, 90
2, 86640, Note_on_c, 0, 61, 0
2, 86640, Note_on_c, 0, 59, 90
2, 86670, Note_on_c, 0, 59, 0
2, 86670, Note_on_c, 0, 62, 90
2, 86700, Note_on_c, 0, 62, 0
2, 86700, Note_on_c, 0, 61, 90
2, 87060, Note_on_c, 0, 61, 0
2, 87120, Note_on_c, 0, 57, 90
2, 87149, Note_on_c, 0, 57, 0
2, 87150, Note_on_c, 0, 59, 90
2, 87179, Note_on_c, 0, 59, 0
2, 87180, Note_on_c, 0, 57, 90
2, 87239, Note_on_c, 0, 57, 0
2, 87240, Note_on_c, 0, 57, 90
2, 87299, Note_on_c, 0, 57, 0
2, 87300, Note_on_c, 0, 66, 90
2, 87329, Note_on_c, 0, 66, 0
2, 87330, Note_on_c, 0, 64, 90
2, 87359, Note_on_c, 0, 64, 0
2, 87360, Note_on_c, 0, 62, 90
2, 87389, Note_on_c, 0, 62, 0
2, 87390, Note_on_c, 0, 66, 90
2, 87419, Note_on_c, 0, 66, 0
2, 87420, Note_on_c, 0, 64, 90
2, 87479, Note_on_c, 0, 64, 0
2, 87480, Note_on_c, 0, 57, 90
2, 87509, Note_on_c, 0, 57, 0
2, 87510, Note_on_c, 0, 59, 90
2, 87539, Note_on_c, 0, 59, 0
2, 87540, Note_on_c, 0, 57, 90
2, 87599, Note_on_c, 0, 57, 0
2, 87600, Note_on_c, 0, 57, 90
2, 87659, Note_on_c, 0, 57, 0
2, 87660, Note_on_c, 0, 67, 90
2, 87689, Note_on_c, 0, 67, 0
2, 87690, Note_on_c, 0, 66, 90
2, 87719, Note_on_c, 0, 66, 0
2, 87720, Note_on_c, 0, 64, 90
2, 87749, Note_on_c, 0, 64, 0
2, 87750, Note_on_c, 0, 67, 90
2, 87779, Note_on_c, 0, 67, 0
2, 87780, Note_on_c, 0, 66, 90
2, 87809, Note_on_c, 0, 66, 0
2, 87810, Note_on_c, 0, 67, 90
2, 87839, Note_on_c, 0, 67, 0
2, 87840, Note_on_c, 0, 69, 90
2, 87869, Note_on_c, 0, 69, 0
2, 87870, Note_on_c, 0, 71, 90
2, 87899, Note_on_c, 0, 71, 0
2, 87900, Note_on_c, 0, 67, 90
2, 87929, Note_on_c, 0, 67, 0
2, 87930, Note_on_c, 0, 69, 90
2, 87959, Note_on_c, 0, 69, 0
2, 87960, Note_on_c, 0, 66, 90
2, 87989, Note_on_c, 0, 66, 0
2, 87990, Note_on_c, 0, 67, 90
2, 88019, Note_on_c, 0, 67, 0
2, 88020, Note_on_c, 0, 69, 90
2, 88049, Note_on_c, 0, 69, 0
2, 88050, Note_on_c, 0, 71, 90
2, 88079, Note_on_c, 0, 71, 0
2, 88080, Note_on_c, 0, 67, 90
2, 88109, Note_on_c, 0, 67, 0
2, 88110, Note_on_c, 0, 69, 90
2, 88139, Note_on_c, 0, 69, 0
2, 88140, Note_on_c, 0, 66, 90
2, 88169, Note_on_c, 0, 66, 0
2, 88170, Note_on_c, 0, 67, 90
2, 88199, Note_on_c, 0, 67, 0
2, 88200, Note_on_c, 0, 69, 90
2, 88229, Note_on_c, 0, 69, 0
2, 88230, Note_on_c, 0, 66, 90
2, 88259, Note_on_c, 0, 66, 0
2, 88260, Note_on_c, 0, 67, 90
2, 88289, Note_on_c, 0, 67, 0
2, 88290, Note_on_c, 0, 69, 90
2, 88319, Note_on_c, 0, 69, 0
2, 88320, Note_on_c, 0, 67, 90
2, 88349, Note_on_c, 0, 67, 0
2, 88350, Note_on_c, 0, 69, 90
2, 88379, Note_on_c, 0, 69, 0
2, 88380, Note_on_c, 0, 71, 90
2, 88409, Note_on_c, 0, 71, 0
2, 88410, Note_on_c, 0, 67, 90
2, 88439, Note_on_c, 0, 67, 0
2, 88440, Note_on_c, 0, 69, 90
2, 88469, Note_on_c, 0, 69, 0
2, 88470, Note_on_c, 0, 71, 90
2, 88499, Note_on_c, 0, 71, 0
2, 88500, Note_on_c, 0, 64, 90
2, 88679, Note_on_c, 0, 64, 0
2, 88710, Note_on_c, 0, 66, 90
2, 88739, Note_on_c, 0, 66, 0
2, 88740, Note_on_c, 0, 67, 90
2, 88769, Note_on_c, 0, 67, 0
2, 88770, Note_on_c, 0, 64, 90
2, 88799, Note_on_c, 0, 64, 0
2, 88800, Note_on_c, 0, 66, 90
2, 88829, Note_on_c, 0, 66, 0
2, 88830, Note_on_c, 0, 67, 90
2, 88859, Note_on_c, 0, 67, 0
2, 88860, Note_on_c, 0, 61, 90
2, 88889, Note_on_c, 0, 61, 0
2, 88890, Note_on_c, 0, 62, 90
2, 88919, Note_on_c, 0, 62, 0
2, 88920, Note_on_c, 0, 64, 90
2, 88949, Note_on_c, 0, 64, 0
2, 88950, Note_on_c, 0, 61, 90
2, 88979, Note_on_c, 0, 61, 0
2, 88980, Note_on_c, 0, 62, 90
2, 89009, Note_on_c, 0, 62, 0
2, 89010, Note_on_c, 0, 64, 90
2, 89039, Note_on_c, 0, 64, 0
2, 89040, Note_on_c, 0, 57, 90
2, 89219, Note_on_c, 0, 57, 0
2, 89250, Note_on_c, 0, 59, 90
2, 89279, Note_on_c, 0, 59, 0
2, 89280, Note_on_c, 0, 60, 90
2, 89309, Note_on_c, 0, 60, 0
2, 89310, Note_on_c, 0, 57, 90
2, 89339, Note_on_c, 0, 57, 0
2, 89340, Note_on_c, 0, 59, 90
2, 89369, Note_on_c, 0, 59, 0
2, 89370, Note_on_c, 0, 60, 90
2, 89399, Note_on_c, 0, 60, 0
2, 89400, Note_on_c, 0, 54, 90
2, 89429, Note_on_c, 0, 54, 0
2, 89430, Note_on_c, 0, 55, 90
2, 89459, Note_on_c, 0, 55, 0
2, 89460, Note_on_c, 0, 57, 90
2, 89489, Note_on_c, 0, 57, 0
2, 89490, Note_on_c, 0, 54, 90
2, 89519, Note_on_c, 0, 54, 0
2, 89520, Note_on_c, 0, 55, 90
2, 89549, Note_on_c, 0, 55, 0
2, 89550, Note_on_c, 0, 57, 90
2, 89579, Note_on_c, 0, 57, 0
2, 89580, Note_on_c, 0, 50, 90
2, 89759, Note_on_c, 0, 50, 0
2, 89790, Note_on_c, 0, 52, 90
2, 89819, Note_on_c, 0, 52, 0
2, 89820, Note_on_c, 0, 54, 90
2, 89849, Note_on_c, 0, 54, 0
2, 89850, Note_on_c, 0, 50, 90
2, 89879, Note_on_c, 0, 50, 0
2, 89880, Note_on_c, 0, 52, 90
2, 89909, Note_on_c, 0, 52, 0
2, 89910, Note_on_c, 0, 54, 90
2, 89939, Note_on_c, 0, 54, 0
2, 89940, Note_on_c, 0, 55, 90
2, 89969, Note_on_c, 0, 55, 0
2, 89970, Note_on_c, 0, 57, 90
2, 89999, Note_on_c, 0, 57, 0
2, 90000, Note_on_c, 0, 59, 90
2, 90029, Note_on_c, 0, 59, 0
2, 90030, Note_on_c, 0, 55, 90
2, 90059, Note_on_c, 0, 55, 0
2, 90060, Note_on_c, 0, 57, 90
2, 90089, Note_on_c, 0, 57, 0
2, 90090, Note_on_c, 0, 59, 90
2, 90119, Note_on_c, 0, 59, 0
2, 90120, Note_on_c, 0, 52, 90
2, 90149, Note_on_c, 0, 52, 0
2, 90150, Note_on_c, 0, 54, 90
2, 90179, Note_on_c, 0, 54, 0
2, 90180, Note_on_c, 0, 55, 90
2, 90209, Note_on_c, 0, 55, 0
2, 90210, Note_on_c, 0, 52, 90
2, 90239, Note_on_c, 0, 52, 0
2, 90240, Note_on_c, 0, 54, 90
2, 90269, Note_on_c, 0, 54, 0
2, 90270, Note_on_c, 0, 55, 90
2, 90299, Note_on_c, 0, 55, 0
2, 90300, Note_on_c, 0, 57, 90
2, 90329, Note_on_c, 0, 57, 0
2, 90330, Note_on_c, 0, 59, 90
2, 90359, Note_on_c, 0, 59, 0
2, 90360, Note_on_c, 0, 61, 90
2, 90389, Note_on_c, 0, 61, 0
2, 90390, Note_on_c, 0, 57, 90
2, 90419, Note_on_c, 0, 57, 0
2, 90420, Note_on_c, 0, 59, 90
2, 90449, Note_on_c, 0, 59, 0
2, 90450, Note_on_c, 0, 61, 90
2, 90479, Note_on_c, 0, 61, 0
2, 90480, Note_on_c, 0, 54, 90
2, 90509, Note_on_c, 0, 54, 0
2, 90510, Note_on_c, 0, 55, 90
2, 90539, Note_on_c, 0, 55, 0
2, 90540, Note_on_c, 0, 57, 90
2, 90569, Note_on_c, 0, 57, 0
2, 90570, Note_on_c, 0, 54, 90
2, 90599, Note_on_c, 0, 54, 0
2, 90600, Note_on_c, 0, 55, 90
2, 90629, Note_on_c, 0, 55, 0
2, 90630, Note_on_c, 0, 57, 90
2, 90659, Note_on_c, 0, 57, 0
2, 90660, Note_on_c, 0, 59, 90
2, 90689, Note_on_c, 0, 59, 0
2, 90690, Note_on_c, 0, 60, 90
2, 90719, Note_on_c, 0, 60, 0
2, 90720, Note_on_c, 0, 62, 90
2, 90749, Note_on_c, 0, 62, 0
2, 90750, Note_on_c, 0, 64, 90
2, 90779, Note_on_c, 0, 64, 0
2, 90780, Note_on_c, 0, 60, 90
2, 90809, Note_on_c, 0, 60, 0
2, 90810, Note_on_c, 0, 62, 90
2, 90839, Note_on_c, 0, 62, 0
2, 90840, Note_on_c, 0, 59, 90
2, 90869, Note_on_c, 0, 59, 0
2, 90870, Note_on_c, 0, 60, 90
2, 90899, Note_on_c, 0, 60, 0
2, 90900, Note_on_c, 0, 62, 90
2, 90929, Note_on_c, 0, 62, 0
2, 90930, Note_on_c, 0, 64, 90
2, 90959, Note_on_c, 0, 64, 0
2, 90960, Note_on_c, 0, 60, 90
2, 90989, Note_on_c, 0, 60, 0
2, 90990, Note_on_c, 0, 62, 90
2, 91019, Note_on_c, 0, 62, 0
2, 91020, Note_on_c, 0, 55, 90
2, 91049, Note_on_c, 0, 55, 0
2, 91050, Note_on_c, 0, 57, 90
2, 91079, Note_on_c, 0, 57, 0
2, 91080, Note_on_c, 0, 59, 90
2, 91109, Note_on_c, 0, 59, 0
2, 91110, Note_on_c, 0, 60, 90
2, 91139, Note_on_c, 0, 60, 0
2, 91140, Note_on_c, 0, 57, 90
2, 91169, Note_on_c, 0, 57, 0
2, 91170, Note_on_c, 0, 59, 90
2, 91199, Note_on_c, 0, 59, 0
2, 91200, Note_on_c, 0, 55, 90
2, 91229, Note_on_c, 0, 55, 0
2, 91230, Note_on_c, 0, 57, 90
2, 91259, Note_on_c, 0, 57, 0
2, 91260, Note_on_c, 0, 59, 90
2, 91289, Note_on_c, 0, 59, 0
2, 91290, Note_on_c, 0, 55, 90
2, 91319, Note_on_c, 0, 55, 0
2, 91320, Note_on_c, 0, 57, 90
2, 91349, Note_on_c, 0, 57, 0
2, 91350, Note_on_c, 0, 59, 90
2, 91379, Note_on_c, 0, 59, 0
2, 91380, Note_on_c, 0, 52, 90
2, 91409, Note_on_c, 0, 52, 0
2, 91410, Note_on_c, 0, 54, 90
2, 91439, Note_on_c, 0, 54, 0
2, 91440, Note_on_c, 0, 55, 90
2, 91469, Note_on_c, 0, 55, 0
2, 91470, Note_on_c, 0, 52, 90
2, 91499, Note_on_c, 0, 52, 0
2, 91500, Note_on_c, 0, 54, 90
2, 91529, Note_on_c, 0, 54, 0
2, 91530, Note_on_c, 0, 55, 90
2, 91559, Note_on_c, 0, 55, 0
2, 91560, Note_on_c, 0, 54, 90
2, 91619, Note_on_c, 0, 54, 0
2, 91620, Note_on_c, 0, 57, 90
2, 91679, Note_on_c, 0, 57, 0
2, 91680, Note_on_c, 0, 62, 90
2, 91739, Note_on_c, 0, 62, 0
2, 91740, Note_on_c, 0, 61, 90
2, 91799, Note_on_c, 0, 61, 0
2, 91800, Note_on_c, 0, 64, 90
2, 91859, Note_on_c, 0, 64, 0
2, 91860, Note_on_c, 0, 61, 90
2, 91919, Note_on_c, 0, 61, 0
2, 91920, Note_on_c, 0, 57, 90
2, 91979, Note_on_c, 0, 57, 0
2, 91980, Note_on_c, 0, 61, 90
2, 92039, Note_on_c, 0, 61, 0
2, 92040, Note_on_c, 0, 64, 90
2, 92099, Note_on_c, 0, 64, 0
2, 92100, Note_on_c, 0, 69, 90
2, 92520, Note_on_c, 0, 69, 0
2, 92520, Note_on_c, 0, 66, 90
2, 92579, Note_on_c, 0, 66, 0
2, 92580, Note_on_c, 0, 62, 90
2, 92639, Note_on_c, 0, 62, 0
2, 92640, Note_on_c, 0, 67, 90
2, 92699, Note_on_c, 0, 67, 0
2, 92700, Note_on_c, 0, 64, 90
2, 92759, Note_on_c, 0, 64, 0
2, 92760, Note_on_c, 0, 61, 90
2, 92819, Note_on_c, 0, 61, 0
2, 92820, Note_on_c, 0, 66, 90
2, 92879, Note_on_c, 0, 66, 0
2, 92880, Note_on_c, 0, 62, 90
2, 92939, Note_on_c, 0, 62, 0
2, 92940, Note_on_c, 0, 59, 90
2, 92999, Note_on_c, 0, 59, 0
2, 93000, Note_on_c, 0, 64, 90
2, 93059, Note_on_c, 0, 64, 0
2, 93060, Note_on_c, 0, 61, 90
2, 93119, Note_on_c, 0, 61, 0
2, 93120, Note_on_c, 0, 57, 90
2, 93179, Note_on_c, 0, 57, 0
2, 93180, Note_on_c, 0, 62, 90
2, 93239, Note_on_c, 0, 62, 0
2, 93240, Note_on_c, 0, 59, 90
2, 93299, Note_on_c, 0, 59, 0
2, 93300, Note_on_c, 0, 55, 90
2, 93359, Note_on_c, 0, 55, 0
2, 93360, Note_on_c, 0, 61, 90
2, 93389, Note_on_c, 0, 61, 0
2, 93390, Note_on_c, 0, 62, 90
2, 93419, Note_on_c, 0, 62, 0
2, 93420, Note_on_c, 0, 64, 90
2, 93479, Note_on_c, 0, 64, 0
2, 93480, Note_on_c, 0, 57, 90
2, 93539, Note_on_c, 0, 57, 0
2, 93540, Note_on_c, 0, 62, 90
2, 93569, Note_on_c, 0, 62, 0
2, 93570, Note_on_c, 0, 64, 90
2, 93599, Note_on_c, 0, 64, 0
2, 93600, Note_on_c, 0, 61, 90
2, 93689, Note_on_c, 0, 61, 0
2, 93690, Note_on_c, 0, 62, 90
2, 93719, Note_on_c, 0, 62, 0
2, 93720, Note_on_c, 0, 62, 90
2, 93779, Note_on_c, 0, 62, 0
2, 93780, Note_on_c, 0, 54, 90
2, 93809, Note_on_c, 0, 54, 0
2, 93810, Note_on_c, 0, 55, 90
2, 93839, Note_on_c, 0, 55, 0
2, 93840, Note_on_c, 0, 54, 90
2, 93899, Note_on_c, 0, 54, 0
2, 93900, Note_on_c, 0, 54, 90
2, 93959, Note_on_c, 0, 54, 0
2, 93960, Note_on_c, 0, 62, 90
2, 93989, Note_on_c, 0, 62, 0
2, 93990, Note_on_c, 0, 61, 90
2, 94019, Note_on_c, 0, 61, 0
2, 94020, Note_on_c, 0, 59, 90
2, 94049, Note_on_c, 0, 59, 0
2, 94050, Note_on_c, 0, 62, 90
2, 94079, Note_on_c, 0, 62, 0
2, 94080, Note_on_c, 0, 61, 90
2, 94139, Note_on_c, 0, 61, 0
2, 94140, Note_on_c, 0, 54, 90
2, 94169, Note_on_c, 0, 54, 0
2, 94170, Note_on_c, 0, 55, 90
2, 94199, Note_on_c, 0, 55, 0
2, 94200, Note_on_c, 0, 54, 90
2, 94260, Note_on_c, 0, 54, 0
2, 94260, Note_on_c, 0, 54, 90
2, 94320, Note_on_c, 0, 54, 0
2, 94320, Note_on_c, 0, 64, 90
2, 94350, Note_on_c, 0, 64, 0
2, 94350, Note_on_c, 0, 62, 90
2, 94380, Note_on_c, 0, 62, 0
2, 94380, Note_on_c, 0, 61, 90
2, 94410, Note_on_c, 0, 61, 0
2, 94410, Note_on_c, 0, 64, 90
2, 94440, Note_on_c, 0, 64, 0
2, 94440, Note_on_c, 0, 62, 90
2, 94470, Note_on_c, 0, 62, 0
2, 94470, Note_on_c, 0, 64, 90
2, 94500, Note_on_c, 0, 64, 0
2, 94500, Note_on_c, 0, 66, 90
2, 94530, Note_on_c, 0, 66, 0
2, 94530, Note_on_c, 0, 67, 90
2, 94560, Note_on_c, 0, 67, 0
2, 94560, Note_on_c, 0, 64, 90
2, 94590, Note_on_c, 0, 64, 0
2, 94590, Note_on_c, 0, 66, 90
2, 94620, Note_on_c, 0, 66, 0
2, 94620, Note_on_c, 0, 62, 90
2, 94650, Note_on_c, 0, 62, 0
2, 94650, Note_on_c, 0, 64, 90
2, 94680, Note_on_c, 0, 64, 0
2, 94680, Note_on_c, 0, 66, 90
2, 94710, Note_on_c, 0, 66, 0
2, 94710, Note_on_c, 0, 67, 90
2, 94740, Note_on_c, 0, 67, 0
2, 94740, Note_on_c, 0, 64, 90
2, 94770, Note_on_c, 0, 64, 0
2, 94770, Note_on_c, 0, 66, 90
2, 94800, Note_on_c, 0, 66, 0
2, 94800, Note_on_c, 0, 62, 90
2, 94830, Note_on_c, 0, 62, 0
2, 94830, Note_on_c, 0, 61, 90
2, 94860, Note_on_c, 0, 61, 0
2, 94860, Note_on_c, 0, 59, 90
2, 94890, Note_on_c, 0, 59, 0
2, 94890, Note_on_c, 0, 57, 90
2, 94920, Note_on_c, 0, 57, 0
2, 94920, Note_on_c, 0, 56, 90
2, 94950, Note_on_c, 0, 56, 0
2, 94950, Note_on_c, 0, 54, 90
2, 94980, Note_on_c, 0, 54, 0
2, 94980, Note_on_c, 0, 56, 90
2, 95039, Note_on_c, 0, 56, 0
2, 95040, Note_on_c, 0, 61, 90
2, 95099, Note_on_c, 0, 61, 0
2, 95100, Note_on_c, 0, 56, 90
2, 95159, Note_on_c, 0, 56, 0
2, 95160, Note_on_c, 0, 57, 90
2, 95219, Note_on_c, 0, 57, 0
2, 95220, Note_on_c, 0, 62, 90
2, 95279, Note_on_c, 0, 62, 0
2, 95280, Note_on_c, 0, 57, 90
2, 95339, Note_on_c, 0, 57, 0
2, 95340, Note_on_c, 0, 59, 90
2, 95399, Note_on_c, 0, 59, 0
2, 95400, Note_on_c, 0, 71, 90
2, 95519, Note_on_c, 0, 71, 0
2, 95550, Note_on_c, 0, 69, 90
2, 95579, Note_on_c, 0, 69, 0
2, 95580, Note_on_c, 0, 68, 90
2, 95609, Note_on_c, 0, 68, 0
2, 95610, Note_on_c, 0, 66, 90
2, 95639, Note_on_c, 0, 66, 0
2, 95640, Note_on_c, 0, 68, 90
2, 95759, Note_on_c, 0, 68, 0
2, 95760, Note_on_c, 0, 66, 90
2, 95819, Note_on_c, 0, 66, 0
2, 95820, Note_on_c, 0, 65, 90
2, 95879, Note_on_c, 0, 65, 0
2, 95880, Note_on_c, 0, 66, 90
2, 95939, Note_on_c, 0, 66, 0
2, 95940, Note_on_c, 0, 61, 90
2, 95999, Note_on_c, 0, 61, 0
2, 96000, Note_on_c, 0, 65, 90
2, 96000, Note_on_c, 0, 68, 90
2, 96059, Note_on_c, 0, 68, 0
2, 96059, Note_on_c, 0, 65, 0
2, 96060, Note_on_c, 0, 66, 90
2, 96060, Note_on_c, 0, 69, 90
2, 96240, Note_on_c, 0, 66, 0
2, 96240, Note_on_c, 0, 62, 90
2, 96419, Note_on_c, 0, 69, 0
2, 96420, Note_on_c, 0, 68, 90
2, 96599, Note_on_c, 0, 62, 0
2, 96600, Note_on_c, 0, 61, 90
2, 96779, Note_on_c, 0, 68, 0
2, 96780, Note_on_c, 0, 66, 90
2, 96959, Note_on_c, 0, 61, 0
2, 96960, Note_on_c, 0, 59, 90
2, 97139, Note_on_c, 0, 66, 0
2, 97140, Note_on_c, 0, 65, 90
2, 97170, Note_on_c, 0, 59, 0
2, 97170, Note_on_c, 0, 61, 90
2, 97199, Note_on_c, 0, 61, 0
2, 97200, Note_on_c, 0, 65, 0
2, 97200, Note_on_c, 0, 62, 90
2, 97229, Note_on_c, 0, 62, 0
2, 97230, Note_on_c, 0, 64, 90
2, 97259, Note_on_c, 0, 64, 0
2, 97260, Note_on_c, 0, 61, 90
2, 97289, Note_on_c, 0, 61, 0
2, 97290, Note_on_c, 0, 62, 90
2, 97319, Note_on_c, 0, 62, 0
2, 97320, Note_on_c, 0, 59, 90
2, 97349, Note_on_c, 0, 59, 0
2, 97350, Note_on_c, 0, 61, 90
2, 97379, Note_on_c, 0, 61, 0
2, 97380, Note_on_c, 0, 62, 90
2, 97409, Note_on_c, 0, 62, 0
2, 97410, Note_on_c, 0, 59, 90
2, 97439, Note_on_c, 0, 59, 0
2, 97440, Note_on_c, 0, 61, 90
2, 97469, Note_on_c, 0, 61, 0
2, 97470, Note_on_c, 0, 62, 90
2, 97499, Note_on_c, 0, 62, 0
2, 97500, Note_on_c, 0, 56, 90
2, 97529, Note_on_c, 0, 56, 0
2, 97530, Note_on_c, 0, 57, 90
2, 97559, Note_on_c, 0, 57, 0
2, 97560, Note_on_c, 0, 59, 90
2, 97589, Note_on_c, 0, 59, 0
2, 97590, Note_on_c, 0, 61, 90
2, 97619, Note_on_c, 0, 61, 0
2, 97620, Note_on_c, 0, 57, 90
2, 97649, Note_on_c, 0, 57, 0
2, 97650, Note_on_c, 0, 59, 90
2, 97679, Note_on_c, 0, 59, 0
2, 97680, Note_on_c, 0, 56, 90
2, 97709, Note_on_c, 0, 56, 0
2, 97710, Note_on_c, 0, 57, 90
2, 97739, Note_on_c, 0, 57, 0
2, 97740, Note_on_c, 0, 59, 90
2, 97769, Note_on_c, 0, 59, 0
2, 97770, Note_on_c, 0, 56, 90
2, 97799, Note_on_c, 0, 56, 0
2, 97800, Note_on_c, 0, 57, 90
2, 97829, Note_on_c, 0, 57, 0
2, 97830, Note_on_c, 0, 59, 90
2, 97859, Note_on_c, 0, 59, 0
2, 97860, Note_on_c, 0, 53, 90
2, 97919, Note_on_c, 0, 53, 0
2, 97920, Note_on_c, 0, 51, 90
2, 97949, Note_on_c, 0, 51, 0
2, 97950, Note_on_c, 0, 53, 90
2, 97979, Note_on_c, 0, 53, 0
2, 97980, Note_on_c, 0, 49, 90
2, 98039, Note_on_c, 0, 49, 0
2, 98040, Note_on_c, 0, 49, 90
2, 98099, Note_on_c, 0, 49, 0
2, 98100, Note_on_c, 0, 57, 90
2, 98129, Note_on_c, 0, 57, 0
2, 98130, Note_on_c, 0, 56, 90
2, 98159, Note_on_c, 0, 56, 0
2, 98160, Note_on_c, 0, 54, 90
2, 98189, Note_on_c, 0, 54, 0
2, 98190, Note_on_c, 0, 57, 90
2, 98219, Note_on_c, 0, 57, 0
2, 98220, Note_on_c, 0, 51, 90
2, 98279, Note_on_c, 0, 51, 0
2, 98280, Note_on_c, 0, 49, 90
2, 98309, Note_on_c, 0, 49, 0
2, 98310, Note_on_c, 0, 51, 90
2, 98339, Note_on_c, 0, 51, 0
2, 98340, Note_on_c, 0, 47, 90
2, 98399, Note_on_c, 0, 47, 0
2, 98400, Note_on_c, 0, 47, 90
2, 98459, Note_on_c, 0, 47, 0
2, 98460, Note_on_c, 0, 59, 90
2, 98489, Note_on_c, 0, 59, 0
2, 98490, Note_on_c, 0, 57, 90
2, 98519, Note_on_c, 0, 57, 0
2, 98520, Note_on_c, 0, 56, 90
2, 98549, Note_on_c, 0, 56, 0
2, 98550, Note_on_c, 0, 59, 90
2, 98579, Note_on_c, 0, 59, 0
2, 98580, Note_on_c, 0, 53, 90
2, 98609, Note_on_c, 0, 53, 0
2, 98610, Note_on_c, 0, 54, 90
2, 98639, Note_on_c, 0, 54, 0
2, 98640, Note_on_c, 0, 56, 90
2, 98669, Note_on_c, 0, 56, 0
2, 98670, Note_on_c, 0, 53, 90
2, 98699, Note_on_c, 0, 53, 0
2, 98700, Note_on_c, 0, 54, 90
2, 98729, Note_on_c, 0, 54, 0
2, 98730, Note_on_c, 0, 53, 90
2, 98759, Note_on_c, 0, 53, 0
2, 98760, Note_on_c, 0, 54, 90
2, 98789, Note_on_c, 0, 54, 0
2, 98790, Note_on_c, 0, 56, 90
2, 98819, Note_on_c, 0, 56, 0
2, 98820, Note_on_c, 0, 53, 90
2, 98909, Note_on_c, 0, 53, 0
2, 98910, Note_on_c, 0, 54, 90
2, 98939, Note_on_c, 0, 54, 0
2, 98940, Note_on_c, 0, 54, 90
2, 99059, Note_on_c, 0, 54, 0
2, 99180, Note_on_c, 0, 56, 90
2, 99239, Note_on_c, 0, 56, 0
2, 99240, Note_on_c, 0, 44, 90
2, 99299, Note_on_c, 0, 44, 0
2, 99300, Note_on_c, 0, 49, 90
2, 99419, Note_on_c, 0, 49, 0
2, 99540, Note_on_c, 0, 54, 90
2, 99599, Note_on_c, 0, 54, 0
2, 99600, Note_on_c, 0, 42, 90
2, 99659, Note_on_c, 0, 42, 0
2, 99660, Note_on_c, 0, 47, 90
2, 99779, Note_on_c, 0, 47, 0
2, 99900, Note_on_c, 0, 61, 90
2, 99959, Note_on_c, 0, 61, 0
2, 99960, Note_on_c, 0, 49, 90
2, 100019, Note_on_c, 0, 49, 0
2, 100020, Note_on_c, 0, 54, 90
2, 100139, Note_on_c, 0, 54, 0
2, 100260, Note_on_c, 0, 59, 90
2, 100319, Note_on_c, 0, 59, 0
2, 100320, Note_on_c, 0, 47, 90
2, 100379, Note_on_c, 0, 47, 0
2, 100380, Note_on_c, 0, 52, 90
2, 100499, Note_on_c, 0, 52, 0
2, 100620, Note_on_c, 0, 49, 90
2, 100679, Note_on_c, 0, 49, 0
2, 100680, Note_on_c, 0, 61, 90
2, 100739, Note_on_c, 0, 61, 0
2, 100740, Note_on_c, 0, 62, 90
2, 100859, Note_on_c, 0, 62, 0
2, 100980, Note_on_c, 0, 47, 90
2, 101039, Note_on_c, 0, 47, 0
2, 101040, Note_on_c, 0, 59, 90
2, 101099, Note_on_c, 0, 59, 0
2, 101100, Note_on_c, 0, 60, 90
2, 101219, Note_on_c, 0, 60, 0
2, 101340, Note_on_c, 0, 46, 90
2, 101399, Note_on_c, 0, 46, 0
2, 101400, Note_on_c, 0, 58, 90
2, 101459, Note_on_c, 0, 58, 0
2, 101460, Note_on_c, 0, 59, 90
2, 101579, Note_on_c, 0, 59, 0
2, 101700, Note_on_c, 0, 59, 90
2, 101759, Note_on_c, 0, 59, 0
2, 101760, Note_on_c, 0, 47, 90
2, 101819, Note_on_c, 0, 47, 0
2, 101820, Note_on_c, 0, 35, 90
2, 101939, Note_on_c, 0, 35, 0
2, 102060, Note_on_c, 0, 64, 90
2, 102119, Note_on_c, 0, 64, 0
2, 102120, Note_on_c, 0, 52, 90
2, 102179, Note_on_c, 0, 52, 0
2, 102180, Note_on_c, 0, 40, 90
2, 102299, Note_on_c, 0, 40, 0
2, 102420, Note_on_c, 0, 64, 90
2, 102479, Note_on_c, 0, 64, 0
2, 102480, Note_on_c, 0, 52, 90
2, 102539, Note_on_c, 0, 52, 0
2, 102540, Note_on_c, 0, 40, 90
2, 102659, Note_on_c, 0, 40, 0
2, 102780, Note_on_c, 0, 64, 90
2, 102839, Note_on_c, 0, 64, 0
2, 102840, Note_on_c, 0, 52, 90
2, 102899, Note_on_c, 0, 52, 0
2, 102900, Note_on_c, 0, 40, 90
2, 102959, Note_on_c, 0, 40, 0
2, 102960, Note_on_c, 0, 64, 90
2, 103019, Note_on_c, 0, 64, 0
2, 103020, Note_on_c, 0, 52, 90
2, 103079, Note_on_c, 0, 52, 0
2, 103080, Note_on_c, 0, 44, 90
2, 103139, Note_on_c, 0, 44, 0
2, 103140, Note_on_c, 0, 56, 90
2, 103199, Note_on_c, 0, 56, 0
2, 103200, Note_on_c, 0, 44, 90
2, 103259, Note_on_c, 0, 44, 0
2, 103260, Note_on_c, 0, 36, 90
2, 103319, Note_on_c, 0, 36, 0
2, 103320, Note_on_c, 0, 48, 90
2, 103379, Note_on_c, 0, 48, 0
2, 103380, Note_on_c, 0, 53, 90
2, 103439, Note_on_c, 0, 53, 0
2, 103440, Note_on_c, 0, 51, 90
2, 103499, Note_on_c, 0, 51, 0
2, 103500, Note_on_c, 0, 52, 90
2, 103559, Note_on_c, 0, 52, 0
2, 103560, Note_on_c, 0, 40, 90
2, 103619, Note_on_c, 0, 40, 0
2, 103620, Note_on_c, 0, 45, 90
2, 103679, Note_on_c, 0, 45, 0
2, 103680, Note_on_c, 0, 52, 90
2, 103709, Note_on_c, 0, 52, 0
2, 103710, Note_on_c, 0, 54, 90
2, 103739, Note_on_c, 0, 54, 0
2, 103740, Note_on_c, 0, 52, 90
2, 103800, Note_on_c, 0, 52, 0
2, 103800, Note_on_c, 0, 52, 90
2, 103860, Note_on_c, 0, 52, 0
2, 103860, Note_on_c, 0, 61, 90
2, 103889, Note_on_c, 0, 61, 0
2, 103890, Note_on_c, 0, 59, 90
2, 103919, Note_on_c, 0, 59, 0
2, 103920, Note_on_c, 0, 57, 90
2, 103949, Note_on_c, 0, 57, 0
2, 103950, Note_on_c, 0, 61, 90
2, 103979, Note_on_c, 0, 61, 0
2, 103980, Note_on_c, 0, 59, 90
2, 104039, Note_on_c, 0, 59, 0
2, 104040, Note_on_c, 0, 52, 90
2, 104069, Note_on_c, 0, 52, 0
2, 104070, Note_on_c, 0, 54, 90
2, 104099, Note_on_c, 0, 54, 0
2, 104100, Note_on_c, 0, 52, 90
2, 104159, Note_on_c, 0, 52, 0
2, 104160, Note_on_c, 0, 52, 90
2, 104219, Note_on_c, 0, 52, 0
2, 104220, Note_on_c, 0, 62, 90
2, 104249, Note_on_c, 0, 62, 0
2, 104250, Note_on_c, 0, 61, 90
2, 104279, Note_on_c, 0, 61, 0
2, 104280, Note_on_c, 0, 59, 90
2, 104309, Note_on_c, 0, 59, 0
2, 104310, Note_on_c, 0, 62, 90
2, 104339, Note_on_c, 0, 62, 0
2, 104340, Note_on_c, 0, 61, 90
2, 104369, Note_on_c, 0, 61, 0
2, 104370, Note_on_c, 0, 64, 90
2, 104399, Note_on_c, 0, 64, 0
2, 104400, Note_on_c, 0, 61, 90
2, 104429, Note_on_c, 0, 61, 0
2, 104430, Note_on_c, 0, 57, 90
2, 104459, Note_on_c, 0, 57, 0
2, 104460, Note_on_c, 0, 55, 90
2, 104489, Note_on_c, 0, 55, 0
2, 104490, Note_on_c, 0, 54, 90
2, 104519, Note_on_c, 0, 54, 0
2, 104520, Note_on_c, 0, 55, 90
2, 104549, Note_on_c, 0, 55, 0
2, 104550, Note_on_c, 0, 64, 90
2, 104579, Note_on_c, 0, 64, 0
2, 104580, Note_on_c, 0, 61, 90
2, 104609, Note_on_c, 0, 61, 0
2, 104610, Note_on_c, 0, 57, 90
2, 104639, Note_on_c, 0, 57, 0
2, 104640, Note_on_c, 0, 55, 90
2, 104669, Note_on_c, 0, 55, 0
2, 104670, Note_on_c, 0, 54, 90
2, 104699, Note_on_c, 0, 54, 0
2, 104700, Note_on_c, 0, 55, 90
2, 104729, Note_on_c, 0, 55, 0
2, 104730, Note_on_c, 0, 57, 90
2, 104759, Note_on_c, 0, 57, 0
2, 104760, Note_on_c, 0, 57, 90
2, 104789, Note_on_c, 0, 57, 0
2, 104790, Note_on_c, 0, 61, 90
2, 104819, Note_on_c, 0, 61, 0
2, 104820, Note_on_c, 0, 61, 90
2, 104849, Note_on_c, 0, 61, 0
2, 104850, Note_on_c, 0, 64, 90
2, 104879, Note_on_c, 0, 64, 0
2, 104880, Note_on_c, 0, 64, 90
2, 104909, Note_on_c, 0, 64, 0
2, 104910, Note_on_c, 0, 67, 90
2, 104924, Note_on_c, 0, 67, 0
2, 104925, Note_on_c, 0, 66, 90
2, 104939, Note_on_c, 0, 66, 0
2, 104940, Note_on_c, 0, 67, 90
2, 104969, Note_on_c, 0, 67, 0
2, 104970, Note_on_c, 0, 64, 90
2, 104999, Note_on_c, 0, 64, 0
2, 105000, Note_on_c, 0, 61, 90
2, 105029, Note_on_c, 0, 61, 0
2, 105030, Note_on_c, 0, 57, 90
2, 105059, Note_on_c, 0, 57, 0
2, 105060, Note_on_c, 0, 66, 90
2, 105089, Note_on_c, 0, 66, 0
2, 105090, Note_on_c, 0, 69, 90
2, 105119, Note_on_c, 0, 69, 0
2, 105120, Note_on_c, 0, 66, 90
2, 105149, Note_on_c, 0, 66, 0
2, 105150, Note_on_c, 0, 62, 90
2, 105179, Note_on_c, 0, 62, 0
2, 105180, Note_on_c, 0, 60, 90
2, 105209, Note_on_c, 0, 60, 0
2, 105210, Note_on_c, 0, 59, 90
2, 105239, Note_on_c, 0, 59, 0
2, 105240, Note_on_c, 0, 60, 90
2, 105269, Note_on_c, 0, 60, 0
2, 105270, Note_on_c, 0, 69, 90
2, 105299, Note_on_c, 0, 69, 0
2, 105300, Note_on_c, 0, 66, 90
2, 105329, Note_on_c, 0, 66, 0
2, 105330, Note_on_c, 0, 62, 90
2, 105359, Note_on_c, 0, 62, 0
2, 105360, Note_on_c, 0, 60, 90
2, 105389, Note_on_c, 0, 60, 0
2, 105390, Note_on_c, 0, 59, 90
2, 105419, Note_on_c, 0, 59, 0
2, 105420, Note_on_c, 0, 60, 90
2, 105449, Note_on_c, 0, 60, 0
2, 105450, Note_on_c, 0, 62, 90
2, 105479, Note_on_c, 0, 62, 0
2, 105480, Note_on_c, 0, 62, 90
2, 105509, Note_on_c, 0, 62, 0
2, 105510, Note_on_c, 0, 66, 90
2, 105539, Note_on_c, 0, 66, 0
2, 105540, Note_on_c, 0, 66, 90
2, 105569, Note_on_c, 0, 66, 0
2, 105570, Note_on_c, 0, 69, 90
2, 105599, Note_on_c, 0, 69, 0
2, 105600, Note_on_c, 0, 69, 90
2, 105629, Note_on_c, 0, 69, 0
2, 105630, Note_on_c, 0, 72, 90
2, 105644, Note_on_c, 0, 72, 0
2, 105645, Note_on_c, 0, 71, 90
2, 105659, Note_on_c, 0, 71, 0
2, 105660, Note_on_c, 0, 72, 90
2, 105689, Note_on_c, 0, 72, 0
2, 105690, Note_on_c, 0, 69, 90
2, 105719, Note_on_c, 0, 69, 0
2, 105720, Note_on_c, 0, 66, 90
2, 105749, Note_on_c, 0, 66, 0
2, 105750, Note_on_c, 0, 62, 90
2, 105779, Note_on_c, 0, 62, 0
2, 105780, Note_on_c, 0, 71, 90
2, 105809, Note_on_c, 0, 71, 0
2, 105810, Note_on_c, 0, 66, 90
2, 105839, Note_on_c, 0, 66, 0
2, 105840, Note_on_c, 0, 63, 90
2, 105869, Note_on_c, 0, 63, 0
2, 105870, Note_on_c, 0, 59, 90
2, 105899, Note_on_c, 0, 59, 0
2, 105900, Note_on_c, 0, 57, 90
2, 105929, Note_on_c, 0, 57, 0
2, 105930, Note_on_c, 0, 55, 90
2, 105959, Note_on_c, 0, 55, 0
2, 105960, Note_on_c, 0, 57, 90
2, 105989, Note_on_c, 0, 57, 0
2, 105990, Note_on_c, 0, 66, 90
2, 106019, Note_on_c, 0, 66, 0
2, 106020, Note_on_c, 0, 63, 90
2, 106049, Note_on_c, 0, 63, 0
2, 106050, Note_on_c, 0, 59, 90
2, 106079, Note_on_c, 0, 59, 0
2, 106080, Note_on_c, 0, 57, 90
2, 106109, Note_on_c, 0, 57, 0
2, 106110, Note_on_c, 0, 55, 90
2, 106139, Note_on_c, 0, 55, 0
2, 106140, Note_on_c, 0, 57, 90
2, 106169, Note_on_c, 0, 57, 0
2, 106170, Note_on_c, 0, 59, 90
2, 106199, Note_on_c, 0, 59, 0
2, 106200, Note_on_c, 0, 59, 90
2, 106229, Note_on_c, 0, 59, 0
2, 106230, Note_on_c, 0, 63, 90
2, 106259, Note_on_c, 0, 63, 0
2, 106260, Note_on_c, 0, 63, 90
2, 106289, Note_on_c, 0, 63, 0
2, 106290, Note_on_c, 0, 66, 90
2, 106319, Note_on_c, 0, 66, 0
2, 106320, Note_on_c, 0, 66, 90
2, 106349, Note_on_c, 0, 66, 0
2, 106350, Note_on_c, 0, 69, 90
2, 106364, Note_on_c, 0, 69, 0
2, 106365, Note_on_c, 0, 67, 90
2, 106379, Note_on_c, 0, 67, 0
2, 106380, Note_on_c, 0, 69, 90
2, 106409, Note_on_c, 0, 69, 0
2, 106410, Note_on_c, 0, 66, 90
2, 106439, Note_on_c, 0, 66, 0
2, 106440, Note_on_c, 0, 63, 90
2, 106469, Note_on_c, 0, 63, 0
2, 106470, Note_on_c, 0, 59, 90
2, 106499, Note_on_c, 0, 59, 0
2, 106500, Note_on_c, 0, 52, 90
2, 106529, Note_on_c, 0, 52, 0
2, 106530, Note_on_c, 0, 59, 90
2, 106559, Note_on_c, 0, 59, 0
2, 106560, Note_on_c, 0, 64, 90
2, 106589, Note_on_c, 0, 64, 0
2, 106590, Note_on_c, 0, 67, 90
2, 106619, Note_on_c, 0, 67, 0
2, 106620, Note_on_c, 0, 58, 90
2, 106649, Note_on_c, 0, 58, 0
2, 106650, Note_on_c, 0, 59, 90
2, 106679, Note_on_c, 0, 59, 0
2, 106680, Note_on_c, 0, 50, 90
2, 106709, Note_on_c, 0, 50, 0
2, 106710, Note_on_c, 0, 59, 90
2, 106739, Note_on_c, 0, 59, 0
2, 106740, Note_on_c, 0, 62, 90
2, 106769, Note_on_c, 0, 62, 0
2, 106770, Note_on_c, 0, 66, 90
2, 106799, Note_on_c, 0, 66, 0
2, 106800, Note_on_c, 0, 58, 90
2, 106829, Note_on_c, 0, 58, 0
2, 106830, Note_on_c, 0, 59, 90
2, 106859, Note_on_c, 0, 59, 0
2, 106860, Note_on_c, 0, 49, 90
2, 106889, Note_on_c, 0, 49, 0
2, 106890, Note_on_c, 0, 59, 90
2, 106919, Note_on_c, 0, 59, 0
2, 106920, Note_on_c, 0, 61, 90
2, 106949, Note_on_c, 0, 61, 0
2, 106950, Note_on_c, 0, 64, 90
2, 106979, Note_on_c, 0, 64, 0
2, 106980, Note_on_c, 0, 58, 90
2, 107009, Note_on_c, 0, 58, 0
2, 107010, Note_on_c, 0, 59, 90
2, 107039, Note_on_c, 0, 59, 0
2, 107040, Note_on_c, 0, 54, 90
2, 107069, Note_on_c, 0, 54, 0
2, 107070, Note_on_c, 0, 55, 90
2, 107084, Note_on_c, 0, 55, 0
2, 107085, Note_on_c, 0, 54, 90
2, 107099, Note_on_c, 0, 54, 0
2, 107100, Note_on_c, 0, 52, 90
2, 107129, Note_on_c, 0, 52, 0
2, 107130, Note_on_c, 0, 50, 90
2, 107159, Note_on_c, 0, 50, 0
2, 107160, Note_on_c, 0, 49, 90
2, 107189, Note_on_c, 0, 49, 0
2, 107190, Note_on_c, 0, 52, 90
2, 107219, Note_on_c, 0, 52, 0
2, 107220, Note_on_c, 0, 50, 90
2, 107249, Note_on_c, 0, 50, 0
2, 107250, Note_on_c, 0, 47, 90
2, 107264, Note_on_c, 0, 47, 0
2, 107265, Note_on_c, 0, 49, 90
2, 107279, Note_on_c, 0, 49, 0
2, 107280, Note_on_c, 0, 50, 90
2, 107309, Note_on_c, 0, 50, 0
2, 107310, Note_on_c, 0, 52, 90
2, 107339, Note_on_c, 0, 52, 0
2, 107340, Note_on_c, 0, 54, 90
2, 107369, Note_on_c, 0, 54, 0
2, 107370, Note_on_c, 0, 55, 90
2, 107399, Note_on_c, 0, 55, 0
2, 107400, Note_on_c, 0, 57, 90
2, 107429, Note_on_c, 0, 57, 0
2, 107430, Note_on_c, 0, 59, 90
2, 107459, Note_on_c, 0, 59, 0
2, 107460, Note_on_c, 0, 60, 90
2, 107489, Note_on_c, 0, 60, 0
2, 107490, Note_on_c, 0, 57, 90
2, 107519, Note_on_c, 0, 57, 0
2, 107520, Note_on_c, 0, 54, 90
2, 107549, Note_on_c, 0, 54, 0
2, 107550, Note_on_c, 0, 55, 90
2, 107579, Note_on_c, 0, 55, 0
2, 107580, Note_on_c, 0, 59, 90
2, 107609, Note_on_c, 0, 59, 0
2, 107610, Note_on_c, 0, 59, 90
2, 107624, Note_on_c, 0, 59, 0
2, 107625, Note_on_c, 0, 60, 90
2, 107639, Note_on_c, 0, 60, 0
2, 107640, Note_on_c, 0, 62, 90
2, 107669, Note_on_c, 0, 62, 0
2, 107670, Note_on_c, 0, 59, 90
2, 107699, Note_on_c, 0, 59, 0
2, 107700, Note_on_c, 0, 54, 90
2, 107729, Note_on_c, 0, 54, 0
2, 107730, Note_on_c, 0, 55, 90
2, 107759, Note_on_c, 0, 55, 0
2, 107760, Note_on_c, 0, 60, 90
2, 107789, Note_on_c, 0, 60, 0
2, 107790, Note_on_c, 0, 60, 90
2, 107804, Note_on_c, 0, 60, 0
2, 107805, Note_on_c, 0, 62, 90
2, 107819, Note_on_c, 0, 62, 0
2, 107820, Note_on_c, 0, 64, 90
2, 107849, Note_on_c, 0, 64, 0
2, 107850, Note_on_c, 0, 57, 90
2, 107864, Note_on_c, 0, 57, 0
2, 107865, Note_on_c, 0, 59, 90
2, 107879, Note_on_c, 0, 59, 0
2, 107880, Note_on_c, 0, 60, 90
2, 107909, Note_on_c, 0, 60, 0
2, 107910, Note_on_c, 0, 57, 90
2, 107939, Note_on_c, 0, 57, 0
2, 107940, Note_on_c, 0, 66, 90
2, 107969, Note_on_c, 0, 66, 0
2, 107970, Note_on_c, 0, 60, 90
2, 107984, Note_on_c, 0, 60, 0
2, 107985, Note_on_c, 0, 62, 90
2, 107999, Note_on_c, 0, 62, 0
2, 108000, Note_on_c, 0, 63, 90
2, 108029, Note_on_c, 0, 63, 0
2, 108030, Note_on_c, 0, 57, 90
2, 108044, Note_on_c, 0, 57, 0
2, 108045, Note_on_c, 0, 59, 90
2, 108059, Note_on_c, 0, 59, 0
2, 108060, Note_on_c, 0, 60, 90
2, 108089, Note_on_c, 0, 60, 0
2, 108090, Note_on_c, 0, 57, 90
2, 108119, Note_on_c, 0, 57, 0
2, 108120, Note_on_c, 0, 67, 90
2, 108149, Note_on_c, 0, 67, 0
2, 108150, Note_on_c, 0, 60, 90
2, 108164, Note_on_c, 0, 60, 0
2, 108165, Note_on_c, 0, 62, 90
2, 108179, Note_on_c, 0, 62, 0
2, 108180, Note_on_c, 0, 63, 90
2, 108209, Note_on_c, 0, 63, 0
2, 108210, Note_on_c, 0, 57, 90
2, 108224, Note_on_c, 0, 57, 0
2, 108225, Note_on_c, 0, 59, 90
2, 108239, Note_on_c, 0, 59, 0
2, 108240, Note_on_c, 0, 60, 90
2, 108269, Note_on_c, 0, 60, 0
2, 108270, Note_on_c, 0, 57, 90
2, 108299, Note_on_c, 0, 57, 0
2, 108300, Note_on_c, 0, 69, 90
2, 108329, Note_on_c, 0, 69, 0
2, 108330, Note_on_c, 0, 69, 90
2, 108344, Note_on_c, 0, 69, 0
2, 108345, Note_on_c, 0, 67, 90
2, 108359, Note_on_c, 0, 67, 0
2, 108360, Note_on_c, 0, 66, 90
2, 108389, Note_on_c, 0, 66, 0
2, 108390, Note_on_c, 0, 66, 90
2, 108404, Note_on_c, 0, 66, 0
2, 108405, Note_on_c, 0, 64, 90
2, 108419, Note_on_c, 0, 64, 0
2, 108420, Note_on_c, 0, 62, 90
2, 108449, Note_on_c, 0, 62, 0
2, 108450, Note_on_c, 0, 62, 90
2, 108464, Note_on_c, 0, 62, 0
2, 108465, Note_on_c, 0, 60, 90
2, 108479, Note_on_c, 0, 60, 0
2, 108480, Note_on_c, 0, 59, 90
2, 108509, Note_on_c, 0, 59, 0
2, 108510, Note_on_c, 0, 59, 90
2, 108524, Note_on_c, 0, 59, 0
2, 108525, Note_on_c, 0, 60, 90
2, 108539, Note_on_c, 0, 60, 0
2, 108540, Note_on_c, 0, 62, 90
2, 108569, Note_on_c, 0, 62, 0
2, 108570, Note_on_c, 0, 55, 90
2, 108599, Note_on_c, 0, 55, 0
2, 108600, Note_on_c, 0, 52, 90
2, 108629, Note_on_c, 0, 52, 0
2, 108630, Note_on_c, 0, 54, 90
2, 108659, Note_on_c, 0, 54, 0
2, 108660, Note_on_c, 0, 43, 90
2, 108719, Note_on_c, 0, 43, 0
2, 108720, Note_on_c, 0, 55, 90
2, 108779, Note_on_c, 0, 55, 0
2, 108780, Note_on_c, 0, 57, 90
2, 108839, Note_on_c, 0, 57, 0
2, 108840, Note_on_c, 0, 59, 90
2, 108959, Note_on_c, 0, 59, 0
2, 109020, Note_on_c, 0, 50, 90
2, 109079, Note_on_c, 0, 50, 0
2, 109080, Note_on_c, 0, 57, 90
2, 109139, Note_on_c, 0, 57, 0
2, 109140, Note_on_c, 0, 59, 90
2, 109199, Note_on_c, 0, 59, 0
2, 109200, Note_on_c, 0, 60, 90
2, 109319, Note_on_c, 0, 60, 0
2, 109380, Note_on_c, 0, 55, 90
2, 109409, Note_on_c, 0, 55, 0
2, 109410, Note_on_c, 0, 57, 90
2, 109439, Note_on_c, 0, 57, 0
2, 109440, Note_on_c, 0, 59, 90
2, 109469, Note_on_c, 0, 59, 0
2, 109470, Note_on_c, 0, 60, 90
2, 109499, Note_on_c, 0, 60, 0
2, 109500, Note_on_c, 0, 57, 90
2, 109529, Note_on_c, 0, 57, 0
2, 109530, Note_on_c, 0, 59, 90
2, 109559, Note_on_c, 0, 59, 0
2, 109560, Note_on_c, 0, 55, 90
2, 109589, Note_on_c, 0, 55, 0
2, 109590, Note_on_c, 0, 57, 90
2, 109619, Note_on_c, 0, 57, 0
2, 109620, Note_on_c, 0, 59, 90
2, 109649, Note_on_c, 0, 59, 0
2, 109650, Note_on_c, 0, 60, 90
2, 109679, Note_on_c, 0, 60, 0
2, 109680, Note_on_c, 0, 57, 90
2, 109709, Note_on_c, 0, 57, 0
2, 109710, Note_on_c, 0, 59, 90
2, 109739, Note_on_c, 0, 59, 0
2, 109740, Note_on_c, 0, 55, 90
2, 109769, Note_on_c, 0, 55, 0
2, 109770, Note_on_c, 0, 57, 90
2, 109799, Note_on_c, 0, 57, 0
2, 109800, Note_on_c, 0, 59, 90
2, 109829, Note_on_c, 0, 59, 0
2, 109830, Note_on_c, 0, 57, 90
2, 109859, Note_on_c, 0, 57, 0
2, 109860, Note_on_c, 0, 55, 90
2, 109889, Note_on_c, 0, 55, 0
2, 109890, Note_on_c, 0, 54, 90
2, 109919, Note_on_c, 0, 54, 0
2, 109920, Note_on_c, 0, 52, 90
2, 109979, Note_on_c, 0, 52, 0
2, 110160, Note_on_c, 0, 57, 90
2, 110189, Note_on_c, 0, 57, 0
2, 110190, Note_on_c, 0, 59, 90
2, 110219, Note_on_c, 0, 59, 0
2, 110220, Note_on_c, 0, 57, 90
2, 110279, Note_on_c, 0, 57, 0
2, 110280, Note_on_c, 0, 57, 90
2, 110339, Note_on_c, 0, 57, 0
2, 110340, Note_on_c, 0, 66, 90
2, 110369, Note_on_c, 0, 66, 0
2, 110370, Note_on_c, 0, 64, 90
2, 110399, Note_on_c, 0, 64, 0
2, 110400, Note_on_c, 0, 62, 90
2, 110429, Note_on_c, 0, 62, 0
2, 110430, Note_on_c, 0, 66, 90
2, 110459, Note_on_c, 0, 66, 0
2, 110460, Note_on_c, 0, 64, 90
2, 110519, Note_on_c, 0, 64, 0
2, 110520, Note_on_c, 0, 57, 90
2, 110549, Note_on_c, 0, 57, 0
2, 110550, Note_on_c, 0, 59, 90
2, 110579, Note_on_c, 0, 59, 0
2, 110580, Note_on_c, 0, 57, 90
2, 110639, Note_on_c, 0, 57, 0
2, 110640, Note_on_c, 0, 57, 90
2, 110699, Note_on_c, 0, 57, 0
2, 110700, Note_on_c, 0, 67, 90
2, 110729, Note_on_c, 0, 67, 0
2, 110730, Note_on_c, 0, 66, 90
2, 110759, Note_on_c, 0, 66, 0
2, 110760, Note_on_c, 0, 64, 90
2, 110789, Note_on_c, 0, 64, 0
2, 110790, Note_on_c, 0, 67, 90
2, 110819, Note_on_c, 0, 67, 0
2, 110820, Note_on_c, 0, 66, 90
2, 110849, Note_on_c, 0, 66, 0
2, 110850, Note_on_c, 0, 67, 90
2, 110879, Note_on_c, 0, 67, 0
2, 110880, Note_on_c, 0, 69, 90
2, 110909, Note_on_c, 0, 69, 0
2, 110910, Note_on_c, 0, 71, 90
2, 110939, Note_on_c, 0, 71, 0
2, 110940, Note_on_c, 0, 67, 90
2, 110969, Note_on_c, 0, 67, 0
2, 110970, Note_on_c, 0, 69, 90
2, 110999, Note_on_c, 0, 69, 0
2, 111000, Note_on_c, 0, 66, 90
2, 111029, Note_on_c, 0, 66, 0
2, 111030, Note_on_c, 0, 67, 90
2, 111059, Note_on_c, 0, 67, 0
2, 111060, Note_on_c, 0, 69, 90
2, 111089, Note_on_c, 0, 69, 0
2, 111090, Note_on_c, 0, 71, 90
2, 111119, Note_on_c, 0, 71, 0
2, 111120, Note_on_c, 0, 67, 90
2, 111149, Note_on_c, 0, 67, 0
2, 111150, Note_on_c, 0, 69, 90
2, 111179, Note_on_c, 0, 69, 0
2, 111180, Note_on_c, 0, 66, 90
2, 111209, Note_on_c, 0, 66, 0
2, 111210, Note_on_c, 0, 67, 90
2, 111239, Note_on_c, 0, 67, 0
2, 111240, Note_on_c, 0, 69, 90
2, 111269, Note_on_c, 0, 69, 0
2, 111270, Note_on_c, 0, 66, 90
2, 111299, Note_on_c, 0, 66, 0
2, 111300, Note_on_c, 0, 67, 90
2, 111329, Note_on_c, 0, 67, 0
2, 111330, Note_on_c, 0, 69, 90
2, 111359, Note_on_c, 0, 69, 0
2, 111360, Note_on_c, 0, 64, 90
2, 111389, Note_on_c, 0, 64, 0
2, 111390, Note_on_c, 0, 66, 90
2, 111419, Note_on_c, 0, 66, 0
2, 111420, Note_on_c, 0, 67, 90
2, 111449, Note_on_c, 0, 67, 0
2, 111450, Note_on_c, 0, 66, 90
2, 111479, Note_on_c, 0, 66, 0
2, 111480, Note_on_c, 0, 67, 90
2, 111509, Note_on_c, 0, 67, 0
2, 111510, Note_on_c, 0, 69, 90
2, 111539, Note_on_c, 0, 69, 0
2, 111540, Note_on_c, 0, 62, 90
2, 111569, Note_on_c, 0, 62, 0
2, 111570, Note_on_c, 0, 64, 90
2, 111599, Note_on_c, 0, 64, 0
2, 111600, Note_on_c, 0, 66, 90
2, 111629, Note_on_c, 0, 66, 0
2, 111630, Note_on_c, 0, 64, 90
2, 111659, Note_on_c, 0, 64, 0
2, 111660, Note_on_c, 0, 66, 90
2, 111689, Note_on_c, 0, 66, 0
2, 111690, Note_on_c, 0, 67, 90
2, 111719, Note_on_c, 0, 67, 0
2, 111720, Note_on_c, 0, 61, 90
2, 111749, Note_on_c, 0, 61, 0
2, 111750, Note_on_c, 0, 62, 90
2, 111779, Note_on_c, 0, 62, 0
2, 111780, Note_on_c, 0, 64, 90
2, 111809, Note_on_c, 0, 64, 0
2, 111810, Note_on_c, 0, 62, 90
2, 111839, Note_on_c, 0, 62, 0
2, 111840, Note_on_c, 0, 64, 90
2, 111869, Note_on_c, 0, 64, 0
2, 111870, Note_on_c, 0, 66, 90
2, 111899, Note_on_c, 0, 66, 0
2, 111900, Note_on_c, 0, 59, 90
2, 111929, Note_on_c, 0, 59, 0
2, 111930, Note_on_c, 0, 61, 90
2, 111959, Note_on_c, 0, 61, 0
2, 111960, Note_on_c, 0, 62, 90
2, 111989, Note_on_c, 0, 62, 0
2, 111990, Note_on_c, 0, 61, 90
2, 112019, Note_on_c, 0, 61, 0
2, 112020, Note_on_c, 0, 62, 90
2, 112049, Note_on_c, 0, 62, 0
2, 112050, Note_on_c, 0, 64, 90
2, 112079, Note_on_c, 0, 64, 0
2, 112080, Note_on_c, 0, 61, 90
2, 112139, Note_on_c, 0, 61, 0
2, 112140, Note_on_c, 0, 59, 90
2, 112169, Note_on_c, 0, 59, 0
2, 112170, Note_on_c, 0, 57, 90
2, 112199, Note_on_c, 0, 57, 0
2, 112200, Note_on_c, 0, 62, 90
2, 112319, Note_on_c, 0, 62, 0
2, 112320, Note_on_c, 0, 61, 90
2, 112335, Note_on_c, 0, 61, 0
2, 112335, Note_on_c, 0, 62, 90
2, 112350, Note_on_c, 0, 62, 0
2, 112350, Note_on_c, 0, 61, 90
2, 112365, Note_on_c, 0, 61, 0
2, 112365, Note_on_c, 0, 62, 90
2, 112380, Note_on_c, 0, 62, 0
2, 112380, Note_on_c, 0, 61, 90
2, 112410, Note_on_c, 0, 61, 0
2, 112410, Note_on_c, 0, 59, 90
2, 112424, Note_on_c, 0, 59, 0
2, 112425, Note_on_c, 0, 61, 90
2, 112439, Note_on_c, 0, 61, 0
2, 112440, Note_on_c, 0, 62, 90
2, 112499, Note_on_c, 0, 62, 0
2, 112500, Note_on_c, 0, 66, 90
2, 112559, Note_on_c, 0, 66, 0
2, 112560, Note_on_c, 0, 71, 90
2, 112679, Note_on_c, 0, 71, 0
2, 112680, Note_on_c, 0, 64, 90
2, 112739, Note_on_c, 0, 64, 0
2, 112740, Note_on_c, 0, 69, 90
2, 112859, Note_on_c, 0, 69, 0
2, 112860, Note_on_c, 0, 62, 90
2, 112919, Note_on_c, 0, 62, 0
2, 112920, Note_on_c, 0, 67, 90
2, 113039, Note_on_c, 0, 67, 0
2, 113040, Note_on_c, 0, 61, 90
2, 113099, Note_on_c, 0, 61, 0
2, 113100, Note_on_c, 0, 66, 90
2, 113219, Note_on_c, 0, 66, 0
2, 113220, Note_on_c, 0, 59, 90
2, 113279, Note_on_c, 0, 59, 0
2, 113280, Note_on_c, 0, 64, 90
2, 113369, Note_on_c, 0, 64, 0
2, 113370, Note_on_c, 0, 62, 90
2, 113399, Note_on_c, 0, 62, 0
2, 113400, Note_on_c, 0, 61, 90
2, 113429, Note_on_c, 0, 61, 0
2, 113430, Note_on_c, 0, 59, 90
2, 113459, Note_on_c, 0, 59, 0
2, 113460, Note_on_c, 0, 57, 90
2, 113489, Note_on_c, 0, 57, 0
2, 113490, Note_on_c, 0, 55, 90
2, 113519, Note_on_c, 0, 55, 0
2, 113520, Note_on_c, 0, 57, 90
2, 113549, Note_on_c, 0, 57, 0
2, 113550, Note_on_c, 0, 59, 90
2, 113579, Note_on_c, 0, 59, 0
2, 113580, Note_on_c, 0, 52, 90
2, 113669, Note_on_c, 0, 52, 0
2, 113670, Note_on_c, 0, 50, 90
2, 113699, Note_on_c, 0, 50, 0
2, 113700, Note_on_c, 0, 50, 90
2, 113720, Note_on_c, 0, 54, 90
2, 113740, Note_on_c, 0, 57, 90
2, 113760, Note_on_c, 0, 62, 90
2, 114059, Note_on_c, 0, 62, 0
2, 114059, Note_on_c, 0, 50, 0
2, 114059, Note_on_c, 0, 54, 0
2, 114059, Note_on_c, 0, 57, 0
2, 114059, End_track
3, 0, Start_track
3, 0, MIDI_port, 0
3, 0, Title_t, "Clave H"
3, 0, Program_c, 1, 6
3, 360, Note_on_c, 1, 74, 90
3, 479, Note_on_c, 1, 74, 0
3, 540, Note_on_c, 1, 69, 90
3, 599, Note_on_c, 1, 69, 0
3, 600, Note_on_c, 1, 71, 90
3, 689, Note_on_c, 1, 71, 0
3, 690, Note_on_c, 1, 73, 90
3, 704, Note_on_c, 1, 73, 0
3, 705, Note_on_c, 1, 74, 90
3, 719, Note_on_c, 1, 74, 0
3, 720, Note_on_c, 1, 66, 90
3, 730, Note_on_c, 1, 66, 0
3, 730, Note_on_c, 1, 67, 90
3, 740, Note_on_c, 1, 67, 0
3, 740, Note_on_c, 1, 66, 90
3, 750, Note_on_c, 1, 66, 0
3, 750, Note_on_c, 1, 67, 90
3, 757, Note_on_c, 1, 66, 90
3, 758, Note_on_c, 1, 67, 0
3, 765, Note_on_c, 1, 66, 0
3, 765, Note_on_c, 1, 67, 90
3, 772, Note_on_c, 1, 66, 90
3, 773, Note_on_c, 1, 67, 0
3, 780, Note_on_c, 1, 66, 0
3, 780, Note_on_c, 1, 64, 90
3, 809, Note_on_c, 1, 64, 0
3, 810, Note_on_c, 1, 62, 90
3, 839, Note_on_c, 1, 62, 0
3, 840, Note_on_c, 1, 68, 90
3, 959, Note_on_c, 1, 68, 0
3, 1080, Note_on_c, 1, 81, 90
3, 1199, Note_on_c, 1, 81, 0
3, 1260, Note_on_c, 1, 76, 90
3, 1319, Note_on_c, 1, 76, 0
3, 1320, Note_on_c, 1, 78, 90
3, 1409, Note_on_c, 1, 78, 0
3, 1410, Note_on_c, 1, 80, 90
3, 1424, Note_on_c, 1, 80, 0
3, 1425, Note_on_c, 1, 81, 90
3, 1439, Note_on_c, 1, 81, 0
3, 1440, Note_on_c, 1, 73, 90
3, 1499, Note_on_c, 1, 73, 0
3, 1500, Note_on_c, 1, 71, 90
3, 1529, Note_on_c, 1, 71, 0
3, 1530, Note_on_c, 1, 69, 90
3, 1559, Note_on_c, 1, 69, 0
3, 1560, Note_on_c, 1, 81, 90
3, 1919, Note_on_c, 1, 81, 0
3, 1950, Note_on_c, 1, 80, 90
3, 1979, Note_on_c, 1, 80, 0
3, 1980, Note_on_c, 1, 81, 90
3, 2009, Note_on_c, 1, 81, 0
3, 2010, Note_on_c, 1, 85, 90
3, 2039, Note_on_c, 1, 85, 0
3, 2040, Note_on_c, 1, 83, 90
3, 2069, Note_on_c, 1, 83, 0
3, 2070, Note_on_c, 1, 81, 90
3, 2099, Note_on_c, 1, 81, 0
3, 2100, Note_on_c, 1, 80, 90
3, 2129, Note_on_c, 1, 80, 0
3, 2130, Note_on_c, 1, 81, 90
3, 2159, Note_on_c, 1, 81, 0
3, 2160, Note_on_c, 1, 80, 90
3, 2219, Note_on_c, 1, 80, 0
3, 2220, Note_on_c, 1, 78, 90
3, 2249, Note_on_c, 1, 78, 0
3, 2250, Note_on_c, 1, 76, 90
3, 2279, Note_on_c, 1, 76, 0
3, 2580, Note_on_c, 1, 78, 90
3, 2639, Note_on_c, 1, 78, 0
3, 2640, Note_on_c, 1, 86, 90
3, 2669, Note_on_c, 1, 86, 0
3, 2670, Note_on_c, 1, 77, 90
3, 2699, Note_on_c, 1, 77, 0
3, 2700, Note_on_c, 1, 80, 90
3, 2729, Note_on_c, 1, 80, 0
3, 2730, Note_on_c, 1, 81, 90
3, 2759, Note_on_c, 1, 81, 0
3, 2760, Note_on_c, 1, 83, 90
3, 2789, Note_on_c, 1, 83, 0
3, 2790, Note_on_c, 1, 86, 90
3, 2819, Note_on_c, 1, 86, 0
3, 2820, Note_on_c, 1, 85, 90
3, 2849, Note_on_c, 1, 85, 0
3, 2850, Note_on_c, 1, 83, 90
3, 2879, Note_on_c, 1, 83, 0
3, 2880, Note_on_c, 1, 81, 90
3, 2890, Note_on_c, 1, 81, 0
3, 2890, Note_on_c, 1, 83, 90
3, 2900, Note_on_c, 1, 83, 0
3, 2900, Note_on_c, 1, 81, 90
3, 2910, Note_on_c, 1, 81, 0
3, 2910, Note_on_c, 1, 83, 90
3, 2917, Note_on_c, 1, 81, 90
3, 2918, Note_on_c, 1, 83, 0
3, 2925, Note_on_c, 1, 81, 0
3, 2925, Note_on_c, 1, 83, 90
3, 2932, Note_on_c, 1, 81, 90
3, 2933, Note_on_c, 1, 83, 0
3, 2940, Note_on_c, 1, 81, 0
3, 2940, Note_on_c, 1, 80, 90
3, 2969, Note_on_c, 1, 80, 0
3, 2970, Note_on_c, 1, 78, 90
3, 2999, Note_on_c, 1, 78, 0
3, 3000, Note_on_c, 1, 78, 90
3, 3359, Note_on_c, 1, 78, 0
3, 3420, Note_on_c, 1, 73, 90
3, 3479, Note_on_c, 1, 73, 0
3, 3480, Note_on_c, 1, 74, 90
3, 3509, Note_on_c, 1, 74, 0
3, 3510, Note_on_c, 1, 78, 90
3, 3539, Note_on_c, 1, 78, 0
3, 3540, Note_on_c, 1, 77, 90
3, 3569, Note_on_c, 1, 77, 0
3, 3570, Note_on_c, 1, 78, 90
3, 3599, Note_on_c, 1, 78, 0
3, 3600, Note_on_c, 1, 68, 90
3, 3659, Note_on_c, 1, 68, 0
3, 3660, Note_on_c, 1, 66, 90
3, 3689, Note_on_c, 1, 66, 0
3, 3690, Note_on_c, 1, 64, 90
3, 3719, Note_on_c, 1, 64, 0
3, 3720, Note_on_c, 1, 76, 90
3, 4079, Note_on_c, 1, 76, 0
3, 4110, Note_on_c, 1, 74, 90
3, 4139, Note_on_c, 1, 74, 0
3, 4140, Note_on_c, 1, 76, 90
3, 4169, Note_on_c, 1, 76, 0
3, 4170, Note_on_c, 1, 79, 90
3, 4199, Note_on_c, 1, 79, 0
3, 4200, Note_on_c, 1, 78, 90
3, 4229, Note_on_c, 1, 78, 0
3, 4230, Note_on_c, 1, 76, 90
3, 4259, Note_on_c, 1, 76, 0
3, 4260, Note_on_c, 1, 74, 90
3, 4289, Note_on_c, 1, 74, 0
3, 4290, Note_on_c, 1, 79, 90
3, 4319, Note_on_c, 1, 79, 0
3, 4320, Note_on_c, 1, 78, 90
3, 4349, Note_on_c, 1, 78, 0
3, 4350, Note_on_c, 1, 76, 90
3, 4379, Note_on_c, 1, 76, 0
3, 4380, Note_on_c, 1, 78, 90
3, 4409, Note_on_c, 1, 78, 0
3, 4410, Note_on_c, 1, 79, 90
3, 4439, Note_on_c, 1, 79, 0
3, 4440, Note_on_c, 1, 73, 90
3, 4455, Note_on_c, 1, 73, 0
3, 4455, Note_on_c, 1, 71, 90
3, 4470, Note_on_c, 1, 71, 0
3, 4470, Note_on_c, 1, 73, 90
3, 4620, Note_on_c, 1, 73, 0
3, 4620, Note_on_c, 1, 71, 90
3, 4679, Note_on_c, 1, 71, 0
3, 4680, Note_on_c, 1, 71, 90
3, 4799, Note_on_c, 1, 71, 0
3, 4860, Note_on_c, 1, 78, 90
3, 4919, Note_on_c, 1, 78, 0
3, 4920, Note_on_c, 1, 74, 90
3, 5009, Note_on_c, 1, 74, 0
3, 5010, Note_on_c, 1, 73, 90
3, 5024, Note_on_c, 1, 73, 0
3, 5025, Note_on_c, 1, 71, 90
3, 5039, Note_on_c, 1, 71, 0
3, 5040, Note_on_c, 1, 80, 90
3, 5099, Note_on_c, 1, 80, 0
3, 5100, Note_on_c, 1, 81, 90
3, 5129, Note_on_c, 1, 81, 0
3, 5130, Note_on_c, 1, 83, 90
3, 5159, Note_on_c, 1, 83, 0
3, 5160, Note_on_c, 1, 76, 90
3, 5399, Note_on_c, 1, 76, 0
3, 5430, Note_on_c, 1, 76, 90
3, 5459, Note_on_c, 1, 76, 0
3, 5460, Note_on_c, 1, 78, 90
3, 5489, Note_on_c, 1, 78, 0
3, 5490, Note_on_c, 1, 79, 90
3, 5519, Note_on_c, 1, 79, 0
3, 5520, Note_on_c, 1, 73, 90
3, 5549, Note_on_c, 1, 73, 0
3, 5550, Note_on_c, 1, 73, 90
3, 5579, Note_on_c, 1, 73, 0
3, 5580, Note_on_c, 1, 74, 90
3, 5609, Note_on_c, 1, 74, 0
3, 5610, Note_on_c, 1, 76, 90
3, 5639, Note_on_c, 1, 76, 0
3, 5640, Note_on_c, 1, 74, 90
3, 5669, Note_on_c, 1, 74, 0
3, 5670, Note_on_c, 1, 73, 90
3, 5699, Note_on_c, 1, 73, 0
3, 5700, Note_on_c, 1, 71, 90
3, 5729, Note_on_c, 1, 71, 0
3, 5730, Note_on_c, 1, 69, 90
3, 5759, Note_on_c, 1, 69, 0
3, 5760, Note_on_c, 1, 78, 90
3, 5819, Note_on_c, 1, 78, 0
3, 5820, Note_on_c, 1, 79, 90
3, 5849, Note_on_c, 1, 79, 0
3, 5850, Note_on_c, 1, 81, 90
3, 5879, Note_on_c, 1, 81, 0
3, 5880, Note_on_c, 1, 74, 90
3, 6119, Note_on_c, 1, 74, 0
3, 6150, Note_on_c, 1, 74, 90
3, 6179, Note_on_c, 1, 74, 0
3, 6180, Note_on_c, 1, 76, 90
3, 6209, Note_on_c, 1, 76, 0
3, 6210, Note_on_c, 1, 78, 90
3, 6239, Note_on_c, 1, 78, 0
3, 6240, Note_on_c, 1, 79, 90
3, 6269, Note_on_c, 1, 79, 0
3, 6270, Note_on_c, 1, 81, 90
3, 6299, Note_on_c, 1, 81, 0
3, 6300, Note_on_c, 1, 83, 90
3, 6329, Note_on_c, 1, 83, 0
3, 6330, Note_on_c, 1, 81, 90
3, 6359, Note_on_c, 1, 81, 0
3, 6360, Note_on_c, 1, 79, 90
3, 6389, Note_on_c, 1, 79, 0
3, 6390, Note_on_c, 1, 78, 90
3, 6419, Note_on_c, 1, 78, 0
3, 6420, Note_on_c, 1, 76, 90
3, 6449, Note_on_c, 1, 76, 0
3, 6450, Note_on_c, 1, 74, 90
3, 6479, Note_on_c, 1, 74, 0
3, 6480, Note_on_c, 1, 73, 90
3, 6599, Note_on_c, 1, 73, 0
3, 6630, Note_on_c, 1, 76, 90
3, 6659, Note_on_c, 1, 76, 0
3, 6660, Note_on_c, 1, 79, 90
3, 6689, Note_on_c, 1, 79, 0
3, 6690, Note_on_c, 1, 78, 90
3, 6719, Note_on_c, 1, 78, 0
3, 6720, Note_on_c, 1, 76, 90
3, 6749, Note_on_c, 1, 76, 0
3, 6750, Note_on_c, 1, 74, 90
3, 6779, Note_on_c, 1, 74, 0
3, 6780, Note_on_c, 1, 76, 90
3, 6809, Note_on_c, 1, 76, 0
3, 6810, Note_on_c, 1, 73, 90
3, 6839, Note_on_c, 1, 73, 0
3, 6840, Note_on_c, 1, 74, 90
3, 6929, Note_on_c, 1, 74, 0
3, 6930, Note_on_c, 1, 76, 90
3, 6959, Note_on_c, 1, 76, 0
3, 6960, Note_on_c, 1, 74, 90
3, 7079, Note_on_c, 1, 74, 0
3, 7080, Note_on_c, 1, 73, 90
3, 7090, Note_on_c, 1, 73, 0
3, 7090, Note_on_c, 1, 74, 90
3, 7100, Note_on_c, 1, 74, 0
3, 7100, Note_on_c, 1, 73, 90
3, 7110, Note_on_c, 1, 73, 0
3, 7110, Note_on_c, 1, 74, 90
3, 7117, Note_on_c, 1, 73, 90
3, 7118, Note_on_c, 1, 74, 0
3, 7125, Note_on_c, 1, 73, 0
3, 7125, Note_on_c, 1, 74, 90
3, 7132, Note_on_c, 1, 73, 90
3, 7133, Note_on_c, 1, 74, 0
3, 7140, Note_on_c, 1, 73, 0
3, 7140, Note_on_c, 1, 74, 90
3, 7147, Note_on_c, 1, 73, 90
3, 7148, Note_on_c, 1, 74, 0
3, 7155, Note_on_c, 1, 73, 0
3, 7155, Note_on_c, 1, 74, 90
3, 7162, Note_on_c, 1, 73, 90
3, 7163, Note_on_c, 1, 74, 0
3, 7170, Note_on_c, 1, 73, 0
3, 7170, Note_on_c, 1, 74, 90
3, 7199, Note_on_c, 1, 74, 0
3, 7200, Note_on_c, 1, 74, 90
3, 7319, Note_on_c, 1, 74, 0
3, 7380, Note_on_c, 1, 69, 90
3, 7439, Note_on_c, 1, 69, 0
3, 7440, Note_on_c, 1, 71, 90
3, 7529, Note_on_c, 1, 71, 0
3, 7530, Note_on_c, 1, 73, 90
3, 7545, Note_on_c, 1, 73, 0
3, 7545, Note_on_c, 1, 74, 90
3, 7560, Note_on_c, 1, 74, 0
3, 7560, Note_on_c, 1, 66, 90
3, 7619, Note_on_c, 1, 66, 0
3, 7620, Note_on_c, 1, 64, 90
3, 7649, Note_on_c, 1, 64, 0
3, 7650, Note_on_c, 1, 62, 90
3, 7679, Note_on_c, 1, 62, 0
3, 7680, Note_on_c, 1, 68, 90
3, 7769, Note_on_c, 1, 68, 0
3, 7770, Note_on_c, 1, 69, 90
3, 7777, Note_on_c, 1, 68, 90
3, 7778, Note_on_c, 1, 69, 0
3, 7785, Note_on_c, 1, 68, 0
3, 7785, Note_on_c, 1, 66, 90
3, 7792, Note_on_c, 1, 68, 90
3, 7793, Note_on_c, 1, 66, 0
3, 7800, Note_on_c, 1, 68, 0
3, 7800, Note_on_c, 1, 69, 90
3, 7810, Note_on_c, 1, 69, 0
3, 7810, Note_on_c, 1, 68, 90
3, 7820, Note_on_c, 1, 68, 0
3, 7820, Note_on_c, 1, 66, 90
3, 7830, Note_on_c, 1, 66, 0
3, 7830, Note_on_c, 1, 68, 90
3, 7837, Note_on_c, 1, 69, 90
3, 7838, Note_on_c, 1, 68, 0
3, 7845, Note_on_c, 1, 69, 0
3, 7845, Note_on_c, 1, 68, 90
3, 7852, Note_on_c, 1, 69, 90
3, 7853, Note_on_c, 1, 68, 0
3, 7860, Note_on_c, 1, 69, 0
3, 7860, Note_on_c, 1, 68, 90
3, 7870, Note_on_c, 1, 68, 0
3, 7870, Note_on_c, 1, 69, 90
3, 7880, Note_on_c, 1, 69, 0
3, 7880, Note_on_c, 1, 68, 90
3, 7890, Note_on_c, 1, 68, 0
3, 7890, Note_on_c, 1, 69, 90
3, 7920, Note_on_c, 1, 69, 0
3, 7920, Note_on_c, 1, 69, 90
3, 8280, Note_on_c, 1, 69, 0
3, 8640, Note_on_c, 1, 78, 90
3, 8669, Note_on_c, 1, 78, 0
3, 8670, Note_on_c, 1, 79, 90
3, 8699, Note_on_c, 1, 79, 0
3, 8700, Note_on_c, 1, 81, 90
3, 8819, Note_on_c, 1, 81, 0
3, 8820, Note_on_c, 1, 79, 90
3, 8849, Note_on_c, 1, 79, 0
3, 8850, Note_on_c, 1, 78, 90
3, 8879, Note_on_c, 1, 78, 0
3, 8880, Note_on_c, 1, 76, 90
3, 8909, Note_on_c, 1, 76, 0
3, 8910, Note_on_c, 1, 78, 90
3, 8939, Note_on_c, 1, 78, 0
3, 8940, Note_on_c, 1, 79, 90
3, 9059, Note_on_c, 1, 79, 0
3, 9060, Note_on_c, 1, 78, 90
3, 9089, Note_on_c, 1, 78, 0
3, 9090, Note_on_c, 1, 76, 90
3, 9119, Note_on_c, 1, 76, 0
3, 9120, Note_on_c, 1, 78, 90
3, 9179, Note_on_c, 1, 78, 0
3, 9180, Note_on_c, 1, 74, 90
3, 9239, Note_on_c, 1, 74, 0
3, 9240, Note_on_c, 1, 73, 90
3, 9255, Note_on_c, 1, 73, 0
3, 9255, Note_on_c, 1, 74, 90
3, 9270, Note_on_c, 1, 74, 0
3, 9270, Note_on_c, 1, 73, 90
3, 9299, Note_on_c, 1, 73, 0
3, 9300, Note_on_c, 1, 74, 90
3, 9359, Note_on_c, 1, 74, 0
3, 9360, Note_on_c, 1, 76, 90
3, 9389, Note_on_c, 1, 76, 0
3, 9390, Note_on_c, 1, 74, 90
3, 9419, Note_on_c, 1, 74, 0
3, 9420, Note_on_c, 1, 73, 90
3, 9449, Note_on_c, 1, 73, 0
3, 9450, Note_on_c, 1, 71, 90
3, 9479, Note_on_c, 1, 71, 0
3, 9480, Note_on_c, 1, 69, 90
3, 9509, Note_on_c, 1, 69, 0
3, 9510, Note_on_c, 1, 67, 90
3, 9539, Note_on_c, 1, 67, 0
3, 9540, Note_on_c, 1, 66, 90
3, 9569, Note_on_c, 1, 66, 0
3, 9570, Note_on_c, 1, 64, 90
3, 9599, Note_on_c, 1, 64, 0
3, 9600, Note_on_c, 1, 62, 90
3, 9629, Note_on_c, 1, 62, 0
3, 9630, Note_on_c, 1, 64, 90
3, 9659, Note_on_c, 1, 64, 0
3, 9660, Note_on_c, 1, 66, 90
3, 9689, Note_on_c, 1, 66, 0
3, 9690, Note_on_c, 1, 64, 90
3, 9719, Note_on_c, 1, 64, 0
3, 9720, Note_on_c, 1, 62, 90
3, 9749, Note_on_c, 1, 62, 0
3, 9750, Note_on_c, 1, 66, 90
3, 9779, Note_on_c, 1, 66, 0
3, 9780, Note_on_c, 1, 69, 90
3, 9809, Note_on_c, 1, 69, 0
3, 9810, Note_on_c, 1, 74, 90
3, 9839, Note_on_c, 1, 74, 0
3, 9840, Note_on_c, 1, 73, 90
3, 9869, Note_on_c, 1, 73, 0
3, 9870, Note_on_c, 1, 74, 90
3, 9899, Note_on_c, 1, 74, 0
3, 9900, Note_on_c, 1, 76, 90
3, 9929, Note_on_c, 1, 76, 0
3, 9930, Note_on_c, 1, 74, 90
3, 9959, Note_on_c, 1, 74, 0
3, 9960, Note_on_c, 1, 73, 90
3, 9989, Note_on_c, 1, 73, 0
3, 9990, Note_on_c, 1, 76, 90
3, 10019, Note_on_c, 1, 76, 0
3, 10020, Note_on_c, 1, 69, 90
3, 10049, Note_on_c, 1, 69, 0
3, 10050, Note_on_c, 1, 73, 90
3, 10079, Note_on_c, 1, 73, 0
3, 10080, Note_on_c, 1, 74, 90
3, 10109, Note_on_c, 1, 74, 0
3, 10110, Note_on_c, 1, 69, 90
3, 10139, Note_on_c, 1, 69, 0
3, 10140, Note_on_c, 1, 78, 90
3, 10169, Note_on_c, 1, 78, 0
3, 10170, Note_on_c, 1, 69, 90
3, 10199, Note_on_c, 1, 69, 0
3, 10200, Note_on_c, 1, 76, 90
3, 10229, Note_on_c, 1, 76, 0
3, 10230, Note_on_c, 1, 69, 90
3, 10259, Note_on_c, 1, 69, 0
3, 10260, Note_on_c, 1, 74, 90
3, 10289, Note_on_c, 1, 74, 0
3, 10290, Note_on_c, 1, 69, 90
3, 10319, Note_on_c, 1, 69, 0
3, 10320, Note_on_c, 1, 73, 90
3, 10349, Note_on_c, 1, 73, 0
3, 10350, Note_on_c, 1, 74, 90
3, 10379, Note_on_c, 1, 74, 0
3, 10380, Note_on_c, 1, 76, 90
3, 10409, Note_on_c, 1, 76, 0
3, 10410, Note_on_c, 1, 74, 90
3, 10439, Note_on_c, 1, 74, 0
3, 10440, Note_on_c, 1, 73, 90
3, 10469, Note_on_c, 1, 73, 0
3, 10470, Note_on_c, 1, 71, 90
3, 10499, Note_on_c, 1, 71, 0
3, 10500, Note_on_c, 1, 69, 90
3, 10529, Note_on_c, 1, 69, 0
3, 10530, Note_on_c, 1, 67, 90
3, 10559, Note_on_c, 1, 67, 0
3, 10560, Note_on_c, 1, 66, 90
3, 10589, Note_on_c, 1, 66, 0
3, 10590, Note_on_c, 1, 67, 90
3, 10619, Note_on_c, 1, 67, 0
3, 10620, Note_on_c, 1, 69, 90
3, 10649, Note_on_c, 1, 69, 0
3, 10650, Note_on_c, 1, 66, 90
3, 10679, Note_on_c, 1, 66, 0
3, 10680, Note_on_c, 1, 62, 90
3, 10709, Note_on_c, 1, 62, 0
3, 10710, Note_on_c, 1, 66, 90
3, 10739, Note_on_c, 1, 66, 0
3, 10740, Note_on_c, 1, 69, 90
3, 10769, Note_on_c, 1, 69, 0
3, 10770, Note_on_c, 1, 72, 90
3, 10799, Note_on_c, 1, 72, 0
3, 10800, Note_on_c, 1, 71, 90
3, 10829, Note_on_c, 1, 71, 0
3, 10830, Note_on_c, 1, 72, 90
3, 10859, Note_on_c, 1, 72, 0
3, 10860, Note_on_c, 1, 74, 90
3, 10889, Note_on_c, 1, 74, 0
3, 10890, Note_on_c, 1, 71, 90
3, 10919, Note_on_c, 1, 71, 0
3, 10920, Note_on_c, 1, 67, 90
3, 10979, Note_on_c, 1, 67, 0
3, 10980, Note_on_c, 1, 62, 90
3, 11039, Note_on_c, 1, 62, 0
3, 11040, Note_on_c, 1, 67, 90
3, 11069, Note_on_c, 1, 67, 0
3, 11070, Note_on_c, 1, 69, 90
3, 11099, Note_on_c, 1, 69, 0
3, 11100, Note_on_c, 1, 71, 90
3, 11129, Note_on_c, 1, 71, 0
3, 11130, Note_on_c, 1, 67, 90
3, 11159, Note_on_c, 1, 67, 0
3, 11160, Note_on_c, 1, 64, 90
3, 11189, Note_on_c, 1, 64, 0
3, 11190, Note_on_c, 1, 67, 90
3, 11219, Note_on_c, 1, 67, 0
3, 11220, Note_on_c, 1, 71, 90
3, 11249, Note_on_c, 1, 71, 0
3, 11250, Note_on_c, 1, 74, 90
3, 11279, Note_on_c, 1, 74, 0
3, 11280, Note_on_c, 1, 73, 90
3, 11309, Note_on_c, 1, 73, 0
3, 11310, Note_on_c, 1, 74, 90
3, 11339, Note_on_c, 1, 74, 0
3, 11340, Note_on_c, 1, 76, 90
3, 11369, Note_on_c, 1, 76, 0
3, 11370, Note_on_c, 1, 73, 90
3, 11399, Note_on_c, 1, 73, 0
3, 11400, Note_on_c, 1, 69, 90
3, 11459, Note_on_c, 1, 69, 0
3, 11460, Note_on_c, 1, 76, 90
3, 11519, Note_on_c, 1, 76, 0
3, 11520, Note_on_c, 1, 81, 90
3, 11579, Note_on_c, 1, 81, 0
3, 11580, Note_on_c, 1, 73, 90
3, 11580, Note_on_c, 1, 81, 90
3, 11640, Note_on_c, 1, 73, 0
3, 11640, Note_on_c, 1, 71, 90
3, 11699, Note_on_c, 1, 81, 0
3, 11700, Note_on_c, 1, 79, 90
3, 11729, Note_on_c, 1, 79, 0
3, 11730, Note_on_c, 1, 78, 90
3, 11759, Note_on_c, 1, 78, 0
3, 11760, Note_on_c, 1, 79, 90
3, 11819, Note_on_c, 1, 79, 0
3, 11820, Note_on_c, 1, 71, 0
3, 11820, Note_on_c, 1, 71, 90
3, 11820, Note_on_c, 1, 79, 90
3, 11880, Note_on_c, 1, 71, 0
3, 11880, Note_on_c, 1, 69, 90
3, 11939, Note_on_c, 1, 79, 0
3, 11940, Note_on_c, 1, 78, 90
3, 11969, Note_on_c, 1, 78, 0
3, 11970, Note_on_c, 1, 76, 90
3, 11999, Note_on_c, 1, 76, 0
3, 12000, Note_on_c, 1, 78, 90
3, 12059, Note_on_c, 1, 78, 0
3, 12060, Note_on_c, 1, 76, 90
3, 12090, Note_on_c, 1, 76, 0
3, 12090, Note_on_c, 1, 74, 90
3, 12120, Note_on_c, 1, 74, 0
3, 12120, Note_on_c, 1, 69, 0
3, 12120, Note_on_c, 1, 78, 90
3, 12150, Note_on_c, 1, 78, 0
3, 12150, Note_on_c, 1, 76, 90
3, 12180, Note_on_c, 1, 76, 0
3, 12180, Note_on_c, 1, 74, 90
3, 12210, Note_on_c, 1, 74, 0
3, 12210, Note_on_c, 1, 73, 90
3, 12240, Note_on_c, 1, 73, 0
3, 12240, Note_on_c, 1, 66, 90
3, 12240, Note_on_c, 1, 69, 90
3, 12240, Note_on_c, 1, 74, 90
3, 12359, Note_on_c, 1, 74, 0
3, 12359, Note_on_c, 1, 69, 0
3, 12359, Note_on_c, 1, 66, 0
3, 12510, Note_on_c, 1, 66, 90
3, 12539, Note_on_c, 1, 66, 0
3, 12540, Note_on_c, 1, 68, 90
3, 12569, Note_on_c, 1, 68, 0
3, 12570, Note_on_c, 1, 70, 90
3, 12599, Note_on_c, 1, 70, 0
3, 12600, Note_on_c, 1, 71, 90
3, 12629, Note_on_c, 1, 71, 0
3, 12630, Note_on_c, 1, 73, 90
3, 12659, Note_on_c, 1, 73, 0
3, 12660, Note_on_c, 1, 74, 90
3, 12749, Note_on_c, 1, 74, 0
3, 12750, Note_on_c, 1, 73, 90
3, 12779, Note_on_c, 1, 73, 0
3, 12780, Note_on_c, 1, 71, 90
3, 12794, Note_on_c, 1, 71, 0
3, 12795, Note_on_c, 1, 73, 90
3, 12809, Note_on_c, 1, 73, 0
3, 12810, Note_on_c, 1, 74, 90
3, 12839, Note_on_c, 1, 74, 0
3, 12840, Note_on_c, 1, 68, 90
3, 12899, Note_on_c, 1, 68, 0
3, 12990, Note_on_c, 1, 68, 90
3, 13019, Note_on_c, 1, 68, 0
3, 13020, Note_on_c, 1, 69, 90
3, 13049, Note_on_c, 1, 69, 0
3, 13050, Note_on_c, 1, 71, 90
3, 13079, Note_on_c, 1, 71, 0
3, 13080, Note_on_c, 1, 73, 90
3, 13109, Note_on_c, 1, 73, 0
3, 13110, Note_on_c, 1, 74, 90
3, 13139, Note_on_c, 1, 74, 0
3, 13140, Note_on_c, 1, 76, 90
3, 13229, Note_on_c, 1, 76, 0
3, 13230, Note_on_c, 1, 74, 90
3, 13259, Note_on_c, 1, 74, 0
3, 13260, Note_on_c, 1, 73, 90
3, 13274, Note_on_c, 1, 73, 0
3, 13275, Note_on_c, 1, 74, 90
3, 13289, Note_on_c, 1, 74, 0
3, 13290, Note_on_c, 1, 76, 90
3, 13319, Note_on_c, 1, 76, 0
3, 13320, Note_on_c, 1, 69, 90
3, 13379, Note_on_c, 1, 69, 0
3, 13470, Note_on_c, 1, 69, 90
3, 13499, Note_on_c, 1, 69, 0
3, 13500, Note_on_c, 1, 71, 90
3, 13529, Note_on_c, 1, 71, 0
3, 13530, Note_on_c, 1, 73, 90
3, 13559, Note_on_c, 1, 73, 0
3, 13560, Note_on_c, 1, 74, 90
3, 13589, Note_on_c, 1, 74, 0
3, 13590, Note_on_c, 1, 78, 90
3, 13619, Note_on_c, 1, 78, 0
3, 13620, Note_on_c, 1, 80, 90
3, 13649, Note_on_c, 1, 80, 0
3, 13650, Note_on_c, 1, 81, 90
3, 13679, Note_on_c, 1, 81, 0
3, 13680, Note_on_c, 1, 83, 90
3, 13709, Note_on_c, 1, 83, 0
3, 13710, Note_on_c, 1, 81, 90
3, 13739, Note_on_c, 1, 81, 0
3, 13740, Note_on_c, 1, 80, 90
3, 13769, Note_on_c, 1, 80, 0
3, 13770, Note_on_c, 1, 81, 90
3, 13799, Note_on_c, 1, 81, 0
3, 13800, Note_on_c, 1, 83, 90
3, 13829, Note_on_c, 1, 83, 0
3, 13830, Note_on_c, 1, 80, 90
3, 13859, Note_on_c, 1, 80, 0
3, 13860, Note_on_c, 1, 76, 90
3, 13889, Note_on_c, 1, 76, 0
3, 13890, Note_on_c, 1, 80, 90
3, 13919, Note_on_c, 1, 80, 0
3, 13920, Note_on_c, 1, 81, 90
3, 14009, Note_on_c, 1, 81, 0
3, 14010, Note_on_c, 1, 83, 90
3, 14039, Note_on_c, 1, 83, 0
3, 14040, Note_on_c, 1, 80, 90
3, 14055, Note_on_c, 1, 80, 0
3, 14055, Note_on_c, 1, 81, 90
3, 14070, Note_on_c, 1, 81, 0
3, 14070, Note_on_c, 1, 80, 90
3, 14080, Note_on_c, 1, 80, 0
3, 14080, Note_on_c, 1, 81, 90
3, 14090, Note_on_c, 1, 81, 0
3, 14090, Note_on_c, 1, 80, 90
3, 14100, Note_on_c, 1, 80, 0
3, 14100, Note_on_c, 1, 81, 90
3, 14115, Note_on_c, 1, 81, 0
3, 14115, Note_on_c, 1, 80, 90
3, 14130, Note_on_c, 1, 80, 0
3, 14130, Note_on_c, 1, 81, 90
3, 14159, Note_on_c, 1, 81, 0
3, 14160, Note_on_c, 1, 81, 90
3, 14189, Note_on_c, 1, 81, 0
3, 14190, Note_on_c, 1, 76, 90
3, 14219, Note_on_c, 1, 76, 0
3, 14220, Note_on_c, 1, 73, 90
3, 14249, Note_on_c, 1, 73, 0
3, 14250, Note_on_c, 1, 69, 90
3, 14279, Note_on_c, 1, 69, 0
3, 14280, Note_on_c, 1, 79, 90
3, 14430, Note_on_c, 1, 79, 0
3, 14430, Note_on_c, 1, 76, 90
3, 14459, Note_on_c, 1, 76, 0
3, 14460, Note_on_c, 1, 73, 90
3, 14489, Note_on_c, 1, 73, 0
3, 14490, Note_on_c, 1, 69, 90
3, 14519, Note_on_c, 1, 69, 0
3, 14520, Note_on_c, 1, 78, 90
3, 14670, Note_on_c, 1, 78, 0
3, 14670, Note_on_c, 1, 74, 90
3, 14699, Note_on_c, 1, 74, 0
3, 14700, Note_on_c, 1, 71, 90
3, 14729, Note_on_c, 1, 71, 0
3, 14730, Note_on_c, 1, 68, 90
3, 14759, Note_on_c, 1, 68, 0
3, 14760, Note_on_c, 1, 76, 90
3, 14910, Note_on_c, 1, 76, 0
3, 14910, Note_on_c, 1, 73, 90
3, 14939, Note_on_c, 1, 73, 0
3, 14940, Note_on_c, 1, 69, 90
3, 14969, Note_on_c, 1, 69, 0
3, 14970, Note_on_c, 1, 66, 90
3, 14999, Note_on_c, 1, 66, 0
3, 15000, Note_on_c, 1, 74, 90
3, 15150, Note_on_c, 1, 74, 0
3, 15150, Note_on_c, 1, 71, 90
3, 15179, Note_on_c, 1, 71, 0
3, 15180, Note_on_c, 1, 68, 90
3, 15209, Note_on_c, 1, 68, 0
3, 15210, Note_on_c, 1, 64, 90
3, 15239, Note_on_c, 1, 64, 0
3, 15240, Note_on_c, 1, 76, 90
3, 15269, Note_on_c, 1, 76, 0
3, 15270, Note_on_c, 1, 74, 90
3, 15299, Note_on_c, 1, 74, 0
3, 15300, Note_on_c, 1, 72, 90
3, 15329, Note_on_c, 1, 72, 0
3, 15330, Note_on_c, 1, 71, 90
3, 15359, Note_on_c, 1, 71, 0
3, 15360, Note_on_c, 1, 72, 90
3, 15389, Note_on_c, 1, 72, 0
3, 15390, Note_on_c, 1, 74, 90
3, 15419, Note_on_c, 1, 74, 0
3, 15420, Note_on_c, 1, 76, 90
3, 15539, Note_on_c, 1, 76, 0
3, 15540, Note_on_c, 1, 74, 90
3, 15569, Note_on_c, 1, 74, 0
3, 15570, Note_on_c, 1, 72, 90
3, 15599, Note_on_c, 1, 72, 0
3, 15600, Note_on_c, 1, 71, 90
3, 15629, Note_on_c, 1, 71, 0
3, 15630, Note_on_c, 1, 72, 90
3, 15659, Note_on_c, 1, 72, 0
3, 15660, Note_on_c, 1, 74, 90
3, 15779, Note_on_c, 1, 74, 0
3, 15780, Note_on_c, 1, 73, 90
3, 15809, Note_on_c, 1, 73, 0
3, 15810, Note_on_c, 1, 71, 90
3, 15839, Note_on_c, 1, 71, 0
3, 15840, Note_on_c, 1, 74, 90
3, 15869, Note_on_c, 1, 74, 0
3, 15870, Note_on_c, 1, 73, 90
3, 15899, Note_on_c, 1, 73, 0
3, 15900, Note_on_c, 1, 71, 90
3, 15929, Note_on_c, 1, 71, 0
3, 15930, Note_on_c, 1, 69, 90
3, 15959, Note_on_c, 1, 69, 0
3, 15960, Note_on_c, 1, 64, 90
3, 16019, Note_on_c, 1, 64, 0
3, 16020, Note_on_c, 1, 68, 90
3, 16020, Note_on_c, 1, 62, 90
3, 16079, Note_on_c, 1, 62, 0
3, 16079, Note_on_c, 1, 68, 0
3, 16080, Note_on_c, 1, 64, 90
3, 16080, Note_on_c, 1, 61, 90
3, 16080, Note_on_c, 1, 69, 90
3, 16319, Note_on_c, 1, 69, 0
3, 16319, Note_on_c, 1, 61, 0
3, 16319, Note_on_c, 1, 64, 0
3, 16320, Note_on_c, 1, 78, 90
3, 16349, Note_on_c, 1, 78, 0
3, 16350, Note_on_c, 1, 79, 90
3, 16379, Note_on_c, 1, 79, 0
3, 16380, Note_on_c, 1, 81, 90
3, 16499, Note_on_c, 1, 81, 0
3, 16500, Note_on_c, 1, 79, 90
3, 16529, Note_on_c, 1, 79, 0
3, 16530, Note_on_c, 1, 78, 90
3, 16559, Note_on_c, 1, 78, 0
3, 16560, Note_on_c, 1, 76, 90
3, 16589, Note_on_c, 1, 76, 0
3, 16590, Note_on_c, 1, 78, 90
3, 16619, Note_on_c, 1, 78, 0
3, 16620, Note_on_c, 1, 79, 90
3, 16739, Note_on_c, 1, 79, 0
3, 16740, Note_on_c, 1, 78, 90
3, 16769, Note_on_c, 1, 78, 0
3, 16770, Note_on_c, 1, 76, 90
3, 16799, Note_on_c, 1, 76, 0
3, 16800, Note_on_c, 1, 78, 90
3, 16859, Note_on_c, 1, 78, 0
3, 16860, Note_on_c, 1, 74, 90
3, 16919, Note_on_c, 1, 74, 0
3, 16920, Note_on_c, 1, 73, 90
3, 16935, Note_on_c, 1, 73, 0
3, 16935, Note_on_c, 1, 74, 90
3, 16950, Note_on_c, 1, 74, 0
3, 16950, Note_on_c, 1, 73, 90
3, 16979, Note_on_c, 1, 73, 0
3, 16980, Note_on_c, 1, 74, 90
3, 17039, Note_on_c, 1, 74, 0
3, 17040, Note_on_c, 1, 76, 90
3, 17069, Note_on_c, 1, 76, 0
3, 17070, Note_on_c, 1, 74, 90
3, 17099, Note_on_c, 1, 74, 0
3, 17100, Note_on_c, 1, 73, 90
3, 17129, Note_on_c, 1, 73, 0
3, 17130, Note_on_c, 1, 71, 90
3, 17159, Note_on_c, 1, 71, 0
3, 17160, Note_on_c, 1, 69, 90
3, 17189, Note_on_c, 1, 69, 0
3, 17190, Note_on_c, 1, 67, 90
3, 17219, Note_on_c, 1, 67, 0
3, 17220, Note_on_c, 1, 66, 90
3, 17249, Note_on_c, 1, 66, 0
3, 17250, Note_on_c, 1, 64, 90
3, 17279, Note_on_c, 1, 64, 0
3, 17280, Note_on_c, 1, 62, 90
3, 17309, Note_on_c, 1, 62, 0
3, 17310, Note_on_c, 1, 64, 90
3, 17339, Note_on_c, 1, 64, 0
3, 17340, Note_on_c, 1, 66, 90
3, 17369, Note_on_c, 1, 66, 0
3, 17370, Note_on_c, 1, 64, 90
3, 17399, Note_on_c, 1, 64, 0
3, 17400, Note_on_c, 1, 62, 90
3, 17429, Note_on_c, 1, 62, 0
3, 17430, Note_on_c, 1, 66, 90
3, 17459, Note_on_c, 1, 66, 0
3, 17460, Note_on_c, 1, 69, 90
3, 17489, Note_on_c, 1, 69, 0
3, 17490, Note_on_c, 1, 74, 90
3, 17519, Note_on_c, 1, 74, 0
3, 17520, Note_on_c, 1, 73, 90
3, 17549, Note_on_c, 1, 73, 0
3, 17550, Note_on_c, 1, 74, 90
3, 17579, Note_on_c, 1, 74, 0
3, 17580, Note_on_c, 1, 76, 90
3, 17609, Note_on_c, 1, 76, 0
3, 17610, Note_on_c, 1, 74, 90
3, 17639, Note_on_c, 1, 74, 0
3, 17640, Note_on_c, 1, 73, 90
3, 17669, Note_on_c, 1, 73, 0
3, 17670, Note_on_c, 1, 76, 90
3, 17699, Note_on_c, 1, 76, 0
3, 17700, Note_on_c, 1, 69, 90
3, 17729, Note_on_c, 1, 69, 0
3, 17730, Note_on_c, 1, 73, 90
3, 17759, Note_on_c, 1, 73, 0
3, 17760, Note_on_c, 1, 74, 90
3, 17789, Note_on_c, 1, 74, 0
3, 17790, Note_on_c, 1, 69, 90
3, 17819, Note_on_c, 1, 69, 0
3, 17820, Note_on_c, 1, 78, 90
3, 17849, Note_on_c, 1, 78, 0
3, 17850, Note_on_c, 1, 69, 90
3, 17879, Note_on_c, 1, 69, 0
3, 17880, Note_on_c, 1, 76, 90
3, 17909, Note_on_c, 1, 76, 0
3, 17910, Note_on_c, 1, 69, 90
3, 17939, Note_on_c, 1, 69, 0
3, 17940, Note_on_c, 1, 74, 90
3, 17969, Note_on_c, 1, 74, 0
3, 17970, Note_on_c, 1, 69, 90
3, 17999, Note_on_c, 1, 69, 0
3, 18000, Note_on_c, 1, 73, 90
3, 18029, Note_on_c, 1, 73, 0
3, 18030, Note_on_c, 1, 74, 90
3, 18059, Note_on_c, 1, 74, 0
3, 18060, Note_on_c, 1, 76, 90
3, 18089, Note_on_c, 1, 76, 0
3, 18090, Note_on_c, 1, 74, 90
3, 18119, Note_on_c, 1, 74, 0
3, 18120, Note_on_c, 1, 73, 90
3, 18149, Note_on_c, 1, 73, 0
3, 18150, Note_on_c, 1, 71, 90
3, 18179, Note_on_c, 1, 71, 0
3, 18180, Note_on_c, 1, 69, 90
3, 18209, Note_on_c, 1, 69, 0
3, 18210, Note_on_c, 1, 67, 90
3, 18239, Note_on_c, 1, 67, 0
3, 18240, Note_on_c, 1, 66, 90
3, 18269, Note_on_c, 1, 66, 0
3, 18270, Note_on_c, 1, 67, 90
3, 18299, Note_on_c, 1, 67, 0
3, 18300, Note_on_c, 1, 69, 90
3, 18329, Note_on_c, 1, 69, 0
3, 18330, Note_on_c, 1, 66, 90
3, 18359, Note_on_c, 1, 66, 0
3, 18360, Note_on_c, 1, 62, 90
3, 18389, Note_on_c, 1, 62, 0
3, 18390, Note_on_c, 1, 66, 90
3, 18419, Note_on_c, 1, 66, 0
3, 18420, Note_on_c, 1, 69, 90
3, 18449, Note_on_c, 1, 69, 0
3, 18450, Note_on_c, 1, 72, 90
3, 18479, Note_on_c, 1, 72, 0
3, 18480, Note_on_c, 1, 71, 90
3, 18509, Note_on_c, 1, 71, 0
3, 18510, Note_on_c, 1, 72, 90
3, 18539, Note_on_c, 1, 72, 0
3, 18540, Note_on_c, 1, 74, 90
3, 18569, Note_on_c, 1, 74, 0
3, 18570, Note_on_c, 1, 71, 90
3, 18599, Note_on_c, 1, 71, 0
3, 18600, Note_on_c, 1, 67, 90
3, 18659, Note_on_c, 1, 67, 0
3, 18660, Note_on_c, 1, 62, 90
3, 18719, Note_on_c, 1, 62, 0
3, 18720, Note_on_c, 1, 67, 90
3, 18749, Note_on_c, 1, 67, 0
3, 18750, Note_on_c, 1, 69, 90
3, 18779, Note_on_c, 1, 69, 0
3, 18780, Note_on_c, 1, 71, 90
3, 18809, Note_on_c, 1, 71, 0
3, 18810, Note_on_c, 1, 67, 90
3, 18839, Note_on_c, 1, 67, 0
3, 18840, Note_on_c, 1, 64, 90
3, 18869, Note_on_c, 1, 64, 0
3, 18870, Note_on_c, 1, 67, 90
3, 18899, Note_on_c, 1, 67, 0
3, 18900, Note_on_c, 1, 71, 90
3, 18929, Note_on_c, 1, 71, 0
3, 18930, Note_on_c, 1, 74, 90
3, 18959, Note_on_c, 1, 74, 0
3, 18960, Note_on_c, 1, 73, 90
3, 18989, Note_on_c, 1, 73, 0
3, 18990, Note_on_c, 1, 74, 90
3, 19019, Note_on_c, 1, 74, 0
3, 19020, Note_on_c, 1, 76, 90
3, 19049, Note_on_c, 1, 76, 0
3, 19050, Note_on_c, 1, 73, 90
3, 19079, Note_on_c, 1, 73, 0
3, 19080, Note_on_c, 1, 69, 90
3, 19139, Note_on_c, 1, 69, 0
3, 19140, Note_on_c, 1, 76, 90
3, 19199, Note_on_c, 1, 76, 0
3, 19200, Note_on_c, 1, 81, 90
3, 19259, Note_on_c, 1, 81, 0
3, 19260, Note_on_c, 1, 73, 90
3, 19260, Note_on_c, 1, 81, 90
3, 19320, Note_on_c, 1, 73, 0
3, 19320, Note_on_c, 1, 71, 90
3, 19379, Note_on_c, 1, 81, 0
3, 19380, Note_on_c, 1, 79, 90
3, 19409, Note_on_c, 1, 79, 0
3, 19410, Note_on_c, 1, 78, 90
3, 19439, Note_on_c, 1, 78, 0
3, 19440, Note_on_c, 1, 79, 90
3, 19499, Note_on_c, 1, 79, 0
3, 19500, Note_on_c, 1, 71, 0
3, 19500, Note_on_c, 1, 71, 90
3, 19500, Note_on_c, 1, 79, 90
3, 19560, Note_on_c, 1, 71, 0
3, 19560, Note_on_c, 1, 69, 90
3, 19619, Note_on_c, 1, 79, 0
3, 19620, Note_on_c, 1, 78, 90
3, 19649, Note_on_c, 1, 78, 0
3, 19650, Note_on_c, 1, 76, 90
3, 19679, Note_on_c, 1, 76, 0
3, 19680, Note_on_c, 1, 78, 90
3, 19739, Note_on_c, 1, 78, 0
3, 19740, Note_on_c, 1, 76, 90
3, 19770, Note_on_c, 1, 76, 0
3, 19770, Note_on_c, 1, 74, 90
3, 19800, Note_on_c, 1, 74, 0
3, 19800, Note_on_c, 1, 69, 0
3, 19800, Note_on_c, 1, 78, 90
3, 19830, Note_on_c, 1, 78, 0
3, 19830, Note_on_c, 1, 76, 90
3, 19860, Note_on_c, 1, 76, 0
3, 19860, Note_on_c, 1, 74, 90
3, 19890, Note_on_c, 1, 74, 0
3, 19890, Note_on_c, 1, 73, 90
3, 19920, Note_on_c, 1, 73, 0
3, 19920, Note_on_c, 1, 66, 90
3, 19920, Note_on_c, 1, 69, 90
3, 19920, Note_on_c, 1, 74, 90
3, 20039, Note_on_c, 1, 74, 0
3, 20039, Note_on_c, 1, 69, 0
3, 20039, Note_on_c, 1, 66, 0
3, 20190, Note_on_c, 1, 66, 90
3, 20219, Note_on_c, 1, 66, 0
3, 20220, Note_on_c, 1, 68, 90
3, 20249, Note_on_c, 1, 68, 0
3, 20250, Note_on_c, 1, 70, 90
3, 20279, Note_on_c, 1, 70, 0
3, 20280, Note_on_c, 1, 71, 90
3, 20309, Note_on_c, 1, 71, 0
3, 20310, Note_on_c, 1, 73, 90
3, 20339, Note_on_c, 1, 73, 0
3, 20340, Note_on_c, 1, 74, 90
3, 20429, Note_on_c, 1, 74, 0
3, 20430, Note_on_c, 1, 73, 90
3, 20459, Note_on_c, 1, 73, 0
3, 20460, Note_on_c, 1, 71, 90
3, 20474, Note_on_c, 1, 71, 0
3, 20475, Note_on_c, 1, 73, 90
3, 20489, Note_on_c, 1, 73, 0
3, 20490, Note_on_c, 1, 74, 90
3, 20519, Note_on_c, 1, 74, 0
3, 20520, Note_on_c, 1, 68, 90
3, 20579, Note_on_c, 1, 68, 0
3, 20670, Note_on_c, 1, 68, 90
3, 20699, Note_on_c, 1, 68, 0
3, 20700, Note_on_c, 1, 69, 90
3, 20729, Note_on_c, 1, 69, 0
3, 20730, Note_on_c, 1, 71, 90
3, 20759, Note_on_c, 1, 71, 0
3, 20760, Note_on_c, 1, 73, 90
3, 20789, Note_on_c, 1, 73, 0
3, 20790, Note_on_c, 1, 74, 90
3, 20819, Note_on_c, 1, 74, 0
3, 20820, Note_on_c, 1, 76, 90
3, 20909, Note_on_c, 1, 76, 0
3, 20910, Note_on_c, 1, 74, 90
3, 20939, Note_on_c, 1, 74, 0
3, 20940, Note_on_c, 1, 73, 90
3, 20954, Note_on_c, 1, 73, 0
3, 20955, Note_on_c, 1, 74, 90
3, 20969, Note_on_c, 1, 74, 0
3, 20970, Note_on_c, 1, 76, 90
3, 20999, Note_on_c, 1, 76, 0
3, 21000, Note_on_c, 1, 69, 90
3, 21059, Note_on_c, 1, 69, 0
3, 21150, Note_on_c, 1, 69, 90
3, 21179, Note_on_c, 1, 69, 0
3, 21180, Note_on_c, 1, 71, 90
3, 21209, Note_on_c, 1, 71, 0
3, 21210, Note_on_c, 1, 73, 90
3, 21239, Note_on_c, 1, 73, 0
3, 21240, Note_on_c, 1, 74, 90
3, 21269, Note_on_c, 1, 74, 0
3, 21270, Note_on_c, 1, 78, 90
3, 21299, Note_on_c, 1, 78, 0
3, 21300, Note_on_c, 1, 80, 90
3, 21329, Note_on_c, 1, 80, 0
3, 21330, Note_on_c, 1, 81, 90
3, 21359, Note_on_c, 1, 81, 0
3, 21360, Note_on_c, 1, 83, 90
3, 21389, Note_on_c, 1, 83, 0
3, 21390, Note_on_c, 1, 81, 90
3, 21419, Note_on_c, 1, 81, 0
3, 21420, Note_on_c, 1, 80, 90
3, 21449, Note_on_c, 1, 80, 0
3, 21450, Note_on_c, 1, 81, 90
3, 21479, Note_on_c, 1, 81, 0
3, 21480, Note_on_c, 1, 83, 90
3, 21509, Note_on_c, 1, 83, 0
3, 21510, Note_on_c, 1, 80, 90
3, 21539, Note_on_c, 1, 80, 0
3, 21540, Note_on_c, 1, 76, 90
3, 21569, Note_on_c, 1, 76, 0
3, 21570, Note_on_c, 1, 80, 90
3, 21599, Note_on_c, 1, 80, 0
3, 21600, Note_on_c, 1, 81, 90
3, 21689, Note_on_c, 1, 81, 0
3, 21690, Note_on_c, 1, 83, 90
3, 21719, Note_on_c, 1, 83, 0
3, 21720, Note_on_c, 1, 80, 90
3, 21735, Note_on_c, 1, 80, 0
3, 21735, Note_on_c, 1, 81, 90
3, 21750, Note_on_c, 1, 81, 0
3, 21750, Note_on_c, 1, 80, 90
3, 21760, Note_on_c, 1, 80, 0
3, 21760, Note_on_c, 1, 81, 90
3, 21770, Note_on_c, 1, 81, 0
3, 21770, Note_on_c, 1, 80, 90
3, 21780, Note_on_c, 1, 80, 0
3, 21780, Note_on_c, 1, 81, 90
3, 21795, Note_on_c, 1, 81, 0
3, 21795, Note_on_c, 1, 80, 90
3, 21810, Note_on_c, 1, 80, 0
3, 21810, Note_on_c, 1, 81, 90
3, 21839, Note_on_c, 1, 81, 0
3, 21840, Note_on_c, 1, 81, 90
3, 21869, Note_on_c, 1, 81, 0
3, 21870, Note_on_c, 1, 76, 90
3, 21899, Note_on_c, 1, 76, 0
3, 21900, Note_on_c, 1, 73, 90
3, 21929, Note_on_c, 1, 73, 0
3, 21930, Note_on_c, 1, 69, 90
3, 21959, Note_on_c, 1, 69, 0
3, 21960, Note_on_c, 1, 79, 90
3, 22110, Note_on_c, 1, 79, 0
3, 22110, Note_on_c, 1, 76, 90
3, 22139, Note_on_c, 1, 76, 0
3, 22140, Note_on_c, 1, 73, 90
3, 22169, Note_on_c, 1, 73, 0
3, 22170, Note_on_c, 1, 69, 90
3, 22199, Note_on_c, 1, 69, 0
3, 22200, Note_on_c, 1, 78, 90
3, 22350, Note_on_c, 1, 78, 0
3, 22350, Note_on_c, 1, 74, 90
3, 22379, Note_on_c, 1, 74, 0
3, 22380, Note_on_c, 1, 71, 90
3, 22409, Note_on_c, 1, 71, 0
3, 22410, Note_on_c, 1, 68, 90
3, 22439, Note_on_c, 1, 68, 0
3, 22440, Note_on_c, 1, 76, 90
3, 22590, Note_on_c, 1, 76, 0
3, 22590, Note_on_c, 1, 73, 90
3, 22619, Note_on_c, 1, 73, 0
3, 22620, Note_on_c, 1, 69, 90
3, 22649, Note_on_c, 1, 69, 0
3, 22650, Note_on_c, 1, 66, 90
3, 22679, Note_on_c, 1, 66, 0
3, 22680, Note_on_c, 1, 74, 90
3, 22830, Note_on_c, 1, 74, 0
3, 22830, Note_on_c, 1, 71, 90
3, 22859, Note_on_c, 1, 71, 0
3, 22860, Note_on_c, 1, 68, 90
3, 22889, Note_on_c, 1, 68, 0
3, 22890, Note_on_c, 1, 64, 90
3, 22919, Note_on_c, 1, 64, 0
3, 22920, Note_on_c, 1, 76, 90
3, 22949, Note_on_c, 1, 76, 0
3, 22950, Note_on_c, 1, 74, 90
3, 22979, Note_on_c, 1, 74, 0
3, 22980, Note_on_c, 1, 72, 90
3, 23009, Note_on_c, 1, 72, 0
3, 23010, Note_on_c, 1, 71, 90
3, 23039, Note_on_c, 1, 71, 0
3, 23040, Note_on_c, 1, 72, 90
3, 23069, Note_on_c, 1, 72, 0
3, 23070, Note_on_c, 1, 74, 90
3, 23099, Note_on_c, 1, 74, 0
3, 23100, Note_on_c, 1, 76, 90
3, 23219, Note_on_c, 1, 76, 0
3, 23220, Note_on_c, 1, 74, 90
3, 23249, Note_on_c, 1, 74, 0
3, 23250, Note_on_c, 1, 72, 90
3, 23279, Note_on_c, 1, 72, 0
3, 23280, Note_on_c, 1, 71, 90
3, 23309, Note_on_c, 1, 71, 0
3, 23310, Note_on_c, 1, 72, 90
3, 23339, Note_on_c, 1, 72, 0
3, 23340, Note_on_c, 1, 74, 90
3, 23459, Note_on_c, 1, 74, 0
3, 23460, Note_on_c, 1, 73, 90
3, 23489, Note_on_c, 1, 73, 0
3, 23490, Note_on_c, 1, 71, 90
3, 23519, Note_on_c, 1, 71, 0
3, 23520, Note_on_c, 1, 74, 90
3, 23549, Note_on_c, 1, 74, 0
3, 23550, Note_on_c, 1, 73, 90
3, 23579, Note_on_c, 1, 73, 0
3, 23580, Note_on_c, 1, 71, 90
3, 23609, Note_on_c, 1, 71, 0
3, 23610, Note_on_c, 1, 69, 90
3, 23639, Note_on_c, 1, 69, 0
3, 23640, Note_on_c, 1, 64, 90
3, 23699, Note_on_c, 1, 64, 0
3, 23700, Note_on_c, 1, 68, 90
3, 23700, Note_on_c, 1, 62, 90
3, 23759, Note_on_c, 1, 62, 0
3, 23759, Note_on_c, 1, 68, 0
3, 23760, Note_on_c, 1, 64, 90
3, 23760, Note_on_c, 1, 61, 90
3, 23760, Note_on_c, 1, 69, 90
3, 23999, Note_on_c, 1, 69, 0
3, 23999, Note_on_c, 1, 61, 0
3, 23999, Note_on_c, 1, 64, 0
3, 24000, Note_on_c, 1, 76, 90
3, 24029, Note_on_c, 1, 76, 0
3, 24030, Note_on_c, 1, 78, 90
3, 24059, Note_on_c, 1, 78, 0
3, 24060, Note_on_c, 1, 79, 90
3, 24179, Note_on_c, 1, 79, 0
3, 24180, Note_on_c, 1, 78, 90
3, 24209, Note_on_c, 1, 78, 0
3, 24210, Note_on_c, 1, 76, 90
3, 24239, Note_on_c, 1, 76, 0
3, 24240, Note_on_c, 1, 74, 90
3, 24269, Note_on_c, 1, 74, 0
3, 24270, Note_on_c, 1, 73, 90
3, 24299, Note_on_c, 1, 73, 0
3, 24300, Note_on_c, 1, 71, 90
3, 24329, Note_on_c, 1, 71, 0
3, 24330, Note_on_c, 1, 69, 90
3, 24359, Note_on_c, 1, 69, 0
3, 24360, Note_on_c, 1, 71, 90
3, 24389, Note_on_c, 1, 71, 0
3, 24390, Note_on_c, 1, 73, 90
3, 24419, Note_on_c, 1, 73, 0
3, 24420, Note_on_c, 1, 74, 90
3, 24449, Note_on_c, 1, 74, 0
3, 24450, Note_on_c, 1, 76, 90
3, 24479, Note_on_c, 1, 76, 0
3, 24480, Note_on_c, 1, 78, 90
3, 24509, Note_on_c, 1, 78, 0
3, 24510, Note_on_c, 1, 79, 90
3, 24539, Note_on_c, 1, 79, 0
3, 24540, Note_on_c, 1, 81, 90
3, 24569, Note_on_c, 1, 81, 0
3, 24570, Note_on_c, 1, 83, 90
3, 24599, Note_on_c, 1, 83, 0
3, 24600, Note_on_c, 1, 81, 90
3, 24629, Note_on_c, 1, 81, 0
3, 24630, Note_on_c, 1, 79, 90
3, 24659, Note_on_c, 1, 79, 0
3, 24660, Note_on_c, 1, 78, 90
3, 24689, Note_on_c, 1, 78, 0
3, 24690, Note_on_c, 1, 76, 90
3, 24719, Note_on_c, 1, 76, 0
3, 24720, Note_on_c, 1, 79, 90
3, 24749, Note_on_c, 1, 79, 0
3, 24750, Note_on_c, 1, 78, 90
3, 24779, Note_on_c, 1, 78, 0
3, 24780, Note_on_c, 1, 76, 90
3, 24809, Note_on_c, 1, 76, 0
3, 24810, Note_on_c, 1, 78, 90
3, 24839, Note_on_c, 1, 78, 0
3, 24840, Note_on_c, 1, 74, 90
3, 24869, Note_on_c, 1, 74, 0
3, 24870, Note_on_c, 1, 78, 90
3, 24899, Note_on_c, 1, 78, 0
3, 24900, Note_on_c, 1, 76, 90
3, 24929, Note_on_c, 1, 76, 0
3, 24930, Note_on_c, 1, 79, 90
3, 24959, Note_on_c, 1, 79, 0
3, 24960, Note_on_c, 1, 78, 90
3, 24989, Note_on_c, 1, 78, 0
3, 24990, Note_on_c, 1, 79, 90
3, 25019, Note_on_c, 1, 79, 0
3, 25020, Note_on_c, 1, 81, 90
3, 25049, Note_on_c, 1, 81, 0
3, 25050, Note_on_c, 1, 78, 90
3, 25079, Note_on_c, 1, 78, 0
3, 25080, Note_on_c, 1, 74, 90
3, 25109, Note_on_c, 1, 74, 0
3, 25110, Note_on_c, 1, 76, 90
3, 25139, Note_on_c, 1, 76, 0
3, 25140, Note_on_c, 1, 78, 90
3, 25169, Note_on_c, 1, 78, 0
3, 25170, Note_on_c, 1, 74, 90
3, 25199, Note_on_c, 1, 74, 0
3, 25200, Note_on_c, 1, 69, 90
3, 25229, Note_on_c, 1, 69, 0
3, 25230, Note_on_c, 1, 71, 90
3, 25259, Note_on_c, 1, 71, 0
3, 25260, Note_on_c, 1, 72, 90
3, 25289, Note_on_c, 1, 72, 0
3, 25290, Note_on_c, 1, 71, 90
3, 25319, Note_on_c, 1, 71, 0
3, 25320, Note_on_c, 1, 72, 90
3, 25349, Note_on_c, 1, 72, 0
3, 25350, Note_on_c, 1, 76, 90
3, 25379, Note_on_c, 1, 76, 0
3, 25380, Note_on_c, 1, 74, 90
3, 25409, Note_on_c, 1, 74, 0
3, 25410, Note_on_c, 1, 72, 90
3, 25439, Note_on_c, 1, 72, 0
3, 25440, Note_on_c, 1, 71, 90
3, 25499, Note_on_c, 1, 71, 0
3, 25500, Note_on_c, 1, 79, 90
3, 25559, Note_on_c, 1, 79, 0
3, 25560, Note_on_c, 1, 69, 90
3, 25619, Note_on_c, 1, 69, 0
3, 25620, Note_on_c, 1, 79, 90
3, 25634, Note_on_c, 1, 79, 0
3, 25635, Note_on_c, 1, 78, 90
3, 25649, Note_on_c, 1, 78, 0
3, 25650, Note_on_c, 1, 76, 90
3, 25664, Note_on_c, 1, 76, 0
3, 25665, Note_on_c, 1, 78, 90
3, 25679, Note_on_c, 1, 78, 0
3, 25680, Note_on_c, 1, 79, 90
3, 25739, Note_on_c, 1, 79, 0
3, 25740, Note_on_c, 1, 74, 90
3, 25799, Note_on_c, 1, 74, 0
3, 25800, Note_on_c, 1, 79, 90
3, 25859, Note_on_c, 1, 79, 0
3, 25860, Note_on_c, 1, 83, 90
3, 25949, Note_on_c, 1, 83, 0
3, 25950, Note_on_c, 1, 81, 90
3, 25979, Note_on_c, 1, 81, 0
3, 25980, Note_on_c, 1, 79, 90
3, 26009, Note_on_c, 1, 79, 0
3, 26010, Note_on_c, 1, 78, 90
3, 26039, Note_on_c, 1, 78, 0
3, 26040, Note_on_c, 1, 76, 90
3, 26069, Note_on_c, 1, 76, 0
3, 26070, Note_on_c, 1, 78, 90
3, 26099, Note_on_c, 1, 78, 0
3, 26100, Note_on_c, 1, 79, 90
3, 26129, Note_on_c, 1, 79, 0
3, 26130, Note_on_c, 1, 83, 90
3, 26159, Note_on_c, 1, 83, 0
3, 26160, Note_on_c, 1, 81, 90
3, 26219, Note_on_c, 1, 81, 0
3, 26220, Note_on_c, 1, 75, 90
3, 26279, Note_on_c, 1, 75, 0
3, 26280, Note_on_c, 1, 78, 90
3, 26339, Note_on_c, 1, 78, 0
3, 26340, Note_on_c, 1, 81, 90
3, 26429, Note_on_c, 1, 81, 0
3, 26430, Note_on_c, 1, 79, 90
3, 26459, Note_on_c, 1, 79, 0
3, 26460, Note_on_c, 1, 78, 90
3, 26489, Note_on_c, 1, 78, 0
3, 26490, Note_on_c, 1, 76, 90
3, 26519, Note_on_c, 1, 76, 0
3, 26520, Note_on_c, 1, 75, 90
3, 26549, Note_on_c, 1, 75, 0
3, 26550, Note_on_c, 1, 76, 90
3, 26579, Note_on_c, 1, 76, 0
3, 26580, Note_on_c, 1, 78, 90
3, 26609, Note_on_c, 1, 78, 0
3, 26610, Note_on_c, 1, 81, 90
3, 26639, Note_on_c, 1, 81, 0
3, 26640, Note_on_c, 1, 79, 90
3, 26669, Note_on_c, 1, 79, 0
3, 26670, Note_on_c, 1, 78, 90
3, 26699, Note_on_c, 1, 78, 0
3, 26700, Note_on_c, 1, 76, 90
3, 26729, Note_on_c, 1, 76, 0
3, 26730, Note_on_c, 1, 75, 90
3, 26759, Note_on_c, 1, 75, 0
3, 26760, Note_on_c, 1, 76, 90
3, 26819, Note_on_c, 1, 76, 0
3, 26820, Note_on_c, 1, 71, 90
3, 26879, Note_on_c, 1, 71, 0
3, 26880, Note_on_c, 1, 76, 90
3, 26909, Note_on_c, 1, 76, 0
3, 26910, Note_on_c, 1, 78, 90
3, 26939, Note_on_c, 1, 78, 0
3, 26940, Note_on_c, 1, 79, 90
3, 27059, Note_on_c, 1, 79, 0
3, 27060, Note_on_c, 1, 78, 90
3, 27089, Note_on_c, 1, 78, 0
3, 27090, Note_on_c, 1, 76, 90
3, 27119, Note_on_c, 1, 76, 0
3, 27120, Note_on_c, 1, 74, 90
3, 27149, Note_on_c, 1, 74, 0
3, 27150, Note_on_c, 1, 76, 90
3, 27179, Note_on_c, 1, 76, 0
3, 27180, Note_on_c, 1, 78, 90
3, 27269, Note_on_c, 1, 78, 0
3, 27270, Note_on_c, 1, 74, 90
3, 27299, Note_on_c, 1, 74, 0
3, 27300, Note_on_c, 1, 73, 90
3, 27329, Note_on_c, 1, 73, 0
3, 27330, Note_on_c, 1, 71, 90
3, 27359, Note_on_c, 1, 71, 0
3, 27360, Note_on_c, 1, 70, 90
3, 27389, Note_on_c, 1, 70, 0
3, 27390, Note_on_c, 1, 79, 90
3, 27419, Note_on_c, 1, 79, 0
3, 27420, Note_on_c, 1, 78, 90
3, 27449, Note_on_c, 1, 78, 0
3, 27450, Note_on_c, 1, 76, 90
3, 27479, Note_on_c, 1, 76, 0
3, 27480, Note_on_c, 1, 74, 90
3, 27539, Note_on_c, 1, 74, 0
3, 27540, Note_on_c, 1, 73, 90
3, 27569, Note_on_c, 1, 73, 0
3, 27570, Note_on_c, 1, 71, 90
3, 27599, Note_on_c, 1, 71, 0
3, 27600, Note_on_c, 1, 62, 90
3, 27600, Note_on_c, 1, 71, 90
3, 27629, Note_on_c, 1, 71, 0
3, 27630, Note_on_c, 1, 66, 90
3, 27659, Note_on_c, 1, 66, 0
3, 27659, Note_on_c, 1, 62, 0
3, 27660, Note_on_c, 1, 62, 90
3, 27660, Note_on_c, 1, 71, 90
3, 27689, Note_on_c, 1, 71, 0
3, 27689, Note_on_c, 1, 62, 0
3, 27690, Note_on_c, 1, 64, 90
3, 27690, Note_on_c, 1, 73, 90
3, 27719, Note_on_c, 1, 73, 0
3, 27719, Note_on_c, 1, 64, 0
3, 27720, Note_on_c, 1, 66, 90
3, 27720, Note_on_c, 1, 74, 90
3, 27779, Note_on_c, 1, 74, 0
3, 27779, Note_on_c, 1, 66, 0
3, 27870, Note_on_c, 1, 74, 90
3, 27899, Note_on_c, 1, 74, 0
3, 27900, Note_on_c, 1, 71, 90
3, 27929, Note_on_c, 1, 71, 0
3, 27930, Note_on_c, 1, 73, 90
3, 27959, Note_on_c, 1, 73, 0
3, 27960, Note_on_c, 1, 74, 90
3, 27989, Note_on_c, 1, 74, 0
3, 27990, Note_on_c, 1, 78, 90
3, 28019, Note_on_c, 1, 78, 0
3, 28020, Note_on_c, 1, 76, 90
3, 28049, Note_on_c, 1, 76, 0
3, 28050, Note_on_c, 1, 74, 90
3, 28079, Note_on_c, 1, 74, 0
3, 28080, Note_on_c, 1, 73, 90
3, 28109, Note_on_c, 1, 73, 0
3, 28110, Note_on_c, 1, 71, 90
3, 28139, Note_on_c, 1, 71, 0
3, 28140, Note_on_c, 1, 73, 90
3, 28169, Note_on_c, 1, 73, 0
3, 28170, Note_on_c, 1, 74, 90
3, 28199, Note_on_c, 1, 74, 0
3, 28200, Note_on_c, 1, 73, 90
3, 28229, Note_on_c, 1, 73, 0
3, 28230, Note_on_c, 1, 71, 90
3, 28259, Note_on_c, 1, 71, 0
3, 28260, Note_on_c, 1, 69, 90
3, 28289, Note_on_c, 1, 69, 0
3, 28290, Note_on_c, 1, 68, 90
3, 28319, Note_on_c, 1, 68, 0
3, 28320, Note_on_c, 1, 69, 90
3, 28320, Note_on_c, 1, 73, 90
3, 28320, Note_on_c, 1, 76, 90
3, 28349, Note_on_c, 1, 76, 0
3, 28350, Note_on_c, 1, 78, 90
3, 28379, Note_on_c, 1, 78, 0
3, 28380, Note_on_c, 1, 73, 0
3, 28380, Note_on_c, 1, 69, 0
3, 28380, Note_on_c, 1, 79, 90
3, 28380, Note_on_c, 1, 76, 90
3, 28380, Note_on_c, 1, 73, 90
3, 28380, Note_on_c, 1, 69, 90
3, 28499, Note_on_c, 1, 69, 0
3, 28499, Note_on_c, 1, 79, 0
3, 28499, Note_on_c, 1, 76, 0
3, 28499, Note_on_c, 1, 73, 0
3, 28500, Note_on_c, 1, 78, 90
3, 28529, Note_on_c, 1, 78, 0
3, 28530, Note_on_c, 1, 76, 90
3, 28559, Note_on_c, 1, 76, 0
3, 28560, Note_on_c, 1, 74, 90
3, 28589, Note_on_c, 1, 74, 0
3, 28590, Note_on_c, 1, 73, 90
3, 28619, Note_on_c, 1, 73, 0
3, 28620, Note_on_c, 1, 71, 90
3, 28649, Note_on_c, 1, 71, 0
3, 28650, Note_on_c, 1, 69, 90
3, 28679, Note_on_c, 1, 69, 0
3, 28680, Note_on_c, 1, 71, 90
3, 28709, Note_on_c, 1, 71, 0
3, 28710, Note_on_c, 1, 73, 90
3, 28739, Note_on_c, 1, 73, 0
3, 28740, Note_on_c, 1, 74, 90
3, 28769, Note_on_c, 1, 74, 0
3, 28770, Note_on_c, 1, 76, 90
3, 28799, Note_on_c, 1, 76, 0
3, 28800, Note_on_c, 1, 78, 90
3, 28829, Note_on_c, 1, 78, 0
3, 28830, Note_on_c, 1, 79, 90
3, 28859, Note_on_c, 1, 79, 0
3, 28860, Note_on_c, 1, 81, 90
3, 28889, Note_on_c, 1, 81, 0
3, 28890, Note_on_c, 1, 83, 90
3, 28919, Note_on_c, 1, 83, 0
3, 28920, Note_on_c, 1, 81, 90
3, 28949, Note_on_c, 1, 81, 0
3, 28950, Note_on_c, 1, 79, 90
3, 28979, Note_on_c, 1, 79, 0
3, 28980, Note_on_c, 1, 78, 90
3, 29009, Note_on_c, 1, 78, 0
3, 29010, Note_on_c, 1, 76, 90
3, 29039, Note_on_c, 1, 76, 0
3, 29040, Note_on_c, 1, 79, 90
3, 29069, Note_on_c, 1, 79, 0
3, 29070, Note_on_c, 1, 78, 90
3, 29099, Note_on_c, 1, 78, 0
3, 29100, Note_on_c, 1, 76, 90
3, 29129, Note_on_c, 1, 76, 0
3, 29130, Note_on_c, 1, 78, 90
3, 29159, Note_on_c, 1, 78, 0
3, 29160, Note_on_c, 1, 74, 90
3, 29189, Note_on_c, 1, 74, 0
3, 29190, Note_on_c, 1, 81, 90
3, 29219, Note_on_c, 1, 81, 0
3, 29220, Note_on_c, 1, 79, 90
3, 29249, Note_on_c, 1, 79, 0
3, 29250, Note_on_c, 1, 83, 90
3, 29279, Note_on_c, 1, 83, 0
3, 29280, Note_on_c, 1, 78, 90
3, 29295, Note_on_c, 1, 78, 0
3, 29295, Note_on_c, 1, 77, 90
3, 29310, Note_on_c, 1, 77, 0
3, 29310, Note_on_c, 1, 78, 90
3, 29325, Note_on_c, 1, 78, 0
3, 29325, Note_on_c, 1, 77, 90
3, 29340, Note_on_c, 1, 77, 0
3, 29340, Note_on_c, 1, 78, 90
3, 29369, Note_on_c, 1, 78, 0
3, 29370, Note_on_c, 1, 85, 90
3, 29399, Note_on_c, 1, 85, 0
3, 29400, Note_on_c, 1, 83, 90
3, 29429, Note_on_c, 1, 83, 0
3, 29430, Note_on_c, 1, 81, 90
3, 29459, Note_on_c, 1, 81, 0
3, 29460, Note_on_c, 1, 80, 90
3, 29489, Note_on_c, 1, 80, 0
3, 29490, Note_on_c, 1, 81, 90
3, 29519, Note_on_c, 1, 81, 0
3, 29520, Note_on_c, 1, 78, 90
3, 29759, Note_on_c, 1, 78, 0
3, 29820, Note_on_c, 1, 78, 90
3, 29820, Note_on_c, 1, 74, 90
3, 29849, Note_on_c, 1, 74, 0
3, 29849, Note_on_c, 1, 78, 0
3, 29850, Note_on_c, 1, 76, 90
3, 29850, Note_on_c, 1, 79, 90
3, 29879, Note_on_c, 1, 79, 0
3, 29879, Note_on_c, 1, 76, 0
3, 29880, Note_on_c, 1, 78, 90
3, 29880, Note_on_c, 1, 81, 90
3, 29939, Note_on_c, 1, 81, 0
3, 29939, Note_on_c, 1, 78, 0
3, 30060, Note_on_c, 1, 76, 90
3, 30060, Note_on_c, 1, 73, 90
3, 30089, Note_on_c, 1, 73, 0
3, 30089, Note_on_c, 1, 76, 0
3, 30090, Note_on_c, 1, 74, 90
3, 30090, Note_on_c, 1, 78, 90
3, 30119, Note_on_c, 1, 78, 0
3, 30119, Note_on_c, 1, 74, 0
3, 30120, Note_on_c, 1, 76, 90
3, 30120, Note_on_c, 1, 79, 90
3, 30179, Note_on_c, 1, 79, 0
3, 30179, Note_on_c, 1, 76, 0
3, 30300, Note_on_c, 1, 69, 90
3, 30300, Note_on_c, 1, 74, 90
3, 30300, Note_on_c, 1, 81, 90
3, 30359, Note_on_c, 1, 81, 0
3, 30359, Note_on_c, 1, 74, 0
3, 30359, Note_on_c, 1, 69, 0
3, 30360, Note_on_c, 1, 69, 90
3, 30360, Note_on_c, 1, 73, 90
3, 30360, Note_on_c, 1, 79, 90
3, 30419, Note_on_c, 1, 79, 0
3, 30419, Note_on_c, 1, 73, 0
3, 30419, Note_on_c, 1, 69, 0
3, 30420, Note_on_c, 1, 74, 90
3, 30420, Note_on_c, 1, 69, 90
3, 30420, Note_on_c, 1, 78, 90
3, 30479, Note_on_c, 1, 78, 0
3, 30479, Note_on_c, 1, 69, 0
3, 30479, Note_on_c, 1, 74, 0
3, 30480, Note_on_c, 1, 64, 90
3, 30480, Note_on_c, 1, 69, 90
3, 30480, Note_on_c, 1, 76, 90
3, 30599, Note_on_c, 1, 76, 0
3, 30599, Note_on_c, 1, 69, 0
3, 30599, Note_on_c, 1, 64, 0
3, 30720, Note_on_c, 1, 78, 90
3, 30749, Note_on_c, 1, 78, 0
3, 30750, Note_on_c, 1, 79, 90
3, 30779, Note_on_c, 1, 79, 0
3, 30780, Note_on_c, 1, 81, 90
3, 30899, Note_on_c, 1, 81, 0
3, 30900, Note_on_c, 1, 79, 90
3, 30929, Note_on_c, 1, 79, 0
3, 30930, Note_on_c, 1, 78, 90
3, 30959, Note_on_c, 1, 78, 0
3, 30960, Note_on_c, 1, 76, 90
3, 30989, Note_on_c, 1, 76, 0
3, 30990, Note_on_c, 1, 78, 90
3, 31019, Note_on_c, 1, 78, 0
3, 31020, Note_on_c, 1, 79, 90
3, 31139, Note_on_c, 1, 79, 0
3, 31140, Note_on_c, 1, 78, 90
3, 31169, Note_on_c, 1, 78, 0
3, 31170, Note_on_c, 1, 76, 90
3, 31199, Note_on_c, 1, 76, 0
3, 31200, Note_on_c, 1, 78, 90
3, 31259, Note_on_c, 1, 78, 0
3, 31260, Note_on_c, 1, 74, 90
3, 31319, Note_on_c, 1, 74, 0
3, 31320, Note_on_c, 1, 73, 90
3, 31334, Note_on_c, 1, 73, 0
3, 31335, Note_on_c, 1, 74, 90
3, 31349, Note_on_c, 1, 74, 0
3, 31350, Note_on_c, 1, 73, 90
3, 31379, Note_on_c, 1, 73, 0
3, 31380, Note_on_c, 1, 74, 90
3, 31439, Note_on_c, 1, 74, 0
3, 31440, Note_on_c, 1, 76, 90
3, 31469, Note_on_c, 1, 76, 0
3, 31470, Note_on_c, 1, 74, 90
3, 31499, Note_on_c, 1, 74, 0
3, 31500, Note_on_c, 1, 73, 90
3, 31529, Note_on_c, 1, 73, 0
3, 31530, Note_on_c, 1, 71, 90
3, 31559, Note_on_c, 1, 71, 0
3, 31560, Note_on_c, 1, 69, 90
3, 31589, Note_on_c, 1, 69, 0
3, 31590, Note_on_c, 1, 67, 90
3, 31619, Note_on_c, 1, 67, 0
3, 31620, Note_on_c, 1, 66, 90
3, 31649, Note_on_c, 1, 66, 0
3, 31650, Note_on_c, 1, 64, 90
3, 31679, Note_on_c, 1, 64, 0
3, 31680, Note_on_c, 1, 62, 90
3, 31680, Note_on_c, 1, 66, 90
3, 31680, Note_on_c, 1, 69, 90
3, 31739, Note_on_c, 1, 69, 0
3, 31739, Note_on_c, 1, 66, 0
3, 31739, Note_on_c, 1, 62, 0
3, 31740, Note_on_c, 1, 74, 90
3, 31769, Note_on_c, 1, 74, 0
3, 31770, Note_on_c, 1, 73, 90
3, 31799, Note_on_c, 1, 73, 0
3, 31800, Note_on_c, 1, 74, 90
3, 31919, Note_on_c, 1, 74, 0
3, 31950, Note_on_c, 1, 72, 90
3, 31979, Note_on_c, 1, 72, 0
3, 31980, Note_on_c, 1, 71, 90
3, 32009, Note_on_c, 1, 71, 0
3, 32010, Note_on_c, 1, 74, 90
3, 32039, Note_on_c, 1, 74, 0
3, 32040, Note_on_c, 1, 79, 90
3, 32069, Note_on_c, 1, 79, 0
3, 32070, Note_on_c, 1, 74, 90
3, 32099, Note_on_c, 1, 74, 0
3, 32100, Note_on_c, 1, 71, 90
3, 32129, Note_on_c, 1, 71, 0
3, 32130, Note_on_c, 1, 67, 90
3, 32159, Note_on_c, 1, 67, 0
3, 32160, Note_on_c, 1, 64, 90
3, 32160, Note_on_c, 1, 67, 90
3, 32160, Note_on_c, 1, 71, 90
3, 32219, Note_on_c, 1, 71, 0
3, 32219, Note_on_c, 1, 67, 0
3, 32219, Note_on_c, 1, 64, 0
3, 32220, Note_on_c, 1, 76, 90
3, 32249, Note_on_c, 1, 76, 0
3, 32250, Note_on_c, 1, 75, 90
3, 32279, Note_on_c, 1, 75, 0
3, 32280, Note_on_c, 1, 76, 90
3, 32399, Note_on_c, 1, 76, 0
3, 32430, Note_on_c, 1, 74, 90
3, 32459, Note_on_c, 1, 74, 0
3, 32460, Note_on_c, 1, 73, 90
3, 32489, Note_on_c, 1, 73, 0
3, 32490, Note_on_c, 1, 76, 90
3, 32519, Note_on_c, 1, 76, 0
3, 32520, Note_on_c, 1, 81, 90
3, 32549, Note_on_c, 1, 81, 0
3, 32550, Note_on_c, 1, 76, 90
3, 32579, Note_on_c, 1, 76, 0
3, 32580, Note_on_c, 1, 73, 90
3, 32609, Note_on_c, 1, 73, 0
3, 32610, Note_on_c, 1, 76, 90
3, 32639, Note_on_c, 1, 76, 0
3, 32640, Note_on_c, 1, 78, 90
3, 32699, Note_on_c, 1, 78, 0
3, 32700, Note_on_c, 1, 69, 90
3, 32700, Note_on_c, 1, 73, 90
3, 32700, Note_on_c, 1, 78, 90
3, 32759, Note_on_c, 1, 73, 0
3, 32759, Note_on_c, 1, 69, 0
3, 32760, Note_on_c, 1, 71, 90
3, 32760, Note_on_c, 1, 66, 90
3, 32819, Note_on_c, 1, 66, 0
3, 32819, Note_on_c, 1, 71, 0
3, 32819, Note_on_c, 1, 78, 0
3, 32820, Note_on_c, 1, 76, 90
3, 32849, Note_on_c, 1, 76, 0
3, 32850, Note_on_c, 1, 75, 90
3, 32879, Note_on_c, 1, 75, 0
3, 32880, Note_on_c, 1, 76, 90
3, 32939, Note_on_c, 1, 76, 0
3, 32940, Note_on_c, 1, 67, 90
3, 32940, Note_on_c, 1, 71, 90
3, 32940, Note_on_c, 1, 76, 90
3, 32999, Note_on_c, 1, 71, 0
3, 32999, Note_on_c, 1, 67, 0
3, 33000, Note_on_c, 1, 64, 90
3, 33000, Note_on_c, 1, 69, 90
3, 33059, Note_on_c, 1, 69, 0
3, 33059, Note_on_c, 1, 64, 0
3, 33059, Note_on_c, 1, 76, 0
3, 33060, Note_on_c, 1, 74, 90
3, 33089, Note_on_c, 1, 74, 0
3, 33090, Note_on_c, 1, 73, 90
3, 33119, Note_on_c, 1, 73, 0
3, 33120, Note_on_c, 1, 74, 90
3, 33179, Note_on_c, 1, 74, 0
3, 33180, Note_on_c, 1, 73, 90
3, 33209, Note_on_c, 1, 73, 0
3, 33210, Note_on_c, 1, 71, 90
3, 33239, Note_on_c, 1, 71, 0
3, 33240, Note_on_c, 1, 69, 90
3, 33269, Note_on_c, 1, 69, 0
3, 33270, Note_on_c, 1, 67, 90
3, 33299, Note_on_c, 1, 67, 0
3, 33300, Note_on_c, 1, 66, 90
3, 33329, Note_on_c, 1, 66, 0
3, 33330, Note_on_c, 1, 64, 90
3, 33359, Note_on_c, 1, 64, 0
3, 33360, Note_on_c, 1, 62, 90
3, 33479, Note_on_c, 1, 62, 0
3, 33540, Note_on_c, 1, 74, 90
3, 33540, Note_on_c, 1, 78, 90
3, 33540, Note_on_c, 1, 81, 90
3, 33599, Note_on_c, 1, 81, 0
3, 33599, Note_on_c, 1, 78, 0
3, 33599, Note_on_c, 1, 74, 0
3, 33600, Note_on_c, 1, 74, 90
3, 33600, Note_on_c, 1, 78, 90
3, 33600, Note_on_c, 1, 81, 90
3, 33659, Note_on_c, 1, 81, 0
3, 33659, Note_on_c, 1, 78, 0
3, 33659, Note_on_c, 1, 74, 0
3, 33660, Note_on_c, 1, 72, 90
3, 33660, Note_on_c, 1, 78, 90
3, 33660, Note_on_c, 1, 81, 90
3, 33719, Note_on_c, 1, 81, 0
3, 33719, Note_on_c, 1, 78, 0
3, 33719, Note_on_c, 1, 72, 0
3, 33720, Note_on_c, 1, 71, 90
3, 33720, Note_on_c, 1, 76, 90
3, 33720, Note_on_c, 1, 79, 90
3, 33779, Note_on_c, 1, 79, 0
3, 33779, Note_on_c, 1, 76, 0
3, 33779, Note_on_c, 1, 71, 0
3, 33780, Note_on_c, 1, 79, 90
3, 33780, Note_on_c, 1, 76, 90
3, 33780, Note_on_c, 1, 74, 90
3, 33839, Note_on_c, 1, 74, 0
3, 33839, Note_on_c, 1, 76, 0
3, 33839, Note_on_c, 1, 79, 0
3, 33840, Note_on_c, 1, 79, 90
3, 33840, Note_on_c, 1, 76, 90
3, 33840, Note_on_c, 1, 73, 90
3, 33899, Note_on_c, 1, 73, 0
3, 33899, Note_on_c, 1, 76, 0
3, 33899, Note_on_c, 1, 79, 0
3, 33900, Note_on_c, 1, 76, 90
3, 33900, Note_on_c, 1, 71, 90
3, 33900, Note_on_c, 1, 79, 90
3, 33959, Note_on_c, 1, 79, 0
3, 33959, Note_on_c, 1, 71, 0
3, 33959, Note_on_c, 1, 76, 0
3, 33960, Note_on_c, 1, 74, 90
3, 33960, Note_on_c, 1, 78, 90
3, 33960, Note_on_c, 1, 69, 90
3, 34019, Note_on_c, 1, 69, 0
3, 34019, Note_on_c, 1, 78, 0
3, 34019, Note_on_c, 1, 74, 0
3, 34020, Note_on_c, 1, 72, 90
3, 34020, Note_on_c, 1, 78, 90
3, 34020, Note_on_c, 1, 74, 90
3, 34079, Note_on_c, 1, 74, 0
3, 34079, Note_on_c, 1, 78, 0
3, 34079, Note_on_c, 1, 72, 0
3, 34080, Note_on_c, 1, 71, 90
3, 34080, Note_on_c, 1, 74, 90
3, 34080, Note_on_c, 1, 78, 90
3, 34139, Note_on_c, 1, 78, 0
3, 34139, Note_on_c, 1, 74, 0
3, 34139, Note_on_c, 1, 71, 0
3, 34140, Note_on_c, 1, 74, 90
3, 34140, Note_on_c, 1, 69, 90
3, 34140, Note_on_c, 1, 78, 90
3, 34199, Note_on_c, 1, 78, 0
3, 34199, Note_on_c, 1, 69, 0
3, 34199, Note_on_c, 1, 74, 0
3, 34200, Note_on_c, 1, 67, 90
3, 34200, Note_on_c, 1, 74, 90
3, 34200, Note_on_c, 1, 76, 90
3, 34260, Note_on_c, 1, 73, 90
3, 34289, Note_on_c, 1, 73, 0
3, 34290, Note_on_c, 1, 71, 90
3, 34319, Note_on_c, 1, 71, 0
3, 34320, Note_on_c, 1, 76, 0
3, 34320, Note_on_c, 1, 73, 90
3, 34349, Note_on_c, 1, 73, 0
3, 34350, Note_on_c, 1, 74, 0
3, 34350, Note_on_c, 1, 67, 0
3, 34350, Note_on_c, 1, 74, 90
3, 34379, Note_on_c, 1, 74, 0
3, 34380, Note_on_c, 1, 76, 90
3, 34409, Note_on_c, 1, 76, 0
3, 34410, Note_on_c, 1, 73, 90
3, 34439, Note_on_c, 1, 73, 0
3, 34440, Note_on_c, 1, 69, 90
3, 34469, Note_on_c, 1, 69, 0
3, 34470, Note_on_c, 1, 71, 90
3, 34499, Note_on_c, 1, 71, 0
3, 34500, Note_on_c, 1, 73, 90
3, 34529, Note_on_c, 1, 73, 0
3, 34530, Note_on_c, 1, 76, 90
3, 34559, Note_on_c, 1, 76, 0
3, 34560, Note_on_c, 1, 74, 90
3, 34589, Note_on_c, 1, 74, 0
3, 34590, Note_on_c, 1, 76, 90
3, 34619, Note_on_c, 1, 76, 0
3, 34620, Note_on_c, 1, 77, 90
3, 34739, Note_on_c, 1, 77, 0
3, 34740, Note_on_c, 1, 76, 90
3, 34769, Note_on_c, 1, 76, 0
3, 34770, Note_on_c, 1, 74, 90
3, 34799, Note_on_c, 1, 74, 0
3, 34800, Note_on_c, 1, 73, 90
3, 34829, Note_on_c, 1, 73, 0
3, 34830, Note_on_c, 1, 74, 90
3, 34859, Note_on_c, 1, 74, 0
3, 34860, Note_on_c, 1, 76, 90
3, 34979, Note_on_c, 1, 76, 0
3, 34980, Note_on_c, 1, 74, 90
3, 35009, Note_on_c, 1, 74, 0
3, 35010, Note_on_c, 1, 73, 90
3, 35039, Note_on_c, 1, 73, 0
3, 35040, Note_on_c, 1, 81, 90
3, 35099, Note_on_c, 1, 81, 0
3, 35100, Note_on_c, 1, 79, 90
3, 35129, Note_on_c, 1, 79, 0
3, 35130, Note_on_c, 1, 78, 90
3, 35159, Note_on_c, 1, 78, 0
3, 35160, Note_on_c, 1, 79, 90
3, 35189, Note_on_c, 1, 79, 0
3, 35190, Note_on_c, 1, 78, 90
3, 35219, Note_on_c, 1, 78, 0
3, 35220, Note_on_c, 1, 76, 90
3, 35249, Note_on_c, 1, 76, 0
3, 35250, Note_on_c, 1, 78, 90
3, 35279, Note_on_c, 1, 78, 0
3, 35280, Note_on_c, 1, 66, 90
3, 35280, Note_on_c, 1, 74, 90
3, 35280, Note_on_c, 1, 69, 90
3, 35519, Note_on_c, 1, 69, 0
3, 35519, Note_on_c, 1, 74, 0
3, 35519, Note_on_c, 1, 66, 0
3, 35520, Note_on_c, 1, 76, 90
3, 35549, Note_on_c, 1, 76, 0
3, 35550, Note_on_c, 1, 78, 90
3, 35579, Note_on_c, 1, 78, 0
3, 35580, Note_on_c, 1, 79, 90
3, 35699, Note_on_c, 1, 79, 0
3, 35700, Note_on_c, 1, 78, 90
3, 35729, Note_on_c, 1, 78, 0
3, 35730, Note_on_c, 1, 76, 90
3, 35759, Note_on_c, 1, 76, 0
3, 35760, Note_on_c, 1, 74, 90
3, 35789, Note_on_c, 1, 74, 0
3, 35790, Note_on_c, 1, 73, 90
3, 35819, Note_on_c, 1, 73, 0
3, 35820, Note_on_c, 1, 71, 90
3, 35849, Note_on_c, 1, 71, 0
3, 35850, Note_on_c, 1, 69, 90
3, 35879, Note_on_c, 1, 69, 0
3, 35880, Note_on_c, 1, 71, 90
3, 35909, Note_on_c, 1, 71, 0
3, 35910, Note_on_c, 1, 73, 90
3, 35939, Note_on_c, 1, 73, 0
3, 35940, Note_on_c, 1, 74, 90
3, 35969, Note_on_c, 1, 74, 0
3, 35970, Note_on_c, 1, 76, 90
3, 35999, Note_on_c, 1, 76, 0
3, 36000, Note_on_c, 1, 78, 90
3, 36029, Note_on_c, 1, 78, 0
3, 36030, Note_on_c, 1, 79, 90
3, 36059, Note_on_c, 1, 79, 0
3, 36060, Note_on_c, 1, 81, 90
3, 36089, Note_on_c, 1, 81, 0
3, 36090, Note_on_c, 1, 83, 90
3, 36119, Note_on_c, 1, 83, 0
3, 36120, Note_on_c, 1, 81, 90
3, 36149, Note_on_c, 1, 81, 0
3, 36150, Note_on_c, 1, 79, 90
3, 36179, Note_on_c, 1, 79, 0
3, 36180, Note_on_c, 1, 78, 90
3, 36209, Note_on_c, 1, 78, 0
3, 36210, Note_on_c, 1, 76, 90
3, 36239, Note_on_c, 1, 76, 0
3, 36240, Note_on_c, 1, 79, 90
3, 36269, Note_on_c, 1, 79, 0
3, 36270, Note_on_c, 1, 78, 90
3, 36299, Note_on_c, 1, 78, 0
3, 36300, Note_on_c, 1, 76, 90
3, 36329, Note_on_c, 1, 76, 0
3, 36330, Note_on_c, 1, 78, 90
3, 36359, Note_on_c, 1, 78, 0
3, 36360, Note_on_c, 1, 74, 90
3, 36389, Note_on_c, 1, 74, 0
3, 36390, Note_on_c, 1, 78, 90
3, 36419, Note_on_c, 1, 78, 0
3, 36420, Note_on_c, 1, 76, 90
3, 36449, Note_on_c, 1, 76, 0
3, 36450, Note_on_c, 1, 79, 90
3, 36479, Note_on_c, 1, 79, 0
3, 36480, Note_on_c, 1, 78, 90
3, 36509, Note_on_c, 1, 78, 0
3, 36510, Note_on_c, 1, 79, 90
3, 36539, Note_on_c, 1, 79, 0
3, 36540, Note_on_c, 1, 81, 90
3, 36569, Note_on_c, 1, 81, 0
3, 36570, Note_on_c, 1, 78, 90
3, 36599, Note_on_c, 1, 78, 0
3, 36600, Note_on_c, 1, 74, 90
3, 36629, Note_on_c, 1, 74, 0
3, 36630, Note_on_c, 1, 76, 90
3, 36659, Note_on_c, 1, 76, 0
3, 36660, Note_on_c, 1, 78, 90
3, 36689, Note_on_c, 1, 78, 0
3, 36690, Note_on_c, 1, 74, 90
3, 36719, Note_on_c, 1, 74, 0
3, 36720, Note_on_c, 1, 69, 90
3, 36749, Note_on_c, 1, 69, 0
3, 36750, Note_on_c, 1, 71, 90
3, 36779, Note_on_c, 1, 71, 0
3, 36780, Note_on_c, 1, 72, 90
3, 36809, Note_on_c, 1, 72, 0
3, 36810, Note_on_c, 1, 71, 90
3, 36839, Note_on_c, 1, 71, 0
3, 36840, Note_on_c, 1, 72, 90
3, 36869, Note_on_c, 1, 72, 0
3, 36870, Note_on_c, 1, 76, 90
3, 36899, Note_on_c, 1, 76, 0
3, 36900, Note_on_c, 1, 74, 90
3, 36929, Note_on_c, 1, 74, 0
3, 36930, Note_on_c, 1, 72, 90
3, 36959, Note_on_c, 1, 72, 0
3, 36960, Note_on_c, 1, 71, 90
3, 37019, Note_on_c, 1, 71, 0
3, 37020, Note_on_c, 1, 79, 90
3, 37079, Note_on_c, 1, 79, 0
3, 37080, Note_on_c, 1, 69, 90
3, 37139, Note_on_c, 1, 69, 0
3, 37140, Note_on_c, 1, 79, 90
3, 37154, Note_on_c, 1, 79, 0
3, 37155, Note_on_c, 1, 78, 90
3, 37169, Note_on_c, 1, 78, 0
3, 37170, Note_on_c, 1, 76, 90
3, 37184, Note_on_c, 1, 76, 0
3, 37185, Note_on_c, 1, 78, 90
3, 37199, Note_on_c, 1, 78, 0
3, 37200, Note_on_c, 1, 79, 90
3, 37259, Note_on_c, 1, 79, 0
3, 37260, Note_on_c, 1, 74, 90
3, 37319, Note_on_c, 1, 74, 0
3, 37320, Note_on_c, 1, 79, 90
3, 37379, Note_on_c, 1, 79, 0
3, 37380, Note_on_c, 1, 83, 90
3, 37469, Note_on_c, 1, 83, 0
3, 37470, Note_on_c, 1, 81, 90
3, 37499, Note_on_c, 1, 81, 0
3, 37500, Note_on_c, 1, 79, 90
3, 37529, Note_on_c, 1, 79, 0
3, 37530, Note_on_c, 1, 78, 90
3, 37559, Note_on_c, 1, 78, 0
3, 37560, Note_on_c, 1, 76, 90
3, 37589, Note_on_c, 1, 76, 0
3, 37590, Note_on_c, 1, 78, 90
3, 37619, Note_on_c, 1, 78, 0
3, 37620, Note_on_c, 1, 79, 90
3, 37649, Note_on_c, 1, 79, 0
3, 37650, Note_on_c, 1, 83, 90
3, 37679, Note_on_c, 1, 83, 0
3, 37680, Note_on_c, 1, 81, 90
3, 37739, Note_on_c, 1, 81, 0
3, 37740, Note_on_c, 1, 75, 90
3, 37799, Note_on_c, 1, 75, 0
3, 37800, Note_on_c, 1, 78, 90
3, 37859, Note_on_c, 1, 78, 0
3, 37860, Note_on_c, 1, 81, 90
3, 37949, Note_on_c, 1, 81, 0
3, 37950, Note_on_c, 1, 79, 90
3, 37979, Note_on_c, 1, 79, 0
3, 37980, Note_on_c, 1, 78, 90
3, 38009, Note_on_c, 1, 78, 0
3, 38010, Note_on_c, 1, 76, 90
3, 38039, Note_on_c, 1, 76, 0
3, 38040, Note_on_c, 1, 75, 90
3, 38069, Note_on_c, 1, 75, 0
3, 38070, Note_on_c, 1, 76, 90
3, 38099, Note_on_c, 1, 76, 0
3, 38100, Note_on_c, 1, 78, 90
3, 38129, Note_on_c, 1, 78, 0
3, 38130, Note_on_c, 1, 81, 90
3, 38159, Note_on_c, 1, 81, 0
3, 38160, Note_on_c, 1, 79, 90
3, 38189, Note_on_c, 1, 79, 0
3, 38190, Note_on_c, 1, 78, 90
3, 38219, Note_on_c, 1, 78, 0
3, 38220, Note_on_c, 1, 76, 90
3, 38249, Note_on_c, 1, 76, 0
3, 38250, Note_on_c, 1, 75, 90
3, 38279, Note_on_c, 1, 75, 0
3, 38280, Note_on_c, 1, 76, 90
3, 38339, Note_on_c, 1, 76, 0
3, 38340, Note_on_c, 1, 71, 90
3, 38399, Note_on_c, 1, 71, 0
3, 38400, Note_on_c, 1, 76, 90
3, 38429, Note_on_c, 1, 76, 0
3, 38430, Note_on_c, 1, 78, 90
3, 38459, Note_on_c, 1, 78, 0
3, 38460, Note_on_c, 1, 79, 90
3, 38579, Note_on_c, 1, 79, 0
3, 38580, Note_on_c, 1, 78, 90
3, 38609, Note_on_c, 1, 78, 0
3, 38610, Note_on_c, 1, 76, 90
3, 38639, Note_on_c, 1, 76, 0
3, 38640, Note_on_c, 1, 74, 90
3, 38669, Note_on_c, 1, 74, 0
3, 38670, Note_on_c, 1, 76, 90
3, 38699, Note_on_c, 1, 76, 0
3, 38700, Note_on_c, 1, 78, 90
3, 38789, Note_on_c, 1, 78, 0
3, 38790, Note_on_c, 1, 74, 90
3, 38819, Note_on_c, 1, 74, 0
3, 38820, Note_on_c, 1, 73, 90
3, 38849, Note_on_c, 1, 73, 0
3, 38850, Note_on_c, 1, 71, 90
3, 38879, Note_on_c, 1, 71, 0
3, 38880, Note_on_c, 1, 70, 90
3, 38909, Note_on_c, 1, 70, 0
3, 38910, Note_on_c, 1, 79, 90
3, 38939, Note_on_c, 1, 79, 0
3, 38940, Note_on_c, 1, 78, 90
3, 38969, Note_on_c, 1, 78, 0
3, 38970, Note_on_c, 1, 76, 90
3, 38999, Note_on_c, 1, 76, 0
3, 39000, Note_on_c, 1, 74, 90
3, 39059, Note_on_c, 1, 74, 0
3, 39060, Note_on_c, 1, 73, 90
3, 39089, Note_on_c, 1, 73, 0
3, 39090, Note_on_c, 1, 71, 90
3, 39119, Note_on_c, 1, 71, 0
3, 39120, Note_on_c, 1, 62, 90
3, 39120, Note_on_c, 1, 71, 90
3, 39149, Note_on_c, 1, 71, 0
3, 39150, Note_on_c, 1, 66, 90
3, 39179, Note_on_c, 1, 66, 0
3, 39179, Note_on_c, 1, 62, 0
3, 39180, Note_on_c, 1, 62, 90
3, 39180, Note_on_c, 1, 71, 90
3, 39209, Note_on_c, 1, 71, 0
3, 39209, Note_on_c, 1, 62, 0
3, 39210, Note_on_c, 1, 64, 90
3, 39210, Note_on_c, 1, 73, 90
3, 39239, Note_on_c, 1, 73, 0
3, 39239, Note_on_c, 1, 64, 0
3, 39240, Note_on_c, 1, 66, 90
3, 39240, Note_on_c, 1, 74, 90
3, 39299, Note_on_c, 1, 74, 0
3, 39299, Note_on_c, 1, 66, 0
3, 39390, Note_on_c, 1, 74, 90
3, 39419, Note_on_c, 1, 74, 0
3, 39420, Note_on_c, 1, 71, 90
3, 39449, Note_on_c, 1, 71, 0
3, 39450, Note_on_c, 1, 73, 90
3, 39479, Note_on_c, 1, 73, 0
3, 39480, Note_on_c, 1, 74, 90
3, 39509, Note_on_c, 1, 74, 0
3, 39510, Note_on_c, 1, 78, 90
3, 39539, Note_on_c, 1, 78, 0
3, 39540, Note_on_c, 1, 76, 90
3, 39569, Note_on_c, 1, 76, 0
3, 39570, Note_on_c, 1, 74, 90
3, 39599, Note_on_c, 1, 74, 0
3, 39600, Note_on_c, 1, 73, 90
3, 39629, Note_on_c, 1, 73, 0
3, 39630, Note_on_c, 1, 71, 90
3, 39659, Note_on_c, 1, 71, 0
3, 39660, Note_on_c, 1, 73, 90
3, 39689, Note_on_c, 1, 73, 0
3, 39690, Note_on_c, 1, 74, 90
3, 39719, Note_on_c, 1, 74, 0
3, 39720, Note_on_c, 1, 73, 90
3, 39749, Note_on_c, 1, 73, 0
3, 39750, Note_on_c, 1, 71, 90
3, 39779, Note_on_c, 1, 71, 0
3, 39780, Note_on_c, 1, 69, 90
3, 39809, Note_on_c, 1, 69, 0
3, 39810, Note_on_c, 1, 68, 90
3, 39839, Note_on_c, 1, 68, 0
3, 39840, Note_on_c, 1, 69, 90
3, 39840, Note_on_c, 1, 73, 90
3, 39840, Note_on_c, 1, 76, 90
3, 39869, Note_on_c, 1, 76, 0
3, 39870, Note_on_c, 1, 78, 90
3, 39899, Note_on_c, 1, 78, 0
3, 39900, Note_on_c, 1, 73, 0
3, 39900, Note_on_c, 1, 69, 0
3, 39900, Note_on_c, 1, 79, 90
3, 39900, Note_on_c, 1, 76, 90
3, 39900, Note_on_c, 1, 73, 90
3, 39900, Note_on_c, 1, 69, 90
3, 40019, Note_on_c, 1, 69, 0
3, 40019, Note_on_c, 1, 79, 0
3, 40019, Note_on_c, 1, 76, 0
3, 40019, Note_on_c, 1, 73, 0
3, 40020, Note_on_c, 1, 78, 90
3, 40049, Note_on_c, 1, 78, 0
3, 40050, Note_on_c, 1, 76, 90
3, 40079, Note_on_c, 1, 76, 0
3, 40080, Note_on_c, 1, 74, 90
3, 40109, Note_on_c, 1, 74, 0
3, 40110, Note_on_c, 1, 73, 90
3, 40139, Note_on_c, 1, 73, 0
3, 40140, Note_on_c, 1, 71, 90
3, 40169, Note_on_c, 1, 71, 0
3, 40170, Note_on_c, 1, 69, 90
3, 40199, Note_on_c, 1, 69, 0
3, 40200, Note_on_c, 1, 71, 90
3, 40229, Note_on_c, 1, 71, 0
3, 40230, Note_on_c, 1, 73, 90
3, 40259, Note_on_c, 1, 73, 0
3, 40260, Note_on_c, 1, 74, 90
3, 40289, Note_on_c, 1, 74, 0
3, 40290, Note_on_c, 1, 76, 90
3, 40319, Note_on_c, 1, 76, 0
3, 40320, Note_on_c, 1, 78, 90
3, 40349, Note_on_c, 1, 78, 0
3, 40350, Note_on_c, 1, 79, 90
3, 40379, Note_on_c, 1, 79, 0
3, 40380, Note_on_c, 1, 81, 90
3, 40409, Note_on_c, 1, 81, 0
3, 40410, Note_on_c, 1, 83, 90
3, 40439, Note_on_c, 1, 83, 0
3, 40440, Note_on_c, 1, 81, 90
3, 40469, Note_on_c, 1, 81, 0
3, 40470, Note_on_c, 1, 79, 90
3, 40499, Note_on_c, 1, 79, 0
3, 40500, Note_on_c, 1, 78, 90
3, 40529, Note_on_c, 1, 78, 0
3, 40530, Note_on_c, 1, 76, 90
3, 40559, Note_on_c, 1, 76, 0
3, 40560, Note_on_c, 1, 79, 90
3, 40589, Note_on_c, 1, 79, 0
3, 40590, Note_on_c, 1, 78, 90
3, 40619, Note_on_c, 1, 78, 0
3, 40620, Note_on_c, 1, 76, 90
3, 40649, Note_on_c, 1, 76, 0
3, 40650, Note_on_c, 1, 78, 90
3, 40679, Note_on_c, 1, 78, 0
3, 40680, Note_on_c, 1, 74, 90
3, 40709, Note_on_c, 1, 74, 0
3, 40710, Note_on_c, 1, 81, 90
3, 40739, Note_on_c, 1, 81, 0
3, 40740, Note_on_c, 1, 79, 90
3, 40769, Note_on_c, 1, 79, 0
3, 40770, Note_on_c, 1, 83, 90
3, 40799, Note_on_c, 1, 83, 0
3, 40800, Note_on_c, 1, 78, 90
3, 40815, Note_on_c, 1, 78, 0
3, 40815, Note_on_c, 1, 77, 90
3, 40830, Note_on_c, 1, 77, 0
3, 40830, Note_on_c, 1, 78, 90
3, 40845, Note_on_c, 1, 78, 0
3, 40845, Note_on_c, 1, 77, 90
3, 40860, Note_on_c, 1, 77, 0
3, 40860, Note_on_c, 1, 78, 90
3, 40889, Note_on_c, 1, 78, 0
3, 40890, Note_on_c, 1, 85, 90
3, 40919, Note_on_c, 1, 85, 0
3, 40920, Note_on_c, 1, 83, 90
3, 40949, Note_on_c, 1, 83, 0
3, 40950, Note_on_c, 1, 81, 90
3, 40979, Note_on_c, 1, 81, 0
3, 40980, Note_on_c, 1, 80, 90
3, 41009, Note_on_c, 1, 80, 0
3, 41010, Note_on_c, 1, 81, 90
3, 41039, Note_on_c, 1, 81, 0
3, 41040, Note_on_c, 1, 78, 90
3, 41279, Note_on_c, 1, 78, 0
3, 41340, Note_on_c, 1, 78, 90
3, 41340, Note_on_c, 1, 74, 90
3, 41369, Note_on_c, 1, 74, 0
3, 41369, Note_on_c, 1, 78, 0
3, 41370, Note_on_c, 1, 76, 90
3, 41370, Note_on_c, 1, 79, 90
3, 41399, Note_on_c, 1, 79, 0
3, 41399, Note_on_c, 1, 76, 0
3, 41400, Note_on_c, 1, 78, 90
3, 41400, Note_on_c, 1, 81, 90
3, 41459, Note_on_c, 1, 81, 0
3, 41459, Note_on_c, 1, 78, 0
3, 41580, Note_on_c, 1, 76, 90
3, 41580, Note_on_c, 1, 73, 90
3, 41609, Note_on_c, 1, 73, 0
3, 41609, Note_on_c, 1, 76, 0
3, 41610, Note_on_c, 1, 74, 90
3, 41610, Note_on_c, 1, 78, 90
3, 41639, Note_on_c, 1, 78, 0
3, 41639, Note_on_c, 1, 74, 0
3, 41640, Note_on_c, 1, 76, 90
3, 41640, Note_on_c, 1, 79, 90
3, 41699, Note_on_c, 1, 79, 0
3, 41699, Note_on_c, 1, 76, 0
3, 41820, Note_on_c, 1, 69, 90
3, 41820, Note_on_c, 1, 74, 90
3, 41820, Note_on_c, 1, 81, 90
3, 41879, Note_on_c, 1, 81, 0
3, 41879, Note_on_c, 1, 74, 0
3, 41879, Note_on_c, 1, 69, 0
3, 41880, Note_on_c, 1, 69, 90
3, 41880, Note_on_c, 1, 73, 90
3, 41880, Note_on_c, 1, 79, 90
3, 41939, Note_on_c, 1, 79, 0
3, 41939, Note_on_c, 1, 73, 0
3, 41939, Note_on_c, 1, 69, 0
3, 41940, Note_on_c, 1, 74, 90
3, 41940, Note_on_c, 1, 69, 90
3, 41940, Note_on_c, 1, 78, 90
3, 41999, Note_on_c, 1, 78, 0
3, 41999, Note_on_c, 1, 69, 0
3, 41999, Note_on_c, 1, 74, 0
3, 42000, Note_on_c, 1, 64, 90
3, 42000, Note_on_c, 1, 69, 90
3, 42000, Note_on_c, 1, 76, 90
3, 42119, Note_on_c, 1, 76, 0
3, 42119, Note_on_c, 1, 69, 0
3, 42119, Note_on_c, 1, 64, 0
3, 42240, Note_on_c, 1, 78, 90
3, 42269, Note_on_c, 1, 78, 0
3, 42270, Note_on_c, 1, 79, 90
3, 42299, Note_on_c, 1, 79, 0
3, 42300, Note_on_c, 1, 81, 90
3, 42419, Note_on_c, 1, 81, 0
3, 42420, Note_on_c, 1, 79, 90
3, 42449, Note_on_c, 1, 79, 0
3, 42450, Note_on_c, 1, 78, 90
3, 42479, Note_on_c, 1, 78, 0
3, 42480, Note_on_c, 1, 76, 90
3, 42509, Note_on_c, 1, 76, 0
3, 42510, Note_on_c, 1, 78, 90
3, 42539, Note_on_c, 1, 78, 0
3, 42540, Note_on_c, 1, 79, 90
3, 42659, Note_on_c, 1, 79, 0
3, 42660, Note_on_c, 1, 78, 90
3, 42689, Note_on_c, 1, 78, 0
3, 42690, Note_on_c, 1, 76, 90
3, 42719, Note_on_c, 1, 76, 0
3, 42720, Note_on_c, 1, 78, 90
3, 42779, Note_on_c, 1, 78, 0
3, 42780, Note_on_c, 1, 74, 90
3, 42839, Note_on_c, 1, 74, 0
3, 42840, Note_on_c, 1, 73, 90
3, 42854, Note_on_c, 1, 73, 0
3, 42855, Note_on_c, 1, 74, 90
3, 42869, Note_on_c, 1, 74, 0
3, 42870, Note_on_c, 1, 73, 90
3, 42899, Note_on_c, 1, 73, 0
3, 42900, Note_on_c, 1, 74, 90
3, 42959, Note_on_c, 1, 74, 0
3, 42960, Note_on_c, 1, 76, 90
3, 42989, Note_on_c, 1, 76, 0
3, 42990, Note_on_c, 1, 74, 90
3, 43019, Note_on_c, 1, 74, 0
3, 43020, Note_on_c, 1, 73, 90
3, 43049, Note_on_c, 1, 73, 0
3, 43050, Note_on_c, 1, 71, 90
3, 43079, Note_on_c, 1, 71, 0
3, 43080, Note_on_c, 1, 69, 90
3, 43109, Note_on_c, 1, 69, 0
3, 43110, Note_on_c, 1, 67, 90
3, 43139, Note_on_c, 1, 67, 0
3, 43140, Note_on_c, 1, 66, 90
3, 43169, Note_on_c, 1, 66, 0
3, 43170, Note_on_c, 1, 64, 90
3, 43199, Note_on_c, 1, 64, 0
3, 43200, Note_on_c, 1, 62, 90
3, 43200, Note_on_c, 1, 66, 90
3, 43200, Note_on_c, 1, 69, 90
3, 43259, Note_on_c, 1, 69, 0
3, 43259, Note_on_c, 1, 66, 0
3, 43259, Note_on_c, 1, 62, 0
3, 43260, Note_on_c, 1, 74, 90
3, 43289, Note_on_c, 1, 74, 0
3, 43290, Note_on_c, 1, 73, 90
3, 43319, Note_on_c, 1, 73, 0
3, 43320, Note_on_c, 1, 74, 90
3, 43439, Note_on_c, 1, 74, 0
3, 43470, Note_on_c, 1, 72, 90
3, 43499, Note_on_c, 1, 72, 0
3, 43500, Note_on_c, 1, 71, 90
3, 43529, Note_on_c, 1, 71, 0
3, 43530, Note_on_c, 1, 74, 90
3, 43559, Note_on_c, 1, 74, 0
3, 43560, Note_on_c, 1, 79, 90
3, 43589, Note_on_c, 1, 79, 0
3, 43590, Note_on_c, 1, 74, 90
3, 43619, Note_on_c, 1, 74, 0
3, 43620, Note_on_c, 1, 71, 90
3, 43649, Note_on_c, 1, 71, 0
3, 43650, Note_on_c, 1, 67, 90
3, 43679, Note_on_c, 1, 67, 0
3, 43680, Note_on_c, 1, 64, 90
3, 43680, Note_on_c, 1, 67, 90
3, 43680, Note_on_c, 1, 71, 90
3, 43739, Note_on_c, 1, 71, 0
3, 43739, Note_on_c, 1, 67, 0
3, 43739, Note_on_c, 1, 64, 0
3, 43740, Note_on_c, 1, 76, 90
3, 43769, Note_on_c, 1, 76, 0
3, 43770, Note_on_c, 1, 75, 90
3, 43799, Note_on_c, 1, 75, 0
3, 43800, Note_on_c, 1, 76, 90
3, 43919, Note_on_c, 1, 76, 0
3, 43950, Note_on_c, 1, 74, 90
3, 43979, Note_on_c, 1, 74, 0
3, 43980, Note_on_c, 1, 73, 90
3, 44009, Note_on_c, 1, 73, 0
3, 44010, Note_on_c, 1, 76, 90
3, 44039, Note_on_c, 1, 76, 0
3, 44040, Note_on_c, 1, 81, 90
3, 44069, Note_on_c, 1, 81, 0
3, 44070, Note_on_c, 1, 76, 90
3, 44099, Note_on_c, 1, 76, 0
3, 44100, Note_on_c, 1, 73, 90
3, 44129, Note_on_c, 1, 73, 0
3, 44130, Note_on_c, 1, 76, 90
3, 44159, Note_on_c, 1, 76, 0
3, 44160, Note_on_c, 1, 78, 90
3, 44219, Note_on_c, 1, 78, 0
3, 44220, Note_on_c, 1, 69, 90
3, 44220, Note_on_c, 1, 73, 90
3, 44220, Note_on_c, 1, 78, 90
3, 44279, Note_on_c, 1, 73, 0
3, 44279, Note_on_c, 1, 69, 0
3, 44280, Note_on_c, 1, 71, 90
3, 44280, Note_on_c, 1, 66, 90
3, 44339, Note_on_c, 1, 66, 0
3, 44339, Note_on_c, 1, 71, 0
3, 44339, Note_on_c, 1, 78, 0
3, 44340, Note_on_c, 1, 76, 90
3, 44369, Note_on_c, 1, 76, 0
3, 44370, Note_on_c, 1, 75, 90
3, 44399, Note_on_c, 1, 75, 0
3, 44400, Note_on_c, 1, 76, 90
3, 44459, Note_on_c, 1, 76, 0
3, 44460, Note_on_c, 1, 67, 90
3, 44460, Note_on_c, 1, 71, 90
3, 44460, Note_on_c, 1, 76, 90
3, 44519, Note_on_c, 1, 71, 0
3, 44519, Note_on_c, 1, 67, 0
3, 44520, Note_on_c, 1, 64, 90
3, 44520, Note_on_c, 1, 69, 90
3, 44579, Note_on_c, 1, 69, 0
3, 44579, Note_on_c, 1, 64, 0
3, 44579, Note_on_c, 1, 76, 0
3, 44580, Note_on_c, 1, 74, 90
3, 44609, Note_on_c, 1, 74, 0
3, 44610, Note_on_c, 1, 73, 90
3, 44639, Note_on_c, 1, 73, 0
3, 44640, Note_on_c, 1, 74, 90
3, 44699, Note_on_c, 1, 74, 0
3, 44700, Note_on_c, 1, 73, 90
3, 44729, Note_on_c, 1, 73, 0
3, 44730, Note_on_c, 1, 71, 90
3, 44759, Note_on_c, 1, 71, 0
3, 44760, Note_on_c, 1, 69, 90
3, 44789, Note_on_c, 1, 69, 0
3, 44790, Note_on_c, 1, 67, 90
3, 44819, Note_on_c, 1, 67, 0
3, 44820, Note_on_c, 1, 66, 90
3, 44849, Note_on_c, 1, 66, 0
3, 44850, Note_on_c, 1, 64, 90
3, 44879, Note_on_c, 1, 64, 0
3, 44880, Note_on_c, 1, 62, 90
3, 44999, Note_on_c, 1, 62, 0
3, 45060, Note_on_c, 1, 74, 90
3, 45060, Note_on_c, 1, 78, 90
3, 45060, Note_on_c, 1, 81, 90
3, 45119, Note_on_c, 1, 81, 0
3, 45119, Note_on_c, 1, 78, 0
3, 45119, Note_on_c, 1, 74, 0
3, 45120, Note_on_c, 1, 74, 90
3, 45120, Note_on_c, 1, 78, 90
3, 45120, Note_on_c, 1, 81, 90
3, 45179, Note_on_c, 1, 81, 0
3, 45179, Note_on_c, 1, 78, 0
3, 45179, Note_on_c, 1, 74, 0
3, 45180, Note_on_c, 1, 72, 90
3, 45180, Note_on_c, 1, 78, 90
3, 45180, Note_on_c, 1, 81, 90
3, 45239, Note_on_c, 1, 81, 0
3, 45239, Note_on_c, 1, 78, 0
3, 45239, Note_on_c, 1, 72, 0
3, 45240, Note_on_c, 1, 71, 90
3, 45240, Note_on_c, 1, 76, 90
3, 45240, Note_on_c, 1, 79, 90
3, 45299, Note_on_c, 1, 79, 0
3, 45299, Note_on_c, 1, 76, 0
3, 45299, Note_on_c, 1, 71, 0
3, 45300, Note_on_c, 1, 79, 90
3, 45300, Note_on_c, 1, 76, 90
3, 45300, Note_on_c, 1, 74, 90
3, 45359, Note_on_c, 1, 74, 0
3, 45359, Note_on_c, 1, 76, 0
3, 45359, Note_on_c, 1, 79, 0
3, 45360, Note_on_c, 1, 79, 90
3, 45360, Note_on_c, 1, 76, 90
3, 45360, Note_on_c, 1, 73, 90
3, 45419, Note_on_c, 1, 73, 0
3, 45419, Note_on_c, 1, 76, 0
3, 45419, Note_on_c, 1, 79, 0
3, 45420, Note_on_c, 1, 76, 90
3, 45420, Note_on_c, 1, 71, 90
3, 45420, Note_on_c, 1, 79, 90
3, 45479, Note_on_c, 1, 79, 0
3, 45479, Note_on_c, 1, 71, 0
3, 45479, Note_on_c, 1, 76, 0
3, 45480, Note_on_c, 1, 74, 90
3, 45480, Note_on_c, 1, 78, 90
3, 45480, Note_on_c, 1, 69, 90
3, 45539, Note_on_c, 1, 69, 0
3, 45539, Note_on_c, 1, 78, 0
3, 45539, Note_on_c, 1, 74, 0
3, 45540, Note_on_c, 1, 72, 90
3, 45540, Note_on_c, 1, 78, 90
3, 45540, Note_on_c, 1, 74, 90
3, 45599, Note_on_c, 1, 74, 0
3, 45599, Note_on_c, 1, 78, 0
3, 45599, Note_on_c, 1, 72, 0
3, 45600, Note_on_c, 1, 71, 90
3, 45600, Note_on_c, 1, 74, 90
3, 45600, Note_on_c, 1, 78, 90
3, 45659, Note_on_c, 1, 78, 0
3, 45659, Note_on_c, 1, 74, 0
3, 45659, Note_on_c, 1, 71, 0
3, 45660, Note_on_c, 1, 74, 90
3, 45660, Note_on_c, 1, 69, 90
3, 45660, Note_on_c, 1, 78, 90
3, 45719, Note_on_c, 1, 78, 0
3, 45719, Note_on_c, 1, 69, 0
3, 45719, Note_on_c, 1, 74, 0
3, 45720, Note_on_c, 1, 67, 90
3, 45720, Note_on_c, 1, 74, 90
3, 45720, Note_on_c, 1, 76, 90
3, 45780, Note_on_c, 1, 73, 90
3, 45809, Note_on_c, 1, 73, 0
3, 45810, Note_on_c, 1, 71, 90
3, 45839, Note_on_c, 1, 71, 0
3, 45840, Note_on_c, 1, 76, 0
3, 45840, Note_on_c, 1, 73, 90
3, 45869, Note_on_c, 1, 73, 0
3, 45870, Note_on_c, 1, 74, 0
3, 45870, Note_on_c, 1, 67, 0
3, 45870, Note_on_c, 1, 74, 90
3, 45899, Note_on_c, 1, 74, 0
3, 45900, Note_on_c, 1, 76, 90
3, 45929, Note_on_c, 1, 76, 0
3, 45930, Note_on_c, 1, 73, 90
3, 45959, Note_on_c, 1, 73, 0
3, 45960, Note_on_c, 1, 69, 90
3, 45989, Note_on_c, 1, 69, 0
3, 45990, Note_on_c, 1, 71, 90
3, 46019, Note_on_c, 1, 71, 0
3, 46020, Note_on_c, 1, 73, 90
3, 46049, Note_on_c, 1, 73, 0
3, 46050, Note_on_c, 1, 76, 90
3, 46079, Note_on_c, 1, 76, 0
3, 46080, Note_on_c, 1, 74, 90
3, 46109, Note_on_c, 1, 74, 0
3, 46110, Note_on_c, 1, 76, 90
3, 46139, Note_on_c, 1, 76, 0
3, 46140, Note_on_c, 1, 77, 90
3, 46259, Note_on_c, 1, 77, 0
3, 46260, Note_on_c, 1, 76, 90
3, 46289, Note_on_c, 1, 76, 0
3, 46290, Note_on_c, 1, 74, 90
3, 46319, Note_on_c, 1, 74, 0
3, 46320, Note_on_c, 1, 73, 90
3, 46349, Note_on_c, 1, 73, 0
3, 46350, Note_on_c, 1, 74, 90
3, 46379, Note_on_c, 1, 74, 0
3, 46380, Note_on_c, 1, 76, 90
3, 46499, Note_on_c, 1, 76, 0
3, 46500, Note_on_c, 1, 74, 90
3, 46529, Note_on_c, 1, 74, 0
3, 46530, Note_on_c, 1, 73, 90
3, 46559, Note_on_c, 1, 73, 0
3, 46560, Note_on_c, 1, 81, 90
3, 46619, Note_on_c, 1, 81, 0
3, 46620, Note_on_c, 1, 79, 90
3, 46649, Note_on_c, 1, 79, 0
3, 46650, Note_on_c, 1, 78, 90
3, 46679, Note_on_c, 1, 78, 0
3, 46680, Note_on_c, 1, 79, 90
3, 46709, Note_on_c, 1, 79, 0
3, 46710, Note_on_c, 1, 78, 90
3, 46739, Note_on_c, 1, 78, 0
3, 46740, Note_on_c, 1, 76, 90
3, 46769, Note_on_c, 1, 76, 0
3, 46770, Note_on_c, 1, 78, 90
3, 46799, Note_on_c, 1, 78, 0
3, 46800, Note_on_c, 1, 66, 90
3, 46800, Note_on_c, 1, 74, 90
3, 46800, Note_on_c, 1, 69, 90
3, 47039, Note_on_c, 1, 69, 0
3, 47039, Note_on_c, 1, 74, 0
3, 47039, Note_on_c, 1, 66, 0
3, 47460, Note_on_c, 1, 74, 100
3, 47460, Note_on_c, 1, 66, 100
3, 47580, Note_on_c, 1, 66, 0
3, 47580, Note_on_c, 1, 74, 0
3, 47580, Note_on_c, 1, 73, 100
3, 47580, Note_on_c, 1, 66, 100
3, 47640, Note_on_c, 1, 66, 0
3, 47640, Note_on_c, 1, 73, 0
3, 47640, Note_on_c, 1, 64, 100
3, 47640, Note_on_c, 1, 71, 100
3, 47820, Note_on_c, 1, 71, 0
3, 47820, Note_on_c, 1, 64, 0
3, 47820, Note_on_c, 1, 70, 90
3, 47820, Note_on_c, 1, 67, 90
3, 47820, Note_on_c, 1, 64, 90
3, 47880, Note_on_c, 1, 70, 0
3, 47880, Note_on_c, 1, 66, 90
3, 47940, Note_on_c, 1, 66, 0
3, 47940, Note_on_c, 1, 64, 90
3, 47999, Note_on_c, 1, 64, 0
3, 47999, Note_on_c, 1, 67, 0
3, 48000, Note_on_c, 1, 64, 0
3, 48000, Note_on_c, 1, 66, 90
3, 48000, Note_on_c, 1, 62, 90
3, 48120, Note_on_c, 1, 62, 0
3, 48120, Note_on_c, 1, 66, 0
3, 48120, Note_on_c, 1, 74, 90
3, 48120, Note_on_c, 1, 66, 90
3, 48120, Note_on_c, 1, 71, 90
3, 48179, Note_on_c, 1, 71, 0
3, 48179, Note_on_c, 1, 66, 0
3, 48179, Note_on_c, 1, 74, 0
3, 48180, Note_on_c, 1, 73, 90
3, 48180, Note_on_c, 1, 71, 90
3, 48300, Note_on_c, 1, 71, 0
3, 48300, Note_on_c, 1, 73, 0
3, 48300, Note_on_c, 1, 69, 90
3, 48300, Note_on_c, 1, 73, 90
3, 48360, Note_on_c, 1, 73, 0
3, 48360, Note_on_c, 1, 69, 0
3, 48360, Note_on_c, 1, 69, 90
3, 48360, Note_on_c, 1, 66, 90
3, 48419, Note_on_c, 1, 66, 0
3, 48419, Note_on_c, 1, 69, 0
3, 48420, Note_on_c, 1, 68, 90
3, 48479, Note_on_c, 1, 68, 0
3, 48480, Note_on_c, 1, 66, 90
3, 48480, Note_on_c, 1, 69, 90
3, 48539, Note_on_c, 1, 69, 0
3, 48539, Note_on_c, 1, 66, 0
3, 48540, Note_on_c, 1, 71, 90
3, 48540, Note_on_c, 1, 66, 90
3, 48570, Note_on_c, 1, 66, 0
3, 48570, Note_on_c, 1, 65, 90
3, 48600, Note_on_c, 1, 65, 0
3, 48600, Note_on_c, 1, 71, 0
3, 48600, Note_on_c, 1, 69, 90
3, 48600, Note_on_c, 1, 66, 90
3, 48660, Note_on_c, 1, 66, 0
3, 48660, Note_on_c, 1, 69, 0
3, 48660, Note_on_c, 1, 68, 90
3, 48660, Note_on_c, 1, 66, 90
3, 48720, Note_on_c, 1, 66, 0
3, 48720, Note_on_c, 1, 68, 0
3, 48720, Note_on_c, 1, 68, 90
3, 48720, Note_on_c, 1, 65, 90
3, 48840, Note_on_c, 1, 65, 0
3, 48840, Note_on_c, 1, 68, 0
3, 48840, Note_on_c, 1, 73, 90
3, 48899, Note_on_c, 1, 73, 0
3, 48900, Note_on_c, 1, 78, 90
3, 48907, Note_on_c, 1, 76, 90
3, 48908, Note_on_c, 1, 78, 0
3, 48915, Note_on_c, 1, 76, 0
3, 48915, Note_on_c, 1, 78, 90
3, 48990, Note_on_c, 1, 81, 90
3, 49005, Note_on_c, 1, 78, 0
3, 49019, Note_on_c, 1, 81, 0
3, 49020, Note_on_c, 1, 80, 90
3, 49079, Note_on_c, 1, 80, 0
3, 49080, Note_on_c, 1, 78, 90
3, 49139, Note_on_c, 1, 78, 0
3, 49140, Note_on_c, 1, 78, 90
3, 49154, Note_on_c, 1, 78, 0
3, 49155, Note_on_c, 1, 80, 90
3, 49169, Note_on_c, 1, 80, 0
3, 49170, Note_on_c, 1, 81, 90
3, 49199, Note_on_c, 1, 81, 0
3, 49200, Note_on_c, 1, 80, 90
3, 49259, Note_on_c, 1, 80, 0
3, 49260, Note_on_c, 1, 71, 90
3, 49274, Note_on_c, 1, 71, 0
3, 49275, Note_on_c, 1, 73, 90
3, 49289, Note_on_c, 1, 73, 0
3, 49290, Note_on_c, 1, 74, 90
3, 49349, Note_on_c, 1, 74, 0
3, 49350, Note_on_c, 1, 73, 90
3, 49379, Note_on_c, 1, 73, 0
3, 49380, Note_on_c, 1, 71, 90
3, 49439, Note_on_c, 1, 71, 0
3, 49440, Note_on_c, 1, 69, 90
3, 49499, Note_on_c, 1, 69, 0
3, 49500, Note_on_c, 1, 68, 90
3, 49529, Note_on_c, 1, 68, 0
3, 49530, Note_on_c, 1, 66, 90
3, 49559, Note_on_c, 1, 66, 0
3, 49560, Note_on_c, 1, 78, 90
3, 49679, Note_on_c, 1, 78, 0
3, 49680, Note_on_c, 1, 76, 90
3, 49709, Note_on_c, 1, 76, 0
3, 49710, Note_on_c, 1, 75, 90
3, 49739, Note_on_c, 1, 75, 0
3, 49740, Note_on_c, 1, 76, 90
3, 49859, Note_on_c, 1, 76, 0
3, 49860, Note_on_c, 1, 75, 90
3, 49874, Note_on_c, 1, 75, 0
3, 49875, Note_on_c, 1, 73, 90
3, 49889, Note_on_c, 1, 73, 0
3, 49890, Note_on_c, 1, 72, 90
3, 49919, Note_on_c, 1, 72, 0
3, 49920, Note_on_c, 1, 73, 90
3, 50009, Note_on_c, 1, 73, 0
3, 50010, Note_on_c, 1, 81, 90
3, 50039, Note_on_c, 1, 81, 0
3, 50040, Note_on_c, 1, 80, 90
3, 50069, Note_on_c, 1, 80, 0
3, 50070, Note_on_c, 1, 78, 90
3, 50099, Note_on_c, 1, 78, 0
3, 50100, Note_on_c, 1, 80, 90
3, 50129, Note_on_c, 1, 80, 0
3, 50130, Note_on_c, 1, 81, 90
3, 50159, Note_on_c, 1, 81, 0
3, 50160, Note_on_c, 1, 72, 90
3, 50189, Note_on_c, 1, 72, 0
3, 50190, Note_on_c, 1, 73, 90
3, 50219, Note_on_c, 1, 73, 0
3, 50220, Note_on_c, 1, 75, 90
3, 50249, Note_on_c, 1, 75, 0
3, 50250, Note_on_c, 1, 78, 90
3, 50279, Note_on_c, 1, 78, 0
3, 50280, Note_on_c, 1, 76, 90
3, 50309, Note_on_c, 1, 76, 0
3, 50310, Note_on_c, 1, 75, 90
3, 50339, Note_on_c, 1, 75, 0
3, 50340, Note_on_c, 1, 76, 90
3, 50369, Note_on_c, 1, 76, 0
3, 50370, Note_on_c, 1, 78, 90
3, 50399, Note_on_c, 1, 78, 0
3, 50400, Note_on_c, 1, 80, 90
3, 50429, Note_on_c, 1, 80, 0
3, 50430, Note_on_c, 1, 83, 90
3, 50459, Note_on_c, 1, 83, 0
3, 50460, Note_on_c, 1, 81, 90
3, 50489, Note_on_c, 1, 81, 0
3, 50490, Note_on_c, 1, 80, 90
3, 50519, Note_on_c, 1, 80, 0
3, 50520, Note_on_c, 1, 81, 90
3, 50579, Note_on_c, 1, 81, 0
3, 50580, Note_on_c, 1, 72, 90
3, 50639, Note_on_c, 1, 72, 0
3, 50640, Note_on_c, 1, 73, 90
3, 50699, Note_on_c, 1, 73, 0
3, 50700, Note_on_c, 1, 73, 90
3, 50714, Note_on_c, 1, 73, 0
3, 50715, Note_on_c, 1, 75, 90
3, 50729, Note_on_c, 1, 75, 0
3, 50730, Note_on_c, 1, 76, 90
3, 50789, Note_on_c, 1, 76, 0
3, 50790, Note_on_c, 1, 75, 90
3, 50819, Note_on_c, 1, 75, 0
3, 50820, Note_on_c, 1, 73, 90
3, 50879, Note_on_c, 1, 73, 0
3, 50880, Note_on_c, 1, 73, 90
3, 50999, Note_on_c, 1, 73, 0
3, 51000, Note_on_c, 1, 76, 90
3, 51059, Note_on_c, 1, 76, 0
3, 51060, Note_on_c, 1, 66, 90
3, 51149, Note_on_c, 1, 66, 0
3, 51150, Note_on_c, 1, 68, 90
3, 51164, Note_on_c, 1, 68, 0
3, 51165, Note_on_c, 1, 69, 90
3, 51179, Note_on_c, 1, 69, 0
3, 51180, Note_on_c, 1, 71, 90
3, 51209, Note_on_c, 1, 71, 0
3, 51210, Note_on_c, 1, 73, 90
3, 51239, Note_on_c, 1, 73, 0
3, 51240, Note_on_c, 1, 74, 90
3, 51269, Note_on_c, 1, 74, 0
3, 51270, Note_on_c, 1, 73, 90
3, 51299, Note_on_c, 1, 73, 0
3, 51300, Note_on_c, 1, 71, 90
3, 51359, Note_on_c, 1, 71, 0
3, 51360, Note_on_c, 1, 74, 90
3, 51374, Note_on_c, 1, 74, 0
3, 51375, Note_on_c, 1, 76, 90
3, 51389, Note_on_c, 1, 76, 0
3, 51390, Note_on_c, 1, 78, 90
3, 51419, Note_on_c, 1, 78, 0
3, 51420, Note_on_c, 1, 76, 90
3, 51509, Note_on_c, 1, 76, 0
3, 51510, Note_on_c, 1, 71, 90
3, 51539, Note_on_c, 1, 71, 0
3, 51540, Note_on_c, 1, 73, 90
3, 51599, Note_on_c, 1, 73, 0
3, 51600, Note_on_c, 1, 68, 90
3, 51659, Note_on_c, 1, 68, 0
3, 51660, Note_on_c, 1, 66, 90
3, 51689, Note_on_c, 1, 66, 0
3, 51690, Note_on_c, 1, 64, 90
3, 51719, Note_on_c, 1, 64, 0
3, 51720, Note_on_c, 1, 76, 90
3, 51839, Note_on_c, 1, 76, 0
3, 51840, Note_on_c, 1, 80, 90
3, 51869, Note_on_c, 1, 80, 0
3, 51870, Note_on_c, 1, 78, 90
3, 51899, Note_on_c, 1, 78, 0
3, 51900, Note_on_c, 1, 81, 90
3, 51929, Note_on_c, 1, 81, 0
3, 51930, Note_on_c, 1, 80, 90
3, 51959, Note_on_c, 1, 80, 0
3, 51960, Note_on_c, 1, 81, 90
3, 52139, Note_on_c, 1, 81, 0
3, 52170, Note_on_c, 1, 78, 90
3, 52199, Note_on_c, 1, 78, 0
3, 52200, Note_on_c, 1, 80, 90
3, 52229, Note_on_c, 1, 80, 0
3, 52230, Note_on_c, 1, 81, 90
3, 52259, Note_on_c, 1, 81, 0
3, 52260, Note_on_c, 1, 83, 90
3, 52349, Note_on_c, 1, 83, 0
3, 52350, Note_on_c, 1, 81, 90
3, 52379, Note_on_c, 1, 81, 0
3, 52380, Note_on_c, 1, 80, 90
3, 52409, Note_on_c, 1, 80, 0
3, 52410, Note_on_c, 1, 78, 90
3, 52439, Note_on_c, 1, 78, 0
3, 52440, Note_on_c, 1, 76, 90
3, 52469, Note_on_c, 1, 76, 0
3, 52470, Note_on_c, 1, 80, 90
3, 52499, Note_on_c, 1, 80, 0
3, 52500, Note_on_c, 1, 81, 90
3, 52589, Note_on_c, 1, 81, 0
3, 52590, Note_on_c, 1, 85, 90
3, 52619, Note_on_c, 1, 85, 0
3, 52620, Note_on_c, 1, 83, 90
3, 52679, Note_on_c, 1, 83, 0
3, 52680, Note_on_c, 1, 81, 90
3, 52739, Note_on_c, 1, 81, 0
3, 52740, Note_on_c, 1, 81, 90
3, 52754, Note_on_c, 1, 81, 0
3, 52755, Note_on_c, 1, 83, 90
3, 52769, Note_on_c, 1, 83, 0
3, 52770, Note_on_c, 1, 85, 90
3, 52799, Note_on_c, 1, 85, 0
3, 52800, Note_on_c, 1, 83, 90
3, 52859, Note_on_c, 1, 83, 0
3, 52860, Note_on_c, 1, 74, 90
3, 52874, Note_on_c, 1, 74, 0
3, 52875, Note_on_c, 1, 76, 90
3, 52889, Note_on_c, 1, 76, 0
3, 52890, Note_on_c, 1, 78, 90
3, 52949, Note_on_c, 1, 78, 0
3, 52950, Note_on_c, 1, 76, 90
3, 52979, Note_on_c, 1, 76, 0
3, 52980, Note_on_c, 1, 74, 90
3, 53039, Note_on_c, 1, 74, 0
3, 53040, Note_on_c, 1, 73, 90
3, 53047, Note_on_c, 1, 74, 90
3, 53048, Note_on_c, 1, 73, 0
3, 53055, Note_on_c, 1, 74, 0
3, 53055, Note_on_c, 1, 73, 90
3, 53100, Note_on_c, 1, 73, 0
3, 53100, Note_on_c, 1, 71, 90
3, 53129, Note_on_c, 1, 71, 0
3, 53130, Note_on_c, 1, 69, 90
3, 53159, Note_on_c, 1, 69, 0
3, 53160, Note_on_c, 1, 81, 90
3, 53279, Note_on_c, 1, 81, 0
3, 53280, Note_on_c, 1, 79, 90
3, 53309, Note_on_c, 1, 79, 0
3, 53310, Note_on_c, 1, 78, 90
3, 53339, Note_on_c, 1, 78, 0
3, 53340, Note_on_c, 1, 79, 90
3, 53459, Note_on_c, 1, 79, 0
3, 53460, Note_on_c, 1, 78, 90
3, 53474, Note_on_c, 1, 78, 0
3, 53475, Note_on_c, 1, 76, 90
3, 53489, Note_on_c, 1, 76, 0
3, 53490, Note_on_c, 1, 75, 90
3, 53519, Note_on_c, 1, 75, 0
3, 53520, Note_on_c, 1, 76, 90
3, 53609, Note_on_c, 1, 76, 0
3, 53610, Note_on_c, 1, 84, 90
3, 53639, Note_on_c, 1, 84, 0
3, 53640, Note_on_c, 1, 83, 90
3, 53669, Note_on_c, 1, 83, 0
3, 53670, Note_on_c, 1, 81, 90
3, 53699, Note_on_c, 1, 81, 0
3, 53700, Note_on_c, 1, 83, 90
3, 53729, Note_on_c, 1, 83, 0
3, 53730, Note_on_c, 1, 84, 90
3, 53759, Note_on_c, 1, 84, 0
3, 53760, Note_on_c, 1, 75, 90
3, 53789, Note_on_c, 1, 75, 0
3, 53790, Note_on_c, 1, 76, 90
3, 53819, Note_on_c, 1, 76, 0
3, 53820, Note_on_c, 1, 78, 90
3, 53849, Note_on_c, 1, 78, 0
3, 53850, Note_on_c, 1, 81, 90
3, 53879, Note_on_c, 1, 81, 0
3, 53880, Note_on_c, 1, 79, 90
3, 53909, Note_on_c, 1, 79, 0
3, 53910, Note_on_c, 1, 78, 90
3, 53939, Note_on_c, 1, 78, 0
3, 53940, Note_on_c, 1, 79, 90
3, 53969, Note_on_c, 1, 79, 0
3, 53970, Note_on_c, 1, 81, 90
3, 53999, Note_on_c, 1, 81, 0
3, 54000, Note_on_c, 1, 83, 90
3, 54059, Note_on_c, 1, 83, 0
3, 54060, Note_on_c, 1, 76, 90
3, 54074, Note_on_c, 1, 76, 0
3, 54075, Note_on_c, 1, 75, 90
3, 54089, Note_on_c, 1, 75, 0
3, 54090, Note_on_c, 1, 73, 90
3, 54104, Note_on_c, 1, 73, 0
3, 54105, Note_on_c, 1, 75, 90
3, 54119, Note_on_c, 1, 75, 0
3, 54120, Note_on_c, 1, 76, 90
3, 54299, Note_on_c, 1, 76, 0
3, 54330, Note_on_c, 1, 78, 90
3, 54359, Note_on_c, 1, 78, 0
3, 54360, Note_on_c, 1, 75, 90
3, 54389, Note_on_c, 1, 75, 0
3, 54390, Note_on_c, 1, 76, 90
3, 54419, Note_on_c, 1, 76, 0
3, 54420, Note_on_c, 1, 78, 90
3, 54509, Note_on_c, 1, 78, 0
3, 54510, Note_on_c, 1, 79, 90
3, 54539, Note_on_c, 1, 79, 0
3, 54540, Note_on_c, 1, 81, 90
3, 54569, Note_on_c, 1, 81, 0
3, 54570, Note_on_c, 1, 78, 90
3, 54599, Note_on_c, 1, 78, 0
3, 54600, Note_on_c, 1, 79, 90
3, 54629, Note_on_c, 1, 79, 0
3, 54630, Note_on_c, 1, 76, 90
3, 54659, Note_on_c, 1, 76, 0
3, 54660, Note_on_c, 1, 81, 90
3, 54689, Note_on_c, 1, 81, 0
3, 54690, Note_on_c, 1, 84, 90
3, 54719, Note_on_c, 1, 84, 0
3, 54720, Note_on_c, 1, 83, 90
3, 54749, Note_on_c, 1, 83, 0
3, 54750, Note_on_c, 1, 81, 90
3, 54779, Note_on_c, 1, 81, 0
3, 54780, Note_on_c, 1, 83, 90
3, 54809, Note_on_c, 1, 83, 0
3, 54810, Note_on_c, 1, 80, 90
3, 54839, Note_on_c, 1, 80, 0
3, 54840, Note_on_c, 1, 76, 90
3, 54899, Note_on_c, 1, 76, 0
3, 54900, Note_on_c, 1, 79, 90
3, 54929, Note_on_c, 1, 79, 0
3, 54930, Note_on_c, 1, 78, 90
3, 54959, Note_on_c, 1, 78, 0
3, 54960, Note_on_c, 1, 76, 90
3, 54989, Note_on_c, 1, 76, 0
3, 54990, Note_on_c, 1, 75, 90
3, 55019, Note_on_c, 1, 75, 0
3, 55020, Note_on_c, 1, 83, 90
3, 55079, Note_on_c, 1, 83, 0
3, 55080, Note_on_c, 1, 71, 90
3, 55139, Note_on_c, 1, 71, 0
3, 55140, Note_on_c, 1, 75, 90
3, 55199, Note_on_c, 1, 75, 0
3, 55200, Note_on_c, 1, 76, 90
3, 55319, Note_on_c, 1, 76, 0
3, 55320, Note_on_c, 1, 66, 90
3, 55320, Note_on_c, 1, 71, 90
3, 55379, Note_on_c, 1, 71, 0
3, 55379, Note_on_c, 1, 66, 0
3, 55380, Note_on_c, 1, 64, 90
3, 55380, Note_on_c, 1, 66, 90
3, 55380, Note_on_c, 1, 70, 90
3, 55500, Note_on_c, 1, 70, 0
3, 55500, Note_on_c, 1, 66, 0
3, 55500, Note_on_c, 1, 64, 0
3, 55500, Note_on_c, 1, 65, 90
3, 55500, Note_on_c, 1, 70, 90
3, 55559, Note_on_c, 1, 70, 0
3, 55559, Note_on_c, 1, 65, 0
3, 55560, Note_on_c, 1, 62, 90
3, 55560, Note_on_c, 1, 66, 90
3, 55560, Note_on_c, 1, 71, 90
3, 55740, Note_on_c, 1, 71, 0
3, 55740, Note_on_c, 1, 66, 0
3, 55740, Note_on_c, 1, 62, 0
3, 55740, Note_on_c, 1, 67, 90
3, 55740, Note_on_c, 1, 72, 90
3, 55800, Note_on_c, 1, 72, 0
3, 55800, Note_on_c, 1, 67, 0
3, 55800, Note_on_c, 1, 72, 90
3, 55800, Note_on_c, 1, 75, 90
3, 55920, Note_on_c, 1, 75, 0
3, 55920, Note_on_c, 1, 72, 0
3, 55920, Note_on_c, 1, 67, 90
3, 55920, Note_on_c, 1, 71, 90
3, 56040, Note_on_c, 1, 71, 0
3, 56040, Note_on_c, 1, 67, 0
3, 56040, Note_on_c, 1, 74, 90
3, 56099, Note_on_c, 1, 74, 0
3, 56100, Note_on_c, 1, 79, 90
3, 56189, Note_on_c, 1, 79, 0
3, 56190, Note_on_c, 1, 83, 90
3, 56219, Note_on_c, 1, 83, 0
3, 56220, Note_on_c, 1, 81, 90
3, 56279, Note_on_c, 1, 81, 0
3, 56280, Note_on_c, 1, 79, 90
3, 56339, Note_on_c, 1, 79, 0
3, 56340, Note_on_c, 1, 79, 90
3, 56354, Note_on_c, 1, 79, 0
3, 56355, Note_on_c, 1, 81, 90
3, 56369, Note_on_c, 1, 81, 0
3, 56370, Note_on_c, 1, 83, 90
3, 56399, Note_on_c, 1, 83, 0
3, 56400, Note_on_c, 1, 81, 90
3, 56459, Note_on_c, 1, 81, 0
3, 56460, Note_on_c, 1, 76, 90
3, 56474, Note_on_c, 1, 76, 0
3, 56475, Note_on_c, 1, 74, 90
3, 56489, Note_on_c, 1, 74, 0
3, 56490, Note_on_c, 1, 72, 90
3, 56504, Note_on_c, 1, 72, 0
3, 56505, Note_on_c, 1, 74, 90
3, 56519, Note_on_c, 1, 74, 0
3, 56520, Note_on_c, 1, 76, 90
3, 56549, Note_on_c, 1, 76, 0
3, 56550, Note_on_c, 1, 74, 90
3, 56579, Note_on_c, 1, 74, 0
3, 56580, Note_on_c, 1, 72, 90
3, 56639, Note_on_c, 1, 72, 0
3, 56640, Note_on_c, 1, 71, 90
3, 56654, Note_on_c, 1, 71, 0
3, 56655, Note_on_c, 1, 69, 90
3, 56669, Note_on_c, 1, 69, 0
3, 56670, Note_on_c, 1, 71, 90
3, 56699, Note_on_c, 1, 71, 0
3, 56700, Note_on_c, 1, 69, 90
3, 56729, Note_on_c, 1, 69, 0
3, 56730, Note_on_c, 1, 67, 90
3, 56759, Note_on_c, 1, 67, 0
3, 56760, Note_on_c, 1, 79, 90
3, 56879, Note_on_c, 1, 79, 0
3, 56880, Note_on_c, 1, 78, 90
3, 56909, Note_on_c, 1, 78, 0
3, 56910, Note_on_c, 1, 76, 90
3, 56939, Note_on_c, 1, 76, 0
3, 56940, Note_on_c, 1, 78, 90
3, 57059, Note_on_c, 1, 78, 0
3, 57060, Note_on_c, 1, 76, 90
3, 57074, Note_on_c, 1, 76, 0
3, 57075, Note_on_c, 1, 74, 90
3, 57089, Note_on_c, 1, 74, 0
3, 57090, Note_on_c, 1, 73, 90
3, 57119, Note_on_c, 1, 73, 0
3, 57120, Note_on_c, 1, 74, 90
3, 57209, Note_on_c, 1, 74, 0
3, 57210, Note_on_c, 1, 83, 90
3, 57239, Note_on_c, 1, 83, 0
3, 57240, Note_on_c, 1, 81, 90
3, 57269, Note_on_c, 1, 81, 0
3, 57270, Note_on_c, 1, 79, 90
3, 57299, Note_on_c, 1, 79, 0
3, 57300, Note_on_c, 1, 81, 90
3, 57329, Note_on_c, 1, 81, 0
3, 57330, Note_on_c, 1, 83, 90
3, 57359, Note_on_c, 1, 83, 0
3, 57360, Note_on_c, 1, 73, 90
3, 57389, Note_on_c, 1, 73, 0
3, 57390, Note_on_c, 1, 74, 90
3, 57419, Note_on_c, 1, 74, 0
3, 57420, Note_on_c, 1, 76, 90
3, 57449, Note_on_c, 1, 76, 0
3, 57450, Note_on_c, 1, 79, 90
3, 57479, Note_on_c, 1, 79, 0
3, 57480, Note_on_c, 1, 78, 90
3, 57509, Note_on_c, 1, 78, 0
3, 57510, Note_on_c, 1, 76, 90
3, 57539, Note_on_c, 1, 76, 0
3, 57540, Note_on_c, 1, 78, 90
3, 57569, Note_on_c, 1, 78, 0
3, 57570, Note_on_c, 1, 79, 90
3, 57599, Note_on_c, 1, 79, 0
3, 57600, Note_on_c, 1, 81, 90
3, 57659, Note_on_c, 1, 81, 0
3, 57660, Note_on_c, 1, 74, 90
3, 57674, Note_on_c, 1, 74, 0
3, 57675, Note_on_c, 1, 73, 90
3, 57689, Note_on_c, 1, 73, 0
3, 57690, Note_on_c, 1, 71, 90
3, 57704, Note_on_c, 1, 71, 0
3, 57705, Note_on_c, 1, 73, 90
3, 57719, Note_on_c, 1, 73, 0
3, 57720, Note_on_c, 1, 74, 90
3, 57729, Note_on_c, 1, 74, 0
3, 57730, Note_on_c, 1, 76, 90
3, 57739, Note_on_c, 1, 76, 0
3, 57740, Note_on_c, 1, 74, 90
3, 57749, Note_on_c, 1, 74, 0
3, 57750, Note_on_c, 1, 76, 90
3, 57759, Note_on_c, 1, 76, 0
3, 57760, Note_on_c, 1, 74, 90
3, 57769, Note_on_c, 1, 74, 0
3, 57770, Note_on_c, 1, 76, 90
3, 57779, Note_on_c, 1, 76, 0
3, 57780, Note_on_c, 1, 74, 90
3, 57789, Note_on_c, 1, 74, 0
3, 57790, Note_on_c, 1, 76, 90
3, 57799, Note_on_c, 1, 76, 0
3, 57800, Note_on_c, 1, 74, 90
3, 57809, Note_on_c, 1, 74, 0
3, 57810, Note_on_c, 1, 76, 90
3, 57819, Note_on_c, 1, 76, 0
3, 57820, Note_on_c, 1, 74, 90
3, 57829, Note_on_c, 1, 74, 0
3, 57830, Note_on_c, 1, 76, 90
3, 57839, Note_on_c, 1, 76, 0
3, 57840, Note_on_c, 1, 74, 90
3, 57849, Note_on_c, 1, 74, 0
3, 57850, Note_on_c, 1, 76, 90
3, 57859, Note_on_c, 1, 76, 0
3, 57860, Note_on_c, 1, 74, 90
3, 57869, Note_on_c, 1, 74, 0
3, 57870, Note_on_c, 1, 76, 90
3, 57879, Note_on_c, 1, 76, 0
3, 57880, Note_on_c, 1, 74, 90
3, 57889, Note_on_c, 1, 74, 0
3, 57890, Note_on_c, 1, 76, 90
3, 57899, Note_on_c, 1, 76, 0
3, 57900, Note_on_c, 1, 74, 90
3, 57909, Note_on_c, 1, 74, 0
3, 57910, Note_on_c, 1, 76, 90
3, 57919, Note_on_c, 1, 76, 0
3, 57920, Note_on_c, 1, 74, 90
3, 57929, Note_on_c, 1, 74, 0
3, 57930, Note_on_c, 1, 76, 90
3, 57939, Note_on_c, 1, 76, 0
3, 57940, Note_on_c, 1, 74, 90
3, 57949, Note_on_c, 1, 74, 0
3, 57950, Note_on_c, 1, 76, 90
3, 57959, Note_on_c, 1, 76, 0
3, 57960, Note_on_c, 1, 74, 90
3, 57969, Note_on_c, 1, 74, 0
3, 57970, Note_on_c, 1, 76, 90
3, 57979, Note_on_c, 1, 76, 0
3, 57980, Note_on_c, 1, 74, 90
3, 57989, Note_on_c, 1, 74, 0
3, 57990, Note_on_c, 1, 76, 90
3, 57999, Note_on_c, 1, 76, 0
3, 58000, Note_on_c, 1, 74, 90
3, 58009, Note_on_c, 1, 74, 0
3, 58010, Note_on_c, 1, 76, 90
3, 58019, Note_on_c, 1, 76, 0
3, 58020, Note_on_c, 1, 74, 90
3, 58029, Note_on_c, 1, 74, 0
3, 58030, Note_on_c, 1, 76, 90
3, 58039, Note_on_c, 1, 76, 0
3, 58040, Note_on_c, 1, 74, 90
3, 58049, Note_on_c, 1, 74, 0
3, 58050, Note_on_c, 1, 76, 90
3, 58059, Note_on_c, 1, 76, 0
3, 58060, Note_on_c, 1, 74, 90
3, 58069, Note_on_c, 1, 74, 0
3, 58070, Note_on_c, 1, 76, 90
3, 58079, Note_on_c, 1, 76, 0
3, 58080, Note_on_c, 1, 74, 90
3, 58089, Note_on_c, 1, 74, 0
3, 58090, Note_on_c, 1, 76, 90
3, 58099, Note_on_c, 1, 76, 0
3, 58100, Note_on_c, 1, 74, 90
3, 58109, Note_on_c, 1, 74, 0
3, 58110, Note_on_c, 1, 76, 90
3, 58119, Note_on_c, 1, 76, 0
3, 58120, Note_on_c, 1, 74, 90
3, 58129, Note_on_c, 1, 74, 0
3, 58130, Note_on_c, 1, 76, 90
3, 58139, Note_on_c, 1, 76, 0
3, 58140, Note_on_c, 1, 74, 90
3, 58149, Note_on_c, 1, 74, 0
3, 58150, Note_on_c, 1, 76, 90
3, 58159, Note_on_c, 1, 76, 0
3, 58160, Note_on_c, 1, 74, 90
3, 58169, Note_on_c, 1, 74, 0
3, 58170, Note_on_c, 1, 76, 90
3, 58179, Note_on_c, 1, 76, 0
3, 58180, Note_on_c, 1, 74, 90
3, 58189, Note_on_c, 1, 74, 0
3, 58190, Note_on_c, 1, 76, 90
3, 58199, Note_on_c, 1, 76, 0
3, 58200, Note_on_c, 1, 74, 90
3, 58209, Note_on_c, 1, 74, 0
3, 58210, Note_on_c, 1, 76, 90
3, 58219, Note_on_c, 1, 76, 0
3, 58220, Note_on_c, 1, 74, 90
3, 58229, Note_on_c, 1, 74, 0
3, 58230, Note_on_c, 1, 76, 90
3, 58239, Note_on_c, 1, 76, 0
3, 58240, Note_on_c, 1, 74, 90
3, 58249, Note_on_c, 1, 74, 0
3, 58250, Note_on_c, 1, 76, 90
3, 58259, Note_on_c, 1, 76, 0
3, 58260, Note_on_c, 1, 74, 90
3, 58349, Note_on_c, 1, 74, 0
3, 58350, Note_on_c, 1, 73, 90
3, 58379, Note_on_c, 1, 73, 0
3, 58380, Note_on_c, 1, 76, 90
3, 58409, Note_on_c, 1, 76, 0
3, 58410, Note_on_c, 1, 74, 90
3, 58439, Note_on_c, 1, 74, 0
3, 58440, Note_on_c, 1, 76, 90
3, 58619, Note_on_c, 1, 76, 0
3, 58650, Note_on_c, 1, 73, 90
3, 58679, Note_on_c, 1, 73, 0
3, 58680, Note_on_c, 1, 74, 90
3, 58709, Note_on_c, 1, 74, 0
3, 58710, Note_on_c, 1, 76, 90
3, 58739, Note_on_c, 1, 76, 0
3, 58740, Note_on_c, 1, 78, 90
3, 58769, Note_on_c, 1, 78, 0
3, 58770, Note_on_c, 1, 79, 90
3, 58799, Note_on_c, 1, 79, 0
3, 58800, Note_on_c, 1, 81, 90
3, 58829, Note_on_c, 1, 81, 0
3, 58830, Note_on_c, 1, 78, 90
3, 58859, Note_on_c, 1, 78, 0
3, 58860, Note_on_c, 1, 76, 90
3, 58889, Note_on_c, 1, 76, 0
3, 58890, Note_on_c, 1, 75, 90
3, 58919, Note_on_c, 1, 75, 0
3, 58920, Note_on_c, 1, 73, 90
3, 58949, Note_on_c, 1, 73, 0
3, 58950, Note_on_c, 1, 71, 90
3, 58979, Note_on_c, 1, 71, 0
3, 58980, Note_on_c, 1, 79, 90
3, 59009, Note_on_c, 1, 79, 0
3, 59010, Note_on_c, 1, 78, 90
3, 59039, Note_on_c, 1, 78, 0
3, 59040, Note_on_c, 1, 76, 90
3, 59069, Note_on_c, 1, 76, 0
3, 59070, Note_on_c, 1, 74, 90
3, 59099, Note_on_c, 1, 74, 0
3, 59100, Note_on_c, 1, 73, 90
3, 59129, Note_on_c, 1, 73, 0
3, 59130, Note_on_c, 1, 71, 90
3, 59159, Note_on_c, 1, 71, 0
3, 59160, Note_on_c, 1, 70, 90
3, 59249, Note_on_c, 1, 70, 0
3, 59250, Note_on_c, 1, 71, 90
3, 59264, Note_on_c, 1, 71, 0
3, 59265, Note_on_c, 1, 73, 90
3, 59279, Note_on_c, 1, 73, 0
3, 59280, Note_on_c, 1, 74, 90
3, 59309, Note_on_c, 1, 74, 0
3, 59310, Note_on_c, 1, 76, 90
3, 59339, Note_on_c, 1, 76, 0
3, 59340, Note_on_c, 1, 78, 90
3, 59369, Note_on_c, 1, 78, 0
3, 59370, Note_on_c, 1, 70, 90
3, 59399, Note_on_c, 1, 70, 0
3, 59400, Note_on_c, 1, 71, 90
3, 59459, Note_on_c, 1, 71, 0
3, 59460, Note_on_c, 1, 79, 90
3, 59549, Note_on_c, 1, 79, 0
3, 59550, Note_on_c, 1, 77, 90
3, 59579, Note_on_c, 1, 77, 0
3, 59580, Note_on_c, 1, 78, 90
3, 59609, Note_on_c, 1, 78, 0
3, 59610, Note_on_c, 1, 82, 90
3, 59639, Note_on_c, 1, 82, 0
3, 59640, Note_on_c, 1, 83, 90
3, 59669, Note_on_c, 1, 83, 0
3, 59670, Note_on_c, 1, 85, 90
3, 59699, Note_on_c, 1, 85, 0
3, 59700, Note_on_c, 1, 86, 90
3, 59729, Note_on_c, 1, 86, 0
3, 59730, Note_on_c, 1, 85, 90
3, 59759, Note_on_c, 1, 85, 0
3, 59760, Note_on_c, 1, 83, 90
3, 59789, Note_on_c, 1, 83, 0
3, 59790, Note_on_c, 1, 81, 90
3, 59819, Note_on_c, 1, 81, 0
3, 59820, Note_on_c, 1, 79, 90
3, 59849, Note_on_c, 1, 79, 0
3, 59850, Note_on_c, 1, 78, 90
3, 59879, Note_on_c, 1, 78, 0
3, 59880, Note_on_c, 1, 76, 90
3, 59909, Note_on_c, 1, 76, 0
3, 59910, Note_on_c, 1, 74, 90
3, 59924, Note_on_c, 1, 74, 0
3, 59925, Note_on_c, 1, 73, 90
3, 59939, Note_on_c, 1, 73, 0
3, 59940, Note_on_c, 1, 74, 90
3, 59969, Note_on_c, 1, 74, 0
3, 59970, Note_on_c, 1, 76, 90
3, 59999, Note_on_c, 1, 76, 0
3, 60000, Note_on_c, 1, 78, 90
3, 60029, Note_on_c, 1, 78, 0
3, 60030, Note_on_c, 1, 79, 90
3, 60059, Note_on_c, 1, 79, 0
3, 60060, Note_on_c, 1, 73, 90
3, 60119, Note_on_c, 1, 73, 0
3, 60120, Note_on_c, 1, 66, 90
3, 60179, Note_on_c, 1, 66, 0
3, 60360, Note_on_c, 1, 71, 90
3, 60419, Note_on_c, 1, 71, 0
3, 60420, Note_on_c, 1, 76, 90
3, 60509, Note_on_c, 1, 76, 0
3, 60510, Note_on_c, 1, 79, 90
3, 60539, Note_on_c, 1, 79, 0
3, 60540, Note_on_c, 1, 78, 90
3, 60599, Note_on_c, 1, 78, 0
3, 60600, Note_on_c, 1, 76, 90
3, 60659, Note_on_c, 1, 76, 0
3, 60660, Note_on_c, 1, 76, 90
3, 60674, Note_on_c, 1, 76, 0
3, 60675, Note_on_c, 1, 78, 90
3, 60689, Note_on_c, 1, 78, 0
3, 60690, Note_on_c, 1, 79, 90
3, 60719, Note_on_c, 1, 79, 0
3, 60720, Note_on_c, 1, 78, 90
3, 60779, Note_on_c, 1, 78, 0
3, 60780, Note_on_c, 1, 78, 90
3, 60869, Note_on_c, 1, 78, 0
3, 60870, Note_on_c, 1, 81, 90
3, 60899, Note_on_c, 1, 81, 0
3, 60900, Note_on_c, 1, 79, 90
3, 60959, Note_on_c, 1, 79, 0
3, 60960, Note_on_c, 1, 78, 90
3, 61019, Note_on_c, 1, 78, 0
3, 61020, Note_on_c, 1, 78, 90
3, 61034, Note_on_c, 1, 78, 0
3, 61035, Note_on_c, 1, 79, 90
3, 61049, Note_on_c, 1, 79, 0
3, 61050, Note_on_c, 1, 81, 90
3, 61079, Note_on_c, 1, 81, 0
3, 61080, Note_on_c, 1, 79, 90
3, 61139, Note_on_c, 1, 79, 0
3, 61140, Note_on_c, 1, 79, 90
3, 61199, Note_on_c, 1, 79, 0
3, 61200, Note_on_c, 1, 79, 90
3, 61214, Note_on_c, 1, 79, 0
3, 61215, Note_on_c, 1, 81, 90
3, 61229, Note_on_c, 1, 81, 0
3, 61230, Note_on_c, 1, 83, 90
3, 61259, Note_on_c, 1, 83, 0
3, 61260, Note_on_c, 1, 81, 90
3, 61319, Note_on_c, 1, 81, 0
3, 61320, Note_on_c, 1, 81, 90
3, 61379, Note_on_c, 1, 81, 0
3, 61380, Note_on_c, 1, 81, 90
3, 61394, Note_on_c, 1, 81, 0
3, 61395, Note_on_c, 1, 83, 90
3, 61409, Note_on_c, 1, 83, 0
3, 61410, Note_on_c, 1, 84, 90
3, 61439, Note_on_c, 1, 84, 0
3, 61440, Note_on_c, 1, 83, 90
3, 61499, Note_on_c, 1, 83, 0
3, 61500, Note_on_c, 1, 79, 90
3, 61510, Note_on_c, 1, 79, 0
3, 61510, Note_on_c, 1, 81, 90
3, 61520, Note_on_c, 1, 81, 0
3, 61520, Note_on_c, 1, 79, 90
3, 61530, Note_on_c, 1, 79, 0
3, 61530, Note_on_c, 1, 81, 90
3, 61537, Note_on_c, 1, 79, 90
3, 61538, Note_on_c, 1, 81, 0
3, 61545, Note_on_c, 1, 79, 0
3, 61545, Note_on_c, 1, 81, 90
3, 61552, Note_on_c, 1, 79, 90
3, 61553, Note_on_c, 1, 81, 0
3, 61560, Note_on_c, 1, 79, 0
3, 61560, Note_on_c, 1, 81, 90
3, 61575, Note_on_c, 1, 81, 0
3, 61575, Note_on_c, 1, 79, 90
3, 61590, Note_on_c, 1, 79, 0
3, 61590, Note_on_c, 1, 78, 90
3, 61619, Note_on_c, 1, 78, 0
3, 61620, Note_on_c, 1, 76, 90
3, 61679, Note_on_c, 1, 76, 0
3, 61680, Note_on_c, 1, 85, 90
3, 62039, Note_on_c, 1, 85, 0
3, 62070, Note_on_c, 1, 83, 90
3, 62084, Note_on_c, 1, 83, 0
3, 62085, Note_on_c, 1, 82, 90
3, 62099, Note_on_c, 1, 82, 0
3, 62100, Note_on_c, 1, 83, 90
3, 62129, Note_on_c, 1, 83, 0
3, 62130, Note_on_c, 1, 85, 90
3, 62159, Note_on_c, 1, 85, 0
3, 62160, Note_on_c, 1, 86, 90
3, 62189, Note_on_c, 1, 86, 0
3, 62190, Note_on_c, 1, 83, 90
3, 62219, Note_on_c, 1, 83, 0
3, 62220, Note_on_c, 1, 79, 90
3, 62399, Note_on_c, 1, 79, 0
3, 62430, Note_on_c, 1, 78, 90
3, 62459, Note_on_c, 1, 78, 0
3, 62460, Note_on_c, 1, 76, 90
3, 62489, Note_on_c, 1, 76, 0
3, 62490, Note_on_c, 1, 74, 90
3, 62519, Note_on_c, 1, 74, 0
3, 62520, Note_on_c, 1, 73, 90
3, 62549, Note_on_c, 1, 73, 0
3, 62550, Note_on_c, 1, 74, 90
3, 62564, Note_on_c, 1, 74, 0
3, 62565, Note_on_c, 1, 76, 90
3, 62579, Note_on_c, 1, 76, 0
3, 62580, Note_on_c, 1, 70, 90
3, 62699, Note_on_c, 1, 70, 0
3, 62760, Note_on_c, 1, 74, 90
3, 62760, Note_on_c, 1, 71, 90
3, 62819, Note_on_c, 1, 71, 0
3, 62819, Note_on_c, 1, 74, 0
3, 62820, Note_on_c, 1, 66, 90
3, 62820, Note_on_c, 1, 70, 90
3, 62879, Note_on_c, 1, 70, 0
3, 62879, Note_on_c, 1, 66, 0
3, 62880, Note_on_c, 1, 71, 90
3, 62880, Note_on_c, 1, 67, 90
3, 62939, Note_on_c, 1, 67, 0
3, 62939, Note_on_c, 1, 71, 0
3, 62940, Note_on_c, 1, 71, 90
3, 62940, Note_on_c, 1, 67, 90
3, 62970, Note_on_c, 1, 71, 0
3, 62970, Note_on_c, 1, 70, 90
3, 62999, Note_on_c, 1, 67, 0
3, 63000, Note_on_c, 1, 70, 0
3, 63000, Note_on_c, 1, 66, 90
3, 63000, Note_on_c, 1, 71, 90
3, 63059, Note_on_c, 1, 71, 0
3, 63059, Note_on_c, 1, 66, 0
3, 63060, Note_on_c, 1, 67, 90
3, 63060, Note_on_c, 1, 73, 90
3, 63060, Note_on_c, 1, 71, 90
3, 63119, Note_on_c, 1, 71, 0
3, 63119, Note_on_c, 1, 73, 0
3, 63119, Note_on_c, 1, 67, 0
3, 63120, Note_on_c, 1, 66, 90
3, 63120, Note_on_c, 1, 70, 90
3, 63179, Note_on_c, 1, 70, 0
3, 63179, Note_on_c, 1, 66, 0
3, 63240, Note_on_c, 1, 78, 90
3, 63299, Note_on_c, 1, 78, 0
3, 63300, Note_on_c, 1, 83, 90
3, 63389, Note_on_c, 1, 83, 0
3, 63390, Note_on_c, 1, 86, 90
3, 63419, Note_on_c, 1, 86, 0
3, 63420, Note_on_c, 1, 85, 90
3, 63479, Note_on_c, 1, 85, 0
3, 63480, Note_on_c, 1, 83, 90
3, 63539, Note_on_c, 1, 83, 0
3, 63540, Note_on_c, 1, 83, 90
3, 63554, Note_on_c, 1, 83, 0
3, 63555, Note_on_c, 1, 85, 90
3, 63569, Note_on_c, 1, 85, 0
3, 63570, Note_on_c, 1, 86, 90
3, 63599, Note_on_c, 1, 86, 0
3, 63600, Note_on_c, 1, 85, 90
3, 63659, Note_on_c, 1, 85, 0
3, 63660, Note_on_c, 1, 76, 90
3, 63674, Note_on_c, 1, 76, 0
3, 63675, Note_on_c, 1, 78, 90
3, 63689, Note_on_c, 1, 78, 0
3, 63690, Note_on_c, 1, 79, 90
3, 63749, Note_on_c, 1, 79, 0
3, 63750, Note_on_c, 1, 78, 90
3, 63779, Note_on_c, 1, 78, 0
3, 63780, Note_on_c, 1, 76, 90
3, 63839, Note_on_c, 1, 76, 0
3, 63840, Note_on_c, 1, 74, 90
3, 63899, Note_on_c, 1, 74, 0
3, 63900, Note_on_c, 1, 73, 90
3, 63929, Note_on_c, 1, 73, 0
3, 63930, Note_on_c, 1, 71, 90
3, 63959, Note_on_c, 1, 71, 0
3, 63960, Note_on_c, 1, 83, 90
3, 64079, Note_on_c, 1, 83, 0
3, 64080, Note_on_c, 1, 81, 90
3, 64109, Note_on_c, 1, 81, 0
3, 64110, Note_on_c, 1, 79, 90
3, 64139, Note_on_c, 1, 79, 0
3, 64140, Note_on_c, 1, 81, 90
3, 64259, Note_on_c, 1, 81, 0
3, 64260, Note_on_c, 1, 79, 90
3, 64274, Note_on_c, 1, 79, 0
3, 64275, Note_on_c, 1, 78, 90
3, 64289, Note_on_c, 1, 78, 0
3, 64290, Note_on_c, 1, 76, 90
3, 64320, Note_on_c, 1, 76, 0
3, 64320, Note_on_c, 1, 78, 90
3, 64439, Note_on_c, 1, 78, 0
3, 64440, Note_on_c, 1, 76, 90
3, 64469, Note_on_c, 1, 76, 0
3, 64470, Note_on_c, 1, 75, 90
3, 64499, Note_on_c, 1, 75, 0
3, 64500, Note_on_c, 1, 76, 90
3, 64619, Note_on_c, 1, 76, 0
3, 64620, Note_on_c, 1, 74, 90
3, 64634, Note_on_c, 1, 74, 0
3, 64635, Note_on_c, 1, 72, 90
3, 64649, Note_on_c, 1, 72, 0
3, 64650, Note_on_c, 1, 71, 90
3, 64679, Note_on_c, 1, 71, 0
3, 64680, Note_on_c, 1, 72, 90
3, 64769, Note_on_c, 1, 72, 0
3, 64770, Note_on_c, 1, 79, 90
3, 64799, Note_on_c, 1, 79, 0
3, 64800, Note_on_c, 1, 78, 90
3, 64829, Note_on_c, 1, 78, 0
3, 64830, Note_on_c, 1, 76, 90
3, 64859, Note_on_c, 1, 76, 0
3, 64860, Note_on_c, 1, 78, 90
3, 64889, Note_on_c, 1, 78, 0
3, 64890, Note_on_c, 1, 79, 90
3, 64919, Note_on_c, 1, 79, 0
3, 64920, Note_on_c, 1, 70, 90
3, 64949, Note_on_c, 1, 70, 0
3, 64950, Note_on_c, 1, 71, 90
3, 64979, Note_on_c, 1, 71, 0
3, 64980, Note_on_c, 1, 73, 90
3, 65009, Note_on_c, 1, 73, 0
3, 65010, Note_on_c, 1, 76, 90
3, 65039, Note_on_c, 1, 76, 0
3, 65040, Note_on_c, 1, 74, 90
3, 65069, Note_on_c, 1, 74, 0
3, 65070, Note_on_c, 1, 73, 90
3, 65099, Note_on_c, 1, 73, 0
3, 65100, Note_on_c, 1, 71, 90
3, 65189, Note_on_c, 1, 71, 0
3, 65190, Note_on_c, 1, 70, 90
3, 65219, Note_on_c, 1, 70, 0
3, 65220, Note_on_c, 1, 71, 90
3, 65279, Note_on_c, 1, 71, 0
3, 65280, Note_on_c, 1, 70, 90
3, 65309, Note_on_c, 1, 70, 0
3, 65310, Note_on_c, 1, 79, 90
3, 65339, Note_on_c, 1, 79, 0
3, 65340, Note_on_c, 1, 78, 90
3, 65369, Note_on_c, 1, 78, 0
3, 65370, Note_on_c, 1, 76, 90
3, 65399, Note_on_c, 1, 76, 0
3, 65400, Note_on_c, 1, 74, 90
3, 65429, Note_on_c, 1, 74, 0
3, 65430, Note_on_c, 1, 73, 90
3, 65459, Note_on_c, 1, 73, 0
3, 65460, Note_on_c, 1, 71, 90
3, 65474, Note_on_c, 1, 71, 0
3, 65475, Note_on_c, 1, 73, 90
3, 65489, Note_on_c, 1, 73, 0
3, 65490, Note_on_c, 1, 71, 90
3, 65499, Note_on_c, 1, 71, 0
3, 65500, Note_on_c, 1, 73, 90
3, 65509, Note_on_c, 1, 73, 0
3, 65510, Note_on_c, 1, 71, 90
3, 65519, Note_on_c, 1, 71, 0
3, 65520, Note_on_c, 1, 73, 90
3, 65529, Note_on_c, 1, 73, 0
3, 65530, Note_on_c, 1, 71, 90
3, 65539, Note_on_c, 1, 71, 0
3, 65540, Note_on_c, 1, 73, 90
3, 65549, Note_on_c, 1, 73, 0
3, 65550, Note_on_c, 1, 71, 90
3, 65559, Note_on_c, 1, 71, 0
3, 65560, Note_on_c, 1, 73, 90
3, 65569, Note_on_c, 1, 73, 0
3, 65570, Note_on_c, 1, 71, 90
3, 65579, Note_on_c, 1, 71, 0
3, 65580, Note_on_c, 1, 73, 90
3, 65589, Note_on_c, 1, 73, 0
3, 65590, Note_on_c, 1, 71, 90
3, 65599, Note_on_c, 1, 71, 0
3, 65600, Note_on_c, 1, 73, 90
3, 65609, Note_on_c, 1, 73, 0
3, 65610, Note_on_c, 1, 71, 90
3, 65619, Note_on_c, 1, 71, 0
3, 65620, Note_on_c, 1, 73, 90
3, 65629, Note_on_c, 1, 73, 0
3, 65630, Note_on_c, 1, 71, 90
3, 65639, Note_on_c, 1, 71, 0
3, 65640, Note_on_c, 1, 73, 90
3, 65649, Note_on_c, 1, 73, 0
3, 65650, Note_on_c, 1, 71, 90
3, 65659, Note_on_c, 1, 71, 0
3, 65660, Note_on_c, 1, 73, 90
3, 65669, Note_on_c, 1, 73, 0
3, 65670, Note_on_c, 1, 71, 90
3, 65679, Note_on_c, 1, 71, 0
3, 65680, Note_on_c, 1, 73, 90
3, 65689, Note_on_c, 1, 73, 0
3, 65690, Note_on_c, 1, 71, 90
3, 65699, Note_on_c, 1, 71, 0
3, 65700, Note_on_c, 1, 73, 90
3, 65709, Note_on_c, 1, 73, 0
3, 65710, Note_on_c, 1, 71, 90
3, 65719, Note_on_c, 1, 71, 0
3, 65720, Note_on_c, 1, 73, 90
3, 65729, Note_on_c, 1, 73, 0
3, 65730, Note_on_c, 1, 71, 90
3, 65739, Note_on_c, 1, 71, 0
3, 65740, Note_on_c, 1, 73, 90
3, 65749, Note_on_c, 1, 73, 0
3, 65750, Note_on_c, 1, 71, 90
3, 65759, Note_on_c, 1, 71, 0
3, 65760, Note_on_c, 1, 73, 90
3, 65769, Note_on_c, 1, 73, 0
3, 65770, Note_on_c, 1, 71, 90
3, 65779, Note_on_c, 1, 71, 0
3, 65780, Note_on_c, 1, 73, 90
3, 65789, Note_on_c, 1, 73, 0
3, 65790, Note_on_c, 1, 71, 90
3, 65799, Note_on_c, 1, 71, 0
3, 65800, Note_on_c, 1, 73, 90
3, 65809, Note_on_c, 1, 73, 0
3, 65810, Note_on_c, 1, 71, 90
3, 65819, Note_on_c, 1, 71, 0
3, 65820, Note_on_c, 1, 73, 90
3, 65829, Note_on_c, 1, 73, 0
3, 65830, Note_on_c, 1, 71, 90
3, 65839, Note_on_c, 1, 71, 0
3, 65840, Note_on_c, 1, 73, 90
3, 65849, Note_on_c, 1, 73, 0
3, 65850, Note_on_c, 1, 71, 90
3, 65859, Note_on_c, 1, 71, 0
3, 65860, Note_on_c, 1, 73, 90
3, 65869, Note_on_c, 1, 73, 0
3, 65870, Note_on_c, 1, 71, 90
3, 65879, Note_on_c, 1, 71, 0
3, 65880, Note_on_c, 1, 73, 90
3, 65889, Note_on_c, 1, 73, 0
3, 65890, Note_on_c, 1, 71, 90
3, 65899, Note_on_c, 1, 71, 0
3, 65900, Note_on_c, 1, 73, 90
3, 65909, Note_on_c, 1, 73, 0
3, 65910, Note_on_c, 1, 71, 90
3, 65919, Note_on_c, 1, 71, 0
3, 65920, Note_on_c, 1, 73, 90
3, 65929, Note_on_c, 1, 73, 0
3, 65930, Note_on_c, 1, 71, 90
3, 65939, Note_on_c, 1, 71, 0
3, 65940, Note_on_c, 1, 73, 90
3, 65949, Note_on_c, 1, 73, 0
3, 65950, Note_on_c, 1, 71, 90
3, 65959, Note_on_c, 1, 71, 0
3, 65960, Note_on_c, 1, 73, 90
3, 65969, Note_on_c, 1, 73, 0
3, 65970, Note_on_c, 1, 71, 90
3, 65979, Note_on_c, 1, 71, 0
3, 65980, Note_on_c, 1, 73, 90
3, 65989, Note_on_c, 1, 73, 0
3, 65990, Note_on_c, 1, 71, 90
3, 65999, Note_on_c, 1, 71, 0
3, 66000, Note_on_c, 1, 73, 90
3, 66009, Note_on_c, 1, 73, 0
3, 66010, Note_on_c, 1, 71, 90
3, 66019, Note_on_c, 1, 71, 0
3, 66020, Note_on_c, 1, 73, 90
3, 66029, Note_on_c, 1, 73, 0
3, 66030, Note_on_c, 1, 71, 90
3, 66039, Note_on_c, 1, 71, 0
3, 66040, Note_on_c, 1, 73, 90
3, 66049, Note_on_c, 1, 73, 0
3, 66050, Note_on_c, 1, 71, 90
3, 66059, Note_on_c, 1, 71, 0
3, 66060, Note_on_c, 1, 73, 90
3, 66069, Note_on_c, 1, 73, 0
3, 66070, Note_on_c, 1, 71, 90
3, 66079, Note_on_c, 1, 71, 0
3, 66080, Note_on_c, 1, 73, 90
3, 66089, Note_on_c, 1, 73, 0
3, 66090, Note_on_c, 1, 71, 90
3, 66099, Note_on_c, 1, 71, 0
3, 66100, Note_on_c, 1, 73, 90
3, 66109, Note_on_c, 1, 73, 0
3, 66110, Note_on_c, 1, 71, 90
3, 66119, Note_on_c, 1, 71, 0
3, 66120, Note_on_c, 1, 73, 90
3, 66129, Note_on_c, 1, 73, 0
3, 66130, Note_on_c, 1, 71, 90
3, 66139, Note_on_c, 1, 71, 0
3, 66140, Note_on_c, 1, 73, 90
3, 66149, Note_on_c, 1, 73, 0
3, 66150, Note_on_c, 1, 71, 90
3, 66159, Note_on_c, 1, 71, 0
3, 66160, Note_on_c, 1, 73, 90
3, 66169, Note_on_c, 1, 73, 0
3, 66170, Note_on_c, 1, 71, 90
3, 66179, Note_on_c, 1, 71, 0
3, 66180, Note_on_c, 1, 73, 90
3, 66189, Note_on_c, 1, 73, 0
3, 66190, Note_on_c, 1, 71, 90
3, 66199, Note_on_c, 1, 71, 0
3, 66200, Note_on_c, 1, 73, 90
3, 66209, Note_on_c, 1, 73, 0
3, 66210, Note_on_c, 1, 71, 90
3, 66219, Note_on_c, 1, 71, 0
3, 66220, Note_on_c, 1, 73, 90
3, 66229, Note_on_c, 1, 73, 0
3, 66230, Note_on_c, 1, 71, 90
3, 66239, Note_on_c, 1, 71, 0
3, 66240, Note_on_c, 1, 73, 90
3, 66249, Note_on_c, 1, 73, 0
3, 66250, Note_on_c, 1, 71, 90
3, 66259, Note_on_c, 1, 71, 0
3, 66260, Note_on_c, 1, 73, 90
3, 66269, Note_on_c, 1, 73, 0
3, 66270, Note_on_c, 1, 71, 90
3, 66279, Note_on_c, 1, 71, 0
3, 66280, Note_on_c, 1, 73, 90
3, 66289, Note_on_c, 1, 73, 0
3, 66290, Note_on_c, 1, 71, 90
3, 66299, Note_on_c, 1, 71, 0
3, 66300, Note_on_c, 1, 73, 90
3, 66309, Note_on_c, 1, 73, 0
3, 66310, Note_on_c, 1, 71, 90
3, 66319, Note_on_c, 1, 71, 0
3, 66320, Note_on_c, 1, 73, 90
3, 66329, Note_on_c, 1, 73, 0
3, 66330, Note_on_c, 1, 71, 90
3, 66339, Note_on_c, 1, 71, 0
3, 66340, Note_on_c, 1, 73, 90
3, 66349, Note_on_c, 1, 73, 0
3, 66350, Note_on_c, 1, 71, 90
3, 66359, Note_on_c, 1, 71, 0
3, 66390, Note_on_c, 1, 70, 90
3, 66419, Note_on_c, 1, 70, 0
3, 66420, Note_on_c, 1, 73, 90
3, 66449, Note_on_c, 1, 73, 0
3, 66450, Note_on_c, 1, 71, 90
3, 66479, Note_on_c, 1, 71, 0
3, 66480, Note_on_c, 1, 73, 90
3, 66569, Note_on_c, 1, 73, 0
3, 66570, Note_on_c, 1, 74, 90
3, 66599, Note_on_c, 1, 74, 0
3, 66600, Note_on_c, 1, 66, 90
3, 66659, Note_on_c, 1, 66, 0
3, 66660, Note_on_c, 1, 70, 90
3, 66719, Note_on_c, 1, 70, 0
3, 66720, Note_on_c, 1, 71, 90
3, 66749, Note_on_c, 1, 71, 0
3, 66750, Note_on_c, 1, 69, 90
3, 66764, Note_on_c, 1, 69, 0
3, 66765, Note_on_c, 1, 67, 90
3, 66779, Note_on_c, 1, 67, 0
3, 66780, Note_on_c, 1, 66, 90
3, 66809, Note_on_c, 1, 66, 0
3, 66810, Note_on_c, 1, 64, 90
3, 66839, Note_on_c, 1, 64, 0
3, 66840, Note_on_c, 1, 62, 90
3, 66869, Note_on_c, 1, 62, 0
3, 66870, Note_on_c, 1, 61, 90
3, 66899, Note_on_c, 1, 61, 0
3, 66900, Note_on_c, 1, 71, 90
3, 66989, Note_on_c, 1, 71, 0
3, 66990, Note_on_c, 1, 74, 90
3, 67019, Note_on_c, 1, 74, 0
3, 67020, Note_on_c, 1, 73, 90
3, 67079, Note_on_c, 1, 73, 0
3, 67080, Note_on_c, 1, 71, 90
3, 67139, Note_on_c, 1, 71, 0
3, 67140, Note_on_c, 1, 71, 90
3, 67154, Note_on_c, 1, 71, 0
3, 67155, Note_on_c, 1, 73, 90
3, 67169, Note_on_c, 1, 73, 0
3, 67170, Note_on_c, 1, 74, 90
3, 67199, Note_on_c, 1, 74, 0
3, 67200, Note_on_c, 1, 73, 90
3, 67259, Note_on_c, 1, 73, 0
3, 67260, Note_on_c, 1, 73, 90
3, 67349, Note_on_c, 1, 73, 0
3, 67350, Note_on_c, 1, 76, 90
3, 67379, Note_on_c, 1, 76, 0
3, 67380, Note_on_c, 1, 74, 90
3, 67439, Note_on_c, 1, 74, 0
3, 67440, Note_on_c, 1, 73, 90
3, 67499, Note_on_c, 1, 73, 0
3, 67500, Note_on_c, 1, 73, 90
3, 67514, Note_on_c, 1, 73, 0
3, 67515, Note_on_c, 1, 74, 90
3, 67529, Note_on_c, 1, 74, 0
3, 67530, Note_on_c, 1, 76, 90
3, 67559, Note_on_c, 1, 76, 0
3, 67560, Note_on_c, 1, 74, 90
3, 67619, Note_on_c, 1, 74, 0
3, 67620, Note_on_c, 1, 75, 90
3, 67679, Note_on_c, 1, 75, 0
3, 67680, Note_on_c, 1, 75, 90
3, 67694, Note_on_c, 1, 75, 0
3, 67695, Note_on_c, 1, 76, 90
3, 67709, Note_on_c, 1, 76, 0
3, 67710, Note_on_c, 1, 78, 90
3, 67739, Note_on_c, 1, 78, 0
3, 67740, Note_on_c, 1, 76, 90
3, 67799, Note_on_c, 1, 76, 0
3, 67800, Note_on_c, 1, 77, 90
3, 67859, Note_on_c, 1, 77, 0
3, 67860, Note_on_c, 1, 77, 90
3, 67874, Note_on_c, 1, 77, 0
3, 67875, Note_on_c, 1, 78, 90
3, 67889, Note_on_c, 1, 78, 0
3, 67890, Note_on_c, 1, 80, 90
3, 67919, Note_on_c, 1, 80, 0
3, 67920, Note_on_c, 1, 78, 90
3, 67979, Note_on_c, 1, 78, 0
3, 67980, Note_on_c, 1, 74, 90
3, 67995, Note_on_c, 1, 74, 0
3, 67995, Note_on_c, 1, 76, 90
3, 68010, Note_on_c, 1, 76, 0
3, 68010, Note_on_c, 1, 74, 90
3, 68019, Note_on_c, 1, 74, 0
3, 68020, Note_on_c, 1, 76, 90
3, 68029, Note_on_c, 1, 76, 0
3, 68030, Note_on_c, 1, 74, 90
3, 68039, Note_on_c, 1, 74, 0
3, 68040, Note_on_c, 1, 76, 90
3, 68049, Note_on_c, 1, 76, 0
3, 68050, Note_on_c, 1, 74, 90
3, 68064, Note_on_c, 1, 74, 0
3, 68070, Note_on_c, 1, 73, 90
3, 68099, Note_on_c, 1, 73, 0
3, 68100, Note_on_c, 1, 71, 90
3, 68159, Note_on_c, 1, 71, 0
3, 68160, Note_on_c, 1, 66, 90
3, 68160, Note_on_c, 1, 62, 90
3, 68160, Note_on_c, 1, 71, 90
3, 68279, Note_on_c, 1, 71, 0
3, 68279, Note_on_c, 1, 62, 0
3, 68279, Note_on_c, 1, 66, 0
3, 69120, Note_on_c, 1, 69, 100
3, 69150, Note_on_c, 1, 69, 0
3, 69150, Note_on_c, 1, 71, 100
3, 69180, Note_on_c, 1, 71, 0
3, 69180, Note_on_c, 1, 69, 100
3, 69240, Note_on_c, 1, 69, 0
3, 69240, Note_on_c, 1, 69, 100
3, 69300, Note_on_c, 1, 69, 0
3, 69300, Note_on_c, 1, 78, 100
3, 69330, Note_on_c, 1, 78, 0
3, 69330, Note_on_c, 1, 76, 100
3, 69360, Note_on_c, 1, 76, 0
3, 69360, Note_on_c, 1, 74, 100
3, 69390, Note_on_c, 1, 74, 0
3, 69390, Note_on_c, 1, 78, 100
3, 69420, Note_on_c, 1, 78, 0
3, 69420, Note_on_c, 1, 76, 100
3, 69480, Note_on_c, 1, 76, 0
3, 69480, Note_on_c, 1, 69, 100
3, 69510, Note_on_c, 1, 69, 0
3, 69510, Note_on_c, 1, 71, 100
3, 69540, Note_on_c, 1, 71, 0
3, 69540, Note_on_c, 1, 69, 100
3, 69600, Note_on_c, 1, 69, 0
3, 69600, Note_on_c, 1, 69, 100
3, 69660, Note_on_c, 1, 69, 0
3, 69660, Note_on_c, 1, 79, 100
3, 69690, Note_on_c, 1, 79, 0
3, 69690, Note_on_c, 1, 78, 100
3, 69720, Note_on_c, 1, 78, 0
3, 69720, Note_on_c, 1, 76, 100
3, 69750, Note_on_c, 1, 76, 0
3, 69750, Note_on_c, 1, 79, 100
3, 69780, Note_on_c, 1, 79, 0
3, 69780, Note_on_c, 1, 78, 100
3, 69810, Note_on_c, 1, 78, 0
3, 69810, Note_on_c, 1, 79, 100
3, 69840, Note_on_c, 1, 79, 0
3, 69840, Note_on_c, 1, 81, 100
3, 69870, Note_on_c, 1, 81, 0
3, 69870, Note_on_c, 1, 83, 100
3, 69900, Note_on_c, 1, 83, 0
3, 69900, Note_on_c, 1, 79, 100
3, 69930, Note_on_c, 1, 79, 0
3, 69930, Note_on_c, 1, 81, 100
3, 69960, Note_on_c, 1, 81, 0
3, 69960, Note_on_c, 1, 78, 100
3, 69990, Note_on_c, 1, 78, 0
3, 69990, Note_on_c, 1, 79, 100
3, 70020, Note_on_c, 1, 79, 0
3, 70020, Note_on_c, 1, 81, 100
3, 70050, Note_on_c, 1, 81, 0
3, 70050, Note_on_c, 1, 83, 100
3, 70080, Note_on_c, 1, 83, 0
3, 70080, Note_on_c, 1, 79, 100
3, 70110, Note_on_c, 1, 79, 0
3, 70110, Note_on_c, 1, 81, 100
3, 70140, Note_on_c, 1, 81, 0
3, 70140, Note_on_c, 1, 78, 100
3, 70170, Note_on_c, 1, 78, 0
3, 70170, Note_on_c, 1, 79, 100
3, 70200, Note_on_c, 1, 79, 0
3, 70200, Note_on_c, 1, 81, 100
3, 70230, Note_on_c, 1, 81, 0
3, 70230, Note_on_c, 1, 79, 100
3, 70260, Note_on_c, 1, 79, 0
3, 70260, Note_on_c, 1, 81, 100
3, 70290, Note_on_c, 1, 81, 0
3, 70290, Note_on_c, 1, 83, 100
3, 70320, Note_on_c, 1, 83, 0
3, 70320, Note_on_c, 1, 73, 100
3, 70350, Note_on_c, 1, 73, 0
3, 70350, Note_on_c, 1, 74, 100
3, 70380, Note_on_c, 1, 74, 0
3, 70380, Note_on_c, 1, 76, 100
3, 70410, Note_on_c, 1, 76, 0
3, 70410, Note_on_c, 1, 73, 100
3, 70440, Note_on_c, 1, 73, 0
3, 70440, Note_on_c, 1, 74, 100
3, 70470, Note_on_c, 1, 74, 0
3, 70470, Note_on_c, 1, 76, 100
3, 70500, Note_on_c, 1, 76, 0
3, 70500, Note_on_c, 1, 69, 100
3, 70560, Note_on_c, 1, 69, 0
3, 70560, Note_on_c, 1, 74, 100
3, 70620, Note_on_c, 1, 74, 0
3, 70620, Note_on_c, 1, 78, 100
3, 70635, Note_on_c, 1, 78, 0
3, 70635, Note_on_c, 1, 76, 100
3, 70650, Note_on_c, 1, 76, 0
3, 70650, Note_on_c, 1, 74, 100
3, 70665, Note_on_c, 1, 74, 0
3, 70665, Note_on_c, 1, 76, 100
3, 70680, Note_on_c, 1, 76, 0
3, 70680, Note_on_c, 1, 78, 100
3, 70800, Note_on_c, 1, 78, 0
3, 70860, Note_on_c, 1, 69, 100
3, 70920, Note_on_c, 1, 69, 0
3, 70920, Note_on_c, 1, 76, 100
3, 70980, Note_on_c, 1, 76, 0
3, 70980, Note_on_c, 1, 79, 100
3, 70995, Note_on_c, 1, 79, 0
3, 70995, Note_on_c, 1, 78, 100
3, 71010, Note_on_c, 1, 78, 0
3, 71010, Note_on_c, 1, 76, 100
3, 71025, Note_on_c, 1, 76, 0
3, 71025, Note_on_c, 1, 78, 100
3, 71040, Note_on_c, 1, 78, 0
3, 71040, Note_on_c, 1, 79, 100
3, 71160, Note_on_c, 1, 79, 0
3, 71220, Note_on_c, 1, 74, 100
3, 71250, Note_on_c, 1, 74, 0
3, 71250, Note_on_c, 1, 76, 100
3, 71280, Note_on_c, 1, 76, 0
3, 71280, Note_on_c, 1, 78, 100
3, 71310, Note_on_c, 1, 78, 0
3, 71310, Note_on_c, 1, 79, 100
3, 71340, Note_on_c, 1, 79, 0
3, 71340, Note_on_c, 1, 76, 100
3, 71370, Note_on_c, 1, 76, 0
3, 71370, Note_on_c, 1, 78, 100
3, 71400, Note_on_c, 1, 78, 0
3, 71400, Note_on_c, 1, 74, 100
3, 71430, Note_on_c, 1, 74, 0
3, 71430, Note_on_c, 1, 76, 100
3, 71460, Note_on_c, 1, 76, 0
3, 71460, Note_on_c, 1, 78, 100
3, 71490, Note_on_c, 1, 78, 0
3, 71490, Note_on_c, 1, 79, 100
3, 71520, Note_on_c, 1, 79, 0
3, 71520, Note_on_c, 1, 76, 100
3, 71550, Note_on_c, 1, 76, 0
3, 71550, Note_on_c, 1, 78, 100
3, 71580, Note_on_c, 1, 78, 0
3, 71580, Note_on_c, 1, 76, 100
3, 71600, Note_on_c, 1, 76, 0
3, 71600, Note_on_c, 1, 74, 100
3, 71620, Note_on_c, 1, 74, 0
3, 71620, Note_on_c, 1, 76, 100
3, 71640, Note_on_c, 1, 76, 0
3, 71640, Note_on_c, 1, 74, 100
3, 71655, Note_on_c, 1, 74, 0
3, 71655, Note_on_c, 1, 76, 100
3, 71670, Note_on_c, 1, 76, 0
3, 71670, Note_on_c, 1, 74, 100
3, 71685, Note_on_c, 1, 74, 0
3, 71685, Note_on_c, 1, 76, 100
3, 71700, Note_on_c, 1, 76, 0
3, 71700, Note_on_c, 1, 74, 100
3, 71715, Note_on_c, 1, 74, 0
3, 71715, Note_on_c, 1, 76, 100
3, 71730, Note_on_c, 1, 76, 0
3, 71730, Note_on_c, 1, 74, 100
3, 71745, Note_on_c, 1, 74, 0
3, 71745, Note_on_c, 1, 76, 100
3, 71760, Note_on_c, 1, 76, 0
3, 71760, Note_on_c, 1, 74, 100
3, 71775, Note_on_c, 1, 74, 0
3, 71775, Note_on_c, 1, 76, 100
3, 71790, Note_on_c, 1, 76, 0
3, 71790, Note_on_c, 1, 74, 100
3, 71805, Note_on_c, 1, 74, 0
3, 71805, Note_on_c, 1, 76, 100
3, 71820, Note_on_c, 1, 76, 0
3, 71820, Note_on_c, 1, 74, 100
3, 71835, Note_on_c, 1, 74, 0
3, 71835, Note_on_c, 1, 73, 100
3, 71850, Note_on_c, 1, 73, 0
3, 71850, Note_on_c, 1, 74, 100
3, 71865, Note_on_c, 1, 74, 0
3, 71865, Note_on_c, 1, 73, 100
3, 71880, Note_on_c, 1, 73, 0
3, 71880, Note_on_c, 1, 74, 100
3, 71895, Note_on_c, 1, 74, 0
3, 71895, Note_on_c, 1, 73, 100
3, 71910, Note_on_c, 1, 73, 0
3, 71910, Note_on_c, 1, 74, 100
3, 71925, Note_on_c, 1, 74, 0
3, 71925, Note_on_c, 1, 73, 100
3, 71940, Note_on_c, 1, 73, 0
3, 71940, Note_on_c, 1, 74, 100
3, 71955, Note_on_c, 1, 74, 0
3, 71955, Note_on_c, 1, 73, 100
3, 71970, Note_on_c, 1, 73, 0
3, 71970, Note_on_c, 1, 74, 100
3, 71985, Note_on_c, 1, 74, 0
3, 71985, Note_on_c, 1, 73, 100
3, 72000, Note_on_c, 1, 73, 0
3, 72000, Note_on_c, 1, 71, 100
3, 72015, Note_on_c, 1, 71, 0
3, 72015, Note_on_c, 1, 73, 100
3, 72030, Note_on_c, 1, 73, 0
3, 72030, Note_on_c, 1, 71, 100
3, 72045, Note_on_c, 1, 71, 0
3, 72045, Note_on_c, 1, 73, 100
3, 72060, Note_on_c, 1, 73, 0
3, 72060, Note_on_c, 1, 71, 100
3, 72075, Note_on_c, 1, 71, 0
3, 72075, Note_on_c, 1, 73, 100
3, 72090, Note_on_c, 1, 73, 0
3, 72090, Note_on_c, 1, 71, 100
3, 72105, Note_on_c, 1, 71, 0
3, 72105, Note_on_c, 1, 73, 100
3, 72120, Note_on_c, 1, 73, 0
3, 72120, Note_on_c, 1, 71, 100
3, 72135, Note_on_c, 1, 71, 0
3, 72135, Note_on_c, 1, 73, 100
3, 72150, Note_on_c, 1, 73, 0
3, 72150, Note_on_c, 1, 71, 100
3, 72165, Note_on_c, 1, 71, 0
3, 72165, Note_on_c, 1, 73, 100
3, 72180, Note_on_c, 1, 73, 0
3, 72180, Note_on_c, 1, 71, 100
3, 72195, Note_on_c, 1, 71, 0
3, 72195, Note_on_c, 1, 69, 100
3, 72210, Note_on_c, 1, 69, 0
3, 72210, Note_on_c, 1, 71, 100
3, 72225, Note_on_c, 1, 71, 0
3, 72225, Note_on_c, 1, 69, 100
3, 72240, Note_on_c, 1, 69, 0
3, 72240, Note_on_c, 1, 71, 100
3, 72255, Note_on_c, 1, 71, 0
3, 72255, Note_on_c, 1, 69, 100
3, 72270, Note_on_c, 1, 69, 0
3, 72270, Note_on_c, 1, 71, 100
3, 72285, Note_on_c, 1, 71, 0
3, 72285, Note_on_c, 1, 69, 100
3, 72300, Note_on_c, 1, 69, 0
3, 72300, Note_on_c, 1, 71, 100
3, 72315, Note_on_c, 1, 71, 0
3, 72315, Note_on_c, 1, 69, 100
3, 72330, Note_on_c, 1, 69, 0
3, 72330, Note_on_c, 1, 71, 100
3, 72345, Note_on_c, 1, 71, 0
3, 72345, Note_on_c, 1, 69, 100
3, 72360, Note_on_c, 1, 69, 0
3, 72360, Note_on_c, 1, 67, 100
3, 72375, Note_on_c, 1, 67, 0
3, 72375, Note_on_c, 1, 69, 100
3, 72390, Note_on_c, 1, 69, 0
3, 72390, Note_on_c, 1, 67, 100
3, 72405, Note_on_c, 1, 67, 0
3, 72405, Note_on_c, 1, 69, 100
3, 72420, Note_on_c, 1, 69, 0
3, 72420, Note_on_c, 1, 67, 100
3, 72435, Note_on_c, 1, 67, 0
3, 72435, Note_on_c, 1, 69, 100
3, 72450, Note_on_c, 1, 69, 0
3, 72450, Note_on_c, 1, 67, 100
3, 72465, Note_on_c, 1, 67, 0
3, 72465, Note_on_c, 1, 69, 100
3, 72480, Note_on_c, 1, 69, 0
3, 72480, Note_on_c, 1, 67, 100
3, 72495, Note_on_c, 1, 67, 0
3, 72495, Note_on_c, 1, 69, 100
3, 72510, Note_on_c, 1, 69, 0
3, 72510, Note_on_c, 1, 64, 100
3, 72540, Note_on_c, 1, 64, 0
3, 72540, Note_on_c, 1, 66, 100
3, 72570, Note_on_c, 1, 66, 0
3, 72570, Note_on_c, 1, 67, 100
3, 72600, Note_on_c, 1, 67, 0
3, 72600, Note_on_c, 1, 69, 100
3, 72630, Note_on_c, 1, 69, 0
3, 72630, Note_on_c, 1, 67, 100
3, 72660, Note_on_c, 1, 67, 0
3, 72660, Note_on_c, 1, 69, 100
3, 72690, Note_on_c, 1, 69, 0
3, 72690, Note_on_c, 1, 71, 100
3, 72720, Note_on_c, 1, 71, 0
3, 72720, Note_on_c, 1, 69, 100
3, 72750, Note_on_c, 1, 69, 0
3, 72750, Note_on_c, 1, 67, 100
3, 72780, Note_on_c, 1, 67, 0
3, 72780, Note_on_c, 1, 66, 100
3, 72810, Note_on_c, 1, 66, 0
3, 72810, Note_on_c, 1, 64, 100
3, 72840, Note_on_c, 1, 64, 0
3, 72840, Note_on_c, 1, 66, 100
3, 72870, Note_on_c, 1, 66, 0
3, 72870, Note_on_c, 1, 69, 100
3, 72900, Note_on_c, 1, 69, 0
3, 72900, Note_on_c, 1, 71, 100
3, 72930, Note_on_c, 1, 71, 0
3, 72930, Note_on_c, 1, 73, 100
3, 72960, Note_on_c, 1, 73, 0
3, 72960, Note_on_c, 1, 74, 100
3, 72990, Note_on_c, 1, 74, 0
3, 72990, Note_on_c, 1, 73, 100
3, 73020, Note_on_c, 1, 73, 0
3, 73020, Note_on_c, 1, 74, 100
3, 73080, Note_on_c, 1, 74, 0
3, 73080, Note_on_c, 1, 78, 100
3, 73095, Note_on_c, 1, 78, 0
3, 73095, Note_on_c, 1, 76, 100
3, 73110, Note_on_c, 1, 76, 0
3, 73110, Note_on_c, 1, 74, 100
3, 73125, Note_on_c, 1, 74, 0
3, 73125, Note_on_c, 1, 76, 100
3, 73140, Note_on_c, 1, 76, 0
3, 73140, Note_on_c, 1, 78, 100
3, 73230, Note_on_c, 1, 78, 0
3, 73230, Note_on_c, 1, 71, 100
3, 73260, Note_on_c, 1, 71, 0
3, 73260, Note_on_c, 1, 73, 100
3, 73290, Note_on_c, 1, 73, 0
3, 73290, Note_on_c, 1, 74, 100
3, 73320, Note_on_c, 1, 74, 0
3, 73320, Note_on_c, 1, 76, 100
3, 73350, Note_on_c, 1, 76, 0
3, 73350, Note_on_c, 1, 74, 100
3, 73380, Note_on_c, 1, 74, 0
3, 73380, Note_on_c, 1, 76, 90
3, 73409, Note_on_c, 1, 76, 0
3, 73410, Note_on_c, 1, 78, 90
3, 73439, Note_on_c, 1, 78, 0
3, 73440, Note_on_c, 1, 76, 90
3, 73469, Note_on_c, 1, 76, 0
3, 73470, Note_on_c, 1, 74, 90
3, 73499, Note_on_c, 1, 74, 0
3, 73500, Note_on_c, 1, 73, 90
3, 73529, Note_on_c, 1, 73, 0
3, 73530, Note_on_c, 1, 71, 90
3, 73559, Note_on_c, 1, 71, 0
3, 73560, Note_on_c, 1, 73, 90
3, 73589, Note_on_c, 1, 73, 0
3, 73590, Note_on_c, 1, 74, 90
3, 73619, Note_on_c, 1, 74, 0
3, 73620, Note_on_c, 1, 76, 90
3, 73649, Note_on_c, 1, 76, 0
3, 73650, Note_on_c, 1, 74, 90
3, 73679, Note_on_c, 1, 74, 0
3, 73680, Note_on_c, 1, 76, 90
3, 73709, Note_on_c, 1, 76, 0
3, 73710, Note_on_c, 1, 78, 90
3, 73739, Note_on_c, 1, 78, 0
3, 73740, Note_on_c, 1, 71, 90
3, 73769, Note_on_c, 1, 71, 0
3, 73770, Note_on_c, 1, 73, 90
3, 73799, Note_on_c, 1, 73, 0
3, 73800, Note_on_c, 1, 74, 90
3, 73829, Note_on_c, 1, 74, 0
3, 73830, Note_on_c, 1, 73, 90
3, 73859, Note_on_c, 1, 73, 0
3, 73860, Note_on_c, 1, 74, 90
3, 73889, Note_on_c, 1, 74, 0
3, 73890, Note_on_c, 1, 76, 90
3, 73919, Note_on_c, 1, 76, 0
3, 73920, Note_on_c, 1, 69, 90
3, 73949, Note_on_c, 1, 69, 0
3, 73950, Note_on_c, 1, 71, 90
3, 73979, Note_on_c, 1, 71, 0
3, 73980, Note_on_c, 1, 73, 90
3, 74009, Note_on_c, 1, 73, 0
3, 74010, Note_on_c, 1, 71, 90
3, 74039, Note_on_c, 1, 71, 0
3, 74040, Note_on_c, 1, 73, 90
3, 74069, Note_on_c, 1, 73, 0
3, 74070, Note_on_c, 1, 74, 90
3, 74099, Note_on_c, 1, 74, 0
3, 74100, Note_on_c, 1, 68, 90
3, 74129, Note_on_c, 1, 68, 0
3, 74130, Note_on_c, 1, 69, 90
3, 74159, Note_on_c, 1, 69, 0
3, 74160, Note_on_c, 1, 71, 90
3, 74189, Note_on_c, 1, 71, 0
3, 74190, Note_on_c, 1, 69, 90
3, 74219, Note_on_c, 1, 69, 0
3, 74220, Note_on_c, 1, 71, 90
3, 74249, Note_on_c, 1, 71, 0
3, 74250, Note_on_c, 1, 73, 90
3, 74279, Note_on_c, 1, 73, 0
3, 74280, Note_on_c, 1, 66, 90
3, 74309, Note_on_c, 1, 66, 0
3, 74310, Note_on_c, 1, 68, 90
3, 74339, Note_on_c, 1, 68, 0
3, 74340, Note_on_c, 1, 69, 90
3, 74369, Note_on_c, 1, 69, 0
3, 74370, Note_on_c, 1, 68, 90
3, 74399, Note_on_c, 1, 68, 0
3, 74400, Note_on_c, 1, 69, 90
3, 74429, Note_on_c, 1, 69, 0
3, 74430, Note_on_c, 1, 71, 90
3, 74459, Note_on_c, 1, 71, 0
3, 74460, Note_on_c, 1, 68, 90
3, 74519, Note_on_c, 1, 68, 0
3, 74520, Note_on_c, 1, 66, 90
3, 74549, Note_on_c, 1, 66, 0
3, 74550, Note_on_c, 1, 64, 90
3, 74579, Note_on_c, 1, 64, 0
3, 74580, Note_on_c, 1, 69, 90
3, 74669, Note_on_c, 1, 69, 0
3, 74670, Note_on_c, 1, 71, 90
3, 74699, Note_on_c, 1, 71, 0
3, 74700, Note_on_c, 1, 68, 90
3, 74720, Note_on_c, 1, 68, 0
3, 74720, Note_on_c, 1, 69, 90
3, 74740, Note_on_c, 1, 69, 0
3, 74740, Note_on_c, 1, 68, 90
3, 74760, Note_on_c, 1, 68, 0
3, 74760, Note_on_c, 1, 69, 90
3, 74774, Note_on_c, 1, 69, 0
3, 74775, Note_on_c, 1, 68, 90
3, 74789, Note_on_c, 1, 68, 0
3, 74790, Note_on_c, 1, 66, 90
3, 74804, Note_on_c, 1, 66, 0
3, 74805, Note_on_c, 1, 68, 90
3, 74819, Note_on_c, 1, 68, 0
3, 74820, Note_on_c, 1, 69, 90
3, 74849, Note_on_c, 1, 69, 0
3, 74850, Note_on_c, 1, 76, 90
3, 74879, Note_on_c, 1, 76, 0
3, 74880, Note_on_c, 1, 81, 90
3, 74939, Note_on_c, 1, 81, 0
3, 74940, Note_on_c, 1, 83, 90
3, 74999, Note_on_c, 1, 83, 0
3, 75000, Note_on_c, 1, 85, 90
3, 75119, Note_on_c, 1, 85, 0
3, 75180, Note_on_c, 1, 76, 90
3, 75239, Note_on_c, 1, 76, 0
3, 75240, Note_on_c, 1, 83, 90
3, 75299, Note_on_c, 1, 83, 0
3, 75300, Note_on_c, 1, 85, 90
3, 75359, Note_on_c, 1, 85, 0
3, 75360, Note_on_c, 1, 86, 90
3, 75479, Note_on_c, 1, 86, 0
3, 75540, Note_on_c, 1, 81, 90
3, 75569, Note_on_c, 1, 81, 0
3, 75570, Note_on_c, 1, 83, 90
3, 75599, Note_on_c, 1, 83, 0
3, 75600, Note_on_c, 1, 85, 90
3, 75629, Note_on_c, 1, 85, 0
3, 75630, Note_on_c, 1, 86, 90
3, 75659, Note_on_c, 1, 86, 0
3, 75660, Note_on_c, 1, 83, 90
3, 75689, Note_on_c, 1, 83, 0
3, 75690, Note_on_c, 1, 85, 90
3, 75719, Note_on_c, 1, 85, 0
3, 75720, Note_on_c, 1, 81, 90
3, 75749, Note_on_c, 1, 81, 0
3, 75750, Note_on_c, 1, 83, 90
3, 75779, Note_on_c, 1, 83, 0
3, 75780, Note_on_c, 1, 85, 90
3, 75809, Note_on_c, 1, 85, 0
3, 75810, Note_on_c, 1, 86, 90
3, 75839, Note_on_c, 1, 86, 0
3, 75840, Note_on_c, 1, 83, 90
3, 75869, Note_on_c, 1, 83, 0
3, 75870, Note_on_c, 1, 85, 90
3, 75899, Note_on_c, 1, 85, 0
3, 75900, Note_on_c, 1, 82, 90
3, 75929, Note_on_c, 1, 82, 0
3, 75930, Note_on_c, 1, 83, 90
3, 75959, Note_on_c, 1, 83, 0
3, 75960, Note_on_c, 1, 85, 90
3, 75989, Note_on_c, 1, 85, 0
3, 75990, Note_on_c, 1, 82, 90
3, 76019, Note_on_c, 1, 82, 0
3, 76020, Note_on_c, 1, 83, 90
3, 76049, Note_on_c, 1, 83, 0
3, 76050, Note_on_c, 1, 85, 90
3, 76079, Note_on_c, 1, 85, 0
3, 76080, Note_on_c, 1, 83, 90
3, 76109, Note_on_c, 1, 83, 0
3, 76110, Note_on_c, 1, 79, 90
3, 76139, Note_on_c, 1, 79, 0
3, 76140, Note_on_c, 1, 78, 90
3, 76169, Note_on_c, 1, 78, 0
3, 76170, Note_on_c, 1, 76, 90
3, 76199, Note_on_c, 1, 76, 0
3, 76200, Note_on_c, 1, 74, 90
3, 76229, Note_on_c, 1, 74, 0
3, 76230, Note_on_c, 1, 73, 90
3, 76259, Note_on_c, 1, 73, 0
3, 76260, Note_on_c, 1, 71, 90
3, 76319, Note_on_c, 1, 71, 0
3, 76320, Note_on_c, 1, 66, 90
3, 76349, Note_on_c, 1, 66, 0
3, 76350, Note_on_c, 1, 67, 90
3, 76379, Note_on_c, 1, 67, 0
3, 76380, Note_on_c, 1, 66, 90
3, 76439, Note_on_c, 1, 66, 0
3, 76440, Note_on_c, 1, 66, 90
3, 76499, Note_on_c, 1, 66, 0
3, 76500, Note_on_c, 1, 74, 90
3, 76529, Note_on_c, 1, 74, 0
3, 76530, Note_on_c, 1, 73, 90
3, 76559, Note_on_c, 1, 73, 0
3, 76560, Note_on_c, 1, 71, 90
3, 76589, Note_on_c, 1, 71, 0
3, 76590, Note_on_c, 1, 74, 90
3, 76619, Note_on_c, 1, 74, 0
3, 76620, Note_on_c, 1, 73, 90
3, 76679, Note_on_c, 1, 73, 0
3, 76680, Note_on_c, 1, 66, 90
3, 76709, Note_on_c, 1, 66, 0
3, 76710, Note_on_c, 1, 67, 90
3, 76739, Note_on_c, 1, 67, 0
3, 76740, Note_on_c, 1, 66, 90
3, 76799, Note_on_c, 1, 66, 0
3, 76800, Note_on_c, 1, 66, 90
3, 76859, Note_on_c, 1, 66, 0
3, 76860, Note_on_c, 1, 76, 90
3, 76889, Note_on_c, 1, 76, 0
3, 76890, Note_on_c, 1, 74, 90
3, 76919, Note_on_c, 1, 74, 0
3, 76920, Note_on_c, 1, 73, 90
3, 76949, Note_on_c, 1, 73, 0
3, 76950, Note_on_c, 1, 76, 90
3, 76979, Note_on_c, 1, 76, 0
3, 76980, Note_on_c, 1, 74, 90
3, 77009, Note_on_c, 1, 74, 0
3, 77010, Note_on_c, 1, 76, 90
3, 77039, Note_on_c, 1, 76, 0
3, 77040, Note_on_c, 1, 78, 90
3, 77069, Note_on_c, 1, 78, 0
3, 77070, Note_on_c, 1, 79, 90
3, 77099, Note_on_c, 1, 79, 0
3, 77100, Note_on_c, 1, 76, 90
3, 77129, Note_on_c, 1, 76, 0
3, 77130, Note_on_c, 1, 78, 90
3, 77159, Note_on_c, 1, 78, 0
3, 77160, Note_on_c, 1, 74, 90
3, 77189, Note_on_c, 1, 74, 0
3, 77190, Note_on_c, 1, 76, 90
3, 77219, Note_on_c, 1, 76, 0
3, 77220, Note_on_c, 1, 78, 90
3, 77249, Note_on_c, 1, 78, 0
3, 77250, Note_on_c, 1, 79, 90
3, 77279, Note_on_c, 1, 79, 0
3, 77280, Note_on_c, 1, 76, 90
3, 77309, Note_on_c, 1, 76, 0
3, 77310, Note_on_c, 1, 78, 90
3, 77339, Note_on_c, 1, 78, 0
3, 77340, Note_on_c, 1, 74, 90
3, 77579, Note_on_c, 1, 74, 0
3, 77580, Note_on_c, 1, 71, 90
3, 77639, Note_on_c, 1, 71, 0
3, 77640, Note_on_c, 1, 76, 90
3, 77699, Note_on_c, 1, 76, 0
3, 77700, Note_on_c, 1, 73, 90
3, 77759, Note_on_c, 1, 73, 0
3, 77760, Note_on_c, 1, 76, 90
3, 77819, Note_on_c, 1, 76, 0
3, 77820, Note_on_c, 1, 81, 90
3, 77879, Note_on_c, 1, 81, 0
3, 77880, Note_on_c, 1, 79, 90
3, 77940, Note_on_c, 1, 79, 0
3, 77940, Note_on_c, 1, 78, 90
3, 78090, Note_on_c, 1, 78, 0
3, 78090, Note_on_c, 1, 75, 90
3, 78119, Note_on_c, 1, 75, 0
3, 78120, Note_on_c, 1, 71, 90
3, 78149, Note_on_c, 1, 71, 0
3, 78150, Note_on_c, 1, 75, 90
3, 78179, Note_on_c, 1, 75, 0
3, 78180, Note_on_c, 1, 76, 90
3, 78209, Note_on_c, 1, 76, 0
3, 78210, Note_on_c, 1, 75, 90
3, 78239, Note_on_c, 1, 75, 0
3, 78240, Note_on_c, 1, 76, 90
3, 78269, Note_on_c, 1, 76, 0
3, 78270, Note_on_c, 1, 78, 90
3, 78299, Note_on_c, 1, 78, 0
3, 78300, Note_on_c, 1, 75, 90
3, 78320, Note_on_c, 1, 75, 0
3, 78320, Note_on_c, 1, 76, 90
3, 78340, Note_on_c, 1, 76, 0
3, 78340, Note_on_c, 1, 75, 90
3, 78360, Note_on_c, 1, 75, 0
3, 78360, Note_on_c, 1, 76, 90
3, 78375, Note_on_c, 1, 76, 0
3, 78375, Note_on_c, 1, 75, 90
3, 78390, Note_on_c, 1, 75, 0
3, 78390, Note_on_c, 1, 76, 90
3, 78419, Note_on_c, 1, 76, 0
3, 78420, Note_on_c, 1, 76, 90
3, 78479, Note_on_c, 1, 76, 0
3, 78480, Note_on_c, 1, 64, 90
3, 78509, Note_on_c, 1, 64, 0
3, 78510, Note_on_c, 1, 66, 90
3, 78539, Note_on_c, 1, 66, 0
3, 78540, Note_on_c, 1, 64, 90
3, 78599, Note_on_c, 1, 64, 0
3, 78600, Note_on_c, 1, 64, 90
3, 78659, Note_on_c, 1, 64, 0
3, 78660, Note_on_c, 1, 73, 90
3, 78689, Note_on_c, 1, 73, 0
3, 78690, Note_on_c, 1, 71, 90
3, 78719, Note_on_c, 1, 71, 0
3, 78720, Note_on_c, 1, 69, 90
3, 78749, Note_on_c, 1, 69, 0
3, 78750, Note_on_c, 1, 73, 90
3, 78779, Note_on_c, 1, 73, 0
3, 78780, Note_on_c, 1, 71, 90
3, 78839, Note_on_c, 1, 71, 0
3, 78840, Note_on_c, 1, 64, 90
3, 78869, Note_on_c, 1, 64, 0
3, 78870, Note_on_c, 1, 66, 90
3, 78899, Note_on_c, 1, 66, 0
3, 78900, Note_on_c, 1, 64, 90
3, 78959, Note_on_c, 1, 64, 0
3, 78960, Note_on_c, 1, 64, 90
3, 79019, Note_on_c, 1, 64, 0
3, 79020, Note_on_c, 1, 74, 90
3, 79049, Note_on_c, 1, 74, 0
3, 79050, Note_on_c, 1, 73, 90
3, 79079, Note_on_c, 1, 73, 0
3, 79080, Note_on_c, 1, 71, 90
3, 79109, Note_on_c, 1, 71, 0
3, 79110, Note_on_c, 1, 74, 90
3, 79139, Note_on_c, 1, 74, 0
3, 79140, Note_on_c, 1, 73, 90
3, 79169, Note_on_c, 1, 73, 0
3, 79170, Note_on_c, 1, 74, 90
3, 79199, Note_on_c, 1, 74, 0
3, 79200, Note_on_c, 1, 76, 90
3, 79229, Note_on_c, 1, 76, 0
3, 79230, Note_on_c, 1, 78, 90
3, 79259, Note_on_c, 1, 78, 0
3, 79260, Note_on_c, 1, 74, 90
3, 79289, Note_on_c, 1, 74, 0
3, 79290, Note_on_c, 1, 76, 90
3, 79319, Note_on_c, 1, 76, 0
3, 79320, Note_on_c, 1, 73, 90
3, 79349, Note_on_c, 1, 73, 0
3, 79350, Note_on_c, 1, 74, 90
3, 79379, Note_on_c, 1, 74, 0
3, 79380, Note_on_c, 1, 76, 90
3, 79409, Note_on_c, 1, 76, 0
3, 79410, Note_on_c, 1, 78, 90
3, 79439, Note_on_c, 1, 78, 0
3, 79440, Note_on_c, 1, 74, 90
3, 79469, Note_on_c, 1, 74, 0
3, 79470, Note_on_c, 1, 76, 90
3, 79499, Note_on_c, 1, 76, 0
3, 79500, Note_on_c, 1, 73, 90
3, 79529, Note_on_c, 1, 73, 0
3, 79530, Note_on_c, 1, 74, 90
3, 79559, Note_on_c, 1, 74, 0
3, 79560, Note_on_c, 1, 76, 90
3, 79589, Note_on_c, 1, 76, 0
3, 79590, Note_on_c, 1, 74, 90
3, 79619, Note_on_c, 1, 74, 0
3, 79620, Note_on_c, 1, 76, 90
3, 79649, Note_on_c, 1, 76, 0
3, 79650, Note_on_c, 1, 78, 90
3, 79679, Note_on_c, 1, 78, 0
3, 79680, Note_on_c, 1, 79, 90
3, 79709, Note_on_c, 1, 79, 0
3, 79710, Note_on_c, 1, 78, 90
3, 79739, Note_on_c, 1, 78, 0
3, 79740, Note_on_c, 1, 79, 90
3, 79769, Note_on_c, 1, 79, 0
3, 79770, Note_on_c, 1, 83, 90
3, 79799, Note_on_c, 1, 83, 0
3, 79800, Note_on_c, 1, 81, 90
3, 79829, Note_on_c, 1, 81, 0
3, 79830, Note_on_c, 1, 79, 90
3, 79859, Note_on_c, 1, 79, 0
3, 79860, Note_on_c, 1, 78, 90
3, 79889, Note_on_c, 1, 78, 0
3, 79890, Note_on_c, 1, 76, 90
3, 79919, Note_on_c, 1, 76, 0
3, 79920, Note_on_c, 1, 78, 90
3, 79949, Note_on_c, 1, 78, 0
3, 79950, Note_on_c, 1, 79, 90
3, 79979, Note_on_c, 1, 79, 0
3, 79980, Note_on_c, 1, 78, 90
3, 80009, Note_on_c, 1, 78, 0
3, 80010, Note_on_c, 1, 76, 90
3, 80039, Note_on_c, 1, 76, 0
3, 80040, Note_on_c, 1, 74, 90
3, 80060, Note_on_c, 1, 74, 0
3, 80060, Note_on_c, 1, 76, 90
3, 80080, Note_on_c, 1, 76, 0
3, 80080, Note_on_c, 1, 74, 90
3, 80100, Note_on_c, 1, 74, 0
3, 80100, Note_on_c, 1, 76, 90
3, 80115, Note_on_c, 1, 76, 0
3, 80115, Note_on_c, 1, 74, 90
3, 80130, Note_on_c, 1, 74, 0
3, 80130, Note_on_c, 1, 76, 90
3, 80145, Note_on_c, 1, 76, 0
3, 80145, Note_on_c, 1, 74, 90
3, 80160, Note_on_c, 1, 74, 0
3, 80160, Note_on_c, 1, 76, 90
3, 80175, Note_on_c, 1, 76, 0
3, 80175, Note_on_c, 1, 74, 90
3, 80190, Note_on_c, 1, 74, 0
3, 80190, Note_on_c, 1, 76, 90
3, 80205, Note_on_c, 1, 76, 0
3, 80205, Note_on_c, 1, 74, 90
3, 80220, Note_on_c, 1, 74, 0
3, 80220, Note_on_c, 1, 76, 90
3, 80235, Note_on_c, 1, 76, 0
3, 80235, Note_on_c, 1, 74, 90
3, 80250, Note_on_c, 1, 74, 0
3, 80250, Note_on_c, 1, 76, 90
3, 80265, Note_on_c, 1, 76, 0
3, 80265, Note_on_c, 1, 74, 90
3, 80280, Note_on_c, 1, 74, 0
3, 80280, Note_on_c, 1, 76, 90
3, 80295, Note_on_c, 1, 76, 0
3, 80295, Note_on_c, 1, 74, 90
3, 80310, Note_on_c, 1, 74, 0
3, 80310, Note_on_c, 1, 76, 90
3, 80325, Note_on_c, 1, 76, 0
3, 80325, Note_on_c, 1, 74, 90
3, 80340, Note_on_c, 1, 74, 0
3, 80340, Note_on_c, 1, 76, 90
3, 80355, Note_on_c, 1, 76, 0
3, 80355, Note_on_c, 1, 74, 90
3, 80370, Note_on_c, 1, 74, 0
3, 80370, Note_on_c, 1, 76, 90
3, 80385, Note_on_c, 1, 76, 0
3, 80385, Note_on_c, 1, 74, 90
3, 80400, Note_on_c, 1, 74, 0
3, 80400, Note_on_c, 1, 76, 90
3, 80415, Note_on_c, 1, 76, 0
3, 80415, Note_on_c, 1, 74, 90
3, 80430, Note_on_c, 1, 74, 0
3, 80430, Note_on_c, 1, 78, 90
3, 80459, Note_on_c, 1, 78, 0
3, 80460, Note_on_c, 1, 76, 90
3, 80489, Note_on_c, 1, 76, 0
3, 80490, Note_on_c, 1, 74, 90
3, 80519, Note_on_c, 1, 74, 0
3, 80520, Note_on_c, 1, 73, 90
3, 80549, Note_on_c, 1, 73, 0
3, 80550, Note_on_c, 1, 76, 90
3, 80579, Note_on_c, 1, 76, 0
3, 80580, Note_on_c, 1, 74, 90
3, 80609, Note_on_c, 1, 74, 0
3, 80610, Note_on_c, 1, 76, 90
3, 80639, Note_on_c, 1, 76, 0
3, 80640, Note_on_c, 1, 78, 90
3, 80669, Note_on_c, 1, 78, 0
3, 80670, Note_on_c, 1, 79, 90
3, 80699, Note_on_c, 1, 79, 0
3, 80700, Note_on_c, 1, 76, 90
3, 80729, Note_on_c, 1, 76, 0
3, 80730, Note_on_c, 1, 78, 90
3, 80759, Note_on_c, 1, 78, 0
3, 80760, Note_on_c, 1, 74, 90
3, 80789, Note_on_c, 1, 74, 0
3, 80790, Note_on_c, 1, 76, 90
3, 80819, Note_on_c, 1, 76, 0
3, 80820, Note_on_c, 1, 78, 90
3, 80849, Note_on_c, 1, 78, 0
3, 80850, Note_on_c, 1, 79, 90
3, 80879, Note_on_c, 1, 79, 0
3, 80880, Note_on_c, 1, 76, 90
3, 80909, Note_on_c, 1, 76, 0
3, 80910, Note_on_c, 1, 78, 90
3, 80939, Note_on_c, 1, 78, 0
3, 80940, Note_on_c, 1, 74, 90
3, 80969, Note_on_c, 1, 74, 0
3, 80970, Note_on_c, 1, 76, 90
3, 80999, Note_on_c, 1, 76, 0
3, 81000, Note_on_c, 1, 78, 90
3, 81029, Note_on_c, 1, 78, 0
3, 81030, Note_on_c, 1, 74, 90
3, 81059, Note_on_c, 1, 74, 0
3, 81060, Note_on_c, 1, 76, 90
3, 81089, Note_on_c, 1, 76, 0
3, 81090, Note_on_c, 1, 78, 90
3, 81119, Note_on_c, 1, 78, 0
3, 81120, Note_on_c, 1, 79, 90
3, 81299, Note_on_c, 1, 79, 0
3, 81330, Note_on_c, 1, 81, 90
3, 81359, Note_on_c, 1, 81, 0
3, 81360, Note_on_c, 1, 83, 90
3, 81389, Note_on_c, 1, 83, 0
3, 81390, Note_on_c, 1, 79, 90
3, 81419, Note_on_c, 1, 79, 0
3, 81420, Note_on_c, 1, 81, 90
3, 81449, Note_on_c, 1, 81, 0
3, 81450, Note_on_c, 1, 83, 90
3, 81479, Note_on_c, 1, 83, 0
3, 81480, Note_on_c, 1, 76, 90
3, 81659, Note_on_c, 1, 76, 0
3, 81690, Note_on_c, 1, 78, 90
3, 81719, Note_on_c, 1, 78, 0
3, 81720, Note_on_c, 1, 79, 90
3, 81749, Note_on_c, 1, 79, 0
3, 81750, Note_on_c, 1, 76, 90
3, 81779, Note_on_c, 1, 76, 0
3, 81780, Note_on_c, 1, 78, 90
3, 81809, Note_on_c, 1, 78, 0
3, 81810, Note_on_c, 1, 79, 90
3, 81839, Note_on_c, 1, 79, 0
3, 81840, Note_on_c, 1, 73, 90
3, 81869, Note_on_c, 1, 73, 0
3, 81870, Note_on_c, 1, 74, 90
3, 81899, Note_on_c, 1, 74, 0
3, 81900, Note_on_c, 1, 76, 90
3, 81929, Note_on_c, 1, 76, 0
3, 81930, Note_on_c, 1, 73, 90
3, 81959, Note_on_c, 1, 73, 0
3, 81960, Note_on_c, 1, 74, 90
3, 81989, Note_on_c, 1, 74, 0
3, 81990, Note_on_c, 1, 76, 90
3, 82019, Note_on_c, 1, 76, 0
3, 82020, Note_on_c, 1, 69, 90
3, 82199, Note_on_c, 1, 69, 0
3, 82230, Note_on_c, 1, 71, 90
3, 82259, Note_on_c, 1, 71, 0
3, 82260, Note_on_c, 1, 72, 90
3, 82289, Note_on_c, 1, 72, 0
3, 82290, Note_on_c, 1, 69, 90
3, 82319, Note_on_c, 1, 69, 0
3, 82320, Note_on_c, 1, 71, 90
3, 82349, Note_on_c, 1, 71, 0
3, 82350, Note_on_c, 1, 72, 90
3, 82379, Note_on_c, 1, 72, 0
3, 82380, Note_on_c, 1, 66, 90
3, 82409, Note_on_c, 1, 66, 0
3, 82410, Note_on_c, 1, 67, 90
3, 82439, Note_on_c, 1, 67, 0
3, 82440, Note_on_c, 1, 69, 90
3, 82469, Note_on_c, 1, 69, 0
3, 82470, Note_on_c, 1, 66, 90
3, 82499, Note_on_c, 1, 66, 0
3, 82500, Note_on_c, 1, 67, 90
3, 82529, Note_on_c, 1, 67, 0
3, 82530, Note_on_c, 1, 69, 90
3, 82559, Note_on_c, 1, 69, 0
3, 82560, Note_on_c, 1, 62, 90
3, 82739, Note_on_c, 1, 62, 0
3, 82770, Note_on_c, 1, 64, 90
3, 82799, Note_on_c, 1, 64, 0
3, 82800, Note_on_c, 1, 66, 90
3, 82829, Note_on_c, 1, 66, 0
3, 82830, Note_on_c, 1, 62, 90
3, 82859, Note_on_c, 1, 62, 0
3, 82860, Note_on_c, 1, 64, 90
3, 82889, Note_on_c, 1, 64, 0
3, 82890, Note_on_c, 1, 66, 90
3, 82919, Note_on_c, 1, 66, 0
3, 82920, Note_on_c, 1, 67, 90
3, 82949, Note_on_c, 1, 67, 0
3, 82950, Note_on_c, 1, 69, 90
3, 82979, Note_on_c, 1, 69, 0
3, 82980, Note_on_c, 1, 71, 90
3, 83009, Note_on_c, 1, 71, 0
3, 83010, Note_on_c, 1, 67, 90
3, 83039, Note_on_c, 1, 67, 0
3, 83040, Note_on_c, 1, 69, 90
3, 83069, Note_on_c, 1, 69, 0
3, 83070, Note_on_c, 1, 71, 90
3, 83099, Note_on_c, 1, 71, 0
3, 83100, Note_on_c, 1, 64, 90
3, 83129, Note_on_c, 1, 64, 0
3, 83130, Note_on_c, 1, 66, 90
3, 83159, Note_on_c, 1, 66, 0
3, 83160, Note_on_c, 1, 67, 90
3, 83189, Note_on_c, 1, 67, 0
3, 83190, Note_on_c, 1, 64, 90
3, 83219, Note_on_c, 1, 64, 0
3, 83220, Note_on_c, 1, 66, 90
3, 83249, Note_on_c, 1, 66, 0
3, 83250, Note_on_c, 1, 67, 90
3, 83279, Note_on_c, 1, 67, 0
3, 83280, Note_on_c, 1, 69, 90
3, 83309, Note_on_c, 1, 69, 0
3, 83310, Note_on_c, 1, 71, 90
3, 83339, Note_on_c, 1, 71, 0
3, 83340, Note_on_c, 1, 73, 90
3, 83369, Note_on_c, 1, 73, 0
3, 83370, Note_on_c, 1, 69, 90
3, 83399, Note_on_c, 1, 69, 0
3, 83400, Note_on_c, 1, 71, 90
3, 83429, Note_on_c, 1, 71, 0
3, 83430, Note_on_c, 1, 73, 90
3, 83459, Note_on_c, 1, 73, 0
3, 83460, Note_on_c, 1, 66, 90
3, 83489, Note_on_c, 1, 66, 0
3, 83490, Note_on_c, 1, 67, 90
3, 83519, Note_on_c, 1, 67, 0
3, 83520, Note_on_c, 1, 69, 90
3, 83549, Note_on_c, 1, 69, 0
3, 83550, Note_on_c, 1, 66, 90
3, 83579, Note_on_c, 1, 66, 0
3, 83580, Note_on_c, 1, 67, 90
3, 83609, Note_on_c, 1, 67, 0
3, 83610, Note_on_c, 1, 69, 90
3, 83639, Note_on_c, 1, 69, 0
3, 83640, Note_on_c, 1, 71, 90
3, 83669, Note_on_c, 1, 71, 0
3, 83670, Note_on_c, 1, 73, 90
3, 83699, Note_on_c, 1, 73, 0
3, 83700, Note_on_c, 1, 74, 90
3, 83729, Note_on_c, 1, 74, 0
3, 83730, Note_on_c, 1, 71, 90
3, 83759, Note_on_c, 1, 71, 0
3, 83760, Note_on_c, 1, 73, 90
3, 83789, Note_on_c, 1, 73, 0
3, 83790, Note_on_c, 1, 74, 90
3, 83819, Note_on_c, 1, 74, 0
3, 83820, Note_on_c, 1, 73, 90
3, 83849, Note_on_c, 1, 73, 0
3, 83850, Note_on_c, 1, 74, 90
3, 83879, Note_on_c, 1, 74, 0
3, 83880, Note_on_c, 1, 76, 90
3, 83909, Note_on_c, 1, 76, 0
3, 83910, Note_on_c, 1, 78, 90
3, 83939, Note_on_c, 1, 78, 0
3, 83940, Note_on_c, 1, 74, 90
3, 83969, Note_on_c, 1, 74, 0
3, 83970, Note_on_c, 1, 76, 90
3, 83999, Note_on_c, 1, 76, 0
3, 84000, Note_on_c, 1, 73, 90
3, 84029, Note_on_c, 1, 73, 0
3, 84030, Note_on_c, 1, 74, 90
3, 84059, Note_on_c, 1, 74, 0
3, 84060, Note_on_c, 1, 76, 90
3, 84089, Note_on_c, 1, 76, 0
3, 84090, Note_on_c, 1, 78, 90
3, 84119, Note_on_c, 1, 78, 0
3, 84120, Note_on_c, 1, 74, 90
3, 84149, Note_on_c, 1, 74, 0
3, 84150, Note_on_c, 1, 76, 90
3, 84179, Note_on_c, 1, 76, 0
3, 84180, Note_on_c, 1, 73, 90
3, 84299, Note_on_c, 1, 73, 0
3, 84540, Note_on_c, 1, 81, 90
3, 84599, Note_on_c, 1, 81, 0
3, 84600, Note_on_c, 1, 74, 90
3, 84629, Note_on_c, 1, 74, 0
3, 84630, Note_on_c, 1, 76, 90
3, 84659, Note_on_c, 1, 76, 0
3, 84660, Note_on_c, 1, 74, 90
3, 84719, Note_on_c, 1, 74, 0
3, 84720, Note_on_c, 1, 74, 90
3, 84779, Note_on_c, 1, 74, 0
3, 84780, Note_on_c, 1, 84, 90
3, 84809, Note_on_c, 1, 84, 0
3, 84810, Note_on_c, 1, 83, 90
3, 84839, Note_on_c, 1, 83, 0
3, 84840, Note_on_c, 1, 81, 90
3, 84869, Note_on_c, 1, 81, 0
3, 84870, Note_on_c, 1, 84, 90
3, 84899, Note_on_c, 1, 84, 0
3, 84900, Note_on_c, 1, 83, 90
3, 84920, Note_on_c, 1, 83, 0
3, 84920, Note_on_c, 1, 84, 90
3, 84940, Note_on_c, 1, 84, 0
3, 84940, Note_on_c, 1, 83, 90
3, 84960, Note_on_c, 1, 83, 0
3, 84960, Note_on_c, 1, 84, 90
3, 84975, Note_on_c, 1, 84, 0
3, 84975, Note_on_c, 1, 83, 90
3, 84990, Note_on_c, 1, 83, 0
3, 84990, Note_on_c, 1, 84, 90
3, 85005, Note_on_c, 1, 84, 0
3, 85005, Note_on_c, 1, 83, 90
3, 85020, Note_on_c, 1, 83, 0
3, 85020, Note_on_c, 1, 84, 90
3, 85035, Note_on_c, 1, 84, 0
3, 85035, Note_on_c, 1, 83, 90
3, 85050, Note_on_c, 1, 83, 0
3, 85050, Note_on_c, 1, 84, 90
3, 85065, Note_on_c, 1, 84, 0
3, 85065, Note_on_c, 1, 83, 90
3, 85080, Note_on_c, 1, 83, 0
3, 85080, Note_on_c, 1, 84, 90
3, 85095, Note_on_c, 1, 84, 0
3, 85095, Note_on_c, 1, 83, 90
3, 85110, Note_on_c, 1, 83, 0
3, 85110, Note_on_c, 1, 84, 90
3, 85125, Note_on_c, 1, 84, 0
3, 85125, Note_on_c, 1, 83, 90
3, 85140, Note_on_c, 1, 83, 0
3, 85140, Note_on_c, 1, 84, 90
3, 85155, Note_on_c, 1, 84, 0
3, 85155, Note_on_c, 1, 83, 90
3, 85170, Note_on_c, 1, 83, 0
3, 85170, Note_on_c, 1, 84, 90
3, 85185, Note_on_c, 1, 84, 0
3, 85185, Note_on_c, 1, 83, 90
3, 85200, Note_on_c, 1, 83, 0
3, 85200, Note_on_c, 1, 84, 90
3, 85215, Note_on_c, 1, 84, 0
3, 85215, Note_on_c, 1, 83, 90
3, 85230, Note_on_c, 1, 83, 0
3, 85230, Note_on_c, 1, 84, 90
3, 85245, Note_on_c, 1, 84, 0
3, 85245, Note_on_c, 1, 83, 90
3, 85260, Note_on_c, 1, 83, 0
3, 85260, Note_on_c, 1, 84, 90
3, 85275, Note_on_c, 1, 84, 0
3, 85275, Note_on_c, 1, 83, 90
3, 85320, Note_on_c, 1, 83, 0
3, 85320, Note_on_c, 1, 73, 90
3, 85349, Note_on_c, 1, 73, 0
3, 85350, Note_on_c, 1, 74, 90
3, 85379, Note_on_c, 1, 74, 0
3, 85380, Note_on_c, 1, 73, 90
3, 85439, Note_on_c, 1, 73, 0
3, 85440, Note_on_c, 1, 73, 90
3, 85499, Note_on_c, 1, 73, 0
3, 85500, Note_on_c, 1, 83, 90
3, 85529, Note_on_c, 1, 83, 0
3, 85530, Note_on_c, 1, 81, 90
3, 85559, Note_on_c, 1, 81, 0
3, 85560, Note_on_c, 1, 80, 90
3, 85589, Note_on_c, 1, 80, 0
3, 85590, Note_on_c, 1, 83, 90
3, 85619, Note_on_c, 1, 83, 0
3, 85620, Note_on_c, 1, 81, 90
3, 85640, Note_on_c, 1, 81, 0
3, 85640, Note_on_c, 1, 83, 90
3, 85660, Note_on_c, 1, 83, 0
3, 85660, Note_on_c, 1, 81, 90
3, 85680, Note_on_c, 1, 81, 0
3, 85680, Note_on_c, 1, 83, 90
3, 85695, Note_on_c, 1, 83, 0
3, 85695, Note_on_c, 1, 81, 90
3, 85710, Note_on_c, 1, 81, 0
3, 85710, Note_on_c, 1, 83, 90
3, 85725, Note_on_c, 1, 83, 0
3, 85725, Note_on_c, 1, 81, 90
3, 85740, Note_on_c, 1, 81, 0
3, 85740, Note_on_c, 1, 83, 90
3, 85755, Note_on_c, 1, 83, 0
3, 85755, Note_on_c, 1, 81, 90
3, 85770, Note_on_c, 1, 81, 0
3, 85770, Note_on_c, 1, 83, 90
3, 85785, Note_on_c, 1, 83, 0
3, 85785, Note_on_c, 1, 81, 90
3, 85800, Note_on_c, 1, 81, 0
3, 85800, Note_on_c, 1, 83, 90
3, 85815, Note_on_c, 1, 83, 0
3, 85815, Note_on_c, 1, 81, 90
3, 85830, Note_on_c, 1, 81, 0
3, 85830, Note_on_c, 1, 83, 90
3, 85845, Note_on_c, 1, 83, 0
3, 85845, Note_on_c, 1, 81, 90
3, 85860, Note_on_c, 1, 81, 0
3, 85860, Note_on_c, 1, 83, 90
3, 85875, Note_on_c, 1, 83, 0
3, 85875, Note_on_c, 1, 81, 90
3, 85890, Note_on_c, 1, 81, 0
3, 85890, Note_on_c, 1, 83, 90
3, 85905, Note_on_c, 1, 83, 0
3, 85905, Note_on_c, 1, 81, 90
3, 85920, Note_on_c, 1, 81, 0
3, 85920, Note_on_c, 1, 83, 90
3, 85935, Note_on_c, 1, 83, 0
3, 85935, Note_on_c, 1, 81, 90
3, 85950, Note_on_c, 1, 81, 0
3, 85950, Note_on_c, 1, 83, 90
3, 85965, Note_on_c, 1, 83, 0
3, 85965, Note_on_c, 1, 81, 90
3, 85980, Note_on_c, 1, 81, 0
3, 85980, Note_on_c, 1, 83, 90
3, 85995, Note_on_c, 1, 83, 0
3, 85995, Note_on_c, 1, 81, 90
3, 86040, Note_on_c, 1, 81, 0
3, 86040, Note_on_c, 1, 71, 90
3, 86069, Note_on_c, 1, 71, 0
3, 86070, Note_on_c, 1, 73, 90
3, 86099, Note_on_c, 1, 73, 0
3, 86100, Note_on_c, 1, 71, 90
3, 86159, Note_on_c, 1, 71, 0
3, 86160, Note_on_c, 1, 71, 90
3, 86219, Note_on_c, 1, 71, 0
3, 86220, Note_on_c, 1, 81, 90
3, 86249, Note_on_c, 1, 81, 0
3, 86250, Note_on_c, 1, 79, 90
3, 86279, Note_on_c, 1, 79, 0
3, 86280, Note_on_c, 1, 78, 90
3, 86309, Note_on_c, 1, 78, 0
3, 86310, Note_on_c, 1, 81, 90
3, 86339, Note_on_c, 1, 81, 0
3, 86340, Note_on_c, 1, 79, 90
3, 86360, Note_on_c, 1, 79, 0
3, 86360, Note_on_c, 1, 81, 90
3, 86380, Note_on_c, 1, 81, 0
3, 86380, Note_on_c, 1, 79, 90
3, 86400, Note_on_c, 1, 79, 0
3, 86400, Note_on_c, 1, 81, 90
3, 86415, Note_on_c, 1, 81, 0
3, 86415, Note_on_c, 1, 79, 90
3, 86430, Note_on_c, 1, 79, 0
3, 86430, Note_on_c, 1, 81, 90
3, 86445, Note_on_c, 1, 81, 0
3, 86445, Note_on_c, 1, 79, 90
3, 86460, Note_on_c, 1, 79, 0
3, 86460, Note_on_c, 1, 81, 90
3, 86475, Note_on_c, 1, 81, 0
3, 86475, Note_on_c, 1, 79, 90
3, 86490, Note_on_c, 1, 79, 0
3, 86490, Note_on_c, 1, 81, 90
3, 86505, Note_on_c, 1, 81, 0
3, 86505, Note_on_c, 1, 79, 90
3, 86520, Note_on_c, 1, 79, 0
3, 86520, Note_on_c, 1, 81, 90
3, 86535, Note_on_c, 1, 81, 0
3, 86535, Note_on_c, 1, 79, 90
3, 86550, Note_on_c, 1, 79, 0
3, 86550, Note_on_c, 1, 81, 90
3, 86565, Note_on_c, 1, 81, 0
3, 86565, Note_on_c, 1, 79, 90
3, 86580, Note_on_c, 1, 79, 0
3, 86580, Note_on_c, 1, 81, 90
3, 86595, Note_on_c, 1, 81, 0
3, 86595, Note_on_c, 1, 79, 90
3, 86610, Note_on_c, 1, 79, 0
3, 86610, Note_on_c, 1, 81, 90
3, 86625, Note_on_c, 1, 81, 0
3, 86625, Note_on_c, 1, 79, 90
3, 86640, Note_on_c, 1, 79, 0
3, 86640, Note_on_c, 1, 81, 90
3, 86655, Note_on_c, 1, 81, 0
3, 86655, Note_on_c, 1, 79, 90
3, 86670, Note_on_c, 1, 79, 0
3, 86670, Note_on_c, 1, 81, 90
3, 86685, Note_on_c, 1, 81, 0
3, 86685, Note_on_c, 1, 79, 90
3, 86700, Note_on_c, 1, 79, 0
3, 86700, Note_on_c, 1, 81, 90
3, 86715, Note_on_c, 1, 81, 0
3, 86715, Note_on_c, 1, 79, 90
3, 86760, Note_on_c, 1, 79, 0
3, 86760, Note_on_c, 1, 69, 90
3, 86789, Note_on_c, 1, 69, 0
3, 86790, Note_on_c, 1, 71, 90
3, 86819, Note_on_c, 1, 71, 0
3, 86820, Note_on_c, 1, 69, 90
3, 86879, Note_on_c, 1, 69, 0
3, 86880, Note_on_c, 1, 69, 90
3, 86939, Note_on_c, 1, 69, 0
3, 86940, Note_on_c, 1, 79, 90
3, 86969, Note_on_c, 1, 79, 0
3, 86970, Note_on_c, 1, 78, 90
3, 86999, Note_on_c, 1, 78, 0
3, 87000, Note_on_c, 1, 76, 90
3, 87029, Note_on_c, 1, 76, 0
3, 87030, Note_on_c, 1, 79, 90
3, 87059, Note_on_c, 1, 79, 0
3, 87060, Note_on_c, 1, 78, 90
3, 87089, Note_on_c, 1, 78, 0
3, 87090, Note_on_c, 1, 69, 90
3, 87119, Note_on_c, 1, 69, 0
3, 87120, Note_on_c, 1, 74, 90
3, 87179, Note_on_c, 1, 74, 0
3, 87180, Note_on_c, 1, 76, 90
3, 87195, Note_on_c, 1, 76, 0
3, 87195, Note_on_c, 1, 78, 90
3, 87210, Note_on_c, 1, 78, 0
3, 87210, Note_on_c, 1, 76, 90
3, 87240, Note_on_c, 1, 76, 0
3, 87240, Note_on_c, 1, 78, 90
3, 87359, Note_on_c, 1, 78, 0
3, 87420, Note_on_c, 1, 69, 90
3, 87479, Note_on_c, 1, 69, 0
3, 87480, Note_on_c, 1, 76, 90
3, 87539, Note_on_c, 1, 76, 0
3, 87540, Note_on_c, 1, 79, 90
3, 87555, Note_on_c, 1, 79, 0
3, 87555, Note_on_c, 1, 78, 90
3, 87570, Note_on_c, 1, 78, 0
3, 87570, Note_on_c, 1, 76, 90
3, 87585, Note_on_c, 1, 76, 0
3, 87585, Note_on_c, 1, 78, 90
3, 87600, Note_on_c, 1, 78, 0
3, 87600, Note_on_c, 1, 79, 90
3, 87719, Note_on_c, 1, 79, 0
3, 87780, Note_on_c, 1, 74, 90
3, 87809, Note_on_c, 1, 74, 0
3, 87810, Note_on_c, 1, 76, 90
3, 87839, Note_on_c, 1, 76, 0
3, 87840, Note_on_c, 1, 78, 90
3, 87869, Note_on_c, 1, 78, 0
3, 87870, Note_on_c, 1, 79, 90
3, 87899, Note_on_c, 1, 79, 0
3, 87900, Note_on_c, 1, 76, 90
3, 87929, Note_on_c, 1, 76, 0
3, 87930, Note_on_c, 1, 78, 90
3, 87959, Note_on_c, 1, 78, 0
3, 87960, Note_on_c, 1, 74, 90
3, 87989, Note_on_c, 1, 74, 0
3, 87990, Note_on_c, 1, 76, 90
3, 88019, Note_on_c, 1, 76, 0
3, 88020, Note_on_c, 1, 78, 90
3, 88049, Note_on_c, 1, 78, 0
3, 88050, Note_on_c, 1, 79, 90
3, 88079, Note_on_c, 1, 79, 0
3, 88080, Note_on_c, 1, 76, 90
3, 88109, Note_on_c, 1, 76, 0
3, 88110, Note_on_c, 1, 78, 90
3, 88139, Note_on_c, 1, 78, 0
3, 88140, Note_on_c, 1, 75, 90
3, 88169, Note_on_c, 1, 75, 0
3, 88170, Note_on_c, 1, 76, 90
3, 88199, Note_on_c, 1, 76, 0
3, 88200, Note_on_c, 1, 78, 90
3, 88229, Note_on_c, 1, 78, 0
3, 88230, Note_on_c, 1, 75, 90
3, 88259, Note_on_c, 1, 75, 0
3, 88260, Note_on_c, 1, 76, 90
3, 88289, Note_on_c, 1, 76, 0
3, 88290, Note_on_c, 1, 78, 90
3, 88319, Note_on_c, 1, 78, 0
3, 88320, Note_on_c, 1, 76, 90
3, 88499, Note_on_c, 1, 76, 0
3, 88530, Note_on_c, 1, 78, 90
3, 88559, Note_on_c, 1, 78, 0
3, 88560, Note_on_c, 1, 79, 90
3, 88589, Note_on_c, 1, 79, 0
3, 88590, Note_on_c, 1, 76, 90
3, 88619, Note_on_c, 1, 76, 0
3, 88620, Note_on_c, 1, 78, 90
3, 88649, Note_on_c, 1, 78, 0
3, 88650, Note_on_c, 1, 79, 90
3, 88679, Note_on_c, 1, 79, 0
3, 88680, Note_on_c, 1, 73, 90
3, 88709, Note_on_c, 1, 73, 0
3, 88710, Note_on_c, 1, 74, 90
3, 88739, Note_on_c, 1, 74, 0
3, 88740, Note_on_c, 1, 76, 90
3, 88769, Note_on_c, 1, 76, 0
3, 88770, Note_on_c, 1, 73, 90
3, 88799, Note_on_c, 1, 73, 0
3, 88800, Note_on_c, 1, 74, 90
3, 88829, Note_on_c, 1, 74, 0
3, 88830, Note_on_c, 1, 76, 90
3, 88859, Note_on_c, 1, 76, 0
3, 88860, Note_on_c, 1, 69, 90
3, 89039, Note_on_c, 1, 69, 0
3, 89070, Note_on_c, 1, 71, 90
3, 89099, Note_on_c, 1, 71, 0
3, 89100, Note_on_c, 1, 72, 90
3, 89129, Note_on_c, 1, 72, 0
3, 89130, Note_on_c, 1, 69, 90
3, 89159, Note_on_c, 1, 69, 0
3, 89160, Note_on_c, 1, 71, 90
3, 89189, Note_on_c, 1, 71, 0
3, 89190, Note_on_c, 1, 72, 90
3, 89219, Note_on_c, 1, 72, 0
3, 89220, Note_on_c, 1, 66, 90
3, 89249, Note_on_c, 1, 66, 0
3, 89250, Note_on_c, 1, 67, 90
3, 89279, Note_on_c, 1, 67, 0
3, 89280, Note_on_c, 1, 69, 90
3, 89309, Note_on_c, 1, 69, 0
3, 89310, Note_on_c, 1, 66, 90
3, 89339, Note_on_c, 1, 66, 0
3, 89340, Note_on_c, 1, 67, 90
3, 89369, Note_on_c, 1, 67, 0
3, 89370, Note_on_c, 1, 69, 90
3, 89399, Note_on_c, 1, 69, 0
3, 89400, Note_on_c, 1, 62, 90
3, 89579, Note_on_c, 1, 62, 0
3, 89580, Note_on_c, 1, 74, 90
3, 89609, Note_on_c, 1, 74, 0
3, 89610, Note_on_c, 1, 76, 90
3, 89639, Note_on_c, 1, 76, 0
3, 89640, Note_on_c, 1, 78, 90
3, 89669, Note_on_c, 1, 78, 0
3, 89670, Note_on_c, 1, 74, 90
3, 89699, Note_on_c, 1, 74, 0
3, 89700, Note_on_c, 1, 76, 90
3, 89729, Note_on_c, 1, 76, 0
3, 89730, Note_on_c, 1, 78, 90
3, 89759, Note_on_c, 1, 78, 0
3, 89760, Note_on_c, 1, 71, 90
3, 89789, Note_on_c, 1, 71, 0
3, 89790, Note_on_c, 1, 73, 90
3, 89819, Note_on_c, 1, 73, 0
3, 89820, Note_on_c, 1, 74, 90
3, 89849, Note_on_c, 1, 74, 0
3, 89850, Note_on_c, 1, 71, 90
3, 89879, Note_on_c, 1, 71, 0
3, 89880, Note_on_c, 1, 73, 90
3, 89909, Note_on_c, 1, 73, 0
3, 89910, Note_on_c, 1, 74, 90
3, 89939, Note_on_c, 1, 74, 0
3, 89940, Note_on_c, 1, 76, 90
3, 89969, Note_on_c, 1, 76, 0
3, 89970, Note_on_c, 1, 78, 90
3, 89999, Note_on_c, 1, 78, 0
3, 90000, Note_on_c, 1, 79, 90
3, 90029, Note_on_c, 1, 79, 0
3, 90030, Note_on_c, 1, 76, 90
3, 90059, Note_on_c, 1, 76, 0
3, 90060, Note_on_c, 1, 78, 90
3, 90089, Note_on_c, 1, 78, 0
3, 90090, Note_on_c, 1, 79, 90
3, 90119, Note_on_c, 1, 79, 0
3, 90120, Note_on_c, 1, 73, 90
3, 90149, Note_on_c, 1, 73, 0
3, 90150, Note_on_c, 1, 74, 90
3, 90179, Note_on_c, 1, 74, 0
3, 90180, Note_on_c, 1, 76, 90
3, 90209, Note_on_c, 1, 76, 0
3, 90210, Note_on_c, 1, 73, 90
3, 90239, Note_on_c, 1, 73, 0
3, 90240, Note_on_c, 1, 74, 90
3, 90269, Note_on_c, 1, 74, 0
3, 90270, Note_on_c, 1, 76, 90
3, 90299, Note_on_c, 1, 76, 0
3, 90300, Note_on_c, 1, 78, 90
3, 90329, Note_on_c, 1, 78, 0
3, 90330, Note_on_c, 1, 79, 90
3, 90359, Note_on_c, 1, 79, 0
3, 90360, Note_on_c, 1, 81, 90
3, 90389, Note_on_c, 1, 81, 0
3, 90390, Note_on_c, 1, 78, 90
3, 90419, Note_on_c, 1, 78, 0
3, 90420, Note_on_c, 1, 79, 90
3, 90449, Note_on_c, 1, 79, 0
3, 90450, Note_on_c, 1, 81, 90
3, 90479, Note_on_c, 1, 81, 0
3, 90480, Note_on_c, 1, 74, 90
3, 90509, Note_on_c, 1, 74, 0
3, 90510, Note_on_c, 1, 76, 90
3, 90539, Note_on_c, 1, 76, 0
3, 90540, Note_on_c, 1, 78, 90
3, 90569, Note_on_c, 1, 78, 0
3, 90570, Note_on_c, 1, 74, 90
3, 90599, Note_on_c, 1, 74, 0
3, 90600, Note_on_c, 1, 76, 90
3, 90629, Note_on_c, 1, 76, 0
3, 90630, Note_on_c, 1, 78, 90
3, 90659, Note_on_c, 1, 78, 0
3, 90660, Note_on_c, 1, 79, 90
3, 90689, Note_on_c, 1, 79, 0
3, 90690, Note_on_c, 1, 81, 90
3, 90719, Note_on_c, 1, 81, 0
3, 90720, Note_on_c, 1, 83, 90
3, 90749, Note_on_c, 1, 83, 0
3, 90750, Note_on_c, 1, 84, 90
3, 90779, Note_on_c, 1, 84, 0
3, 90780, Note_on_c, 1, 81, 90
3, 90809, Note_on_c, 1, 81, 0
3, 90810, Note_on_c, 1, 83, 90
3, 90839, Note_on_c, 1, 83, 0
3, 90840, Note_on_c, 1, 79, 90
3, 90869, Note_on_c, 1, 79, 0
3, 90870, Note_on_c, 1, 81, 90
3, 90899, Note_on_c, 1, 81, 0
3, 90900, Note_on_c, 1, 83, 90
3, 90929, Note_on_c, 1, 83, 0
3, 90930, Note_on_c, 1, 79, 90
3, 90959, Note_on_c, 1, 79, 0
3, 90960, Note_on_c, 1, 81, 90
3, 90989, Note_on_c, 1, 81, 0
3, 90990, Note_on_c, 1, 83, 90
3, 91019, Note_on_c, 1, 83, 0
3, 91020, Note_on_c, 1, 76, 90
3, 91049, Note_on_c, 1, 76, 0
3, 91050, Note_on_c, 1, 78, 90
3, 91079, Note_on_c, 1, 78, 0
3, 91080, Note_on_c, 1, 79, 90
3, 91109, Note_on_c, 1, 79, 0
3, 91110, Note_on_c, 1, 81, 90
3, 91139, Note_on_c, 1, 81, 0
3, 91140, Note_on_c, 1, 78, 90
3, 91169, Note_on_c, 1, 78, 0
3, 91170, Note_on_c, 1, 79, 90
3, 91199, Note_on_c, 1, 79, 0
3, 91200, Note_on_c, 1, 76, 90
3, 91229, Note_on_c, 1, 76, 0
3, 91230, Note_on_c, 1, 78, 90
3, 91259, Note_on_c, 1, 78, 0
3, 91260, Note_on_c, 1, 79, 90
3, 91289, Note_on_c, 1, 79, 0
3, 91290, Note_on_c, 1, 76, 90
3, 91319, Note_on_c, 1, 76, 0
3, 91320, Note_on_c, 1, 78, 90
3, 91349, Note_on_c, 1, 78, 0
3, 91350, Note_on_c, 1, 79, 90
3, 91379, Note_on_c, 1, 79, 0
3, 91380, Note_on_c, 1, 73, 90
3, 91409, Note_on_c, 1, 73, 0
3, 91410, Note_on_c, 1, 74, 90
3, 91439, Note_on_c, 1, 74, 0
3, 91440, Note_on_c, 1, 76, 90
3, 91469, Note_on_c, 1, 76, 0
3, 91470, Note_on_c, 1, 73, 90
3, 91499, Note_on_c, 1, 73, 0
3, 91500, Note_on_c, 1, 74, 90
3, 91529, Note_on_c, 1, 74, 0
3, 91530, Note_on_c, 1, 76, 90
3, 91559, Note_on_c, 1, 76, 0
3, 91560, Note_on_c, 1, 74, 90
3, 91589, Note_on_c, 1, 74, 0
3, 91590, Note_on_c, 1, 73, 90
3, 91619, Note_on_c, 1, 73, 0
3, 91620, Note_on_c, 1, 74, 90
3, 91649, Note_on_c, 1, 74, 0
3, 91650, Note_on_c, 1, 76, 90
3, 91679, Note_on_c, 1, 76, 0
3, 91680, Note_on_c, 1, 78, 90
3, 91709, Note_on_c, 1, 78, 0
3, 91710, Note_on_c, 1, 74, 90
3, 91739, Note_on_c, 1, 74, 0
3, 91740, Note_on_c, 1, 79, 90
3, 91769, Note_on_c, 1, 79, 0
3, 91770, Note_on_c, 1, 78, 90
3, 91799, Note_on_c, 1, 78, 0
3, 91800, Note_on_c, 1, 79, 90
3, 91829, Note_on_c, 1, 79, 0
3, 91830, Note_on_c, 1, 76, 90
3, 91859, Note_on_c, 1, 76, 0
3, 91860, Note_on_c, 1, 78, 90
3, 91889, Note_on_c, 1, 78, 0
3, 91890, Note_on_c, 1, 79, 90
3, 91919, Note_on_c, 1, 79, 0
3, 91920, Note_on_c, 1, 73, 90
3, 91949, Note_on_c, 1, 73, 0
3, 91950, Note_on_c, 1, 76, 90
3, 91979, Note_on_c, 1, 76, 0
3, 91980, Note_on_c, 1, 81, 90
3, 92009, Note_on_c, 1, 81, 0
3, 92010, Note_on_c, 1, 76, 90
3, 92039, Note_on_c, 1, 76, 0
3, 92040, Note_on_c, 1, 73, 90
3, 92069, Note_on_c, 1, 73, 0
3, 92070, Note_on_c, 1, 69, 90
3, 92099, Note_on_c, 1, 69, 0
3, 92100, Note_on_c, 1, 74, 90
3, 92129, Note_on_c, 1, 74, 0
3, 92130, Note_on_c, 1, 76, 90
3, 92159, Note_on_c, 1, 76, 0
3, 92160, Note_on_c, 1, 78, 90
3, 92189, Note_on_c, 1, 78, 0
3, 92190, Note_on_c, 1, 79, 90
3, 92219, Note_on_c, 1, 79, 0
3, 92220, Note_on_c, 1, 76, 90
3, 92249, Note_on_c, 1, 76, 0
3, 92250, Note_on_c, 1, 78, 90
3, 92279, Note_on_c, 1, 78, 0
3, 92280, Note_on_c, 1, 74, 90
3, 92309, Note_on_c, 1, 74, 0
3, 92310, Note_on_c, 1, 76, 90
3, 92339, Note_on_c, 1, 76, 0
3, 92340, Note_on_c, 1, 78, 90
3, 92369, Note_on_c, 1, 78, 0
3, 92370, Note_on_c, 1, 79, 90
3, 92399, Note_on_c, 1, 79, 0
3, 92400, Note_on_c, 1, 76, 90
3, 92429, Note_on_c, 1, 76, 0
3, 92430, Note_on_c, 1, 78, 90
3, 92459, Note_on_c, 1, 78, 0
3, 92460, Note_on_c, 1, 74, 90
3, 92480, Note_on_c, 1, 74, 0
3, 92480, Note_on_c, 1, 76, 90
3, 92500, Note_on_c, 1, 76, 0
3, 92500, Note_on_c, 1, 74, 90
3, 92520, Note_on_c, 1, 74, 0
3, 92520, Note_on_c, 1, 76, 90
3, 92535, Note_on_c, 1, 76, 0
3, 92535, Note_on_c, 1, 74, 90
3, 92550, Note_on_c, 1, 74, 0
3, 92550, Note_on_c, 1, 76, 90
3, 92565, Note_on_c, 1, 76, 0
3, 92565, Note_on_c, 1, 74, 90
3, 92580, Note_on_c, 1, 74, 0
3, 92580, Note_on_c, 1, 76, 90
3, 92595, Note_on_c, 1, 76, 0
3, 92595, Note_on_c, 1, 74, 90
3, 92610, Note_on_c, 1, 74, 0
3, 92610, Note_on_c, 1, 76, 90
3, 92625, Note_on_c, 1, 76, 0
3, 92625, Note_on_c, 1, 74, 90
3, 92640, Note_on_c, 1, 74, 0
3, 92640, Note_on_c, 1, 76, 90
3, 92655, Note_on_c, 1, 76, 0
3, 92655, Note_on_c, 1, 74, 90
3, 92670, Note_on_c, 1, 74, 0
3, 92670, Note_on_c, 1, 76, 90
3, 92685, Note_on_c, 1, 76, 0
3, 92685, Note_on_c, 1, 74, 90
3, 92700, Note_on_c, 1, 74, 0
3, 92700, Note_on_c, 1, 73, 90
3, 92720, Note_on_c, 1, 73, 0
3, 92720, Note_on_c, 1, 74, 90
3, 92740, Note_on_c, 1, 74, 0
3, 92740, Note_on_c, 1, 73, 90
3, 92760, Note_on_c, 1, 73, 0
3, 92760, Note_on_c, 1, 74, 90
3, 92775, Note_on_c, 1, 74, 0
3, 92775, Note_on_c, 1, 73, 90
3, 92790, Note_on_c, 1, 73, 0
3, 92790, Note_on_c, 1, 74, 90
3, 92805, Note_on_c, 1, 74, 0
3, 92805, Note_on_c, 1, 73, 90
3, 92820, Note_on_c, 1, 73, 0
3, 92820, Note_on_c, 1, 74, 90
3, 92835, Note_on_c, 1, 74, 0
3, 92835, Note_on_c, 1, 73, 90
3, 92850, Note_on_c, 1, 73, 0
3, 92850, Note_on_c, 1, 74, 90
3, 92865, Note_on_c, 1, 74, 0
3, 92865, Note_on_c, 1, 73, 90
3, 92880, Note_on_c, 1, 73, 0
3, 92880, Note_on_c, 1, 71, 90
3, 92895, Note_on_c, 1, 71, 0
3, 92895, Note_on_c, 1, 69, 90
3, 92910, Note_on_c, 1, 69, 0
3, 92910, Note_on_c, 1, 71, 90
3, 93060, Note_on_c, 1, 71, 0
3, 93060, Note_on_c, 1, 69, 90
3, 93075, Note_on_c, 1, 69, 0
3, 93075, Note_on_c, 1, 67, 90
3, 93090, Note_on_c, 1, 67, 0
3, 93090, Note_on_c, 1, 69, 90
3, 93240, Note_on_c, 1, 69, 0
3, 93240, Note_on_c, 1, 67, 90
3, 93255, Note_on_c, 1, 67, 0
3, 93255, Note_on_c, 1, 66, 90
3, 93270, Note_on_c, 1, 66, 0
3, 93270, Note_on_c, 1, 67, 90
3, 93420, Note_on_c, 1, 67, 0
3, 93450, Note_on_c, 1, 71, 90
3, 93479, Note_on_c, 1, 71, 0
3, 93480, Note_on_c, 1, 69, 90
3, 93509, Note_on_c, 1, 69, 0
3, 93510, Note_on_c, 1, 67, 90
3, 93539, Note_on_c, 1, 67, 0
3, 93540, Note_on_c, 1, 66, 90
3, 93555, Note_on_c, 1, 66, 0
3, 93555, Note_on_c, 1, 67, 90
3, 93570, Note_on_c, 1, 67, 0
3, 93570, Note_on_c, 1, 69, 90
3, 93599, Note_on_c, 1, 69, 0
3, 93600, Note_on_c, 1, 64, 90
3, 93689, Note_on_c, 1, 64, 0
3, 93690, Note_on_c, 1, 62, 90
3, 93719, Note_on_c, 1, 62, 0
3, 93720, Note_on_c, 1, 62, 90
3, 93839, Note_on_c, 1, 62, 0
3, 93960, Note_on_c, 1, 66, 90
3, 93960, Note_on_c, 1, 62, 90
3, 94019, Note_on_c, 1, 62, 0
3, 94019, Note_on_c, 1, 66, 0
3, 94020, Note_on_c, 1, 66, 90
3, 94020, Note_on_c, 1, 62, 90
3, 94079, Note_on_c, 1, 62, 0
3, 94079, Note_on_c, 1, 66, 0
3, 94080, Note_on_c, 1, 61, 90
3, 94080, Note_on_c, 1, 66, 90
3, 94080, Note_on_c, 1, 64, 90
3, 94199, Note_on_c, 1, 64, 0
3, 94199, Note_on_c, 1, 66, 0
3, 94199, Note_on_c, 1, 61, 0
3, 94320, Note_on_c, 1, 66, 90
3, 94320, Note_on_c, 1, 58, 90
3, 94320, Note_on_c, 1, 61, 90
3, 94350, Note_on_c, 1, 66, 0
3, 94350, Note_on_c, 1, 67, 90
3, 94379, Note_on_c, 1, 61, 0
3, 94379, Note_on_c, 1, 58, 0
3, 94380, Note_on_c, 1, 67, 0
3, 94380, Note_on_c, 1, 61, 90
3, 94380, Note_on_c, 1, 66, 90
3, 94439, Note_on_c, 1, 66, 0
3, 94439, Note_on_c, 1, 61, 0
3, 94440, Note_on_c, 1, 66, 90
3, 94440, Note_on_c, 1, 62, 90
3, 94499, Note_on_c, 1, 62, 0
3, 94499, Note_on_c, 1, 66, 0
3, 94500, Note_on_c, 1, 71, 90
3, 94559, Note_on_c, 1, 71, 0
3, 94560, Note_on_c, 1, 70, 90
3, 94575, Note_on_c, 1, 70, 0
3, 94575, Note_on_c, 1, 68, 90
3, 94590, Note_on_c, 1, 68, 0
3, 94590, Note_on_c, 1, 70, 90
3, 94620, Note_on_c, 1, 70, 0
3, 94620, Note_on_c, 1, 71, 90
3, 94679, Note_on_c, 1, 71, 0
3, 94680, Note_on_c, 1, 66, 90
3, 94739, Note_on_c, 1, 66, 0
3, 94740, Note_on_c, 1, 71, 90
3, 94755, Note_on_c, 1, 71, 0
3, 94755, Note_on_c, 1, 70, 90
3, 94770, Note_on_c, 1, 70, 0
3, 94770, Note_on_c, 1, 68, 90
3, 94785, Note_on_c, 1, 68, 0
3, 94785, Note_on_c, 1, 70, 90
3, 94800, Note_on_c, 1, 70, 0
3, 94800, Note_on_c, 1, 71, 90
3, 94919, Note_on_c, 1, 71, 0
3, 95040, Note_on_c, 1, 73, 90
3, 95069, Note_on_c, 1, 73, 0
3, 95070, Note_on_c, 1, 74, 90
3, 95099, Note_on_c, 1, 74, 0
3, 95100, Note_on_c, 1, 73, 90
3, 95159, Note_on_c, 1, 73, 0
3, 95160, Note_on_c, 1, 73, 90
3, 95219, Note_on_c, 1, 73, 0
3, 95220, Note_on_c, 1, 81, 90
3, 95249, Note_on_c, 1, 81, 0
3, 95250, Note_on_c, 1, 80, 90
3, 95279, Note_on_c, 1, 80, 0
3, 95280, Note_on_c, 1, 78, 90
3, 95309, Note_on_c, 1, 78, 0
3, 95310, Note_on_c, 1, 81, 90
3, 95339, Note_on_c, 1, 81, 0
3, 95340, Note_on_c, 1, 80, 90
3, 95399, Note_on_c, 1, 80, 0
3, 95400, Note_on_c, 1, 73, 90
3, 95429, Note_on_c, 1, 73, 0
3, 95430, Note_on_c, 1, 74, 90
3, 95459, Note_on_c, 1, 74, 0
3, 95460, Note_on_c, 1, 73, 90
3, 95519, Note_on_c, 1, 73, 0
3, 95520, Note_on_c, 1, 73, 90
3, 95579, Note_on_c, 1, 73, 0
3, 95580, Note_on_c, 1, 83, 90
3, 95609, Note_on_c, 1, 83, 0
3, 95610, Note_on_c, 1, 81, 90
3, 95639, Note_on_c, 1, 81, 0
3, 95640, Note_on_c, 1, 80, 90
3, 95669, Note_on_c, 1, 80, 0
3, 95670, Note_on_c, 1, 83, 90
3, 95699, Note_on_c, 1, 83, 0
3, 95700, Note_on_c, 1, 81, 90
3, 95729, Note_on_c, 1, 81, 0
3, 95730, Note_on_c, 1, 83, 90
3, 95759, Note_on_c, 1, 83, 0
3, 95760, Note_on_c, 1, 85, 90
3, 95789, Note_on_c, 1, 85, 0
3, 95790, Note_on_c, 1, 86, 90
3, 95819, Note_on_c, 1, 86, 0
3, 95820, Note_on_c, 1, 83, 90
3, 95849, Note_on_c, 1, 83, 0
3, 95850, Note_on_c, 1, 85, 90
3, 95879, Note_on_c, 1, 85, 0
3, 95880, Note_on_c, 1, 81, 90
3, 95909, Note_on_c, 1, 81, 0
3, 95910, Note_on_c, 1, 83, 90
3, 95939, Note_on_c, 1, 83, 0
3, 95940, Note_on_c, 1, 85, 90
3, 95969, Note_on_c, 1, 85, 0
3, 95970, Note_on_c, 1, 86, 90
3, 95999, Note_on_c, 1, 86, 0
3, 96000, Note_on_c, 1, 83, 90
3, 96029, Note_on_c, 1, 83, 0
3, 96030, Note_on_c, 1, 85, 90
3, 96059, Note_on_c, 1, 85, 0
3, 96060, Note_on_c, 1, 81, 90
3, 96089, Note_on_c, 1, 81, 0
3, 96090, Note_on_c, 1, 83, 90
3, 96119, Note_on_c, 1, 83, 0
3, 96120, Note_on_c, 1, 85, 90
3, 96149, Note_on_c, 1, 85, 0
3, 96150, Note_on_c, 1, 81, 90
3, 96179, Note_on_c, 1, 81, 0
3, 96180, Note_on_c, 1, 83, 90
3, 96209, Note_on_c, 1, 83, 0
3, 96210, Note_on_c, 1, 85, 90
3, 96239, Note_on_c, 1, 85, 0
3, 96240, Note_on_c, 1, 74, 90
3, 96269, Note_on_c, 1, 74, 0
3, 96270, Note_on_c, 1, 76, 90
3, 96299, Note_on_c, 1, 76, 0
3, 96300, Note_on_c, 1, 78, 90
3, 96329, Note_on_c, 1, 78, 0
3, 96330, Note_on_c, 1, 74, 90
3, 96359, Note_on_c, 1, 74, 0
3, 96360, Note_on_c, 1, 76, 90
3, 96389, Note_on_c, 1, 76, 0
3, 96390, Note_on_c, 1, 78, 90
3, 96419, Note_on_c, 1, 78, 0
3, 96420, Note_on_c, 1, 80, 90
3, 96449, Note_on_c, 1, 80, 0
3, 96450, Note_on_c, 1, 81, 90
3, 96479, Note_on_c, 1, 81, 0
3, 96480, Note_on_c, 1, 83, 90
3, 96509, Note_on_c, 1, 83, 0
3, 96510, Note_on_c, 1, 80, 90
3, 96539, Note_on_c, 1, 80, 0
3, 96540, Note_on_c, 1, 81, 90
3, 96569, Note_on_c, 1, 81, 0
3, 96570, Note_on_c, 1, 83, 90
3, 96599, Note_on_c, 1, 83, 0
3, 96600, Note_on_c, 1, 73, 90
3, 96629, Note_on_c, 1, 73, 0
3, 96630, Note_on_c, 1, 74, 90
3, 96659, Note_on_c, 1, 74, 0
3, 96660, Note_on_c, 1, 76, 90
3, 96689, Note_on_c, 1, 76, 0
3, 96690, Note_on_c, 1, 73, 90
3, 96719, Note_on_c, 1, 73, 0
3, 96720, Note_on_c, 1, 74, 90
3, 96749, Note_on_c, 1, 74, 0
3, 96750, Note_on_c, 1, 76, 90
3, 96779, Note_on_c, 1, 76, 0
3, 96780, Note_on_c, 1, 78, 90
3, 96809, Note_on_c, 1, 78, 0
3, 96810, Note_on_c, 1, 80, 90
3, 96839, Note_on_c, 1, 80, 0
3, 96840, Note_on_c, 1, 81, 90
3, 96869, Note_on_c, 1, 81, 0
3, 96870, Note_on_c, 1, 78, 90
3, 96899, Note_on_c, 1, 78, 0
3, 96900, Note_on_c, 1, 80, 90
3, 96929, Note_on_c, 1, 80, 0
3, 96930, Note_on_c, 1, 81, 90
3, 96959, Note_on_c, 1, 81, 0
3, 96960, Note_on_c, 1, 71, 90
3, 96989, Note_on_c, 1, 71, 0
3, 96990, Note_on_c, 1, 73, 90
3, 97019, Note_on_c, 1, 73, 0
3, 97020, Note_on_c, 1, 74, 90
3, 97049, Note_on_c, 1, 74, 0
3, 97050, Note_on_c, 1, 71, 90
3, 97079, Note_on_c, 1, 71, 0
3, 97080, Note_on_c, 1, 73, 90
3, 97109, Note_on_c, 1, 73, 0
3, 97110, Note_on_c, 1, 74, 90
3, 97139, Note_on_c, 1, 74, 0
3, 97140, Note_on_c, 1, 68, 90
3, 97169, Note_on_c, 1, 68, 0
3, 97170, Note_on_c, 1, 69, 90
3, 97199, Note_on_c, 1, 69, 0
3, 97200, Note_on_c, 1, 71, 90
3, 97229, Note_on_c, 1, 71, 0
3, 97230, Note_on_c, 1, 73, 90
3, 97259, Note_on_c, 1, 73, 0
3, 97260, Note_on_c, 1, 69, 90
3, 97289, Note_on_c, 1, 69, 0
3, 97290, Note_on_c, 1, 71, 90
3, 97319, Note_on_c, 1, 71, 0
3, 97320, Note_on_c, 1, 68, 90
3, 97349, Note_on_c, 1, 68, 0
3, 97350, Note_on_c, 1, 69, 90
3, 97379, Note_on_c, 1, 69, 0
3, 97380, Note_on_c, 1, 71, 90
3, 97409, Note_on_c, 1, 71, 0
3, 97410, Note_on_c, 1, 68, 90
3, 97439, Note_on_c, 1, 68, 0
3, 97440, Note_on_c, 1, 69, 90
3, 97469, Note_on_c, 1, 69, 0
3, 97470, Note_on_c, 1, 71, 90
3, 97499, Note_on_c, 1, 71, 0
3, 97500, Note_on_c, 1, 65, 90
3, 97529, Note_on_c, 1, 65, 0
3, 97530, Note_on_c, 1, 66, 90
3, 97559, Note_on_c, 1, 66, 0
3, 97560, Note_on_c, 1, 68, 90
3, 97589, Note_on_c, 1, 68, 0
3, 97590, Note_on_c, 1, 69, 90
3, 97619, Note_on_c, 1, 69, 0
3, 97620, Note_on_c, 1, 66, 90
3, 97649, Note_on_c, 1, 66, 0
3, 97650, Note_on_c, 1, 68, 90
3, 97679, Note_on_c, 1, 68, 0
3, 97680, Note_on_c, 1, 65, 90
3, 97709, Note_on_c, 1, 65, 0
3, 97710, Note_on_c, 1, 66, 90
3, 97739, Note_on_c, 1, 66, 0
3, 97740, Note_on_c, 1, 68, 90
3, 97769, Note_on_c, 1, 68, 0
3, 97770, Note_on_c, 1, 65, 90
3, 97799, Note_on_c, 1, 65, 0
3, 97800, Note_on_c, 1, 66, 90
3, 97829, Note_on_c, 1, 66, 0
3, 97830, Note_on_c, 1, 68, 90
3, 97859, Note_on_c, 1, 68, 0
3, 97860, Note_on_c, 1, 61, 90
3, 97979, Note_on_c, 1, 61, 0
3, 98100, Note_on_c, 1, 73, 90
3, 98100, Note_on_c, 1, 69, 90
3, 98100, Note_on_c, 1, 66, 90
3, 98100, Note_on_c, 1, 61, 90
3, 98159, Note_on_c, 1, 61, 0
3, 98159, Note_on_c, 1, 73, 0
3, 98159, Note_on_c, 1, 69, 0
3, 98159, Note_on_c, 1, 66, 0
3, 98160, Note_on_c, 1, 61, 90
3, 98160, Note_on_c, 1, 66, 90
3, 98160, Note_on_c, 1, 73, 90
3, 98160, Note_on_c, 1, 69, 90
3, 98219, Note_on_c, 1, 69, 0
3, 98219, Note_on_c, 1, 61, 0
3, 98219, Note_on_c, 1, 66, 0
3, 98219, Note_on_c, 1, 73, 0
3, 98220, Note_on_c, 1, 63, 90
3, 98220, Note_on_c, 1, 66, 90
3, 98220, Note_on_c, 1, 73, 90
3, 98220, Note_on_c, 1, 69, 90
3, 98279, Note_on_c, 1, 69, 0
3, 98279, Note_on_c, 1, 63, 0
3, 98279, Note_on_c, 1, 66, 0
3, 98279, Note_on_c, 1, 73, 0
3, 98460, Note_on_c, 1, 71, 90
3, 98460, Note_on_c, 1, 62, 90
3, 98460, Note_on_c, 1, 66, 90
3, 98460, Note_on_c, 1, 68, 90
3, 98519, Note_on_c, 1, 68, 0
3, 98519, Note_on_c, 1, 71, 0
3, 98519, Note_on_c, 1, 62, 0
3, 98519, Note_on_c, 1, 66, 0
3, 98520, Note_on_c, 1, 62, 90
3, 98520, Note_on_c, 1, 66, 90
3, 98520, Note_on_c, 1, 68, 90
3, 98520, Note_on_c, 1, 71, 90
3, 98579, Note_on_c, 1, 71, 0
3, 98579, Note_on_c, 1, 62, 0
3, 98579, Note_on_c, 1, 66, 0
3, 98579, Note_on_c, 1, 68, 0
3, 98580, Note_on_c, 1, 61, 90
3, 98580, Note_on_c, 1, 68, 90
3, 98580, Note_on_c, 1, 65, 90
3, 98580, Note_on_c, 1, 71, 90
3, 98669, Note_on_c, 1, 71, 0
3, 98669, Note_on_c, 1, 61, 0
3, 98669, Note_on_c, 1, 68, 0
3, 98669, Note_on_c, 1, 65, 0
3, 98670, Note_on_c, 1, 73, 90
3, 98699, Note_on_c, 1, 73, 0
3, 98700, Note_on_c, 1, 69, 90
3, 98729, Note_on_c, 1, 69, 0
3, 98730, Note_on_c, 1, 68, 90
3, 98759, Note_on_c, 1, 68, 0
3, 98760, Note_on_c, 1, 69, 90
3, 98789, Note_on_c, 1, 69, 0
3, 98790, Note_on_c, 1, 71, 90
3, 98819, Note_on_c, 1, 71, 0
3, 98820, Note_on_c, 1, 68, 90
3, 98840, Note_on_c, 1, 68, 0
3, 98840, Note_on_c, 1, 69, 90
3, 98860, Note_on_c, 1, 69, 0
3, 98860, Note_on_c, 1, 68, 90
3, 98880, Note_on_c, 1, 68, 0
3, 98880, Note_on_c, 1, 69, 90
3, 98895, Note_on_c, 1, 69, 0
3, 98895, Note_on_c, 1, 68, 90
3, 98910, Note_on_c, 1, 68, 0
3, 98910, Note_on_c, 1, 66, 90
3, 98939, Note_on_c, 1, 66, 0
3, 98940, Note_on_c, 1, 66, 90
3, 98969, Note_on_c, 1, 66, 0
3, 98970, Note_on_c, 1, 73, 90
3, 98999, Note_on_c, 1, 73, 0
3, 99000, Note_on_c, 1, 69, 90
3, 99029, Note_on_c, 1, 69, 0
3, 99030, Note_on_c, 1, 66, 90
3, 99059, Note_on_c, 1, 66, 0
3, 99060, Note_on_c, 1, 78, 90
3, 99089, Note_on_c, 1, 78, 0
3, 99090, Note_on_c, 1, 69, 90
3, 99119, Note_on_c, 1, 69, 0
3, 99210, Note_on_c, 1, 78, 90
3, 99239, Note_on_c, 1, 78, 0
3, 99240, Note_on_c, 1, 76, 90
3, 99269, Note_on_c, 1, 76, 0
3, 99270, Note_on_c, 1, 75, 90
3, 99299, Note_on_c, 1, 75, 0
3, 99300, Note_on_c, 1, 76, 90
3, 99389, Note_on_c, 1, 76, 0
3, 99390, Note_on_c, 1, 73, 90
3, 99419, Note_on_c, 1, 73, 0
3, 99420, Note_on_c, 1, 76, 90
3, 99449, Note_on_c, 1, 76, 0
3, 99450, Note_on_c, 1, 67, 90
3, 99479, Note_on_c, 1, 67, 0
3, 99570, Note_on_c, 1, 76, 90
3, 99599, Note_on_c, 1, 76, 0
3, 99600, Note_on_c, 1, 74, 90
3, 99629, Note_on_c, 1, 74, 0
3, 99630, Note_on_c, 1, 73, 90
3, 99659, Note_on_c, 1, 73, 0
3, 99660, Note_on_c, 1, 74, 90
3, 99689, Note_on_c, 1, 74, 0
3, 99690, Note_on_c, 1, 78, 90
3, 99719, Note_on_c, 1, 78, 0
3, 99720, Note_on_c, 1, 74, 90
3, 99749, Note_on_c, 1, 74, 0
3, 99750, Note_on_c, 1, 71, 90
3, 99779, Note_on_c, 1, 71, 0
3, 99780, Note_on_c, 1, 83, 90
3, 99809, Note_on_c, 1, 83, 0
3, 99810, Note_on_c, 1, 74, 90
3, 99839, Note_on_c, 1, 74, 0
3, 99840, Note_on_c, 1, 65, 90
3, 99869, Note_on_c, 1, 65, 0
3, 99870, Note_on_c, 1, 68, 90
3, 99899, Note_on_c, 1, 68, 0
3, 99900, Note_on_c, 1, 73, 90
3, 99929, Note_on_c, 1, 73, 0
3, 99930, Note_on_c, 1, 83, 90
3, 99959, Note_on_c, 1, 83, 0
3, 99960, Note_on_c, 1, 81, 90
3, 99989, Note_on_c, 1, 81, 0
3, 99990, Note_on_c, 1, 80, 90
3, 100019, Note_on_c, 1, 80, 0
3, 100020, Note_on_c, 1, 66, 90
3, 100020, Note_on_c, 1, 81, 90
3, 100049, Note_on_c, 1, 66, 0
3, 100050, Note_on_c, 1, 69, 90
3, 100079, Note_on_c, 1, 69, 0
3, 100080, Note_on_c, 1, 73, 90
3, 100109, Note_on_c, 1, 73, 0
3, 100109, Note_on_c, 1, 81, 0
3, 100110, Note_on_c, 1, 78, 90
3, 100139, Note_on_c, 1, 78, 0
3, 100140, Note_on_c, 1, 81, 90
3, 100169, Note_on_c, 1, 81, 0
3, 100170, Note_on_c, 1, 72, 90
3, 100199, Note_on_c, 1, 72, 0
3, 100200, Note_on_c, 1, 63, 90
3, 100229, Note_on_c, 1, 63, 0
3, 100230, Note_on_c, 1, 66, 90
3, 100259, Note_on_c, 1, 66, 0
3, 100260, Note_on_c, 1, 71, 90
3, 100289, Note_on_c, 1, 71, 0
3, 100290, Note_on_c, 1, 81, 90
3, 100319, Note_on_c, 1, 81, 0
3, 100320, Note_on_c, 1, 79, 90
3, 100349, Note_on_c, 1, 79, 0
3, 100350, Note_on_c, 1, 78, 90
3, 100379, Note_on_c, 1, 78, 0
3, 100380, Note_on_c, 1, 79, 90
3, 100409, Note_on_c, 1, 79, 0
3, 100410, Note_on_c, 1, 75, 90
3, 100439, Note_on_c, 1, 75, 0
3, 100440, Note_on_c, 1, 76, 90
3, 100469, Note_on_c, 1, 76, 0
3, 100470, Note_on_c, 1, 79, 90
3, 100499, Note_on_c, 1, 79, 0
3, 100500, Note_on_c, 1, 72, 90
3, 100529, Note_on_c, 1, 72, 0
3, 100530, Note_on_c, 1, 71, 90
3, 100559, Note_on_c, 1, 71, 0
3, 100560, Note_on_c, 1, 70, 90
3, 100590, Note_on_c, 1, 73, 90
3, 100619, Note_on_c, 1, 73, 0
3, 100620, Note_on_c, 1, 70, 0
3, 100620, Note_on_c, 1, 76, 90
3, 100649, Note_on_c, 1, 76, 0
3, 100650, Note_on_c, 1, 79, 90
3, 100679, Note_on_c, 1, 79, 0
3, 100680, Note_on_c, 1, 78, 90
3, 100709, Note_on_c, 1, 78, 0
3, 100710, Note_on_c, 1, 76, 90
3, 100739, Note_on_c, 1, 76, 0
3, 100740, Note_on_c, 1, 78, 90
3, 100769, Note_on_c, 1, 78, 0
3, 100770, Note_on_c, 1, 73, 90
3, 100799, Note_on_c, 1, 73, 0
3, 100800, Note_on_c, 1, 74, 90
3, 100829, Note_on_c, 1, 74, 0
3, 100830, Note_on_c, 1, 78, 90
3, 100859, Note_on_c, 1, 78, 0
3, 100860, Note_on_c, 1, 71, 90
3, 100889, Note_on_c, 1, 71, 0
3, 100890, Note_on_c, 1, 69, 90
3, 100919, Note_on_c, 1, 69, 0
3, 100920, Note_on_c, 1, 68, 90
3, 100950, Note_on_c, 1, 71, 90
3, 100979, Note_on_c, 1, 71, 0
3, 100980, Note_on_c, 1, 68, 0
3, 100980, Note_on_c, 1, 74, 90
3, 101009, Note_on_c, 1, 74, 0
3, 101010, Note_on_c, 1, 77, 90
3, 101039, Note_on_c, 1, 77, 0
3, 101040, Note_on_c, 1, 76, 90
3, 101069, Note_on_c, 1, 76, 0
3, 101070, Note_on_c, 1, 74, 90
3, 101099, Note_on_c, 1, 74, 0
3, 101100, Note_on_c, 1, 76, 90
3, 101129, Note_on_c, 1, 76, 0
3, 101130, Note_on_c, 1, 71, 90
3, 101159, Note_on_c, 1, 71, 0
3, 101160, Note_on_c, 1, 72, 90
3, 101189, Note_on_c, 1, 72, 0
3, 101190, Note_on_c, 1, 76, 90
3, 101219, Note_on_c, 1, 76, 0
3, 101220, Note_on_c, 1, 69, 90
3, 101249, Note_on_c, 1, 69, 0
3, 101250, Note_on_c, 1, 67, 90
3, 101279, Note_on_c, 1, 67, 0
3, 101280, Note_on_c, 1, 66, 90
3, 101310, Note_on_c, 1, 70, 90
3, 101339, Note_on_c, 1, 70, 0
3, 101340, Note_on_c, 1, 66, 0
3, 101340, Note_on_c, 1, 73, 90
3, 101369, Note_on_c, 1, 73, 0
3, 101370, Note_on_c, 1, 76, 90
3, 101399, Note_on_c, 1, 76, 0
3, 101400, Note_on_c, 1, 75, 90
3, 101429, Note_on_c, 1, 75, 0
3, 101430, Note_on_c, 1, 73, 90
3, 101459, Note_on_c, 1, 73, 0
3, 101460, Note_on_c, 1, 75, 90
3, 101489, Note_on_c, 1, 75, 0
3, 101490, Note_on_c, 1, 78, 90
3, 101519, Note_on_c, 1, 78, 0
3, 101520, Note_on_c, 1, 71, 90
3, 101549, Note_on_c, 1, 71, 0
3, 101550, Note_on_c, 1, 69, 90
3, 101579, Note_on_c, 1, 69, 0
3, 101580, Note_on_c, 1, 67, 90
3, 101609, Note_on_c, 1, 67, 0
3, 101610, Note_on_c, 1, 66, 90
3, 101639, Note_on_c, 1, 66, 0
3, 101640, Note_on_c, 1, 67, 90
3, 101670, Note_on_c, 1, 71, 90
3, 101699, Note_on_c, 1, 71, 0
3, 101700, Note_on_c, 1, 67, 0
3, 101700, Note_on_c, 1, 76, 90
3, 101729, Note_on_c, 1, 76, 0
3, 101730, Note_on_c, 1, 78, 90
3, 101759, Note_on_c, 1, 78, 0
3, 101760, Note_on_c, 1, 79, 90
3, 101789, Note_on_c, 1, 79, 0
3, 101790, Note_on_c, 1, 76, 90
3, 101819, Note_on_c, 1, 76, 0
3, 101820, Note_on_c, 1, 81, 90
3, 101849, Note_on_c, 1, 81, 0
3, 101850, Note_on_c, 1, 78, 90
3, 101879, Note_on_c, 1, 78, 0
3, 101880, Note_on_c, 1, 75, 90
3, 101909, Note_on_c, 1, 75, 0
3, 101910, Note_on_c, 1, 72, 90
3, 101939, Note_on_c, 1, 72, 0
3, 101940, Note_on_c, 1, 71, 90
3, 101969, Note_on_c, 1, 71, 0
3, 101970, Note_on_c, 1, 69, 90
3, 101999, Note_on_c, 1, 69, 0
3, 102000, Note_on_c, 1, 83, 90
3, 102029, Note_on_c, 1, 83, 0
3, 102030, Note_on_c, 1, 80, 90
3, 102059, Note_on_c, 1, 80, 0
3, 102060, Note_on_c, 1, 76, 90
3, 102089, Note_on_c, 1, 76, 0
3, 102090, Note_on_c, 1, 74, 90
3, 102119, Note_on_c, 1, 74, 0
3, 102120, Note_on_c, 1, 72, 90
3, 102149, Note_on_c, 1, 72, 0
3, 102150, Note_on_c, 1, 71, 90
3, 102179, Note_on_c, 1, 71, 0
3, 102180, Note_on_c, 1, 63, 90
3, 102180, Note_on_c, 1, 69, 90
3, 102210, Note_on_c, 1, 84, 90
3, 102239, Note_on_c, 1, 84, 0
3, 102240, Note_on_c, 1, 69, 0
3, 102240, Note_on_c, 1, 63, 0
3, 102240, Note_on_c, 1, 83, 90
3, 102269, Note_on_c, 1, 83, 0
3, 102270, Note_on_c, 1, 81, 90
3, 102299, Note_on_c, 1, 81, 0
3, 102300, Note_on_c, 1, 80, 90
3, 102329, Note_on_c, 1, 80, 0
3, 102330, Note_on_c, 1, 81, 90
3, 102359, Note_on_c, 1, 81, 0
3, 102360, Note_on_c, 1, 80, 90
3, 102360, Note_on_c, 1, 64, 90
3, 102390, Note_on_c, 1, 76, 90
3, 102419, Note_on_c, 1, 76, 0
3, 102420, Note_on_c, 1, 64, 0
3, 102420, Note_on_c, 1, 80, 0
3, 102420, Note_on_c, 1, 77, 90
3, 102449, Note_on_c, 1, 77, 0
3, 102450, Note_on_c, 1, 74, 90
3, 102479, Note_on_c, 1, 74, 0
3, 102480, Note_on_c, 1, 72, 90
3, 102509, Note_on_c, 1, 72, 0
3, 102510, Note_on_c, 1, 71, 90
3, 102539, Note_on_c, 1, 71, 0
3, 102540, Note_on_c, 1, 64, 90
3, 102540, Note_on_c, 1, 72, 90
3, 102570, Note_on_c, 1, 76, 90
3, 102599, Note_on_c, 1, 76, 0
3, 102600, Note_on_c, 1, 72, 0
3, 102600, Note_on_c, 1, 64, 0
3, 102600, Note_on_c, 1, 81, 90
3, 102629, Note_on_c, 1, 81, 0
3, 102630, Note_on_c, 1, 83, 90
3, 102659, Note_on_c, 1, 83, 0
3, 102660, Note_on_c, 1, 84, 90
3, 102689, Note_on_c, 1, 84, 0
3, 102690, Note_on_c, 1, 81, 90
3, 102719, Note_on_c, 1, 81, 0
3, 102720, Note_on_c, 1, 64, 90
3, 102720, Note_on_c, 1, 68, 90
3, 102720, Note_on_c, 1, 71, 90
3, 102720, Note_on_c, 1, 86, 90
3, 102749, Note_on_c, 1, 86, 0
3, 102750, Note_on_c, 1, 83, 90
3, 102779, Note_on_c, 1, 83, 0
3, 102780, Note_on_c, 1, 71, 0
3, 102780, Note_on_c, 1, 68, 0
3, 102780, Note_on_c, 1, 64, 0
3, 102780, Note_on_c, 1, 80, 90
3, 102809, Note_on_c, 1, 80, 0
3, 102810, Note_on_c, 1, 77, 90
3, 102839, Note_on_c, 1, 77, 0
3, 102840, Note_on_c, 1, 76, 90
3, 102869, Note_on_c, 1, 76, 0
3, 102870, Note_on_c, 1, 74, 90
3, 102899, Note_on_c, 1, 74, 0
3, 102900, Note_on_c, 1, 64, 90
3, 102900, Note_on_c, 1, 72, 90
3, 102930, Note_on_c, 1, 74, 90
3, 102959, Note_on_c, 1, 74, 0
3, 102960, Note_on_c, 1, 72, 0
3, 102960, Note_on_c, 1, 64, 0
3, 102960, Note_on_c, 1, 76, 90
3, 102989, Note_on_c, 1, 76, 0
3, 102990, Note_on_c, 1, 78, 90
3, 103019, Note_on_c, 1, 78, 0
3, 103020, Note_on_c, 1, 80, 90
3, 103049, Note_on_c, 1, 80, 0
3, 103050, Note_on_c, 1, 81, 90
3, 103079, Note_on_c, 1, 81, 0
3, 103080, Note_on_c, 1, 74, 90
3, 103109, Note_on_c, 1, 74, 0
3, 103110, Note_on_c, 1, 76, 90
3, 103139, Note_on_c, 1, 76, 0
3, 103140, Note_on_c, 1, 77, 90
3, 103169, Note_on_c, 1, 77, 0
3, 103170, Note_on_c, 1, 72, 90
3, 103199, Note_on_c, 1, 72, 0
3, 103200, Note_on_c, 1, 71, 90
3, 103229, Note_on_c, 1, 71, 0
3, 103230, Note_on_c, 1, 69, 90
3, 103259, Note_on_c, 1, 69, 0
3, 103260, Note_on_c, 1, 64, 90
3, 103260, Note_on_c, 1, 68, 90
3, 103290, Note_on_c, 1, 77, 90
3, 103319, Note_on_c, 1, 77, 0
3, 103320, Note_on_c, 1, 68, 0
3, 103320, Note_on_c, 1, 64, 0
3, 103320, Note_on_c, 1, 76, 90
3, 103349, Note_on_c, 1, 76, 0
3, 103350, Note_on_c, 1, 74, 90
3, 103379, Note_on_c, 1, 74, 0
3, 103380, Note_on_c, 1, 72, 90
3, 103409, Note_on_c, 1, 72, 0
3, 103410, Note_on_c, 1, 71, 90
3, 103439, Note_on_c, 1, 71, 0
3, 103440, Note_on_c, 1, 66, 90
3, 103440, Note_on_c, 1, 69, 90
3, 103440, Note_on_c, 1, 72, 90
3, 103469, Note_on_c, 1, 72, 0
3, 103470, Note_on_c, 1, 81, 90
3, 103499, Note_on_c, 1, 81, 0
3, 103500, Note_on_c, 1, 69, 0
3, 103500, Note_on_c, 1, 66, 0
3, 103500, Note_on_c, 1, 71, 90
3, 103529, Note_on_c, 1, 71, 0
3, 103530, Note_on_c, 1, 81, 90
3, 103559, Note_on_c, 1, 81, 0
3, 103560, Note_on_c, 1, 74, 90
3, 103589, Note_on_c, 1, 74, 0
3, 103590, Note_on_c, 1, 80, 90
3, 103619, Note_on_c, 1, 80, 0
3, 103620, Note_on_c, 1, 73, 90
3, 103620, Note_on_c, 1, 81, 90
3, 103649, Note_on_c, 1, 81, 0
3, 103650, Note_on_c, 1, 76, 90
3, 103679, Note_on_c, 1, 76, 0
3, 103680, Note_on_c, 1, 73, 0
3, 103680, Note_on_c, 1, 69, 90
3, 103739, Note_on_c, 1, 69, 0
3, 103740, Note_on_c, 1, 73, 90
3, 103755, Note_on_c, 1, 73, 0
3, 103755, Note_on_c, 1, 71, 90
3, 103770, Note_on_c, 1, 71, 0
3, 103770, Note_on_c, 1, 69, 90
3, 103785, Note_on_c, 1, 69, 0
3, 103785, Note_on_c, 1, 71, 90
3, 103800, Note_on_c, 1, 71, 0
3, 103800, Note_on_c, 1, 73, 90
3, 103919, Note_on_c, 1, 73, 0
3, 103980, Note_on_c, 1, 64, 90
3, 104009, Note_on_c, 1, 64, 0
3, 104010, Note_on_c, 1, 66, 90
3, 104039, Note_on_c, 1, 66, 0
3, 104040, Note_on_c, 1, 68, 90
3, 104069, Note_on_c, 1, 68, 0
3, 104070, Note_on_c, 1, 69, 90
3, 104099, Note_on_c, 1, 69, 0
3, 104100, Note_on_c, 1, 71, 90
3, 104129, Note_on_c, 1, 71, 0
3, 104130, Note_on_c, 1, 73, 90
3, 104159, Note_on_c, 1, 73, 0
3, 104160, Note_on_c, 1, 74, 90
3, 104189, Note_on_c, 1, 74, 0
3, 104190, Note_on_c, 1, 76, 90
3, 104219, Note_on_c, 1, 76, 0
3, 104220, Note_on_c, 1, 78, 90
3, 104249, Note_on_c, 1, 78, 0
3, 104250, Note_on_c, 1, 81, 90
3, 104279, Note_on_c, 1, 81, 0
3, 104280, Note_on_c, 1, 80, 90
3, 104309, Note_on_c, 1, 80, 0
3, 104310, Note_on_c, 1, 83, 90
3, 104339, Note_on_c, 1, 83, 0
3, 104340, Note_on_c, 1, 73, 90
3, 104340, Note_on_c, 1, 81, 90
3, 104399, Note_on_c, 1, 81, 0
3, 104399, Note_on_c, 1, 73, 0
3, 104400, Note_on_c, 1, 69, 90
3, 104459, Note_on_c, 1, 69, 0
3, 104460, Note_on_c, 1, 73, 90
3, 104519, Note_on_c, 1, 73, 0
3, 104520, Note_on_c, 1, 76, 90
3, 104579, Note_on_c, 1, 76, 0
3, 104580, Note_on_c, 1, 79, 90
3, 104639, Note_on_c, 1, 79, 0
3, 104640, Note_on_c, 1, 76, 90
3, 104699, Note_on_c, 1, 76, 0
3, 104700, Note_on_c, 1, 73, 90
3, 104759, Note_on_c, 1, 73, 0
3, 104760, Note_on_c, 1, 69, 90
3, 104819, Note_on_c, 1, 69, 0
3, 104820, Note_on_c, 1, 64, 90
3, 104879, Note_on_c, 1, 64, 0
3, 104880, Note_on_c, 1, 61, 90
3, 104939, Note_on_c, 1, 61, 0
3, 104940, Note_on_c, 1, 57, 90
3, 104999, Note_on_c, 1, 57, 0
3, 105000, Note_on_c, 1, 76, 90
3, 105000, Note_on_c, 1, 73, 90
3, 105000, Note_on_c, 1, 69, 90
3, 105000, Note_on_c, 1, 67, 90
3, 105059, Note_on_c, 1, 67, 0
3, 105059, Note_on_c, 1, 76, 0
3, 105059, Note_on_c, 1, 73, 0
3, 105059, Note_on_c, 1, 69, 0
3, 105060, Note_on_c, 1, 66, 90
3, 105060, Note_on_c, 1, 76, 90
3, 105060, Note_on_c, 1, 69, 90
3, 105119, Note_on_c, 1, 69, 0
3, 105119, Note_on_c, 1, 76, 0
3, 105119, Note_on_c, 1, 66, 0
3, 105120, Note_on_c, 1, 74, 90
3, 105179, Note_on_c, 1, 74, 0
3, 105180, Note_on_c, 1, 78, 90
3, 105239, Note_on_c, 1, 78, 0
3, 105240, Note_on_c, 1, 81, 90
3, 105299, Note_on_c, 1, 81, 0
3, 105300, Note_on_c, 1, 84, 90
3, 105359, Note_on_c, 1, 84, 0
3, 105360, Note_on_c, 1, 81, 90
3, 105419, Note_on_c, 1, 81, 0
3, 105420, Note_on_c, 1, 78, 90
3, 105479, Note_on_c, 1, 78, 0
3, 105480, Note_on_c, 1, 74, 90
3, 105539, Note_on_c, 1, 74, 0
3, 105540, Note_on_c, 1, 69, 90
3, 105599, Note_on_c, 1, 69, 0
3, 105600, Note_on_c, 1, 66, 90
3, 105659, Note_on_c, 1, 66, 0
3, 105660, Note_on_c, 1, 62, 90
3, 105719, Note_on_c, 1, 62, 0
3, 105720, Note_on_c, 1, 81, 90
3, 105720, Note_on_c, 1, 78, 90
3, 105720, Note_on_c, 1, 72, 90
3, 105720, Note_on_c, 1, 74, 90
3, 105779, Note_on_c, 1, 74, 0
3, 105779, Note_on_c, 1, 81, 0
3, 105779, Note_on_c, 1, 78, 0
3, 105779, Note_on_c, 1, 72, 0
3, 105780, Note_on_c, 1, 78, 90
3, 105780, Note_on_c, 1, 81, 90
3, 105839, Note_on_c, 1, 81, 0
3, 105839, Note_on_c, 1, 78, 0
3, 105840, Note_on_c, 1, 71, 90
3, 105899, Note_on_c, 1, 71, 0
3, 105900, Note_on_c, 1, 75, 90
3, 105959, Note_on_c, 1, 75, 0
3, 105960, Note_on_c, 1, 78, 90
3, 106019, Note_on_c, 1, 78, 0
3, 106020, Note_on_c, 1, 81, 90
3, 106079, Note_on_c, 1, 81, 0
3, 106080, Note_on_c, 1, 78, 90
3, 106139, Note_on_c, 1, 78, 0
3, 106140, Note_on_c, 1, 75, 90
3, 106199, Note_on_c, 1, 75, 0
3, 106200, Note_on_c, 1, 71, 90
3, 106259, Note_on_c, 1, 71, 0
3, 106260, Note_on_c, 1, 66, 90
3, 106319, Note_on_c, 1, 66, 0
3, 106320, Note_on_c, 1, 63, 90
3, 106379, Note_on_c, 1, 63, 0
3, 106380, Note_on_c, 1, 59, 90
3, 106439, Note_on_c, 1, 59, 0
3, 106440, Note_on_c, 1, 81, 90
3, 106440, Note_on_c, 1, 78, 90
3, 106440, Note_on_c, 1, 75, 90
3, 106440, Note_on_c, 1, 71, 90
3, 106499, Note_on_c, 1, 71, 0
3, 106499, Note_on_c, 1, 81, 0
3, 106499, Note_on_c, 1, 78, 0
3, 106499, Note_on_c, 1, 75, 0
3, 106500, Note_on_c, 1, 71, 90
3, 106500, Note_on_c, 1, 79, 90
3, 106529, Note_on_c, 1, 79, 0
3, 106530, Note_on_c, 1, 76, 90
3, 106559, Note_on_c, 1, 76, 0
3, 106559, Note_on_c, 1, 71, 0
3, 106560, Note_on_c, 1, 71, 90
3, 106589, Note_on_c, 1, 71, 0
3, 106590, Note_on_c, 1, 76, 90
3, 106619, Note_on_c, 1, 76, 0
3, 106620, Note_on_c, 1, 79, 90
3, 106679, Note_on_c, 1, 79, 0
3, 106680, Note_on_c, 1, 78, 90
3, 106709, Note_on_c, 1, 78, 0
3, 106710, Note_on_c, 1, 74, 90
3, 106739, Note_on_c, 1, 74, 0
3, 106740, Note_on_c, 1, 71, 90
3, 106769, Note_on_c, 1, 71, 0
3, 106770, Note_on_c, 1, 74, 90
3, 106799, Note_on_c, 1, 74, 0
3, 106800, Note_on_c, 1, 78, 90
3, 106859, Note_on_c, 1, 78, 0
3, 106860, Note_on_c, 1, 76, 90
3, 106889, Note_on_c, 1, 76, 0
3, 106890, Note_on_c, 1, 73, 90
3, 106919, Note_on_c, 1, 73, 0
3, 106920, Note_on_c, 1, 70, 90
3, 106949, Note_on_c, 1, 70, 0
3, 106950, Note_on_c, 1, 71, 90
3, 106979, Note_on_c, 1, 71, 0
3, 106980, Note_on_c, 1, 73, 90
3, 107009, Note_on_c, 1, 73, 0
3, 107010, Note_on_c, 1, 74, 90
3, 107039, Note_on_c, 1, 74, 0
3, 107040, Note_on_c, 1, 76, 90
3, 107069, Note_on_c, 1, 76, 0
3, 107070, Note_on_c, 1, 74, 90
3, 107099, Note_on_c, 1, 74, 0
3, 107100, Note_on_c, 1, 73, 90
3, 107129, Note_on_c, 1, 73, 0
3, 107130, Note_on_c, 1, 71, 90
3, 107159, Note_on_c, 1, 71, 0
3, 107160, Note_on_c, 1, 64, 90
3, 107160, Note_on_c, 1, 70, 90
3, 107160, Note_on_c, 1, 73, 90
3, 107219, Note_on_c, 1, 73, 0
3, 107219, Note_on_c, 1, 70, 0
3, 107219, Note_on_c, 1, 64, 0
3, 107220, Note_on_c, 1, 62, 90
3, 107220, Note_on_c, 1, 66, 90
3, 107220, Note_on_c, 1, 73, 90
3, 107279, Note_on_c, 1, 73, 0
3, 107279, Note_on_c, 1, 66, 0
3, 107279, Note_on_c, 1, 62, 0
3, 107280, Note_on_c, 1, 71, 90
3, 107339, Note_on_c, 1, 71, 0
3, 107340, Note_on_c, 1, 74, 90
3, 107399, Note_on_c, 1, 74, 0
3, 107400, Note_on_c, 1, 78, 90
3, 107459, Note_on_c, 1, 78, 0
3, 107460, Note_on_c, 1, 81, 90
3, 107519, Note_on_c, 1, 81, 0
3, 107520, Note_on_c, 1, 72, 90
3, 107520, Note_on_c, 1, 69, 90
3, 107520, Note_on_c, 1, 66, 90
3, 107520, Note_on_c, 1, 62, 90
3, 107579, Note_on_c, 1, 62, 0
3, 107579, Note_on_c, 1, 72, 0
3, 107579, Note_on_c, 1, 69, 0
3, 107579, Note_on_c, 1, 66, 0
3, 107580, Note_on_c, 1, 71, 90
3, 107580, Note_on_c, 1, 67, 90
3, 107580, Note_on_c, 1, 62, 90
3, 107639, Note_on_c, 1, 62, 0
3, 107639, Note_on_c, 1, 67, 0
3, 107639, Note_on_c, 1, 71, 0
3, 107640, Note_on_c, 1, 79, 90
3, 107699, Note_on_c, 1, 79, 0
3, 107700, Note_on_c, 1, 74, 90
3, 107759, Note_on_c, 1, 74, 0
3, 107760, Note_on_c, 1, 76, 90
3, 107819, Note_on_c, 1, 76, 0
3, 107820, Note_on_c, 1, 72, 90
3, 107880, Note_on_c, 1, 69, 90
3, 107940, Note_on_c, 1, 66, 90
3, 107999, Note_on_c, 1, 66, 0
3, 108000, Note_on_c, 1, 69, 0
3, 108000, Note_on_c, 1, 72, 0
3, 108000, Note_on_c, 1, 72, 90
3, 108020, Note_on_c, 1, 72, 0
3, 108020, Note_on_c, 1, 74, 90
3, 108040, Note_on_c, 1, 74, 0
3, 108040, Note_on_c, 1, 72, 90
3, 108060, Note_on_c, 1, 72, 0
3, 108060, Note_on_c, 1, 74, 90
3, 108075, Note_on_c, 1, 74, 0
3, 108075, Note_on_c, 1, 72, 90
3, 108090, Note_on_c, 1, 72, 0
3, 108090, Note_on_c, 1, 74, 90
3, 108105, Note_on_c, 1, 74, 0
3, 108105, Note_on_c, 1, 72, 90
3, 108120, Note_on_c, 1, 72, 0
3, 108120, Note_on_c, 1, 74, 90
3, 108135, Note_on_c, 1, 74, 0
3, 108135, Note_on_c, 1, 72, 90
3, 108150, Note_on_c, 1, 72, 0
3, 108150, Note_on_c, 1, 74, 90
3, 108165, Note_on_c, 1, 74, 0
3, 108165, Note_on_c, 1, 72, 90
3, 108180, Note_on_c, 1, 72, 0
3, 108180, Note_on_c, 1, 74, 90
3, 108195, Note_on_c, 1, 74, 0
3, 108195, Note_on_c, 1, 72, 90
3, 108210, Note_on_c, 1, 72, 0
3, 108210, Note_on_c, 1, 74, 90
3, 108225, Note_on_c, 1, 74, 0
3, 108225, Note_on_c, 1, 72, 90
3, 108240, Note_on_c, 1, 72, 0
3, 108240, Note_on_c, 1, 74, 90
3, 108255, Note_on_c, 1, 74, 0
3, 108255, Note_on_c, 1, 72, 90
3, 108270, Note_on_c, 1, 72, 0
3, 108270, Note_on_c, 1, 74, 90
3, 108285, Note_on_c, 1, 74, 0
3, 108285, Note_on_c, 1, 72, 90
3, 108300, Note_on_c, 1, 72, 0
3, 108300, Note_on_c, 1, 74, 90
3, 108315, Note_on_c, 1, 74, 0
3, 108315, Note_on_c, 1, 72, 90
3, 108330, Note_on_c, 1, 72, 0
3, 108330, Note_on_c, 1, 71, 90
3, 108359, Note_on_c, 1, 71, 0
3, 108360, Note_on_c, 1, 72, 90
3, 108389, Note_on_c, 1, 72, 0
3, 108390, Note_on_c, 1, 74, 90
3, 108419, Note_on_c, 1, 74, 0
3, 108420, Note_on_c, 1, 76, 90
3, 108449, Note_on_c, 1, 76, 0
3, 108450, Note_on_c, 1, 78, 90
3, 108479, Note_on_c, 1, 78, 0
3, 108480, Note_on_c, 1, 79, 90
3, 108539, Note_on_c, 1, 79, 0
3, 108540, Note_on_c, 1, 74, 90
3, 108540, Note_on_c, 1, 71, 90
3, 108540, Note_on_c, 1, 62, 90
3, 108540, Note_on_c, 1, 67, 90
3, 108599, Note_on_c, 1, 67, 0
3, 108599, Note_on_c, 1, 74, 0
3, 108599, Note_on_c, 1, 71, 0
3, 108599, Note_on_c, 1, 62, 0
3, 108600, Note_on_c, 1, 72, 90
3, 108600, Note_on_c, 1, 69, 90
3, 108600, Note_on_c, 1, 66, 90
3, 108600, Note_on_c, 1, 62, 90
3, 108659, Note_on_c, 1, 62, 0
3, 108659, Note_on_c, 1, 72, 0
3, 108659, Note_on_c, 1, 69, 0
3, 108659, Note_on_c, 1, 66, 0
3, 108660, Note_on_c, 1, 71, 90
3, 108660, Note_on_c, 1, 67, 90
3, 108660, Note_on_c, 1, 62, 90
3, 108719, Note_on_c, 1, 62, 0
3, 108719, Note_on_c, 1, 67, 0
3, 108719, Note_on_c, 1, 71, 0
3, 108720, Note_on_c, 1, 62, 90
3, 108749, Note_on_c, 1, 62, 0
3, 108750, Note_on_c, 1, 64, 90
3, 108779, Note_on_c, 1, 64, 0
3, 108780, Note_on_c, 1, 62, 90
3, 108839, Note_on_c, 1, 62, 0
3, 108840, Note_on_c, 1, 62, 90
3, 108899, Note_on_c, 1, 62, 0
3, 108900, Note_on_c, 1, 71, 90
3, 108929, Note_on_c, 1, 71, 0
3, 108930, Note_on_c, 1, 69, 90
3, 108959, Note_on_c, 1, 69, 0
3, 108960, Note_on_c, 1, 67, 90
3, 108989, Note_on_c, 1, 67, 0
3, 108990, Note_on_c, 1, 71, 90
3, 109019, Note_on_c, 1, 71, 0
3, 109020, Note_on_c, 1, 69, 90
3, 109079, Note_on_c, 1, 69, 0
3, 109080, Note_on_c, 1, 62, 90
3, 109109, Note_on_c, 1, 62, 0
3, 109110, Note_on_c, 1, 64, 90
3, 109139, Note_on_c, 1, 64, 0
3, 109140, Note_on_c, 1, 62, 90
3, 109199, Note_on_c, 1, 62, 0
3, 109200, Note_on_c, 1, 62, 90
3, 109259, Note_on_c, 1, 62, 0
3, 109260, Note_on_c, 1, 72, 90
3, 109289, Note_on_c, 1, 72, 0
3, 109290, Note_on_c, 1, 71, 90
3, 109319, Note_on_c, 1, 71, 0
3, 109320, Note_on_c, 1, 69, 90
3, 109349, Note_on_c, 1, 69, 0
3, 109350, Note_on_c, 1, 72, 90
3, 109379, Note_on_c, 1, 72, 0
3, 109380, Note_on_c, 1, 71, 90
3, 109409, Note_on_c, 1, 71, 0
3, 109410, Note_on_c, 1, 72, 90
3, 109439, Note_on_c, 1, 72, 0
3, 109440, Note_on_c, 1, 74, 90
3, 109469, Note_on_c, 1, 74, 0
3, 109470, Note_on_c, 1, 76, 90
3, 109499, Note_on_c, 1, 76, 0
3, 109500, Note_on_c, 1, 72, 90
3, 109529, Note_on_c, 1, 72, 0
3, 109530, Note_on_c, 1, 74, 90
3, 109559, Note_on_c, 1, 74, 0
3, 109560, Note_on_c, 1, 71, 90
3, 109589, Note_on_c, 1, 71, 0
3, 109590, Note_on_c, 1, 72, 90
3, 109619, Note_on_c, 1, 72, 0
3, 109620, Note_on_c, 1, 74, 90
3, 109649, Note_on_c, 1, 74, 0
3, 109650, Note_on_c, 1, 76, 90
3, 109679, Note_on_c, 1, 76, 0
3, 109680, Note_on_c, 1, 72, 90
3, 109709, Note_on_c, 1, 72, 0
3, 109710, Note_on_c, 1, 74, 90
3, 109739, Note_on_c, 1, 74, 0
3, 109740, Note_on_c, 1, 71, 90
3, 109769, Note_on_c, 1, 71, 0
3, 109770, Note_on_c, 1, 73, 90
3, 109799, Note_on_c, 1, 73, 0
3, 109800, Note_on_c, 1, 74, 90
3, 109829, Note_on_c, 1, 74, 0
3, 109830, Note_on_c, 1, 76, 90
3, 109859, Note_on_c, 1, 76, 0
3, 109860, Note_on_c, 1, 78, 90
3, 109889, Note_on_c, 1, 78, 0
3, 109890, Note_on_c, 1, 79, 90
3, 109919, Note_on_c, 1, 79, 0
3, 109920, Note_on_c, 1, 73, 90
3, 109949, Note_on_c, 1, 73, 0
3, 109950, Note_on_c, 1, 74, 90
3, 109979, Note_on_c, 1, 74, 0
3, 109980, Note_on_c, 1, 73, 90
3, 110009, Note_on_c, 1, 73, 0
3, 110010, Note_on_c, 1, 71, 90
3, 110039, Note_on_c, 1, 71, 0
3, 110040, Note_on_c, 1, 69, 90
3, 110069, Note_on_c, 1, 69, 0
3, 110070, Note_on_c, 1, 67, 90
3, 110099, Note_on_c, 1, 67, 0
3, 110100, Note_on_c, 1, 66, 90
3, 110129, Note_on_c, 1, 66, 0
3, 110130, Note_on_c, 1, 69, 90
3, 110159, Note_on_c, 1, 69, 0
3, 110160, Note_on_c, 1, 74, 90
3, 110219, Note_on_c, 1, 74, 0
3, 110220, Note_on_c, 1, 78, 90
3, 110235, Note_on_c, 1, 78, 0
3, 110235, Note_on_c, 1, 76, 90
3, 110250, Note_on_c, 1, 76, 0
3, 110250, Note_on_c, 1, 74, 90
3, 110265, Note_on_c, 1, 74, 0
3, 110265, Note_on_c, 1, 76, 90
3, 110280, Note_on_c, 1, 76, 0
3, 110280, Note_on_c, 1, 78, 90
3, 110399, Note_on_c, 1, 78, 0
3, 110460, Note_on_c, 1, 69, 90
3, 110519, Note_on_c, 1, 69, 0
3, 110520, Note_on_c, 1, 76, 90
3, 110579, Note_on_c, 1, 76, 0
3, 110580, Note_on_c, 1, 79, 90
3, 110595, Note_on_c, 1, 79, 0
3, 110595, Note_on_c, 1, 78, 90
3, 110610, Note_on_c, 1, 78, 0
3, 110610, Note_on_c, 1, 76, 90
3, 110625, Note_on_c, 1, 76, 0
3, 110625, Note_on_c, 1, 78, 90
3, 110640, Note_on_c, 1, 78, 0
3, 110640, Note_on_c, 1, 79, 90
3, 110759, Note_on_c, 1, 79, 0
3, 110820, Note_on_c, 1, 74, 90
3, 110849, Note_on_c, 1, 74, 0
3, 110850, Note_on_c, 1, 76, 90
3, 110879, Note_on_c, 1, 76, 0
3, 110880, Note_on_c, 1, 78, 90
3, 110909, Note_on_c, 1, 78, 0
3, 110910, Note_on_c, 1, 79, 90
3, 110939, Note_on_c, 1, 79, 0
3, 110940, Note_on_c, 1, 76, 90
3, 110969, Note_on_c, 1, 76, 0
3, 110970, Note_on_c, 1, 78, 90
3, 110999, Note_on_c, 1, 78, 0
3, 111000, Note_on_c, 1, 74, 90
3, 111029, Note_on_c, 1, 74, 0
3, 111030, Note_on_c, 1, 76, 90
3, 111059, Note_on_c, 1, 76, 0
3, 111060, Note_on_c, 1, 78, 90
3, 111089, Note_on_c, 1, 78, 0
3, 111090, Note_on_c, 1, 79, 90
3, 111119, Note_on_c, 1, 79, 0
3, 111120, Note_on_c, 1, 76, 90
3, 111149, Note_on_c, 1, 76, 0
3, 111150, Note_on_c, 1, 78, 90
3, 111179, Note_on_c, 1, 78, 0
3, 111180, Note_on_c, 1, 76, 100
3, 111200, Note_on_c, 1, 76, 0
3, 111200, Note_on_c, 1, 74, 100
3, 111220, Note_on_c, 1, 74, 0
3, 111220, Note_on_c, 1, 76, 100
3, 111240, Note_on_c, 1, 76, 0
3, 111240, Note_on_c, 1, 74, 100
3, 111255, Note_on_c, 1, 74, 0
3, 111255, Note_on_c, 1, 76, 100
3, 111270, Note_on_c, 1, 76, 0
3, 111270, Note_on_c, 1, 74, 100
3, 111285, Note_on_c, 1, 74, 0
3, 111285, Note_on_c, 1, 76, 100
3, 111300, Note_on_c, 1, 76, 0
3, 111300, Note_on_c, 1, 74, 100
3, 111315, Note_on_c, 1, 74, 0
3, 111315, Note_on_c, 1, 76, 100
3, 111330, Note_on_c, 1, 76, 0
3, 111330, Note_on_c, 1, 74, 100
3, 111345, Note_on_c, 1, 74, 0
3, 111345, Note_on_c, 1, 76, 100
3, 111360, Note_on_c, 1, 76, 0
3, 111360, Note_on_c, 1, 74, 100
3, 111375, Note_on_c, 1, 74, 0
3, 111375, Note_on_c, 1, 76, 100
3, 111390, Note_on_c, 1, 76, 0
3, 111390, Note_on_c, 1, 74, 100
3, 111405, Note_on_c, 1, 74, 0
3, 111405, Note_on_c, 1, 76, 100
3, 111420, Note_on_c, 1, 76, 0
3, 111420, Note_on_c, 1, 74, 100
3, 111435, Note_on_c, 1, 74, 0
3, 111435, Note_on_c, 1, 73, 100
3, 111450, Note_on_c, 1, 73, 0
3, 111450, Note_on_c, 1, 74, 100
3, 111465, Note_on_c, 1, 74, 0
3, 111465, Note_on_c, 1, 73, 100
3, 111480, Note_on_c, 1, 73, 0
3, 111480, Note_on_c, 1, 74, 100
3, 111495, Note_on_c, 1, 74, 0
3, 111495, Note_on_c, 1, 73, 100
3, 111510, Note_on_c, 1, 73, 0
3, 111510, Note_on_c, 1, 74, 100
3, 111525, Note_on_c, 1, 74, 0
3, 111525, Note_on_c, 1, 73, 100
3, 111540, Note_on_c, 1, 73, 0
3, 111540, Note_on_c, 1, 74, 100
3, 111555, Note_on_c, 1, 74, 0
3, 111555, Note_on_c, 1, 73, 100
3, 111570, Note_on_c, 1, 73, 0
3, 111570, Note_on_c, 1, 74, 100
3, 111585, Note_on_c, 1, 74, 0
3, 111585, Note_on_c, 1, 73, 100
3, 111600, Note_on_c, 1, 73, 0
3, 111600, Note_on_c, 1, 71, 100
3, 111615, Note_on_c, 1, 71, 0
3, 111615, Note_on_c, 1, 73, 100
3, 111630, Note_on_c, 1, 73, 0
3, 111630, Note_on_c, 1, 71, 100
3, 111645, Note_on_c, 1, 71, 0
3, 111645, Note_on_c, 1, 73, 100
3, 111660, Note_on_c, 1, 73, 0
3, 111660, Note_on_c, 1, 71, 100
3, 111675, Note_on_c, 1, 71, 0
3, 111675, Note_on_c, 1, 73, 100
3, 111690, Note_on_c, 1, 73, 0
3, 111690, Note_on_c, 1, 71, 100
3, 111705, Note_on_c, 1, 71, 0
3, 111705, Note_on_c, 1, 73, 100
3, 111720, Note_on_c, 1, 73, 0
3, 111720, Note_on_c, 1, 71, 100
3, 111735, Note_on_c, 1, 71, 0
3, 111735, Note_on_c, 1, 73, 100
3, 111750, Note_on_c, 1, 73, 0
3, 111750, Note_on_c, 1, 71, 100
3, 111765, Note_on_c, 1, 71, 0
3, 111765, Note_on_c, 1, 73, 100
3, 111780, Note_on_c, 1, 73, 0
3, 111780, Note_on_c, 1, 71, 100
3, 111795, Note_on_c, 1, 71, 0
3, 111795, Note_on_c, 1, 69, 100
3, 111810, Note_on_c, 1, 69, 0
3, 111810, Note_on_c, 1, 71, 100
3, 111825, Note_on_c, 1, 71, 0
3, 111825, Note_on_c, 1, 69, 100
3, 111840, Note_on_c, 1, 69, 0
3, 111840, Note_on_c, 1, 71, 100
3, 111855, Note_on_c, 1, 71, 0
3, 111855, Note_on_c, 1, 69, 100
3, 111870, Note_on_c, 1, 69, 0
3, 111870, Note_on_c, 1, 71, 100
3, 111885, Note_on_c, 1, 71, 0
3, 111885, Note_on_c, 1, 69, 100
3, 111900, Note_on_c, 1, 69, 0
3, 111900, Note_on_c, 1, 71, 100
3, 111915, Note_on_c, 1, 71, 0
3, 111915, Note_on_c, 1, 69, 100
3, 111930, Note_on_c, 1, 69, 0
3, 111930, Note_on_c, 1, 71, 100
3, 111945, Note_on_c, 1, 71, 0
3, 111945, Note_on_c, 1, 69, 100
3, 111960, Note_on_c, 1, 69, 0
3, 111960, Note_on_c, 1, 67, 100
3, 111975, Note_on_c, 1, 67, 0
3, 111975, Note_on_c, 1, 69, 100
3, 111990, Note_on_c, 1, 69, 0
3, 111990, Note_on_c, 1, 67, 100
3, 112005, Note_on_c, 1, 67, 0
3, 112005, Note_on_c, 1, 69, 100
3, 112020, Note_on_c, 1, 69, 0
3, 112020, Note_on_c, 1, 67, 100
3, 112035, Note_on_c, 1, 67, 0
3, 112035, Note_on_c, 1, 69, 100
3, 112050, Note_on_c, 1, 69, 0
3, 112050, Note_on_c, 1, 67, 100
3, 112065, Note_on_c, 1, 67, 0
3, 112065, Note_on_c, 1, 69, 100
3, 112080, Note_on_c, 1, 69, 0
3, 112080, Note_on_c, 1, 67, 100
3, 112095, Note_on_c, 1, 67, 0
3, 112095, Note_on_c, 1, 69, 100
3, 112110, Note_on_c, 1, 69, 0
3, 112110, Note_on_c, 1, 64, 100
3, 112140, Note_on_c, 1, 64, 0
3, 112140, Note_on_c, 1, 66, 100
3, 112170, Note_on_c, 1, 66, 0
3, 112170, Note_on_c, 1, 67, 100
3, 112200, Note_on_c, 1, 67, 0
3, 112200, Note_on_c, 1, 69, 100
3, 112230, Note_on_c, 1, 69, 0
3, 112230, Note_on_c, 1, 67, 100
3, 112260, Note_on_c, 1, 67, 0
3, 112260, Note_on_c, 1, 69, 100
3, 112290, Note_on_c, 1, 69, 0
3, 112290, Note_on_c, 1, 71, 100
3, 112320, Note_on_c, 1, 71, 0
3, 112320, Note_on_c, 1, 69, 100
3, 112350, Note_on_c, 1, 69, 0
3, 112350, Note_on_c, 1, 67, 100
3, 112380, Note_on_c, 1, 67, 0
3, 112380, Note_on_c, 1, 66, 100
3, 112410, Note_on_c, 1, 66, 0
3, 112410, Note_on_c, 1, 64, 100
3, 112440, Note_on_c, 1, 64, 0
3, 112440, Note_on_c, 1, 66, 100
3, 112470, Note_on_c, 1, 66, 0
3, 112470, Note_on_c, 1, 69, 100
3, 112500, Note_on_c, 1, 69, 0
3, 112500, Note_on_c, 1, 74, 100
3, 112530, Note_on_c, 1, 74, 0
3, 112530, Note_on_c, 1, 76, 100
3, 112560, Note_on_c, 1, 76, 0
3, 112560, Note_on_c, 1, 78, 100
3, 112590, Note_on_c, 1, 78, 0
3, 112590, Note_on_c, 1, 79, 100
3, 112620, Note_on_c, 1, 79, 0
3, 112620, Note_on_c, 1, 76, 90
3, 112649, Note_on_c, 1, 76, 0
3, 112650, Note_on_c, 1, 78, 90
3, 112679, Note_on_c, 1, 78, 0
3, 112680, Note_on_c, 1, 79, 90
3, 112709, Note_on_c, 1, 79, 0
3, 112710, Note_on_c, 1, 78, 90
3, 112739, Note_on_c, 1, 78, 0
3, 112740, Note_on_c, 1, 79, 90
3, 112769, Note_on_c, 1, 79, 0
3, 112770, Note_on_c, 1, 81, 90
3, 112799, Note_on_c, 1, 81, 0
3, 112800, Note_on_c, 1, 74, 90
3, 112829, Note_on_c, 1, 74, 0
3, 112830, Note_on_c, 1, 76, 90
3, 112859, Note_on_c, 1, 76, 0
3, 112860, Note_on_c, 1, 78, 90
3, 112889, Note_on_c, 1, 78, 0
3, 112890, Note_on_c, 1, 76, 90
3, 112919, Note_on_c, 1, 76, 0
3, 112920, Note_on_c, 1, 78, 90
3, 112949, Note_on_c, 1, 78, 0
3, 112950, Note_on_c, 1, 79, 90
3, 112979, Note_on_c, 1, 79, 0
3, 112980, Note_on_c, 1, 73, 90
3, 113009, Note_on_c, 1, 73, 0
3, 113010, Note_on_c, 1, 74, 90
3, 113039, Note_on_c, 1, 74, 0
3, 113040, Note_on_c, 1, 76, 90
3, 113069, Note_on_c, 1, 76, 0
3, 113070, Note_on_c, 1, 74, 90
3, 113099, Note_on_c, 1, 74, 0
3, 113100, Note_on_c, 1, 76, 90
3, 113129, Note_on_c, 1, 76, 0
3, 113130, Note_on_c, 1, 78, 90
3, 113159, Note_on_c, 1, 78, 0
3, 113160, Note_on_c, 1, 71, 90
3, 113189, Note_on_c, 1, 71, 0
3, 113190, Note_on_c, 1, 73, 90
3, 113219, Note_on_c, 1, 73, 0
3, 113220, Note_on_c, 1, 74, 90
3, 113249, Note_on_c, 1, 74, 0
3, 113250, Note_on_c, 1, 73, 90
3, 113279, Note_on_c, 1, 73, 0
3, 113280, Note_on_c, 1, 74, 90
3, 113309, Note_on_c, 1, 74, 0
3, 113310, Note_on_c, 1, 76, 90
3, 113339, Note_on_c, 1, 76, 0
3, 113340, Note_on_c, 1, 73, 90
3, 113399, Note_on_c, 1, 73, 0
3, 113400, Note_on_c, 1, 69, 90
3, 113459, Note_on_c, 1, 69, 0
3, 113460, Note_on_c, 1, 74, 90
3, 113549, Note_on_c, 1, 74, 0
3, 113550, Note_on_c, 1, 76, 90
3, 113579, Note_on_c, 1, 76, 0
3, 113580, Note_on_c, 1, 73, 90
3, 113669, Note_on_c, 1, 73, 0
3, 113670, Note_on_c, 1, 74, 90
3, 113699, Note_on_c, 1, 74, 0
3, 113700, Note_on_c, 1, 66, 90
3, 113700, Note_on_c, 1, 74, 90
3, 113700, Note_on_c, 1, 69, 90
3, 114059, Note_on_c, 1, 69, 0
3, 114059, Note_on_c, 1, 74, 0
3, 114059, Note_on_c, 1, 66, 0
3, 114059, End_track
4, 0, Start_track
4, 0, MIDI_port, 0
4, 0, Title_t, "Clave L"
4, 0, Program_c, 2, 6
4, 0, Note_on_c, 2, 50, 90
4, 59, Note_on_c, 2, 50, 0
4, 60, Note_on_c, 2, 62, 90
4, 119, Note_on_c, 2, 62, 0
4, 120, Note_on_c, 2, 54, 90
4, 179, Note_on_c, 2, 54, 0
4, 180, Note_on_c, 2, 62, 90
4, 239, Note_on_c, 2, 62, 0
4, 240, Note_on_c, 2, 55, 90
4, 299, Note_on_c, 2, 55, 0
4, 300, Note_on_c, 2, 62, 90
4, 359, Note_on_c, 2, 62, 0
4, 360, Note_on_c, 2, 50, 90
4, 419, Note_on_c, 2, 50, 0
4, 420, Note_on_c, 2, 62, 90
4, 479, Note_on_c, 2, 62, 0
4, 480, Note_on_c, 2, 54, 90
4, 539, Note_on_c, 2, 54, 0
4, 540, Note_on_c, 2, 62, 90
4, 599, Note_on_c, 2, 62, 0
4, 600, Note_on_c, 2, 55, 90
4, 659, Note_on_c, 2, 55, 0
4, 660, Note_on_c, 2, 62, 90
4, 719, Note_on_c, 2, 62, 0
4, 720, Note_on_c, 2, 50, 90
4, 779, Note_on_c, 2, 50, 0
4, 780, Note_on_c, 2, 54, 90
4, 839, Note_on_c, 2, 54, 0
4, 840, Note_on_c, 2, 47, 90
4, 899, Note_on_c, 2, 47, 0
4, 900, Note_on_c, 2, 59, 90
4, 959, Note_on_c, 2, 59, 0
4, 960, Note_on_c, 2, 52, 90
4, 1019, Note_on_c, 2, 52, 0
4, 1020, Note_on_c, 2, 56, 90
4, 1079, Note_on_c, 2, 56, 0
4, 1080, Note_on_c, 2, 45, 90
4, 1139, Note_on_c, 2, 45, 0
4, 1140, Note_on_c, 2, 57, 90
4, 1199, Note_on_c, 2, 57, 0
4, 1200, Note_on_c, 2, 49, 90
4, 1259, Note_on_c, 2, 49, 0
4, 1260, Note_on_c, 2, 57, 90
4, 1319, Note_on_c, 2, 57, 0
4, 1320, Note_on_c, 2, 50, 90
4, 1379, Note_on_c, 2, 50, 0
4, 1380, Note_on_c, 2, 57, 90
4, 1439, Note_on_c, 2, 57, 0
4, 1440, Note_on_c, 2, 45, 90
4, 1499, Note_on_c, 2, 45, 0
4, 1500, Note_on_c, 2, 57, 90
4, 1559, Note_on_c, 2, 57, 0
4, 1560, Note_on_c, 2, 49, 90
4, 1619, Note_on_c, 2, 49, 0
4, 1620, Note_on_c, 2, 57, 90
4, 1679, Note_on_c, 2, 57, 0
4, 1680, Note_on_c, 2, 50, 90
4, 1739, Note_on_c, 2, 50, 0
4, 1740, Note_on_c, 2, 57, 90
4, 1799, Note_on_c, 2, 57, 0
4, 1800, Note_on_c, 2, 45, 90
4, 1859, Note_on_c, 2, 45, 0
4, 1860, Note_on_c, 2, 49, 90
4, 1919, Note_on_c, 2, 49, 0
4, 1920, Note_on_c, 2, 42, 90
4, 1979, Note_on_c, 2, 42, 0
4, 1980, Note_on_c, 2, 54, 90
4, 2039, Note_on_c, 2, 54, 0
4, 2040, Note_on_c, 2, 47, 90
4, 2099, Note_on_c, 2, 47, 0
4, 2100, Note_on_c, 2, 59, 90
4, 2159, Note_on_c, 2, 59, 0
4, 2160, Note_on_c, 2, 52, 90
4, 2219, Note_on_c, 2, 52, 0
4, 2220, Note_on_c, 2, 56, 90
4, 2279, Note_on_c, 2, 56, 0
4, 2280, Note_on_c, 2, 49, 90
4, 2339, Note_on_c, 2, 49, 0
4, 2340, Note_on_c, 2, 55, 90
4, 2399, Note_on_c, 2, 55, 0
4, 2400, Note_on_c, 2, 46, 90
4, 2459, Note_on_c, 2, 46, 0
4, 2460, Note_on_c, 2, 54, 90
4, 2519, Note_on_c, 2, 54, 0
4, 2520, Note_on_c, 2, 47, 90
4, 2579, Note_on_c, 2, 47, 0
4, 2580, Note_on_c, 2, 50, 90
4, 2639, Note_on_c, 2, 50, 0
4, 2640, Note_on_c, 2, 44, 90
4, 2699, Note_on_c, 2, 44, 0
4, 2700, Note_on_c, 2, 50, 90
4, 2759, Note_on_c, 2, 50, 0
4, 2760, Note_on_c, 2, 41, 90
4, 2819, Note_on_c, 2, 41, 0
4, 2820, Note_on_c, 2, 49, 90
4, 2879, Note_on_c, 2, 49, 0
4, 2880, Note_on_c, 2, 42, 90
4, 2939, Note_on_c, 2, 42, 0
4, 2940, Note_on_c, 2, 49, 90
4, 2999, Note_on_c, 2, 49, 0
4, 3000, Note_on_c, 2, 45, 90
4, 3059, Note_on_c, 2, 45, 0
4, 3060, Note_on_c, 2, 54, 90
4, 3119, Note_on_c, 2, 54, 0
4, 3120, Note_on_c, 2, 47, 90
4, 3179, Note_on_c, 2, 47, 0
4, 3180, Note_on_c, 2, 50, 90
4, 3239, Note_on_c, 2, 50, 0
4, 3240, Note_on_c, 2, 54, 90
4, 3299, Note_on_c, 2, 54, 0
4, 3300, Note_on_c, 2, 49, 90
4, 3359, Note_on_c, 2, 49, 0
4, 3360, Note_on_c, 2, 45, 90
4, 3419, Note_on_c, 2, 45, 0
4, 3420, Note_on_c, 2, 54, 90
4, 3479, Note_on_c, 2, 54, 0
4, 3480, Note_on_c, 2, 47, 90
4, 3539, Note_on_c, 2, 47, 0
4, 3540, Note_on_c, 2, 50, 90
4, 3599, Note_on_c, 2, 50, 0
4, 3600, Note_on_c, 2, 40, 90
4, 3659, Note_on_c, 2, 40, 0
4, 3660, Note_on_c, 2, 47, 90
4, 3719, Note_on_c, 2, 47, 0
4, 3720, Note_on_c, 2, 49, 90
4, 3779, Note_on_c, 2, 49, 0
4, 3780, Note_on_c, 2, 50, 90
4, 3839, Note_on_c, 2, 50, 0
4, 3840, Note_on_c, 2, 52, 90
4, 3899, Note_on_c, 2, 52, 0
4, 3900, Note_on_c, 2, 49, 90
4, 3959, Note_on_c, 2, 49, 0
4, 3960, Note_on_c, 2, 54, 90
4, 4019, Note_on_c, 2, 54, 0
4, 4020, Note_on_c, 2, 42, 90
4, 4079, Note_on_c, 2, 42, 0
4, 4080, Note_on_c, 2, 43, 90
4, 4139, Note_on_c, 2, 43, 0
4, 4140, Note_on_c, 2, 55, 90
4, 4199, Note_on_c, 2, 55, 0
4, 4200, Note_on_c, 2, 50, 90
4, 4259, Note_on_c, 2, 50, 0
4, 4260, Note_on_c, 2, 47, 90
4, 4319, Note_on_c, 2, 47, 0
4, 4320, Note_on_c, 2, 52, 90
4, 4379, Note_on_c, 2, 52, 0
4, 4380, Note_on_c, 2, 49, 90
4, 4439, Note_on_c, 2, 49, 0
4, 4440, Note_on_c, 2, 54, 90
4, 4499, Note_on_c, 2, 54, 0
4, 4500, Note_on_c, 2, 52, 90
4, 4559, Note_on_c, 2, 52, 0
4, 4560, Note_on_c, 2, 54, 90
4, 4619, Note_on_c, 2, 54, 0
4, 4620, Note_on_c, 2, 42, 90
4, 4679, Note_on_c, 2, 42, 0
4, 4680, Note_on_c, 2, 47, 90
4, 4739, Note_on_c, 2, 47, 0
4, 4740, Note_on_c, 2, 59, 90
4, 4799, Note_on_c, 2, 59, 0
4, 4800, Note_on_c, 2, 58, 90
4, 4859, Note_on_c, 2, 58, 0
4, 4860, Note_on_c, 2, 54, 90
4, 4919, Note_on_c, 2, 54, 0
4, 4920, Note_on_c, 2, 59, 90
4, 4979, Note_on_c, 2, 59, 0
4, 4980, Note_on_c, 2, 62, 90
4, 5039, Note_on_c, 2, 62, 0
4, 5040, Note_on_c, 2, 52, 90
4, 5099, Note_on_c, 2, 52, 0
4, 5100, Note_on_c, 2, 54, 90
4, 5159, Note_on_c, 2, 54, 0
4, 5160, Note_on_c, 2, 56, 90
4, 5219, Note_on_c, 2, 56, 0
4, 5220, Note_on_c, 2, 59, 90
4, 5279, Note_on_c, 2, 59, 0
4, 5280, Note_on_c, 2, 52, 90
4, 5339, Note_on_c, 2, 52, 0
4, 5340, Note_on_c, 2, 56, 90
4, 5399, Note_on_c, 2, 56, 0
4, 5400, Note_on_c, 2, 57, 90
4, 5459, Note_on_c, 2, 57, 0
4, 5460, Note_on_c, 2, 45, 90
4, 5519, Note_on_c, 2, 45, 0
4, 5550, Note_on_c, 2, 52, 90
4, 5579, Note_on_c, 2, 52, 0
4, 5580, Note_on_c, 2, 54, 90
4, 5609, Note_on_c, 2, 54, 0
4, 5610, Note_on_c, 2, 55, 90
4, 5639, Note_on_c, 2, 55, 0
4, 5640, Note_on_c, 2, 57, 90
4, 5669, Note_on_c, 2, 57, 0
4, 5670, Note_on_c, 2, 57, 90
4, 5699, Note_on_c, 2, 57, 0
4, 5700, Note_on_c, 2, 59, 90
4, 5729, Note_on_c, 2, 59, 0
4, 5730, Note_on_c, 2, 61, 90
4, 5759, Note_on_c, 2, 61, 0
4, 5760, Note_on_c, 2, 62, 90
4, 5819, Note_on_c, 2, 62, 0
4, 5820, Note_on_c, 2, 50, 90
4, 5879, Note_on_c, 2, 50, 0
4, 5910, Note_on_c, 2, 45, 90
4, 5939, Note_on_c, 2, 45, 0
4, 5940, Note_on_c, 2, 47, 90
4, 5969, Note_on_c, 2, 47, 0
4, 5970, Note_on_c, 2, 49, 90
4, 5999, Note_on_c, 2, 49, 0
4, 6000, Note_on_c, 2, 50, 90
4, 6029, Note_on_c, 2, 50, 0
4, 6030, Note_on_c, 2, 50, 90
4, 6059, Note_on_c, 2, 50, 0
4, 6060, Note_on_c, 2, 52, 90
4, 6089, Note_on_c, 2, 52, 0
4, 6090, Note_on_c, 2, 54, 90
4, 6119, Note_on_c, 2, 54, 0
4, 6120, Note_on_c, 2, 55, 90
4, 6179, Note_on_c, 2, 55, 0
4, 6180, Note_on_c, 2, 43, 90
4, 6239, Note_on_c, 2, 43, 0
4, 6300, Note_on_c, 2, 55, 90
4, 6359, Note_on_c, 2, 55, 0
4, 6360, Note_on_c, 2, 52, 90
4, 6419, Note_on_c, 2, 52, 0
4, 6420, Note_on_c, 2, 55, 90
4, 6479, Note_on_c, 2, 55, 0
4, 6480, Note_on_c, 2, 57, 90
4, 6539, Note_on_c, 2, 57, 0
4, 6540, Note_on_c, 2, 55, 90
4, 6599, Note_on_c, 2, 55, 0
4, 6600, Note_on_c, 2, 54, 90
4, 6659, Note_on_c, 2, 54, 0
4, 6660, Note_on_c, 2, 55, 90
4, 6719, Note_on_c, 2, 55, 0
4, 6720, Note_on_c, 2, 57, 90
4, 6779, Note_on_c, 2, 57, 0
4, 6780, Note_on_c, 2, 54, 90
4, 6839, Note_on_c, 2, 54, 0
4, 6840, Note_on_c, 2, 59, 90
4, 6899, Note_on_c, 2, 59, 0
4, 6900, Note_on_c, 2, 55, 90
4, 6959, Note_on_c, 2, 55, 0
4, 6960, Note_on_c, 2, 57, 90
4, 7019, Note_on_c, 2, 57, 0
4, 7020, Note_on_c, 2, 55, 90
4, 7079, Note_on_c, 2, 55, 0
4, 7080, Note_on_c, 2, 57, 90
4, 7139, Note_on_c, 2, 57, 0
4, 7140, Note_on_c, 2, 45, 90
4, 7199, Note_on_c, 2, 45, 0
4, 7200, Note_on_c, 2, 50, 90
4, 7259, Note_on_c, 2, 50, 0
4, 7260, Note_on_c, 2, 62, 90
4, 7319, Note_on_c, 2, 62, 0
4, 7320, Note_on_c, 2, 54, 90
4, 7379, Note_on_c, 2, 54, 0
4, 7380, Note_on_c, 2, 62, 90
4, 7439, Note_on_c, 2, 62, 0
4, 7440, Note_on_c, 2, 55, 90
4, 7499, Note_on_c, 2, 55, 0
4, 7500, Note_on_c, 2, 62, 90
4, 7559, Note_on_c, 2, 62, 0
4, 7560, Note_on_c, 2, 50, 90
4, 7619, Note_on_c, 2, 50, 0
4, 7620, Note_on_c, 2, 54, 90
4, 7679, Note_on_c, 2, 54, 0
4, 7680, Note_on_c, 2, 47, 90
4, 7739, Note_on_c, 2, 47, 0
4, 7740, Note_on_c, 2, 50, 90
4, 7799, Note_on_c, 2, 50, 0
4, 7800, Note_on_c, 2, 52, 90
4, 7859, Note_on_c, 2, 52, 0
4, 7860, Note_on_c, 2, 40, 90
4, 7919, Note_on_c, 2, 40, 0
4, 7920, Note_on_c, 2, 45, 90
4, 8279, Note_on_c, 2, 45, 0
4, 8640, Note_on_c, 2, 62, 90
4, 8729, Note_on_c, 2, 62, 0
4, 8730, Note_on_c, 2, 57, 90
4, 8744, Note_on_c, 2, 57, 0
4, 8745, Note_on_c, 2, 55, 90
4, 8759, Note_on_c, 2, 55, 0
4, 8760, Note_on_c, 2, 54, 90
4, 8774, Note_on_c, 2, 54, 0
4, 8775, Note_on_c, 2, 55, 90
4, 8789, Note_on_c, 2, 55, 0
4, 8790, Note_on_c, 2, 57, 90
4, 8819, Note_on_c, 2, 57, 0
4, 8820, Note_on_c, 2, 50, 90
4, 8879, Note_on_c, 2, 50, 0
4, 8880, Note_on_c, 2, 57, 90
4, 8969, Note_on_c, 2, 57, 0
4, 8970, Note_on_c, 2, 52, 90
4, 8984, Note_on_c, 2, 52, 0
4, 8985, Note_on_c, 2, 50, 90
4, 8999, Note_on_c, 2, 50, 0
4, 9000, Note_on_c, 2, 49, 90
4, 9014, Note_on_c, 2, 49, 0
4, 9015, Note_on_c, 2, 50, 90
4, 9029, Note_on_c, 2, 50, 0
4, 9030, Note_on_c, 2, 52, 90
4, 9059, Note_on_c, 2, 52, 0
4, 9060, Note_on_c, 2, 45, 90
4, 9119, Note_on_c, 2, 45, 0
4, 9120, Note_on_c, 2, 50, 90
4, 9239, Note_on_c, 2, 50, 0
4, 9300, Note_on_c, 2, 38, 90
4, 9359, Note_on_c, 2, 38, 0
4, 9360, Note_on_c, 2, 45, 90
4, 9419, Note_on_c, 2, 45, 0
4, 9420, Note_on_c, 2, 57, 90
4, 9449, Note_on_c, 2, 57, 0
4, 9450, Note_on_c, 2, 55, 90
4, 9479, Note_on_c, 2, 55, 0
4, 9480, Note_on_c, 2, 54, 90
4, 9509, Note_on_c, 2, 54, 0
4, 9510, Note_on_c, 2, 52, 90
4, 9539, Note_on_c, 2, 52, 0
4, 9540, Note_on_c, 2, 50, 90
4, 9569, Note_on_c, 2, 50, 0
4, 9570, Note_on_c, 2, 49, 90
4, 9599, Note_on_c, 2, 49, 0
4, 9600, Note_on_c, 2, 50, 90
4, 9659, Note_on_c, 2, 50, 0
4, 9660, Note_on_c, 2, 38, 90
4, 9689, Note_on_c, 2, 38, 0
4, 9690, Note_on_c, 2, 40, 90
4, 9719, Note_on_c, 2, 40, 0
4, 9720, Note_on_c, 2, 42, 90
4, 9779, Note_on_c, 2, 42, 0
4, 9780, Note_on_c, 2, 38, 90
4, 9839, Note_on_c, 2, 38, 0
4, 9840, Note_on_c, 2, 45, 90
4, 9899, Note_on_c, 2, 45, 0
4, 9900, Note_on_c, 2, 49, 90
4, 9929, Note_on_c, 2, 49, 0
4, 9930, Note_on_c, 2, 47, 90
4, 9959, Note_on_c, 2, 47, 0
4, 9960, Note_on_c, 2, 45, 90
4, 10019, Note_on_c, 2, 45, 0
4, 10020, Note_on_c, 2, 57, 90
4, 10079, Note_on_c, 2, 57, 0
4, 10080, Note_on_c, 2, 50, 90
4, 10199, Note_on_c, 2, 50, 0
4, 10230, Note_on_c, 2, 52, 90
4, 10259, Note_on_c, 2, 52, 0
4, 10260, Note_on_c, 2, 54, 90
4, 10289, Note_on_c, 2, 54, 0
4, 10290, Note_on_c, 2, 50, 90
4, 10319, Note_on_c, 2, 50, 0
4, 10320, Note_on_c, 2, 57, 90
4, 10379, Note_on_c, 2, 57, 0
4, 10380, Note_on_c, 2, 45, 90
4, 10439, Note_on_c, 2, 45, 0
4, 10470, Note_on_c, 2, 45, 90
4, 10499, Note_on_c, 2, 45, 0
4, 10500, Note_on_c, 2, 47, 90
4, 10529, Note_on_c, 2, 47, 0
4, 10530, Note_on_c, 2, 49, 90
4, 10559, Note_on_c, 2, 49, 0
4, 10560, Note_on_c, 2, 50, 90
4, 10589, Note_on_c, 2, 50, 0
4, 10590, Note_on_c, 2, 52, 90
4, 10619, Note_on_c, 2, 52, 0
4, 10620, Note_on_c, 2, 54, 90
4, 10739, Note_on_c, 2, 54, 0
4, 10740, Note_on_c, 2, 52, 90
4, 10769, Note_on_c, 2, 52, 0
4, 10770, Note_on_c, 2, 50, 90
4, 10799, Note_on_c, 2, 50, 0
4, 10800, Note_on_c, 2, 55, 90
4, 10829, Note_on_c, 2, 55, 0
4, 10830, Note_on_c, 2, 57, 90
4, 10859, Note_on_c, 2, 57, 0
4, 10860, Note_on_c, 2, 59, 90
4, 10949, Note_on_c, 2, 59, 0
4, 10950, Note_on_c, 2, 57, 90
4, 10979, Note_on_c, 2, 57, 0
4, 10980, Note_on_c, 2, 55, 90
4, 11009, Note_on_c, 2, 55, 0
4, 11010, Note_on_c, 2, 54, 90
4, 11039, Note_on_c, 2, 54, 0
4, 11040, Note_on_c, 2, 52, 90
4, 11069, Note_on_c, 2, 52, 0
4, 11070, Note_on_c, 2, 54, 90
4, 11099, Note_on_c, 2, 54, 0
4, 11100, Note_on_c, 2, 55, 90
4, 11219, Note_on_c, 2, 55, 0
4, 11220, Note_on_c, 2, 54, 90
4, 11249, Note_on_c, 2, 54, 0
4, 11250, Note_on_c, 2, 52, 90
4, 11279, Note_on_c, 2, 52, 0
4, 11280, Note_on_c, 2, 57, 90
4, 11309, Note_on_c, 2, 57, 0
4, 11310, Note_on_c, 2, 59, 90
4, 11339, Note_on_c, 2, 59, 0
4, 11340, Note_on_c, 2, 61, 90
4, 11429, Note_on_c, 2, 61, 0
4, 11430, Note_on_c, 2, 59, 90
4, 11459, Note_on_c, 2, 59, 0
4, 11460, Note_on_c, 2, 57, 90
4, 11489, Note_on_c, 2, 57, 0
4, 11490, Note_on_c, 2, 55, 90
4, 11519, Note_on_c, 2, 55, 0
4, 11520, Note_on_c, 2, 54, 90
4, 11549, Note_on_c, 2, 54, 0
4, 11550, Note_on_c, 2, 55, 90
4, 11579, Note_on_c, 2, 55, 0
4, 11580, Note_on_c, 2, 57, 90
4, 11609, Note_on_c, 2, 57, 0
4, 11610, Note_on_c, 2, 54, 90
4, 11639, Note_on_c, 2, 54, 0
4, 11640, Note_on_c, 2, 51, 90
4, 11669, Note_on_c, 2, 51, 0
4, 11670, Note_on_c, 2, 54, 90
4, 11699, Note_on_c, 2, 54, 0
4, 11700, Note_on_c, 2, 47, 90
4, 11729, Note_on_c, 2, 47, 0
4, 11730, Note_on_c, 2, 59, 90
4, 11759, Note_on_c, 2, 59, 0
4, 11760, Note_on_c, 2, 52, 90
4, 11789, Note_on_c, 2, 52, 0
4, 11790, Note_on_c, 2, 54, 90
4, 11819, Note_on_c, 2, 54, 0
4, 11820, Note_on_c, 2, 55, 90
4, 11849, Note_on_c, 2, 55, 0
4, 11850, Note_on_c, 2, 52, 90
4, 11879, Note_on_c, 2, 52, 0
4, 11880, Note_on_c, 2, 49, 90
4, 11909, Note_on_c, 2, 49, 0
4, 11910, Note_on_c, 2, 52, 90
4, 11939, Note_on_c, 2, 52, 0
4, 11940, Note_on_c, 2, 45, 90
4, 11969, Note_on_c, 2, 45, 0
4, 11970, Note_on_c, 2, 57, 90
4, 11999, Note_on_c, 2, 57, 0
4, 12000, Note_on_c, 2, 50, 90
4, 12029, Note_on_c, 2, 50, 0
4, 12030, Note_on_c, 2, 52, 90
4, 12059, Note_on_c, 2, 52, 0
4, 12060, Note_on_c, 2, 54, 90
4, 12089, Note_on_c, 2, 54, 0
4, 12090, Note_on_c, 2, 55, 90
4, 12119, Note_on_c, 2, 55, 0
4, 12120, Note_on_c, 2, 57, 90
4, 12179, Note_on_c, 2, 57, 0
4, 12180, Note_on_c, 2, 45, 90
4, 12239, Note_on_c, 2, 45, 0
4, 12240, Note_on_c, 2, 50, 90
4, 12299, Note_on_c, 2, 50, 0
4, 12300, Note_on_c, 2, 52, 90
4, 12359, Note_on_c, 2, 52, 0
4, 12360, Note_on_c, 2, 54, 90
4, 12419, Note_on_c, 2, 54, 0
4, 12420, Note_on_c, 2, 52, 90
4, 12479, Note_on_c, 2, 52, 0
4, 12480, Note_on_c, 2, 50, 90
4, 12539, Note_on_c, 2, 50, 0
4, 12540, Note_on_c, 2, 62, 90
4, 12569, Note_on_c, 2, 62, 0
4, 12570, Note_on_c, 2, 61, 90
4, 12599, Note_on_c, 2, 61, 0
4, 12600, Note_on_c, 2, 59, 90
4, 12629, Note_on_c, 2, 59, 0
4, 12630, Note_on_c, 2, 57, 90
4, 12659, Note_on_c, 2, 57, 0
4, 12660, Note_on_c, 2, 56, 90
4, 12689, Note_on_c, 2, 56, 0
4, 12690, Note_on_c, 2, 54, 90
4, 12719, Note_on_c, 2, 54, 0
4, 12720, Note_on_c, 2, 52, 90
4, 12779, Note_on_c, 2, 52, 0
4, 12780, Note_on_c, 2, 40, 90
4, 12839, Note_on_c, 2, 40, 0
4, 12840, Note_on_c, 2, 47, 90
4, 12899, Note_on_c, 2, 47, 0
4, 12900, Note_on_c, 2, 52, 90
4, 12929, Note_on_c, 2, 52, 0
4, 12930, Note_on_c, 2, 50, 90
4, 12959, Note_on_c, 2, 50, 0
4, 12960, Note_on_c, 2, 52, 90
4, 13019, Note_on_c, 2, 52, 0
4, 13020, Note_on_c, 2, 64, 90
4, 13049, Note_on_c, 2, 64, 0
4, 13050, Note_on_c, 2, 62, 90
4, 13079, Note_on_c, 2, 62, 0
4, 13080, Note_on_c, 2, 61, 90
4, 13109, Note_on_c, 2, 61, 0
4, 13110, Note_on_c, 2, 59, 90
4, 13139, Note_on_c, 2, 59, 0
4, 13140, Note_on_c, 2, 57, 90
4, 13169, Note_on_c, 2, 57, 0
4, 13170, Note_on_c, 2, 56, 90
4, 13199, Note_on_c, 2, 56, 0
4, 13200, Note_on_c, 2, 54, 90
4, 13259, Note_on_c, 2, 54, 0
4, 13260, Note_on_c, 2, 42, 90
4, 13319, Note_on_c, 2, 42, 0
4, 13320, Note_on_c, 2, 49, 90
4, 13379, Note_on_c, 2, 49, 0
4, 13380, Note_on_c, 2, 54, 90
4, 13409, Note_on_c, 2, 54, 0
4, 13410, Note_on_c, 2, 52, 90
4, 13439, Note_on_c, 2, 52, 0
4, 13440, Note_on_c, 2, 54, 90
4, 13469, Note_on_c, 2, 54, 0
4, 13470, Note_on_c, 2, 52, 90
4, 13499, Note_on_c, 2, 52, 0
4, 13500, Note_on_c, 2, 50, 90
4, 13529, Note_on_c, 2, 50, 0
4, 13530, Note_on_c, 2, 49, 90
4, 13559, Note_on_c, 2, 49, 0
4, 13560, Note_on_c, 2, 47, 90
4, 13589, Note_on_c, 2, 47, 0
4, 13590, Note_on_c, 2, 45, 90
4, 13619, Note_on_c, 2, 45, 0
4, 13620, Note_on_c, 2, 44, 90
4, 13649, Note_on_c, 2, 44, 0
4, 13650, Note_on_c, 2, 42, 90
4, 13679, Note_on_c, 2, 42, 0
4, 13680, Note_on_c, 2, 40, 90
4, 13739, Note_on_c, 2, 40, 0
4, 13740, Note_on_c, 2, 52, 90
4, 13769, Note_on_c, 2, 52, 0
4, 13770, Note_on_c, 2, 50, 90
4, 13799, Note_on_c, 2, 50, 0
4, 13800, Note_on_c, 2, 49, 90
4, 13859, Note_on_c, 2, 49, 0
4, 13860, Note_on_c, 2, 47, 90
4, 13919, Note_on_c, 2, 47, 0
4, 13920, Note_on_c, 2, 45, 90
4, 13979, Note_on_c, 2, 45, 0
4, 13980, Note_on_c, 2, 50, 90
4, 14039, Note_on_c, 2, 50, 0
4, 14040, Note_on_c, 2, 52, 90
4, 14099, Note_on_c, 2, 52, 0
4, 14100, Note_on_c, 2, 40, 90
4, 14159, Note_on_c, 2, 40, 0
4, 14160, Note_on_c, 2, 45, 90
4, 14219, Note_on_c, 2, 45, 0
4, 14220, Note_on_c, 2, 57, 90
4, 14309, Note_on_c, 2, 57, 0
4, 14310, Note_on_c, 2, 64, 90
4, 14339, Note_on_c, 2, 64, 0
4, 14340, Note_on_c, 2, 61, 90
4, 14369, Note_on_c, 2, 61, 0
4, 14370, Note_on_c, 2, 57, 90
4, 14399, Note_on_c, 2, 57, 0
4, 14400, Note_on_c, 2, 62, 90
4, 14459, Note_on_c, 2, 62, 0
4, 14460, Note_on_c, 2, 50, 90
4, 14549, Note_on_c, 2, 50, 0
4, 14550, Note_on_c, 2, 62, 90
4, 14579, Note_on_c, 2, 62, 0
4, 14580, Note_on_c, 2, 59, 90
4, 14609, Note_on_c, 2, 59, 0
4, 14610, Note_on_c, 2, 56, 90
4, 14639, Note_on_c, 2, 56, 0
4, 14640, Note_on_c, 2, 61, 90
4, 14699, Note_on_c, 2, 61, 0
4, 14700, Note_on_c, 2, 49, 90
4, 14789, Note_on_c, 2, 49, 0
4, 14790, Note_on_c, 2, 61, 90
4, 14819, Note_on_c, 2, 61, 0
4, 14820, Note_on_c, 2, 57, 90
4, 14849, Note_on_c, 2, 57, 0
4, 14850, Note_on_c, 2, 54, 90
4, 14879, Note_on_c, 2, 54, 0
4, 14880, Note_on_c, 2, 59, 90
4, 14939, Note_on_c, 2, 59, 0
4, 14940, Note_on_c, 2, 47, 90
4, 15029, Note_on_c, 2, 47, 0
4, 15030, Note_on_c, 2, 54, 90
4, 15059, Note_on_c, 2, 54, 0
4, 15060, Note_on_c, 2, 50, 90
4, 15089, Note_on_c, 2, 50, 0
4, 15090, Note_on_c, 2, 47, 90
4, 15119, Note_on_c, 2, 47, 0
4, 15120, Note_on_c, 2, 52, 90
4, 15179, Note_on_c, 2, 52, 0
4, 15180, Note_on_c, 2, 54, 90
4, 15239, Note_on_c, 2, 54, 0
4, 15240, Note_on_c, 2, 56, 90
4, 15299, Note_on_c, 2, 56, 0
4, 15300, Note_on_c, 2, 52, 90
4, 15359, Note_on_c, 2, 52, 0
4, 15360, Note_on_c, 2, 57, 90
4, 15449, Note_on_c, 2, 57, 0
4, 15450, Note_on_c, 2, 52, 90
4, 15464, Note_on_c, 2, 52, 0
4, 15465, Note_on_c, 2, 50, 90
4, 15479, Note_on_c, 2, 50, 0
4, 15480, Note_on_c, 2, 48, 90
4, 15494, Note_on_c, 2, 48, 0
4, 15495, Note_on_c, 2, 50, 90
4, 15509, Note_on_c, 2, 50, 0
4, 15510, Note_on_c, 2, 52, 90
4, 15539, Note_on_c, 2, 52, 0
4, 15540, Note_on_c, 2, 45, 90
4, 15599, Note_on_c, 2, 45, 0
4, 15600, Note_on_c, 2, 52, 90
4, 15689, Note_on_c, 2, 52, 0
4, 15690, Note_on_c, 2, 47, 90
4, 15704, Note_on_c, 2, 47, 0
4, 15705, Note_on_c, 2, 45, 90
4, 15719, Note_on_c, 2, 45, 0
4, 15720, Note_on_c, 2, 44, 90
4, 15734, Note_on_c, 2, 44, 0
4, 15735, Note_on_c, 2, 45, 90
4, 15749, Note_on_c, 2, 45, 0
4, 15750, Note_on_c, 2, 47, 90
4, 15779, Note_on_c, 2, 47, 0
4, 15780, Note_on_c, 2, 40, 90
4, 15839, Note_on_c, 2, 40, 0
4, 15840, Note_on_c, 2, 45, 90
4, 15899, Note_on_c, 2, 45, 0
4, 15900, Note_on_c, 2, 50, 90
4, 15959, Note_on_c, 2, 50, 0
4, 15960, Note_on_c, 2, 52, 90
4, 16019, Note_on_c, 2, 52, 0
4, 16020, Note_on_c, 2, 40, 90
4, 16079, Note_on_c, 2, 40, 0
4, 16080, Note_on_c, 2, 45, 90
4, 16109, Note_on_c, 2, 45, 0
4, 16110, Note_on_c, 2, 52, 90
4, 16139, Note_on_c, 2, 52, 0
4, 16140, Note_on_c, 2, 54, 90
4, 16169, Note_on_c, 2, 54, 0
4, 16170, Note_on_c, 2, 55, 90
4, 16199, Note_on_c, 2, 55, 0
4, 16200, Note_on_c, 2, 57, 90
4, 16229, Note_on_c, 2, 57, 0
4, 16230, Note_on_c, 2, 59, 90
4, 16259, Note_on_c, 2, 59, 0
4, 16260, Note_on_c, 2, 61, 90
4, 16289, Note_on_c, 2, 61, 0
4, 16290, Note_on_c, 2, 57, 90
4, 16319, Note_on_c, 2, 57, 0
4, 16320, Note_on_c, 2, 62, 90
4, 16409, Note_on_c, 2, 62, 0
4, 16410, Note_on_c, 2, 57, 90
4, 16424, Note_on_c, 2, 57, 0
4, 16425, Note_on_c, 2, 55, 90
4, 16439, Note_on_c, 2, 55, 0
4, 16440, Note_on_c, 2, 54, 90
4, 16454, Note_on_c, 2, 54, 0
4, 16455, Note_on_c, 2, 55, 90
4, 16469, Note_on_c, 2, 55, 0
4, 16470, Note_on_c, 2, 57, 90
4, 16499, Note_on_c, 2, 57, 0
4, 16500, Note_on_c, 2, 50, 90
4, 16559, Note_on_c, 2, 50, 0
4, 16560, Note_on_c, 2, 57, 90
4, 16649, Note_on_c, 2, 57, 0
4, 16650, Note_on_c, 2, 52, 90
4, 16664, Note_on_c, 2, 52, 0
4, 16665, Note_on_c, 2, 50, 90
4, 16679, Note_on_c, 2, 50, 0
4, 16680, Note_on_c, 2, 49, 90
4, 16694, Note_on_c, 2, 49, 0
4, 16695, Note_on_c, 2, 50, 90
4, 16709, Note_on_c, 2, 50, 0
4, 16710, Note_on_c, 2, 52, 90
4, 16739, Note_on_c, 2, 52, 0
4, 16740, Note_on_c, 2, 45, 90
4, 16799, Note_on_c, 2, 45, 0
4, 16800, Note_on_c, 2, 50, 90
4, 16919, Note_on_c, 2, 50, 0
4, 16980, Note_on_c, 2, 38, 90
4, 17039, Note_on_c, 2, 38, 0
4, 17040, Note_on_c, 2, 45, 90
4, 17099, Note_on_c, 2, 45, 0
4, 17100, Note_on_c, 2, 57, 90
4, 17129, Note_on_c, 2, 57, 0
4, 17130, Note_on_c, 2, 55, 90
4, 17159, Note_on_c, 2, 55, 0
4, 17160, Note_on_c, 2, 54, 90
4, 17189, Note_on_c, 2, 54, 0
4, 17190, Note_on_c, 2, 52, 90
4, 17219, Note_on_c, 2, 52, 0
4, 17220, Note_on_c, 2, 50, 90
4, 17249, Note_on_c, 2, 50, 0
4, 17250, Note_on_c, 2, 49, 90
4, 17279, Note_on_c, 2, 49, 0
4, 17280, Note_on_c, 2, 50, 90
4, 17339, Note_on_c, 2, 50, 0
4, 17340, Note_on_c, 2, 38, 90
4, 17369, Note_on_c, 2, 38, 0
4, 17370, Note_on_c, 2, 40, 90
4, 17399, Note_on_c, 2, 40, 0
4, 17400, Note_on_c, 2, 42, 90
4, 17459, Note_on_c, 2, 42, 0
4, 17460, Note_on_c, 2, 38, 90
4, 17519, Note_on_c, 2, 38, 0
4, 17520, Note_on_c, 2, 45, 90
4, 17579, Note_on_c, 2, 45, 0
4, 17580, Note_on_c, 2, 49, 90
4, 17609, Note_on_c, 2, 49, 0
4, 17610, Note_on_c, 2, 47, 90
4, 17639, Note_on_c, 2, 47, 0
4, 17640, Note_on_c, 2, 45, 90
4, 17699, Note_on_c, 2, 45, 0
4, 17700, Note_on_c, 2, 57, 90
4, 17759, Note_on_c, 2, 57, 0
4, 17760, Note_on_c, 2, 50, 90
4, 17879, Note_on_c, 2, 50, 0
4, 17910, Note_on_c, 2, 52, 90
4, 17939, Note_on_c, 2, 52, 0
4, 17940, Note_on_c, 2, 54, 90
4, 17969, Note_on_c, 2, 54, 0
4, 17970, Note_on_c, 2, 50, 90
4, 17999, Note_on_c, 2, 50, 0
4, 18000, Note_on_c, 2, 57, 90
4, 18059, Note_on_c, 2, 57, 0
4, 18060, Note_on_c, 2, 45, 90
4, 18119, Note_on_c, 2, 45, 0
4, 18150, Note_on_c, 2, 45, 90
4, 18179, Note_on_c, 2, 45, 0
4, 18180, Note_on_c, 2, 47, 90
4, 18209, Note_on_c, 2, 47, 0
4, 18210, Note_on_c, 2, 49, 90
4, 18239, Note_on_c, 2, 49, 0
4, 18240, Note_on_c, 2, 50, 90
4, 18269, Note_on_c, 2, 50, 0
4, 18270, Note_on_c, 2, 52, 90
4, 18299, Note_on_c, 2, 52, 0
4, 18300, Note_on_c, 2, 54, 90
4, 18419, Note_on_c, 2, 54, 0
4, 18420, Note_on_c, 2, 52, 90
4, 18449, Note_on_c, 2, 52, 0
4, 18450, Note_on_c, 2, 50, 90
4, 18479, Note_on_c, 2, 50, 0
4, 18480, Note_on_c, 2, 55, 90
4, 18509, Note_on_c, 2, 55, 0
4, 18510, Note_on_c, 2, 57, 90
4, 18539, Note_on_c, 2, 57, 0
4, 18540, Note_on_c, 2, 59, 90
4, 18629, Note_on_c, 2, 59, 0
4, 18630, Note_on_c, 2, 57, 90
4, 18659, Note_on_c, 2, 57, 0
4, 18660, Note_on_c, 2, 55, 90
4, 18689, Note_on_c, 2, 55, 0
4, 18690, Note_on_c, 2, 54, 90
4, 18719, Note_on_c, 2, 54, 0
4, 18720, Note_on_c, 2, 52, 90
4, 18749, Note_on_c, 2, 52, 0
4, 18750, Note_on_c, 2, 54, 90
4, 18779, Note_on_c, 2, 54, 0
4, 18780, Note_on_c, 2, 55, 90
4, 18899, Note_on_c, 2, 55, 0
4, 18900, Note_on_c, 2, 54, 90
4, 18929, Note_on_c, 2, 54, 0
4, 18930, Note_on_c, 2, 52, 90
4, 18959, Note_on_c, 2, 52, 0
4, 18960, Note_on_c, 2, 57, 90
4, 18989, Note_on_c, 2, 57, 0
4, 18990, Note_on_c, 2, 59, 90
4, 19019, Note_on_c, 2, 59, 0
4, 19020, Note_on_c, 2, 61, 90
4, 19109, Note_on_c, 2, 61, 0
4, 19110, Note_on_c, 2, 59, 90
4, 19139, Note_on_c, 2, 59, 0
4, 19140, Note_on_c, 2, 57, 90
4, 19169, Note_on_c, 2, 57, 0
4, 19170, Note_on_c, 2, 55, 90
4, 19199, Note_on_c, 2, 55, 0
4, 19200, Note_on_c, 2, 54, 90
4, 19229, Note_on_c, 2, 54, 0
4, 19230, Note_on_c, 2, 55, 90
4, 19259, Note_on_c, 2, 55, 0
4, 19260, Note_on_c, 2, 57, 90
4, 19289, Note_on_c, 2, 57, 0
4, 19290, Note_on_c, 2, 54, 90
4, 19319, Note_on_c, 2, 54, 0
4, 19320, Note_on_c, 2, 51, 90
4, 19349, Note_on_c, 2, 51, 0
4, 19350, Note_on_c, 2, 54, 90
4, 19379, Note_on_c, 2, 54, 0
4, 19380, Note_on_c, 2, 47, 90
4, 19409, Note_on_c, 2, 47, 0
4, 19410, Note_on_c, 2, 59, 90
4, 19439, Note_on_c, 2, 59, 0
4, 19440, Note_on_c, 2, 52, 90
4, 19469, Note_on_c, 2, 52, 0
4, 19470, Note_on_c, 2, 54, 90
4, 19499, Note_on_c, 2, 54, 0
4, 19500, Note_on_c, 2, 55, 90
4, 19529, Note_on_c, 2, 55, 0
4, 19530, Note_on_c, 2, 52, 90
4, 19559, Note_on_c, 2, 52, 0
4, 19560, Note_on_c, 2, 49, 90
4, 19589, Note_on_c, 2, 49, 0
4, 19590, Note_on_c, 2, 52, 90
4, 19619, Note_on_c, 2, 52, 0
4, 19620, Note_on_c, 2, 45, 90
4, 19649, Note_on_c, 2, 45, 0
4, 19650, Note_on_c, 2, 57, 90
4, 19679, Note_on_c, 2, 57, 0
4, 19680, Note_on_c, 2, 50, 90
4, 19709, Note_on_c, 2, 50, 0
4, 19710, Note_on_c, 2, 52, 90
4, 19739, Note_on_c, 2, 52, 0
4, 19740, Note_on_c, 2, 54, 90
4, 19769, Note_on_c, 2, 54, 0
4, 19770, Note_on_c, 2, 55, 90
4, 19799, Note_on_c, 2, 55, 0
4, 19800, Note_on_c, 2, 57, 90
4, 19859, Note_on_c, 2, 57, 0
4, 19860, Note_on_c, 2, 45, 90
4, 19919, Note_on_c, 2, 45, 0
4, 19920, Note_on_c, 2, 50, 90
4, 19979, Note_on_c, 2, 50, 0
4, 19980, Note_on_c, 2, 52, 90
4, 20039, Note_on_c, 2, 52, 0
4, 20040, Note_on_c, 2, 54, 90
4, 20099, Note_on_c, 2, 54, 0
4, 20100, Note_on_c, 2, 52, 90
4, 20159, Note_on_c, 2, 52, 0
4, 20160, Note_on_c, 2, 50, 90
4, 20219, Note_on_c, 2, 50, 0
4, 20220, Note_on_c, 2, 62, 90
4, 20249, Note_on_c, 2, 62, 0
4, 20250, Note_on_c, 2, 61, 90
4, 20279, Note_on_c, 2, 61, 0
4, 20280, Note_on_c, 2, 59, 90
4, 20309, Note_on_c, 2, 59, 0
4, 20310, Note_on_c, 2, 57, 90
4, 20339, Note_on_c, 2, 57, 0
4, 20340, Note_on_c, 2, 56, 90
4, 20369, Note_on_c, 2, 56, 0
4, 20370, Note_on_c, 2, 54, 90
4, 20399, Note_on_c, 2, 54, 0
4, 20400, Note_on_c, 2, 52, 90
4, 20459, Note_on_c, 2, 52, 0
4, 20460, Note_on_c, 2, 40, 90
4, 20519, Note_on_c, 2, 40, 0
4, 20520, Note_on_c, 2, 47, 90
4, 20579, Note_on_c, 2, 47, 0
4, 20580, Note_on_c, 2, 52, 90
4, 20609, Note_on_c, 2, 52, 0
4, 20610, Note_on_c, 2, 50, 90
4, 20639, Note_on_c, 2, 50, 0
4, 20640, Note_on_c, 2, 52, 90
4, 20699, Note_on_c, 2, 52, 0
4, 20700, Note_on_c, 2, 64, 90
4, 20729, Note_on_c, 2, 64, 0
4, 20730, Note_on_c, 2, 62, 90
4, 20759, Note_on_c, 2, 62, 0
4, 20760, Note_on_c, 2, 61, 90
4, 20789, Note_on_c, 2, 61, 0
4, 20790, Note_on_c, 2, 59, 90
4, 20819, Note_on_c, 2, 59, 0
4, 20820, Note_on_c, 2, 57, 90
4, 20849, Note_on_c, 2, 57, 0
4, 20850, Note_on_c, 2, 56, 90
4, 20879, Note_on_c, 2, 56, 0
4, 20880, Note_on_c, 2, 54, 90
4, 20939, Note_on_c, 2, 54, 0
4, 20940, Note_on_c, 2, 42, 90
4, 20999, Note_on_c, 2, 42, 0
4, 21000, Note_on_c, 2, 49, 90
4, 21059, Note_on_c, 2, 49, 0
4, 21060, Note_on_c, 2, 54, 90
4, 21089, Note_on_c, 2, 54, 0
4, 21090, Note_on_c, 2, 52, 90
4, 21119, Note_on_c, 2, 52, 0
4, 21120, Note_on_c, 2, 54, 90
4, 21149, Note_on_c, 2, 54, 0
4, 21150, Note_on_c, 2, 52, 90
4, 21179, Note_on_c, 2, 52, 0
4, 21180, Note_on_c, 2, 50, 90
4, 21209, Note_on_c, 2, 50, 0
4, 21210, Note_on_c, 2, 49, 90
4, 21239, Note_on_c, 2, 49, 0
4, 21240, Note_on_c, 2, 47, 90
4, 21269, Note_on_c, 2, 47, 0
4, 21270, Note_on_c, 2, 45, 90
4, 21299, Note_on_c, 2, 45, 0
4, 21300, Note_on_c, 2, 44, 90
4, 21329, Note_on_c, 2, 44, 0
4, 21330, Note_on_c, 2, 42, 90
4, 21359, Note_on_c, 2, 42, 0
4, 21360, Note_on_c, 2, 40, 90
4, 21419, Note_on_c, 2, 40, 0
4, 21420, Note_on_c, 2, 52, 90
4, 21449, Note_on_c, 2, 52, 0
4, 21450, Note_on_c, 2, 50, 90
4, 21479, Note_on_c, 2, 50, 0
4, 21480, Note_on_c, 2, 49, 90
4, 21539, Note_on_c, 2, 49, 0
4, 21540, Note_on_c, 2, 47, 90
4, 21599, Note_on_c, 2, 47, 0
4, 21600, Note_on_c, 2, 45, 90
4, 21659, Note_on_c, 2, 45, 0
4, 21660, Note_on_c, 2, 50, 90
4, 21719, Note_on_c, 2, 50, 0
4, 21720, Note_on_c, 2, 52, 90
4, 21779, Note_on_c, 2, 52, 0
4, 21780, Note_on_c, 2, 40, 90
4, 21839, Note_on_c, 2, 40, 0
4, 21840, Note_on_c, 2, 45, 90
4, 21899, Note_on_c, 2, 45, 0
4, 21900, Note_on_c, 2, 57, 90
4, 21989, Note_on_c, 2, 57, 0
4, 21990, Note_on_c, 2, 64, 90
4, 22019, Note_on_c, 2, 64, 0
4, 22020, Note_on_c, 2, 61, 90
4, 22049, Note_on_c, 2, 61, 0
4, 22050, Note_on_c, 2, 57, 90
4, 22079, Note_on_c, 2, 57, 0
4, 22080, Note_on_c, 2, 62, 90
4, 22139, Note_on_c, 2, 62, 0
4, 22140, Note_on_c, 2, 50, 90
4, 22229, Note_on_c, 2, 50, 0
4, 22230, Note_on_c, 2, 62, 90
4, 22259, Note_on_c, 2, 62, 0
4, 22260, Note_on_c, 2, 59, 90
4, 22289, Note_on_c, 2, 59, 0
4, 22290, Note_on_c, 2, 56, 90
4, 22319, Note_on_c, 2, 56, 0
4, 22320, Note_on_c, 2, 61, 90
4, 22379, Note_on_c, 2, 61, 0
4, 22380, Note_on_c, 2, 49, 90
4, 22469, Note_on_c, 2, 49, 0
4, 22470, Note_on_c, 2, 61, 90
4, 22499, Note_on_c, 2, 61, 0
4, 22500, Note_on_c, 2, 57, 90
4, 22529, Note_on_c, 2, 57, 0
4, 22530, Note_on_c, 2, 54, 90
4, 22559, Note_on_c, 2, 54, 0
4, 22560, Note_on_c, 2, 59, 90
4, 22619, Note_on_c, 2, 59, 0
4, 22620, Note_on_c, 2, 47, 90
4, 22709, Note_on_c, 2, 47, 0
4, 22710, Note_on_c, 2, 54, 90
4, 22739, Note_on_c, 2, 54, 0
4, 22740, Note_on_c, 2, 50, 90
4, 22769, Note_on_c, 2, 50, 0
4, 22770, Note_on_c, 2, 47, 90
4, 22799, Note_on_c, 2, 47, 0
4, 22800, Note_on_c, 2, 52, 90
4, 22859, Note_on_c, 2, 52, 0
4, 22860, Note_on_c, 2, 54, 90
4, 22919, Note_on_c, 2, 54, 0
4, 22920, Note_on_c, 2, 56, 90
4, 22979, Note_on_c, 2, 56, 0
4, 22980, Note_on_c, 2, 52, 90
4, 23039, Note_on_c, 2, 52, 0
4, 23040, Note_on_c, 2, 57, 90
4, 23129, Note_on_c, 2, 57, 0
4, 23130, Note_on_c, 2, 52, 90
4, 23144, Note_on_c, 2, 52, 0
4, 23145, Note_on_c, 2, 50, 90
4, 23159, Note_on_c, 2, 50, 0
4, 23160, Note_on_c, 2, 48, 90
4, 23174, Note_on_c, 2, 48, 0
4, 23175, Note_on_c, 2, 50, 90
4, 23189, Note_on_c, 2, 50, 0
4, 23190, Note_on_c, 2, 52, 90
4, 23219, Note_on_c, 2, 52, 0
4, 23220, Note_on_c, 2, 45, 90
4, 23279, Note_on_c, 2, 45, 0
4, 23280, Note_on_c, 2, 52, 90
4, 23369, Note_on_c, 2, 52, 0
4, 23370, Note_on_c, 2, 47, 90
4, 23384, Note_on_c, 2, 47, 0
4, 23385, Note_on_c, 2, 45, 90
4, 23399, Note_on_c, 2, 45, 0
4, 23400, Note_on_c, 2, 44, 90
4, 23414, Note_on_c, 2, 44, 0
4, 23415, Note_on_c, 2, 45, 90
4, 23429, Note_on_c, 2, 45, 0
4, 23430, Note_on_c, 2, 47, 90
4, 23459, Note_on_c, 2, 47, 0
4, 23460, Note_on_c, 2, 40, 90
4, 23519, Note_on_c, 2, 40, 0
4, 23520, Note_on_c, 2, 45, 90
4, 23579, Note_on_c, 2, 45, 0
4, 23580, Note_on_c, 2, 50, 90
4, 23639, Note_on_c, 2, 50, 0
4, 23640, Note_on_c, 2, 52, 90
4, 23699, Note_on_c, 2, 52, 0
4, 23700, Note_on_c, 2, 40, 90
4, 23759, Note_on_c, 2, 40, 0
4, 23760, Note_on_c, 2, 45, 90
4, 23999, Note_on_c, 2, 45, 0
4, 24000, Note_on_c, 2, 57, 90
4, 24089, Note_on_c, 2, 57, 0
4, 24090, Note_on_c, 2, 52, 90
4, 24104, Note_on_c, 2, 52, 0
4, 24105, Note_on_c, 2, 50, 90
4, 24119, Note_on_c, 2, 50, 0
4, 24120, Note_on_c, 2, 49, 90
4, 24134, Note_on_c, 2, 49, 0
4, 24135, Note_on_c, 2, 50, 90
4, 24149, Note_on_c, 2, 50, 0
4, 24150, Note_on_c, 2, 52, 90
4, 24179, Note_on_c, 2, 52, 0
4, 24180, Note_on_c, 2, 45, 90
4, 24239, Note_on_c, 2, 45, 0
4, 24240, Note_on_c, 2, 57, 90
4, 24359, Note_on_c, 2, 57, 0
4, 24390, Note_on_c, 2, 55, 90
4, 24419, Note_on_c, 2, 55, 0
4, 24420, Note_on_c, 2, 54, 90
4, 24449, Note_on_c, 2, 54, 0
4, 24450, Note_on_c, 2, 52, 90
4, 24479, Note_on_c, 2, 52, 0
4, 24480, Note_on_c, 2, 50, 90
4, 24539, Note_on_c, 2, 50, 0
4, 24540, Note_on_c, 2, 47, 90
4, 24599, Note_on_c, 2, 47, 0
4, 24600, Note_on_c, 2, 49, 90
4, 24659, Note_on_c, 2, 49, 0
4, 24660, Note_on_c, 2, 45, 90
4, 24719, Note_on_c, 2, 45, 0
4, 24720, Note_on_c, 2, 50, 90
4, 24779, Note_on_c, 2, 50, 0
4, 24780, Note_on_c, 2, 45, 90
4, 24839, Note_on_c, 2, 45, 0
4, 24840, Note_on_c, 2, 42, 90
4, 24899, Note_on_c, 2, 42, 0
4, 24900, Note_on_c, 2, 45, 90
4, 24959, Note_on_c, 2, 45, 0
4, 24960, Note_on_c, 2, 50, 90
4, 25049, Note_on_c, 2, 50, 0
4, 25050, Note_on_c, 2, 45, 90
4, 25064, Note_on_c, 2, 45, 0
4, 25065, Note_on_c, 2, 43, 90
4, 25079, Note_on_c, 2, 43, 0
4, 25080, Note_on_c, 2, 42, 90
4, 25094, Note_on_c, 2, 42, 0
4, 25095, Note_on_c, 2, 43, 90
4, 25109, Note_on_c, 2, 43, 0
4, 25110, Note_on_c, 2, 45, 90
4, 25139, Note_on_c, 2, 45, 0
4, 25140, Note_on_c, 2, 38, 90
4, 25199, Note_on_c, 2, 38, 0
4, 25200, Note_on_c, 2, 50, 90
4, 25319, Note_on_c, 2, 50, 0
4, 25350, Note_on_c, 2, 48, 90
4, 25379, Note_on_c, 2, 48, 0
4, 25380, Note_on_c, 2, 47, 90
4, 25409, Note_on_c, 2, 47, 0
4, 25410, Note_on_c, 2, 45, 90
4, 25439, Note_on_c, 2, 45, 0
4, 25440, Note_on_c, 2, 43, 90
4, 25499, Note_on_c, 2, 43, 0
4, 25500, Note_on_c, 2, 45, 90
4, 25559, Note_on_c, 2, 45, 0
4, 25560, Note_on_c, 2, 47, 90
4, 25619, Note_on_c, 2, 47, 0
4, 25620, Note_on_c, 2, 48, 90
4, 25679, Note_on_c, 2, 48, 0
4, 25680, Note_on_c, 2, 43, 90
4, 25709, Note_on_c, 2, 43, 0
4, 25710, Note_on_c, 2, 45, 90
4, 25739, Note_on_c, 2, 45, 0
4, 25740, Note_on_c, 2, 47, 90
4, 25859, Note_on_c, 2, 47, 0
4, 25860, Note_on_c, 2, 45, 90
4, 25889, Note_on_c, 2, 45, 0
4, 25890, Note_on_c, 2, 43, 90
4, 25919, Note_on_c, 2, 43, 0
4, 25920, Note_on_c, 2, 48, 90
4, 25949, Note_on_c, 2, 48, 0
4, 25950, Note_on_c, 2, 50, 90
4, 25979, Note_on_c, 2, 50, 0
4, 25980, Note_on_c, 2, 52, 90
4, 26099, Note_on_c, 2, 52, 0
4, 26100, Note_on_c, 2, 50, 90
4, 26129, Note_on_c, 2, 50, 0
4, 26130, Note_on_c, 2, 48, 90
4, 26159, Note_on_c, 2, 48, 0
4, 26160, Note_on_c, 2, 54, 90
4, 26189, Note_on_c, 2, 54, 0
4, 26190, Note_on_c, 2, 55, 90
4, 26219, Note_on_c, 2, 55, 0
4, 26220, Note_on_c, 2, 57, 90
4, 26339, Note_on_c, 2, 57, 0
4, 26340, Note_on_c, 2, 55, 90
4, 26369, Note_on_c, 2, 55, 0
4, 26370, Note_on_c, 2, 54, 90
4, 26399, Note_on_c, 2, 54, 0
4, 26400, Note_on_c, 2, 59, 90
4, 26429, Note_on_c, 2, 59, 0
4, 26430, Note_on_c, 2, 61, 90
4, 26459, Note_on_c, 2, 61, 0
4, 26460, Note_on_c, 2, 63, 90
4, 26579, Note_on_c, 2, 63, 0
4, 26580, Note_on_c, 2, 61, 90
4, 26609, Note_on_c, 2, 61, 0
4, 26610, Note_on_c, 2, 59, 90
4, 26639, Note_on_c, 2, 59, 0
4, 26640, Note_on_c, 2, 64, 90
4, 26669, Note_on_c, 2, 64, 0
4, 26670, Note_on_c, 2, 66, 90
4, 26699, Note_on_c, 2, 66, 0
4, 26700, Note_on_c, 2, 67, 90
4, 26789, Note_on_c, 2, 67, 0
4, 26790, Note_on_c, 2, 66, 90
4, 26819, Note_on_c, 2, 66, 0
4, 26820, Note_on_c, 2, 64, 90
4, 26849, Note_on_c, 2, 64, 0
4, 26850, Note_on_c, 2, 62, 90
4, 26879, Note_on_c, 2, 62, 0
4, 26880, Note_on_c, 2, 61, 90
4, 26909, Note_on_c, 2, 61, 0
4, 26910, Note_on_c, 2, 62, 90
4, 26939, Note_on_c, 2, 62, 0
4, 26940, Note_on_c, 2, 64, 90
4, 26969, Note_on_c, 2, 64, 0
4, 26970, Note_on_c, 2, 61, 90
4, 26999, Note_on_c, 2, 61, 0
4, 27000, Note_on_c, 2, 58, 90
4, 27029, Note_on_c, 2, 58, 0
4, 27030, Note_on_c, 2, 61, 90
4, 27059, Note_on_c, 2, 61, 0
4, 27060, Note_on_c, 2, 54, 90
4, 27089, Note_on_c, 2, 54, 0
4, 27090, Note_on_c, 2, 58, 90
4, 27119, Note_on_c, 2, 58, 0
4, 27120, Note_on_c, 2, 59, 90
4, 27149, Note_on_c, 2, 59, 0
4, 27150, Note_on_c, 2, 61, 90
4, 27179, Note_on_c, 2, 61, 0
4, 27180, Note_on_c, 2, 62, 90
4, 27209, Note_on_c, 2, 62, 0
4, 27210, Note_on_c, 2, 59, 90
4, 27239, Note_on_c, 2, 59, 0
4, 27240, Note_on_c, 2, 55, 90
4, 27269, Note_on_c, 2, 55, 0
4, 27270, Note_on_c, 2, 59, 90
4, 27299, Note_on_c, 2, 59, 0
4, 27300, Note_on_c, 2, 52, 90
4, 27329, Note_on_c, 2, 52, 0
4, 27330, Note_on_c, 2, 55, 90
4, 27359, Note_on_c, 2, 55, 0
4, 27360, Note_on_c, 2, 49, 90
4, 27419, Note_on_c, 2, 49, 0
4, 27420, Note_on_c, 2, 50, 90
4, 27449, Note_on_c, 2, 50, 0
4, 27450, Note_on_c, 2, 52, 90
4, 27479, Note_on_c, 2, 52, 0
4, 27480, Note_on_c, 2, 54, 90
4, 27539, Note_on_c, 2, 54, 0
4, 27540, Note_on_c, 2, 42, 90
4, 27599, Note_on_c, 2, 42, 0
4, 27600, Note_on_c, 2, 47, 90
4, 27659, Note_on_c, 2, 47, 0
4, 27660, Note_on_c, 2, 35, 90
4, 27719, Note_on_c, 2, 35, 0
4, 27750, Note_on_c, 2, 47, 90
4, 27779, Note_on_c, 2, 47, 0
4, 27780, Note_on_c, 2, 49, 90
4, 27809, Note_on_c, 2, 49, 0
4, 27810, Note_on_c, 2, 50, 90
4, 27839, Note_on_c, 2, 50, 0
4, 27840, Note_on_c, 2, 52, 90
4, 27899, Note_on_c, 2, 52, 0
4, 27900, Note_on_c, 2, 40, 90
4, 27959, Note_on_c, 2, 40, 0
4, 27990, Note_on_c, 2, 52, 90
4, 28019, Note_on_c, 2, 52, 0
4, 28020, Note_on_c, 2, 54, 90
4, 28049, Note_on_c, 2, 54, 0
4, 28050, Note_on_c, 2, 56, 90
4, 28079, Note_on_c, 2, 56, 0
4, 28080, Note_on_c, 2, 57, 90
4, 28139, Note_on_c, 2, 57, 0
4, 28140, Note_on_c, 2, 54, 90
4, 28199, Note_on_c, 2, 54, 0
4, 28200, Note_on_c, 2, 50, 90
4, 28259, Note_on_c, 2, 50, 0
4, 28260, Note_on_c, 2, 52, 90
4, 28319, Note_on_c, 2, 52, 0
4, 28320, Note_on_c, 2, 45, 90
4, 28379, Note_on_c, 2, 45, 0
4, 28380, Note_on_c, 2, 40, 90
4, 28439, Note_on_c, 2, 40, 0
4, 28440, Note_on_c, 2, 33, 90
4, 28469, Note_on_c, 2, 33, 0
4, 28470, Note_on_c, 2, 52, 90
4, 28499, Note_on_c, 2, 52, 0
4, 28500, Note_on_c, 2, 54, 90
4, 28529, Note_on_c, 2, 54, 0
4, 28530, Note_on_c, 2, 55, 90
4, 28559, Note_on_c, 2, 55, 0
4, 28560, Note_on_c, 2, 57, 90
4, 28619, Note_on_c, 2, 57, 0
4, 28620, Note_on_c, 2, 45, 90
4, 28679, Note_on_c, 2, 45, 0
4, 28710, Note_on_c, 2, 57, 90
4, 28739, Note_on_c, 2, 57, 0
4, 28740, Note_on_c, 2, 59, 90
4, 28769, Note_on_c, 2, 59, 0
4, 28770, Note_on_c, 2, 61, 90
4, 28799, Note_on_c, 2, 61, 0
4, 28800, Note_on_c, 2, 62, 90
4, 28859, Note_on_c, 2, 62, 0
4, 28860, Note_on_c, 2, 59, 90
4, 28919, Note_on_c, 2, 59, 0
4, 28920, Note_on_c, 2, 55, 90
4, 28979, Note_on_c, 2, 55, 0
4, 28980, Note_on_c, 2, 57, 90
4, 29039, Note_on_c, 2, 57, 0
4, 29040, Note_on_c, 2, 50, 90
4, 29159, Note_on_c, 2, 50, 0
4, 29190, Note_on_c, 2, 49, 90
4, 29219, Note_on_c, 2, 49, 0
4, 29220, Note_on_c, 2, 50, 90
4, 29249, Note_on_c, 2, 50, 0
4, 29250, Note_on_c, 2, 47, 90
4, 29279, Note_on_c, 2, 47, 0
4, 29280, Note_on_c, 2, 49, 90
4, 29339, Note_on_c, 2, 49, 0
4, 29340, Note_on_c, 2, 42, 90
4, 29399, Note_on_c, 2, 42, 0
4, 29400, Note_on_c, 2, 49, 90
4, 29459, Note_on_c, 2, 49, 0
4, 29460, Note_on_c, 2, 37, 90
4, 29519, Note_on_c, 2, 37, 0
4, 29520, Note_on_c, 2, 42, 90
4, 29549, Note_on_c, 2, 42, 0
4, 29550, Note_on_c, 2, 45, 90
4, 29579, Note_on_c, 2, 45, 0
4, 29580, Note_on_c, 2, 49, 90
4, 29609, Note_on_c, 2, 49, 0
4, 29610, Note_on_c, 2, 53, 90
4, 29639, Note_on_c, 2, 53, 0
4, 29640, Note_on_c, 2, 54, 90
4, 29669, Note_on_c, 2, 54, 0
4, 29670, Note_on_c, 2, 57, 90
4, 29699, Note_on_c, 2, 57, 0
4, 29700, Note_on_c, 2, 59, 90
4, 29729, Note_on_c, 2, 59, 0
4, 29730, Note_on_c, 2, 61, 90
4, 29759, Note_on_c, 2, 61, 0
4, 29760, Note_on_c, 2, 62, 90
4, 29789, Note_on_c, 2, 62, 0
4, 29790, Note_on_c, 2, 64, 90
4, 29819, Note_on_c, 2, 64, 0
4, 29820, Note_on_c, 2, 66, 90
4, 29849, Note_on_c, 2, 66, 0
4, 29850, Note_on_c, 2, 62, 90
4, 29879, Note_on_c, 2, 62, 0
4, 29880, Note_on_c, 2, 57, 90
4, 29909, Note_on_c, 2, 57, 0
4, 29910, Note_on_c, 2, 66, 90
4, 29939, Note_on_c, 2, 66, 0
4, 29940, Note_on_c, 2, 64, 90
4, 29969, Note_on_c, 2, 64, 0
4, 29970, Note_on_c, 2, 62, 90
4, 29999, Note_on_c, 2, 62, 0
4, 30000, Note_on_c, 2, 61, 90
4, 30029, Note_on_c, 2, 61, 0
4, 30030, Note_on_c, 2, 62, 90
4, 30059, Note_on_c, 2, 62, 0
4, 30060, Note_on_c, 2, 64, 90
4, 30089, Note_on_c, 2, 64, 0
4, 30090, Note_on_c, 2, 61, 90
4, 30119, Note_on_c, 2, 61, 0
4, 30120, Note_on_c, 2, 57, 90
4, 30149, Note_on_c, 2, 57, 0
4, 30150, Note_on_c, 2, 64, 90
4, 30179, Note_on_c, 2, 64, 0
4, 30180, Note_on_c, 2, 62, 90
4, 30209, Note_on_c, 2, 62, 0
4, 30210, Note_on_c, 2, 61, 90
4, 30239, Note_on_c, 2, 61, 0
4, 30240, Note_on_c, 2, 62, 90
4, 30269, Note_on_c, 2, 62, 0
4, 30270, Note_on_c, 2, 57, 90
4, 30299, Note_on_c, 2, 57, 0
4, 30300, Note_on_c, 2, 54, 90
4, 30329, Note_on_c, 2, 54, 0
4, 30330, Note_on_c, 2, 57, 90
4, 30359, Note_on_c, 2, 57, 0
4, 30360, Note_on_c, 2, 52, 90
4, 30389, Note_on_c, 2, 52, 0
4, 30390, Note_on_c, 2, 57, 90
4, 30419, Note_on_c, 2, 57, 0
4, 30420, Note_on_c, 2, 50, 90
4, 30449, Note_on_c, 2, 50, 0
4, 30450, Note_on_c, 2, 57, 90
4, 30479, Note_on_c, 2, 57, 0
4, 30480, Note_on_c, 2, 49, 90
4, 30509, Note_on_c, 2, 49, 0
4, 30510, Note_on_c, 2, 57, 90
4, 30539, Note_on_c, 2, 57, 0
4, 30540, Note_on_c, 2, 45, 90
4, 30569, Note_on_c, 2, 45, 0
4, 30570, Note_on_c, 2, 57, 90
4, 30599, Note_on_c, 2, 57, 0
4, 30600, Note_on_c, 2, 47, 90
4, 30629, Note_on_c, 2, 47, 0
4, 30630, Note_on_c, 2, 57, 90
4, 30659, Note_on_c, 2, 57, 0
4, 30660, Note_on_c, 2, 49, 90
4, 30689, Note_on_c, 2, 49, 0
4, 30690, Note_on_c, 2, 57, 90
4, 30719, Note_on_c, 2, 57, 0
4, 30720, Note_on_c, 2, 50, 90
4, 30779, Note_on_c, 2, 50, 0
4, 30780, Note_on_c, 2, 38, 90
4, 30809, Note_on_c, 2, 38, 0
4, 30810, Note_on_c, 2, 40, 90
4, 30839, Note_on_c, 2, 40, 0
4, 30840, Note_on_c, 2, 42, 90
4, 30899, Note_on_c, 2, 42, 0
4, 30900, Note_on_c, 2, 38, 90
4, 30959, Note_on_c, 2, 38, 0
4, 30960, Note_on_c, 2, 45, 90
4, 31019, Note_on_c, 2, 45, 0
4, 31020, Note_on_c, 2, 49, 90
4, 31049, Note_on_c, 2, 49, 0
4, 31050, Note_on_c, 2, 47, 90
4, 31079, Note_on_c, 2, 47, 0
4, 31080, Note_on_c, 2, 45, 90
4, 31139, Note_on_c, 2, 45, 0
4, 31140, Note_on_c, 2, 57, 90
4, 31199, Note_on_c, 2, 57, 0
4, 31200, Note_on_c, 2, 50, 90
4, 31319, Note_on_c, 2, 50, 0
4, 31350, Note_on_c, 2, 52, 90
4, 31379, Note_on_c, 2, 52, 0
4, 31380, Note_on_c, 2, 54, 90
4, 31409, Note_on_c, 2, 54, 0
4, 31410, Note_on_c, 2, 50, 90
4, 31439, Note_on_c, 2, 50, 0
4, 31440, Note_on_c, 2, 57, 90
4, 31499, Note_on_c, 2, 57, 0
4, 31500, Note_on_c, 2, 45, 90
4, 31559, Note_on_c, 2, 45, 0
4, 31590, Note_on_c, 2, 45, 90
4, 31619, Note_on_c, 2, 45, 0
4, 31620, Note_on_c, 2, 47, 90
4, 31649, Note_on_c, 2, 47, 0
4, 31650, Note_on_c, 2, 49, 90
4, 31679, Note_on_c, 2, 49, 0
4, 31680, Note_on_c, 2, 50, 90
4, 31709, Note_on_c, 2, 50, 0
4, 31710, Note_on_c, 2, 52, 90
4, 31739, Note_on_c, 2, 52, 0
4, 31740, Note_on_c, 2, 54, 90
4, 31859, Note_on_c, 2, 54, 0
4, 31860, Note_on_c, 2, 52, 90
4, 31889, Note_on_c, 2, 52, 0
4, 31890, Note_on_c, 2, 50, 90
4, 31919, Note_on_c, 2, 50, 0
4, 31920, Note_on_c, 2, 55, 90
4, 31949, Note_on_c, 2, 55, 0
4, 31950, Note_on_c, 2, 57, 90
4, 31979, Note_on_c, 2, 57, 0
4, 31980, Note_on_c, 2, 59, 90
4, 32069, Note_on_c, 2, 59, 0
4, 32070, Note_on_c, 2, 57, 90
4, 32099, Note_on_c, 2, 57, 0
4, 32100, Note_on_c, 2, 55, 90
4, 32129, Note_on_c, 2, 55, 0
4, 32130, Note_on_c, 2, 54, 90
4, 32159, Note_on_c, 2, 54, 0
4, 32160, Note_on_c, 2, 52, 90
4, 32189, Note_on_c, 2, 52, 0
4, 32190, Note_on_c, 2, 54, 90
4, 32219, Note_on_c, 2, 54, 0
4, 32220, Note_on_c, 2, 55, 90
4, 32339, Note_on_c, 2, 55, 0
4, 32340, Note_on_c, 2, 54, 90
4, 32369, Note_on_c, 2, 54, 0
4, 32370, Note_on_c, 2, 52, 90
4, 32399, Note_on_c, 2, 52, 0
4, 32400, Note_on_c, 2, 57, 90
4, 32429, Note_on_c, 2, 57, 0
4, 32430, Note_on_c, 2, 59, 90
4, 32459, Note_on_c, 2, 59, 0
4, 32460, Note_on_c, 2, 61, 90
4, 32549, Note_on_c, 2, 61, 0
4, 32550, Note_on_c, 2, 59, 90
4, 32579, Note_on_c, 2, 59, 0
4, 32580, Note_on_c, 2, 57, 90
4, 32609, Note_on_c, 2, 57, 0
4, 32610, Note_on_c, 2, 55, 90
4, 32639, Note_on_c, 2, 55, 0
4, 32640, Note_on_c, 2, 54, 90
4, 32669, Note_on_c, 2, 54, 0
4, 32670, Note_on_c, 2, 55, 90
4, 32699, Note_on_c, 2, 55, 0
4, 32700, Note_on_c, 2, 57, 90
4, 32729, Note_on_c, 2, 57, 0
4, 32730, Note_on_c, 2, 54, 90
4, 32759, Note_on_c, 2, 54, 0
4, 32760, Note_on_c, 2, 51, 90
4, 32789, Note_on_c, 2, 51, 0
4, 32790, Note_on_c, 2, 54, 90
4, 32819, Note_on_c, 2, 54, 0
4, 32820, Note_on_c, 2, 47, 90
4, 32849, Note_on_c, 2, 47, 0
4, 32850, Note_on_c, 2, 59, 90
4, 32879, Note_on_c, 2, 59, 0
4, 32880, Note_on_c, 2, 52, 90
4, 32909, Note_on_c, 2, 52, 0
4, 32910, Note_on_c, 2, 54, 90
4, 32939, Note_on_c, 2, 54, 0
4, 32940, Note_on_c, 2, 55, 90
4, 32969, Note_on_c, 2, 55, 0
4, 32970, Note_on_c, 2, 52, 90
4, 32999, Note_on_c, 2, 52, 0
4, 33000, Note_on_c, 2, 49, 90
4, 33029, Note_on_c, 2, 49, 0
4, 33030, Note_on_c, 2, 52, 90
4, 33059, Note_on_c, 2, 52, 0
4, 33060, Note_on_c, 2, 45, 90
4, 33089, Note_on_c, 2, 45, 0
4, 33090, Note_on_c, 2, 57, 90
4, 33119, Note_on_c, 2, 57, 0
4, 33120, Note_on_c, 2, 50, 90
4, 33149, Note_on_c, 2, 50, 0
4, 33150, Note_on_c, 2, 52, 90
4, 33179, Note_on_c, 2, 52, 0
4, 33180, Note_on_c, 2, 54, 90
4, 33209, Note_on_c, 2, 54, 0
4, 33210, Note_on_c, 2, 55, 90
4, 33239, Note_on_c, 2, 55, 0
4, 33240, Note_on_c, 2, 57, 90
4, 33299, Note_on_c, 2, 57, 0
4, 33300, Note_on_c, 2, 45, 90
4, 33359, Note_on_c, 2, 45, 0
4, 33390, Note_on_c, 2, 50, 90
4, 33419, Note_on_c, 2, 50, 0
4, 33420, Note_on_c, 2, 54, 90
4, 33449, Note_on_c, 2, 54, 0
4, 33450, Note_on_c, 2, 57, 90
4, 33479, Note_on_c, 2, 57, 0
4, 33480, Note_on_c, 2, 62, 90
4, 33509, Note_on_c, 2, 62, 0
4, 33510, Note_on_c, 2, 57, 90
4, 33539, Note_on_c, 2, 57, 0
4, 33540, Note_on_c, 2, 54, 90
4, 33569, Note_on_c, 2, 54, 0
4, 33570, Note_on_c, 2, 50, 90
4, 33599, Note_on_c, 2, 50, 0
4, 33600, Note_on_c, 2, 55, 90
4, 33659, Note_on_c, 2, 55, 0
4, 33660, Note_on_c, 2, 43, 90
4, 33749, Note_on_c, 2, 43, 0
4, 33750, Note_on_c, 2, 55, 90
4, 33779, Note_on_c, 2, 55, 0
4, 33780, Note_on_c, 2, 52, 90
4, 33809, Note_on_c, 2, 52, 0
4, 33810, Note_on_c, 2, 49, 90
4, 33839, Note_on_c, 2, 49, 0
4, 33840, Note_on_c, 2, 54, 90
4, 33899, Note_on_c, 2, 54, 0
4, 33900, Note_on_c, 2, 42, 90
4, 33989, Note_on_c, 2, 42, 0
4, 33990, Note_on_c, 2, 54, 90
4, 34019, Note_on_c, 2, 54, 0
4, 34020, Note_on_c, 2, 50, 90
4, 34049, Note_on_c, 2, 50, 0
4, 34050, Note_on_c, 2, 47, 90
4, 34079, Note_on_c, 2, 47, 0
4, 34080, Note_on_c, 2, 52, 90
4, 34139, Note_on_c, 2, 52, 0
4, 34140, Note_on_c, 2, 40, 90
4, 34229, Note_on_c, 2, 40, 0
4, 34230, Note_on_c, 2, 47, 90
4, 34259, Note_on_c, 2, 47, 0
4, 34260, Note_on_c, 2, 43, 90
4, 34289, Note_on_c, 2, 43, 0
4, 34290, Note_on_c, 2, 40, 90
4, 34319, Note_on_c, 2, 40, 0
4, 34320, Note_on_c, 2, 45, 90
4, 34379, Note_on_c, 2, 45, 0
4, 34380, Note_on_c, 2, 47, 90
4, 34439, Note_on_c, 2, 47, 0
4, 34440, Note_on_c, 2, 49, 90
4, 34499, Note_on_c, 2, 49, 0
4, 34500, Note_on_c, 2, 45, 90
4, 34559, Note_on_c, 2, 45, 0
4, 34560, Note_on_c, 2, 50, 90
4, 34649, Note_on_c, 2, 50, 0
4, 34650, Note_on_c, 2, 45, 90
4, 34664, Note_on_c, 2, 45, 0
4, 34665, Note_on_c, 2, 43, 90
4, 34679, Note_on_c, 2, 43, 0
4, 34680, Note_on_c, 2, 41, 90
4, 34694, Note_on_c, 2, 41, 0
4, 34695, Note_on_c, 2, 43, 90
4, 34709, Note_on_c, 2, 43, 0
4, 34710, Note_on_c, 2, 45, 90
4, 34739, Note_on_c, 2, 45, 0
4, 34740, Note_on_c, 2, 38, 90
4, 34799, Note_on_c, 2, 38, 0
4, 34800, Note_on_c, 2, 57, 90
4, 34889, Note_on_c, 2, 57, 0
4, 34890, Note_on_c, 2, 52, 90
4, 34904, Note_on_c, 2, 52, 0
4, 34905, Note_on_c, 2, 50, 90
4, 34919, Note_on_c, 2, 50, 0
4, 34920, Note_on_c, 2, 49, 90
4, 34934, Note_on_c, 2, 49, 0
4, 34935, Note_on_c, 2, 50, 90
4, 34949, Note_on_c, 2, 50, 0
4, 34950, Note_on_c, 2, 52, 90
4, 34979, Note_on_c, 2, 52, 0
4, 34980, Note_on_c, 2, 45, 90
4, 35039, Note_on_c, 2, 45, 0
4, 35040, Note_on_c, 2, 62, 90
4, 35099, Note_on_c, 2, 62, 0
4, 35100, Note_on_c, 2, 55, 90
4, 35159, Note_on_c, 2, 55, 0
4, 35160, Note_on_c, 2, 57, 90
4, 35219, Note_on_c, 2, 57, 0
4, 35220, Note_on_c, 2, 45, 90
4, 35279, Note_on_c, 2, 45, 0
4, 35280, Note_on_c, 2, 50, 90
4, 35309, Note_on_c, 2, 50, 0
4, 35310, Note_on_c, 2, 45, 90
4, 35339, Note_on_c, 2, 45, 0
4, 35340, Note_on_c, 2, 47, 90
4, 35369, Note_on_c, 2, 47, 0
4, 35370, Note_on_c, 2, 49, 90
4, 35399, Note_on_c, 2, 49, 0
4, 35400, Note_on_c, 2, 50, 90
4, 35429, Note_on_c, 2, 50, 0
4, 35430, Note_on_c, 2, 52, 90
4, 35459, Note_on_c, 2, 52, 0
4, 35460, Note_on_c, 2, 54, 90
4, 35489, Note_on_c, 2, 54, 0
4, 35490, Note_on_c, 2, 50, 90
4, 35519, Note_on_c, 2, 50, 0
4, 35520, Note_on_c, 2, 57, 90
4, 35609, Note_on_c, 2, 57, 0
4, 35610, Note_on_c, 2, 52, 90
4, 35624, Note_on_c, 2, 52, 0
4, 35625, Note_on_c, 2, 50, 90
4, 35639, Note_on_c, 2, 50, 0
4, 35640, Note_on_c, 2, 49, 90
4, 35654, Note_on_c, 2, 49, 0
4, 35655, Note_on_c, 2, 50, 90
4, 35669, Note_on_c, 2, 50, 0
4, 35670, Note_on_c, 2, 52, 90
4, 35699, Note_on_c, 2, 52, 0
4, 35700, Note_on_c, 2, 45, 90
4, 35759, Note_on_c, 2, 45, 0
4, 35760, Note_on_c, 2, 57, 90
4, 35879, Note_on_c, 2, 57, 0
4, 35910, Note_on_c, 2, 55, 90
4, 35939, Note_on_c, 2, 55, 0
4, 35940, Note_on_c, 2, 54, 90
4, 35969, Note_on_c, 2, 54, 0
4, 35970, Note_on_c, 2, 52, 90
4, 35999, Note_on_c, 2, 52, 0
4, 36000, Note_on_c, 2, 50, 90
4, 36059, Note_on_c, 2, 50, 0
4, 36060, Note_on_c, 2, 47, 90
4, 36119, Note_on_c, 2, 47, 0
4, 36120, Note_on_c, 2, 49, 90
4, 36179, Note_on_c, 2, 49, 0
4, 36180, Note_on_c, 2, 45, 90
4, 36239, Note_on_c, 2, 45, 0
4, 36240, Note_on_c, 2, 50, 90
4, 36299, Note_on_c, 2, 50, 0
4, 36300, Note_on_c, 2, 45, 90
4, 36359, Note_on_c, 2, 45, 0
4, 36360, Note_on_c, 2, 42, 90
4, 36419, Note_on_c, 2, 42, 0
4, 36420, Note_on_c, 2, 45, 90
4, 36479, Note_on_c, 2, 45, 0
4, 36480, Note_on_c, 2, 50, 90
4, 36569, Note_on_c, 2, 50, 0
4, 36570, Note_on_c, 2, 45, 90
4, 36584, Note_on_c, 2, 45, 0
4, 36585, Note_on_c, 2, 43, 90
4, 36599, Note_on_c, 2, 43, 0
4, 36600, Note_on_c, 2, 42, 90
4, 36614, Note_on_c, 2, 42, 0
4, 36615, Note_on_c, 2, 43, 90
4, 36629, Note_on_c, 2, 43, 0
4, 36630, Note_on_c, 2, 45, 90
4, 36659, Note_on_c, 2, 45, 0
4, 36660, Note_on_c, 2, 38, 90
4, 36719, Note_on_c, 2, 38, 0
4, 36720, Note_on_c, 2, 50, 90
4, 36839, Note_on_c, 2, 50, 0
4, 36870, Note_on_c, 2, 48, 90
4, 36899, Note_on_c, 2, 48, 0
4, 36900, Note_on_c, 2, 47, 90
4, 36929, Note_on_c, 2, 47, 0
4, 36930, Note_on_c, 2, 45, 90
4, 36959, Note_on_c, 2, 45, 0
4, 36960, Note_on_c, 2, 43, 90
4, 37019, Note_on_c, 2, 43, 0
4, 37020, Note_on_c, 2, 45, 90
4, 37079, Note_on_c, 2, 45, 0
4, 37080, Note_on_c, 2, 47, 90
4, 37139, Note_on_c, 2, 47, 0
4, 37140, Note_on_c, 2, 48, 90
4, 37199, Note_on_c, 2, 48, 0
4, 37200, Note_on_c, 2, 43, 90
4, 37229, Note_on_c, 2, 43, 0
4, 37230, Note_on_c, 2, 45, 90
4, 37259, Note_on_c, 2, 45, 0
4, 37260, Note_on_c, 2, 47, 90
4, 37379, Note_on_c, 2, 47, 0
4, 37380, Note_on_c, 2, 45, 90
4, 37409, Note_on_c, 2, 45, 0
4, 37410, Note_on_c, 2, 43, 90
4, 37439, Note_on_c, 2, 43, 0
4, 37440, Note_on_c, 2, 48, 90
4, 37469, Note_on_c, 2, 48, 0
4, 37470, Note_on_c, 2, 50, 90
4, 37499, Note_on_c, 2, 50, 0
4, 37500, Note_on_c, 2, 52, 90
4, 37619, Note_on_c, 2, 52, 0
4, 37620, Note_on_c, 2, 50, 90
4, 37649, Note_on_c, 2, 50, 0
4, 37650, Note_on_c, 2, 48, 90
4, 37679, Note_on_c, 2, 48, 0
4, 37680, Note_on_c, 2, 54, 90
4, 37709, Note_on_c, 2, 54, 0
4, 37710, Note_on_c, 2, 55, 90
4, 37739, Note_on_c, 2, 55, 0
4, 37740, Note_on_c, 2, 57, 90
4, 37859, Note_on_c, 2, 57, 0
4, 37860, Note_on_c, 2, 55, 90
4, 37889, Note_on_c, 2, 55, 0
4, 37890, Note_on_c, 2, 54, 90
4, 37919, Note_on_c, 2, 54, 0
4, 37920, Note_on_c, 2, 59, 90
4, 37949, Note_on_c, 2, 59, 0
4, 37950, Note_on_c, 2, 61, 90
4, 37979, Note_on_c, 2, 61, 0
4, 37980, Note_on_c, 2, 63, 90
4, 38099, Note_on_c, 2, 63, 0
4, 38100, Note_on_c, 2, 61, 90
4, 38129, Note_on_c, 2, 61, 0
4, 38130, Note_on_c, 2, 59, 90
4, 38159, Note_on_c, 2, 59, 0
4, 38160, Note_on_c, 2, 64, 90
4, 38189, Note_on_c, 2, 64, 0
4, 38190, Note_on_c, 2, 66, 90
4, 38219, Note_on_c, 2, 66, 0
4, 38220, Note_on_c, 2, 67, 90
4, 38309, Note_on_c, 2, 67, 0
4, 38310, Note_on_c, 2, 66, 90
4, 38339, Note_on_c, 2, 66, 0
4, 38340, Note_on_c, 2, 64, 90
4, 38369, Note_on_c, 2, 64, 0
4, 38370, Note_on_c, 2, 62, 90
4, 38399, Note_on_c, 2, 62, 0
4, 38400, Note_on_c, 2, 61, 90
4, 38429, Note_on_c, 2, 61, 0
4, 38430, Note_on_c, 2, 62, 90
4, 38459, Note_on_c, 2, 62, 0
4, 38460, Note_on_c, 2, 64, 90
4, 38489, Note_on_c, 2, 64, 0
4, 38490, Note_on_c, 2, 61, 90
4, 38519, Note_on_c, 2, 61, 0
4, 38520, Note_on_c, 2, 58, 90
4, 38549, Note_on_c, 2, 58, 0
4, 38550, Note_on_c, 2, 61, 90
4, 38579, Note_on_c, 2, 61, 0
4, 38580, Note_on_c, 2, 54, 90
4, 38609, Note_on_c, 2, 54, 0
4, 38610, Note_on_c, 2, 58, 90
4, 38639, Note_on_c, 2, 58, 0
4, 38640, Note_on_c, 2, 59, 90
4, 38669, Note_on_c, 2, 59, 0
4, 38670, Note_on_c, 2, 61, 90
4, 38699, Note_on_c, 2, 61, 0
4, 38700, Note_on_c, 2, 62, 90
4, 38729, Note_on_c, 2, 62, 0
4, 38730, Note_on_c, 2, 59, 90
4, 38759, Note_on_c, 2, 59, 0
4, 38760, Note_on_c, 2, 55, 90
4, 38789, Note_on_c, 2, 55, 0
4, 38790, Note_on_c, 2, 59, 90
4, 38819, Note_on_c, 2, 59, 0
4, 38820, Note_on_c, 2, 52, 90
4, 38849, Note_on_c, 2, 52, 0
4, 38850, Note_on_c, 2, 55, 90
4, 38879, Note_on_c, 2, 55, 0
4, 38880, Note_on_c, 2, 49, 90
4, 38939, Note_on_c, 2, 49, 0
4, 38940, Note_on_c, 2, 50, 90
4, 38969, Note_on_c, 2, 50, 0
4, 38970, Note_on_c, 2, 52, 90
4, 38999, Note_on_c, 2, 52, 0
4, 39000, Note_on_c, 2, 54, 90
4, 39059, Note_on_c, 2, 54, 0
4, 39060, Note_on_c, 2, 42, 90
4, 39119, Note_on_c, 2, 42, 0
4, 39120, Note_on_c, 2, 47, 90
4, 39179, Note_on_c, 2, 47, 0
4, 39180, Note_on_c, 2, 35, 90
4, 39239, Note_on_c, 2, 35, 0
4, 39270, Note_on_c, 2, 47, 90
4, 39299, Note_on_c, 2, 47, 0
4, 39300, Note_on_c, 2, 49, 90
4, 39329, Note_on_c, 2, 49, 0
4, 39330, Note_on_c, 2, 50, 90
4, 39359, Note_on_c, 2, 50, 0
4, 39360, Note_on_c, 2, 52, 90
4, 39419, Note_on_c, 2, 52, 0
4, 39420, Note_on_c, 2, 40, 90
4, 39479, Note_on_c, 2, 40, 0
4, 39510, Note_on_c, 2, 52, 90
4, 39539, Note_on_c, 2, 52, 0
4, 39540, Note_on_c, 2, 54, 90
4, 39569, Note_on_c, 2, 54, 0
4, 39570, Note_on_c, 2, 56, 90
4, 39599, Note_on_c, 2, 56, 0
4, 39600, Note_on_c, 2, 57, 90
4, 39659, Note_on_c, 2, 57, 0
4, 39660, Note_on_c, 2, 54, 90
4, 39719, Note_on_c, 2, 54, 0
4, 39720, Note_on_c, 2, 50, 90
4, 39779, Note_on_c, 2, 50, 0
4, 39780, Note_on_c, 2, 52, 90
4, 39839, Note_on_c, 2, 52, 0
4, 39840, Note_on_c, 2, 45, 90
4, 39899, Note_on_c, 2, 45, 0
4, 39900, Note_on_c, 2, 40, 90
4, 39959, Note_on_c, 2, 40, 0
4, 39960, Note_on_c, 2, 33, 90
4, 39989, Note_on_c, 2, 33, 0
4, 39990, Note_on_c, 2, 52, 90
4, 40019, Note_on_c, 2, 52, 0
4, 40020, Note_on_c, 2, 54, 90
4, 40049, Note_on_c, 2, 54, 0
4, 40050, Note_on_c, 2, 55, 90
4, 40079, Note_on_c, 2, 55, 0
4, 40080, Note_on_c, 2, 57, 90
4, 40139, Note_on_c, 2, 57, 0
4, 40140, Note_on_c, 2, 45, 90
4, 40199, Note_on_c, 2, 45, 0
4, 40230, Note_on_c, 2, 57, 90
4, 40259, Note_on_c, 2, 57, 0
4, 40260, Note_on_c, 2, 59, 90
4, 40289, Note_on_c, 2, 59, 0
4, 40290, Note_on_c, 2, 61, 90
4, 40319, Note_on_c, 2, 61, 0
4, 40320, Note_on_c, 2, 62, 90
4, 40379, Note_on_c, 2, 62, 0
4, 40380, Note_on_c, 2, 59, 90
4, 40439, Note_on_c, 2, 59, 0
4, 40440, Note_on_c, 2, 55, 90
4, 40499, Note_on_c, 2, 55, 0
4, 40500, Note_on_c, 2, 57, 90
4, 40559, Note_on_c, 2, 57, 0
4, 40560, Note_on_c, 2, 50, 90
4, 40679, Note_on_c, 2, 50, 0
4, 40710, Note_on_c, 2, 49, 90
4, 40739, Note_on_c, 2, 49, 0
4, 40740, Note_on_c, 2, 50, 90
4, 40769, Note_on_c, 2, 50, 0
4, 40770, Note_on_c, 2, 47, 90
4, 40799, Note_on_c, 2, 47, 0
4, 40800, Note_on_c, 2, 49, 90
4, 40859, Note_on_c, 2, 49, 0
4, 40860, Note_on_c, 2, 42, 90
4, 40919, Note_on_c, 2, 42, 0
4, 40920, Note_on_c, 2, 49, 90
4, 40979, Note_on_c, 2, 49, 0
4, 40980, Note_on_c, 2, 37, 90
4, 41039, Note_on_c, 2, 37, 0
4, 41040, Note_on_c, 2, 42, 90
4, 41069, Note_on_c, 2, 42, 0
4, 41070, Note_on_c, 2, 45, 90
4, 41099, Note_on_c, 2, 45, 0
4, 41100, Note_on_c, 2, 49, 90
4, 41129, Note_on_c, 2, 49, 0
4, 41130, Note_on_c, 2, 53, 90
4, 41159, Note_on_c, 2, 53, 0
4, 41160, Note_on_c, 2, 54, 90
4, 41189, Note_on_c, 2, 54, 0
4, 41190, Note_on_c, 2, 57, 90
4, 41219, Note_on_c, 2, 57, 0
4, 41220, Note_on_c, 2, 59, 90
4, 41249, Note_on_c, 2, 59, 0
4, 41250, Note_on_c, 2, 61, 90
4, 41279, Note_on_c, 2, 61, 0
4, 41280, Note_on_c, 2, 62, 90
4, 41309, Note_on_c, 2, 62, 0
4, 41310, Note_on_c, 2, 64, 90
4, 41339, Note_on_c, 2, 64, 0
4, 41340, Note_on_c, 2, 66, 90
4, 41369, Note_on_c, 2, 66, 0
4, 41370, Note_on_c, 2, 62, 90
4, 41399, Note_on_c, 2, 62, 0
4, 41400, Note_on_c, 2, 57, 90
4, 41429, Note_on_c, 2, 57, 0
4, 41430, Note_on_c, 2, 66, 90
4, 41459, Note_on_c, 2, 66, 0
4, 41460, Note_on_c, 2, 64, 90
4, 41489, Note_on_c, 2, 64, 0
4, 41490, Note_on_c, 2, 62, 90
4, 41519, Note_on_c, 2, 62, 0
4, 41520, Note_on_c, 2, 61, 90
4, 41549, Note_on_c, 2, 61, 0
4, 41550, Note_on_c, 2, 62, 90
4, 41579, Note_on_c, 2, 62, 0
4, 41580, Note_on_c, 2, 64, 90
4, 41609, Note_on_c, 2, 64, 0
4, 41610, Note_on_c, 2, 61, 90
4, 41639, Note_on_c, 2, 61, 0
4, 41640, Note_on_c, 2, 57, 90
4, 41669, Note_on_c, 2, 57, 0
4, 41670, Note_on_c, 2, 64, 90
4, 41699, Note_on_c, 2, 64, 0
4, 41700, Note_on_c, 2, 62, 90
4, 41729, Note_on_c, 2, 62, 0
4, 41730, Note_on_c, 2, 61, 90
4, 41759, Note_on_c, 2, 61, 0
4, 41760, Note_on_c, 2, 62, 90
4, 41789, Note_on_c, 2, 62, 0
4, 41790, Note_on_c, 2, 57, 90
4, 41819, Note_on_c, 2, 57, 0
4, 41820, Note_on_c, 2, 54, 90
4, 41849, Note_on_c, 2, 54, 0
4, 41850, Note_on_c, 2, 57, 90
4, 41879, Note_on_c, 2, 57, 0
4, 41880, Note_on_c, 2, 52, 90
4, 41909, Note_on_c, 2, 52, 0
4, 41910, Note_on_c, 2, 57, 90
4, 41939, Note_on_c, 2, 57, 0
4, 41940, Note_on_c, 2, 50, 90
4, 41969, Note_on_c, 2, 50, 0
4, 41970, Note_on_c, 2, 57, 90
4, 41999, Note_on_c, 2, 57, 0
4, 42000, Note_on_c, 2, 49, 90
4, 42029, Note_on_c, 2, 49, 0
4, 42030, Note_on_c, 2, 57, 90
4, 42059, Note_on_c, 2, 57, 0
4, 42060, Note_on_c, 2, 45, 90
4, 42089, Note_on_c, 2, 45, 0
4, 42090, Note_on_c, 2, 57, 90
4, 42119, Note_on_c, 2, 57, 0
4, 42120, Note_on_c, 2, 47, 90
4, 42149, Note_on_c, 2, 47, 0
4, 42150, Note_on_c, 2, 57, 90
4, 42179, Note_on_c, 2, 57, 0
4, 42180, Note_on_c, 2, 49, 90
4, 42209, Note_on_c, 2, 49, 0
4, 42210, Note_on_c, 2, 57, 90
4, 42239, Note_on_c, 2, 57, 0
4, 42240, Note_on_c, 2, 50, 90
4, 42299, Note_on_c, 2, 50, 0
4, 42300, Note_on_c, 2, 38, 90
4, 42329, Note_on_c, 2, 38, 0
4, 42330, Note_on_c, 2, 40, 90
4, 42359, Note_on_c, 2, 40, 0
4, 42360, Note_on_c, 2, 42, 90
4, 42419, Note_on_c, 2, 42, 0
4, 42420, Note_on_c, 2, 38, 90
4, 42479, Note_on_c, 2, 38, 0
4, 42480, Note_on_c, 2, 45, 90
4, 42539, Note_on_c, 2, 45, 0
4, 42540, Note_on_c, 2, 49, 90
4, 42569, Note_on_c, 2, 49, 0
4, 42570, Note_on_c, 2, 47, 90
4, 42599, Note_on_c, 2, 47, 0
4, 42600, Note_on_c, 2, 45, 90
4, 42659, Note_on_c, 2, 45, 0
4, 42660, Note_on_c, 2, 57, 90
4, 42719, Note_on_c, 2, 57, 0
4, 42720, Note_on_c, 2, 50, 90
4, 42839, Note_on_c, 2, 50, 0
4, 42870, Note_on_c, 2, 52, 90
4, 42899, Note_on_c, 2, 52, 0
4, 42900, Note_on_c, 2, 54, 90
4, 42929, Note_on_c, 2, 54, 0
4, 42930, Note_on_c, 2, 50, 90
4, 42959, Note_on_c, 2, 50, 0
4, 42960, Note_on_c, 2, 57, 90
4, 43019, Note_on_c, 2, 57, 0
4, 43020, Note_on_c, 2, 45, 90
4, 43079, Note_on_c, 2, 45, 0
4, 43110, Note_on_c, 2, 45, 90
4, 43139, Note_on_c, 2, 45, 0
4, 43140, Note_on_c, 2, 47, 90
4, 43169, Note_on_c, 2, 47, 0
4, 43170, Note_on_c, 2, 49, 90
4, 43199, Note_on_c, 2, 49, 0
4, 43200, Note_on_c, 2, 50, 90
4, 43229, Note_on_c, 2, 50, 0
4, 43230, Note_on_c, 2, 52, 90
4, 43259, Note_on_c, 2, 52, 0
4, 43260, Note_on_c, 2, 54, 90
4, 43379, Note_on_c, 2, 54, 0
4, 43380, Note_on_c, 2, 52, 90
4, 43409, Note_on_c, 2, 52, 0
4, 43410, Note_on_c, 2, 50, 90
4, 43439, Note_on_c, 2, 50, 0
4, 43440, Note_on_c, 2, 55, 90
4, 43469, Note_on_c, 2, 55, 0
4, 43470, Note_on_c, 2, 57, 90
4, 43499, Note_on_c, 2, 57, 0
4, 43500, Note_on_c, 2, 59, 90
4, 43589, Note_on_c, 2, 59, 0
4, 43590, Note_on_c, 2, 57, 90
4, 43619, Note_on_c, 2, 57, 0
4, 43620, Note_on_c, 2, 55, 90
4, 43649, Note_on_c, 2, 55, 0
4, 43650, Note_on_c, 2, 54, 90
4, 43679, Note_on_c, 2, 54, 0
4, 43680, Note_on_c, 2, 52, 90
4, 43709, Note_on_c, 2, 52, 0
4, 43710, Note_on_c, 2, 54, 90
4, 43739, Note_on_c, 2, 54, 0
4, 43740, Note_on_c, 2, 55, 90
4, 43859, Note_on_c, 2, 55, 0
4, 43860, Note_on_c, 2, 54, 90
4, 43889, Note_on_c, 2, 54, 0
4, 43890, Note_on_c, 2, 52, 90
4, 43919, Note_on_c, 2, 52, 0
4, 43920, Note_on_c, 2, 57, 90
4, 43949, Note_on_c, 2, 57, 0
4, 43950, Note_on_c, 2, 59, 90
4, 43979, Note_on_c, 2, 59, 0
4, 43980, Note_on_c, 2, 61, 90
4, 44069, Note_on_c, 2, 61, 0
4, 44070, Note_on_c, 2, 59, 90
4, 44099, Note_on_c, 2, 59, 0
4, 44100, Note_on_c, 2, 57, 90
4, 44129, Note_on_c, 2, 57, 0
4, 44130, Note_on_c, 2, 55, 90
4, 44159, Note_on_c, 2, 55, 0
4, 44160, Note_on_c, 2, 54, 90
4, 44189, Note_on_c, 2, 54, 0
4, 44190, Note_on_c, 2, 55, 90
4, 44219, Note_on_c, 2, 55, 0
4, 44220, Note_on_c, 2, 57, 90
4, 44249, Note_on_c, 2, 57, 0
4, 44250, Note_on_c, 2, 54, 90
4, 44279, Note_on_c, 2, 54, 0
4, 44280, Note_on_c, 2, 51, 90
4, 44309, Note_on_c, 2, 51, 0
4, 44310, Note_on_c, 2, 54, 90
4, 44339, Note_on_c, 2, 54, 0
4, 44340, Note_on_c, 2, 47, 90
4, 44369, Note_on_c, 2, 47, 0
4, 44370, Note_on_c, 2, 59, 90
4, 44399, Note_on_c, 2, 59, 0
4, 44400, Note_on_c, 2, 52, 90
4, 44429, Note_on_c, 2, 52, 0
4, 44430, Note_on_c, 2, 54, 90
4, 44459, Note_on_c, 2, 54, 0
4, 44460, Note_on_c, 2, 55, 90
4, 44489, Note_on_c, 2, 55, 0
4, 44490, Note_on_c, 2, 52, 90
4, 44519, Note_on_c, 2, 52, 0
4, 44520, Note_on_c, 2, 49, 90
4, 44549, Note_on_c, 2, 49, 0
4, 44550, Note_on_c, 2, 52, 90
4, 44579, Note_on_c, 2, 52, 0
4, 44580, Note_on_c, 2, 45, 90
4, 44609, Note_on_c, 2, 45, 0
4, 44610, Note_on_c, 2, 57, 90
4, 44639, Note_on_c, 2, 57, 0
4, 44640, Note_on_c, 2, 50, 90
4, 44669, Note_on_c, 2, 50, 0
4, 44670, Note_on_c, 2, 52, 90
4, 44699, Note_on_c, 2, 52, 0
4, 44700, Note_on_c, 2, 54, 90
4, 44729, Note_on_c, 2, 54, 0
4, 44730, Note_on_c, 2, 55, 90
4, 44759, Note_on_c, 2, 55, 0
4, 44760, Note_on_c, 2, 57, 90
4, 44819, Note_on_c, 2, 57, 0
4, 44820, Note_on_c, 2, 45, 90
4, 44879, Note_on_c, 2, 45, 0
4, 44910, Note_on_c, 2, 50, 90
4, 44939, Note_on_c, 2, 50, 0
4, 44940, Note_on_c, 2, 54, 90
4, 44969, Note_on_c, 2, 54, 0
4, 44970, Note_on_c, 2, 57, 90
4, 44999, Note_on_c, 2, 57, 0
4, 45000, Note_on_c, 2, 62, 90
4, 45029, Note_on_c, 2, 62, 0
4, 45030, Note_on_c, 2, 57, 90
4, 45059, Note_on_c, 2, 57, 0
4, 45060, Note_on_c, 2, 54, 90
4, 45089, Note_on_c, 2, 54, 0
4, 45090, Note_on_c, 2, 50, 90
4, 45119, Note_on_c, 2, 50, 0
4, 45120, Note_on_c, 2, 55, 90
4, 45179, Note_on_c, 2, 55, 0
4, 45180, Note_on_c, 2, 43, 90
4, 45269, Note_on_c, 2, 43, 0
4, 45270, Note_on_c, 2, 55, 90
4, 45299, Note_on_c, 2, 55, 0
4, 45300, Note_on_c, 2, 52, 90
4, 45329, Note_on_c, 2, 52, 0
4, 45330, Note_on_c, 2, 49, 90
4, 45359, Note_on_c, 2, 49, 0
4, 45360, Note_on_c, 2, 54, 90
4, 45419, Note_on_c, 2, 54, 0
4, 45420, Note_on_c, 2, 42, 90
4, 45509, Note_on_c, 2, 42, 0
4, 45510, Note_on_c, 2, 54, 90
4, 45539, Note_on_c, 2, 54, 0
4, 45540, Note_on_c, 2, 50, 90
4, 45569, Note_on_c, 2, 50, 0
4, 45570, Note_on_c, 2, 47, 90
4, 45599, Note_on_c, 2, 47, 0
4, 45600, Note_on_c, 2, 52, 90
4, 45659, Note_on_c, 2, 52, 0
4, 45660, Note_on_c, 2, 40, 90
4, 45749, Note_on_c, 2, 40, 0
4, 45750, Note_on_c, 2, 47, 90
4, 45779, Note_on_c, 2, 47, 0
4, 45780, Note_on_c, 2, 43, 90
4, 45809, Note_on_c, 2, 43, 0
4, 45810, Note_on_c, 2, 40, 90
4, 45839, Note_on_c, 2, 40, 0
4, 45840, Note_on_c, 2, 45, 90
4, 45899, Note_on_c, 2, 45, 0
4, 45900, Note_on_c, 2, 47, 90
4, 45959, Note_on_c, 2, 47, 0
4, 45960, Note_on_c, 2, 49, 90
4, 46019, Note_on_c, 2, 49, 0
4, 46020, Note_on_c, 2, 45, 90
4, 46079, Note_on_c, 2, 45, 0
4, 46080, Note_on_c, 2, 50, 90
4, 46169, Note_on_c, 2, 50, 0
4, 46170, Note_on_c, 2, 45, 90
4, 46184, Note_on_c, 2, 45, 0
4, 46185, Note_on_c, 2, 43, 90
4, 46199, Note_on_c, 2, 43, 0
4, 46200, Note_on_c, 2, 41, 90
4, 46214, Note_on_c, 2, 41, 0
4, 46215, Note_on_c, 2, 43, 90
4, 46229, Note_on_c, 2, 43, 0
4, 46230, Note_on_c, 2, 45, 90
4, 46259, Note_on_c, 2, 45, 0
4, 46260, Note_on_c, 2, 38, 90
4, 46319, Note_on_c, 2, 38, 0
4, 46320, Note_on_c, 2, 57, 90
4, 46409, Note_on_c, 2, 57, 0
4, 46410, Note_on_c, 2, 52, 90
4, 46424, Note_on_c, 2, 52, 0
4, 46425, Note_on_c, 2, 50, 90
4, 46439, Note_on_c, 2, 50, 0
4, 46440, Note_on_c, 2, 49, 90
4, 46454, Note_on_c, 2, 49, 0
4, 46455, Note_on_c, 2, 50, 90
4, 46469, Note_on_c, 2, 50, 0
4, 46470, Note_on_c, 2, 52, 90
4, 46499, Note_on_c, 2, 52, 0
4, 46500, Note_on_c, 2, 45, 90
4, 46559, Note_on_c, 2, 45, 0
4, 46560, Note_on_c, 2, 62, 90
4, 46619, Note_on_c, 2, 62, 0
4, 46620, Note_on_c, 2, 55, 90
4, 46679, Note_on_c, 2, 55, 0
4, 46680, Note_on_c, 2, 57, 90
4, 46739, Note_on_c, 2, 57, 0
4, 46740, Note_on_c, 2, 45, 90
4, 46799, Note_on_c, 2, 45, 0
4, 46800, Note_on_c, 2, 50, 90
4, 47039, Note_on_c, 2, 50, 0
4, 47460, Note_on_c, 2, 47, 90
4, 47519, Note_on_c, 2, 47, 0
4, 47520, Note_on_c, 2, 59, 90
4, 47579, Note_on_c, 2, 59, 0
4, 47580, Note_on_c, 2, 57, 90
4, 47639, Note_on_c, 2, 57, 0
4, 47640, Note_on_c, 2, 55, 90
4, 47699, Note_on_c, 2, 55, 0
4, 47700, Note_on_c, 2, 54, 90
4, 47759, Note_on_c, 2, 54, 0
4, 47760, Note_on_c, 2, 52, 90
4, 47819, Note_on_c, 2, 52, 0
4, 47820, Note_on_c, 2, 58, 90
4, 47999, Note_on_c, 2, 58, 0
4, 48000, Note_on_c, 2, 59, 90
4, 48059, Note_on_c, 2, 59, 0
4, 48060, Note_on_c, 2, 61, 90
4, 48119, Note_on_c, 2, 61, 0
4, 48120, Note_on_c, 2, 62, 90
4, 48179, Note_on_c, 2, 62, 0
4, 48180, Note_on_c, 2, 53, 90
4, 48239, Note_on_c, 2, 53, 0
4, 48240, Note_on_c, 2, 49, 90
4, 48299, Note_on_c, 2, 49, 0
4, 48300, Note_on_c, 2, 54, 90
4, 48359, Note_on_c, 2, 54, 0
4, 48360, Note_on_c, 2, 47, 90
4, 48419, Note_on_c, 2, 47, 0
4, 48420, Note_on_c, 2, 49, 90
4, 48479, Note_on_c, 2, 49, 0
4, 48480, Note_on_c, 2, 50, 90
4, 48539, Note_on_c, 2, 50, 0
4, 48540, Note_on_c, 2, 44, 90
4, 48599, Note_on_c, 2, 44, 0
4, 48600, Note_on_c, 2, 45, 90
4, 48659, Note_on_c, 2, 45, 0
4, 48660, Note_on_c, 2, 47, 90
4, 48719, Note_on_c, 2, 47, 0
4, 48720, Note_on_c, 2, 49, 90
4, 48809, Note_on_c, 2, 49, 0
4, 48810, Note_on_c, 2, 51, 90
4, 48839, Note_on_c, 2, 51, 0
4, 48840, Note_on_c, 2, 53, 90
4, 48899, Note_on_c, 2, 53, 0
4, 48900, Note_on_c, 2, 54, 90
4, 49019, Note_on_c, 2, 54, 0
4, 49020, Note_on_c, 2, 49, 90
4, 49079, Note_on_c, 2, 49, 0
4, 49080, Note_on_c, 2, 50, 90
4, 49139, Note_on_c, 2, 50, 0
4, 49140, Note_on_c, 2, 49, 90
4, 49199, Note_on_c, 2, 49, 0
4, 49200, Note_on_c, 2, 47, 90
4, 49259, Note_on_c, 2, 47, 0
4, 49260, Note_on_c, 2, 49, 90
4, 49379, Note_on_c, 2, 49, 0
4, 49380, Note_on_c, 2, 37, 90
4, 49439, Note_on_c, 2, 37, 0
4, 49440, Note_on_c, 2, 42, 90
4, 49499, Note_on_c, 2, 42, 0
4, 49500, Note_on_c, 2, 54, 90
4, 49559, Note_on_c, 2, 54, 0
4, 49560, Note_on_c, 2, 51, 90
4, 49619, Note_on_c, 2, 51, 0
4, 49620, Note_on_c, 2, 48, 90
4, 49679, Note_on_c, 2, 48, 0
4, 49680, Note_on_c, 2, 44, 90
4, 49739, Note_on_c, 2, 44, 0
4, 49740, Note_on_c, 2, 49, 90
4, 49799, Note_on_c, 2, 49, 0
4, 49800, Note_on_c, 2, 54, 90
4, 49859, Note_on_c, 2, 54, 0
4, 49860, Note_on_c, 2, 56, 90
4, 49919, Note_on_c, 2, 56, 0
4, 49920, Note_on_c, 2, 57, 90
4, 49979, Note_on_c, 2, 57, 0
4, 49980, Note_on_c, 2, 51, 90
4, 50039, Note_on_c, 2, 51, 0
4, 50040, Note_on_c, 2, 52, 90
4, 50099, Note_on_c, 2, 52, 0
4, 50100, Note_on_c, 2, 54, 90
4, 50159, Note_on_c, 2, 54, 0
4, 50160, Note_on_c, 2, 56, 90
4, 50219, Note_on_c, 2, 56, 0
4, 50220, Note_on_c, 2, 60, 90
4, 50279, Note_on_c, 2, 60, 0
4, 50280, Note_on_c, 2, 56, 90
4, 50339, Note_on_c, 2, 56, 0
4, 50340, Note_on_c, 2, 49, 90
4, 50429, Note_on_c, 2, 49, 0
4, 50430, Note_on_c, 2, 51, 90
4, 50459, Note_on_c, 2, 51, 0
4, 50460, Note_on_c, 2, 53, 90
4, 50519, Note_on_c, 2, 53, 0
4, 50520, Note_on_c, 2, 54, 90
4, 50579, Note_on_c, 2, 54, 0
4, 50580, Note_on_c, 2, 56, 90
4, 50639, Note_on_c, 2, 56, 0
4, 50640, Note_on_c, 2, 57, 90
4, 50699, Note_on_c, 2, 57, 0
4, 50700, Note_on_c, 2, 52, 90
4, 50789, Note_on_c, 2, 52, 0
4, 50790, Note_on_c, 2, 54, 90
4, 50819, Note_on_c, 2, 54, 0
4, 50820, Note_on_c, 2, 56, 90
4, 50879, Note_on_c, 2, 56, 0
4, 50880, Note_on_c, 2, 49, 90
4, 50939, Note_on_c, 2, 49, 0
4, 50940, Note_on_c, 2, 52, 90
4, 50999, Note_on_c, 2, 52, 0
4, 51000, Note_on_c, 2, 49, 90
4, 51059, Note_on_c, 2, 49, 0
4, 51060, Note_on_c, 2, 45, 90
4, 51119, Note_on_c, 2, 45, 0
4, 51120, Note_on_c, 2, 42, 90
4, 51179, Note_on_c, 2, 42, 0
4, 51180, Note_on_c, 2, 45, 90
4, 51239, Note_on_c, 2, 45, 0
4, 51240, Note_on_c, 2, 47, 90
4, 51299, Note_on_c, 2, 47, 0
4, 51300, Note_on_c, 2, 45, 90
4, 51359, Note_on_c, 2, 45, 0
4, 51360, Note_on_c, 2, 44, 90
4, 51419, Note_on_c, 2, 44, 0
4, 51420, Note_on_c, 2, 49, 90
4, 51479, Note_on_c, 2, 49, 0
4, 51480, Note_on_c, 2, 54, 90
4, 51539, Note_on_c, 2, 54, 0
4, 51540, Note_on_c, 2, 50, 90
4, 51599, Note_on_c, 2, 50, 0
4, 51600, Note_on_c, 2, 52, 90
4, 51659, Note_on_c, 2, 52, 0
4, 51660, Note_on_c, 2, 50, 90
4, 51689, Note_on_c, 2, 50, 0
4, 51690, Note_on_c, 2, 49, 90
4, 51719, Note_on_c, 2, 49, 0
4, 51720, Note_on_c, 2, 50, 90
4, 51749, Note_on_c, 2, 50, 0
4, 51750, Note_on_c, 2, 47, 90
4, 51779, Note_on_c, 2, 47, 0
4, 51780, Note_on_c, 2, 49, 90
4, 51839, Note_on_c, 2, 49, 0
4, 51840, Note_on_c, 2, 50, 90
4, 51899, Note_on_c, 2, 50, 0
4, 51900, Note_on_c, 2, 52, 90
4, 51959, Note_on_c, 2, 52, 0
4, 51960, Note_on_c, 2, 54, 90
4, 52019, Note_on_c, 2, 54, 0
4, 52020, Note_on_c, 2, 52, 90
4, 52079, Note_on_c, 2, 52, 0
4, 52080, Note_on_c, 2, 50, 90
4, 52139, Note_on_c, 2, 50, 0
4, 52140, Note_on_c, 2, 52, 90
4, 52259, Note_on_c, 2, 52, 0
4, 52260, Note_on_c, 2, 40, 90
4, 52319, Note_on_c, 2, 40, 0
4, 52320, Note_on_c, 2, 45, 90
4, 52379, Note_on_c, 2, 45, 0
4, 52380, Note_on_c, 2, 57, 90
4, 52439, Note_on_c, 2, 57, 0
4, 52440, Note_on_c, 2, 56, 90
4, 52499, Note_on_c, 2, 56, 0
4, 52500, Note_on_c, 2, 54, 90
4, 52559, Note_on_c, 2, 54, 0
4, 52560, Note_on_c, 2, 52, 90
4, 52619, Note_on_c, 2, 52, 0
4, 52620, Note_on_c, 2, 50, 90
4, 52679, Note_on_c, 2, 50, 0
4, 52680, Note_on_c, 2, 49, 90
4, 52739, Note_on_c, 2, 49, 0
4, 52740, Note_on_c, 2, 47, 90
4, 52799, Note_on_c, 2, 47, 0
4, 52800, Note_on_c, 2, 45, 90
4, 52859, Note_on_c, 2, 45, 0
4, 52860, Note_on_c, 2, 44, 90
4, 52919, Note_on_c, 2, 44, 0
4, 52920, Note_on_c, 2, 42, 90
4, 52979, Note_on_c, 2, 42, 0
4, 52980, Note_on_c, 2, 44, 90
4, 53039, Note_on_c, 2, 44, 0
4, 53040, Note_on_c, 2, 45, 90
4, 53099, Note_on_c, 2, 45, 0
4, 53100, Note_on_c, 2, 47, 90
4, 53159, Note_on_c, 2, 47, 0
4, 53160, Note_on_c, 2, 49, 90
4, 53219, Note_on_c, 2, 49, 0
4, 53220, Note_on_c, 2, 39, 90
4, 53279, Note_on_c, 2, 39, 0
4, 53280, Note_on_c, 2, 47, 90
4, 53339, Note_on_c, 2, 47, 0
4, 53340, Note_on_c, 2, 52, 90
4, 53399, Note_on_c, 2, 52, 0
4, 53400, Note_on_c, 2, 57, 90
4, 53459, Note_on_c, 2, 57, 0
4, 53460, Note_on_c, 2, 59, 90
4, 53519, Note_on_c, 2, 59, 0
4, 53520, Note_on_c, 2, 60, 90
4, 53579, Note_on_c, 2, 60, 0
4, 53580, Note_on_c, 2, 54, 90
4, 53639, Note_on_c, 2, 54, 0
4, 53640, Note_on_c, 2, 55, 90
4, 53699, Note_on_c, 2, 55, 0
4, 53700, Note_on_c, 2, 57, 90
4, 53759, Note_on_c, 2, 57, 0
4, 53760, Note_on_c, 2, 59, 90
4, 53819, Note_on_c, 2, 59, 0
4, 53820, Note_on_c, 2, 47, 90
4, 53879, Note_on_c, 2, 47, 0
4, 53880, Note_on_c, 2, 51, 90
4, 53939, Note_on_c, 2, 51, 0
4, 53940, Note_on_c, 2, 52, 90
4, 53999, Note_on_c, 2, 52, 0
4, 54000, Note_on_c, 2, 55, 90
4, 54059, Note_on_c, 2, 55, 0
4, 54060, Note_on_c, 2, 59, 90
4, 54119, Note_on_c, 2, 59, 0
4, 54120, Note_on_c, 2, 60, 90
4, 54179, Note_on_c, 2, 60, 0
4, 54180, Note_on_c, 2, 59, 90
4, 54239, Note_on_c, 2, 59, 0
4, 54240, Note_on_c, 2, 57, 90
4, 54299, Note_on_c, 2, 57, 0
4, 54300, Note_on_c, 2, 59, 90
4, 54359, Note_on_c, 2, 59, 0
4, 54360, Note_on_c, 2, 47, 90
4, 54419, Note_on_c, 2, 47, 0
4, 54420, Note_on_c, 2, 51, 90
4, 54479, Note_on_c, 2, 51, 0
4, 54480, Note_on_c, 2, 52, 90
4, 54539, Note_on_c, 2, 52, 0
4, 54540, Note_on_c, 2, 40, 90
4, 54599, Note_on_c, 2, 40, 0
4, 54600, Note_on_c, 2, 52, 90
4, 54659, Note_on_c, 2, 52, 0
4, 54660, Note_on_c, 2, 54, 90
4, 54719, Note_on_c, 2, 54, 0
4, 54720, Note_on_c, 2, 56, 90
4, 54779, Note_on_c, 2, 56, 0
4, 54780, Note_on_c, 2, 52, 90
4, 54839, Note_on_c, 2, 52, 0
4, 54840, Note_on_c, 2, 57, 90
4, 54899, Note_on_c, 2, 57, 0
4, 54900, Note_on_c, 2, 45, 90
4, 54959, Note_on_c, 2, 45, 0
4, 54960, Note_on_c, 2, 57, 90
4, 55019, Note_on_c, 2, 57, 0
4, 55020, Note_on_c, 2, 55, 90
4, 55109, Note_on_c, 2, 55, 0
4, 55110, Note_on_c, 2, 57, 90
4, 55139, Note_on_c, 2, 57, 0
4, 55140, Note_on_c, 2, 59, 90
4, 55199, Note_on_c, 2, 59, 0
4, 55200, Note_on_c, 2, 52, 90
4, 55259, Note_on_c, 2, 52, 0
4, 55260, Note_on_c, 2, 40, 90
4, 55319, Note_on_c, 2, 40, 0
4, 55320, Note_on_c, 2, 50, 90
4, 55379, Note_on_c, 2, 50, 0
4, 55380, Note_on_c, 2, 49, 90
4, 55439, Note_on_c, 2, 49, 0
4, 55440, Note_on_c, 2, 46, 90
4, 55499, Note_on_c, 2, 46, 0
4, 55500, Note_on_c, 2, 42, 90
4, 55559, Note_on_c, 2, 42, 0
4, 55560, Note_on_c, 2, 47, 90
4, 55619, Note_on_c, 2, 47, 0
4, 55620, Note_on_c, 2, 50, 90
4, 55679, Note_on_c, 2, 50, 0
4, 55680, Note_on_c, 2, 47, 90
4, 55739, Note_on_c, 2, 47, 0
4, 55740, Note_on_c, 2, 52, 90
4, 55799, Note_on_c, 2, 52, 0
4, 55800, Note_on_c, 2, 54, 90
4, 55859, Note_on_c, 2, 54, 0
4, 55860, Note_on_c, 2, 50, 90
4, 55919, Note_on_c, 2, 50, 0
4, 55920, Note_on_c, 2, 55, 90
4, 55979, Note_on_c, 2, 55, 0
4, 55980, Note_on_c, 2, 43, 90
4, 56039, Note_on_c, 2, 43, 0
4, 56040, Note_on_c, 2, 42, 90
4, 56099, Note_on_c, 2, 42, 0
4, 56100, Note_on_c, 2, 40, 90
4, 56159, Note_on_c, 2, 40, 0
4, 56160, Note_on_c, 2, 47, 90
4, 56219, Note_on_c, 2, 47, 0
4, 56220, Note_on_c, 2, 50, 90
4, 56279, Note_on_c, 2, 50, 0
4, 56280, Note_on_c, 2, 52, 90
4, 56339, Note_on_c, 2, 52, 0
4, 56340, Note_on_c, 2, 48, 90
4, 56399, Note_on_c, 2, 48, 0
4, 56400, Note_on_c, 2, 45, 90
4, 56459, Note_on_c, 2, 45, 0
4, 56460, Note_on_c, 2, 50, 90
4, 56579, Note_on_c, 2, 50, 0
4, 56580, Note_on_c, 2, 38, 90
4, 56639, Note_on_c, 2, 38, 0
4, 56640, Note_on_c, 2, 43, 90
4, 56699, Note_on_c, 2, 43, 0
4, 56700, Note_on_c, 2, 55, 90
4, 56729, Note_on_c, 2, 55, 0
4, 56730, Note_on_c, 2, 54, 90
4, 56759, Note_on_c, 2, 54, 0
4, 56760, Note_on_c, 2, 52, 90
4, 56789, Note_on_c, 2, 52, 0
4, 56790, Note_on_c, 2, 50, 90
4, 56819, Note_on_c, 2, 50, 0
4, 56820, Note_on_c, 2, 49, 90
4, 56879, Note_on_c, 2, 49, 0
4, 56880, Note_on_c, 2, 45, 90
4, 56939, Note_on_c, 2, 45, 0
4, 56940, Note_on_c, 2, 50, 90
4, 56999, Note_on_c, 2, 50, 0
4, 57000, Note_on_c, 2, 43, 90
4, 57059, Note_on_c, 2, 43, 0
4, 57060, Note_on_c, 2, 45, 90
4, 57119, Note_on_c, 2, 45, 0
4, 57120, Note_on_c, 2, 47, 90
4, 57179, Note_on_c, 2, 47, 0
4, 57180, Note_on_c, 2, 40, 90
4, 57239, Note_on_c, 2, 40, 0
4, 57240, Note_on_c, 2, 42, 90
4, 57299, Note_on_c, 2, 42, 0
4, 57300, Note_on_c, 2, 43, 90
4, 57359, Note_on_c, 2, 43, 0
4, 57360, Note_on_c, 2, 45, 90
4, 57449, Note_on_c, 2, 45, 0
4, 57450, Note_on_c, 2, 47, 90
4, 57479, Note_on_c, 2, 47, 0
4, 57480, Note_on_c, 2, 49, 90
4, 57539, Note_on_c, 2, 49, 0
4, 57540, Note_on_c, 2, 50, 90
4, 57599, Note_on_c, 2, 50, 0
4, 57600, Note_on_c, 2, 54, 90
4, 57659, Note_on_c, 2, 54, 0
4, 57660, Note_on_c, 2, 57, 90
4, 57719, Note_on_c, 2, 57, 0
4, 57720, Note_on_c, 2, 59, 90
4, 57779, Note_on_c, 2, 59, 0
4, 57780, Note_on_c, 2, 47, 90
4, 57809, Note_on_c, 2, 47, 0
4, 57810, Note_on_c, 2, 45, 90
4, 57839, Note_on_c, 2, 45, 0
4, 57840, Note_on_c, 2, 43, 90
4, 57869, Note_on_c, 2, 43, 0
4, 57870, Note_on_c, 2, 42, 90
4, 57899, Note_on_c, 2, 42, 0
4, 57900, Note_on_c, 2, 43, 90
4, 57959, Note_on_c, 2, 43, 0
4, 57960, Note_on_c, 2, 40, 90
4, 58019, Note_on_c, 2, 40, 0
4, 58020, Note_on_c, 2, 42, 90
4, 58079, Note_on_c, 2, 42, 0
4, 58080, Note_on_c, 2, 43, 90
4, 58139, Note_on_c, 2, 43, 0
4, 58140, Note_on_c, 2, 40, 90
4, 58199, Note_on_c, 2, 40, 0
4, 58200, Note_on_c, 2, 45, 90
4, 58259, Note_on_c, 2, 45, 0
4, 58260, Note_on_c, 2, 47, 90
4, 58319, Note_on_c, 2, 47, 0
4, 58320, Note_on_c, 2, 45, 90
4, 58379, Note_on_c, 2, 45, 0
4, 58380, Note_on_c, 2, 47, 90
4, 58439, Note_on_c, 2, 47, 0
4, 58440, Note_on_c, 2, 49, 90
4, 58499, Note_on_c, 2, 49, 0
4, 58500, Note_on_c, 2, 47, 90
4, 58559, Note_on_c, 2, 47, 0
4, 58560, Note_on_c, 2, 49, 90
4, 58619, Note_on_c, 2, 49, 0
4, 58620, Note_on_c, 2, 50, 90
4, 58679, Note_on_c, 2, 50, 0
4, 58680, Note_on_c, 2, 54, 90
4, 58739, Note_on_c, 2, 54, 0
4, 58740, Note_on_c, 2, 57, 90
4, 58799, Note_on_c, 2, 57, 0
4, 58800, Note_on_c, 2, 51, 90
4, 58859, Note_on_c, 2, 51, 0
4, 58860, Note_on_c, 2, 47, 90
4, 58919, Note_on_c, 2, 47, 0
4, 58920, Note_on_c, 2, 51, 90
4, 58979, Note_on_c, 2, 51, 0
4, 58980, Note_on_c, 2, 52, 90
4, 59039, Note_on_c, 2, 52, 0
4, 59040, Note_on_c, 2, 55, 90
4, 59099, Note_on_c, 2, 55, 0
4, 59100, Note_on_c, 2, 52, 90
4, 59159, Note_on_c, 2, 52, 0
4, 59160, Note_on_c, 2, 49, 90
4, 59219, Note_on_c, 2, 49, 0
4, 59220, Note_on_c, 2, 52, 90
4, 59279, Note_on_c, 2, 52, 0
4, 59280, Note_on_c, 2, 49, 90
4, 59339, Note_on_c, 2, 49, 0
4, 59340, Note_on_c, 2, 50, 90
4, 59399, Note_on_c, 2, 50, 0
4, 59400, Note_on_c, 2, 55, 90
4, 59459, Note_on_c, 2, 55, 0
4, 59460, Note_on_c, 2, 52, 90
4, 59519, Note_on_c, 2, 52, 0
4, 59520, Note_on_c, 2, 54, 90
4, 59579, Note_on_c, 2, 54, 0
4, 59580, Note_on_c, 2, 42, 90
4, 59639, Note_on_c, 2, 42, 0
4, 59760, Note_on_c, 2, 59, 90
4, 59819, Note_on_c, 2, 59, 0
4, 59820, Note_on_c, 2, 57, 90
4, 59879, Note_on_c, 2, 57, 0
4, 59880, Note_on_c, 2, 55, 90
4, 59939, Note_on_c, 2, 55, 0
4, 59940, Note_on_c, 2, 54, 90
4, 59999, Note_on_c, 2, 54, 0
4, 60000, Note_on_c, 2, 52, 90
4, 60059, Note_on_c, 2, 52, 0
4, 60060, Note_on_c, 2, 54, 90
4, 60119, Note_on_c, 2, 54, 0
4, 60120, Note_on_c, 2, 42, 90
4, 60179, Note_on_c, 2, 42, 0
4, 60180, Note_on_c, 2, 54, 90
4, 60209, Note_on_c, 2, 54, 0
4, 60210, Note_on_c, 2, 55, 90
4, 60239, Note_on_c, 2, 55, 0
4, 60240, Note_on_c, 2, 57, 90
4, 60299, Note_on_c, 2, 57, 0
4, 60300, Note_on_c, 2, 55, 90
4, 60359, Note_on_c, 2, 55, 0
4, 60360, Note_on_c, 2, 54, 90
4, 60419, Note_on_c, 2, 54, 0
4, 60420, Note_on_c, 2, 55, 90
4, 60479, Note_on_c, 2, 55, 0
4, 60480, Note_on_c, 2, 57, 90
4, 60539, Note_on_c, 2, 57, 0
4, 60540, Note_on_c, 2, 59, 90
4, 60599, Note_on_c, 2, 59, 0
4, 60600, Note_on_c, 2, 60, 90
4, 60659, Note_on_c, 2, 60, 0
4, 60660, Note_on_c, 2, 48, 90
4, 60689, Note_on_c, 2, 48, 0
4, 60690, Note_on_c, 2, 47, 90
4, 60719, Note_on_c, 2, 47, 0
4, 60720, Note_on_c, 2, 45, 90
4, 60749, Note_on_c, 2, 45, 0
4, 60750, Note_on_c, 2, 43, 90
4, 60779, Note_on_c, 2, 43, 0
4, 60780, Note_on_c, 2, 45, 90
4, 60839, Note_on_c, 2, 45, 0
4, 60840, Note_on_c, 2, 42, 90
4, 60899, Note_on_c, 2, 42, 0
4, 60900, Note_on_c, 2, 43, 90
4, 60959, Note_on_c, 2, 43, 0
4, 60960, Note_on_c, 2, 45, 90
4, 61019, Note_on_c, 2, 45, 0
4, 61020, Note_on_c, 2, 42, 90
4, 61079, Note_on_c, 2, 42, 0
4, 61080, Note_on_c, 2, 47, 90
4, 61139, Note_on_c, 2, 47, 0
4, 61140, Note_on_c, 2, 48, 90
4, 61199, Note_on_c, 2, 48, 0
4, 61200, Note_on_c, 2, 47, 90
4, 61259, Note_on_c, 2, 47, 0
4, 61260, Note_on_c, 2, 49, 90
4, 61319, Note_on_c, 2, 49, 0
4, 61320, Note_on_c, 2, 50, 90
4, 61379, Note_on_c, 2, 50, 0
4, 61380, Note_on_c, 2, 49, 90
4, 61439, Note_on_c, 2, 49, 0
4, 61440, Note_on_c, 2, 51, 90
4, 61499, Note_on_c, 2, 51, 0
4, 61500, Note_on_c, 2, 52, 90
4, 61529, Note_on_c, 2, 52, 0
4, 61530, Note_on_c, 2, 59, 90
4, 61559, Note_on_c, 2, 59, 0
4, 61560, Note_on_c, 2, 64, 90
4, 61589, Note_on_c, 2, 64, 0
4, 61590, Note_on_c, 2, 62, 90
4, 61619, Note_on_c, 2, 62, 0
4, 61620, Note_on_c, 2, 61, 90
4, 61649, Note_on_c, 2, 61, 0
4, 61650, Note_on_c, 2, 59, 90
4, 61679, Note_on_c, 2, 59, 0
4, 61680, Note_on_c, 2, 58, 90
4, 61709, Note_on_c, 2, 58, 0
4, 61710, Note_on_c, 2, 59, 90
4, 61739, Note_on_c, 2, 59, 0
4, 61740, Note_on_c, 2, 61, 90
4, 61769, Note_on_c, 2, 61, 0
4, 61770, Note_on_c, 2, 64, 90
4, 61799, Note_on_c, 2, 64, 0
4, 61800, Note_on_c, 2, 62, 90
4, 61829, Note_on_c, 2, 62, 0
4, 61830, Note_on_c, 2, 61, 90
4, 61859, Note_on_c, 2, 61, 0
4, 61860, Note_on_c, 2, 62, 90
4, 61919, Note_on_c, 2, 62, 0
4, 61920, Note_on_c, 2, 59, 90
4, 61979, Note_on_c, 2, 59, 0
4, 61980, Note_on_c, 2, 54, 90
4, 62039, Note_on_c, 2, 54, 0
4, 62040, Note_on_c, 2, 50, 90
4, 62099, Note_on_c, 2, 50, 0
4, 62100, Note_on_c, 2, 49, 90
4, 62159, Note_on_c, 2, 49, 0
4, 62160, Note_on_c, 2, 47, 90
4, 62219, Note_on_c, 2, 47, 0
4, 62220, Note_on_c, 2, 52, 90
4, 62279, Note_on_c, 2, 52, 0
4, 62280, Note_on_c, 2, 55, 90
4, 62339, Note_on_c, 2, 55, 0
4, 62340, Note_on_c, 2, 59, 90
4, 62399, Note_on_c, 2, 59, 0
4, 62400, Note_on_c, 2, 64, 90
4, 62459, Note_on_c, 2, 64, 0
4, 62460, Note_on_c, 2, 66, 90
4, 62519, Note_on_c, 2, 66, 0
4, 62520, Note_on_c, 2, 67, 90
4, 62579, Note_on_c, 2, 67, 0
4, 62580, Note_on_c, 2, 66, 90
4, 62639, Note_on_c, 2, 66, 0
4, 62640, Note_on_c, 2, 54, 90
4, 62699, Note_on_c, 2, 54, 0
4, 62700, Note_on_c, 2, 59, 90
4, 62759, Note_on_c, 2, 59, 0
4, 62760, Note_on_c, 2, 52, 90
4, 62819, Note_on_c, 2, 52, 0
4, 62820, Note_on_c, 2, 54, 90
4, 62879, Note_on_c, 2, 54, 0
4, 62880, Note_on_c, 2, 55, 90
4, 62939, Note_on_c, 2, 55, 0
4, 62940, Note_on_c, 2, 49, 90
4, 62999, Note_on_c, 2, 49, 0
4, 63000, Note_on_c, 2, 50, 90
4, 63059, Note_on_c, 2, 50, 0
4, 63060, Note_on_c, 2, 52, 90
4, 63119, Note_on_c, 2, 52, 0
4, 63120, Note_on_c, 2, 54, 90
4, 63179, Note_on_c, 2, 54, 0
4, 63180, Note_on_c, 2, 56, 90
4, 63239, Note_on_c, 2, 56, 0
4, 63240, Note_on_c, 2, 58, 90
4, 63299, Note_on_c, 2, 58, 0
4, 63300, Note_on_c, 2, 59, 90
4, 63359, Note_on_c, 2, 59, 0
4, 63360, Note_on_c, 2, 50, 90
4, 63419, Note_on_c, 2, 50, 0
4, 63420, Note_on_c, 2, 54, 90
4, 63479, Note_on_c, 2, 54, 0
4, 63480, Note_on_c, 2, 55, 90
4, 63539, Note_on_c, 2, 55, 0
4, 63540, Note_on_c, 2, 54, 90
4, 63599, Note_on_c, 2, 54, 0
4, 63600, Note_on_c, 2, 52, 90
4, 63659, Note_on_c, 2, 52, 0
4, 63660, Note_on_c, 2, 54, 90
4, 63779, Note_on_c, 2, 54, 0
4, 63780, Note_on_c, 2, 42, 90
4, 63839, Note_on_c, 2, 42, 0
4, 63840, Note_on_c, 2, 47, 90
4, 63899, Note_on_c, 2, 47, 0
4, 63900, Note_on_c, 2, 59, 90
4, 63959, Note_on_c, 2, 59, 0
4, 63960, Note_on_c, 2, 55, 90
4, 64019, Note_on_c, 2, 55, 0
4, 64020, Note_on_c, 2, 52, 90
4, 64079, Note_on_c, 2, 52, 0
4, 64080, Note_on_c, 2, 54, 90
4, 64139, Note_on_c, 2, 54, 0
4, 64140, Note_on_c, 2, 50, 90
4, 64199, Note_on_c, 2, 50, 0
4, 64200, Note_on_c, 2, 55, 90
4, 64259, Note_on_c, 2, 55, 0
4, 64260, Note_on_c, 2, 49, 90
4, 64319, Note_on_c, 2, 49, 0
4, 64320, Note_on_c, 2, 51, 90
4, 64379, Note_on_c, 2, 51, 0
4, 64380, Note_on_c, 2, 52, 90
4, 64439, Note_on_c, 2, 52, 0
4, 64440, Note_on_c, 2, 49, 90
4, 64499, Note_on_c, 2, 49, 0
4, 64500, Note_on_c, 2, 47, 90
4, 64559, Note_on_c, 2, 47, 0
4, 64560, Note_on_c, 2, 46, 90
4, 64619, Note_on_c, 2, 46, 0
4, 64620, Note_on_c, 2, 47, 90
4, 64679, Note_on_c, 2, 47, 0
4, 64680, Note_on_c, 2, 40, 90
4, 64739, Note_on_c, 2, 40, 0
4, 64740, Note_on_c, 2, 38, 90
4, 64859, Note_on_c, 2, 38, 0
4, 64860, Note_on_c, 2, 50, 90
4, 64919, Note_on_c, 2, 50, 0
4, 64920, Note_on_c, 2, 49, 90
4, 64979, Note_on_c, 2, 49, 0
4, 64980, Note_on_c, 2, 47, 90
4, 65039, Note_on_c, 2, 47, 0
4, 65040, Note_on_c, 2, 46, 90
4, 65099, Note_on_c, 2, 46, 0
4, 65100, Note_on_c, 2, 47, 90
4, 65159, Note_on_c, 2, 47, 0
4, 65160, Note_on_c, 2, 43, 90
4, 65219, Note_on_c, 2, 43, 0
4, 65220, Note_on_c, 2, 41, 90
4, 65279, Note_on_c, 2, 41, 0
4, 65280, Note_on_c, 2, 42, 90
4, 65339, Note_on_c, 2, 42, 0
4, 65340, Note_on_c, 2, 54, 90
4, 65399, Note_on_c, 2, 54, 0
4, 65400, Note_on_c, 2, 52, 90
4, 65459, Note_on_c, 2, 52, 0
4, 65460, Note_on_c, 2, 50, 90
4, 65519, Note_on_c, 2, 50, 0
4, 65520, Note_on_c, 2, 59, 90
4, 65579, Note_on_c, 2, 59, 0
4, 65580, Note_on_c, 2, 57, 90
4, 65639, Note_on_c, 2, 57, 0
4, 65640, Note_on_c, 2, 55, 90
4, 65699, Note_on_c, 2, 55, 0
4, 65700, Note_on_c, 2, 54, 90
4, 65759, Note_on_c, 2, 54, 0
4, 65760, Note_on_c, 2, 55, 90
4, 65819, Note_on_c, 2, 55, 0
4, 65820, Note_on_c, 2, 52, 90
4, 65879, Note_on_c, 2, 52, 0
4, 65880, Note_on_c, 2, 55, 90
4, 65939, Note_on_c, 2, 55, 0
4, 65940, Note_on_c, 2, 54, 90
4, 65999, Note_on_c, 2, 54, 0
4, 66000, Note_on_c, 2, 52, 90
4, 66059, Note_on_c, 2, 52, 0
4, 66060, Note_on_c, 2, 54, 90
4, 66119, Note_on_c, 2, 54, 0
4, 66120, Note_on_c, 2, 56, 90
4, 66179, Note_on_c, 2, 56, 0
4, 66180, Note_on_c, 2, 57, 90
4, 66239, Note_on_c, 2, 57, 0
4, 66240, Note_on_c, 2, 54, 90
4, 66299, Note_on_c, 2, 54, 0
4, 66300, Note_on_c, 2, 55, 90
4, 66359, Note_on_c, 2, 55, 0
4, 66360, Note_on_c, 2, 56, 90
4, 66419, Note_on_c, 2, 56, 0
4, 66420, Note_on_c, 2, 59, 90
4, 66479, Note_on_c, 2, 59, 0
4, 66480, Note_on_c, 2, 58, 90
4, 66539, Note_on_c, 2, 58, 0
4, 66540, Note_on_c, 2, 59, 90
4, 66599, Note_on_c, 2, 59, 0
4, 66600, Note_on_c, 2, 50, 90
4, 66659, Note_on_c, 2, 50, 0
4, 66660, Note_on_c, 2, 54, 90
4, 66719, Note_on_c, 2, 54, 0
4, 66720, Note_on_c, 2, 47, 90
4, 66779, Note_on_c, 2, 47, 0
4, 66780, Note_on_c, 2, 50, 90
4, 66839, Note_on_c, 2, 50, 0
4, 66840, Note_on_c, 2, 54, 90
4, 66899, Note_on_c, 2, 54, 0
4, 66900, Note_on_c, 2, 55, 90
4, 66959, Note_on_c, 2, 55, 0
4, 66960, Note_on_c, 2, 59, 90
4, 67019, Note_on_c, 2, 59, 0
4, 67020, Note_on_c, 2, 57, 90
4, 67079, Note_on_c, 2, 57, 0
4, 67080, Note_on_c, 2, 55, 90
4, 67139, Note_on_c, 2, 55, 0
4, 67140, Note_on_c, 2, 54, 90
4, 67199, Note_on_c, 2, 54, 0
4, 67200, Note_on_c, 2, 55, 90
4, 67259, Note_on_c, 2, 55, 0
4, 67260, Note_on_c, 2, 52, 90
4, 67319, Note_on_c, 2, 52, 0
4, 67320, Note_on_c, 2, 55, 90
4, 67379, Note_on_c, 2, 55, 0
4, 67380, Note_on_c, 2, 54, 90
4, 67439, Note_on_c, 2, 54, 0
4, 67440, Note_on_c, 2, 52, 90
4, 67499, Note_on_c, 2, 52, 0
4, 67500, Note_on_c, 2, 54, 90
4, 67559, Note_on_c, 2, 54, 0
4, 67560, Note_on_c, 2, 56, 90
4, 67619, Note_on_c, 2, 56, 0
4, 67620, Note_on_c, 2, 57, 90
4, 67679, Note_on_c, 2, 57, 0
4, 67680, Note_on_c, 2, 54, 90
4, 67739, Note_on_c, 2, 54, 0
4, 67740, Note_on_c, 2, 55, 90
4, 67799, Note_on_c, 2, 55, 0
4, 67800, Note_on_c, 2, 56, 90
4, 67859, Note_on_c, 2, 56, 0
4, 67860, Note_on_c, 2, 59, 90
4, 67919, Note_on_c, 2, 59, 0
4, 67920, Note_on_c, 2, 58, 90
4, 67979, Note_on_c, 2, 58, 0
4, 67980, Note_on_c, 2, 59, 90
4, 68039, Note_on_c, 2, 59, 0
4, 68040, Note_on_c, 2, 50, 90
4, 68099, Note_on_c, 2, 50, 0
4, 68100, Note_on_c, 2, 54, 90
4, 68159, Note_on_c, 2, 54, 0
4, 68160, Note_on_c, 2, 47, 90
4, 68279, Note_on_c, 2, 47, 0
4, 69060, Note_on_c, 2, 50, 100
4, 69120, Note_on_c, 2, 50, 0
4, 69120, Note_on_c, 2, 54, 100
4, 69180, Note_on_c, 2, 54, 0
4, 69180, Note_on_c, 2, 57, 100
4, 69240, Note_on_c, 2, 57, 0
4, 69240, Note_on_c, 2, 62, 100
4, 69270, Note_on_c, 2, 62, 0
4, 69270, Note_on_c, 2, 64, 100
4, 69300, Note_on_c, 2, 64, 0
4, 69300, Note_on_c, 2, 62, 100
4, 69330, Note_on_c, 2, 62, 0
4, 69330, Note_on_c, 2, 61, 100
4, 69360, Note_on_c, 2, 61, 0
4, 69360, Note_on_c, 2, 59, 100
4, 69390, Note_on_c, 2, 59, 0
4, 69390, Note_on_c, 2, 62, 100
4, 69420, Note_on_c, 2, 62, 0
4, 69420, Note_on_c, 2, 61, 100
4, 69450, Note_on_c, 2, 61, 0
4, 69450, Note_on_c, 2, 59, 100
4, 69480, Note_on_c, 2, 59, 0
4, 69480, Note_on_c, 2, 61, 100
4, 69510, Note_on_c, 2, 61, 0
4, 69510, Note_on_c, 2, 62, 100
4, 69540, Note_on_c, 2, 62, 0
4, 69540, Note_on_c, 2, 61, 100
4, 69570, Note_on_c, 2, 61, 0
4, 69570, Note_on_c, 2, 59, 100
4, 69600, Note_on_c, 2, 59, 0
4, 69600, Note_on_c, 2, 57, 100
4, 69630, Note_on_c, 2, 57, 0
4, 69630, Note_on_c, 2, 55, 100
4, 69660, Note_on_c, 2, 55, 0
4, 69660, Note_on_c, 2, 57, 100
4, 69690, Note_on_c, 2, 57, 0
4, 69690, Note_on_c, 2, 59, 100
4, 69720, Note_on_c, 2, 59, 0
4, 69720, Note_on_c, 2, 61, 100
4, 69750, Note_on_c, 2, 61, 0
4, 69750, Note_on_c, 2, 57, 100
4, 69780, Note_on_c, 2, 57, 0
4, 69780, Note_on_c, 2, 62, 100
4, 69840, Note_on_c, 2, 62, 0
4, 69840, Note_on_c, 2, 54, 100
4, 69900, Note_on_c, 2, 54, 0
4, 69900, Note_on_c, 2, 57, 100
4, 69960, Note_on_c, 2, 57, 0
4, 69960, Note_on_c, 2, 62, 100
4, 70020, Note_on_c, 2, 62, 0
4, 70020, Note_on_c, 2, 54, 100
4, 70080, Note_on_c, 2, 54, 0
4, 70080, Note_on_c, 2, 57, 100
4, 70140, Note_on_c, 2, 57, 0
4, 70140, Note_on_c, 2, 62, 100
4, 70200, Note_on_c, 2, 62, 0
4, 70200, Note_on_c, 2, 59, 100
4, 70260, Note_on_c, 2, 59, 0
4, 70260, Note_on_c, 2, 55, 100
4, 70320, Note_on_c, 2, 55, 0
4, 70320, Note_on_c, 2, 57, 100
4, 70380, Note_on_c, 2, 57, 0
4, 70380, Note_on_c, 2, 61, 100
4, 70440, Note_on_c, 2, 61, 0
4, 70440, Note_on_c, 2, 57, 100
4, 70500, Note_on_c, 2, 57, 0
4, 70500, Note_on_c, 2, 62, 100
4, 70560, Note_on_c, 2, 62, 0
4, 70560, Note_on_c, 2, 54, 100
4, 70620, Note_on_c, 2, 54, 0
4, 70620, Note_on_c, 2, 57, 100
4, 70680, Note_on_c, 2, 57, 0
4, 70680, Note_on_c, 2, 50, 100
4, 70710, Note_on_c, 2, 50, 0
4, 70710, Note_on_c, 2, 52, 100
4, 70740, Note_on_c, 2, 52, 0
4, 70740, Note_on_c, 2, 50, 100
4, 70770, Note_on_c, 2, 50, 0
4, 70770, Note_on_c, 2, 49, 100
4, 70800, Note_on_c, 2, 49, 0
4, 70800, Note_on_c, 2, 47, 100
4, 70830, Note_on_c, 2, 47, 0
4, 70830, Note_on_c, 2, 50, 100
4, 70860, Note_on_c, 2, 50, 0
4, 70860, Note_on_c, 2, 49, 100
4, 70890, Note_on_c, 2, 49, 0
4, 70890, Note_on_c, 2, 47, 100
4, 70920, Note_on_c, 2, 47, 0
4, 70920, Note_on_c, 2, 49, 100
4, 70950, Note_on_c, 2, 49, 0
4, 70950, Note_on_c, 2, 50, 100
4, 70980, Note_on_c, 2, 50, 0
4, 70980, Note_on_c, 2, 49, 100
4, 71010, Note_on_c, 2, 49, 0
4, 71010, Note_on_c, 2, 47, 100
4, 71040, Note_on_c, 2, 47, 0
4, 71040, Note_on_c, 2, 45, 100
4, 71070, Note_on_c, 2, 45, 0
4, 71070, Note_on_c, 2, 43, 100
4, 71100, Note_on_c, 2, 43, 0
4, 71100, Note_on_c, 2, 45, 100
4, 71130, Note_on_c, 2, 45, 0
4, 71130, Note_on_c, 2, 47, 100
4, 71160, Note_on_c, 2, 47, 0
4, 71160, Note_on_c, 2, 49, 100
4, 71190, Note_on_c, 2, 49, 0
4, 71190, Note_on_c, 2, 45, 100
4, 71220, Note_on_c, 2, 45, 0
4, 71220, Note_on_c, 2, 50, 100
4, 71280, Note_on_c, 2, 50, 0
4, 71280, Note_on_c, 2, 42, 100
4, 71340, Note_on_c, 2, 42, 0
4, 71340, Note_on_c, 2, 45, 100
4, 71400, Note_on_c, 2, 45, 0
4, 71400, Note_on_c, 2, 50, 100
4, 71460, Note_on_c, 2, 50, 0
4, 71460, Note_on_c, 2, 42, 100
4, 71520, Note_on_c, 2, 42, 0
4, 71520, Note_on_c, 2, 45, 100
4, 71580, Note_on_c, 2, 45, 0
4, 71580, Note_on_c, 2, 50, 100
4, 71640, Note_on_c, 2, 50, 0
4, 71640, Note_on_c, 2, 54, 100
4, 71700, Note_on_c, 2, 54, 0
4, 71700, Note_on_c, 2, 55, 100
4, 71760, Note_on_c, 2, 55, 0
4, 71760, Note_on_c, 2, 57, 100
4, 71820, Note_on_c, 2, 57, 0
4, 71820, Note_on_c, 2, 52, 100
4, 71880, Note_on_c, 2, 52, 0
4, 71880, Note_on_c, 2, 54, 100
4, 71940, Note_on_c, 2, 54, 0
4, 71940, Note_on_c, 2, 55, 100
4, 72000, Note_on_c, 2, 55, 0
4, 72000, Note_on_c, 2, 50, 100
4, 72060, Note_on_c, 2, 50, 0
4, 72060, Note_on_c, 2, 52, 100
4, 72120, Note_on_c, 2, 52, 0
4, 72120, Note_on_c, 2, 54, 100
4, 72180, Note_on_c, 2, 54, 0
4, 72180, Note_on_c, 2, 49, 100
4, 72240, Note_on_c, 2, 49, 0
4, 72240, Note_on_c, 2, 50, 100
4, 72300, Note_on_c, 2, 50, 0
4, 72300, Note_on_c, 2, 52, 100
4, 72360, Note_on_c, 2, 52, 0
4, 72360, Note_on_c, 2, 47, 100
4, 72420, Note_on_c, 2, 47, 0
4, 72420, Note_on_c, 2, 52, 100
4, 72480, Note_on_c, 2, 52, 0
4, 72480, Note_on_c, 2, 45, 100
4, 72540, Note_on_c, 2, 45, 0
4, 72540, Note_on_c, 2, 43, 100
4, 72600, Note_on_c, 2, 43, 0
4, 72600, Note_on_c, 2, 42, 100
4, 72660, Note_on_c, 2, 42, 0
4, 72660, Note_on_c, 2, 43, 100
4, 72720, Note_on_c, 2, 43, 0
4, 72720, Note_on_c, 2, 45, 100
4, 72780, Note_on_c, 2, 45, 0
4, 72780, Note_on_c, 2, 33, 100
4, 72840, Note_on_c, 2, 33, 0
4, 72840, Note_on_c, 2, 38, 100
4, 72900, Note_on_c, 2, 38, 0
4, 72900, Note_on_c, 2, 50, 100
4, 72960, Note_on_c, 2, 50, 0
4, 72960, Note_on_c, 2, 49, 100
4, 73020, Note_on_c, 2, 49, 0
4, 73020, Note_on_c, 2, 47, 100
4, 73080, Note_on_c, 2, 47, 0
4, 73080, Note_on_c, 2, 49, 100
4, 73140, Note_on_c, 2, 49, 0
4, 73140, Note_on_c, 2, 50, 100
4, 73200, Note_on_c, 2, 50, 0
4, 73200, Note_on_c, 2, 52, 100
4, 73260, Note_on_c, 2, 52, 0
4, 73260, Note_on_c, 2, 50, 100
4, 73320, Note_on_c, 2, 50, 0
4, 73320, Note_on_c, 2, 49, 100
4, 73380, Note_on_c, 2, 49, 0
4, 73380, Note_on_c, 2, 50, 90
4, 73439, Note_on_c, 2, 50, 0
4, 73440, Note_on_c, 2, 52, 90
4, 73499, Note_on_c, 2, 52, 0
4, 73500, Note_on_c, 2, 40, 90
4, 73559, Note_on_c, 2, 40, 0
4, 73560, Note_on_c, 2, 45, 90
4, 73589, Note_on_c, 2, 45, 0
4, 73590, Note_on_c, 2, 47, 90
4, 73619, Note_on_c, 2, 47, 0
4, 73620, Note_on_c, 2, 49, 90
4, 73649, Note_on_c, 2, 49, 0
4, 73650, Note_on_c, 2, 47, 90
4, 73679, Note_on_c, 2, 47, 0
4, 73680, Note_on_c, 2, 49, 90
4, 73709, Note_on_c, 2, 49, 0
4, 73710, Note_on_c, 2, 50, 90
4, 73739, Note_on_c, 2, 50, 0
4, 73740, Note_on_c, 2, 52, 90
4, 73799, Note_on_c, 2, 52, 0
4, 73800, Note_on_c, 2, 47, 90
4, 73829, Note_on_c, 2, 47, 0
4, 73830, Note_on_c, 2, 45, 90
4, 73859, Note_on_c, 2, 45, 0
4, 73860, Note_on_c, 2, 47, 90
4, 73889, Note_on_c, 2, 47, 0
4, 73890, Note_on_c, 2, 49, 90
4, 73919, Note_on_c, 2, 49, 0
4, 73920, Note_on_c, 2, 50, 90
4, 73979, Note_on_c, 2, 50, 0
4, 73980, Note_on_c, 2, 45, 90
4, 74009, Note_on_c, 2, 45, 0
4, 74010, Note_on_c, 2, 44, 90
4, 74039, Note_on_c, 2, 44, 0
4, 74040, Note_on_c, 2, 45, 90
4, 74069, Note_on_c, 2, 45, 0
4, 74070, Note_on_c, 2, 47, 90
4, 74099, Note_on_c, 2, 47, 0
4, 74100, Note_on_c, 2, 49, 90
4, 74159, Note_on_c, 2, 49, 0
4, 74160, Note_on_c, 2, 44, 90
4, 74189, Note_on_c, 2, 44, 0
4, 74190, Note_on_c, 2, 42, 90
4, 74219, Note_on_c, 2, 42, 0
4, 74220, Note_on_c, 2, 44, 90
4, 74249, Note_on_c, 2, 44, 0
4, 74250, Note_on_c, 2, 45, 90
4, 74279, Note_on_c, 2, 45, 0
4, 74280, Note_on_c, 2, 47, 90
4, 74339, Note_on_c, 2, 47, 0
4, 74340, Note_on_c, 2, 42, 90
4, 74399, Note_on_c, 2, 42, 0
4, 74400, Note_on_c, 2, 47, 90
4, 74459, Note_on_c, 2, 47, 0
4, 74460, Note_on_c, 2, 52, 90
4, 74519, Note_on_c, 2, 52, 0
4, 74520, Note_on_c, 2, 50, 90
4, 74579, Note_on_c, 2, 50, 0
4, 74580, Note_on_c, 2, 49, 90
4, 74639, Note_on_c, 2, 49, 0
4, 74640, Note_on_c, 2, 50, 90
4, 74699, Note_on_c, 2, 50, 0
4, 74700, Note_on_c, 2, 52, 90
4, 74759, Note_on_c, 2, 52, 0
4, 74760, Note_on_c, 2, 40, 90
4, 74819, Note_on_c, 2, 40, 0
4, 74820, Note_on_c, 2, 45, 90
4, 74879, Note_on_c, 2, 45, 0
4, 74880, Note_on_c, 2, 49, 90
4, 74939, Note_on_c, 2, 49, 0
4, 74940, Note_on_c, 2, 52, 90
4, 74999, Note_on_c, 2, 52, 0
4, 75000, Note_on_c, 2, 57, 90
4, 75029, Note_on_c, 2, 57, 0
4, 75030, Note_on_c, 2, 59, 90
4, 75059, Note_on_c, 2, 59, 0
4, 75060, Note_on_c, 2, 57, 90
4, 75089, Note_on_c, 2, 57, 0
4, 75090, Note_on_c, 2, 56, 90
4, 75119, Note_on_c, 2, 56, 0
4, 75120, Note_on_c, 2, 54, 90
4, 75149, Note_on_c, 2, 54, 0
4, 75150, Note_on_c, 2, 57, 90
4, 75179, Note_on_c, 2, 57, 0
4, 75180, Note_on_c, 2, 56, 90
4, 75209, Note_on_c, 2, 56, 0
4, 75210, Note_on_c, 2, 54, 90
4, 75239, Note_on_c, 2, 54, 0
4, 75240, Note_on_c, 2, 56, 90
4, 75269, Note_on_c, 2, 56, 0
4, 75270, Note_on_c, 2, 57, 90
4, 75299, Note_on_c, 2, 57, 0
4, 75300, Note_on_c, 2, 56, 90
4, 75329, Note_on_c, 2, 56, 0
4, 75330, Note_on_c, 2, 54, 90
4, 75359, Note_on_c, 2, 54, 0
4, 75360, Note_on_c, 2, 52, 90
4, 75389, Note_on_c, 2, 52, 0
4, 75390, Note_on_c, 2, 50, 90
4, 75419, Note_on_c, 2, 50, 0
4, 75420, Note_on_c, 2, 52, 90
4, 75449, Note_on_c, 2, 52, 0
4, 75450, Note_on_c, 2, 54, 90
4, 75479, Note_on_c, 2, 54, 0
4, 75480, Note_on_c, 2, 56, 90
4, 75509, Note_on_c, 2, 56, 0
4, 75510, Note_on_c, 2, 52, 90
4, 75539, Note_on_c, 2, 52, 0
4, 75540, Note_on_c, 2, 57, 90
4, 75599, Note_on_c, 2, 57, 0
4, 75600, Note_on_c, 2, 49, 90
4, 75659, Note_on_c, 2, 49, 0
4, 75660, Note_on_c, 2, 52, 90
4, 75719, Note_on_c, 2, 52, 0
4, 75720, Note_on_c, 2, 57, 90
4, 75779, Note_on_c, 2, 57, 0
4, 75780, Note_on_c, 2, 49, 90
4, 75839, Note_on_c, 2, 49, 0
4, 75840, Note_on_c, 2, 52, 90
4, 75899, Note_on_c, 2, 52, 0
4, 75900, Note_on_c, 2, 55, 90
4, 75959, Note_on_c, 2, 55, 0
4, 75960, Note_on_c, 2, 52, 90
4, 76019, Note_on_c, 2, 52, 0
4, 76020, Note_on_c, 2, 54, 90
4, 76079, Note_on_c, 2, 54, 0
4, 76080, Note_on_c, 2, 47, 90
4, 76199, Note_on_c, 2, 47, 0
4, 76260, Note_on_c, 2, 47, 90
4, 76319, Note_on_c, 2, 47, 0
4, 76320, Note_on_c, 2, 50, 90
4, 76379, Note_on_c, 2, 50, 0
4, 76380, Note_on_c, 2, 54, 90
4, 76439, Note_on_c, 2, 54, 0
4, 76440, Note_on_c, 2, 59, 90
4, 76469, Note_on_c, 2, 59, 0
4, 76470, Note_on_c, 2, 61, 90
4, 76499, Note_on_c, 2, 61, 0
4, 76500, Note_on_c, 2, 59, 90
4, 76529, Note_on_c, 2, 59, 0
4, 76530, Note_on_c, 2, 58, 90
4, 76559, Note_on_c, 2, 58, 0
4, 76560, Note_on_c, 2, 56, 90
4, 76589, Note_on_c, 2, 56, 0
4, 76590, Note_on_c, 2, 59, 90
4, 76619, Note_on_c, 2, 59, 0
4, 76620, Note_on_c, 2, 58, 90
4, 76649, Note_on_c, 2, 58, 0
4, 76650, Note_on_c, 2, 56, 90
4, 76679, Note_on_c, 2, 56, 0
4, 76680, Note_on_c, 2, 58, 90
4, 76709, Note_on_c, 2, 58, 0
4, 76710, Note_on_c, 2, 59, 90
4, 76739, Note_on_c, 2, 59, 0
4, 76740, Note_on_c, 2, 58, 90
4, 76769, Note_on_c, 2, 58, 0
4, 76770, Note_on_c, 2, 56, 90
4, 76799, Note_on_c, 2, 56, 0
4, 76800, Note_on_c, 2, 54, 90
4, 76829, Note_on_c, 2, 54, 0
4, 76830, Note_on_c, 2, 52, 90
4, 76859, Note_on_c, 2, 52, 0
4, 76860, Note_on_c, 2, 54, 90
4, 76889, Note_on_c, 2, 54, 0
4, 76890, Note_on_c, 2, 56, 90
4, 76919, Note_on_c, 2, 56, 0
4, 76920, Note_on_c, 2, 58, 90
4, 76949, Note_on_c, 2, 58, 0
4, 76950, Note_on_c, 2, 54, 90
4, 76979, Note_on_c, 2, 54, 0
4, 76980, Note_on_c, 2, 59, 90
4, 77039, Note_on_c, 2, 59, 0
4, 77040, Note_on_c, 2, 50, 90
4, 77099, Note_on_c, 2, 50, 0
4, 77100, Note_on_c, 2, 54, 90
4, 77159, Note_on_c, 2, 54, 0
4, 77160, Note_on_c, 2, 59, 90
4, 77219, Note_on_c, 2, 59, 0
4, 77220, Note_on_c, 2, 50, 90
4, 77279, Note_on_c, 2, 50, 0
4, 77280, Note_on_c, 2, 54, 90
4, 77339, Note_on_c, 2, 54, 0
4, 77340, Note_on_c, 2, 47, 90
4, 77369, Note_on_c, 2, 47, 0
4, 77370, Note_on_c, 2, 49, 90
4, 77399, Note_on_c, 2, 49, 0
4, 77400, Note_on_c, 2, 50, 90
4, 77429, Note_on_c, 2, 50, 0
4, 77430, Note_on_c, 2, 47, 90
4, 77459, Note_on_c, 2, 47, 0
4, 77460, Note_on_c, 2, 49, 90
4, 77489, Note_on_c, 2, 49, 0
4, 77490, Note_on_c, 2, 50, 90
4, 77519, Note_on_c, 2, 50, 0
4, 77520, Note_on_c, 2, 52, 90
4, 77549, Note_on_c, 2, 52, 0
4, 77550, Note_on_c, 2, 54, 90
4, 77579, Note_on_c, 2, 54, 0
4, 77580, Note_on_c, 2, 56, 90
4, 77609, Note_on_c, 2, 56, 0
4, 77610, Note_on_c, 2, 52, 90
4, 77639, Note_on_c, 2, 52, 0
4, 77640, Note_on_c, 2, 54, 90
4, 77669, Note_on_c, 2, 54, 0
4, 77670, Note_on_c, 2, 56, 90
4, 77699, Note_on_c, 2, 56, 0
4, 77700, Note_on_c, 2, 45, 90
4, 77729, Note_on_c, 2, 45, 0
4, 77730, Note_on_c, 2, 47, 90
4, 77759, Note_on_c, 2, 47, 0
4, 77760, Note_on_c, 2, 49, 90
4, 77789, Note_on_c, 2, 49, 0
4, 77790, Note_on_c, 2, 45, 90
4, 77819, Note_on_c, 2, 45, 0
4, 77820, Note_on_c, 2, 47, 90
4, 77849, Note_on_c, 2, 47, 0
4, 77850, Note_on_c, 2, 48, 90
4, 77879, Note_on_c, 2, 48, 0
4, 77880, Note_on_c, 2, 42, 90
4, 77909, Note_on_c, 2, 42, 0
4, 77910, Note_on_c, 2, 43, 90
4, 77939, Note_on_c, 2, 43, 0
4, 77940, Note_on_c, 2, 45, 90
4, 77969, Note_on_c, 2, 45, 0
4, 77970, Note_on_c, 2, 39, 90
4, 77999, Note_on_c, 2, 39, 0
4, 78000, Note_on_c, 2, 40, 90
4, 78029, Note_on_c, 2, 40, 0
4, 78030, Note_on_c, 2, 42, 90
4, 78059, Note_on_c, 2, 42, 0
4, 78060, Note_on_c, 2, 43, 90
4, 78119, Note_on_c, 2, 43, 0
4, 78120, Note_on_c, 2, 55, 90
4, 78179, Note_on_c, 2, 55, 0
4, 78180, Note_on_c, 2, 60, 90
4, 78239, Note_on_c, 2, 60, 0
4, 78240, Note_on_c, 2, 57, 90
4, 78299, Note_on_c, 2, 57, 0
4, 78300, Note_on_c, 2, 59, 90
4, 78359, Note_on_c, 2, 59, 0
4, 78360, Note_on_c, 2, 47, 90
4, 78419, Note_on_c, 2, 47, 0
4, 78420, Note_on_c, 2, 52, 90
4, 78449, Note_on_c, 2, 52, 0
4, 78450, Note_on_c, 2, 54, 90
4, 78479, Note_on_c, 2, 54, 0
4, 78480, Note_on_c, 2, 52, 90
4, 78509, Note_on_c, 2, 52, 0
4, 78510, Note_on_c, 2, 50, 90
4, 78539, Note_on_c, 2, 50, 0
4, 78540, Note_on_c, 2, 49, 90
4, 78569, Note_on_c, 2, 49, 0
4, 78570, Note_on_c, 2, 47, 90
4, 78599, Note_on_c, 2, 47, 0
4, 78600, Note_on_c, 2, 45, 90
4, 78629, Note_on_c, 2, 45, 0
4, 78630, Note_on_c, 2, 47, 90
4, 78659, Note_on_c, 2, 47, 0
4, 78660, Note_on_c, 2, 45, 90
4, 78689, Note_on_c, 2, 45, 0
4, 78690, Note_on_c, 2, 44, 90
4, 78719, Note_on_c, 2, 44, 0
4, 78720, Note_on_c, 2, 42, 90
4, 78749, Note_on_c, 2, 42, 0
4, 78750, Note_on_c, 2, 45, 90
4, 78779, Note_on_c, 2, 45, 0
4, 78780, Note_on_c, 2, 44, 90
4, 78809, Note_on_c, 2, 44, 0
4, 78810, Note_on_c, 2, 42, 90
4, 78839, Note_on_c, 2, 42, 0
4, 78840, Note_on_c, 2, 44, 90
4, 78869, Note_on_c, 2, 44, 0
4, 78870, Note_on_c, 2, 45, 90
4, 78899, Note_on_c, 2, 45, 0
4, 78900, Note_on_c, 2, 44, 90
4, 78929, Note_on_c, 2, 44, 0
4, 78930, Note_on_c, 2, 42, 90
4, 78959, Note_on_c, 2, 42, 0
4, 78960, Note_on_c, 2, 40, 90
4, 78989, Note_on_c, 2, 40, 0
4, 78990, Note_on_c, 2, 38, 90
4, 79019, Note_on_c, 2, 38, 0
4, 79020, Note_on_c, 2, 40, 90
4, 79049, Note_on_c, 2, 40, 0
4, 79050, Note_on_c, 2, 42, 90
4, 79079, Note_on_c, 2, 42, 0
4, 79080, Note_on_c, 2, 44, 90
4, 79109, Note_on_c, 2, 44, 0
4, 79110, Note_on_c, 2, 40, 90
4, 79139, Note_on_c, 2, 40, 0
4, 79140, Note_on_c, 2, 45, 90
4, 79169, Note_on_c, 2, 45, 0
4, 79170, Note_on_c, 2, 47, 90
4, 79199, Note_on_c, 2, 47, 0
4, 79200, Note_on_c, 2, 49, 90
4, 79229, Note_on_c, 2, 49, 0
4, 79230, Note_on_c, 2, 50, 90
4, 79259, Note_on_c, 2, 50, 0
4, 79260, Note_on_c, 2, 47, 90
4, 79289, Note_on_c, 2, 47, 0
4, 79290, Note_on_c, 2, 49, 90
4, 79319, Note_on_c, 2, 49, 0
4, 79320, Note_on_c, 2, 45, 90
4, 79349, Note_on_c, 2, 45, 0
4, 79350, Note_on_c, 2, 47, 90
4, 79379, Note_on_c, 2, 47, 0
4, 79380, Note_on_c, 2, 49, 90
4, 79409, Note_on_c, 2, 49, 0
4, 79410, Note_on_c, 2, 50, 90
4, 79439, Note_on_c, 2, 50, 0
4, 79440, Note_on_c, 2, 47, 90
4, 79469, Note_on_c, 2, 47, 0
4, 79470, Note_on_c, 2, 49, 90
4, 79499, Note_on_c, 2, 49, 0
4, 79500, Note_on_c, 2, 45, 90
4, 79529, Note_on_c, 2, 45, 0
4, 79530, Note_on_c, 2, 47, 90
4, 79559, Note_on_c, 2, 47, 0
4, 79560, Note_on_c, 2, 49, 90
4, 79589, Note_on_c, 2, 49, 0
4, 79590, Note_on_c, 2, 47, 90
4, 79619, Note_on_c, 2, 47, 0
4, 79620, Note_on_c, 2, 49, 90
4, 79649, Note_on_c, 2, 49, 0
4, 79650, Note_on_c, 2, 50, 90
4, 79679, Note_on_c, 2, 50, 0
4, 79680, Note_on_c, 2, 52, 90
4, 79709, Note_on_c, 2, 52, 0
4, 79710, Note_on_c, 2, 50, 90
4, 79739, Note_on_c, 2, 50, 0
4, 79740, Note_on_c, 2, 49, 90
4, 79769, Note_on_c, 2, 49, 0
4, 79770, Note_on_c, 2, 45, 90
4, 79799, Note_on_c, 2, 45, 0
4, 79800, Note_on_c, 2, 47, 90
4, 79829, Note_on_c, 2, 47, 0
4, 79830, Note_on_c, 2, 49, 90
4, 79859, Note_on_c, 2, 49, 0
4, 79860, Note_on_c, 2, 50, 90
4, 79919, Note_on_c, 2, 50, 0
4, 79920, Note_on_c, 2, 62, 90
4, 79979, Note_on_c, 2, 62, 0
4, 79980, Note_on_c, 2, 64, 90
4, 80039, Note_on_c, 2, 64, 0
4, 80040, Note_on_c, 2, 66, 90
4, 80069, Note_on_c, 2, 66, 0
4, 80070, Note_on_c, 2, 64, 90
4, 80099, Note_on_c, 2, 64, 0
4, 80100, Note_on_c, 2, 62, 90
4, 80129, Note_on_c, 2, 62, 0
4, 80130, Note_on_c, 2, 61, 90
4, 80159, Note_on_c, 2, 61, 0
4, 80160, Note_on_c, 2, 59, 90
4, 80189, Note_on_c, 2, 59, 0
4, 80190, Note_on_c, 2, 57, 90
4, 80219, Note_on_c, 2, 57, 0
4, 80220, Note_on_c, 2, 55, 90
4, 80249, Note_on_c, 2, 55, 0
4, 80250, Note_on_c, 2, 54, 90
4, 80279, Note_on_c, 2, 54, 0
4, 80280, Note_on_c, 2, 52, 90
4, 80309, Note_on_c, 2, 52, 0
4, 80310, Note_on_c, 2, 50, 90
4, 80339, Note_on_c, 2, 50, 0
4, 80340, Note_on_c, 2, 49, 90
4, 80369, Note_on_c, 2, 49, 0
4, 80370, Note_on_c, 2, 47, 90
4, 80399, Note_on_c, 2, 47, 0
4, 80400, Note_on_c, 2, 45, 90
4, 80459, Note_on_c, 2, 45, 0
4, 80460, Note_on_c, 2, 43, 90
4, 80519, Note_on_c, 2, 43, 0
4, 80520, Note_on_c, 2, 45, 90
4, 80579, Note_on_c, 2, 45, 0
4, 80580, Note_on_c, 2, 38, 90
4, 80699, Note_on_c, 2, 38, 0
4, 80760, Note_on_c, 2, 48, 90
4, 80879, Note_on_c, 2, 48, 0
4, 80940, Note_on_c, 2, 47, 90
4, 80999, Note_on_c, 2, 47, 0
4, 81000, Note_on_c, 2, 59, 90
4, 81059, Note_on_c, 2, 59, 0
4, 81060, Note_on_c, 2, 57, 90
4, 81119, Note_on_c, 2, 57, 0
4, 81120, Note_on_c, 2, 55, 90
4, 81149, Note_on_c, 2, 55, 0
4, 81150, Note_on_c, 2, 57, 90
4, 81179, Note_on_c, 2, 57, 0
4, 81180, Note_on_c, 2, 59, 90
4, 81209, Note_on_c, 2, 59, 0
4, 81210, Note_on_c, 2, 55, 90
4, 81239, Note_on_c, 2, 55, 0
4, 81240, Note_on_c, 2, 57, 90
4, 81269, Note_on_c, 2, 57, 0
4, 81270, Note_on_c, 2, 59, 90
4, 81299, Note_on_c, 2, 59, 0
4, 81300, Note_on_c, 2, 52, 90
4, 81329, Note_on_c, 2, 52, 0
4, 81330, Note_on_c, 2, 54, 90
4, 81359, Note_on_c, 2, 54, 0
4, 81360, Note_on_c, 2, 55, 90
4, 81389, Note_on_c, 2, 55, 0
4, 81390, Note_on_c, 2, 52, 90
4, 81419, Note_on_c, 2, 52, 0
4, 81420, Note_on_c, 2, 54, 90
4, 81449, Note_on_c, 2, 54, 0
4, 81450, Note_on_c, 2, 55, 90
4, 81479, Note_on_c, 2, 55, 0
4, 81480, Note_on_c, 2, 49, 90
4, 81509, Note_on_c, 2, 49, 0
4, 81510, Note_on_c, 2, 50, 90
4, 81539, Note_on_c, 2, 50, 0
4, 81540, Note_on_c, 2, 52, 90
4, 81569, Note_on_c, 2, 52, 0
4, 81570, Note_on_c, 2, 49, 90
4, 81599, Note_on_c, 2, 49, 0
4, 81600, Note_on_c, 2, 50, 90
4, 81629, Note_on_c, 2, 50, 0
4, 81630, Note_on_c, 2, 52, 90
4, 81659, Note_on_c, 2, 52, 0
4, 81660, Note_on_c, 2, 45, 90
4, 81839, Note_on_c, 2, 45, 0
4, 81840, Note_on_c, 2, 57, 90
4, 81869, Note_on_c, 2, 57, 0
4, 81870, Note_on_c, 2, 59, 90
4, 81899, Note_on_c, 2, 59, 0
4, 81900, Note_on_c, 2, 61, 90
4, 81929, Note_on_c, 2, 61, 0
4, 81930, Note_on_c, 2, 57, 90
4, 81959, Note_on_c, 2, 57, 0
4, 81960, Note_on_c, 2, 59, 90
4, 81989, Note_on_c, 2, 59, 0
4, 81990, Note_on_c, 2, 61, 90
4, 82019, Note_on_c, 2, 61, 0
4, 82020, Note_on_c, 2, 54, 90
4, 82049, Note_on_c, 2, 54, 0
4, 82050, Note_on_c, 2, 55, 90
4, 82079, Note_on_c, 2, 55, 0
4, 82080, Note_on_c, 2, 57, 90
4, 82109, Note_on_c, 2, 57, 0
4, 82110, Note_on_c, 2, 54, 90
4, 82139, Note_on_c, 2, 54, 0
4, 82140, Note_on_c, 2, 55, 90
4, 82169, Note_on_c, 2, 55, 0
4, 82170, Note_on_c, 2, 57, 90
4, 82199, Note_on_c, 2, 57, 0
4, 82200, Note_on_c, 2, 50, 90
4, 82379, Note_on_c, 2, 50, 0
4, 82410, Note_on_c, 2, 52, 90
4, 82439, Note_on_c, 2, 52, 0
4, 82440, Note_on_c, 2, 54, 90
4, 82469, Note_on_c, 2, 54, 0
4, 82470, Note_on_c, 2, 50, 90
4, 82499, Note_on_c, 2, 50, 0
4, 82500, Note_on_c, 2, 52, 90
4, 82529, Note_on_c, 2, 52, 0
4, 82530, Note_on_c, 2, 54, 90
4, 82559, Note_on_c, 2, 54, 0
4, 82560, Note_on_c, 2, 47, 90
4, 82589, Note_on_c, 2, 47, 0
4, 82590, Note_on_c, 2, 49, 90
4, 82619, Note_on_c, 2, 49, 0
4, 82620, Note_on_c, 2, 50, 90
4, 82649, Note_on_c, 2, 50, 0
4, 82650, Note_on_c, 2, 47, 90
4, 82679, Note_on_c, 2, 47, 0
4, 82680, Note_on_c, 2, 49, 90
4, 82709, Note_on_c, 2, 49, 0
4, 82710, Note_on_c, 2, 50, 90
4, 82739, Note_on_c, 2, 50, 0
4, 82740, Note_on_c, 2, 43, 90
4, 82979, Note_on_c, 2, 43, 0
4, 82980, Note_on_c, 2, 42, 90
4, 83039, Note_on_c, 2, 42, 0
4, 83040, Note_on_c, 2, 40, 90
4, 83099, Note_on_c, 2, 40, 0
4, 83100, Note_on_c, 2, 45, 90
4, 83339, Note_on_c, 2, 45, 0
4, 83340, Note_on_c, 2, 43, 90
4, 83399, Note_on_c, 2, 43, 0
4, 83400, Note_on_c, 2, 42, 90
4, 83459, Note_on_c, 2, 42, 0
4, 83460, Note_on_c, 2, 47, 90
4, 83699, Note_on_c, 2, 47, 0
4, 83700, Note_on_c, 2, 45, 90
4, 83759, Note_on_c, 2, 45, 0
4, 83760, Note_on_c, 2, 43, 90
4, 83819, Note_on_c, 2, 43, 0
4, 83820, Note_on_c, 2, 45, 90
4, 84179, Note_on_c, 2, 45, 0
4, 84180, Note_on_c, 2, 57, 90
4, 84209, Note_on_c, 2, 57, 0
4, 84210, Note_on_c, 2, 59, 90
4, 84239, Note_on_c, 2, 59, 0
4, 84240, Note_on_c, 2, 61, 90
4, 84269, Note_on_c, 2, 61, 0
4, 84270, Note_on_c, 2, 62, 90
4, 84299, Note_on_c, 2, 62, 0
4, 84300, Note_on_c, 2, 59, 90
4, 84329, Note_on_c, 2, 59, 0
4, 84330, Note_on_c, 2, 61, 90
4, 84359, Note_on_c, 2, 61, 0
4, 84360, Note_on_c, 2, 57, 90
4, 84389, Note_on_c, 2, 57, 0
4, 84390, Note_on_c, 2, 59, 90
4, 84419, Note_on_c, 2, 59, 0
4, 84420, Note_on_c, 2, 61, 90
4, 84449, Note_on_c, 2, 61, 0
4, 84450, Note_on_c, 2, 62, 90
4, 84479, Note_on_c, 2, 62, 0
4, 84480, Note_on_c, 2, 59, 90
4, 84509, Note_on_c, 2, 59, 0
4, 84510, Note_on_c, 2, 61, 90
4, 84539, Note_on_c, 2, 61, 0
4, 84540, Note_on_c, 2, 50, 90
4, 84569, Note_on_c, 2, 50, 0
4, 84570, Note_on_c, 2, 52, 90
4, 84599, Note_on_c, 2, 52, 0
4, 84600, Note_on_c, 2, 54, 90
4, 84629, Note_on_c, 2, 54, 0
4, 84630, Note_on_c, 2, 55, 90
4, 84659, Note_on_c, 2, 55, 0
4, 84660, Note_on_c, 2, 52, 90
4, 84689, Note_on_c, 2, 52, 0
4, 84690, Note_on_c, 2, 54, 90
4, 84719, Note_on_c, 2, 54, 0
4, 84720, Note_on_c, 2, 50, 90
4, 84749, Note_on_c, 2, 50, 0
4, 84750, Note_on_c, 2, 52, 90
4, 84779, Note_on_c, 2, 52, 0
4, 84780, Note_on_c, 2, 54, 90
4, 84809, Note_on_c, 2, 54, 0
4, 84810, Note_on_c, 2, 55, 90
4, 84839, Note_on_c, 2, 55, 0
4, 84840, Note_on_c, 2, 52, 90
4, 84869, Note_on_c, 2, 52, 0
4, 84870, Note_on_c, 2, 54, 90
4, 84899, Note_on_c, 2, 54, 0
4, 84900, Note_on_c, 2, 55, 90
4, 84929, Note_on_c, 2, 55, 0
4, 84930, Note_on_c, 2, 57, 90
4, 84959, Note_on_c, 2, 57, 0
4, 84960, Note_on_c, 2, 59, 90
4, 84989, Note_on_c, 2, 59, 0
4, 84990, Note_on_c, 2, 60, 90
4, 85019, Note_on_c, 2, 60, 0
4, 85020, Note_on_c, 2, 57, 90
4, 85049, Note_on_c, 2, 57, 0
4, 85050, Note_on_c, 2, 59, 90
4, 85079, Note_on_c, 2, 59, 0
4, 85080, Note_on_c, 2, 55, 90
4, 85109, Note_on_c, 2, 55, 0
4, 85110, Note_on_c, 2, 57, 90
4, 85139, Note_on_c, 2, 57, 0
4, 85140, Note_on_c, 2, 59, 90
4, 85169, Note_on_c, 2, 59, 0
4, 85170, Note_on_c, 2, 60, 90
4, 85199, Note_on_c, 2, 60, 0
4, 85200, Note_on_c, 2, 57, 90
4, 85229, Note_on_c, 2, 57, 0
4, 85230, Note_on_c, 2, 59, 90
4, 85259, Note_on_c, 2, 59, 0
4, 85260, Note_on_c, 2, 49, 90
4, 85289, Note_on_c, 2, 49, 0
4, 85290, Note_on_c, 2, 50, 90
4, 85319, Note_on_c, 2, 50, 0
4, 85320, Note_on_c, 2, 52, 90
4, 85349, Note_on_c, 2, 52, 0
4, 85350, Note_on_c, 2, 54, 90
4, 85379, Note_on_c, 2, 54, 0
4, 85380, Note_on_c, 2, 50, 90
4, 85409, Note_on_c, 2, 50, 0
4, 85410, Note_on_c, 2, 52, 90
4, 85439, Note_on_c, 2, 52, 0
4, 85440, Note_on_c, 2, 49, 90
4, 85469, Note_on_c, 2, 49, 0
4, 85470, Note_on_c, 2, 50, 90
4, 85499, Note_on_c, 2, 50, 0
4, 85500, Note_on_c, 2, 52, 90
4, 85529, Note_on_c, 2, 52, 0
4, 85530, Note_on_c, 2, 54, 90
4, 85559, Note_on_c, 2, 54, 0
4, 85560, Note_on_c, 2, 50, 90
4, 85589, Note_on_c, 2, 50, 0
4, 85590, Note_on_c, 2, 52, 90
4, 85619, Note_on_c, 2, 52, 0
4, 85620, Note_on_c, 2, 54, 90
4, 85649, Note_on_c, 2, 54, 0
4, 85650, Note_on_c, 2, 55, 90
4, 85679, Note_on_c, 2, 55, 0
4, 85680, Note_on_c, 2, 57, 90
4, 85709, Note_on_c, 2, 57, 0
4, 85710, Note_on_c, 2, 59, 90
4, 85739, Note_on_c, 2, 59, 0
4, 85740, Note_on_c, 2, 55, 90
4, 85769, Note_on_c, 2, 55, 0
4, 85770, Note_on_c, 2, 57, 90
4, 85799, Note_on_c, 2, 57, 0
4, 85800, Note_on_c, 2, 54, 90
4, 85829, Note_on_c, 2, 54, 0
4, 85830, Note_on_c, 2, 55, 90
4, 85859, Note_on_c, 2, 55, 0
4, 85860, Note_on_c, 2, 57, 90
4, 85889, Note_on_c, 2, 57, 0
4, 85890, Note_on_c, 2, 59, 90
4, 85919, Note_on_c, 2, 59, 0
4, 85920, Note_on_c, 2, 55, 90
4, 85949, Note_on_c, 2, 55, 0
4, 85950, Note_on_c, 2, 57, 90
4, 85979, Note_on_c, 2, 57, 0
4, 85980, Note_on_c, 2, 47, 90
4, 86009, Note_on_c, 2, 47, 0
4, 86010, Note_on_c, 2, 49, 90
4, 86039, Note_on_c, 2, 49, 0
4, 86040, Note_on_c, 2, 50, 90
4, 86069, Note_on_c, 2, 50, 0
4, 86070, Note_on_c, 2, 52, 90
4, 86099, Note_on_c, 2, 52, 0
4, 86100, Note_on_c, 2, 49, 90
4, 86129, Note_on_c, 2, 49, 0
4, 86130, Note_on_c, 2, 50, 90
4, 86159, Note_on_c, 2, 50, 0
4, 86160, Note_on_c, 2, 47, 90
4, 86189, Note_on_c, 2, 47, 0
4, 86190, Note_on_c, 2, 49, 90
4, 86219, Note_on_c, 2, 49, 0
4, 86220, Note_on_c, 2, 50, 90
4, 86249, Note_on_c, 2, 50, 0
4, 86250, Note_on_c, 2, 52, 90
4, 86279, Note_on_c, 2, 52, 0
4, 86280, Note_on_c, 2, 49, 90
4, 86309, Note_on_c, 2, 49, 0
4, 86310, Note_on_c, 2, 50, 90
4, 86339, Note_on_c, 2, 50, 0
4, 86340, Note_on_c, 2, 52, 90
4, 86369, Note_on_c, 2, 52, 0
4, 86370, Note_on_c, 2, 54, 90
4, 86399, Note_on_c, 2, 54, 0
4, 86400, Note_on_c, 2, 55, 90
4, 86429, Note_on_c, 2, 55, 0
4, 86430, Note_on_c, 2, 57, 90
4, 86459, Note_on_c, 2, 57, 0
4, 86460, Note_on_c, 2, 54, 90
4, 86489, Note_on_c, 2, 54, 0
4, 86490, Note_on_c, 2, 55, 90
4, 86519, Note_on_c, 2, 55, 0
4, 86520, Note_on_c, 2, 52, 90
4, 86549, Note_on_c, 2, 52, 0
4, 86550, Note_on_c, 2, 54, 90
4, 86579, Note_on_c, 2, 54, 0
4, 86580, Note_on_c, 2, 55, 90
4, 86609, Note_on_c, 2, 55, 0
4, 86610, Note_on_c, 2, 57, 90
4, 86639, Note_on_c, 2, 57, 0
4, 86640, Note_on_c, 2, 54, 90
4, 86669, Note_on_c, 2, 54, 0
4, 86670, Note_on_c, 2, 55, 90
4, 86699, Note_on_c, 2, 55, 0
4, 86700, Note_on_c, 2, 45, 90
4, 86729, Note_on_c, 2, 45, 0
4, 86730, Note_on_c, 2, 47, 90
4, 86759, Note_on_c, 2, 47, 0
4, 86760, Note_on_c, 2, 49, 90
4, 86789, Note_on_c, 2, 49, 0
4, 86790, Note_on_c, 2, 50, 90
4, 86819, Note_on_c, 2, 50, 0
4, 86820, Note_on_c, 2, 47, 90
4, 86849, Note_on_c, 2, 47, 0
4, 86850, Note_on_c, 2, 49, 90
4, 86879, Note_on_c, 2, 49, 0
4, 86880, Note_on_c, 2, 45, 90
4, 86909, Note_on_c, 2, 45, 0
4, 86910, Note_on_c, 2, 47, 90
4, 86939, Note_on_c, 2, 47, 0
4, 86940, Note_on_c, 2, 49, 90
4, 86969, Note_on_c, 2, 49, 0
4, 86970, Note_on_c, 2, 50, 90
4, 86999, Note_on_c, 2, 50, 0
4, 87000, Note_on_c, 2, 47, 90
4, 87029, Note_on_c, 2, 47, 0
4, 87030, Note_on_c, 2, 49, 90
4, 87059, Note_on_c, 2, 49, 0
4, 87060, Note_on_c, 2, 50, 90
4, 87119, Note_on_c, 2, 50, 0
4, 87120, Note_on_c, 2, 54, 90
4, 87179, Note_on_c, 2, 54, 0
4, 87180, Note_on_c, 2, 57, 90
4, 87239, Note_on_c, 2, 57, 0
4, 87240, Note_on_c, 2, 62, 90
4, 87269, Note_on_c, 2, 62, 0
4, 87270, Note_on_c, 2, 64, 90
4, 87299, Note_on_c, 2, 64, 0
4, 87300, Note_on_c, 2, 62, 90
4, 87329, Note_on_c, 2, 62, 0
4, 87330, Note_on_c, 2, 61, 90
4, 87359, Note_on_c, 2, 61, 0
4, 87360, Note_on_c, 2, 59, 90
4, 87389, Note_on_c, 2, 59, 0
4, 87390, Note_on_c, 2, 62, 90
4, 87419, Note_on_c, 2, 62, 0
4, 87420, Note_on_c, 2, 61, 90
4, 87449, Note_on_c, 2, 61, 0
4, 87450, Note_on_c, 2, 59, 90
4, 87479, Note_on_c, 2, 59, 0
4, 87480, Note_on_c, 2, 61, 90
4, 87509, Note_on_c, 2, 61, 0
4, 87510, Note_on_c, 2, 62, 90
4, 87539, Note_on_c, 2, 62, 0
4, 87540, Note_on_c, 2, 61, 90
4, 87569, Note_on_c, 2, 61, 0
4, 87570, Note_on_c, 2, 59, 90
4, 87599, Note_on_c, 2, 59, 0
4, 87600, Note_on_c, 2, 57, 90
4, 87629, Note_on_c, 2, 57, 0
4, 87630, Note_on_c, 2, 55, 90
4, 87659, Note_on_c, 2, 55, 0
4, 87660, Note_on_c, 2, 57, 90
4, 87689, Note_on_c, 2, 57, 0
4, 87690, Note_on_c, 2, 59, 90
4, 87719, Note_on_c, 2, 59, 0
4, 87720, Note_on_c, 2, 61, 90
4, 87749, Note_on_c, 2, 61, 0
4, 87750, Note_on_c, 2, 57, 90
4, 87779, Note_on_c, 2, 57, 0
4, 87780, Note_on_c, 2, 62, 90
4, 87839, Note_on_c, 2, 62, 0
4, 87840, Note_on_c, 2, 54, 90
4, 87899, Note_on_c, 2, 54, 0
4, 87900, Note_on_c, 2, 57, 90
4, 87959, Note_on_c, 2, 57, 0
4, 87960, Note_on_c, 2, 62, 90
4, 88019, Note_on_c, 2, 62, 0
4, 88020, Note_on_c, 2, 54, 90
4, 88079, Note_on_c, 2, 54, 0
4, 88080, Note_on_c, 2, 57, 90
4, 88139, Note_on_c, 2, 57, 0
4, 88140, Note_on_c, 2, 60, 90
4, 88199, Note_on_c, 2, 60, 0
4, 88200, Note_on_c, 2, 57, 90
4, 88259, Note_on_c, 2, 57, 0
4, 88260, Note_on_c, 2, 59, 90
4, 88319, Note_on_c, 2, 59, 0
4, 88320, Note_on_c, 2, 52, 90
4, 88349, Note_on_c, 2, 52, 0
4, 88350, Note_on_c, 2, 54, 90
4, 88379, Note_on_c, 2, 54, 0
4, 88380, Note_on_c, 2, 55, 90
4, 88409, Note_on_c, 2, 55, 0
4, 88410, Note_on_c, 2, 52, 90
4, 88439, Note_on_c, 2, 52, 0
4, 88440, Note_on_c, 2, 54, 90
4, 88469, Note_on_c, 2, 54, 0
4, 88470, Note_on_c, 2, 55, 90
4, 88499, Note_on_c, 2, 55, 0
4, 88500, Note_on_c, 2, 49, 90
4, 88529, Note_on_c, 2, 49, 0
4, 88530, Note_on_c, 2, 50, 90
4, 88559, Note_on_c, 2, 50, 0
4, 88560, Note_on_c, 2, 52, 90
4, 88589, Note_on_c, 2, 52, 0
4, 88590, Note_on_c, 2, 49, 90
4, 88619, Note_on_c, 2, 49, 0
4, 88620, Note_on_c, 2, 50, 90
4, 88649, Note_on_c, 2, 50, 0
4, 88650, Note_on_c, 2, 52, 90
4, 88679, Note_on_c, 2, 52, 0
4, 88680, Note_on_c, 2, 45, 90
4, 88859, Note_on_c, 2, 45, 0
4, 88860, Note_on_c, 2, 57, 90
4, 88889, Note_on_c, 2, 57, 0
4, 88890, Note_on_c, 2, 59, 90
4, 88919, Note_on_c, 2, 59, 0
4, 88920, Note_on_c, 2, 61, 90
4, 88949, Note_on_c, 2, 61, 0
4, 88950, Note_on_c, 2, 57, 90
4, 88979, Note_on_c, 2, 57, 0
4, 88980, Note_on_c, 2, 59, 90
4, 89009, Note_on_c, 2, 59, 0
4, 89010, Note_on_c, 2, 61, 90
4, 89039, Note_on_c, 2, 61, 0
4, 89040, Note_on_c, 2, 54, 90
4, 89069, Note_on_c, 2, 54, 0
4, 89070, Note_on_c, 2, 55, 90
4, 89099, Note_on_c, 2, 55, 0
4, 89100, Note_on_c, 2, 57, 90
4, 89129, Note_on_c, 2, 57, 0
4, 89130, Note_on_c, 2, 54, 90
4, 89159, Note_on_c, 2, 54, 0
4, 89160, Note_on_c, 2, 55, 90
4, 89189, Note_on_c, 2, 55, 0
4, 89190, Note_on_c, 2, 57, 90
4, 89219, Note_on_c, 2, 57, 0
4, 89220, Note_on_c, 2, 50, 90
4, 89399, Note_on_c, 2, 50, 0
4, 89430, Note_on_c, 2, 52, 90
4, 89459, Note_on_c, 2, 52, 0
4, 89460, Note_on_c, 2, 54, 90
4, 89489, Note_on_c, 2, 54, 0
4, 89490, Note_on_c, 2, 50, 90
4, 89519, Note_on_c, 2, 50, 0
4, 89520, Note_on_c, 2, 52, 90
4, 89549, Note_on_c, 2, 52, 0
4, 89550, Note_on_c, 2, 54, 90
4, 89579, Note_on_c, 2, 54, 0
4, 89580, Note_on_c, 2, 47, 90
4, 89609, Note_on_c, 2, 47, 0
4, 89610, Note_on_c, 2, 48, 90
4, 89639, Note_on_c, 2, 48, 0
4, 89640, Note_on_c, 2, 50, 90
4, 89669, Note_on_c, 2, 50, 0
4, 89670, Note_on_c, 2, 47, 90
4, 89699, Note_on_c, 2, 47, 0
4, 89700, Note_on_c, 2, 48, 90
4, 89729, Note_on_c, 2, 48, 0
4, 89730, Note_on_c, 2, 50, 90
4, 89759, Note_on_c, 2, 50, 0
4, 89760, Note_on_c, 2, 43, 90
4, 89999, Note_on_c, 2, 43, 0
4, 90000, Note_on_c, 2, 42, 90
4, 90059, Note_on_c, 2, 42, 0
4, 90060, Note_on_c, 2, 40, 90
4, 90119, Note_on_c, 2, 40, 0
4, 90120, Note_on_c, 2, 45, 90
4, 90359, Note_on_c, 2, 45, 0
4, 90360, Note_on_c, 2, 43, 90
4, 90419, Note_on_c, 2, 43, 0
4, 90420, Note_on_c, 2, 42, 90
4, 90479, Note_on_c, 2, 42, 0
4, 90480, Note_on_c, 2, 47, 90
4, 90539, Note_on_c, 2, 47, 0
4, 90540, Note_on_c, 2, 48, 90
4, 90599, Note_on_c, 2, 48, 0
4, 90600, Note_on_c, 2, 50, 90
4, 90659, Note_on_c, 2, 50, 0
4, 90660, Note_on_c, 2, 43, 90
4, 91260, Note_on_c, 2, 43, 0
4, 91260, Note_on_c, 2, 42, 90
4, 91319, Note_on_c, 2, 42, 0
4, 91320, Note_on_c, 2, 40, 90
4, 91379, Note_on_c, 2, 40, 0
4, 91380, Note_on_c, 2, 45, 90
4, 91439, Note_on_c, 2, 45, 0
4, 91440, Note_on_c, 2, 45, 90
4, 91469, Note_on_c, 2, 45, 0
4, 91470, Note_on_c, 2, 47, 90
4, 91499, Note_on_c, 2, 47, 0
4, 91500, Note_on_c, 2, 45, 90
4, 91559, Note_on_c, 2, 45, 0
4, 91560, Note_on_c, 2, 45, 90
4, 91619, Note_on_c, 2, 45, 0
4, 91620, Note_on_c, 2, 54, 90
4, 91649, Note_on_c, 2, 54, 0
4, 91650, Note_on_c, 2, 52, 90
4, 91679, Note_on_c, 2, 52, 0
4, 91680, Note_on_c, 2, 50, 90
4, 91709, Note_on_c, 2, 50, 0
4, 91710, Note_on_c, 2, 54, 90
4, 91739, Note_on_c, 2, 54, 0
4, 91740, Note_on_c, 2, 52, 90
4, 91799, Note_on_c, 2, 52, 0
4, 91800, Note_on_c, 2, 45, 90
4, 91829, Note_on_c, 2, 45, 0
4, 91830, Note_on_c, 2, 47, 90
4, 91859, Note_on_c, 2, 47, 0
4, 91860, Note_on_c, 2, 45, 90
4, 91919, Note_on_c, 2, 45, 0
4, 91920, Note_on_c, 2, 45, 90
4, 91979, Note_on_c, 2, 45, 0
4, 91980, Note_on_c, 2, 55, 90
4, 92009, Note_on_c, 2, 55, 0
4, 92010, Note_on_c, 2, 54, 90
4, 92039, Note_on_c, 2, 54, 0
4, 92040, Note_on_c, 2, 52, 90
4, 92069, Note_on_c, 2, 52, 0
4, 92070, Note_on_c, 2, 55, 90
4, 92099, Note_on_c, 2, 55, 0
4, 92100, Note_on_c, 2, 54, 90
4, 92129, Note_on_c, 2, 54, 0
4, 92130, Note_on_c, 2, 55, 90
4, 92159, Note_on_c, 2, 55, 0
4, 92160, Note_on_c, 2, 57, 90
4, 92189, Note_on_c, 2, 57, 0
4, 92190, Note_on_c, 2, 59, 90
4, 92219, Note_on_c, 2, 59, 0
4, 92220, Note_on_c, 2, 55, 90
4, 92249, Note_on_c, 2, 55, 0
4, 92250, Note_on_c, 2, 57, 90
4, 92279, Note_on_c, 2, 57, 0
4, 92280, Note_on_c, 2, 54, 90
4, 92309, Note_on_c, 2, 54, 0
4, 92310, Note_on_c, 2, 55, 90
4, 92339, Note_on_c, 2, 55, 0
4, 92340, Note_on_c, 2, 57, 90
4, 92369, Note_on_c, 2, 57, 0
4, 92370, Note_on_c, 2, 59, 90
4, 92399, Note_on_c, 2, 59, 0
4, 92400, Note_on_c, 2, 55, 90
4, 92429, Note_on_c, 2, 55, 0
4, 92430, Note_on_c, 2, 57, 90
4, 92459, Note_on_c, 2, 57, 0
4, 92460, Note_on_c, 2, 54, 90
4, 92489, Note_on_c, 2, 54, 0
4, 92490, Note_on_c, 2, 55, 90
4, 92519, Note_on_c, 2, 55, 0
4, 92520, Note_on_c, 2, 57, 90
4, 92549, Note_on_c, 2, 57, 0
4, 92550, Note_on_c, 2, 55, 90
4, 92579, Note_on_c, 2, 55, 0
4, 92580, Note_on_c, 2, 57, 90
4, 92609, Note_on_c, 2, 57, 0
4, 92610, Note_on_c, 2, 59, 90
4, 92639, Note_on_c, 2, 59, 0
4, 92640, Note_on_c, 2, 52, 90
4, 92669, Note_on_c, 2, 52, 0
4, 92670, Note_on_c, 2, 54, 90
4, 92699, Note_on_c, 2, 54, 0
4, 92700, Note_on_c, 2, 55, 90
4, 92729, Note_on_c, 2, 55, 0
4, 92730, Note_on_c, 2, 54, 90
4, 92759, Note_on_c, 2, 54, 0
4, 92760, Note_on_c, 2, 55, 90
4, 92789, Note_on_c, 2, 55, 0
4, 92790, Note_on_c, 2, 57, 90
4, 92819, Note_on_c, 2, 57, 0
4, 92820, Note_on_c, 2, 50, 90
4, 92849, Note_on_c, 2, 50, 0
4, 92850, Note_on_c, 2, 52, 90
4, 92879, Note_on_c, 2, 52, 0
4, 92880, Note_on_c, 2, 54, 90
4, 92909, Note_on_c, 2, 54, 0
4, 92910, Note_on_c, 2, 52, 90
4, 92939, Note_on_c, 2, 52, 0
4, 92940, Note_on_c, 2, 54, 90
4, 92969, Note_on_c, 2, 54, 0
4, 92970, Note_on_c, 2, 55, 90
4, 92999, Note_on_c, 2, 55, 0
4, 93000, Note_on_c, 2, 49, 90
4, 93029, Note_on_c, 2, 49, 0
4, 93030, Note_on_c, 2, 50, 90
4, 93059, Note_on_c, 2, 50, 0
4, 93060, Note_on_c, 2, 52, 90
4, 93089, Note_on_c, 2, 52, 0
4, 93090, Note_on_c, 2, 50, 90
4, 93119, Note_on_c, 2, 50, 0
4, 93120, Note_on_c, 2, 52, 90
4, 93149, Note_on_c, 2, 52, 0
4, 93150, Note_on_c, 2, 54, 90
4, 93179, Note_on_c, 2, 54, 0
4, 93180, Note_on_c, 2, 47, 90
4, 93209, Note_on_c, 2, 47, 0
4, 93210, Note_on_c, 2, 49, 90
4, 93239, Note_on_c, 2, 49, 0
4, 93240, Note_on_c, 2, 50, 90
4, 93269, Note_on_c, 2, 50, 0
4, 93270, Note_on_c, 2, 49, 90
4, 93299, Note_on_c, 2, 49, 0
4, 93300, Note_on_c, 2, 50, 90
4, 93329, Note_on_c, 2, 50, 0
4, 93330, Note_on_c, 2, 52, 90
4, 93359, Note_on_c, 2, 52, 0
4, 93360, Note_on_c, 2, 45, 90
4, 93389, Note_on_c, 2, 45, 0
4, 93390, Note_on_c, 2, 47, 90
4, 93419, Note_on_c, 2, 47, 0
4, 93420, Note_on_c, 2, 49, 90
4, 93449, Note_on_c, 2, 49, 0
4, 93450, Note_on_c, 2, 47, 90
4, 93479, Note_on_c, 2, 47, 0
4, 93480, Note_on_c, 2, 49, 90
4, 93509, Note_on_c, 2, 49, 0
4, 93510, Note_on_c, 2, 50, 90
4, 93539, Note_on_c, 2, 50, 0
4, 93540, Note_on_c, 2, 43, 90
4, 93599, Note_on_c, 2, 43, 0
4, 93600, Note_on_c, 2, 45, 90
4, 93629, Note_on_c, 2, 45, 0
4, 93630, Note_on_c, 2, 43, 90
4, 93659, Note_on_c, 2, 43, 0
4, 93660, Note_on_c, 2, 45, 90
4, 93719, Note_on_c, 2, 45, 0
4, 93720, Note_on_c, 2, 38, 90
4, 93839, Note_on_c, 2, 38, 0
4, 93960, Note_on_c, 2, 47, 90
4, 94019, Note_on_c, 2, 47, 0
4, 94020, Note_on_c, 2, 59, 90
4, 94079, Note_on_c, 2, 59, 0
4, 94080, Note_on_c, 2, 58, 90
4, 94199, Note_on_c, 2, 58, 0
4, 94320, Note_on_c, 2, 54, 90
4, 94379, Note_on_c, 2, 54, 0
4, 94380, Note_on_c, 2, 58, 90
4, 94439, Note_on_c, 2, 58, 0
4, 94440, Note_on_c, 2, 59, 90
4, 94469, Note_on_c, 2, 59, 0
4, 94470, Note_on_c, 2, 61, 90
4, 94499, Note_on_c, 2, 61, 0
4, 94500, Note_on_c, 2, 62, 90
4, 94529, Note_on_c, 2, 62, 0
4, 94530, Note_on_c, 2, 64, 90
4, 94559, Note_on_c, 2, 64, 0
4, 94560, Note_on_c, 2, 61, 90
4, 94589, Note_on_c, 2, 61, 0
4, 94590, Note_on_c, 2, 62, 90
4, 94619, Note_on_c, 2, 62, 0
4, 94620, Note_on_c, 2, 59, 90
4, 94649, Note_on_c, 2, 59, 0
4, 94650, Note_on_c, 2, 61, 90
4, 94679, Note_on_c, 2, 61, 0
4, 94680, Note_on_c, 2, 62, 90
4, 94709, Note_on_c, 2, 62, 0
4, 94710, Note_on_c, 2, 64, 90
4, 94739, Note_on_c, 2, 64, 0
4, 94740, Note_on_c, 2, 61, 90
4, 94769, Note_on_c, 2, 61, 0
4, 94770, Note_on_c, 2, 62, 90
4, 94799, Note_on_c, 2, 62, 0
4, 94800, Note_on_c, 2, 59, 90
4, 94829, Note_on_c, 2, 59, 0
4, 94830, Note_on_c, 2, 61, 90
4, 94859, Note_on_c, 2, 61, 0
4, 94860, Note_on_c, 2, 62, 90
4, 94889, Note_on_c, 2, 62, 0
4, 94890, Note_on_c, 2, 59, 90
4, 94919, Note_on_c, 2, 59, 0
4, 94920, Note_on_c, 2, 61, 90
4, 94949, Note_on_c, 2, 61, 0
4, 94950, Note_on_c, 2, 62, 90
4, 94979, Note_on_c, 2, 62, 0
4, 94980, Note_on_c, 2, 61, 90
4, 94980, Note_on_c, 2, 56, 90
4, 94980, Note_on_c, 2, 53, 90
4, 95159, Note_on_c, 2, 53, 0
4, 95159, Note_on_c, 2, 56, 0
4, 95160, Note_on_c, 2, 57, 90
4, 95160, Note_on_c, 2, 54, 90
4, 95220, Note_on_c, 2, 61, 0
4, 95220, Note_on_c, 2, 62, 90
4, 95340, Note_on_c, 2, 57, 0
4, 95340, Note_on_c, 2, 56, 90
4, 95340, Note_on_c, 2, 59, 90
4, 95400, Note_on_c, 2, 62, 0
4, 95520, Note_on_c, 2, 54, 0
4, 95520, Note_on_c, 2, 59, 0
4, 95520, Note_on_c, 2, 53, 90
4, 95520, Note_on_c, 2, 61, 90
4, 95700, Note_on_c, 2, 61, 0
4, 95700, Note_on_c, 2, 53, 0
4, 95700, Note_on_c, 2, 56, 0
4, 95700, Note_on_c, 2, 54, 90
4, 95759, Note_on_c, 2, 54, 0
4, 95760, Note_on_c, 2, 57, 90
4, 95819, Note_on_c, 2, 57, 0
4, 95820, Note_on_c, 2, 61, 90
4, 95879, Note_on_c, 2, 61, 0
4, 95880, Note_on_c, 2, 54, 90
4, 95939, Note_on_c, 2, 54, 0
4, 95940, Note_on_c, 2, 57, 90
4, 95999, Note_on_c, 2, 57, 0
4, 96000, Note_on_c, 2, 61, 90
4, 96059, Note_on_c, 2, 61, 0
4, 96060, Note_on_c, 2, 54, 90
4, 96089, Note_on_c, 2, 54, 0
4, 96090, Note_on_c, 2, 56, 90
4, 96119, Note_on_c, 2, 56, 0
4, 96120, Note_on_c, 2, 57, 90
4, 96149, Note_on_c, 2, 57, 0
4, 96150, Note_on_c, 2, 54, 90
4, 96179, Note_on_c, 2, 54, 0
4, 96180, Note_on_c, 2, 56, 90
4, 96209, Note_on_c, 2, 56, 0
4, 96210, Note_on_c, 2, 57, 90
4, 96239, Note_on_c, 2, 57, 0
4, 96240, Note_on_c, 2, 59, 90
4, 96269, Note_on_c, 2, 59, 0
4, 96270, Note_on_c, 2, 61, 90
4, 96299, Note_on_c, 2, 61, 0
4, 96300, Note_on_c, 2, 62, 90
4, 96329, Note_on_c, 2, 62, 0
4, 96330, Note_on_c, 2, 59, 90
4, 96359, Note_on_c, 2, 59, 0
4, 96360, Note_on_c, 2, 61, 90
4, 96389, Note_on_c, 2, 61, 0
4, 96390, Note_on_c, 2, 62, 90
4, 96419, Note_on_c, 2, 62, 0
4, 96420, Note_on_c, 2, 52, 90
4, 96449, Note_on_c, 2, 52, 0
4, 96450, Note_on_c, 2, 54, 90
4, 96479, Note_on_c, 2, 54, 0
4, 96480, Note_on_c, 2, 56, 90
4, 96509, Note_on_c, 2, 56, 0
4, 96510, Note_on_c, 2, 52, 90
4, 96539, Note_on_c, 2, 52, 0
4, 96540, Note_on_c, 2, 54, 90
4, 96569, Note_on_c, 2, 54, 0
4, 96570, Note_on_c, 2, 56, 90
4, 96599, Note_on_c, 2, 56, 0
4, 96600, Note_on_c, 2, 57, 90
4, 96629, Note_on_c, 2, 57, 0
4, 96630, Note_on_c, 2, 59, 90
4, 96659, Note_on_c, 2, 59, 0
4, 96660, Note_on_c, 2, 61, 90
4, 96689, Note_on_c, 2, 61, 0
4, 96690, Note_on_c, 2, 57, 90
4, 96719, Note_on_c, 2, 57, 0
4, 96720, Note_on_c, 2, 59, 90
4, 96749, Note_on_c, 2, 59, 0
4, 96750, Note_on_c, 2, 61, 90
4, 96779, Note_on_c, 2, 61, 0
4, 96780, Note_on_c, 2, 50, 90
4, 96809, Note_on_c, 2, 50, 0
4, 96810, Note_on_c, 2, 52, 90
4, 96839, Note_on_c, 2, 52, 0
4, 96840, Note_on_c, 2, 54, 90
4, 96869, Note_on_c, 2, 54, 0
4, 96870, Note_on_c, 2, 50, 90
4, 96899, Note_on_c, 2, 50, 0
4, 96900, Note_on_c, 2, 52, 90
4, 96929, Note_on_c, 2, 52, 0
4, 96930, Note_on_c, 2, 54, 90
4, 96959, Note_on_c, 2, 54, 0
4, 96960, Note_on_c, 2, 56, 90
4, 96989, Note_on_c, 2, 56, 0
4, 96990, Note_on_c, 2, 57, 90
4, 97019, Note_on_c, 2, 57, 0
4, 97020, Note_on_c, 2, 59, 90
4, 97049, Note_on_c, 2, 59, 0
4, 97050, Note_on_c, 2, 56, 90
4, 97079, Note_on_c, 2, 56, 0
4, 97080, Note_on_c, 2, 57, 90
4, 97109, Note_on_c, 2, 57, 0
4, 97110, Note_on_c, 2, 59, 90
4, 97139, Note_on_c, 2, 59, 0
4, 97140, Note_on_c, 2, 49, 90
4, 97860, Note_on_c, 2, 49, 0
4, 97890, Note_on_c, 2, 50, 90
4, 97919, Note_on_c, 2, 50, 0
4, 97920, Note_on_c, 2, 49, 90
4, 97949, Note_on_c, 2, 49, 0
4, 97950, Note_on_c, 2, 47, 90
4, 97979, Note_on_c, 2, 47, 0
4, 97980, Note_on_c, 2, 45, 90
4, 98009, Note_on_c, 2, 45, 0
4, 98010, Note_on_c, 2, 44, 90
4, 98039, Note_on_c, 2, 44, 0
4, 98040, Note_on_c, 2, 45, 90
4, 98099, Note_on_c, 2, 45, 0
4, 98100, Note_on_c, 2, 42, 90
4, 98159, Note_on_c, 2, 42, 0
4, 98160, Note_on_c, 2, 45, 90
4, 98219, Note_on_c, 2, 45, 0
4, 98220, Note_on_c, 2, 47, 90
4, 98249, Note_on_c, 2, 47, 0
4, 98250, Note_on_c, 2, 49, 90
4, 98279, Note_on_c, 2, 49, 0
4, 98280, Note_on_c, 2, 51, 90
4, 98309, Note_on_c, 2, 51, 0
4, 98310, Note_on_c, 2, 52, 90
4, 98339, Note_on_c, 2, 52, 0
4, 98340, Note_on_c, 2, 51, 90
4, 98369, Note_on_c, 2, 51, 0
4, 98370, Note_on_c, 2, 49, 90
4, 98399, Note_on_c, 2, 49, 0
4, 98400, Note_on_c, 2, 47, 90
4, 98459, Note_on_c, 2, 47, 0
4, 98460, Note_on_c, 2, 44, 90
4, 98519, Note_on_c, 2, 44, 0
4, 98520, Note_on_c, 2, 47, 90
4, 98579, Note_on_c, 2, 47, 0
4, 98580, Note_on_c, 2, 49, 90
4, 98609, Note_on_c, 2, 49, 0
4, 98610, Note_on_c, 2, 51, 90
4, 98639, Note_on_c, 2, 51, 0
4, 98640, Note_on_c, 2, 53, 90
4, 98669, Note_on_c, 2, 53, 0
4, 98670, Note_on_c, 2, 49, 90
4, 98699, Note_on_c, 2, 49, 0
4, 98700, Note_on_c, 2, 54, 90
4, 98759, Note_on_c, 2, 54, 0
4, 98760, Note_on_c, 2, 47, 90
4, 98819, Note_on_c, 2, 47, 0
4, 98820, Note_on_c, 2, 49, 90
4, 98879, Note_on_c, 2, 49, 0
4, 98880, Note_on_c, 2, 37, 90
4, 98939, Note_on_c, 2, 37, 0
4, 98940, Note_on_c, 2, 42, 90
4, 98999, Note_on_c, 2, 42, 0
4, 99120, Note_on_c, 2, 60, 90
4, 99149, Note_on_c, 2, 60, 0
4, 99150, Note_on_c, 2, 63, 90
4, 99179, Note_on_c, 2, 63, 0
4, 99180, Note_on_c, 2, 68, 90
4, 99209, Note_on_c, 2, 68, 0
4, 99300, Note_on_c, 2, 61, 90
4, 99329, Note_on_c, 2, 61, 0
4, 99330, Note_on_c, 2, 64, 90
4, 99359, Note_on_c, 2, 64, 0
4, 99360, Note_on_c, 2, 68, 90
4, 99389, Note_on_c, 2, 68, 0
4, 99480, Note_on_c, 2, 58, 90
4, 99509, Note_on_c, 2, 58, 0
4, 99510, Note_on_c, 2, 61, 90
4, 99539, Note_on_c, 2, 61, 0
4, 99540, Note_on_c, 2, 66, 90
4, 99569, Note_on_c, 2, 66, 0
4, 99660, Note_on_c, 2, 59, 90
4, 99720, Note_on_c, 2, 59, 0
4, 100380, Note_on_c, 2, 64, 90
4, 100440, Note_on_c, 2, 64, 0
4, 100560, Note_on_c, 2, 61, 90
4, 100620, Note_on_c, 2, 61, 0
4, 100740, Note_on_c, 2, 62, 90
4, 100800, Note_on_c, 2, 62, 0
4, 100920, Note_on_c, 2, 59, 90
4, 100980, Note_on_c, 2, 59, 0
4, 101100, Note_on_c, 2, 60, 90
4, 101160, Note_on_c, 2, 60, 0
4, 101280, Note_on_c, 2, 58, 90
4, 101340, Note_on_c, 2, 58, 0
4, 101460, Note_on_c, 2, 59, 90
4, 101520, Note_on_c, 2, 59, 0
4, 101820, Note_on_c, 2, 59, 90
4, 101820, Note_on_c, 2, 63, 90
4, 101820, Note_on_c, 2, 66, 90
4, 101880, Note_on_c, 2, 66, 0
4, 101880, Note_on_c, 2, 63, 0
4, 101880, Note_on_c, 2, 59, 0
4, 102000, Note_on_c, 2, 62, 90
4, 102000, Note_on_c, 2, 68, 90
4, 102060, Note_on_c, 2, 68, 0
4, 102060, Note_on_c, 2, 62, 0
4, 103440, Note_on_c, 2, 63, 90
4, 103499, Note_on_c, 2, 63, 0
4, 103500, Note_on_c, 2, 64, 90
4, 103559, Note_on_c, 2, 64, 0
4, 103560, Note_on_c, 2, 52, 90
4, 103619, Note_on_c, 2, 52, 0
4, 103620, Note_on_c, 2, 57, 90
4, 103679, Note_on_c, 2, 57, 0
4, 103680, Note_on_c, 2, 49, 90
4, 103739, Note_on_c, 2, 49, 0
4, 103740, Note_on_c, 2, 52, 90
4, 103799, Note_on_c, 2, 52, 0
4, 103800, Note_on_c, 2, 45, 90
4, 103859, Note_on_c, 2, 45, 0
4, 103860, Note_on_c, 2, 57, 90
4, 103889, Note_on_c, 2, 57, 0
4, 103890, Note_on_c, 2, 56, 90
4, 103919, Note_on_c, 2, 56, 0
4, 103920, Note_on_c, 2, 54, 90
4, 103949, Note_on_c, 2, 54, 0
4, 103950, Note_on_c, 2, 57, 90
4, 103979, Note_on_c, 2, 57, 0
4, 103980, Note_on_c, 2, 56, 90
4, 104009, Note_on_c, 2, 56, 0
4, 104010, Note_on_c, 2, 57, 90
4, 104039, Note_on_c, 2, 57, 0
4, 104040, Note_on_c, 2, 59, 90
4, 104069, Note_on_c, 2, 59, 0
4, 104070, Note_on_c, 2, 57, 90
4, 104099, Note_on_c, 2, 57, 0
4, 104100, Note_on_c, 2, 56, 90
4, 104129, Note_on_c, 2, 56, 0
4, 104130, Note_on_c, 2, 54, 90
4, 104159, Note_on_c, 2, 54, 0
4, 104160, Note_on_c, 2, 52, 90
4, 104279, Note_on_c, 2, 52, 0
4, 104280, Note_on_c, 2, 40, 90
4, 104340, Note_on_c, 2, 40, 0
4, 104340, Note_on_c, 2, 45, 90
4, 104459, Note_on_c, 2, 45, 0
4, 105000, Note_on_c, 2, 45, 90
4, 105060, Note_on_c, 2, 45, 0
4, 105060, Note_on_c, 2, 50, 90
4, 105060, Note_on_c, 2, 57, 90
4, 105120, Note_on_c, 2, 57, 0
4, 105120, Note_on_c, 2, 50, 0
4, 105720, Note_on_c, 2, 50, 90
4, 105780, Note_on_c, 2, 50, 0
4, 105780, Note_on_c, 2, 54, 90
4, 105780, Note_on_c, 2, 59, 90
4, 105780, Note_on_c, 2, 51, 90
4, 105840, Note_on_c, 2, 51, 0
4, 105840, Note_on_c, 2, 59, 0
4, 105840, Note_on_c, 2, 54, 0
4, 106440, Note_on_c, 2, 47, 90
4, 106440, Note_on_c, 2, 59, 90
4, 106500, Note_on_c, 2, 59, 0
4, 106500, Note_on_c, 2, 47, 0
4, 106500, Note_on_c, 2, 52, 90
4, 106560, Note_on_c, 2, 52, 0
4, 106560, Note_on_c, 2, 64, 90
4, 106620, Note_on_c, 2, 64, 0
4, 106620, Note_on_c, 2, 52, 90
4, 106680, Note_on_c, 2, 52, 0
4, 106680, Note_on_c, 2, 50, 90
4, 106740, Note_on_c, 2, 50, 0
4, 106740, Note_on_c, 2, 62, 90
4, 106800, Note_on_c, 2, 62, 0
4, 106800, Note_on_c, 2, 50, 90
4, 106860, Note_on_c, 2, 50, 0
4, 106860, Note_on_c, 2, 49, 90
4, 106980, Note_on_c, 2, 49, 0
4, 107100, Note_on_c, 2, 54, 90
4, 107160, Note_on_c, 2, 54, 0
4, 107160, Note_on_c, 2, 42, 90
4, 107220, Note_on_c, 2, 42, 0
4, 107220, Note_on_c, 2, 47, 90
4, 107340, Note_on_c, 2, 47, 0
4, 107520, Note_on_c, 2, 50, 90
4, 107520, Note_on_c, 2, 57, 90
4, 107580, Note_on_c, 2, 57, 0
4, 107580, Note_on_c, 2, 50, 0
4, 107580, Note_on_c, 2, 43, 90
4, 107580, Note_on_c, 2, 55, 90
4, 107640, Note_on_c, 2, 55, 0
4, 107640, Note_on_c, 2, 43, 0
4, 107880, Note_on_c, 2, 40, 90
4, 107939, Note_on_c, 2, 40, 0
4, 107940, Note_on_c, 2, 38, 90
4, 107999, Note_on_c, 2, 38, 0
4, 108000, Note_on_c, 2, 57, 90
4, 108059, Note_on_c, 2, 57, 0
4, 108060, Note_on_c, 2, 54, 90
4, 108119, Note_on_c, 2, 54, 0
4, 108120, Note_on_c, 2, 51, 90
4, 108179, Note_on_c, 2, 51, 0
4, 108180, Note_on_c, 2, 48, 90
4, 108239, Note_on_c, 2, 48, 0
4, 108240, Note_on_c, 2, 45, 90
4, 108299, Note_on_c, 2, 45, 0
4, 108300, Note_on_c, 2, 42, 90
4, 108359, Note_on_c, 2, 42, 0
4, 108360, Note_on_c, 2, 38, 90
4, 108419, Note_on_c, 2, 38, 0
4, 108420, Note_on_c, 2, 50, 90
4, 108479, Note_on_c, 2, 50, 0
4, 108480, Note_on_c, 2, 52, 90
4, 108539, Note_on_c, 2, 52, 0
4, 108540, Note_on_c, 2, 47, 90
4, 108599, Note_on_c, 2, 47, 0
4, 108600, Note_on_c, 2, 50, 90
4, 108659, Note_on_c, 2, 50, 0
4, 108660, Note_on_c, 2, 43, 90
4, 108719, Note_on_c, 2, 43, 0
4, 108720, Note_on_c, 2, 47, 90
4, 108779, Note_on_c, 2, 47, 0
4, 108780, Note_on_c, 2, 50, 90
4, 108839, Note_on_c, 2, 50, 0
4, 108840, Note_on_c, 2, 55, 90
4, 108869, Note_on_c, 2, 55, 0
4, 108870, Note_on_c, 2, 57, 90
4, 108899, Note_on_c, 2, 57, 0
4, 108900, Note_on_c, 2, 55, 90
4, 108929, Note_on_c, 2, 55, 0
4, 108930, Note_on_c, 2, 54, 90
4, 108959, Note_on_c, 2, 54, 0
4, 108960, Note_on_c, 2, 52, 90
4, 108989, Note_on_c, 2, 52, 0
4, 108990, Note_on_c, 2, 55, 90
4, 109019, Note_on_c, 2, 55, 0
4, 109020, Note_on_c, 2, 54, 90
4, 109049, Note_on_c, 2, 54, 0
4, 109050, Note_on_c, 2, 52, 90
4, 109079, Note_on_c, 2, 52, 0
4, 109080, Note_on_c, 2, 54, 90
4, 109109, Note_on_c, 2, 54, 0
4, 109110, Note_on_c, 2, 55, 90
4, 109139, Note_on_c, 2, 55, 0
4, 109140, Note_on_c, 2, 54, 90
4, 109169, Note_on_c, 2, 54, 0
4, 109170, Note_on_c, 2, 52, 90
4, 109199, Note_on_c, 2, 52, 0
4, 109200, Note_on_c, 2, 50, 90
4, 109229, Note_on_c, 2, 50, 0
4, 109230, Note_on_c, 2, 48, 90
4, 109259, Note_on_c, 2, 48, 0
4, 109260, Note_on_c, 2, 50, 90
4, 109289, Note_on_c, 2, 50, 0
4, 109290, Note_on_c, 2, 52, 90
4, 109319, Note_on_c, 2, 52, 0
4, 109320, Note_on_c, 2, 54, 90
4, 109349, Note_on_c, 2, 54, 0
4, 109350, Note_on_c, 2, 50, 90
4, 109379, Note_on_c, 2, 50, 0
4, 109380, Note_on_c, 2, 55, 90
4, 109439, Note_on_c, 2, 55, 0
4, 109440, Note_on_c, 2, 47, 90
4, 109499, Note_on_c, 2, 47, 0
4, 109500, Note_on_c, 2, 50, 90
4, 109559, Note_on_c, 2, 50, 0
4, 109560, Note_on_c, 2, 55, 90
4, 109619, Note_on_c, 2, 55, 0
4, 109620, Note_on_c, 2, 47, 90
4, 109679, Note_on_c, 2, 47, 0
4, 109680, Note_on_c, 2, 50, 90
4, 109739, Note_on_c, 2, 50, 0
4, 109740, Note_on_c, 2, 55, 90
4, 109799, Note_on_c, 2, 55, 0
4, 109800, Note_on_c, 2, 54, 90
4, 109859, Note_on_c, 2, 54, 0
4, 109860, Note_on_c, 2, 52, 90
4, 109919, Note_on_c, 2, 52, 0
4, 109920, Note_on_c, 2, 57, 90
4, 109949, Note_on_c, 2, 57, 0
4, 109950, Note_on_c, 2, 59, 90
4, 109979, Note_on_c, 2, 59, 0
4, 109980, Note_on_c, 2, 57, 90
4, 110009, Note_on_c, 2, 57, 0
4, 110010, Note_on_c, 2, 55, 90
4, 110039, Note_on_c, 2, 55, 0
4, 110040, Note_on_c, 2, 54, 90
4, 110069, Note_on_c, 2, 54, 0
4, 110070, Note_on_c, 2, 52, 90
4, 110099, Note_on_c, 2, 52, 0
4, 110100, Note_on_c, 2, 50, 90
4, 110159, Note_on_c, 2, 50, 0
4, 110160, Note_on_c, 2, 54, 90
4, 110219, Note_on_c, 2, 54, 0
4, 110220, Note_on_c, 2, 57, 90
4, 110279, Note_on_c, 2, 57, 0
4, 110280, Note_on_c, 2, 62, 90
4, 110309, Note_on_c, 2, 62, 0
4, 110310, Note_on_c, 2, 64, 90
4, 110339, Note_on_c, 2, 64, 0
4, 110340, Note_on_c, 2, 62, 90
4, 110369, Note_on_c, 2, 62, 0
4, 110370, Note_on_c, 2, 61, 90
4, 110399, Note_on_c, 2, 61, 0
4, 110400, Note_on_c, 2, 59, 90
4, 110429, Note_on_c, 2, 59, 0
4, 110430, Note_on_c, 2, 62, 90
4, 110459, Note_on_c, 2, 62, 0
4, 110460, Note_on_c, 2, 61, 90
4, 110489, Note_on_c, 2, 61, 0
4, 110490, Note_on_c, 2, 59, 90
4, 110519, Note_on_c, 2, 59, 0
4, 110520, Note_on_c, 2, 61, 90
4, 110549, Note_on_c, 2, 61, 0
4, 110550, Note_on_c, 2, 62, 90
4, 110579, Note_on_c, 2, 62, 0
4, 110580, Note_on_c, 2, 61, 90
4, 110609, Note_on_c, 2, 61, 0
4, 110610, Note_on_c, 2, 59, 90
4, 110639, Note_on_c, 2, 59, 0
4, 110640, Note_on_c, 2, 57, 90
4, 110669, Note_on_c, 2, 57, 0
4, 110670, Note_on_c, 2, 55, 90
4, 110699, Note_on_c, 2, 55, 0
4, 110700, Note_on_c, 2, 57, 90
4, 110729, Note_on_c, 2, 57, 0
4, 110730, Note_on_c, 2, 59, 90
4, 110759, Note_on_c, 2, 59, 0
4, 110760, Note_on_c, 2, 61, 90
4, 110789, Note_on_c, 2, 61, 0
4, 110790, Note_on_c, 2, 57, 90
4, 110819, Note_on_c, 2, 57, 0
4, 110820, Note_on_c, 2, 62, 90
4, 110879, Note_on_c, 2, 62, 0
4, 110880, Note_on_c, 2, 54, 90
4, 110939, Note_on_c, 2, 54, 0
4, 110940, Note_on_c, 2, 57, 90
4, 110999, Note_on_c, 2, 57, 0
4, 111000, Note_on_c, 2, 62, 90
4, 111059, Note_on_c, 2, 62, 0
4, 111060, Note_on_c, 2, 54, 90
4, 111119, Note_on_c, 2, 54, 0
4, 111120, Note_on_c, 2, 57, 90
4, 111179, Note_on_c, 2, 57, 0
4, 111180, Note_on_c, 2, 50, 90
4, 111209, Note_on_c, 2, 50, 0
4, 111210, Note_on_c, 2, 52, 90
4, 111239, Note_on_c, 2, 52, 0
4, 111240, Note_on_c, 2, 54, 90
4, 111269, Note_on_c, 2, 54, 0
4, 111270, Note_on_c, 2, 52, 90
4, 111299, Note_on_c, 2, 52, 0
4, 111300, Note_on_c, 2, 54, 90
4, 111329, Note_on_c, 2, 54, 0
4, 111330, Note_on_c, 2, 55, 90
4, 111359, Note_on_c, 2, 55, 0
4, 111360, Note_on_c, 2, 57, 90
4, 111419, Note_on_c, 2, 57, 0
4, 111420, Note_on_c, 2, 52, 90
4, 111449, Note_on_c, 2, 52, 0
4, 111450, Note_on_c, 2, 50, 90
4, 111479, Note_on_c, 2, 50, 0
4, 111480, Note_on_c, 2, 52, 90
4, 111509, Note_on_c, 2, 52, 0
4, 111510, Note_on_c, 2, 54, 90
4, 111539, Note_on_c, 2, 54, 0
4, 111540, Note_on_c, 2, 55, 90
4, 111599, Note_on_c, 2, 55, 0
4, 111600, Note_on_c, 2, 50, 90
4, 111629, Note_on_c, 2, 50, 0
4, 111630, Note_on_c, 2, 49, 90
4, 111659, Note_on_c, 2, 49, 0
4, 111660, Note_on_c, 2, 50, 90
4, 111689, Note_on_c, 2, 50, 0
4, 111690, Note_on_c, 2, 52, 90
4, 111719, Note_on_c, 2, 52, 0
4, 111720, Note_on_c, 2, 54, 90
4, 111779, Note_on_c, 2, 54, 0
4, 111780, Note_on_c, 2, 49, 90
4, 111809, Note_on_c, 2, 49, 0
4, 111810, Note_on_c, 2, 47, 90
4, 111839, Note_on_c, 2, 47, 0
4, 111840, Note_on_c, 2, 49, 90
4, 111869, Note_on_c, 2, 49, 0
4, 111870, Note_on_c, 2, 50, 90
4, 111899, Note_on_c, 2, 50, 0
4, 111900, Note_on_c, 2, 52, 90
4, 111959, Note_on_c, 2, 52, 0
4, 111960, Note_on_c, 2, 47, 90
4, 112019, Note_on_c, 2, 47, 0
4, 112020, Note_on_c, 2, 52, 90
4, 112079, Note_on_c, 2, 52, 0
4, 112080, Note_on_c, 2, 45, 90
4, 112139, Note_on_c, 2, 45, 0
4, 112140, Note_on_c, 2, 43, 90
4, 112199, Note_on_c, 2, 43, 0
4, 112200, Note_on_c, 2, 42, 90
4, 112259, Note_on_c, 2, 42, 0
4, 112260, Note_on_c, 2, 43, 90
4, 112319, Note_on_c, 2, 43, 0
4, 112320, Note_on_c, 2, 45, 90
4, 112379, Note_on_c, 2, 45, 0
4, 112380, Note_on_c, 2, 33, 90
4, 112439, Note_on_c, 2, 33, 0
4, 112440, Note_on_c, 2, 50, 90
4, 112469, Note_on_c, 2, 50, 0
4, 112470, Note_on_c, 2, 49, 90
4, 112499, Note_on_c, 2, 49, 0
4, 112500, Note_on_c, 2, 47, 90
4, 112529, Note_on_c, 2, 47, 0
4, 112530, Note_on_c, 2, 49, 90
4, 112559, Note_on_c, 2, 49, 0
4, 112560, Note_on_c, 2, 50, 90
4, 112589, Note_on_c, 2, 50, 0
4, 112590, Note_on_c, 2, 52, 90
4, 112619, Note_on_c, 2, 52, 0
4, 112620, Note_on_c, 2, 49, 90
4, 112649, Note_on_c, 2, 49, 0
4, 112650, Note_on_c, 2, 50, 90
4, 112679, Note_on_c, 2, 50, 0
4, 112680, Note_on_c, 2, 52, 90
4, 112709, Note_on_c, 2, 52, 0
4, 112710, Note_on_c, 2, 45, 90
4, 112739, Note_on_c, 2, 45, 0
4, 112740, Note_on_c, 2, 47, 90
4, 112769, Note_on_c, 2, 47, 0
4, 112770, Note_on_c, 2, 49, 90
4, 112799, Note_on_c, 2, 49, 0
4, 112800, Note_on_c, 2, 47, 90
4, 112829, Note_on_c, 2, 47, 0
4, 112830, Note_on_c, 2, 49, 90
4, 112859, Note_on_c, 2, 49, 0
4, 112860, Note_on_c, 2, 50, 90
4, 112889, Note_on_c, 2, 50, 0
4, 112890, Note_on_c, 2, 43, 90
4, 112919, Note_on_c, 2, 43, 0
4, 112920, Note_on_c, 2, 45, 90
4, 112949, Note_on_c, 2, 45, 0
4, 112950, Note_on_c, 2, 47, 90
4, 112979, Note_on_c, 2, 47, 0
4, 112980, Note_on_c, 2, 45, 90
4, 113009, Note_on_c, 2, 45, 0
4, 113010, Note_on_c, 2, 47, 90
4, 113039, Note_on_c, 2, 47, 0
4, 113040, Note_on_c, 2, 49, 90
4, 113069, Note_on_c, 2, 49, 0
4, 113070, Note_on_c, 2, 42, 90
4, 113099, Note_on_c, 2, 42, 0
4, 113100, Note_on_c, 2, 43, 90
4, 113129, Note_on_c, 2, 43, 0
4, 113130, Note_on_c, 2, 45, 90
4, 113159, Note_on_c, 2, 45, 0
4, 113160, Note_on_c, 2, 43, 90
4, 113189, Note_on_c, 2, 43, 0
4, 113190, Note_on_c, 2, 45, 90
4, 113219, Note_on_c, 2, 45, 0
4, 113220, Note_on_c, 2, 47, 90
4, 113249, Note_on_c, 2, 47, 0
4, 113250, Note_on_c, 2, 40, 90
4, 113279, Note_on_c, 2, 40, 0
4, 113280, Note_on_c, 2, 42, 90
4, 113309, Note_on_c, 2, 42, 0
4, 113310, Note_on_c, 2, 43, 90
4, 113339, Note_on_c, 2, 43, 0
4, 113340, Note_on_c, 2, 45, 90
4, 113369, Note_on_c, 2, 45, 0
4, 113370, Note_on_c, 2, 47, 90
4, 113399, Note_on_c, 2, 47, 0
4, 113400, Note_on_c, 2, 45, 90
4, 113429, Note_on_c, 2, 45, 0
4, 113430, Note_on_c, 2, 43, 90
4, 113459, Note_on_c, 2, 43, 0
4, 113460, Note_on_c, 2, 42, 90
4, 113489, Note_on_c, 2, 42, 0
4, 113490, Note_on_c, 2, 40, 90
4, 113519, Note_on_c, 2, 40, 0
4, 113520, Note_on_c, 2, 42, 90
4, 113549, Note_on_c, 2, 42, 0
4, 113550, Note_on_c, 2, 43, 90
4, 113579, Note_on_c, 2, 43, 0
4, 113580, Note_on_c, 2, 45, 90
4, 113639, Note_on_c, 2, 45, 0
4, 113640, Note_on_c, 2, 33, 90
4, 113699, Note_on_c, 2, 33, 0
4, 113700, Note_on_c, 2, 38, 90
4, 114059, Note_on_c, 2, 38, 0
4, 114059, End_track
5, 0, Start_track
5, 0, MIDI_port, 0
5, 0, Program_c, 3, 42
5, 0, Note_on_c, 3, 62, 90
5, 119, Note_on_c, 3, 62, 0
5, 180, Note_on_c, 3, 57, 90
5, 239, Note_on_c, 3, 57, 0
5, 240, Note_on_c, 3, 59, 90
5, 329, Note_on_c, 3, 59, 0
5, 330, Note_on_c, 3, 61, 90
5, 344, Note_on_c, 3, 61, 0
5, 345, Note_on_c, 3, 62, 90
5, 359, Note_on_c, 3, 62, 0
5, 360, Note_on_c, 3, 55, 90
5, 389, Note_on_c, 3, 55, 0
5, 390, Note_on_c, 3, 54, 90
5, 400, Note_on_c, 3, 54, 0
5, 400, Note_on_c, 3, 55, 90
5, 410, Note_on_c, 3, 55, 0
5, 410, Note_on_c, 3, 54, 90
5, 420, Note_on_c, 3, 54, 0
5, 420, Note_on_c, 3, 52, 90
5, 449, Note_on_c, 3, 52, 0
5, 450, Note_on_c, 3, 50, 90
5, 479, Note_on_c, 3, 50, 0
5, 480, Note_on_c, 3, 62, 90
5, 839, Note_on_c, 3, 62, 0
5, 870, Note_on_c, 3, 61, 90
5, 899, Note_on_c, 3, 61, 0
5, 900, Note_on_c, 3, 62, 90
5, 929, Note_on_c, 3, 62, 0
5, 930, Note_on_c, 3, 66, 90
5, 959, Note_on_c, 3, 66, 0
5, 960, Note_on_c, 3, 64, 90
5, 989, Note_on_c, 3, 64, 0
5, 990, Note_on_c, 3, 62, 90
5, 1019, Note_on_c, 3, 62, 0
5, 1020, Note_on_c, 3, 61, 90
5, 1049, Note_on_c, 3, 61, 0
5, 1050, Note_on_c, 3, 62, 90
5, 1079, Note_on_c, 3, 62, 0
5, 1080, Note_on_c, 3, 61, 90
5, 1139, Note_on_c, 3, 61, 0
5, 1140, Note_on_c, 3, 59, 90
5, 1169, Note_on_c, 3, 59, 0
5, 1170, Note_on_c, 3, 57, 90
5, 1199, Note_on_c, 3, 57, 0
5, 1440, Note_on_c, 3, 69, 90
5, 1559, Note_on_c, 3, 69, 0
5, 1620, Note_on_c, 3, 64, 90
5, 1679, Note_on_c, 3, 64, 0
5, 1680, Note_on_c, 3, 66, 90
5, 1769, Note_on_c, 3, 66, 0
5, 1770, Note_on_c, 3, 68, 90
5, 1785, Note_on_c, 3, 68, 0
5, 1785, Note_on_c, 3, 69, 90
5, 1800, Note_on_c, 3, 69, 0
5, 1800, Note_on_c, 3, 61, 90
5, 1859, Note_on_c, 3, 61, 0
5, 1860, Note_on_c, 3, 59, 90
5, 1889, Note_on_c, 3, 59, 0
5, 1890, Note_on_c, 3, 57, 90
5, 1919, Note_on_c, 3, 57, 0
5, 1920, Note_on_c, 3, 63, 90
5, 2159, Note_on_c, 3, 63, 0
5, 2160, Note_on_c, 3, 64, 90
5, 2219, Note_on_c, 3, 64, 0
5, 2220, Note_on_c, 3, 59, 90
5, 2279, Note_on_c, 3, 59, 0
5, 2280, Note_on_c, 3, 67, 90
5, 2309, Note_on_c, 3, 67, 0
5, 2310, Note_on_c, 3, 58, 90
5, 2339, Note_on_c, 3, 58, 0
5, 2340, Note_on_c, 3, 61, 90
5, 2369, Note_on_c, 3, 61, 0
5, 2370, Note_on_c, 3, 62, 90
5, 2399, Note_on_c, 3, 62, 0
5, 2400, Note_on_c, 3, 64, 90
5, 2429, Note_on_c, 3, 64, 0
5, 2430, Note_on_c, 3, 67, 90
5, 2459, Note_on_c, 3, 67, 0
5, 2460, Note_on_c, 3, 66, 90
5, 2489, Note_on_c, 3, 66, 0
5, 2490, Note_on_c, 3, 64, 90
5, 2519, Note_on_c, 3, 64, 0
5, 2520, Note_on_c, 3, 62, 90
5, 2530, Note_on_c, 3, 62, 0
5, 2530, Note_on_c, 3, 64, 90
5, 2540, Note_on_c, 3, 64, 0
5, 2540, Note_on_c, 3, 62, 90
5, 2550, Note_on_c, 3, 62, 0
5, 2550, Note_on_c, 3, 64, 90
5, 2557, Note_on_c, 3, 62, 90
5, 2558, Note_on_c, 3, 64, 0
5, 2565, Note_on_c, 3, 62, 0
5, 2565, Note_on_c, 3, 64, 90
5, 2572, Note_on_c, 3, 62, 90
5, 2573, Note_on_c, 3, 64, 0
5, 2580, Note_on_c, 3, 62, 0
5, 2580, Note_on_c, 3, 61, 90
5, 2609, Note_on_c, 3, 61, 0
5, 2610, Note_on_c, 3, 59, 90
5, 2639, Note_on_c, 3, 59, 0
5, 2640, Note_on_c, 3, 65, 90
5, 2759, Note_on_c, 3, 65, 0
5, 2880, Note_on_c, 3, 66, 90
5, 2999, Note_on_c, 3, 66, 0
5, 3060, Note_on_c, 3, 61, 90
5, 3119, Note_on_c, 3, 61, 0
5, 3120, Note_on_c, 3, 62, 90
5, 3149, Note_on_c, 3, 62, 0
5, 3150, Note_on_c, 3, 66, 90
5, 3179, Note_on_c, 3, 66, 0
5, 3180, Note_on_c, 3, 65, 90
5, 3209, Note_on_c, 3, 65, 0
5, 3210, Note_on_c, 3, 66, 90
5, 3239, Note_on_c, 3, 66, 0
5, 3240, Note_on_c, 3, 57, 90
5, 3299, Note_on_c, 3, 57, 0
5, 3300, Note_on_c, 3, 56, 90
5, 3329, Note_on_c, 3, 56, 0
5, 3330, Note_on_c, 3, 54, 90
5, 3359, Note_on_c, 3, 54, 0
5, 3360, Note_on_c, 3, 66, 90
5, 3660, Note_on_c, 3, 66, 0
5, 3690, Note_on_c, 3, 68, 90
5, 3704, Note_on_c, 3, 68, 0
5, 3705, Note_on_c, 3, 69, 90
5, 3719, Note_on_c, 3, 69, 0
5, 3720, Note_on_c, 3, 68, 90
5, 3749, Note_on_c, 3, 68, 0
5, 3750, Note_on_c, 3, 66, 90
5, 3779, Note_on_c, 3, 66, 0
5, 3780, Note_on_c, 3, 64, 90
5, 3809, Note_on_c, 3, 64, 0
5, 3810, Note_on_c, 3, 62, 90
5, 3839, Note_on_c, 3, 62, 0
5, 3840, Note_on_c, 3, 61, 90
5, 3869, Note_on_c, 3, 61, 0
5, 3870, Note_on_c, 3, 62, 90
5, 3899, Note_on_c, 3, 62, 0
5, 3900, Note_on_c, 3, 64, 90
5, 3929, Note_on_c, 3, 64, 0
5, 3930, Note_on_c, 3, 61, 90
5, 3959, Note_on_c, 3, 61, 0
5, 3960, Note_on_c, 3, 58, 90
5, 3970, Note_on_c, 3, 58, 0
5, 3970, Note_on_c, 3, 59, 90
5, 3980, Note_on_c, 3, 59, 0
5, 3980, Note_on_c, 3, 58, 90
5, 3990, Note_on_c, 3, 58, 0
5, 3990, Note_on_c, 3, 59, 90
5, 3997, Note_on_c, 3, 58, 90
5, 3998, Note_on_c, 3, 59, 0
5, 4005, Note_on_c, 3, 58, 0
5, 4005, Note_on_c, 3, 59, 90
5, 4012, Note_on_c, 3, 58, 90
5, 4013, Note_on_c, 3, 59, 0
5, 4020, Note_on_c, 3, 58, 0
5, 4020, Note_on_c, 3, 56, 90
5, 4049, Note_on_c, 3, 56, 0
5, 4050, Note_on_c, 3, 54, 90
5, 4079, Note_on_c, 3, 54, 0
5, 4080, Note_on_c, 3, 59, 90
5, 4199, Note_on_c, 3, 59, 0
5, 4230, Note_on_c, 3, 67, 90
5, 4259, Note_on_c, 3, 67, 0
5, 4260, Note_on_c, 3, 66, 90
5, 4289, Note_on_c, 3, 66, 0
5, 4290, Note_on_c, 3, 64, 90
5, 4319, Note_on_c, 3, 64, 0
5, 4320, Note_on_c, 3, 62, 90
5, 4349, Note_on_c, 3, 62, 0
5, 4350, Note_on_c, 3, 61, 90
5, 4379, Note_on_c, 3, 61, 0
5, 4380, Note_on_c, 3, 62, 90
5, 4409, Note_on_c, 3, 62, 0
5, 4410, Note_on_c, 3, 59, 90
5, 4439, Note_on_c, 3, 59, 0
5, 4440, Note_on_c, 3, 58, 90
5, 4450, Note_on_c, 3, 58, 0
5, 4450, Note_on_c, 3, 59, 90
5, 4460, Note_on_c, 3, 59, 0
5, 4460, Note_on_c, 3, 58, 90
5, 4470, Note_on_c, 3, 58, 0
5, 4470, Note_on_c, 3, 59, 90
5, 4480, Note_on_c, 3, 59, 0
5, 4480, Note_on_c, 3, 58, 90
5, 4490, Note_on_c, 3, 58, 0
5, 4490, Note_on_c, 3, 59, 90
5, 4500, Note_on_c, 3, 59, 0
5, 4500, Note_on_c, 3, 58, 90
5, 4507, Note_on_c, 3, 59, 90
5, 4508, Note_on_c, 3, 58, 0
5, 4515, Note_on_c, 3, 59, 0
5, 4515, Note_on_c, 3, 58, 90
5, 4522, Note_on_c, 3, 59, 90
5, 4523, Note_on_c, 3, 58, 0
5, 4530, Note_on_c, 3, 59, 0
5, 4530, Note_on_c, 3, 58, 90
5, 4537, Note_on_c, 3, 59, 90
5, 4538, Note_on_c, 3, 58, 0
5, 4545, Note_on_c, 3, 59, 0
5, 4545, Note_on_c, 3, 58, 90
5, 4552, Note_on_c, 3, 59, 90
5, 4553, Note_on_c, 3, 58, 0
5, 4560, Note_on_c, 3, 59, 0
5, 4560, Note_on_c, 3, 58, 90
5, 4567, Note_on_c, 3, 59, 90
5, 4568, Note_on_c, 3, 58, 0
5, 4575, Note_on_c, 3, 59, 0
5, 4575, Note_on_c, 3, 58, 90
5, 4582, Note_on_c, 3, 59, 90
5, 4583, Note_on_c, 3, 58, 0
5, 4590, Note_on_c, 3, 59, 0
5, 4590, Note_on_c, 3, 58, 90
5, 4600, Note_on_c, 3, 58, 0
5, 4600, Note_on_c, 3, 56, 90
5, 4610, Note_on_c, 3, 56, 0
5, 4610, Note_on_c, 3, 58, 90
5, 4620, Note_on_c, 3, 58, 0
5, 4620, Note_on_c, 3, 59, 90
5, 4679, Note_on_c, 3, 59, 0
5, 4680, Note_on_c, 3, 59, 90
5, 4799, Note_on_c, 3, 59, 0
5, 5220, Note_on_c, 3, 59, 90
5, 5279, Note_on_c, 3, 59, 0
5, 5280, Note_on_c, 3, 57, 90
5, 5309, Note_on_c, 3, 57, 0
5, 5310, Note_on_c, 3, 56, 90
5, 5369, Note_on_c, 3, 56, 0
5, 5370, Note_on_c, 3, 54, 90
5, 5384, Note_on_c, 3, 54, 0
5, 5385, Note_on_c, 3, 52, 90
5, 5399, Note_on_c, 3, 52, 0
5, 5400, Note_on_c, 3, 60, 90
5, 5459, Note_on_c, 3, 60, 0
5, 5460, Note_on_c, 3, 62, 90
5, 5489, Note_on_c, 3, 62, 0
5, 5490, Note_on_c, 3, 64, 90
5, 5519, Note_on_c, 3, 64, 0
5, 5520, Note_on_c, 3, 57, 90
5, 5759, Note_on_c, 3, 57, 0
5, 5790, Note_on_c, 3, 57, 90
5, 5819, Note_on_c, 3, 57, 0
5, 5820, Note_on_c, 3, 59, 90
5, 5849, Note_on_c, 3, 59, 0
5, 5850, Note_on_c, 3, 60, 90
5, 5879, Note_on_c, 3, 60, 0
5, 5880, Note_on_c, 3, 54, 90
5, 5909, Note_on_c, 3, 54, 0
5, 5910, Note_on_c, 3, 54, 90
5, 5939, Note_on_c, 3, 54, 0
5, 5940, Note_on_c, 3, 55, 90
5, 5969, Note_on_c, 3, 55, 0
5, 5970, Note_on_c, 3, 57, 90
5, 5999, Note_on_c, 3, 57, 0
5, 6000, Note_on_c, 3, 55, 90
5, 6029, Note_on_c, 3, 55, 0
5, 6030, Note_on_c, 3, 54, 90
5, 6059, Note_on_c, 3, 54, 0
5, 6060, Note_on_c, 3, 52, 90
5, 6089, Note_on_c, 3, 52, 0
5, 6090, Note_on_c, 3, 50, 90
5, 6119, Note_on_c, 3, 50, 0
5, 6120, Note_on_c, 3, 59, 90
5, 6179, Note_on_c, 3, 59, 0
5, 6180, Note_on_c, 3, 60, 90
5, 6209, Note_on_c, 3, 60, 0
5, 6210, Note_on_c, 3, 62, 90
5, 6239, Note_on_c, 3, 62, 0
5, 6240, Note_on_c, 3, 55, 90
5, 6479, Note_on_c, 3, 55, 0
5, 6510, Note_on_c, 3, 55, 90
5, 6539, Note_on_c, 3, 55, 0
5, 6540, Note_on_c, 3, 57, 90
5, 6569, Note_on_c, 3, 57, 0
5, 6570, Note_on_c, 3, 59, 90
5, 6599, Note_on_c, 3, 59, 0
5, 6600, Note_on_c, 3, 57, 90
5, 6629, Note_on_c, 3, 57, 0
5, 6630, Note_on_c, 3, 61, 90
5, 6659, Note_on_c, 3, 61, 0
5, 6660, Note_on_c, 3, 64, 90
5, 6689, Note_on_c, 3, 64, 0
5, 6690, Note_on_c, 3, 62, 90
5, 6719, Note_on_c, 3, 62, 0
5, 6720, Note_on_c, 3, 61, 90
5, 6749, Note_on_c, 3, 61, 0
5, 6750, Note_on_c, 3, 59, 90
5, 6779, Note_on_c, 3, 59, 0
5, 6780, Note_on_c, 3, 57, 90
5, 6809, Note_on_c, 3, 57, 0
5, 6810, Note_on_c, 3, 55, 90
5, 6839, Note_on_c, 3, 55, 0
5, 6840, Note_on_c, 3, 54, 90
5, 6869, Note_on_c, 3, 54, 0
5, 6870, Note_on_c, 3, 59, 90
5, 6899, Note_on_c, 3, 59, 0
5, 6900, Note_on_c, 3, 57, 90
5, 6929, Note_on_c, 3, 57, 0
5, 6930, Note_on_c, 3, 55, 90
5, 6959, Note_on_c, 3, 55, 0
5, 6960, Note_on_c, 3, 54, 90
5, 7079, Note_on_c, 3, 54, 0
5, 7080, Note_on_c, 3, 52, 90
5, 7090, Note_on_c, 3, 52, 0
5, 7090, Note_on_c, 3, 54, 90
5, 7100, Note_on_c, 3, 54, 0
5, 7100, Note_on_c, 3, 52, 90
5, 7110, Note_on_c, 3, 52, 0
5, 7110, Note_on_c, 3, 54, 90
5, 7117, Note_on_c, 3, 52, 90
5, 7118, Note_on_c, 3, 54, 0
5, 7125, Note_on_c, 3, 52, 0
5, 7125, Note_on_c, 3, 54, 90
5, 7132, Note_on_c, 3, 52, 90
5, 7133, Note_on_c, 3, 54, 0
5, 7140, Note_on_c, 3, 52, 0
5, 7140, Note_on_c, 3, 54, 90
5, 7147, Note_on_c, 3, 52, 90
5, 7148, Note_on_c, 3, 54, 0
5, 7155, Note_on_c, 3, 52, 0
5, 7155, Note_on_c, 3, 54, 90
5, 7162, Note_on_c, 3, 52, 90
5, 7163, Note_on_c, 3, 54, 0
5, 7170, Note_on_c, 3, 52, 0
5, 7170, Note_on_c, 3, 50, 90
5, 7199, Note_on_c, 3, 50, 0
5, 7200, Note_on_c, 3, 50, 90
5, 7740, Note_on_c, 3, 50, 0
5, 7740, Note_on_c, 3, 62, 90
5, 7770, Note_on_c, 3, 62, 0
5, 7770, Note_on_c, 3, 61, 90
5, 7800, Note_on_c, 3, 61, 0
5, 7800, Note_on_c, 3, 62, 90
5, 7830, Note_on_c, 3, 62, 0
5, 7830, Note_on_c, 3, 66, 90
5, 7860, Note_on_c, 3, 66, 0
5, 7860, Note_on_c, 3, 64, 90
5, 7920, Note_on_c, 3, 64, 0
5, 7920, Note_on_c, 3, 62, 90
5, 8040, Note_on_c, 3, 62, 0
5, 8040, Note_on_c, 3, 61, 90
5, 8280, Note_on_c, 3, 61, 0
5, 8640, Note_on_c, 3, 62, 90
5, 8669, Note_on_c, 3, 62, 0
5, 8670, Note_on_c, 3, 64, 90
5, 8699, Note_on_c, 3, 64, 0
5, 8700, Note_on_c, 3, 66, 90
5, 8819, Note_on_c, 3, 66, 0
5, 8820, Note_on_c, 3, 64, 90
5, 8849, Note_on_c, 3, 64, 0
5, 8850, Note_on_c, 3, 62, 90
5, 8879, Note_on_c, 3, 62, 0
5, 8880, Note_on_c, 3, 61, 90
5, 8909, Note_on_c, 3, 61, 0
5, 8910, Note_on_c, 3, 62, 90
5, 8939, Note_on_c, 3, 62, 0
5, 8940, Note_on_c, 3, 64, 90
5, 9059, Note_on_c, 3, 64, 0
5, 9060, Note_on_c, 3, 62, 90
5, 9089, Note_on_c, 3, 62, 0
5, 9090, Note_on_c, 3, 61, 90
5, 9119, Note_on_c, 3, 61, 0
5, 9120, Note_on_c, 3, 62, 90
5, 9149, Note_on_c, 3, 62, 0
5, 9150, Note_on_c, 3, 57, 90
5, 9179, Note_on_c, 3, 57, 0
5, 9180, Note_on_c, 3, 66, 90
5, 9209, Note_on_c, 3, 66, 0
5, 9210, Note_on_c, 3, 57, 90
5, 9239, Note_on_c, 3, 57, 0
5, 9240, Note_on_c, 3, 64, 90
5, 9269, Note_on_c, 3, 64, 0
5, 9270, Note_on_c, 3, 57, 90
5, 9299, Note_on_c, 3, 57, 0
5, 9300, Note_on_c, 3, 62, 90
5, 9329, Note_on_c, 3, 62, 0
5, 9330, Note_on_c, 3, 57, 90
5, 9359, Note_on_c, 3, 57, 0
5, 9360, Note_on_c, 3, 61, 90
5, 9419, Note_on_c, 3, 61, 0
5, 9420, Note_on_c, 3, 57, 90
5, 9479, Note_on_c, 3, 57, 0
5, 9480, Note_on_c, 3, 61, 90
5, 9539, Note_on_c, 3, 61, 0
5, 9540, Note_on_c, 3, 64, 90
5, 9599, Note_on_c, 3, 64, 0
5, 9600, Note_on_c, 3, 66, 90
5, 9629, Note_on_c, 3, 66, 0
5, 9630, Note_on_c, 3, 67, 90
5, 9659, Note_on_c, 3, 67, 0
5, 9660, Note_on_c, 3, 69, 90
5, 9779, Note_on_c, 3, 69, 0
5, 9780, Note_on_c, 3, 67, 90
5, 9809, Note_on_c, 3, 67, 0
5, 9810, Note_on_c, 3, 66, 90
5, 9839, Note_on_c, 3, 66, 0
5, 9840, Note_on_c, 3, 64, 90
5, 9869, Note_on_c, 3, 64, 0
5, 9870, Note_on_c, 3, 66, 90
5, 9899, Note_on_c, 3, 66, 0
5, 9900, Note_on_c, 3, 67, 90
5, 10019, Note_on_c, 3, 67, 0
5, 10020, Note_on_c, 3, 66, 90
5, 10049, Note_on_c, 3, 66, 0
5, 10050, Note_on_c, 3, 64, 90
5, 10079, Note_on_c, 3, 64, 0
5, 10080, Note_on_c, 3, 66, 90
5, 10139, Note_on_c, 3, 66, 0
5, 10140, Note_on_c, 3, 62, 90
5, 10199, Note_on_c, 3, 62, 0
5, 10200, Note_on_c, 3, 61, 90
5, 10215, Note_on_c, 3, 61, 0
5, 10215, Note_on_c, 3, 62, 90
5, 10230, Note_on_c, 3, 62, 0
5, 10230, Note_on_c, 3, 61, 90
5, 10259, Note_on_c, 3, 61, 0
5, 10260, Note_on_c, 3, 62, 90
5, 10319, Note_on_c, 3, 62, 0
5, 10320, Note_on_c, 3, 64, 90
5, 10349, Note_on_c, 3, 64, 0
5, 10350, Note_on_c, 3, 62, 90
5, 10379, Note_on_c, 3, 62, 0
5, 10380, Note_on_c, 3, 61, 90
5, 10409, Note_on_c, 3, 61, 0
5, 10410, Note_on_c, 3, 59, 90
5, 10439, Note_on_c, 3, 59, 0
5, 10440, Note_on_c, 3, 57, 90
5, 10469, Note_on_c, 3, 57, 0
5, 10470, Note_on_c, 3, 55, 90
5, 10499, Note_on_c, 3, 55, 0
5, 10500, Note_on_c, 3, 54, 90
5, 10529, Note_on_c, 3, 54, 0
5, 10530, Note_on_c, 3, 52, 90
5, 10559, Note_on_c, 3, 52, 0
5, 10560, Note_on_c, 3, 50, 90
5, 10619, Note_on_c, 3, 50, 0
5, 10620, Note_on_c, 3, 62, 90
5, 10649, Note_on_c, 3, 62, 0
5, 10650, Note_on_c, 3, 61, 90
5, 10679, Note_on_c, 3, 61, 0
5, 10680, Note_on_c, 3, 62, 90
5, 10799, Note_on_c, 3, 62, 0
5, 10830, Note_on_c, 3, 60, 90
5, 10859, Note_on_c, 3, 60, 0
5, 10860, Note_on_c, 3, 59, 90
5, 10889, Note_on_c, 3, 59, 0
5, 10890, Note_on_c, 3, 62, 90
5, 10919, Note_on_c, 3, 62, 0
5, 10920, Note_on_c, 3, 67, 90
5, 10949, Note_on_c, 3, 67, 0
5, 10950, Note_on_c, 3, 62, 90
5, 10979, Note_on_c, 3, 62, 0
5, 10980, Note_on_c, 3, 59, 90
5, 11009, Note_on_c, 3, 59, 0
5, 11010, Note_on_c, 3, 55, 90
5, 11039, Note_on_c, 3, 55, 0
5, 11040, Note_on_c, 3, 59, 90
5, 11099, Note_on_c, 3, 59, 0
5, 11100, Note_on_c, 3, 64, 90
5, 11129, Note_on_c, 3, 64, 0
5, 11130, Note_on_c, 3, 63, 90
5, 11159, Note_on_c, 3, 63, 0
5, 11160, Note_on_c, 3, 64, 90
5, 11279, Note_on_c, 3, 64, 0
5, 11310, Note_on_c, 3, 62, 90
5, 11339, Note_on_c, 3, 62, 0
5, 11340, Note_on_c, 3, 61, 90
5, 11369, Note_on_c, 3, 61, 0
5, 11370, Note_on_c, 3, 64, 90
5, 11399, Note_on_c, 3, 64, 0
5, 11400, Note_on_c, 3, 69, 90
5, 11429, Note_on_c, 3, 69, 0
5, 11430, Note_on_c, 3, 64, 90
5, 11459, Note_on_c, 3, 64, 0
5, 11460, Note_on_c, 3, 61, 90
5, 11489, Note_on_c, 3, 61, 0
5, 11490, Note_on_c, 3, 64, 90
5, 11519, Note_on_c, 3, 64, 0
5, 11520, Note_on_c, 3, 66, 90
5, 11579, Note_on_c, 3, 66, 0
5, 11580, Note_on_c, 3, 66, 90
5, 11699, Note_on_c, 3, 66, 0
5, 11700, Note_on_c, 3, 64, 90
5, 11729, Note_on_c, 3, 64, 0
5, 11730, Note_on_c, 3, 63, 90
5, 11759, Note_on_c, 3, 63, 0
5, 11760, Note_on_c, 3, 64, 90
5, 11819, Note_on_c, 3, 64, 0
5, 11820, Note_on_c, 3, 64, 90
5, 11939, Note_on_c, 3, 64, 0
5, 11940, Note_on_c, 3, 62, 90
5, 11969, Note_on_c, 3, 62, 0
5, 11970, Note_on_c, 3, 61, 90
5, 11999, Note_on_c, 3, 61, 0
5, 12000, Note_on_c, 3, 62, 90
5, 12059, Note_on_c, 3, 62, 0
5, 12060, Note_on_c, 3, 61, 90
5, 12089, Note_on_c, 3, 61, 0
5, 12090, Note_on_c, 3, 59, 90
5, 12119, Note_on_c, 3, 59, 0
5, 12120, Note_on_c, 3, 57, 90
5, 12149, Note_on_c, 3, 57, 0
5, 12150, Note_on_c, 3, 55, 90
5, 12179, Note_on_c, 3, 55, 0
5, 12180, Note_on_c, 3, 54, 90
5, 12209, Note_on_c, 3, 54, 0
5, 12210, Note_on_c, 3, 52, 90
5, 12239, Note_on_c, 3, 52, 0
5, 12240, Note_on_c, 3, 54, 90
5, 12269, Note_on_c, 3, 54, 0
5, 12270, Note_on_c, 3, 55, 90
5, 12299, Note_on_c, 3, 55, 0
5, 12300, Note_on_c, 3, 57, 90
5, 12329, Note_on_c, 3, 57, 0
5, 12330, Note_on_c, 3, 54, 90
5, 12359, Note_on_c, 3, 54, 0
5, 12360, Note_on_c, 3, 50, 90
5, 12389, Note_on_c, 3, 50, 0
5, 12390, Note_on_c, 3, 54, 90
5, 12419, Note_on_c, 3, 54, 0
5, 12420, Note_on_c, 3, 55, 90
5, 12449, Note_on_c, 3, 55, 0
5, 12450, Note_on_c, 3, 57, 90
5, 12479, Note_on_c, 3, 57, 0
5, 12480, Note_on_c, 3, 59, 90
5, 12509, Note_on_c, 3, 59, 0
5, 12510, Note_on_c, 3, 61, 90
5, 12539, Note_on_c, 3, 61, 0
5, 12540, Note_on_c, 3, 62, 90
5, 12629, Note_on_c, 3, 62, 0
5, 12630, Note_on_c, 3, 61, 90
5, 12659, Note_on_c, 3, 61, 0
5, 12660, Note_on_c, 3, 59, 90
5, 12689, Note_on_c, 3, 59, 0
5, 12690, Note_on_c, 3, 57, 90
5, 12719, Note_on_c, 3, 57, 0
5, 12720, Note_on_c, 3, 56, 90
5, 12749, Note_on_c, 3, 56, 0
5, 12750, Note_on_c, 3, 57, 90
5, 12779, Note_on_c, 3, 57, 0
5, 12780, Note_on_c, 3, 59, 90
5, 12809, Note_on_c, 3, 59, 0
5, 12810, Note_on_c, 3, 56, 90
5, 12839, Note_on_c, 3, 56, 0
5, 12840, Note_on_c, 3, 52, 90
5, 12869, Note_on_c, 3, 52, 0
5, 12870, Note_on_c, 3, 56, 90
5, 12899, Note_on_c, 3, 56, 0
5, 12900, Note_on_c, 3, 57, 90
5, 12929, Note_on_c, 3, 57, 0
5, 12930, Note_on_c, 3, 59, 90
5, 12959, Note_on_c, 3, 59, 0
5, 12960, Note_on_c, 3, 61, 90
5, 12989, Note_on_c, 3, 61, 0
5, 12990, Note_on_c, 3, 62, 90
5, 13019, Note_on_c, 3, 62, 0
5, 13020, Note_on_c, 3, 64, 90
5, 13109, Note_on_c, 3, 64, 0
5, 13110, Note_on_c, 3, 62, 90
5, 13139, Note_on_c, 3, 62, 0
5, 13140, Note_on_c, 3, 61, 90
5, 13169, Note_on_c, 3, 61, 0
5, 13170, Note_on_c, 3, 59, 90
5, 13199, Note_on_c, 3, 59, 0
5, 13200, Note_on_c, 3, 57, 90
5, 13229, Note_on_c, 3, 57, 0
5, 13230, Note_on_c, 3, 59, 90
5, 13259, Note_on_c, 3, 59, 0
5, 13260, Note_on_c, 3, 61, 90
5, 13289, Note_on_c, 3, 61, 0
5, 13290, Note_on_c, 3, 57, 90
5, 13319, Note_on_c, 3, 57, 0
5, 13320, Note_on_c, 3, 54, 90
5, 13349, Note_on_c, 3, 54, 0
5, 13350, Note_on_c, 3, 57, 90
5, 13379, Note_on_c, 3, 57, 0
5, 13380, Note_on_c, 3, 59, 90
5, 13409, Note_on_c, 3, 59, 0
5, 13410, Note_on_c, 3, 61, 90
5, 13439, Note_on_c, 3, 61, 0
5, 13440, Note_on_c, 3, 62, 90
5, 13469, Note_on_c, 3, 62, 0
5, 13470, Note_on_c, 3, 64, 90
5, 13499, Note_on_c, 3, 64, 0
5, 13500, Note_on_c, 3, 66, 90
5, 13589, Note_on_c, 3, 66, 0
5, 13590, Note_on_c, 3, 62, 90
5, 13619, Note_on_c, 3, 62, 0
5, 13620, Note_on_c, 3, 64, 90
5, 13649, Note_on_c, 3, 64, 0
5, 13650, Note_on_c, 3, 66, 90
5, 13679, Note_on_c, 3, 66, 0
5, 13680, Note_on_c, 3, 56, 90
5, 13709, Note_on_c, 3, 56, 0
5, 13710, Note_on_c, 3, 57, 90
5, 13739, Note_on_c, 3, 57, 0
5, 13740, Note_on_c, 3, 59, 90
5, 13769, Note_on_c, 3, 59, 0
5, 13770, Note_on_c, 3, 56, 90
5, 13799, Note_on_c, 3, 56, 0
5, 13800, Note_on_c, 3, 52, 90
5, 13829, Note_on_c, 3, 52, 0
5, 13830, Note_on_c, 3, 56, 90
5, 13859, Note_on_c, 3, 56, 0
5, 13860, Note_on_c, 3, 59, 90
5, 13889, Note_on_c, 3, 59, 0
5, 13890, Note_on_c, 3, 62, 90
5, 13919, Note_on_c, 3, 62, 0
5, 13920, Note_on_c, 3, 61, 90
5, 13949, Note_on_c, 3, 61, 0
5, 13950, Note_on_c, 3, 62, 90
5, 13979, Note_on_c, 3, 62, 0
5, 13980, Note_on_c, 3, 64, 90
5, 14009, Note_on_c, 3, 64, 0
5, 14010, Note_on_c, 3, 66, 90
5, 14039, Note_on_c, 3, 66, 0
5, 14040, Note_on_c, 3, 59, 90
5, 14055, Note_on_c, 3, 59, 0
5, 14055, Note_on_c, 3, 61, 90
5, 14070, Note_on_c, 3, 61, 0
5, 14070, Note_on_c, 3, 59, 90
5, 14080, Note_on_c, 3, 59, 0
5, 14080, Note_on_c, 3, 61, 90
5, 14090, Note_on_c, 3, 61, 0
5, 14090, Note_on_c, 3, 59, 90
5, 14100, Note_on_c, 3, 59, 0
5, 14100, Note_on_c, 3, 61, 90
5, 14115, Note_on_c, 3, 61, 0
5, 14115, Note_on_c, 3, 59, 90
5, 14130, Note_on_c, 3, 59, 0
5, 14130, Note_on_c, 3, 57, 90
5, 14159, Note_on_c, 3, 57, 0
5, 14160, Note_on_c, 3, 57, 90
5, 14279, Note_on_c, 3, 57, 0
5, 14340, Note_on_c, 3, 64, 90
5, 14429, Note_on_c, 3, 64, 0
5, 14430, Note_on_c, 3, 67, 90
5, 14459, Note_on_c, 3, 67, 0
5, 14460, Note_on_c, 3, 66, 90
5, 14489, Note_on_c, 3, 66, 0
5, 14490, Note_on_c, 3, 64, 90
5, 14519, Note_on_c, 3, 64, 0
5, 14520, Note_on_c, 3, 62, 90
5, 14579, Note_on_c, 3, 62, 0
5, 14580, Note_on_c, 3, 62, 90
5, 14669, Note_on_c, 3, 62, 0
5, 14670, Note_on_c, 3, 59, 90
5, 14699, Note_on_c, 3, 59, 0
5, 14700, Note_on_c, 3, 56, 90
5, 14729, Note_on_c, 3, 56, 0
5, 14730, Note_on_c, 3, 59, 90
5, 14759, Note_on_c, 3, 59, 0
5, 14760, Note_on_c, 3, 49, 90
5, 14819, Note_on_c, 3, 49, 0
5, 14820, Note_on_c, 3, 61, 90
5, 14909, Note_on_c, 3, 61, 0
5, 14910, Note_on_c, 3, 64, 90
5, 14939, Note_on_c, 3, 64, 0
5, 14940, Note_on_c, 3, 61, 90
5, 14969, Note_on_c, 3, 61, 0
5, 14970, Note_on_c, 3, 57, 90
5, 14999, Note_on_c, 3, 57, 0
5, 15000, Note_on_c, 3, 54, 90
5, 15029, Note_on_c, 3, 54, 0
5, 15030, Note_on_c, 3, 62, 90
5, 15059, Note_on_c, 3, 62, 0
5, 15060, Note_on_c, 3, 59, 90
5, 15089, Note_on_c, 3, 59, 0
5, 15090, Note_on_c, 3, 56, 90
5, 15119, Note_on_c, 3, 56, 0
5, 15120, Note_on_c, 3, 52, 90
5, 15239, Note_on_c, 3, 52, 0
5, 15270, Note_on_c, 3, 52, 90
5, 15299, Note_on_c, 3, 52, 0
5, 15300, Note_on_c, 3, 54, 90
5, 15329, Note_on_c, 3, 54, 0
5, 15330, Note_on_c, 3, 56, 90
5, 15359, Note_on_c, 3, 56, 0
5, 15360, Note_on_c, 3, 57, 90
5, 15389, Note_on_c, 3, 57, 0
5, 15390, Note_on_c, 3, 59, 90
5, 15419, Note_on_c, 3, 59, 0
5, 15420, Note_on_c, 3, 60, 90
5, 15539, Note_on_c, 3, 60, 0
5, 15540, Note_on_c, 3, 59, 90
5, 15569, Note_on_c, 3, 59, 0
5, 15570, Note_on_c, 3, 57, 90
5, 15599, Note_on_c, 3, 57, 0
5, 15600, Note_on_c, 3, 56, 90
5, 15629, Note_on_c, 3, 56, 0
5, 15630, Note_on_c, 3, 57, 90
5, 15659, Note_on_c, 3, 57, 0
5, 15660, Note_on_c, 3, 59, 90
5, 15779, Note_on_c, 3, 59, 0
5, 15780, Note_on_c, 3, 57, 90
5, 15809, Note_on_c, 3, 57, 0
5, 15810, Note_on_c, 3, 56, 90
5, 15839, Note_on_c, 3, 56, 0
5, 15840, Note_on_c, 3, 64, 90
5, 15899, Note_on_c, 3, 64, 0
5, 15900, Note_on_c, 3, 62, 90
5, 15929, Note_on_c, 3, 62, 0
5, 15930, Note_on_c, 3, 61, 90
5, 15959, Note_on_c, 3, 61, 0
5, 15960, Note_on_c, 3, 62, 90
5, 15989, Note_on_c, 3, 62, 0
5, 15990, Note_on_c, 3, 61, 90
5, 16019, Note_on_c, 3, 61, 0
5, 16020, Note_on_c, 3, 59, 90
5, 16049, Note_on_c, 3, 59, 0
5, 16050, Note_on_c, 3, 61, 90
5, 16079, Note_on_c, 3, 61, 0
5, 16080, Note_on_c, 3, 57, 90
5, 16319, Note_on_c, 3, 57, 0
5, 16320, Note_on_c, 3, 62, 90
5, 16349, Note_on_c, 3, 62, 0
5, 16350, Note_on_c, 3, 64, 90
5, 16379, Note_on_c, 3, 64, 0
5, 16380, Note_on_c, 3, 66, 90
5, 16499, Note_on_c, 3, 66, 0
5, 16500, Note_on_c, 3, 64, 90
5, 16529, Note_on_c, 3, 64, 0
5, 16530, Note_on_c, 3, 62, 90
5, 16559, Note_on_c, 3, 62, 0
5, 16560, Note_on_c, 3, 61, 90
5, 16589, Note_on_c, 3, 61, 0
5, 16590, Note_on_c, 3, 62, 90
5, 16619, Note_on_c, 3, 62, 0
5, 16620, Note_on_c, 3, 64, 90
5, 16739, Note_on_c, 3, 64, 0
5, 16740, Note_on_c, 3, 62, 90
5, 16769, Note_on_c, 3, 62, 0
5, 16770, Note_on_c, 3, 61, 90
5, 16799, Note_on_c, 3, 61, 0
5, 16800, Note_on_c, 3, 62, 90
5, 16829, Note_on_c, 3, 62, 0
5, 16830, Note_on_c, 3, 57, 90
5, 16859, Note_on_c, 3, 57, 0
5, 16860, Note_on_c, 3, 66, 90
5, 16889, Note_on_c, 3, 66, 0
5, 16890, Note_on_c, 3, 57, 90
5, 16919, Note_on_c, 3, 57, 0
5, 16920, Note_on_c, 3, 64, 90
5, 16949, Note_on_c, 3, 64, 0
5, 16950, Note_on_c, 3, 57, 90
5, 16979, Note_on_c, 3, 57, 0
5, 16980, Note_on_c, 3, 62, 90
5, 17009, Note_on_c, 3, 62, 0
5, 17010, Note_on_c, 3, 57, 90
5, 17039, Note_on_c, 3, 57, 0
5, 17040, Note_on_c, 3, 61, 90
5, 17099, Note_on_c, 3, 61, 0
5, 17100, Note_on_c, 3, 57, 90
5, 17159, Note_on_c, 3, 57, 0
5, 17160, Note_on_c, 3, 61, 90
5, 17219, Note_on_c, 3, 61, 0
5, 17220, Note_on_c, 3, 64, 90
5, 17279, Note_on_c, 3, 64, 0
5, 17280, Note_on_c, 3, 66, 90
5, 17309, Note_on_c, 3, 66, 0
5, 17310, Note_on_c, 3, 67, 90
5, 17339, Note_on_c, 3, 67, 0
5, 17340, Note_on_c, 3, 69, 90
5, 17459, Note_on_c, 3, 69, 0
5, 17460, Note_on_c, 3, 67, 90
5, 17489, Note_on_c, 3, 67, 0
5, 17490, Note_on_c, 3, 66, 90
5, 17519, Note_on_c, 3, 66, 0
5, 17520, Note_on_c, 3, 64, 90
5, 17549, Note_on_c, 3, 64, 0
5, 17550, Note_on_c, 3, 66, 90
5, 17579, Note_on_c, 3, 66, 0
5, 17580, Note_on_c, 3, 67, 90
5, 17699, Note_on_c, 3, 67, 0
5, 17700, Note_on_c, 3, 66, 90
5, 17729, Note_on_c, 3, 66, 0
5, 17730, Note_on_c, 3, 64, 90
5, 17759, Note_on_c, 3, 64, 0
5, 17760, Note_on_c, 3, 66, 90
5, 17819, Note_on_c, 3, 66, 0
5, 17820, Note_on_c, 3, 62, 90
5, 17879, Note_on_c, 3, 62, 0
5, 17880, Note_on_c, 3, 61, 90
5, 17895, Note_on_c, 3, 61, 0
5, 17895, Note_on_c, 3, 62, 90
5, 17910, Note_on_c, 3, 62, 0
5, 17910, Note_on_c, 3, 61, 90
5, 17939, Note_on_c, 3, 61, 0
5, 17940, Note_on_c, 3, 62, 90
5, 17999, Note_on_c, 3, 62, 0
5, 18000, Note_on_c, 3, 64, 90
5, 18029, Note_on_c, 3, 64, 0
5, 18030, Note_on_c, 3, 62, 90
5, 18059, Note_on_c, 3, 62, 0
5, 18060, Note_on_c, 3, 61, 90
5, 18089, Note_on_c, 3, 61, 0
5, 18090, Note_on_c, 3, 59, 90
5, 18119, Note_on_c, 3, 59, 0
5, 18120, Note_on_c, 3, 57, 90
5, 18149, Note_on_c, 3, 57, 0
5, 18150, Note_on_c, 3, 55, 90
5, 18179, Note_on_c, 3, 55, 0
5, 18180, Note_on_c, 3, 54, 90
5, 18209, Note_on_c, 3, 54, 0
5, 18210, Note_on_c, 3, 52, 90
5, 18239, Note_on_c, 3, 52, 0
5, 18240, Note_on_c, 3, 50, 90
5, 18299, Note_on_c, 3, 50, 0
5, 18300, Note_on_c, 3, 62, 90
5, 18329, Note_on_c, 3, 62, 0
5, 18330, Note_on_c, 3, 61, 90
5, 18359, Note_on_c, 3, 61, 0
5, 18360, Note_on_c, 3, 62, 90
5, 18479, Note_on_c, 3, 62, 0
5, 18510, Note_on_c, 3, 60, 90
5, 18539, Note_on_c, 3, 60, 0
5, 18540, Note_on_c, 3, 59, 90
5, 18569, Note_on_c, 3, 59, 0
5, 18570, Note_on_c, 3, 62, 90
5, 18599, Note_on_c, 3, 62, 0
5, 18600, Note_on_c, 3, 67, 90
5, 18629, Note_on_c, 3, 67, 0
5, 18630, Note_on_c, 3, 62, 90
5, 18659, Note_on_c, 3, 62, 0
5, 18660, Note_on_c, 3, 59, 90
5, 18689, Note_on_c, 3, 59, 0
5, 18690, Note_on_c, 3, 55, 90
5, 18719, Note_on_c, 3, 55, 0
5, 18720, Note_on_c, 3, 59, 90
5, 18779, Note_on_c, 3, 59, 0
5, 18780, Note_on_c, 3, 64, 90
5, 18809, Note_on_c, 3, 64, 0
5, 18810, Note_on_c, 3, 63, 90
5, 18839, Note_on_c, 3, 63, 0
5, 18840, Note_on_c, 3, 64, 90
5, 18959, Note_on_c, 3, 64, 0
5, 18990, Note_on_c, 3, 62, 90
5, 19019, Note_on_c, 3, 62, 0
5, 19020, Note_on_c, 3, 61, 90
5, 19049, Note_on_c, 3, 61, 0
5, 19050, Note_on_c, 3, 64, 90
5, 19079, Note_on_c, 3, 64, 0
5, 19080, Note_on_c, 3, 69, 90
5, 19109, Note_on_c, 3, 69, 0
5, 19110, Note_on_c, 3, 64, 90
5, 19139, Note_on_c, 3, 64, 0
5, 19140, Note_on_c, 3, 61, 90
5, 19169, Note_on_c, 3, 61, 0
5, 19170, Note_on_c, 3, 64, 90
5, 19199, Note_on_c, 3, 64, 0
5, 19200, Note_on_c, 3, 66, 90
5, 19259, Note_on_c, 3, 66, 0
5, 19260, Note_on_c, 3, 66, 90
5, 19379, Note_on_c, 3, 66, 0
5, 19380, Note_on_c, 3, 64, 90
5, 19409, Note_on_c, 3, 64, 0
5, 19410, Note_on_c, 3, 63, 90
5, 19439, Note_on_c, 3, 63, 0
5, 19440, Note_on_c, 3, 64, 90
5, 19499, Note_on_c, 3, 64, 0
5, 19500, Note_on_c, 3, 64, 90
5, 19619, Note_on_c, 3, 64, 0
5, 19620, Note_on_c, 3, 62, 90
5, 19649, Note_on_c, 3, 62, 0
5, 19650, Note_on_c, 3, 61, 90
5, 19679, Note_on_c, 3, 61, 0
5, 19680, Note_on_c, 3, 62, 90
5, 19739, Note_on_c, 3, 62, 0
5, 19740, Note_on_c, 3, 61, 90
5, 19769, Note_on_c, 3, 61, 0
5, 19770, Note_on_c, 3, 59, 90
5, 19799, Note_on_c, 3, 59, 0
5, 19800, Note_on_c, 3, 57, 90
5, 19829, Note_on_c, 3, 57, 0
5, 19830, Note_on_c, 3, 55, 90
5, 19859, Note_on_c, 3, 55, 0
5, 19860, Note_on_c, 3, 54, 90
5, 19889, Note_on_c, 3, 54, 0
5, 19890, Note_on_c, 3, 52, 90
5, 19919, Note_on_c, 3, 52, 0
5, 19920, Note_on_c, 3, 54, 90
5, 19949, Note_on_c, 3, 54, 0
5, 19950, Note_on_c, 3, 55, 90
5, 19979, Note_on_c, 3, 55, 0
5, 19980, Note_on_c, 3, 57, 90
5, 20009, Note_on_c, 3, 57, 0
5, 20010, Note_on_c, 3, 54, 90
5, 20039, Note_on_c, 3, 54, 0
5, 20040, Note_on_c, 3, 50, 90
5, 20069, Note_on_c, 3, 50, 0
5, 20070, Note_on_c, 3, 54, 90
5, 20099, Note_on_c, 3, 54, 0
5, 20100, Note_on_c, 3, 55, 90
5, 20129, Note_on_c, 3, 55, 0
5, 20130, Note_on_c, 3, 57, 90
5, 20159, Note_on_c, 3, 57, 0
5, 20160, Note_on_c, 3, 59, 90
5, 20189, Note_on_c, 3, 59, 0
5, 20190, Note_on_c, 3, 61, 90
5, 20219, Note_on_c, 3, 61, 0
5, 20220, Note_on_c, 3, 62, 90
5, 20309, Note_on_c, 3, 62, 0
5, 20310, Note_on_c, 3, 61, 90
5, 20339, Note_on_c, 3, 61, 0
5, 20340, Note_on_c, 3, 59, 90
5, 20369, Note_on_c, 3, 59, 0
5, 20370, Note_on_c, 3, 57, 90
5, 20399, Note_on_c, 3, 57, 0
5, 20400, Note_on_c, 3, 56, 90
5, 20429, Note_on_c, 3, 56, 0
5, 20430, Note_on_c, 3, 57, 90
5, 20459, Note_on_c, 3, 57, 0
5, 20460, Note_on_c, 3, 59, 90
5, 20489, Note_on_c, 3, 59, 0
5, 20490, Note_on_c, 3, 56, 90
5, 20519, Note_on_c, 3, 56, 0
5, 20520, Note_on_c, 3, 52, 90
5, 20549, Note_on_c, 3, 52, 0
5, 20550, Note_on_c, 3, 56, 90
5, 20579, Note_on_c, 3, 56, 0
5, 20580, Note_on_c, 3, 57, 90
5, 20609, Note_on_c, 3, 57, 0
5, 20610, Note_on_c, 3, 59, 90
5, 20639, Note_on_c, 3, 59, 0
5, 20640, Note_on_c, 3, 61, 90
5, 20669, Note_on_c, 3, 61, 0
5, 20670, Note_on_c, 3, 62, 90
5, 20699, Note_on_c, 3, 62, 0
5, 20700, Note_on_c, 3, 64, 90
5, 20789, Note_on_c, 3, 64, 0
5, 20790, Note_on_c, 3, 62, 90
5, 20819, Note_on_c, 3, 62, 0
5, 20820, Note_on_c, 3, 61, 90
5, 20849, Note_on_c, 3, 61, 0
5, 20850, Note_on_c, 3, 59, 90
5, 20879, Note_on_c, 3, 59, 0
5, 20880, Note_on_c, 3, 57, 90
5, 20909, Note_on_c, 3, 57, 0
5, 20910, Note_on_c, 3, 59, 90
5, 20939, Note_on_c, 3, 59, 0
5, 20940, Note_on_c, 3, 61, 90
5, 20969, Note_on_c, 3, 61, 0
5, 20970, Note_on_c, 3, 57, 90
5, 20999, Note_on_c, 3, 57, 0
5, 21000, Note_on_c, 3, 54, 90
5, 21029, Note_on_c, 3, 54, 0
5, 21030, Note_on_c, 3, 57, 90
5, 21059, Note_on_c, 3, 57, 0
5, 21060, Note_on_c, 3, 59, 90
5, 21089, Note_on_c, 3, 59, 0
5, 21090, Note_on_c, 3, 61, 90
5, 21119, Note_on_c, 3, 61, 0
5, 21120, Note_on_c, 3, 62, 90
5, 21149, Note_on_c, 3, 62, 0
5, 21150, Note_on_c, 3, 64, 90
5, 21179, Note_on_c, 3, 64, 0
5, 21180, Note_on_c, 3, 66, 90
5, 21269, Note_on_c, 3, 66, 0
5, 21270, Note_on_c, 3, 62, 90
5, 21299, Note_on_c, 3, 62, 0
5, 21300, Note_on_c, 3, 64, 90
5, 21329, Note_on_c, 3, 64, 0
5, 21330, Note_on_c, 3, 66, 90
5, 21359, Note_on_c, 3, 66, 0
5, 21360, Note_on_c, 3, 56, 90
5, 21389, Note_on_c, 3, 56, 0
5, 21390, Note_on_c, 3, 57, 90
5, 21419, Note_on_c, 3, 57, 0
5, 21420, Note_on_c, 3, 59, 90
5, 21449, Note_on_c, 3, 59, 0
5, 21450, Note_on_c, 3, 56, 90
5, 21479, Note_on_c, 3, 56, 0
5, 21480, Note_on_c, 3, 52, 90
5, 21509, Note_on_c, 3, 52, 0
5, 21510, Note_on_c, 3, 56, 90
5, 21539, Note_on_c, 3, 56, 0
5, 21540, Note_on_c, 3, 59, 90
5, 21569, Note_on_c, 3, 59, 0
5, 21570, Note_on_c, 3, 62, 90
5, 21599, Note_on_c, 3, 62, 0
5, 21600, Note_on_c, 3, 61, 90
5, 21629, Note_on_c, 3, 61, 0
5, 21630, Note_on_c, 3, 62, 90
5, 21659, Note_on_c, 3, 62, 0
5, 21660, Note_on_c, 3, 64, 90
5, 21689, Note_on_c, 3, 64, 0
5, 21690, Note_on_c, 3, 66, 90
5, 21719, Note_on_c, 3, 66, 0
5, 21720, Note_on_c, 3, 59, 90
5, 21735, Note_on_c, 3, 59, 0
5, 21735, Note_on_c, 3, 61, 90
5, 21750, Note_on_c, 3, 61, 0
5, 21750, Note_on_c, 3, 59, 90
5, 21760, Note_on_c, 3, 59, 0
5, 21760, Note_on_c, 3, 61, 90
5, 21770, Note_on_c, 3, 61, 0
5, 21770, Note_on_c, 3, 59, 90
5, 21780, Note_on_c, 3, 59, 0
5, 21780, Note_on_c, 3, 61, 90
5, 21795, Note_on_c, 3, 61, 0
5, 21795, Note_on_c, 3, 59, 90
5, 21810, Note_on_c, 3, 59, 0
5, 21810, Note_on_c, 3, 57, 90
5, 21839, Note_on_c, 3, 57, 0
5, 21840, Note_on_c, 3, 57, 90
5, 21959, Note_on_c, 3, 57, 0
5, 22020, Note_on_c, 3, 64, 90
5, 22109, Note_on_c, 3, 64, 0
5, 22110, Note_on_c, 3, 67, 90
5, 22139, Note_on_c, 3, 67, 0
5, 22140, Note_on_c, 3, 66, 90
5, 22169, Note_on_c, 3, 66, 0
5, 22170, Note_on_c, 3, 64, 90
5, 22199, Note_on_c, 3, 64, 0
5, 22200, Note_on_c, 3, 62, 90
5, 22259, Note_on_c, 3, 62, 0
5, 22260, Note_on_c, 3, 62, 90
5, 22349, Note_on_c, 3, 62, 0
5, 22350, Note_on_c, 3, 59, 90
5, 22379, Note_on_c, 3, 59, 0
5, 22380, Note_on_c, 3, 56, 90
5, 22409, Note_on_c, 3, 56, 0
5, 22410, Note_on_c, 3, 59, 90
5, 22439, Note_on_c, 3, 59, 0
5, 22440, Note_on_c, 3, 49, 90
5, 22499, Note_on_c, 3, 49, 0
5, 22500, Note_on_c, 3, 61, 90
5, 22589, Note_on_c, 3, 61, 0
5, 22590, Note_on_c, 3, 64, 90
5, 22619, Note_on_c, 3, 64, 0
5, 22620, Note_on_c, 3, 61, 90
5, 22649, Note_on_c, 3, 61, 0
5, 22650, Note_on_c, 3, 57, 90
5, 22679, Note_on_c, 3, 57, 0
5, 22680, Note_on_c, 3, 54, 90
5, 22709, Note_on_c, 3, 54, 0
5, 22710, Note_on_c, 3, 62, 90
5, 22739, Note_on_c, 3, 62, 0
5, 22740, Note_on_c, 3, 59, 90
5, 22769, Note_on_c, 3, 59, 0
5, 22770, Note_on_c, 3, 56, 90
5, 22799, Note_on_c, 3, 56, 0
5, 22800, Note_on_c, 3, 52, 90
5, 22919, Note_on_c, 3, 52, 0
5, 22950, Note_on_c, 3, 52, 90
5, 22979, Note_on_c, 3, 52, 0
5, 22980, Note_on_c, 3, 54, 90
5, 23009, Note_on_c, 3, 54, 0
5, 23010, Note_on_c, 3, 56, 90
5, 23039, Note_on_c, 3, 56, 0
5, 23040, Note_on_c, 3, 57, 90
5, 23069, Note_on_c, 3, 57, 0
5, 23070, Note_on_c, 3, 59, 90
5, 23099, Note_on_c, 3, 59, 0
5, 23100, Note_on_c, 3, 60, 90
5, 23219, Note_on_c, 3, 60, 0
5, 23220, Note_on_c, 3, 59, 90
5, 23249, Note_on_c, 3, 59, 0
5, 23250, Note_on_c, 3, 57, 90
5, 23279, Note_on_c, 3, 57, 0
5, 23280, Note_on_c, 3, 56, 90
5, 23309, Note_on_c, 3, 56, 0
5, 23310, Note_on_c, 3, 57, 90
5, 23339, Note_on_c, 3, 57, 0
5, 23340, Note_on_c, 3, 59, 90
5, 23459, Note_on_c, 3, 59, 0
5, 23460, Note_on_c, 3, 57, 90
5, 23489, Note_on_c, 3, 57, 0
5, 23490, Note_on_c, 3, 56, 90
5, 23519, Note_on_c, 3, 56, 0
5, 23520, Note_on_c, 3, 64, 90
5, 23579, Note_on_c, 3, 64, 0
5, 23580, Note_on_c, 3, 62, 90
5, 23609, Note_on_c, 3, 62, 0
5, 23610, Note_on_c, 3, 61, 90
5, 23639, Note_on_c, 3, 61, 0
5, 23640, Note_on_c, 3, 62, 90
5, 23669, Note_on_c, 3, 62, 0
5, 23670, Note_on_c, 3, 61, 90
5, 23699, Note_on_c, 3, 61, 0
5, 23700, Note_on_c, 3, 59, 90
5, 23729, Note_on_c, 3, 59, 0
5, 23730, Note_on_c, 3, 61, 90
5, 23759, Note_on_c, 3, 61, 0
5, 23760, Note_on_c, 3, 57, 90
5, 23999, Note_on_c, 3, 57, 0
5, 24960, Note_on_c, 3, 57, 90
5, 24989, Note_on_c, 3, 57, 0
5, 24990, Note_on_c, 3, 59, 90
5, 25019, Note_on_c, 3, 59, 0
5, 25020, Note_on_c, 3, 60, 90
5, 25139, Note_on_c, 3, 60, 0
5, 25140, Note_on_c, 3, 59, 90
5, 25169, Note_on_c, 3, 59, 0
5, 25170, Note_on_c, 3, 57, 90
5, 25199, Note_on_c, 3, 57, 0
5, 25200, Note_on_c, 3, 55, 90
5, 25229, Note_on_c, 3, 55, 0
5, 25230, Note_on_c, 3, 54, 90
5, 25259, Note_on_c, 3, 54, 0
5, 25260, Note_on_c, 3, 52, 90
5, 25289, Note_on_c, 3, 52, 0
5, 25290, Note_on_c, 3, 50, 90
5, 25319, Note_on_c, 3, 50, 0
5, 25320, Note_on_c, 3, 52, 90
5, 25349, Note_on_c, 3, 52, 0
5, 25350, Note_on_c, 3, 54, 90
5, 25379, Note_on_c, 3, 54, 0
5, 25380, Note_on_c, 3, 55, 90
5, 25409, Note_on_c, 3, 55, 0
5, 25410, Note_on_c, 3, 57, 90
5, 25439, Note_on_c, 3, 57, 0
5, 25440, Note_on_c, 3, 59, 90
5, 25469, Note_on_c, 3, 59, 0
5, 25470, Note_on_c, 3, 60, 90
5, 25499, Note_on_c, 3, 60, 0
5, 25500, Note_on_c, 3, 62, 90
5, 25529, Note_on_c, 3, 62, 0
5, 25530, Note_on_c, 3, 64, 90
5, 25559, Note_on_c, 3, 64, 0
5, 25560, Note_on_c, 3, 62, 90
5, 25589, Note_on_c, 3, 62, 0
5, 25590, Note_on_c, 3, 60, 90
5, 25619, Note_on_c, 3, 60, 0
5, 25620, Note_on_c, 3, 59, 90
5, 25649, Note_on_c, 3, 59, 0
5, 25650, Note_on_c, 3, 57, 90
5, 25679, Note_on_c, 3, 57, 0
5, 25680, Note_on_c, 3, 60, 90
5, 25709, Note_on_c, 3, 60, 0
5, 25710, Note_on_c, 3, 59, 90
5, 25739, Note_on_c, 3, 59, 0
5, 25740, Note_on_c, 3, 57, 90
5, 25769, Note_on_c, 3, 57, 0
5, 25770, Note_on_c, 3, 59, 90
5, 25799, Note_on_c, 3, 59, 0
5, 25800, Note_on_c, 3, 55, 90
5, 25829, Note_on_c, 3, 55, 0
5, 25830, Note_on_c, 3, 59, 90
5, 25859, Note_on_c, 3, 59, 0
5, 25860, Note_on_c, 3, 62, 90
5, 25889, Note_on_c, 3, 62, 0
5, 25890, Note_on_c, 3, 67, 90
5, 25919, Note_on_c, 3, 67, 0
5, 25920, Note_on_c, 3, 64, 90
5, 25979, Note_on_c, 3, 64, 0
5, 25980, Note_on_c, 3, 55, 90
5, 26039, Note_on_c, 3, 55, 0
5, 26040, Note_on_c, 3, 60, 90
5, 26099, Note_on_c, 3, 60, 0
5, 26100, Note_on_c, 3, 64, 90
5, 26189, Note_on_c, 3, 64, 0
5, 26190, Note_on_c, 3, 62, 90
5, 26219, Note_on_c, 3, 62, 0
5, 26220, Note_on_c, 3, 60, 90
5, 26249, Note_on_c, 3, 60, 0
5, 26250, Note_on_c, 3, 59, 90
5, 26279, Note_on_c, 3, 59, 0
5, 26280, Note_on_c, 3, 57, 90
5, 26309, Note_on_c, 3, 57, 0
5, 26310, Note_on_c, 3, 59, 90
5, 26339, Note_on_c, 3, 59, 0
5, 26340, Note_on_c, 3, 60, 90
5, 26369, Note_on_c, 3, 60, 0
5, 26370, Note_on_c, 3, 64, 90
5, 26399, Note_on_c, 3, 64, 0
5, 26400, Note_on_c, 3, 63, 90
5, 26459, Note_on_c, 3, 63, 0
5, 26460, Note_on_c, 3, 59, 90
5, 26519, Note_on_c, 3, 59, 0
5, 26520, Note_on_c, 3, 54, 90
5, 26579, Note_on_c, 3, 54, 0
5, 26580, Note_on_c, 3, 66, 90
5, 26699, Note_on_c, 3, 66, 0
5, 26700, Note_on_c, 3, 59, 90
5, 26759, Note_on_c, 3, 59, 0
5, 26760, Note_on_c, 3, 64, 90
5, 26789, Note_on_c, 3, 64, 0
5, 26790, Note_on_c, 3, 66, 90
5, 26819, Note_on_c, 3, 66, 0
5, 26820, Note_on_c, 3, 67, 90
5, 26909, Note_on_c, 3, 67, 0
5, 26910, Note_on_c, 3, 66, 90
5, 26939, Note_on_c, 3, 66, 0
5, 26940, Note_on_c, 3, 64, 90
5, 26969, Note_on_c, 3, 64, 0
5, 26970, Note_on_c, 3, 62, 90
5, 26999, Note_on_c, 3, 62, 0
5, 27000, Note_on_c, 3, 61, 90
5, 27059, Note_on_c, 3, 61, 0
5, 27060, Note_on_c, 3, 66, 90
5, 27149, Note_on_c, 3, 66, 0
5, 27150, Note_on_c, 3, 64, 90
5, 27179, Note_on_c, 3, 64, 0
5, 27180, Note_on_c, 3, 62, 90
5, 27209, Note_on_c, 3, 62, 0
5, 27210, Note_on_c, 3, 61, 90
5, 27239, Note_on_c, 3, 61, 0
5, 27240, Note_on_c, 3, 59, 90
5, 27299, Note_on_c, 3, 59, 0
5, 27300, Note_on_c, 3, 67, 90
5, 27389, Note_on_c, 3, 67, 0
5, 27390, Note_on_c, 3, 58, 90
5, 27419, Note_on_c, 3, 58, 0
5, 27420, Note_on_c, 3, 59, 90
5, 27449, Note_on_c, 3, 59, 0
5, 27450, Note_on_c, 3, 61, 90
5, 27479, Note_on_c, 3, 61, 0
5, 27480, Note_on_c, 3, 54, 90
5, 27539, Note_on_c, 3, 54, 0
5, 27540, Note_on_c, 3, 58, 90
5, 27599, Note_on_c, 3, 58, 0
5, 27600, Note_on_c, 3, 59, 90
5, 27629, Note_on_c, 3, 59, 0
5, 27630, Note_on_c, 3, 61, 90
5, 27659, Note_on_c, 3, 61, 0
5, 27660, Note_on_c, 3, 62, 90
5, 27779, Note_on_c, 3, 62, 0
5, 27780, Note_on_c, 3, 61, 90
5, 27809, Note_on_c, 3, 61, 0
5, 27810, Note_on_c, 3, 59, 90
5, 27839, Note_on_c, 3, 59, 0
5, 27840, Note_on_c, 3, 57, 90
5, 27869, Note_on_c, 3, 57, 0
5, 27870, Note_on_c, 3, 56, 90
5, 27899, Note_on_c, 3, 56, 0
5, 27900, Note_on_c, 3, 54, 90
5, 27929, Note_on_c, 3, 54, 0
5, 27930, Note_on_c, 3, 52, 90
5, 27959, Note_on_c, 3, 52, 0
5, 27960, Note_on_c, 3, 54, 90
5, 27989, Note_on_c, 3, 54, 0
5, 27990, Note_on_c, 3, 56, 90
5, 28019, Note_on_c, 3, 56, 0
5, 28020, Note_on_c, 3, 57, 90
5, 28049, Note_on_c, 3, 57, 0
5, 28050, Note_on_c, 3, 59, 90
5, 28079, Note_on_c, 3, 59, 0
5, 28080, Note_on_c, 3, 61, 90
5, 28109, Note_on_c, 3, 61, 0
5, 28110, Note_on_c, 3, 62, 90
5, 28139, Note_on_c, 3, 62, 0
5, 28140, Note_on_c, 3, 64, 90
5, 28169, Note_on_c, 3, 64, 0
5, 28170, Note_on_c, 3, 66, 90
5, 28199, Note_on_c, 3, 66, 0
5, 28200, Note_on_c, 3, 64, 90
5, 28229, Note_on_c, 3, 64, 0
5, 28230, Note_on_c, 3, 62, 90
5, 28259, Note_on_c, 3, 62, 0
5, 28260, Note_on_c, 3, 61, 90
5, 28289, Note_on_c, 3, 61, 0
5, 28290, Note_on_c, 3, 59, 90
5, 28319, Note_on_c, 3, 59, 0
5, 28320, Note_on_c, 3, 62, 90
5, 28349, Note_on_c, 3, 62, 0
5, 28350, Note_on_c, 3, 61, 90
5, 28379, Note_on_c, 3, 61, 0
5, 28380, Note_on_c, 3, 59, 90
5, 28409, Note_on_c, 3, 59, 0
5, 28410, Note_on_c, 3, 61, 90
5, 28439, Note_on_c, 3, 61, 0
5, 28440, Note_on_c, 3, 57, 90
5, 28559, Note_on_c, 3, 57, 0
5, 28620, Note_on_c, 3, 64, 90
5, 28649, Note_on_c, 3, 64, 0
5, 28650, Note_on_c, 3, 66, 90
5, 28679, Note_on_c, 3, 66, 0
5, 28680, Note_on_c, 3, 67, 90
5, 28739, Note_on_c, 3, 67, 0
5, 28860, Note_on_c, 3, 66, 90
5, 28889, Note_on_c, 3, 66, 0
5, 28890, Note_on_c, 3, 67, 90
5, 28919, Note_on_c, 3, 67, 0
5, 28920, Note_on_c, 3, 66, 90
5, 28949, Note_on_c, 3, 66, 0
5, 28950, Note_on_c, 3, 64, 90
5, 28979, Note_on_c, 3, 64, 0
5, 28980, Note_on_c, 3, 62, 90
5, 29009, Note_on_c, 3, 62, 0
5, 29010, Note_on_c, 3, 61, 90
5, 29039, Note_on_c, 3, 61, 0
5, 29040, Note_on_c, 3, 62, 90
5, 29099, Note_on_c, 3, 62, 0
5, 29100, Note_on_c, 3, 66, 90
5, 29159, Note_on_c, 3, 66, 0
5, 29160, Note_on_c, 3, 71, 90
5, 29279, Note_on_c, 3, 71, 0
5, 29310, Note_on_c, 3, 68, 90
5, 29339, Note_on_c, 3, 68, 0
5, 29340, Note_on_c, 3, 69, 90
5, 29369, Note_on_c, 3, 69, 0
5, 29370, Note_on_c, 3, 66, 90
5, 29399, Note_on_c, 3, 66, 0
5, 29400, Note_on_c, 3, 66, 90
5, 29429, Note_on_c, 3, 66, 0
5, 29430, Note_on_c, 3, 65, 90
5, 29445, Note_on_c, 3, 65, 0
5, 29445, Note_on_c, 3, 66, 90
5, 29460, Note_on_c, 3, 66, 0
5, 29460, Note_on_c, 3, 65, 90
5, 29490, Note_on_c, 3, 65, 0
5, 29490, Note_on_c, 3, 66, 90
5, 29519, Note_on_c, 3, 66, 0
5, 29520, Note_on_c, 3, 66, 90
5, 29759, Note_on_c, 3, 66, 0
5, 29760, Note_on_c, 3, 66, 90
5, 29789, Note_on_c, 3, 66, 0
5, 29790, Note_on_c, 3, 67, 90
5, 29819, Note_on_c, 3, 67, 0
5, 29820, Note_on_c, 3, 69, 90
5, 29939, Note_on_c, 3, 69, 0
5, 29940, Note_on_c, 3, 67, 90
5, 29969, Note_on_c, 3, 67, 0
5, 29970, Note_on_c, 3, 66, 90
5, 29999, Note_on_c, 3, 66, 0
5, 30000, Note_on_c, 3, 64, 90
5, 30029, Note_on_c, 3, 64, 0
5, 30030, Note_on_c, 3, 66, 90
5, 30059, Note_on_c, 3, 66, 0
5, 30060, Note_on_c, 3, 67, 90
5, 30179, Note_on_c, 3, 67, 0
5, 30180, Note_on_c, 3, 66, 90
5, 30209, Note_on_c, 3, 66, 0
5, 30210, Note_on_c, 3, 64, 90
5, 30239, Note_on_c, 3, 64, 0
5, 30240, Note_on_c, 3, 66, 90
5, 30299, Note_on_c, 3, 66, 0
5, 30300, Note_on_c, 3, 62, 90
5, 30359, Note_on_c, 3, 62, 0
5, 30360, Note_on_c, 3, 61, 90
5, 30375, Note_on_c, 3, 61, 0
5, 30375, Note_on_c, 3, 62, 90
5, 30390, Note_on_c, 3, 62, 0
5, 30390, Note_on_c, 3, 61, 90
5, 30419, Note_on_c, 3, 61, 0
5, 30420, Note_on_c, 3, 62, 90
5, 30479, Note_on_c, 3, 62, 0
5, 30480, Note_on_c, 3, 64, 90
5, 30509, Note_on_c, 3, 64, 0
5, 30510, Note_on_c, 3, 62, 90
5, 30539, Note_on_c, 3, 62, 0
5, 30540, Note_on_c, 3, 61, 90
5, 30569, Note_on_c, 3, 61, 0
5, 30570, Note_on_c, 3, 59, 90
5, 30599, Note_on_c, 3, 59, 0
5, 30600, Note_on_c, 3, 57, 90
5, 30629, Note_on_c, 3, 57, 0
5, 30630, Note_on_c, 3, 55, 90
5, 30659, Note_on_c, 3, 55, 0
5, 30660, Note_on_c, 3, 54, 90
5, 30689, Note_on_c, 3, 54, 0
5, 30690, Note_on_c, 3, 52, 90
5, 30719, Note_on_c, 3, 52, 0
5, 30720, Note_on_c, 3, 50, 90
5, 30749, Note_on_c, 3, 50, 0
5, 30750, Note_on_c, 3, 52, 90
5, 30779, Note_on_c, 3, 52, 0
5, 30780, Note_on_c, 3, 54, 90
5, 30809, Note_on_c, 3, 54, 0
5, 30810, Note_on_c, 3, 52, 90
5, 30839, Note_on_c, 3, 52, 0
5, 30840, Note_on_c, 3, 50, 90
5, 30869, Note_on_c, 3, 50, 0
5, 30870, Note_on_c, 3, 54, 90
5, 30899, Note_on_c, 3, 54, 0
5, 30900, Note_on_c, 3, 57, 90
5, 30929, Note_on_c, 3, 57, 0
5, 30930, Note_on_c, 3, 62, 90
5, 30959, Note_on_c, 3, 62, 0
5, 30960, Note_on_c, 3, 61, 90
5, 30989, Note_on_c, 3, 61, 0
5, 30990, Note_on_c, 3, 62, 90
5, 31019, Note_on_c, 3, 62, 0
5, 31020, Note_on_c, 3, 64, 90
5, 31049, Note_on_c, 3, 64, 0
5, 31050, Note_on_c, 3, 62, 90
5, 31079, Note_on_c, 3, 62, 0
5, 31080, Note_on_c, 3, 61, 90
5, 31109, Note_on_c, 3, 61, 0
5, 31110, Note_on_c, 3, 64, 90
5, 31139, Note_on_c, 3, 64, 0
5, 31140, Note_on_c, 3, 57, 90
5, 31169, Note_on_c, 3, 57, 0
5, 31170, Note_on_c, 3, 61, 90
5, 31199, Note_on_c, 3, 61, 0
5, 31200, Note_on_c, 3, 62, 90
5, 31229, Note_on_c, 3, 62, 0
5, 31230, Note_on_c, 3, 57, 90
5, 31259, Note_on_c, 3, 57, 0
5, 31260, Note_on_c, 3, 66, 90
5, 31289, Note_on_c, 3, 66, 0
5, 31290, Note_on_c, 3, 57, 90
5, 31319, Note_on_c, 3, 57, 0
5, 31320, Note_on_c, 3, 64, 90
5, 31349, Note_on_c, 3, 64, 0
5, 31350, Note_on_c, 3, 57, 90
5, 31379, Note_on_c, 3, 57, 0
5, 31380, Note_on_c, 3, 62, 90
5, 31409, Note_on_c, 3, 62, 0
5, 31410, Note_on_c, 3, 57, 90
5, 31439, Note_on_c, 3, 57, 0
5, 31440, Note_on_c, 3, 61, 90
5, 31469, Note_on_c, 3, 61, 0
5, 31470, Note_on_c, 3, 62, 90
5, 31499, Note_on_c, 3, 62, 0
5, 31500, Note_on_c, 3, 64, 90
5, 31529, Note_on_c, 3, 64, 0
5, 31530, Note_on_c, 3, 62, 90
5, 31559, Note_on_c, 3, 62, 0
5, 31560, Note_on_c, 3, 61, 90
5, 31589, Note_on_c, 3, 61, 0
5, 31590, Note_on_c, 3, 59, 90
5, 31619, Note_on_c, 3, 59, 0
5, 31620, Note_on_c, 3, 57, 90
5, 31649, Note_on_c, 3, 57, 0
5, 31650, Note_on_c, 3, 55, 90
5, 31679, Note_on_c, 3, 55, 0
5, 31680, Note_on_c, 3, 54, 90
5, 31709, Note_on_c, 3, 54, 0
5, 31710, Note_on_c, 3, 55, 90
5, 31739, Note_on_c, 3, 55, 0
5, 31740, Note_on_c, 3, 57, 90
5, 31769, Note_on_c, 3, 57, 0
5, 31770, Note_on_c, 3, 54, 90
5, 31799, Note_on_c, 3, 54, 0
5, 31800, Note_on_c, 3, 50, 90
5, 31829, Note_on_c, 3, 50, 0
5, 31830, Note_on_c, 3, 54, 90
5, 31859, Note_on_c, 3, 54, 0
5, 31860, Note_on_c, 3, 57, 90
5, 31889, Note_on_c, 3, 57, 0
5, 31890, Note_on_c, 3, 60, 90
5, 31919, Note_on_c, 3, 60, 0
5, 31920, Note_on_c, 3, 59, 90
5, 31949, Note_on_c, 3, 59, 0
5, 31950, Note_on_c, 3, 60, 90
5, 31979, Note_on_c, 3, 60, 0
5, 31980, Note_on_c, 3, 62, 90
5, 32069, Note_on_c, 3, 62, 0
5, 32070, Note_on_c, 3, 50, 90
5, 32099, Note_on_c, 3, 50, 0
5, 32100, Note_on_c, 3, 52, 90
5, 32129, Note_on_c, 3, 52, 0
5, 32130, Note_on_c, 3, 54, 90
5, 32159, Note_on_c, 3, 54, 0
5, 32160, Note_on_c, 3, 55, 90
5, 32189, Note_on_c, 3, 55, 0
5, 32190, Note_on_c, 3, 57, 90
5, 32219, Note_on_c, 3, 57, 0
5, 32220, Note_on_c, 3, 59, 90
5, 32249, Note_on_c, 3, 59, 0
5, 32250, Note_on_c, 3, 55, 90
5, 32279, Note_on_c, 3, 55, 0
5, 32280, Note_on_c, 3, 52, 90
5, 32309, Note_on_c, 3, 52, 0
5, 32310, Note_on_c, 3, 55, 90
5, 32339, Note_on_c, 3, 55, 0
5, 32340, Note_on_c, 3, 59, 90
5, 32369, Note_on_c, 3, 59, 0
5, 32370, Note_on_c, 3, 62, 90
5, 32399, Note_on_c, 3, 62, 0
5, 32400, Note_on_c, 3, 61, 90
5, 32429, Note_on_c, 3, 61, 0
5, 32430, Note_on_c, 3, 62, 90
5, 32459, Note_on_c, 3, 62, 0
5, 32460, Note_on_c, 3, 64, 90
5, 32549, Note_on_c, 3, 64, 0
5, 32550, Note_on_c, 3, 64, 90
5, 32579, Note_on_c, 3, 64, 0
5, 32580, Note_on_c, 3, 66, 90
5, 32609, Note_on_c, 3, 66, 0
5, 32610, Note_on_c, 3, 67, 90
5, 32639, Note_on_c, 3, 67, 0
5, 32640, Note_on_c, 3, 69, 90
5, 32699, Note_on_c, 3, 69, 0
5, 32700, Note_on_c, 3, 69, 90
5, 32819, Note_on_c, 3, 69, 0
5, 32820, Note_on_c, 3, 67, 90
5, 32849, Note_on_c, 3, 67, 0
5, 32850, Note_on_c, 3, 66, 90
5, 32879, Note_on_c, 3, 66, 0
5, 32880, Note_on_c, 3, 67, 90
5, 32939, Note_on_c, 3, 67, 0
5, 32940, Note_on_c, 3, 67, 90
5, 33059, Note_on_c, 3, 67, 0
5, 33060, Note_on_c, 3, 66, 90
5, 33089, Note_on_c, 3, 66, 0
5, 33090, Note_on_c, 3, 64, 90
5, 33119, Note_on_c, 3, 64, 0
5, 33120, Note_on_c, 3, 66, 90
5, 33179, Note_on_c, 3, 66, 0
5, 33180, Note_on_c, 3, 64, 90
5, 33209, Note_on_c, 3, 64, 0
5, 33210, Note_on_c, 3, 62, 90
5, 33239, Note_on_c, 3, 62, 0
5, 33240, Note_on_c, 3, 66, 90
5, 33269, Note_on_c, 3, 66, 0
5, 33270, Note_on_c, 3, 64, 90
5, 33299, Note_on_c, 3, 64, 0
5, 33300, Note_on_c, 3, 62, 90
5, 33329, Note_on_c, 3, 62, 0
5, 33330, Note_on_c, 3, 61, 90
5, 33359, Note_on_c, 3, 61, 0
5, 33360, Note_on_c, 3, 62, 90
5, 33389, Note_on_c, 3, 62, 0
5, 33390, Note_on_c, 3, 57, 90
5, 33419, Note_on_c, 3, 57, 0
5, 33420, Note_on_c, 3, 54, 90
5, 33449, Note_on_c, 3, 54, 0
5, 33450, Note_on_c, 3, 50, 90
5, 33479, Note_on_c, 3, 50, 0
5, 33480, Note_on_c, 3, 60, 90
5, 33599, Note_on_c, 3, 60, 0
5, 33630, Note_on_c, 3, 57, 90
5, 33659, Note_on_c, 3, 57, 0
5, 33660, Note_on_c, 3, 54, 90
5, 33689, Note_on_c, 3, 54, 0
5, 33690, Note_on_c, 3, 50, 90
5, 33719, Note_on_c, 3, 50, 0
5, 33720, Note_on_c, 3, 59, 90
5, 33839, Note_on_c, 3, 59, 0
5, 33870, Note_on_c, 3, 55, 90
5, 33899, Note_on_c, 3, 55, 0
5, 33900, Note_on_c, 3, 52, 90
5, 33929, Note_on_c, 3, 52, 0
5, 33930, Note_on_c, 3, 49, 90
5, 33959, Note_on_c, 3, 49, 0
5, 33960, Note_on_c, 3, 57, 90
5, 34079, Note_on_c, 3, 57, 0
5, 34110, Note_on_c, 3, 54, 90
5, 34139, Note_on_c, 3, 54, 0
5, 34140, Note_on_c, 3, 50, 90
5, 34169, Note_on_c, 3, 50, 0
5, 34170, Note_on_c, 3, 47, 90
5, 34199, Note_on_c, 3, 47, 0
5, 34200, Note_on_c, 3, 55, 90
5, 34319, Note_on_c, 3, 55, 0
5, 34350, Note_on_c, 3, 57, 90
5, 34379, Note_on_c, 3, 57, 0
5, 34380, Note_on_c, 3, 61, 90
5, 34409, Note_on_c, 3, 61, 0
5, 34410, Note_on_c, 3, 64, 90
5, 34439, Note_on_c, 3, 64, 0
5, 34440, Note_on_c, 3, 69, 90
5, 34469, Note_on_c, 3, 69, 0
5, 34470, Note_on_c, 3, 67, 90
5, 34499, Note_on_c, 3, 67, 0
5, 34500, Note_on_c, 3, 65, 90
5, 34529, Note_on_c, 3, 65, 0
5, 34530, Note_on_c, 3, 64, 90
5, 34559, Note_on_c, 3, 64, 0
5, 34560, Note_on_c, 3, 65, 90
5, 34589, Note_on_c, 3, 65, 0
5, 34590, Note_on_c, 3, 67, 90
5, 34619, Note_on_c, 3, 67, 0
5, 34620, Note_on_c, 3, 69, 90
5, 34739, Note_on_c, 3, 69, 0
5, 34740, Note_on_c, 3, 67, 90
5, 34769, Note_on_c, 3, 67, 0
5, 34770, Note_on_c, 3, 65, 90
5, 34799, Note_on_c, 3, 65, 0
5, 34800, Note_on_c, 3, 64, 90
5, 34829, Note_on_c, 3, 64, 0
5, 34830, Note_on_c, 3, 65, 90
5, 34859, Note_on_c, 3, 65, 0
5, 34860, Note_on_c, 3, 67, 90
5, 34979, Note_on_c, 3, 67, 0
5, 34980, Note_on_c, 3, 66, 90
5, 35009, Note_on_c, 3, 66, 0
5, 35010, Note_on_c, 3, 64, 90
5, 35039, Note_on_c, 3, 64, 0
5, 35040, Note_on_c, 3, 67, 90
5, 35069, Note_on_c, 3, 67, 0
5, 35070, Note_on_c, 3, 66, 90
5, 35099, Note_on_c, 3, 66, 0
5, 35100, Note_on_c, 3, 64, 90
5, 35129, Note_on_c, 3, 64, 0
5, 35130, Note_on_c, 3, 62, 90
5, 35159, Note_on_c, 3, 62, 0
5, 35160, Note_on_c, 3, 57, 90
5, 35219, Note_on_c, 3, 57, 0
5, 35220, Note_on_c, 3, 61, 90
5, 35279, Note_on_c, 3, 61, 0
5, 35280, Note_on_c, 3, 62, 90
5, 35519, Note_on_c, 3, 62, 0
5, 36480, Note_on_c, 3, 57, 90
5, 36509, Note_on_c, 3, 57, 0
5, 36510, Note_on_c, 3, 59, 90
5, 36539, Note_on_c, 3, 59, 0
5, 36540, Note_on_c, 3, 60, 90
5, 36659, Note_on_c, 3, 60, 0
5, 36660, Note_on_c, 3, 59, 90
5, 36689, Note_on_c, 3, 59, 0
5, 36690, Note_on_c, 3, 57, 90
5, 36719, Note_on_c, 3, 57, 0
5, 36720, Note_on_c, 3, 55, 90
5, 36749, Note_on_c, 3, 55, 0
5, 36750, Note_on_c, 3, 54, 90
5, 36779, Note_on_c, 3, 54, 0
5, 36780, Note_on_c, 3, 52, 90
5, 36809, Note_on_c, 3, 52, 0
5, 36810, Note_on_c, 3, 50, 90
5, 36839, Note_on_c, 3, 50, 0
5, 36840, Note_on_c, 3, 52, 90
5, 36869, Note_on_c, 3, 52, 0
5, 36870, Note_on_c, 3, 54, 90
5, 36899, Note_on_c, 3, 54, 0
5, 36900, Note_on_c, 3, 55, 90
5, 36929, Note_on_c, 3, 55, 0
5, 36930, Note_on_c, 3, 57, 90
5, 36959, Note_on_c, 3, 57, 0
5, 36960, Note_on_c, 3, 59, 90
5, 36989, Note_on_c, 3, 59, 0
5, 36990, Note_on_c, 3, 60, 90
5, 37019, Note_on_c, 3, 60, 0
5, 37020, Note_on_c, 3, 62, 90
5, 37049, Note_on_c, 3, 62, 0
5, 37050, Note_on_c, 3, 64, 90
5, 37079, Note_on_c, 3, 64, 0
5, 37080, Note_on_c, 3, 62, 90
5, 37109, Note_on_c, 3, 62, 0
5, 37110, Note_on_c, 3, 60, 90
5, 37139, Note_on_c, 3, 60, 0
5, 37140, Note_on_c, 3, 59, 90
5, 37169, Note_on_c, 3, 59, 0
5, 37170, Note_on_c, 3, 57, 90
5, 37199, Note_on_c, 3, 57, 0
5, 37200, Note_on_c, 3, 60, 90
5, 37229, Note_on_c, 3, 60, 0
5, 37230, Note_on_c, 3, 59, 90
5, 37259, Note_on_c, 3, 59, 0
5, 37260, Note_on_c, 3, 57, 90
5, 37289, Note_on_c, 3, 57, 0
5, 37290, Note_on_c, 3, 59, 90
5, 37319, Note_on_c, 3, 59, 0
5, 37320, Note_on_c, 3, 55, 90
5, 37349, Note_on_c, 3, 55, 0
5, 37350, Note_on_c, 3, 59, 90
5, 37379, Note_on_c, 3, 59, 0
5, 37380, Note_on_c, 3, 62, 90
5, 37409, Note_on_c, 3, 62, 0
5, 37410, Note_on_c, 3, 67, 90
5, 37439, Note_on_c, 3, 67, 0
5, 37440, Note_on_c, 3, 64, 90
5, 37499, Note_on_c, 3, 64, 0
5, 37500, Note_on_c, 3, 55, 90
5, 37559, Note_on_c, 3, 55, 0
5, 37560, Note_on_c, 3, 60, 90
5, 37619, Note_on_c, 3, 60, 0
5, 37620, Note_on_c, 3, 64, 90
5, 37709, Note_on_c, 3, 64, 0
5, 37710, Note_on_c, 3, 62, 90
5, 37739, Note_on_c, 3, 62, 0
5, 37740, Note_on_c, 3, 60, 90
5, 37769, Note_on_c, 3, 60, 0
5, 37770, Note_on_c, 3, 59, 90
5, 37799, Note_on_c, 3, 59, 0
5, 37800, Note_on_c, 3, 57, 90
5, 37829, Note_on_c, 3, 57, 0
5, 37830, Note_on_c, 3, 59, 90
5, 37859, Note_on_c, 3, 59, 0
5, 37860, Note_on_c, 3, 60, 90
5, 37889, Note_on_c, 3, 60, 0
5, 37890, Note_on_c, 3, 64, 90
5, 37919, Note_on_c, 3, 64, 0
5, 37920, Note_on_c, 3, 63, 90
5, 37979, Note_on_c, 3, 63, 0
5, 37980, Note_on_c, 3, 59, 90
5, 38039, Note_on_c, 3, 59, 0
5, 38040, Note_on_c, 3, 54, 90
5, 38099, Note_on_c, 3, 54, 0
5, 38100, Note_on_c, 3, 66, 90
5, 38219, Note_on_c, 3, 66, 0
5, 38220, Note_on_c, 3, 59, 90
5, 38279, Note_on_c, 3, 59, 0
5, 38280, Note_on_c, 3, 64, 90
5, 38309, Note_on_c, 3, 64, 0
5, 38310, Note_on_c, 3, 66, 90
5, 38339, Note_on_c, 3, 66, 0
5, 38340, Note_on_c, 3, 67, 90
5, 38429, Note_on_c, 3, 67, 0
5, 38430, Note_on_c, 3, 66, 90
5, 38459, Note_on_c, 3, 66, 0
5, 38460, Note_on_c, 3, 64, 90
5, 38489, Note_on_c, 3, 64, 0
5, 38490, Note_on_c, 3, 62, 90
5, 38519, Note_on_c, 3, 62, 0
5, 38520, Note_on_c, 3, 61, 90
5, 38579, Note_on_c, 3, 61, 0
5, 38580, Note_on_c, 3, 66, 90
5, 38669, Note_on_c, 3, 66, 0
5, 38670, Note_on_c, 3, 64, 90
5, 38699, Note_on_c, 3, 64, 0
5, 38700, Note_on_c, 3, 62, 90
5, 38729, Note_on_c, 3, 62, 0
5, 38730, Note_on_c, 3, 61, 90
5, 38759, Note_on_c, 3, 61, 0
5, 38760, Note_on_c, 3, 59, 90
5, 38819, Note_on_c, 3, 59, 0
5, 38820, Note_on_c, 3, 67, 90
5, 38909, Note_on_c, 3, 67, 0
5, 38910, Note_on_c, 3, 58, 90
5, 38939, Note_on_c, 3, 58, 0
5, 38940, Note_on_c, 3, 59, 90
5, 38969, Note_on_c, 3, 59, 0
5, 38970, Note_on_c, 3, 61, 90
5, 38999, Note_on_c, 3, 61, 0
5, 39000, Note_on_c, 3, 54, 90
5, 39059, Note_on_c, 3, 54, 0
5, 39060, Note_on_c, 3, 58, 90
5, 39119, Note_on_c, 3, 58, 0
5, 39120, Note_on_c, 3, 59, 90
5, 39149, Note_on_c, 3, 59, 0
5, 39150, Note_on_c, 3, 61, 90
5, 39179, Note_on_c, 3, 61, 0
5, 39180, Note_on_c, 3, 62, 90
5, 39299, Note_on_c, 3, 62, 0
5, 39300, Note_on_c, 3, 61, 90
5, 39329, Note_on_c, 3, 61, 0
5, 39330, Note_on_c, 3, 59, 90
5, 39359, Note_on_c, 3, 59, 0
5, 39360, Note_on_c, 3, 57, 90
5, 39389, Note_on_c, 3, 57, 0
5, 39390, Note_on_c, 3, 56, 90
5, 39419, Note_on_c, 3, 56, 0
5, 39420, Note_on_c, 3, 54, 90
5, 39449, Note_on_c, 3, 54, 0
5, 39450, Note_on_c, 3, 52, 90
5, 39479, Note_on_c, 3, 52, 0
5, 39480, Note_on_c, 3, 54, 90
5, 39509, Note_on_c, 3, 54, 0
5, 39510, Note_on_c, 3, 56, 90
5, 39539, Note_on_c, 3, 56, 0
5, 39540, Note_on_c, 3, 57, 90
5, 39569, Note_on_c, 3, 57, 0
5, 39570, Note_on_c, 3, 59, 90
5, 39599, Note_on_c, 3, 59, 0
5, 39600, Note_on_c, 3, 61, 90
5, 39629, Note_on_c, 3, 61, 0
5, 39630, Note_on_c, 3, 62, 90
5, 39659, Note_on_c, 3, 62, 0
5, 39660, Note_on_c, 3, 64, 90
5, 39689, Note_on_c, 3, 64, 0
5, 39690, Note_on_c, 3, 66, 90
5, 39719, Note_on_c, 3, 66, 0
5, 39720, Note_on_c, 3, 64, 90
5, 39749, Note_on_c, 3, 64, 0
5, 39750, Note_on_c, 3, 62, 90
5, 39779, Note_on_c, 3, 62, 0
5, 39780, Note_on_c, 3, 61, 90
5, 39809, Note_on_c, 3, 61, 0
5, 39810, Note_on_c, 3, 59, 90
5, 39839, Note_on_c, 3, 59, 0
5, 39840, Note_on_c, 3, 62, 90
5, 39869, Note_on_c, 3, 62, 0
5, 39870, Note_on_c, 3, 61, 90
5, 39899, Note_on_c, 3, 61, 0
5, 39900, Note_on_c, 3, 59, 90
5, 39929, Note_on_c, 3, 59, 0
5, 39930, Note_on_c, 3, 61, 90
5, 39959, Note_on_c, 3, 61, 0
5, 39960, Note_on_c, 3, 57, 90
5, 40079, Note_on_c, 3, 57, 0
5, 40140, Note_on_c, 3, 64, 90
5, 40169, Note_on_c, 3, 64, 0
5, 40170, Note_on_c, 3, 66, 90
5, 40199, Note_on_c, 3, 66, 0
5, 40200, Note_on_c, 3, 67, 90
5, 40259, Note_on_c, 3, 67, 0
5, 40380, Note_on_c, 3, 66, 90
5, 40409, Note_on_c, 3, 66, 0
5, 40410, Note_on_c, 3, 67, 90
5, 40439, Note_on_c, 3, 67, 0
5, 40440, Note_on_c, 3, 66, 90
5, 40469, Note_on_c, 3, 66, 0
5, 40470, Note_on_c, 3, 64, 90
5, 40499, Note_on_c, 3, 64, 0
5, 40500, Note_on_c, 3, 62, 90
5, 40529, Note_on_c, 3, 62, 0
5, 40530, Note_on_c, 3, 61, 90
5, 40559, Note_on_c, 3, 61, 0
5, 40560, Note_on_c, 3, 62, 90
5, 40619, Note_on_c, 3, 62, 0
5, 40620, Note_on_c, 3, 66, 90
5, 40679, Note_on_c, 3, 66, 0
5, 40680, Note_on_c, 3, 71, 90
5, 40799, Note_on_c, 3, 71, 0
5, 40830, Note_on_c, 3, 68, 90
5, 40859, Note_on_c, 3, 68, 0
5, 40860, Note_on_c, 3, 69, 90
5, 40889, Note_on_c, 3, 69, 0
5, 40890, Note_on_c, 3, 66, 90
5, 40919, Note_on_c, 3, 66, 0
5, 40920, Note_on_c, 3, 66, 90
5, 40949, Note_on_c, 3, 66, 0
5, 40950, Note_on_c, 3, 65, 90
5, 40965, Note_on_c, 3, 65, 0
5, 40965, Note_on_c, 3, 66, 90
5, 40980, Note_on_c, 3, 66, 0
5, 40980, Note_on_c, 3, 65, 90
5, 41010, Note_on_c, 3, 65, 0
5, 41010, Note_on_c, 3, 66, 90
5, 41039, Note_on_c, 3, 66, 0
5, 41040, Note_on_c, 3, 66, 90
5, 41279, Note_on_c, 3, 66, 0
5, 41280, Note_on_c, 3, 66, 90
5, 41309, Note_on_c, 3, 66, 0
5, 41310, Note_on_c, 3, 67, 90
5, 41339, Note_on_c, 3, 67, 0
5, 41340, Note_on_c, 3, 69, 90
5, 41459, Note_on_c, 3, 69, 0
5, 41460, Note_on_c, 3, 67, 90
5, 41489, Note_on_c, 3, 67, 0
5, 41490, Note_on_c, 3, 66, 90
5, 41519, Note_on_c, 3, 66, 0
5, 41520, Note_on_c, 3, 64, 90
5, 41549, Note_on_c, 3, 64, 0
5, 41550, Note_on_c, 3, 66, 90
5, 41579, Note_on_c, 3, 66, 0
5, 41580, Note_on_c, 3, 67, 90
5, 41699, Note_on_c, 3, 67, 0
5, 41700, Note_on_c, 3, 66, 90
5, 41729, Note_on_c, 3, 66, 0
5, 41730, Note_on_c, 3, 64, 90
5, 41759, Note_on_c, 3, 64, 0
5, 41760, Note_on_c, 3, 66, 90
5, 41819, Note_on_c, 3, 66, 0
5, 41820, Note_on_c, 3, 62, 90
5, 41879, Note_on_c, 3, 62, 0
5, 41880, Note_on_c, 3, 61, 90
5, 41895, Note_on_c, 3, 61, 0
5, 41895, Note_on_c, 3, 62, 90
5, 41910, Note_on_c, 3, 62, 0
5, 41910, Note_on_c, 3, 61, 90
5, 41939, Note_on_c, 3, 61, 0
5, 41940, Note_on_c, 3, 62, 90
5, 41999, Note_on_c, 3, 62, 0
5, 42000, Note_on_c, 3, 64, 90
5, 42029, Note_on_c, 3, 64, 0
5, 42030, Note_on_c, 3, 62, 90
5, 42059, Note_on_c, 3, 62, 0
5, 42060, Note_on_c, 3, 61, 90
5, 42089, Note_on_c, 3, 61, 0
5, 42090, Note_on_c, 3, 59, 90
5, 42119, Note_on_c, 3, 59, 0
5, 42120, Note_on_c, 3, 57, 90
5, 42149, Note_on_c, 3, 57, 0
5, 42150, Note_on_c, 3, 55, 90
5, 42179, Note_on_c, 3, 55, 0
5, 42180, Note_on_c, 3, 54, 90
5, 42209, Note_on_c, 3, 54, 0
5, 42210, Note_on_c, 3, 52, 90
5, 42239, Note_on_c, 3, 52, 0
5, 42240, Note_on_c, 3, 50, 90
5, 42269, Note_on_c, 3, 50, 0
5, 42270, Note_on_c, 3, 52, 90
5, 42299, Note_on_c, 3, 52, 0
5, 42300, Note_on_c, 3, 54, 90
5, 42329, Note_on_c, 3, 54, 0
5, 42330, Note_on_c, 3, 52, 90
5, 42359, Note_on_c, 3, 52, 0
5, 42360, Note_on_c, 3, 50, 90
5, 42389, Note_on_c, 3, 50, 0
5, 42390, Note_on_c, 3, 54, 90
5, 42419, Note_on_c, 3, 54, 0
5, 42420, Note_on_c, 3, 57, 90
5, 42449, Note_on_c, 3, 57, 0
5, 42450, Note_on_c, 3, 62, 90
5, 42479, Note_on_c, 3, 62, 0
5, 42480, Note_on_c, 3, 61, 90
5, 42509, Note_on_c, 3, 61, 0
5, 42510, Note_on_c, 3, 62, 90
5, 42539, Note_on_c, 3, 62, 0
5, 42540, Note_on_c, 3, 64, 90
5, 42569, Note_on_c, 3, 64, 0
5, 42570, Note_on_c, 3, 62, 90
5, 42599, Note_on_c, 3, 62, 0
5, 42600, Note_on_c, 3, 61, 90
5, 42629, Note_on_c, 3, 61, 0
5, 42630, Note_on_c, 3, 64, 90
5, 42659, Note_on_c, 3, 64, 0
5, 42660, Note_on_c, 3, 57, 90
5, 42689, Note_on_c, 3, 57, 0
5, 42690, Note_on_c, 3, 61, 90
5, 42719, Note_on_c, 3, 61, 0
5, 42720, Note_on_c, 3, 62, 90
5, 42749, Note_on_c, 3, 62, 0
5, 42750, Note_on_c, 3, 57, 90
5, 42779, Note_on_c, 3, 57, 0
5, 42780, Note_on_c, 3, 66, 90
5, 42809, Note_on_c, 3, 66, 0
5, 42810, Note_on_c, 3, 57, 90
5, 42839, Note_on_c, 3, 57, 0
5, 42840, Note_on_c, 3, 64, 90
5, 42869, Note_on_c, 3, 64, 0
5, 42870, Note_on_c, 3, 57, 90
5, 42899, Note_on_c, 3, 57, 0
5, 42900, Note_on_c, 3, 62, 90
5, 42929, Note_on_c, 3, 62, 0
5, 42930, Note_on_c, 3, 57, 90
5, 42959, Note_on_c, 3, 57, 0
5, 42960, Note_on_c, 3, 61, 90
5, 42989, Note_on_c, 3, 61, 0
5, 42990, Note_on_c, 3, 62, 90
5, 43019, Note_on_c, 3, 62, 0
5, 43020, Note_on_c, 3, 64, 90
5, 43049, Note_on_c, 3, 64, 0
5, 43050, Note_on_c, 3, 62, 90
5, 43079, Note_on_c, 3, 62, 0
5, 43080, Note_on_c, 3, 61, 90
5, 43109, Note_on_c, 3, 61, 0
5, 43110, Note_on_c, 3, 59, 90
5, 43139, Note_on_c, 3, 59, 0
5, 43140, Note_on_c, 3, 57, 90
5, 43169, Note_on_c, 3, 57, 0
5, 43170, Note_on_c, 3, 55, 90
5, 43199, Note_on_c, 3, 55, 0
5, 43200, Note_on_c, 3, 54, 90
5, 43229, Note_on_c, 3, 54, 0
5, 43230, Note_on_c, 3, 55, 90
5, 43259, Note_on_c, 3, 55, 0
5, 43260, Note_on_c, 3, 57, 90
5, 43289, Note_on_c, 3, 57, 0
5, 43290, Note_on_c, 3, 54, 90
5, 43319, Note_on_c, 3, 54, 0
5, 43320, Note_on_c, 3, 50, 90
5, 43349, Note_on_c, 3, 50, 0
5, 43350, Note_on_c, 3, 54, 90
5, 43379, Note_on_c, 3, 54, 0
5, 43380, Note_on_c, 3, 57, 90
5, 43409, Note_on_c, 3, 57, 0
5, 43410, Note_on_c, 3, 60, 90
5, 43439, Note_on_c, 3, 60, 0
5, 43440, Note_on_c, 3, 59, 90
5, 43469, Note_on_c, 3, 59, 0
5, 43470, Note_on_c, 3, 60, 90
5, 43499, Note_on_c, 3, 60, 0
5, 43500, Note_on_c, 3, 62, 90
5, 43589, Note_on_c, 3, 62, 0
5, 43590, Note_on_c, 3, 50, 90
5, 43619, Note_on_c, 3, 50, 0
5, 43620, Note_on_c, 3, 52, 90
5, 43649, Note_on_c, 3, 52, 0
5, 43650, Note_on_c, 3, 54, 90
5, 43679, Note_on_c, 3, 54, 0
5, 43680, Note_on_c, 3, 55, 90
5, 43709, Note_on_c, 3, 55, 0
5, 43710, Note_on_c, 3, 57, 90
5, 43739, Note_on_c, 3, 57, 0
5, 43740, Note_on_c, 3, 59, 90
5, 43769, Note_on_c, 3, 59, 0
5, 43770, Note_on_c, 3, 55, 90
5, 43799, Note_on_c, 3, 55, 0
5, 43800, Note_on_c, 3, 52, 90
5, 43829, Note_on_c, 3, 52, 0
5, 43830, Note_on_c, 3, 55, 90
5, 43859, Note_on_c, 3, 55, 0
5, 43860, Note_on_c, 3, 59, 90
5, 43889, Note_on_c, 3, 59, 0
5, 43890, Note_on_c, 3, 62, 90
5, 43919, Note_on_c, 3, 62, 0
5, 43920, Note_on_c, 3, 61, 90
5, 43949, Note_on_c, 3, 61, 0
5, 43950, Note_on_c, 3, 62, 90
5, 43979, Note_on_c, 3, 62, 0
5, 43980, Note_on_c, 3, 64, 90
5, 44069, Note_on_c, 3, 64, 0
5, 44070, Note_on_c, 3, 64, 90
5, 44099, Note_on_c, 3, 64, 0
5, 44100, Note_on_c, 3, 66, 90
5, 44129, Note_on_c, 3, 66, 0
5, 44130, Note_on_c, 3, 67, 90
5, 44159, Note_on_c, 3, 67, 0
5, 44160, Note_on_c, 3, 69, 90
5, 44219, Note_on_c, 3, 69, 0
5, 44220, Note_on_c, 3, 69, 90
5, 44339, Note_on_c, 3, 69, 0
5, 44340, Note_on_c, 3, 67, 90
5, 44369, Note_on_c, 3, 67, 0
5, 44370, Note_on_c, 3, 66, 90
5, 44399, Note_on_c, 3, 66, 0
5, 44400, Note_on_c, 3, 67, 90
5, 44459, Note_on_c, 3, 67, 0
5, 44460, Note_on_c, 3, 67, 90
5, 44579, Note_on_c, 3, 67, 0
5, 44580, Note_on_c, 3, 66, 90
5, 44609, Note_on_c, 3, 66, 0
5, 44610, Note_on_c, 3, 64, 90
5, 44639, Note_on_c, 3, 64, 0
5, 44640, Note_on_c, 3, 66, 90
5, 44699, Note_on_c, 3, 66, 0
5, 44700, Note_on_c, 3, 64, 90
5, 44729, Note_on_c, 3, 64, 0
5, 44730, Note_on_c, 3, 62, 90
5, 44759, Note_on_c, 3, 62, 0
5, 44760, Note_on_c, 3, 66, 90
5, 44789, Note_on_c, 3, 66, 0
5, 44790, Note_on_c, 3, 64, 90
5, 44819, Note_on_c, 3, 64, 0
5, 44820, Note_on_c, 3, 62, 90
5, 44849, Note_on_c, 3, 62, 0
5, 44850, Note_on_c, 3, 61, 90
5, 44879, Note_on_c, 3, 61, 0
5, 44880, Note_on_c, 3, 62, 90
5, 44909, Note_on_c, 3, 62, 0
5, 44910, Note_on_c, 3, 57, 90
5, 44939, Note_on_c, 3, 57, 0
5, 44940, Note_on_c, 3, 54, 90
5, 44969, Note_on_c, 3, 54, 0
5, 44970, Note_on_c, 3, 50, 90
5, 44999, Note_on_c, 3, 50, 0
5, 45000, Note_on_c, 3, 60, 90
5, 45119, Note_on_c, 3, 60, 0
5, 45150, Note_on_c, 3, 57, 90
5, 45179, Note_on_c, 3, 57, 0
5, 45180, Note_on_c, 3, 54, 90
5, 45209, Note_on_c, 3, 54, 0
5, 45210, Note_on_c, 3, 50, 90
5, 45239, Note_on_c, 3, 50, 0
5, 45240, Note_on_c, 3, 59, 90
5, 45359, Note_on_c, 3, 59, 0
5, 45390, Note_on_c, 3, 55, 90
5, 45419, Note_on_c, 3, 55, 0
5, 45420, Note_on_c, 3, 52, 90
5, 45449, Note_on_c, 3, 52, 0
5, 45450, Note_on_c, 3, 49, 90
5, 45479, Note_on_c, 3, 49, 0
5, 45480, Note_on_c, 3, 57, 90
5, 45599, Note_on_c, 3, 57, 0
5, 45630, Note_on_c, 3, 54, 90
5, 45659, Note_on_c, 3, 54, 0
5, 45660, Note_on_c, 3, 50, 90
5, 45689, Note_on_c, 3, 50, 0
5, 45690, Note_on_c, 3, 47, 90
5, 45719, Note_on_c, 3, 47, 0
5, 45720, Note_on_c, 3, 55, 90
5, 45839, Note_on_c, 3, 55, 0
5, 45870, Note_on_c, 3, 57, 90
5, 45899, Note_on_c, 3, 57, 0
5, 45900, Note_on_c, 3, 61, 90
5, 45929, Note_on_c, 3, 61, 0
5, 45930, Note_on_c, 3, 64, 90
5, 45959, Note_on_c, 3, 64, 0
5, 45960, Note_on_c, 3, 69, 90
5, 45989, Note_on_c, 3, 69, 0
5, 45990, Note_on_c, 3, 67, 90
5, 46019, Note_on_c, 3, 67, 0
5, 46020, Note_on_c, 3, 65, 90
5, 46049, Note_on_c, 3, 65, 0
5, 46050, Note_on_c, 3, 64, 90
5, 46079, Note_on_c, 3, 64, 0
5, 46080, Note_on_c, 3, 65, 90
5, 46109, Note_on_c, 3, 65, 0
5, 46110, Note_on_c, 3, 67, 90
5, 46139, Note_on_c, 3, 67, 0
5, 46140, Note_on_c, 3, 69, 90
5, 46259, Note_on_c, 3, 69, 0
5, 46260, Note_on_c, 3, 67, 90
5, 46289, Note_on_c, 3, 67, 0
5, 46290, Note_on_c, 3, 65, 90
5, 46319, Note_on_c, 3, 65, 0
5, 46320, Note_on_c, 3, 64, 90
5, 46349, Note_on_c, 3, 64, 0
5, 46350, Note_on_c, 3, 65, 90
5, 46379, Note_on_c, 3, 65, 0
5, 46380, Note_on_c, 3, 67, 90
5, 46499, Note_on_c, 3, 67, 0
5, 46500, Note_on_c, 3, 66, 90
5, 46529, Note_on_c, 3, 66, 0
5, 46530, Note_on_c, 3, 64, 90
5, 46559, Note_on_c, 3, 64, 0
5, 46560, Note_on_c, 3, 67, 90
5, 46589, Note_on_c, 3, 67, 0
5, 46590, Note_on_c, 3, 66, 90
5, 46619, Note_on_c, 3, 66, 0
5, 46620, Note_on_c, 3, 64, 90
5, 46649, Note_on_c, 3, 64, 0
5, 46650, Note_on_c, 3, 62, 90
5, 46679, Note_on_c, 3, 62, 0
5, 46680, Note_on_c, 3, 57, 90
5, 46739, Note_on_c, 3, 57, 0
5, 46740, Note_on_c, 3, 61, 90
5, 46799, Note_on_c, 3, 61, 0
5, 46800, Note_on_c, 3, 50, 90
5, 46810, Note_on_c, 3, 54, 90
5, 46830, Note_on_c, 3, 57, 90
5, 46840, Note_on_c, 3, 62, 90
5, 47039, Note_on_c, 3, 62, 0
5, 47039, Note_on_c, 3, 50, 0
5, 47039, Note_on_c, 3, 54, 0
5, 47039, Note_on_c, 3, 57, 0
5, 47400, Note_on_c, 3, 54, 90
5, 47459, Note_on_c, 3, 54, 0
5, 47460, Note_on_c, 3, 59, 90
5, 47549, Note_on_c, 3, 59, 0
5, 47550, Note_on_c, 3, 62, 90
5, 47579, Note_on_c, 3, 62, 0
5, 47580, Note_on_c, 3, 61, 90
5, 47639, Note_on_c, 3, 61, 0
5, 47640, Note_on_c, 3, 59, 90
5, 47699, Note_on_c, 3, 59, 0
5, 47700, Note_on_c, 3, 59, 90
5, 47714, Note_on_c, 3, 59, 0
5, 47715, Note_on_c, 3, 61, 90
5, 47729, Note_on_c, 3, 61, 0
5, 47730, Note_on_c, 3, 62, 90
5, 47759, Note_on_c, 3, 62, 0
5, 47760, Note_on_c, 3, 61, 90
5, 47820, Note_on_c, 3, 61, 0
5, 47820, Note_on_c, 3, 52, 90
5, 47834, Note_on_c, 3, 52, 0
5, 47835, Note_on_c, 3, 54, 90
5, 47849, Note_on_c, 3, 54, 0
5, 47850, Note_on_c, 3, 55, 90
5, 47909, Note_on_c, 3, 55, 0
5, 47910, Note_on_c, 3, 54, 90
5, 47939, Note_on_c, 3, 54, 0
5, 47940, Note_on_c, 3, 52, 90
5, 47999, Note_on_c, 3, 52, 0
5, 48000, Note_on_c, 3, 50, 90
5, 48010, Note_on_c, 3, 50, 0
5, 48010, Note_on_c, 3, 52, 90
5, 48020, Note_on_c, 3, 52, 0
5, 48020, Note_on_c, 3, 50, 90
5, 48030, Note_on_c, 3, 50, 0
5, 48030, Note_on_c, 3, 52, 90
5, 48037, Note_on_c, 3, 50, 90
5, 48038, Note_on_c, 3, 52, 0
5, 48060, Note_on_c, 3, 50, 0
5, 48060, Note_on_c, 3, 49, 90
5, 48089, Note_on_c, 3, 49, 0
5, 48090, Note_on_c, 3, 47, 90
5, 48119, Note_on_c, 3, 47, 0
5, 48120, Note_on_c, 3, 59, 90
5, 48239, Note_on_c, 3, 59, 0
5, 48240, Note_on_c, 3, 57, 90
5, 48269, Note_on_c, 3, 57, 0
5, 48270, Note_on_c, 3, 56, 90
5, 48299, Note_on_c, 3, 56, 0
5, 48300, Note_on_c, 3, 57, 90
5, 48419, Note_on_c, 3, 57, 0
5, 48420, Note_on_c, 3, 56, 90
5, 48434, Note_on_c, 3, 56, 0
5, 48435, Note_on_c, 3, 54, 90
5, 48449, Note_on_c, 3, 54, 0
5, 48450, Note_on_c, 3, 53, 90
5, 48479, Note_on_c, 3, 53, 0
5, 48480, Note_on_c, 3, 54, 90
5, 48569, Note_on_c, 3, 54, 0
5, 48570, Note_on_c, 3, 62, 90
5, 48599, Note_on_c, 3, 62, 0
5, 48600, Note_on_c, 3, 61, 90
5, 48629, Note_on_c, 3, 61, 0
5, 48630, Note_on_c, 3, 59, 90
5, 48659, Note_on_c, 3, 59, 0
5, 48660, Note_on_c, 3, 61, 90
5, 48689, Note_on_c, 3, 61, 0
5, 48690, Note_on_c, 3, 62, 90
5, 48719, Note_on_c, 3, 62, 0
5, 48720, Note_on_c, 3, 53, 90
5, 48749, Note_on_c, 3, 53, 0
5, 48750, Note_on_c, 3, 54, 90
5, 48779, Note_on_c, 3, 54, 0
5, 48780, Note_on_c, 3, 56, 90
5, 48809, Note_on_c, 3, 56, 0
5, 48810, Note_on_c, 3, 59, 90
5, 48839, Note_on_c, 3, 59, 0
5, 48840, Note_on_c, 3, 57, 90
5, 48869, Note_on_c, 3, 57, 0
5, 48870, Note_on_c, 3, 56, 90
5, 48899, Note_on_c, 3, 56, 0
5, 48900, Note_on_c, 3, 57, 90
5, 48929, Note_on_c, 3, 57, 0
5, 48930, Note_on_c, 3, 59, 90
5, 48959, Note_on_c, 3, 59, 0
5, 48960, Note_on_c, 3, 61, 90
5, 49019, Note_on_c, 3, 61, 0
5, 49020, Note_on_c, 3, 66, 90
5, 49049, Note_on_c, 3, 66, 0
5, 49050, Note_on_c, 3, 65, 90
5, 49079, Note_on_c, 3, 65, 0
5, 49080, Note_on_c, 3, 66, 90
5, 49319, Note_on_c, 3, 66, 0
5, 49320, Note_on_c, 3, 65, 90
5, 49379, Note_on_c, 3, 65, 0
5, 49380, Note_on_c, 3, 68, 90
5, 49469, Note_on_c, 3, 68, 0
5, 49470, Note_on_c, 3, 65, 90
5, 49499, Note_on_c, 3, 65, 0
5, 49500, Note_on_c, 3, 66, 90
5, 49529, Note_on_c, 3, 66, 0
5, 49530, Note_on_c, 3, 68, 90
5, 49559, Note_on_c, 3, 68, 0
5, 49560, Note_on_c, 3, 69, 90
5, 49620, Note_on_c, 3, 69, 0
5, 49620, Note_on_c, 3, 69, 90
5, 49679, Note_on_c, 3, 69, 0
5, 49680, Note_on_c, 3, 68, 90
5, 49799, Note_on_c, 3, 68, 0
5, 49800, Note_on_c, 3, 66, 90
5, 50039, Note_on_c, 3, 66, 0
5, 50040, Note_on_c, 3, 64, 90
5, 50069, Note_on_c, 3, 64, 0
5, 50070, Note_on_c, 3, 63, 90
5, 50099, Note_on_c, 3, 63, 0
5, 50100, Note_on_c, 3, 64, 90
5, 50159, Note_on_c, 3, 64, 0
5, 50160, Note_on_c, 3, 63, 90
5, 50219, Note_on_c, 3, 63, 0
5, 50220, Note_on_c, 3, 56, 90
5, 50279, Note_on_c, 3, 56, 0
5, 50280, Note_on_c, 3, 60, 90
5, 50339, Note_on_c, 3, 60, 0
5, 50340, Note_on_c, 3, 61, 90
5, 50550, Note_on_c, 3, 61, 0
5, 50550, Note_on_c, 3, 68, 90
5, 50579, Note_on_c, 3, 68, 0
5, 50580, Note_on_c, 3, 66, 90
5, 50609, Note_on_c, 3, 66, 0
5, 50610, Note_on_c, 3, 64, 90
5, 50639, Note_on_c, 3, 64, 0
5, 50640, Note_on_c, 3, 63, 90
5, 50669, Note_on_c, 3, 63, 0
5, 50670, Note_on_c, 3, 61, 90
5, 50699, Note_on_c, 3, 61, 0
5, 50700, Note_on_c, 3, 68, 90
5, 50759, Note_on_c, 3, 68, 0
5, 50760, Note_on_c, 3, 56, 90
5, 50819, Note_on_c, 3, 56, 0
5, 50820, Note_on_c, 3, 60, 90
5, 50830, Note_on_c, 3, 60, 0
5, 50830, Note_on_c, 3, 62, 90
5, 50840, Note_on_c, 3, 62, 0
5, 50840, Note_on_c, 3, 60, 90
5, 50850, Note_on_c, 3, 60, 0
5, 50850, Note_on_c, 3, 62, 90
5, 50857, Note_on_c, 3, 60, 90
5, 50858, Note_on_c, 3, 62, 0
5, 50865, Note_on_c, 3, 60, 0
5, 50865, Note_on_c, 3, 62, 90
5, 50872, Note_on_c, 3, 60, 90
5, 50873, Note_on_c, 3, 62, 0
5, 50880, Note_on_c, 3, 60, 0
5, 50880, Note_on_c, 3, 61, 90
5, 50999, Note_on_c, 3, 61, 0
5, 51720, Note_on_c, 3, 64, 90
5, 51779, Note_on_c, 3, 64, 0
5, 51780, Note_on_c, 3, 69, 90
5, 51869, Note_on_c, 3, 69, 0
5, 51870, Note_on_c, 3, 73, 90
5, 51899, Note_on_c, 3, 73, 0
5, 51900, Note_on_c, 3, 71, 90
5, 51959, Note_on_c, 3, 71, 0
5, 51960, Note_on_c, 3, 69, 90
5, 52019, Note_on_c, 3, 69, 0
5, 52020, Note_on_c, 3, 69, 90
5, 52034, Note_on_c, 3, 69, 0
5, 52035, Note_on_c, 3, 71, 90
5, 52049, Note_on_c, 3, 71, 0
5, 52050, Note_on_c, 3, 73, 90
5, 52079, Note_on_c, 3, 73, 0
5, 52080, Note_on_c, 3, 71, 90
5, 52139, Note_on_c, 3, 71, 0
5, 52140, Note_on_c, 3, 62, 90
5, 52154, Note_on_c, 3, 62, 0
5, 52155, Note_on_c, 3, 64, 90
5, 52169, Note_on_c, 3, 64, 0
5, 52170, Note_on_c, 3, 66, 90
5, 52229, Note_on_c, 3, 66, 0
5, 52230, Note_on_c, 3, 64, 90
5, 52259, Note_on_c, 3, 64, 0
5, 52260, Note_on_c, 3, 62, 90
5, 52319, Note_on_c, 3, 62, 0
5, 52320, Note_on_c, 3, 61, 90
5, 52379, Note_on_c, 3, 61, 0
5, 52380, Note_on_c, 3, 59, 90
5, 52409, Note_on_c, 3, 59, 0
5, 52410, Note_on_c, 3, 57, 90
5, 52439, Note_on_c, 3, 57, 0
5, 52440, Note_on_c, 3, 59, 90
5, 52499, Note_on_c, 3, 59, 0
5, 52500, Note_on_c, 3, 61, 90
5, 52529, Note_on_c, 3, 61, 0
5, 52530, Note_on_c, 3, 59, 90
5, 52559, Note_on_c, 3, 59, 0
5, 52560, Note_on_c, 3, 62, 90
5, 52589, Note_on_c, 3, 62, 0
5, 52590, Note_on_c, 3, 61, 90
5, 52619, Note_on_c, 3, 61, 0
5, 52620, Note_on_c, 3, 66, 90
5, 52649, Note_on_c, 3, 66, 0
5, 52650, Note_on_c, 3, 64, 90
5, 52679, Note_on_c, 3, 64, 0
5, 52680, Note_on_c, 3, 64, 90
5, 52709, Note_on_c, 3, 64, 0
5, 52710, Note_on_c, 3, 62, 90
5, 52739, Note_on_c, 3, 62, 0
5, 52740, Note_on_c, 3, 66, 90
5, 52769, Note_on_c, 3, 66, 0
5, 52770, Note_on_c, 3, 64, 90
5, 52799, Note_on_c, 3, 64, 0
5, 52800, Note_on_c, 3, 62, 90
5, 52829, Note_on_c, 3, 62, 0
5, 52830, Note_on_c, 3, 61, 90
5, 52859, Note_on_c, 3, 61, 0
5, 52860, Note_on_c, 3, 59, 90
5, 52889, Note_on_c, 3, 59, 0
5, 52890, Note_on_c, 3, 57, 90
5, 52919, Note_on_c, 3, 57, 0
5, 52920, Note_on_c, 3, 56, 90
5, 52949, Note_on_c, 3, 56, 0
5, 52950, Note_on_c, 3, 57, 90
5, 52979, Note_on_c, 3, 57, 0
5, 52980, Note_on_c, 3, 59, 90
5, 53009, Note_on_c, 3, 59, 0
5, 53010, Note_on_c, 3, 56, 90
5, 53039, Note_on_c, 3, 56, 0
5, 53040, Note_on_c, 3, 52, 90
5, 53159, Note_on_c, 3, 52, 0
5, 53220, Note_on_c, 3, 59, 90
5, 53399, Note_on_c, 3, 59, 0
5, 53400, Note_on_c, 3, 57, 90
5, 53639, Note_on_c, 3, 57, 0
5, 53640, Note_on_c, 3, 55, 90
5, 53669, Note_on_c, 3, 55, 0
5, 53670, Note_on_c, 3, 54, 90
5, 53699, Note_on_c, 3, 54, 0
5, 53700, Note_on_c, 3, 55, 90
5, 53759, Note_on_c, 3, 55, 0
5, 53760, Note_on_c, 3, 54, 90
5, 53879, Note_on_c, 3, 54, 0
5, 53880, Note_on_c, 3, 59, 90
5, 53939, Note_on_c, 3, 59, 0
5, 53940, Note_on_c, 3, 64, 90
5, 54029, Note_on_c, 3, 64, 0
5, 54030, Note_on_c, 3, 67, 90
5, 54059, Note_on_c, 3, 67, 0
5, 54060, Note_on_c, 3, 66, 90
5, 54119, Note_on_c, 3, 66, 0
5, 54120, Note_on_c, 3, 64, 90
5, 54179, Note_on_c, 3, 64, 0
5, 54180, Note_on_c, 3, 64, 90
5, 54194, Note_on_c, 3, 64, 0
5, 54195, Note_on_c, 3, 66, 90
5, 54209, Note_on_c, 3, 66, 0
5, 54210, Note_on_c, 3, 67, 90
5, 54239, Note_on_c, 3, 67, 0
5, 54240, Note_on_c, 3, 66, 90
5, 54299, Note_on_c, 3, 66, 0
5, 54300, Note_on_c, 3, 57, 90
5, 54314, Note_on_c, 3, 57, 0
5, 54315, Note_on_c, 3, 59, 90
5, 54329, Note_on_c, 3, 59, 0
5, 54330, Note_on_c, 3, 60, 90
5, 54389, Note_on_c, 3, 60, 0
5, 54390, Note_on_c, 3, 59, 90
5, 54419, Note_on_c, 3, 59, 0
5, 54420, Note_on_c, 3, 57, 90
5, 54479, Note_on_c, 3, 57, 0
5, 54480, Note_on_c, 3, 55, 90
5, 54539, Note_on_c, 3, 55, 0
5, 54540, Note_on_c, 3, 54, 90
5, 54569, Note_on_c, 3, 54, 0
5, 54570, Note_on_c, 3, 52, 90
5, 54599, Note_on_c, 3, 52, 0
5, 54600, Note_on_c, 3, 64, 90
5, 54719, Note_on_c, 3, 64, 0
5, 54720, Note_on_c, 3, 62, 90
5, 54749, Note_on_c, 3, 62, 0
5, 54750, Note_on_c, 3, 60, 90
5, 54779, Note_on_c, 3, 60, 0
5, 54780, Note_on_c, 3, 62, 90
5, 54899, Note_on_c, 3, 62, 0
5, 54900, Note_on_c, 3, 60, 90
5, 54914, Note_on_c, 3, 60, 0
5, 54915, Note_on_c, 3, 59, 90
5, 54929, Note_on_c, 3, 59, 0
5, 54930, Note_on_c, 3, 57, 90
5, 54959, Note_on_c, 3, 57, 0
5, 54960, Note_on_c, 3, 59, 90
5, 55079, Note_on_c, 3, 59, 0
5, 55080, Note_on_c, 3, 55, 90
5, 55090, Note_on_c, 3, 55, 0
5, 55090, Note_on_c, 3, 57, 90
5, 55100, Note_on_c, 3, 57, 0
5, 55100, Note_on_c, 3, 55, 90
5, 55110, Note_on_c, 3, 55, 0
5, 55110, Note_on_c, 3, 57, 90
5, 55125, Note_on_c, 3, 57, 0
5, 55125, Note_on_c, 3, 55, 90
5, 55140, Note_on_c, 3, 55, 0
5, 55140, Note_on_c, 3, 54, 90
5, 55169, Note_on_c, 3, 54, 0
5, 55170, Note_on_c, 3, 52, 90
5, 55199, Note_on_c, 3, 52, 0
5, 55200, Note_on_c, 3, 52, 90
5, 55319, Note_on_c, 3, 52, 0
5, 55320, Note_on_c, 3, 59, 90
5, 55379, Note_on_c, 3, 59, 0
5, 55380, Note_on_c, 3, 59, 90
5, 55409, Note_on_c, 3, 59, 0
5, 55410, Note_on_c, 3, 58, 90
5, 55469, Note_on_c, 3, 58, 0
5, 55470, Note_on_c, 3, 67, 90
5, 55499, Note_on_c, 3, 67, 0
5, 55500, Note_on_c, 3, 66, 90
5, 55559, Note_on_c, 3, 66, 0
5, 55560, Note_on_c, 3, 62, 90
5, 55570, Note_on_c, 3, 62, 0
5, 55570, Note_on_c, 3, 64, 90
5, 55580, Note_on_c, 3, 64, 0
5, 55580, Note_on_c, 3, 62, 90
5, 55590, Note_on_c, 3, 62, 0
5, 55590, Note_on_c, 3, 64, 90
5, 55605, Note_on_c, 3, 64, 0
5, 55605, Note_on_c, 3, 62, 90
5, 55620, Note_on_c, 3, 62, 0
5, 55620, Note_on_c, 3, 61, 90
5, 55649, Note_on_c, 3, 61, 0
5, 55650, Note_on_c, 3, 59, 90
5, 55679, Note_on_c, 3, 59, 0
5, 55680, Note_on_c, 3, 59, 90
5, 55694, Note_on_c, 3, 59, 0
5, 55695, Note_on_c, 3, 61, 90
5, 55709, Note_on_c, 3, 61, 0
5, 55710, Note_on_c, 3, 62, 90
5, 55739, Note_on_c, 3, 62, 0
5, 55740, Note_on_c, 3, 60, 90
5, 55750, Note_on_c, 3, 60, 0
5, 55750, Note_on_c, 3, 62, 90
5, 55760, Note_on_c, 3, 62, 0
5, 55760, Note_on_c, 3, 60, 90
5, 55770, Note_on_c, 3, 60, 0
5, 55770, Note_on_c, 3, 62, 90
5, 55777, Note_on_c, 3, 60, 90
5, 55778, Note_on_c, 3, 62, 0
5, 55785, Note_on_c, 3, 60, 0
5, 55785, Note_on_c, 3, 62, 90
5, 55792, Note_on_c, 3, 60, 90
5, 55793, Note_on_c, 3, 62, 0
5, 55800, Note_on_c, 3, 60, 0
5, 55800, Note_on_c, 3, 62, 90
5, 55815, Note_on_c, 3, 62, 0
5, 55815, Note_on_c, 3, 60, 90
5, 55830, Note_on_c, 3, 60, 0
5, 55830, Note_on_c, 3, 59, 90
5, 55859, Note_on_c, 3, 59, 0
5, 55860, Note_on_c, 3, 60, 90
5, 55919, Note_on_c, 3, 60, 0
5, 55920, Note_on_c, 3, 59, 90
5, 55979, Note_on_c, 3, 59, 0
5, 55980, Note_on_c, 3, 57, 90
5, 56009, Note_on_c, 3, 57, 0
5, 56010, Note_on_c, 3, 55, 90
5, 56039, Note_on_c, 3, 55, 0
5, 56040, Note_on_c, 3, 57, 90
5, 56050, Note_on_c, 3, 57, 0
5, 56050, Note_on_c, 3, 59, 90
5, 56060, Note_on_c, 3, 59, 0
5, 56060, Note_on_c, 3, 57, 90
5, 56070, Note_on_c, 3, 57, 0
5, 56070, Note_on_c, 3, 55, 90
5, 56084, Note_on_c, 3, 55, 0
5, 56085, Note_on_c, 3, 57, 90
5, 56099, Note_on_c, 3, 57, 0
5, 56100, Note_on_c, 3, 59, 90
5, 56129, Note_on_c, 3, 59, 0
5, 56130, Note_on_c, 3, 60, 90
5, 56159, Note_on_c, 3, 60, 0
5, 56160, Note_on_c, 3, 62, 90
5, 56219, Note_on_c, 3, 62, 0
5, 56220, Note_on_c, 3, 60, 90
5, 56279, Note_on_c, 3, 60, 0
5, 56280, Note_on_c, 3, 59, 90
5, 56339, Note_on_c, 3, 59, 0
5, 56340, Note_on_c, 3, 64, 90
5, 56369, Note_on_c, 3, 64, 0
5, 56370, Note_on_c, 3, 62, 90
5, 56399, Note_on_c, 3, 62, 0
5, 56400, Note_on_c, 3, 61, 90
5, 56429, Note_on_c, 3, 61, 0
5, 56430, Note_on_c, 3, 59, 90
5, 56459, Note_on_c, 3, 59, 0
5, 56460, Note_on_c, 3, 57, 90
5, 56489, Note_on_c, 3, 57, 0
5, 56490, Note_on_c, 3, 55, 90
5, 56519, Note_on_c, 3, 55, 0
5, 56520, Note_on_c, 3, 60, 90
5, 56549, Note_on_c, 3, 60, 0
5, 56550, Note_on_c, 3, 59, 90
5, 56579, Note_on_c, 3, 59, 0
5, 56580, Note_on_c, 3, 57, 90
5, 56609, Note_on_c, 3, 57, 0
5, 56610, Note_on_c, 3, 59, 90
5, 56639, Note_on_c, 3, 59, 0
5, 56640, Note_on_c, 3, 55, 90
5, 56759, Note_on_c, 3, 55, 0
5, 57480, Note_on_c, 3, 57, 90
5, 57539, Note_on_c, 3, 57, 0
5, 57540, Note_on_c, 3, 62, 90
5, 57629, Note_on_c, 3, 62, 0
5, 57630, Note_on_c, 3, 66, 90
5, 57659, Note_on_c, 3, 66, 0
5, 57660, Note_on_c, 3, 64, 90
5, 57719, Note_on_c, 3, 64, 0
5, 57720, Note_on_c, 3, 62, 90
5, 57779, Note_on_c, 3, 62, 0
5, 57780, Note_on_c, 3, 62, 90
5, 57794, Note_on_c, 3, 62, 0
5, 57795, Note_on_c, 3, 64, 90
5, 57809, Note_on_c, 3, 64, 0
5, 57810, Note_on_c, 3, 66, 90
5, 57839, Note_on_c, 3, 66, 0
5, 57840, Note_on_c, 3, 64, 90
5, 57899, Note_on_c, 3, 64, 0
5, 57900, Note_on_c, 3, 64, 90
5, 57989, Note_on_c, 3, 64, 0
5, 57990, Note_on_c, 3, 67, 90
5, 58019, Note_on_c, 3, 67, 0
5, 58020, Note_on_c, 3, 66, 90
5, 58079, Note_on_c, 3, 66, 0
5, 58080, Note_on_c, 3, 64, 90
5, 58139, Note_on_c, 3, 64, 0
5, 58140, Note_on_c, 3, 64, 90
5, 58154, Note_on_c, 3, 64, 0
5, 58155, Note_on_c, 3, 66, 90
5, 58169, Note_on_c, 3, 66, 0
5, 58170, Note_on_c, 3, 67, 90
5, 58199, Note_on_c, 3, 67, 0
5, 58200, Note_on_c, 3, 66, 90
5, 58259, Note_on_c, 3, 66, 0
5, 58260, Note_on_c, 3, 66, 90
5, 58319, Note_on_c, 3, 66, 0
5, 58320, Note_on_c, 3, 66, 90
5, 58334, Note_on_c, 3, 66, 0
5, 58335, Note_on_c, 3, 67, 90
5, 58349, Note_on_c, 3, 67, 0
5, 58350, Note_on_c, 3, 69, 90
5, 58379, Note_on_c, 3, 69, 0
5, 58380, Note_on_c, 3, 67, 90
5, 58439, Note_on_c, 3, 67, 0
5, 58440, Note_on_c, 3, 67, 90
5, 58499, Note_on_c, 3, 67, 0
5, 58500, Note_on_c, 3, 67, 90
5, 58514, Note_on_c, 3, 67, 0
5, 58515, Note_on_c, 3, 69, 90
5, 58529, Note_on_c, 3, 69, 0
5, 58530, Note_on_c, 3, 71, 90
5, 58559, Note_on_c, 3, 71, 0
5, 58560, Note_on_c, 3, 69, 90
5, 58619, Note_on_c, 3, 69, 0
5, 58620, Note_on_c, 3, 66, 90
5, 58630, Note_on_c, 3, 66, 0
5, 58630, Note_on_c, 3, 67, 90
5, 58640, Note_on_c, 3, 67, 0
5, 58640, Note_on_c, 3, 66, 90
5, 58650, Note_on_c, 3, 66, 0
5, 58650, Note_on_c, 3, 67, 90
5, 58657, Note_on_c, 3, 66, 90
5, 58658, Note_on_c, 3, 67, 0
5, 58665, Note_on_c, 3, 66, 0
5, 58665, Note_on_c, 3, 67, 90
5, 58672, Note_on_c, 3, 66, 90
5, 58673, Note_on_c, 3, 67, 0
5, 58680, Note_on_c, 3, 66, 0
5, 58680, Note_on_c, 3, 67, 90
5, 58695, Note_on_c, 3, 67, 0
5, 58695, Note_on_c, 3, 66, 90
5, 58710, Note_on_c, 3, 66, 0
5, 58710, Note_on_c, 3, 64, 90
5, 58739, Note_on_c, 3, 64, 0
5, 58740, Note_on_c, 3, 62, 90
5, 58799, Note_on_c, 3, 62, 0
5, 58800, Note_on_c, 3, 60, 90
5, 58859, Note_on_c, 3, 60, 0
5, 58860, Note_on_c, 3, 59, 90
5, 59039, Note_on_c, 3, 59, 0
5, 59070, Note_on_c, 3, 61, 90
5, 59084, Note_on_c, 3, 61, 0
5, 59085, Note_on_c, 3, 63, 90
5, 59099, Note_on_c, 3, 63, 0
5, 59100, Note_on_c, 3, 64, 90
5, 59129, Note_on_c, 3, 64, 0
5, 59130, Note_on_c, 3, 66, 90
5, 59159, Note_on_c, 3, 66, 0
5, 59160, Note_on_c, 3, 67, 90
5, 59219, Note_on_c, 3, 67, 0
5, 59220, Note_on_c, 3, 66, 90
5, 59399, Note_on_c, 3, 66, 0
5, 59430, Note_on_c, 3, 64, 90
5, 59444, Note_on_c, 3, 64, 0
5, 59445, Note_on_c, 3, 62, 90
5, 59459, Note_on_c, 3, 62, 0
5, 59460, Note_on_c, 3, 61, 90
5, 59474, Note_on_c, 3, 61, 0
5, 59475, Note_on_c, 3, 62, 90
5, 59489, Note_on_c, 3, 62, 0
5, 59490, Note_on_c, 3, 64, 90
5, 59519, Note_on_c, 3, 64, 0
5, 59520, Note_on_c, 3, 58, 90
5, 59639, Note_on_c, 3, 58, 0
5, 59640, Note_on_c, 3, 54, 90
5, 59699, Note_on_c, 3, 54, 0
5, 59700, Note_on_c, 3, 59, 90
5, 59789, Note_on_c, 3, 59, 0
5, 59790, Note_on_c, 3, 62, 90
5, 59819, Note_on_c, 3, 62, 0
5, 59820, Note_on_c, 3, 61, 90
5, 59879, Note_on_c, 3, 61, 0
5, 59880, Note_on_c, 3, 59, 90
5, 59939, Note_on_c, 3, 59, 0
5, 59940, Note_on_c, 3, 59, 90
5, 59954, Note_on_c, 3, 59, 0
5, 59955, Note_on_c, 3, 61, 90
5, 59969, Note_on_c, 3, 61, 0
5, 59970, Note_on_c, 3, 62, 90
5, 59999, Note_on_c, 3, 62, 0
5, 60000, Note_on_c, 3, 61, 90
5, 60059, Note_on_c, 3, 61, 0
5, 60060, Note_on_c, 3, 52, 90
5, 60074, Note_on_c, 3, 52, 0
5, 60075, Note_on_c, 3, 54, 90
5, 60089, Note_on_c, 3, 54, 0
5, 60090, Note_on_c, 3, 55, 90
5, 60149, Note_on_c, 3, 55, 0
5, 60150, Note_on_c, 3, 54, 90
5, 60179, Note_on_c, 3, 54, 0
5, 60180, Note_on_c, 3, 52, 90
5, 60239, Note_on_c, 3, 52, 0
5, 60240, Note_on_c, 3, 51, 90
5, 60299, Note_on_c, 3, 51, 0
5, 60300, Note_on_c, 3, 49, 90
5, 60329, Note_on_c, 3, 49, 0
5, 60330, Note_on_c, 3, 47, 90
5, 60359, Note_on_c, 3, 47, 0
5, 60360, Note_on_c, 3, 59, 90
5, 60419, Note_on_c, 3, 59, 0
5, 60420, Note_on_c, 3, 67, 90
5, 60439, Note_on_c, 3, 67, 0
5, 60440, Note_on_c, 3, 66, 90
5, 60459, Note_on_c, 3, 66, 0
5, 60460, Note_on_c, 3, 64, 90
5, 60479, Note_on_c, 3, 64, 0
5, 60480, Note_on_c, 3, 64, 90
5, 60539, Note_on_c, 3, 64, 0
5, 60540, Note_on_c, 3, 63, 90
5, 60599, Note_on_c, 3, 63, 0
5, 60600, Note_on_c, 3, 57, 90
5, 61230, Note_on_c, 3, 57, 0
5, 61230, Note_on_c, 3, 63, 90
5, 61259, Note_on_c, 3, 63, 0
5, 61260, Note_on_c, 3, 66, 90
5, 61289, Note_on_c, 3, 66, 0
5, 61290, Note_on_c, 3, 64, 90
5, 61319, Note_on_c, 3, 64, 0
5, 61320, Note_on_c, 3, 66, 90
5, 61499, Note_on_c, 3, 66, 0
5, 61530, Note_on_c, 3, 63, 90
5, 61559, Note_on_c, 3, 63, 0
5, 61560, Note_on_c, 3, 64, 90
5, 61589, Note_on_c, 3, 64, 0
5, 61590, Note_on_c, 3, 66, 90
5, 61619, Note_on_c, 3, 66, 0
5, 61620, Note_on_c, 3, 67, 90
5, 61679, Note_on_c, 3, 67, 0
5, 61680, Note_on_c, 3, 67, 90
5, 61859, Note_on_c, 3, 67, 0
5, 61890, Note_on_c, 3, 66, 90
5, 61904, Note_on_c, 3, 66, 0
5, 61905, Note_on_c, 3, 64, 90
5, 61919, Note_on_c, 3, 64, 0
5, 61920, Note_on_c, 3, 62, 90
5, 61949, Note_on_c, 3, 62, 0
5, 61950, Note_on_c, 3, 61, 90
5, 61979, Note_on_c, 3, 61, 0
5, 61980, Note_on_c, 3, 59, 90
5, 62009, Note_on_c, 3, 59, 0
5, 62010, Note_on_c, 3, 58, 90
5, 62039, Note_on_c, 3, 58, 0
5, 62040, Note_on_c, 3, 66, 90
5, 62219, Note_on_c, 3, 66, 0
5, 62250, Note_on_c, 3, 69, 90
5, 62279, Note_on_c, 3, 69, 0
5, 62280, Note_on_c, 3, 67, 90
5, 62309, Note_on_c, 3, 67, 0
5, 62310, Note_on_c, 3, 66, 90
5, 62339, Note_on_c, 3, 66, 0
5, 62340, Note_on_c, 3, 64, 90
5, 62369, Note_on_c, 3, 64, 0
5, 62370, Note_on_c, 3, 63, 90
5, 62399, Note_on_c, 3, 63, 0
5, 62400, Note_on_c, 3, 64, 90
5, 62639, Note_on_c, 3, 64, 0
5, 62640, Note_on_c, 3, 62, 90
5, 62669, Note_on_c, 3, 62, 0
5, 62670, Note_on_c, 3, 61, 90
5, 62699, Note_on_c, 3, 61, 0
5, 62700, Note_on_c, 3, 62, 90
5, 62819, Note_on_c, 3, 62, 0
5, 62820, Note_on_c, 3, 61, 90
5, 62834, Note_on_c, 3, 61, 0
5, 62835, Note_on_c, 3, 59, 90
5, 62849, Note_on_c, 3, 59, 0
5, 62850, Note_on_c, 3, 58, 90
5, 62879, Note_on_c, 3, 58, 0
5, 62880, Note_on_c, 3, 59, 90
5, 62969, Note_on_c, 3, 59, 0
5, 62970, Note_on_c, 3, 67, 90
5, 62999, Note_on_c, 3, 67, 0
5, 63000, Note_on_c, 3, 66, 90
5, 63029, Note_on_c, 3, 66, 0
5, 63030, Note_on_c, 3, 64, 90
5, 63059, Note_on_c, 3, 64, 0
5, 63060, Note_on_c, 3, 66, 90
5, 63089, Note_on_c, 3, 66, 0
5, 63090, Note_on_c, 3, 67, 90
5, 63119, Note_on_c, 3, 67, 0
5, 63120, Note_on_c, 3, 58, 90
5, 63149, Note_on_c, 3, 58, 0
5, 63150, Note_on_c, 3, 59, 90
5, 63179, Note_on_c, 3, 59, 0
5, 63180, Note_on_c, 3, 61, 90
5, 63209, Note_on_c, 3, 61, 0
5, 63210, Note_on_c, 3, 64, 90
5, 63239, Note_on_c, 3, 64, 0
5, 63240, Note_on_c, 3, 62, 90
5, 63269, Note_on_c, 3, 62, 0
5, 63270, Note_on_c, 3, 61, 90
5, 63299, Note_on_c, 3, 61, 0
5, 63300, Note_on_c, 3, 62, 90
5, 63329, Note_on_c, 3, 62, 0
5, 63330, Note_on_c, 3, 64, 90
5, 63359, Note_on_c, 3, 64, 0
5, 63360, Note_on_c, 3, 66, 90
5, 63419, Note_on_c, 3, 66, 0
5, 63420, Note_on_c, 3, 58, 90
5, 63479, Note_on_c, 3, 58, 0
5, 63480, Note_on_c, 3, 59, 90
5, 63719, Note_on_c, 3, 59, 0
5, 63720, Note_on_c, 3, 58, 90
5, 63779, Note_on_c, 3, 58, 0
5, 63780, Note_on_c, 3, 61, 90
5, 63869, Note_on_c, 3, 61, 0
5, 63870, Note_on_c, 3, 58, 90
5, 63899, Note_on_c, 3, 58, 0
5, 63900, Note_on_c, 3, 59, 90
5, 63929, Note_on_c, 3, 59, 0
5, 63930, Note_on_c, 3, 61, 90
5, 63959, Note_on_c, 3, 61, 0
5, 63960, Note_on_c, 3, 62, 90
5, 64019, Note_on_c, 3, 62, 0
5, 64020, Note_on_c, 3, 60, 90
5, 64199, Note_on_c, 3, 60, 0
5, 64200, Note_on_c, 3, 59, 90
5, 64289, Note_on_c, 3, 59, 0
5, 64290, Note_on_c, 3, 57, 90
5, 64319, Note_on_c, 3, 57, 0
5, 64320, Note_on_c, 3, 60, 90
5, 64349, Note_on_c, 3, 60, 0
5, 64350, Note_on_c, 3, 59, 90
5, 64379, Note_on_c, 3, 59, 0
5, 64380, Note_on_c, 3, 57, 90
5, 64409, Note_on_c, 3, 57, 0
5, 64410, Note_on_c, 3, 54, 90
5, 64439, Note_on_c, 3, 54, 0
5, 64440, Note_on_c, 3, 55, 90
5, 64469, Note_on_c, 3, 55, 0
5, 64470, Note_on_c, 3, 59, 90
5, 64499, Note_on_c, 3, 59, 0
5, 64500, Note_on_c, 3, 57, 90
5, 64529, Note_on_c, 3, 57, 0
5, 64530, Note_on_c, 3, 55, 90
5, 64559, Note_on_c, 3, 55, 0
5, 64560, Note_on_c, 3, 55, 90
5, 64619, Note_on_c, 3, 55, 0
5, 64620, Note_on_c, 3, 54, 90
5, 64679, Note_on_c, 3, 54, 0
5, 64680, Note_on_c, 3, 64, 90
5, 64709, Note_on_c, 3, 64, 0
5, 64710, Note_on_c, 3, 66, 90
5, 64724, Note_on_c, 3, 66, 0
5, 64725, Note_on_c, 3, 67, 90
5, 64739, Note_on_c, 3, 67, 0
5, 64740, Note_on_c, 3, 66, 90
5, 64799, Note_on_c, 3, 66, 0
5, 64800, Note_on_c, 3, 58, 90
5, 64859, Note_on_c, 3, 58, 0
5, 64860, Note_on_c, 3, 59, 90
5, 64919, Note_on_c, 3, 59, 0
5, 64920, Note_on_c, 3, 64, 90
5, 64949, Note_on_c, 3, 64, 0
5, 64950, Note_on_c, 3, 62, 90
5, 64979, Note_on_c, 3, 62, 0
5, 64980, Note_on_c, 3, 64, 90
5, 65009, Note_on_c, 3, 64, 0
5, 65010, Note_on_c, 3, 67, 90
5, 65039, Note_on_c, 3, 67, 0
5, 65040, Note_on_c, 3, 66, 90
5, 65069, Note_on_c, 3, 66, 0
5, 65070, Note_on_c, 3, 64, 90
5, 65099, Note_on_c, 3, 64, 0
5, 65100, Note_on_c, 3, 62, 90
5, 65189, Note_on_c, 3, 62, 0
5, 65190, Note_on_c, 3, 61, 90
5, 65219, Note_on_c, 3, 61, 0
5, 65220, Note_on_c, 3, 62, 90
5, 65279, Note_on_c, 3, 62, 0
5, 65280, Note_on_c, 3, 61, 90
5, 65399, Note_on_c, 3, 61, 0
5, 65400, Note_on_c, 3, 54, 90
5, 65459, Note_on_c, 3, 54, 0
5, 65460, Note_on_c, 3, 59, 90
5, 65549, Note_on_c, 3, 59, 0
5, 65550, Note_on_c, 3, 62, 90
5, 65579, Note_on_c, 3, 62, 0
5, 65580, Note_on_c, 3, 61, 90
5, 65639, Note_on_c, 3, 61, 0
5, 65640, Note_on_c, 3, 59, 90
5, 65699, Note_on_c, 3, 59, 0
5, 65700, Note_on_c, 3, 59, 90
5, 65714, Note_on_c, 3, 59, 0
5, 65715, Note_on_c, 3, 61, 90
5, 65729, Note_on_c, 3, 61, 0
5, 65730, Note_on_c, 3, 62, 90
5, 65759, Note_on_c, 3, 62, 0
5, 65760, Note_on_c, 3, 61, 90
5, 65819, Note_on_c, 3, 61, 0
5, 65820, Note_on_c, 3, 61, 90
5, 65909, Note_on_c, 3, 61, 0
5, 65910, Note_on_c, 3, 64, 90
5, 65939, Note_on_c, 3, 64, 0
5, 65940, Note_on_c, 3, 62, 90
5, 65999, Note_on_c, 3, 62, 0
5, 66000, Note_on_c, 3, 61, 90
5, 66059, Note_on_c, 3, 61, 0
5, 66060, Note_on_c, 3, 61, 90
5, 66074, Note_on_c, 3, 61, 0
5, 66075, Note_on_c, 3, 62, 90
5, 66089, Note_on_c, 3, 62, 0
5, 66090, Note_on_c, 3, 64, 90
5, 66119, Note_on_c, 3, 64, 0
5, 66120, Note_on_c, 3, 62, 90
5, 66179, Note_on_c, 3, 62, 0
5, 66180, Note_on_c, 3, 63, 90
5, 66239, Note_on_c, 3, 63, 0
5, 66240, Note_on_c, 3, 63, 90
5, 66254, Note_on_c, 3, 63, 0
5, 66255, Note_on_c, 3, 64, 90
5, 66269, Note_on_c, 3, 64, 0
5, 66270, Note_on_c, 3, 66, 90
5, 66299, Note_on_c, 3, 66, 0
5, 66300, Note_on_c, 3, 64, 90
5, 66359, Note_on_c, 3, 64, 0
5, 66360, Note_on_c, 3, 65, 90
5, 66419, Note_on_c, 3, 65, 0
5, 66420, Note_on_c, 3, 65, 90
5, 66434, Note_on_c, 3, 65, 0
5, 66435, Note_on_c, 3, 66, 90
5, 66449, Note_on_c, 3, 66, 0
5, 66450, Note_on_c, 3, 68, 90
5, 66479, Note_on_c, 3, 68, 0
5, 66480, Note_on_c, 3, 66, 90
5, 66539, Note_on_c, 3, 66, 0
5, 66540, Note_on_c, 3, 62, 90
5, 66629, Note_on_c, 3, 62, 0
5, 66630, Note_on_c, 3, 61, 90
5, 66659, Note_on_c, 3, 61, 0
5, 66660, Note_on_c, 3, 59, 90
5, 66719, Note_on_c, 3, 59, 0
5, 66720, Note_on_c, 3, 59, 90
5, 67825, Note_on_c, 3, 58, 90
5, 67830, Note_on_c, 3, 59, 0
5, 67854, Note_on_c, 3, 58, 0
5, 67855, Note_on_c, 3, 61, 90
5, 67884, Note_on_c, 3, 61, 0
5, 67885, Note_on_c, 3, 59, 90
5, 67914, Note_on_c, 3, 59, 0
5, 67915, Note_on_c, 3, 61, 90
5, 68004, Note_on_c, 3, 61, 0
5, 68005, Note_on_c, 3, 66, 90
5, 68034, Note_on_c, 3, 66, 0
5, 68035, Note_on_c, 3, 54, 90
5, 68094, Note_on_c, 3, 54, 0
5, 68095, Note_on_c, 3, 58, 90
5, 68154, Note_on_c, 3, 58, 0
5, 68155, Note_on_c, 3, 50, 90
5, 68170, Note_on_c, 3, 54, 90
5, 68180, Note_on_c, 3, 59, 90
5, 68274, Note_on_c, 3, 50, 0
5, 68279, Note_on_c, 3, 59, 0
5, 68279, Note_on_c, 3, 54, 0
5, 69060, Note_on_c, 3, 57, 100
5, 69120, Note_on_c, 3, 57, 0
5, 69120, Note_on_c, 3, 62, 100
5, 69180, Note_on_c, 3, 62, 0
5, 69180, Note_on_c, 3, 64, 100
5, 69240, Note_on_c, 3, 64, 0
5, 69240, Note_on_c, 3, 66, 100
5, 69360, Note_on_c, 3, 66, 0
5, 69420, Note_on_c, 3, 57, 100
5, 69480, Note_on_c, 3, 57, 0
5, 69480, Note_on_c, 3, 64, 100
5, 69540, Note_on_c, 3, 64, 0
5, 69540, Note_on_c, 3, 66, 100
5, 69600, Note_on_c, 3, 66, 0
5, 69600, Note_on_c, 3, 67, 100
5, 69720, Note_on_c, 3, 67, 0
5, 69780, Note_on_c, 3, 62, 100
5, 69810, Note_on_c, 3, 62, 0
5, 69810, Note_on_c, 3, 64, 100
5, 69840, Note_on_c, 3, 64, 0
5, 69840, Note_on_c, 3, 66, 100
5, 69870, Note_on_c, 3, 66, 0
5, 69870, Note_on_c, 3, 67, 100
5, 69900, Note_on_c, 3, 67, 0
5, 69900, Note_on_c, 3, 64, 100
5, 69930, Note_on_c, 3, 64, 0
5, 69930, Note_on_c, 3, 66, 100
5, 69960, Note_on_c, 3, 66, 0
5, 69960, Note_on_c, 3, 62, 100
5, 69990, Note_on_c, 3, 62, 0
5, 69990, Note_on_c, 3, 64, 100
5, 70020, Note_on_c, 3, 64, 0
5, 70020, Note_on_c, 3, 66, 100
5, 70050, Note_on_c, 3, 66, 0
5, 70050, Note_on_c, 3, 67, 100
5, 70080, Note_on_c, 3, 67, 0
5, 70080, Note_on_c, 3, 64, 100
5, 70110, Note_on_c, 3, 64, 0
5, 70110, Note_on_c, 3, 66, 100
5, 70140, Note_on_c, 3, 66, 0
5, 70140, Note_on_c, 3, 62, 100
5, 70170, Note_on_c, 3, 62, 0
5, 70170, Note_on_c, 3, 64, 100
5, 70200, Note_on_c, 3, 64, 0
5, 70200, Note_on_c, 3, 66, 100
5, 70230, Note_on_c, 3, 66, 0
5, 70230, Note_on_c, 3, 64, 100
5, 70260, Note_on_c, 3, 64, 0
5, 70260, Note_on_c, 3, 66, 100
5, 70290, Note_on_c, 3, 66, 0
5, 70290, Note_on_c, 3, 67, 100
5, 70320, Note_on_c, 3, 67, 0
5, 70320, Note_on_c, 3, 64, 100
5, 70350, Note_on_c, 3, 64, 0
5, 70350, Note_on_c, 3, 66, 100
5, 70380, Note_on_c, 3, 66, 0
5, 70380, Note_on_c, 3, 67, 100
5, 70410, Note_on_c, 3, 67, 0
5, 70410, Note_on_c, 3, 64, 100
5, 70440, Note_on_c, 3, 64, 0
5, 70440, Note_on_c, 3, 66, 100
5, 70470, Note_on_c, 3, 66, 0
5, 70470, Note_on_c, 3, 67, 100
5, 70500, Note_on_c, 3, 67, 0
5, 70500, Note_on_c, 3, 66, 100
5, 70560, Note_on_c, 3, 66, 0
5, 70560, Note_on_c, 3, 57, 100
5, 70590, Note_on_c, 3, 57, 0
5, 70590, Note_on_c, 3, 59, 100
5, 70620, Note_on_c, 3, 59, 0
5, 70620, Note_on_c, 3, 57, 100
5, 70680, Note_on_c, 3, 57, 0
5, 70680, Note_on_c, 3, 57, 100
5, 70740, Note_on_c, 3, 57, 0
5, 70740, Note_on_c, 3, 66, 100
5, 70770, Note_on_c, 3, 66, 0
5, 70770, Note_on_c, 3, 64, 100
5, 70800, Note_on_c, 3, 64, 0
5, 70800, Note_on_c, 3, 62, 100
5, 70830, Note_on_c, 3, 62, 0
5, 70830, Note_on_c, 3, 66, 100
5, 70860, Note_on_c, 3, 66, 0
5, 70860, Note_on_c, 3, 64, 100
5, 70920, Note_on_c, 3, 64, 0
5, 70920, Note_on_c, 3, 57, 100
5, 70950, Note_on_c, 3, 57, 0
5, 70950, Note_on_c, 3, 59, 100
5, 70980, Note_on_c, 3, 59, 0
5, 70980, Note_on_c, 3, 57, 100
5, 71040, Note_on_c, 3, 57, 0
5, 71040, Note_on_c, 3, 57, 100
5, 71100, Note_on_c, 3, 57, 0
5, 71100, Note_on_c, 3, 67, 100
5, 71130, Note_on_c, 3, 67, 0
5, 71130, Note_on_c, 3, 66, 100
5, 71160, Note_on_c, 3, 66, 0
5, 71160, Note_on_c, 3, 64, 100
5, 71190, Note_on_c, 3, 64, 0
5, 71190, Note_on_c, 3, 67, 100
5, 71220, Note_on_c, 3, 67, 0
5, 71220, Note_on_c, 3, 66, 100
5, 71250, Note_on_c, 3, 66, 0
5, 71250, Note_on_c, 3, 67, 100
5, 71280, Note_on_c, 3, 67, 0
5, 71280, Note_on_c, 3, 69, 100
5, 71310, Note_on_c, 3, 69, 0
5, 71310, Note_on_c, 3, 71, 100
5, 71340, Note_on_c, 3, 71, 0
5, 71340, Note_on_c, 3, 67, 100
5, 71370, Note_on_c, 3, 67, 0
5, 71370, Note_on_c, 3, 69, 100
5, 71400, Note_on_c, 3, 69, 0
5, 71400, Note_on_c, 3, 66, 100
5, 71430, Note_on_c, 3, 66, 0
5, 71430, Note_on_c, 3, 67, 100
5, 71460, Note_on_c, 3, 67, 0
5, 71460, Note_on_c, 3, 69, 100
5, 71490, Note_on_c, 3, 69, 0
5, 71490, Note_on_c, 3, 71, 100
5, 71520, Note_on_c, 3, 71, 0
5, 71520, Note_on_c, 3, 67, 100
5, 71550, Note_on_c, 3, 67, 0
5, 71550, Note_on_c, 3, 69, 100
5, 71580, Note_on_c, 3, 69, 0
5, 71580, Note_on_c, 3, 66, 100
5, 71610, Note_on_c, 3, 66, 0
5, 71610, Note_on_c, 3, 67, 100
5, 71640, Note_on_c, 3, 67, 0
5, 71640, Note_on_c, 3, 69, 100
5, 71670, Note_on_c, 3, 69, 0
5, 71670, Note_on_c, 3, 67, 100
5, 71700, Note_on_c, 3, 67, 0
5, 71700, Note_on_c, 3, 69, 100
5, 71730, Note_on_c, 3, 69, 0
5, 71730, Note_on_c, 3, 71, 100
5, 71760, Note_on_c, 3, 71, 0
5, 71760, Note_on_c, 3, 64, 100
5, 71790, Note_on_c, 3, 64, 0
5, 71790, Note_on_c, 3, 66, 100
5, 71820, Note_on_c, 3, 66, 0
5, 71820, Note_on_c, 3, 67, 100
5, 71850, Note_on_c, 3, 67, 0
5, 71850, Note_on_c, 3, 66, 100
5, 71880, Note_on_c, 3, 66, 0
5, 71880, Note_on_c, 3, 67, 100
5, 71910, Note_on_c, 3, 67, 0
5, 71910, Note_on_c, 3, 69, 100
5, 71940, Note_on_c, 3, 69, 0
5, 71940, Note_on_c, 3, 62, 100
5, 71970, Note_on_c, 3, 62, 0
5, 71970, Note_on_c, 3, 64, 100
5, 72000, Note_on_c, 3, 64, 0
5, 72000, Note_on_c, 3, 66, 100
5, 72030, Note_on_c, 3, 66, 0
5, 72030, Note_on_c, 3, 64, 100
5, 72060, Note_on_c, 3, 64, 0
5, 72060, Note_on_c, 3, 66, 100
5, 72090, Note_on_c, 3, 66, 0
5, 72090, Note_on_c, 3, 67, 100
5, 72120, Note_on_c, 3, 67, 0
5, 72120, Note_on_c, 3, 61, 100
5, 72150, Note_on_c, 3, 61, 0
5, 72150, Note_on_c, 3, 62, 100
5, 72180, Note_on_c, 3, 62, 0
5, 72180, Note_on_c, 3, 64, 100
5, 72210, Note_on_c, 3, 64, 0
5, 72210, Note_on_c, 3, 62, 100
5, 72240, Note_on_c, 3, 62, 0
5, 72240, Note_on_c, 3, 64, 100
5, 72270, Note_on_c, 3, 64, 0
5, 72270, Note_on_c, 3, 66, 100
5, 72300, Note_on_c, 3, 66, 0
5, 72300, Note_on_c, 3, 59, 100
5, 72330, Note_on_c, 3, 59, 0
5, 72330, Note_on_c, 3, 61, 100
5, 72360, Note_on_c, 3, 61, 0
5, 72360, Note_on_c, 3, 62, 100
5, 72390, Note_on_c, 3, 62, 0
5, 72390, Note_on_c, 3, 61, 100
5, 72420, Note_on_c, 3, 61, 0
5, 72420, Note_on_c, 3, 62, 100
5, 72450, Note_on_c, 3, 62, 0
5, 72450, Note_on_c, 3, 64, 100
5, 72480, Note_on_c, 3, 64, 0
5, 72480, Note_on_c, 3, 61, 100
5, 72540, Note_on_c, 3, 61, 0
5, 72540, Note_on_c, 3, 59, 100
5, 72570, Note_on_c, 3, 59, 0
5, 72570, Note_on_c, 3, 57, 100
5, 72600, Note_on_c, 3, 57, 0
5, 72600, Note_on_c, 3, 62, 100
5, 72720, Note_on_c, 3, 62, 0
5, 72720, Note_on_c, 3, 61, 100
5, 72735, Note_on_c, 3, 61, 0
5, 72735, Note_on_c, 3, 62, 100
5, 72750, Note_on_c, 3, 62, 0
5, 72750, Note_on_c, 3, 61, 100
5, 72765, Note_on_c, 3, 61, 0
5, 72765, Note_on_c, 3, 62, 100
5, 72780, Note_on_c, 3, 62, 0
5, 72780, Note_on_c, 3, 61, 100
5, 72795, Note_on_c, 3, 61, 0
5, 72795, Note_on_c, 3, 62, 100
5, 72810, Note_on_c, 3, 62, 0
5, 72810, Note_on_c, 3, 59, 100
5, 72825, Note_on_c, 3, 59, 0
5, 72825, Note_on_c, 3, 61, 100
5, 72840, Note_on_c, 3, 61, 0
5, 72840, Note_on_c, 3, 62, 100
5, 72870, Note_on_c, 3, 62, 0
5, 72870, Note_on_c, 3, 54, 100
5, 72900, Note_on_c, 3, 54, 0
5, 72900, Note_on_c, 3, 55, 100
5, 72930, Note_on_c, 3, 55, 0
5, 72930, Note_on_c, 3, 57, 100
5, 72960, Note_on_c, 3, 57, 0
5, 72960, Note_on_c, 3, 59, 100
5, 72990, Note_on_c, 3, 59, 0
5, 72990, Note_on_c, 3, 57, 100
5, 73020, Note_on_c, 3, 57, 0
5, 73020, Note_on_c, 3, 59, 100
5, 73050, Note_on_c, 3, 59, 0
5, 73050, Note_on_c, 3, 61, 100
5, 73080, Note_on_c, 3, 61, 0
5, 73080, Note_on_c, 3, 59, 100
5, 73110, Note_on_c, 3, 59, 0
5, 73110, Note_on_c, 3, 57, 100
5, 73140, Note_on_c, 3, 57, 0
5, 73140, Note_on_c, 3, 56, 100
5, 73170, Note_on_c, 3, 56, 0
5, 73170, Note_on_c, 3, 54, 100
5, 73200, Note_on_c, 3, 54, 0
5, 73200, Note_on_c, 3, 55, 100
5, 73260, Note_on_c, 3, 55, 0
5, 73260, Note_on_c, 3, 57, 100
5, 73290, Note_on_c, 3, 57, 0
5, 73290, Note_on_c, 3, 59, 100
5, 73320, Note_on_c, 3, 59, 0
5, 73320, Note_on_c, 3, 61, 100
5, 73380, Note_on_c, 3, 61, 0
5, 73380, Note_on_c, 3, 59, 90
5, 73409, Note_on_c, 3, 59, 0
5, 73410, Note_on_c, 3, 57, 90
5, 73439, Note_on_c, 3, 57, 0
5, 73440, Note_on_c, 3, 56, 90
5, 73529, Note_on_c, 3, 56, 0
5, 73530, Note_on_c, 3, 57, 90
5, 73559, Note_on_c, 3, 57, 0
5, 73560, Note_on_c, 3, 57, 90
5, 73620, Note_on_c, 3, 57, 0
5, 73620, Note_on_c, 3, 69, 90
5, 73799, Note_on_c, 3, 69, 0
5, 73800, Note_on_c, 3, 68, 90
5, 73979, Note_on_c, 3, 68, 0
5, 73980, Note_on_c, 3, 66, 90
5, 74159, Note_on_c, 3, 66, 0
5, 74160, Note_on_c, 3, 64, 90
5, 74339, Note_on_c, 3, 64, 0
5, 74340, Note_on_c, 3, 62, 90
5, 74459, Note_on_c, 3, 62, 0
5, 74490, Note_on_c, 3, 59, 90
5, 74519, Note_on_c, 3, 59, 0
5, 74520, Note_on_c, 3, 61, 90
5, 74549, Note_on_c, 3, 61, 0
5, 74550, Note_on_c, 3, 62, 90
5, 74579, Note_on_c, 3, 62, 0
5, 74580, Note_on_c, 3, 64, 90
5, 74609, Note_on_c, 3, 64, 0
5, 74610, Note_on_c, 3, 62, 90
5, 74639, Note_on_c, 3, 62, 0
5, 74640, Note_on_c, 3, 64, 90
5, 74669, Note_on_c, 3, 64, 0
5, 74670, Note_on_c, 3, 66, 90
5, 74699, Note_on_c, 3, 66, 0
5, 74700, Note_on_c, 3, 59, 90
5, 74789, Note_on_c, 3, 59, 0
5, 74790, Note_on_c, 3, 57, 90
5, 74819, Note_on_c, 3, 57, 0
5, 74820, Note_on_c, 3, 57, 90
5, 74879, Note_on_c, 3, 57, 0
5, 74880, Note_on_c, 3, 52, 90
5, 74909, Note_on_c, 3, 52, 0
5, 74910, Note_on_c, 3, 54, 90
5, 74939, Note_on_c, 3, 54, 0
5, 74940, Note_on_c, 3, 52, 90
5, 74999, Note_on_c, 3, 52, 0
5, 75000, Note_on_c, 3, 52, 90
5, 75059, Note_on_c, 3, 52, 0
5, 75060, Note_on_c, 3, 61, 90
5, 75089, Note_on_c, 3, 61, 0
5, 75090, Note_on_c, 3, 59, 90
5, 75119, Note_on_c, 3, 59, 0
5, 75120, Note_on_c, 3, 57, 90
5, 75149, Note_on_c, 3, 57, 0
5, 75150, Note_on_c, 3, 61, 90
5, 75179, Note_on_c, 3, 61, 0
5, 75180, Note_on_c, 3, 59, 90
5, 75239, Note_on_c, 3, 59, 0
5, 75240, Note_on_c, 3, 52, 90
5, 75269, Note_on_c, 3, 52, 0
5, 75270, Note_on_c, 3, 54, 90
5, 75299, Note_on_c, 3, 54, 0
5, 75300, Note_on_c, 3, 52, 90
5, 75359, Note_on_c, 3, 52, 0
5, 75360, Note_on_c, 3, 52, 90
5, 75419, Note_on_c, 3, 52, 0
5, 75420, Note_on_c, 3, 62, 90
5, 75449, Note_on_c, 3, 62, 0
5, 75450, Note_on_c, 3, 61, 90
5, 75479, Note_on_c, 3, 61, 0
5, 75480, Note_on_c, 3, 59, 90
5, 75509, Note_on_c, 3, 59, 0
5, 75510, Note_on_c, 3, 62, 90
5, 75539, Note_on_c, 3, 62, 0
5, 75540, Note_on_c, 3, 61, 90
5, 75569, Note_on_c, 3, 61, 0
5, 75570, Note_on_c, 3, 62, 90
5, 75599, Note_on_c, 3, 62, 0
5, 75600, Note_on_c, 3, 64, 90
5, 75629, Note_on_c, 3, 64, 0
5, 75630, Note_on_c, 3, 66, 90
5, 75659, Note_on_c, 3, 66, 0
5, 75660, Note_on_c, 3, 62, 90
5, 75689, Note_on_c, 3, 62, 0
5, 75690, Note_on_c, 3, 64, 90
5, 75719, Note_on_c, 3, 64, 0
5, 75720, Note_on_c, 3, 61, 90
5, 75749, Note_on_c, 3, 61, 0
5, 75750, Note_on_c, 3, 62, 90
5, 75779, Note_on_c, 3, 62, 0
5, 75780, Note_on_c, 3, 64, 90
5, 75809, Note_on_c, 3, 64, 0
5, 75810, Note_on_c, 3, 66, 90
5, 75839, Note_on_c, 3, 66, 0
5, 75840, Note_on_c, 3, 62, 90
5, 75869, Note_on_c, 3, 62, 0
5, 75870, Note_on_c, 3, 64, 90
5, 75899, Note_on_c, 3, 64, 0
5, 75900, Note_on_c, 3, 61, 90
5, 75929, Note_on_c, 3, 61, 0
5, 75930, Note_on_c, 3, 62, 90
5, 75959, Note_on_c, 3, 62, 0
5, 75960, Note_on_c, 3, 64, 90
5, 75989, Note_on_c, 3, 64, 0
5, 75990, Note_on_c, 3, 61, 90
5, 76019, Note_on_c, 3, 61, 0
5, 76020, Note_on_c, 3, 62, 90
5, 76049, Note_on_c, 3, 62, 0
5, 76050, Note_on_c, 3, 64, 90
5, 76079, Note_on_c, 3, 64, 0
5, 76080, Note_on_c, 3, 62, 90
5, 76199, Note_on_c, 3, 62, 0
5, 76260, Note_on_c, 3, 54, 90
5, 76319, Note_on_c, 3, 54, 0
5, 76320, Note_on_c, 3, 59, 90
5, 76379, Note_on_c, 3, 59, 0
5, 76380, Note_on_c, 3, 61, 90
5, 76439, Note_on_c, 3, 61, 0
5, 76440, Note_on_c, 3, 62, 90
5, 76559, Note_on_c, 3, 62, 0
5, 76620, Note_on_c, 3, 54, 90
5, 76679, Note_on_c, 3, 54, 0
5, 76680, Note_on_c, 3, 61, 90
5, 76739, Note_on_c, 3, 61, 0
5, 76740, Note_on_c, 3, 62, 90
5, 76799, Note_on_c, 3, 62, 0
5, 76800, Note_on_c, 3, 64, 90
5, 76919, Note_on_c, 3, 64, 0
5, 76980, Note_on_c, 3, 59, 90
5, 77009, Note_on_c, 3, 59, 0
5, 77010, Note_on_c, 3, 61, 90
5, 77039, Note_on_c, 3, 61, 0
5, 77040, Note_on_c, 3, 62, 90
5, 77069, Note_on_c, 3, 62, 0
5, 77070, Note_on_c, 3, 64, 90
5, 77099, Note_on_c, 3, 64, 0
5, 77100, Note_on_c, 3, 61, 90
5, 77129, Note_on_c, 3, 61, 0
5, 77130, Note_on_c, 3, 62, 90
5, 77159, Note_on_c, 3, 62, 0
5, 77160, Note_on_c, 3, 59, 90
5, 77189, Note_on_c, 3, 59, 0
5, 77190, Note_on_c, 3, 61, 90
5, 77219, Note_on_c, 3, 61, 0
5, 77220, Note_on_c, 3, 62, 90
5, 77249, Note_on_c, 3, 62, 0
5, 77250, Note_on_c, 3, 64, 90
5, 77279, Note_on_c, 3, 64, 0
5, 77280, Note_on_c, 3, 61, 90
5, 77309, Note_on_c, 3, 61, 0
5, 77310, Note_on_c, 3, 62, 90
5, 77339, Note_on_c, 3, 62, 0
5, 77340, Note_on_c, 3, 59, 90
5, 77399, Note_on_c, 3, 59, 0
5, 77400, Note_on_c, 3, 66, 90
5, 77459, Note_on_c, 3, 66, 0
5, 77460, Note_on_c, 3, 71, 90
5, 77519, Note_on_c, 3, 71, 0
5, 77520, Note_on_c, 3, 68, 90
5, 77639, Note_on_c, 3, 68, 0
5, 77670, Note_on_c, 3, 66, 90
5, 77684, Note_on_c, 3, 66, 0
5, 77685, Note_on_c, 3, 68, 90
5, 77699, Note_on_c, 3, 68, 0
5, 77700, Note_on_c, 3, 69, 90
5, 77939, Note_on_c, 3, 69, 0
5, 77940, Note_on_c, 3, 69, 90
5, 77969, Note_on_c, 3, 69, 0
5, 77970, Note_on_c, 3, 71, 90
5, 77999, Note_on_c, 3, 71, 0
5, 78000, Note_on_c, 3, 72, 90
5, 78059, Note_on_c, 3, 72, 0
5, 78060, Note_on_c, 3, 71, 90
5, 78149, Note_on_c, 3, 71, 0
5, 78150, Note_on_c, 3, 69, 90
5, 78179, Note_on_c, 3, 69, 0
5, 78180, Note_on_c, 3, 67, 90
5, 78209, Note_on_c, 3, 67, 0
5, 78210, Note_on_c, 3, 66, 90
5, 78239, Note_on_c, 3, 66, 0
5, 78240, Note_on_c, 3, 67, 90
5, 78269, Note_on_c, 3, 67, 0
5, 78270, Note_on_c, 3, 69, 90
5, 78299, Note_on_c, 3, 69, 0
5, 78300, Note_on_c, 3, 66, 90
5, 78320, Note_on_c, 3, 66, 0
5, 78320, Note_on_c, 3, 67, 90
5, 78340, Note_on_c, 3, 67, 0
5, 78340, Note_on_c, 3, 66, 90
5, 78360, Note_on_c, 3, 66, 0
5, 78360, Note_on_c, 3, 67, 90
5, 78375, Note_on_c, 3, 67, 0
5, 78375, Note_on_c, 3, 66, 90
5, 78390, Note_on_c, 3, 66, 0
5, 78390, Note_on_c, 3, 64, 90
5, 78419, Note_on_c, 3, 64, 0
5, 78420, Note_on_c, 3, 64, 90
5, 79740, Note_on_c, 3, 64, 0
5, 79740, Note_on_c, 3, 69, 90
5, 79769, Note_on_c, 3, 69, 0
5, 79770, Note_on_c, 3, 67, 90
5, 79799, Note_on_c, 3, 67, 0
5, 79800, Note_on_c, 3, 66, 90
5, 79829, Note_on_c, 3, 66, 0
5, 79830, Note_on_c, 3, 64, 90
5, 79859, Note_on_c, 3, 64, 0
5, 79860, Note_on_c, 3, 62, 90
5, 79919, Note_on_c, 3, 62, 0
5, 79920, Note_on_c, 3, 57, 90
5, 79949, Note_on_c, 3, 57, 0
5, 79950, Note_on_c, 3, 59, 90
5, 79979, Note_on_c, 3, 59, 0
5, 79980, Note_on_c, 3, 57, 90
5, 80039, Note_on_c, 3, 57, 0
5, 80040, Note_on_c, 3, 57, 90
5, 80099, Note_on_c, 3, 57, 0
5, 80100, Note_on_c, 3, 66, 90
5, 80129, Note_on_c, 3, 66, 0
5, 80130, Note_on_c, 3, 64, 90
5, 80159, Note_on_c, 3, 64, 0
5, 80160, Note_on_c, 3, 62, 90
5, 80189, Note_on_c, 3, 62, 0
5, 80190, Note_on_c, 3, 66, 90
5, 80219, Note_on_c, 3, 66, 0
5, 80220, Note_on_c, 3, 64, 90
5, 80279, Note_on_c, 3, 64, 0
5, 80280, Note_on_c, 3, 57, 90
5, 80309, Note_on_c, 3, 57, 0
5, 80310, Note_on_c, 3, 59, 90
5, 80339, Note_on_c, 3, 59, 0
5, 80340, Note_on_c, 3, 57, 90
5, 80399, Note_on_c, 3, 57, 0
5, 80400, Note_on_c, 3, 57, 90
5, 80459, Note_on_c, 3, 57, 0
5, 80460, Note_on_c, 3, 67, 90
5, 80489, Note_on_c, 3, 67, 0
5, 80490, Note_on_c, 3, 66, 90
5, 80519, Note_on_c, 3, 66, 0
5, 80520, Note_on_c, 3, 64, 90
5, 80549, Note_on_c, 3, 64, 0
5, 80550, Note_on_c, 3, 67, 90
5, 80579, Note_on_c, 3, 67, 0
5, 80580, Note_on_c, 3, 66, 90
5, 80609, Note_on_c, 3, 66, 0
5, 80610, Note_on_c, 3, 67, 90
5, 80639, Note_on_c, 3, 67, 0
5, 80640, Note_on_c, 3, 69, 90
5, 80669, Note_on_c, 3, 69, 0
5, 80670, Note_on_c, 3, 71, 90
5, 80699, Note_on_c, 3, 71, 0
5, 80700, Note_on_c, 3, 67, 90
5, 80729, Note_on_c, 3, 67, 0
5, 80730, Note_on_c, 3, 69, 90
5, 80759, Note_on_c, 3, 69, 0
5, 80760, Note_on_c, 3, 66, 90
5, 80789, Note_on_c, 3, 66, 0
5, 80790, Note_on_c, 3, 67, 90
5, 80819, Note_on_c, 3, 67, 0
5, 80820, Note_on_c, 3, 69, 90
5, 80849, Note_on_c, 3, 69, 0
5, 80850, Note_on_c, 3, 71, 90
5, 80879, Note_on_c, 3, 71, 0
5, 80880, Note_on_c, 3, 67, 90
5, 80909, Note_on_c, 3, 67, 0
5, 80910, Note_on_c, 3, 69, 90
5, 80939, Note_on_c, 3, 69, 0
5, 80940, Note_on_c, 3, 66, 90
5, 80969, Note_on_c, 3, 66, 0
5, 80970, Note_on_c, 3, 67, 90
5, 80999, Note_on_c, 3, 67, 0
5, 81000, Note_on_c, 3, 69, 90
5, 81029, Note_on_c, 3, 69, 0
5, 81030, Note_on_c, 3, 66, 90
5, 81059, Note_on_c, 3, 66, 0
5, 81060, Note_on_c, 3, 67, 90
5, 81089, Note_on_c, 3, 67, 0
5, 81090, Note_on_c, 3, 69, 90
5, 81119, Note_on_c, 3, 69, 0
5, 81120, Note_on_c, 3, 59, 90
5, 81149, Note_on_c, 3, 59, 0
5, 81150, Note_on_c, 3, 61, 90
5, 81179, Note_on_c, 3, 61, 0
5, 81180, Note_on_c, 3, 62, 90
5, 81209, Note_on_c, 3, 62, 0
5, 81210, Note_on_c, 3, 59, 90
5, 81239, Note_on_c, 3, 59, 0
5, 81240, Note_on_c, 3, 61, 90
5, 81269, Note_on_c, 3, 61, 0
5, 81270, Note_on_c, 3, 62, 90
5, 81299, Note_on_c, 3, 62, 0
5, 81300, Note_on_c, 3, 64, 90
5, 81479, Note_on_c, 3, 64, 0
5, 81510, Note_on_c, 3, 66, 90
5, 81539, Note_on_c, 3, 66, 0
5, 81540, Note_on_c, 3, 67, 90
5, 81569, Note_on_c, 3, 67, 0
5, 81570, Note_on_c, 3, 64, 90
5, 81599, Note_on_c, 3, 64, 0
5, 81600, Note_on_c, 3, 66, 90
5, 81629, Note_on_c, 3, 66, 0
5, 81630, Note_on_c, 3, 67, 90
5, 81659, Note_on_c, 3, 67, 0
5, 81660, Note_on_c, 3, 61, 90
5, 81689, Note_on_c, 3, 61, 0
5, 81690, Note_on_c, 3, 62, 90
5, 81719, Note_on_c, 3, 62, 0
5, 81720, Note_on_c, 3, 64, 90
5, 81749, Note_on_c, 3, 64, 0
5, 81750, Note_on_c, 3, 61, 90
5, 81779, Note_on_c, 3, 61, 0
5, 81780, Note_on_c, 3, 62, 90
5, 81809, Note_on_c, 3, 62, 0
5, 81810, Note_on_c, 3, 64, 90
5, 81839, Note_on_c, 3, 64, 0
5, 81840, Note_on_c, 3, 57, 90
5, 82019, Note_on_c, 3, 57, 0
5, 82050, Note_on_c, 3, 59, 90
5, 82079, Note_on_c, 3, 59, 0
5, 82080, Note_on_c, 3, 61, 90
5, 82109, Note_on_c, 3, 61, 0
5, 82110, Note_on_c, 3, 57, 90
5, 82139, Note_on_c, 3, 57, 0
5, 82140, Note_on_c, 3, 59, 90
5, 82169, Note_on_c, 3, 59, 0
5, 82170, Note_on_c, 3, 61, 90
5, 82199, Note_on_c, 3, 61, 0
5, 82200, Note_on_c, 3, 54, 90
5, 82229, Note_on_c, 3, 54, 0
5, 82230, Note_on_c, 3, 55, 90
5, 82259, Note_on_c, 3, 55, 0
5, 82260, Note_on_c, 3, 57, 90
5, 82289, Note_on_c, 3, 57, 0
5, 82290, Note_on_c, 3, 54, 90
5, 82319, Note_on_c, 3, 54, 0
5, 82320, Note_on_c, 3, 55, 90
5, 82349, Note_on_c, 3, 55, 0
5, 82350, Note_on_c, 3, 57, 90
5, 82379, Note_on_c, 3, 57, 0
5, 82380, Note_on_c, 3, 50, 90
5, 82559, Note_on_c, 3, 50, 0
5, 82560, Note_on_c, 3, 62, 90
5, 82589, Note_on_c, 3, 62, 0
5, 82590, Note_on_c, 3, 64, 90
5, 82619, Note_on_c, 3, 64, 0
5, 82620, Note_on_c, 3, 66, 90
5, 82649, Note_on_c, 3, 66, 0
5, 82650, Note_on_c, 3, 62, 90
5, 82679, Note_on_c, 3, 62, 0
5, 82680, Note_on_c, 3, 64, 90
5, 82709, Note_on_c, 3, 64, 0
5, 82710, Note_on_c, 3, 66, 90
5, 82739, Note_on_c, 3, 66, 0
5, 82740, Note_on_c, 3, 59, 90
5, 82769, Note_on_c, 3, 59, 0
5, 82770, Note_on_c, 3, 61, 90
5, 82799, Note_on_c, 3, 61, 0
5, 82800, Note_on_c, 3, 62, 90
5, 82829, Note_on_c, 3, 62, 0
5, 82830, Note_on_c, 3, 59, 90
5, 82859, Note_on_c, 3, 59, 0
5, 82860, Note_on_c, 3, 61, 90
5, 82889, Note_on_c, 3, 61, 0
5, 82890, Note_on_c, 3, 62, 90
5, 82919, Note_on_c, 3, 62, 0
5, 82920, Note_on_c, 3, 64, 90
5, 82949, Note_on_c, 3, 64, 0
5, 82950, Note_on_c, 3, 66, 90
5, 82979, Note_on_c, 3, 66, 0
5, 82980, Note_on_c, 3, 67, 90
5, 83009, Note_on_c, 3, 67, 0
5, 83010, Note_on_c, 3, 64, 90
5, 83039, Note_on_c, 3, 64, 0
5, 83040, Note_on_c, 3, 66, 90
5, 83069, Note_on_c, 3, 66, 0
5, 83070, Note_on_c, 3, 67, 90
5, 83099, Note_on_c, 3, 67, 0
5, 83100, Note_on_c, 3, 61, 90
5, 83129, Note_on_c, 3, 61, 0
5, 83130, Note_on_c, 3, 62, 90
5, 83159, Note_on_c, 3, 62, 0
5, 83160, Note_on_c, 3, 64, 90
5, 83189, Note_on_c, 3, 64, 0
5, 83190, Note_on_c, 3, 61, 90
5, 83219, Note_on_c, 3, 61, 0
5, 83220, Note_on_c, 3, 62, 90
5, 83249, Note_on_c, 3, 62, 0
5, 83250, Note_on_c, 3, 64, 90
5, 83279, Note_on_c, 3, 64, 0
5, 83280, Note_on_c, 3, 66, 90
5, 83309, Note_on_c, 3, 66, 0
5, 83310, Note_on_c, 3, 67, 90
5, 83339, Note_on_c, 3, 67, 0
5, 83340, Note_on_c, 3, 69, 90
5, 83369, Note_on_c, 3, 69, 0
5, 83370, Note_on_c, 3, 66, 90
5, 83399, Note_on_c, 3, 66, 0
5, 83400, Note_on_c, 3, 67, 90
5, 83429, Note_on_c, 3, 67, 0
5, 83430, Note_on_c, 3, 69, 90
5, 83459, Note_on_c, 3, 69, 0
5, 83460, Note_on_c, 3, 62, 90
5, 83489, Note_on_c, 3, 62, 0
5, 83490, Note_on_c, 3, 64, 90
5, 83519, Note_on_c, 3, 64, 0
5, 83520, Note_on_c, 3, 66, 90
5, 83549, Note_on_c, 3, 66, 0
5, 83550, Note_on_c, 3, 62, 90
5, 83579, Note_on_c, 3, 62, 0
5, 83580, Note_on_c, 3, 64, 90
5, 83609, Note_on_c, 3, 64, 0
5, 83610, Note_on_c, 3, 66, 90
5, 83639, Note_on_c, 3, 66, 0
5, 83640, Note_on_c, 3, 67, 90
5, 83819, Note_on_c, 3, 67, 0
5, 83850, Note_on_c, 3, 66, 90
5, 83879, Note_on_c, 3, 66, 0
5, 83880, Note_on_c, 3, 67, 90
5, 83909, Note_on_c, 3, 67, 0
5, 83910, Note_on_c, 3, 69, 90
5, 83939, Note_on_c, 3, 69, 0
5, 83940, Note_on_c, 3, 66, 90
5, 83969, Note_on_c, 3, 66, 0
5, 83970, Note_on_c, 3, 67, 90
5, 83999, Note_on_c, 3, 67, 0
5, 84000, Note_on_c, 3, 64, 90
5, 84029, Note_on_c, 3, 64, 0
5, 84030, Note_on_c, 3, 66, 90
5, 84059, Note_on_c, 3, 66, 0
5, 84060, Note_on_c, 3, 67, 90
5, 84089, Note_on_c, 3, 67, 0
5, 84090, Note_on_c, 3, 69, 90
5, 84119, Note_on_c, 3, 69, 0
5, 84120, Note_on_c, 3, 66, 90
5, 84149, Note_on_c, 3, 66, 0
5, 84150, Note_on_c, 3, 67, 90
5, 84179, Note_on_c, 3, 67, 0
5, 84180, Note_on_c, 3, 64, 90
5, 84239, Note_on_c, 3, 64, 0
5, 84240, Note_on_c, 3, 57, 90
5, 84269, Note_on_c, 3, 57, 0
5, 84270, Note_on_c, 3, 59, 90
5, 84299, Note_on_c, 3, 59, 0
5, 84300, Note_on_c, 3, 57, 90
5, 84359, Note_on_c, 3, 57, 0
5, 84360, Note_on_c, 3, 57, 90
5, 84419, Note_on_c, 3, 57, 0
5, 84420, Note_on_c, 3, 67, 90
5, 84449, Note_on_c, 3, 67, 0
5, 84450, Note_on_c, 3, 66, 90
5, 84479, Note_on_c, 3, 66, 0
5, 84480, Note_on_c, 3, 64, 90
5, 84509, Note_on_c, 3, 64, 0
5, 84510, Note_on_c, 3, 67, 90
5, 84539, Note_on_c, 3, 67, 0
5, 84540, Note_on_c, 3, 66, 90
5, 84960, Note_on_c, 3, 66, 0
5, 84960, Note_on_c, 3, 55, 90
5, 84990, Note_on_c, 3, 55, 0
5, 84990, Note_on_c, 3, 57, 90
5, 85020, Note_on_c, 3, 57, 0
5, 85020, Note_on_c, 3, 55, 90
5, 85080, Note_on_c, 3, 55, 0
5, 85080, Note_on_c, 3, 55, 90
5, 85140, Note_on_c, 3, 55, 0
5, 85140, Note_on_c, 3, 66, 90
5, 85170, Note_on_c, 3, 66, 0
5, 85170, Note_on_c, 3, 64, 90
5, 85200, Note_on_c, 3, 64, 0
5, 85200, Note_on_c, 3, 62, 90
5, 85230, Note_on_c, 3, 62, 0
5, 85230, Note_on_c, 3, 66, 90
5, 85260, Note_on_c, 3, 66, 0
5, 85260, Note_on_c, 3, 64, 90
5, 85680, Note_on_c, 3, 64, 0
5, 85680, Note_on_c, 3, 54, 90
5, 85710, Note_on_c, 3, 54, 0
5, 85710, Note_on_c, 3, 55, 90
5, 85740, Note_on_c, 3, 55, 0
5, 85740, Note_on_c, 3, 54, 90
5, 85800, Note_on_c, 3, 54, 0
5, 85800, Note_on_c, 3, 54, 90
5, 85860, Note_on_c, 3, 54, 0
5, 85860, Note_on_c, 3, 64, 90
5, 85890, Note_on_c, 3, 64, 0
5, 85890, Note_on_c, 3, 62, 90
5, 85920, Note_on_c, 3, 62, 0
5, 85920, Note_on_c, 3, 61, 90
5, 85950, Note_on_c, 3, 61, 0
5, 85950, Note_on_c, 3, 64, 90
5, 85980, Note_on_c, 3, 64, 0
5, 85980, Note_on_c, 3, 62, 90
5, 86400, Note_on_c, 3, 62, 0
5, 86400, Note_on_c, 3, 52, 90
5, 86430, Note_on_c, 3, 52, 0
5, 86430, Note_on_c, 3, 54, 90
5, 86460, Note_on_c, 3, 54, 0
5, 86460, Note_on_c, 3, 52, 90
5, 86520, Note_on_c, 3, 52, 0
5, 86520, Note_on_c, 3, 52, 90
5, 86580, Note_on_c, 3, 52, 0
5, 86580, Note_on_c, 3, 62, 90
5, 86610, Note_on_c, 3, 62, 0
5, 86610, Note_on_c, 3, 61, 90
5, 86640, Note_on_c, 3, 61, 0
5, 86640, Note_on_c, 3, 59, 90
5, 86670, Note_on_c, 3, 59, 0
5, 86670, Note_on_c, 3, 62, 90
5, 86700, Note_on_c, 3, 62, 0
5, 86700, Note_on_c, 3, 61, 90
5, 87060, Note_on_c, 3, 61, 0
5, 87120, Note_on_c, 3, 57, 90
5, 87149, Note_on_c, 3, 57, 0
5, 87150, Note_on_c, 3, 59, 90
5, 87179, Note_on_c, 3, 59, 0
5, 87180, Note_on_c, 3, 57, 90
5, 87239, Note_on_c, 3, 57, 0
5, 87240, Note_on_c, 3, 57, 90
5, 87299, Note_on_c, 3, 57, 0
5, 87300, Note_on_c, 3, 66, 90
5, 87329, Note_on_c, 3, 66, 0
5, 87330, Note_on_c, 3, 64, 90
5, 87359, Note_on_c, 3, 64, 0
5, 87360, Note_on_c, 3, 62, 90
5, 87389, Note_on_c, 3, 62, 0
5, 87390, Note_on_c, 3, 66, 90
5, 87419, Note_on_c, 3, 66, 0
5, 87420, Note_on_c, 3, 64, 90
5, 87479, Note_on_c, 3, 64, 0
5, 87480, Note_on_c, 3, 57, 90
5, 87509, Note_on_c, 3, 57, 0
5, 87510, Note_on_c, 3, 59, 90
5, 87539, Note_on_c, 3, 59, 0
5, 87540, Note_on_c, 3, 57, 90
5, 87599, Note_on_c, 3, 57, 0
5, 87600, Note_on_c, 3, 57, 90
5, 87659, Note_on_c, 3, 57, 0
5, 87660, Note_on_c, 3, 67, 90
5, 87689, Note_on_c, 3, 67, 0
5, 87690, Note_on_c, 3, 66, 90
5, 87719, Note_on_c, 3, 66, 0
5, 87720, Note_on_c, 3, 64, 90
5, 87749, Note_on_c, 3, 64, 0
5, 87750, Note_on_c, 3, 67, 90
5, 87779, Note_on_c, 3, 67, 0
5, 87780, Note_on_c, 3, 66, 90
5, 87809, Note_on_c, 3, 66, 0
5, 87810, Note_on_c, 3, 67, 90
5, 87839, Note_on_c, 3, 67, 0
5, 87840, Note_on_c, 3, 69, 90
5, 87869, Note_on_c, 3, 69, 0
5, 87870, Note_on_c, 3, 71, 90
5, 87899, Note_on_c, 3, 71, 0
5, 87900, Note_on_c, 3, 67, 90
5, 87929, Note_on_c, 3, 67, 0
5, 87930, Note_on_c, 3, 69, 90
5, 87959, Note_on_c, 3, 69, 0
5, 87960, Note_on_c, 3, 66, 90
5, 87989, Note_on_c, 3, 66, 0
5, 87990, Note_on_c, 3, 67, 90
5, 88019, Note_on_c, 3, 67, 0
5, 88020, Note_on_c, 3, 69, 90
5, 88049, Note_on_c, 3, 69, 0
5, 88050, Note_on_c, 3, 71, 90
5, 88079, Note_on_c, 3, 71, 0
5, 88080, Note_on_c, 3, 67, 90
5, 88109, Note_on_c, 3, 67, 0
5, 88110, Note_on_c, 3, 69, 90
5, 88139, Note_on_c, 3, 69, 0
5, 88140, Note_on_c, 3, 66, 90
5, 88169, Note_on_c, 3, 66, 0
5, 88170, Note_on_c, 3, 67, 90
5, 88199, Note_on_c, 3, 67, 0
5, 88200, Note_on_c, 3, 69, 90
5, 88229, Note_on_c, 3, 69, 0
5, 88230, Note_on_c, 3, 66, 90
5, 88259, Note_on_c, 3, 66, 0
5, 88260, Note_on_c, 3, 67, 90
5, 88289, Note_on_c, 3, 67, 0
5, 88290, Note_on_c, 3, 69, 90
5, 88319, Note_on_c, 3, 69, 0
5, 88320, Note_on_c, 3, 67, 90
5, 88349, Note_on_c, 3, 67, 0
5, 88350, Note_on_c, 3, 69, 90
5, 88379, Note_on_c, 3, 69, 0
5, 88380, Note_on_c, 3, 71, 90
5, 88409, Note_on_c, 3, 71, 0
5, 88410, Note_on_c, 3, 67, 90
5, 88439, Note_on_c, 3, 67, 0
5, 88440, Note_on_c, 3, 69, 90
5, 88469, Note_on_c, 3, 69, 0
5, 88470, Note_on_c, 3, 71, 90
5, 88499, Note_on_c, 3, 71, 0
5, 88500, Note_on_c, 3, 64, 90
5, 88679, Note_on_c, 3, 64, 0
5, 88710, Note_on_c, 3, 66, 90
5, 88739, Note_on_c, 3, 66, 0
5, 88740, Note_on_c, 3, 67, 90
5, 88769, Note_on_c, 3, 67, 0
5, 88770, Note_on_c, 3, 64, 90
5, 88799, Note_on_c, 3, 64, 0
5, 88800, Note_on_c, 3, 66, 90
5, 88829, Note_on_c, 3, 66, 0
5, 88830, Note_on_c, 3, 67, 90
5, 88859, Note_on_c, 3, 67, 0
5, 88860, Note_on_c, 3, 61, 90
5, 88889, Note_on_c, 3, 61, 0
5, 88890, Note_on_c, 3, 62, 90
5, 88919, Note_on_c, 3, 62, 0
5, 88920, Note_on_c, 3, 64, 90
5, 88949, Note_on_c, 3, 64, 0
5, 88950, Note_on_c, 3, 61, 90
5, 88979, Note_on_c, 3, 61, 0
5, 88980, Note_on_c, 3, 62, 90
5, 89009, Note_on_c, 3, 62, 0
5, 89010, Note_on_c, 3, 64, 90
5, 89039, Note_on_c, 3, 64, 0
5, 89040, Note_on_c, 3, 57, 90
5, 89219, Note_on_c, 3, 57, 0
5, 89250, Note_on_c, 3, 59, 90
5, 89279, Note_on_c, 3, 59, 0
5, 89280, Note_on_c, 3, 60, 90
5, 89309, Note_on_c, 3, 60, 0
5, 89310, Note_on_c, 3, 57, 90
5, 89339, Note_on_c, 3, 57, 0
5, 89340, Note_on_c, 3, 59, 90
5, 89369, Note_on_c, 3, 59, 0
5, 89370, Note_on_c, 3, 60, 90
5, 89399, Note_on_c, 3, 60, 0
5, 89400, Note_on_c, 3, 54, 90
5, 89429, Note_on_c, 3, 54, 0
5, 89430, Note_on_c, 3, 55, 90
5, 89459, Note_on_c, 3, 55, 0
5, 89460, Note_on_c, 3, 57, 90
5, 89489, Note_on_c, 3, 57, 0
5, 89490, Note_on_c, 3, 54, 90
5, 89519, Note_on_c, 3, 54, 0
5, 89520, Note_on_c, 3, 55, 90
5, 89549, Note_on_c, 3, 55, 0
5, 89550, Note_on_c, 3, 57, 90
5, 89579, Note_on_c, 3, 57, 0
5, 89580, Note_on_c, 3, 50, 90
5, 89759, Note_on_c, 3, 50, 0
5, 89790, Note_on_c, 3, 52, 90
5, 89819, Note_on_c, 3, 52, 0
5, 89820, Note_on_c, 3, 54, 90
5, 89849, Note_on_c, 3, 54, 0
5, 89850, Note_on_c, 3, 50, 90
5, 89879, Note_on_c, 3, 50, 0
5, 89880, Note_on_c, 3, 52, 90
5, 89909, Note_on_c, 3, 52, 0
5, 89910, Note_on_c, 3, 54, 90
5, 89939, Note_on_c, 3, 54, 0
5, 89940, Note_on_c, 3, 55, 90
5, 89969, Note_on_c, 3, 55, 0
5, 89970, Note_on_c, 3, 57, 90
5, 89999, Note_on_c, 3, 57, 0
5, 90000, Note_on_c, 3, 59, 90
5, 90029, Note_on_c, 3, 59, 0
5, 90030, Note_on_c, 3, 55, 90
5, 90059, Note_on_c, 3, 55, 0
5, 90060, Note_on_c, 3, 57, 90
5, 90089, Note_on_c, 3, 57, 0
5, 90090, Note_on_c, 3, 59, 90
5, 90119, Note_on_c, 3, 59, 0
5, 90120, Note_on_c, 3, 52, 90
5, 90149, Note_on_c, 3, 52, 0
5, 90150, Note_on_c, 3, 54, 90
5, 90179, Note_on_c, 3, 54, 0
5, 90180, Note_on_c, 3, 55, 90
5, 90209, Note_on_c, 3, 55, 0
5, 90210, Note_on_c, 3, 52, 90
5, 90239, Note_on_c, 3, 52, 0
5, 90240, Note_on_c, 3, 54, 90
5, 90269, Note_on_c, 3, 54, 0
5, 90270, Note_on_c, 3, 55, 90
5, 90299, Note_on_c, 3, 55, 0
5, 90300, Note_on_c, 3, 57, 90
5, 90329, Note_on_c, 3, 57, 0
5, 90330, Note_on_c, 3, 59, 90
5, 90359, Note_on_c, 3, 59, 0
5, 90360, Note_on_c, 3, 61, 90
5, 90389, Note_on_c, 3, 61, 0
5, 90390, Note_on_c, 3, 57, 90
5, 90419, Note_on_c, 3, 57, 0
5, 90420, Note_on_c, 3, 59, 90
5, 90449, Note_on_c, 3, 59, 0
5, 90450, Note_on_c, 3, 61, 90
5, 90479, Note_on_c, 3, 61, 0
5, 90480, Note_on_c, 3, 54, 90
5, 90509, Note_on_c, 3, 54, 0
5, 90510, Note_on_c, 3, 55, 90
5, 90539, Note_on_c, 3, 55, 0
5, 90540, Note_on_c, 3, 57, 90
5, 90569, Note_on_c, 3, 57, 0
5, 90570, Note_on_c, 3, 54, 90
5, 90599, Note_on_c, 3, 54, 0
5, 90600, Note_on_c, 3, 55, 90
5, 90629, Note_on_c, 3, 55, 0
5, 90630, Note_on_c, 3, 57, 90
5, 90659, Note_on_c, 3, 57, 0
5, 90660, Note_on_c, 3, 59, 90
5, 90689, Note_on_c, 3, 59, 0
5, 90690, Note_on_c, 3, 60, 90
5, 90719, Note_on_c, 3, 60, 0
5, 90720, Note_on_c, 3, 62, 90
5, 90749, Note_on_c, 3, 62, 0
5, 90750, Note_on_c, 3, 64, 90
5, 90779, Note_on_c, 3, 64, 0
5, 90780, Note_on_c, 3, 60, 90
5, 90809, Note_on_c, 3, 60, 0
5, 90810, Note_on_c, 3, 62, 90
5, 90839, Note_on_c, 3, 62, 0
5, 90840, Note_on_c, 3, 59, 90
5, 90869, Note_on_c, 3, 59, 0
5, 90870, Note_on_c, 3, 60, 90
5, 90899, Note_on_c, 3, 60, 0
5, 90900, Note_on_c, 3, 62, 90
5, 90929, Note_on_c, 3, 62, 0
5, 90930, Note_on_c, 3, 64, 90
5, 90959, Note_on_c, 3, 64, 0
5, 90960, Note_on_c, 3, 60, 90
5, 90989, Note_on_c, 3, 60, 0
5, 90990, Note_on_c, 3, 62, 90
5, 91019, Note_on_c, 3, 62, 0
5, 91020, Note_on_c, 3, 55, 90
5, 91049, Note_on_c, 3, 55, 0
5, 91050, Note_on_c, 3, 57, 90
5, 91079, Note_on_c, 3, 57, 0
5, 91080, Note_on_c, 3, 59, 90
5, 91109, Note_on_c, 3, 59, 0
5, 91110, Note_on_c, 3, 60, 90
5, 91139, Note_on_c, 3, 60, 0
5, 91140, Note_on_c, 3, 57, 90
5, 91169, Note_on_c, 3, 57, 0
5, 91170, Note_on_c, 3, 59, 90
5, 91199, Note_on_c, 3, 59, 0
5, 91200, Note_on_c, 3, 55, 90
5, 91229, Note_on_c, 3, 55, 0
5, 91230, Note_on_c, 3, 57, 90
5, 91259, Note_on_c, 3, 57, 0
5, 91260, Note_on_c, 3, 59, 90
5, 91289, Note_on_c, 3, 59, 0
5, 91290, Note_on_c, 3, 55, 90
5, 91319, Note_on_c, 3, 55, 0
5, 91320, Note_on_c, 3, 57, 90
5, 91349, Note_on_c, 3, 57, 0
5, 91350, Note_on_c, 3, 59, 90
5, 91379, Note_on_c, 3, 59, 0
5, 91380, Note_on_c, 3, 52, 90
5, 91409, Note_on_c, 3, 52, 0
5, 91410, Note_on_c, 3, 54, 90
5, 91439, Note_on_c, 3, 54, 0
5, 91440, Note_on_c, 3, 55, 90
5, 91469, Note_on_c, 3, 55, 0
5, 91470, Note_on_c, 3, 52, 90
5, 91499, Note_on_c, 3, 52, 0
5, 91500, Note_on_c, 3, 54, 90
5, 91529, Note_on_c, 3, 54, 0
5, 91530, Note_on_c, 3, 55, 90
5, 91559, Note_on_c, 3, 55, 0
5, 91560, Note_on_c, 3, 54, 90
5, 91619, Note_on_c, 3, 54, 0
5, 91620, Note_on_c, 3, 57, 90
5, 91679, Note_on_c, 3, 57, 0
5, 91680, Note_on_c, 3, 62, 90
5, 91739, Note_on_c, 3, 62, 0
5, 91740, Note_on_c, 3, 61, 90
5, 91799, Note_on_c, 3, 61, 0
5, 91800, Note_on_c, 3, 64, 90
5, 91859, Note_on_c, 3, 64, 0
5, 91860, Note_on_c, 3, 61, 90
5, 91919, Note_on_c, 3, 61, 0
5, 91920, Note_on_c, 3, 57, 90
5, 91979, Note_on_c, 3, 57, 0
5, 91980, Note_on_c, 3, 61, 90
5, 92039, Note_on_c, 3, 61, 0
5, 92040, Note_on_c, 3, 64, 90
5, 92099, Note_on_c, 3, 64, 0
5, 92100, Note_on_c, 3, 69, 90
5, 92520, Note_on_c, 3, 69, 0
5, 92520, Note_on_c, 3, 66, 90
5, 92579, Note_on_c, 3, 66, 0
5, 92580, Note_on_c, 3, 62, 90
5, 92639, Note_on_c, 3, 62, 0
5, 92640, Note_on_c, 3, 67, 90
5, 92699, Note_on_c, 3, 67, 0
5, 92700, Note_on_c, 3, 64, 90
5, 92759, Note_on_c, 3, 64, 0
5, 92760, Note_on_c, 3, 61, 90
5, 92819, Note_on_c, 3, 61, 0
5, 92820, Note_on_c, 3, 66, 90
5, 92879, Note_on_c, 3, 66, 0
5, 92880, Note_on_c, 3, 62, 90
5, 92939, Note_on_c, 3, 62, 0
5, 92940, Note_on_c, 3, 59, 90
5, 92999, Note_on_c, 3, 59, 0
5, 93000, Note_on_c, 3, 64, 90
5, 93059, Note_on_c, 3, 64, 0
5, 93060, Note_on_c, 3, 61, 90
5, 93119, Note_on_c, 3, 61, 0
5, 93120, Note_on_c, 3, 57, 90
5, 93179, Note_on_c, 3, 57, 0
5, 93180, Note_on_c, 3, 62, 90
5, 93239, Note_on_c, 3, 62, 0
5, 93240, Note_on_c, 3, 59, 90
5, 93299, Note_on_c, 3, 59, 0
5, 93300, Note_on_c, 3, 55, 90
5, 93359, Note_on_c, 3, 55, 0
5, 93360, Note_on_c, 3, 61, 90
5, 93389, Note_on_c, 3, 61, 0
5, 93390, Note_on_c, 3, 62, 90
5, 93419, Note_on_c, 3, 62, 0
5, 93420, Note_on_c, 3, 64, 90
5, 93479, Note_on_c, 3, 64, 0
5, 93480, Note_on_c, 3, 57, 90
5, 93539, Note_on_c, 3, 57, 0
5, 93540, Note_on_c, 3, 62, 90
5, 93569, Note_on_c, 3, 62, 0
5, 93570, Note_on_c, 3, 64, 90
5, 93599, Note_on_c, 3, 64, 0
5, 93600, Note_on_c, 3, 61, 90
5, 93689, Note_on_c, 3, 61, 0
5, 93690, Note_on_c, 3, 62, 90
5, 93719, Note_on_c, 3, 62, 0
5, 93720, Note_on_c, 3, 62, 90
5, 93779, Note_on_c, 3, 62, 0
5, 93780, Note_on_c, 3, 54, 90
5, 93809, Note_on_c, 3, 54, 0
5, 93810, Note_on_c, 3, 55, 90
5, 93839, Note_on_c, 3, 55, 0
5, 93840, Note_on_c, 3, 54, 90
5, 93899, Note_on_c, 3, 54, 0
5, 93900, Note_on_c, 3, 54, 90
5, 93959, Note_on_c, 3, 54, 0
5, 93960, Note_on_c, 3, 62, 90
5, 93989, Note_on_c, 3, 62, 0
5, 93990, Note_on_c, 3, 61, 90
5, 94019, Note_on_c, 3, 61, 0
5, 94020, Note_on_c, 3, 59, 90
5, 94049, Note_on_c, 3, 59, 0
5, 94050, Note_on_c, 3, 62, 90
5, 94079, Note_on_c, 3, 62, 0
5, 94080, Note_on_c, 3, 61, 90
5, 94139, Note_on_c, 3, 61, 0
5, 94140, Note_on_c, 3, 54, 90
5, 94169, Note_on_c, 3, 54, 0
5, 94170, Note_on_c, 3, 55, 90
5, 94199, Note_on_c, 3, 55, 0
5, 94200, Note_on_c, 3, 54, 90
5, 94260, Note_on_c, 3, 54, 0
5, 94260, Note_on_c, 3, 54, 90
5, 94320, Note_on_c, 3, 54, 0
5, 94320, Note_on_c, 3, 64, 90
5, 94350, Note_on_c, 3, 64, 0
5, 94350, Note_on_c, 3, 62, 90
5, 94380, Note_on_c, 3, 62, 0
5, 94380, Note_on_c, 3, 61, 90
5, 94410, Note_on_c, 3, 61, 0
5, 94410, Note_on_c, 3, 64, 90
5, 94440, Note_on_c, 3, 64, 0
5, 94440, Note_on_c, 3, 62, 90
5, 94470, Note_on_c, 3, 62, 0
5, 94470, Note_on_c, 3, 64, 90
5, 94500, Note_on_c, 3, 64, 0
5, 94500, Note_on_c, 3, 66, 90
5, 94530, Note_on_c, 3, 66, 0
5, 94530, Note_on_c, 3, 67, 90
5, 94560, Note_on_c, 3, 67, 0
5, 94560, Note_on_c, 3, 64, 90
5, 94590, Note_on_c, 3, 64, 0
5, 94590, Note_on_c, 3, 66, 90
5, 94620, Note_on_c, 3, 66, 0
5, 94620, Note_on_c, 3, 62, 90
5, 94650, Note_on_c, 3, 62, 0
5, 94650, Note_on_c, 3, 64, 90
5, 94680, Note_on_c, 3, 64, 0
5, 94680, Note_on_c, 3, 66, 90
5, 94710, Note_on_c, 3, 66, 0
5, 94710, Note_on_c, 3, 67, 90
5, 94740, Note_on_c, 3, 67, 0
5, 94740, Note_on_c, 3, 64, 90
5, 94770, Note_on_c, 3, 64, 0
5, 94770, Note_on_c, 3, 66, 90
5, 94800, Note_on_c, 3, 66, 0
5, 94800, Note_on_c, 3, 62, 90
5, 94830, Note_on_c, 3, 62, 0
5, 94830, Note_on_c, 3, 61, 90
5, 94860, Note_on_c, 3, 61, 0
5, 94860, Note_on_c, 3, 59, 90
5, 94890, Note_on_c, 3, 59, 0
5, 94890, Note_on_c, 3, 57, 90
5, 94920, Note_on_c, 3, 57, 0
5, 94920, Note_on_c, 3, 56, 90
5, 94950, Note_on_c, 3, 56, 0
5, 94950, Note_on_c, 3, 54, 90
5, 94980, Note_on_c, 3, 54, 0
5, 94980, Note_on_c, 3, 56, 90
5, 95039, Note_on_c, 3, 56, 0
5, 95040, Note_on_c, 3, 61, 90
5, 95099, Note_on_c, 3, 61, 0
5, 95100, Note_on_c, 3, 56, 90
5, 95159, Note_on_c, 3, 56, 0
5, 95160, Note_on_c, 3, 57, 90
5, 95219, Note_on_c, 3, 57, 0
5, 95220, Note_on_c, 3, 62, 90
5, 95279, Note_on_c, 3, 62, 0
5, 95280, Note_on_c, 3, 57, 90
5, 95339, Note_on_c, 3, 57, 0
5, 95340, Note_on_c, 3, 59, 90
5, 95399, Note_on_c, 3, 59, 0
5, 95400, Note_on_c, 3, 71, 90
5, 95519, Note_on_c, 3, 71, 0
5, 95550, Note_on_c, 3, 69, 90
5, 95579, Note_on_c, 3, 69, 0
5, 95580, Note_on_c, 3, 68, 90
5, 95609, Note_on_c, 3, 68, 0
5, 95610, Note_on_c, 3, 66, 90
5, 95639, Note_on_c, 3, 66, 0
5, 95640, Note_on_c, 3, 68, 90
5, 95759, Note_on_c, 3, 68, 0
5, 95760, Note_on_c, 3, 66, 90
5, 95819, Note_on_c, 3, 66, 0
5, 95820, Note_on_c, 3, 65, 90
5, 95879, Note_on_c, 3, 65, 0
5, 95880, Note_on_c, 3, 66, 90
5, 95939, Note_on_c, 3, 66, 0
5, 95940, Note_on_c, 3, 61, 90
5, 95999, Note_on_c, 3, 61, 0
5, 96000, Note_on_c, 3, 65, 90
5, 96000, Note_on_c, 3, 68, 90
5, 96059, Note_on_c, 3, 68, 0
5, 96059, Note_on_c, 3, 65, 0
5, 96060, Note_on_c, 3, 66, 90
5, 96060, Note_on_c, 3, 69, 90
5, 96240, Note_on_c, 3, 66, 0
5, 96240, Note_on_c, 3, 62, 90
5, 96419, Note_on_c, 3, 69, 0
5, 96420, Note_on_c, 3, 68, 90
5, 96599, Note_on_c, 3, 62, 0
5, 96600, Note_on_c, 3, 61, 90
5, 96779, Note_on_c, 3, 68, 0
5, 96780, Note_on_c, 3, 66, 90
5, 96959, Note_on_c, 3, 61, 0
5, 96960, Note_on_c, 3, 59, 90
5, 97139, Note_on_c, 3, 66, 0
5, 97140, Note_on_c, 3, 65, 90
5, 97170, Note_on_c, 3, 59, 0
5, 97170, Note_on_c, 3, 61, 90
5, 97199, Note_on_c, 3, 61, 0
5, 97200, Note_on_c, 3, 65, 0
5, 97200, Note_on_c, 3, 62, 90
5, 97229, Note_on_c, 3, 62, 0
5, 97230, Note_on_c, 3, 64, 90
5, 97259, Note_on_c, 3, 64, 0
5, 97260, Note_on_c, 3, 61, 90
5, 97289, Note_on_c, 3, 61, 0
5, 97290, Note_on_c, 3, 62, 90
5, 97319, Note_on_c, 3, 62, 0
5, 97320, Note_on_c, 3, 59, 90
5, 97349, Note_on_c, 3, 59, 0
5, 97350, Note_on_c, 3, 61, 90
5, 97379, Note_on_c, 3, 61, 0
5, 97380, Note_on_c, 3, 62, 90
5, 97409, Note_on_c, 3, 62, 0
5, 97410, Note_on_c, 3, 59, 90
5, 97439, Note_on_c, 3, 59, 0
5, 97440, Note_on_c, 3, 61, 90
5, 97469, Note_on_c, 3, 61, 0
5, 97470, Note_on_c, 3, 62, 90
5, 97499, Note_on_c, 3, 62, 0
5, 97500, Note_on_c, 3, 56, 90
5, 97529, Note_on_c, 3, 56, 0
5, 97530, Note_on_c, 3, 57, 90
5, 97559, Note_on_c, 3, 57, 0
5, 97560, Note_on_c, 3, 59, 90
5, 97589, Note_on_c, 3, 59, 0
5, 97590, Note_on_c, 3, 61, 90
5, 97619, Note_on_c, 3, 61, 0
5, 97620, Note_on_c, 3, 57, 90
5, 97649, Note_on_c, 3, 57, 0
5, 97650, Note_on_c, 3, 59, 90
5, 97679, Note_on_c, 3, 59, 0
5, 97680, Note_on_c, 3, 56, 90
5, 97709, Note_on_c, 3, 56, 0
5, 97710, Note_on_c, 3, 57, 90
5, 97739, Note_on_c, 3, 57, 0
5, 97740, Note_on_c, 3, 59, 90
5, 97769, Note_on_c, 3, 59, 0
5, 97770, Note_on_c, 3, 56, 90
5, 97799, Note_on_c, 3, 56, 0
5, 97800, Note_on_c, 3, 57, 90
5, 97829, Note_on_c, 3, 57, 0
5, 97830, Note_on_c, 3, 59, 90
5, 97859, Note_on_c, 3, 59, 0
5, 97860, Note_on_c, 3, 53, 90
5, 97919, Note_on_c, 3, 53, 0
5, 97920, Note_on_c, 3, 51, 90
5, 97949, Note_on_c, 3, 51, 0
5, 97950, Note_on_c, 3, 53, 90
5, 97979, Note_on_c, 3, 53, 0
5, 97980, Note_on_c, 3, 49, 90
5, 98039, Note_on_c, 3, 49, 0
5, 98040, Note_on_c, 3, 49, 90
5, 98099, Note_on_c, 3, 49, 0
5, 98100, Note_on_c, 3, 57, 90
5, 98129, Note_on_c, 3, 57, 0
5, 98130, Note_on_c, 3, 56, 90
5, 98159, Note_on_c, 3, 56, 0
5, 98160, Note_on_c, 3, 54, 90
5, 98189, Note_on_c, 3, 54, 0
5, 98190, Note_on_c, 3, 57, 90
5, 98219, Note_on_c, 3, 57, 0
5, 98220, Note_on_c, 3, 51, 90
5, 98279, Note_on_c, 3, 51, 0
5, 98280, Note_on_c, 3, 49, 90
5, 98309, Note_on_c, 3, 49, 0
5, 98310, Note_on_c, 3, 51, 90
5, 98339, Note_on_c, 3, 51, 0
5, 98340, Note_on_c, 3, 47, 90
5, 98399, Note_on_c, 3, 47, 0
5, 98400, Note_on_c, 3, 47, 90
5, 98459, Note_on_c, 3, 47, 0
5, 98460, Note_on_c, 3, 59, 90
5, 98489, Note_on_c, 3, 59, 0
5, 98490, Note_on_c, 3, 57, 90
5, 98519, Note_on_c, 3, 57, 0
5, 98520, Note_on_c, 3, 56, 90
5, 98549, Note_on_c, 3, 56, 0
5, 98550, Note_on_c, 3, 59, 90
5, 98579, Note_on_c, 3, 59, 0
5, 98580, Note_on_c, 3, 53, 90
5, 98609, Note_on_c, 3, 53, 0
5, 98610, Note_on_c, 3, 54, 90
5, 98639, Note_on_c, 3, 54, 0
5, 98640, Note_on_c, 3, 56, 90
5, 98669, Note_on_c, 3, 56, 0
5, 98670, Note_on_c, 3, 53, 90
5, 98699, Note_on_c, 3, 53, 0
5, 98700, Note_on_c, 3, 54, 90
5, 98729, Note_on_c, 3, 54, 0
5, 98730, Note_on_c, 3, 53, 90
5, 98759, Note_on_c, 3, 53, 0
5, 98760, Note_on_c, 3, 54, 90
5, 98789, Note_on_c, 3, 54, 0
5, 98790, Note_on_c, 3, 56, 90
5, 98819, Note_on_c, 3, 56, 0
5, 98820, Note_on_c, 3, 53, 90
5, 98909, Note_on_c, 3, 53, 0
5, 98910, Note_on_c, 3, 54, 90
5, 98939, Note_on_c, 3, 54, 0
5, 98940, Note_on_c, 3, 54, 90
5, 99059, Note_on_c, 3, 54, 0
5, 99180, Note_on_c, 3, 56, 90
5, 99239, Note_on_c, 3, 56, 0
5, 99240, Note_on_c, 3, 44, 90
5, 99299, Note_on_c, 3, 44, 0
5, 99300, Note_on_c, 3, 49, 90
5, 99419, Note_on_c, 3, 49, 0
5, 99540, Note_on_c, 3, 54, 90
5, 99599, Note_on_c, 3, 54, 0
5, 99600, Note_on_c, 3, 42, 90
5, 99659, Note_on_c, 3, 42, 0
5, 99660, Note_on_c, 3, 47, 90
5, 99779, Note_on_c, 3, 47, 0
5, 99900, Note_on_c, 3, 61, 90
5, 99959, Note_on_c, 3, 61, 0
5, 99960, Note_on_c, 3, 49, 90
5, 100019, Note_on_c, 3, 49, 0
5, 100020, Note_on_c, 3, 54, 90
5, 100139, Note_on_c, 3, 54, 0
5, 100260, Note_on_c, 3, 59, 90
5, 100319, Note_on_c, 3, 59, 0
5, 100320, Note_on_c, 3, 47, 90
5, 100379, Note_on_c, 3, 47, 0
5, 100380, Note_on_c, 3, 52, 90
5, 100499, Note_on_c, 3, 52, 0
5, 100620, Note_on_c, 3, 49, 90
5, 100679, Note_on_c, 3, 49, 0
5, 100680, Note_on_c, 3, 61, 90
5, 100739, Note_on_c, 3, 61, 0
5, 100740, Note_on_c, 3, 62, 90
5, 100859, Note_on_c, 3, 62, 0
5, 100980, Note_on_c, 3, 47, 90
5, 101039, Note_on_c, 3, 47, 0
5, 101040, Note_on_c, 3, 59, 90
5, 101099, Note_on_c, 3, 59, 0
5, 101100, Note_on_c, 3, 60, 90
5, 101219, Note_on_c, 3, 60, 0
5, 101340, Note_on_c, 3, 46, 90
5, 101399, Note_on_c, 3, 46, 0
5, 101400, Note_on_c, 3, 58, 90
5, 101459, Note_on_c, 3, 58, 0
5, 101460, Note_on_c, 3, 59, 90
5, 101579, Note_on_c, 3, 59, 0
5, 101700, Note_on_c, 3, 59, 90
5, 101759, Note_on_c, 3, 59, 0
5, 101760, Note_on_c, 3, 47, 90
5, 101819, Note_on_c, 3, 47, 0
5, 101820, Note_on_c, 3, 35, 90
5, 101939, Note_on_c, 3, 35, 0
5, 102060, Note_on_c, 3, 64, 90
5, 102119, Note_on_c, 3, 64, 0
5, 102120, Note_on_c, 3, 52, 90
5, 102179, Note_on_c, 3, 52, 0
5, 102180, Note_on_c, 3, 40, 90
5, 102299, Note_on_c, 3, 40, 0
5, 102420, Note_on_c, 3, 64, 90
5, 102479, Note_on_c, 3, 64, 0
5, 102480, Note_on_c, 3, 52, 90
5, 102539, Note_on_c, 3, 52, 0
5, 102540, Note_on_c, 3, 40, 90
5, 102659, Note_on_c, 3, 40, 0
5, 102780, Note_on_c, 3, 64, 90
5, 102839, Note_on_c, 3, 64, 0
5, 102840, Note_on_c, 3, 52, 90
5, 102899, Note_on_c, 3, 52, 0
5, 102900, Note_on_c, 3, 40, 90
5, 102959, Note_on_c, 3, 40, 0
5, 102960, Note_on_c, 3, 64, 90
5, 103019, Note_on_c, 3, 64, 0
5, 103020, Note_on_c, 3, 52, 90
5, 103079, Note_on_c, 3, 52, 0
5, 103080, Note_on_c, 3, 44, 90
5, 103139, Note_on_c, 3, 44, 0
5, 103140, Note_on_c, 3, 56, 90
5, 103199, Note_on_c, 3, 56, 0
5, 103200, Note_on_c, 3, 44, 90
5, 103259, Note_on_c, 3, 44, 0
5, 103260, Note_on_c, 3, 36, 90
5, 103319, Note_on_c, 3, 36, 0
5, 103320, Note_on_c, 3, 48, 90
5, 103379, Note_on_c, 3, 48, 0
5, 103380, Note_on_c, 3, 53, 90
5, 103439, Note_on_c, 3, 53, 0
5, 103440, Note_on_c, 3, 51, 90
5, 103499, Note_on_c, 3, 51, 0
5, 103500, Note_on_c, 3, 52, 90
5, 103559, Note_on_c, 3, 52, 0
5, 103560, Note_on_c, 3, 40, 90
5, 103619, Note_on_c, 3, 40, 0
5, 103620, Note_on_c, 3, 45, 90
5, 103679, Note_on_c, 3, 45, 0
5, 103680, Note_on_c, 3, 52, 90
5, 103709, Note_on_c, 3, 52, 0
5, 103710, Note_on_c, 3, 54, 90
5, 103739, Note_on_c, 3, 54, 0
5, 103740, Note_on_c, 3, 52, 90
5, 103800, Note_on_c, 3, 52, 0
5, 103800, Note_on_c, 3, 52, 90
5, 103860, Note_on_c, 3, 52, 0
5, 103860, Note_on_c, 3, 61, 90
5, 103889, Note_on_c, 3, 61, 0
5, 103890, Note_on_c, 3, 59, 90
5, 103919, Note_on_c, 3, 59, 0
5, 103920, Note_on_c, 3, 57, 90
5, 103949, Note_on_c, 3, 57, 0
5, 103950, Note_on_c, 3, 61, 90
5, 103979, Note_on_c, 3, 61, 0
5, 103980, Note_on_c, 3, 59, 90
5, 104039, Note_on_c, 3, 59, 0
5, 104040, Note_on_c, 3, 52, 90
5, 104069, Note_on_c, 3, 52, 0
5, 104070, Note_on_c, 3, 54, 90
5, 104099, Note_on_c, 3, 54, 0
5, 104100, Note_on_c, 3, 52, 90
5, 104159, Note_on_c, 3, 52, 0
5, 104160, Note_on_c, 3, 52, 90
5, 104219, Note_on_c, 3, 52, 0
5, 104220, Note_on_c, 3, 62, 90
5, 104249, Note_on_c, 3, 62, 0
5, 104250, Note_on_c, 3, 61, 90
5, 104279, Note_on_c, 3, 61, 0
5, 104280, Note_on_c, 3, 59, 90
5, 104309, Note_on_c, 3, 59, 0
5, 104310, Note_on_c, 3, 62, 90
5, 104339, Note_on_c, 3, 62, 0
5, 104340, Note_on_c, 3, 61, 90
5, 104369, Note_on_c, 3, 61, 0
5, 104370, Note_on_c, 3, 64, 90
5, 104399, Note_on_c, 3, 64, 0
5, 104400, Note_on_c, 3, 61, 90
5, 104429, Note_on_c, 3, 61, 0
5, 104430, Note_on_c, 3, 57, 90
5, 104459, Note_on_c, 3, 57, 0
5, 104460, Note_on_c, 3, 55, 90
5, 104489, Note_on_c, 3, 55, 0
5, 104490, Note_on_c, 3, 54, 90
5, 104519, Note_on_c, 3, 54, 0
5, 104520, Note_on_c, 3, 55, 90
5, 104549, Note_on_c, 3, 55, 0
5, 104550, Note_on_c, 3, 64, 90
5, 104579, Note_on_c, 3, 64, 0
5, 104580, Note_on_c, 3, 61, 90
5, 104609, Note_on_c, 3, 61, 0
5, 104610, Note_on_c, 3, 57, 90
5, 104639, Note_on_c, 3, 57, 0
5, 104640, Note_on_c, 3, 55, 90
5, 104669, Note_on_c, 3, 55, 0
5, 104670, Note_on_c, 3, 54, 90
5, 104699, Note_on_c, 3, 54, 0
5, 104700, Note_on_c, 3, 55, 90
5, 104729, Note_on_c, 3, 55, 0
5, 104730, Note_on_c, 3, 57, 90
5, 104759, Note_on_c, 3, 57, 0
5, 104760, Note_on_c, 3, 57, 90
5, 104789, Note_on_c, 3, 57, 0
5, 104790, Note_on_c, 3, 61, 90
5, 104819, Note_on_c, 3, 61, 0
5, 104820, Note_on_c, 3, 61, 90
5, 104849, Note_on_c, 3, 61, 0
5, 104850, Note_on_c, 3, 64, 90
5, 104879, Note_on_c, 3, 64, 0
5, 104880, Note_on_c, 3, 64, 90
5, 104909, Note_on_c, 3, 64, 0
5, 104910, Note_on_c, 3, 67, 90
5, 104924, Note_on_c, 3, 67, 0
5, 104925, Note_on_c, 3, 66, 90
5, 104939, Note_on_c, 3, 66, 0
5, 104940, Note_on_c, 3, 67, 90
5, 104969, Note_on_c, 3, 67, 0
5, 104970, Note_on_c, 3, 64, 90
5, 104999, Note_on_c, 3, 64, 0
5, 105000, Note_on_c, 3, 61, 90
5, 105029, Note_on_c, 3, 61, 0
5, 105030, Note_on_c, 3, 57, 90
5, 105059, Note_on_c, 3, 57, 0
5, 105060, Note_on_c, 3, 66, 90
5, 105089, Note_on_c, 3, 66, 0
5, 105090, Note_on_c, 3, 69, 90
5, 105119, Note_on_c, 3, 69, 0
5, 105120, Note_on_c, 3, 66, 90
5, 105149, Note_on_c, 3, 66, 0
5, 105150, Note_on_c, 3, 62, 90
5, 105179, Note_on_c, 3, 62, 0
5, 105180, Note_on_c, 3, 60, 90
5, 105209, Note_on_c, 3, 60, 0
5, 105210, Note_on_c, 3, 59, 90
5, 105239, Note_on_c, 3, 59, 0
5, 105240, Note_on_c, 3, 60, 90
5, 105269, Note_on_c, 3, 60, 0
5, 105270, Note_on_c, 3, 69, 90
5, 105299, Note_on_c, 3, 69, 0
5, 105300, Note_on_c, 3, 66, 90
5, 105329, Note_on_c, 3, 66, 0
5, 105330, Note_on_c, 3, 62, 90
5, 105359, Note_on_c, 3, 62, 0
5, 105360, Note_on_c, 3, 60, 90
5, 105389, Note_on_c, 3, 60, 0
5, 105390, Note_on_c, 3, 59, 90
5, 105419, Note_on_c, 3, 59, 0
5, 105420, Note_on_c, 3, 60, 90
5, 105449, Note_on_c, 3, 60, 0
5, 105450, Note_on_c, 3, 62, 90
5, 105479, Note_on_c, 3, 62, 0
5, 105480, Note_on_c, 3, 62, 90
5, 105509, Note_on_c, 3, 62, 0
5, 105510, Note_on_c, 3, 66, 90
5, 105539, Note_on_c, 3, 66, 0
5, 105540, Note_on_c, 3, 66, 90
5, 105569, Note_on_c, 3, 66, 0
5, 105570, Note_on_c, 3, 69, 90
5, 105599, Note_on_c, 3, 69, 0
5, 105600, Note_on_c, 3, 69, 90
5, 105629, Note_on_c, 3, 69, 0
5, 105630, Note_on_c, 3, 72, 90
5, 105644, Note_on_c, 3, 72, 0
5, 105645, Note_on_c, 3, 71, 90
5, 105659, Note_on_c, 3, 71, 0
5, 105660, Note_on_c, 3, 72, 90
5, 105689, Note_on_c, 3, 72, 0
5, 105690, Note_on_c, 3, 69, 90
5, 105719, Note_on_c, 3, 69, 0
5, 105720, Note_on_c, 3, 66, 90
5, 105749, Note_on_c, 3, 66, 0
5, 105750, Note_on_c, 3, 62, 90
5, 105779, Note_on_c, 3, 62, 0
5, 105780, Note_on_c, 3, 71, 90
5, 105809, Note_on_c, 3, 71, 0
5, 105810, Note_on_c, 3, 66, 90
5, 105839, Note_on_c, 3, 66, 0
5, 105840, Note_on_c, 3, 63, 90
5, 105869, Note_on_c, 3, 63, 0
5, 105870, Note_on_c, 3, 59, 90
5, 105899, Note_on_c, 3, 59, 0
5, 105900, Note_on_c, 3, 57, 90
5, 105929, Note_on_c, 3, 57, 0
5, 105930, Note_on_c, 3, 55, 90
5, 105959, Note_on_c, 3, 55, 0
5, 105960, Note_on_c, 3, 57, 90
5, 105989, Note_on_c, 3, 57, 0
5, 105990, Note_on_c, 3, 66, 90
5, 106019, Note_on_c, 3, 66, 0
5, 106020, Note_on_c, 3, 63, 90
5, 106049, Note_on_c, 3, 63, 0
5, 106050, Note_on_c, 3, 59, 90
5, 106079, Note_on_c, 3, 59, 0
5, 106080, Note_on_c, 3, 57, 90
5, 106109, Note_on_c, 3, 57, 0
5, 106110, Note_on_c, 3, 55, 90
5, 106139, Note_on_c, 3, 55, 0
5, 106140, Note_on_c, 3, 57, 90
5, 106169, Note_on_c, 3, 57, 0
5, 106170, Note_on_c, 3, 59, 90
5, 106199, Note_on_c, 3, 59, 0
5, 106200, Note_on_c, 3, 59, 90
5, 106229, Note_on_c, 3, 59, 0
5, 106230, Note_on_c, 3, 63, 90
5, 106259, Note_on_c, 3, 63, 0
5, 106260, Note_on_c, 3, 63, 90
5, 106289, Note_on_c, 3, 63, 0
5, 106290, Note_on_c, 3, 66, 90
5, 106319, Note_on_c, 3, 66, 0
5, 106320, Note_on_c, 3, 66, 90
5, 106349, Note_on_c, 3, 66, 0
5, 106350, Note_on_c, 3, 69, 90
5, 106364, Note_on_c, 3, 69, 0
5, 106365, Note_on_c, 3, 67, 90
5, 106379, Note_on_c, 3, 67, 0
5, 106380, Note_on_c, 3, 69, 90
5, 106409, Note_on_c, 3, 69, 0
5, 106410, Note_on_c, 3, 66, 90
5, 106439, Note_on_c, 3, 66, 0
5, 106440, Note_on_c, 3, 63, 90
5, 106469, Note_on_c, 3, 63, 0
5, 106470, Note_on_c, 3, 59, 90
5, 106499, Note_on_c, 3, 59, 0
5, 106500, Note_on_c, 3, 52, 90
5, 106529, Note_on_c, 3, 52, 0
5, 106530, Note_on_c, 3, 59, 90
5, 106559, Note_on_c, 3, 59, 0
5, 106560, Note_on_c, 3, 64, 90
5, 106589, Note_on_c, 3, 64, 0
5, 106590, Note_on_c, 3, 67, 90
5, 106619, Note_on_c, 3, 67, 0
5, 106620, Note_on_c, 3, 58, 90
5, 106649, Note_on_c, 3, 58, 0
5, 106650, Note_on_c, 3, 59, 90
5, 106679, Note_on_c, 3, 59, 0
5, 106680, Note_on_c, 3, 50, 90
5, 106709, Note_on_c, 3, 50, 0
5, 106710, Note_on_c, 3, 59, 90
5, 106739, Note_on_c, 3, 59, 0
5, 106740, Note_on_c, 3, 62, 90
5, 106769, Note_on_c, 3, 62, 0
5, 106770, Note_on_c, 3, 66, 90
5, 106799, Note_on_c, 3, 66, 0
5, 106800, Note_on_c, 3, 58, 90
5, 106829, Note_on_c, 3, 58, 0
5, 106830, Note_on_c, 3, 59, 90
5, 106859, Note_on_c, 3, 59, 0
5, 106860, Note_on_c, 3, 49, 90
5, 106889, Note_on_c, 3, 49, 0
5, 106890, Note_on_c, 3, 59, 90
5, 106919, Note_on_c, 3, 59, 0
5, 106920, Note_on_c, 3, 61, 90
5, 106949, Note_on_c, 3, 61, 0
5, 106950, Note_on_c, 3, 64, 90
5, 106979, Note_on_c, 3, 64, 0
5, 106980, Note_on_c, 3, 58, 90
5, 107009, Note_on_c, 3, 58, 0
5, 107010, Note_on_c, 3, 59, 90
5, 107039, Note_on_c, 3, 59, 0
5, 107040, Note_on_c, 3, 54, 90
5, 107069, Note_on_c, 3, 54, 0
5, 107070, Note_on_c, 3, 55, 90
5, 107084, Note_on_c, 3, 55, 0
5, 107085, Note_on_c, 3, 54, 90
5, 107099, Note_on_c, 3, 54, 0
5, 107100, Note_on_c, 3, 52, 90
5, 107129, Note_on_c, 3, 52, 0
5, 107130, Note_on_c, 3, 50, 90
5, 107159, Note_on_c, 3, 50, 0
5, 107160, Note_on_c, 3, 49, 90
5, 107189, Note_on_c, 3, 49, 0
5, 107190, Note_on_c, 3, 52, 90
5, 107219, Note_on_c, 3, 52, 0
5, 107220, Note_on_c, 3, 50, 90
5, 107249, Note_on_c, 3, 50, 0
5, 107250, Note_on_c, 3, 47, 90
5, 107264, Note_on_c, 3, 47, 0
5, 107265, Note_on_c, 3, 49, 90
5, 107279, Note_on_c, 3, 49, 0
5, 107280, Note_on_c, 3, 50, 90
5, 107309, Note_on_c, 3, 50, 0
5, 107310, Note_on_c, 3, 52, 90
5, 107339, Note_on_c, 3, 52, 0
5, 107340, Note_on_c, 3, 54, 90
5, 107369, Note_on_c, 3, 54, 0
5, 107370, Note_on_c, 3, 55, 90
5, 107399, Note_on_c, 3, 55, 0
5, 107400, Note_on_c, 3, 57, 90
5, 107429, Note_on_c, 3, 57, 0
5, 107430, Note_on_c, 3, 59, 90
5, 107459, Note_on_c, 3, 59, 0
5, 107460, Note_on_c, 3, 60, 90
5, 107489, Note_on_c, 3, 60, 0
5, 107490, Note_on_c, 3, 57, 90
5, 107519, Note_on_c, 3, 57, 0
5, 107520, Note_on_c, 3, 54, 90
5, 107549, Note_on_c, 3, 54, 0
5, 107550, Note_on_c, 3, 55, 90
5, 107579, Note_on_c, 3, 55, 0
5, 107580, Note_on_c, 3, 59, 90
5, 107609, Note_on_c, 3, 59, 0
5, 107610, Note_on_c, 3, 59, 90
5, 107624, Note_on_c, 3, 59, 0
5, 107625, Note_on_c, 3, 60, 90
5, 107639, Note_on_c, 3, 60, 0
5, 107640, Note_on_c, 3, 62, 90
5, 107669, Note_on_c, 3, 62, 0
5, 107670, Note_on_c, 3, 59, 90
5, 107699, Note_on_c, 3, 59, 0
5, 107700, Note_on_c, 3, 54, 90
5, 107729, Note_on_c, 3, 54, 0
5, 107730, Note_on_c, 3, 55, 90
5, 107759, Note_on_c, 3, 55, 0
5, 107760, Note_on_c, 3, 60, 90
5, 107789, Note_on_c, 3, 60, 0
5, 107790, Note_on_c, 3, 60, 90
5, 107804, Note_on_c, 3, 60, 0
5, 107805, Note_on_c, 3, 62, 90
5, 107819, Note_on_c, 3, 62, 0
5, 107820, Note_on_c, 3, 64, 90
5, 107849, Note_on_c, 3, 64, 0
5, 107850, Note_on_c, 3, 57, 90
5, 107864, Note_on_c, 3, 57, 0
5, 107865, Note_on_c, 3, 59, 90
5, 107879, Note_on_c, 3, 59, 0
5, 107880, Note_on_c, 3, 60, 90
5, 107909, Note_on_c, 3, 60, 0
5, 107910, Note_on_c, 3, 57, 90
5, 107939, Note_on_c, 3, 57, 0
5, 107940, Note_on_c, 3, 66, 90
5, 107969, Note_on_c, 3, 66, 0
5, 107970, Note_on_c, 3, 60, 90
5, 107984, Note_on_c, 3, 60, 0
5, 107985, Note_on_c, 3, 62, 90
5, 107999, Note_on_c, 3, 62, 0
5, 108000, Note_on_c, 3, 63, 90
5, 108029, Note_on_c, 3, 63, 0
5, 108030, Note_on_c, 3, 57, 90
5, 108044, Note_on_c, 3, 57, 0
5, 108045, Note_on_c, 3, 59, 90
5, 108059, Note_on_c, 3, 59, 0
5, 108060, Note_on_c, 3, 60, 90
5, 108089, Note_on_c, 3, 60, 0
5, 108090, Note_on_c, 3, 57, 90
5, 108119, Note_on_c, 3, 57, 0
5, 108120, Note_on_c, 3, 67, 90
5, 108149, Note_on_c, 3, 67, 0
5, 108150, Note_on_c, 3, 60, 90
5, 108164, Note_on_c, 3, 60, 0
5, 108165, Note_on_c, 3, 62, 90
5, 108179, Note_on_c, 3, 62, 0
5, 108180, Note_on_c, 3, 63, 90
5, 108209, Note_on_c, 3, 63, 0
5, 108210, Note_on_c, 3, 57, 90
5, 108224, Note_on_c, 3, 57, 0
5, 108225, Note_on_c, 3, 59, 90
5, 108239, Note_on_c, 3, 59, 0
5, 108240, Note_on_c, 3, 60, 90
5, 108269, Note_on_c, 3, 60, 0
5, 108270, Note_on_c, 3, 57, 90
5, 108299, Note_on_c, 3, 57, 0
5, 108300, Note_on_c, 3, 69, 90
5, 108329, Note_on_c, 3, 69, 0
5, 108330, Note_on_c, 3, 69, 90
5, 108344, Note_on_c, 3, 69, 0
5, 108345, Note_on_c, 3, 67, 90
5, 108359, Note_on_c, 3, 67, 0
5, 108360, Note_on_c, 3, 66, 90
5, 108389, Note_on_c, 3, 66, 0
5, 108390, Note_on_c, 3, 66, 90
5, 108404, Note_on_c, 3, 66, 0
5, 108405, Note_on_c, 3, 64, 90
5, 108419, Note_on_c, 3, 64, 0
5, 108420, Note_on_c, 3, 62, 90
5, 108449, Note_on_c, 3, 62, 0
5, 108450, Note_on_c, 3, 62, 90
5, 108464, Note_on_c, 3, 62, 0
5, 108465, Note_on_c, 3, 60, 90
5, 108479, Note_on_c, 3, 60, 0
5, 108480, Note_on_c, 3, 59, 90
5, 108509, Note_on_c, 3, 59, 0
5, 108510, Note_on_c, 3, 59, 90
5, 108524, Note_on_c, 3, 59, 0
5, 108525, Note_on_c, 3, 60, 90
5, 108539, Note_on_c, 3, 60, 0
5, 108540, Note_on_c, 3, 62, 90
5, 108569, Note_on_c, 3, 62, 0
5, 108570, Note_on_c, 3, 55, 90
5, 108599, Note_on_c, 3, 55, 0
5, 108600, Note_on_c, 3, 52, 90
5, 108629, Note_on_c, 3, 52, 0
5, 108630, Note_on_c, 3, 54, 90
5, 108659, Note_on_c, 3, 54, 0
5, 108660, Note_on_c, 3, 43, 90
5, 108719, Note_on_c, 3, 43, 0
5, 108720, Note_on_c, 3, 55, 90
5, 108779, Note_on_c, 3, 55, 0
5, 108780, Note_on_c, 3, 57, 90
5, 108839, Note_on_c, 3, 57, 0
5, 108840, Note_on_c, 3, 59, 90
5, 108959, Note_on_c, 3, 59, 0
5, 109020, Note_on_c, 3, 50, 90
5, 109079, Note_on_c, 3, 50, 0
5, 109080, Note_on_c, 3, 57, 90
5, 109139, Note_on_c, 3, 57, 0
5, 109140, Note_on_c, 3, 59, 90
5, 109199, Note_on_c, 3, 59, 0
5, 109200, Note_on_c, 3, 60, 90
5, 109319, Note_on_c, 3, 60, 0
5, 109380, Note_on_c, 3, 55, 90
5, 109409, Note_on_c, 3, 55, 0
5, 109410, Note_on_c, 3, 57, 90
5, 109439, Note_on_c, 3, 57, 0
5, 109440, Note_on_c, 3, 59, 90
5, 109469, Note_on_c, 3, 59, 0
5, 109470, Note_on_c, 3, 60, 90
5, 109499, Note_on_c, 3, 60, 0
5, 109500, Note_on_c, 3, 57, 90
5, 109529, Note_on_c, 3, 57, 0
5, 109530, Note_on_c, 3, 59, 90
5, 109559, Note_on_c, 3, 59, 0
5, 109560, Note_on_c, 3, 55, 90
5, 109589, Note_on_c, 3, 55, 0
5, 109590, Note_on_c, 3, 57, 90
5, 109619, Note_on_c, 3, 57, 0
5, 109620, Note_on_c, 3, 59, 90
5, 109649, Note_on_c, 3, 59, 0
5, 109650, Note_on_c, 3, 60, 90
5, 109679, Note_on_c, 3, 60, 0
5, 109680, Note_on_c, 3, 57, 90
5, 109709, Note_on_c, 3, 57, 0
5, 109710, Note_on_c, 3, 59, 90
5, 109739, Note_on_c, 3, 59, 0
5, 109740, Note_on_c, 3, 55, 90
5, 109769, Note_on_c, 3, 55, 0
5, 109770, Note_on_c, 3, 57, 90
5, 109799, Note_on_c, 3, 57, 0
5, 109800, Note_on_c, 3, 59, 90
5, 109829, Note_on_c, 3, 59, 0
5, 109830, Note_on_c, 3, 57, 90
5, 109859, Note_on_c, 3, 57, 0
5, 109860, Note_on_c, 3, 55, 90
5, 109889, Note_on_c, 3, 55, 0
5, 109890, Note_on_c, 3, 54, 90
5, 109919, Note_on_c, 3, 54, 0
5, 109920, Note_on_c, 3, 52, 90
5, 109979, Note_on_c, 3, 52, 0
5, 110160, Note_on_c, 3, 57, 90
5, 110189, Note_on_c, 3, 57, 0
5, 110190, Note_on_c, 3, 59, 90
5, 110219, Note_on_c, 3, 59, 0
5, 110220, Note_on_c, 3, 57, 90
5, 110279, Note_on_c, 3, 57, 0
5, 110280, Note_on_c, 3, 57, 90
5, 110339, Note_on_c, 3, 57, 0
5, 110340, Note_on_c, 3, 66, 90
5, 110369, Note_on_c, 3, 66, 0
5, 110370, Note_on_c, 3, 64, 90
5, 110399, Note_on_c, 3, 64, 0
5, 110400, Note_on_c, 3, 62, 90
5, 110429, Note_on_c, 3, 62, 0
5, 110430, Note_on_c, 3, 66, 90
5, 110459, Note_on_c, 3, 66, 0
5, 110460, Note_on_c, 3, 64, 90
5, 110519, Note_on_c, 3, 64, 0
5, 110520, Note_on_c, 3, 57, 90
5, 110549, Note_on_c, 3, 57, 0
5, 110550, Note_on_c, 3, 59, 90
5, 110579, Note_on_c, 3, 59, 0
5, 110580, Note_on_c, 3, 57, 90
5, 110639, Note_on_c, 3, 57, 0
5, 110640, Note_on_c, 3, 57, 90
5, 110699, Note_on_c, 3, 57, 0
5, 110700, Note_on_c, 3, 67, 90
5, 110729, Note_on_c, 3, 67, 0
5, 110730, Note_on_c, 3, 66, 90
5, 110759, Note_on_c, 3, 66, 0
5, 110760, Note_on_c, 3, 64, 90
5, 110789, Note_on_c, 3, 64, 0
5, 110790, Note_on_c, 3, 67, 90
5, 110819, Note_on_c, 3, 67, 0
5, 110820, Note_on_c, 3, 66, 90
5, 110849, Note_on_c, 3, 66, 0
5, 110850, Note_on_c, 3, 67, 90
5, 110879, Note_on_c, 3, 67, 0
5, 110880, Note_on_c, 3, 69, 90
5, 110909, Note_on_c, 3, 69, 0
5, 110910, Note_on_c, 3, 71, 90
5, 110939, Note_on_c, 3, 71, 0
5, 110940, Note_on_c, 3, 67, 90
5, 110969, Note_on_c, 3, 67, 0
5, 110970, Note_on_c, 3, 69, 90
5, 110999, Note_on_c, 3, 69, 0
5, 111000, Note_on_c, 3, 66, 90
5, 111029, Note_on_c, 3, 66, 0
5, 111030, Note_on_c, 3, 67, 90
5, 111059, Note_on_c, 3, 67, 0
5, 111060, Note_on_c, 3, 69, 90
5, 111089, Note_on_c, 3, 69, 0
5, 111090, Note_on_c, 3, 71, 90
5, 111119, Note_on_c, 3, 71, 0
5, 111120, Note_on_c, 3, 67, 90
5, 111149, Note_on_c, 3, 67, 0
5, 111150, Note_on_c, 3, 69, 90
5, 111179, Note_on_c, 3, 69, 0
5, 111180, Note_on_c, 3, 66, 90
5, 111209, Note_on_c, 3, 66, 0
5, 111210, Note_on_c, 3, 67, 90
5, 111239, Note_on_c, 3, 67, 0
5, 111240, Note_on_c, 3, 69, 90
5, 111269, Note_on_c, 3, 69, 0
5, 111270, Note_on_c, 3, 66, 90
5, 111299, Note_on_c, 3, 66, 0
5, 111300, Note_on_c, 3, 67, 90
5, 111329, Note_on_c, 3, 67, 0
5, 111330, Note_on_c, 3, 69, 90
5, 111359, Note_on_c, 3, 69, 0
5, 111360, Note_on_c, 3, 64, 90
5, 111389, Note_on_c, 3, 64, 0
5, 111390, Note_on_c, 3, 66, 90
5, 111419, Note_on_c, 3, 66, 0
5, 111420, Note_on_c, 3, 67, 90
5, 111449, Note_on_c, 3, 67, 0
5, 111450, Note_on_c, 3, 66, 90
5, 111479, Note_on_c, 3, 66, 0
5, 111480, Note_on_c, 3, 67, 90
5, 111509, Note_on_c, 3, 67, 0
5, 111510, Note_on_c, 3, 69, 90
5, 111539, Note_on_c, 3, 69, 0
5, 111540, Note_on_c, 3, 62, 90
5, 111569, Note_on_c, 3, 62, 0
5, 111570, Note_on_c, 3, 64, 90
5, 111599, Note_on_c, 3, 64, 0
5, 111600, Note_on_c, 3, 66, 90
5, 111629, Note_on_c, 3, 66, 0
5, 111630, Note_on_c, 3, 64, 90
5, 111659, Note_on_c, 3, 64, 0
5, 111660, Note_on_c, 3, 66, 90
5, 111689, Note_on_c, 3, 66, 0
5, 111690, Note_on_c, 3, 67, 90
5, 111719, Note_on_c, 3, 67, 0
5, 111720, Note_on_c, 3, 61, 90
5, 111749, Note_on_c, 3, 61, 0
5, 111750, Note_on_c, 3, 62, 90
5, 111779, Note_on_c, 3, 62, 0
5, 111780, Note_on_c, 3, 64, 90
5, 111809, Note_on_c, 3, 64, 0
5, 111810, Note_on_c, 3, 62, 90
5, 111839, Note_on_c, 3, 62, 0
5, 111840, Note_on_c, 3, 64, 90
5, 111869, Note_on_c, 3, 64, 0
5, 111870, Note_on_c, 3, 66, 90
5, 111899, Note_on_c, 3, 66, 0
5, 111900, Note_on_c, 3, 59, 90
5, 111929, Note_on_c, 3, 59, 0
5, 111930, Note_on_c, 3, 61, 90
5, 111959, Note_on_c, 3, 61, 0
5, 111960, Note_on_c, 3, 62, 90
5, 111989, Note_on_c, 3, 62, 0
5, 111990, Note_on_c, 3, 61, 90
5, 112019, Note_on_c, 3, 61, 0
5, 112020, Note_on_c, 3, 62, 90
5, 112049, Note_on_c, 3, 62, 0
5, 112050, Note_on_c, 3, 64, 90
5, 112079, Note_on_c, 3, 64, 0
5, 112080, Note_on_c, 3, 61, 90
5, 112139, Note_on_c, 3, 61, 0
5, 112140, Note_on_c, 3, 59, 90
5, 112169, Note_on_c, 3, 59, 0
5, 112170, Note_on_c, 3, 57, 90
5, 112199, Note_on_c, 3, 57, 0
5, 112200, Note_on_c, 3, 62, 90
5, 112319, Note_on_c, 3, 62, 0
5, 112320, Note_on_c, 3, 61, 90
5, 112335, Note_on_c, 3, 61, 0
5, 112335, Note_on_c, 3, 62, 90
5, 112350, Note_on_c, 3, 62, 0
5, 112350, Note_on_c, 3, 61, 90
5, 112365, Note_on_c, 3, 61, 0
5, 112365, Note_on_c, 3, 62, 90
5, 112380, Note_on_c, 3, 62, 0
5, 112380, Note_on_c, 3, 61, 90
5, 112410, Note_on_c, 3, 61, 0
5, 112410, Note_on_c, 3, 59, 90
5, 112424, Note_on_c, 3, 59, 0
5, 112425, Note_on_c, 3, 61, 90
5, 112439, Note_on_c, 3, 61, 0
5, 112440, Note_on_c, 3, 62, 90
5, 112499, Note_on_c, 3, 62, 0
5, 112500, Note_on_c, 3, 66, 90
5, 112559, Note_on_c, 3, 66, 0
5, 112560, Note_on_c, 3, 71, 90
5, 112679, Note_on_c, 3, 71, 0
5, 112680, Note_on_c, 3, 64, 90
5, 112739, Note_on_c, 3, 64, 0
5, 112740, Note_on_c, 3, 69, 90
5, 112859, Note_on_c, 3, 69, 0
5, 112860, Note_on_c, 3, 62, 90
5, 112919, Note_on_c, 3, 62, 0
5, 112920, Note_on_c, 3, 67, 90
5, 113039, Note_on_c, 3, 67, 0
5, 113040, Note_on_c, 3, 61, 90
5, 113099, Note_on_c, 3, 61, 0
5, 113100, Note_on_c, 3, 66, 90
5, 113219, Note_on_c, 3, 66, 0
5, 113220, Note_on_c, 3, 59, 90
5, 113279, Note_on_c, 3, 59, 0
5, 113280, Note_on_c, 3, 64, 90
5, 113369, Note_on_c, 3, 64, 0
5, 113370, Note_on_c, 3, 62, 90
5, 113399, Note_on_c, 3, 62, 0
5, 113400, Note_on_c, 3, 61, 90
5, 113429, Note_on_c, 3, 61, 0
5, 113430, Note_on_c, 3, 59, 90
5, 113459, Note_on_c, 3, 59, 0
5, 113460, Note_on_c, 3, 57, 90
5, 113489, Note_on_c, 3, 57, 0
5, 113490, Note_on_c, 3, 55, 90
5, 113519, Note_on_c, 3, 55, 0
5, 113520, Note_on_c, 3, 57, 90
5, 113549, Note_on_c, 3, 57, 0
5, 113550, Note_on_c, 3, 59, 90
5, 113579, Note_on_c, 3, 59, 0
5, 113580, Note_on_c, 3, 52, 90
5, 113669, Note_on_c, 3, 52, 0
5, 113670, Note_on_c, 3, 50, 90
5, 113699, Note_on_c, 3, 50, 0
5, 113700, Note_on_c, 3, 50, 90
5, 113720, Note_on_c, 3, 54, 90
5, 113740, Note_on_c, 3, 57, 90
5, 113760, Note_on_c, 3, 62, 90
5, 114059, Note_on_c, 3, 62, 0
5, 114059, Note_on_c, 3, 50, 0
5, 114059, Note_on_c, 3, 54, 0
5, 114059, Note_on_c, 3, 57, 0
5, 114059, End_track
6, 0, Start_track
6, 0, MIDI_port, 0
6, 0, Title_t, "J.S.BACH"
6, 0, End_track
7, 0, Start_track
7, 0, MIDI_port, 0
7, 0, Title_t, "BWV 1028"
7, 0, End_track
8, 0, Start_track
8, 0, MIDI_port, 0
8, 0, Title_t, "SONATA FOR VIOLA DA GAMBA"
8, 0, End_track
9, 0, Start_track
9, 0, MIDI_port, 0
9, 0, Title_t, "AND HARPSICHORD"
9, 0, End_track
10, 0, Start_track
10, 0, MIDI_port, 0
10, 0, Title_t, "Nº2 IN D MAJOR"
10, 0, End_track
11, 0, Start_track
11, 0, MIDI_port, 0
11, 0, Title_t, "SECUENCED BY"
11, 0, End_track
12, 0, Start_track
12, 0, MIDI_port, 0
12, 0, Title_t, "MARCELO COPIA M"
12, 0, End_track
13, 0, Start_track
13, 0, MIDI_port, 0
13, 0, Title_t, "mcopia@entelchile.net"
13, 0, End_track
0, 0, End_of_file
