0, 0, Header, 1, 16, 120
1, 0, Start_track
1, 0, Title_t, "untitled"
1, 0, SMPTE_offset, 96, 0, 3, 0, 0
1, 0, Time_signature, 4, 2, 24, 8
1, 0, Key_signature, -2, "major"
1, 0, Tempo, 566038
1, 44158, Tempo, 697674
1, 44166, Tempo, 697674
1, 44262, Tempo, 705882
1, 44358, Tempo, 714286
1, 44454, Tempo, 722892
1, 44550, Tempo, 731707
1, 44630, Tempo, 740741
1, 45118, Tempo, 731707
1, 45126, Tempo, 1333333
1, 45126, End_track
2, 0, Start_track
2, 0, MIDI_port, 0
2, 0, Title_t, "Solo Harpsichord"
2, 0, Program_c, 0, 6
2, 0, Control_c, 0, 7, 127
2, 0, Control_c, 0, 10, 59
2, 60, Note_on_c, 0, 62, 100
2, 120, Note_on_c, 0, 62, 0
2, 120, Note_on_c, 0, 62, 100
2, 180, Note_on_c, 0, 62, 0
2, 180, Note_on_c, 0, 62, 100
2, 240, Note_on_c, 0, 62, 0
2, 240, Note_on_c, 0, 62, 100
2, 300, Note_on_c, 0, 62, 0
2, 300, Note_on_c, 0, 60, 100
2, 330, Note_on_c, 0, 60, 0
2, 330, Note_on_c, 0, 58, 100
2, 360, Note_on_c, 0, 58, 0
2, 360, Note_on_c, 0, 60, 100
2, 420, Note_on_c, 0, 60, 0
2, 420, Note_on_c, 0, 57, 100
2, 480, Note_on_c, 0, 57, 0
2, 480, Note_on_c, 0, 58, 100
2, 600, Note_on_c, 0, 58, 0
2, 600, Note_on_c, 0, 63, 100
2, 720, Note_on_c, 0, 63, 0
2, 720, Note_on_c, 0, 57, 100
2, 840, Note_on_c, 0, 57, 0
2, 840, Note_on_c, 0, 62, 100
2, 960, Note_on_c, 0, 62, 0
2, 960, Note_on_c, 0, 62, 100
2, 1020, Note_on_c, 0, 62, 0
2, 1020, Note_on_c, 0, 60, 100
2, 1050, Note_on_c, 0, 60, 0
2, 1050, Note_on_c, 0, 59, 100
2, 1080, Note_on_c, 0, 59, 0
2, 1080, Note_on_c, 0, 60, 100
2, 1260, Note_on_c, 0, 60, 0
2, 1260, Note_on_c, 0, 60, 100
2, 1320, Note_on_c, 0, 60, 0
2, 1320, Note_on_c, 0, 60, 100
2, 1380, Note_on_c, 0, 60, 0
2, 1380, Note_on_c, 0, 58, 100
2, 1410, Note_on_c, 0, 58, 0
2, 1410, Note_on_c, 0, 57, 100
2, 1440, Note_on_c, 0, 57, 0
2, 1440, Note_on_c, 0, 58, 100
2, 1560, Note_on_c, 0, 58, 0
2, 1560, Note_on_c, 0, 57, 100
2, 1680, Note_on_c, 0, 57, 0
2, 1680, Note_on_c, 0, 55, 100
2, 1860, Note_on_c, 0, 55, 0
2, 1860, Note_on_c, 0, 58, 100
2, 1920, Note_on_c, 0, 58, 0
2, 1920, Note_on_c, 0, 57, 100
2, 2100, Note_on_c, 0, 57, 0
2, 2100, Note_on_c, 0, 59, 100
2, 2160, Note_on_c, 0, 59, 0
2, 2160, Note_on_c, 0, 60, 100
2, 2280, Note_on_c, 0, 60, 0
2, 2280, Note_on_c, 0, 55, 100
2, 2400, Note_on_c, 0, 55, 0
2, 2400, Note_on_c, 0, 55, 100
2, 2520, Note_on_c, 0, 55, 0
2, 2520, Note_on_c, 0, 55, 100
2, 2580, Note_on_c, 0, 55, 0
2, 2580, Note_on_c, 0, 53, 100
2, 2640, Note_on_c, 0, 53, 0
2, 2640, Note_on_c, 0, 52, 100
2, 2760, Note_on_c, 0, 52, 0
2, 2760, Note_on_c, 0, 54, 100
2, 2880, Note_on_c, 0, 54, 0
2, 2880, Note_on_c, 0, 55, 100
2, 3000, Note_on_c, 0, 55, 0
2, 3000, Note_on_c, 0, 58, 100
2, 3120, Note_on_c, 0, 58, 0
2, 3120, Note_on_c, 0, 57, 100
2, 3240, Note_on_c, 0, 57, 0
2, 3240, Note_on_c, 0, 57, 100
2, 3360, Note_on_c, 0, 57, 0
2, 3360, Note_on_c, 0, 57, 100
2, 3420, Note_on_c, 0, 57, 0
2, 3420, Note_on_c, 0, 55, 100
2, 3450, Note_on_c, 0, 55, 0
2, 3450, Note_on_c, 0, 59, 100
2, 3480, Note_on_c, 0, 59, 0
2, 3480, Note_on_c, 0, 60, 100
2, 3510, Note_on_c, 0, 60, 0
2, 3510, Note_on_c, 0, 62, 100
2, 3540, Note_on_c, 0, 62, 0
2, 3540, Note_on_c, 0, 63, 100
2, 3570, Note_on_c, 0, 63, 0
2, 3570, Note_on_c, 0, 60, 100
2, 3600, Note_on_c, 0, 60, 0
2, 3600, Note_on_c, 0, 66, 100
2, 3630, Note_on_c, 0, 66, 0
2, 3630, Note_on_c, 0, 63, 100
2, 3660, Note_on_c, 0, 63, 0
2, 3660, Note_on_c, 0, 62, 100
2, 3690, Note_on_c, 0, 62, 0
2, 3690, Note_on_c, 0, 60, 100
2, 3720, Note_on_c, 0, 60, 0
2, 3720, Note_on_c, 0, 58, 100
2, 3750, Note_on_c, 0, 58, 0
2, 3750, Note_on_c, 0, 67, 100
2, 3780, Note_on_c, 0, 67, 0
2, 3780, Note_on_c, 0, 57, 100
2, 3810, Note_on_c, 0, 57, 0
2, 3810, Note_on_c, 0, 55, 100
2, 3840, Note_on_c, 0, 55, 0
2, 3840, Note_on_c, 0, 50, 100
2, 3870, Note_on_c, 0, 50, 0
2, 3870, Note_on_c, 0, 57, 100
2, 3900, Note_on_c, 0, 57, 0
2, 3900, Note_on_c, 0, 61, 100
2, 3930, Note_on_c, 0, 61, 0
2, 3930, Note_on_c, 0, 64, 100
2, 3960, Note_on_c, 0, 64, 0
2, 3960, Note_on_c, 0, 65, 100
2, 3990, Note_on_c, 0, 65, 0
2, 3990, Note_on_c, 0, 69, 100
2, 4020, Note_on_c, 0, 69, 0
2, 4020, Note_on_c, 0, 62, 100
2, 4050, Note_on_c, 0, 62, 0
2, 4050, Note_on_c, 0, 60, 100
2, 4080, Note_on_c, 0, 60, 0
2, 4080, Note_on_c, 0, 59, 100
2, 4110, Note_on_c, 0, 59, 0
2, 4110, Note_on_c, 0, 62, 100
2, 4140, Note_on_c, 0, 62, 0
2, 4140, Note_on_c, 0, 65, 100
2, 4170, Note_on_c, 0, 65, 0
2, 4170, Note_on_c, 0, 68, 100
2, 4200, Note_on_c, 0, 68, 0
2, 4200, Note_on_c, 0, 67, 100
2, 4230, Note_on_c, 0, 67, 0
2, 4230, Note_on_c, 0, 65, 100
2, 4260, Note_on_c, 0, 65, 0
2, 4260, Note_on_c, 0, 63, 100
2, 4290, Note_on_c, 0, 63, 0
2, 4290, Note_on_c, 0, 62, 100
2, 4320, Note_on_c, 0, 62, 0
2, 4320, Note_on_c, 0, 63, 100
2, 4350, Note_on_c, 0, 63, 0
2, 4350, Note_on_c, 0, 55, 100
2, 4380, Note_on_c, 0, 55, 0
2, 4380, Note_on_c, 0, 60, 100
2, 4410, Note_on_c, 0, 60, 0
2, 4410, Note_on_c, 0, 62, 100
2, 4440, Note_on_c, 0, 62, 0
2, 4440, Note_on_c, 0, 63, 100
2, 4470, Note_on_c, 0, 63, 0
2, 4470, Note_on_c, 0, 67, 100
2, 4500, Note_on_c, 0, 67, 0
2, 4500, Note_on_c, 0, 60, 100
2, 4530, Note_on_c, 0, 60, 0
2, 4530, Note_on_c, 0, 58, 100
2, 4560, Note_on_c, 0, 58, 0
2, 4560, Note_on_c, 0, 57, 100
2, 4590, Note_on_c, 0, 57, 0
2, 4590, Note_on_c, 0, 60, 100
2, 4620, Note_on_c, 0, 60, 0
2, 4620, Note_on_c, 0, 63, 100
2, 4650, Note_on_c, 0, 63, 0
2, 4650, Note_on_c, 0, 67, 100
2, 4680, Note_on_c, 0, 67, 0
2, 4680, Note_on_c, 0, 65, 100
2, 4710, Note_on_c, 0, 65, 0
2, 4710, Note_on_c, 0, 63, 100
2, 4740, Note_on_c, 0, 63, 0
2, 4740, Note_on_c, 0, 62, 100
2, 4770, Note_on_c, 0, 62, 0
2, 4770, Note_on_c, 0, 60, 100
2, 4800, Note_on_c, 0, 60, 0
2, 4800, Note_on_c, 0, 62, 100
2, 4830, Note_on_c, 0, 62, 0
2, 4830, Note_on_c, 0, 57, 100
2, 4860, Note_on_c, 0, 57, 0
2, 4860, Note_on_c, 0, 58, 100
2, 4890, Note_on_c, 0, 58, 0
2, 4890, Note_on_c, 0, 54, 100
2, 4920, Note_on_c, 0, 54, 0
2, 4920, Note_on_c, 0, 55, 100
2, 4950, Note_on_c, 0, 55, 0
2, 4950, Note_on_c, 0, 58, 100
2, 4980, Note_on_c, 0, 58, 0
2, 4980, Note_on_c, 0, 62, 100
2, 5010, Note_on_c, 0, 62, 0
2, 5010, Note_on_c, 0, 53, 100
2, 5040, Note_on_c, 0, 53, 0
2, 5040, Note_on_c, 0, 52, 100
2, 5070, Note_on_c, 0, 52, 0
2, 5070, Note_on_c, 0, 55, 100
2, 5100, Note_on_c, 0, 55, 0
2, 5100, Note_on_c, 0, 58, 100
2, 5130, Note_on_c, 0, 58, 0
2, 5130, Note_on_c, 0, 62, 100
2, 5160, Note_on_c, 0, 62, 0
2, 5160, Note_on_c, 0, 60, 100
2, 5190, Note_on_c, 0, 60, 0
2, 5190, Note_on_c, 0, 57, 100
2, 5220, Note_on_c, 0, 57, 0
2, 5220, Note_on_c, 0, 58, 100
2, 5250, Note_on_c, 0, 58, 0
2, 5250, Note_on_c, 0, 55, 100
2, 5280, Note_on_c, 0, 55, 0
2, 5280, Note_on_c, 0, 54, 100
2, 5310, Note_on_c, 0, 54, 0
2, 5310, Note_on_c, 0, 57, 100
2, 5340, Note_on_c, 0, 57, 0
2, 5340, Note_on_c, 0, 60, 100
2, 5370, Note_on_c, 0, 60, 0
2, 5370, Note_on_c, 0, 63, 100
2, 5400, Note_on_c, 0, 63, 0
2, 5400, Note_on_c, 0, 62, 100
2, 5430, Note_on_c, 0, 62, 0
2, 5430, Note_on_c, 0, 60, 100
2, 5460, Note_on_c, 0, 60, 0
2, 5460, Note_on_c, 0, 58, 100
2, 5490, Note_on_c, 0, 58, 0
2, 5490, Note_on_c, 0, 57, 100
2, 5520, Note_on_c, 0, 57, 0
2, 5520, Note_on_c, 0, 58, 100
2, 5550, Note_on_c, 0, 58, 0
2, 5550, Note_on_c, 0, 55, 100
2, 5580, Note_on_c, 0, 55, 0
2, 5580, Note_on_c, 0, 62, 100
2, 5610, Note_on_c, 0, 62, 0
2, 5610, Note_on_c, 0, 53, 100
2, 5640, Note_on_c, 0, 53, 0
2, 5640, Note_on_c, 0, 51, 100
2, 5670, Note_on_c, 0, 51, 0
2, 5670, Note_on_c, 0, 62, 100
2, 5700, Note_on_c, 0, 62, 0
2, 5700, Note_on_c, 0, 67, 100
2, 5730, Note_on_c, 0, 67, 0
2, 5730, Note_on_c, 0, 60, 100
2, 5760, Note_on_c, 0, 60, 0
2, 5760, Note_on_c, 0, 66, 100
2, 5820, Note_on_c, 0, 66, 0
2, 5820, Note_on_c, 0, 70, 100
2, 5880, Note_on_c, 0, 70, 0
2, 5880, Note_on_c, 0, 70, 100
2, 5940, Note_on_c, 0, 70, 0
2, 5940, Note_on_c, 0, 70, 100
2, 6000, Note_on_c, 0, 70, 0
2, 6000, Note_on_c, 0, 70, 100
2, 6060, Note_on_c, 0, 70, 0
2, 6060, Note_on_c, 0, 69, 100
2, 6090, Note_on_c, 0, 69, 0
2, 6090, Note_on_c, 0, 67, 100
2, 6120, Note_on_c, 0, 67, 0
2, 6120, Note_on_c, 0, 69, 100
2, 6180, Note_on_c, 0, 69, 0
2, 6180, Note_on_c, 0, 69, 100
2, 6240, Note_on_c, 0, 69, 0
2, 6240, Note_on_c, 0, 68, 100
2, 6270, Note_on_c, 0, 68, 0
2, 6270, Note_on_c, 0, 67, 100
2, 6300, Note_on_c, 0, 67, 0
2, 6300, Note_on_c, 0, 68, 100
2, 6330, Note_on_c, 0, 68, 0
2, 6330, Note_on_c, 0, 66, 100
2, 6360, Note_on_c, 0, 66, 0
2, 6360, Note_on_c, 0, 67, 100
2, 6420, Note_on_c, 0, 67, 0
2, 6420, Note_on_c, 0, 65, 100
2, 6480, Note_on_c, 0, 65, 0
2, 6480, Note_on_c, 0, 63, 100
2, 6540, Note_on_c, 0, 63, 0
2, 6540, Note_on_c, 0, 62, 100
2, 6600, Note_on_c, 0, 62, 0
2, 6600, Note_on_c, 0, 60, 100
2, 6660, Note_on_c, 0, 60, 0
2, 6660, Note_on_c, 0, 58, 100
2, 6720, Note_on_c, 0, 58, 0
2, 6720, Note_on_c, 0, 56, 100
2, 6750, Note_on_c, 0, 56, 0
2, 6750, Note_on_c, 0, 54, 100
2, 6780, Note_on_c, 0, 54, 0
2, 6780, Note_on_c, 0, 54, 100
2, 6810, Note_on_c, 0, 54, 0
2, 6810, Note_on_c, 0, 55, 100
2, 6840, Note_on_c, 0, 55, 0
2, 6840, Note_on_c, 0, 55, 100
2, 6990, Note_on_c, 0, 55, 0
2, 6990, Note_on_c, 0, 55, 100
2, 7020, Note_on_c, 0, 55, 0
2, 7020, Note_on_c, 0, 60, 100
2, 7050, Note_on_c, 0, 60, 0
2, 7050, Note_on_c, 0, 63, 100
2, 7080, Note_on_c, 0, 63, 0
2, 7110, Note_on_c, 0, 55, 100
2, 7140, Note_on_c, 0, 55, 0
2, 7140, Note_on_c, 0, 57, 100
2, 7170, Note_on_c, 0, 57, 0
2, 7170, Note_on_c, 0, 54, 100
2, 7200, Note_on_c, 0, 54, 0
2, 7260, Note_on_c, 0, 74, 100
2, 7320, Note_on_c, 0, 74, 0
2, 7320, Note_on_c, 0, 74, 100
2, 7380, Note_on_c, 0, 74, 0
2, 7380, Note_on_c, 0, 74, 100
2, 7440, Note_on_c, 0, 74, 0
2, 7440, Note_on_c, 0, 74, 100
2, 7500, Note_on_c, 0, 74, 0
2, 7500, Note_on_c, 0, 72, 100
2, 7530, Note_on_c, 0, 72, 0
2, 7530, Note_on_c, 0, 70, 100
2, 7560, Note_on_c, 0, 70, 0
2, 7560, Note_on_c, 0, 72, 100
2, 7620, Note_on_c, 0, 72, 0
2, 7620, Note_on_c, 0, 69, 100
2, 7680, Note_on_c, 0, 69, 0
2, 7680, Note_on_c, 0, 70, 100
2, 7800, Note_on_c, 0, 70, 0
2, 7800, Note_on_c, 0, 75, 100
2, 7920, Note_on_c, 0, 75, 0
2, 7920, Note_on_c, 0, 69, 100
2, 8040, Note_on_c, 0, 69, 0
2, 8040, Note_on_c, 0, 74, 100
2, 8160, Note_on_c, 0, 74, 0
2, 8160, Note_on_c, 0, 74, 100
2, 8220, Note_on_c, 0, 74, 0
2, 8220, Note_on_c, 0, 72, 100
2, 8280, Note_on_c, 0, 72, 0
2, 8280, Note_on_c, 0, 72, 100
2, 8400, Note_on_c, 0, 72, 0
2, 8400, Note_on_c, 0, 72, 100
2, 8460, Note_on_c, 0, 72, 0
2, 8460, Note_on_c, 0, 70, 100
2, 8490, Note_on_c, 0, 70, 0
2, 8490, Note_on_c, 0, 69, 100
2, 8520, Note_on_c, 0, 69, 0
2, 8520, Note_on_c, 0, 70, 100
2, 8580, Note_on_c, 0, 70, 0
2, 8580, Note_on_c, 0, 67, 100
2, 8640, Note_on_c, 0, 67, 0
2, 8640, Note_on_c, 0, 69, 100
2, 8760, Note_on_c, 0, 69, 0
2, 8760, Note_on_c, 0, 74, 100
2, 8880, Note_on_c, 0, 74, 0
2, 8880, Note_on_c, 0, 67, 100
2, 9000, Note_on_c, 0, 67, 0
2, 9000, Note_on_c, 0, 72, 100
2, 9120, Note_on_c, 0, 72, 0
2, 9120, Note_on_c, 0, 72, 100
2, 9180, Note_on_c, 0, 72, 0
2, 9180, Note_on_c, 0, 70, 100
2, 9240, Note_on_c, 0, 70, 0
2, 9240, Note_on_c, 0, 70, 100
2, 9300, Note_on_c, 0, 70, 0
2, 9300, Note_on_c, 0, 70, 100
2, 9360, Note_on_c, 0, 70, 0
2, 9360, Note_on_c, 0, 70, 100
2, 9420, Note_on_c, 0, 70, 0
2, 9420, Note_on_c, 0, 69, 100
2, 9450, Note_on_c, 0, 69, 0
2, 9450, Note_on_c, 0, 67, 100
2, 9480, Note_on_c, 0, 67, 0
2, 9480, Note_on_c, 0, 69, 100
2, 9540, Note_on_c, 0, 69, 0
2, 9540, Note_on_c, 0, 70, 100
2, 9570, Note_on_c, 0, 70, 0
2, 9570, Note_on_c, 0, 69, 100
2, 9600, Note_on_c, 0, 69, 0
2, 9600, Note_on_c, 0, 67, 100
2, 9720, Note_on_c, 0, 67, 0
2, 9720, Note_on_c, 0, 72, 100
2, 9840, Note_on_c, 0, 72, 0
2, 9840, Note_on_c, 0, 72, 100
2, 9900, Note_on_c, 0, 72, 0
2, 9900, Note_on_c, 0, 70, 100
2, 9930, Note_on_c, 0, 70, 0
2, 9930, Note_on_c, 0, 69, 100
2, 9960, Note_on_c, 0, 69, 0
2, 9960, Note_on_c, 0, 70, 100
2, 10020, Note_on_c, 0, 70, 0
2, 10020, Note_on_c, 0, 72, 100
2, 10050, Note_on_c, 0, 72, 0
2, 10050, Note_on_c, 0, 70, 100
2, 10080, Note_on_c, 0, 70, 0
2, 10080, Note_on_c, 0, 69, 100
2, 10200, Note_on_c, 0, 69, 0
2, 10200, Note_on_c, 0, 74, 100
2, 10440, Note_on_c, 0, 74, 0
2, 10440, Note_on_c, 0, 72, 100
2, 10560, Note_on_c, 0, 72, 0
2, 10560, Note_on_c, 0, 65, 100
2, 10680, Note_on_c, 0, 65, 0
2, 10680, Note_on_c, 0, 70, 100
2, 10800, Note_on_c, 0, 70, 0
2, 10800, Note_on_c, 0, 69, 100
2, 10860, Note_on_c, 0, 69, 0
2, 10860, Note_on_c, 0, 65, 100
2, 10920, Note_on_c, 0, 65, 0
2, 10920, Note_on_c, 0, 67, 100
2, 10980, Note_on_c, 0, 67, 0
2, 10980, Note_on_c, 0, 69, 100
2, 11040, Note_on_c, 0, 69, 0
2, 11040, Note_on_c, 0, 70, 100
2, 11100, Note_on_c, 0, 70, 0
2, 11100, Note_on_c, 0, 69, 100
2, 11160, Note_on_c, 0, 69, 0
2, 11160, Note_on_c, 0, 67, 100
2, 11280, Note_on_c, 0, 67, 0
2, 11280, Note_on_c, 0, 67, 100
2, 11340, Note_on_c, 0, 67, 0
2, 11340, Note_on_c, 0, 65, 100
2, 11370, Note_on_c, 0, 65, 0
2, 11370, Note_on_c, 0, 64, 100
2, 11400, Note_on_c, 0, 64, 0
2, 11400, Note_on_c, 0, 65, 100
2, 11460, Note_on_c, 0, 65, 0
2, 11460, Note_on_c, 0, 65, 100
2, 11520, Note_on_c, 0, 65, 0
2, 11520, Note_on_c, 0, 65, 100
2, 11580, Note_on_c, 0, 65, 0
2, 11580, Note_on_c, 0, 64, 100
2, 11610, Note_on_c, 0, 64, 0
2, 11610, Note_on_c, 0, 62, 100
2, 11640, Note_on_c, 0, 62, 0
2, 11640, Note_on_c, 0, 64, 100
2, 11700, Note_on_c, 0, 64, 0
2, 11700, Note_on_c, 0, 61, 100
2, 11760, Note_on_c, 0, 61, 0
2, 11760, Note_on_c, 0, 62, 100
2, 11940, Note_on_c, 0, 62, 0
2, 11940, Note_on_c, 0, 62, 100
2, 12000, Note_on_c, 0, 62, 0
2, 12000, Note_on_c, 0, 62, 100
2, 12120, Note_on_c, 0, 62, 0
2, 12120, Note_on_c, 0, 61, 100
2, 12210, Note_on_c, 0, 61, 0
2, 12210, Note_on_c, 0, 62, 100
2, 12240, Note_on_c, 0, 62, 0
2, 12240, Note_on_c, 0, 62, 100
2, 12360, Note_on_c, 0, 62, 0
2, 13260, Note_on_c, 0, 60, 100
2, 13320, Note_on_c, 0, 60, 0
2, 13320, Note_on_c, 0, 60, 100
2, 13380, Note_on_c, 0, 60, 0
2, 13380, Note_on_c, 0, 60, 100
2, 13440, Note_on_c, 0, 60, 0
2, 13440, Note_on_c, 0, 60, 100
2, 13500, Note_on_c, 0, 60, 0
2, 13500, Note_on_c, 0, 58, 100
2, 13530, Note_on_c, 0, 58, 0
2, 13530, Note_on_c, 0, 57, 100
2, 13560, Note_on_c, 0, 57, 0
2, 13560, Note_on_c, 0, 58, 100
2, 13620, Note_on_c, 0, 58, 0
2, 13620, Note_on_c, 0, 60, 100
2, 13650, Note_on_c, 0, 60, 0
2, 13650, Note_on_c, 0, 58, 100
2, 13680, Note_on_c, 0, 58, 0
2, 13680, Note_on_c, 0, 57, 100
2, 13800, Note_on_c, 0, 57, 0
2, 13800, Note_on_c, 0, 62, 100
2, 13920, Note_on_c, 0, 62, 0
2, 13920, Note_on_c, 0, 62, 100
2, 13980, Note_on_c, 0, 62, 0
2, 13980, Note_on_c, 0, 64, 100
2, 14010, Note_on_c, 0, 64, 0
2, 14010, Note_on_c, 0, 65, 100
2, 14040, Note_on_c, 0, 65, 0
2, 14040, Note_on_c, 0, 64, 100
2, 14070, Note_on_c, 0, 64, 0
2, 14070, Note_on_c, 0, 62, 100
2, 14100, Note_on_c, 0, 62, 0
2, 14100, Note_on_c, 0, 61, 100
2, 14130, Note_on_c, 0, 61, 0
2, 14130, Note_on_c, 0, 62, 100
2, 14160, Note_on_c, 0, 62, 0
2, 14160, Note_on_c, 0, 61, 100
2, 14280, Note_on_c, 0, 61, 0
2, 14280, Note_on_c, 0, 62, 100
2, 14400, Note_on_c, 0, 62, 0
2, 14400, Note_on_c, 0, 62, 100
2, 14580, Note_on_c, 0, 62, 0
2, 14580, Note_on_c, 0, 62, 100
2, 14640, Note_on_c, 0, 62, 0
2, 14640, Note_on_c, 0, 61, 100
2, 14820, Note_on_c, 0, 61, 0
2, 14820, Note_on_c, 0, 62, 100
2, 14880, Note_on_c, 0, 62, 0
2, 14880, Note_on_c, 0, 62, 100
2, 15000, Note_on_c, 0, 62, 0
2, 15000, Note_on_c, 0, 62, 100
2, 15120, Note_on_c, 0, 62, 0
2, 15120, Note_on_c, 0, 62, 100
2, 15240, Note_on_c, 0, 62, 0
2, 15240, Note_on_c, 0, 61, 100
2, 15360, Note_on_c, 0, 61, 0
2, 15360, Note_on_c, 0, 60, 100
2, 15480, Note_on_c, 0, 60, 0
2, 15480, Note_on_c, 0, 59, 100
2, 15600, Note_on_c, 0, 59, 0
2, 15600, Note_on_c, 0, 58, 100
2, 15720, Note_on_c, 0, 58, 0
2, 15720, Note_on_c, 0, 57, 100
2, 15840, Note_on_c, 0, 57, 0
2, 15840, Note_on_c, 0, 56, 100
2, 15960, Note_on_c, 0, 56, 0
2, 15960, Note_on_c, 0, 55, 100
2, 16320, Note_on_c, 0, 55, 0
2, 16320, Note_on_c, 0, 53, 100
2, 16500, Note_on_c, 0, 53, 0
2, 16500, Note_on_c, 0, 67, 100
2, 16560, Note_on_c, 0, 67, 0
2, 16560, Note_on_c, 0, 65, 100
2, 16680, Note_on_c, 0, 65, 0
2, 16680, Note_on_c, 0, 66, 100
2, 16800, Note_on_c, 0, 66, 0
2, 16800, Note_on_c, 0, 67, 100
2, 16860, Note_on_c, 0, 67, 0
2, 16860, Note_on_c, 0, 65, 100
2, 16920, Note_on_c, 0, 65, 0
2, 16920, Note_on_c, 0, 65, 100
2, 16980, Note_on_c, 0, 65, 0
2, 16980, Note_on_c, 0, 64, 100
2, 17040, Note_on_c, 0, 64, 0
2, 17040, Note_on_c, 0, 64, 100
2, 17100, Note_on_c, 0, 64, 0
2, 17100, Note_on_c, 0, 65, 100
2, 17160, Note_on_c, 0, 65, 0
2, 17160, Note_on_c, 0, 65, 100
2, 17220, Note_on_c, 0, 65, 0
2, 17220, Note_on_c, 0, 61, 100
2, 17280, Note_on_c, 0, 61, 0
2, 17280, Note_on_c, 0, 61, 100
2, 17340, Note_on_c, 0, 61, 0
2, 17340, Note_on_c, 0, 57, 100
2, 17400, Note_on_c, 0, 57, 0
2, 17460, Note_on_c, 0, 62, 100
2, 17520, Note_on_c, 0, 62, 0
2, 17520, Note_on_c, 0, 62, 100
2, 17640, Note_on_c, 0, 62, 0
2, 17640, Note_on_c, 0, 62, 100
2, 17760, Note_on_c, 0, 62, 0
2, 17760, Note_on_c, 0, 61, 100
2, 17820, Note_on_c, 0, 61, 0
2, 17820, Note_on_c, 0, 61, 100
2, 17880, Note_on_c, 0, 61, 0
2, 17880, Note_on_c, 0, 61, 100
2, 17940, Note_on_c, 0, 61, 0
2, 17940, Note_on_c, 0, 61, 100
2, 18000, Note_on_c, 0, 61, 0
2, 18000, Note_on_c, 0, 62, 100
2, 18120, Note_on_c, 0, 62, 0
2, 18240, Note_on_c, 0, 62, 100
2, 18300, Note_on_c, 0, 62, 0
2, 18300, Note_on_c, 0, 61, 100
2, 18360, Note_on_c, 0, 61, 0
2, 18360, Note_on_c, 0, 62, 100
2, 18420, Note_on_c, 0, 62, 0
2, 18420, Note_on_c, 0, 59, 100
2, 18480, Note_on_c, 0, 59, 0
2, 18480, Note_on_c, 0, 61, 100
2, 18660, Note_on_c, 0, 61, 0
2, 18660, Note_on_c, 0, 61, 100
2, 18720, Note_on_c, 0, 61, 0
2, 18720, Note_on_c, 0, 62, 100
2, 18780, Note_on_c, 0, 62, 0
2, 18780, Note_on_c, 0, 61, 100
2, 18840, Note_on_c, 0, 61, 0
2, 18840, Note_on_c, 0, 62, 100
2, 18900, Note_on_c, 0, 62, 0
2, 18900, Note_on_c, 0, 64, 100
2, 18960, Note_on_c, 0, 64, 0
2, 18960, Note_on_c, 0, 65, 100
2, 19020, Note_on_c, 0, 65, 0
2, 19020, Note_on_c, 0, 67, 100
2, 19080, Note_on_c, 0, 67, 0
2, 19080, Note_on_c, 0, 65, 100
2, 19140, Note_on_c, 0, 65, 0
2, 19140, Note_on_c, 0, 64, 100
2, 19200, Note_on_c, 0, 64, 0
2, 19200, Note_on_c, 0, 62, 100
2, 19260, Note_on_c, 0, 62, 0
2, 19260, Note_on_c, 0, 61, 100
2, 19320, Note_on_c, 0, 61, 0
2, 19320, Note_on_c, 0, 62, 100
2, 19380, Note_on_c, 0, 62, 0
2, 19380, Note_on_c, 0, 64, 100
2, 19440, Note_on_c, 0, 64, 0
2, 19440, Note_on_c, 0, 65, 100
2, 19500, Note_on_c, 0, 65, 0
2, 19500, Note_on_c, 0, 64, 100
2, 19560, Note_on_c, 0, 64, 0
2, 19560, Note_on_c, 0, 65, 100
2, 19620, Note_on_c, 0, 65, 0
2, 19620, Note_on_c, 0, 62, 100
2, 19680, Note_on_c, 0, 62, 0
2, 19680, Note_on_c, 0, 64, 100
2, 19740, Note_on_c, 0, 64, 0
2, 19740, Note_on_c, 0, 62, 100
2, 19800, Note_on_c, 0, 62, 0
2, 19800, Note_on_c, 0, 64, 100
2, 19860, Note_on_c, 0, 64, 0
2, 19860, Note_on_c, 0, 65, 100
2, 19920, Note_on_c, 0, 65, 0
2, 19920, Note_on_c, 0, 67, 100
2, 19980, Note_on_c, 0, 67, 0
2, 19980, Note_on_c, 0, 65, 100
2, 20040, Note_on_c, 0, 65, 0
2, 20040, Note_on_c, 0, 67, 100
2, 20100, Note_on_c, 0, 67, 0
2, 20100, Note_on_c, 0, 65, 100
2, 20160, Note_on_c, 0, 65, 0
2, 20160, Note_on_c, 0, 64, 100
2, 20220, Note_on_c, 0, 64, 0
2, 20220, Note_on_c, 0, 62, 100
2, 20280, Note_on_c, 0, 62, 0
2, 20280, Note_on_c, 0, 64, 100
2, 20340, Note_on_c, 0, 64, 0
2, 20340, Note_on_c, 0, 65, 100
2, 20400, Note_on_c, 0, 65, 0
2, 20400, Note_on_c, 0, 67, 100
2, 20460, Note_on_c, 0, 67, 0
2, 20460, Note_on_c, 0, 65, 100
2, 20520, Note_on_c, 0, 65, 0
2, 20520, Note_on_c, 0, 67, 100
2, 20580, Note_on_c, 0, 67, 0
2, 20580, Note_on_c, 0, 65, 100
2, 20640, Note_on_c, 0, 65, 0
2, 25440, Note_on_c, 0, 59, 100
2, 25440, Note_on_c, 0, 62, 100
2, 25530, Note_on_c, 0, 62, 0
2, 25530, Note_on_c, 0, 59, 0
2, 25560, Note_on_c, 0, 72, 100
2, 25680, Note_on_c, 0, 72, 0
2, 25680, Note_on_c, 0, 72, 100
2, 25800, Note_on_c, 0, 72, 0
2, 25800, Note_on_c, 0, 71, 100
2, 25860, Note_on_c, 0, 71, 0
2, 25860, Note_on_c, 0, 74, 100
2, 25980, Note_on_c, 0, 74, 0
2, 25980, Note_on_c, 0, 67, 100
2, 26040, Note_on_c, 0, 67, 0
2, 26040, Note_on_c, 0, 67, 100
2, 26100, Note_on_c, 0, 67, 0
2, 26100, Note_on_c, 0, 67, 100
2, 26160, Note_on_c, 0, 67, 0
2, 26160, Note_on_c, 0, 67, 100
2, 26220, Note_on_c, 0, 67, 0
2, 26220, Note_on_c, 0, 65, 100
2, 26250, Note_on_c, 0, 65, 0
2, 26250, Note_on_c, 0, 63, 100
2, 26280, Note_on_c, 0, 63, 0
2, 26280, Note_on_c, 0, 65, 100
2, 26340, Note_on_c, 0, 65, 0
2, 26340, Note_on_c, 0, 62, 100
2, 26400, Note_on_c, 0, 62, 0
2, 26400, Note_on_c, 0, 63, 100
2, 26460, Note_on_c, 0, 63, 0
2, 26460, Note_on_c, 0, 62, 100
2, 26490, Note_on_c, 0, 62, 0
2, 26490, Note_on_c, 0, 60, 100
2, 26520, Note_on_c, 0, 60, 0
2, 26520, Note_on_c, 0, 61, 100
2, 26580, Note_on_c, 0, 61, 0
2, 26580, Note_on_c, 0, 59, 100
2, 26640, Note_on_c, 0, 59, 0
2, 26640, Note_on_c, 0, 60, 100
2, 26730, Note_on_c, 0, 60, 0
2, 26730, Note_on_c, 0, 62, 100
2, 26760, Note_on_c, 0, 62, 0
2, 26760, Note_on_c, 0, 59, 100
2, 26850, Note_on_c, 0, 59, 0
2, 26850, Note_on_c, 0, 60, 100
2, 26880, Note_on_c, 0, 60, 0
2, 26880, Note_on_c, 0, 60, 100
2, 27000, Note_on_c, 0, 60, 0
2, 27900, Note_on_c, 0, 65, 100
2, 27960, Note_on_c, 0, 65, 0
2, 27960, Note_on_c, 0, 65, 100
2, 28020, Note_on_c, 0, 65, 0
2, 28020, Note_on_c, 0, 65, 100
2, 28080, Note_on_c, 0, 65, 0
2, 28080, Note_on_c, 0, 65, 100
2, 28140, Note_on_c, 0, 65, 0
2, 28140, Note_on_c, 0, 63, 100
2, 28170, Note_on_c, 0, 63, 0
2, 28170, Note_on_c, 0, 62, 100
2, 28200, Note_on_c, 0, 62, 0
2, 28200, Note_on_c, 0, 63, 100
2, 28230, Note_on_c, 0, 63, 0
2, 28230, Note_on_c, 0, 60, 100
2, 28260, Note_on_c, 0, 60, 0
2, 28260, Note_on_c, 0, 62, 100
2, 28290, Note_on_c, 0, 62, 0
2, 28290, Note_on_c, 0, 63, 100
2, 28320, Note_on_c, 0, 63, 0
2, 28320, Note_on_c, 0, 62, 100
2, 28380, Note_on_c, 0, 62, 0
2, 28380, Note_on_c, 0, 70, 100
2, 28440, Note_on_c, 0, 70, 0
2, 28440, Note_on_c, 0, 70, 100
2, 28500, Note_on_c, 0, 70, 0
2, 28500, Note_on_c, 0, 70, 100
2, 28560, Note_on_c, 0, 70, 0
2, 28560, Note_on_c, 0, 70, 100
2, 28620, Note_on_c, 0, 70, 0
2, 28620, Note_on_c, 0, 69, 100
2, 28650, Note_on_c, 0, 69, 0
2, 28650, Note_on_c, 0, 67, 100
2, 28680, Note_on_c, 0, 67, 0
2, 28680, Note_on_c, 0, 69, 100
2, 28740, Note_on_c, 0, 69, 0
2, 28740, Note_on_c, 0, 71, 100
2, 28800, Note_on_c, 0, 71, 0
2, 28800, Note_on_c, 0, 72, 100
2, 28860, Note_on_c, 0, 72, 0
2, 28860, Note_on_c, 0, 72, 100
2, 28920, Note_on_c, 0, 72, 0
2, 28920, Note_on_c, 0, 72, 100
2, 28980, Note_on_c, 0, 72, 0
2, 28980, Note_on_c, 0, 72, 100
2, 29040, Note_on_c, 0, 72, 0
2, 29040, Note_on_c, 0, 72, 100
2, 29100, Note_on_c, 0, 72, 0
2, 29100, Note_on_c, 0, 70, 100
2, 29130, Note_on_c, 0, 70, 0
2, 29130, Note_on_c, 0, 69, 100
2, 29160, Note_on_c, 0, 69, 0
2, 29160, Note_on_c, 0, 70, 100
2, 29220, Note_on_c, 0, 70, 0
2, 29220, Note_on_c, 0, 72, 100
2, 29250, Note_on_c, 0, 72, 0
2, 29250, Note_on_c, 0, 67, 100
2, 29280, Note_on_c, 0, 67, 0
2, 29280, Note_on_c, 0, 69, 100
2, 29340, Note_on_c, 0, 69, 0
2, 29340, Note_on_c, 0, 70, 100
2, 29370, Note_on_c, 0, 70, 0
2, 29370, Note_on_c, 0, 65, 100
2, 29400, Note_on_c, 0, 65, 0
2, 29400, Note_on_c, 0, 67, 100
2, 29460, Note_on_c, 0, 67, 0
2, 29460, Note_on_c, 0, 69, 100
2, 29490, Note_on_c, 0, 69, 0
2, 29490, Note_on_c, 0, 67, 100
2, 29520, Note_on_c, 0, 67, 0
2, 29520, Note_on_c, 0, 65, 100
2, 29580, Note_on_c, 0, 65, 0
2, 29580, Note_on_c, 0, 67, 100
2, 29610, Note_on_c, 0, 67, 0
2, 29610, Note_on_c, 0, 62, 100
2, 29640, Note_on_c, 0, 62, 0
2, 29640, Note_on_c, 0, 63, 100
2, 29730, Note_on_c, 0, 63, 0
2, 29730, Note_on_c, 0, 65, 100
2, 29760, Note_on_c, 0, 65, 0
2, 29760, Note_on_c, 0, 62, 100
2, 29820, Note_on_c, 0, 62, 0
2, 29820, Note_on_c, 0, 62, 100
2, 29880, Note_on_c, 0, 62, 0
2, 29880, Note_on_c, 0, 62, 100
2, 29940, Note_on_c, 0, 62, 0
2, 29940, Note_on_c, 0, 62, 100
2, 30000, Note_on_c, 0, 62, 0
2, 30000, Note_on_c, 0, 62, 100
2, 30060, Note_on_c, 0, 62, 0
2, 30060, Note_on_c, 0, 63, 100
2, 30090, Note_on_c, 0, 63, 0
2, 30090, Note_on_c, 0, 62, 100
2, 30120, Note_on_c, 0, 62, 0
2, 30120, Note_on_c, 0, 60, 100
2, 30180, Note_on_c, 0, 60, 0
2, 30180, Note_on_c, 0, 58, 100
2, 30240, Note_on_c, 0, 58, 0
2, 30240, Note_on_c, 0, 57, 100
2, 30300, Note_on_c, 0, 57, 0
2, 30300, Note_on_c, 0, 65, 100
2, 30360, Note_on_c, 0, 65, 0
2, 30360, Note_on_c, 0, 65, 100
2, 30420, Note_on_c, 0, 65, 0
2, 30420, Note_on_c, 0, 65, 100
2, 30480, Note_on_c, 0, 65, 0
2, 30480, Note_on_c, 0, 65, 100
2, 30540, Note_on_c, 0, 65, 0
2, 30540, Note_on_c, 0, 67, 100
2, 30570, Note_on_c, 0, 67, 0
2, 30570, Note_on_c, 0, 65, 100
2, 30600, Note_on_c, 0, 65, 0
2, 30600, Note_on_c, 0, 63, 100
2, 30660, Note_on_c, 0, 63, 0
2, 30660, Note_on_c, 0, 62, 100
2, 30720, Note_on_c, 0, 62, 0
2, 30720, Note_on_c, 0, 67, 100
2, 30780, Note_on_c, 0, 67, 0
2, 30780, Note_on_c, 0, 69, 100
2, 30810, Note_on_c, 0, 69, 0
2, 30810, Note_on_c, 0, 70, 100
2, 30840, Note_on_c, 0, 70, 0
2, 30840, Note_on_c, 0, 70, 100
2, 30870, Note_on_c, 0, 70, 0
2, 30870, Note_on_c, 0, 69, 100
2, 30900, Note_on_c, 0, 69, 0
2, 30900, Note_on_c, 0, 67, 100
2, 30930, Note_on_c, 0, 67, 0
2, 30930, Note_on_c, 0, 65, 100
2, 30960, Note_on_c, 0, 65, 0
2, 30960, Note_on_c, 0, 70, 100
2, 31020, Note_on_c, 0, 70, 0
2, 31020, Note_on_c, 0, 65, 100
2, 31080, Note_on_c, 0, 65, 0
2, 31080, Note_on_c, 0, 63, 100
2, 31110, Note_on_c, 0, 63, 0
2, 31110, Note_on_c, 0, 62, 100
2, 31140, Note_on_c, 0, 62, 0
2, 31140, Note_on_c, 0, 60, 100
2, 31170, Note_on_c, 0, 60, 0
2, 31170, Note_on_c, 0, 58, 100
2, 31200, Note_on_c, 0, 58, 0
2, 31230, Note_on_c, 0, 62, 100
2, 31260, Note_on_c, 0, 62, 0
2, 31260, Note_on_c, 0, 60, 100
2, 31290, Note_on_c, 0, 60, 0
2, 31290, Note_on_c, 0, 62, 100
2, 31320, Note_on_c, 0, 62, 0
2, 31350, Note_on_c, 0, 62, 100
2, 31380, Note_on_c, 0, 62, 0
2, 31410, Note_on_c, 0, 62, 100
2, 31440, Note_on_c, 0, 62, 0
2, 31470, Note_on_c, 0, 62, 100
2, 31500, Note_on_c, 0, 62, 0
2, 31530, Note_on_c, 0, 62, 100
2, 31560, Note_on_c, 0, 62, 0
2, 31590, Note_on_c, 0, 62, 100
2, 31620, Note_on_c, 0, 62, 0
2, 31650, Note_on_c, 0, 62, 100
2, 31680, Note_on_c, 0, 62, 0
2, 31710, Note_on_c, 0, 62, 100
2, 31740, Note_on_c, 0, 62, 0
2, 31740, Note_on_c, 0, 67, 100
2, 31770, Note_on_c, 0, 67, 0
2, 31770, Note_on_c, 0, 65, 100
2, 31800, Note_on_c, 0, 65, 0
2, 31800, Note_on_c, 0, 63, 100
2, 31830, Note_on_c, 0, 63, 0
2, 31830, Note_on_c, 0, 62, 100
2, 31860, Note_on_c, 0, 62, 0
2, 31860, Note_on_c, 0, 60, 100
2, 31890, Note_on_c, 0, 60, 0
2, 31890, Note_on_c, 0, 58, 100
2, 31920, Note_on_c, 0, 58, 0
2, 31950, Note_on_c, 0, 60, 100
2, 31980, Note_on_c, 0, 60, 0
2, 32010, Note_on_c, 0, 60, 100
2, 32040, Note_on_c, 0, 60, 0
2, 32070, Note_on_c, 0, 60, 100
2, 32100, Note_on_c, 0, 60, 0
2, 32130, Note_on_c, 0, 60, 100
2, 32160, Note_on_c, 0, 60, 0
2, 32190, Note_on_c, 0, 60, 100
2, 32220, Note_on_c, 0, 60, 0
2, 32220, Note_on_c, 0, 69, 100
2, 32250, Note_on_c, 0, 69, 0
2, 32250, Note_on_c, 0, 60, 100
2, 32280, Note_on_c, 0, 60, 0
2, 32280, Note_on_c, 0, 58, 100
2, 32310, Note_on_c, 0, 58, 0
2, 32310, Note_on_c, 0, 57, 100
2, 32340, Note_on_c, 0, 57, 0
2, 32340, Note_on_c, 0, 58, 100
2, 32370, Note_on_c, 0, 58, 0
2, 32370, Note_on_c, 0, 55, 100
2, 32400, Note_on_c, 0, 55, 0
2, 32430, Note_on_c, 0, 56, 100
2, 32460, Note_on_c, 0, 56, 0
2, 32460, Note_on_c, 0, 65, 100
2, 32490, Note_on_c, 0, 65, 0
2, 32490, Note_on_c, 0, 56, 100
2, 32520, Note_on_c, 0, 56, 0
2, 32520, Note_on_c, 0, 55, 100
2, 32550, Note_on_c, 0, 55, 0
2, 32550, Note_on_c, 0, 53, 100
2, 32580, Note_on_c, 0, 53, 0
2, 32580, Note_on_c, 0, 55, 100
2, 32610, Note_on_c, 0, 55, 0
2, 32610, Note_on_c, 0, 51, 100
2, 32640, Note_on_c, 0, 51, 0
2, 32670, Note_on_c, 0, 53, 100
2, 32700, Note_on_c, 0, 53, 0
2, 32700, Note_on_c, 0, 62, 100
2, 32730, Note_on_c, 0, 62, 0
2, 32730, Note_on_c, 0, 53, 100
2, 32760, Note_on_c, 0, 53, 0
2, 32760, Note_on_c, 0, 51, 100
2, 32790, Note_on_c, 0, 51, 0
2, 32791, Note_on_c, 0, 50, 100
2, 32820, Note_on_c, 0, 51, 100
2, 32821, Note_on_c, 0, 50, 0
2, 32850, Note_on_c, 0, 51, 0
2, 32850, Note_on_c, 0, 48, 100
2, 32880, Note_on_c, 0, 48, 0
2, 32910, Note_on_c, 0, 50, 100
2, 32940, Note_on_c, 0, 50, 0
2, 32940, Note_on_c, 0, 58, 100
2, 32970, Note_on_c, 0, 58, 0
2, 32970, Note_on_c, 0, 50, 100
2, 33000, Note_on_c, 0, 50, 0
2, 33030, Note_on_c, 0, 51, 100
2, 33060, Note_on_c, 0, 51, 0
2, 33060, Note_on_c, 0, 60, 100
2, 33090, Note_on_c, 0, 60, 0
2, 33090, Note_on_c, 0, 52, 100
2, 33120, Note_on_c, 0, 52, 0
2, 33120, Note_on_c, 0, 54, 100
2, 33150, Note_on_c, 0, 54, 0
2, 33150, Note_on_c, 0, 50, 100
2, 33180, Note_on_c, 0, 50, 0
2, 33180, Note_on_c, 0, 57, 100
2, 33210, Note_on_c, 0, 57, 0
2, 33210, Note_on_c, 0, 53, 100
2, 33240, Note_on_c, 0, 53, 0
2, 33240, Note_on_c, 0, 60, 100
2, 33270, Note_on_c, 0, 60, 0
2, 33270, Note_on_c, 0, 57, 100
2, 33300, Note_on_c, 0, 57, 0
2, 33300, Note_on_c, 0, 63, 100
2, 33330, Note_on_c, 0, 63, 0
2, 33330, Note_on_c, 0, 60, 100
2, 33360, Note_on_c, 0, 60, 0
2, 33360, Note_on_c, 0, 66, 100
2, 33390, Note_on_c, 0, 66, 0
2, 33390, Note_on_c, 0, 63, 100
2, 33420, Note_on_c, 0, 63, 0
2, 33420, Note_on_c, 0, 69, 100
2, 33450, Note_on_c, 0, 69, 0
2, 33450, Note_on_c, 0, 66, 100
2, 33480, Note_on_c, 0, 66, 0
2, 33480, Note_on_c, 0, 63, 100
2, 33510, Note_on_c, 0, 63, 0
2, 33510, Note_on_c, 0, 60, 100
2, 33540, Note_on_c, 0, 60, 0
2, 33540, Note_on_c, 0, 57, 100
2, 33570, Note_on_c, 0, 57, 0
2, 33570, Note_on_c, 0, 53, 100
2, 33600, Note_on_c, 0, 53, 0
2, 33630, Note_on_c, 0, 60, 100
2, 33660, Note_on_c, 0, 60, 0
2, 33660, Note_on_c, 0, 66, 100
2, 33690, Note_on_c, 0, 66, 0
2, 33690, Note_on_c, 0, 60, 100
2, 33720, Note_on_c, 0, 60, 0
2, 33720, Note_on_c, 0, 66, 100
2, 33750, Note_on_c, 0, 66, 0
2, 33750, Note_on_c, 0, 60, 100
2, 33780, Note_on_c, 0, 60, 0
2, 33780, Note_on_c, 0, 69, 100
2, 33810, Note_on_c, 0, 69, 0
2, 33810, Note_on_c, 0, 60, 100
2, 33840, Note_on_c, 0, 60, 0
2, 33870, Note_on_c, 0, 60, 100
2, 33900, Note_on_c, 0, 60, 0
2, 33900, Note_on_c, 0, 66, 100
2, 33930, Note_on_c, 0, 66, 0
2, 33930, Note_on_c, 0, 60, 100
2, 33960, Note_on_c, 0, 60, 0
2, 33960, Note_on_c, 0, 66, 100
2, 33990, Note_on_c, 0, 66, 0
2, 33990, Note_on_c, 0, 60, 100
2, 34020, Note_on_c, 0, 60, 0
2, 34020, Note_on_c, 0, 69, 100
2, 34050, Note_on_c, 0, 69, 0
2, 34050, Note_on_c, 0, 60, 100
2, 34080, Note_on_c, 0, 60, 0
2, 34110, Note_on_c, 0, 58, 100
2, 34140, Note_on_c, 0, 58, 0
2, 34140, Note_on_c, 0, 62, 100
2, 34170, Note_on_c, 0, 62, 0
2, 34170, Note_on_c, 0, 58, 100
2, 34200, Note_on_c, 0, 58, 0
2, 34200, Note_on_c, 0, 62, 100
2, 34230, Note_on_c, 0, 62, 0
2, 34230, Note_on_c, 0, 58, 100
2, 34260, Note_on_c, 0, 58, 0
2, 34260, Note_on_c, 0, 67, 100
2, 34290, Note_on_c, 0, 67, 0
2, 34290, Note_on_c, 0, 58, 100
2, 34320, Note_on_c, 0, 58, 0
2, 34350, Note_on_c, 0, 58, 100
2, 34380, Note_on_c, 0, 58, 0
2, 34380, Note_on_c, 0, 62, 100
2, 34410, Note_on_c, 0, 62, 0
2, 34410, Note_on_c, 0, 58, 100
2, 34440, Note_on_c, 0, 58, 0
2, 34440, Note_on_c, 0, 62, 100
2, 34470, Note_on_c, 0, 62, 0
2, 34470, Note_on_c, 0, 58, 100
2, 34500, Note_on_c, 0, 58, 0
2, 34500, Note_on_c, 0, 67, 100
2, 34530, Note_on_c, 0, 67, 0
2, 34530, Note_on_c, 0, 58, 100
2, 34560, Note_on_c, 0, 58, 0
2, 34590, Note_on_c, 0, 57, 100
2, 34620, Note_on_c, 0, 57, 0
2, 34620, Note_on_c, 0, 66, 100
2, 34650, Note_on_c, 0, 66, 0
2, 34650, Note_on_c, 0, 62, 100
2, 34680, Note_on_c, 0, 62, 0
2, 34680, Note_on_c, 0, 66, 100
2, 34710, Note_on_c, 0, 66, 0
2, 34710, Note_on_c, 0, 62, 100
2, 34740, Note_on_c, 0, 62, 0
2, 34740, Note_on_c, 0, 72, 100
2, 34770, Note_on_c, 0, 72, 0
2, 34770, Note_on_c, 0, 62, 100
2, 34800, Note_on_c, 0, 62, 0
2, 34830, Note_on_c, 0, 62, 100
2, 34860, Note_on_c, 0, 62, 0
2, 34860, Note_on_c, 0, 66, 100
2, 34890, Note_on_c, 0, 66, 0
2, 34890, Note_on_c, 0, 62, 100
2, 34920, Note_on_c, 0, 62, 0
2, 34920, Note_on_c, 0, 66, 100
2, 34950, Note_on_c, 0, 66, 0
2, 34950, Note_on_c, 0, 62, 100
2, 34980, Note_on_c, 0, 62, 0
2, 34980, Note_on_c, 0, 72, 100
2, 35010, Note_on_c, 0, 72, 0
2, 35010, Note_on_c, 0, 62, 100
2, 35040, Note_on_c, 0, 62, 0
2, 35070, Note_on_c, 0, 62, 100
2, 35100, Note_on_c, 0, 62, 0
2, 35100, Note_on_c, 0, 67, 100
2, 35130, Note_on_c, 0, 67, 0
2, 35130, Note_on_c, 0, 62, 100
2, 35160, Note_on_c, 0, 62, 0
2, 35160, Note_on_c, 0, 67, 100
2, 35190, Note_on_c, 0, 67, 0
2, 35190, Note_on_c, 0, 62, 100
2, 35220, Note_on_c, 0, 62, 0
2, 35220, Note_on_c, 0, 70, 100
2, 35250, Note_on_c, 0, 70, 0
2, 35250, Note_on_c, 0, 62, 100
2, 35280, Note_on_c, 0, 62, 0
2, 35310, Note_on_c, 0, 62, 100
2, 35340, Note_on_c, 0, 62, 0
2, 35340, Note_on_c, 0, 67, 100
2, 35370, Note_on_c, 0, 67, 0
2, 35370, Note_on_c, 0, 62, 100
2, 35400, Note_on_c, 0, 62, 0
2, 35400, Note_on_c, 0, 67, 100
2, 35430, Note_on_c, 0, 67, 0
2, 35430, Note_on_c, 0, 62, 100
2, 35460, Note_on_c, 0, 62, 0
2, 35460, Note_on_c, 0, 70, 100
2, 35490, Note_on_c, 0, 70, 0
2, 35490, Note_on_c, 0, 62, 100
2, 35520, Note_on_c, 0, 62, 0
2, 35550, Note_on_c, 0, 61, 100
2, 35580, Note_on_c, 0, 61, 0
2, 35580, Note_on_c, 0, 64, 100
2, 35610, Note_on_c, 0, 64, 0
2, 35610, Note_on_c, 0, 61, 100
2, 35640, Note_on_c, 0, 61, 0
2, 35640, Note_on_c, 0, 64, 100
2, 35670, Note_on_c, 0, 64, 0
2, 35670, Note_on_c, 0, 61, 100
2, 35700, Note_on_c, 0, 61, 0
2, 35700, Note_on_c, 0, 70, 100
2, 35730, Note_on_c, 0, 70, 0
2, 35730, Note_on_c, 0, 61, 100
2, 35760, Note_on_c, 0, 61, 0
2, 35790, Note_on_c, 0, 61, 100
2, 35820, Note_on_c, 0, 61, 0
2, 35820, Note_on_c, 0, 64, 100
2, 35850, Note_on_c, 0, 64, 0
2, 35850, Note_on_c, 0, 61, 100
2, 35880, Note_on_c, 0, 61, 0
2, 35880, Note_on_c, 0, 64, 100
2, 35910, Note_on_c, 0, 64, 0
2, 35910, Note_on_c, 0, 61, 100
2, 35940, Note_on_c, 0, 61, 0
2, 35940, Note_on_c, 0, 70, 100
2, 35970, Note_on_c, 0, 70, 0
2, 35970, Note_on_c, 0, 61, 100
2, 36000, Note_on_c, 0, 61, 0
2, 36000, Note_on_c, 0, 62, 100
2, 36060, Note_on_c, 0, 62, 0
2, 36060, Note_on_c, 0, 74, 100
2, 36120, Note_on_c, 0, 74, 0
2, 36120, Note_on_c, 0, 74, 100
2, 36180, Note_on_c, 0, 74, 0
2, 36180, Note_on_c, 0, 74, 100
2, 36240, Note_on_c, 0, 74, 0
2, 36240, Note_on_c, 0, 74, 100
2, 36300, Note_on_c, 0, 74, 0
2, 36300, Note_on_c, 0, 72, 100
2, 36330, Note_on_c, 0, 72, 0
2, 36330, Note_on_c, 0, 70, 100
2, 36360, Note_on_c, 0, 70, 0
2, 36360, Note_on_c, 0, 72, 100
2, 36420, Note_on_c, 0, 72, 0
2, 36420, Note_on_c, 0, 72, 100
2, 36480, Note_on_c, 0, 72, 0
2, 36480, Note_on_c, 0, 72, 100
2, 36540, Note_on_c, 0, 72, 0
2, 36540, Note_on_c, 0, 70, 100
2, 36570, Note_on_c, 0, 70, 0
2, 36570, Note_on_c, 0, 69, 100
2, 36600, Note_on_c, 0, 69, 0
2, 36600, Note_on_c, 0, 70, 100
2, 36660, Note_on_c, 0, 70, 0
2, 36660, Note_on_c, 0, 70, 100
2, 36720, Note_on_c, 0, 70, 0
2, 36720, Note_on_c, 0, 70, 100
2, 36780, Note_on_c, 0, 70, 0
2, 36780, Note_on_c, 0, 69, 100
2, 36840, Note_on_c, 0, 69, 0
2, 36840, Note_on_c, 0, 69, 100
2, 36900, Note_on_c, 0, 69, 0
2, 36900, Note_on_c, 0, 67, 100
2, 36960, Note_on_c, 0, 67, 0
2, 36960, Note_on_c, 0, 66, 100
2, 37020, Note_on_c, 0, 66, 0
2, 37020, Note_on_c, 0, 67, 100
2, 37080, Note_on_c, 0, 67, 0
2, 37080, Note_on_c, 0, 67, 100
2, 37140, Note_on_c, 0, 67, 0
2, 37140, Note_on_c, 0, 64, 100
2, 37200, Note_on_c, 0, 64, 0
2, 37200, Note_on_c, 0, 64, 100
2, 37260, Note_on_c, 0, 64, 0
2, 37260, Note_on_c, 0, 65, 100
2, 37320, Note_on_c, 0, 65, 0
2, 37320, Note_on_c, 0, 65, 100
2, 37380, Note_on_c, 0, 65, 0
2, 37380, Note_on_c, 0, 62, 100
2, 37440, Note_on_c, 0, 62, 0
2, 37440, Note_on_c, 0, 62, 100
2, 37500, Note_on_c, 0, 62, 0
2, 37500, Note_on_c, 0, 63, 100
2, 37530, Note_on_c, 0, 63, 0
2, 37530, Note_on_c, 0, 62, 100
2, 37560, Note_on_c, 0, 62, 0
2, 37560, Note_on_c, 0, 63, 100
2, 37590, Note_on_c, 0, 63, 0
2, 37590, Note_on_c, 0, 66, 100
2, 37620, Note_on_c, 0, 66, 0
2, 37620, Note_on_c, 0, 67, 100
2, 37650, Note_on_c, 0, 67, 0
2, 37650, Note_on_c, 0, 62, 100
2, 37680, Note_on_c, 0, 62, 0
2, 37680, Note_on_c, 0, 61, 100
2, 37740, Note_on_c, 0, 61, 0
2, 37740, Note_on_c, 0, 62, 100
2, 37770, Note_on_c, 0, 62, 0
2, 37770, Note_on_c, 0, 60, 100
2, 37800, Note_on_c, 0, 60, 0
2, 37800, Note_on_c, 0, 62, 100
2, 37830, Note_on_c, 0, 62, 0
2, 37830, Note_on_c, 0, 64, 100
2, 37860, Note_on_c, 0, 64, 0
2, 37860, Note_on_c, 0, 65, 100
2, 37890, Note_on_c, 0, 65, 0
2, 37890, Note_on_c, 0, 60, 100
2, 37920, Note_on_c, 0, 60, 0
2, 37920, Note_on_c, 0, 59, 100
2, 37950, Note_on_c, 0, 59, 0
2, 37950, Note_on_c, 0, 68, 100
2, 37980, Note_on_c, 0, 68, 0
2, 37980, Note_on_c, 0, 67, 100
2, 38010, Note_on_c, 0, 67, 0
2, 38010, Note_on_c, 0, 65, 100
2, 38040, Note_on_c, 0, 65, 0
2, 38040, Note_on_c, 0, 67, 100
2, 38070, Note_on_c, 0, 67, 0
2, 38070, Note_on_c, 0, 62, 100
2, 38100, Note_on_c, 0, 62, 0
2, 38100, Note_on_c, 0, 63, 100
2, 38130, Note_on_c, 0, 63, 0
2, 38130, Note_on_c, 0, 59, 100
2, 38160, Note_on_c, 0, 59, 0
2, 38160, Note_on_c, 0, 60, 100
2, 38190, Note_on_c, 0, 60, 0
2, 38190, Note_on_c, 0, 68, 100
2, 38220, Note_on_c, 0, 68, 0
2, 38220, Note_on_c, 0, 67, 100
2, 38250, Note_on_c, 0, 67, 0
2, 38250, Note_on_c, 0, 65, 100
2, 38280, Note_on_c, 0, 65, 0
2, 38280, Note_on_c, 0, 67, 100
2, 38310, Note_on_c, 0, 67, 0
2, 38310, Note_on_c, 0, 62, 100
2, 38340, Note_on_c, 0, 62, 0
2, 38340, Note_on_c, 0, 63, 100
2, 38370, Note_on_c, 0, 63, 0
2, 38370, Note_on_c, 0, 60, 100
2, 38400, Note_on_c, 0, 60, 0
2, 38400, Note_on_c, 0, 54, 100
2, 38430, Note_on_c, 0, 54, 0
2, 38430, Note_on_c, 0, 57, 100
2, 38460, Note_on_c, 0, 57, 0
2, 38460, Note_on_c, 0, 60, 100
2, 38490, Note_on_c, 0, 60, 0
2, 38490, Note_on_c, 0, 63, 100
2, 38520, Note_on_c, 0, 63, 0
2, 38520, Note_on_c, 0, 62, 100
2, 38550, Note_on_c, 0, 62, 0
2, 38550, Note_on_c, 0, 60, 100
2, 38580, Note_on_c, 0, 60, 0
2, 38580, Note_on_c, 0, 69, 100
2, 38610, Note_on_c, 0, 69, 0
2, 38610, Note_on_c, 0, 60, 100
2, 38640, Note_on_c, 0, 60, 0
2, 38640, Note_on_c, 0, 62, 100
2, 38670, Note_on_c, 0, 62, 0
2, 38670, Note_on_c, 0, 63, 100
2, 38700, Note_on_c, 0, 63, 0
2, 38700, Note_on_c, 0, 57, 100
2, 38730, Note_on_c, 0, 57, 0
2, 38730, Note_on_c, 0, 58, 100
2, 38760, Note_on_c, 0, 58, 0
2, 38760, Note_on_c, 0, 60, 100
2, 38790, Note_on_c, 0, 60, 0
2, 38790, Note_on_c, 0, 54, 100
2, 38820, Note_on_c, 0, 54, 0
2, 38820, Note_on_c, 0, 55, 100
2, 38850, Note_on_c, 0, 55, 0
2, 38850, Note_on_c, 0, 57, 100
2, 38880, Note_on_c, 0, 57, 0
2, 38940, Note_on_c, 0, 62, 100
2, 39000, Note_on_c, 0, 62, 0
2, 39000, Note_on_c, 0, 62, 100
2, 39060, Note_on_c, 0, 62, 0
2, 39060, Note_on_c, 0, 62, 100
2, 39120, Note_on_c, 0, 62, 0
2, 39120, Note_on_c, 0, 62, 100
2, 39180, Note_on_c, 0, 62, 0
2, 39180, Note_on_c, 0, 60, 100
2, 39210, Note_on_c, 0, 60, 0
2, 39210, Note_on_c, 0, 59, 100
2, 39240, Note_on_c, 0, 59, 0
2, 39240, Note_on_c, 0, 60, 100
2, 39300, Note_on_c, 0, 60, 0
2, 39300, Note_on_c, 0, 69, 100
2, 39360, Note_on_c, 0, 69, 0
2, 39360, Note_on_c, 0, 60, 100
2, 39420, Note_on_c, 0, 60, 0
2, 39420, Note_on_c, 0, 60, 100
2, 39450, Note_on_c, 0, 60, 0
2, 39450, Note_on_c, 0, 58, 100
2, 39480, Note_on_c, 0, 58, 0
2, 39480, Note_on_c, 0, 60, 100
2, 39540, Note_on_c, 0, 60, 0
2, 39540, Note_on_c, 0, 69, 100
2, 39600, Note_on_c, 0, 69, 0
2, 39660, Note_on_c, 0, 58, 100
2, 39690, Note_on_c, 0, 58, 0
2, 39690, Note_on_c, 0, 57, 100
2, 39720, Note_on_c, 0, 57, 0
2, 39720, Note_on_c, 0, 58, 100
2, 39780, Note_on_c, 0, 58, 0
2, 39780, Note_on_c, 0, 67, 100
2, 39840, Note_on_c, 0, 67, 0
2, 39840, Note_on_c, 0, 70, 100
2, 39930, Note_on_c, 0, 70, 0
2, 39930, Note_on_c, 0, 69, 100
2, 39960, Note_on_c, 0, 69, 0
2, 39960, Note_on_c, 0, 67, 100
2, 39990, Note_on_c, 0, 67, 0
2, 39990, Note_on_c, 0, 66, 100
2, 40020, Note_on_c, 0, 66, 0
2, 40020, Note_on_c, 0, 67, 100
2, 40050, Note_on_c, 0, 67, 0
2, 40050, Note_on_c, 0, 69, 100
2, 40080, Note_on_c, 0, 69, 0
2, 40080, Note_on_c, 0, 66, 100
2, 40140, Note_on_c, 0, 66, 0
2, 40200, Note_on_c, 0, 67, 100
2, 40260, Note_on_c, 0, 67, 0
2, 40260, Note_on_c, 0, 67, 100
2, 40320, Note_on_c, 0, 67, 0
2, 40320, Note_on_c, 0, 67, 100
2, 40440, Note_on_c, 0, 67, 0
2, 40440, Note_on_c, 0, 66, 100
2, 40560, Note_on_c, 0, 66, 0
2, 40560, Note_on_c, 0, 65, 100
2, 40680, Note_on_c, 0, 65, 0
2, 40680, Note_on_c, 0, 64, 100
2, 40800, Note_on_c, 0, 64, 0
2, 40800, Note_on_c, 0, 63, 100
2, 40860, Note_on_c, 0, 63, 0
2, 40860, Note_on_c, 0, 62, 100
2, 40920, Note_on_c, 0, 62, 0
2, 40920, Note_on_c, 0, 62, 100
2, 40980, Note_on_c, 0, 62, 0
2, 40980, Note_on_c, 0, 70, 100
2, 41040, Note_on_c, 0, 70, 0
2, 41040, Note_on_c, 0, 67, 100
2, 41160, Note_on_c, 0, 67, 0
2, 41160, Note_on_c, 0, 68, 100
2, 41190, Note_on_c, 0, 68, 0
2, 41190, Note_on_c, 0, 65, 100
2, 41220, Note_on_c, 0, 65, 0
2, 41220, Note_on_c, 0, 67, 100
2, 41280, Note_on_c, 0, 67, 0
2, 41280, Note_on_c, 0, 66, 100
2, 41460, Note_on_c, 0, 66, 0
2, 41460, Note_on_c, 0, 66, 100
2, 41520, Note_on_c, 0, 66, 0
2, 41520, Note_on_c, 0, 67, 100
2, 41580, Note_on_c, 0, 67, 0
2, 41580, Note_on_c, 0, 69, 100
2, 41640, Note_on_c, 0, 69, 0
2, 41640, Note_on_c, 0, 70, 100
2, 41700, Note_on_c, 0, 70, 0
2, 41700, Note_on_c, 0, 66, 100
2, 41760, Note_on_c, 0, 66, 0
2, 41760, Note_on_c, 0, 66, 100
2, 41820, Note_on_c, 0, 66, 0
2, 41820, Note_on_c, 0, 67, 100
2, 41880, Note_on_c, 0, 67, 0
2, 41880, Note_on_c, 0, 67, 100
2, 41940, Note_on_c, 0, 67, 0
2, 41940, Note_on_c, 0, 67, 100
2, 42000, Note_on_c, 0, 67, 0
2, 42000, Note_on_c, 0, 67, 100
2, 42090, Note_on_c, 0, 67, 0
2, 42090, Note_on_c, 0, 69, 100
2, 42120, Note_on_c, 0, 69, 0
2, 42120, Note_on_c, 0, 66, 100
2, 42210, Note_on_c, 0, 66, 0
2, 42210, Note_on_c, 0, 67, 100
2, 42240, Note_on_c, 0, 67, 0
2, 42270, Note_on_c, 0, 55, 100
2, 42300, Note_on_c, 0, 55, 0
2, 42300, Note_on_c, 0, 58, 100
2, 42330, Note_on_c, 0, 58, 0
2, 42330, Note_on_c, 0, 62, 100
2, 42360, Note_on_c, 0, 62, 0
2, 42360, Note_on_c, 0, 67, 100
2, 42390, Note_on_c, 0, 67, 0
2, 42390, Note_on_c, 0, 62, 100
2, 42420, Note_on_c, 0, 62, 0
2, 42420, Note_on_c, 0, 58, 100
2, 42450, Note_on_c, 0, 58, 0
2, 42450, Note_on_c, 0, 55, 100
2, 42480, Note_on_c, 0, 55, 0
2, 42480, Note_on_c, 0, 57, 100
2, 42510, Note_on_c, 0, 57, 0
2, 42510, Note_on_c, 0, 67, 100
2, 42540, Note_on_c, 0, 67, 0
2, 42540, Note_on_c, 0, 65, 100
2, 42570, Note_on_c, 0, 65, 0
2, 42570, Note_on_c, 0, 63, 100
2, 42600, Note_on_c, 0, 63, 0
2, 42600, Note_on_c, 0, 65, 100
2, 42630, Note_on_c, 0, 65, 0
2, 42630, Note_on_c, 0, 62, 100
2, 42660, Note_on_c, 0, 62, 0
2, 42660, Note_on_c, 0, 59, 100
2, 42690, Note_on_c, 0, 59, 0
2, 42690, Note_on_c, 0, 55, 100
2, 42720, Note_on_c, 0, 55, 0
2, 42750, Note_on_c, 0, 55, 100
2, 42780, Note_on_c, 0, 55, 0
2, 42780, Note_on_c, 0, 60, 100
2, 42810, Note_on_c, 0, 60, 0
2, 42810, Note_on_c, 0, 62, 100
2, 42840, Note_on_c, 0, 62, 0
2, 42840, Note_on_c, 0, 63, 100
2, 42870, Note_on_c, 0, 63, 0
2, 42870, Note_on_c, 0, 60, 100
2, 42900, Note_on_c, 0, 60, 0
2, 42900, Note_on_c, 0, 56, 100
2, 42930, Note_on_c, 0, 56, 0
2, 42930, Note_on_c, 0, 55, 100
2, 42960, Note_on_c, 0, 55, 0
2, 42960, Note_on_c, 0, 54, 100
2, 42990, Note_on_c, 0, 54, 0
2, 42990, Note_on_c, 0, 63, 100
2, 43020, Note_on_c, 0, 63, 0
2, 43020, Note_on_c, 0, 62, 100
2, 43050, Note_on_c, 0, 62, 0
2, 43050, Note_on_c, 0, 60, 100
2, 43080, Note_on_c, 0, 60, 0
2, 43080, Note_on_c, 0, 62, 100
2, 43110, Note_on_c, 0, 62, 0
2, 43110, Note_on_c, 0, 58, 100
2, 43140, Note_on_c, 0, 58, 0
2, 43140, Note_on_c, 0, 55, 100
2, 43170, Note_on_c, 0, 55, 0
2, 43170, Note_on_c, 0, 53, 100
2, 43200, Note_on_c, 0, 53, 0
2, 43230, Note_on_c, 0, 51, 100
2, 43260, Note_on_c, 0, 51, 0
2, 43260, Note_on_c, 0, 54, 100
2, 43290, Note_on_c, 0, 54, 0
2, 43290, Note_on_c, 0, 59, 100
2, 43320, Note_on_c, 0, 59, 0
2, 43320, Note_on_c, 0, 60, 100
2, 43350, Note_on_c, 0, 60, 0
2, 43350, Note_on_c, 0, 63, 100
2, 43380, Note_on_c, 0, 63, 0
2, 43380, Note_on_c, 0, 56, 100
2, 43410, Note_on_c, 0, 56, 0
2, 43410, Note_on_c, 0, 55, 100
2, 43440, Note_on_c, 0, 55, 0
2, 43470, Note_on_c, 0, 50, 100
2, 43500, Note_on_c, 0, 50, 0
2, 43500, Note_on_c, 0, 54, 100
2, 43530, Note_on_c, 0, 54, 0
2, 43530, Note_on_c, 0, 57, 100
2, 43560, Note_on_c, 0, 57, 0
2, 43560, Note_on_c, 0, 60, 100
2, 43590, Note_on_c, 0, 60, 0
2, 43590, Note_on_c, 0, 63, 100
2, 43620, Note_on_c, 0, 63, 0
2, 43620, Note_on_c, 0, 66, 100
2, 43650, Note_on_c, 0, 66, 0
2, 43650, Note_on_c, 0, 69, 100
2, 43680, Note_on_c, 0, 69, 0
2, 43710, Note_on_c, 0, 50, 100
2, 43740, Note_on_c, 0, 50, 0
2, 43740, Note_on_c, 0, 55, 100
2, 43770, Note_on_c, 0, 55, 0
2, 43770, Note_on_c, 0, 58, 100
2, 43800, Note_on_c, 0, 58, 0
2, 43800, Note_on_c, 0, 62, 100
2, 43830, Note_on_c, 0, 62, 0
2, 43830, Note_on_c, 0, 66, 100
2, 43860, Note_on_c, 0, 66, 0
2, 43860, Note_on_c, 0, 67, 100
2, 43890, Note_on_c, 0, 67, 0
2, 43890, Note_on_c, 0, 70, 100
2, 43920, Note_on_c, 0, 70, 0
2, 43950, Note_on_c, 0, 51, 100
2, 43980, Note_on_c, 0, 51, 0
2, 43980, Note_on_c, 0, 55, 100
2, 44010, Note_on_c, 0, 55, 0
2, 44010, Note_on_c, 0, 60, 100
2, 44040, Note_on_c, 0, 60, 0
2, 44040, Note_on_c, 0, 63, 100
2, 44070, Note_on_c, 0, 63, 0
2, 44070, Note_on_c, 0, 67, 100
2, 44100, Note_on_c, 0, 67, 0
2, 44100, Note_on_c, 0, 69, 100
2, 44130, Note_on_c, 0, 69, 0
2, 44130, Note_on_c, 0, 72, 100
2, 44160, Note_on_c, 0, 72, 0
2, 44190, Note_on_c, 0, 72, 100
2, 44220, Note_on_c, 0, 72, 0
2, 44220, Note_on_c, 0, 70, 100
2, 44250, Note_on_c, 0, 70, 0
2, 44250, Note_on_c, 0, 62, 100
2, 44280, Note_on_c, 0, 62, 0
2, 44280, Note_on_c, 0, 61, 100
2, 44310, Note_on_c, 0, 61, 0
2, 44310, Note_on_c, 0, 70, 100
2, 44340, Note_on_c, 0, 70, 0
2, 44340, Note_on_c, 0, 69, 100
2, 44370, Note_on_c, 0, 69, 0
2, 44370, Note_on_c, 0, 60, 100
2, 44400, Note_on_c, 0, 60, 0
2, 44400, Note_on_c, 0, 59, 100
2, 44430, Note_on_c, 0, 59, 0
2, 44430, Note_on_c, 0, 69, 100
2, 44460, Note_on_c, 0, 69, 0
2, 44460, Note_on_c, 0, 67, 100
2, 44490, Note_on_c, 0, 67, 0
2, 44490, Note_on_c, 0, 58, 100
2, 44520, Note_on_c, 0, 58, 0
2, 44520, Note_on_c, 0, 57, 100
2, 44550, Note_on_c, 0, 57, 0
2, 44550, Note_on_c, 0, 67, 100
2, 44580, Note_on_c, 0, 67, 0
2, 44580, Note_on_c, 0, 65, 100
2, 44610, Note_on_c, 0, 65, 0
2, 44610, Note_on_c, 0, 56, 100
2, 44640, Note_on_c, 0, 56, 0
2, 44640, Note_on_c, 0, 55, 100
2, 44670, Note_on_c, 0, 55, 0
2, 44670, Note_on_c, 0, 65, 100
2, 44700, Note_on_c, 0, 65, 0
2, 44700, Note_on_c, 0, 63, 100
2, 44730, Note_on_c, 0, 63, 0
2, 44730, Note_on_c, 0, 55, 100
2, 44760, Note_on_c, 0, 55, 0
2, 44760, Note_on_c, 0, 54, 100
2, 44790, Note_on_c, 0, 54, 0
2, 44790, Note_on_c, 0, 63, 100
2, 44820, Note_on_c, 0, 63, 0
2, 44820, Note_on_c, 0, 62, 100
2, 44850, Note_on_c, 0, 62, 0
2, 44850, Note_on_c, 0, 53, 100
2, 44880, Note_on_c, 0, 53, 0
2, 44880, Note_on_c, 0, 52, 100
2, 44910, Note_on_c, 0, 52, 0
2, 44910, Note_on_c, 0, 62, 100
2, 44940, Note_on_c, 0, 62, 0
2, 44940, Note_on_c, 0, 60, 100
2, 44970, Note_on_c, 0, 60, 0
2, 44970, Note_on_c, 0, 59, 100
2, 45000, Note_on_c, 0, 59, 0
2, 45000, Note_on_c, 0, 60, 100
2, 45030, Note_on_c, 0, 60, 0
2, 45030, Note_on_c, 0, 51, 100
2, 45060, Note_on_c, 0, 51, 0
2, 45060, Note_on_c, 0, 50, 100
2, 45090, Note_on_c, 0, 50, 0
2, 45090, Note_on_c, 0, 48, 100
2, 45120, Note_on_c, 0, 48, 0
2, 45120, Note_on_c, 0, 54, 100
2, 45300, Note_on_c, 0, 54, 0
2, 45300, Note_on_c, 0, 66, 100
2, 45308, Note_on_c, 0, 66, 0
2, 45308, Note_on_c, 0, 67, 100
2, 45316, Note_on_c, 0, 67, 0
2, 45316, Note_on_c, 0, 69, 100
2, 45324, Note_on_c, 0, 69, 0
2, 45324, Note_on_c, 0, 66, 100
2, 45331, Note_on_c, 0, 66, 0
2, 45331, Note_on_c, 0, 67, 100
2, 45338, Note_on_c, 0, 67, 0
2, 45338, Note_on_c, 0, 69, 100
2, 45345, Note_on_c, 0, 69, 0
2, 45345, Note_on_c, 0, 60, 100
2, 45353, Note_on_c, 0, 60, 0
2, 45353, Note_on_c, 0, 62, 100
2, 45361, Note_on_c, 0, 62, 0
2, 45361, Note_on_c, 0, 63, 100
2, 45369, Note_on_c, 0, 63, 0
2, 45369, Note_on_c, 0, 60, 100
2, 45376, Note_on_c, 0, 60, 0
2, 45376, Note_on_c, 0, 62, 100
2, 45383, Note_on_c, 0, 62, 0
2, 45383, Note_on_c, 0, 63, 100
2, 45390, Note_on_c, 0, 63, 0
2, 45390, Note_on_c, 0, 57, 100
2, 45398, Note_on_c, 0, 57, 0
2, 45398, Note_on_c, 0, 58, 100
2, 45406, Note_on_c, 0, 58, 0
2, 45406, Note_on_c, 0, 60, 100
2, 45414, Note_on_c, 0, 60, 0
2, 45414, Note_on_c, 0, 57, 100
2, 45421, Note_on_c, 0, 57, 0
2, 45421, Note_on_c, 0, 58, 100
2, 45428, Note_on_c, 0, 58, 0
2, 45428, Note_on_c, 0, 60, 100
2, 45435, Note_on_c, 0, 60, 0
2, 45435, Note_on_c, 0, 54, 100
2, 45443, Note_on_c, 0, 54, 0
2, 45443, Note_on_c, 0, 55, 100
2, 45451, Note_on_c, 0, 55, 0
2, 45451, Note_on_c, 0, 57, 100
2, 45459, Note_on_c, 0, 57, 0
2, 45459, Note_on_c, 0, 54, 100
2, 45466, Note_on_c, 0, 54, 0
2, 45466, Note_on_c, 0, 55, 100
2, 45473, Note_on_c, 0, 55, 0
2, 45473, Note_on_c, 0, 57, 100
2, 45480, Note_on_c, 0, 57, 0
2, 45480, Note_on_c, 0, 58, 100
2, 45540, Note_on_c, 0, 58, 0
2, 45540, Note_on_c, 0, 67, 100
2, 45600, Note_on_c, 0, 67, 0
2, 45600, Note_on_c, 0, 67, 100
2, 45630, Note_on_c, 0, 67, 0
2, 45630, Note_on_c, 0, 67, 100
2, 45645, Note_on_c, 0, 67, 0
2, 45645, Note_on_c, 0, 69, 100
2, 45660, Note_on_c, 0, 69, 0
2, 45660, Note_on_c, 0, 67, 100
2, 45675, Note_on_c, 0, 67, 0
2, 45675, Note_on_c, 0, 66, 100
2, 45690, Note_on_c, 0, 66, 0
2, 45690, Note_on_c, 0, 67, 100
2, 45698, Note_on_c, 0, 67, 0
2, 45698, Note_on_c, 0, 64, 100
2, 45705, Note_on_c, 0, 64, 0
2, 45705, Note_on_c, 0, 66, 100
2, 45720, Note_on_c, 0, 66, 0
2, 45720, Note_on_c, 0, 66, 100
2, 45810, Note_on_c, 0, 66, 0
2, 45810, Note_on_c, 0, 67, 100
2, 45840, Note_on_c, 0, 67, 0
2, 45840, Note_on_c, 0, 62, 100
2, 45840, Note_on_c, 0, 67, 100
2, 46080, Note_on_c, 0, 67, 0
2, 46080, Note_on_c, 0, 62, 0
2, 46080, End_track
3, 0, Start_track
3, 0, MIDI_port, 0
3, 0, Title_t, "--------------------------------------"
3, 0, Program_c, 1, 6
3, 0, Control_c, 1, 7, 127
3, 0, Control_c, 1, 10, 50
3, 540, Note_on_c, 1, 55, 100
3, 600, Note_on_c, 1, 55, 0
3, 600, Note_on_c, 1, 55, 100
3, 660, Note_on_c, 1, 55, 0
3, 660, Note_on_c, 1, 55, 100
3, 720, Note_on_c, 1, 55, 0
3, 720, Note_on_c, 1, 55, 100
3, 780, Note_on_c, 1, 55, 0
3, 780, Note_on_c, 1, 53, 100
3, 810, Note_on_c, 1, 53, 0
3, 810, Note_on_c, 1, 51, 100
3, 840, Note_on_c, 1, 51, 0
3, 840, Note_on_c, 1, 53, 100
3, 900, Note_on_c, 1, 53, 0
3, 900, Note_on_c, 1, 50, 100
3, 960, Note_on_c, 1, 50, 0
3, 960, Note_on_c, 1, 51, 100
3, 1080, Note_on_c, 1, 51, 0
3, 1080, Note_on_c, 1, 51, 100
3, 1140, Note_on_c, 1, 51, 0
3, 1140, Note_on_c, 1, 50, 100
3, 1170, Note_on_c, 1, 50, 0
3, 1170, Note_on_c, 1, 48, 100
3, 1200, Note_on_c, 1, 48, 0
3, 1200, Note_on_c, 1, 50, 100
3, 1320, Note_on_c, 1, 50, 0
3, 1320, Note_on_c, 1, 54, 100
3, 1440, Note_on_c, 1, 54, 0
3, 1440, Note_on_c, 1, 55, 100
3, 1560, Note_on_c, 1, 55, 0
3, 1560, Note_on_c, 1, 55, 100
3, 1620, Note_on_c, 1, 55, 0
3, 1620, Note_on_c, 1, 54, 100
3, 1680, Note_on_c, 1, 54, 0
3, 1680, Note_on_c, 1, 55, 100
3, 1800, Note_on_c, 1, 55, 0
3, 2220, Note_on_c, 1, 48, 100
3, 2280, Note_on_c, 1, 48, 0
3, 2280, Note_on_c, 1, 48, 100
3, 2340, Note_on_c, 1, 48, 0
3, 2340, Note_on_c, 1, 48, 100
3, 2400, Note_on_c, 1, 48, 0
3, 2400, Note_on_c, 1, 48, 100
3, 2460, Note_on_c, 1, 48, 0
3, 2460, Note_on_c, 1, 46, 100
3, 2490, Note_on_c, 1, 46, 0
3, 2490, Note_on_c, 1, 45, 100
3, 2520, Note_on_c, 1, 45, 0
3, 2520, Note_on_c, 1, 46, 100
3, 2580, Note_on_c, 1, 46, 0
3, 2580, Note_on_c, 1, 43, 100
3, 2640, Note_on_c, 1, 43, 0
3, 2640, Note_on_c, 1, 45, 100
3, 2760, Note_on_c, 1, 45, 0
3, 2760, Note_on_c, 1, 50, 100
3, 2880, Note_on_c, 1, 50, 0
3, 2940, Note_on_c, 1, 43, 100
3, 3000, Note_on_c, 1, 43, 0
3, 3000, Note_on_c, 1, 43, 100
3, 3060, Note_on_c, 1, 43, 0
3, 3060, Note_on_c, 1, 43, 100
3, 3120, Note_on_c, 1, 43, 0
3, 3120, Note_on_c, 1, 43, 100
3, 3180, Note_on_c, 1, 43, 0
3, 3180, Note_on_c, 1, 41, 100
3, 3210, Note_on_c, 1, 41, 0
3, 3210, Note_on_c, 1, 39, 100
3, 3240, Note_on_c, 1, 39, 0
3, 3240, Note_on_c, 1, 41, 100
3, 3300, Note_on_c, 1, 41, 0
3, 3300, Note_on_c, 1, 38, 100
3, 3360, Note_on_c, 1, 38, 0
3, 3360, Note_on_c, 1, 39, 100
3, 3480, Note_on_c, 1, 39, 0
3, 3600, Note_on_c, 1, 38, 100
3, 3720, Note_on_c, 1, 38, 0
3, 3840, Note_on_c, 1, 50, 100
3, 3960, Note_on_c, 1, 50, 0
3, 4080, Note_on_c, 1, 43, 100
3, 4200, Note_on_c, 1, 43, 0
3, 4320, Note_on_c, 1, 48, 100
3, 4440, Note_on_c, 1, 48, 0
3, 4560, Note_on_c, 1, 41, 100
3, 4680, Note_on_c, 1, 41, 0
3, 4800, Note_on_c, 1, 46, 100
3, 4920, Note_on_c, 1, 46, 0
3, 5280, Note_on_c, 1, 38, 100
3, 5400, Note_on_c, 1, 38, 0
3, 5520, Note_on_c, 1, 43, 100
3, 5640, Note_on_c, 1, 43, 0
3, 5760, Note_on_c, 1, 50, 100
3, 5820, Note_on_c, 1, 50, 0
3, 5820, Note_on_c, 1, 43, 100
3, 5880, Note_on_c, 1, 43, 0
3, 5880, Note_on_c, 1, 43, 100
3, 5940, Note_on_c, 1, 43, 0
3, 5940, Note_on_c, 1, 43, 100
3, 6000, Note_on_c, 1, 43, 0
3, 6000, Note_on_c, 1, 39, 100
3, 6120, Note_on_c, 1, 39, 0
3, 6120, Note_on_c, 1, 41, 100
3, 6180, Note_on_c, 1, 41, 0
3, 6180, Note_on_c, 1, 41, 100
3, 6240, Note_on_c, 1, 41, 0
3, 6240, Note_on_c, 1, 41, 100
3, 6360, Note_on_c, 1, 41, 0
3, 6360, Note_on_c, 1, 39, 100
3, 6420, Note_on_c, 1, 39, 0
3, 6420, Note_on_c, 1, 38, 100
3, 6480, Note_on_c, 1, 38, 0
3, 6480, Note_on_c, 1, 36, 100
3, 6600, Note_on_c, 1, 36, 0
3, 7200, Note_on_c, 1, 55, 100
3, 7320, Note_on_c, 1, 55, 0
3, 12300, Note_on_c, 1, 50, 100
3, 12360, Note_on_c, 1, 50, 0
3, 12360, Note_on_c, 1, 50, 100
3, 12420, Note_on_c, 1, 50, 0
3, 12420, Note_on_c, 1, 50, 100
3, 12480, Note_on_c, 1, 50, 0
3, 12480, Note_on_c, 1, 50, 100
3, 12540, Note_on_c, 1, 50, 0
3, 12540, Note_on_c, 1, 48, 100
3, 12570, Note_on_c, 1, 48, 0
3, 12570, Note_on_c, 1, 46, 100
3, 12600, Note_on_c, 1, 46, 0
3, 12600, Note_on_c, 1, 48, 100
3, 12660, Note_on_c, 1, 48, 0
3, 12660, Note_on_c, 1, 45, 100
3, 12720, Note_on_c, 1, 45, 0
3, 12720, Note_on_c, 1, 46, 100
3, 12840, Note_on_c, 1, 46, 0
3, 12840, Note_on_c, 1, 43, 100
3, 12960, Note_on_c, 1, 43, 0
3, 12960, Note_on_c, 1, 45, 100
3, 13140, Note_on_c, 1, 45, 0
3, 13140, Note_on_c, 1, 47, 100
3, 13200, Note_on_c, 1, 47, 0
3, 13200, Note_on_c, 1, 48, 100
3, 13320, Note_on_c, 1, 48, 0
3, 13380, Note_on_c, 1, 45, 100
3, 13440, Note_on_c, 1, 45, 0
3, 13440, Note_on_c, 1, 38, 100
3, 13560, Note_on_c, 1, 38, 0
3, 13680, Note_on_c, 1, 38, 100
3, 13800, Note_on_c, 1, 38, 0
3, 13920, Note_on_c, 1, 44, 100
3, 14040, Note_on_c, 1, 44, 0
3, 14160, Note_on_c, 1, 43, 100
3, 14280, Note_on_c, 1, 43, 0
3, 14280, Note_on_c, 1, 41, 100
3, 14400, Note_on_c, 1, 41, 0
3, 14400, Note_on_c, 1, 46, 100
3, 14580, Note_on_c, 1, 46, 0
3, 14580, Note_on_c, 1, 52, 100
3, 14640, Note_on_c, 1, 52, 0
3, 14640, Note_on_c, 1, 45, 100
3, 14820, Note_on_c, 1, 45, 0
3, 14820, Note_on_c, 1, 50, 100
3, 14880, Note_on_c, 1, 50, 0
3, 14880, Note_on_c, 1, 55, 100
3, 15000, Note_on_c, 1, 55, 0
3, 15000, Note_on_c, 1, 53, 100
3, 15120, Note_on_c, 1, 53, 0
3, 15120, Note_on_c, 1, 52, 100
3, 15240, Note_on_c, 1, 52, 0
3, 15240, Note_on_c, 1, 52, 100
3, 15360, Note_on_c, 1, 52, 0
3, 15360, Note_on_c, 1, 50, 100
3, 15480, Note_on_c, 1, 50, 0
3, 15480, Note_on_c, 1, 50, 100
3, 15600, Note_on_c, 1, 50, 0
3, 15600, Note_on_c, 1, 48, 100
3, 15720, Note_on_c, 1, 48, 0
3, 15720, Note_on_c, 1, 48, 100
3, 15840, Note_on_c, 1, 48, 0
3, 15840, Note_on_c, 1, 46, 100
3, 15960, Note_on_c, 1, 46, 0
3, 15960, Note_on_c, 1, 46, 100
3, 16080, Note_on_c, 1, 46, 0
3, 16080, Note_on_c, 1, 45, 100
3, 16260, Note_on_c, 1, 45, 0
3, 16260, Note_on_c, 1, 45, 100
3, 16320, Note_on_c, 1, 45, 0
3, 16320, Note_on_c, 1, 45, 100
3, 16500, Note_on_c, 1, 45, 0
3, 16500, Note_on_c, 1, 45, 100
3, 16560, Note_on_c, 1, 45, 0
3, 16560, Note_on_c, 1, 45, 100
3, 16680, Note_on_c, 1, 45, 0
3, 16680, Note_on_c, 1, 45, 100
3, 16800, Note_on_c, 1, 45, 0
3, 16800, Note_on_c, 1, 43, 100
3, 16920, Note_on_c, 1, 43, 0
3, 17400, Note_on_c, 1, 62, 100
3, 17460, Note_on_c, 1, 62, 0
3, 17460, Note_on_c, 1, 55, 100
3, 17520, Note_on_c, 1, 55, 0
3, 17520, Note_on_c, 1, 57, 100
3, 17580, Note_on_c, 1, 57, 0
3, 17580, Note_on_c, 1, 55, 100
3, 17640, Note_on_c, 1, 55, 0
3, 17640, Note_on_c, 1, 57, 100
3, 17700, Note_on_c, 1, 57, 0
3, 17700, Note_on_c, 1, 53, 100
3, 17760, Note_on_c, 1, 53, 0
3, 17760, Note_on_c, 1, 55, 100
3, 17820, Note_on_c, 1, 55, 0
3, 17820, Note_on_c, 1, 53, 100
3, 17880, Note_on_c, 1, 53, 0
3, 17880, Note_on_c, 1, 55, 100
3, 17940, Note_on_c, 1, 55, 0
3, 17940, Note_on_c, 1, 52, 100
3, 18000, Note_on_c, 1, 52, 0
3, 18000, Note_on_c, 1, 53, 100
3, 18060, Note_on_c, 1, 53, 0
3, 18060, Note_on_c, 1, 52, 100
3, 18120, Note_on_c, 1, 52, 0
3, 18120, Note_on_c, 1, 53, 100
3, 18180, Note_on_c, 1, 53, 0
3, 18180, Note_on_c, 1, 50, 100
3, 18240, Note_on_c, 1, 50, 0
3, 18240, Note_on_c, 1, 52, 100
3, 18360, Note_on_c, 1, 52, 0
3, 18480, Note_on_c, 1, 57, 100
3, 18660, Note_on_c, 1, 57, 0
3, 18660, Note_on_c, 1, 57, 100
3, 18720, Note_on_c, 1, 57, 0
3, 18720, Note_on_c, 1, 50, 100
3, 18840, Note_on_c, 1, 50, 0
3, 18960, Note_on_c, 1, 50, 100
3, 19080, Note_on_c, 1, 50, 0
3, 19200, Note_on_c, 1, 50, 100
3, 19320, Note_on_c, 1, 50, 0
3, 19440, Note_on_c, 1, 50, 100
3, 19560, Note_on_c, 1, 50, 0
3, 19680, Note_on_c, 1, 38, 100
3, 19800, Note_on_c, 1, 38, 0
3, 19920, Note_on_c, 1, 38, 100
3, 20040, Note_on_c, 1, 38, 0
3, 20160, Note_on_c, 1, 38, 100
3, 20280, Note_on_c, 1, 38, 0
3, 20640, Note_on_c, 1, 50, 100
3, 20760, Note_on_c, 1, 50, 0
3, 20880, Note_on_c, 1, 45, 100
3, 21000, Note_on_c, 1, 45, 0
3, 21000, Note_on_c, 1, 50, 100
3, 21120, Note_on_c, 1, 50, 0
3, 21120, Note_on_c, 1, 43, 100
3, 21240, Note_on_c, 1, 43, 0
3, 21360, Note_on_c, 1, 38, 100
3, 21480, Note_on_c, 1, 38, 0
3, 21480, Note_on_c, 1, 43, 100
3, 21600, Note_on_c, 1, 43, 0
3, 21600, Note_on_c, 1, 36, 100
3, 21720, Note_on_c, 1, 36, 0
3, 21840, Note_on_c, 1, 43, 100
3, 21960, Note_on_c, 1, 43, 0
3, 21960, Note_on_c, 1, 36, 100
3, 22080, Note_on_c, 1, 36, 0
3, 22080, Note_on_c, 1, 41, 100
3, 22200, Note_on_c, 1, 41, 0
3, 22320, Note_on_c, 1, 39, 100
3, 22440, Note_on_c, 1, 39, 0
3, 22560, Note_on_c, 1, 38, 100
3, 22680, Note_on_c, 1, 38, 0
3, 22680, Note_on_c, 1, 36, 100
3, 22800, Note_on_c, 1, 36, 0
3, 22800, Note_on_c, 1, 34, 100
3, 22920, Note_on_c, 1, 34, 0
3, 22920, Note_on_c, 1, 44, 100
3, 23040, Note_on_c, 1, 44, 0
3, 23040, Note_on_c, 1, 43, 100
3, 23160, Note_on_c, 1, 43, 0
3, 23280, Note_on_c, 1, 43, 100
3, 23400, Note_on_c, 1, 43, 0
3, 23520, Note_on_c, 1, 43, 100
3, 23640, Note_on_c, 1, 43, 0
3, 23760, Note_on_c, 1, 43, 100
3, 23880, Note_on_c, 1, 43, 0
3, 24000, Note_on_c, 1, 44, 100
3, 24120, Note_on_c, 1, 44, 0
3, 24240, Note_on_c, 1, 44, 100
3, 24360, Note_on_c, 1, 44, 0
3, 24480, Note_on_c, 1, 44, 100
3, 24600, Note_on_c, 1, 44, 0
3, 24720, Note_on_c, 1, 44, 100
3, 24840, Note_on_c, 1, 44, 0
3, 24960, Note_on_c, 1, 43, 100
3, 25080, Note_on_c, 1, 43, 0
3, 25440, Note_on_c, 1, 43, 100
3, 25530, Note_on_c, 1, 43, 0
3, 25680, Note_on_c, 1, 43, 100
3, 25920, Note_on_c, 1, 43, 0
3, 25920, Note_on_c, 1, 43, 100
3, 26040, Note_on_c, 1, 43, 0
3, 26880, Note_on_c, 1, 36, 100
3, 26940, Note_on_c, 1, 36, 0
3, 26940, Note_on_c, 1, 48, 100
3, 27000, Note_on_c, 1, 48, 0
3, 27000, Note_on_c, 1, 48, 100
3, 27060, Note_on_c, 1, 48, 0
3, 27060, Note_on_c, 1, 48, 100
3, 27120, Note_on_c, 1, 48, 0
3, 27120, Note_on_c, 1, 48, 100
3, 27180, Note_on_c, 1, 48, 0
3, 27180, Note_on_c, 1, 46, 100
3, 27210, Note_on_c, 1, 46, 0
3, 27210, Note_on_c, 1, 45, 100
3, 27240, Note_on_c, 1, 45, 0
3, 27240, Note_on_c, 1, 46, 100
3, 27300, Note_on_c, 1, 46, 0
3, 27300, Note_on_c, 1, 43, 100
3, 27360, Note_on_c, 1, 43, 0
3, 27360, Note_on_c, 1, 45, 100
3, 27420, Note_on_c, 1, 45, 0
3, 27420, Note_on_c, 1, 53, 100
3, 27480, Note_on_c, 1, 53, 0
3, 27480, Note_on_c, 1, 53, 100
3, 27540, Note_on_c, 1, 53, 0
3, 27540, Note_on_c, 1, 53, 100
3, 27600, Note_on_c, 1, 53, 0
3, 27600, Note_on_c, 1, 53, 100
3, 27660, Note_on_c, 1, 53, 0
3, 27660, Note_on_c, 1, 51, 100
3, 27690, Note_on_c, 1, 51, 0
3, 27690, Note_on_c, 1, 50, 100
3, 27720, Note_on_c, 1, 50, 0
3, 27720, Note_on_c, 1, 51, 100
3, 27780, Note_on_c, 1, 51, 0
3, 27780, Note_on_c, 1, 48, 100
3, 27840, Note_on_c, 1, 48, 0
3, 27840, Note_on_c, 1, 50, 100
3, 27960, Note_on_c, 1, 50, 0
3, 27960, Note_on_c, 1, 55, 100
3, 28080, Note_on_c, 1, 55, 0
3, 28080, Note_on_c, 1, 48, 100
3, 28200, Note_on_c, 1, 48, 0
3, 28200, Note_on_c, 1, 53, 100
3, 28320, Note_on_c, 1, 53, 0
3, 28380, Note_on_c, 1, 46, 100
3, 28440, Note_on_c, 1, 46, 0
3, 28440, Note_on_c, 1, 46, 100
3, 28500, Note_on_c, 1, 46, 0
3, 28500, Note_on_c, 1, 46, 100
3, 28560, Note_on_c, 1, 46, 0
3, 28560, Note_on_c, 1, 41, 100
3, 28680, Note_on_c, 1, 41, 0
3, 28860, Note_on_c, 1, 36, 100
3, 28920, Note_on_c, 1, 36, 0
3, 28920, Note_on_c, 1, 36, 100
3, 28980, Note_on_c, 1, 36, 0
3, 28980, Note_on_c, 1, 36, 100
3, 29040, Note_on_c, 1, 36, 0
3, 29040, Note_on_c, 1, 43, 100
3, 29160, Note_on_c, 1, 43, 0
3, 29280, Note_on_c, 1, 41, 100
3, 29400, Note_on_c, 1, 41, 0
3, 29400, Note_on_c, 1, 39, 100
3, 29520, Note_on_c, 1, 39, 0
3, 29520, Note_on_c, 1, 38, 100
3, 29640, Note_on_c, 1, 38, 0
3, 29640, Note_on_c, 1, 36, 100
3, 29760, Note_on_c, 1, 36, 0
3, 29760, Note_on_c, 1, 34, 100
3, 29820, Note_on_c, 1, 34, 0
3, 29820, Note_on_c, 1, 46, 100
3, 29880, Note_on_c, 1, 46, 0
3, 29880, Note_on_c, 1, 46, 100
3, 29940, Note_on_c, 1, 46, 0
3, 29940, Note_on_c, 1, 46, 100
3, 30000, Note_on_c, 1, 46, 0
3, 30000, Note_on_c, 1, 43, 100
3, 30120, Note_on_c, 1, 43, 0
3, 30120, Note_on_c, 1, 33, 100
3, 30180, Note_on_c, 1, 33, 0
3, 30180, Note_on_c, 1, 34, 100
3, 30240, Note_on_c, 1, 34, 0
3, 30240, Note_on_c, 1, 36, 100
3, 30300, Note_on_c, 1, 36, 0
3, 30300, Note_on_c, 1, 38, 100
3, 30360, Note_on_c, 1, 38, 0
3, 30360, Note_on_c, 1, 38, 100
3, 30420, Note_on_c, 1, 38, 0
3, 30420, Note_on_c, 1, 38, 100
3, 30480, Note_on_c, 1, 38, 0
3, 30480, Note_on_c, 1, 43, 100
3, 30600, Note_on_c, 1, 43, 0
3, 30600, Note_on_c, 1, 45, 100
3, 30660, Note_on_c, 1, 45, 0
3, 30660, Note_on_c, 1, 46, 100
3, 30720, Note_on_c, 1, 46, 0
3, 30720, Note_on_c, 1, 39, 100
3, 30840, Note_on_c, 1, 39, 0
3, 30840, Note_on_c, 1, 41, 100
3, 31020, Note_on_c, 1, 41, 0
3, 31020, Note_on_c, 1, 38, 100
3, 31050, Note_on_c, 1, 38, 0
3, 31050, Note_on_c, 1, 39, 100
3, 31080, Note_on_c, 1, 39, 0
3, 31080, Note_on_c, 1, 41, 100
3, 31200, Note_on_c, 1, 41, 0
3, 31200, Note_on_c, 1, 34, 100
3, 31320, Note_on_c, 1, 34, 0
3, 38880, Note_on_c, 1, 50, 100
3, 39000, Note_on_c, 1, 50, 0
3, 39000, Note_on_c, 1, 53, 100
3, 39120, Note_on_c, 1, 53, 0
3, 39120, Note_on_c, 1, 51, 100
3, 39180, Note_on_c, 1, 51, 0
3, 39180, Note_on_c, 1, 51, 100
3, 39210, Note_on_c, 1, 51, 0
3, 39210, Note_on_c, 1, 50, 100
3, 39240, Note_on_c, 1, 50, 0
3, 39240, Note_on_c, 1, 51, 100
3, 39360, Note_on_c, 1, 51, 0
3, 39360, Note_on_c, 1, 54, 100
3, 39420, Note_on_c, 1, 54, 0
3, 39420, Note_on_c, 1, 57, 100
3, 39450, Note_on_c, 1, 57, 0
3, 39450, Note_on_c, 1, 55, 100
3, 39480, Note_on_c, 1, 55, 0
3, 39480, Note_on_c, 1, 57, 100
3, 39600, Note_on_c, 1, 57, 0
3, 39660, Note_on_c, 1, 55, 100
3, 39690, Note_on_c, 1, 55, 0
3, 39690, Note_on_c, 1, 53, 100
3, 39720, Note_on_c, 1, 53, 0
3, 39720, Note_on_c, 1, 55, 100
3, 39840, Note_on_c, 1, 55, 0
3, 39840, Note_on_c, 1, 64, 100
3, 39840, Note_on_c, 1, 61, 100
3, 39960, Note_on_c, 1, 61, 0
3, 39960, Note_on_c, 1, 64, 0
3, 40080, Note_on_c, 1, 60, 100
3, 40140, Note_on_c, 1, 60, 0
3, 40140, Note_on_c, 1, 58, 100
3, 40200, Note_on_c, 1, 58, 0
3, 40200, Note_on_c, 1, 58, 100
3, 40260, Note_on_c, 1, 58, 0
3, 40260, Note_on_c, 1, 58, 100
3, 40320, Note_on_c, 1, 58, 0
3, 40320, Note_on_c, 1, 57, 100
3, 40440, Note_on_c, 1, 57, 0
3, 40440, Note_on_c, 1, 57, 100
3, 40560, Note_on_c, 1, 57, 0
3, 40560, Note_on_c, 1, 55, 100
3, 40680, Note_on_c, 1, 55, 0
3, 40680, Note_on_c, 1, 54, 100
3, 40800, Note_on_c, 1, 54, 0
3, 40801, Note_on_c, 1, 53, 100
3, 40980, Note_on_c, 1, 62, 100
3, 40981, Note_on_c, 1, 53, 0
3, 41040, Note_on_c, 1, 62, 0
3, 41040, Note_on_c, 1, 62, 100
3, 41100, Note_on_c, 1, 62, 0
3, 41100, Note_on_c, 1, 60, 100
3, 41130, Note_on_c, 1, 60, 0
3, 41130, Note_on_c, 1, 58, 100
3, 41160, Note_on_c, 1, 58, 0
3, 41160, Note_on_c, 1, 60, 100
3, 41220, Note_on_c, 1, 60, 0
3, 41220, Note_on_c, 1, 60, 100
3, 41280, Note_on_c, 1, 60, 0
3, 41280, Note_on_c, 1, 60, 100
3, 41340, Note_on_c, 1, 60, 0
3, 41340, Note_on_c, 1, 63, 100
3, 41370, Note_on_c, 1, 63, 0
3, 41370, Note_on_c, 1, 60, 100
3, 41400, Note_on_c, 1, 60, 0
3, 41400, Note_on_c, 1, 62, 100
3, 41460, Note_on_c, 1, 62, 0
3, 41460, Note_on_c, 1, 57, 100
3, 41520, Note_on_c, 1, 57, 0
3, 41520, Note_on_c, 1, 58, 100
3, 41580, Note_on_c, 1, 58, 0
3, 41580, Note_on_c, 1, 63, 100
3, 41610, Note_on_c, 1, 63, 0
3, 41610, Note_on_c, 1, 60, 100
3, 41640, Note_on_c, 1, 60, 0
3, 41640, Note_on_c, 1, 62, 100
3, 41700, Note_on_c, 1, 62, 0
3, 41700, Note_on_c, 1, 57, 100
3, 41700, Note_on_c, 1, 62, 100
3, 41760, Note_on_c, 1, 62, 0
3, 41760, Note_on_c, 1, 57, 0
3, 41760, Note_on_c, 1, 57, 100
3, 41820, Note_on_c, 1, 57, 0
3, 41820, Note_on_c, 1, 58, 100
3, 41880, Note_on_c, 1, 58, 0
3, 41880, Note_on_c, 1, 58, 100
3, 41940, Note_on_c, 1, 58, 0
3, 41940, Note_on_c, 1, 58, 100
3, 42000, Note_on_c, 1, 58, 0
3, 42000, Note_on_c, 1, 58, 100
3, 42090, Note_on_c, 1, 58, 0
3, 42090, Note_on_c, 1, 60, 100
3, 42120, Note_on_c, 1, 60, 0
3, 42120, Note_on_c, 1, 57, 100
3, 42240, Note_on_c, 1, 57, 0
3, 45120, Note_on_c, 1, 60, 100
3, 45300, Note_on_c, 1, 60, 0
3, 45480, Note_on_c, 1, 55, 100
3, 45540, Note_on_c, 1, 55, 0
3, 45540, Note_on_c, 1, 61, 100
3, 45600, Note_on_c, 1, 61, 0
3, 45600, Note_on_c, 1, 62, 100
3, 45600, Note_on_c, 1, 57, 100
3, 45720, Note_on_c, 1, 57, 0
3, 45720, Note_on_c, 1, 62, 0
3, 45720, Note_on_c, 1, 57, 100
3, 45840, Note_on_c, 1, 57, 0
3, 45840, Note_on_c, 1, 58, 100
3, 45840, Note_on_c, 1, 55, 100
3, 46080, Note_on_c, 1, 55, 0
3, 46080, Note_on_c, 1, 58, 0
3, 46080, End_track
4, 0, Start_track
4, 0, MIDI_port, 0
4, 0, Title_t, "Johann Sebastian Bach   (1685-1750)"
4, 0, Program_c, 2, 6
4, 0, Control_c, 2, 7, 127
4, 0, Control_c, 2, 10, 78
4, 1260, Note_on_c, 2, 38, 100
4, 1320, Note_on_c, 2, 38, 0
4, 1320, Note_on_c, 2, 38, 100
4, 1380, Note_on_c, 2, 38, 0
4, 1380, Note_on_c, 2, 38, 100
4, 1440, Note_on_c, 2, 38, 0
4, 1440, Note_on_c, 2, 38, 100
4, 1500, Note_on_c, 2, 38, 0
4, 1500, Note_on_c, 2, 36, 100
4, 1530, Note_on_c, 2, 36, 0
4, 1530, Note_on_c, 2, 34, 100
4, 1560, Note_on_c, 2, 34, 0
4, 1560, Note_on_c, 2, 36, 100
4, 1620, Note_on_c, 2, 36, 0
4, 1620, Note_on_c, 2, 33, 100
4, 1680, Note_on_c, 2, 33, 0
4, 1680, Note_on_c, 2, 34, 100
4, 1860, Note_on_c, 2, 34, 0
4, 1860, Note_on_c, 2, 36, 100
4, 1920, Note_on_c, 2, 36, 0
4, 1920, Note_on_c, 2, 38, 100
4, 2100, Note_on_c, 2, 38, 0
4, 2100, Note_on_c, 2, 43, 100
4, 2160, Note_on_c, 2, 43, 0
4, 2160, Note_on_c, 2, 36, 100
4, 2220, Note_on_c, 2, 36, 0
4, 10380, Note_on_c, 2, 57, 100
4, 10440, Note_on_c, 2, 57, 0
4, 10440, Note_on_c, 2, 57, 100
4, 10500, Note_on_c, 2, 57, 0
4, 10500, Note_on_c, 2, 57, 100
4, 10560, Note_on_c, 2, 57, 0
4, 10560, Note_on_c, 2, 57, 100
4, 10620, Note_on_c, 2, 57, 0
4, 10620, Note_on_c, 2, 55, 100
4, 10650, Note_on_c, 2, 55, 0
4, 10650, Note_on_c, 2, 53, 100
4, 10680, Note_on_c, 2, 53, 0
4, 10680, Note_on_c, 2, 55, 100
4, 10740, Note_on_c, 2, 55, 0
4, 10740, Note_on_c, 2, 52, 100
4, 10800, Note_on_c, 2, 52, 0
4, 10800, Note_on_c, 2, 53, 100
4, 10860, Note_on_c, 2, 53, 0
4, 10860, Note_on_c, 2, 50, 100
4, 10920, Note_on_c, 2, 50, 0
4, 10920, Note_on_c, 2, 52, 100
4, 10980, Note_on_c, 2, 52, 0
4, 10980, Note_on_c, 2, 53, 100
4, 11040, Note_on_c, 2, 53, 0
4, 11040, Note_on_c, 2, 55, 100
4, 11100, Note_on_c, 2, 55, 0
4, 11100, Note_on_c, 2, 53, 100
4, 11160, Note_on_c, 2, 53, 0
4, 11160, Note_on_c, 2, 52, 100
4, 11280, Note_on_c, 2, 52, 0
4, 11280, Note_on_c, 2, 45, 100
4, 11400, Note_on_c, 2, 45, 0
4, 11400, Note_on_c, 2, 50, 100
4, 11460, Note_on_c, 2, 50, 0
4, 11460, Note_on_c, 2, 50, 100
4, 11520, Note_on_c, 2, 50, 0
4, 11520, Note_on_c, 2, 43, 100
4, 11700, Note_on_c, 2, 43, 0
4, 11700, Note_on_c, 2, 45, 100
4, 11760, Note_on_c, 2, 45, 0
4, 11760, Note_on_c, 2, 46, 100
4, 11940, Note_on_c, 2, 46, 0
4, 11940, Note_on_c, 2, 43, 100
4, 12000, Note_on_c, 2, 43, 0
4, 12000, Note_on_c, 2, 45, 100
4, 12120, Note_on_c, 2, 45, 0
4, 12120, Note_on_c, 2, 33, 100
4, 12240, Note_on_c, 2, 33, 0
4, 12240, Note_on_c, 2, 38, 100
4, 12360, Note_on_c, 2, 38, 0
4, 25440, Note_on_c, 2, 55, 100
4, 25530, Note_on_c, 2, 55, 0
4, 25530, Note_on_c, 2, 55, 100
4, 25560, Note_on_c, 2, 55, 0
4, 25560, Note_on_c, 2, 55, 100
4, 25620, Note_on_c, 2, 55, 0
4, 25620, Note_on_c, 2, 55, 100
4, 25680, Note_on_c, 2, 55, 0
4, 25680, Note_on_c, 2, 55, 100
4, 25740, Note_on_c, 2, 55, 0
4, 25740, Note_on_c, 2, 53, 100
4, 25770, Note_on_c, 2, 53, 0
4, 25770, Note_on_c, 2, 51, 100
4, 25800, Note_on_c, 2, 51, 0
4, 25800, Note_on_c, 2, 53, 100
4, 25860, Note_on_c, 2, 53, 0
4, 25860, Note_on_c, 2, 50, 100
4, 25920, Note_on_c, 2, 50, 0
4, 25920, Note_on_c, 2, 51, 100
4, 26100, Note_on_c, 2, 51, 0
4, 26100, Note_on_c, 2, 51, 100
4, 26160, Note_on_c, 2, 51, 0
4, 26160, Note_on_c, 2, 50, 100
4, 26280, Note_on_c, 2, 50, 0
4, 26280, Note_on_c, 2, 55, 100
4, 26400, Note_on_c, 2, 55, 0
4, 26400, Note_on_c, 2, 48, 100
4, 26520, Note_on_c, 2, 48, 0
4, 26520, Note_on_c, 2, 44, 100
4, 26640, Note_on_c, 2, 44, 0
4, 26640, Note_on_c, 2, 45, 100
4, 26760, Note_on_c, 2, 45, 0
4, 26760, Note_on_c, 2, 43, 100
4, 26880, Note_on_c, 2, 43, 0
4, 26880, Note_on_c, 2, 51, 100
4, 27000, Note_on_c, 2, 51, 0
4, 27120, Note_on_c, 2, 50, 100
4, 27300, Note_on_c, 2, 50, 0
4, 27300, Note_on_c, 2, 52, 100
4, 27360, Note_on_c, 2, 52, 0
4, 27360, Note_on_c, 2, 53, 100
4, 27480, Note_on_c, 2, 53, 0
4, 27600, Note_on_c, 2, 55, 100
4, 27720, Note_on_c, 2, 55, 0
4, 27720, Note_on_c, 2, 60, 100
4, 27840, Note_on_c, 2, 60, 0
4, 27840, Note_on_c, 2, 60, 100
4, 27900, Note_on_c, 2, 60, 0
4, 27900, Note_on_c, 2, 58, 100
4, 27930, Note_on_c, 2, 58, 0
4, 27930, Note_on_c, 2, 57, 100
4, 27960, Note_on_c, 2, 57, 0
4, 27960, Note_on_c, 2, 58, 100
4, 28080, Note_on_c, 2, 58, 0
4, 28080, Note_on_c, 2, 55, 100
4, 28200, Note_on_c, 2, 55, 0
4, 28200, Note_on_c, 2, 53, 100
4, 28320, Note_on_c, 2, 53, 0
4, 28380, Note_on_c, 2, 62, 100
4, 28440, Note_on_c, 2, 62, 0
4, 28440, Note_on_c, 2, 62, 100
4, 28500, Note_on_c, 2, 62, 0
4, 28500, Note_on_c, 2, 62, 100
4, 28560, Note_on_c, 2, 62, 0
4, 28560, Note_on_c, 2, 62, 100
4, 28620, Note_on_c, 2, 62, 0
4, 28620, Note_on_c, 2, 60, 100
4, 28650, Note_on_c, 2, 60, 0
4, 28650, Note_on_c, 2, 58, 100
4, 28680, Note_on_c, 2, 58, 0
4, 28680, Note_on_c, 2, 60, 100
4, 28740, Note_on_c, 2, 60, 0
4, 28740, Note_on_c, 2, 62, 100
4, 28800, Note_on_c, 2, 62, 0
4, 28800, Note_on_c, 2, 63, 100
4, 28860, Note_on_c, 2, 63, 0
4, 28860, Note_on_c, 2, 67, 100
4, 28860, Note_on_c, 2, 63, 100
4, 28920, Note_on_c, 2, 63, 0
4, 28920, Note_on_c, 2, 67, 0
4, 28920, Note_on_c, 2, 67, 100
4, 28920, Note_on_c, 2, 63, 100
4, 28980, Note_on_c, 2, 63, 0
4, 28980, Note_on_c, 2, 67, 0
4, 28980, Note_on_c, 2, 67, 100
4, 28980, Note_on_c, 2, 63, 100
4, 29040, Note_on_c, 2, 63, 0
4, 29040, Note_on_c, 2, 67, 0
4, 29040, Note_on_c, 2, 63, 100
4, 29100, Note_on_c, 2, 63, 0
4, 29100, Note_on_c, 2, 62, 100
4, 29130, Note_on_c, 2, 62, 0
4, 29130, Note_on_c, 2, 60, 100
4, 29160, Note_on_c, 2, 60, 0
4, 29160, Note_on_c, 2, 62, 100
4, 29220, Note_on_c, 2, 62, 0
4, 29220, Note_on_c, 2, 63, 100
4, 29280, Note_on_c, 2, 63, 0
4, 29280, Note_on_c, 2, 63, 100
4, 29340, Note_on_c, 2, 63, 0
4, 29340, Note_on_c, 2, 62, 100
4, 29400, Note_on_c, 2, 62, 0
4, 29400, Note_on_c, 2, 62, 100
4, 29460, Note_on_c, 2, 62, 0
4, 29460, Note_on_c, 2, 60, 100
4, 29520, Note_on_c, 2, 60, 0
4, 29520, Note_on_c, 2, 60, 100
4, 29580, Note_on_c, 2, 60, 0
4, 29580, Note_on_c, 2, 58, 100
4, 29670, Note_on_c, 2, 58, 0
4, 29670, Note_on_c, 2, 60, 100
4, 29700, Note_on_c, 2, 60, 0
4, 29700, Note_on_c, 2, 57, 100
4, 29760, Note_on_c, 2, 57, 0
4, 29820, Note_on_c, 2, 53, 100
4, 29880, Note_on_c, 2, 53, 0
4, 29880, Note_on_c, 2, 53, 100
4, 29940, Note_on_c, 2, 53, 0
4, 29940, Note_on_c, 2, 53, 100
4, 30000, Note_on_c, 2, 53, 0
4, 30000, Note_on_c, 2, 53, 100
4, 30060, Note_on_c, 2, 53, 0
4, 30060, Note_on_c, 2, 55, 100
4, 30090, Note_on_c, 2, 55, 0
4, 30090, Note_on_c, 2, 53, 100
4, 30120, Note_on_c, 2, 53, 0
4, 30120, Note_on_c, 2, 51, 100
4, 30180, Note_on_c, 2, 51, 0
4, 30180, Note_on_c, 2, 50, 100
4, 30240, Note_on_c, 2, 50, 0
4, 30240, Note_on_c, 2, 51, 100
4, 30300, Note_on_c, 2, 51, 0
4, 30300, Note_on_c, 2, 58, 100
4, 30360, Note_on_c, 2, 58, 0
4, 30360, Note_on_c, 2, 58, 100
4, 30420, Note_on_c, 2, 58, 0
4, 30420, Note_on_c, 2, 58, 100
4, 30480, Note_on_c, 2, 58, 0
4, 30480, Note_on_c, 2, 58, 100
4, 30600, Note_on_c, 2, 58, 0
4, 30600, Note_on_c, 2, 53, 100
4, 30660, Note_on_c, 2, 53, 0
4, 30660, Note_on_c, 2, 53, 100
4, 30720, Note_on_c, 2, 53, 0
4, 30720, Note_on_c, 2, 62, 100
4, 30840, Note_on_c, 2, 62, 0
4, 30840, Note_on_c, 2, 60, 100
4, 31020, Note_on_c, 2, 60, 0
4, 31020, Note_on_c, 2, 58, 100
4, 31080, Note_on_c, 2, 58, 0
4, 31080, Note_on_c, 2, 57, 100
4, 31200, Note_on_c, 2, 57, 0
4, 31320, Note_on_c, 2, 58, 100
4, 31350, Note_on_c, 2, 58, 0
4, 31380, Note_on_c, 2, 57, 100
4, 31410, Note_on_c, 2, 57, 0
4, 31440, Note_on_c, 2, 55, 100
4, 31470, Note_on_c, 2, 55, 0
4, 31500, Note_on_c, 2, 53, 100
4, 31530, Note_on_c, 2, 53, 0
4, 31560, Note_on_c, 2, 51, 100
4, 31590, Note_on_c, 2, 51, 0
4, 31620, Note_on_c, 2, 50, 100
4, 31650, Note_on_c, 2, 50, 0
4, 31680, Note_on_c, 2, 51, 100
4, 31800, Note_on_c, 2, 51, 0
4, 31920, Note_on_c, 2, 57, 100
4, 31950, Note_on_c, 2, 57, 0
4, 31980, Note_on_c, 2, 55, 100
4, 32010, Note_on_c, 2, 55, 0
4, 32040, Note_on_c, 2, 54, 100
4, 32070, Note_on_c, 2, 54, 0
4, 32100, Note_on_c, 2, 52, 100
4, 32130, Note_on_c, 2, 52, 0
4, 32160, Note_on_c, 2, 50, 100
4, 32280, Note_on_c, 2, 50, 0
4, 32280, Note_on_c, 2, 43, 100
4, 32400, Note_on_c, 2, 43, 0
4, 32400, Note_on_c, 2, 38, 100
4, 32520, Note_on_c, 2, 38, 0
4, 32521, Note_on_c, 2, 39, 100
4, 32640, Note_on_c, 2, 34, 100
4, 32641, Note_on_c, 2, 39, 0
4, 32760, Note_on_c, 2, 34, 0
4, 32760, Note_on_c, 2, 36, 100
4, 32880, Note_on_c, 2, 36, 0
4, 32880, Note_on_c, 2, 43, 100
4, 33000, Note_on_c, 2, 43, 0
4, 33000, Note_on_c, 2, 36, 100
4, 33120, Note_on_c, 2, 36, 0
4, 33120, Note_on_c, 2, 38, 100
4, 33240, Note_on_c, 2, 38, 0
4, 33600, Note_on_c, 2, 50, 100
4, 33720, Note_on_c, 2, 50, 0
4, 33840, Note_on_c, 2, 50, 100
4, 33960, Note_on_c, 2, 50, 0
4, 34080, Note_on_c, 2, 50, 100
4, 34200, Note_on_c, 2, 50, 0
4, 34320, Note_on_c, 2, 50, 100
4, 34440, Note_on_c, 2, 50, 0
4, 34560, Note_on_c, 2, 50, 100
4, 34680, Note_on_c, 2, 50, 0
4, 34800, Note_on_c, 2, 50, 100
4, 34920, Note_on_c, 2, 50, 0
4, 35040, Note_on_c, 2, 50, 100
4, 35160, Note_on_c, 2, 50, 0
4, 35280, Note_on_c, 2, 50, 100
4, 35400, Note_on_c, 2, 50, 0
4, 35520, Note_on_c, 2, 50, 100
4, 35640, Note_on_c, 2, 50, 0
4, 35760, Note_on_c, 2, 50, 100
4, 35880, Note_on_c, 2, 50, 0
4, 36000, Note_on_c, 2, 50, 100
4, 36180, Note_on_c, 2, 50, 0
4, 36180, Note_on_c, 2, 58, 100
4, 36240, Note_on_c, 2, 58, 0
4, 36240, Note_on_c, 2, 43, 100
4, 36420, Note_on_c, 2, 43, 0
4, 36420, Note_on_c, 2, 45, 100
4, 36480, Note_on_c, 2, 45, 0
4, 36480, Note_on_c, 2, 54, 100
4, 36660, Note_on_c, 2, 54, 0
4, 36660, Note_on_c, 2, 43, 100
4, 36720, Note_on_c, 2, 43, 0
4, 36720, Note_on_c, 2, 39, 100
4, 36840, Note_on_c, 2, 39, 0
4, 36840, Note_on_c, 2, 52, 100
4, 36960, Note_on_c, 2, 52, 0
4, 36960, Note_on_c, 2, 50, 100
4, 37080, Note_on_c, 2, 50, 0
4, 37200, Note_on_c, 2, 48, 100
4, 37320, Note_on_c, 2, 48, 0
4, 37440, Note_on_c, 2, 46, 100
4, 37560, Note_on_c, 2, 46, 0
4, 37680, Note_on_c, 2, 45, 100
4, 37800, Note_on_c, 2, 45, 0
4, 37920, Note_on_c, 2, 43, 100
4, 38040, Note_on_c, 2, 43, 0
4, 38160, Note_on_c, 2, 43, 100
4, 38280, Note_on_c, 2, 43, 0
4, 38400, Note_on_c, 2, 45, 100
4, 38520, Note_on_c, 2, 45, 0
4, 39000, Note_on_c, 2, 47, 100
4, 39120, Note_on_c, 2, 47, 0
4, 39120, Note_on_c, 2, 36, 100
4, 39240, Note_on_c, 2, 36, 0
4, 39360, Note_on_c, 2, 38, 100
4, 39480, Note_on_c, 2, 38, 0
4, 39600, Note_on_c, 2, 38, 100
4, 39720, Note_on_c, 2, 38, 0
4, 39840, Note_on_c, 2, 55, 100
4, 39840, Note_on_c, 2, 52, 100
4, 39960, Note_on_c, 2, 52, 0
4, 39960, Note_on_c, 2, 55, 0
4, 40080, Note_on_c, 2, 50, 100
4, 40140, Note_on_c, 2, 50, 0
4, 40140, Note_on_c, 2, 50, 100
4, 40200, Note_on_c, 2, 50, 0
4, 40200, Note_on_c, 2, 50, 100
4, 40260, Note_on_c, 2, 50, 0
4, 40260, Note_on_c, 2, 50, 100
4, 40320, Note_on_c, 2, 50, 0
4, 40320, Note_on_c, 2, 50, 100
4, 40380, Note_on_c, 2, 50, 0
4, 40380, Note_on_c, 2, 48, 100
4, 40410, Note_on_c, 2, 48, 0
4, 40410, Note_on_c, 2, 46, 100
4, 40440, Note_on_c, 2, 46, 0
4, 40440, Note_on_c, 2, 48, 100
4, 40500, Note_on_c, 2, 48, 0
4, 40500, Note_on_c, 2, 45, 100
4, 40560, Note_on_c, 2, 45, 0
4, 40560, Note_on_c, 2, 47, 100
4, 40620, Note_on_c, 2, 47, 0
4, 40620, Note_on_c, 2, 48, 100
4, 40650, Note_on_c, 2, 48, 0
4, 40650, Note_on_c, 2, 47, 100
4, 40680, Note_on_c, 2, 47, 0
4, 40680, Note_on_c, 2, 48, 100
4, 40740, Note_on_c, 2, 48, 0
4, 40740, Note_on_c, 2, 43, 100
4, 40800, Note_on_c, 2, 43, 0
4, 40800, Note_on_c, 2, 45, 100
4, 40860, Note_on_c, 2, 45, 0
4, 40860, Note_on_c, 2, 46, 100
4, 40890, Note_on_c, 2, 46, 0
4, 40890, Note_on_c, 2, 45, 100
4, 40920, Note_on_c, 2, 45, 0
4, 40920, Note_on_c, 2, 46, 100
4, 40980, Note_on_c, 2, 46, 0
4, 40980, Note_on_c, 2, 38, 100
4, 41040, Note_on_c, 2, 38, 0
4, 41040, Note_on_c, 2, 39, 100
4, 41220, Note_on_c, 2, 39, 0
4, 41220, Note_on_c, 2, 39, 100
4, 41280, Note_on_c, 2, 39, 0
4, 41280, Note_on_c, 2, 38, 100
4, 41460, Note_on_c, 2, 38, 0
4, 41460, Note_on_c, 2, 50, 100
4, 41520, Note_on_c, 2, 50, 0
4, 41520, Note_on_c, 2, 50, 100
4, 41700, Note_on_c, 2, 50, 0
4, 41700, Note_on_c, 2, 50, 100
4, 41760, Note_on_c, 2, 50, 0
4, 41760, Note_on_c, 2, 51, 100
4, 41820, Note_on_c, 2, 51, 0
4, 41820, Note_on_c, 2, 50, 100
4, 41880, Note_on_c, 2, 50, 0
4, 41880, Note_on_c, 2, 50, 100
4, 41940, Note_on_c, 2, 50, 0
4, 41940, Note_on_c, 2, 49, 100
4, 42000, Note_on_c, 2, 49, 0
4, 42000, Note_on_c, 2, 50, 100
4, 42120, Note_on_c, 2, 50, 0
4, 42120, Note_on_c, 2, 38, 100
4, 42240, Note_on_c, 2, 38, 0
4, 42240, Note_on_c, 2, 43, 100
4, 42360, Note_on_c, 2, 43, 0
4, 42480, Note_on_c, 2, 36, 100
4, 42600, Note_on_c, 2, 36, 0
4, 42600, Note_on_c, 2, 38, 100
4, 42720, Note_on_c, 2, 38, 0
4, 42720, Note_on_c, 2, 43, 100
4, 42840, Note_on_c, 2, 43, 0
4, 42840, Note_on_c, 2, 36, 100
4, 42960, Note_on_c, 2, 36, 0
4, 42960, Note_on_c, 2, 38, 100
4, 43080, Note_on_c, 2, 38, 0
4, 43200, Note_on_c, 2, 43, 100
4, 43320, Note_on_c, 2, 43, 0
4, 43440, Note_on_c, 2, 45, 100
4, 43560, Note_on_c, 2, 45, 0
4, 43680, Note_on_c, 2, 34, 100
4, 43800, Note_on_c, 2, 34, 0
4, 43920, Note_on_c, 2, 36, 100
4, 44040, Note_on_c, 2, 36, 0
4, 44160, Note_on_c, 2, 38, 100
4, 44280, Note_on_c, 2, 38, 0
4, 45120, Note_on_c, 2, 50, 100
4, 45300, Note_on_c, 2, 50, 0
4, 45480, Note_on_c, 2, 49, 100
4, 45540, Note_on_c, 2, 49, 0
4, 45540, Note_on_c, 2, 46, 100
4, 45600, Note_on_c, 2, 46, 0
4, 45600, Note_on_c, 2, 38, 100
4, 45720, Note_on_c, 2, 38, 0
4, 45720, Note_on_c, 2, 50, 100
4, 45840, Note_on_c, 2, 50, 0
4, 45840, Note_on_c, 2, 43, 100
4, 46080, Note_on_c, 2, 43, 0
4, 46080, End_track
5, 0, Start_track
5, 0, MIDI_port, 0
5, 0, Title_t, "Fugue in G minor - BWV 1000"
5, 0, Program_c, 3, 6
5, 0, Control_c, 3, 7, 127
5, 0, Control_c, 3, 10, 69
5, 1740, Note_on_c, 3, 67, 100
5, 1800, Note_on_c, 3, 67, 0
5, 1800, Note_on_c, 3, 67, 100
5, 1860, Note_on_c, 3, 67, 0
5, 1860, Note_on_c, 3, 67, 100
5, 1920, Note_on_c, 3, 67, 0
5, 1920, Note_on_c, 3, 67, 100
5, 1980, Note_on_c, 3, 67, 0
5, 1980, Note_on_c, 3, 65, 100
5, 2010, Note_on_c, 3, 65, 0
5, 2010, Note_on_c, 3, 63, 100
5, 2040, Note_on_c, 3, 63, 0
5, 2040, Note_on_c, 3, 65, 100
5, 2100, Note_on_c, 3, 65, 0
5, 2100, Note_on_c, 3, 65, 100
5, 2160, Note_on_c, 3, 65, 0
5, 2160, Note_on_c, 3, 63, 100
5, 2280, Note_on_c, 3, 63, 0
5, 2280, Note_on_c, 3, 63, 100
5, 2340, Note_on_c, 3, 63, 0
5, 2340, Note_on_c, 3, 62, 100
5, 2370, Note_on_c, 3, 62, 0
5, 2370, Note_on_c, 3, 60, 100
5, 2400, Note_on_c, 3, 60, 0
5, 2400, Note_on_c, 3, 62, 100
5, 2460, Note_on_c, 3, 62, 0
5, 2460, Note_on_c, 3, 62, 100
5, 2520, Note_on_c, 3, 62, 0
5, 2520, Note_on_c, 3, 62, 100
5, 2580, Note_on_c, 3, 62, 0
5, 2580, Note_on_c, 3, 62, 100
5, 2640, Note_on_c, 3, 62, 0
5, 2640, Note_on_c, 3, 62, 100
5, 2700, Note_on_c, 3, 62, 0
5, 2700, Note_on_c, 3, 60, 100
5, 2730, Note_on_c, 3, 60, 0
5, 2730, Note_on_c, 3, 58, 100
5, 2760, Note_on_c, 3, 58, 0
5, 2760, Note_on_c, 3, 60, 100
5, 2820, Note_on_c, 3, 60, 0
5, 2820, Note_on_c, 3, 57, 100
5, 2880, Note_on_c, 3, 57, 0
5, 2880, Note_on_c, 3, 58, 100
5, 3000, Note_on_c, 3, 58, 0
5, 3000, Note_on_c, 3, 63, 100
5, 3120, Note_on_c, 3, 63, 0
5, 3120, Note_on_c, 3, 60, 100
5, 3240, Note_on_c, 3, 60, 0
5, 3240, Note_on_c, 3, 62, 100
5, 3360, Note_on_c, 3, 62, 0
5, 3360, Note_on_c, 3, 62, 100
5, 3420, Note_on_c, 3, 62, 0
5, 5760, Note_on_c, 3, 62, 100
5, 5880, Note_on_c, 3, 62, 0
5, 5880, Note_on_c, 3, 62, 100
5, 5940, Note_on_c, 3, 62, 0
5, 5940, Note_on_c, 3, 62, 100
5, 6000, Note_on_c, 3, 62, 0
5, 6000, Note_on_c, 3, 60, 100
5, 6120, Note_on_c, 3, 60, 0
5, 6120, Note_on_c, 3, 60, 100
5, 6180, Note_on_c, 3, 60, 0
5, 6180, Note_on_c, 3, 60, 100
5, 6240, Note_on_c, 3, 60, 0
5, 6240, Note_on_c, 3, 58, 100
5, 6360, Note_on_c, 3, 58, 0
5, 6360, Note_on_c, 3, 58, 100
5, 6420, Note_on_c, 3, 58, 0
5, 6420, Note_on_c, 3, 59, 100
5, 6480, Note_on_c, 3, 59, 0
5, 6480, Note_on_c, 3, 55, 100
5, 6510, Note_on_c, 3, 55, 0
5, 6510, Note_on_c, 3, 53, 100
5, 6540, Note_on_c, 3, 53, 0
5, 6540, Note_on_c, 3, 53, 100
5, 6570, Note_on_c, 3, 53, 0
5, 6570, Note_on_c, 3, 51, 100
5, 6600, Note_on_c, 3, 51, 0
5, 6600, Note_on_c, 3, 51, 100
5, 6630, Note_on_c, 3, 51, 0
5, 6630, Note_on_c, 3, 50, 100
5, 6660, Note_on_c, 3, 50, 0
5, 6660, Note_on_c, 3, 50, 100
5, 6690, Note_on_c, 3, 50, 0
5, 6690, Note_on_c, 3, 48, 100
5, 6720, Note_on_c, 3, 48, 0
5, 6720, Note_on_c, 3, 48, 100
5, 6870, Note_on_c, 3, 48, 0
5, 6870, Note_on_c, 3, 46, 100
5, 6900, Note_on_c, 3, 46, 0
5, 6900, Note_on_c, 3, 45, 100
5, 6930, Note_on_c, 3, 45, 0
5, 6930, Note_on_c, 3, 43, 100
5, 6960, Note_on_c, 3, 43, 0
5, 6960, Note_on_c, 3, 45, 100
5, 7080, Note_on_c, 3, 45, 0
5, 7080, Note_on_c, 3, 50, 100
5, 7200, Note_on_c, 3, 50, 0
5, 7200, Note_on_c, 3, 43, 100
5, 7320, Note_on_c, 3, 43, 0
5, 7740, Note_on_c, 3, 67, 100
5, 7800, Note_on_c, 3, 67, 0
5, 7800, Note_on_c, 3, 67, 100
5, 7860, Note_on_c, 3, 67, 0
5, 7860, Note_on_c, 3, 67, 100
5, 7920, Note_on_c, 3, 67, 0
5, 7920, Note_on_c, 3, 67, 100
5, 7980, Note_on_c, 3, 67, 0
5, 7980, Note_on_c, 3, 65, 100
5, 8010, Note_on_c, 3, 65, 0
5, 8010, Note_on_c, 3, 63, 100
5, 8040, Note_on_c, 3, 63, 0
5, 8040, Note_on_c, 3, 65, 100
5, 8100, Note_on_c, 3, 65, 0
5, 8100, Note_on_c, 3, 62, 100
5, 8160, Note_on_c, 3, 62, 0
5, 8160, Note_on_c, 3, 63, 100
5, 8220, Note_on_c, 3, 63, 0
5, 8220, Note_on_c, 3, 63, 100
5, 8250, Note_on_c, 3, 63, 0
5, 8250, Note_on_c, 3, 62, 100
5, 8280, Note_on_c, 3, 62, 0
5, 8280, Note_on_c, 3, 63, 100
5, 8340, Note_on_c, 3, 63, 0
5, 8340, Note_on_c, 3, 65, 100
5, 8370, Note_on_c, 3, 65, 0
5, 8370, Note_on_c, 3, 63, 100
5, 8400, Note_on_c, 3, 63, 0
5, 8400, Note_on_c, 3, 62, 100
5, 8520, Note_on_c, 3, 62, 0
5, 8520, Note_on_c, 3, 67, 100
5, 8640, Note_on_c, 3, 67, 0
5, 8640, Note_on_c, 3, 67, 100
5, 8700, Note_on_c, 3, 67, 0
5, 8700, Note_on_c, 3, 65, 100
5, 8760, Note_on_c, 3, 65, 0
5, 8760, Note_on_c, 3, 65, 100
5, 8820, Note_on_c, 3, 65, 0
5, 8820, Note_on_c, 3, 65, 100
5, 8880, Note_on_c, 3, 65, 0
5, 8880, Note_on_c, 3, 65, 100
5, 8940, Note_on_c, 3, 65, 0
5, 8940, Note_on_c, 3, 63, 100
5, 8970, Note_on_c, 3, 63, 0
5, 8970, Note_on_c, 3, 62, 100
5, 9000, Note_on_c, 3, 62, 0
5, 9000, Note_on_c, 3, 63, 100
5, 9060, Note_on_c, 3, 63, 0
5, 9060, Note_on_c, 3, 60, 100
5, 9120, Note_on_c, 3, 60, 0
5, 9120, Note_on_c, 3, 62, 100
5, 9180, Note_on_c, 3, 62, 0
5, 9180, Note_on_c, 3, 62, 100
5, 9210, Note_on_c, 3, 62, 0
5, 9210, Note_on_c, 3, 60, 100
5, 9240, Note_on_c, 3, 60, 0
5, 9240, Note_on_c, 3, 62, 100
5, 9300, Note_on_c, 3, 62, 0
5, 9300, Note_on_c, 3, 63, 100
5, 9330, Note_on_c, 3, 63, 0
5, 9330, Note_on_c, 3, 62, 100
5, 9360, Note_on_c, 3, 62, 0
5, 9360, Note_on_c, 3, 60, 100
5, 9480, Note_on_c, 3, 60, 0
5, 9480, Note_on_c, 3, 65, 100
5, 9600, Note_on_c, 3, 65, 0
5, 9600, Note_on_c, 3, 65, 100
5, 9660, Note_on_c, 3, 65, 0
5, 9660, Note_on_c, 3, 63, 100
5, 9690, Note_on_c, 3, 63, 0
5, 9690, Note_on_c, 3, 62, 100
5, 9720, Note_on_c, 3, 62, 0
5, 9720, Note_on_c, 3, 63, 100
5, 9780, Note_on_c, 3, 63, 0
5, 9780, Note_on_c, 3, 65, 100
5, 9810, Note_on_c, 3, 65, 0
5, 9810, Note_on_c, 3, 63, 100
5, 9840, Note_on_c, 3, 63, 0
5, 9840, Note_on_c, 3, 62, 100
5, 9960, Note_on_c, 3, 62, 0
5, 9960, Note_on_c, 3, 67, 100
5, 10080, Note_on_c, 3, 67, 0
5, 10080, Note_on_c, 3, 67, 100
5, 10140, Note_on_c, 3, 67, 0
5, 10140, Note_on_c, 3, 65, 100
5, 10170, Note_on_c, 3, 65, 0
5, 10170, Note_on_c, 3, 64, 100
5, 10200, Note_on_c, 3, 64, 0
5, 10200, Note_on_c, 3, 65, 100
5, 10260, Note_on_c, 3, 65, 0
5, 10260, Note_on_c, 3, 67, 100
5, 10290, Note_on_c, 3, 67, 0
5, 10290, Note_on_c, 3, 65, 100
5, 10320, Note_on_c, 3, 65, 0
5, 10320, Note_on_c, 3, 64, 100
5, 10440, Note_on_c, 3, 64, 0
5, 10440, Note_on_c, 3, 64, 100
5, 10560, Note_on_c, 3, 64, 0
5, 10560, Note_on_c, 3, 62, 100
5, 10680, Note_on_c, 3, 62, 0
5, 10680, Note_on_c, 3, 61, 100
5, 10800, Note_on_c, 3, 61, 0
5, 10800, Note_on_c, 3, 62, 100
5, 10860, Note_on_c, 3, 62, 0
5, 10860, Note_on_c, 3, 62, 100
5, 10920, Note_on_c, 3, 62, 0
5, 10920, Note_on_c, 3, 62, 100
5, 10980, Note_on_c, 3, 62, 0
5, 10980, Note_on_c, 3, 62, 100
5, 11040, Note_on_c, 3, 62, 0
5, 11040, Note_on_c, 3, 62, 100
5, 11100, Note_on_c, 3, 62, 0
5, 11100, Note_on_c, 3, 62, 100
5, 11160, Note_on_c, 3, 62, 0
5, 11160, Note_on_c, 3, 62, 100
5, 11220, Note_on_c, 3, 62, 0
5, 11220, Note_on_c, 3, 61, 100
5, 11250, Note_on_c, 3, 61, 0
5, 11250, Note_on_c, 3, 59, 100
5, 11280, Note_on_c, 3, 59, 0
5, 11280, Note_on_c, 3, 61, 100
5, 11400, Note_on_c, 3, 61, 0
5, 11400, Note_on_c, 3, 62, 100
5, 11460, Note_on_c, 3, 62, 0
5, 11460, Note_on_c, 3, 62, 100
5, 11520, Note_on_c, 3, 62, 0
5, 11520, Note_on_c, 3, 58, 100
5, 11700, Note_on_c, 3, 58, 0
5, 11700, Note_on_c, 3, 57, 100
5, 11760, Note_on_c, 3, 57, 0
5, 11760, Note_on_c, 3, 57, 100
5, 11820, Note_on_c, 3, 57, 0
5, 11820, Note_on_c, 3, 55, 100
5, 11850, Note_on_c, 3, 55, 0
5, 11850, Note_on_c, 3, 53, 100
5, 11880, Note_on_c, 3, 53, 0
5, 11880, Note_on_c, 3, 55, 100
5, 11940, Note_on_c, 3, 55, 0
5, 11940, Note_on_c, 3, 52, 100
5, 12000, Note_on_c, 3, 52, 0
5, 12000, Note_on_c, 3, 53, 100
5, 12030, Note_on_c, 3, 53, 0
5, 12030, Note_on_c, 3, 52, 100
5, 12060, Note_on_c, 3, 52, 0
5, 12060, Note_on_c, 3, 50, 100
5, 12090, Note_on_c, 3, 50, 0
5, 12090, Note_on_c, 3, 52, 100
5, 12240, Note_on_c, 3, 52, 0
5, 12240, Note_on_c, 3, 62, 100
5, 12360, Note_on_c, 3, 62, 0
5, 12360, Note_on_c, 3, 50, 100
5, 12420, Note_on_c, 3, 50, 0
5, 12420, Note_on_c, 3, 50, 100
5, 12480, Note_on_c, 3, 50, 0
5, 12480, Note_on_c, 3, 52, 100
5, 12660, Note_on_c, 3, 52, 0
5, 12660, Note_on_c, 3, 54, 100
5, 12720, Note_on_c, 3, 54, 0
5, 12720, Note_on_c, 3, 55, 100
5, 12780, Note_on_c, 3, 55, 0
5, 12780, Note_on_c, 3, 55, 100
5, 12840, Note_on_c, 3, 55, 0
5, 12840, Note_on_c, 3, 55, 100
5, 12900, Note_on_c, 3, 55, 0
5, 12900, Note_on_c, 3, 55, 100
5, 12960, Note_on_c, 3, 55, 0
5, 12960, Note_on_c, 3, 55, 100
5, 13020, Note_on_c, 3, 55, 0
5, 13020, Note_on_c, 3, 53, 100
5, 13050, Note_on_c, 3, 53, 0
5, 13050, Note_on_c, 3, 51, 100
5, 13080, Note_on_c, 3, 51, 0
5, 13080, Note_on_c, 3, 53, 100
5, 13140, Note_on_c, 3, 53, 0
5, 13140, Note_on_c, 3, 50, 100
5, 13200, Note_on_c, 3, 50, 0
5, 13200, Note_on_c, 3, 51, 100
5, 13320, Note_on_c, 3, 51, 0
5, 13380, Note_on_c, 3, 51, 100
5, 13440, Note_on_c, 3, 51, 0
5, 13440, Note_on_c, 3, 54, 100
5, 13560, Note_on_c, 3, 54, 0
5, 13560, Note_on_c, 3, 55, 100
5, 13680, Note_on_c, 3, 55, 0
5, 13680, Note_on_c, 3, 55, 100
5, 13740, Note_on_c, 3, 55, 0
5, 13740, Note_on_c, 3, 53, 100
5, 13770, Note_on_c, 3, 53, 0
5, 13770, Note_on_c, 3, 52, 100
5, 13800, Note_on_c, 3, 52, 0
5, 13800, Note_on_c, 3, 53, 100
5, 13860, Note_on_c, 3, 53, 0
5, 13860, Note_on_c, 3, 55, 100
5, 13890, Note_on_c, 3, 55, 0
5, 13890, Note_on_c, 3, 53, 100
5, 13920, Note_on_c, 3, 53, 0
5, 13920, Note_on_c, 3, 52, 100
5, 14040, Note_on_c, 3, 52, 0
5, 14220, Note_on_c, 3, 69, 100
5, 14280, Note_on_c, 3, 69, 0
5, 14280, Note_on_c, 3, 69, 100
5, 14340, Note_on_c, 3, 69, 0
5, 14340, Note_on_c, 3, 69, 100
5, 14400, Note_on_c, 3, 69, 0
5, 14400, Note_on_c, 3, 69, 100
5, 14460, Note_on_c, 3, 69, 0
5, 14460, Note_on_c, 3, 67, 100
5, 14490, Note_on_c, 3, 67, 0
5, 14490, Note_on_c, 3, 65, 100
5, 14520, Note_on_c, 3, 65, 0
5, 14520, Note_on_c, 3, 67, 100
5, 14580, Note_on_c, 3, 67, 0
5, 14580, Note_on_c, 3, 67, 100
5, 14640, Note_on_c, 3, 67, 0
5, 14640, Note_on_c, 3, 67, 100
5, 14700, Note_on_c, 3, 67, 0
5, 14700, Note_on_c, 3, 65, 100
5, 14730, Note_on_c, 3, 65, 0
5, 14730, Note_on_c, 3, 64, 100
5, 14760, Note_on_c, 3, 64, 0
5, 14760, Note_on_c, 3, 65, 100
5, 14820, Note_on_c, 3, 65, 0
5, 14820, Note_on_c, 3, 65, 100
5, 14880, Note_on_c, 3, 65, 0
5, 14880, Note_on_c, 3, 70, 100
5, 14940, Note_on_c, 3, 70, 0
5, 14940, Note_on_c, 3, 69, 100
5, 15000, Note_on_c, 3, 69, 0
5, 15000, Note_on_c, 3, 69, 100
5, 15060, Note_on_c, 3, 69, 0
5, 15060, Note_on_c, 3, 68, 100
5, 15120, Note_on_c, 3, 68, 0
5, 15120, Note_on_c, 3, 68, 100
5, 15180, Note_on_c, 3, 68, 0
5, 15180, Note_on_c, 3, 69, 100
5, 15240, Note_on_c, 3, 69, 0
5, 15240, Note_on_c, 3, 69, 100
5, 15300, Note_on_c, 3, 69, 0
5, 15300, Note_on_c, 3, 66, 100
5, 15360, Note_on_c, 3, 66, 0
5, 15360, Note_on_c, 3, 66, 100
5, 15420, Note_on_c, 3, 66, 0
5, 15420, Note_on_c, 3, 67, 100
5, 15480, Note_on_c, 3, 67, 0
5, 15480, Note_on_c, 3, 67, 100
5, 15540, Note_on_c, 3, 67, 0
5, 15540, Note_on_c, 3, 64, 100
5, 15600, Note_on_c, 3, 64, 0
5, 15600, Note_on_c, 3, 64, 100
5, 15660, Note_on_c, 3, 64, 0
5, 15660, Note_on_c, 3, 65, 100
5, 15720, Note_on_c, 3, 65, 0
5, 15720, Note_on_c, 3, 65, 100
5, 15780, Note_on_c, 3, 65, 0
5, 15780, Note_on_c, 3, 62, 100
5, 15840, Note_on_c, 3, 62, 0
5, 15840, Note_on_c, 3, 62, 100
5, 15900, Note_on_c, 3, 62, 0
5, 15900, Note_on_c, 3, 63, 100
5, 15960, Note_on_c, 3, 63, 0
5, 15960, Note_on_c, 3, 63, 100
5, 16020, Note_on_c, 3, 63, 0
5, 16020, Note_on_c, 3, 61, 100
5, 16080, Note_on_c, 3, 61, 0
5, 16080, Note_on_c, 3, 61, 100
5, 16140, Note_on_c, 3, 61, 0
5, 16140, Note_on_c, 3, 70, 100
5, 16170, Note_on_c, 3, 70, 0
5, 16170, Note_on_c, 3, 68, 100
5, 16200, Note_on_c, 3, 68, 0
5, 16200, Note_on_c, 3, 69, 100
5, 16260, Note_on_c, 3, 69, 0
5, 16260, Note_on_c, 3, 61, 100
5, 16320, Note_on_c, 3, 61, 0
5, 16320, Note_on_c, 3, 62, 100
5, 16380, Note_on_c, 3, 62, 0
5, 16380, Note_on_c, 3, 70, 100
5, 16410, Note_on_c, 3, 70, 0
5, 16410, Note_on_c, 3, 68, 100
5, 16440, Note_on_c, 3, 68, 0
5, 16440, Note_on_c, 3, 69, 100
5, 16500, Note_on_c, 3, 69, 0
5, 16500, Note_on_c, 3, 73, 100
5, 16560, Note_on_c, 3, 73, 0
5, 16560, Note_on_c, 3, 74, 100
5, 16620, Note_on_c, 3, 74, 0
5, 16620, Note_on_c, 3, 72, 100
5, 16680, Note_on_c, 3, 72, 0
5, 16680, Note_on_c, 3, 72, 100
5, 16740, Note_on_c, 3, 72, 0
5, 16740, Note_on_c, 3, 70, 100
5, 16800, Note_on_c, 3, 70, 0
5, 16800, Note_on_c, 3, 70, 100
5, 16860, Note_on_c, 3, 70, 0
5, 16860, Note_on_c, 3, 69, 100
5, 16920, Note_on_c, 3, 69, 0
5, 16920, Note_on_c, 3, 69, 100
5, 16980, Note_on_c, 3, 69, 0
5, 16980, Note_on_c, 3, 73, 100
5, 17040, Note_on_c, 3, 73, 0
5, 17040, Note_on_c, 3, 73, 100
5, 17100, Note_on_c, 3, 73, 0
5, 17100, Note_on_c, 3, 74, 100
5, 17160, Note_on_c, 3, 74, 0
5, 17160, Note_on_c, 3, 74, 100
5, 17220, Note_on_c, 3, 74, 0
5, 17220, Note_on_c, 3, 67, 100
5, 17280, Note_on_c, 3, 67, 0
5, 17280, Note_on_c, 3, 67, 100
5, 17340, Note_on_c, 3, 67, 0
5, 17340, Note_on_c, 3, 69, 100
5, 17400, Note_on_c, 3, 69, 0
5, 17400, Note_on_c, 3, 65, 100
5, 17460, Note_on_c, 3, 65, 0
5, 17460, Note_on_c, 3, 64, 100
5, 17520, Note_on_c, 3, 64, 0
5, 17520, Note_on_c, 3, 64, 100
5, 17640, Note_on_c, 3, 64, 0
5, 17640, Note_on_c, 3, 64, 100
5, 17760, Note_on_c, 3, 64, 0
5, 17760, Note_on_c, 3, 64, 100
5, 17820, Note_on_c, 3, 64, 0
5, 17820, Note_on_c, 3, 64, 100
5, 17880, Note_on_c, 3, 64, 0
5, 17880, Note_on_c, 3, 64, 100
5, 17940, Note_on_c, 3, 64, 0
5, 17940, Note_on_c, 3, 64, 100
5, 18000, Note_on_c, 3, 64, 0
5, 18000, Note_on_c, 3, 69, 100
5, 18060, Note_on_c, 3, 69, 0
5, 18060, Note_on_c, 3, 67, 100
5, 18120, Note_on_c, 3, 67, 0
5, 18120, Note_on_c, 3, 69, 100
5, 18180, Note_on_c, 3, 69, 0
5, 18180, Note_on_c, 3, 65, 100
5, 18240, Note_on_c, 3, 65, 0
5, 18240, Note_on_c, 3, 67, 100
5, 18300, Note_on_c, 3, 67, 0
5, 18300, Note_on_c, 3, 67, 100
5, 18360, Note_on_c, 3, 67, 0
5, 18360, Note_on_c, 3, 67, 100
5, 18420, Note_on_c, 3, 67, 0
5, 18420, Note_on_c, 3, 67, 100
5, 18480, Note_on_c, 3, 67, 0
5, 18480, Note_on_c, 3, 67, 100
5, 18540, Note_on_c, 3, 67, 0
5, 18540, Note_on_c, 3, 65, 100
5, 18600, Note_on_c, 3, 65, 0
5, 18600, Note_on_c, 3, 67, 100
5, 18660, Note_on_c, 3, 67, 0
5, 18660, Note_on_c, 3, 64, 100
5, 18720, Note_on_c, 3, 64, 0
5, 18720, Note_on_c, 3, 65, 100
5, 18780, Note_on_c, 3, 65, 0
5, 18780, Note_on_c, 3, 64, 100
5, 18840, Note_on_c, 3, 64, 0
5, 18840, Note_on_c, 3, 65, 100
5, 18900, Note_on_c, 3, 65, 0
5, 18900, Note_on_c, 3, 67, 100
5, 18960, Note_on_c, 3, 67, 0
5, 18960, Note_on_c, 3, 69, 100
5, 19020, Note_on_c, 3, 69, 0
5, 19020, Note_on_c, 3, 70, 100
5, 19080, Note_on_c, 3, 70, 0
5, 19080, Note_on_c, 3, 69, 100
5, 19140, Note_on_c, 3, 69, 0
5, 19140, Note_on_c, 3, 67, 100
5, 19200, Note_on_c, 3, 67, 0
5, 19200, Note_on_c, 3, 65, 100
5, 19260, Note_on_c, 3, 65, 0
5, 19260, Note_on_c, 3, 64, 100
5, 19320, Note_on_c, 3, 64, 0
5, 19320, Note_on_c, 3, 65, 100
5, 19380, Note_on_c, 3, 65, 0
5, 19380, Note_on_c, 3, 67, 100
5, 19440, Note_on_c, 3, 67, 0
5, 19440, Note_on_c, 3, 69, 100
5, 19500, Note_on_c, 3, 69, 0
5, 19500, Note_on_c, 3, 67, 100
5, 19560, Note_on_c, 3, 67, 0
5, 19560, Note_on_c, 3, 69, 100
5, 19620, Note_on_c, 3, 69, 0
5, 19620, Note_on_c, 3, 71, 100
5, 19680, Note_on_c, 3, 71, 0
5, 19680, Note_on_c, 3, 73, 100
5, 19740, Note_on_c, 3, 73, 0
5, 19740, Note_on_c, 3, 71, 100
5, 19800, Note_on_c, 3, 71, 0
5, 19800, Note_on_c, 3, 73, 100
5, 19860, Note_on_c, 3, 73, 0
5, 19860, Note_on_c, 3, 74, 100
5, 19920, Note_on_c, 3, 74, 0
5, 19920, Note_on_c, 3, 76, 100
5, 19980, Note_on_c, 3, 76, 0
5, 19980, Note_on_c, 3, 74, 100
5, 20040, Note_on_c, 3, 74, 0
5, 20040, Note_on_c, 3, 76, 100
5, 20100, Note_on_c, 3, 76, 0
5, 20100, Note_on_c, 3, 74, 100
5, 20160, Note_on_c, 3, 74, 0
5, 20160, Note_on_c, 3, 73, 100
5, 20220, Note_on_c, 3, 73, 0
5, 20220, Note_on_c, 3, 71, 100
5, 20280, Note_on_c, 3, 71, 0
5, 20280, Note_on_c, 3, 73, 100
5, 20340, Note_on_c, 3, 73, 0
5, 20340, Note_on_c, 3, 74, 100
5, 20400, Note_on_c, 3, 74, 0
5, 20400, Note_on_c, 3, 76, 100
5, 20460, Note_on_c, 3, 76, 0
5, 20460, Note_on_c, 3, 74, 100
5, 20520, Note_on_c, 3, 74, 0
5, 20520, Note_on_c, 3, 76, 100
5, 20580, Note_on_c, 3, 76, 0
5, 20580, Note_on_c, 3, 73, 100
5, 20640, Note_on_c, 3, 73, 0
5, 20670, Note_on_c, 3, 62, 100
5, 20700, Note_on_c, 3, 62, 0
5, 20700, Note_on_c, 3, 65, 100
5, 20730, Note_on_c, 3, 65, 0
5, 20730, Note_on_c, 3, 69, 100
5, 20760, Note_on_c, 3, 69, 0
5, 20760, Note_on_c, 3, 74, 100
5, 20790, Note_on_c, 3, 74, 0
5, 20790, Note_on_c, 3, 69, 100
5, 20820, Note_on_c, 3, 69, 0
5, 20820, Note_on_c, 3, 65, 100
5, 20850, Note_on_c, 3, 65, 0
5, 20850, Note_on_c, 3, 62, 100
5, 20880, Note_on_c, 3, 62, 0
5, 20910, Note_on_c, 3, 74, 100
5, 20940, Note_on_c, 3, 74, 0
5, 20940, Note_on_c, 3, 72, 100
5, 20970, Note_on_c, 3, 72, 0
5, 20970, Note_on_c, 3, 70, 100
5, 21000, Note_on_c, 3, 70, 0
5, 21000, Note_on_c, 3, 72, 100
5, 21030, Note_on_c, 3, 72, 0
5, 21030, Note_on_c, 3, 69, 100
5, 21060, Note_on_c, 3, 69, 0
5, 21060, Note_on_c, 3, 66, 100
5, 21090, Note_on_c, 3, 66, 0
5, 21090, Note_on_c, 3, 62, 100
5, 21120, Note_on_c, 3, 62, 0
5, 21150, Note_on_c, 3, 55, 100
5, 21180, Note_on_c, 3, 55, 0
5, 21180, Note_on_c, 3, 58, 100
5, 21210, Note_on_c, 3, 58, 0
5, 21210, Note_on_c, 3, 62, 100
5, 21240, Note_on_c, 3, 62, 0
5, 21240, Note_on_c, 3, 67, 100
5, 21270, Note_on_c, 3, 67, 0
5, 21270, Note_on_c, 3, 62, 100
5, 21300, Note_on_c, 3, 62, 0
5, 21300, Note_on_c, 3, 58, 100
5, 21330, Note_on_c, 3, 58, 0
5, 21330, Note_on_c, 3, 55, 100
5, 21360, Note_on_c, 3, 55, 0
5, 21390, Note_on_c, 3, 67, 100
5, 21420, Note_on_c, 3, 67, 0
5, 21420, Note_on_c, 3, 65, 100
5, 21450, Note_on_c, 3, 65, 0
5, 21450, Note_on_c, 3, 63, 100
5, 21480, Note_on_c, 3, 63, 0
5, 21480, Note_on_c, 3, 65, 100
5, 21510, Note_on_c, 3, 65, 0
5, 21510, Note_on_c, 3, 62, 100
5, 21540, Note_on_c, 3, 62, 0
5, 21540, Note_on_c, 3, 59, 100
5, 21570, Note_on_c, 3, 59, 0
5, 21570, Note_on_c, 3, 55, 100
5, 21600, Note_on_c, 3, 55, 0
5, 21630, Note_on_c, 3, 60, 100
5, 21660, Note_on_c, 3, 60, 0
5, 21660, Note_on_c, 3, 63, 100
5, 21690, Note_on_c, 3, 63, 0
5, 21690, Note_on_c, 3, 67, 100
5, 21720, Note_on_c, 3, 67, 0
5, 21720, Note_on_c, 3, 72, 100
5, 21750, Note_on_c, 3, 72, 0
5, 21750, Note_on_c, 3, 67, 100
5, 21780, Note_on_c, 3, 67, 0
5, 21780, Note_on_c, 3, 63, 100
5, 21810, Note_on_c, 3, 63, 0
5, 21810, Note_on_c, 3, 60, 100
5, 21840, Note_on_c, 3, 60, 0
5, 21870, Note_on_c, 3, 72, 100
5, 21900, Note_on_c, 3, 72, 0
5, 21900, Note_on_c, 3, 70, 100
5, 21930, Note_on_c, 3, 70, 0
5, 21930, Note_on_c, 3, 69, 100
5, 21960, Note_on_c, 3, 69, 0
5, 21960, Note_on_c, 3, 70, 100
5, 21990, Note_on_c, 3, 70, 0
5, 21990, Note_on_c, 3, 67, 100
5, 22020, Note_on_c, 3, 67, 0
5, 22020, Note_on_c, 3, 64, 100
5, 22050, Note_on_c, 3, 64, 0
5, 22050, Note_on_c, 3, 60, 100
5, 22080, Note_on_c, 3, 60, 0
5, 22110, Note_on_c, 3, 60, 100
5, 22140, Note_on_c, 3, 60, 0
5, 22140, Note_on_c, 3, 65, 100
5, 22170, Note_on_c, 3, 65, 0
5, 22170, Note_on_c, 3, 67, 100
5, 22200, Note_on_c, 3, 67, 0
5, 22200, Note_on_c, 3, 68, 100
5, 22230, Note_on_c, 3, 68, 0
5, 22230, Note_on_c, 3, 65, 100
5, 22260, Note_on_c, 3, 65, 0
5, 22260, Note_on_c, 3, 62, 100
5, 22290, Note_on_c, 3, 62, 0
5, 22290, Note_on_c, 3, 58, 100
5, 22320, Note_on_c, 3, 58, 0
5, 22350, Note_on_c, 3, 58, 100
5, 22380, Note_on_c, 3, 58, 0
5, 22380, Note_on_c, 3, 63, 100
5, 22410, Note_on_c, 3, 63, 0
5, 22410, Note_on_c, 3, 65, 100
5, 22440, Note_on_c, 3, 65, 0
5, 22440, Note_on_c, 3, 67, 100
5, 22470, Note_on_c, 3, 67, 0
5, 22470, Note_on_c, 3, 63, 100
5, 22500, Note_on_c, 3, 63, 0
5, 22500, Note_on_c, 3, 60, 100
5, 22530, Note_on_c, 3, 60, 0
5, 22530, Note_on_c, 3, 57, 100
5, 22560, Note_on_c, 3, 57, 0
5, 22560, Note_on_c, 3, 65, 100
5, 22590, Note_on_c, 3, 65, 0
5, 22590, Note_on_c, 3, 62, 100
5, 22620, Note_on_c, 3, 62, 0
5, 22620, Note_on_c, 3, 58, 100
5, 22650, Note_on_c, 3, 58, 0
5, 22650, Note_on_c, 3, 55, 100
5, 22680, Note_on_c, 3, 55, 0
5, 22680, Note_on_c, 3, 63, 100
5, 22710, Note_on_c, 3, 63, 0
5, 22710, Note_on_c, 3, 60, 100
5, 22740, Note_on_c, 3, 60, 0
5, 22740, Note_on_c, 3, 56, 100
5, 22770, Note_on_c, 3, 56, 0
5, 22770, Note_on_c, 3, 53, 100
5, 22800, Note_on_c, 3, 53, 0
5, 22800, Note_on_c, 3, 62, 100
5, 22830, Note_on_c, 3, 62, 0
5, 22830, Note_on_c, 3, 58, 100
5, 22860, Note_on_c, 3, 58, 0
5, 22860, Note_on_c, 3, 55, 100
5, 22890, Note_on_c, 3, 55, 0
5, 22890, Note_on_c, 3, 51, 100
5, 22920, Note_on_c, 3, 51, 0
5, 22920, Note_on_c, 3, 60, 100
5, 22950, Note_on_c, 3, 60, 0
5, 22950, Note_on_c, 3, 56, 100
5, 22980, Note_on_c, 3, 56, 0
5, 22980, Note_on_c, 3, 53, 100
5, 23010, Note_on_c, 3, 53, 0
5, 23010, Note_on_c, 3, 50, 100
5, 23040, Note_on_c, 3, 50, 0
5, 23070, Note_on_c, 3, 50, 100
5, 23100, Note_on_c, 3, 50, 0
5, 23100, Note_on_c, 3, 53, 100
5, 23130, Note_on_c, 3, 53, 0
5, 23130, Note_on_c, 3, 59, 100
5, 23160, Note_on_c, 3, 59, 0
5, 23160, Note_on_c, 3, 62, 100
5, 23190, Note_on_c, 3, 62, 0
5, 23190, Note_on_c, 3, 59, 100
5, 23220, Note_on_c, 3, 59, 0
5, 23220, Note_on_c, 3, 53, 100
5, 23250, Note_on_c, 3, 53, 0
5, 23250, Note_on_c, 3, 50, 100
5, 23280, Note_on_c, 3, 50, 0
5, 23310, Note_on_c, 3, 50, 100
5, 23340, Note_on_c, 3, 50, 0
5, 23340, Note_on_c, 3, 53, 100
5, 23370, Note_on_c, 3, 53, 0
5, 23370, Note_on_c, 3, 59, 100
5, 23400, Note_on_c, 3, 59, 0
5, 23400, Note_on_c, 3, 62, 100
5, 23430, Note_on_c, 3, 62, 0
5, 23430, Note_on_c, 3, 59, 100
5, 23460, Note_on_c, 3, 59, 0
5, 23460, Note_on_c, 3, 53, 100
5, 23490, Note_on_c, 3, 53, 0
5, 23490, Note_on_c, 3, 50, 100
5, 23520, Note_on_c, 3, 50, 0
5, 23550, Note_on_c, 3, 48, 100
5, 23580, Note_on_c, 3, 48, 0
5, 23580, Note_on_c, 3, 51, 100
5, 23610, Note_on_c, 3, 51, 0
5, 23610, Note_on_c, 3, 55, 100
5, 23640, Note_on_c, 3, 55, 0
5, 23640, Note_on_c, 3, 60, 100
5, 23670, Note_on_c, 3, 60, 0
5, 23670, Note_on_c, 3, 55, 100
5, 23700, Note_on_c, 3, 55, 0
5, 23700, Note_on_c, 3, 51, 100
5, 23730, Note_on_c, 3, 51, 0
5, 23730, Note_on_c, 3, 48, 100
5, 23760, Note_on_c, 3, 48, 0
5, 23790, Note_on_c, 3, 48, 100
5, 23820, Note_on_c, 3, 48, 0
5, 23820, Note_on_c, 3, 51, 100
5, 23850, Note_on_c, 3, 51, 0
5, 23850, Note_on_c, 3, 55, 100
5, 23880, Note_on_c, 3, 55, 0
5, 23880, Note_on_c, 3, 60, 100
5, 23910, Note_on_c, 3, 60, 0
5, 23910, Note_on_c, 3, 55, 100
5, 23940, Note_on_c, 3, 55, 0
5, 23940, Note_on_c, 3, 51, 100
5, 23970, Note_on_c, 3, 51, 0
5, 23970, Note_on_c, 3, 48, 100
5, 24000, Note_on_c, 3, 48, 0
5, 24030, Note_on_c, 3, 48, 100
5, 24060, Note_on_c, 3, 48, 0
5, 24060, Note_on_c, 3, 51, 100
5, 24090, Note_on_c, 3, 51, 0
5, 24090, Note_on_c, 3, 55, 100
5, 24120, Note_on_c, 3, 55, 0
5, 24120, Note_on_c, 3, 60, 100
5, 24150, Note_on_c, 3, 60, 0
5, 24150, Note_on_c, 3, 55, 100
5, 24180, Note_on_c, 3, 55, 0
5, 24180, Note_on_c, 3, 51, 100
5, 24210, Note_on_c, 3, 51, 0
5, 24210, Note_on_c, 3, 48, 100
5, 24240, Note_on_c, 3, 48, 0
5, 24270, Note_on_c, 3, 48, 100
5, 24300, Note_on_c, 3, 48, 0
5, 24300, Note_on_c, 3, 51, 100
5, 24330, Note_on_c, 3, 51, 0
5, 24330, Note_on_c, 3, 55, 100
5, 24360, Note_on_c, 3, 55, 0
5, 24360, Note_on_c, 3, 60, 100
5, 24390, Note_on_c, 3, 60, 0
5, 24390, Note_on_c, 3, 55, 100
5, 24420, Note_on_c, 3, 55, 0
5, 24420, Note_on_c, 3, 51, 100
5, 24450, Note_on_c, 3, 51, 0
5, 24450, Note_on_c, 3, 48, 100
5, 24480, Note_on_c, 3, 48, 0
5, 24510, Note_on_c, 3, 50, 100
5, 24540, Note_on_c, 3, 50, 0
5, 24540, Note_on_c, 3, 54, 100
5, 24570, Note_on_c, 3, 54, 0
5, 24570, Note_on_c, 3, 57, 100
5, 24600, Note_on_c, 3, 57, 0
5, 24600, Note_on_c, 3, 60, 100
5, 24630, Note_on_c, 3, 60, 0
5, 24630, Note_on_c, 3, 57, 100
5, 24660, Note_on_c, 3, 57, 0
5, 24660, Note_on_c, 3, 54, 100
5, 24690, Note_on_c, 3, 54, 0
5, 24690, Note_on_c, 3, 50, 100
5, 24720, Note_on_c, 3, 50, 0
5, 24750, Note_on_c, 3, 50, 100
5, 24780, Note_on_c, 3, 50, 0
5, 24780, Note_on_c, 3, 54, 100
5, 24810, Note_on_c, 3, 54, 0
5, 24810, Note_on_c, 3, 57, 100
5, 24840, Note_on_c, 3, 57, 0
5, 24840, Note_on_c, 3, 60, 100
5, 24870, Note_on_c, 3, 60, 0
5, 24870, Note_on_c, 3, 57, 100
5, 24900, Note_on_c, 3, 57, 0
5, 24900, Note_on_c, 3, 54, 100
5, 24930, Note_on_c, 3, 54, 0
5, 24930, Note_on_c, 3, 50, 100
5, 24960, Note_on_c, 3, 50, 0
5, 24990, Note_on_c, 3, 48, 100
5, 25020, Note_on_c, 3, 48, 0
5, 25020, Note_on_c, 3, 51, 100
5, 25050, Note_on_c, 3, 51, 0
5, 25050, Note_on_c, 3, 55, 100
5, 25080, Note_on_c, 3, 55, 0
5, 25080, Note_on_c, 3, 60, 100
5, 25110, Note_on_c, 3, 60, 0
5, 25110, Note_on_c, 3, 63, 100
5, 25140, Note_on_c, 3, 63, 0
5, 25140, Note_on_c, 3, 61, 100
5, 25170, Note_on_c, 3, 61, 0
5, 25170, Note_on_c, 3, 59, 100
5, 25200, Note_on_c, 3, 59, 0
5, 25200, Note_on_c, 3, 60, 100
5, 25230, Note_on_c, 3, 60, 0
5, 25230, Note_on_c, 3, 70, 100
5, 25260, Note_on_c, 3, 70, 0
5, 25260, Note_on_c, 3, 68, 100
5, 25290, Note_on_c, 3, 68, 0
5, 25290, Note_on_c, 3, 66, 100
5, 25320, Note_on_c, 3, 66, 0
5, 25320, Note_on_c, 3, 67, 100
5, 25350, Note_on_c, 3, 67, 0
5, 25350, Note_on_c, 3, 65, 100
5, 25380, Note_on_c, 3, 65, 0
5, 25380, Note_on_c, 3, 64, 100
5, 25410, Note_on_c, 3, 64, 0
5, 25410, Note_on_c, 3, 65, 100
5, 25440, Note_on_c, 3, 65, 0
5, 25440, Note_on_c, 3, 65, 100
5, 25530, Note_on_c, 3, 65, 0
5, 25560, Note_on_c, 3, 63, 100
5, 25800, Note_on_c, 3, 63, 0
5, 25800, Note_on_c, 3, 62, 100
5, 25860, Note_on_c, 3, 62, 0
5, 25860, Note_on_c, 3, 65, 100
5, 25950, Note_on_c, 3, 65, 0
5, 25950, Note_on_c, 3, 62, 100
5, 26010, Note_on_c, 3, 62, 0
5, 26010, Note_on_c, 3, 59, 100
5, 26040, Note_on_c, 3, 59, 0
5, 26040, Note_on_c, 3, 60, 100
5, 26100, Note_on_c, 3, 60, 0
5, 26100, Note_on_c, 3, 60, 100
5, 26160, Note_on_c, 3, 60, 0
5, 26160, Note_on_c, 3, 60, 100
5, 26280, Note_on_c, 3, 60, 0
5, 26280, Note_on_c, 3, 58, 100
5, 26400, Note_on_c, 3, 58, 0
5, 26400, Note_on_c, 3, 55, 100
5, 26520, Note_on_c, 3, 55, 0
5, 26520, Note_on_c, 3, 53, 100
5, 26640, Note_on_c, 3, 53, 0
5, 26640, Note_on_c, 3, 54, 100
5, 26760, Note_on_c, 3, 54, 0
5, 26760, Note_on_c, 3, 55, 100
5, 26880, Note_on_c, 3, 55, 0
5, 26880, Note_on_c, 3, 55, 100
5, 27000, Note_on_c, 3, 55, 0
5, 36060, Note_on_c, 3, 62, 100
5, 36120, Note_on_c, 3, 62, 0
5, 36120, Note_on_c, 3, 62, 100
5, 36180, Note_on_c, 3, 62, 0
5, 36180, Note_on_c, 3, 62, 100
5, 36240, Note_on_c, 3, 62, 0
5, 36240, Note_on_c, 3, 63, 100
5, 36420, Note_on_c, 3, 63, 0
5, 36420, Note_on_c, 3, 63, 100
5, 36480, Note_on_c, 3, 63, 0
5, 36480, Note_on_c, 3, 62, 100
5, 36660, Note_on_c, 3, 62, 0
5, 36660, Note_on_c, 3, 62, 100
5, 36720, Note_on_c, 3, 62, 0
5, 36720, Note_on_c, 3, 62, 100
5, 36840, Note_on_c, 3, 62, 0
5, 36840, Note_on_c, 3, 61, 100
5, 36960, Note_on_c, 3, 61, 0
5, 36960, Note_on_c, 3, 60, 100
5, 37080, Note_on_c, 3, 60, 0
5, 37080, Note_on_c, 3, 58, 100
5, 37200, Note_on_c, 3, 58, 0
5, 37200, Note_on_c, 3, 58, 100
5, 37320, Note_on_c, 3, 58, 0
5, 37320, Note_on_c, 3, 57, 100
5, 37440, Note_on_c, 3, 57, 0
5, 37440, Note_on_c, 3, 57, 100
5, 37560, Note_on_c, 3, 57, 0
5, 37560, Note_on_c, 3, 55, 100
5, 37680, Note_on_c, 3, 55, 0
5, 37680, Note_on_c, 3, 55, 100
5, 37800, Note_on_c, 3, 55, 0
5, 37800, Note_on_c, 3, 53, 100
5, 37920, Note_on_c, 3, 53, 0
5, 37920, Note_on_c, 3, 53, 100
5, 38040, Note_on_c, 3, 53, 0
5, 38160, Note_on_c, 3, 51, 100
5, 38280, Note_on_c, 3, 51, 0
5, 38280, End_track
6, 0, Start_track
6, 0, MIDI_port, 0
6, 0, Title_t, "--------------------------------------"
6, 0, End_track
7, 0, Start_track
7, 0, MIDI_port, 0
7, 0, Title_t, "Sequenced with Cakewalk Professional by"
7, 0, End_track
8, 0, Start_track
8, 0, MIDI_port, 0
8, 0, Title_t, "John Watson "
8, 0, End_track
9, 0, Start_track
9, 0, MIDI_port, 0
9, 0, Title_t, "( freely distributable )"
9, 0, End_track
10, 0, Start_track
10, 0, MIDI_port, 0
10, 0, Title_t, "--------------------------------------"
10, 0, End_track
11, 0, Start_track
11, 0, MIDI_port, 0
11, 0, Title_t, "e-mail:  JWatson553@aol.com  ( John Watson )"
11, 0, End_track
12, 0, Start_track
12, 0, MIDI_port, 0
12, 0, Title_t, "visit Dave's J.S. Bach Page at:"
12, 0, End_track
13, 0, Start_track
13, 0, MIDI_port, 0
13, 0, Title_t, "http://www.unpronounceable.com/bach"
13, 0, End_track
14, 0, Start_track
14, 0, MIDI_port, 0
14, 0, Title_t, "--------------------------------------"
14, 0, End_track
15, 0, Start_track
15, 0, MIDI_port, 0
15, 0, Title_t, "Original Filename: bwv1000.mid"
15, 0, End_track
16, 0, Start_track
16, 0, MIDI_port, 0
16, 0, Title_t, "Last Modified: 1-20-97"
16, 0, End_track
0, 0, End_of_file
