0, 0, Header, 1, 13, 384
1, 0, Start_track
1, 0, Title_t, "untitled"
1, 0, SMPTE_offset, 96, 0, 3, 0, 0
1, 0, Time_signature, 2, 2, 24, 8
1, 0, Key_signature, 0, "major"
1, 0, Tempo, 645161
1, 0, End_track
2, 0, Start_track
2, 0, MIDI_port, 0
2, 0, Title_t, "Solo Violin"
2, 0, Program_c, 0, 40
2, 0, Control_c, 0, 7, 115
2, 0, Control_c, 0, 10, 64
2, 576, Note_on_c, 0, 76, 100
2, 768, Note_on_c, 0, 76, 0
2, 768, Note_on_c, 0, 81, 100
2, 1152, Note_on_c, 0, 81, 0
2, 1344, Note_on_c, 0, 76, 100
2, 1536, Note_on_c, 0, 76, 0
2, 1536, Note_on_c, 0, 77, 100
2, 1920, Note_on_c, 0, 77, 0
2, 2112, Note_on_c, 0, 74, 100
2, 2304, Note_on_c, 0, 74, 0
2, 2304, Note_on_c, 0, 76, 100
2, 2400, Note_on_c, 0, 76, 0
2, 2400, Note_on_c, 0, 74, 100
2, 2496, Note_on_c, 0, 74, 0
2, 2496, Note_on_c, 0, 72, 100
2, 2592, Note_on_c, 0, 72, 0
2, 2592, Note_on_c, 0, 76, 100
2, 2688, Note_on_c, 0, 76, 0
2, 2688, Note_on_c, 0, 74, 100
2, 2784, Note_on_c, 0, 74, 0
2, 2784, Note_on_c, 0, 72, 100
2, 2880, Note_on_c, 0, 72, 0
2, 2880, Note_on_c, 0, 71, 100
2, 2976, Note_on_c, 0, 71, 0
2, 2976, Note_on_c, 0, 74, 100
2, 3072, Note_on_c, 0, 74, 0
2, 3072, Note_on_c, 0, 72, 100
2, 3264, Note_on_c, 0, 72, 0
2, 3264, Note_on_c, 0, 69, 100
2, 3456, Note_on_c, 0, 69, 0
2, 3552, Note_on_c, 0, 69, 100
2, 3648, Note_on_c, 0, 69, 0
2, 3648, Note_on_c, 0, 68, 100
2, 3744, Note_on_c, 0, 68, 0
2, 3744, Note_on_c, 0, 69, 100
2, 3840, Note_on_c, 0, 69, 0
2, 3840, Note_on_c, 0, 71, 100
2, 3936, Note_on_c, 0, 71, 0
2, 3936, Note_on_c, 0, 69, 100
2, 4032, Note_on_c, 0, 69, 0
2, 4032, Note_on_c, 0, 68, 100
2, 4128, Note_on_c, 0, 68, 0
2, 4128, Note_on_c, 0, 69, 100
2, 4224, Note_on_c, 0, 69, 0
2, 4224, Note_on_c, 0, 72, 100
2, 4320, Note_on_c, 0, 72, 0
2, 4320, Note_on_c, 0, 69, 100
2, 4416, Note_on_c, 0, 69, 0
2, 4416, Note_on_c, 0, 68, 100
2, 4512, Note_on_c, 0, 68, 0
2, 4512, Note_on_c, 0, 69, 100
2, 4608, Note_on_c, 0, 69, 0
2, 4608, Note_on_c, 0, 74, 100
2, 4704, Note_on_c, 0, 74, 0
2, 4704, Note_on_c, 0, 69, 100
2, 4800, Note_on_c, 0, 69, 0
2, 4800, Note_on_c, 0, 68, 100
2, 4896, Note_on_c, 0, 68, 0
2, 4896, Note_on_c, 0, 69, 100
2, 4992, Note_on_c, 0, 69, 0
2, 4992, Note_on_c, 0, 76, 100
2, 5088, Note_on_c, 0, 76, 0
2, 5088, Note_on_c, 0, 69, 100
2, 5184, Note_on_c, 0, 69, 0
2, 5184, Note_on_c, 0, 68, 100
2, 5280, Note_on_c, 0, 68, 0
2, 5280, Note_on_c, 0, 69, 100
2, 5376, Note_on_c, 0, 69, 0
2, 5376, Note_on_c, 0, 77, 100
2, 5472, Note_on_c, 0, 77, 0
2, 5472, Note_on_c, 0, 79, 100
2, 5568, Note_on_c, 0, 79, 0
2, 5568, Note_on_c, 0, 77, 100
2, 5664, Note_on_c, 0, 77, 0
2, 5664, Note_on_c, 0, 76, 100
2, 5760, Note_on_c, 0, 76, 0
2, 5760, Note_on_c, 0, 74, 100
2, 5856, Note_on_c, 0, 74, 0
2, 5856, Note_on_c, 0, 72, 100
2, 5952, Note_on_c, 0, 72, 0
2, 5952, Note_on_c, 0, 71, 100
2, 6048, Note_on_c, 0, 71, 0
2, 6048, Note_on_c, 0, 69, 100
2, 6144, Note_on_c, 0, 69, 0
2, 6144, Note_on_c, 0, 68, 100
2, 6336, Note_on_c, 0, 68, 0
2, 6336, Note_on_c, 0, 64, 100
2, 6528, Note_on_c, 0, 64, 0
2, 6528, Note_on_c, 0, 83, 100
2, 7104, Note_on_c, 0, 83, 0
2, 7104, Note_on_c, 0, 81, 100
2, 7200, Note_on_c, 0, 81, 0
2, 7200, Note_on_c, 0, 80, 100
2, 7296, Note_on_c, 0, 80, 0
2, 7296, Note_on_c, 0, 81, 100
2, 7488, Note_on_c, 0, 81, 0
2, 7488, Note_on_c, 0, 84, 100
2, 7872, Note_on_c, 0, 84, 0
2, 7872, Note_on_c, 0, 78, 100
2, 8064, Note_on_c, 0, 78, 0
2, 8064, Note_on_c, 0, 81, 100
2, 8640, Note_on_c, 0, 81, 0
2, 8640, Note_on_c, 0, 79, 100
2, 8736, Note_on_c, 0, 79, 0
2, 8736, Note_on_c, 0, 78, 100
2, 8832, Note_on_c, 0, 78, 0
2, 8832, Note_on_c, 0, 79, 100
2, 9024, Note_on_c, 0, 79, 0
2, 9024, Note_on_c, 0, 83, 100
2, 9312, Note_on_c, 0, 83, 0
2, 9312, Note_on_c, 0, 81, 100
2, 9408, Note_on_c, 0, 81, 0
2, 9408, Note_on_c, 0, 79, 100
2, 9504, Note_on_c, 0, 79, 0
2, 9504, Note_on_c, 0, 78, 100
2, 9600, Note_on_c, 0, 78, 0
2, 9600, Note_on_c, 0, 76, 100
2, 10176, Note_on_c, 0, 76, 0
2, 10176, Note_on_c, 0, 78, 100
2, 10272, Note_on_c, 0, 78, 0
2, 10272, Note_on_c, 0, 79, 100
2, 10368, Note_on_c, 0, 79, 0
2, 10368, Note_on_c, 0, 81, 100
2, 10560, Note_on_c, 0, 81, 0
2, 10560, Note_on_c, 0, 72, 100
2, 10752, Note_on_c, 0, 72, 0
2, 10752, Note_on_c, 0, 71, 100
2, 10944, Note_on_c, 0, 71, 0
2, 10944, Note_on_c, 0, 81, 100
2, 11136, Note_on_c, 0, 81, 0
2, 11136, Note_on_c, 0, 79, 100
2, 11328, Note_on_c, 0, 79, 0
2, 11328, Note_on_c, 0, 71, 100
2, 11520, Note_on_c, 0, 71, 0
2, 11520, Note_on_c, 0, 69, 100
2, 11616, Note_on_c, 0, 69, 0
2, 11616, Note_on_c, 0, 71, 100
2, 11712, Note_on_c, 0, 71, 0
2, 11712, Note_on_c, 0, 72, 100
2, 11808, Note_on_c, 0, 72, 0
2, 11808, Note_on_c, 0, 71, 100
2, 11904, Note_on_c, 0, 71, 0
2, 11904, Note_on_c, 0, 69, 100
2, 12000, Note_on_c, 0, 69, 0
2, 12000, Note_on_c, 0, 67, 100
2, 12096, Note_on_c, 0, 67, 0
2, 12096, Note_on_c, 0, 66, 100
2, 12192, Note_on_c, 0, 66, 0
2, 12192, Note_on_c, 0, 64, 100
2, 12288, Note_on_c, 0, 64, 0
2, 12288, Note_on_c, 0, 63, 100
2, 12480, Note_on_c, 0, 63, 0
2, 12480, Note_on_c, 0, 72, 100
2, 12672, Note_on_c, 0, 72, 0
2, 12672, Note_on_c, 0, 71, 100
2, 12864, Note_on_c, 0, 71, 0
2, 12864, Note_on_c, 0, 76, 100
2, 13056, Note_on_c, 0, 76, 0
2, 13056, Note_on_c, 0, 79, 100
2, 13440, Note_on_c, 0, 79, 0
2, 13440, Note_on_c, 0, 78, 100
2, 13488, Note_on_c, 0, 78, 0
2, 13488, Note_on_c, 0, 79, 100
2, 13536, Note_on_c, 0, 79, 0
2, 13536, Note_on_c, 0, 78, 100
2, 13584, Note_on_c, 0, 78, 0
2, 13584, Note_on_c, 0, 79, 100
2, 13632, Note_on_c, 0, 79, 0
2, 13632, Note_on_c, 0, 78, 100
2, 13680, Note_on_c, 0, 78, 0
2, 13680, Note_on_c, 0, 79, 100
2, 13728, Note_on_c, 0, 79, 0
2, 13728, Note_on_c, 0, 78, 100
2, 13776, Note_on_c, 0, 78, 0
2, 13776, Note_on_c, 0, 79, 100
2, 13824, Note_on_c, 0, 79, 0
2, 13824, Note_on_c, 0, 78, 100
2, 13920, Note_on_c, 0, 78, 0
2, 13920, Note_on_c, 0, 79, 100
2, 14016, Note_on_c, 0, 79, 0
2, 14016, Note_on_c, 0, 81, 100
2, 14112, Note_on_c, 0, 81, 0
2, 14112, Note_on_c, 0, 78, 100
2, 14208, Note_on_c, 0, 78, 0
2, 14208, Note_on_c, 0, 75, 100
2, 14304, Note_on_c, 0, 75, 0
2, 14304, Note_on_c, 0, 76, 100
2, 14400, Note_on_c, 0, 76, 0
2, 14400, Note_on_c, 0, 78, 100
2, 14496, Note_on_c, 0, 78, 0
2, 14496, Note_on_c, 0, 75, 100
2, 14592, Note_on_c, 0, 75, 0
2, 14592, Note_on_c, 0, 83, 100
2, 14784, Note_on_c, 0, 83, 0
2, 14784, Note_on_c, 0, 76, 100
2, 14976, Note_on_c, 0, 76, 0
2, 14976, Note_on_c, 0, 78, 100
2, 15168, Note_on_c, 0, 78, 0
2, 15168, Note_on_c, 0, 75, 100
2, 15360, Note_on_c, 0, 75, 0
2, 15360, Note_on_c, 0, 76, 100
2, 15456, Note_on_c, 0, 76, 0
2, 15456, Note_on_c, 0, 74, 100
2, 15552, Note_on_c, 0, 74, 0
2, 15552, Note_on_c, 0, 72, 100
2, 15648, Note_on_c, 0, 72, 0
2, 15648, Note_on_c, 0, 71, 100
2, 15744, Note_on_c, 0, 71, 0
2, 15744, Note_on_c, 0, 69, 100
2, 15936, Note_on_c, 0, 69, 0
2, 15936, Note_on_c, 0, 69, 100
2, 16128, Note_on_c, 0, 69, 0
2, 16128, Note_on_c, 0, 69, 100
2, 16224, Note_on_c, 0, 69, 0
2, 16224, Note_on_c, 0, 71, 100
2, 16320, Note_on_c, 0, 71, 0
2, 16320, Note_on_c, 0, 72, 100
2, 16608, Note_on_c, 0, 72, 0
2, 16608, Note_on_c, 0, 71, 100
2, 16704, Note_on_c, 0, 71, 0
2, 16704, Note_on_c, 0, 69, 100
2, 16800, Note_on_c, 0, 69, 0
2, 16800, Note_on_c, 0, 67, 100
2, 16896, Note_on_c, 0, 67, 0
2, 16896, Note_on_c, 0, 66, 100
2, 16992, Note_on_c, 0, 66, 0
2, 16992, Note_on_c, 0, 67, 100
2, 17088, Note_on_c, 0, 67, 0
2, 17088, Note_on_c, 0, 69, 100
2, 17376, Note_on_c, 0, 69, 0
2, 17376, Note_on_c, 0, 67, 100
2, 17472, Note_on_c, 0, 67, 0
2, 17472, Note_on_c, 0, 66, 100
2, 17568, Note_on_c, 0, 66, 0
2, 17568, Note_on_c, 0, 64, 100
2, 17664, Note_on_c, 0, 64, 0
2, 17664, Note_on_c, 0, 63, 100
2, 17856, Note_on_c, 0, 63, 0
2, 17856, Note_on_c, 0, 71, 100
2, 18048, Note_on_c, 0, 71, 0
2, 18048, Note_on_c, 0, 67, 100
2, 18096, Note_on_c, 0, 67, 0
2, 18096, Note_on_c, 0, 69, 100
2, 18144, Note_on_c, 0, 69, 0
2, 18144, Note_on_c, 0, 67, 100
2, 18192, Note_on_c, 0, 67, 0
2, 18192, Note_on_c, 0, 69, 100
2, 18240, Note_on_c, 0, 69, 0
2, 18240, Note_on_c, 0, 66, 100
2, 18336, Note_on_c, 0, 66, 0
2, 18336, Note_on_c, 0, 64, 100
2, 18432, Note_on_c, 0, 64, 0
2, 18432, Note_on_c, 0, 64, 100
2, 18816, Note_on_c, 0, 64, 0
2, 18912, Note_on_c, 0, 76, 100
2, 19008, Note_on_c, 0, 76, 0
2, 19008, Note_on_c, 0, 75, 100
2, 19104, Note_on_c, 0, 75, 0
2, 19104, Note_on_c, 0, 76, 100
2, 19200, Note_on_c, 0, 76, 0
2, 19200, Note_on_c, 0, 81, 100
2, 19296, Note_on_c, 0, 81, 0
2, 19296, Note_on_c, 0, 80, 100
2, 19392, Note_on_c, 0, 80, 0
2, 19392, Note_on_c, 0, 81, 100
2, 19680, Note_on_c, 0, 81, 0
2, 19680, Note_on_c, 0, 76, 100
2, 19776, Note_on_c, 0, 76, 0
2, 19776, Note_on_c, 0, 75, 100
2, 19872, Note_on_c, 0, 75, 0
2, 19872, Note_on_c, 0, 76, 100
2, 19968, Note_on_c, 0, 76, 0
2, 19968, Note_on_c, 0, 84, 100
2, 20160, Note_on_c, 0, 84, 0
2, 20160, Note_on_c, 0, 83, 100
2, 20448, Note_on_c, 0, 83, 0
2, 20448, Note_on_c, 0, 76, 100
2, 20544, Note_on_c, 0, 76, 0
2, 20544, Note_on_c, 0, 74, 100
2, 20640, Note_on_c, 0, 74, 0
2, 20640, Note_on_c, 0, 76, 100
2, 20736, Note_on_c, 0, 76, 0
2, 20736, Note_on_c, 0, 83, 100
2, 20832, Note_on_c, 0, 83, 0
2, 20832, Note_on_c, 0, 81, 100
2, 20928, Note_on_c, 0, 81, 0
2, 20928, Note_on_c, 0, 83, 100
2, 21216, Note_on_c, 0, 83, 0
2, 21216, Note_on_c, 0, 76, 100
2, 21312, Note_on_c, 0, 76, 0
2, 21312, Note_on_c, 0, 74, 100
2, 21408, Note_on_c, 0, 74, 0
2, 21408, Note_on_c, 0, 76, 100
2, 21504, Note_on_c, 0, 76, 0
2, 21504, Note_on_c, 0, 86, 100
2, 21696, Note_on_c, 0, 86, 0
2, 21696, Note_on_c, 0, 84, 100
2, 21984, Note_on_c, 0, 84, 0
2, 21984, Note_on_c, 0, 76, 100
2, 22080, Note_on_c, 0, 76, 0
2, 22080, Note_on_c, 0, 74, 100
2, 22176, Note_on_c, 0, 74, 0
2, 22176, Note_on_c, 0, 76, 100
2, 22272, Note_on_c, 0, 76, 0
2, 22272, Note_on_c, 0, 84, 100
2, 22368, Note_on_c, 0, 84, 0
2, 22368, Note_on_c, 0, 83, 100
2, 22464, Note_on_c, 0, 83, 0
2, 22464, Note_on_c, 0, 81, 100
2, 22560, Note_on_c, 0, 81, 0
2, 22560, Note_on_c, 0, 79, 100
2, 22656, Note_on_c, 0, 79, 0
2, 22656, Note_on_c, 0, 77, 100
2, 22752, Note_on_c, 0, 77, 0
2, 22752, Note_on_c, 0, 74, 100
2, 22848, Note_on_c, 0, 74, 0
2, 22848, Note_on_c, 0, 72, 100
2, 22944, Note_on_c, 0, 72, 0
2, 22944, Note_on_c, 0, 74, 100
2, 23040, Note_on_c, 0, 74, 0
2, 23040, Note_on_c, 0, 83, 100
2, 23136, Note_on_c, 0, 83, 0
2, 23136, Note_on_c, 0, 81, 100
2, 23232, Note_on_c, 0, 81, 0
2, 23232, Note_on_c, 0, 79, 100
2, 23328, Note_on_c, 0, 79, 0
2, 23328, Note_on_c, 0, 77, 100
2, 23424, Note_on_c, 0, 77, 0
2, 23424, Note_on_c, 0, 76, 100
2, 23520, Note_on_c, 0, 76, 0
2, 23520, Note_on_c, 0, 72, 100
2, 23616, Note_on_c, 0, 72, 0
2, 23616, Note_on_c, 0, 71, 100
2, 23712, Note_on_c, 0, 71, 0
2, 23712, Note_on_c, 0, 72, 100
2, 23808, Note_on_c, 0, 72, 0
2, 23808, Note_on_c, 0, 81, 100
2, 23904, Note_on_c, 0, 81, 0
2, 23904, Note_on_c, 0, 79, 100
2, 24000, Note_on_c, 0, 79, 0
2, 24000, Note_on_c, 0, 77, 100
2, 24096, Note_on_c, 0, 77, 0
2, 24096, Note_on_c, 0, 76, 100
2, 24192, Note_on_c, 0, 76, 0
2, 24192, Note_on_c, 0, 74, 100
2, 24288, Note_on_c, 0, 74, 0
2, 24288, Note_on_c, 0, 71, 100
2, 24384, Note_on_c, 0, 71, 0
2, 24384, Note_on_c, 0, 69, 100
2, 24480, Note_on_c, 0, 69, 0
2, 24480, Note_on_c, 0, 71, 100
2, 24576, Note_on_c, 0, 71, 0
2, 24576, Note_on_c, 0, 80, 100
2, 24672, Note_on_c, 0, 80, 0
2, 24672, Note_on_c, 0, 81, 100
2, 24768, Note_on_c, 0, 81, 0
2, 24768, Note_on_c, 0, 80, 100
2, 24864, Note_on_c, 0, 80, 0
2, 24864, Note_on_c, 0, 78, 100
2, 24960, Note_on_c, 0, 78, 0
2, 24960, Note_on_c, 0, 76, 100
2, 25056, Note_on_c, 0, 76, 0
2, 25056, Note_on_c, 0, 74, 100
2, 25152, Note_on_c, 0, 74, 0
2, 25152, Note_on_c, 0, 72, 100
2, 25248, Note_on_c, 0, 72, 0
2, 25248, Note_on_c, 0, 71, 100
2, 25344, Note_on_c, 0, 71, 0
2, 25344, Note_on_c, 0, 72, 100
2, 25440, Note_on_c, 0, 72, 0
2, 25440, Note_on_c, 0, 74, 100
2, 25536, Note_on_c, 0, 74, 0
2, 25536, Note_on_c, 0, 72, 100
2, 25632, Note_on_c, 0, 72, 0
2, 25632, Note_on_c, 0, 71, 100
2, 25728, Note_on_c, 0, 71, 0
2, 25728, Note_on_c, 0, 69, 100
2, 25824, Note_on_c, 0, 69, 0
2, 25824, Note_on_c, 0, 81, 100
2, 25920, Note_on_c, 0, 81, 0
2, 25920, Note_on_c, 0, 76, 100
2, 26016, Note_on_c, 0, 76, 0
2, 26016, Note_on_c, 0, 79, 100
2, 26112, Note_on_c, 0, 79, 0
2, 26112, Note_on_c, 0, 77, 100
2, 26208, Note_on_c, 0, 77, 0
2, 26208, Note_on_c, 0, 79, 100
2, 26304, Note_on_c, 0, 79, 0
2, 26304, Note_on_c, 0, 77, 100
2, 26400, Note_on_c, 0, 77, 0
2, 26400, Note_on_c, 0, 76, 100
2, 26496, Note_on_c, 0, 76, 0
2, 26496, Note_on_c, 0, 74, 100
2, 26592, Note_on_c, 0, 74, 0
2, 26592, Note_on_c, 0, 72, 100
2, 26688, Note_on_c, 0, 72, 0
2, 26688, Note_on_c, 0, 71, 100
2, 26784, Note_on_c, 0, 71, 0
2, 26784, Note_on_c, 0, 69, 100
2, 26880, Note_on_c, 0, 69, 0
2, 26880, Note_on_c, 0, 71, 100
2, 26976, Note_on_c, 0, 71, 0
2, 26976, Note_on_c, 0, 72, 100
2, 27072, Note_on_c, 0, 72, 0
2, 27072, Note_on_c, 0, 71, 100
2, 27168, Note_on_c, 0, 71, 0
2, 27168, Note_on_c, 0, 69, 100
2, 27264, Note_on_c, 0, 69, 0
2, 27264, Note_on_c, 0, 67, 100
2, 27360, Note_on_c, 0, 67, 0
2, 27360, Note_on_c, 0, 79, 100
2, 27456, Note_on_c, 0, 79, 0
2, 27456, Note_on_c, 0, 74, 100
2, 27552, Note_on_c, 0, 74, 0
2, 27552, Note_on_c, 0, 77, 100
2, 27648, Note_on_c, 0, 77, 0
2, 27648, Note_on_c, 0, 76, 100
2, 27744, Note_on_c, 0, 76, 0
2, 27744, Note_on_c, 0, 77, 100
2, 27840, Note_on_c, 0, 77, 0
2, 27840, Note_on_c, 0, 76, 100
2, 27936, Note_on_c, 0, 76, 0
2, 27936, Note_on_c, 0, 74, 100
2, 28032, Note_on_c, 0, 74, 0
2, 28032, Note_on_c, 0, 72, 100
2, 28128, Note_on_c, 0, 72, 0
2, 28128, Note_on_c, 0, 71, 100
2, 28224, Note_on_c, 0, 71, 0
2, 28224, Note_on_c, 0, 69, 100
2, 28320, Note_on_c, 0, 69, 0
2, 28320, Note_on_c, 0, 67, 100
2, 28416, Note_on_c, 0, 67, 0
2, 28416, Note_on_c, 0, 69, 100
2, 28512, Note_on_c, 0, 69, 0
2, 28512, Note_on_c, 0, 70, 100
2, 28608, Note_on_c, 0, 70, 0
2, 28608, Note_on_c, 0, 69, 100
2, 28704, Note_on_c, 0, 69, 0
2, 28704, Note_on_c, 0, 67, 100
2, 28800, Note_on_c, 0, 67, 0
2, 28800, Note_on_c, 0, 65, 100
2, 28896, Note_on_c, 0, 65, 0
2, 28896, Note_on_c, 0, 77, 100
2, 28992, Note_on_c, 0, 77, 0
2, 28992, Note_on_c, 0, 72, 100
2, 29088, Note_on_c, 0, 72, 0
2, 29088, Note_on_c, 0, 76, 100
2, 29184, Note_on_c, 0, 76, 0
2, 29184, Note_on_c, 0, 74, 100
2, 29280, Note_on_c, 0, 74, 0
2, 29280, Note_on_c, 0, 76, 100
2, 29376, Note_on_c, 0, 76, 0
2, 29376, Note_on_c, 0, 74, 100
2, 29472, Note_on_c, 0, 74, 0
2, 29472, Note_on_c, 0, 72, 100
2, 29568, Note_on_c, 0, 72, 0
2, 29568, Note_on_c, 0, 71, 100
2, 29664, Note_on_c, 0, 71, 0
2, 29664, Note_on_c, 0, 69, 100
2, 29760, Note_on_c, 0, 69, 0
2, 29760, Note_on_c, 0, 68, 100
2, 29856, Note_on_c, 0, 68, 0
2, 29856, Note_on_c, 0, 66, 100
2, 29952, Note_on_c, 0, 66, 0
2, 29952, Note_on_c, 0, 68, 100
2, 30048, Note_on_c, 0, 68, 0
2, 30048, Note_on_c, 0, 69, 100
2, 30144, Note_on_c, 0, 69, 0
2, 30144, Note_on_c, 0, 68, 100
2, 30240, Note_on_c, 0, 68, 0
2, 30240, Note_on_c, 0, 66, 100
2, 30336, Note_on_c, 0, 66, 0
2, 30336, Note_on_c, 0, 64, 100
2, 30432, Note_on_c, 0, 64, 0
2, 30432, Note_on_c, 0, 76, 100
2, 30528, Note_on_c, 0, 76, 0
2, 30528, Note_on_c, 0, 71, 100
2, 30624, Note_on_c, 0, 71, 0
2, 30624, Note_on_c, 0, 74, 100
2, 30720, Note_on_c, 0, 74, 0
2, 30720, Note_on_c, 0, 72, 100
2, 30816, Note_on_c, 0, 72, 0
2, 30816, Note_on_c, 0, 74, 100
2, 30912, Note_on_c, 0, 74, 0
2, 30912, Note_on_c, 0, 72, 100
2, 31008, Note_on_c, 0, 72, 0
2, 31008, Note_on_c, 0, 71, 100
2, 31104, Note_on_c, 0, 71, 0
2, 31104, Note_on_c, 0, 69, 100
2, 31200, Note_on_c, 0, 69, 0
2, 31200, Note_on_c, 0, 81, 100
2, 31296, Note_on_c, 0, 81, 0
2, 31296, Note_on_c, 0, 76, 100
2, 31392, Note_on_c, 0, 76, 0
2, 31392, Note_on_c, 0, 79, 100
2, 31488, Note_on_c, 0, 79, 0
2, 31488, Note_on_c, 0, 77, 100
2, 31584, Note_on_c, 0, 77, 0
2, 31584, Note_on_c, 0, 79, 100
2, 31680, Note_on_c, 0, 79, 0
2, 31680, Note_on_c, 0, 77, 100
2, 31776, Note_on_c, 0, 77, 0
2, 31776, Note_on_c, 0, 76, 100
2, 31872, Note_on_c, 0, 76, 0
2, 31872, Note_on_c, 0, 74, 100
2, 31968, Note_on_c, 0, 74, 0
2, 31968, Note_on_c, 0, 77, 100
2, 32064, Note_on_c, 0, 77, 0
2, 32064, Note_on_c, 0, 71, 100
2, 32160, Note_on_c, 0, 71, 0
2, 32160, Note_on_c, 0, 74, 100
2, 32256, Note_on_c, 0, 74, 0
2, 32256, Note_on_c, 0, 76, 100
2, 32352, Note_on_c, 0, 76, 0
2, 32352, Note_on_c, 0, 74, 100
2, 32448, Note_on_c, 0, 74, 0
2, 32448, Note_on_c, 0, 72, 100
2, 32544, Note_on_c, 0, 72, 0
2, 32544, Note_on_c, 0, 76, 100
2, 32640, Note_on_c, 0, 76, 0
2, 32640, Note_on_c, 0, 74, 100
2, 32736, Note_on_c, 0, 74, 0
2, 32736, Note_on_c, 0, 72, 100
2, 32832, Note_on_c, 0, 72, 0
2, 32832, Note_on_c, 0, 71, 100
2, 32928, Note_on_c, 0, 71, 0
2, 32928, Note_on_c, 0, 74, 100
2, 33024, Note_on_c, 0, 74, 0
2, 33024, Note_on_c, 0, 72, 100
2, 33216, Note_on_c, 0, 72, 0
2, 33216, Note_on_c, 0, 69, 100
2, 33408, Note_on_c, 0, 69, 0
2, 33504, Note_on_c, 0, 64, 100
2, 33600, Note_on_c, 0, 64, 0
2, 33600, Note_on_c, 0, 69, 100
2, 33696, Note_on_c, 0, 69, 0
2, 33696, Note_on_c, 0, 72, 100
2, 33792, Note_on_c, 0, 72, 0
2, 33792, Note_on_c, 0, 77, 100
2, 33840, Note_on_c, 0, 77, 0
2, 33840, Note_on_c, 0, 79, 100
2, 33888, Note_on_c, 0, 79, 0
2, 33888, Note_on_c, 0, 81, 100
2, 34080, Note_on_c, 0, 81, 0
2, 34080, Note_on_c, 0, 77, 100
2, 34176, Note_on_c, 0, 77, 0
2, 34176, Note_on_c, 0, 75, 100
2, 34224, Note_on_c, 0, 75, 0
2, 34224, Note_on_c, 0, 76, 100
2, 34272, Note_on_c, 0, 76, 0
2, 34272, Note_on_c, 0, 78, 100
2, 34464, Note_on_c, 0, 78, 0
2, 34464, Note_on_c, 0, 75, 100
2, 34560, Note_on_c, 0, 75, 0
2, 34560, Note_on_c, 0, 76, 100
2, 34656, Note_on_c, 0, 76, 0
2, 34656, Note_on_c, 0, 71, 100
2, 34752, Note_on_c, 0, 71, 0
2, 34752, Note_on_c, 0, 67, 100
2, 34848, Note_on_c, 0, 67, 0
2, 34848, Note_on_c, 0, 64, 100
2, 34944, Note_on_c, 0, 64, 0
2, 34944, Note_on_c, 0, 63, 100
2, 35040, Note_on_c, 0, 63, 0
2, 35040, Note_on_c, 0, 64, 100
2, 35136, Note_on_c, 0, 64, 0
2, 35136, Note_on_c, 0, 67, 100
2, 35232, Note_on_c, 0, 67, 0
2, 35232, Note_on_c, 0, 71, 100
2, 35328, Note_on_c, 0, 71, 0
2, 35328, Note_on_c, 0, 76, 100
2, 35376, Note_on_c, 0, 76, 0
2, 35376, Note_on_c, 0, 77, 100
2, 35424, Note_on_c, 0, 77, 0
2, 35424, Note_on_c, 0, 79, 100
2, 35616, Note_on_c, 0, 79, 0
2, 35616, Note_on_c, 0, 76, 100
2, 35712, Note_on_c, 0, 76, 0
2, 35712, Note_on_c, 0, 73, 100
2, 35760, Note_on_c, 0, 73, 0
2, 35760, Note_on_c, 0, 74, 100
2, 35808, Note_on_c, 0, 74, 0
2, 35808, Note_on_c, 0, 76, 100
2, 36000, Note_on_c, 0, 76, 0
2, 36000, Note_on_c, 0, 73, 100
2, 36096, Note_on_c, 0, 73, 0
2, 36096, Note_on_c, 0, 74, 100
2, 36192, Note_on_c, 0, 74, 0
2, 36192, Note_on_c, 0, 69, 100
2, 36288, Note_on_c, 0, 69, 0
2, 36288, Note_on_c, 0, 65, 100
2, 36384, Note_on_c, 0, 65, 0
2, 36384, Note_on_c, 0, 62, 100
2, 36480, Note_on_c, 0, 62, 0
2, 36480, Note_on_c, 0, 61, 100
2, 36576, Note_on_c, 0, 61, 0
2, 36576, Note_on_c, 0, 62, 100
2, 36672, Note_on_c, 0, 62, 0
2, 36672, Note_on_c, 0, 65, 100
2, 36768, Note_on_c, 0, 65, 0
2, 36768, Note_on_c, 0, 69, 100
2, 36864, Note_on_c, 0, 69, 0
2, 36864, Note_on_c, 0, 74, 100
2, 36912, Note_on_c, 0, 74, 0
2, 36912, Note_on_c, 0, 76, 100
2, 36960, Note_on_c, 0, 76, 0
2, 36960, Note_on_c, 0, 77, 100
2, 37152, Note_on_c, 0, 77, 0
2, 37152, Note_on_c, 0, 74, 100
2, 37248, Note_on_c, 0, 74, 0
2, 37248, Note_on_c, 0, 71, 100
2, 37296, Note_on_c, 0, 71, 0
2, 37296, Note_on_c, 0, 72, 100
2, 37344, Note_on_c, 0, 72, 0
2, 37344, Note_on_c, 0, 74, 100
2, 37536, Note_on_c, 0, 74, 0
2, 37536, Note_on_c, 0, 71, 100
2, 37632, Note_on_c, 0, 71, 0
2, 37632, Note_on_c, 0, 72, 100
2, 37728, Note_on_c, 0, 72, 0
2, 37728, Note_on_c, 0, 67, 100
2, 37824, Note_on_c, 0, 67, 0
2, 37824, Note_on_c, 0, 69, 100
2, 37920, Note_on_c, 0, 69, 0
2, 37920, Note_on_c, 0, 71, 100
2, 38016, Note_on_c, 0, 71, 0
2, 38016, Note_on_c, 0, 72, 100
2, 38112, Note_on_c, 0, 72, 0
2, 38112, Note_on_c, 0, 67, 100
2, 38208, Note_on_c, 0, 67, 0
2, 38208, Note_on_c, 0, 74, 100
2, 38304, Note_on_c, 0, 74, 0
2, 38304, Note_on_c, 0, 67, 100
2, 38400, Note_on_c, 0, 67, 0
2, 38400, Note_on_c, 0, 76, 100
2, 38496, Note_on_c, 0, 76, 0
2, 38496, Note_on_c, 0, 71, 100
2, 38592, Note_on_c, 0, 71, 0
2, 38592, Note_on_c, 0, 72, 100
2, 38688, Note_on_c, 0, 72, 0
2, 38688, Note_on_c, 0, 74, 100
2, 38784, Note_on_c, 0, 74, 0
2, 38784, Note_on_c, 0, 76, 100
2, 38880, Note_on_c, 0, 76, 0
2, 38880, Note_on_c, 0, 72, 100
2, 38976, Note_on_c, 0, 72, 0
2, 38976, Note_on_c, 0, 78, 100
2, 39072, Note_on_c, 0, 78, 0
2, 39072, Note_on_c, 0, 72, 100
2, 39168, Note_on_c, 0, 72, 0
2, 39168, Note_on_c, 0, 79, 100
2, 39264, Note_on_c, 0, 79, 0
2, 39264, Note_on_c, 0, 67, 100
2, 39360, Note_on_c, 0, 67, 0
2, 39360, Note_on_c, 0, 71, 100
2, 39456, Note_on_c, 0, 71, 0
2, 39456, Note_on_c, 0, 74, 100
2, 39552, Note_on_c, 0, 74, 0
2, 39552, Note_on_c, 0, 79, 100
2, 40032, Note_on_c, 0, 79, 0
2, 40032, Note_on_c, 0, 72, 100
2, 40128, Note_on_c, 0, 72, 0
2, 40128, Note_on_c, 0, 76, 100
2, 40224, Note_on_c, 0, 76, 0
2, 40224, Note_on_c, 0, 79, 100
2, 40320, Note_on_c, 0, 79, 0
2, 40320, Note_on_c, 0, 84, 100
2, 40800, Note_on_c, 0, 84, 0
2, 40800, Note_on_c, 0, 72, 100
2, 40896, Note_on_c, 0, 72, 0
2, 40896, Note_on_c, 0, 76, 100
2, 40992, Note_on_c, 0, 76, 0
2, 40992, Note_on_c, 0, 79, 100
2, 41088, Note_on_c, 0, 79, 0
2, 41088, Note_on_c, 0, 84, 100
2, 41664, Note_on_c, 0, 84, 0
2, 41664, Note_on_c, 0, 72, 100
2, 41856, Note_on_c, 0, 72, 0
2, 41856, Note_on_c, 0, 74, 100
2, 42048, Note_on_c, 0, 74, 0
2, 42048, Note_on_c, 0, 83, 100
2, 42240, Note_on_c, 0, 83, 0
2, 42240, Note_on_c, 0, 84, 100
2, 42336, Note_on_c, 0, 84, 0
2, 42336, Note_on_c, 0, 79, 100
2, 42432, Note_on_c, 0, 79, 0
2, 42432, Note_on_c, 0, 76, 100
2, 42528, Note_on_c, 0, 76, 0
2, 42528, Note_on_c, 0, 72, 100
2, 42624, Note_on_c, 0, 72, 0
2, 42624, Note_on_c, 0, 60, 100
2, 42720, Note_on_c, 0, 60, 0
2, 42720, Note_on_c, 0, 72, 100
2, 42816, Note_on_c, 0, 72, 0
2, 42816, Note_on_c, 0, 71, 100
2, 42912, Note_on_c, 0, 71, 0
2, 42912, Note_on_c, 0, 72, 100
2, 43008, Note_on_c, 0, 72, 0
2, 43008, Note_on_c, 0, 74, 100
2, 43104, Note_on_c, 0, 74, 0
2, 43104, Note_on_c, 0, 72, 100
2, 43200, Note_on_c, 0, 72, 0
2, 43200, Note_on_c, 0, 71, 100
2, 43296, Note_on_c, 0, 71, 0
2, 43296, Note_on_c, 0, 72, 100
2, 43392, Note_on_c, 0, 72, 0
2, 43392, Note_on_c, 0, 76, 100
2, 43488, Note_on_c, 0, 76, 0
2, 43488, Note_on_c, 0, 72, 100
2, 43584, Note_on_c, 0, 72, 0
2, 43584, Note_on_c, 0, 71, 100
2, 43680, Note_on_c, 0, 71, 0
2, 43680, Note_on_c, 0, 72, 100
2, 43776, Note_on_c, 0, 72, 0
2, 43776, Note_on_c, 0, 77, 100
2, 43872, Note_on_c, 0, 77, 0
2, 43872, Note_on_c, 0, 72, 100
2, 43968, Note_on_c, 0, 72, 0
2, 43968, Note_on_c, 0, 71, 100
2, 44064, Note_on_c, 0, 71, 0
2, 44064, Note_on_c, 0, 72, 100
2, 44160, Note_on_c, 0, 72, 0
2, 44160, Note_on_c, 0, 79, 100
2, 44256, Note_on_c, 0, 79, 0
2, 44256, Note_on_c, 0, 72, 100
2, 44352, Note_on_c, 0, 72, 0
2, 44352, Note_on_c, 0, 71, 100
2, 44448, Note_on_c, 0, 71, 0
2, 44448, Note_on_c, 0, 72, 100
2, 44544, Note_on_c, 0, 72, 0
2, 44544, Note_on_c, 0, 81, 100
2, 44640, Note_on_c, 0, 81, 0
2, 44640, Note_on_c, 0, 82, 100
2, 44736, Note_on_c, 0, 82, 0
2, 44736, Note_on_c, 0, 81, 100
2, 44832, Note_on_c, 0, 81, 0
2, 44832, Note_on_c, 0, 79, 100
2, 44928, Note_on_c, 0, 79, 0
2, 44928, Note_on_c, 0, 77, 100
2, 45024, Note_on_c, 0, 77, 0
2, 45024, Note_on_c, 0, 76, 100
2, 45120, Note_on_c, 0, 76, 0
2, 45120, Note_on_c, 0, 74, 100
2, 45216, Note_on_c, 0, 74, 0
2, 45216, Note_on_c, 0, 72, 100
2, 45312, Note_on_c, 0, 72, 0
2, 45312, Note_on_c, 0, 71, 100
2, 45504, Note_on_c, 0, 71, 0
2, 45504, Note_on_c, 0, 67, 100
2, 45696, Note_on_c, 0, 67, 0
2, 45696, Note_on_c, 0, 83, 100
2, 46272, Note_on_c, 0, 83, 0
2, 46272, Note_on_c, 0, 81, 100
2, 46368, Note_on_c, 0, 81, 0
2, 46368, Note_on_c, 0, 80, 100
2, 46464, Note_on_c, 0, 80, 0
2, 46464, Note_on_c, 0, 81, 100
2, 46656, Note_on_c, 0, 81, 0
2, 46656, Note_on_c, 0, 84, 100
2, 47040, Note_on_c, 0, 84, 0
2, 47040, Note_on_c, 0, 78, 100
2, 47136, Note_on_c, 0, 78, 0
2, 47136, Note_on_c, 0, 79, 100
2, 47232, Note_on_c, 0, 79, 0
2, 47232, Note_on_c, 0, 81, 100
2, 47328, Note_on_c, 0, 81, 0
2, 47328, Note_on_c, 0, 78, 100
2, 47424, Note_on_c, 0, 78, 0
2, 47424, Note_on_c, 0, 79, 100
2, 47520, Note_on_c, 0, 79, 0
2, 47520, Note_on_c, 0, 76, 100
2, 47616, Note_on_c, 0, 76, 0
2, 47616, Note_on_c, 0, 78, 100
2, 47712, Note_on_c, 0, 78, 0
2, 47712, Note_on_c, 0, 74, 100
2, 47808, Note_on_c, 0, 74, 0
2, 47808, Note_on_c, 0, 73, 100
2, 47904, Note_on_c, 0, 73, 0
2, 47904, Note_on_c, 0, 74, 100
2, 48000, Note_on_c, 0, 74, 0
2, 48000, Note_on_c, 0, 78, 100
2, 48096, Note_on_c, 0, 78, 0
2, 48096, Note_on_c, 0, 74, 100
2, 48192, Note_on_c, 0, 74, 0
2, 48192, Note_on_c, 0, 81, 100
2, 48288, Note_on_c, 0, 81, 0
2, 48288, Note_on_c, 0, 78, 100
2, 48384, Note_on_c, 0, 78, 0
2, 48384, Note_on_c, 0, 86, 100
2, 48576, Note_on_c, 0, 86, 0
2, 48576, Note_on_c, 0, 74, 100
2, 48768, Note_on_c, 0, 74, 0
2, 48768, Note_on_c, 0, 81, 100
2, 49344, Note_on_c, 0, 81, 0
2, 49344, Note_on_c, 0, 79, 100
2, 49440, Note_on_c, 0, 79, 0
2, 49440, Note_on_c, 0, 78, 100
2, 49536, Note_on_c, 0, 78, 0
2, 49536, Note_on_c, 0, 79, 100
2, 49728, Note_on_c, 0, 79, 0
2, 49728, Note_on_c, 0, 83, 100
2, 50112, Note_on_c, 0, 83, 0
2, 50112, Note_on_c, 0, 76, 100
2, 50208, Note_on_c, 0, 76, 0
2, 50208, Note_on_c, 0, 78, 100
2, 50304, Note_on_c, 0, 78, 0
2, 50304, Note_on_c, 0, 79, 100
2, 50400, Note_on_c, 0, 79, 0
2, 50400, Note_on_c, 0, 76, 100
2, 50496, Note_on_c, 0, 76, 0
2, 50496, Note_on_c, 0, 78, 100
2, 50592, Note_on_c, 0, 78, 0
2, 50592, Note_on_c, 0, 75, 100
2, 50688, Note_on_c, 0, 75, 0
2, 50688, Note_on_c, 0, 76, 100
2, 50784, Note_on_c, 0, 76, 0
2, 50784, Note_on_c, 0, 72, 100
2, 50880, Note_on_c, 0, 72, 0
2, 50880, Note_on_c, 0, 71, 100
2, 50976, Note_on_c, 0, 71, 0
2, 50976, Note_on_c, 0, 72, 100
2, 51072, Note_on_c, 0, 72, 0
2, 51072, Note_on_c, 0, 76, 100
2, 51168, Note_on_c, 0, 76, 0
2, 51168, Note_on_c, 0, 72, 100
2, 51264, Note_on_c, 0, 72, 0
2, 51264, Note_on_c, 0, 79, 100
2, 51360, Note_on_c, 0, 79, 0
2, 51360, Note_on_c, 0, 76, 100
2, 51456, Note_on_c, 0, 76, 0
2, 51456, Note_on_c, 0, 84, 100
2, 51648, Note_on_c, 0, 84, 0
2, 51648, Note_on_c, 0, 72, 100
2, 51840, Note_on_c, 0, 72, 0
2, 51840, Note_on_c, 0, 79, 100
2, 52416, Note_on_c, 0, 79, 0
2, 52416, Note_on_c, 0, 78, 100
2, 52512, Note_on_c, 0, 78, 0
2, 52512, Note_on_c, 0, 79, 100
2, 52608, Note_on_c, 0, 79, 0
2, 52608, Note_on_c, 0, 81, 100
2, 52800, Note_on_c, 0, 81, 0
2, 52800, Note_on_c, 0, 72, 100
2, 52992, Note_on_c, 0, 72, 0
2, 52992, Note_on_c, 0, 71, 100
2, 53184, Note_on_c, 0, 71, 0
2, 53184, Note_on_c, 0, 81, 100
2, 53376, Note_on_c, 0, 81, 0
2, 53376, Note_on_c, 0, 79, 100
2, 53568, Note_on_c, 0, 79, 0
2, 53568, Note_on_c, 0, 71, 100
2, 53760, Note_on_c, 0, 71, 0
2, 53760, Note_on_c, 0, 69, 100
2, 53856, Note_on_c, 0, 69, 0
2, 53856, Note_on_c, 0, 71, 100
2, 53952, Note_on_c, 0, 71, 0
2, 53952, Note_on_c, 0, 72, 100
2, 54048, Note_on_c, 0, 72, 0
2, 54048, Note_on_c, 0, 71, 100
2, 54144, Note_on_c, 0, 71, 0
2, 54144, Note_on_c, 0, 69, 100
2, 54240, Note_on_c, 0, 69, 0
2, 54240, Note_on_c, 0, 67, 100
2, 54336, Note_on_c, 0, 67, 0
2, 54336, Note_on_c, 0, 66, 100
2, 54432, Note_on_c, 0, 66, 0
2, 54432, Note_on_c, 0, 64, 100
2, 54528, Note_on_c, 0, 64, 0
2, 54528, Note_on_c, 0, 63, 100
2, 54720, Note_on_c, 0, 63, 0
2, 54720, Note_on_c, 0, 72, 100
2, 54912, Note_on_c, 0, 72, 0
2, 54912, Note_on_c, 0, 71, 100
2, 55104, Note_on_c, 0, 71, 0
2, 55104, Note_on_c, 0, 76, 100
2, 55296, Note_on_c, 0, 76, 0
2, 55296, Note_on_c, 0, 79, 100
2, 55680, Note_on_c, 0, 79, 0
2, 55680, Note_on_c, 0, 78, 100
2, 55728, Note_on_c, 0, 78, 0
2, 55728, Note_on_c, 0, 79, 100
2, 55776, Note_on_c, 0, 79, 0
2, 55776, Note_on_c, 0, 78, 100
2, 55824, Note_on_c, 0, 78, 0
2, 55824, Note_on_c, 0, 79, 100
2, 55872, Note_on_c, 0, 79, 0
2, 55872, Note_on_c, 0, 78, 100
2, 55920, Note_on_c, 0, 78, 0
2, 55920, Note_on_c, 0, 79, 100
2, 55968, Note_on_c, 0, 79, 0
2, 55968, Note_on_c, 0, 78, 100
2, 56016, Note_on_c, 0, 78, 0
2, 56016, Note_on_c, 0, 79, 100
2, 56064, Note_on_c, 0, 79, 0
2, 56064, Note_on_c, 0, 78, 100
2, 56160, Note_on_c, 0, 78, 0
2, 56160, Note_on_c, 0, 79, 100
2, 56256, Note_on_c, 0, 79, 0
2, 56256, Note_on_c, 0, 81, 100
2, 56352, Note_on_c, 0, 81, 0
2, 56352, Note_on_c, 0, 79, 100
2, 56448, Note_on_c, 0, 79, 0
2, 56448, Note_on_c, 0, 78, 100
2, 56544, Note_on_c, 0, 78, 0
2, 56544, Note_on_c, 0, 81, 100
2, 56640, Note_on_c, 0, 81, 0
2, 56640, Note_on_c, 0, 76, 100
2, 56736, Note_on_c, 0, 76, 0
2, 56736, Note_on_c, 0, 81, 100
2, 56832, Note_on_c, 0, 81, 0
2, 56832, Note_on_c, 0, 75, 100
2, 56928, Note_on_c, 0, 75, 0
2, 56928, Note_on_c, 0, 76, 100
2, 57024, Note_on_c, 0, 76, 0
2, 57024, Note_on_c, 0, 78, 100
2, 57120, Note_on_c, 0, 78, 0
2, 57120, Note_on_c, 0, 76, 100
2, 57216, Note_on_c, 0, 76, 0
2, 57216, Note_on_c, 0, 75, 100
2, 57312, Note_on_c, 0, 75, 0
2, 57312, Note_on_c, 0, 78, 100
2, 57408, Note_on_c, 0, 78, 0
2, 57408, Note_on_c, 0, 72, 100
2, 57504, Note_on_c, 0, 72, 0
2, 57504, Note_on_c, 0, 78, 100
2, 57600, Note_on_c, 0, 78, 0
2, 57600, Note_on_c, 0, 69, 100
2, 57696, Note_on_c, 0, 69, 0
2, 57696, Note_on_c, 0, 71, 100
2, 57792, Note_on_c, 0, 71, 0
2, 57792, Note_on_c, 0, 72, 100
2, 57888, Note_on_c, 0, 72, 0
2, 57888, Note_on_c, 0, 71, 100
2, 57984, Note_on_c, 0, 71, 0
2, 57984, Note_on_c, 0, 69, 100
2, 58080, Note_on_c, 0, 69, 0
2, 58080, Note_on_c, 0, 72, 100
2, 58176, Note_on_c, 0, 72, 0
2, 58176, Note_on_c, 0, 67, 100
2, 58272, Note_on_c, 0, 67, 0
2, 58272, Note_on_c, 0, 72, 100
2, 58368, Note_on_c, 0, 72, 0
2, 58368, Note_on_c, 0, 66, 100
2, 58464, Note_on_c, 0, 66, 0
2, 58464, Note_on_c, 0, 67, 100
2, 58560, Note_on_c, 0, 67, 0
2, 58560, Note_on_c, 0, 69, 100
2, 58656, Note_on_c, 0, 69, 0
2, 58656, Note_on_c, 0, 67, 100
2, 58752, Note_on_c, 0, 67, 0
2, 58752, Note_on_c, 0, 66, 100
2, 58848, Note_on_c, 0, 66, 0
2, 58848, Note_on_c, 0, 69, 100
2, 58944, Note_on_c, 0, 69, 0
2, 58944, Note_on_c, 0, 64, 100
2, 59040, Note_on_c, 0, 64, 0
2, 59040, Note_on_c, 0, 69, 100
2, 59136, Note_on_c, 0, 69, 0
2, 59136, Note_on_c, 0, 63, 100
2, 59232, Note_on_c, 0, 63, 0
2, 59232, Note_on_c, 0, 69, 100
2, 59328, Note_on_c, 0, 69, 0
2, 59328, Note_on_c, 0, 59, 100
2, 59424, Note_on_c, 0, 59, 0
2, 59424, Note_on_c, 0, 61, 100
2, 59520, Note_on_c, 0, 61, 0
2, 59520, Note_on_c, 0, 63, 100
2, 59616, Note_on_c, 0, 63, 0
2, 59616, Note_on_c, 0, 64, 100
2, 59712, Note_on_c, 0, 64, 0
2, 59712, Note_on_c, 0, 66, 100
2, 59808, Note_on_c, 0, 66, 0
2, 59808, Note_on_c, 0, 67, 100
2, 59904, Note_on_c, 0, 67, 0
2, 59904, Note_on_c, 0, 69, 100
2, 60000, Note_on_c, 0, 69, 0
2, 60000, Note_on_c, 0, 71, 100
2, 60096, Note_on_c, 0, 71, 0
2, 60096, Note_on_c, 0, 73, 100
2, 60192, Note_on_c, 0, 73, 0
2, 60192, Note_on_c, 0, 75, 100
2, 60288, Note_on_c, 0, 75, 0
2, 60288, Note_on_c, 0, 76, 100
2, 60384, Note_on_c, 0, 76, 0
2, 60384, Note_on_c, 0, 78, 100
2, 60480, Note_on_c, 0, 78, 0
2, 60480, Note_on_c, 0, 79, 100
2, 60576, Note_on_c, 0, 79, 0
2, 60576, Note_on_c, 0, 81, 100
2, 60672, Note_on_c, 0, 81, 0
2, 60672, Note_on_c, 0, 83, 100
2, 60864, Note_on_c, 0, 83, 0
2, 60864, Note_on_c, 0, 76, 100
2, 61056, Note_on_c, 0, 76, 0
2, 61056, Note_on_c, 0, 78, 100
2, 61248, Note_on_c, 0, 78, 0
2, 61248, Note_on_c, 0, 75, 100
2, 61440, Note_on_c, 0, 75, 0
2, 61440, Note_on_c, 0, 76, 100
2, 61536, Note_on_c, 0, 76, 0
2, 61536, Note_on_c, 0, 74, 100
2, 61632, Note_on_c, 0, 74, 0
2, 61632, Note_on_c, 0, 72, 100
2, 61728, Note_on_c, 0, 72, 0
2, 61728, Note_on_c, 0, 71, 100
2, 61824, Note_on_c, 0, 71, 0
2, 61824, Note_on_c, 0, 69, 100
2, 62016, Note_on_c, 0, 69, 0
2, 62016, Note_on_c, 0, 69, 100
2, 62208, Note_on_c, 0, 69, 0
2, 62208, Note_on_c, 0, 69, 100
2, 62304, Note_on_c, 0, 69, 0
2, 62304, Note_on_c, 0, 71, 100
2, 62400, Note_on_c, 0, 71, 0
2, 62400, Note_on_c, 0, 72, 100
2, 62688, Note_on_c, 0, 72, 0
2, 62688, Note_on_c, 0, 71, 100
2, 62784, Note_on_c, 0, 71, 0
2, 62784, Note_on_c, 0, 69, 100
2, 62880, Note_on_c, 0, 69, 0
2, 62880, Note_on_c, 0, 67, 100
2, 62976, Note_on_c, 0, 67, 0
2, 62976, Note_on_c, 0, 66, 100
2, 63072, Note_on_c, 0, 66, 0
2, 63072, Note_on_c, 0, 67, 100
2, 63168, Note_on_c, 0, 67, 0
2, 63168, Note_on_c, 0, 69, 100
2, 63456, Note_on_c, 0, 69, 0
2, 63456, Note_on_c, 0, 67, 100
2, 63552, Note_on_c, 0, 67, 0
2, 63552, Note_on_c, 0, 66, 100
2, 63648, Note_on_c, 0, 66, 0
2, 63648, Note_on_c, 0, 64, 100
2, 63744, Note_on_c, 0, 64, 0
2, 63744, Note_on_c, 0, 63, 100
2, 63936, Note_on_c, 0, 63, 0
2, 63936, Note_on_c, 0, 71, 100
2, 64128, Note_on_c, 0, 71, 0
2, 64128, Note_on_c, 0, 67, 100
2, 64176, Note_on_c, 0, 67, 0
2, 64176, Note_on_c, 0, 69, 100
2, 64224, Note_on_c, 0, 69, 0
2, 64224, Note_on_c, 0, 67, 100
2, 64272, Note_on_c, 0, 67, 0
2, 64272, Note_on_c, 0, 69, 100
2, 64320, Note_on_c, 0, 69, 0
2, 64320, Note_on_c, 0, 66, 100
2, 64416, Note_on_c, 0, 66, 0
2, 64416, Note_on_c, 0, 64, 100
2, 64512, Note_on_c, 0, 64, 0
2, 64512, Note_on_c, 0, 64, 100
2, 64896, Note_on_c, 0, 64, 0
2, 64992, Note_on_c, 0, 71, 100
2, 65088, Note_on_c, 0, 71, 0
2, 65088, Note_on_c, 0, 69, 100
2, 65184, Note_on_c, 0, 69, 0
2, 65184, Note_on_c, 0, 71, 100
2, 65280, Note_on_c, 0, 71, 0
2, 65280, Note_on_c, 0, 76, 100
2, 65376, Note_on_c, 0, 76, 0
2, 65376, Note_on_c, 0, 75, 100
2, 65472, Note_on_c, 0, 75, 0
2, 65472, Note_on_c, 0, 76, 100
2, 65760, Note_on_c, 0, 76, 0
2, 65760, Note_on_c, 0, 71, 100
2, 65856, Note_on_c, 0, 71, 0
2, 65856, Note_on_c, 0, 69, 100
2, 65952, Note_on_c, 0, 69, 0
2, 65952, Note_on_c, 0, 71, 100
2, 66048, Note_on_c, 0, 71, 0
2, 66048, Note_on_c, 0, 79, 100
2, 66240, Note_on_c, 0, 79, 0
2, 66240, Note_on_c, 0, 78, 100
2, 66528, Note_on_c, 0, 78, 0
2, 66528, Note_on_c, 0, 71, 100
2, 66624, Note_on_c, 0, 71, 0
2, 66624, Note_on_c, 0, 69, 100
2, 66720, Note_on_c, 0, 69, 0
2, 66720, Note_on_c, 0, 71, 100
2, 66816, Note_on_c, 0, 71, 0
2, 66816, Note_on_c, 0, 78, 100
2, 66912, Note_on_c, 0, 78, 0
2, 66912, Note_on_c, 0, 76, 100
2, 67008, Note_on_c, 0, 76, 0
2, 67008, Note_on_c, 0, 78, 100
2, 67296, Note_on_c, 0, 78, 0
2, 67296, Note_on_c, 0, 71, 100
2, 67392, Note_on_c, 0, 71, 0
2, 67392, Note_on_c, 0, 69, 100
2, 67488, Note_on_c, 0, 69, 0
2, 67488, Note_on_c, 0, 71, 100
2, 67584, Note_on_c, 0, 71, 0
2, 67584, Note_on_c, 0, 81, 100
2, 67776, Note_on_c, 0, 81, 0
2, 67776, Note_on_c, 0, 79, 100
2, 68064, Note_on_c, 0, 79, 0
2, 68064, Note_on_c, 0, 76, 100
2, 68160, Note_on_c, 0, 76, 0
2, 68160, Note_on_c, 0, 75, 100
2, 68256, Note_on_c, 0, 75, 0
2, 68256, Note_on_c, 0, 76, 100
2, 68352, Note_on_c, 0, 76, 0
2, 68352, Note_on_c, 0, 78, 100
2, 68448, Note_on_c, 0, 78, 0
2, 68448, Note_on_c, 0, 76, 100
2, 68544, Note_on_c, 0, 76, 0
2, 68544, Note_on_c, 0, 75, 100
2, 68640, Note_on_c, 0, 75, 0
2, 68640, Note_on_c, 0, 76, 100
2, 68736, Note_on_c, 0, 76, 0
2, 68736, Note_on_c, 0, 80, 100
2, 68832, Note_on_c, 0, 80, 0
2, 68832, Note_on_c, 0, 76, 100
2, 68928, Note_on_c, 0, 76, 0
2, 68928, Note_on_c, 0, 75, 100
2, 69024, Note_on_c, 0, 75, 0
2, 69024, Note_on_c, 0, 76, 100
2, 69120, Note_on_c, 0, 76, 0
2, 69120, Note_on_c, 0, 81, 100
2, 69216, Note_on_c, 0, 81, 0
2, 69216, Note_on_c, 0, 76, 100
2, 69312, Note_on_c, 0, 76, 0
2, 69312, Note_on_c, 0, 75, 100
2, 69408, Note_on_c, 0, 75, 0
2, 69408, Note_on_c, 0, 76, 100
2, 69504, Note_on_c, 0, 76, 0
2, 69504, Note_on_c, 0, 83, 100
2, 69600, Note_on_c, 0, 83, 0
2, 69600, Note_on_c, 0, 76, 100
2, 69696, Note_on_c, 0, 76, 0
2, 69696, Note_on_c, 0, 75, 100
2, 69792, Note_on_c, 0, 75, 0
2, 69792, Note_on_c, 0, 76, 100
2, 69888, Note_on_c, 0, 76, 0
2, 69888, Note_on_c, 0, 84, 100
2, 69984, Note_on_c, 0, 84, 0
2, 69984, Note_on_c, 0, 69, 100
2, 70080, Note_on_c, 0, 69, 0
2, 70080, Note_on_c, 0, 68, 100
2, 70176, Note_on_c, 0, 68, 0
2, 70176, Note_on_c, 0, 69, 100
2, 70272, Note_on_c, 0, 69, 0
2, 70272, Note_on_c, 0, 73, 100
2, 70368, Note_on_c, 0, 73, 0
2, 70368, Note_on_c, 0, 69, 100
2, 70464, Note_on_c, 0, 69, 0
2, 70464, Note_on_c, 0, 68, 100
2, 70560, Note_on_c, 0, 68, 0
2, 70560, Note_on_c, 0, 69, 100
2, 70656, Note_on_c, 0, 69, 0
2, 70656, Note_on_c, 0, 74, 100
2, 70752, Note_on_c, 0, 74, 0
2, 70752, Note_on_c, 0, 69, 100
2, 70848, Note_on_c, 0, 69, 0
2, 70848, Note_on_c, 0, 68, 100
2, 70944, Note_on_c, 0, 68, 0
2, 70944, Note_on_c, 0, 69, 100
2, 71040, Note_on_c, 0, 69, 0
2, 71040, Note_on_c, 0, 76, 100
2, 71136, Note_on_c, 0, 76, 0
2, 71136, Note_on_c, 0, 69, 100
2, 71232, Note_on_c, 0, 69, 0
2, 71232, Note_on_c, 0, 68, 100
2, 71328, Note_on_c, 0, 68, 0
2, 71328, Note_on_c, 0, 69, 100
2, 71424, Note_on_c, 0, 69, 0
2, 71424, Note_on_c, 0, 77, 100
2, 71520, Note_on_c, 0, 77, 0
2, 71520, Note_on_c, 0, 62, 100
2, 71616, Note_on_c, 0, 62, 0
2, 71616, Note_on_c, 0, 61, 100
2, 71712, Note_on_c, 0, 61, 0
2, 71712, Note_on_c, 0, 62, 100
2, 71808, Note_on_c, 0, 62, 0
2, 71808, Note_on_c, 0, 66, 100
2, 71904, Note_on_c, 0, 66, 0
2, 71904, Note_on_c, 0, 62, 100
2, 72000, Note_on_c, 0, 62, 0
2, 72000, Note_on_c, 0, 61, 100
2, 72096, Note_on_c, 0, 61, 0
2, 72096, Note_on_c, 0, 62, 100
2, 72192, Note_on_c, 0, 62, 0
2, 72192, Note_on_c, 0, 67, 100
2, 72288, Note_on_c, 0, 67, 0
2, 72288, Note_on_c, 0, 62, 100
2, 72384, Note_on_c, 0, 62, 0
2, 72384, Note_on_c, 0, 61, 100
2, 72480, Note_on_c, 0, 61, 0
2, 72480, Note_on_c, 0, 62, 100
2, 72576, Note_on_c, 0, 62, 0
2, 72576, Note_on_c, 0, 69, 100
2, 72672, Note_on_c, 0, 69, 0
2, 72672, Note_on_c, 0, 62, 100
2, 72768, Note_on_c, 0, 62, 0
2, 72768, Note_on_c, 0, 61, 100
2, 72864, Note_on_c, 0, 61, 0
2, 72864, Note_on_c, 0, 62, 100
2, 72960, Note_on_c, 0, 62, 0
2, 72960, Note_on_c, 0, 71, 100
2, 73056, Note_on_c, 0, 71, 0
2, 73056, Note_on_c, 0, 67, 100
2, 73152, Note_on_c, 0, 67, 0
2, 73152, Note_on_c, 0, 66, 100
2, 73248, Note_on_c, 0, 66, 0
2, 73248, Note_on_c, 0, 67, 100
2, 73344, Note_on_c, 0, 67, 0
2, 73344, Note_on_c, 0, 71, 100
2, 73440, Note_on_c, 0, 71, 0
2, 73440, Note_on_c, 0, 67, 100
2, 73536, Note_on_c, 0, 67, 0
2, 73536, Note_on_c, 0, 66, 100
2, 73632, Note_on_c, 0, 66, 0
2, 73632, Note_on_c, 0, 67, 100
2, 73728, Note_on_c, 0, 67, 0
2, 73728, Note_on_c, 0, 72, 100
2, 73824, Note_on_c, 0, 72, 0
2, 73824, Note_on_c, 0, 67, 100
2, 73920, Note_on_c, 0, 67, 0
2, 73920, Note_on_c, 0, 66, 100
2, 74016, Note_on_c, 0, 66, 0
2, 74016, Note_on_c, 0, 67, 100
2, 74112, Note_on_c, 0, 67, 0
2, 74112, Note_on_c, 0, 74, 100
2, 74208, Note_on_c, 0, 74, 0
2, 74208, Note_on_c, 0, 67, 100
2, 74304, Note_on_c, 0, 67, 0
2, 74304, Note_on_c, 0, 66, 100
2, 74400, Note_on_c, 0, 66, 0
2, 74400, Note_on_c, 0, 67, 100
2, 74496, Note_on_c, 0, 67, 0
2, 74496, Note_on_c, 0, 76, 100
2, 74592, Note_on_c, 0, 76, 0
2, 74592, Note_on_c, 0, 72, 100
2, 74688, Note_on_c, 0, 72, 0
2, 74688, Note_on_c, 0, 71, 100
2, 74784, Note_on_c, 0, 71, 0
2, 74784, Note_on_c, 0, 72, 100
2, 74880, Note_on_c, 0, 72, 0
2, 74880, Note_on_c, 0, 76, 100
2, 74976, Note_on_c, 0, 76, 0
2, 74976, Note_on_c, 0, 72, 100
2, 75072, Note_on_c, 0, 72, 0
2, 75072, Note_on_c, 0, 71, 100
2, 75168, Note_on_c, 0, 71, 0
2, 75168, Note_on_c, 0, 72, 100
2, 75264, Note_on_c, 0, 72, 0
2, 75264, Note_on_c, 0, 77, 100
2, 75360, Note_on_c, 0, 77, 0
2, 75360, Note_on_c, 0, 72, 100
2, 75456, Note_on_c, 0, 72, 0
2, 75456, Note_on_c, 0, 71, 100
2, 75552, Note_on_c, 0, 71, 0
2, 75552, Note_on_c, 0, 72, 100
2, 75648, Note_on_c, 0, 72, 0
2, 75648, Note_on_c, 0, 79, 100
2, 75744, Note_on_c, 0, 79, 0
2, 75744, Note_on_c, 0, 72, 100
2, 75840, Note_on_c, 0, 72, 0
2, 75840, Note_on_c, 0, 71, 100
2, 75936, Note_on_c, 0, 71, 0
2, 75936, Note_on_c, 0, 72, 100
2, 76032, Note_on_c, 0, 72, 0
2, 76032, Note_on_c, 0, 81, 100
2, 76128, Note_on_c, 0, 81, 0
2, 76128, Note_on_c, 0, 82, 100
2, 76224, Note_on_c, 0, 82, 0
2, 76224, Note_on_c, 0, 81, 100
2, 76320, Note_on_c, 0, 81, 0
2, 76320, Note_on_c, 0, 79, 100
2, 76416, Note_on_c, 0, 79, 0
2, 76416, Note_on_c, 0, 77, 100
2, 76512, Note_on_c, 0, 77, 0
2, 76512, Note_on_c, 0, 76, 100
2, 76608, Note_on_c, 0, 76, 0
2, 76608, Note_on_c, 0, 74, 100
2, 76704, Note_on_c, 0, 74, 0
2, 76704, Note_on_c, 0, 72, 100
2, 76800, Note_on_c, 0, 72, 0
2, 76800, Note_on_c, 0, 70, 100
2, 76896, Note_on_c, 0, 70, 0
2, 76896, Note_on_c, 0, 69, 100
2, 76992, Note_on_c, 0, 69, 0
2, 76992, Note_on_c, 0, 70, 100
2, 77088, Note_on_c, 0, 70, 0
2, 77088, Note_on_c, 0, 81, 100
2, 77184, Note_on_c, 0, 81, 0
2, 77184, Note_on_c, 0, 79, 100
2, 77280, Note_on_c, 0, 79, 0
2, 77280, Note_on_c, 0, 77, 100
2, 77376, Note_on_c, 0, 77, 0
2, 77376, Note_on_c, 0, 76, 100
2, 77472, Note_on_c, 0, 76, 0
2, 77472, Note_on_c, 0, 74, 100
2, 77568, Note_on_c, 0, 74, 0
2, 77568, Note_on_c, 0, 73, 100
2, 77664, Note_on_c, 0, 73, 0
2, 77664, Note_on_c, 0, 74, 100
2, 77760, Note_on_c, 0, 74, 0
2, 77760, Note_on_c, 0, 73, 100
2, 77856, Note_on_c, 0, 73, 0
2, 77856, Note_on_c, 0, 71, 100
2, 77952, Note_on_c, 0, 71, 0
2, 77952, Note_on_c, 0, 69, 100
2, 78048, Note_on_c, 0, 69, 0
2, 78048, Note_on_c, 0, 67, 100
2, 78144, Note_on_c, 0, 67, 0
2, 78144, Note_on_c, 0, 65, 100
2, 78240, Note_on_c, 0, 65, 0
2, 78240, Note_on_c, 0, 64, 100
2, 78336, Note_on_c, 0, 64, 0
2, 78336, Note_on_c, 0, 65, 100
2, 78432, Note_on_c, 0, 65, 0
2, 78432, Note_on_c, 0, 69, 100
2, 78528, Note_on_c, 0, 69, 0
2, 78528, Note_on_c, 0, 74, 100
2, 78624, Note_on_c, 0, 74, 0
2, 78624, Note_on_c, 0, 77, 100
2, 78720, Note_on_c, 0, 77, 0
2, 78720, Note_on_c, 0, 81, 100
2, 79200, Note_on_c, 0, 81, 0
2, 79200, Note_on_c, 0, 79, 100
2, 79296, Note_on_c, 0, 79, 0
2, 79296, Note_on_c, 0, 77, 100
2, 79392, Note_on_c, 0, 77, 0
2, 79392, Note_on_c, 0, 81, 100
2, 79488, Note_on_c, 0, 81, 0
2, 79488, Note_on_c, 0, 79, 100
2, 79584, Note_on_c, 0, 79, 0
2, 79584, Note_on_c, 0, 77, 100
2, 79680, Note_on_c, 0, 77, 0
2, 79680, Note_on_c, 0, 76, 100
2, 79776, Note_on_c, 0, 76, 0
2, 79776, Note_on_c, 0, 79, 100
2, 79872, Note_on_c, 0, 79, 0
2, 79872, Note_on_c, 0, 77, 100
2, 79968, Note_on_c, 0, 77, 0
2, 79968, Note_on_c, 0, 76, 100
2, 80064, Note_on_c, 0, 76, 0
2, 80064, Note_on_c, 0, 74, 100
2, 80160, Note_on_c, 0, 74, 0
2, 80160, Note_on_c, 0, 77, 100
2, 80256, Note_on_c, 0, 77, 0
2, 80256, Note_on_c, 0, 76, 100
2, 80352, Note_on_c, 0, 76, 0
2, 80352, Note_on_c, 0, 74, 100
2, 80448, Note_on_c, 0, 74, 0
2, 80448, Note_on_c, 0, 73, 100
2, 80544, Note_on_c, 0, 73, 0
2, 80544, Note_on_c, 0, 76, 100
2, 80640, Note_on_c, 0, 76, 0
2, 80640, Note_on_c, 0, 74, 100
2, 81024, Note_on_c, 0, 74, 0
2, 81120, Note_on_c, 0, 74, 100
2, 81216, Note_on_c, 0, 74, 0
2, 81216, Note_on_c, 0, 73, 100
2, 81312, Note_on_c, 0, 73, 0
2, 81312, Note_on_c, 0, 74, 100
2, 81408, Note_on_c, 0, 74, 0
2, 81408, Note_on_c, 0, 76, 100
2, 81504, Note_on_c, 0, 76, 0
2, 81504, Note_on_c, 0, 74, 100
2, 81600, Note_on_c, 0, 74, 0
2, 81600, Note_on_c, 0, 73, 100
2, 81696, Note_on_c, 0, 73, 0
2, 81696, Note_on_c, 0, 74, 100
2, 81792, Note_on_c, 0, 74, 0
2, 81792, Note_on_c, 0, 77, 100
2, 81888, Note_on_c, 0, 77, 0
2, 81888, Note_on_c, 0, 74, 100
2, 81984, Note_on_c, 0, 74, 0
2, 81984, Note_on_c, 0, 73, 100
2, 82080, Note_on_c, 0, 73, 0
2, 82080, Note_on_c, 0, 74, 100
2, 82176, Note_on_c, 0, 74, 0
2, 82176, Note_on_c, 0, 79, 100
2, 82272, Note_on_c, 0, 79, 0
2, 82272, Note_on_c, 0, 74, 100
2, 82368, Note_on_c, 0, 74, 0
2, 82368, Note_on_c, 0, 73, 100
2, 82464, Note_on_c, 0, 73, 0
2, 82464, Note_on_c, 0, 74, 100
2, 82560, Note_on_c, 0, 74, 0
2, 82560, Note_on_c, 0, 81, 100
2, 82656, Note_on_c, 0, 81, 0
2, 82656, Note_on_c, 0, 74, 100
2, 82752, Note_on_c, 0, 74, 0
2, 82752, Note_on_c, 0, 73, 100
2, 82848, Note_on_c, 0, 73, 0
2, 82848, Note_on_c, 0, 74, 100
2, 82944, Note_on_c, 0, 74, 0
2, 82944, Note_on_c, 0, 82, 100
2, 83808, Note_on_c, 0, 82, 0
2, 83808, Note_on_c, 0, 72, 100
2, 83904, Note_on_c, 0, 72, 0
2, 83904, Note_on_c, 0, 71, 100
2, 84000, Note_on_c, 0, 71, 0
2, 84000, Note_on_c, 0, 72, 100
2, 84096, Note_on_c, 0, 72, 0
2, 84096, Note_on_c, 0, 76, 100
2, 84192, Note_on_c, 0, 76, 0
2, 84192, Note_on_c, 0, 72, 100
2, 84288, Note_on_c, 0, 72, 0
2, 84288, Note_on_c, 0, 71, 100
2, 84384, Note_on_c, 0, 71, 0
2, 84384, Note_on_c, 0, 72, 100
2, 84480, Note_on_c, 0, 72, 0
2, 84480, Note_on_c, 0, 77, 100
2, 84576, Note_on_c, 0, 77, 0
2, 84576, Note_on_c, 0, 72, 100
2, 84672, Note_on_c, 0, 72, 0
2, 84672, Note_on_c, 0, 71, 100
2, 84768, Note_on_c, 0, 71, 0
2, 84768, Note_on_c, 0, 72, 100
2, 84864, Note_on_c, 0, 72, 0
2, 84864, Note_on_c, 0, 79, 100
2, 84960, Note_on_c, 0, 79, 0
2, 84960, Note_on_c, 0, 72, 100
2, 85056, Note_on_c, 0, 72, 0
2, 85056, Note_on_c, 0, 71, 100
2, 85152, Note_on_c, 0, 71, 0
2, 85152, Note_on_c, 0, 72, 100
2, 85248, Note_on_c, 0, 72, 0
2, 85248, Note_on_c, 0, 81, 100
2, 86112, Note_on_c, 0, 81, 0
2, 86112, Note_on_c, 0, 74, 100
2, 86208, Note_on_c, 0, 74, 0
2, 86208, Note_on_c, 0, 76, 100
2, 86304, Note_on_c, 0, 76, 0
2, 86304, Note_on_c, 0, 78, 100
2, 86400, Note_on_c, 0, 78, 0
2, 86400, Note_on_c, 0, 79, 100
2, 86496, Note_on_c, 0, 79, 0
2, 86496, Note_on_c, 0, 81, 100
2, 86592, Note_on_c, 0, 81, 0
2, 86592, Note_on_c, 0, 82, 100
2, 86688, Note_on_c, 0, 82, 0
2, 86688, Note_on_c, 0, 84, 100
2, 86784, Note_on_c, 0, 84, 0
2, 86784, Note_on_c, 0, 86, 100
2, 86880, Note_on_c, 0, 86, 0
2, 86880, Note_on_c, 0, 84, 100
2, 86976, Note_on_c, 0, 84, 0
2, 86976, Note_on_c, 0, 82, 100
2, 87072, Note_on_c, 0, 82, 0
2, 87072, Note_on_c, 0, 81, 100
2, 87168, Note_on_c, 0, 81, 0
2, 87168, Note_on_c, 0, 79, 100
2, 87264, Note_on_c, 0, 79, 0
2, 87264, Note_on_c, 0, 78, 100
2, 87360, Note_on_c, 0, 78, 0
2, 87360, Note_on_c, 0, 76, 100
2, 87456, Note_on_c, 0, 76, 0
2, 87456, Note_on_c, 0, 74, 100
2, 87552, Note_on_c, 0, 74, 0
2, 87552, Note_on_c, 0, 79, 100
2, 88416, Note_on_c, 0, 79, 0
2, 88416, Note_on_c, 0, 76, 100
2, 88512, Note_on_c, 0, 76, 0
2, 88512, Note_on_c, 0, 77, 100
2, 88608, Note_on_c, 0, 77, 0
2, 88608, Note_on_c, 0, 79, 100
2, 88704, Note_on_c, 0, 79, 0
2, 88704, Note_on_c, 0, 81, 100
2, 88800, Note_on_c, 0, 81, 0
2, 88800, Note_on_c, 0, 83, 100
2, 88896, Note_on_c, 0, 83, 0
2, 88896, Note_on_c, 0, 85, 100
2, 88992, Note_on_c, 0, 85, 0
2, 88992, Note_on_c, 0, 86, 100
2, 89088, Note_on_c, 0, 86, 0
2, 89088, Note_on_c, 0, 88, 100
2, 89184, Note_on_c, 0, 88, 0
2, 89184, Note_on_c, 0, 86, 100
2, 89280, Note_on_c, 0, 86, 0
2, 89280, Note_on_c, 0, 85, 100
2, 89376, Note_on_c, 0, 85, 0
2, 89376, Note_on_c, 0, 83, 100
2, 89472, Note_on_c, 0, 83, 0
2, 89472, Note_on_c, 0, 81, 100
2, 89568, Note_on_c, 0, 81, 0
2, 89568, Note_on_c, 0, 79, 100
2, 89664, Note_on_c, 0, 79, 0
2, 89664, Note_on_c, 0, 77, 100
2, 89760, Note_on_c, 0, 77, 0
2, 89760, Note_on_c, 0, 76, 100
2, 89856, Note_on_c, 0, 76, 0
2, 89856, Note_on_c, 0, 77, 100
2, 89952, Note_on_c, 0, 77, 0
2, 89952, Note_on_c, 0, 86, 100
2, 90048, Note_on_c, 0, 86, 0
2, 90048, Note_on_c, 0, 77, 100
2, 90144, Note_on_c, 0, 77, 0
2, 90144, Note_on_c, 0, 76, 100
2, 90240, Note_on_c, 0, 76, 0
2, 90240, Note_on_c, 0, 77, 100
2, 90336, Note_on_c, 0, 77, 0
2, 90336, Note_on_c, 0, 81, 100
2, 90432, Note_on_c, 0, 81, 0
2, 90432, Note_on_c, 0, 86, 100
2, 90528, Note_on_c, 0, 86, 0
2, 90528, Note_on_c, 0, 84, 100
2, 90624, Note_on_c, 0, 84, 0
2, 90624, Note_on_c, 0, 83, 100
2, 90720, Note_on_c, 0, 83, 0
2, 90720, Note_on_c, 0, 77, 100
2, 90816, Note_on_c, 0, 77, 0
2, 90816, Note_on_c, 0, 84, 100
2, 90912, Note_on_c, 0, 84, 0
2, 90912, Note_on_c, 0, 77, 100
2, 91008, Note_on_c, 0, 77, 0
2, 91008, Note_on_c, 0, 86, 100
2, 91104, Note_on_c, 0, 86, 0
2, 91104, Note_on_c, 0, 77, 100
2, 91200, Note_on_c, 0, 77, 0
2, 91200, Note_on_c, 0, 83, 100
2, 91296, Note_on_c, 0, 83, 0
2, 91296, Note_on_c, 0, 77, 100
2, 91392, Note_on_c, 0, 77, 0
2, 91392, Note_on_c, 0, 76, 100
2, 91488, Note_on_c, 0, 76, 0
2, 91488, Note_on_c, 0, 84, 100
2, 91584, Note_on_c, 0, 84, 0
2, 91584, Note_on_c, 0, 76, 100
2, 91680, Note_on_c, 0, 76, 0
2, 91680, Note_on_c, 0, 74, 100
2, 91776, Note_on_c, 0, 74, 0
2, 91776, Note_on_c, 0, 76, 100
2, 91872, Note_on_c, 0, 76, 0
2, 91872, Note_on_c, 0, 79, 100
2, 91968, Note_on_c, 0, 79, 0
2, 91968, Note_on_c, 0, 84, 100
2, 92064, Note_on_c, 0, 84, 0
2, 92064, Note_on_c, 0, 83, 100
2, 92160, Note_on_c, 0, 83, 0
2, 92160, Note_on_c, 0, 81, 100
2, 92256, Note_on_c, 0, 81, 0
2, 92256, Note_on_c, 0, 76, 100
2, 92352, Note_on_c, 0, 76, 0
2, 92352, Note_on_c, 0, 83, 100
2, 92448, Note_on_c, 0, 83, 0
2, 92448, Note_on_c, 0, 76, 100
2, 92544, Note_on_c, 0, 76, 0
2, 92544, Note_on_c, 0, 84, 100
2, 92640, Note_on_c, 0, 84, 0
2, 92640, Note_on_c, 0, 76, 100
2, 92736, Note_on_c, 0, 76, 0
2, 92736, Note_on_c, 0, 81, 100
2, 92832, Note_on_c, 0, 81, 0
2, 92832, Note_on_c, 0, 76, 100
2, 92928, Note_on_c, 0, 76, 0
2, 92928, Note_on_c, 0, 74, 100
2, 93024, Note_on_c, 0, 74, 0
2, 93024, Note_on_c, 0, 83, 100
2, 93120, Note_on_c, 0, 83, 0
2, 93120, Note_on_c, 0, 74, 100
2, 93216, Note_on_c, 0, 74, 0
2, 93216, Note_on_c, 0, 72, 100
2, 93312, Note_on_c, 0, 72, 0
2, 93312, Note_on_c, 0, 74, 100
2, 93408, Note_on_c, 0, 74, 0
2, 93408, Note_on_c, 0, 77, 100
2, 93504, Note_on_c, 0, 77, 0
2, 93504, Note_on_c, 0, 83, 100
2, 93600, Note_on_c, 0, 83, 0
2, 93600, Note_on_c, 0, 81, 100
2, 93696, Note_on_c, 0, 81, 0
2, 93696, Note_on_c, 0, 80, 100
2, 93792, Note_on_c, 0, 80, 0
2, 93792, Note_on_c, 0, 74, 100
2, 93888, Note_on_c, 0, 74, 0
2, 93888, Note_on_c, 0, 81, 100
2, 93984, Note_on_c, 0, 81, 0
2, 93984, Note_on_c, 0, 74, 100
2, 94080, Note_on_c, 0, 74, 0
2, 94080, Note_on_c, 0, 83, 100
2, 94176, Note_on_c, 0, 83, 0
2, 94176, Note_on_c, 0, 74, 100
2, 94272, Note_on_c, 0, 74, 0
2, 94272, Note_on_c, 0, 80, 100
2, 94368, Note_on_c, 0, 80, 0
2, 94368, Note_on_c, 0, 74, 100
2, 94464, Note_on_c, 0, 74, 0
2, 94464, Note_on_c, 0, 72, 100
2, 94560, Note_on_c, 0, 72, 0
2, 94560, Note_on_c, 0, 81, 100
2, 94656, Note_on_c, 0, 81, 0
2, 94656, Note_on_c, 0, 72, 100
2, 94752, Note_on_c, 0, 72, 0
2, 94752, Note_on_c, 0, 71, 100
2, 94848, Note_on_c, 0, 71, 0
2, 94848, Note_on_c, 0, 72, 100
2, 94944, Note_on_c, 0, 72, 0
2, 94944, Note_on_c, 0, 76, 100
2, 95040, Note_on_c, 0, 76, 0
2, 95040, Note_on_c, 0, 81, 100
2, 95136, Note_on_c, 0, 81, 0
2, 95136, Note_on_c, 0, 76, 100
2, 95232, Note_on_c, 0, 76, 0
2, 95232, Note_on_c, 0, 77, 100
2, 95328, Note_on_c, 0, 77, 0
2, 95328, Note_on_c, 0, 81, 100
2, 95424, Note_on_c, 0, 81, 0
2, 95424, Note_on_c, 0, 74, 100
2, 95520, Note_on_c, 0, 74, 0
2, 95520, Note_on_c, 0, 72, 100
2, 95616, Note_on_c, 0, 72, 0
2, 95616, Note_on_c, 0, 74, 100
2, 95712, Note_on_c, 0, 74, 0
2, 95712, Note_on_c, 0, 77, 100
2, 95808, Note_on_c, 0, 77, 0
2, 95808, Note_on_c, 0, 81, 100
2, 95904, Note_on_c, 0, 81, 0
2, 95904, Note_on_c, 0, 71, 100
2, 96000, Note_on_c, 0, 71, 0
2, 96000, Note_on_c, 0, 72, 100
2, 96192, Note_on_c, 0, 72, 0
2, 96192, Note_on_c, 0, 81, 100
2, 96384, Note_on_c, 0, 81, 0
2, 96384, Note_on_c, 0, 71, 100
2, 96576, Note_on_c, 0, 71, 0
2, 96576, Note_on_c, 0, 80, 100
2, 96768, Note_on_c, 0, 80, 0
2, 96768, Note_on_c, 0, 81, 100
2, 97152, Note_on_c, 0, 81, 0
2, 97248, Note_on_c, 0, 57, 100
2, 97344, Note_on_c, 0, 57, 0
2, 97344, Note_on_c, 0, 56, 100
2, 97440, Note_on_c, 0, 56, 0
2, 97440, Note_on_c, 0, 57, 100
2, 97536, Note_on_c, 0, 57, 0
2, 97536, Note_on_c, 0, 60, 100
2, 97632, Note_on_c, 0, 60, 0
2, 97632, Note_on_c, 0, 57, 100
2, 97728, Note_on_c, 0, 57, 0
2, 97728, Note_on_c, 0, 56, 100
2, 97824, Note_on_c, 0, 56, 0
2, 97824, Note_on_c, 0, 57, 100
2, 97920, Note_on_c, 0, 57, 0
2, 97920, Note_on_c, 0, 61, 100
2, 98016, Note_on_c, 0, 61, 0
2, 98016, Note_on_c, 0, 57, 100
2, 98112, Note_on_c, 0, 57, 0
2, 98112, Note_on_c, 0, 56, 100
2, 98208, Note_on_c, 0, 56, 0
2, 98208, Note_on_c, 0, 57, 100
2, 98304, Note_on_c, 0, 57, 0
2, 98304, Note_on_c, 0, 62, 100
2, 98400, Note_on_c, 0, 62, 0
2, 98400, Note_on_c, 0, 57, 100
2, 98496, Note_on_c, 0, 57, 0
2, 98496, Note_on_c, 0, 56, 100
2, 98592, Note_on_c, 0, 56, 0
2, 98592, Note_on_c, 0, 57, 100
2, 98688, Note_on_c, 0, 57, 0
2, 98688, Note_on_c, 0, 64, 100
2, 98784, Note_on_c, 0, 64, 0
2, 98784, Note_on_c, 0, 57, 100
2, 98880, Note_on_c, 0, 57, 0
2, 98880, Note_on_c, 0, 56, 100
2, 98976, Note_on_c, 0, 56, 0
2, 98976, Note_on_c, 0, 57, 100
2, 99072, Note_on_c, 0, 57, 0
2, 99072, Note_on_c, 0, 65, 100
2, 99168, Note_on_c, 0, 65, 0
2, 99168, Note_on_c, 0, 62, 100
2, 99264, Note_on_c, 0, 62, 0
2, 99264, Note_on_c, 0, 61, 100
2, 99360, Note_on_c, 0, 61, 0
2, 99360, Note_on_c, 0, 62, 100
2, 99456, Note_on_c, 0, 62, 0
2, 99456, Note_on_c, 0, 66, 100
2, 99552, Note_on_c, 0, 66, 0
2, 99552, Note_on_c, 0, 62, 100
2, 99648, Note_on_c, 0, 62, 0
2, 99648, Note_on_c, 0, 61, 100
2, 99744, Note_on_c, 0, 61, 0
2, 99744, Note_on_c, 0, 62, 100
2, 99840, Note_on_c, 0, 62, 0
2, 99840, Note_on_c, 0, 67, 100
2, 99936, Note_on_c, 0, 67, 0
2, 99936, Note_on_c, 0, 62, 100
2, 100032, Note_on_c, 0, 62, 0
2, 100032, Note_on_c, 0, 61, 100
2, 100128, Note_on_c, 0, 61, 0
2, 100128, Note_on_c, 0, 62, 100
2, 100224, Note_on_c, 0, 62, 0
2, 100224, Note_on_c, 0, 69, 100
2, 100320, Note_on_c, 0, 69, 0
2, 100320, Note_on_c, 0, 62, 100
2, 100416, Note_on_c, 0, 62, 0
2, 100416, Note_on_c, 0, 61, 100
2, 100512, Note_on_c, 0, 61, 0
2, 100512, Note_on_c, 0, 62, 100
2, 100608, Note_on_c, 0, 62, 0
2, 100608, Note_on_c, 0, 70, 100
2, 100704, Note_on_c, 0, 70, 0
2, 100704, Note_on_c, 0, 67, 100
2, 100800, Note_on_c, 0, 67, 0
2, 100800, Note_on_c, 0, 66, 100
2, 100896, Note_on_c, 0, 66, 0
2, 100896, Note_on_c, 0, 67, 100
2, 100992, Note_on_c, 0, 67, 0
2, 100992, Note_on_c, 0, 71, 100
2, 101088, Note_on_c, 0, 71, 0
2, 101088, Note_on_c, 0, 67, 100
2, 101184, Note_on_c, 0, 67, 0
2, 101184, Note_on_c, 0, 66, 100
2, 101280, Note_on_c, 0, 66, 0
2, 101280, Note_on_c, 0, 67, 100
2, 101376, Note_on_c, 0, 67, 0
2, 101376, Note_on_c, 0, 72, 100
2, 101472, Note_on_c, 0, 72, 0
2, 101472, Note_on_c, 0, 67, 100
2, 101568, Note_on_c, 0, 67, 0
2, 101568, Note_on_c, 0, 66, 100
2, 101664, Note_on_c, 0, 66, 0
2, 101664, Note_on_c, 0, 67, 100
2, 101760, Note_on_c, 0, 67, 0
2, 101760, Note_on_c, 0, 74, 100
2, 101856, Note_on_c, 0, 74, 0
2, 101856, Note_on_c, 0, 67, 100
2, 101952, Note_on_c, 0, 67, 0
2, 101952, Note_on_c, 0, 66, 100
2, 102048, Note_on_c, 0, 66, 0
2, 102048, Note_on_c, 0, 67, 100
2, 102144, Note_on_c, 0, 67, 0
2, 102144, Note_on_c, 0, 75, 100
2, 102240, Note_on_c, 0, 75, 0
2, 102240, Note_on_c, 0, 72, 100
2, 102336, Note_on_c, 0, 72, 0
2, 102336, Note_on_c, 0, 71, 100
2, 102432, Note_on_c, 0, 71, 0
2, 102432, Note_on_c, 0, 72, 100
2, 102528, Note_on_c, 0, 72, 0
2, 102528, Note_on_c, 0, 76, 100
2, 102624, Note_on_c, 0, 76, 0
2, 102624, Note_on_c, 0, 72, 100
2, 102720, Note_on_c, 0, 72, 0
2, 102720, Note_on_c, 0, 71, 100
2, 102816, Note_on_c, 0, 71, 0
2, 102816, Note_on_c, 0, 72, 100
2, 102912, Note_on_c, 0, 72, 0
2, 102912, Note_on_c, 0, 77, 100
2, 103008, Note_on_c, 0, 77, 0
2, 103008, Note_on_c, 0, 72, 100
2, 103104, Note_on_c, 0, 72, 0
2, 103104, Note_on_c, 0, 71, 100
2, 103200, Note_on_c, 0, 71, 0
2, 103200, Note_on_c, 0, 72, 100
2, 103296, Note_on_c, 0, 72, 0
2, 103296, Note_on_c, 0, 79, 100
2, 103392, Note_on_c, 0, 79, 0
2, 103392, Note_on_c, 0, 72, 100
2, 103488, Note_on_c, 0, 72, 0
2, 103488, Note_on_c, 0, 71, 100
2, 103584, Note_on_c, 0, 71, 0
2, 103584, Note_on_c, 0, 72, 100
2, 103680, Note_on_c, 0, 72, 0
2, 103680, Note_on_c, 0, 80, 100
2, 103728, Note_on_c, 0, 80, 0
2, 103728, Note_on_c, 0, 82, 100
2, 103776, Note_on_c, 0, 82, 0
2, 103776, Note_on_c, 0, 84, 100
2, 103968, Note_on_c, 0, 84, 0
2, 103968, Note_on_c, 0, 80, 100
2, 104064, Note_on_c, 0, 80, 0
2, 104064, Note_on_c, 0, 78, 100
2, 104112, Note_on_c, 0, 78, 0
2, 104112, Note_on_c, 0, 79, 100
2, 104160, Note_on_c, 0, 79, 0
2, 104160, Note_on_c, 0, 81, 100
2, 104352, Note_on_c, 0, 81, 0
2, 104352, Note_on_c, 0, 78, 100
2, 104448, Note_on_c, 0, 78, 0
2, 104448, Note_on_c, 0, 79, 100
2, 104544, Note_on_c, 0, 79, 0
2, 104544, Note_on_c, 0, 74, 100
2, 104640, Note_on_c, 0, 74, 0
2, 104640, Note_on_c, 0, 70, 100
2, 104736, Note_on_c, 0, 70, 0
2, 104736, Note_on_c, 0, 67, 100
2, 104832, Note_on_c, 0, 67, 0
2, 104832, Note_on_c, 0, 66, 100
2, 104928, Note_on_c, 0, 66, 0
2, 104928, Note_on_c, 0, 67, 100
2, 105024, Note_on_c, 0, 67, 0
2, 105024, Note_on_c, 0, 70, 100
2, 105120, Note_on_c, 0, 70, 0
2, 105120, Note_on_c, 0, 74, 100
2, 105216, Note_on_c, 0, 74, 0
2, 105216, Note_on_c, 0, 75, 100
2, 105264, Note_on_c, 0, 75, 0
2, 105264, Note_on_c, 0, 77, 100
2, 105312, Note_on_c, 0, 77, 0
2, 105312, Note_on_c, 0, 79, 100
2, 105504, Note_on_c, 0, 79, 0
2, 105504, Note_on_c, 0, 75, 100
2, 105600, Note_on_c, 0, 75, 0
2, 105600, Note_on_c, 0, 73, 100
2, 105648, Note_on_c, 0, 73, 0
2, 105648, Note_on_c, 0, 74, 100
2, 105696, Note_on_c, 0, 74, 0
2, 105696, Note_on_c, 0, 76, 100
2, 105888, Note_on_c, 0, 76, 0
2, 105888, Note_on_c, 0, 73, 100
2, 105984, Note_on_c, 0, 73, 0
2, 105984, Note_on_c, 0, 74, 100
2, 106080, Note_on_c, 0, 74, 0
2, 106080, Note_on_c, 0, 69, 100
2, 106176, Note_on_c, 0, 69, 0
2, 106176, Note_on_c, 0, 65, 100
2, 106272, Note_on_c, 0, 65, 0
2, 106272, Note_on_c, 0, 62, 100
2, 106368, Note_on_c, 0, 62, 0
2, 106368, Note_on_c, 0, 61, 100
2, 106464, Note_on_c, 0, 61, 0
2, 106464, Note_on_c, 0, 62, 100
2, 106560, Note_on_c, 0, 62, 0
2, 106560, Note_on_c, 0, 65, 100
2, 106656, Note_on_c, 0, 65, 0
2, 106656, Note_on_c, 0, 69, 100
2, 106752, Note_on_c, 0, 69, 0
2, 106752, Note_on_c, 0, 70, 100
2, 106800, Note_on_c, 0, 70, 0
2, 106800, Note_on_c, 0, 72, 100
2, 106848, Note_on_c, 0, 72, 0
2, 106848, Note_on_c, 0, 74, 100
2, 107040, Note_on_c, 0, 74, 0
2, 107040, Note_on_c, 0, 70, 100
2, 107136, Note_on_c, 0, 70, 0
2, 107136, Note_on_c, 0, 68, 100
2, 107184, Note_on_c, 0, 68, 0
2, 107184, Note_on_c, 0, 69, 100
2, 107232, Note_on_c, 0, 69, 0
2, 107232, Note_on_c, 0, 71, 100
2, 107424, Note_on_c, 0, 71, 0
2, 107424, Note_on_c, 0, 68, 100
2, 107520, Note_on_c, 0, 68, 0
2, 107520, Note_on_c, 0, 69, 100
2, 107616, Note_on_c, 0, 69, 0
2, 107616, Note_on_c, 0, 64, 100
2, 107712, Note_on_c, 0, 64, 0
2, 107712, Note_on_c, 0, 66, 100
2, 107808, Note_on_c, 0, 66, 0
2, 107808, Note_on_c, 0, 68, 100
2, 107904, Note_on_c, 0, 68, 0
2, 107904, Note_on_c, 0, 69, 100
2, 108000, Note_on_c, 0, 69, 0
2, 108000, Note_on_c, 0, 64, 100
2, 108096, Note_on_c, 0, 64, 0
2, 108096, Note_on_c, 0, 71, 100
2, 108192, Note_on_c, 0, 71, 0
2, 108192, Note_on_c, 0, 64, 100
2, 108288, Note_on_c, 0, 64, 0
2, 108288, Note_on_c, 0, 72, 100
2, 108384, Note_on_c, 0, 72, 0
2, 108384, Note_on_c, 0, 68, 100
2, 108480, Note_on_c, 0, 68, 0
2, 108480, Note_on_c, 0, 69, 100
2, 108576, Note_on_c, 0, 69, 0
2, 108576, Note_on_c, 0, 71, 100
2, 108672, Note_on_c, 0, 71, 0
2, 108672, Note_on_c, 0, 72, 100
2, 108768, Note_on_c, 0, 72, 0
2, 108768, Note_on_c, 0, 69, 100
2, 108864, Note_on_c, 0, 69, 0
2, 108864, Note_on_c, 0, 74, 100
2, 108960, Note_on_c, 0, 74, 0
2, 108960, Note_on_c, 0, 69, 100
2, 109056, Note_on_c, 0, 69, 0
2, 109056, Note_on_c, 0, 68, 100
2, 109152, Note_on_c, 0, 68, 0
2, 109152, Note_on_c, 0, 64, 100
2, 109248, Note_on_c, 0, 64, 0
2, 109248, Note_on_c, 0, 68, 100
2, 109344, Note_on_c, 0, 68, 0
2, 109344, Note_on_c, 0, 71, 100
2, 109440, Note_on_c, 0, 71, 0
2, 109440, Note_on_c, 0, 76, 100
2, 109920, Note_on_c, 0, 76, 0
2, 109920, Note_on_c, 0, 69, 100
2, 110016, Note_on_c, 0, 69, 0
2, 110016, Note_on_c, 0, 72, 100
2, 110112, Note_on_c, 0, 72, 0
2, 110112, Note_on_c, 0, 76, 100
2, 110208, Note_on_c, 0, 76, 0
2, 110208, Note_on_c, 0, 81, 100
2, 110688, Note_on_c, 0, 81, 0
2, 110688, Note_on_c, 0, 69, 100
2, 110784, Note_on_c, 0, 69, 0
2, 110784, Note_on_c, 0, 74, 100
2, 110880, Note_on_c, 0, 74, 0
2, 110880, Note_on_c, 0, 77, 100
2, 110976, Note_on_c, 0, 77, 0
2, 110976, Note_on_c, 0, 81, 100
2, 111552, Note_on_c, 0, 81, 0
2, 111552, Note_on_c, 0, 69, 100
2, 111744, Note_on_c, 0, 69, 0
2, 111744, Note_on_c, 0, 64, 100
2, 111936, Note_on_c, 0, 64, 0
2, 111936, Note_on_c, 0, 68, 100
2, 112128, Note_on_c, 0, 68, 0
2, 112128, Note_on_c, 0, 57, 100
2, 112320, Note_on_c, 0, 57, 0
2, 112320, Note_on_c, 0, 69, 100
2, 112512, Note_on_c, 0, 69, 0
2, 112512, Note_on_c, 0, 76, 100
2, 113088, Note_on_c, 0, 76, 0
2, 113088, Note_on_c, 0, 74, 100
2, 113184, Note_on_c, 0, 74, 0
2, 113184, Note_on_c, 0, 73, 100
2, 113280, Note_on_c, 0, 73, 0
2, 113280, Note_on_c, 0, 74, 100
2, 113472, Note_on_c, 0, 74, 0
2, 113472, Note_on_c, 0, 77, 100
2, 113856, Note_on_c, 0, 77, 0
2, 113856, Note_on_c, 0, 71, 100
2, 113952, Note_on_c, 0, 71, 0
2, 113952, Note_on_c, 0, 72, 100
2, 114048, Note_on_c, 0, 72, 0
2, 114048, Note_on_c, 0, 74, 100
2, 114144, Note_on_c, 0, 74, 0
2, 114144, Note_on_c, 0, 71, 100
2, 114240, Note_on_c, 0, 71, 0
2, 114240, Note_on_c, 0, 72, 100
2, 114336, Note_on_c, 0, 72, 0
2, 114336, Note_on_c, 0, 69, 100
2, 114432, Note_on_c, 0, 69, 0
2, 114432, Note_on_c, 0, 71, 100
2, 114528, Note_on_c, 0, 71, 0
2, 114528, Note_on_c, 0, 67, 100
2, 114624, Note_on_c, 0, 67, 0
2, 114624, Note_on_c, 0, 66, 100
2, 114720, Note_on_c, 0, 66, 0
2, 114720, Note_on_c, 0, 67, 100
2, 114816, Note_on_c, 0, 67, 0
2, 114816, Note_on_c, 0, 71, 100
2, 114912, Note_on_c, 0, 71, 0
2, 114912, Note_on_c, 0, 67, 100
2, 115008, Note_on_c, 0, 67, 0
2, 115008, Note_on_c, 0, 74, 100
2, 115104, Note_on_c, 0, 74, 0
2, 115104, Note_on_c, 0, 71, 100
2, 115200, Note_on_c, 0, 71, 0
2, 115200, Note_on_c, 0, 79, 100
2, 115392, Note_on_c, 0, 79, 0
2, 115392, Note_on_c, 0, 67, 100
2, 115584, Note_on_c, 0, 67, 0
2, 115584, Note_on_c, 0, 74, 100
2, 116160, Note_on_c, 0, 74, 0
2, 116160, Note_on_c, 0, 72, 100
2, 116256, Note_on_c, 0, 72, 0
2, 116256, Note_on_c, 0, 71, 100
2, 116352, Note_on_c, 0, 71, 0
2, 116352, Note_on_c, 0, 72, 100
2, 116544, Note_on_c, 0, 72, 0
2, 116544, Note_on_c, 0, 76, 100
2, 116928, Note_on_c, 0, 76, 0
2, 116928, Note_on_c, 0, 69, 100
2, 117024, Note_on_c, 0, 69, 0
2, 117024, Note_on_c, 0, 71, 100
2, 117120, Note_on_c, 0, 71, 0
2, 117120, Note_on_c, 0, 72, 100
2, 117216, Note_on_c, 0, 72, 0
2, 117216, Note_on_c, 0, 69, 100
2, 117312, Note_on_c, 0, 69, 0
2, 117312, Note_on_c, 0, 71, 100
2, 117408, Note_on_c, 0, 71, 0
2, 117408, Note_on_c, 0, 68, 100
2, 117504, Note_on_c, 0, 68, 0
2, 117504, Note_on_c, 0, 69, 100
2, 117600, Note_on_c, 0, 69, 0
2, 117600, Note_on_c, 0, 65, 100
2, 117696, Note_on_c, 0, 65, 0
2, 117696, Note_on_c, 0, 64, 100
2, 117792, Note_on_c, 0, 64, 0
2, 117792, Note_on_c, 0, 65, 100
2, 117888, Note_on_c, 0, 65, 0
2, 117888, Note_on_c, 0, 69, 100
2, 117984, Note_on_c, 0, 69, 0
2, 117984, Note_on_c, 0, 65, 100
2, 118080, Note_on_c, 0, 65, 0
2, 118080, Note_on_c, 0, 72, 100
2, 118176, Note_on_c, 0, 72, 0
2, 118176, Note_on_c, 0, 65, 100
2, 118272, Note_on_c, 0, 65, 0
2, 118272, Note_on_c, 0, 77, 100
2, 118464, Note_on_c, 0, 77, 0
2, 118464, Note_on_c, 0, 65, 100
2, 118656, Note_on_c, 0, 65, 0
2, 118656, Note_on_c, 0, 72, 100
2, 119232, Note_on_c, 0, 72, 0
2, 119232, Note_on_c, 0, 71, 100
2, 119328, Note_on_c, 0, 71, 0
2, 119328, Note_on_c, 0, 72, 100
2, 119424, Note_on_c, 0, 72, 0
2, 119424, Note_on_c, 0, 74, 100
2, 119616, Note_on_c, 0, 74, 0
2, 119616, Note_on_c, 0, 65, 100
2, 119808, Note_on_c, 0, 65, 0
2, 119808, Note_on_c, 0, 64, 100
2, 120000, Note_on_c, 0, 64, 0
2, 120000, Note_on_c, 0, 74, 100
2, 120192, Note_on_c, 0, 74, 0
2, 120192, Note_on_c, 0, 72, 100
2, 120384, Note_on_c, 0, 72, 0
2, 120384, Note_on_c, 0, 64, 100
2, 120576, Note_on_c, 0, 64, 0
2, 120576, Note_on_c, 0, 62, 100
2, 120672, Note_on_c, 0, 62, 0
2, 120672, Note_on_c, 0, 72, 100
2, 120768, Note_on_c, 0, 72, 0
2, 120768, Note_on_c, 0, 71, 100
2, 120864, Note_on_c, 0, 71, 0
2, 120864, Note_on_c, 0, 69, 100
2, 120960, Note_on_c, 0, 69, 0
2, 120960, Note_on_c, 0, 71, 100
2, 121056, Note_on_c, 0, 71, 0
2, 121056, Note_on_c, 0, 69, 100
2, 121152, Note_on_c, 0, 69, 0
2, 121152, Note_on_c, 0, 68, 100
2, 121248, Note_on_c, 0, 68, 0
2, 121248, Note_on_c, 0, 66, 100
2, 121344, Note_on_c, 0, 66, 0
2, 121344, Note_on_c, 0, 68, 100
2, 121536, Note_on_c, 0, 68, 0
2, 121536, Note_on_c, 0, 77, 100
2, 121728, Note_on_c, 0, 77, 0
2, 121728, Note_on_c, 0, 76, 100
2, 121920, Note_on_c, 0, 76, 0
2, 121920, Note_on_c, 0, 81, 100
2, 122112, Note_on_c, 0, 81, 0
2, 122112, Note_on_c, 0, 84, 100
2, 122496, Note_on_c, 0, 84, 0
2, 122496, Note_on_c, 0, 83, 100
2, 122544, Note_on_c, 0, 83, 0
2, 122544, Note_on_c, 0, 84, 100
2, 122592, Note_on_c, 0, 84, 0
2, 122592, Note_on_c, 0, 83, 100
2, 122640, Note_on_c, 0, 83, 0
2, 122640, Note_on_c, 0, 84, 100
2, 122688, Note_on_c, 0, 84, 0
2, 122688, Note_on_c, 0, 83, 100
2, 122736, Note_on_c, 0, 83, 0
2, 122736, Note_on_c, 0, 84, 100
2, 122784, Note_on_c, 0, 84, 0
2, 122784, Note_on_c, 0, 83, 100
2, 122832, Note_on_c, 0, 83, 0
2, 122832, Note_on_c, 0, 84, 100
2, 122880, Note_on_c, 0, 84, 0
2, 122880, Note_on_c, 0, 83, 100
2, 122976, Note_on_c, 0, 83, 0
2, 122976, Note_on_c, 0, 84, 100
2, 123072, Note_on_c, 0, 84, 0
2, 123072, Note_on_c, 0, 86, 100
2, 123168, Note_on_c, 0, 86, 0
2, 123168, Note_on_c, 0, 84, 100
2, 123264, Note_on_c, 0, 84, 0
2, 123264, Note_on_c, 0, 83, 100
2, 123360, Note_on_c, 0, 83, 0
2, 123360, Note_on_c, 0, 86, 100
2, 123456, Note_on_c, 0, 86, 0
2, 123456, Note_on_c, 0, 81, 100
2, 123552, Note_on_c, 0, 81, 0
2, 123552, Note_on_c, 0, 86, 100
2, 123648, Note_on_c, 0, 86, 0
2, 123648, Note_on_c, 0, 80, 100
2, 123744, Note_on_c, 0, 80, 0
2, 123744, Note_on_c, 0, 81, 100
2, 123840, Note_on_c, 0, 81, 0
2, 123840, Note_on_c, 0, 83, 100
2, 123936, Note_on_c, 0, 83, 0
2, 123936, Note_on_c, 0, 81, 100
2, 124032, Note_on_c, 0, 81, 0
2, 124032, Note_on_c, 0, 80, 100
2, 124128, Note_on_c, 0, 80, 0
2, 124128, Note_on_c, 0, 83, 100
2, 124224, Note_on_c, 0, 83, 0
2, 124224, Note_on_c, 0, 77, 100
2, 124320, Note_on_c, 0, 77, 0
2, 124320, Note_on_c, 0, 83, 100
2, 124416, Note_on_c, 0, 83, 0
2, 124416, Note_on_c, 0, 74, 100
2, 124512, Note_on_c, 0, 74, 0
2, 124512, Note_on_c, 0, 76, 100
2, 124608, Note_on_c, 0, 76, 0
2, 124608, Note_on_c, 0, 77, 100
2, 124704, Note_on_c, 0, 77, 0
2, 124704, Note_on_c, 0, 76, 100
2, 124800, Note_on_c, 0, 76, 0
2, 124800, Note_on_c, 0, 74, 100
2, 124896, Note_on_c, 0, 74, 0
2, 124896, Note_on_c, 0, 77, 100
2, 124992, Note_on_c, 0, 77, 0
2, 124992, Note_on_c, 0, 72, 100
2, 125088, Note_on_c, 0, 72, 0
2, 125088, Note_on_c, 0, 77, 100
2, 125184, Note_on_c, 0, 77, 0
2, 125184, Note_on_c, 0, 71, 100
2, 125280, Note_on_c, 0, 71, 0
2, 125280, Note_on_c, 0, 72, 100
2, 125376, Note_on_c, 0, 72, 0
2, 125376, Note_on_c, 0, 74, 100
2, 125472, Note_on_c, 0, 74, 0
2, 125472, Note_on_c, 0, 72, 100
2, 125568, Note_on_c, 0, 72, 0
2, 125568, Note_on_c, 0, 71, 100
2, 125664, Note_on_c, 0, 71, 0
2, 125664, Note_on_c, 0, 74, 100
2, 125760, Note_on_c, 0, 74, 0
2, 125760, Note_on_c, 0, 69, 100
2, 125856, Note_on_c, 0, 69, 0
2, 125856, Note_on_c, 0, 74, 100
2, 125952, Note_on_c, 0, 74, 0
2, 125952, Note_on_c, 0, 68, 100
2, 126048, Note_on_c, 0, 68, 0
2, 126048, Note_on_c, 0, 74, 100
2, 126144, Note_on_c, 0, 74, 0
2, 126144, Note_on_c, 0, 64, 100
2, 126240, Note_on_c, 0, 64, 0
2, 126240, Note_on_c, 0, 66, 100
2, 126336, Note_on_c, 0, 66, 0
2, 126336, Note_on_c, 0, 68, 100
2, 126432, Note_on_c, 0, 68, 0
2, 126432, Note_on_c, 0, 69, 100
2, 126528, Note_on_c, 0, 69, 0
2, 126528, Note_on_c, 0, 71, 100
2, 126624, Note_on_c, 0, 71, 0
2, 126624, Note_on_c, 0, 72, 100
2, 126720, Note_on_c, 0, 72, 0
2, 126720, Note_on_c, 0, 74, 100
2, 126816, Note_on_c, 0, 74, 0
2, 126816, Note_on_c, 0, 76, 100
2, 126912, Note_on_c, 0, 76, 0
2, 126912, Note_on_c, 0, 78, 100
2, 127008, Note_on_c, 0, 78, 0
2, 127008, Note_on_c, 0, 80, 100
2, 127104, Note_on_c, 0, 80, 0
2, 127104, Note_on_c, 0, 81, 100
2, 127200, Note_on_c, 0, 81, 0
2, 127200, Note_on_c, 0, 83, 100
2, 127296, Note_on_c, 0, 83, 0
2, 127296, Note_on_c, 0, 84, 100
2, 127392, Note_on_c, 0, 84, 0
2, 127392, Note_on_c, 0, 86, 100
2, 127488, Note_on_c, 0, 86, 0
2, 127488, Note_on_c, 0, 88, 100
2, 127680, Note_on_c, 0, 88, 0
2, 127680, Note_on_c, 0, 81, 100
2, 127872, Note_on_c, 0, 81, 0
2, 127872, Note_on_c, 0, 83, 100
2, 128064, Note_on_c, 0, 83, 0
2, 128064, Note_on_c, 0, 80, 100
2, 128256, Note_on_c, 0, 80, 0
2, 128256, Note_on_c, 0, 81, 100
2, 128352, Note_on_c, 0, 81, 0
2, 128352, Note_on_c, 0, 79, 100
2, 128448, Note_on_c, 0, 79, 0
2, 128448, Note_on_c, 0, 77, 100
2, 128544, Note_on_c, 0, 77, 0
2, 128544, Note_on_c, 0, 76, 100
2, 128640, Note_on_c, 0, 76, 0
2, 128640, Note_on_c, 0, 74, 100
2, 128832, Note_on_c, 0, 74, 0
2, 128832, Note_on_c, 0, 74, 100
2, 129024, Note_on_c, 0, 74, 0
2, 129024, Note_on_c, 0, 74, 100
2, 129120, Note_on_c, 0, 74, 0
2, 129120, Note_on_c, 0, 76, 100
2, 129216, Note_on_c, 0, 76, 0
2, 129216, Note_on_c, 0, 77, 100
2, 129504, Note_on_c, 0, 77, 0
2, 129504, Note_on_c, 0, 76, 100
2, 129600, Note_on_c, 0, 76, 0
2, 129600, Note_on_c, 0, 74, 100
2, 129696, Note_on_c, 0, 74, 0
2, 129696, Note_on_c, 0, 72, 100
2, 129792, Note_on_c, 0, 72, 0
2, 129792, Note_on_c, 0, 71, 100
2, 129888, Note_on_c, 0, 71, 0
2, 129888, Note_on_c, 0, 72, 100
2, 129984, Note_on_c, 0, 72, 0
2, 129984, Note_on_c, 0, 74, 100
2, 130272, Note_on_c, 0, 74, 0
2, 130272, Note_on_c, 0, 72, 100
2, 130368, Note_on_c, 0, 72, 0
2, 130368, Note_on_c, 0, 71, 100
2, 130464, Note_on_c, 0, 71, 0
2, 130464, Note_on_c, 0, 69, 100
2, 130560, Note_on_c, 0, 69, 0
2, 130560, Note_on_c, 0, 68, 100
2, 130752, Note_on_c, 0, 68, 0
2, 130752, Note_on_c, 0, 76, 100
2, 130944, Note_on_c, 0, 76, 0
2, 130944, Note_on_c, 0, 72, 100
2, 130992, Note_on_c, 0, 72, 0
2, 130992, Note_on_c, 0, 74, 100
2, 131040, Note_on_c, 0, 74, 0
2, 131040, Note_on_c, 0, 72, 100
2, 131088, Note_on_c, 0, 72, 0
2, 131088, Note_on_c, 0, 74, 100
2, 131136, Note_on_c, 0, 74, 0
2, 131136, Note_on_c, 0, 71, 100
2, 131232, Note_on_c, 0, 71, 0
2, 131232, Note_on_c, 0, 69, 100
2, 131328, Note_on_c, 0, 69, 0
2, 131328, Note_on_c, 0, 69, 100
2, 131904, Note_on_c, 0, 69, 0
2, 131904, End_track
3, 0, Start_track
3, 0, MIDI_port, 0
3, 0, Title_t, "Violin 1"
3, 0, Program_c, 1, 40
3, 0, Control_c, 1, 7, 110
3, 0, Control_c, 1, 10, 32
3, 576, Note_on_c, 1, 76, 100
3, 768, Note_on_c, 1, 76, 0
3, 768, Note_on_c, 1, 81, 100
3, 1152, Note_on_c, 1, 81, 0
3, 1344, Note_on_c, 1, 76, 100
3, 1536, Note_on_c, 1, 76, 0
3, 1536, Note_on_c, 1, 77, 100
3, 1920, Note_on_c, 1, 77, 0
3, 2112, Note_on_c, 1, 74, 100
3, 2304, Note_on_c, 1, 74, 0
3, 2304, Note_on_c, 1, 76, 100
3, 2400, Note_on_c, 1, 76, 0
3, 2400, Note_on_c, 1, 74, 100
3, 2496, Note_on_c, 1, 74, 0
3, 2496, Note_on_c, 1, 72, 100
3, 2592, Note_on_c, 1, 72, 0
3, 2592, Note_on_c, 1, 76, 100
3, 2688, Note_on_c, 1, 76, 0
3, 2688, Note_on_c, 1, 74, 100
3, 2784, Note_on_c, 1, 74, 0
3, 2784, Note_on_c, 1, 72, 100
3, 2880, Note_on_c, 1, 72, 0
3, 2880, Note_on_c, 1, 71, 100
3, 2976, Note_on_c, 1, 71, 0
3, 2976, Note_on_c, 1, 74, 100
3, 3072, Note_on_c, 1, 74, 0
3, 3072, Note_on_c, 1, 72, 100
3, 3264, Note_on_c, 1, 72, 0
3, 3264, Note_on_c, 1, 69, 100
3, 3456, Note_on_c, 1, 69, 0
3, 3552, Note_on_c, 1, 69, 100
3, 3648, Note_on_c, 1, 69, 0
3, 3648, Note_on_c, 1, 68, 100
3, 3744, Note_on_c, 1, 68, 0
3, 3744, Note_on_c, 1, 69, 100
3, 3840, Note_on_c, 1, 69, 0
3, 3840, Note_on_c, 1, 71, 100
3, 3936, Note_on_c, 1, 71, 0
3, 3936, Note_on_c, 1, 69, 100
3, 4032, Note_on_c, 1, 69, 0
3, 4032, Note_on_c, 1, 68, 100
3, 4128, Note_on_c, 1, 68, 0
3, 4128, Note_on_c, 1, 69, 100
3, 4224, Note_on_c, 1, 69, 0
3, 4224, Note_on_c, 1, 72, 100
3, 4320, Note_on_c, 1, 72, 0
3, 4320, Note_on_c, 1, 69, 100
3, 4416, Note_on_c, 1, 69, 0
3, 4416, Note_on_c, 1, 68, 100
3, 4512, Note_on_c, 1, 68, 0
3, 4512, Note_on_c, 1, 69, 100
3, 4608, Note_on_c, 1, 69, 0
3, 4608, Note_on_c, 1, 74, 100
3, 4704, Note_on_c, 1, 74, 0
3, 4704, Note_on_c, 1, 69, 100
3, 4800, Note_on_c, 1, 69, 0
3, 4800, Note_on_c, 1, 68, 100
3, 4896, Note_on_c, 1, 68, 0
3, 4896, Note_on_c, 1, 69, 100
3, 4992, Note_on_c, 1, 69, 0
3, 4992, Note_on_c, 1, 76, 100
3, 5088, Note_on_c, 1, 76, 0
3, 5088, Note_on_c, 1, 69, 100
3, 5184, Note_on_c, 1, 69, 0
3, 5184, Note_on_c, 1, 68, 100
3, 5280, Note_on_c, 1, 68, 0
3, 5280, Note_on_c, 1, 69, 100
3, 5376, Note_on_c, 1, 69, 0
3, 5376, Note_on_c, 1, 77, 100
3, 5472, Note_on_c, 1, 77, 0
3, 5472, Note_on_c, 1, 79, 100
3, 5568, Note_on_c, 1, 79, 0
3, 5568, Note_on_c, 1, 77, 100
3, 5664, Note_on_c, 1, 77, 0
3, 5664, Note_on_c, 1, 76, 100
3, 5760, Note_on_c, 1, 76, 0
3, 5760, Note_on_c, 1, 74, 100
3, 5856, Note_on_c, 1, 74, 0
3, 5856, Note_on_c, 1, 72, 100
3, 5952, Note_on_c, 1, 72, 0
3, 5952, Note_on_c, 1, 71, 100
3, 6048, Note_on_c, 1, 71, 0
3, 6048, Note_on_c, 1, 69, 100
3, 6144, Note_on_c, 1, 69, 0
3, 6144, Note_on_c, 1, 68, 100
3, 6336, Note_on_c, 1, 68, 0
3, 6336, Note_on_c, 1, 64, 100
3, 6528, Note_on_c, 1, 64, 0
3, 6528, Note_on_c, 1, 83, 100
3, 7104, Note_on_c, 1, 83, 0
3, 7104, Note_on_c, 1, 81, 100
3, 7200, Note_on_c, 1, 81, 0
3, 7200, Note_on_c, 1, 80, 100
3, 7296, Note_on_c, 1, 80, 0
3, 7296, Note_on_c, 1, 81, 100
3, 7488, Note_on_c, 1, 81, 0
3, 7488, Note_on_c, 1, 84, 100
3, 7872, Note_on_c, 1, 84, 0
3, 7872, Note_on_c, 1, 78, 100
3, 8064, Note_on_c, 1, 78, 0
3, 8064, Note_on_c, 1, 81, 100
3, 8640, Note_on_c, 1, 81, 0
3, 8640, Note_on_c, 1, 79, 100
3, 8736, Note_on_c, 1, 79, 0
3, 8736, Note_on_c, 1, 78, 100
3, 8832, Note_on_c, 1, 78, 0
3, 8832, Note_on_c, 1, 79, 100
3, 9024, Note_on_c, 1, 79, 0
3, 9024, Note_on_c, 1, 83, 100
3, 9312, Note_on_c, 1, 83, 0
3, 9312, Note_on_c, 1, 81, 100
3, 9408, Note_on_c, 1, 81, 0
3, 9408, Note_on_c, 1, 79, 100
3, 9504, Note_on_c, 1, 79, 0
3, 9504, Note_on_c, 1, 78, 100
3, 9600, Note_on_c, 1, 78, 0
3, 9600, Note_on_c, 1, 76, 100
3, 10176, Note_on_c, 1, 76, 0
3, 10176, Note_on_c, 1, 78, 100
3, 10272, Note_on_c, 1, 78, 0
3, 10272, Note_on_c, 1, 79, 100
3, 10368, Note_on_c, 1, 79, 0
3, 10368, Note_on_c, 1, 81, 100
3, 10560, Note_on_c, 1, 81, 0
3, 10560, Note_on_c, 1, 72, 100
3, 10752, Note_on_c, 1, 72, 0
3, 10752, Note_on_c, 1, 71, 100
3, 10944, Note_on_c, 1, 71, 0
3, 10944, Note_on_c, 1, 81, 100
3, 11136, Note_on_c, 1, 81, 0
3, 11136, Note_on_c, 1, 79, 100
3, 11328, Note_on_c, 1, 79, 0
3, 11328, Note_on_c, 1, 71, 100
3, 11520, Note_on_c, 1, 71, 0
3, 11520, Note_on_c, 1, 69, 100
3, 11616, Note_on_c, 1, 69, 0
3, 11616, Note_on_c, 1, 71, 100
3, 11712, Note_on_c, 1, 71, 0
3, 11712, Note_on_c, 1, 72, 100
3, 11808, Note_on_c, 1, 72, 0
3, 11808, Note_on_c, 1, 71, 100
3, 11904, Note_on_c, 1, 71, 0
3, 11904, Note_on_c, 1, 69, 100
3, 12000, Note_on_c, 1, 69, 0
3, 12000, Note_on_c, 1, 67, 100
3, 12096, Note_on_c, 1, 67, 0
3, 12096, Note_on_c, 1, 66, 100
3, 12192, Note_on_c, 1, 66, 0
3, 12192, Note_on_c, 1, 64, 100
3, 12288, Note_on_c, 1, 64, 0
3, 12288, Note_on_c, 1, 63, 100
3, 12480, Note_on_c, 1, 63, 0
3, 12480, Note_on_c, 1, 72, 100
3, 12672, Note_on_c, 1, 72, 0
3, 12672, Note_on_c, 1, 71, 100
3, 12864, Note_on_c, 1, 71, 0
3, 12864, Note_on_c, 1, 76, 100
3, 13056, Note_on_c, 1, 76, 0
3, 13056, Note_on_c, 1, 79, 100
3, 13440, Note_on_c, 1, 79, 0
3, 13440, Note_on_c, 1, 78, 100
3, 13488, Note_on_c, 1, 78, 0
3, 13488, Note_on_c, 1, 79, 100
3, 13536, Note_on_c, 1, 79, 0
3, 13536, Note_on_c, 1, 78, 100
3, 13584, Note_on_c, 1, 78, 0
3, 13584, Note_on_c, 1, 79, 100
3, 13632, Note_on_c, 1, 79, 0
3, 13632, Note_on_c, 1, 78, 100
3, 13680, Note_on_c, 1, 78, 0
3, 13680, Note_on_c, 1, 79, 100
3, 13728, Note_on_c, 1, 79, 0
3, 13728, Note_on_c, 1, 78, 100
3, 13776, Note_on_c, 1, 78, 0
3, 13776, Note_on_c, 1, 79, 100
3, 13824, Note_on_c, 1, 79, 0
3, 13824, Note_on_c, 1, 78, 100
3, 13920, Note_on_c, 1, 78, 0
3, 13920, Note_on_c, 1, 79, 100
3, 14016, Note_on_c, 1, 79, 0
3, 14016, Note_on_c, 1, 81, 100
3, 14112, Note_on_c, 1, 81, 0
3, 14112, Note_on_c, 1, 78, 100
3, 14208, Note_on_c, 1, 78, 0
3, 14208, Note_on_c, 1, 75, 100
3, 14304, Note_on_c, 1, 75, 0
3, 14304, Note_on_c, 1, 76, 100
3, 14400, Note_on_c, 1, 76, 0
3, 14400, Note_on_c, 1, 78, 100
3, 14496, Note_on_c, 1, 78, 0
3, 14496, Note_on_c, 1, 75, 100
3, 14592, Note_on_c, 1, 75, 0
3, 14592, Note_on_c, 1, 83, 100
3, 14784, Note_on_c, 1, 83, 0
3, 14784, Note_on_c, 1, 76, 100
3, 14976, Note_on_c, 1, 76, 0
3, 14976, Note_on_c, 1, 78, 100
3, 15168, Note_on_c, 1, 78, 0
3, 15168, Note_on_c, 1, 75, 100
3, 15360, Note_on_c, 1, 75, 0
3, 15360, Note_on_c, 1, 76, 100
3, 15456, Note_on_c, 1, 76, 0
3, 15456, Note_on_c, 1, 74, 100
3, 15552, Note_on_c, 1, 74, 0
3, 15552, Note_on_c, 1, 72, 100
3, 15648, Note_on_c, 1, 72, 0
3, 15648, Note_on_c, 1, 71, 100
3, 15744, Note_on_c, 1, 71, 0
3, 15744, Note_on_c, 1, 69, 100
3, 15936, Note_on_c, 1, 69, 0
3, 15936, Note_on_c, 1, 69, 100
3, 16128, Note_on_c, 1, 69, 0
3, 16128, Note_on_c, 1, 69, 100
3, 16224, Note_on_c, 1, 69, 0
3, 16224, Note_on_c, 1, 71, 100
3, 16320, Note_on_c, 1, 71, 0
3, 16320, Note_on_c, 1, 72, 100
3, 16608, Note_on_c, 1, 72, 0
3, 16608, Note_on_c, 1, 71, 100
3, 16704, Note_on_c, 1, 71, 0
3, 16704, Note_on_c, 1, 69, 100
3, 16800, Note_on_c, 1, 69, 0
3, 16800, Note_on_c, 1, 67, 100
3, 16896, Note_on_c, 1, 67, 0
3, 16896, Note_on_c, 1, 66, 100
3, 16992, Note_on_c, 1, 66, 0
3, 16992, Note_on_c, 1, 67, 100
3, 17088, Note_on_c, 1, 67, 0
3, 17088, Note_on_c, 1, 69, 100
3, 17376, Note_on_c, 1, 69, 0
3, 17376, Note_on_c, 1, 67, 100
3, 17472, Note_on_c, 1, 67, 0
3, 17472, Note_on_c, 1, 66, 100
3, 17568, Note_on_c, 1, 66, 0
3, 17568, Note_on_c, 1, 64, 100
3, 17664, Note_on_c, 1, 64, 0
3, 17664, Note_on_c, 1, 63, 100
3, 17856, Note_on_c, 1, 63, 0
3, 17856, Note_on_c, 1, 71, 100
3, 18048, Note_on_c, 1, 71, 0
3, 18048, Note_on_c, 1, 67, 100
3, 18096, Note_on_c, 1, 67, 0
3, 18096, Note_on_c, 1, 69, 100
3, 18144, Note_on_c, 1, 69, 0
3, 18144, Note_on_c, 1, 67, 100
3, 18192, Note_on_c, 1, 67, 0
3, 18192, Note_on_c, 1, 69, 100
3, 18240, Note_on_c, 1, 69, 0
3, 18240, Note_on_c, 1, 66, 100
3, 18336, Note_on_c, 1, 66, 0
3, 18336, Note_on_c, 1, 64, 100
3, 18432, Note_on_c, 1, 64, 0
3, 18432, Note_on_c, 1, 64, 100
3, 18816, Note_on_c, 1, 64, 0
3, 19392, Note_on_c, 1, 76, 100
3, 19584, Note_on_c, 1, 76, 0
3, 19584, Note_on_c, 1, 81, 100
3, 19776, Note_on_c, 1, 81, 0
3, 20160, Note_on_c, 1, 80, 100
3, 20256, Note_on_c, 1, 80, 0
3, 20256, Note_on_c, 1, 81, 100
3, 20352, Note_on_c, 1, 81, 0
3, 20352, Note_on_c, 1, 83, 100
3, 20544, Note_on_c, 1, 83, 0
3, 20928, Note_on_c, 1, 76, 100
3, 21120, Note_on_c, 1, 76, 0
3, 21120, Note_on_c, 1, 83, 100
3, 21312, Note_on_c, 1, 83, 0
3, 21696, Note_on_c, 1, 81, 100
3, 21792, Note_on_c, 1, 81, 0
3, 21792, Note_on_c, 1, 83, 100
3, 21888, Note_on_c, 1, 83, 0
3, 21888, Note_on_c, 1, 84, 100
3, 22080, Note_on_c, 1, 84, 0
3, 25152, Note_on_c, 1, 76, 100
3, 25344, Note_on_c, 1, 76, 0
3, 25344, Note_on_c, 1, 81, 100
3, 25728, Note_on_c, 1, 81, 0
3, 25920, Note_on_c, 1, 76, 100
3, 26112, Note_on_c, 1, 76, 0
3, 26112, Note_on_c, 1, 77, 100
3, 26496, Note_on_c, 1, 77, 0
3, 26688, Note_on_c, 1, 74, 100
3, 26880, Note_on_c, 1, 74, 0
3, 26880, Note_on_c, 1, 79, 100
3, 27264, Note_on_c, 1, 79, 0
3, 27456, Note_on_c, 1, 74, 100
3, 27648, Note_on_c, 1, 74, 0
3, 27648, Note_on_c, 1, 76, 100
3, 28032, Note_on_c, 1, 76, 0
3, 28224, Note_on_c, 1, 72, 100
3, 28416, Note_on_c, 1, 72, 0
3, 28416, Note_on_c, 1, 77, 100
3, 28800, Note_on_c, 1, 77, 0
3, 28992, Note_on_c, 1, 72, 100
3, 29184, Note_on_c, 1, 72, 0
3, 29184, Note_on_c, 1, 74, 100
3, 29568, Note_on_c, 1, 74, 0
3, 29760, Note_on_c, 1, 71, 100
3, 29952, Note_on_c, 1, 71, 0
3, 29952, Note_on_c, 1, 76, 100
3, 30336, Note_on_c, 1, 76, 0
3, 30528, Note_on_c, 1, 76, 100
3, 30720, Note_on_c, 1, 76, 0
3, 30720, Note_on_c, 1, 81, 100
3, 31104, Note_on_c, 1, 81, 0
3, 31296, Note_on_c, 1, 76, 100
3, 31488, Note_on_c, 1, 76, 0
3, 31488, Note_on_c, 1, 77, 100
3, 31872, Note_on_c, 1, 77, 0
3, 32064, Note_on_c, 1, 74, 100
3, 32256, Note_on_c, 1, 74, 0
3, 32256, Note_on_c, 1, 76, 100
3, 32352, Note_on_c, 1, 76, 0
3, 32352, Note_on_c, 1, 74, 100
3, 32448, Note_on_c, 1, 74, 0
3, 32448, Note_on_c, 1, 72, 100
3, 32544, Note_on_c, 1, 72, 0
3, 32544, Note_on_c, 1, 76, 100
3, 32640, Note_on_c, 1, 76, 0
3, 32640, Note_on_c, 1, 74, 100
3, 32736, Note_on_c, 1, 74, 0
3, 32736, Note_on_c, 1, 72, 100
3, 32832, Note_on_c, 1, 72, 0
3, 32832, Note_on_c, 1, 71, 100
3, 32928, Note_on_c, 1, 71, 0
3, 32928, Note_on_c, 1, 74, 100
3, 33024, Note_on_c, 1, 74, 0
3, 33024, Note_on_c, 1, 72, 100
3, 33216, Note_on_c, 1, 72, 0
3, 33216, Note_on_c, 1, 69, 100
3, 33408, Note_on_c, 1, 69, 0
3, 33600, Note_on_c, 1, 72, 100
3, 33792, Note_on_c, 1, 72, 0
3, 33792, Note_on_c, 1, 72, 100
3, 33984, Note_on_c, 1, 72, 0
3, 33984, Note_on_c, 1, 72, 100
3, 34176, Note_on_c, 1, 72, 0
3, 34176, Note_on_c, 1, 71, 100
3, 34368, Note_on_c, 1, 71, 0
3, 34368, Note_on_c, 1, 71, 100
3, 34560, Note_on_c, 1, 71, 0
3, 34560, Note_on_c, 1, 71, 100
3, 34752, Note_on_c, 1, 71, 0
3, 34752, Note_on_c, 1, 71, 100
3, 34944, Note_on_c, 1, 71, 0
3, 34944, Note_on_c, 1, 71, 100
3, 35136, Note_on_c, 1, 71, 0
3, 35136, Note_on_c, 1, 71, 100
3, 35328, Note_on_c, 1, 71, 0
3, 35328, Note_on_c, 1, 70, 100
3, 35520, Note_on_c, 1, 70, 0
3, 35520, Note_on_c, 1, 70, 100
3, 35712, Note_on_c, 1, 70, 0
3, 35712, Note_on_c, 1, 69, 100
3, 35904, Note_on_c, 1, 69, 0
3, 35904, Note_on_c, 1, 69, 100
3, 36096, Note_on_c, 1, 69, 0
3, 36096, Note_on_c, 1, 69, 100
3, 36288, Note_on_c, 1, 69, 0
3, 36288, Note_on_c, 1, 69, 100
3, 36480, Note_on_c, 1, 69, 0
3, 36480, Note_on_c, 1, 69, 100
3, 36672, Note_on_c, 1, 69, 0
3, 36672, Note_on_c, 1, 69, 100
3, 36864, Note_on_c, 1, 69, 0
3, 36864, Note_on_c, 1, 68, 100
3, 37056, Note_on_c, 1, 68, 0
3, 37056, Note_on_c, 1, 68, 100
3, 37248, Note_on_c, 1, 68, 0
3, 37248, Note_on_c, 1, 67, 100
3, 37440, Note_on_c, 1, 67, 0
3, 37440, Note_on_c, 1, 67, 100
3, 37632, Note_on_c, 1, 67, 0
3, 37632, Note_on_c, 1, 67, 100
3, 37824, Note_on_c, 1, 67, 0
3, 39744, Note_on_c, 1, 79, 100
3, 39936, Note_on_c, 1, 79, 0
3, 39936, Note_on_c, 1, 84, 100
3, 40320, Note_on_c, 1, 84, 0
3, 40512, Note_on_c, 1, 79, 100
3, 40704, Note_on_c, 1, 79, 0
3, 40704, Note_on_c, 1, 81, 100
3, 41088, Note_on_c, 1, 81, 0
3, 41280, Note_on_c, 1, 77, 100
3, 41472, Note_on_c, 1, 77, 0
3, 41472, Note_on_c, 1, 79, 100
3, 41568, Note_on_c, 1, 79, 0
3, 41568, Note_on_c, 1, 77, 100
3, 41664, Note_on_c, 1, 77, 0
3, 41664, Note_on_c, 1, 76, 100
3, 41760, Note_on_c, 1, 76, 0
3, 41760, Note_on_c, 1, 79, 100
3, 41856, Note_on_c, 1, 79, 0
3, 41856, Note_on_c, 1, 77, 100
3, 41952, Note_on_c, 1, 77, 0
3, 41952, Note_on_c, 1, 76, 100
3, 42048, Note_on_c, 1, 76, 0
3, 42048, Note_on_c, 1, 74, 100
3, 42144, Note_on_c, 1, 74, 0
3, 42144, Note_on_c, 1, 77, 100
3, 42240, Note_on_c, 1, 77, 0
3, 42240, Note_on_c, 1, 76, 100
3, 42432, Note_on_c, 1, 76, 0
3, 42432, Note_on_c, 1, 72, 100
3, 42624, Note_on_c, 1, 72, 0
3, 42720, Note_on_c, 1, 72, 100
3, 42816, Note_on_c, 1, 72, 0
3, 42816, Note_on_c, 1, 71, 100
3, 42912, Note_on_c, 1, 71, 0
3, 42912, Note_on_c, 1, 72, 100
3, 43008, Note_on_c, 1, 72, 0
3, 43008, Note_on_c, 1, 74, 100
3, 43104, Note_on_c, 1, 74, 0
3, 43104, Note_on_c, 1, 72, 100
3, 43200, Note_on_c, 1, 72, 0
3, 43200, Note_on_c, 1, 71, 100
3, 43296, Note_on_c, 1, 71, 0
3, 43296, Note_on_c, 1, 72, 100
3, 43392, Note_on_c, 1, 72, 0
3, 43392, Note_on_c, 1, 76, 100
3, 43488, Note_on_c, 1, 76, 0
3, 43488, Note_on_c, 1, 72, 100
3, 43584, Note_on_c, 1, 72, 0
3, 43584, Note_on_c, 1, 71, 100
3, 43680, Note_on_c, 1, 71, 0
3, 43680, Note_on_c, 1, 72, 100
3, 43776, Note_on_c, 1, 72, 0
3, 43776, Note_on_c, 1, 77, 100
3, 43872, Note_on_c, 1, 77, 0
3, 43872, Note_on_c, 1, 72, 100
3, 43968, Note_on_c, 1, 72, 0
3, 43968, Note_on_c, 1, 71, 100
3, 44064, Note_on_c, 1, 71, 0
3, 44064, Note_on_c, 1, 72, 100
3, 44160, Note_on_c, 1, 72, 0
3, 44160, Note_on_c, 1, 79, 100
3, 44256, Note_on_c, 1, 79, 0
3, 44256, Note_on_c, 1, 72, 100
3, 44352, Note_on_c, 1, 72, 0
3, 44352, Note_on_c, 1, 71, 100
3, 44448, Note_on_c, 1, 71, 0
3, 44448, Note_on_c, 1, 72, 100
3, 44544, Note_on_c, 1, 72, 0
3, 44544, Note_on_c, 1, 81, 100
3, 44640, Note_on_c, 1, 81, 0
3, 44640, Note_on_c, 1, 82, 100
3, 44736, Note_on_c, 1, 82, 0
3, 44736, Note_on_c, 1, 81, 100
3, 44832, Note_on_c, 1, 81, 0
3, 44832, Note_on_c, 1, 79, 100
3, 44928, Note_on_c, 1, 79, 0
3, 44928, Note_on_c, 1, 77, 100
3, 45024, Note_on_c, 1, 77, 0
3, 45024, Note_on_c, 1, 76, 100
3, 45120, Note_on_c, 1, 76, 0
3, 45120, Note_on_c, 1, 74, 100
3, 45216, Note_on_c, 1, 74, 0
3, 45216, Note_on_c, 1, 72, 100
3, 45312, Note_on_c, 1, 72, 0
3, 45312, Note_on_c, 1, 71, 100
3, 45504, Note_on_c, 1, 71, 0
3, 45504, Note_on_c, 1, 67, 100
3, 45696, Note_on_c, 1, 67, 0
3, 45696, Note_on_c, 1, 83, 100
3, 46272, Note_on_c, 1, 83, 0
3, 46272, Note_on_c, 1, 81, 100
3, 46368, Note_on_c, 1, 81, 0
3, 46368, Note_on_c, 1, 80, 100
3, 46464, Note_on_c, 1, 80, 0
3, 46464, Note_on_c, 1, 81, 100
3, 46656, Note_on_c, 1, 81, 0
3, 46656, Note_on_c, 1, 84, 100
3, 47040, Note_on_c, 1, 84, 0
3, 47040, Note_on_c, 1, 78, 100
3, 47232, Note_on_c, 1, 78, 0
3, 48576, Note_on_c, 1, 74, 100
3, 48768, Note_on_c, 1, 74, 0
3, 48768, Note_on_c, 1, 81, 100
3, 49344, Note_on_c, 1, 81, 0
3, 49344, Note_on_c, 1, 79, 100
3, 49440, Note_on_c, 1, 79, 0
3, 49440, Note_on_c, 1, 78, 100
3, 49536, Note_on_c, 1, 78, 0
3, 49536, Note_on_c, 1, 79, 100
3, 49728, Note_on_c, 1, 79, 0
3, 49728, Note_on_c, 1, 83, 100
3, 50112, Note_on_c, 1, 83, 0
3, 50112, Note_on_c, 1, 76, 100
3, 50304, Note_on_c, 1, 76, 0
3, 51648, Note_on_c, 1, 76, 100
3, 51744, Note_on_c, 1, 76, 0
3, 51744, Note_on_c, 1, 75, 100
3, 51840, Note_on_c, 1, 75, 0
3, 51840, Note_on_c, 1, 76, 100
3, 52416, Note_on_c, 1, 76, 0
3, 52416, Note_on_c, 1, 78, 100
3, 52512, Note_on_c, 1, 78, 0
3, 52512, Note_on_c, 1, 79, 100
3, 52608, Note_on_c, 1, 79, 0
3, 52608, Note_on_c, 1, 81, 100
3, 52800, Note_on_c, 1, 81, 0
3, 52800, Note_on_c, 1, 72, 100
3, 52992, Note_on_c, 1, 72, 0
3, 52992, Note_on_c, 1, 71, 100
3, 53184, Note_on_c, 1, 71, 0
3, 53184, Note_on_c, 1, 81, 100
3, 53376, Note_on_c, 1, 81, 0
3, 53376, Note_on_c, 1, 79, 100
3, 53568, Note_on_c, 1, 79, 0
3, 53568, Note_on_c, 1, 71, 100
3, 53760, Note_on_c, 1, 71, 0
3, 53760, Note_on_c, 1, 69, 100
3, 53856, Note_on_c, 1, 69, 0
3, 53856, Note_on_c, 1, 71, 100
3, 53952, Note_on_c, 1, 71, 0
3, 53952, Note_on_c, 1, 72, 100
3, 54048, Note_on_c, 1, 72, 0
3, 54048, Note_on_c, 1, 71, 100
3, 54144, Note_on_c, 1, 71, 0
3, 54144, Note_on_c, 1, 69, 100
3, 54240, Note_on_c, 1, 69, 0
3, 54240, Note_on_c, 1, 67, 100
3, 54336, Note_on_c, 1, 67, 0
3, 54336, Note_on_c, 1, 66, 100
3, 54432, Note_on_c, 1, 66, 0
3, 54432, Note_on_c, 1, 64, 100
3, 54528, Note_on_c, 1, 64, 0
3, 54528, Note_on_c, 1, 63, 100
3, 54720, Note_on_c, 1, 63, 0
3, 54720, Note_on_c, 1, 72, 100
3, 54912, Note_on_c, 1, 72, 0
3, 54912, Note_on_c, 1, 71, 100
3, 55104, Note_on_c, 1, 71, 0
3, 55104, Note_on_c, 1, 76, 100
3, 55296, Note_on_c, 1, 76, 0
3, 55296, Note_on_c, 1, 79, 100
3, 55680, Note_on_c, 1, 79, 0
3, 55680, Note_on_c, 1, 78, 100
3, 55728, Note_on_c, 1, 78, 0
3, 55728, Note_on_c, 1, 79, 100
3, 55776, Note_on_c, 1, 79, 0
3, 55776, Note_on_c, 1, 78, 100
3, 55824, Note_on_c, 1, 78, 0
3, 55824, Note_on_c, 1, 79, 100
3, 55872, Note_on_c, 1, 79, 0
3, 55872, Note_on_c, 1, 78, 100
3, 55920, Note_on_c, 1, 78, 0
3, 55920, Note_on_c, 1, 79, 100
3, 55968, Note_on_c, 1, 79, 0
3, 55968, Note_on_c, 1, 78, 100
3, 56016, Note_on_c, 1, 78, 0
3, 56016, Note_on_c, 1, 79, 100
3, 56064, Note_on_c, 1, 79, 0
3, 56064, Note_on_c, 1, 78, 100
3, 56448, Note_on_c, 1, 78, 0
3, 56832, Note_on_c, 1, 81, 100
3, 57216, Note_on_c, 1, 81, 0
3, 57600, Note_on_c, 1, 84, 100
3, 57984, Note_on_c, 1, 84, 0
3, 58368, Note_on_c, 1, 69, 100
3, 58752, Note_on_c, 1, 69, 0
3, 59136, Note_on_c, 1, 69, 100
3, 59904, Note_on_c, 1, 69, 0
3, 60000, Note_on_c, 1, 71, 100
3, 60096, Note_on_c, 1, 71, 0
3, 60096, Note_on_c, 1, 73, 100
3, 60192, Note_on_c, 1, 73, 0
3, 60192, Note_on_c, 1, 75, 100
3, 60288, Note_on_c, 1, 75, 0
3, 60288, Note_on_c, 1, 76, 100
3, 60384, Note_on_c, 1, 76, 0
3, 60384, Note_on_c, 1, 78, 100
3, 60480, Note_on_c, 1, 78, 0
3, 60480, Note_on_c, 1, 79, 100
3, 60576, Note_on_c, 1, 79, 0
3, 60576, Note_on_c, 1, 81, 100
3, 60672, Note_on_c, 1, 81, 0
3, 60672, Note_on_c, 1, 83, 100
3, 60864, Note_on_c, 1, 83, 0
3, 60864, Note_on_c, 1, 76, 100
3, 61056, Note_on_c, 1, 76, 0
3, 61056, Note_on_c, 1, 78, 100
3, 61248, Note_on_c, 1, 78, 0
3, 61248, Note_on_c, 1, 75, 100
3, 61440, Note_on_c, 1, 75, 0
3, 61440, Note_on_c, 1, 76, 100
3, 61536, Note_on_c, 1, 76, 0
3, 61536, Note_on_c, 1, 74, 100
3, 61632, Note_on_c, 1, 74, 0
3, 61632, Note_on_c, 1, 72, 100
3, 61728, Note_on_c, 1, 72, 0
3, 61728, Note_on_c, 1, 71, 100
3, 61824, Note_on_c, 1, 71, 0
3, 61824, Note_on_c, 1, 69, 100
3, 62016, Note_on_c, 1, 69, 0
3, 62016, Note_on_c, 1, 69, 100
3, 62208, Note_on_c, 1, 69, 0
3, 62208, Note_on_c, 1, 69, 100
3, 62304, Note_on_c, 1, 69, 0
3, 62304, Note_on_c, 1, 71, 100
3, 62400, Note_on_c, 1, 71, 0
3, 62400, Note_on_c, 1, 72, 100
3, 62688, Note_on_c, 1, 72, 0
3, 62688, Note_on_c, 1, 71, 100
3, 62784, Note_on_c, 1, 71, 0
3, 62784, Note_on_c, 1, 69, 100
3, 62880, Note_on_c, 1, 69, 0
3, 62880, Note_on_c, 1, 67, 100
3, 62976, Note_on_c, 1, 67, 0
3, 62976, Note_on_c, 1, 66, 100
3, 63072, Note_on_c, 1, 66, 0
3, 63072, Note_on_c, 1, 67, 100
3, 63168, Note_on_c, 1, 67, 0
3, 63168, Note_on_c, 1, 69, 100
3, 63456, Note_on_c, 1, 69, 0
3, 63456, Note_on_c, 1, 67, 100
3, 63552, Note_on_c, 1, 67, 0
3, 63552, Note_on_c, 1, 66, 100
3, 63648, Note_on_c, 1, 66, 0
3, 63648, Note_on_c, 1, 64, 100
3, 63744, Note_on_c, 1, 64, 0
3, 63744, Note_on_c, 1, 63, 100
3, 63936, Note_on_c, 1, 63, 0
3, 63936, Note_on_c, 1, 71, 100
3, 64128, Note_on_c, 1, 71, 0
3, 64128, Note_on_c, 1, 67, 100
3, 64320, Note_on_c, 1, 67, 0
3, 64320, Note_on_c, 1, 66, 100
3, 64416, Note_on_c, 1, 66, 0
3, 64416, Note_on_c, 1, 64, 100
3, 64512, Note_on_c, 1, 64, 0
3, 64512, Note_on_c, 1, 64, 100
3, 64896, Note_on_c, 1, 64, 0
3, 65472, Note_on_c, 1, 71, 100
3, 65664, Note_on_c, 1, 71, 0
3, 65664, Note_on_c, 1, 76, 100
3, 65856, Note_on_c, 1, 76, 0
3, 66240, Note_on_c, 1, 75, 100
3, 66336, Note_on_c, 1, 75, 0
3, 66336, Note_on_c, 1, 76, 100
3, 66432, Note_on_c, 1, 76, 0
3, 66432, Note_on_c, 1, 78, 100
3, 66624, Note_on_c, 1, 78, 0
3, 67008, Note_on_c, 1, 71, 100
3, 67200, Note_on_c, 1, 71, 0
3, 67200, Note_on_c, 1, 78, 100
3, 67392, Note_on_c, 1, 78, 0
3, 67776, Note_on_c, 1, 76, 100
3, 67872, Note_on_c, 1, 76, 0
3, 67872, Note_on_c, 1, 78, 100
3, 67968, Note_on_c, 1, 78, 0
3, 67968, Note_on_c, 1, 79, 100
3, 68160, Note_on_c, 1, 79, 0
3, 68160, Note_on_c, 1, 76, 100
3, 68352, Note_on_c, 1, 76, 0
3, 68352, Note_on_c, 1, 78, 100
3, 68736, Note_on_c, 1, 78, 0
3, 68736, Note_on_c, 1, 80, 100
3, 69120, Note_on_c, 1, 80, 0
3, 69120, Note_on_c, 1, 81, 100
3, 69504, Note_on_c, 1, 81, 0
3, 69504, Note_on_c, 1, 83, 100
3, 69888, Note_on_c, 1, 83, 0
3, 69888, Note_on_c, 1, 84, 100
3, 70080, Note_on_c, 1, 84, 0
3, 70080, Note_on_c, 1, 76, 100
3, 70272, Note_on_c, 1, 76, 0
3, 70272, Note_on_c, 1, 73, 100
3, 70656, Note_on_c, 1, 73, 0
3, 70656, Note_on_c, 1, 74, 100
3, 71040, Note_on_c, 1, 74, 0
3, 71040, Note_on_c, 1, 76, 100
3, 71424, Note_on_c, 1, 76, 0
3, 71424, Note_on_c, 1, 77, 100
3, 71616, Note_on_c, 1, 77, 0
3, 71616, Note_on_c, 1, 69, 100
3, 71808, Note_on_c, 1, 69, 0
3, 71808, Note_on_c, 1, 66, 100
3, 72192, Note_on_c, 1, 66, 0
3, 72192, Note_on_c, 1, 67, 100
3, 72576, Note_on_c, 1, 67, 0
3, 72576, Note_on_c, 1, 69, 100
3, 72960, Note_on_c, 1, 69, 0
3, 72960, Note_on_c, 1, 71, 100
3, 73344, Note_on_c, 1, 71, 0
3, 73344, Note_on_c, 1, 71, 100
3, 73728, Note_on_c, 1, 71, 0
3, 73728, Note_on_c, 1, 72, 100
3, 74112, Note_on_c, 1, 72, 0
3, 74112, Note_on_c, 1, 74, 100
3, 74496, Note_on_c, 1, 74, 0
3, 74496, Note_on_c, 1, 76, 100
3, 74880, Note_on_c, 1, 76, 0
3, 74880, Note_on_c, 1, 76, 100
3, 75264, Note_on_c, 1, 76, 0
3, 75264, Note_on_c, 1, 77, 100
3, 75648, Note_on_c, 1, 77, 0
3, 75648, Note_on_c, 1, 79, 100
3, 76032, Note_on_c, 1, 79, 0
3, 76032, Note_on_c, 1, 81, 100
3, 76416, Note_on_c, 1, 81, 0
3, 78144, Note_on_c, 1, 69, 100
3, 78336, Note_on_c, 1, 69, 0
3, 78336, Note_on_c, 1, 74, 100
3, 78720, Note_on_c, 1, 74, 0
3, 78912, Note_on_c, 1, 69, 100
3, 79104, Note_on_c, 1, 69, 0
3, 79104, Note_on_c, 1, 70, 100
3, 79488, Note_on_c, 1, 70, 0
3, 79680, Note_on_c, 1, 67, 100
3, 79872, Note_on_c, 1, 67, 0
3, 79872, Note_on_c, 1, 69, 100
3, 79968, Note_on_c, 1, 69, 0
3, 79968, Note_on_c, 1, 67, 100
3, 80064, Note_on_c, 1, 67, 0
3, 80064, Note_on_c, 1, 65, 100
3, 80160, Note_on_c, 1, 65, 0
3, 80160, Note_on_c, 1, 69, 100
3, 80256, Note_on_c, 1, 69, 0
3, 80256, Note_on_c, 1, 67, 100
3, 80352, Note_on_c, 1, 67, 0
3, 80352, Note_on_c, 1, 65, 100
3, 80448, Note_on_c, 1, 65, 0
3, 80448, Note_on_c, 1, 64, 100
3, 80544, Note_on_c, 1, 64, 0
3, 80544, Note_on_c, 1, 67, 100
3, 80640, Note_on_c, 1, 67, 0
3, 80640, Note_on_c, 1, 65, 100
3, 80832, Note_on_c, 1, 65, 0
3, 80832, Note_on_c, 1, 62, 100
3, 81024, Note_on_c, 1, 62, 0
3, 81024, Note_on_c, 1, 72, 100
3, 83136, Note_on_c, 1, 72, 0
3, 83136, Note_on_c, 1, 69, 100
3, 83328, Note_on_c, 1, 69, 0
3, 83328, Note_on_c, 1, 65, 100
3, 83520, Note_on_c, 1, 65, 0
3, 83520, Note_on_c, 1, 70, 100
3, 83712, Note_on_c, 1, 70, 0
3, 83712, Note_on_c, 1, 72, 100
3, 85440, Note_on_c, 1, 72, 0
3, 85440, Note_on_c, 1, 72, 100
3, 85632, Note_on_c, 1, 72, 0
3, 85632, Note_on_c, 1, 69, 100
3, 85824, Note_on_c, 1, 69, 0
3, 85824, Note_on_c, 1, 65, 100
3, 86016, Note_on_c, 1, 65, 0
3, 86016, Note_on_c, 1, 70, 100
3, 86208, Note_on_c, 1, 70, 0
3, 86208, Note_on_c, 1, 74, 100
3, 86400, Note_on_c, 1, 74, 0
3, 86400, Note_on_c, 1, 74, 100
3, 86592, Note_on_c, 1, 74, 0
3, 86592, Note_on_c, 1, 74, 100
3, 86784, Note_on_c, 1, 74, 0
3, 86784, Note_on_c, 1, 74, 100
3, 86976, Note_on_c, 1, 74, 0
3, 86976, Note_on_c, 1, 74, 100
3, 87168, Note_on_c, 1, 74, 0
3, 87168, Note_on_c, 1, 74, 100
3, 87360, Note_on_c, 1, 74, 0
3, 87360, Note_on_c, 1, 74, 100
3, 87552, Note_on_c, 1, 74, 0
3, 87552, Note_on_c, 1, 74, 100
3, 87744, Note_on_c, 1, 74, 0
3, 87744, Note_on_c, 1, 79, 100
3, 87840, Note_on_c, 1, 79, 0
3, 87840, Note_on_c, 1, 81, 100
3, 87936, Note_on_c, 1, 81, 0
3, 87936, Note_on_c, 1, 79, 100
3, 88032, Note_on_c, 1, 79, 0
3, 88032, Note_on_c, 1, 77, 100
3, 88128, Note_on_c, 1, 77, 0
3, 88128, Note_on_c, 1, 76, 100
3, 88224, Note_on_c, 1, 76, 0
3, 88224, Note_on_c, 1, 74, 100
3, 88320, Note_on_c, 1, 74, 0
3, 88320, Note_on_c, 1, 73, 100
3, 88512, Note_on_c, 1, 73, 0
3, 88512, Note_on_c, 1, 73, 100
3, 88704, Note_on_c, 1, 73, 0
3, 88704, Note_on_c, 1, 73, 100
3, 88896, Note_on_c, 1, 73, 0
3, 88896, Note_on_c, 1, 73, 100
3, 89088, Note_on_c, 1, 73, 0
3, 89088, Note_on_c, 1, 73, 100
3, 89280, Note_on_c, 1, 73, 0
3, 89280, Note_on_c, 1, 73, 100
3, 89472, Note_on_c, 1, 73, 0
3, 89472, Note_on_c, 1, 73, 100
3, 89664, Note_on_c, 1, 73, 0
3, 89664, Note_on_c, 1, 73, 100
3, 89856, Note_on_c, 1, 73, 0
3, 89856, Note_on_c, 1, 74, 100
3, 90048, Note_on_c, 1, 74, 0
3, 90048, Note_on_c, 1, 69, 100
3, 90240, Note_on_c, 1, 69, 0
3, 90240, Note_on_c, 1, 77, 100
3, 90816, Note_on_c, 1, 77, 0
3, 90816, Note_on_c, 1, 79, 100
3, 90912, Note_on_c, 1, 79, 0
3, 90912, Note_on_c, 1, 81, 100
3, 91008, Note_on_c, 1, 81, 0
3, 91008, Note_on_c, 1, 79, 100
3, 91200, Note_on_c, 1, 79, 0
3, 91200, Note_on_c, 1, 77, 100
3, 91392, Note_on_c, 1, 77, 0
3, 91392, Note_on_c, 1, 76, 100
3, 91584, Note_on_c, 1, 76, 0
3, 91584, Note_on_c, 1, 67, 100
3, 91776, Note_on_c, 1, 67, 0
3, 91776, Note_on_c, 1, 76, 100
3, 92352, Note_on_c, 1, 76, 0
3, 92352, Note_on_c, 1, 77, 100
3, 92448, Note_on_c, 1, 77, 0
3, 92448, Note_on_c, 1, 79, 100
3, 92544, Note_on_c, 1, 79, 0
3, 92544, Note_on_c, 1, 77, 100
3, 92736, Note_on_c, 1, 77, 0
3, 92736, Note_on_c, 1, 76, 100
3, 92928, Note_on_c, 1, 76, 0
3, 92928, Note_on_c, 1, 74, 100
3, 93120, Note_on_c, 1, 74, 0
3, 93120, Note_on_c, 1, 68, 100
3, 93312, Note_on_c, 1, 68, 0
3, 93312, Note_on_c, 1, 74, 100
3, 93888, Note_on_c, 1, 74, 0
3, 93888, Note_on_c, 1, 72, 100
3, 94080, Note_on_c, 1, 72, 0
3, 94080, Note_on_c, 1, 71, 100
3, 94272, Note_on_c, 1, 71, 0
3, 94272, Note_on_c, 1, 69, 100
3, 94272, Note_on_c, 1, 76, 100
3, 94464, Note_on_c, 1, 76, 0
3, 94464, Note_on_c, 1, 69, 0
3, 94464, Note_on_c, 1, 81, 100
3, 94848, Note_on_c, 1, 81, 0
3, 95040, Note_on_c, 1, 76, 100
3, 95232, Note_on_c, 1, 76, 0
3, 95232, Note_on_c, 1, 77, 100
3, 95616, Note_on_c, 1, 77, 0
3, 95808, Note_on_c, 1, 74, 100
3, 96000, Note_on_c, 1, 74, 0
3, 96000, Note_on_c, 1, 76, 100
3, 96096, Note_on_c, 1, 76, 0
3, 96096, Note_on_c, 1, 74, 100
3, 96192, Note_on_c, 1, 74, 0
3, 96192, Note_on_c, 1, 72, 100
3, 96288, Note_on_c, 1, 72, 0
3, 96288, Note_on_c, 1, 76, 100
3, 96384, Note_on_c, 1, 76, 0
3, 96384, Note_on_c, 1, 74, 100
3, 96480, Note_on_c, 1, 74, 0
3, 96480, Note_on_c, 1, 72, 100
3, 96576, Note_on_c, 1, 72, 0
3, 96576, Note_on_c, 1, 71, 100
3, 96672, Note_on_c, 1, 71, 0
3, 96672, Note_on_c, 1, 74, 100
3, 96768, Note_on_c, 1, 74, 0
3, 96768, Note_on_c, 1, 72, 100
3, 96960, Note_on_c, 1, 72, 0
3, 96960, Note_on_c, 1, 69, 100
3, 97152, Note_on_c, 1, 69, 0
3, 98112, Note_on_c, 1, 76, 100
3, 98304, Note_on_c, 1, 76, 0
3, 98304, Note_on_c, 1, 69, 100
3, 98496, Note_on_c, 1, 69, 0
3, 98496, Note_on_c, 1, 74, 100
3, 98688, Note_on_c, 1, 74, 0
3, 98688, Note_on_c, 1, 67, 100
3, 98880, Note_on_c, 1, 67, 0
3, 98880, Note_on_c, 1, 73, 100
3, 99072, Note_on_c, 1, 73, 0
3, 99072, Note_on_c, 1, 74, 100
3, 99168, Note_on_c, 1, 74, 0
3, 99168, Note_on_c, 1, 65, 100
3, 99264, Note_on_c, 1, 65, 0
3, 99264, Note_on_c, 1, 64, 100
3, 99360, Note_on_c, 1, 64, 0
3, 99360, Note_on_c, 1, 65, 100
3, 99456, Note_on_c, 1, 65, 0
3, 99456, Note_on_c, 1, 62, 100
3, 100032, Note_on_c, 1, 62, 0
3, 100032, Note_on_c, 1, 67, 100
3, 100224, Note_on_c, 1, 67, 0
3, 100224, Note_on_c, 1, 60, 100
3, 100416, Note_on_c, 1, 60, 0
3, 100416, Note_on_c, 1, 66, 100
3, 100608, Note_on_c, 1, 66, 0
3, 100608, Note_on_c, 1, 67, 100
3, 100704, Note_on_c, 1, 67, 0
3, 100704, Note_on_c, 1, 58, 100
3, 100800, Note_on_c, 1, 58, 0
3, 100800, Note_on_c, 1, 57, 100
3, 100896, Note_on_c, 1, 57, 0
3, 100896, Note_on_c, 1, 58, 100
3, 100992, Note_on_c, 1, 58, 0
3, 100992, Note_on_c, 1, 55, 100
3, 101568, Note_on_c, 1, 55, 0
3, 101568, Note_on_c, 1, 72, 100
3, 101760, Note_on_c, 1, 72, 0
3, 101760, Note_on_c, 1, 65, 100
3, 101952, Note_on_c, 1, 65, 0
3, 101952, Note_on_c, 1, 71, 100
3, 102144, Note_on_c, 1, 71, 0
3, 102144, Note_on_c, 1, 72, 100
3, 102528, Note_on_c, 1, 72, 0
3, 102528, Note_on_c, 1, 79, 100
3, 102912, Note_on_c, 1, 79, 0
3, 102912, Note_on_c, 1, 77, 100
3, 103296, Note_on_c, 1, 77, 0
3, 103296, Note_on_c, 1, 76, 100
3, 103680, Note_on_c, 1, 76, 0
3, 103680, Note_on_c, 1, 77, 100
3, 103872, Note_on_c, 1, 77, 0
3, 103872, Note_on_c, 1, 77, 100
3, 104064, Note_on_c, 1, 77, 0
3, 104064, Note_on_c, 1, 75, 100
3, 104256, Note_on_c, 1, 75, 0
3, 104256, Note_on_c, 1, 75, 100
3, 104448, Note_on_c, 1, 75, 0
3, 104448, Note_on_c, 1, 74, 100
3, 104832, Note_on_c, 1, 74, 0
3, 105216, Note_on_c, 1, 70, 100
3, 105408, Note_on_c, 1, 70, 0
3, 105408, Note_on_c, 1, 70, 100
3, 105600, Note_on_c, 1, 70, 0
3, 105600, Note_on_c, 1, 69, 100
3, 105792, Note_on_c, 1, 69, 0
3, 105792, Note_on_c, 1, 69, 100
3, 105984, Note_on_c, 1, 69, 0
3, 105984, Note_on_c, 1, 69, 100
3, 106368, Note_on_c, 1, 69, 0
3, 106752, Note_on_c, 1, 65, 100
3, 106944, Note_on_c, 1, 65, 0
3, 106944, Note_on_c, 1, 65, 100
3, 107136, Note_on_c, 1, 65, 0
3, 107136, Note_on_c, 1, 64, 100
3, 107328, Note_on_c, 1, 64, 0
3, 107328, Note_on_c, 1, 64, 100
3, 107520, Note_on_c, 1, 64, 0
3, 107520, Note_on_c, 1, 64, 100
3, 107904, Note_on_c, 1, 64, 0
3, 109632, Note_on_c, 1, 76, 100
3, 109824, Note_on_c, 1, 76, 0
3, 109824, Note_on_c, 1, 81, 100
3, 110208, Note_on_c, 1, 81, 0
3, 110400, Note_on_c, 1, 76, 100
3, 110592, Note_on_c, 1, 76, 0
3, 110592, Note_on_c, 1, 77, 100
3, 110976, Note_on_c, 1, 77, 0
3, 111168, Note_on_c, 1, 74, 100
3, 111360, Note_on_c, 1, 74, 0
3, 111360, Note_on_c, 1, 76, 100
3, 111456, Note_on_c, 1, 76, 0
3, 111456, Note_on_c, 1, 74, 100
3, 111552, Note_on_c, 1, 74, 0
3, 111552, Note_on_c, 1, 72, 100
3, 111648, Note_on_c, 1, 72, 0
3, 111648, Note_on_c, 1, 76, 100
3, 111744, Note_on_c, 1, 76, 0
3, 111744, Note_on_c, 1, 74, 100
3, 111840, Note_on_c, 1, 74, 0
3, 111840, Note_on_c, 1, 72, 100
3, 111936, Note_on_c, 1, 72, 0
3, 111936, Note_on_c, 1, 71, 100
3, 112032, Note_on_c, 1, 71, 0
3, 112032, Note_on_c, 1, 74, 100
3, 112128, Note_on_c, 1, 74, 0
3, 112128, Note_on_c, 1, 72, 100
3, 112320, Note_on_c, 1, 72, 0
3, 112320, Note_on_c, 1, 69, 100
3, 112512, Note_on_c, 1, 69, 0
3, 112512, Note_on_c, 1, 76, 100
3, 113088, Note_on_c, 1, 76, 0
3, 113088, Note_on_c, 1, 74, 100
3, 113184, Note_on_c, 1, 74, 0
3, 113184, Note_on_c, 1, 73, 100
3, 113280, Note_on_c, 1, 73, 0
3, 113280, Note_on_c, 1, 74, 100
3, 113472, Note_on_c, 1, 74, 0
3, 113472, Note_on_c, 1, 77, 100
3, 113856, Note_on_c, 1, 77, 0
3, 113856, Note_on_c, 1, 71, 100
3, 114048, Note_on_c, 1, 71, 0
3, 115392, Note_on_c, 1, 67, 100
3, 115584, Note_on_c, 1, 67, 0
3, 115584, Note_on_c, 1, 74, 100
3, 116160, Note_on_c, 1, 74, 0
3, 116160, Note_on_c, 1, 72, 100
3, 116256, Note_on_c, 1, 72, 0
3, 116256, Note_on_c, 1, 71, 100
3, 116352, Note_on_c, 1, 71, 0
3, 116352, Note_on_c, 1, 72, 100
3, 116544, Note_on_c, 1, 72, 0
3, 116544, Note_on_c, 1, 76, 100
3, 116928, Note_on_c, 1, 76, 0
3, 116928, Note_on_c, 1, 69, 100
3, 117120, Note_on_c, 1, 69, 0
3, 118464, Note_on_c, 1, 65, 100
3, 118656, Note_on_c, 1, 65, 0
3, 118656, Note_on_c, 1, 72, 100
3, 119232, Note_on_c, 1, 72, 0
3, 119232, Note_on_c, 1, 71, 100
3, 119328, Note_on_c, 1, 71, 0
3, 119328, Note_on_c, 1, 72, 100
3, 119424, Note_on_c, 1, 72, 0
3, 119424, Note_on_c, 1, 74, 100
3, 119616, Note_on_c, 1, 74, 0
3, 119616, Note_on_c, 1, 65, 100
3, 119808, Note_on_c, 1, 65, 0
3, 119808, Note_on_c, 1, 64, 100
3, 120000, Note_on_c, 1, 64, 0
3, 120000, Note_on_c, 1, 74, 100
3, 120192, Note_on_c, 1, 74, 0
3, 120192, Note_on_c, 1, 72, 100
3, 120384, Note_on_c, 1, 72, 0
3, 120384, Note_on_c, 1, 64, 100
3, 120576, Note_on_c, 1, 64, 0
3, 120576, Note_on_c, 1, 62, 100
3, 120672, Note_on_c, 1, 62, 0
3, 120672, Note_on_c, 1, 72, 100
3, 120768, Note_on_c, 1, 72, 0
3, 120768, Note_on_c, 1, 71, 100
3, 120864, Note_on_c, 1, 71, 0
3, 120864, Note_on_c, 1, 69, 100
3, 120960, Note_on_c, 1, 69, 0
3, 120960, Note_on_c, 1, 71, 100
3, 121056, Note_on_c, 1, 71, 0
3, 121056, Note_on_c, 1, 69, 100
3, 121152, Note_on_c, 1, 69, 0
3, 121152, Note_on_c, 1, 68, 100
3, 121248, Note_on_c, 1, 68, 0
3, 121248, Note_on_c, 1, 66, 100
3, 121344, Note_on_c, 1, 66, 0
3, 121344, Note_on_c, 1, 68, 100
3, 121536, Note_on_c, 1, 68, 0
3, 121536, Note_on_c, 1, 77, 100
3, 121728, Note_on_c, 1, 77, 0
3, 121728, Note_on_c, 1, 76, 100
3, 121920, Note_on_c, 1, 76, 0
3, 121920, Note_on_c, 1, 81, 100
3, 122112, Note_on_c, 1, 81, 0
3, 122112, Note_on_c, 1, 84, 100
3, 122496, Note_on_c, 1, 84, 0
3, 122496, Note_on_c, 1, 83, 100
3, 122544, Note_on_c, 1, 83, 0
3, 122544, Note_on_c, 1, 84, 100
3, 122592, Note_on_c, 1, 84, 0
3, 122592, Note_on_c, 1, 83, 100
3, 122640, Note_on_c, 1, 83, 0
3, 122640, Note_on_c, 1, 84, 100
3, 122688, Note_on_c, 1, 84, 0
3, 122688, Note_on_c, 1, 83, 100
3, 122736, Note_on_c, 1, 83, 0
3, 122736, Note_on_c, 1, 84, 100
3, 122784, Note_on_c, 1, 84, 0
3, 122784, Note_on_c, 1, 83, 100
3, 122832, Note_on_c, 1, 83, 0
3, 122832, Note_on_c, 1, 84, 100
3, 122880, Note_on_c, 1, 84, 0
3, 122880, Note_on_c, 1, 83, 100
3, 123264, Note_on_c, 1, 83, 0
3, 123648, Note_on_c, 1, 74, 100
3, 124032, Note_on_c, 1, 74, 0
3, 124416, Note_on_c, 1, 77, 100
3, 124800, Note_on_c, 1, 77, 0
3, 125184, Note_on_c, 1, 74, 100
3, 125568, Note_on_c, 1, 74, 0
3, 125952, Note_on_c, 1, 74, 100
3, 126720, Note_on_c, 1, 74, 0
3, 126816, Note_on_c, 1, 76, 100
3, 126912, Note_on_c, 1, 76, 0
3, 126912, Note_on_c, 1, 78, 100
3, 127008, Note_on_c, 1, 78, 0
3, 127008, Note_on_c, 1, 80, 100
3, 127104, Note_on_c, 1, 80, 0
3, 127104, Note_on_c, 1, 81, 100
3, 127200, Note_on_c, 1, 81, 0
3, 127200, Note_on_c, 1, 80, 100
3, 127296, Note_on_c, 1, 80, 0
3, 127296, Note_on_c, 1, 81, 100
3, 127392, Note_on_c, 1, 81, 0
3, 127392, Note_on_c, 1, 83, 100
3, 127488, Note_on_c, 1, 83, 0
3, 127488, Note_on_c, 1, 76, 100
3, 127680, Note_on_c, 1, 76, 0
3, 127680, Note_on_c, 1, 81, 100
3, 127872, Note_on_c, 1, 81, 0
3, 127872, Note_on_c, 1, 83, 100
3, 128064, Note_on_c, 1, 83, 0
3, 128064, Note_on_c, 1, 80, 100
3, 128256, Note_on_c, 1, 80, 0
3, 128256, Note_on_c, 1, 81, 100
3, 128352, Note_on_c, 1, 81, 0
3, 128352, Note_on_c, 1, 79, 100
3, 128448, Note_on_c, 1, 79, 0
3, 128448, Note_on_c, 1, 77, 100
3, 128544, Note_on_c, 1, 77, 0
3, 128544, Note_on_c, 1, 76, 100
3, 128640, Note_on_c, 1, 76, 0
3, 128640, Note_on_c, 1, 74, 100
3, 128832, Note_on_c, 1, 74, 0
3, 128832, Note_on_c, 1, 74, 100
3, 129024, Note_on_c, 1, 74, 0
3, 129024, Note_on_c, 1, 74, 100
3, 129120, Note_on_c, 1, 74, 0
3, 129120, Note_on_c, 1, 76, 100
3, 129216, Note_on_c, 1, 76, 0
3, 129216, Note_on_c, 1, 77, 100
3, 129504, Note_on_c, 1, 77, 0
3, 129504, Note_on_c, 1, 76, 100
3, 129600, Note_on_c, 1, 76, 0
3, 129600, Note_on_c, 1, 74, 100
3, 129696, Note_on_c, 1, 74, 0
3, 129696, Note_on_c, 1, 72, 100
3, 129792, Note_on_c, 1, 72, 0
3, 129792, Note_on_c, 1, 71, 100
3, 129888, Note_on_c, 1, 71, 0
3, 129888, Note_on_c, 1, 72, 100
3, 129984, Note_on_c, 1, 72, 0
3, 129984, Note_on_c, 1, 74, 100
3, 130272, Note_on_c, 1, 74, 0
3, 130272, Note_on_c, 1, 72, 100
3, 130368, Note_on_c, 1, 72, 0
3, 130368, Note_on_c, 1, 71, 100
3, 130464, Note_on_c, 1, 71, 0
3, 130464, Note_on_c, 1, 69, 100
3, 130560, Note_on_c, 1, 69, 0
3, 130560, Note_on_c, 1, 68, 100
3, 130752, Note_on_c, 1, 68, 0
3, 130752, Note_on_c, 1, 76, 100
3, 130944, Note_on_c, 1, 76, 0
3, 130944, Note_on_c, 1, 72, 100
3, 130992, Note_on_c, 1, 72, 0
3, 130992, Note_on_c, 1, 74, 100
3, 131040, Note_on_c, 1, 74, 0
3, 131040, Note_on_c, 1, 72, 100
3, 131088, Note_on_c, 1, 72, 0
3, 131088, Note_on_c, 1, 74, 100
3, 131136, Note_on_c, 1, 74, 0
3, 131136, Note_on_c, 1, 71, 100
3, 131232, Note_on_c, 1, 71, 0
3, 131232, Note_on_c, 1, 69, 100
3, 131328, Note_on_c, 1, 69, 0
3, 131328, Note_on_c, 1, 69, 100
3, 131904, Note_on_c, 1, 69, 0
3, 131904, End_track
4, 0, Start_track
4, 0, MIDI_port, 0
4, 0, Title_t, "Violin 2"
4, 0, Program_c, 2, 40
4, 0, Control_c, 2, 7, 110
4, 0, Control_c, 2, 10, 96
4, 576, Note_on_c, 2, 72, 100
4, 768, Note_on_c, 2, 72, 0
4, 768, Note_on_c, 2, 76, 100
4, 1152, Note_on_c, 2, 76, 0
4, 1344, Note_on_c, 2, 72, 100
4, 1536, Note_on_c, 2, 72, 0
4, 1536, Note_on_c, 2, 74, 100
4, 1920, Note_on_c, 2, 74, 0
4, 2112, Note_on_c, 2, 71, 100
4, 2304, Note_on_c, 2, 71, 0
4, 2304, Note_on_c, 2, 72, 100
4, 2400, Note_on_c, 2, 72, 0
4, 2400, Note_on_c, 2, 71, 100
4, 2496, Note_on_c, 2, 71, 0
4, 2496, Note_on_c, 2, 69, 100
4, 2592, Note_on_c, 2, 69, 0
4, 2592, Note_on_c, 2, 72, 100
4, 2688, Note_on_c, 2, 72, 0
4, 2688, Note_on_c, 2, 71, 100
4, 2784, Note_on_c, 2, 71, 0
4, 2784, Note_on_c, 2, 69, 100
4, 2880, Note_on_c, 2, 69, 0
4, 2880, Note_on_c, 2, 68, 100
4, 2976, Note_on_c, 2, 68, 0
4, 2976, Note_on_c, 2, 71, 100
4, 3072, Note_on_c, 2, 71, 0
4, 3072, Note_on_c, 2, 69, 100
4, 3264, Note_on_c, 2, 69, 0
4, 3264, Note_on_c, 2, 64, 100
4, 3456, Note_on_c, 2, 64, 0
4, 3648, Note_on_c, 2, 64, 100
4, 3840, Note_on_c, 2, 64, 0
4, 3840, Note_on_c, 2, 64, 100
4, 4032, Note_on_c, 2, 64, 0
4, 4224, Note_on_c, 2, 64, 100
4, 4416, Note_on_c, 2, 64, 0
4, 4608, Note_on_c, 2, 68, 100
4, 4800, Note_on_c, 2, 68, 0
4, 4992, Note_on_c, 2, 69, 100
4, 5184, Note_on_c, 2, 69, 0
4, 5376, Note_on_c, 2, 69, 100
4, 5568, Note_on_c, 2, 69, 0
4, 5568, Note_on_c, 2, 74, 100
4, 5760, Note_on_c, 2, 74, 0
4, 5760, Note_on_c, 2, 68, 100
4, 5952, Note_on_c, 2, 68, 0
4, 5952, Note_on_c, 2, 74, 100
4, 6240, Note_on_c, 2, 74, 0
4, 6240, Note_on_c, 2, 76, 100
4, 6336, Note_on_c, 2, 76, 0
4, 6336, Note_on_c, 2, 74, 100
4, 6432, Note_on_c, 2, 74, 0
4, 6432, Note_on_c, 2, 72, 100
4, 6528, Note_on_c, 2, 72, 0
4, 6528, Note_on_c, 2, 71, 100
4, 6624, Note_on_c, 2, 71, 0
4, 6624, Note_on_c, 2, 69, 100
4, 6720, Note_on_c, 2, 69, 0
4, 6720, Note_on_c, 2, 68, 100
4, 6816, Note_on_c, 2, 68, 0
4, 6816, Note_on_c, 2, 66, 100
4, 6912, Note_on_c, 2, 66, 0
4, 6912, Note_on_c, 2, 64, 100
4, 7008, Note_on_c, 2, 64, 0
4, 7008, Note_on_c, 2, 74, 100
4, 7104, Note_on_c, 2, 74, 0
4, 7104, Note_on_c, 2, 72, 100
4, 7200, Note_on_c, 2, 72, 0
4, 7200, Note_on_c, 2, 71, 100
4, 7296, Note_on_c, 2, 71, 0
4, 7296, Note_on_c, 2, 69, 100
4, 7392, Note_on_c, 2, 69, 0
4, 7392, Note_on_c, 2, 67, 100
4, 7488, Note_on_c, 2, 67, 0
4, 7488, Note_on_c, 2, 66, 100
4, 7584, Note_on_c, 2, 66, 0
4, 7584, Note_on_c, 2, 64, 100
4, 7680, Note_on_c, 2, 64, 0
4, 7680, Note_on_c, 2, 66, 100
4, 7776, Note_on_c, 2, 66, 0
4, 7776, Note_on_c, 2, 74, 100
4, 7872, Note_on_c, 2, 74, 0
4, 7872, Note_on_c, 2, 72, 100
4, 7968, Note_on_c, 2, 72, 0
4, 7968, Note_on_c, 2, 71, 100
4, 8064, Note_on_c, 2, 71, 0
4, 8064, Note_on_c, 2, 69, 100
4, 8160, Note_on_c, 2, 69, 0
4, 8160, Note_on_c, 2, 67, 100
4, 8256, Note_on_c, 2, 67, 0
4, 8256, Note_on_c, 2, 66, 100
4, 8352, Note_on_c, 2, 66, 0
4, 8352, Note_on_c, 2, 64, 100
4, 8448, Note_on_c, 2, 64, 0
4, 8448, Note_on_c, 2, 62, 100
4, 8544, Note_on_c, 2, 62, 0
4, 8544, Note_on_c, 2, 72, 100
4, 8640, Note_on_c, 2, 72, 0
4, 8640, Note_on_c, 2, 71, 100
4, 8736, Note_on_c, 2, 71, 0
4, 8736, Note_on_c, 2, 69, 100
4, 8832, Note_on_c, 2, 69, 0
4, 8832, Note_on_c, 2, 67, 100
4, 8928, Note_on_c, 2, 67, 0
4, 8928, Note_on_c, 2, 66, 100
4, 9024, Note_on_c, 2, 66, 0
4, 9024, Note_on_c, 2, 64, 100
4, 9120, Note_on_c, 2, 64, 0
4, 9120, Note_on_c, 2, 63, 100
4, 9216, Note_on_c, 2, 63, 0
4, 9216, Note_on_c, 2, 64, 100
4, 9312, Note_on_c, 2, 64, 0
4, 9312, Note_on_c, 2, 72, 100
4, 9408, Note_on_c, 2, 72, 0
4, 9408, Note_on_c, 2, 71, 100
4, 9504, Note_on_c, 2, 71, 0
4, 9504, Note_on_c, 2, 69, 100
4, 9600, Note_on_c, 2, 69, 0
4, 9600, Note_on_c, 2, 67, 100
4, 9696, Note_on_c, 2, 67, 0
4, 9696, Note_on_c, 2, 66, 100
4, 9792, Note_on_c, 2, 66, 0
4, 9792, Note_on_c, 2, 64, 100
4, 9888, Note_on_c, 2, 64, 0
4, 9888, Note_on_c, 2, 62, 100
4, 9984, Note_on_c, 2, 62, 0
4, 9984, Note_on_c, 2, 60, 100
4, 10176, Note_on_c, 2, 60, 0
4, 10176, Note_on_c, 2, 72, 100
4, 10464, Note_on_c, 2, 72, 0
4, 10464, Note_on_c, 2, 71, 100
4, 10560, Note_on_c, 2, 71, 0
4, 10560, Note_on_c, 2, 69, 100
4, 10656, Note_on_c, 2, 69, 0
4, 10656, Note_on_c, 2, 67, 100
4, 10752, Note_on_c, 2, 67, 0
4, 10752, Note_on_c, 2, 66, 100
4, 10944, Note_on_c, 2, 66, 0
4, 10944, Note_on_c, 2, 78, 100
4, 11136, Note_on_c, 2, 78, 0
4, 11136, Note_on_c, 2, 76, 100
4, 11328, Note_on_c, 2, 76, 0
4, 11328, Note_on_c, 2, 64, 100
4, 11712, Note_on_c, 2, 64, 0
4, 11712, Note_on_c, 2, 63, 100
4, 11904, Note_on_c, 2, 63, 0
4, 11904, Note_on_c, 2, 64, 100
4, 12096, Note_on_c, 2, 64, 0
4, 12096, Note_on_c, 2, 72, 100
4, 12480, Note_on_c, 2, 72, 0
4, 12480, Note_on_c, 2, 66, 100
4, 12672, Note_on_c, 2, 66, 0
4, 12672, Note_on_c, 2, 67, 100
4, 12864, Note_on_c, 2, 67, 0
4, 12864, Note_on_c, 2, 76, 100
4, 13056, Note_on_c, 2, 76, 0
4, 13056, Note_on_c, 2, 76, 100
4, 13440, Note_on_c, 2, 76, 0
4, 13440, Note_on_c, 2, 75, 100
4, 13488, Note_on_c, 2, 75, 0
4, 13488, Note_on_c, 2, 76, 100
4, 13536, Note_on_c, 2, 76, 0
4, 13536, Note_on_c, 2, 75, 100
4, 13584, Note_on_c, 2, 75, 0
4, 13584, Note_on_c, 2, 76, 100
4, 13632, Note_on_c, 2, 76, 0
4, 13632, Note_on_c, 2, 75, 100
4, 13680, Note_on_c, 2, 75, 0
4, 13680, Note_on_c, 2, 76, 100
4, 13728, Note_on_c, 2, 76, 0
4, 13728, Note_on_c, 2, 75, 100
4, 13776, Note_on_c, 2, 75, 0
4, 13776, Note_on_c, 2, 76, 100
4, 13824, Note_on_c, 2, 76, 0
4, 13824, Note_on_c, 2, 75, 100
4, 14208, Note_on_c, 2, 75, 0
4, 14400, Note_on_c, 2, 75, 100
4, 14592, Note_on_c, 2, 75, 0
4, 14592, Note_on_c, 2, 76, 100
4, 14784, Note_on_c, 2, 76, 0
4, 14784, Note_on_c, 2, 67, 100
4, 14976, Note_on_c, 2, 67, 0
4, 14976, Note_on_c, 2, 69, 100
4, 15168, Note_on_c, 2, 69, 0
4, 15168, Note_on_c, 2, 66, 100
4, 15360, Note_on_c, 2, 66, 0
4, 15360, Note_on_c, 2, 64, 100
4, 15552, Note_on_c, 2, 64, 0
4, 15552, Note_on_c, 2, 76, 100
4, 15648, Note_on_c, 2, 76, 0
4, 15648, Note_on_c, 2, 74, 100
4, 15744, Note_on_c, 2, 74, 0
4, 15744, Note_on_c, 2, 72, 100
4, 15840, Note_on_c, 2, 72, 0
4, 15840, Note_on_c, 2, 71, 100
4, 15936, Note_on_c, 2, 71, 0
4, 15936, Note_on_c, 2, 69, 100
4, 16032, Note_on_c, 2, 69, 0
4, 16032, Note_on_c, 2, 67, 100
4, 16128, Note_on_c, 2, 67, 0
4, 16128, Note_on_c, 2, 66, 100
4, 16224, Note_on_c, 2, 66, 0
4, 16224, Note_on_c, 2, 64, 100
4, 16320, Note_on_c, 2, 64, 0
4, 16320, Note_on_c, 2, 63, 100
4, 16416, Note_on_c, 2, 63, 0
4, 16416, Note_on_c, 2, 64, 100
4, 16512, Note_on_c, 2, 64, 0
4, 16512, Note_on_c, 2, 66, 100
4, 16608, Note_on_c, 2, 66, 0
4, 16608, Note_on_c, 2, 67, 100
4, 16704, Note_on_c, 2, 67, 0
4, 16704, Note_on_c, 2, 69, 100
4, 16800, Note_on_c, 2, 69, 0
4, 16800, Note_on_c, 2, 71, 100
4, 16896, Note_on_c, 2, 71, 0
4, 16896, Note_on_c, 2, 72, 100
4, 16992, Note_on_c, 2, 72, 0
4, 16992, Note_on_c, 2, 71, 100
4, 17088, Note_on_c, 2, 71, 0
4, 17088, Note_on_c, 2, 69, 100
4, 17184, Note_on_c, 2, 69, 0
4, 17184, Note_on_c, 2, 67, 100
4, 17280, Note_on_c, 2, 67, 0
4, 17280, Note_on_c, 2, 66, 100
4, 17376, Note_on_c, 2, 66, 0
4, 17376, Note_on_c, 2, 64, 100
4, 17472, Note_on_c, 2, 64, 0
4, 17472, Note_on_c, 2, 63, 100
4, 17568, Note_on_c, 2, 63, 0
4, 17568, Note_on_c, 2, 64, 100
4, 17664, Note_on_c, 2, 64, 0
4, 17664, Note_on_c, 2, 69, 100
4, 17760, Note_on_c, 2, 69, 0
4, 17760, Note_on_c, 2, 66, 100
4, 17856, Note_on_c, 2, 66, 0
4, 17856, Note_on_c, 2, 67, 100
4, 17952, Note_on_c, 2, 67, 0
4, 17952, Note_on_c, 2, 64, 100
4, 18048, Note_on_c, 2, 64, 0
4, 18048, Note_on_c, 2, 59, 100
4, 18240, Note_on_c, 2, 59, 0
4, 18240, Note_on_c, 2, 63, 100
4, 18432, Note_on_c, 2, 63, 0
4, 18432, Note_on_c, 2, 64, 100
4, 18816, Note_on_c, 2, 64, 0
4, 19392, Note_on_c, 2, 72, 100
4, 19584, Note_on_c, 2, 72, 0
4, 19584, Note_on_c, 2, 76, 100
4, 19776, Note_on_c, 2, 76, 0
4, 20160, Note_on_c, 2, 76, 100
4, 20256, Note_on_c, 2, 76, 0
4, 20256, Note_on_c, 2, 78, 100
4, 20352, Note_on_c, 2, 78, 0
4, 20352, Note_on_c, 2, 80, 100
4, 20544, Note_on_c, 2, 80, 0
4, 20928, Note_on_c, 2, 68, 100
4, 21120, Note_on_c, 2, 68, 0
4, 21120, Note_on_c, 2, 74, 100
4, 21312, Note_on_c, 2, 74, 0
4, 21696, Note_on_c, 2, 76, 100
4, 21888, Note_on_c, 2, 76, 0
4, 21888, Note_on_c, 2, 81, 100
4, 22080, Note_on_c, 2, 81, 0
4, 25536, Note_on_c, 2, 76, 100
4, 25728, Note_on_c, 2, 76, 0
4, 25728, Note_on_c, 2, 81, 100
4, 26112, Note_on_c, 2, 81, 0
4, 26304, Note_on_c, 2, 74, 100
4, 26400, Note_on_c, 2, 74, 0
4, 26400, Note_on_c, 2, 76, 100
4, 26496, Note_on_c, 2, 76, 0
4, 26496, Note_on_c, 2, 77, 100
4, 26880, Note_on_c, 2, 77, 0
4, 27072, Note_on_c, 2, 74, 100
4, 27264, Note_on_c, 2, 74, 0
4, 27264, Note_on_c, 2, 79, 100
4, 27648, Note_on_c, 2, 79, 0
4, 27840, Note_on_c, 2, 72, 100
4, 27936, Note_on_c, 2, 72, 0
4, 27936, Note_on_c, 2, 74, 100
4, 28032, Note_on_c, 2, 74, 0
4, 28032, Note_on_c, 2, 76, 100
4, 28416, Note_on_c, 2, 76, 0
4, 28608, Note_on_c, 2, 72, 100
4, 28800, Note_on_c, 2, 72, 0
4, 28800, Note_on_c, 2, 77, 100
4, 29184, Note_on_c, 2, 77, 0
4, 29376, Note_on_c, 2, 71, 100
4, 29472, Note_on_c, 2, 71, 0
4, 29472, Note_on_c, 2, 72, 100
4, 29568, Note_on_c, 2, 72, 0
4, 29568, Note_on_c, 2, 74, 100
4, 29952, Note_on_c, 2, 74, 0
4, 30144, Note_on_c, 2, 71, 100
4, 30336, Note_on_c, 2, 71, 0
4, 30336, Note_on_c, 2, 76, 100
4, 30720, Note_on_c, 2, 76, 0
4, 30912, Note_on_c, 2, 76, 100
4, 31104, Note_on_c, 2, 76, 0
4, 31104, Note_on_c, 2, 81, 100
4, 31488, Note_on_c, 2, 81, 0
4, 31680, Note_on_c, 2, 74, 100
4, 31776, Note_on_c, 2, 74, 0
4, 31776, Note_on_c, 2, 76, 100
4, 31872, Note_on_c, 2, 76, 0
4, 31872, Note_on_c, 2, 77, 100
4, 32064, Note_on_c, 2, 77, 0
4, 32064, Note_on_c, 2, 68, 100
4, 32256, Note_on_c, 2, 68, 0
4, 32256, Note_on_c, 2, 72, 100
4, 32352, Note_on_c, 2, 72, 0
4, 32352, Note_on_c, 2, 71, 100
4, 32448, Note_on_c, 2, 71, 0
4, 32448, Note_on_c, 2, 69, 100
4, 32544, Note_on_c, 2, 69, 0
4, 32544, Note_on_c, 2, 72, 100
4, 32640, Note_on_c, 2, 72, 0
4, 32640, Note_on_c, 2, 71, 100
4, 32736, Note_on_c, 2, 71, 0
4, 32736, Note_on_c, 2, 69, 100
4, 32832, Note_on_c, 2, 69, 0
4, 32832, Note_on_c, 2, 68, 100
4, 32928, Note_on_c, 2, 68, 0
4, 32928, Note_on_c, 2, 71, 100
4, 33024, Note_on_c, 2, 71, 0
4, 33024, Note_on_c, 2, 69, 100
4, 33216, Note_on_c, 2, 69, 0
4, 33216, Note_on_c, 2, 64, 100
4, 33408, Note_on_c, 2, 64, 0
4, 33600, Note_on_c, 2, 69, 100
4, 33792, Note_on_c, 2, 69, 0
4, 33792, Note_on_c, 2, 69, 100
4, 33984, Note_on_c, 2, 69, 0
4, 33984, Note_on_c, 2, 69, 100
4, 34176, Note_on_c, 2, 69, 0
4, 34176, Note_on_c, 2, 69, 100
4, 34368, Note_on_c, 2, 69, 0
4, 34368, Note_on_c, 2, 69, 100
4, 34560, Note_on_c, 2, 69, 0
4, 34560, Note_on_c, 2, 67, 100
4, 34752, Note_on_c, 2, 67, 0
4, 34752, Note_on_c, 2, 67, 100
4, 34944, Note_on_c, 2, 67, 0
4, 34944, Note_on_c, 2, 67, 100
4, 35136, Note_on_c, 2, 67, 0
4, 35136, Note_on_c, 2, 67, 100
4, 35328, Note_on_c, 2, 67, 0
4, 35328, Note_on_c, 2, 67, 100
4, 35520, Note_on_c, 2, 67, 0
4, 35520, Note_on_c, 2, 67, 100
4, 35712, Note_on_c, 2, 67, 0
4, 35712, Note_on_c, 2, 67, 100
4, 35904, Note_on_c, 2, 67, 0
4, 35904, Note_on_c, 2, 67, 100
4, 36096, Note_on_c, 2, 67, 0
4, 36096, Note_on_c, 2, 65, 100
4, 36288, Note_on_c, 2, 65, 0
4, 36288, Note_on_c, 2, 65, 100
4, 36480, Note_on_c, 2, 65, 0
4, 36480, Note_on_c, 2, 65, 100
4, 36672, Note_on_c, 2, 65, 0
4, 36672, Note_on_c, 2, 65, 100
4, 36864, Note_on_c, 2, 65, 0
4, 36864, Note_on_c, 2, 65, 100
4, 37056, Note_on_c, 2, 65, 0
4, 37056, Note_on_c, 2, 65, 100
4, 37248, Note_on_c, 2, 65, 0
4, 37248, Note_on_c, 2, 65, 100
4, 37440, Note_on_c, 2, 65, 0
4, 37440, Note_on_c, 2, 65, 100
4, 37632, Note_on_c, 2, 65, 0
4, 37632, Note_on_c, 2, 64, 100
4, 37824, Note_on_c, 2, 64, 0
4, 39744, Note_on_c, 2, 74, 100
4, 39936, Note_on_c, 2, 74, 0
4, 39936, Note_on_c, 2, 79, 100
4, 40320, Note_on_c, 2, 79, 0
4, 40512, Note_on_c, 2, 76, 100
4, 40704, Note_on_c, 2, 76, 0
4, 40704, Note_on_c, 2, 77, 100
4, 41088, Note_on_c, 2, 77, 0
4, 41280, Note_on_c, 2, 77, 100
4, 41472, Note_on_c, 2, 77, 0
4, 41472, Note_on_c, 2, 76, 100
4, 41568, Note_on_c, 2, 76, 0
4, 41568, Note_on_c, 2, 77, 100
4, 41664, Note_on_c, 2, 77, 0
4, 41664, Note_on_c, 2, 79, 100
4, 41760, Note_on_c, 2, 79, 0
4, 41760, Note_on_c, 2, 76, 100
4, 41856, Note_on_c, 2, 76, 0
4, 41856, Note_on_c, 2, 74, 100
4, 41952, Note_on_c, 2, 74, 0
4, 41952, Note_on_c, 2, 76, 100
4, 42048, Note_on_c, 2, 76, 0
4, 42048, Note_on_c, 2, 77, 100
4, 42144, Note_on_c, 2, 77, 0
4, 42144, Note_on_c, 2, 74, 100
4, 42240, Note_on_c, 2, 74, 0
4, 42240, Note_on_c, 2, 72, 100
4, 42432, Note_on_c, 2, 72, 0
4, 42432, Note_on_c, 2, 67, 100
4, 42624, Note_on_c, 2, 67, 0
4, 42816, Note_on_c, 2, 67, 100
4, 43008, Note_on_c, 2, 67, 0
4, 43008, Note_on_c, 2, 67, 100
4, 43200, Note_on_c, 2, 67, 0
4, 43392, Note_on_c, 2, 67, 100
4, 43584, Note_on_c, 2, 67, 0
4, 43776, Note_on_c, 2, 71, 100
4, 43968, Note_on_c, 2, 71, 0
4, 44160, Note_on_c, 2, 72, 100
4, 44352, Note_on_c, 2, 72, 0
4, 44544, Note_on_c, 2, 72, 100
4, 44736, Note_on_c, 2, 72, 0
4, 44736, Note_on_c, 2, 71, 100
4, 44928, Note_on_c, 2, 71, 0
4, 44928, Note_on_c, 2, 72, 100
4, 45120, Note_on_c, 2, 72, 0
4, 45120, Note_on_c, 2, 69, 100
4, 45312, Note_on_c, 2, 69, 0
4, 45312, Note_on_c, 2, 71, 100
4, 45408, Note_on_c, 2, 71, 0
4, 45408, Note_on_c, 2, 72, 100
4, 45504, Note_on_c, 2, 72, 0
4, 45504, Note_on_c, 2, 74, 100
4, 45600, Note_on_c, 2, 74, 0
4, 45600, Note_on_c, 2, 72, 100
4, 45696, Note_on_c, 2, 72, 0
4, 45696, Note_on_c, 2, 71, 100
4, 45792, Note_on_c, 2, 71, 0
4, 45792, Note_on_c, 2, 69, 100
4, 45888, Note_on_c, 2, 69, 0
4, 45888, Note_on_c, 2, 67, 100
4, 45984, Note_on_c, 2, 67, 0
4, 45984, Note_on_c, 2, 65, 100
4, 46080, Note_on_c, 2, 65, 0
4, 46080, Note_on_c, 2, 64, 100
4, 46176, Note_on_c, 2, 64, 0
4, 46176, Note_on_c, 2, 74, 100
4, 46272, Note_on_c, 2, 74, 0
4, 46272, Note_on_c, 2, 72, 100
4, 46368, Note_on_c, 2, 72, 0
4, 46368, Note_on_c, 2, 71, 100
4, 46464, Note_on_c, 2, 71, 0
4, 46464, Note_on_c, 2, 69, 100
4, 46560, Note_on_c, 2, 69, 0
4, 46560, Note_on_c, 2, 67, 100
4, 46656, Note_on_c, 2, 67, 0
4, 46656, Note_on_c, 2, 66, 100
4, 46752, Note_on_c, 2, 66, 0
4, 46752, Note_on_c, 2, 64, 100
4, 46848, Note_on_c, 2, 64, 0
4, 46848, Note_on_c, 2, 66, 100
4, 47040, Note_on_c, 2, 66, 0
4, 47040, Note_on_c, 2, 74, 100
4, 47232, Note_on_c, 2, 74, 0
4, 48576, Note_on_c, 2, 69, 100
4, 48672, Note_on_c, 2, 69, 0
4, 48672, Note_on_c, 2, 67, 100
4, 48768, Note_on_c, 2, 67, 0
4, 48768, Note_on_c, 2, 66, 100
4, 48864, Note_on_c, 2, 66, 0
4, 48864, Note_on_c, 2, 64, 100
4, 48960, Note_on_c, 2, 64, 0
4, 48960, Note_on_c, 2, 62, 100
4, 49056, Note_on_c, 2, 62, 0
4, 49056, Note_on_c, 2, 60, 100
4, 49152, Note_on_c, 2, 60, 0
4, 49152, Note_on_c, 2, 62, 100
4, 49248, Note_on_c, 2, 62, 0
4, 49248, Note_on_c, 2, 72, 100
4, 49344, Note_on_c, 2, 72, 0
4, 49344, Note_on_c, 2, 71, 100
4, 49440, Note_on_c, 2, 71, 0
4, 49440, Note_on_c, 2, 69, 100
4, 49536, Note_on_c, 2, 69, 0
4, 49536, Note_on_c, 2, 67, 100
4, 49632, Note_on_c, 2, 67, 0
4, 49632, Note_on_c, 2, 66, 100
4, 49728, Note_on_c, 2, 66, 0
4, 49728, Note_on_c, 2, 64, 100
4, 49824, Note_on_c, 2, 64, 0
4, 49824, Note_on_c, 2, 63, 100
4, 49920, Note_on_c, 2, 63, 0
4, 49920, Note_on_c, 2, 64, 100
4, 50112, Note_on_c, 2, 64, 0
4, 50112, Note_on_c, 2, 69, 100
4, 50304, Note_on_c, 2, 69, 0
4, 51648, Note_on_c, 2, 67, 100
4, 52032, Note_on_c, 2, 67, 0
4, 52032, Note_on_c, 2, 69, 100
4, 52128, Note_on_c, 2, 69, 0
4, 52128, Note_on_c, 2, 71, 100
4, 52224, Note_on_c, 2, 71, 0
4, 52224, Note_on_c, 2, 72, 100
4, 52608, Note_on_c, 2, 72, 0
4, 52704, Note_on_c, 2, 71, 100
4, 52800, Note_on_c, 2, 71, 0
4, 52800, Note_on_c, 2, 69, 100
4, 52896, Note_on_c, 2, 69, 0
4, 52896, Note_on_c, 2, 67, 100
4, 52992, Note_on_c, 2, 67, 0
4, 52992, Note_on_c, 2, 66, 100
4, 53184, Note_on_c, 2, 66, 0
4, 53184, Note_on_c, 2, 78, 100
4, 53376, Note_on_c, 2, 78, 0
4, 53376, Note_on_c, 2, 76, 100
4, 53568, Note_on_c, 2, 76, 0
4, 53568, Note_on_c, 2, 64, 100
4, 53952, Note_on_c, 2, 64, 0
4, 53952, Note_on_c, 2, 63, 100
4, 54144, Note_on_c, 2, 63, 0
4, 54144, Note_on_c, 2, 64, 100
4, 54336, Note_on_c, 2, 64, 0
4, 54336, Note_on_c, 2, 72, 100
4, 54720, Note_on_c, 2, 72, 0
4, 54720, Note_on_c, 2, 66, 100
4, 54912, Note_on_c, 2, 66, 0
4, 54912, Note_on_c, 2, 67, 100
4, 55104, Note_on_c, 2, 67, 0
4, 55104, Note_on_c, 2, 76, 100
4, 55296, Note_on_c, 2, 76, 0
4, 55296, Note_on_c, 2, 76, 100
4, 55680, Note_on_c, 2, 76, 0
4, 55680, Note_on_c, 2, 75, 100
4, 55728, Note_on_c, 2, 75, 0
4, 55728, Note_on_c, 2, 76, 100
4, 55776, Note_on_c, 2, 76, 0
4, 55776, Note_on_c, 2, 75, 100
4, 55824, Note_on_c, 2, 75, 0
4, 55824, Note_on_c, 2, 76, 100
4, 55872, Note_on_c, 2, 76, 0
4, 55872, Note_on_c, 2, 75, 100
4, 55920, Note_on_c, 2, 75, 0
4, 55920, Note_on_c, 2, 76, 100
4, 55968, Note_on_c, 2, 76, 0
4, 55968, Note_on_c, 2, 75, 100
4, 56016, Note_on_c, 2, 75, 0
4, 56016, Note_on_c, 2, 76, 100
4, 56064, Note_on_c, 2, 76, 0
4, 56064, Note_on_c, 2, 75, 100
4, 56448, Note_on_c, 2, 75, 0
4, 56832, Note_on_c, 2, 78, 100
4, 57216, Note_on_c, 2, 78, 0
4, 57600, Note_on_c, 2, 79, 100
4, 57984, Note_on_c, 2, 79, 0
4, 58368, Note_on_c, 2, 66, 100
4, 58752, Note_on_c, 2, 66, 0
4, 59136, Note_on_c, 2, 66, 100
4, 59904, Note_on_c, 2, 66, 0
4, 60000, Note_on_c, 2, 67, 100
4, 60096, Note_on_c, 2, 67, 0
4, 60096, Note_on_c, 2, 69, 100
4, 60192, Note_on_c, 2, 69, 0
4, 60192, Note_on_c, 2, 71, 100
4, 60288, Note_on_c, 2, 71, 0
4, 60288, Note_on_c, 2, 73, 100
4, 60384, Note_on_c, 2, 73, 0
4, 60384, Note_on_c, 2, 75, 100
4, 60480, Note_on_c, 2, 75, 0
4, 60480, Note_on_c, 2, 76, 100
4, 60576, Note_on_c, 2, 76, 0
4, 60576, Note_on_c, 2, 78, 100
4, 60672, Note_on_c, 2, 78, 0
4, 60672, Note_on_c, 2, 79, 100
4, 60864, Note_on_c, 2, 79, 0
4, 60864, Note_on_c, 2, 67, 100
4, 61056, Note_on_c, 2, 67, 0
4, 61056, Note_on_c, 2, 69, 100
4, 61248, Note_on_c, 2, 69, 0
4, 61248, Note_on_c, 2, 66, 100
4, 61440, Note_on_c, 2, 66, 0
4, 61440, Note_on_c, 2, 64, 100
4, 61632, Note_on_c, 2, 64, 0
4, 61632, Note_on_c, 2, 76, 100
4, 61728, Note_on_c, 2, 76, 0
4, 61728, Note_on_c, 2, 74, 100
4, 61824, Note_on_c, 2, 74, 0
4, 61824, Note_on_c, 2, 72, 100
4, 61920, Note_on_c, 2, 72, 0
4, 61920, Note_on_c, 2, 71, 100
4, 62016, Note_on_c, 2, 71, 0
4, 62016, Note_on_c, 2, 69, 100
4, 62112, Note_on_c, 2, 69, 0
4, 62112, Note_on_c, 2, 67, 100
4, 62208, Note_on_c, 2, 67, 0
4, 62208, Note_on_c, 2, 66, 100
4, 62304, Note_on_c, 2, 66, 0
4, 62304, Note_on_c, 2, 64, 100
4, 62400, Note_on_c, 2, 64, 0
4, 62400, Note_on_c, 2, 63, 100
4, 62496, Note_on_c, 2, 63, 0
4, 62496, Note_on_c, 2, 64, 100
4, 62592, Note_on_c, 2, 64, 0
4, 62592, Note_on_c, 2, 66, 100
4, 62688, Note_on_c, 2, 66, 0
4, 62688, Note_on_c, 2, 67, 100
4, 62784, Note_on_c, 2, 67, 0
4, 62784, Note_on_c, 2, 69, 100
4, 62880, Note_on_c, 2, 69, 0
4, 62880, Note_on_c, 2, 71, 100
4, 62976, Note_on_c, 2, 71, 0
4, 62976, Note_on_c, 2, 72, 100
4, 63072, Note_on_c, 2, 72, 0
4, 63072, Note_on_c, 2, 71, 100
4, 63168, Note_on_c, 2, 71, 0
4, 63168, Note_on_c, 2, 69, 100
4, 63264, Note_on_c, 2, 69, 0
4, 63264, Note_on_c, 2, 67, 100
4, 63360, Note_on_c, 2, 67, 0
4, 63360, Note_on_c, 2, 66, 100
4, 63456, Note_on_c, 2, 66, 0
4, 63456, Note_on_c, 2, 64, 100
4, 63552, Note_on_c, 2, 64, 0
4, 63552, Note_on_c, 2, 63, 100
4, 63648, Note_on_c, 2, 63, 0
4, 63648, Note_on_c, 2, 64, 100
4, 63744, Note_on_c, 2, 64, 0
4, 63744, Note_on_c, 2, 69, 100
4, 63936, Note_on_c, 2, 69, 0
4, 63936, Note_on_c, 2, 64, 100
4, 64128, Note_on_c, 2, 64, 0
4, 64128, Note_on_c, 2, 64, 100
4, 64320, Note_on_c, 2, 64, 0
4, 64320, Note_on_c, 2, 63, 100
4, 64512, Note_on_c, 2, 63, 0
4, 64512, Note_on_c, 2, 59, 100
4, 64896, Note_on_c, 2, 59, 0
4, 65472, Note_on_c, 2, 67, 100
4, 65664, Note_on_c, 2, 67, 0
4, 65664, Note_on_c, 2, 71, 100
4, 65856, Note_on_c, 2, 71, 0
4, 66240, Note_on_c, 2, 71, 100
4, 66336, Note_on_c, 2, 71, 0
4, 66336, Note_on_c, 2, 73, 100
4, 66432, Note_on_c, 2, 73, 0
4, 66432, Note_on_c, 2, 75, 100
4, 66624, Note_on_c, 2, 75, 0
4, 67008, Note_on_c, 2, 63, 100
4, 67200, Note_on_c, 2, 63, 0
4, 67200, Note_on_c, 2, 69, 100
4, 67392, Note_on_c, 2, 69, 0
4, 67776, Note_on_c, 2, 71, 100
4, 67968, Note_on_c, 2, 71, 0
4, 67968, Note_on_c, 2, 76, 100
4, 68160, Note_on_c, 2, 76, 0
4, 68160, Note_on_c, 2, 67, 100
4, 68352, Note_on_c, 2, 67, 0
4, 68352, Note_on_c, 2, 69, 100
4, 68736, Note_on_c, 2, 69, 0
4, 68736, Note_on_c, 2, 71, 100
4, 69120, Note_on_c, 2, 71, 0
4, 69120, Note_on_c, 2, 72, 100
4, 69504, Note_on_c, 2, 72, 0
4, 69504, Note_on_c, 2, 68, 100
4, 69888, Note_on_c, 2, 68, 0
4, 69888, Note_on_c, 2, 69, 100
4, 70272, Note_on_c, 2, 69, 0
4, 70272, Note_on_c, 2, 67, 100
4, 70656, Note_on_c, 2, 67, 0
4, 70656, Note_on_c, 2, 65, 100
4, 71040, Note_on_c, 2, 65, 0
4, 71040, Note_on_c, 2, 64, 100
4, 71424, Note_on_c, 2, 64, 0
4, 71424, Note_on_c, 2, 62, 100
4, 71808, Note_on_c, 2, 62, 0
4, 71808, Note_on_c, 2, 57, 100
4, 72192, Note_on_c, 2, 57, 0
4, 72192, Note_on_c, 2, 62, 100
4, 72576, Note_on_c, 2, 62, 0
4, 72576, Note_on_c, 2, 66, 100
4, 72960, Note_on_c, 2, 66, 0
4, 72960, Note_on_c, 2, 67, 100
4, 73344, Note_on_c, 2, 67, 0
4, 73344, Note_on_c, 2, 65, 100
4, 73728, Note_on_c, 2, 65, 0
4, 73728, Note_on_c, 2, 64, 100
4, 74112, Note_on_c, 2, 64, 0
4, 74112, Note_on_c, 2, 62, 100
4, 74496, Note_on_c, 2, 62, 0
4, 74496, Note_on_c, 2, 60, 100
4, 74880, Note_on_c, 2, 60, 0
4, 74880, Note_on_c, 2, 67, 100
4, 75264, Note_on_c, 2, 67, 0
4, 75264, Note_on_c, 2, 72, 100
4, 75648, Note_on_c, 2, 72, 0
4, 75648, Note_on_c, 2, 76, 100
4, 76032, Note_on_c, 2, 76, 0
4, 76032, Note_on_c, 2, 77, 100
4, 76416, Note_on_c, 2, 77, 0
4, 78528, Note_on_c, 2, 69, 100
4, 78720, Note_on_c, 2, 69, 0
4, 78720, Note_on_c, 2, 74, 100
4, 79104, Note_on_c, 2, 74, 0
4, 79296, Note_on_c, 2, 74, 100
4, 79488, Note_on_c, 2, 74, 0
4, 79488, Note_on_c, 2, 82, 100
4, 79680, Note_on_c, 2, 82, 0
4, 79680, Note_on_c, 2, 73, 100
4, 79872, Note_on_c, 2, 73, 0
4, 79872, Note_on_c, 2, 74, 100
4, 80064, Note_on_c, 2, 74, 0
4, 80064, Note_on_c, 2, 69, 100
4, 80256, Note_on_c, 2, 69, 0
4, 80256, Note_on_c, 2, 69, 100
4, 80448, Note_on_c, 2, 69, 0
4, 80448, Note_on_c, 2, 69, 100
4, 80640, Note_on_c, 2, 69, 0
4, 80640, Note_on_c, 2, 69, 100
4, 81024, Note_on_c, 2, 69, 0
4, 81216, Note_on_c, 2, 65, 100
4, 81408, Note_on_c, 2, 65, 0
4, 81408, Note_on_c, 2, 67, 100
4, 81600, Note_on_c, 2, 67, 0
4, 81600, Note_on_c, 2, 67, 100
4, 81792, Note_on_c, 2, 67, 0
4, 81792, Note_on_c, 2, 69, 100
4, 81984, Note_on_c, 2, 69, 0
4, 81984, Note_on_c, 2, 69, 100
4, 82176, Note_on_c, 2, 69, 0
4, 82176, Note_on_c, 2, 70, 100
4, 82368, Note_on_c, 2, 70, 0
4, 82368, Note_on_c, 2, 70, 100
4, 82560, Note_on_c, 2, 70, 0
4, 82560, Note_on_c, 2, 66, 100
4, 82752, Note_on_c, 2, 66, 0
4, 82752, Note_on_c, 2, 66, 100
4, 82944, Note_on_c, 2, 66, 0
4, 82944, Note_on_c, 2, 67, 100
4, 83136, Note_on_c, 2, 67, 0
4, 83136, Note_on_c, 2, 70, 100
4, 83328, Note_on_c, 2, 70, 0
4, 83328, Note_on_c, 2, 74, 100
4, 83520, Note_on_c, 2, 74, 0
4, 83520, Note_on_c, 2, 79, 100
4, 83712, Note_on_c, 2, 79, 0
4, 83712, Note_on_c, 2, 76, 100
4, 83904, Note_on_c, 2, 76, 0
4, 83904, Note_on_c, 2, 72, 100
4, 84096, Note_on_c, 2, 72, 0
4, 84096, Note_on_c, 2, 67, 100
4, 84288, Note_on_c, 2, 67, 0
4, 84288, Note_on_c, 2, 67, 100
4, 84480, Note_on_c, 2, 67, 0
4, 84480, Note_on_c, 2, 69, 100
4, 84672, Note_on_c, 2, 69, 0
4, 84672, Note_on_c, 2, 69, 100
4, 84864, Note_on_c, 2, 69, 0
4, 84864, Note_on_c, 2, 64, 100
4, 85056, Note_on_c, 2, 64, 0
4, 85056, Note_on_c, 2, 64, 100
4, 85248, Note_on_c, 2, 64, 0
4, 85248, Note_on_c, 2, 65, 100
4, 85440, Note_on_c, 2, 65, 0
4, 85440, Note_on_c, 2, 69, 100
4, 85632, Note_on_c, 2, 69, 0
4, 85632, Note_on_c, 2, 72, 100
4, 85824, Note_on_c, 2, 72, 0
4, 85824, Note_on_c, 2, 77, 100
4, 86016, Note_on_c, 2, 77, 0
4, 86016, Note_on_c, 2, 74, 100
4, 86208, Note_on_c, 2, 74, 0
4, 86208, Note_on_c, 2, 70, 100
4, 86400, Note_on_c, 2, 70, 0
4, 86400, Note_on_c, 2, 70, 100
4, 86592, Note_on_c, 2, 70, 0
4, 86592, Note_on_c, 2, 70, 100
4, 86784, Note_on_c, 2, 70, 0
4, 86784, Note_on_c, 2, 70, 100
4, 86976, Note_on_c, 2, 70, 0
4, 86976, Note_on_c, 2, 70, 100
4, 87168, Note_on_c, 2, 70, 0
4, 87168, Note_on_c, 2, 70, 100
4, 87360, Note_on_c, 2, 70, 0
4, 87360, Note_on_c, 2, 70, 100
4, 87552, Note_on_c, 2, 70, 0
4, 87552, Note_on_c, 2, 70, 100
4, 87744, Note_on_c, 2, 70, 0
4, 87744, Note_on_c, 2, 70, 100
4, 87936, Note_on_c, 2, 70, 0
4, 87936, Note_on_c, 2, 64, 100
4, 88128, Note_on_c, 2, 64, 0
4, 88128, Note_on_c, 2, 67, 100
4, 88320, Note_on_c, 2, 67, 0
4, 88320, Note_on_c, 2, 69, 100
4, 88512, Note_on_c, 2, 69, 0
4, 88512, Note_on_c, 2, 69, 100
4, 88704, Note_on_c, 2, 69, 0
4, 88704, Note_on_c, 2, 69, 100
4, 88896, Note_on_c, 2, 69, 0
4, 88896, Note_on_c, 2, 69, 100
4, 89088, Note_on_c, 2, 69, 0
4, 89088, Note_on_c, 2, 69, 100
4, 89280, Note_on_c, 2, 69, 0
4, 89280, Note_on_c, 2, 69, 100
4, 89472, Note_on_c, 2, 69, 0
4, 89472, Note_on_c, 2, 69, 100
4, 89664, Note_on_c, 2, 69, 0
4, 89664, Note_on_c, 2, 69, 100
4, 89856, Note_on_c, 2, 69, 0
4, 89856, Note_on_c, 2, 69, 100
4, 90240, Note_on_c, 2, 69, 0
4, 90432, Note_on_c, 2, 74, 100
4, 90624, Note_on_c, 2, 74, 0
4, 90624, Note_on_c, 2, 74, 100
4, 91008, Note_on_c, 2, 74, 0
4, 91968, Note_on_c, 2, 72, 100
4, 92160, Note_on_c, 2, 72, 0
4, 92160, Note_on_c, 2, 72, 100
4, 92544, Note_on_c, 2, 72, 0
4, 93504, Note_on_c, 2, 71, 100
4, 93696, Note_on_c, 2, 71, 0
4, 93696, Note_on_c, 2, 71, 100
4, 93888, Note_on_c, 2, 71, 0
4, 93888, Note_on_c, 2, 69, 100
4, 94080, Note_on_c, 2, 69, 0
4, 94080, Note_on_c, 2, 68, 100
4, 94272, Note_on_c, 2, 68, 0
4, 94272, Note_on_c, 2, 71, 100
4, 94464, Note_on_c, 2, 71, 0
4, 94464, Note_on_c, 2, 76, 100
4, 94848, Note_on_c, 2, 76, 0
4, 95040, Note_on_c, 2, 72, 100
4, 95232, Note_on_c, 2, 72, 0
4, 95232, Note_on_c, 2, 74, 100
4, 95616, Note_on_c, 2, 74, 0
4, 95808, Note_on_c, 2, 71, 100
4, 96000, Note_on_c, 2, 71, 0
4, 96000, Note_on_c, 2, 72, 100
4, 96096, Note_on_c, 2, 72, 0
4, 96096, Note_on_c, 2, 74, 100
4, 96192, Note_on_c, 2, 74, 0
4, 96192, Note_on_c, 2, 76, 100
4, 96288, Note_on_c, 2, 76, 0
4, 96288, Note_on_c, 2, 72, 100
4, 96384, Note_on_c, 2, 72, 0
4, 96384, Note_on_c, 2, 71, 100
4, 96480, Note_on_c, 2, 71, 0
4, 96480, Note_on_c, 2, 72, 100
4, 96576, Note_on_c, 2, 72, 0
4, 96576, Note_on_c, 2, 74, 100
4, 96672, Note_on_c, 2, 74, 0
4, 96672, Note_on_c, 2, 71, 100
4, 96768, Note_on_c, 2, 71, 0
4, 96768, Note_on_c, 2, 69, 100
4, 96960, Note_on_c, 2, 69, 0
4, 96960, Note_on_c, 2, 64, 100
4, 97152, Note_on_c, 2, 64, 0
4, 97728, Note_on_c, 2, 57, 100
4, 97920, Note_on_c, 2, 57, 0
4, 97920, Note_on_c, 2, 57, 100
4, 98112, Note_on_c, 2, 57, 0
4, 98112, Note_on_c, 2, 57, 100
4, 98304, Note_on_c, 2, 57, 0
4, 98304, Note_on_c, 2, 57, 100
4, 98496, Note_on_c, 2, 57, 0
4, 98496, Note_on_c, 2, 57, 100
4, 98688, Note_on_c, 2, 57, 0
4, 98688, Note_on_c, 2, 57, 100
4, 98880, Note_on_c, 2, 57, 0
4, 98880, Note_on_c, 2, 57, 100
4, 99072, Note_on_c, 2, 57, 0
4, 99072, Note_on_c, 2, 57, 100
4, 99264, Note_on_c, 2, 57, 0
4, 99264, Note_on_c, 2, 57, 100
4, 99456, Note_on_c, 2, 57, 0
4, 99456, Note_on_c, 2, 57, 100
4, 99648, Note_on_c, 2, 57, 0
4, 99648, Note_on_c, 2, 57, 100
4, 99840, Note_on_c, 2, 57, 0
4, 99840, Note_on_c, 2, 62, 100
4, 100032, Note_on_c, 2, 62, 0
4, 100032, Note_on_c, 2, 62, 100
4, 100224, Note_on_c, 2, 62, 0
4, 100224, Note_on_c, 2, 62, 100
4, 100416, Note_on_c, 2, 62, 0
4, 100416, Note_on_c, 2, 62, 100
4, 100608, Note_on_c, 2, 62, 0
4, 100608, Note_on_c, 2, 62, 100
4, 100800, Note_on_c, 2, 62, 0
4, 100800, Note_on_c, 2, 62, 100
4, 100992, Note_on_c, 2, 62, 0
4, 100992, Note_on_c, 2, 62, 100
4, 101184, Note_on_c, 2, 62, 0
4, 101184, Note_on_c, 2, 62, 100
4, 101376, Note_on_c, 2, 62, 0
4, 101376, Note_on_c, 2, 67, 100
4, 101568, Note_on_c, 2, 67, 0
4, 101568, Note_on_c, 2, 67, 100
4, 101760, Note_on_c, 2, 67, 0
4, 101760, Note_on_c, 2, 67, 100
4, 101952, Note_on_c, 2, 67, 0
4, 101952, Note_on_c, 2, 67, 100
4, 102144, Note_on_c, 2, 67, 0
4, 102144, Note_on_c, 2, 67, 100
4, 102528, Note_on_c, 2, 67, 0
4, 102528, Note_on_c, 2, 73, 100
4, 102912, Note_on_c, 2, 73, 0
4, 102912, Note_on_c, 2, 72, 100
4, 103296, Note_on_c, 2, 72, 0
4, 103296, Note_on_c, 2, 70, 100
4, 103680, Note_on_c, 2, 70, 0
4, 103680, Note_on_c, 2, 68, 100
4, 103872, Note_on_c, 2, 68, 0
4, 103872, Note_on_c, 2, 68, 100
4, 104064, Note_on_c, 2, 68, 0
4, 104064, Note_on_c, 2, 60, 100
4, 104256, Note_on_c, 2, 60, 0
4, 104256, Note_on_c, 2, 60, 100
4, 104448, Note_on_c, 2, 60, 0
4, 104448, Note_on_c, 2, 67, 100
4, 104832, Note_on_c, 2, 67, 0
4, 105216, Note_on_c, 2, 67, 100
4, 105408, Note_on_c, 2, 67, 0
4, 105408, Note_on_c, 2, 67, 100
4, 105600, Note_on_c, 2, 67, 0
4, 105600, Note_on_c, 2, 64, 100
4, 105792, Note_on_c, 2, 64, 0
4, 105792, Note_on_c, 2, 64, 100
4, 105984, Note_on_c, 2, 64, 0
4, 105984, Note_on_c, 2, 62, 100
4, 106368, Note_on_c, 2, 62, 0
4, 106752, Note_on_c, 2, 62, 100
4, 106944, Note_on_c, 2, 62, 0
4, 106944, Note_on_c, 2, 62, 100
4, 107136, Note_on_c, 2, 62, 0
4, 107136, Note_on_c, 2, 59, 100
4, 107328, Note_on_c, 2, 59, 0
4, 107328, Note_on_c, 2, 59, 100
4, 107520, Note_on_c, 2, 59, 0
4, 107520, Note_on_c, 2, 57, 100
4, 107904, Note_on_c, 2, 57, 0
4, 109632, Note_on_c, 2, 71, 100
4, 109824, Note_on_c, 2, 71, 0
4, 109824, Note_on_c, 2, 76, 100
4, 110208, Note_on_c, 2, 76, 0
4, 110400, Note_on_c, 2, 72, 100
4, 110592, Note_on_c, 2, 72, 0
4, 110592, Note_on_c, 2, 74, 100
4, 110976, Note_on_c, 2, 74, 0
4, 111168, Note_on_c, 2, 71, 100
4, 111360, Note_on_c, 2, 71, 0
4, 111360, Note_on_c, 2, 72, 100
4, 111456, Note_on_c, 2, 72, 0
4, 111456, Note_on_c, 2, 74, 100
4, 111552, Note_on_c, 2, 74, 0
4, 111552, Note_on_c, 2, 76, 100
4, 111648, Note_on_c, 2, 76, 0
4, 111648, Note_on_c, 2, 72, 100
4, 111744, Note_on_c, 2, 72, 0
4, 111744, Note_on_c, 2, 71, 100
4, 111840, Note_on_c, 2, 71, 0
4, 111840, Note_on_c, 2, 72, 100
4, 111936, Note_on_c, 2, 72, 0
4, 111936, Note_on_c, 2, 74, 100
4, 112032, Note_on_c, 2, 74, 0
4, 112032, Note_on_c, 2, 71, 100
4, 112128, Note_on_c, 2, 71, 0
4, 112128, Note_on_c, 2, 69, 100
4, 112320, Note_on_c, 2, 69, 0
4, 112320, Note_on_c, 2, 76, 100
4, 112416, Note_on_c, 2, 76, 0
4, 112416, Note_on_c, 2, 74, 100
4, 112512, Note_on_c, 2, 74, 0
4, 112512, Note_on_c, 2, 72, 100
4, 112608, Note_on_c, 2, 72, 0
4, 112608, Note_on_c, 2, 71, 100
4, 112704, Note_on_c, 2, 71, 0
4, 112704, Note_on_c, 2, 69, 100
4, 112800, Note_on_c, 2, 69, 0
4, 112800, Note_on_c, 2, 67, 100
4, 112896, Note_on_c, 2, 67, 0
4, 112896, Note_on_c, 2, 69, 100
4, 112992, Note_on_c, 2, 69, 0
4, 112992, Note_on_c, 2, 79, 100
4, 113088, Note_on_c, 2, 79, 0
4, 113088, Note_on_c, 2, 77, 100
4, 113184, Note_on_c, 2, 77, 0
4, 113184, Note_on_c, 2, 76, 100
4, 113280, Note_on_c, 2, 76, 0
4, 113280, Note_on_c, 2, 74, 100
4, 113376, Note_on_c, 2, 74, 0
4, 113376, Note_on_c, 2, 72, 100
4, 113472, Note_on_c, 2, 72, 0
4, 113472, Note_on_c, 2, 71, 100
4, 113568, Note_on_c, 2, 71, 0
4, 113568, Note_on_c, 2, 69, 100
4, 113664, Note_on_c, 2, 69, 0
4, 113664, Note_on_c, 2, 71, 100
4, 113856, Note_on_c, 2, 71, 0
4, 113856, Note_on_c, 2, 79, 100
4, 114048, Note_on_c, 2, 79, 0
4, 115392, Note_on_c, 2, 74, 100
4, 115488, Note_on_c, 2, 74, 0
4, 115488, Note_on_c, 2, 72, 100
4, 115584, Note_on_c, 2, 72, 0
4, 115584, Note_on_c, 2, 71, 100
4, 115680, Note_on_c, 2, 71, 0
4, 115680, Note_on_c, 2, 69, 100
4, 115776, Note_on_c, 2, 69, 0
4, 115776, Note_on_c, 2, 67, 100
4, 115872, Note_on_c, 2, 67, 0
4, 115872, Note_on_c, 2, 65, 100
4, 115968, Note_on_c, 2, 65, 0
4, 115968, Note_on_c, 2, 67, 100
4, 116064, Note_on_c, 2, 67, 0
4, 116064, Note_on_c, 2, 77, 100
4, 116160, Note_on_c, 2, 77, 0
4, 116160, Note_on_c, 2, 76, 100
4, 116256, Note_on_c, 2, 76, 0
4, 116256, Note_on_c, 2, 74, 100
4, 116352, Note_on_c, 2, 74, 0
4, 116352, Note_on_c, 2, 72, 100
4, 116448, Note_on_c, 2, 72, 0
4, 116448, Note_on_c, 2, 71, 100
4, 116544, Note_on_c, 2, 71, 0
4, 116544, Note_on_c, 2, 69, 100
4, 116640, Note_on_c, 2, 69, 0
4, 116640, Note_on_c, 2, 68, 100
4, 116736, Note_on_c, 2, 68, 0
4, 116736, Note_on_c, 2, 69, 100
4, 116928, Note_on_c, 2, 69, 0
4, 116928, Note_on_c, 2, 77, 100
4, 117120, Note_on_c, 2, 77, 0
4, 118464, Note_on_c, 2, 72, 100
4, 118560, Note_on_c, 2, 72, 0
4, 118560, Note_on_c, 2, 71, 100
4, 118656, Note_on_c, 2, 71, 0
4, 118656, Note_on_c, 2, 69, 100
4, 118752, Note_on_c, 2, 69, 0
4, 118752, Note_on_c, 2, 67, 100
4, 118848, Note_on_c, 2, 67, 0
4, 118848, Note_on_c, 2, 65, 100
4, 118944, Note_on_c, 2, 65, 0
4, 118944, Note_on_c, 2, 64, 100
4, 119040, Note_on_c, 2, 64, 0
4, 119040, Note_on_c, 2, 65, 100
4, 119424, Note_on_c, 2, 65, 0
4, 119520, Note_on_c, 2, 64, 100
4, 119616, Note_on_c, 2, 64, 0
4, 119616, Note_on_c, 2, 62, 100
4, 119712, Note_on_c, 2, 62, 0
4, 119712, Note_on_c, 2, 60, 100
4, 119808, Note_on_c, 2, 60, 0
4, 119808, Note_on_c, 2, 59, 100
4, 120000, Note_on_c, 2, 59, 0
4, 120000, Note_on_c, 2, 71, 100
4, 120192, Note_on_c, 2, 71, 0
4, 120192, Note_on_c, 2, 69, 100
4, 120384, Note_on_c, 2, 69, 0
4, 120384, Note_on_c, 2, 57, 100
4, 120768, Note_on_c, 2, 57, 0
4, 120768, Note_on_c, 2, 64, 100
4, 120960, Note_on_c, 2, 64, 0
4, 120960, Note_on_c, 2, 62, 100
4, 121152, Note_on_c, 2, 62, 0
4, 121152, Note_on_c, 2, 74, 100
4, 121536, Note_on_c, 2, 74, 0
4, 121536, Note_on_c, 2, 71, 100
4, 121728, Note_on_c, 2, 71, 0
4, 121728, Note_on_c, 2, 72, 100
4, 121920, Note_on_c, 2, 72, 0
4, 121920, Note_on_c, 2, 76, 100
4, 122112, Note_on_c, 2, 76, 0
4, 122112, Note_on_c, 2, 76, 100
4, 122496, Note_on_c, 2, 76, 0
4, 122496, Note_on_c, 2, 76, 100
4, 123264, Note_on_c, 2, 76, 0
4, 123648, Note_on_c, 2, 71, 100
4, 124032, Note_on_c, 2, 71, 0
4, 124416, Note_on_c, 2, 74, 100
4, 124800, Note_on_c, 2, 74, 0
4, 125184, Note_on_c, 2, 71, 100
4, 125568, Note_on_c, 2, 71, 0
4, 125952, Note_on_c, 2, 71, 100
4, 126720, Note_on_c, 2, 71, 0
4, 126816, Note_on_c, 2, 72, 100
4, 126912, Note_on_c, 2, 72, 0
4, 126912, Note_on_c, 2, 74, 100
4, 127008, Note_on_c, 2, 74, 0
4, 127008, Note_on_c, 2, 76, 100
4, 127104, Note_on_c, 2, 76, 0
4, 127104, Note_on_c, 2, 78, 100
4, 127200, Note_on_c, 2, 78, 0
4, 127200, Note_on_c, 2, 80, 100
4, 127296, Note_on_c, 2, 80, 0
4, 127296, Note_on_c, 2, 81, 100
4, 127392, Note_on_c, 2, 81, 0
4, 127392, Note_on_c, 2, 83, 100
4, 127488, Note_on_c, 2, 83, 0
4, 127488, Note_on_c, 2, 76, 100
4, 127680, Note_on_c, 2, 76, 0
4, 127680, Note_on_c, 2, 72, 100
4, 127872, Note_on_c, 2, 72, 0
4, 127872, Note_on_c, 2, 74, 100
4, 128064, Note_on_c, 2, 74, 0
4, 128064, Note_on_c, 2, 71, 100
4, 128256, Note_on_c, 2, 71, 0
4, 128256, Note_on_c, 2, 69, 100
4, 128448, Note_on_c, 2, 69, 0
4, 128448, Note_on_c, 2, 81, 100
4, 128544, Note_on_c, 2, 81, 0
4, 128544, Note_on_c, 2, 79, 100
4, 128640, Note_on_c, 2, 79, 0
4, 128640, Note_on_c, 2, 77, 100
4, 128736, Note_on_c, 2, 77, 0
4, 128736, Note_on_c, 2, 76, 100
4, 128832, Note_on_c, 2, 76, 0
4, 128832, Note_on_c, 2, 74, 100
4, 128928, Note_on_c, 2, 74, 0
4, 128928, Note_on_c, 2, 72, 100
4, 129024, Note_on_c, 2, 72, 0
4, 129024, Note_on_c, 2, 71, 100
4, 129120, Note_on_c, 2, 71, 0
4, 129120, Note_on_c, 2, 69, 100
4, 129216, Note_on_c, 2, 69, 0
4, 129216, Note_on_c, 2, 68, 100
4, 129312, Note_on_c, 2, 68, 0
4, 129312, Note_on_c, 2, 69, 100
4, 129408, Note_on_c, 2, 69, 0
4, 129408, Note_on_c, 2, 71, 100
4, 129504, Note_on_c, 2, 71, 0
4, 129504, Note_on_c, 2, 72, 100
4, 129600, Note_on_c, 2, 72, 0
4, 129600, Note_on_c, 2, 74, 100
4, 129696, Note_on_c, 2, 74, 0
4, 129696, Note_on_c, 2, 76, 100
4, 129792, Note_on_c, 2, 76, 0
4, 129792, Note_on_c, 2, 77, 100
4, 129888, Note_on_c, 2, 77, 0
4, 129888, Note_on_c, 2, 76, 100
4, 129984, Note_on_c, 2, 76, 0
4, 129984, Note_on_c, 2, 74, 100
4, 130080, Note_on_c, 2, 74, 0
4, 130080, Note_on_c, 2, 72, 100
4, 130176, Note_on_c, 2, 72, 0
4, 130176, Note_on_c, 2, 71, 100
4, 130272, Note_on_c, 2, 71, 0
4, 130272, Note_on_c, 2, 69, 100
4, 130368, Note_on_c, 2, 69, 0
4, 130368, Note_on_c, 2, 68, 100
4, 130464, Note_on_c, 2, 68, 0
4, 130464, Note_on_c, 2, 69, 100
4, 130560, Note_on_c, 2, 69, 0
4, 130560, Note_on_c, 2, 74, 100
4, 130752, Note_on_c, 2, 74, 0
4, 130752, Note_on_c, 2, 69, 100
4, 130944, Note_on_c, 2, 69, 0
4, 130944, Note_on_c, 2, 69, 100
4, 131136, Note_on_c, 2, 69, 0
4, 131136, Note_on_c, 2, 68, 100
4, 131328, Note_on_c, 2, 68, 0
4, 131328, Note_on_c, 2, 69, 100
4, 131904, Note_on_c, 2, 69, 0
4, 131904, End_track
5, 0, Start_track
5, 0, MIDI_port, 0
5, 0, Title_t, "Viola"
5, 0, Program_c, 3, 41
5, 0, Control_c, 3, 7, 105
5, 0, Control_c, 3, 10, 44
5, 576, Note_on_c, 3, 69, 100
5, 768, Note_on_c, 3, 69, 0
5, 768, Note_on_c, 3, 72, 100
5, 1152, Note_on_c, 3, 72, 0
5, 1344, Note_on_c, 3, 69, 100
5, 1536, Note_on_c, 3, 69, 0
5, 1536, Note_on_c, 3, 62, 100
5, 1920, Note_on_c, 3, 62, 0
5, 2112, Note_on_c, 3, 62, 100
5, 2304, Note_on_c, 3, 62, 0
5, 2304, Note_on_c, 3, 57, 100
5, 2496, Note_on_c, 3, 57, 0
5, 2496, Note_on_c, 3, 64, 100
5, 2688, Note_on_c, 3, 64, 0
5, 2688, Note_on_c, 3, 56, 100
5, 2880, Note_on_c, 3, 56, 0
5, 2880, Note_on_c, 3, 64, 100
5, 3072, Note_on_c, 3, 64, 0
5, 3072, Note_on_c, 3, 64, 100
5, 3264, Note_on_c, 3, 64, 0
5, 3264, Note_on_c, 3, 60, 100
5, 3456, Note_on_c, 3, 60, 0
5, 3648, Note_on_c, 3, 60, 100
5, 3840, Note_on_c, 3, 60, 0
5, 3840, Note_on_c, 3, 59, 100
5, 4032, Note_on_c, 3, 59, 0
5, 4224, Note_on_c, 3, 57, 100
5, 4416, Note_on_c, 3, 57, 0
5, 4608, Note_on_c, 3, 62, 100
5, 4800, Note_on_c, 3, 62, 0
5, 4992, Note_on_c, 3, 60, 100
5, 5184, Note_on_c, 3, 60, 0
5, 5376, Note_on_c, 3, 57, 100
5, 5568, Note_on_c, 3, 57, 0
5, 5568, Note_on_c, 3, 59, 100
5, 5856, Note_on_c, 3, 59, 0
5, 5856, Note_on_c, 3, 57, 100
5, 5952, Note_on_c, 3, 57, 0
5, 5952, Note_on_c, 3, 56, 100
5, 6048, Note_on_c, 3, 56, 0
5, 6048, Note_on_c, 3, 57, 100
5, 6144, Note_on_c, 3, 57, 0
5, 6144, Note_on_c, 3, 59, 100
5, 6336, Note_on_c, 3, 59, 0
5, 6336, Note_on_c, 3, 71, 100
5, 6528, Note_on_c, 3, 71, 0
5, 6528, Note_on_c, 3, 68, 100
5, 6720, Note_on_c, 3, 68, 0
5, 6720, Note_on_c, 3, 64, 100
5, 7104, Note_on_c, 3, 64, 0
5, 7104, Note_on_c, 3, 69, 100
5, 7200, Note_on_c, 3, 69, 0
5, 7200, Note_on_c, 3, 71, 100
5, 7296, Note_on_c, 3, 71, 0
5, 7296, Note_on_c, 3, 72, 100
5, 7488, Note_on_c, 3, 72, 0
5, 7488, Note_on_c, 3, 60, 100
5, 7680, Note_on_c, 3, 60, 0
5, 7680, Note_on_c, 3, 57, 100
5, 7872, Note_on_c, 3, 57, 0
5, 7872, Note_on_c, 3, 69, 100
5, 8064, Note_on_c, 3, 69, 0
5, 8064, Note_on_c, 3, 66, 100
5, 8256, Note_on_c, 3, 66, 0
5, 8256, Note_on_c, 3, 62, 100
5, 8640, Note_on_c, 3, 62, 0
5, 8640, Note_on_c, 3, 67, 100
5, 8736, Note_on_c, 3, 67, 0
5, 8736, Note_on_c, 3, 69, 100
5, 8832, Note_on_c, 3, 69, 0
5, 8832, Note_on_c, 3, 71, 100
5, 9024, Note_on_c, 3, 71, 0
5, 9024, Note_on_c, 3, 59, 100
5, 9216, Note_on_c, 3, 59, 0
5, 9216, Note_on_c, 3, 55, 100
5, 9408, Note_on_c, 3, 55, 0
5, 9408, Note_on_c, 3, 64, 100
5, 9600, Note_on_c, 3, 64, 0
5, 9600, Note_on_c, 3, 67, 100
5, 9792, Note_on_c, 3, 67, 0
5, 9792, Note_on_c, 3, 72, 100
5, 9984, Note_on_c, 3, 72, 0
5, 9984, Note_on_c, 3, 66, 100
5, 10176, Note_on_c, 3, 66, 0
5, 10176, Note_on_c, 3, 69, 100
5, 10368, Note_on_c, 3, 69, 0
5, 10368, Note_on_c, 3, 63, 100
5, 10560, Note_on_c, 3, 63, 0
5, 10560, Note_on_c, 3, 66, 100
5, 10944, Note_on_c, 3, 66, 0
5, 10944, Note_on_c, 3, 59, 100
5, 11136, Note_on_c, 3, 59, 0
5, 11136, Note_on_c, 3, 71, 100
5, 11328, Note_on_c, 3, 71, 0
5, 11328, Note_on_c, 3, 67, 100
5, 11520, Note_on_c, 3, 67, 0
5, 11520, Note_on_c, 3, 64, 100
5, 11712, Note_on_c, 3, 64, 0
5, 11712, Note_on_c, 3, 67, 100
5, 11904, Note_on_c, 3, 67, 0
5, 11904, Note_on_c, 3, 69, 100
5, 12000, Note_on_c, 3, 69, 0
5, 12000, Note_on_c, 3, 71, 100
5, 12096, Note_on_c, 3, 71, 0
5, 12096, Note_on_c, 3, 69, 100
5, 12192, Note_on_c, 3, 69, 0
5, 12192, Note_on_c, 3, 67, 100
5, 12288, Note_on_c, 3, 67, 0
5, 12288, Note_on_c, 3, 66, 100
5, 12480, Note_on_c, 3, 66, 0
5, 12480, Note_on_c, 3, 69, 100
5, 12672, Note_on_c, 3, 69, 0
5, 12672, Note_on_c, 3, 67, 100
5, 12864, Note_on_c, 3, 67, 0
5, 12864, Note_on_c, 3, 71, 100
5, 13056, Note_on_c, 3, 71, 0
5, 13056, Note_on_c, 3, 71, 100
5, 13440, Note_on_c, 3, 71, 0
5, 13440, Note_on_c, 3, 71, 100
5, 13824, Note_on_c, 3, 71, 0
5, 13824, Note_on_c, 3, 72, 100
5, 14208, Note_on_c, 3, 72, 0
5, 14400, Note_on_c, 3, 71, 100
5, 14592, Note_on_c, 3, 71, 0
5, 14592, Note_on_c, 3, 59, 100
5, 14784, Note_on_c, 3, 59, 0
5, 14784, Note_on_c, 3, 60, 100
5, 14976, Note_on_c, 3, 60, 0
5, 14976, Note_on_c, 3, 60, 100
5, 15168, Note_on_c, 3, 60, 0
5, 15168, Note_on_c, 3, 59, 100
5, 15360, Note_on_c, 3, 59, 0
5, 15360, Note_on_c, 3, 59, 100
5, 15552, Note_on_c, 3, 59, 0
5, 15552, Note_on_c, 3, 57, 100
5, 15744, Note_on_c, 3, 57, 0
5, 15936, Note_on_c, 3, 64, 100
5, 16128, Note_on_c, 3, 64, 0
5, 16128, Note_on_c, 3, 66, 100
5, 16320, Note_on_c, 3, 66, 0
5, 16320, Note_on_c, 3, 69, 100
5, 16512, Note_on_c, 3, 69, 0
5, 16704, Note_on_c, 3, 66, 100
5, 16896, Note_on_c, 3, 66, 0
5, 16896, Note_on_c, 3, 63, 100
5, 17088, Note_on_c, 3, 63, 0
5, 17088, Note_on_c, 3, 66, 100
5, 17280, Note_on_c, 3, 66, 0
5, 17472, Note_on_c, 3, 57, 100
5, 17856, Note_on_c, 3, 57, 0
5, 17856, Note_on_c, 3, 64, 100
5, 18048, Note_on_c, 3, 64, 0
5, 18048, Note_on_c, 3, 64, 100
5, 18240, Note_on_c, 3, 64, 0
5, 18240, Note_on_c, 3, 59, 100
5, 18432, Note_on_c, 3, 59, 0
5, 18432, Note_on_c, 3, 56, 100
5, 18816, Note_on_c, 3, 56, 0
5, 19392, Note_on_c, 3, 69, 100
5, 19584, Note_on_c, 3, 69, 0
5, 19584, Note_on_c, 3, 72, 100
5, 19776, Note_on_c, 3, 72, 0
5, 20160, Note_on_c, 3, 71, 100
5, 20256, Note_on_c, 3, 71, 0
5, 20256, Note_on_c, 3, 72, 100
5, 20352, Note_on_c, 3, 72, 0
5, 20352, Note_on_c, 3, 74, 100
5, 20544, Note_on_c, 3, 74, 0
5, 20928, Note_on_c, 3, 71, 100
5, 21120, Note_on_c, 3, 71, 0
5, 21120, Note_on_c, 3, 68, 100
5, 21312, Note_on_c, 3, 68, 0
5, 21696, Note_on_c, 3, 72, 100
5, 21792, Note_on_c, 3, 72, 0
5, 21792, Note_on_c, 3, 74, 100
5, 21888, Note_on_c, 3, 74, 0
5, 21888, Note_on_c, 3, 76, 100
5, 22080, Note_on_c, 3, 76, 0
5, 25152, Note_on_c, 3, 68, 100
5, 25344, Note_on_c, 3, 68, 0
5, 25344, Note_on_c, 3, 64, 100
5, 25728, Note_on_c, 3, 64, 0
5, 25920, Note_on_c, 3, 69, 100
5, 26112, Note_on_c, 3, 69, 0
5, 26112, Note_on_c, 3, 62, 100
5, 26496, Note_on_c, 3, 62, 0
5, 26688, Note_on_c, 3, 65, 100
5, 26880, Note_on_c, 3, 65, 0
5, 26880, Note_on_c, 3, 62, 100
5, 27264, Note_on_c, 3, 62, 0
5, 27456, Note_on_c, 3, 67, 100
5, 27648, Note_on_c, 3, 67, 0
5, 27648, Note_on_c, 3, 60, 100
5, 28032, Note_on_c, 3, 60, 0
5, 28224, Note_on_c, 3, 64, 100
5, 28416, Note_on_c, 3, 64, 0
5, 28416, Note_on_c, 3, 60, 100
5, 28800, Note_on_c, 3, 60, 0
5, 28992, Note_on_c, 3, 65, 100
5, 29184, Note_on_c, 3, 65, 0
5, 29184, Note_on_c, 3, 59, 100
5, 29568, Note_on_c, 3, 59, 0
5, 29760, Note_on_c, 3, 62, 100
5, 29952, Note_on_c, 3, 62, 0
5, 29952, Note_on_c, 3, 59, 100
5, 30336, Note_on_c, 3, 59, 0
5, 30528, Note_on_c, 3, 68, 100
5, 30720, Note_on_c, 3, 68, 0
5, 30720, Note_on_c, 3, 64, 100
5, 31104, Note_on_c, 3, 64, 0
5, 31296, Note_on_c, 3, 72, 100
5, 31488, Note_on_c, 3, 72, 0
5, 31488, Note_on_c, 3, 74, 100
5, 31872, Note_on_c, 3, 74, 0
5, 32064, Note_on_c, 3, 71, 100
5, 32256, Note_on_c, 3, 71, 0
5, 32256, Note_on_c, 3, 64, 100
5, 32448, Note_on_c, 3, 64, 0
5, 32448, Note_on_c, 3, 64, 100
5, 32640, Note_on_c, 3, 64, 0
5, 32640, Note_on_c, 3, 64, 100
5, 32832, Note_on_c, 3, 64, 0
5, 32832, Note_on_c, 3, 64, 100
5, 33024, Note_on_c, 3, 64, 0
5, 33024, Note_on_c, 3, 64, 100
5, 33216, Note_on_c, 3, 64, 0
5, 33216, Note_on_c, 3, 60, 100
5, 33408, Note_on_c, 3, 60, 0
5, 33600, Note_on_c, 3, 64, 100
5, 33792, Note_on_c, 3, 64, 0
5, 33792, Note_on_c, 3, 69, 100
5, 33984, Note_on_c, 3, 69, 0
5, 33984, Note_on_c, 3, 69, 100
5, 34176, Note_on_c, 3, 69, 0
5, 34176, Note_on_c, 3, 69, 100
5, 34368, Note_on_c, 3, 69, 0
5, 34368, Note_on_c, 3, 69, 100
5, 34560, Note_on_c, 3, 69, 0
5, 34560, Note_on_c, 3, 67, 100
5, 34752, Note_on_c, 3, 67, 0
5, 34752, Note_on_c, 3, 67, 100
5, 34944, Note_on_c, 3, 67, 0
5, 34944, Note_on_c, 3, 67, 100
5, 35136, Note_on_c, 3, 67, 0
5, 35136, Note_on_c, 3, 67, 100
5, 35328, Note_on_c, 3, 67, 0
5, 35328, Note_on_c, 3, 67, 100
5, 35520, Note_on_c, 3, 67, 0
5, 35520, Note_on_c, 3, 67, 100
5, 35712, Note_on_c, 3, 67, 0
5, 35712, Note_on_c, 3, 67, 100
5, 35904, Note_on_c, 3, 67, 0
5, 35904, Note_on_c, 3, 67, 100
5, 36096, Note_on_c, 3, 67, 0
5, 36096, Note_on_c, 3, 65, 100
5, 36288, Note_on_c, 3, 65, 0
5, 36288, Note_on_c, 3, 65, 100
5, 36480, Note_on_c, 3, 65, 0
5, 36480, Note_on_c, 3, 65, 100
5, 36672, Note_on_c, 3, 65, 0
5, 36672, Note_on_c, 3, 65, 100
5, 36864, Note_on_c, 3, 65, 0
5, 36864, Note_on_c, 3, 65, 100
5, 37056, Note_on_c, 3, 65, 0
5, 37056, Note_on_c, 3, 65, 100
5, 37248, Note_on_c, 3, 65, 0
5, 37248, Note_on_c, 3, 65, 100
5, 37440, Note_on_c, 3, 65, 0
5, 37440, Note_on_c, 3, 65, 100
5, 37632, Note_on_c, 3, 65, 0
5, 37632, Note_on_c, 3, 64, 100
5, 37824, Note_on_c, 3, 64, 0
5, 39744, Note_on_c, 3, 71, 100
5, 39936, Note_on_c, 3, 71, 0
5, 39936, Note_on_c, 3, 72, 100
5, 40320, Note_on_c, 3, 72, 0
5, 40512, Note_on_c, 3, 72, 100
5, 40704, Note_on_c, 3, 72, 0
5, 40704, Note_on_c, 3, 72, 100
5, 41088, Note_on_c, 3, 72, 0
5, 41280, Note_on_c, 3, 74, 100
5, 41472, Note_on_c, 3, 74, 0
5, 41472, Note_on_c, 3, 67, 100
5, 41664, Note_on_c, 3, 67, 0
5, 41664, Note_on_c, 3, 67, 100
5, 41856, Note_on_c, 3, 67, 0
5, 41856, Note_on_c, 3, 67, 100
5, 42048, Note_on_c, 3, 67, 0
5, 42048, Note_on_c, 3, 67, 100
5, 42240, Note_on_c, 3, 67, 0
5, 42240, Note_on_c, 3, 67, 100
5, 42432, Note_on_c, 3, 67, 0
5, 42432, Note_on_c, 3, 64, 100
5, 42624, Note_on_c, 3, 64, 0
5, 42816, Note_on_c, 3, 64, 100
5, 43008, Note_on_c, 3, 64, 0
5, 43008, Note_on_c, 3, 62, 100
5, 43200, Note_on_c, 3, 62, 0
5, 43392, Note_on_c, 3, 60, 100
5, 43584, Note_on_c, 3, 60, 0
5, 43776, Note_on_c, 3, 65, 100
5, 43968, Note_on_c, 3, 65, 0
5, 44160, Note_on_c, 3, 64, 100
5, 44352, Note_on_c, 3, 64, 0
5, 44544, Note_on_c, 3, 60, 100
5, 44736, Note_on_c, 3, 60, 0
5, 44736, Note_on_c, 3, 67, 100
5, 44928, Note_on_c, 3, 67, 0
5, 44928, Note_on_c, 3, 60, 100
5, 45120, Note_on_c, 3, 60, 0
5, 45120, Note_on_c, 3, 65, 100
5, 45312, Note_on_c, 3, 65, 0
5, 45312, Note_on_c, 3, 62, 100
5, 45504, Note_on_c, 3, 62, 0
5, 45504, Note_on_c, 3, 59, 100
5, 45696, Note_on_c, 3, 59, 0
5, 45696, Note_on_c, 3, 62, 100
5, 45888, Note_on_c, 3, 62, 0
5, 45888, Note_on_c, 3, 67, 100
5, 46272, Note_on_c, 3, 67, 0
5, 46272, Note_on_c, 3, 69, 100
5, 46368, Note_on_c, 3, 69, 0
5, 46368, Note_on_c, 3, 71, 100
5, 46464, Note_on_c, 3, 71, 0
5, 46464, Note_on_c, 3, 72, 100
5, 46656, Note_on_c, 3, 72, 0
5, 46656, Note_on_c, 3, 60, 100
5, 46848, Note_on_c, 3, 60, 0
5, 46848, Note_on_c, 3, 57, 100
5, 47040, Note_on_c, 3, 57, 0
5, 47040, Note_on_c, 3, 69, 100
5, 47232, Note_on_c, 3, 69, 0
5, 48576, Note_on_c, 3, 57, 100
5, 48768, Note_on_c, 3, 57, 0
5, 48768, Note_on_c, 3, 62, 100
5, 48960, Note_on_c, 3, 62, 0
5, 48960, Note_on_c, 3, 66, 100
5, 49344, Note_on_c, 3, 66, 0
5, 49344, Note_on_c, 3, 67, 100
5, 49440, Note_on_c, 3, 67, 0
5, 49440, Note_on_c, 3, 69, 100
5, 49536, Note_on_c, 3, 69, 0
5, 49536, Note_on_c, 3, 71, 100
5, 49728, Note_on_c, 3, 71, 0
5, 49728, Note_on_c, 3, 59, 100
5, 49920, Note_on_c, 3, 59, 0
5, 49920, Note_on_c, 3, 55, 100
5, 50112, Note_on_c, 3, 55, 0
5, 50112, Note_on_c, 3, 67, 100
5, 50304, Note_on_c, 3, 67, 0
5, 51648, Note_on_c, 3, 64, 100
5, 52032, Note_on_c, 3, 64, 0
5, 52032, Note_on_c, 3, 66, 100
5, 52128, Note_on_c, 3, 66, 0
5, 52128, Note_on_c, 3, 67, 100
5, 52224, Note_on_c, 3, 67, 0
5, 52224, Note_on_c, 3, 69, 100
5, 52416, Note_on_c, 3, 69, 0
5, 52416, Note_on_c, 3, 72, 100
5, 52608, Note_on_c, 3, 72, 0
5, 52608, Note_on_c, 3, 63, 100
5, 52800, Note_on_c, 3, 63, 0
5, 52800, Note_on_c, 3, 66, 100
5, 53184, Note_on_c, 3, 66, 0
5, 53184, Note_on_c, 3, 59, 100
5, 53376, Note_on_c, 3, 59, 0
5, 53376, Note_on_c, 3, 69, 100
5, 53568, Note_on_c, 3, 69, 0
5, 53568, Note_on_c, 3, 67, 100
5, 53760, Note_on_c, 3, 67, 0
5, 53760, Note_on_c, 3, 64, 100
5, 53952, Note_on_c, 3, 64, 0
5, 53952, Note_on_c, 3, 67, 100
5, 54144, Note_on_c, 3, 67, 0
5, 54144, Note_on_c, 3, 69, 100
5, 54240, Note_on_c, 3, 69, 0
5, 54240, Note_on_c, 3, 71, 100
5, 54336, Note_on_c, 3, 71, 0
5, 54336, Note_on_c, 3, 69, 100
5, 54432, Note_on_c, 3, 69, 0
5, 54432, Note_on_c, 3, 67, 100
5, 54528, Note_on_c, 3, 67, 0
5, 54528, Note_on_c, 3, 66, 100
5, 54720, Note_on_c, 3, 66, 0
5, 54720, Note_on_c, 3, 69, 100
5, 54912, Note_on_c, 3, 69, 0
5, 54912, Note_on_c, 3, 67, 100
5, 55104, Note_on_c, 3, 67, 0
5, 55104, Note_on_c, 3, 72, 100
5, 55296, Note_on_c, 3, 72, 0
5, 55296, Note_on_c, 3, 71, 100
5, 55680, Note_on_c, 3, 71, 0
5, 55680, Note_on_c, 3, 71, 100
5, 56448, Note_on_c, 3, 71, 0
5, 56832, Note_on_c, 3, 72, 100
5, 57216, Note_on_c, 3, 72, 0
5, 57600, Note_on_c, 3, 66, 100
5, 57984, Note_on_c, 3, 66, 0
5, 58368, Note_on_c, 3, 72, 100
5, 58752, Note_on_c, 3, 72, 0
5, 59136, Note_on_c, 3, 63, 100
5, 59904, Note_on_c, 3, 63, 0
5, 60096, Note_on_c, 3, 64, 100
5, 60480, Note_on_c, 3, 64, 0
5, 60480, Note_on_c, 3, 72, 100
5, 60672, Note_on_c, 3, 72, 0
5, 60672, Note_on_c, 3, 71, 100
5, 60864, Note_on_c, 3, 71, 0
5, 60864, Note_on_c, 3, 72, 100
5, 61056, Note_on_c, 3, 72, 0
5, 61056, Note_on_c, 3, 72, 100
5, 61248, Note_on_c, 3, 72, 0
5, 61248, Note_on_c, 3, 71, 100
5, 61440, Note_on_c, 3, 71, 0
5, 61440, Note_on_c, 3, 71, 100
5, 61632, Note_on_c, 3, 71, 0
5, 61632, Note_on_c, 3, 69, 100
5, 61824, Note_on_c, 3, 69, 0
5, 62016, Note_on_c, 3, 64, 100
5, 62208, Note_on_c, 3, 64, 0
5, 62208, Note_on_c, 3, 66, 100
5, 62400, Note_on_c, 3, 66, 0
5, 62400, Note_on_c, 3, 69, 100
5, 62592, Note_on_c, 3, 69, 0
5, 62784, Note_on_c, 3, 66, 100
5, 62976, Note_on_c, 3, 66, 0
5, 62976, Note_on_c, 3, 63, 100
5, 63168, Note_on_c, 3, 63, 0
5, 63168, Note_on_c, 3, 66, 100
5, 63360, Note_on_c, 3, 66, 0
5, 63552, Note_on_c, 3, 69, 100
5, 63744, Note_on_c, 3, 69, 0
5, 63744, Note_on_c, 3, 57, 100
5, 63936, Note_on_c, 3, 57, 0
5, 63936, Note_on_c, 3, 59, 100
5, 64128, Note_on_c, 3, 59, 0
5, 64128, Note_on_c, 3, 59, 100
5, 64320, Note_on_c, 3, 59, 0
5, 64320, Note_on_c, 3, 59, 100
5, 64512, Note_on_c, 3, 59, 0
5, 64512, Note_on_c, 3, 55, 100
5, 64896, Note_on_c, 3, 55, 0
5, 65472, Note_on_c, 3, 64, 100
5, 65664, Note_on_c, 3, 64, 0
5, 65664, Note_on_c, 3, 67, 100
5, 65856, Note_on_c, 3, 67, 0
5, 66240, Note_on_c, 3, 66, 100
5, 66336, Note_on_c, 3, 66, 0
5, 66336, Note_on_c, 3, 67, 100
5, 66432, Note_on_c, 3, 67, 0
5, 66432, Note_on_c, 3, 69, 100
5, 66624, Note_on_c, 3, 69, 0
5, 67008, Note_on_c, 3, 66, 100
5, 67200, Note_on_c, 3, 66, 0
5, 67200, Note_on_c, 3, 63, 100
5, 67392, Note_on_c, 3, 63, 0
5, 67776, Note_on_c, 3, 67, 100
5, 67872, Note_on_c, 3, 67, 0
5, 67872, Note_on_c, 3, 69, 100
5, 67968, Note_on_c, 3, 69, 0
5, 67968, Note_on_c, 3, 71, 100
5, 68160, Note_on_c, 3, 71, 0
5, 68160, Note_on_c, 3, 64, 100
5, 68352, Note_on_c, 3, 64, 0
5, 68352, Note_on_c, 3, 64, 100
5, 68736, Note_on_c, 3, 64, 0
5, 68736, Note_on_c, 3, 62, 100
5, 69120, Note_on_c, 3, 62, 0
5, 69120, Note_on_c, 3, 60, 100
5, 69504, Note_on_c, 3, 60, 0
5, 69504, Note_on_c, 3, 59, 100
5, 69888, Note_on_c, 3, 59, 0
5, 69888, Note_on_c, 3, 57, 100
5, 70272, Note_on_c, 3, 57, 0
5, 70272, Note_on_c, 3, 57, 100
5, 70656, Note_on_c, 3, 57, 0
5, 70656, Note_on_c, 3, 59, 100
5, 71040, Note_on_c, 3, 59, 0
5, 71040, Note_on_c, 3, 61, 100
5, 71424, Note_on_c, 3, 61, 0
5, 71424, Note_on_c, 3, 62, 100
5, 71808, Note_on_c, 3, 62, 0
5, 71808, Note_on_c, 3, 60, 100
5, 72192, Note_on_c, 3, 60, 0
5, 72192, Note_on_c, 3, 59, 100
5, 72576, Note_on_c, 3, 59, 0
5, 72576, Note_on_c, 3, 57, 100
5, 72960, Note_on_c, 3, 57, 0
5, 72960, Note_on_c, 3, 55, 100
5, 73344, Note_on_c, 3, 55, 0
5, 73344, Note_on_c, 3, 55, 100
5, 73728, Note_on_c, 3, 55, 0
5, 73728, Note_on_c, 3, 57, 100
5, 74112, Note_on_c, 3, 57, 0
5, 74112, Note_on_c, 3, 59, 100
5, 74496, Note_on_c, 3, 59, 0
5, 74496, Note_on_c, 3, 60, 100
5, 75648, Note_on_c, 3, 60, 0
5, 75648, Note_on_c, 3, 58, 100
5, 76032, Note_on_c, 3, 58, 0
5, 76032, Note_on_c, 3, 60, 100
5, 76416, Note_on_c, 3, 60, 0
5, 78528, Note_on_c, 3, 65, 100
5, 78720, Note_on_c, 3, 65, 0
5, 78720, Note_on_c, 3, 62, 100
5, 79104, Note_on_c, 3, 62, 0
5, 79296, Note_on_c, 3, 62, 100
5, 79488, Note_on_c, 3, 62, 0
5, 79488, Note_on_c, 3, 64, 100
5, 79680, Note_on_c, 3, 64, 0
5, 79680, Note_on_c, 3, 70, 100
5, 79872, Note_on_c, 3, 70, 0
5, 79872, Note_on_c, 3, 69, 100
5, 80064, Note_on_c, 3, 69, 0
5, 80064, Note_on_c, 3, 62, 100
5, 80256, Note_on_c, 3, 62, 0
5, 80256, Note_on_c, 3, 64, 100
5, 80448, Note_on_c, 3, 64, 0
5, 80448, Note_on_c, 3, 64, 100
5, 80640, Note_on_c, 3, 64, 0
5, 80640, Note_on_c, 3, 65, 100
5, 81024, Note_on_c, 3, 65, 0
5, 81216, Note_on_c, 3, 65, 100
5, 81408, Note_on_c, 3, 65, 0
5, 81408, Note_on_c, 3, 67, 100
5, 81600, Note_on_c, 3, 67, 0
5, 81600, Note_on_c, 3, 67, 100
5, 81792, Note_on_c, 3, 67, 0
5, 81792, Note_on_c, 3, 69, 100
5, 81984, Note_on_c, 3, 69, 0
5, 81984, Note_on_c, 3, 69, 100
5, 82176, Note_on_c, 3, 69, 0
5, 82176, Note_on_c, 3, 70, 100
5, 82368, Note_on_c, 3, 70, 0
5, 82368, Note_on_c, 3, 70, 100
5, 82560, Note_on_c, 3, 70, 0
5, 82560, Note_on_c, 3, 66, 100
5, 82752, Note_on_c, 3, 66, 0
5, 82752, Note_on_c, 3, 66, 100
5, 82944, Note_on_c, 3, 66, 0
5, 82944, Note_on_c, 3, 67, 100
5, 83136, Note_on_c, 3, 67, 0
5, 83136, Note_on_c, 3, 62, 100
5, 83328, Note_on_c, 3, 62, 0
5, 83328, Note_on_c, 3, 67, 100
5, 83520, Note_on_c, 3, 67, 0
5, 83520, Note_on_c, 3, 70, 100
5, 83712, Note_on_c, 3, 70, 0
5, 83712, Note_on_c, 3, 72, 100
5, 83904, Note_on_c, 3, 72, 0
5, 83904, Note_on_c, 3, 67, 100
5, 84096, Note_on_c, 3, 67, 0
5, 84096, Note_on_c, 3, 67, 100
5, 84288, Note_on_c, 3, 67, 0
5, 84288, Note_on_c, 3, 67, 100
5, 84480, Note_on_c, 3, 67, 0
5, 84480, Note_on_c, 3, 69, 100
5, 84672, Note_on_c, 3, 69, 0
5, 84672, Note_on_c, 3, 69, 100
5, 84864, Note_on_c, 3, 69, 0
5, 84864, Note_on_c, 3, 64, 100
5, 85056, Note_on_c, 3, 64, 0
5, 85056, Note_on_c, 3, 64, 100
5, 85248, Note_on_c, 3, 64, 0
5, 85248, Note_on_c, 3, 65, 100
5, 85440, Note_on_c, 3, 65, 0
5, 85440, Note_on_c, 3, 60, 100
5, 85632, Note_on_c, 3, 60, 0
5, 85632, Note_on_c, 3, 65, 100
5, 85824, Note_on_c, 3, 65, 0
5, 85824, Note_on_c, 3, 69, 100
5, 86016, Note_on_c, 3, 69, 0
5, 86016, Note_on_c, 3, 70, 100
5, 86208, Note_on_c, 3, 70, 0
5, 86208, Note_on_c, 3, 70, 100
5, 86400, Note_on_c, 3, 70, 0
5, 86400, Note_on_c, 3, 70, 100
5, 86592, Note_on_c, 3, 70, 0
5, 86592, Note_on_c, 3, 70, 100
5, 86784, Note_on_c, 3, 70, 0
5, 86784, Note_on_c, 3, 70, 100
5, 86976, Note_on_c, 3, 70, 0
5, 86976, Note_on_c, 3, 70, 100
5, 87168, Note_on_c, 3, 70, 0
5, 87168, Note_on_c, 3, 70, 100
5, 87360, Note_on_c, 3, 70, 0
5, 87360, Note_on_c, 3, 70, 100
5, 87552, Note_on_c, 3, 70, 0
5, 87552, Note_on_c, 3, 70, 100
5, 87744, Note_on_c, 3, 70, 0
5, 87744, Note_on_c, 3, 67, 100
5, 87936, Note_on_c, 3, 67, 0
5, 87936, Note_on_c, 3, 70, 100
5, 88128, Note_on_c, 3, 70, 0
5, 88128, Note_on_c, 3, 64, 100
5, 88320, Note_on_c, 3, 64, 0
5, 88320, Note_on_c, 3, 64, 100
5, 88512, Note_on_c, 3, 64, 0
5, 88512, Note_on_c, 3, 69, 100
5, 88704, Note_on_c, 3, 69, 0
5, 88704, Note_on_c, 3, 69, 100
5, 88896, Note_on_c, 3, 69, 0
5, 88896, Note_on_c, 3, 69, 100
5, 89088, Note_on_c, 3, 69, 0
5, 89088, Note_on_c, 3, 69, 100
5, 89280, Note_on_c, 3, 69, 0
5, 89280, Note_on_c, 3, 69, 100
5, 89472, Note_on_c, 3, 69, 0
5, 89472, Note_on_c, 3, 69, 100
5, 89664, Note_on_c, 3, 69, 0
5, 89664, Note_on_c, 3, 69, 100
5, 89856, Note_on_c, 3, 69, 0
5, 89856, Note_on_c, 3, 62, 100
5, 90240, Note_on_c, 3, 62, 0
5, 90432, Note_on_c, 3, 69, 100
5, 90624, Note_on_c, 3, 69, 0
5, 90624, Note_on_c, 3, 67, 100
5, 91008, Note_on_c, 3, 67, 0
5, 91968, Note_on_c, 3, 67, 100
5, 92160, Note_on_c, 3, 67, 0
5, 92160, Note_on_c, 3, 65, 100
5, 92544, Note_on_c, 3, 65, 0
5, 93504, Note_on_c, 3, 65, 100
5, 93696, Note_on_c, 3, 65, 0
5, 93696, Note_on_c, 3, 64, 100
5, 93888, Note_on_c, 3, 64, 0
5, 93888, Note_on_c, 3, 66, 100
5, 94080, Note_on_c, 3, 66, 0
5, 94080, Note_on_c, 3, 68, 100
5, 94272, Note_on_c, 3, 68, 0
5, 94272, Note_on_c, 3, 64, 100
5, 94464, Note_on_c, 3, 64, 0
5, 94464, Note_on_c, 3, 72, 100
5, 94848, Note_on_c, 3, 72, 0
5, 95040, Note_on_c, 3, 69, 100
5, 95232, Note_on_c, 3, 69, 0
5, 95232, Note_on_c, 3, 62, 100
5, 95616, Note_on_c, 3, 62, 0
5, 95808, Note_on_c, 3, 62, 100
5, 96000, Note_on_c, 3, 62, 0
5, 96000, Note_on_c, 3, 57, 100
5, 96192, Note_on_c, 3, 57, 0
5, 96192, Note_on_c, 3, 64, 100
5, 96384, Note_on_c, 3, 64, 0
5, 96384, Note_on_c, 3, 56, 100
5, 96576, Note_on_c, 3, 56, 0
5, 96576, Note_on_c, 3, 64, 100
5, 96768, Note_on_c, 3, 64, 0
5, 96768, Note_on_c, 3, 64, 100
5, 96960, Note_on_c, 3, 64, 0
5, 96960, Note_on_c, 3, 60, 100
5, 97152, Note_on_c, 3, 60, 0
5, 97728, Note_on_c, 3, 57, 100
5, 97920, Note_on_c, 3, 57, 0
5, 97920, Note_on_c, 3, 57, 100
5, 98112, Note_on_c, 3, 57, 0
5, 98112, Note_on_c, 3, 57, 100
5, 98304, Note_on_c, 3, 57, 0
5, 98304, Note_on_c, 3, 57, 100
5, 98496, Note_on_c, 3, 57, 0
5, 98496, Note_on_c, 3, 57, 100
5, 98688, Note_on_c, 3, 57, 0
5, 98688, Note_on_c, 3, 57, 100
5, 98880, Note_on_c, 3, 57, 0
5, 98880, Note_on_c, 3, 57, 100
5, 99072, Note_on_c, 3, 57, 0
5, 99072, Note_on_c, 3, 57, 100
5, 99264, Note_on_c, 3, 57, 0
5, 99264, Note_on_c, 3, 57, 100
5, 99456, Note_on_c, 3, 57, 0
5, 99456, Note_on_c, 3, 57, 100
5, 99648, Note_on_c, 3, 57, 0
5, 99648, Note_on_c, 3, 57, 100
5, 99840, Note_on_c, 3, 57, 0
5, 99840, Note_on_c, 3, 62, 100
5, 100032, Note_on_c, 3, 62, 0
5, 100032, Note_on_c, 3, 62, 100
5, 100224, Note_on_c, 3, 62, 0
5, 100224, Note_on_c, 3, 62, 100
5, 100416, Note_on_c, 3, 62, 0
5, 100416, Note_on_c, 3, 62, 100
5, 100608, Note_on_c, 3, 62, 0
5, 100608, Note_on_c, 3, 62, 100
5, 100800, Note_on_c, 3, 62, 0
5, 100800, Note_on_c, 3, 62, 100
5, 100992, Note_on_c, 3, 62, 0
5, 100992, Note_on_c, 3, 62, 100
5, 101184, Note_on_c, 3, 62, 0
5, 101184, Note_on_c, 3, 62, 100
5, 101376, Note_on_c, 3, 62, 0
5, 101376, Note_on_c, 3, 67, 100
5, 101568, Note_on_c, 3, 67, 0
5, 101568, Note_on_c, 3, 67, 100
5, 101760, Note_on_c, 3, 67, 0
5, 101760, Note_on_c, 3, 67, 100
5, 101952, Note_on_c, 3, 67, 0
5, 101952, Note_on_c, 3, 67, 100
5, 102144, Note_on_c, 3, 67, 0
5, 102144, Note_on_c, 3, 67, 100
5, 102528, Note_on_c, 3, 67, 0
5, 102528, Note_on_c, 3, 70, 100
5, 102912, Note_on_c, 3, 70, 0
5, 102912, Note_on_c, 3, 68, 100
5, 103296, Note_on_c, 3, 68, 0
5, 103296, Note_on_c, 3, 67, 100
5, 103680, Note_on_c, 3, 67, 0
5, 103680, Note_on_c, 3, 65, 100
5, 103872, Note_on_c, 3, 65, 0
5, 103872, Note_on_c, 3, 65, 100
5, 104064, Note_on_c, 3, 65, 0
5, 104064, Note_on_c, 3, 69, 100
5, 104256, Note_on_c, 3, 69, 0
5, 104256, Note_on_c, 3, 69, 100
5, 104448, Note_on_c, 3, 69, 0
5, 104448, Note_on_c, 3, 70, 100
5, 104832, Note_on_c, 3, 70, 0
5, 105216, Note_on_c, 3, 67, 100
5, 105408, Note_on_c, 3, 67, 0
5, 105408, Note_on_c, 3, 67, 100
5, 105600, Note_on_c, 3, 67, 0
5, 105600, Note_on_c, 3, 69, 100
5, 105792, Note_on_c, 3, 69, 0
5, 105792, Note_on_c, 3, 69, 100
5, 105984, Note_on_c, 3, 69, 0
5, 105984, Note_on_c, 3, 57, 100
5, 106368, Note_on_c, 3, 57, 0
5, 106752, Note_on_c, 3, 62, 100
5, 106944, Note_on_c, 3, 62, 0
5, 106944, Note_on_c, 3, 62, 100
5, 107136, Note_on_c, 3, 62, 0
5, 107136, Note_on_c, 3, 64, 100
5, 107328, Note_on_c, 3, 64, 0
5, 107328, Note_on_c, 3, 64, 100
5, 107520, Note_on_c, 3, 64, 0
5, 107520, Note_on_c, 3, 52, 100
5, 107904, Note_on_c, 3, 52, 0
5, 109632, Note_on_c, 3, 68, 100
5, 109824, Note_on_c, 3, 68, 0
5, 109824, Note_on_c, 3, 69, 100
5, 110208, Note_on_c, 3, 69, 0
5, 110400, Note_on_c, 3, 69, 100
5, 110592, Note_on_c, 3, 69, 0
5, 110592, Note_on_c, 3, 69, 100
5, 110976, Note_on_c, 3, 69, 0
5, 111168, Note_on_c, 3, 71, 100
5, 111360, Note_on_c, 3, 71, 0
5, 111360, Note_on_c, 3, 64, 100
5, 111552, Note_on_c, 3, 64, 0
5, 111552, Note_on_c, 3, 64, 100
5, 111744, Note_on_c, 3, 64, 0
5, 111744, Note_on_c, 3, 64, 100
5, 111936, Note_on_c, 3, 64, 0
5, 111936, Note_on_c, 3, 64, 100
5, 112128, Note_on_c, 3, 64, 0
5, 112128, Note_on_c, 3, 64, 100
5, 112320, Note_on_c, 3, 64, 0
5, 112320, Note_on_c, 3, 64, 100
5, 112512, Note_on_c, 3, 64, 0
5, 112512, Note_on_c, 3, 69, 100
5, 112704, Note_on_c, 3, 69, 0
5, 112704, Note_on_c, 3, 72, 100
5, 113088, Note_on_c, 3, 72, 0
5, 113088, Note_on_c, 3, 62, 100
5, 113184, Note_on_c, 3, 62, 0
5, 113184, Note_on_c, 3, 64, 100
5, 113280, Note_on_c, 3, 64, 0
5, 113280, Note_on_c, 3, 65, 100
5, 113472, Note_on_c, 3, 65, 0
5, 113472, Note_on_c, 3, 65, 100
5, 113664, Note_on_c, 3, 65, 0
5, 113664, Note_on_c, 3, 62, 100
5, 113856, Note_on_c, 3, 62, 0
5, 113856, Note_on_c, 3, 74, 100
5, 114048, Note_on_c, 3, 74, 0
5, 115392, Note_on_c, 3, 62, 100
5, 115584, Note_on_c, 3, 62, 0
5, 115584, Note_on_c, 3, 67, 100
5, 115776, Note_on_c, 3, 67, 0
5, 115776, Note_on_c, 3, 71, 100
5, 116160, Note_on_c, 3, 71, 0
5, 116160, Note_on_c, 3, 60, 100
5, 116256, Note_on_c, 3, 60, 0
5, 116256, Note_on_c, 3, 62, 100
5, 116352, Note_on_c, 3, 62, 0
5, 116352, Note_on_c, 3, 64, 100
5, 116544, Note_on_c, 3, 64, 0
5, 116544, Note_on_c, 3, 64, 100
5, 116736, Note_on_c, 3, 64, 0
5, 116736, Note_on_c, 3, 60, 100
5, 116928, Note_on_c, 3, 60, 0
5, 116928, Note_on_c, 3, 72, 100
5, 117120, Note_on_c, 3, 72, 0
5, 118464, Note_on_c, 3, 60, 100
5, 118656, Note_on_c, 3, 60, 0
5, 118656, Note_on_c, 3, 65, 100
5, 118848, Note_on_c, 3, 65, 0
5, 118848, Note_on_c, 3, 69, 100
5, 119232, Note_on_c, 3, 69, 0
5, 119232, Note_on_c, 3, 68, 100
5, 119328, Note_on_c, 3, 68, 0
5, 119328, Note_on_c, 3, 69, 100
5, 119424, Note_on_c, 3, 69, 0
5, 119424, Note_on_c, 3, 71, 100
5, 119616, Note_on_c, 3, 71, 0
5, 119616, Note_on_c, 3, 59, 100
5, 120000, Note_on_c, 3, 59, 0
5, 120000, Note_on_c, 3, 52, 100
5, 120192, Note_on_c, 3, 52, 0
5, 120192, Note_on_c, 3, 64, 100
5, 120384, Note_on_c, 3, 64, 0
5, 120384, Note_on_c, 3, 60, 100
5, 120576, Note_on_c, 3, 60, 0
5, 120576, Note_on_c, 3, 57, 100
5, 120768, Note_on_c, 3, 57, 0
5, 120768, Note_on_c, 3, 60, 100
5, 120960, Note_on_c, 3, 60, 0
5, 120960, Note_on_c, 3, 65, 100
5, 121152, Note_on_c, 3, 65, 0
5, 121152, Note_on_c, 3, 62, 100
5, 121344, Note_on_c, 3, 62, 0
5, 121344, Note_on_c, 3, 59, 100
5, 121536, Note_on_c, 3, 59, 0
5, 121536, Note_on_c, 3, 74, 100
5, 121728, Note_on_c, 3, 74, 0
5, 121728, Note_on_c, 3, 72, 100
5, 121920, Note_on_c, 3, 72, 0
5, 121920, Note_on_c, 3, 69, 100
5, 122112, Note_on_c, 3, 69, 0
5, 122112, Note_on_c, 3, 69, 100
5, 122496, Note_on_c, 3, 69, 0
5, 122496, Note_on_c, 3, 68, 100
5, 123264, Note_on_c, 3, 68, 0
5, 123648, Note_on_c, 3, 65, 100
5, 124032, Note_on_c, 3, 65, 0
5, 124416, Note_on_c, 3, 59, 100
5, 124800, Note_on_c, 3, 59, 0
5, 125184, Note_on_c, 3, 67, 100
5, 125568, Note_on_c, 3, 67, 0
5, 125952, Note_on_c, 3, 68, 100
5, 126912, Note_on_c, 3, 68, 0
5, 126912, Note_on_c, 3, 69, 100
5, 127296, Note_on_c, 3, 69, 0
5, 127296, Note_on_c, 3, 59, 100
5, 127488, Note_on_c, 3, 59, 0
5, 127488, Note_on_c, 3, 57, 100
5, 127680, Note_on_c, 3, 57, 0
5, 127680, Note_on_c, 3, 60, 100
5, 127872, Note_on_c, 3, 60, 0
5, 127872, Note_on_c, 3, 65, 100
5, 128064, Note_on_c, 3, 65, 0
5, 128064, Note_on_c, 3, 64, 100
5, 128256, Note_on_c, 3, 64, 0
5, 128256, Note_on_c, 3, 64, 100
5, 128448, Note_on_c, 3, 64, 0
5, 128448, Note_on_c, 3, 62, 100
5, 128640, Note_on_c, 3, 62, 0
5, 128832, Note_on_c, 3, 57, 100
5, 129024, Note_on_c, 3, 57, 0
5, 129024, Note_on_c, 3, 59, 100
5, 129216, Note_on_c, 3, 59, 0
5, 129216, Note_on_c, 3, 62, 100
5, 129408, Note_on_c, 3, 62, 0
5, 129600, Note_on_c, 3, 71, 100
5, 129792, Note_on_c, 3, 71, 0
5, 129792, Note_on_c, 3, 68, 100
5, 129984, Note_on_c, 3, 68, 0
5, 129984, Note_on_c, 3, 71, 100
5, 130176, Note_on_c, 3, 71, 0
5, 130368, Note_on_c, 3, 74, 100
5, 130560, Note_on_c, 3, 74, 0
5, 130560, Note_on_c, 3, 62, 100
5, 130752, Note_on_c, 3, 62, 0
5, 130752, Note_on_c, 3, 64, 100
5, 130944, Note_on_c, 3, 64, 0
5, 130944, Note_on_c, 3, 64, 100
5, 131136, Note_on_c, 3, 64, 0
5, 131136, Note_on_c, 3, 64, 100
5, 131328, Note_on_c, 3, 64, 0
5, 131328, Note_on_c, 3, 60, 100
5, 131904, Note_on_c, 3, 60, 0
5, 131904, End_track
6, 0, Start_track
6, 0, MIDI_port, 0
6, 0, Title_t, "Cello"
6, 0, Program_c, 4, 42
6, 0, Control_c, 4, 7, 100
6, 0, Control_c, 4, 10, 84
6, 960, Note_on_c, 4, 45, 100
6, 1152, Note_on_c, 4, 45, 0
6, 1152, Note_on_c, 4, 57, 100
6, 1536, Note_on_c, 4, 57, 0
6, 1728, Note_on_c, 4, 45, 100
6, 1920, Note_on_c, 4, 45, 0
6, 1920, Note_on_c, 4, 57, 100
6, 2304, Note_on_c, 4, 57, 0
6, 2496, Note_on_c, 4, 45, 100
6, 2688, Note_on_c, 4, 45, 0
6, 2688, Note_on_c, 4, 52, 100
6, 2880, Note_on_c, 4, 52, 0
6, 2880, Note_on_c, 4, 40, 100
6, 3072, Note_on_c, 4, 40, 0
6, 3072, Note_on_c, 4, 45, 100
6, 3264, Note_on_c, 4, 45, 0
6, 3264, Note_on_c, 4, 57, 100
6, 3360, Note_on_c, 4, 57, 0
6, 3360, Note_on_c, 4, 59, 100
6, 3456, Note_on_c, 4, 59, 0
6, 3456, Note_on_c, 4, 60, 100
6, 3648, Note_on_c, 4, 60, 0
6, 3648, Note_on_c, 4, 57, 100
6, 3840, Note_on_c, 4, 57, 0
6, 3840, Note_on_c, 4, 56, 100
6, 4032, Note_on_c, 4, 56, 0
6, 4032, Note_on_c, 4, 52, 100
6, 4224, Note_on_c, 4, 52, 0
6, 4224, Note_on_c, 4, 57, 100
6, 4416, Note_on_c, 4, 57, 0
6, 4416, Note_on_c, 4, 52, 100
6, 4608, Note_on_c, 4, 52, 0
6, 4608, Note_on_c, 4, 59, 100
6, 4800, Note_on_c, 4, 59, 0
6, 4800, Note_on_c, 4, 52, 100
6, 4992, Note_on_c, 4, 52, 0
6, 4992, Note_on_c, 4, 60, 100
6, 5184, Note_on_c, 4, 60, 0
6, 5184, Note_on_c, 4, 52, 100
6, 5376, Note_on_c, 4, 52, 0
6, 5376, Note_on_c, 4, 62, 100
6, 5568, Note_on_c, 4, 62, 0
6, 5568, Note_on_c, 4, 50, 100
6, 5760, Note_on_c, 4, 50, 0
6, 5760, Note_on_c, 4, 52, 100
6, 5952, Note_on_c, 4, 52, 0
6, 5952, Note_on_c, 4, 53, 100
6, 6144, Note_on_c, 4, 53, 0
6, 6144, Note_on_c, 4, 52, 100
6, 6336, Note_on_c, 4, 52, 0
6, 6336, Note_on_c, 4, 40, 100
6, 6528, Note_on_c, 4, 40, 0
6, 6720, Note_on_c, 4, 64, 100
6, 6816, Note_on_c, 4, 64, 0
6, 6816, Note_on_c, 4, 62, 100
6, 6912, Note_on_c, 4, 62, 0
6, 6912, Note_on_c, 4, 60, 100
6, 7104, Note_on_c, 4, 60, 0
6, 7104, Note_on_c, 4, 64, 100
6, 7296, Note_on_c, 4, 64, 0
6, 7296, Note_on_c, 4, 60, 100
6, 7488, Note_on_c, 4, 60, 0
6, 7488, Note_on_c, 4, 57, 100
6, 7680, Note_on_c, 4, 57, 0
6, 7680, Note_on_c, 4, 62, 100
6, 7872, Note_on_c, 4, 62, 0
6, 7872, Note_on_c, 4, 50, 100
6, 8064, Note_on_c, 4, 50, 0
6, 8256, Note_on_c, 4, 62, 100
6, 8352, Note_on_c, 4, 62, 0
6, 8352, Note_on_c, 4, 60, 100
6, 8448, Note_on_c, 4, 60, 0
6, 8448, Note_on_c, 4, 59, 100
6, 8640, Note_on_c, 4, 59, 0
6, 8640, Note_on_c, 4, 62, 100
6, 8832, Note_on_c, 4, 62, 0
6, 8832, Note_on_c, 4, 59, 100
6, 9024, Note_on_c, 4, 59, 0
6, 9024, Note_on_c, 4, 55, 100
6, 9216, Note_on_c, 4, 55, 0
6, 9216, Note_on_c, 4, 60, 100
6, 9408, Note_on_c, 4, 60, 0
6, 9408, Note_on_c, 4, 48, 100
6, 9600, Note_on_c, 4, 48, 0
6, 9792, Note_on_c, 4, 60, 100
6, 9888, Note_on_c, 4, 60, 0
6, 9888, Note_on_c, 4, 59, 100
6, 9984, Note_on_c, 4, 59, 0
6, 9984, Note_on_c, 4, 57, 100
6, 10080, Note_on_c, 4, 57, 0
6, 10080, Note_on_c, 4, 59, 100
6, 10176, Note_on_c, 4, 59, 0
6, 10176, Note_on_c, 4, 57, 100
6, 10272, Note_on_c, 4, 57, 0
6, 10272, Note_on_c, 4, 55, 100
6, 10368, Note_on_c, 4, 55, 0
6, 10368, Note_on_c, 4, 54, 100
6, 10464, Note_on_c, 4, 54, 0
6, 10464, Note_on_c, 4, 55, 100
6, 10560, Note_on_c, 4, 55, 0
6, 10560, Note_on_c, 4, 54, 100
6, 10656, Note_on_c, 4, 54, 0
6, 10656, Note_on_c, 4, 52, 100
6, 10752, Note_on_c, 4, 52, 0
6, 10752, Note_on_c, 4, 51, 100
6, 10848, Note_on_c, 4, 51, 0
6, 10848, Note_on_c, 4, 47, 100
6, 10944, Note_on_c, 4, 47, 0
6, 10944, Note_on_c, 4, 49, 100
6, 11040, Note_on_c, 4, 49, 0
6, 11040, Note_on_c, 4, 51, 100
6, 11136, Note_on_c, 4, 51, 0
6, 11136, Note_on_c, 4, 52, 100
6, 11232, Note_on_c, 4, 52, 0
6, 11232, Note_on_c, 4, 54, 100
6, 11328, Note_on_c, 4, 54, 0
6, 11328, Note_on_c, 4, 55, 100
6, 11424, Note_on_c, 4, 55, 0
6, 11424, Note_on_c, 4, 52, 100
6, 11520, Note_on_c, 4, 52, 0
6, 11520, Note_on_c, 4, 48, 100
6, 11712, Note_on_c, 4, 48, 0
6, 11712, Note_on_c, 4, 47, 100
6, 11904, Note_on_c, 4, 47, 0
6, 11904, Note_on_c, 4, 48, 100
6, 12096, Note_on_c, 4, 48, 0
6, 12096, Note_on_c, 4, 45, 100
6, 12288, Note_on_c, 4, 45, 0
6, 12288, Note_on_c, 4, 47, 100
6, 12576, Note_on_c, 4, 47, 0
6, 12576, Note_on_c, 4, 49, 100
6, 12624, Note_on_c, 4, 49, 0
6, 12624, Note_on_c, 4, 51, 100
6, 12672, Note_on_c, 4, 51, 0
6, 12672, Note_on_c, 4, 52, 100
6, 12768, Note_on_c, 4, 52, 0
6, 12768, Note_on_c, 4, 54, 100
6, 12864, Note_on_c, 4, 54, 0
6, 12864, Note_on_c, 4, 55, 100
6, 12960, Note_on_c, 4, 55, 0
6, 12960, Note_on_c, 4, 57, 100
6, 13056, Note_on_c, 4, 57, 0
6, 13056, Note_on_c, 4, 59, 100
6, 13248, Note_on_c, 4, 59, 0
6, 13248, Note_on_c, 4, 57, 100
6, 13440, Note_on_c, 4, 57, 0
6, 13440, Note_on_c, 4, 59, 100
6, 13632, Note_on_c, 4, 59, 0
6, 13632, Note_on_c, 4, 47, 100
6, 13824, Note_on_c, 4, 47, 0
6, 13824, Note_on_c, 4, 57, 100
6, 14016, Note_on_c, 4, 57, 0
6, 14016, Note_on_c, 4, 55, 100
6, 14208, Note_on_c, 4, 55, 0
6, 14208, Note_on_c, 4, 57, 100
6, 14400, Note_on_c, 4, 57, 0
6, 14400, Note_on_c, 4, 45, 100
6, 14592, Note_on_c, 4, 45, 0
6, 14592, Note_on_c, 4, 43, 100
6, 14784, Note_on_c, 4, 43, 0
6, 14784, Note_on_c, 4, 48, 100
6, 14976, Note_on_c, 4, 48, 0
6, 14976, Note_on_c, 4, 45, 100
6, 15168, Note_on_c, 4, 45, 0
6, 15168, Note_on_c, 4, 47, 100
6, 15360, Note_on_c, 4, 47, 0
6, 15360, Note_on_c, 4, 40, 100
6, 15744, Note_on_c, 4, 40, 0
6, 15936, Note_on_c, 4, 60, 100
6, 16128, Note_on_c, 4, 60, 0
6, 16128, Note_on_c, 4, 51, 100
6, 16320, Note_on_c, 4, 51, 0
6, 16320, Note_on_c, 4, 51, 100
6, 16512, Note_on_c, 4, 51, 0
6, 16512, Note_on_c, 4, 51, 100
6, 16704, Note_on_c, 4, 51, 0
6, 16704, Note_on_c, 4, 54, 100
6, 16896, Note_on_c, 4, 54, 0
6, 16896, Note_on_c, 4, 45, 100
6, 17088, Note_on_c, 4, 45, 0
6, 17088, Note_on_c, 4, 45, 100
6, 17280, Note_on_c, 4, 45, 0
6, 17280, Note_on_c, 4, 45, 100
6, 17472, Note_on_c, 4, 45, 0
6, 17472, Note_on_c, 4, 48, 100
6, 17664, Note_on_c, 4, 48, 0
6, 17664, Note_on_c, 4, 42, 100
6, 17856, Note_on_c, 4, 42, 0
6, 17856, Note_on_c, 4, 40, 100
6, 18048, Note_on_c, 4, 40, 0
6, 18048, Note_on_c, 4, 47, 100
6, 18240, Note_on_c, 4, 47, 0
6, 18240, Note_on_c, 4, 47, 100
6, 18432, Note_on_c, 4, 47, 0
6, 18432, Note_on_c, 4, 40, 100
6, 18624, Note_on_c, 4, 40, 0
6, 18624, Note_on_c, 4, 52, 100
6, 18720, Note_on_c, 4, 52, 0
6, 18720, Note_on_c, 4, 50, 100
6, 18816, Note_on_c, 4, 50, 0
6, 18816, Note_on_c, 4, 48, 100
6, 19008, Note_on_c, 4, 48, 0
6, 19008, Note_on_c, 4, 47, 100
6, 19200, Note_on_c, 4, 47, 0
6, 19200, Note_on_c, 4, 45, 100
6, 19584, Note_on_c, 4, 45, 0
6, 19776, Note_on_c, 4, 57, 100
6, 19968, Note_on_c, 4, 57, 0
6, 19968, Note_on_c, 4, 64, 100
6, 20352, Note_on_c, 4, 64, 0
6, 20544, Note_on_c, 4, 52, 100
6, 20736, Note_on_c, 4, 52, 0
6, 20736, Note_on_c, 4, 44, 100
6, 21120, Note_on_c, 4, 44, 0
6, 21312, Note_on_c, 4, 52, 100
6, 21504, Note_on_c, 4, 52, 0
6, 21504, Note_on_c, 4, 57, 100
6, 21888, Note_on_c, 4, 57, 0
6, 22080, Note_on_c, 4, 57, 100
6, 22272, Note_on_c, 4, 57, 0
6, 22272, Note_on_c, 4, 45, 100
6, 22464, Note_on_c, 4, 45, 0
6, 22464, Note_on_c, 4, 48, 100
6, 22656, Note_on_c, 4, 48, 0
6, 22656, Note_on_c, 4, 50, 100
6, 22848, Note_on_c, 4, 50, 0
6, 22848, Note_on_c, 4, 53, 100
6, 23040, Note_on_c, 4, 53, 0
6, 23040, Note_on_c, 4, 43, 100
6, 23232, Note_on_c, 4, 43, 0
6, 23232, Note_on_c, 4, 47, 100
6, 23424, Note_on_c, 4, 47, 0
6, 23424, Note_on_c, 4, 48, 100
6, 23616, Note_on_c, 4, 48, 0
6, 23616, Note_on_c, 4, 52, 100
6, 23808, Note_on_c, 4, 52, 0
6, 23808, Note_on_c, 4, 53, 100
6, 24000, Note_on_c, 4, 53, 0
6, 24000, Note_on_c, 4, 57, 100
6, 24192, Note_on_c, 4, 57, 0
6, 24192, Note_on_c, 4, 47, 100
6, 24384, Note_on_c, 4, 47, 0
6, 24384, Note_on_c, 4, 50, 100
6, 24576, Note_on_c, 4, 50, 0
6, 24576, Note_on_c, 4, 40, 100
6, 24768, Note_on_c, 4, 40, 0
6, 24768, Note_on_c, 4, 52, 100
6, 24960, Note_on_c, 4, 52, 0
6, 24960, Note_on_c, 4, 56, 100
6, 25152, Note_on_c, 4, 56, 0
6, 25152, Note_on_c, 4, 52, 100
6, 25344, Note_on_c, 4, 52, 0
6, 25536, Note_on_c, 4, 57, 100
6, 25728, Note_on_c, 4, 57, 0
6, 25728, Note_on_c, 4, 60, 100
6, 25920, Note_on_c, 4, 60, 0
6, 25920, Note_on_c, 4, 57, 100
6, 26112, Note_on_c, 4, 57, 0
6, 26304, Note_on_c, 4, 57, 100
6, 26496, Note_on_c, 4, 57, 0
6, 26496, Note_on_c, 4, 53, 100
6, 26688, Note_on_c, 4, 53, 0
6, 26688, Note_on_c, 4, 50, 100
6, 26880, Note_on_c, 4, 50, 0
6, 27072, Note_on_c, 4, 55, 100
6, 27264, Note_on_c, 4, 55, 0
6, 27264, Note_on_c, 4, 59, 100
6, 27456, Note_on_c, 4, 59, 0
6, 27456, Note_on_c, 4, 55, 100
6, 27648, Note_on_c, 4, 55, 0
6, 27840, Note_on_c, 4, 55, 100
6, 28032, Note_on_c, 4, 55, 0
6, 28032, Note_on_c, 4, 52, 100
6, 28224, Note_on_c, 4, 52, 0
6, 28224, Note_on_c, 4, 48, 100
6, 28416, Note_on_c, 4, 48, 0
6, 28608, Note_on_c, 4, 53, 100
6, 28800, Note_on_c, 4, 53, 0
6, 28800, Note_on_c, 4, 57, 100
6, 28992, Note_on_c, 4, 57, 0
6, 28992, Note_on_c, 4, 53, 100
6, 29184, Note_on_c, 4, 53, 0
6, 29376, Note_on_c, 4, 53, 100
6, 29568, Note_on_c, 4, 53, 0
6, 29568, Note_on_c, 4, 50, 100
6, 29760, Note_on_c, 4, 50, 0
6, 29760, Note_on_c, 4, 47, 100
6, 29952, Note_on_c, 4, 47, 0
6, 30144, Note_on_c, 4, 52, 100
6, 30336, Note_on_c, 4, 52, 0
6, 30336, Note_on_c, 4, 56, 100
6, 30528, Note_on_c, 4, 56, 0
6, 30528, Note_on_c, 4, 52, 100
6, 30720, Note_on_c, 4, 52, 0
6, 30912, Note_on_c, 4, 52, 100
6, 31104, Note_on_c, 4, 52, 0
6, 31104, Note_on_c, 4, 48, 100
6, 31296, Note_on_c, 4, 48, 0
6, 31296, Note_on_c, 4, 45, 100
6, 31488, Note_on_c, 4, 45, 0
6, 31488, Note_on_c, 4, 57, 100
6, 31872, Note_on_c, 4, 57, 0
6, 32064, Note_on_c, 4, 45, 100
6, 32256, Note_on_c, 4, 45, 0
6, 32256, Note_on_c, 4, 57, 100
6, 32448, Note_on_c, 4, 57, 0
6, 32448, Note_on_c, 4, 45, 100
6, 32640, Note_on_c, 4, 45, 0
6, 32640, Note_on_c, 4, 52, 100
6, 32832, Note_on_c, 4, 52, 0
6, 32832, Note_on_c, 4, 40, 100
6, 33024, Note_on_c, 4, 40, 0
6, 33024, Note_on_c, 4, 45, 100
6, 33216, Note_on_c, 4, 45, 0
6, 33216, Note_on_c, 4, 57, 100
6, 33312, Note_on_c, 4, 57, 0
6, 33312, Note_on_c, 4, 59, 100
6, 33408, Note_on_c, 4, 59, 0
6, 33408, Note_on_c, 4, 60, 100
6, 33600, Note_on_c, 4, 60, 0
6, 33600, Note_on_c, 4, 57, 100
6, 33792, Note_on_c, 4, 57, 0
6, 33792, Note_on_c, 4, 45, 100
6, 33984, Note_on_c, 4, 45, 0
6, 34752, Note_on_c, 4, 55, 100
6, 34848, Note_on_c, 4, 55, 0
6, 34848, Note_on_c, 4, 57, 100
6, 34944, Note_on_c, 4, 57, 0
6, 34944, Note_on_c, 4, 59, 100
6, 35136, Note_on_c, 4, 59, 0
6, 35136, Note_on_c, 4, 55, 100
6, 35328, Note_on_c, 4, 55, 0
6, 35328, Note_on_c, 4, 43, 100
6, 35520, Note_on_c, 4, 43, 0
6, 36288, Note_on_c, 4, 53, 100
6, 36384, Note_on_c, 4, 53, 0
6, 36384, Note_on_c, 4, 55, 100
6, 36480, Note_on_c, 4, 55, 0
6, 36480, Note_on_c, 4, 57, 100
6, 36672, Note_on_c, 4, 57, 0
6, 36672, Note_on_c, 4, 53, 100
6, 36864, Note_on_c, 4, 53, 0
6, 36864, Note_on_c, 4, 41, 100
6, 37056, Note_on_c, 4, 41, 0
6, 37824, Note_on_c, 4, 53, 100
6, 38016, Note_on_c, 4, 53, 0
6, 38016, Note_on_c, 4, 52, 100
6, 38208, Note_on_c, 4, 52, 0
6, 38208, Note_on_c, 4, 50, 100
6, 38400, Note_on_c, 4, 50, 0
6, 38400, Note_on_c, 4, 48, 100
6, 38592, Note_on_c, 4, 48, 0
6, 38592, Note_on_c, 4, 60, 100
6, 38784, Note_on_c, 4, 60, 0
6, 38784, Note_on_c, 4, 59, 100
6, 38976, Note_on_c, 4, 59, 0
6, 38976, Note_on_c, 4, 57, 100
6, 39168, Note_on_c, 4, 57, 0
6, 39168, Note_on_c, 4, 55, 100
6, 39360, Note_on_c, 4, 55, 0
6, 39360, Note_on_c, 4, 57, 100
6, 39552, Note_on_c, 4, 57, 0
6, 39552, Note_on_c, 4, 55, 100
6, 39744, Note_on_c, 4, 55, 0
6, 39744, Note_on_c, 4, 53, 100
6, 39936, Note_on_c, 4, 53, 0
6, 39936, Note_on_c, 4, 52, 100
6, 40128, Note_on_c, 4, 52, 0
6, 40128, Note_on_c, 4, 55, 100
6, 40320, Note_on_c, 4, 55, 0
6, 40320, Note_on_c, 4, 52, 100
6, 40512, Note_on_c, 4, 52, 0
6, 40512, Note_on_c, 4, 48, 100
6, 40704, Note_on_c, 4, 48, 0
6, 40704, Note_on_c, 4, 53, 100
6, 40896, Note_on_c, 4, 53, 0
6, 40896, Note_on_c, 4, 57, 100
6, 41088, Note_on_c, 4, 57, 0
6, 41088, Note_on_c, 4, 53, 100
6, 41280, Note_on_c, 4, 53, 0
6, 41280, Note_on_c, 4, 50, 100
6, 41472, Note_on_c, 4, 50, 0
6, 41472, Note_on_c, 4, 52, 100
6, 41664, Note_on_c, 4, 52, 0
6, 41664, Note_on_c, 4, 48, 100
6, 41856, Note_on_c, 4, 48, 0
6, 41856, Note_on_c, 4, 55, 100
6, 42048, Note_on_c, 4, 55, 0
6, 42048, Note_on_c, 4, 43, 100
6, 42240, Note_on_c, 4, 43, 0
6, 42240, Note_on_c, 4, 36, 100
6, 42432, Note_on_c, 4, 36, 0
6, 42432, Note_on_c, 4, 48, 100
6, 42528, Note_on_c, 4, 48, 0
6, 42528, Note_on_c, 4, 50, 100
6, 42624, Note_on_c, 4, 50, 0
6, 42624, Note_on_c, 4, 52, 100
6, 42816, Note_on_c, 4, 52, 0
6, 42816, Note_on_c, 4, 48, 100
6, 43008, Note_on_c, 4, 48, 0
6, 43008, Note_on_c, 4, 47, 100
6, 43200, Note_on_c, 4, 47, 0
6, 43200, Note_on_c, 4, 55, 100
6, 43392, Note_on_c, 4, 55, 0
6, 43392, Note_on_c, 4, 48, 100
6, 43584, Note_on_c, 4, 48, 0
6, 43584, Note_on_c, 4, 55, 100
6, 43776, Note_on_c, 4, 55, 0
6, 43776, Note_on_c, 4, 50, 100
6, 43968, Note_on_c, 4, 50, 0
6, 43968, Note_on_c, 4, 55, 100
6, 44160, Note_on_c, 4, 55, 0
6, 44160, Note_on_c, 4, 52, 100
6, 44352, Note_on_c, 4, 52, 0
6, 44352, Note_on_c, 4, 55, 100
6, 44544, Note_on_c, 4, 55, 0
6, 44544, Note_on_c, 4, 53, 100
6, 44736, Note_on_c, 4, 53, 0
6, 44736, Note_on_c, 4, 55, 100
6, 44928, Note_on_c, 4, 55, 0
6, 44928, Note_on_c, 4, 57, 100
6, 45120, Note_on_c, 4, 57, 0
6, 45120, Note_on_c, 4, 53, 100
6, 45312, Note_on_c, 4, 53, 0
6, 45312, Note_on_c, 4, 55, 100
6, 45408, Note_on_c, 4, 55, 0
6, 45408, Note_on_c, 4, 57, 100
6, 45504, Note_on_c, 4, 57, 0
6, 45504, Note_on_c, 4, 59, 100
6, 45600, Note_on_c, 4, 59, 0
6, 45600, Note_on_c, 4, 57, 100
6, 45696, Note_on_c, 4, 57, 0
6, 45696, Note_on_c, 4, 55, 100
6, 45792, Note_on_c, 4, 55, 0
6, 45792, Note_on_c, 4, 53, 100
6, 45888, Note_on_c, 4, 53, 0
6, 45888, Note_on_c, 4, 52, 100
6, 45984, Note_on_c, 4, 52, 0
6, 45984, Note_on_c, 4, 50, 100
6, 46080, Note_on_c, 4, 50, 0
6, 46080, Note_on_c, 4, 48, 100
6, 46272, Note_on_c, 4, 48, 0
6, 46272, Note_on_c, 4, 52, 100
6, 46464, Note_on_c, 4, 52, 0
6, 46464, Note_on_c, 4, 48, 100
6, 46656, Note_on_c, 4, 48, 0
6, 46656, Note_on_c, 4, 45, 100
6, 46848, Note_on_c, 4, 45, 0
6, 46848, Note_on_c, 4, 50, 100
6, 47040, Note_on_c, 4, 50, 0
6, 47040, Note_on_c, 4, 38, 100
6, 47232, Note_on_c, 4, 38, 0
6, 48576, Note_on_c, 4, 54, 100
6, 48672, Note_on_c, 4, 54, 0
6, 48672, Note_on_c, 4, 52, 100
6, 48768, Note_on_c, 4, 52, 0
6, 48768, Note_on_c, 4, 50, 100
6, 48864, Note_on_c, 4, 50, 0
6, 48864, Note_on_c, 4, 48, 100
6, 48960, Note_on_c, 4, 48, 0
6, 48960, Note_on_c, 4, 47, 100
6, 49056, Note_on_c, 4, 47, 0
6, 49056, Note_on_c, 4, 45, 100
6, 49152, Note_on_c, 4, 45, 0
6, 49152, Note_on_c, 4, 47, 100
6, 49344, Note_on_c, 4, 47, 0
6, 49344, Note_on_c, 4, 50, 100
6, 49536, Note_on_c, 4, 50, 0
6, 49536, Note_on_c, 4, 47, 100
6, 49728, Note_on_c, 4, 47, 0
6, 49728, Note_on_c, 4, 43, 100
6, 49920, Note_on_c, 4, 43, 0
6, 49920, Note_on_c, 4, 48, 100
6, 50112, Note_on_c, 4, 48, 0
6, 50112, Note_on_c, 4, 36, 100
6, 50304, Note_on_c, 4, 36, 0
6, 51648, Note_on_c, 4, 60, 100
6, 51744, Note_on_c, 4, 60, 0
6, 51744, Note_on_c, 4, 59, 100
6, 51840, Note_on_c, 4, 59, 0
6, 51840, Note_on_c, 4, 60, 100
6, 51936, Note_on_c, 4, 60, 0
6, 51936, Note_on_c, 4, 62, 100
6, 52032, Note_on_c, 4, 62, 0
6, 52032, Note_on_c, 4, 60, 100
6, 52128, Note_on_c, 4, 60, 0
6, 52128, Note_on_c, 4, 59, 100
6, 52224, Note_on_c, 4, 59, 0
6, 52224, Note_on_c, 4, 57, 100
6, 52320, Note_on_c, 4, 57, 0
6, 52320, Note_on_c, 4, 59, 100
6, 52416, Note_on_c, 4, 59, 0
6, 52416, Note_on_c, 4, 57, 100
6, 52512, Note_on_c, 4, 57, 0
6, 52512, Note_on_c, 4, 55, 100
6, 52608, Note_on_c, 4, 55, 0
6, 52608, Note_on_c, 4, 54, 100
6, 52704, Note_on_c, 4, 54, 0
6, 52704, Note_on_c, 4, 55, 100
6, 52800, Note_on_c, 4, 55, 0
6, 52800, Note_on_c, 4, 54, 100
6, 52896, Note_on_c, 4, 54, 0
6, 52896, Note_on_c, 4, 52, 100
6, 52992, Note_on_c, 4, 52, 0
6, 52992, Note_on_c, 4, 51, 100
6, 53088, Note_on_c, 4, 51, 0
6, 53088, Note_on_c, 4, 47, 100
6, 53184, Note_on_c, 4, 47, 0
6, 53184, Note_on_c, 4, 49, 100
6, 53280, Note_on_c, 4, 49, 0
6, 53280, Note_on_c, 4, 51, 100
6, 53376, Note_on_c, 4, 51, 0
6, 53376, Note_on_c, 4, 52, 100
6, 53472, Note_on_c, 4, 52, 0
6, 53472, Note_on_c, 4, 54, 100
6, 53568, Note_on_c, 4, 54, 0
6, 53568, Note_on_c, 4, 55, 100
6, 53664, Note_on_c, 4, 55, 0
6, 53664, Note_on_c, 4, 52, 100
6, 53760, Note_on_c, 4, 52, 0
6, 53760, Note_on_c, 4, 48, 100
6, 53952, Note_on_c, 4, 48, 0
6, 53952, Note_on_c, 4, 47, 100
6, 54144, Note_on_c, 4, 47, 0
6, 54144, Note_on_c, 4, 48, 100
6, 54336, Note_on_c, 4, 48, 0
6, 54336, Note_on_c, 4, 45, 100
6, 54528, Note_on_c, 4, 45, 0
6, 54528, Note_on_c, 4, 47, 100
6, 54816, Note_on_c, 4, 47, 0
6, 54816, Note_on_c, 4, 49, 100
6, 54864, Note_on_c, 4, 49, 0
6, 54864, Note_on_c, 4, 51, 100
6, 54912, Note_on_c, 4, 51, 0
6, 54912, Note_on_c, 4, 52, 100
6, 55008, Note_on_c, 4, 52, 0
6, 55008, Note_on_c, 4, 54, 100
6, 55104, Note_on_c, 4, 54, 0
6, 55104, Note_on_c, 4, 55, 100
6, 55200, Note_on_c, 4, 55, 0
6, 55200, Note_on_c, 4, 57, 100
6, 55296, Note_on_c, 4, 57, 0
6, 55296, Note_on_c, 4, 59, 100
6, 55488, Note_on_c, 4, 59, 0
6, 55488, Note_on_c, 4, 57, 100
6, 55680, Note_on_c, 4, 57, 0
6, 55680, Note_on_c, 4, 59, 100
6, 55872, Note_on_c, 4, 59, 0
6, 55872, Note_on_c, 4, 47, 100
6, 56064, Note_on_c, 4, 47, 0
6, 56064, Note_on_c, 4, 57, 100
6, 56256, Note_on_c, 4, 57, 0
6, 56256, Note_on_c, 4, 59, 100
6, 56448, Note_on_c, 4, 59, 0
6, 56448, Note_on_c, 4, 57, 100
6, 56640, Note_on_c, 4, 57, 0
6, 56640, Note_on_c, 4, 55, 100
6, 56832, Note_on_c, 4, 55, 0
6, 56832, Note_on_c, 4, 54, 100
6, 57024, Note_on_c, 4, 54, 0
6, 57024, Note_on_c, 4, 55, 100
6, 57216, Note_on_c, 4, 55, 0
6, 57216, Note_on_c, 4, 54, 100
6, 57408, Note_on_c, 4, 54, 0
6, 57408, Note_on_c, 4, 52, 100
6, 57600, Note_on_c, 4, 52, 0
6, 57600, Note_on_c, 4, 51, 100
6, 57792, Note_on_c, 4, 51, 0
6, 57792, Note_on_c, 4, 52, 100
6, 57984, Note_on_c, 4, 52, 0
6, 57984, Note_on_c, 4, 54, 100
6, 58176, Note_on_c, 4, 54, 0
6, 58176, Note_on_c, 4, 55, 100
6, 58368, Note_on_c, 4, 55, 0
6, 58368, Note_on_c, 4, 57, 100
6, 58560, Note_on_c, 4, 57, 0
6, 58560, Note_on_c, 4, 59, 100
6, 58752, Note_on_c, 4, 59, 0
6, 58752, Note_on_c, 4, 60, 100
6, 58944, Note_on_c, 4, 60, 0
6, 58944, Note_on_c, 4, 54, 100
6, 59136, Note_on_c, 4, 54, 0
6, 59136, Note_on_c, 4, 59, 100
6, 59328, Note_on_c, 4, 59, 0
6, 59328, Note_on_c, 4, 57, 100
6, 59424, Note_on_c, 4, 57, 0
6, 59424, Note_on_c, 4, 55, 100
6, 59520, Note_on_c, 4, 55, 0
6, 59520, Note_on_c, 4, 54, 100
6, 59712, Note_on_c, 4, 54, 0
6, 59712, Note_on_c, 4, 52, 100
6, 59904, Note_on_c, 4, 52, 0
6, 59904, Note_on_c, 4, 51, 100
6, 60096, Note_on_c, 4, 51, 0
6, 60096, Note_on_c, 4, 49, 100
6, 60288, Note_on_c, 4, 49, 0
6, 60288, Note_on_c, 4, 47, 100
6, 60480, Note_on_c, 4, 47, 0
6, 60480, Note_on_c, 4, 45, 100
6, 60672, Note_on_c, 4, 45, 0
6, 60672, Note_on_c, 4, 43, 100
6, 60864, Note_on_c, 4, 43, 0
6, 60864, Note_on_c, 4, 48, 100
6, 61056, Note_on_c, 4, 48, 0
6, 61056, Note_on_c, 4, 45, 100
6, 61248, Note_on_c, 4, 45, 0
6, 61248, Note_on_c, 4, 47, 100
6, 61440, Note_on_c, 4, 47, 0
6, 61440, Note_on_c, 4, 36, 100
6, 61824, Note_on_c, 4, 36, 0
6, 62016, Note_on_c, 4, 60, 100
6, 62208, Note_on_c, 4, 60, 0
6, 62208, Note_on_c, 4, 51, 100
6, 62400, Note_on_c, 4, 51, 0
6, 62400, Note_on_c, 4, 51, 100
6, 62592, Note_on_c, 4, 51, 0
6, 62592, Note_on_c, 4, 51, 100
6, 62784, Note_on_c, 4, 51, 0
6, 62784, Note_on_c, 4, 54, 100
6, 62976, Note_on_c, 4, 54, 0
6, 62976, Note_on_c, 4, 45, 100
6, 63168, Note_on_c, 4, 45, 0
6, 63168, Note_on_c, 4, 45, 100
6, 63360, Note_on_c, 4, 45, 0
6, 63360, Note_on_c, 4, 45, 100
6, 63552, Note_on_c, 4, 45, 0
6, 63552, Note_on_c, 4, 48, 100
6, 63744, Note_on_c, 4, 48, 0
6, 63744, Note_on_c, 4, 42, 100
6, 63936, Note_on_c, 4, 42, 0
6, 63936, Note_on_c, 4, 43, 100
6, 64032, Note_on_c, 4, 43, 0
6, 64032, Note_on_c, 4, 45, 100
6, 64128, Note_on_c, 4, 45, 0
6, 64128, Note_on_c, 4, 47, 100
6, 64320, Note_on_c, 4, 47, 0
6, 64320, Note_on_c, 4, 47, 100
6, 64512, Note_on_c, 4, 47, 0
6, 64512, Note_on_c, 4, 40, 100
6, 64704, Note_on_c, 4, 40, 0
6, 64704, Note_on_c, 4, 52, 100
6, 64800, Note_on_c, 4, 52, 0
6, 64800, Note_on_c, 4, 51, 100
6, 64896, Note_on_c, 4, 51, 0
6, 64896, Note_on_c, 4, 52, 100
6, 65088, Note_on_c, 4, 52, 0
6, 65088, Note_on_c, 4, 54, 100
6, 65280, Note_on_c, 4, 54, 0
6, 65280, Note_on_c, 4, 55, 100
6, 65664, Note_on_c, 4, 55, 0
6, 65856, Note_on_c, 4, 52, 100
6, 66048, Note_on_c, 4, 52, 0
6, 66048, Note_on_c, 4, 59, 100
6, 66432, Note_on_c, 4, 59, 0
6, 66624, Note_on_c, 4, 47, 100
6, 66816, Note_on_c, 4, 47, 0
6, 66816, Note_on_c, 4, 39, 100
6, 67200, Note_on_c, 4, 39, 0
6, 67392, Note_on_c, 4, 47, 100
6, 67584, Note_on_c, 4, 47, 0
6, 67584, Note_on_c, 4, 52, 100
6, 67968, Note_on_c, 4, 52, 0
6, 69312, Note_on_c, 4, 52, 100
6, 69504, Note_on_c, 4, 52, 0
6, 69504, Note_on_c, 4, 40, 100
6, 69696, Note_on_c, 4, 40, 0
6, 69696, Note_on_c, 4, 52, 100
6, 69888, Note_on_c, 4, 52, 0
6, 69888, Note_on_c, 4, 45, 100
6, 70272, Note_on_c, 4, 45, 0
6, 70848, Note_on_c, 4, 57, 100
6, 71040, Note_on_c, 4, 57, 0
6, 71040, Note_on_c, 4, 45, 100
6, 71232, Note_on_c, 4, 45, 0
6, 71232, Note_on_c, 4, 57, 100
6, 71424, Note_on_c, 4, 57, 0
6, 71424, Note_on_c, 4, 50, 100
6, 71808, Note_on_c, 4, 50, 0
6, 72384, Note_on_c, 4, 50, 100
6, 72576, Note_on_c, 4, 50, 0
6, 72576, Note_on_c, 4, 38, 100
6, 72768, Note_on_c, 4, 38, 0
6, 72768, Note_on_c, 4, 50, 100
6, 72960, Note_on_c, 4, 50, 0
6, 72960, Note_on_c, 4, 43, 100
6, 73344, Note_on_c, 4, 43, 0
6, 73920, Note_on_c, 4, 55, 100
6, 74112, Note_on_c, 4, 55, 0
6, 74112, Note_on_c, 4, 43, 100
6, 74304, Note_on_c, 4, 43, 0
6, 74304, Note_on_c, 4, 55, 100
6, 74496, Note_on_c, 4, 55, 0
6, 74496, Note_on_c, 4, 48, 100
6, 74880, Note_on_c, 4, 48, 0
6, 74880, Note_on_c, 4, 58, 100
6, 75264, Note_on_c, 4, 58, 0
6, 75264, Note_on_c, 4, 57, 100
6, 75648, Note_on_c, 4, 57, 0
6, 75648, Note_on_c, 4, 55, 100
6, 76032, Note_on_c, 4, 55, 0
6, 76032, Note_on_c, 4, 53, 100
6, 76224, Note_on_c, 4, 53, 0
6, 76224, Note_on_c, 4, 52, 100
6, 76416, Note_on_c, 4, 52, 0
6, 76416, Note_on_c, 4, 50, 100
6, 76608, Note_on_c, 4, 50, 0
6, 76608, Note_on_c, 4, 53, 100
6, 76800, Note_on_c, 4, 53, 0
6, 76800, Note_on_c, 4, 55, 100
6, 76992, Note_on_c, 4, 55, 0
6, 76992, Note_on_c, 4, 53, 100
6, 77184, Note_on_c, 4, 53, 0
6, 77184, Note_on_c, 4, 52, 100
6, 77376, Note_on_c, 4, 52, 0
6, 77376, Note_on_c, 4, 55, 100
6, 77568, Note_on_c, 4, 55, 0
6, 77568, Note_on_c, 4, 57, 100
6, 77760, Note_on_c, 4, 57, 0
6, 77760, Note_on_c, 4, 59, 100
6, 77952, Note_on_c, 4, 59, 0
6, 77952, Note_on_c, 4, 61, 100
6, 78144, Note_on_c, 4, 61, 0
6, 78144, Note_on_c, 4, 57, 100
6, 78336, Note_on_c, 4, 57, 0
6, 78336, Note_on_c, 4, 53, 100
6, 78528, Note_on_c, 4, 53, 0
6, 78528, Note_on_c, 4, 57, 100
6, 78720, Note_on_c, 4, 57, 0
6, 78720, Note_on_c, 4, 53, 100
6, 78912, Note_on_c, 4, 53, 0
6, 78912, Note_on_c, 4, 50, 100
6, 79104, Note_on_c, 4, 50, 0
6, 79104, Note_on_c, 4, 55, 100
6, 79296, Note_on_c, 4, 55, 0
6, 79296, Note_on_c, 4, 58, 100
6, 79488, Note_on_c, 4, 58, 0
6, 79488, Note_on_c, 4, 55, 100
6, 79680, Note_on_c, 4, 55, 0
6, 79680, Note_on_c, 4, 50, 100
6, 79872, Note_on_c, 4, 50, 0
6, 79872, Note_on_c, 4, 62, 100
6, 80064, Note_on_c, 4, 62, 0
6, 80064, Note_on_c, 4, 50, 100
6, 80256, Note_on_c, 4, 50, 0
6, 80256, Note_on_c, 4, 57, 100
6, 80448, Note_on_c, 4, 57, 0
6, 80448, Note_on_c, 4, 45, 100
6, 80640, Note_on_c, 4, 45, 0
6, 80640, Note_on_c, 4, 50, 100
6, 80832, Note_on_c, 4, 50, 0
6, 80832, Note_on_c, 4, 38, 100
6, 81024, Note_on_c, 4, 38, 0
6, 83136, Note_on_c, 4, 55, 100
6, 83232, Note_on_c, 4, 55, 0
6, 83232, Note_on_c, 4, 57, 100
6, 83328, Note_on_c, 4, 57, 0
6, 83328, Note_on_c, 4, 55, 100
6, 83424, Note_on_c, 4, 55, 0
6, 83424, Note_on_c, 4, 53, 100
6, 83520, Note_on_c, 4, 53, 0
6, 83520, Note_on_c, 4, 52, 100
6, 83616, Note_on_c, 4, 52, 0
6, 83616, Note_on_c, 4, 50, 100
6, 83712, Note_on_c, 4, 50, 0
6, 83712, Note_on_c, 4, 48, 100
6, 83904, Note_on_c, 4, 48, 0
6, 83904, Note_on_c, 4, 60, 100
6, 84096, Note_on_c, 4, 60, 0
6, 85440, Note_on_c, 4, 53, 100
6, 85536, Note_on_c, 4, 53, 0
6, 85536, Note_on_c, 4, 55, 100
6, 85632, Note_on_c, 4, 55, 0
6, 85632, Note_on_c, 4, 53, 100
6, 85728, Note_on_c, 4, 53, 0
6, 85728, Note_on_c, 4, 52, 100
6, 85824, Note_on_c, 4, 52, 0
6, 85824, Note_on_c, 4, 50, 100
6, 85920, Note_on_c, 4, 50, 0
6, 85920, Note_on_c, 4, 48, 100
6, 86016, Note_on_c, 4, 48, 0
6, 86016, Note_on_c, 4, 46, 100
6, 86208, Note_on_c, 4, 46, 0
6, 86208, Note_on_c, 4, 58, 100
6, 86400, Note_on_c, 4, 58, 0
6, 87744, Note_on_c, 4, 52, 100
6, 87840, Note_on_c, 4, 52, 0
6, 87840, Note_on_c, 4, 53, 100
6, 87936, Note_on_c, 4, 53, 0
6, 87936, Note_on_c, 4, 52, 100
6, 88032, Note_on_c, 4, 52, 0
6, 88032, Note_on_c, 4, 50, 100
6, 88128, Note_on_c, 4, 50, 0
6, 88128, Note_on_c, 4, 49, 100
6, 88224, Note_on_c, 4, 49, 0
6, 88224, Note_on_c, 4, 47, 100
6, 88320, Note_on_c, 4, 47, 0
6, 88320, Note_on_c, 4, 45, 100
6, 88512, Note_on_c, 4, 45, 0
6, 88512, Note_on_c, 4, 57, 100
6, 88704, Note_on_c, 4, 57, 0
6, 90048, Note_on_c, 4, 50, 100
6, 90240, Note_on_c, 4, 50, 0
6, 90240, Note_on_c, 4, 62, 100
6, 90432, Note_on_c, 4, 62, 0
6, 90432, Note_on_c, 4, 53, 100
6, 90624, Note_on_c, 4, 53, 0
6, 90624, Note_on_c, 4, 55, 100
6, 90816, Note_on_c, 4, 55, 0
6, 90816, Note_on_c, 4, 57, 100
6, 91008, Note_on_c, 4, 57, 0
6, 91008, Note_on_c, 4, 59, 100
6, 91200, Note_on_c, 4, 59, 0
6, 91200, Note_on_c, 4, 55, 100
6, 91392, Note_on_c, 4, 55, 0
6, 91392, Note_on_c, 4, 60, 100
6, 91584, Note_on_c, 4, 60, 0
6, 91584, Note_on_c, 4, 48, 100
6, 91776, Note_on_c, 4, 48, 0
6, 91776, Note_on_c, 4, 60, 100
6, 91968, Note_on_c, 4, 60, 0
6, 91968, Note_on_c, 4, 52, 100
6, 92160, Note_on_c, 4, 52, 0
6, 92160, Note_on_c, 4, 53, 100
6, 92352, Note_on_c, 4, 53, 0
6, 92352, Note_on_c, 4, 55, 100
6, 92544, Note_on_c, 4, 55, 0
6, 92544, Note_on_c, 4, 57, 100
6, 92736, Note_on_c, 4, 57, 0
6, 92736, Note_on_c, 4, 53, 100
6, 92928, Note_on_c, 4, 53, 0
6, 92928, Note_on_c, 4, 59, 100
6, 93120, Note_on_c, 4, 59, 0
6, 93120, Note_on_c, 4, 47, 100
6, 93312, Note_on_c, 4, 47, 0
6, 93312, Note_on_c, 4, 59, 100
6, 93504, Note_on_c, 4, 59, 0
6, 93504, Note_on_c, 4, 56, 100
6, 93696, Note_on_c, 4, 56, 0
6, 93696, Note_on_c, 4, 52, 100
6, 93888, Note_on_c, 4, 52, 0
6, 93888, Note_on_c, 4, 40, 100
6, 94080, Note_on_c, 4, 40, 0
6, 94656, Note_on_c, 4, 45, 100
6, 94848, Note_on_c, 4, 45, 0
6, 94848, Note_on_c, 4, 57, 100
6, 95232, Note_on_c, 4, 57, 0
6, 95424, Note_on_c, 4, 45, 100
6, 95616, Note_on_c, 4, 45, 0
6, 95616, Note_on_c, 4, 57, 100
6, 96000, Note_on_c, 4, 57, 0
6, 96192, Note_on_c, 4, 45, 100
6, 96384, Note_on_c, 4, 45, 0
6, 96384, Note_on_c, 4, 52, 100
6, 96576, Note_on_c, 4, 52, 0
6, 96576, Note_on_c, 4, 40, 100
6, 96768, Note_on_c, 4, 40, 0
6, 96768, Note_on_c, 4, 57, 100
6, 96960, Note_on_c, 4, 57, 0
6, 96960, Note_on_c, 4, 45, 100
6, 97152, Note_on_c, 4, 45, 0
6, 97152, Note_on_c, 4, 48, 100
6, 97344, Note_on_c, 4, 48, 0
6, 97344, Note_on_c, 4, 52, 100
6, 97536, Note_on_c, 4, 52, 0
6, 97536, Note_on_c, 4, 57, 100
6, 97920, Note_on_c, 4, 57, 0
6, 97920, Note_on_c, 4, 55, 100
6, 98304, Note_on_c, 4, 55, 0
6, 98304, Note_on_c, 4, 53, 100
6, 98688, Note_on_c, 4, 53, 0
6, 98688, Note_on_c, 4, 52, 100
6, 99072, Note_on_c, 4, 52, 0
6, 99072, Note_on_c, 4, 50, 100
6, 99456, Note_on_c, 4, 50, 0
6, 99456, Note_on_c, 4, 48, 100
6, 99840, Note_on_c, 4, 48, 0
6, 99840, Note_on_c, 4, 46, 100
6, 100224, Note_on_c, 4, 46, 0
6, 100224, Note_on_c, 4, 45, 100
6, 100608, Note_on_c, 4, 45, 0
6, 100608, Note_on_c, 4, 43, 100
6, 100992, Note_on_c, 4, 43, 0
6, 100992, Note_on_c, 4, 41, 100
6, 101376, Note_on_c, 4, 41, 0
6, 101376, Note_on_c, 4, 39, 100
6, 101760, Note_on_c, 4, 39, 0
6, 101760, Note_on_c, 4, 38, 100
6, 102144, Note_on_c, 4, 38, 0
6, 102144, Note_on_c, 4, 36, 100
6, 102336, Note_on_c, 4, 36, 0
6, 102336, Note_on_c, 4, 36, 100
6, 102528, Note_on_c, 4, 36, 0
6, 102528, Note_on_c, 4, 36, 100
6, 102720, Note_on_c, 4, 36, 0
6, 102720, Note_on_c, 4, 36, 100
6, 102912, Note_on_c, 4, 36, 0
6, 102912, Note_on_c, 4, 36, 100
6, 103104, Note_on_c, 4, 36, 0
6, 103104, Note_on_c, 4, 36, 100
6, 103296, Note_on_c, 4, 36, 0
6, 103296, Note_on_c, 4, 36, 100
6, 103488, Note_on_c, 4, 36, 0
6, 103488, Note_on_c, 4, 36, 100
6, 103680, Note_on_c, 4, 36, 0
6, 103680, Note_on_c, 4, 36, 100
6, 103872, Note_on_c, 4, 36, 0
6, 103872, Note_on_c, 4, 36, 100
6, 104064, Note_on_c, 4, 36, 0
6, 104064, Note_on_c, 4, 48, 100
6, 104256, Note_on_c, 4, 48, 0
6, 104256, Note_on_c, 4, 48, 100
6, 104448, Note_on_c, 4, 48, 0
6, 104448, Note_on_c, 4, 46, 100
6, 104640, Note_on_c, 4, 46, 0
6, 104640, Note_on_c, 4, 62, 100
6, 104832, Note_on_c, 4, 62, 0
6, 104832, Note_on_c, 4, 58, 100
6, 105024, Note_on_c, 4, 58, 0
6, 105024, Note_on_c, 4, 55, 100
6, 105216, Note_on_c, 4, 55, 0
6, 105216, Note_on_c, 4, 43, 100
6, 105408, Note_on_c, 4, 43, 0
6, 105408, Note_on_c, 4, 43, 100
6, 105600, Note_on_c, 4, 43, 0
6, 105600, Note_on_c, 4, 43, 100
6, 105792, Note_on_c, 4, 43, 0
6, 105792, Note_on_c, 4, 43, 100
6, 105984, Note_on_c, 4, 43, 0
6, 105984, Note_on_c, 4, 41, 100
6, 106176, Note_on_c, 4, 41, 0
6, 106176, Note_on_c, 4, 57, 100
6, 106368, Note_on_c, 4, 57, 0
6, 106368, Note_on_c, 4, 53, 100
6, 106560, Note_on_c, 4, 53, 0
6, 106560, Note_on_c, 4, 50, 100
6, 106752, Note_on_c, 4, 50, 0
6, 106752, Note_on_c, 4, 38, 100
6, 106944, Note_on_c, 4, 38, 0
6, 106944, Note_on_c, 4, 38, 100
6, 107136, Note_on_c, 4, 38, 0
6, 107136, Note_on_c, 4, 38, 100
6, 107328, Note_on_c, 4, 38, 0
6, 107328, Note_on_c, 4, 38, 100
6, 107520, Note_on_c, 4, 38, 0
6, 107520, Note_on_c, 4, 36, 100
6, 107712, Note_on_c, 4, 36, 0
6, 107712, Note_on_c, 4, 50, 100
6, 107904, Note_on_c, 4, 50, 0
6, 107904, Note_on_c, 4, 48, 100
6, 108096, Note_on_c, 4, 48, 0
6, 108096, Note_on_c, 4, 47, 100
6, 108288, Note_on_c, 4, 47, 0
6, 108288, Note_on_c, 4, 45, 100
6, 108480, Note_on_c, 4, 45, 0
6, 108480, Note_on_c, 4, 57, 100
6, 108672, Note_on_c, 4, 57, 0
6, 108672, Note_on_c, 4, 55, 100
6, 108864, Note_on_c, 4, 55, 0
6, 108864, Note_on_c, 4, 53, 100
6, 109056, Note_on_c, 4, 53, 0
6, 109056, Note_on_c, 4, 52, 100
6, 109248, Note_on_c, 4, 52, 0
6, 109248, Note_on_c, 4, 53, 100
6, 109440, Note_on_c, 4, 53, 0
6, 109440, Note_on_c, 4, 52, 100
6, 109632, Note_on_c, 4, 52, 0
6, 109632, Note_on_c, 4, 50, 100
6, 109824, Note_on_c, 4, 50, 0
6, 109824, Note_on_c, 4, 48, 100
6, 110016, Note_on_c, 4, 48, 0
6, 110016, Note_on_c, 4, 52, 100
6, 110208, Note_on_c, 4, 52, 0
6, 110208, Note_on_c, 4, 48, 100
6, 110400, Note_on_c, 4, 48, 0
6, 110400, Note_on_c, 4, 45, 100
6, 110592, Note_on_c, 4, 45, 0
6, 110592, Note_on_c, 4, 50, 100
6, 110784, Note_on_c, 4, 50, 0
6, 110784, Note_on_c, 4, 53, 100
6, 110976, Note_on_c, 4, 53, 0
6, 110976, Note_on_c, 4, 50, 100
6, 111168, Note_on_c, 4, 50, 0
6, 111168, Note_on_c, 4, 47, 100
6, 111360, Note_on_c, 4, 47, 0
6, 111360, Note_on_c, 4, 48, 100
6, 111552, Note_on_c, 4, 48, 0
6, 111552, Note_on_c, 4, 45, 100
6, 111744, Note_on_c, 4, 45, 0
6, 111744, Note_on_c, 4, 52, 100
6, 111936, Note_on_c, 4, 52, 0
6, 111936, Note_on_c, 4, 40, 100
6, 112128, Note_on_c, 4, 40, 0
6, 112128, Note_on_c, 4, 45, 100
6, 112320, Note_on_c, 4, 45, 0
6, 112320, Note_on_c, 4, 60, 100
6, 112416, Note_on_c, 4, 60, 0
6, 112416, Note_on_c, 4, 59, 100
6, 112512, Note_on_c, 4, 59, 0
6, 112512, Note_on_c, 4, 57, 100
6, 112608, Note_on_c, 4, 57, 0
6, 112608, Note_on_c, 4, 55, 100
6, 112704, Note_on_c, 4, 55, 0
6, 112704, Note_on_c, 4, 53, 100
6, 112800, Note_on_c, 4, 53, 0
6, 112800, Note_on_c, 4, 52, 100
6, 112896, Note_on_c, 4, 52, 0
6, 112896, Note_on_c, 4, 53, 100
6, 113088, Note_on_c, 4, 53, 0
6, 113088, Note_on_c, 4, 57, 100
6, 113280, Note_on_c, 4, 57, 0
6, 113280, Note_on_c, 4, 53, 100
6, 113472, Note_on_c, 4, 53, 0
6, 113472, Note_on_c, 4, 50, 100
6, 113664, Note_on_c, 4, 50, 0
6, 113664, Note_on_c, 4, 55, 100
6, 113856, Note_on_c, 4, 55, 0
6, 113856, Note_on_c, 4, 43, 100
6, 114048, Note_on_c, 4, 43, 0
6, 115392, Note_on_c, 4, 59, 100
6, 115488, Note_on_c, 4, 59, 0
6, 115488, Note_on_c, 4, 57, 100
6, 115584, Note_on_c, 4, 57, 0
6, 115584, Note_on_c, 4, 55, 100
6, 115680, Note_on_c, 4, 55, 0
6, 115680, Note_on_c, 4, 53, 100
6, 115776, Note_on_c, 4, 53, 0
6, 115776, Note_on_c, 4, 52, 100
6, 115872, Note_on_c, 4, 52, 0
6, 115872, Note_on_c, 4, 50, 100
6, 115968, Note_on_c, 4, 50, 0
6, 115968, Note_on_c, 4, 52, 100
6, 116160, Note_on_c, 4, 52, 0
6, 116160, Note_on_c, 4, 55, 100
6, 116352, Note_on_c, 4, 55, 0
6, 116352, Note_on_c, 4, 52, 100
6, 116544, Note_on_c, 4, 52, 0
6, 116544, Note_on_c, 4, 48, 100
6, 116736, Note_on_c, 4, 48, 0
6, 116736, Note_on_c, 4, 53, 100
6, 116928, Note_on_c, 4, 53, 0
6, 116928, Note_on_c, 4, 41, 100
6, 117120, Note_on_c, 4, 41, 0
6, 118464, Note_on_c, 4, 57, 100
6, 118560, Note_on_c, 4, 57, 0
6, 118560, Note_on_c, 4, 55, 100
6, 118656, Note_on_c, 4, 55, 0
6, 118656, Note_on_c, 4, 53, 100
6, 118752, Note_on_c, 4, 53, 0
6, 118752, Note_on_c, 4, 52, 100
6, 118848, Note_on_c, 4, 52, 0
6, 118848, Note_on_c, 4, 50, 100
6, 118944, Note_on_c, 4, 50, 0
6, 118944, Note_on_c, 4, 48, 100
6, 119040, Note_on_c, 4, 48, 0
6, 119040, Note_on_c, 4, 50, 100
6, 119136, Note_on_c, 4, 50, 0
6, 119136, Note_on_c, 4, 52, 100
6, 119232, Note_on_c, 4, 52, 0
6, 119232, Note_on_c, 4, 50, 100
6, 119328, Note_on_c, 4, 50, 0
6, 119328, Note_on_c, 4, 48, 100
6, 119424, Note_on_c, 4, 48, 0
6, 119424, Note_on_c, 4, 47, 100
6, 119520, Note_on_c, 4, 47, 0
6, 119520, Note_on_c, 4, 48, 100
6, 119616, Note_on_c, 4, 48, 0
6, 119616, Note_on_c, 4, 47, 100
6, 119712, Note_on_c, 4, 47, 0
6, 119712, Note_on_c, 4, 45, 100
6, 119808, Note_on_c, 4, 45, 0
6, 119808, Note_on_c, 4, 44, 100
6, 119904, Note_on_c, 4, 44, 0
6, 119904, Note_on_c, 4, 40, 100
6, 120000, Note_on_c, 4, 40, 0
6, 120000, Note_on_c, 4, 42, 100
6, 120096, Note_on_c, 4, 42, 0
6, 120096, Note_on_c, 4, 44, 100
6, 120192, Note_on_c, 4, 44, 0
6, 120192, Note_on_c, 4, 45, 100
6, 120288, Note_on_c, 4, 45, 0
6, 120288, Note_on_c, 4, 47, 100
6, 120384, Note_on_c, 4, 47, 0
6, 120384, Note_on_c, 4, 48, 100
6, 120480, Note_on_c, 4, 48, 0
6, 120480, Note_on_c, 4, 45, 100
6, 120576, Note_on_c, 4, 45, 0
6, 120576, Note_on_c, 4, 41, 100
6, 120768, Note_on_c, 4, 41, 0
6, 120768, Note_on_c, 4, 48, 100
6, 120960, Note_on_c, 4, 48, 0
6, 120960, Note_on_c, 4, 50, 100
6, 121152, Note_on_c, 4, 50, 0
6, 121152, Note_on_c, 4, 47, 100
6, 121344, Note_on_c, 4, 47, 0
6, 121344, Note_on_c, 4, 52, 100
6, 121632, Note_on_c, 4, 52, 0
6, 121632, Note_on_c, 4, 54, 100
6, 121680, Note_on_c, 4, 54, 0
6, 121680, Note_on_c, 4, 56, 100
6, 121728, Note_on_c, 4, 56, 0
6, 121728, Note_on_c, 4, 57, 100
6, 121824, Note_on_c, 4, 57, 0
6, 121824, Note_on_c, 4, 59, 100
6, 121920, Note_on_c, 4, 59, 0
6, 121920, Note_on_c, 4, 60, 100
6, 122016, Note_on_c, 4, 60, 0
6, 122016, Note_on_c, 4, 62, 100
6, 122112, Note_on_c, 4, 62, 0
6, 122112, Note_on_c, 4, 64, 100
6, 122304, Note_on_c, 4, 64, 0
6, 122304, Note_on_c, 4, 62, 100
6, 122496, Note_on_c, 4, 62, 0
6, 122496, Note_on_c, 4, 64, 100
6, 122688, Note_on_c, 4, 64, 0
6, 122688, Note_on_c, 4, 52, 100
6, 122880, Note_on_c, 4, 52, 0
6, 122880, Note_on_c, 4, 62, 100
6, 123072, Note_on_c, 4, 62, 0
6, 123072, Note_on_c, 4, 64, 100
6, 123264, Note_on_c, 4, 64, 0
6, 123264, Note_on_c, 4, 62, 100
6, 123456, Note_on_c, 4, 62, 0
6, 123456, Note_on_c, 4, 60, 100
6, 123648, Note_on_c, 4, 60, 0
6, 123648, Note_on_c, 4, 59, 100
6, 123840, Note_on_c, 4, 59, 0
6, 123840, Note_on_c, 4, 60, 100
6, 124032, Note_on_c, 4, 60, 0
6, 124032, Note_on_c, 4, 59, 100
6, 124224, Note_on_c, 4, 59, 0
6, 124224, Note_on_c, 4, 57, 100
6, 124416, Note_on_c, 4, 57, 0
6, 124416, Note_on_c, 4, 56, 100
6, 124608, Note_on_c, 4, 56, 0
6, 124608, Note_on_c, 4, 57, 100
6, 124800, Note_on_c, 4, 57, 0
6, 124800, Note_on_c, 4, 59, 100
6, 124992, Note_on_c, 4, 59, 0
6, 124992, Note_on_c, 4, 60, 100
6, 125184, Note_on_c, 4, 60, 0
6, 125184, Note_on_c, 4, 50, 100
6, 125376, Note_on_c, 4, 50, 0
6, 125376, Note_on_c, 4, 52, 100
6, 125568, Note_on_c, 4, 52, 0
6, 125568, Note_on_c, 4, 53, 100
6, 125760, Note_on_c, 4, 53, 0
6, 125760, Note_on_c, 4, 47, 100
6, 125952, Note_on_c, 4, 47, 0
6, 125952, Note_on_c, 4, 52, 100
6, 126144, Note_on_c, 4, 52, 0
6, 126144, Note_on_c, 4, 50, 100
6, 126240, Note_on_c, 4, 50, 0
6, 126240, Note_on_c, 4, 48, 100
6, 126336, Note_on_c, 4, 48, 0
6, 126336, Note_on_c, 4, 47, 100
6, 126528, Note_on_c, 4, 47, 0
6, 126528, Note_on_c, 4, 45, 100
6, 126720, Note_on_c, 4, 45, 0
6, 126720, Note_on_c, 4, 44, 100
6, 126912, Note_on_c, 4, 44, 0
6, 126912, Note_on_c, 4, 42, 100
6, 127104, Note_on_c, 4, 42, 0
6, 127104, Note_on_c, 4, 40, 100
6, 127296, Note_on_c, 4, 40, 0
6, 127296, Note_on_c, 4, 38, 100
6, 127488, Note_on_c, 4, 38, 0
6, 127488, Note_on_c, 4, 36, 100
6, 127680, Note_on_c, 4, 36, 0
6, 127680, Note_on_c, 4, 53, 100
6, 127872, Note_on_c, 4, 53, 0
6, 127872, Note_on_c, 4, 50, 100
6, 128064, Note_on_c, 4, 50, 0
6, 128064, Note_on_c, 4, 52, 100
6, 128256, Note_on_c, 4, 52, 0
6, 128256, Note_on_c, 4, 41, 100
6, 128640, Note_on_c, 4, 41, 0
6, 128832, Note_on_c, 4, 53, 100
6, 129024, Note_on_c, 4, 53, 0
6, 129024, Note_on_c, 4, 44, 100
6, 129216, Note_on_c, 4, 44, 0
6, 129216, Note_on_c, 4, 44, 100
6, 129408, Note_on_c, 4, 44, 0
6, 129408, Note_on_c, 4, 44, 100
6, 129600, Note_on_c, 4, 44, 0
6, 129600, Note_on_c, 4, 59, 100
6, 129792, Note_on_c, 4, 59, 0
6, 129792, Note_on_c, 4, 50, 100
6, 129984, Note_on_c, 4, 50, 0
6, 129984, Note_on_c, 4, 50, 100
6, 130176, Note_on_c, 4, 50, 0
6, 130176, Note_on_c, 4, 50, 100
6, 130368, Note_on_c, 4, 50, 0
6, 130368, Note_on_c, 4, 53, 100
6, 130560, Note_on_c, 4, 53, 0
6, 130560, Note_on_c, 4, 47, 100
6, 130752, Note_on_c, 4, 47, 0
6, 130752, Note_on_c, 4, 48, 100
6, 130848, Note_on_c, 4, 48, 0
6, 130848, Note_on_c, 4, 50, 100
6, 130944, Note_on_c, 4, 50, 0
6, 130944, Note_on_c, 4, 52, 100
6, 131136, Note_on_c, 4, 52, 0
6, 131136, Note_on_c, 4, 40, 100
6, 131328, Note_on_c, 4, 40, 0
6, 131328, Note_on_c, 4, 45, 100
6, 131904, Note_on_c, 4, 45, 0
6, 131904, End_track
7, 0, Start_track
7, 0, MIDI_port, 0
7, 0, Title_t, "Violone"
7, 0, Program_c, 5, 43
7, 0, Control_c, 5, 7, 100
7, 0, Control_c, 5, 10, 64
7, 960, Note_on_c, 5, 33, 100
7, 1152, Note_on_c, 5, 33, 0
7, 1152, Note_on_c, 5, 45, 100
7, 1536, Note_on_c, 5, 45, 0
7, 1728, Note_on_c, 5, 33, 100
7, 1920, Note_on_c, 5, 33, 0
7, 1920, Note_on_c, 5, 45, 100
7, 2304, Note_on_c, 5, 45, 0
7, 2496, Note_on_c, 5, 33, 100
7, 2688, Note_on_c, 5, 33, 0
7, 2688, Note_on_c, 5, 40, 100
7, 2880, Note_on_c, 5, 40, 0
7, 2880, Note_on_c, 5, 28, 100
7, 3072, Note_on_c, 5, 28, 0
7, 3072, Note_on_c, 5, 33, 100
7, 3264, Note_on_c, 5, 33, 0
7, 3264, Note_on_c, 5, 45, 100
7, 3360, Note_on_c, 5, 45, 0
7, 3360, Note_on_c, 5, 47, 100
7, 3456, Note_on_c, 5, 47, 0
7, 3456, Note_on_c, 5, 48, 100
7, 3648, Note_on_c, 5, 48, 0
7, 3648, Note_on_c, 5, 45, 100
7, 3840, Note_on_c, 5, 45, 0
7, 3840, Note_on_c, 5, 44, 100
7, 4032, Note_on_c, 5, 44, 0
7, 4032, Note_on_c, 5, 40, 100
7, 4224, Note_on_c, 5, 40, 0
7, 4224, Note_on_c, 5, 45, 100
7, 4416, Note_on_c, 5, 45, 0
7, 4416, Note_on_c, 5, 40, 100
7, 4608, Note_on_c, 5, 40, 0
7, 4608, Note_on_c, 5, 47, 100
7, 4800, Note_on_c, 5, 47, 0
7, 4800, Note_on_c, 5, 40, 100
7, 4992, Note_on_c, 5, 40, 0
7, 4992, Note_on_c, 5, 48, 100
7, 5184, Note_on_c, 5, 48, 0
7, 5184, Note_on_c, 5, 40, 100
7, 5376, Note_on_c, 5, 40, 0
7, 5376, Note_on_c, 5, 50, 100
7, 5568, Note_on_c, 5, 50, 0
7, 5568, Note_on_c, 5, 38, 100
7, 5760, Note_on_c, 5, 38, 0
7, 5760, Note_on_c, 5, 40, 100
7, 5952, Note_on_c, 5, 40, 0
7, 5952, Note_on_c, 5, 41, 100
7, 6144, Note_on_c, 5, 41, 0
7, 6144, Note_on_c, 5, 40, 100
7, 6336, Note_on_c, 5, 40, 0
7, 6336, Note_on_c, 5, 28, 100
7, 6528, Note_on_c, 5, 28, 0
7, 6720, Note_on_c, 5, 52, 100
7, 6816, Note_on_c, 5, 52, 0
7, 6816, Note_on_c, 5, 50, 100
7, 6912, Note_on_c, 5, 50, 0
7, 6912, Note_on_c, 5, 48, 100
7, 7104, Note_on_c, 5, 48, 0
7, 7104, Note_on_c, 5, 52, 100
7, 7296, Note_on_c, 5, 52, 0
7, 7296, Note_on_c, 5, 48, 100
7, 7488, Note_on_c, 5, 48, 0
7, 7488, Note_on_c, 5, 45, 100
7, 7680, Note_on_c, 5, 45, 0
7, 7680, Note_on_c, 5, 50, 100
7, 7872, Note_on_c, 5, 50, 0
7, 7872, Note_on_c, 5, 38, 100
7, 8064, Note_on_c, 5, 38, 0
7, 8256, Note_on_c, 5, 50, 100
7, 8352, Note_on_c, 5, 50, 0
7, 8352, Note_on_c, 5, 48, 100
7, 8448, Note_on_c, 5, 48, 0
7, 8448, Note_on_c, 5, 47, 100
7, 8640, Note_on_c, 5, 47, 0
7, 8640, Note_on_c, 5, 50, 100
7, 8832, Note_on_c, 5, 50, 0
7, 8832, Note_on_c, 5, 47, 100
7, 9024, Note_on_c, 5, 47, 0
7, 9024, Note_on_c, 5, 43, 100
7, 9216, Note_on_c, 5, 43, 0
7, 9216, Note_on_c, 5, 48, 100
7, 9408, Note_on_c, 5, 48, 0
7, 9408, Note_on_c, 5, 36, 100
7, 9600, Note_on_c, 5, 36, 0
7, 9792, Note_on_c, 5, 48, 100
7, 9888, Note_on_c, 5, 48, 0
7, 9888, Note_on_c, 5, 47, 100
7, 9984, Note_on_c, 5, 47, 0
7, 9984, Note_on_c, 5, 45, 100
7, 10080, Note_on_c, 5, 45, 0
7, 10080, Note_on_c, 5, 47, 100
7, 10176, Note_on_c, 5, 47, 0
7, 10176, Note_on_c, 5, 45, 100
7, 10272, Note_on_c, 5, 45, 0
7, 10272, Note_on_c, 5, 43, 100
7, 10368, Note_on_c, 5, 43, 0
7, 10368, Note_on_c, 5, 42, 100
7, 10464, Note_on_c, 5, 42, 0
7, 10464, Note_on_c, 5, 43, 100
7, 10560, Note_on_c, 5, 43, 0
7, 10560, Note_on_c, 5, 42, 100
7, 10656, Note_on_c, 5, 42, 0
7, 10656, Note_on_c, 5, 40, 100
7, 10752, Note_on_c, 5, 40, 0
7, 10752, Note_on_c, 5, 39, 100
7, 10848, Note_on_c, 5, 39, 0
7, 10848, Note_on_c, 5, 35, 100
7, 10944, Note_on_c, 5, 35, 0
7, 10944, Note_on_c, 5, 37, 100
7, 11040, Note_on_c, 5, 37, 0
7, 11040, Note_on_c, 5, 39, 100
7, 11136, Note_on_c, 5, 39, 0
7, 11136, Note_on_c, 5, 40, 100
7, 11232, Note_on_c, 5, 40, 0
7, 11232, Note_on_c, 5, 42, 100
7, 11328, Note_on_c, 5, 42, 0
7, 11328, Note_on_c, 5, 43, 100
7, 11424, Note_on_c, 5, 43, 0
7, 11424, Note_on_c, 5, 40, 100
7, 11520, Note_on_c, 5, 40, 0
7, 11520, Note_on_c, 5, 36, 100
7, 11712, Note_on_c, 5, 36, 0
7, 11712, Note_on_c, 5, 35, 100
7, 11904, Note_on_c, 5, 35, 0
7, 11904, Note_on_c, 5, 36, 100
7, 12096, Note_on_c, 5, 36, 0
7, 12096, Note_on_c, 5, 33, 100
7, 12288, Note_on_c, 5, 33, 0
7, 12288, Note_on_c, 5, 35, 100
7, 12576, Note_on_c, 5, 35, 0
7, 12576, Note_on_c, 5, 37, 100
7, 12624, Note_on_c, 5, 37, 0
7, 12624, Note_on_c, 5, 39, 100
7, 12672, Note_on_c, 5, 39, 0
7, 12672, Note_on_c, 5, 40, 100
7, 12768, Note_on_c, 5, 40, 0
7, 12768, Note_on_c, 5, 42, 100
7, 12864, Note_on_c, 5, 42, 0
7, 12864, Note_on_c, 5, 43, 100
7, 12960, Note_on_c, 5, 43, 0
7, 12960, Note_on_c, 5, 45, 100
7, 13056, Note_on_c, 5, 45, 0
7, 13056, Note_on_c, 5, 47, 100
7, 13248, Note_on_c, 5, 47, 0
7, 13248, Note_on_c, 5, 45, 100
7, 13440, Note_on_c, 5, 45, 0
7, 13440, Note_on_c, 5, 47, 100
7, 13632, Note_on_c, 5, 47, 0
7, 13632, Note_on_c, 5, 35, 100
7, 13824, Note_on_c, 5, 35, 0
7, 13824, Note_on_c, 5, 45, 100
7, 14016, Note_on_c, 5, 45, 0
7, 14016, Note_on_c, 5, 43, 100
7, 14208, Note_on_c, 5, 43, 0
7, 14208, Note_on_c, 5, 45, 100
7, 14400, Note_on_c, 5, 45, 0
7, 14400, Note_on_c, 5, 33, 100
7, 14592, Note_on_c, 5, 33, 0
7, 14592, Note_on_c, 5, 31, 100
7, 14784, Note_on_c, 5, 31, 0
7, 14784, Note_on_c, 5, 36, 100
7, 14976, Note_on_c, 5, 36, 0
7, 14976, Note_on_c, 5, 33, 100
7, 15168, Note_on_c, 5, 33, 0
7, 15168, Note_on_c, 5, 35, 100
7, 15360, Note_on_c, 5, 35, 0
7, 15360, Note_on_c, 5, 28, 100
7, 15744, Note_on_c, 5, 28, 0
7, 15936, Note_on_c, 5, 48, 100
7, 16128, Note_on_c, 5, 48, 0
7, 16128, Note_on_c, 5, 39, 100
7, 16320, Note_on_c, 5, 39, 0
7, 16320, Note_on_c, 5, 39, 100
7, 16512, Note_on_c, 5, 39, 0
7, 16512, Note_on_c, 5, 39, 100
7, 16704, Note_on_c, 5, 39, 0
7, 16704, Note_on_c, 5, 42, 100
7, 16896, Note_on_c, 5, 42, 0
7, 16896, Note_on_c, 5, 33, 100
7, 17088, Note_on_c, 5, 33, 0
7, 17088, Note_on_c, 5, 33, 100
7, 17280, Note_on_c, 5, 33, 0
7, 17280, Note_on_c, 5, 33, 100
7, 17472, Note_on_c, 5, 33, 0
7, 17472, Note_on_c, 5, 36, 100
7, 17664, Note_on_c, 5, 36, 0
7, 17664, Note_on_c, 5, 30, 100
7, 17856, Note_on_c, 5, 30, 0
7, 17856, Note_on_c, 5, 28, 100
7, 18048, Note_on_c, 5, 28, 0
7, 18048, Note_on_c, 5, 35, 100
7, 18240, Note_on_c, 5, 35, 0
7, 18240, Note_on_c, 5, 35, 100
7, 18432, Note_on_c, 5, 35, 0
7, 18432, Note_on_c, 5, 28, 100
7, 18624, Note_on_c, 5, 28, 0
7, 18624, Note_on_c, 5, 40, 100
7, 18720, Note_on_c, 5, 40, 0
7, 18720, Note_on_c, 5, 38, 100
7, 18816, Note_on_c, 5, 38, 0
7, 18816, Note_on_c, 5, 36, 100
7, 19008, Note_on_c, 5, 36, 0
7, 19008, Note_on_c, 5, 35, 100
7, 19200, Note_on_c, 5, 35, 0
7, 19200, Note_on_c, 5, 33, 100
7, 19584, Note_on_c, 5, 33, 0
7, 19776, Note_on_c, 5, 45, 100
7, 19968, Note_on_c, 5, 45, 0
7, 19968, Note_on_c, 5, 52, 100
7, 20352, Note_on_c, 5, 52, 0
7, 20544, Note_on_c, 5, 40, 100
7, 20736, Note_on_c, 5, 40, 0
7, 20736, Note_on_c, 5, 32, 100
7, 21120, Note_on_c, 5, 32, 0
7, 21312, Note_on_c, 5, 40, 100
7, 21504, Note_on_c, 5, 40, 0
7, 21504, Note_on_c, 5, 45, 100
7, 21888, Note_on_c, 5, 45, 0
7, 22080, Note_on_c, 5, 45, 100
7, 22272, Note_on_c, 5, 45, 0
7, 22272, Note_on_c, 5, 33, 100
7, 22464, Note_on_c, 5, 33, 0
7, 22464, Note_on_c, 5, 36, 100
7, 22656, Note_on_c, 5, 36, 0
7, 22656, Note_on_c, 5, 38, 100
7, 22848, Note_on_c, 5, 38, 0
7, 22848, Note_on_c, 5, 41, 100
7, 23040, Note_on_c, 5, 41, 0
7, 23040, Note_on_c, 5, 31, 100
7, 23232, Note_on_c, 5, 31, 0
7, 23232, Note_on_c, 5, 35, 100
7, 23424, Note_on_c, 5, 35, 0
7, 23424, Note_on_c, 5, 36, 100
7, 23616, Note_on_c, 5, 36, 0
7, 23616, Note_on_c, 5, 40, 100
7, 23808, Note_on_c, 5, 40, 0
7, 23808, Note_on_c, 5, 41, 100
7, 24000, Note_on_c, 5, 41, 0
7, 24000, Note_on_c, 5, 45, 100
7, 24192, Note_on_c, 5, 45, 0
7, 24192, Note_on_c, 5, 35, 100
7, 24384, Note_on_c, 5, 35, 0
7, 24384, Note_on_c, 5, 38, 100
7, 24576, Note_on_c, 5, 38, 0
7, 24576, Note_on_c, 5, 28, 100
7, 24768, Note_on_c, 5, 28, 0
7, 24768, Note_on_c, 5, 40, 100
7, 24960, Note_on_c, 5, 40, 0
7, 24960, Note_on_c, 5, 44, 100
7, 25152, Note_on_c, 5, 44, 0
7, 25152, Note_on_c, 5, 40, 100
7, 25344, Note_on_c, 5, 40, 0
7, 25536, Note_on_c, 5, 45, 100
7, 25728, Note_on_c, 5, 45, 0
7, 25728, Note_on_c, 5, 48, 100
7, 25920, Note_on_c, 5, 48, 0
7, 25920, Note_on_c, 5, 45, 100
7, 26112, Note_on_c, 5, 45, 0
7, 26304, Note_on_c, 5, 45, 100
7, 26496, Note_on_c, 5, 45, 0
7, 26496, Note_on_c, 5, 41, 100
7, 26688, Note_on_c, 5, 41, 0
7, 26688, Note_on_c, 5, 38, 100
7, 26880, Note_on_c, 5, 38, 0
7, 27072, Note_on_c, 5, 43, 100
7, 27264, Note_on_c, 5, 43, 0
7, 27264, Note_on_c, 5, 47, 100
7, 27456, Note_on_c, 5, 47, 0
7, 27456, Note_on_c, 5, 43, 100
7, 27648, Note_on_c, 5, 43, 0
7, 27840, Note_on_c, 5, 43, 100
7, 28032, Note_on_c, 5, 43, 0
7, 28032, Note_on_c, 5, 40, 100
7, 28224, Note_on_c, 5, 40, 0
7, 28224, Note_on_c, 5, 36, 100
7, 28416, Note_on_c, 5, 36, 0
7, 28608, Note_on_c, 5, 41, 100
7, 28800, Note_on_c, 5, 41, 0
7, 28800, Note_on_c, 5, 45, 100
7, 28992, Note_on_c, 5, 45, 0
7, 28992, Note_on_c, 5, 41, 100
7, 29184, Note_on_c, 5, 41, 0
7, 29376, Note_on_c, 5, 41, 100
7, 29568, Note_on_c, 5, 41, 0
7, 29568, Note_on_c, 5, 38, 100
7, 29760, Note_on_c, 5, 38, 0
7, 29760, Note_on_c, 5, 35, 100
7, 29952, Note_on_c, 5, 35, 0
7, 30144, Note_on_c, 5, 40, 100
7, 30336, Note_on_c, 5, 40, 0
7, 30336, Note_on_c, 5, 44, 100
7, 30528, Note_on_c, 5, 44, 0
7, 30528, Note_on_c, 5, 40, 100
7, 30720, Note_on_c, 5, 40, 0
7, 30912, Note_on_c, 5, 40, 100
7, 31104, Note_on_c, 5, 40, 0
7, 31104, Note_on_c, 5, 36, 100
7, 31296, Note_on_c, 5, 36, 0
7, 31296, Note_on_c, 5, 33, 100
7, 31488, Note_on_c, 5, 33, 0
7, 31488, Note_on_c, 5, 45, 100
7, 31872, Note_on_c, 5, 45, 0
7, 32064, Note_on_c, 5, 33, 100
7, 32256, Note_on_c, 5, 33, 0
7, 32256, Note_on_c, 5, 45, 100
7, 32448, Note_on_c, 5, 45, 0
7, 32448, Note_on_c, 5, 33, 100
7, 32640, Note_on_c, 5, 33, 0
7, 32640, Note_on_c, 5, 40, 100
7, 32832, Note_on_c, 5, 40, 0
7, 32832, Note_on_c, 5, 28, 100
7, 33024, Note_on_c, 5, 28, 0
7, 33024, Note_on_c, 5, 33, 100
7, 33216, Note_on_c, 5, 33, 0
7, 33216, Note_on_c, 5, 45, 100
7, 33312, Note_on_c, 5, 45, 0
7, 33312, Note_on_c, 5, 47, 100
7, 33408, Note_on_c, 5, 47, 0
7, 33408, Note_on_c, 5, 48, 100
7, 33600, Note_on_c, 5, 48, 0
7, 33600, Note_on_c, 5, 45, 100
7, 33792, Note_on_c, 5, 45, 0
7, 33792, Note_on_c, 5, 33, 100
7, 33984, Note_on_c, 5, 33, 0
7, 34752, Note_on_c, 5, 43, 100
7, 34848, Note_on_c, 5, 43, 0
7, 34848, Note_on_c, 5, 45, 100
7, 34944, Note_on_c, 5, 45, 0
7, 34944, Note_on_c, 5, 47, 100
7, 35136, Note_on_c, 5, 47, 0
7, 35136, Note_on_c, 5, 43, 100
7, 35328, Note_on_c, 5, 43, 0
7, 35328, Note_on_c, 5, 31, 100
7, 35520, Note_on_c, 5, 31, 0
7, 36288, Note_on_c, 5, 41, 100
7, 36384, Note_on_c, 5, 41, 0
7, 36384, Note_on_c, 5, 43, 100
7, 36480, Note_on_c, 5, 43, 0
7, 36480, Note_on_c, 5, 45, 100
7, 36672, Note_on_c, 5, 45, 0
7, 36672, Note_on_c, 5, 41, 100
7, 36864, Note_on_c, 5, 41, 0
7, 36864, Note_on_c, 5, 29, 100
7, 37056, Note_on_c, 5, 29, 0
7, 37824, Note_on_c, 5, 41, 100
7, 38016, Note_on_c, 5, 41, 0
7, 38016, Note_on_c, 5, 40, 100
7, 38208, Note_on_c, 5, 40, 0
7, 38208, Note_on_c, 5, 38, 100
7, 38400, Note_on_c, 5, 38, 0
7, 38400, Note_on_c, 5, 36, 100
7, 38592, Note_on_c, 5, 36, 0
7, 38592, Note_on_c, 5, 48, 100
7, 38784, Note_on_c, 5, 48, 0
7, 38784, Note_on_c, 5, 47, 100
7, 38976, Note_on_c, 5, 47, 0
7, 38976, Note_on_c, 5, 45, 100
7, 39168, Note_on_c, 5, 45, 0
7, 39168, Note_on_c, 5, 43, 100
7, 39360, Note_on_c, 5, 43, 0
7, 39360, Note_on_c, 5, 45, 100
7, 39552, Note_on_c, 5, 45, 0
7, 39552, Note_on_c, 5, 43, 100
7, 39744, Note_on_c, 5, 43, 0
7, 39744, Note_on_c, 5, 41, 100
7, 39936, Note_on_c, 5, 41, 0
7, 39936, Note_on_c, 5, 40, 100
7, 40128, Note_on_c, 5, 40, 0
7, 40128, Note_on_c, 5, 43, 100
7, 40320, Note_on_c, 5, 43, 0
7, 40320, Note_on_c, 5, 40, 100
7, 40512, Note_on_c, 5, 40, 0
7, 40512, Note_on_c, 5, 36, 100
7, 40704, Note_on_c, 5, 36, 0
7, 40704, Note_on_c, 5, 41, 100
7, 40896, Note_on_c, 5, 41, 0
7, 40896, Note_on_c, 5, 45, 100
7, 41088, Note_on_c, 5, 45, 0
7, 41088, Note_on_c, 5, 41, 100
7, 41280, Note_on_c, 5, 41, 0
7, 41280, Note_on_c, 5, 38, 100
7, 41472, Note_on_c, 5, 38, 0
7, 41472, Note_on_c, 5, 40, 100
7, 41664, Note_on_c, 5, 40, 0
7, 41664, Note_on_c, 5, 36, 100
7, 41856, Note_on_c, 5, 36, 0
7, 41856, Note_on_c, 5, 43, 100
7, 42048, Note_on_c, 5, 43, 0
7, 42048, Note_on_c, 5, 31, 100
7, 42240, Note_on_c, 5, 31, 0
7, 42240, Note_on_c, 5, 24, 100
7, 42432, Note_on_c, 5, 24, 0
7, 42432, Note_on_c, 5, 36, 100
7, 42528, Note_on_c, 5, 36, 0
7, 42528, Note_on_c, 5, 38, 100
7, 42624, Note_on_c, 5, 38, 0
7, 42624, Note_on_c, 5, 40, 100
7, 42816, Note_on_c, 5, 40, 0
7, 42816, Note_on_c, 5, 36, 100
7, 43008, Note_on_c, 5, 36, 0
7, 43008, Note_on_c, 5, 35, 100
7, 43200, Note_on_c, 5, 35, 0
7, 43200, Note_on_c, 5, 43, 100
7, 43392, Note_on_c, 5, 43, 0
7, 43392, Note_on_c, 5, 36, 100
7, 43584, Note_on_c, 5, 36, 0
7, 43584, Note_on_c, 5, 43, 100
7, 43776, Note_on_c, 5, 43, 0
7, 43776, Note_on_c, 5, 38, 100
7, 43968, Note_on_c, 5, 38, 0
7, 43968, Note_on_c, 5, 43, 100
7, 44160, Note_on_c, 5, 43, 0
7, 44160, Note_on_c, 5, 40, 100
7, 44352, Note_on_c, 5, 40, 0
7, 44352, Note_on_c, 5, 43, 100
7, 44544, Note_on_c, 5, 43, 0
7, 44544, Note_on_c, 5, 41, 100
7, 44736, Note_on_c, 5, 41, 0
7, 44736, Note_on_c, 5, 43, 100
7, 44928, Note_on_c, 5, 43, 0
7, 44928, Note_on_c, 5, 45, 100
7, 45120, Note_on_c, 5, 45, 0
7, 45120, Note_on_c, 5, 41, 100
7, 45312, Note_on_c, 5, 41, 0
7, 45312, Note_on_c, 5, 43, 100
7, 45408, Note_on_c, 5, 43, 0
7, 45408, Note_on_c, 5, 45, 100
7, 45504, Note_on_c, 5, 45, 0
7, 45504, Note_on_c, 5, 47, 100
7, 45600, Note_on_c, 5, 47, 0
7, 45600, Note_on_c, 5, 45, 100
7, 45696, Note_on_c, 5, 45, 0
7, 45696, Note_on_c, 5, 43, 100
7, 45792, Note_on_c, 5, 43, 0
7, 45792, Note_on_c, 5, 41, 100
7, 45888, Note_on_c, 5, 41, 0
7, 45888, Note_on_c, 5, 40, 100
7, 45984, Note_on_c, 5, 40, 0
7, 45984, Note_on_c, 5, 38, 100
7, 46080, Note_on_c, 5, 38, 0
7, 46080, Note_on_c, 5, 36, 100
7, 46272, Note_on_c, 5, 36, 0
7, 46272, Note_on_c, 5, 40, 100
7, 46464, Note_on_c, 5, 40, 0
7, 46464, Note_on_c, 5, 36, 100
7, 46656, Note_on_c, 5, 36, 0
7, 46656, Note_on_c, 5, 33, 100
7, 46848, Note_on_c, 5, 33, 0
7, 46848, Note_on_c, 5, 38, 100
7, 47040, Note_on_c, 5, 38, 0
7, 47040, Note_on_c, 5, 26, 100
7, 47232, Note_on_c, 5, 26, 0
7, 48576, Note_on_c, 5, 42, 100
7, 48672, Note_on_c, 5, 42, 0
7, 48672, Note_on_c, 5, 40, 100
7, 48768, Note_on_c, 5, 40, 0
7, 48768, Note_on_c, 5, 38, 100
7, 48864, Note_on_c, 5, 38, 0
7, 48864, Note_on_c, 5, 36, 100
7, 48960, Note_on_c, 5, 36, 0
7, 48960, Note_on_c, 5, 35, 100
7, 49056, Note_on_c, 5, 35, 0
7, 49056, Note_on_c, 5, 33, 100
7, 49152, Note_on_c, 5, 33, 0
7, 49152, Note_on_c, 5, 35, 100
7, 49344, Note_on_c, 5, 35, 0
7, 49344, Note_on_c, 5, 38, 100
7, 49536, Note_on_c, 5, 38, 0
7, 49536, Note_on_c, 5, 35, 100
7, 49728, Note_on_c, 5, 35, 0
7, 49728, Note_on_c, 5, 31, 100
7, 49920, Note_on_c, 5, 31, 0
7, 49920, Note_on_c, 5, 36, 100
7, 50112, Note_on_c, 5, 36, 0
7, 50112, Note_on_c, 5, 24, 100
7, 50304, Note_on_c, 5, 24, 0
7, 51648, Note_on_c, 5, 48, 100
7, 51744, Note_on_c, 5, 48, 0
7, 51744, Note_on_c, 5, 47, 100
7, 51840, Note_on_c, 5, 47, 0
7, 51840, Note_on_c, 5, 48, 100
7, 51936, Note_on_c, 5, 48, 0
7, 51936, Note_on_c, 5, 50, 100
7, 52032, Note_on_c, 5, 50, 0
7, 52032, Note_on_c, 5, 48, 100
7, 52128, Note_on_c, 5, 48, 0
7, 52128, Note_on_c, 5, 47, 100
7, 52224, Note_on_c, 5, 47, 0
7, 52224, Note_on_c, 5, 45, 100
7, 52320, Note_on_c, 5, 45, 0
7, 52320, Note_on_c, 5, 47, 100
7, 52416, Note_on_c, 5, 47, 0
7, 52416, Note_on_c, 5, 45, 100
7, 52512, Note_on_c, 5, 45, 0
7, 52512, Note_on_c, 5, 43, 100
7, 52608, Note_on_c, 5, 43, 0
7, 52608, Note_on_c, 5, 42, 100
7, 52704, Note_on_c, 5, 42, 0
7, 52704, Note_on_c, 5, 43, 100
7, 52800, Note_on_c, 5, 43, 0
7, 52800, Note_on_c, 5, 42, 100
7, 52896, Note_on_c, 5, 42, 0
7, 52896, Note_on_c, 5, 40, 100
7, 52992, Note_on_c, 5, 40, 0
7, 52992, Note_on_c, 5, 39, 100
7, 53088, Note_on_c, 5, 39, 0
7, 53088, Note_on_c, 5, 35, 100
7, 53184, Note_on_c, 5, 35, 0
7, 53184, Note_on_c, 5, 37, 100
7, 53280, Note_on_c, 5, 37, 0
7, 53280, Note_on_c, 5, 39, 100
7, 53376, Note_on_c, 5, 39, 0
7, 53376, Note_on_c, 5, 40, 100
7, 53472, Note_on_c, 5, 40, 0
7, 53472, Note_on_c, 5, 42, 100
7, 53568, Note_on_c, 5, 42, 0
7, 53568, Note_on_c, 5, 43, 100
7, 53664, Note_on_c, 5, 43, 0
7, 53664, Note_on_c, 5, 40, 100
7, 53760, Note_on_c, 5, 40, 0
7, 53760, Note_on_c, 5, 36, 100
7, 53952, Note_on_c, 5, 36, 0
7, 53952, Note_on_c, 5, 35, 100
7, 54144, Note_on_c, 5, 35, 0
7, 54144, Note_on_c, 5, 36, 100
7, 54336, Note_on_c, 5, 36, 0
7, 54336, Note_on_c, 5, 33, 100
7, 54528, Note_on_c, 5, 33, 0
7, 54528, Note_on_c, 5, 35, 100
7, 54816, Note_on_c, 5, 35, 0
7, 54816, Note_on_c, 5, 37, 100
7, 54864, Note_on_c, 5, 37, 0
7, 54864, Note_on_c, 5, 39, 100
7, 54912, Note_on_c, 5, 39, 0
7, 54912, Note_on_c, 5, 40, 100
7, 55008, Note_on_c, 5, 40, 0
7, 55008, Note_on_c, 5, 42, 100
7, 55104, Note_on_c, 5, 42, 0
7, 55104, Note_on_c, 5, 43, 100
7, 55200, Note_on_c, 5, 43, 0
7, 55200, Note_on_c, 5, 45, 100
7, 55296, Note_on_c, 5, 45, 0
7, 55296, Note_on_c, 5, 47, 100
7, 55488, Note_on_c, 5, 47, 0
7, 55488, Note_on_c, 5, 45, 100
7, 55680, Note_on_c, 5, 45, 0
7, 55680, Note_on_c, 5, 47, 100
7, 55872, Note_on_c, 5, 47, 0
7, 55872, Note_on_c, 5, 35, 100
7, 56064, Note_on_c, 5, 35, 0
7, 56064, Note_on_c, 5, 45, 100
7, 56256, Note_on_c, 5, 45, 0
7, 56256, Note_on_c, 5, 47, 100
7, 56448, Note_on_c, 5, 47, 0
7, 56448, Note_on_c, 5, 45, 100
7, 56640, Note_on_c, 5, 45, 0
7, 56640, Note_on_c, 5, 43, 100
7, 56832, Note_on_c, 5, 43, 0
7, 56832, Note_on_c, 5, 42, 100
7, 57024, Note_on_c, 5, 42, 0
7, 57024, Note_on_c, 5, 43, 100
7, 57216, Note_on_c, 5, 43, 0
7, 57216, Note_on_c, 5, 42, 100
7, 57408, Note_on_c, 5, 42, 0
7, 57408, Note_on_c, 5, 40, 100
7, 57600, Note_on_c, 5, 40, 0
7, 57600, Note_on_c, 5, 39, 100
7, 57792, Note_on_c, 5, 39, 0
7, 57792, Note_on_c, 5, 40, 100
7, 57984, Note_on_c, 5, 40, 0
7, 57984, Note_on_c, 5, 42, 100
7, 58176, Note_on_c, 5, 42, 0
7, 58176, Note_on_c, 5, 43, 100
7, 58368, Note_on_c, 5, 43, 0
7, 58368, Note_on_c, 5, 45, 100
7, 58560, Note_on_c, 5, 45, 0
7, 58560, Note_on_c, 5, 47, 100
7, 58752, Note_on_c, 5, 47, 0
7, 58752, Note_on_c, 5, 48, 100
7, 58944, Note_on_c, 5, 48, 0
7, 58944, Note_on_c, 5, 42, 100
7, 59136, Note_on_c, 5, 42, 0
7, 59136, Note_on_c, 5, 47, 100
7, 59328, Note_on_c, 5, 47, 0
7, 59328, Note_on_c, 5, 45, 100
7, 59424, Note_on_c, 5, 45, 0
7, 59424, Note_on_c, 5, 43, 100
7, 59520, Note_on_c, 5, 43, 0
7, 59520, Note_on_c, 5, 42, 100
7, 59712, Note_on_c, 5, 42, 0
7, 59712, Note_on_c, 5, 40, 100
7, 59904, Note_on_c, 5, 40, 0
7, 59904, Note_on_c, 5, 39, 100
7, 60096, Note_on_c, 5, 39, 0
7, 60096, Note_on_c, 5, 37, 100
7, 60288, Note_on_c, 5, 37, 0
7, 60288, Note_on_c, 5, 35, 100
7, 60480, Note_on_c, 5, 35, 0
7, 60480, Note_on_c, 5, 33, 100
7, 60672, Note_on_c, 5, 33, 0
7, 60672, Note_on_c, 5, 31, 100
7, 60864, Note_on_c, 5, 31, 0
7, 60864, Note_on_c, 5, 36, 100
7, 61056, Note_on_c, 5, 36, 0
7, 61056, Note_on_c, 5, 33, 100
7, 61248, Note_on_c, 5, 33, 0
7, 61248, Note_on_c, 5, 35, 100
7, 61440, Note_on_c, 5, 35, 0
7, 61440, Note_on_c, 5, 24, 100
7, 61824, Note_on_c, 5, 24, 0
7, 62016, Note_on_c, 5, 48, 100
7, 62208, Note_on_c, 5, 48, 0
7, 62208, Note_on_c, 5, 39, 100
7, 62400, Note_on_c, 5, 39, 0
7, 62400, Note_on_c, 5, 39, 100
7, 62592, Note_on_c, 5, 39, 0
7, 62592, Note_on_c, 5, 39, 100
7, 62784, Note_on_c, 5, 39, 0
7, 62784, Note_on_c, 5, 42, 100
7, 62976, Note_on_c, 5, 42, 0
7, 62976, Note_on_c, 5, 33, 100
7, 63168, Note_on_c, 5, 33, 0
7, 63168, Note_on_c, 5, 33, 100
7, 63360, Note_on_c, 5, 33, 0
7, 63360, Note_on_c, 5, 33, 100
7, 63552, Note_on_c, 5, 33, 0
7, 63552, Note_on_c, 5, 36, 100
7, 63744, Note_on_c, 5, 36, 0
7, 63744, Note_on_c, 5, 30, 100
7, 63936, Note_on_c, 5, 30, 0
7, 63936, Note_on_c, 5, 31, 100
7, 64032, Note_on_c, 5, 31, 0
7, 64032, Note_on_c, 5, 33, 100
7, 64128, Note_on_c, 5, 33, 0
7, 64128, Note_on_c, 5, 35, 100
7, 64320, Note_on_c, 5, 35, 0
7, 64320, Note_on_c, 5, 35, 100
7, 64512, Note_on_c, 5, 35, 0
7, 64512, Note_on_c, 5, 28, 100
7, 64704, Note_on_c, 5, 28, 0
7, 64704, Note_on_c, 5, 40, 100
7, 64800, Note_on_c, 5, 40, 0
7, 64800, Note_on_c, 5, 39, 100
7, 64896, Note_on_c, 5, 39, 0
7, 64896, Note_on_c, 5, 40, 100
7, 65088, Note_on_c, 5, 40, 0
7, 65088, Note_on_c, 5, 42, 100
7, 65280, Note_on_c, 5, 42, 0
7, 65280, Note_on_c, 5, 43, 100
7, 65664, Note_on_c, 5, 43, 0
7, 65856, Note_on_c, 5, 40, 100
7, 66048, Note_on_c, 5, 40, 0
7, 66048, Note_on_c, 5, 47, 100
7, 66432, Note_on_c, 5, 47, 0
7, 66624, Note_on_c, 5, 35, 100
7, 66816, Note_on_c, 5, 35, 0
7, 66816, Note_on_c, 5, 27, 100
7, 67200, Note_on_c, 5, 27, 0
7, 67392, Note_on_c, 5, 35, 100
7, 67584, Note_on_c, 5, 35, 0
7, 67584, Note_on_c, 5, 40, 100
7, 67968, Note_on_c, 5, 40, 0
7, 69312, Note_on_c, 5, 40, 100
7, 69504, Note_on_c, 5, 40, 0
7, 69504, Note_on_c, 5, 28, 100
7, 69696, Note_on_c, 5, 28, 0
7, 69696, Note_on_c, 5, 40, 100
7, 69888, Note_on_c, 5, 40, 0
7, 69888, Note_on_c, 5, 33, 100
7, 70272, Note_on_c, 5, 33, 0
7, 70848, Note_on_c, 5, 45, 100
7, 71040, Note_on_c, 5, 45, 0
7, 71040, Note_on_c, 5, 33, 100
7, 71232, Note_on_c, 5, 33, 0
7, 71232, Note_on_c, 5, 45, 100
7, 71424, Note_on_c, 5, 45, 0
7, 71424, Note_on_c, 5, 38, 100
7, 71808, Note_on_c, 5, 38, 0
7, 72384, Note_on_c, 5, 38, 100
7, 72576, Note_on_c, 5, 38, 0
7, 72576, Note_on_c, 5, 26, 100
7, 72768, Note_on_c, 5, 26, 0
7, 72768, Note_on_c, 5, 38, 100
7, 72960, Note_on_c, 5, 38, 0
7, 72960, Note_on_c, 5, 31, 100
7, 73344, Note_on_c, 5, 31, 0
7, 73920, Note_on_c, 5, 43, 100
7, 74112, Note_on_c, 5, 43, 0
7, 74112, Note_on_c, 5, 31, 100
7, 74304, Note_on_c, 5, 31, 0
7, 74304, Note_on_c, 5, 43, 100
7, 74496, Note_on_c, 5, 43, 0
7, 74496, Note_on_c, 5, 36, 100
7, 74880, Note_on_c, 5, 36, 0
7, 74880, Note_on_c, 5, 46, 100
7, 75264, Note_on_c, 5, 46, 0
7, 75264, Note_on_c, 5, 45, 100
7, 75648, Note_on_c, 5, 45, 0
7, 75648, Note_on_c, 5, 43, 100
7, 76032, Note_on_c, 5, 43, 0
7, 76032, Note_on_c, 5, 41, 100
7, 76224, Note_on_c, 5, 41, 0
7, 76224, Note_on_c, 5, 40, 100
7, 76416, Note_on_c, 5, 40, 0
7, 76416, Note_on_c, 5, 38, 100
7, 76608, Note_on_c, 5, 38, 0
7, 76608, Note_on_c, 5, 41, 100
7, 76800, Note_on_c, 5, 41, 0
7, 76800, Note_on_c, 5, 43, 100
7, 76992, Note_on_c, 5, 43, 0
7, 76992, Note_on_c, 5, 41, 100
7, 77184, Note_on_c, 5, 41, 0
7, 77184, Note_on_c, 5, 40, 100
7, 77376, Note_on_c, 5, 40, 0
7, 77376, Note_on_c, 5, 43, 100
7, 77568, Note_on_c, 5, 43, 0
7, 77568, Note_on_c, 5, 45, 100
7, 77760, Note_on_c, 5, 45, 0
7, 77760, Note_on_c, 5, 47, 100
7, 77952, Note_on_c, 5, 47, 0
7, 77952, Note_on_c, 5, 49, 100
7, 78144, Note_on_c, 5, 49, 0
7, 78144, Note_on_c, 5, 45, 100
7, 78336, Note_on_c, 5, 45, 0
7, 78336, Note_on_c, 5, 41, 100
7, 78528, Note_on_c, 5, 41, 0
7, 78528, Note_on_c, 5, 45, 100
7, 78720, Note_on_c, 5, 45, 0
7, 78720, Note_on_c, 5, 41, 100
7, 78912, Note_on_c, 5, 41, 0
7, 78912, Note_on_c, 5, 38, 100
7, 79104, Note_on_c, 5, 38, 0
7, 79104, Note_on_c, 5, 43, 100
7, 79296, Note_on_c, 5, 43, 0
7, 79296, Note_on_c, 5, 46, 100
7, 79488, Note_on_c, 5, 46, 0
7, 79488, Note_on_c, 5, 43, 100
7, 79680, Note_on_c, 5, 43, 0
7, 79680, Note_on_c, 5, 38, 100
7, 79872, Note_on_c, 5, 38, 0
7, 79872, Note_on_c, 5, 50, 100
7, 80064, Note_on_c, 5, 50, 0
7, 80064, Note_on_c, 5, 38, 100
7, 80256, Note_on_c, 5, 38, 0
7, 80256, Note_on_c, 5, 45, 100
7, 80448, Note_on_c, 5, 45, 0
7, 80448, Note_on_c, 5, 33, 100
7, 80640, Note_on_c, 5, 33, 0
7, 80640, Note_on_c, 5, 38, 100
7, 80832, Note_on_c, 5, 38, 0
7, 80832, Note_on_c, 5, 26, 100
7, 81024, Note_on_c, 5, 26, 0
7, 83136, Note_on_c, 5, 43, 100
7, 83232, Note_on_c, 5, 43, 0
7, 83232, Note_on_c, 5, 45, 100
7, 83328, Note_on_c, 5, 45, 0
7, 83328, Note_on_c, 5, 43, 100
7, 83424, Note_on_c, 5, 43, 0
7, 83424, Note_on_c, 5, 41, 100
7, 83520, Note_on_c, 5, 41, 0
7, 83520, Note_on_c, 5, 40, 100
7, 83616, Note_on_c, 5, 40, 0
7, 83616, Note_on_c, 5, 38, 100
7, 83712, Note_on_c, 5, 38, 0
7, 83712, Note_on_c, 5, 36, 100
7, 83904, Note_on_c, 5, 36, 0
7, 83904, Note_on_c, 5, 48, 100
7, 84096, Note_on_c, 5, 48, 0
7, 85440, Note_on_c, 5, 41, 100
7, 85536, Note_on_c, 5, 41, 0
7, 85536, Note_on_c, 5, 43, 100
7, 85632, Note_on_c, 5, 43, 0
7, 85632, Note_on_c, 5, 41, 100
7, 85728, Note_on_c, 5, 41, 0
7, 85728, Note_on_c, 5, 40, 100
7, 85824, Note_on_c, 5, 40, 0
7, 85824, Note_on_c, 5, 38, 100
7, 85920, Note_on_c, 5, 38, 0
7, 85920, Note_on_c, 5, 36, 100
7, 86016, Note_on_c, 5, 36, 0
7, 86016, Note_on_c, 5, 34, 100
7, 86208, Note_on_c, 5, 34, 0
7, 86208, Note_on_c, 5, 46, 100
7, 86400, Note_on_c, 5, 46, 0
7, 87744, Note_on_c, 5, 40, 100
7, 87840, Note_on_c, 5, 40, 0
7, 87840, Note_on_c, 5, 41, 100
7, 87936, Note_on_c, 5, 41, 0
7, 87936, Note_on_c, 5, 40, 100
7, 88032, Note_on_c, 5, 40, 0
7, 88032, Note_on_c, 5, 38, 100
7, 88128, Note_on_c, 5, 38, 0
7, 88128, Note_on_c, 5, 37, 100
7, 88224, Note_on_c, 5, 37, 0
7, 88224, Note_on_c, 5, 35, 100
7, 88320, Note_on_c, 5, 35, 0
7, 88320, Note_on_c, 5, 33, 100
7, 88512, Note_on_c, 5, 33, 0
7, 88512, Note_on_c, 5, 45, 100
7, 88704, Note_on_c, 5, 45, 0
7, 90048, Note_on_c, 5, 38, 100
7, 90240, Note_on_c, 5, 38, 0
7, 90240, Note_on_c, 5, 50, 100
7, 90432, Note_on_c, 5, 50, 0
7, 90432, Note_on_c, 5, 41, 100
7, 90624, Note_on_c, 5, 41, 0
7, 90624, Note_on_c, 5, 43, 100
7, 90816, Note_on_c, 5, 43, 0
7, 90816, Note_on_c, 5, 45, 100
7, 91008, Note_on_c, 5, 45, 0
7, 91008, Note_on_c, 5, 47, 100
7, 91200, Note_on_c, 5, 47, 0
7, 91200, Note_on_c, 5, 43, 100
7, 91392, Note_on_c, 5, 43, 0
7, 91392, Note_on_c, 5, 48, 100
7, 91584, Note_on_c, 5, 48, 0
7, 91584, Note_on_c, 5, 36, 100
7, 91776, Note_on_c, 5, 36, 0
7, 91776, Note_on_c, 5, 48, 100
7, 91968, Note_on_c, 5, 48, 0
7, 91968, Note_on_c, 5, 40, 100
7, 92160, Note_on_c, 5, 40, 0
7, 92160, Note_on_c, 5, 41, 100
7, 92352, Note_on_c, 5, 41, 0
7, 92352, Note_on_c, 5, 43, 100
7, 92544, Note_on_c, 5, 43, 0
7, 92544, Note_on_c, 5, 45, 100
7, 92736, Note_on_c, 5, 45, 0
7, 92736, Note_on_c, 5, 41, 100
7, 92928, Note_on_c, 5, 41, 0
7, 92928, Note_on_c, 5, 47, 100
7, 93120, Note_on_c, 5, 47, 0
7, 93120, Note_on_c, 5, 35, 100
7, 93312, Note_on_c, 5, 35, 0
7, 93312, Note_on_c, 5, 47, 100
7, 93504, Note_on_c, 5, 47, 0
7, 93504, Note_on_c, 5, 44, 100
7, 93696, Note_on_c, 5, 44, 0
7, 93696, Note_on_c, 5, 40, 100
7, 93888, Note_on_c, 5, 40, 0
7, 93888, Note_on_c, 5, 28, 100
7, 94080, Note_on_c, 5, 28, 0
7, 94656, Note_on_c, 5, 33, 100
7, 94848, Note_on_c, 5, 33, 0
7, 94848, Note_on_c, 5, 45, 100
7, 95232, Note_on_c, 5, 45, 0
7, 95424, Note_on_c, 5, 33, 100
7, 95616, Note_on_c, 5, 33, 0
7, 95616, Note_on_c, 5, 45, 100
7, 96000, Note_on_c, 5, 45, 0
7, 96192, Note_on_c, 5, 33, 100
7, 96384, Note_on_c, 5, 33, 0
7, 96384, Note_on_c, 5, 40, 100
7, 96576, Note_on_c, 5, 40, 0
7, 96576, Note_on_c, 5, 28, 100
7, 96768, Note_on_c, 5, 28, 0
7, 96768, Note_on_c, 5, 45, 100
7, 96960, Note_on_c, 5, 45, 0
7, 96960, Note_on_c, 5, 33, 100
7, 97152, Note_on_c, 5, 33, 0
7, 97152, Note_on_c, 5, 36, 100
7, 97344, Note_on_c, 5, 36, 0
7, 97344, Note_on_c, 5, 40, 100
7, 97536, Note_on_c, 5, 40, 0
7, 97536, Note_on_c, 5, 45, 100
7, 97920, Note_on_c, 5, 45, 0
7, 97920, Note_on_c, 5, 43, 100
7, 98304, Note_on_c, 5, 43, 0
7, 98304, Note_on_c, 5, 41, 100
7, 98688, Note_on_c, 5, 41, 0
7, 98688, Note_on_c, 5, 40, 100
7, 99072, Note_on_c, 5, 40, 0
7, 99072, Note_on_c, 5, 38, 100
7, 99456, Note_on_c, 5, 38, 0
7, 99456, Note_on_c, 5, 36, 100
7, 99840, Note_on_c, 5, 36, 0
7, 99840, Note_on_c, 5, 34, 100
7, 100224, Note_on_c, 5, 34, 0
7, 100224, Note_on_c, 5, 33, 100
7, 100608, Note_on_c, 5, 33, 0
7, 100608, Note_on_c, 5, 31, 100
7, 100992, Note_on_c, 5, 31, 0
7, 100992, Note_on_c, 5, 29, 100
7, 101376, Note_on_c, 5, 29, 0
7, 101376, Note_on_c, 5, 27, 100
7, 101760, Note_on_c, 5, 27, 0
7, 101760, Note_on_c, 5, 26, 100
7, 102144, Note_on_c, 5, 26, 0
7, 102144, Note_on_c, 5, 24, 100
7, 102336, Note_on_c, 5, 24, 0
7, 102336, Note_on_c, 5, 24, 100
7, 102528, Note_on_c, 5, 24, 0
7, 102528, Note_on_c, 5, 24, 100
7, 102720, Note_on_c, 5, 24, 0
7, 102720, Note_on_c, 5, 24, 100
7, 102912, Note_on_c, 5, 24, 0
7, 102912, Note_on_c, 5, 24, 100
7, 103104, Note_on_c, 5, 24, 0
7, 103104, Note_on_c, 5, 24, 100
7, 103296, Note_on_c, 5, 24, 0
7, 103296, Note_on_c, 5, 24, 100
7, 103488, Note_on_c, 5, 24, 0
7, 103488, Note_on_c, 5, 24, 100
7, 103680, Note_on_c, 5, 24, 0
7, 103680, Note_on_c, 5, 24, 100
7, 103872, Note_on_c, 5, 24, 0
7, 103872, Note_on_c, 5, 24, 100
7, 104064, Note_on_c, 5, 24, 0
7, 104064, Note_on_c, 5, 36, 100
7, 104256, Note_on_c, 5, 36, 0
7, 104256, Note_on_c, 5, 36, 100
7, 104448, Note_on_c, 5, 36, 0
7, 104448, Note_on_c, 5, 34, 100
7, 104640, Note_on_c, 5, 34, 0
7, 104640, Note_on_c, 5, 50, 100
7, 104832, Note_on_c, 5, 50, 0
7, 104832, Note_on_c, 5, 46, 100
7, 105024, Note_on_c, 5, 46, 0
7, 105024, Note_on_c, 5, 43, 100
7, 105216, Note_on_c, 5, 43, 0
7, 105216, Note_on_c, 5, 31, 100
7, 105408, Note_on_c, 5, 31, 0
7, 105408, Note_on_c, 5, 31, 100
7, 105600, Note_on_c, 5, 31, 0
7, 105600, Note_on_c, 5, 31, 100
7, 105792, Note_on_c, 5, 31, 0
7, 105792, Note_on_c, 5, 31, 100
7, 105984, Note_on_c, 5, 31, 0
7, 105984, Note_on_c, 5, 29, 100
7, 106176, Note_on_c, 5, 29, 0
7, 106176, Note_on_c, 5, 45, 100
7, 106368, Note_on_c, 5, 45, 0
7, 106368, Note_on_c, 5, 41, 100
7, 106560, Note_on_c, 5, 41, 0
7, 106560, Note_on_c, 5, 38, 100
7, 106752, Note_on_c, 5, 38, 0
7, 106752, Note_on_c, 5, 26, 100
7, 106944, Note_on_c, 5, 26, 0
7, 106944, Note_on_c, 5, 26, 100
7, 107136, Note_on_c, 5, 26, 0
7, 107136, Note_on_c, 5, 26, 100
7, 107328, Note_on_c, 5, 26, 0
7, 107328, Note_on_c, 5, 26, 100
7, 107520, Note_on_c, 5, 26, 0
7, 107520, Note_on_c, 5, 24, 100
7, 107712, Note_on_c, 5, 24, 0
7, 107712, Note_on_c, 5, 38, 100
7, 107904, Note_on_c, 5, 38, 0
7, 107904, Note_on_c, 5, 36, 100
7, 108096, Note_on_c, 5, 36, 0
7, 108096, Note_on_c, 5, 35, 100
7, 108288, Note_on_c, 5, 35, 0
7, 108288, Note_on_c, 5, 33, 100
7, 108480, Note_on_c, 5, 33, 0
7, 108480, Note_on_c, 5, 45, 100
7, 108672, Note_on_c, 5, 45, 0
7, 108672, Note_on_c, 5, 43, 100
7, 108864, Note_on_c, 5, 43, 0
7, 108864, Note_on_c, 5, 41, 100
7, 109056, Note_on_c, 5, 41, 0
7, 109056, Note_on_c, 5, 40, 100
7, 109248, Note_on_c, 5, 40, 0
7, 109248, Note_on_c, 5, 41, 100
7, 109440, Note_on_c, 5, 41, 0
7, 109440, Note_on_c, 5, 40, 100
7, 109632, Note_on_c, 5, 40, 0
7, 109632, Note_on_c, 5, 38, 100
7, 109824, Note_on_c, 5, 38, 0
7, 109824, Note_on_c, 5, 36, 100
7, 110016, Note_on_c, 5, 36, 0
7, 110016, Note_on_c, 5, 40, 100
7, 110208, Note_on_c, 5, 40, 0
7, 110208, Note_on_c, 5, 36, 100
7, 110400, Note_on_c, 5, 36, 0
7, 110400, Note_on_c, 5, 33, 100
7, 110592, Note_on_c, 5, 33, 0
7, 110592, Note_on_c, 5, 38, 100
7, 110784, Note_on_c, 5, 38, 0
7, 110784, Note_on_c, 5, 41, 100
7, 110976, Note_on_c, 5, 41, 0
7, 110976, Note_on_c, 5, 38, 100
7, 111168, Note_on_c, 5, 38, 0
7, 111168, Note_on_c, 5, 35, 100
7, 111360, Note_on_c, 5, 35, 0
7, 111360, Note_on_c, 5, 36, 100
7, 111552, Note_on_c, 5, 36, 0
7, 111552, Note_on_c, 5, 33, 100
7, 111744, Note_on_c, 5, 33, 0
7, 111744, Note_on_c, 5, 40, 100
7, 111936, Note_on_c, 5, 40, 0
7, 111936, Note_on_c, 5, 28, 100
7, 112128, Note_on_c, 5, 28, 0
7, 112128, Note_on_c, 5, 33, 100
7, 112320, Note_on_c, 5, 33, 0
7, 112320, Note_on_c, 5, 48, 100
7, 112416, Note_on_c, 5, 48, 0
7, 112416, Note_on_c, 5, 47, 100
7, 112512, Note_on_c, 5, 47, 0
7, 112512, Note_on_c, 5, 45, 100
7, 112608, Note_on_c, 5, 45, 0
7, 112608, Note_on_c, 5, 43, 100
7, 112704, Note_on_c, 5, 43, 0
7, 112704, Note_on_c, 5, 41, 100
7, 112800, Note_on_c, 5, 41, 0
7, 112800, Note_on_c, 5, 40, 100
7, 112896, Note_on_c, 5, 40, 0
7, 112896, Note_on_c, 5, 41, 100
7, 113088, Note_on_c, 5, 41, 0
7, 113088, Note_on_c, 5, 45, 100
7, 113280, Note_on_c, 5, 45, 0
7, 113280, Note_on_c, 5, 41, 100
7, 113472, Note_on_c, 5, 41, 0
7, 113472, Note_on_c, 5, 38, 100
7, 113664, Note_on_c, 5, 38, 0
7, 113664, Note_on_c, 5, 43, 100
7, 113856, Note_on_c, 5, 43, 0
7, 113856, Note_on_c, 5, 31, 100
7, 114048, Note_on_c, 5, 31, 0
7, 115392, Note_on_c, 5, 47, 100
7, 115488, Note_on_c, 5, 47, 0
7, 115488, Note_on_c, 5, 45, 100
7, 115584, Note_on_c, 5, 45, 0
7, 115584, Note_on_c, 5, 43, 100
7, 115680, Note_on_c, 5, 43, 0
7, 115680, Note_on_c, 5, 41, 100
7, 115776, Note_on_c, 5, 41, 0
7, 115776, Note_on_c, 5, 40, 100
7, 115872, Note_on_c, 5, 40, 0
7, 115872, Note_on_c, 5, 38, 100
7, 115968, Note_on_c, 5, 38, 0
7, 115968, Note_on_c, 5, 40, 100
7, 116160, Note_on_c, 5, 40, 0
7, 116160, Note_on_c, 5, 43, 100
7, 116352, Note_on_c, 5, 43, 0
7, 116352, Note_on_c, 5, 40, 100
7, 116544, Note_on_c, 5, 40, 0
7, 116544, Note_on_c, 5, 36, 100
7, 116736, Note_on_c, 5, 36, 0
7, 116736, Note_on_c, 5, 41, 100
7, 116928, Note_on_c, 5, 41, 0
7, 116928, Note_on_c, 5, 29, 100
7, 117120, Note_on_c, 5, 29, 0
7, 118464, Note_on_c, 5, 45, 100
7, 118560, Note_on_c, 5, 45, 0
7, 118560, Note_on_c, 5, 43, 100
7, 118656, Note_on_c, 5, 43, 0
7, 118656, Note_on_c, 5, 41, 100
7, 118752, Note_on_c, 5, 41, 0
7, 118752, Note_on_c, 5, 40, 100
7, 118848, Note_on_c, 5, 40, 0
7, 118848, Note_on_c, 5, 38, 100
7, 118944, Note_on_c, 5, 38, 0
7, 118944, Note_on_c, 5, 36, 100
7, 119040, Note_on_c, 5, 36, 0
7, 119040, Note_on_c, 5, 38, 100
7, 119136, Note_on_c, 5, 38, 0
7, 119136, Note_on_c, 5, 40, 100
7, 119232, Note_on_c, 5, 40, 0
7, 119232, Note_on_c, 5, 38, 100
7, 119328, Note_on_c, 5, 38, 0
7, 119328, Note_on_c, 5, 36, 100
7, 119424, Note_on_c, 5, 36, 0
7, 119424, Note_on_c, 5, 35, 100
7, 119520, Note_on_c, 5, 35, 0
7, 119520, Note_on_c, 5, 36, 100
7, 119616, Note_on_c, 5, 36, 0
7, 119616, Note_on_c, 5, 35, 100
7, 119712, Note_on_c, 5, 35, 0
7, 119712, Note_on_c, 5, 33, 100
7, 119808, Note_on_c, 5, 33, 0
7, 119808, Note_on_c, 5, 32, 100
7, 119904, Note_on_c, 5, 32, 0
7, 119904, Note_on_c, 5, 28, 100
7, 120000, Note_on_c, 5, 28, 0
7, 120000, Note_on_c, 5, 30, 100
7, 120096, Note_on_c, 5, 30, 0
7, 120096, Note_on_c, 5, 32, 100
7, 120192, Note_on_c, 5, 32, 0
7, 120192, Note_on_c, 5, 33, 100
7, 120288, Note_on_c, 5, 33, 0
7, 120288, Note_on_c, 5, 35, 100
7, 120384, Note_on_c, 5, 35, 0
7, 120384, Note_on_c, 5, 36, 100
7, 120480, Note_on_c, 5, 36, 0
7, 120480, Note_on_c, 5, 33, 100
7, 120576, Note_on_c, 5, 33, 0
7, 120576, Note_on_c, 5, 29, 100
7, 120768, Note_on_c, 5, 29, 0
7, 120768, Note_on_c, 5, 36, 100
7, 120960, Note_on_c, 5, 36, 0
7, 120960, Note_on_c, 5, 38, 100
7, 121152, Note_on_c, 5, 38, 0
7, 121152, Note_on_c, 5, 35, 100
7, 121344, Note_on_c, 5, 35, 0
7, 121344, Note_on_c, 5, 40, 100
7, 121632, Note_on_c, 5, 40, 0
7, 121632, Note_on_c, 5, 42, 100
7, 121680, Note_on_c, 5, 42, 0
7, 121680, Note_on_c, 5, 44, 100
7, 121728, Note_on_c, 5, 44, 0
7, 121728, Note_on_c, 5, 45, 100
7, 121824, Note_on_c, 5, 45, 0
7, 121824, Note_on_c, 5, 47, 100
7, 121920, Note_on_c, 5, 47, 0
7, 121920, Note_on_c, 5, 48, 100
7, 122016, Note_on_c, 5, 48, 0
7, 122016, Note_on_c, 5, 50, 100
7, 122112, Note_on_c, 5, 50, 0
7, 122112, Note_on_c, 5, 52, 100
7, 122304, Note_on_c, 5, 52, 0
7, 122304, Note_on_c, 5, 50, 100
7, 122496, Note_on_c, 5, 50, 0
7, 122496, Note_on_c, 5, 52, 100
7, 122688, Note_on_c, 5, 52, 0
7, 122688, Note_on_c, 5, 40, 100
7, 122880, Note_on_c, 5, 40, 0
7, 122880, Note_on_c, 5, 50, 100
7, 123072, Note_on_c, 5, 50, 0
7, 123072, Note_on_c, 5, 52, 100
7, 123264, Note_on_c, 5, 52, 0
7, 123264, Note_on_c, 5, 50, 100
7, 123456, Note_on_c, 5, 50, 0
7, 123456, Note_on_c, 5, 48, 100
7, 123648, Note_on_c, 5, 48, 0
7, 123648, Note_on_c, 5, 47, 100
7, 123840, Note_on_c, 5, 47, 0
7, 123840, Note_on_c, 5, 48, 100
7, 124032, Note_on_c, 5, 48, 0
7, 124032, Note_on_c, 5, 47, 100
7, 124224, Note_on_c, 5, 47, 0
7, 124224, Note_on_c, 5, 45, 100
7, 124416, Note_on_c, 5, 45, 0
7, 124416, Note_on_c, 5, 44, 100
7, 124608, Note_on_c, 5, 44, 0
7, 124608, Note_on_c, 5, 45, 100
7, 124800, Note_on_c, 5, 45, 0
7, 124800, Note_on_c, 5, 47, 100
7, 124992, Note_on_c, 5, 47, 0
7, 124992, Note_on_c, 5, 48, 100
7, 125184, Note_on_c, 5, 48, 0
7, 125184, Note_on_c, 5, 38, 100
7, 125376, Note_on_c, 5, 38, 0
7, 125376, Note_on_c, 5, 40, 100
7, 125568, Note_on_c, 5, 40, 0
7, 125568, Note_on_c, 5, 41, 100
7, 125760, Note_on_c, 5, 41, 0
7, 125760, Note_on_c, 5, 35, 100
7, 125952, Note_on_c, 5, 35, 0
7, 125952, Note_on_c, 5, 40, 100
7, 126144, Note_on_c, 5, 40, 0
7, 126144, Note_on_c, 5, 38, 100
7, 126240, Note_on_c, 5, 38, 0
7, 126240, Note_on_c, 5, 36, 100
7, 126336, Note_on_c, 5, 36, 0
7, 126336, Note_on_c, 5, 35, 100
7, 126528, Note_on_c, 5, 35, 0
7, 126528, Note_on_c, 5, 33, 100
7, 126720, Note_on_c, 5, 33, 0
7, 126720, Note_on_c, 5, 32, 100
7, 126912, Note_on_c, 5, 32, 0
7, 126912, Note_on_c, 5, 30, 100
7, 127104, Note_on_c, 5, 30, 0
7, 127104, Note_on_c, 5, 28, 100
7, 127296, Note_on_c, 5, 28, 0
7, 127296, Note_on_c, 5, 26, 100
7, 127488, Note_on_c, 5, 26, 0
7, 127488, Note_on_c, 5, 24, 100
7, 127680, Note_on_c, 5, 24, 0
7, 127680, Note_on_c, 5, 41, 100
7, 127872, Note_on_c, 5, 41, 0
7, 127872, Note_on_c, 5, 38, 100
7, 128064, Note_on_c, 5, 38, 0
7, 128064, Note_on_c, 5, 40, 100
7, 128256, Note_on_c, 5, 40, 0
7, 128256, Note_on_c, 5, 29, 100
7, 128640, Note_on_c, 5, 29, 0
7, 128832, Note_on_c, 5, 41, 100
7, 129024, Note_on_c, 5, 41, 0
7, 129024, Note_on_c, 5, 32, 100
7, 129216, Note_on_c, 5, 32, 0
7, 129216, Note_on_c, 5, 32, 100
7, 129408, Note_on_c, 5, 32, 0
7, 129408, Note_on_c, 5, 32, 100
7, 129600, Note_on_c, 5, 32, 0
7, 129600, Note_on_c, 5, 47, 100
7, 129792, Note_on_c, 5, 47, 0
7, 129792, Note_on_c, 5, 38, 100
7, 129984, Note_on_c, 5, 38, 0
7, 129984, Note_on_c, 5, 38, 100
7, 130176, Note_on_c, 5, 38, 0
7, 130176, Note_on_c, 5, 38, 100
7, 130368, Note_on_c, 5, 38, 0
7, 130368, Note_on_c, 5, 41, 100
7, 130560, Note_on_c, 5, 41, 0
7, 130560, Note_on_c, 5, 35, 100
7, 130752, Note_on_c, 5, 35, 0
7, 130752, Note_on_c, 5, 36, 100
7, 130848, Note_on_c, 5, 36, 0
7, 130848, Note_on_c, 5, 38, 100
7, 130944, Note_on_c, 5, 38, 0
7, 130944, Note_on_c, 5, 40, 100
7, 131136, Note_on_c, 5, 40, 0
7, 131136, Note_on_c, 5, 28, 100
7, 131328, Note_on_c, 5, 28, 0
7, 131328, Note_on_c, 5, 33, 100
7, 131904, Note_on_c, 5, 33, 0
7, 131904, End_track
8, 0, Start_track
8, 0, MIDI_port, 0
8, 0, Title_t, "Harpsichord"
8, 0, Program_c, 6, 6
8, 0, Control_c, 6, 7, 90
8, 0, Control_c, 6, 10, 64
8, 960, Note_on_c, 6, 45, 100
8, 1152, Note_on_c, 6, 45, 0
8, 1152, Note_on_c, 6, 57, 100
8, 1536, Note_on_c, 6, 57, 0
8, 1728, Note_on_c, 6, 45, 100
8, 1920, Note_on_c, 6, 45, 0
8, 1920, Note_on_c, 6, 57, 100
8, 2304, Note_on_c, 6, 57, 0
8, 2496, Note_on_c, 6, 45, 100
8, 2688, Note_on_c, 6, 45, 0
8, 2688, Note_on_c, 6, 52, 100
8, 2880, Note_on_c, 6, 52, 0
8, 2880, Note_on_c, 6, 40, 100
8, 3072, Note_on_c, 6, 40, 0
8, 3072, Note_on_c, 6, 45, 100
8, 3264, Note_on_c, 6, 45, 0
8, 3264, Note_on_c, 6, 57, 100
8, 3360, Note_on_c, 6, 57, 0
8, 3360, Note_on_c, 6, 59, 100
8, 3456, Note_on_c, 6, 59, 0
8, 3456, Note_on_c, 6, 60, 100
8, 3648, Note_on_c, 6, 60, 0
8, 3648, Note_on_c, 6, 57, 100
8, 3840, Note_on_c, 6, 57, 0
8, 3840, Note_on_c, 6, 56, 100
8, 4032, Note_on_c, 6, 56, 0
8, 4032, Note_on_c, 6, 52, 100
8, 4224, Note_on_c, 6, 52, 0
8, 4224, Note_on_c, 6, 57, 100
8, 4416, Note_on_c, 6, 57, 0
8, 4416, Note_on_c, 6, 52, 100
8, 4608, Note_on_c, 6, 52, 0
8, 4608, Note_on_c, 6, 59, 100
8, 4800, Note_on_c, 6, 59, 0
8, 4800, Note_on_c, 6, 52, 100
8, 4992, Note_on_c, 6, 52, 0
8, 4992, Note_on_c, 6, 60, 100
8, 5184, Note_on_c, 6, 60, 0
8, 5184, Note_on_c, 6, 52, 100
8, 5376, Note_on_c, 6, 52, 0
8, 5376, Note_on_c, 6, 62, 100
8, 5568, Note_on_c, 6, 62, 0
8, 5568, Note_on_c, 6, 50, 100
8, 5760, Note_on_c, 6, 50, 0
8, 5760, Note_on_c, 6, 52, 100
8, 5952, Note_on_c, 6, 52, 0
8, 5952, Note_on_c, 6, 53, 100
8, 6144, Note_on_c, 6, 53, 0
8, 6144, Note_on_c, 6, 52, 100
8, 6336, Note_on_c, 6, 52, 0
8, 6336, Note_on_c, 6, 40, 100
8, 6528, Note_on_c, 6, 40, 0
8, 6720, Note_on_c, 6, 64, 100
8, 6816, Note_on_c, 6, 64, 0
8, 6816, Note_on_c, 6, 62, 100
8, 6912, Note_on_c, 6, 62, 0
8, 6912, Note_on_c, 6, 60, 100
8, 7104, Note_on_c, 6, 60, 0
8, 7104, Note_on_c, 6, 64, 100
8, 7296, Note_on_c, 6, 64, 0
8, 7296, Note_on_c, 6, 60, 100
8, 7488, Note_on_c, 6, 60, 0
8, 7488, Note_on_c, 6, 57, 100
8, 7680, Note_on_c, 6, 57, 0
8, 7680, Note_on_c, 6, 62, 100
8, 7872, Note_on_c, 6, 62, 0
8, 7872, Note_on_c, 6, 50, 100
8, 8064, Note_on_c, 6, 50, 0
8, 8256, Note_on_c, 6, 62, 100
8, 8352, Note_on_c, 6, 62, 0
8, 8352, Note_on_c, 6, 60, 100
8, 8448, Note_on_c, 6, 60, 0
8, 8448, Note_on_c, 6, 59, 100
8, 8640, Note_on_c, 6, 59, 0
8, 8640, Note_on_c, 6, 62, 100
8, 8832, Note_on_c, 6, 62, 0
8, 8832, Note_on_c, 6, 59, 100
8, 9024, Note_on_c, 6, 59, 0
8, 9024, Note_on_c, 6, 55, 100
8, 9216, Note_on_c, 6, 55, 0
8, 9216, Note_on_c, 6, 60, 100
8, 9408, Note_on_c, 6, 60, 0
8, 9408, Note_on_c, 6, 48, 100
8, 9600, Note_on_c, 6, 48, 0
8, 9792, Note_on_c, 6, 60, 100
8, 9888, Note_on_c, 6, 60, 0
8, 9888, Note_on_c, 6, 59, 100
8, 9984, Note_on_c, 6, 59, 0
8, 9984, Note_on_c, 6, 57, 100
8, 10080, Note_on_c, 6, 57, 0
8, 10080, Note_on_c, 6, 59, 100
8, 10176, Note_on_c, 6, 59, 0
8, 10176, Note_on_c, 6, 57, 100
8, 10272, Note_on_c, 6, 57, 0
8, 10272, Note_on_c, 6, 55, 100
8, 10368, Note_on_c, 6, 55, 0
8, 10368, Note_on_c, 6, 54, 100
8, 10464, Note_on_c, 6, 54, 0
8, 10464, Note_on_c, 6, 55, 100
8, 10560, Note_on_c, 6, 55, 0
8, 10560, Note_on_c, 6, 54, 100
8, 10656, Note_on_c, 6, 54, 0
8, 10656, Note_on_c, 6, 52, 100
8, 10752, Note_on_c, 6, 52, 0
8, 10752, Note_on_c, 6, 51, 100
8, 10848, Note_on_c, 6, 51, 0
8, 10848, Note_on_c, 6, 47, 100
8, 10944, Note_on_c, 6, 47, 0
8, 10944, Note_on_c, 6, 49, 100
8, 11040, Note_on_c, 6, 49, 0
8, 11040, Note_on_c, 6, 51, 100
8, 11136, Note_on_c, 6, 51, 0
8, 11136, Note_on_c, 6, 52, 100
8, 11232, Note_on_c, 6, 52, 0
8, 11232, Note_on_c, 6, 54, 100
8, 11328, Note_on_c, 6, 54, 0
8, 11328, Note_on_c, 6, 55, 100
8, 11424, Note_on_c, 6, 55, 0
8, 11424, Note_on_c, 6, 52, 100
8, 11520, Note_on_c, 6, 52, 0
8, 11520, Note_on_c, 6, 48, 100
8, 11712, Note_on_c, 6, 48, 0
8, 11712, Note_on_c, 6, 47, 100
8, 11904, Note_on_c, 6, 47, 0
8, 11904, Note_on_c, 6, 48, 100
8, 12096, Note_on_c, 6, 48, 0
8, 12096, Note_on_c, 6, 45, 100
8, 12288, Note_on_c, 6, 45, 0
8, 12288, Note_on_c, 6, 47, 100
8, 12576, Note_on_c, 6, 47, 0
8, 12576, Note_on_c, 6, 49, 100
8, 12624, Note_on_c, 6, 49, 0
8, 12624, Note_on_c, 6, 51, 100
8, 12672, Note_on_c, 6, 51, 0
8, 12672, Note_on_c, 6, 52, 100
8, 12768, Note_on_c, 6, 52, 0
8, 12768, Note_on_c, 6, 54, 100
8, 12864, Note_on_c, 6, 54, 0
8, 12864, Note_on_c, 6, 55, 100
8, 12960, Note_on_c, 6, 55, 0
8, 12960, Note_on_c, 6, 57, 100
8, 13056, Note_on_c, 6, 57, 0
8, 13056, Note_on_c, 6, 59, 100
8, 13248, Note_on_c, 6, 59, 0
8, 13248, Note_on_c, 6, 57, 100
8, 13440, Note_on_c, 6, 57, 0
8, 13440, Note_on_c, 6, 59, 100
8, 13632, Note_on_c, 6, 59, 0
8, 13632, Note_on_c, 6, 47, 100
8, 13824, Note_on_c, 6, 47, 0
8, 13824, Note_on_c, 6, 57, 100
8, 14016, Note_on_c, 6, 57, 0
8, 14016, Note_on_c, 6, 55, 100
8, 14208, Note_on_c, 6, 55, 0
8, 14208, Note_on_c, 6, 57, 100
8, 14400, Note_on_c, 6, 57, 0
8, 14400, Note_on_c, 6, 45, 100
8, 14592, Note_on_c, 6, 45, 0
8, 14592, Note_on_c, 6, 43, 100
8, 14784, Note_on_c, 6, 43, 0
8, 14784, Note_on_c, 6, 48, 100
8, 14976, Note_on_c, 6, 48, 0
8, 14976, Note_on_c, 6, 45, 100
8, 15168, Note_on_c, 6, 45, 0
8, 15168, Note_on_c, 6, 47, 100
8, 15360, Note_on_c, 6, 47, 0
8, 15360, Note_on_c, 6, 40, 100
8, 15744, Note_on_c, 6, 40, 0
8, 15936, Note_on_c, 6, 60, 100
8, 16128, Note_on_c, 6, 60, 0
8, 16128, Note_on_c, 6, 51, 100
8, 16320, Note_on_c, 6, 51, 0
8, 16320, Note_on_c, 6, 51, 100
8, 16512, Note_on_c, 6, 51, 0
8, 16512, Note_on_c, 6, 51, 100
8, 16704, Note_on_c, 6, 51, 0
8, 16704, Note_on_c, 6, 54, 100
8, 16896, Note_on_c, 6, 54, 0
8, 16896, Note_on_c, 6, 45, 100
8, 17088, Note_on_c, 6, 45, 0
8, 17088, Note_on_c, 6, 45, 100
8, 17280, Note_on_c, 6, 45, 0
8, 17280, Note_on_c, 6, 45, 100
8, 17472, Note_on_c, 6, 45, 0
8, 17472, Note_on_c, 6, 48, 100
8, 17664, Note_on_c, 6, 48, 0
8, 17664, Note_on_c, 6, 42, 100
8, 17856, Note_on_c, 6, 42, 0
8, 17856, Note_on_c, 6, 40, 100
8, 18048, Note_on_c, 6, 40, 0
8, 18048, Note_on_c, 6, 47, 100
8, 18240, Note_on_c, 6, 47, 0
8, 18240, Note_on_c, 6, 47, 100
8, 18432, Note_on_c, 6, 47, 0
8, 18432, Note_on_c, 6, 40, 100
8, 18624, Note_on_c, 6, 40, 0
8, 18624, Note_on_c, 6, 52, 100
8, 18720, Note_on_c, 6, 52, 0
8, 18720, Note_on_c, 6, 50, 100
8, 18816, Note_on_c, 6, 50, 0
8, 18816, Note_on_c, 6, 48, 100
8, 19008, Note_on_c, 6, 48, 0
8, 19008, Note_on_c, 6, 47, 100
8, 19200, Note_on_c, 6, 47, 0
8, 19200, Note_on_c, 6, 45, 100
8, 19584, Note_on_c, 6, 45, 0
8, 19776, Note_on_c, 6, 57, 100
8, 19968, Note_on_c, 6, 57, 0
8, 19968, Note_on_c, 6, 64, 100
8, 20352, Note_on_c, 6, 64, 0
8, 20544, Note_on_c, 6, 52, 100
8, 20736, Note_on_c, 6, 52, 0
8, 20736, Note_on_c, 6, 44, 100
8, 21120, Note_on_c, 6, 44, 0
8, 21312, Note_on_c, 6, 52, 100
8, 21504, Note_on_c, 6, 52, 0
8, 21504, Note_on_c, 6, 57, 100
8, 21888, Note_on_c, 6, 57, 0
8, 22080, Note_on_c, 6, 57, 100
8, 22272, Note_on_c, 6, 57, 0
8, 22272, Note_on_c, 6, 45, 100
8, 22464, Note_on_c, 6, 45, 0
8, 22464, Note_on_c, 6, 48, 100
8, 22656, Note_on_c, 6, 48, 0
8, 22656, Note_on_c, 6, 50, 100
8, 22848, Note_on_c, 6, 50, 0
8, 22848, Note_on_c, 6, 53, 100
8, 23040, Note_on_c, 6, 53, 0
8, 23040, Note_on_c, 6, 43, 100
8, 23232, Note_on_c, 6, 43, 0
8, 23232, Note_on_c, 6, 47, 100
8, 23424, Note_on_c, 6, 47, 0
8, 23424, Note_on_c, 6, 48, 100
8, 23616, Note_on_c, 6, 48, 0
8, 23616, Note_on_c, 6, 52, 100
8, 23808, Note_on_c, 6, 52, 0
8, 23808, Note_on_c, 6, 53, 100
8, 24000, Note_on_c, 6, 53, 0
8, 24000, Note_on_c, 6, 57, 100
8, 24192, Note_on_c, 6, 57, 0
8, 24192, Note_on_c, 6, 47, 100
8, 24384, Note_on_c, 6, 47, 0
8, 24384, Note_on_c, 6, 50, 100
8, 24576, Note_on_c, 6, 50, 0
8, 24576, Note_on_c, 6, 40, 100
8, 24768, Note_on_c, 6, 40, 0
8, 24768, Note_on_c, 6, 52, 100
8, 24960, Note_on_c, 6, 52, 0
8, 24960, Note_on_c, 6, 56, 100
8, 25152, Note_on_c, 6, 56, 0
8, 25152, Note_on_c, 6, 52, 100
8, 25344, Note_on_c, 6, 52, 0
8, 25536, Note_on_c, 6, 57, 100
8, 25728, Note_on_c, 6, 57, 0
8, 25728, Note_on_c, 6, 60, 100
8, 25920, Note_on_c, 6, 60, 0
8, 25920, Note_on_c, 6, 57, 100
8, 26112, Note_on_c, 6, 57, 0
8, 26304, Note_on_c, 6, 57, 100
8, 26496, Note_on_c, 6, 57, 0
8, 26496, Note_on_c, 6, 53, 100
8, 26688, Note_on_c, 6, 53, 0
8, 26688, Note_on_c, 6, 50, 100
8, 26880, Note_on_c, 6, 50, 0
8, 27072, Note_on_c, 6, 55, 100
8, 27264, Note_on_c, 6, 55, 0
8, 27264, Note_on_c, 6, 59, 100
8, 27456, Note_on_c, 6, 59, 0
8, 27456, Note_on_c, 6, 55, 100
8, 27648, Note_on_c, 6, 55, 0
8, 27840, Note_on_c, 6, 55, 100
8, 28032, Note_on_c, 6, 55, 0
8, 28032, Note_on_c, 6, 52, 100
8, 28224, Note_on_c, 6, 52, 0
8, 28224, Note_on_c, 6, 48, 100
8, 28416, Note_on_c, 6, 48, 0
8, 28608, Note_on_c, 6, 53, 100
8, 28800, Note_on_c, 6, 53, 0
8, 28800, Note_on_c, 6, 57, 100
8, 28992, Note_on_c, 6, 57, 0
8, 28992, Note_on_c, 6, 53, 100
8, 29184, Note_on_c, 6, 53, 0
8, 29376, Note_on_c, 6, 53, 100
8, 29568, Note_on_c, 6, 53, 0
8, 29568, Note_on_c, 6, 50, 100
8, 29760, Note_on_c, 6, 50, 0
8, 29760, Note_on_c, 6, 47, 100
8, 29952, Note_on_c, 6, 47, 0
8, 30144, Note_on_c, 6, 52, 100
8, 30336, Note_on_c, 6, 52, 0
8, 30336, Note_on_c, 6, 56, 100
8, 30528, Note_on_c, 6, 56, 0
8, 30528, Note_on_c, 6, 52, 100
8, 30720, Note_on_c, 6, 52, 0
8, 30912, Note_on_c, 6, 52, 100
8, 31104, Note_on_c, 6, 52, 0
8, 31104, Note_on_c, 6, 48, 100
8, 31296, Note_on_c, 6, 48, 0
8, 31296, Note_on_c, 6, 45, 100
8, 31488, Note_on_c, 6, 45, 0
8, 31488, Note_on_c, 6, 57, 100
8, 31872, Note_on_c, 6, 57, 0
8, 32064, Note_on_c, 6, 45, 100
8, 32256, Note_on_c, 6, 45, 0
8, 32256, Note_on_c, 6, 57, 100
8, 32448, Note_on_c, 6, 57, 0
8, 32448, Note_on_c, 6, 45, 100
8, 32640, Note_on_c, 6, 45, 0
8, 32640, Note_on_c, 6, 52, 100
8, 32832, Note_on_c, 6, 52, 0
8, 32832, Note_on_c, 6, 40, 100
8, 33024, Note_on_c, 6, 40, 0
8, 33024, Note_on_c, 6, 45, 100
8, 33216, Note_on_c, 6, 45, 0
8, 33216, Note_on_c, 6, 57, 100
8, 33312, Note_on_c, 6, 57, 0
8, 33312, Note_on_c, 6, 59, 100
8, 33408, Note_on_c, 6, 59, 0
8, 33408, Note_on_c, 6, 60, 100
8, 33600, Note_on_c, 6, 60, 0
8, 33600, Note_on_c, 6, 57, 100
8, 33792, Note_on_c, 6, 57, 0
8, 33792, Note_on_c, 6, 45, 100
8, 33984, Note_on_c, 6, 45, 0
8, 34752, Note_on_c, 6, 55, 100
8, 34848, Note_on_c, 6, 55, 0
8, 34848, Note_on_c, 6, 57, 100
8, 34944, Note_on_c, 6, 57, 0
8, 34944, Note_on_c, 6, 59, 100
8, 35136, Note_on_c, 6, 59, 0
8, 35136, Note_on_c, 6, 55, 100
8, 35328, Note_on_c, 6, 55, 0
8, 35328, Note_on_c, 6, 43, 100
8, 35520, Note_on_c, 6, 43, 0
8, 36288, Note_on_c, 6, 53, 100
8, 36384, Note_on_c, 6, 53, 0
8, 36384, Note_on_c, 6, 55, 100
8, 36480, Note_on_c, 6, 55, 0
8, 36480, Note_on_c, 6, 57, 100
8, 36672, Note_on_c, 6, 57, 0
8, 36672, Note_on_c, 6, 53, 100
8, 36864, Note_on_c, 6, 53, 0
8, 36864, Note_on_c, 6, 41, 100
8, 37056, Note_on_c, 6, 41, 0
8, 37824, Note_on_c, 6, 53, 100
8, 38016, Note_on_c, 6, 53, 0
8, 38016, Note_on_c, 6, 52, 100
8, 38208, Note_on_c, 6, 52, 0
8, 38208, Note_on_c, 6, 50, 100
8, 38400, Note_on_c, 6, 50, 0
8, 38400, Note_on_c, 6, 48, 100
8, 38592, Note_on_c, 6, 48, 0
8, 38592, Note_on_c, 6, 60, 100
8, 38784, Note_on_c, 6, 60, 0
8, 38784, Note_on_c, 6, 59, 100
8, 38976, Note_on_c, 6, 59, 0
8, 38976, Note_on_c, 6, 57, 100
8, 39168, Note_on_c, 6, 57, 0
8, 39168, Note_on_c, 6, 55, 100
8, 39360, Note_on_c, 6, 55, 0
8, 39360, Note_on_c, 6, 57, 100
8, 39552, Note_on_c, 6, 57, 0
8, 39552, Note_on_c, 6, 55, 100
8, 39744, Note_on_c, 6, 55, 0
8, 39744, Note_on_c, 6, 53, 100
8, 39936, Note_on_c, 6, 53, 0
8, 39936, Note_on_c, 6, 52, 100
8, 40128, Note_on_c, 6, 52, 0
8, 40128, Note_on_c, 6, 55, 100
8, 40320, Note_on_c, 6, 55, 0
8, 40320, Note_on_c, 6, 52, 100
8, 40512, Note_on_c, 6, 52, 0
8, 40512, Note_on_c, 6, 48, 100
8, 40704, Note_on_c, 6, 48, 0
8, 40704, Note_on_c, 6, 53, 100
8, 40896, Note_on_c, 6, 53, 0
8, 40896, Note_on_c, 6, 57, 100
8, 41088, Note_on_c, 6, 57, 0
8, 41088, Note_on_c, 6, 53, 100
8, 41280, Note_on_c, 6, 53, 0
8, 41280, Note_on_c, 6, 50, 100
8, 41472, Note_on_c, 6, 50, 0
8, 41472, Note_on_c, 6, 52, 100
8, 41664, Note_on_c, 6, 52, 0
8, 41664, Note_on_c, 6, 48, 100
8, 41856, Note_on_c, 6, 48, 0
8, 41856, Note_on_c, 6, 55, 100
8, 42048, Note_on_c, 6, 55, 0
8, 42048, Note_on_c, 6, 43, 100
8, 42240, Note_on_c, 6, 43, 0
8, 42240, Note_on_c, 6, 36, 100
8, 42432, Note_on_c, 6, 36, 0
8, 42432, Note_on_c, 6, 48, 100
8, 42528, Note_on_c, 6, 48, 0
8, 42528, Note_on_c, 6, 50, 100
8, 42624, Note_on_c, 6, 50, 0
8, 42624, Note_on_c, 6, 52, 100
8, 42816, Note_on_c, 6, 52, 0
8, 42816, Note_on_c, 6, 48, 100
8, 43008, Note_on_c, 6, 48, 0
8, 43008, Note_on_c, 6, 47, 100
8, 43200, Note_on_c, 6, 47, 0
8, 43200, Note_on_c, 6, 55, 100
8, 43392, Note_on_c, 6, 55, 0
8, 43392, Note_on_c, 6, 48, 100
8, 43584, Note_on_c, 6, 48, 0
8, 43584, Note_on_c, 6, 55, 100
8, 43776, Note_on_c, 6, 55, 0
8, 43776, Note_on_c, 6, 50, 100
8, 43968, Note_on_c, 6, 50, 0
8, 43968, Note_on_c, 6, 55, 100
8, 44160, Note_on_c, 6, 55, 0
8, 44160, Note_on_c, 6, 52, 100
8, 44352, Note_on_c, 6, 52, 0
8, 44352, Note_on_c, 6, 55, 100
8, 44544, Note_on_c, 6, 55, 0
8, 44544, Note_on_c, 6, 53, 100
8, 44736, Note_on_c, 6, 53, 0
8, 44736, Note_on_c, 6, 55, 100
8, 44928, Note_on_c, 6, 55, 0
8, 44928, Note_on_c, 6, 57, 100
8, 45120, Note_on_c, 6, 57, 0
8, 45120, Note_on_c, 6, 53, 100
8, 45312, Note_on_c, 6, 53, 0
8, 45312, Note_on_c, 6, 55, 100
8, 45408, Note_on_c, 6, 55, 0
8, 45408, Note_on_c, 6, 57, 100
8, 45504, Note_on_c, 6, 57, 0
8, 45504, Note_on_c, 6, 59, 100
8, 45600, Note_on_c, 6, 59, 0
8, 45600, Note_on_c, 6, 57, 100
8, 45696, Note_on_c, 6, 57, 0
8, 45696, Note_on_c, 6, 55, 100
8, 45792, Note_on_c, 6, 55, 0
8, 45792, Note_on_c, 6, 53, 100
8, 45888, Note_on_c, 6, 53, 0
8, 45888, Note_on_c, 6, 52, 100
8, 45984, Note_on_c, 6, 52, 0
8, 45984, Note_on_c, 6, 50, 100
8, 46080, Note_on_c, 6, 50, 0
8, 46080, Note_on_c, 6, 48, 100
8, 46272, Note_on_c, 6, 48, 0
8, 46272, Note_on_c, 6, 52, 100
8, 46464, Note_on_c, 6, 52, 0
8, 46464, Note_on_c, 6, 48, 100
8, 46656, Note_on_c, 6, 48, 0
8, 46656, Note_on_c, 6, 45, 100
8, 46848, Note_on_c, 6, 45, 0
8, 46848, Note_on_c, 6, 50, 100
8, 47040, Note_on_c, 6, 50, 0
8, 47040, Note_on_c, 6, 38, 100
8, 47232, Note_on_c, 6, 38, 0
8, 48576, Note_on_c, 6, 54, 100
8, 48672, Note_on_c, 6, 54, 0
8, 48672, Note_on_c, 6, 52, 100
8, 48768, Note_on_c, 6, 52, 0
8, 48768, Note_on_c, 6, 50, 100
8, 48864, Note_on_c, 6, 50, 0
8, 48864, Note_on_c, 6, 48, 100
8, 48960, Note_on_c, 6, 48, 0
8, 48960, Note_on_c, 6, 47, 100
8, 49056, Note_on_c, 6, 47, 0
8, 49056, Note_on_c, 6, 45, 100
8, 49152, Note_on_c, 6, 45, 0
8, 49152, Note_on_c, 6, 47, 100
8, 49344, Note_on_c, 6, 47, 0
8, 49344, Note_on_c, 6, 50, 100
8, 49536, Note_on_c, 6, 50, 0
8, 49536, Note_on_c, 6, 47, 100
8, 49728, Note_on_c, 6, 47, 0
8, 49728, Note_on_c, 6, 43, 100
8, 49920, Note_on_c, 6, 43, 0
8, 49920, Note_on_c, 6, 48, 100
8, 50112, Note_on_c, 6, 48, 0
8, 50112, Note_on_c, 6, 36, 100
8, 50304, Note_on_c, 6, 36, 0
8, 51648, Note_on_c, 6, 60, 100
8, 51744, Note_on_c, 6, 60, 0
8, 51744, Note_on_c, 6, 59, 100
8, 51840, Note_on_c, 6, 59, 0
8, 51840, Note_on_c, 6, 60, 100
8, 51936, Note_on_c, 6, 60, 0
8, 51936, Note_on_c, 6, 62, 100
8, 52032, Note_on_c, 6, 62, 0
8, 52032, Note_on_c, 6, 60, 100
8, 52128, Note_on_c, 6, 60, 0
8, 52128, Note_on_c, 6, 59, 100
8, 52224, Note_on_c, 6, 59, 0
8, 52224, Note_on_c, 6, 57, 100
8, 52320, Note_on_c, 6, 57, 0
8, 52320, Note_on_c, 6, 59, 100
8, 52416, Note_on_c, 6, 59, 0
8, 52416, Note_on_c, 6, 57, 100
8, 52512, Note_on_c, 6, 57, 0
8, 52512, Note_on_c, 6, 55, 100
8, 52608, Note_on_c, 6, 55, 0
8, 52608, Note_on_c, 6, 54, 100
8, 52704, Note_on_c, 6, 54, 0
8, 52704, Note_on_c, 6, 55, 100
8, 52800, Note_on_c, 6, 55, 0
8, 52800, Note_on_c, 6, 54, 100
8, 52896, Note_on_c, 6, 54, 0
8, 52896, Note_on_c, 6, 52, 100
8, 52992, Note_on_c, 6, 52, 0
8, 52992, Note_on_c, 6, 51, 100
8, 53088, Note_on_c, 6, 51, 0
8, 53088, Note_on_c, 6, 47, 100
8, 53184, Note_on_c, 6, 47, 0
8, 53184, Note_on_c, 6, 49, 100
8, 53280, Note_on_c, 6, 49, 0
8, 53280, Note_on_c, 6, 51, 100
8, 53376, Note_on_c, 6, 51, 0
8, 53376, Note_on_c, 6, 52, 100
8, 53472, Note_on_c, 6, 52, 0
8, 53472, Note_on_c, 6, 54, 100
8, 53568, Note_on_c, 6, 54, 0
8, 53568, Note_on_c, 6, 55, 100
8, 53664, Note_on_c, 6, 55, 0
8, 53664, Note_on_c, 6, 52, 100
8, 53760, Note_on_c, 6, 52, 0
8, 53760, Note_on_c, 6, 48, 100
8, 53952, Note_on_c, 6, 48, 0
8, 53952, Note_on_c, 6, 47, 100
8, 54144, Note_on_c, 6, 47, 0
8, 54144, Note_on_c, 6, 48, 100
8, 54336, Note_on_c, 6, 48, 0
8, 54336, Note_on_c, 6, 45, 100
8, 54528, Note_on_c, 6, 45, 0
8, 54528, Note_on_c, 6, 47, 100
8, 54816, Note_on_c, 6, 47, 0
8, 54816, Note_on_c, 6, 49, 100
8, 54864, Note_on_c, 6, 49, 0
8, 54864, Note_on_c, 6, 51, 100
8, 54912, Note_on_c, 6, 51, 0
8, 54912, Note_on_c, 6, 52, 100
8, 55008, Note_on_c, 6, 52, 0
8, 55008, Note_on_c, 6, 54, 100
8, 55104, Note_on_c, 6, 54, 0
8, 55104, Note_on_c, 6, 55, 100
8, 55200, Note_on_c, 6, 55, 0
8, 55200, Note_on_c, 6, 57, 100
8, 55296, Note_on_c, 6, 57, 0
8, 55296, Note_on_c, 6, 59, 100
8, 55488, Note_on_c, 6, 59, 0
8, 55488, Note_on_c, 6, 57, 100
8, 55680, Note_on_c, 6, 57, 0
8, 55680, Note_on_c, 6, 59, 100
8, 55872, Note_on_c, 6, 59, 0
8, 55872, Note_on_c, 6, 47, 100
8, 56064, Note_on_c, 6, 47, 0
8, 56064, Note_on_c, 6, 57, 100
8, 56256, Note_on_c, 6, 57, 0
8, 56256, Note_on_c, 6, 59, 100
8, 56448, Note_on_c, 6, 59, 0
8, 56448, Note_on_c, 6, 57, 100
8, 56640, Note_on_c, 6, 57, 0
8, 56640, Note_on_c, 6, 55, 100
8, 56832, Note_on_c, 6, 55, 0
8, 56832, Note_on_c, 6, 54, 100
8, 57024, Note_on_c, 6, 54, 0
8, 57024, Note_on_c, 6, 55, 100
8, 57216, Note_on_c, 6, 55, 0
8, 57216, Note_on_c, 6, 54, 100
8, 57408, Note_on_c, 6, 54, 0
8, 57408, Note_on_c, 6, 52, 100
8, 57600, Note_on_c, 6, 52, 0
8, 57600, Note_on_c, 6, 51, 100
8, 57792, Note_on_c, 6, 51, 0
8, 57792, Note_on_c, 6, 52, 100
8, 57984, Note_on_c, 6, 52, 0
8, 57984, Note_on_c, 6, 54, 100
8, 58176, Note_on_c, 6, 54, 0
8, 58176, Note_on_c, 6, 55, 100
8, 58368, Note_on_c, 6, 55, 0
8, 58368, Note_on_c, 6, 57, 100
8, 58560, Note_on_c, 6, 57, 0
8, 58560, Note_on_c, 6, 59, 100
8, 58752, Note_on_c, 6, 59, 0
8, 58752, Note_on_c, 6, 60, 100
8, 58944, Note_on_c, 6, 60, 0
8, 58944, Note_on_c, 6, 54, 100
8, 59136, Note_on_c, 6, 54, 0
8, 59136, Note_on_c, 6, 59, 100
8, 59328, Note_on_c, 6, 59, 0
8, 59328, Note_on_c, 6, 57, 100
8, 59424, Note_on_c, 6, 57, 0
8, 59424, Note_on_c, 6, 55, 100
8, 59520, Note_on_c, 6, 55, 0
8, 59520, Note_on_c, 6, 54, 100
8, 59712, Note_on_c, 6, 54, 0
8, 59712, Note_on_c, 6, 52, 100
8, 59904, Note_on_c, 6, 52, 0
8, 59904, Note_on_c, 6, 51, 100
8, 60096, Note_on_c, 6, 51, 0
8, 60096, Note_on_c, 6, 49, 100
8, 60288, Note_on_c, 6, 49, 0
8, 60288, Note_on_c, 6, 47, 100
8, 60480, Note_on_c, 6, 47, 0
8, 60480, Note_on_c, 6, 45, 100
8, 60672, Note_on_c, 6, 45, 0
8, 60672, Note_on_c, 6, 43, 100
8, 60864, Note_on_c, 6, 43, 0
8, 60864, Note_on_c, 6, 48, 100
8, 61056, Note_on_c, 6, 48, 0
8, 61056, Note_on_c, 6, 45, 100
8, 61248, Note_on_c, 6, 45, 0
8, 61248, Note_on_c, 6, 47, 100
8, 61440, Note_on_c, 6, 47, 0
8, 61440, Note_on_c, 6, 36, 100
8, 61824, Note_on_c, 6, 36, 0
8, 62016, Note_on_c, 6, 60, 100
8, 62208, Note_on_c, 6, 60, 0
8, 62208, Note_on_c, 6, 51, 100
8, 62400, Note_on_c, 6, 51, 0
8, 62400, Note_on_c, 6, 51, 100
8, 62592, Note_on_c, 6, 51, 0
8, 62592, Note_on_c, 6, 51, 100
8, 62784, Note_on_c, 6, 51, 0
8, 62784, Note_on_c, 6, 54, 100
8, 62976, Note_on_c, 6, 54, 0
8, 62976, Note_on_c, 6, 45, 100
8, 63168, Note_on_c, 6, 45, 0
8, 63168, Note_on_c, 6, 45, 100
8, 63360, Note_on_c, 6, 45, 0
8, 63360, Note_on_c, 6, 45, 100
8, 63552, Note_on_c, 6, 45, 0
8, 63552, Note_on_c, 6, 48, 100
8, 63744, Note_on_c, 6, 48, 0
8, 63744, Note_on_c, 6, 42, 100
8, 63936, Note_on_c, 6, 42, 0
8, 63936, Note_on_c, 6, 43, 100
8, 64032, Note_on_c, 6, 43, 0
8, 64032, Note_on_c, 6, 45, 100
8, 64128, Note_on_c, 6, 45, 0
8, 64128, Note_on_c, 6, 47, 100
8, 64320, Note_on_c, 6, 47, 0
8, 64320, Note_on_c, 6, 47, 100
8, 64512, Note_on_c, 6, 47, 0
8, 64512, Note_on_c, 6, 40, 100
8, 64704, Note_on_c, 6, 40, 0
8, 64704, Note_on_c, 6, 52, 100
8, 64800, Note_on_c, 6, 52, 0
8, 64800, Note_on_c, 6, 51, 100
8, 64896, Note_on_c, 6, 51, 0
8, 64896, Note_on_c, 6, 52, 100
8, 65088, Note_on_c, 6, 52, 0
8, 65088, Note_on_c, 6, 54, 100
8, 65280, Note_on_c, 6, 54, 0
8, 65280, Note_on_c, 6, 55, 100
8, 65664, Note_on_c, 6, 55, 0
8, 65856, Note_on_c, 6, 52, 100
8, 66048, Note_on_c, 6, 52, 0
8, 66048, Note_on_c, 6, 59, 100
8, 66432, Note_on_c, 6, 59, 0
8, 66624, Note_on_c, 6, 47, 100
8, 66816, Note_on_c, 6, 47, 0
8, 66816, Note_on_c, 6, 39, 100
8, 67200, Note_on_c, 6, 39, 0
8, 67392, Note_on_c, 6, 47, 100
8, 67584, Note_on_c, 6, 47, 0
8, 67584, Note_on_c, 6, 52, 100
8, 67968, Note_on_c, 6, 52, 0
8, 69312, Note_on_c, 6, 52, 100
8, 69504, Note_on_c, 6, 52, 0
8, 69504, Note_on_c, 6, 40, 100
8, 69696, Note_on_c, 6, 40, 0
8, 69696, Note_on_c, 6, 52, 100
8, 69888, Note_on_c, 6, 52, 0
8, 69888, Note_on_c, 6, 45, 100
8, 70272, Note_on_c, 6, 45, 0
8, 70848, Note_on_c, 6, 57, 100
8, 71040, Note_on_c, 6, 57, 0
8, 71040, Note_on_c, 6, 45, 100
8, 71232, Note_on_c, 6, 45, 0
8, 71232, Note_on_c, 6, 57, 100
8, 71424, Note_on_c, 6, 57, 0
8, 71424, Note_on_c, 6, 50, 100
8, 71808, Note_on_c, 6, 50, 0
8, 72384, Note_on_c, 6, 50, 100
8, 72576, Note_on_c, 6, 50, 0
8, 72576, Note_on_c, 6, 38, 100
8, 72768, Note_on_c, 6, 38, 0
8, 72768, Note_on_c, 6, 50, 100
8, 72960, Note_on_c, 6, 50, 0
8, 72960, Note_on_c, 6, 43, 100
8, 73344, Note_on_c, 6, 43, 0
8, 73920, Note_on_c, 6, 55, 100
8, 74112, Note_on_c, 6, 55, 0
8, 74112, Note_on_c, 6, 43, 100
8, 74304, Note_on_c, 6, 43, 0
8, 74304, Note_on_c, 6, 55, 100
8, 74496, Note_on_c, 6, 55, 0
8, 74496, Note_on_c, 6, 48, 100
8, 74880, Note_on_c, 6, 48, 0
8, 74880, Note_on_c, 6, 58, 100
8, 75264, Note_on_c, 6, 58, 0
8, 75264, Note_on_c, 6, 57, 100
8, 75648, Note_on_c, 6, 57, 0
8, 75648, Note_on_c, 6, 55, 100
8, 76032, Note_on_c, 6, 55, 0
8, 76032, Note_on_c, 6, 53, 100
8, 76224, Note_on_c, 6, 53, 0
8, 76224, Note_on_c, 6, 52, 100
8, 76416, Note_on_c, 6, 52, 0
8, 76416, Note_on_c, 6, 50, 100
8, 76608, Note_on_c, 6, 50, 0
8, 76608, Note_on_c, 6, 53, 100
8, 76800, Note_on_c, 6, 53, 0
8, 76800, Note_on_c, 6, 55, 100
8, 76992, Note_on_c, 6, 55, 0
8, 76992, Note_on_c, 6, 53, 100
8, 77184, Note_on_c, 6, 53, 0
8, 77184, Note_on_c, 6, 52, 100
8, 77376, Note_on_c, 6, 52, 0
8, 77376, Note_on_c, 6, 55, 100
8, 77568, Note_on_c, 6, 55, 0
8, 77568, Note_on_c, 6, 57, 100
8, 77760, Note_on_c, 6, 57, 0
8, 77760, Note_on_c, 6, 59, 100
8, 77952, Note_on_c, 6, 59, 0
8, 77952, Note_on_c, 6, 61, 100
8, 78144, Note_on_c, 6, 61, 0
8, 78144, Note_on_c, 6, 57, 100
8, 78336, Note_on_c, 6, 57, 0
8, 78336, Note_on_c, 6, 53, 100
8, 78528, Note_on_c, 6, 53, 0
8, 78528, Note_on_c, 6, 57, 100
8, 78720, Note_on_c, 6, 57, 0
8, 78720, Note_on_c, 6, 53, 100
8, 78912, Note_on_c, 6, 53, 0
8, 78912, Note_on_c, 6, 50, 100
8, 79104, Note_on_c, 6, 50, 0
8, 79104, Note_on_c, 6, 55, 100
8, 79296, Note_on_c, 6, 55, 0
8, 79296, Note_on_c, 6, 58, 100
8, 79488, Note_on_c, 6, 58, 0
8, 79488, Note_on_c, 6, 55, 100
8, 79680, Note_on_c, 6, 55, 0
8, 79680, Note_on_c, 6, 50, 100
8, 79872, Note_on_c, 6, 50, 0
8, 79872, Note_on_c, 6, 62, 100
8, 80064, Note_on_c, 6, 62, 0
8, 80064, Note_on_c, 6, 50, 100
8, 80256, Note_on_c, 6, 50, 0
8, 80256, Note_on_c, 6, 57, 100
8, 80448, Note_on_c, 6, 57, 0
8, 80448, Note_on_c, 6, 45, 100
8, 80640, Note_on_c, 6, 45, 0
8, 80640, Note_on_c, 6, 50, 100
8, 80832, Note_on_c, 6, 50, 0
8, 80832, Note_on_c, 6, 38, 100
8, 81024, Note_on_c, 6, 38, 0
8, 83136, Note_on_c, 6, 55, 100
8, 83232, Note_on_c, 6, 55, 0
8, 83232, Note_on_c, 6, 57, 100
8, 83328, Note_on_c, 6, 57, 0
8, 83328, Note_on_c, 6, 55, 100
8, 83424, Note_on_c, 6, 55, 0
8, 83424, Note_on_c, 6, 53, 100
8, 83520, Note_on_c, 6, 53, 0
8, 83520, Note_on_c, 6, 52, 100
8, 83616, Note_on_c, 6, 52, 0
8, 83616, Note_on_c, 6, 50, 100
8, 83712, Note_on_c, 6, 50, 0
8, 83712, Note_on_c, 6, 48, 100
8, 83904, Note_on_c, 6, 48, 0
8, 83904, Note_on_c, 6, 60, 100
8, 84096, Note_on_c, 6, 60, 0
8, 85440, Note_on_c, 6, 53, 100
8, 85536, Note_on_c, 6, 53, 0
8, 85536, Note_on_c, 6, 55, 100
8, 85632, Note_on_c, 6, 55, 0
8, 85632, Note_on_c, 6, 53, 100
8, 85728, Note_on_c, 6, 53, 0
8, 85728, Note_on_c, 6, 52, 100
8, 85824, Note_on_c, 6, 52, 0
8, 85824, Note_on_c, 6, 50, 100
8, 85920, Note_on_c, 6, 50, 0
8, 85920, Note_on_c, 6, 48, 100
8, 86016, Note_on_c, 6, 48, 0
8, 86016, Note_on_c, 6, 46, 100
8, 86208, Note_on_c, 6, 46, 0
8, 86208, Note_on_c, 6, 58, 100
8, 86400, Note_on_c, 6, 58, 0
8, 87744, Note_on_c, 6, 52, 100
8, 87840, Note_on_c, 6, 52, 0
8, 87840, Note_on_c, 6, 53, 100
8, 87936, Note_on_c, 6, 53, 0
8, 87936, Note_on_c, 6, 52, 100
8, 88032, Note_on_c, 6, 52, 0
8, 88032, Note_on_c, 6, 50, 100
8, 88128, Note_on_c, 6, 50, 0
8, 88128, Note_on_c, 6, 49, 100
8, 88224, Note_on_c, 6, 49, 0
8, 88224, Note_on_c, 6, 47, 100
8, 88320, Note_on_c, 6, 47, 0
8, 88320, Note_on_c, 6, 45, 100
8, 88512, Note_on_c, 6, 45, 0
8, 88512, Note_on_c, 6, 57, 100
8, 88704, Note_on_c, 6, 57, 0
8, 90048, Note_on_c, 6, 50, 100
8, 90240, Note_on_c, 6, 50, 0
8, 90240, Note_on_c, 6, 62, 100
8, 90432, Note_on_c, 6, 62, 0
8, 90432, Note_on_c, 6, 53, 100
8, 90624, Note_on_c, 6, 53, 0
8, 90624, Note_on_c, 6, 55, 100
8, 90816, Note_on_c, 6, 55, 0
8, 90816, Note_on_c, 6, 57, 100
8, 91008, Note_on_c, 6, 57, 0
8, 91008, Note_on_c, 6, 59, 100
8, 91200, Note_on_c, 6, 59, 0
8, 91200, Note_on_c, 6, 55, 100
8, 91392, Note_on_c, 6, 55, 0
8, 91392, Note_on_c, 6, 60, 100
8, 91584, Note_on_c, 6, 60, 0
8, 91584, Note_on_c, 6, 48, 100
8, 91776, Note_on_c, 6, 48, 0
8, 91776, Note_on_c, 6, 60, 100
8, 91968, Note_on_c, 6, 60, 0
8, 91968, Note_on_c, 6, 52, 100
8, 92160, Note_on_c, 6, 52, 0
8, 92160, Note_on_c, 6, 53, 100
8, 92352, Note_on_c, 6, 53, 0
8, 92352, Note_on_c, 6, 55, 100
8, 92544, Note_on_c, 6, 55, 0
8, 92544, Note_on_c, 6, 57, 100
8, 92736, Note_on_c, 6, 57, 0
8, 92736, Note_on_c, 6, 53, 100
8, 92928, Note_on_c, 6, 53, 0
8, 92928, Note_on_c, 6, 59, 100
8, 93120, Note_on_c, 6, 59, 0
8, 93120, Note_on_c, 6, 47, 100
8, 93312, Note_on_c, 6, 47, 0
8, 93312, Note_on_c, 6, 59, 100
8, 93504, Note_on_c, 6, 59, 0
8, 93504, Note_on_c, 6, 56, 100
8, 93696, Note_on_c, 6, 56, 0
8, 93696, Note_on_c, 6, 52, 100
8, 93888, Note_on_c, 6, 52, 0
8, 93888, Note_on_c, 6, 40, 100
8, 94080, Note_on_c, 6, 40, 0
8, 94656, Note_on_c, 6, 45, 100
8, 94848, Note_on_c, 6, 45, 0
8, 94848, Note_on_c, 6, 57, 100
8, 95232, Note_on_c, 6, 57, 0
8, 95424, Note_on_c, 6, 45, 100
8, 95616, Note_on_c, 6, 45, 0
8, 95616, Note_on_c, 6, 57, 100
8, 96000, Note_on_c, 6, 57, 0
8, 96192, Note_on_c, 6, 45, 100
8, 96384, Note_on_c, 6, 45, 0
8, 96384, Note_on_c, 6, 52, 100
8, 96576, Note_on_c, 6, 52, 0
8, 96576, Note_on_c, 6, 40, 100
8, 96768, Note_on_c, 6, 40, 0
8, 96768, Note_on_c, 6, 57, 100
8, 96960, Note_on_c, 6, 57, 0
8, 96960, Note_on_c, 6, 45, 100
8, 97152, Note_on_c, 6, 45, 0
8, 97152, Note_on_c, 6, 48, 100
8, 97344, Note_on_c, 6, 48, 0
8, 97344, Note_on_c, 6, 52, 100
8, 97536, Note_on_c, 6, 52, 0
8, 97536, Note_on_c, 6, 57, 100
8, 97920, Note_on_c, 6, 57, 0
8, 97920, Note_on_c, 6, 55, 100
8, 98304, Note_on_c, 6, 55, 0
8, 98304, Note_on_c, 6, 53, 100
8, 98688, Note_on_c, 6, 53, 0
8, 98688, Note_on_c, 6, 52, 100
8, 99072, Note_on_c, 6, 52, 0
8, 99072, Note_on_c, 6, 50, 100
8, 99456, Note_on_c, 6, 50, 0
8, 99456, Note_on_c, 6, 48, 100
8, 99840, Note_on_c, 6, 48, 0
8, 99840, Note_on_c, 6, 46, 100
8, 100224, Note_on_c, 6, 46, 0
8, 100224, Note_on_c, 6, 45, 100
8, 100608, Note_on_c, 6, 45, 0
8, 100608, Note_on_c, 6, 43, 100
8, 100992, Note_on_c, 6, 43, 0
8, 100992, Note_on_c, 6, 41, 100
8, 101376, Note_on_c, 6, 41, 0
8, 101376, Note_on_c, 6, 39, 100
8, 101760, Note_on_c, 6, 39, 0
8, 101760, Note_on_c, 6, 38, 100
8, 102144, Note_on_c, 6, 38, 0
8, 102144, Note_on_c, 6, 36, 100
8, 102336, Note_on_c, 6, 36, 0
8, 102336, Note_on_c, 6, 36, 100
8, 102528, Note_on_c, 6, 36, 0
8, 102528, Note_on_c, 6, 36, 100
8, 102720, Note_on_c, 6, 36, 0
8, 102720, Note_on_c, 6, 36, 100
8, 102912, Note_on_c, 6, 36, 0
8, 102912, Note_on_c, 6, 36, 100
8, 103104, Note_on_c, 6, 36, 0
8, 103104, Note_on_c, 6, 36, 100
8, 103296, Note_on_c, 6, 36, 0
8, 103296, Note_on_c, 6, 36, 100
8, 103488, Note_on_c, 6, 36, 0
8, 103488, Note_on_c, 6, 36, 100
8, 103680, Note_on_c, 6, 36, 0
8, 103680, Note_on_c, 6, 36, 100
8, 103872, Note_on_c, 6, 36, 0
8, 103872, Note_on_c, 6, 36, 100
8, 104064, Note_on_c, 6, 36, 0
8, 104064, Note_on_c, 6, 48, 100
8, 104256, Note_on_c, 6, 48, 0
8, 104256, Note_on_c, 6, 48, 100
8, 104448, Note_on_c, 6, 48, 0
8, 104448, Note_on_c, 6, 46, 100
8, 104640, Note_on_c, 6, 46, 0
8, 104640, Note_on_c, 6, 62, 100
8, 104832, Note_on_c, 6, 62, 0
8, 104832, Note_on_c, 6, 58, 100
8, 105024, Note_on_c, 6, 58, 0
8, 105024, Note_on_c, 6, 55, 100
8, 105216, Note_on_c, 6, 55, 0
8, 105216, Note_on_c, 6, 43, 100
8, 105408, Note_on_c, 6, 43, 0
8, 105408, Note_on_c, 6, 43, 100
8, 105600, Note_on_c, 6, 43, 0
8, 105600, Note_on_c, 6, 43, 100
8, 105792, Note_on_c, 6, 43, 0
8, 105792, Note_on_c, 6, 43, 100
8, 105984, Note_on_c, 6, 43, 0
8, 105984, Note_on_c, 6, 41, 100
8, 106176, Note_on_c, 6, 41, 0
8, 106176, Note_on_c, 6, 57, 100
8, 106368, Note_on_c, 6, 57, 0
8, 106368, Note_on_c, 6, 53, 100
8, 106560, Note_on_c, 6, 53, 0
8, 106560, Note_on_c, 6, 50, 100
8, 106752, Note_on_c, 6, 50, 0
8, 106752, Note_on_c, 6, 38, 100
8, 106944, Note_on_c, 6, 38, 0
8, 106944, Note_on_c, 6, 38, 100
8, 107136, Note_on_c, 6, 38, 0
8, 107136, Note_on_c, 6, 38, 100
8, 107328, Note_on_c, 6, 38, 0
8, 107328, Note_on_c, 6, 38, 100
8, 107520, Note_on_c, 6, 38, 0
8, 107520, Note_on_c, 6, 36, 100
8, 107712, Note_on_c, 6, 36, 0
8, 107712, Note_on_c, 6, 50, 100
8, 107904, Note_on_c, 6, 50, 0
8, 107904, Note_on_c, 6, 48, 100
8, 108096, Note_on_c, 6, 48, 0
8, 108096, Note_on_c, 6, 47, 100
8, 108288, Note_on_c, 6, 47, 0
8, 108288, Note_on_c, 6, 45, 100
8, 108480, Note_on_c, 6, 45, 0
8, 108480, Note_on_c, 6, 57, 100
8, 108672, Note_on_c, 6, 57, 0
8, 108672, Note_on_c, 6, 55, 100
8, 108864, Note_on_c, 6, 55, 0
8, 108864, Note_on_c, 6, 53, 100
8, 109056, Note_on_c, 6, 53, 0
8, 109056, Note_on_c, 6, 52, 100
8, 109248, Note_on_c, 6, 52, 0
8, 109248, Note_on_c, 6, 53, 100
8, 109440, Note_on_c, 6, 53, 0
8, 109440, Note_on_c, 6, 52, 100
8, 109632, Note_on_c, 6, 52, 0
8, 109632, Note_on_c, 6, 50, 100
8, 109824, Note_on_c, 6, 50, 0
8, 109824, Note_on_c, 6, 48, 100
8, 110016, Note_on_c, 6, 48, 0
8, 110016, Note_on_c, 6, 52, 100
8, 110208, Note_on_c, 6, 52, 0
8, 110208, Note_on_c, 6, 48, 100
8, 110400, Note_on_c, 6, 48, 0
8, 110400, Note_on_c, 6, 45, 100
8, 110592, Note_on_c, 6, 45, 0
8, 110592, Note_on_c, 6, 50, 100
8, 110784, Note_on_c, 6, 50, 0
8, 110784, Note_on_c, 6, 53, 100
8, 110976, Note_on_c, 6, 53, 0
8, 110976, Note_on_c, 6, 50, 100
8, 111168, Note_on_c, 6, 50, 0
8, 111168, Note_on_c, 6, 47, 100
8, 111360, Note_on_c, 6, 47, 0
8, 111360, Note_on_c, 6, 48, 100
8, 111552, Note_on_c, 6, 48, 0
8, 111552, Note_on_c, 6, 45, 100
8, 111744, Note_on_c, 6, 45, 0
8, 111744, Note_on_c, 6, 52, 100
8, 111936, Note_on_c, 6, 52, 0
8, 111936, Note_on_c, 6, 40, 100
8, 112128, Note_on_c, 6, 40, 0
8, 112128, Note_on_c, 6, 45, 100
8, 112320, Note_on_c, 6, 45, 0
8, 112320, Note_on_c, 6, 60, 100
8, 112416, Note_on_c, 6, 60, 0
8, 112416, Note_on_c, 6, 59, 100
8, 112512, Note_on_c, 6, 59, 0
8, 112512, Note_on_c, 6, 57, 100
8, 112608, Note_on_c, 6, 57, 0
8, 112608, Note_on_c, 6, 55, 100
8, 112704, Note_on_c, 6, 55, 0
8, 112704, Note_on_c, 6, 53, 100
8, 112800, Note_on_c, 6, 53, 0
8, 112800, Note_on_c, 6, 52, 100
8, 112896, Note_on_c, 6, 52, 0
8, 112896, Note_on_c, 6, 53, 100
8, 113088, Note_on_c, 6, 53, 0
8, 113088, Note_on_c, 6, 57, 100
8, 113280, Note_on_c, 6, 57, 0
8, 113280, Note_on_c, 6, 53, 100
8, 113472, Note_on_c, 6, 53, 0
8, 113472, Note_on_c, 6, 50, 100
8, 113664, Note_on_c, 6, 50, 0
8, 113664, Note_on_c, 6, 55, 100
8, 113856, Note_on_c, 6, 55, 0
8, 113856, Note_on_c, 6, 43, 100
8, 114048, Note_on_c, 6, 43, 0
8, 115392, Note_on_c, 6, 59, 100
8, 115488, Note_on_c, 6, 59, 0
8, 115488, Note_on_c, 6, 57, 100
8, 115584, Note_on_c, 6, 57, 0
8, 115584, Note_on_c, 6, 55, 100
8, 115680, Note_on_c, 6, 55, 0
8, 115680, Note_on_c, 6, 53, 100
8, 115776, Note_on_c, 6, 53, 0
8, 115776, Note_on_c, 6, 52, 100
8, 115872, Note_on_c, 6, 52, 0
8, 115872, Note_on_c, 6, 50, 100
8, 115968, Note_on_c, 6, 50, 0
8, 115968, Note_on_c, 6, 52, 100
8, 116160, Note_on_c, 6, 52, 0
8, 116160, Note_on_c, 6, 55, 100
8, 116352, Note_on_c, 6, 55, 0
8, 116352, Note_on_c, 6, 52, 100
8, 116544, Note_on_c, 6, 52, 0
8, 116544, Note_on_c, 6, 48, 100
8, 116736, Note_on_c, 6, 48, 0
8, 116736, Note_on_c, 6, 53, 100
8, 116928, Note_on_c, 6, 53, 0
8, 116928, Note_on_c, 6, 41, 100
8, 117120, Note_on_c, 6, 41, 0
8, 118464, Note_on_c, 6, 57, 100
8, 118560, Note_on_c, 6, 57, 0
8, 118560, Note_on_c, 6, 55, 100
8, 118656, Note_on_c, 6, 55, 0
8, 118656, Note_on_c, 6, 53, 100
8, 118752, Note_on_c, 6, 53, 0
8, 118752, Note_on_c, 6, 52, 100
8, 118848, Note_on_c, 6, 52, 0
8, 118848, Note_on_c, 6, 50, 100
8, 118944, Note_on_c, 6, 50, 0
8, 118944, Note_on_c, 6, 48, 100
8, 119040, Note_on_c, 6, 48, 0
8, 119040, Note_on_c, 6, 50, 100
8, 119136, Note_on_c, 6, 50, 0
8, 119136, Note_on_c, 6, 52, 100
8, 119232, Note_on_c, 6, 52, 0
8, 119232, Note_on_c, 6, 50, 100
8, 119328, Note_on_c, 6, 50, 0
8, 119328, Note_on_c, 6, 48, 100
8, 119424, Note_on_c, 6, 48, 0
8, 119424, Note_on_c, 6, 47, 100
8, 119520, Note_on_c, 6, 47, 0
8, 119520, Note_on_c, 6, 48, 100
8, 119616, Note_on_c, 6, 48, 0
8, 119616, Note_on_c, 6, 47, 100
8, 119712, Note_on_c, 6, 47, 0
8, 119712, Note_on_c, 6, 45, 100
8, 119808, Note_on_c, 6, 45, 0
8, 119808, Note_on_c, 6, 44, 100
8, 119904, Note_on_c, 6, 44, 0
8, 119904, Note_on_c, 6, 40, 100
8, 120000, Note_on_c, 6, 40, 0
8, 120000, Note_on_c, 6, 42, 100
8, 120096, Note_on_c, 6, 42, 0
8, 120096, Note_on_c, 6, 44, 100
8, 120192, Note_on_c, 6, 44, 0
8, 120192, Note_on_c, 6, 45, 100
8, 120288, Note_on_c, 6, 45, 0
8, 120288, Note_on_c, 6, 47, 100
8, 120384, Note_on_c, 6, 47, 0
8, 120384, Note_on_c, 6, 48, 100
8, 120480, Note_on_c, 6, 48, 0
8, 120480, Note_on_c, 6, 45, 100
8, 120576, Note_on_c, 6, 45, 0
8, 120576, Note_on_c, 6, 41, 100
8, 120768, Note_on_c, 6, 41, 0
8, 120768, Note_on_c, 6, 48, 100
8, 120960, Note_on_c, 6, 48, 0
8, 120960, Note_on_c, 6, 50, 100
8, 121152, Note_on_c, 6, 50, 0
8, 121152, Note_on_c, 6, 47, 100
8, 121344, Note_on_c, 6, 47, 0
8, 121344, Note_on_c, 6, 52, 100
8, 121632, Note_on_c, 6, 52, 0
8, 121632, Note_on_c, 6, 54, 100
8, 121680, Note_on_c, 6, 54, 0
8, 121680, Note_on_c, 6, 56, 100
8, 121728, Note_on_c, 6, 56, 0
8, 121728, Note_on_c, 6, 57, 100
8, 121824, Note_on_c, 6, 57, 0
8, 121824, Note_on_c, 6, 59, 100
8, 121920, Note_on_c, 6, 59, 0
8, 121920, Note_on_c, 6, 60, 100
8, 122016, Note_on_c, 6, 60, 0
8, 122016, Note_on_c, 6, 62, 100
8, 122112, Note_on_c, 6, 62, 0
8, 122112, Note_on_c, 6, 64, 100
8, 122304, Note_on_c, 6, 64, 0
8, 122304, Note_on_c, 6, 62, 100
8, 122496, Note_on_c, 6, 62, 0
8, 122496, Note_on_c, 6, 64, 100
8, 122688, Note_on_c, 6, 64, 0
8, 122688, Note_on_c, 6, 52, 100
8, 122880, Note_on_c, 6, 52, 0
8, 122880, Note_on_c, 6, 62, 100
8, 123072, Note_on_c, 6, 62, 0
8, 123072, Note_on_c, 6, 64, 100
8, 123264, Note_on_c, 6, 64, 0
8, 123264, Note_on_c, 6, 62, 100
8, 123456, Note_on_c, 6, 62, 0
8, 123456, Note_on_c, 6, 60, 100
8, 123648, Note_on_c, 6, 60, 0
8, 123648, Note_on_c, 6, 59, 100
8, 123840, Note_on_c, 6, 59, 0
8, 123840, Note_on_c, 6, 60, 100
8, 124032, Note_on_c, 6, 60, 0
8, 124032, Note_on_c, 6, 59, 100
8, 124224, Note_on_c, 6, 59, 0
8, 124224, Note_on_c, 6, 57, 100
8, 124416, Note_on_c, 6, 57, 0
8, 124416, Note_on_c, 6, 56, 100
8, 124608, Note_on_c, 6, 56, 0
8, 124608, Note_on_c, 6, 57, 100
8, 124800, Note_on_c, 6, 57, 0
8, 124800, Note_on_c, 6, 59, 100
8, 124992, Note_on_c, 6, 59, 0
8, 124992, Note_on_c, 6, 60, 100
8, 125184, Note_on_c, 6, 60, 0
8, 125184, Note_on_c, 6, 50, 100
8, 125376, Note_on_c, 6, 50, 0
8, 125376, Note_on_c, 6, 52, 100
8, 125568, Note_on_c, 6, 52, 0
8, 125568, Note_on_c, 6, 53, 100
8, 125760, Note_on_c, 6, 53, 0
8, 125760, Note_on_c, 6, 47, 100
8, 125952, Note_on_c, 6, 47, 0
8, 125952, Note_on_c, 6, 52, 100
8, 126144, Note_on_c, 6, 52, 0
8, 126144, Note_on_c, 6, 50, 100
8, 126240, Note_on_c, 6, 50, 0
8, 126240, Note_on_c, 6, 48, 100
8, 126336, Note_on_c, 6, 48, 0
8, 126336, Note_on_c, 6, 47, 100
8, 126528, Note_on_c, 6, 47, 0
8, 126528, Note_on_c, 6, 45, 100
8, 126720, Note_on_c, 6, 45, 0
8, 126720, Note_on_c, 6, 44, 100
8, 126912, Note_on_c, 6, 44, 0
8, 126912, Note_on_c, 6, 42, 100
8, 127104, Note_on_c, 6, 42, 0
8, 127104, Note_on_c, 6, 40, 100
8, 127296, Note_on_c, 6, 40, 0
8, 127296, Note_on_c, 6, 38, 100
8, 127488, Note_on_c, 6, 38, 0
8, 127488, Note_on_c, 6, 36, 100
8, 127680, Note_on_c, 6, 36, 0
8, 127680, Note_on_c, 6, 53, 100
8, 127872, Note_on_c, 6, 53, 0
8, 127872, Note_on_c, 6, 50, 100
8, 128064, Note_on_c, 6, 50, 0
8, 128064, Note_on_c, 6, 52, 100
8, 128256, Note_on_c, 6, 52, 0
8, 128256, Note_on_c, 6, 41, 100
8, 128640, Note_on_c, 6, 41, 0
8, 128832, Note_on_c, 6, 53, 100
8, 129024, Note_on_c, 6, 53, 0
8, 129024, Note_on_c, 6, 44, 100
8, 129216, Note_on_c, 6, 44, 0
8, 129216, Note_on_c, 6, 44, 100
8, 129408, Note_on_c, 6, 44, 0
8, 129408, Note_on_c, 6, 44, 100
8, 129600, Note_on_c, 6, 44, 0
8, 129600, Note_on_c, 6, 59, 100
8, 129792, Note_on_c, 6, 59, 0
8, 129792, Note_on_c, 6, 50, 100
8, 129984, Note_on_c, 6, 50, 0
8, 129984, Note_on_c, 6, 50, 100
8, 130176, Note_on_c, 6, 50, 0
8, 130176, Note_on_c, 6, 50, 100
8, 130368, Note_on_c, 6, 50, 0
8, 130368, Note_on_c, 6, 53, 100
8, 130560, Note_on_c, 6, 53, 0
8, 130560, Note_on_c, 6, 47, 100
8, 130752, Note_on_c, 6, 47, 0
8, 130752, Note_on_c, 6, 48, 100
8, 130848, Note_on_c, 6, 48, 0
8, 130848, Note_on_c, 6, 50, 100
8, 130944, Note_on_c, 6, 50, 0
8, 130944, Note_on_c, 6, 52, 100
8, 131136, Note_on_c, 6, 52, 0
8, 131136, Note_on_c, 6, 40, 100
8, 131328, Note_on_c, 6, 40, 0
8, 131328, Note_on_c, 6, 45, 100
8, 131904, Note_on_c, 6, 45, 0
8, 131904, End_track
9, 0, Start_track
9, 0, MIDI_port, 0
9, 0, Title_t, "------------------------------------------"
9, 0, End_track
10, 0, Start_track
10, 0, MIDI_port, 0
10, 0, Title_t, "Johann Sebastian Bach  (1685-1750)"
10, 0, End_track
11, 0, Start_track
11, 0, MIDI_port, 0
11, 0, Title_t, "Violin Concerto No. 1 in A minor - BWV 1041"
11, 0, End_track
12, 0, Start_track
12, 0, MIDI_port, 0
12, 0, Title_t, "1st Movement: ( Allegro moderato )"
12, 0, End_track
13, 0, Start_track
13, 0, MIDI_port, 0
13, 0, Title_t, "------------------------------------------"
13, 0, End_track
0, 0, End_of_file
