0, 0, Header, 1, 6, 240
1, 0, Start_track
1, 0, Title_t, "untitled"
1, 0, SMPTE_offset, 96, 0, 3, 0, 0
1, 0, Time_signature, 4, 2, 24, 8
1, 0, Key_signature, 2, "major"
1, 0, Tempo, 1000000
1, 0, Marker_t, "Andante"
1, 114236, Tempo, 1000000
1, 114272, Tempo, 983607
1, 114324, Tempo, 1000000
1, 114328, Tempo, 1016949
1, 114344, Tempo, 1034483
1, 114364, Tempo, 1052632
1, 114384, Tempo, 1071429
1, 114392, Tempo, 1090909
1, 114404, Tempo, 1111111
1, 114424, Tempo, 1132075
1, 114436, Tempo, 1153846
1, 114444, Tempo, 1176471
1, 114460, Tempo, 1200000
1, 114488, Tempo, 1224490
1, 114516, Tempo, 1250000
1, 114524, Tempo, 1276596
1, 114544, Tempo, 1304348
1, 114556, Tempo, 1333333
1, 114584, Tempo, 1363636
1, 114592, Tempo, 1395349
1, 114616, Tempo, 1428571
1, 114644, Tempo, 1463415
1, 114812, Tempo, 1428571
1, 114816, Tempo, 1395349
1, 114820, Tempo, 1363636
1, 114832, Tempo, 1333333
1, 114844, Tempo, 1304348
1, 114852, Tempo, 1276596
1, 114864, Tempo, 1250000
1, 114880, Tempo, 1224490
1, 114884, Tempo, 1200000
1, 114888, Tempo, 1176471
1, 114896, Tempo, 1153846
1, 114900, Tempo, 1132075
1, 114908, Tempo, 1111111
1, 114912, Tempo, 1090909
1, 114920, Tempo, 1071429
1, 114932, Tempo, 1052632
1, 114944, Tempo, 1034483
1, 114948, Tempo, 1016949
1, 114968, Tempo, 500000
1, 115200, Tempo, 2000000
1, 115200, Marker_t, "Largo e dolce"
1, 138240, Tempo, 333333
1, 138240, Marker_t, "Presto"
1, 217940, Tempo, 600000
1, 310314, Tempo, 600000
1, 310320, Tempo, 612245
1, 310344, Tempo, 618557
1, 310380, Tempo, 612245
1, 310384, Tempo, 606061
1, 310448, Tempo, 612245
1, 310452, Tempo, 618557
1, 310456, Tempo, 625000
1, 310464, Tempo, 638298
1, 310468, Tempo, 645161
1, 310476, Tempo, 652174
1, 310480, Tempo, 659341
1, 310484, Tempo, 666667
1, 310492, Tempo, 674157
1, 310496, Tempo, 681818
1, 310500, Tempo, 689655
1, 310504, Tempo, 697674
1, 310508, Tempo, 705882
1, 310512, Tempo, 722892
1, 310516, Tempo, 740741
1, 310520, Tempo, 750000
1, 310524, Tempo, 769231
1, 310528, Tempo, 779221
1, 310532, Tempo, 810811
1, 310536, Tempo, 821918
1, 310540, Tempo, 833333
1, 310544, Tempo, 857143
1, 310548, Tempo, 869565
1, 310556, Tempo, 882353
1, 310564, Tempo, 909091
1, 310576, Tempo, 923077
1, 310580, Tempo, 937500
1, 310584, Tempo, 967742
1, 310592, Tempo, 983607
1, 310600, Tempo, 1016949
1, 310604, Tempo, 1034483
1, 310608, Tempo, 1052632
1, 310612, Tempo, 1071429
1, 310616, Tempo, 1090909
1, 310620, Tempo, 1111111
1, 310624, Tempo, 1132075
1, 310628, Tempo, 1153846
1, 310636, Tempo, 1200000
1, 310640, Tempo, 1224490
1, 310644, Tempo, 1250000
1, 310652, Tempo, 1304348
1, 310656, Tempo, 1363636
1, 310664, Tempo, 1428571
1, 310668, Tempo, 1463415
1, 310672, Tempo, 1500000
1, 310676, Tempo, 1621622
1, 310684, Tempo, 1764706
1, 310688, Tempo, 1818182
1, 310692, Tempo, 1875000
1, 310696, Tempo, 2000000
1, 310700, Tempo, 2068966
1, 310704, Tempo, 2142857
1, 310708, Tempo, 2307692
1, 310712, Tempo, 2400000
1, 310716, Tempo, 2608696
1, 310720, Tempo, 2727273
1, 310724, Tempo, 2857143
1, 310728, Tempo, 3000000
1, 310732, Tempo, 3157895
1, 310736, Tempo, 3529412
1, 310744, Tempo, 3750000
1, 310748, Tempo, 4285714
1, 310752, Tempo, 4615385
1, 310756, Tempo, 5454545
1, 310760, Tempo, 6000000
1, 310764, Tempo, 6000000
1, 310894, Tempo, 6000000
1, 310938, Tempo, 6000000
1, 310982, Tempo, 6000000
1, 310982, End_track
2, 0, Start_track
2, 0, MIDI_port, 0
2, 0, Title_t, "J. S. Bach Sonata for Flute and "
2, 0, End_track
3, 0, Start_track
3, 0, MIDI_port, 0
3, 0, Title_t, "Harpsichord in B minor  BWV 1030"
3, 0, End_track
4, 0, Start_track
4, 0, MIDI_port, 0
4, 0, Title_t, "Flute"
4, 0, Program_c, 0, 73
4, 0, Control_c, 0, 7, 100
4, 0, Control_c, 0, 10, 64
4, 0, Control_c, 0, 1, 16
4, 840, Note_on_c, 0, 71, 100
4, 960, Note_on_c, 0, 71, 0
4, 960, Note_on_c, 0, 78, 100
4, 1080, Note_on_c, 0, 78, 0
4, 1080, Note_on_c, 0, 78, 100
4, 1320, Note_on_c, 0, 78, 0
4, 1320, Note_on_c, 0, 76, 100
4, 1350, Note_on_c, 0, 76, 0
4, 1350, Note_on_c, 0, 78, 100
4, 1380, Note_on_c, 0, 78, 0
4, 1380, Note_on_c, 0, 79, 100
4, 1440, Note_on_c, 0, 79, 0
4, 1440, Note_on_c, 0, 78, 100
4, 1560, Note_on_c, 0, 78, 0
4, 1560, Note_on_c, 0, 78, 100
4, 1800, Note_on_c, 0, 78, 0
4, 1800, Note_on_c, 0, 76, 100
4, 1830, Note_on_c, 0, 76, 0
4, 1830, Note_on_c, 0, 78, 100
4, 1860, Note_on_c, 0, 78, 0
4, 1860, Note_on_c, 0, 79, 100
4, 1920, Note_on_c, 0, 79, 0
4, 1920, Note_on_c, 0, 78, 100
4, 2040, Note_on_c, 0, 78, 0
4, 2040, Note_on_c, 0, 79, 100
4, 2160, Note_on_c, 0, 79, 0
4, 2160, Note_on_c, 0, 78, 100
4, 2280, Note_on_c, 0, 78, 0
4, 2280, Note_on_c, 0, 76, 100
4, 2400, Note_on_c, 0, 76, 0
4, 2400, Note_on_c, 0, 74, 100
4, 2520, Note_on_c, 0, 74, 0
4, 2520, Note_on_c, 0, 73, 100
4, 2580, Note_on_c, 0, 73, 0
4, 2580, Note_on_c, 0, 74, 100
4, 2640, Note_on_c, 0, 74, 0
4, 2640, Note_on_c, 0, 71, 100
4, 2760, Note_on_c, 0, 71, 0
4, 4680, Note_on_c, 0, 71, 100
4, 4800, Note_on_c, 0, 71, 0
4, 4800, Note_on_c, 0, 78, 100
4, 4920, Note_on_c, 0, 78, 0
4, 4920, Note_on_c, 0, 78, 100
4, 5160, Note_on_c, 0, 78, 0
4, 5160, Note_on_c, 0, 76, 100
4, 5190, Note_on_c, 0, 76, 0
4, 5190, Note_on_c, 0, 78, 100
4, 5220, Note_on_c, 0, 78, 0
4, 5220, Note_on_c, 0, 79, 100
4, 5280, Note_on_c, 0, 79, 0
4, 5280, Note_on_c, 0, 78, 100
4, 5400, Note_on_c, 0, 78, 0
4, 5400, Note_on_c, 0, 78, 100
4, 5640, Note_on_c, 0, 78, 0
4, 5640, Note_on_c, 0, 76, 100
4, 5670, Note_on_c, 0, 76, 0
4, 5670, Note_on_c, 0, 78, 100
4, 5700, Note_on_c, 0, 78, 0
4, 5700, Note_on_c, 0, 79, 100
4, 5760, Note_on_c, 0, 79, 0
4, 5760, Note_on_c, 0, 78, 100
4, 5880, Note_on_c, 0, 78, 0
4, 5880, Note_on_c, 0, 79, 100
4, 6000, Note_on_c, 0, 79, 0
4, 6000, Note_on_c, 0, 78, 100
4, 6120, Note_on_c, 0, 78, 0
4, 6120, Note_on_c, 0, 76, 100
4, 6240, Note_on_c, 0, 76, 0
4, 6240, Note_on_c, 0, 74, 100
4, 6360, Note_on_c, 0, 74, 0
4, 6360, Note_on_c, 0, 73, 100
4, 6420, Note_on_c, 0, 73, 0
4, 6420, Note_on_c, 0, 74, 100
4, 6480, Note_on_c, 0, 74, 0
4, 6480, Note_on_c, 0, 71, 100
4, 6600, Note_on_c, 0, 71, 0
4, 6600, Note_on_c, 0, 78, 100
4, 6720, Note_on_c, 0, 78, 0
4, 6720, Note_on_c, 0, 79, 100
4, 6840, Note_on_c, 0, 79, 0
4, 6840, Note_on_c, 0, 79, 100
4, 6960, Note_on_c, 0, 79, 0
4, 6960, Note_on_c, 0, 79, 100
4, 7080, Note_on_c, 0, 79, 0
4, 7080, Note_on_c, 0, 79, 100
4, 7200, Note_on_c, 0, 79, 0
4, 7200, Note_on_c, 0, 79, 100
4, 7320, Note_on_c, 0, 79, 0
4, 7320, Note_on_c, 0, 88, 100
4, 7560, Note_on_c, 0, 88, 0
4, 7560, Note_on_c, 0, 79, 100
4, 7680, Note_on_c, 0, 79, 0
4, 7680, Note_on_c, 0, 78, 100
4, 7800, Note_on_c, 0, 78, 0
4, 7800, Note_on_c, 0, 78, 100
4, 7920, Note_on_c, 0, 78, 0
4, 7920, Note_on_c, 0, 78, 100
4, 8040, Note_on_c, 0, 78, 0
4, 8040, Note_on_c, 0, 78, 100
4, 8160, Note_on_c, 0, 78, 0
4, 8160, Note_on_c, 0, 78, 100
4, 8280, Note_on_c, 0, 78, 0
4, 8280, Note_on_c, 0, 86, 100
4, 8460, Note_on_c, 0, 86, 0
4, 8460, Note_on_c, 0, 85, 100
4, 8520, Note_on_c, 0, 85, 0
4, 8520, Note_on_c, 0, 83, 100
4, 8580, Note_on_c, 0, 83, 0
4, 8580, Note_on_c, 0, 81, 100
4, 8640, Note_on_c, 0, 81, 0
4, 8640, Note_on_c, 0, 80, 100
4, 8760, Note_on_c, 0, 80, 0
4, 8760, Note_on_c, 0, 79, 100
4, 8880, Note_on_c, 0, 79, 0
4, 8880, Note_on_c, 0, 78, 100
4, 9000, Note_on_c, 0, 78, 0
4, 9000, Note_on_c, 0, 77, 100
4, 9120, Note_on_c, 0, 77, 0
4, 9120, Note_on_c, 0, 76, 100
4, 9240, Note_on_c, 0, 76, 0
4, 9240, Note_on_c, 0, 67, 100
4, 9360, Note_on_c, 0, 67, 0
4, 9360, Note_on_c, 0, 66, 100
4, 9420, Note_on_c, 0, 66, 0
4, 9420, Note_on_c, 0, 70, 100
4, 9480, Note_on_c, 0, 70, 0
4, 9480, Note_on_c, 0, 73, 100
4, 9540, Note_on_c, 0, 73, 0
4, 9540, Note_on_c, 0, 76, 100
4, 9600, Note_on_c, 0, 76, 0
4, 9600, Note_on_c, 0, 74, 100
4, 9780, Note_on_c, 0, 74, 0
4, 9780, Note_on_c, 0, 76, 100
4, 9840, Note_on_c, 0, 76, 0
4, 9840, Note_on_c, 0, 78, 100
4, 9855, Note_on_c, 0, 78, 0
4, 9855, Note_on_c, 0, 76, 100
4, 9870, Note_on_c, 0, 76, 0
4, 9870, Note_on_c, 0, 78, 100
4, 9885, Note_on_c, 0, 78, 0
4, 9885, Note_on_c, 0, 76, 100
4, 9900, Note_on_c, 0, 76, 0
4, 9900, Note_on_c, 0, 78, 100
4, 9915, Note_on_c, 0, 78, 0
4, 9915, Note_on_c, 0, 76, 100
4, 9930, Note_on_c, 0, 76, 0
4, 9930, Note_on_c, 0, 78, 100
4, 9945, Note_on_c, 0, 78, 0
4, 9945, Note_on_c, 0, 76, 100
4, 9960, Note_on_c, 0, 76, 0
4, 9960, Note_on_c, 0, 78, 100
4, 9975, Note_on_c, 0, 78, 0
4, 9975, Note_on_c, 0, 76, 100
4, 9990, Note_on_c, 0, 76, 0
4, 9990, Note_on_c, 0, 78, 100
4, 10005, Note_on_c, 0, 78, 0
4, 10005, Note_on_c, 0, 76, 100
4, 10020, Note_on_c, 0, 76, 0
4, 10020, Note_on_c, 0, 74, 100
4, 10050, Note_on_c, 0, 74, 0
4, 10050, Note_on_c, 0, 76, 100
4, 10080, Note_on_c, 0, 76, 0
4, 10080, Note_on_c, 0, 78, 100
4, 10320, Note_on_c, 0, 78, 0
4, 10440, Note_on_c, 0, 76, 100
4, 10560, Note_on_c, 0, 76, 0
4, 10560, Note_on_c, 0, 75, 100
4, 10620, Note_on_c, 0, 75, 0
4, 10620, Note_on_c, 0, 78, 100
4, 10680, Note_on_c, 0, 78, 0
4, 10680, Note_on_c, 0, 72, 100
4, 10860, Note_on_c, 0, 72, 0
4, 10860, Note_on_c, 0, 71, 100
4, 10920, Note_on_c, 0, 71, 0
4, 10920, Note_on_c, 0, 81, 100
4, 10950, Note_on_c, 0, 81, 0
4, 10950, Note_on_c, 0, 79, 100
4, 10980, Note_on_c, 0, 79, 0
4, 10980, Note_on_c, 0, 78, 100
4, 11040, Note_on_c, 0, 78, 0
4, 11040, Note_on_c, 0, 78, 100
4, 11160, Note_on_c, 0, 78, 0
4, 11160, Note_on_c, 0, 79, 100
4, 11280, Note_on_c, 0, 79, 0
4, 11400, Note_on_c, 0, 74, 100
4, 11520, Note_on_c, 0, 74, 0
4, 11520, Note_on_c, 0, 73, 100
4, 11580, Note_on_c, 0, 73, 0
4, 11580, Note_on_c, 0, 76, 100
4, 11640, Note_on_c, 0, 76, 0
4, 11640, Note_on_c, 0, 68, 100
4, 11820, Note_on_c, 0, 68, 0
4, 11820, Note_on_c, 0, 69, 100
4, 11880, Note_on_c, 0, 69, 0
4, 11880, Note_on_c, 0, 79, 100
4, 11910, Note_on_c, 0, 79, 0
4, 11910, Note_on_c, 0, 78, 100
4, 11940, Note_on_c, 0, 78, 0
4, 11940, Note_on_c, 0, 76, 100
4, 12000, Note_on_c, 0, 76, 0
4, 12000, Note_on_c, 0, 76, 100
4, 12120, Note_on_c, 0, 76, 0
4, 12120, Note_on_c, 0, 78, 100
4, 12240, Note_on_c, 0, 78, 0
4, 12360, Note_on_c, 0, 71, 100
4, 12480, Note_on_c, 0, 71, 0
4, 12480, Note_on_c, 0, 72, 100
4, 12600, Note_on_c, 0, 72, 0
4, 12600, Note_on_c, 0, 75, 100
4, 12720, Note_on_c, 0, 75, 0
4, 12720, Note_on_c, 0, 76, 100
4, 12840, Note_on_c, 0, 76, 0
4, 12840, Note_on_c, 0, 79, 100
4, 12960, Note_on_c, 0, 79, 0
4, 12960, Note_on_c, 0, 82, 100
4, 13080, Note_on_c, 0, 82, 0
4, 13080, Note_on_c, 0, 86, 100
4, 13200, Note_on_c, 0, 86, 0
4, 13200, Note_on_c, 0, 85, 100
4, 13320, Note_on_c, 0, 85, 0
4, 13320, Note_on_c, 0, 76, 100
4, 13440, Note_on_c, 0, 76, 0
4, 13440, Note_on_c, 0, 74, 100
4, 13560, Note_on_c, 0, 74, 0
4, 13560, Note_on_c, 0, 73, 100
4, 13620, Note_on_c, 0, 73, 0
4, 13620, Note_on_c, 0, 71, 100
4, 13680, Note_on_c, 0, 71, 0
4, 13680, Note_on_c, 0, 74, 100
4, 13740, Note_on_c, 0, 74, 0
4, 13740, Note_on_c, 0, 73, 100
4, 13800, Note_on_c, 0, 73, 0
4, 13800, Note_on_c, 0, 71, 100
4, 13860, Note_on_c, 0, 71, 0
4, 13860, Note_on_c, 0, 70, 100
4, 13920, Note_on_c, 0, 70, 0
4, 13920, Note_on_c, 0, 71, 100
4, 14160, Note_on_c, 0, 71, 0
4, 14280, Note_on_c, 0, 73, 100
4, 14400, Note_on_c, 0, 73, 0
4, 14400, Note_on_c, 0, 74, 100
4, 14520, Note_on_c, 0, 74, 0
4, 14520, Note_on_c, 0, 79, 100
4, 14640, Note_on_c, 0, 79, 0
4, 14640, Note_on_c, 0, 78, 100
4, 14760, Note_on_c, 0, 78, 0
4, 14760, Note_on_c, 0, 83, 100
4, 14880, Note_on_c, 0, 83, 0
4, 14880, Note_on_c, 0, 77, 100
4, 15000, Note_on_c, 0, 77, 0
4, 15000, Note_on_c, 0, 78, 100
4, 15120, Note_on_c, 0, 78, 0
4, 15240, Note_on_c, 0, 83, 100
4, 15360, Note_on_c, 0, 83, 0
4, 15360, Note_on_c, 0, 82, 100
4, 15480, Note_on_c, 0, 82, 0
4, 15480, Note_on_c, 0, 86, 100
4, 15600, Note_on_c, 0, 86, 0
4, 15600, Note_on_c, 0, 85, 100
4, 15720, Note_on_c, 0, 85, 0
4, 15720, Note_on_c, 0, 88, 100
4, 15840, Note_on_c, 0, 88, 0
4, 15840, Note_on_c, 0, 79, 100
4, 15960, Note_on_c, 0, 79, 0
4, 15960, Note_on_c, 0, 78, 100
4, 16080, Note_on_c, 0, 78, 0
4, 16200, Note_on_c, 0, 78, 100
4, 16320, Note_on_c, 0, 78, 0
4, 16320, Note_on_c, 0, 86, 100
4, 16440, Note_on_c, 0, 86, 0
4, 16440, Note_on_c, 0, 86, 100
4, 16560, Note_on_c, 0, 86, 0
4, 16560, Note_on_c, 0, 86, 100
4, 16680, Note_on_c, 0, 86, 0
4, 16680, Note_on_c, 0, 86, 100
4, 16800, Note_on_c, 0, 86, 0
4, 16800, Note_on_c, 0, 86, 100
4, 16830, Note_on_c, 0, 86, 0
4, 16830, Note_on_c, 0, 85, 100
4, 16860, Note_on_c, 0, 85, 0
4, 16860, Note_on_c, 0, 83, 100
4, 16920, Note_on_c, 0, 83, 0
4, 16920, Note_on_c, 0, 83, 100
4, 16980, Note_on_c, 0, 83, 0
4, 16980, Note_on_c, 0, 85, 100
4, 17160, Note_on_c, 0, 85, 0
4, 17160, Note_on_c, 0, 76, 100
4, 17280, Note_on_c, 0, 76, 0
4, 17280, Note_on_c, 0, 84, 100
4, 17400, Note_on_c, 0, 84, 0
4, 17400, Note_on_c, 0, 84, 100
4, 17520, Note_on_c, 0, 84, 0
4, 17520, Note_on_c, 0, 84, 100
4, 17640, Note_on_c, 0, 84, 0
4, 17640, Note_on_c, 0, 84, 100
4, 17760, Note_on_c, 0, 84, 0
4, 17760, Note_on_c, 0, 84, 100
4, 17790, Note_on_c, 0, 84, 0
4, 17790, Note_on_c, 0, 83, 100
4, 17820, Note_on_c, 0, 83, 0
4, 17820, Note_on_c, 0, 82, 100
4, 17880, Note_on_c, 0, 82, 0
4, 17880, Note_on_c, 0, 82, 100
4, 17940, Note_on_c, 0, 82, 0
4, 17940, Note_on_c, 0, 83, 100
4, 18120, Note_on_c, 0, 83, 0
4, 18120, Note_on_c, 0, 74, 100
4, 18300, Note_on_c, 0, 74, 0
4, 18300, Note_on_c, 0, 73, 100
4, 18360, Note_on_c, 0, 73, 0
4, 18360, Note_on_c, 0, 73, 100
4, 18420, Note_on_c, 0, 73, 0
4, 18420, Note_on_c, 0, 72, 100
4, 18480, Note_on_c, 0, 72, 0
4, 18480, Note_on_c, 0, 72, 100
4, 18540, Note_on_c, 0, 72, 0
4, 18540, Note_on_c, 0, 71, 100
4, 18600, Note_on_c, 0, 71, 0
4, 18600, Note_on_c, 0, 71, 100
4, 18660, Note_on_c, 0, 71, 0
4, 18660, Note_on_c, 0, 70, 100
4, 18720, Note_on_c, 0, 70, 0
4, 18720, Note_on_c, 0, 70, 100
4, 18780, Note_on_c, 0, 70, 0
4, 18780, Note_on_c, 0, 79, 100
4, 18840, Note_on_c, 0, 79, 0
4, 18840, Note_on_c, 0, 79, 100
4, 18900, Note_on_c, 0, 79, 0
4, 18900, Note_on_c, 0, 78, 100
4, 18960, Note_on_c, 0, 78, 0
4, 18960, Note_on_c, 0, 78, 100
4, 19020, Note_on_c, 0, 78, 0
4, 19020, Note_on_c, 0, 82, 100
4, 19080, Note_on_c, 0, 82, 0
4, 19080, Note_on_c, 0, 82, 100
4, 19140, Note_on_c, 0, 82, 0
4, 19140, Note_on_c, 0, 83, 100
4, 19200, Note_on_c, 0, 83, 0
4, 19200, Note_on_c, 0, 71, 100
4, 19320, Note_on_c, 0, 71, 0
4, 19320, Note_on_c, 0, 79, 100
4, 19380, Note_on_c, 0, 79, 0
4, 19380, Note_on_c, 0, 78, 100
4, 19440, Note_on_c, 0, 78, 0
4, 19440, Note_on_c, 0, 76, 100
4, 19500, Note_on_c, 0, 76, 0
4, 19500, Note_on_c, 0, 74, 100
4, 19560, Note_on_c, 0, 74, 0
4, 19560, Note_on_c, 0, 73, 100
4, 19620, Note_on_c, 0, 73, 0
4, 19620, Note_on_c, 0, 71, 100
4, 19680, Note_on_c, 0, 71, 0
4, 19680, Note_on_c, 0, 71, 100
4, 19920, Note_on_c, 0, 71, 0
4, 20040, Note_on_c, 0, 78, 100
4, 20160, Note_on_c, 0, 78, 0
4, 20160, Note_on_c, 0, 86, 100
4, 20190, Note_on_c, 0, 86, 0
4, 20190, Note_on_c, 0, 85, 100
4, 20220, Note_on_c, 0, 85, 0
4, 20220, Note_on_c, 0, 83, 100
4, 20280, Note_on_c, 0, 83, 0
4, 20280, Note_on_c, 0, 83, 100
4, 20340, Note_on_c, 0, 83, 0
4, 20340, Note_on_c, 0, 85, 100
4, 20460, Note_on_c, 0, 85, 0
4, 20460, Note_on_c, 0, 83, 100
4, 20490, Note_on_c, 0, 83, 0
4, 20490, Note_on_c, 0, 85, 100
4, 20520, Note_on_c, 0, 85, 0
4, 20520, Note_on_c, 0, 86, 100
4, 20550, Note_on_c, 0, 86, 0
4, 20550, Note_on_c, 0, 85, 100
4, 20580, Note_on_c, 0, 85, 0
4, 20580, Note_on_c, 0, 83, 100
4, 20610, Note_on_c, 0, 83, 0
4, 20610, Note_on_c, 0, 82, 100
4, 20640, Note_on_c, 0, 82, 0
4, 20640, Note_on_c, 0, 83, 100
4, 20670, Note_on_c, 0, 83, 0
4, 20670, Note_on_c, 0, 82, 100
4, 20700, Note_on_c, 0, 82, 0
4, 20700, Note_on_c, 0, 80, 100
4, 20760, Note_on_c, 0, 80, 0
4, 20760, Note_on_c, 0, 78, 100
4, 20940, Note_on_c, 0, 78, 0
4, 20940, Note_on_c, 0, 80, 100
4, 20970, Note_on_c, 0, 80, 0
4, 20970, Note_on_c, 0, 82, 100
4, 21000, Note_on_c, 0, 82, 0
4, 21000, Note_on_c, 0, 83, 100
4, 21060, Note_on_c, 0, 83, 0
4, 21060, Note_on_c, 0, 85, 100
4, 21120, Note_on_c, 0, 85, 0
4, 21120, Note_on_c, 0, 86, 100
4, 21150, Note_on_c, 0, 86, 0
4, 21150, Note_on_c, 0, 85, 100
4, 21180, Note_on_c, 0, 85, 0
4, 21180, Note_on_c, 0, 83, 100
4, 21240, Note_on_c, 0, 83, 0
4, 21240, Note_on_c, 0, 83, 100
4, 21300, Note_on_c, 0, 83, 0
4, 21300, Note_on_c, 0, 85, 100
4, 21420, Note_on_c, 0, 85, 0
4, 21420, Note_on_c, 0, 83, 100
4, 21450, Note_on_c, 0, 83, 0
4, 21450, Note_on_c, 0, 85, 100
4, 21480, Note_on_c, 0, 85, 0
4, 21480, Note_on_c, 0, 86, 100
4, 21510, Note_on_c, 0, 86, 0
4, 21510, Note_on_c, 0, 85, 100
4, 21540, Note_on_c, 0, 85, 0
4, 21540, Note_on_c, 0, 83, 100
4, 21570, Note_on_c, 0, 83, 0
4, 21570, Note_on_c, 0, 82, 100
4, 21600, Note_on_c, 0, 82, 0
4, 21600, Note_on_c, 0, 83, 100
4, 21720, Note_on_c, 0, 83, 0
4, 21720, Note_on_c, 0, 71, 100
4, 21840, Note_on_c, 0, 71, 0
4, 21880, Note_on_c, 0, 71, 100
4, 21920, Note_on_c, 0, 71, 0
4, 21920, Note_on_c, 0, 73, 100
4, 21960, Note_on_c, 0, 73, 0
4, 21960, Note_on_c, 0, 74, 100
4, 22000, Note_on_c, 0, 74, 0
4, 22000, Note_on_c, 0, 76, 100
4, 22040, Note_on_c, 0, 76, 0
4, 22040, Note_on_c, 0, 78, 100
4, 22080, Note_on_c, 0, 78, 0
4, 22080, Note_on_c, 0, 79, 100
4, 22140, Note_on_c, 0, 79, 0
4, 22140, Note_on_c, 0, 71, 100
4, 22200, Note_on_c, 0, 71, 0
4, 22200, Note_on_c, 0, 69, 100
4, 22260, Note_on_c, 0, 69, 0
4, 22260, Note_on_c, 0, 78, 100
4, 22320, Note_on_c, 0, 78, 0
4, 22320, Note_on_c, 0, 67, 100
4, 22380, Note_on_c, 0, 67, 0
4, 22380, Note_on_c, 0, 76, 100
4, 22440, Note_on_c, 0, 76, 0
4, 22440, Note_on_c, 0, 68, 100
4, 22500, Note_on_c, 0, 68, 0
4, 22500, Note_on_c, 0, 74, 100
4, 22560, Note_on_c, 0, 74, 0
4, 22560, Note_on_c, 0, 74, 100
4, 22590, Note_on_c, 0, 74, 0
4, 22590, Note_on_c, 0, 73, 100
4, 22620, Note_on_c, 0, 73, 0
4, 22620, Note_on_c, 0, 71, 100
4, 22680, Note_on_c, 0, 71, 0
4, 22680, Note_on_c, 0, 71, 100
4, 22740, Note_on_c, 0, 71, 0
4, 22740, Note_on_c, 0, 73, 100
4, 22830, Note_on_c, 0, 73, 0
4, 22840, Note_on_c, 0, 69, 100
4, 22880, Note_on_c, 0, 69, 0
4, 22880, Note_on_c, 0, 71, 100
4, 22920, Note_on_c, 0, 71, 0
4, 22920, Note_on_c, 0, 73, 100
4, 22960, Note_on_c, 0, 73, 0
4, 22960, Note_on_c, 0, 74, 100
4, 23000, Note_on_c, 0, 74, 0
4, 23000, Note_on_c, 0, 76, 100
4, 23040, Note_on_c, 0, 76, 0
4, 23040, Note_on_c, 0, 78, 100
4, 23100, Note_on_c, 0, 78, 0
4, 23100, Note_on_c, 0, 69, 100
4, 23160, Note_on_c, 0, 69, 0
4, 23160, Note_on_c, 0, 67, 100
4, 23220, Note_on_c, 0, 67, 0
4, 23220, Note_on_c, 0, 76, 100
4, 23280, Note_on_c, 0, 76, 0
4, 23280, Note_on_c, 0, 66, 100
4, 23340, Note_on_c, 0, 66, 0
4, 23340, Note_on_c, 0, 74, 100
4, 23400, Note_on_c, 0, 74, 0
4, 23400, Note_on_c, 0, 69, 100
4, 23460, Note_on_c, 0, 69, 0
4, 23460, Note_on_c, 0, 72, 100
4, 23520, Note_on_c, 0, 72, 0
4, 23520, Note_on_c, 0, 72, 100
4, 23550, Note_on_c, 0, 72, 0
4, 23550, Note_on_c, 0, 71, 100
4, 23580, Note_on_c, 0, 71, 0
4, 23580, Note_on_c, 0, 70, 100
4, 23640, Note_on_c, 0, 70, 0
4, 23640, Note_on_c, 0, 70, 100
4, 23700, Note_on_c, 0, 70, 0
4, 23700, Note_on_c, 0, 71, 100
4, 23790, Note_on_c, 0, 71, 0
4, 23800, Note_on_c, 0, 67, 100
4, 23840, Note_on_c, 0, 67, 0
4, 23840, Note_on_c, 0, 69, 100
4, 23880, Note_on_c, 0, 69, 0
4, 23880, Note_on_c, 0, 71, 100
4, 23920, Note_on_c, 0, 71, 0
4, 23920, Note_on_c, 0, 73, 100
4, 23960, Note_on_c, 0, 73, 0
4, 23960, Note_on_c, 0, 74, 100
4, 24000, Note_on_c, 0, 74, 0
4, 24000, Note_on_c, 0, 76, 100
4, 24040, Note_on_c, 0, 76, 0
4, 24040, Note_on_c, 0, 79, 100
4, 24080, Note_on_c, 0, 79, 0
4, 24080, Note_on_c, 0, 78, 100
4, 24120, Note_on_c, 0, 78, 0
4, 24120, Note_on_c, 0, 76, 100
4, 24160, Note_on_c, 0, 76, 0
4, 24160, Note_on_c, 0, 74, 100
4, 24200, Note_on_c, 0, 74, 0
4, 24200, Note_on_c, 0, 73, 100
4, 24240, Note_on_c, 0, 73, 0
4, 24240, Note_on_c, 0, 71, 100
4, 24280, Note_on_c, 0, 71, 0
4, 24280, Note_on_c, 0, 70, 100
4, 24320, Note_on_c, 0, 70, 0
4, 24320, Note_on_c, 0, 71, 100
4, 24360, Note_on_c, 0, 71, 0
4, 24360, Note_on_c, 0, 73, 100
4, 24400, Note_on_c, 0, 73, 0
4, 24400, Note_on_c, 0, 74, 100
4, 24440, Note_on_c, 0, 74, 0
4, 24440, Note_on_c, 0, 76, 100
4, 24480, Note_on_c, 0, 76, 0
4, 24480, Note_on_c, 0, 78, 100
4, 24520, Note_on_c, 0, 78, 0
4, 24520, Note_on_c, 0, 74, 100
4, 24560, Note_on_c, 0, 74, 0
4, 24560, Note_on_c, 0, 76, 100
4, 24600, Note_on_c, 0, 76, 0
4, 24600, Note_on_c, 0, 78, 100
4, 24640, Note_on_c, 0, 78, 0
4, 24640, Note_on_c, 0, 80, 100
4, 24680, Note_on_c, 0, 80, 0
4, 24680, Note_on_c, 0, 82, 100
4, 24720, Note_on_c, 0, 82, 0
4, 24720, Note_on_c, 0, 83, 100
4, 24760, Note_on_c, 0, 83, 0
4, 24760, Note_on_c, 0, 78, 100
4, 24800, Note_on_c, 0, 78, 0
4, 24800, Note_on_c, 0, 80, 100
4, 24840, Note_on_c, 0, 80, 0
4, 24840, Note_on_c, 0, 82, 100
4, 24880, Note_on_c, 0, 82, 0
4, 24880, Note_on_c, 0, 83, 100
4, 24920, Note_on_c, 0, 83, 0
4, 24920, Note_on_c, 0, 85, 100
4, 24960, Note_on_c, 0, 85, 0
4, 24960, Note_on_c, 0, 86, 100
4, 25000, Note_on_c, 0, 86, 0
4, 25000, Note_on_c, 0, 88, 100
4, 25040, Note_on_c, 0, 88, 0
4, 25040, Note_on_c, 0, 86, 100
4, 25080, Note_on_c, 0, 86, 0
4, 25080, Note_on_c, 0, 85, 100
4, 25120, Note_on_c, 0, 85, 0
4, 25120, Note_on_c, 0, 83, 100
4, 25160, Note_on_c, 0, 83, 0
4, 25160, Note_on_c, 0, 81, 100
4, 25200, Note_on_c, 0, 81, 0
4, 25200, Note_on_c, 0, 79, 100
4, 25240, Note_on_c, 0, 79, 0
4, 25240, Note_on_c, 0, 81, 100
4, 25280, Note_on_c, 0, 81, 0
4, 25280, Note_on_c, 0, 79, 100
4, 25320, Note_on_c, 0, 79, 0
4, 25320, Note_on_c, 0, 78, 100
4, 25360, Note_on_c, 0, 78, 0
4, 25360, Note_on_c, 0, 76, 100
4, 25400, Note_on_c, 0, 76, 0
4, 25400, Note_on_c, 0, 74, 100
4, 25440, Note_on_c, 0, 74, 0
4, 25440, Note_on_c, 0, 73, 100
4, 25500, Note_on_c, 0, 73, 0
4, 25500, Note_on_c, 0, 81, 100
4, 25560, Note_on_c, 0, 81, 0
4, 25560, Note_on_c, 0, 74, 100
4, 25620, Note_on_c, 0, 74, 0
4, 25620, Note_on_c, 0, 79, 100
4, 25680, Note_on_c, 0, 79, 0
4, 25680, Note_on_c, 0, 78, 100
4, 25800, Note_on_c, 0, 78, 0
4, 25800, Note_on_c, 0, 76, 100
4, 25890, Note_on_c, 0, 76, 0
4, 25890, Note_on_c, 0, 74, 100
4, 25920, Note_on_c, 0, 74, 0
4, 25920, Note_on_c, 0, 74, 100
4, 26040, Note_on_c, 0, 74, 0
4, 26460, Note_on_c, 0, 86, 100
4, 26520, Note_on_c, 0, 86, 0
4, 26520, Note_on_c, 0, 88, 100
4, 26580, Note_on_c, 0, 88, 0
4, 26580, Note_on_c, 0, 79, 100
4, 26640, Note_on_c, 0, 79, 0
4, 26640, Note_on_c, 0, 78, 100
4, 26760, Note_on_c, 0, 78, 0
4, 27420, Note_on_c, 0, 78, 100
4, 27480, Note_on_c, 0, 78, 0
4, 27480, Note_on_c, 0, 81, 100
4, 27540, Note_on_c, 0, 81, 0
4, 27540, Note_on_c, 0, 73, 100
4, 27600, Note_on_c, 0, 73, 0
4, 27600, Note_on_c, 0, 74, 100
4, 27720, Note_on_c, 0, 74, 0
4, 31560, Note_on_c, 0, 78, 100
4, 31680, Note_on_c, 0, 78, 0
4, 31680, Note_on_c, 0, 85, 100
4, 31800, Note_on_c, 0, 85, 0
4, 31800, Note_on_c, 0, 85, 100
4, 32040, Note_on_c, 0, 85, 0
4, 32040, Note_on_c, 0, 83, 100
4, 32070, Note_on_c, 0, 83, 0
4, 32070, Note_on_c, 0, 85, 100
4, 32100, Note_on_c, 0, 85, 0
4, 32100, Note_on_c, 0, 86, 100
4, 32160, Note_on_c, 0, 86, 0
4, 32160, Note_on_c, 0, 85, 100
4, 32280, Note_on_c, 0, 85, 0
4, 32280, Note_on_c, 0, 85, 100
4, 32520, Note_on_c, 0, 85, 0
4, 32520, Note_on_c, 0, 83, 100
4, 32550, Note_on_c, 0, 83, 0
4, 32550, Note_on_c, 0, 85, 100
4, 32580, Note_on_c, 0, 85, 0
4, 32580, Note_on_c, 0, 86, 100
4, 32640, Note_on_c, 0, 86, 0
4, 32640, Note_on_c, 0, 85, 100
4, 32760, Note_on_c, 0, 85, 0
4, 32760, Note_on_c, 0, 86, 100
4, 32880, Note_on_c, 0, 86, 0
4, 32880, Note_on_c, 0, 85, 100
4, 33000, Note_on_c, 0, 85, 0
4, 33000, Note_on_c, 0, 83, 100
4, 33120, Note_on_c, 0, 83, 0
4, 33120, Note_on_c, 0, 81, 100
4, 33240, Note_on_c, 0, 81, 0
4, 33240, Note_on_c, 0, 80, 100
4, 33300, Note_on_c, 0, 80, 0
4, 33300, Note_on_c, 0, 81, 100
4, 33360, Note_on_c, 0, 81, 0
4, 33360, Note_on_c, 0, 78, 100
4, 33420, Note_on_c, 0, 78, 0
4, 33420, Note_on_c, 0, 73, 100
4, 33480, Note_on_c, 0, 73, 0
4, 33480, Note_on_c, 0, 74, 100
4, 33540, Note_on_c, 0, 74, 0
4, 33540, Note_on_c, 0, 78, 100
4, 33600, Note_on_c, 0, 78, 0
4, 33600, Note_on_c, 0, 72, 100
4, 33660, Note_on_c, 0, 72, 0
4, 33660, Note_on_c, 0, 80, 100
4, 33720, Note_on_c, 0, 80, 0
4, 33720, Note_on_c, 0, 80, 100
4, 33780, Note_on_c, 0, 80, 0
4, 33780, Note_on_c, 0, 73, 100
4, 33840, Note_on_c, 0, 73, 0
4, 33840, Note_on_c, 0, 73, 100
4, 33900, Note_on_c, 0, 73, 0
4, 33900, Note_on_c, 0, 71, 100
4, 33960, Note_on_c, 0, 71, 0
4, 33960, Note_on_c, 0, 70, 100
4, 34020, Note_on_c, 0, 70, 0
4, 34020, Note_on_c, 0, 71, 100
4, 34080, Note_on_c, 0, 71, 0
4, 34080, Note_on_c, 0, 70, 100
4, 34140, Note_on_c, 0, 70, 0
4, 34140, Note_on_c, 0, 78, 100
4, 34200, Note_on_c, 0, 78, 0
4, 34200, Note_on_c, 0, 78, 100
4, 34260, Note_on_c, 0, 78, 0
4, 34260, Note_on_c, 0, 71, 100
4, 34320, Note_on_c, 0, 71, 0
4, 34320, Note_on_c, 0, 71, 100
4, 34440, Note_on_c, 0, 71, 0
4, 34440, Note_on_c, 0, 83, 100
4, 34560, Note_on_c, 0, 83, 0
4, 34560, Note_on_c, 0, 85, 100
4, 34575, Note_on_c, 0, 85, 0
4, 34575, Note_on_c, 0, 83, 100
4, 34590, Note_on_c, 0, 83, 0
4, 34590, Note_on_c, 0, 85, 100
4, 34605, Note_on_c, 0, 85, 0
4, 34605, Note_on_c, 0, 83, 100
4, 34620, Note_on_c, 0, 83, 0
4, 34620, Note_on_c, 0, 85, 100
4, 34635, Note_on_c, 0, 85, 0
4, 34635, Note_on_c, 0, 83, 100
4, 34650, Note_on_c, 0, 83, 0
4, 34650, Note_on_c, 0, 85, 100
4, 34665, Note_on_c, 0, 85, 0
4, 34665, Note_on_c, 0, 83, 100
4, 34680, Note_on_c, 0, 83, 0
4, 34680, Note_on_c, 0, 82, 100
4, 34800, Note_on_c, 0, 82, 0
4, 34920, Note_on_c, 0, 81, 100
4, 35040, Note_on_c, 0, 81, 0
4, 35040, Note_on_c, 0, 83, 100
4, 35055, Note_on_c, 0, 83, 0
4, 35055, Note_on_c, 0, 81, 100
4, 35070, Note_on_c, 0, 81, 0
4, 35070, Note_on_c, 0, 83, 100
4, 35085, Note_on_c, 0, 83, 0
4, 35085, Note_on_c, 0, 81, 100
4, 35100, Note_on_c, 0, 81, 0
4, 35100, Note_on_c, 0, 83, 100
4, 35115, Note_on_c, 0, 83, 0
4, 35115, Note_on_c, 0, 81, 100
4, 35130, Note_on_c, 0, 81, 0
4, 35130, Note_on_c, 0, 83, 100
4, 35145, Note_on_c, 0, 83, 0
4, 35145, Note_on_c, 0, 81, 100
4, 35160, Note_on_c, 0, 81, 0
4, 35160, Note_on_c, 0, 80, 100
4, 35280, Note_on_c, 0, 80, 0
4, 35400, Note_on_c, 0, 79, 100
4, 35520, Note_on_c, 0, 79, 0
4, 35520, Note_on_c, 0, 78, 100
4, 35640, Note_on_c, 0, 78, 0
4, 35640, Note_on_c, 0, 82, 100
4, 35760, Note_on_c, 0, 82, 0
4, 35760, Note_on_c, 0, 83, 100
4, 35880, Note_on_c, 0, 83, 0
4, 35880, Note_on_c, 0, 71, 100
4, 36000, Note_on_c, 0, 71, 0
4, 36000, Note_on_c, 0, 77, 100
4, 36120, Note_on_c, 0, 77, 0
4, 36120, Note_on_c, 0, 80, 100
4, 36240, Note_on_c, 0, 80, 0
4, 36240, Note_on_c, 0, 73, 100
4, 36300, Note_on_c, 0, 73, 0
4, 36300, Note_on_c, 0, 71, 100
4, 36360, Note_on_c, 0, 71, 0
4, 36360, Note_on_c, 0, 69, 100
4, 36420, Note_on_c, 0, 69, 0
4, 36420, Note_on_c, 0, 68, 100
4, 36480, Note_on_c, 0, 68, 0
4, 36480, Note_on_c, 0, 69, 100
4, 36540, Note_on_c, 0, 69, 0
4, 36540, Note_on_c, 0, 78, 100
4, 36600, Note_on_c, 0, 78, 0
4, 36600, Note_on_c, 0, 71, 100
4, 36660, Note_on_c, 0, 71, 0
4, 36660, Note_on_c, 0, 77, 100
4, 36720, Note_on_c, 0, 77, 0
4, 36720, Note_on_c, 0, 78, 100
4, 36780, Note_on_c, 0, 78, 0
4, 36780, Note_on_c, 0, 73, 100
4, 36840, Note_on_c, 0, 73, 0
4, 36840, Note_on_c, 0, 80, 100
4, 36900, Note_on_c, 0, 80, 0
4, 36900, Note_on_c, 0, 71, 100
4, 36960, Note_on_c, 0, 71, 0
4, 36960, Note_on_c, 0, 69, 100
4, 37020, Note_on_c, 0, 69, 0
4, 37020, Note_on_c, 0, 78, 100
4, 37080, Note_on_c, 0, 78, 0
4, 37080, Note_on_c, 0, 71, 100
4, 37140, Note_on_c, 0, 71, 0
4, 37140, Note_on_c, 0, 77, 100
4, 37200, Note_on_c, 0, 77, 0
4, 37200, Note_on_c, 0, 78, 100
4, 37260, Note_on_c, 0, 78, 0
4, 37260, Note_on_c, 0, 73, 100
4, 37320, Note_on_c, 0, 73, 0
4, 37320, Note_on_c, 0, 80, 100
4, 37380, Note_on_c, 0, 80, 0
4, 37380, Note_on_c, 0, 71, 100
4, 37440, Note_on_c, 0, 71, 0
4, 37440, Note_on_c, 0, 69, 100
4, 37500, Note_on_c, 0, 69, 0
4, 37500, Note_on_c, 0, 78, 100
4, 37560, Note_on_c, 0, 78, 0
4, 37560, Note_on_c, 0, 71, 100
4, 37620, Note_on_c, 0, 71, 0
4, 37620, Note_on_c, 0, 80, 100
4, 37680, Note_on_c, 0, 80, 0
4, 37680, Note_on_c, 0, 69, 100
4, 37740, Note_on_c, 0, 69, 0
4, 37740, Note_on_c, 0, 78, 100
4, 37800, Note_on_c, 0, 78, 0
4, 37800, Note_on_c, 0, 68, 100
4, 37860, Note_on_c, 0, 68, 0
4, 37860, Note_on_c, 0, 77, 100
4, 37920, Note_on_c, 0, 77, 0
4, 37920, Note_on_c, 0, 77, 100
4, 37980, Note_on_c, 0, 77, 0
4, 37980, Note_on_c, 0, 78, 100
4, 38220, Note_on_c, 0, 78, 0
4, 38220, Note_on_c, 0, 76, 100
4, 38280, Note_on_c, 0, 76, 0
4, 38280, Note_on_c, 0, 75, 100
4, 38340, Note_on_c, 0, 75, 0
4, 38340, Note_on_c, 0, 73, 100
4, 38400, Note_on_c, 0, 73, 0
4, 38400, Note_on_c, 0, 75, 100
4, 38520, Note_on_c, 0, 75, 0
4, 38520, Note_on_c, 0, 75, 100
4, 38640, Note_on_c, 0, 75, 0
4, 38640, Note_on_c, 0, 75, 100
4, 38760, Note_on_c, 0, 75, 0
4, 38760, Note_on_c, 0, 74, 100
4, 38880, Note_on_c, 0, 74, 0
4, 38880, Note_on_c, 0, 74, 100
4, 39000, Note_on_c, 0, 74, 0
4, 39000, Note_on_c, 0, 83, 100
4, 39160, Note_on_c, 0, 83, 0
4, 39160, Note_on_c, 0, 81, 100
4, 39200, Note_on_c, 0, 81, 0
4, 39200, Note_on_c, 0, 80, 100
4, 39240, Note_on_c, 0, 80, 0
4, 39240, Note_on_c, 0, 78, 100
4, 39280, Note_on_c, 0, 78, 0
4, 39280, Note_on_c, 0, 76, 100
4, 39320, Note_on_c, 0, 76, 0
4, 39320, Note_on_c, 0, 74, 100
4, 39360, Note_on_c, 0, 74, 0
4, 39360, Note_on_c, 0, 73, 100
4, 39480, Note_on_c, 0, 73, 0
4, 39480, Note_on_c, 0, 73, 100
4, 39600, Note_on_c, 0, 73, 0
4, 39600, Note_on_c, 0, 73, 100
4, 39720, Note_on_c, 0, 73, 0
4, 39720, Note_on_c, 0, 72, 100
4, 39840, Note_on_c, 0, 72, 0
4, 39840, Note_on_c, 0, 72, 100
4, 39960, Note_on_c, 0, 72, 0
4, 39960, Note_on_c, 0, 81, 100
4, 40120, Note_on_c, 0, 81, 0
4, 40120, Note_on_c, 0, 79, 100
4, 40160, Note_on_c, 0, 79, 0
4, 40160, Note_on_c, 0, 78, 100
4, 40200, Note_on_c, 0, 78, 0
4, 40200, Note_on_c, 0, 76, 100
4, 40240, Note_on_c, 0, 76, 0
4, 40240, Note_on_c, 0, 74, 100
4, 40280, Note_on_c, 0, 74, 0
4, 40280, Note_on_c, 0, 72, 100
4, 40320, Note_on_c, 0, 72, 0
4, 40320, Note_on_c, 0, 71, 100
4, 40360, Note_on_c, 0, 71, 0
4, 40360, Note_on_c, 0, 70, 100
4, 40400, Note_on_c, 0, 70, 0
4, 40400, Note_on_c, 0, 71, 100
4, 40440, Note_on_c, 0, 71, 0
4, 40440, Note_on_c, 0, 73, 100
4, 40480, Note_on_c, 0, 73, 0
4, 40480, Note_on_c, 0, 71, 100
4, 40520, Note_on_c, 0, 71, 0
4, 40520, Note_on_c, 0, 70, 100
4, 40560, Note_on_c, 0, 70, 0
4, 40560, Note_on_c, 0, 71, 100
4, 40680, Note_on_c, 0, 71, 0
4, 40680, Note_on_c, 0, 83, 100
4, 40800, Note_on_c, 0, 83, 0
4, 40800, Note_on_c, 0, 82, 100
4, 40920, Note_on_c, 0, 82, 0
4, 40920, Note_on_c, 0, 81, 100
4, 41040, Note_on_c, 0, 81, 0
4, 41040, Note_on_c, 0, 80, 100
4, 41160, Note_on_c, 0, 80, 0
4, 41160, Note_on_c, 0, 79, 100
4, 41280, Note_on_c, 0, 79, 0
4, 41280, Note_on_c, 0, 78, 100
4, 41400, Note_on_c, 0, 78, 0
4, 41400, Note_on_c, 0, 69, 100
4, 41520, Note_on_c, 0, 69, 0
4, 41520, Note_on_c, 0, 68, 100
4, 41640, Note_on_c, 0, 68, 0
4, 41640, Note_on_c, 0, 76, 100
4, 41820, Note_on_c, 0, 76, 0
4, 41820, Note_on_c, 0, 74, 100
4, 41850, Note_on_c, 0, 74, 0
4, 41850, Note_on_c, 0, 73, 100
4, 41880, Note_on_c, 0, 73, 0
4, 41880, Note_on_c, 0, 74, 100
4, 41940, Note_on_c, 0, 74, 0
4, 41940, Note_on_c, 0, 76, 100
4, 42000, Note_on_c, 0, 76, 0
4, 42000, Note_on_c, 0, 78, 100
4, 42015, Note_on_c, 0, 78, 0
4, 42015, Note_on_c, 0, 76, 100
4, 42030, Note_on_c, 0, 76, 0
4, 42030, Note_on_c, 0, 78, 100
4, 42045, Note_on_c, 0, 78, 0
4, 42045, Note_on_c, 0, 76, 100
4, 42060, Note_on_c, 0, 76, 0
4, 42060, Note_on_c, 0, 78, 100
4, 42075, Note_on_c, 0, 78, 0
4, 42075, Note_on_c, 0, 76, 100
4, 42090, Note_on_c, 0, 76, 0
4, 42090, Note_on_c, 0, 78, 100
4, 42105, Note_on_c, 0, 78, 0
4, 42105, Note_on_c, 0, 76, 100
4, 42120, Note_on_c, 0, 76, 0
4, 42120, Note_on_c, 0, 78, 100
4, 42135, Note_on_c, 0, 78, 0
4, 42135, Note_on_c, 0, 76, 100
4, 42150, Note_on_c, 0, 76, 0
4, 42150, Note_on_c, 0, 78, 100
4, 42165, Note_on_c, 0, 78, 0
4, 42165, Note_on_c, 0, 76, 100
4, 42180, Note_on_c, 0, 76, 0
4, 42180, Note_on_c, 0, 74, 100
4, 42210, Note_on_c, 0, 74, 0
4, 42210, Note_on_c, 0, 76, 100
4, 42240, Note_on_c, 0, 76, 0
4, 42240, Note_on_c, 0, 78, 100
4, 42480, Note_on_c, 0, 78, 0
4, 42600, Note_on_c, 0, 78, 100
4, 42720, Note_on_c, 0, 78, 0
4, 42720, Note_on_c, 0, 77, 100
4, 42780, Note_on_c, 0, 77, 0
4, 42780, Note_on_c, 0, 80, 100
4, 42840, Note_on_c, 0, 80, 0
4, 42840, Note_on_c, 0, 74, 100
4, 43020, Note_on_c, 0, 74, 0
4, 43020, Note_on_c, 0, 73, 100
4, 43080, Note_on_c, 0, 73, 0
4, 43080, Note_on_c, 0, 83, 100
4, 43110, Note_on_c, 0, 83, 0
4, 43110, Note_on_c, 0, 81, 100
4, 43140, Note_on_c, 0, 81, 0
4, 43140, Note_on_c, 0, 80, 100
4, 43200, Note_on_c, 0, 80, 0
4, 43200, Note_on_c, 0, 80, 100
4, 43260, Note_on_c, 0, 80, 0
4, 43260, Note_on_c, 0, 81, 100
4, 43320, Note_on_c, 0, 81, 0
4, 43800, Note_on_c, 0, 74, 100
4, 43960, Note_on_c, 0, 74, 0
4, 43960, Note_on_c, 0, 73, 100
4, 44000, Note_on_c, 0, 73, 0
4, 44000, Note_on_c, 0, 76, 100
4, 44040, Note_on_c, 0, 76, 0
4, 44040, Note_on_c, 0, 70, 100
4, 44220, Note_on_c, 0, 70, 0
4, 44220, Note_on_c, 0, 69, 100
4, 44280, Note_on_c, 0, 69, 0
4, 44280, Note_on_c, 0, 79, 100
4, 44310, Note_on_c, 0, 79, 0
4, 44310, Note_on_c, 0, 78, 100
4, 44340, Note_on_c, 0, 78, 0
4, 44340, Note_on_c, 0, 76, 100
4, 44400, Note_on_c, 0, 76, 0
4, 44400, Note_on_c, 0, 76, 100
4, 44460, Note_on_c, 0, 76, 0
4, 44460, Note_on_c, 0, 78, 100
4, 44520, Note_on_c, 0, 78, 0
4, 44520, Note_on_c, 0, 83, 100
4, 44640, Note_on_c, 0, 83, 0
4, 44640, Note_on_c, 0, 82, 100
4, 44700, Note_on_c, 0, 82, 0
4, 44700, Note_on_c, 0, 85, 100
4, 44760, Note_on_c, 0, 85, 0
4, 44760, Note_on_c, 0, 79, 100
4, 44940, Note_on_c, 0, 79, 0
4, 44940, Note_on_c, 0, 78, 100
4, 45000, Note_on_c, 0, 78, 0
4, 45000, Note_on_c, 0, 88, 100
4, 45030, Note_on_c, 0, 88, 0
4, 45030, Note_on_c, 0, 86, 100
4, 45060, Note_on_c, 0, 86, 0
4, 45060, Note_on_c, 0, 85, 100
4, 45120, Note_on_c, 0, 85, 0
4, 45120, Note_on_c, 0, 85, 100
4, 45180, Note_on_c, 0, 85, 0
4, 45180, Note_on_c, 0, 86, 100
4, 45240, Note_on_c, 0, 86, 0
4, 45720, Note_on_c, 0, 79, 100
4, 45880, Note_on_c, 0, 79, 0
4, 45880, Note_on_c, 0, 78, 100
4, 45920, Note_on_c, 0, 78, 0
4, 45920, Note_on_c, 0, 81, 100
4, 45960, Note_on_c, 0, 81, 0
4, 45960, Note_on_c, 0, 75, 100
4, 46140, Note_on_c, 0, 75, 0
4, 46140, Note_on_c, 0, 74, 100
4, 46200, Note_on_c, 0, 74, 0
4, 46200, Note_on_c, 0, 84, 100
4, 46230, Note_on_c, 0, 84, 0
4, 46230, Note_on_c, 0, 83, 100
4, 46260, Note_on_c, 0, 83, 0
4, 46260, Note_on_c, 0, 81, 100
4, 46320, Note_on_c, 0, 81, 0
4, 46320, Note_on_c, 0, 81, 100
4, 46380, Note_on_c, 0, 81, 0
4, 46380, Note_on_c, 0, 83, 100
4, 46440, Note_on_c, 0, 83, 0
4, 47400, Note_on_c, 0, 66, 100
4, 47520, Note_on_c, 0, 66, 0
4, 47520, Note_on_c, 0, 67, 100
4, 47640, Note_on_c, 0, 67, 0
4, 47640, Note_on_c, 0, 70, 100
4, 47760, Note_on_c, 0, 70, 0
4, 47760, Note_on_c, 0, 71, 100
4, 47880, Note_on_c, 0, 71, 0
4, 47880, Note_on_c, 0, 74, 100
4, 48000, Note_on_c, 0, 74, 0
4, 48000, Note_on_c, 0, 77, 100
4, 48120, Note_on_c, 0, 77, 0
4, 48120, Note_on_c, 0, 81, 100
4, 48240, Note_on_c, 0, 81, 0
4, 48240, Note_on_c, 0, 80, 100
4, 48360, Note_on_c, 0, 80, 0
4, 48360, Note_on_c, 0, 71, 100
4, 48480, Note_on_c, 0, 71, 0
4, 48480, Note_on_c, 0, 69, 100
4, 48600, Note_on_c, 0, 69, 0
4, 48600, Note_on_c, 0, 68, 100
4, 48660, Note_on_c, 0, 68, 0
4, 48660, Note_on_c, 0, 66, 100
4, 48720, Note_on_c, 0, 66, 0
4, 48720, Note_on_c, 0, 69, 100
4, 48780, Note_on_c, 0, 69, 0
4, 48780, Note_on_c, 0, 68, 100
4, 48840, Note_on_c, 0, 68, 0
4, 48840, Note_on_c, 0, 66, 100
4, 48900, Note_on_c, 0, 66, 0
4, 48900, Note_on_c, 0, 65, 100
4, 48960, Note_on_c, 0, 65, 0
4, 48960, Note_on_c, 0, 66, 100
4, 49200, Note_on_c, 0, 66, 0
4, 49320, Note_on_c, 0, 72, 100
4, 49440, Note_on_c, 0, 72, 0
4, 49440, Note_on_c, 0, 78, 100
4, 49560, Note_on_c, 0, 78, 0
4, 49560, Note_on_c, 0, 77, 100
4, 49680, Note_on_c, 0, 77, 0
4, 49800, Note_on_c, 0, 83, 100
4, 49920, Note_on_c, 0, 83, 0
4, 49920, Note_on_c, 0, 81, 100
4, 50040, Note_on_c, 0, 81, 0
4, 50040, Note_on_c, 0, 86, 100
4, 50160, Note_on_c, 0, 86, 0
4, 50160, Note_on_c, 0, 85, 100
4, 50280, Note_on_c, 0, 85, 0
4, 50280, Note_on_c, 0, 90, 100
4, 50400, Note_on_c, 0, 90, 0
4, 50400, Note_on_c, 0, 84, 100
4, 50520, Note_on_c, 0, 84, 0
4, 50520, Note_on_c, 0, 85, 100
4, 50640, Note_on_c, 0, 85, 0
4, 51240, Note_on_c, 0, 73, 100
4, 51360, Note_on_c, 0, 73, 0
4, 51360, Note_on_c, 0, 81, 100
4, 51390, Note_on_c, 0, 81, 0
4, 51390, Note_on_c, 0, 80, 100
4, 51420, Note_on_c, 0, 80, 0
4, 51420, Note_on_c, 0, 78, 100
4, 51480, Note_on_c, 0, 78, 0
4, 51480, Note_on_c, 0, 78, 100
4, 51540, Note_on_c, 0, 78, 0
4, 51540, Note_on_c, 0, 80, 100
4, 51660, Note_on_c, 0, 80, 0
4, 51660, Note_on_c, 0, 78, 100
4, 51690, Note_on_c, 0, 78, 0
4, 51690, Note_on_c, 0, 80, 100
4, 51720, Note_on_c, 0, 80, 0
4, 51720, Note_on_c, 0, 81, 100
4, 51750, Note_on_c, 0, 81, 0
4, 51750, Note_on_c, 0, 80, 100
4, 51780, Note_on_c, 0, 80, 0
4, 51780, Note_on_c, 0, 78, 100
4, 51810, Note_on_c, 0, 78, 0
4, 51810, Note_on_c, 0, 77, 100
4, 51840, Note_on_c, 0, 77, 0
4, 51840, Note_on_c, 0, 78, 100
4, 51870, Note_on_c, 0, 78, 0
4, 51870, Note_on_c, 0, 76, 100
4, 51900, Note_on_c, 0, 76, 0
4, 51900, Note_on_c, 0, 74, 100
4, 51960, Note_on_c, 0, 74, 0
4, 51960, Note_on_c, 0, 73, 100
4, 52140, Note_on_c, 0, 73, 0
4, 52140, Note_on_c, 0, 75, 100
4, 52170, Note_on_c, 0, 75, 0
4, 52170, Note_on_c, 0, 77, 100
4, 52200, Note_on_c, 0, 77, 0
4, 52200, Note_on_c, 0, 78, 100
4, 52260, Note_on_c, 0, 78, 0
4, 52260, Note_on_c, 0, 80, 100
4, 52320, Note_on_c, 0, 80, 0
4, 52320, Note_on_c, 0, 81, 100
4, 52350, Note_on_c, 0, 81, 0
4, 52350, Note_on_c, 0, 80, 100
4, 52380, Note_on_c, 0, 80, 0
4, 52380, Note_on_c, 0, 78, 100
4, 52440, Note_on_c, 0, 78, 0
4, 52440, Note_on_c, 0, 78, 100
4, 52500, Note_on_c, 0, 78, 0
4, 52500, Note_on_c, 0, 80, 100
4, 52620, Note_on_c, 0, 80, 0
4, 52620, Note_on_c, 0, 78, 100
4, 52650, Note_on_c, 0, 78, 0
4, 52650, Note_on_c, 0, 80, 100
4, 52680, Note_on_c, 0, 80, 0
4, 52680, Note_on_c, 0, 81, 100
4, 52710, Note_on_c, 0, 81, 0
4, 52710, Note_on_c, 0, 80, 100
4, 52740, Note_on_c, 0, 80, 0
4, 52740, Note_on_c, 0, 78, 100
4, 52770, Note_on_c, 0, 78, 0
4, 52770, Note_on_c, 0, 77, 100
4, 52800, Note_on_c, 0, 77, 0
4, 52800, Note_on_c, 0, 78, 100
4, 52920, Note_on_c, 0, 78, 0
4, 52920, Note_on_c, 0, 66, 100
4, 53040, Note_on_c, 0, 66, 0
4, 53160, Note_on_c, 0, 78, 100
4, 53280, Note_on_c, 0, 78, 0
4, 53280, Note_on_c, 0, 86, 100
4, 53400, Note_on_c, 0, 86, 0
4, 53400, Note_on_c, 0, 86, 100
4, 53520, Note_on_c, 0, 86, 0
4, 53520, Note_on_c, 0, 86, 100
4, 53640, Note_on_c, 0, 86, 0
4, 53640, Note_on_c, 0, 86, 100
4, 53760, Note_on_c, 0, 86, 0
4, 53760, Note_on_c, 0, 86, 100
4, 53790, Note_on_c, 0, 86, 0
4, 53790, Note_on_c, 0, 85, 100
4, 53820, Note_on_c, 0, 85, 0
4, 53820, Note_on_c, 0, 83, 100
4, 53880, Note_on_c, 0, 83, 0
4, 53880, Note_on_c, 0, 83, 100
4, 53940, Note_on_c, 0, 83, 0
4, 53940, Note_on_c, 0, 85, 100
4, 54120, Note_on_c, 0, 85, 0
4, 54120, Note_on_c, 0, 76, 100
4, 54240, Note_on_c, 0, 76, 0
4, 54240, Note_on_c, 0, 84, 100
4, 54360, Note_on_c, 0, 84, 0
4, 54360, Note_on_c, 0, 84, 100
4, 54480, Note_on_c, 0, 84, 0
4, 54480, Note_on_c, 0, 84, 100
4, 54600, Note_on_c, 0, 84, 0
4, 54600, Note_on_c, 0, 84, 100
4, 54720, Note_on_c, 0, 84, 0
4, 54720, Note_on_c, 0, 84, 100
4, 54750, Note_on_c, 0, 84, 0
4, 54750, Note_on_c, 0, 83, 100
4, 54780, Note_on_c, 0, 83, 0
4, 54780, Note_on_c, 0, 82, 100
4, 54840, Note_on_c, 0, 82, 0
4, 54840, Note_on_c, 0, 83, 100
4, 55080, Note_on_c, 0, 83, 0
4, 55080, Note_on_c, 0, 71, 100
4, 55240, Note_on_c, 0, 71, 0
4, 55240, Note_on_c, 0, 69, 100
4, 55280, Note_on_c, 0, 69, 0
4, 55280, Note_on_c, 0, 68, 100
4, 55320, Note_on_c, 0, 68, 0
4, 55320, Note_on_c, 0, 78, 100
4, 55380, Note_on_c, 0, 78, 0
4, 55380, Note_on_c, 0, 77, 100
4, 55440, Note_on_c, 0, 77, 0
4, 55440, Note_on_c, 0, 78, 100
4, 55500, Note_on_c, 0, 78, 0
4, 55500, Note_on_c, 0, 80, 100
4, 55530, Note_on_c, 0, 80, 0
4, 55530, Note_on_c, 0, 81, 100
4, 55560, Note_on_c, 0, 81, 0
4, 55560, Note_on_c, 0, 80, 100
4, 55620, Note_on_c, 0, 80, 0
4, 55620, Note_on_c, 0, 71, 100
4, 55680, Note_on_c, 0, 71, 0
4, 55680, Note_on_c, 0, 69, 100
4, 55740, Note_on_c, 0, 69, 0
4, 55740, Note_on_c, 0, 68, 100
4, 55770, Note_on_c, 0, 68, 0
4, 55770, Note_on_c, 0, 66, 100
4, 55800, Note_on_c, 0, 66, 0
4, 55800, Note_on_c, 0, 68, 100
4, 55860, Note_on_c, 0, 68, 0
4, 55860, Note_on_c, 0, 78, 100
4, 55920, Note_on_c, 0, 78, 0
4, 55920, Note_on_c, 0, 78, 100
4, 55935, Note_on_c, 0, 78, 0
4, 55935, Note_on_c, 0, 77, 100
4, 55950, Note_on_c, 0, 77, 0
4, 55950, Note_on_c, 0, 78, 100
4, 55965, Note_on_c, 0, 78, 0
4, 55965, Note_on_c, 0, 77, 100
4, 55980, Note_on_c, 0, 77, 0
4, 55980, Note_on_c, 0, 78, 100
4, 55995, Note_on_c, 0, 78, 0
4, 55995, Note_on_c, 0, 77, 100
4, 56010, Note_on_c, 0, 77, 0
4, 56010, Note_on_c, 0, 78, 100
4, 56025, Note_on_c, 0, 78, 0
4, 56025, Note_on_c, 0, 77, 100
4, 56040, Note_on_c, 0, 77, 0
4, 56040, Note_on_c, 0, 78, 100
4, 56055, Note_on_c, 0, 78, 0
4, 56055, Note_on_c, 0, 77, 100
4, 56070, Note_on_c, 0, 77, 0
4, 56070, Note_on_c, 0, 78, 100
4, 56085, Note_on_c, 0, 78, 0
4, 56085, Note_on_c, 0, 77, 100
4, 56100, Note_on_c, 0, 77, 0
4, 56100, Note_on_c, 0, 78, 100
4, 56160, Note_on_c, 0, 78, 0
4, 56160, Note_on_c, 0, 78, 100
4, 56400, Note_on_c, 0, 78, 0
4, 56520, Note_on_c, 0, 80, 100
4, 56640, Note_on_c, 0, 80, 0
4, 56640, Note_on_c, 0, 81, 100
4, 56680, Note_on_c, 0, 81, 0
4, 56680, Note_on_c, 0, 85, 100
4, 56720, Note_on_c, 0, 85, 0
4, 56720, Note_on_c, 0, 83, 100
4, 56760, Note_on_c, 0, 83, 0
4, 56760, Note_on_c, 0, 81, 100
4, 56800, Note_on_c, 0, 81, 0
4, 56800, Note_on_c, 0, 78, 100
4, 56840, Note_on_c, 0, 78, 0
4, 56840, Note_on_c, 0, 80, 100
4, 56880, Note_on_c, 0, 80, 0
4, 56880, Note_on_c, 0, 81, 100
4, 56920, Note_on_c, 0, 81, 0
4, 56920, Note_on_c, 0, 85, 100
4, 56960, Note_on_c, 0, 85, 0
4, 56960, Note_on_c, 0, 83, 100
4, 57000, Note_on_c, 0, 83, 0
4, 57000, Note_on_c, 0, 81, 100
4, 57040, Note_on_c, 0, 81, 0
4, 57040, Note_on_c, 0, 78, 100
4, 57080, Note_on_c, 0, 78, 0
4, 57080, Note_on_c, 0, 80, 100
4, 57120, Note_on_c, 0, 80, 0
4, 57120, Note_on_c, 0, 81, 100
4, 57160, Note_on_c, 0, 81, 0
4, 57160, Note_on_c, 0, 84, 100
4, 57200, Note_on_c, 0, 84, 0
4, 57200, Note_on_c, 0, 83, 100
4, 57240, Note_on_c, 0, 83, 0
4, 57240, Note_on_c, 0, 81, 100
4, 57280, Note_on_c, 0, 81, 0
4, 57280, Note_on_c, 0, 79, 100
4, 57320, Note_on_c, 0, 79, 0
4, 57320, Note_on_c, 0, 78, 100
4, 57360, Note_on_c, 0, 78, 0
4, 57360, Note_on_c, 0, 76, 100
4, 57400, Note_on_c, 0, 76, 0
4, 57400, Note_on_c, 0, 75, 100
4, 57440, Note_on_c, 0, 75, 0
4, 57440, Note_on_c, 0, 76, 100
4, 57480, Note_on_c, 0, 76, 0
4, 57480, Note_on_c, 0, 78, 100
4, 57520, Note_on_c, 0, 78, 0
4, 57520, Note_on_c, 0, 79, 100
4, 57560, Note_on_c, 0, 79, 0
4, 57560, Note_on_c, 0, 81, 100
4, 57600, Note_on_c, 0, 81, 0
4, 57600, Note_on_c, 0, 79, 100
4, 57640, Note_on_c, 0, 79, 0
4, 57640, Note_on_c, 0, 83, 100
4, 57680, Note_on_c, 0, 83, 0
4, 57680, Note_on_c, 0, 81, 100
4, 57720, Note_on_c, 0, 81, 0
4, 57720, Note_on_c, 0, 79, 100
4, 57760, Note_on_c, 0, 79, 0
4, 57760, Note_on_c, 0, 76, 100
4, 57800, Note_on_c, 0, 76, 0
4, 57800, Note_on_c, 0, 78, 100
4, 57840, Note_on_c, 0, 78, 0
4, 57840, Note_on_c, 0, 79, 100
4, 57880, Note_on_c, 0, 79, 0
4, 57880, Note_on_c, 0, 83, 100
4, 57920, Note_on_c, 0, 83, 0
4, 57920, Note_on_c, 0, 81, 100
4, 57960, Note_on_c, 0, 81, 0
4, 57960, Note_on_c, 0, 79, 100
4, 58000, Note_on_c, 0, 79, 0
4, 58000, Note_on_c, 0, 76, 100
4, 58040, Note_on_c, 0, 76, 0
4, 58040, Note_on_c, 0, 78, 100
4, 58080, Note_on_c, 0, 78, 0
4, 58080, Note_on_c, 0, 79, 100
4, 58120, Note_on_c, 0, 79, 0
4, 58120, Note_on_c, 0, 83, 100
4, 58160, Note_on_c, 0, 83, 0
4, 58160, Note_on_c, 0, 81, 100
4, 58200, Note_on_c, 0, 81, 0
4, 58200, Note_on_c, 0, 79, 100
4, 58240, Note_on_c, 0, 79, 0
4, 58240, Note_on_c, 0, 78, 100
4, 58280, Note_on_c, 0, 78, 0
4, 58280, Note_on_c, 0, 76, 100
4, 58320, Note_on_c, 0, 76, 0
4, 58320, Note_on_c, 0, 74, 100
4, 58360, Note_on_c, 0, 74, 0
4, 58360, Note_on_c, 0, 73, 100
4, 58400, Note_on_c, 0, 73, 0
4, 58400, Note_on_c, 0, 74, 100
4, 58440, Note_on_c, 0, 74, 0
4, 58440, Note_on_c, 0, 76, 100
4, 58480, Note_on_c, 0, 76, 0
4, 58480, Note_on_c, 0, 78, 100
4, 58520, Note_on_c, 0, 78, 0
4, 58520, Note_on_c, 0, 79, 100
4, 58560, Note_on_c, 0, 79, 0
4, 58560, Note_on_c, 0, 78, 100
4, 58600, Note_on_c, 0, 78, 0
4, 58600, Note_on_c, 0, 81, 100
4, 58640, Note_on_c, 0, 81, 0
4, 58640, Note_on_c, 0, 79, 100
4, 58680, Note_on_c, 0, 79, 0
4, 58680, Note_on_c, 0, 78, 100
4, 58720, Note_on_c, 0, 78, 0
4, 58720, Note_on_c, 0, 76, 100
4, 58760, Note_on_c, 0, 76, 0
4, 58760, Note_on_c, 0, 74, 100
4, 58800, Note_on_c, 0, 74, 0
4, 58800, Note_on_c, 0, 73, 100
4, 58840, Note_on_c, 0, 73, 0
4, 58840, Note_on_c, 0, 71, 100
4, 58880, Note_on_c, 0, 71, 0
4, 58880, Note_on_c, 0, 70, 100
4, 58920, Note_on_c, 0, 70, 0
4, 58920, Note_on_c, 0, 71, 100
4, 58960, Note_on_c, 0, 71, 0
4, 58960, Note_on_c, 0, 73, 100
4, 59000, Note_on_c, 0, 73, 0
4, 59000, Note_on_c, 0, 74, 100
4, 59040, Note_on_c, 0, 74, 0
4, 59040, Note_on_c, 0, 76, 100
4, 59080, Note_on_c, 0, 76, 0
4, 59080, Note_on_c, 0, 79, 100
4, 59120, Note_on_c, 0, 79, 0
4, 59120, Note_on_c, 0, 78, 100
4, 59160, Note_on_c, 0, 78, 0
4, 59160, Note_on_c, 0, 76, 100
4, 59200, Note_on_c, 0, 76, 0
4, 59200, Note_on_c, 0, 74, 100
4, 59240, Note_on_c, 0, 74, 0
4, 59240, Note_on_c, 0, 73, 100
4, 59280, Note_on_c, 0, 73, 0
4, 59280, Note_on_c, 0, 71, 100
4, 59320, Note_on_c, 0, 71, 0
4, 59320, Note_on_c, 0, 70, 100
4, 59360, Note_on_c, 0, 70, 0
4, 59360, Note_on_c, 0, 71, 100
4, 59400, Note_on_c, 0, 71, 0
4, 59400, Note_on_c, 0, 73, 100
4, 59440, Note_on_c, 0, 73, 0
4, 59440, Note_on_c, 0, 74, 100
4, 59480, Note_on_c, 0, 74, 0
4, 59480, Note_on_c, 0, 76, 100
4, 59520, Note_on_c, 0, 76, 0
4, 59520, Note_on_c, 0, 74, 100
4, 59560, Note_on_c, 0, 74, 0
4, 59560, Note_on_c, 0, 71, 100
4, 59600, Note_on_c, 0, 71, 0
4, 59600, Note_on_c, 0, 73, 100
4, 59640, Note_on_c, 0, 73, 0
4, 59640, Note_on_c, 0, 74, 100
4, 59680, Note_on_c, 0, 74, 0
4, 59680, Note_on_c, 0, 76, 100
4, 59720, Note_on_c, 0, 76, 0
4, 59720, Note_on_c, 0, 78, 100
4, 59760, Note_on_c, 0, 78, 0
4, 59760, Note_on_c, 0, 79, 100
4, 59800, Note_on_c, 0, 79, 0
4, 59800, Note_on_c, 0, 76, 100
4, 59840, Note_on_c, 0, 76, 0
4, 59840, Note_on_c, 0, 78, 100
4, 59880, Note_on_c, 0, 78, 0
4, 59880, Note_on_c, 0, 79, 100
4, 59920, Note_on_c, 0, 79, 0
4, 59920, Note_on_c, 0, 81, 100
4, 59960, Note_on_c, 0, 81, 0
4, 59960, Note_on_c, 0, 83, 100
4, 60000, Note_on_c, 0, 83, 0
4, 60000, Note_on_c, 0, 84, 100
4, 60040, Note_on_c, 0, 84, 0
4, 60040, Note_on_c, 0, 86, 100
4, 60080, Note_on_c, 0, 86, 0
4, 60080, Note_on_c, 0, 84, 100
4, 60120, Note_on_c, 0, 84, 0
4, 60120, Note_on_c, 0, 83, 100
4, 60160, Note_on_c, 0, 83, 0
4, 60160, Note_on_c, 0, 81, 100
4, 60200, Note_on_c, 0, 81, 0
4, 60200, Note_on_c, 0, 79, 100
4, 60240, Note_on_c, 0, 79, 0
4, 60240, Note_on_c, 0, 78, 100
4, 60280, Note_on_c, 0, 78, 0
4, 60280, Note_on_c, 0, 76, 100
4, 60320, Note_on_c, 0, 76, 0
4, 60320, Note_on_c, 0, 74, 100
4, 60360, Note_on_c, 0, 74, 0
4, 60360, Note_on_c, 0, 72, 100
4, 60400, Note_on_c, 0, 72, 0
4, 60400, Note_on_c, 0, 71, 100
4, 60440, Note_on_c, 0, 71, 0
4, 60440, Note_on_c, 0, 69, 100
4, 60480, Note_on_c, 0, 69, 0
4, 60480, Note_on_c, 0, 71, 100
4, 60540, Note_on_c, 0, 71, 0
4, 60540, Note_on_c, 0, 79, 100
4, 60600, Note_on_c, 0, 79, 0
4, 60600, Note_on_c, 0, 72, 100
4, 60660, Note_on_c, 0, 72, 0
4, 60660, Note_on_c, 0, 78, 100
4, 60720, Note_on_c, 0, 78, 0
4, 60720, Note_on_c, 0, 79, 100
4, 60780, Note_on_c, 0, 79, 0
4, 60780, Note_on_c, 0, 74, 100
4, 60840, Note_on_c, 0, 74, 0
4, 60840, Note_on_c, 0, 81, 100
4, 60900, Note_on_c, 0, 81, 0
4, 60900, Note_on_c, 0, 72, 100
4, 60960, Note_on_c, 0, 72, 0
4, 60960, Note_on_c, 0, 71, 100
4, 61020, Note_on_c, 0, 71, 0
4, 61020, Note_on_c, 0, 79, 100
4, 61080, Note_on_c, 0, 79, 0
4, 61080, Note_on_c, 0, 72, 100
4, 61140, Note_on_c, 0, 72, 0
4, 61140, Note_on_c, 0, 78, 100
4, 61200, Note_on_c, 0, 78, 0
4, 61200, Note_on_c, 0, 79, 100
4, 61260, Note_on_c, 0, 79, 0
4, 61260, Note_on_c, 0, 74, 100
4, 61320, Note_on_c, 0, 74, 0
4, 61320, Note_on_c, 0, 81, 100
4, 61380, Note_on_c, 0, 81, 0
4, 61380, Note_on_c, 0, 72, 100
4, 61440, Note_on_c, 0, 72, 0
4, 61440, Note_on_c, 0, 71, 100
4, 61500, Note_on_c, 0, 71, 0
4, 61500, Note_on_c, 0, 79, 100
4, 61560, Note_on_c, 0, 79, 0
4, 61560, Note_on_c, 0, 72, 100
4, 61620, Note_on_c, 0, 72, 0
4, 61620, Note_on_c, 0, 81, 100
4, 61680, Note_on_c, 0, 81, 0
4, 61680, Note_on_c, 0, 71, 100
4, 61740, Note_on_c, 0, 71, 0
4, 61740, Note_on_c, 0, 79, 100
4, 61800, Note_on_c, 0, 79, 0
4, 61800, Note_on_c, 0, 69, 100
4, 61860, Note_on_c, 0, 69, 0
4, 61860, Note_on_c, 0, 78, 100
4, 61920, Note_on_c, 0, 78, 0
4, 61920, Note_on_c, 0, 79, 100
4, 62040, Note_on_c, 0, 79, 0
4, 62040, Note_on_c, 0, 74, 100
4, 62200, Note_on_c, 0, 86, 100
4, 62220, Note_on_c, 0, 74, 0
4, 62240, Note_on_c, 0, 86, 0
4, 62240, Note_on_c, 0, 84, 100
4, 62280, Note_on_c, 0, 84, 0
4, 62280, Note_on_c, 0, 83, 100
4, 62320, Note_on_c, 0, 83, 0
4, 62320, Note_on_c, 0, 81, 100
4, 62360, Note_on_c, 0, 81, 0
4, 62360, Note_on_c, 0, 79, 100
4, 62400, Note_on_c, 0, 79, 0
4, 62400, Note_on_c, 0, 78, 100
4, 62520, Note_on_c, 0, 78, 0
4, 62520, Note_on_c, 0, 81, 100
4, 62640, Note_on_c, 0, 81, 0
4, 62640, Note_on_c, 0, 86, 100
4, 62760, Note_on_c, 0, 86, 0
4, 62760, Note_on_c, 0, 81, 100
4, 62880, Note_on_c, 0, 81, 0
4, 63000, Note_on_c, 0, 74, 100
4, 63120, Note_on_c, 0, 74, 0
4, 63120, Note_on_c, 0, 77, 100
4, 63240, Note_on_c, 0, 77, 0
4, 63240, Note_on_c, 0, 83, 100
4, 63360, Note_on_c, 0, 83, 0
4, 63480, Note_on_c, 0, 79, 100
4, 63600, Note_on_c, 0, 79, 0
4, 63600, Note_on_c, 0, 84, 100
4, 63720, Note_on_c, 0, 84, 0
4, 63720, Note_on_c, 0, 79, 100
4, 63840, Note_on_c, 0, 79, 0
4, 63960, Note_on_c, 0, 72, 100
4, 64080, Note_on_c, 0, 72, 0
4, 64080, Note_on_c, 0, 76, 100
4, 64200, Note_on_c, 0, 76, 0
4, 64200, Note_on_c, 0, 81, 100
4, 64320, Note_on_c, 0, 81, 0
4, 64440, Note_on_c, 0, 86, 100
4, 64560, Note_on_c, 0, 86, 0
4, 64560, Note_on_c, 0, 84, 100
4, 64680, Note_on_c, 0, 84, 0
4, 64680, Note_on_c, 0, 83, 100
4, 64800, Note_on_c, 0, 83, 0
4, 64920, Note_on_c, 0, 84, 100
4, 65040, Note_on_c, 0, 84, 0
4, 65040, Note_on_c, 0, 83, 100
4, 65160, Note_on_c, 0, 83, 0
4, 65160, Note_on_c, 0, 81, 100
4, 65280, Note_on_c, 0, 81, 0
4, 65400, Note_on_c, 0, 83, 100
4, 65520, Note_on_c, 0, 83, 0
4, 65520, Note_on_c, 0, 79, 100
4, 65640, Note_on_c, 0, 79, 0
4, 65640, Note_on_c, 0, 76, 100
4, 65760, Note_on_c, 0, 76, 0
4, 65880, Note_on_c, 0, 81, 100
4, 66000, Note_on_c, 0, 81, 0
4, 66000, Note_on_c, 0, 78, 100
4, 66120, Note_on_c, 0, 78, 0
4, 66120, Note_on_c, 0, 75, 100
4, 66240, Note_on_c, 0, 75, 0
4, 66240, Note_on_c, 0, 83, 100
4, 66360, Note_on_c, 0, 83, 0
4, 66360, Note_on_c, 0, 83, 100
4, 66600, Note_on_c, 0, 83, 0
4, 66600, Note_on_c, 0, 81, 100
4, 66630, Note_on_c, 0, 81, 0
4, 66630, Note_on_c, 0, 83, 100
4, 66660, Note_on_c, 0, 83, 0
4, 66660, Note_on_c, 0, 84, 100
4, 66720, Note_on_c, 0, 84, 0
4, 66720, Note_on_c, 0, 83, 100
4, 66840, Note_on_c, 0, 83, 0
4, 66840, Note_on_c, 0, 83, 100
4, 67080, Note_on_c, 0, 83, 0
4, 67080, Note_on_c, 0, 81, 100
4, 67110, Note_on_c, 0, 81, 0
4, 67110, Note_on_c, 0, 83, 100
4, 67140, Note_on_c, 0, 83, 0
4, 67140, Note_on_c, 0, 84, 100
4, 67200, Note_on_c, 0, 84, 0
4, 67200, Note_on_c, 0, 83, 100
4, 67320, Note_on_c, 0, 83, 0
4, 67320, Note_on_c, 0, 84, 100
4, 67440, Note_on_c, 0, 84, 0
4, 67440, Note_on_c, 0, 83, 100
4, 67560, Note_on_c, 0, 83, 0
4, 67560, Note_on_c, 0, 81, 100
4, 67680, Note_on_c, 0, 81, 0
4, 67680, Note_on_c, 0, 79, 100
4, 67800, Note_on_c, 0, 79, 0
4, 67800, Note_on_c, 0, 78, 100
4, 67860, Note_on_c, 0, 78, 0
4, 67860, Note_on_c, 0, 79, 100
4, 67920, Note_on_c, 0, 79, 0
4, 67920, Note_on_c, 0, 76, 100
4, 68040, Note_on_c, 0, 76, 0
4, 68200, Note_on_c, 0, 72, 100
4, 68240, Note_on_c, 0, 72, 0
4, 68240, Note_on_c, 0, 74, 100
4, 68280, Note_on_c, 0, 74, 0
4, 68280, Note_on_c, 0, 76, 100
4, 68320, Note_on_c, 0, 76, 0
4, 68320, Note_on_c, 0, 78, 100
4, 68360, Note_on_c, 0, 78, 0
4, 68360, Note_on_c, 0, 79, 100
4, 68400, Note_on_c, 0, 79, 0
4, 68400, Note_on_c, 0, 69, 100
4, 68520, Note_on_c, 0, 69, 0
4, 68520, Note_on_c, 0, 81, 100
4, 68680, Note_on_c, 0, 81, 0
4, 68680, Note_on_c, 0, 78, 100
4, 68720, Note_on_c, 0, 78, 0
4, 68720, Note_on_c, 0, 79, 100
4, 68760, Note_on_c, 0, 79, 0
4, 68760, Note_on_c, 0, 81, 100
4, 68800, Note_on_c, 0, 81, 0
4, 68800, Note_on_c, 0, 83, 100
4, 68840, Note_on_c, 0, 83, 0
4, 68840, Note_on_c, 0, 84, 100
4, 68880, Note_on_c, 0, 84, 0
4, 68880, Note_on_c, 0, 74, 100
4, 69000, Note_on_c, 0, 74, 0
4, 69000, Note_on_c, 0, 86, 100
4, 69160, Note_on_c, 0, 86, 0
4, 69160, Note_on_c, 0, 71, 100
4, 69200, Note_on_c, 0, 71, 0
4, 69200, Note_on_c, 0, 72, 100
4, 69240, Note_on_c, 0, 72, 0
4, 69240, Note_on_c, 0, 74, 100
4, 69280, Note_on_c, 0, 74, 0
4, 69280, Note_on_c, 0, 76, 100
4, 69320, Note_on_c, 0, 76, 0
4, 69320, Note_on_c, 0, 78, 100
4, 69360, Note_on_c, 0, 78, 0
4, 69360, Note_on_c, 0, 67, 100
4, 69480, Note_on_c, 0, 67, 0
4, 69480, Note_on_c, 0, 79, 100
4, 69640, Note_on_c, 0, 79, 0
4, 69640, Note_on_c, 0, 76, 100
4, 69680, Note_on_c, 0, 76, 0
4, 69680, Note_on_c, 0, 78, 100
4, 69720, Note_on_c, 0, 78, 0
4, 69720, Note_on_c, 0, 79, 100
4, 69760, Note_on_c, 0, 79, 0
4, 69760, Note_on_c, 0, 81, 100
4, 69800, Note_on_c, 0, 81, 0
4, 69800, Note_on_c, 0, 83, 100
4, 69840, Note_on_c, 0, 83, 0
4, 69840, Note_on_c, 0, 72, 100
4, 69960, Note_on_c, 0, 72, 0
4, 69960, Note_on_c, 0, 84, 100
4, 70120, Note_on_c, 0, 84, 0
4, 70120, Note_on_c, 0, 69, 100
4, 70160, Note_on_c, 0, 69, 0
4, 70160, Note_on_c, 0, 71, 100
4, 70200, Note_on_c, 0, 71, 0
4, 70200, Note_on_c, 0, 72, 100
4, 70240, Note_on_c, 0, 72, 0
4, 70240, Note_on_c, 0, 74, 100
4, 70280, Note_on_c, 0, 74, 0
4, 70280, Note_on_c, 0, 76, 100
4, 70320, Note_on_c, 0, 76, 0
4, 70320, Note_on_c, 0, 66, 100
4, 70360, Note_on_c, 0, 66, 0
4, 70360, Note_on_c, 0, 75, 100
4, 70400, Note_on_c, 0, 75, 0
4, 70400, Note_on_c, 0, 76, 100
4, 70440, Note_on_c, 0, 76, 0
4, 70440, Note_on_c, 0, 78, 100
4, 70480, Note_on_c, 0, 78, 0
4, 70480, Note_on_c, 0, 79, 100
4, 70520, Note_on_c, 0, 79, 0
4, 70520, Note_on_c, 0, 81, 100
4, 70560, Note_on_c, 0, 81, 0
4, 70560, Note_on_c, 0, 71, 100
4, 70600, Note_on_c, 0, 71, 0
4, 70600, Note_on_c, 0, 78, 100
4, 70640, Note_on_c, 0, 78, 0
4, 70640, Note_on_c, 0, 79, 100
4, 70680, Note_on_c, 0, 79, 0
4, 70680, Note_on_c, 0, 81, 100
4, 70720, Note_on_c, 0, 81, 0
4, 70720, Note_on_c, 0, 83, 100
4, 70760, Note_on_c, 0, 83, 0
4, 70760, Note_on_c, 0, 84, 100
4, 70800, Note_on_c, 0, 84, 0
4, 70800, Note_on_c, 0, 75, 100
4, 70840, Note_on_c, 0, 75, 0
4, 70840, Note_on_c, 0, 71, 100
4, 70880, Note_on_c, 0, 71, 0
4, 70880, Note_on_c, 0, 73, 100
4, 70920, Note_on_c, 0, 73, 0
4, 70920, Note_on_c, 0, 75, 100
4, 70960, Note_on_c, 0, 75, 0
4, 70960, Note_on_c, 0, 76, 100
4, 71000, Note_on_c, 0, 76, 0
4, 71000, Note_on_c, 0, 78, 100
4, 71040, Note_on_c, 0, 78, 0
4, 71040, Note_on_c, 0, 79, 100
4, 71070, Note_on_c, 0, 79, 0
4, 71070, Note_on_c, 0, 78, 100
4, 71100, Note_on_c, 0, 78, 0
4, 71100, Note_on_c, 0, 76, 100
4, 71160, Note_on_c, 0, 76, 0
4, 71160, Note_on_c, 0, 76, 100
4, 71190, Note_on_c, 0, 76, 0
4, 71190, Note_on_c, 0, 78, 100
4, 71340, Note_on_c, 0, 78, 0
4, 71340, Note_on_c, 0, 76, 100
4, 71370, Note_on_c, 0, 76, 0
4, 71370, Note_on_c, 0, 78, 100
4, 71400, Note_on_c, 0, 78, 0
4, 71400, Note_on_c, 0, 79, 100
4, 71430, Note_on_c, 0, 79, 0
4, 71430, Note_on_c, 0, 78, 100
4, 71460, Note_on_c, 0, 78, 0
4, 71460, Note_on_c, 0, 76, 100
4, 71490, Note_on_c, 0, 76, 0
4, 71490, Note_on_c, 0, 75, 100
4, 71520, Note_on_c, 0, 75, 0
4, 71520, Note_on_c, 0, 76, 100
4, 71550, Note_on_c, 0, 76, 0
4, 71550, Note_on_c, 0, 75, 100
4, 71580, Note_on_c, 0, 75, 0
4, 71580, Note_on_c, 0, 73, 100
4, 71640, Note_on_c, 0, 73, 0
4, 71640, Note_on_c, 0, 71, 100
4, 71820, Note_on_c, 0, 71, 0
4, 71820, Note_on_c, 0, 73, 100
4, 71850, Note_on_c, 0, 73, 0
4, 71850, Note_on_c, 0, 75, 100
4, 71880, Note_on_c, 0, 75, 0
4, 71880, Note_on_c, 0, 76, 100
4, 71940, Note_on_c, 0, 76, 0
4, 71940, Note_on_c, 0, 78, 100
4, 72000, Note_on_c, 0, 78, 0
4, 72000, Note_on_c, 0, 79, 100
4, 72030, Note_on_c, 0, 79, 0
4, 72030, Note_on_c, 0, 78, 100
4, 72060, Note_on_c, 0, 78, 0
4, 72060, Note_on_c, 0, 76, 100
4, 72120, Note_on_c, 0, 76, 0
4, 72120, Note_on_c, 0, 78, 100
4, 72300, Note_on_c, 0, 78, 0
4, 72300, Note_on_c, 0, 76, 100
4, 72330, Note_on_c, 0, 76, 0
4, 72330, Note_on_c, 0, 78, 100
4, 72360, Note_on_c, 0, 78, 0
4, 72360, Note_on_c, 0, 79, 100
4, 72390, Note_on_c, 0, 79, 0
4, 72390, Note_on_c, 0, 78, 100
4, 72420, Note_on_c, 0, 78, 0
4, 72420, Note_on_c, 0, 76, 100
4, 72450, Note_on_c, 0, 76, 0
4, 72450, Note_on_c, 0, 75, 100
4, 72480, Note_on_c, 0, 75, 0
4, 72480, Note_on_c, 0, 76, 100
4, 72600, Note_on_c, 0, 76, 0
4, 72600, Note_on_c, 0, 81, 100
4, 72720, Note_on_c, 0, 81, 0
4, 72720, Note_on_c, 0, 79, 100
4, 72840, Note_on_c, 0, 79, 0
4, 72840, Note_on_c, 0, 84, 100
4, 72960, Note_on_c, 0, 84, 0
4, 72960, Note_on_c, 0, 82, 100
4, 73080, Note_on_c, 0, 82, 0
4, 73080, Note_on_c, 0, 83, 100
4, 73200, Note_on_c, 0, 83, 0
4, 73560, Note_on_c, 0, 71, 100
4, 73680, Note_on_c, 0, 71, 0
4, 73680, Note_on_c, 0, 69, 100
4, 73800, Note_on_c, 0, 69, 0
4, 73800, Note_on_c, 0, 74, 100
4, 73920, Note_on_c, 0, 74, 0
4, 73920, Note_on_c, 0, 71, 100
4, 74040, Note_on_c, 0, 71, 0
4, 74040, Note_on_c, 0, 72, 100
4, 74160, Note_on_c, 0, 72, 0
4, 74520, Note_on_c, 0, 76, 100
4, 74640, Note_on_c, 0, 76, 0
4, 74640, Note_on_c, 0, 74, 100
4, 74760, Note_on_c, 0, 74, 0
4, 74760, Note_on_c, 0, 79, 100
4, 74880, Note_on_c, 0, 79, 0
4, 74880, Note_on_c, 0, 76, 100
4, 75000, Note_on_c, 0, 76, 0
4, 75000, Note_on_c, 0, 77, 100
4, 75120, Note_on_c, 0, 77, 0
4, 75120, Note_on_c, 0, 75, 100
4, 75240, Note_on_c, 0, 75, 0
4, 75240, Note_on_c, 0, 76, 100
4, 75360, Note_on_c, 0, 76, 0
4, 75360, Note_on_c, 0, 82, 100
4, 75480, Note_on_c, 0, 82, 0
4, 75480, Note_on_c, 0, 83, 100
4, 75600, Note_on_c, 0, 83, 0
4, 75600, Note_on_c, 0, 76, 100
4, 75720, Note_on_c, 0, 76, 0
4, 75720, Note_on_c, 0, 74, 100
4, 75840, Note_on_c, 0, 74, 0
4, 75840, Note_on_c, 0, 85, 100
4, 75855, Note_on_c, 0, 85, 0
4, 75855, Note_on_c, 0, 83, 100
4, 75870, Note_on_c, 0, 83, 0
4, 75870, Note_on_c, 0, 85, 100
4, 75885, Note_on_c, 0, 85, 0
4, 75885, Note_on_c, 0, 83, 100
4, 75900, Note_on_c, 0, 83, 0
4, 75900, Note_on_c, 0, 85, 100
4, 75915, Note_on_c, 0, 85, 0
4, 75915, Note_on_c, 0, 83, 100
4, 75930, Note_on_c, 0, 83, 0
4, 75930, Note_on_c, 0, 85, 100
4, 75945, Note_on_c, 0, 85, 0
4, 75945, Note_on_c, 0, 83, 100
4, 75960, Note_on_c, 0, 83, 0
4, 75960, Note_on_c, 0, 85, 100
4, 75975, Note_on_c, 0, 85, 0
4, 75975, Note_on_c, 0, 83, 100
4, 75990, Note_on_c, 0, 83, 0
4, 75990, Note_on_c, 0, 85, 100
4, 76005, Note_on_c, 0, 85, 0
4, 76005, Note_on_c, 0, 83, 100
4, 76020, Note_on_c, 0, 83, 0
4, 76020, Note_on_c, 0, 85, 100
4, 76035, Note_on_c, 0, 85, 0
4, 76035, Note_on_c, 0, 83, 100
4, 76050, Note_on_c, 0, 83, 0
4, 76050, Note_on_c, 0, 85, 100
4, 76065, Note_on_c, 0, 85, 0
4, 76065, Note_on_c, 0, 83, 100
4, 76080, Note_on_c, 0, 83, 0
4, 76080, Note_on_c, 0, 85, 100
4, 76095, Note_on_c, 0, 85, 0
4, 76095, Note_on_c, 0, 83, 100
4, 76110, Note_on_c, 0, 83, 0
4, 76110, Note_on_c, 0, 85, 100
4, 76125, Note_on_c, 0, 85, 0
4, 76125, Note_on_c, 0, 83, 100
4, 76140, Note_on_c, 0, 83, 0
4, 76140, Note_on_c, 0, 85, 100
4, 76155, Note_on_c, 0, 85, 0
4, 76155, Note_on_c, 0, 83, 100
4, 76170, Note_on_c, 0, 83, 0
4, 76170, Note_on_c, 0, 85, 100
4, 76185, Note_on_c, 0, 85, 0
4, 76185, Note_on_c, 0, 85, 100
4, 76200, Note_on_c, 0, 85, 0
4, 76200, Note_on_c, 0, 83, 100
4, 76215, Note_on_c, 0, 83, 0
4, 76215, Note_on_c, 0, 85, 100
4, 76230, Note_on_c, 0, 85, 0
4, 76230, Note_on_c, 0, 83, 100
4, 76245, Note_on_c, 0, 83, 0
4, 76245, Note_on_c, 0, 85, 100
4, 76260, Note_on_c, 0, 85, 0
4, 76260, Note_on_c, 0, 82, 100
4, 76290, Note_on_c, 0, 82, 0
4, 76290, Note_on_c, 0, 83, 100
4, 76320, Note_on_c, 0, 83, 0
4, 76320, Note_on_c, 0, 82, 100
4, 76350, Note_on_c, 0, 82, 0
4, 76360, Note_on_c, 0, 85, 100
4, 76400, Note_on_c, 0, 85, 0
4, 76400, Note_on_c, 0, 83, 100
4, 76440, Note_on_c, 0, 83, 0
4, 76440, Note_on_c, 0, 82, 100
4, 76480, Note_on_c, 0, 82, 0
4, 76480, Note_on_c, 0, 80, 100
4, 76520, Note_on_c, 0, 80, 0
4, 76520, Note_on_c, 0, 78, 100
4, 76560, Note_on_c, 0, 78, 0
4, 76560, Note_on_c, 0, 76, 100
4, 76600, Note_on_c, 0, 76, 0
4, 76600, Note_on_c, 0, 79, 100
4, 76640, Note_on_c, 0, 79, 0
4, 76640, Note_on_c, 0, 78, 100
4, 76680, Note_on_c, 0, 78, 0
4, 76680, Note_on_c, 0, 76, 100
4, 76720, Note_on_c, 0, 76, 0
4, 76720, Note_on_c, 0, 74, 100
4, 76760, Note_on_c, 0, 74, 0
4, 76760, Note_on_c, 0, 73, 100
4, 76800, Note_on_c, 0, 73, 0
4, 76800, Note_on_c, 0, 74, 100
4, 76860, Note_on_c, 0, 74, 0
4, 76860, Note_on_c, 0, 83, 100
4, 76920, Note_on_c, 0, 83, 0
4, 76920, Note_on_c, 0, 76, 100
4, 76980, Note_on_c, 0, 76, 0
4, 76980, Note_on_c, 0, 82, 100
4, 77040, Note_on_c, 0, 82, 0
4, 77040, Note_on_c, 0, 83, 100
4, 77100, Note_on_c, 0, 83, 0
4, 77100, Note_on_c, 0, 78, 100
4, 77160, Note_on_c, 0, 78, 0
4, 77160, Note_on_c, 0, 85, 100
4, 77220, Note_on_c, 0, 85, 0
4, 77220, Note_on_c, 0, 76, 100
4, 77280, Note_on_c, 0, 76, 0
4, 77280, Note_on_c, 0, 74, 100
4, 77340, Note_on_c, 0, 74, 0
4, 77340, Note_on_c, 0, 83, 100
4, 77400, Note_on_c, 0, 83, 0
4, 77400, Note_on_c, 0, 76, 100
4, 77460, Note_on_c, 0, 76, 0
4, 77460, Note_on_c, 0, 82, 100
4, 77520, Note_on_c, 0, 82, 0
4, 77520, Note_on_c, 0, 83, 100
4, 77580, Note_on_c, 0, 83, 0
4, 77580, Note_on_c, 0, 78, 100
4, 77640, Note_on_c, 0, 78, 0
4, 77640, Note_on_c, 0, 85, 100
4, 77700, Note_on_c, 0, 85, 0
4, 77700, Note_on_c, 0, 76, 100
4, 77760, Note_on_c, 0, 76, 0
4, 77760, Note_on_c, 0, 74, 100
4, 77820, Note_on_c, 0, 74, 0
4, 77820, Note_on_c, 0, 83, 100
4, 77880, Note_on_c, 0, 83, 0
4, 77880, Note_on_c, 0, 76, 100
4, 77940, Note_on_c, 0, 76, 0
4, 77940, Note_on_c, 0, 85, 100
4, 78000, Note_on_c, 0, 85, 0
4, 78000, Note_on_c, 0, 74, 100
4, 78060, Note_on_c, 0, 74, 0
4, 78060, Note_on_c, 0, 83, 100
4, 78120, Note_on_c, 0, 83, 0
4, 78120, Note_on_c, 0, 73, 100
4, 78180, Note_on_c, 0, 73, 0
4, 78180, Note_on_c, 0, 82, 100
4, 78240, Note_on_c, 0, 82, 0
4, 78240, Note_on_c, 0, 83, 100
4, 78300, Note_on_c, 0, 83, 0
4, 78300, Note_on_c, 0, 78, 100
4, 78360, Note_on_c, 0, 78, 0
4, 78360, Note_on_c, 0, 76, 100
4, 78420, Note_on_c, 0, 76, 0
4, 78420, Note_on_c, 0, 78, 100
4, 78480, Note_on_c, 0, 78, 0
4, 78480, Note_on_c, 0, 74, 100
4, 78600, Note_on_c, 0, 74, 0
4, 79500, Note_on_c, 0, 71, 100
4, 79560, Note_on_c, 0, 71, 0
4, 79560, Note_on_c, 0, 72, 100
4, 79620, Note_on_c, 0, 72, 0
4, 79620, Note_on_c, 0, 74, 100
4, 79680, Note_on_c, 0, 74, 0
4, 79680, Note_on_c, 0, 70, 100
4, 79740, Note_on_c, 0, 70, 0
4, 79740, Note_on_c, 0, 78, 100
4, 79800, Note_on_c, 0, 78, 0
4, 79800, Note_on_c, 0, 78, 100
4, 79860, Note_on_c, 0, 78, 0
4, 79860, Note_on_c, 0, 71, 100
4, 79920, Note_on_c, 0, 71, 0
4, 79920, Note_on_c, 0, 71, 100
4, 79980, Note_on_c, 0, 71, 0
4, 79980, Note_on_c, 0, 69, 100
4, 80040, Note_on_c, 0, 69, 0
4, 80040, Note_on_c, 0, 68, 100
4, 80100, Note_on_c, 0, 68, 0
4, 80100, Note_on_c, 0, 69, 100
4, 80160, Note_on_c, 0, 69, 0
4, 80160, Note_on_c, 0, 68, 100
4, 80220, Note_on_c, 0, 68, 0
4, 80220, Note_on_c, 0, 76, 100
4, 80280, Note_on_c, 0, 76, 0
4, 80280, Note_on_c, 0, 76, 100
4, 80340, Note_on_c, 0, 76, 0
4, 80340, Note_on_c, 0, 69, 100
4, 80400, Note_on_c, 0, 69, 0
4, 80400, Note_on_c, 0, 69, 100
4, 80520, Note_on_c, 0, 69, 0
4, 80520, Note_on_c, 0, 81, 100
4, 80640, Note_on_c, 0, 81, 0
4, 80640, Note_on_c, 0, 81, 100
4, 80700, Note_on_c, 0, 81, 0
4, 80700, Note_on_c, 0, 83, 100
4, 80760, Note_on_c, 0, 83, 0
4, 80760, Note_on_c, 0, 80, 100
4, 80880, Note_on_c, 0, 80, 0
4, 81000, Note_on_c, 0, 79, 100
4, 81120, Note_on_c, 0, 79, 0
4, 81120, Note_on_c, 0, 79, 100
4, 81180, Note_on_c, 0, 79, 0
4, 81180, Note_on_c, 0, 81, 100
4, 81240, Note_on_c, 0, 81, 0
4, 81240, Note_on_c, 0, 78, 100
4, 81360, Note_on_c, 0, 78, 0
4, 81480, Note_on_c, 0, 66, 100
4, 81600, Note_on_c, 0, 66, 0
4, 81600, Note_on_c, 0, 78, 100
4, 81720, Note_on_c, 0, 78, 0
4, 81720, Note_on_c, 0, 78, 100
4, 81960, Note_on_c, 0, 78, 0
4, 81960, Note_on_c, 0, 76, 100
4, 81990, Note_on_c, 0, 76, 0
4, 81990, Note_on_c, 0, 78, 100
4, 82020, Note_on_c, 0, 78, 0
4, 82020, Note_on_c, 0, 79, 100
4, 82080, Note_on_c, 0, 79, 0
4, 82080, Note_on_c, 0, 78, 100
4, 82200, Note_on_c, 0, 78, 0
4, 82200, Note_on_c, 0, 78, 100
4, 82440, Note_on_c, 0, 78, 0
4, 82440, Note_on_c, 0, 76, 100
4, 82470, Note_on_c, 0, 76, 0
4, 82470, Note_on_c, 0, 78, 100
4, 82500, Note_on_c, 0, 78, 0
4, 82500, Note_on_c, 0, 79, 100
4, 82560, Note_on_c, 0, 79, 0
4, 82560, Note_on_c, 0, 78, 100
4, 82680, Note_on_c, 0, 78, 0
4, 82680, Note_on_c, 0, 79, 100
4, 82800, Note_on_c, 0, 79, 0
4, 82800, Note_on_c, 0, 78, 100
4, 82920, Note_on_c, 0, 78, 0
4, 82920, Note_on_c, 0, 76, 100
4, 83040, Note_on_c, 0, 76, 0
4, 83040, Note_on_c, 0, 76, 100
4, 83055, Note_on_c, 0, 76, 0
4, 83055, Note_on_c, 0, 74, 100
4, 83070, Note_on_c, 0, 74, 0
4, 83070, Note_on_c, 0, 76, 100
4, 83085, Note_on_c, 0, 76, 0
4, 83085, Note_on_c, 0, 74, 100
4, 83100, Note_on_c, 0, 74, 0
4, 83100, Note_on_c, 0, 76, 100
4, 83115, Note_on_c, 0, 76, 0
4, 83115, Note_on_c, 0, 74, 100
4, 83130, Note_on_c, 0, 74, 0
4, 83130, Note_on_c, 0, 76, 100
4, 83145, Note_on_c, 0, 76, 0
4, 83145, Note_on_c, 0, 74, 100
4, 83160, Note_on_c, 0, 74, 0
4, 83160, Note_on_c, 0, 73, 100
4, 83220, Note_on_c, 0, 73, 0
4, 83220, Note_on_c, 0, 74, 100
4, 83280, Note_on_c, 0, 74, 0
4, 83280, Note_on_c, 0, 71, 100
4, 83640, Note_on_c, 0, 71, 0
4, 83640, Note_on_c, 0, 76, 100
4, 83820, Note_on_c, 0, 76, 0
4, 83820, Note_on_c, 0, 74, 100
4, 83880, Note_on_c, 0, 74, 0
4, 83880, Note_on_c, 0, 73, 100
4, 83940, Note_on_c, 0, 73, 0
4, 83940, Note_on_c, 0, 71, 100
4, 84000, Note_on_c, 0, 71, 0
4, 84000, Note_on_c, 0, 73, 100
4, 84120, Note_on_c, 0, 73, 0
4, 84120, Note_on_c, 0, 73, 100
4, 84240, Note_on_c, 0, 73, 0
4, 84240, Note_on_c, 0, 73, 100
4, 84360, Note_on_c, 0, 73, 0
4, 84360, Note_on_c, 0, 72, 100
4, 84480, Note_on_c, 0, 72, 0
4, 84480, Note_on_c, 0, 72, 100
4, 84600, Note_on_c, 0, 72, 0
4, 84600, Note_on_c, 0, 81, 100
4, 84760, Note_on_c, 0, 81, 0
4, 84760, Note_on_c, 0, 79, 100
4, 84800, Note_on_c, 0, 79, 0
4, 84800, Note_on_c, 0, 78, 100
4, 84840, Note_on_c, 0, 78, 0
4, 84840, Note_on_c, 0, 76, 100
4, 84880, Note_on_c, 0, 76, 0
4, 84880, Note_on_c, 0, 74, 100
4, 84920, Note_on_c, 0, 74, 0
4, 84920, Note_on_c, 0, 73, 100
4, 84960, Note_on_c, 0, 73, 0
4, 84960, Note_on_c, 0, 71, 100
4, 85080, Note_on_c, 0, 71, 0
4, 85080, Note_on_c, 0, 71, 100
4, 85200, Note_on_c, 0, 71, 0
4, 85200, Note_on_c, 0, 71, 100
4, 85320, Note_on_c, 0, 71, 0
4, 85320, Note_on_c, 0, 71, 100
4, 85440, Note_on_c, 0, 71, 0
4, 85440, Note_on_c, 0, 71, 100
4, 85560, Note_on_c, 0, 71, 0
4, 85560, Note_on_c, 0, 79, 100
4, 85720, Note_on_c, 0, 79, 0
4, 85720, Note_on_c, 0, 78, 100
4, 85760, Note_on_c, 0, 78, 0
4, 85760, Note_on_c, 0, 76, 100
4, 85800, Note_on_c, 0, 76, 0
4, 85800, Note_on_c, 0, 74, 100
4, 85840, Note_on_c, 0, 74, 0
4, 85840, Note_on_c, 0, 72, 100
4, 85880, Note_on_c, 0, 72, 0
4, 85880, Note_on_c, 0, 71, 100
4, 85920, Note_on_c, 0, 71, 0
4, 85920, Note_on_c, 0, 69, 100
4, 85960, Note_on_c, 0, 69, 0
4, 85960, Note_on_c, 0, 68, 100
4, 86000, Note_on_c, 0, 68, 0
4, 86000, Note_on_c, 0, 69, 100
4, 86040, Note_on_c, 0, 69, 0
4, 86040, Note_on_c, 0, 71, 100
4, 86080, Note_on_c, 0, 71, 0
4, 86080, Note_on_c, 0, 69, 100
4, 86120, Note_on_c, 0, 69, 0
4, 86120, Note_on_c, 0, 68, 100
4, 86160, Note_on_c, 0, 68, 0
4, 86160, Note_on_c, 0, 69, 100
4, 86280, Note_on_c, 0, 69, 0
4, 86280, Note_on_c, 0, 81, 100
4, 86400, Note_on_c, 0, 81, 0
4, 86400, Note_on_c, 0, 80, 100
4, 86520, Note_on_c, 0, 80, 0
4, 86520, Note_on_c, 0, 79, 100
4, 86640, Note_on_c, 0, 79, 0
4, 86640, Note_on_c, 0, 78, 100
4, 86760, Note_on_c, 0, 78, 0
4, 86760, Note_on_c, 0, 77, 100
4, 86880, Note_on_c, 0, 77, 0
4, 86880, Note_on_c, 0, 76, 100
4, 87000, Note_on_c, 0, 76, 0
4, 87000, Note_on_c, 0, 67, 100
4, 87120, Note_on_c, 0, 67, 0
4, 87120, Note_on_c, 0, 66, 100
4, 87240, Note_on_c, 0, 66, 0
4, 87240, Note_on_c, 0, 76, 100
4, 87420, Note_on_c, 0, 76, 0
4, 87420, Note_on_c, 0, 74, 100
4, 87450, Note_on_c, 0, 74, 0
4, 87450, Note_on_c, 0, 73, 100
4, 87480, Note_on_c, 0, 73, 0
4, 87480, Note_on_c, 0, 74, 100
4, 87540, Note_on_c, 0, 74, 0
4, 87540, Note_on_c, 0, 76, 100
4, 87600, Note_on_c, 0, 76, 0
4, 87600, Note_on_c, 0, 78, 100
4, 87615, Note_on_c, 0, 78, 0
4, 87615, Note_on_c, 0, 76, 100
4, 87630, Note_on_c, 0, 76, 0
4, 87630, Note_on_c, 0, 78, 100
4, 87645, Note_on_c, 0, 78, 0
4, 87645, Note_on_c, 0, 76, 100
4, 87660, Note_on_c, 0, 76, 0
4, 87660, Note_on_c, 0, 78, 100
4, 87675, Note_on_c, 0, 78, 0
4, 87675, Note_on_c, 0, 76, 100
4, 87690, Note_on_c, 0, 76, 0
4, 87690, Note_on_c, 0, 78, 100
4, 87705, Note_on_c, 0, 78, 0
4, 87705, Note_on_c, 0, 76, 100
4, 87720, Note_on_c, 0, 76, 0
4, 87720, Note_on_c, 0, 78, 100
4, 87735, Note_on_c, 0, 78, 0
4, 87735, Note_on_c, 0, 76, 100
4, 87750, Note_on_c, 0, 76, 0
4, 87750, Note_on_c, 0, 78, 100
4, 87765, Note_on_c, 0, 78, 0
4, 87765, Note_on_c, 0, 76, 100
4, 87780, Note_on_c, 0, 76, 0
4, 87780, Note_on_c, 0, 74, 100
4, 87810, Note_on_c, 0, 74, 0
4, 87810, Note_on_c, 0, 76, 100
4, 87840, Note_on_c, 0, 76, 0
4, 87840, Note_on_c, 0, 78, 100
4, 87960, Note_on_c, 0, 78, 0
4, 87960, Note_on_c, 0, 83, 100
4, 88080, Note_on_c, 0, 83, 0
4, 88080, Note_on_c, 0, 82, 100
4, 88140, Note_on_c, 0, 82, 0
4, 88140, Note_on_c, 0, 85, 100
4, 88200, Note_on_c, 0, 85, 0
4, 88200, Note_on_c, 0, 79, 100
4, 88380, Note_on_c, 0, 79, 0
4, 88380, Note_on_c, 0, 78, 100
4, 88440, Note_on_c, 0, 78, 0
4, 88440, Note_on_c, 0, 88, 100
4, 88470, Note_on_c, 0, 88, 0
4, 88470, Note_on_c, 0, 86, 100
4, 88500, Note_on_c, 0, 86, 0
4, 88500, Note_on_c, 0, 85, 100
4, 88560, Note_on_c, 0, 85, 0
4, 88560, Note_on_c, 0, 85, 100
4, 88620, Note_on_c, 0, 85, 0
4, 88620, Note_on_c, 0, 86, 100
4, 88680, Note_on_c, 0, 86, 0
4, 88680, Note_on_c, 0, 79, 100
4, 88840, Note_on_c, 0, 79, 0
4, 88840, Note_on_c, 0, 78, 100
4, 88880, Note_on_c, 0, 78, 0
4, 88880, Note_on_c, 0, 81, 100
4, 88920, Note_on_c, 0, 81, 0
4, 88920, Note_on_c, 0, 75, 100
4, 89100, Note_on_c, 0, 75, 0
4, 89100, Note_on_c, 0, 74, 100
4, 89160, Note_on_c, 0, 74, 0
4, 89160, Note_on_c, 0, 84, 100
4, 89190, Note_on_c, 0, 84, 0
4, 89190, Note_on_c, 0, 83, 100
4, 89220, Note_on_c, 0, 83, 0
4, 89220, Note_on_c, 0, 81, 100
4, 89280, Note_on_c, 0, 81, 0
4, 89280, Note_on_c, 0, 81, 100
4, 89340, Note_on_c, 0, 81, 0
4, 89340, Note_on_c, 0, 83, 100
4, 89400, Note_on_c, 0, 83, 0
4, 89880, Note_on_c, 0, 76, 100
4, 90000, Note_on_c, 0, 76, 0
4, 90000, Note_on_c, 0, 75, 100
4, 90060, Note_on_c, 0, 75, 0
4, 90060, Note_on_c, 0, 78, 100
4, 90120, Note_on_c, 0, 78, 0
4, 90120, Note_on_c, 0, 72, 100
4, 90300, Note_on_c, 0, 72, 0
4, 90300, Note_on_c, 0, 71, 100
4, 90360, Note_on_c, 0, 71, 0
4, 90360, Note_on_c, 0, 81, 100
4, 90390, Note_on_c, 0, 81, 0
4, 90390, Note_on_c, 0, 79, 100
4, 90420, Note_on_c, 0, 79, 0
4, 90420, Note_on_c, 0, 78, 100
4, 90480, Note_on_c, 0, 78, 0
4, 90480, Note_on_c, 0, 78, 100
4, 90540, Note_on_c, 0, 78, 0
4, 90540, Note_on_c, 0, 79, 100
4, 90600, Note_on_c, 0, 79, 0
4, 90600, Note_on_c, 0, 72, 100
4, 90760, Note_on_c, 0, 72, 0
4, 90760, Note_on_c, 0, 71, 100
4, 90800, Note_on_c, 0, 71, 0
4, 90800, Note_on_c, 0, 74, 100
4, 90840, Note_on_c, 0, 74, 0
4, 90840, Note_on_c, 0, 68, 100
4, 91020, Note_on_c, 0, 68, 0
4, 91020, Note_on_c, 0, 67, 100
4, 91080, Note_on_c, 0, 67, 0
4, 91080, Note_on_c, 0, 77, 100
4, 91110, Note_on_c, 0, 77, 0
4, 91110, Note_on_c, 0, 76, 100
4, 91140, Note_on_c, 0, 76, 0
4, 91140, Note_on_c, 0, 74, 100
4, 91200, Note_on_c, 0, 74, 0
4, 91200, Note_on_c, 0, 74, 100
4, 91260, Note_on_c, 0, 74, 0
4, 91260, Note_on_c, 0, 76, 100
4, 91320, Note_on_c, 0, 76, 0
4, 91560, Note_on_c, 0, 76, 100
4, 91680, Note_on_c, 0, 76, 0
4, 91680, Note_on_c, 0, 77, 100
4, 91800, Note_on_c, 0, 77, 0
4, 91800, Note_on_c, 0, 80, 100
4, 91920, Note_on_c, 0, 80, 0
4, 91920, Note_on_c, 0, 81, 100
4, 92040, Note_on_c, 0, 81, 0
4, 92040, Note_on_c, 0, 84, 100
4, 92160, Note_on_c, 0, 84, 0
4, 92160, Note_on_c, 0, 87, 100
4, 92280, Note_on_c, 0, 87, 0
4, 92280, Note_on_c, 0, 91, 100
4, 92400, Note_on_c, 0, 91, 0
4, 92400, Note_on_c, 0, 90, 100
4, 92520, Note_on_c, 0, 90, 0
4, 92520, Note_on_c, 0, 81, 100
4, 92640, Note_on_c, 0, 81, 0
4, 92640, Note_on_c, 0, 79, 100
4, 92760, Note_on_c, 0, 79, 0
4, 92760, Note_on_c, 0, 78, 100
4, 92820, Note_on_c, 0, 78, 0
4, 92820, Note_on_c, 0, 76, 100
4, 92880, Note_on_c, 0, 76, 0
4, 92880, Note_on_c, 0, 79, 100
4, 92940, Note_on_c, 0, 79, 0
4, 92940, Note_on_c, 0, 78, 100
4, 93000, Note_on_c, 0, 78, 0
4, 93000, Note_on_c, 0, 76, 100
4, 93060, Note_on_c, 0, 76, 0
4, 93060, Note_on_c, 0, 75, 100
4, 93120, Note_on_c, 0, 75, 0
4, 93120, Note_on_c, 0, 76, 100
4, 93240, Note_on_c, 0, 76, 0
4, 93960, Note_on_c, 0, 76, 100
4, 94080, Note_on_c, 0, 76, 0
4, 94080, Note_on_c, 0, 74, 100
4, 94200, Note_on_c, 0, 74, 0
4, 94200, Note_on_c, 0, 79, 100
4, 94320, Note_on_c, 0, 79, 0
4, 94320, Note_on_c, 0, 78, 100
4, 94440, Note_on_c, 0, 78, 0
4, 94440, Note_on_c, 0, 83, 100
4, 94560, Note_on_c, 0, 83, 0
4, 94560, Note_on_c, 0, 77, 100
4, 94680, Note_on_c, 0, 77, 0
4, 94680, Note_on_c, 0, 78, 100
4, 94800, Note_on_c, 0, 78, 0
4, 95400, Note_on_c, 0, 77, 100
4, 95520, Note_on_c, 0, 77, 0
4, 95520, Note_on_c, 0, 83, 100
4, 95640, Note_on_c, 0, 83, 0
4, 95640, Note_on_c, 0, 82, 100
4, 95760, Note_on_c, 0, 82, 0
4, 95880, Note_on_c, 0, 78, 100
4, 96000, Note_on_c, 0, 78, 0
4, 96000, Note_on_c, 0, 86, 100
4, 96030, Note_on_c, 0, 86, 0
4, 96030, Note_on_c, 0, 85, 100
4, 96060, Note_on_c, 0, 85, 0
4, 96060, Note_on_c, 0, 83, 100
4, 96120, Note_on_c, 0, 83, 0
4, 96120, Note_on_c, 0, 85, 100
4, 96300, Note_on_c, 0, 85, 0
4, 96300, Note_on_c, 0, 83, 100
4, 96330, Note_on_c, 0, 83, 0
4, 96330, Note_on_c, 0, 85, 100
4, 96360, Note_on_c, 0, 85, 0
4, 96360, Note_on_c, 0, 86, 100
4, 96390, Note_on_c, 0, 86, 0
4, 96390, Note_on_c, 0, 85, 100
4, 96420, Note_on_c, 0, 85, 0
4, 96420, Note_on_c, 0, 83, 100
4, 96450, Note_on_c, 0, 83, 0
4, 96450, Note_on_c, 0, 82, 100
4, 96480, Note_on_c, 0, 82, 0
4, 96480, Note_on_c, 0, 83, 100
4, 96510, Note_on_c, 0, 83, 0
4, 96510, Note_on_c, 0, 82, 100
4, 96540, Note_on_c, 0, 82, 0
4, 96540, Note_on_c, 0, 80, 100
4, 96600, Note_on_c, 0, 80, 0
4, 96600, Note_on_c, 0, 78, 100
4, 96780, Note_on_c, 0, 78, 0
4, 96780, Note_on_c, 0, 80, 100
4, 96810, Note_on_c, 0, 80, 0
4, 96810, Note_on_c, 0, 82, 100
4, 96840, Note_on_c, 0, 82, 0
4, 96840, Note_on_c, 0, 83, 100
4, 96900, Note_on_c, 0, 83, 0
4, 96900, Note_on_c, 0, 85, 100
4, 96960, Note_on_c, 0, 85, 0
4, 96961, Note_on_c, 0, 86, 100
4, 96989, Note_on_c, 0, 86, 0
4, 96990, Note_on_c, 0, 85, 100
4, 97018, Note_on_c, 0, 85, 0
4, 97021, Note_on_c, 0, 83, 100
4, 97079, Note_on_c, 0, 83, 0
4, 97079, Note_on_c, 0, 85, 100
4, 97258, Note_on_c, 0, 83, 100
4, 97259, Note_on_c, 0, 85, 0
4, 97286, Note_on_c, 0, 83, 0
4, 97289, Note_on_c, 0, 85, 100
4, 97317, Note_on_c, 0, 85, 0
4, 97320, Note_on_c, 0, 86, 100
4, 97348, Note_on_c, 0, 86, 0
4, 97348, Note_on_c, 0, 85, 100
4, 97373, Note_on_c, 0, 83, 100
4, 97376, Note_on_c, 0, 85, 0
4, 97402, Note_on_c, 0, 82, 100
4, 97403, Note_on_c, 0, 83, 0
4, 97432, Note_on_c, 0, 82, 0
4, 97440, Note_on_c, 0, 83, 100
4, 97560, Note_on_c, 0, 83, 0
4, 97560, Note_on_c, 0, 71, 100
4, 97678, Note_on_c, 0, 71, 0
4, 97800, Note_on_c, 0, 78, 100
4, 97918, Note_on_c, 0, 78, 0
4, 97921, Note_on_c, 0, 74, 100
4, 97959, Note_on_c, 0, 74, 0
4, 97961, Note_on_c, 0, 71, 100
4, 97999, Note_on_c, 0, 71, 0
4, 98001, Note_on_c, 0, 73, 100
4, 98039, Note_on_c, 0, 73, 0
4, 98041, Note_on_c, 0, 74, 100
4, 98079, Note_on_c, 0, 74, 0
4, 98081, Note_on_c, 0, 76, 100
4, 98119, Note_on_c, 0, 76, 0
4, 98120, Note_on_c, 0, 78, 100
4, 98158, Note_on_c, 0, 78, 0
4, 98161, Note_on_c, 0, 79, 100
4, 98199, Note_on_c, 0, 79, 0
4, 98201, Note_on_c, 0, 81, 100
4, 98239, Note_on_c, 0, 81, 0
4, 98241, Note_on_c, 0, 83, 100
4, 98279, Note_on_c, 0, 83, 0
4, 98281, Note_on_c, 0, 81, 100
4, 98319, Note_on_c, 0, 81, 0
4, 98321, Note_on_c, 0, 79, 100
4, 98359, Note_on_c, 0, 79, 0
4, 98360, Note_on_c, 0, 78, 100
4, 98398, Note_on_c, 0, 78, 0
4, 98401, Note_on_c, 0, 76, 100
4, 98439, Note_on_c, 0, 76, 0
4, 98440, Note_on_c, 0, 73, 100
4, 98478, Note_on_c, 0, 73, 0
4, 98481, Note_on_c, 0, 74, 100
4, 98519, Note_on_c, 0, 74, 0
4, 98521, Note_on_c, 0, 76, 100
4, 98559, Note_on_c, 0, 76, 0
4, 98560, Note_on_c, 0, 78, 100
4, 98598, Note_on_c, 0, 78, 0
4, 98601, Note_on_c, 0, 80, 100
4, 98639, Note_on_c, 0, 80, 0
4, 98641, Note_on_c, 0, 82, 100
4, 98679, Note_on_c, 0, 82, 0
4, 98681, Note_on_c, 0, 83, 100
4, 98719, Note_on_c, 0, 83, 0
4, 98720, Note_on_c, 0, 85, 100
4, 98758, Note_on_c, 0, 85, 0
4, 98761, Note_on_c, 0, 83, 100
4, 98799, Note_on_c, 0, 83, 0
4, 98801, Note_on_c, 0, 82, 100
4, 98839, Note_on_c, 0, 82, 0
4, 98841, Note_on_c, 0, 80, 100
4, 98879, Note_on_c, 0, 80, 0
4, 98880, Note_on_c, 0, 78, 100
4, 98998, Note_on_c, 0, 78, 0
4, 99000, Note_on_c, 0, 83, 100
4, 99118, Note_on_c, 0, 83, 0
4, 99240, Note_on_c, 0, 86, 100
4, 99358, Note_on_c, 0, 86, 0
4, 99360, Note_on_c, 0, 81, 100
4, 99478, Note_on_c, 0, 81, 0
4, 99480, Note_on_c, 0, 91, 100
4, 99598, Note_on_c, 0, 91, 0
4, 99720, Note_on_c, 0, 88, 100
4, 99838, Note_on_c, 0, 88, 0
4, 99840, Note_on_c, 0, 81, 100
4, 99958, Note_on_c, 0, 81, 0
4, 99960, Note_on_c, 0, 90, 100
4, 100078, Note_on_c, 0, 90, 0
4, 100200, Note_on_c, 0, 86, 100
4, 100318, Note_on_c, 0, 86, 0
4, 100320, Note_on_c, 0, 79, 100
4, 100438, Note_on_c, 0, 79, 0
4, 100440, Note_on_c, 0, 88, 100
4, 100558, Note_on_c, 0, 88, 0
4, 100680, Note_on_c, 0, 85, 100
4, 100798, Note_on_c, 0, 85, 0
4, 100800, Note_on_c, 0, 78, 100
4, 100838, Note_on_c, 0, 78, 0
4, 100841, Note_on_c, 0, 86, 100
4, 100879, Note_on_c, 0, 86, 0
4, 100880, Note_on_c, 0, 85, 100
4, 100918, Note_on_c, 0, 85, 0
4, 100921, Note_on_c, 0, 83, 100
4, 100959, Note_on_c, 0, 83, 0
4, 100961, Note_on_c, 0, 81, 100
4, 100999, Note_on_c, 0, 81, 0
4, 101001, Note_on_c, 0, 79, 100
4, 101039, Note_on_c, 0, 79, 0
4, 101040, Note_on_c, 0, 78, 100
4, 101078, Note_on_c, 0, 78, 0
4, 101081, Note_on_c, 0, 76, 100
4, 101119, Note_on_c, 0, 76, 0
4, 101121, Note_on_c, 0, 75, 100
4, 101159, Note_on_c, 0, 75, 0
4, 101161, Note_on_c, 0, 76, 100
4, 101199, Note_on_c, 0, 76, 0
4, 101200, Note_on_c, 0, 78, 100
4, 101238, Note_on_c, 0, 78, 0
4, 101241, Note_on_c, 0, 79, 100
4, 101279, Note_on_c, 0, 79, 0
4, 101281, Note_on_c, 0, 81, 100
4, 101319, Note_on_c, 0, 81, 0
4, 101321, Note_on_c, 0, 84, 100
4, 101359, Note_on_c, 0, 84, 0
4, 101361, Note_on_c, 0, 83, 100
4, 101399, Note_on_c, 0, 83, 0
4, 101401, Note_on_c, 0, 81, 100
4, 101439, Note_on_c, 0, 81, 0
4, 101441, Note_on_c, 0, 79, 100
4, 101479, Note_on_c, 0, 79, 0
4, 101480, Note_on_c, 0, 78, 100
4, 101518, Note_on_c, 0, 78, 0
4, 101521, Note_on_c, 0, 76, 100
4, 101559, Note_on_c, 0, 76, 0
4, 101560, Note_on_c, 0, 75, 100
4, 101598, Note_on_c, 0, 75, 0
4, 101601, Note_on_c, 0, 73, 100
4, 101639, Note_on_c, 0, 73, 0
4, 101641, Note_on_c, 0, 75, 100
4, 101679, Note_on_c, 0, 75, 0
4, 101681, Note_on_c, 0, 76, 100
4, 101719, Note_on_c, 0, 76, 0
4, 101720, Note_on_c, 0, 78, 100
4, 101758, Note_on_c, 0, 78, 0
4, 101761, Note_on_c, 0, 67, 100
4, 101879, Note_on_c, 0, 67, 0
4, 101881, Note_on_c, 0, 79, 100
4, 102039, Note_on_c, 0, 79, 0
4, 102040, Note_on_c, 0, 76, 100
4, 102080, Note_on_c, 0, 76, 0
4, 102080, Note_on_c, 0, 78, 100
4, 102120, Note_on_c, 0, 78, 0
4, 102121, Note_on_c, 0, 79, 100
4, 102159, Note_on_c, 0, 79, 0
4, 102161, Note_on_c, 0, 81, 100
4, 102199, Note_on_c, 0, 81, 0
4, 102201, Note_on_c, 0, 83, 100
4, 102239, Note_on_c, 0, 83, 0
4, 102240, Note_on_c, 0, 85, 100
4, 102358, Note_on_c, 0, 85, 0
4, 102360, Note_on_c, 0, 73, 100
4, 102520, Note_on_c, 0, 69, 100
4, 102540, Note_on_c, 0, 73, 0
4, 102560, Note_on_c, 0, 69, 0
4, 102560, Note_on_c, 0, 71, 100
4, 102600, Note_on_c, 0, 71, 0
4, 102600, Note_on_c, 0, 73, 100
4, 102640, Note_on_c, 0, 73, 0
4, 102640, Note_on_c, 0, 74, 100
4, 102680, Note_on_c, 0, 74, 0
4, 102680, Note_on_c, 0, 76, 100
4, 102720, Note_on_c, 0, 76, 0
4, 102720, Note_on_c, 0, 66, 100
4, 102838, Note_on_c, 0, 66, 0
4, 102840, Note_on_c, 0, 78, 100
4, 102998, Note_on_c, 0, 78, 0
4, 103001, Note_on_c, 0, 74, 100
4, 103039, Note_on_c, 0, 74, 0
4, 103041, Note_on_c, 0, 76, 100
4, 103079, Note_on_c, 0, 76, 0
4, 103080, Note_on_c, 0, 78, 100
4, 103118, Note_on_c, 0, 78, 0
4, 103121, Note_on_c, 0, 80, 100
4, 103159, Note_on_c, 0, 80, 0
4, 103161, Note_on_c, 0, 82, 100
4, 103199, Note_on_c, 0, 82, 0
4, 103201, Note_on_c, 0, 83, 100
4, 103319, Note_on_c, 0, 83, 0
4, 103321, Note_on_c, 0, 71, 100
4, 103479, Note_on_c, 0, 71, 0
4, 103481, Note_on_c, 0, 67, 100
4, 103519, Note_on_c, 0, 67, 0
4, 103521, Note_on_c, 0, 69, 100
4, 103559, Note_on_c, 0, 69, 0
4, 103561, Note_on_c, 0, 71, 100
4, 103599, Note_on_c, 0, 71, 0
4, 103600, Note_on_c, 0, 73, 100
4, 103638, Note_on_c, 0, 73, 0
4, 103641, Note_on_c, 0, 74, 100
4, 103679, Note_on_c, 0, 74, 0
4, 103681, Note_on_c, 0, 64, 100
4, 103719, Note_on_c, 0, 64, 0
4, 103720, Note_on_c, 0, 73, 100
4, 103758, Note_on_c, 0, 73, 0
4, 103761, Note_on_c, 0, 74, 100
4, 103799, Note_on_c, 0, 74, 0
4, 103801, Note_on_c, 0, 76, 100
4, 103839, Note_on_c, 0, 76, 0
4, 103840, Note_on_c, 0, 78, 100
4, 103878, Note_on_c, 0, 78, 0
4, 103881, Note_on_c, 0, 79, 100
4, 103919, Note_on_c, 0, 79, 0
4, 103921, Note_on_c, 0, 79, 100
4, 103959, Note_on_c, 0, 79, 0
4, 103960, Note_on_c, 0, 78, 100
4, 103998, Note_on_c, 0, 78, 0
4, 104001, Note_on_c, 0, 80, 100
4, 104039, Note_on_c, 0, 80, 0
4, 104041, Note_on_c, 0, 82, 100
4, 104079, Note_on_c, 0, 82, 0
4, 104081, Note_on_c, 0, 83, 100
4, 104119, Note_on_c, 0, 83, 0
4, 104120, Note_on_c, 0, 85, 100
4, 104158, Note_on_c, 0, 85, 0
4, 104160, Note_on_c, 0, 85, 100
4, 104198, Note_on_c, 0, 85, 0
4, 104200, Note_on_c, 0, 73, 100
4, 104238, Note_on_c, 0, 73, 0
4, 104241, Note_on_c, 0, 74, 100
4, 104279, Note_on_c, 0, 74, 0
4, 104281, Note_on_c, 0, 76, 100
4, 104319, Note_on_c, 0, 76, 0
4, 104320, Note_on_c, 0, 78, 100
4, 104358, Note_on_c, 0, 78, 0
4, 104361, Note_on_c, 0, 79, 100
4, 104399, Note_on_c, 0, 79, 0
4, 104401, Note_on_c, 0, 79, 100
4, 104439, Note_on_c, 0, 79, 0
4, 104440, Note_on_c, 0, 78, 100
4, 104478, Note_on_c, 0, 78, 0
4, 104481, Note_on_c, 0, 80, 100
4, 104519, Note_on_c, 0, 80, 0
4, 104521, Note_on_c, 0, 82, 100
4, 104559, Note_on_c, 0, 82, 0
4, 104561, Note_on_c, 0, 83, 100
4, 104599, Note_on_c, 0, 83, 0
4, 104600, Note_on_c, 0, 85, 100
4, 104638, Note_on_c, 0, 85, 0
4, 104641, Note_on_c, 0, 86, 100
4, 104759, Note_on_c, 0, 86, 0
4, 104761, Note_on_c, 0, 86, 100
4, 104879, Note_on_c, 0, 86, 0
4, 104881, Note_on_c, 0, 86, 100
4, 104999, Note_on_c, 0, 86, 0
4, 105001, Note_on_c, 0, 86, 100
4, 105119, Note_on_c, 0, 86, 0
4, 105120, Note_on_c, 0, 86, 100
4, 105160, Note_on_c, 0, 86, 0
4, 105160, Note_on_c, 0, 84, 100
4, 105200, Note_on_c, 0, 84, 0
4, 105200, Note_on_c, 0, 83, 100
4, 105240, Note_on_c, 0, 83, 0
4, 105240, Note_on_c, 0, 84, 100
4, 105280, Note_on_c, 0, 84, 0
4, 105280, Note_on_c, 0, 83, 100
4, 105320, Note_on_c, 0, 83, 0
4, 105320, Note_on_c, 0, 81, 100
4, 105360, Note_on_c, 0, 81, 0
4, 105360, Note_on_c, 0, 79, 100
4, 105400, Note_on_c, 0, 79, 0
4, 105400, Note_on_c, 0, 78, 100
4, 105440, Note_on_c, 0, 78, 0
4, 105440, Note_on_c, 0, 76, 100
4, 105480, Note_on_c, 0, 76, 0
4, 105480, Note_on_c, 0, 75, 100
4, 105520, Note_on_c, 0, 75, 0
4, 105520, Note_on_c, 0, 76, 100
4, 105560, Note_on_c, 0, 76, 0
4, 105560, Note_on_c, 0, 79, 100
4, 105600, Note_on_c, 0, 79, 0
4, 105600, Note_on_c, 0, 84, 100
4, 105720, Note_on_c, 0, 84, 0
4, 105720, Note_on_c, 0, 84, 100
4, 105840, Note_on_c, 0, 84, 0
4, 105840, Note_on_c, 0, 84, 100
4, 105960, Note_on_c, 0, 84, 0
4, 105960, Note_on_c, 0, 84, 100
4, 106080, Note_on_c, 0, 84, 0
4, 106080, Note_on_c, 0, 84, 100
4, 106110, Note_on_c, 0, 84, 0
4, 106110, Note_on_c, 0, 83, 100
4, 106140, Note_on_c, 0, 83, 0
4, 106140, Note_on_c, 0, 82, 100
4, 106200, Note_on_c, 0, 82, 0
4, 106200, Note_on_c, 0, 82, 100
4, 106260, Note_on_c, 0, 82, 0
4, 106260, Note_on_c, 0, 83, 100
4, 106440, Note_on_c, 0, 83, 0
4, 106440, Note_on_c, 0, 74, 100
4, 106617, Note_on_c, 0, 73, 100
4, 106620, Note_on_c, 0, 74, 0
4, 106675, Note_on_c, 0, 73, 0
4, 106694, Note_on_c, 0, 73, 100
4, 106752, Note_on_c, 0, 73, 0
4, 106754, Note_on_c, 0, 72, 100
4, 106812, Note_on_c, 0, 72, 0
4, 106814, Note_on_c, 0, 72, 100
4, 106872, Note_on_c, 0, 72, 0
4, 106874, Note_on_c, 0, 71, 100
4, 106932, Note_on_c, 0, 71, 0
4, 106934, Note_on_c, 0, 71, 100
4, 106992, Note_on_c, 0, 71, 0
4, 106994, Note_on_c, 0, 70, 100
4, 107052, Note_on_c, 0, 70, 0
4, 107054, Note_on_c, 0, 70, 100
4, 107112, Note_on_c, 0, 70, 0
4, 107114, Note_on_c, 0, 79, 100
4, 107172, Note_on_c, 0, 79, 0
4, 107174, Note_on_c, 0, 79, 100
4, 107220, Note_on_c, 0, 78, 100
4, 107232, Note_on_c, 0, 79, 0
4, 107278, Note_on_c, 0, 78, 0
4, 107280, Note_on_c, 0, 78, 100
4, 107338, Note_on_c, 0, 78, 0
4, 107354, Note_on_c, 0, 82, 100
4, 107412, Note_on_c, 0, 82, 0
4, 107414, Note_on_c, 0, 82, 100
4, 107472, Note_on_c, 0, 82, 0
4, 107474, Note_on_c, 0, 83, 100
4, 107520, Note_on_c, 0, 83, 0
4, 107521, Note_on_c, 0, 83, 100
4, 107699, Note_on_c, 0, 83, 0
4, 107701, Note_on_c, 0, 85, 100
4, 107759, Note_on_c, 0, 85, 0
4, 107760, Note_on_c, 0, 83, 100
4, 107775, Note_on_c, 0, 83, 0
4, 107775, Note_on_c, 0, 82, 100
4, 107790, Note_on_c, 0, 82, 0
4, 107790, Note_on_c, 0, 83, 100
4, 107805, Note_on_c, 0, 83, 0
4, 107805, Note_on_c, 0, 82, 100
4, 107820, Note_on_c, 0, 82, 0
4, 107820, Note_on_c, 0, 83, 100
4, 107835, Note_on_c, 0, 83, 0
4, 107835, Note_on_c, 0, 82, 100
4, 107850, Note_on_c, 0, 82, 0
4, 107850, Note_on_c, 0, 83, 100
4, 107865, Note_on_c, 0, 83, 0
4, 107865, Note_on_c, 0, 82, 100
4, 107880, Note_on_c, 0, 82, 0
4, 107880, Note_on_c, 0, 83, 100
4, 107895, Note_on_c, 0, 83, 0
4, 107895, Note_on_c, 0, 82, 100
4, 107910, Note_on_c, 0, 82, 0
4, 107910, Note_on_c, 0, 83, 100
4, 107925, Note_on_c, 0, 83, 0
4, 107925, Note_on_c, 0, 82, 100
4, 107940, Note_on_c, 0, 82, 0
4, 107940, Note_on_c, 0, 83, 100
4, 108000, Note_on_c, 0, 83, 0
4, 108000, Note_on_c, 0, 83, 100
4, 108518, Note_on_c, 0, 83, 0
4, 108523, Note_on_c, 0, 82, 100
4, 108561, Note_on_c, 0, 82, 0
4, 108563, Note_on_c, 0, 80, 100
4, 108601, Note_on_c, 0, 80, 0
4, 108603, Note_on_c, 0, 82, 100
4, 108641, Note_on_c, 0, 82, 0
4, 108643, Note_on_c, 0, 80, 100
4, 108680, Note_on_c, 0, 78, 100
4, 108681, Note_on_c, 0, 80, 0
4, 108718, Note_on_c, 0, 78, 0
4, 108723, Note_on_c, 0, 79, 100
4, 108841, Note_on_c, 0, 79, 0
4, 108843, Note_on_c, 0, 84, 100
4, 108961, Note_on_c, 0, 84, 0
4, 108963, Note_on_c, 0, 82, 100
4, 109081, Note_on_c, 0, 82, 0
4, 109083, Note_on_c, 0, 83, 100
4, 109201, Note_on_c, 0, 83, 0
4, 109560, Note_on_c, 0, 86, 100
4, 109678, Note_on_c, 0, 86, 0
4, 109680, Note_on_c, 0, 85, 100
4, 109798, Note_on_c, 0, 85, 0
4, 109800, Note_on_c, 0, 90, 100
4, 109918, Note_on_c, 0, 90, 0
4, 109920, Note_on_c, 0, 87, 100
4, 110038, Note_on_c, 0, 87, 0
4, 110040, Note_on_c, 0, 88, 100
4, 110158, Note_on_c, 0, 88, 0
4, 110520, Note_on_c, 0, 79, 100
4, 110638, Note_on_c, 0, 79, 0
4, 110640, Note_on_c, 0, 78, 100
4, 110758, Note_on_c, 0, 78, 0
4, 110760, Note_on_c, 0, 83, 100
4, 110878, Note_on_c, 0, 83, 0
4, 110880, Note_on_c, 0, 82, 100
4, 110998, Note_on_c, 0, 82, 0
4, 111000, Note_on_c, 0, 83, 100
4, 111118, Note_on_c, 0, 83, 0
4, 111120, Note_on_c, 0, 77, 100
4, 111238, Note_on_c, 0, 77, 0
4, 111240, Note_on_c, 0, 78, 100
4, 111358, Note_on_c, 0, 78, 0
4, 111360, Note_on_c, 0, 71, 100
4, 111598, Note_on_c, 0, 71, 0
4, 111720, Note_on_c, 0, 71, 100
4, 111838, Note_on_c, 0, 71, 0
4, 111840, Note_on_c, 0, 79, 100
4, 111958, Note_on_c, 0, 79, 0
4, 111960, Note_on_c, 0, 79, 100
4, 112078, Note_on_c, 0, 79, 0
4, 112080, Note_on_c, 0, 79, 100
4, 112198, Note_on_c, 0, 79, 0
4, 112200, Note_on_c, 0, 79, 100
4, 112318, Note_on_c, 0, 79, 0
4, 112320, Note_on_c, 0, 79, 100
4, 112348, Note_on_c, 0, 79, 0
4, 112350, Note_on_c, 0, 78, 100
4, 112378, Note_on_c, 0, 78, 0
4, 112380, Note_on_c, 0, 76, 100
4, 112438, Note_on_c, 0, 76, 0
4, 112440, Note_on_c, 0, 76, 100
4, 112500, Note_on_c, 0, 76, 0
4, 112500, Note_on_c, 0, 78, 100
4, 112680, Note_on_c, 0, 78, 0
4, 112680, Note_on_c, 0, 69, 100
4, 112798, Note_on_c, 0, 69, 0
4, 112800, Note_on_c, 0, 78, 100
4, 112918, Note_on_c, 0, 78, 0
4, 112920, Note_on_c, 0, 78, 100
4, 113038, Note_on_c, 0, 78, 0
4, 113040, Note_on_c, 0, 78, 100
4, 113158, Note_on_c, 0, 78, 0
4, 113160, Note_on_c, 0, 78, 100
4, 113278, Note_on_c, 0, 78, 0
4, 113280, Note_on_c, 0, 78, 100
4, 113308, Note_on_c, 0, 78, 0
4, 113311, Note_on_c, 0, 76, 100
4, 113339, Note_on_c, 0, 76, 0
4, 113341, Note_on_c, 0, 75, 100
4, 113399, Note_on_c, 0, 75, 0
4, 113400, Note_on_c, 0, 75, 100
4, 113460, Note_on_c, 0, 75, 0
4, 113460, Note_on_c, 0, 76, 100
4, 113640, Note_on_c, 0, 76, 0
4, 113641, Note_on_c, 0, 88, 100
4, 113819, Note_on_c, 0, 88, 0
4, 113820, Note_on_c, 0, 85, 100
4, 113878, Note_on_c, 0, 85, 0
4, 113881, Note_on_c, 0, 82, 100
4, 113939, Note_on_c, 0, 82, 0
4, 113941, Note_on_c, 0, 83, 100
4, 113999, Note_on_c, 0, 83, 0
4, 114001, Note_on_c, 0, 83, 100
4, 114059, Note_on_c, 0, 83, 0
4, 114060, Note_on_c, 0, 85, 100
4, 114090, Note_on_c, 0, 85, 0
4, 114090, Note_on_c, 0, 86, 100
4, 114120, Note_on_c, 0, 86, 0
4, 114120, Note_on_c, 0, 85, 100
4, 114178, Note_on_c, 0, 85, 0
4, 114180, Note_on_c, 0, 76, 100
4, 114238, Note_on_c, 0, 76, 0
4, 114242, Note_on_c, 0, 74, 100
4, 114300, Note_on_c, 0, 74, 0
4, 114300, Note_on_c, 0, 73, 100
4, 114328, Note_on_c, 0, 73, 0
4, 114332, Note_on_c, 0, 71, 100
4, 114360, Note_on_c, 0, 71, 0
4, 114360, Note_on_c, 0, 73, 100
4, 114418, Note_on_c, 0, 73, 0
4, 114422, Note_on_c, 0, 83, 100
4, 114480, Note_on_c, 0, 83, 0
4, 114480, Note_on_c, 0, 83, 100
4, 114495, Note_on_c, 0, 83, 0
4, 114495, Note_on_c, 0, 82, 100
4, 114510, Note_on_c, 0, 82, 0
4, 114510, Note_on_c, 0, 83, 100
4, 114525, Note_on_c, 0, 83, 0
4, 114525, Note_on_c, 0, 82, 100
4, 114540, Note_on_c, 0, 82, 0
4, 114540, Note_on_c, 0, 83, 100
4, 114555, Note_on_c, 0, 83, 0
4, 114555, Note_on_c, 0, 82, 100
4, 114570, Note_on_c, 0, 82, 0
4, 114570, Note_on_c, 0, 83, 100
4, 114585, Note_on_c, 0, 83, 0
4, 114585, Note_on_c, 0, 82, 100
4, 114600, Note_on_c, 0, 82, 0
4, 114600, Note_on_c, 0, 83, 100
4, 114615, Note_on_c, 0, 83, 0
4, 114615, Note_on_c, 0, 82, 100
4, 114630, Note_on_c, 0, 82, 0
4, 114630, Note_on_c, 0, 83, 100
4, 114645, Note_on_c, 0, 83, 0
4, 114645, Note_on_c, 0, 82, 100
4, 114660, Note_on_c, 0, 82, 0
4, 114660, Note_on_c, 0, 83, 100
4, 114720, Note_on_c, 0, 83, 0
4, 114720, Note_on_c, 0, 83, 100
4, 115080, Note_on_c, 0, 83, 0
4, 115200, Note_on_c, 0, 74, 100
4, 115380, Note_on_c, 0, 74, 0
4, 115380, Note_on_c, 0, 78, 100
4, 115440, Note_on_c, 0, 78, 0
4, 115440, Note_on_c, 0, 81, 100
4, 115560, Note_on_c, 0, 81, 0
4, 115560, Note_on_c, 0, 84, 100
4, 115575, Note_on_c, 0, 84, 0
4, 115575, Note_on_c, 0, 83, 100
4, 115680, Note_on_c, 0, 83, 0
4, 115680, Note_on_c, 0, 81, 100
4, 115800, Note_on_c, 0, 81, 0
4, 115920, Note_on_c, 0, 74, 100
4, 115935, Note_on_c, 0, 74, 0
4, 115935, Note_on_c, 0, 73, 100
4, 115950, Note_on_c, 0, 73, 0
4, 115950, Note_on_c, 0, 71, 100
4, 115980, Note_on_c, 0, 71, 0
4, 115980, Note_on_c, 0, 73, 100
4, 116070, Note_on_c, 0, 73, 0
4, 116070, Note_on_c, 0, 74, 100
4, 116100, Note_on_c, 0, 74, 0
4, 116100, Note_on_c, 0, 76, 100
4, 116190, Note_on_c, 0, 76, 0
4, 116190, Note_on_c, 0, 78, 100
4, 116220, Note_on_c, 0, 78, 0
4, 116220, Note_on_c, 0, 79, 100
4, 116280, Note_on_c, 0, 79, 0
4, 116280, Note_on_c, 0, 79, 100
4, 116310, Note_on_c, 0, 79, 0
4, 116310, Note_on_c, 0, 78, 100
4, 116340, Note_on_c, 0, 78, 0
4, 116340, Note_on_c, 0, 76, 100
4, 116370, Note_on_c, 0, 76, 0
4, 116370, Note_on_c, 0, 74, 100
4, 116400, Note_on_c, 0, 74, 0
4, 116400, Note_on_c, 0, 74, 100
4, 116640, Note_on_c, 0, 74, 0
4, 116640, Note_on_c, 0, 74, 100
4, 116820, Note_on_c, 0, 74, 0
4, 116820, Note_on_c, 0, 78, 100
4, 116880, Note_on_c, 0, 78, 0
4, 116880, Note_on_c, 0, 81, 100
4, 117000, Note_on_c, 0, 81, 0
4, 117000, Note_on_c, 0, 81, 100
4, 117015, Note_on_c, 0, 81, 0
4, 117015, Note_on_c, 0, 83, 100
4, 117030, Note_on_c, 0, 83, 0
4, 117030, Note_on_c, 0, 84, 100
4, 117120, Note_on_c, 0, 84, 0
4, 117120, Note_on_c, 0, 83, 100
4, 117240, Note_on_c, 0, 83, 0
4, 117360, Note_on_c, 0, 76, 100
4, 117375, Note_on_c, 0, 76, 0
4, 117375, Note_on_c, 0, 75, 100
4, 117390, Note_on_c, 0, 75, 0
4, 117390, Note_on_c, 0, 73, 100
4, 117420, Note_on_c, 0, 73, 0
4, 117420, Note_on_c, 0, 75, 100
4, 117510, Note_on_c, 0, 75, 0
4, 117510, Note_on_c, 0, 76, 100
4, 117540, Note_on_c, 0, 76, 0
4, 117540, Note_on_c, 0, 78, 100
4, 117630, Note_on_c, 0, 78, 0
4, 117630, Note_on_c, 0, 79, 100
4, 117660, Note_on_c, 0, 79, 0
4, 117660, Note_on_c, 0, 81, 100
4, 117720, Note_on_c, 0, 81, 0
4, 117720, Note_on_c, 0, 81, 100
4, 117750, Note_on_c, 0, 81, 0
4, 117750, Note_on_c, 0, 79, 100
4, 117780, Note_on_c, 0, 79, 0
4, 117780, Note_on_c, 0, 78, 100
4, 117810, Note_on_c, 0, 78, 0
4, 117810, Note_on_c, 0, 76, 100
4, 117840, Note_on_c, 0, 76, 0
4, 117840, Note_on_c, 0, 76, 100
4, 118080, Note_on_c, 0, 76, 0
4, 118080, Note_on_c, 0, 79, 100
4, 118140, Note_on_c, 0, 79, 0
4, 118140, Note_on_c, 0, 79, 100
4, 118260, Note_on_c, 0, 79, 0
4, 118260, Note_on_c, 0, 79, 100
4, 118380, Note_on_c, 0, 79, 0
4, 118380, Note_on_c, 0, 79, 100
4, 118500, Note_on_c, 0, 79, 0
4, 118500, Note_on_c, 0, 69, 100
4, 118530, Note_on_c, 0, 69, 0
4, 118530, Note_on_c, 0, 71, 100
4, 118560, Note_on_c, 0, 71, 0
4, 118560, Note_on_c, 0, 73, 100
4, 118590, Note_on_c, 0, 73, 0
4, 118590, Note_on_c, 0, 74, 100
4, 118620, Note_on_c, 0, 74, 0
4, 118620, Note_on_c, 0, 76, 100
4, 118650, Note_on_c, 0, 76, 0
4, 118650, Note_on_c, 0, 78, 100
4, 118680, Note_on_c, 0, 78, 0
4, 118680, Note_on_c, 0, 79, 100
4, 118710, Note_on_c, 0, 79, 0
4, 118710, Note_on_c, 0, 78, 100
4, 118740, Note_on_c, 0, 78, 0
4, 118740, Note_on_c, 0, 79, 100
4, 118770, Note_on_c, 0, 79, 0
4, 118770, Note_on_c, 0, 76, 100
4, 118800, Note_on_c, 0, 76, 0
4, 118800, Note_on_c, 0, 78, 100
4, 118830, Note_on_c, 0, 78, 0
4, 118830, Note_on_c, 0, 80, 100
4, 118860, Note_on_c, 0, 80, 0
4, 118860, Note_on_c, 0, 78, 100
4, 118890, Note_on_c, 0, 78, 0
4, 118890, Note_on_c, 0, 80, 100
4, 118920, Note_on_c, 0, 80, 0
4, 118920, Note_on_c, 0, 80, 100
4, 118935, Note_on_c, 0, 80, 0
4, 118935, Note_on_c, 0, 81, 100
4, 118950, Note_on_c, 0, 81, 0
4, 118950, Note_on_c, 0, 80, 100
4, 118965, Note_on_c, 0, 80, 0
4, 118965, Note_on_c, 0, 81, 100
4, 118980, Note_on_c, 0, 81, 0
4, 118980, Note_on_c, 0, 80, 100
4, 118995, Note_on_c, 0, 80, 0
4, 118995, Note_on_c, 0, 81, 100
4, 119010, Note_on_c, 0, 81, 0
4, 119010, Note_on_c, 0, 80, 100
4, 119025, Note_on_c, 0, 80, 0
4, 119025, Note_on_c, 0, 81, 100
4, 119040, Note_on_c, 0, 81, 0
4, 119040, Note_on_c, 0, 80, 100
4, 119055, Note_on_c, 0, 80, 0
4, 119055, Note_on_c, 0, 81, 100
4, 119070, Note_on_c, 0, 81, 0
4, 119070, Note_on_c, 0, 80, 100
4, 119085, Note_on_c, 0, 80, 0
4, 119085, Note_on_c, 0, 81, 100
4, 119100, Note_on_c, 0, 81, 0
4, 119100, Note_on_c, 0, 80, 100
4, 119115, Note_on_c, 0, 80, 0
4, 119115, Note_on_c, 0, 81, 100
4, 119130, Note_on_c, 0, 81, 0
4, 119145, Note_on_c, 0, 81, 100
4, 119280, Note_on_c, 0, 81, 0
4, 119310, Note_on_c, 0, 80, 100
4, 119340, Note_on_c, 0, 80, 0
4, 119340, Note_on_c, 0, 81, 100
4, 119370, Note_on_c, 0, 81, 0
4, 119370, Note_on_c, 0, 83, 100
4, 119400, Note_on_c, 0, 83, 0
4, 119400, Note_on_c, 0, 81, 100
4, 119430, Note_on_c, 0, 81, 0
4, 119430, Note_on_c, 0, 80, 100
4, 119460, Note_on_c, 0, 80, 0
4, 119460, Note_on_c, 0, 78, 100
4, 119490, Note_on_c, 0, 78, 0
4, 119490, Note_on_c, 0, 76, 100
4, 119520, Note_on_c, 0, 76, 0
4, 119520, Note_on_c, 0, 74, 100
4, 119550, Note_on_c, 0, 74, 0
4, 119550, Note_on_c, 0, 73, 100
4, 119580, Note_on_c, 0, 73, 0
4, 119580, Note_on_c, 0, 74, 100
4, 119700, Note_on_c, 0, 74, 0
4, 119700, Note_on_c, 0, 74, 100
4, 119790, Note_on_c, 0, 74, 0
4, 119790, Note_on_c, 0, 76, 100
4, 119820, Note_on_c, 0, 76, 0
4, 119820, Note_on_c, 0, 74, 100
4, 119850, Note_on_c, 0, 74, 0
4, 119850, Note_on_c, 0, 73, 100
4, 119880, Note_on_c, 0, 73, 0
4, 119880, Note_on_c, 0, 74, 100
4, 119940, Note_on_c, 0, 74, 0
4, 119940, Note_on_c, 0, 83, 100
4, 120030, Note_on_c, 0, 83, 0
4, 120030, Note_on_c, 0, 86, 100
4, 120060, Note_on_c, 0, 86, 0
4, 120060, Note_on_c, 0, 85, 100
4, 120090, Note_on_c, 0, 85, 0
4, 120090, Note_on_c, 0, 83, 100
4, 120120, Note_on_c, 0, 83, 0
4, 120120, Note_on_c, 0, 81, 100
4, 120150, Note_on_c, 0, 81, 0
4, 120150, Note_on_c, 0, 80, 100
4, 120180, Note_on_c, 0, 80, 0
4, 120180, Note_on_c, 0, 78, 100
4, 120210, Note_on_c, 0, 78, 0
4, 120210, Note_on_c, 0, 76, 100
4, 120240, Note_on_c, 0, 76, 0
4, 120240, Note_on_c, 0, 81, 100
4, 120300, Note_on_c, 0, 81, 0
4, 120300, Note_on_c, 0, 73, 100
4, 120360, Note_on_c, 0, 73, 0
4, 120360, Note_on_c, 0, 73, 100
4, 120375, Note_on_c, 0, 73, 0
4, 120375, Note_on_c, 0, 74, 100
4, 120480, Note_on_c, 0, 74, 0
4, 120480, Note_on_c, 0, 73, 100
4, 120510, Note_on_c, 0, 73, 0
4, 120510, Note_on_c, 0, 71, 100
4, 120540, Note_on_c, 0, 71, 0
4, 120540, Note_on_c, 0, 69, 100
4, 120570, Note_on_c, 0, 69, 0
4, 120570, Note_on_c, 0, 71, 100
4, 120600, Note_on_c, 0, 71, 0
4, 120600, Note_on_c, 0, 69, 100
4, 120960, Note_on_c, 0, 69, 0
4, 120960, Note_on_c, 0, 74, 100
4, 120960, Control_c, 0, 11, 127
4, 120960, Control_c, 0, 8, 64
4, 121140, Note_on_c, 0, 74, 0
4, 121140, Note_on_c, 0, 78, 100
4, 121200, Note_on_c, 0, 78, 0
4, 121200, Note_on_c, 0, 81, 100
4, 121320, Note_on_c, 0, 81, 0
4, 121320, Note_on_c, 0, 84, 100
4, 121335, Note_on_c, 0, 84, 0
4, 121335, Note_on_c, 0, 83, 100
4, 121440, Note_on_c, 0, 83, 0
4, 121440, Note_on_c, 0, 81, 100
4, 121560, Note_on_c, 0, 81, 0
4, 121680, Note_on_c, 0, 74, 100
4, 121695, Note_on_c, 0, 74, 0
4, 121695, Note_on_c, 0, 73, 100
4, 121710, Note_on_c, 0, 73, 0
4, 121710, Note_on_c, 0, 71, 100
4, 121740, Note_on_c, 0, 71, 0
4, 121740, Note_on_c, 0, 73, 100
4, 121830, Note_on_c, 0, 73, 0
4, 121830, Note_on_c, 0, 74, 100
4, 121860, Note_on_c, 0, 74, 0
4, 121860, Note_on_c, 0, 76, 100
4, 121950, Note_on_c, 0, 76, 0
4, 121950, Note_on_c, 0, 78, 100
4, 121980, Note_on_c, 0, 78, 0
4, 121980, Note_on_c, 0, 79, 100
4, 122040, Note_on_c, 0, 79, 0
4, 122040, Note_on_c, 0, 79, 100
4, 122070, Note_on_c, 0, 79, 0
4, 122070, Note_on_c, 0, 78, 100
4, 122100, Note_on_c, 0, 78, 0
4, 122100, Note_on_c, 0, 76, 100
4, 122130, Note_on_c, 0, 76, 0
4, 122130, Note_on_c, 0, 74, 100
4, 122160, Note_on_c, 0, 74, 0
4, 122160, Note_on_c, 0, 74, 100
4, 122400, Note_on_c, 0, 74, 0
4, 122400, Note_on_c, 0, 74, 100
4, 122580, Note_on_c, 0, 74, 0
4, 122580, Note_on_c, 0, 78, 100
4, 122640, Note_on_c, 0, 78, 0
4, 122640, Note_on_c, 0, 81, 100
4, 122760, Note_on_c, 0, 81, 0
4, 122760, Note_on_c, 0, 81, 100
4, 122775, Note_on_c, 0, 81, 0
4, 122775, Note_on_c, 0, 83, 100
4, 122790, Note_on_c, 0, 83, 0
4, 122790, Note_on_c, 0, 84, 100
4, 122880, Note_on_c, 0, 84, 0
4, 122880, Note_on_c, 0, 83, 100
4, 123000, Note_on_c, 0, 83, 0
4, 123120, Note_on_c, 0, 76, 100
4, 123135, Note_on_c, 0, 76, 0
4, 123135, Note_on_c, 0, 75, 100
4, 123150, Note_on_c, 0, 75, 0
4, 123150, Note_on_c, 0, 73, 100
4, 123180, Note_on_c, 0, 73, 0
4, 123180, Note_on_c, 0, 75, 100
4, 123270, Note_on_c, 0, 75, 0
4, 123270, Note_on_c, 0, 76, 100
4, 123300, Note_on_c, 0, 76, 0
4, 123300, Note_on_c, 0, 78, 100
4, 123390, Note_on_c, 0, 78, 0
4, 123390, Note_on_c, 0, 79, 100
4, 123420, Note_on_c, 0, 79, 0
4, 123420, Note_on_c, 0, 81, 100
4, 123480, Note_on_c, 0, 81, 0
4, 123480, Note_on_c, 0, 81, 100
4, 123510, Note_on_c, 0, 81, 0
4, 123510, Note_on_c, 0, 79, 100
4, 123540, Note_on_c, 0, 79, 0
4, 123540, Note_on_c, 0, 78, 100
4, 123570, Note_on_c, 0, 78, 0
4, 123570, Note_on_c, 0, 76, 100
4, 123600, Note_on_c, 0, 76, 0
4, 123600, Note_on_c, 0, 76, 100
4, 123840, Note_on_c, 0, 76, 0
4, 123840, Note_on_c, 0, 79, 100
4, 123900, Note_on_c, 0, 79, 0
4, 123900, Note_on_c, 0, 79, 100
4, 124020, Note_on_c, 0, 79, 0
4, 124020, Note_on_c, 0, 79, 100
4, 124140, Note_on_c, 0, 79, 0
4, 124140, Note_on_c, 0, 79, 100
4, 124260, Note_on_c, 0, 79, 0
4, 124260, Note_on_c, 0, 69, 100
4, 124290, Note_on_c, 0, 69, 0
4, 124290, Note_on_c, 0, 71, 100
4, 124320, Note_on_c, 0, 71, 0
4, 124320, Note_on_c, 0, 73, 100
4, 124350, Note_on_c, 0, 73, 0
4, 124350, Note_on_c, 0, 74, 100
4, 124380, Note_on_c, 0, 74, 0
4, 124380, Note_on_c, 0, 76, 100
4, 124410, Note_on_c, 0, 76, 0
4, 124410, Note_on_c, 0, 78, 100
4, 124440, Note_on_c, 0, 78, 0
4, 124440, Note_on_c, 0, 79, 100
4, 124470, Note_on_c, 0, 79, 0
4, 124470, Note_on_c, 0, 78, 100
4, 124500, Note_on_c, 0, 78, 0
4, 124500, Note_on_c, 0, 79, 100
4, 124530, Note_on_c, 0, 79, 0
4, 124530, Note_on_c, 0, 76, 100
4, 124560, Note_on_c, 0, 76, 0
4, 124560, Note_on_c, 0, 78, 100
4, 124590, Note_on_c, 0, 78, 0
4, 124590, Note_on_c, 0, 80, 100
4, 124620, Note_on_c, 0, 80, 0
4, 124620, Note_on_c, 0, 78, 100
4, 124650, Note_on_c, 0, 78, 0
4, 124650, Note_on_c, 0, 80, 100
4, 124680, Note_on_c, 0, 80, 0
4, 124680, Note_on_c, 0, 80, 100
4, 124695, Note_on_c, 0, 80, 0
4, 124695, Note_on_c, 0, 81, 100
4, 124710, Note_on_c, 0, 81, 0
4, 124710, Note_on_c, 0, 80, 100
4, 124725, Note_on_c, 0, 80, 0
4, 124725, Note_on_c, 0, 81, 100
4, 124740, Note_on_c, 0, 81, 0
4, 124740, Note_on_c, 0, 80, 100
4, 124755, Note_on_c, 0, 80, 0
4, 124755, Note_on_c, 0, 81, 100
4, 124770, Note_on_c, 0, 81, 0
4, 124770, Note_on_c, 0, 80, 100
4, 124785, Note_on_c, 0, 80, 0
4, 124785, Note_on_c, 0, 81, 100
4, 124800, Note_on_c, 0, 81, 0
4, 124800, Note_on_c, 0, 80, 100
4, 124815, Note_on_c, 0, 80, 0
4, 124815, Note_on_c, 0, 81, 100
4, 124830, Note_on_c, 0, 81, 0
4, 124830, Note_on_c, 0, 80, 100
4, 124845, Note_on_c, 0, 80, 0
4, 124845, Note_on_c, 0, 81, 100
4, 124860, Note_on_c, 0, 81, 0
4, 124860, Note_on_c, 0, 80, 100
4, 124875, Note_on_c, 0, 80, 0
4, 124875, Note_on_c, 0, 81, 100
4, 124890, Note_on_c, 0, 81, 0
4, 124905, Note_on_c, 0, 81, 100
4, 125040, Note_on_c, 0, 81, 0
4, 125070, Note_on_c, 0, 80, 100
4, 125100, Note_on_c, 0, 80, 0
4, 125100, Note_on_c, 0, 81, 100
4, 125130, Note_on_c, 0, 81, 0
4, 125130, Note_on_c, 0, 83, 100
4, 125160, Note_on_c, 0, 83, 0
4, 125160, Note_on_c, 0, 81, 100
4, 125190, Note_on_c, 0, 81, 0
4, 125190, Note_on_c, 0, 80, 100
4, 125220, Note_on_c, 0, 80, 0
4, 125220, Note_on_c, 0, 78, 100
4, 125250, Note_on_c, 0, 78, 0
4, 125250, Note_on_c, 0, 76, 100
4, 125280, Note_on_c, 0, 76, 0
4, 125280, Note_on_c, 0, 74, 100
4, 125310, Note_on_c, 0, 74, 0
4, 125310, Note_on_c, 0, 73, 100
4, 125340, Note_on_c, 0, 73, 0
4, 125340, Note_on_c, 0, 74, 100
4, 125460, Note_on_c, 0, 74, 0
4, 125460, Note_on_c, 0, 74, 100
4, 125550, Note_on_c, 0, 74, 0
4, 125550, Note_on_c, 0, 76, 100
4, 125580, Note_on_c, 0, 76, 0
4, 125580, Note_on_c, 0, 74, 100
4, 125610, Note_on_c, 0, 74, 0
4, 125610, Note_on_c, 0, 73, 100
4, 125640, Note_on_c, 0, 73, 0
4, 125640, Note_on_c, 0, 74, 100
4, 125700, Note_on_c, 0, 74, 0
4, 125700, Note_on_c, 0, 83, 100
4, 125790, Note_on_c, 0, 83, 0
4, 125790, Note_on_c, 0, 86, 100
4, 125820, Note_on_c, 0, 86, 0
4, 125820, Note_on_c, 0, 85, 100
4, 125850, Note_on_c, 0, 85, 0
4, 125850, Note_on_c, 0, 83, 100
4, 125880, Note_on_c, 0, 83, 0
4, 125880, Note_on_c, 0, 81, 100
4, 125910, Note_on_c, 0, 81, 0
4, 125910, Note_on_c, 0, 80, 100
4, 125940, Note_on_c, 0, 80, 0
4, 125940, Note_on_c, 0, 78, 100
4, 125970, Note_on_c, 0, 78, 0
4, 125970, Note_on_c, 0, 76, 100
4, 126000, Note_on_c, 0, 76, 0
4, 126000, Note_on_c, 0, 81, 100
4, 126060, Note_on_c, 0, 81, 0
4, 126060, Note_on_c, 0, 73, 100
4, 126120, Note_on_c, 0, 73, 0
4, 126120, Note_on_c, 0, 73, 100
4, 126135, Note_on_c, 0, 73, 0
4, 126135, Note_on_c, 0, 74, 100
4, 126240, Note_on_c, 0, 74, 0
4, 126240, Note_on_c, 0, 73, 100
4, 126270, Note_on_c, 0, 73, 0
4, 126270, Note_on_c, 0, 71, 100
4, 126300, Note_on_c, 0, 71, 0
4, 126300, Note_on_c, 0, 69, 100
4, 126330, Note_on_c, 0, 69, 0
4, 126330, Note_on_c, 0, 71, 100
4, 126360, Note_on_c, 0, 71, 0
4, 126360, Note_on_c, 0, 69, 100
4, 126720, Note_on_c, 0, 69, 0
4, 126720, Note_on_c, 0, 69, 100
4, 126900, Note_on_c, 0, 69, 0
4, 126900, Note_on_c, 0, 73, 100
4, 126960, Note_on_c, 0, 73, 0
4, 126960, Note_on_c, 0, 76, 100
4, 127080, Note_on_c, 0, 76, 0
4, 127080, Note_on_c, 0, 76, 100
4, 127095, Note_on_c, 0, 76, 0
4, 127095, Note_on_c, 0, 78, 100
4, 127110, Note_on_c, 0, 78, 0
4, 127110, Note_on_c, 0, 79, 100
4, 127200, Note_on_c, 0, 79, 0
4, 127200, Note_on_c, 0, 78, 100
4, 127320, Note_on_c, 0, 78, 0
4, 127440, Note_on_c, 0, 70, 100
4, 127470, Note_on_c, 0, 70, 0
4, 127470, Note_on_c, 0, 79, 100
4, 127500, Note_on_c, 0, 79, 0
4, 127500, Note_on_c, 0, 78, 100
4, 127530, Note_on_c, 0, 78, 0
4, 127530, Note_on_c, 0, 76, 100
4, 127560, Note_on_c, 0, 76, 0
4, 127560, Note_on_c, 0, 76, 100
4, 127575, Note_on_c, 0, 76, 0
4, 127575, Note_on_c, 0, 85, 100
4, 127650, Note_on_c, 0, 85, 0
4, 127650, Note_on_c, 0, 83, 100
4, 127680, Note_on_c, 0, 83, 0
4, 127680, Note_on_c, 0, 82, 100
4, 127710, Note_on_c, 0, 82, 0
4, 127710, Note_on_c, 0, 79, 100
4, 127740, Note_on_c, 0, 79, 0
4, 127740, Note_on_c, 0, 78, 100
4, 127770, Note_on_c, 0, 78, 0
4, 127770, Note_on_c, 0, 76, 100
4, 127800, Note_on_c, 0, 76, 0
4, 127800, Note_on_c, 0, 74, 100
4, 127830, Note_on_c, 0, 74, 0
4, 127830, Note_on_c, 0, 73, 100
4, 127860, Note_on_c, 0, 73, 0
4, 127860, Note_on_c, 0, 74, 100
4, 127890, Note_on_c, 0, 74, 0
4, 127890, Note_on_c, 0, 73, 100
4, 127920, Note_on_c, 0, 73, 0
4, 127920, Note_on_c, 0, 71, 100
4, 128160, Note_on_c, 0, 71, 0
4, 128160, Note_on_c, 0, 79, 100
4, 128190, Note_on_c, 0, 79, 0
4, 128190, Note_on_c, 0, 81, 100
4, 128220, Note_on_c, 0, 81, 0
4, 128220, Note_on_c, 0, 79, 100
4, 128250, Note_on_c, 0, 79, 0
4, 128250, Note_on_c, 0, 78, 100
4, 128280, Note_on_c, 0, 78, 0
4, 128280, Note_on_c, 0, 79, 100
4, 128310, Note_on_c, 0, 79, 0
4, 128310, Note_on_c, 0, 78, 100
4, 128340, Note_on_c, 0, 78, 0
4, 128340, Note_on_c, 0, 77, 100
4, 128370, Note_on_c, 0, 77, 0
4, 128370, Note_on_c, 0, 78, 100
4, 128400, Note_on_c, 0, 78, 0
4, 128400, Note_on_c, 0, 78, 100
4, 128460, Note_on_c, 0, 78, 0
4, 128460, Note_on_c, 0, 86, 100
4, 128520, Note_on_c, 0, 86, 0
4, 128520, Note_on_c, 0, 86, 100
4, 128550, Note_on_c, 0, 86, 0
4, 128550, Note_on_c, 0, 84, 100
4, 128580, Note_on_c, 0, 84, 0
4, 128580, Note_on_c, 0, 83, 100
4, 128610, Note_on_c, 0, 83, 0
4, 128610, Note_on_c, 0, 84, 100
4, 128640, Note_on_c, 0, 84, 0
4, 128640, Note_on_c, 0, 84, 100
4, 128670, Note_on_c, 0, 84, 0
4, 128670, Note_on_c, 0, 83, 100
4, 128700, Note_on_c, 0, 83, 0
4, 128700, Note_on_c, 0, 82, 100
4, 128730, Note_on_c, 0, 82, 0
4, 128730, Note_on_c, 0, 83, 100
4, 128760, Note_on_c, 0, 83, 0
4, 128760, Note_on_c, 0, 82, 100
4, 128820, Note_on_c, 0, 82, 0
4, 128820, Note_on_c, 0, 91, 100
4, 128880, Note_on_c, 0, 91, 0
4, 128880, Note_on_c, 0, 90, 100
4, 128910, Note_on_c, 0, 90, 0
4, 128910, Note_on_c, 0, 86, 100
4, 128940, Note_on_c, 0, 86, 0
4, 128940, Note_on_c, 0, 85, 100
4, 128970, Note_on_c, 0, 85, 0
4, 128970, Note_on_c, 0, 83, 100
4, 129000, Note_on_c, 0, 83, 0
4, 129000, Note_on_c, 0, 86, 100
4, 129120, Note_on_c, 0, 86, 0
4, 129120, Note_on_c, 0, 85, 100
4, 129135, Note_on_c, 0, 85, 0
4, 129135, Note_on_c, 0, 86, 100
4, 129150, Note_on_c, 0, 86, 0
4, 129150, Note_on_c, 0, 85, 100
4, 129165, Note_on_c, 0, 85, 0
4, 129165, Note_on_c, 0, 86, 100
4, 129180, Note_on_c, 0, 86, 0
4, 129180, Note_on_c, 0, 85, 100
4, 129195, Note_on_c, 0, 85, 0
4, 129195, Note_on_c, 0, 86, 100
4, 129210, Note_on_c, 0, 86, 0
4, 129210, Note_on_c, 0, 83, 100
4, 129225, Note_on_c, 0, 83, 0
4, 129240, Note_on_c, 0, 83, 100
4, 129480, Note_on_c, 0, 83, 0
4, 129600, Note_on_c, 0, 80, 100
4, 129660, Note_on_c, 0, 80, 0
4, 129660, Note_on_c, 0, 80, 100
4, 129780, Note_on_c, 0, 80, 0
4, 129780, Note_on_c, 0, 80, 100
4, 129900, Note_on_c, 0, 80, 0
4, 129900, Note_on_c, 0, 80, 100
4, 129990, Note_on_c, 0, 80, 0
4, 129990, Note_on_c, 0, 83, 100
4, 130020, Note_on_c, 0, 83, 0
4, 130020, Note_on_c, 0, 81, 100
4, 130050, Note_on_c, 0, 81, 0
4, 130050, Note_on_c, 0, 80, 100
4, 130080, Note_on_c, 0, 80, 0
4, 130080, Note_on_c, 0, 81, 100
4, 130110, Note_on_c, 0, 81, 0
4, 130110, Note_on_c, 0, 80, 100
4, 130140, Note_on_c, 0, 80, 0
4, 130140, Note_on_c, 0, 78, 100
4, 130170, Note_on_c, 0, 78, 0
4, 130170, Note_on_c, 0, 76, 100
4, 130200, Note_on_c, 0, 76, 0
4, 130200, Note_on_c, 0, 74, 100
4, 130230, Note_on_c, 0, 74, 0
4, 130230, Note_on_c, 0, 73, 100
4, 130260, Note_on_c, 0, 73, 0
4, 130260, Note_on_c, 0, 71, 100
4, 130290, Note_on_c, 0, 71, 0
4, 130290, Note_on_c, 0, 69, 100
4, 130320, Note_on_c, 0, 69, 0
4, 130320, Note_on_c, 0, 74, 100
4, 130350, Note_on_c, 0, 74, 0
4, 130350, Note_on_c, 0, 76, 100
4, 130380, Note_on_c, 0, 76, 0
4, 130380, Note_on_c, 0, 78, 100
4, 130470, Note_on_c, 0, 78, 0
4, 130470, Note_on_c, 0, 79, 100
4, 130500, Note_on_c, 0, 79, 0
4, 130500, Note_on_c, 0, 81, 100
4, 130590, Note_on_c, 0, 81, 0
4, 130590, Note_on_c, 0, 84, 100
4, 130620, Note_on_c, 0, 84, 0
4, 130620, Note_on_c, 0, 83, 100
4, 130650, Note_on_c, 0, 83, 0
4, 130650, Note_on_c, 0, 81, 100
4, 130680, Note_on_c, 0, 81, 0
4, 130680, Note_on_c, 0, 86, 100
4, 130710, Note_on_c, 0, 86, 0
4, 130710, Note_on_c, 0, 83, 100
4, 130740, Note_on_c, 0, 83, 0
4, 130740, Note_on_c, 0, 84, 100
4, 130770, Note_on_c, 0, 84, 0
4, 130770, Note_on_c, 0, 81, 100
4, 130800, Note_on_c, 0, 81, 0
4, 130800, Note_on_c, 0, 79, 100
4, 131040, Note_on_c, 0, 79, 0
4, 131040, Note_on_c, 0, 88, 100
4, 131100, Note_on_c, 0, 88, 0
4, 131100, Note_on_c, 0, 85, 100
4, 131220, Note_on_c, 0, 85, 0
4, 131220, Note_on_c, 0, 82, 100
4, 131340, Note_on_c, 0, 82, 0
4, 131340, Note_on_c, 0, 79, 100
4, 131460, Note_on_c, 0, 79, 0
4, 131460, Note_on_c, 0, 76, 100
4, 131580, Note_on_c, 0, 76, 0
4, 131580, Note_on_c, 0, 74, 100
4, 131610, Note_on_c, 0, 74, 0
4, 131610, Note_on_c, 0, 73, 100
4, 131640, Note_on_c, 0, 73, 0
4, 131640, Note_on_c, 0, 74, 100
4, 131670, Note_on_c, 0, 74, 0
4, 131670, Note_on_c, 0, 73, 100
4, 131700, Note_on_c, 0, 73, 0
4, 131700, Note_on_c, 0, 71, 100
4, 131730, Note_on_c, 0, 71, 0
4, 131730, Note_on_c, 0, 69, 100
4, 131760, Note_on_c, 0, 69, 0
4, 131760, Note_on_c, 0, 81, 100
4, 131880, Note_on_c, 0, 81, 0
4, 131880, Note_on_c, 0, 79, 100
4, 131940, Note_on_c, 0, 79, 0
4, 131940, Note_on_c, 0, 78, 100
4, 132000, Note_on_c, 0, 78, 0
4, 132000, Note_on_c, 0, 76, 100
4, 132030, Note_on_c, 0, 76, 0
4, 132030, Note_on_c, 0, 79, 100
4, 132060, Note_on_c, 0, 79, 0
4, 132060, Note_on_c, 0, 78, 100
4, 132120, Note_on_c, 0, 78, 0
4, 132120, Note_on_c, 0, 76, 100
4, 132180, Note_on_c, 0, 76, 0
4, 132180, Note_on_c, 0, 74, 100
4, 132480, Note_on_c, 0, 74, 0
4, 132480, Note_on_c, 0, 69, 100
4, 132660, Note_on_c, 0, 69, 0
4, 132660, Note_on_c, 0, 73, 100
4, 132720, Note_on_c, 0, 73, 0
4, 132720, Note_on_c, 0, 76, 100
4, 132840, Note_on_c, 0, 76, 0
4, 132840, Note_on_c, 0, 76, 100
4, 132855, Note_on_c, 0, 76, 0
4, 132855, Note_on_c, 0, 78, 100
4, 132870, Note_on_c, 0, 78, 0
4, 132870, Note_on_c, 0, 79, 100
4, 132960, Note_on_c, 0, 79, 0
4, 132960, Note_on_c, 0, 78, 100
4, 133080, Note_on_c, 0, 78, 0
4, 133200, Note_on_c, 0, 70, 100
4, 133230, Note_on_c, 0, 70, 0
4, 133230, Note_on_c, 0, 79, 100
4, 133260, Note_on_c, 0, 79, 0
4, 133260, Note_on_c, 0, 78, 100
4, 133290, Note_on_c, 0, 78, 0
4, 133290, Note_on_c, 0, 76, 100
4, 133320, Note_on_c, 0, 76, 0
4, 133320, Note_on_c, 0, 76, 100
4, 133335, Note_on_c, 0, 76, 0
4, 133335, Note_on_c, 0, 85, 100
4, 133410, Note_on_c, 0, 85, 0
4, 133410, Note_on_c, 0, 83, 100
4, 133440, Note_on_c, 0, 83, 0
4, 133440, Note_on_c, 0, 82, 100
4, 133470, Note_on_c, 0, 82, 0
4, 133470, Note_on_c, 0, 79, 100
4, 133500, Note_on_c, 0, 79, 0
4, 133500, Note_on_c, 0, 78, 100
4, 133530, Note_on_c, 0, 78, 0
4, 133530, Note_on_c, 0, 76, 100
4, 133560, Note_on_c, 0, 76, 0
4, 133560, Note_on_c, 0, 74, 100
4, 133590, Note_on_c, 0, 74, 0
4, 133590, Note_on_c, 0, 73, 100
4, 133620, Note_on_c, 0, 73, 0
4, 133620, Note_on_c, 0, 74, 100
4, 133650, Note_on_c, 0, 74, 0
4, 133650, Note_on_c, 0, 73, 100
4, 133680, Note_on_c, 0, 73, 0
4, 133680, Note_on_c, 0, 71, 100
4, 133920, Note_on_c, 0, 71, 0
4, 133920, Note_on_c, 0, 79, 100
4, 133950, Note_on_c, 0, 79, 0
4, 133950, Note_on_c, 0, 81, 100
4, 133980, Note_on_c, 0, 81, 0
4, 133980, Note_on_c, 0, 79, 100
4, 134010, Note_on_c, 0, 79, 0
4, 134010, Note_on_c, 0, 78, 100
4, 134040, Note_on_c, 0, 78, 0
4, 134040, Note_on_c, 0, 79, 100
4, 134070, Note_on_c, 0, 79, 0
4, 134070, Note_on_c, 0, 78, 100
4, 134100, Note_on_c, 0, 78, 0
4, 134100, Note_on_c, 0, 77, 100
4, 134130, Note_on_c, 0, 77, 0
4, 134130, Note_on_c, 0, 78, 100
4, 134160, Note_on_c, 0, 78, 0
4, 134160, Note_on_c, 0, 78, 100
4, 134220, Note_on_c, 0, 78, 0
4, 134220, Note_on_c, 0, 86, 100
4, 134280, Note_on_c, 0, 86, 0
4, 134280, Note_on_c, 0, 86, 100
4, 134310, Note_on_c, 0, 86, 0
4, 134310, Note_on_c, 0, 84, 100
4, 134340, Note_on_c, 0, 84, 0
4, 134340, Note_on_c, 0, 83, 100
4, 134370, Note_on_c, 0, 83, 0
4, 134370, Note_on_c, 0, 84, 100
4, 134400, Note_on_c, 0, 84, 0
4, 134400, Note_on_c, 0, 84, 100
4, 134430, Note_on_c, 0, 84, 0
4, 134430, Note_on_c, 0, 83, 100
4, 134460, Note_on_c, 0, 83, 0
4, 134460, Note_on_c, 0, 82, 100
4, 134490, Note_on_c, 0, 82, 0
4, 134490, Note_on_c, 0, 83, 100
4, 134520, Note_on_c, 0, 83, 0
4, 134520, Note_on_c, 0, 82, 100
4, 134580, Note_on_c, 0, 82, 0
4, 134580, Note_on_c, 0, 91, 100
4, 134640, Note_on_c, 0, 91, 0
4, 134640, Note_on_c, 0, 90, 100
4, 134670, Note_on_c, 0, 90, 0
4, 134670, Note_on_c, 0, 86, 100
4, 134700, Note_on_c, 0, 86, 0
4, 134700, Note_on_c, 0, 85, 100
4, 134730, Note_on_c, 0, 85, 0
4, 134730, Note_on_c, 0, 83, 100
4, 134760, Note_on_c, 0, 83, 0
4, 134760, Note_on_c, 0, 86, 100
4, 134880, Note_on_c, 0, 86, 0
4, 134880, Note_on_c, 0, 85, 100
4, 134895, Note_on_c, 0, 85, 0
4, 134895, Note_on_c, 0, 86, 100
4, 134910, Note_on_c, 0, 86, 0
4, 134910, Note_on_c, 0, 85, 100
4, 134925, Note_on_c, 0, 85, 0
4, 134925, Note_on_c, 0, 86, 100
4, 134940, Note_on_c, 0, 86, 0
4, 134940, Note_on_c, 0, 85, 100
4, 134955, Note_on_c, 0, 85, 0
4, 134955, Note_on_c, 0, 86, 100
4, 134970, Note_on_c, 0, 86, 0
4, 134970, Note_on_c, 0, 83, 100
4, 134985, Note_on_c, 0, 83, 0
4, 135000, Note_on_c, 0, 83, 100
4, 135240, Note_on_c, 0, 83, 0
4, 135360, Note_on_c, 0, 80, 100
4, 135420, Note_on_c, 0, 80, 0
4, 135420, Note_on_c, 0, 80, 100
4, 135540, Note_on_c, 0, 80, 0
4, 135540, Note_on_c, 0, 80, 100
4, 135660, Note_on_c, 0, 80, 0
4, 135660, Note_on_c, 0, 80, 100
4, 135750, Note_on_c, 0, 80, 0
4, 135750, Note_on_c, 0, 83, 100
4, 135780, Note_on_c, 0, 83, 0
4, 135780, Note_on_c, 0, 81, 100
4, 135810, Note_on_c, 0, 81, 0
4, 135810, Note_on_c, 0, 80, 100
4, 135840, Note_on_c, 0, 80, 0
4, 135840, Note_on_c, 0, 81, 100
4, 135870, Note_on_c, 0, 81, 0
4, 135870, Note_on_c, 0, 80, 100
4, 135900, Note_on_c, 0, 80, 0
4, 135900, Note_on_c, 0, 78, 100
4, 135930, Note_on_c, 0, 78, 0
4, 135930, Note_on_c, 0, 76, 100
4, 135960, Note_on_c, 0, 76, 0
4, 135960, Note_on_c, 0, 74, 100
4, 135990, Note_on_c, 0, 74, 0
4, 135990, Note_on_c, 0, 73, 100
4, 136020, Note_on_c, 0, 73, 0
4, 136020, Note_on_c, 0, 71, 100
4, 136050, Note_on_c, 0, 71, 0
4, 136050, Note_on_c, 0, 69, 100
4, 136080, Note_on_c, 0, 69, 0
4, 136080, Note_on_c, 0, 74, 100
4, 136110, Note_on_c, 0, 74, 0
4, 136110, Note_on_c, 0, 76, 100
4, 136140, Note_on_c, 0, 76, 0
4, 136140, Note_on_c, 0, 78, 100
4, 136230, Note_on_c, 0, 78, 0
4, 136230, Note_on_c, 0, 79, 100
4, 136260, Note_on_c, 0, 79, 0
4, 136260, Note_on_c, 0, 81, 100
4, 136350, Note_on_c, 0, 81, 0
4, 136350, Note_on_c, 0, 84, 100
4, 136380, Note_on_c, 0, 84, 0
4, 136380, Note_on_c, 0, 83, 100
4, 136410, Note_on_c, 0, 83, 0
4, 136410, Note_on_c, 0, 81, 100
4, 136440, Note_on_c, 0, 81, 0
4, 136440, Note_on_c, 0, 86, 100
4, 136470, Note_on_c, 0, 86, 0
4, 136470, Note_on_c, 0, 83, 100
4, 136500, Note_on_c, 0, 83, 0
4, 136500, Note_on_c, 0, 84, 100
4, 136530, Note_on_c, 0, 84, 0
4, 136530, Note_on_c, 0, 81, 100
4, 136560, Note_on_c, 0, 81, 0
4, 136560, Note_on_c, 0, 79, 100
4, 136800, Note_on_c, 0, 79, 0
4, 136800, Note_on_c, 0, 88, 100
4, 136860, Note_on_c, 0, 88, 0
4, 136860, Note_on_c, 0, 85, 100
4, 136980, Note_on_c, 0, 85, 0
4, 136980, Note_on_c, 0, 82, 100
4, 137100, Note_on_c, 0, 82, 0
4, 137100, Note_on_c, 0, 79, 100
4, 137220, Note_on_c, 0, 79, 0
4, 137220, Note_on_c, 0, 76, 100
4, 137340, Note_on_c, 0, 76, 0
4, 137340, Note_on_c, 0, 74, 100
4, 137370, Note_on_c, 0, 74, 0
4, 137370, Note_on_c, 0, 73, 100
4, 137400, Note_on_c, 0, 73, 0
4, 137400, Note_on_c, 0, 74, 100
4, 137430, Note_on_c, 0, 74, 0
4, 137430, Note_on_c, 0, 73, 100
4, 137460, Note_on_c, 0, 73, 0
4, 137460, Note_on_c, 0, 71, 100
4, 137490, Note_on_c, 0, 71, 0
4, 137490, Note_on_c, 0, 69, 100
4, 137520, Note_on_c, 0, 69, 0
4, 137520, Note_on_c, 0, 81, 100
4, 137640, Note_on_c, 0, 81, 0
4, 137640, Note_on_c, 0, 79, 100
4, 137700, Note_on_c, 0, 79, 0
4, 137700, Note_on_c, 0, 78, 100
4, 137760, Note_on_c, 0, 78, 0
4, 137760, Note_on_c, 0, 76, 100
4, 137790, Note_on_c, 0, 76, 0
4, 137790, Note_on_c, 0, 79, 100
4, 137820, Note_on_c, 0, 79, 0
4, 137820, Note_on_c, 0, 78, 100
4, 137880, Note_on_c, 0, 78, 0
4, 137880, Note_on_c, 0, 76, 100
4, 137940, Note_on_c, 0, 76, 0
4, 137940, Note_on_c, 0, 74, 100
4, 138240, Note_on_c, 0, 74, 0
4, 138240, Note_on_c, 0, 71, 100
4, 138720, Note_on_c, 0, 71, 0
4, 138720, Note_on_c, 0, 74, 100
4, 139200, Note_on_c, 0, 74, 0
4, 139200, Note_on_c, 0, 73, 100
4, 139440, Note_on_c, 0, 73, 0
4, 139440, Note_on_c, 0, 79, 100
4, 139680, Note_on_c, 0, 79, 0
4, 139680, Note_on_c, 0, 78, 100
4, 139920, Note_on_c, 0, 78, 0
4, 139920, Note_on_c, 0, 71, 100
4, 140160, Note_on_c, 0, 71, 0
4, 140160, Note_on_c, 0, 70, 100
4, 140400, Note_on_c, 0, 70, 0
4, 140400, Note_on_c, 0, 76, 100
4, 140640, Note_on_c, 0, 76, 0
4, 140640, Note_on_c, 0, 74, 100
4, 140880, Note_on_c, 0, 74, 0
4, 140880, Note_on_c, 0, 71, 100
4, 141120, Note_on_c, 0, 71, 0
4, 141120, Note_on_c, 0, 73, 100
4, 141360, Note_on_c, 0, 73, 0
4, 141360, Note_on_c, 0, 66, 100
4, 141600, Note_on_c, 0, 66, 0
4, 141840, Note_on_c, 0, 66, 100
4, 142080, Note_on_c, 0, 66, 0
4, 142080, Note_on_c, 0, 67, 100
4, 142320, Note_on_c, 0, 67, 0
4, 142320, Note_on_c, 0, 75, 100
4, 142560, Note_on_c, 0, 75, 0
4, 142560, Note_on_c, 0, 76, 100
4, 142800, Note_on_c, 0, 76, 0
4, 142800, Note_on_c, 0, 68, 100
4, 143040, Note_on_c, 0, 68, 0
4, 143040, Note_on_c, 0, 69, 100
4, 143280, Note_on_c, 0, 69, 0
4, 143280, Note_on_c, 0, 77, 100
4, 143520, Note_on_c, 0, 77, 0
4, 143520, Note_on_c, 0, 78, 100
4, 143760, Note_on_c, 0, 78, 0
4, 143760, Note_on_c, 0, 70, 100
4, 144000, Note_on_c, 0, 70, 0
4, 144000, Note_on_c, 0, 71, 100
4, 144240, Note_on_c, 0, 71, 0
4, 144240, Note_on_c, 0, 73, 100
4, 144300, Note_on_c, 0, 73, 0
4, 144300, Note_on_c, 0, 74, 100
4, 144360, Note_on_c, 0, 74, 0
4, 144360, Note_on_c, 0, 76, 100
4, 144480, Note_on_c, 0, 76, 0
4, 144480, Note_on_c, 0, 74, 100
4, 144720, Note_on_c, 0, 74, 0
4, 144720, Note_on_c, 0, 73, 100
4, 144960, Note_on_c, 0, 73, 0
4, 144960, Note_on_c, 0, 74, 100
4, 145080, Note_on_c, 0, 74, 0
4, 145080, Note_on_c, 0, 73, 100
4, 145200, Note_on_c, 0, 73, 0
4, 145200, Note_on_c, 0, 71, 100
4, 145320, Note_on_c, 0, 71, 0
4, 145320, Note_on_c, 0, 73, 100
4, 145440, Note_on_c, 0, 73, 0
4, 145440, Note_on_c, 0, 74, 100
4, 145560, Note_on_c, 0, 74, 0
4, 145560, Note_on_c, 0, 76, 100
4, 145680, Note_on_c, 0, 76, 0
4, 145680, Note_on_c, 0, 78, 100
4, 145800, Note_on_c, 0, 78, 0
4, 145800, Note_on_c, 0, 80, 100
4, 145920, Note_on_c, 0, 80, 0
4, 145920, Note_on_c, 0, 81, 100
4, 146040, Note_on_c, 0, 81, 0
4, 146040, Note_on_c, 0, 83, 100
4, 146160, Note_on_c, 0, 83, 0
4, 146160, Note_on_c, 0, 81, 100
4, 146280, Note_on_c, 0, 81, 0
4, 146280, Note_on_c, 0, 83, 100
4, 146400, Note_on_c, 0, 83, 0
4, 146400, Note_on_c, 0, 85, 100
4, 146520, Note_on_c, 0, 85, 0
4, 146520, Note_on_c, 0, 86, 100
4, 146640, Note_on_c, 0, 86, 0
4, 146640, Note_on_c, 0, 85, 100
4, 146760, Note_on_c, 0, 85, 0
4, 146760, Note_on_c, 0, 86, 100
4, 146880, Note_on_c, 0, 86, 0
4, 146880, Note_on_c, 0, 83, 100
4, 147000, Note_on_c, 0, 83, 0
4, 147000, Note_on_c, 0, 85, 100
4, 147120, Note_on_c, 0, 85, 0
4, 147120, Note_on_c, 0, 83, 100
4, 147240, Note_on_c, 0, 83, 0
4, 147240, Note_on_c, 0, 85, 100
4, 147360, Note_on_c, 0, 85, 0
4, 147360, Note_on_c, 0, 81, 100
4, 147480, Note_on_c, 0, 81, 0
4, 147480, Note_on_c, 0, 83, 100
4, 147600, Note_on_c, 0, 83, 0
4, 147600, Note_on_c, 0, 81, 100
4, 147720, Note_on_c, 0, 81, 0
4, 147720, Note_on_c, 0, 83, 100
4, 147840, Note_on_c, 0, 83, 0
4, 147840, Note_on_c, 0, 80, 100
4, 147960, Note_on_c, 0, 80, 0
4, 147960, Note_on_c, 0, 81, 100
4, 148080, Note_on_c, 0, 81, 0
4, 148080, Note_on_c, 0, 80, 100
4, 148200, Note_on_c, 0, 80, 0
4, 148200, Note_on_c, 0, 81, 100
4, 148320, Note_on_c, 0, 81, 0
4, 148320, Note_on_c, 0, 78, 100
4, 148440, Note_on_c, 0, 78, 0
4, 148440, Note_on_c, 0, 80, 100
4, 148560, Note_on_c, 0, 80, 0
4, 148560, Note_on_c, 0, 78, 100
4, 148680, Note_on_c, 0, 78, 0
4, 148680, Note_on_c, 0, 80, 100
4, 148800, Note_on_c, 0, 80, 0
4, 148800, Note_on_c, 0, 77, 100
4, 148920, Note_on_c, 0, 77, 0
4, 148920, Note_on_c, 0, 78, 100
4, 149040, Note_on_c, 0, 78, 0
4, 149040, Note_on_c, 0, 77, 100
4, 149160, Note_on_c, 0, 77, 0
4, 149160, Note_on_c, 0, 75, 100
4, 149280, Note_on_c, 0, 75, 0
4, 149280, Note_on_c, 0, 73, 100
4, 149400, Note_on_c, 0, 73, 0
4, 149400, Note_on_c, 0, 71, 100
4, 149520, Note_on_c, 0, 71, 0
4, 149520, Note_on_c, 0, 69, 100
4, 149640, Note_on_c, 0, 69, 0
4, 149640, Note_on_c, 0, 68, 100
4, 149760, Note_on_c, 0, 68, 0
4, 149760, Note_on_c, 0, 66, 100
4, 149880, Note_on_c, 0, 66, 0
4, 149880, Note_on_c, 0, 79, 100
4, 150000, Note_on_c, 0, 79, 0
4, 150000, Note_on_c, 0, 78, 100
4, 150120, Note_on_c, 0, 78, 0
4, 150120, Note_on_c, 0, 76, 100
4, 150240, Note_on_c, 0, 76, 0
4, 150240, Note_on_c, 0, 74, 100
4, 150360, Note_on_c, 0, 74, 0
4, 150360, Note_on_c, 0, 73, 100
4, 150480, Note_on_c, 0, 73, 0
4, 150480, Note_on_c, 0, 71, 100
4, 150600, Note_on_c, 0, 71, 0
4, 150600, Note_on_c, 0, 69, 100
4, 150720, Note_on_c, 0, 69, 0
4, 150720, Note_on_c, 0, 68, 100
4, 150840, Note_on_c, 0, 68, 0
4, 150840, Note_on_c, 0, 81, 100
4, 150960, Note_on_c, 0, 81, 0
4, 150960, Note_on_c, 0, 80, 100
4, 151080, Note_on_c, 0, 80, 0
4, 151080, Note_on_c, 0, 78, 100
4, 151200, Note_on_c, 0, 78, 0
4, 151200, Note_on_c, 0, 76, 100
4, 151320, Note_on_c, 0, 76, 0
4, 151320, Note_on_c, 0, 74, 100
4, 151440, Note_on_c, 0, 74, 0
4, 151440, Note_on_c, 0, 73, 100
4, 151560, Note_on_c, 0, 73, 0
4, 151560, Note_on_c, 0, 71, 100
4, 151680, Note_on_c, 0, 71, 0
4, 151680, Note_on_c, 0, 69, 100
4, 151920, Note_on_c, 0, 69, 0
4, 151920, Note_on_c, 0, 74, 100
4, 152160, Note_on_c, 0, 74, 0
4, 152160, Note_on_c, 0, 73, 100
4, 152400, Note_on_c, 0, 73, 0
4, 152400, Note_on_c, 0, 77, 100
4, 152640, Note_on_c, 0, 77, 0
4, 152640, Note_on_c, 0, 78, 100
4, 152880, Note_on_c, 0, 78, 0
4, 152880, Note_on_c, 0, 81, 100
4, 153360, Note_on_c, 0, 81, 0
4, 153360, Note_on_c, 0, 81, 100
4, 153840, Note_on_c, 0, 81, 0
4, 153840, Note_on_c, 0, 79, 100
4, 153960, Note_on_c, 0, 79, 0
4, 153960, Note_on_c, 0, 78, 100
4, 154080, Note_on_c, 0, 78, 0
4, 154080, Note_on_c, 0, 79, 100
4, 154320, Note_on_c, 0, 79, 0
4, 154320, Note_on_c, 0, 85, 100
4, 154800, Note_on_c, 0, 85, 0
4, 154800, Note_on_c, 0, 83, 100
4, 155280, Note_on_c, 0, 83, 0
4, 155280, Note_on_c, 0, 83, 100
4, 155760, Note_on_c, 0, 83, 0
4, 155760, Note_on_c, 0, 82, 100
4, 155880, Note_on_c, 0, 82, 0
4, 155880, Note_on_c, 0, 80, 100
4, 156000, Note_on_c, 0, 80, 0
4, 156000, Note_on_c, 0, 82, 100
4, 156240, Note_on_c, 0, 82, 0
4, 156240, Note_on_c, 0, 88, 100
4, 156720, Note_on_c, 0, 88, 0
4, 156720, Note_on_c, 0, 86, 100
4, 156840, Note_on_c, 0, 86, 0
4, 156840, Note_on_c, 0, 85, 100
4, 156960, Note_on_c, 0, 85, 0
4, 156960, Note_on_c, 0, 83, 100
4, 157680, Note_on_c, 0, 83, 0
4, 157680, Note_on_c, 0, 82, 100
4, 157920, Note_on_c, 0, 82, 0
4, 158160, Note_on_c, 0, 79, 100
4, 158640, Note_on_c, 0, 79, 0
4, 158640, Note_on_c, 0, 70, 100
4, 158880, Note_on_c, 0, 70, 0
4, 158880, Note_on_c, 0, 71, 100
4, 159120, Note_on_c, 0, 71, 0
4, 159120, Note_on_c, 0, 74, 100
4, 159360, Note_on_c, 0, 74, 0
4, 159360, Note_on_c, 0, 76, 100
4, 159600, Note_on_c, 0, 76, 0
4, 159600, Note_on_c, 0, 73, 100
4, 159840, Note_on_c, 0, 73, 0
4, 159840, Note_on_c, 0, 70, 100
4, 160320, Note_on_c, 0, 70, 0
4, 160320, Note_on_c, 0, 71, 100
4, 161280, Note_on_c, 0, 71, 0
4, 161280, Note_on_c, 0, 73, 100
4, 162360, Note_on_c, 0, 73, 0
4, 162360, Note_on_c, 0, 71, 100
4, 162480, Note_on_c, 0, 71, 0
4, 162480, Note_on_c, 0, 70, 100
4, 162600, Note_on_c, 0, 70, 0
4, 162600, Note_on_c, 0, 71, 100
4, 162720, Note_on_c, 0, 71, 0
4, 162720, Note_on_c, 0, 73, 100
4, 162840, Note_on_c, 0, 73, 0
4, 162840, Note_on_c, 0, 74, 100
4, 162960, Note_on_c, 0, 74, 0
4, 162960, Note_on_c, 0, 76, 100
4, 163080, Note_on_c, 0, 76, 0
4, 163080, Note_on_c, 0, 73, 100
4, 163200, Note_on_c, 0, 73, 0
4, 163200, Note_on_c, 0, 74, 100
4, 163320, Note_on_c, 0, 74, 0
4, 163320, Note_on_c, 0, 73, 100
4, 163440, Note_on_c, 0, 73, 0
4, 163440, Note_on_c, 0, 71, 100
4, 163560, Note_on_c, 0, 71, 0
4, 163560, Note_on_c, 0, 73, 100
4, 163680, Note_on_c, 0, 73, 0
4, 163680, Note_on_c, 0, 74, 100
4, 163800, Note_on_c, 0, 74, 0
4, 163800, Note_on_c, 0, 76, 100
4, 163920, Note_on_c, 0, 76, 0
4, 163920, Note_on_c, 0, 78, 100
4, 164040, Note_on_c, 0, 78, 0
4, 164040, Note_on_c, 0, 74, 100
4, 164160, Note_on_c, 0, 74, 0
4, 164160, Note_on_c, 0, 76, 100
4, 164280, Note_on_c, 0, 76, 0
4, 164280, Note_on_c, 0, 74, 100
4, 164400, Note_on_c, 0, 74, 0
4, 164400, Note_on_c, 0, 73, 100
4, 164520, Note_on_c, 0, 73, 0
4, 164520, Note_on_c, 0, 74, 100
4, 164640, Note_on_c, 0, 74, 0
4, 164640, Note_on_c, 0, 76, 100
4, 164760, Note_on_c, 0, 76, 0
4, 164760, Note_on_c, 0, 78, 100
4, 164880, Note_on_c, 0, 78, 0
4, 164880, Note_on_c, 0, 79, 100
4, 165000, Note_on_c, 0, 79, 0
4, 165000, Note_on_c, 0, 76, 100
4, 165120, Note_on_c, 0, 76, 0
4, 165120, Note_on_c, 0, 78, 100
4, 165360, Note_on_c, 0, 78, 0
4, 165360, Note_on_c, 0, 81, 100
4, 165600, Note_on_c, 0, 81, 0
4, 165600, Note_on_c, 0, 74, 100
4, 166320, Note_on_c, 0, 74, 0
4, 166320, Note_on_c, 0, 83, 100
4, 166560, Note_on_c, 0, 83, 0
4, 166560, Note_on_c, 0, 76, 100
4, 167280, Note_on_c, 0, 76, 0
4, 167280, Note_on_c, 0, 81, 100
4, 167400, Note_on_c, 0, 81, 0
4, 167400, Note_on_c, 0, 83, 100
4, 167520, Note_on_c, 0, 83, 0
4, 167520, Note_on_c, 0, 85, 100
4, 168240, Note_on_c, 0, 85, 0
4, 168240, Note_on_c, 0, 83, 100
4, 168360, Note_on_c, 0, 83, 0
4, 168360, Note_on_c, 0, 85, 100
4, 168480, Note_on_c, 0, 85, 0
4, 168480, Note_on_c, 0, 86, 100
4, 169200, Note_on_c, 0, 86, 0
4, 169200, Note_on_c, 0, 85, 100
4, 169320, Note_on_c, 0, 85, 0
4, 169320, Note_on_c, 0, 83, 100
4, 169440, Note_on_c, 0, 83, 0
4, 169440, Note_on_c, 0, 81, 100
4, 169560, Note_on_c, 0, 81, 0
4, 169560, Note_on_c, 0, 80, 100
4, 169680, Note_on_c, 0, 80, 0
4, 169680, Note_on_c, 0, 78, 100
4, 169800, Note_on_c, 0, 78, 0
4, 169800, Note_on_c, 0, 77, 100
4, 169920, Note_on_c, 0, 77, 0
4, 169920, Note_on_c, 0, 78, 100
4, 170400, Note_on_c, 0, 78, 0
4, 170400, Note_on_c, 0, 81, 100
4, 170880, Note_on_c, 0, 81, 0
4, 170880, Note_on_c, 0, 80, 100
4, 171120, Note_on_c, 0, 80, 0
4, 171120, Note_on_c, 0, 86, 100
4, 171360, Note_on_c, 0, 86, 0
4, 171360, Note_on_c, 0, 85, 100
4, 171600, Note_on_c, 0, 85, 0
4, 171600, Note_on_c, 0, 78, 100
4, 171840, Note_on_c, 0, 78, 0
4, 171840, Note_on_c, 0, 77, 100
4, 172080, Note_on_c, 0, 77, 0
4, 172080, Note_on_c, 0, 83, 100
4, 172320, Note_on_c, 0, 83, 0
4, 172320, Note_on_c, 0, 81, 100
4, 172560, Note_on_c, 0, 81, 0
4, 172560, Note_on_c, 0, 78, 100
4, 172800, Note_on_c, 0, 78, 0
4, 172800, Note_on_c, 0, 80, 100
4, 173040, Note_on_c, 0, 80, 0
4, 173040, Note_on_c, 0, 73, 100
4, 173280, Note_on_c, 0, 73, 0
4, 173520, Note_on_c, 0, 73, 100
4, 173760, Note_on_c, 0, 73, 0
4, 173760, Note_on_c, 0, 74, 100
4, 174000, Note_on_c, 0, 74, 0
4, 174000, Note_on_c, 0, 82, 100
4, 174240, Note_on_c, 0, 82, 0
4, 174240, Note_on_c, 0, 83, 100
4, 174480, Note_on_c, 0, 83, 0
4, 174480, Note_on_c, 0, 75, 100
4, 174720, Note_on_c, 0, 75, 0
4, 174720, Note_on_c, 0, 76, 100
4, 174960, Note_on_c, 0, 76, 0
4, 174960, Note_on_c, 0, 84, 100
4, 175200, Note_on_c, 0, 84, 0
4, 175200, Note_on_c, 0, 85, 100
4, 175440, Note_on_c, 0, 85, 0
4, 175440, Note_on_c, 0, 77, 100
4, 175680, Note_on_c, 0, 77, 0
4, 175680, Note_on_c, 0, 78, 100
4, 175920, Note_on_c, 0, 78, 0
4, 175920, Note_on_c, 0, 80, 100
4, 175980, Note_on_c, 0, 80, 0
4, 175980, Note_on_c, 0, 81, 100
4, 176040, Note_on_c, 0, 81, 0
4, 176040, Note_on_c, 0, 83, 100
4, 176160, Note_on_c, 0, 83, 0
4, 176160, Note_on_c, 0, 81, 100
4, 176400, Note_on_c, 0, 81, 0
4, 176400, Note_on_c, 0, 80, 100
4, 176640, Note_on_c, 0, 80, 0
4, 176640, Note_on_c, 0, 81, 100
4, 176760, Note_on_c, 0, 81, 0
4, 176760, Note_on_c, 0, 80, 100
4, 176880, Note_on_c, 0, 80, 0
4, 176880, Note_on_c, 0, 78, 100
4, 177000, Note_on_c, 0, 78, 0
4, 177000, Note_on_c, 0, 80, 100
4, 177120, Note_on_c, 0, 80, 0
4, 177120, Note_on_c, 0, 81, 100
4, 177240, Note_on_c, 0, 81, 0
4, 177240, Note_on_c, 0, 83, 100
4, 177360, Note_on_c, 0, 83, 0
4, 177360, Note_on_c, 0, 85, 100
4, 177480, Note_on_c, 0, 85, 0
4, 177480, Note_on_c, 0, 86, 100
4, 177600, Note_on_c, 0, 86, 0
4, 177600, Note_on_c, 0, 88, 100
4, 177720, Note_on_c, 0, 88, 0
4, 177720, Note_on_c, 0, 90, 100
4, 177840, Note_on_c, 0, 90, 0
4, 177840, Note_on_c, 0, 88, 100
4, 177960, Note_on_c, 0, 88, 0
4, 177960, Note_on_c, 0, 86, 100
4, 178080, Note_on_c, 0, 86, 0
4, 178080, Note_on_c, 0, 85, 100
4, 178200, Note_on_c, 0, 85, 0
4, 178200, Note_on_c, 0, 83, 100
4, 178320, Note_on_c, 0, 83, 0
4, 178320, Note_on_c, 0, 81, 100
4, 178440, Note_on_c, 0, 81, 0
4, 178440, Note_on_c, 0, 79, 100
4, 178560, Note_on_c, 0, 79, 0
4, 178560, Note_on_c, 0, 78, 100
4, 178680, Note_on_c, 0, 78, 0
4, 178680, Note_on_c, 0, 76, 100
4, 178800, Note_on_c, 0, 76, 0
4, 178800, Note_on_c, 0, 74, 100
4, 178920, Note_on_c, 0, 74, 0
4, 178920, Note_on_c, 0, 76, 100
4, 179040, Note_on_c, 0, 76, 0
4, 179040, Note_on_c, 0, 78, 100
4, 179160, Note_on_c, 0, 78, 0
4, 179160, Note_on_c, 0, 80, 100
4, 179280, Note_on_c, 0, 80, 0
4, 179280, Note_on_c, 0, 82, 100
4, 179400, Note_on_c, 0, 82, 0
4, 179400, Note_on_c, 0, 83, 100
4, 179520, Note_on_c, 0, 83, 0
4, 179520, Note_on_c, 0, 85, 100
4, 179640, Note_on_c, 0, 85, 0
4, 179640, Note_on_c, 0, 86, 100
4, 179760, Note_on_c, 0, 86, 0
4, 179760, Note_on_c, 0, 85, 100
4, 179880, Note_on_c, 0, 85, 0
4, 179880, Note_on_c, 0, 83, 100
4, 180000, Note_on_c, 0, 83, 0
4, 180000, Note_on_c, 0, 82, 100
4, 180120, Note_on_c, 0, 82, 0
4, 180120, Note_on_c, 0, 80, 100
4, 180240, Note_on_c, 0, 80, 0
4, 180240, Note_on_c, 0, 78, 100
4, 180360, Note_on_c, 0, 78, 0
4, 180360, Note_on_c, 0, 76, 100
4, 180480, Note_on_c, 0, 76, 0
4, 180480, Note_on_c, 0, 74, 100
4, 180600, Note_on_c, 0, 74, 0
4, 180600, Note_on_c, 0, 73, 100
4, 180720, Note_on_c, 0, 73, 0
4, 180720, Note_on_c, 0, 71, 100
4, 180840, Note_on_c, 0, 71, 0
4, 180840, Note_on_c, 0, 73, 100
4, 180960, Note_on_c, 0, 73, 0
4, 180960, Note_on_c, 0, 74, 100
4, 181080, Note_on_c, 0, 74, 0
4, 181080, Note_on_c, 0, 76, 100
4, 181200, Note_on_c, 0, 76, 0
4, 181200, Note_on_c, 0, 78, 100
4, 181320, Note_on_c, 0, 78, 0
4, 181320, Note_on_c, 0, 79, 100
4, 181440, Note_on_c, 0, 79, 0
4, 181440, Note_on_c, 0, 81, 100
4, 181560, Note_on_c, 0, 81, 0
4, 181560, Note_on_c, 0, 83, 100
4, 181680, Note_on_c, 0, 83, 0
4, 181680, Note_on_c, 0, 81, 100
4, 181800, Note_on_c, 0, 81, 0
4, 181800, Note_on_c, 0, 79, 100
4, 181920, Note_on_c, 0, 79, 0
4, 181920, Note_on_c, 0, 78, 100
4, 182040, Note_on_c, 0, 78, 0
4, 182040, Note_on_c, 0, 76, 100
4, 182160, Note_on_c, 0, 76, 0
4, 182160, Note_on_c, 0, 74, 100
4, 182280, Note_on_c, 0, 74, 0
4, 182280, Note_on_c, 0, 72, 100
4, 182400, Note_on_c, 0, 72, 0
4, 182400, Note_on_c, 0, 71, 100
4, 182640, Note_on_c, 0, 71, 0
4, 182640, Note_on_c, 0, 76, 100
4, 182760, Note_on_c, 0, 76, 0
4, 182760, Note_on_c, 0, 78, 100
4, 182880, Note_on_c, 0, 78, 0
4, 182880, Note_on_c, 0, 79, 100
4, 183480, Note_on_c, 0, 79, 0
4, 183480, Note_on_c, 0, 76, 100
4, 183600, Note_on_c, 0, 76, 0
4, 183600, Note_on_c, 0, 78, 100
4, 183720, Note_on_c, 0, 78, 0
4, 183720, Note_on_c, 0, 79, 100
4, 183840, Note_on_c, 0, 79, 0
4, 183840, Note_on_c, 0, 81, 100
4, 184440, Note_on_c, 0, 81, 0
4, 184440, Note_on_c, 0, 78, 100
4, 184560, Note_on_c, 0, 78, 0
4, 184560, Note_on_c, 0, 79, 100
4, 184680, Note_on_c, 0, 79, 0
4, 184680, Note_on_c, 0, 81, 100
4, 184800, Note_on_c, 0, 81, 0
4, 184800, Note_on_c, 0, 83, 100
4, 185520, Note_on_c, 0, 83, 0
4, 185520, Note_on_c, 0, 84, 100
4, 185640, Note_on_c, 0, 84, 0
4, 185640, Note_on_c, 0, 83, 100
4, 185760, Note_on_c, 0, 83, 0
4, 185760, Note_on_c, 0, 81, 100
4, 185880, Note_on_c, 0, 81, 0
4, 185880, Note_on_c, 0, 79, 100
4, 186000, Note_on_c, 0, 79, 0
4, 186000, Note_on_c, 0, 78, 100
4, 186120, Note_on_c, 0, 78, 0
4, 186120, Note_on_c, 0, 76, 100
4, 186240, Note_on_c, 0, 76, 0
4, 186240, Note_on_c, 0, 75, 100
4, 186360, Note_on_c, 0, 75, 0
4, 186360, Note_on_c, 0, 76, 100
4, 186480, Note_on_c, 0, 76, 0
4, 186480, Note_on_c, 0, 75, 100
4, 186600, Note_on_c, 0, 75, 0
4, 186600, Note_on_c, 0, 73, 100
4, 186720, Note_on_c, 0, 73, 0
4, 186720, Note_on_c, 0, 71, 100
4, 186840, Note_on_c, 0, 71, 0
4, 186840, Note_on_c, 0, 69, 100
4, 186960, Note_on_c, 0, 69, 0
4, 186960, Note_on_c, 0, 67, 100
4, 187080, Note_on_c, 0, 67, 0
4, 187080, Note_on_c, 0, 66, 100
4, 187200, Note_on_c, 0, 66, 0
4, 187200, Note_on_c, 0, 67, 100
4, 187320, Note_on_c, 0, 67, 0
4, 187320, Note_on_c, 0, 71, 100
4, 187440, Note_on_c, 0, 71, 0
4, 187440, Note_on_c, 0, 73, 100
4, 187560, Note_on_c, 0, 73, 0
4, 187560, Note_on_c, 0, 75, 100
4, 187680, Note_on_c, 0, 75, 0
4, 187680, Note_on_c, 0, 76, 100
4, 187800, Note_on_c, 0, 76, 0
4, 187800, Note_on_c, 0, 78, 100
4, 187920, Note_on_c, 0, 78, 0
4, 187920, Note_on_c, 0, 79, 100
4, 188040, Note_on_c, 0, 79, 0
4, 188040, Note_on_c, 0, 76, 100
4, 188160, Note_on_c, 0, 76, 0
4, 188160, Note_on_c, 0, 81, 100
4, 188280, Note_on_c, 0, 81, 0
4, 188280, Note_on_c, 0, 83, 100
4, 188400, Note_on_c, 0, 83, 0
4, 188400, Note_on_c, 0, 81, 100
4, 188520, Note_on_c, 0, 81, 0
4, 188520, Note_on_c, 0, 83, 100
4, 188640, Note_on_c, 0, 83, 0
4, 188640, Note_on_c, 0, 79, 100
4, 188760, Note_on_c, 0, 79, 0
4, 188760, Note_on_c, 0, 81, 100
4, 188880, Note_on_c, 0, 81, 0
4, 188880, Note_on_c, 0, 79, 100
4, 189000, Note_on_c, 0, 79, 0
4, 189000, Note_on_c, 0, 81, 100
4, 189120, Note_on_c, 0, 81, 0
4, 189120, Note_on_c, 0, 78, 100
4, 189240, Note_on_c, 0, 78, 0
4, 189240, Note_on_c, 0, 79, 100
4, 189360, Note_on_c, 0, 79, 0
4, 189360, Note_on_c, 0, 78, 100
4, 189480, Note_on_c, 0, 78, 0
4, 189480, Note_on_c, 0, 79, 100
4, 189600, Note_on_c, 0, 79, 0
4, 189600, Note_on_c, 0, 76, 100
4, 189720, Note_on_c, 0, 76, 0
4, 189720, Note_on_c, 0, 78, 100
4, 189840, Note_on_c, 0, 78, 0
4, 189840, Note_on_c, 0, 76, 100
4, 189960, Note_on_c, 0, 76, 0
4, 189960, Note_on_c, 0, 78, 100
4, 190080, Note_on_c, 0, 78, 0
4, 190080, Note_on_c, 0, 75, 100
4, 190200, Note_on_c, 0, 75, 0
4, 190200, Note_on_c, 0, 88, 100
4, 190320, Note_on_c, 0, 88, 0
4, 190320, Note_on_c, 0, 87, 100
4, 190440, Note_on_c, 0, 87, 0
4, 190440, Note_on_c, 0, 85, 100
4, 190560, Note_on_c, 0, 85, 0
4, 190560, Note_on_c, 0, 83, 100
4, 190680, Note_on_c, 0, 83, 0
4, 190680, Note_on_c, 0, 81, 100
4, 190800, Note_on_c, 0, 81, 0
4, 190800, Note_on_c, 0, 79, 100
4, 190920, Note_on_c, 0, 79, 0
4, 190920, Note_on_c, 0, 78, 100
4, 191040, Note_on_c, 0, 78, 0
4, 191040, Note_on_c, 0, 76, 100
4, 192120, Note_on_c, 0, 76, 0
4, 192120, Note_on_c, 0, 79, 100
4, 192240, Note_on_c, 0, 79, 0
4, 192240, Note_on_c, 0, 78, 100
4, 192360, Note_on_c, 0, 78, 0
4, 192360, Note_on_c, 0, 76, 100
4, 192480, Note_on_c, 0, 76, 0
4, 192480, Note_on_c, 0, 75, 100
4, 192600, Note_on_c, 0, 75, 0
4, 192600, Note_on_c, 0, 73, 100
4, 192720, Note_on_c, 0, 73, 0
4, 192720, Note_on_c, 0, 71, 100
4, 192840, Note_on_c, 0, 71, 0
4, 192840, Note_on_c, 0, 69, 100
4, 192960, Note_on_c, 0, 69, 0
4, 192960, Note_on_c, 0, 67, 100
4, 193200, Note_on_c, 0, 67, 0
4, 193200, Note_on_c, 0, 72, 100
4, 193440, Note_on_c, 0, 72, 0
4, 193440, Note_on_c, 0, 71, 100
4, 193680, Note_on_c, 0, 71, 0
4, 193680, Note_on_c, 0, 75, 100
4, 193920, Note_on_c, 0, 75, 0
4, 193920, Note_on_c, 0, 76, 100
4, 194160, Note_on_c, 0, 76, 0
4, 194160, Note_on_c, 0, 79, 100
4, 194400, Note_on_c, 0, 79, 0
4, 194400, Note_on_c, 0, 72, 100
4, 195120, Note_on_c, 0, 72, 0
4, 195120, Note_on_c, 0, 81, 100
4, 195360, Note_on_c, 0, 81, 0
4, 195360, Note_on_c, 0, 74, 100
4, 195960, Note_on_c, 0, 74, 0
4, 195960, Note_on_c, 0, 72, 100
4, 196080, Note_on_c, 0, 72, 0
4, 196080, Note_on_c, 0, 71, 100
4, 196200, Note_on_c, 0, 71, 0
4, 196200, Note_on_c, 0, 72, 100
4, 196320, Note_on_c, 0, 72, 0
4, 196320, Note_on_c, 0, 74, 100
4, 196440, Note_on_c, 0, 74, 0
4, 196440, Note_on_c, 0, 76, 100
4, 196560, Note_on_c, 0, 76, 0
4, 196560, Note_on_c, 0, 77, 100
4, 196680, Note_on_c, 0, 77, 0
4, 196680, Note_on_c, 0, 74, 100
4, 196800, Note_on_c, 0, 74, 0
4, 196800, Note_on_c, 0, 76, 100
4, 196920, Note_on_c, 0, 76, 0
4, 196920, Note_on_c, 0, 74, 100
4, 197040, Note_on_c, 0, 74, 0
4, 197040, Note_on_c, 0, 72, 100
4, 197160, Note_on_c, 0, 72, 0
4, 197160, Note_on_c, 0, 74, 100
4, 197280, Note_on_c, 0, 74, 0
4, 197280, Note_on_c, 0, 76, 100
4, 197400, Note_on_c, 0, 76, 0
4, 197400, Note_on_c, 0, 78, 100
4, 197520, Note_on_c, 0, 78, 0
4, 197520, Note_on_c, 0, 79, 100
4, 197640, Note_on_c, 0, 79, 0
4, 197640, Note_on_c, 0, 76, 100
4, 197760, Note_on_c, 0, 76, 0
4, 197760, Note_on_c, 0, 78, 100
4, 198240, Note_on_c, 0, 78, 0
4, 198480, Note_on_c, 0, 74, 100
4, 198720, Note_on_c, 0, 74, 0
4, 198720, Note_on_c, 0, 79, 100
4, 199440, Note_on_c, 0, 79, 0
4, 199440, Note_on_c, 0, 76, 100
4, 199680, Note_on_c, 0, 76, 0
4, 199680, Note_on_c, 0, 82, 100
4, 199920, Note_on_c, 0, 82, 0
4, 199920, Note_on_c, 0, 85, 100
4, 200160, Note_on_c, 0, 85, 0
4, 200160, Note_on_c, 0, 78, 100
4, 200760, Note_on_c, 0, 78, 0
4, 200760, Note_on_c, 0, 76, 100
4, 200880, Note_on_c, 0, 76, 0
4, 200880, Note_on_c, 0, 74, 100
4, 201000, Note_on_c, 0, 74, 0
4, 201000, Note_on_c, 0, 76, 100
4, 201120, Note_on_c, 0, 76, 0
4, 201120, Note_on_c, 0, 78, 100
4, 201240, Note_on_c, 0, 78, 0
4, 201240, Note_on_c, 0, 79, 100
4, 201360, Note_on_c, 0, 79, 0
4, 201360, Note_on_c, 0, 78, 100
4, 201480, Note_on_c, 0, 78, 0
4, 201480, Note_on_c, 0, 79, 100
4, 201600, Note_on_c, 0, 79, 0
4, 201600, Note_on_c, 0, 76, 100
4, 201720, Note_on_c, 0, 76, 0
4, 201720, Note_on_c, 0, 78, 100
4, 201840, Note_on_c, 0, 78, 0
4, 201840, Note_on_c, 0, 76, 100
4, 201960, Note_on_c, 0, 76, 0
4, 201960, Note_on_c, 0, 78, 100
4, 202080, Note_on_c, 0, 78, 0
4, 202080, Note_on_c, 0, 74, 100
4, 202200, Note_on_c, 0, 74, 0
4, 202200, Note_on_c, 0, 76, 100
4, 202320, Note_on_c, 0, 76, 0
4, 202320, Note_on_c, 0, 74, 100
4, 202440, Note_on_c, 0, 74, 0
4, 202440, Note_on_c, 0, 76, 100
4, 202560, Note_on_c, 0, 76, 0
4, 202560, Note_on_c, 0, 73, 100
4, 202680, Note_on_c, 0, 73, 0
4, 202680, Note_on_c, 0, 74, 100
4, 202800, Note_on_c, 0, 74, 0
4, 202800, Note_on_c, 0, 73, 100
4, 202920, Note_on_c, 0, 73, 0
4, 202920, Note_on_c, 0, 74, 100
4, 203040, Note_on_c, 0, 74, 0
4, 203040, Note_on_c, 0, 71, 100
4, 203160, Note_on_c, 0, 71, 0
4, 203160, Note_on_c, 0, 73, 100
4, 203280, Note_on_c, 0, 73, 0
4, 203280, Note_on_c, 0, 71, 100
4, 203400, Note_on_c, 0, 71, 0
4, 203400, Note_on_c, 0, 73, 100
4, 203520, Note_on_c, 0, 73, 0
4, 203520, Note_on_c, 0, 70, 100
4, 203640, Note_on_c, 0, 70, 0
4, 203640, Note_on_c, 0, 83, 100
4, 203760, Note_on_c, 0, 83, 0
4, 203760, Note_on_c, 0, 82, 100
4, 203880, Note_on_c, 0, 82, 0
4, 203880, Note_on_c, 0, 80, 100
4, 204000, Note_on_c, 0, 80, 0
4, 204000, Note_on_c, 0, 78, 100
4, 204120, Note_on_c, 0, 78, 0
4, 204120, Note_on_c, 0, 76, 100
4, 204240, Note_on_c, 0, 76, 0
4, 204240, Note_on_c, 0, 74, 100
4, 204360, Note_on_c, 0, 74, 0
4, 204360, Note_on_c, 0, 73, 100
4, 204480, Note_on_c, 0, 73, 0
4, 204480, Note_on_c, 0, 71, 100
4, 204600, Note_on_c, 0, 71, 0
4, 204600, Note_on_c, 0, 84, 100
4, 204720, Note_on_c, 0, 84, 0
4, 204720, Note_on_c, 0, 83, 100
4, 204840, Note_on_c, 0, 83, 0
4, 204840, Note_on_c, 0, 81, 100
4, 204960, Note_on_c, 0, 81, 0
4, 204960, Note_on_c, 0, 79, 100
4, 205080, Note_on_c, 0, 79, 0
4, 205080, Note_on_c, 0, 78, 100
4, 205200, Note_on_c, 0, 78, 0
4, 205200, Note_on_c, 0, 76, 100
4, 205320, Note_on_c, 0, 76, 0
4, 205320, Note_on_c, 0, 74, 100
4, 205440, Note_on_c, 0, 74, 0
4, 205440, Note_on_c, 0, 73, 100
4, 205560, Note_on_c, 0, 73, 0
4, 205560, Note_on_c, 0, 86, 100
4, 205680, Note_on_c, 0, 86, 0
4, 205680, Note_on_c, 0, 85, 100
4, 205800, Note_on_c, 0, 85, 0
4, 205800, Note_on_c, 0, 83, 100
4, 205920, Note_on_c, 0, 83, 0
4, 205920, Note_on_c, 0, 81, 100
4, 206040, Note_on_c, 0, 81, 0
4, 206040, Note_on_c, 0, 79, 100
4, 206160, Note_on_c, 0, 79, 0
4, 206160, Note_on_c, 0, 78, 100
4, 206280, Note_on_c, 0, 78, 0
4, 206280, Note_on_c, 0, 76, 100
4, 206400, Note_on_c, 0, 76, 0
4, 206400, Note_on_c, 0, 74, 100
4, 206640, Note_on_c, 0, 74, 0
4, 206640, Note_on_c, 0, 79, 100
4, 206880, Note_on_c, 0, 79, 0
4, 206880, Note_on_c, 0, 78, 100
4, 207120, Note_on_c, 0, 78, 0
4, 207120, Note_on_c, 0, 82, 100
4, 207360, Note_on_c, 0, 82, 0
4, 207360, Note_on_c, 0, 83, 100
4, 207480, Note_on_c, 0, 83, 0
4, 207480, Note_on_c, 0, 85, 100
4, 207600, Note_on_c, 0, 85, 0
4, 207600, Note_on_c, 0, 86, 100
4, 208080, Note_on_c, 0, 86, 0
4, 208080, Note_on_c, 0, 86, 100
4, 208560, Note_on_c, 0, 86, 0
4, 208560, Note_on_c, 0, 84, 100
4, 208680, Note_on_c, 0, 84, 0
4, 208680, Note_on_c, 0, 83, 100
4, 208800, Note_on_c, 0, 83, 0
4, 208800, Note_on_c, 0, 84, 100
4, 209280, Note_on_c, 0, 84, 0
4, 209520, Note_on_c, 0, 83, 100
4, 210000, Note_on_c, 0, 83, 0
4, 210000, Note_on_c, 0, 83, 100
4, 210480, Note_on_c, 0, 83, 0
4, 210480, Note_on_c, 0, 81, 100
4, 210600, Note_on_c, 0, 81, 0
4, 210600, Note_on_c, 0, 79, 100
4, 210720, Note_on_c, 0, 79, 0
4, 210720, Note_on_c, 0, 81, 100
4, 211200, Note_on_c, 0, 81, 0
4, 211440, Note_on_c, 0, 79, 100
4, 211920, Note_on_c, 0, 79, 0
4, 211920, Note_on_c, 0, 79, 100
4, 212400, Note_on_c, 0, 79, 0
4, 212400, Note_on_c, 0, 78, 100
4, 212520, Note_on_c, 0, 78, 0
4, 212520, Note_on_c, 0, 76, 100
4, 212640, Note_on_c, 0, 76, 0
4, 212640, Note_on_c, 0, 85, 100
4, 212880, Note_on_c, 0, 85, 0
4, 212880, Note_on_c, 0, 76, 100
4, 213120, Note_on_c, 0, 76, 0
4, 213120, Note_on_c, 0, 74, 100
4, 213240, Note_on_c, 0, 74, 0
4, 213240, Note_on_c, 0, 73, 100
4, 213360, Note_on_c, 0, 73, 0
4, 213360, Note_on_c, 0, 74, 100
4, 213480, Note_on_c, 0, 74, 0
4, 213480, Note_on_c, 0, 76, 100
4, 213600, Note_on_c, 0, 76, 0
4, 213600, Note_on_c, 0, 78, 100
4, 213720, Note_on_c, 0, 78, 0
4, 213720, Note_on_c, 0, 80, 100
4, 213840, Note_on_c, 0, 80, 0
4, 213840, Note_on_c, 0, 81, 100
4, 213960, Note_on_c, 0, 81, 0
4, 213960, Note_on_c, 0, 78, 100
4, 214080, Note_on_c, 0, 78, 0
4, 214080, Note_on_c, 0, 80, 100
4, 214200, Note_on_c, 0, 80, 0
4, 214200, Note_on_c, 0, 78, 100
4, 214320, Note_on_c, 0, 78, 0
4, 214320, Note_on_c, 0, 76, 100
4, 214440, Note_on_c, 0, 76, 0
4, 214440, Note_on_c, 0, 78, 100
4, 214560, Note_on_c, 0, 78, 0
4, 214560, Note_on_c, 0, 80, 100
4, 214680, Note_on_c, 0, 80, 0
4, 214680, Note_on_c, 0, 82, 100
4, 214800, Note_on_c, 0, 82, 0
4, 214800, Note_on_c, 0, 83, 100
4, 214920, Note_on_c, 0, 83, 0
4, 214920, Note_on_c, 0, 80, 100
4, 215040, Note_on_c, 0, 80, 0
4, 215040, Note_on_c, 0, 82, 100
4, 215160, Note_on_c, 0, 82, 0
4, 215160, Note_on_c, 0, 80, 100
4, 215280, Note_on_c, 0, 80, 0
4, 215280, Note_on_c, 0, 78, 100
4, 215400, Note_on_c, 0, 78, 0
4, 215400, Note_on_c, 0, 80, 100
4, 215520, Note_on_c, 0, 80, 0
4, 215520, Note_on_c, 0, 82, 100
4, 215640, Note_on_c, 0, 82, 0
4, 215640, Note_on_c, 0, 83, 100
4, 215760, Note_on_c, 0, 83, 0
4, 215760, Note_on_c, 0, 85, 100
4, 215880, Note_on_c, 0, 85, 0
4, 215880, Note_on_c, 0, 82, 100
4, 216000, Note_on_c, 0, 82, 0
4, 216000, Note_on_c, 0, 83, 100
4, 216120, Note_on_c, 0, 83, 0
4, 216120, Note_on_c, 0, 82, 100
4, 216240, Note_on_c, 0, 82, 0
4, 216240, Note_on_c, 0, 83, 100
4, 216360, Note_on_c, 0, 83, 0
4, 216360, Note_on_c, 0, 86, 100
4, 216480, Note_on_c, 0, 86, 0
4, 216480, Note_on_c, 0, 85, 100
4, 216600, Note_on_c, 0, 85, 0
4, 216600, Note_on_c, 0, 83, 100
4, 216720, Note_on_c, 0, 83, 0
4, 216720, Note_on_c, 0, 82, 100
4, 216840, Note_on_c, 0, 82, 0
4, 216840, Note_on_c, 0, 83, 100
4, 216960, Note_on_c, 0, 83, 0
4, 216960, Note_on_c, 0, 82, 100
4, 217920, Note_on_c, 0, 82, 0
4, 218580, Note_on_c, 0, 66, 100
4, 218638, Note_on_c, 0, 66, 0
4, 218640, Note_on_c, 0, 71, 100
4, 218698, Note_on_c, 0, 71, 0
4, 218700, Note_on_c, 0, 74, 100
4, 218758, Note_on_c, 0, 74, 0
4, 218760, Note_on_c, 0, 73, 100
4, 218878, Note_on_c, 0, 73, 0
4, 218880, Note_on_c, 0, 67, 100
4, 218938, Note_on_c, 0, 67, 0
4, 218940, Note_on_c, 0, 66, 100
4, 219058, Note_on_c, 0, 66, 0
4, 219060, Note_on_c, 0, 76, 100
4, 219118, Note_on_c, 0, 76, 0
4, 219120, Note_on_c, 0, 74, 100
4, 219238, Note_on_c, 0, 74, 0
4, 219240, Note_on_c, 0, 69, 100
4, 219298, Note_on_c, 0, 69, 0
4, 219300, Note_on_c, 0, 68, 100
4, 219418, Note_on_c, 0, 68, 0
4, 219420, Note_on_c, 0, 78, 100
4, 219478, Note_on_c, 0, 78, 0
4, 219480, Note_on_c, 0, 76, 100
4, 219598, Note_on_c, 0, 76, 0
4, 219600, Note_on_c, 0, 71, 100
4, 219658, Note_on_c, 0, 71, 0
4, 219660, Note_on_c, 0, 70, 100
4, 219778, Note_on_c, 0, 70, 0
4, 219780, Note_on_c, 0, 79, 100
4, 219838, Note_on_c, 0, 79, 0
4, 219840, Note_on_c, 0, 78, 100
4, 219898, Note_on_c, 0, 78, 0
4, 219960, Note_on_c, 0, 70, 100
4, 220018, Note_on_c, 0, 70, 0
4, 220020, Note_on_c, 0, 71, 100
4, 220078, Note_on_c, 0, 71, 0
4, 220080, Note_on_c, 0, 79, 100
4, 220138, Note_on_c, 0, 79, 0
4, 220140, Note_on_c, 0, 70, 100
4, 220198, Note_on_c, 0, 70, 0
4, 220200, Note_on_c, 0, 71, 100
4, 220258, Note_on_c, 0, 71, 0
4, 220260, Note_on_c, 0, 78, 100
4, 220318, Note_on_c, 0, 78, 0
4, 220320, Note_on_c, 0, 70, 100
4, 220378, Note_on_c, 0, 70, 0
4, 220380, Note_on_c, 0, 71, 100
4, 220438, Note_on_c, 0, 71, 0
4, 220440, Note_on_c, 0, 76, 100
4, 220498, Note_on_c, 0, 76, 0
4, 220500, Note_on_c, 0, 70, 100
4, 220558, Note_on_c, 0, 70, 0
4, 220560, Note_on_c, 0, 71, 100
4, 220618, Note_on_c, 0, 71, 0
4, 220620, Note_on_c, 0, 74, 100
4, 220678, Note_on_c, 0, 74, 0
4, 220680, Note_on_c, 0, 70, 100
4, 220738, Note_on_c, 0, 70, 0
4, 220740, Note_on_c, 0, 71, 100
4, 220798, Note_on_c, 0, 71, 0
4, 220800, Note_on_c, 0, 73, 100
4, 220858, Note_on_c, 0, 73, 0
4, 220860, Note_on_c, 0, 76, 100
4, 220918, Note_on_c, 0, 76, 0
4, 220920, Note_on_c, 0, 79, 100
4, 220978, Note_on_c, 0, 79, 0
4, 220980, Note_on_c, 0, 76, 100
4, 221038, Note_on_c, 0, 76, 0
4, 221040, Note_on_c, 0, 73, 100
4, 221098, Note_on_c, 0, 73, 0
4, 221100, Note_on_c, 0, 71, 100
4, 221158, Note_on_c, 0, 71, 0
4, 221160, Note_on_c, 0, 70, 100
4, 221218, Note_on_c, 0, 70, 0
4, 221220, Note_on_c, 0, 73, 100
4, 221278, Note_on_c, 0, 73, 0
4, 221280, Note_on_c, 0, 78, 100
4, 221338, Note_on_c, 0, 78, 0
4, 221340, Note_on_c, 0, 76, 100
4, 221398, Note_on_c, 0, 76, 0
4, 221400, Note_on_c, 0, 74, 100
4, 221458, Note_on_c, 0, 74, 0
4, 221460, Note_on_c, 0, 73, 100
4, 221518, Note_on_c, 0, 73, 0
4, 221520, Note_on_c, 0, 74, 100
4, 221578, Note_on_c, 0, 74, 0
4, 221580, Note_on_c, 0, 71, 100
4, 221638, Note_on_c, 0, 71, 0
4, 221640, Note_on_c, 0, 66, 100
4, 221698, Note_on_c, 0, 66, 0
4, 221700, Note_on_c, 0, 70, 100
4, 221758, Note_on_c, 0, 70, 0
4, 221760, Note_on_c, 0, 73, 100
4, 221818, Note_on_c, 0, 73, 0
4, 221820, Note_on_c, 0, 76, 100
4, 221878, Note_on_c, 0, 76, 0
4, 221880, Note_on_c, 0, 74, 100
4, 221938, Note_on_c, 0, 74, 0
4, 221940, Note_on_c, 0, 73, 100
4, 221998, Note_on_c, 0, 73, 0
4, 222000, Note_on_c, 0, 71, 100
4, 222058, Note_on_c, 0, 71, 0
4, 222060, Note_on_c, 0, 83, 100
4, 222178, Note_on_c, 0, 83, 0
4, 222180, Note_on_c, 0, 74, 100
4, 222238, Note_on_c, 0, 74, 0
4, 222240, Note_on_c, 0, 76, 100
4, 222298, Note_on_c, 0, 76, 0
4, 222300, Note_on_c, 0, 74, 100
4, 222358, Note_on_c, 0, 74, 0
4, 222360, Note_on_c, 0, 73, 100
4, 222418, Note_on_c, 0, 73, 0
4, 222420, Note_on_c, 0, 85, 100
4, 222538, Note_on_c, 0, 85, 0
4, 222540, Note_on_c, 0, 76, 100
4, 222598, Note_on_c, 0, 76, 0
4, 222600, Note_on_c, 0, 78, 100
4, 222658, Note_on_c, 0, 78, 0
4, 222660, Note_on_c, 0, 76, 100
4, 222718, Note_on_c, 0, 76, 0
4, 222720, Note_on_c, 0, 74, 100
4, 222778, Note_on_c, 0, 74, 0
4, 222780, Note_on_c, 0, 86, 100
4, 222898, Note_on_c, 0, 86, 0
4, 222900, Note_on_c, 0, 78, 100
4, 222958, Note_on_c, 0, 78, 0
4, 222960, Note_on_c, 0, 76, 100
4, 223018, Note_on_c, 0, 76, 0
4, 223020, Note_on_c, 0, 78, 100
4, 223078, Note_on_c, 0, 78, 0
4, 223080, Note_on_c, 0, 79, 100
4, 223138, Note_on_c, 0, 79, 0
4, 223140, Note_on_c, 0, 78, 100
4, 223198, Note_on_c, 0, 78, 0
4, 223200, Note_on_c, 0, 76, 100
4, 223258, Note_on_c, 0, 76, 0
4, 223260, Note_on_c, 0, 74, 100
4, 223318, Note_on_c, 0, 74, 0
4, 223320, Note_on_c, 0, 73, 100
4, 223438, Note_on_c, 0, 73, 0
4, 223440, Note_on_c, 0, 88, 100
4, 223498, Note_on_c, 0, 88, 0
4, 223500, Note_on_c, 0, 71, 100
4, 223618, Note_on_c, 0, 71, 0
4, 223620, Note_on_c, 0, 86, 100
4, 223678, Note_on_c, 0, 86, 0
4, 223681, Note_on_c, 0, 76, 100
4, 223799, Note_on_c, 0, 76, 0
4, 223801, Note_on_c, 0, 85, 100
4, 223859, Note_on_c, 0, 85, 0
4, 223861, Note_on_c, 0, 82, 100
4, 223979, Note_on_c, 0, 82, 0
4, 223981, Note_on_c, 0, 83, 100
4, 224031, Note_on_c, 0, 83, 0
4, 224040, Note_on_c, 0, 83, 100
4, 224100, Note_on_c, 0, 83, 0
4, 224100, Note_on_c, 0, 85, 100
4, 224340, Note_on_c, 0, 85, 0
4, 224340, Note_on_c, 0, 78, 100
4, 224400, Note_on_c, 0, 78, 0
4, 224400, Note_on_c, 0, 78, 100
4, 224458, Note_on_c, 0, 78, 0
4, 224460, Note_on_c, 0, 83, 100
4, 224518, Note_on_c, 0, 83, 0
4, 224520, Note_on_c, 0, 86, 100
4, 224578, Note_on_c, 0, 86, 0
4, 224580, Note_on_c, 0, 82, 100
4, 224638, Note_on_c, 0, 82, 0
4, 224640, Note_on_c, 0, 83, 100
4, 224698, Note_on_c, 0, 83, 0
4, 224700, Note_on_c, 0, 78, 100
4, 224758, Note_on_c, 0, 78, 0
4, 224760, Note_on_c, 0, 78, 100
4, 224820, Note_on_c, 0, 78, 0
4, 224820, Note_on_c, 0, 79, 100
4, 224940, Note_on_c, 0, 79, 0
4, 225060, Note_on_c, 0, 76, 100
4, 225118, Note_on_c, 0, 76, 0
4, 225120, Note_on_c, 0, 76, 100
4, 225178, Note_on_c, 0, 76, 0
4, 225180, Note_on_c, 0, 81, 100
4, 225238, Note_on_c, 0, 81, 0
4, 225240, Note_on_c, 0, 85, 100
4, 225298, Note_on_c, 0, 85, 0
4, 225300, Note_on_c, 0, 80, 100
4, 225358, Note_on_c, 0, 80, 0
4, 225360, Note_on_c, 0, 81, 100
4, 225418, Note_on_c, 0, 81, 0
4, 225420, Note_on_c, 0, 76, 100
4, 225478, Note_on_c, 0, 76, 0
4, 225480, Note_on_c, 0, 76, 100
4, 225540, Note_on_c, 0, 76, 0
4, 225540, Note_on_c, 0, 78, 100
4, 225660, Note_on_c, 0, 78, 0
4, 225780, Note_on_c, 0, 74, 100
4, 225838, Note_on_c, 0, 74, 0
4, 225840, Note_on_c, 0, 74, 100
4, 225898, Note_on_c, 0, 74, 0
4, 225900, Note_on_c, 0, 73, 100
4, 225958, Note_on_c, 0, 73, 0
4, 225960, Note_on_c, 0, 74, 100
4, 226018, Note_on_c, 0, 74, 0
4, 226020, Note_on_c, 0, 83, 100
4, 226078, Note_on_c, 0, 83, 0
4, 226080, Note_on_c, 0, 81, 100
4, 226138, Note_on_c, 0, 81, 0
4, 226140, Note_on_c, 0, 79, 100
4, 226198, Note_on_c, 0, 79, 0
4, 226200, Note_on_c, 0, 74, 100
4, 226258, Note_on_c, 0, 74, 0
4, 226260, Note_on_c, 0, 73, 100
4, 226318, Note_on_c, 0, 73, 0
4, 226320, Note_on_c, 0, 74, 100
4, 226378, Note_on_c, 0, 74, 0
4, 226380, Note_on_c, 0, 81, 100
4, 226438, Note_on_c, 0, 81, 0
4, 226440, Note_on_c, 0, 79, 100
4, 226498, Note_on_c, 0, 79, 0
4, 226500, Note_on_c, 0, 78, 100
4, 226558, Note_on_c, 0, 78, 0
4, 226560, Note_on_c, 0, 74, 100
4, 226618, Note_on_c, 0, 74, 0
4, 226620, Note_on_c, 0, 73, 100
4, 226678, Note_on_c, 0, 73, 0
4, 226680, Note_on_c, 0, 74, 100
4, 226738, Note_on_c, 0, 74, 0
4, 226740, Note_on_c, 0, 79, 100
4, 226798, Note_on_c, 0, 79, 0
4, 226800, Note_on_c, 0, 78, 100
4, 226858, Note_on_c, 0, 78, 0
4, 226860, Note_on_c, 0, 76, 100
4, 226918, Note_on_c, 0, 76, 0
4, 226920, Note_on_c, 0, 74, 100
4, 226978, Note_on_c, 0, 74, 0
4, 226980, Note_on_c, 0, 73, 100
4, 227038, Note_on_c, 0, 73, 0
4, 227040, Note_on_c, 0, 74, 100
4, 227098, Note_on_c, 0, 74, 0
4, 227100, Note_on_c, 0, 78, 100
4, 227158, Note_on_c, 0, 78, 0
4, 227160, Note_on_c, 0, 76, 100
4, 227218, Note_on_c, 0, 76, 0
4, 227220, Note_on_c, 0, 74, 100
4, 227278, Note_on_c, 0, 74, 0
4, 227280, Note_on_c, 0, 76, 100
4, 227338, Note_on_c, 0, 76, 0
4, 227340, Note_on_c, 0, 79, 100
4, 227398, Note_on_c, 0, 79, 0
4, 227400, Note_on_c, 0, 83, 100
4, 227458, Note_on_c, 0, 83, 0
4, 227460, Note_on_c, 0, 81, 100
4, 227518, Note_on_c, 0, 81, 0
4, 227520, Note_on_c, 0, 79, 100
4, 227578, Note_on_c, 0, 79, 0
4, 227580, Note_on_c, 0, 78, 100
4, 227638, Note_on_c, 0, 78, 0
4, 227640, Note_on_c, 0, 76, 100
4, 227698, Note_on_c, 0, 76, 0
4, 227700, Note_on_c, 0, 74, 100
4, 227758, Note_on_c, 0, 74, 0
4, 227760, Note_on_c, 0, 73, 100
4, 227818, Note_on_c, 0, 73, 0
4, 227820, Note_on_c, 0, 71, 100
4, 227878, Note_on_c, 0, 71, 0
4, 227880, Note_on_c, 0, 69, 100
4, 227938, Note_on_c, 0, 69, 0
4, 227940, Note_on_c, 0, 67, 100
4, 227998, Note_on_c, 0, 67, 0
4, 228000, Note_on_c, 0, 66, 100
4, 228118, Note_on_c, 0, 66, 0
4, 228120, Note_on_c, 0, 81, 100
4, 228178, Note_on_c, 0, 81, 0
4, 228180, Note_on_c, 0, 69, 100
4, 228238, Note_on_c, 0, 69, 0
4, 228240, Note_on_c, 0, 74, 100
4, 228298, Note_on_c, 0, 74, 0
4, 228300, Note_on_c, 0, 73, 100
4, 228358, Note_on_c, 0, 73, 0
4, 228360, Note_on_c, 0, 74, 100
4, 228418, Note_on_c, 0, 74, 0
4, 228420, Note_on_c, 0, 69, 100
4, 228478, Note_on_c, 0, 69, 0
4, 228480, Note_on_c, 0, 74, 100
4, 228538, Note_on_c, 0, 74, 0
4, 228540, Note_on_c, 0, 78, 100
4, 228598, Note_on_c, 0, 78, 0
4, 228600, Note_on_c, 0, 74, 100
4, 228658, Note_on_c, 0, 74, 0
4, 228660, Note_on_c, 0, 78, 100
4, 228718, Note_on_c, 0, 78, 0
4, 228720, Note_on_c, 0, 81, 100
4, 228778, Note_on_c, 0, 81, 0
4, 228780, Note_on_c, 0, 78, 100
4, 228838, Note_on_c, 0, 78, 0
4, 228840, Note_on_c, 0, 74, 100
4, 228898, Note_on_c, 0, 74, 0
4, 228900, Note_on_c, 0, 81, 100
4, 229138, Note_on_c, 0, 81, 0
4, 229140, Note_on_c, 0, 74, 100
4, 229198, Note_on_c, 0, 74, 0
4, 229200, Note_on_c, 0, 79, 100
4, 229258, Note_on_c, 0, 79, 0
4, 229260, Note_on_c, 0, 83, 100
4, 229498, Note_on_c, 0, 83, 0
4, 229500, Note_on_c, 0, 80, 100
4, 229558, Note_on_c, 0, 80, 0
4, 229560, Note_on_c, 0, 76, 100
4, 229618, Note_on_c, 0, 76, 0
4, 229620, Note_on_c, 0, 83, 100
4, 229860, Note_on_c, 0, 83, 0
4, 229860, Note_on_c, 0, 76, 100
4, 229918, Note_on_c, 0, 76, 0
4, 229920, Note_on_c, 0, 81, 100
4, 229978, Note_on_c, 0, 81, 0
4, 229980, Note_on_c, 0, 85, 100
4, 230218, Note_on_c, 0, 85, 0
4, 230220, Note_on_c, 0, 82, 100
4, 230278, Note_on_c, 0, 82, 0
4, 230280, Note_on_c, 0, 78, 100
4, 230338, Note_on_c, 0, 78, 0
4, 230340, Note_on_c, 0, 85, 100
4, 230578, Note_on_c, 0, 85, 0
4, 230580, Note_on_c, 0, 78, 100
4, 230638, Note_on_c, 0, 78, 0
4, 230640, Note_on_c, 0, 83, 100
4, 230698, Note_on_c, 0, 83, 0
4, 230700, Note_on_c, 0, 86, 100
4, 230938, Note_on_c, 0, 86, 0
4, 230940, Note_on_c, 0, 83, 100
4, 230998, Note_on_c, 0, 83, 0
4, 231000, Note_on_c, 0, 80, 100
4, 231058, Note_on_c, 0, 80, 0
4, 231060, Note_on_c, 0, 78, 100
4, 231118, Note_on_c, 0, 78, 0
4, 231120, Note_on_c, 0, 77, 100
4, 231178, Note_on_c, 0, 77, 0
4, 231180, Note_on_c, 0, 78, 100
4, 231238, Note_on_c, 0, 78, 0
4, 231240, Note_on_c, 0, 85, 100
4, 231358, Note_on_c, 0, 85, 0
4, 231360, Note_on_c, 0, 80, 100
4, 231418, Note_on_c, 0, 80, 0
4, 231420, Note_on_c, 0, 78, 100
4, 231480, Note_on_c, 0, 78, 0
4, 231480, Note_on_c, 0, 77, 100
4, 231600, Note_on_c, 0, 77, 0
4, 231900, Note_on_c, 0, 71, 100
4, 231958, Note_on_c, 0, 71, 0
4, 231960, Note_on_c, 0, 69, 100
4, 232018, Note_on_c, 0, 69, 0
4, 232020, Note_on_c, 0, 68, 100
4, 232078, Note_on_c, 0, 68, 0
4, 232080, Note_on_c, 0, 66, 100
4, 232138, Note_on_c, 0, 66, 0
4, 232140, Note_on_c, 0, 74, 100
4, 232198, Note_on_c, 0, 74, 0
4, 232200, Note_on_c, 0, 73, 100
4, 232258, Note_on_c, 0, 73, 0
4, 232260, Note_on_c, 0, 71, 100
4, 232318, Note_on_c, 0, 71, 0
4, 232320, Note_on_c, 0, 71, 100
4, 232378, Note_on_c, 0, 71, 0
4, 232380, Note_on_c, 0, 69, 100
4, 232438, Note_on_c, 0, 69, 0
4, 232440, Note_on_c, 0, 68, 100
4, 232498, Note_on_c, 0, 68, 0
4, 232500, Note_on_c, 0, 80, 100
4, 232558, Note_on_c, 0, 80, 0
4, 232560, Note_on_c, 0, 81, 100
4, 232618, Note_on_c, 0, 81, 0
4, 232620, Note_on_c, 0, 83, 100
4, 232678, Note_on_c, 0, 83, 0
4, 232680, Note_on_c, 0, 85, 100
4, 232738, Note_on_c, 0, 85, 0
4, 232740, Note_on_c, 0, 77, 100
4, 232798, Note_on_c, 0, 77, 0
4, 232800, Note_on_c, 0, 78, 100
4, 232858, Note_on_c, 0, 78, 0
4, 232860, Note_on_c, 0, 66, 100
4, 232978, Note_on_c, 0, 66, 0
4, 234420, Note_on_c, 0, 73, 100
4, 234478, Note_on_c, 0, 73, 0
4, 234480, Note_on_c, 0, 78, 100
4, 234538, Note_on_c, 0, 78, 0
4, 234540, Note_on_c, 0, 81, 100
4, 234598, Note_on_c, 0, 81, 0
4, 234600, Note_on_c, 0, 80, 100
4, 234718, Note_on_c, 0, 80, 0
4, 234720, Note_on_c, 0, 74, 100
4, 234778, Note_on_c, 0, 74, 0
4, 234780, Note_on_c, 0, 73, 100
4, 234898, Note_on_c, 0, 73, 0
4, 234900, Note_on_c, 0, 83, 100
4, 234958, Note_on_c, 0, 83, 0
4, 234960, Note_on_c, 0, 81, 100
4, 235078, Note_on_c, 0, 81, 0
4, 235080, Note_on_c, 0, 76, 100
4, 235138, Note_on_c, 0, 76, 0
4, 235140, Note_on_c, 0, 75, 100
4, 235258, Note_on_c, 0, 75, 0
4, 235260, Note_on_c, 0, 85, 100
4, 235318, Note_on_c, 0, 85, 0
4, 235320, Note_on_c, 0, 83, 100
4, 235438, Note_on_c, 0, 83, 0
4, 235440, Note_on_c, 0, 78, 100
4, 235498, Note_on_c, 0, 78, 0
4, 235500, Note_on_c, 0, 77, 100
4, 235618, Note_on_c, 0, 77, 0
4, 235620, Note_on_c, 0, 86, 100
4, 235678, Note_on_c, 0, 86, 0
4, 235680, Note_on_c, 0, 85, 100
4, 235738, Note_on_c, 0, 85, 0
4, 235800, Note_on_c, 0, 77, 100
4, 235858, Note_on_c, 0, 77, 0
4, 235860, Note_on_c, 0, 78, 100
4, 235918, Note_on_c, 0, 78, 0
4, 235920, Note_on_c, 0, 86, 100
4, 235978, Note_on_c, 0, 86, 0
4, 235980, Note_on_c, 0, 77, 100
4, 236038, Note_on_c, 0, 77, 0
4, 236040, Note_on_c, 0, 78, 100
4, 236098, Note_on_c, 0, 78, 0
4, 236100, Note_on_c, 0, 85, 100
4, 236158, Note_on_c, 0, 85, 0
4, 236160, Note_on_c, 0, 77, 100
4, 236218, Note_on_c, 0, 77, 0
4, 236220, Note_on_c, 0, 78, 100
4, 236278, Note_on_c, 0, 78, 0
4, 236280, Note_on_c, 0, 83, 100
4, 236338, Note_on_c, 0, 83, 0
4, 236340, Note_on_c, 0, 77, 100
4, 236398, Note_on_c, 0, 77, 0
4, 236400, Note_on_c, 0, 78, 100
4, 236458, Note_on_c, 0, 78, 0
4, 236460, Note_on_c, 0, 81, 100
4, 236518, Note_on_c, 0, 81, 0
4, 236520, Note_on_c, 0, 77, 100
4, 236578, Note_on_c, 0, 77, 0
4, 236580, Note_on_c, 0, 78, 100
4, 236638, Note_on_c, 0, 78, 0
4, 236640, Note_on_c, 0, 80, 100
4, 236698, Note_on_c, 0, 80, 0
4, 236700, Note_on_c, 0, 83, 100
4, 236758, Note_on_c, 0, 83, 0
4, 236760, Note_on_c, 0, 86, 100
4, 236818, Note_on_c, 0, 86, 0
4, 236820, Note_on_c, 0, 83, 100
4, 236878, Note_on_c, 0, 83, 0
4, 236880, Note_on_c, 0, 80, 100
4, 236938, Note_on_c, 0, 80, 0
4, 236940, Note_on_c, 0, 78, 100
4, 236998, Note_on_c, 0, 78, 0
4, 237000, Note_on_c, 0, 77, 100
4, 237058, Note_on_c, 0, 77, 0
4, 237060, Note_on_c, 0, 80, 100
4, 237118, Note_on_c, 0, 80, 0
4, 237120, Note_on_c, 0, 85, 100
4, 237178, Note_on_c, 0, 85, 0
4, 237180, Note_on_c, 0, 83, 100
4, 237238, Note_on_c, 0, 83, 0
4, 237240, Note_on_c, 0, 81, 100
4, 237298, Note_on_c, 0, 81, 0
4, 237300, Note_on_c, 0, 80, 100
4, 237358, Note_on_c, 0, 80, 0
4, 237360, Note_on_c, 0, 80, 100
4, 237420, Note_on_c, 0, 80, 0
4, 237420, Note_on_c, 0, 81, 100
4, 237540, Note_on_c, 0, 81, 0
4, 237660, Note_on_c, 0, 78, 100
4, 237718, Note_on_c, 0, 78, 0
4, 237720, Note_on_c, 0, 78, 100
4, 237778, Note_on_c, 0, 78, 0
4, 237780, Note_on_c, 0, 83, 100
4, 237838, Note_on_c, 0, 83, 0
4, 237840, Note_on_c, 0, 86, 100
4, 237898, Note_on_c, 0, 86, 0
4, 237900, Note_on_c, 0, 82, 100
4, 237958, Note_on_c, 0, 82, 0
4, 237960, Note_on_c, 0, 83, 100
4, 238018, Note_on_c, 0, 83, 0
4, 238020, Note_on_c, 0, 78, 100
4, 238078, Note_on_c, 0, 78, 0
4, 238080, Note_on_c, 0, 78, 100
4, 238140, Note_on_c, 0, 78, 0
4, 238140, Note_on_c, 0, 80, 100
4, 238260, Note_on_c, 0, 80, 0
4, 238380, Note_on_c, 0, 76, 100
4, 238438, Note_on_c, 0, 76, 0
4, 238440, Note_on_c, 0, 76, 100
4, 238498, Note_on_c, 0, 76, 0
4, 238500, Note_on_c, 0, 81, 100
4, 238558, Note_on_c, 0, 81, 0
4, 238560, Note_on_c, 0, 85, 100
4, 238618, Note_on_c, 0, 85, 0
4, 238620, Note_on_c, 0, 80, 100
4, 238678, Note_on_c, 0, 80, 0
4, 238680, Note_on_c, 0, 81, 100
4, 238738, Note_on_c, 0, 81, 0
4, 238740, Note_on_c, 0, 77, 100
4, 238798, Note_on_c, 0, 77, 0
4, 238800, Note_on_c, 0, 86, 100
4, 238918, Note_on_c, 0, 86, 0
4, 238920, Note_on_c, 0, 74, 100
4, 238978, Note_on_c, 0, 74, 0
4, 238980, Note_on_c, 0, 78, 100
4, 239098, Note_on_c, 0, 78, 0
4, 239100, Note_on_c, 0, 83, 100
4, 239158, Note_on_c, 0, 83, 0
4, 239160, Note_on_c, 0, 85, 100
4, 239278, Note_on_c, 0, 85, 0
4, 239280, Note_on_c, 0, 73, 100
4, 239338, Note_on_c, 0, 73, 0
4, 239340, Note_on_c, 0, 78, 100
4, 239458, Note_on_c, 0, 78, 0
4, 239460, Note_on_c, 0, 81, 100
4, 239518, Note_on_c, 0, 81, 0
4, 239520, Note_on_c, 0, 83, 100
4, 239638, Note_on_c, 0, 83, 0
4, 239640, Note_on_c, 0, 86, 100
4, 239698, Note_on_c, 0, 86, 0
4, 239700, Note_on_c, 0, 78, 100
4, 239818, Note_on_c, 0, 78, 0
4, 239820, Note_on_c, 0, 86, 100
4, 239878, Note_on_c, 0, 86, 0
4, 239880, Note_on_c, 0, 81, 100
4, 239998, Note_on_c, 0, 81, 0
4, 240000, Note_on_c, 0, 85, 100
4, 240058, Note_on_c, 0, 85, 0
4, 240060, Note_on_c, 0, 78, 100
4, 240178, Note_on_c, 0, 78, 0
4, 240180, Note_on_c, 0, 85, 100
4, 240238, Note_on_c, 0, 85, 0
4, 240240, Note_on_c, 0, 74, 100
4, 240358, Note_on_c, 0, 74, 0
4, 240360, Note_on_c, 0, 83, 100
4, 240418, Note_on_c, 0, 83, 0
4, 240420, Note_on_c, 0, 77, 100
4, 240538, Note_on_c, 0, 77, 0
4, 240540, Note_on_c, 0, 78, 100
4, 240598, Note_on_c, 0, 78, 0
4, 240600, Note_on_c, 0, 77, 100
4, 240658, Note_on_c, 0, 77, 0
4, 240660, Note_on_c, 0, 75, 100
4, 240718, Note_on_c, 0, 75, 0
4, 240720, Note_on_c, 0, 73, 100
4, 240778, Note_on_c, 0, 73, 0
4, 240780, Note_on_c, 0, 80, 100
4, 240997, Note_on_c, 0, 80, 0
4, 241021, Note_on_c, 0, 77, 100
4, 241079, Note_on_c, 0, 77, 0
4, 241081, Note_on_c, 0, 78, 100
4, 241139, Note_on_c, 0, 78, 0
4, 241141, Note_on_c, 0, 69, 100
4, 241199, Note_on_c, 0, 69, 0
4, 241201, Note_on_c, 0, 71, 100
4, 241259, Note_on_c, 0, 71, 0
4, 241261, Note_on_c, 0, 68, 100
4, 241319, Note_on_c, 0, 68, 0
4, 241321, Note_on_c, 0, 66, 100
4, 241619, Note_on_c, 0, 66, 0
4, 241620, Note_on_c, 0, 66, 100
4, 241678, Note_on_c, 0, 66, 0
4, 241680, Note_on_c, 0, 71, 100
4, 241738, Note_on_c, 0, 71, 0
4, 241740, Note_on_c, 0, 74, 100
4, 241798, Note_on_c, 0, 74, 0
4, 241800, Note_on_c, 0, 73, 100
4, 241918, Note_on_c, 0, 73, 0
4, 241920, Note_on_c, 0, 67, 100
4, 241978, Note_on_c, 0, 67, 0
4, 241980, Note_on_c, 0, 66, 100
4, 242098, Note_on_c, 0, 66, 0
4, 242100, Note_on_c, 0, 76, 100
4, 242158, Note_on_c, 0, 76, 0
4, 242160, Note_on_c, 0, 74, 100
4, 242278, Note_on_c, 0, 74, 0
4, 242280, Note_on_c, 0, 69, 100
4, 242338, Note_on_c, 0, 69, 0
4, 242340, Note_on_c, 0, 68, 100
4, 242458, Note_on_c, 0, 68, 0
4, 242460, Note_on_c, 0, 78, 100
4, 242518, Note_on_c, 0, 78, 0
4, 242520, Note_on_c, 0, 76, 100
4, 242638, Note_on_c, 0, 76, 0
4, 242640, Note_on_c, 0, 71, 100
4, 242698, Note_on_c, 0, 71, 0
4, 242700, Note_on_c, 0, 70, 100
4, 242818, Note_on_c, 0, 70, 0
4, 242820, Note_on_c, 0, 79, 100
4, 242878, Note_on_c, 0, 79, 0
4, 242880, Note_on_c, 0, 78, 100
4, 242938, Note_on_c, 0, 78, 0
4, 243000, Note_on_c, 0, 70, 100
4, 243058, Note_on_c, 0, 70, 0
4, 243060, Note_on_c, 0, 71, 100
4, 243118, Note_on_c, 0, 71, 0
4, 243120, Note_on_c, 0, 79, 100
4, 243178, Note_on_c, 0, 79, 0
4, 243180, Note_on_c, 0, 70, 100
4, 243238, Note_on_c, 0, 70, 0
4, 243240, Note_on_c, 0, 71, 100
4, 243298, Note_on_c, 0, 71, 0
4, 243300, Note_on_c, 0, 78, 100
4, 243358, Note_on_c, 0, 78, 0
4, 243360, Note_on_c, 0, 70, 100
4, 243418, Note_on_c, 0, 70, 0
4, 243420, Note_on_c, 0, 71, 100
4, 243478, Note_on_c, 0, 71, 0
4, 243480, Note_on_c, 0, 76, 100
4, 243538, Note_on_c, 0, 76, 0
4, 243540, Note_on_c, 0, 70, 100
4, 243598, Note_on_c, 0, 70, 0
4, 243600, Note_on_c, 0, 71, 100
4, 243658, Note_on_c, 0, 71, 0
4, 243660, Note_on_c, 0, 74, 100
4, 243718, Note_on_c, 0, 74, 0
4, 243720, Note_on_c, 0, 70, 100
4, 243778, Note_on_c, 0, 70, 0
4, 243780, Note_on_c, 0, 71, 100
4, 243838, Note_on_c, 0, 71, 0
4, 243840, Note_on_c, 0, 73, 100
4, 243898, Note_on_c, 0, 73, 0
4, 243900, Note_on_c, 0, 76, 100
4, 243958, Note_on_c, 0, 76, 0
4, 243960, Note_on_c, 0, 79, 100
4, 244018, Note_on_c, 0, 79, 0
4, 244020, Note_on_c, 0, 76, 100
4, 244078, Note_on_c, 0, 76, 0
4, 244080, Note_on_c, 0, 73, 100
4, 244138, Note_on_c, 0, 73, 0
4, 244140, Note_on_c, 0, 71, 100
4, 244198, Note_on_c, 0, 71, 0
4, 244200, Note_on_c, 0, 70, 100
4, 244258, Note_on_c, 0, 70, 0
4, 244260, Note_on_c, 0, 73, 100
4, 244318, Note_on_c, 0, 73, 0
4, 244320, Note_on_c, 0, 78, 100
4, 244378, Note_on_c, 0, 78, 0
4, 244380, Note_on_c, 0, 76, 100
4, 244438, Note_on_c, 0, 76, 0
4, 244440, Note_on_c, 0, 74, 100
4, 244498, Note_on_c, 0, 74, 0
4, 244500, Note_on_c, 0, 73, 100
4, 244558, Note_on_c, 0, 73, 0
4, 244560, Note_on_c, 0, 74, 100
4, 244618, Note_on_c, 0, 74, 0
4, 244620, Note_on_c, 0, 71, 100
4, 244678, Note_on_c, 0, 71, 0
4, 244680, Note_on_c, 0, 66, 100
4, 244738, Note_on_c, 0, 66, 0
4, 244740, Note_on_c, 0, 70, 100
4, 244798, Note_on_c, 0, 70, 0
4, 244800, Note_on_c, 0, 73, 100
4, 244858, Note_on_c, 0, 73, 0
4, 244860, Note_on_c, 0, 76, 100
4, 244918, Note_on_c, 0, 76, 0
4, 244920, Note_on_c, 0, 74, 100
4, 244978, Note_on_c, 0, 74, 0
4, 244980, Note_on_c, 0, 73, 100
4, 245038, Note_on_c, 0, 73, 0
4, 245040, Note_on_c, 0, 71, 100
4, 245098, Note_on_c, 0, 71, 0
4, 245100, Note_on_c, 0, 83, 100
4, 245218, Note_on_c, 0, 83, 0
4, 245220, Note_on_c, 0, 74, 100
4, 245278, Note_on_c, 0, 74, 0
4, 245280, Note_on_c, 0, 76, 100
4, 245338, Note_on_c, 0, 76, 0
4, 245340, Note_on_c, 0, 74, 100
4, 245398, Note_on_c, 0, 74, 0
4, 245400, Note_on_c, 0, 73, 100
4, 245458, Note_on_c, 0, 73, 0
4, 245460, Note_on_c, 0, 85, 100
4, 245578, Note_on_c, 0, 85, 0
4, 245580, Note_on_c, 0, 76, 100
4, 245638, Note_on_c, 0, 76, 0
4, 245640, Note_on_c, 0, 78, 100
4, 245698, Note_on_c, 0, 78, 0
4, 245700, Note_on_c, 0, 76, 100
4, 245758, Note_on_c, 0, 76, 0
4, 245760, Note_on_c, 0, 74, 100
4, 245818, Note_on_c, 0, 74, 0
4, 245820, Note_on_c, 0, 86, 100
4, 245938, Note_on_c, 0, 86, 0
4, 245940, Note_on_c, 0, 78, 100
4, 245998, Note_on_c, 0, 78, 0
4, 246000, Note_on_c, 0, 76, 100
4, 246058, Note_on_c, 0, 76, 0
4, 246060, Note_on_c, 0, 78, 100
4, 246118, Note_on_c, 0, 78, 0
4, 246120, Note_on_c, 0, 79, 100
4, 246178, Note_on_c, 0, 79, 0
4, 246180, Note_on_c, 0, 78, 100
4, 246238, Note_on_c, 0, 78, 0
4, 246240, Note_on_c, 0, 76, 100
4, 246298, Note_on_c, 0, 76, 0
4, 246300, Note_on_c, 0, 74, 100
4, 246358, Note_on_c, 0, 74, 0
4, 246360, Note_on_c, 0, 73, 100
4, 246478, Note_on_c, 0, 73, 0
4, 246480, Note_on_c, 0, 88, 100
4, 246538, Note_on_c, 0, 88, 0
4, 246540, Note_on_c, 0, 71, 100
4, 246658, Note_on_c, 0, 71, 0
4, 246660, Note_on_c, 0, 86, 100
4, 246718, Note_on_c, 0, 86, 0
4, 246721, Note_on_c, 0, 76, 100
4, 246839, Note_on_c, 0, 76, 0
4, 246841, Note_on_c, 0, 85, 100
4, 246899, Note_on_c, 0, 85, 0
4, 246901, Note_on_c, 0, 82, 100
4, 247019, Note_on_c, 0, 82, 0
4, 247021, Note_on_c, 0, 83, 100
4, 247071, Note_on_c, 0, 83, 0
4, 247080, Note_on_c, 0, 83, 100
4, 247140, Note_on_c, 0, 83, 0
4, 247140, Note_on_c, 0, 85, 100
4, 247380, Note_on_c, 0, 85, 0
4, 247380, Note_on_c, 0, 78, 100
4, 247440, Note_on_c, 0, 78, 0
4, 247440, Note_on_c, 0, 78, 100
4, 247498, Note_on_c, 0, 78, 0
4, 247500, Note_on_c, 0, 83, 100
4, 247558, Note_on_c, 0, 83, 0
4, 247560, Note_on_c, 0, 86, 100
4, 247618, Note_on_c, 0, 86, 0
4, 247620, Note_on_c, 0, 82, 100
4, 247678, Note_on_c, 0, 82, 0
4, 247680, Note_on_c, 0, 83, 100
4, 247738, Note_on_c, 0, 83, 0
4, 247740, Note_on_c, 0, 78, 100
4, 247798, Note_on_c, 0, 78, 0
4, 247800, Note_on_c, 0, 78, 100
4, 247860, Note_on_c, 0, 78, 0
4, 247860, Note_on_c, 0, 79, 100
4, 247980, Note_on_c, 0, 79, 0
4, 248100, Note_on_c, 0, 76, 100
4, 248158, Note_on_c, 0, 76, 0
4, 248160, Note_on_c, 0, 76, 100
4, 248218, Note_on_c, 0, 76, 0
4, 248220, Note_on_c, 0, 81, 100
4, 248278, Note_on_c, 0, 81, 0
4, 248280, Note_on_c, 0, 85, 100
4, 248338, Note_on_c, 0, 85, 0
4, 248340, Note_on_c, 0, 80, 100
4, 248398, Note_on_c, 0, 80, 0
4, 248400, Note_on_c, 0, 81, 100
4, 248458, Note_on_c, 0, 81, 0
4, 248460, Note_on_c, 0, 76, 100
4, 248518, Note_on_c, 0, 76, 0
4, 248520, Note_on_c, 0, 76, 100
4, 248580, Note_on_c, 0, 76, 0
4, 248580, Note_on_c, 0, 78, 100
4, 248700, Note_on_c, 0, 78, 0
4, 248820, Note_on_c, 0, 74, 100
4, 248878, Note_on_c, 0, 74, 0
4, 248880, Note_on_c, 0, 74, 100
4, 248938, Note_on_c, 0, 74, 0
4, 248940, Note_on_c, 0, 73, 100
4, 248998, Note_on_c, 0, 73, 0
4, 249000, Note_on_c, 0, 74, 100
4, 249058, Note_on_c, 0, 74, 0
4, 249060, Note_on_c, 0, 83, 100
4, 249118, Note_on_c, 0, 83, 0
4, 249120, Note_on_c, 0, 81, 100
4, 249178, Note_on_c, 0, 81, 0
4, 249180, Note_on_c, 0, 79, 100
4, 249238, Note_on_c, 0, 79, 0
4, 249240, Note_on_c, 0, 74, 100
4, 249298, Note_on_c, 0, 74, 0
4, 249300, Note_on_c, 0, 73, 100
4, 249358, Note_on_c, 0, 73, 0
4, 249360, Note_on_c, 0, 74, 100
4, 249418, Note_on_c, 0, 74, 0
4, 249420, Note_on_c, 0, 81, 100
4, 249478, Note_on_c, 0, 81, 0
4, 249480, Note_on_c, 0, 79, 100
4, 249538, Note_on_c, 0, 79, 0
4, 249540, Note_on_c, 0, 78, 100
4, 249598, Note_on_c, 0, 78, 0
4, 249600, Note_on_c, 0, 74, 100
4, 249658, Note_on_c, 0, 74, 0
4, 249660, Note_on_c, 0, 73, 100
4, 249718, Note_on_c, 0, 73, 0
4, 249720, Note_on_c, 0, 74, 100
4, 249778, Note_on_c, 0, 74, 0
4, 249780, Note_on_c, 0, 79, 100
4, 249838, Note_on_c, 0, 79, 0
4, 249840, Note_on_c, 0, 78, 100
4, 249898, Note_on_c, 0, 78, 0
4, 249900, Note_on_c, 0, 76, 100
4, 249958, Note_on_c, 0, 76, 0
4, 249960, Note_on_c, 0, 74, 100
4, 250018, Note_on_c, 0, 74, 0
4, 250020, Note_on_c, 0, 73, 100
4, 250078, Note_on_c, 0, 73, 0
4, 250080, Note_on_c, 0, 74, 100
4, 250138, Note_on_c, 0, 74, 0
4, 250140, Note_on_c, 0, 78, 100
4, 250198, Note_on_c, 0, 78, 0
4, 250200, Note_on_c, 0, 76, 100
4, 250258, Note_on_c, 0, 76, 0
4, 250260, Note_on_c, 0, 74, 100
4, 250318, Note_on_c, 0, 74, 0
4, 250320, Note_on_c, 0, 76, 100
4, 250378, Note_on_c, 0, 76, 0
4, 250380, Note_on_c, 0, 79, 100
4, 250438, Note_on_c, 0, 79, 0
4, 250440, Note_on_c, 0, 83, 100
4, 250498, Note_on_c, 0, 83, 0
4, 250500, Note_on_c, 0, 81, 100
4, 250558, Note_on_c, 0, 81, 0
4, 250560, Note_on_c, 0, 79, 100
4, 250618, Note_on_c, 0, 79, 0
4, 250620, Note_on_c, 0, 78, 100
4, 250678, Note_on_c, 0, 78, 0
4, 250680, Note_on_c, 0, 76, 100
4, 250738, Note_on_c, 0, 76, 0
4, 250740, Note_on_c, 0, 74, 100
4, 250798, Note_on_c, 0, 74, 0
4, 250800, Note_on_c, 0, 73, 100
4, 250858, Note_on_c, 0, 73, 0
4, 250860, Note_on_c, 0, 71, 100
4, 250918, Note_on_c, 0, 71, 0
4, 250920, Note_on_c, 0, 69, 100
4, 250978, Note_on_c, 0, 69, 0
4, 250980, Note_on_c, 0, 67, 100
4, 251038, Note_on_c, 0, 67, 0
4, 251040, Note_on_c, 0, 66, 100
4, 251158, Note_on_c, 0, 66, 0
4, 251160, Note_on_c, 0, 81, 100
4, 251218, Note_on_c, 0, 81, 0
4, 251220, Note_on_c, 0, 69, 100
4, 251278, Note_on_c, 0, 69, 0
4, 251280, Note_on_c, 0, 74, 100
4, 251338, Note_on_c, 0, 74, 0
4, 251340, Note_on_c, 0, 73, 100
4, 251398, Note_on_c, 0, 73, 0
4, 251400, Note_on_c, 0, 74, 100
4, 251458, Note_on_c, 0, 74, 0
4, 251460, Note_on_c, 0, 69, 100
4, 251518, Note_on_c, 0, 69, 0
4, 251520, Note_on_c, 0, 74, 100
4, 251578, Note_on_c, 0, 74, 0
4, 251580, Note_on_c, 0, 78, 100
4, 251638, Note_on_c, 0, 78, 0
4, 251640, Note_on_c, 0, 74, 100
4, 251698, Note_on_c, 0, 74, 0
4, 251700, Note_on_c, 0, 78, 100
4, 251758, Note_on_c, 0, 78, 0
4, 251760, Note_on_c, 0, 81, 100
4, 251818, Note_on_c, 0, 81, 0
4, 251820, Note_on_c, 0, 78, 100
4, 251878, Note_on_c, 0, 78, 0
4, 251880, Note_on_c, 0, 74, 100
4, 251938, Note_on_c, 0, 74, 0
4, 251940, Note_on_c, 0, 81, 100
4, 252178, Note_on_c, 0, 81, 0
4, 252180, Note_on_c, 0, 74, 100
4, 252238, Note_on_c, 0, 74, 0
4, 252240, Note_on_c, 0, 79, 100
4, 252298, Note_on_c, 0, 79, 0
4, 252300, Note_on_c, 0, 83, 100
4, 252538, Note_on_c, 0, 83, 0
4, 252540, Note_on_c, 0, 80, 100
4, 252598, Note_on_c, 0, 80, 0
4, 252600, Note_on_c, 0, 76, 100
4, 252658, Note_on_c, 0, 76, 0
4, 252660, Note_on_c, 0, 83, 100
4, 252900, Note_on_c, 0, 83, 0
4, 252900, Note_on_c, 0, 76, 100
4, 252958, Note_on_c, 0, 76, 0
4, 252960, Note_on_c, 0, 81, 100
4, 253018, Note_on_c, 0, 81, 0
4, 253020, Note_on_c, 0, 85, 100
4, 253258, Note_on_c, 0, 85, 0
4, 253260, Note_on_c, 0, 82, 100
4, 253318, Note_on_c, 0, 82, 0
4, 253320, Note_on_c, 0, 78, 100
4, 253378, Note_on_c, 0, 78, 0
4, 253380, Note_on_c, 0, 85, 100
4, 253618, Note_on_c, 0, 85, 0
4, 253620, Note_on_c, 0, 78, 100
4, 253678, Note_on_c, 0, 78, 0
4, 253680, Note_on_c, 0, 83, 100
4, 253738, Note_on_c, 0, 83, 0
4, 253740, Note_on_c, 0, 86, 100
4, 253978, Note_on_c, 0, 86, 0
4, 253980, Note_on_c, 0, 83, 100
4, 254038, Note_on_c, 0, 83, 0
4, 254040, Note_on_c, 0, 80, 100
4, 254098, Note_on_c, 0, 80, 0
4, 254100, Note_on_c, 0, 78, 100
4, 254158, Note_on_c, 0, 78, 0
4, 254160, Note_on_c, 0, 77, 100
4, 254218, Note_on_c, 0, 77, 0
4, 254220, Note_on_c, 0, 78, 100
4, 254278, Note_on_c, 0, 78, 0
4, 254280, Note_on_c, 0, 85, 100
4, 254398, Note_on_c, 0, 85, 0
4, 254400, Note_on_c, 0, 80, 100
4, 254458, Note_on_c, 0, 80, 0
4, 254460, Note_on_c, 0, 78, 100
4, 254520, Note_on_c, 0, 78, 0
4, 254520, Note_on_c, 0, 77, 100
4, 254640, Note_on_c, 0, 77, 0
4, 254940, Note_on_c, 0, 71, 100
4, 254998, Note_on_c, 0, 71, 0
4, 255000, Note_on_c, 0, 69, 100
4, 255058, Note_on_c, 0, 69, 0
4, 255060, Note_on_c, 0, 68, 100
4, 255118, Note_on_c, 0, 68, 0
4, 255120, Note_on_c, 0, 66, 100
4, 255178, Note_on_c, 0, 66, 0
4, 255180, Note_on_c, 0, 74, 100
4, 255238, Note_on_c, 0, 74, 0
4, 255240, Note_on_c, 0, 73, 100
4, 255298, Note_on_c, 0, 73, 0
4, 255300, Note_on_c, 0, 71, 100
4, 255358, Note_on_c, 0, 71, 0
4, 255360, Note_on_c, 0, 71, 100
4, 255418, Note_on_c, 0, 71, 0
4, 255420, Note_on_c, 0, 69, 100
4, 255478, Note_on_c, 0, 69, 0
4, 255480, Note_on_c, 0, 68, 100
4, 255538, Note_on_c, 0, 68, 0
4, 255540, Note_on_c, 0, 80, 100
4, 255598, Note_on_c, 0, 80, 0
4, 255600, Note_on_c, 0, 81, 100
4, 255658, Note_on_c, 0, 81, 0
4, 255660, Note_on_c, 0, 83, 100
4, 255718, Note_on_c, 0, 83, 0
4, 255720, Note_on_c, 0, 85, 100
4, 255778, Note_on_c, 0, 85, 0
4, 255780, Note_on_c, 0, 77, 100
4, 255838, Note_on_c, 0, 77, 0
4, 255840, Note_on_c, 0, 78, 100
4, 255898, Note_on_c, 0, 78, 0
4, 255900, Note_on_c, 0, 66, 100
4, 256018, Note_on_c, 0, 66, 0
4, 257460, Note_on_c, 0, 73, 100
4, 257518, Note_on_c, 0, 73, 0
4, 257520, Note_on_c, 0, 78, 100
4, 257578, Note_on_c, 0, 78, 0
4, 257580, Note_on_c, 0, 81, 100
4, 257638, Note_on_c, 0, 81, 0
4, 257640, Note_on_c, 0, 80, 100
4, 257758, Note_on_c, 0, 80, 0
4, 257760, Note_on_c, 0, 74, 100
4, 257818, Note_on_c, 0, 74, 0
4, 257820, Note_on_c, 0, 73, 100
4, 257938, Note_on_c, 0, 73, 0
4, 257940, Note_on_c, 0, 83, 100
4, 257998, Note_on_c, 0, 83, 0
4, 258000, Note_on_c, 0, 81, 100
4, 258118, Note_on_c, 0, 81, 0
4, 258120, Note_on_c, 0, 76, 100
4, 258178, Note_on_c, 0, 76, 0
4, 258180, Note_on_c, 0, 75, 100
4, 258298, Note_on_c, 0, 75, 0
4, 258300, Note_on_c, 0, 85, 100
4, 258358, Note_on_c, 0, 85, 0
4, 258360, Note_on_c, 0, 83, 100
4, 258478, Note_on_c, 0, 83, 0
4, 258480, Note_on_c, 0, 78, 100
4, 258538, Note_on_c, 0, 78, 0
4, 258540, Note_on_c, 0, 77, 100
4, 258658, Note_on_c, 0, 77, 0
4, 258660, Note_on_c, 0, 86, 100
4, 258718, Note_on_c, 0, 86, 0
4, 258720, Note_on_c, 0, 85, 100
4, 258778, Note_on_c, 0, 85, 0
4, 258840, Note_on_c, 0, 77, 100
4, 258898, Note_on_c, 0, 77, 0
4, 258900, Note_on_c, 0, 78, 100
4, 258958, Note_on_c, 0, 78, 0
4, 258960, Note_on_c, 0, 86, 100
4, 259018, Note_on_c, 0, 86, 0
4, 259020, Note_on_c, 0, 77, 100
4, 259078, Note_on_c, 0, 77, 0
4, 259080, Note_on_c, 0, 78, 100
4, 259138, Note_on_c, 0, 78, 0
4, 259140, Note_on_c, 0, 85, 100
4, 259198, Note_on_c, 0, 85, 0
4, 259200, Note_on_c, 0, 77, 100
4, 259258, Note_on_c, 0, 77, 0
4, 259260, Note_on_c, 0, 78, 100
4, 259318, Note_on_c, 0, 78, 0
4, 259320, Note_on_c, 0, 83, 100
4, 259378, Note_on_c, 0, 83, 0
4, 259380, Note_on_c, 0, 77, 100
4, 259438, Note_on_c, 0, 77, 0
4, 259440, Note_on_c, 0, 78, 100
4, 259498, Note_on_c, 0, 78, 0
4, 259500, Note_on_c, 0, 81, 100
4, 259558, Note_on_c, 0, 81, 0
4, 259560, Note_on_c, 0, 77, 100
4, 259618, Note_on_c, 0, 77, 0
4, 259620, Note_on_c, 0, 78, 100
4, 259678, Note_on_c, 0, 78, 0
4, 259680, Note_on_c, 0, 80, 100
4, 259738, Note_on_c, 0, 80, 0
4, 259740, Note_on_c, 0, 83, 100
4, 259798, Note_on_c, 0, 83, 0
4, 259800, Note_on_c, 0, 86, 100
4, 259858, Note_on_c, 0, 86, 0
4, 259860, Note_on_c, 0, 83, 100
4, 259918, Note_on_c, 0, 83, 0
4, 259920, Note_on_c, 0, 80, 100
4, 259978, Note_on_c, 0, 80, 0
4, 259980, Note_on_c, 0, 78, 100
4, 260038, Note_on_c, 0, 78, 0
4, 260040, Note_on_c, 0, 77, 100
4, 260098, Note_on_c, 0, 77, 0
4, 260100, Note_on_c, 0, 80, 100
4, 260158, Note_on_c, 0, 80, 0
4, 260160, Note_on_c, 0, 85, 100
4, 260218, Note_on_c, 0, 85, 0
4, 260220, Note_on_c, 0, 83, 100
4, 260278, Note_on_c, 0, 83, 0
4, 260280, Note_on_c, 0, 81, 100
4, 260338, Note_on_c, 0, 81, 0
4, 260340, Note_on_c, 0, 80, 100
4, 260398, Note_on_c, 0, 80, 0
4, 260400, Note_on_c, 0, 80, 100
4, 260430, Note_on_c, 0, 80, 0
4, 260460, Note_on_c, 0, 81, 100
4, 260578, Note_on_c, 0, 81, 0
4, 260700, Note_on_c, 0, 78, 100
4, 260758, Note_on_c, 0, 78, 0
4, 260760, Note_on_c, 0, 78, 100
4, 260818, Note_on_c, 0, 78, 0
4, 260820, Note_on_c, 0, 83, 100
4, 260878, Note_on_c, 0, 83, 0
4, 260880, Note_on_c, 0, 86, 100
4, 260938, Note_on_c, 0, 86, 0
4, 260940, Note_on_c, 0, 82, 100
4, 260998, Note_on_c, 0, 82, 0
4, 261000, Note_on_c, 0, 83, 100
4, 261058, Note_on_c, 0, 83, 0
4, 261060, Note_on_c, 0, 78, 100
4, 261118, Note_on_c, 0, 78, 0
4, 261120, Note_on_c, 0, 78, 100
4, 261180, Note_on_c, 0, 78, 0
4, 261180, Note_on_c, 0, 80, 100
4, 261300, Note_on_c, 0, 80, 0
4, 261420, Note_on_c, 0, 76, 100
4, 261478, Note_on_c, 0, 76, 0
4, 261480, Note_on_c, 0, 76, 100
4, 261538, Note_on_c, 0, 76, 0
4, 261540, Note_on_c, 0, 81, 100
4, 261598, Note_on_c, 0, 81, 0
4, 261600, Note_on_c, 0, 85, 100
4, 261658, Note_on_c, 0, 85, 0
4, 261660, Note_on_c, 0, 80, 100
4, 261718, Note_on_c, 0, 80, 0
4, 261720, Note_on_c, 0, 81, 100
4, 261778, Note_on_c, 0, 81, 0
4, 261780, Note_on_c, 0, 77, 100
4, 261838, Note_on_c, 0, 77, 0
4, 261840, Note_on_c, 0, 86, 100
4, 261958, Note_on_c, 0, 86, 0
4, 261960, Note_on_c, 0, 74, 100
4, 262018, Note_on_c, 0, 74, 0
4, 262020, Note_on_c, 0, 78, 100
4, 262138, Note_on_c, 0, 78, 0
4, 262140, Note_on_c, 0, 83, 100
4, 262198, Note_on_c, 0, 83, 0
4, 262200, Note_on_c, 0, 85, 100
4, 262318, Note_on_c, 0, 85, 0
4, 262320, Note_on_c, 0, 73, 100
4, 262378, Note_on_c, 0, 73, 0
4, 262380, Note_on_c, 0, 78, 100
4, 262498, Note_on_c, 0, 78, 0
4, 262500, Note_on_c, 0, 81, 100
4, 262558, Note_on_c, 0, 81, 0
4, 262560, Note_on_c, 0, 83, 100
4, 262678, Note_on_c, 0, 83, 0
4, 262680, Note_on_c, 0, 86, 100
4, 262738, Note_on_c, 0, 86, 0
4, 262740, Note_on_c, 0, 78, 100
4, 262858, Note_on_c, 0, 78, 0
4, 262860, Note_on_c, 0, 86, 100
4, 262918, Note_on_c, 0, 86, 0
4, 262920, Note_on_c, 0, 81, 100
4, 263038, Note_on_c, 0, 81, 0
4, 263040, Note_on_c, 0, 85, 100
4, 263098, Note_on_c, 0, 85, 0
4, 263100, Note_on_c, 0, 78, 100
4, 263218, Note_on_c, 0, 78, 0
4, 263220, Note_on_c, 0, 85, 100
4, 263278, Note_on_c, 0, 85, 0
4, 263280, Note_on_c, 0, 74, 100
4, 263398, Note_on_c, 0, 74, 0
4, 263400, Note_on_c, 0, 83, 100
4, 263458, Note_on_c, 0, 83, 0
4, 263460, Note_on_c, 0, 77, 100
4, 263578, Note_on_c, 0, 77, 0
4, 263580, Note_on_c, 0, 78, 100
4, 263638, Note_on_c, 0, 78, 0
4, 263640, Note_on_c, 0, 77, 100
4, 263698, Note_on_c, 0, 77, 0
4, 263700, Note_on_c, 0, 75, 100
4, 263758, Note_on_c, 0, 75, 0
4, 263760, Note_on_c, 0, 73, 100
4, 263818, Note_on_c, 0, 73, 0
4, 263820, Note_on_c, 0, 80, 100
4, 264037, Note_on_c, 0, 80, 0
4, 264061, Note_on_c, 0, 77, 100
4, 264119, Note_on_c, 0, 77, 0
4, 264121, Note_on_c, 0, 78, 100
4, 264179, Note_on_c, 0, 78, 0
4, 264181, Note_on_c, 0, 69, 100
4, 264239, Note_on_c, 0, 69, 0
4, 264241, Note_on_c, 0, 71, 100
4, 264299, Note_on_c, 0, 71, 0
4, 264301, Note_on_c, 0, 68, 100
4, 264359, Note_on_c, 0, 68, 0
4, 264361, Note_on_c, 0, 66, 100
4, 264659, Note_on_c, 0, 66, 0
4, 264660, Note_on_c, 0, 85, 100
4, 264718, Note_on_c, 0, 85, 0
4, 264720, Note_on_c, 0, 76, 100
4, 264958, Note_on_c, 0, 76, 0
4, 264960, Note_on_c, 0, 74, 100
4, 265018, Note_on_c, 0, 74, 0
4, 265020, Note_on_c, 0, 73, 100
4, 265078, Note_on_c, 0, 73, 0
4, 265080, Note_on_c, 0, 74, 100
4, 265318, Note_on_c, 0, 74, 0
4, 265320, Note_on_c, 0, 73, 100
4, 265378, Note_on_c, 0, 73, 0
4, 265380, Note_on_c, 0, 71, 100
4, 265438, Note_on_c, 0, 71, 0
4, 265441, Note_on_c, 0, 73, 100
4, 265679, Note_on_c, 0, 73, 0
4, 265681, Note_on_c, 0, 71, 100
4, 265739, Note_on_c, 0, 71, 0
4, 265741, Note_on_c, 0, 70, 100
4, 265799, Note_on_c, 0, 70, 0
4, 265801, Note_on_c, 0, 71, 100
4, 265979, Note_on_c, 0, 71, 0
4, 266100, Note_on_c, 0, 83, 100
4, 266158, Note_on_c, 0, 83, 0
4, 266160, Note_on_c, 0, 87, 100
4, 266218, Note_on_c, 0, 87, 0
4, 266220, Note_on_c, 0, 90, 100
4, 266278, Note_on_c, 0, 90, 0
4, 266280, Note_on_c, 0, 84, 100
4, 266398, Note_on_c, 0, 84, 0
4, 266400, Note_on_c, 0, 83, 100
4, 266458, Note_on_c, 0, 83, 0
4, 266460, Note_on_c, 0, 82, 100
4, 266518, Note_on_c, 0, 82, 0
4, 266520, Note_on_c, 0, 83, 100
4, 266578, Note_on_c, 0, 83, 0
4, 266580, Note_on_c, 0, 90, 100
4, 266638, Note_on_c, 0, 90, 0
4, 266640, Note_on_c, 0, 83, 100
4, 266758, Note_on_c, 0, 83, 0
4, 266760, Note_on_c, 0, 81, 100
4, 266818, Note_on_c, 0, 81, 0
4, 266820, Note_on_c, 0, 80, 100
4, 266878, Note_on_c, 0, 80, 0
4, 266880, Note_on_c, 0, 81, 100
4, 266938, Note_on_c, 0, 81, 0
4, 266940, Note_on_c, 0, 90, 100
4, 266998, Note_on_c, 0, 90, 0
4, 267000, Note_on_c, 0, 81, 100
4, 267118, Note_on_c, 0, 81, 0
4, 267120, Note_on_c, 0, 79, 100
4, 267178, Note_on_c, 0, 79, 0
4, 267180, Note_on_c, 0, 78, 100
4, 267238, Note_on_c, 0, 78, 0
4, 267240, Note_on_c, 0, 79, 100
4, 267298, Note_on_c, 0, 79, 0
4, 267300, Note_on_c, 0, 81, 100
4, 267358, Note_on_c, 0, 81, 0
4, 267360, Note_on_c, 0, 83, 100
4, 267418, Note_on_c, 0, 83, 0
4, 267420, Note_on_c, 0, 76, 100
4, 267478, Note_on_c, 0, 76, 0
4, 267480, Note_on_c, 0, 79, 100
4, 267538, Note_on_c, 0, 79, 0
4, 267540, Note_on_c, 0, 71, 100
4, 267598, Note_on_c, 0, 71, 0
4, 267600, Note_on_c, 0, 72, 100
4, 267658, Note_on_c, 0, 72, 0
4, 267660, Note_on_c, 0, 77, 100
4, 267718, Note_on_c, 0, 77, 0
4, 267720, Note_on_c, 0, 76, 100
4, 267838, Note_on_c, 0, 76, 0
4, 267840, Note_on_c, 0, 77, 100
4, 267898, Note_on_c, 0, 77, 0
4, 267900, Note_on_c, 0, 75, 100
4, 267958, Note_on_c, 0, 75, 0
4, 267960, Note_on_c, 0, 76, 100
4, 268018, Note_on_c, 0, 76, 0
4, 268020, Note_on_c, 0, 81, 100
4, 268078, Note_on_c, 0, 81, 0
4, 268080, Note_on_c, 0, 79, 100
4, 268198, Note_on_c, 0, 79, 0
4, 268200, Note_on_c, 0, 81, 100
4, 268258, Note_on_c, 0, 81, 0
4, 268260, Note_on_c, 0, 78, 100
4, 268318, Note_on_c, 0, 78, 0
4, 268320, Note_on_c, 0, 79, 100
4, 268378, Note_on_c, 0, 79, 0
4, 268380, Note_on_c, 0, 84, 100
4, 268438, Note_on_c, 0, 84, 0
4, 268440, Note_on_c, 0, 83, 100
4, 268558, Note_on_c, 0, 83, 0
4, 268560, Note_on_c, 0, 84, 100
4, 268618, Note_on_c, 0, 84, 0
4, 268620, Note_on_c, 0, 82, 100
4, 268678, Note_on_c, 0, 82, 0
4, 268680, Note_on_c, 0, 83, 100
4, 270598, Note_on_c, 0, 83, 0
4, 270600, Note_on_c, 0, 81, 100
4, 270660, Note_on_c, 0, 81, 0
4, 270660, Note_on_c, 0, 83, 100
4, 270690, Note_on_c, 0, 83, 0
4, 270690, Note_on_c, 0, 81, 100
4, 270720, Note_on_c, 0, 81, 0
4, 270720, Note_on_c, 0, 83, 100
4, 270750, Note_on_c, 0, 83, 0
4, 270750, Note_on_c, 0, 81, 100
4, 270780, Note_on_c, 0, 81, 0
4, 270780, Note_on_c, 0, 80, 100
4, 270810, Note_on_c, 0, 80, 0
4, 270810, Note_on_c, 0, 81, 100
4, 270840, Note_on_c, 0, 81, 0
4, 270840, Note_on_c, 0, 88, 100
4, 270898, Note_on_c, 0, 88, 0
4, 270900, Note_on_c, 0, 84, 100
4, 270958, Note_on_c, 0, 84, 0
4, 270960, Note_on_c, 0, 81, 100
4, 271018, Note_on_c, 0, 81, 0
4, 271020, Note_on_c, 0, 79, 100
4, 271078, Note_on_c, 0, 79, 0
4, 271080, Note_on_c, 0, 81, 100
4, 271138, Note_on_c, 0, 81, 0
4, 271140, Note_on_c, 0, 78, 100
4, 271198, Note_on_c, 0, 78, 0
4, 271200, Note_on_c, 0, 83, 100
4, 271258, Note_on_c, 0, 83, 0
4, 271260, Note_on_c, 0, 73, 100
4, 271318, Note_on_c, 0, 73, 0
4, 271320, Note_on_c, 0, 74, 100
4, 271378, Note_on_c, 0, 74, 0
4, 271380, Note_on_c, 0, 81, 100
4, 271438, Note_on_c, 0, 81, 0
4, 271440, Note_on_c, 0, 73, 100
4, 271498, Note_on_c, 0, 73, 0
4, 271500, Note_on_c, 0, 74, 100
4, 271558, Note_on_c, 0, 74, 0
4, 271560, Note_on_c, 0, 79, 100
4, 271738, Note_on_c, 0, 79, 0
4, 273300, Note_on_c, 0, 74, 100
4, 273358, Note_on_c, 0, 74, 0
4, 273360, Note_on_c, 0, 79, 100
4, 273418, Note_on_c, 0, 79, 0
4, 273420, Note_on_c, 0, 83, 100
4, 273478, Note_on_c, 0, 83, 0
4, 273480, Note_on_c, 0, 81, 100
4, 273598, Note_on_c, 0, 81, 0
4, 273600, Note_on_c, 0, 76, 100
4, 273658, Note_on_c, 0, 76, 0
4, 273660, Note_on_c, 0, 74, 100
4, 273778, Note_on_c, 0, 74, 0
4, 273780, Note_on_c, 0, 84, 100
4, 273838, Note_on_c, 0, 84, 0
4, 273840, Note_on_c, 0, 83, 100
4, 273958, Note_on_c, 0, 83, 0
4, 273960, Note_on_c, 0, 77, 100
4, 274018, Note_on_c, 0, 77, 0
4, 274020, Note_on_c, 0, 76, 100
4, 274138, Note_on_c, 0, 76, 0
4, 274140, Note_on_c, 0, 86, 100
4, 274198, Note_on_c, 0, 86, 0
4, 274200, Note_on_c, 0, 84, 100
4, 274318, Note_on_c, 0, 84, 0
4, 274320, Note_on_c, 0, 79, 100
4, 274378, Note_on_c, 0, 79, 0
4, 274380, Note_on_c, 0, 78, 100
4, 274498, Note_on_c, 0, 78, 0
4, 274500, Note_on_c, 0, 88, 100
4, 274558, Note_on_c, 0, 88, 0
4, 274560, Note_on_c, 0, 86, 100
4, 274618, Note_on_c, 0, 86, 0
4, 274680, Note_on_c, 0, 78, 100
4, 274738, Note_on_c, 0, 78, 0
4, 274740, Note_on_c, 0, 79, 100
4, 274798, Note_on_c, 0, 79, 0
4, 274800, Note_on_c, 0, 88, 100
4, 274858, Note_on_c, 0, 88, 0
4, 274860, Note_on_c, 0, 78, 100
4, 274918, Note_on_c, 0, 78, 0
4, 274920, Note_on_c, 0, 79, 100
4, 274978, Note_on_c, 0, 79, 0
4, 274980, Note_on_c, 0, 86, 100
4, 275038, Note_on_c, 0, 86, 0
4, 275040, Note_on_c, 0, 78, 100
4, 275098, Note_on_c, 0, 78, 0
4, 275100, Note_on_c, 0, 79, 100
4, 275158, Note_on_c, 0, 79, 0
4, 275160, Note_on_c, 0, 84, 100
4, 275218, Note_on_c, 0, 84, 0
4, 275220, Note_on_c, 0, 75, 100
4, 275278, Note_on_c, 0, 75, 0
4, 275280, Note_on_c, 0, 76, 100
4, 275338, Note_on_c, 0, 76, 0
4, 275340, Note_on_c, 0, 83, 100
4, 275398, Note_on_c, 0, 83, 0
4, 275400, Note_on_c, 0, 75, 100
4, 275458, Note_on_c, 0, 75, 0
4, 275460, Note_on_c, 0, 76, 100
4, 275518, Note_on_c, 0, 76, 0
4, 275520, Note_on_c, 0, 82, 100
4, 275578, Note_on_c, 0, 82, 0
4, 275580, Note_on_c, 0, 75, 100
4, 275638, Note_on_c, 0, 75, 0
4, 275640, Note_on_c, 0, 76, 100
4, 275698, Note_on_c, 0, 76, 0
4, 275700, Note_on_c, 0, 83, 100
4, 275758, Note_on_c, 0, 83, 0
4, 275760, Note_on_c, 0, 75, 100
4, 275818, Note_on_c, 0, 75, 0
4, 275820, Note_on_c, 0, 76, 100
4, 275878, Note_on_c, 0, 76, 0
4, 275880, Note_on_c, 0, 85, 100
4, 275938, Note_on_c, 0, 85, 0
4, 275940, Note_on_c, 0, 75, 100
4, 275998, Note_on_c, 0, 75, 0
4, 276000, Note_on_c, 0, 76, 100
4, 276058, Note_on_c, 0, 76, 0
4, 276060, Note_on_c, 0, 79, 100
4, 276118, Note_on_c, 0, 79, 0
4, 276120, Note_on_c, 0, 78, 100
4, 276178, Note_on_c, 0, 78, 0
4, 276180, Note_on_c, 0, 76, 100
4, 276238, Note_on_c, 0, 76, 0
4, 276240, Note_on_c, 0, 75, 100
4, 276298, Note_on_c, 0, 75, 0
4, 276300, Note_on_c, 0, 78, 100
4, 276358, Note_on_c, 0, 78, 0
4, 276360, Note_on_c, 0, 72, 100
4, 276478, Note_on_c, 0, 72, 0
4, 276480, Note_on_c, 0, 71, 100
4, 276538, Note_on_c, 0, 71, 0
4, 276540, Note_on_c, 0, 70, 100
4, 276598, Note_on_c, 0, 70, 0
4, 276600, Note_on_c, 0, 71, 100
4, 276658, Note_on_c, 0, 71, 0
4, 276660, Note_on_c, 0, 78, 100
4, 276718, Note_on_c, 0, 78, 0
4, 276720, Note_on_c, 0, 71, 100
4, 276838, Note_on_c, 0, 71, 0
4, 276840, Note_on_c, 0, 69, 100
4, 276898, Note_on_c, 0, 69, 0
4, 276900, Note_on_c, 0, 68, 100
4, 276958, Note_on_c, 0, 68, 0
4, 276960, Note_on_c, 0, 69, 100
4, 277018, Note_on_c, 0, 69, 0
4, 277020, Note_on_c, 0, 78, 100
4, 277078, Note_on_c, 0, 78, 0
4, 277080, Note_on_c, 0, 69, 100
4, 277198, Note_on_c, 0, 69, 0
4, 277200, Note_on_c, 0, 67, 100
4, 277258, Note_on_c, 0, 67, 0
4, 277260, Note_on_c, 0, 66, 100
4, 277318, Note_on_c, 0, 66, 0
4, 277320, Note_on_c, 0, 67, 100
4, 277378, Note_on_c, 0, 67, 0
4, 277380, Note_on_c, 0, 71, 100
4, 277438, Note_on_c, 0, 71, 0
4, 277440, Note_on_c, 0, 76, 100
4, 277498, Note_on_c, 0, 76, 0
4, 277500, Note_on_c, 0, 79, 100
4, 277558, Note_on_c, 0, 79, 0
4, 277560, Note_on_c, 0, 78, 100
4, 277618, Note_on_c, 0, 78, 0
4, 277620, Note_on_c, 0, 76, 100
4, 277678, Note_on_c, 0, 76, 0
4, 277680, Note_on_c, 0, 88, 100
4, 277918, Note_on_c, 0, 88, 0
4, 277920, Note_on_c, 0, 86, 100
4, 277978, Note_on_c, 0, 86, 0
4, 277980, Note_on_c, 0, 85, 100
4, 278038, Note_on_c, 0, 85, 0
4, 278040, Note_on_c, 0, 86, 100
4, 278278, Note_on_c, 0, 86, 0
4, 278280, Note_on_c, 0, 85, 100
4, 278338, Note_on_c, 0, 85, 0
4, 278340, Note_on_c, 0, 83, 100
4, 278398, Note_on_c, 0, 83, 0
4, 278400, Note_on_c, 0, 85, 100
4, 278638, Note_on_c, 0, 85, 0
4, 278640, Note_on_c, 0, 83, 100
4, 278698, Note_on_c, 0, 83, 0
4, 278700, Note_on_c, 0, 82, 100
4, 278758, Note_on_c, 0, 82, 0
4, 278760, Note_on_c, 0, 83, 100
4, 278998, Note_on_c, 0, 83, 0
4, 279000, Note_on_c, 0, 71, 100
4, 279058, Note_on_c, 0, 71, 0
4, 279060, Note_on_c, 0, 81, 100
4, 279118, Note_on_c, 0, 81, 0
4, 279120, Note_on_c, 0, 79, 100
4, 279178, Note_on_c, 0, 79, 0
4, 279180, Note_on_c, 0, 83, 100
4, 279238, Note_on_c, 0, 83, 0
4, 279240, Note_on_c, 0, 76, 100
4, 279298, Note_on_c, 0, 76, 0
4, 279300, Note_on_c, 0, 74, 100
4, 279358, Note_on_c, 0, 74, 0
4, 279360, Note_on_c, 0, 73, 100
4, 279418, Note_on_c, 0, 73, 0
4, 279420, Note_on_c, 0, 71, 100
4, 279478, Note_on_c, 0, 71, 0
4, 279480, Note_on_c, 0, 73, 100
4, 279538, Note_on_c, 0, 73, 0
4, 279540, Note_on_c, 0, 69, 100
4, 279598, Note_on_c, 0, 69, 0
4, 279600, Note_on_c, 0, 73, 100
4, 279658, Note_on_c, 0, 73, 0
4, 279660, Note_on_c, 0, 76, 100
4, 279718, Note_on_c, 0, 76, 0
4, 279720, Note_on_c, 0, 78, 100
4, 279778, Note_on_c, 0, 78, 0
4, 279780, Note_on_c, 0, 79, 100
4, 279838, Note_on_c, 0, 79, 0
4, 279840, Note_on_c, 0, 78, 100
4, 279898, Note_on_c, 0, 78, 0
4, 279900, Note_on_c, 0, 81, 100
4, 279958, Note_on_c, 0, 81, 0
4, 279960, Note_on_c, 0, 74, 100
4, 280018, Note_on_c, 0, 74, 0
4, 280020, Note_on_c, 0, 72, 100
4, 280078, Note_on_c, 0, 72, 0
4, 280080, Note_on_c, 0, 71, 100
4, 280138, Note_on_c, 0, 71, 0
4, 280140, Note_on_c, 0, 69, 100
4, 280198, Note_on_c, 0, 69, 0
4, 280200, Note_on_c, 0, 71, 100
4, 280258, Note_on_c, 0, 71, 0
4, 280260, Note_on_c, 0, 67, 100
4, 280318, Note_on_c, 0, 67, 0
4, 280320, Note_on_c, 0, 71, 100
4, 280378, Note_on_c, 0, 71, 0
4, 280380, Note_on_c, 0, 74, 100
4, 280438, Note_on_c, 0, 74, 0
4, 280440, Note_on_c, 0, 76, 100
4, 280498, Note_on_c, 0, 76, 0
4, 280500, Note_on_c, 0, 78, 100
4, 280558, Note_on_c, 0, 78, 0
4, 280560, Note_on_c, 0, 76, 100
4, 280618, Note_on_c, 0, 76, 0
4, 280620, Note_on_c, 0, 79, 100
4, 280678, Note_on_c, 0, 79, 0
4, 280680, Note_on_c, 0, 73, 100
4, 280738, Note_on_c, 0, 73, 0
4, 280740, Note_on_c, 0, 71, 100
4, 280798, Note_on_c, 0, 71, 0
4, 280800, Note_on_c, 0, 70, 100
4, 280858, Note_on_c, 0, 70, 0
4, 280860, Note_on_c, 0, 67, 100
4, 280918, Note_on_c, 0, 67, 0
4, 280920, Note_on_c, 0, 70, 100
4, 280978, Note_on_c, 0, 70, 0
4, 280980, Note_on_c, 0, 66, 100
4, 281038, Note_on_c, 0, 66, 0
4, 281040, Note_on_c, 0, 70, 100
4, 281098, Note_on_c, 0, 70, 0
4, 281100, Note_on_c, 0, 73, 100
4, 281158, Note_on_c, 0, 73, 0
4, 281160, Note_on_c, 0, 77, 100
4, 281218, Note_on_c, 0, 77, 0
4, 281220, Note_on_c, 0, 78, 100
4, 281278, Note_on_c, 0, 78, 0
4, 281280, Note_on_c, 0, 71, 100
4, 281338, Note_on_c, 0, 71, 0
4, 281340, Note_on_c, 0, 68, 100
4, 281398, Note_on_c, 0, 68, 0
4, 281400, Note_on_c, 0, 71, 100
4, 281458, Note_on_c, 0, 71, 0
4, 281460, Note_on_c, 0, 74, 100
4, 281518, Note_on_c, 0, 74, 0
4, 281520, Note_on_c, 0, 77, 100
4, 281578, Note_on_c, 0, 77, 0
4, 281580, Note_on_c, 0, 78, 100
4, 281638, Note_on_c, 0, 78, 0
4, 281640, Note_on_c, 0, 73, 100
4, 281758, Note_on_c, 0, 73, 0
4, 281760, Note_on_c, 0, 85, 100
4, 281818, Note_on_c, 0, 85, 0
4, 281820, Note_on_c, 0, 82, 100
4, 281938, Note_on_c, 0, 82, 0
4, 281940, Note_on_c, 0, 76, 100
4, 281998, Note_on_c, 0, 76, 0
4, 282000, Note_on_c, 0, 74, 100
4, 282118, Note_on_c, 0, 74, 0
4, 282120, Note_on_c, 0, 86, 100
4, 282178, Note_on_c, 0, 86, 0
4, 282180, Note_on_c, 0, 83, 100
4, 282298, Note_on_c, 0, 83, 0
4, 282300, Note_on_c, 0, 78, 100
4, 282358, Note_on_c, 0, 78, 0
4, 282360, Note_on_c, 0, 76, 100
4, 282478, Note_on_c, 0, 76, 0
4, 282480, Note_on_c, 0, 88, 100
4, 282538, Note_on_c, 0, 88, 0
4, 282540, Note_on_c, 0, 85, 100
4, 282658, Note_on_c, 0, 85, 0
4, 282660, Note_on_c, 0, 82, 100
4, 282718, Note_on_c, 0, 82, 0
4, 282720, Note_on_c, 0, 78, 100
4, 282838, Note_on_c, 0, 78, 0
4, 282840, Note_on_c, 0, 83, 100
4, 282898, Note_on_c, 0, 83, 0
4, 282900, Note_on_c, 0, 74, 100
4, 283018, Note_on_c, 0, 74, 0
4, 283020, Note_on_c, 0, 78, 100
4, 283078, Note_on_c, 0, 78, 0
4, 283080, Note_on_c, 0, 70, 100
4, 283258, Note_on_c, 0, 70, 0
4, 283380, Note_on_c, 0, 78, 100
4, 283438, Note_on_c, 0, 78, 0
4, 283440, Note_on_c, 0, 77, 100
4, 283498, Note_on_c, 0, 77, 0
4, 283500, Note_on_c, 0, 86, 100
4, 283558, Note_on_c, 0, 86, 0
4, 283560, Note_on_c, 0, 85, 100
4, 283678, Note_on_c, 0, 85, 0
4, 283680, Note_on_c, 0, 78, 100
4, 283738, Note_on_c, 0, 78, 0
4, 283740, Note_on_c, 0, 77, 100
4, 283858, Note_on_c, 0, 77, 0
4, 283860, Note_on_c, 0, 83, 100
4, 283918, Note_on_c, 0, 83, 0
4, 283920, Note_on_c, 0, 82, 100
4, 284038, Note_on_c, 0, 82, 0
4, 284040, Note_on_c, 0, 76, 100
4, 284098, Note_on_c, 0, 76, 0
4, 284100, Note_on_c, 0, 74, 100
4, 284158, Note_on_c, 0, 74, 0
4, 284160, Note_on_c, 0, 73, 100
4, 284278, Note_on_c, 0, 73, 0
4, 284340, Note_on_c, 0, 74, 100
4, 284458, Note_on_c, 0, 74, 0
4, 284520, Note_on_c, 0, 73, 100
4, 284638, Note_on_c, 0, 73, 0
4, 284700, Note_on_c, 0, 81, 100
4, 284758, Note_on_c, 0, 81, 0
4, 284760, Note_on_c, 0, 72, 100
4, 284818, Note_on_c, 0, 72, 0
4, 284820, Note_on_c, 0, 71, 100
4, 284938, Note_on_c, 0, 71, 0
4, 284940, Note_on_c, 0, 70, 100
4, 284998, Note_on_c, 0, 70, 0
4, 285000, Note_on_c, 0, 71, 100
4, 285058, Note_on_c, 0, 71, 0
4, 285060, Note_on_c, 0, 79, 100
4, 285118, Note_on_c, 0, 79, 0
4, 285120, Note_on_c, 0, 78, 100
4, 285178, Note_on_c, 0, 78, 0
4, 285180, Note_on_c, 0, 76, 100
4, 285238, Note_on_c, 0, 76, 0
4, 285240, Note_on_c, 0, 71, 100
4, 285298, Note_on_c, 0, 71, 0
4, 285300, Note_on_c, 0, 70, 100
4, 285358, Note_on_c, 0, 70, 0
4, 285360, Note_on_c, 0, 71, 100
4, 285418, Note_on_c, 0, 71, 0
4, 285420, Note_on_c, 0, 78, 100
4, 285478, Note_on_c, 0, 78, 0
4, 285480, Note_on_c, 0, 76, 100
4, 285538, Note_on_c, 0, 76, 0
4, 285540, Note_on_c, 0, 74, 100
4, 285598, Note_on_c, 0, 74, 0
4, 285600, Note_on_c, 0, 71, 100
4, 285658, Note_on_c, 0, 71, 0
4, 285660, Note_on_c, 0, 70, 100
4, 285718, Note_on_c, 0, 70, 0
4, 285720, Note_on_c, 0, 71, 100
4, 285778, Note_on_c, 0, 71, 0
4, 285780, Note_on_c, 0, 76, 100
4, 285838, Note_on_c, 0, 76, 0
4, 285840, Note_on_c, 0, 74, 100
4, 285898, Note_on_c, 0, 74, 0
4, 285900, Note_on_c, 0, 73, 100
4, 285958, Note_on_c, 0, 73, 0
4, 285960, Note_on_c, 0, 71, 100
4, 286018, Note_on_c, 0, 71, 0
4, 286020, Note_on_c, 0, 70, 100
4, 286078, Note_on_c, 0, 70, 0
4, 286080, Note_on_c, 0, 71, 100
4, 286138, Note_on_c, 0, 71, 0
4, 286140, Note_on_c, 0, 74, 100
4, 286198, Note_on_c, 0, 74, 0
4, 286200, Note_on_c, 0, 73, 100
4, 286258, Note_on_c, 0, 73, 0
4, 286260, Note_on_c, 0, 71, 100
4, 286318, Note_on_c, 0, 71, 0
4, 286320, Note_on_c, 0, 73, 100
4, 286378, Note_on_c, 0, 73, 0
4, 286380, Note_on_c, 0, 76, 100
4, 286438, Note_on_c, 0, 76, 0
4, 286440, Note_on_c, 0, 79, 100
4, 286498, Note_on_c, 0, 79, 0
4, 286500, Note_on_c, 0, 78, 100
4, 286558, Note_on_c, 0, 78, 0
4, 286560, Note_on_c, 0, 76, 100
4, 286618, Note_on_c, 0, 76, 0
4, 286620, Note_on_c, 0, 74, 100
4, 286678, Note_on_c, 0, 74, 0
4, 286680, Note_on_c, 0, 73, 100
4, 286738, Note_on_c, 0, 73, 0
4, 286740, Note_on_c, 0, 71, 100
4, 286798, Note_on_c, 0, 71, 0
4, 286800, Note_on_c, 0, 70, 100
4, 286858, Note_on_c, 0, 70, 0
4, 286860, Note_on_c, 0, 79, 100
4, 286918, Note_on_c, 0, 79, 0
4, 286920, Note_on_c, 0, 78, 100
4, 286978, Note_on_c, 0, 78, 0
4, 286980, Note_on_c, 0, 76, 100
4, 287038, Note_on_c, 0, 76, 0
4, 287041, Note_on_c, 0, 74, 100
4, 287159, Note_on_c, 0, 74, 0
4, 287161, Note_on_c, 0, 90, 100
4, 287219, Note_on_c, 0, 90, 0
4, 287221, Note_on_c, 0, 78, 100
4, 287279, Note_on_c, 0, 78, 0
4, 287281, Note_on_c, 0, 83, 100
4, 287339, Note_on_c, 0, 83, 0
4, 287341, Note_on_c, 0, 82, 100
4, 287399, Note_on_c, 0, 82, 0
4, 287401, Note_on_c, 0, 83, 100
4, 287699, Note_on_c, 0, 83, 0
4, 287700, Note_on_c, 0, 85, 100
4, 287758, Note_on_c, 0, 85, 0
4, 287760, Note_on_c, 0, 76, 100
4, 287998, Note_on_c, 0, 76, 0
4, 288000, Note_on_c, 0, 74, 100
4, 288058, Note_on_c, 0, 74, 0
4, 288060, Note_on_c, 0, 73, 100
4, 288118, Note_on_c, 0, 73, 0
4, 288120, Note_on_c, 0, 74, 100
4, 288358, Note_on_c, 0, 74, 0
4, 288360, Note_on_c, 0, 73, 100
4, 288418, Note_on_c, 0, 73, 0
4, 288420, Note_on_c, 0, 71, 100
4, 288478, Note_on_c, 0, 71, 0
4, 288481, Note_on_c, 0, 73, 100
4, 288719, Note_on_c, 0, 73, 0
4, 288721, Note_on_c, 0, 71, 100
4, 288779, Note_on_c, 0, 71, 0
4, 288781, Note_on_c, 0, 70, 100
4, 288839, Note_on_c, 0, 70, 0
4, 288841, Note_on_c, 0, 71, 100
4, 289019, Note_on_c, 0, 71, 0
4, 289140, Note_on_c, 0, 83, 100
4, 289198, Note_on_c, 0, 83, 0
4, 289200, Note_on_c, 0, 87, 100
4, 289258, Note_on_c, 0, 87, 0
4, 289260, Note_on_c, 0, 90, 100
4, 289318, Note_on_c, 0, 90, 0
4, 289320, Note_on_c, 0, 84, 100
4, 289438, Note_on_c, 0, 84, 0
4, 289440, Note_on_c, 0, 83, 100
4, 289498, Note_on_c, 0, 83, 0
4, 289500, Note_on_c, 0, 82, 100
4, 289558, Note_on_c, 0, 82, 0
4, 289560, Note_on_c, 0, 83, 100
4, 289618, Note_on_c, 0, 83, 0
4, 289620, Note_on_c, 0, 90, 100
4, 289678, Note_on_c, 0, 90, 0
4, 289680, Note_on_c, 0, 83, 100
4, 289798, Note_on_c, 0, 83, 0
4, 289800, Note_on_c, 0, 81, 100
4, 289858, Note_on_c, 0, 81, 0
4, 289860, Note_on_c, 0, 80, 100
4, 289918, Note_on_c, 0, 80, 0
4, 289920, Note_on_c, 0, 81, 100
4, 289978, Note_on_c, 0, 81, 0
4, 289980, Note_on_c, 0, 90, 100
4, 290038, Note_on_c, 0, 90, 0
4, 290040, Note_on_c, 0, 81, 100
4, 290158, Note_on_c, 0, 81, 0
4, 290160, Note_on_c, 0, 79, 100
4, 290218, Note_on_c, 0, 79, 0
4, 290220, Note_on_c, 0, 78, 100
4, 290278, Note_on_c, 0, 78, 0
4, 290280, Note_on_c, 0, 79, 100
4, 290338, Note_on_c, 0, 79, 0
4, 290340, Note_on_c, 0, 81, 100
4, 290398, Note_on_c, 0, 81, 0
4, 290400, Note_on_c, 0, 83, 100
4, 290458, Note_on_c, 0, 83, 0
4, 290460, Note_on_c, 0, 76, 100
4, 290518, Note_on_c, 0, 76, 0
4, 290520, Note_on_c, 0, 79, 100
4, 290578, Note_on_c, 0, 79, 0
4, 290580, Note_on_c, 0, 71, 100
4, 290638, Note_on_c, 0, 71, 0
4, 290640, Note_on_c, 0, 72, 100
4, 290698, Note_on_c, 0, 72, 0
4, 290700, Note_on_c, 0, 77, 100
4, 290758, Note_on_c, 0, 77, 0
4, 290760, Note_on_c, 0, 76, 100
4, 290878, Note_on_c, 0, 76, 0
4, 290880, Note_on_c, 0, 77, 100
4, 290938, Note_on_c, 0, 77, 0
4, 290940, Note_on_c, 0, 75, 100
4, 290998, Note_on_c, 0, 75, 0
4, 291000, Note_on_c, 0, 76, 100
4, 291058, Note_on_c, 0, 76, 0
4, 291060, Note_on_c, 0, 81, 100
4, 291118, Note_on_c, 0, 81, 0
4, 291120, Note_on_c, 0, 79, 100
4, 291238, Note_on_c, 0, 79, 0
4, 291240, Note_on_c, 0, 81, 100
4, 291298, Note_on_c, 0, 81, 0
4, 291300, Note_on_c, 0, 78, 100
4, 291358, Note_on_c, 0, 78, 0
4, 291360, Note_on_c, 0, 79, 100
4, 291418, Note_on_c, 0, 79, 0
4, 291420, Note_on_c, 0, 84, 100
4, 291478, Note_on_c, 0, 84, 0
4, 291480, Note_on_c, 0, 83, 100
4, 291598, Note_on_c, 0, 83, 0
4, 291600, Note_on_c, 0, 84, 100
4, 291658, Note_on_c, 0, 84, 0
4, 291660, Note_on_c, 0, 82, 100
4, 291718, Note_on_c, 0, 82, 0
4, 291720, Note_on_c, 0, 83, 100
4, 293638, Note_on_c, 0, 83, 0
4, 293640, Note_on_c, 0, 81, 100
4, 293700, Note_on_c, 0, 81, 0
4, 293700, Note_on_c, 0, 83, 100
4, 293730, Note_on_c, 0, 83, 0
4, 293730, Note_on_c, 0, 81, 100
4, 293760, Note_on_c, 0, 81, 0
4, 293760, Note_on_c, 0, 83, 100
4, 293790, Note_on_c, 0, 83, 0
4, 293790, Note_on_c, 0, 81, 100
4, 293820, Note_on_c, 0, 81, 0
4, 293820, Note_on_c, 0, 80, 100
4, 293850, Note_on_c, 0, 80, 0
4, 293850, Note_on_c, 0, 81, 100
4, 293880, Note_on_c, 0, 81, 0
4, 293880, Note_on_c, 0, 88, 100
4, 293938, Note_on_c, 0, 88, 0
4, 293940, Note_on_c, 0, 84, 100
4, 293998, Note_on_c, 0, 84, 0
4, 294000, Note_on_c, 0, 81, 100
4, 294058, Note_on_c, 0, 81, 0
4, 294060, Note_on_c, 0, 79, 100
4, 294118, Note_on_c, 0, 79, 0
4, 294120, Note_on_c, 0, 81, 100
4, 294178, Note_on_c, 0, 81, 0
4, 294180, Note_on_c, 0, 78, 100
4, 294238, Note_on_c, 0, 78, 0
4, 294240, Note_on_c, 0, 83, 100
4, 294298, Note_on_c, 0, 83, 0
4, 294300, Note_on_c, 0, 73, 100
4, 294358, Note_on_c, 0, 73, 0
4, 294360, Note_on_c, 0, 74, 100
4, 294418, Note_on_c, 0, 74, 0
4, 294420, Note_on_c, 0, 81, 100
4, 294478, Note_on_c, 0, 81, 0
4, 294480, Note_on_c, 0, 73, 100
4, 294538, Note_on_c, 0, 73, 0
4, 294540, Note_on_c, 0, 74, 100
4, 294598, Note_on_c, 0, 74, 0
4, 294600, Note_on_c, 0, 79, 100
4, 294778, Note_on_c, 0, 79, 0
4, 296340, Note_on_c, 0, 74, 100
4, 296398, Note_on_c, 0, 74, 0
4, 296400, Note_on_c, 0, 79, 100
4, 296458, Note_on_c, 0, 79, 0
4, 296460, Note_on_c, 0, 83, 100
4, 296518, Note_on_c, 0, 83, 0
4, 296520, Note_on_c, 0, 81, 100
4, 296638, Note_on_c, 0, 81, 0
4, 296640, Note_on_c, 0, 76, 100
4, 296698, Note_on_c, 0, 76, 0
4, 296700, Note_on_c, 0, 74, 100
4, 296818, Note_on_c, 0, 74, 0
4, 296820, Note_on_c, 0, 84, 100
4, 296878, Note_on_c, 0, 84, 0
4, 296880, Note_on_c, 0, 83, 100
4, 296998, Note_on_c, 0, 83, 0
4, 297000, Note_on_c, 0, 77, 100
4, 297058, Note_on_c, 0, 77, 0
4, 297060, Note_on_c, 0, 76, 100
4, 297178, Note_on_c, 0, 76, 0
4, 297180, Note_on_c, 0, 86, 100
4, 297238, Note_on_c, 0, 86, 0
4, 297240, Note_on_c, 0, 84, 100
4, 297358, Note_on_c, 0, 84, 0
4, 297360, Note_on_c, 0, 79, 100
4, 297418, Note_on_c, 0, 79, 0
4, 297420, Note_on_c, 0, 78, 100
4, 297538, Note_on_c, 0, 78, 0
4, 297540, Note_on_c, 0, 88, 100
4, 297598, Note_on_c, 0, 88, 0
4, 297600, Note_on_c, 0, 86, 100
4, 297658, Note_on_c, 0, 86, 0
4, 297720, Note_on_c, 0, 78, 100
4, 297778, Note_on_c, 0, 78, 0
4, 297780, Note_on_c, 0, 79, 100
4, 297838, Note_on_c, 0, 79, 0
4, 297840, Note_on_c, 0, 88, 100
4, 297898, Note_on_c, 0, 88, 0
4, 297900, Note_on_c, 0, 78, 100
4, 297958, Note_on_c, 0, 78, 0
4, 297960, Note_on_c, 0, 79, 100
4, 298018, Note_on_c, 0, 79, 0
4, 298020, Note_on_c, 0, 86, 100
4, 298078, Note_on_c, 0, 86, 0
4, 298080, Note_on_c, 0, 78, 100
4, 298138, Note_on_c, 0, 78, 0
4, 298140, Note_on_c, 0, 79, 100
4, 298198, Note_on_c, 0, 79, 0
4, 298200, Note_on_c, 0, 84, 100
4, 298258, Note_on_c, 0, 84, 0
4, 298260, Note_on_c, 0, 75, 100
4, 298318, Note_on_c, 0, 75, 0
4, 298320, Note_on_c, 0, 76, 100
4, 298378, Note_on_c, 0, 76, 0
4, 298380, Note_on_c, 0, 83, 100
4, 298438, Note_on_c, 0, 83, 0
4, 298440, Note_on_c, 0, 75, 100
4, 298498, Note_on_c, 0, 75, 0
4, 298500, Note_on_c, 0, 76, 100
4, 298558, Note_on_c, 0, 76, 0
4, 298560, Note_on_c, 0, 82, 100
4, 298618, Note_on_c, 0, 82, 0
4, 298620, Note_on_c, 0, 75, 100
4, 298678, Note_on_c, 0, 75, 0
4, 298680, Note_on_c, 0, 76, 100
4, 298738, Note_on_c, 0, 76, 0
4, 298740, Note_on_c, 0, 83, 100
4, 298798, Note_on_c, 0, 83, 0
4, 298800, Note_on_c, 0, 75, 100
4, 298858, Note_on_c, 0, 75, 0
4, 298860, Note_on_c, 0, 76, 100
4, 298918, Note_on_c, 0, 76, 0
4, 298920, Note_on_c, 0, 85, 100
4, 298978, Note_on_c, 0, 85, 0
4, 298980, Note_on_c, 0, 75, 100
4, 299038, Note_on_c, 0, 75, 0
4, 299040, Note_on_c, 0, 76, 100
4, 299098, Note_on_c, 0, 76, 0
4, 299100, Note_on_c, 0, 79, 100
4, 299158, Note_on_c, 0, 79, 0
4, 299160, Note_on_c, 0, 78, 100
4, 299218, Note_on_c, 0, 78, 0
4, 299220, Note_on_c, 0, 76, 100
4, 299278, Note_on_c, 0, 76, 0
4, 299280, Note_on_c, 0, 75, 100
4, 299338, Note_on_c, 0, 75, 0
4, 299340, Note_on_c, 0, 78, 100
4, 299398, Note_on_c, 0, 78, 0
4, 299400, Note_on_c, 0, 72, 100
4, 299518, Note_on_c, 0, 72, 0
4, 299520, Note_on_c, 0, 71, 100
4, 299578, Note_on_c, 0, 71, 0
4, 299580, Note_on_c, 0, 70, 100
4, 299638, Note_on_c, 0, 70, 0
4, 299640, Note_on_c, 0, 71, 100
4, 299698, Note_on_c, 0, 71, 0
4, 299700, Note_on_c, 0, 78, 100
4, 299758, Note_on_c, 0, 78, 0
4, 299760, Note_on_c, 0, 71, 100
4, 299878, Note_on_c, 0, 71, 0
4, 299880, Note_on_c, 0, 69, 100
4, 299938, Note_on_c, 0, 69, 0
4, 299940, Note_on_c, 0, 68, 100
4, 299998, Note_on_c, 0, 68, 0
4, 300000, Note_on_c, 0, 69, 100
4, 300058, Note_on_c, 0, 69, 0
4, 300060, Note_on_c, 0, 78, 100
4, 300118, Note_on_c, 0, 78, 0
4, 300120, Note_on_c, 0, 69, 100
4, 300238, Note_on_c, 0, 69, 0
4, 300240, Note_on_c, 0, 67, 100
4, 300298, Note_on_c, 0, 67, 0
4, 300300, Note_on_c, 0, 66, 100
4, 300358, Note_on_c, 0, 66, 0
4, 300360, Note_on_c, 0, 67, 100
4, 300418, Note_on_c, 0, 67, 0
4, 300420, Note_on_c, 0, 71, 100
4, 300478, Note_on_c, 0, 71, 0
4, 300480, Note_on_c, 0, 76, 100
4, 300538, Note_on_c, 0, 76, 0
4, 300540, Note_on_c, 0, 79, 100
4, 300598, Note_on_c, 0, 79, 0
4, 300600, Note_on_c, 0, 78, 100
4, 300658, Note_on_c, 0, 78, 0
4, 300660, Note_on_c, 0, 76, 100
4, 300718, Note_on_c, 0, 76, 0
4, 300720, Note_on_c, 0, 88, 100
4, 300958, Note_on_c, 0, 88, 0
4, 300960, Note_on_c, 0, 86, 100
4, 301018, Note_on_c, 0, 86, 0
4, 301020, Note_on_c, 0, 85, 100
4, 301078, Note_on_c, 0, 85, 0
4, 301080, Note_on_c, 0, 86, 100
4, 301318, Note_on_c, 0, 86, 0
4, 301320, Note_on_c, 0, 85, 100
4, 301378, Note_on_c, 0, 85, 0
4, 301380, Note_on_c, 0, 83, 100
4, 301438, Note_on_c, 0, 83, 0
4, 301440, Note_on_c, 0, 85, 100
4, 301678, Note_on_c, 0, 85, 0
4, 301680, Note_on_c, 0, 83, 100
4, 301738, Note_on_c, 0, 83, 0
4, 301740, Note_on_c, 0, 82, 100
4, 301798, Note_on_c, 0, 82, 0
4, 301800, Note_on_c, 0, 83, 100
4, 302038, Note_on_c, 0, 83, 0
4, 302040, Note_on_c, 0, 71, 100
4, 302098, Note_on_c, 0, 71, 0
4, 302100, Note_on_c, 0, 81, 100
4, 302158, Note_on_c, 0, 81, 0
4, 302160, Note_on_c, 0, 79, 100
4, 302218, Note_on_c, 0, 79, 0
4, 302220, Note_on_c, 0, 83, 100
4, 302278, Note_on_c, 0, 83, 0
4, 302280, Note_on_c, 0, 76, 100
4, 302338, Note_on_c, 0, 76, 0
4, 302340, Note_on_c, 0, 74, 100
4, 302398, Note_on_c, 0, 74, 0
4, 302400, Note_on_c, 0, 73, 100
4, 302458, Note_on_c, 0, 73, 0
4, 302460, Note_on_c, 0, 71, 100
4, 302518, Note_on_c, 0, 71, 0
4, 302520, Note_on_c, 0, 73, 100
4, 302578, Note_on_c, 0, 73, 0
4, 302580, Note_on_c, 0, 69, 100
4, 302638, Note_on_c, 0, 69, 0
4, 302640, Note_on_c, 0, 73, 100
4, 302698, Note_on_c, 0, 73, 0
4, 302700, Note_on_c, 0, 76, 100
4, 302758, Note_on_c, 0, 76, 0
4, 302760, Note_on_c, 0, 78, 100
4, 302818, Note_on_c, 0, 78, 0
4, 302820, Note_on_c, 0, 79, 100
4, 302878, Note_on_c, 0, 79, 0
4, 302880, Note_on_c, 0, 78, 100
4, 302938, Note_on_c, 0, 78, 0
4, 302940, Note_on_c, 0, 81, 100
4, 302998, Note_on_c, 0, 81, 0
4, 303000, Note_on_c, 0, 74, 100
4, 303058, Note_on_c, 0, 74, 0
4, 303060, Note_on_c, 0, 72, 100
4, 303118, Note_on_c, 0, 72, 0
4, 303120, Note_on_c, 0, 71, 100
4, 303178, Note_on_c, 0, 71, 0
4, 303180, Note_on_c, 0, 69, 100
4, 303238, Note_on_c, 0, 69, 0
4, 303240, Note_on_c, 0, 71, 100
4, 303298, Note_on_c, 0, 71, 0
4, 303300, Note_on_c, 0, 67, 100
4, 303358, Note_on_c, 0, 67, 0
4, 303360, Note_on_c, 0, 71, 100
4, 303418, Note_on_c, 0, 71, 0
4, 303420, Note_on_c, 0, 74, 100
4, 303478, Note_on_c, 0, 74, 0
4, 303480, Note_on_c, 0, 76, 100
4, 303538, Note_on_c, 0, 76, 0
4, 303540, Note_on_c, 0, 78, 100
4, 303598, Note_on_c, 0, 78, 0
4, 303600, Note_on_c, 0, 76, 100
4, 303658, Note_on_c, 0, 76, 0
4, 303660, Note_on_c, 0, 79, 100
4, 303718, Note_on_c, 0, 79, 0
4, 303720, Note_on_c, 0, 73, 100
4, 303778, Note_on_c, 0, 73, 0
4, 303780, Note_on_c, 0, 71, 100
4, 303838, Note_on_c, 0, 71, 0
4, 303840, Note_on_c, 0, 70, 100
4, 303898, Note_on_c, 0, 70, 0
4, 303900, Note_on_c, 0, 67, 100
4, 303958, Note_on_c, 0, 67, 0
4, 303960, Note_on_c, 0, 70, 100
4, 304018, Note_on_c, 0, 70, 0
4, 304020, Note_on_c, 0, 66, 100
4, 304078, Note_on_c, 0, 66, 0
4, 304080, Note_on_c, 0, 70, 100
4, 304138, Note_on_c, 0, 70, 0
4, 304140, Note_on_c, 0, 73, 100
4, 304198, Note_on_c, 0, 73, 0
4, 304200, Note_on_c, 0, 77, 100
4, 304258, Note_on_c, 0, 77, 0
4, 304260, Note_on_c, 0, 78, 100
4, 304318, Note_on_c, 0, 78, 0
4, 304320, Note_on_c, 0, 71, 100
4, 304378, Note_on_c, 0, 71, 0
4, 304380, Note_on_c, 0, 68, 100
4, 304438, Note_on_c, 0, 68, 0
4, 304440, Note_on_c, 0, 71, 100
4, 304498, Note_on_c, 0, 71, 0
4, 304500, Note_on_c, 0, 74, 100
4, 304558, Note_on_c, 0, 74, 0
4, 304560, Note_on_c, 0, 77, 100
4, 304618, Note_on_c, 0, 77, 0
4, 304620, Note_on_c, 0, 78, 100
4, 304678, Note_on_c, 0, 78, 0
4, 304680, Note_on_c, 0, 73, 100
4, 304798, Note_on_c, 0, 73, 0
4, 304800, Note_on_c, 0, 85, 100
4, 304858, Note_on_c, 0, 85, 0
4, 304860, Note_on_c, 0, 82, 100
4, 304978, Note_on_c, 0, 82, 0
4, 304980, Note_on_c, 0, 76, 100
4, 305038, Note_on_c, 0, 76, 0
4, 305040, Note_on_c, 0, 74, 100
4, 305158, Note_on_c, 0, 74, 0
4, 305160, Note_on_c, 0, 86, 100
4, 305218, Note_on_c, 0, 86, 0
4, 305220, Note_on_c, 0, 83, 100
4, 305338, Note_on_c, 0, 83, 0
4, 305340, Note_on_c, 0, 78, 100
4, 305398, Note_on_c, 0, 78, 0
4, 305400, Note_on_c, 0, 76, 100
4, 305518, Note_on_c, 0, 76, 0
4, 305520, Note_on_c, 0, 88, 100
4, 305578, Note_on_c, 0, 88, 0
4, 305580, Note_on_c, 0, 85, 100
4, 305698, Note_on_c, 0, 85, 0
4, 305700, Note_on_c, 0, 82, 100
4, 305758, Note_on_c, 0, 82, 0
4, 305760, Note_on_c, 0, 78, 100
4, 305878, Note_on_c, 0, 78, 0
4, 305880, Note_on_c, 0, 83, 100
4, 305938, Note_on_c, 0, 83, 0
4, 305940, Note_on_c, 0, 74, 100
4, 306058, Note_on_c, 0, 74, 0
4, 306060, Note_on_c, 0, 78, 100
4, 306118, Note_on_c, 0, 78, 0
4, 306120, Note_on_c, 0, 70, 100
4, 306298, Note_on_c, 0, 70, 0
4, 306420, Note_on_c, 0, 78, 100
4, 306478, Note_on_c, 0, 78, 0
4, 306480, Note_on_c, 0, 77, 100
4, 306538, Note_on_c, 0, 77, 0
4, 306540, Note_on_c, 0, 86, 100
4, 306598, Note_on_c, 0, 86, 0
4, 306600, Note_on_c, 0, 85, 100
4, 306718, Note_on_c, 0, 85, 0
4, 306720, Note_on_c, 0, 78, 100
4, 306778, Note_on_c, 0, 78, 0
4, 306780, Note_on_c, 0, 77, 100
4, 306898, Note_on_c, 0, 77, 0
4, 306900, Note_on_c, 0, 83, 100
4, 306958, Note_on_c, 0, 83, 0
4, 306960, Note_on_c, 0, 82, 100
4, 307078, Note_on_c, 0, 82, 0
4, 307080, Note_on_c, 0, 76, 100
4, 307138, Note_on_c, 0, 76, 0
4, 307140, Note_on_c, 0, 74, 100
4, 307198, Note_on_c, 0, 74, 0
4, 307200, Note_on_c, 0, 73, 100
4, 307318, Note_on_c, 0, 73, 0
4, 307380, Note_on_c, 0, 74, 100
4, 307498, Note_on_c, 0, 74, 0
4, 307560, Note_on_c, 0, 73, 100
4, 307678, Note_on_c, 0, 73, 0
4, 307740, Note_on_c, 0, 81, 100
4, 307798, Note_on_c, 0, 81, 0
4, 307800, Note_on_c, 0, 72, 100
4, 307858, Note_on_c, 0, 72, 0
4, 307860, Note_on_c, 0, 71, 100
4, 307978, Note_on_c, 0, 71, 0
4, 307980, Note_on_c, 0, 70, 100
4, 308038, Note_on_c, 0, 70, 0
4, 308040, Note_on_c, 0, 71, 100
4, 308098, Note_on_c, 0, 71, 0
4, 308100, Note_on_c, 0, 79, 100
4, 308158, Note_on_c, 0, 79, 0
4, 308160, Note_on_c, 0, 78, 100
4, 308218, Note_on_c, 0, 78, 0
4, 308220, Note_on_c, 0, 76, 100
4, 308278, Note_on_c, 0, 76, 0
4, 308280, Note_on_c, 0, 71, 100
4, 308338, Note_on_c, 0, 71, 0
4, 308340, Note_on_c, 0, 70, 100
4, 308398, Note_on_c, 0, 70, 0
4, 308400, Note_on_c, 0, 71, 100
4, 308458, Note_on_c, 0, 71, 0
4, 308460, Note_on_c, 0, 78, 100
4, 308518, Note_on_c, 0, 78, 0
4, 308520, Note_on_c, 0, 76, 100
4, 308578, Note_on_c, 0, 76, 0
4, 308580, Note_on_c, 0, 74, 100
4, 308638, Note_on_c, 0, 74, 0
4, 308640, Note_on_c, 0, 71, 100
4, 308698, Note_on_c, 0, 71, 0
4, 308700, Note_on_c, 0, 70, 100
4, 308758, Note_on_c, 0, 70, 0
4, 308760, Note_on_c, 0, 71, 100
4, 308818, Note_on_c, 0, 71, 0
4, 308820, Note_on_c, 0, 76, 100
4, 308878, Note_on_c, 0, 76, 0
4, 308880, Note_on_c, 0, 74, 100
4, 308938, Note_on_c, 0, 74, 0
4, 308940, Note_on_c, 0, 73, 100
4, 308998, Note_on_c, 0, 73, 0
4, 309000, Note_on_c, 0, 71, 100
4, 309058, Note_on_c, 0, 71, 0
4, 309060, Note_on_c, 0, 70, 100
4, 309118, Note_on_c, 0, 70, 0
4, 309120, Note_on_c, 0, 71, 100
4, 309178, Note_on_c, 0, 71, 0
4, 309180, Note_on_c, 0, 74, 100
4, 309238, Note_on_c, 0, 74, 0
4, 309240, Note_on_c, 0, 73, 100
4, 309298, Note_on_c, 0, 73, 0
4, 309300, Note_on_c, 0, 71, 100
4, 309358, Note_on_c, 0, 71, 0
4, 309360, Note_on_c, 0, 73, 100
4, 309418, Note_on_c, 0, 73, 0
4, 309420, Note_on_c, 0, 76, 100
4, 309478, Note_on_c, 0, 76, 0
4, 309480, Note_on_c, 0, 79, 100
4, 309538, Note_on_c, 0, 79, 0
4, 309540, Note_on_c, 0, 78, 100
4, 309598, Note_on_c, 0, 78, 0
4, 309600, Note_on_c, 0, 76, 100
4, 309658, Note_on_c, 0, 76, 0
4, 309660, Note_on_c, 0, 74, 100
4, 309718, Note_on_c, 0, 74, 0
4, 309720, Note_on_c, 0, 73, 100
4, 309778, Note_on_c, 0, 73, 0
4, 309780, Note_on_c, 0, 71, 100
4, 309838, Note_on_c, 0, 71, 0
4, 309840, Note_on_c, 0, 70, 100
4, 309898, Note_on_c, 0, 70, 0
4, 309900, Note_on_c, 0, 79, 100
4, 309958, Note_on_c, 0, 79, 0
4, 309960, Note_on_c, 0, 78, 100
4, 310018, Note_on_c, 0, 78, 0
4, 310020, Note_on_c, 0, 76, 100
4, 310078, Note_on_c, 0, 76, 0
4, 310081, Note_on_c, 0, 74, 100
4, 310199, Note_on_c, 0, 74, 0
4, 310201, Note_on_c, 0, 90, 100
4, 310259, Note_on_c, 0, 90, 0
4, 310261, Note_on_c, 0, 78, 100
4, 310319, Note_on_c, 0, 78, 0
4, 310321, Note_on_c, 0, 83, 100
4, 310379, Note_on_c, 0, 83, 0
4, 310381, Note_on_c, 0, 82, 100
4, 310439, Note_on_c, 0, 82, 0
4, 310441, Note_on_c, 0, 83, 100
4, 310739, Note_on_c, 0, 83, 0
4, 310739, End_track
5, 0, Start_track
5, 0, MIDI_port, 0
5, 0, Title_t, "Harpsichord RH"
5, 0, Program_c, 1, 6
5, 0, Control_c, 1, 7, 100
5, 0, Control_c, 1, 10, 32
5, 780, Note_on_c, 1, 64, 100
5, 840, Note_on_c, 1, 64, 0
5, 840, Note_on_c, 1, 62, 100
5, 900, Note_on_c, 1, 62, 0
5, 900, Note_on_c, 1, 61, 100
5, 960, Note_on_c, 1, 61, 0
5, 960, Note_on_c, 1, 62, 100
5, 1020, Note_on_c, 1, 62, 0
5, 1020, Note_on_c, 1, 71, 100
5, 1080, Note_on_c, 1, 71, 0
5, 1080, Note_on_c, 1, 64, 100
5, 1140, Note_on_c, 1, 64, 0
5, 1140, Note_on_c, 1, 70, 100
5, 1200, Note_on_c, 1, 70, 0
5, 1200, Note_on_c, 1, 71, 100
5, 1260, Note_on_c, 1, 71, 0
5, 1260, Note_on_c, 1, 66, 100
5, 1320, Note_on_c, 1, 66, 0
5, 1320, Note_on_c, 1, 73, 100
5, 1380, Note_on_c, 1, 73, 0
5, 1380, Note_on_c, 1, 64, 100
5, 1440, Note_on_c, 1, 64, 0
5, 1440, Note_on_c, 1, 62, 100
5, 1500, Note_on_c, 1, 62, 0
5, 1500, Note_on_c, 1, 71, 100
5, 1560, Note_on_c, 1, 71, 0
5, 1560, Note_on_c, 1, 64, 100
5, 1620, Note_on_c, 1, 64, 0
5, 1620, Note_on_c, 1, 70, 100
5, 1680, Note_on_c, 1, 70, 0
5, 1680, Note_on_c, 1, 71, 100
5, 1740, Note_on_c, 1, 71, 0
5, 1740, Note_on_c, 1, 66, 100
5, 1800, Note_on_c, 1, 66, 0
5, 1800, Note_on_c, 1, 73, 100
5, 1860, Note_on_c, 1, 73, 0
5, 1860, Note_on_c, 1, 64, 100
5, 1920, Note_on_c, 1, 64, 0
5, 1920, Note_on_c, 1, 62, 100
5, 1980, Note_on_c, 1, 62, 0
5, 1980, Note_on_c, 1, 71, 100
5, 2040, Note_on_c, 1, 71, 0
5, 2040, Note_on_c, 1, 64, 100
5, 2100, Note_on_c, 1, 64, 0
5, 2100, Note_on_c, 1, 73, 100
5, 2160, Note_on_c, 1, 73, 0
5, 2160, Note_on_c, 1, 62, 100
5, 2220, Note_on_c, 1, 62, 0
5, 2220, Note_on_c, 1, 71, 100
5, 2280, Note_on_c, 1, 71, 0
5, 2280, Note_on_c, 1, 61, 100
5, 2340, Note_on_c, 1, 61, 0
5, 2340, Note_on_c, 1, 70, 100
5, 2400, Note_on_c, 1, 70, 0
5, 2400, Note_on_c, 1, 71, 100
5, 2460, Note_on_c, 1, 71, 0
5, 2460, Note_on_c, 1, 66, 100
5, 2520, Note_on_c, 1, 66, 0
5, 2520, Note_on_c, 1, 64, 100
5, 2580, Note_on_c, 1, 64, 0
5, 2580, Note_on_c, 1, 66, 100
5, 2640, Note_on_c, 1, 66, 0
5, 2640, Note_on_c, 1, 62, 100
5, 2700, Note_on_c, 1, 62, 0
5, 2700, Note_on_c, 1, 66, 100
5, 2760, Note_on_c, 1, 66, 0
5, 2760, Note_on_c, 1, 67, 100
5, 2820, Note_on_c, 1, 67, 0
5, 2820, Note_on_c, 1, 71, 100
5, 2880, Note_on_c, 1, 71, 0
5, 2880, Note_on_c, 1, 65, 100
5, 2940, Note_on_c, 1, 65, 0
5, 2940, Note_on_c, 1, 73, 100
5, 3000, Note_on_c, 1, 73, 0
5, 3000, Note_on_c, 1, 73, 100
5, 3060, Note_on_c, 1, 73, 0
5, 3060, Note_on_c, 1, 66, 100
5, 3120, Note_on_c, 1, 66, 0
5, 3120, Note_on_c, 1, 66, 100
5, 3180, Note_on_c, 1, 66, 0
5, 3180, Note_on_c, 1, 64, 100
5, 3240, Note_on_c, 1, 64, 0
5, 3240, Note_on_c, 1, 63, 100
5, 3300, Note_on_c, 1, 63, 0
5, 3300, Note_on_c, 1, 64, 100
5, 3360, Note_on_c, 1, 64, 0
5, 3360, Note_on_c, 1, 63, 100
5, 3420, Note_on_c, 1, 63, 0
5, 3420, Note_on_c, 1, 71, 100
5, 3480, Note_on_c, 1, 71, 0
5, 3480, Note_on_c, 1, 71, 100
5, 3540, Note_on_c, 1, 71, 0
5, 3540, Note_on_c, 1, 64, 100
5, 3600, Note_on_c, 1, 64, 0
5, 3600, Note_on_c, 1, 64, 100
5, 3660, Note_on_c, 1, 64, 0
5, 3660, Note_on_c, 1, 62, 100
5, 3720, Note_on_c, 1, 62, 0
5, 3720, Note_on_c, 1, 61, 100
5, 3780, Note_on_c, 1, 61, 0
5, 3780, Note_on_c, 1, 62, 100
5, 3840, Note_on_c, 1, 62, 0
5, 3840, Note_on_c, 1, 61, 100
5, 3900, Note_on_c, 1, 61, 0
5, 3900, Note_on_c, 1, 70, 100
5, 3960, Note_on_c, 1, 70, 0
5, 3960, Note_on_c, 1, 71, 100
5, 4020, Note_on_c, 1, 71, 0
5, 4020, Note_on_c, 1, 74, 100
5, 4080, Note_on_c, 1, 74, 0
5, 4080, Note_on_c, 1, 73, 100
5, 4140, Note_on_c, 1, 73, 0
5, 4140, Note_on_c, 1, 71, 100
5, 4200, Note_on_c, 1, 71, 0
5, 4200, Note_on_c, 1, 70, 100
5, 4260, Note_on_c, 1, 70, 0
5, 4260, Note_on_c, 1, 71, 100
5, 4320, Note_on_c, 1, 71, 0
5, 4320, Note_on_c, 1, 73, 100
5, 4380, Note_on_c, 1, 73, 0
5, 4380, Note_on_c, 1, 71, 100
5, 4440, Note_on_c, 1, 71, 0
5, 4440, Note_on_c, 1, 70, 100
5, 4500, Note_on_c, 1, 70, 0
5, 4500, Note_on_c, 1, 68, 100
5, 4560, Note_on_c, 1, 68, 0
5, 4560, Note_on_c, 1, 66, 100
5, 4620, Note_on_c, 1, 66, 0
5, 4620, Note_on_c, 1, 64, 100
5, 4680, Note_on_c, 1, 64, 0
5, 4680, Note_on_c, 1, 62, 100
5, 4740, Note_on_c, 1, 62, 0
5, 4740, Note_on_c, 1, 61, 100
5, 4800, Note_on_c, 1, 61, 0
5, 4800, Note_on_c, 1, 62, 100
5, 4860, Note_on_c, 1, 62, 0
5, 4860, Note_on_c, 1, 71, 100
5, 4920, Note_on_c, 1, 71, 0
5, 4920, Note_on_c, 1, 64, 100
5, 4980, Note_on_c, 1, 64, 0
5, 4980, Note_on_c, 1, 70, 100
5, 5040, Note_on_c, 1, 70, 0
5, 5040, Note_on_c, 1, 71, 100
5, 5100, Note_on_c, 1, 71, 0
5, 5100, Note_on_c, 1, 66, 100
5, 5160, Note_on_c, 1, 66, 0
5, 5160, Note_on_c, 1, 73, 100
5, 5220, Note_on_c, 1, 73, 0
5, 5220, Note_on_c, 1, 64, 100
5, 5280, Note_on_c, 1, 64, 0
5, 5280, Note_on_c, 1, 62, 100
5, 5340, Note_on_c, 1, 62, 0
5, 5340, Note_on_c, 1, 71, 100
5, 5400, Note_on_c, 1, 71, 0
5, 5400, Note_on_c, 1, 64, 100
5, 5460, Note_on_c, 1, 64, 0
5, 5460, Note_on_c, 1, 70, 100
5, 5520, Note_on_c, 1, 70, 0
5, 5520, Note_on_c, 1, 71, 100
5, 5580, Note_on_c, 1, 71, 0
5, 5580, Note_on_c, 1, 66, 100
5, 5640, Note_on_c, 1, 66, 0
5, 5640, Note_on_c, 1, 73, 100
5, 5700, Note_on_c, 1, 73, 0
5, 5700, Note_on_c, 1, 64, 100
5, 5760, Note_on_c, 1, 64, 0
5, 5760, Note_on_c, 1, 62, 100
5, 5820, Note_on_c, 1, 62, 0
5, 5820, Note_on_c, 1, 71, 100
5, 5880, Note_on_c, 1, 71, 0
5, 5880, Note_on_c, 1, 64, 100
5, 5940, Note_on_c, 1, 64, 0
5, 5940, Note_on_c, 1, 73, 100
5, 6000, Note_on_c, 1, 73, 0
5, 6000, Note_on_c, 1, 62, 100
5, 6060, Note_on_c, 1, 62, 0
5, 6060, Note_on_c, 1, 71, 100
5, 6120, Note_on_c, 1, 71, 0
5, 6120, Note_on_c, 1, 61, 100
5, 6180, Note_on_c, 1, 61, 0
5, 6180, Note_on_c, 1, 70, 100
5, 6240, Note_on_c, 1, 70, 0
5, 6240, Note_on_c, 1, 71, 100
5, 6300, Note_on_c, 1, 71, 0
5, 6300, Note_on_c, 1, 66, 100
5, 6360, Note_on_c, 1, 66, 0
5, 6360, Note_on_c, 1, 64, 100
5, 6420, Note_on_c, 1, 64, 0
5, 6420, Note_on_c, 1, 66, 100
5, 6480, Note_on_c, 1, 66, 0
5, 6480, Note_on_c, 1, 62, 100
5, 6720, Note_on_c, 1, 62, 0
5, 6720, Note_on_c, 1, 62, 100
5, 6780, Note_on_c, 1, 62, 0
5, 6780, Note_on_c, 1, 71, 100
5, 6840, Note_on_c, 1, 71, 0
5, 6840, Note_on_c, 1, 71, 100
5, 6900, Note_on_c, 1, 71, 0
5, 6900, Note_on_c, 1, 62, 100
5, 6960, Note_on_c, 1, 62, 0
5, 6960, Note_on_c, 1, 62, 100
5, 7020, Note_on_c, 1, 62, 0
5, 7020, Note_on_c, 1, 71, 100
5, 7080, Note_on_c, 1, 71, 0
5, 7080, Note_on_c, 1, 71, 100
5, 7140, Note_on_c, 1, 71, 0
5, 7140, Note_on_c, 1, 62, 100
5, 7200, Note_on_c, 1, 62, 0
5, 7200, Note_on_c, 1, 62, 100
5, 7260, Note_on_c, 1, 62, 0
5, 7260, Note_on_c, 1, 61, 100
5, 7320, Note_on_c, 1, 61, 0
5, 7320, Note_on_c, 1, 61, 100
5, 7380, Note_on_c, 1, 61, 0
5, 7380, Note_on_c, 1, 59, 100
5, 7440, Note_on_c, 1, 59, 0
5, 7440, Note_on_c, 1, 61, 100
5, 7680, Note_on_c, 1, 61, 0
5, 7680, Note_on_c, 1, 61, 100
5, 7740, Note_on_c, 1, 61, 0
5, 7740, Note_on_c, 1, 69, 100
5, 7800, Note_on_c, 1, 69, 0
5, 7800, Note_on_c, 1, 69, 100
5, 7860, Note_on_c, 1, 69, 0
5, 7860, Note_on_c, 1, 60, 100
5, 7920, Note_on_c, 1, 60, 0
5, 7920, Note_on_c, 1, 60, 100
5, 7980, Note_on_c, 1, 60, 0
5, 7980, Note_on_c, 1, 69, 100
5, 8040, Note_on_c, 1, 69, 0
5, 8040, Note_on_c, 1, 69, 100
5, 8100, Note_on_c, 1, 69, 0
5, 8100, Note_on_c, 1, 60, 100
5, 8160, Note_on_c, 1, 60, 0
5, 8160, Note_on_c, 1, 60, 100
5, 8220, Note_on_c, 1, 60, 0
5, 8220, Note_on_c, 1, 59, 100
5, 8280, Note_on_c, 1, 59, 0
5, 8280, Note_on_c, 1, 59, 100
5, 8340, Note_on_c, 1, 59, 0
5, 8340, Note_on_c, 1, 58, 100
5, 8400, Note_on_c, 1, 58, 0
5, 8400, Note_on_c, 1, 59, 100
5, 8460, Note_on_c, 1, 59, 0
5, 8460, Note_on_c, 1, 61, 100
5, 8520, Note_on_c, 1, 61, 0
5, 8520, Note_on_c, 1, 62, 100
5, 8640, Note_on_c, 1, 62, 0
5, 8640, Note_on_c, 1, 62, 100
5, 8700, Note_on_c, 1, 62, 0
5, 8700, Note_on_c, 1, 61, 100
5, 8760, Note_on_c, 1, 61, 0
5, 8760, Note_on_c, 1, 71, 100
5, 8820, Note_on_c, 1, 71, 0
5, 8820, Note_on_c, 1, 70, 100
5, 8880, Note_on_c, 1, 70, 0
5, 8880, Note_on_c, 1, 71, 100
5, 8940, Note_on_c, 1, 71, 0
5, 8940, Note_on_c, 1, 66, 100
5, 9000, Note_on_c, 1, 66, 0
5, 9000, Note_on_c, 1, 73, 100
5, 9060, Note_on_c, 1, 73, 0
5, 9060, Note_on_c, 1, 71, 100
5, 9120, Note_on_c, 1, 71, 0
5, 9120, Note_on_c, 1, 73, 100
5, 9180, Note_on_c, 1, 73, 0
5, 9180, Note_on_c, 1, 67, 100
5, 9240, Note_on_c, 1, 67, 0
5, 9240, Note_on_c, 1, 76, 100
5, 9300, Note_on_c, 1, 76, 0
5, 9300, Note_on_c, 1, 74, 100
5, 9360, Note_on_c, 1, 74, 0
5, 9360, Note_on_c, 1, 76, 100
5, 9480, Note_on_c, 1, 76, 0
5, 9480, Note_on_c, 1, 71, 100
5, 9540, Note_on_c, 1, 71, 0
5, 9540, Note_on_c, 1, 70, 100
5, 9600, Note_on_c, 1, 70, 0
5, 9600, Note_on_c, 1, 71, 100
5, 9660, Note_on_c, 1, 71, 0
5, 9660, Note_on_c, 1, 66, 100
5, 9720, Note_on_c, 1, 66, 0
5, 9720, Note_on_c, 1, 67, 100
5, 9780, Note_on_c, 1, 67, 0
5, 9780, Note_on_c, 1, 66, 100
5, 9840, Note_on_c, 1, 66, 0
5, 9840, Note_on_c, 1, 64, 100
5, 9900, Note_on_c, 1, 64, 0
5, 9900, Note_on_c, 1, 62, 100
5, 9960, Note_on_c, 1, 62, 0
5, 9960, Note_on_c, 1, 61, 100
5, 10020, Note_on_c, 1, 61, 0
5, 10020, Note_on_c, 1, 59, 100
5, 10080, Note_on_c, 1, 59, 0
5, 10080, Note_on_c, 1, 58, 100
5, 10140, Note_on_c, 1, 58, 0
5, 10140, Note_on_c, 1, 61, 100
5, 10200, Note_on_c, 1, 61, 0
5, 10200, Note_on_c, 1, 66, 100
5, 10260, Note_on_c, 1, 66, 0
5, 10260, Note_on_c, 1, 70, 100
5, 10320, Note_on_c, 1, 70, 0
5, 10320, Note_on_c, 1, 73, 100
5, 10380, Note_on_c, 1, 73, 0
5, 10380, Note_on_c, 1, 71, 100
5, 10440, Note_on_c, 1, 71, 0
5, 10440, Note_on_c, 1, 71, 100
5, 10500, Note_on_c, 1, 71, 0
5, 10500, Note_on_c, 1, 70, 100
5, 10560, Note_on_c, 1, 70, 0
5, 10560, Note_on_c, 1, 71, 100
5, 10620, Note_on_c, 1, 71, 0
5, 10620, Note_on_c, 1, 69, 100
5, 10650, Note_on_c, 1, 69, 0
5, 10650, Note_on_c, 1, 67, 100
5, 10680, Note_on_c, 1, 67, 0
5, 10680, Note_on_c, 1, 66, 100
5, 10740, Note_on_c, 1, 66, 0
5, 10740, Note_on_c, 1, 69, 100
5, 10800, Note_on_c, 1, 69, 0
5, 10800, Note_on_c, 1, 63, 100
5, 10860, Note_on_c, 1, 63, 0
5, 10860, Note_on_c, 1, 66, 100
5, 10920, Note_on_c, 1, 66, 0
5, 10920, Note_on_c, 1, 66, 100
5, 10980, Note_on_c, 1, 66, 0
5, 10980, Note_on_c, 1, 63, 100
5, 11040, Note_on_c, 1, 63, 0
5, 11040, Note_on_c, 1, 63, 100
5, 11100, Note_on_c, 1, 63, 0
5, 11100, Note_on_c, 1, 64, 100
5, 11160, Note_on_c, 1, 64, 0
5, 11160, Note_on_c, 1, 64, 100
5, 11220, Note_on_c, 1, 64, 0
5, 11220, Note_on_c, 1, 59, 100
5, 11280, Note_on_c, 1, 59, 0
5, 11280, Note_on_c, 1, 59, 100
5, 11340, Note_on_c, 1, 59, 0
5, 11340, Note_on_c, 1, 61, 100
5, 11370, Note_on_c, 1, 61, 0
5, 11370, Note_on_c, 1, 63, 100
5, 11400, Note_on_c, 1, 63, 0
5, 11400, Note_on_c, 1, 64, 100
5, 11430, Note_on_c, 1, 64, 0
5, 11430, Note_on_c, 1, 66, 100
5, 11460, Note_on_c, 1, 66, 0
5, 11460, Note_on_c, 1, 67, 100
5, 11520, Note_on_c, 1, 67, 0
5, 11520, Note_on_c, 1, 67, 100
5, 11580, Note_on_c, 1, 67, 0
5, 11580, Note_on_c, 1, 73, 100
5, 11640, Note_on_c, 1, 73, 0
5, 11640, Note_on_c, 1, 73, 100
5, 11700, Note_on_c, 1, 73, 0
5, 11700, Note_on_c, 1, 76, 100
5, 11760, Note_on_c, 1, 76, 0
5, 11760, Note_on_c, 1, 76, 100
5, 11820, Note_on_c, 1, 76, 0
5, 11820, Note_on_c, 1, 74, 100
5, 11880, Note_on_c, 1, 74, 0
5, 11880, Note_on_c, 1, 74, 100
5, 11940, Note_on_c, 1, 74, 0
5, 11940, Note_on_c, 1, 73, 100
5, 12000, Note_on_c, 1, 73, 0
5, 12000, Note_on_c, 1, 73, 100
5, 12060, Note_on_c, 1, 73, 0
5, 12060, Note_on_c, 1, 74, 100
5, 12120, Note_on_c, 1, 74, 0
5, 12120, Note_on_c, 1, 74, 100
5, 12180, Note_on_c, 1, 74, 0
5, 12180, Note_on_c, 1, 70, 100
5, 12240, Note_on_c, 1, 70, 0
5, 12240, Note_on_c, 1, 70, 100
5, 12300, Note_on_c, 1, 70, 0
5, 12300, Note_on_c, 1, 71, 100
5, 12360, Note_on_c, 1, 71, 0
5, 12360, Note_on_c, 1, 71, 100
5, 12420, Note_on_c, 1, 71, 0
5, 12420, Note_on_c, 1, 66, 100
5, 12480, Note_on_c, 1, 66, 0
5, 12480, Note_on_c, 1, 67, 100
5, 12540, Note_on_c, 1, 67, 0
5, 12540, Note_on_c, 1, 72, 100
5, 12600, Note_on_c, 1, 72, 0
5, 12600, Note_on_c, 1, 72, 100
5, 12660, Note_on_c, 1, 72, 0
5, 12660, Note_on_c, 1, 71, 100
5, 12720, Note_on_c, 1, 71, 0
5, 12720, Note_on_c, 1, 71, 100
5, 12780, Note_on_c, 1, 71, 0
5, 12780, Note_on_c, 1, 62, 100
5, 12840, Note_on_c, 1, 62, 0
5, 12840, Note_on_c, 1, 62, 100
5, 12900, Note_on_c, 1, 62, 0
5, 12900, Note_on_c, 1, 61, 100
5, 12960, Note_on_c, 1, 61, 0
5, 12960, Note_on_c, 1, 61, 100
5, 13020, Note_on_c, 1, 61, 0
5, 13020, Note_on_c, 1, 78, 100
5, 13080, Note_on_c, 1, 78, 0
5, 13080, Note_on_c, 1, 78, 100
5, 13140, Note_on_c, 1, 78, 0
5, 13140, Note_on_c, 1, 76, 100
5, 13200, Note_on_c, 1, 76, 0
5, 13200, Note_on_c, 1, 76, 100
5, 13260, Note_on_c, 1, 76, 0
5, 13260, Note_on_c, 1, 70, 100
5, 13320, Note_on_c, 1, 70, 0
5, 13320, Note_on_c, 1, 70, 100
5, 13380, Note_on_c, 1, 70, 0
5, 13380, Note_on_c, 1, 71, 100
5, 13440, Note_on_c, 1, 71, 0
5, 13440, Note_on_c, 1, 71, 100
5, 13500, Note_on_c, 1, 71, 0
5, 13500, Note_on_c, 1, 66, 100
5, 13560, Note_on_c, 1, 66, 0
5, 13560, Note_on_c, 1, 64, 100
5, 13620, Note_on_c, 1, 64, 0
5, 13620, Note_on_c, 1, 62, 100
5, 13680, Note_on_c, 1, 62, 0
5, 13680, Note_on_c, 1, 66, 100
5, 13740, Note_on_c, 1, 66, 0
5, 13740, Note_on_c, 1, 64, 100
5, 13800, Note_on_c, 1, 64, 0
5, 13800, Note_on_c, 1, 62, 100
5, 13860, Note_on_c, 1, 62, 0
5, 13860, Note_on_c, 1, 61, 100
5, 13920, Note_on_c, 1, 61, 0
5, 13920, Note_on_c, 1, 59, 100
5, 13980, Note_on_c, 1, 59, 0
5, 13980, Note_on_c, 1, 66, 100
5, 13980, Note_on_c, 1, 62, 100
5, 14040, Note_on_c, 1, 62, 0
5, 14040, Note_on_c, 1, 66, 0
5, 14040, Note_on_c, 1, 66, 100
5, 14040, Note_on_c, 1, 62, 100
5, 14100, Note_on_c, 1, 62, 0
5, 14100, Note_on_c, 1, 66, 0
5, 14100, Note_on_c, 1, 61, 100
5, 14100, Note_on_c, 1, 64, 100
5, 14160, Note_on_c, 1, 64, 0
5, 14160, Note_on_c, 1, 61, 0
5, 14160, Note_on_c, 1, 61, 100
5, 14160, Note_on_c, 1, 64, 100
5, 14220, Note_on_c, 1, 64, 0
5, 14220, Note_on_c, 1, 61, 0
5, 14220, Note_on_c, 1, 64, 100
5, 14220, Note_on_c, 1, 67, 100
5, 14280, Note_on_c, 1, 67, 0
5, 14280, Note_on_c, 1, 64, 0
5, 14280, Note_on_c, 1, 64, 100
5, 14280, Note_on_c, 1, 67, 100
5, 14340, Note_on_c, 1, 67, 0
5, 14340, Note_on_c, 1, 64, 0
5, 14340, Note_on_c, 1, 62, 100
5, 14340, Note_on_c, 1, 66, 100
5, 14400, Note_on_c, 1, 66, 0
5, 14400, Note_on_c, 1, 62, 0
5, 14400, Note_on_c, 1, 62, 100
5, 14400, Note_on_c, 1, 66, 100
5, 14460, Note_on_c, 1, 66, 0
5, 14460, Note_on_c, 1, 70, 100
5, 14520, Note_on_c, 1, 70, 0
5, 14520, Note_on_c, 1, 62, 0
5, 14520, Note_on_c, 1, 71, 100
5, 14580, Note_on_c, 1, 71, 0
5, 14580, Note_on_c, 1, 74, 100
5, 14640, Note_on_c, 1, 74, 0
5, 14640, Note_on_c, 1, 73, 100
5, 14700, Note_on_c, 1, 73, 0
5, 14700, Note_on_c, 1, 78, 100
5, 14760, Note_on_c, 1, 78, 0
5, 14760, Note_on_c, 1, 78, 100
5, 14820, Note_on_c, 1, 78, 0
5, 14820, Note_on_c, 1, 77, 100
5, 14880, Note_on_c, 1, 77, 0
5, 14940, Note_on_c, 1, 59, 100
5, 14940, Note_on_c, 1, 62, 100
5, 15000, Note_on_c, 1, 62, 0
5, 15000, Note_on_c, 1, 59, 0
5, 15000, Note_on_c, 1, 59, 100
5, 15000, Note_on_c, 1, 62, 100
5, 15060, Note_on_c, 1, 62, 0
5, 15060, Note_on_c, 1, 59, 0
5, 15060, Note_on_c, 1, 58, 100
5, 15060, Note_on_c, 1, 61, 100
5, 15120, Note_on_c, 1, 61, 0
5, 15120, Note_on_c, 1, 58, 0
5, 15120, Note_on_c, 1, 58, 100
5, 15120, Note_on_c, 1, 61, 100
5, 15180, Note_on_c, 1, 61, 0
5, 15180, Note_on_c, 1, 58, 0
5, 15180, Note_on_c, 1, 66, 100
5, 15180, Note_on_c, 1, 62, 100
5, 15240, Note_on_c, 1, 62, 0
5, 15240, Note_on_c, 1, 66, 0
5, 15240, Note_on_c, 1, 66, 100
5, 15240, Note_on_c, 1, 62, 100
5, 15300, Note_on_c, 1, 62, 0
5, 15300, Note_on_c, 1, 66, 0
5, 15300, Note_on_c, 1, 64, 100
5, 15300, Note_on_c, 1, 61, 100
5, 15360, Note_on_c, 1, 61, 0
5, 15360, Note_on_c, 1, 64, 0
5, 15360, Note_on_c, 1, 64, 100
5, 15360, Note_on_c, 1, 61, 100
5, 15480, Note_on_c, 1, 61, 0
5, 15480, Note_on_c, 1, 64, 0
5, 15900, Note_on_c, 1, 73, 100
5, 15930, Note_on_c, 1, 73, 0
5, 15930, Note_on_c, 1, 71, 100
5, 15960, Note_on_c, 1, 71, 0
5, 15960, Note_on_c, 1, 73, 100
5, 16020, Note_on_c, 1, 73, 0
5, 16020, Note_on_c, 1, 76, 100
5, 16080, Note_on_c, 1, 76, 0
5, 16080, Note_on_c, 1, 74, 100
5, 16140, Note_on_c, 1, 74, 0
5, 16140, Note_on_c, 1, 73, 100
5, 16200, Note_on_c, 1, 73, 0
5, 16200, Note_on_c, 1, 71, 100
5, 16260, Note_on_c, 1, 71, 0
5, 16260, Note_on_c, 1, 70, 100
5, 16320, Note_on_c, 1, 70, 0
5, 16320, Note_on_c, 1, 71, 100
5, 16380, Note_on_c, 1, 71, 0
5, 16380, Note_on_c, 1, 69, 100
5, 16410, Note_on_c, 1, 69, 0
5, 16410, Note_on_c, 1, 67, 100
5, 16440, Note_on_c, 1, 67, 0
5, 16440, Note_on_c, 1, 66, 100
5, 16500, Note_on_c, 1, 66, 0
5, 16500, Note_on_c, 1, 69, 100
5, 16560, Note_on_c, 1, 69, 0
5, 16560, Note_on_c, 1, 67, 100
5, 16620, Note_on_c, 1, 67, 0
5, 16620, Note_on_c, 1, 66, 100
5, 16680, Note_on_c, 1, 66, 0
5, 16680, Note_on_c, 1, 64, 100
5, 16740, Note_on_c, 1, 64, 0
5, 16740, Note_on_c, 1, 62, 100
5, 16800, Note_on_c, 1, 62, 0
5, 16800, Note_on_c, 1, 67, 100
5, 16920, Note_on_c, 1, 67, 0
5, 16920, Note_on_c, 1, 67, 100
5, 17040, Note_on_c, 1, 67, 0
5, 17040, Note_on_c, 1, 67, 100
5, 17160, Note_on_c, 1, 67, 0
5, 17160, Note_on_c, 1, 67, 100
5, 17280, Note_on_c, 1, 67, 0
5, 17280, Note_on_c, 1, 67, 100
5, 17310, Note_on_c, 1, 67, 0
5, 17310, Note_on_c, 1, 66, 100
5, 17340, Note_on_c, 1, 66, 0
5, 17340, Note_on_c, 1, 64, 100
5, 17400, Note_on_c, 1, 64, 0
5, 17400, Note_on_c, 1, 64, 100
5, 17460, Note_on_c, 1, 64, 0
5, 17460, Note_on_c, 1, 66, 100
5, 17640, Note_on_c, 1, 66, 0
5, 17640, Note_on_c, 1, 57, 100
5, 17760, Note_on_c, 1, 57, 0
5, 17760, Note_on_c, 1, 66, 100
5, 17880, Note_on_c, 1, 66, 0
5, 17880, Note_on_c, 1, 66, 100
5, 18000, Note_on_c, 1, 66, 0
5, 18000, Note_on_c, 1, 66, 100
5, 18120, Note_on_c, 1, 66, 0
5, 18120, Note_on_c, 1, 66, 100
5, 18240, Note_on_c, 1, 66, 0
5, 18240, Note_on_c, 1, 66, 100
5, 18270, Note_on_c, 1, 66, 0
5, 18270, Note_on_c, 1, 64, 100
5, 18300, Note_on_c, 1, 64, 0
5, 18300, Note_on_c, 1, 63, 100
5, 18360, Note_on_c, 1, 63, 0
5, 18360, Note_on_c, 1, 63, 100
5, 18420, Note_on_c, 1, 63, 0
5, 18420, Note_on_c, 1, 64, 100
5, 18600, Note_on_c, 1, 64, 0
5, 18600, Note_on_c, 1, 76, 100
5, 18780, Note_on_c, 1, 76, 0
5, 18780, Note_on_c, 1, 73, 100
5, 18840, Note_on_c, 1, 73, 0
5, 18840, Note_on_c, 1, 70, 100
5, 18900, Note_on_c, 1, 70, 0
5, 18900, Note_on_c, 1, 71, 100
5, 18960, Note_on_c, 1, 71, 0
5, 18960, Note_on_c, 1, 71, 100
5, 19020, Note_on_c, 1, 71, 0
5, 19020, Note_on_c, 1, 73, 100
5, 19050, Note_on_c, 1, 73, 0
5, 19050, Note_on_c, 1, 74, 100
5, 19080, Note_on_c, 1, 74, 0
5, 19080, Note_on_c, 1, 73, 100
5, 19140, Note_on_c, 1, 73, 0
5, 19140, Note_on_c, 1, 64, 100
5, 19200, Note_on_c, 1, 64, 0
5, 19200, Note_on_c, 1, 62, 100
5, 19260, Note_on_c, 1, 62, 0
5, 19260, Note_on_c, 1, 61, 100
5, 19290, Note_on_c, 1, 61, 0
5, 19290, Note_on_c, 1, 59, 100
5, 19320, Note_on_c, 1, 59, 0
5, 19320, Note_on_c, 1, 61, 100
5, 19380, Note_on_c, 1, 61, 0
5, 19380, Note_on_c, 1, 71, 100
5, 19440, Note_on_c, 1, 71, 0
5, 19440, Note_on_c, 1, 71, 100
5, 19455, Note_on_c, 1, 71, 0
5, 19455, Note_on_c, 1, 70, 100
5, 19470, Note_on_c, 1, 70, 0
5, 19470, Note_on_c, 1, 71, 100
5, 19485, Note_on_c, 1, 71, 0
5, 19485, Note_on_c, 1, 70, 100
5, 19500, Note_on_c, 1, 70, 0
5, 19500, Note_on_c, 1, 71, 100
5, 19515, Note_on_c, 1, 71, 0
5, 19515, Note_on_c, 1, 70, 100
5, 19530, Note_on_c, 1, 70, 0
5, 19530, Note_on_c, 1, 71, 100
5, 19545, Note_on_c, 1, 71, 0
5, 19545, Note_on_c, 1, 70, 100
5, 19560, Note_on_c, 1, 70, 0
5, 19560, Note_on_c, 1, 71, 100
5, 19575, Note_on_c, 1, 71, 0
5, 19575, Note_on_c, 1, 70, 100
5, 19590, Note_on_c, 1, 70, 0
5, 19590, Note_on_c, 1, 71, 100
5, 19605, Note_on_c, 1, 71, 0
5, 19605, Note_on_c, 1, 70, 100
5, 19620, Note_on_c, 1, 70, 0
5, 19620, Note_on_c, 1, 71, 100
5, 19680, Note_on_c, 1, 71, 0
5, 19680, Note_on_c, 1, 71, 100
5, 19740, Note_on_c, 1, 71, 0
5, 19740, Note_on_c, 1, 69, 100
5, 19770, Note_on_c, 1, 69, 0
5, 19770, Note_on_c, 1, 67, 100
5, 19800, Note_on_c, 1, 67, 0
5, 19800, Note_on_c, 1, 66, 100
5, 19860, Note_on_c, 1, 66, 0
5, 19860, Note_on_c, 1, 64, 100
5, 19920, Note_on_c, 1, 64, 0
5, 19920, Note_on_c, 1, 62, 100
5, 19980, Note_on_c, 1, 62, 0
5, 19980, Note_on_c, 1, 71, 100
5, 20040, Note_on_c, 1, 71, 0
5, 20040, Note_on_c, 1, 61, 100
5, 20100, Note_on_c, 1, 61, 0
5, 20100, Note_on_c, 1, 70, 100
5, 20160, Note_on_c, 1, 70, 0
5, 20160, Note_on_c, 1, 71, 100
5, 20160, Note_on_c, 1, 66, 100
5, 20160, Note_on_c, 1, 62, 100
5, 20160, Note_on_c, 1, 59, 100
5, 20280, Note_on_c, 1, 59, 0
5, 20280, Note_on_c, 1, 71, 0
5, 20280, Note_on_c, 1, 66, 0
5, 20280, Note_on_c, 1, 62, 0
5, 20400, Note_on_c, 1, 70, 100
5, 20400, Note_on_c, 1, 66, 100
5, 20400, Note_on_c, 1, 61, 100
5, 20520, Note_on_c, 1, 61, 0
5, 20520, Note_on_c, 1, 66, 0
5, 20520, Note_on_c, 1, 70, 0
5, 20700, Note_on_c, 1, 62, 100
5, 20700, Note_on_c, 1, 71, 100
5, 20760, Note_on_c, 1, 71, 0
5, 20760, Note_on_c, 1, 62, 0
5, 20760, Note_on_c, 1, 62, 100
5, 20760, Note_on_c, 1, 71, 100
5, 20820, Note_on_c, 1, 71, 0
5, 20820, Note_on_c, 1, 62, 0
5, 20820, Note_on_c, 1, 61, 100
5, 20820, Note_on_c, 1, 70, 100
5, 20880, Note_on_c, 1, 70, 0
5, 20880, Note_on_c, 1, 61, 0
5, 20880, Note_on_c, 1, 71, 100
5, 20880, Note_on_c, 1, 62, 100
5, 21000, Note_on_c, 1, 62, 0
5, 21000, Note_on_c, 1, 71, 0
5, 21240, Note_on_c, 1, 71, 100
5, 21240, Note_on_c, 1, 67, 100
5, 21356, Note_on_c, 1, 71, 100
5, 21358, Note_on_c, 1, 61, 100
5, 21360, Note_on_c, 1, 67, 0
5, 21360, Note_on_c, 1, 71, 0
5, 21476, Note_on_c, 1, 71, 0
5, 21478, Note_on_c, 1, 61, 0
5, 21478, Note_on_c, 1, 66, 100
5, 21482, Note_on_c, 1, 70, 100
5, 21598, Note_on_c, 1, 66, 0
5, 21602, Note_on_c, 1, 70, 0
5, 21660, Note_on_c, 1, 74, 100
5, 21660, Note_on_c, 1, 66, 100
5, 21720, Note_on_c, 1, 66, 0
5, 21720, Note_on_c, 1, 74, 0
5, 21720, Note_on_c, 1, 71, 100
5, 21720, Note_on_c, 1, 74, 100
5, 21780, Note_on_c, 1, 74, 0
5, 21780, Note_on_c, 1, 71, 0
5, 21780, Note_on_c, 1, 70, 100
5, 21780, Note_on_c, 1, 73, 100
5, 21840, Note_on_c, 1, 73, 0
5, 21840, Note_on_c, 1, 70, 0
5, 21840, Note_on_c, 1, 71, 100
5, 21960, Note_on_c, 1, 71, 0
5, 22200, Note_on_c, 1, 75, 100
5, 22200, Note_on_c, 1, 69, 100
5, 22200, Note_on_c, 1, 66, 100
5, 22320, Note_on_c, 1, 66, 0
5, 22320, Note_on_c, 1, 69, 0
5, 22320, Note_on_c, 1, 75, 0
5, 22320, Note_on_c, 1, 76, 100
5, 22320, Note_on_c, 1, 71, 100
5, 22320, Note_on_c, 1, 67, 100
5, 22440, Note_on_c, 1, 67, 0
5, 22440, Note_on_c, 1, 71, 0
5, 22440, Note_on_c, 1, 76, 0
5, 22440, Note_on_c, 1, 71, 100
5, 22440, Note_on_c, 1, 68, 100
5, 22440, Note_on_c, 1, 64, 100
5, 22560, Note_on_c, 1, 64, 0
5, 22560, Note_on_c, 1, 68, 0
5, 22560, Note_on_c, 1, 71, 0
5, 22620, Note_on_c, 1, 73, 100
5, 22620, Note_on_c, 1, 64, 100
5, 22680, Note_on_c, 1, 64, 0
5, 22680, Note_on_c, 1, 73, 0
5, 22680, Note_on_c, 1, 69, 100
5, 22680, Note_on_c, 1, 73, 100
5, 22740, Note_on_c, 1, 73, 0
5, 22740, Note_on_c, 1, 69, 0
5, 22740, Note_on_c, 1, 68, 100
5, 22740, Note_on_c, 1, 71, 100
5, 22800, Note_on_c, 1, 71, 0
5, 22800, Note_on_c, 1, 68, 0
5, 22800, Note_on_c, 1, 69, 100
5, 22920, Note_on_c, 1, 69, 0
5, 23160, Note_on_c, 1, 73, 100
5, 23160, Note_on_c, 1, 67, 100
5, 23160, Note_on_c, 1, 64, 100
5, 23280, Note_on_c, 1, 64, 0
5, 23280, Note_on_c, 1, 67, 0
5, 23280, Note_on_c, 1, 73, 0
5, 23280, Note_on_c, 1, 74, 100
5, 23280, Note_on_c, 1, 69, 100
5, 23280, Note_on_c, 1, 66, 100
5, 23400, Note_on_c, 1, 66, 0
5, 23400, Note_on_c, 1, 69, 0
5, 23400, Note_on_c, 1, 74, 0
5, 23400, Note_on_c, 1, 69, 100
5, 23400, Note_on_c, 1, 66, 100
5, 23400, Note_on_c, 1, 62, 100
5, 23400, Note_on_c, 1, 57, 100
5, 23520, Note_on_c, 1, 57, 0
5, 23520, Note_on_c, 1, 69, 0
5, 23520, Note_on_c, 1, 66, 0
5, 23520, Note_on_c, 1, 62, 0
5, 23580, Note_on_c, 1, 71, 100
5, 23580, Note_on_c, 1, 62, 100
5, 23640, Note_on_c, 1, 62, 0
5, 23640, Note_on_c, 1, 71, 0
5, 23640, Note_on_c, 1, 64, 100
5, 23640, Note_on_c, 1, 71, 100
5, 23700, Note_on_c, 1, 71, 0
5, 23700, Note_on_c, 1, 64, 0
5, 23700, Note_on_c, 1, 66, 100
5, 23700, Note_on_c, 1, 70, 100
5, 23760, Note_on_c, 1, 70, 0
5, 23760, Note_on_c, 1, 66, 0
5, 23760, Note_on_c, 1, 67, 100
5, 23760, Note_on_c, 1, 71, 100
5, 23880, Note_on_c, 1, 71, 0
5, 23880, Note_on_c, 1, 67, 0
5, 24120, Note_on_c, 1, 76, 100
5, 24120, Note_on_c, 1, 67, 100
5, 24240, Note_on_c, 1, 67, 0
5, 24240, Note_on_c, 1, 76, 0
5, 24240, Note_on_c, 1, 74, 100
5, 24240, Note_on_c, 1, 66, 100
5, 24360, Note_on_c, 1, 66, 0
5, 24360, Note_on_c, 1, 74, 0
5, 24360, Note_on_c, 1, 70, 100
5, 24360, Note_on_c, 1, 73, 100
5, 24480, Note_on_c, 1, 73, 0
5, 24480, Note_on_c, 1, 70, 0
5, 24480, Note_on_c, 1, 73, 100
5, 24480, Note_on_c, 1, 70, 100
5, 24600, Note_on_c, 1, 70, 0
5, 24600, Note_on_c, 1, 73, 0
5, 24600, Note_on_c, 1, 78, 100
5, 24600, Note_on_c, 1, 66, 100
5, 24720, Note_on_c, 1, 66, 0
5, 24720, Note_on_c, 1, 78, 0
5, 24720, Note_on_c, 1, 73, 100
5, 24720, Note_on_c, 1, 76, 100
5, 24840, Note_on_c, 1, 76, 0
5, 24840, Note_on_c, 1, 73, 0
5, 25076, Note_on_c, 1, 78, 100
5, 25078, Note_on_c, 1, 74, 100
5, 25196, Note_on_c, 1, 78, 0
5, 25198, Note_on_c, 1, 74, 0
5, 25198, Note_on_c, 1, 76, 100
5, 25200, Note_on_c, 1, 71, 100
5, 25318, Note_on_c, 1, 76, 0
5, 25318, Note_on_c, 1, 71, 100
5, 25318, Note_on_c, 1, 74, 100
5, 25320, Note_on_c, 1, 71, 0
5, 25434, Note_on_c, 1, 76, 100
5, 25438, Note_on_c, 1, 74, 0
5, 25438, Note_on_c, 1, 71, 0
5, 25440, Note_on_c, 1, 69, 100
5, 25500, Note_on_c, 1, 69, 0
5, 25554, Note_on_c, 1, 76, 0
5, 25556, Note_on_c, 1, 81, 100
5, 25676, Note_on_c, 1, 81, 0
5, 25800, Note_on_c, 1, 69, 100
5, 25920, Note_on_c, 1, 69, 0
5, 25920, Note_on_c, 1, 78, 100
5, 25950, Note_on_c, 1, 78, 0
5, 25950, Note_on_c, 1, 76, 100
5, 25980, Note_on_c, 1, 76, 0
5, 25980, Note_on_c, 1, 74, 100
5, 26038, Note_on_c, 1, 74, 100
5, 26040, Note_on_c, 1, 74, 0
5, 26098, Note_on_c, 1, 74, 0
5, 26100, Note_on_c, 1, 76, 100
5, 26220, Note_on_c, 1, 76, 0
5, 26220, Note_on_c, 1, 74, 100
5, 26250, Note_on_c, 1, 74, 0
5, 26250, Note_on_c, 1, 76, 100
5, 26280, Note_on_c, 1, 76, 0
5, 26280, Note_on_c, 1, 78, 100
5, 26310, Note_on_c, 1, 78, 0
5, 26310, Note_on_c, 1, 76, 100
5, 26340, Note_on_c, 1, 76, 0
5, 26340, Note_on_c, 1, 74, 100
5, 26370, Note_on_c, 1, 74, 0
5, 26370, Note_on_c, 1, 73, 100
5, 26400, Note_on_c, 1, 73, 0
5, 26400, Note_on_c, 1, 74, 100
5, 26430, Note_on_c, 1, 74, 0
5, 26430, Note_on_c, 1, 73, 100
5, 26460, Note_on_c, 1, 73, 0
5, 26460, Note_on_c, 1, 71, 100
5, 26520, Note_on_c, 1, 71, 0
5, 26520, Note_on_c, 1, 69, 100
5, 26700, Note_on_c, 1, 69, 0
5, 26700, Note_on_c, 1, 71, 100
5, 26730, Note_on_c, 1, 71, 0
5, 26730, Note_on_c, 1, 73, 100
5, 26760, Note_on_c, 1, 73, 0
5, 26760, Note_on_c, 1, 74, 100
5, 26820, Note_on_c, 1, 74, 0
5, 26820, Note_on_c, 1, 76, 100
5, 26880, Note_on_c, 1, 76, 0
5, 26880, Note_on_c, 1, 78, 100
5, 26910, Note_on_c, 1, 78, 0
5, 26910, Note_on_c, 1, 76, 100
5, 26940, Note_on_c, 1, 76, 0
5, 26940, Note_on_c, 1, 74, 100
5, 27000, Note_on_c, 1, 74, 0
5, 27000, Note_on_c, 1, 74, 100
5, 27060, Note_on_c, 1, 74, 0
5, 27060, Note_on_c, 1, 76, 100
5, 27180, Note_on_c, 1, 76, 0
5, 27180, Note_on_c, 1, 74, 100
5, 27210, Note_on_c, 1, 74, 0
5, 27210, Note_on_c, 1, 76, 100
5, 27240, Note_on_c, 1, 76, 0
5, 27240, Note_on_c, 1, 78, 100
5, 27270, Note_on_c, 1, 78, 0
5, 27270, Note_on_c, 1, 76, 100
5, 27300, Note_on_c, 1, 76, 0
5, 27300, Note_on_c, 1, 74, 100
5, 27330, Note_on_c, 1, 74, 0
5, 27330, Note_on_c, 1, 73, 100
5, 27360, Note_on_c, 1, 73, 0
5, 27360, Note_on_c, 1, 74, 100
5, 27480, Note_on_c, 1, 74, 0
5, 27480, Note_on_c, 1, 62, 100
5, 27600, Note_on_c, 1, 62, 0
5, 27640, Note_on_c, 1, 62, 100
5, 27680, Note_on_c, 1, 62, 0
5, 27680, Note_on_c, 1, 64, 100
5, 27720, Note_on_c, 1, 64, 0
5, 27720, Note_on_c, 1, 66, 100
5, 27760, Note_on_c, 1, 66, 0
5, 27760, Note_on_c, 1, 67, 100
5, 27800, Note_on_c, 1, 67, 0
5, 27800, Note_on_c, 1, 69, 100
5, 27840, Note_on_c, 1, 69, 0
5, 27840, Note_on_c, 1, 71, 100
5, 27900, Note_on_c, 1, 71, 0
5, 27900, Note_on_c, 1, 62, 100
5, 27960, Note_on_c, 1, 62, 0
5, 27960, Note_on_c, 1, 63, 100
5, 28020, Note_on_c, 1, 63, 0
5, 28020, Note_on_c, 1, 69, 100
5, 28080, Note_on_c, 1, 69, 0
5, 28080, Note_on_c, 1, 67, 100
5, 28120, Note_on_c, 1, 67, 0
5, 28120, Note_on_c, 1, 64, 100
5, 28160, Note_on_c, 1, 64, 0
5, 28160, Note_on_c, 1, 66, 100
5, 28200, Note_on_c, 1, 66, 0
5, 28200, Note_on_c, 1, 68, 100
5, 28240, Note_on_c, 1, 68, 0
5, 28240, Note_on_c, 1, 69, 100
5, 28280, Note_on_c, 1, 69, 0
5, 28280, Note_on_c, 1, 71, 100
5, 28320, Note_on_c, 1, 71, 0
5, 28320, Note_on_c, 1, 73, 100
5, 28380, Note_on_c, 1, 73, 0
5, 28380, Note_on_c, 1, 64, 100
5, 28440, Note_on_c, 1, 64, 0
5, 28440, Note_on_c, 1, 65, 100
5, 28500, Note_on_c, 1, 65, 0
5, 28500, Note_on_c, 1, 71, 100
5, 28560, Note_on_c, 1, 71, 0
5, 28560, Note_on_c, 1, 69, 100
5, 28600, Note_on_c, 1, 69, 0
5, 28600, Note_on_c, 1, 66, 100
5, 28640, Note_on_c, 1, 66, 0
5, 28640, Note_on_c, 1, 68, 100
5, 28680, Note_on_c, 1, 68, 0
5, 28680, Note_on_c, 1, 70, 100
5, 28720, Note_on_c, 1, 70, 0
5, 28720, Note_on_c, 1, 71, 100
5, 28760, Note_on_c, 1, 71, 0
5, 28760, Note_on_c, 1, 73, 100
5, 28800, Note_on_c, 1, 73, 0
5, 28800, Note_on_c, 1, 74, 100
5, 28860, Note_on_c, 1, 74, 0
5, 28860, Note_on_c, 1, 65, 100
5, 28920, Note_on_c, 1, 65, 0
5, 28920, Note_on_c, 1, 66, 100
5, 28980, Note_on_c, 1, 66, 0
5, 28980, Note_on_c, 1, 73, 100
5, 29040, Note_on_c, 1, 73, 0
5, 29040, Note_on_c, 1, 71, 100
5, 29080, Note_on_c, 1, 71, 0
5, 29080, Note_on_c, 1, 74, 100
5, 29120, Note_on_c, 1, 74, 0
5, 29120, Note_on_c, 1, 73, 100
5, 29160, Note_on_c, 1, 73, 0
5, 29160, Note_on_c, 1, 71, 100
5, 29200, Note_on_c, 1, 71, 0
5, 29200, Note_on_c, 1, 69, 100
5, 29240, Note_on_c, 1, 69, 0
5, 29240, Note_on_c, 1, 68, 100
5, 29280, Note_on_c, 1, 68, 0
5, 29280, Note_on_c, 1, 66, 100
5, 29320, Note_on_c, 1, 66, 0
5, 29320, Note_on_c, 1, 64, 100
5, 29360, Note_on_c, 1, 64, 0
5, 29360, Note_on_c, 1, 63, 100
5, 29400, Note_on_c, 1, 63, 0
5, 29400, Note_on_c, 1, 64, 100
5, 29440, Note_on_c, 1, 64, 0
5, 29440, Note_on_c, 1, 66, 100
5, 29480, Note_on_c, 1, 66, 0
5, 29480, Note_on_c, 1, 67, 100
5, 29520, Note_on_c, 1, 67, 0
5, 29520, Note_on_c, 1, 61, 100
5, 29580, Note_on_c, 1, 61, 0
5, 29580, Note_on_c, 1, 64, 100
5, 29640, Note_on_c, 1, 64, 0
5, 29640, Note_on_c, 1, 67, 100
5, 29700, Note_on_c, 1, 67, 0
5, 29700, Note_on_c, 1, 71, 100
5, 29760, Note_on_c, 1, 71, 0
5, 29760, Note_on_c, 1, 71, 100
5, 29800, Note_on_c, 1, 71, 0
5, 29800, Note_on_c, 1, 69, 100
5, 29840, Note_on_c, 1, 69, 0
5, 29840, Note_on_c, 1, 68, 100
5, 29880, Note_on_c, 1, 68, 0
5, 29880, Note_on_c, 1, 69, 100
5, 29920, Note_on_c, 1, 69, 0
5, 29920, Note_on_c, 1, 71, 100
5, 29960, Note_on_c, 1, 71, 0
5, 29960, Note_on_c, 1, 73, 100
5, 30000, Note_on_c, 1, 73, 0
5, 30000, Note_on_c, 1, 74, 100
5, 30040, Note_on_c, 1, 74, 0
5, 30040, Note_on_c, 1, 78, 100
5, 30080, Note_on_c, 1, 78, 0
5, 30080, Note_on_c, 1, 76, 100
5, 30120, Note_on_c, 1, 76, 0
5, 30120, Note_on_c, 1, 74, 100
5, 30160, Note_on_c, 1, 74, 0
5, 30160, Note_on_c, 1, 73, 100
5, 30200, Note_on_c, 1, 73, 0
5, 30200, Note_on_c, 1, 71, 100
5, 30240, Note_on_c, 1, 71, 0
5, 30240, Note_on_c, 1, 69, 100
5, 30280, Note_on_c, 1, 69, 0
5, 30280, Note_on_c, 1, 68, 100
5, 30320, Note_on_c, 1, 68, 0
5, 30320, Note_on_c, 1, 66, 100
5, 30360, Note_on_c, 1, 66, 0
5, 30360, Note_on_c, 1, 68, 100
5, 30400, Note_on_c, 1, 68, 0
5, 30400, Note_on_c, 1, 69, 100
5, 30440, Note_on_c, 1, 69, 0
5, 30440, Note_on_c, 1, 71, 100
5, 30480, Note_on_c, 1, 71, 0
5, 30480, Note_on_c, 1, 73, 100
5, 30520, Note_on_c, 1, 73, 0
5, 30520, Note_on_c, 1, 76, 100
5, 30560, Note_on_c, 1, 76, 0
5, 30560, Note_on_c, 1, 74, 100
5, 30600, Note_on_c, 1, 74, 0
5, 30600, Note_on_c, 1, 73, 100
5, 30640, Note_on_c, 1, 73, 0
5, 30640, Note_on_c, 1, 71, 100
5, 30680, Note_on_c, 1, 71, 0
5, 30680, Note_on_c, 1, 69, 100
5, 30720, Note_on_c, 1, 69, 0
5, 30720, Note_on_c, 1, 67, 100
5, 30760, Note_on_c, 1, 67, 0
5, 30760, Note_on_c, 1, 66, 100
5, 30800, Note_on_c, 1, 66, 0
5, 30800, Note_on_c, 1, 65, 100
5, 30840, Note_on_c, 1, 65, 0
5, 30840, Note_on_c, 1, 66, 100
5, 30880, Note_on_c, 1, 66, 0
5, 30880, Note_on_c, 1, 67, 100
5, 30920, Note_on_c, 1, 67, 0
5, 30920, Note_on_c, 1, 69, 100
5, 30960, Note_on_c, 1, 69, 0
5, 30960, Note_on_c, 1, 71, 100
5, 31000, Note_on_c, 1, 71, 0
5, 31000, Note_on_c, 1, 74, 100
5, 31040, Note_on_c, 1, 74, 0
5, 31040, Note_on_c, 1, 73, 100
5, 31080, Note_on_c, 1, 73, 0
5, 31080, Note_on_c, 1, 71, 100
5, 31120, Note_on_c, 1, 71, 0
5, 31120, Note_on_c, 1, 69, 100
5, 31160, Note_on_c, 1, 69, 0
5, 31160, Note_on_c, 1, 67, 100
5, 31200, Note_on_c, 1, 67, 0
5, 31200, Note_on_c, 1, 66, 100
5, 31240, Note_on_c, 1, 66, 0
5, 31240, Note_on_c, 1, 64, 100
5, 31280, Note_on_c, 1, 64, 0
5, 31280, Note_on_c, 1, 63, 100
5, 31320, Note_on_c, 1, 63, 0
5, 31320, Note_on_c, 1, 64, 100
5, 31360, Note_on_c, 1, 64, 0
5, 31360, Note_on_c, 1, 66, 100
5, 31400, Note_on_c, 1, 66, 0
5, 31400, Note_on_c, 1, 67, 100
5, 31440, Note_on_c, 1, 67, 0
5, 31440, Note_on_c, 1, 61, 100
5, 31480, Note_on_c, 1, 61, 0
5, 31480, Note_on_c, 1, 62, 100
5, 31520, Note_on_c, 1, 62, 0
5, 31520, Note_on_c, 1, 61, 100
5, 31560, Note_on_c, 1, 61, 0
5, 31560, Note_on_c, 1, 59, 100
5, 31600, Note_on_c, 1, 59, 0
5, 31600, Note_on_c, 1, 57, 100
5, 31640, Note_on_c, 1, 57, 0
5, 31640, Note_on_c, 1, 56, 100
5, 31680, Note_on_c, 1, 56, 0
5, 31680, Note_on_c, 1, 57, 100
5, 31740, Note_on_c, 1, 57, 0
5, 31740, Note_on_c, 1, 66, 100
5, 31800, Note_on_c, 1, 66, 0
5, 31800, Note_on_c, 1, 59, 100
5, 31860, Note_on_c, 1, 59, 0
5, 31860, Note_on_c, 1, 65, 100
5, 31920, Note_on_c, 1, 65, 0
5, 31920, Note_on_c, 1, 66, 100
5, 31980, Note_on_c, 1, 66, 0
5, 31980, Note_on_c, 1, 61, 100
5, 32040, Note_on_c, 1, 61, 0
5, 32040, Note_on_c, 1, 68, 100
5, 32100, Note_on_c, 1, 68, 0
5, 32100, Note_on_c, 1, 59, 100
5, 32160, Note_on_c, 1, 59, 0
5, 32160, Note_on_c, 1, 57, 100
5, 32220, Note_on_c, 1, 57, 0
5, 32220, Note_on_c, 1, 66, 100
5, 32280, Note_on_c, 1, 66, 0
5, 32280, Note_on_c, 1, 59, 100
5, 32340, Note_on_c, 1, 59, 0
5, 32340, Note_on_c, 1, 65, 100
5, 32400, Note_on_c, 1, 65, 0
5, 32400, Note_on_c, 1, 66, 100
5, 32460, Note_on_c, 1, 66, 0
5, 32460, Note_on_c, 1, 61, 100
5, 32520, Note_on_c, 1, 61, 0
5, 32520, Note_on_c, 1, 68, 100
5, 32580, Note_on_c, 1, 68, 0
5, 32580, Note_on_c, 1, 59, 100
5, 32640, Note_on_c, 1, 59, 0
5, 32640, Note_on_c, 1, 57, 100
5, 32700, Note_on_c, 1, 57, 0
5, 32700, Note_on_c, 1, 66, 100
5, 32760, Note_on_c, 1, 66, 0
5, 32760, Note_on_c, 1, 59, 100
5, 32820, Note_on_c, 1, 59, 0
5, 32820, Note_on_c, 1, 68, 100
5, 32880, Note_on_c, 1, 68, 0
5, 32880, Note_on_c, 1, 57, 100
5, 32940, Note_on_c, 1, 57, 0
5, 32940, Note_on_c, 1, 66, 100
5, 33000, Note_on_c, 1, 66, 0
5, 33000, Note_on_c, 1, 56, 100
5, 33060, Note_on_c, 1, 56, 0
5, 33060, Note_on_c, 1, 65, 100
5, 33120, Note_on_c, 1, 65, 0
5, 33120, Note_on_c, 1, 66, 100
5, 33180, Note_on_c, 1, 66, 0
5, 33180, Note_on_c, 1, 61, 100
5, 33240, Note_on_c, 1, 61, 0
5, 33240, Note_on_c, 1, 59, 100
5, 33300, Note_on_c, 1, 59, 0
5, 33300, Note_on_c, 1, 61, 100
5, 33360, Note_on_c, 1, 61, 0
5, 33360, Note_on_c, 1, 57, 100
5, 33480, Note_on_c, 1, 57, 0
5, 33660, Note_on_c, 1, 73, 100
5, 33720, Note_on_c, 1, 73, 0
5, 33720, Note_on_c, 1, 71, 100
5, 33780, Note_on_c, 1, 71, 0
5, 33780, Note_on_c, 1, 69, 100
5, 33840, Note_on_c, 1, 69, 0
5, 33840, Note_on_c, 1, 68, 100
5, 33960, Note_on_c, 1, 68, 0
5, 33960, Note_on_c, 1, 67, 100
5, 34080, Note_on_c, 1, 67, 0
5, 34080, Note_on_c, 1, 66, 100
5, 34140, Note_on_c, 1, 66, 0
5, 34140, Note_on_c, 1, 58, 100
5, 34200, Note_on_c, 1, 58, 0
5, 34200, Note_on_c, 1, 59, 100
5, 34320, Note_on_c, 1, 59, 0
5, 34380, Note_on_c, 1, 66, 100
5, 34440, Note_on_c, 1, 66, 0
5, 34440, Note_on_c, 1, 68, 100
5, 34500, Note_on_c, 1, 68, 0
5, 34500, Note_on_c, 1, 71, 100
5, 34560, Note_on_c, 1, 71, 0
5, 34560, Note_on_c, 1, 65, 100
5, 34620, Note_on_c, 1, 65, 0
5, 34620, Note_on_c, 1, 73, 100
5, 34680, Note_on_c, 1, 73, 0
5, 34680, Note_on_c, 1, 73, 100
5, 34740, Note_on_c, 1, 73, 0
5, 34740, Note_on_c, 1, 66, 100
5, 34800, Note_on_c, 1, 66, 0
5, 34800, Note_on_c, 1, 66, 100
5, 34860, Note_on_c, 1, 66, 0
5, 34860, Note_on_c, 1, 64, 100
5, 34920, Note_on_c, 1, 64, 0
5, 34920, Note_on_c, 1, 63, 100
5, 34980, Note_on_c, 1, 63, 0
5, 34980, Note_on_c, 1, 64, 100
5, 35040, Note_on_c, 1, 64, 0
5, 35040, Note_on_c, 1, 63, 100
5, 35100, Note_on_c, 1, 63, 0
5, 35100, Note_on_c, 1, 71, 100
5, 35160, Note_on_c, 1, 71, 0
5, 35160, Note_on_c, 1, 71, 100
5, 35220, Note_on_c, 1, 71, 0
5, 35220, Note_on_c, 1, 64, 100
5, 35280, Note_on_c, 1, 64, 0
5, 35280, Note_on_c, 1, 64, 100
5, 35400, Note_on_c, 1, 64, 0
5, 35400, Note_on_c, 1, 76, 100
5, 35520, Note_on_c, 1, 76, 0
5, 35520, Note_on_c, 1, 76, 100
5, 35580, Note_on_c, 1, 76, 0
5, 35580, Note_on_c, 1, 78, 100
5, 35640, Note_on_c, 1, 78, 0
5, 35640, Note_on_c, 1, 75, 100
5, 35760, Note_on_c, 1, 75, 0
5, 35880, Note_on_c, 1, 74, 100
5, 36000, Note_on_c, 1, 74, 0
5, 36000, Note_on_c, 1, 74, 100
5, 36060, Note_on_c, 1, 74, 0
5, 36060, Note_on_c, 1, 76, 100
5, 36120, Note_on_c, 1, 76, 0
5, 36120, Note_on_c, 1, 73, 100
5, 36240, Note_on_c, 1, 73, 0
5, 36360, Note_on_c, 1, 61, 100
5, 36480, Note_on_c, 1, 61, 0
5, 36480, Note_on_c, 1, 73, 100
5, 36600, Note_on_c, 1, 73, 0
5, 36600, Note_on_c, 1, 73, 100
5, 36840, Note_on_c, 1, 73, 0
5, 36840, Note_on_c, 1, 71, 100
5, 36870, Note_on_c, 1, 71, 0
5, 36870, Note_on_c, 1, 73, 100
5, 36900, Note_on_c, 1, 73, 0
5, 36900, Note_on_c, 1, 74, 100
5, 36960, Note_on_c, 1, 74, 0
5, 36960, Note_on_c, 1, 73, 100
5, 37080, Note_on_c, 1, 73, 0
5, 37080, Note_on_c, 1, 73, 100
5, 37320, Note_on_c, 1, 73, 0
5, 37320, Note_on_c, 1, 71, 100
5, 37350, Note_on_c, 1, 71, 0
5, 37350, Note_on_c, 1, 73, 100
5, 37380, Note_on_c, 1, 73, 0
5, 37380, Note_on_c, 1, 74, 100
5, 37440, Note_on_c, 1, 74, 0
5, 37440, Note_on_c, 1, 73, 100
5, 37560, Note_on_c, 1, 73, 0
5, 37560, Note_on_c, 1, 74, 100
5, 37680, Note_on_c, 1, 74, 0
5, 37680, Note_on_c, 1, 73, 100
5, 37800, Note_on_c, 1, 73, 0
5, 37800, Note_on_c, 1, 71, 100
5, 37920, Note_on_c, 1, 71, 0
5, 37920, Note_on_c, 1, 69, 100
5, 38040, Note_on_c, 1, 69, 0
5, 38040, Note_on_c, 1, 68, 100
5, 38100, Note_on_c, 1, 68, 0
5, 38100, Note_on_c, 1, 69, 100
5, 38160, Note_on_c, 1, 69, 0
5, 38160, Note_on_c, 1, 66, 100
5, 38520, Note_on_c, 1, 66, 0
5, 38520, Note_on_c, 1, 71, 100
5, 38700, Note_on_c, 1, 71, 0
5, 38700, Note_on_c, 1, 69, 100
5, 38760, Note_on_c, 1, 69, 0
5, 38760, Note_on_c, 1, 68, 100
5, 38820, Note_on_c, 1, 68, 0
5, 38820, Note_on_c, 1, 66, 100
5, 38880, Note_on_c, 1, 66, 0
5, 38880, Note_on_c, 1, 68, 100
5, 39000, Note_on_c, 1, 68, 0
5, 39000, Note_on_c, 1, 68, 100
5, 39120, Note_on_c, 1, 68, 0
5, 39120, Note_on_c, 1, 68, 100
5, 39240, Note_on_c, 1, 68, 0
5, 39240, Note_on_c, 1, 67, 100
5, 39360, Note_on_c, 1, 67, 0
5, 39360, Note_on_c, 1, 67, 100
5, 39480, Note_on_c, 1, 67, 0
5, 39480, Note_on_c, 1, 76, 100
5, 39640, Note_on_c, 1, 76, 0
5, 39640, Note_on_c, 1, 74, 100
5, 39680, Note_on_c, 1, 74, 0
5, 39680, Note_on_c, 1, 73, 100
5, 39720, Note_on_c, 1, 73, 0
5, 39720, Note_on_c, 1, 71, 100
5, 39760, Note_on_c, 1, 71, 0
5, 39760, Note_on_c, 1, 69, 100
5, 39800, Note_on_c, 1, 69, 0
5, 39800, Note_on_c, 1, 67, 100
5, 39840, Note_on_c, 1, 67, 0
5, 39840, Note_on_c, 1, 66, 100
5, 39960, Note_on_c, 1, 66, 0
5, 39960, Note_on_c, 1, 66, 100
5, 40080, Note_on_c, 1, 66, 0
5, 40080, Note_on_c, 1, 66, 100
5, 40200, Note_on_c, 1, 66, 0
5, 40200, Note_on_c, 1, 66, 100
5, 40320, Note_on_c, 1, 66, 0
5, 40320, Note_on_c, 1, 66, 100
5, 40440, Note_on_c, 1, 66, 0
5, 40440, Note_on_c, 1, 74, 100
5, 40600, Note_on_c, 1, 74, 0
5, 40600, Note_on_c, 1, 73, 100
5, 40640, Note_on_c, 1, 73, 0
5, 40640, Note_on_c, 1, 71, 100
5, 40680, Note_on_c, 1, 71, 0
5, 40680, Note_on_c, 1, 69, 100
5, 40720, Note_on_c, 1, 69, 0
5, 40720, Note_on_c, 1, 67, 100
5, 40760, Note_on_c, 1, 67, 0
5, 40760, Note_on_c, 1, 66, 100
5, 40800, Note_on_c, 1, 66, 0
5, 40800, Note_on_c, 1, 64, 100
5, 40840, Note_on_c, 1, 64, 0
5, 40840, Note_on_c, 1, 63, 100
5, 40880, Note_on_c, 1, 63, 0
5, 40880, Note_on_c, 1, 64, 100
5, 40920, Note_on_c, 1, 64, 0
5, 40920, Note_on_c, 1, 66, 100
5, 40960, Note_on_c, 1, 66, 0
5, 40960, Note_on_c, 1, 64, 100
5, 41000, Note_on_c, 1, 64, 0
5, 41000, Note_on_c, 1, 63, 100
5, 41040, Note_on_c, 1, 63, 0
5, 41040, Note_on_c, 1, 64, 100
5, 41160, Note_on_c, 1, 64, 0
5, 41160, Note_on_c, 1, 76, 100
5, 41280, Note_on_c, 1, 76, 0
5, 41280, Note_on_c, 1, 75, 100
5, 41400, Note_on_c, 1, 75, 0
5, 41400, Note_on_c, 1, 74, 100
5, 41520, Note_on_c, 1, 74, 0
5, 41520, Note_on_c, 1, 73, 100
5, 41640, Note_on_c, 1, 73, 0
5, 41640, Note_on_c, 1, 72, 100
5, 41760, Note_on_c, 1, 72, 0
5, 41760, Note_on_c, 1, 71, 100
5, 41880, Note_on_c, 1, 71, 0
5, 41880, Note_on_c, 1, 62, 100
5, 42000, Note_on_c, 1, 62, 0
5, 42000, Note_on_c, 1, 61, 100
5, 42120, Note_on_c, 1, 61, 0
5, 42120, Note_on_c, 1, 71, 100
5, 42300, Note_on_c, 1, 71, 0
5, 42300, Note_on_c, 1, 69, 100
5, 42330, Note_on_c, 1, 69, 0
5, 42330, Note_on_c, 1, 68, 100
5, 42360, Note_on_c, 1, 68, 0
5, 42360, Note_on_c, 1, 69, 100
5, 42420, Note_on_c, 1, 69, 0
5, 42420, Note_on_c, 1, 71, 100
5, 42480, Note_on_c, 1, 71, 0
5, 42480, Note_on_c, 1, 71, 100
5, 42540, Note_on_c, 1, 71, 0
5, 42540, Note_on_c, 1, 73, 100
5, 42600, Note_on_c, 1, 73, 0
5, 42600, Note_on_c, 1, 71, 100
5, 42660, Note_on_c, 1, 71, 0
5, 42660, Note_on_c, 1, 69, 100
5, 42690, Note_on_c, 1, 69, 0
5, 42690, Note_on_c, 1, 71, 100
5, 42720, Note_on_c, 1, 71, 0
5, 42720, Note_on_c, 1, 73, 100
5, 42840, Note_on_c, 1, 73, 0
5, 42840, Note_on_c, 1, 66, 100
5, 42960, Note_on_c, 1, 66, 0
5, 42960, Note_on_c, 1, 65, 100
5, 43020, Note_on_c, 1, 65, 0
5, 43020, Note_on_c, 1, 68, 100
5, 43080, Note_on_c, 1, 68, 0
5, 43080, Note_on_c, 1, 62, 100
5, 43260, Note_on_c, 1, 62, 0
5, 43260, Note_on_c, 1, 61, 100
5, 43320, Note_on_c, 1, 61, 0
5, 43320, Note_on_c, 1, 71, 100
5, 43350, Note_on_c, 1, 71, 0
5, 43350, Note_on_c, 1, 69, 100
5, 43380, Note_on_c, 1, 69, 0
5, 43380, Note_on_c, 1, 68, 100
5, 43440, Note_on_c, 1, 68, 0
5, 43440, Note_on_c, 1, 68, 100
5, 43500, Note_on_c, 1, 68, 0
5, 43500, Note_on_c, 1, 69, 100
5, 43560, Note_on_c, 1, 69, 0
5, 43560, Note_on_c, 1, 62, 100
5, 43720, Note_on_c, 1, 62, 0
5, 43720, Note_on_c, 1, 61, 100
5, 43760, Note_on_c, 1, 61, 0
5, 43760, Note_on_c, 1, 64, 100
5, 43800, Note_on_c, 1, 64, 0
5, 43800, Note_on_c, 1, 58, 100
5, 43980, Note_on_c, 1, 58, 0
5, 43980, Note_on_c, 1, 57, 100
5, 44040, Note_on_c, 1, 57, 0
5, 44040, Note_on_c, 1, 67, 100
5, 44070, Note_on_c, 1, 67, 0
5, 44070, Note_on_c, 1, 66, 100
5, 44100, Note_on_c, 1, 66, 0
5, 44100, Note_on_c, 1, 64, 100
5, 44160, Note_on_c, 1, 64, 0
5, 44160, Note_on_c, 1, 64, 100
5, 44220, Note_on_c, 1, 64, 0
5, 44220, Note_on_c, 1, 66, 100
5, 44280, Note_on_c, 1, 66, 0
5, 44760, Note_on_c, 1, 71, 100
5, 44880, Note_on_c, 1, 71, 0
5, 44880, Note_on_c, 1, 70, 100
5, 44940, Note_on_c, 1, 70, 0
5, 44940, Note_on_c, 1, 73, 100
5, 45000, Note_on_c, 1, 73, 0
5, 45000, Note_on_c, 1, 67, 100
5, 45180, Note_on_c, 1, 67, 0
5, 45180, Note_on_c, 1, 66, 100
5, 45240, Note_on_c, 1, 66, 0
5, 45240, Note_on_c, 1, 76, 100
5, 45270, Note_on_c, 1, 76, 0
5, 45270, Note_on_c, 1, 74, 100
5, 45300, Note_on_c, 1, 74, 0
5, 45300, Note_on_c, 1, 73, 100
5, 45360, Note_on_c, 1, 73, 0
5, 45360, Note_on_c, 1, 73, 100
5, 45420, Note_on_c, 1, 73, 0
5, 45420, Note_on_c, 1, 74, 100
5, 45480, Note_on_c, 1, 74, 0
5, 45480, Note_on_c, 1, 67, 100
5, 45640, Note_on_c, 1, 67, 0
5, 45640, Note_on_c, 1, 66, 100
5, 45680, Note_on_c, 1, 66, 0
5, 45680, Note_on_c, 1, 69, 100
5, 45720, Note_on_c, 1, 69, 0
5, 45720, Note_on_c, 1, 63, 100
5, 45900, Note_on_c, 1, 63, 0
5, 45900, Note_on_c, 1, 62, 100
5, 45960, Note_on_c, 1, 62, 0
5, 45960, Note_on_c, 1, 72, 100
5, 45990, Note_on_c, 1, 72, 0
5, 45990, Note_on_c, 1, 71, 100
5, 46020, Note_on_c, 1, 71, 0
5, 46020, Note_on_c, 1, 69, 100
5, 46080, Note_on_c, 1, 69, 0
5, 46080, Note_on_c, 1, 69, 100
5, 46140, Note_on_c, 1, 69, 0
5, 46140, Note_on_c, 1, 71, 100
5, 46200, Note_on_c, 1, 71, 0
5, 46440, Note_on_c, 1, 59, 100
5, 46560, Note_on_c, 1, 59, 0
5, 46560, Note_on_c, 1, 60, 100
5, 46680, Note_on_c, 1, 60, 0
5, 46680, Note_on_c, 1, 63, 100
5, 46800, Note_on_c, 1, 63, 0
5, 46800, Note_on_c, 1, 64, 100
5, 46920, Note_on_c, 1, 64, 0
5, 46920, Note_on_c, 1, 67, 100
5, 47040, Note_on_c, 1, 67, 0
5, 47040, Note_on_c, 1, 70, 100
5, 47160, Note_on_c, 1, 70, 0
5, 47160, Note_on_c, 1, 74, 100
5, 47280, Note_on_c, 1, 74, 0
5, 47280, Note_on_c, 1, 73, 100
5, 47400, Note_on_c, 1, 73, 0
5, 47400, Note_on_c, 1, 64, 100
5, 47520, Note_on_c, 1, 64, 0
5, 47520, Note_on_c, 1, 62, 100
5, 47640, Note_on_c, 1, 62, 0
5, 47640, Note_on_c, 1, 61, 100
5, 47700, Note_on_c, 1, 61, 0
5, 47700, Note_on_c, 1, 59, 100
5, 47760, Note_on_c, 1, 59, 0
5, 47760, Note_on_c, 1, 62, 100
5, 47820, Note_on_c, 1, 62, 0
5, 47820, Note_on_c, 1, 61, 100
5, 47880, Note_on_c, 1, 61, 0
5, 47880, Note_on_c, 1, 59, 100
5, 47940, Note_on_c, 1, 59, 0
5, 47940, Note_on_c, 1, 58, 100
5, 48000, Note_on_c, 1, 58, 0
5, 48000, Note_on_c, 1, 59, 100
5, 48120, Note_on_c, 1, 59, 0
5, 48840, Note_on_c, 1, 71, 100
5, 48960, Note_on_c, 1, 71, 0
5, 48960, Note_on_c, 1, 69, 100
5, 49080, Note_on_c, 1, 69, 0
5, 49080, Note_on_c, 1, 74, 100
5, 49200, Note_on_c, 1, 74, 0
5, 49200, Note_on_c, 1, 73, 100
5, 49320, Note_on_c, 1, 73, 0
5, 49320, Note_on_c, 1, 78, 100
5, 49440, Note_on_c, 1, 78, 0
5, 49440, Note_on_c, 1, 72, 100
5, 49560, Note_on_c, 1, 72, 0
5, 49560, Note_on_c, 1, 73, 100
5, 49680, Note_on_c, 1, 73, 0
5, 50280, Note_on_c, 1, 72, 100
5, 50400, Note_on_c, 1, 72, 0
5, 50400, Note_on_c, 1, 78, 100
5, 50520, Note_on_c, 1, 78, 0
5, 50520, Note_on_c, 1, 77, 100
5, 50640, Note_on_c, 1, 77, 0
5, 50760, Note_on_c, 1, 61, 100
5, 50880, Note_on_c, 1, 61, 0
5, 50880, Note_on_c, 1, 69, 100
5, 50910, Note_on_c, 1, 69, 0
5, 50910, Note_on_c, 1, 68, 100
5, 50940, Note_on_c, 1, 68, 0
5, 50940, Note_on_c, 1, 66, 100
5, 51000, Note_on_c, 1, 66, 0
5, 51000, Note_on_c, 1, 66, 100
5, 51060, Note_on_c, 1, 66, 0
5, 51060, Note_on_c, 1, 68, 100
5, 51180, Note_on_c, 1, 68, 0
5, 51180, Note_on_c, 1, 66, 100
5, 51210, Note_on_c, 1, 66, 0
5, 51210, Note_on_c, 1, 68, 100
5, 51240, Note_on_c, 1, 68, 0
5, 51240, Note_on_c, 1, 69, 100
5, 51270, Note_on_c, 1, 69, 0
5, 51270, Note_on_c, 1, 68, 100
5, 51300, Note_on_c, 1, 68, 0
5, 51300, Note_on_c, 1, 66, 100
5, 51330, Note_on_c, 1, 66, 0
5, 51330, Note_on_c, 1, 65, 100
5, 51360, Note_on_c, 1, 65, 0
5, 51360, Note_on_c, 1, 66, 100
5, 51390, Note_on_c, 1, 66, 0
5, 51390, Note_on_c, 1, 64, 100
5, 51420, Note_on_c, 1, 64, 0
5, 51420, Note_on_c, 1, 62, 100
5, 51480, Note_on_c, 1, 62, 0
5, 51480, Note_on_c, 1, 61, 100
5, 51660, Note_on_c, 1, 61, 0
5, 51660, Note_on_c, 1, 63, 100
5, 51690, Note_on_c, 1, 63, 0
5, 51690, Note_on_c, 1, 65, 100
5, 51720, Note_on_c, 1, 65, 0
5, 51720, Note_on_c, 1, 66, 100
5, 51780, Note_on_c, 1, 66, 0
5, 51780, Note_on_c, 1, 68, 100
5, 51840, Note_on_c, 1, 68, 0
5, 51840, Note_on_c, 1, 69, 100
5, 51870, Note_on_c, 1, 69, 0
5, 51870, Note_on_c, 1, 68, 100
5, 51900, Note_on_c, 1, 68, 0
5, 51900, Note_on_c, 1, 66, 100
5, 51960, Note_on_c, 1, 66, 0
5, 51960, Note_on_c, 1, 68, 100
5, 52140, Note_on_c, 1, 68, 0
5, 52140, Note_on_c, 1, 66, 100
5, 52170, Note_on_c, 1, 66, 0
5, 52170, Note_on_c, 1, 68, 100
5, 52200, Note_on_c, 1, 68, 0
5, 52200, Note_on_c, 1, 69, 100
5, 52230, Note_on_c, 1, 69, 0
5, 52230, Note_on_c, 1, 68, 100
5, 52260, Note_on_c, 1, 68, 0
5, 52260, Note_on_c, 1, 66, 100
5, 52290, Note_on_c, 1, 66, 0
5, 52290, Note_on_c, 1, 65, 100
5, 52320, Note_on_c, 1, 65, 0
5, 52320, Note_on_c, 1, 66, 100
5, 52440, Note_on_c, 1, 66, 0
5, 52440, Note_on_c, 1, 54, 100
5, 52560, Note_on_c, 1, 54, 0
5, 52680, Note_on_c, 1, 61, 100
5, 52800, Note_on_c, 1, 61, 0
5, 52800, Note_on_c, 1, 69, 100
5, 52920, Note_on_c, 1, 69, 0
5, 52920, Note_on_c, 1, 69, 100
5, 53040, Note_on_c, 1, 69, 0
5, 53040, Note_on_c, 1, 69, 100
5, 53160, Note_on_c, 1, 69, 0
5, 53160, Note_on_c, 1, 69, 100
5, 53280, Note_on_c, 1, 69, 0
5, 53280, Note_on_c, 1, 69, 100
5, 53310, Note_on_c, 1, 69, 0
5, 53310, Note_on_c, 1, 68, 100
5, 53340, Note_on_c, 1, 68, 0
5, 53340, Note_on_c, 1, 66, 100
5, 53400, Note_on_c, 1, 66, 0
5, 53400, Note_on_c, 1, 66, 100
5, 53460, Note_on_c, 1, 66, 0
5, 53460, Note_on_c, 1, 68, 100
5, 53640, Note_on_c, 1, 68, 0
5, 53640, Note_on_c, 1, 59, 100
5, 53760, Note_on_c, 1, 59, 0
5, 53760, Note_on_c, 1, 67, 100
5, 53880, Note_on_c, 1, 67, 0
5, 53880, Note_on_c, 1, 67, 100
5, 54000, Note_on_c, 1, 67, 0
5, 54000, Note_on_c, 1, 67, 100
5, 54120, Note_on_c, 1, 67, 0
5, 54120, Note_on_c, 1, 67, 100
5, 54240, Note_on_c, 1, 67, 0
5, 54240, Note_on_c, 1, 67, 100
5, 54270, Note_on_c, 1, 67, 0
5, 54270, Note_on_c, 1, 66, 100
5, 54300, Note_on_c, 1, 66, 0
5, 54300, Note_on_c, 1, 64, 100
5, 54360, Note_on_c, 1, 64, 0
5, 54360, Note_on_c, 1, 64, 100
5, 54420, Note_on_c, 1, 64, 0
5, 54420, Note_on_c, 1, 66, 100
5, 54600, Note_on_c, 1, 66, 0
5, 54600, Note_on_c, 1, 69, 100
5, 54780, Note_on_c, 1, 69, 0
5, 54780, Note_on_c, 1, 68, 100
5, 54840, Note_on_c, 1, 68, 0
5, 54840, Note_on_c, 1, 68, 100
5, 54900, Note_on_c, 1, 68, 0
5, 54900, Note_on_c, 1, 67, 100
5, 54960, Note_on_c, 1, 67, 0
5, 54960, Note_on_c, 1, 67, 100
5, 55020, Note_on_c, 1, 67, 0
5, 55020, Note_on_c, 1, 66, 100
5, 55080, Note_on_c, 1, 66, 0
5, 55080, Note_on_c, 1, 66, 100
5, 55140, Note_on_c, 1, 66, 0
5, 55140, Note_on_c, 1, 65, 100
5, 55200, Note_on_c, 1, 65, 0
5, 55200, Note_on_c, 1, 65, 100
5, 55260, Note_on_c, 1, 65, 0
5, 55260, Note_on_c, 1, 74, 100
5, 55320, Note_on_c, 1, 74, 0
5, 55320, Note_on_c, 1, 74, 100
5, 55380, Note_on_c, 1, 74, 0
5, 55380, Note_on_c, 1, 73, 100
5, 55440, Note_on_c, 1, 73, 0
5, 55440, Note_on_c, 1, 73, 100
5, 55500, Note_on_c, 1, 73, 0
5, 55500, Note_on_c, 1, 77, 100
5, 55560, Note_on_c, 1, 77, 0
5, 55560, Note_on_c, 1, 77, 100
5, 55620, Note_on_c, 1, 77, 0
5, 55620, Note_on_c, 1, 78, 100
5, 55680, Note_on_c, 1, 78, 0
5, 55680, Note_on_c, 1, 66, 100
5, 55800, Note_on_c, 1, 66, 0
5, 55800, Note_on_c, 1, 74, 100
5, 55860, Note_on_c, 1, 74, 0
5, 55860, Note_on_c, 1, 73, 100
5, 55920, Note_on_c, 1, 73, 0
5, 55920, Note_on_c, 1, 71, 100
5, 55980, Note_on_c, 1, 71, 0
5, 55980, Note_on_c, 1, 69, 100
5, 56040, Note_on_c, 1, 69, 0
5, 56040, Note_on_c, 1, 68, 100
5, 56100, Note_on_c, 1, 68, 0
5, 56100, Note_on_c, 1, 66, 100
5, 56160, Note_on_c, 1, 66, 0
5, 56160, Note_on_c, 1, 66, 100
5, 56220, Note_on_c, 1, 66, 0
5, 56220, Note_on_c, 1, 64, 100
5, 56250, Note_on_c, 1, 64, 0
5, 56250, Note_on_c, 1, 62, 100
5, 56280, Note_on_c, 1, 62, 0
5, 56280, Note_on_c, 1, 61, 100
5, 56340, Note_on_c, 1, 61, 0
5, 56340, Note_on_c, 1, 59, 100
5, 56400, Note_on_c, 1, 59, 0
5, 56400, Note_on_c, 1, 57, 100
5, 56460, Note_on_c, 1, 57, 0
5, 56460, Note_on_c, 1, 66, 100
5, 56520, Note_on_c, 1, 66, 0
5, 56520, Note_on_c, 1, 56, 100
5, 56580, Note_on_c, 1, 56, 0
5, 56580, Note_on_c, 1, 65, 100
5, 56640, Note_on_c, 1, 65, 0
5, 56640, Note_on_c, 1, 66, 100
5, 56760, Note_on_c, 1, 66, 0
5, 56760, Note_on_c, 1, 73, 100
5, 56760, Note_on_c, 1, 66, 100
5, 56880, Note_on_c, 1, 66, 0
5, 56880, Note_on_c, 1, 73, 0
5, 56880, Note_on_c, 1, 78, 100
5, 56880, Note_on_c, 1, 73, 100
5, 57000, Note_on_c, 1, 73, 0
5, 57000, Note_on_c, 1, 78, 0
5, 57000, Note_on_c, 1, 66, 100
5, 57000, Note_on_c, 1, 73, 100
5, 57120, Note_on_c, 1, 73, 0
5, 57120, Note_on_c, 1, 66, 0
5, 57240, Note_on_c, 1, 59, 100
5, 57240, Note_on_c, 1, 66, 100
5, 57360, Note_on_c, 1, 66, 0
5, 57360, Note_on_c, 1, 59, 0
5, 57360, Note_on_c, 1, 69, 100
5, 57360, Note_on_c, 1, 66, 100
5, 57480, Note_on_c, 1, 66, 0
5, 57480, Note_on_c, 1, 69, 0
5, 57480, Note_on_c, 1, 59, 100
5, 57480, Note_on_c, 1, 63, 100
5, 57600, Note_on_c, 1, 63, 0
5, 57600, Note_on_c, 1, 59, 0
5, 57600, Note_on_c, 1, 64, 100
5, 57720, Note_on_c, 1, 64, 0
5, 57720, Note_on_c, 1, 71, 100
5, 57720, Note_on_c, 1, 64, 100
5, 57840, Note_on_c, 1, 64, 0
5, 57840, Note_on_c, 1, 71, 0
5, 57840, Note_on_c, 1, 76, 100
5, 57840, Note_on_c, 1, 71, 100
5, 57960, Note_on_c, 1, 71, 0
5, 57960, Note_on_c, 1, 76, 0
5, 57960, Note_on_c, 1, 64, 100
5, 57960, Note_on_c, 1, 71, 100
5, 58080, Note_on_c, 1, 71, 0
5, 58080, Note_on_c, 1, 64, 0
5, 58200, Note_on_c, 1, 57, 100
5, 58200, Note_on_c, 1, 64, 100
5, 58320, Note_on_c, 1, 64, 0
5, 58320, Note_on_c, 1, 57, 0
5, 58320, Note_on_c, 1, 67, 100
5, 58320, Note_on_c, 1, 64, 100
5, 58440, Note_on_c, 1, 64, 0
5, 58440, Note_on_c, 1, 67, 0
5, 58440, Note_on_c, 1, 57, 100
5, 58440, Note_on_c, 1, 61, 100
5, 58560, Note_on_c, 1, 61, 0
5, 58560, Note_on_c, 1, 57, 0
5, 58560, Note_on_c, 1, 62, 100
5, 58680, Note_on_c, 1, 62, 0
5, 58680, Note_on_c, 1, 78, 100
5, 58680, Note_on_c, 1, 69, 100
5, 58800, Note_on_c, 1, 69, 0
5, 58800, Note_on_c, 1, 78, 0
5, 58800, Note_on_c, 1, 76, 100
5, 58800, Note_on_c, 1, 67, 100
5, 58920, Note_on_c, 1, 67, 0
5, 58920, Note_on_c, 1, 76, 0
5, 58920, Note_on_c, 1, 74, 100
5, 58920, Note_on_c, 1, 66, 100
5, 59040, Note_on_c, 1, 66, 0
5, 59040, Note_on_c, 1, 74, 0
5, 59160, Note_on_c, 1, 67, 100
5, 59160, Note_on_c, 1, 76, 100
5, 59280, Note_on_c, 1, 76, 0
5, 59280, Note_on_c, 1, 67, 0
5, 59280, Note_on_c, 1, 66, 100
5, 59280, Note_on_c, 1, 74, 100
5, 59400, Note_on_c, 1, 74, 0
5, 59400, Note_on_c, 1, 66, 0
5, 59400, Note_on_c, 1, 64, 100
5, 59400, Note_on_c, 1, 70, 100
5, 59400, Note_on_c, 1, 73, 100
5, 59520, Note_on_c, 1, 73, 0
5, 59520, Note_on_c, 1, 70, 0
5, 59520, Note_on_c, 1, 64, 0
5, 59640, Note_on_c, 1, 74, 100
5, 59640, Note_on_c, 1, 71, 100
5, 59760, Note_on_c, 1, 71, 0
5, 59760, Note_on_c, 1, 74, 0
5, 59760, Note_on_c, 1, 67, 100
5, 59760, Note_on_c, 1, 71, 100
5, 59880, Note_on_c, 1, 71, 0
5, 59880, Note_on_c, 1, 67, 0
5, 59880, Note_on_c, 1, 64, 100
5, 59880, Note_on_c, 1, 67, 100
5, 60000, Note_on_c, 1, 67, 0
5, 60000, Note_on_c, 1, 64, 0
5, 60120, Note_on_c, 1, 72, 100
5, 60120, Note_on_c, 1, 64, 100
5, 60240, Note_on_c, 1, 64, 0
5, 60240, Note_on_c, 1, 72, 0
5, 60240, Note_on_c, 1, 69, 100
5, 60240, Note_on_c, 1, 66, 100
5, 60360, Note_on_c, 1, 66, 0
5, 60360, Note_on_c, 1, 69, 0
5, 60360, Note_on_c, 1, 57, 100
5, 60360, Note_on_c, 1, 66, 100
5, 60480, Note_on_c, 1, 66, 0
5, 60480, Note_on_c, 1, 57, 0
5, 60480, Note_on_c, 1, 74, 100
5, 60600, Note_on_c, 1, 74, 0
5, 60602, Note_on_c, 1, 74, 100
5, 60840, Note_on_c, 1, 72, 100
5, 60842, Note_on_c, 1, 74, 0
5, 60870, Note_on_c, 1, 72, 0
5, 60870, Note_on_c, 1, 74, 100
5, 60900, Note_on_c, 1, 74, 0
5, 60900, Note_on_c, 1, 76, 100
5, 60960, Note_on_c, 1, 76, 0
5, 60960, Note_on_c, 1, 74, 100
5, 61080, Note_on_c, 1, 74, 0
5, 61080, Note_on_c, 1, 74, 100
5, 61320, Note_on_c, 1, 74, 0
5, 61320, Note_on_c, 1, 72, 100
5, 61350, Note_on_c, 1, 72, 0
5, 61350, Note_on_c, 1, 74, 100
5, 61380, Note_on_c, 1, 74, 0
5, 61380, Note_on_c, 1, 76, 100
5, 61440, Note_on_c, 1, 76, 0
5, 61440, Note_on_c, 1, 74, 100
5, 61560, Note_on_c, 1, 74, 0
5, 61560, Note_on_c, 1, 76, 100
5, 61680, Note_on_c, 1, 76, 0
5, 61680, Note_on_c, 1, 74, 100
5, 61800, Note_on_c, 1, 74, 0
5, 61800, Note_on_c, 1, 72, 100
5, 61920, Note_on_c, 1, 72, 0
5, 61920, Note_on_c, 1, 71, 100
5, 61980, Note_on_c, 1, 71, 0
5, 61980, Note_on_c, 1, 72, 100
5, 62040, Note_on_c, 1, 72, 0
5, 62040, Note_on_c, 1, 69, 100
5, 62100, Note_on_c, 1, 69, 0
5, 62100, Note_on_c, 1, 71, 100
5, 62160, Note_on_c, 1, 71, 0
5, 62160, Note_on_c, 1, 67, 100
5, 62200, Note_on_c, 1, 67, 0
5, 62200, Note_on_c, 1, 71, 100
5, 62240, Note_on_c, 1, 71, 0
5, 62240, Note_on_c, 1, 69, 100
5, 62280, Note_on_c, 1, 69, 0
5, 62280, Note_on_c, 1, 67, 100
5, 62320, Note_on_c, 1, 67, 0
5, 62320, Note_on_c, 1, 66, 100
5, 62360, Note_on_c, 1, 66, 0
5, 62360, Note_on_c, 1, 64, 100
5, 62400, Note_on_c, 1, 64, 0
5, 62400, Note_on_c, 1, 66, 100
5, 62400, Note_on_c, 1, 62, 100
5, 62440, Note_on_c, 1, 62, 0
5, 62440, Note_on_c, 1, 66, 0
5, 62440, Note_on_c, 1, 69, 100
5, 62480, Note_on_c, 1, 69, 0
5, 62480, Note_on_c, 1, 67, 100
5, 62520, Note_on_c, 1, 67, 0
5, 62520, Note_on_c, 1, 66, 100
5, 62560, Note_on_c, 1, 66, 0
5, 62560, Note_on_c, 1, 62, 100
5, 62600, Note_on_c, 1, 62, 0
5, 62600, Note_on_c, 1, 64, 100
5, 62640, Note_on_c, 1, 64, 0
5, 62640, Note_on_c, 1, 66, 100
5, 62680, Note_on_c, 1, 66, 0
5, 62680, Note_on_c, 1, 69, 100
5, 62720, Note_on_c, 1, 69, 0
5, 62720, Note_on_c, 1, 67, 100
5, 62760, Note_on_c, 1, 67, 0
5, 62760, Note_on_c, 1, 66, 100
5, 62800, Note_on_c, 1, 66, 0
5, 62800, Note_on_c, 1, 62, 100
5, 62840, Note_on_c, 1, 62, 0
5, 62840, Note_on_c, 1, 64, 100
5, 62880, Note_on_c, 1, 64, 0
5, 62880, Note_on_c, 1, 65, 100
5, 62920, Note_on_c, 1, 65, 0
5, 62920, Note_on_c, 1, 69, 100
5, 62960, Note_on_c, 1, 69, 0
5, 62960, Note_on_c, 1, 67, 100
5, 63000, Note_on_c, 1, 67, 0
5, 63000, Note_on_c, 1, 65, 100
5, 63040, Note_on_c, 1, 65, 0
5, 63040, Note_on_c, 1, 64, 100
5, 63080, Note_on_c, 1, 64, 0
5, 63080, Note_on_c, 1, 62, 100
5, 63120, Note_on_c, 1, 62, 0
5, 63120, Note_on_c, 1, 60, 100
5, 63160, Note_on_c, 1, 60, 0
5, 63160, Note_on_c, 1, 59, 100
5, 63200, Note_on_c, 1, 59, 0
5, 63200, Note_on_c, 1, 60, 100
5, 63240, Note_on_c, 1, 60, 0
5, 63240, Note_on_c, 1, 62, 100
5, 63280, Note_on_c, 1, 62, 0
5, 63280, Note_on_c, 1, 64, 100
5, 63320, Note_on_c, 1, 64, 0
5, 63320, Note_on_c, 1, 65, 100
5, 63360, Note_on_c, 1, 65, 0
5, 63360, Note_on_c, 1, 64, 100
5, 63400, Note_on_c, 1, 64, 0
5, 63400, Note_on_c, 1, 67, 100
5, 63440, Note_on_c, 1, 67, 0
5, 63440, Note_on_c, 1, 65, 100
5, 63480, Note_on_c, 1, 65, 0
5, 63480, Note_on_c, 1, 64, 100
5, 63520, Note_on_c, 1, 64, 0
5, 63520, Note_on_c, 1, 60, 100
5, 63560, Note_on_c, 1, 60, 0
5, 63560, Note_on_c, 1, 62, 100
5, 63600, Note_on_c, 1, 62, 0
5, 63600, Note_on_c, 1, 64, 100
5, 63640, Note_on_c, 1, 64, 0
5, 63640, Note_on_c, 1, 67, 100
5, 63680, Note_on_c, 1, 67, 0
5, 63680, Note_on_c, 1, 65, 100
5, 63720, Note_on_c, 1, 65, 0
5, 63720, Note_on_c, 1, 64, 100
5, 63760, Note_on_c, 1, 64, 0
5, 63760, Note_on_c, 1, 60, 100
5, 63800, Note_on_c, 1, 60, 0
5, 63800, Note_on_c, 1, 62, 100
5, 63840, Note_on_c, 1, 62, 0
5, 63840, Note_on_c, 1, 64, 100
5, 63880, Note_on_c, 1, 64, 0
5, 63880, Note_on_c, 1, 67, 100
5, 63920, Note_on_c, 1, 67, 0
5, 63920, Note_on_c, 1, 65, 100
5, 63960, Note_on_c, 1, 65, 0
5, 63960, Note_on_c, 1, 64, 100
5, 64000, Note_on_c, 1, 64, 0
5, 64000, Note_on_c, 1, 62, 100
5, 64040, Note_on_c, 1, 62, 0
5, 64040, Note_on_c, 1, 60, 100
5, 64080, Note_on_c, 1, 60, 0
5, 64080, Note_on_c, 1, 59, 100
5, 64120, Note_on_c, 1, 59, 0
5, 64120, Note_on_c, 1, 57, 100
5, 64160, Note_on_c, 1, 57, 0
5, 64160, Note_on_c, 1, 59, 100
5, 64200, Note_on_c, 1, 59, 0
5, 64200, Note_on_c, 1, 60, 100
5, 64240, Note_on_c, 1, 60, 0
5, 64240, Note_on_c, 1, 62, 100
5, 64280, Note_on_c, 1, 62, 0
5, 64280, Note_on_c, 1, 64, 100
5, 64320, Note_on_c, 1, 64, 0
5, 64320, Note_on_c, 1, 62, 100
5, 64360, Note_on_c, 1, 62, 0
5, 64360, Note_on_c, 1, 65, 100
5, 64400, Note_on_c, 1, 65, 0
5, 64400, Note_on_c, 1, 64, 100
5, 64440, Note_on_c, 1, 64, 0
5, 64440, Note_on_c, 1, 62, 100
5, 64480, Note_on_c, 1, 62, 0
5, 64480, Note_on_c, 1, 60, 100
5, 64520, Note_on_c, 1, 60, 0
5, 64520, Note_on_c, 1, 59, 100
5, 64560, Note_on_c, 1, 59, 0
5, 64560, Note_on_c, 1, 57, 100
5, 64600, Note_on_c, 1, 57, 0
5, 64600, Note_on_c, 1, 56, 100
5, 64640, Note_on_c, 1, 56, 0
5, 64640, Note_on_c, 1, 54, 100
5, 64680, Note_on_c, 1, 54, 0
5, 64680, Note_on_c, 1, 56, 100
5, 64720, Note_on_c, 1, 56, 0
5, 64720, Note_on_c, 1, 57, 100
5, 64760, Note_on_c, 1, 57, 0
5, 64760, Note_on_c, 1, 59, 100
5, 64800, Note_on_c, 1, 59, 0
5, 64800, Note_on_c, 1, 60, 100
5, 64840, Note_on_c, 1, 60, 0
5, 64840, Note_on_c, 1, 64, 100
5, 64880, Note_on_c, 1, 64, 0
5, 64880, Note_on_c, 1, 62, 100
5, 64920, Note_on_c, 1, 62, 0
5, 64920, Note_on_c, 1, 60, 100
5, 64960, Note_on_c, 1, 60, 0
5, 64960, Note_on_c, 1, 59, 100
5, 65000, Note_on_c, 1, 59, 0
5, 65000, Note_on_c, 1, 57, 100
5, 65040, Note_on_c, 1, 57, 0
5, 65040, Note_on_c, 1, 55, 100
5, 65080, Note_on_c, 1, 55, 0
5, 65080, Note_on_c, 1, 54, 100
5, 65120, Note_on_c, 1, 54, 0
5, 65120, Note_on_c, 1, 52, 100
5, 65160, Note_on_c, 1, 52, 0
5, 65160, Note_on_c, 1, 54, 100
5, 65200, Note_on_c, 1, 54, 0
5, 65200, Note_on_c, 1, 55, 100
5, 65240, Note_on_c, 1, 55, 0
5, 65240, Note_on_c, 1, 57, 100
5, 65280, Note_on_c, 1, 57, 0
5, 65280, Note_on_c, 1, 59, 100
5, 65320, Note_on_c, 1, 59, 0
5, 65320, Note_on_c, 1, 55, 100
5, 65360, Note_on_c, 1, 55, 0
5, 65360, Note_on_c, 1, 57, 100
5, 65400, Note_on_c, 1, 57, 0
5, 65400, Note_on_c, 1, 59, 100
5, 65440, Note_on_c, 1, 59, 0
5, 65440, Note_on_c, 1, 61, 100
5, 65480, Note_on_c, 1, 61, 0
5, 65480, Note_on_c, 1, 63, 100
5, 65520, Note_on_c, 1, 63, 0
5, 65520, Note_on_c, 1, 64, 100
5, 65560, Note_on_c, 1, 64, 0
5, 65560, Note_on_c, 1, 60, 100
5, 65600, Note_on_c, 1, 60, 0
5, 65600, Note_on_c, 1, 62, 100
5, 65640, Note_on_c, 1, 62, 0
5, 65640, Note_on_c, 1, 64, 100
5, 65680, Note_on_c, 1, 64, 0
5, 65680, Note_on_c, 1, 66, 100
5, 65720, Note_on_c, 1, 66, 0
5, 65720, Note_on_c, 1, 67, 100
5, 65760, Note_on_c, 1, 67, 0
5, 65760, Note_on_c, 1, 69, 100
5, 65800, Note_on_c, 1, 69, 0
5, 65800, Note_on_c, 1, 71, 100
5, 65840, Note_on_c, 1, 71, 0
5, 65840, Note_on_c, 1, 69, 100
5, 65880, Note_on_c, 1, 69, 0
5, 65880, Note_on_c, 1, 67, 100
5, 65920, Note_on_c, 1, 67, 0
5, 65920, Note_on_c, 1, 66, 100
5, 65960, Note_on_c, 1, 66, 0
5, 65960, Note_on_c, 1, 64, 100
5, 66000, Note_on_c, 1, 64, 0
5, 66000, Note_on_c, 1, 63, 100
5, 66040, Note_on_c, 1, 63, 0
5, 66040, Note_on_c, 1, 61, 100
5, 66080, Note_on_c, 1, 61, 0
5, 66080, Note_on_c, 1, 59, 100
5, 66120, Note_on_c, 1, 59, 0
5, 66120, Note_on_c, 1, 57, 100
5, 66160, Note_on_c, 1, 57, 0
5, 66160, Note_on_c, 1, 55, 100
5, 66200, Note_on_c, 1, 55, 0
5, 66200, Note_on_c, 1, 54, 100
5, 66240, Note_on_c, 1, 54, 0
5, 66240, Note_on_c, 1, 55, 100
5, 66300, Note_on_c, 1, 55, 0
5, 66300, Note_on_c, 1, 64, 100
5, 66360, Note_on_c, 1, 64, 0
5, 66360, Note_on_c, 1, 57, 100
5, 66420, Note_on_c, 1, 57, 0
5, 66420, Note_on_c, 1, 63, 100
5, 66480, Note_on_c, 1, 63, 0
5, 66480, Note_on_c, 1, 64, 100
5, 66540, Note_on_c, 1, 64, 0
5, 66540, Note_on_c, 1, 59, 100
5, 66600, Note_on_c, 1, 59, 0
5, 66600, Note_on_c, 1, 66, 100
5, 66660, Note_on_c, 1, 66, 0
5, 66660, Note_on_c, 1, 57, 100
5, 66720, Note_on_c, 1, 57, 0
5, 66720, Note_on_c, 1, 55, 100
5, 66780, Note_on_c, 1, 55, 0
5, 66780, Note_on_c, 1, 64, 100
5, 66840, Note_on_c, 1, 64, 0
5, 66840, Note_on_c, 1, 57, 100
5, 66900, Note_on_c, 1, 57, 0
5, 66900, Note_on_c, 1, 63, 100
5, 66960, Note_on_c, 1, 63, 0
5, 66960, Note_on_c, 1, 64, 100
5, 67020, Note_on_c, 1, 64, 0
5, 67020, Note_on_c, 1, 59, 100
5, 67080, Note_on_c, 1, 59, 0
5, 67080, Note_on_c, 1, 66, 100
5, 67140, Note_on_c, 1, 66, 0
5, 67140, Note_on_c, 1, 57, 100
5, 67200, Note_on_c, 1, 57, 0
5, 67200, Note_on_c, 1, 55, 100
5, 67260, Note_on_c, 1, 55, 0
5, 67260, Note_on_c, 1, 64, 100
5, 67320, Note_on_c, 1, 64, 0
5, 67320, Note_on_c, 1, 57, 100
5, 67380, Note_on_c, 1, 57, 0
5, 67380, Note_on_c, 1, 66, 100
5, 67440, Note_on_c, 1, 66, 0
5, 67440, Note_on_c, 1, 55, 100
5, 67500, Note_on_c, 1, 55, 0
5, 67500, Note_on_c, 1, 64, 100
5, 67560, Note_on_c, 1, 64, 0
5, 67560, Note_on_c, 1, 54, 100
5, 67620, Note_on_c, 1, 54, 0
5, 67620, Note_on_c, 1, 63, 100
5, 67680, Note_on_c, 1, 63, 0
5, 67680, Note_on_c, 1, 64, 100
5, 67740, Note_on_c, 1, 64, 0
5, 67740, Note_on_c, 1, 71, 100
5, 67800, Note_on_c, 1, 71, 0
5, 67800, Note_on_c, 1, 69, 100
5, 67860, Note_on_c, 1, 69, 0
5, 67860, Note_on_c, 1, 71, 100
5, 67920, Note_on_c, 1, 71, 0
5, 67920, Note_on_c, 1, 67, 100
5, 67960, Note_on_c, 1, 67, 0
5, 67960, Note_on_c, 1, 64, 100
5, 68000, Note_on_c, 1, 64, 0
5, 68000, Note_on_c, 1, 66, 100
5, 68040, Note_on_c, 1, 66, 0
5, 68040, Note_on_c, 1, 67, 100
5, 68080, Note_on_c, 1, 67, 0
5, 68080, Note_on_c, 1, 69, 100
5, 68120, Note_on_c, 1, 69, 0
5, 68120, Note_on_c, 1, 71, 100
5, 68160, Note_on_c, 1, 71, 0
5, 68160, Note_on_c, 1, 60, 100
5, 68280, Note_on_c, 1, 60, 0
5, 68280, Note_on_c, 1, 72, 100
5, 68440, Note_on_c, 1, 72, 0
5, 68440, Note_on_c, 1, 69, 100
5, 68480, Note_on_c, 1, 69, 0
5, 68480, Note_on_c, 1, 71, 100
5, 68520, Note_on_c, 1, 71, 0
5, 68520, Note_on_c, 1, 72, 100
5, 68560, Note_on_c, 1, 72, 0
5, 68560, Note_on_c, 1, 74, 100
5, 68600, Note_on_c, 1, 74, 0
5, 68600, Note_on_c, 1, 76, 100
5, 68640, Note_on_c, 1, 76, 0
5, 68640, Note_on_c, 1, 66, 100
5, 68760, Note_on_c, 1, 66, 0
5, 68760, Note_on_c, 1, 78, 100
5, 68920, Note_on_c, 1, 78, 0
5, 68920, Note_on_c, 1, 62, 100
5, 68960, Note_on_c, 1, 62, 0
5, 68960, Note_on_c, 1, 64, 100
5, 69000, Note_on_c, 1, 64, 0
5, 69000, Note_on_c, 1, 66, 100
5, 69040, Note_on_c, 1, 66, 0
5, 69040, Note_on_c, 1, 67, 100
5, 69080, Note_on_c, 1, 67, 0
5, 69080, Note_on_c, 1, 69, 100
5, 69120, Note_on_c, 1, 69, 0
5, 69120, Note_on_c, 1, 59, 100
5, 69240, Note_on_c, 1, 59, 0
5, 69240, Note_on_c, 1, 71, 100
5, 69400, Note_on_c, 1, 71, 0
5, 69400, Note_on_c, 1, 67, 100
5, 69440, Note_on_c, 1, 67, 0
5, 69440, Note_on_c, 1, 69, 100
5, 69480, Note_on_c, 1, 69, 0
5, 69480, Note_on_c, 1, 71, 100
5, 69520, Note_on_c, 1, 71, 0
5, 69520, Note_on_c, 1, 72, 100
5, 69560, Note_on_c, 1, 72, 0
5, 69560, Note_on_c, 1, 74, 100
5, 69600, Note_on_c, 1, 74, 0
5, 69600, Note_on_c, 1, 64, 100
5, 69720, Note_on_c, 1, 64, 0
5, 69720, Note_on_c, 1, 76, 100
5, 69880, Note_on_c, 1, 76, 0
5, 69880, Note_on_c, 1, 61, 100
5, 69920, Note_on_c, 1, 61, 0
5, 69920, Note_on_c, 1, 62, 100
5, 69960, Note_on_c, 1, 62, 0
5, 69960, Note_on_c, 1, 64, 100
5, 70000, Note_on_c, 1, 64, 0
5, 70000, Note_on_c, 1, 66, 100
5, 70040, Note_on_c, 1, 66, 0
5, 70040, Note_on_c, 1, 67, 100
5, 70080, Note_on_c, 1, 67, 0
5, 70080, Note_on_c, 1, 57, 100
5, 70120, Note_on_c, 1, 57, 0
5, 70120, Note_on_c, 1, 66, 100
5, 70160, Note_on_c, 1, 66, 0
5, 70160, Note_on_c, 1, 67, 100
5, 70200, Note_on_c, 1, 67, 0
5, 70200, Note_on_c, 1, 69, 100
5, 70240, Note_on_c, 1, 69, 0
5, 70240, Note_on_c, 1, 71, 100
5, 70280, Note_on_c, 1, 71, 0
5, 70280, Note_on_c, 1, 72, 100
5, 70320, Note_on_c, 1, 72, 0
5, 70320, Note_on_c, 1, 72, 100
5, 70360, Note_on_c, 1, 72, 0
5, 70360, Note_on_c, 1, 71, 100
5, 70400, Note_on_c, 1, 71, 0
5, 70400, Note_on_c, 1, 73, 100
5, 70440, Note_on_c, 1, 73, 0
5, 70440, Note_on_c, 1, 75, 100
5, 70480, Note_on_c, 1, 75, 0
5, 70480, Note_on_c, 1, 76, 100
5, 70520, Note_on_c, 1, 76, 0
5, 70520, Note_on_c, 1, 78, 100
5, 70560, Note_on_c, 1, 78, 0
5, 70560, Note_on_c, 1, 78, 100
5, 70600, Note_on_c, 1, 78, 0
5, 70600, Note_on_c, 1, 63, 100
5, 70640, Note_on_c, 1, 63, 0
5, 70640, Note_on_c, 1, 64, 100
5, 70680, Note_on_c, 1, 64, 0
5, 70680, Note_on_c, 1, 66, 100
5, 70720, Note_on_c, 1, 66, 0
5, 70720, Note_on_c, 1, 67, 100
5, 70760, Note_on_c, 1, 67, 0
5, 70760, Note_on_c, 1, 69, 100
5, 70800, Note_on_c, 1, 69, 0
5, 70800, Note_on_c, 1, 69, 100
5, 70840, Note_on_c, 1, 69, 0
5, 70840, Note_on_c, 1, 67, 100
5, 70880, Note_on_c, 1, 67, 0
5, 70880, Note_on_c, 1, 69, 100
5, 70920, Note_on_c, 1, 69, 0
5, 70920, Note_on_c, 1, 71, 100
5, 70960, Note_on_c, 1, 71, 0
5, 70960, Note_on_c, 1, 73, 100
5, 71000, Note_on_c, 1, 73, 0
5, 71000, Note_on_c, 1, 74, 100
5, 71040, Note_on_c, 1, 74, 0
5, 71040, Note_on_c, 1, 76, 100
5, 71160, Note_on_c, 1, 76, 0
5, 71400, Note_on_c, 1, 59, 100
5, 71520, Note_on_c, 1, 59, 0
5, 71520, Note_on_c, 1, 67, 100
5, 71550, Note_on_c, 1, 67, 0
5, 71550, Note_on_c, 1, 66, 100
5, 71580, Note_on_c, 1, 66, 0
5, 71580, Note_on_c, 1, 64, 100
5, 71640, Note_on_c, 1, 64, 0
5, 71640, Note_on_c, 1, 66, 100
5, 71820, Note_on_c, 1, 66, 0
5, 71820, Note_on_c, 1, 64, 100
5, 71850, Note_on_c, 1, 64, 0
5, 71850, Note_on_c, 1, 66, 100
5, 71880, Note_on_c, 1, 66, 0
5, 71880, Note_on_c, 1, 67, 100
5, 71910, Note_on_c, 1, 67, 0
5, 71910, Note_on_c, 1, 66, 100
5, 71940, Note_on_c, 1, 66, 0
5, 71940, Note_on_c, 1, 64, 100
5, 71970, Note_on_c, 1, 64, 0
5, 71970, Note_on_c, 1, 63, 100
5, 72000, Note_on_c, 1, 63, 0
5, 72000, Note_on_c, 1, 64, 100
5, 72030, Note_on_c, 1, 64, 0
5, 72030, Note_on_c, 1, 63, 100
5, 72060, Note_on_c, 1, 63, 0
5, 72060, Note_on_c, 1, 61, 100
5, 72120, Note_on_c, 1, 61, 0
5, 72120, Note_on_c, 1, 59, 100
5, 72300, Note_on_c, 1, 59, 0
5, 72300, Note_on_c, 1, 61, 100
5, 72330, Note_on_c, 1, 61, 0
5, 72330, Note_on_c, 1, 63, 100
5, 72360, Note_on_c, 1, 63, 0
5, 72360, Note_on_c, 1, 64, 100
5, 72420, Note_on_c, 1, 64, 0
5, 72420, Note_on_c, 1, 66, 100
5, 72480, Note_on_c, 1, 66, 0
5, 72480, Note_on_c, 1, 67, 100
5, 72510, Note_on_c, 1, 67, 0
5, 72510, Note_on_c, 1, 66, 100
5, 72540, Note_on_c, 1, 66, 0
5, 72540, Note_on_c, 1, 64, 100
5, 72600, Note_on_c, 1, 64, 0
5, 72600, Note_on_c, 1, 66, 100
5, 72780, Note_on_c, 1, 66, 0
5, 72780, Note_on_c, 1, 64, 100
5, 72810, Note_on_c, 1, 64, 0
5, 72810, Note_on_c, 1, 66, 100
5, 72840, Note_on_c, 1, 66, 0
5, 72840, Note_on_c, 1, 67, 100
5, 72870, Note_on_c, 1, 67, 0
5, 72870, Note_on_c, 1, 66, 100
5, 72900, Note_on_c, 1, 66, 0
5, 72900, Note_on_c, 1, 64, 100
5, 72930, Note_on_c, 1, 64, 0
5, 72930, Note_on_c, 1, 63, 100
5, 72960, Note_on_c, 1, 63, 0
5, 72960, Note_on_c, 1, 64, 100
5, 72990, Note_on_c, 1, 64, 0
5, 72990, Note_on_c, 1, 63, 100
5, 73020, Note_on_c, 1, 63, 0
5, 73020, Note_on_c, 1, 61, 100
5, 73080, Note_on_c, 1, 61, 0
5, 73080, Note_on_c, 1, 63, 100
5, 73200, Note_on_c, 1, 63, 0
5, 73200, Note_on_c, 1, 72, 100
5, 73320, Note_on_c, 1, 72, 0
5, 73320, Note_on_c, 1, 65, 100
5, 73440, Note_on_c, 1, 65, 0
5, 73440, Note_on_c, 1, 63, 100
5, 73560, Note_on_c, 1, 63, 0
5, 73560, Note_on_c, 1, 64, 100
5, 73680, Note_on_c, 1, 64, 0
5, 74040, Note_on_c, 1, 67, 100
5, 74160, Note_on_c, 1, 67, 0
5, 74160, Note_on_c, 1, 66, 100
5, 74280, Note_on_c, 1, 66, 0
5, 74280, Note_on_c, 1, 71, 100
5, 74400, Note_on_c, 1, 71, 0
5, 74400, Note_on_c, 1, 68, 100
5, 74520, Note_on_c, 1, 68, 0
5, 74520, Note_on_c, 1, 69, 100
5, 74640, Note_on_c, 1, 69, 0
5, 75000, Note_on_c, 1, 72, 100
5, 75120, Note_on_c, 1, 72, 0
5, 75120, Note_on_c, 1, 71, 100
5, 75240, Note_on_c, 1, 71, 0
5, 75240, Note_on_c, 1, 76, 100
5, 75360, Note_on_c, 1, 76, 0
5, 75360, Note_on_c, 1, 73, 100
5, 75480, Note_on_c, 1, 73, 0
5, 75480, Note_on_c, 1, 74, 100
5, 75600, Note_on_c, 1, 74, 0
5, 75600, Note_on_c, 1, 70, 100
5, 75720, Note_on_c, 1, 70, 0
5, 75720, Note_on_c, 1, 71, 100
5, 75840, Note_on_c, 1, 71, 0
5, 75840, Note_on_c, 1, 64, 100
5, 75855, Note_on_c, 1, 64, 0
5, 75855, Note_on_c, 1, 62, 100
5, 75870, Note_on_c, 1, 62, 0
5, 75870, Note_on_c, 1, 64, 100
5, 75885, Note_on_c, 1, 64, 0
5, 75885, Note_on_c, 1, 62, 100
5, 75900, Note_on_c, 1, 62, 0
5, 75900, Note_on_c, 1, 64, 100
5, 75915, Note_on_c, 1, 64, 0
5, 75915, Note_on_c, 1, 62, 100
5, 75930, Note_on_c, 1, 62, 0
5, 75930, Note_on_c, 1, 64, 100
5, 75945, Note_on_c, 1, 64, 0
5, 75945, Note_on_c, 1, 62, 100
5, 75960, Note_on_c, 1, 62, 0
5, 75960, Note_on_c, 1, 64, 100
5, 75975, Note_on_c, 1, 64, 0
5, 75975, Note_on_c, 1, 62, 100
5, 75990, Note_on_c, 1, 62, 0
5, 75990, Note_on_c, 1, 64, 100
5, 76005, Note_on_c, 1, 64, 0
5, 76005, Note_on_c, 1, 62, 100
5, 76020, Note_on_c, 1, 62, 0
5, 76020, Note_on_c, 1, 64, 100
5, 76035, Note_on_c, 1, 64, 0
5, 76035, Note_on_c, 1, 62, 100
5, 76050, Note_on_c, 1, 62, 0
5, 76050, Note_on_c, 1, 64, 100
5, 76065, Note_on_c, 1, 64, 0
5, 76065, Note_on_c, 1, 62, 100
5, 76080, Note_on_c, 1, 62, 0
5, 76080, Note_on_c, 1, 64, 100
5, 76095, Note_on_c, 1, 64, 0
5, 76095, Note_on_c, 1, 62, 100
5, 76110, Note_on_c, 1, 62, 0
5, 76110, Note_on_c, 1, 64, 100
5, 76125, Note_on_c, 1, 64, 0
5, 76125, Note_on_c, 1, 62, 100
5, 76140, Note_on_c, 1, 62, 0
5, 76140, Note_on_c, 1, 64, 100
5, 76155, Note_on_c, 1, 64, 0
5, 76155, Note_on_c, 1, 62, 100
5, 76170, Note_on_c, 1, 62, 0
5, 76170, Note_on_c, 1, 64, 100
5, 76185, Note_on_c, 1, 64, 0
5, 76185, Note_on_c, 1, 62, 100
5, 76200, Note_on_c, 1, 62, 0
5, 76200, Note_on_c, 1, 64, 100
5, 76215, Note_on_c, 1, 64, 0
5, 76215, Note_on_c, 1, 62, 100
5, 76230, Note_on_c, 1, 62, 0
5, 76230, Note_on_c, 1, 64, 100
5, 76245, Note_on_c, 1, 64, 0
5, 76245, Note_on_c, 1, 62, 100
5, 76260, Note_on_c, 1, 62, 0
5, 76260, Note_on_c, 1, 61, 100
5, 76290, Note_on_c, 1, 61, 0
5, 76290, Note_on_c, 1, 62, 100
5, 76320, Note_on_c, 1, 62, 0
5, 76320, Note_on_c, 1, 61, 100
5, 76560, Note_on_c, 1, 61, 0
5, 76680, Note_on_c, 1, 59, 100
5, 76800, Note_on_c, 1, 59, 0
5, 76800, Note_on_c, 1, 66, 100
5, 76920, Note_on_c, 1, 66, 0
5, 76920, Note_on_c, 1, 66, 100
5, 77160, Note_on_c, 1, 66, 0
5, 77160, Note_on_c, 1, 64, 100
5, 77190, Note_on_c, 1, 64, 0
5, 77190, Note_on_c, 1, 66, 100
5, 77220, Note_on_c, 1, 66, 0
5, 77220, Note_on_c, 1, 67, 100
5, 77280, Note_on_c, 1, 67, 0
5, 77280, Note_on_c, 1, 66, 100
5, 77400, Note_on_c, 1, 66, 0
5, 77400, Note_on_c, 1, 66, 100
5, 77640, Note_on_c, 1, 66, 0
5, 77640, Note_on_c, 1, 64, 100
5, 77670, Note_on_c, 1, 64, 0
5, 77670, Note_on_c, 1, 66, 100
5, 77700, Note_on_c, 1, 66, 0
5, 77700, Note_on_c, 1, 67, 100
5, 77760, Note_on_c, 1, 67, 0
5, 77760, Note_on_c, 1, 66, 100
5, 77880, Note_on_c, 1, 66, 0
5, 77880, Note_on_c, 1, 67, 100
5, 78000, Note_on_c, 1, 67, 0
5, 78000, Note_on_c, 1, 66, 100
5, 78120, Note_on_c, 1, 66, 0
5, 78120, Note_on_c, 1, 64, 100
5, 78240, Note_on_c, 1, 64, 0
5, 78240, Note_on_c, 1, 64, 100
5, 78255, Note_on_c, 1, 64, 0
5, 78255, Note_on_c, 1, 62, 100
5, 78270, Note_on_c, 1, 62, 0
5, 78270, Note_on_c, 1, 64, 100
5, 78285, Note_on_c, 1, 64, 0
5, 78285, Note_on_c, 1, 62, 100
5, 78300, Note_on_c, 1, 62, 0
5, 78300, Note_on_c, 1, 64, 100
5, 78315, Note_on_c, 1, 64, 0
5, 78315, Note_on_c, 1, 62, 100
5, 78330, Note_on_c, 1, 62, 0
5, 78330, Note_on_c, 1, 64, 100
5, 78345, Note_on_c, 1, 64, 0
5, 78345, Note_on_c, 1, 62, 100
5, 78360, Note_on_c, 1, 62, 0
5, 78360, Note_on_c, 1, 61, 100
5, 78420, Note_on_c, 1, 61, 0
5, 78420, Note_on_c, 1, 62, 100
5, 78480, Note_on_c, 1, 62, 0
5, 78480, Note_on_c, 1, 59, 100
5, 78540, Note_on_c, 1, 59, 0
5, 78540, Note_on_c, 1, 66, 100
5, 78600, Note_on_c, 1, 66, 0
5, 78600, Note_on_c, 1, 67, 100
5, 78660, Note_on_c, 1, 67, 0
5, 78660, Note_on_c, 1, 71, 100
5, 78720, Note_on_c, 1, 71, 0
5, 78720, Note_on_c, 1, 65, 100
5, 78780, Note_on_c, 1, 65, 0
5, 78780, Note_on_c, 1, 73, 100
5, 78840, Note_on_c, 1, 73, 0
5, 78840, Note_on_c, 1, 73, 100
5, 78900, Note_on_c, 1, 73, 0
5, 78900, Note_on_c, 1, 66, 100
5, 78960, Note_on_c, 1, 66, 0
5, 78960, Note_on_c, 1, 66, 100
5, 79020, Note_on_c, 1, 66, 0
5, 79020, Note_on_c, 1, 64, 100
5, 79080, Note_on_c, 1, 64, 0
5, 79080, Note_on_c, 1, 63, 100
5, 79140, Note_on_c, 1, 63, 0
5, 79140, Note_on_c, 1, 64, 100
5, 79200, Note_on_c, 1, 64, 0
5, 79200, Note_on_c, 1, 63, 100
5, 79260, Note_on_c, 1, 63, 0
5, 79260, Note_on_c, 1, 71, 100
5, 79320, Note_on_c, 1, 71, 0
5, 79320, Note_on_c, 1, 71, 100
5, 79380, Note_on_c, 1, 71, 0
5, 79380, Note_on_c, 1, 64, 100
5, 79440, Note_on_c, 1, 64, 0
5, 79440, Note_on_c, 1, 64, 100
5, 79560, Note_on_c, 1, 64, 0
5, 79560, Note_on_c, 1, 76, 100
5, 79680, Note_on_c, 1, 76, 0
5, 79680, Note_on_c, 1, 76, 100
5, 79740, Note_on_c, 1, 76, 0
5, 79740, Note_on_c, 1, 78, 100
5, 79800, Note_on_c, 1, 78, 0
5, 79800, Note_on_c, 1, 75, 100
5, 79920, Note_on_c, 1, 75, 0
5, 80040, Note_on_c, 1, 74, 100
5, 80160, Note_on_c, 1, 74, 0
5, 80160, Note_on_c, 1, 74, 100
5, 80220, Note_on_c, 1, 74, 0
5, 80220, Note_on_c, 1, 76, 100
5, 80280, Note_on_c, 1, 76, 0
5, 80280, Note_on_c, 1, 73, 100
5, 80400, Note_on_c, 1, 73, 0
5, 80520, Note_on_c, 1, 72, 100
5, 80640, Note_on_c, 1, 72, 0
5, 80640, Note_on_c, 1, 71, 100
5, 80760, Note_on_c, 1, 71, 0
5, 80760, Note_on_c, 1, 75, 100
5, 80880, Note_on_c, 1, 75, 0
5, 80880, Note_on_c, 1, 76, 100
5, 81000, Note_on_c, 1, 76, 0
5, 81000, Note_on_c, 1, 64, 100
5, 81120, Note_on_c, 1, 64, 0
5, 81120, Note_on_c, 1, 70, 100
5, 81240, Note_on_c, 1, 70, 0
5, 81240, Note_on_c, 1, 73, 100
5, 81360, Note_on_c, 1, 73, 0
5, 81360, Note_on_c, 1, 66, 100
5, 81420, Note_on_c, 1, 66, 0
5, 81420, Note_on_c, 1, 64, 100
5, 81480, Note_on_c, 1, 64, 0
5, 81480, Note_on_c, 1, 62, 100
5, 81540, Note_on_c, 1, 62, 0
5, 81540, Note_on_c, 1, 61, 100
5, 81600, Note_on_c, 1, 61, 0
5, 81600, Note_on_c, 1, 62, 100
5, 81660, Note_on_c, 1, 62, 0
5, 81660, Note_on_c, 1, 71, 100
5, 81720, Note_on_c, 1, 71, 0
5, 81720, Note_on_c, 1, 64, 100
5, 81780, Note_on_c, 1, 64, 0
5, 81780, Note_on_c, 1, 70, 100
5, 81840, Note_on_c, 1, 70, 0
5, 81840, Note_on_c, 1, 71, 100
5, 81900, Note_on_c, 1, 71, 0
5, 81900, Note_on_c, 1, 66, 100
5, 81960, Note_on_c, 1, 66, 0
5, 81960, Note_on_c, 1, 73, 100
5, 82020, Note_on_c, 1, 73, 0
5, 82020, Note_on_c, 1, 64, 100
5, 82080, Note_on_c, 1, 64, 0
5, 82080, Note_on_c, 1, 62, 100
5, 82140, Note_on_c, 1, 62, 0
5, 82140, Note_on_c, 1, 71, 100
5, 82200, Note_on_c, 1, 71, 0
5, 82200, Note_on_c, 1, 64, 100
5, 82260, Note_on_c, 1, 64, 0
5, 82260, Note_on_c, 1, 70, 100
5, 82320, Note_on_c, 1, 70, 0
5, 82320, Note_on_c, 1, 71, 100
5, 82380, Note_on_c, 1, 71, 0
5, 82380, Note_on_c, 1, 66, 100
5, 82440, Note_on_c, 1, 66, 0
5, 82440, Note_on_c, 1, 73, 100
5, 82500, Note_on_c, 1, 73, 0
5, 82500, Note_on_c, 1, 64, 100
5, 82560, Note_on_c, 1, 64, 0
5, 82560, Note_on_c, 1, 62, 100
5, 82620, Note_on_c, 1, 62, 0
5, 82620, Note_on_c, 1, 71, 100
5, 82680, Note_on_c, 1, 71, 0
5, 82680, Note_on_c, 1, 64, 100
5, 82740, Note_on_c, 1, 64, 0
5, 82740, Note_on_c, 1, 73, 100
5, 82800, Note_on_c, 1, 73, 0
5, 82800, Note_on_c, 1, 62, 100
5, 82860, Note_on_c, 1, 62, 0
5, 82860, Note_on_c, 1, 71, 100
5, 82920, Note_on_c, 1, 71, 0
5, 82920, Note_on_c, 1, 61, 100
5, 82980, Note_on_c, 1, 61, 0
5, 82980, Note_on_c, 1, 70, 100
5, 83040, Note_on_c, 1, 70, 0
5, 83040, Note_on_c, 1, 71, 100
5, 83340, Note_on_c, 1, 71, 0
5, 83340, Note_on_c, 1, 69, 100
5, 83400, Note_on_c, 1, 69, 0
5, 83400, Note_on_c, 1, 67, 100
5, 83460, Note_on_c, 1, 67, 0
5, 83460, Note_on_c, 1, 66, 100
5, 83520, Note_on_c, 1, 66, 0
5, 83520, Note_on_c, 1, 67, 100
5, 83640, Note_on_c, 1, 67, 0
5, 83640, Note_on_c, 1, 67, 100
5, 83760, Note_on_c, 1, 67, 0
5, 83760, Note_on_c, 1, 67, 100
5, 83880, Note_on_c, 1, 67, 0
5, 83880, Note_on_c, 1, 67, 100
5, 84000, Note_on_c, 1, 67, 0
5, 84000, Note_on_c, 1, 67, 100
5, 84120, Note_on_c, 1, 67, 0
5, 84120, Note_on_c, 1, 76, 100
5, 84280, Note_on_c, 1, 76, 0
5, 84280, Note_on_c, 1, 74, 100
5, 84320, Note_on_c, 1, 74, 0
5, 84320, Note_on_c, 1, 73, 100
5, 84360, Note_on_c, 1, 73, 0
5, 84360, Note_on_c, 1, 71, 100
5, 84400, Note_on_c, 1, 71, 0
5, 84400, Note_on_c, 1, 69, 100
5, 84440, Note_on_c, 1, 69, 0
5, 84440, Note_on_c, 1, 67, 100
5, 84480, Note_on_c, 1, 67, 0
5, 84480, Note_on_c, 1, 66, 100
5, 84600, Note_on_c, 1, 66, 0
5, 84600, Note_on_c, 1, 66, 100
5, 84720, Note_on_c, 1, 66, 0
5, 84720, Note_on_c, 1, 66, 100
5, 84840, Note_on_c, 1, 66, 0
5, 84840, Note_on_c, 1, 65, 100
5, 84960, Note_on_c, 1, 65, 0
5, 84960, Note_on_c, 1, 65, 100
5, 85080, Note_on_c, 1, 65, 0
5, 85080, Note_on_c, 1, 74, 100
5, 85240, Note_on_c, 1, 74, 0
5, 85240, Note_on_c, 1, 72, 100
5, 85280, Note_on_c, 1, 72, 0
5, 85280, Note_on_c, 1, 71, 100
5, 85320, Note_on_c, 1, 71, 0
5, 85320, Note_on_c, 1, 69, 100
5, 85360, Note_on_c, 1, 69, 0
5, 85360, Note_on_c, 1, 67, 100
5, 85400, Note_on_c, 1, 67, 0
5, 85400, Note_on_c, 1, 66, 100
5, 85440, Note_on_c, 1, 66, 0
5, 85440, Note_on_c, 1, 64, 100
5, 85480, Note_on_c, 1, 64, 0
5, 85480, Note_on_c, 1, 63, 100
5, 85520, Note_on_c, 1, 63, 0
5, 85520, Note_on_c, 1, 64, 100
5, 85560, Note_on_c, 1, 64, 0
5, 85560, Note_on_c, 1, 66, 100
5, 85600, Note_on_c, 1, 66, 0
5, 85600, Note_on_c, 1, 64, 100
5, 85640, Note_on_c, 1, 64, 0
5, 85640, Note_on_c, 1, 63, 100
5, 85680, Note_on_c, 1, 63, 0
5, 85680, Note_on_c, 1, 64, 100
5, 85800, Note_on_c, 1, 64, 0
5, 85800, Note_on_c, 1, 76, 100
5, 85920, Note_on_c, 1, 76, 0
5, 85920, Note_on_c, 1, 75, 100
5, 86040, Note_on_c, 1, 75, 0
5, 86040, Note_on_c, 1, 74, 100
5, 86160, Note_on_c, 1, 74, 0
5, 86160, Note_on_c, 1, 73, 100
5, 86280, Note_on_c, 1, 73, 0
5, 86280, Note_on_c, 1, 72, 100
5, 86400, Note_on_c, 1, 72, 0
5, 86400, Note_on_c, 1, 71, 100
5, 86520, Note_on_c, 1, 71, 0
5, 86520, Note_on_c, 1, 62, 100
5, 86640, Note_on_c, 1, 62, 0
5, 86640, Note_on_c, 1, 61, 100
5, 86760, Note_on_c, 1, 61, 0
5, 86760, Note_on_c, 1, 69, 100
5, 86940, Note_on_c, 1, 69, 0
5, 86940, Note_on_c, 1, 67, 100
5, 86970, Note_on_c, 1, 67, 0
5, 86970, Note_on_c, 1, 66, 100
5, 87000, Note_on_c, 1, 66, 0
5, 87000, Note_on_c, 1, 67, 100
5, 87060, Note_on_c, 1, 67, 0
5, 87060, Note_on_c, 1, 69, 100
5, 87120, Note_on_c, 1, 69, 0
5, 87120, Note_on_c, 1, 69, 100
5, 87300, Note_on_c, 1, 69, 0
5, 87300, Note_on_c, 1, 67, 100
5, 87330, Note_on_c, 1, 67, 0
5, 87330, Note_on_c, 1, 69, 100
5, 87360, Note_on_c, 1, 69, 0
5, 87360, Note_on_c, 1, 71, 100
5, 87600, Note_on_c, 1, 71, 0
5, 87720, Note_on_c, 1, 71, 100
5, 87880, Note_on_c, 1, 71, 0
5, 87880, Note_on_c, 1, 70, 100
5, 87920, Note_on_c, 1, 70, 0
5, 87920, Note_on_c, 1, 73, 100
5, 87960, Note_on_c, 1, 73, 0
5, 87960, Note_on_c, 1, 67, 100
5, 88140, Note_on_c, 1, 67, 0
5, 88140, Note_on_c, 1, 66, 100
5, 88200, Note_on_c, 1, 66, 0
5, 88200, Note_on_c, 1, 76, 100
5, 88230, Note_on_c, 1, 76, 0
5, 88230, Note_on_c, 1, 74, 100
5, 88260, Note_on_c, 1, 74, 0
5, 88260, Note_on_c, 1, 73, 100
5, 88320, Note_on_c, 1, 73, 0
5, 88320, Note_on_c, 1, 73, 100
5, 88380, Note_on_c, 1, 73, 0
5, 88380, Note_on_c, 1, 74, 100
5, 88440, Note_on_c, 1, 74, 0
5, 88920, Note_on_c, 1, 67, 100
5, 89080, Note_on_c, 1, 67, 0
5, 89080, Note_on_c, 1, 66, 100
5, 89120, Note_on_c, 1, 66, 0
5, 89120, Note_on_c, 1, 69, 100
5, 89160, Note_on_c, 1, 69, 0
5, 89160, Note_on_c, 1, 63, 100
5, 89340, Note_on_c, 1, 63, 0
5, 89340, Note_on_c, 1, 62, 100
5, 89400, Note_on_c, 1, 62, 0
5, 89400, Note_on_c, 1, 72, 100
5, 89430, Note_on_c, 1, 72, 0
5, 89430, Note_on_c, 1, 71, 100
5, 89460, Note_on_c, 1, 71, 0
5, 89460, Note_on_c, 1, 69, 100
5, 89520, Note_on_c, 1, 69, 0
5, 89520, Note_on_c, 1, 69, 100
5, 89580, Note_on_c, 1, 69, 0
5, 89580, Note_on_c, 1, 71, 100
5, 89640, Note_on_c, 1, 71, 0
5, 89640, Note_on_c, 1, 64, 100
5, 89800, Note_on_c, 1, 64, 0
5, 89800, Note_on_c, 1, 63, 100
5, 89840, Note_on_c, 1, 63, 0
5, 89840, Note_on_c, 1, 66, 100
5, 89880, Note_on_c, 1, 66, 0
5, 89880, Note_on_c, 1, 60, 100
5, 90060, Note_on_c, 1, 60, 0
5, 90060, Note_on_c, 1, 59, 100
5, 90120, Note_on_c, 1, 59, 0
5, 90120, Note_on_c, 1, 69, 100
5, 90150, Note_on_c, 1, 69, 0
5, 90150, Note_on_c, 1, 67, 100
5, 90180, Note_on_c, 1, 67, 0
5, 90180, Note_on_c, 1, 66, 100
5, 90240, Note_on_c, 1, 66, 0
5, 90240, Note_on_c, 1, 66, 100
5, 90300, Note_on_c, 1, 66, 0
5, 90300, Note_on_c, 1, 67, 100
5, 90360, Note_on_c, 1, 67, 0
5, 90840, Note_on_c, 1, 60, 100
5, 91000, Note_on_c, 1, 60, 0
5, 91000, Note_on_c, 1, 59, 100
5, 91040, Note_on_c, 1, 59, 0
5, 91040, Note_on_c, 1, 62, 100
5, 91080, Note_on_c, 1, 62, 0
5, 91080, Note_on_c, 1, 56, 100
5, 91260, Note_on_c, 1, 56, 0
5, 91260, Note_on_c, 1, 55, 100
5, 91320, Note_on_c, 1, 55, 0
5, 91320, Note_on_c, 1, 65, 100
5, 91350, Note_on_c, 1, 65, 0
5, 91350, Note_on_c, 1, 64, 100
5, 91380, Note_on_c, 1, 64, 0
5, 91380, Note_on_c, 1, 62, 100
5, 91440, Note_on_c, 1, 62, 0
5, 91440, Note_on_c, 1, 62, 100
5, 91500, Note_on_c, 1, 62, 0
5, 91500, Note_on_c, 1, 64, 100
5, 91560, Note_on_c, 1, 64, 0
5, 92520, Note_on_c, 1, 59, 100
5, 92640, Note_on_c, 1, 59, 0
5, 92640, Note_on_c, 1, 60, 100
5, 92760, Note_on_c, 1, 60, 0
5, 92760, Note_on_c, 1, 63, 100
5, 92880, Note_on_c, 1, 63, 0
5, 92880, Note_on_c, 1, 64, 100
5, 93000, Note_on_c, 1, 64, 0
5, 93000, Note_on_c, 1, 67, 100
5, 93120, Note_on_c, 1, 67, 0
5, 93120, Note_on_c, 1, 70, 100
5, 93240, Note_on_c, 1, 70, 0
5, 93240, Note_on_c, 1, 74, 100
5, 93360, Note_on_c, 1, 74, 0
5, 93360, Note_on_c, 1, 73, 100
5, 93480, Note_on_c, 1, 73, 0
5, 93480, Note_on_c, 1, 64, 100
5, 93600, Note_on_c, 1, 64, 0
5, 93600, Note_on_c, 1, 62, 100
5, 93720, Note_on_c, 1, 62, 0
5, 93720, Note_on_c, 1, 61, 100
5, 93780, Note_on_c, 1, 61, 0
5, 93780, Note_on_c, 1, 59, 100
5, 93840, Note_on_c, 1, 59, 0
5, 93840, Note_on_c, 1, 62, 100
5, 93900, Note_on_c, 1, 62, 0
5, 93900, Note_on_c, 1, 61, 100
5, 93960, Note_on_c, 1, 61, 0
5, 93960, Note_on_c, 1, 59, 100
5, 94020, Note_on_c, 1, 59, 0
5, 94020, Note_on_c, 1, 58, 100
5, 94080, Note_on_c, 1, 58, 0
5, 94080, Note_on_c, 1, 59, 100
5, 94320, Note_on_c, 1, 59, 0
5, 94440, Note_on_c, 1, 65, 100
5, 94560, Note_on_c, 1, 65, 0
5, 94560, Note_on_c, 1, 71, 100
5, 94680, Note_on_c, 1, 71, 0
5, 94680, Note_on_c, 1, 70, 100
5, 94800, Note_on_c, 1, 70, 0
5, 94920, Note_on_c, 1, 64, 100
5, 95040, Note_on_c, 1, 64, 0
5, 95040, Note_on_c, 1, 62, 100
5, 95160, Note_on_c, 1, 62, 0
5, 95160, Note_on_c, 1, 67, 100
5, 95280, Note_on_c, 1, 67, 0
5, 95280, Note_on_c, 1, 66, 100
5, 95400, Note_on_c, 1, 66, 0
5, 95400, Note_on_c, 1, 71, 100
5, 95520, Note_on_c, 1, 71, 0
5, 95520, Note_on_c, 1, 65, 100
5, 95640, Note_on_c, 1, 65, 0
5, 95640, Note_on_c, 1, 66, 100
5, 95760, Note_on_c, 1, 66, 0
5, 96360, Note_on_c, 1, 66, 100
5, 96480, Note_on_c, 1, 66, 0
5, 96480, Note_on_c, 1, 74, 100
5, 96510, Note_on_c, 1, 74, 0
5, 96510, Note_on_c, 1, 73, 100
5, 96540, Note_on_c, 1, 73, 0
5, 96540, Note_on_c, 1, 71, 100
5, 96600, Note_on_c, 1, 71, 0
5, 96600, Note_on_c, 1, 73, 100
5, 96780, Note_on_c, 1, 73, 0
5, 96780, Note_on_c, 1, 71, 100
5, 96810, Note_on_c, 1, 71, 0
5, 96810, Note_on_c, 1, 73, 100
5, 96840, Note_on_c, 1, 73, 0
5, 96840, Note_on_c, 1, 74, 100
5, 96870, Note_on_c, 1, 74, 0
5, 96870, Note_on_c, 1, 73, 100
5, 96900, Note_on_c, 1, 73, 0
5, 96900, Note_on_c, 1, 71, 100
5, 96930, Note_on_c, 1, 71, 0
5, 96930, Note_on_c, 1, 70, 100
5, 96960, Note_on_c, 1, 70, 0
5, 96960, Control_c, 1, 11, 127
5, 96960, Control_c, 1, 8, 48
5, 96960, Note_on_c, 1, 71, 100
5, 96988, Note_on_c, 1, 71, 0
5, 96990, Note_on_c, 1, 70, 100
5, 97018, Note_on_c, 1, 70, 0
5, 97020, Note_on_c, 1, 68, 100
5, 97078, Note_on_c, 1, 68, 0
5, 97080, Note_on_c, 1, 66, 100
5, 97258, Note_on_c, 1, 66, 0
5, 97260, Note_on_c, 1, 68, 100
5, 97288, Note_on_c, 1, 68, 0
5, 97290, Note_on_c, 1, 70, 100
5, 97318, Note_on_c, 1, 70, 0
5, 97320, Note_on_c, 1, 71, 100
5, 97378, Note_on_c, 1, 71, 0
5, 97380, Note_on_c, 1, 73, 100
5, 97438, Note_on_c, 1, 73, 0
5, 97440, Note_on_c, 1, 74, 100
5, 97468, Note_on_c, 1, 74, 0
5, 97470, Note_on_c, 1, 73, 100
5, 97498, Note_on_c, 1, 73, 0
5, 97500, Note_on_c, 1, 71, 100
5, 97558, Note_on_c, 1, 71, 0
5, 97560, Note_on_c, 1, 73, 100
5, 97738, Note_on_c, 1, 73, 0
5, 97740, Note_on_c, 1, 71, 100
5, 97768, Note_on_c, 1, 71, 0
5, 97770, Note_on_c, 1, 73, 100
5, 97798, Note_on_c, 1, 73, 0
5, 97800, Note_on_c, 1, 74, 100
5, 97828, Note_on_c, 1, 74, 0
5, 97830, Note_on_c, 1, 73, 100
5, 97858, Note_on_c, 1, 73, 0
5, 97860, Note_on_c, 1, 71, 100
5, 97888, Note_on_c, 1, 71, 0
5, 97890, Note_on_c, 1, 70, 100
5, 97918, Note_on_c, 1, 70, 0
5, 97920, Note_on_c, 1, 71, 100
5, 98038, Note_on_c, 1, 71, 0
5, 98040, Note_on_c, 1, 59, 100
5, 98158, Note_on_c, 1, 59, 0
5, 98280, Note_on_c, 1, 71, 100
5, 98398, Note_on_c, 1, 71, 0
5, 98400, Note_on_c, 1, 71, 100
5, 98518, Note_on_c, 1, 71, 0
5, 98520, Note_on_c, 1, 70, 100
5, 98638, Note_on_c, 1, 70, 0
5, 98760, Note_on_c, 1, 73, 100
5, 98920, Note_on_c, 1, 73, 0
5, 98920, Note_on_c, 1, 71, 100
5, 98958, Note_on_c, 1, 71, 0
5, 98964, Note_on_c, 1, 73, 100
5, 99000, Note_on_c, 1, 74, 100
5, 99002, Note_on_c, 1, 73, 0
5, 99038, Note_on_c, 1, 74, 0
5, 99040, Note_on_c, 1, 76, 100
5, 99078, Note_on_c, 1, 76, 0
5, 99080, Note_on_c, 1, 78, 100
5, 99118, Note_on_c, 1, 78, 0
5, 99120, Note_on_c, 1, 79, 100
5, 99160, Note_on_c, 1, 79, 0
5, 99160, Note_on_c, 1, 81, 100
5, 99200, Note_on_c, 1, 81, 0
5, 99200, Note_on_c, 1, 83, 100
5, 99240, Note_on_c, 1, 83, 0
5, 99240, Note_on_c, 1, 81, 100
5, 99280, Note_on_c, 1, 81, 0
5, 99280, Note_on_c, 1, 79, 100
5, 99320, Note_on_c, 1, 79, 0
5, 99320, Note_on_c, 1, 78, 100
5, 99360, Note_on_c, 1, 78, 0
5, 99360, Note_on_c, 1, 76, 100
5, 99400, Note_on_c, 1, 76, 0
5, 99400, Note_on_c, 1, 73, 100
5, 99440, Note_on_c, 1, 73, 0
5, 99440, Note_on_c, 1, 74, 100
5, 99480, Note_on_c, 1, 74, 0
5, 99480, Note_on_c, 1, 76, 100
5, 99520, Note_on_c, 1, 76, 0
5, 99520, Note_on_c, 1, 78, 100
5, 99560, Note_on_c, 1, 78, 0
5, 99560, Note_on_c, 1, 79, 100
5, 99600, Note_on_c, 1, 79, 0
5, 99600, Note_on_c, 1, 81, 100
5, 99640, Note_on_c, 1, 81, 0
5, 99640, Note_on_c, 1, 83, 100
5, 99680, Note_on_c, 1, 83, 0
5, 99680, Note_on_c, 1, 85, 100
5, 99720, Note_on_c, 1, 85, 0
5, 99720, Note_on_c, 1, 83, 100
5, 99760, Note_on_c, 1, 83, 0
5, 99760, Note_on_c, 1, 81, 100
5, 99800, Note_on_c, 1, 81, 0
5, 99800, Note_on_c, 1, 79, 100
5, 99840, Note_on_c, 1, 79, 0
5, 99840, Note_on_c, 1, 78, 100
5, 99880, Note_on_c, 1, 78, 0
5, 99880, Note_on_c, 1, 81, 100
5, 99920, Note_on_c, 1, 81, 0
5, 99920, Note_on_c, 1, 79, 100
5, 99960, Note_on_c, 1, 79, 0
5, 99960, Note_on_c, 1, 78, 100
5, 100000, Note_on_c, 1, 78, 0
5, 100000, Note_on_c, 1, 76, 100
5, 100040, Note_on_c, 1, 76, 0
5, 100040, Note_on_c, 1, 74, 100
5, 100080, Note_on_c, 1, 74, 0
5, 100080, Note_on_c, 1, 73, 100
5, 100120, Note_on_c, 1, 73, 0
5, 100120, Note_on_c, 1, 71, 100
5, 100160, Note_on_c, 1, 71, 0
5, 100160, Note_on_c, 1, 70, 100
5, 100200, Note_on_c, 1, 70, 0
5, 100200, Note_on_c, 1, 71, 100
5, 100240, Note_on_c, 1, 71, 0
5, 100240, Note_on_c, 1, 73, 100
5, 100280, Note_on_c, 1, 73, 0
5, 100280, Note_on_c, 1, 74, 100
5, 100320, Note_on_c, 1, 74, 0
5, 100320, Note_on_c, 1, 76, 100
5, 100360, Note_on_c, 1, 76, 0
5, 100360, Note_on_c, 1, 79, 100
5, 100400, Note_on_c, 1, 79, 0
5, 100400, Note_on_c, 1, 78, 100
5, 100440, Note_on_c, 1, 78, 0
5, 100440, Note_on_c, 1, 76, 100
5, 100480, Note_on_c, 1, 76, 0
5, 100480, Note_on_c, 1, 74, 100
5, 100520, Note_on_c, 1, 74, 0
5, 100520, Note_on_c, 1, 73, 100
5, 100560, Note_on_c, 1, 73, 0
5, 100560, Note_on_c, 1, 71, 100
5, 100600, Note_on_c, 1, 71, 0
5, 100600, Note_on_c, 1, 69, 100
5, 100640, Note_on_c, 1, 69, 0
5, 100640, Note_on_c, 1, 68, 100
5, 100680, Note_on_c, 1, 68, 0
5, 100680, Note_on_c, 1, 69, 100
5, 100720, Note_on_c, 1, 69, 0
5, 100720, Note_on_c, 1, 71, 100
5, 100760, Note_on_c, 1, 71, 0
5, 100760, Note_on_c, 1, 73, 100
5, 100800, Note_on_c, 1, 73, 0
5, 100804, Note_on_c, 1, 74, 100
5, 100922, Note_on_c, 1, 74, 0
5, 100924, Note_on_c, 1, 67, 100
5, 101042, Note_on_c, 1, 67, 0
5, 101164, Note_on_c, 1, 67, 100
5, 101282, Note_on_c, 1, 67, 0
5, 101284, Note_on_c, 1, 66, 100
5, 101402, Note_on_c, 1, 66, 0
5, 101404, Note_on_c, 1, 75, 100
5, 101522, Note_on_c, 1, 75, 0
5, 101644, Note_on_c, 1, 66, 100
5, 101801, Note_on_c, 1, 67, 100
5, 101804, Note_on_c, 1, 66, 0
5, 101841, Note_on_c, 1, 67, 0
5, 101841, Note_on_c, 1, 69, 100
5, 101881, Note_on_c, 1, 69, 0
5, 101881, Note_on_c, 1, 71, 100
5, 101921, Note_on_c, 1, 71, 0
5, 101921, Note_on_c, 1, 73, 100
5, 101961, Note_on_c, 1, 73, 0
5, 101961, Note_on_c, 1, 74, 100
5, 102001, Note_on_c, 1, 74, 0
5, 102001, Note_on_c, 1, 76, 100
5, 102121, Note_on_c, 1, 76, 0
5, 102121, Note_on_c, 1, 64, 100
5, 102281, Note_on_c, 1, 64, 0
5, 102281, Note_on_c, 1, 61, 100
5, 102321, Note_on_c, 1, 61, 0
5, 102321, Note_on_c, 1, 62, 100
5, 102361, Note_on_c, 1, 62, 0
5, 102361, Note_on_c, 1, 64, 100
5, 102399, Note_on_c, 1, 64, 0
5, 102401, Note_on_c, 1, 66, 100
5, 102439, Note_on_c, 1, 66, 0
5, 102441, Note_on_c, 1, 67, 100
5, 102479, Note_on_c, 1, 67, 0
5, 102481, Note_on_c, 1, 57, 100
5, 102601, Note_on_c, 1, 57, 0
5, 102601, Note_on_c, 1, 69, 100
5, 102761, Note_on_c, 1, 69, 0
5, 102761, Note_on_c, 1, 66, 100
5, 102801, Note_on_c, 1, 66, 0
5, 102801, Note_on_c, 1, 67, 100
5, 102841, Note_on_c, 1, 67, 0
5, 102841, Note_on_c, 1, 69, 100
5, 102881, Note_on_c, 1, 69, 0
5, 102881, Note_on_c, 1, 71, 100
5, 102921, Note_on_c, 1, 71, 0
5, 102921, Note_on_c, 1, 73, 100
5, 102961, Note_on_c, 1, 73, 0
5, 102961, Note_on_c, 1, 74, 100
5, 103081, Note_on_c, 1, 74, 0
5, 103081, Note_on_c, 1, 62, 100
5, 103241, Note_on_c, 1, 62, 0
5, 103241, Note_on_c, 1, 59, 100
5, 103281, Note_on_c, 1, 59, 0
5, 103281, Note_on_c, 1, 61, 100
5, 103321, Note_on_c, 1, 61, 0
5, 103321, Note_on_c, 1, 62, 100
5, 103361, Note_on_c, 1, 62, 0
5, 103361, Note_on_c, 1, 64, 100
5, 103401, Note_on_c, 1, 64, 0
5, 103401, Note_on_c, 1, 66, 100
5, 103441, Note_on_c, 1, 66, 0
5, 103441, Note_on_c, 1, 55, 100
5, 103561, Note_on_c, 1, 55, 0
5, 103561, Note_on_c, 1, 67, 100
5, 103721, Note_on_c, 1, 67, 0
5, 103721, Note_on_c, 1, 64, 100
5, 103761, Note_on_c, 1, 64, 0
5, 103761, Note_on_c, 1, 66, 100
5, 103801, Note_on_c, 1, 66, 0
5, 103801, Note_on_c, 1, 67, 100
5, 103841, Note_on_c, 1, 67, 0
5, 103841, Note_on_c, 1, 69, 100
5, 103879, Note_on_c, 1, 69, 0
5, 103881, Note_on_c, 1, 71, 100
5, 103919, Note_on_c, 1, 71, 0
5, 103921, Note_on_c, 1, 61, 100
5, 103959, Note_on_c, 1, 61, 0
5, 103961, Note_on_c, 1, 70, 100
5, 103999, Note_on_c, 1, 70, 0
5, 104001, Note_on_c, 1, 71, 100
5, 104039, Note_on_c, 1, 71, 0
5, 104041, Note_on_c, 1, 73, 100
5, 104079, Note_on_c, 1, 73, 0
5, 104081, Note_on_c, 1, 74, 100
5, 104119, Note_on_c, 1, 74, 0
5, 104121, Note_on_c, 1, 76, 100
5, 104159, Note_on_c, 1, 76, 0
5, 104161, Note_on_c, 1, 73, 100
5, 104279, Note_on_c, 1, 73, 0
5, 104681, Note_on_c, 1, 71, 100
5, 104719, Note_on_c, 1, 71, 0
5, 104721, Note_on_c, 1, 69, 100
5, 104759, Note_on_c, 1, 69, 0
5, 104761, Note_on_c, 1, 67, 100
5, 104799, Note_on_c, 1, 67, 0
5, 104801, Note_on_c, 1, 66, 100
5, 104839, Note_on_c, 1, 66, 0
5, 104841, Note_on_c, 1, 64, 100
5, 104879, Note_on_c, 1, 64, 0
5, 104881, Note_on_c, 1, 62, 100
5, 104919, Note_on_c, 1, 62, 0
5, 104921, Note_on_c, 1, 66, 100
5, 104959, Note_on_c, 1, 66, 0
5, 104961, Note_on_c, 1, 64, 100
5, 104999, Note_on_c, 1, 64, 0
5, 105001, Note_on_c, 1, 62, 100
5, 105039, Note_on_c, 1, 62, 0
5, 105041, Note_on_c, 1, 61, 100
5, 105079, Note_on_c, 1, 61, 0
5, 105081, Note_on_c, 1, 59, 100
5, 105119, Note_on_c, 1, 59, 0
5, 105121, Note_on_c, 1, 67, 100
5, 105239, Note_on_c, 1, 67, 0
5, 105241, Note_on_c, 1, 67, 100
5, 105359, Note_on_c, 1, 67, 0
5, 105361, Note_on_c, 1, 67, 100
5, 105479, Note_on_c, 1, 67, 0
5, 105481, Note_on_c, 1, 67, 100
5, 105599, Note_on_c, 1, 67, 0
5, 105601, Note_on_c, 1, 67, 100
5, 105639, Note_on_c, 1, 67, 0
5, 105641, Note_on_c, 1, 66, 100
5, 105679, Note_on_c, 1, 66, 0
5, 105681, Note_on_c, 1, 64, 100
5, 105719, Note_on_c, 1, 64, 0
5, 105721, Note_on_c, 1, 66, 100
5, 105759, Note_on_c, 1, 66, 0
5, 105761, Note_on_c, 1, 64, 100
5, 105799, Note_on_c, 1, 64, 0
5, 105801, Note_on_c, 1, 62, 100
5, 105839, Note_on_c, 1, 62, 0
5, 105841, Note_on_c, 1, 60, 100
5, 105879, Note_on_c, 1, 60, 0
5, 105881, Note_on_c, 1, 59, 100
5, 105919, Note_on_c, 1, 59, 0
5, 105921, Note_on_c, 1, 57, 100
5, 105959, Note_on_c, 1, 57, 0
5, 105961, Note_on_c, 1, 56, 100
5, 105999, Note_on_c, 1, 56, 0
5, 106001, Note_on_c, 1, 57, 100
5, 106039, Note_on_c, 1, 57, 0
5, 106041, Note_on_c, 1, 60, 100
5, 106079, Note_on_c, 1, 60, 0
5, 106081, Note_on_c, 1, 66, 100
5, 106199, Note_on_c, 1, 66, 0
5, 106201, Note_on_c, 1, 66, 100
5, 106319, Note_on_c, 1, 66, 0
5, 106321, Note_on_c, 1, 66, 100
5, 106439, Note_on_c, 1, 66, 0
5, 106441, Note_on_c, 1, 66, 100
5, 106559, Note_on_c, 1, 66, 0
5, 106560, Note_on_c, 1, 66, 100
5, 106588, Note_on_c, 1, 66, 0
5, 106590, Note_on_c, 1, 64, 100
5, 106618, Note_on_c, 1, 64, 0
5, 106620, Note_on_c, 1, 63, 100
5, 106678, Note_on_c, 1, 63, 0
5, 106680, Note_on_c, 1, 63, 100
5, 106740, Note_on_c, 1, 63, 0
5, 106740, Note_on_c, 1, 64, 100
5, 106920, Note_on_c, 1, 64, 0
5, 106920, Note_on_c, 1, 76, 100
5, 107098, Note_on_c, 1, 76, 0
5, 107100, Note_on_c, 1, 73, 100
5, 107158, Note_on_c, 1, 73, 0
5, 107160, Note_on_c, 1, 70, 100
5, 107218, Note_on_c, 1, 70, 0
5, 107220, Note_on_c, 1, 71, 100
5, 107278, Note_on_c, 1, 71, 0
5, 107280, Note_on_c, 1, 71, 100
5, 107338, Note_on_c, 1, 71, 0
5, 107340, Note_on_c, 1, 73, 100
5, 107368, Note_on_c, 1, 73, 0
5, 107370, Note_on_c, 1, 74, 100
5, 107398, Note_on_c, 1, 74, 0
5, 107400, Note_on_c, 1, 73, 100
5, 107458, Note_on_c, 1, 73, 0
5, 107460, Note_on_c, 1, 64, 100
5, 107518, Note_on_c, 1, 64, 0
5, 107520, Note_on_c, 1, 62, 100
5, 107578, Note_on_c, 1, 62, 0
5, 107580, Note_on_c, 1, 61, 100
5, 107608, Note_on_c, 1, 61, 0
5, 107610, Note_on_c, 1, 59, 100
5, 107638, Note_on_c, 1, 59, 0
5, 107640, Note_on_c, 1, 61, 100
5, 107698, Note_on_c, 1, 61, 0
5, 107700, Note_on_c, 1, 67, 100
5, 107758, Note_on_c, 1, 67, 0
5, 107760, Note_on_c, 1, 66, 100
5, 107818, Note_on_c, 1, 66, 0
5, 107820, Note_on_c, 1, 64, 100
5, 107878, Note_on_c, 1, 64, 0
5, 107880, Note_on_c, 1, 62, 100
5, 107938, Note_on_c, 1, 62, 0
5, 107940, Note_on_c, 1, 61, 100
5, 107998, Note_on_c, 1, 61, 0
5, 108000, Note_on_c, 1, 59, 100
5, 108118, Note_on_c, 1, 59, 0
5, 108120, Note_on_c, 1, 64, 100
5, 108238, Note_on_c, 1, 64, 0
5, 108240, Note_on_c, 1, 62, 100
5, 108358, Note_on_c, 1, 62, 0
5, 108360, Note_on_c, 1, 67, 100
5, 108478, Note_on_c, 1, 67, 0
5, 108480, Note_on_c, 1, 65, 100
5, 108598, Note_on_c, 1, 65, 0
5, 108600, Note_on_c, 1, 66, 100
5, 108718, Note_on_c, 1, 66, 0
5, 109080, Note_on_c, 1, 66, 100
5, 109198, Note_on_c, 1, 66, 0
5, 109200, Note_on_c, 1, 64, 100
5, 109318, Note_on_c, 1, 64, 0
5, 109320, Note_on_c, 1, 69, 100
5, 109438, Note_on_c, 1, 69, 0
5, 109440, Note_on_c, 1, 66, 100
5, 109558, Note_on_c, 1, 66, 0
5, 109560, Note_on_c, 1, 67, 100
5, 109678, Note_on_c, 1, 67, 0
5, 110040, Note_on_c, 1, 71, 100
5, 110158, Note_on_c, 1, 71, 0
5, 110160, Note_on_c, 1, 69, 100
5, 110278, Note_on_c, 1, 69, 0
5, 110280, Note_on_c, 1, 74, 100
5, 110398, Note_on_c, 1, 74, 0
5, 110400, Note_on_c, 1, 71, 100
5, 110518, Note_on_c, 1, 71, 0
5, 110520, Note_on_c, 1, 72, 100
5, 110638, Note_on_c, 1, 72, 0
5, 110640, Note_on_c, 1, 70, 100
5, 110758, Note_on_c, 1, 70, 0
5, 110760, Note_on_c, 1, 71, 100
5, 110878, Note_on_c, 1, 71, 0
5, 110880, Note_on_c, 1, 66, 100
5, 111118, Note_on_c, 1, 66, 0
5, 111240, Note_on_c, 1, 66, 100
5, 111358, Note_on_c, 1, 66, 0
5, 111360, Note_on_c, 1, 74, 100
5, 111478, Note_on_c, 1, 74, 0
5, 111480, Note_on_c, 1, 74, 100
5, 111598, Note_on_c, 1, 74, 0
5, 111600, Note_on_c, 1, 74, 100
5, 111718, Note_on_c, 1, 74, 0
5, 111720, Note_on_c, 1, 74, 100
5, 111838, Note_on_c, 1, 74, 0
5, 111840, Note_on_c, 1, 74, 100
5, 111868, Note_on_c, 1, 74, 0
5, 111870, Note_on_c, 1, 72, 100
5, 111898, Note_on_c, 1, 72, 0
5, 111900, Note_on_c, 1, 71, 100
5, 111958, Note_on_c, 1, 71, 0
5, 111960, Note_on_c, 1, 71, 100
5, 112020, Note_on_c, 1, 71, 0
5, 112020, Note_on_c, 1, 72, 100
5, 112200, Note_on_c, 1, 72, 0
5, 112200, Note_on_c, 1, 64, 100
5, 112318, Note_on_c, 1, 64, 0
5, 112320, Note_on_c, 1, 72, 100
5, 112438, Note_on_c, 1, 72, 0
5, 112440, Note_on_c, 1, 72, 100
5, 112558, Note_on_c, 1, 72, 0
5, 112560, Note_on_c, 1, 72, 100
5, 112678, Note_on_c, 1, 72, 0
5, 112680, Note_on_c, 1, 72, 100
5, 112798, Note_on_c, 1, 72, 0
5, 112800, Note_on_c, 1, 72, 100
5, 112828, Note_on_c, 1, 72, 0
5, 112830, Note_on_c, 1, 71, 100
5, 112858, Note_on_c, 1, 71, 0
5, 112860, Note_on_c, 1, 70, 100
5, 112918, Note_on_c, 1, 70, 0
5, 112920, Note_on_c, 1, 70, 100
5, 112980, Note_on_c, 1, 70, 0
5, 112980, Note_on_c, 1, 71, 100
5, 113160, Note_on_c, 1, 71, 0
5, 113160, Note_on_c, 1, 62, 100
5, 113338, Note_on_c, 1, 62, 0
5, 113340, Note_on_c, 1, 61, 100
5, 113398, Note_on_c, 1, 61, 0
5, 113400, Note_on_c, 1, 61, 100
5, 113458, Note_on_c, 1, 61, 0
5, 113460, Note_on_c, 1, 60, 100
5, 113518, Note_on_c, 1, 60, 0
5, 113520, Note_on_c, 1, 60, 100
5, 113578, Note_on_c, 1, 60, 0
5, 113580, Note_on_c, 1, 59, 100
5, 113638, Note_on_c, 1, 59, 0
5, 113640, Note_on_c, 1, 59, 100
5, 113698, Note_on_c, 1, 59, 0
5, 113700, Note_on_c, 1, 58, 100
5, 113758, Note_on_c, 1, 58, 0
5, 113760, Note_on_c, 1, 58, 100
5, 113818, Note_on_c, 1, 58, 0
5, 113820, Note_on_c, 1, 67, 100
5, 113878, Note_on_c, 1, 67, 0
5, 113880, Note_on_c, 1, 67, 100
5, 113938, Note_on_c, 1, 67, 0
5, 113940, Note_on_c, 1, 66, 100
5, 113998, Note_on_c, 1, 66, 0
5, 114000, Note_on_c, 1, 66, 100
5, 114058, Note_on_c, 1, 66, 0
5, 114060, Note_on_c, 1, 70, 100
5, 114118, Note_on_c, 1, 70, 0
5, 114120, Note_on_c, 1, 70, 100
5, 114178, Note_on_c, 1, 70, 0
5, 114180, Note_on_c, 1, 71, 100
5, 114238, Note_on_c, 1, 71, 0
5, 114241, Note_on_c, 1, 59, 100
5, 114359, Note_on_c, 1, 59, 0
5, 114361, Note_on_c, 1, 67, 100
5, 114419, Note_on_c, 1, 67, 0
5, 114421, Note_on_c, 1, 66, 100
5, 114479, Note_on_c, 1, 66, 0
5, 114481, Note_on_c, 1, 64, 100
5, 114539, Note_on_c, 1, 64, 0
5, 114541, Note_on_c, 1, 62, 100
5, 114599, Note_on_c, 1, 62, 0
5, 114601, Note_on_c, 1, 61, 100
5, 114659, Note_on_c, 1, 61, 0
5, 114661, Note_on_c, 1, 59, 100
5, 114719, Note_on_c, 1, 59, 0
5, 114721, Note_on_c, 1, 59, 100
5, 115079, Note_on_c, 1, 59, 0
5, 115200, Note_on_c, 1, 66, 100
5, 115200, Note_on_c, 1, 74, 100
5, 115200, Note_on_c, 1, 69, 100
5, 115320, Note_on_c, 1, 69, 0
5, 115320, Note_on_c, 1, 74, 0
5, 115320, Note_on_c, 1, 66, 0
5, 115320, Note_on_c, 1, 74, 100
5, 115320, Note_on_c, 1, 71, 100
5, 115320, Note_on_c, 1, 66, 100
5, 115440, Note_on_c, 1, 66, 0
5, 115440, Note_on_c, 1, 71, 0
5, 115440, Note_on_c, 1, 74, 0
5, 115440, Note_on_c, 1, 74, 100
5, 115440, Note_on_c, 1, 72, 100
5, 115440, Note_on_c, 1, 69, 100
5, 115560, Note_on_c, 1, 69, 0
5, 115560, Note_on_c, 1, 72, 0
5, 115560, Note_on_c, 1, 74, 0
5, 115560, Note_on_c, 1, 74, 100
5, 115560, Note_on_c, 1, 71, 100
5, 115560, Note_on_c, 1, 67, 100
5, 115680, Note_on_c, 1, 67, 0
5, 115680, Note_on_c, 1, 71, 0
5, 115680, Note_on_c, 1, 74, 0
5, 115680, Note_on_c, 1, 73, 100
5, 115680, Note_on_c, 1, 69, 100
5, 115710, Note_on_c, 1, 73, 0
5, 115710, Note_on_c, 1, 76, 100
5, 115740, Note_on_c, 1, 76, 0
5, 115740, Note_on_c, 1, 74, 100
5, 115770, Note_on_c, 1, 74, 0
5, 115770, Note_on_c, 1, 73, 100
5, 115800, Note_on_c, 1, 73, 0
5, 115800, Note_on_c, 1, 69, 0
5, 115800, Note_on_c, 1, 74, 100
5, 115800, Note_on_c, 1, 62, 100
5, 115830, Note_on_c, 1, 74, 0
5, 115830, Note_on_c, 1, 73, 100
5, 115860, Note_on_c, 1, 73, 0
5, 115860, Note_on_c, 1, 71, 100
5, 115890, Note_on_c, 1, 71, 0
5, 115890, Note_on_c, 1, 69, 100
5, 115920, Note_on_c, 1, 69, 0
5, 115920, Note_on_c, 1, 62, 0
5, 115920, Note_on_c, 1, 67, 100
5, 115980, Note_on_c, 1, 73, 100
5, 116040, Note_on_c, 1, 67, 0
5, 116040, Note_on_c, 1, 64, 100
5, 116100, Note_on_c, 1, 73, 0
5, 116100, Note_on_c, 1, 73, 100
5, 116160, Note_on_c, 1, 64, 0
5, 116160, Note_on_c, 1, 69, 100
5, 116220, Note_on_c, 1, 73, 0
5, 116220, Note_on_c, 1, 73, 100
5, 116280, Note_on_c, 1, 73, 0
5, 116280, Note_on_c, 1, 69, 0
5, 116280, Note_on_c, 1, 74, 100
5, 116280, Note_on_c, 1, 69, 100
5, 116280, Note_on_c, 1, 66, 100
5, 116400, Note_on_c, 1, 66, 0
5, 116400, Note_on_c, 1, 69, 0
5, 116460, Note_on_c, 1, 74, 0
5, 116460, Note_on_c, 1, 73, 100
5, 116490, Note_on_c, 1, 73, 0
5, 116490, Note_on_c, 1, 71, 100
5, 116520, Note_on_c, 1, 71, 0
5, 116520, Note_on_c, 1, 69, 100
5, 116550, Note_on_c, 1, 69, 0
5, 116550, Note_on_c, 1, 67, 100
5, 116580, Note_on_c, 1, 67, 0
5, 116580, Note_on_c, 1, 66, 100
5, 116610, Note_on_c, 1, 66, 0
5, 116610, Note_on_c, 1, 64, 100
5, 116640, Note_on_c, 1, 64, 0
5, 116640, Note_on_c, 1, 74, 100
5, 116640, Note_on_c, 1, 69, 100
5, 116640, Note_on_c, 1, 66, 100
5, 116640, Note_on_c, 1, 62, 100
5, 116760, Note_on_c, 1, 62, 0
5, 116760, Note_on_c, 1, 74, 0
5, 116760, Note_on_c, 1, 69, 0
5, 116760, Note_on_c, 1, 66, 0
5, 116760, Note_on_c, 1, 74, 100
5, 116760, Note_on_c, 1, 72, 100
5, 116760, Note_on_c, 1, 69, 100
5, 116760, Note_on_c, 1, 66, 100
5, 116880, Note_on_c, 1, 66, 0
5, 116880, Note_on_c, 1, 74, 0
5, 116880, Note_on_c, 1, 72, 0
5, 116880, Note_on_c, 1, 69, 0
5, 116880, Note_on_c, 1, 66, 100
5, 116880, Note_on_c, 1, 69, 100
5, 116880, Note_on_c, 1, 72, 100
5, 116880, Note_on_c, 1, 74, 100
5, 117000, Note_on_c, 1, 74, 0
5, 117000, Note_on_c, 1, 66, 0
5, 117000, Note_on_c, 1, 69, 0
5, 117000, Note_on_c, 1, 72, 0
5, 117000, Note_on_c, 1, 66, 100
5, 117000, Note_on_c, 1, 74, 100
5, 117000, Note_on_c, 1, 72, 100
5, 117000, Note_on_c, 1, 69, 100
5, 117120, Note_on_c, 1, 69, 0
5, 117120, Note_on_c, 1, 72, 0
5, 117120, Note_on_c, 1, 66, 0
5, 117120, Note_on_c, 1, 71, 100
5, 117120, Note_on_c, 1, 67, 100
5, 117150, Note_on_c, 1, 74, 0
5, 117150, Note_on_c, 1, 75, 100
5, 117180, Note_on_c, 1, 75, 0
5, 117180, Note_on_c, 1, 76, 100
5, 117210, Note_on_c, 1, 76, 0
5, 117210, Note_on_c, 1, 78, 100
5, 117240, Note_on_c, 1, 78, 0
5, 117240, Note_on_c, 1, 67, 0
5, 117240, Note_on_c, 1, 71, 0
5, 117240, Note_on_c, 1, 76, 100
5, 117240, Note_on_c, 1, 67, 100
5, 117270, Note_on_c, 1, 76, 0
5, 117270, Note_on_c, 1, 74, 100
5, 117300, Note_on_c, 1, 74, 0
5, 117300, Note_on_c, 1, 72, 100
5, 117330, Note_on_c, 1, 72, 0
5, 117330, Note_on_c, 1, 71, 100
5, 117360, Note_on_c, 1, 71, 0
5, 117360, Note_on_c, 1, 67, 0
5, 117360, Note_on_c, 1, 72, 100
5, 117360, Note_on_c, 1, 69, 100
5, 117420, Note_on_c, 1, 75, 100
5, 117480, Note_on_c, 1, 69, 0
5, 117480, Note_on_c, 1, 72, 0
5, 117480, Note_on_c, 1, 71, 100
5, 117480, Note_on_c, 1, 66, 100
5, 117540, Note_on_c, 1, 75, 0
5, 117540, Note_on_c, 1, 75, 100
5, 117600, Note_on_c, 1, 66, 0
5, 117600, Note_on_c, 1, 71, 0
5, 117600, Note_on_c, 1, 71, 100
5, 117600, Note_on_c, 1, 66, 100
5, 117660, Note_on_c, 1, 75, 0
5, 117660, Note_on_c, 1, 75, 100
5, 117720, Note_on_c, 1, 75, 0
5, 117720, Note_on_c, 1, 66, 0
5, 117720, Note_on_c, 1, 71, 0
5, 117720, Note_on_c, 1, 76, 100
5, 117720, Note_on_c, 1, 71, 100
5, 117720, Note_on_c, 1, 67, 100
5, 117840, Note_on_c, 1, 67, 0
5, 117840, Note_on_c, 1, 71, 0
5, 117900, Note_on_c, 1, 76, 0
5, 117900, Note_on_c, 1, 74, 100
5, 117930, Note_on_c, 1, 74, 0
5, 117930, Note_on_c, 1, 72, 100
5, 117960, Note_on_c, 1, 72, 0
5, 117960, Note_on_c, 1, 71, 100
5, 117990, Note_on_c, 1, 71, 0
5, 117990, Note_on_c, 1, 69, 100
5, 118020, Note_on_c, 1, 69, 0
5, 118020, Note_on_c, 1, 67, 100
5, 118050, Note_on_c, 1, 67, 0
5, 118050, Note_on_c, 1, 66, 100
5, 118080, Note_on_c, 1, 66, 0
5, 118080, Note_on_c, 1, 69, 100
5, 118080, Note_on_c, 1, 76, 100
5, 118080, Note_on_c, 1, 64, 100
5, 118200, Note_on_c, 1, 64, 0
5, 118200, Note_on_c, 1, 76, 0
5, 118200, Note_on_c, 1, 69, 0
5, 118200, Note_on_c, 1, 73, 100
5, 118200, Note_on_c, 1, 67, 100
5, 118200, Note_on_c, 1, 64, 100
5, 118320, Note_on_c, 1, 64, 0
5, 118320, Note_on_c, 1, 67, 0
5, 118320, Note_on_c, 1, 73, 0
5, 118320, Note_on_c, 1, 71, 100
5, 118320, Note_on_c, 1, 64, 100
5, 118440, Note_on_c, 1, 64, 0
5, 118440, Note_on_c, 1, 71, 0
5, 118440, Note_on_c, 1, 69, 100
5, 118440, Note_on_c, 1, 73, 100
5, 118440, Note_on_c, 1, 64, 100
5, 118560, Note_on_c, 1, 69, 0
5, 118560, Note_on_c, 1, 67, 100
5, 118680, Note_on_c, 1, 67, 0
5, 118680, Note_on_c, 1, 64, 0
5, 118680, Note_on_c, 1, 73, 0
5, 118680, Note_on_c, 1, 64, 100
5, 118680, Note_on_c, 1, 67, 100
5, 118680, Note_on_c, 1, 69, 100
5, 118800, Note_on_c, 1, 69, 0
5, 118800, Note_on_c, 1, 67, 0
5, 118800, Note_on_c, 1, 64, 0
5, 118800, Note_on_c, 1, 69, 100
5, 118800, Note_on_c, 1, 66, 100
5, 118800, Note_on_c, 1, 62, 100
5, 118920, Note_on_c, 1, 62, 0
5, 118920, Note_on_c, 1, 66, 0
5, 118920, Note_on_c, 1, 69, 0
5, 118920, Note_on_c, 1, 74, 100
5, 118920, Note_on_c, 1, 71, 100
5, 118920, Note_on_c, 1, 62, 100
5, 119040, Note_on_c, 1, 62, 0
5, 119040, Note_on_c, 1, 71, 0
5, 119040, Note_on_c, 1, 74, 0
5, 119040, Note_on_c, 1, 71, 100
5, 119040, Note_on_c, 1, 68, 100
5, 119040, Note_on_c, 1, 64, 100
5, 119160, Note_on_c, 1, 64, 0
5, 119160, Note_on_c, 1, 68, 0
5, 119160, Note_on_c, 1, 71, 0
5, 119160, Note_on_c, 1, 76, 100
5, 119160, Note_on_c, 1, 73, 100
5, 119160, Note_on_c, 1, 64, 100
5, 119280, Note_on_c, 1, 64, 0
5, 119280, Note_on_c, 1, 73, 0
5, 119280, Note_on_c, 1, 76, 0
5, 119280, Note_on_c, 1, 73, 100
5, 119280, Note_on_c, 1, 69, 100
5, 119280, Note_on_c, 1, 66, 100
5, 119400, Note_on_c, 1, 66, 0
5, 119400, Note_on_c, 1, 69, 0
5, 119400, Note_on_c, 1, 73, 0
5, 119400, Note_on_c, 1, 78, 100
5, 119400, Note_on_c, 1, 73, 100
5, 119400, Note_on_c, 1, 69, 100
5, 119520, Note_on_c, 1, 69, 0
5, 119520, Note_on_c, 1, 73, 0
5, 119520, Note_on_c, 1, 78, 0
5, 119520, Note_on_c, 1, 78, 100
5, 119520, Note_on_c, 1, 74, 100
5, 119520, Note_on_c, 1, 71, 100
5, 119520, Note_on_c, 1, 66, 100
5, 119640, Note_on_c, 1, 66, 0
5, 119640, Note_on_c, 1, 78, 0
5, 119640, Note_on_c, 1, 74, 0
5, 119640, Note_on_c, 1, 71, 0
5, 119640, Note_on_c, 1, 74, 100
5, 119640, Note_on_c, 1, 71, 100
5, 119640, Note_on_c, 1, 66, 100
5, 119760, Note_on_c, 1, 66, 0
5, 119760, Note_on_c, 1, 71, 0
5, 119760, Note_on_c, 1, 74, 0
5, 119760, Note_on_c, 1, 71, 100
5, 119760, Note_on_c, 1, 66, 100
5, 119760, Note_on_c, 1, 62, 100
5, 119880, Note_on_c, 1, 62, 0
5, 119880, Note_on_c, 1, 66, 0
5, 119880, Note_on_c, 1, 71, 0
5, 119880, Note_on_c, 1, 76, 100
5, 119880, Note_on_c, 1, 71, 100
5, 119880, Note_on_c, 1, 64, 100
5, 120000, Note_on_c, 1, 64, 0
5, 120000, Note_on_c, 1, 71, 0
5, 120000, Note_on_c, 1, 76, 0
5, 120000, Note_on_c, 1, 71, 100
5, 120000, Note_on_c, 1, 68, 100
5, 120000, Note_on_c, 1, 64, 100
5, 120120, Note_on_c, 1, 64, 0
5, 120120, Note_on_c, 1, 68, 0
5, 120120, Note_on_c, 1, 71, 0
5, 120120, Note_on_c, 1, 74, 100
5, 120120, Note_on_c, 1, 68, 100
5, 120120, Note_on_c, 1, 64, 100
5, 120240, Note_on_c, 1, 64, 0
5, 120240, Note_on_c, 1, 68, 0
5, 120240, Note_on_c, 1, 74, 0
5, 120240, Note_on_c, 1, 73, 100
5, 120240, Note_on_c, 1, 69, 100
5, 120240, Note_on_c, 1, 64, 100
5, 120360, Note_on_c, 1, 64, 0
5, 120360, Note_on_c, 1, 69, 0
5, 120360, Note_on_c, 1, 73, 0
5, 120360, Note_on_c, 1, 71, 100
5, 120360, Note_on_c, 1, 69, 100
5, 120360, Note_on_c, 1, 64, 100
5, 120420, Note_on_c, 1, 71, 0
5, 120420, Note_on_c, 1, 73, 100
5, 120480, Note_on_c, 1, 73, 0
5, 120480, Note_on_c, 1, 64, 0
5, 120480, Note_on_c, 1, 69, 0
5, 120480, Note_on_c, 1, 74, 100
5, 120480, Note_on_c, 1, 68, 100
5, 120480, Note_on_c, 1, 64, 100
5, 120600, Note_on_c, 1, 64, 0
5, 120600, Note_on_c, 1, 68, 0
5, 120600, Note_on_c, 1, 74, 0
5, 120600, Note_on_c, 1, 74, 100
5, 120600, Note_on_c, 1, 69, 100
5, 120600, Note_on_c, 1, 64, 100
5, 120720, Note_on_c, 1, 74, 0
5, 120720, Note_on_c, 1, 73, 100
5, 120780, Note_on_c, 1, 73, 0
5, 120780, Note_on_c, 1, 74, 100
5, 120840, Note_on_c, 1, 74, 0
5, 120840, Note_on_c, 1, 76, 100
5, 120900, Note_on_c, 1, 76, 0
5, 120900, Note_on_c, 1, 73, 100
5, 120960, Note_on_c, 1, 73, 0
5, 120960, Note_on_c, 1, 64, 0
5, 120960, Note_on_c, 1, 69, 0
5, 120960, Control_c, 1, 11, 127
5, 120960, Control_c, 1, 8, 48
5, 120960, Note_on_c, 1, 74, 100
5, 120960, Note_on_c, 1, 69, 100
5, 120960, Note_on_c, 1, 66, 100
5, 121080, Note_on_c, 1, 66, 0
5, 121080, Note_on_c, 1, 69, 0
5, 121080, Note_on_c, 1, 74, 0
5, 121080, Note_on_c, 1, 74, 100
5, 121080, Note_on_c, 1, 71, 100
5, 121080, Note_on_c, 1, 66, 100
5, 121200, Note_on_c, 1, 66, 0
5, 121200, Note_on_c, 1, 71, 0
5, 121200, Note_on_c, 1, 74, 0
5, 121200, Note_on_c, 1, 74, 100
5, 121200, Note_on_c, 1, 72, 100
5, 121200, Note_on_c, 1, 69, 100
5, 121320, Note_on_c, 1, 69, 0
5, 121320, Note_on_c, 1, 72, 0
5, 121320, Note_on_c, 1, 74, 0
5, 121320, Note_on_c, 1, 74, 100
5, 121320, Note_on_c, 1, 71, 100
5, 121320, Note_on_c, 1, 67, 100
5, 121440, Note_on_c, 1, 67, 0
5, 121440, Note_on_c, 1, 71, 0
5, 121440, Note_on_c, 1, 74, 0
5, 121440, Note_on_c, 1, 73, 100
5, 121440, Note_on_c, 1, 69, 100
5, 121470, Note_on_c, 1, 73, 0
5, 121470, Note_on_c, 1, 76, 100
5, 121500, Note_on_c, 1, 76, 0
5, 121500, Note_on_c, 1, 74, 100
5, 121530, Note_on_c, 1, 74, 0
5, 121530, Note_on_c, 1, 73, 100
5, 121560, Note_on_c, 1, 73, 0
5, 121560, Note_on_c, 1, 69, 0
5, 121560, Note_on_c, 1, 74, 100
5, 121560, Note_on_c, 1, 62, 100
5, 121590, Note_on_c, 1, 74, 0
5, 121590, Note_on_c, 1, 73, 100
5, 121620, Note_on_c, 1, 73, 0
5, 121620, Note_on_c, 1, 71, 100
5, 121650, Note_on_c, 1, 71, 0
5, 121650, Note_on_c, 1, 69, 100
5, 121680, Note_on_c, 1, 69, 0
5, 121680, Note_on_c, 1, 62, 0
5, 121680, Note_on_c, 1, 67, 100
5, 121740, Note_on_c, 1, 73, 100
5, 121800, Note_on_c, 1, 67, 0
5, 121800, Note_on_c, 1, 64, 100
5, 121860, Note_on_c, 1, 73, 0
5, 121860, Note_on_c, 1, 73, 100
5, 121920, Note_on_c, 1, 64, 0
5, 121920, Note_on_c, 1, 69, 100
5, 121980, Note_on_c, 1, 73, 0
5, 121980, Note_on_c, 1, 73, 100
5, 122040, Note_on_c, 1, 73, 0
5, 122040, Note_on_c, 1, 69, 0
5, 122040, Note_on_c, 1, 74, 100
5, 122040, Note_on_c, 1, 69, 100
5, 122040, Note_on_c, 1, 66, 100
5, 122160, Note_on_c, 1, 66, 0
5, 122160, Note_on_c, 1, 69, 0
5, 122220, Note_on_c, 1, 74, 0
5, 122220, Note_on_c, 1, 73, 100
5, 122250, Note_on_c, 1, 73, 0
5, 122250, Note_on_c, 1, 71, 100
5, 122280, Note_on_c, 1, 71, 0
5, 122280, Note_on_c, 1, 69, 100
5, 122310, Note_on_c, 1, 69, 0
5, 122310, Note_on_c, 1, 67, 100
5, 122340, Note_on_c, 1, 67, 0
5, 122340, Note_on_c, 1, 66, 100
5, 122370, Note_on_c, 1, 66, 0
5, 122370, Note_on_c, 1, 64, 100
5, 122400, Note_on_c, 1, 64, 0
5, 122400, Note_on_c, 1, 74, 100
5, 122400, Note_on_c, 1, 69, 100
5, 122400, Note_on_c, 1, 66, 100
5, 122400, Note_on_c, 1, 62, 100
5, 122520, Note_on_c, 1, 62, 0
5, 122520, Note_on_c, 1, 74, 0
5, 122520, Note_on_c, 1, 69, 0
5, 122520, Note_on_c, 1, 66, 0
5, 122520, Note_on_c, 1, 74, 100
5, 122520, Note_on_c, 1, 72, 100
5, 122520, Note_on_c, 1, 69, 100
5, 122520, Note_on_c, 1, 66, 100
5, 122640, Note_on_c, 1, 66, 0
5, 122640, Note_on_c, 1, 74, 0
5, 122640, Note_on_c, 1, 72, 0
5, 122640, Note_on_c, 1, 69, 0
5, 122640, Note_on_c, 1, 66, 100
5, 122640, Note_on_c, 1, 69, 100
5, 122640, Note_on_c, 1, 72, 100
5, 122640, Note_on_c, 1, 74, 100
5, 122760, Note_on_c, 1, 74, 0
5, 122760, Note_on_c, 1, 66, 0
5, 122760, Note_on_c, 1, 69, 0
5, 122760, Note_on_c, 1, 72, 0
5, 122760, Note_on_c, 1, 66, 100
5, 122760, Note_on_c, 1, 74, 100
5, 122760, Note_on_c, 1, 72, 100
5, 122760, Note_on_c, 1, 69, 100
5, 122880, Note_on_c, 1, 69, 0
5, 122880, Note_on_c, 1, 72, 0
5, 122880, Note_on_c, 1, 66, 0
5, 122880, Note_on_c, 1, 71, 100
5, 122880, Note_on_c, 1, 67, 100
5, 122910, Note_on_c, 1, 74, 0
5, 122910, Note_on_c, 1, 75, 100
5, 122940, Note_on_c, 1, 75, 0
5, 122940, Note_on_c, 1, 76, 100
5, 122970, Note_on_c, 1, 76, 0
5, 122970, Note_on_c, 1, 78, 100
5, 123000, Note_on_c, 1, 78, 0
5, 123000, Note_on_c, 1, 67, 0
5, 123000, Note_on_c, 1, 71, 0
5, 123000, Note_on_c, 1, 76, 100
5, 123000, Note_on_c, 1, 67, 100
5, 123030, Note_on_c, 1, 76, 0
5, 123030, Note_on_c, 1, 74, 100
5, 123060, Note_on_c, 1, 74, 0
5, 123060, Note_on_c, 1, 72, 100
5, 123090, Note_on_c, 1, 72, 0
5, 123090, Note_on_c, 1, 71, 100
5, 123120, Note_on_c, 1, 71, 0
5, 123120, Note_on_c, 1, 67, 0
5, 123120, Note_on_c, 1, 72, 100
5, 123120, Note_on_c, 1, 69, 100
5, 123180, Note_on_c, 1, 75, 100
5, 123240, Note_on_c, 1, 69, 0
5, 123240, Note_on_c, 1, 72, 0
5, 123240, Note_on_c, 1, 71, 100
5, 123240, Note_on_c, 1, 66, 100
5, 123300, Note_on_c, 1, 75, 0
5, 123300, Note_on_c, 1, 75, 100
5, 123360, Note_on_c, 1, 66, 0
5, 123360, Note_on_c, 1, 71, 0
5, 123360, Note_on_c, 1, 71, 100
5, 123360, Note_on_c, 1, 66, 100
5, 123420, Note_on_c, 1, 75, 0
5, 123420, Note_on_c, 1, 75, 100
5, 123480, Note_on_c, 1, 75, 0
5, 123480, Note_on_c, 1, 66, 0
5, 123480, Note_on_c, 1, 71, 0
5, 123480, Note_on_c, 1, 76, 100
5, 123480, Note_on_c, 1, 71, 100
5, 123480, Note_on_c, 1, 67, 100
5, 123600, Note_on_c, 1, 67, 0
5, 123600, Note_on_c, 1, 71, 0
5, 123660, Note_on_c, 1, 76, 0
5, 123660, Note_on_c, 1, 74, 100
5, 123690, Note_on_c, 1, 74, 0
5, 123690, Note_on_c, 1, 72, 100
5, 123720, Note_on_c, 1, 72, 0
5, 123720, Note_on_c, 1, 71, 100
5, 123750, Note_on_c, 1, 71, 0
5, 123750, Note_on_c, 1, 69, 100
5, 123780, Note_on_c, 1, 69, 0
5, 123780, Note_on_c, 1, 67, 100
5, 123810, Note_on_c, 1, 67, 0
5, 123810, Note_on_c, 1, 66, 100
5, 123840, Note_on_c, 1, 66, 0
5, 123840, Note_on_c, 1, 69, 100
5, 123840, Note_on_c, 1, 76, 100
5, 123840, Note_on_c, 1, 64, 100
5, 123960, Note_on_c, 1, 64, 0
5, 123960, Note_on_c, 1, 76, 0
5, 123960, Note_on_c, 1, 69, 0
5, 123960, Note_on_c, 1, 73, 100
5, 123960, Note_on_c, 1, 67, 100
5, 123960, Note_on_c, 1, 64, 100
5, 124080, Note_on_c, 1, 64, 0
5, 124080, Note_on_c, 1, 67, 0
5, 124080, Note_on_c, 1, 73, 0
5, 124080, Note_on_c, 1, 71, 100
5, 124080, Note_on_c, 1, 64, 100
5, 124200, Note_on_c, 1, 64, 0
5, 124200, Note_on_c, 1, 71, 0
5, 124200, Note_on_c, 1, 69, 100
5, 124200, Note_on_c, 1, 73, 100
5, 124200, Note_on_c, 1, 64, 100
5, 124320, Note_on_c, 1, 69, 0
5, 124320, Note_on_c, 1, 67, 100
5, 124440, Note_on_c, 1, 67, 0
5, 124440, Note_on_c, 1, 64, 0
5, 124440, Note_on_c, 1, 73, 0
5, 124440, Note_on_c, 1, 64, 100
5, 124440, Note_on_c, 1, 67, 100
5, 124440, Note_on_c, 1, 69, 100
5, 124560, Note_on_c, 1, 69, 0
5, 124560, Note_on_c, 1, 67, 0
5, 124560, Note_on_c, 1, 64, 0
5, 124560, Note_on_c, 1, 69, 100
5, 124560, Note_on_c, 1, 66, 100
5, 124560, Note_on_c, 1, 62, 100
5, 124680, Note_on_c, 1, 62, 0
5, 124680, Note_on_c, 1, 66, 0
5, 124680, Note_on_c, 1, 69, 0
5, 124680, Note_on_c, 1, 74, 100
5, 124680, Note_on_c, 1, 71, 100
5, 124680, Note_on_c, 1, 62, 100
5, 124800, Note_on_c, 1, 62, 0
5, 124800, Note_on_c, 1, 71, 0
5, 124800, Note_on_c, 1, 74, 0
5, 124800, Note_on_c, 1, 71, 100
5, 124800, Note_on_c, 1, 68, 100
5, 124800, Note_on_c, 1, 64, 100
5, 124920, Note_on_c, 1, 64, 0
5, 124920, Note_on_c, 1, 68, 0
5, 124920, Note_on_c, 1, 71, 0
5, 124920, Note_on_c, 1, 76, 100
5, 124920, Note_on_c, 1, 73, 100
5, 124920, Note_on_c, 1, 64, 100
5, 125040, Note_on_c, 1, 64, 0
5, 125040, Note_on_c, 1, 73, 0
5, 125040, Note_on_c, 1, 76, 0
5, 125040, Note_on_c, 1, 73, 100
5, 125040, Note_on_c, 1, 69, 100
5, 125040, Note_on_c, 1, 66, 100
5, 125160, Note_on_c, 1, 66, 0
5, 125160, Note_on_c, 1, 69, 0
5, 125160, Note_on_c, 1, 73, 0
5, 125160, Note_on_c, 1, 78, 100
5, 125160, Note_on_c, 1, 73, 100
5, 125160, Note_on_c, 1, 69, 100
5, 125280, Note_on_c, 1, 69, 0
5, 125280, Note_on_c, 1, 73, 0
5, 125280, Note_on_c, 1, 78, 0
5, 125280, Note_on_c, 1, 78, 100
5, 125280, Note_on_c, 1, 74, 100
5, 125280, Note_on_c, 1, 71, 100
5, 125280, Note_on_c, 1, 66, 100
5, 125400, Note_on_c, 1, 66, 0
5, 125400, Note_on_c, 1, 78, 0
5, 125400, Note_on_c, 1, 74, 0
5, 125400, Note_on_c, 1, 71, 0
5, 125400, Note_on_c, 1, 74, 100
5, 125400, Note_on_c, 1, 71, 100
5, 125400, Note_on_c, 1, 66, 100
5, 125520, Note_on_c, 1, 66, 0
5, 125520, Note_on_c, 1, 71, 0
5, 125520, Note_on_c, 1, 74, 0
5, 125520, Note_on_c, 1, 71, 100
5, 125520, Note_on_c, 1, 66, 100
5, 125520, Note_on_c, 1, 62, 100
5, 125640, Note_on_c, 1, 62, 0
5, 125640, Note_on_c, 1, 66, 0
5, 125640, Note_on_c, 1, 71, 0
5, 125640, Note_on_c, 1, 76, 100
5, 125640, Note_on_c, 1, 71, 100
5, 125640, Note_on_c, 1, 64, 100
5, 125760, Note_on_c, 1, 64, 0
5, 125760, Note_on_c, 1, 71, 0
5, 125760, Note_on_c, 1, 76, 0
5, 125760, Note_on_c, 1, 71, 100
5, 125760, Note_on_c, 1, 68, 100
5, 125760, Note_on_c, 1, 64, 100
5, 125880, Note_on_c, 1, 64, 0
5, 125880, Note_on_c, 1, 68, 0
5, 125880, Note_on_c, 1, 71, 0
5, 125880, Note_on_c, 1, 74, 100
5, 125880, Note_on_c, 1, 68, 100
5, 125880, Note_on_c, 1, 64, 100
5, 126000, Note_on_c, 1, 64, 0
5, 126000, Note_on_c, 1, 68, 0
5, 126000, Note_on_c, 1, 74, 0
5, 126000, Note_on_c, 1, 73, 100
5, 126000, Note_on_c, 1, 69, 100
5, 126000, Note_on_c, 1, 64, 100
5, 126120, Note_on_c, 1, 64, 0
5, 126120, Note_on_c, 1, 69, 0
5, 126120, Note_on_c, 1, 73, 0
5, 126120, Note_on_c, 1, 71, 100
5, 126120, Note_on_c, 1, 69, 100
5, 126120, Note_on_c, 1, 64, 100
5, 126180, Note_on_c, 1, 71, 0
5, 126180, Note_on_c, 1, 73, 100
5, 126240, Note_on_c, 1, 73, 0
5, 126240, Note_on_c, 1, 64, 0
5, 126240, Note_on_c, 1, 69, 0
5, 126240, Note_on_c, 1, 74, 100
5, 126240, Note_on_c, 1, 68, 100
5, 126240, Note_on_c, 1, 64, 100
5, 126360, Note_on_c, 1, 64, 0
5, 126360, Note_on_c, 1, 68, 0
5, 126360, Note_on_c, 1, 74, 0
5, 126360, Note_on_c, 1, 74, 100
5, 126360, Note_on_c, 1, 69, 100
5, 126360, Note_on_c, 1, 64, 100
5, 126480, Note_on_c, 1, 74, 0
5, 126480, Note_on_c, 1, 73, 100
5, 126720, Note_on_c, 1, 73, 0
5, 126720, Note_on_c, 1, 64, 0
5, 126720, Note_on_c, 1, 69, 0
5, 126720, Note_on_c, 1, 73, 100
5, 126720, Note_on_c, 1, 69, 100
5, 126720, Note_on_c, 1, 64, 100
5, 126840, Note_on_c, 1, 64, 0
5, 126840, Note_on_c, 1, 69, 0
5, 126840, Note_on_c, 1, 73, 0
5, 126840, Note_on_c, 1, 78, 100
5, 126840, Note_on_c, 1, 73, 100
5, 126840, Note_on_c, 1, 69, 100
5, 126840, Note_on_c, 1, 66, 100
5, 126960, Note_on_c, 1, 66, 0
5, 126960, Note_on_c, 1, 78, 0
5, 126960, Note_on_c, 1, 73, 0
5, 126960, Note_on_c, 1, 69, 0
5, 126960, Note_on_c, 1, 76, 100
5, 126960, Note_on_c, 1, 73, 100
5, 126960, Note_on_c, 1, 69, 100
5, 126960, Note_on_c, 1, 67, 100
5, 127080, Note_on_c, 1, 67, 0
5, 127080, Note_on_c, 1, 76, 0
5, 127080, Note_on_c, 1, 73, 0
5, 127080, Note_on_c, 1, 69, 0
5, 127080, Note_on_c, 1, 76, 100
5, 127080, Note_on_c, 1, 69, 100
5, 127080, Note_on_c, 1, 67, 100
5, 127140, Note_on_c, 1, 67, 0
5, 127140, Note_on_c, 1, 76, 0
5, 127140, Note_on_c, 1, 73, 100
5, 127140, Note_on_c, 1, 64, 100
5, 127200, Note_on_c, 1, 64, 0
5, 127200, Note_on_c, 1, 73, 0
5, 127200, Note_on_c, 1, 69, 0
5, 127200, Note_on_c, 1, 74, 100
5, 127200, Note_on_c, 1, 66, 100
5, 127230, Note_on_c, 1, 74, 0
5, 127230, Note_on_c, 1, 76, 100
5, 127260, Note_on_c, 1, 76, 0
5, 127260, Note_on_c, 1, 66, 0
5, 127260, Note_on_c, 1, 74, 100
5, 127290, Note_on_c, 1, 74, 0
5, 127290, Note_on_c, 1, 73, 100
5, 127320, Note_on_c, 1, 73, 0
5, 127320, Note_on_c, 1, 71, 100
5, 127350, Note_on_c, 1, 71, 0
5, 127350, Note_on_c, 1, 69, 100
5, 127380, Note_on_c, 1, 69, 0
5, 127380, Note_on_c, 1, 67, 100
5, 127410, Note_on_c, 1, 67, 0
5, 127410, Note_on_c, 1, 66, 100
5, 127440, Note_on_c, 1, 66, 0
5, 127440, Note_on_c, 1, 79, 100
5, 127440, Note_on_c, 1, 76, 100
5, 127440, Note_on_c, 1, 70, 100
5, 127500, Note_on_c, 1, 70, 0
5, 127500, Note_on_c, 1, 71, 100
5, 127560, Note_on_c, 1, 71, 0
5, 127560, Note_on_c, 1, 76, 0
5, 127560, Note_on_c, 1, 79, 0
5, 127560, Note_on_c, 1, 78, 100
5, 127560, Note_on_c, 1, 76, 100
5, 127560, Note_on_c, 1, 73, 100
5, 127680, Note_on_c, 1, 73, 0
5, 127680, Note_on_c, 1, 76, 0
5, 127680, Note_on_c, 1, 78, 0
5, 127680, Note_on_c, 1, 82, 100
5, 127680, Note_on_c, 1, 78, 100
5, 127680, Note_on_c, 1, 76, 100
5, 127680, Note_on_c, 1, 73, 100
5, 127800, Note_on_c, 1, 73, 0
5, 127800, Note_on_c, 1, 82, 0
5, 127800, Note_on_c, 1, 78, 0
5, 127800, Note_on_c, 1, 76, 0
5, 127800, Note_on_c, 1, 76, 100
5, 127800, Note_on_c, 1, 83, 100
5, 127800, Note_on_c, 1, 78, 100
5, 127800, Note_on_c, 1, 71, 100
5, 127920, Note_on_c, 1, 78, 0
5, 127920, Note_on_c, 1, 74, 100
5, 127950, Note_on_c, 1, 76, 0
5, 127950, Note_on_c, 1, 83, 0
5, 127950, Note_on_c, 1, 81, 100
5, 127980, Note_on_c, 1, 81, 0
5, 127980, Note_on_c, 1, 71, 0
5, 127980, Note_on_c, 1, 79, 100
5, 128010, Note_on_c, 1, 79, 0
5, 128010, Note_on_c, 1, 83, 100
5, 128040, Note_on_c, 1, 83, 0
5, 128040, Note_on_c, 1, 81, 100
5, 128070, Note_on_c, 1, 81, 0
5, 128070, Note_on_c, 1, 74, 0
5, 128070, Note_on_c, 1, 79, 100
5, 128100, Note_on_c, 1, 79, 0
5, 128100, Note_on_c, 1, 78, 100
5, 128130, Note_on_c, 1, 78, 0
5, 128130, Note_on_c, 1, 81, 100
5, 128160, Note_on_c, 1, 81, 0
5, 128160, Note_on_c, 1, 79, 100
5, 128220, Note_on_c, 1, 76, 100
5, 128280, Note_on_c, 1, 73, 100
5, 128340, Note_on_c, 1, 79, 0
5, 128340, Note_on_c, 1, 79, 100
5, 128400, Note_on_c, 1, 73, 0
5, 128400, Note_on_c, 1, 76, 0
5, 128400, Note_on_c, 1, 74, 100
5, 128400, Note_on_c, 1, 71, 100
5, 128460, Note_on_c, 1, 79, 0
5, 128460, Note_on_c, 1, 78, 100
5, 128520, Note_on_c, 1, 71, 0
5, 128520, Note_on_c, 1, 74, 0
5, 128520, Note_on_c, 1, 71, 100
5, 128520, Note_on_c, 1, 78, 100
5, 128520, Note_on_c, 1, 74, 100
5, 128550, Note_on_c, 1, 78, 0
5, 128580, Note_on_c, 1, 78, 0
5, 128580, Note_on_c, 1, 76, 100
5, 128640, Note_on_c, 1, 71, 0
5, 128640, Note_on_c, 1, 74, 0
5, 128640, Note_on_c, 1, 67, 100
5, 128640, Note_on_c, 1, 72, 100
5, 128700, Note_on_c, 1, 76, 0
5, 128700, Note_on_c, 1, 76, 100
5, 128760, Note_on_c, 1, 72, 0
5, 128760, Note_on_c, 1, 67, 0
5, 128760, Note_on_c, 1, 73, 100
5, 128760, Note_on_c, 1, 70, 100
5, 128760, Note_on_c, 1, 67, 100
5, 128760, Note_on_c, 1, 64, 100
5, 128820, Note_on_c, 1, 76, 0
5, 128820, Note_on_c, 1, 76, 100
5, 128880, Note_on_c, 1, 76, 0
5, 128880, Note_on_c, 1, 64, 0
5, 128880, Note_on_c, 1, 73, 0
5, 128880, Note_on_c, 1, 70, 0
5, 128880, Note_on_c, 1, 67, 0
5, 128880, Note_on_c, 1, 71, 100
5, 128880, Note_on_c, 1, 74, 100
5, 128880, Note_on_c, 1, 66, 100
5, 129000, Note_on_c, 1, 66, 0
5, 129000, Note_on_c, 1, 74, 0
5, 129000, Note_on_c, 1, 71, 0
5, 129000, Note_on_c, 1, 64, 100
5, 129000, Note_on_c, 1, 67, 100
5, 129000, Note_on_c, 1, 71, 100
5, 129120, Note_on_c, 1, 71, 0
5, 129120, Note_on_c, 1, 64, 0
5, 129120, Note_on_c, 1, 70, 100
5, 129120, Note_on_c, 1, 64, 100
5, 129180, Note_on_c, 1, 67, 0
5, 129180, Note_on_c, 1, 66, 100
5, 129240, Note_on_c, 1, 66, 0
5, 129240, Note_on_c, 1, 64, 0
5, 129240, Note_on_c, 1, 70, 0
5, 129240, Note_on_c, 1, 71, 100
5, 129240, Note_on_c, 1, 62, 100
5, 129240, Note_on_c, 1, 66, 100
5, 129270, Note_on_c, 1, 71, 0
5, 129270, Note_on_c, 1, 66, 100
5, 129300, Note_on_c, 1, 66, 0
5, 129300, Note_on_c, 1, 66, 0
5, 129300, Note_on_c, 1, 62, 0
5, 129300, Note_on_c, 1, 68, 100
5, 129330, Note_on_c, 1, 68, 0
5, 129330, Note_on_c, 1, 70, 100
5, 129360, Note_on_c, 1, 70, 0
5, 129360, Note_on_c, 1, 71, 100
5, 129390, Note_on_c, 1, 71, 0
5, 129390, Note_on_c, 1, 73, 100
5, 129420, Note_on_c, 1, 73, 0
5, 129420, Note_on_c, 1, 74, 100
5, 129450, Note_on_c, 1, 74, 0
5, 129450, Note_on_c, 1, 78, 100
5, 129480, Note_on_c, 1, 78, 0
5, 129480, Note_on_c, 1, 76, 100
5, 129510, Note_on_c, 1, 76, 0
5, 129510, Note_on_c, 1, 74, 100
5, 129540, Note_on_c, 1, 74, 0
5, 129540, Note_on_c, 1, 73, 100
5, 129570, Note_on_c, 1, 73, 0
5, 129570, Note_on_c, 1, 71, 100
5, 129600, Note_on_c, 1, 83, 100
5, 129600, Note_on_c, 1, 80, 100
5, 129600, Note_on_c, 1, 76, 100
5, 129720, Note_on_c, 1, 76, 0
5, 129720, Note_on_c, 1, 71, 0
5, 129720, Note_on_c, 1, 83, 0
5, 129720, Note_on_c, 1, 80, 0
5, 129720, Note_on_c, 1, 80, 100
5, 129720, Note_on_c, 1, 76, 100
5, 129720, Note_on_c, 1, 71, 100
5, 129840, Note_on_c, 1, 71, 0
5, 129840, Note_on_c, 1, 76, 0
5, 129840, Note_on_c, 1, 80, 0
5, 129840, Note_on_c, 1, 76, 100
5, 129840, Note_on_c, 1, 71, 100
5, 129840, Note_on_c, 1, 68, 100
5, 129960, Note_on_c, 1, 68, 0
5, 129960, Note_on_c, 1, 71, 0
5, 129960, Note_on_c, 1, 76, 0
5, 129960, Note_on_c, 1, 76, 100
5, 129960, Note_on_c, 1, 74, 100
5, 129960, Note_on_c, 1, 71, 100
5, 129960, Note_on_c, 1, 68, 100
5, 130080, Note_on_c, 1, 68, 0
5, 130080, Note_on_c, 1, 76, 0
5, 130080, Note_on_c, 1, 74, 0
5, 130080, Note_on_c, 1, 71, 0
5, 130080, Note_on_c, 1, 81, 100
5, 130080, Note_on_c, 1, 73, 100
5, 130080, Note_on_c, 1, 69, 100
5, 130080, Note_on_c, 1, 64, 100
5, 130200, Note_on_c, 1, 64, 0
5, 130200, Note_on_c, 1, 81, 0
5, 130200, Note_on_c, 1, 73, 0
5, 130200, Note_on_c, 1, 69, 0
5, 130320, Note_on_c, 1, 81, 100
5, 130320, Note_on_c, 1, 74, 100
5, 130320, Note_on_c, 1, 69, 100
5, 130440, Note_on_c, 1, 69, 0
5, 130440, Note_on_c, 1, 74, 0
5, 130440, Note_on_c, 1, 81, 0
5, 130440, Note_on_c, 1, 78, 100
5, 130440, Note_on_c, 1, 74, 100
5, 130440, Note_on_c, 1, 69, 100
5, 130560, Note_on_c, 1, 69, 0
5, 130560, Note_on_c, 1, 74, 0
5, 130560, Note_on_c, 1, 78, 0
5, 130560, Note_on_c, 1, 74, 100
5, 130560, Note_on_c, 1, 72, 100
5, 130560, Note_on_c, 1, 69, 100
5, 130560, Note_on_c, 1, 66, 100
5, 130680, Note_on_c, 1, 66, 0
5, 130680, Note_on_c, 1, 74, 0
5, 130680, Note_on_c, 1, 72, 0
5, 130680, Note_on_c, 1, 69, 0
5, 130680, Note_on_c, 1, 74, 100
5, 130680, Note_on_c, 1, 72, 100
5, 130680, Note_on_c, 1, 69, 100
5, 130800, Note_on_c, 1, 69, 0
5, 130800, Note_on_c, 1, 72, 0
5, 130800, Note_on_c, 1, 74, 0
5, 130800, Note_on_c, 1, 79, 100
5, 130800, Note_on_c, 1, 71, 100
5, 130830, Note_on_c, 1, 71, 0
5, 130830, Note_on_c, 1, 73, 100
5, 130860, Note_on_c, 1, 73, 0
5, 130860, Note_on_c, 1, 74, 100
5, 130890, Note_on_c, 1, 74, 0
5, 130890, Note_on_c, 1, 73, 100
5, 130920, Note_on_c, 1, 73, 0
5, 130920, Note_on_c, 1, 79, 0
5, 130920, Note_on_c, 1, 76, 100
5, 130950, Note_on_c, 1, 76, 0
5, 130950, Note_on_c, 1, 74, 100
5, 130980, Note_on_c, 1, 74, 0
5, 130980, Note_on_c, 1, 78, 100
5, 131010, Note_on_c, 1, 78, 0
5, 131010, Note_on_c, 1, 76, 100
5, 131040, Note_on_c, 1, 76, 0
5, 131040, Note_on_c, 1, 79, 100
5, 131040, Note_on_c, 1, 76, 100
5, 131040, Note_on_c, 1, 69, 100
5, 131160, Note_on_c, 1, 69, 0
5, 131160, Note_on_c, 1, 76, 0
5, 131160, Note_on_c, 1, 79, 0
5, 131160, Note_on_c, 1, 76, 100
5, 131160, Note_on_c, 1, 73, 100
5, 131160, Note_on_c, 1, 67, 100
5, 131280, Note_on_c, 1, 67, 0
5, 131280, Note_on_c, 1, 73, 0
5, 131280, Note_on_c, 1, 76, 0
5, 131280, Note_on_c, 1, 73, 100
5, 131280, Note_on_c, 1, 67, 100
5, 131280, Note_on_c, 1, 64, 100
5, 131400, Note_on_c, 1, 64, 0
5, 131400, Note_on_c, 1, 67, 0
5, 131400, Note_on_c, 1, 73, 0
5, 131400, Note_on_c, 1, 76, 100
5, 131400, Note_on_c, 1, 73, 100
5, 131400, Note_on_c, 1, 67, 100
5, 131400, Note_on_c, 1, 64, 100
5, 131520, Note_on_c, 1, 64, 0
5, 131520, Note_on_c, 1, 76, 0
5, 131520, Note_on_c, 1, 73, 0
5, 131520, Note_on_c, 1, 67, 0
5, 131520, Note_on_c, 1, 73, 100
5, 131520, Note_on_c, 1, 67, 100
5, 131520, Note_on_c, 1, 64, 100
5, 131640, Note_on_c, 1, 64, 0
5, 131640, Note_on_c, 1, 67, 0
5, 131640, Note_on_c, 1, 73, 0
5, 131640, Note_on_c, 1, 69, 100
5, 131640, Note_on_c, 1, 67, 100
5, 131640, Note_on_c, 1, 64, 100
5, 131640, Note_on_c, 1, 61, 100
5, 131760, Note_on_c, 1, 61, 0
5, 131760, Note_on_c, 1, 69, 0
5, 131760, Note_on_c, 1, 67, 0
5, 131760, Note_on_c, 1, 64, 0
5, 131760, Note_on_c, 1, 74, 100
5, 131760, Note_on_c, 1, 69, 100
5, 131760, Note_on_c, 1, 66, 100
5, 131880, Note_on_c, 1, 66, 0
5, 131880, Note_on_c, 1, 69, 0
5, 131880, Note_on_c, 1, 74, 0
5, 131880, Note_on_c, 1, 74, 100
5, 131880, Note_on_c, 1, 71, 100
5, 131880, Note_on_c, 1, 64, 100
5, 132000, Note_on_c, 1, 64, 0
5, 132000, Note_on_c, 1, 71, 0
5, 132000, Note_on_c, 1, 74, 0
5, 132000, Note_on_c, 1, 73, 100
5, 132000, Note_on_c, 1, 69, 100
5, 132000, Note_on_c, 1, 67, 100
5, 132000, Note_on_c, 1, 64, 100
5, 132120, Note_on_c, 1, 64, 0
5, 132120, Note_on_c, 1, 73, 0
5, 132120, Note_on_c, 1, 69, 0
5, 132120, Note_on_c, 1, 67, 0
5, 132120, Note_on_c, 1, 74, 100
5, 132120, Note_on_c, 1, 69, 100
5, 132120, Note_on_c, 1, 66, 100
5, 132480, Note_on_c, 1, 66, 0
5, 132480, Note_on_c, 1, 69, 0
5, 132480, Note_on_c, 1, 74, 0
5, 132480, Note_on_c, 1, 73, 100
5, 132480, Note_on_c, 1, 69, 100
5, 132480, Note_on_c, 1, 64, 100
5, 132600, Note_on_c, 1, 64, 0
5, 132600, Note_on_c, 1, 69, 0
5, 132600, Note_on_c, 1, 73, 0
5, 132600, Note_on_c, 1, 78, 100
5, 132600, Note_on_c, 1, 73, 100
5, 132600, Note_on_c, 1, 69, 100
5, 132600, Note_on_c, 1, 66, 100
5, 132720, Note_on_c, 1, 66, 0
5, 132720, Note_on_c, 1, 78, 0
5, 132720, Note_on_c, 1, 73, 0
5, 132720, Note_on_c, 1, 69, 0
5, 132720, Note_on_c, 1, 76, 100
5, 132720, Note_on_c, 1, 73, 100
5, 132720, Note_on_c, 1, 69, 100
5, 132720, Note_on_c, 1, 67, 100
5, 132840, Note_on_c, 1, 67, 0
5, 132840, Note_on_c, 1, 76, 0
5, 132840, Note_on_c, 1, 73, 0
5, 132840, Note_on_c, 1, 69, 0
5, 132840, Note_on_c, 1, 76, 100
5, 132840, Note_on_c, 1, 69, 100
5, 132840, Note_on_c, 1, 67, 100
5, 132900, Note_on_c, 1, 67, 0
5, 132900, Note_on_c, 1, 76, 0
5, 132900, Note_on_c, 1, 73, 100
5, 132900, Note_on_c, 1, 64, 100
5, 132960, Note_on_c, 1, 64, 0
5, 132960, Note_on_c, 1, 73, 0
5, 132960, Note_on_c, 1, 69, 0
5, 132960, Note_on_c, 1, 74, 100
5, 132960, Note_on_c, 1, 66, 100
5, 132990, Note_on_c, 1, 74, 0
5, 132990, Note_on_c, 1, 76, 100
5, 133020, Note_on_c, 1, 76, 0
5, 133020, Note_on_c, 1, 66, 0
5, 133020, Note_on_c, 1, 74, 100
5, 133050, Note_on_c, 1, 74, 0
5, 133050, Note_on_c, 1, 73, 100
5, 133080, Note_on_c, 1, 73, 0
5, 133080, Note_on_c, 1, 71, 100
5, 133110, Note_on_c, 1, 71, 0
5, 133110, Note_on_c, 1, 69, 100
5, 133140, Note_on_c, 1, 69, 0
5, 133140, Note_on_c, 1, 67, 100
5, 133170, Note_on_c, 1, 67, 0
5, 133170, Note_on_c, 1, 66, 100
5, 133200, Note_on_c, 1, 66, 0
5, 133200, Note_on_c, 1, 79, 100
5, 133200, Note_on_c, 1, 76, 100
5, 133200, Note_on_c, 1, 70, 100
5, 133260, Note_on_c, 1, 70, 0
5, 133260, Note_on_c, 1, 71, 100
5, 133320, Note_on_c, 1, 71, 0
5, 133320, Note_on_c, 1, 76, 0
5, 133320, Note_on_c, 1, 79, 0
5, 133320, Note_on_c, 1, 78, 100
5, 133320, Note_on_c, 1, 76, 100
5, 133320, Note_on_c, 1, 73, 100
5, 133440, Note_on_c, 1, 73, 0
5, 133440, Note_on_c, 1, 76, 0
5, 133440, Note_on_c, 1, 78, 0
5, 133440, Note_on_c, 1, 82, 100
5, 133440, Note_on_c, 1, 78, 100
5, 133440, Note_on_c, 1, 76, 100
5, 133440, Note_on_c, 1, 73, 100
5, 133560, Note_on_c, 1, 73, 0
5, 133560, Note_on_c, 1, 82, 0
5, 133560, Note_on_c, 1, 78, 0
5, 133560, Note_on_c, 1, 76, 0
5, 133560, Note_on_c, 1, 76, 100
5, 133560, Note_on_c, 1, 83, 100
5, 133560, Note_on_c, 1, 78, 100
5, 133560, Note_on_c, 1, 71, 100
5, 133680, Note_on_c, 1, 78, 0
5, 133680, Note_on_c, 1, 74, 100
5, 133710, Note_on_c, 1, 76, 0
5, 133710, Note_on_c, 1, 83, 0
5, 133710, Note_on_c, 1, 81, 100
5, 133740, Note_on_c, 1, 81, 0
5, 133740, Note_on_c, 1, 71, 0
5, 133740, Note_on_c, 1, 79, 100
5, 133770, Note_on_c, 1, 79, 0
5, 133770, Note_on_c, 1, 83, 100
5, 133800, Note_on_c, 1, 83, 0
5, 133800, Note_on_c, 1, 81, 100
5, 133830, Note_on_c, 1, 81, 0
5, 133830, Note_on_c, 1, 74, 0
5, 133830, Note_on_c, 1, 79, 100
5, 133860, Note_on_c, 1, 79, 0
5, 133860, Note_on_c, 1, 78, 100
5, 133890, Note_on_c, 1, 78, 0
5, 133890, Note_on_c, 1, 81, 100
5, 133920, Note_on_c, 1, 81, 0
5, 133920, Note_on_c, 1, 79, 100
5, 133980, Note_on_c, 1, 76, 100
5, 134040, Note_on_c, 1, 73, 100
5, 134100, Note_on_c, 1, 79, 0
5, 134100, Note_on_c, 1, 79, 100
5, 134160, Note_on_c, 1, 73, 0
5, 134160, Note_on_c, 1, 76, 0
5, 134160, Note_on_c, 1, 74, 100
5, 134160, Note_on_c, 1, 71, 100
5, 134220, Note_on_c, 1, 79, 0
5, 134220, Note_on_c, 1, 78, 100
5, 134280, Note_on_c, 1, 71, 0
5, 134280, Note_on_c, 1, 74, 0
5, 134280, Note_on_c, 1, 71, 100
5, 134280, Note_on_c, 1, 78, 100
5, 134280, Note_on_c, 1, 74, 100
5, 134310, Note_on_c, 1, 78, 0
5, 134340, Note_on_c, 1, 78, 0
5, 134340, Note_on_c, 1, 76, 100
5, 134400, Note_on_c, 1, 71, 0
5, 134400, Note_on_c, 1, 74, 0
5, 134400, Note_on_c, 1, 67, 100
5, 134400, Note_on_c, 1, 72, 100
5, 134460, Note_on_c, 1, 76, 0
5, 134460, Note_on_c, 1, 76, 100
5, 134520, Note_on_c, 1, 72, 0
5, 134520, Note_on_c, 1, 67, 0
5, 134520, Note_on_c, 1, 73, 100
5, 134520, Note_on_c, 1, 70, 100
5, 134520, Note_on_c, 1, 67, 100
5, 134520, Note_on_c, 1, 64, 100
5, 134580, Note_on_c, 1, 76, 0
5, 134580, Note_on_c, 1, 76, 100
5, 134640, Note_on_c, 1, 76, 0
5, 134640, Note_on_c, 1, 64, 0
5, 134640, Note_on_c, 1, 73, 0
5, 134640, Note_on_c, 1, 70, 0
5, 134640, Note_on_c, 1, 67, 0
5, 134640, Note_on_c, 1, 71, 100
5, 134640, Note_on_c, 1, 74, 100
5, 134640, Note_on_c, 1, 66, 100
5, 134760, Note_on_c, 1, 66, 0
5, 134760, Note_on_c, 1, 74, 0
5, 134760, Note_on_c, 1, 71, 0
5, 134760, Note_on_c, 1, 64, 100
5, 134760, Note_on_c, 1, 67, 100
5, 134760, Note_on_c, 1, 71, 100
5, 134880, Note_on_c, 1, 71, 0
5, 134880, Note_on_c, 1, 64, 0
5, 134880, Note_on_c, 1, 70, 100
5, 134880, Note_on_c, 1, 64, 100
5, 134940, Note_on_c, 1, 67, 0
5, 134940, Note_on_c, 1, 66, 100
5, 135000, Note_on_c, 1, 66, 0
5, 135000, Note_on_c, 1, 64, 0
5, 135000, Note_on_c, 1, 70, 0
5, 135000, Note_on_c, 1, 71, 100
5, 135000, Note_on_c, 1, 62, 100
5, 135000, Note_on_c, 1, 66, 100
5, 135030, Note_on_c, 1, 71, 0
5, 135030, Note_on_c, 1, 66, 100
5, 135060, Note_on_c, 1, 66, 0
5, 135060, Note_on_c, 1, 66, 0
5, 135060, Note_on_c, 1, 62, 0
5, 135060, Note_on_c, 1, 68, 100
5, 135090, Note_on_c, 1, 68, 0
5, 135090, Note_on_c, 1, 70, 100
5, 135120, Note_on_c, 1, 70, 0
5, 135120, Note_on_c, 1, 71, 100
5, 135150, Note_on_c, 1, 71, 0
5, 135150, Note_on_c, 1, 73, 100
5, 135180, Note_on_c, 1, 73, 0
5, 135180, Note_on_c, 1, 74, 100
5, 135210, Note_on_c, 1, 74, 0
5, 135210, Note_on_c, 1, 78, 100
5, 135240, Note_on_c, 1, 78, 0
5, 135240, Note_on_c, 1, 76, 100
5, 135270, Note_on_c, 1, 76, 0
5, 135270, Note_on_c, 1, 74, 100
5, 135300, Note_on_c, 1, 74, 0
5, 135300, Note_on_c, 1, 73, 100
5, 135330, Note_on_c, 1, 73, 0
5, 135330, Note_on_c, 1, 71, 100
5, 135360, Note_on_c, 1, 83, 100
5, 135360, Note_on_c, 1, 80, 100
5, 135360, Note_on_c, 1, 76, 100
5, 135480, Note_on_c, 1, 76, 0
5, 135480, Note_on_c, 1, 71, 0
5, 135480, Note_on_c, 1, 83, 0
5, 135480, Note_on_c, 1, 80, 0
5, 135480, Note_on_c, 1, 80, 100
5, 135480, Note_on_c, 1, 76, 100
5, 135480, Note_on_c, 1, 71, 100
5, 135600, Note_on_c, 1, 71, 0
5, 135600, Note_on_c, 1, 76, 0
5, 135600, Note_on_c, 1, 80, 0
5, 135600, Note_on_c, 1, 76, 100
5, 135600, Note_on_c, 1, 71, 100
5, 135600, Note_on_c, 1, 68, 100
5, 135720, Note_on_c, 1, 68, 0
5, 135720, Note_on_c, 1, 71, 0
5, 135720, Note_on_c, 1, 76, 0
5, 135720, Note_on_c, 1, 76, 100
5, 135720, Note_on_c, 1, 74, 100
5, 135720, Note_on_c, 1, 71, 100
5, 135720, Note_on_c, 1, 68, 100
5, 135840, Note_on_c, 1, 68, 0
5, 135840, Note_on_c, 1, 76, 0
5, 135840, Note_on_c, 1, 74, 0
5, 135840, Note_on_c, 1, 71, 0
5, 135840, Note_on_c, 1, 81, 100
5, 135840, Note_on_c, 1, 73, 100
5, 135840, Note_on_c, 1, 69, 100
5, 135840, Note_on_c, 1, 64, 100
5, 135960, Note_on_c, 1, 64, 0
5, 135960, Note_on_c, 1, 81, 0
5, 135960, Note_on_c, 1, 73, 0
5, 135960, Note_on_c, 1, 69, 0
5, 136080, Note_on_c, 1, 81, 100
5, 136080, Note_on_c, 1, 74, 100
5, 136080, Note_on_c, 1, 69, 100
5, 136200, Note_on_c, 1, 69, 0
5, 136200, Note_on_c, 1, 74, 0
5, 136200, Note_on_c, 1, 81, 0
5, 136200, Note_on_c, 1, 78, 100
5, 136200, Note_on_c, 1, 74, 100
5, 136200, Note_on_c, 1, 69, 100
5, 136320, Note_on_c, 1, 69, 0
5, 136320, Note_on_c, 1, 74, 0
5, 136320, Note_on_c, 1, 78, 0
5, 136320, Note_on_c, 1, 74, 100
5, 136320, Note_on_c, 1, 72, 100
5, 136320, Note_on_c, 1, 69, 100
5, 136320, Note_on_c, 1, 66, 100
5, 136440, Note_on_c, 1, 66, 0
5, 136440, Note_on_c, 1, 74, 0
5, 136440, Note_on_c, 1, 72, 0
5, 136440, Note_on_c, 1, 69, 0
5, 136440, Note_on_c, 1, 74, 100
5, 136440, Note_on_c, 1, 72, 100
5, 136440, Note_on_c, 1, 69, 100
5, 136560, Note_on_c, 1, 69, 0
5, 136560, Note_on_c, 1, 72, 0
5, 136560, Note_on_c, 1, 74, 0
5, 136560, Note_on_c, 1, 79, 100
5, 136560, Note_on_c, 1, 71, 100
5, 136590, Note_on_c, 1, 71, 0
5, 136590, Note_on_c, 1, 73, 100
5, 136620, Note_on_c, 1, 73, 0
5, 136620, Note_on_c, 1, 74, 100
5, 136650, Note_on_c, 1, 74, 0
5, 136650, Note_on_c, 1, 73, 100
5, 136680, Note_on_c, 1, 73, 0
5, 136680, Note_on_c, 1, 79, 0
5, 136680, Note_on_c, 1, 76, 100
5, 136710, Note_on_c, 1, 76, 0
5, 136710, Note_on_c, 1, 74, 100
5, 136740, Note_on_c, 1, 74, 0
5, 136740, Note_on_c, 1, 78, 100
5, 136770, Note_on_c, 1, 78, 0
5, 136770, Note_on_c, 1, 76, 100
5, 136800, Note_on_c, 1, 76, 0
5, 136800, Note_on_c, 1, 79, 100
5, 136800, Note_on_c, 1, 76, 100
5, 136800, Note_on_c, 1, 69, 100
5, 136920, Note_on_c, 1, 69, 0
5, 136920, Note_on_c, 1, 76, 0
5, 136920, Note_on_c, 1, 79, 0
5, 136920, Note_on_c, 1, 76, 100
5, 136920, Note_on_c, 1, 73, 100
5, 136920, Note_on_c, 1, 67, 100
5, 137040, Note_on_c, 1, 67, 0
5, 137040, Note_on_c, 1, 73, 0
5, 137040, Note_on_c, 1, 76, 0
5, 137040, Note_on_c, 1, 73, 100
5, 137040, Note_on_c, 1, 67, 100
5, 137040, Note_on_c, 1, 64, 100
5, 137160, Note_on_c, 1, 64, 0
5, 137160, Note_on_c, 1, 67, 0
5, 137160, Note_on_c, 1, 73, 0
5, 137160, Note_on_c, 1, 76, 100
5, 137160, Note_on_c, 1, 73, 100
5, 137160, Note_on_c, 1, 67, 100
5, 137160, Note_on_c, 1, 64, 100
5, 137280, Note_on_c, 1, 64, 0
5, 137280, Note_on_c, 1, 76, 0
5, 137280, Note_on_c, 1, 73, 0
5, 137280, Note_on_c, 1, 67, 0
5, 137280, Note_on_c, 1, 73, 100
5, 137280, Note_on_c, 1, 67, 100
5, 137280, Note_on_c, 1, 64, 100
5, 137400, Note_on_c, 1, 64, 0
5, 137400, Note_on_c, 1, 67, 0
5, 137400, Note_on_c, 1, 73, 0
5, 137400, Note_on_c, 1, 69, 100
5, 137400, Note_on_c, 1, 67, 100
5, 137400, Note_on_c, 1, 64, 100
5, 137400, Note_on_c, 1, 61, 100
5, 137520, Note_on_c, 1, 61, 0
5, 137520, Note_on_c, 1, 69, 0
5, 137520, Note_on_c, 1, 67, 0
5, 137520, Note_on_c, 1, 64, 0
5, 137520, Note_on_c, 1, 74, 100
5, 137520, Note_on_c, 1, 69, 100
5, 137520, Note_on_c, 1, 66, 100
5, 137640, Note_on_c, 1, 66, 0
5, 137640, Note_on_c, 1, 69, 0
5, 137640, Note_on_c, 1, 74, 0
5, 137640, Note_on_c, 1, 74, 100
5, 137640, Note_on_c, 1, 71, 100
5, 137640, Note_on_c, 1, 64, 100
5, 137760, Note_on_c, 1, 64, 0
5, 137760, Note_on_c, 1, 71, 0
5, 137760, Note_on_c, 1, 74, 0
5, 137760, Note_on_c, 1, 73, 100
5, 137760, Note_on_c, 1, 69, 100
5, 137760, Note_on_c, 1, 67, 100
5, 137760, Note_on_c, 1, 64, 100
5, 137880, Note_on_c, 1, 64, 0
5, 137880, Note_on_c, 1, 73, 0
5, 137880, Note_on_c, 1, 69, 0
5, 137880, Note_on_c, 1, 67, 0
5, 137880, Note_on_c, 1, 74, 100
5, 137880, Note_on_c, 1, 69, 100
5, 137880, Note_on_c, 1, 66, 100
5, 138240, Note_on_c, 1, 66, 0
5, 138240, Note_on_c, 1, 69, 0
5, 138240, Note_on_c, 1, 74, 0
5, 145920, Note_on_c, 1, 66, 100
5, 146400, Note_on_c, 1, 66, 0
5, 146400, Note_on_c, 1, 69, 100
5, 146880, Note_on_c, 1, 69, 0
5, 146880, Note_on_c, 1, 68, 100
5, 147120, Note_on_c, 1, 68, 0
5, 147120, Note_on_c, 1, 74, 100
5, 147360, Note_on_c, 1, 74, 0
5, 147360, Note_on_c, 1, 73, 100
5, 147600, Note_on_c, 1, 73, 0
5, 147600, Note_on_c, 1, 66, 100
5, 147840, Note_on_c, 1, 66, 0
5, 147840, Note_on_c, 1, 65, 100
5, 148080, Note_on_c, 1, 65, 0
5, 148080, Note_on_c, 1, 71, 100
5, 148320, Note_on_c, 1, 71, 0
5, 148320, Note_on_c, 1, 69, 100
5, 148560, Note_on_c, 1, 69, 0
5, 148560, Note_on_c, 1, 66, 100
5, 148800, Note_on_c, 1, 66, 0
5, 148800, Note_on_c, 1, 68, 100
5, 149040, Note_on_c, 1, 68, 0
5, 149040, Note_on_c, 1, 61, 100
5, 149280, Note_on_c, 1, 61, 0
5, 149520, Note_on_c, 1, 61, 100
5, 149760, Note_on_c, 1, 61, 0
5, 149760, Note_on_c, 1, 62, 100
5, 150000, Note_on_c, 1, 62, 0
5, 150000, Note_on_c, 1, 70, 100
5, 150240, Note_on_c, 1, 70, 0
5, 150240, Note_on_c, 1, 71, 100
5, 150480, Note_on_c, 1, 71, 0
5, 150480, Note_on_c, 1, 63, 100
5, 150720, Note_on_c, 1, 63, 0
5, 150720, Note_on_c, 1, 64, 100
5, 150960, Note_on_c, 1, 64, 0
5, 150960, Note_on_c, 1, 72, 100
5, 151200, Note_on_c, 1, 72, 0
5, 151200, Note_on_c, 1, 73, 100
5, 151440, Note_on_c, 1, 73, 0
5, 151440, Note_on_c, 1, 65, 100
5, 151680, Note_on_c, 1, 65, 0
5, 151680, Note_on_c, 1, 66, 100
5, 151920, Note_on_c, 1, 66, 0
5, 151920, Note_on_c, 1, 71, 100
5, 152160, Note_on_c, 1, 71, 0
5, 152160, Note_on_c, 1, 69, 100
5, 152400, Note_on_c, 1, 69, 0
5, 152400, Note_on_c, 1, 68, 100
5, 152640, Note_on_c, 1, 68, 0
5, 152640, Note_on_c, 1, 69, 100
5, 152760, Note_on_c, 1, 69, 0
5, 152760, Note_on_c, 1, 68, 100
5, 152880, Note_on_c, 1, 68, 0
5, 152880, Note_on_c, 1, 66, 100
5, 153000, Note_on_c, 1, 66, 0
5, 153000, Note_on_c, 1, 68, 100
5, 153120, Note_on_c, 1, 68, 0
5, 153120, Note_on_c, 1, 69, 100
5, 153240, Note_on_c, 1, 69, 0
5, 153240, Note_on_c, 1, 71, 100
5, 153360, Note_on_c, 1, 71, 0
5, 153360, Note_on_c, 1, 73, 100
5, 153480, Note_on_c, 1, 73, 0
5, 153480, Note_on_c, 1, 74, 100
5, 153600, Note_on_c, 1, 74, 0
5, 153600, Note_on_c, 1, 76, 100
5, 153720, Note_on_c, 1, 76, 0
5, 153720, Note_on_c, 1, 78, 100
5, 153840, Note_on_c, 1, 78, 0
5, 153840, Note_on_c, 1, 76, 100
5, 153960, Note_on_c, 1, 76, 0
5, 153960, Note_on_c, 1, 74, 100
5, 154080, Note_on_c, 1, 74, 0
5, 154080, Note_on_c, 1, 73, 100
5, 154200, Note_on_c, 1, 73, 0
5, 154200, Note_on_c, 1, 71, 100
5, 154320, Note_on_c, 1, 71, 0
5, 154320, Note_on_c, 1, 69, 100
5, 154440, Note_on_c, 1, 69, 0
5, 154440, Note_on_c, 1, 67, 100
5, 154560, Note_on_c, 1, 67, 0
5, 154560, Note_on_c, 1, 66, 100
5, 154680, Note_on_c, 1, 66, 0
5, 154680, Note_on_c, 1, 64, 100
5, 154800, Note_on_c, 1, 64, 0
5, 154800, Note_on_c, 1, 62, 100
5, 154920, Note_on_c, 1, 62, 0
5, 154920, Note_on_c, 1, 61, 100
5, 155040, Note_on_c, 1, 61, 0
5, 155040, Note_on_c, 1, 59, 100
5, 155160, Note_on_c, 1, 59, 0
5, 155160, Note_on_c, 1, 58, 100
5, 155280, Note_on_c, 1, 58, 0
5, 155280, Note_on_c, 1, 59, 100
5, 155400, Note_on_c, 1, 59, 0
5, 155400, Note_on_c, 1, 61, 100
5, 155520, Note_on_c, 1, 61, 0
5, 155520, Note_on_c, 1, 62, 100
5, 155640, Note_on_c, 1, 62, 0
5, 155640, Note_on_c, 1, 67, 100
5, 155760, Note_on_c, 1, 67, 0
5, 155760, Note_on_c, 1, 66, 100
5, 155880, Note_on_c, 1, 66, 0
5, 155880, Note_on_c, 1, 64, 100
5, 156000, Note_on_c, 1, 64, 0
5, 156000, Note_on_c, 1, 62, 100
5, 156120, Note_on_c, 1, 62, 0
5, 156120, Note_on_c, 1, 61, 100
5, 156240, Note_on_c, 1, 61, 0
5, 156240, Note_on_c, 1, 59, 100
5, 156360, Note_on_c, 1, 59, 0
5, 156360, Note_on_c, 1, 58, 100
5, 156480, Note_on_c, 1, 58, 0
5, 156480, Note_on_c, 1, 59, 100
5, 156600, Note_on_c, 1, 59, 0
5, 156600, Note_on_c, 1, 61, 100
5, 156720, Note_on_c, 1, 61, 0
5, 156720, Note_on_c, 1, 62, 100
5, 156840, Note_on_c, 1, 62, 0
5, 156840, Note_on_c, 1, 64, 100
5, 156960, Note_on_c, 1, 64, 0
5, 156960, Note_on_c, 1, 66, 100
5, 157080, Note_on_c, 1, 66, 0
5, 157080, Note_on_c, 1, 67, 100
5, 157200, Note_on_c, 1, 67, 0
5, 157200, Note_on_c, 1, 66, 100
5, 157320, Note_on_c, 1, 66, 0
5, 157320, Note_on_c, 1, 67, 100
5, 157440, Note_on_c, 1, 67, 0
5, 157440, Note_on_c, 1, 64, 100
5, 157560, Note_on_c, 1, 64, 0
5, 157560, Note_on_c, 1, 66, 100
5, 157680, Note_on_c, 1, 66, 0
5, 157680, Note_on_c, 1, 64, 100
5, 157800, Note_on_c, 1, 64, 0
5, 157800, Note_on_c, 1, 66, 100
5, 157920, Note_on_c, 1, 66, 0
5, 157920, Note_on_c, 1, 62, 100
5, 158040, Note_on_c, 1, 62, 0
5, 158040, Note_on_c, 1, 64, 100
5, 158160, Note_on_c, 1, 64, 0
5, 158160, Note_on_c, 1, 62, 100
5, 158280, Note_on_c, 1, 62, 0
5, 158280, Note_on_c, 1, 64, 100
5, 158400, Note_on_c, 1, 64, 0
5, 158400, Note_on_c, 1, 61, 100
5, 158520, Note_on_c, 1, 61, 0
5, 158520, Note_on_c, 1, 62, 100
5, 158640, Note_on_c, 1, 62, 0
5, 158640, Note_on_c, 1, 61, 100
5, 158760, Note_on_c, 1, 61, 0
5, 158760, Note_on_c, 1, 62, 100
5, 158880, Note_on_c, 1, 62, 0
5, 158880, Note_on_c, 1, 59, 100
5, 159000, Note_on_c, 1, 59, 0
5, 159000, Note_on_c, 1, 61, 100
5, 159120, Note_on_c, 1, 61, 0
5, 159120, Note_on_c, 1, 59, 100
5, 159240, Note_on_c, 1, 59, 0
5, 159240, Note_on_c, 1, 61, 100
5, 159360, Note_on_c, 1, 61, 0
5, 159360, Note_on_c, 1, 58, 100
5, 159480, Note_on_c, 1, 58, 0
5, 159480, Note_on_c, 1, 71, 100
5, 159600, Note_on_c, 1, 71, 0
5, 159600, Note_on_c, 1, 70, 100
5, 159720, Note_on_c, 1, 70, 0
5, 159720, Note_on_c, 1, 68, 100
5, 159840, Note_on_c, 1, 68, 0
5, 159840, Note_on_c, 1, 66, 100
5, 159960, Note_on_c, 1, 66, 0
5, 159960, Note_on_c, 1, 64, 100
5, 160080, Note_on_c, 1, 64, 0
5, 160080, Note_on_c, 1, 62, 100
5, 160200, Note_on_c, 1, 62, 0
5, 160200, Note_on_c, 1, 61, 100
5, 160320, Note_on_c, 1, 61, 0
5, 160320, Note_on_c, 1, 59, 100
5, 160440, Note_on_c, 1, 59, 0
5, 160440, Note_on_c, 1, 72, 100
5, 160560, Note_on_c, 1, 72, 0
5, 160560, Note_on_c, 1, 71, 100
5, 160680, Note_on_c, 1, 71, 0
5, 160680, Note_on_c, 1, 69, 100
5, 160800, Note_on_c, 1, 69, 0
5, 160800, Note_on_c, 1, 67, 100
5, 160920, Note_on_c, 1, 67, 0
5, 160920, Note_on_c, 1, 66, 100
5, 161040, Note_on_c, 1, 66, 0
5, 161040, Note_on_c, 1, 64, 100
5, 161160, Note_on_c, 1, 64, 0
5, 161160, Note_on_c, 1, 62, 100
5, 161280, Note_on_c, 1, 62, 0
5, 161280, Note_on_c, 1, 61, 100
5, 161400, Note_on_c, 1, 61, 0
5, 161400, Note_on_c, 1, 74, 100
5, 161520, Note_on_c, 1, 74, 0
5, 161520, Note_on_c, 1, 73, 100
5, 161640, Note_on_c, 1, 73, 0
5, 161640, Note_on_c, 1, 71, 100
5, 161760, Note_on_c, 1, 71, 0
5, 161760, Note_on_c, 1, 69, 100
5, 161880, Note_on_c, 1, 69, 0
5, 161880, Note_on_c, 1, 67, 100
5, 162000, Note_on_c, 1, 67, 0
5, 162000, Note_on_c, 1, 66, 100
5, 162120, Note_on_c, 1, 66, 0
5, 162120, Note_on_c, 1, 64, 100
5, 162240, Note_on_c, 1, 64, 0
5, 162240, Note_on_c, 1, 62, 100
5, 162480, Note_on_c, 1, 62, 0
5, 162480, Note_on_c, 1, 67, 100
5, 162720, Note_on_c, 1, 67, 0
5, 162720, Note_on_c, 1, 66, 100
5, 162960, Note_on_c, 1, 66, 0
5, 162960, Note_on_c, 1, 70, 100
5, 163200, Note_on_c, 1, 70, 0
5, 163200, Note_on_c, 1, 71, 100
5, 163440, Note_on_c, 1, 71, 0
5, 163440, Note_on_c, 1, 74, 100
5, 163680, Note_on_c, 1, 74, 0
5, 163680, Note_on_c, 1, 67, 100
5, 164400, Note_on_c, 1, 67, 0
5, 164400, Note_on_c, 1, 76, 100
5, 164640, Note_on_c, 1, 76, 0
5, 164640, Note_on_c, 1, 69, 100
5, 165240, Note_on_c, 1, 69, 0
5, 165240, Note_on_c, 1, 67, 100
5, 165360, Note_on_c, 1, 67, 0
5, 165360, Note_on_c, 1, 66, 100
5, 165480, Note_on_c, 1, 66, 0
5, 165480, Note_on_c, 1, 67, 100
5, 165600, Note_on_c, 1, 67, 0
5, 165600, Note_on_c, 1, 69, 100
5, 165720, Note_on_c, 1, 69, 0
5, 165720, Note_on_c, 1, 71, 100
5, 165840, Note_on_c, 1, 71, 0
5, 165840, Note_on_c, 1, 72, 100
5, 165960, Note_on_c, 1, 72, 0
5, 165960, Note_on_c, 1, 69, 100
5, 166080, Note_on_c, 1, 69, 0
5, 166080, Note_on_c, 1, 71, 100
5, 166200, Note_on_c, 1, 71, 0
5, 166200, Note_on_c, 1, 69, 100
5, 166320, Note_on_c, 1, 69, 0
5, 166320, Note_on_c, 1, 67, 100
5, 166440, Note_on_c, 1, 67, 0
5, 166440, Note_on_c, 1, 69, 100
5, 166560, Note_on_c, 1, 69, 0
5, 166560, Note_on_c, 1, 71, 100
5, 166680, Note_on_c, 1, 71, 0
5, 166680, Note_on_c, 1, 73, 100
5, 166800, Note_on_c, 1, 73, 0
5, 166800, Note_on_c, 1, 74, 100
5, 166920, Note_on_c, 1, 74, 0
5, 166920, Note_on_c, 1, 71, 100
5, 167040, Note_on_c, 1, 71, 0
5, 167040, Note_on_c, 1, 73, 100
5, 167520, Note_on_c, 1, 73, 0
5, 167760, Note_on_c, 1, 69, 100
5, 168000, Note_on_c, 1, 69, 0
5, 168000, Note_on_c, 1, 74, 100
5, 168720, Note_on_c, 1, 74, 0
5, 168720, Note_on_c, 1, 71, 100
5, 168960, Note_on_c, 1, 71, 0
5, 168960, Note_on_c, 1, 77, 100
5, 169200, Note_on_c, 1, 77, 0
5, 169200, Note_on_c, 1, 80, 100
5, 169440, Note_on_c, 1, 80, 0
5, 169440, Note_on_c, 1, 73, 100
5, 170040, Note_on_c, 1, 73, 0
5, 170040, Note_on_c, 1, 71, 100
5, 170160, Note_on_c, 1, 71, 0
5, 170160, Note_on_c, 1, 69, 100
5, 170280, Note_on_c, 1, 69, 0
5, 170280, Note_on_c, 1, 71, 100
5, 170400, Note_on_c, 1, 71, 0
5, 170400, Note_on_c, 1, 73, 100
5, 170520, Note_on_c, 1, 73, 0
5, 170520, Note_on_c, 1, 74, 100
5, 170640, Note_on_c, 1, 74, 0
5, 170640, Note_on_c, 1, 73, 100
5, 170760, Note_on_c, 1, 73, 0
5, 170760, Note_on_c, 1, 74, 100
5, 170880, Note_on_c, 1, 74, 0
5, 170880, Note_on_c, 1, 71, 100
5, 171000, Note_on_c, 1, 71, 0
5, 171000, Note_on_c, 1, 73, 100
5, 171120, Note_on_c, 1, 73, 0
5, 171120, Note_on_c, 1, 71, 100
5, 171240, Note_on_c, 1, 71, 0
5, 171240, Note_on_c, 1, 73, 100
5, 171360, Note_on_c, 1, 73, 0
5, 171360, Note_on_c, 1, 69, 100
5, 171480, Note_on_c, 1, 69, 0
5, 171480, Note_on_c, 1, 71, 100
5, 171600, Note_on_c, 1, 71, 0
5, 171600, Note_on_c, 1, 69, 100
5, 171720, Note_on_c, 1, 69, 0
5, 171720, Note_on_c, 1, 71, 100
5, 171840, Note_on_c, 1, 71, 0
5, 171840, Note_on_c, 1, 68, 100
5, 171960, Note_on_c, 1, 68, 0
5, 171960, Note_on_c, 1, 69, 100
5, 172080, Note_on_c, 1, 69, 0
5, 172080, Note_on_c, 1, 68, 100
5, 172200, Note_on_c, 1, 68, 0
5, 172200, Note_on_c, 1, 69, 100
5, 172320, Note_on_c, 1, 69, 0
5, 172320, Note_on_c, 1, 66, 100
5, 172440, Note_on_c, 1, 66, 0
5, 172440, Note_on_c, 1, 68, 100
5, 172560, Note_on_c, 1, 68, 0
5, 172560, Note_on_c, 1, 66, 100
5, 172680, Note_on_c, 1, 66, 0
5, 172680, Note_on_c, 1, 68, 100
5, 172800, Note_on_c, 1, 68, 0
5, 172800, Note_on_c, 1, 65, 100
5, 172920, Note_on_c, 1, 65, 0
5, 172920, Note_on_c, 1, 66, 100
5, 173040, Note_on_c, 1, 66, 0
5, 173040, Note_on_c, 1, 65, 100
5, 173160, Note_on_c, 1, 65, 0
5, 173160, Note_on_c, 1, 63, 100
5, 173280, Note_on_c, 1, 63, 0
5, 173280, Note_on_c, 1, 61, 100
5, 173400, Note_on_c, 1, 61, 0
5, 173400, Note_on_c, 1, 59, 100
5, 173520, Note_on_c, 1, 59, 0
5, 173520, Note_on_c, 1, 57, 100
5, 173640, Note_on_c, 1, 57, 0
5, 173640, Note_on_c, 1, 56, 100
5, 173760, Note_on_c, 1, 56, 0
5, 173760, Note_on_c, 1, 54, 100
5, 173880, Note_on_c, 1, 54, 0
5, 173880, Note_on_c, 1, 67, 100
5, 174000, Note_on_c, 1, 67, 0
5, 174000, Note_on_c, 1, 66, 100
5, 174120, Note_on_c, 1, 66, 0
5, 174120, Note_on_c, 1, 64, 100
5, 174240, Note_on_c, 1, 64, 0
5, 174240, Note_on_c, 1, 62, 100
5, 174360, Note_on_c, 1, 62, 0
5, 174360, Note_on_c, 1, 61, 100
5, 174480, Note_on_c, 1, 61, 0
5, 174480, Note_on_c, 1, 59, 100
5, 174600, Note_on_c, 1, 59, 0
5, 174600, Note_on_c, 1, 57, 100
5, 174720, Note_on_c, 1, 57, 0
5, 174720, Note_on_c, 1, 56, 100
5, 174840, Note_on_c, 1, 56, 0
5, 174840, Note_on_c, 1, 69, 100
5, 174960, Note_on_c, 1, 69, 0
5, 174960, Note_on_c, 1, 68, 100
5, 175080, Note_on_c, 1, 68, 0
5, 175080, Note_on_c, 1, 66, 100
5, 175200, Note_on_c, 1, 66, 0
5, 175200, Note_on_c, 1, 65, 100
5, 175320, Note_on_c, 1, 65, 0
5, 175320, Note_on_c, 1, 63, 100
5, 175440, Note_on_c, 1, 63, 0
5, 175440, Note_on_c, 1, 61, 100
5, 175560, Note_on_c, 1, 61, 0
5, 175560, Note_on_c, 1, 59, 100
5, 175680, Note_on_c, 1, 59, 0
5, 175680, Note_on_c, 1, 57, 100
5, 175920, Note_on_c, 1, 57, 0
5, 175920, Note_on_c, 1, 62, 100
5, 176160, Note_on_c, 1, 62, 0
5, 176160, Note_on_c, 1, 61, 100
5, 176400, Note_on_c, 1, 61, 0
5, 176400, Note_on_c, 1, 65, 100
5, 176640, Note_on_c, 1, 65, 0
5, 176640, Note_on_c, 1, 66, 100
5, 176760, Note_on_c, 1, 66, 0
5, 176760, Note_on_c, 1, 68, 100
5, 176880, Note_on_c, 1, 68, 0
5, 176880, Note_on_c, 1, 69, 100
5, 177360, Note_on_c, 1, 69, 0
5, 177360, Note_on_c, 1, 69, 100
5, 177840, Note_on_c, 1, 69, 0
5, 177840, Note_on_c, 1, 67, 100
5, 177960, Note_on_c, 1, 67, 0
5, 177960, Note_on_c, 1, 66, 100
5, 178080, Note_on_c, 1, 66, 0
5, 178080, Note_on_c, 1, 67, 100
5, 178560, Note_on_c, 1, 67, 0
5, 178800, Note_on_c, 1, 66, 100
5, 179280, Note_on_c, 1, 66, 0
5, 179280, Note_on_c, 1, 66, 100
5, 179760, Note_on_c, 1, 66, 0
5, 179760, Note_on_c, 1, 64, 100
5, 179880, Note_on_c, 1, 64, 0
5, 179880, Note_on_c, 1, 62, 100
5, 180000, Note_on_c, 1, 62, 0
5, 180000, Note_on_c, 1, 64, 100
5, 180480, Note_on_c, 1, 64, 0
5, 180720, Note_on_c, 1, 62, 100
5, 181200, Note_on_c, 1, 62, 0
5, 181200, Note_on_c, 1, 62, 100
5, 181680, Note_on_c, 1, 62, 0
5, 181680, Note_on_c, 1, 60, 100
5, 181800, Note_on_c, 1, 60, 0
5, 181800, Note_on_c, 1, 59, 100
5, 181920, Note_on_c, 1, 59, 0
5, 181920, Note_on_c, 1, 60, 100
5, 182400, Note_on_c, 1, 60, 0
5, 182640, Note_on_c, 1, 67, 100
5, 182760, Note_on_c, 1, 67, 0
5, 182760, Note_on_c, 1, 69, 100
5, 182880, Note_on_c, 1, 69, 0
5, 182880, Note_on_c, 1, 71, 100
5, 183000, Note_on_c, 1, 71, 0
5, 183000, Note_on_c, 1, 73, 100
5, 183120, Note_on_c, 1, 73, 0
5, 183120, Note_on_c, 1, 74, 100
5, 183240, Note_on_c, 1, 74, 0
5, 183240, Note_on_c, 1, 71, 100
5, 183360, Note_on_c, 1, 71, 0
5, 183360, Note_on_c, 1, 73, 100
5, 183480, Note_on_c, 1, 73, 0
5, 183480, Note_on_c, 1, 71, 100
5, 183600, Note_on_c, 1, 71, 0
5, 183600, Note_on_c, 1, 69, 100
5, 183720, Note_on_c, 1, 69, 0
5, 183720, Note_on_c, 1, 71, 100
5, 183840, Note_on_c, 1, 71, 0
5, 183840, Note_on_c, 1, 73, 100
5, 183960, Note_on_c, 1, 73, 0
5, 183960, Note_on_c, 1, 75, 100
5, 184080, Note_on_c, 1, 75, 0
5, 184080, Note_on_c, 1, 76, 100
5, 184200, Note_on_c, 1, 76, 0
5, 184200, Note_on_c, 1, 73, 100
5, 184320, Note_on_c, 1, 73, 0
5, 184320, Note_on_c, 1, 75, 100
5, 184440, Note_on_c, 1, 75, 0
5, 184440, Note_on_c, 1, 73, 100
5, 184560, Note_on_c, 1, 73, 0
5, 184560, Note_on_c, 1, 71, 100
5, 184680, Note_on_c, 1, 71, 0
5, 184680, Note_on_c, 1, 73, 100
5, 184800, Note_on_c, 1, 73, 0
5, 184800, Note_on_c, 1, 75, 100
5, 184920, Note_on_c, 1, 75, 0
5, 184920, Note_on_c, 1, 76, 100
5, 185040, Note_on_c, 1, 76, 0
5, 185040, Note_on_c, 1, 78, 100
5, 185160, Note_on_c, 1, 78, 0
5, 185160, Note_on_c, 1, 75, 100
5, 185280, Note_on_c, 1, 75, 0
5, 185280, Note_on_c, 1, 76, 100
5, 185400, Note_on_c, 1, 76, 0
5, 185400, Note_on_c, 1, 75, 100
5, 185520, Note_on_c, 1, 75, 0
5, 185520, Note_on_c, 1, 76, 100
5, 185640, Note_on_c, 1, 76, 0
5, 185640, Note_on_c, 1, 79, 100
5, 185760, Note_on_c, 1, 79, 0
5, 185760, Note_on_c, 1, 78, 100
5, 185880, Note_on_c, 1, 78, 0
5, 185880, Note_on_c, 1, 76, 100
5, 186000, Note_on_c, 1, 76, 0
5, 186000, Note_on_c, 1, 75, 100
5, 186120, Note_on_c, 1, 75, 0
5, 186120, Note_on_c, 1, 76, 100
5, 186240, Note_on_c, 1, 76, 0
5, 186240, Note_on_c, 1, 78, 100
5, 186480, Note_on_c, 1, 78, 0
5, 186480, Note_on_c, 1, 71, 100
5, 186600, Note_on_c, 1, 71, 0
5, 186600, Note_on_c, 1, 73, 100
5, 186720, Note_on_c, 1, 73, 0
5, 186720, Note_on_c, 1, 75, 100
5, 186840, Note_on_c, 1, 75, 0
5, 186840, Note_on_c, 1, 76, 100
5, 186960, Note_on_c, 1, 76, 0
5, 186960, Note_on_c, 1, 78, 100
5, 187320, Note_on_c, 1, 78, 0
5, 187320, Note_on_c, 1, 75, 100
5, 187440, Note_on_c, 1, 75, 0
5, 187440, Note_on_c, 1, 76, 100
5, 187680, Note_on_c, 1, 76, 0
5, 187920, Note_on_c, 1, 76, 100
5, 188280, Note_on_c, 1, 76, 0
5, 188280, Note_on_c, 1, 73, 100
5, 188400, Note_on_c, 1, 73, 0
5, 188400, Note_on_c, 1, 75, 100
5, 188640, Note_on_c, 1, 75, 0
5, 188880, Note_on_c, 1, 72, 100
5, 189360, Note_on_c, 1, 72, 0
5, 189360, Note_on_c, 1, 63, 100
5, 189600, Note_on_c, 1, 63, 0
5, 189600, Note_on_c, 1, 64, 100
5, 189840, Note_on_c, 1, 64, 0
5, 189840, Note_on_c, 1, 67, 100
5, 190080, Note_on_c, 1, 67, 0
5, 190080, Note_on_c, 1, 69, 100
5, 190320, Note_on_c, 1, 69, 0
5, 190320, Note_on_c, 1, 66, 100
5, 190560, Note_on_c, 1, 66, 0
5, 190560, Note_on_c, 1, 63, 100
5, 191040, Note_on_c, 1, 63, 0
5, 191040, Note_on_c, 1, 64, 100
5, 191160, Note_on_c, 1, 64, 0
5, 191160, Note_on_c, 1, 77, 100
5, 191280, Note_on_c, 1, 77, 0
5, 191280, Note_on_c, 1, 76, 100
5, 191400, Note_on_c, 1, 76, 0
5, 191400, Note_on_c, 1, 74, 100
5, 191520, Note_on_c, 1, 74, 0
5, 191520, Note_on_c, 1, 72, 100
5, 191640, Note_on_c, 1, 72, 0
5, 191640, Note_on_c, 1, 71, 100
5, 191760, Note_on_c, 1, 71, 0
5, 191760, Note_on_c, 1, 69, 100
5, 191880, Note_on_c, 1, 69, 0
5, 191880, Note_on_c, 1, 67, 100
5, 192000, Note_on_c, 1, 67, 0
5, 192000, Note_on_c, 1, 66, 100
5, 193080, Note_on_c, 1, 66, 0
5, 193080, Note_on_c, 1, 64, 100
5, 193200, Note_on_c, 1, 64, 0
5, 193200, Note_on_c, 1, 63, 100
5, 193320, Note_on_c, 1, 63, 0
5, 193320, Note_on_c, 1, 64, 100
5, 193440, Note_on_c, 1, 64, 0
5, 193440, Note_on_c, 1, 66, 100
5, 193560, Note_on_c, 1, 66, 0
5, 193560, Note_on_c, 1, 67, 100
5, 193680, Note_on_c, 1, 67, 0
5, 193680, Note_on_c, 1, 69, 100
5, 193800, Note_on_c, 1, 69, 0
5, 193800, Note_on_c, 1, 66, 100
5, 193920, Note_on_c, 1, 66, 0
5, 193920, Note_on_c, 1, 67, 100
5, 194040, Note_on_c, 1, 67, 0
5, 194040, Note_on_c, 1, 66, 100
5, 194160, Note_on_c, 1, 66, 0
5, 194160, Note_on_c, 1, 64, 100
5, 194280, Note_on_c, 1, 64, 0
5, 194280, Note_on_c, 1, 66, 100
5, 194400, Note_on_c, 1, 66, 0
5, 194400, Note_on_c, 1, 67, 100
5, 194520, Note_on_c, 1, 67, 0
5, 194520, Note_on_c, 1, 69, 100
5, 194640, Note_on_c, 1, 69, 0
5, 194640, Note_on_c, 1, 71, 100
5, 194760, Note_on_c, 1, 71, 0
5, 194760, Note_on_c, 1, 67, 100
5, 194880, Note_on_c, 1, 67, 0
5, 194880, Note_on_c, 1, 69, 100
5, 195000, Note_on_c, 1, 69, 0
5, 195000, Note_on_c, 1, 67, 100
5, 195120, Note_on_c, 1, 67, 0
5, 195120, Note_on_c, 1, 66, 100
5, 195240, Note_on_c, 1, 66, 0
5, 195240, Note_on_c, 1, 67, 100
5, 195360, Note_on_c, 1, 67, 0
5, 195360, Note_on_c, 1, 69, 100
5, 195480, Note_on_c, 1, 69, 0
5, 195480, Note_on_c, 1, 71, 100
5, 195600, Note_on_c, 1, 71, 0
5, 195600, Note_on_c, 1, 72, 100
5, 195720, Note_on_c, 1, 72, 0
5, 195720, Note_on_c, 1, 69, 100
5, 195840, Note_on_c, 1, 69, 0
5, 195840, Note_on_c, 1, 71, 100
5, 196080, Note_on_c, 1, 71, 0
5, 196080, Note_on_c, 1, 74, 100
5, 196320, Note_on_c, 1, 74, 0
5, 196320, Note_on_c, 1, 67, 100
5, 197040, Note_on_c, 1, 67, 0
5, 197040, Note_on_c, 1, 76, 100
5, 197280, Note_on_c, 1, 76, 0
5, 197280, Note_on_c, 1, 69, 100
5, 198000, Note_on_c, 1, 69, 0
5, 198000, Note_on_c, 1, 74, 100
5, 198120, Note_on_c, 1, 74, 0
5, 198120, Note_on_c, 1, 76, 100
5, 198240, Note_on_c, 1, 76, 0
5, 198240, Note_on_c, 1, 78, 100
5, 198960, Note_on_c, 1, 78, 0
5, 198960, Note_on_c, 1, 76, 100
5, 199080, Note_on_c, 1, 76, 0
5, 199080, Note_on_c, 1, 78, 100
5, 199200, Note_on_c, 1, 78, 0
5, 199200, Note_on_c, 1, 79, 100
5, 199920, Note_on_c, 1, 79, 0
5, 199920, Note_on_c, 1, 78, 100
5, 200040, Note_on_c, 1, 78, 0
5, 200040, Note_on_c, 1, 76, 100
5, 200160, Note_on_c, 1, 76, 0
5, 200160, Note_on_c, 1, 74, 100
5, 200280, Note_on_c, 1, 74, 0
5, 200280, Note_on_c, 1, 73, 100
5, 200400, Note_on_c, 1, 73, 0
5, 200400, Note_on_c, 1, 71, 100
5, 200520, Note_on_c, 1, 71, 0
5, 200520, Note_on_c, 1, 70, 100
5, 200640, Note_on_c, 1, 70, 0
5, 200640, Note_on_c, 1, 71, 100
5, 201120, Note_on_c, 1, 71, 0
5, 201120, Note_on_c, 1, 74, 100
5, 201600, Note_on_c, 1, 74, 0
5, 201600, Note_on_c, 1, 73, 100
5, 201840, Note_on_c, 1, 73, 0
5, 201840, Note_on_c, 1, 79, 100
5, 202080, Note_on_c, 1, 79, 0
5, 202080, Note_on_c, 1, 78, 100
5, 202320, Note_on_c, 1, 78, 0
5, 202320, Note_on_c, 1, 71, 100
5, 202560, Note_on_c, 1, 71, 0
5, 202560, Note_on_c, 1, 70, 100
5, 202800, Note_on_c, 1, 70, 0
5, 202800, Note_on_c, 1, 76, 100
5, 203040, Note_on_c, 1, 76, 0
5, 203040, Note_on_c, 1, 74, 100
5, 203280, Note_on_c, 1, 74, 0
5, 203280, Note_on_c, 1, 71, 100
5, 203520, Note_on_c, 1, 71, 0
5, 203520, Note_on_c, 1, 73, 100
5, 203760, Note_on_c, 1, 73, 0
5, 203760, Note_on_c, 1, 66, 100
5, 204000, Note_on_c, 1, 66, 0
5, 204240, Note_on_c, 1, 66, 100
5, 204480, Note_on_c, 1, 66, 0
5, 204480, Note_on_c, 1, 67, 100
5, 204720, Note_on_c, 1, 67, 0
5, 204720, Note_on_c, 1, 75, 100
5, 204960, Note_on_c, 1, 75, 0
5, 204960, Note_on_c, 1, 76, 100
5, 205200, Note_on_c, 1, 76, 0
5, 205200, Note_on_c, 1, 68, 100
5, 205440, Note_on_c, 1, 68, 0
5, 205440, Note_on_c, 1, 69, 100
5, 205680, Note_on_c, 1, 69, 0
5, 205680, Note_on_c, 1, 77, 100
5, 205920, Note_on_c, 1, 77, 0
5, 205920, Note_on_c, 1, 78, 100
5, 206160, Note_on_c, 1, 78, 0
5, 206160, Note_on_c, 1, 70, 100
5, 206400, Note_on_c, 1, 70, 0
5, 206400, Note_on_c, 1, 71, 100
5, 206640, Note_on_c, 1, 71, 0
5, 206640, Note_on_c, 1, 76, 100
5, 206880, Note_on_c, 1, 76, 0
5, 206880, Note_on_c, 1, 74, 100
5, 207120, Note_on_c, 1, 74, 0
5, 207120, Note_on_c, 1, 73, 100
5, 207360, Note_on_c, 1, 73, 0
5, 207360, Note_on_c, 1, 74, 100
5, 207480, Note_on_c, 1, 74, 0
5, 207480, Note_on_c, 1, 73, 100
5, 207600, Note_on_c, 1, 73, 0
5, 207600, Note_on_c, 1, 71, 100
5, 207720, Note_on_c, 1, 71, 0
5, 207720, Note_on_c, 1, 73, 100
5, 207840, Note_on_c, 1, 73, 0
5, 207840, Note_on_c, 1, 74, 100
5, 207960, Note_on_c, 1, 74, 0
5, 207960, Note_on_c, 1, 76, 100
5, 208080, Note_on_c, 1, 76, 0
5, 208080, Note_on_c, 1, 78, 100
5, 208200, Note_on_c, 1, 78, 0
5, 208200, Note_on_c, 1, 79, 100
5, 208320, Note_on_c, 1, 79, 0
5, 208320, Note_on_c, 1, 81, 100
5, 208440, Note_on_c, 1, 81, 0
5, 208440, Note_on_c, 1, 83, 100
5, 208560, Note_on_c, 1, 83, 0
5, 208560, Note_on_c, 1, 81, 100
5, 208680, Note_on_c, 1, 81, 0
5, 208680, Note_on_c, 1, 79, 100
5, 208800, Note_on_c, 1, 79, 0
5, 208800, Note_on_c, 1, 78, 100
5, 208920, Note_on_c, 1, 78, 0
5, 208920, Note_on_c, 1, 76, 100
5, 209040, Note_on_c, 1, 76, 0
5, 209040, Note_on_c, 1, 74, 100
5, 209160, Note_on_c, 1, 74, 0
5, 209160, Note_on_c, 1, 72, 100
5, 209280, Note_on_c, 1, 72, 0
5, 209280, Note_on_c, 1, 71, 100
5, 209400, Note_on_c, 1, 71, 0
5, 209400, Note_on_c, 1, 69, 100
5, 209520, Note_on_c, 1, 69, 0
5, 209520, Note_on_c, 1, 67, 100
5, 209640, Note_on_c, 1, 67, 0
5, 209640, Note_on_c, 1, 69, 100
5, 209760, Note_on_c, 1, 69, 0
5, 209760, Note_on_c, 1, 71, 100
5, 209880, Note_on_c, 1, 71, 0
5, 209880, Note_on_c, 1, 73, 100
5, 210000, Note_on_c, 1, 73, 0
5, 210000, Note_on_c, 1, 75, 100
5, 210120, Note_on_c, 1, 75, 0
5, 210120, Note_on_c, 1, 76, 100
5, 210240, Note_on_c, 1, 76, 0
5, 210240, Note_on_c, 1, 78, 100
5, 210360, Note_on_c, 1, 78, 0
5, 210360, Note_on_c, 1, 79, 100
5, 210480, Note_on_c, 1, 79, 0
5, 210480, Note_on_c, 1, 78, 100
5, 210600, Note_on_c, 1, 78, 0
5, 210600, Note_on_c, 1, 76, 100
5, 210720, Note_on_c, 1, 76, 0
5, 210720, Note_on_c, 1, 75, 100
5, 210840, Note_on_c, 1, 75, 0
5, 210840, Note_on_c, 1, 73, 100
5, 210960, Note_on_c, 1, 73, 0
5, 210960, Note_on_c, 1, 71, 100
5, 211080, Note_on_c, 1, 71, 0
5, 211080, Note_on_c, 1, 69, 100
5, 211200, Note_on_c, 1, 69, 0
5, 211200, Note_on_c, 1, 67, 100
5, 211320, Note_on_c, 1, 67, 0
5, 211320, Note_on_c, 1, 71, 100
5, 211440, Note_on_c, 1, 71, 0
5, 211440, Note_on_c, 1, 73, 100
5, 211560, Note_on_c, 1, 73, 0
5, 211560, Note_on_c, 1, 74, 100
5, 211680, Note_on_c, 1, 74, 0
5, 211680, Note_on_c, 1, 76, 100
5, 211800, Note_on_c, 1, 76, 0
5, 211800, Note_on_c, 1, 78, 100
5, 211920, Note_on_c, 1, 78, 0
5, 211920, Note_on_c, 1, 76, 100
5, 212040, Note_on_c, 1, 76, 0
5, 212040, Note_on_c, 1, 74, 100
5, 212160, Note_on_c, 1, 74, 0
5, 212160, Note_on_c, 1, 73, 100
5, 212280, Note_on_c, 1, 73, 0
5, 212280, Note_on_c, 1, 71, 100
5, 212400, Note_on_c, 1, 71, 0
5, 212400, Note_on_c, 1, 70, 100
5, 212520, Note_on_c, 1, 70, 0
5, 212520, Note_on_c, 1, 71, 100
5, 212640, Note_on_c, 1, 71, 0
5, 212640, Note_on_c, 1, 73, 100
5, 213240, Note_on_c, 1, 73, 0
5, 213240, Note_on_c, 1, 66, 100
5, 213360, Note_on_c, 1, 66, 0
5, 213360, Note_on_c, 1, 71, 100
5, 213480, Note_on_c, 1, 71, 0
5, 213480, Note_on_c, 1, 73, 100
5, 213600, Note_on_c, 1, 73, 0
5, 213600, Note_on_c, 1, 74, 100
5, 214200, Note_on_c, 1, 74, 0
5, 214200, Note_on_c, 1, 71, 100
5, 214320, Note_on_c, 1, 71, 0
5, 214320, Note_on_c, 1, 73, 100
5, 214440, Note_on_c, 1, 73, 0
5, 214440, Note_on_c, 1, 74, 100
5, 214560, Note_on_c, 1, 74, 0
5, 214560, Note_on_c, 1, 76, 100
5, 215160, Note_on_c, 1, 76, 0
5, 215160, Note_on_c, 1, 73, 100
5, 215280, Note_on_c, 1, 73, 0
5, 215280, Note_on_c, 1, 74, 100
5, 215400, Note_on_c, 1, 74, 0
5, 215400, Note_on_c, 1, 76, 100
5, 215520, Note_on_c, 1, 76, 0
5, 215520, Note_on_c, 1, 78, 100
5, 216240, Note_on_c, 1, 78, 0
5, 216240, Note_on_c, 1, 79, 100
5, 216360, Note_on_c, 1, 79, 0
5, 216360, Note_on_c, 1, 78, 100
5, 216480, Note_on_c, 1, 78, 0
5, 216480, Note_on_c, 1, 76, 100
5, 216600, Note_on_c, 1, 76, 0
5, 216600, Note_on_c, 1, 74, 100
5, 216720, Note_on_c, 1, 74, 0
5, 216720, Note_on_c, 1, 73, 100
5, 216840, Note_on_c, 1, 73, 0
5, 216840, Note_on_c, 1, 71, 100
5, 216960, Note_on_c, 1, 71, 0
5, 216960, Note_on_c, 1, 78, 100
5, 217920, Note_on_c, 1, 78, 0
5, 218642, Note_on_c, 1, 74, 100
5, 218642, Note_on_c, 1, 71, 100
5, 218642, Note_on_c, 1, 66, 100
5, 218760, Note_on_c, 1, 66, 0
5, 218760, Note_on_c, 1, 71, 0
5, 218760, Note_on_c, 1, 74, 0
5, 218822, Note_on_c, 1, 76, 100
5, 218822, Note_on_c, 1, 73, 100
5, 218822, Note_on_c, 1, 66, 100
5, 218940, Note_on_c, 1, 66, 0
5, 218940, Note_on_c, 1, 73, 0
5, 218940, Note_on_c, 1, 76, 0
5, 219002, Note_on_c, 1, 74, 100
5, 219002, Note_on_c, 1, 71, 100
5, 219002, Note_on_c, 1, 66, 100
5, 219120, Note_on_c, 1, 66, 0
5, 219120, Note_on_c, 1, 71, 0
5, 219120, Note_on_c, 1, 74, 0
5, 219182, Note_on_c, 1, 78, 100
5, 219182, Note_on_c, 1, 74, 100
5, 219182, Note_on_c, 1, 71, 100
5, 219300, Note_on_c, 1, 71, 0
5, 219300, Note_on_c, 1, 74, 0
5, 219300, Note_on_c, 1, 78, 0
5, 219361, Note_on_c, 1, 76, 100
5, 219361, Note_on_c, 1, 73, 100
5, 219361, Note_on_c, 1, 71, 100
5, 219479, Note_on_c, 1, 71, 0
5, 219479, Note_on_c, 1, 73, 0
5, 219479, Note_on_c, 1, 76, 0
5, 219541, Note_on_c, 1, 79, 100
5, 219541, Note_on_c, 1, 76, 100
5, 219541, Note_on_c, 1, 70, 100
5, 219659, Note_on_c, 1, 70, 0
5, 219659, Note_on_c, 1, 76, 0
5, 219659, Note_on_c, 1, 79, 0
5, 219721, Note_on_c, 1, 78, 100
5, 219721, Note_on_c, 1, 76, 100
5, 219721, Note_on_c, 1, 70, 100
5, 219839, Note_on_c, 1, 70, 0
5, 219839, Note_on_c, 1, 76, 0
5, 219839, Note_on_c, 1, 78, 0
5, 219901, Note_on_c, 1, 78, 100
5, 219901, Note_on_c, 1, 74, 100
5, 219901, Note_on_c, 1, 71, 100
5, 220019, Note_on_c, 1, 71, 0
5, 220019, Note_on_c, 1, 74, 0
5, 220019, Note_on_c, 1, 78, 0
5, 220081, Note_on_c, 1, 79, 100
5, 220081, Note_on_c, 1, 76, 100
5, 220081, Note_on_c, 1, 71, 100
5, 220199, Note_on_c, 1, 71, 0
5, 220199, Note_on_c, 1, 76, 0
5, 220199, Note_on_c, 1, 79, 0
5, 220261, Note_on_c, 1, 71, 100
5, 220261, Note_on_c, 1, 66, 100
5, 220261, Note_on_c, 1, 59, 100
5, 220379, Note_on_c, 1, 59, 0
5, 220379, Note_on_c, 1, 66, 0
5, 220379, Note_on_c, 1, 71, 0
5, 220441, Note_on_c, 1, 70, 100
5, 220441, Note_on_c, 1, 64, 100
5, 220441, Note_on_c, 1, 61, 100
5, 220559, Note_on_c, 1, 61, 0
5, 220559, Note_on_c, 1, 64, 0
5, 220559, Note_on_c, 1, 70, 0
5, 220621, Note_on_c, 1, 71, 100
5, 220621, Note_on_c, 1, 66, 100
5, 220621, Note_on_c, 1, 62, 100
5, 220739, Note_on_c, 1, 62, 0
5, 220739, Note_on_c, 1, 66, 0
5, 220739, Note_on_c, 1, 71, 0
5, 220800, Note_on_c, 1, 64, 100
5, 220800, Note_on_c, 1, 67, 100
5, 220800, Note_on_c, 1, 71, 100
5, 220918, Note_on_c, 1, 71, 0
5, 220918, Note_on_c, 1, 67, 0
5, 220918, Note_on_c, 1, 64, 0
5, 220980, Note_on_c, 1, 71, 100
5, 220980, Note_on_c, 1, 64, 100
5, 220980, Note_on_c, 1, 67, 100
5, 220980, Note_on_c, 1, 76, 100
5, 221098, Note_on_c, 1, 76, 0
5, 221098, Note_on_c, 1, 71, 0
5, 221098, Note_on_c, 1, 64, 0
5, 221098, Note_on_c, 1, 67, 0
5, 221160, Note_on_c, 1, 70, 100
5, 221160, Note_on_c, 1, 64, 100
5, 221160, Note_on_c, 1, 73, 100
5, 221278, Note_on_c, 1, 73, 0
5, 221278, Note_on_c, 1, 64, 0
5, 221278, Note_on_c, 1, 70, 0
5, 221460, Note_on_c, 1, 66, 100
5, 221490, Note_on_c, 1, 66, 0
5, 221522, Note_on_c, 1, 71, 100
5, 221580, Note_on_c, 1, 71, 0
5, 221582, Note_on_c, 1, 74, 100
5, 221640, Note_on_c, 1, 74, 0
5, 221642, Note_on_c, 1, 73, 100
5, 221760, Note_on_c, 1, 73, 0
5, 221762, Note_on_c, 1, 67, 100
5, 221820, Note_on_c, 1, 67, 0
5, 221822, Note_on_c, 1, 66, 100
5, 221940, Note_on_c, 1, 66, 0
5, 221942, Note_on_c, 1, 76, 100
5, 222000, Note_on_c, 1, 76, 0
5, 222002, Note_on_c, 1, 74, 100
5, 222120, Note_on_c, 1, 74, 0
5, 222122, Note_on_c, 1, 69, 100
5, 222180, Note_on_c, 1, 69, 0
5, 222182, Note_on_c, 1, 68, 100
5, 222300, Note_on_c, 1, 68, 0
5, 222301, Note_on_c, 1, 78, 100
5, 222359, Note_on_c, 1, 78, 0
5, 222361, Note_on_c, 1, 76, 100
5, 222479, Note_on_c, 1, 76, 0
5, 222481, Note_on_c, 1, 71, 100
5, 222539, Note_on_c, 1, 71, 0
5, 222541, Note_on_c, 1, 70, 100
5, 222659, Note_on_c, 1, 70, 0
5, 222661, Note_on_c, 1, 79, 100
5, 222719, Note_on_c, 1, 79, 0
5, 222721, Note_on_c, 1, 78, 100
5, 222779, Note_on_c, 1, 78, 0
5, 222841, Note_on_c, 1, 70, 100
5, 222899, Note_on_c, 1, 70, 0
5, 222900, Note_on_c, 1, 71, 100
5, 222958, Note_on_c, 1, 71, 0
5, 222961, Note_on_c, 1, 79, 100
5, 223019, Note_on_c, 1, 79, 0
5, 223021, Note_on_c, 1, 70, 100
5, 223079, Note_on_c, 1, 70, 0
5, 223081, Note_on_c, 1, 71, 100
5, 223139, Note_on_c, 1, 71, 0
5, 223141, Note_on_c, 1, 78, 100
5, 223199, Note_on_c, 1, 78, 0
5, 223201, Note_on_c, 1, 70, 100
5, 223259, Note_on_c, 1, 70, 0
5, 223261, Note_on_c, 1, 71, 100
5, 223319, Note_on_c, 1, 71, 0
5, 223321, Note_on_c, 1, 76, 100
5, 223379, Note_on_c, 1, 76, 0
5, 223381, Note_on_c, 1, 70, 100
5, 223439, Note_on_c, 1, 70, 0
5, 223441, Note_on_c, 1, 71, 100
5, 223499, Note_on_c, 1, 71, 0
5, 223501, Note_on_c, 1, 74, 100
5, 223559, Note_on_c, 1, 74, 0
5, 223561, Note_on_c, 1, 70, 100
5, 223619, Note_on_c, 1, 70, 0
5, 223621, Note_on_c, 1, 71, 100
5, 223679, Note_on_c, 1, 71, 0
5, 223680, Note_on_c, 1, 73, 100
5, 223738, Note_on_c, 1, 73, 0
5, 223740, Note_on_c, 1, 76, 100
5, 223798, Note_on_c, 1, 76, 0
5, 223800, Note_on_c, 1, 79, 100
5, 223858, Note_on_c, 1, 79, 0
5, 223860, Note_on_c, 1, 76, 100
5, 223918, Note_on_c, 1, 76, 0
5, 223920, Note_on_c, 1, 73, 100
5, 223978, Note_on_c, 1, 73, 0
5, 223980, Note_on_c, 1, 71, 100
5, 224038, Note_on_c, 1, 71, 0
5, 224040, Note_on_c, 1, 70, 100
5, 224098, Note_on_c, 1, 70, 0
5, 224100, Note_on_c, 1, 73, 100
5, 224158, Note_on_c, 1, 73, 0
5, 224160, Note_on_c, 1, 78, 100
5, 224218, Note_on_c, 1, 78, 0
5, 224220, Note_on_c, 1, 76, 100
5, 224278, Note_on_c, 1, 76, 0
5, 224280, Note_on_c, 1, 74, 100
5, 224338, Note_on_c, 1, 74, 0
5, 224340, Note_on_c, 1, 73, 100
5, 224398, Note_on_c, 1, 73, 0
5, 224400, Note_on_c, 1, 73, 100
5, 224460, Note_on_c, 1, 73, 0
5, 224460, Note_on_c, 1, 74, 100
5, 224580, Note_on_c, 1, 74, 0
5, 224705, Note_on_c, 1, 71, 100
5, 224763, Note_on_c, 1, 71, 0
5, 224765, Note_on_c, 1, 71, 100
5, 224823, Note_on_c, 1, 71, 0
5, 224825, Note_on_c, 1, 76, 100
5, 224883, Note_on_c, 1, 76, 0
5, 224885, Note_on_c, 1, 79, 100
5, 224943, Note_on_c, 1, 79, 0
5, 224945, Note_on_c, 1, 75, 100
5, 225003, Note_on_c, 1, 75, 0
5, 225005, Note_on_c, 1, 76, 100
5, 225063, Note_on_c, 1, 76, 0
5, 225065, Note_on_c, 1, 71, 100
5, 225120, Note_on_c, 1, 71, 0
5, 225120, Note_on_c, 1, 71, 100
5, 225180, Note_on_c, 1, 71, 0
5, 225180, Note_on_c, 1, 73, 100
5, 225300, Note_on_c, 1, 73, 0
5, 225420, Note_on_c, 1, 69, 100
5, 225478, Note_on_c, 1, 69, 0
5, 225480, Note_on_c, 1, 69, 100
5, 225538, Note_on_c, 1, 69, 0
5, 225540, Note_on_c, 1, 74, 100
5, 225598, Note_on_c, 1, 74, 0
5, 225600, Note_on_c, 1, 78, 100
5, 225658, Note_on_c, 1, 78, 0
5, 225660, Note_on_c, 1, 73, 100
5, 225718, Note_on_c, 1, 73, 0
5, 225720, Note_on_c, 1, 74, 100
5, 225778, Note_on_c, 1, 74, 0
5, 225780, Note_on_c, 1, 69, 100
5, 225838, Note_on_c, 1, 69, 0
5, 225840, Note_on_c, 1, 71, 100
5, 225960, Note_on_c, 1, 71, 0
5, 225960, Note_on_c, 1, 59, 100
5, 226020, Note_on_c, 1, 59, 0
5, 226020, Note_on_c, 1, 62, 100
5, 226140, Note_on_c, 1, 62, 0
5, 226140, Note_on_c, 1, 67, 100
5, 226200, Note_on_c, 1, 67, 0
5, 226200, Note_on_c, 1, 69, 100
5, 226320, Note_on_c, 1, 69, 0
5, 226320, Note_on_c, 1, 57, 100
5, 226380, Note_on_c, 1, 57, 0
5, 226380, Note_on_c, 1, 62, 100
5, 226500, Note_on_c, 1, 62, 0
5, 226500, Note_on_c, 1, 66, 100
5, 226560, Note_on_c, 1, 66, 0
5, 226560, Note_on_c, 1, 67, 100
5, 226678, Note_on_c, 1, 67, 0
5, 226680, Note_on_c, 1, 71, 100
5, 226738, Note_on_c, 1, 71, 0
5, 226740, Note_on_c, 1, 62, 100
5, 226858, Note_on_c, 1, 62, 0
5, 226860, Note_on_c, 1, 71, 100
5, 226918, Note_on_c, 1, 71, 0
5, 226920, Note_on_c, 1, 66, 100
5, 227038, Note_on_c, 1, 66, 0
5, 227040, Note_on_c, 1, 69, 100
5, 227098, Note_on_c, 1, 69, 0
5, 227100, Note_on_c, 1, 62, 100
5, 227220, Note_on_c, 1, 62, 0
5, 227220, Note_on_c, 1, 69, 100
5, 227278, Note_on_c, 1, 69, 0
5, 227281, Note_on_c, 1, 71, 100
5, 227399, Note_on_c, 1, 71, 0
5, 227401, Note_on_c, 1, 64, 100
5, 227459, Note_on_c, 1, 64, 0
5, 227461, Note_on_c, 1, 71, 100
5, 227579, Note_on_c, 1, 71, 0
5, 227581, Note_on_c, 1, 74, 100
5, 227639, Note_on_c, 1, 74, 0
5, 227641, Note_on_c, 1, 73, 100
5, 227699, Note_on_c, 1, 73, 0
5, 227701, Note_on_c, 1, 71, 100
5, 227759, Note_on_c, 1, 71, 0
5, 227761, Note_on_c, 1, 69, 100
5, 227819, Note_on_c, 1, 69, 0
5, 227821, Note_on_c, 1, 76, 100
5, 228059, Note_on_c, 1, 76, 0
5, 228061, Note_on_c, 1, 73, 100
5, 228119, Note_on_c, 1, 73, 0
5, 228121, Note_on_c, 1, 74, 100
5, 228179, Note_on_c, 1, 74, 0
5, 228181, Note_on_c, 1, 66, 100
5, 228239, Note_on_c, 1, 66, 0
5, 228241, Note_on_c, 1, 67, 100
5, 228299, Note_on_c, 1, 67, 0
5, 228301, Note_on_c, 1, 64, 100
5, 228359, Note_on_c, 1, 64, 0
5, 228361, Note_on_c, 1, 62, 100
5, 228659, Note_on_c, 1, 62, 0
5, 228661, Note_on_c, 1, 62, 100
5, 228719, Note_on_c, 1, 62, 0
5, 228720, Note_on_c, 1, 62, 100
5, 228780, Note_on_c, 1, 62, 0
5, 228780, Note_on_c, 1, 66, 100
5, 228840, Note_on_c, 1, 66, 0
5, 228840, Note_on_c, 1, 69, 100
5, 228900, Note_on_c, 1, 69, 0
5, 228900, Note_on_c, 1, 60, 100
5, 228960, Note_on_c, 1, 60, 0
5, 228960, Note_on_c, 1, 59, 100
5, 229018, Note_on_c, 1, 59, 0
5, 229020, Note_on_c, 1, 57, 100
5, 229078, Note_on_c, 1, 57, 0
5, 229080, Note_on_c, 1, 59, 100
5, 229138, Note_on_c, 1, 59, 0
5, 229140, Note_on_c, 1, 55, 100
5, 229198, Note_on_c, 1, 55, 0
5, 229200, Note_on_c, 1, 59, 100
5, 229258, Note_on_c, 1, 59, 0
5, 229260, Note_on_c, 1, 62, 100
5, 229318, Note_on_c, 1, 62, 0
5, 229320, Note_on_c, 1, 59, 100
5, 229378, Note_on_c, 1, 59, 0
5, 229380, Note_on_c, 1, 62, 100
5, 229438, Note_on_c, 1, 62, 0
5, 229445, Note_on_c, 1, 64, 100
5, 229503, Note_on_c, 1, 64, 0
5, 229505, Note_on_c, 1, 68, 100
5, 229563, Note_on_c, 1, 68, 0
5, 229565, Note_on_c, 1, 71, 100
5, 229623, Note_on_c, 1, 71, 0
5, 229625, Note_on_c, 1, 62, 100
5, 229683, Note_on_c, 1, 62, 0
5, 229685, Note_on_c, 1, 61, 100
5, 229743, Note_on_c, 1, 61, 0
5, 229745, Note_on_c, 1, 59, 100
5, 229803, Note_on_c, 1, 59, 0
5, 229805, Note_on_c, 1, 61, 100
5, 229863, Note_on_c, 1, 61, 0
5, 229865, Note_on_c, 1, 57, 100
5, 229866, Note_on_c, 1, 57, 0
5, 229920, Note_on_c, 1, 61, 100
5, 229978, Note_on_c, 1, 61, 0
5, 229980, Note_on_c, 1, 64, 100
5, 230038, Note_on_c, 1, 64, 0
5, 230040, Note_on_c, 1, 61, 100
5, 230098, Note_on_c, 1, 61, 0
5, 230100, Note_on_c, 1, 64, 100
5, 230158, Note_on_c, 1, 64, 0
5, 230161, Note_on_c, 1, 66, 100
5, 230219, Note_on_c, 1, 66, 0
5, 230221, Note_on_c, 1, 70, 100
5, 230279, Note_on_c, 1, 70, 0
5, 230281, Note_on_c, 1, 73, 100
5, 230339, Note_on_c, 1, 73, 0
5, 230341, Note_on_c, 1, 64, 100
5, 230399, Note_on_c, 1, 64, 0
5, 230401, Note_on_c, 1, 62, 100
5, 230459, Note_on_c, 1, 62, 0
5, 230461, Note_on_c, 1, 61, 100
5, 230519, Note_on_c, 1, 61, 0
5, 230521, Note_on_c, 1, 62, 100
5, 230579, Note_on_c, 1, 62, 0
5, 230581, Note_on_c, 1, 59, 100
5, 230639, Note_on_c, 1, 59, 0
5, 230641, Note_on_c, 1, 62, 100
5, 230699, Note_on_c, 1, 62, 0
5, 230701, Note_on_c, 1, 66, 100
5, 230759, Note_on_c, 1, 66, 0
5, 230761, Note_on_c, 1, 62, 100
5, 230819, Note_on_c, 1, 62, 0
5, 230821, Note_on_c, 1, 66, 100
5, 230879, Note_on_c, 1, 66, 0
5, 230880, Note_on_c, 1, 68, 100
5, 230940, Note_on_c, 1, 68, 0
5, 230940, Note_on_c, 1, 71, 100
5, 231000, Note_on_c, 1, 71, 0
5, 231000, Note_on_c, 1, 74, 100
5, 231060, Note_on_c, 1, 74, 0
5, 231060, Note_on_c, 1, 69, 100
5, 231120, Note_on_c, 1, 69, 0
5, 231120, Note_on_c, 1, 68, 100
5, 231178, Note_on_c, 1, 68, 0
5, 231180, Note_on_c, 1, 66, 100
5, 231238, Note_on_c, 1, 66, 0
5, 231240, Note_on_c, 1, 65, 100
5, 231298, Note_on_c, 1, 65, 0
5, 231300, Note_on_c, 1, 68, 100
5, 231358, Note_on_c, 1, 68, 0
5, 231360, Note_on_c, 1, 71, 100
5, 231418, Note_on_c, 1, 71, 0
5, 231420, Note_on_c, 1, 62, 100
5, 231478, Note_on_c, 1, 62, 0
5, 231480, Note_on_c, 1, 61, 100
5, 231538, Note_on_c, 1, 61, 0
5, 231540, Note_on_c, 1, 59, 100
5, 231598, Note_on_c, 1, 59, 0
5, 231605, Note_on_c, 1, 66, 100
5, 231663, Note_on_c, 1, 66, 0
5, 231665, Note_on_c, 1, 69, 100
5, 231723, Note_on_c, 1, 69, 0
5, 231725, Note_on_c, 1, 68, 100
5, 231843, Note_on_c, 1, 68, 0
5, 231845, Note_on_c, 1, 62, 100
5, 231903, Note_on_c, 1, 62, 0
5, 231905, Note_on_c, 1, 61, 100
5, 232023, Note_on_c, 1, 61, 0
5, 232025, Note_on_c, 1, 71, 100
5, 232083, Note_on_c, 1, 71, 0
5, 232085, Note_on_c, 1, 69, 100
5, 232203, Note_on_c, 1, 69, 0
5, 232205, Note_on_c, 1, 64, 100
5, 232263, Note_on_c, 1, 64, 0
5, 232265, Note_on_c, 1, 63, 100
5, 232322, Note_on_c, 1, 63, 0
5, 232381, Note_on_c, 1, 73, 100
5, 232439, Note_on_c, 1, 73, 0
5, 232441, Note_on_c, 1, 71, 100
5, 232559, Note_on_c, 1, 71, 0
5, 232561, Note_on_c, 1, 66, 100
5, 232619, Note_on_c, 1, 66, 0
5, 232621, Note_on_c, 1, 65, 100
5, 232739, Note_on_c, 1, 65, 0
5, 232741, Note_on_c, 1, 74, 100
5, 232799, Note_on_c, 1, 74, 0
5, 232801, Note_on_c, 1, 73, 100
5, 232859, Note_on_c, 1, 73, 0
5, 232921, Note_on_c, 1, 65, 100
5, 232979, Note_on_c, 1, 65, 0
5, 232981, Note_on_c, 1, 66, 100
5, 233039, Note_on_c, 1, 66, 0
5, 233040, Note_on_c, 1, 74, 100
5, 233100, Note_on_c, 1, 74, 0
5, 233100, Note_on_c, 1, 65, 100
5, 233160, Note_on_c, 1, 65, 0
5, 233160, Note_on_c, 1, 66, 100
5, 233220, Note_on_c, 1, 66, 0
5, 233220, Note_on_c, 1, 73, 100
5, 233280, Note_on_c, 1, 73, 0
5, 233280, Note_on_c, 1, 65, 100
5, 233338, Note_on_c, 1, 65, 0
5, 233340, Note_on_c, 1, 66, 100
5, 233398, Note_on_c, 1, 66, 0
5, 233400, Note_on_c, 1, 71, 100
5, 233458, Note_on_c, 1, 71, 0
5, 233460, Note_on_c, 1, 65, 100
5, 233518, Note_on_c, 1, 65, 0
5, 233520, Note_on_c, 1, 66, 100
5, 233578, Note_on_c, 1, 66, 0
5, 233580, Note_on_c, 1, 69, 100
5, 233638, Note_on_c, 1, 69, 0
5, 233640, Note_on_c, 1, 65, 100
5, 233698, Note_on_c, 1, 65, 0
5, 233700, Note_on_c, 1, 66, 100
5, 233758, Note_on_c, 1, 66, 0
5, 233765, Note_on_c, 1, 68, 100
5, 233823, Note_on_c, 1, 68, 0
5, 233825, Note_on_c, 1, 71, 100
5, 233883, Note_on_c, 1, 71, 0
5, 233885, Note_on_c, 1, 74, 100
5, 233943, Note_on_c, 1, 74, 0
5, 233945, Note_on_c, 1, 71, 100
5, 234003, Note_on_c, 1, 71, 0
5, 234005, Note_on_c, 1, 68, 100
5, 234063, Note_on_c, 1, 68, 0
5, 234065, Note_on_c, 1, 66, 100
5, 234123, Note_on_c, 1, 66, 0
5, 234125, Note_on_c, 1, 65, 100
5, 234183, Note_on_c, 1, 65, 0
5, 234185, Note_on_c, 1, 68, 100
5, 234243, Note_on_c, 1, 68, 0
5, 234245, Note_on_c, 1, 73, 100
5, 234303, Note_on_c, 1, 73, 0
5, 234305, Note_on_c, 1, 71, 100
5, 234363, Note_on_c, 1, 71, 0
5, 234365, Note_on_c, 1, 69, 100
5, 234423, Note_on_c, 1, 69, 0
5, 234425, Note_on_c, 1, 68, 100
5, 234480, Note_on_c, 1, 68, 0
5, 234481, Note_on_c, 1, 69, 100
5, 234539, Note_on_c, 1, 69, 0
5, 234541, Note_on_c, 1, 66, 100
5, 234599, Note_on_c, 1, 66, 0
5, 234601, Note_on_c, 1, 61, 100
5, 234659, Note_on_c, 1, 61, 0
5, 234661, Note_on_c, 1, 65, 100
5, 234719, Note_on_c, 1, 65, 0
5, 234721, Note_on_c, 1, 68, 100
5, 234779, Note_on_c, 1, 68, 0
5, 234781, Note_on_c, 1, 71, 100
5, 234839, Note_on_c, 1, 71, 0
5, 234841, Note_on_c, 1, 69, 100
5, 234899, Note_on_c, 1, 69, 0
5, 234901, Note_on_c, 1, 68, 100
5, 234959, Note_on_c, 1, 68, 0
5, 234961, Note_on_c, 1, 66, 100
5, 235019, Note_on_c, 1, 66, 0
5, 235021, Note_on_c, 1, 78, 100
5, 235139, Note_on_c, 1, 78, 0
5, 235141, Note_on_c, 1, 69, 100
5, 235199, Note_on_c, 1, 69, 0
5, 235200, Note_on_c, 1, 71, 100
5, 235230, Note_on_c, 1, 71, 0
5, 235260, Note_on_c, 1, 69, 100
5, 235290, Note_on_c, 1, 69, 0
5, 235320, Note_on_c, 1, 68, 100
5, 235350, Note_on_c, 1, 68, 0
5, 235380, Note_on_c, 1, 80, 100
5, 235500, Note_on_c, 1, 80, 0
5, 235500, Note_on_c, 1, 71, 100
5, 235558, Note_on_c, 1, 71, 0
5, 235560, Note_on_c, 1, 73, 100
5, 235620, Note_on_c, 1, 73, 0
5, 235620, Note_on_c, 1, 71, 100
5, 235680, Note_on_c, 1, 71, 0
5, 235680, Note_on_c, 1, 69, 100
5, 235740, Note_on_c, 1, 69, 0
5, 235740, Note_on_c, 1, 71, 100
5, 235798, Note_on_c, 1, 71, 0
5, 235800, Note_on_c, 1, 68, 100
5, 235858, Note_on_c, 1, 68, 0
5, 235860, Note_on_c, 1, 71, 100
5, 235918, Note_on_c, 1, 71, 0
5, 235925, Note_on_c, 1, 66, 100
5, 235983, Note_on_c, 1, 66, 0
5, 235985, Note_on_c, 1, 68, 100
5, 236043, Note_on_c, 1, 68, 0
5, 236045, Note_on_c, 1, 69, 100
5, 236103, Note_on_c, 1, 69, 0
5, 236105, Note_on_c, 1, 69, 100
5, 236163, Note_on_c, 1, 69, 0
5, 236165, Note_on_c, 1, 68, 100
5, 236223, Note_on_c, 1, 68, 0
5, 236225, Note_on_c, 1, 66, 100
5, 236283, Note_on_c, 1, 66, 0
5, 236285, Note_on_c, 1, 78, 100
5, 236403, Note_on_c, 1, 78, 0
5, 236405, Note_on_c, 1, 71, 100
5, 236463, Note_on_c, 1, 71, 0
5, 236465, Note_on_c, 1, 78, 100
5, 236583, Note_on_c, 1, 78, 0
5, 236585, Note_on_c, 1, 69, 100
5, 236640, Note_on_c, 1, 69, 0
5, 236641, Note_on_c, 1, 74, 100
5, 236759, Note_on_c, 1, 74, 0
5, 236761, Note_on_c, 1, 71, 100
5, 236819, Note_on_c, 1, 71, 0
5, 236821, Note_on_c, 1, 65, 100
5, 236939, Note_on_c, 1, 65, 0
5, 236941, Note_on_c, 1, 66, 100
5, 236999, Note_on_c, 1, 66, 0
5, 237000, Note_on_c, 1, 66, 100
5, 237060, Note_on_c, 1, 66, 0
5, 237060, Note_on_c, 1, 68, 100
5, 237301, Note_on_c, 1, 61, 100
5, 237358, Note_on_c, 1, 68, 0
5, 237359, Note_on_c, 1, 61, 0
5, 237360, Note_on_c, 1, 61, 100
5, 237390, Note_on_c, 1, 61, 0
5, 237420, Note_on_c, 1, 66, 100
5, 237450, Note_on_c, 1, 66, 0
5, 237480, Note_on_c, 1, 69, 100
5, 237510, Note_on_c, 1, 69, 0
5, 237540, Note_on_c, 1, 65, 100
5, 237570, Note_on_c, 1, 65, 0
5, 237600, Note_on_c, 1, 66, 100
5, 237658, Note_on_c, 1, 66, 0
5, 237660, Note_on_c, 1, 61, 100
5, 237718, Note_on_c, 1, 61, 0
5, 237720, Note_on_c, 1, 62, 100
5, 237900, Note_on_c, 1, 62, 0
5, 238020, Note_on_c, 1, 59, 100
5, 238050, Note_on_c, 1, 59, 0
5, 238083, Note_on_c, 1, 59, 100
5, 238141, Note_on_c, 1, 59, 0
5, 238143, Note_on_c, 1, 64, 100
5, 238201, Note_on_c, 1, 64, 0
5, 238203, Note_on_c, 1, 68, 100
5, 238261, Note_on_c, 1, 68, 0
5, 238263, Note_on_c, 1, 63, 100
5, 238321, Note_on_c, 1, 63, 0
5, 238323, Note_on_c, 1, 64, 100
5, 238381, Note_on_c, 1, 64, 0
5, 238383, Note_on_c, 1, 59, 100
5, 238441, Note_on_c, 1, 59, 0
5, 238443, Note_on_c, 1, 61, 100
5, 238621, Note_on_c, 1, 61, 0
5, 238743, Note_on_c, 1, 73, 100
5, 238800, Note_on_c, 1, 73, 0
5, 238801, Note_on_c, 1, 66, 100
5, 238859, Note_on_c, 1, 66, 0
5, 238861, Note_on_c, 1, 65, 100
5, 238919, Note_on_c, 1, 65, 0
5, 238921, Note_on_c, 1, 66, 100
5, 238979, Note_on_c, 1, 66, 0
5, 238981, Note_on_c, 1, 74, 100
5, 239039, Note_on_c, 1, 74, 0
5, 239041, Note_on_c, 1, 73, 100
5, 239099, Note_on_c, 1, 73, 0
5, 239101, Note_on_c, 1, 71, 100
5, 239159, Note_on_c, 1, 71, 0
5, 239161, Note_on_c, 1, 66, 100
5, 239219, Note_on_c, 1, 66, 0
5, 239221, Note_on_c, 1, 65, 100
5, 239279, Note_on_c, 1, 65, 0
5, 239281, Note_on_c, 1, 66, 100
5, 239339, Note_on_c, 1, 66, 0
5, 239341, Note_on_c, 1, 73, 100
5, 239399, Note_on_c, 1, 73, 0
5, 239401, Note_on_c, 1, 71, 100
5, 239459, Note_on_c, 1, 71, 0
5, 239461, Note_on_c, 1, 69, 100
5, 239519, Note_on_c, 1, 69, 0
5, 239520, Note_on_c, 1, 66, 100
5, 239580, Note_on_c, 1, 66, 0
5, 239580, Note_on_c, 1, 65, 100
5, 239640, Note_on_c, 1, 65, 0
5, 239640, Note_on_c, 1, 66, 100
5, 239700, Note_on_c, 1, 66, 0
5, 239700, Note_on_c, 1, 71, 100
5, 239760, Note_on_c, 1, 71, 0
5, 239760, Note_on_c, 1, 69, 100
5, 239818, Note_on_c, 1, 69, 0
5, 239820, Note_on_c, 1, 68, 100
5, 239878, Note_on_c, 1, 68, 0
5, 239880, Note_on_c, 1, 66, 100
5, 239938, Note_on_c, 1, 66, 0
5, 239940, Note_on_c, 1, 65, 100
5, 239998, Note_on_c, 1, 65, 0
5, 240000, Note_on_c, 1, 66, 100
5, 240058, Note_on_c, 1, 66, 0
5, 240060, Note_on_c, 1, 69, 100
5, 240118, Note_on_c, 1, 69, 0
5, 240120, Note_on_c, 1, 68, 100
5, 240178, Note_on_c, 1, 68, 0
5, 240180, Note_on_c, 1, 66, 100
5, 240238, Note_on_c, 1, 66, 0
5, 240245, Note_on_c, 1, 68, 100
5, 240303, Note_on_c, 1, 68, 0
5, 240305, Note_on_c, 1, 71, 100
5, 240363, Note_on_c, 1, 71, 0
5, 240365, Note_on_c, 1, 74, 100
5, 240423, Note_on_c, 1, 74, 0
5, 240425, Note_on_c, 1, 73, 100
5, 240483, Note_on_c, 1, 73, 0
5, 240485, Note_on_c, 1, 71, 100
5, 240543, Note_on_c, 1, 71, 0
5, 240545, Note_on_c, 1, 69, 100
5, 240603, Note_on_c, 1, 69, 0
5, 240605, Note_on_c, 1, 68, 100
5, 240663, Note_on_c, 1, 68, 0
5, 240665, Note_on_c, 1, 66, 100
5, 240723, Note_on_c, 1, 66, 0
5, 240725, Note_on_c, 1, 65, 100
5, 240783, Note_on_c, 1, 65, 0
5, 240785, Note_on_c, 1, 62, 100
5, 240843, Note_on_c, 1, 62, 0
5, 240845, Note_on_c, 1, 61, 100
5, 240903, Note_on_c, 1, 61, 0
5, 240905, Note_on_c, 1, 59, 100
5, 240960, Note_on_c, 1, 59, 0
5, 240961, Note_on_c, 1, 57, 100
5, 241079, Note_on_c, 1, 57, 0
5, 241081, Note_on_c, 1, 73, 100
5, 241139, Note_on_c, 1, 73, 0
5, 241141, Note_on_c, 1, 61, 100
5, 241199, Note_on_c, 1, 61, 0
5, 241201, Note_on_c, 1, 66, 100
5, 241259, Note_on_c, 1, 66, 0
5, 241261, Note_on_c, 1, 65, 100
5, 241319, Note_on_c, 1, 65, 0
5, 241321, Note_on_c, 1, 66, 100
5, 241380, Note_on_c, 1, 61, 100
5, 241440, Note_on_c, 1, 57, 100
5, 241500, Note_on_c, 1, 54, 100
5, 241558, Note_on_c, 1, 57, 0
5, 241560, Note_on_c, 1, 61, 0
5, 241619, Note_on_c, 1, 66, 0
5, 241620, Note_on_c, 1, 54, 0
5, 241682, Note_on_c, 1, 74, 100
5, 241682, Note_on_c, 1, 71, 100
5, 241682, Note_on_c, 1, 66, 100
5, 241800, Note_on_c, 1, 66, 0
5, 241800, Note_on_c, 1, 71, 0
5, 241800, Note_on_c, 1, 74, 0
5, 241862, Note_on_c, 1, 76, 100
5, 241862, Note_on_c, 1, 73, 100
5, 241862, Note_on_c, 1, 66, 100
5, 241980, Note_on_c, 1, 66, 0
5, 241980, Note_on_c, 1, 73, 0
5, 241980, Note_on_c, 1, 76, 0
5, 242042, Note_on_c, 1, 74, 100
5, 242042, Note_on_c, 1, 71, 100
5, 242042, Note_on_c, 1, 66, 100
5, 242160, Note_on_c, 1, 66, 0
5, 242160, Note_on_c, 1, 71, 0
5, 242160, Note_on_c, 1, 74, 0
5, 242222, Note_on_c, 1, 78, 100
5, 242222, Note_on_c, 1, 74, 100
5, 242222, Note_on_c, 1, 71, 100
5, 242340, Note_on_c, 1, 71, 0
5, 242340, Note_on_c, 1, 74, 0
5, 242340, Note_on_c, 1, 78, 0
5, 242401, Note_on_c, 1, 76, 100
5, 242401, Note_on_c, 1, 73, 100
5, 242401, Note_on_c, 1, 71, 100
5, 242519, Note_on_c, 1, 71, 0
5, 242519, Note_on_c, 1, 73, 0
5, 242519, Note_on_c, 1, 76, 0
5, 242581, Note_on_c, 1, 79, 100
5, 242581, Note_on_c, 1, 76, 100
5, 242581, Note_on_c, 1, 70, 100
5, 242699, Note_on_c, 1, 70, 0
5, 242699, Note_on_c, 1, 76, 0
5, 242699, Note_on_c, 1, 79, 0
5, 242761, Note_on_c, 1, 78, 100
5, 242761, Note_on_c, 1, 76, 100
5, 242761, Note_on_c, 1, 70, 100
5, 242879, Note_on_c, 1, 70, 0
5, 242879, Note_on_c, 1, 76, 0
5, 242879, Note_on_c, 1, 78, 0
5, 242941, Note_on_c, 1, 78, 100
5, 242941, Note_on_c, 1, 74, 100
5, 242941, Note_on_c, 1, 71, 100
5, 243059, Note_on_c, 1, 71, 0
5, 243059, Note_on_c, 1, 74, 0
5, 243059, Note_on_c, 1, 78, 0
5, 243121, Note_on_c, 1, 79, 100
5, 243121, Note_on_c, 1, 76, 100
5, 243121, Note_on_c, 1, 71, 100
5, 243239, Note_on_c, 1, 71, 0
5, 243239, Note_on_c, 1, 76, 0
5, 243239, Note_on_c, 1, 79, 0
5, 243301, Note_on_c, 1, 71, 100
5, 243301, Note_on_c, 1, 66, 100
5, 243301, Note_on_c, 1, 59, 100
5, 243419, Note_on_c, 1, 59, 0
5, 243419, Note_on_c, 1, 66, 0
5, 243419, Note_on_c, 1, 71, 0
5, 243481, Note_on_c, 1, 70, 100
5, 243481, Note_on_c, 1, 64, 100
5, 243481, Note_on_c, 1, 61, 100
5, 243599, Note_on_c, 1, 61, 0
5, 243599, Note_on_c, 1, 64, 0
5, 243599, Note_on_c, 1, 70, 0
5, 243661, Note_on_c, 1, 71, 100
5, 243661, Note_on_c, 1, 66, 100
5, 243661, Note_on_c, 1, 62, 100
5, 243779, Note_on_c, 1, 62, 0
5, 243779, Note_on_c, 1, 66, 0
5, 243779, Note_on_c, 1, 71, 0
5, 243840, Note_on_c, 1, 64, 100
5, 243840, Note_on_c, 1, 67, 100
5, 243840, Note_on_c, 1, 71, 100
5, 243958, Note_on_c, 1, 71, 0
5, 243958, Note_on_c, 1, 67, 0
5, 243958, Note_on_c, 1, 64, 0
5, 244020, Note_on_c, 1, 71, 100
5, 244020, Note_on_c, 1, 64, 100
5, 244020, Note_on_c, 1, 67, 100
5, 244020, Note_on_c, 1, 76, 100
5, 244138, Note_on_c, 1, 76, 0
5, 244138, Note_on_c, 1, 71, 0
5, 244138, Note_on_c, 1, 64, 0
5, 244138, Note_on_c, 1, 67, 0
5, 244200, Note_on_c, 1, 70, 100
5, 244200, Note_on_c, 1, 64, 100
5, 244200, Note_on_c, 1, 73, 100
5, 244318, Note_on_c, 1, 73, 0
5, 244318, Note_on_c, 1, 64, 0
5, 244318, Note_on_c, 1, 70, 0
5, 244500, Note_on_c, 1, 66, 100
5, 244530, Note_on_c, 1, 66, 0
5, 244562, Note_on_c, 1, 71, 100
5, 244620, Note_on_c, 1, 71, 0
5, 244622, Note_on_c, 1, 74, 100
5, 244680, Note_on_c, 1, 74, 0
5, 244682, Note_on_c, 1, 73, 100
5, 244800, Note_on_c, 1, 73, 0
5, 244802, Note_on_c, 1, 67, 100
5, 244860, Note_on_c, 1, 67, 0
5, 244862, Note_on_c, 1, 66, 100
5, 244980, Note_on_c, 1, 66, 0
5, 244982, Note_on_c, 1, 76, 100
5, 245040, Note_on_c, 1, 76, 0
5, 245042, Note_on_c, 1, 74, 100
5, 245160, Note_on_c, 1, 74, 0
5, 245162, Note_on_c, 1, 69, 100
5, 245220, Note_on_c, 1, 69, 0
5, 245222, Note_on_c, 1, 68, 100
5, 245340, Note_on_c, 1, 68, 0
5, 245341, Note_on_c, 1, 78, 100
5, 245399, Note_on_c, 1, 78, 0
5, 245401, Note_on_c, 1, 76, 100
5, 245519, Note_on_c, 1, 76, 0
5, 245521, Note_on_c, 1, 71, 100
5, 245579, Note_on_c, 1, 71, 0
5, 245581, Note_on_c, 1, 70, 100
5, 245699, Note_on_c, 1, 70, 0
5, 245701, Note_on_c, 1, 79, 100
5, 245759, Note_on_c, 1, 79, 0
5, 245761, Note_on_c, 1, 78, 100
5, 245819, Note_on_c, 1, 78, 0
5, 245881, Note_on_c, 1, 70, 100
5, 245939, Note_on_c, 1, 70, 0
5, 245940, Note_on_c, 1, 71, 100
5, 245998, Note_on_c, 1, 71, 0
5, 246001, Note_on_c, 1, 79, 100
5, 246059, Note_on_c, 1, 79, 0
5, 246061, Note_on_c, 1, 70, 100
5, 246119, Note_on_c, 1, 70, 0
5, 246121, Note_on_c, 1, 71, 100
5, 246179, Note_on_c, 1, 71, 0
5, 246181, Note_on_c, 1, 78, 100
5, 246239, Note_on_c, 1, 78, 0
5, 246241, Note_on_c, 1, 70, 100
5, 246299, Note_on_c, 1, 70, 0
5, 246301, Note_on_c, 1, 71, 100
5, 246359, Note_on_c, 1, 71, 0
5, 246361, Note_on_c, 1, 76, 100
5, 246419, Note_on_c, 1, 76, 0
5, 246421, Note_on_c, 1, 70, 100
5, 246479, Note_on_c, 1, 70, 0
5, 246481, Note_on_c, 1, 71, 100
5, 246539, Note_on_c, 1, 71, 0
5, 246541, Note_on_c, 1, 74, 100
5, 246599, Note_on_c, 1, 74, 0
5, 246601, Note_on_c, 1, 70, 100
5, 246659, Note_on_c, 1, 70, 0
5, 246661, Note_on_c, 1, 71, 100
5, 246719, Note_on_c, 1, 71, 0
5, 246720, Note_on_c, 1, 73, 100
5, 246778, Note_on_c, 1, 73, 0
5, 246780, Note_on_c, 1, 76, 100
5, 246838, Note_on_c, 1, 76, 0
5, 246840, Note_on_c, 1, 79, 100
5, 246898, Note_on_c, 1, 79, 0
5, 246900, Note_on_c, 1, 76, 100
5, 246958, Note_on_c, 1, 76, 0
5, 246960, Note_on_c, 1, 73, 100
5, 247018, Note_on_c, 1, 73, 0
5, 247020, Note_on_c, 1, 71, 100
5, 247078, Note_on_c, 1, 71, 0
5, 247080, Note_on_c, 1, 70, 100
5, 247138, Note_on_c, 1, 70, 0
5, 247140, Note_on_c, 1, 73, 100
5, 247198, Note_on_c, 1, 73, 0
5, 247200, Note_on_c, 1, 78, 100
5, 247258, Note_on_c, 1, 78, 0
5, 247260, Note_on_c, 1, 76, 100
5, 247318, Note_on_c, 1, 76, 0
5, 247320, Note_on_c, 1, 74, 100
5, 247378, Note_on_c, 1, 74, 0
5, 247380, Note_on_c, 1, 73, 100
5, 247438, Note_on_c, 1, 73, 0
5, 247440, Note_on_c, 1, 73, 100
5, 247500, Note_on_c, 1, 73, 0
5, 247500, Note_on_c, 1, 74, 100
5, 247620, Note_on_c, 1, 74, 0
5, 247745, Note_on_c, 1, 71, 100
5, 247803, Note_on_c, 1, 71, 0
5, 247805, Note_on_c, 1, 71, 100
5, 247863, Note_on_c, 1, 71, 0
5, 247865, Note_on_c, 1, 76, 100
5, 247923, Note_on_c, 1, 76, 0
5, 247925, Note_on_c, 1, 79, 100
5, 247983, Note_on_c, 1, 79, 0
5, 247985, Note_on_c, 1, 75, 100
5, 248043, Note_on_c, 1, 75, 0
5, 248045, Note_on_c, 1, 76, 100
5, 248103, Note_on_c, 1, 76, 0
5, 248105, Note_on_c, 1, 71, 100
5, 248160, Note_on_c, 1, 71, 0
5, 248160, Note_on_c, 1, 71, 100
5, 248220, Note_on_c, 1, 71, 0
5, 248220, Note_on_c, 1, 73, 100
5, 248340, Note_on_c, 1, 73, 0
5, 248460, Note_on_c, 1, 69, 100
5, 248518, Note_on_c, 1, 69, 0
5, 248520, Note_on_c, 1, 69, 100
5, 248578, Note_on_c, 1, 69, 0
5, 248580, Note_on_c, 1, 74, 100
5, 248638, Note_on_c, 1, 74, 0
5, 248640, Note_on_c, 1, 78, 100
5, 248698, Note_on_c, 1, 78, 0
5, 248700, Note_on_c, 1, 73, 100
5, 248758, Note_on_c, 1, 73, 0
5, 248760, Note_on_c, 1, 74, 100
5, 248818, Note_on_c, 1, 74, 0
5, 248820, Note_on_c, 1, 69, 100
5, 248878, Note_on_c, 1, 69, 0
5, 248880, Note_on_c, 1, 71, 100
5, 249000, Note_on_c, 1, 71, 0
5, 249000, Note_on_c, 1, 59, 100
5, 249060, Note_on_c, 1, 59, 0
5, 249060, Note_on_c, 1, 62, 100
5, 249180, Note_on_c, 1, 62, 0
5, 249180, Note_on_c, 1, 67, 100
5, 249240, Note_on_c, 1, 67, 0
5, 249240, Note_on_c, 1, 69, 100
5, 249360, Note_on_c, 1, 69, 0
5, 249360, Note_on_c, 1, 57, 100
5, 249420, Note_on_c, 1, 57, 0
5, 249420, Note_on_c, 1, 62, 100
5, 249540, Note_on_c, 1, 62, 0
5, 249540, Note_on_c, 1, 66, 100
5, 249600, Note_on_c, 1, 66, 0
5, 249600, Note_on_c, 1, 67, 100
5, 249718, Note_on_c, 1, 67, 0
5, 249720, Note_on_c, 1, 71, 100
5, 249778, Note_on_c, 1, 71, 0
5, 249780, Note_on_c, 1, 62, 100
5, 249898, Note_on_c, 1, 62, 0
5, 249900, Note_on_c, 1, 71, 100
5, 249958, Note_on_c, 1, 71, 0
5, 249960, Note_on_c, 1, 66, 100
5, 250078, Note_on_c, 1, 66, 0
5, 250080, Note_on_c, 1, 69, 100
5, 250138, Note_on_c, 1, 69, 0
5, 250140, Note_on_c, 1, 62, 100
5, 250260, Note_on_c, 1, 62, 0
5, 250260, Note_on_c, 1, 69, 100
5, 250318, Note_on_c, 1, 69, 0
5, 250321, Note_on_c, 1, 71, 100
5, 250439, Note_on_c, 1, 71, 0
5, 250441, Note_on_c, 1, 64, 100
5, 250499, Note_on_c, 1, 64, 0
5, 250501, Note_on_c, 1, 71, 100
5, 250619, Note_on_c, 1, 71, 0
5, 250621, Note_on_c, 1, 74, 100
5, 250679, Note_on_c, 1, 74, 0
5, 250681, Note_on_c, 1, 73, 100
5, 250739, Note_on_c, 1, 73, 0
5, 250741, Note_on_c, 1, 71, 100
5, 250799, Note_on_c, 1, 71, 0
5, 250801, Note_on_c, 1, 69, 100
5, 250859, Note_on_c, 1, 69, 0
5, 250861, Note_on_c, 1, 76, 100
5, 251099, Note_on_c, 1, 76, 0
5, 251101, Note_on_c, 1, 73, 100
5, 251159, Note_on_c, 1, 73, 0
5, 251161, Note_on_c, 1, 74, 100
5, 251219, Note_on_c, 1, 74, 0
5, 251221, Note_on_c, 1, 66, 100
5, 251279, Note_on_c, 1, 66, 0
5, 251281, Note_on_c, 1, 67, 100
5, 251339, Note_on_c, 1, 67, 0
5, 251341, Note_on_c, 1, 64, 100
5, 251399, Note_on_c, 1, 64, 0
5, 251401, Note_on_c, 1, 62, 100
5, 251699, Note_on_c, 1, 62, 0
5, 251701, Note_on_c, 1, 62, 100
5, 251759, Note_on_c, 1, 62, 0
5, 251760, Note_on_c, 1, 62, 100
5, 251820, Note_on_c, 1, 62, 0
5, 251820, Note_on_c, 1, 66, 100
5, 251880, Note_on_c, 1, 66, 0
5, 251880, Note_on_c, 1, 69, 100
5, 251940, Note_on_c, 1, 69, 0
5, 251940, Note_on_c, 1, 60, 100
5, 252000, Note_on_c, 1, 60, 0
5, 252000, Note_on_c, 1, 59, 100
5, 252058, Note_on_c, 1, 59, 0
5, 252060, Note_on_c, 1, 57, 100
5, 252118, Note_on_c, 1, 57, 0
5, 252120, Note_on_c, 1, 59, 100
5, 252178, Note_on_c, 1, 59, 0
5, 252180, Note_on_c, 1, 55, 100
5, 252238, Note_on_c, 1, 55, 0
5, 252240, Note_on_c, 1, 59, 100
5, 252298, Note_on_c, 1, 59, 0
5, 252300, Note_on_c, 1, 62, 100
5, 252358, Note_on_c, 1, 62, 0
5, 252360, Note_on_c, 1, 59, 100
5, 252418, Note_on_c, 1, 59, 0
5, 252420, Note_on_c, 1, 62, 100
5, 252478, Note_on_c, 1, 62, 0
5, 252485, Note_on_c, 1, 64, 100
5, 252543, Note_on_c, 1, 64, 0
5, 252545, Note_on_c, 1, 68, 100
5, 252603, Note_on_c, 1, 68, 0
5, 252605, Note_on_c, 1, 71, 100
5, 252663, Note_on_c, 1, 71, 0
5, 252665, Note_on_c, 1, 62, 100
5, 252723, Note_on_c, 1, 62, 0
5, 252725, Note_on_c, 1, 61, 100
5, 252783, Note_on_c, 1, 61, 0
5, 252785, Note_on_c, 1, 59, 100
5, 252843, Note_on_c, 1, 59, 0
5, 252845, Note_on_c, 1, 61, 100
5, 252903, Note_on_c, 1, 61, 0
5, 252905, Note_on_c, 1, 57, 100
5, 252906, Note_on_c, 1, 57, 0
5, 252960, Note_on_c, 1, 61, 100
5, 253018, Note_on_c, 1, 61, 0
5, 253020, Note_on_c, 1, 64, 100
5, 253078, Note_on_c, 1, 64, 0
5, 253080, Note_on_c, 1, 61, 100
5, 253138, Note_on_c, 1, 61, 0
5, 253140, Note_on_c, 1, 64, 100
5, 253198, Note_on_c, 1, 64, 0
5, 253201, Note_on_c, 1, 66, 100
5, 253259, Note_on_c, 1, 66, 0
5, 253261, Note_on_c, 1, 70, 100
5, 253319, Note_on_c, 1, 70, 0
5, 253321, Note_on_c, 1, 73, 100
5, 253379, Note_on_c, 1, 73, 0
5, 253381, Note_on_c, 1, 64, 100
5, 253439, Note_on_c, 1, 64, 0
5, 253441, Note_on_c, 1, 62, 100
5, 253499, Note_on_c, 1, 62, 0
5, 253501, Note_on_c, 1, 61, 100
5, 253559, Note_on_c, 1, 61, 0
5, 253561, Note_on_c, 1, 62, 100
5, 253619, Note_on_c, 1, 62, 0
5, 253621, Note_on_c, 1, 59, 100
5, 253679, Note_on_c, 1, 59, 0
5, 253681, Note_on_c, 1, 62, 100
5, 253739, Note_on_c, 1, 62, 0
5, 253741, Note_on_c, 1, 66, 100
5, 253799, Note_on_c, 1, 66, 0
5, 253801, Note_on_c, 1, 62, 100
5, 253859, Note_on_c, 1, 62, 0
5, 253861, Note_on_c, 1, 66, 100
5, 253919, Note_on_c, 1, 66, 0
5, 253920, Note_on_c, 1, 68, 100
5, 253980, Note_on_c, 1, 68, 0
5, 253980, Note_on_c, 1, 71, 100
5, 254040, Note_on_c, 1, 71, 0
5, 254040, Note_on_c, 1, 74, 100
5, 254100, Note_on_c, 1, 74, 0
5, 254100, Note_on_c, 1, 69, 100
5, 254160, Note_on_c, 1, 69, 0
5, 254160, Note_on_c, 1, 68, 100
5, 254218, Note_on_c, 1, 68, 0
5, 254220, Note_on_c, 1, 66, 100
5, 254278, Note_on_c, 1, 66, 0
5, 254280, Note_on_c, 1, 65, 100
5, 254338, Note_on_c, 1, 65, 0
5, 254340, Note_on_c, 1, 68, 100
5, 254398, Note_on_c, 1, 68, 0
5, 254400, Note_on_c, 1, 71, 100
5, 254458, Note_on_c, 1, 71, 0
5, 254460, Note_on_c, 1, 62, 100
5, 254518, Note_on_c, 1, 62, 0
5, 254520, Note_on_c, 1, 61, 100
5, 254578, Note_on_c, 1, 61, 0
5, 254580, Note_on_c, 1, 59, 100
5, 254638, Note_on_c, 1, 59, 0
5, 254645, Note_on_c, 1, 66, 100
5, 254703, Note_on_c, 1, 66, 0
5, 254705, Note_on_c, 1, 69, 100
5, 254763, Note_on_c, 1, 69, 0
5, 254765, Note_on_c, 1, 68, 100
5, 254883, Note_on_c, 1, 68, 0
5, 254885, Note_on_c, 1, 62, 100
5, 254943, Note_on_c, 1, 62, 0
5, 254945, Note_on_c, 1, 61, 100
5, 255063, Note_on_c, 1, 61, 0
5, 255065, Note_on_c, 1, 71, 100
5, 255123, Note_on_c, 1, 71, 0
5, 255125, Note_on_c, 1, 69, 100
5, 255243, Note_on_c, 1, 69, 0
5, 255245, Note_on_c, 1, 64, 100
5, 255303, Note_on_c, 1, 64, 0
5, 255305, Note_on_c, 1, 63, 100
5, 255362, Note_on_c, 1, 63, 0
5, 255421, Note_on_c, 1, 73, 100
5, 255479, Note_on_c, 1, 73, 0
5, 255481, Note_on_c, 1, 71, 100
5, 255599, Note_on_c, 1, 71, 0
5, 255601, Note_on_c, 1, 66, 100
5, 255659, Note_on_c, 1, 66, 0
5, 255661, Note_on_c, 1, 65, 100
5, 255779, Note_on_c, 1, 65, 0
5, 255781, Note_on_c, 1, 74, 100
5, 255839, Note_on_c, 1, 74, 0
5, 255841, Note_on_c, 1, 73, 100
5, 255899, Note_on_c, 1, 73, 0
5, 255961, Note_on_c, 1, 65, 100
5, 256019, Note_on_c, 1, 65, 0
5, 256021, Note_on_c, 1, 66, 100
5, 256079, Note_on_c, 1, 66, 0
5, 256080, Note_on_c, 1, 74, 100
5, 256140, Note_on_c, 1, 74, 0
5, 256140, Note_on_c, 1, 65, 100
5, 256200, Note_on_c, 1, 65, 0
5, 256200, Note_on_c, 1, 66, 100
5, 256260, Note_on_c, 1, 66, 0
5, 256260, Note_on_c, 1, 73, 100
5, 256320, Note_on_c, 1, 73, 0
5, 256320, Note_on_c, 1, 65, 100
5, 256378, Note_on_c, 1, 65, 0
5, 256380, Note_on_c, 1, 66, 100
5, 256438, Note_on_c, 1, 66, 0
5, 256440, Note_on_c, 1, 71, 100
5, 256498, Note_on_c, 1, 71, 0
5, 256500, Note_on_c, 1, 65, 100
5, 256558, Note_on_c, 1, 65, 0
5, 256560, Note_on_c, 1, 66, 100
5, 256618, Note_on_c, 1, 66, 0
5, 256620, Note_on_c, 1, 69, 100
5, 256678, Note_on_c, 1, 69, 0
5, 256680, Note_on_c, 1, 65, 100
5, 256738, Note_on_c, 1, 65, 0
5, 256740, Note_on_c, 1, 66, 100
5, 256798, Note_on_c, 1, 66, 0
5, 256805, Note_on_c, 1, 68, 100
5, 256863, Note_on_c, 1, 68, 0
5, 256865, Note_on_c, 1, 71, 100
5, 256923, Note_on_c, 1, 71, 0
5, 256925, Note_on_c, 1, 74, 100
5, 256983, Note_on_c, 1, 74, 0
5, 256985, Note_on_c, 1, 71, 100
5, 257043, Note_on_c, 1, 71, 0
5, 257045, Note_on_c, 1, 68, 100
5, 257103, Note_on_c, 1, 68, 0
5, 257105, Note_on_c, 1, 66, 100
5, 257163, Note_on_c, 1, 66, 0
5, 257165, Note_on_c, 1, 65, 100
5, 257223, Note_on_c, 1, 65, 0
5, 257225, Note_on_c, 1, 68, 100
5, 257283, Note_on_c, 1, 68, 0
5, 257285, Note_on_c, 1, 73, 100
5, 257343, Note_on_c, 1, 73, 0
5, 257345, Note_on_c, 1, 71, 100
5, 257403, Note_on_c, 1, 71, 0
5, 257405, Note_on_c, 1, 69, 100
5, 257463, Note_on_c, 1, 69, 0
5, 257465, Note_on_c, 1, 68, 100
5, 257520, Note_on_c, 1, 68, 0
5, 257521, Note_on_c, 1, 69, 100
5, 257579, Note_on_c, 1, 69, 0
5, 257581, Note_on_c, 1, 66, 100
5, 257639, Note_on_c, 1, 66, 0
5, 257641, Note_on_c, 1, 61, 100
5, 257699, Note_on_c, 1, 61, 0
5, 257701, Note_on_c, 1, 65, 100
5, 257759, Note_on_c, 1, 65, 0
5, 257761, Note_on_c, 1, 68, 100
5, 257819, Note_on_c, 1, 68, 0
5, 257821, Note_on_c, 1, 71, 100
5, 257879, Note_on_c, 1, 71, 0
5, 257881, Note_on_c, 1, 69, 100
5, 257939, Note_on_c, 1, 69, 0
5, 257941, Note_on_c, 1, 68, 100
5, 257999, Note_on_c, 1, 68, 0
5, 258001, Note_on_c, 1, 66, 100
5, 258059, Note_on_c, 1, 66, 0
5, 258061, Note_on_c, 1, 78, 100
5, 258179, Note_on_c, 1, 78, 0
5, 258181, Note_on_c, 1, 69, 100
5, 258239, Note_on_c, 1, 69, 0
5, 258240, Note_on_c, 1, 71, 100
5, 258270, Note_on_c, 1, 71, 0
5, 258300, Note_on_c, 1, 69, 100
5, 258330, Note_on_c, 1, 69, 0
5, 258360, Note_on_c, 1, 68, 100
5, 258390, Note_on_c, 1, 68, 0
5, 258420, Note_on_c, 1, 80, 100
5, 258540, Note_on_c, 1, 80, 0
5, 258540, Note_on_c, 1, 71, 100
5, 258598, Note_on_c, 1, 71, 0
5, 258600, Note_on_c, 1, 73, 100
5, 258660, Note_on_c, 1, 73, 0
5, 258660, Note_on_c, 1, 71, 100
5, 258720, Note_on_c, 1, 71, 0
5, 258720, Note_on_c, 1, 69, 100
5, 258780, Note_on_c, 1, 69, 0
5, 258780, Note_on_c, 1, 71, 100
5, 258838, Note_on_c, 1, 71, 0
5, 258840, Note_on_c, 1, 68, 100
5, 258898, Note_on_c, 1, 68, 0
5, 258900, Note_on_c, 1, 71, 100
5, 258958, Note_on_c, 1, 71, 0
5, 258965, Note_on_c, 1, 66, 100
5, 259023, Note_on_c, 1, 66, 0
5, 259025, Note_on_c, 1, 68, 100
5, 259083, Note_on_c, 1, 68, 0
5, 259085, Note_on_c, 1, 69, 100
5, 259143, Note_on_c, 1, 69, 0
5, 259145, Note_on_c, 1, 69, 100
5, 259203, Note_on_c, 1, 69, 0
5, 259205, Note_on_c, 1, 68, 100
5, 259263, Note_on_c, 1, 68, 0
5, 259265, Note_on_c, 1, 66, 100
5, 259323, Note_on_c, 1, 66, 0
5, 259325, Note_on_c, 1, 78, 100
5, 259443, Note_on_c, 1, 78, 0
5, 259445, Note_on_c, 1, 71, 100
5, 259503, Note_on_c, 1, 71, 0
5, 259505, Note_on_c, 1, 78, 100
5, 259623, Note_on_c, 1, 78, 0
5, 259625, Note_on_c, 1, 69, 100
5, 259680, Note_on_c, 1, 69, 0
5, 259681, Note_on_c, 1, 74, 100
5, 259799, Note_on_c, 1, 74, 0
5, 259801, Note_on_c, 1, 71, 100
5, 259859, Note_on_c, 1, 71, 0
5, 259861, Note_on_c, 1, 65, 100
5, 259979, Note_on_c, 1, 65, 0
5, 259981, Note_on_c, 1, 66, 100
5, 260039, Note_on_c, 1, 66, 0
5, 260040, Note_on_c, 1, 66, 100
5, 260100, Note_on_c, 1, 66, 0
5, 260100, Note_on_c, 1, 68, 100
5, 260341, Note_on_c, 1, 61, 100
5, 260398, Note_on_c, 1, 68, 0
5, 260399, Note_on_c, 1, 61, 0
5, 260400, Note_on_c, 1, 61, 100
5, 260430, Note_on_c, 1, 61, 0
5, 260460, Note_on_c, 1, 66, 100
5, 260490, Note_on_c, 1, 66, 0
5, 260520, Note_on_c, 1, 69, 100
5, 260550, Note_on_c, 1, 69, 0
5, 260580, Note_on_c, 1, 65, 100
5, 260610, Note_on_c, 1, 65, 0
5, 260640, Note_on_c, 1, 66, 100
5, 260698, Note_on_c, 1, 66, 0
5, 260700, Note_on_c, 1, 61, 100
5, 260758, Note_on_c, 1, 61, 0
5, 260760, Note_on_c, 1, 62, 100
5, 260940, Note_on_c, 1, 62, 0
5, 261060, Note_on_c, 1, 59, 100
5, 261090, Note_on_c, 1, 59, 0
5, 261123, Note_on_c, 1, 59, 100
5, 261181, Note_on_c, 1, 59, 0
5, 261183, Note_on_c, 1, 64, 100
5, 261241, Note_on_c, 1, 64, 0
5, 261243, Note_on_c, 1, 68, 100
5, 261301, Note_on_c, 1, 68, 0
5, 261303, Note_on_c, 1, 63, 100
5, 261361, Note_on_c, 1, 63, 0
5, 261363, Note_on_c, 1, 64, 100
5, 261421, Note_on_c, 1, 64, 0
5, 261423, Note_on_c, 1, 59, 100
5, 261481, Note_on_c, 1, 59, 0
5, 261483, Note_on_c, 1, 61, 100
5, 261661, Note_on_c, 1, 61, 0
5, 261783, Note_on_c, 1, 73, 100
5, 261840, Note_on_c, 1, 73, 0
5, 261841, Note_on_c, 1, 66, 100
5, 261899, Note_on_c, 1, 66, 0
5, 261901, Note_on_c, 1, 65, 100
5, 261959, Note_on_c, 1, 65, 0
5, 261961, Note_on_c, 1, 66, 100
5, 262019, Note_on_c, 1, 66, 0
5, 262021, Note_on_c, 1, 74, 100
5, 262079, Note_on_c, 1, 74, 0
5, 262081, Note_on_c, 1, 73, 100
5, 262139, Note_on_c, 1, 73, 0
5, 262141, Note_on_c, 1, 71, 100
5, 262199, Note_on_c, 1, 71, 0
5, 262201, Note_on_c, 1, 66, 100
5, 262259, Note_on_c, 1, 66, 0
5, 262261, Note_on_c, 1, 65, 100
5, 262319, Note_on_c, 1, 65, 0
5, 262321, Note_on_c, 1, 66, 100
5, 262379, Note_on_c, 1, 66, 0
5, 262381, Note_on_c, 1, 73, 100
5, 262439, Note_on_c, 1, 73, 0
5, 262441, Note_on_c, 1, 71, 100
5, 262499, Note_on_c, 1, 71, 0
5, 262501, Note_on_c, 1, 69, 100
5, 262559, Note_on_c, 1, 69, 0
5, 262560, Note_on_c, 1, 66, 100
5, 262620, Note_on_c, 1, 66, 0
5, 262620, Note_on_c, 1, 65, 100
5, 262680, Note_on_c, 1, 65, 0
5, 262680, Note_on_c, 1, 66, 100
5, 262740, Note_on_c, 1, 66, 0
5, 262740, Note_on_c, 1, 71, 100
5, 262800, Note_on_c, 1, 71, 0
5, 262800, Note_on_c, 1, 69, 100
5, 262858, Note_on_c, 1, 69, 0
5, 262860, Note_on_c, 1, 68, 100
5, 262918, Note_on_c, 1, 68, 0
5, 262920, Note_on_c, 1, 66, 100
5, 262978, Note_on_c, 1, 66, 0
5, 262980, Note_on_c, 1, 65, 100
5, 263038, Note_on_c, 1, 65, 0
5, 263040, Note_on_c, 1, 66, 100
5, 263098, Note_on_c, 1, 66, 0
5, 263100, Note_on_c, 1, 69, 100
5, 263158, Note_on_c, 1, 69, 0
5, 263160, Note_on_c, 1, 68, 100
5, 263218, Note_on_c, 1, 68, 0
5, 263220, Note_on_c, 1, 66, 100
5, 263278, Note_on_c, 1, 66, 0
5, 263285, Note_on_c, 1, 68, 100
5, 263343, Note_on_c, 1, 68, 0
5, 263345, Note_on_c, 1, 71, 100
5, 263403, Note_on_c, 1, 71, 0
5, 263405, Note_on_c, 1, 74, 100
5, 263463, Note_on_c, 1, 74, 0
5, 263465, Note_on_c, 1, 73, 100
5, 263523, Note_on_c, 1, 73, 0
5, 263525, Note_on_c, 1, 71, 100
5, 263583, Note_on_c, 1, 71, 0
5, 263585, Note_on_c, 1, 69, 100
5, 263643, Note_on_c, 1, 69, 0
5, 263645, Note_on_c, 1, 68, 100
5, 263703, Note_on_c, 1, 68, 0
5, 263705, Note_on_c, 1, 66, 100
5, 263763, Note_on_c, 1, 66, 0
5, 263765, Note_on_c, 1, 65, 100
5, 263823, Note_on_c, 1, 65, 0
5, 263825, Note_on_c, 1, 62, 100
5, 263883, Note_on_c, 1, 62, 0
5, 263885, Note_on_c, 1, 61, 100
5, 263943, Note_on_c, 1, 61, 0
5, 263945, Note_on_c, 1, 59, 100
5, 264000, Note_on_c, 1, 59, 0
5, 264001, Note_on_c, 1, 57, 100
5, 264119, Note_on_c, 1, 57, 0
5, 264121, Note_on_c, 1, 73, 100
5, 264179, Note_on_c, 1, 73, 0
5, 264181, Note_on_c, 1, 61, 100
5, 264239, Note_on_c, 1, 61, 0
5, 264241, Note_on_c, 1, 66, 100
5, 264299, Note_on_c, 1, 66, 0
5, 264301, Note_on_c, 1, 65, 100
5, 264359, Note_on_c, 1, 65, 0
5, 264361, Note_on_c, 1, 66, 100
5, 264420, Note_on_c, 1, 61, 100
5, 264480, Note_on_c, 1, 57, 100
5, 264540, Note_on_c, 1, 54, 100
5, 264598, Note_on_c, 1, 57, 0
5, 264600, Note_on_c, 1, 61, 0
5, 264659, Note_on_c, 1, 66, 0
5, 264660, Note_on_c, 1, 54, 0
5, 264660, Note_on_c, 1, 66, 100
5, 264718, Note_on_c, 1, 66, 0
5, 264722, Note_on_c, 1, 70, 100
5, 264780, Note_on_c, 1, 70, 0
5, 264782, Note_on_c, 1, 73, 100
5, 264840, Note_on_c, 1, 73, 0
5, 264842, Note_on_c, 1, 67, 100
5, 264960, Note_on_c, 1, 67, 0
5, 264962, Note_on_c, 1, 66, 100
5, 265020, Note_on_c, 1, 66, 0
5, 265022, Note_on_c, 1, 65, 100
5, 265080, Note_on_c, 1, 65, 0
5, 265082, Note_on_c, 1, 66, 100
5, 265140, Note_on_c, 1, 66, 0
5, 265142, Note_on_c, 1, 73, 100
5, 265200, Note_on_c, 1, 73, 0
5, 265202, Note_on_c, 1, 66, 100
5, 265320, Note_on_c, 1, 66, 0
5, 265322, Note_on_c, 1, 65, 100
5, 265380, Note_on_c, 1, 65, 0
5, 265382, Note_on_c, 1, 63, 100
5, 265440, Note_on_c, 1, 63, 0
5, 265441, Note_on_c, 1, 64, 100
5, 265499, Note_on_c, 1, 64, 0
5, 265501, Note_on_c, 1, 73, 100
5, 265559, Note_on_c, 1, 73, 0
5, 265561, Note_on_c, 1, 64, 100
5, 265679, Note_on_c, 1, 64, 0
5, 265681, Note_on_c, 1, 62, 100
5, 265739, Note_on_c, 1, 62, 0
5, 265741, Note_on_c, 1, 61, 100
5, 265799, Note_on_c, 1, 61, 0
5, 265801, Note_on_c, 1, 62, 100
5, 265859, Note_on_c, 1, 62, 0
5, 265861, Note_on_c, 1, 64, 100
5, 265919, Note_on_c, 1, 64, 0
5, 265921, Note_on_c, 1, 66, 100
5, 265979, Note_on_c, 1, 66, 0
5, 265981, Note_on_c, 1, 59, 100
5, 266039, Note_on_c, 1, 59, 0
5, 266041, Note_on_c, 1, 62, 100
5, 266099, Note_on_c, 1, 62, 0
5, 266101, Note_on_c, 1, 66, 100
5, 266159, Note_on_c, 1, 66, 0
5, 266161, Note_on_c, 1, 69, 100
5, 266399, Note_on_c, 1, 69, 0
5, 266401, Note_on_c, 1, 67, 100
5, 266459, Note_on_c, 1, 67, 0
5, 266461, Note_on_c, 1, 66, 100
5, 266519, Note_on_c, 1, 66, 0
5, 266521, Note_on_c, 1, 67, 100
5, 266759, Note_on_c, 1, 67, 0
5, 266761, Note_on_c, 1, 66, 100
5, 266819, Note_on_c, 1, 66, 0
5, 266821, Note_on_c, 1, 64, 100
5, 266879, Note_on_c, 1, 64, 0
5, 266880, Note_on_c, 1, 66, 100
5, 267120, Note_on_c, 1, 66, 0
5, 267120, Note_on_c, 1, 64, 100
5, 267178, Note_on_c, 1, 64, 0
5, 267180, Note_on_c, 1, 63, 100
5, 267238, Note_on_c, 1, 63, 0
5, 267240, Note_on_c, 1, 64, 100
5, 267420, Note_on_c, 1, 64, 0
5, 267540, Note_on_c, 1, 76, 100
5, 267540, Note_on_c, 1, 71, 100
5, 267540, Note_on_c, 1, 67, 100
5, 267600, Note_on_c, 1, 67, 0
5, 267600, Note_on_c, 1, 71, 0
5, 267600, Note_on_c, 1, 76, 0
5, 267603, Note_on_c, 1, 72, 100
5, 267603, Note_on_c, 1, 69, 100
5, 267721, Note_on_c, 1, 69, 0
5, 267721, Note_on_c, 1, 72, 0
5, 267783, Note_on_c, 1, 71, 100
5, 267783, Note_on_c, 1, 67, 100
5, 267901, Note_on_c, 1, 67, 0
5, 267901, Note_on_c, 1, 71, 0
5, 267903, Note_on_c, 1, 66, 100
5, 267961, Note_on_c, 1, 66, 0
5, 267963, Note_on_c, 1, 69, 100
5, 267963, Note_on_c, 1, 64, 100
5, 268081, Note_on_c, 1, 64, 0
5, 268081, Note_on_c, 1, 69, 0
5, 268143, Note_on_c, 1, 69, 100
5, 268143, Note_on_c, 1, 59, 100
5, 268261, Note_on_c, 1, 59, 0
5, 268261, Note_on_c, 1, 69, 0
5, 268321, Note_on_c, 1, 67, 100
5, 268321, Note_on_c, 1, 59, 100
5, 268439, Note_on_c, 1, 59, 0
5, 268439, Note_on_c, 1, 67, 0
5, 268501, Note_on_c, 1, 64, 100
5, 268501, Note_on_c, 1, 60, 100
5, 268619, Note_on_c, 1, 60, 0
5, 268619, Note_on_c, 1, 64, 0
5, 268681, Note_on_c, 1, 63, 100
5, 268979, Note_on_c, 1, 63, 0
5, 268981, Note_on_c, 1, 59, 100
5, 269039, Note_on_c, 1, 59, 0
5, 269040, Note_on_c, 1, 64, 100
5, 269098, Note_on_c, 1, 64, 0
5, 269100, Note_on_c, 1, 67, 100
5, 269158, Note_on_c, 1, 67, 0
5, 269160, Note_on_c, 1, 66, 100
5, 269278, Note_on_c, 1, 66, 0
5, 269280, Note_on_c, 1, 60, 100
5, 269338, Note_on_c, 1, 60, 0
5, 269340, Note_on_c, 1, 59, 100
5, 269458, Note_on_c, 1, 59, 0
5, 269460, Note_on_c, 1, 69, 100
5, 269520, Note_on_c, 1, 69, 0
5, 269520, Note_on_c, 1, 67, 100
5, 269640, Note_on_c, 1, 67, 0
5, 269640, Note_on_c, 1, 62, 100
5, 269700, Note_on_c, 1, 62, 0
5, 269700, Note_on_c, 1, 61, 100
5, 269820, Note_on_c, 1, 61, 0
5, 269825, Note_on_c, 1, 71, 100
5, 269883, Note_on_c, 1, 71, 0
5, 269885, Note_on_c, 1, 69, 100
5, 270003, Note_on_c, 1, 69, 0
5, 270005, Note_on_c, 1, 64, 100
5, 270063, Note_on_c, 1, 64, 0
5, 270065, Note_on_c, 1, 63, 100
5, 270183, Note_on_c, 1, 63, 0
5, 270185, Note_on_c, 1, 72, 100
5, 270243, Note_on_c, 1, 72, 0
5, 270245, Note_on_c, 1, 71, 100
5, 270303, Note_on_c, 1, 71, 0
5, 270360, Note_on_c, 1, 63, 100
5, 270420, Note_on_c, 1, 63, 0
5, 270420, Note_on_c, 1, 64, 100
5, 270480, Note_on_c, 1, 64, 0
5, 270483, Note_on_c, 1, 72, 100
5, 270541, Note_on_c, 1, 72, 0
5, 270543, Note_on_c, 1, 63, 100
5, 270601, Note_on_c, 1, 63, 0
5, 270603, Note_on_c, 1, 64, 100
5, 270661, Note_on_c, 1, 64, 0
5, 270663, Note_on_c, 1, 71, 100
5, 270721, Note_on_c, 1, 71, 0
5, 270723, Note_on_c, 1, 63, 100
5, 270781, Note_on_c, 1, 63, 0
5, 270783, Note_on_c, 1, 64, 100
5, 270841, Note_on_c, 1, 64, 0
5, 270843, Note_on_c, 1, 69, 100
5, 271320, Note_on_c, 1, 67, 100
5, 271324, Note_on_c, 1, 69, 0
5, 271378, Note_on_c, 1, 67, 0
5, 271380, Note_on_c, 1, 69, 100
5, 271410, Note_on_c, 1, 69, 0
5, 271410, Note_on_c, 1, 67, 100
5, 271440, Note_on_c, 1, 67, 0
5, 271440, Note_on_c, 1, 69, 100
5, 271470, Note_on_c, 1, 69, 0
5, 271470, Note_on_c, 1, 67, 100
5, 271500, Note_on_c, 1, 67, 0
5, 271500, Note_on_c, 1, 66, 100
5, 271530, Note_on_c, 1, 66, 0
5, 271530, Note_on_c, 1, 67, 100
5, 271560, Note_on_c, 1, 67, 0
5, 271560, Note_on_c, 1, 74, 100
5, 271620, Note_on_c, 1, 74, 0
5, 271620, Note_on_c, 1, 71, 100
5, 271680, Note_on_c, 1, 71, 0
5, 271680, Note_on_c, 1, 67, 100
5, 271740, Note_on_c, 1, 67, 0
5, 271740, Note_on_c, 1, 66, 100
5, 271798, Note_on_c, 1, 66, 0
5, 271800, Note_on_c, 1, 67, 100
5, 271858, Note_on_c, 1, 67, 0
5, 271860, Note_on_c, 1, 62, 100
5, 271918, Note_on_c, 1, 62, 0
5, 271925, Note_on_c, 1, 64, 100
5, 271983, Note_on_c, 1, 64, 0
5, 271985, Note_on_c, 1, 69, 100
5, 272043, Note_on_c, 1, 69, 0
5, 272045, Note_on_c, 1, 67, 100
5, 272163, Note_on_c, 1, 67, 0
5, 272165, Note_on_c, 1, 69, 100
5, 272223, Note_on_c, 1, 69, 0
5, 272225, Note_on_c, 1, 66, 100
5, 272283, Note_on_c, 1, 66, 0
5, 272285, Note_on_c, 1, 67, 100
5, 272343, Note_on_c, 1, 67, 0
5, 272345, Note_on_c, 1, 72, 100
5, 272403, Note_on_c, 1, 72, 0
5, 272405, Note_on_c, 1, 71, 100
5, 272523, Note_on_c, 1, 71, 0
5, 272525, Note_on_c, 1, 72, 100
5, 272583, Note_on_c, 1, 72, 0
5, 272585, Note_on_c, 1, 69, 100
5, 272640, Note_on_c, 1, 69, 0
5, 272641, Note_on_c, 1, 71, 100
5, 272699, Note_on_c, 1, 71, 0
5, 272701, Note_on_c, 1, 76, 100
5, 272759, Note_on_c, 1, 76, 0
5, 272761, Note_on_c, 1, 74, 100
5, 272879, Note_on_c, 1, 74, 0
5, 272881, Note_on_c, 1, 76, 100
5, 272939, Note_on_c, 1, 76, 0
5, 272941, Note_on_c, 1, 72, 100
5, 272999, Note_on_c, 1, 72, 0
5, 273000, Note_on_c, 1, 76, 100
5, 273030, Note_on_c, 1, 76, 0
5, 273030, Note_on_c, 1, 74, 100
5, 273060, Note_on_c, 1, 74, 0
5, 273060, Note_on_c, 1, 76, 100
5, 273090, Note_on_c, 1, 76, 0
5, 273090, Note_on_c, 1, 74, 100
5, 273120, Note_on_c, 1, 74, 0
5, 273120, Note_on_c, 1, 76, 100
5, 273150, Note_on_c, 1, 76, 0
5, 273150, Note_on_c, 1, 74, 100
5, 273180, Note_on_c, 1, 74, 0
5, 273180, Note_on_c, 1, 76, 100
5, 273210, Note_on_c, 1, 76, 0
5, 273210, Note_on_c, 1, 74, 100
5, 273240, Note_on_c, 1, 74, 0
5, 273240, Note_on_c, 1, 76, 100
5, 273270, Note_on_c, 1, 76, 0
5, 273270, Note_on_c, 1, 74, 100
5, 273300, Note_on_c, 1, 74, 0
5, 273300, Note_on_c, 1, 76, 100
5, 273330, Note_on_c, 1, 76, 0
5, 273330, Note_on_c, 1, 74, 100
5, 273360, Note_on_c, 1, 74, 0
5, 273360, Note_on_c, 1, 76, 100
5, 273390, Note_on_c, 1, 76, 0
5, 273390, Note_on_c, 1, 74, 100
5, 273420, Note_on_c, 1, 74, 0
5, 273420, Note_on_c, 1, 76, 100
5, 273450, Note_on_c, 1, 76, 0
5, 273450, Note_on_c, 1, 74, 100
5, 273480, Note_on_c, 1, 74, 0
5, 273480, Note_on_c, 1, 76, 100
5, 273510, Note_on_c, 1, 76, 0
5, 273510, Note_on_c, 1, 74, 100
5, 273540, Note_on_c, 1, 74, 0
5, 273540, Note_on_c, 1, 76, 100
5, 273570, Note_on_c, 1, 76, 0
5, 273570, Note_on_c, 1, 74, 100
5, 273600, Note_on_c, 1, 74, 0
5, 273600, Note_on_c, 1, 76, 100
5, 273630, Note_on_c, 1, 76, 0
5, 273630, Note_on_c, 1, 74, 100
5, 273660, Note_on_c, 1, 74, 0
5, 273660, Note_on_c, 1, 76, 100
5, 273690, Note_on_c, 1, 76, 0
5, 273690, Note_on_c, 1, 74, 100
5, 273720, Note_on_c, 1, 74, 0
5, 273720, Note_on_c, 1, 76, 100
5, 273750, Note_on_c, 1, 76, 0
5, 273750, Note_on_c, 1, 74, 100
5, 273780, Note_on_c, 1, 74, 0
5, 273780, Note_on_c, 1, 76, 100
5, 273810, Note_on_c, 1, 76, 0
5, 273810, Note_on_c, 1, 74, 100
5, 273840, Note_on_c, 1, 74, 0
5, 273840, Note_on_c, 1, 76, 100
5, 273870, Note_on_c, 1, 76, 0
5, 273870, Note_on_c, 1, 74, 100
5, 273900, Note_on_c, 1, 74, 0
5, 273900, Note_on_c, 1, 76, 100
5, 273930, Note_on_c, 1, 76, 0
5, 273930, Note_on_c, 1, 74, 100
5, 273960, Note_on_c, 1, 74, 0
5, 273960, Note_on_c, 1, 76, 100
5, 273990, Note_on_c, 1, 76, 0
5, 273990, Note_on_c, 1, 74, 100
5, 274020, Note_on_c, 1, 74, 0
5, 274020, Note_on_c, 1, 76, 100
5, 274050, Note_on_c, 1, 76, 0
5, 274050, Note_on_c, 1, 74, 100
5, 274080, Note_on_c, 1, 74, 0
5, 274080, Note_on_c, 1, 76, 100
5, 274110, Note_on_c, 1, 76, 0
5, 274110, Note_on_c, 1, 74, 100
5, 274140, Note_on_c, 1, 74, 0
5, 274140, Note_on_c, 1, 76, 100
5, 274170, Note_on_c, 1, 76, 0
5, 274170, Note_on_c, 1, 74, 100
5, 274200, Note_on_c, 1, 74, 0
5, 274200, Note_on_c, 1, 76, 100
5, 274230, Note_on_c, 1, 76, 0
5, 274230, Note_on_c, 1, 74, 100
5, 274260, Note_on_c, 1, 74, 0
5, 274260, Note_on_c, 1, 76, 100
5, 274290, Note_on_c, 1, 76, 0
5, 274290, Note_on_c, 1, 74, 100
5, 274320, Note_on_c, 1, 74, 0
5, 274320, Note_on_c, 1, 76, 100
5, 274350, Note_on_c, 1, 76, 0
5, 274350, Note_on_c, 1, 74, 100
5, 274380, Note_on_c, 1, 74, 0
5, 274380, Note_on_c, 1, 76, 100
5, 274410, Note_on_c, 1, 76, 0
5, 274410, Note_on_c, 1, 74, 100
5, 274440, Note_on_c, 1, 74, 0
5, 274440, Note_on_c, 1, 76, 100
5, 274470, Note_on_c, 1, 76, 0
5, 274470, Note_on_c, 1, 74, 100
5, 274500, Note_on_c, 1, 74, 0
5, 274500, Note_on_c, 1, 76, 100
5, 274530, Note_on_c, 1, 76, 0
5, 274530, Note_on_c, 1, 74, 100
5, 274560, Note_on_c, 1, 74, 0
5, 274560, Note_on_c, 1, 76, 100
5, 274590, Note_on_c, 1, 76, 0
5, 274590, Note_on_c, 1, 74, 100
5, 274620, Note_on_c, 1, 74, 0
5, 274620, Note_on_c, 1, 76, 100
5, 274650, Note_on_c, 1, 76, 0
5, 274650, Note_on_c, 1, 74, 100
5, 274680, Note_on_c, 1, 74, 0
5, 274680, Note_on_c, 1, 76, 100
5, 274710, Note_on_c, 1, 76, 0
5, 274710, Note_on_c, 1, 74, 100
5, 274740, Note_on_c, 1, 74, 0
5, 274740, Note_on_c, 1, 76, 100
5, 274770, Note_on_c, 1, 76, 0
5, 274770, Note_on_c, 1, 74, 100
5, 274800, Note_on_c, 1, 74, 0
5, 274800, Note_on_c, 1, 76, 100
5, 274830, Note_on_c, 1, 76, 0
5, 274830, Note_on_c, 1, 74, 100
5, 274860, Note_on_c, 1, 74, 0
5, 274860, Note_on_c, 1, 76, 100
5, 274890, Note_on_c, 1, 76, 0
5, 274890, Note_on_c, 1, 74, 100
5, 274920, Note_on_c, 1, 74, 0
5, 274920, Note_on_c, 1, 72, 100
5, 274980, Note_on_c, 1, 72, 0
5, 274980, Note_on_c, 1, 74, 100
5, 275010, Note_on_c, 1, 74, 0
5, 275010, Note_on_c, 1, 72, 100
5, 275040, Note_on_c, 1, 72, 0
5, 275040, Note_on_c, 1, 74, 100
5, 275070, Note_on_c, 1, 74, 0
5, 275070, Note_on_c, 1, 72, 100
5, 275100, Note_on_c, 1, 72, 0
5, 275101, Note_on_c, 1, 71, 100
5, 275159, Note_on_c, 1, 71, 0
5, 275160, Note_on_c, 1, 72, 100
5, 275190, Note_on_c, 1, 72, 0
5, 275190, Note_on_c, 1, 71, 100
5, 275220, Note_on_c, 1, 71, 0
5, 275220, Note_on_c, 1, 72, 100
5, 275250, Note_on_c, 1, 72, 0
5, 275250, Note_on_c, 1, 71, 100
5, 275280, Note_on_c, 1, 71, 0
5, 275281, Note_on_c, 1, 69, 100
5, 275339, Note_on_c, 1, 69, 0
5, 275340, Note_on_c, 1, 71, 100
5, 275370, Note_on_c, 1, 71, 0
5, 275370, Note_on_c, 1, 69, 100
5, 275400, Note_on_c, 1, 69, 0
5, 275400, Note_on_c, 1, 71, 100
5, 275430, Note_on_c, 1, 71, 0
5, 275430, Note_on_c, 1, 69, 100
5, 275460, Note_on_c, 1, 69, 0
5, 275461, Note_on_c, 1, 67, 100
5, 275519, Note_on_c, 1, 67, 0
5, 275520, Note_on_c, 1, 69, 100
5, 275550, Note_on_c, 1, 69, 0
5, 275550, Note_on_c, 1, 67, 100
5, 275580, Note_on_c, 1, 67, 0
5, 275580, Note_on_c, 1, 69, 100
5, 275610, Note_on_c, 1, 69, 0
5, 275610, Note_on_c, 1, 67, 100
5, 275640, Note_on_c, 1, 67, 0
5, 275641, Note_on_c, 1, 66, 100
5, 275699, Note_on_c, 1, 66, 0
5, 275700, Note_on_c, 1, 67, 100
5, 275730, Note_on_c, 1, 67, 0
5, 275730, Note_on_c, 1, 66, 100
5, 275760, Note_on_c, 1, 66, 0
5, 275760, Note_on_c, 1, 67, 100
5, 275790, Note_on_c, 1, 67, 0
5, 275790, Note_on_c, 1, 66, 100
5, 275820, Note_on_c, 1, 66, 0
5, 275821, Note_on_c, 1, 64, 100
5, 275879, Note_on_c, 1, 64, 0
5, 275881, Note_on_c, 1, 64, 100
5, 276059, Note_on_c, 1, 64, 0
5, 276181, Note_on_c, 1, 61, 100
5, 276239, Note_on_c, 1, 61, 0
5, 276241, Note_on_c, 1, 69, 100
5, 276479, Note_on_c, 1, 69, 0
5, 276481, Note_on_c, 1, 67, 100
5, 276539, Note_on_c, 1, 67, 0
5, 276541, Note_on_c, 1, 66, 100
5, 276599, Note_on_c, 1, 66, 0
5, 276601, Note_on_c, 1, 67, 100
5, 276839, Note_on_c, 1, 67, 0
5, 276841, Note_on_c, 1, 66, 100
5, 276899, Note_on_c, 1, 66, 0
5, 276901, Note_on_c, 1, 64, 100
5, 276959, Note_on_c, 1, 64, 0
5, 277200, Note_on_c, 1, 66, 100
5, 277438, Note_on_c, 1, 66, 0
5, 277440, Note_on_c, 1, 64, 100
5, 277498, Note_on_c, 1, 64, 0
5, 277500, Note_on_c, 1, 63, 100
5, 277558, Note_on_c, 1, 63, 0
5, 277560, Note_on_c, 1, 64, 100
5, 277683, Note_on_c, 1, 64, 0
5, 277684, Note_on_c, 1, 70, 100
5, 277742, Note_on_c, 1, 70, 0
5, 277744, Note_on_c, 1, 73, 100
5, 277802, Note_on_c, 1, 73, 0
5, 277804, Note_on_c, 1, 67, 100
5, 277922, Note_on_c, 1, 67, 0
5, 277924, Note_on_c, 1, 66, 100
5, 277982, Note_on_c, 1, 66, 0
5, 277984, Note_on_c, 1, 65, 100
5, 278042, Note_on_c, 1, 65, 0
5, 278044, Note_on_c, 1, 66, 100
5, 278102, Note_on_c, 1, 66, 0
5, 278104, Note_on_c, 1, 73, 100
5, 278162, Note_on_c, 1, 73, 0
5, 278164, Note_on_c, 1, 66, 100
5, 278282, Note_on_c, 1, 66, 0
5, 278284, Note_on_c, 1, 65, 100
5, 278342, Note_on_c, 1, 65, 0
5, 278344, Note_on_c, 1, 63, 100
5, 278400, Note_on_c, 1, 63, 0
5, 278401, Note_on_c, 1, 64, 100
5, 278459, Note_on_c, 1, 64, 0
5, 278461, Note_on_c, 1, 73, 100
5, 278519, Note_on_c, 1, 73, 0
5, 278521, Note_on_c, 1, 64, 100
5, 278639, Note_on_c, 1, 64, 0
5, 278641, Note_on_c, 1, 62, 100
5, 278699, Note_on_c, 1, 62, 0
5, 278701, Note_on_c, 1, 61, 100
5, 278759, Note_on_c, 1, 61, 0
5, 278761, Note_on_c, 1, 62, 100
5, 278819, Note_on_c, 1, 62, 0
5, 278821, Note_on_c, 1, 66, 100
5, 278879, Note_on_c, 1, 66, 0
5, 278881, Note_on_c, 1, 71, 100
5, 278939, Note_on_c, 1, 71, 0
5, 278941, Note_on_c, 1, 74, 100
5, 279180, Note_on_c, 1, 67, 100
5, 279181, Note_on_c, 1, 74, 0
5, 279240, Note_on_c, 1, 67, 0
5, 279240, Note_on_c, 1, 71, 100
5, 279300, Note_on_c, 1, 71, 0
5, 279300, Note_on_c, 1, 64, 100
5, 279540, Note_on_c, 1, 64, 0
5, 279540, Note_on_c, 1, 61, 100
5, 279598, Note_on_c, 1, 61, 0
5, 279600, Note_on_c, 1, 64, 100
5, 279658, Note_on_c, 1, 64, 0
5, 279660, Note_on_c, 1, 69, 100
5, 279900, Note_on_c, 1, 69, 0
5, 279903, Note_on_c, 1, 66, 100
5, 279961, Note_on_c, 1, 66, 0
5, 279963, Note_on_c, 1, 69, 100
5, 280021, Note_on_c, 1, 69, 0
5, 280023, Note_on_c, 1, 62, 100
5, 280261, Note_on_c, 1, 62, 0
5, 280263, Note_on_c, 1, 59, 100
5, 280321, Note_on_c, 1, 59, 0
5, 280323, Note_on_c, 1, 62, 100
5, 280381, Note_on_c, 1, 62, 0
5, 280383, Note_on_c, 1, 67, 100
5, 280619, Note_on_c, 1, 67, 0
5, 280621, Note_on_c, 1, 64, 100
5, 280679, Note_on_c, 1, 64, 0
5, 280681, Note_on_c, 1, 67, 100
5, 280739, Note_on_c, 1, 67, 0
5, 280741, Note_on_c, 1, 73, 100
5, 280979, Note_on_c, 1, 73, 0
5, 280981, Note_on_c, 1, 70, 100
5, 281039, Note_on_c, 1, 70, 0
5, 281041, Note_on_c, 1, 73, 100
5, 281099, Note_on_c, 1, 73, 0
5, 281101, Note_on_c, 1, 78, 100
5, 281219, Note_on_c, 1, 78, 0
5, 281580, Note_on_c, 1, 59, 100
5, 281638, Note_on_c, 1, 59, 0
5, 281640, Note_on_c, 1, 58, 100
5, 281698, Note_on_c, 1, 58, 0
5, 281700, Note_on_c, 1, 54, 100
5, 281758, Note_on_c, 1, 54, 0
5, 281760, Note_on_c, 1, 58, 100
5, 281818, Note_on_c, 1, 58, 0
5, 281820, Note_on_c, 1, 61, 100
5, 281878, Note_on_c, 1, 61, 0
5, 281880, Note_on_c, 1, 65, 100
5, 281938, Note_on_c, 1, 65, 0
5, 281940, Note_on_c, 1, 66, 100
5, 281998, Note_on_c, 1, 66, 0
5, 282005, Note_on_c, 1, 59, 100
5, 282063, Note_on_c, 1, 59, 0
5, 282065, Note_on_c, 1, 56, 100
5, 282123, Note_on_c, 1, 56, 0
5, 282125, Note_on_c, 1, 59, 100
5, 282183, Note_on_c, 1, 59, 0
5, 282185, Note_on_c, 1, 62, 100
5, 282243, Note_on_c, 1, 62, 0
5, 282245, Note_on_c, 1, 65, 100
5, 282303, Note_on_c, 1, 65, 0
5, 282305, Note_on_c, 1, 66, 100
5, 282363, Note_on_c, 1, 66, 0
5, 282365, Note_on_c, 1, 61, 100
5, 282483, Note_on_c, 1, 61, 0
5, 282485, Note_on_c, 1, 73, 100
5, 282543, Note_on_c, 1, 73, 0
5, 282545, Note_on_c, 1, 70, 100
5, 282663, Note_on_c, 1, 70, 0
5, 282665, Note_on_c, 1, 65, 100
5, 282720, Note_on_c, 1, 65, 0
5, 282721, Note_on_c, 1, 62, 100
5, 282839, Note_on_c, 1, 62, 0
5, 282841, Note_on_c, 1, 74, 100
5, 282899, Note_on_c, 1, 74, 0
5, 282901, Note_on_c, 1, 71, 100
5, 283019, Note_on_c, 1, 71, 0
5, 283021, Note_on_c, 1, 66, 100
5, 283079, Note_on_c, 1, 66, 0
5, 283081, Note_on_c, 1, 64, 100
5, 283199, Note_on_c, 1, 64, 0
5, 283201, Note_on_c, 1, 76, 100
5, 283259, Note_on_c, 1, 76, 0
5, 283261, Note_on_c, 1, 73, 100
5, 283379, Note_on_c, 1, 73, 0
5, 283381, Note_on_c, 1, 70, 100
5, 283439, Note_on_c, 1, 70, 0
5, 283440, Note_on_c, 1, 71, 100
5, 283558, Note_on_c, 1, 71, 0
5, 283620, Note_on_c, 1, 70, 100
5, 283738, Note_on_c, 1, 70, 0
5, 283800, Note_on_c, 1, 74, 100
5, 283830, Note_on_c, 1, 74, 0
5, 283830, Note_on_c, 1, 73, 100
5, 283860, Note_on_c, 1, 73, 0
5, 283860, Note_on_c, 1, 74, 100
5, 283890, Note_on_c, 1, 74, 0
5, 283890, Note_on_c, 1, 73, 100
5, 283920, Note_on_c, 1, 73, 0
5, 283920, Note_on_c, 1, 74, 100
5, 283950, Note_on_c, 1, 74, 0
5, 283950, Note_on_c, 1, 73, 100
5, 283980, Note_on_c, 1, 73, 0
5, 283980, Note_on_c, 1, 74, 100
5, 284010, Note_on_c, 1, 74, 0
5, 284010, Note_on_c, 1, 73, 100
5, 284040, Note_on_c, 1, 73, 0
5, 284040, Note_on_c, 1, 74, 100
5, 284070, Note_on_c, 1, 74, 0
5, 284070, Note_on_c, 1, 73, 100
5, 284100, Note_on_c, 1, 73, 0
5, 284100, Note_on_c, 1, 71, 100
5, 284160, Note_on_c, 1, 71, 0
5, 284164, Note_on_c, 1, 70, 100
5, 284222, Note_on_c, 1, 70, 0
5, 284224, Note_on_c, 1, 79, 100
5, 284282, Note_on_c, 1, 79, 0
5, 284284, Note_on_c, 1, 78, 100
5, 284402, Note_on_c, 1, 78, 0
5, 284404, Note_on_c, 1, 71, 100
5, 284462, Note_on_c, 1, 71, 0
5, 284464, Note_on_c, 1, 70, 100
5, 284582, Note_on_c, 1, 70, 0
5, 284584, Note_on_c, 1, 76, 100
5, 284642, Note_on_c, 1, 76, 0
5, 284644, Note_on_c, 1, 75, 100
5, 284762, Note_on_c, 1, 75, 0
5, 284764, Note_on_c, 1, 82, 100
5, 284822, Note_on_c, 1, 82, 0
5, 284824, Note_on_c, 1, 78, 100
5, 284880, Note_on_c, 1, 78, 0
5, 284881, Note_on_c, 1, 79, 100
5, 284999, Note_on_c, 1, 79, 0
5, 285001, Note_on_c, 1, 67, 100
5, 285059, Note_on_c, 1, 67, 0
5, 285061, Note_on_c, 1, 71, 100
5, 285179, Note_on_c, 1, 71, 0
5, 285181, Note_on_c, 1, 76, 100
5, 285239, Note_on_c, 1, 76, 0
5, 285241, Note_on_c, 1, 78, 100
5, 285359, Note_on_c, 1, 78, 0
5, 285361, Note_on_c, 1, 66, 100
5, 285419, Note_on_c, 1, 66, 0
5, 285421, Note_on_c, 1, 71, 100
5, 285539, Note_on_c, 1, 71, 0
5, 285541, Note_on_c, 1, 74, 100
5, 285599, Note_on_c, 1, 74, 0
5, 285600, Note_on_c, 1, 76, 100
5, 285718, Note_on_c, 1, 76, 0
5, 285720, Note_on_c, 1, 79, 100
5, 285778, Note_on_c, 1, 79, 0
5, 285780, Note_on_c, 1, 71, 100
5, 285898, Note_on_c, 1, 71, 0
5, 285900, Note_on_c, 1, 79, 100
5, 285958, Note_on_c, 1, 79, 0
5, 285960, Note_on_c, 1, 74, 100
5, 286078, Note_on_c, 1, 74, 0
5, 286080, Note_on_c, 1, 78, 100
5, 286140, Note_on_c, 1, 78, 0
5, 286140, Note_on_c, 1, 71, 100
5, 286258, Note_on_c, 1, 71, 0
5, 286260, Note_on_c, 1, 78, 100
5, 286320, Note_on_c, 1, 78, 0
5, 286324, Note_on_c, 1, 67, 100
5, 286442, Note_on_c, 1, 67, 0
5, 286444, Note_on_c, 1, 76, 100
5, 286502, Note_on_c, 1, 76, 0
5, 286504, Note_on_c, 1, 70, 100
5, 286622, Note_on_c, 1, 70, 0
5, 286624, Note_on_c, 1, 73, 100
5, 286682, Note_on_c, 1, 73, 0
5, 286684, Note_on_c, 1, 71, 100
5, 286742, Note_on_c, 1, 71, 0
5, 286744, Note_on_c, 1, 70, 100
5, 286802, Note_on_c, 1, 70, 0
5, 286804, Note_on_c, 1, 67, 100
5, 286862, Note_on_c, 1, 67, 0
5, 286864, Note_on_c, 1, 73, 100
5, 287099, Note_on_c, 1, 73, 0
5, 287101, Note_on_c, 1, 70, 100
5, 287159, Note_on_c, 1, 70, 0
5, 287161, Note_on_c, 1, 71, 100
5, 287219, Note_on_c, 1, 71, 0
5, 287221, Note_on_c, 1, 62, 100
5, 287279, Note_on_c, 1, 62, 0
5, 287281, Note_on_c, 1, 64, 100
5, 287339, Note_on_c, 1, 64, 0
5, 287341, Note_on_c, 1, 61, 100
5, 287399, Note_on_c, 1, 61, 0
5, 287401, Note_on_c, 1, 59, 100
5, 287459, Note_on_c, 1, 59, 0
5, 287461, Note_on_c, 1, 62, 100
5, 287461, Note_on_c, 1, 62, 100
5, 287521, Note_on_c, 1, 66, 100
5, 287523, Note_on_c, 1, 62, 0
5, 287579, Note_on_c, 1, 62, 0
5, 287581, Note_on_c, 1, 71, 100
5, 287699, Note_on_c, 1, 71, 0
5, 287699, Note_on_c, 1, 66, 0
5, 287700, Note_on_c, 1, 66, 100
5, 287758, Note_on_c, 1, 66, 0
5, 287762, Note_on_c, 1, 70, 100
5, 287820, Note_on_c, 1, 70, 0
5, 287822, Note_on_c, 1, 73, 100
5, 287880, Note_on_c, 1, 73, 0
5, 287882, Note_on_c, 1, 67, 100
5, 288000, Note_on_c, 1, 67, 0
5, 288002, Note_on_c, 1, 66, 100
5, 288060, Note_on_c, 1, 66, 0
5, 288062, Note_on_c, 1, 65, 100
5, 288120, Note_on_c, 1, 65, 0
5, 288122, Note_on_c, 1, 66, 100
5, 288180, Note_on_c, 1, 66, 0
5, 288182, Note_on_c, 1, 73, 100
5, 288240, Note_on_c, 1, 73, 0
5, 288242, Note_on_c, 1, 66, 100
5, 288360, Note_on_c, 1, 66, 0
5, 288362, Note_on_c, 1, 65, 100
5, 288420, Note_on_c, 1, 65, 0
5, 288422, Note_on_c, 1, 63, 100
5, 288480, Note_on_c, 1, 63, 0
5, 288481, Note_on_c, 1, 64, 100
5, 288539, Note_on_c, 1, 64, 0
5, 288541, Note_on_c, 1, 73, 100
5, 288599, Note_on_c, 1, 73, 0
5, 288601, Note_on_c, 1, 64, 100
5, 288719, Note_on_c, 1, 64, 0
5, 288721, Note_on_c, 1, 62, 100
5, 288779, Note_on_c, 1, 62, 0
5, 288781, Note_on_c, 1, 61, 100
5, 288839, Note_on_c, 1, 61, 0
5, 288841, Note_on_c, 1, 62, 100
5, 288899, Note_on_c, 1, 62, 0
5, 288901, Note_on_c, 1, 64, 100
5, 288959, Note_on_c, 1, 64, 0
5, 288961, Note_on_c, 1, 66, 100
5, 289019, Note_on_c, 1, 66, 0
5, 289021, Note_on_c, 1, 59, 100
5, 289079, Note_on_c, 1, 59, 0
5, 289081, Note_on_c, 1, 62, 100
5, 289139, Note_on_c, 1, 62, 0
5, 289141, Note_on_c, 1, 66, 100
5, 289199, Note_on_c, 1, 66, 0
5, 289201, Note_on_c, 1, 69, 100
5, 289439, Note_on_c, 1, 69, 0
5, 289441, Note_on_c, 1, 67, 100
5, 289499, Note_on_c, 1, 67, 0
5, 289501, Note_on_c, 1, 66, 100
5, 289559, Note_on_c, 1, 66, 0
5, 289561, Note_on_c, 1, 67, 100
5, 289799, Note_on_c, 1, 67, 0
5, 289801, Note_on_c, 1, 66, 100
5, 289859, Note_on_c, 1, 66, 0
5, 289861, Note_on_c, 1, 64, 100
5, 289919, Note_on_c, 1, 64, 0
5, 289920, Note_on_c, 1, 66, 100
5, 290160, Note_on_c, 1, 66, 0
5, 290160, Note_on_c, 1, 64, 100
5, 290218, Note_on_c, 1, 64, 0
5, 290220, Note_on_c, 1, 63, 100
5, 290278, Note_on_c, 1, 63, 0
5, 290280, Note_on_c, 1, 64, 100
5, 290460, Note_on_c, 1, 64, 0
5, 290580, Note_on_c, 1, 76, 100
5, 290580, Note_on_c, 1, 71, 100
5, 290580, Note_on_c, 1, 67, 100
5, 290640, Note_on_c, 1, 67, 0
5, 290640, Note_on_c, 1, 71, 0
5, 290640, Note_on_c, 1, 76, 0
5, 290643, Note_on_c, 1, 72, 100
5, 290643, Note_on_c, 1, 69, 100
5, 290761, Note_on_c, 1, 69, 0
5, 290761, Note_on_c, 1, 72, 0
5, 290823, Note_on_c, 1, 71, 100
5, 290823, Note_on_c, 1, 67, 100
5, 290941, Note_on_c, 1, 67, 0
5, 290941, Note_on_c, 1, 71, 0
5, 290943, Note_on_c, 1, 66, 100
5, 291001, Note_on_c, 1, 66, 0
5, 291003, Note_on_c, 1, 69, 100
5, 291003, Note_on_c, 1, 64, 100
5, 291121, Note_on_c, 1, 64, 0
5, 291121, Note_on_c, 1, 69, 0
5, 291183, Note_on_c, 1, 69, 100
5, 291183, Note_on_c, 1, 59, 100
5, 291301, Note_on_c, 1, 59, 0
5, 291301, Note_on_c, 1, 69, 0
5, 291361, Note_on_c, 1, 67, 100
5, 291361, Note_on_c, 1, 59, 100
5, 291479, Note_on_c, 1, 59, 0
5, 291479, Note_on_c, 1, 67, 0
5, 291541, Note_on_c, 1, 64, 100
5, 291541, Note_on_c, 1, 60, 100
5, 291659, Note_on_c, 1, 60, 0
5, 291659, Note_on_c, 1, 64, 0
5, 291721, Note_on_c, 1, 63, 100
5, 292019, Note_on_c, 1, 63, 0
5, 292021, Note_on_c, 1, 59, 100
5, 292079, Note_on_c, 1, 59, 0
5, 292080, Note_on_c, 1, 64, 100
5, 292138, Note_on_c, 1, 64, 0
5, 292140, Note_on_c, 1, 67, 100
5, 292198, Note_on_c, 1, 67, 0
5, 292200, Note_on_c, 1, 66, 100
5, 292318, Note_on_c, 1, 66, 0
5, 292320, Note_on_c, 1, 60, 100
5, 292378, Note_on_c, 1, 60, 0
5, 292380, Note_on_c, 1, 59, 100
5, 292498, Note_on_c, 1, 59, 0
5, 292500, Note_on_c, 1, 69, 100
5, 292560, Note_on_c, 1, 69, 0
5, 292560, Note_on_c, 1, 67, 100
5, 292680, Note_on_c, 1, 67, 0
5, 292680, Note_on_c, 1, 62, 100
5, 292740, Note_on_c, 1, 62, 0
5, 292740, Note_on_c, 1, 61, 100
5, 292860, Note_on_c, 1, 61, 0
5, 292865, Note_on_c, 1, 71, 100
5, 292923, Note_on_c, 1, 71, 0
5, 292925, Note_on_c, 1, 69, 100
5, 293043, Note_on_c, 1, 69, 0
5, 293045, Note_on_c, 1, 64, 100
5, 293103, Note_on_c, 1, 64, 0
5, 293105, Note_on_c, 1, 63, 100
5, 293223, Note_on_c, 1, 63, 0
5, 293225, Note_on_c, 1, 72, 100
5, 293283, Note_on_c, 1, 72, 0
5, 293285, Note_on_c, 1, 71, 100
5, 293343, Note_on_c, 1, 71, 0
5, 293400, Note_on_c, 1, 63, 100
5, 293460, Note_on_c, 1, 63, 0
5, 293460, Note_on_c, 1, 64, 100
5, 293520, Note_on_c, 1, 64, 0
5, 293523, Note_on_c, 1, 72, 100
5, 293581, Note_on_c, 1, 72, 0
5, 293583, Note_on_c, 1, 63, 100
5, 293641, Note_on_c, 1, 63, 0
5, 293643, Note_on_c, 1, 64, 100
5, 293701, Note_on_c, 1, 64, 0
5, 293703, Note_on_c, 1, 71, 100
5, 293761, Note_on_c, 1, 71, 0
5, 293763, Note_on_c, 1, 63, 100
5, 293821, Note_on_c, 1, 63, 0
5, 293823, Note_on_c, 1, 64, 100
5, 293881, Note_on_c, 1, 64, 0
5, 293883, Note_on_c, 1, 69, 100
5, 294360, Note_on_c, 1, 67, 100
5, 294364, Note_on_c, 1, 69, 0
5, 294418, Note_on_c, 1, 67, 0
5, 294420, Note_on_c, 1, 67, 100
5, 294538, Note_on_c, 1, 67, 0
5, 294540, Note_on_c, 1, 66, 100
5, 294600, Note_on_c, 1, 66, 0
5, 294600, Note_on_c, 1, 74, 100
5, 294660, Note_on_c, 1, 74, 0
5, 294660, Note_on_c, 1, 71, 100
5, 294720, Note_on_c, 1, 71, 0
5, 294720, Note_on_c, 1, 67, 100
5, 294780, Note_on_c, 1, 67, 0
5, 294780, Note_on_c, 1, 66, 100
5, 294838, Note_on_c, 1, 66, 0
5, 294840, Note_on_c, 1, 67, 100
5, 294898, Note_on_c, 1, 67, 0
5, 294900, Note_on_c, 1, 62, 100
5, 294958, Note_on_c, 1, 62, 0
5, 294965, Note_on_c, 1, 64, 100
5, 295023, Note_on_c, 1, 64, 0
5, 295025, Note_on_c, 1, 69, 100
5, 295083, Note_on_c, 1, 69, 0
5, 295085, Note_on_c, 1, 67, 100
5, 295203, Note_on_c, 1, 67, 0
5, 295205, Note_on_c, 1, 69, 100
5, 295263, Note_on_c, 1, 69, 0
5, 295265, Note_on_c, 1, 66, 100
5, 295323, Note_on_c, 1, 66, 0
5, 295325, Note_on_c, 1, 67, 100
5, 295383, Note_on_c, 1, 67, 0
5, 295385, Note_on_c, 1, 72, 100
5, 295443, Note_on_c, 1, 72, 0
5, 295445, Note_on_c, 1, 71, 100
5, 295563, Note_on_c, 1, 71, 0
5, 295565, Note_on_c, 1, 72, 100
5, 295623, Note_on_c, 1, 72, 0
5, 295625, Note_on_c, 1, 69, 100
5, 295680, Note_on_c, 1, 69, 0
5, 295681, Note_on_c, 1, 71, 100
5, 295739, Note_on_c, 1, 71, 0
5, 295741, Note_on_c, 1, 76, 100
5, 295799, Note_on_c, 1, 76, 0
5, 295801, Note_on_c, 1, 74, 100
5, 295919, Note_on_c, 1, 74, 0
5, 295921, Note_on_c, 1, 76, 100
5, 295979, Note_on_c, 1, 76, 0
5, 295981, Note_on_c, 1, 72, 100
5, 296039, Note_on_c, 1, 72, 0
5, 296040, Note_on_c, 1, 76, 100
5, 296070, Note_on_c, 1, 76, 0
5, 296070, Note_on_c, 1, 74, 100
5, 296100, Note_on_c, 1, 74, 0
5, 296100, Note_on_c, 1, 76, 100
5, 296130, Note_on_c, 1, 76, 0
5, 296130, Note_on_c, 1, 74, 100
5, 296160, Note_on_c, 1, 74, 0
5, 296160, Note_on_c, 1, 76, 100
5, 296190, Note_on_c, 1, 76, 0
5, 296190, Note_on_c, 1, 74, 100
5, 296220, Note_on_c, 1, 74, 0
5, 296220, Note_on_c, 1, 76, 100
5, 296250, Note_on_c, 1, 76, 0
5, 296250, Note_on_c, 1, 74, 100
5, 296280, Note_on_c, 1, 74, 0
5, 296280, Note_on_c, 1, 76, 100
5, 296310, Note_on_c, 1, 76, 0
5, 296310, Note_on_c, 1, 74, 100
5, 296340, Note_on_c, 1, 74, 0
5, 296340, Note_on_c, 1, 76, 100
5, 296370, Note_on_c, 1, 76, 0
5, 296370, Note_on_c, 1, 74, 100
5, 296400, Note_on_c, 1, 74, 0
5, 296400, Note_on_c, 1, 76, 100
5, 296430, Note_on_c, 1, 76, 0
5, 296430, Note_on_c, 1, 74, 100
5, 296460, Note_on_c, 1, 74, 0
5, 296460, Note_on_c, 1, 76, 100
5, 296490, Note_on_c, 1, 76, 0
5, 296490, Note_on_c, 1, 74, 100
5, 296520, Note_on_c, 1, 74, 0
5, 296520, Note_on_c, 1, 76, 100
5, 296550, Note_on_c, 1, 76, 0
5, 296550, Note_on_c, 1, 74, 100
5, 296580, Note_on_c, 1, 74, 0
5, 296580, Note_on_c, 1, 76, 100
5, 296610, Note_on_c, 1, 76, 0
5, 296610, Note_on_c, 1, 74, 100
5, 296640, Note_on_c, 1, 74, 0
5, 296640, Note_on_c, 1, 76, 100
5, 296670, Note_on_c, 1, 76, 0
5, 296670, Note_on_c, 1, 74, 100
5, 296700, Note_on_c, 1, 74, 0
5, 296700, Note_on_c, 1, 76, 100
5, 296730, Note_on_c, 1, 76, 0
5, 296730, Note_on_c, 1, 74, 100
5, 296760, Note_on_c, 1, 74, 0
5, 296760, Note_on_c, 1, 76, 100
5, 296790, Note_on_c, 1, 76, 0
5, 296790, Note_on_c, 1, 74, 100
5, 296820, Note_on_c, 1, 74, 0
5, 296820, Note_on_c, 1, 76, 100
5, 296850, Note_on_c, 1, 76, 0
5, 296850, Note_on_c, 1, 74, 100
5, 296880, Note_on_c, 1, 74, 0
5, 296880, Note_on_c, 1, 76, 100
5, 296910, Note_on_c, 1, 76, 0
5, 296910, Note_on_c, 1, 74, 100
5, 296940, Note_on_c, 1, 74, 0
5, 296940, Note_on_c, 1, 76, 100
5, 296970, Note_on_c, 1, 76, 0
5, 296970, Note_on_c, 1, 74, 100
5, 297000, Note_on_c, 1, 74, 0
5, 297000, Note_on_c, 1, 76, 100
5, 297030, Note_on_c, 1, 76, 0
5, 297030, Note_on_c, 1, 74, 100
5, 297060, Note_on_c, 1, 74, 0
5, 297060, Note_on_c, 1, 76, 100
5, 297090, Note_on_c, 1, 76, 0
5, 297090, Note_on_c, 1, 74, 100
5, 297120, Note_on_c, 1, 74, 0
5, 297120, Note_on_c, 1, 76, 100
5, 297150, Note_on_c, 1, 76, 0
5, 297150, Note_on_c, 1, 74, 100
5, 297180, Note_on_c, 1, 74, 0
5, 297180, Note_on_c, 1, 76, 100
5, 297210, Note_on_c, 1, 76, 0
5, 297210, Note_on_c, 1, 74, 100
5, 297240, Note_on_c, 1, 74, 0
5, 297240, Note_on_c, 1, 76, 100
5, 297270, Note_on_c, 1, 76, 0
5, 297270, Note_on_c, 1, 74, 100
5, 297300, Note_on_c, 1, 74, 0
5, 297300, Note_on_c, 1, 76, 100
5, 297330, Note_on_c, 1, 76, 0
5, 297330, Note_on_c, 1, 74, 100
5, 297360, Note_on_c, 1, 74, 0
5, 297360, Note_on_c, 1, 76, 100
5, 297390, Note_on_c, 1, 76, 0
5, 297390, Note_on_c, 1, 74, 100
5, 297420, Note_on_c, 1, 74, 0
5, 297420, Note_on_c, 1, 76, 100
5, 297450, Note_on_c, 1, 76, 0
5, 297450, Note_on_c, 1, 74, 100
5, 297480, Note_on_c, 1, 74, 0
5, 297480, Note_on_c, 1, 76, 100
5, 297510, Note_on_c, 1, 76, 0
5, 297510, Note_on_c, 1, 74, 100
5, 297540, Note_on_c, 1, 74, 0
5, 297540, Note_on_c, 1, 76, 100
5, 297570, Note_on_c, 1, 76, 0
5, 297570, Note_on_c, 1, 74, 100
5, 297600, Note_on_c, 1, 74, 0
5, 297600, Note_on_c, 1, 76, 100
5, 297630, Note_on_c, 1, 76, 0
5, 297630, Note_on_c, 1, 74, 100
5, 297660, Note_on_c, 1, 74, 0
5, 297660, Note_on_c, 1, 76, 100
5, 297690, Note_on_c, 1, 76, 0
5, 297690, Note_on_c, 1, 74, 100
5, 297720, Note_on_c, 1, 74, 0
5, 297720, Note_on_c, 1, 76, 100
5, 297750, Note_on_c, 1, 76, 0
5, 297750, Note_on_c, 1, 74, 100
5, 297780, Note_on_c, 1, 74, 0
5, 297780, Note_on_c, 1, 76, 100
5, 297810, Note_on_c, 1, 76, 0
5, 297810, Note_on_c, 1, 74, 100
5, 297840, Note_on_c, 1, 74, 0
5, 297840, Note_on_c, 1, 76, 100
5, 297870, Note_on_c, 1, 76, 0
5, 297870, Note_on_c, 1, 74, 100
5, 297900, Note_on_c, 1, 74, 0
5, 297900, Note_on_c, 1, 76, 100
5, 297930, Note_on_c, 1, 76, 0
5, 297930, Note_on_c, 1, 74, 100
5, 297960, Note_on_c, 1, 74, 0
5, 297960, Note_on_c, 1, 72, 100
5, 298020, Note_on_c, 1, 72, 0
5, 298020, Note_on_c, 1, 74, 100
5, 298050, Note_on_c, 1, 74, 0
5, 298050, Note_on_c, 1, 72, 100
5, 298080, Note_on_c, 1, 72, 0
5, 298080, Note_on_c, 1, 74, 100
5, 298110, Note_on_c, 1, 74, 0
5, 298110, Note_on_c, 1, 72, 100
5, 298140, Note_on_c, 1, 72, 0
5, 298141, Note_on_c, 1, 71, 100
5, 298199, Note_on_c, 1, 71, 0
5, 298200, Note_on_c, 1, 72, 100
5, 298230, Note_on_c, 1, 72, 0
5, 298230, Note_on_c, 1, 71, 100
5, 298260, Note_on_c, 1, 71, 0
5, 298260, Note_on_c, 1, 72, 100
5, 298290, Note_on_c, 1, 72, 0
5, 298290, Note_on_c, 1, 71, 100
5, 298320, Note_on_c, 1, 71, 0
5, 298321, Note_on_c, 1, 69, 100
5, 298379, Note_on_c, 1, 69, 0
5, 298380, Note_on_c, 1, 71, 100
5, 298410, Note_on_c, 1, 71, 0
5, 298410, Note_on_c, 1, 69, 100
5, 298440, Note_on_c, 1, 69, 0
5, 298440, Note_on_c, 1, 71, 100
5, 298470, Note_on_c, 1, 71, 0
5, 298470, Note_on_c, 1, 69, 100
5, 298500, Note_on_c, 1, 69, 0
5, 298501, Note_on_c, 1, 67, 100
5, 298559, Note_on_c, 1, 67, 0
5, 298560, Note_on_c, 1, 69, 100
5, 298590, Note_on_c, 1, 69, 0
5, 298590, Note_on_c, 1, 67, 100
5, 298620, Note_on_c, 1, 67, 0
5, 298620, Note_on_c, 1, 69, 100
5, 298650, Note_on_c, 1, 69, 0
5, 298650, Note_on_c, 1, 67, 100
5, 298680, Note_on_c, 1, 67, 0
5, 298681, Note_on_c, 1, 66, 100
5, 298739, Note_on_c, 1, 66, 0
5, 298740, Note_on_c, 1, 67, 100
5, 298770, Note_on_c, 1, 67, 0
5, 298770, Note_on_c, 1, 66, 100
5, 298800, Note_on_c, 1, 66, 0
5, 298800, Note_on_c, 1, 67, 100
5, 298830, Note_on_c, 1, 67, 0
5, 298830, Note_on_c, 1, 66, 100
5, 298860, Note_on_c, 1, 66, 0
5, 298861, Note_on_c, 1, 64, 100
5, 298919, Note_on_c, 1, 64, 0
5, 298921, Note_on_c, 1, 64, 100
5, 299099, Note_on_c, 1, 64, 0
5, 299221, Note_on_c, 1, 61, 100
5, 299279, Note_on_c, 1, 61, 0
5, 299281, Note_on_c, 1, 69, 100
5, 299519, Note_on_c, 1, 69, 0
5, 299521, Note_on_c, 1, 67, 100
5, 299579, Note_on_c, 1, 67, 0
5, 299581, Note_on_c, 1, 66, 100
5, 299639, Note_on_c, 1, 66, 0
5, 299641, Note_on_c, 1, 67, 100
5, 299879, Note_on_c, 1, 67, 0
5, 299881, Note_on_c, 1, 66, 100
5, 299939, Note_on_c, 1, 66, 0
5, 299941, Note_on_c, 1, 64, 100
5, 299999, Note_on_c, 1, 64, 0
5, 300240, Note_on_c, 1, 66, 100
5, 300478, Note_on_c, 1, 66, 0
5, 300480, Note_on_c, 1, 64, 100
5, 300538, Note_on_c, 1, 64, 0
5, 300540, Note_on_c, 1, 63, 100
5, 300598, Note_on_c, 1, 63, 0
5, 300600, Note_on_c, 1, 64, 100
5, 300723, Note_on_c, 1, 64, 0
5, 300724, Note_on_c, 1, 70, 100
5, 300782, Note_on_c, 1, 70, 0
5, 300784, Note_on_c, 1, 73, 100
5, 300842, Note_on_c, 1, 73, 0
5, 300844, Note_on_c, 1, 67, 100
5, 300962, Note_on_c, 1, 67, 0
5, 300964, Note_on_c, 1, 66, 100
5, 301022, Note_on_c, 1, 66, 0
5, 301024, Note_on_c, 1, 65, 100
5, 301082, Note_on_c, 1, 65, 0
5, 301084, Note_on_c, 1, 66, 100
5, 301142, Note_on_c, 1, 66, 0
5, 301144, Note_on_c, 1, 73, 100
5, 301202, Note_on_c, 1, 73, 0
5, 301204, Note_on_c, 1, 66, 100
5, 301322, Note_on_c, 1, 66, 0
5, 301324, Note_on_c, 1, 65, 100
5, 301382, Note_on_c, 1, 65, 0
5, 301384, Note_on_c, 1, 63, 100
5, 301440, Note_on_c, 1, 63, 0
5, 301441, Note_on_c, 1, 64, 100
5, 301499, Note_on_c, 1, 64, 0
5, 301501, Note_on_c, 1, 73, 100
5, 301559, Note_on_c, 1, 73, 0
5, 301561, Note_on_c, 1, 64, 100
5, 301679, Note_on_c, 1, 64, 0
5, 301681, Note_on_c, 1, 62, 100
5, 301739, Note_on_c, 1, 62, 0
5, 301741, Note_on_c, 1, 61, 100
5, 301799, Note_on_c, 1, 61, 0
5, 301801, Note_on_c, 1, 62, 100
5, 301859, Note_on_c, 1, 62, 0
5, 301861, Note_on_c, 1, 66, 100
5, 301919, Note_on_c, 1, 66, 0
5, 301921, Note_on_c, 1, 71, 100
5, 301979, Note_on_c, 1, 71, 0
5, 301981, Note_on_c, 1, 74, 100
5, 302220, Note_on_c, 1, 67, 100
5, 302221, Note_on_c, 1, 74, 0
5, 302280, Note_on_c, 1, 67, 0
5, 302280, Note_on_c, 1, 71, 100
5, 302340, Note_on_c, 1, 71, 0
5, 302340, Note_on_c, 1, 64, 100
5, 302580, Note_on_c, 1, 64, 0
5, 302580, Note_on_c, 1, 61, 100
5, 302638, Note_on_c, 1, 61, 0
5, 302640, Note_on_c, 1, 64, 100
5, 302698, Note_on_c, 1, 64, 0
5, 302700, Note_on_c, 1, 69, 100
5, 302940, Note_on_c, 1, 69, 0
5, 302943, Note_on_c, 1, 66, 100
5, 303001, Note_on_c, 1, 66, 0
5, 303003, Note_on_c, 1, 69, 100
5, 303061, Note_on_c, 1, 69, 0
5, 303063, Note_on_c, 1, 62, 100
5, 303301, Note_on_c, 1, 62, 0
5, 303303, Note_on_c, 1, 59, 100
5, 303361, Note_on_c, 1, 59, 0
5, 303363, Note_on_c, 1, 62, 100
5, 303421, Note_on_c, 1, 62, 0
5, 303423, Note_on_c, 1, 67, 100
5, 303659, Note_on_c, 1, 67, 0
5, 303661, Note_on_c, 1, 64, 100
5, 303719, Note_on_c, 1, 64, 0
5, 303721, Note_on_c, 1, 67, 100
5, 303779, Note_on_c, 1, 67, 0
5, 303781, Note_on_c, 1, 73, 100
5, 304019, Note_on_c, 1, 73, 0
5, 304021, Note_on_c, 1, 70, 100
5, 304079, Note_on_c, 1, 70, 0
5, 304081, Note_on_c, 1, 73, 100
5, 304139, Note_on_c, 1, 73, 0
5, 304141, Note_on_c, 1, 78, 100
5, 304259, Note_on_c, 1, 78, 0
5, 304620, Note_on_c, 1, 59, 100
5, 304678, Note_on_c, 1, 59, 0
5, 304680, Note_on_c, 1, 58, 100
5, 304738, Note_on_c, 1, 58, 0
5, 304740, Note_on_c, 1, 54, 100
5, 304798, Note_on_c, 1, 54, 0
5, 304800, Note_on_c, 1, 58, 100
5, 304858, Note_on_c, 1, 58, 0
5, 304860, Note_on_c, 1, 61, 100
5, 304918, Note_on_c, 1, 61, 0
5, 304920, Note_on_c, 1, 65, 100
5, 304978, Note_on_c, 1, 65, 0
5, 304980, Note_on_c, 1, 66, 100
5, 305038, Note_on_c, 1, 66, 0
5, 305045, Note_on_c, 1, 59, 100
5, 305103, Note_on_c, 1, 59, 0
5, 305105, Note_on_c, 1, 56, 100
5, 305163, Note_on_c, 1, 56, 0
5, 305165, Note_on_c, 1, 59, 100
5, 305223, Note_on_c, 1, 59, 0
5, 305225, Note_on_c, 1, 62, 100
5, 305283, Note_on_c, 1, 62, 0
5, 305285, Note_on_c, 1, 65, 100
5, 305343, Note_on_c, 1, 65, 0
5, 305345, Note_on_c, 1, 66, 100
5, 305403, Note_on_c, 1, 66, 0
5, 305405, Note_on_c, 1, 61, 100
5, 305523, Note_on_c, 1, 61, 0
5, 305525, Note_on_c, 1, 73, 100
5, 305583, Note_on_c, 1, 73, 0
5, 305585, Note_on_c, 1, 70, 100
5, 305703, Note_on_c, 1, 70, 0
5, 305705, Note_on_c, 1, 65, 100
5, 305760, Note_on_c, 1, 65, 0
5, 305761, Note_on_c, 1, 62, 100
5, 305879, Note_on_c, 1, 62, 0
5, 305881, Note_on_c, 1, 74, 100
5, 305939, Note_on_c, 1, 74, 0
5, 305941, Note_on_c, 1, 71, 100
5, 306059, Note_on_c, 1, 71, 0
5, 306061, Note_on_c, 1, 66, 100
5, 306119, Note_on_c, 1, 66, 0
5, 306121, Note_on_c, 1, 64, 100
5, 306239, Note_on_c, 1, 64, 0
5, 306241, Note_on_c, 1, 76, 100
5, 306299, Note_on_c, 1, 76, 0
5, 306301, Note_on_c, 1, 73, 100
5, 306419, Note_on_c, 1, 73, 0
5, 306421, Note_on_c, 1, 70, 100
5, 306479, Note_on_c, 1, 70, 0
5, 306480, Note_on_c, 1, 71, 100
5, 306598, Note_on_c, 1, 71, 0
5, 306660, Note_on_c, 1, 70, 100
5, 306778, Note_on_c, 1, 70, 0
5, 306840, Note_on_c, 1, 74, 100
5, 306958, Note_on_c, 1, 74, 0
5, 307020, Note_on_c, 1, 74, 100
5, 307050, Note_on_c, 1, 74, 0
5, 307050, Note_on_c, 1, 73, 100
5, 307080, Note_on_c, 1, 73, 0
5, 307080, Note_on_c, 1, 74, 100
5, 307110, Note_on_c, 1, 74, 0
5, 307110, Note_on_c, 1, 73, 100
5, 307140, Note_on_c, 1, 73, 0
5, 307140, Note_on_c, 1, 71, 100
5, 307200, Note_on_c, 1, 71, 0
5, 307204, Note_on_c, 1, 70, 100
5, 307262, Note_on_c, 1, 70, 0
5, 307264, Note_on_c, 1, 79, 100
5, 307322, Note_on_c, 1, 79, 0
5, 307324, Note_on_c, 1, 78, 100
5, 307442, Note_on_c, 1, 78, 0
5, 307444, Note_on_c, 1, 71, 100
5, 307502, Note_on_c, 1, 71, 0
5, 307504, Note_on_c, 1, 70, 100
5, 307622, Note_on_c, 1, 70, 0
5, 307624, Note_on_c, 1, 76, 100
5, 307682, Note_on_c, 1, 76, 0
5, 307684, Note_on_c, 1, 75, 100
5, 307802, Note_on_c, 1, 75, 0
5, 307804, Note_on_c, 1, 82, 100
5, 307862, Note_on_c, 1, 82, 0
5, 307864, Note_on_c, 1, 78, 100
5, 307920, Note_on_c, 1, 78, 0
5, 307921, Note_on_c, 1, 79, 100
5, 308039, Note_on_c, 1, 79, 0
5, 308041, Note_on_c, 1, 67, 100
5, 308099, Note_on_c, 1, 67, 0
5, 308101, Note_on_c, 1, 71, 100
5, 308219, Note_on_c, 1, 71, 0
5, 308221, Note_on_c, 1, 76, 100
5, 308279, Note_on_c, 1, 76, 0
5, 308281, Note_on_c, 1, 78, 100
5, 308399, Note_on_c, 1, 78, 0
5, 308401, Note_on_c, 1, 66, 100
5, 308459, Note_on_c, 1, 66, 0
5, 308461, Note_on_c, 1, 71, 100
5, 308579, Note_on_c, 1, 71, 0
5, 308581, Note_on_c, 1, 74, 100
5, 308639, Note_on_c, 1, 74, 0
5, 308640, Note_on_c, 1, 76, 100
5, 308758, Note_on_c, 1, 76, 0
5, 308760, Note_on_c, 1, 79, 100
5, 308818, Note_on_c, 1, 79, 0
5, 308820, Note_on_c, 1, 71, 100
5, 308938, Note_on_c, 1, 71, 0
5, 308940, Note_on_c, 1, 79, 100
5, 308998, Note_on_c, 1, 79, 0
5, 309000, Note_on_c, 1, 74, 100
5, 309118, Note_on_c, 1, 74, 0
5, 309120, Note_on_c, 1, 78, 100
5, 309180, Note_on_c, 1, 78, 0
5, 309180, Note_on_c, 1, 71, 100
5, 309298, Note_on_c, 1, 71, 0
5, 309300, Note_on_c, 1, 78, 100
5, 309360, Note_on_c, 1, 78, 0
5, 309364, Note_on_c, 1, 67, 100
5, 309482, Note_on_c, 1, 67, 0
5, 309484, Note_on_c, 1, 76, 100
5, 309542, Note_on_c, 1, 76, 0
5, 309544, Note_on_c, 1, 70, 100
5, 309662, Note_on_c, 1, 70, 0
5, 309664, Note_on_c, 1, 73, 100
5, 309722, Note_on_c, 1, 73, 0
5, 309724, Note_on_c, 1, 71, 100
5, 309782, Note_on_c, 1, 71, 0
5, 309784, Note_on_c, 1, 70, 100
5, 309842, Note_on_c, 1, 70, 0
5, 309844, Note_on_c, 1, 67, 100
5, 309902, Note_on_c, 1, 67, 0
5, 309904, Note_on_c, 1, 73, 100
5, 310139, Note_on_c, 1, 73, 0
5, 310141, Note_on_c, 1, 70, 100
5, 310199, Note_on_c, 1, 70, 0
5, 310201, Note_on_c, 1, 71, 100
5, 310259, Note_on_c, 1, 71, 0
5, 310261, Note_on_c, 1, 62, 100
5, 310319, Note_on_c, 1, 62, 0
5, 310321, Note_on_c, 1, 64, 100
5, 310379, Note_on_c, 1, 64, 0
5, 310381, Note_on_c, 1, 61, 100
5, 310439, Note_on_c, 1, 61, 0
5, 310441, Note_on_c, 1, 59, 100
5, 310499, Note_on_c, 1, 59, 0
5, 310501, Note_on_c, 1, 62, 100
5, 310501, Note_on_c, 1, 62, 100
5, 310561, Note_on_c, 1, 66, 100
5, 310563, Note_on_c, 1, 62, 0
5, 310619, Note_on_c, 1, 62, 0
5, 310621, Note_on_c, 1, 71, 100
5, 310739, Note_on_c, 1, 71, 0
5, 310739, Note_on_c, 1, 66, 0
5, 310739, End_track
6, 0, Start_track
6, 0, MIDI_port, 0
6, 0, Title_t, "Harpsichord LH"
6, 0, Program_c, 2, 6
6, 0, Control_c, 2, 7, 100
6, 0, Control_c, 2, 10, 96
6, 960, Note_on_c, 2, 59, 100
6, 1080, Note_on_c, 2, 59, 0
6, 1080, Note_on_c, 2, 61, 100
6, 1200, Note_on_c, 2, 61, 0
6, 1200, Note_on_c, 2, 62, 100
6, 1320, Note_on_c, 2, 62, 0
6, 1320, Note_on_c, 2, 58, 100
6, 1440, Note_on_c, 2, 58, 0
6, 1440, Note_on_c, 2, 59, 100
6, 1560, Note_on_c, 2, 59, 0
6, 1560, Note_on_c, 2, 61, 100
6, 1680, Note_on_c, 2, 61, 0
6, 1680, Note_on_c, 2, 62, 100
6, 1800, Note_on_c, 2, 62, 0
6, 1800, Note_on_c, 2, 58, 100
6, 1920, Note_on_c, 2, 58, 0
6, 1920, Note_on_c, 2, 59, 100
6, 2040, Note_on_c, 2, 59, 0
6, 2040, Note_on_c, 2, 52, 100
6, 2160, Note_on_c, 2, 52, 0
6, 2160, Note_on_c, 2, 54, 100
6, 2280, Note_on_c, 2, 54, 0
6, 2280, Note_on_c, 2, 42, 100
6, 2400, Note_on_c, 2, 42, 0
6, 2400, Note_on_c, 2, 47, 100
6, 2640, Note_on_c, 2, 47, 0
6, 2760, Note_on_c, 2, 59, 100
6, 2880, Note_on_c, 2, 59, 0
6, 2880, Note_on_c, 2, 59, 100
6, 3000, Note_on_c, 2, 59, 0
6, 3000, Note_on_c, 2, 58, 100
6, 3120, Note_on_c, 2, 58, 0
6, 3240, Note_on_c, 2, 57, 100
6, 3360, Note_on_c, 2, 57, 0
6, 3360, Note_on_c, 2, 57, 100
6, 3480, Note_on_c, 2, 57, 0
6, 3480, Note_on_c, 2, 56, 100
6, 3600, Note_on_c, 2, 56, 0
6, 3720, Note_on_c, 2, 55, 100
6, 3840, Note_on_c, 2, 55, 0
6, 3840, Note_on_c, 2, 55, 100
6, 3960, Note_on_c, 2, 55, 0
6, 3960, Note_on_c, 2, 54, 100
6, 4080, Note_on_c, 2, 54, 0
6, 4080, Note_on_c, 2, 52, 100
6, 4200, Note_on_c, 2, 52, 0
6, 4200, Note_on_c, 2, 55, 100
6, 4320, Note_on_c, 2, 55, 0
6, 4320, Note_on_c, 2, 54, 100
6, 4440, Note_on_c, 2, 54, 0
6, 4440, Note_on_c, 2, 56, 100
6, 4560, Note_on_c, 2, 56, 0
6, 4560, Note_on_c, 2, 58, 100
6, 4680, Note_on_c, 2, 58, 0
6, 4680, Note_on_c, 2, 59, 100
6, 4800, Note_on_c, 2, 59, 0
6, 4800, Note_on_c, 2, 47, 100
6, 4920, Note_on_c, 2, 47, 0
6, 4920, Note_on_c, 2, 49, 100
6, 5040, Note_on_c, 2, 49, 0
6, 5040, Note_on_c, 2, 50, 100
6, 5160, Note_on_c, 2, 50, 0
6, 5160, Note_on_c, 2, 46, 100
6, 5280, Note_on_c, 2, 46, 0
6, 5280, Note_on_c, 2, 47, 100
6, 5400, Note_on_c, 2, 47, 0
6, 5400, Note_on_c, 2, 49, 100
6, 5520, Note_on_c, 2, 49, 0
6, 5520, Note_on_c, 2, 50, 100
6, 5640, Note_on_c, 2, 50, 0
6, 5640, Note_on_c, 2, 46, 100
6, 5760, Note_on_c, 2, 46, 0
6, 5760, Note_on_c, 2, 47, 100
6, 5880, Note_on_c, 2, 47, 0
6, 5880, Note_on_c, 2, 52, 100
6, 6000, Note_on_c, 2, 52, 0
6, 6000, Note_on_c, 2, 54, 100
6, 6120, Note_on_c, 2, 54, 0
6, 6120, Note_on_c, 2, 42, 100
6, 6240, Note_on_c, 2, 42, 0
6, 6240, Note_on_c, 2, 47, 100
6, 6480, Note_on_c, 2, 47, 0
6, 6540, Note_on_c, 2, 59, 100
6, 6600, Note_on_c, 2, 59, 0
6, 6600, Note_on_c, 2, 57, 100
6, 6660, Note_on_c, 2, 57, 0
6, 6660, Note_on_c, 2, 59, 100
6, 6720, Note_on_c, 2, 59, 0
6, 6720, Note_on_c, 2, 52, 100
6, 6840, Note_on_c, 2, 52, 0
6, 6840, Note_on_c, 2, 40, 100
6, 6960, Note_on_c, 2, 40, 0
6, 7080, Note_on_c, 2, 40, 100
6, 7200, Note_on_c, 2, 40, 0
6, 7200, Note_on_c, 2, 45, 100
6, 7440, Note_on_c, 2, 45, 0
6, 7500, Note_on_c, 2, 57, 100
6, 7560, Note_on_c, 2, 57, 0
6, 7560, Note_on_c, 2, 55, 100
6, 7620, Note_on_c, 2, 55, 0
6, 7620, Note_on_c, 2, 57, 100
6, 7680, Note_on_c, 2, 57, 0
6, 7680, Note_on_c, 2, 50, 100
6, 7800, Note_on_c, 2, 50, 0
6, 7800, Note_on_c, 2, 38, 100
6, 7920, Note_on_c, 2, 38, 0
6, 8040, Note_on_c, 2, 38, 100
6, 8160, Note_on_c, 2, 38, 0
6, 8160, Note_on_c, 2, 43, 100
6, 8400, Note_on_c, 2, 43, 0
6, 8520, Note_on_c, 2, 47, 100
6, 8640, Note_on_c, 2, 47, 0
6, 8640, Note_on_c, 2, 52, 100
6, 8760, Note_on_c, 2, 52, 0
6, 8880, Note_on_c, 2, 50, 100
6, 9000, Note_on_c, 2, 50, 0
6, 9120, Note_on_c, 2, 46, 100
6, 9240, Note_on_c, 2, 46, 0
6, 9480, Note_on_c, 2, 54, 100
6, 9600, Note_on_c, 2, 54, 0
6, 9600, Note_on_c, 2, 59, 100
6, 9720, Note_on_c, 2, 59, 0
6, 9720, Note_on_c, 2, 57, 100
6, 9840, Note_on_c, 2, 57, 0
6, 9840, Note_on_c, 2, 55, 100
6, 9960, Note_on_c, 2, 55, 0
6, 9960, Note_on_c, 2, 43, 100
6, 10080, Note_on_c, 2, 43, 0
6, 10080, Note_on_c, 2, 42, 100
6, 10200, Note_on_c, 2, 42, 0
6, 10200, Note_on_c, 2, 54, 100
6, 10320, Note_on_c, 2, 54, 0
6, 10320, Note_on_c, 2, 58, 100
6, 10440, Note_on_c, 2, 58, 0
6, 10440, Note_on_c, 2, 54, 100
6, 10560, Note_on_c, 2, 54, 0
6, 10560, Note_on_c, 2, 59, 100
6, 10680, Note_on_c, 2, 59, 0
6, 10680, Note_on_c, 2, 47, 100
6, 10800, Note_on_c, 2, 47, 0
6, 10800, Note_on_c, 2, 47, 100
6, 10920, Note_on_c, 2, 47, 0
6, 10920, Note_on_c, 2, 47, 100
6, 11040, Note_on_c, 2, 47, 0
6, 11040, Note_on_c, 2, 40, 100
6, 11160, Note_on_c, 2, 40, 0
6, 11160, Note_on_c, 2, 52, 100
6, 11280, Note_on_c, 2, 52, 0
6, 11280, Note_on_c, 2, 55, 100
6, 11400, Note_on_c, 2, 55, 0
6, 11400, Note_on_c, 2, 52, 100
6, 11520, Note_on_c, 2, 52, 0
6, 11520, Note_on_c, 2, 57, 100
6, 11640, Note_on_c, 2, 57, 0
6, 11640, Note_on_c, 2, 45, 100
6, 11760, Note_on_c, 2, 45, 0
6, 11760, Note_on_c, 2, 45, 100
6, 11880, Note_on_c, 2, 45, 0
6, 11880, Note_on_c, 2, 45, 100
6, 12000, Note_on_c, 2, 45, 0
6, 12000, Note_on_c, 2, 38, 100
6, 12120, Note_on_c, 2, 38, 0
6, 12120, Note_on_c, 2, 50, 100
6, 12240, Note_on_c, 2, 50, 0
6, 12240, Note_on_c, 2, 49, 100
6, 12360, Note_on_c, 2, 49, 0
6, 12360, Note_on_c, 2, 50, 100
6, 12480, Note_on_c, 2, 50, 0
6, 12480, Note_on_c, 2, 52, 100
6, 12600, Note_on_c, 2, 52, 0
6, 12600, Note_on_c, 2, 54, 100
6, 12720, Note_on_c, 2, 54, 0
6, 12720, Note_on_c, 2, 55, 100
6, 12840, Note_on_c, 2, 55, 0
6, 12840, Note_on_c, 2, 52, 100
6, 12960, Note_on_c, 2, 52, 0
6, 12960, Note_on_c, 2, 54, 100
6, 13080, Note_on_c, 2, 54, 0
6, 13080, Note_on_c, 2, 56, 100
6, 13200, Note_on_c, 2, 56, 0
6, 13200, Note_on_c, 2, 58, 100
6, 13320, Note_on_c, 2, 58, 0
6, 13320, Note_on_c, 2, 54, 100
6, 13440, Note_on_c, 2, 54, 0
6, 13440, Note_on_c, 2, 59, 100
6, 13560, Note_on_c, 2, 59, 0
6, 13560, Note_on_c, 2, 55, 100
6, 13680, Note_on_c, 2, 55, 0
6, 13680, Note_on_c, 2, 52, 100
6, 13800, Note_on_c, 2, 52, 0
6, 13800, Note_on_c, 2, 54, 100
6, 13920, Note_on_c, 2, 54, 0
6, 13920, Note_on_c, 2, 47, 100
6, 14040, Note_on_c, 2, 47, 0
6, 14040, Note_on_c, 2, 59, 100
6, 14160, Note_on_c, 2, 59, 0
6, 14160, Note_on_c, 2, 59, 100
6, 14280, Note_on_c, 2, 59, 0
6, 14280, Note_on_c, 2, 58, 100
6, 14400, Note_on_c, 2, 58, 0
6, 14400, Note_on_c, 2, 59, 100
6, 14520, Note_on_c, 2, 59, 0
6, 14520, Note_on_c, 2, 47, 100
6, 14640, Note_on_c, 2, 47, 0
6, 14640, Note_on_c, 2, 45, 100
6, 14760, Note_on_c, 2, 45, 0
6, 14760, Note_on_c, 2, 43, 100
6, 14880, Note_on_c, 2, 43, 0
6, 14880, Note_on_c, 2, 42, 100
6, 15120, Note_on_c, 2, 42, 0
6, 15420, Note_on_c, 2, 59, 100
6, 15480, Note_on_c, 2, 59, 0
6, 15480, Note_on_c, 2, 59, 100
6, 15540, Note_on_c, 2, 59, 0
6, 15540, Note_on_c, 2, 58, 100
6, 15600, Note_on_c, 2, 58, 0
6, 15600, Note_on_c, 2, 58, 100
6, 15660, Note_on_c, 2, 58, 0
6, 15660, Note_on_c, 2, 59, 100
6, 15720, Note_on_c, 2, 59, 0
6, 15720, Note_on_c, 2, 59, 100
6, 15780, Note_on_c, 2, 59, 0
6, 15780, Note_on_c, 2, 58, 100
6, 15840, Note_on_c, 2, 58, 0
6, 15840, Note_on_c, 2, 58, 100
6, 16080, Note_on_c, 2, 58, 0
6, 16200, Note_on_c, 2, 54, 100
6, 16320, Note_on_c, 2, 54, 0
6, 16320, Note_on_c, 2, 59, 100
6, 16500, Note_on_c, 2, 59, 0
6, 16500, Note_on_c, 2, 61, 100
6, 16560, Note_on_c, 2, 61, 0
6, 16560, Note_on_c, 2, 59, 100
6, 16620, Note_on_c, 2, 59, 0
6, 16620, Note_on_c, 2, 57, 100
6, 16680, Note_on_c, 2, 57, 0
6, 16680, Note_on_c, 2, 55, 100
6, 16740, Note_on_c, 2, 55, 0
6, 16740, Note_on_c, 2, 54, 100
6, 16800, Note_on_c, 2, 54, 0
6, 16800, Note_on_c, 2, 52, 100
6, 16980, Note_on_c, 2, 52, 0
6, 16980, Note_on_c, 2, 51, 100
6, 17040, Note_on_c, 2, 51, 0
6, 17040, Note_on_c, 2, 52, 100
6, 17100, Note_on_c, 2, 52, 0
6, 17100, Note_on_c, 2, 54, 100
6, 17160, Note_on_c, 2, 54, 0
6, 17160, Note_on_c, 2, 55, 100
6, 17220, Note_on_c, 2, 55, 0
6, 17220, Note_on_c, 2, 52, 100
6, 17280, Note_on_c, 2, 52, 0
6, 17280, Note_on_c, 2, 57, 100
6, 17460, Note_on_c, 2, 57, 0
6, 17460, Note_on_c, 2, 59, 100
6, 17520, Note_on_c, 2, 59, 0
6, 17520, Note_on_c, 2, 57, 100
6, 17580, Note_on_c, 2, 57, 0
6, 17580, Note_on_c, 2, 55, 100
6, 17640, Note_on_c, 2, 55, 0
6, 17640, Note_on_c, 2, 54, 100
6, 17700, Note_on_c, 2, 54, 0
6, 17700, Note_on_c, 2, 52, 100
6, 17760, Note_on_c, 2, 52, 0
6, 17760, Note_on_c, 2, 50, 100
6, 17940, Note_on_c, 2, 50, 0
6, 17940, Note_on_c, 2, 49, 100
6, 18000, Note_on_c, 2, 49, 0
6, 18000, Note_on_c, 2, 50, 100
6, 18060, Note_on_c, 2, 50, 0
6, 18060, Note_on_c, 2, 52, 100
6, 18120, Note_on_c, 2, 52, 0
6, 18120, Note_on_c, 2, 54, 100
6, 18180, Note_on_c, 2, 54, 0
6, 18180, Note_on_c, 2, 50, 100
6, 18240, Note_on_c, 2, 50, 0
6, 18240, Note_on_c, 2, 55, 100
6, 18360, Note_on_c, 2, 55, 0
6, 18360, Note_on_c, 2, 43, 100
6, 18480, Note_on_c, 2, 43, 0
6, 18480, Note_on_c, 2, 43, 100
6, 18600, Note_on_c, 2, 43, 0
6, 18600, Note_on_c, 2, 43, 100
6, 18720, Note_on_c, 2, 43, 0
6, 18720, Note_on_c, 2, 42, 100
6, 18840, Note_on_c, 2, 42, 0
6, 18840, Note_on_c, 2, 52, 100
6, 18960, Note_on_c, 2, 52, 0
6, 18960, Note_on_c, 2, 50, 100
6, 19080, Note_on_c, 2, 50, 0
6, 19080, Note_on_c, 2, 54, 100
6, 19200, Note_on_c, 2, 54, 0
6, 19200, Note_on_c, 2, 55, 100
6, 19320, Note_on_c, 2, 55, 0
6, 19320, Note_on_c, 2, 52, 100
6, 19440, Note_on_c, 2, 52, 0
6, 19440, Note_on_c, 2, 54, 100
6, 19560, Note_on_c, 2, 54, 0
6, 19560, Note_on_c, 2, 42, 100
6, 19680, Note_on_c, 2, 42, 0
6, 19680, Note_on_c, 2, 47, 100
6, 19800, Note_on_c, 2, 47, 0
6, 19800, Note_on_c, 2, 35, 100
6, 19920, Note_on_c, 2, 35, 0
6, 19920, Note_on_c, 2, 38, 100
6, 20040, Note_on_c, 2, 38, 0
6, 20040, Note_on_c, 2, 42, 100
6, 20160, Note_on_c, 2, 42, 0
6, 20160, Note_on_c, 2, 47, 100
6, 20280, Note_on_c, 2, 47, 0
6, 20280, Note_on_c, 2, 52, 100
6, 20400, Note_on_c, 2, 52, 0
6, 20400, Note_on_c, 2, 54, 100
6, 20520, Note_on_c, 2, 54, 0
6, 20520, Note_on_c, 2, 52, 100
6, 20640, Note_on_c, 2, 52, 0
6, 20640, Note_on_c, 2, 50, 100
6, 20760, Note_on_c, 2, 50, 0
6, 20760, Note_on_c, 2, 52, 100
6, 20880, Note_on_c, 2, 52, 0
6, 20880, Note_on_c, 2, 50, 100
6, 21000, Note_on_c, 2, 50, 0
6, 21000, Note_on_c, 2, 49, 100
6, 21120, Note_on_c, 2, 49, 0
6, 21120, Note_on_c, 2, 47, 100
6, 21240, Note_on_c, 2, 47, 0
6, 21240, Note_on_c, 2, 52, 100
6, 21360, Note_on_c, 2, 52, 0
6, 21360, Note_on_c, 2, 54, 100
6, 21480, Note_on_c, 2, 54, 0
6, 21480, Note_on_c, 2, 42, 100
6, 21600, Note_on_c, 2, 42, 0
6, 21600, Note_on_c, 2, 47, 100
6, 21720, Note_on_c, 2, 47, 0
6, 21720, Note_on_c, 2, 59, 100
6, 21780, Note_on_c, 2, 59, 0
6, 21780, Note_on_c, 2, 61, 100
6, 21840, Note_on_c, 2, 61, 0
6, 21840, Note_on_c, 2, 62, 100
6, 21960, Note_on_c, 2, 62, 0
6, 21960, Note_on_c, 2, 59, 100
6, 22080, Note_on_c, 2, 59, 0
6, 22080, Note_on_c, 2, 64, 100
6, 22200, Note_on_c, 2, 64, 0
6, 22200, Note_on_c, 2, 52, 100
6, 22320, Note_on_c, 2, 52, 0
6, 22440, Note_on_c, 2, 40, 100
6, 22560, Note_on_c, 2, 40, 0
6, 22560, Note_on_c, 2, 45, 100
6, 22680, Note_on_c, 2, 45, 0
6, 22680, Note_on_c, 2, 57, 100
6, 22740, Note_on_c, 2, 57, 0
6, 22740, Note_on_c, 2, 59, 100
6, 22800, Note_on_c, 2, 59, 0
6, 22800, Note_on_c, 2, 61, 100
6, 22920, Note_on_c, 2, 61, 0
6, 22920, Note_on_c, 2, 57, 100
6, 23040, Note_on_c, 2, 57, 0
6, 23040, Note_on_c, 2, 62, 100
6, 23160, Note_on_c, 2, 62, 0
6, 23160, Note_on_c, 2, 50, 100
6, 23280, Note_on_c, 2, 50, 0
6, 23400, Note_on_c, 2, 38, 100
6, 23520, Note_on_c, 2, 38, 0
6, 23520, Note_on_c, 2, 43, 100
6, 23640, Note_on_c, 2, 43, 0
6, 23640, Note_on_c, 2, 55, 100
6, 23700, Note_on_c, 2, 55, 0
6, 23700, Note_on_c, 2, 54, 100
6, 23760, Note_on_c, 2, 54, 0
6, 23760, Note_on_c, 2, 52, 100
6, 23880, Note_on_c, 2, 52, 0
6, 23880, Note_on_c, 2, 50, 100
6, 24000, Note_on_c, 2, 50, 0
6, 24000, Note_on_c, 2, 49, 100
6, 24120, Note_on_c, 2, 49, 0
6, 24120, Note_on_c, 2, 52, 100
6, 24240, Note_on_c, 2, 52, 0
6, 24240, Note_on_c, 2, 54, 100
6, 24360, Note_on_c, 2, 54, 0
6, 24360, Note_on_c, 2, 52, 100
6, 24480, Note_on_c, 2, 52, 0
6, 24480, Note_on_c, 2, 50, 100
6, 24600, Note_on_c, 2, 50, 0
6, 24600, Note_on_c, 2, 52, 100
6, 24720, Note_on_c, 2, 52, 0
6, 24720, Note_on_c, 2, 50, 100
6, 24840, Note_on_c, 2, 50, 0
6, 24840, Note_on_c, 2, 49, 100
6, 24960, Note_on_c, 2, 49, 0
6, 24960, Note_on_c, 2, 47, 100
6, 25080, Note_on_c, 2, 47, 0
6, 25080, Note_on_c, 2, 50, 100
6, 25200, Note_on_c, 2, 50, 0
6, 25200, Note_on_c, 2, 52, 100
6, 25320, Note_on_c, 2, 52, 0
6, 25320, Note_on_c, 2, 55, 100
6, 25502, Note_on_c, 2, 61, 100
6, 25558, Note_on_c, 2, 54, 100
6, 25560, Note_on_c, 2, 55, 0
6, 25562, Note_on_c, 2, 61, 0
6, 25562, Note_on_c, 2, 62, 100
6, 25618, Note_on_c, 2, 54, 0
6, 25622, Note_on_c, 2, 55, 100
6, 25672, Note_on_c, 2, 57, 100
6, 25682, Note_on_c, 2, 55, 0
6, 25798, Note_on_c, 2, 61, 100
6, 25802, Note_on_c, 2, 62, 0
6, 25912, Note_on_c, 2, 57, 0
6, 25918, Note_on_c, 2, 61, 0
6, 25920, Note_on_c, 2, 50, 100
6, 25920, Note_on_c, 2, 62, 100
6, 26040, Note_on_c, 2, 62, 0
6, 26040, Note_on_c, 2, 50, 0
6, 26040, Note_on_c, 2, 55, 100
6, 26160, Note_on_c, 2, 55, 0
6, 26160, Note_on_c, 2, 57, 100
6, 26280, Note_on_c, 2, 57, 0
6, 26280, Note_on_c, 2, 58, 100
6, 26400, Note_on_c, 2, 58, 0
6, 26400, Note_on_c, 2, 59, 100
6, 26520, Note_on_c, 2, 59, 0
6, 26520, Note_on_c, 2, 61, 100
6, 26640, Note_on_c, 2, 61, 0
6, 26640, Note_on_c, 2, 62, 100
6, 26760, Note_on_c, 2, 62, 0
6, 26760, Note_on_c, 2, 61, 100
6, 26880, Note_on_c, 2, 61, 0
6, 26880, Note_on_c, 2, 59, 100
6, 27000, Note_on_c, 2, 59, 0
6, 27000, Note_on_c, 2, 55, 100
6, 27120, Note_on_c, 2, 55, 0
6, 27120, Note_on_c, 2, 57, 100
6, 27240, Note_on_c, 2, 57, 0
6, 27240, Note_on_c, 2, 45, 100
6, 27360, Note_on_c, 2, 45, 0
6, 27360, Note_on_c, 2, 50, 100
6, 27480, Note_on_c, 2, 50, 0
6, 27480, Note_on_c, 2, 54, 100
6, 27540, Note_on_c, 2, 54, 0
6, 27540, Note_on_c, 2, 52, 100
6, 27600, Note_on_c, 2, 52, 0
6, 27600, Note_on_c, 2, 54, 100
6, 27720, Note_on_c, 2, 54, 0
6, 27720, Note_on_c, 2, 50, 100
6, 27840, Note_on_c, 2, 50, 0
6, 27840, Note_on_c, 2, 55, 100
6, 27960, Note_on_c, 2, 55, 0
6, 27960, Note_on_c, 2, 54, 100
6, 28080, Note_on_c, 2, 54, 0
6, 28080, Note_on_c, 2, 52, 100
6, 28200, Note_on_c, 2, 52, 0
6, 28200, Note_on_c, 2, 40, 100
6, 28320, Note_on_c, 2, 40, 0
6, 28320, Note_on_c, 2, 45, 100
6, 28440, Note_on_c, 2, 45, 0
6, 28440, Note_on_c, 2, 44, 100
6, 28560, Note_on_c, 2, 44, 0
6, 28560, Note_on_c, 2, 42, 100
6, 28680, Note_on_c, 2, 42, 0
6, 28680, Note_on_c, 2, 54, 100
6, 28800, Note_on_c, 2, 54, 0
6, 28800, Note_on_c, 2, 59, 100
6, 28920, Note_on_c, 2, 59, 0
6, 28920, Note_on_c, 2, 57, 100
6, 29040, Note_on_c, 2, 57, 0
6, 29040, Note_on_c, 2, 56, 100
6, 29160, Note_on_c, 2, 56, 0
6, 29160, Note_on_c, 2, 54, 100
6, 29280, Note_on_c, 2, 54, 0
6, 29280, Note_on_c, 2, 56, 100
6, 29400, Note_on_c, 2, 56, 0
6, 29400, Note_on_c, 2, 49, 100
6, 29520, Note_on_c, 2, 49, 0
6, 29520, Note_on_c, 2, 52, 100
6, 29640, Note_on_c, 2, 52, 0
6, 29640, Note_on_c, 2, 49, 100
6, 29760, Note_on_c, 2, 49, 0
6, 29760, Note_on_c, 2, 54, 100
6, 29880, Note_on_c, 2, 54, 0
6, 29880, Note_on_c, 2, 42, 100
6, 30000, Note_on_c, 2, 42, 0
6, 30120, Note_on_c, 2, 47, 100
6, 30240, Note_on_c, 2, 47, 0
6, 30240, Note_on_c, 2, 52, 100
6, 30360, Note_on_c, 2, 52, 0
6, 30360, Note_on_c, 2, 40, 100
6, 30480, Note_on_c, 2, 40, 0
6, 30600, Note_on_c, 2, 45, 100
6, 30720, Note_on_c, 2, 45, 0
6, 30720, Note_on_c, 2, 50, 100
6, 30840, Note_on_c, 2, 50, 0
6, 30840, Note_on_c, 2, 38, 100
6, 30960, Note_on_c, 2, 38, 0
6, 31080, Note_on_c, 2, 44, 100
6, 31200, Note_on_c, 2, 44, 0
6, 31200, Note_on_c, 2, 49, 100
6, 31320, Note_on_c, 2, 49, 0
6, 31320, Note_on_c, 2, 47, 100
6, 31440, Note_on_c, 2, 47, 0
6, 31440, Note_on_c, 2, 45, 100
6, 31560, Note_on_c, 2, 45, 0
6, 31560, Note_on_c, 2, 44, 100
6, 31680, Note_on_c, 2, 44, 0
6, 31680, Note_on_c, 2, 42, 100
6, 31800, Note_on_c, 2, 42, 0
6, 31800, Note_on_c, 2, 44, 100
6, 31920, Note_on_c, 2, 44, 0
6, 31920, Note_on_c, 2, 45, 100
6, 32040, Note_on_c, 2, 45, 0
6, 32040, Note_on_c, 2, 40, 100
6, 32160, Note_on_c, 2, 40, 0
6, 32160, Note_on_c, 2, 42, 100
6, 32280, Note_on_c, 2, 42, 0
6, 32280, Note_on_c, 2, 44, 100
6, 32400, Note_on_c, 2, 44, 0
6, 32400, Note_on_c, 2, 45, 100
6, 32520, Note_on_c, 2, 45, 0
6, 32520, Note_on_c, 2, 40, 100
6, 32640, Note_on_c, 2, 40, 0
6, 32640, Note_on_c, 2, 42, 100
6, 32760, Note_on_c, 2, 42, 0
6, 32760, Note_on_c, 2, 47, 100
6, 32880, Note_on_c, 2, 47, 0
6, 32880, Note_on_c, 2, 49, 100
6, 33000, Note_on_c, 2, 49, 0
6, 33000, Note_on_c, 2, 37, 100
6, 33120, Note_on_c, 2, 37, 0
6, 33120, Note_on_c, 2, 42, 100
6, 33360, Note_on_c, 2, 42, 0
6, 33480, Note_on_c, 2, 54, 100
6, 33600, Note_on_c, 2, 54, 0
6, 33600, Note_on_c, 2, 54, 100
6, 33660, Note_on_c, 2, 54, 0
6, 33660, Note_on_c, 2, 56, 100
6, 33720, Note_on_c, 2, 56, 0
6, 33720, Note_on_c, 2, 53, 100
6, 33840, Note_on_c, 2, 53, 0
6, 33960, Note_on_c, 2, 52, 100
6, 34080, Note_on_c, 2, 52, 0
6, 34080, Note_on_c, 2, 52, 100
6, 34140, Note_on_c, 2, 52, 0
6, 34140, Note_on_c, 2, 54, 100
6, 34200, Note_on_c, 2, 54, 0
6, 34200, Note_on_c, 2, 51, 100
6, 34320, Note_on_c, 2, 51, 0
6, 34440, Note_on_c, 2, 50, 100
6, 34560, Note_on_c, 2, 50, 0
6, 34560, Note_on_c, 2, 49, 100
6, 34680, Note_on_c, 2, 49, 0
6, 34680, Note_on_c, 2, 54, 100
6, 34800, Note_on_c, 2, 54, 0
6, 34800, Note_on_c, 2, 58, 100
6, 34920, Note_on_c, 2, 58, 0
6, 34920, Note_on_c, 2, 54, 100
6, 35040, Note_on_c, 2, 54, 0
6, 35040, Note_on_c, 2, 59, 100
6, 35160, Note_on_c, 2, 59, 0
6, 35160, Note_on_c, 2, 52, 100
6, 35280, Note_on_c, 2, 52, 0
6, 35280, Note_on_c, 2, 62, 100
6, 35310, Note_on_c, 2, 62, 0
6, 35310, Note_on_c, 2, 61, 100
6, 35340, Note_on_c, 2, 61, 0
6, 35340, Note_on_c, 2, 59, 100
6, 35400, Note_on_c, 2, 59, 0
6, 35400, Note_on_c, 2, 61, 100
6, 35460, Note_on_c, 2, 61, 0
6, 35460, Note_on_c, 2, 64, 100
6, 35520, Note_on_c, 2, 64, 0
6, 35520, Note_on_c, 2, 58, 100
6, 35580, Note_on_c, 2, 58, 0
6, 35580, Note_on_c, 2, 66, 100
6, 35640, Note_on_c, 2, 66, 0
6, 35640, Note_on_c, 2, 66, 100
6, 35700, Note_on_c, 2, 66, 0
6, 35700, Note_on_c, 2, 59, 100
6, 35760, Note_on_c, 2, 59, 0
6, 35760, Note_on_c, 2, 59, 100
6, 35820, Note_on_c, 2, 59, 0
6, 35820, Note_on_c, 2, 57, 100
6, 35880, Note_on_c, 2, 57, 0
6, 35880, Note_on_c, 2, 56, 100
6, 35940, Note_on_c, 2, 56, 0
6, 35940, Note_on_c, 2, 57, 100
6, 36000, Note_on_c, 2, 57, 0
6, 36000, Note_on_c, 2, 56, 100
6, 36060, Note_on_c, 2, 56, 0
6, 36060, Note_on_c, 2, 65, 100
6, 36120, Note_on_c, 2, 65, 0
6, 36120, Note_on_c, 2, 65, 100
6, 36180, Note_on_c, 2, 65, 0
6, 36180, Note_on_c, 2, 59, 100
6, 36240, Note_on_c, 2, 59, 0
6, 36240, Note_on_c, 2, 57, 100
6, 36300, Note_on_c, 2, 57, 0
6, 36300, Note_on_c, 2, 56, 100
6, 36360, Note_on_c, 2, 56, 0
6, 36360, Note_on_c, 2, 54, 100
6, 36420, Note_on_c, 2, 54, 0
6, 36420, Note_on_c, 2, 53, 100
6, 36480, Note_on_c, 2, 53, 0
6, 36480, Note_on_c, 2, 54, 100
6, 36600, Note_on_c, 2, 54, 0
6, 36600, Note_on_c, 2, 56, 100
6, 36720, Note_on_c, 2, 56, 0
6, 36720, Note_on_c, 2, 57, 100
6, 36840, Note_on_c, 2, 57, 0
6, 36840, Note_on_c, 2, 53, 100
6, 36960, Note_on_c, 2, 53, 0
6, 36960, Note_on_c, 2, 54, 100
6, 37080, Note_on_c, 2, 54, 0
6, 37080, Note_on_c, 2, 56, 100
6, 37200, Note_on_c, 2, 56, 0
6, 37200, Note_on_c, 2, 57, 100
6, 37320, Note_on_c, 2, 57, 0
6, 37320, Note_on_c, 2, 53, 100
6, 37440, Note_on_c, 2, 53, 0
6, 37440, Note_on_c, 2, 54, 100
6, 37560, Note_on_c, 2, 54, 0
6, 37560, Note_on_c, 2, 59, 100
6, 37680, Note_on_c, 2, 59, 0
6, 37680, Note_on_c, 2, 61, 100
6, 37800, Note_on_c, 2, 61, 0
6, 37800, Note_on_c, 2, 49, 100
6, 37920, Note_on_c, 2, 49, 0
6, 37920, Note_on_c, 2, 54, 100
6, 38040, Note_on_c, 2, 54, 0
6, 38040, Note_on_c, 2, 56, 100
6, 38160, Note_on_c, 2, 56, 0
6, 38160, Note_on_c, 2, 57, 100
6, 38280, Note_on_c, 2, 57, 0
6, 38280, Note_on_c, 2, 54, 100
6, 38400, Note_on_c, 2, 54, 0
6, 38400, Note_on_c, 2, 59, 100
6, 38460, Note_on_c, 2, 59, 0
6, 38460, Note_on_c, 2, 57, 100
6, 38520, Note_on_c, 2, 57, 0
6, 38520, Note_on_c, 2, 56, 100
6, 38580, Note_on_c, 2, 56, 0
6, 38580, Note_on_c, 2, 54, 100
6, 38640, Note_on_c, 2, 54, 0
6, 38640, Note_on_c, 2, 56, 100
6, 38760, Note_on_c, 2, 56, 0
6, 38760, Note_on_c, 2, 59, 100
6, 38880, Note_on_c, 2, 59, 0
6, 38880, Note_on_c, 2, 52, 100
6, 38940, Note_on_c, 2, 52, 0
6, 38940, Note_on_c, 2, 50, 100
6, 39000, Note_on_c, 2, 50, 0
6, 39000, Note_on_c, 2, 49, 100
6, 39060, Note_on_c, 2, 49, 0
6, 39060, Note_on_c, 2, 47, 100
6, 39120, Note_on_c, 2, 47, 0
6, 39120, Note_on_c, 2, 49, 100
6, 39240, Note_on_c, 2, 49, 0
6, 39240, Note_on_c, 2, 52, 100
6, 39360, Note_on_c, 2, 52, 0
6, 39360, Note_on_c, 2, 57, 100
6, 39420, Note_on_c, 2, 57, 0
6, 39420, Note_on_c, 2, 55, 100
6, 39480, Note_on_c, 2, 55, 0
6, 39480, Note_on_c, 2, 54, 100
6, 39540, Note_on_c, 2, 54, 0
6, 39540, Note_on_c, 2, 52, 100
6, 39600, Note_on_c, 2, 52, 0
6, 39600, Note_on_c, 2, 54, 100
6, 39720, Note_on_c, 2, 54, 0
6, 39720, Note_on_c, 2, 57, 100
6, 39840, Note_on_c, 2, 57, 0
6, 39840, Note_on_c, 2, 50, 100
6, 39900, Note_on_c, 2, 50, 0
6, 39900, Note_on_c, 2, 48, 100
6, 39960, Note_on_c, 2, 48, 0
6, 39960, Note_on_c, 2, 47, 100
6, 40020, Note_on_c, 2, 47, 0
6, 40020, Note_on_c, 2, 45, 100
6, 40080, Note_on_c, 2, 45, 0
6, 40080, Note_on_c, 2, 47, 100
6, 40200, Note_on_c, 2, 47, 0
6, 40200, Note_on_c, 2, 50, 100
6, 40320, Note_on_c, 2, 50, 0
6, 40320, Note_on_c, 2, 55, 100
6, 40440, Note_on_c, 2, 55, 0
6, 40440, Note_on_c, 2, 54, 100
6, 40560, Note_on_c, 2, 54, 0
6, 40560, Note_on_c, 2, 55, 100
6, 40620, Note_on_c, 2, 55, 0
6, 40620, Note_on_c, 2, 54, 100
6, 40680, Note_on_c, 2, 54, 0
6, 40680, Note_on_c, 2, 52, 100
6, 40740, Note_on_c, 2, 52, 0
6, 40740, Note_on_c, 2, 50, 100
6, 40800, Note_on_c, 2, 50, 0
6, 40800, Note_on_c, 2, 49, 100
6, 40920, Note_on_c, 2, 49, 0
6, 40920, Note_on_c, 2, 48, 100
6, 41040, Note_on_c, 2, 48, 0
6, 41040, Note_on_c, 2, 47, 100
6, 41080, Note_on_c, 2, 47, 0
6, 41080, Note_on_c, 2, 46, 100
6, 41120, Note_on_c, 2, 46, 0
6, 41120, Note_on_c, 2, 47, 100
6, 41160, Note_on_c, 2, 47, 0
6, 41160, Note_on_c, 2, 49, 100
6, 41200, Note_on_c, 2, 49, 0
6, 41200, Note_on_c, 2, 47, 100
6, 41240, Note_on_c, 2, 47, 0
6, 41240, Note_on_c, 2, 46, 100
6, 41280, Note_on_c, 2, 46, 0
6, 41280, Note_on_c, 2, 47, 100
6, 41340, Note_on_c, 2, 47, 0
6, 41340, Note_on_c, 2, 42, 100
6, 41400, Note_on_c, 2, 42, 0
6, 41400, Note_on_c, 2, 42, 100
6, 41460, Note_on_c, 2, 42, 0
6, 41460, Note_on_c, 2, 41, 100
6, 41520, Note_on_c, 2, 41, 0
6, 41520, Note_on_c, 2, 41, 100
6, 41580, Note_on_c, 2, 41, 0
6, 41580, Note_on_c, 2, 52, 100
6, 41640, Note_on_c, 2, 52, 0
6, 41640, Note_on_c, 2, 52, 100
6, 41700, Note_on_c, 2, 52, 0
6, 41700, Note_on_c, 2, 54, 100
6, 41760, Note_on_c, 2, 54, 0
6, 41760, Note_on_c, 2, 55, 100
6, 41820, Note_on_c, 2, 55, 0
6, 41820, Note_on_c, 2, 47, 100
6, 41880, Note_on_c, 2, 47, 0
6, 41880, Note_on_c, 2, 47, 100
6, 41940, Note_on_c, 2, 47, 0
6, 41940, Note_on_c, 2, 45, 100
6, 42000, Note_on_c, 2, 45, 0
6, 42000, Note_on_c, 2, 45, 100
6, 42060, Note_on_c, 2, 45, 0
6, 42060, Note_on_c, 2, 43, 100
6, 42120, Note_on_c, 2, 43, 0
6, 42120, Note_on_c, 2, 43, 100
6, 42180, Note_on_c, 2, 43, 0
6, 42180, Note_on_c, 2, 42, 100
6, 42240, Note_on_c, 2, 42, 0
6, 42240, Note_on_c, 2, 42, 100
6, 42300, Note_on_c, 2, 42, 0
6, 42300, Note_on_c, 2, 54, 100
6, 42360, Note_on_c, 2, 54, 0
6, 42360, Note_on_c, 2, 54, 100
6, 42420, Note_on_c, 2, 54, 0
6, 42420, Note_on_c, 2, 52, 100
6, 42480, Note_on_c, 2, 52, 0
6, 42480, Note_on_c, 2, 52, 100
6, 42540, Note_on_c, 2, 52, 0
6, 42540, Note_on_c, 2, 50, 100
6, 42600, Note_on_c, 2, 50, 0
6, 42600, Note_on_c, 2, 50, 100
6, 42660, Note_on_c, 2, 50, 0
6, 42660, Note_on_c, 2, 49, 100
6, 42720, Note_on_c, 2, 49, 0
6, 42720, Note_on_c, 2, 49, 100
6, 42960, Note_on_c, 2, 49, 0
6, 43080, Note_on_c, 2, 53, 100
6, 43200, Note_on_c, 2, 53, 0
6, 43200, Note_on_c, 2, 54, 100
6, 43320, Note_on_c, 2, 54, 0
6, 43320, Note_on_c, 2, 53, 100
6, 43440, Note_on_c, 2, 53, 0
6, 43440, Note_on_c, 2, 54, 100
6, 43560, Note_on_c, 2, 54, 0
6, 43560, Note_on_c, 2, 53, 100
6, 43680, Note_on_c, 2, 53, 0
6, 43680, Note_on_c, 2, 52, 100
6, 43800, Note_on_c, 2, 52, 0
6, 43800, Note_on_c, 2, 43, 100
6, 43920, Note_on_c, 2, 43, 0
6, 43920, Note_on_c, 2, 45, 100
6, 44040, Note_on_c, 2, 45, 0
6, 44040, Note_on_c, 2, 49, 100
6, 44160, Note_on_c, 2, 49, 0
6, 44160, Note_on_c, 2, 50, 100
6, 44280, Note_on_c, 2, 50, 0
6, 44280, Note_on_c, 2, 49, 100
6, 44400, Note_on_c, 2, 49, 0
6, 44400, Note_on_c, 2, 50, 100
6, 44520, Note_on_c, 2, 50, 0
6, 44520, Note_on_c, 2, 55, 100
6, 44640, Note_on_c, 2, 55, 0
6, 44640, Note_on_c, 2, 49, 100
6, 44760, Note_on_c, 2, 49, 0
6, 44760, Note_on_c, 2, 52, 100
6, 44880, Note_on_c, 2, 52, 0
6, 44880, Note_on_c, 2, 54, 100
6, 45000, Note_on_c, 2, 54, 0
6, 45000, Note_on_c, 2, 58, 100
6, 45120, Note_on_c, 2, 58, 0
6, 45120, Note_on_c, 2, 59, 100
6, 45240, Note_on_c, 2, 59, 0
6, 45240, Note_on_c, 2, 58, 100
6, 45360, Note_on_c, 2, 58, 0
6, 45360, Note_on_c, 2, 59, 100
6, 45480, Note_on_c, 2, 59, 0
6, 45480, Note_on_c, 2, 58, 100
6, 45600, Note_on_c, 2, 58, 0
6, 45600, Note_on_c, 2, 57, 100
6, 45720, Note_on_c, 2, 57, 0
6, 45720, Note_on_c, 2, 48, 100
6, 45840, Note_on_c, 2, 48, 0
6, 45840, Note_on_c, 2, 50, 100
6, 45960, Note_on_c, 2, 50, 0
6, 45960, Note_on_c, 2, 54, 100
6, 46080, Note_on_c, 2, 54, 0
6, 46080, Note_on_c, 2, 55, 100
6, 46200, Note_on_c, 2, 55, 0
6, 46200, Note_on_c, 2, 54, 100
6, 46320, Note_on_c, 2, 54, 0
6, 46320, Note_on_c, 2, 55, 100
6, 46380, Note_on_c, 2, 55, 0
6, 46380, Note_on_c, 2, 56, 100
6, 46440, Note_on_c, 2, 56, 0
6, 46440, Note_on_c, 2, 56, 100
6, 46500, Note_on_c, 2, 56, 0
6, 46500, Note_on_c, 2, 57, 100
6, 46560, Note_on_c, 2, 57, 0
6, 46560, Note_on_c, 2, 57, 100
6, 46620, Note_on_c, 2, 57, 0
6, 46620, Note_on_c, 2, 55, 100
6, 46680, Note_on_c, 2, 55, 0
6, 46680, Note_on_c, 2, 55, 100
6, 46740, Note_on_c, 2, 55, 0
6, 46740, Note_on_c, 2, 54, 100
6, 46800, Note_on_c, 2, 54, 0
6, 46800, Note_on_c, 2, 55, 100
6, 46860, Note_on_c, 2, 55, 0
6, 46860, Note_on_c, 2, 54, 100
6, 46920, Note_on_c, 2, 54, 0
6, 46920, Note_on_c, 2, 54, 100
6, 46980, Note_on_c, 2, 54, 0
6, 46980, Note_on_c, 2, 52, 100
6, 47040, Note_on_c, 2, 52, 0
6, 47040, Note_on_c, 2, 54, 100
6, 47100, Note_on_c, 2, 54, 0
6, 47100, Note_on_c, 2, 56, 100
6, 47160, Note_on_c, 2, 56, 0
6, 47160, Note_on_c, 2, 56, 100
6, 47220, Note_on_c, 2, 56, 0
6, 47220, Note_on_c, 2, 58, 100
6, 47280, Note_on_c, 2, 58, 0
6, 47280, Note_on_c, 2, 58, 100
6, 47340, Note_on_c, 2, 58, 0
6, 47340, Note_on_c, 2, 59, 100
6, 47400, Note_on_c, 2, 59, 0
6, 47400, Note_on_c, 2, 59, 100
6, 47460, Note_on_c, 2, 59, 0
6, 47460, Note_on_c, 2, 58, 100
6, 47520, Note_on_c, 2, 58, 0
6, 47520, Note_on_c, 2, 59, 100
6, 47640, Note_on_c, 2, 59, 0
6, 47640, Note_on_c, 2, 55, 100
6, 47760, Note_on_c, 2, 55, 0
6, 47760, Note_on_c, 2, 52, 100
6, 47880, Note_on_c, 2, 52, 0
6, 47880, Note_on_c, 2, 54, 100
6, 48000, Note_on_c, 2, 54, 0
6, 48000, Note_on_c, 2, 56, 100
6, 48060, Note_on_c, 2, 56, 0
6, 48060, Note_on_c, 2, 54, 100
6, 48120, Note_on_c, 2, 54, 0
6, 48120, Note_on_c, 2, 54, 100
6, 48180, Note_on_c, 2, 54, 0
6, 48180, Note_on_c, 2, 53, 100
6, 48240, Note_on_c, 2, 53, 0
6, 48240, Note_on_c, 2, 53, 100
6, 48300, Note_on_c, 2, 53, 0
6, 48300, Note_on_c, 2, 54, 100
6, 48360, Note_on_c, 2, 54, 0
6, 48360, Note_on_c, 2, 54, 100
6, 48420, Note_on_c, 2, 54, 0
6, 48420, Note_on_c, 2, 53, 100
6, 48480, Note_on_c, 2, 53, 0
6, 48480, Note_on_c, 2, 54, 100
6, 48600, Note_on_c, 2, 54, 0
6, 48600, Note_on_c, 2, 50, 100
6, 48720, Note_on_c, 2, 50, 0
6, 48720, Note_on_c, 2, 47, 100
6, 48840, Note_on_c, 2, 47, 0
6, 48840, Note_on_c, 2, 49, 100
6, 48960, Note_on_c, 2, 49, 0
6, 48960, Note_on_c, 2, 42, 100
6, 49020, Note_on_c, 2, 42, 0
6, 49020, Note_on_c, 2, 54, 100
6, 49080, Note_on_c, 2, 54, 0
6, 49080, Note_on_c, 2, 54, 100
6, 49140, Note_on_c, 2, 54, 0
6, 49140, Note_on_c, 2, 52, 100
6, 49200, Note_on_c, 2, 52, 0
6, 49200, Note_on_c, 2, 52, 100
6, 49260, Note_on_c, 2, 52, 0
6, 49260, Note_on_c, 2, 50, 100
6, 49320, Note_on_c, 2, 50, 0
6, 49320, Note_on_c, 2, 50, 100
6, 49380, Note_on_c, 2, 50, 0
6, 49380, Note_on_c, 2, 49, 100
6, 49440, Note_on_c, 2, 49, 0
6, 49440, Note_on_c, 2, 49, 100
6, 49500, Note_on_c, 2, 49, 0
6, 49500, Note_on_c, 2, 59, 100
6, 49560, Note_on_c, 2, 59, 0
6, 49560, Note_on_c, 2, 59, 100
6, 49620, Note_on_c, 2, 59, 0
6, 49620, Note_on_c, 2, 57, 100
6, 49680, Note_on_c, 2, 57, 0
6, 49680, Note_on_c, 2, 57, 100
6, 49740, Note_on_c, 2, 57, 0
6, 49740, Note_on_c, 2, 56, 100
6, 49800, Note_on_c, 2, 56, 0
6, 49800, Note_on_c, 2, 56, 100
6, 49860, Note_on_c, 2, 56, 0
6, 49860, Note_on_c, 2, 54, 100
6, 49920, Note_on_c, 2, 54, 0
6, 49920, Note_on_c, 2, 54, 100
6, 49980, Note_on_c, 2, 54, 0
6, 49980, Note_on_c, 2, 66, 100
6, 50040, Note_on_c, 2, 66, 0
6, 50040, Note_on_c, 2, 66, 100
6, 50100, Note_on_c, 2, 66, 0
6, 50100, Note_on_c, 2, 64, 100
6, 50160, Note_on_c, 2, 64, 0
6, 50160, Note_on_c, 2, 64, 100
6, 50220, Note_on_c, 2, 64, 0
6, 50220, Note_on_c, 2, 62, 100
6, 50280, Note_on_c, 2, 62, 0
6, 50280, Note_on_c, 2, 62, 100
6, 50340, Note_on_c, 2, 62, 0
6, 50340, Note_on_c, 2, 61, 100
6, 50400, Note_on_c, 2, 61, 0
6, 50400, Note_on_c, 2, 61, 100
6, 50460, Note_on_c, 2, 61, 0
6, 50460, Note_on_c, 2, 59, 100
6, 50520, Note_on_c, 2, 59, 0
6, 50520, Note_on_c, 2, 59, 100
6, 50580, Note_on_c, 2, 59, 0
6, 50580, Note_on_c, 2, 57, 100
6, 50640, Note_on_c, 2, 57, 0
6, 50640, Note_on_c, 2, 57, 100
6, 50700, Note_on_c, 2, 57, 0
6, 50700, Note_on_c, 2, 56, 100
6, 50760, Note_on_c, 2, 56, 0
6, 50760, Note_on_c, 2, 56, 100
6, 50820, Note_on_c, 2, 56, 0
6, 50820, Note_on_c, 2, 54, 100
6, 50880, Note_on_c, 2, 54, 0
6, 50880, Note_on_c, 2, 54, 100
6, 51000, Note_on_c, 2, 54, 0
6, 51000, Note_on_c, 2, 52, 100
6, 51060, Note_on_c, 2, 52, 0
6, 51060, Note_on_c, 2, 51, 100
6, 51120, Note_on_c, 2, 51, 0
6, 51120, Note_on_c, 2, 52, 100
6, 51240, Note_on_c, 2, 52, 0
6, 51240, Note_on_c, 2, 49, 100
6, 51360, Note_on_c, 2, 49, 0
6, 51360, Note_on_c, 2, 37, 100
6, 51480, Note_on_c, 2, 37, 0
6, 51480, Note_on_c, 2, 52, 100
6, 51540, Note_on_c, 2, 52, 0
6, 51540, Note_on_c, 2, 50, 100
6, 51600, Note_on_c, 2, 50, 0
6, 51600, Note_on_c, 2, 52, 100
6, 51720, Note_on_c, 2, 52, 0
6, 51720, Note_on_c, 2, 49, 100
6, 51840, Note_on_c, 2, 49, 0
6, 51840, Note_on_c, 2, 37, 100
6, 51960, Note_on_c, 2, 37, 0
6, 51960, Note_on_c, 2, 52, 100
6, 52020, Note_on_c, 2, 52, 0
6, 52020, Note_on_c, 2, 51, 100
6, 52080, Note_on_c, 2, 51, 0
6, 52080, Note_on_c, 2, 52, 100
6, 52200, Note_on_c, 2, 52, 0
6, 52200, Note_on_c, 2, 49, 100
6, 52320, Note_on_c, 2, 49, 0
6, 52320, Note_on_c, 2, 45, 100
6, 52440, Note_on_c, 2, 45, 0
6, 52440, Note_on_c, 2, 47, 100
6, 52560, Note_on_c, 2, 47, 0
6, 52560, Note_on_c, 2, 49, 100
6, 52680, Note_on_c, 2, 49, 0
6, 52680, Note_on_c, 2, 37, 100
6, 52800, Note_on_c, 2, 37, 0
6, 52800, Note_on_c, 2, 42, 100
6, 52920, Note_on_c, 2, 42, 0
6, 52920, Note_on_c, 2, 54, 100
6, 52980, Note_on_c, 2, 54, 0
6, 52980, Note_on_c, 2, 56, 100
6, 53040, Note_on_c, 2, 56, 0
6, 53040, Note_on_c, 2, 54, 100
6, 53100, Note_on_c, 2, 54, 0
6, 53100, Note_on_c, 2, 52, 100
6, 53160, Note_on_c, 2, 52, 0
6, 53160, Note_on_c, 2, 50, 100
6, 53220, Note_on_c, 2, 50, 0
6, 53220, Note_on_c, 2, 49, 100
6, 53280, Note_on_c, 2, 49, 0
6, 53280, Note_on_c, 2, 47, 100
6, 53460, Note_on_c, 2, 47, 0
6, 53460, Note_on_c, 2, 45, 100
6, 53520, Note_on_c, 2, 45, 0
6, 53520, Note_on_c, 2, 47, 100
6, 53580, Note_on_c, 2, 47, 0
6, 53580, Note_on_c, 2, 49, 100
6, 53640, Note_on_c, 2, 49, 0
6, 53640, Note_on_c, 2, 50, 100
6, 53700, Note_on_c, 2, 50, 0
6, 53700, Note_on_c, 2, 47, 100
6, 53760, Note_on_c, 2, 47, 0
6, 53760, Note_on_c, 2, 40, 100
6, 53880, Note_on_c, 2, 40, 0
6, 53880, Note_on_c, 2, 52, 100
6, 53940, Note_on_c, 2, 52, 0
6, 53940, Note_on_c, 2, 54, 100
6, 54000, Note_on_c, 2, 54, 0
6, 54000, Note_on_c, 2, 52, 100
6, 54060, Note_on_c, 2, 52, 0
6, 54060, Note_on_c, 2, 50, 100
6, 54120, Note_on_c, 2, 50, 0
6, 54120, Note_on_c, 2, 49, 100
6, 54180, Note_on_c, 2, 49, 0
6, 54180, Note_on_c, 2, 47, 100
6, 54240, Note_on_c, 2, 47, 0
6, 54240, Note_on_c, 2, 45, 100
6, 54420, Note_on_c, 2, 45, 0
6, 54420, Note_on_c, 2, 44, 100
6, 54480, Note_on_c, 2, 44, 0
6, 54480, Note_on_c, 2, 45, 100
6, 54540, Note_on_c, 2, 45, 0
6, 54540, Note_on_c, 2, 47, 100
6, 54600, Note_on_c, 2, 47, 0
6, 54600, Note_on_c, 2, 48, 100
6, 54660, Note_on_c, 2, 48, 0
6, 54660, Note_on_c, 2, 45, 100
6, 54720, Note_on_c, 2, 45, 0
6, 54720, Note_on_c, 2, 54, 100
6, 54840, Note_on_c, 2, 54, 0
6, 54840, Note_on_c, 2, 38, 100
6, 54960, Note_on_c, 2, 38, 0
6, 54960, Note_on_c, 2, 38, 100
6, 55080, Note_on_c, 2, 38, 0
6, 55080, Note_on_c, 2, 38, 100
6, 55200, Note_on_c, 2, 38, 0
6, 55200, Note_on_c, 2, 37, 100
6, 55320, Note_on_c, 2, 37, 0
6, 55320, Note_on_c, 2, 56, 100
6, 55440, Note_on_c, 2, 56, 0
6, 55440, Note_on_c, 2, 57, 100
6, 55560, Note_on_c, 2, 57, 0
6, 55560, Note_on_c, 2, 61, 100
6, 55680, Note_on_c, 2, 61, 0
6, 55680, Note_on_c, 2, 62, 100
6, 55800, Note_on_c, 2, 62, 0
6, 55800, Note_on_c, 2, 59, 100
6, 55920, Note_on_c, 2, 59, 0
6, 55920, Note_on_c, 2, 61, 100
6, 56040, Note_on_c, 2, 61, 0
6, 56040, Note_on_c, 2, 49, 100
6, 56160, Note_on_c, 2, 49, 0
6, 56160, Note_on_c, 2, 54, 100
6, 56280, Note_on_c, 2, 54, 0
6, 56280, Note_on_c, 2, 42, 100
6, 56400, Note_on_c, 2, 42, 0
6, 56400, Note_on_c, 2, 45, 100
6, 56520, Note_on_c, 2, 45, 0
6, 56520, Note_on_c, 2, 49, 100
6, 56640, Note_on_c, 2, 49, 0
6, 56640, Note_on_c, 2, 54, 100
6, 56760, Note_on_c, 2, 54, 0
6, 56760, Note_on_c, 2, 54, 100
6, 56880, Note_on_c, 2, 54, 0
6, 56880, Note_on_c, 2, 52, 100
6, 57000, Note_on_c, 2, 52, 0
6, 57000, Note_on_c, 2, 52, 100
6, 57120, Note_on_c, 2, 52, 0
6, 57120, Note_on_c, 2, 51, 100
6, 57240, Note_on_c, 2, 51, 0
6, 57240, Note_on_c, 2, 51, 100
6, 57360, Note_on_c, 2, 51, 0
6, 57360, Note_on_c, 2, 47, 100
6, 57480, Note_on_c, 2, 47, 0
6, 57480, Note_on_c, 2, 47, 100
6, 57600, Note_on_c, 2, 47, 0
6, 57600, Note_on_c, 2, 52, 100
6, 57720, Note_on_c, 2, 52, 0
6, 57720, Note_on_c, 2, 52, 100
6, 57840, Note_on_c, 2, 52, 0
6, 57840, Note_on_c, 2, 50, 100
6, 57960, Note_on_c, 2, 50, 0
6, 57960, Note_on_c, 2, 50, 100
6, 58080, Note_on_c, 2, 50, 0
6, 58080, Note_on_c, 2, 49, 100
6, 58200, Note_on_c, 2, 49, 0
6, 58200, Note_on_c, 2, 49, 100
6, 58320, Note_on_c, 2, 49, 0
6, 58320, Note_on_c, 2, 45, 100
6, 58440, Note_on_c, 2, 45, 0
6, 58440, Note_on_c, 2, 45, 100
6, 58560, Note_on_c, 2, 45, 0
6, 58560, Note_on_c, 2, 50, 100
6, 58680, Note_on_c, 2, 50, 0
6, 58680, Note_on_c, 2, 50, 100
6, 58800, Note_on_c, 2, 50, 0
6, 58800, Note_on_c, 2, 55, 100
6, 58920, Note_on_c, 2, 55, 0
6, 58920, Note_on_c, 2, 55, 100
6, 59040, Note_on_c, 2, 55, 0
6, 59040, Note_on_c, 2, 49, 100
6, 59160, Note_on_c, 2, 49, 0
6, 59160, Note_on_c, 2, 49, 100
6, 59280, Note_on_c, 2, 49, 0
6, 59280, Note_on_c, 2, 54, 100
6, 59400, Note_on_c, 2, 54, 0
6, 59400, Note_on_c, 2, 54, 100
6, 59520, Note_on_c, 2, 54, 0
6, 59520, Note_on_c, 2, 47, 100
6, 59640, Note_on_c, 2, 47, 0
6, 59640, Note_on_c, 2, 47, 100
6, 59760, Note_on_c, 2, 47, 0
6, 59760, Note_on_c, 2, 52, 100
6, 59880, Note_on_c, 2, 52, 0
6, 59880, Note_on_c, 2, 52, 100
6, 60000, Note_on_c, 2, 52, 0
6, 60000, Note_on_c, 2, 45, 100
6, 60120, Note_on_c, 2, 45, 0
6, 60120, Note_on_c, 2, 45, 100
6, 60240, Note_on_c, 2, 45, 0
6, 60240, Note_on_c, 2, 50, 100
6, 60360, Note_on_c, 2, 50, 0
6, 60360, Note_on_c, 2, 50, 100
6, 60480, Note_on_c, 2, 50, 0
6, 60480, Note_on_c, 2, 43, 100
6, 60480, Note_on_c, 2, 55, 100
6, 60600, Note_on_c, 2, 55, 0
6, 60600, Note_on_c, 2, 43, 0
6, 60600, Note_on_c, 2, 57, 100
6, 60720, Note_on_c, 2, 57, 0
6, 60720, Note_on_c, 2, 59, 100
6, 60840, Note_on_c, 2, 59, 0
6, 60840, Note_on_c, 2, 54, 100
6, 60960, Note_on_c, 2, 54, 0
6, 60960, Note_on_c, 2, 55, 100
6, 61080, Note_on_c, 2, 55, 0
6, 61080, Note_on_c, 2, 57, 100
6, 61200, Note_on_c, 2, 57, 0
6, 61200, Note_on_c, 2, 59, 100
6, 61320, Note_on_c, 2, 59, 0
6, 61320, Note_on_c, 2, 54, 100
6, 61440, Note_on_c, 2, 54, 0
6, 61440, Note_on_c, 2, 55, 100
6, 61560, Note_on_c, 2, 55, 0
6, 61560, Note_on_c, 2, 60, 100
6, 61680, Note_on_c, 2, 60, 0
6, 61680, Note_on_c, 2, 62, 100
6, 61800, Note_on_c, 2, 62, 0
6, 61800, Note_on_c, 2, 50, 100
6, 61920, Note_on_c, 2, 50, 0
6, 61920, Note_on_c, 2, 43, 100
6, 62040, Note_on_c, 2, 43, 0
6, 62040, Note_on_c, 2, 45, 100
6, 62160, Note_on_c, 2, 45, 0
6, 62160, Note_on_c, 2, 47, 100
6, 62280, Note_on_c, 2, 47, 0
6, 62280, Note_on_c, 2, 48, 100
6, 62400, Note_on_c, 2, 48, 0
6, 62400, Note_on_c, 2, 50, 100
6, 62520, Note_on_c, 2, 50, 0
6, 62520, Note_on_c, 2, 50, 100
6, 62640, Note_on_c, 2, 50, 0
6, 62640, Note_on_c, 2, 48, 100
6, 62760, Note_on_c, 2, 48, 0
6, 62760, Note_on_c, 2, 48, 100
6, 62880, Note_on_c, 2, 48, 0
6, 62880, Note_on_c, 2, 47, 100
6, 63000, Note_on_c, 2, 47, 0
6, 63000, Note_on_c, 2, 47, 100
6, 63120, Note_on_c, 2, 47, 0
6, 63120, Note_on_c, 2, 43, 100
6, 63240, Note_on_c, 2, 43, 0
6, 63240, Note_on_c, 2, 43, 100
6, 63360, Note_on_c, 2, 43, 0
6, 63360, Note_on_c, 2, 48, 100
6, 63480, Note_on_c, 2, 48, 0
6, 63480, Note_on_c, 2, 48, 100
6, 63600, Note_on_c, 2, 48, 0
6, 63600, Note_on_c, 2, 47, 100
6, 63720, Note_on_c, 2, 47, 0
6, 63720, Note_on_c, 2, 47, 100
6, 63840, Note_on_c, 2, 47, 0
6, 63840, Note_on_c, 2, 45, 100
6, 63960, Note_on_c, 2, 45, 0
6, 63960, Note_on_c, 2, 45, 100
6, 64080, Note_on_c, 2, 45, 0
6, 64080, Note_on_c, 2, 41, 100
6, 64200, Note_on_c, 2, 41, 0
6, 64200, Note_on_c, 2, 41, 100
6, 64320, Note_on_c, 2, 41, 0
6, 64320, Note_on_c, 2, 47, 100
6, 64440, Note_on_c, 2, 47, 0
6, 64440, Note_on_c, 2, 47, 100
6, 64560, Note_on_c, 2, 47, 0
6, 64560, Note_on_c, 2, 52, 100
6, 64680, Note_on_c, 2, 52, 0
6, 64680, Note_on_c, 2, 52, 100
6, 64800, Note_on_c, 2, 52, 0
6, 64800, Note_on_c, 2, 45, 100
6, 64920, Note_on_c, 2, 45, 0
6, 64920, Note_on_c, 2, 45, 100
6, 65040, Note_on_c, 2, 45, 0
6, 65040, Note_on_c, 2, 50, 100
6, 65160, Note_on_c, 2, 50, 0
6, 65160, Note_on_c, 2, 50, 100
6, 65280, Note_on_c, 2, 50, 0
6, 65280, Note_on_c, 2, 43, 100
6, 65400, Note_on_c, 2, 43, 0
6, 65400, Note_on_c, 2, 43, 100
6, 65520, Note_on_c, 2, 43, 0
6, 65520, Note_on_c, 2, 48, 100
6, 65640, Note_on_c, 2, 48, 0
6, 65640, Note_on_c, 2, 48, 100
6, 65760, Note_on_c, 2, 48, 0
6, 65760, Note_on_c, 2, 42, 100
6, 65880, Note_on_c, 2, 42, 0
6, 65880, Note_on_c, 2, 42, 100
6, 66000, Note_on_c, 2, 42, 0
6, 66000, Note_on_c, 2, 47, 100
6, 66120, Note_on_c, 2, 47, 0
6, 66120, Note_on_c, 2, 47, 100
6, 66240, Note_on_c, 2, 47, 0
6, 66240, Note_on_c, 2, 52, 100
6, 66360, Note_on_c, 2, 52, 0
6, 66360, Note_on_c, 2, 54, 100
6, 66480, Note_on_c, 2, 54, 0
6, 66480, Note_on_c, 2, 55, 100
6, 66600, Note_on_c, 2, 55, 0
6, 66600, Note_on_c, 2, 51, 100
6, 66720, Note_on_c, 2, 51, 0
6, 66720, Note_on_c, 2, 52, 100
6, 66840, Note_on_c, 2, 52, 0
6, 66840, Note_on_c, 2, 54, 100
6, 66960, Note_on_c, 2, 54, 0
6, 66960, Note_on_c, 2, 55, 100
6, 67080, Note_on_c, 2, 55, 0
6, 67080, Note_on_c, 2, 51, 100
6, 67200, Note_on_c, 2, 51, 0
6, 67200, Note_on_c, 2, 52, 100
6, 67320, Note_on_c, 2, 52, 0
6, 67320, Note_on_c, 2, 45, 100
6, 67440, Note_on_c, 2, 45, 0
6, 67440, Note_on_c, 2, 47, 100
6, 67560, Note_on_c, 2, 47, 0
6, 67560, Note_on_c, 2, 47, 100
6, 67680, Note_on_c, 2, 47, 0
6, 67680, Note_on_c, 2, 40, 100
6, 67920, Note_on_c, 2, 40, 0
6, 68040, Note_on_c, 2, 52, 100
6, 68160, Note_on_c, 2, 52, 0
6, 68160, Note_on_c, 2, 57, 100
6, 68280, Note_on_c, 2, 57, 0
6, 68280, Note_on_c, 2, 55, 100
6, 68400, Note_on_c, 2, 55, 0
6, 68400, Note_on_c, 2, 54, 100
6, 68520, Note_on_c, 2, 54, 0
6, 68520, Note_on_c, 2, 52, 100
6, 68640, Note_on_c, 2, 52, 0
6, 68640, Note_on_c, 2, 50, 100
6, 68760, Note_on_c, 2, 50, 0
6, 68760, Note_on_c, 2, 48, 100
6, 68880, Note_on_c, 2, 48, 0
6, 68880, Note_on_c, 2, 47, 100
6, 69000, Note_on_c, 2, 47, 0
6, 69000, Note_on_c, 2, 45, 100
6, 69120, Note_on_c, 2, 45, 0
6, 69120, Note_on_c, 2, 55, 100
6, 69240, Note_on_c, 2, 55, 0
6, 69240, Note_on_c, 2, 54, 100
6, 69360, Note_on_c, 2, 54, 0
6, 69360, Note_on_c, 2, 52, 100
6, 69480, Note_on_c, 2, 52, 0
6, 69480, Note_on_c, 2, 50, 100
6, 69600, Note_on_c, 2, 50, 0
6, 69600, Note_on_c, 2, 48, 100
6, 69720, Note_on_c, 2, 48, 0
6, 69720, Note_on_c, 2, 47, 100
6, 69840, Note_on_c, 2, 47, 0
6, 69840, Note_on_c, 2, 45, 100
6, 69960, Note_on_c, 2, 45, 0
6, 69960, Note_on_c, 2, 43, 100
6, 70080, Note_on_c, 2, 43, 0
6, 70080, Note_on_c, 2, 54, 100
6, 70200, Note_on_c, 2, 54, 0
6, 70200, Note_on_c, 2, 52, 100
6, 70320, Note_on_c, 2, 52, 0
6, 70320, Note_on_c, 2, 51, 100
6, 70440, Note_on_c, 2, 51, 0
6, 70440, Note_on_c, 2, 49, 100
6, 70560, Note_on_c, 2, 49, 0
6, 70560, Note_on_c, 2, 47, 100
6, 70680, Note_on_c, 2, 47, 0
6, 70680, Note_on_c, 2, 45, 100
6, 70800, Note_on_c, 2, 45, 0
6, 70800, Note_on_c, 2, 43, 100
6, 70920, Note_on_c, 2, 43, 0
6, 70920, Note_on_c, 2, 42, 100
6, 71040, Note_on_c, 2, 42, 0
6, 71040, Note_on_c, 2, 40, 100
6, 71160, Note_on_c, 2, 40, 0
6, 71160, Note_on_c, 2, 47, 100
6, 71220, Note_on_c, 2, 47, 0
6, 71220, Note_on_c, 2, 49, 100
6, 71280, Note_on_c, 2, 49, 0
6, 71280, Note_on_c, 2, 51, 100
6, 71400, Note_on_c, 2, 51, 0
6, 71400, Note_on_c, 2, 47, 100
6, 71520, Note_on_c, 2, 47, 0
6, 71520, Note_on_c, 2, 35, 100
6, 71640, Note_on_c, 2, 35, 0
6, 71640, Note_on_c, 2, 51, 100
6, 71700, Note_on_c, 2, 51, 0
6, 71700, Note_on_c, 2, 49, 100
6, 71760, Note_on_c, 2, 49, 0
6, 71760, Note_on_c, 2, 51, 100
6, 71880, Note_on_c, 2, 51, 0
6, 71880, Note_on_c, 2, 47, 100
6, 72000, Note_on_c, 2, 47, 0
6, 72000, Note_on_c, 2, 35, 100
6, 72120, Note_on_c, 2, 35, 0
6, 72120, Note_on_c, 2, 51, 100
6, 72180, Note_on_c, 2, 51, 0
6, 72180, Note_on_c, 2, 49, 100
6, 72240, Note_on_c, 2, 49, 0
6, 72240, Note_on_c, 2, 51, 100
6, 72360, Note_on_c, 2, 51, 0
6, 72360, Note_on_c, 2, 47, 100
6, 72480, Note_on_c, 2, 47, 0
6, 72480, Note_on_c, 2, 40, 100
6, 72600, Note_on_c, 2, 40, 0
6, 72600, Note_on_c, 2, 52, 100
6, 72660, Note_on_c, 2, 52, 0
6, 72660, Note_on_c, 2, 51, 100
6, 72720, Note_on_c, 2, 51, 0
6, 72720, Note_on_c, 2, 52, 100
6, 72840, Note_on_c, 2, 52, 0
6, 72840, Note_on_c, 2, 40, 100
6, 72960, Note_on_c, 2, 40, 0
6, 72960, Note_on_c, 2, 35, 100
6, 73080, Note_on_c, 2, 35, 0
6, 73140, Note_on_c, 2, 59, 100
6, 73200, Note_on_c, 2, 59, 0
6, 73200, Note_on_c, 2, 59, 100
6, 73260, Note_on_c, 2, 59, 0
6, 73260, Note_on_c, 2, 57, 100
6, 73320, Note_on_c, 2, 57, 0
6, 73320, Note_on_c, 2, 57, 100
6, 73380, Note_on_c, 2, 57, 0
6, 73380, Note_on_c, 2, 55, 100
6, 73440, Note_on_c, 2, 55, 0
6, 73440, Note_on_c, 2, 57, 100
6, 73500, Note_on_c, 2, 57, 0
6, 73500, Note_on_c, 2, 55, 100
6, 73560, Note_on_c, 2, 55, 0
6, 73560, Note_on_c, 2, 55, 100
6, 73620, Note_on_c, 2, 55, 0
6, 73620, Note_on_c, 2, 54, 100
6, 73680, Note_on_c, 2, 54, 0
6, 73680, Note_on_c, 2, 55, 100
6, 73740, Note_on_c, 2, 55, 0
6, 73740, Note_on_c, 2, 54, 100
6, 73800, Note_on_c, 2, 54, 0
6, 73800, Note_on_c, 2, 54, 100
6, 73860, Note_on_c, 2, 54, 0
6, 73860, Note_on_c, 2, 52, 100
6, 73920, Note_on_c, 2, 52, 0
6, 73920, Note_on_c, 2, 54, 100
6, 73980, Note_on_c, 2, 54, 0
6, 73980, Note_on_c, 2, 52, 100
6, 74040, Note_on_c, 2, 52, 0
6, 74040, Note_on_c, 2, 52, 100
6, 74100, Note_on_c, 2, 52, 0
6, 74100, Note_on_c, 2, 51, 100
6, 74160, Note_on_c, 2, 51, 0
6, 74160, Note_on_c, 2, 52, 100
6, 74220, Note_on_c, 2, 52, 0
6, 74220, Note_on_c, 2, 50, 100
6, 74280, Note_on_c, 2, 50, 0
6, 74280, Note_on_c, 2, 50, 100
6, 74340, Note_on_c, 2, 50, 0
6, 74340, Note_on_c, 2, 49, 100
6, 74400, Note_on_c, 2, 49, 0
6, 74400, Note_on_c, 2, 50, 100
6, 74460, Note_on_c, 2, 50, 0
6, 74460, Note_on_c, 2, 48, 100
6, 74520, Note_on_c, 2, 48, 0
6, 74520, Note_on_c, 2, 48, 100
6, 74580, Note_on_c, 2, 48, 0
6, 74580, Note_on_c, 2, 47, 100
6, 74640, Note_on_c, 2, 47, 0
6, 74640, Note_on_c, 2, 48, 100
6, 74700, Note_on_c, 2, 48, 0
6, 74700, Note_on_c, 2, 47, 100
6, 74760, Note_on_c, 2, 47, 0
6, 74760, Note_on_c, 2, 47, 100
6, 74820, Note_on_c, 2, 47, 0
6, 74820, Note_on_c, 2, 45, 100
6, 74880, Note_on_c, 2, 45, 0
6, 74880, Note_on_c, 2, 47, 100
6, 74940, Note_on_c, 2, 47, 0
6, 74940, Note_on_c, 2, 45, 100
6, 75000, Note_on_c, 2, 45, 0
6, 75000, Note_on_c, 2, 45, 100
6, 75060, Note_on_c, 2, 45, 0
6, 75060, Note_on_c, 2, 44, 100
6, 75120, Note_on_c, 2, 44, 0
6, 75120, Note_on_c, 2, 45, 100
6, 75180, Note_on_c, 2, 45, 0
6, 75180, Note_on_c, 2, 43, 100
6, 75240, Note_on_c, 2, 43, 0
6, 75240, Note_on_c, 2, 43, 100
6, 75300, Note_on_c, 2, 43, 0
6, 75300, Note_on_c, 2, 42, 100
6, 75360, Note_on_c, 2, 42, 0
6, 75360, Note_on_c, 2, 43, 100
6, 75420, Note_on_c, 2, 43, 0
6, 75420, Note_on_c, 2, 42, 100
6, 75480, Note_on_c, 2, 42, 0
6, 75480, Note_on_c, 2, 42, 100
6, 75540, Note_on_c, 2, 42, 0
6, 75540, Note_on_c, 2, 43, 100
6, 75600, Note_on_c, 2, 43, 0
6, 75600, Note_on_c, 2, 43, 100
6, 75660, Note_on_c, 2, 43, 0
6, 75660, Note_on_c, 2, 42, 100
6, 75720, Note_on_c, 2, 42, 0
6, 75720, Note_on_c, 2, 42, 100
6, 75780, Note_on_c, 2, 42, 0
6, 75780, Note_on_c, 2, 40, 100
6, 75840, Note_on_c, 2, 40, 0
6, 75840, Note_on_c, 2, 40, 100
6, 76320, Note_on_c, 2, 40, 0
6, 76320, Note_on_c, 2, 42, 100
6, 76560, Note_on_c, 2, 42, 0
6, 76680, Note_on_c, 2, 47, 100
6, 76800, Note_on_c, 2, 47, 0
6, 76800, Note_on_c, 2, 59, 100
6, 76920, Note_on_c, 2, 59, 0
6, 76920, Note_on_c, 2, 61, 100
6, 77040, Note_on_c, 2, 61, 0
6, 77040, Note_on_c, 2, 62, 100
6, 77160, Note_on_c, 2, 62, 0
6, 77160, Note_on_c, 2, 58, 100
6, 77280, Note_on_c, 2, 58, 0
6, 77280, Note_on_c, 2, 59, 100
6, 77400, Note_on_c, 2, 59, 0
6, 77400, Note_on_c, 2, 61, 100
6, 77520, Note_on_c, 2, 61, 0
6, 77520, Note_on_c, 2, 62, 100
6, 77640, Note_on_c, 2, 62, 0
6, 77640, Note_on_c, 2, 58, 100
6, 77760, Note_on_c, 2, 58, 0
6, 77760, Note_on_c, 2, 59, 100
6, 77880, Note_on_c, 2, 59, 0
6, 77880, Note_on_c, 2, 52, 100
6, 78000, Note_on_c, 2, 52, 0
6, 78000, Note_on_c, 2, 54, 100
6, 78120, Note_on_c, 2, 54, 0
6, 78120, Note_on_c, 2, 42, 100
6, 78240, Note_on_c, 2, 42, 0
6, 78240, Note_on_c, 2, 47, 100
6, 78480, Note_on_c, 2, 47, 0
6, 78600, Note_on_c, 2, 59, 100
6, 78720, Note_on_c, 2, 59, 0
6, 78720, Note_on_c, 2, 59, 100
6, 78780, Note_on_c, 2, 59, 0
6, 78780, Note_on_c, 2, 61, 100
6, 78840, Note_on_c, 2, 61, 0
6, 78840, Note_on_c, 2, 58, 100
6, 78960, Note_on_c, 2, 58, 0
6, 79080, Note_on_c, 2, 57, 100
6, 79200, Note_on_c, 2, 57, 0
6, 79200, Note_on_c, 2, 57, 100
6, 79260, Note_on_c, 2, 57, 0
6, 79260, Note_on_c, 2, 59, 100
6, 79320, Note_on_c, 2, 59, 0
6, 79320, Note_on_c, 2, 56, 100
6, 79440, Note_on_c, 2, 56, 0
6, 79560, Note_on_c, 2, 55, 100
6, 79680, Note_on_c, 2, 55, 0
6, 79680, Note_on_c, 2, 54, 100
6, 79800, Note_on_c, 2, 54, 0
6, 79800, Note_on_c, 2, 47, 100
6, 79920, Note_on_c, 2, 47, 0
6, 79920, Note_on_c, 2, 51, 100
6, 80040, Note_on_c, 2, 51, 0
6, 80040, Note_on_c, 2, 47, 100
6, 80160, Note_on_c, 2, 47, 0
6, 80160, Note_on_c, 2, 52, 100
6, 80280, Note_on_c, 2, 52, 0
6, 80280, Note_on_c, 2, 57, 100
6, 80340, Note_on_c, 2, 57, 0
6, 80340, Note_on_c, 2, 55, 100
6, 80400, Note_on_c, 2, 55, 0
6, 80400, Note_on_c, 2, 54, 100
6, 80460, Note_on_c, 2, 54, 0
6, 80460, Note_on_c, 2, 52, 100
6, 80520, Note_on_c, 2, 52, 0
6, 80520, Note_on_c, 2, 54, 100
6, 80580, Note_on_c, 2, 54, 0
6, 80580, Note_on_c, 2, 57, 100
6, 80640, Note_on_c, 2, 57, 0
6, 80640, Note_on_c, 2, 51, 100
6, 80700, Note_on_c, 2, 51, 0
6, 80700, Note_on_c, 2, 59, 100
6, 80760, Note_on_c, 2, 59, 0
6, 80760, Note_on_c, 2, 59, 100
6, 80820, Note_on_c, 2, 59, 0
6, 80820, Note_on_c, 2, 52, 100
6, 80880, Note_on_c, 2, 52, 0
6, 80880, Note_on_c, 2, 52, 100
6, 80940, Note_on_c, 2, 52, 0
6, 80940, Note_on_c, 2, 50, 100
6, 81000, Note_on_c, 2, 50, 0
6, 81000, Note_on_c, 2, 49, 100
6, 81060, Note_on_c, 2, 49, 0
6, 81060, Note_on_c, 2, 50, 100
6, 81120, Note_on_c, 2, 50, 0
6, 81120, Note_on_c, 2, 49, 100
6, 81180, Note_on_c, 2, 49, 0
6, 81180, Note_on_c, 2, 58, 100
6, 81240, Note_on_c, 2, 58, 0
6, 81240, Note_on_c, 2, 58, 100
6, 81300, Note_on_c, 2, 58, 0
6, 81300, Note_on_c, 2, 52, 100
6, 81360, Note_on_c, 2, 52, 0
6, 81360, Note_on_c, 2, 50, 100
6, 81420, Note_on_c, 2, 50, 0
6, 81420, Note_on_c, 2, 49, 100
6, 81480, Note_on_c, 2, 49, 0
6, 81480, Note_on_c, 2, 47, 100
6, 81540, Note_on_c, 2, 47, 0
6, 81540, Note_on_c, 2, 46, 100
6, 81600, Note_on_c, 2, 46, 0
6, 81600, Note_on_c, 2, 47, 100
6, 81720, Note_on_c, 2, 47, 0
6, 81720, Note_on_c, 2, 49, 100
6, 81840, Note_on_c, 2, 49, 0
6, 81840, Note_on_c, 2, 50, 100
6, 81960, Note_on_c, 2, 50, 0
6, 81960, Note_on_c, 2, 46, 100
6, 82080, Note_on_c, 2, 46, 0
6, 82080, Note_on_c, 2, 47, 100
6, 82200, Note_on_c, 2, 47, 0
6, 82200, Note_on_c, 2, 49, 100
6, 82320, Note_on_c, 2, 49, 0
6, 82320, Note_on_c, 2, 50, 100
6, 82440, Note_on_c, 2, 50, 0
6, 82440, Note_on_c, 2, 46, 100
6, 82560, Note_on_c, 2, 46, 0
6, 82560, Note_on_c, 2, 47, 100
6, 82680, Note_on_c, 2, 47, 0
6, 82680, Note_on_c, 2, 52, 100
6, 82800, Note_on_c, 2, 52, 0
6, 82800, Note_on_c, 2, 54, 100
6, 82920, Note_on_c, 2, 54, 0
6, 82920, Note_on_c, 2, 42, 100
6, 83040, Note_on_c, 2, 42, 0
6, 83040, Note_on_c, 2, 47, 100
6, 83160, Note_on_c, 2, 47, 0
6, 83160, Note_on_c, 2, 49, 100
6, 83280, Note_on_c, 2, 49, 0
6, 83280, Note_on_c, 2, 50, 100
6, 83400, Note_on_c, 2, 50, 0
6, 83400, Note_on_c, 2, 47, 100
6, 83520, Note_on_c, 2, 47, 0
6, 83520, Note_on_c, 2, 52, 100
6, 83580, Note_on_c, 2, 52, 0
6, 83580, Note_on_c, 2, 50, 100
6, 83640, Note_on_c, 2, 50, 0
6, 83640, Note_on_c, 2, 49, 100
6, 83700, Note_on_c, 2, 49, 0
6, 83700, Note_on_c, 2, 47, 100
6, 83760, Note_on_c, 2, 47, 0
6, 83760, Note_on_c, 2, 49, 100
6, 83880, Note_on_c, 2, 49, 0
6, 83880, Note_on_c, 2, 52, 100
6, 84000, Note_on_c, 2, 52, 0
6, 84000, Note_on_c, 2, 57, 100
6, 84060, Note_on_c, 2, 57, 0
6, 84060, Note_on_c, 2, 55, 100
6, 84120, Note_on_c, 2, 55, 0
6, 84120, Note_on_c, 2, 54, 100
6, 84180, Note_on_c, 2, 54, 0
6, 84180, Note_on_c, 2, 52, 100
6, 84240, Note_on_c, 2, 52, 0
6, 84240, Note_on_c, 2, 54, 100
6, 84360, Note_on_c, 2, 54, 0
6, 84360, Note_on_c, 2, 57, 100
6, 84480, Note_on_c, 2, 57, 0
6, 84480, Note_on_c, 2, 50, 100
6, 84540, Note_on_c, 2, 50, 0
6, 84540, Note_on_c, 2, 48, 100
6, 84600, Note_on_c, 2, 48, 0
6, 84600, Note_on_c, 2, 47, 100
6, 84660, Note_on_c, 2, 47, 0
6, 84660, Note_on_c, 2, 45, 100
6, 84720, Note_on_c, 2, 45, 0
6, 84720, Note_on_c, 2, 47, 100
6, 84840, Note_on_c, 2, 47, 0
6, 84840, Note_on_c, 2, 50, 100
6, 84960, Note_on_c, 2, 50, 0
6, 84960, Note_on_c, 2, 55, 100
6, 85020, Note_on_c, 2, 55, 0
6, 85020, Note_on_c, 2, 53, 100
6, 85080, Note_on_c, 2, 53, 0
6, 85080, Note_on_c, 2, 52, 100
6, 85140, Note_on_c, 2, 52, 0
6, 85140, Note_on_c, 2, 50, 100
6, 85200, Note_on_c, 2, 50, 0
6, 85200, Note_on_c, 2, 52, 100
6, 85320, Note_on_c, 2, 52, 0
6, 85320, Note_on_c, 2, 55, 100
6, 85440, Note_on_c, 2, 55, 0
6, 85440, Note_on_c, 2, 48, 100
6, 85560, Note_on_c, 2, 48, 0
6, 85560, Note_on_c, 2, 47, 100
6, 85680, Note_on_c, 2, 47, 0
6, 85680, Note_on_c, 2, 48, 100
6, 85740, Note_on_c, 2, 48, 0
6, 85740, Note_on_c, 2, 52, 100
6, 85800, Note_on_c, 2, 52, 0
6, 85800, Note_on_c, 2, 57, 100
6, 85860, Note_on_c, 2, 57, 0
6, 85860, Note_on_c, 2, 55, 100
6, 85920, Note_on_c, 2, 55, 0
6, 85920, Note_on_c, 2, 54, 100
6, 86040, Note_on_c, 2, 54, 0
6, 86040, Note_on_c, 2, 53, 100
6, 86160, Note_on_c, 2, 53, 0
6, 86160, Note_on_c, 2, 52, 100
6, 86200, Note_on_c, 2, 52, 0
6, 86200, Note_on_c, 2, 51, 100
6, 86240, Note_on_c, 2, 51, 0
6, 86240, Note_on_c, 2, 52, 100
6, 86280, Note_on_c, 2, 52, 0
6, 86280, Note_on_c, 2, 54, 100
6, 86320, Note_on_c, 2, 54, 0
6, 86320, Note_on_c, 2, 52, 100
6, 86360, Note_on_c, 2, 52, 0
6, 86360, Note_on_c, 2, 51, 100
6, 86400, Note_on_c, 2, 51, 0
6, 86400, Note_on_c, 2, 52, 100
6, 86460, Note_on_c, 2, 52, 0
6, 86460, Note_on_c, 2, 59, 100
6, 86520, Note_on_c, 2, 59, 0
6, 86520, Note_on_c, 2, 59, 100
6, 86580, Note_on_c, 2, 59, 0
6, 86580, Note_on_c, 2, 58, 100
6, 86640, Note_on_c, 2, 58, 0
6, 86640, Note_on_c, 2, 58, 100
6, 86700, Note_on_c, 2, 58, 0
6, 86700, Note_on_c, 2, 57, 100
6, 86760, Note_on_c, 2, 57, 0
6, 86760, Note_on_c, 2, 57, 100
6, 86820, Note_on_c, 2, 57, 0
6, 86820, Note_on_c, 2, 59, 100
6, 86880, Note_on_c, 2, 59, 0
6, 86880, Note_on_c, 2, 60, 100
6, 86940, Note_on_c, 2, 60, 0
6, 86940, Note_on_c, 2, 52, 100
6, 87000, Note_on_c, 2, 52, 0
6, 87000, Note_on_c, 2, 52, 100
6, 87060, Note_on_c, 2, 52, 0
6, 87060, Note_on_c, 2, 50, 100
6, 87120, Note_on_c, 2, 50, 0
6, 87120, Note_on_c, 2, 50, 100
6, 87180, Note_on_c, 2, 50, 0
6, 87180, Note_on_c, 2, 48, 100
6, 87240, Note_on_c, 2, 48, 0
6, 87240, Note_on_c, 2, 48, 100
6, 87300, Note_on_c, 2, 48, 0
6, 87300, Note_on_c, 2, 47, 100
6, 87360, Note_on_c, 2, 47, 0
6, 87360, Note_on_c, 2, 47, 100
6, 87420, Note_on_c, 2, 47, 0
6, 87420, Note_on_c, 2, 59, 100
6, 87480, Note_on_c, 2, 59, 0
6, 87480, Note_on_c, 2, 59, 100
6, 87540, Note_on_c, 2, 59, 0
6, 87540, Note_on_c, 2, 57, 100
6, 87600, Note_on_c, 2, 57, 0
6, 87600, Note_on_c, 2, 57, 100
6, 87660, Note_on_c, 2, 57, 0
6, 87660, Note_on_c, 2, 55, 100
6, 87720, Note_on_c, 2, 55, 0
6, 87720, Note_on_c, 2, 55, 100
6, 87780, Note_on_c, 2, 55, 0
6, 87780, Note_on_c, 2, 54, 100
6, 87840, Note_on_c, 2, 54, 0
6, 87840, Note_on_c, 2, 54, 100
6, 88080, Note_on_c, 2, 54, 0
6, 88200, Note_on_c, 2, 58, 100
6, 88320, Note_on_c, 2, 58, 0
6, 88320, Note_on_c, 2, 59, 100
6, 88440, Note_on_c, 2, 59, 0
6, 88440, Note_on_c, 2, 58, 100
6, 88560, Note_on_c, 2, 58, 0
6, 88560, Note_on_c, 2, 59, 100
6, 88680, Note_on_c, 2, 59, 0
6, 88680, Note_on_c, 2, 58, 100
6, 88800, Note_on_c, 2, 58, 0
6, 88800, Note_on_c, 2, 57, 100
6, 88920, Note_on_c, 2, 57, 0
6, 88920, Note_on_c, 2, 48, 100
6, 89040, Note_on_c, 2, 48, 0
6, 89040, Note_on_c, 2, 50, 100
6, 89160, Note_on_c, 2, 50, 0
6, 89160, Note_on_c, 2, 54, 100
6, 89280, Note_on_c, 2, 54, 0
6, 89280, Note_on_c, 2, 55, 100
6, 89400, Note_on_c, 2, 55, 0
6, 89400, Note_on_c, 2, 54, 100
6, 89520, Note_on_c, 2, 54, 0
6, 89520, Note_on_c, 2, 55, 100
6, 89640, Note_on_c, 2, 55, 0
6, 89640, Note_on_c, 2, 60, 100
6, 89760, Note_on_c, 2, 60, 0
6, 89760, Note_on_c, 2, 54, 100
6, 89880, Note_on_c, 2, 54, 0
6, 89880, Note_on_c, 2, 57, 100
6, 90000, Note_on_c, 2, 57, 0
6, 90000, Note_on_c, 2, 47, 100
6, 90120, Note_on_c, 2, 47, 0
6, 90120, Note_on_c, 2, 51, 100
6, 90240, Note_on_c, 2, 51, 0
6, 90240, Note_on_c, 2, 52, 100
6, 90360, Note_on_c, 2, 52, 0
6, 90360, Note_on_c, 2, 51, 100
6, 90480, Note_on_c, 2, 51, 0
6, 90480, Note_on_c, 2, 52, 100
6, 90600, Note_on_c, 2, 52, 0
6, 90600, Note_on_c, 2, 51, 100
6, 90720, Note_on_c, 2, 51, 0
6, 90720, Note_on_c, 2, 50, 100
6, 90840, Note_on_c, 2, 50, 0
6, 90840, Note_on_c, 2, 53, 100
6, 90960, Note_on_c, 2, 53, 0
6, 90960, Note_on_c, 2, 43, 100
6, 91080, Note_on_c, 2, 43, 0
6, 91080, Note_on_c, 2, 47, 100
6, 91200, Note_on_c, 2, 47, 0
6, 91200, Note_on_c, 2, 48, 100
6, 91320, Note_on_c, 2, 48, 0
6, 91320, Note_on_c, 2, 47, 100
6, 91440, Note_on_c, 2, 47, 0
6, 91440, Note_on_c, 2, 48, 100
6, 91560, Note_on_c, 2, 48, 0
6, 91560, Note_on_c, 2, 49, 100
6, 91680, Note_on_c, 2, 49, 0
6, 91680, Note_on_c, 2, 50, 100
6, 91740, Note_on_c, 2, 50, 0
6, 91740, Note_on_c, 2, 48, 100
6, 91800, Note_on_c, 2, 48, 0
6, 91800, Note_on_c, 2, 48, 100
6, 91860, Note_on_c, 2, 48, 0
6, 91860, Note_on_c, 2, 47, 100
6, 91920, Note_on_c, 2, 47, 0
6, 91920, Note_on_c, 2, 48, 100
6, 91980, Note_on_c, 2, 48, 0
6, 91980, Note_on_c, 2, 47, 100
6, 92040, Note_on_c, 2, 47, 0
6, 92040, Note_on_c, 2, 47, 100
6, 92100, Note_on_c, 2, 47, 0
6, 92100, Note_on_c, 2, 45, 100
6, 92160, Note_on_c, 2, 45, 0
6, 92160, Note_on_c, 2, 47, 100
6, 92220, Note_on_c, 2, 47, 0
6, 92220, Note_on_c, 2, 45, 100
6, 92280, Note_on_c, 2, 45, 0
6, 92280, Note_on_c, 2, 45, 100
6, 92340, Note_on_c, 2, 45, 0
6, 92340, Note_on_c, 2, 43, 100
6, 92400, Note_on_c, 2, 43, 0
6, 92400, Note_on_c, 2, 45, 100
6, 92460, Note_on_c, 2, 45, 0
6, 92460, Note_on_c, 2, 52, 100
6, 92520, Note_on_c, 2, 52, 0
6, 92520, Note_on_c, 2, 52, 100
6, 92580, Note_on_c, 2, 52, 0
6, 92580, Note_on_c, 2, 51, 100
6, 92640, Note_on_c, 2, 51, 0
6, 92640, Note_on_c, 2, 52, 100
6, 92760, Note_on_c, 2, 52, 0
6, 92760, Note_on_c, 2, 48, 100
6, 92880, Note_on_c, 2, 48, 0
6, 92880, Note_on_c, 2, 45, 100
6, 93000, Note_on_c, 2, 45, 0
6, 93000, Note_on_c, 2, 47, 100
6, 93120, Note_on_c, 2, 47, 0
6, 93120, Note_on_c, 2, 49, 100
6, 93180, Note_on_c, 2, 49, 0
6, 93180, Note_on_c, 2, 59, 100
6, 93240, Note_on_c, 2, 59, 0
6, 93240, Note_on_c, 2, 59, 100
6, 93300, Note_on_c, 2, 59, 0
6, 93300, Note_on_c, 2, 58, 100
6, 93360, Note_on_c, 2, 58, 0
6, 93360, Note_on_c, 2, 58, 100
6, 93420, Note_on_c, 2, 58, 0
6, 93420, Note_on_c, 2, 59, 100
6, 93480, Note_on_c, 2, 59, 0
6, 93480, Note_on_c, 2, 59, 100
6, 93540, Note_on_c, 2, 59, 0
6, 93540, Note_on_c, 2, 58, 100
6, 93600, Note_on_c, 2, 58, 0
6, 93600, Note_on_c, 2, 59, 100
6, 93720, Note_on_c, 2, 59, 0
6, 93720, Note_on_c, 2, 55, 100
6, 93840, Note_on_c, 2, 55, 0
6, 93840, Note_on_c, 2, 52, 100
6, 93960, Note_on_c, 2, 52, 0
6, 93960, Note_on_c, 2, 54, 100
6, 94080, Note_on_c, 2, 54, 0
6, 94080, Note_on_c, 2, 59, 100
6, 94140, Note_on_c, 2, 59, 0
6, 94140, Note_on_c, 2, 47, 100
6, 94200, Note_on_c, 2, 47, 0
6, 94200, Note_on_c, 2, 47, 100
6, 94260, Note_on_c, 2, 47, 0
6, 94260, Note_on_c, 2, 45, 100
6, 94320, Note_on_c, 2, 45, 0
6, 94320, Note_on_c, 2, 45, 100
6, 94380, Note_on_c, 2, 45, 0
6, 94380, Note_on_c, 2, 43, 100
6, 94440, Note_on_c, 2, 43, 0
6, 94440, Note_on_c, 2, 43, 100
6, 94500, Note_on_c, 2, 43, 0
6, 94500, Note_on_c, 2, 42, 100
6, 94560, Note_on_c, 2, 42, 0
6, 94560, Note_on_c, 2, 42, 100
6, 94620, Note_on_c, 2, 42, 0
6, 94620, Note_on_c, 2, 52, 100
6, 94680, Note_on_c, 2, 52, 0
6, 94680, Note_on_c, 2, 52, 100
6, 94740, Note_on_c, 2, 52, 0
6, 94740, Note_on_c, 2, 50, 100
6, 94800, Note_on_c, 2, 50, 0
6, 94800, Note_on_c, 2, 50, 100
6, 94860, Note_on_c, 2, 50, 0
6, 94860, Note_on_c, 2, 49, 100
6, 94920, Note_on_c, 2, 49, 0
6, 94920, Note_on_c, 2, 49, 100
6, 94980, Note_on_c, 2, 49, 0
6, 94980, Note_on_c, 2, 47, 100
6, 95040, Note_on_c, 2, 47, 0
6, 95040, Note_on_c, 2, 47, 100
6, 95100, Note_on_c, 2, 47, 0
6, 95100, Note_on_c, 2, 59, 100
6, 95160, Note_on_c, 2, 59, 0
6, 95160, Note_on_c, 2, 59, 100
6, 95220, Note_on_c, 2, 59, 0
6, 95220, Note_on_c, 2, 57, 100
6, 95280, Note_on_c, 2, 57, 0
6, 95280, Note_on_c, 2, 57, 100
6, 95340, Note_on_c, 2, 57, 0
6, 95340, Note_on_c, 2, 55, 100
6, 95400, Note_on_c, 2, 55, 0
6, 95400, Note_on_c, 2, 55, 100
6, 95460, Note_on_c, 2, 55, 0
6, 95460, Note_on_c, 2, 54, 100
6, 95520, Note_on_c, 2, 54, 0
6, 95520, Note_on_c, 2, 54, 100
6, 95580, Note_on_c, 2, 54, 0
6, 95580, Note_on_c, 2, 64, 100
6, 95640, Note_on_c, 2, 64, 0
6, 95640, Note_on_c, 2, 64, 100
6, 95700, Note_on_c, 2, 64, 0
6, 95700, Note_on_c, 2, 62, 100
6, 95760, Note_on_c, 2, 62, 0
6, 95760, Note_on_c, 2, 62, 100
6, 95820, Note_on_c, 2, 62, 0
6, 95820, Note_on_c, 2, 61, 100
6, 95880, Note_on_c, 2, 61, 0
6, 95880, Note_on_c, 2, 61, 100
6, 95940, Note_on_c, 2, 61, 0
6, 95940, Note_on_c, 2, 59, 100
6, 96000, Note_on_c, 2, 59, 0
6, 96000, Note_on_c, 2, 59, 100
6, 96120, Note_on_c, 2, 59, 0
6, 96120, Note_on_c, 2, 58, 100
6, 96180, Note_on_c, 2, 58, 0
6, 96180, Note_on_c, 2, 56, 100
6, 96240, Note_on_c, 2, 56, 0
6, 96240, Note_on_c, 2, 58, 100
6, 96360, Note_on_c, 2, 58, 0
6, 96360, Note_on_c, 2, 54, 100
6, 96480, Note_on_c, 2, 54, 0
6, 96480, Note_on_c, 2, 42, 100
6, 96600, Note_on_c, 2, 42, 0
6, 96600, Note_on_c, 2, 58, 100
6, 96660, Note_on_c, 2, 58, 0
6, 96660, Note_on_c, 2, 56, 100
6, 96720, Note_on_c, 2, 56, 0
6, 96720, Note_on_c, 2, 58, 100
6, 96840, Note_on_c, 2, 58, 0
6, 96840, Note_on_c, 2, 54, 100
6, 96960, Note_on_c, 2, 54, 0
6, 96960, Control_c, 2, 11, 127
6, 96960, Control_c, 2, 8, 79
6, 96960, Note_on_c, 2, 42, 100
6, 97078, Note_on_c, 2, 42, 0
6, 97080, Note_on_c, 2, 58, 100
6, 97138, Note_on_c, 2, 58, 0
6, 97140, Note_on_c, 2, 56, 100
6, 97198, Note_on_c, 2, 56, 0
6, 97200, Note_on_c, 2, 58, 100
6, 97318, Note_on_c, 2, 58, 0
6, 97320, Note_on_c, 2, 54, 100
6, 97438, Note_on_c, 2, 54, 0
6, 97440, Note_on_c, 2, 50, 100
6, 97558, Note_on_c, 2, 50, 0
6, 97560, Note_on_c, 2, 55, 100
6, 97618, Note_on_c, 2, 55, 0
6, 97620, Note_on_c, 2, 54, 100
6, 97678, Note_on_c, 2, 54, 0
6, 97680, Note_on_c, 2, 52, 100
6, 97798, Note_on_c, 2, 52, 0
6, 97800, Note_on_c, 2, 54, 100
6, 97918, Note_on_c, 2, 54, 0
6, 97920, Note_on_c, 2, 47, 100
6, 98038, Note_on_c, 2, 47, 0
6, 98160, Note_on_c, 2, 52, 100
6, 98278, Note_on_c, 2, 52, 0
6, 98400, Note_on_c, 2, 49, 100
6, 98518, Note_on_c, 2, 49, 0
6, 98640, Note_on_c, 2, 54, 100
6, 98758, Note_on_c, 2, 54, 0
6, 98880, Note_on_c, 2, 50, 100
6, 98998, Note_on_c, 2, 50, 0
6, 99120, Note_on_c, 2, 47, 100
6, 99238, Note_on_c, 2, 47, 0
6, 99360, Note_on_c, 2, 49, 100
6, 99478, Note_on_c, 2, 49, 0
6, 99600, Note_on_c, 2, 61, 100
6, 99718, Note_on_c, 2, 61, 0
6, 99840, Note_on_c, 2, 62, 100
6, 99958, Note_on_c, 2, 62, 0
6, 100080, Note_on_c, 2, 50, 100
6, 100198, Note_on_c, 2, 50, 0
6, 100320, Note_on_c, 2, 50, 100
6, 100438, Note_on_c, 2, 50, 0
6, 100560, Note_on_c, 2, 49, 100
6, 100678, Note_on_c, 2, 49, 0
6, 100804, Note_on_c, 2, 47, 100
6, 100922, Note_on_c, 2, 47, 0
6, 100924, Note_on_c, 2, 59, 100
6, 101042, Note_on_c, 2, 59, 0
6, 101044, Note_on_c, 2, 60, 100
6, 101162, Note_on_c, 2, 60, 0
6, 101164, Note_on_c, 2, 59, 100
6, 101282, Note_on_c, 2, 59, 0
6, 101284, Note_on_c, 2, 57, 100
6, 101402, Note_on_c, 2, 57, 0
6, 101404, Note_on_c, 2, 54, 100
6, 101522, Note_on_c, 2, 54, 0
6, 101524, Note_on_c, 2, 47, 100
6, 101642, Note_on_c, 2, 47, 0
6, 101644, Note_on_c, 2, 59, 100
6, 101760, Note_on_c, 2, 59, 0
6, 101760, Note_on_c, 2, 64, 100
6, 101878, Note_on_c, 2, 64, 0
6, 101880, Note_on_c, 2, 62, 100
6, 101998, Note_on_c, 2, 62, 0
6, 102000, Note_on_c, 2, 61, 100
6, 102118, Note_on_c, 2, 61, 0
6, 102120, Note_on_c, 2, 59, 100
6, 102238, Note_on_c, 2, 59, 0
6, 102240, Note_on_c, 2, 57, 100
6, 102358, Note_on_c, 2, 57, 0
6, 102360, Note_on_c, 2, 55, 100
6, 102478, Note_on_c, 2, 55, 0
6, 102480, Note_on_c, 2, 54, 100
6, 102598, Note_on_c, 2, 54, 0
6, 102600, Note_on_c, 2, 52, 100
6, 102718, Note_on_c, 2, 52, 0
6, 102720, Note_on_c, 2, 62, 100
6, 102838, Note_on_c, 2, 62, 0
6, 102840, Note_on_c, 2, 61, 100
6, 102958, Note_on_c, 2, 61, 0
6, 102960, Note_on_c, 2, 59, 100
6, 103078, Note_on_c, 2, 59, 0
6, 103080, Note_on_c, 2, 57, 100
6, 103198, Note_on_c, 2, 57, 0
6, 103200, Note_on_c, 2, 55, 100
6, 103318, Note_on_c, 2, 55, 0
6, 103320, Note_on_c, 2, 54, 100
6, 103438, Note_on_c, 2, 54, 0
6, 103440, Note_on_c, 2, 52, 100
6, 103558, Note_on_c, 2, 52, 0
6, 103560, Note_on_c, 2, 50, 100
6, 103678, Note_on_c, 2, 50, 0
6, 103680, Note_on_c, 2, 61, 100
6, 103798, Note_on_c, 2, 61, 0
6, 103800, Note_on_c, 2, 59, 100
6, 103918, Note_on_c, 2, 59, 0
6, 103920, Note_on_c, 2, 58, 100
6, 104038, Note_on_c, 2, 58, 0
6, 104040, Note_on_c, 2, 56, 100
6, 104158, Note_on_c, 2, 56, 0
6, 104160, Note_on_c, 2, 54, 100
6, 104278, Note_on_c, 2, 54, 0
6, 104280, Note_on_c, 2, 52, 100
6, 104398, Note_on_c, 2, 52, 0
6, 104400, Note_on_c, 2, 50, 100
6, 104518, Note_on_c, 2, 50, 0
6, 104520, Note_on_c, 2, 49, 100
6, 104638, Note_on_c, 2, 49, 0
6, 104640, Note_on_c, 2, 47, 100
6, 104878, Note_on_c, 2, 47, 0
6, 105000, Note_on_c, 2, 47, 100
6, 105118, Note_on_c, 2, 47, 0
6, 105120, Note_on_c, 2, 52, 100
6, 105358, Note_on_c, 2, 52, 0
6, 105480, Note_on_c, 2, 52, 100
6, 105598, Note_on_c, 2, 52, 0
6, 105600, Note_on_c, 2, 45, 100
6, 105838, Note_on_c, 2, 45, 0
6, 105960, Note_on_c, 2, 45, 100
6, 106078, Note_on_c, 2, 45, 0
6, 106080, Note_on_c, 2, 50, 100
6, 106318, Note_on_c, 2, 50, 0
6, 106440, Note_on_c, 2, 50, 100
6, 106558, Note_on_c, 2, 50, 0
6, 106560, Note_on_c, 2, 43, 100
6, 106678, Note_on_c, 2, 43, 0
6, 106680, Note_on_c, 2, 43, 100
6, 106798, Note_on_c, 2, 43, 0
6, 106800, Note_on_c, 2, 43, 100
6, 106918, Note_on_c, 2, 43, 0
6, 106920, Note_on_c, 2, 43, 100
6, 107038, Note_on_c, 2, 43, 0
6, 107040, Note_on_c, 2, 42, 100
6, 107158, Note_on_c, 2, 42, 0
6, 107160, Note_on_c, 2, 54, 100
6, 107278, Note_on_c, 2, 54, 0
6, 107520, Note_on_c, 2, 55, 100
6, 107638, Note_on_c, 2, 55, 0
6, 107640, Note_on_c, 2, 52, 100
6, 107758, Note_on_c, 2, 52, 0
6, 107760, Note_on_c, 2, 54, 100
6, 107878, Note_on_c, 2, 54, 0
6, 107880, Note_on_c, 2, 42, 100
6, 107998, Note_on_c, 2, 42, 0
6, 108000, Note_on_c, 2, 43, 100
6, 108058, Note_on_c, 2, 43, 0
6, 108060, Note_on_c, 2, 55, 100
6, 108118, Note_on_c, 2, 55, 0
6, 108120, Note_on_c, 2, 55, 100
6, 108178, Note_on_c, 2, 55, 0
6, 108180, Note_on_c, 2, 54, 100
6, 108238, Note_on_c, 2, 54, 0
6, 108240, Note_on_c, 2, 54, 100
6, 108298, Note_on_c, 2, 54, 0
6, 108300, Note_on_c, 2, 52, 100
6, 108358, Note_on_c, 2, 52, 0
6, 108360, Note_on_c, 2, 52, 100
6, 108418, Note_on_c, 2, 52, 0
6, 108420, Note_on_c, 2, 54, 100
6, 108478, Note_on_c, 2, 54, 0
6, 108480, Note_on_c, 2, 54, 100
6, 108598, Note_on_c, 2, 54, 0
6, 108660, Note_on_c, 2, 66, 100
6, 108718, Note_on_c, 2, 66, 0
6, 108720, Note_on_c, 2, 66, 100
6, 108778, Note_on_c, 2, 66, 0
6, 108780, Note_on_c, 2, 64, 100
6, 108838, Note_on_c, 2, 64, 0
6, 108840, Note_on_c, 2, 64, 100
6, 108898, Note_on_c, 2, 64, 0
6, 108900, Note_on_c, 2, 62, 100
6, 108958, Note_on_c, 2, 62, 0
6, 108960, Note_on_c, 2, 64, 100
6, 109018, Note_on_c, 2, 64, 0
6, 109020, Note_on_c, 2, 62, 100
6, 109078, Note_on_c, 2, 62, 0
6, 109080, Note_on_c, 2, 62, 100
6, 109138, Note_on_c, 2, 62, 0
6, 109140, Note_on_c, 2, 61, 100
6, 109198, Note_on_c, 2, 61, 0
6, 109200, Note_on_c, 2, 62, 100
6, 109258, Note_on_c, 2, 62, 0
6, 109260, Note_on_c, 2, 60, 100
6, 109318, Note_on_c, 2, 60, 0
6, 109320, Note_on_c, 2, 60, 100
6, 109378, Note_on_c, 2, 60, 0
6, 109380, Note_on_c, 2, 59, 100
6, 109438, Note_on_c, 2, 59, 0
6, 109440, Note_on_c, 2, 60, 100
6, 109498, Note_on_c, 2, 60, 0
6, 109500, Note_on_c, 2, 59, 100
6, 109558, Note_on_c, 2, 59, 0
6, 109560, Note_on_c, 2, 59, 100
6, 109618, Note_on_c, 2, 59, 0
6, 109620, Note_on_c, 2, 57, 100
6, 109678, Note_on_c, 2, 57, 0
6, 109680, Note_on_c, 2, 59, 100
6, 109738, Note_on_c, 2, 59, 0
6, 109740, Note_on_c, 2, 57, 100
6, 109798, Note_on_c, 2, 57, 0
6, 109800, Note_on_c, 2, 57, 100
6, 109858, Note_on_c, 2, 57, 0
6, 109860, Note_on_c, 2, 55, 100
6, 109918, Note_on_c, 2, 55, 0
6, 109920, Note_on_c, 2, 57, 100
6, 109978, Note_on_c, 2, 57, 0
6, 109980, Note_on_c, 2, 55, 100
6, 110038, Note_on_c, 2, 55, 0
6, 110040, Note_on_c, 2, 55, 100
6, 110098, Note_on_c, 2, 55, 0
6, 110100, Note_on_c, 2, 54, 100
6, 110158, Note_on_c, 2, 54, 0
6, 110160, Note_on_c, 2, 55, 100
6, 110218, Note_on_c, 2, 55, 0
6, 110220, Note_on_c, 2, 54, 100
6, 110278, Note_on_c, 2, 54, 0
6, 110280, Note_on_c, 2, 54, 100
6, 110338, Note_on_c, 2, 54, 0
6, 110340, Note_on_c, 2, 52, 100
6, 110398, Note_on_c, 2, 52, 0
6, 110400, Note_on_c, 2, 54, 100
6, 110458, Note_on_c, 2, 54, 0
6, 110460, Note_on_c, 2, 52, 100
6, 110518, Note_on_c, 2, 52, 0
6, 110520, Note_on_c, 2, 52, 100
6, 110578, Note_on_c, 2, 52, 0
6, 110580, Note_on_c, 2, 50, 100
6, 110638, Note_on_c, 2, 50, 0
6, 110640, Note_on_c, 2, 52, 100
6, 110698, Note_on_c, 2, 52, 0
6, 110700, Note_on_c, 2, 50, 100
6, 110758, Note_on_c, 2, 50, 0
6, 110760, Note_on_c, 2, 50, 100
6, 110818, Note_on_c, 2, 50, 0
6, 110820, Note_on_c, 2, 49, 100
6, 110878, Note_on_c, 2, 49, 0
6, 110880, Note_on_c, 2, 50, 100
6, 110938, Note_on_c, 2, 50, 0
6, 110940, Note_on_c, 2, 49, 100
6, 110998, Note_on_c, 2, 49, 0
6, 111000, Note_on_c, 2, 49, 100
6, 111058, Note_on_c, 2, 49, 0
6, 111060, Note_on_c, 2, 47, 100
6, 111118, Note_on_c, 2, 47, 0
6, 111120, Note_on_c, 2, 49, 100
6, 111178, Note_on_c, 2, 49, 0
6, 111180, Note_on_c, 2, 47, 100
6, 111238, Note_on_c, 2, 47, 0
6, 111240, Note_on_c, 2, 47, 100
6, 111298, Note_on_c, 2, 47, 0
6, 111300, Note_on_c, 2, 46, 100
6, 111358, Note_on_c, 2, 46, 0
6, 111360, Note_on_c, 2, 47, 100
6, 111418, Note_on_c, 2, 47, 0
6, 111420, Note_on_c, 2, 54, 100
6, 111478, Note_on_c, 2, 54, 0
6, 111480, Note_on_c, 2, 59, 100
6, 111538, Note_on_c, 2, 59, 0
6, 111540, Note_on_c, 2, 61, 100
6, 111598, Note_on_c, 2, 61, 0
6, 111600, Note_on_c, 2, 59, 100
6, 111658, Note_on_c, 2, 59, 0
6, 111660, Note_on_c, 2, 57, 100
6, 111718, Note_on_c, 2, 57, 0
6, 111720, Note_on_c, 2, 55, 100
6, 111778, Note_on_c, 2, 55, 0
6, 111780, Note_on_c, 2, 54, 100
6, 111838, Note_on_c, 2, 54, 0
6, 111840, Note_on_c, 2, 54, 100
6, 112018, Note_on_c, 2, 54, 0
6, 112020, Note_on_c, 2, 51, 100
6, 112078, Note_on_c, 2, 51, 0
6, 112080, Note_on_c, 2, 52, 100
6, 112138, Note_on_c, 2, 52, 0
6, 112140, Note_on_c, 2, 54, 100
6, 112198, Note_on_c, 2, 54, 0
6, 112200, Note_on_c, 2, 55, 100
6, 112258, Note_on_c, 2, 55, 0
6, 112260, Note_on_c, 2, 52, 100
6, 112318, Note_on_c, 2, 52, 0
6, 112320, Note_on_c, 2, 45, 100
6, 112378, Note_on_c, 2, 45, 0
6, 112380, Note_on_c, 2, 52, 100
6, 112438, Note_on_c, 2, 52, 0
6, 112440, Note_on_c, 2, 57, 100
6, 112498, Note_on_c, 2, 57, 0
6, 112500, Note_on_c, 2, 59, 100
6, 112558, Note_on_c, 2, 59, 0
6, 112560, Note_on_c, 2, 57, 100
6, 112618, Note_on_c, 2, 57, 0
6, 112620, Note_on_c, 2, 55, 100
6, 112678, Note_on_c, 2, 55, 0
6, 112680, Note_on_c, 2, 54, 100
6, 112738, Note_on_c, 2, 54, 0
6, 112740, Note_on_c, 2, 52, 100
6, 112798, Note_on_c, 2, 52, 0
6, 112800, Note_on_c, 2, 50, 100
6, 112978, Note_on_c, 2, 50, 0
6, 112980, Note_on_c, 2, 49, 100
6, 113038, Note_on_c, 2, 49, 0
6, 113040, Note_on_c, 2, 50, 100
6, 113098, Note_on_c, 2, 50, 0
6, 113100, Note_on_c, 2, 52, 100
6, 113158, Note_on_c, 2, 52, 0
6, 113160, Note_on_c, 2, 54, 100
6, 113218, Note_on_c, 2, 54, 0
6, 113220, Note_on_c, 2, 50, 100
6, 113278, Note_on_c, 2, 50, 0
6, 113280, Note_on_c, 2, 55, 100
6, 113398, Note_on_c, 2, 55, 0
6, 113400, Note_on_c, 2, 43, 100
6, 113518, Note_on_c, 2, 43, 0
6, 113520, Note_on_c, 2, 43, 100
6, 113638, Note_on_c, 2, 43, 0
6, 113640, Note_on_c, 2, 43, 100
6, 113758, Note_on_c, 2, 43, 0
6, 113760, Note_on_c, 2, 42, 100
6, 113878, Note_on_c, 2, 42, 0
6, 113880, Note_on_c, 2, 52, 100
6, 113998, Note_on_c, 2, 52, 0
6, 114000, Note_on_c, 2, 50, 100
6, 114118, Note_on_c, 2, 50, 0
6, 114120, Note_on_c, 2, 54, 100
6, 114238, Note_on_c, 2, 54, 0
6, 114241, Note_on_c, 2, 55, 100
6, 114359, Note_on_c, 2, 55, 0
6, 114361, Note_on_c, 2, 52, 100
6, 114479, Note_on_c, 2, 52, 0
6, 114481, Note_on_c, 2, 54, 100
6, 114599, Note_on_c, 2, 54, 0
6, 114601, Note_on_c, 2, 42, 100
6, 114719, Note_on_c, 2, 42, 0
6, 114721, Note_on_c, 2, 47, 100
6, 115079, Note_on_c, 2, 47, 0
6, 115200, Note_on_c, 2, 62, 100
6, 115320, Note_on_c, 2, 62, 0
6, 115320, Note_on_c, 2, 59, 100
6, 115440, Note_on_c, 2, 59, 0
6, 115440, Note_on_c, 2, 62, 100
6, 115440, Note_on_c, 2, 54, 100
6, 115560, Note_on_c, 2, 54, 0
6, 115560, Note_on_c, 2, 62, 0
6, 115560, Note_on_c, 2, 62, 100
6, 115560, Note_on_c, 2, 55, 100
6, 115680, Note_on_c, 2, 62, 0
6, 115680, Note_on_c, 2, 64, 100
6, 115800, Note_on_c, 2, 64, 0
6, 115800, Note_on_c, 2, 55, 0
6, 115800, Note_on_c, 2, 57, 100
6, 115800, Note_on_c, 2, 54, 100
6, 115920, Note_on_c, 2, 54, 0
6, 115920, Note_on_c, 2, 57, 0
6, 115920, Note_on_c, 2, 64, 100
6, 115920, Note_on_c, 2, 52, 100
6, 116040, Note_on_c, 2, 52, 0
6, 116040, Note_on_c, 2, 64, 0
6, 116040, Note_on_c, 2, 61, 100
6, 116040, Note_on_c, 2, 57, 100
6, 116160, Note_on_c, 2, 57, 0
6, 116160, Note_on_c, 2, 61, 0
6, 116160, Note_on_c, 2, 64, 100
6, 116160, Note_on_c, 2, 45, 100
6, 116280, Note_on_c, 2, 45, 0
6, 116280, Note_on_c, 2, 64, 0
6, 116280, Note_on_c, 2, 50, 100
6, 116520, Note_on_c, 2, 50, 0
6, 116520, Note_on_c, 2, 52, 100
6, 116640, Note_on_c, 2, 52, 0
6, 116640, Note_on_c, 2, 54, 100
6, 116760, Note_on_c, 2, 54, 0
6, 116760, Note_on_c, 2, 57, 100
6, 116880, Note_on_c, 2, 57, 0
6, 116880, Note_on_c, 2, 62, 100
6, 117000, Note_on_c, 2, 62, 0
6, 117000, Note_on_c, 2, 55, 100
6, 117240, Note_on_c, 2, 55, 0
6, 117240, Note_on_c, 2, 60, 100
6, 117360, Note_on_c, 2, 60, 0
6, 117360, Note_on_c, 2, 54, 100
6, 117480, Note_on_c, 2, 54, 0
6, 117480, Note_on_c, 2, 59, 100
6, 117600, Note_on_c, 2, 59, 0
6, 117600, Note_on_c, 2, 47, 100
6, 117720, Note_on_c, 2, 47, 0
6, 117720, Note_on_c, 2, 52, 100
6, 117960, Note_on_c, 2, 52, 0
6, 117960, Note_on_c, 2, 50, 100
6, 118080, Note_on_c, 2, 50, 0
6, 118080, Note_on_c, 2, 49, 100
6, 118200, Note_on_c, 2, 49, 0
6, 118200, Note_on_c, 2, 52, 100
6, 118320, Note_on_c, 2, 52, 0
6, 118320, Note_on_c, 2, 55, 100
6, 118440, Note_on_c, 2, 55, 0
6, 118440, Note_on_c, 2, 45, 100
6, 118680, Note_on_c, 2, 45, 0
6, 118680, Note_on_c, 2, 49, 100
6, 118800, Note_on_c, 2, 49, 0
6, 118800, Note_on_c, 2, 50, 100
6, 118920, Note_on_c, 2, 50, 0
6, 118920, Note_on_c, 2, 47, 100
6, 119040, Note_on_c, 2, 47, 0
6, 119040, Note_on_c, 2, 52, 100
6, 119160, Note_on_c, 2, 52, 0
6, 119160, Note_on_c, 2, 49, 100
6, 119280, Note_on_c, 2, 49, 0
6, 119280, Note_on_c, 2, 54, 100
6, 119400, Note_on_c, 2, 54, 0
6, 119400, Note_on_c, 2, 42, 100
6, 119520, Note_on_c, 2, 42, 0
6, 119520, Note_on_c, 2, 47, 100
6, 119640, Note_on_c, 2, 47, 0
6, 119640, Note_on_c, 2, 54, 100
6, 119760, Note_on_c, 2, 54, 0
6, 119760, Note_on_c, 2, 57, 100
6, 119880, Note_on_c, 2, 57, 0
6, 119880, Note_on_c, 2, 56, 100
6, 120000, Note_on_c, 2, 56, 0
6, 120000, Note_on_c, 2, 62, 100
6, 120120, Note_on_c, 2, 62, 0
6, 120120, Note_on_c, 2, 59, 100
6, 120240, Note_on_c, 2, 59, 0
6, 120240, Note_on_c, 2, 61, 100
6, 120300, Note_on_c, 2, 61, 0
6, 120300, Note_on_c, 2, 57, 100
6, 120360, Note_on_c, 2, 57, 0
6, 120360, Note_on_c, 2, 64, 100
6, 120480, Note_on_c, 2, 64, 0
6, 120480, Note_on_c, 2, 52, 100
6, 120600, Note_on_c, 2, 52, 0
6, 120600, Note_on_c, 2, 45, 100
6, 120720, Note_on_c, 2, 57, 100
6, 120780, Note_on_c, 2, 57, 0
6, 120780, Note_on_c, 2, 59, 100
6, 120840, Note_on_c, 2, 59, 0
6, 120840, Note_on_c, 2, 45, 0
6, 120840, Note_on_c, 2, 61, 100
6, 120900, Note_on_c, 2, 61, 0
6, 120900, Note_on_c, 2, 57, 100
6, 120960, Note_on_c, 2, 57, 0
6, 120960, Control_c, 2, 11, 127
6, 120960, Control_c, 2, 8, 79
6, 120960, Note_on_c, 2, 62, 100
6, 121080, Note_on_c, 2, 62, 0
6, 121080, Note_on_c, 2, 59, 100
6, 121200, Note_on_c, 2, 59, 0
6, 121200, Note_on_c, 2, 62, 100
6, 121200, Note_on_c, 2, 54, 100
6, 121320, Note_on_c, 2, 54, 0
6, 121320, Note_on_c, 2, 62, 0
6, 121320, Note_on_c, 2, 62, 100
6, 121320, Note_on_c, 2, 55, 100
6, 121440, Note_on_c, 2, 62, 0
6, 121440, Note_on_c, 2, 64, 100
6, 121560, Note_on_c, 2, 64, 0
6, 121560, Note_on_c, 2, 55, 0
6, 121560, Note_on_c, 2, 57, 100
6, 121560, Note_on_c, 2, 54, 100
6, 121680, Note_on_c, 2, 54, 0
6, 121680, Note_on_c, 2, 57, 0
6, 121680, Note_on_c, 2, 64, 100
6, 121680, Note_on_c, 2, 52, 100
6, 121800, Note_on_c, 2, 52, 0
6, 121800, Note_on_c, 2, 64, 0
6, 121800, Note_on_c, 2, 61, 100
6, 121800, Note_on_c, 2, 57, 100
6, 121920, Note_on_c, 2, 57, 0
6, 121920, Note_on_c, 2, 61, 0
6, 121920, Note_on_c, 2, 64, 100
6, 121920, Note_on_c, 2, 45, 100
6, 122040, Note_on_c, 2, 45, 0
6, 122040, Note_on_c, 2, 64, 0
6, 122040, Note_on_c, 2, 50, 100
6, 122280, Note_on_c, 2, 50, 0
6, 122280, Note_on_c, 2, 52, 100
6, 122400, Note_on_c, 2, 52, 0
6, 122400, Note_on_c, 2, 54, 100
6, 122520, Note_on_c, 2, 54, 0
6, 122520, Note_on_c, 2, 57, 100
6, 122640, Note_on_c, 2, 57, 0
6, 122640, Note_on_c, 2, 62, 100
6, 122760, Note_on_c, 2, 62, 0
6, 122760, Note_on_c, 2, 55, 100
6, 123000, Note_on_c, 2, 55, 0
6, 123000, Note_on_c, 2, 60, 100
6, 123120, Note_on_c, 2, 60, 0
6, 123120, Note_on_c, 2, 54, 100
6, 123240, Note_on_c, 2, 54, 0
6, 123240, Note_on_c, 2, 59, 100
6, 123360, Note_on_c, 2, 59, 0
6, 123360, Note_on_c, 2, 47, 100
6, 123480, Note_on_c, 2, 47, 0
6, 123480, Note_on_c, 2, 52, 100
6, 123720, Note_on_c, 2, 52, 0
6, 123720, Note_on_c, 2, 50, 100
6, 123840, Note_on_c, 2, 50, 0
6, 123840, Note_on_c, 2, 49, 100
6, 123960, Note_on_c, 2, 49, 0
6, 123960, Note_on_c, 2, 52, 100
6, 124080, Note_on_c, 2, 52, 0
6, 124080, Note_on_c, 2, 55, 100
6, 124200, Note_on_c, 2, 55, 0
6, 124200, Note_on_c, 2, 45, 100
6, 124440, Note_on_c, 2, 45, 0
6, 124440, Note_on_c, 2, 49, 100
6, 124560, Note_on_c, 2, 49, 0
6, 124560, Note_on_c, 2, 50, 100
6, 124680, Note_on_c, 2, 50, 0
6, 124680, Note_on_c, 2, 47, 100
6, 124800, Note_on_c, 2, 47, 0
6, 124800, Note_on_c, 2, 52, 100
6, 124920, Note_on_c, 2, 52, 0
6, 124920, Note_on_c, 2, 49, 100
6, 125040, Note_on_c, 2, 49, 0
6, 125040, Note_on_c, 2, 54, 100
6, 125160, Note_on_c, 2, 54, 0
6, 125160, Note_on_c, 2, 42, 100
6, 125280, Note_on_c, 2, 42, 0
6, 125280, Note_on_c, 2, 47, 100
6, 125400, Note_on_c, 2, 47, 0
6, 125400, Note_on_c, 2, 54, 100
6, 125520, Note_on_c, 2, 54, 0
6, 125520, Note_on_c, 2, 57, 100
6, 125640, Note_on_c, 2, 57, 0
6, 125640, Note_on_c, 2, 56, 100
6, 125760, Note_on_c, 2, 56, 0
6, 125760, Note_on_c, 2, 62, 100
6, 125880, Note_on_c, 2, 62, 0
6, 125880, Note_on_c, 2, 59, 100
6, 126000, Note_on_c, 2, 59, 0
6, 126000, Note_on_c, 2, 61, 100
6, 126060, Note_on_c, 2, 61, 0
6, 126060, Note_on_c, 2, 57, 100
6, 126120, Note_on_c, 2, 57, 0
6, 126120, Note_on_c, 2, 64, 100
6, 126240, Note_on_c, 2, 64, 0
6, 126240, Note_on_c, 2, 52, 100
6, 126360, Note_on_c, 2, 52, 0
6, 126360, Note_on_c, 2, 45, 100
6, 126600, Note_on_c, 2, 45, 0
6, 126600, Note_on_c, 2, 57, 100
6, 126720, Note_on_c, 2, 57, 0
6, 126720, Note_on_c, 2, 57, 100
6, 126840, Note_on_c, 2, 57, 0
6, 126840, Note_on_c, 2, 54, 100
6, 126960, Note_on_c, 2, 54, 0
6, 126960, Note_on_c, 2, 49, 100
6, 127080, Note_on_c, 2, 49, 0
6, 127080, Note_on_c, 2, 50, 100
6, 127320, Note_on_c, 2, 50, 0
6, 127320, Note_on_c, 2, 62, 100
6, 127440, Note_on_c, 2, 62, 0
6, 127440, Note_on_c, 2, 64, 100
6, 127440, Note_on_c, 2, 61, 100
6, 127560, Note_on_c, 2, 61, 0
6, 127560, Note_on_c, 2, 64, 0
6, 127560, Note_on_c, 2, 61, 100
6, 127560, Note_on_c, 2, 58, 100
6, 127680, Note_on_c, 2, 58, 0
6, 127680, Note_on_c, 2, 61, 0
6, 127680, Note_on_c, 2, 66, 100
6, 127680, Note_on_c, 2, 54, 100
6, 127800, Note_on_c, 2, 54, 0
6, 127800, Note_on_c, 2, 66, 0
6, 127800, Note_on_c, 2, 66, 100
6, 127800, Note_on_c, 2, 59, 100
6, 127980, Note_on_c, 2, 59, 0
6, 127980, Note_on_c, 2, 66, 0
6, 127980, Note_on_c, 2, 59, 100
6, 128040, Note_on_c, 2, 59, 0
6, 128040, Note_on_c, 2, 61, 100
6, 128100, Note_on_c, 2, 61, 0
6, 128100, Note_on_c, 2, 62, 100
6, 128160, Note_on_c, 2, 62, 0
6, 128160, Note_on_c, 2, 64, 100
6, 128280, Note_on_c, 2, 64, 0
6, 128280, Note_on_c, 2, 58, 100
6, 128400, Note_on_c, 2, 58, 0
6, 128400, Note_on_c, 2, 59, 100
6, 128520, Note_on_c, 2, 59, 0
6, 128520, Note_on_c, 2, 55, 100
6, 128640, Note_on_c, 2, 55, 0
6, 128640, Note_on_c, 2, 52, 100
6, 128760, Note_on_c, 2, 52, 0
6, 128760, Note_on_c, 2, 49, 100
6, 128880, Note_on_c, 2, 49, 0
6, 128880, Note_on_c, 2, 50, 100
6, 129000, Note_on_c, 2, 50, 0
6, 129000, Note_on_c, 2, 52, 100
6, 129120, Note_on_c, 2, 52, 0
6, 129120, Note_on_c, 2, 54, 100
6, 129240, Note_on_c, 2, 54, 0
6, 129240, Note_on_c, 2, 47, 100
6, 129360, Note_on_c, 2, 47, 0
6, 129360, Note_on_c, 2, 59, 100
6, 129480, Note_on_c, 2, 59, 0
6, 129480, Note_on_c, 2, 61, 100
6, 129600, Note_on_c, 2, 61, 0
6, 129600, Note_on_c, 2, 62, 100
6, 129720, Note_on_c, 2, 62, 0
6, 129720, Note_on_c, 2, 64, 100
6, 129840, Note_on_c, 2, 64, 0
6, 129840, Note_on_c, 2, 62, 100
6, 129960, Note_on_c, 2, 62, 0
6, 129960, Note_on_c, 2, 61, 100
6, 130140, Note_on_c, 2, 61, 0
6, 130140, Note_on_c, 2, 57, 100
6, 130200, Note_on_c, 2, 57, 0
6, 130200, Note_on_c, 2, 64, 100
6, 130260, Note_on_c, 2, 64, 0
6, 130260, Note_on_c, 2, 55, 100
6, 130320, Note_on_c, 2, 55, 0
6, 130320, Note_on_c, 2, 54, 100
6, 130440, Note_on_c, 2, 54, 0
6, 130440, Note_on_c, 2, 50, 100
6, 130560, Note_on_c, 2, 50, 0
6, 130560, Note_on_c, 2, 54, 100
6, 130680, Note_on_c, 2, 54, 0
6, 130680, Note_on_c, 2, 66, 100
6, 130680, Note_on_c, 2, 55, 100
6, 130740, Note_on_c, 2, 66, 0
6, 130740, Note_on_c, 2, 62, 100
6, 130860, Note_on_c, 2, 62, 0
6, 130860, Note_on_c, 2, 55, 0
6, 130860, Note_on_c, 2, 62, 100
6, 130860, Note_on_c, 2, 54, 100
6, 130920, Note_on_c, 2, 54, 0
6, 130920, Note_on_c, 2, 62, 0
6, 130920, Note_on_c, 2, 61, 100
6, 130920, Note_on_c, 2, 52, 100
6, 130980, Note_on_c, 2, 52, 0
6, 130980, Note_on_c, 2, 61, 0
6, 130980, Note_on_c, 2, 59, 100
6, 130980, Note_on_c, 2, 50, 100
6, 131040, Note_on_c, 2, 50, 0
6, 131040, Note_on_c, 2, 59, 0
6, 131040, Note_on_c, 2, 57, 100
6, 131520, Note_on_c, 2, 57, 0
6, 131520, Note_on_c, 2, 57, 100
6, 131520, Note_on_c, 2, 49, 100
6, 131640, Note_on_c, 2, 49, 0
6, 131640, Note_on_c, 2, 57, 0
6, 131640, Note_on_c, 2, 52, 100
6, 131760, Note_on_c, 2, 52, 0
6, 131760, Note_on_c, 2, 54, 100
6, 131760, Note_on_c, 2, 42, 100
6, 131880, Note_on_c, 2, 42, 0
6, 131880, Note_on_c, 2, 54, 0
6, 131880, Note_on_c, 2, 55, 100
6, 131880, Note_on_c, 2, 43, 100
6, 132000, Note_on_c, 2, 43, 0
6, 132000, Note_on_c, 2, 55, 0
6, 132000, Note_on_c, 2, 45, 100
6, 132000, Note_on_c, 2, 57, 100
6, 132120, Note_on_c, 2, 57, 0
6, 132120, Note_on_c, 2, 45, 0
6, 132120, Note_on_c, 2, 50, 100
6, 132120, Note_on_c, 2, 38, 100
6, 132300, Note_on_c, 2, 38, 0
6, 132300, Note_on_c, 2, 50, 0
6, 132300, Note_on_c, 2, 52, 100
6, 132360, Note_on_c, 2, 52, 0
6, 132360, Note_on_c, 2, 54, 100
6, 132420, Note_on_c, 2, 54, 0
6, 132420, Note_on_c, 2, 50, 100
6, 132480, Note_on_c, 2, 50, 0
6, 132480, Note_on_c, 2, 57, 100
6, 132600, Note_on_c, 2, 57, 0
6, 132600, Note_on_c, 2, 54, 100
6, 132720, Note_on_c, 2, 54, 0
6, 132720, Note_on_c, 2, 49, 100
6, 132840, Note_on_c, 2, 49, 0
6, 132840, Note_on_c, 2, 50, 100
6, 133080, Note_on_c, 2, 50, 0
6, 133080, Note_on_c, 2, 62, 100
6, 133200, Note_on_c, 2, 62, 0
6, 133200, Note_on_c, 2, 64, 100
6, 133200, Note_on_c, 2, 61, 100
6, 133320, Note_on_c, 2, 61, 0
6, 133320, Note_on_c, 2, 64, 0
6, 133320, Note_on_c, 2, 61, 100
6, 133320, Note_on_c, 2, 58, 100
6, 133440, Note_on_c, 2, 58, 0
6, 133440, Note_on_c, 2, 61, 0
6, 133440, Note_on_c, 2, 66, 100
6, 133440, Note_on_c, 2, 54, 100
6, 133560, Note_on_c, 2, 54, 0
6, 133560, Note_on_c, 2, 66, 0
6, 133560, Note_on_c, 2, 66, 100
6, 133560, Note_on_c, 2, 59, 100
6, 133740, Note_on_c, 2, 59, 0
6, 133740, Note_on_c, 2, 66, 0
6, 133740, Note_on_c, 2, 59, 100
6, 133800, Note_on_c, 2, 59, 0
6, 133800, Note_on_c, 2, 61, 100
6, 133860, Note_on_c, 2, 61, 0
6, 133860, Note_on_c, 2, 62, 100
6, 133920, Note_on_c, 2, 62, 0
6, 133920, Note_on_c, 2, 64, 100
6, 134040, Note_on_c, 2, 64, 0
6, 134040, Note_on_c, 2, 58, 100
6, 134160, Note_on_c, 2, 58, 0
6, 134160, Note_on_c, 2, 59, 100
6, 134280, Note_on_c, 2, 59, 0
6, 134280, Note_on_c, 2, 55, 100
6, 134400, Note_on_c, 2, 55, 0
6, 134400, Note_on_c, 2, 52, 100
6, 134520, Note_on_c, 2, 52, 0
6, 134520, Note_on_c, 2, 49, 100
6, 134640, Note_on_c, 2, 49, 0
6, 134640, Note_on_c, 2, 50, 100
6, 134760, Note_on_c, 2, 50, 0
6, 134760, Note_on_c, 2, 52, 100
6, 134880, Note_on_c, 2, 52, 0
6, 134880, Note_on_c, 2, 54, 100
6, 135000, Note_on_c, 2, 54, 0
6, 135000, Note_on_c, 2, 47, 100
6, 135120, Note_on_c, 2, 47, 0
6, 135120, Note_on_c, 2, 59, 100
6, 135240, Note_on_c, 2, 59, 0
6, 135240, Note_on_c, 2, 61, 100
6, 135360, Note_on_c, 2, 61, 0
6, 135360, Note_on_c, 2, 62, 100
6, 135480, Note_on_c, 2, 62, 0
6, 135480, Note_on_c, 2, 64, 100
6, 135600, Note_on_c, 2, 64, 0
6, 135600, Note_on_c, 2, 62, 100
6, 135720, Note_on_c, 2, 62, 0
6, 135720, Note_on_c, 2, 61, 100
6, 135900, Note_on_c, 2, 61, 0
6, 135900, Note_on_c, 2, 57, 100
6, 135960, Note_on_c, 2, 57, 0
6, 135960, Note_on_c, 2, 64, 100
6, 136020, Note_on_c, 2, 64, 0
6, 136020, Note_on_c, 2, 55, 100
6, 136080, Note_on_c, 2, 55, 0
6, 136080, Note_on_c, 2, 54, 100
6, 136200, Note_on_c, 2, 54, 0
6, 136200, Note_on_c, 2, 50, 100
6, 136320, Note_on_c, 2, 50, 0
6, 136320, Note_on_c, 2, 54, 100
6, 136440, Note_on_c, 2, 54, 0
6, 136440, Note_on_c, 2, 66, 100
6, 136440, Note_on_c, 2, 55, 100
6, 136500, Note_on_c, 2, 66, 0
6, 136500, Note_on_c, 2, 62, 100
6, 136620, Note_on_c, 2, 62, 0
6, 136620, Note_on_c, 2, 55, 0
6, 136620, Note_on_c, 2, 62, 100
6, 136620, Note_on_c, 2, 54, 100
6, 136680, Note_on_c, 2, 54, 0
6, 136680, Note_on_c, 2, 62, 0
6, 136680, Note_on_c, 2, 61, 100
6, 136680, Note_on_c, 2, 52, 100
6, 136740, Note_on_c, 2, 52, 0
6, 136740, Note_on_c, 2, 61, 0
6, 136740, Note_on_c, 2, 59, 100
6, 136740, Note_on_c, 2, 50, 100
6, 136800, Note_on_c, 2, 50, 0
6, 136800, Note_on_c, 2, 59, 0
6, 136800, Note_on_c, 2, 57, 100
6, 137280, Note_on_c, 2, 57, 0
6, 137280, Note_on_c, 2, 57, 100
6, 137280, Note_on_c, 2, 49, 100
6, 137400, Note_on_c, 2, 49, 0
6, 137400, Note_on_c, 2, 57, 0
6, 137400, Note_on_c, 2, 52, 100
6, 137520, Note_on_c, 2, 52, 0
6, 137520, Note_on_c, 2, 54, 100
6, 137520, Note_on_c, 2, 42, 100
6, 137640, Note_on_c, 2, 42, 0
6, 137640, Note_on_c, 2, 54, 0
6, 137640, Note_on_c, 2, 43, 100
6, 137640, Note_on_c, 2, 55, 100
6, 137760, Note_on_c, 2, 55, 0
6, 137760, Note_on_c, 2, 43, 0
6, 137760, Note_on_c, 2, 45, 100
6, 137760, Note_on_c, 2, 57, 100
6, 137880, Note_on_c, 2, 57, 0
6, 137880, Note_on_c, 2, 45, 0
6, 137880, Note_on_c, 2, 38, 100
6, 137880, Note_on_c, 2, 50, 100
6, 138240, Note_on_c, 2, 50, 0
6, 138240, Note_on_c, 2, 38, 0
6, 138720, Note_on_c, 2, 59, 100
6, 139200, Note_on_c, 2, 59, 0
6, 139200, Note_on_c, 2, 58, 100
6, 139680, Note_on_c, 2, 58, 0
6, 139680, Note_on_c, 2, 62, 100
6, 140160, Note_on_c, 2, 62, 0
6, 140160, Note_on_c, 2, 61, 100
6, 140640, Note_on_c, 2, 61, 0
6, 140640, Note_on_c, 2, 59, 100
6, 141600, Note_on_c, 2, 59, 0
6, 141600, Note_on_c, 2, 58, 100
6, 142080, Note_on_c, 2, 58, 0
6, 142080, Note_on_c, 2, 59, 100
6, 142560, Note_on_c, 2, 59, 0
6, 142560, Note_on_c, 2, 61, 100
6, 143520, Note_on_c, 2, 61, 0
6, 143520, Note_on_c, 2, 62, 100
6, 144240, Note_on_c, 2, 62, 0
6, 144240, Note_on_c, 2, 64, 100
6, 144480, Note_on_c, 2, 64, 0
6, 144480, Note_on_c, 2, 66, 100
6, 144960, Note_on_c, 2, 66, 0
6, 144960, Note_on_c, 2, 59, 100
6, 145440, Note_on_c, 2, 59, 0
6, 145440, Note_on_c, 2, 47, 100
6, 145920, Note_on_c, 2, 47, 0
6, 145920, Note_on_c, 2, 54, 100
6, 146400, Note_on_c, 2, 54, 0
6, 146400, Note_on_c, 2, 66, 100
6, 147120, Note_on_c, 2, 66, 0
6, 147120, Note_on_c, 2, 65, 100
6, 147360, Note_on_c, 2, 65, 0
6, 147360, Note_on_c, 2, 66, 100
6, 147600, Note_on_c, 2, 66, 0
6, 147600, Note_on_c, 2, 62, 100
6, 148080, Note_on_c, 2, 62, 0
6, 148080, Note_on_c, 2, 53, 100
6, 148320, Note_on_c, 2, 53, 0
6, 148320, Note_on_c, 2, 54, 100
6, 148560, Note_on_c, 2, 54, 0
6, 148560, Note_on_c, 2, 50, 100
6, 148800, Note_on_c, 2, 50, 0
6, 148800, Note_on_c, 2, 49, 100
6, 149040, Note_on_c, 2, 49, 0
6, 149040, Note_on_c, 2, 61, 100
6, 149280, Note_on_c, 2, 61, 0
6, 149280, Note_on_c, 2, 57, 100
6, 149520, Note_on_c, 2, 57, 0
6, 149520, Note_on_c, 2, 54, 100
6, 149760, Note_on_c, 2, 54, 0
6, 149760, Note_on_c, 2, 59, 100
6, 150240, Note_on_c, 2, 59, 0
6, 150480, Note_on_c, 2, 56, 100
6, 150720, Note_on_c, 2, 56, 0
6, 150720, Note_on_c, 2, 61, 100
6, 151200, Note_on_c, 2, 61, 0
6, 151440, Note_on_c, 2, 57, 100
6, 151680, Note_on_c, 2, 57, 0
6, 151680, Note_on_c, 2, 62, 100
6, 151920, Note_on_c, 2, 62, 0
6, 151920, Note_on_c, 2, 59, 100
6, 152160, Note_on_c, 2, 59, 0
6, 152160, Note_on_c, 2, 61, 100
6, 152400, Note_on_c, 2, 61, 0
6, 152400, Note_on_c, 2, 49, 100
6, 152640, Note_on_c, 2, 49, 0
6, 152640, Note_on_c, 2, 42, 100
6, 152880, Note_on_c, 2, 42, 0
6, 152880, Note_on_c, 2, 54, 100
6, 153120, Note_on_c, 2, 54, 0
6, 153120, Note_on_c, 2, 52, 100
6, 153360, Note_on_c, 2, 52, 0
6, 153360, Note_on_c, 2, 50, 100
6, 153600, Note_on_c, 2, 50, 0
6, 153600, Note_on_c, 2, 49, 100
6, 154080, Note_on_c, 2, 49, 0
6, 154080, Note_on_c, 2, 45, 100
6, 154560, Note_on_c, 2, 45, 0
6, 154560, Note_on_c, 2, 50, 100
6, 154800, Note_on_c, 2, 50, 0
6, 154800, Note_on_c, 2, 55, 100
6, 155040, Note_on_c, 2, 55, 0
6, 155040, Note_on_c, 2, 54, 100
6, 155280, Note_on_c, 2, 54, 0
6, 155280, Note_on_c, 2, 52, 100
6, 155520, Note_on_c, 2, 52, 0
6, 155520, Note_on_c, 2, 54, 100
6, 156000, Note_on_c, 2, 54, 0
6, 156000, Note_on_c, 2, 42, 100
6, 156480, Note_on_c, 2, 42, 0
6, 156480, Note_on_c, 2, 47, 100
6, 156960, Note_on_c, 2, 47, 0
6, 156960, Note_on_c, 2, 50, 100
6, 157440, Note_on_c, 2, 50, 0
6, 157440, Note_on_c, 2, 49, 100
6, 157680, Note_on_c, 2, 49, 0
6, 157680, Note_on_c, 2, 55, 100
6, 157920, Note_on_c, 2, 55, 0
6, 157920, Note_on_c, 2, 54, 100
6, 158160, Note_on_c, 2, 54, 0
6, 158160, Note_on_c, 2, 47, 100
6, 158400, Note_on_c, 2, 47, 0
6, 158400, Note_on_c, 2, 46, 100
6, 158640, Note_on_c, 2, 46, 0
6, 158640, Note_on_c, 2, 52, 100
6, 158880, Note_on_c, 2, 52, 0
6, 158880, Note_on_c, 2, 50, 100
6, 159120, Note_on_c, 2, 50, 0
6, 159120, Note_on_c, 2, 47, 100
6, 159360, Note_on_c, 2, 47, 0
6, 159360, Note_on_c, 2, 49, 100
6, 159600, Note_on_c, 2, 49, 0
6, 159600, Note_on_c, 2, 42, 100
6, 159840, Note_on_c, 2, 42, 0
6, 160080, Note_on_c, 2, 42, 100
6, 160320, Note_on_c, 2, 42, 0
6, 160320, Note_on_c, 2, 43, 100
6, 160560, Note_on_c, 2, 43, 0
6, 160560, Note_on_c, 2, 51, 100
6, 160800, Note_on_c, 2, 51, 0
6, 160800, Note_on_c, 2, 52, 100
6, 161040, Note_on_c, 2, 52, 0
6, 161040, Note_on_c, 2, 44, 100
6, 161280, Note_on_c, 2, 44, 0
6, 161280, Note_on_c, 2, 45, 100
6, 161520, Note_on_c, 2, 45, 0
6, 161520, Note_on_c, 2, 53, 100
6, 161760, Note_on_c, 2, 53, 0
6, 161760, Note_on_c, 2, 54, 100
6, 162000, Note_on_c, 2, 54, 0
6, 162000, Note_on_c, 2, 46, 100
6, 162240, Note_on_c, 2, 46, 0
6, 162240, Note_on_c, 2, 47, 100
6, 162480, Note_on_c, 2, 47, 0
6, 162480, Note_on_c, 2, 52, 100
6, 162720, Note_on_c, 2, 52, 0
6, 162720, Note_on_c, 2, 50, 100
6, 162960, Note_on_c, 2, 50, 0
6, 162960, Note_on_c, 2, 49, 100
6, 163200, Note_on_c, 2, 49, 0
6, 163200, Note_on_c, 2, 47, 100
6, 163680, Note_on_c, 2, 47, 0
6, 163920, Note_on_c, 2, 59, 100
6, 164160, Note_on_c, 2, 59, 0
6, 164160, Note_on_c, 2, 61, 100
6, 164640, Note_on_c, 2, 61, 0
6, 164880, Note_on_c, 2, 49, 100
6, 165120, Note_on_c, 2, 49, 0
6, 165120, Note_on_c, 2, 50, 100
6, 165600, Note_on_c, 2, 50, 0
6, 165840, Note_on_c, 2, 42, 100
6, 166080, Note_on_c, 2, 42, 0
6, 166080, Note_on_c, 2, 43, 100
6, 166560, Note_on_c, 2, 43, 0
6, 166800, Note_on_c, 2, 56, 100
6, 167040, Note_on_c, 2, 56, 0
6, 167040, Note_on_c, 2, 57, 100
6, 167160, Note_on_c, 2, 57, 0
6, 167160, Note_on_c, 2, 56, 100
6, 167280, Note_on_c, 2, 56, 0
6, 167280, Note_on_c, 2, 54, 100
6, 167400, Note_on_c, 2, 54, 0
6, 167400, Note_on_c, 2, 56, 100
6, 167520, Note_on_c, 2, 56, 0
6, 167520, Note_on_c, 2, 57, 100
6, 167640, Note_on_c, 2, 57, 0
6, 167640, Note_on_c, 2, 59, 100
6, 167760, Note_on_c, 2, 59, 0
6, 167760, Note_on_c, 2, 61, 100
6, 167880, Note_on_c, 2, 61, 0
6, 167880, Note_on_c, 2, 57, 100
6, 168000, Note_on_c, 2, 57, 0
6, 168000, Note_on_c, 2, 59, 100
6, 168120, Note_on_c, 2, 59, 0
6, 168120, Note_on_c, 2, 57, 100
6, 168240, Note_on_c, 2, 57, 0
6, 168240, Note_on_c, 2, 56, 100
6, 168360, Note_on_c, 2, 56, 0
6, 168360, Note_on_c, 2, 57, 100
6, 168480, Note_on_c, 2, 57, 0
6, 168480, Note_on_c, 2, 59, 100
6, 168600, Note_on_c, 2, 59, 0
6, 168600, Note_on_c, 2, 61, 100
6, 168720, Note_on_c, 2, 61, 0
6, 168720, Note_on_c, 2, 62, 100
6, 168840, Note_on_c, 2, 62, 0
6, 168840, Note_on_c, 2, 59, 100
6, 168960, Note_on_c, 2, 59, 0
6, 168960, Note_on_c, 2, 61, 100
6, 169200, Note_on_c, 2, 61, 0
6, 169200, Note_on_c, 2, 53, 100
6, 169440, Note_on_c, 2, 53, 0
6, 169440, Note_on_c, 2, 54, 100
6, 169680, Note_on_c, 2, 54, 0
6, 169680, Note_on_c, 2, 56, 100
6, 169920, Note_on_c, 2, 56, 0
6, 169920, Note_on_c, 2, 57, 100
6, 170160, Note_on_c, 2, 57, 0
6, 170160, Note_on_c, 2, 54, 100
6, 170400, Note_on_c, 2, 54, 0
6, 170400, Note_on_c, 2, 66, 100
6, 171120, Note_on_c, 2, 66, 0
6, 171120, Note_on_c, 2, 65, 100
6, 171360, Note_on_c, 2, 65, 0
6, 171360, Note_on_c, 2, 66, 100
6, 171600, Note_on_c, 2, 66, 0
6, 171600, Note_on_c, 2, 62, 100
6, 172080, Note_on_c, 2, 62, 0
6, 172080, Note_on_c, 2, 53, 100
6, 172320, Note_on_c, 2, 53, 0
6, 172320, Note_on_c, 2, 54, 100
6, 172560, Note_on_c, 2, 54, 0
6, 172560, Note_on_c, 2, 50, 100
6, 172800, Note_on_c, 2, 50, 0
6, 172800, Note_on_c, 2, 49, 100
6, 173040, Note_on_c, 2, 49, 0
6, 173040, Note_on_c, 2, 47, 100
6, 173280, Note_on_c, 2, 47, 0
6, 173280, Note_on_c, 2, 45, 100
6, 173520, Note_on_c, 2, 45, 0
6, 173520, Note_on_c, 2, 42, 100
6, 173760, Note_on_c, 2, 42, 0
6, 173760, Note_on_c, 2, 47, 100
6, 174240, Note_on_c, 2, 47, 0
6, 174480, Note_on_c, 2, 44, 100
6, 174720, Note_on_c, 2, 44, 0
6, 174720, Note_on_c, 2, 49, 100
6, 175200, Note_on_c, 2, 49, 0
6, 175440, Note_on_c, 2, 45, 100
6, 175680, Note_on_c, 2, 45, 0
6, 175680, Note_on_c, 2, 50, 100
6, 175920, Note_on_c, 2, 50, 0
6, 175920, Note_on_c, 2, 47, 100
6, 176160, Note_on_c, 2, 47, 0
6, 176160, Note_on_c, 2, 49, 100
6, 176640, Note_on_c, 2, 49, 0
6, 176640, Note_on_c, 2, 42, 100
6, 176880, Note_on_c, 2, 42, 0
6, 176880, Note_on_c, 2, 54, 100
6, 177120, Note_on_c, 2, 54, 0
6, 177120, Note_on_c, 2, 50, 100
6, 177360, Note_on_c, 2, 50, 0
6, 177360, Note_on_c, 2, 49, 100
6, 177600, Note_on_c, 2, 49, 0
6, 177600, Note_on_c, 2, 47, 100
6, 177840, Note_on_c, 2, 47, 0
6, 177840, Note_on_c, 2, 45, 100
6, 178320, Note_on_c, 2, 45, 0
6, 178320, Note_on_c, 2, 47, 100
6, 178440, Note_on_c, 2, 47, 0
6, 178440, Note_on_c, 2, 49, 100
6, 178560, Note_on_c, 2, 49, 0
6, 178560, Note_on_c, 2, 50, 100
6, 178800, Note_on_c, 2, 50, 0
6, 178800, Note_on_c, 2, 62, 100
6, 179040, Note_on_c, 2, 62, 0
6, 179040, Note_on_c, 2, 61, 100
6, 179280, Note_on_c, 2, 61, 0
6, 179280, Note_on_c, 2, 59, 100
6, 179520, Note_on_c, 2, 59, 0
6, 179520, Note_on_c, 2, 58, 100
6, 179760, Note_on_c, 2, 58, 0
6, 179760, Note_on_c, 2, 54, 100
6, 180240, Note_on_c, 2, 54, 0
6, 180240, Note_on_c, 2, 56, 100
6, 180360, Note_on_c, 2, 56, 0
6, 180360, Note_on_c, 2, 58, 100
6, 180480, Note_on_c, 2, 58, 0
6, 180480, Note_on_c, 2, 59, 100
6, 180720, Note_on_c, 2, 59, 0
6, 180720, Note_on_c, 2, 47, 100
6, 180960, Note_on_c, 2, 47, 0
6, 180960, Note_on_c, 2, 45, 100
6, 181200, Note_on_c, 2, 45, 0
6, 181200, Note_on_c, 2, 43, 100
6, 181440, Note_on_c, 2, 43, 0
6, 181440, Note_on_c, 2, 42, 100
6, 181680, Note_on_c, 2, 42, 0
6, 181680, Note_on_c, 2, 38, 100
6, 182160, Note_on_c, 2, 38, 0
6, 182160, Note_on_c, 2, 40, 100
6, 182280, Note_on_c, 2, 40, 0
6, 182280, Note_on_c, 2, 42, 100
6, 182400, Note_on_c, 2, 42, 0
6, 182400, Note_on_c, 2, 43, 100
6, 182520, Note_on_c, 2, 43, 0
6, 182520, Note_on_c, 2, 42, 100
6, 182640, Note_on_c, 2, 42, 0
6, 182640, Note_on_c, 2, 40, 100
6, 183120, Note_on_c, 2, 40, 0
6, 183120, Note_on_c, 2, 42, 100
6, 183240, Note_on_c, 2, 42, 0
6, 183240, Note_on_c, 2, 43, 100
6, 183360, Note_on_c, 2, 43, 0
6, 183360, Note_on_c, 2, 45, 100
6, 183480, Note_on_c, 2, 45, 0
6, 183480, Note_on_c, 2, 43, 100
6, 183600, Note_on_c, 2, 43, 0
6, 183600, Note_on_c, 2, 42, 100
6, 184080, Note_on_c, 2, 42, 0
6, 184080, Note_on_c, 2, 43, 100
6, 184200, Note_on_c, 2, 43, 0
6, 184200, Note_on_c, 2, 45, 100
6, 184320, Note_on_c, 2, 45, 0
6, 184320, Note_on_c, 2, 47, 100
6, 184440, Note_on_c, 2, 47, 0
6, 184440, Note_on_c, 2, 45, 100
6, 184560, Note_on_c, 2, 45, 0
6, 184560, Note_on_c, 2, 43, 100
6, 185040, Note_on_c, 2, 43, 0
6, 185040, Note_on_c, 2, 45, 100
6, 185160, Note_on_c, 2, 45, 0
6, 185160, Note_on_c, 2, 47, 100
6, 185280, Note_on_c, 2, 47, 0
6, 185280, Note_on_c, 2, 48, 100
6, 186240, Note_on_c, 2, 48, 0
6, 186240, Note_on_c, 2, 47, 100
6, 186720, Note_on_c, 2, 47, 0
6, 187200, Note_on_c, 2, 52, 100
6, 187680, Note_on_c, 2, 52, 0
6, 187680, Note_on_c, 2, 55, 100
6, 188160, Note_on_c, 2, 55, 0
6, 188160, Note_on_c, 2, 54, 100
6, 188400, Note_on_c, 2, 54, 0
6, 188400, Note_on_c, 2, 60, 100
6, 188640, Note_on_c, 2, 60, 0
6, 188640, Note_on_c, 2, 59, 100
6, 188880, Note_on_c, 2, 59, 0
6, 188880, Note_on_c, 2, 52, 100
6, 189120, Note_on_c, 2, 52, 0
6, 189120, Note_on_c, 2, 51, 100
6, 189360, Note_on_c, 2, 51, 0
6, 189360, Note_on_c, 2, 57, 100
6, 189600, Note_on_c, 2, 57, 0
6, 189600, Note_on_c, 2, 55, 100
6, 189840, Note_on_c, 2, 55, 0
6, 189840, Note_on_c, 2, 52, 100
6, 190080, Note_on_c, 2, 52, 0
6, 190080, Note_on_c, 2, 54, 100
6, 190320, Note_on_c, 2, 54, 0
6, 190320, Note_on_c, 2, 47, 100
6, 190560, Note_on_c, 2, 47, 0
6, 190800, Note_on_c, 2, 47, 100
6, 191040, Note_on_c, 2, 47, 0
6, 191040, Note_on_c, 2, 48, 100
6, 191280, Note_on_c, 2, 48, 0
6, 191280, Note_on_c, 2, 56, 100
6, 191520, Note_on_c, 2, 56, 0
6, 191520, Note_on_c, 2, 57, 100
6, 191760, Note_on_c, 2, 57, 0
6, 191760, Note_on_c, 2, 49, 100
6, 192000, Note_on_c, 2, 49, 0
6, 192000, Note_on_c, 2, 50, 100
6, 192240, Note_on_c, 2, 50, 0
6, 192240, Note_on_c, 2, 58, 100
6, 192480, Note_on_c, 2, 58, 0
6, 192480, Note_on_c, 2, 59, 100
6, 192720, Note_on_c, 2, 59, 0
6, 192720, Note_on_c, 2, 51, 100
6, 192960, Note_on_c, 2, 51, 0
6, 192960, Note_on_c, 2, 52, 100
6, 193200, Note_on_c, 2, 52, 0
6, 193200, Note_on_c, 2, 57, 100
6, 193440, Note_on_c, 2, 57, 0
6, 193440, Note_on_c, 2, 55, 100
6, 193680, Note_on_c, 2, 55, 0
6, 193680, Note_on_c, 2, 54, 100
6, 193920, Note_on_c, 2, 54, 0
6, 193920, Note_on_c, 2, 52, 100
6, 194400, Note_on_c, 2, 52, 0
6, 194640, Note_on_c, 2, 40, 100
6, 194880, Note_on_c, 2, 40, 0
6, 194880, Note_on_c, 2, 42, 100
6, 195360, Note_on_c, 2, 42, 0
6, 195600, Note_on_c, 2, 54, 100
6, 195840, Note_on_c, 2, 54, 0
6, 195840, Note_on_c, 2, 55, 100
6, 196320, Note_on_c, 2, 55, 0
6, 196560, Note_on_c, 2, 47, 100
6, 196800, Note_on_c, 2, 47, 0
6, 196800, Note_on_c, 2, 48, 100
6, 197280, Note_on_c, 2, 48, 0
6, 197520, Note_on_c, 2, 49, 100
6, 197760, Note_on_c, 2, 49, 0
6, 197760, Note_on_c, 2, 50, 100
6, 197880, Note_on_c, 2, 50, 0
6, 197880, Note_on_c, 2, 49, 100
6, 198000, Note_on_c, 2, 49, 0
6, 198000, Note_on_c, 2, 47, 100
6, 198120, Note_on_c, 2, 47, 0
6, 198120, Note_on_c, 2, 49, 100
6, 198240, Note_on_c, 2, 49, 0
6, 198240, Note_on_c, 2, 50, 100
6, 198360, Note_on_c, 2, 50, 0
6, 198360, Note_on_c, 2, 52, 100
6, 198480, Note_on_c, 2, 52, 0
6, 198480, Note_on_c, 2, 54, 100
6, 198600, Note_on_c, 2, 54, 0
6, 198600, Note_on_c, 2, 50, 100
6, 198720, Note_on_c, 2, 50, 0
6, 198720, Note_on_c, 2, 52, 100
6, 198840, Note_on_c, 2, 52, 0
6, 198840, Note_on_c, 2, 50, 100
6, 198960, Note_on_c, 2, 50, 0
6, 198960, Note_on_c, 2, 49, 100
6, 199080, Note_on_c, 2, 49, 0
6, 199080, Note_on_c, 2, 50, 100
6, 199200, Note_on_c, 2, 50, 0
6, 199200, Note_on_c, 2, 52, 100
6, 199320, Note_on_c, 2, 52, 0
6, 199320, Note_on_c, 2, 54, 100
6, 199440, Note_on_c, 2, 54, 0
6, 199440, Note_on_c, 2, 55, 100
6, 199560, Note_on_c, 2, 55, 0
6, 199560, Note_on_c, 2, 52, 100
6, 199680, Note_on_c, 2, 52, 0
6, 199680, Note_on_c, 2, 54, 100
6, 199920, Note_on_c, 2, 54, 0
6, 199920, Note_on_c, 2, 46, 100
6, 200160, Note_on_c, 2, 46, 0
6, 200160, Note_on_c, 2, 47, 100
6, 200400, Note_on_c, 2, 47, 0
6, 200400, Note_on_c, 2, 49, 100
6, 200640, Note_on_c, 2, 49, 0
6, 200640, Note_on_c, 2, 50, 100
6, 200880, Note_on_c, 2, 50, 0
6, 200880, Note_on_c, 2, 47, 100
6, 201120, Note_on_c, 2, 47, 0
6, 201120, Note_on_c, 2, 59, 100
6, 201840, Note_on_c, 2, 59, 0
6, 201840, Note_on_c, 2, 58, 100
6, 202080, Note_on_c, 2, 58, 0
6, 202080, Note_on_c, 2, 59, 100
6, 202320, Note_on_c, 2, 59, 0
6, 202320, Note_on_c, 2, 55, 100
6, 202800, Note_on_c, 2, 55, 0
6, 202800, Note_on_c, 2, 46, 100
6, 203040, Note_on_c, 2, 46, 0
6, 203040, Note_on_c, 2, 47, 100
6, 203280, Note_on_c, 2, 47, 0
6, 203280, Note_on_c, 2, 43, 100
6, 203520, Note_on_c, 2, 43, 0
6, 203520, Note_on_c, 2, 42, 100
6, 203760, Note_on_c, 2, 42, 0
6, 203760, Note_on_c, 2, 52, 100
6, 204000, Note_on_c, 2, 52, 0
6, 204000, Note_on_c, 2, 50, 100
6, 204240, Note_on_c, 2, 50, 0
6, 204240, Note_on_c, 2, 47, 100
6, 204480, Note_on_c, 2, 47, 0
6, 204480, Note_on_c, 2, 52, 100
6, 204960, Note_on_c, 2, 52, 0
6, 205200, Note_on_c, 2, 49, 100
6, 205440, Note_on_c, 2, 49, 0
6, 205440, Note_on_c, 2, 54, 100
6, 205920, Note_on_c, 2, 54, 0
6, 206160, Note_on_c, 2, 50, 100
6, 206400, Note_on_c, 2, 50, 0
6, 206400, Note_on_c, 2, 55, 100
6, 206640, Note_on_c, 2, 55, 0
6, 206640, Note_on_c, 2, 52, 100
6, 206880, Note_on_c, 2, 52, 0
6, 206880, Note_on_c, 2, 54, 100
6, 207120, Note_on_c, 2, 54, 0
6, 207120, Note_on_c, 2, 42, 100
6, 207360, Note_on_c, 2, 42, 0
6, 207360, Note_on_c, 2, 47, 100
6, 207600, Note_on_c, 2, 47, 0
6, 207600, Note_on_c, 2, 59, 100
6, 207840, Note_on_c, 2, 59, 0
6, 207840, Note_on_c, 2, 57, 100
6, 208080, Note_on_c, 2, 57, 0
6, 208080, Note_on_c, 2, 55, 100
6, 208320, Note_on_c, 2, 55, 0
6, 208320, Note_on_c, 2, 54, 100
6, 208560, Note_on_c, 2, 54, 0
6, 208560, Note_on_c, 2, 50, 100
6, 209040, Note_on_c, 2, 50, 0
6, 209040, Note_on_c, 2, 52, 100
6, 209160, Note_on_c, 2, 52, 0
6, 209160, Note_on_c, 2, 54, 100
6, 209280, Note_on_c, 2, 54, 0
6, 209280, Note_on_c, 2, 43, 100
6, 209520, Note_on_c, 2, 43, 0
6, 209520, Note_on_c, 2, 55, 100
6, 209760, Note_on_c, 2, 55, 0
6, 209760, Note_on_c, 2, 54, 100
6, 210000, Note_on_c, 2, 54, 0
6, 210000, Note_on_c, 2, 52, 100
6, 210240, Note_on_c, 2, 52, 0
6, 210240, Note_on_c, 2, 51, 100
6, 210480, Note_on_c, 2, 51, 0
6, 210480, Note_on_c, 2, 47, 100
6, 210960, Note_on_c, 2, 47, 0
6, 210960, Note_on_c, 2, 49, 100
6, 211080, Note_on_c, 2, 49, 0
6, 211080, Note_on_c, 2, 51, 100
6, 211200, Note_on_c, 2, 51, 0
6, 211200, Note_on_c, 2, 40, 100
6, 211440, Note_on_c, 2, 40, 0
6, 211440, Note_on_c, 2, 50, 100
6, 211680, Note_on_c, 2, 50, 0
6, 211680, Note_on_c, 2, 49, 100
6, 211920, Note_on_c, 2, 49, 0
6, 211920, Note_on_c, 2, 47, 100
6, 212160, Note_on_c, 2, 47, 0
6, 212160, Note_on_c, 2, 46, 100
6, 212400, Note_on_c, 2, 46, 0
6, 212400, Note_on_c, 2, 54, 100
6, 212520, Note_on_c, 2, 54, 0
6, 212520, Note_on_c, 2, 56, 100
6, 212640, Note_on_c, 2, 56, 0
6, 212640, Note_on_c, 2, 58, 100
6, 212760, Note_on_c, 2, 58, 0
6, 212760, Note_on_c, 2, 59, 100
6, 212880, Note_on_c, 2, 59, 0
6, 212880, Note_on_c, 2, 61, 100
6, 213000, Note_on_c, 2, 61, 0
6, 213000, Note_on_c, 2, 58, 100
6, 213120, Note_on_c, 2, 58, 0
6, 213120, Note_on_c, 2, 59, 100
6, 213360, Note_on_c, 2, 59, 0
6, 213360, Note_on_c, 2, 47, 100
6, 213840, Note_on_c, 2, 47, 0
6, 213840, Note_on_c, 2, 49, 100
6, 213960, Note_on_c, 2, 49, 0
6, 213960, Note_on_c, 2, 50, 100
6, 214080, Note_on_c, 2, 50, 0
6, 214080, Note_on_c, 2, 52, 100
6, 214200, Note_on_c, 2, 52, 0
6, 214200, Note_on_c, 2, 50, 100
6, 214320, Note_on_c, 2, 50, 0
6, 214320, Note_on_c, 2, 49, 100
6, 214800, Note_on_c, 2, 49, 0
6, 214800, Note_on_c, 2, 50, 100
6, 214920, Note_on_c, 2, 50, 0
6, 214920, Note_on_c, 2, 52, 100
6, 215040, Note_on_c, 2, 52, 0
6, 215040, Note_on_c, 2, 54, 100
6, 215160, Note_on_c, 2, 54, 0
6, 215160, Note_on_c, 2, 52, 100
6, 215280, Note_on_c, 2, 52, 0
6, 215280, Note_on_c, 2, 50, 100
6, 215760, Note_on_c, 2, 50, 0
6, 215760, Note_on_c, 2, 52, 100
6, 215880, Note_on_c, 2, 52, 0
6, 215880, Note_on_c, 2, 54, 100
6, 216000, Note_on_c, 2, 54, 0
6, 216000, Note_on_c, 2, 55, 100
6, 216960, Note_on_c, 2, 55, 0
6, 216960, Note_on_c, 2, 54, 100
6, 217920, Note_on_c, 2, 54, 0
6, 218642, Note_on_c, 2, 59, 100
6, 218760, Note_on_c, 2, 59, 0
6, 218822, Note_on_c, 2, 58, 100
6, 218940, Note_on_c, 2, 58, 0
6, 219002, Note_on_c, 2, 59, 100
6, 219120, Note_on_c, 2, 59, 0
6, 219182, Note_on_c, 2, 47, 100
6, 219300, Note_on_c, 2, 47, 0
6, 219361, Note_on_c, 2, 49, 100
6, 219479, Note_on_c, 2, 49, 0
6, 219541, Note_on_c, 2, 61, 100
6, 219659, Note_on_c, 2, 61, 0
6, 219721, Note_on_c, 2, 62, 100
6, 219839, Note_on_c, 2, 62, 0
6, 219901, Note_on_c, 2, 59, 100
6, 220019, Note_on_c, 2, 59, 0
6, 220081, Note_on_c, 2, 52, 100
6, 220199, Note_on_c, 2, 52, 0
6, 220261, Note_on_c, 2, 50, 100
6, 220379, Note_on_c, 2, 50, 0
6, 220441, Note_on_c, 2, 55, 100
6, 220559, Note_on_c, 2, 55, 0
6, 220621, Note_on_c, 2, 54, 100
6, 220739, Note_on_c, 2, 54, 0
6, 220800, Note_on_c, 2, 52, 100
6, 220918, Note_on_c, 2, 52, 0
6, 220980, Note_on_c, 2, 49, 100
6, 221098, Note_on_c, 2, 49, 0
6, 221160, Note_on_c, 2, 54, 100
6, 221278, Note_on_c, 2, 54, 0
6, 221340, Note_on_c, 2, 58, 100
6, 221458, Note_on_c, 2, 58, 0
6, 221523, Note_on_c, 2, 59, 100
6, 221641, Note_on_c, 2, 59, 0
6, 221703, Note_on_c, 2, 54, 100
6, 221821, Note_on_c, 2, 54, 0
6, 221883, Note_on_c, 2, 47, 100
6, 222001, Note_on_c, 2, 47, 0
6, 222003, Note_on_c, 2, 50, 100
6, 222061, Note_on_c, 2, 50, 0
6, 222063, Note_on_c, 2, 54, 100
6, 222181, Note_on_c, 2, 54, 0
6, 222183, Note_on_c, 2, 59, 100
6, 222240, Note_on_c, 2, 59, 0
6, 222241, Note_on_c, 2, 49, 100
6, 222359, Note_on_c, 2, 49, 0
6, 222361, Note_on_c, 2, 52, 100
6, 222419, Note_on_c, 2, 52, 0
6, 222421, Note_on_c, 2, 58, 100
6, 222539, Note_on_c, 2, 58, 0
6, 222541, Note_on_c, 2, 61, 100
6, 222599, Note_on_c, 2, 61, 0
6, 222601, Note_on_c, 2, 50, 100
6, 222719, Note_on_c, 2, 50, 0
6, 222721, Note_on_c, 2, 54, 100
6, 222779, Note_on_c, 2, 54, 0
6, 222781, Note_on_c, 2, 59, 100
6, 222899, Note_on_c, 2, 59, 0
6, 222901, Note_on_c, 2, 62, 100
6, 222959, Note_on_c, 2, 62, 0
6, 222961, Note_on_c, 2, 52, 100
6, 223079, Note_on_c, 2, 52, 0
6, 223141, Note_on_c, 2, 50, 100
6, 223259, Note_on_c, 2, 50, 0
6, 223321, Note_on_c, 2, 55, 100
6, 223439, Note_on_c, 2, 55, 0
6, 223501, Note_on_c, 2, 54, 100
6, 223619, Note_on_c, 2, 54, 0
6, 223680, Note_on_c, 2, 55, 100
6, 223798, Note_on_c, 2, 55, 0
6, 223860, Note_on_c, 2, 43, 100
6, 223978, Note_on_c, 2, 43, 0
6, 224040, Note_on_c, 2, 42, 100
6, 224158, Note_on_c, 2, 42, 0
6, 224220, Note_on_c, 2, 46, 100
6, 224338, Note_on_c, 2, 46, 0
6, 224404, Note_on_c, 2, 47, 100
6, 224522, Note_on_c, 2, 47, 0
6, 224584, Note_on_c, 2, 50, 100
6, 224702, Note_on_c, 2, 50, 0
6, 224764, Note_on_c, 2, 52, 100
6, 224882, Note_on_c, 2, 52, 0
6, 224944, Note_on_c, 2, 55, 100
6, 225062, Note_on_c, 2, 55, 0
6, 225121, Note_on_c, 2, 45, 100
6, 225239, Note_on_c, 2, 45, 0
6, 225301, Note_on_c, 2, 49, 100
6, 225419, Note_on_c, 2, 49, 0
6, 225481, Note_on_c, 2, 50, 100
6, 225599, Note_on_c, 2, 50, 0
6, 225661, Note_on_c, 2, 54, 100
6, 225779, Note_on_c, 2, 54, 0
6, 225840, Note_on_c, 2, 55, 100
6, 226080, Note_on_c, 2, 55, 0
6, 226080, Note_on_c, 2, 54, 100
6, 226138, Note_on_c, 2, 54, 0
6, 226140, Note_on_c, 2, 52, 100
6, 226198, Note_on_c, 2, 52, 0
6, 226200, Note_on_c, 2, 54, 100
6, 226440, Note_on_c, 2, 54, 0
6, 226440, Note_on_c, 2, 52, 100
6, 226500, Note_on_c, 2, 52, 0
6, 226500, Note_on_c, 2, 50, 100
6, 226560, Note_on_c, 2, 50, 0
6, 226564, Note_on_c, 2, 59, 100
6, 226802, Note_on_c, 2, 59, 0
6, 226804, Note_on_c, 2, 57, 100
6, 226862, Note_on_c, 2, 57, 0
6, 226864, Note_on_c, 2, 55, 100
6, 226922, Note_on_c, 2, 55, 0
6, 226924, Note_on_c, 2, 57, 100
6, 227162, Note_on_c, 2, 57, 0
6, 227164, Note_on_c, 2, 55, 100
6, 227222, Note_on_c, 2, 55, 0
6, 227224, Note_on_c, 2, 54, 100
6, 227280, Note_on_c, 2, 54, 0
6, 227281, Note_on_c, 2, 55, 100
6, 227399, Note_on_c, 2, 55, 0
6, 227461, Note_on_c, 2, 52, 100
6, 227579, Note_on_c, 2, 52, 0
6, 227641, Note_on_c, 2, 57, 100
6, 227759, Note_on_c, 2, 57, 0
6, 227821, Note_on_c, 2, 61, 100
6, 227939, Note_on_c, 2, 61, 0
6, 228001, Note_on_c, 2, 62, 100
6, 228119, Note_on_c, 2, 62, 0
6, 228121, Note_on_c, 2, 54, 100
6, 228179, Note_on_c, 2, 54, 0
6, 228181, Note_on_c, 2, 57, 100
6, 228299, Note_on_c, 2, 57, 0
6, 228301, Note_on_c, 2, 45, 100
6, 228359, Note_on_c, 2, 45, 0
6, 228361, Note_on_c, 2, 50, 100
6, 228599, Note_on_c, 2, 50, 0
6, 228601, Note_on_c, 2, 45, 100
6, 228659, Note_on_c, 2, 45, 0
6, 228661, Note_on_c, 2, 50, 100
6, 228719, Note_on_c, 2, 50, 0
6, 228960, Note_on_c, 2, 54, 100
6, 229078, Note_on_c, 2, 54, 0
6, 229140, Note_on_c, 2, 50, 100
6, 229258, Note_on_c, 2, 50, 0
6, 229320, Note_on_c, 2, 43, 100
6, 229443, Note_on_c, 2, 43, 0
6, 229444, Note_on_c, 2, 56, 100
6, 229562, Note_on_c, 2, 56, 0
6, 229624, Note_on_c, 2, 52, 100
6, 229742, Note_on_c, 2, 52, 0
6, 229804, Note_on_c, 2, 45, 100
6, 230042, Note_on_c, 2, 45, 0
6, 230044, Note_on_c, 2, 57, 100
6, 230102, Note_on_c, 2, 57, 0
6, 230104, Note_on_c, 2, 56, 100
6, 230160, Note_on_c, 2, 56, 0
6, 230161, Note_on_c, 2, 58, 100
6, 230279, Note_on_c, 2, 58, 0
6, 230341, Note_on_c, 2, 54, 100
6, 230459, Note_on_c, 2, 54, 0
6, 230521, Note_on_c, 2, 47, 100
6, 230759, Note_on_c, 2, 47, 0
6, 230761, Note_on_c, 2, 59, 100
6, 230819, Note_on_c, 2, 59, 0
6, 230821, Note_on_c, 2, 58, 100
6, 230879, Note_on_c, 2, 58, 0
6, 230880, Note_on_c, 2, 59, 100
6, 231180, Note_on_c, 2, 59, 0
6, 231180, Note_on_c, 2, 47, 100
6, 231240, Note_on_c, 2, 47, 0
6, 231240, Note_on_c, 2, 59, 100
6, 231480, Note_on_c, 2, 59, 0
6, 231480, Note_on_c, 2, 57, 100
6, 231540, Note_on_c, 2, 57, 0
6, 231540, Note_on_c, 2, 56, 100
6, 231600, Note_on_c, 2, 56, 0
6, 231604, Note_on_c, 2, 57, 100
6, 231722, Note_on_c, 2, 57, 0
6, 231784, Note_on_c, 2, 53, 100
6, 231902, Note_on_c, 2, 53, 0
6, 231964, Note_on_c, 2, 54, 100
6, 232082, Note_on_c, 2, 54, 0
6, 232144, Note_on_c, 2, 42, 100
6, 232262, Note_on_c, 2, 42, 0
6, 232321, Note_on_c, 2, 44, 100
6, 232439, Note_on_c, 2, 44, 0
6, 232501, Note_on_c, 2, 49, 100
6, 232619, Note_on_c, 2, 49, 0
6, 232681, Note_on_c, 2, 45, 100
6, 232799, Note_on_c, 2, 45, 0
6, 232861, Note_on_c, 2, 42, 100
6, 232979, Note_on_c, 2, 42, 0
6, 233040, Note_on_c, 2, 47, 100
6, 233160, Note_on_c, 2, 47, 0
6, 233220, Note_on_c, 2, 49, 100
6, 233338, Note_on_c, 2, 49, 0
6, 233400, Note_on_c, 2, 45, 100
6, 233518, Note_on_c, 2, 45, 0
6, 233580, Note_on_c, 2, 50, 100
6, 233698, Note_on_c, 2, 50, 0
6, 233764, Note_on_c, 2, 47, 100
6, 233882, Note_on_c, 2, 47, 0
6, 233944, Note_on_c, 2, 44, 100
6, 234062, Note_on_c, 2, 44, 0
6, 234124, Note_on_c, 2, 49, 100
6, 234242, Note_on_c, 2, 49, 0
6, 234304, Note_on_c, 2, 53, 100
6, 234422, Note_on_c, 2, 53, 0
6, 234481, Note_on_c, 2, 54, 100
6, 234599, Note_on_c, 2, 54, 0
6, 234661, Note_on_c, 2, 49, 100
6, 234779, Note_on_c, 2, 49, 0
6, 234841, Note_on_c, 2, 42, 100
6, 234959, Note_on_c, 2, 42, 0
6, 235141, Note_on_c, 2, 54, 100
6, 235199, Note_on_c, 2, 54, 0
6, 235200, Note_on_c, 2, 56, 100
6, 235320, Note_on_c, 2, 56, 0
6, 235320, Note_on_c, 2, 59, 100
6, 235380, Note_on_c, 2, 59, 0
6, 235380, Note_on_c, 2, 52, 100
6, 235498, Note_on_c, 2, 52, 0
6, 235500, Note_on_c, 2, 56, 100
6, 235560, Note_on_c, 2, 56, 0
6, 235560, Note_on_c, 2, 57, 100
6, 235678, Note_on_c, 2, 57, 0
6, 235740, Note_on_c, 2, 54, 100
6, 235858, Note_on_c, 2, 54, 0
6, 235924, Note_on_c, 2, 59, 100
6, 236042, Note_on_c, 2, 59, 0
6, 236104, Note_on_c, 2, 61, 100
6, 236222, Note_on_c, 2, 61, 0
6, 236284, Note_on_c, 2, 62, 100
6, 236402, Note_on_c, 2, 62, 0
6, 236464, Note_on_c, 2, 61, 100
6, 236582, Note_on_c, 2, 61, 0
6, 236641, Note_on_c, 2, 59, 100
6, 236759, Note_on_c, 2, 59, 0
6, 236821, Note_on_c, 2, 62, 100
6, 236939, Note_on_c, 2, 62, 0
6, 237001, Note_on_c, 2, 61, 100
6, 237119, Note_on_c, 2, 61, 0
6, 237181, Note_on_c, 2, 53, 100
6, 237299, Note_on_c, 2, 53, 0
6, 237360, Note_on_c, 2, 54, 100
6, 237478, Note_on_c, 2, 54, 0
6, 237540, Note_on_c, 2, 57, 100
6, 237658, Note_on_c, 2, 57, 0
6, 237720, Note_on_c, 2, 59, 100
6, 237838, Note_on_c, 2, 59, 0
6, 237900, Note_on_c, 2, 50, 100
6, 238018, Note_on_c, 2, 50, 0
6, 238084, Note_on_c, 2, 52, 100
6, 238202, Note_on_c, 2, 52, 0
6, 238264, Note_on_c, 2, 56, 100
6, 238382, Note_on_c, 2, 56, 0
6, 238444, Note_on_c, 2, 57, 100
6, 238562, Note_on_c, 2, 57, 0
6, 238564, Note_on_c, 2, 52, 100
6, 238622, Note_on_c, 2, 52, 0
6, 238624, Note_on_c, 2, 61, 100
6, 238859, Note_on_c, 2, 61, 0
6, 238861, Note_on_c, 2, 59, 100
6, 238919, Note_on_c, 2, 59, 0
6, 238921, Note_on_c, 2, 57, 100
6, 238979, Note_on_c, 2, 57, 0
6, 238981, Note_on_c, 2, 59, 100
6, 239039, Note_on_c, 2, 59, 0
6, 239041, Note_on_c, 2, 57, 100
6, 239099, Note_on_c, 2, 57, 0
6, 239101, Note_on_c, 2, 56, 100
6, 239159, Note_on_c, 2, 56, 0
6, 239161, Note_on_c, 2, 57, 100
6, 239399, Note_on_c, 2, 57, 0
6, 239401, Note_on_c, 2, 56, 100
6, 239459, Note_on_c, 2, 56, 0
6, 239461, Note_on_c, 2, 54, 100
6, 239519, Note_on_c, 2, 54, 0
6, 239520, Note_on_c, 2, 62, 100
6, 239760, Note_on_c, 2, 62, 0
6, 239760, Note_on_c, 2, 61, 100
6, 239818, Note_on_c, 2, 61, 0
6, 239820, Note_on_c, 2, 59, 100
6, 239878, Note_on_c, 2, 59, 0
6, 239880, Note_on_c, 2, 61, 100
6, 240120, Note_on_c, 2, 61, 0
6, 240120, Note_on_c, 2, 59, 100
6, 240180, Note_on_c, 2, 59, 0
6, 240180, Note_on_c, 2, 57, 100
6, 240240, Note_on_c, 2, 57, 0
6, 240244, Note_on_c, 2, 59, 100
6, 240362, Note_on_c, 2, 59, 0
6, 240540, Note_on_c, 2, 60, 100
6, 240598, Note_on_c, 2, 60, 0
6, 240604, Note_on_c, 2, 61, 100
6, 240722, Note_on_c, 2, 61, 0
6, 240904, Note_on_c, 2, 53, 100
6, 240960, Note_on_c, 2, 53, 0
6, 240961, Note_on_c, 2, 54, 100
6, 241079, Note_on_c, 2, 54, 0
6, 241081, Note_on_c, 2, 45, 100
6, 241139, Note_on_c, 2, 45, 0
6, 241141, Note_on_c, 2, 49, 100
6, 241259, Note_on_c, 2, 49, 0
6, 241261, Note_on_c, 2, 37, 100
6, 241319, Note_on_c, 2, 37, 0
6, 241321, Note_on_c, 2, 42, 100
6, 241619, Note_on_c, 2, 42, 0
6, 241682, Note_on_c, 2, 59, 100
6, 241800, Note_on_c, 2, 59, 0
6, 241862, Note_on_c, 2, 58, 100
6, 241980, Note_on_c, 2, 58, 0
6, 242042, Note_on_c, 2, 59, 100
6, 242160, Note_on_c, 2, 59, 0
6, 242222, Note_on_c, 2, 47, 100
6, 242340, Note_on_c, 2, 47, 0
6, 242401, Note_on_c, 2, 49, 100
6, 242519, Note_on_c, 2, 49, 0
6, 242581, Note_on_c, 2, 61, 100
6, 242699, Note_on_c, 2, 61, 0
6, 242761, Note_on_c, 2, 62, 100
6, 242879, Note_on_c, 2, 62, 0
6, 242941, Note_on_c, 2, 59, 100
6, 243059, Note_on_c, 2, 59, 0
6, 243121, Note_on_c, 2, 52, 100
6, 243239, Note_on_c, 2, 52, 0
6, 243301, Note_on_c, 2, 50, 100
6, 243419, Note_on_c, 2, 50, 0
6, 243481, Note_on_c, 2, 55, 100
6, 243599, Note_on_c, 2, 55, 0
6, 243661, Note_on_c, 2, 54, 100
6, 243779, Note_on_c, 2, 54, 0
6, 243840, Note_on_c, 2, 52, 100
6, 243958, Note_on_c, 2, 52, 0
6, 244020, Note_on_c, 2, 49, 100
6, 244138, Note_on_c, 2, 49, 0
6, 244200, Note_on_c, 2, 54, 100
6, 244318, Note_on_c, 2, 54, 0
6, 244380, Note_on_c, 2, 58, 100
6, 244498, Note_on_c, 2, 58, 0
6, 244563, Note_on_c, 2, 59, 100
6, 244681, Note_on_c, 2, 59, 0
6, 244743, Note_on_c, 2, 54, 100
6, 244861, Note_on_c, 2, 54, 0
6, 244923, Note_on_c, 2, 47, 100
6, 245041, Note_on_c, 2, 47, 0
6, 245043, Note_on_c, 2, 50, 100
6, 245101, Note_on_c, 2, 50, 0
6, 245103, Note_on_c, 2, 54, 100
6, 245221, Note_on_c, 2, 54, 0
6, 245223, Note_on_c, 2, 59, 100
6, 245280, Note_on_c, 2, 59, 0
6, 245281, Note_on_c, 2, 49, 100
6, 245399, Note_on_c, 2, 49, 0
6, 245401, Note_on_c, 2, 52, 100
6, 245459, Note_on_c, 2, 52, 0
6, 245461, Note_on_c, 2, 58, 100
6, 245579, Note_on_c, 2, 58, 0
6, 245581, Note_on_c, 2, 61, 100
6, 245639, Note_on_c, 2, 61, 0
6, 245641, Note_on_c, 2, 50, 100
6, 245759, Note_on_c, 2, 50, 0
6, 245761, Note_on_c, 2, 54, 100
6, 245819, Note_on_c, 2, 54, 0
6, 245821, Note_on_c, 2, 59, 100
6, 245939, Note_on_c, 2, 59, 0
6, 245941, Note_on_c, 2, 62, 100
6, 245999, Note_on_c, 2, 62, 0
6, 246001, Note_on_c, 2, 52, 100
6, 246119, Note_on_c, 2, 52, 0
6, 246181, Note_on_c, 2, 50, 100
6, 246299, Note_on_c, 2, 50, 0
6, 246361, Note_on_c, 2, 55, 100
6, 246479, Note_on_c, 2, 55, 0
6, 246541, Note_on_c, 2, 54, 100
6, 246659, Note_on_c, 2, 54, 0
6, 246720, Note_on_c, 2, 55, 100
6, 246838, Note_on_c, 2, 55, 0
6, 246900, Note_on_c, 2, 43, 100
6, 247018, Note_on_c, 2, 43, 0
6, 247080, Note_on_c, 2, 42, 100
6, 247198, Note_on_c, 2, 42, 0
6, 247260, Note_on_c, 2, 46, 100
6, 247378, Note_on_c, 2, 46, 0
6, 247444, Note_on_c, 2, 47, 100
6, 247562, Note_on_c, 2, 47, 0
6, 247624, Note_on_c, 2, 50, 100
6, 247742, Note_on_c, 2, 50, 0
6, 247804, Note_on_c, 2, 52, 100
6, 247922, Note_on_c, 2, 52, 0
6, 247984, Note_on_c, 2, 55, 100
6, 248102, Note_on_c, 2, 55, 0
6, 248161, Note_on_c, 2, 45, 100
6, 248279, Note_on_c, 2, 45, 0
6, 248341, Note_on_c, 2, 49, 100
6, 248459, Note_on_c, 2, 49, 0
6, 248521, Note_on_c, 2, 50, 100
6, 248639, Note_on_c, 2, 50, 0
6, 248701, Note_on_c, 2, 54, 100
6, 248819, Note_on_c, 2, 54, 0
6, 248880, Note_on_c, 2, 55, 100
6, 249120, Note_on_c, 2, 55, 0
6, 249120, Note_on_c, 2, 54, 100
6, 249178, Note_on_c, 2, 54, 0
6, 249180, Note_on_c, 2, 52, 100
6, 249238, Note_on_c, 2, 52, 0
6, 249240, Note_on_c, 2, 54, 100
6, 249480, Note_on_c, 2, 54, 0
6, 249480, Note_on_c, 2, 52, 100
6, 249540, Note_on_c, 2, 52, 0
6, 249540, Note_on_c, 2, 50, 100
6, 249600, Note_on_c, 2, 50, 0
6, 249604, Note_on_c, 2, 59, 100
6, 249842, Note_on_c, 2, 59, 0
6, 249844, Note_on_c, 2, 57, 100
6, 249902, Note_on_c, 2, 57, 0
6, 249904, Note_on_c, 2, 55, 100
6, 249962, Note_on_c, 2, 55, 0
6, 249964, Note_on_c, 2, 57, 100
6, 250202, Note_on_c, 2, 57, 0
6, 250204, Note_on_c, 2, 55, 100
6, 250262, Note_on_c, 2, 55, 0
6, 250264, Note_on_c, 2, 54, 100
6, 250320, Note_on_c, 2, 54, 0
6, 250321, Note_on_c, 2, 55, 100
6, 250439, Note_on_c, 2, 55, 0
6, 250501, Note_on_c, 2, 52, 100
6, 250619, Note_on_c, 2, 52, 0
6, 250681, Note_on_c, 2, 57, 100
6, 250799, Note_on_c, 2, 57, 0
6, 250861, Note_on_c, 2, 61, 100
6, 250979, Note_on_c, 2, 61, 0
6, 251041, Note_on_c, 2, 62, 100
6, 251159, Note_on_c, 2, 62, 0
6, 251161, Note_on_c, 2, 54, 100
6, 251219, Note_on_c, 2, 54, 0
6, 251221, Note_on_c, 2, 57, 100
6, 251339, Note_on_c, 2, 57, 0
6, 251341, Note_on_c, 2, 45, 100
6, 251399, Note_on_c, 2, 45, 0
6, 251401, Note_on_c, 2, 50, 100
6, 251639, Note_on_c, 2, 50, 0
6, 251641, Note_on_c, 2, 45, 100
6, 251699, Note_on_c, 2, 45, 0
6, 251701, Note_on_c, 2, 50, 100
6, 251759, Note_on_c, 2, 50, 0
6, 252000, Note_on_c, 2, 54, 100
6, 252118, Note_on_c, 2, 54, 0
6, 252180, Note_on_c, 2, 50, 100
6, 252298, Note_on_c, 2, 50, 0
6, 252360, Note_on_c, 2, 43, 100
6, 252483, Note_on_c, 2, 43, 0
6, 252484, Note_on_c, 2, 56, 100
6, 252602, Note_on_c, 2, 56, 0
6, 252664, Note_on_c, 2, 52, 100
6, 252782, Note_on_c, 2, 52, 0
6, 252844, Note_on_c, 2, 45, 100
6, 253082, Note_on_c, 2, 45, 0
6, 253084, Note_on_c, 2, 57, 100
6, 253142, Note_on_c, 2, 57, 0
6, 253144, Note_on_c, 2, 56, 100
6, 253200, Note_on_c, 2, 56, 0
6, 253201, Note_on_c, 2, 58, 100
6, 253319, Note_on_c, 2, 58, 0
6, 253381, Note_on_c, 2, 54, 100
6, 253499, Note_on_c, 2, 54, 0
6, 253561, Note_on_c, 2, 47, 100
6, 253799, Note_on_c, 2, 47, 0
6, 253801, Note_on_c, 2, 59, 100
6, 253859, Note_on_c, 2, 59, 0
6, 253861, Note_on_c, 2, 58, 100
6, 253919, Note_on_c, 2, 58, 0
6, 253920, Note_on_c, 2, 59, 100
6, 254220, Note_on_c, 2, 59, 0
6, 254220, Note_on_c, 2, 47, 100
6, 254280, Note_on_c, 2, 47, 0
6, 254280, Note_on_c, 2, 59, 100
6, 254520, Note_on_c, 2, 59, 0
6, 254520, Note_on_c, 2, 57, 100
6, 254580, Note_on_c, 2, 57, 0
6, 254580, Note_on_c, 2, 56, 100
6, 254640, Note_on_c, 2, 56, 0
6, 254644, Note_on_c, 2, 57, 100
6, 254762, Note_on_c, 2, 57, 0
6, 254824, Note_on_c, 2, 53, 100
6, 254942, Note_on_c, 2, 53, 0
6, 255004, Note_on_c, 2, 54, 100
6, 255122, Note_on_c, 2, 54, 0
6, 255184, Note_on_c, 2, 42, 100
6, 255302, Note_on_c, 2, 42, 0
6, 255361, Note_on_c, 2, 44, 100
6, 255479, Note_on_c, 2, 44, 0
6, 255541, Note_on_c, 2, 49, 100
6, 255659, Note_on_c, 2, 49, 0
6, 255721, Note_on_c, 2, 45, 100
6, 255839, Note_on_c, 2, 45, 0
6, 255901, Note_on_c, 2, 42, 100
6, 256019, Note_on_c, 2, 42, 0
6, 256080, Note_on_c, 2, 47, 100
6, 256200, Note_on_c, 2, 47, 0
6, 256260, Note_on_c, 2, 49, 100
6, 256378, Note_on_c, 2, 49, 0
6, 256440, Note_on_c, 2, 45, 100
6, 256558, Note_on_c, 2, 45, 0
6, 256620, Note_on_c, 2, 50, 100
6, 256738, Note_on_c, 2, 50, 0
6, 256804, Note_on_c, 2, 47, 100
6, 256922, Note_on_c, 2, 47, 0
6, 256984, Note_on_c, 2, 44, 100
6, 257102, Note_on_c, 2, 44, 0
6, 257164, Note_on_c, 2, 49, 100
6, 257282, Note_on_c, 2, 49, 0
6, 257344, Note_on_c, 2, 53, 100
6, 257462, Note_on_c, 2, 53, 0
6, 257521, Note_on_c, 2, 54, 100
6, 257639, Note_on_c, 2, 54, 0
6, 257701, Note_on_c, 2, 49, 100
6, 257819, Note_on_c, 2, 49, 0
6, 257881, Note_on_c, 2, 42, 100
6, 257999, Note_on_c, 2, 42, 0
6, 258181, Note_on_c, 2, 54, 100
6, 258239, Note_on_c, 2, 54, 0
6, 258240, Note_on_c, 2, 56, 100
6, 258360, Note_on_c, 2, 56, 0
6, 258360, Note_on_c, 2, 59, 100
6, 258420, Note_on_c, 2, 59, 0
6, 258420, Note_on_c, 2, 52, 100
6, 258538, Note_on_c, 2, 52, 0
6, 258540, Note_on_c, 2, 56, 100
6, 258600, Note_on_c, 2, 56, 0
6, 258600, Note_on_c, 2, 57, 100
6, 258718, Note_on_c, 2, 57, 0
6, 258780, Note_on_c, 2, 54, 100
6, 258898, Note_on_c, 2, 54, 0
6, 258964, Note_on_c, 2, 59, 100
6, 259082, Note_on_c, 2, 59, 0
6, 259144, Note_on_c, 2, 61, 100
6, 259262, Note_on_c, 2, 61, 0
6, 259324, Note_on_c, 2, 62, 100
6, 259442, Note_on_c, 2, 62, 0
6, 259504, Note_on_c, 2, 61, 100
6, 259622, Note_on_c, 2, 61, 0
6, 259681, Note_on_c, 2, 59, 100
6, 259799, Note_on_c, 2, 59, 0
6, 259861, Note_on_c, 2, 62, 100
6, 259979, Note_on_c, 2, 62, 0
6, 260041, Note_on_c, 2, 61, 100
6, 260159, Note_on_c, 2, 61, 0
6, 260221, Note_on_c, 2, 53, 100
6, 260339, Note_on_c, 2, 53, 0
6, 260400, Note_on_c, 2, 54, 100
6, 260518, Note_on_c, 2, 54, 0
6, 260580, Note_on_c, 2, 57, 100
6, 260698, Note_on_c, 2, 57, 0
6, 260760, Note_on_c, 2, 59, 100
6, 260878, Note_on_c, 2, 59, 0
6, 260940, Note_on_c, 2, 50, 100
6, 261058, Note_on_c, 2, 50, 0
6, 261124, Note_on_c, 2, 52, 100
6, 261242, Note_on_c, 2, 52, 0
6, 261304, Note_on_c, 2, 56, 100
6, 261422, Note_on_c, 2, 56, 0
6, 261484, Note_on_c, 2, 57, 100
6, 261602, Note_on_c, 2, 57, 0
6, 261604, Note_on_c, 2, 52, 100
6, 261662, Note_on_c, 2, 52, 0
6, 261664, Note_on_c, 2, 61, 100
6, 261899, Note_on_c, 2, 61, 0
6, 261901, Note_on_c, 2, 59, 100
6, 261959, Note_on_c, 2, 59, 0
6, 261961, Note_on_c, 2, 57, 100
6, 262019, Note_on_c, 2, 57, 0
6, 262021, Note_on_c, 2, 59, 100
6, 262079, Note_on_c, 2, 59, 0
6, 262081, Note_on_c, 2, 57, 100
6, 262139, Note_on_c, 2, 57, 0
6, 262141, Note_on_c, 2, 56, 100
6, 262199, Note_on_c, 2, 56, 0
6, 262201, Note_on_c, 2, 57, 100
6, 262439, Note_on_c, 2, 57, 0
6, 262441, Note_on_c, 2, 56, 100
6, 262499, Note_on_c, 2, 56, 0
6, 262501, Note_on_c, 2, 54, 100
6, 262559, Note_on_c, 2, 54, 0
6, 262560, Note_on_c, 2, 62, 100
6, 262800, Note_on_c, 2, 62, 0
6, 262800, Note_on_c, 2, 61, 100
6, 262858, Note_on_c, 2, 61, 0
6, 262860, Note_on_c, 2, 59, 100
6, 262918, Note_on_c, 2, 59, 0
6, 262920, Note_on_c, 2, 61, 100
6, 263160, Note_on_c, 2, 61, 0
6, 263160, Note_on_c, 2, 59, 100
6, 263220, Note_on_c, 2, 59, 0
6, 263220, Note_on_c, 2, 57, 100
6, 263280, Note_on_c, 2, 57, 0
6, 263284, Note_on_c, 2, 59, 100
6, 263402, Note_on_c, 2, 59, 0
6, 263580, Note_on_c, 2, 60, 100
6, 263638, Note_on_c, 2, 60, 0
6, 263644, Note_on_c, 2, 61, 100
6, 263762, Note_on_c, 2, 61, 0
6, 263944, Note_on_c, 2, 53, 100
6, 264000, Note_on_c, 2, 53, 0
6, 264001, Note_on_c, 2, 54, 100
6, 264119, Note_on_c, 2, 54, 0
6, 264121, Note_on_c, 2, 45, 100
6, 264179, Note_on_c, 2, 45, 0
6, 264181, Note_on_c, 2, 49, 100
6, 264299, Note_on_c, 2, 49, 0
6, 264301, Note_on_c, 2, 37, 100
6, 264359, Note_on_c, 2, 37, 0
6, 264361, Note_on_c, 2, 42, 100
6, 264659, Note_on_c, 2, 42, 0
6, 264722, Note_on_c, 2, 54, 100
6, 264780, Note_on_c, 2, 54, 0
6, 264782, Note_on_c, 2, 58, 100
6, 264840, Note_on_c, 2, 58, 0
6, 264842, Note_on_c, 2, 61, 100
6, 264900, Note_on_c, 2, 61, 0
6, 264902, Note_on_c, 2, 54, 100
6, 265020, Note_on_c, 2, 54, 0
6, 265082, Note_on_c, 2, 54, 100
6, 265140, Note_on_c, 2, 54, 0
6, 265142, Note_on_c, 2, 58, 100
6, 265200, Note_on_c, 2, 58, 0
6, 265202, Note_on_c, 2, 59, 100
6, 265260, Note_on_c, 2, 59, 0
6, 265262, Note_on_c, 2, 54, 100
6, 265380, Note_on_c, 2, 54, 0
6, 265441, Note_on_c, 2, 54, 100
6, 265499, Note_on_c, 2, 54, 0
6, 265501, Note_on_c, 2, 58, 100
6, 265559, Note_on_c, 2, 58, 0
6, 265561, Note_on_c, 2, 61, 100
6, 265619, Note_on_c, 2, 61, 0
6, 265621, Note_on_c, 2, 54, 100
6, 265739, Note_on_c, 2, 54, 0
6, 265741, Note_on_c, 2, 42, 100
6, 265799, Note_on_c, 2, 42, 0
6, 265801, Note_on_c, 2, 47, 100
6, 265919, Note_on_c, 2, 47, 0
6, 266161, Note_on_c, 2, 47, 100
6, 266219, Note_on_c, 2, 47, 0
6, 266221, Note_on_c, 2, 51, 100
6, 266279, Note_on_c, 2, 51, 0
6, 266281, Note_on_c, 2, 54, 100
6, 266339, Note_on_c, 2, 54, 0
6, 266341, Note_on_c, 2, 47, 100
6, 266459, Note_on_c, 2, 47, 0
6, 266521, Note_on_c, 2, 47, 100
6, 266579, Note_on_c, 2, 47, 0
6, 266581, Note_on_c, 2, 51, 100
6, 266639, Note_on_c, 2, 51, 0
6, 266641, Note_on_c, 2, 52, 100
6, 266699, Note_on_c, 2, 52, 0
6, 266701, Note_on_c, 2, 47, 100
6, 266819, Note_on_c, 2, 47, 0
6, 266880, Note_on_c, 2, 47, 100
6, 266940, Note_on_c, 2, 47, 0
6, 266940, Note_on_c, 2, 51, 100
6, 267000, Note_on_c, 2, 51, 0
6, 267000, Note_on_c, 2, 54, 100
6, 267060, Note_on_c, 2, 54, 0
6, 267060, Note_on_c, 2, 47, 100
6, 267180, Note_on_c, 2, 47, 0
6, 267180, Note_on_c, 2, 59, 100
6, 267238, Note_on_c, 2, 59, 0
6, 267240, Note_on_c, 2, 52, 100
6, 267358, Note_on_c, 2, 52, 0
6, 267360, Note_on_c, 2, 54, 100
6, 267418, Note_on_c, 2, 54, 0
6, 267420, Note_on_c, 2, 55, 100
6, 267538, Note_on_c, 2, 55, 0
6, 267540, Note_on_c, 2, 52, 100
6, 267598, Note_on_c, 2, 52, 0
6, 267604, Note_on_c, 2, 57, 100
6, 267722, Note_on_c, 2, 57, 0
6, 267784, Note_on_c, 2, 59, 100
6, 267902, Note_on_c, 2, 59, 0
6, 267964, Note_on_c, 2, 60, 100
6, 268082, Note_on_c, 2, 60, 0
6, 268144, Note_on_c, 2, 51, 100
6, 268262, Note_on_c, 2, 51, 0
6, 268321, Note_on_c, 2, 52, 100
6, 268439, Note_on_c, 2, 52, 0
6, 268501, Note_on_c, 2, 48, 100
6, 268619, Note_on_c, 2, 48, 0
6, 268681, Note_on_c, 2, 54, 100
6, 268681, Note_on_c, 2, 47, 100
6, 268739, Note_on_c, 2, 47, 0
6, 268741, Note_on_c, 2, 51, 100
6, 268799, Note_on_c, 2, 51, 0
6, 268799, Note_on_c, 2, 54, 0
6, 268801, Note_on_c, 2, 54, 100
6, 268859, Note_on_c, 2, 54, 0
6, 268861, Note_on_c, 2, 57, 100
6, 268919, Note_on_c, 2, 57, 0
6, 268921, Note_on_c, 2, 55, 100
6, 268979, Note_on_c, 2, 55, 0
6, 268981, Note_on_c, 2, 54, 100
6, 269039, Note_on_c, 2, 54, 0
6, 269040, Note_on_c, 2, 55, 100
6, 269160, Note_on_c, 2, 55, 0
6, 269220, Note_on_c, 2, 51, 100
6, 269338, Note_on_c, 2, 51, 0
6, 269400, Note_on_c, 2, 52, 100
6, 269518, Note_on_c, 2, 52, 0
6, 269580, Note_on_c, 2, 40, 100
6, 269698, Note_on_c, 2, 40, 0
6, 269764, Note_on_c, 2, 42, 100
6, 269882, Note_on_c, 2, 42, 0
6, 269944, Note_on_c, 2, 54, 100
6, 270062, Note_on_c, 2, 54, 0
6, 270124, Note_on_c, 2, 55, 100
6, 270242, Note_on_c, 2, 55, 0
6, 270304, Note_on_c, 2, 56, 100
6, 270422, Note_on_c, 2, 56, 0
6, 270481, Note_on_c, 2, 57, 100
6, 270599, Note_on_c, 2, 57, 0
6, 270661, Note_on_c, 2, 52, 100
6, 270779, Note_on_c, 2, 52, 0
6, 270841, Note_on_c, 2, 48, 100
6, 270959, Note_on_c, 2, 48, 0
6, 271021, Note_on_c, 2, 50, 100
6, 271139, Note_on_c, 2, 50, 0
6, 271200, Note_on_c, 2, 55, 100
6, 271320, Note_on_c, 2, 55, 0
6, 271380, Note_on_c, 2, 50, 100
6, 271498, Note_on_c, 2, 50, 0
6, 271560, Note_on_c, 2, 47, 100
6, 271678, Note_on_c, 2, 47, 0
6, 271680, Note_on_c, 2, 55, 100
6, 271740, Note_on_c, 2, 55, 0
6, 271740, Note_on_c, 2, 57, 100
6, 271858, Note_on_c, 2, 57, 0
6, 271860, Note_on_c, 2, 59, 100
6, 271920, Note_on_c, 2, 59, 0
6, 271924, Note_on_c, 2, 48, 100
6, 272042, Note_on_c, 2, 48, 0
6, 272104, Note_on_c, 2, 50, 100
6, 272222, Note_on_c, 2, 50, 0
6, 272284, Note_on_c, 2, 52, 100
6, 272402, Note_on_c, 2, 52, 0
6, 272464, Note_on_c, 2, 54, 100
6, 272582, Note_on_c, 2, 54, 0
6, 272641, Note_on_c, 2, 43, 100
6, 272759, Note_on_c, 2, 43, 0
6, 272821, Note_on_c, 2, 45, 100
6, 272939, Note_on_c, 2, 45, 0
6, 273001, Note_on_c, 2, 47, 100
6, 273059, Note_on_c, 2, 47, 0
6, 273061, Note_on_c, 2, 50, 100
6, 273119, Note_on_c, 2, 50, 0
6, 273121, Note_on_c, 2, 54, 100
6, 273179, Note_on_c, 2, 54, 0
6, 273181, Note_on_c, 2, 57, 100
6, 273239, Note_on_c, 2, 57, 0
6, 273241, Note_on_c, 2, 55, 100
6, 273299, Note_on_c, 2, 55, 0
6, 273301, Note_on_c, 2, 54, 100
6, 273359, Note_on_c, 2, 54, 0
6, 273361, Note_on_c, 2, 52, 100
6, 273479, Note_on_c, 2, 52, 0
6, 273541, Note_on_c, 2, 54, 100
6, 273659, Note_on_c, 2, 54, 0
6, 273721, Note_on_c, 2, 55, 100
6, 273839, Note_on_c, 2, 55, 0
6, 273901, Note_on_c, 2, 43, 100
6, 274019, Note_on_c, 2, 43, 0
6, 274080, Note_on_c, 2, 45, 100
6, 274200, Note_on_c, 2, 45, 0
6, 274260, Note_on_c, 2, 57, 100
6, 274378, Note_on_c, 2, 57, 0
6, 274440, Note_on_c, 2, 59, 100
6, 274558, Note_on_c, 2, 59, 0
6, 274620, Note_on_c, 2, 55, 100
6, 274738, Note_on_c, 2, 55, 0
6, 274804, Note_on_c, 2, 60, 100
6, 274922, Note_on_c, 2, 60, 0
6, 274984, Note_on_c, 2, 55, 100
6, 275102, Note_on_c, 2, 55, 0
6, 275164, Note_on_c, 2, 57, 100
6, 275282, Note_on_c, 2, 57, 0
6, 275344, Note_on_c, 2, 52, 100
6, 275462, Note_on_c, 2, 52, 0
6, 275521, Note_on_c, 2, 54, 100
6, 275639, Note_on_c, 2, 54, 0
6, 275701, Note_on_c, 2, 55, 100
6, 275819, Note_on_c, 2, 55, 0
6, 275881, Note_on_c, 2, 46, 100
6, 275999, Note_on_c, 2, 46, 0
6, 276001, Note_on_c, 2, 49, 100
6, 276059, Note_on_c, 2, 49, 0
6, 276061, Note_on_c, 2, 46, 100
6, 276179, Note_on_c, 2, 46, 0
6, 276181, Note_on_c, 2, 42, 100
6, 276239, Note_on_c, 2, 42, 0
6, 276241, Note_on_c, 2, 47, 100
6, 276299, Note_on_c, 2, 47, 0
6, 276301, Note_on_c, 2, 51, 100
6, 276359, Note_on_c, 2, 51, 0
6, 276361, Note_on_c, 2, 54, 100
6, 276419, Note_on_c, 2, 54, 0
6, 276421, Note_on_c, 2, 47, 100
6, 276539, Note_on_c, 2, 47, 0
6, 276601, Note_on_c, 2, 47, 100
6, 276659, Note_on_c, 2, 47, 0
6, 276661, Note_on_c, 2, 51, 100
6, 276719, Note_on_c, 2, 51, 0
6, 276721, Note_on_c, 2, 52, 100
6, 276779, Note_on_c, 2, 52, 0
6, 276781, Note_on_c, 2, 47, 100
6, 276899, Note_on_c, 2, 47, 0
6, 276960, Note_on_c, 2, 47, 100
6, 277020, Note_on_c, 2, 47, 0
6, 277020, Note_on_c, 2, 51, 100
6, 277078, Note_on_c, 2, 51, 0
6, 277080, Note_on_c, 2, 54, 100
6, 277138, Note_on_c, 2, 54, 0
6, 277140, Note_on_c, 2, 59, 100
6, 277258, Note_on_c, 2, 59, 0
6, 277260, Note_on_c, 2, 47, 100
6, 277320, Note_on_c, 2, 47, 0
6, 277320, Note_on_c, 2, 52, 100
6, 277438, Note_on_c, 2, 52, 0
6, 277440, Note_on_c, 2, 50, 100
6, 277498, Note_on_c, 2, 50, 0
6, 277500, Note_on_c, 2, 49, 100
6, 277620, Note_on_c, 2, 49, 0
6, 277620, Note_on_c, 2, 52, 100
6, 277680, Note_on_c, 2, 52, 0
6, 277684, Note_on_c, 2, 54, 100
6, 277742, Note_on_c, 2, 54, 0
6, 277744, Note_on_c, 2, 58, 100
6, 277802, Note_on_c, 2, 58, 0
6, 277804, Note_on_c, 2, 61, 100
6, 277862, Note_on_c, 2, 61, 0
6, 277864, Note_on_c, 2, 54, 100
6, 277982, Note_on_c, 2, 54, 0
6, 278044, Note_on_c, 2, 54, 100
6, 278102, Note_on_c, 2, 54, 0
6, 278104, Note_on_c, 2, 58, 100
6, 278162, Note_on_c, 2, 58, 0
6, 278164, Note_on_c, 2, 59, 100
6, 278222, Note_on_c, 2, 59, 0
6, 278224, Note_on_c, 2, 54, 100
6, 278342, Note_on_c, 2, 54, 0
6, 278401, Note_on_c, 2, 54, 100
6, 278459, Note_on_c, 2, 54, 0
6, 278461, Note_on_c, 2, 58, 100
6, 278519, Note_on_c, 2, 58, 0
6, 278521, Note_on_c, 2, 61, 100
6, 278579, Note_on_c, 2, 61, 0
6, 278581, Note_on_c, 2, 54, 100
6, 278699, Note_on_c, 2, 54, 0
6, 278701, Note_on_c, 2, 42, 100
6, 278759, Note_on_c, 2, 42, 0
6, 278761, Note_on_c, 2, 47, 100
6, 278879, Note_on_c, 2, 47, 0
6, 278881, Note_on_c, 2, 45, 100
6, 278939, Note_on_c, 2, 45, 0
6, 278941, Note_on_c, 2, 43, 100
6, 279059, Note_on_c, 2, 43, 0
6, 279061, Note_on_c, 2, 42, 100
6, 279119, Note_on_c, 2, 42, 0
6, 279120, Note_on_c, 2, 40, 100
6, 279238, Note_on_c, 2, 40, 0
6, 279300, Note_on_c, 2, 43, 100
6, 279418, Note_on_c, 2, 43, 0
6, 279480, Note_on_c, 2, 45, 100
6, 279598, Note_on_c, 2, 45, 0
6, 279660, Note_on_c, 2, 49, 100
6, 279778, Note_on_c, 2, 49, 0
6, 279844, Note_on_c, 2, 38, 100
6, 279962, Note_on_c, 2, 38, 0
6, 280024, Note_on_c, 2, 42, 100
6, 280142, Note_on_c, 2, 42, 0
6, 280204, Note_on_c, 2, 43, 100
6, 280322, Note_on_c, 2, 43, 0
6, 280384, Note_on_c, 2, 47, 100
6, 280502, Note_on_c, 2, 47, 0
6, 280561, Note_on_c, 2, 49, 100
6, 280679, Note_on_c, 2, 49, 0
6, 280741, Note_on_c, 2, 52, 100
6, 280859, Note_on_c, 2, 52, 0
6, 280921, Note_on_c, 2, 54, 100
6, 281039, Note_on_c, 2, 54, 0
6, 281041, Note_on_c, 2, 42, 100
6, 281099, Note_on_c, 2, 42, 0
6, 281101, Note_on_c, 2, 46, 100
6, 281219, Note_on_c, 2, 46, 0
6, 281221, Note_on_c, 2, 49, 100
6, 281279, Note_on_c, 2, 49, 0
6, 281280, Note_on_c, 2, 50, 100
6, 281398, Note_on_c, 2, 50, 0
6, 281400, Note_on_c, 2, 42, 100
6, 281458, Note_on_c, 2, 42, 0
6, 281460, Note_on_c, 2, 47, 100
6, 281578, Note_on_c, 2, 47, 0
6, 281580, Note_on_c, 2, 50, 100
6, 281638, Note_on_c, 2, 50, 0
6, 281640, Note_on_c, 2, 54, 100
6, 281869, Note_on_c, 2, 54, 0
6, 281880, Note_on_c, 2, 49, 100
6, 281938, Note_on_c, 2, 49, 0
6, 281940, Note_on_c, 2, 45, 100
6, 281998, Note_on_c, 2, 45, 0
6, 282004, Note_on_c, 2, 42, 100
6, 282242, Note_on_c, 2, 42, 0
6, 282244, Note_on_c, 2, 47, 100
6, 282302, Note_on_c, 2, 47, 0
6, 282304, Note_on_c, 2, 50, 100
6, 282362, Note_on_c, 2, 50, 0
6, 282364, Note_on_c, 2, 54, 100
6, 282422, Note_on_c, 2, 54, 0
6, 282424, Note_on_c, 2, 53, 100
6, 282482, Note_on_c, 2, 53, 0
6, 282484, Note_on_c, 2, 54, 100
6, 282542, Note_on_c, 2, 54, 0
6, 282544, Note_on_c, 2, 42, 100
6, 282602, Note_on_c, 2, 42, 0
6, 282604, Note_on_c, 2, 46, 100
6, 282662, Note_on_c, 2, 46, 0
6, 282664, Note_on_c, 2, 49, 100
6, 282720, Note_on_c, 2, 49, 0
6, 282721, Note_on_c, 2, 54, 100
6, 282779, Note_on_c, 2, 54, 0
6, 282781, Note_on_c, 2, 53, 100
6, 282839, Note_on_c, 2, 53, 0
6, 282841, Note_on_c, 2, 54, 100
6, 282899, Note_on_c, 2, 54, 0
6, 282901, Note_on_c, 2, 42, 100
6, 282959, Note_on_c, 2, 42, 0
6, 282961, Note_on_c, 2, 47, 100
6, 283019, Note_on_c, 2, 47, 0
6, 283021, Note_on_c, 2, 50, 100
6, 283079, Note_on_c, 2, 50, 0
6, 283081, Note_on_c, 2, 54, 100
6, 283139, Note_on_c, 2, 54, 0
6, 283141, Note_on_c, 2, 53, 100
6, 283199, Note_on_c, 2, 53, 0
6, 283201, Note_on_c, 2, 54, 100
6, 283259, Note_on_c, 2, 54, 0
6, 283261, Note_on_c, 2, 42, 100
6, 283319, Note_on_c, 2, 42, 0
6, 283321, Note_on_c, 2, 46, 100
6, 283379, Note_on_c, 2, 46, 0
6, 283381, Note_on_c, 2, 49, 100
6, 283439, Note_on_c, 2, 49, 0
6, 283440, Note_on_c, 2, 54, 100
6, 283500, Note_on_c, 2, 54, 0
6, 283500, Note_on_c, 2, 52, 100
6, 283560, Note_on_c, 2, 52, 0
6, 283560, Note_on_c, 2, 54, 100
6, 283620, Note_on_c, 2, 54, 0
6, 283620, Note_on_c, 2, 42, 100
6, 283680, Note_on_c, 2, 42, 0
6, 283680, Note_on_c, 2, 45, 100
6, 283738, Note_on_c, 2, 45, 0
6, 283740, Note_on_c, 2, 49, 100
6, 283798, Note_on_c, 2, 49, 0
6, 283800, Note_on_c, 2, 54, 100
6, 283858, Note_on_c, 2, 54, 0
6, 283860, Note_on_c, 2, 52, 100
6, 283918, Note_on_c, 2, 52, 0
6, 283920, Note_on_c, 2, 54, 100
6, 283978, Note_on_c, 2, 54, 0
6, 283980, Note_on_c, 2, 42, 100
6, 284038, Note_on_c, 2, 42, 0
6, 284040, Note_on_c, 2, 45, 100
6, 284098, Note_on_c, 2, 45, 0
6, 284100, Note_on_c, 2, 49, 100
6, 284158, Note_on_c, 2, 49, 0
6, 284165, Note_on_c, 2, 54, 100
6, 284223, Note_on_c, 2, 54, 0
6, 284225, Note_on_c, 2, 53, 100
6, 284283, Note_on_c, 2, 53, 0
6, 284285, Note_on_c, 2, 54, 100
6, 284343, Note_on_c, 2, 54, 0
6, 284345, Note_on_c, 2, 42, 100
6, 284403, Note_on_c, 2, 42, 0
6, 284405, Note_on_c, 2, 47, 100
6, 284463, Note_on_c, 2, 47, 0
6, 284465, Note_on_c, 2, 50, 100
6, 284523, Note_on_c, 2, 50, 0
6, 284525, Note_on_c, 2, 54, 100
6, 284583, Note_on_c, 2, 54, 0
6, 284585, Note_on_c, 2, 52, 100
6, 284643, Note_on_c, 2, 52, 0
6, 284645, Note_on_c, 2, 54, 100
6, 284703, Note_on_c, 2, 54, 0
6, 284705, Note_on_c, 2, 42, 100
6, 284763, Note_on_c, 2, 42, 0
6, 284765, Note_on_c, 2, 47, 100
6, 284823, Note_on_c, 2, 47, 0
6, 284825, Note_on_c, 2, 51, 100
6, 284880, Note_on_c, 2, 51, 0
6, 284881, Note_on_c, 2, 52, 100
6, 285119, Note_on_c, 2, 52, 0
6, 285121, Note_on_c, 2, 50, 100
6, 285179, Note_on_c, 2, 50, 0
6, 285181, Note_on_c, 2, 49, 100
6, 285239, Note_on_c, 2, 49, 0
6, 285241, Note_on_c, 2, 50, 100
6, 285479, Note_on_c, 2, 50, 0
6, 285481, Note_on_c, 2, 49, 100
6, 285539, Note_on_c, 2, 49, 0
6, 285541, Note_on_c, 2, 47, 100
6, 285599, Note_on_c, 2, 47, 0
6, 285600, Note_on_c, 2, 55, 100
6, 285838, Note_on_c, 2, 55, 0
6, 285840, Note_on_c, 2, 54, 100
6, 285898, Note_on_c, 2, 54, 0
6, 285900, Note_on_c, 2, 52, 100
6, 285958, Note_on_c, 2, 52, 0
6, 285960, Note_on_c, 2, 54, 100
6, 286200, Note_on_c, 2, 54, 0
6, 286200, Note_on_c, 2, 52, 100
6, 286260, Note_on_c, 2, 52, 0
6, 286260, Note_on_c, 2, 50, 100
6, 286320, Note_on_c, 2, 50, 0
6, 286324, Note_on_c, 2, 52, 100
6, 286442, Note_on_c, 2, 52, 0
6, 286504, Note_on_c, 2, 49, 100
6, 286622, Note_on_c, 2, 49, 0
6, 286684, Note_on_c, 2, 54, 100
6, 286802, Note_on_c, 2, 54, 0
6, 286864, Note_on_c, 2, 46, 100
6, 286982, Note_on_c, 2, 46, 0
6, 287041, Note_on_c, 2, 47, 100
6, 287159, Note_on_c, 2, 47, 0
6, 287161, Note_on_c, 2, 50, 100
6, 287219, Note_on_c, 2, 50, 0
6, 287221, Note_on_c, 2, 54, 100
6, 287339, Note_on_c, 2, 54, 0
6, 287341, Note_on_c, 2, 42, 100
6, 287399, Note_on_c, 2, 42, 0
6, 287401, Note_on_c, 2, 47, 100
6, 287459, Note_on_c, 2, 47, 0
6, 287461, Note_on_c, 2, 42, 100
6, 287519, Note_on_c, 2, 42, 0
6, 287521, Note_on_c, 2, 38, 100
6, 287579, Note_on_c, 2, 38, 0
6, 287581, Note_on_c, 2, 35, 100
6, 287699, Note_on_c, 2, 35, 0
6, 287762, Note_on_c, 2, 54, 100
6, 287820, Note_on_c, 2, 54, 0
6, 287822, Note_on_c, 2, 58, 100
6, 287880, Note_on_c, 2, 58, 0
6, 287882, Note_on_c, 2, 61, 100
6, 287940, Note_on_c, 2, 61, 0
6, 287942, Note_on_c, 2, 54, 100
6, 288060, Note_on_c, 2, 54, 0
6, 288122, Note_on_c, 2, 54, 100
6, 288180, Note_on_c, 2, 54, 0
6, 288182, Note_on_c, 2, 58, 100
6, 288240, Note_on_c, 2, 58, 0
6, 288242, Note_on_c, 2, 59, 100
6, 288300, Note_on_c, 2, 59, 0
6, 288302, Note_on_c, 2, 54, 100
6, 288420, Note_on_c, 2, 54, 0
6, 288481, Note_on_c, 2, 54, 100
6, 288539, Note_on_c, 2, 54, 0
6, 288541, Note_on_c, 2, 58, 100
6, 288599, Note_on_c, 2, 58, 0
6, 288601, Note_on_c, 2, 61, 100
6, 288659, Note_on_c, 2, 61, 0
6, 288661, Note_on_c, 2, 54, 100
6, 288779, Note_on_c, 2, 54, 0
6, 288781, Note_on_c, 2, 42, 100
6, 288839, Note_on_c, 2, 42, 0
6, 288841, Note_on_c, 2, 47, 100
6, 288959, Note_on_c, 2, 47, 0
6, 289201, Note_on_c, 2, 47, 100
6, 289259, Note_on_c, 2, 47, 0
6, 289261, Note_on_c, 2, 51, 100
6, 289319, Note_on_c, 2, 51, 0
6, 289321, Note_on_c, 2, 54, 100
6, 289379, Note_on_c, 2, 54, 0
6, 289381, Note_on_c, 2, 47, 100
6, 289499, Note_on_c, 2, 47, 0
6, 289561, Note_on_c, 2, 47, 100
6, 289619, Note_on_c, 2, 47, 0
6, 289621, Note_on_c, 2, 51, 100
6, 289679, Note_on_c, 2, 51, 0
6, 289681, Note_on_c, 2, 52, 100
6, 289739, Note_on_c, 2, 52, 0
6, 289741, Note_on_c, 2, 47, 100
6, 289859, Note_on_c, 2, 47, 0
6, 289920, Note_on_c, 2, 47, 100
6, 289980, Note_on_c, 2, 47, 0
6, 289980, Note_on_c, 2, 51, 100
6, 290040, Note_on_c, 2, 51, 0
6, 290040, Note_on_c, 2, 54, 100
6, 290100, Note_on_c, 2, 54, 0
6, 290100, Note_on_c, 2, 47, 100
6, 290220, Note_on_c, 2, 47, 0
6, 290220, Note_on_c, 2, 59, 100
6, 290278, Note_on_c, 2, 59, 0
6, 290280, Note_on_c, 2, 52, 100
6, 290398, Note_on_c, 2, 52, 0
6, 290400, Note_on_c, 2, 54, 100
6, 290458, Note_on_c, 2, 54, 0
6, 290460, Note_on_c, 2, 55, 100
6, 290578, Note_on_c, 2, 55, 0
6, 290580, Note_on_c, 2, 52, 100
6, 290638, Note_on_c, 2, 52, 0
6, 290644, Note_on_c, 2, 57, 100
6, 290762, Note_on_c, 2, 57, 0
6, 290824, Note_on_c, 2, 59, 100
6, 290942, Note_on_c, 2, 59, 0
6, 291004, Note_on_c, 2, 60, 100
6, 291122, Note_on_c, 2, 60, 0
6, 291184, Note_on_c, 2, 51, 100
6, 291302, Note_on_c, 2, 51, 0
6, 291361, Note_on_c, 2, 52, 100
6, 291479, Note_on_c, 2, 52, 0
6, 291541, Note_on_c, 2, 48, 100
6, 291659, Note_on_c, 2, 48, 0
6, 291721, Note_on_c, 2, 54, 100
6, 291721, Note_on_c, 2, 47, 100
6, 291779, Note_on_c, 2, 47, 0
6, 291781, Note_on_c, 2, 51, 100
6, 291839, Note_on_c, 2, 51, 0
6, 291839, Note_on_c, 2, 54, 0
6, 291841, Note_on_c, 2, 54, 100
6, 291899, Note_on_c, 2, 54, 0
6, 291901, Note_on_c, 2, 57, 100
6, 291959, Note_on_c, 2, 57, 0
6, 291961, Note_on_c, 2, 55, 100
6, 292019, Note_on_c, 2, 55, 0
6, 292021, Note_on_c, 2, 54, 100
6, 292079, Note_on_c, 2, 54, 0
6, 292080, Note_on_c, 2, 55, 100
6, 292200, Note_on_c, 2, 55, 0
6, 292260, Note_on_c, 2, 51, 100
6, 292378, Note_on_c, 2, 51, 0
6, 292440, Note_on_c, 2, 52, 100
6, 292558, Note_on_c, 2, 52, 0
6, 292620, Note_on_c, 2, 40, 100
6, 292738, Note_on_c, 2, 40, 0
6, 292804, Note_on_c, 2, 42, 100
6, 292922, Note_on_c, 2, 42, 0
6, 292984, Note_on_c, 2, 54, 100
6, 293102, Note_on_c, 2, 54, 0
6, 293164, Note_on_c, 2, 55, 100
6, 293282, Note_on_c, 2, 55, 0
6, 293344, Note_on_c, 2, 56, 100
6, 293462, Note_on_c, 2, 56, 0
6, 293521, Note_on_c, 2, 57, 100
6, 293639, Note_on_c, 2, 57, 0
6, 293701, Note_on_c, 2, 52, 100
6, 293819, Note_on_c, 2, 52, 0
6, 293881, Note_on_c, 2, 48, 100
6, 293999, Note_on_c, 2, 48, 0
6, 294061, Note_on_c, 2, 50, 100
6, 294179, Note_on_c, 2, 50, 0
6, 294240, Note_on_c, 2, 55, 100
6, 294360, Note_on_c, 2, 55, 0
6, 294420, Note_on_c, 2, 50, 100
6, 294538, Note_on_c, 2, 50, 0
6, 294600, Note_on_c, 2, 47, 100
6, 294718, Note_on_c, 2, 47, 0
6, 294720, Note_on_c, 2, 55, 100
6, 294780, Note_on_c, 2, 55, 0
6, 294780, Note_on_c, 2, 57, 100
6, 294898, Note_on_c, 2, 57, 0
6, 294900, Note_on_c, 2, 59, 100
6, 294960, Note_on_c, 2, 59, 0
6, 294964, Note_on_c, 2, 48, 100
6, 295082, Note_on_c, 2, 48, 0
6, 295144, Note_on_c, 2, 50, 100
6, 295262, Note_on_c, 2, 50, 0
6, 295324, Note_on_c, 2, 52, 100
6, 295442, Note_on_c, 2, 52, 0
6, 295504, Note_on_c, 2, 54, 100
6, 295622, Note_on_c, 2, 54, 0
6, 295681, Note_on_c, 2, 43, 100
6, 295799, Note_on_c, 2, 43, 0
6, 295861, Note_on_c, 2, 45, 100
6, 295979, Note_on_c, 2, 45, 0
6, 296041, Note_on_c, 2, 47, 100
6, 296099, Note_on_c, 2, 47, 0
6, 296101, Note_on_c, 2, 50, 100
6, 296159, Note_on_c, 2, 50, 0
6, 296161, Note_on_c, 2, 54, 100
6, 296219, Note_on_c, 2, 54, 0
6, 296221, Note_on_c, 2, 57, 100
6, 296279, Note_on_c, 2, 57, 0
6, 296281, Note_on_c, 2, 55, 100
6, 296339, Note_on_c, 2, 55, 0
6, 296341, Note_on_c, 2, 54, 100
6, 296399, Note_on_c, 2, 54, 0
6, 296401, Note_on_c, 2, 52, 100
6, 296519, Note_on_c, 2, 52, 0
6, 296581, Note_on_c, 2, 54, 100
6, 296699, Note_on_c, 2, 54, 0
6, 296761, Note_on_c, 2, 55, 100
6, 296879, Note_on_c, 2, 55, 0
6, 296941, Note_on_c, 2, 43, 100
6, 297059, Note_on_c, 2, 43, 0
6, 297120, Note_on_c, 2, 45, 100
6, 297240, Note_on_c, 2, 45, 0
6, 297300, Note_on_c, 2, 57, 100
6, 297418, Note_on_c, 2, 57, 0
6, 297480, Note_on_c, 2, 59, 100
6, 297598, Note_on_c, 2, 59, 0
6, 297660, Note_on_c, 2, 55, 100
6, 297778, Note_on_c, 2, 55, 0
6, 297844, Note_on_c, 2, 60, 100
6, 297962, Note_on_c, 2, 60, 0
6, 298024, Note_on_c, 2, 55, 100
6, 298142, Note_on_c, 2, 55, 0
6, 298204, Note_on_c, 2, 57, 100
6, 298322, Note_on_c, 2, 57, 0
6, 298384, Note_on_c, 2, 52, 100
6, 298502, Note_on_c, 2, 52, 0
6, 298561, Note_on_c, 2, 54, 100
6, 298679, Note_on_c, 2, 54, 0
6, 298741, Note_on_c, 2, 55, 100
6, 298859, Note_on_c, 2, 55, 0
6, 298921, Note_on_c, 2, 46, 100
6, 299039, Note_on_c, 2, 46, 0
6, 299041, Note_on_c, 2, 49, 100
6, 299099, Note_on_c, 2, 49, 0
6, 299101, Note_on_c, 2, 46, 100
6, 299219, Note_on_c, 2, 46, 0
6, 299221, Note_on_c, 2, 42, 100
6, 299279, Note_on_c, 2, 42, 0
6, 299281, Note_on_c, 2, 47, 100
6, 299339, Note_on_c, 2, 47, 0
6, 299341, Note_on_c, 2, 51, 100
6, 299399, Note_on_c, 2, 51, 0
6, 299401, Note_on_c, 2, 54, 100
6, 299459, Note_on_c, 2, 54, 0
6, 299461, Note_on_c, 2, 47, 100
6, 299579, Note_on_c, 2, 47, 0
6, 299641, Note_on_c, 2, 47, 100
6, 299699, Note_on_c, 2, 47, 0
6, 299701, Note_on_c, 2, 51, 100
6, 299759, Note_on_c, 2, 51, 0
6, 299761, Note_on_c, 2, 52, 100
6, 299819, Note_on_c, 2, 52, 0
6, 299821, Note_on_c, 2, 47, 100
6, 299939, Note_on_c, 2, 47, 0
6, 300000, Note_on_c, 2, 47, 100
6, 300060, Note_on_c, 2, 47, 0
6, 300060, Note_on_c, 2, 51, 100
6, 300118, Note_on_c, 2, 51, 0
6, 300120, Note_on_c, 2, 54, 100
6, 300178, Note_on_c, 2, 54, 0
6, 300180, Note_on_c, 2, 59, 100
6, 300298, Note_on_c, 2, 59, 0
6, 300300, Note_on_c, 2, 47, 100
6, 300360, Note_on_c, 2, 47, 0
6, 300360, Note_on_c, 2, 52, 100
6, 300478, Note_on_c, 2, 52, 0
6, 300480, Note_on_c, 2, 50, 100
6, 300538, Note_on_c, 2, 50, 0
6, 300540, Note_on_c, 2, 49, 100
6, 300660, Note_on_c, 2, 49, 0
6, 300660, Note_on_c, 2, 52, 100
6, 300720, Note_on_c, 2, 52, 0
6, 300724, Note_on_c, 2, 54, 100
6, 300782, Note_on_c, 2, 54, 0
6, 300784, Note_on_c, 2, 58, 100
6, 300842, Note_on_c, 2, 58, 0
6, 300844, Note_on_c, 2, 61, 100
6, 300902, Note_on_c, 2, 61, 0
6, 300904, Note_on_c, 2, 54, 100
6, 301022, Note_on_c, 2, 54, 0
6, 301084, Note_on_c, 2, 54, 100
6, 301142, Note_on_c, 2, 54, 0
6, 301144, Note_on_c, 2, 58, 100
6, 301202, Note_on_c, 2, 58, 0
6, 301204, Note_on_c, 2, 59, 100
6, 301262, Note_on_c, 2, 59, 0
6, 301264, Note_on_c, 2, 54, 100
6, 301382, Note_on_c, 2, 54, 0
6, 301441, Note_on_c, 2, 54, 100
6, 301499, Note_on_c, 2, 54, 0
6, 301501, Note_on_c, 2, 58, 100
6, 301559, Note_on_c, 2, 58, 0
6, 301561, Note_on_c, 2, 61, 100
6, 301619, Note_on_c, 2, 61, 0
6, 301621, Note_on_c, 2, 54, 100
6, 301739, Note_on_c, 2, 54, 0
6, 301741, Note_on_c, 2, 42, 100
6, 301799, Note_on_c, 2, 42, 0
6, 301801, Note_on_c, 2, 47, 100
6, 301919, Note_on_c, 2, 47, 0
6, 301921, Note_on_c, 2, 45, 100
6, 301979, Note_on_c, 2, 45, 0
6, 301981, Note_on_c, 2, 43, 100
6, 302099, Note_on_c, 2, 43, 0
6, 302101, Note_on_c, 2, 42, 100
6, 302159, Note_on_c, 2, 42, 0
6, 302160, Note_on_c, 2, 40, 100
6, 302278, Note_on_c, 2, 40, 0
6, 302340, Note_on_c, 2, 43, 100
6, 302458, Note_on_c, 2, 43, 0
6, 302520, Note_on_c, 2, 45, 100
6, 302638, Note_on_c, 2, 45, 0
6, 302700, Note_on_c, 2, 49, 100
6, 302818, Note_on_c, 2, 49, 0
6, 302884, Note_on_c, 2, 38, 100
6, 303002, Note_on_c, 2, 38, 0
6, 303064, Note_on_c, 2, 42, 100
6, 303182, Note_on_c, 2, 42, 0
6, 303244, Note_on_c, 2, 43, 100
6, 303362, Note_on_c, 2, 43, 0
6, 303424, Note_on_c, 2, 47, 100
6, 303542, Note_on_c, 2, 47, 0
6, 303601, Note_on_c, 2, 49, 100
6, 303719, Note_on_c, 2, 49, 0
6, 303781, Note_on_c, 2, 52, 100
6, 303899, Note_on_c, 2, 52, 0
6, 303961, Note_on_c, 2, 54, 100
6, 304079, Note_on_c, 2, 54, 0
6, 304081, Note_on_c, 2, 42, 100
6, 304139, Note_on_c, 2, 42, 0
6, 304141, Note_on_c, 2, 46, 100
6, 304259, Note_on_c, 2, 46, 0
6, 304261, Note_on_c, 2, 49, 100
6, 304319, Note_on_c, 2, 49, 0
6, 304320, Note_on_c, 2, 50, 100
6, 304438, Note_on_c, 2, 50, 0
6, 304440, Note_on_c, 2, 42, 100
6, 304498, Note_on_c, 2, 42, 0
6, 304500, Note_on_c, 2, 47, 100
6, 304618, Note_on_c, 2, 47, 0
6, 304620, Note_on_c, 2, 50, 100
6, 304678, Note_on_c, 2, 50, 0
6, 304680, Note_on_c, 2, 54, 100
6, 304910, Note_on_c, 2, 54, 0
6, 304920, Note_on_c, 2, 49, 100
6, 304978, Note_on_c, 2, 49, 0
6, 304980, Note_on_c, 2, 45, 100
6, 305038, Note_on_c, 2, 45, 0
6, 305044, Note_on_c, 2, 42, 100
6, 305282, Note_on_c, 2, 42, 0
6, 305284, Note_on_c, 2, 47, 100
6, 305342, Note_on_c, 2, 47, 0
6, 305344, Note_on_c, 2, 50, 100
6, 305402, Note_on_c, 2, 50, 0
6, 305404, Note_on_c, 2, 54, 100
6, 305462, Note_on_c, 2, 54, 0
6, 305464, Note_on_c, 2, 53, 100
6, 305522, Note_on_c, 2, 53, 0
6, 305524, Note_on_c, 2, 54, 100
6, 305582, Note_on_c, 2, 54, 0
6, 305584, Note_on_c, 2, 42, 100
6, 305642, Note_on_c, 2, 42, 0
6, 305644, Note_on_c, 2, 46, 100
6, 305702, Note_on_c, 2, 46, 0
6, 305704, Note_on_c, 2, 49, 100
6, 305760, Note_on_c, 2, 49, 0
6, 305761, Note_on_c, 2, 54, 100
6, 305819, Note_on_c, 2, 54, 0
6, 305821, Note_on_c, 2, 53, 100
6, 305879, Note_on_c, 2, 53, 0
6, 305881, Note_on_c, 2, 54, 100
6, 305939, Note_on_c, 2, 54, 0
6, 305941, Note_on_c, 2, 42, 100
6, 305999, Note_on_c, 2, 42, 0
6, 306001, Note_on_c, 2, 47, 100
6, 306059, Note_on_c, 2, 47, 0
6, 306061, Note_on_c, 2, 50, 100
6, 306119, Note_on_c, 2, 50, 0
6, 306121, Note_on_c, 2, 54, 100
6, 306179, Note_on_c, 2, 54, 0
6, 306181, Note_on_c, 2, 53, 100
6, 306239, Note_on_c, 2, 53, 0
6, 306241, Note_on_c, 2, 54, 100
6, 306299, Note_on_c, 2, 54, 0
6, 306301, Note_on_c, 2, 42, 100
6, 306359, Note_on_c, 2, 42, 0
6, 306361, Note_on_c, 2, 46, 100
6, 306419, Note_on_c, 2, 46, 0
6, 306421, Note_on_c, 2, 49, 100
6, 306479, Note_on_c, 2, 49, 0
6, 306480, Note_on_c, 2, 54, 100
6, 306540, Note_on_c, 2, 54, 0
6, 306540, Note_on_c, 2, 52, 100
6, 306600, Note_on_c, 2, 52, 0
6, 306600, Note_on_c, 2, 54, 100
6, 306660, Note_on_c, 2, 54, 0
6, 306660, Note_on_c, 2, 42, 100
6, 306720, Note_on_c, 2, 42, 0
6, 306720, Note_on_c, 2, 45, 100
6, 306778, Note_on_c, 2, 45, 0
6, 306780, Note_on_c, 2, 49, 100
6, 306838, Note_on_c, 2, 49, 0
6, 306840, Note_on_c, 2, 54, 100
6, 306898, Note_on_c, 2, 54, 0
6, 306900, Note_on_c, 2, 52, 100
6, 306958, Note_on_c, 2, 52, 0
6, 306960, Note_on_c, 2, 54, 100
6, 307018, Note_on_c, 2, 54, 0
6, 307020, Note_on_c, 2, 42, 100
6, 307078, Note_on_c, 2, 42, 0
6, 307080, Note_on_c, 2, 45, 100
6, 307138, Note_on_c, 2, 45, 0
6, 307140, Note_on_c, 2, 49, 100
6, 307198, Note_on_c, 2, 49, 0
6, 307205, Note_on_c, 2, 54, 100
6, 307263, Note_on_c, 2, 54, 0
6, 307265, Note_on_c, 2, 53, 100
6, 307323, Note_on_c, 2, 53, 0
6, 307325, Note_on_c, 2, 54, 100
6, 307383, Note_on_c, 2, 54, 0
6, 307385, Note_on_c, 2, 42, 100
6, 307443, Note_on_c, 2, 42, 0
6, 307445, Note_on_c, 2, 47, 100
6, 307503, Note_on_c, 2, 47, 0
6, 307505, Note_on_c, 2, 50, 100
6, 307563, Note_on_c, 2, 50, 0
6, 307565, Note_on_c, 2, 54, 100
6, 307623, Note_on_c, 2, 54, 0
6, 307625, Note_on_c, 2, 52, 100
6, 307683, Note_on_c, 2, 52, 0
6, 307685, Note_on_c, 2, 54, 100
6, 307743, Note_on_c, 2, 54, 0
6, 307745, Note_on_c, 2, 42, 100
6, 307803, Note_on_c, 2, 42, 0
6, 307805, Note_on_c, 2, 47, 100
6, 307863, Note_on_c, 2, 47, 0
6, 307865, Note_on_c, 2, 51, 100
6, 307920, Note_on_c, 2, 51, 0
6, 307921, Note_on_c, 2, 52, 100
6, 308159, Note_on_c, 2, 52, 0
6, 308161, Note_on_c, 2, 50, 100
6, 308219, Note_on_c, 2, 50, 0
6, 308221, Note_on_c, 2, 49, 100
6, 308279, Note_on_c, 2, 49, 0
6, 308281, Note_on_c, 2, 50, 100
6, 308519, Note_on_c, 2, 50, 0
6, 308521, Note_on_c, 2, 49, 100
6, 308579, Note_on_c, 2, 49, 0
6, 308581, Note_on_c, 2, 47, 100
6, 308639, Note_on_c, 2, 47, 0
6, 308640, Note_on_c, 2, 55, 100
6, 308878, Note_on_c, 2, 55, 0
6, 308880, Note_on_c, 2, 54, 100
6, 308938, Note_on_c, 2, 54, 0
6, 308940, Note_on_c, 2, 52, 100
6, 308998, Note_on_c, 2, 52, 0
6, 309000, Note_on_c, 2, 54, 100
6, 309240, Note_on_c, 2, 54, 0
6, 309240, Note_on_c, 2, 52, 100
6, 309300, Note_on_c, 2, 52, 0
6, 309300, Note_on_c, 2, 50, 100
6, 309360, Note_on_c, 2, 50, 0
6, 309364, Note_on_c, 2, 52, 100
6, 309482, Note_on_c, 2, 52, 0
6, 309544, Note_on_c, 2, 49, 100
6, 309662, Note_on_c, 2, 49, 0
6, 309724, Note_on_c, 2, 54, 100
6, 309842, Note_on_c, 2, 54, 0
6, 309904, Note_on_c, 2, 46, 100
6, 310022, Note_on_c, 2, 46, 0
6, 310081, Note_on_c, 2, 47, 100
6, 310199, Note_on_c, 2, 47, 0
6, 310201, Note_on_c, 2, 50, 100
6, 310259, Note_on_c, 2, 50, 0
6, 310261, Note_on_c, 2, 54, 100
6, 310379, Note_on_c, 2, 54, 0
6, 310381, Note_on_c, 2, 42, 100
6, 310439, Note_on_c, 2, 42, 0
6, 310441, Note_on_c, 2, 47, 100
6, 310499, Note_on_c, 2, 47, 0
6, 310501, Note_on_c, 2, 42, 100
6, 310559, Note_on_c, 2, 42, 0
6, 310561, Note_on_c, 2, 38, 100
6, 310619, Note_on_c, 2, 38, 0
6, 310621, Note_on_c, 2, 35, 100
6, 310739, Note_on_c, 2, 35, 0
6, 310739, End_track
0, 0, End_of_file
