0, 0, Header, 1, 13, 384
1, 0, Start_track
1, 0, Title_t, "untitled"
1, 0, SMPTE_offset, 96, 0, 3, 0, 0
1, 0, Time_signature, 9, 3, 12, 8
1, 0, Key_signature, 0, "major"
1, 0, Tempo, 324324
1, 0, End_track
2, 0, Start_track
2, 0, MIDI_port, 0
2, 0, Title_t, "Solo Violin"
2, 0, Program_c, 0, 40
2, 0, Control_c, 0, 7, 115
2, 0, Control_c, 0, 10, 64
2, 1536, Note_on_c, 0, 76, 100
2, 1728, Note_on_c, 0, 76, 0
2, 1728, Note_on_c, 0, 81, 100
2, 1920, Note_on_c, 0, 81, 0
2, 1920, Note_on_c, 0, 79, 100
2, 2112, Note_on_c, 0, 79, 0
2, 2112, Note_on_c, 0, 77, 100
2, 2304, Note_on_c, 0, 77, 0
2, 2304, Note_on_c, 0, 76, 100
2, 2496, Note_on_c, 0, 76, 0
2, 2496, Note_on_c, 0, 74, 100
2, 2688, Note_on_c, 0, 74, 0
2, 2688, Note_on_c, 0, 72, 100
2, 2880, Note_on_c, 0, 72, 0
2, 2880, Note_on_c, 0, 71, 100
2, 3072, Note_on_c, 0, 71, 0
2, 3072, Note_on_c, 0, 72, 100
2, 3264, Note_on_c, 0, 72, 0
2, 3264, Note_on_c, 0, 74, 100
2, 3456, Note_on_c, 0, 74, 0
2, 3456, Note_on_c, 0, 72, 100
2, 3648, Note_on_c, 0, 72, 0
2, 3648, Note_on_c, 0, 71, 100
2, 3840, Note_on_c, 0, 71, 0
2, 3840, Note_on_c, 0, 72, 100
2, 4032, Note_on_c, 0, 72, 0
2, 4032, Note_on_c, 0, 69, 100
2, 4224, Note_on_c, 0, 69, 0
2, 4224, Note_on_c, 0, 71, 100
2, 4416, Note_on_c, 0, 71, 0
2, 4416, Note_on_c, 0, 72, 100
2, 4608, Note_on_c, 0, 72, 0
2, 4608, Note_on_c, 0, 64, 100
2, 4800, Note_on_c, 0, 64, 0
2, 4800, Note_on_c, 0, 69, 100
2, 4992, Note_on_c, 0, 69, 0
2, 4992, Note_on_c, 0, 72, 100
2, 5184, Note_on_c, 0, 72, 0
2, 5184, Note_on_c, 0, 71, 100
2, 5376, Note_on_c, 0, 71, 0
2, 5376, Note_on_c, 0, 69, 100
2, 5568, Note_on_c, 0, 69, 0
2, 5568, Note_on_c, 0, 71, 100
2, 5760, Note_on_c, 0, 71, 0
2, 5760, Note_on_c, 0, 68, 100
2, 5952, Note_on_c, 0, 68, 0
2, 5952, Note_on_c, 0, 69, 100
2, 6144, Note_on_c, 0, 69, 0
2, 6144, Note_on_c, 0, 71, 100
2, 6336, Note_on_c, 0, 71, 0
2, 6336, Note_on_c, 0, 64, 100
2, 6528, Note_on_c, 0, 64, 0
2, 6528, Note_on_c, 0, 71, 100
2, 6720, Note_on_c, 0, 71, 0
2, 6720, Note_on_c, 0, 74, 100
2, 6912, Note_on_c, 0, 74, 0
2, 6912, Note_on_c, 0, 72, 100
2, 7104, Note_on_c, 0, 72, 0
2, 7104, Note_on_c, 0, 71, 100
2, 7296, Note_on_c, 0, 71, 0
2, 7296, Note_on_c, 0, 72, 100
2, 7488, Note_on_c, 0, 72, 0
2, 7488, Note_on_c, 0, 69, 100
2, 7680, Note_on_c, 0, 69, 0
2, 7680, Note_on_c, 0, 72, 100
2, 7872, Note_on_c, 0, 72, 0
2, 7872, Note_on_c, 0, 76, 100
2, 8064, Note_on_c, 0, 76, 0
2, 8064, Note_on_c, 0, 81, 100
2, 8256, Note_on_c, 0, 81, 0
2, 8256, Note_on_c, 0, 79, 100
2, 8448, Note_on_c, 0, 79, 0
2, 8448, Note_on_c, 0, 78, 100
2, 8640, Note_on_c, 0, 78, 0
2, 8640, Note_on_c, 0, 79, 100
2, 9408, Note_on_c, 0, 79, 0
2, 9408, Note_on_c, 0, 78, 100
2, 9600, Note_on_c, 0, 78, 0
2, 9600, Note_on_c, 0, 76, 100
2, 9792, Note_on_c, 0, 76, 0
2, 9792, Note_on_c, 0, 83, 100
2, 10176, Note_on_c, 0, 83, 0
2, 10176, Note_on_c, 0, 83, 100
2, 10368, Note_on_c, 0, 83, 0
2, 10368, Note_on_c, 0, 83, 100
2, 10560, Note_on_c, 0, 83, 0
2, 10560, Note_on_c, 0, 81, 100
2, 10752, Note_on_c, 0, 81, 0
2, 10752, Note_on_c, 0, 83, 100
2, 10944, Note_on_c, 0, 83, 0
2, 10944, Note_on_c, 0, 79, 100
2, 11136, Note_on_c, 0, 79, 0
2, 11136, Note_on_c, 0, 78, 100
2, 11328, Note_on_c, 0, 78, 0
2, 11328, Note_on_c, 0, 76, 100
2, 11520, Note_on_c, 0, 76, 0
2, 11520, Note_on_c, 0, 83, 100
2, 11904, Note_on_c, 0, 83, 0
2, 11904, Note_on_c, 0, 83, 100
2, 12096, Note_on_c, 0, 83, 0
2, 12096, Note_on_c, 0, 83, 100
2, 12480, Note_on_c, 0, 83, 0
2, 12480, Note_on_c, 0, 83, 100
2, 12672, Note_on_c, 0, 83, 0
2, 12672, Note_on_c, 0, 83, 100
2, 13056, Note_on_c, 0, 83, 0
2, 13056, Note_on_c, 0, 83, 100
2, 13248, Note_on_c, 0, 83, 0
2, 13248, Note_on_c, 0, 83, 100
2, 13632, Note_on_c, 0, 83, 0
2, 13632, Note_on_c, 0, 83, 100
2, 13824, Note_on_c, 0, 83, 0
2, 13824, Note_on_c, 0, 83, 100
2, 14016, Note_on_c, 0, 83, 0
2, 14016, Note_on_c, 0, 81, 100
2, 14208, Note_on_c, 0, 81, 0
2, 14208, Note_on_c, 0, 83, 100
2, 14400, Note_on_c, 0, 83, 0
2, 14400, Note_on_c, 0, 79, 100
2, 14784, Note_on_c, 0, 79, 0
2, 14784, Note_on_c, 0, 76, 100
2, 14976, Note_on_c, 0, 76, 0
2, 14976, Note_on_c, 0, 78, 100
2, 15360, Note_on_c, 0, 78, 0
2, 15360, Note_on_c, 0, 80, 100
2, 15552, Note_on_c, 0, 80, 0
2, 15552, Note_on_c, 0, 81, 100
2, 15936, Note_on_c, 0, 81, 0
2, 15936, Note_on_c, 0, 69, 100
2, 16128, Note_on_c, 0, 69, 0
2, 16128, Note_on_c, 0, 72, 100
2, 16512, Note_on_c, 0, 72, 0
2, 16512, Note_on_c, 0, 76, 100
2, 16704, Note_on_c, 0, 76, 0
2, 16704, Note_on_c, 0, 80, 100
2, 16896, Note_on_c, 0, 80, 0
2, 16896, Note_on_c, 0, 81, 100
2, 17088, Note_on_c, 0, 81, 0
2, 17088, Note_on_c, 0, 83, 100
2, 17280, Note_on_c, 0, 83, 0
2, 17280, Note_on_c, 0, 81, 100
2, 17472, Note_on_c, 0, 81, 0
2, 17472, Note_on_c, 0, 80, 100
2, 17664, Note_on_c, 0, 80, 0
2, 17664, Note_on_c, 0, 81, 100
2, 17856, Note_on_c, 0, 81, 0
2, 17856, Note_on_c, 0, 76, 100
2, 18048, Note_on_c, 0, 76, 0
2, 18048, Note_on_c, 0, 74, 100
2, 18240, Note_on_c, 0, 74, 0
2, 18240, Note_on_c, 0, 76, 100
2, 18432, Note_on_c, 0, 76, 0
2, 18432, Note_on_c, 0, 72, 100
2, 18624, Note_on_c, 0, 72, 0
2, 18624, Note_on_c, 0, 76, 100
2, 18816, Note_on_c, 0, 76, 0
2, 18816, Note_on_c, 0, 81, 100
2, 19008, Note_on_c, 0, 81, 0
2, 19008, Note_on_c, 0, 80, 100
2, 19200, Note_on_c, 0, 80, 0
2, 19200, Note_on_c, 0, 78, 100
2, 19392, Note_on_c, 0, 78, 0
2, 19392, Note_on_c, 0, 80, 100
2, 19584, Note_on_c, 0, 80, 0
2, 19584, Note_on_c, 0, 76, 100
2, 19968, Note_on_c, 0, 76, 0
2, 19968, Note_on_c, 0, 80, 100
2, 20160, Note_on_c, 0, 80, 0
2, 20160, Note_on_c, 0, 83, 100
2, 20352, Note_on_c, 0, 83, 0
2, 20352, Note_on_c, 0, 81, 100
2, 20544, Note_on_c, 0, 81, 0
2, 20544, Note_on_c, 0, 80, 100
2, 20736, Note_on_c, 0, 80, 0
2, 20736, Note_on_c, 0, 81, 100
2, 21312, Note_on_c, 0, 81, 0
2, 21696, Note_on_c, 0, 72, 100
2, 21888, Note_on_c, 0, 72, 0
2, 21888, Note_on_c, 0, 76, 100
2, 22272, Note_on_c, 0, 76, 0
2, 22272, Note_on_c, 0, 81, 100
2, 22464, Note_on_c, 0, 81, 0
2, 22464, Note_on_c, 0, 74, 100
2, 22848, Note_on_c, 0, 74, 0
2, 22848, Note_on_c, 0, 65, 100
2, 23040, Note_on_c, 0, 65, 0
2, 23040, Note_on_c, 0, 69, 100
2, 23424, Note_on_c, 0, 69, 0
2, 23424, Note_on_c, 0, 74, 100
2, 23616, Note_on_c, 0, 74, 0
2, 23616, Note_on_c, 0, 67, 100
2, 24000, Note_on_c, 0, 67, 0
2, 24000, Note_on_c, 0, 74, 100
2, 24192, Note_on_c, 0, 74, 0
2, 24192, Note_on_c, 0, 74, 100
2, 24384, Note_on_c, 0, 74, 0
2, 24384, Note_on_c, 0, 72, 100
2, 24576, Note_on_c, 0, 72, 0
2, 24576, Note_on_c, 0, 74, 100
2, 24768, Note_on_c, 0, 74, 0
2, 24768, Note_on_c, 0, 67, 100
2, 24960, Note_on_c, 0, 67, 0
2, 24960, Note_on_c, 0, 71, 100
2, 25152, Note_on_c, 0, 71, 0
2, 25152, Note_on_c, 0, 74, 100
2, 25344, Note_on_c, 0, 74, 0
2, 25344, Note_on_c, 0, 77, 100
2, 25536, Note_on_c, 0, 77, 0
2, 25536, Note_on_c, 0, 76, 100
2, 25728, Note_on_c, 0, 76, 0
2, 25728, Note_on_c, 0, 74, 100
2, 25920, Note_on_c, 0, 74, 0
2, 25920, Note_on_c, 0, 76, 100
2, 26304, Note_on_c, 0, 76, 0
2, 26304, Note_on_c, 0, 77, 100
2, 26496, Note_on_c, 0, 77, 0
2, 26496, Note_on_c, 0, 79, 100
2, 27264, Note_on_c, 0, 79, 0
2, 27456, Note_on_c, 0, 71, 100
2, 27648, Note_on_c, 0, 71, 0
2, 27648, Note_on_c, 0, 72, 100
2, 28032, Note_on_c, 0, 72, 0
2, 28032, Note_on_c, 0, 67, 100
2, 28224, Note_on_c, 0, 67, 0
2, 28224, Note_on_c, 0, 79, 100
2, 29184, Note_on_c, 0, 79, 0
2, 29184, Note_on_c, 0, 69, 100
2, 29376, Note_on_c, 0, 69, 0
2, 29376, Note_on_c, 0, 71, 100
2, 29760, Note_on_c, 0, 71, 0
2, 29760, Note_on_c, 0, 67, 100
2, 29952, Note_on_c, 0, 67, 0
2, 29952, Note_on_c, 0, 77, 100
2, 30912, Note_on_c, 0, 77, 0
2, 30912, Note_on_c, 0, 74, 100
2, 31104, Note_on_c, 0, 74, 0
2, 31104, Note_on_c, 0, 76, 100
2, 31488, Note_on_c, 0, 76, 0
2, 31488, Note_on_c, 0, 79, 100
2, 31680, Note_on_c, 0, 79, 0
2, 31680, Note_on_c, 0, 76, 100
2, 32064, Note_on_c, 0, 76, 0
2, 32064, Note_on_c, 0, 71, 100
2, 32256, Note_on_c, 0, 71, 0
2, 32256, Note_on_c, 0, 72, 100
2, 32448, Note_on_c, 0, 72, 0
2, 32448, Note_on_c, 0, 68, 100
2, 32640, Note_on_c, 0, 68, 0
2, 32640, Note_on_c, 0, 69, 100
2, 32832, Note_on_c, 0, 69, 0
2, 32832, Note_on_c, 0, 74, 100
2, 33024, Note_on_c, 0, 74, 0
2, 33024, Note_on_c, 0, 72, 100
2, 33216, Note_on_c, 0, 72, 0
2, 33216, Note_on_c, 0, 74, 100
2, 33408, Note_on_c, 0, 74, 0
2, 33408, Note_on_c, 0, 83, 100
2, 33792, Note_on_c, 0, 83, 0
2, 33792, Note_on_c, 0, 80, 100
2, 33984, Note_on_c, 0, 80, 0
2, 33984, Note_on_c, 0, 81, 100
2, 34368, Note_on_c, 0, 81, 0
2, 34368, Note_on_c, 0, 83, 100
2, 34560, Note_on_c, 0, 83, 0
2, 34560, Note_on_c, 0, 76, 100
2, 34752, Note_on_c, 0, 76, 0
2, 34752, Note_on_c, 0, 74, 100
2, 34944, Note_on_c, 0, 74, 0
2, 34944, Note_on_c, 0, 76, 100
2, 35136, Note_on_c, 0, 76, 0
2, 35136, Note_on_c, 0, 69, 100
2, 35328, Note_on_c, 0, 69, 0
2, 35328, Note_on_c, 0, 72, 100
2, 35520, Note_on_c, 0, 72, 0
2, 35520, Note_on_c, 0, 76, 100
2, 35712, Note_on_c, 0, 76, 0
2, 35712, Note_on_c, 0, 79, 100
2, 35904, Note_on_c, 0, 79, 0
2, 35904, Note_on_c, 0, 77, 100
2, 36096, Note_on_c, 0, 77, 0
2, 36096, Note_on_c, 0, 76, 100
2, 36288, Note_on_c, 0, 76, 0
2, 36288, Note_on_c, 0, 77, 100
2, 36480, Note_on_c, 0, 77, 0
2, 36480, Note_on_c, 0, 76, 100
2, 36672, Note_on_c, 0, 76, 0
2, 36672, Note_on_c, 0, 77, 100
2, 36864, Note_on_c, 0, 77, 0
2, 36864, Note_on_c, 0, 74, 100
2, 37056, Note_on_c, 0, 74, 0
2, 37056, Note_on_c, 0, 77, 100
2, 37248, Note_on_c, 0, 77, 0
2, 37248, Note_on_c, 0, 81, 100
2, 37440, Note_on_c, 0, 81, 0
2, 37440, Note_on_c, 0, 81, 100
2, 37632, Note_on_c, 0, 81, 0
2, 37632, Note_on_c, 0, 82, 100
2, 37824, Note_on_c, 0, 82, 0
2, 37824, Note_on_c, 0, 74, 100
2, 38016, Note_on_c, 0, 74, 0
2, 38016, Note_on_c, 0, 76, 100
2, 38208, Note_on_c, 0, 76, 0
2, 38208, Note_on_c, 0, 74, 100
2, 38400, Note_on_c, 0, 74, 0
2, 38400, Note_on_c, 0, 76, 100
2, 38592, Note_on_c, 0, 76, 0
2, 38592, Note_on_c, 0, 72, 100
2, 38784, Note_on_c, 0, 72, 0
2, 38784, Note_on_c, 0, 76, 100
2, 38976, Note_on_c, 0, 76, 0
2, 38976, Note_on_c, 0, 80, 100
2, 39168, Note_on_c, 0, 80, 0
2, 39168, Note_on_c, 0, 80, 100
2, 39360, Note_on_c, 0, 80, 0
2, 39360, Note_on_c, 0, 81, 100
2, 39552, Note_on_c, 0, 81, 0
2, 39552, Note_on_c, 0, 69, 100
2, 39744, Note_on_c, 0, 69, 0
2, 39744, Note_on_c, 0, 74, 100
2, 40128, Note_on_c, 0, 74, 0
2, 40128, Note_on_c, 0, 74, 100
2, 40320, Note_on_c, 0, 74, 0
2, 40320, Note_on_c, 0, 74, 100
2, 40704, Note_on_c, 0, 74, 0
2, 40704, Note_on_c, 0, 74, 100
2, 40896, Note_on_c, 0, 74, 0
2, 40896, Note_on_c, 0, 74, 100
2, 41280, Note_on_c, 0, 74, 0
2, 41280, Note_on_c, 0, 74, 100
2, 41472, Note_on_c, 0, 74, 0
2, 41472, Note_on_c, 0, 74, 100
2, 41664, Note_on_c, 0, 74, 0
2, 41664, Note_on_c, 0, 72, 100
2, 41856, Note_on_c, 0, 72, 0
2, 41856, Note_on_c, 0, 71, 100
2, 42048, Note_on_c, 0, 71, 0
2, 42048, Note_on_c, 0, 76, 100
2, 42432, Note_on_c, 0, 76, 0
2, 42432, Note_on_c, 0, 69, 100
2, 42624, Note_on_c, 0, 69, 0
2, 42624, Note_on_c, 0, 64, 100
2, 43008, Note_on_c, 0, 64, 0
2, 43008, Note_on_c, 0, 68, 100
2, 43200, Note_on_c, 0, 68, 0
2, 43200, Note_on_c, 0, 69, 100
2, 43392, Note_on_c, 0, 69, 0
2, 43392, Note_on_c, 0, 64, 100
2, 43584, Note_on_c, 0, 64, 0
2, 43584, Note_on_c, 0, 60, 100
2, 43776, Note_on_c, 0, 60, 0
2, 43776, Note_on_c, 0, 57, 100
2, 43968, Note_on_c, 0, 57, 0
2, 43968, Note_on_c, 0, 60, 100
2, 44160, Note_on_c, 0, 60, 0
2, 44160, Note_on_c, 0, 64, 100
2, 44352, Note_on_c, 0, 64, 0
2, 44352, Note_on_c, 0, 69, 100
2, 44544, Note_on_c, 0, 69, 0
2, 44544, Note_on_c, 0, 71, 100
2, 44736, Note_on_c, 0, 71, 0
2, 44736, Note_on_c, 0, 72, 100
2, 44928, Note_on_c, 0, 72, 0
2, 44928, Note_on_c, 0, 72, 100
2, 44976, Note_on_c, 0, 72, 0
2, 44976, Note_on_c, 0, 74, 100
2, 45024, Note_on_c, 0, 74, 0
2, 45024, Note_on_c, 0, 72, 100
2, 45072, Note_on_c, 0, 72, 0
2, 45072, Note_on_c, 0, 74, 100
2, 45120, Note_on_c, 0, 74, 0
2, 45120, Note_on_c, 0, 72, 100
2, 45168, Note_on_c, 0, 72, 0
2, 45168, Note_on_c, 0, 74, 100
2, 45216, Note_on_c, 0, 74, 0
2, 45216, Note_on_c, 0, 72, 100
2, 45264, Note_on_c, 0, 72, 0
2, 45264, Note_on_c, 0, 74, 100
2, 45312, Note_on_c, 0, 74, 0
2, 45312, Note_on_c, 0, 71, 100
2, 45504, Note_on_c, 0, 71, 0
2, 45504, Note_on_c, 0, 75, 100
2, 46464, Note_on_c, 0, 75, 0
2, 46464, Note_on_c, 0, 76, 100
2, 46656, Note_on_c, 0, 76, 0
2, 46656, Note_on_c, 0, 71, 100
2, 46848, Note_on_c, 0, 71, 0
2, 46848, Note_on_c, 0, 68, 100
2, 47040, Note_on_c, 0, 68, 0
2, 47040, Note_on_c, 0, 64, 100
2, 47232, Note_on_c, 0, 64, 0
2, 47232, Note_on_c, 0, 59, 100
2, 47424, Note_on_c, 0, 59, 0
2, 47424, Note_on_c, 0, 64, 100
2, 47616, Note_on_c, 0, 64, 0
2, 47616, Note_on_c, 0, 68, 100
2, 47808, Note_on_c, 0, 68, 0
2, 47808, Note_on_c, 0, 71, 100
2, 48000, Note_on_c, 0, 71, 0
2, 48000, Note_on_c, 0, 72, 100
2, 48192, Note_on_c, 0, 72, 0
2, 48192, Note_on_c, 0, 74, 100
2, 48384, Note_on_c, 0, 74, 0
2, 48384, Note_on_c, 0, 74, 100
2, 48432, Note_on_c, 0, 74, 0
2, 48432, Note_on_c, 0, 76, 100
2, 48480, Note_on_c, 0, 76, 0
2, 48480, Note_on_c, 0, 74, 100
2, 48528, Note_on_c, 0, 74, 0
2, 48528, Note_on_c, 0, 76, 100
2, 48576, Note_on_c, 0, 76, 0
2, 48576, Note_on_c, 0, 74, 100
2, 48624, Note_on_c, 0, 74, 0
2, 48624, Note_on_c, 0, 76, 100
2, 48672, Note_on_c, 0, 76, 0
2, 48672, Note_on_c, 0, 74, 100
2, 48720, Note_on_c, 0, 74, 0
2, 48720, Note_on_c, 0, 76, 100
2, 48768, Note_on_c, 0, 76, 0
2, 48768, Note_on_c, 0, 72, 100
2, 48960, Note_on_c, 0, 72, 0
2, 48960, Note_on_c, 0, 80, 100
2, 49920, Note_on_c, 0, 80, 0
2, 49920, Note_on_c, 0, 81, 100
2, 50112, Note_on_c, 0, 81, 0
2, 50112, Note_on_c, 0, 77, 100
2, 50304, Note_on_c, 0, 77, 0
2, 50304, Note_on_c, 0, 81, 100
2, 50496, Note_on_c, 0, 81, 0
2, 50496, Note_on_c, 0, 76, 100
2, 50688, Note_on_c, 0, 76, 0
2, 50688, Note_on_c, 0, 77, 100
2, 50880, Note_on_c, 0, 77, 0
2, 50880, Note_on_c, 0, 73, 100
2, 51072, Note_on_c, 0, 73, 0
2, 51072, Note_on_c, 0, 74, 100
2, 51264, Note_on_c, 0, 74, 0
2, 51264, Note_on_c, 0, 69, 100
2, 51456, Note_on_c, 0, 69, 0
2, 51456, Note_on_c, 0, 74, 100
2, 51648, Note_on_c, 0, 74, 0
2, 51648, Note_on_c, 0, 77, 100
2, 51840, Note_on_c, 0, 77, 0
2, 51840, Note_on_c, 0, 76, 100
2, 52032, Note_on_c, 0, 76, 0
2, 52032, Note_on_c, 0, 81, 100
2, 52224, Note_on_c, 0, 81, 0
2, 52224, Note_on_c, 0, 74, 100
2, 52416, Note_on_c, 0, 74, 0
2, 52416, Note_on_c, 0, 76, 100
2, 52608, Note_on_c, 0, 76, 0
2, 52608, Note_on_c, 0, 71, 100
2, 52800, Note_on_c, 0, 71, 0
2, 52800, Note_on_c, 0, 72, 100
2, 52992, Note_on_c, 0, 72, 0
2, 52992, Note_on_c, 0, 69, 100
2, 53184, Note_on_c, 0, 69, 0
2, 53184, Note_on_c, 0, 72, 100
2, 53376, Note_on_c, 0, 72, 0
2, 53376, Note_on_c, 0, 76, 100
2, 53568, Note_on_c, 0, 76, 0
2, 53568, Note_on_c, 0, 74, 100
2, 53760, Note_on_c, 0, 74, 0
2, 53760, Note_on_c, 0, 77, 100
2, 53856, Note_on_c, 0, 77, 0
2, 53856, Note_on_c, 0, 76, 100
2, 53952, Note_on_c, 0, 76, 0
2, 53952, Note_on_c, 0, 74, 100
2, 54048, Note_on_c, 0, 74, 0
2, 54048, Note_on_c, 0, 72, 100
2, 54144, Note_on_c, 0, 72, 0
2, 54144, Note_on_c, 0, 71, 100
2, 54336, Note_on_c, 0, 71, 0
2, 54336, Note_on_c, 0, 74, 100
2, 54432, Note_on_c, 0, 74, 0
2, 54432, Note_on_c, 0, 72, 100
2, 54528, Note_on_c, 0, 72, 0
2, 54528, Note_on_c, 0, 71, 100
2, 54624, Note_on_c, 0, 71, 0
2, 54624, Note_on_c, 0, 69, 100
2, 54720, Note_on_c, 0, 69, 0
2, 54720, Note_on_c, 0, 68, 100
2, 54912, Note_on_c, 0, 68, 0
2, 54912, Note_on_c, 0, 71, 100
2, 55008, Note_on_c, 0, 71, 0
2, 55008, Note_on_c, 0, 69, 100
2, 55104, Note_on_c, 0, 69, 0
2, 55104, Note_on_c, 0, 68, 100
2, 55200, Note_on_c, 0, 68, 0
2, 55200, Note_on_c, 0, 66, 100
2, 55296, Note_on_c, 0, 66, 0
2, 55296, Note_on_c, 0, 64, 100
2, 55968, Note_on_c, 0, 64, 0
2, 55968, Note_on_c, 0, 66, 100
2, 56064, Note_on_c, 0, 66, 0
2, 56064, Note_on_c, 0, 68, 100
2, 56160, Note_on_c, 0, 68, 0
2, 56160, Note_on_c, 0, 69, 100
2, 56256, Note_on_c, 0, 69, 0
2, 56256, Note_on_c, 0, 71, 100
2, 56352, Note_on_c, 0, 71, 0
2, 56352, Note_on_c, 0, 72, 100
2, 56448, Note_on_c, 0, 72, 0
2, 56448, Note_on_c, 0, 74, 100
2, 56640, Note_on_c, 0, 74, 0
2, 56640, Note_on_c, 0, 76, 100
2, 56736, Note_on_c, 0, 76, 0
2, 56736, Note_on_c, 0, 74, 100
2, 56832, Note_on_c, 0, 74, 0
2, 56832, Note_on_c, 0, 72, 100
2, 56928, Note_on_c, 0, 72, 0
2, 56928, Note_on_c, 0, 71, 100
2, 57024, Note_on_c, 0, 71, 0
2, 57024, Note_on_c, 0, 72, 100
2, 57216, Note_on_c, 0, 72, 0
2, 57216, Note_on_c, 0, 76, 100
2, 57408, Note_on_c, 0, 76, 0
2, 57408, Note_on_c, 0, 71, 100
2, 57600, Note_on_c, 0, 71, 0
2, 57600, Note_on_c, 0, 72, 100
2, 57792, Note_on_c, 0, 72, 0
2, 57792, Note_on_c, 0, 68, 100
2, 57984, Note_on_c, 0, 68, 0
2, 57984, Note_on_c, 0, 69, 100
2, 58176, Note_on_c, 0, 69, 0
2, 58176, Note_on_c, 0, 64, 100
2, 58368, Note_on_c, 0, 64, 0
2, 58368, Note_on_c, 0, 69, 100
2, 58560, Note_on_c, 0, 69, 0
2, 58560, Note_on_c, 0, 72, 100
2, 58752, Note_on_c, 0, 72, 0
2, 58752, Note_on_c, 0, 62, 100
2, 58944, Note_on_c, 0, 62, 0
2, 58944, Note_on_c, 0, 66, 100
2, 59136, Note_on_c, 0, 66, 0
2, 59136, Note_on_c, 0, 69, 100
2, 59328, Note_on_c, 0, 69, 0
2, 59328, Note_on_c, 0, 72, 100
2, 59520, Note_on_c, 0, 72, 0
2, 59520, Note_on_c, 0, 78, 100
2, 59712, Note_on_c, 0, 78, 0
2, 59712, Note_on_c, 0, 81, 100
2, 59904, Note_on_c, 0, 81, 0
2, 59904, Note_on_c, 0, 72, 100
2, 60096, Note_on_c, 0, 72, 0
2, 60096, Note_on_c, 0, 74, 100
2, 60192, Note_on_c, 0, 74, 0
2, 60192, Note_on_c, 0, 72, 100
2, 60288, Note_on_c, 0, 72, 0
2, 60288, Note_on_c, 0, 71, 100
2, 60384, Note_on_c, 0, 71, 0
2, 60384, Note_on_c, 0, 69, 100
2, 60480, Note_on_c, 0, 69, 0
2, 60480, Note_on_c, 0, 71, 100
2, 60672, Note_on_c, 0, 71, 0
2, 60672, Note_on_c, 0, 74, 100
2, 60864, Note_on_c, 0, 74, 0
2, 60864, Note_on_c, 0, 69, 100
2, 61056, Note_on_c, 0, 69, 0
2, 61056, Note_on_c, 0, 71, 100
2, 61248, Note_on_c, 0, 71, 0
2, 61248, Note_on_c, 0, 66, 100
2, 61440, Note_on_c, 0, 66, 0
2, 61440, Note_on_c, 0, 67, 100
2, 61632, Note_on_c, 0, 67, 0
2, 61632, Note_on_c, 0, 62, 100
2, 61824, Note_on_c, 0, 62, 0
2, 61824, Note_on_c, 0, 67, 100
2, 62016, Note_on_c, 0, 67, 0
2, 62016, Note_on_c, 0, 71, 100
2, 62208, Note_on_c, 0, 71, 0
2, 62208, Note_on_c, 0, 60, 100
2, 62400, Note_on_c, 0, 60, 0
2, 62400, Note_on_c, 0, 64, 100
2, 62592, Note_on_c, 0, 64, 0
2, 62592, Note_on_c, 0, 67, 100
2, 62784, Note_on_c, 0, 67, 0
2, 62784, Note_on_c, 0, 71, 100
2, 62976, Note_on_c, 0, 71, 0
2, 62976, Note_on_c, 0, 76, 100
2, 63168, Note_on_c, 0, 76, 0
2, 63168, Note_on_c, 0, 79, 100
2, 63360, Note_on_c, 0, 79, 0
2, 63360, Note_on_c, 0, 71, 100
2, 63552, Note_on_c, 0, 71, 0
2, 63552, Note_on_c, 0, 72, 100
2, 63648, Note_on_c, 0, 72, 0
2, 63648, Note_on_c, 0, 71, 100
2, 63744, Note_on_c, 0, 71, 0
2, 63744, Note_on_c, 0, 69, 100
2, 63840, Note_on_c, 0, 69, 0
2, 63840, Note_on_c, 0, 67, 100
2, 63936, Note_on_c, 0, 67, 0
2, 63936, Note_on_c, 0, 69, 100
2, 64128, Note_on_c, 0, 69, 0
2, 64128, Note_on_c, 0, 72, 100
2, 64320, Note_on_c, 0, 72, 0
2, 64320, Note_on_c, 0, 67, 100
2, 64512, Note_on_c, 0, 67, 0
2, 64512, Note_on_c, 0, 69, 100
2, 64704, Note_on_c, 0, 69, 0
2, 64704, Note_on_c, 0, 64, 100
2, 64896, Note_on_c, 0, 64, 0
2, 64896, Note_on_c, 0, 66, 100
2, 65088, Note_on_c, 0, 66, 0
2, 65088, Note_on_c, 0, 60, 100
2, 65280, Note_on_c, 0, 60, 0
2, 65280, Note_on_c, 0, 66, 100
2, 65472, Note_on_c, 0, 66, 0
2, 65472, Note_on_c, 0, 69, 100
2, 65664, Note_on_c, 0, 69, 0
2, 65664, Note_on_c, 0, 59, 100
2, 65856, Note_on_c, 0, 59, 0
2, 65856, Note_on_c, 0, 63, 100
2, 66048, Note_on_c, 0, 63, 0
2, 66048, Note_on_c, 0, 66, 100
2, 66240, Note_on_c, 0, 66, 0
2, 66240, Note_on_c, 0, 69, 100
2, 66432, Note_on_c, 0, 69, 0
2, 66432, Note_on_c, 0, 75, 100
2, 66624, Note_on_c, 0, 75, 0
2, 66624, Note_on_c, 0, 78, 100
2, 66816, Note_on_c, 0, 78, 0
2, 66816, Note_on_c, 0, 69, 100
2, 67008, Note_on_c, 0, 69, 0
2, 67008, Note_on_c, 0, 71, 100
2, 67104, Note_on_c, 0, 71, 0
2, 67104, Note_on_c, 0, 69, 100
2, 67200, Note_on_c, 0, 69, 0
2, 67200, Note_on_c, 0, 67, 100
2, 67296, Note_on_c, 0, 67, 0
2, 67296, Note_on_c, 0, 66, 100
2, 67392, Note_on_c, 0, 66, 0
2, 67392, Note_on_c, 0, 67, 100
2, 67584, Note_on_c, 0, 67, 0
2, 67584, Note_on_c, 0, 71, 100
2, 67776, Note_on_c, 0, 71, 0
2, 67776, Note_on_c, 0, 66, 100
2, 67968, Note_on_c, 0, 66, 0
2, 67968, Note_on_c, 0, 67, 100
2, 68160, Note_on_c, 0, 67, 0
2, 68160, Note_on_c, 0, 71, 100
2, 68352, Note_on_c, 0, 71, 0
2, 68352, Note_on_c, 0, 75, 100
2, 68544, Note_on_c, 0, 75, 0
2, 68544, Note_on_c, 0, 75, 100
2, 68928, Note_on_c, 0, 75, 0
2, 68928, Note_on_c, 0, 76, 100
2, 69120, Note_on_c, 0, 76, 0
2, 69120, Note_on_c, 0, 69, 100
2, 69312, Note_on_c, 0, 69, 0
2, 69312, Note_on_c, 0, 72, 100
2, 69504, Note_on_c, 0, 72, 0
2, 69504, Note_on_c, 0, 68, 100
2, 69696, Note_on_c, 0, 68, 0
2, 69696, Note_on_c, 0, 69, 100
2, 69888, Note_on_c, 0, 69, 0
2, 69888, Note_on_c, 0, 72, 100
2, 70080, Note_on_c, 0, 72, 0
2, 70080, Note_on_c, 0, 75, 100
2, 70272, Note_on_c, 0, 75, 0
2, 70272, Note_on_c, 0, 75, 100
2, 70656, Note_on_c, 0, 75, 0
2, 70656, Note_on_c, 0, 76, 100
2, 70848, Note_on_c, 0, 76, 0
2, 70848, Note_on_c, 0, 71, 100
2, 71040, Note_on_c, 0, 71, 0
2, 71040, Note_on_c, 0, 76, 100
2, 71232, Note_on_c, 0, 76, 0
2, 71232, Note_on_c, 0, 79, 100
2, 71424, Note_on_c, 0, 79, 0
2, 71424, Note_on_c, 0, 83, 100
2, 71616, Note_on_c, 0, 83, 0
2, 71616, Note_on_c, 0, 81, 100
2, 71808, Note_on_c, 0, 81, 0
2, 71808, Note_on_c, 0, 79, 100
2, 72000, Note_on_c, 0, 79, 0
2, 72000, Note_on_c, 0, 78, 100
2, 72192, Note_on_c, 0, 78, 0
2, 72192, Note_on_c, 0, 79, 100
2, 72384, Note_on_c, 0, 79, 0
2, 72384, Note_on_c, 0, 76, 100
2, 72576, Note_on_c, 0, 76, 0
2, 72576, Note_on_c, 0, 75, 100
2, 72768, Note_on_c, 0, 75, 0
2, 72768, Note_on_c, 0, 71, 100
2, 72864, Note_on_c, 0, 71, 0
2, 72864, Note_on_c, 0, 73, 100
2, 72960, Note_on_c, 0, 73, 0
2, 72960, Note_on_c, 0, 75, 100
2, 73056, Note_on_c, 0, 75, 0
2, 73056, Note_on_c, 0, 76, 100
2, 73152, Note_on_c, 0, 76, 0
2, 73152, Note_on_c, 0, 78, 100
2, 73344, Note_on_c, 0, 78, 0
2, 73344, Note_on_c, 0, 75, 100
2, 73440, Note_on_c, 0, 75, 0
2, 73440, Note_on_c, 0, 76, 100
2, 73536, Note_on_c, 0, 76, 0
2, 73536, Note_on_c, 0, 78, 100
2, 73632, Note_on_c, 0, 78, 0
2, 73632, Note_on_c, 0, 79, 100
2, 73728, Note_on_c, 0, 79, 0
2, 73728, Note_on_c, 0, 81, 100
2, 73920, Note_on_c, 0, 81, 0
2, 73920, Note_on_c, 0, 83, 100
2, 74016, Note_on_c, 0, 83, 0
2, 74016, Note_on_c, 0, 81, 100
2, 74112, Note_on_c, 0, 81, 0
2, 74112, Note_on_c, 0, 79, 100
2, 74208, Note_on_c, 0, 79, 0
2, 74208, Note_on_c, 0, 78, 100
2, 74304, Note_on_c, 0, 78, 0
2, 74304, Note_on_c, 0, 79, 100
2, 74592, Note_on_c, 0, 79, 0
2, 74592, Note_on_c, 0, 78, 100
2, 74688, Note_on_c, 0, 78, 0
2, 74688, Note_on_c, 0, 76, 100
2, 74784, Note_on_c, 0, 76, 0
2, 74784, Note_on_c, 0, 75, 100
2, 74880, Note_on_c, 0, 75, 0
2, 74880, Note_on_c, 0, 76, 100
2, 75648, Note_on_c, 0, 76, 0
2, 75648, Note_on_c, 0, 79, 100
2, 75744, Note_on_c, 0, 79, 0
2, 75744, Note_on_c, 0, 78, 100
2, 75840, Note_on_c, 0, 78, 0
2, 75840, Note_on_c, 0, 76, 100
2, 75936, Note_on_c, 0, 76, 0
2, 75936, Note_on_c, 0, 75, 100
2, 76032, Note_on_c, 0, 75, 0
2, 76032, Note_on_c, 0, 76, 100
2, 76416, Note_on_c, 0, 76, 0
2, 79488, Note_on_c, 0, 76, 100
2, 79680, Note_on_c, 0, 76, 0
2, 79680, Note_on_c, 0, 71, 100
2, 79872, Note_on_c, 0, 71, 0
2, 79872, Note_on_c, 0, 67, 100
2, 80064, Note_on_c, 0, 67, 0
2, 80064, Note_on_c, 0, 64, 100
2, 80256, Note_on_c, 0, 64, 0
2, 80256, Note_on_c, 0, 67, 100
2, 80448, Note_on_c, 0, 67, 0
2, 80448, Note_on_c, 0, 71, 100
2, 80640, Note_on_c, 0, 71, 0
2, 80640, Note_on_c, 0, 76, 100
2, 80832, Note_on_c, 0, 76, 0
2, 80832, Note_on_c, 0, 78, 100
2, 81024, Note_on_c, 0, 78, 0
2, 81024, Note_on_c, 0, 79, 100
2, 81216, Note_on_c, 0, 79, 0
2, 81216, Note_on_c, 0, 79, 100
2, 81264, Note_on_c, 0, 79, 0
2, 81264, Note_on_c, 0, 81, 100
2, 81312, Note_on_c, 0, 81, 0
2, 81312, Note_on_c, 0, 79, 100
2, 81360, Note_on_c, 0, 79, 0
2, 81360, Note_on_c, 0, 81, 100
2, 81408, Note_on_c, 0, 81, 0
2, 81408, Note_on_c, 0, 79, 100
2, 81456, Note_on_c, 0, 79, 0
2, 81456, Note_on_c, 0, 81, 100
2, 81504, Note_on_c, 0, 81, 0
2, 81504, Note_on_c, 0, 79, 100
2, 81552, Note_on_c, 0, 79, 0
2, 81552, Note_on_c, 0, 81, 100
2, 81600, Note_on_c, 0, 81, 0
2, 81600, Note_on_c, 0, 78, 100
2, 81792, Note_on_c, 0, 78, 0
2, 81792, Note_on_c, 0, 82, 100
2, 82752, Note_on_c, 0, 82, 0
2, 82752, Note_on_c, 0, 83, 100
2, 82944, Note_on_c, 0, 83, 0
2, 82944, Note_on_c, 0, 78, 100
2, 83136, Note_on_c, 0, 78, 0
2, 83136, Note_on_c, 0, 75, 100
2, 83328, Note_on_c, 0, 75, 0
2, 83328, Note_on_c, 0, 71, 100
2, 83520, Note_on_c, 0, 71, 0
2, 83520, Note_on_c, 0, 66, 100
2, 83712, Note_on_c, 0, 66, 0
2, 83712, Note_on_c, 0, 71, 100
2, 83904, Note_on_c, 0, 71, 0
2, 83904, Note_on_c, 0, 75, 100
2, 84096, Note_on_c, 0, 75, 0
2, 84096, Note_on_c, 0, 78, 100
2, 84288, Note_on_c, 0, 78, 0
2, 84288, Note_on_c, 0, 79, 100
2, 84480, Note_on_c, 0, 79, 0
2, 84480, Note_on_c, 0, 81, 100
2, 84672, Note_on_c, 0, 81, 0
2, 84672, Note_on_c, 0, 81, 100
2, 84720, Note_on_c, 0, 81, 0
2, 84720, Note_on_c, 0, 83, 100
2, 84768, Note_on_c, 0, 83, 0
2, 84768, Note_on_c, 0, 81, 100
2, 84816, Note_on_c, 0, 81, 0
2, 84816, Note_on_c, 0, 83, 100
2, 84864, Note_on_c, 0, 83, 0
2, 84864, Note_on_c, 0, 81, 100
2, 84912, Note_on_c, 0, 81, 0
2, 84912, Note_on_c, 0, 83, 100
2, 84960, Note_on_c, 0, 83, 0
2, 84960, Note_on_c, 0, 81, 100
2, 85008, Note_on_c, 0, 81, 0
2, 85008, Note_on_c, 0, 83, 100
2, 85056, Note_on_c, 0, 83, 0
2, 85056, Note_on_c, 0, 79, 100
2, 85248, Note_on_c, 0, 79, 0
2, 85248, Note_on_c, 0, 87, 100
2, 86208, Note_on_c, 0, 87, 0
2, 86208, Note_on_c, 0, 88, 100
2, 86400, Note_on_c, 0, 88, 0
2, 86400, Note_on_c, 0, 84, 100
2, 86592, Note_on_c, 0, 84, 0
2, 86592, Note_on_c, 0, 88, 100
2, 86784, Note_on_c, 0, 88, 0
2, 86784, Note_on_c, 0, 83, 100
2, 86976, Note_on_c, 0, 83, 0
2, 86976, Note_on_c, 0, 84, 100
2, 87168, Note_on_c, 0, 84, 0
2, 87168, Note_on_c, 0, 80, 100
2, 87360, Note_on_c, 0, 80, 0
2, 87360, Note_on_c, 0, 81, 100
2, 87552, Note_on_c, 0, 81, 0
2, 87552, Note_on_c, 0, 76, 100
2, 87744, Note_on_c, 0, 76, 0
2, 87744, Note_on_c, 0, 81, 100
2, 87936, Note_on_c, 0, 81, 0
2, 87936, Note_on_c, 0, 84, 100
2, 88128, Note_on_c, 0, 84, 0
2, 88128, Note_on_c, 0, 83, 100
2, 88320, Note_on_c, 0, 83, 0
2, 88320, Note_on_c, 0, 88, 100
2, 88512, Note_on_c, 0, 88, 0
2, 88512, Note_on_c, 0, 81, 100
2, 88704, Note_on_c, 0, 81, 0
2, 88704, Note_on_c, 0, 83, 100
2, 88896, Note_on_c, 0, 83, 0
2, 88896, Note_on_c, 0, 78, 100
2, 89088, Note_on_c, 0, 78, 0
2, 89088, Note_on_c, 0, 79, 100
2, 89280, Note_on_c, 0, 79, 0
2, 89280, Note_on_c, 0, 76, 100
2, 89472, Note_on_c, 0, 76, 0
2, 89472, Note_on_c, 0, 79, 100
2, 89664, Note_on_c, 0, 79, 0
2, 89664, Note_on_c, 0, 83, 100
2, 89856, Note_on_c, 0, 83, 0
2, 89856, Note_on_c, 0, 84, 100
2, 89952, Note_on_c, 0, 84, 0
2, 89952, Note_on_c, 0, 83, 100
2, 90048, Note_on_c, 0, 83, 0
2, 90048, Note_on_c, 0, 81, 100
2, 90144, Note_on_c, 0, 81, 0
2, 90144, Note_on_c, 0, 79, 100
2, 90240, Note_on_c, 0, 79, 0
2, 90240, Note_on_c, 0, 78, 100
2, 90336, Note_on_c, 0, 78, 0
2, 90336, Note_on_c, 0, 76, 100
2, 90432, Note_on_c, 0, 76, 0
2, 90432, Note_on_c, 0, 76, 100
2, 90528, Note_on_c, 0, 76, 0
2, 90528, Note_on_c, 0, 75, 100
2, 91104, Note_on_c, 0, 75, 0
2, 91104, Note_on_c, 0, 79, 100
2, 91200, Note_on_c, 0, 79, 0
2, 91200, Note_on_c, 0, 78, 100
2, 91296, Note_on_c, 0, 78, 0
2, 91296, Note_on_c, 0, 76, 100
2, 91392, Note_on_c, 0, 76, 0
2, 91392, Note_on_c, 0, 75, 100
2, 91488, Note_on_c, 0, 75, 0
2, 91488, Note_on_c, 0, 73, 100
2, 91584, Note_on_c, 0, 73, 0
2, 91584, Note_on_c, 0, 73, 100
2, 91680, Note_on_c, 0, 73, 0
2, 91680, Note_on_c, 0, 71, 100
2, 92256, Note_on_c, 0, 71, 0
2, 92256, Note_on_c, 0, 73, 100
2, 92352, Note_on_c, 0, 73, 0
2, 92352, Note_on_c, 0, 75, 100
2, 92448, Note_on_c, 0, 75, 0
2, 92448, Note_on_c, 0, 76, 100
2, 92544, Note_on_c, 0, 76, 0
2, 92544, Note_on_c, 0, 78, 100
2, 92640, Note_on_c, 0, 78, 0
2, 92640, Note_on_c, 0, 79, 100
2, 92736, Note_on_c, 0, 79, 0
2, 92736, Note_on_c, 0, 81, 100
2, 92928, Note_on_c, 0, 81, 0
2, 92928, Note_on_c, 0, 83, 100
2, 93024, Note_on_c, 0, 83, 0
2, 93024, Note_on_c, 0, 81, 100
2, 93120, Note_on_c, 0, 81, 0
2, 93120, Note_on_c, 0, 79, 100
2, 93216, Note_on_c, 0, 79, 0
2, 93216, Note_on_c, 0, 78, 100
2, 93312, Note_on_c, 0, 78, 0
2, 93312, Note_on_c, 0, 79, 100
2, 93504, Note_on_c, 0, 79, 0
2, 93504, Note_on_c, 0, 83, 100
2, 93696, Note_on_c, 0, 83, 0
2, 93696, Note_on_c, 0, 78, 100
2, 93888, Note_on_c, 0, 78, 0
2, 93888, Note_on_c, 0, 79, 100
2, 94080, Note_on_c, 0, 79, 0
2, 94080, Note_on_c, 0, 75, 100
2, 94272, Note_on_c, 0, 75, 0
2, 94272, Note_on_c, 0, 76, 100
2, 94464, Note_on_c, 0, 76, 0
2, 94464, Note_on_c, 0, 71, 100
2, 94656, Note_on_c, 0, 71, 0
2, 94656, Note_on_c, 0, 76, 100
2, 94848, Note_on_c, 0, 76, 0
2, 94848, Note_on_c, 0, 79, 100
2, 95040, Note_on_c, 0, 79, 0
2, 95040, Note_on_c, 0, 69, 100
2, 95232, Note_on_c, 0, 69, 0
2, 95232, Note_on_c, 0, 73, 100
2, 95424, Note_on_c, 0, 73, 0
2, 95424, Note_on_c, 0, 76, 100
2, 95616, Note_on_c, 0, 76, 0
2, 95616, Note_on_c, 0, 79, 100
2, 95808, Note_on_c, 0, 79, 0
2, 95808, Note_on_c, 0, 85, 100
2, 96000, Note_on_c, 0, 85, 0
2, 96000, Note_on_c, 0, 88, 100
2, 96192, Note_on_c, 0, 88, 0
2, 96192, Note_on_c, 0, 79, 100
2, 96384, Note_on_c, 0, 79, 0
2, 96384, Note_on_c, 0, 81, 100
2, 96480, Note_on_c, 0, 81, 0
2, 96480, Note_on_c, 0, 79, 100
2, 96576, Note_on_c, 0, 79, 0
2, 96576, Note_on_c, 0, 77, 100
2, 96672, Note_on_c, 0, 77, 0
2, 96672, Note_on_c, 0, 76, 100
2, 96768, Note_on_c, 0, 76, 0
2, 96768, Note_on_c, 0, 77, 100
2, 96960, Note_on_c, 0, 77, 0
2, 96960, Note_on_c, 0, 81, 100
2, 97152, Note_on_c, 0, 81, 0
2, 97152, Note_on_c, 0, 76, 100
2, 97344, Note_on_c, 0, 76, 0
2, 97344, Note_on_c, 0, 77, 100
2, 97536, Note_on_c, 0, 77, 0
2, 97536, Note_on_c, 0, 73, 100
2, 97728, Note_on_c, 0, 73, 0
2, 97728, Note_on_c, 0, 74, 100
2, 97920, Note_on_c, 0, 74, 0
2, 97920, Note_on_c, 0, 69, 100
2, 98112, Note_on_c, 0, 69, 0
2, 98112, Note_on_c, 0, 74, 100
2, 98304, Note_on_c, 0, 74, 0
2, 98304, Note_on_c, 0, 77, 100
2, 98496, Note_on_c, 0, 77, 0
2, 98496, Note_on_c, 0, 67, 100
2, 98688, Note_on_c, 0, 67, 0
2, 98688, Note_on_c, 0, 71, 100
2, 98880, Note_on_c, 0, 71, 0
2, 98880, Note_on_c, 0, 74, 100
2, 99072, Note_on_c, 0, 74, 0
2, 99072, Note_on_c, 0, 77, 100
2, 99264, Note_on_c, 0, 77, 0
2, 99264, Note_on_c, 0, 83, 100
2, 99456, Note_on_c, 0, 83, 0
2, 99456, Note_on_c, 0, 86, 100
2, 99648, Note_on_c, 0, 86, 0
2, 99648, Note_on_c, 0, 77, 100
2, 99840, Note_on_c, 0, 77, 0
2, 99840, Note_on_c, 0, 79, 100
2, 99936, Note_on_c, 0, 79, 0
2, 99936, Note_on_c, 0, 77, 100
2, 100032, Note_on_c, 0, 77, 0
2, 100032, Note_on_c, 0, 76, 100
2, 100128, Note_on_c, 0, 76, 0
2, 100128, Note_on_c, 0, 74, 100
2, 100224, Note_on_c, 0, 74, 0
2, 100224, Note_on_c, 0, 76, 100
2, 100416, Note_on_c, 0, 76, 0
2, 100416, Note_on_c, 0, 79, 100
2, 100608, Note_on_c, 0, 79, 0
2, 100608, Note_on_c, 0, 74, 100
2, 100800, Note_on_c, 0, 74, 0
2, 100800, Note_on_c, 0, 76, 100
2, 100992, Note_on_c, 0, 76, 0
2, 100992, Note_on_c, 0, 79, 100
2, 101184, Note_on_c, 0, 79, 0
2, 101184, Note_on_c, 0, 83, 100
2, 101376, Note_on_c, 0, 83, 0
2, 101376, Note_on_c, 0, 83, 100
2, 101760, Note_on_c, 0, 83, 0
2, 101760, Note_on_c, 0, 84, 100
2, 101952, Note_on_c, 0, 84, 0
2, 101952, Note_on_c, 0, 77, 100
2, 102144, Note_on_c, 0, 77, 0
2, 102144, Note_on_c, 0, 81, 100
2, 102336, Note_on_c, 0, 81, 0
2, 102336, Note_on_c, 0, 76, 100
2, 102528, Note_on_c, 0, 76, 0
2, 102528, Note_on_c, 0, 77, 100
2, 102720, Note_on_c, 0, 77, 0
2, 102720, Note_on_c, 0, 81, 100
2, 102912, Note_on_c, 0, 81, 0
2, 102912, Note_on_c, 0, 83, 100
2, 103104, Note_on_c, 0, 83, 0
2, 103104, Note_on_c, 0, 83, 100
2, 103488, Note_on_c, 0, 83, 0
2, 103488, Note_on_c, 0, 84, 100
2, 103680, Note_on_c, 0, 84, 0
2, 103680, Note_on_c, 0, 79, 100
2, 105792, Note_on_c, 0, 79, 0
2, 105792, Note_on_c, 0, 67, 100
2, 105984, Note_on_c, 0, 67, 0
2, 105984, Note_on_c, 0, 76, 100
2, 106176, Note_on_c, 0, 76, 0
2, 106176, Note_on_c, 0, 74, 100
2, 106368, Note_on_c, 0, 74, 0
2, 106368, Note_on_c, 0, 72, 100
2, 106560, Note_on_c, 0, 72, 0
2, 106560, Note_on_c, 0, 79, 100
2, 106944, Note_on_c, 0, 79, 0
2, 106944, Note_on_c, 0, 67, 100
2, 107136, Note_on_c, 0, 67, 0
2, 107136, Note_on_c, 0, 79, 100
2, 109248, Note_on_c, 0, 79, 0
2, 109248, Note_on_c, 0, 67, 100
2, 109440, Note_on_c, 0, 67, 0
2, 109440, Note_on_c, 0, 72, 100
2, 109824, Note_on_c, 0, 72, 0
2, 109824, Note_on_c, 0, 76, 100
2, 110016, Note_on_c, 0, 76, 0
2, 110016, Note_on_c, 0, 78, 100
2, 110208, Note_on_c, 0, 78, 0
2, 110208, Note_on_c, 0, 79, 100
2, 110400, Note_on_c, 0, 79, 0
2, 110400, Note_on_c, 0, 81, 100
2, 110592, Note_on_c, 0, 81, 0
2, 110592, Note_on_c, 0, 71, 100
2, 110784, Note_on_c, 0, 71, 0
2, 110784, Note_on_c, 0, 69, 100
2, 110976, Note_on_c, 0, 69, 0
2, 110976, Note_on_c, 0, 67, 100
2, 111168, Note_on_c, 0, 67, 0
2, 111168, Note_on_c, 0, 86, 100
2, 112704, Note_on_c, 0, 86, 0
2, 112704, Note_on_c, 0, 74, 100
2, 112896, Note_on_c, 0, 74, 0
2, 112896, Note_on_c, 0, 83, 100
2, 113088, Note_on_c, 0, 83, 0
2, 113088, Note_on_c, 0, 81, 100
2, 113280, Note_on_c, 0, 81, 0
2, 113280, Note_on_c, 0, 79, 100
2, 113472, Note_on_c, 0, 79, 0
2, 113472, Note_on_c, 0, 86, 100
2, 113856, Note_on_c, 0, 86, 0
2, 113856, Note_on_c, 0, 74, 100
2, 114048, Note_on_c, 0, 74, 0
2, 114048, Note_on_c, 0, 86, 100
2, 116160, Note_on_c, 0, 86, 0
2, 116160, Note_on_c, 0, 74, 100
2, 116352, Note_on_c, 0, 74, 0
2, 116352, Note_on_c, 0, 71, 100
2, 116544, Note_on_c, 0, 71, 0
2, 116544, Note_on_c, 0, 74, 100
2, 116736, Note_on_c, 0, 74, 0
2, 116736, Note_on_c, 0, 79, 100
2, 116928, Note_on_c, 0, 79, 0
2, 116928, Note_on_c, 0, 82, 100
2, 117120, Note_on_c, 0, 82, 0
2, 117120, Note_on_c, 0, 81, 100
2, 117312, Note_on_c, 0, 81, 0
2, 117312, Note_on_c, 0, 79, 100
2, 117504, Note_on_c, 0, 79, 0
2, 117504, Note_on_c, 0, 77, 100
2, 117696, Note_on_c, 0, 77, 0
2, 117696, Note_on_c, 0, 76, 100
2, 117888, Note_on_c, 0, 76, 0
2, 117888, Note_on_c, 0, 77, 100
2, 118080, Note_on_c, 0, 77, 0
2, 118080, Note_on_c, 0, 74, 100
2, 118272, Note_on_c, 0, 74, 0
2, 118272, Note_on_c, 0, 77, 100
2, 118464, Note_on_c, 0, 77, 0
2, 118464, Note_on_c, 0, 81, 100
2, 118656, Note_on_c, 0, 81, 0
2, 118656, Note_on_c, 0, 86, 100
2, 118848, Note_on_c, 0, 86, 0
2, 118848, Note_on_c, 0, 84, 100
2, 119040, Note_on_c, 0, 84, 0
2, 119040, Note_on_c, 0, 83, 100
2, 119232, Note_on_c, 0, 83, 0
2, 119232, Note_on_c, 0, 84, 100
2, 119424, Note_on_c, 0, 84, 0
2, 119424, Note_on_c, 0, 83, 100
2, 119616, Note_on_c, 0, 83, 0
2, 119616, Note_on_c, 0, 81, 100
2, 119808, Note_on_c, 0, 81, 0
2, 119808, Note_on_c, 0, 79, 100
2, 120000, Note_on_c, 0, 79, 0
2, 120000, Note_on_c, 0, 77, 100
2, 120192, Note_on_c, 0, 77, 0
2, 120192, Note_on_c, 0, 76, 100
2, 120384, Note_on_c, 0, 76, 0
2, 120384, Note_on_c, 0, 74, 100
2, 120576, Note_on_c, 0, 74, 0
2, 120576, Note_on_c, 0, 76, 100
2, 120768, Note_on_c, 0, 76, 0
2, 120768, Note_on_c, 0, 77, 100
2, 120960, Note_on_c, 0, 77, 0
2, 120960, Note_on_c, 0, 76, 100
2, 121152, Note_on_c, 0, 76, 0
2, 121152, Note_on_c, 0, 74, 100
2, 121344, Note_on_c, 0, 74, 0
2, 121344, Note_on_c, 0, 76, 100
2, 121536, Note_on_c, 0, 76, 0
2, 121536, Note_on_c, 0, 72, 100
2, 121728, Note_on_c, 0, 72, 0
2, 121728, Note_on_c, 0, 74, 100
2, 121920, Note_on_c, 0, 74, 0
2, 121920, Note_on_c, 0, 76, 100
2, 122112, Note_on_c, 0, 76, 0
2, 122112, Note_on_c, 0, 67, 100
2, 122304, Note_on_c, 0, 67, 0
2, 122304, Note_on_c, 0, 72, 100
2, 122496, Note_on_c, 0, 72, 0
2, 122496, Note_on_c, 0, 76, 100
2, 122688, Note_on_c, 0, 76, 0
2, 122688, Note_on_c, 0, 74, 100
2, 122880, Note_on_c, 0, 74, 0
2, 122880, Note_on_c, 0, 72, 100
2, 123072, Note_on_c, 0, 72, 0
2, 123072, Note_on_c, 0, 74, 100
2, 123264, Note_on_c, 0, 74, 0
2, 123264, Note_on_c, 0, 71, 100
2, 123456, Note_on_c, 0, 71, 0
2, 123456, Note_on_c, 0, 72, 100
2, 123648, Note_on_c, 0, 72, 0
2, 123648, Note_on_c, 0, 74, 100
2, 123840, Note_on_c, 0, 74, 0
2, 123840, Note_on_c, 0, 67, 100
2, 124032, Note_on_c, 0, 67, 0
2, 124032, Note_on_c, 0, 74, 100
2, 124224, Note_on_c, 0, 74, 0
2, 124224, Note_on_c, 0, 77, 100
2, 124416, Note_on_c, 0, 77, 0
2, 124416, Note_on_c, 0, 76, 100
2, 124608, Note_on_c, 0, 76, 0
2, 124608, Note_on_c, 0, 74, 100
2, 124800, Note_on_c, 0, 74, 0
2, 124800, Note_on_c, 0, 76, 100
2, 124992, Note_on_c, 0, 76, 0
2, 124992, Note_on_c, 0, 72, 100
2, 125184, Note_on_c, 0, 72, 0
2, 125184, Note_on_c, 0, 76, 100
2, 125376, Note_on_c, 0, 76, 0
2, 125376, Note_on_c, 0, 79, 100
2, 125568, Note_on_c, 0, 79, 0
2, 125568, Note_on_c, 0, 82, 100
2, 125760, Note_on_c, 0, 82, 0
2, 125760, Note_on_c, 0, 81, 100
2, 125952, Note_on_c, 0, 81, 0
2, 125952, Note_on_c, 0, 79, 100
2, 126144, Note_on_c, 0, 79, 0
2, 126144, Note_on_c, 0, 81, 100
2, 126336, Note_on_c, 0, 81, 0
2, 126336, Note_on_c, 0, 79, 100
2, 126528, Note_on_c, 0, 79, 0
2, 126528, Note_on_c, 0, 81, 100
2, 126720, Note_on_c, 0, 81, 0
2, 126720, Note_on_c, 0, 76, 100
2, 126912, Note_on_c, 0, 76, 0
2, 126912, Note_on_c, 0, 77, 100
2, 127104, Note_on_c, 0, 77, 0
2, 127104, Note_on_c, 0, 79, 100
2, 127296, Note_on_c, 0, 79, 0
2, 127296, Note_on_c, 0, 69, 100
2, 127488, Note_on_c, 0, 69, 0
2, 127488, Note_on_c, 0, 76, 100
2, 127680, Note_on_c, 0, 76, 0
2, 127680, Note_on_c, 0, 79, 100
2, 127872, Note_on_c, 0, 79, 0
2, 127872, Note_on_c, 0, 77, 100
2, 128064, Note_on_c, 0, 77, 0
2, 128064, Note_on_c, 0, 76, 100
2, 128256, Note_on_c, 0, 76, 0
2, 128256, Note_on_c, 0, 77, 100
2, 128448, Note_on_c, 0, 77, 0
2, 128448, Note_on_c, 0, 74, 100
2, 128640, Note_on_c, 0, 74, 0
2, 128640, Note_on_c, 0, 78, 100
2, 128832, Note_on_c, 0, 78, 0
2, 128832, Note_on_c, 0, 81, 100
2, 129024, Note_on_c, 0, 81, 0
2, 129024, Note_on_c, 0, 84, 100
2, 129216, Note_on_c, 0, 84, 0
2, 129216, Note_on_c, 0, 83, 100
2, 129408, Note_on_c, 0, 83, 0
2, 129408, Note_on_c, 0, 81, 100
2, 129600, Note_on_c, 0, 81, 0
2, 129600, Note_on_c, 0, 83, 100
2, 129792, Note_on_c, 0, 83, 0
2, 129792, Note_on_c, 0, 81, 100
2, 129984, Note_on_c, 0, 81, 0
2, 129984, Note_on_c, 0, 83, 100
2, 130176, Note_on_c, 0, 83, 0
2, 130176, Note_on_c, 0, 78, 100
2, 130368, Note_on_c, 0, 78, 0
2, 130368, Note_on_c, 0, 79, 100
2, 130560, Note_on_c, 0, 79, 0
2, 130560, Note_on_c, 0, 81, 100
2, 130752, Note_on_c, 0, 81, 0
2, 130752, Note_on_c, 0, 71, 100
2, 130944, Note_on_c, 0, 71, 0
2, 130944, Note_on_c, 0, 78, 100
2, 131136, Note_on_c, 0, 78, 0
2, 131136, Note_on_c, 0, 81, 100
2, 131328, Note_on_c, 0, 81, 0
2, 131328, Note_on_c, 0, 79, 100
2, 131520, Note_on_c, 0, 79, 0
2, 131520, Note_on_c, 0, 78, 100
2, 131712, Note_on_c, 0, 78, 0
2, 131712, Note_on_c, 0, 79, 100
2, 131904, Note_on_c, 0, 79, 0
2, 131904, Note_on_c, 0, 76, 100
2, 132096, Note_on_c, 0, 76, 0
2, 132096, Note_on_c, 0, 80, 100
2, 132288, Note_on_c, 0, 80, 0
2, 132288, Note_on_c, 0, 83, 100
2, 132480, Note_on_c, 0, 83, 0
2, 132480, Note_on_c, 0, 86, 100
2, 132672, Note_on_c, 0, 86, 0
2, 132672, Note_on_c, 0, 84, 100
2, 132864, Note_on_c, 0, 84, 0
2, 132864, Note_on_c, 0, 83, 100
2, 133056, Note_on_c, 0, 83, 0
2, 133056, Note_on_c, 0, 84, 100
2, 133248, Note_on_c, 0, 84, 0
2, 133248, Note_on_c, 0, 83, 100
2, 133440, Note_on_c, 0, 83, 0
2, 133440, Note_on_c, 0, 84, 100
2, 133632, Note_on_c, 0, 84, 0
2, 133632, Note_on_c, 0, 79, 100
2, 133824, Note_on_c, 0, 79, 0
2, 133824, Note_on_c, 0, 81, 100
2, 134016, Note_on_c, 0, 81, 0
2, 134016, Note_on_c, 0, 82, 100
2, 134208, Note_on_c, 0, 82, 0
2, 134208, Note_on_c, 0, 72, 100
2, 134400, Note_on_c, 0, 72, 0
2, 134400, Note_on_c, 0, 79, 100
2, 134592, Note_on_c, 0, 79, 0
2, 134592, Note_on_c, 0, 82, 100
2, 134784, Note_on_c, 0, 82, 0
2, 134784, Note_on_c, 0, 81, 100
2, 134976, Note_on_c, 0, 81, 0
2, 134976, Note_on_c, 0, 79, 100
2, 135168, Note_on_c, 0, 79, 0
2, 135168, Note_on_c, 0, 81, 100
2, 135360, Note_on_c, 0, 81, 0
2, 135360, Note_on_c, 0, 77, 100
2, 135552, Note_on_c, 0, 77, 0
2, 135552, Note_on_c, 0, 81, 100
2, 135744, Note_on_c, 0, 81, 0
2, 135744, Note_on_c, 0, 84, 100
2, 135936, Note_on_c, 0, 84, 0
2, 135936, Note_on_c, 0, 88, 100
2, 136128, Note_on_c, 0, 88, 0
2, 136128, Note_on_c, 0, 86, 100
2, 136320, Note_on_c, 0, 86, 0
2, 136320, Note_on_c, 0, 84, 100
2, 136512, Note_on_c, 0, 84, 0
2, 136512, Note_on_c, 0, 86, 100
2, 136704, Note_on_c, 0, 86, 0
2, 136704, Note_on_c, 0, 84, 100
2, 136896, Note_on_c, 0, 84, 0
2, 136896, Note_on_c, 0, 86, 100
2, 137088, Note_on_c, 0, 86, 0
2, 137088, Note_on_c, 0, 81, 100
2, 137280, Note_on_c, 0, 81, 0
2, 137280, Note_on_c, 0, 83, 100
2, 137472, Note_on_c, 0, 83, 0
2, 137472, Note_on_c, 0, 84, 100
2, 137664, Note_on_c, 0, 84, 0
2, 137664, Note_on_c, 0, 74, 100
2, 137856, Note_on_c, 0, 74, 0
2, 137856, Note_on_c, 0, 81, 100
2, 138048, Note_on_c, 0, 81, 0
2, 138048, Note_on_c, 0, 84, 100
2, 138240, Note_on_c, 0, 84, 0
2, 138240, Note_on_c, 0, 83, 100
2, 138432, Note_on_c, 0, 83, 0
2, 138432, Note_on_c, 0, 81, 100
2, 138624, Note_on_c, 0, 81, 0
2, 138624, Note_on_c, 0, 83, 100
2, 138816, Note_on_c, 0, 83, 0
2, 138816, Note_on_c, 0, 79, 100
2, 139008, Note_on_c, 0, 79, 0
2, 139008, Note_on_c, 0, 83, 100
2, 139200, Note_on_c, 0, 83, 0
2, 139200, Note_on_c, 0, 86, 100
2, 139392, Note_on_c, 0, 86, 0
2, 139392, Note_on_c, 0, 89, 100
2, 139584, Note_on_c, 0, 89, 0
2, 139584, Note_on_c, 0, 88, 100
2, 139776, Note_on_c, 0, 88, 0
2, 139776, Note_on_c, 0, 86, 100
2, 139968, Note_on_c, 0, 86, 0
2, 139968, Note_on_c, 0, 88, 100
2, 140160, Note_on_c, 0, 88, 0
2, 140160, Note_on_c, 0, 86, 100
2, 140352, Note_on_c, 0, 86, 0
2, 140352, Note_on_c, 0, 88, 100
2, 140544, Note_on_c, 0, 88, 0
2, 140544, Note_on_c, 0, 83, 100
2, 140736, Note_on_c, 0, 83, 0
2, 140736, Note_on_c, 0, 84, 100
2, 140928, Note_on_c, 0, 84, 0
2, 140928, Note_on_c, 0, 86, 100
2, 141120, Note_on_c, 0, 86, 0
2, 141120, Note_on_c, 0, 76, 100
2, 141312, Note_on_c, 0, 76, 0
2, 141312, Note_on_c, 0, 83, 100
2, 141504, Note_on_c, 0, 83, 0
2, 141504, Note_on_c, 0, 86, 100
2, 141696, Note_on_c, 0, 86, 0
2, 141696, Note_on_c, 0, 84, 100
2, 141792, Note_on_c, 0, 84, 0
2, 141792, Note_on_c, 0, 76, 100
2, 141888, Note_on_c, 0, 76, 0
2, 141888, Note_on_c, 0, 69, 100
2, 141984, Note_on_c, 0, 69, 0
2, 141984, Note_on_c, 0, 76, 100
2, 142080, Note_on_c, 0, 76, 0
2, 142080, Note_on_c, 0, 84, 100
2, 142272, Note_on_c, 0, 84, 0
2, 142272, Note_on_c, 0, 84, 100
2, 142368, Note_on_c, 0, 84, 0
2, 142368, Note_on_c, 0, 76, 100
2, 142464, Note_on_c, 0, 76, 0
2, 142464, Note_on_c, 0, 69, 100
2, 142560, Note_on_c, 0, 69, 0
2, 142560, Note_on_c, 0, 76, 100
2, 142656, Note_on_c, 0, 76, 0
2, 142656, Note_on_c, 0, 84, 100
2, 142848, Note_on_c, 0, 84, 0
2, 142848, Note_on_c, 0, 84, 100
2, 142944, Note_on_c, 0, 84, 0
2, 142944, Note_on_c, 0, 76, 100
2, 143040, Note_on_c, 0, 76, 0
2, 143040, Note_on_c, 0, 69, 100
2, 143136, Note_on_c, 0, 69, 0
2, 143136, Note_on_c, 0, 76, 100
2, 143232, Note_on_c, 0, 76, 0
2, 143232, Note_on_c, 0, 84, 100
2, 143424, Note_on_c, 0, 84, 0
2, 143424, Note_on_c, 0, 84, 100
2, 143616, Note_on_c, 0, 84, 0
2, 143616, Note_on_c, 0, 77, 100
2, 143808, Note_on_c, 0, 77, 0
2, 143808, Note_on_c, 0, 69, 100
2, 144000, Note_on_c, 0, 69, 0
2, 144000, Note_on_c, 0, 62, 100
2, 144192, Note_on_c, 0, 62, 0
2, 144192, Note_on_c, 0, 69, 100
2, 144384, Note_on_c, 0, 69, 0
2, 144384, Note_on_c, 0, 77, 100
2, 144576, Note_on_c, 0, 77, 0
2, 144576, Note_on_c, 0, 84, 100
2, 144768, Note_on_c, 0, 84, 0
2, 144768, Note_on_c, 0, 83, 100
2, 144960, Note_on_c, 0, 83, 0
2, 144960, Note_on_c, 0, 84, 100
2, 145152, Note_on_c, 0, 84, 0
2, 145152, Note_on_c, 0, 83, 100
2, 145248, Note_on_c, 0, 83, 0
2, 145248, Note_on_c, 0, 77, 100
2, 145344, Note_on_c, 0, 77, 0
2, 145344, Note_on_c, 0, 67, 100
2, 145440, Note_on_c, 0, 67, 0
2, 145440, Note_on_c, 0, 77, 100
2, 145536, Note_on_c, 0, 77, 0
2, 145536, Note_on_c, 0, 83, 100
2, 145728, Note_on_c, 0, 83, 0
2, 145728, Note_on_c, 0, 83, 100
2, 145824, Note_on_c, 0, 83, 0
2, 145824, Note_on_c, 0, 77, 100
2, 145920, Note_on_c, 0, 77, 0
2, 145920, Note_on_c, 0, 67, 100
2, 146016, Note_on_c, 0, 67, 0
2, 146016, Note_on_c, 0, 77, 100
2, 146112, Note_on_c, 0, 77, 0
2, 146112, Note_on_c, 0, 83, 100
2, 146304, Note_on_c, 0, 83, 0
2, 146304, Note_on_c, 0, 83, 100
2, 146400, Note_on_c, 0, 83, 0
2, 146400, Note_on_c, 0, 77, 100
2, 146496, Note_on_c, 0, 77, 0
2, 146496, Note_on_c, 0, 67, 100
2, 146592, Note_on_c, 0, 67, 0
2, 146592, Note_on_c, 0, 77, 100
2, 146688, Note_on_c, 0, 77, 0
2, 146688, Note_on_c, 0, 83, 100
2, 146880, Note_on_c, 0, 83, 0
2, 146880, Note_on_c, 0, 82, 100
2, 147072, Note_on_c, 0, 82, 0
2, 147072, Note_on_c, 0, 76, 100
2, 147264, Note_on_c, 0, 76, 0
2, 147264, Note_on_c, 0, 67, 100
2, 147456, Note_on_c, 0, 67, 0
2, 147456, Note_on_c, 0, 60, 100
2, 147648, Note_on_c, 0, 60, 0
2, 147648, Note_on_c, 0, 67, 100
2, 147840, Note_on_c, 0, 67, 0
2, 147840, Note_on_c, 0, 76, 100
2, 148032, Note_on_c, 0, 76, 0
2, 148032, Note_on_c, 0, 82, 100
2, 148224, Note_on_c, 0, 82, 0
2, 148224, Note_on_c, 0, 81, 100
2, 148416, Note_on_c, 0, 81, 0
2, 148416, Note_on_c, 0, 82, 100
2, 148608, Note_on_c, 0, 82, 0
2, 148608, Note_on_c, 0, 81, 100
2, 148704, Note_on_c, 0, 81, 0
2, 148704, Note_on_c, 0, 76, 100
2, 148800, Note_on_c, 0, 76, 0
2, 148800, Note_on_c, 0, 65, 100
2, 148896, Note_on_c, 0, 65, 0
2, 148896, Note_on_c, 0, 76, 100
2, 148992, Note_on_c, 0, 76, 0
2, 148992, Note_on_c, 0, 81, 100
2, 149184, Note_on_c, 0, 81, 0
2, 149184, Note_on_c, 0, 81, 100
2, 149280, Note_on_c, 0, 81, 0
2, 149280, Note_on_c, 0, 76, 100
2, 149376, Note_on_c, 0, 76, 0
2, 149376, Note_on_c, 0, 65, 100
2, 149472, Note_on_c, 0, 65, 0
2, 149472, Note_on_c, 0, 76, 100
2, 149568, Note_on_c, 0, 76, 0
2, 149568, Note_on_c, 0, 81, 100
2, 149760, Note_on_c, 0, 81, 0
2, 149760, Note_on_c, 0, 81, 100
2, 149856, Note_on_c, 0, 81, 0
2, 149856, Note_on_c, 0, 76, 100
2, 149952, Note_on_c, 0, 76, 0
2, 149952, Note_on_c, 0, 65, 100
2, 150048, Note_on_c, 0, 65, 0
2, 150048, Note_on_c, 0, 76, 100
2, 150144, Note_on_c, 0, 76, 0
2, 150144, Note_on_c, 0, 81, 100
2, 150336, Note_on_c, 0, 81, 0
2, 150336, Note_on_c, 0, 81, 100
2, 150432, Note_on_c, 0, 81, 0
2, 150432, Note_on_c, 0, 74, 100
2, 150528, Note_on_c, 0, 74, 0
2, 150528, Note_on_c, 0, 65, 100
2, 150624, Note_on_c, 0, 65, 0
2, 150624, Note_on_c, 0, 74, 100
2, 150720, Note_on_c, 0, 74, 0
2, 150720, Note_on_c, 0, 81, 100
2, 150912, Note_on_c, 0, 81, 0
2, 150912, Note_on_c, 0, 81, 100
2, 151008, Note_on_c, 0, 81, 0
2, 151008, Note_on_c, 0, 74, 100
2, 151104, Note_on_c, 0, 74, 0
2, 151104, Note_on_c, 0, 65, 100
2, 151200, Note_on_c, 0, 65, 0
2, 151200, Note_on_c, 0, 74, 100
2, 151296, Note_on_c, 0, 74, 0
2, 151296, Note_on_c, 0, 81, 100
2, 151488, Note_on_c, 0, 81, 0
2, 151488, Note_on_c, 0, 81, 100
2, 151584, Note_on_c, 0, 81, 0
2, 151584, Note_on_c, 0, 74, 100
2, 151680, Note_on_c, 0, 74, 0
2, 151680, Note_on_c, 0, 65, 100
2, 151776, Note_on_c, 0, 65, 0
2, 151776, Note_on_c, 0, 74, 100
2, 151872, Note_on_c, 0, 74, 0
2, 151872, Note_on_c, 0, 81, 100
2, 152064, Note_on_c, 0, 81, 0
2, 152064, Note_on_c, 0, 80, 100
2, 152256, Note_on_c, 0, 80, 0
2, 152256, Note_on_c, 0, 64, 100
2, 152352, Note_on_c, 0, 64, 0
2, 152352, Note_on_c, 0, 66, 100
2, 152448, Note_on_c, 0, 66, 0
2, 152448, Note_on_c, 0, 68, 100
2, 152544, Note_on_c, 0, 68, 0
2, 152544, Note_on_c, 0, 69, 100
2, 152640, Note_on_c, 0, 69, 0
2, 152640, Note_on_c, 0, 71, 100
2, 152832, Note_on_c, 0, 71, 0
2, 152832, Note_on_c, 0, 68, 100
2, 152928, Note_on_c, 0, 68, 0
2, 152928, Note_on_c, 0, 69, 100
2, 153024, Note_on_c, 0, 69, 0
2, 153024, Note_on_c, 0, 71, 100
2, 153120, Note_on_c, 0, 71, 0
2, 153120, Note_on_c, 0, 72, 100
2, 153216, Note_on_c, 0, 72, 0
2, 153216, Note_on_c, 0, 74, 100
2, 153408, Note_on_c, 0, 74, 0
2, 153408, Note_on_c, 0, 71, 100
2, 153504, Note_on_c, 0, 71, 0
2, 153504, Note_on_c, 0, 72, 100
2, 153600, Note_on_c, 0, 72, 0
2, 153600, Note_on_c, 0, 74, 100
2, 153696, Note_on_c, 0, 74, 0
2, 153696, Note_on_c, 0, 76, 100
2, 153792, Note_on_c, 0, 76, 0
2, 153792, Note_on_c, 0, 77, 100
2, 153888, Note_on_c, 0, 77, 0
2, 153888, Note_on_c, 0, 76, 100
2, 153984, Note_on_c, 0, 76, 0
2, 153984, Note_on_c, 0, 74, 100
2, 154080, Note_on_c, 0, 74, 0
2, 154080, Note_on_c, 0, 73, 100
2, 154176, Note_on_c, 0, 73, 0
2, 154176, Note_on_c, 0, 74, 100
2, 154464, Note_on_c, 0, 74, 0
2, 154464, Note_on_c, 0, 76, 100
2, 154560, Note_on_c, 0, 76, 0
2, 154560, Note_on_c, 0, 74, 100
2, 154656, Note_on_c, 0, 74, 0
2, 154656, Note_on_c, 0, 73, 100
2, 154752, Note_on_c, 0, 73, 0
2, 154752, Note_on_c, 0, 74, 100
2, 155040, Note_on_c, 0, 74, 0
2, 155040, Note_on_c, 0, 76, 100
2, 155136, Note_on_c, 0, 76, 0
2, 155136, Note_on_c, 0, 74, 100
2, 155232, Note_on_c, 0, 74, 0
2, 155232, Note_on_c, 0, 73, 100
2, 155328, Note_on_c, 0, 73, 0
2, 155328, Note_on_c, 0, 74, 100
2, 155520, Note_on_c, 0, 74, 0
2, 155520, Note_on_c, 0, 64, 100
2, 155520, Note_on_c, 0, 74, 100
2, 155520, Note_on_c, 0, 83, 100
2, 156672, Note_on_c, 0, 83, 0
2, 156672, Note_on_c, 0, 74, 0
2, 156672, Note_on_c, 0, 64, 0
2, 157056, Note_on_c, 0, 76, 100
2, 157248, Note_on_c, 0, 76, 0
2, 157248, Note_on_c, 0, 81, 100
2, 157440, Note_on_c, 0, 81, 0
2, 157440, Note_on_c, 0, 79, 100
2, 157632, Note_on_c, 0, 79, 0
2, 157632, Note_on_c, 0, 77, 100
2, 157824, Note_on_c, 0, 77, 0
2, 157824, Note_on_c, 0, 76, 100
2, 158016, Note_on_c, 0, 76, 0
2, 158016, Note_on_c, 0, 74, 100
2, 158208, Note_on_c, 0, 74, 0
2, 158208, Note_on_c, 0, 72, 100
2, 158400, Note_on_c, 0, 72, 0
2, 158400, Note_on_c, 0, 71, 100
2, 158592, Note_on_c, 0, 71, 0
2, 158592, Note_on_c, 0, 72, 100
2, 158784, Note_on_c, 0, 72, 0
2, 158784, Note_on_c, 0, 74, 100
2, 158976, Note_on_c, 0, 74, 0
2, 158976, Note_on_c, 0, 72, 100
2, 159168, Note_on_c, 0, 72, 0
2, 159168, Note_on_c, 0, 71, 100
2, 159360, Note_on_c, 0, 71, 0
2, 159360, Note_on_c, 0, 72, 100
2, 159552, Note_on_c, 0, 72, 0
2, 159552, Note_on_c, 0, 69, 100
2, 159744, Note_on_c, 0, 69, 0
2, 159744, Note_on_c, 0, 71, 100
2, 159936, Note_on_c, 0, 71, 0
2, 159936, Note_on_c, 0, 72, 100
2, 160128, Note_on_c, 0, 72, 0
2, 160128, Note_on_c, 0, 64, 100
2, 160320, Note_on_c, 0, 64, 0
2, 160320, Note_on_c, 0, 69, 100
2, 160512, Note_on_c, 0, 69, 0
2, 160512, Note_on_c, 0, 72, 100
2, 160704, Note_on_c, 0, 72, 0
2, 160704, Note_on_c, 0, 71, 100
2, 160896, Note_on_c, 0, 71, 0
2, 160896, Note_on_c, 0, 69, 100
2, 161088, Note_on_c, 0, 69, 0
2, 161088, Note_on_c, 0, 71, 100
2, 161280, Note_on_c, 0, 71, 0
2, 161280, Note_on_c, 0, 68, 100
2, 161472, Note_on_c, 0, 68, 0
2, 161472, Note_on_c, 0, 69, 100
2, 161664, Note_on_c, 0, 69, 0
2, 161664, Note_on_c, 0, 71, 100
2, 161856, Note_on_c, 0, 71, 0
2, 161856, Note_on_c, 0, 64, 100
2, 162048, Note_on_c, 0, 64, 0
2, 162048, Note_on_c, 0, 71, 100
2, 162240, Note_on_c, 0, 71, 0
2, 162240, Note_on_c, 0, 74, 100
2, 162432, Note_on_c, 0, 74, 0
2, 162432, Note_on_c, 0, 69, 100
2, 162432, Note_on_c, 0, 72, 100
2, 162624, Note_on_c, 0, 72, 0
2, 162624, Note_on_c, 0, 69, 0
2, 162624, Note_on_c, 0, 64, 100
2, 162816, Note_on_c, 0, 64, 0
2, 162816, Note_on_c, 0, 60, 100
2, 163008, Note_on_c, 0, 60, 0
2, 163008, Note_on_c, 0, 57, 100
2, 163200, Note_on_c, 0, 57, 0
2, 163200, Note_on_c, 0, 60, 100
2, 163392, Note_on_c, 0, 60, 0
2, 163392, Note_on_c, 0, 64, 100
2, 163584, Note_on_c, 0, 64, 0
2, 163584, Note_on_c, 0, 69, 100
2, 163776, Note_on_c, 0, 69, 0
2, 163776, Note_on_c, 0, 71, 100
2, 163968, Note_on_c, 0, 71, 0
2, 163968, Note_on_c, 0, 72, 100
2, 164160, Note_on_c, 0, 72, 0
2, 164160, Note_on_c, 0, 72, 100
2, 164208, Note_on_c, 0, 72, 0
2, 164208, Note_on_c, 0, 74, 100
2, 164256, Note_on_c, 0, 74, 0
2, 164256, Note_on_c, 0, 72, 100
2, 164304, Note_on_c, 0, 72, 0
2, 164304, Note_on_c, 0, 74, 100
2, 164352, Note_on_c, 0, 74, 0
2, 164352, Note_on_c, 0, 72, 100
2, 164400, Note_on_c, 0, 72, 0
2, 164400, Note_on_c, 0, 74, 100
2, 164448, Note_on_c, 0, 74, 0
2, 164448, Note_on_c, 0, 72, 100
2, 164496, Note_on_c, 0, 72, 0
2, 164496, Note_on_c, 0, 74, 100
2, 164544, Note_on_c, 0, 74, 0
2, 164544, Note_on_c, 0, 71, 100
2, 164736, Note_on_c, 0, 71, 0
2, 164736, Note_on_c, 0, 75, 100
2, 165696, Note_on_c, 0, 75, 0
2, 165696, Note_on_c, 0, 76, 100
2, 165888, Note_on_c, 0, 76, 0
2, 165888, Note_on_c, 0, 71, 100
2, 166080, Note_on_c, 0, 71, 0
2, 166080, Note_on_c, 0, 68, 100
2, 166272, Note_on_c, 0, 68, 0
2, 166272, Note_on_c, 0, 64, 100
2, 166464, Note_on_c, 0, 64, 0
2, 166464, Note_on_c, 0, 59, 100
2, 166656, Note_on_c, 0, 59, 0
2, 166656, Note_on_c, 0, 64, 100
2, 166848, Note_on_c, 0, 64, 0
2, 166848, Note_on_c, 0, 68, 100
2, 167040, Note_on_c, 0, 68, 0
2, 167040, Note_on_c, 0, 71, 100
2, 167232, Note_on_c, 0, 71, 0
2, 167232, Note_on_c, 0, 72, 100
2, 167424, Note_on_c, 0, 72, 0
2, 167424, Note_on_c, 0, 74, 100
2, 167616, Note_on_c, 0, 74, 0
2, 167616, Note_on_c, 0, 74, 100
2, 167664, Note_on_c, 0, 74, 0
2, 167664, Note_on_c, 0, 76, 100
2, 167712, Note_on_c, 0, 76, 0
2, 167712, Note_on_c, 0, 74, 100
2, 167760, Note_on_c, 0, 74, 0
2, 167760, Note_on_c, 0, 76, 100
2, 167808, Note_on_c, 0, 76, 0
2, 167808, Note_on_c, 0, 74, 100
2, 167856, Note_on_c, 0, 74, 0
2, 167856, Note_on_c, 0, 76, 100
2, 167904, Note_on_c, 0, 76, 0
2, 167904, Note_on_c, 0, 74, 100
2, 167952, Note_on_c, 0, 74, 0
2, 167952, Note_on_c, 0, 76, 100
2, 168000, Note_on_c, 0, 76, 0
2, 168000, Note_on_c, 0, 72, 100
2, 168192, Note_on_c, 0, 72, 0
2, 168192, Note_on_c, 0, 80, 100
2, 169152, Note_on_c, 0, 80, 0
2, 169152, Note_on_c, 0, 81, 100
2, 169344, Note_on_c, 0, 81, 0
2, 169344, Note_on_c, 0, 77, 100
2, 169536, Note_on_c, 0, 77, 0
2, 169536, Note_on_c, 0, 81, 100
2, 169728, Note_on_c, 0, 81, 0
2, 169728, Note_on_c, 0, 76, 100
2, 169920, Note_on_c, 0, 76, 0
2, 169920, Note_on_c, 0, 77, 100
2, 170112, Note_on_c, 0, 77, 0
2, 170112, Note_on_c, 0, 73, 100
2, 170304, Note_on_c, 0, 73, 0
2, 170304, Note_on_c, 0, 74, 100
2, 170496, Note_on_c, 0, 74, 0
2, 170496, Note_on_c, 0, 69, 100
2, 170688, Note_on_c, 0, 69, 0
2, 170688, Note_on_c, 0, 74, 100
2, 170880, Note_on_c, 0, 74, 0
2, 170880, Note_on_c, 0, 77, 100
2, 171072, Note_on_c, 0, 77, 0
2, 171072, Note_on_c, 0, 76, 100
2, 171264, Note_on_c, 0, 76, 0
2, 171264, Note_on_c, 0, 81, 100
2, 171456, Note_on_c, 0, 81, 0
2, 171456, Note_on_c, 0, 74, 100
2, 171648, Note_on_c, 0, 74, 0
2, 171648, Note_on_c, 0, 76, 100
2, 171840, Note_on_c, 0, 76, 0
2, 171840, Note_on_c, 0, 71, 100
2, 172032, Note_on_c, 0, 71, 0
2, 172032, Note_on_c, 0, 72, 100
2, 172224, Note_on_c, 0, 72, 0
2, 172224, Note_on_c, 0, 69, 100
2, 172416, Note_on_c, 0, 69, 0
2, 172416, Note_on_c, 0, 72, 100
2, 172608, Note_on_c, 0, 72, 0
2, 172608, Note_on_c, 0, 76, 100
2, 172800, Note_on_c, 0, 76, 0
2, 172800, Note_on_c, 0, 74, 100
2, 172992, Note_on_c, 0, 74, 0
2, 172992, Note_on_c, 0, 77, 100
2, 173088, Note_on_c, 0, 77, 0
2, 173088, Note_on_c, 0, 76, 100
2, 173184, Note_on_c, 0, 76, 0
2, 173184, Note_on_c, 0, 74, 100
2, 173280, Note_on_c, 0, 74, 0
2, 173280, Note_on_c, 0, 72, 100
2, 173376, Note_on_c, 0, 72, 0
2, 173376, Note_on_c, 0, 71, 100
2, 173568, Note_on_c, 0, 71, 0
2, 173568, Note_on_c, 0, 74, 100
2, 173664, Note_on_c, 0, 74, 0
2, 173664, Note_on_c, 0, 72, 100
2, 173760, Note_on_c, 0, 72, 0
2, 173760, Note_on_c, 0, 71, 100
2, 173856, Note_on_c, 0, 71, 0
2, 173856, Note_on_c, 0, 69, 100
2, 173952, Note_on_c, 0, 69, 0
2, 173952, Note_on_c, 0, 68, 100
2, 174144, Note_on_c, 0, 68, 0
2, 174144, Note_on_c, 0, 71, 100
2, 174240, Note_on_c, 0, 71, 0
2, 174240, Note_on_c, 0, 69, 100
2, 174336, Note_on_c, 0, 69, 0
2, 174336, Note_on_c, 0, 68, 100
2, 174432, Note_on_c, 0, 68, 0
2, 174432, Note_on_c, 0, 66, 100
2, 174528, Note_on_c, 0, 66, 0
2, 174528, Note_on_c, 0, 64, 100
2, 175200, Note_on_c, 0, 64, 0
2, 175200, Note_on_c, 0, 66, 100
2, 175296, Note_on_c, 0, 66, 0
2, 175296, Note_on_c, 0, 68, 100
2, 175392, Note_on_c, 0, 68, 0
2, 175392, Note_on_c, 0, 69, 100
2, 175488, Note_on_c, 0, 69, 0
2, 175488, Note_on_c, 0, 71, 100
2, 175584, Note_on_c, 0, 71, 0
2, 175584, Note_on_c, 0, 72, 100
2, 175680, Note_on_c, 0, 72, 0
2, 175680, Note_on_c, 0, 74, 100
2, 175872, Note_on_c, 0, 74, 0
2, 175872, Note_on_c, 0, 76, 100
2, 175968, Note_on_c, 0, 76, 0
2, 175968, Note_on_c, 0, 74, 100
2, 176064, Note_on_c, 0, 74, 0
2, 176064, Note_on_c, 0, 72, 100
2, 176160, Note_on_c, 0, 72, 0
2, 176160, Note_on_c, 0, 71, 100
2, 176256, Note_on_c, 0, 71, 0
2, 176256, Note_on_c, 0, 72, 100
2, 176448, Note_on_c, 0, 72, 0
2, 176448, Note_on_c, 0, 71, 100
2, 176640, Note_on_c, 0, 71, 0
2, 176640, Note_on_c, 0, 69, 100
2, 176928, Note_on_c, 0, 69, 0
2, 176928, Note_on_c, 0, 71, 100
2, 177024, Note_on_c, 0, 71, 0
2, 177024, Note_on_c, 0, 73, 100
2, 177120, Note_on_c, 0, 73, 0
2, 177120, Note_on_c, 0, 74, 100
2, 177216, Note_on_c, 0, 74, 0
2, 177216, Note_on_c, 0, 76, 100
2, 177312, Note_on_c, 0, 76, 0
2, 177312, Note_on_c, 0, 77, 100
2, 177408, Note_on_c, 0, 77, 0
2, 177408, Note_on_c, 0, 79, 100
2, 177600, Note_on_c, 0, 79, 0
2, 177600, Note_on_c, 0, 81, 100
2, 177696, Note_on_c, 0, 81, 0
2, 177696, Note_on_c, 0, 79, 100
2, 177792, Note_on_c, 0, 79, 0
2, 177792, Note_on_c, 0, 77, 100
2, 177888, Note_on_c, 0, 77, 0
2, 177888, Note_on_c, 0, 76, 100
2, 177984, Note_on_c, 0, 76, 0
2, 177984, Note_on_c, 0, 77, 100
2, 178176, Note_on_c, 0, 77, 0
2, 178176, Note_on_c, 0, 76, 100
2, 178368, Note_on_c, 0, 76, 0
2, 178368, Note_on_c, 0, 74, 100
2, 178656, Note_on_c, 0, 74, 0
2, 178656, Note_on_c, 0, 76, 100
2, 178752, Note_on_c, 0, 76, 0
2, 178752, Note_on_c, 0, 78, 100
2, 178848, Note_on_c, 0, 78, 0
2, 178848, Note_on_c, 0, 79, 100
2, 178944, Note_on_c, 0, 79, 0
2, 178944, Note_on_c, 0, 81, 100
2, 179040, Note_on_c, 0, 81, 0
2, 179040, Note_on_c, 0, 83, 100
2, 179136, Note_on_c, 0, 83, 0
2, 179136, Note_on_c, 0, 84, 100
2, 179328, Note_on_c, 0, 84, 0
2, 179328, Note_on_c, 0, 86, 100
2, 179424, Note_on_c, 0, 86, 0
2, 179424, Note_on_c, 0, 84, 100
2, 179520, Note_on_c, 0, 84, 0
2, 179520, Note_on_c, 0, 83, 100
2, 179616, Note_on_c, 0, 83, 0
2, 179616, Note_on_c, 0, 81, 100
2, 179712, Note_on_c, 0, 81, 0
2, 179712, Note_on_c, 0, 83, 100
2, 179808, Note_on_c, 0, 83, 0
2, 179808, Note_on_c, 0, 84, 100
2, 179904, Note_on_c, 0, 84, 0
2, 179904, Note_on_c, 0, 86, 100
2, 180000, Note_on_c, 0, 86, 0
2, 180000, Note_on_c, 0, 84, 100
2, 180096, Note_on_c, 0, 84, 0
2, 180096, Note_on_c, 0, 83, 100
2, 180192, Note_on_c, 0, 83, 0
2, 180192, Note_on_c, 0, 81, 100
2, 180288, Note_on_c, 0, 81, 0
2, 180288, Note_on_c, 0, 79, 100
2, 180384, Note_on_c, 0, 79, 0
2, 180384, Note_on_c, 0, 81, 100
2, 180480, Note_on_c, 0, 81, 0
2, 180480, Note_on_c, 0, 83, 100
2, 180576, Note_on_c, 0, 83, 0
2, 180576, Note_on_c, 0, 81, 100
2, 180672, Note_on_c, 0, 81, 0
2, 180672, Note_on_c, 0, 79, 100
2, 180768, Note_on_c, 0, 79, 0
2, 180768, Note_on_c, 0, 77, 100
2, 180864, Note_on_c, 0, 77, 0
2, 180864, Note_on_c, 0, 76, 100
2, 180960, Note_on_c, 0, 76, 0
2, 180960, Note_on_c, 0, 77, 100
2, 181056, Note_on_c, 0, 77, 0
2, 181056, Note_on_c, 0, 79, 100
2, 181152, Note_on_c, 0, 79, 0
2, 181152, Note_on_c, 0, 77, 100
2, 181248, Note_on_c, 0, 77, 0
2, 181248, Note_on_c, 0, 76, 100
2, 181344, Note_on_c, 0, 76, 0
2, 181344, Note_on_c, 0, 74, 100
2, 181440, Note_on_c, 0, 74, 0
2, 181440, Note_on_c, 0, 76, 100
2, 181536, Note_on_c, 0, 76, 0
2, 181536, Note_on_c, 0, 76, 100
2, 181632, Note_on_c, 0, 76, 0
2, 181632, Note_on_c, 0, 72, 100
2, 181728, Note_on_c, 0, 72, 0
2, 181728, Note_on_c, 0, 76, 100
2, 181824, Note_on_c, 0, 76, 0
2, 181824, Note_on_c, 0, 76, 100
2, 182016, Note_on_c, 0, 76, 0
2, 182016, Note_on_c, 0, 76, 100
2, 182112, Note_on_c, 0, 76, 0
2, 182112, Note_on_c, 0, 76, 100
2, 182208, Note_on_c, 0, 76, 0
2, 182208, Note_on_c, 0, 72, 100
2, 182304, Note_on_c, 0, 72, 0
2, 182304, Note_on_c, 0, 76, 100
2, 182400, Note_on_c, 0, 76, 0
2, 182400, Note_on_c, 0, 76, 100
2, 182592, Note_on_c, 0, 76, 0
2, 182592, Note_on_c, 0, 76, 100
2, 182688, Note_on_c, 0, 76, 0
2, 182688, Note_on_c, 0, 76, 100
2, 182784, Note_on_c, 0, 76, 0
2, 182784, Note_on_c, 0, 72, 100
2, 182880, Note_on_c, 0, 72, 0
2, 182880, Note_on_c, 0, 76, 100
2, 182976, Note_on_c, 0, 76, 0
2, 182976, Note_on_c, 0, 76, 100
2, 183168, Note_on_c, 0, 76, 0
2, 183168, Note_on_c, 0, 76, 100
2, 183264, Note_on_c, 0, 76, 0
2, 183264, Note_on_c, 0, 78, 100
2, 183360, Note_on_c, 0, 78, 0
2, 183360, Note_on_c, 0, 72, 100
2, 183456, Note_on_c, 0, 72, 0
2, 183456, Note_on_c, 0, 78, 100
2, 183552, Note_on_c, 0, 78, 0
2, 183552, Note_on_c, 0, 76, 100
2, 183744, Note_on_c, 0, 76, 0
2, 183744, Note_on_c, 0, 76, 100
2, 183840, Note_on_c, 0, 76, 0
2, 183840, Note_on_c, 0, 78, 100
2, 183936, Note_on_c, 0, 78, 0
2, 183936, Note_on_c, 0, 72, 100
2, 184032, Note_on_c, 0, 72, 0
2, 184032, Note_on_c, 0, 78, 100
2, 184128, Note_on_c, 0, 78, 0
2, 184128, Note_on_c, 0, 76, 100
2, 184320, Note_on_c, 0, 76, 0
2, 184320, Note_on_c, 0, 76, 100
2, 184416, Note_on_c, 0, 76, 0
2, 184416, Note_on_c, 0, 78, 100
2, 184512, Note_on_c, 0, 78, 0
2, 184512, Note_on_c, 0, 72, 100
2, 184608, Note_on_c, 0, 72, 0
2, 184608, Note_on_c, 0, 78, 100
2, 184704, Note_on_c, 0, 78, 0
2, 184704, Note_on_c, 0, 76, 100
2, 184896, Note_on_c, 0, 76, 0
2, 184896, Note_on_c, 0, 76, 100
2, 184992, Note_on_c, 0, 76, 0
2, 184992, Note_on_c, 0, 80, 100
2, 185088, Note_on_c, 0, 80, 0
2, 185088, Note_on_c, 0, 71, 100
2, 185184, Note_on_c, 0, 71, 0
2, 185184, Note_on_c, 0, 80, 100
2, 185280, Note_on_c, 0, 80, 0
2, 185280, Note_on_c, 0, 76, 100
2, 185472, Note_on_c, 0, 76, 0
2, 185472, Note_on_c, 0, 76, 100
2, 185568, Note_on_c, 0, 76, 0
2, 185568, Note_on_c, 0, 80, 100
2, 185664, Note_on_c, 0, 80, 0
2, 185664, Note_on_c, 0, 71, 100
2, 185760, Note_on_c, 0, 71, 0
2, 185760, Note_on_c, 0, 80, 100
2, 185856, Note_on_c, 0, 80, 0
2, 185856, Note_on_c, 0, 76, 100
2, 186048, Note_on_c, 0, 76, 0
2, 186048, Note_on_c, 0, 76, 100
2, 186144, Note_on_c, 0, 76, 0
2, 186144, Note_on_c, 0, 80, 100
2, 186240, Note_on_c, 0, 80, 0
2, 186240, Note_on_c, 0, 71, 100
2, 186336, Note_on_c, 0, 71, 0
2, 186336, Note_on_c, 0, 80, 100
2, 186432, Note_on_c, 0, 80, 0
2, 186432, Note_on_c, 0, 76, 100
2, 186624, Note_on_c, 0, 76, 0
2, 186624, Note_on_c, 0, 76, 100
2, 186720, Note_on_c, 0, 76, 0
2, 186720, Note_on_c, 0, 81, 100
2, 186816, Note_on_c, 0, 81, 0
2, 186816, Note_on_c, 0, 72, 100
2, 186912, Note_on_c, 0, 72, 0
2, 186912, Note_on_c, 0, 81, 100
2, 187008, Note_on_c, 0, 81, 0
2, 187008, Note_on_c, 0, 76, 100
2, 187200, Note_on_c, 0, 76, 0
2, 187200, Note_on_c, 0, 76, 100
2, 187296, Note_on_c, 0, 76, 0
2, 187296, Note_on_c, 0, 81, 100
2, 187392, Note_on_c, 0, 81, 0
2, 187392, Note_on_c, 0, 72, 100
2, 187488, Note_on_c, 0, 72, 0
2, 187488, Note_on_c, 0, 81, 100
2, 187584, Note_on_c, 0, 81, 0
2, 187584, Note_on_c, 0, 76, 100
2, 187776, Note_on_c, 0, 76, 0
2, 187776, Note_on_c, 0, 76, 100
2, 187872, Note_on_c, 0, 76, 0
2, 187872, Note_on_c, 0, 81, 100
2, 187968, Note_on_c, 0, 81, 0
2, 187968, Note_on_c, 0, 72, 100
2, 188064, Note_on_c, 0, 72, 0
2, 188064, Note_on_c, 0, 81, 100
2, 188160, Note_on_c, 0, 81, 0
2, 188160, Note_on_c, 0, 76, 100
2, 188352, Note_on_c, 0, 76, 0
2, 188352, Note_on_c, 0, 76, 100
2, 188448, Note_on_c, 0, 76, 0
2, 188448, Note_on_c, 0, 83, 100
2, 188544, Note_on_c, 0, 83, 0
2, 188544, Note_on_c, 0, 74, 100
2, 188640, Note_on_c, 0, 74, 0
2, 188640, Note_on_c, 0, 83, 100
2, 188736, Note_on_c, 0, 83, 0
2, 188736, Note_on_c, 0, 76, 100
2, 188928, Note_on_c, 0, 76, 0
2, 188928, Note_on_c, 0, 76, 100
2, 189024, Note_on_c, 0, 76, 0
2, 189024, Note_on_c, 0, 83, 100
2, 189120, Note_on_c, 0, 83, 0
2, 189120, Note_on_c, 0, 74, 100
2, 189216, Note_on_c, 0, 74, 0
2, 189216, Note_on_c, 0, 83, 100
2, 189312, Note_on_c, 0, 83, 0
2, 189312, Note_on_c, 0, 76, 100
2, 189504, Note_on_c, 0, 76, 0
2, 189504, Note_on_c, 0, 76, 100
2, 189600, Note_on_c, 0, 76, 0
2, 189600, Note_on_c, 0, 83, 100
2, 189696, Note_on_c, 0, 83, 0
2, 189696, Note_on_c, 0, 74, 100
2, 189792, Note_on_c, 0, 74, 0
2, 189792, Note_on_c, 0, 83, 100
2, 189888, Note_on_c, 0, 83, 0
2, 189888, Note_on_c, 0, 76, 100
2, 190080, Note_on_c, 0, 76, 0
2, 190080, Note_on_c, 0, 76, 100
2, 190176, Note_on_c, 0, 76, 0
2, 190176, Note_on_c, 0, 84, 100
2, 190272, Note_on_c, 0, 84, 0
2, 190272, Note_on_c, 0, 76, 100
2, 190368, Note_on_c, 0, 76, 0
2, 190368, Note_on_c, 0, 84, 100
2, 190464, Note_on_c, 0, 84, 0
2, 190464, Note_on_c, 0, 76, 100
2, 190656, Note_on_c, 0, 76, 0
2, 190656, Note_on_c, 0, 76, 100
2, 190752, Note_on_c, 0, 76, 0
2, 190752, Note_on_c, 0, 84, 100
2, 190848, Note_on_c, 0, 84, 0
2, 190848, Note_on_c, 0, 76, 100
2, 190944, Note_on_c, 0, 76, 0
2, 190944, Note_on_c, 0, 84, 100
2, 191040, Note_on_c, 0, 84, 0
2, 191040, Note_on_c, 0, 76, 100
2, 191232, Note_on_c, 0, 76, 0
2, 191232, Note_on_c, 0, 76, 100
2, 191328, Note_on_c, 0, 76, 0
2, 191328, Note_on_c, 0, 84, 100
2, 191424, Note_on_c, 0, 84, 0
2, 191424, Note_on_c, 0, 76, 100
2, 191520, Note_on_c, 0, 76, 0
2, 191520, Note_on_c, 0, 84, 100
2, 191616, Note_on_c, 0, 84, 0
2, 191616, Note_on_c, 0, 76, 100
2, 191808, Note_on_c, 0, 76, 0
2, 191808, Note_on_c, 0, 76, 100
2, 191904, Note_on_c, 0, 76, 0
2, 191904, Note_on_c, 0, 84, 100
2, 192000, Note_on_c, 0, 84, 0
2, 192000, Note_on_c, 0, 74, 100
2, 192096, Note_on_c, 0, 74, 0
2, 192096, Note_on_c, 0, 84, 100
2, 192192, Note_on_c, 0, 84, 0
2, 192192, Note_on_c, 0, 76, 100
2, 192384, Note_on_c, 0, 76, 0
2, 192384, Note_on_c, 0, 76, 100
2, 192480, Note_on_c, 0, 76, 0
2, 192480, Note_on_c, 0, 84, 100
2, 192576, Note_on_c, 0, 84, 0
2, 192576, Note_on_c, 0, 74, 100
2, 192672, Note_on_c, 0, 74, 0
2, 192672, Note_on_c, 0, 84, 100
2, 192768, Note_on_c, 0, 84, 0
2, 192768, Note_on_c, 0, 76, 100
2, 192960, Note_on_c, 0, 76, 0
2, 192960, Note_on_c, 0, 76, 100
2, 193056, Note_on_c, 0, 76, 0
2, 193056, Note_on_c, 0, 84, 100
2, 193152, Note_on_c, 0, 84, 0
2, 193152, Note_on_c, 0, 74, 100
2, 193248, Note_on_c, 0, 74, 0
2, 193248, Note_on_c, 0, 84, 100
2, 193344, Note_on_c, 0, 84, 0
2, 193344, Note_on_c, 0, 76, 100
2, 193536, Note_on_c, 0, 76, 0
2, 193536, Note_on_c, 0, 76, 100
2, 193632, Note_on_c, 0, 76, 0
2, 193632, Note_on_c, 0, 83, 100
2, 193728, Note_on_c, 0, 83, 0
2, 193728, Note_on_c, 0, 74, 100
2, 193824, Note_on_c, 0, 74, 0
2, 193824, Note_on_c, 0, 83, 100
2, 193920, Note_on_c, 0, 83, 0
2, 193920, Note_on_c, 0, 76, 100
2, 194112, Note_on_c, 0, 76, 0
2, 194112, Note_on_c, 0, 76, 100
2, 194208, Note_on_c, 0, 76, 0
2, 194208, Note_on_c, 0, 83, 100
2, 194304, Note_on_c, 0, 83, 0
2, 194304, Note_on_c, 0, 74, 100
2, 194400, Note_on_c, 0, 74, 0
2, 194400, Note_on_c, 0, 83, 100
2, 194496, Note_on_c, 0, 83, 0
2, 194496, Note_on_c, 0, 76, 100
2, 194688, Note_on_c, 0, 76, 0
2, 194688, Note_on_c, 0, 76, 100
2, 194784, Note_on_c, 0, 76, 0
2, 194784, Note_on_c, 0, 83, 100
2, 194880, Note_on_c, 0, 83, 0
2, 194880, Note_on_c, 0, 74, 100
2, 194976, Note_on_c, 0, 74, 0
2, 194976, Note_on_c, 0, 83, 100
2, 195072, Note_on_c, 0, 83, 0
2, 195072, Note_on_c, 0, 76, 100
2, 195264, Note_on_c, 0, 76, 0
2, 195264, Note_on_c, 0, 76, 100
2, 195360, Note_on_c, 0, 76, 0
2, 195360, Note_on_c, 0, 83, 100
2, 195456, Note_on_c, 0, 83, 0
2, 195456, Note_on_c, 0, 72, 100
2, 195552, Note_on_c, 0, 72, 0
2, 195552, Note_on_c, 0, 83, 100
2, 195648, Note_on_c, 0, 83, 0
2, 195648, Note_on_c, 0, 76, 100
2, 195840, Note_on_c, 0, 76, 0
2, 195840, Note_on_c, 0, 76, 100
2, 195936, Note_on_c, 0, 76, 0
2, 195936, Note_on_c, 0, 83, 100
2, 196032, Note_on_c, 0, 83, 0
2, 196032, Note_on_c, 0, 72, 100
2, 196128, Note_on_c, 0, 72, 0
2, 196128, Note_on_c, 0, 83, 100
2, 196224, Note_on_c, 0, 83, 0
2, 196224, Note_on_c, 0, 76, 100
2, 196416, Note_on_c, 0, 76, 0
2, 196416, Note_on_c, 0, 76, 100
2, 196512, Note_on_c, 0, 76, 0
2, 196512, Note_on_c, 0, 83, 100
2, 196608, Note_on_c, 0, 83, 0
2, 196608, Note_on_c, 0, 72, 100
2, 196704, Note_on_c, 0, 72, 0
2, 196704, Note_on_c, 0, 83, 100
2, 196800, Note_on_c, 0, 83, 0
2, 196800, Note_on_c, 0, 76, 100
2, 196992, Note_on_c, 0, 76, 0
2, 196992, Note_on_c, 0, 76, 100
2, 197088, Note_on_c, 0, 76, 0
2, 197088, Note_on_c, 0, 81, 100
2, 197184, Note_on_c, 0, 81, 0
2, 197184, Note_on_c, 0, 72, 100
2, 197280, Note_on_c, 0, 72, 0
2, 197280, Note_on_c, 0, 81, 100
2, 197376, Note_on_c, 0, 81, 0
2, 197376, Note_on_c, 0, 76, 100
2, 197568, Note_on_c, 0, 76, 0
2, 197568, Note_on_c, 0, 76, 100
2, 197664, Note_on_c, 0, 76, 0
2, 197664, Note_on_c, 0, 81, 100
2, 197760, Note_on_c, 0, 81, 0
2, 197760, Note_on_c, 0, 72, 100
2, 197856, Note_on_c, 0, 72, 0
2, 197856, Note_on_c, 0, 81, 100
2, 197952, Note_on_c, 0, 81, 0
2, 197952, Note_on_c, 0, 76, 100
2, 198144, Note_on_c, 0, 76, 0
2, 198144, Note_on_c, 0, 76, 100
2, 198240, Note_on_c, 0, 76, 0
2, 198240, Note_on_c, 0, 81, 100
2, 198336, Note_on_c, 0, 81, 0
2, 198336, Note_on_c, 0, 72, 100
2, 198432, Note_on_c, 0, 72, 0
2, 198432, Note_on_c, 0, 81, 100
2, 198528, Note_on_c, 0, 81, 0
2, 198528, Note_on_c, 0, 76, 100
2, 198720, Note_on_c, 0, 76, 0
2, 198720, Note_on_c, 0, 76, 100
2, 198816, Note_on_c, 0, 76, 0
2, 198816, Note_on_c, 0, 81, 100
2, 198912, Note_on_c, 0, 81, 0
2, 198912, Note_on_c, 0, 71, 100
2, 199008, Note_on_c, 0, 71, 0
2, 199008, Note_on_c, 0, 81, 100
2, 199104, Note_on_c, 0, 81, 0
2, 199104, Note_on_c, 0, 76, 100
2, 199296, Note_on_c, 0, 76, 0
2, 199296, Note_on_c, 0, 76, 100
2, 199392, Note_on_c, 0, 76, 0
2, 199392, Note_on_c, 0, 81, 100
2, 199488, Note_on_c, 0, 81, 0
2, 199488, Note_on_c, 0, 71, 100
2, 199584, Note_on_c, 0, 71, 0
2, 199584, Note_on_c, 0, 81, 100
2, 199680, Note_on_c, 0, 81, 0
2, 199680, Note_on_c, 0, 76, 100
2, 199872, Note_on_c, 0, 76, 0
2, 199872, Note_on_c, 0, 76, 100
2, 199968, Note_on_c, 0, 76, 0
2, 199968, Note_on_c, 0, 81, 100
2, 200064, Note_on_c, 0, 81, 0
2, 200064, Note_on_c, 0, 71, 100
2, 200160, Note_on_c, 0, 71, 0
2, 200160, Note_on_c, 0, 81, 100
2, 200256, Note_on_c, 0, 81, 0
2, 200256, Note_on_c, 0, 76, 100
2, 200448, Note_on_c, 0, 76, 0
2, 200448, Note_on_c, 0, 76, 100
2, 200544, Note_on_c, 0, 76, 0
2, 200544, Note_on_c, 0, 80, 100
2, 200640, Note_on_c, 0, 80, 0
2, 200640, Note_on_c, 0, 71, 100
2, 200736, Note_on_c, 0, 71, 0
2, 200736, Note_on_c, 0, 80, 100
2, 200832, Note_on_c, 0, 80, 0
2, 200832, Note_on_c, 0, 76, 100
2, 201024, Note_on_c, 0, 76, 0
2, 201024, Note_on_c, 0, 76, 100
2, 201120, Note_on_c, 0, 76, 0
2, 201120, Note_on_c, 0, 80, 100
2, 201216, Note_on_c, 0, 80, 0
2, 201216, Note_on_c, 0, 71, 100
2, 201312, Note_on_c, 0, 71, 0
2, 201312, Note_on_c, 0, 80, 100
2, 201408, Note_on_c, 0, 80, 0
2, 201408, Note_on_c, 0, 76, 100
2, 201600, Note_on_c, 0, 76, 0
2, 201600, Note_on_c, 0, 76, 100
2, 201696, Note_on_c, 0, 76, 0
2, 201696, Note_on_c, 0, 80, 100
2, 201792, Note_on_c, 0, 80, 0
2, 201792, Note_on_c, 0, 71, 100
2, 201888, Note_on_c, 0, 71, 0
2, 201888, Note_on_c, 0, 80, 100
2, 201984, Note_on_c, 0, 80, 0
2, 201984, Note_on_c, 0, 76, 100
2, 202176, Note_on_c, 0, 76, 0
2, 202176, Note_on_c, 0, 81, 100
2, 202368, Note_on_c, 0, 81, 0
2, 202368, Note_on_c, 0, 79, 100
2, 202560, Note_on_c, 0, 79, 0
2, 202560, Note_on_c, 0, 77, 100
2, 202752, Note_on_c, 0, 77, 0
2, 202752, Note_on_c, 0, 76, 100
2, 202944, Note_on_c, 0, 76, 0
2, 202944, Note_on_c, 0, 74, 100
2, 203136, Note_on_c, 0, 74, 0
2, 203136, Note_on_c, 0, 72, 100
2, 203328, Note_on_c, 0, 72, 0
2, 203328, Note_on_c, 0, 71, 100
2, 203520, Note_on_c, 0, 71, 0
2, 203520, Note_on_c, 0, 72, 100
2, 203712, Note_on_c, 0, 72, 0
2, 203712, Note_on_c, 0, 74, 100
2, 203904, Note_on_c, 0, 74, 0
2, 203904, Note_on_c, 0, 72, 100
2, 204096, Note_on_c, 0, 72, 0
2, 204096, Note_on_c, 0, 71, 100
2, 204288, Note_on_c, 0, 71, 0
2, 204288, Note_on_c, 0, 72, 100
2, 204480, Note_on_c, 0, 72, 0
2, 204480, Note_on_c, 0, 69, 100
2, 204672, Note_on_c, 0, 69, 0
2, 204672, Note_on_c, 0, 71, 100
2, 204864, Note_on_c, 0, 71, 0
2, 204864, Note_on_c, 0, 72, 100
2, 205056, Note_on_c, 0, 72, 0
2, 205056, Note_on_c, 0, 64, 100
2, 205248, Note_on_c, 0, 64, 0
2, 205248, Note_on_c, 0, 69, 100
2, 205440, Note_on_c, 0, 69, 0
2, 205440, Note_on_c, 0, 72, 100
2, 205632, Note_on_c, 0, 72, 0
2, 205632, Note_on_c, 0, 71, 100
2, 205824, Note_on_c, 0, 71, 0
2, 205824, Note_on_c, 0, 69, 100
2, 206016, Note_on_c, 0, 69, 0
2, 206016, Note_on_c, 0, 71, 100
2, 206208, Note_on_c, 0, 71, 0
2, 206208, Note_on_c, 0, 68, 100
2, 206400, Note_on_c, 0, 68, 0
2, 206400, Note_on_c, 0, 69, 100
2, 206592, Note_on_c, 0, 69, 0
2, 206592, Note_on_c, 0, 71, 100
2, 206784, Note_on_c, 0, 71, 0
2, 206784, Note_on_c, 0, 64, 100
2, 206976, Note_on_c, 0, 64, 0
2, 206976, Note_on_c, 0, 71, 100
2, 207168, Note_on_c, 0, 71, 0
2, 207168, Note_on_c, 0, 74, 100
2, 207360, Note_on_c, 0, 74, 0
2, 207360, Note_on_c, 0, 72, 100
2, 207552, Note_on_c, 0, 72, 0
2, 207552, Note_on_c, 0, 71, 100
2, 207744, Note_on_c, 0, 71, 0
2, 207744, Note_on_c, 0, 72, 100
2, 207936, Note_on_c, 0, 72, 0
2, 207936, Note_on_c, 0, 69, 100
2, 208128, Note_on_c, 0, 69, 0
2, 208128, Note_on_c, 0, 72, 100
2, 208320, Note_on_c, 0, 72, 0
2, 208320, Note_on_c, 0, 76, 100
2, 208512, Note_on_c, 0, 76, 0
2, 208512, Note_on_c, 0, 81, 100
2, 208704, Note_on_c, 0, 81, 0
2, 208704, Note_on_c, 0, 79, 100
2, 208896, Note_on_c, 0, 79, 0
2, 208896, Note_on_c, 0, 78, 100
2, 209088, Note_on_c, 0, 78, 0
2, 209088, Note_on_c, 0, 79, 100
2, 209856, Note_on_c, 0, 79, 0
2, 209856, Note_on_c, 0, 78, 100
2, 210048, Note_on_c, 0, 78, 0
2, 210048, Note_on_c, 0, 76, 100
2, 210240, Note_on_c, 0, 76, 0
2, 210240, Note_on_c, 0, 83, 100
2, 210624, Note_on_c, 0, 83, 0
2, 210624, Note_on_c, 0, 83, 100
2, 210816, Note_on_c, 0, 83, 0
2, 210816, Note_on_c, 0, 83, 100
2, 211008, Note_on_c, 0, 83, 0
2, 211008, Note_on_c, 0, 81, 100
2, 211200, Note_on_c, 0, 81, 0
2, 211200, Note_on_c, 0, 83, 100
2, 211392, Note_on_c, 0, 83, 0
2, 211392, Note_on_c, 0, 79, 100
2, 211584, Note_on_c, 0, 79, 0
2, 211584, Note_on_c, 0, 78, 100
2, 211776, Note_on_c, 0, 78, 0
2, 211776, Note_on_c, 0, 76, 100
2, 211968, Note_on_c, 0, 76, 0
2, 211968, Note_on_c, 0, 83, 100
2, 212352, Note_on_c, 0, 83, 0
2, 212352, Note_on_c, 0, 83, 100
2, 212544, Note_on_c, 0, 83, 0
2, 212544, Note_on_c, 0, 83, 100
2, 212928, Note_on_c, 0, 83, 0
2, 212928, Note_on_c, 0, 83, 100
2, 213120, Note_on_c, 0, 83, 0
2, 213120, Note_on_c, 0, 83, 100
2, 213504, Note_on_c, 0, 83, 0
2, 213504, Note_on_c, 0, 83, 100
2, 213696, Note_on_c, 0, 83, 0
2, 213696, Note_on_c, 0, 83, 100
2, 214080, Note_on_c, 0, 83, 0
2, 214080, Note_on_c, 0, 83, 100
2, 214272, Note_on_c, 0, 83, 0
2, 214272, Note_on_c, 0, 83, 100
2, 214464, Note_on_c, 0, 83, 0
2, 214464, Note_on_c, 0, 81, 100
2, 214656, Note_on_c, 0, 81, 0
2, 214656, Note_on_c, 0, 83, 100
2, 214848, Note_on_c, 0, 83, 0
2, 214848, Note_on_c, 0, 79, 100
2, 215232, Note_on_c, 0, 79, 0
2, 215232, Note_on_c, 0, 76, 100
2, 215424, Note_on_c, 0, 76, 0
2, 215424, Note_on_c, 0, 78, 100
2, 215808, Note_on_c, 0, 78, 0
2, 215808, Note_on_c, 0, 80, 100
2, 216000, Note_on_c, 0, 80, 0
2, 216000, Note_on_c, 0, 81, 100
2, 216384, Note_on_c, 0, 81, 0
2, 216384, Note_on_c, 0, 69, 100
2, 216576, Note_on_c, 0, 69, 0
2, 216576, Note_on_c, 0, 72, 100
2, 216960, Note_on_c, 0, 72, 0
2, 216960, Note_on_c, 0, 76, 100
2, 217152, Note_on_c, 0, 76, 0
2, 217152, Note_on_c, 0, 80, 100
2, 217344, Note_on_c, 0, 80, 0
2, 217344, Note_on_c, 0, 81, 100
2, 217536, Note_on_c, 0, 81, 0
2, 217536, Note_on_c, 0, 83, 100
2, 217728, Note_on_c, 0, 83, 0
2, 217728, Note_on_c, 0, 81, 100
2, 217920, Note_on_c, 0, 81, 0
2, 217920, Note_on_c, 0, 80, 100
2, 218112, Note_on_c, 0, 80, 0
2, 218112, Note_on_c, 0, 81, 100
2, 218304, Note_on_c, 0, 81, 0
2, 218304, Note_on_c, 0, 76, 100
2, 218496, Note_on_c, 0, 76, 0
2, 218496, Note_on_c, 0, 74, 100
2, 218688, Note_on_c, 0, 74, 0
2, 218688, Note_on_c, 0, 76, 100
2, 218880, Note_on_c, 0, 76, 0
2, 218880, Note_on_c, 0, 72, 100
2, 219072, Note_on_c, 0, 72, 0
2, 219072, Note_on_c, 0, 76, 100
2, 219264, Note_on_c, 0, 76, 0
2, 219264, Note_on_c, 0, 81, 100
2, 219456, Note_on_c, 0, 81, 0
2, 219456, Note_on_c, 0, 80, 100
2, 219648, Note_on_c, 0, 80, 0
2, 219648, Note_on_c, 0, 78, 100
2, 219840, Note_on_c, 0, 78, 0
2, 219840, Note_on_c, 0, 80, 100
2, 220032, Note_on_c, 0, 80, 0
2, 220032, Note_on_c, 0, 76, 100
2, 220416, Note_on_c, 0, 76, 0
2, 220416, Note_on_c, 0, 80, 100
2, 220608, Note_on_c, 0, 80, 0
2, 220608, Note_on_c, 0, 83, 100
2, 220800, Note_on_c, 0, 83, 0
2, 220800, Note_on_c, 0, 81, 100
2, 220992, Note_on_c, 0, 81, 0
2, 220992, Note_on_c, 0, 80, 100
2, 221184, Note_on_c, 0, 80, 0
2, 221184, Note_on_c, 0, 81, 100
2, 221760, Note_on_c, 0, 81, 0
2, 222144, Note_on_c, 0, 72, 100
2, 222336, Note_on_c, 0, 72, 0
2, 222336, Note_on_c, 0, 76, 100
2, 222720, Note_on_c, 0, 76, 0
2, 222720, Note_on_c, 0, 81, 100
2, 222912, Note_on_c, 0, 81, 0
2, 222912, Note_on_c, 0, 74, 100
2, 223296, Note_on_c, 0, 74, 0
2, 223296, Note_on_c, 0, 65, 100
2, 223488, Note_on_c, 0, 65, 0
2, 223488, Note_on_c, 0, 69, 100
2, 223872, Note_on_c, 0, 69, 0
2, 223872, Note_on_c, 0, 74, 100
2, 224064, Note_on_c, 0, 74, 0
2, 224064, Note_on_c, 0, 67, 100
2, 224448, Note_on_c, 0, 67, 0
2, 224448, Note_on_c, 0, 74, 100
2, 224640, Note_on_c, 0, 74, 0
2, 224640, Note_on_c, 0, 74, 100
2, 224832, Note_on_c, 0, 74, 0
2, 224832, Note_on_c, 0, 72, 100
2, 225024, Note_on_c, 0, 72, 0
2, 225024, Note_on_c, 0, 74, 100
2, 225216, Note_on_c, 0, 74, 0
2, 225216, Note_on_c, 0, 67, 100
2, 225408, Note_on_c, 0, 67, 0
2, 225408, Note_on_c, 0, 71, 100
2, 225600, Note_on_c, 0, 71, 0
2, 225600, Note_on_c, 0, 74, 100
2, 225792, Note_on_c, 0, 74, 0
2, 225792, Note_on_c, 0, 77, 100
2, 225984, Note_on_c, 0, 77, 0
2, 225984, Note_on_c, 0, 76, 100
2, 226176, Note_on_c, 0, 76, 0
2, 226176, Note_on_c, 0, 74, 100
2, 226368, Note_on_c, 0, 74, 0
2, 226368, Note_on_c, 0, 76, 100
2, 226752, Note_on_c, 0, 76, 0
2, 226752, Note_on_c, 0, 77, 100
2, 226944, Note_on_c, 0, 77, 0
2, 226944, Note_on_c, 0, 79, 100
2, 227904, Note_on_c, 0, 79, 0
2, 227904, Note_on_c, 0, 71, 100
2, 228096, Note_on_c, 0, 71, 0
2, 228096, Note_on_c, 0, 72, 100
2, 228480, Note_on_c, 0, 72, 0
2, 228480, Note_on_c, 0, 67, 100
2, 228672, Note_on_c, 0, 67, 0
2, 228672, Note_on_c, 0, 79, 100
2, 229440, Note_on_c, 0, 79, 0
2, 229632, Note_on_c, 0, 69, 100
2, 229824, Note_on_c, 0, 69, 0
2, 229824, Note_on_c, 0, 71, 100
2, 230208, Note_on_c, 0, 71, 0
2, 230208, Note_on_c, 0, 67, 100
2, 230400, Note_on_c, 0, 67, 0
2, 230400, Note_on_c, 0, 77, 100
2, 231168, Note_on_c, 0, 77, 0
2, 231360, Note_on_c, 0, 74, 100
2, 231552, Note_on_c, 0, 74, 0
2, 231552, Note_on_c, 0, 76, 100
2, 231936, Note_on_c, 0, 76, 0
2, 231936, Note_on_c, 0, 79, 100
2, 232128, Note_on_c, 0, 79, 0
2, 232128, Note_on_c, 0, 76, 100
2, 232512, Note_on_c, 0, 76, 0
2, 232512, Note_on_c, 0, 71, 100
2, 232704, Note_on_c, 0, 71, 0
2, 232704, Note_on_c, 0, 72, 100
2, 232896, Note_on_c, 0, 72, 0
2, 232896, Note_on_c, 0, 68, 100
2, 233088, Note_on_c, 0, 68, 0
2, 233088, Note_on_c, 0, 69, 100
2, 233280, Note_on_c, 0, 69, 0
2, 233280, Note_on_c, 0, 74, 100
2, 233472, Note_on_c, 0, 74, 0
2, 233472, Note_on_c, 0, 72, 100
2, 233664, Note_on_c, 0, 72, 0
2, 233664, Note_on_c, 0, 74, 100
2, 233856, Note_on_c, 0, 74, 0
2, 233856, Note_on_c, 0, 83, 100
2, 234240, Note_on_c, 0, 83, 0
2, 234240, Note_on_c, 0, 80, 100
2, 234432, Note_on_c, 0, 80, 0
2, 234432, Note_on_c, 0, 81, 100
2, 234816, Note_on_c, 0, 81, 0
2, 234816, Note_on_c, 0, 83, 100
2, 235008, Note_on_c, 0, 83, 0
2, 235008, Note_on_c, 0, 76, 100
2, 235200, Note_on_c, 0, 76, 0
2, 235200, Note_on_c, 0, 74, 100
2, 235392, Note_on_c, 0, 74, 0
2, 235392, Note_on_c, 0, 76, 100
2, 235584, Note_on_c, 0, 76, 0
2, 235584, Note_on_c, 0, 69, 100
2, 235776, Note_on_c, 0, 69, 0
2, 235776, Note_on_c, 0, 72, 100
2, 235968, Note_on_c, 0, 72, 0
2, 235968, Note_on_c, 0, 76, 100
2, 236160, Note_on_c, 0, 76, 0
2, 236160, Note_on_c, 0, 79, 100
2, 236352, Note_on_c, 0, 79, 0
2, 236352, Note_on_c, 0, 77, 100
2, 236544, Note_on_c, 0, 77, 0
2, 236544, Note_on_c, 0, 76, 100
2, 236736, Note_on_c, 0, 76, 0
2, 236736, Note_on_c, 0, 77, 100
2, 236928, Note_on_c, 0, 77, 0
2, 236928, Note_on_c, 0, 76, 100
2, 237120, Note_on_c, 0, 76, 0
2, 237120, Note_on_c, 0, 77, 100
2, 237312, Note_on_c, 0, 77, 0
2, 237312, Note_on_c, 0, 74, 100
2, 237504, Note_on_c, 0, 74, 0
2, 237504, Note_on_c, 0, 77, 100
2, 237696, Note_on_c, 0, 77, 0
2, 237696, Note_on_c, 0, 81, 100
2, 237888, Note_on_c, 0, 81, 0
2, 237888, Note_on_c, 0, 81, 100
2, 238080, Note_on_c, 0, 81, 0
2, 238080, Note_on_c, 0, 82, 100
2, 238272, Note_on_c, 0, 82, 0
2, 238272, Note_on_c, 0, 74, 100
2, 238464, Note_on_c, 0, 74, 0
2, 238464, Note_on_c, 0, 76, 100
2, 238656, Note_on_c, 0, 76, 0
2, 238656, Note_on_c, 0, 74, 100
2, 238848, Note_on_c, 0, 74, 0
2, 238848, Note_on_c, 0, 76, 100
2, 239040, Note_on_c, 0, 76, 0
2, 239040, Note_on_c, 0, 72, 100
2, 239232, Note_on_c, 0, 72, 0
2, 239232, Note_on_c, 0, 76, 100
2, 239424, Note_on_c, 0, 76, 0
2, 239424, Note_on_c, 0, 80, 100
2, 239616, Note_on_c, 0, 80, 0
2, 239616, Note_on_c, 0, 80, 100
2, 239808, Note_on_c, 0, 80, 0
2, 239808, Note_on_c, 0, 81, 100
2, 240000, Note_on_c, 0, 81, 0
2, 240000, Note_on_c, 0, 69, 100
2, 240192, Note_on_c, 0, 69, 0
2, 240192, Note_on_c, 0, 74, 100
2, 240576, Note_on_c, 0, 74, 0
2, 240576, Note_on_c, 0, 74, 100
2, 240768, Note_on_c, 0, 74, 0
2, 240768, Note_on_c, 0, 74, 100
2, 241152, Note_on_c, 0, 74, 0
2, 241152, Note_on_c, 0, 74, 100
2, 241344, Note_on_c, 0, 74, 0
2, 241344, Note_on_c, 0, 74, 100
2, 241728, Note_on_c, 0, 74, 0
2, 241728, Note_on_c, 0, 74, 100
2, 241920, Note_on_c, 0, 74, 0
2, 241920, Note_on_c, 0, 74, 100
2, 242112, Note_on_c, 0, 74, 0
2, 242112, Note_on_c, 0, 72, 100
2, 242304, Note_on_c, 0, 72, 0
2, 242304, Note_on_c, 0, 71, 100
2, 242496, Note_on_c, 0, 71, 0
2, 242496, Note_on_c, 0, 76, 100
2, 242880, Note_on_c, 0, 76, 0
2, 242880, Note_on_c, 0, 69, 100
2, 243072, Note_on_c, 0, 69, 0
2, 243072, Note_on_c, 0, 64, 100
2, 243456, Note_on_c, 0, 64, 0
2, 243456, Note_on_c, 0, 68, 100
2, 243648, Note_on_c, 0, 68, 0
2, 243648, Note_on_c, 0, 69, 100
2, 244800, Note_on_c, 0, 69, 0
2, 244800, End_track
3, 0, Start_track
3, 0, MIDI_port, 0
3, 0, Title_t, "Violin 1"
3, 0, Program_c, 1, 40
3, 0, Control_c, 1, 7, 110
3, 0, Control_c, 1, 10, 32
3, 1536, Note_on_c, 1, 76, 100
3, 1728, Note_on_c, 1, 76, 0
3, 1728, Note_on_c, 1, 81, 100
3, 1920, Note_on_c, 1, 81, 0
3, 1920, Note_on_c, 1, 79, 100
3, 2112, Note_on_c, 1, 79, 0
3, 2112, Note_on_c, 1, 77, 100
3, 2304, Note_on_c, 1, 77, 0
3, 2304, Note_on_c, 1, 76, 100
3, 2496, Note_on_c, 1, 76, 0
3, 2496, Note_on_c, 1, 74, 100
3, 2688, Note_on_c, 1, 74, 0
3, 2688, Note_on_c, 1, 72, 100
3, 2880, Note_on_c, 1, 72, 0
3, 2880, Note_on_c, 1, 71, 100
3, 3072, Note_on_c, 1, 71, 0
3, 3072, Note_on_c, 1, 72, 100
3, 3264, Note_on_c, 1, 72, 0
3, 3264, Note_on_c, 1, 74, 100
3, 3456, Note_on_c, 1, 74, 0
3, 3456, Note_on_c, 1, 72, 100
3, 3648, Note_on_c, 1, 72, 0
3, 3648, Note_on_c, 1, 71, 100
3, 3840, Note_on_c, 1, 71, 0
3, 3840, Note_on_c, 1, 72, 100
3, 4032, Note_on_c, 1, 72, 0
3, 4032, Note_on_c, 1, 69, 100
3, 4224, Note_on_c, 1, 69, 0
3, 4224, Note_on_c, 1, 71, 100
3, 4416, Note_on_c, 1, 71, 0
3, 4416, Note_on_c, 1, 72, 100
3, 4608, Note_on_c, 1, 72, 0
3, 4608, Note_on_c, 1, 64, 100
3, 4800, Note_on_c, 1, 64, 0
3, 4800, Note_on_c, 1, 69, 100
3, 4992, Note_on_c, 1, 69, 0
3, 4992, Note_on_c, 1, 72, 100
3, 5184, Note_on_c, 1, 72, 0
3, 5184, Note_on_c, 1, 71, 100
3, 5376, Note_on_c, 1, 71, 0
3, 5376, Note_on_c, 1, 69, 100
3, 5568, Note_on_c, 1, 69, 0
3, 5568, Note_on_c, 1, 71, 100
3, 5760, Note_on_c, 1, 71, 0
3, 5760, Note_on_c, 1, 68, 100
3, 5952, Note_on_c, 1, 68, 0
3, 5952, Note_on_c, 1, 69, 100
3, 6144, Note_on_c, 1, 69, 0
3, 6144, Note_on_c, 1, 71, 100
3, 6336, Note_on_c, 1, 71, 0
3, 6336, Note_on_c, 1, 64, 100
3, 6528, Note_on_c, 1, 64, 0
3, 6528, Note_on_c, 1, 71, 100
3, 6720, Note_on_c, 1, 71, 0
3, 6720, Note_on_c, 1, 74, 100
3, 6912, Note_on_c, 1, 74, 0
3, 6912, Note_on_c, 1, 72, 100
3, 7104, Note_on_c, 1, 72, 0
3, 7104, Note_on_c, 1, 71, 100
3, 7296, Note_on_c, 1, 71, 0
3, 7296, Note_on_c, 1, 72, 100
3, 7488, Note_on_c, 1, 72, 0
3, 7488, Note_on_c, 1, 69, 100
3, 7680, Note_on_c, 1, 69, 0
3, 7680, Note_on_c, 1, 72, 100
3, 7872, Note_on_c, 1, 72, 0
3, 7872, Note_on_c, 1, 76, 100
3, 8064, Note_on_c, 1, 76, 0
3, 8064, Note_on_c, 1, 81, 100
3, 8256, Note_on_c, 1, 81, 0
3, 8256, Note_on_c, 1, 79, 100
3, 8448, Note_on_c, 1, 79, 0
3, 8448, Note_on_c, 1, 78, 100
3, 8640, Note_on_c, 1, 78, 0
3, 8640, Note_on_c, 1, 79, 100
3, 9408, Note_on_c, 1, 79, 0
3, 9408, Note_on_c, 1, 78, 100
3, 9600, Note_on_c, 1, 78, 0
3, 9600, Note_on_c, 1, 76, 100
3, 9792, Note_on_c, 1, 76, 0
3, 9792, Note_on_c, 1, 83, 100
3, 10176, Note_on_c, 1, 83, 0
3, 10176, Note_on_c, 1, 83, 100
3, 10368, Note_on_c, 1, 83, 0
3, 10368, Note_on_c, 1, 83, 100
3, 10560, Note_on_c, 1, 83, 0
3, 10560, Note_on_c, 1, 81, 100
3, 10752, Note_on_c, 1, 81, 0
3, 10752, Note_on_c, 1, 83, 100
3, 10944, Note_on_c, 1, 83, 0
3, 10944, Note_on_c, 1, 79, 100
3, 11136, Note_on_c, 1, 79, 0
3, 11136, Note_on_c, 1, 78, 100
3, 11328, Note_on_c, 1, 78, 0
3, 11328, Note_on_c, 1, 76, 100
3, 11520, Note_on_c, 1, 76, 0
3, 11520, Note_on_c, 1, 83, 100
3, 11904, Note_on_c, 1, 83, 0
3, 11904, Note_on_c, 1, 83, 100
3, 12096, Note_on_c, 1, 83, 0
3, 12096, Note_on_c, 1, 83, 100
3, 12480, Note_on_c, 1, 83, 0
3, 12480, Note_on_c, 1, 83, 100
3, 12672, Note_on_c, 1, 83, 0
3, 12672, Note_on_c, 1, 83, 100
3, 13056, Note_on_c, 1, 83, 0
3, 13056, Note_on_c, 1, 83, 100
3, 13248, Note_on_c, 1, 83, 0
3, 13248, Note_on_c, 1, 83, 100
3, 13632, Note_on_c, 1, 83, 0
3, 13632, Note_on_c, 1, 83, 100
3, 13824, Note_on_c, 1, 83, 0
3, 13824, Note_on_c, 1, 83, 100
3, 14016, Note_on_c, 1, 83, 0
3, 14016, Note_on_c, 1, 81, 100
3, 14208, Note_on_c, 1, 81, 0
3, 14208, Note_on_c, 1, 83, 100
3, 14400, Note_on_c, 1, 83, 0
3, 14400, Note_on_c, 1, 79, 100
3, 14784, Note_on_c, 1, 79, 0
3, 14784, Note_on_c, 1, 76, 100
3, 14976, Note_on_c, 1, 76, 0
3, 14976, Note_on_c, 1, 78, 100
3, 15360, Note_on_c, 1, 78, 0
3, 15360, Note_on_c, 1, 80, 100
3, 15552, Note_on_c, 1, 80, 0
3, 15552, Note_on_c, 1, 81, 100
3, 15936, Note_on_c, 1, 81, 0
3, 15936, Note_on_c, 1, 69, 100
3, 16128, Note_on_c, 1, 69, 0
3, 16128, Note_on_c, 1, 72, 100
3, 16512, Note_on_c, 1, 72, 0
3, 16512, Note_on_c, 1, 76, 100
3, 16704, Note_on_c, 1, 76, 0
3, 16704, Note_on_c, 1, 80, 100
3, 16896, Note_on_c, 1, 80, 0
3, 16896, Note_on_c, 1, 81, 100
3, 17088, Note_on_c, 1, 81, 0
3, 17088, Note_on_c, 1, 83, 100
3, 17280, Note_on_c, 1, 83, 0
3, 17280, Note_on_c, 1, 81, 100
3, 17472, Note_on_c, 1, 81, 0
3, 17472, Note_on_c, 1, 80, 100
3, 17664, Note_on_c, 1, 80, 0
3, 17664, Note_on_c, 1, 81, 100
3, 17856, Note_on_c, 1, 81, 0
3, 17856, Note_on_c, 1, 76, 100
3, 18048, Note_on_c, 1, 76, 0
3, 18048, Note_on_c, 1, 74, 100
3, 18240, Note_on_c, 1, 74, 0
3, 18240, Note_on_c, 1, 76, 100
3, 18432, Note_on_c, 1, 76, 0
3, 18432, Note_on_c, 1, 72, 100
3, 18624, Note_on_c, 1, 72, 0
3, 18624, Note_on_c, 1, 76, 100
3, 18816, Note_on_c, 1, 76, 0
3, 18816, Note_on_c, 1, 81, 100
3, 19008, Note_on_c, 1, 81, 0
3, 19008, Note_on_c, 1, 80, 100
3, 19200, Note_on_c, 1, 80, 0
3, 19200, Note_on_c, 1, 78, 100
3, 19392, Note_on_c, 1, 78, 0
3, 19392, Note_on_c, 1, 80, 100
3, 19584, Note_on_c, 1, 80, 0
3, 19584, Note_on_c, 1, 76, 100
3, 19968, Note_on_c, 1, 76, 0
3, 19968, Note_on_c, 1, 80, 100
3, 20160, Note_on_c, 1, 80, 0
3, 20160, Note_on_c, 1, 83, 100
3, 20352, Note_on_c, 1, 83, 0
3, 20352, Note_on_c, 1, 81, 100
3, 20544, Note_on_c, 1, 81, 0
3, 20544, Note_on_c, 1, 80, 100
3, 20736, Note_on_c, 1, 80, 0
3, 20736, Note_on_c, 1, 81, 100
3, 21312, Note_on_c, 1, 81, 0
3, 21696, Note_on_c, 1, 72, 100
3, 21888, Note_on_c, 1, 72, 0
3, 21888, Note_on_c, 1, 76, 100
3, 22272, Note_on_c, 1, 76, 0
3, 22272, Note_on_c, 1, 81, 100
3, 22464, Note_on_c, 1, 81, 0
3, 22464, Note_on_c, 1, 74, 100
3, 22848, Note_on_c, 1, 74, 0
3, 22848, Note_on_c, 1, 65, 100
3, 23040, Note_on_c, 1, 65, 0
3, 23040, Note_on_c, 1, 69, 100
3, 23424, Note_on_c, 1, 69, 0
3, 23424, Note_on_c, 1, 74, 100
3, 23616, Note_on_c, 1, 74, 0
3, 23616, Note_on_c, 1, 67, 100
3, 24000, Note_on_c, 1, 67, 0
3, 24000, Note_on_c, 1, 74, 100
3, 24192, Note_on_c, 1, 74, 0
3, 24192, Note_on_c, 1, 74, 100
3, 24384, Note_on_c, 1, 74, 0
3, 24384, Note_on_c, 1, 72, 100
3, 24576, Note_on_c, 1, 72, 0
3, 24576, Note_on_c, 1, 74, 100
3, 24768, Note_on_c, 1, 74, 0
3, 24768, Note_on_c, 1, 67, 100
3, 24960, Note_on_c, 1, 67, 0
3, 24960, Note_on_c, 1, 71, 100
3, 25152, Note_on_c, 1, 71, 0
3, 25152, Note_on_c, 1, 74, 100
3, 25344, Note_on_c, 1, 74, 0
3, 25344, Note_on_c, 1, 77, 100
3, 25536, Note_on_c, 1, 77, 0
3, 25536, Note_on_c, 1, 76, 100
3, 25728, Note_on_c, 1, 76, 0
3, 25728, Note_on_c, 1, 74, 100
3, 25920, Note_on_c, 1, 74, 0
3, 25920, Note_on_c, 1, 76, 100
3, 26304, Note_on_c, 1, 76, 0
3, 26304, Note_on_c, 1, 77, 100
3, 26496, Note_on_c, 1, 77, 0
3, 26496, Note_on_c, 1, 79, 100
3, 27264, Note_on_c, 1, 79, 0
3, 27456, Note_on_c, 1, 71, 100
3, 27648, Note_on_c, 1, 71, 0
3, 27648, Note_on_c, 1, 72, 100
3, 28032, Note_on_c, 1, 72, 0
3, 28032, Note_on_c, 1, 67, 100
3, 28224, Note_on_c, 1, 67, 0
3, 28224, Note_on_c, 1, 79, 100
3, 29184, Note_on_c, 1, 79, 0
3, 29184, Note_on_c, 1, 69, 100
3, 29376, Note_on_c, 1, 69, 0
3, 29376, Note_on_c, 1, 71, 100
3, 29760, Note_on_c, 1, 71, 0
3, 29760, Note_on_c, 1, 67, 100
3, 29952, Note_on_c, 1, 67, 0
3, 29952, Note_on_c, 1, 77, 100
3, 30912, Note_on_c, 1, 77, 0
3, 30912, Note_on_c, 1, 74, 100
3, 31104, Note_on_c, 1, 74, 0
3, 31104, Note_on_c, 1, 76, 100
3, 31488, Note_on_c, 1, 76, 0
3, 31488, Note_on_c, 1, 79, 100
3, 31680, Note_on_c, 1, 79, 0
3, 31680, Note_on_c, 1, 76, 100
3, 32064, Note_on_c, 1, 76, 0
3, 32064, Note_on_c, 1, 71, 100
3, 32256, Note_on_c, 1, 71, 0
3, 32256, Note_on_c, 1, 72, 100
3, 32448, Note_on_c, 1, 72, 0
3, 32448, Note_on_c, 1, 68, 100
3, 32640, Note_on_c, 1, 68, 0
3, 32640, Note_on_c, 1, 69, 100
3, 32832, Note_on_c, 1, 69, 0
3, 32832, Note_on_c, 1, 74, 100
3, 33024, Note_on_c, 1, 74, 0
3, 33024, Note_on_c, 1, 72, 100
3, 33216, Note_on_c, 1, 72, 0
3, 33216, Note_on_c, 1, 74, 100
3, 33408, Note_on_c, 1, 74, 0
3, 33408, Note_on_c, 1, 83, 100
3, 33792, Note_on_c, 1, 83, 0
3, 33792, Note_on_c, 1, 80, 100
3, 33984, Note_on_c, 1, 80, 0
3, 33984, Note_on_c, 1, 81, 100
3, 34368, Note_on_c, 1, 81, 0
3, 34368, Note_on_c, 1, 83, 100
3, 34560, Note_on_c, 1, 83, 0
3, 34560, Note_on_c, 1, 76, 100
3, 34752, Note_on_c, 1, 76, 0
3, 34752, Note_on_c, 1, 74, 100
3, 34944, Note_on_c, 1, 74, 0
3, 34944, Note_on_c, 1, 76, 100
3, 35136, Note_on_c, 1, 76, 0
3, 35136, Note_on_c, 1, 69, 100
3, 35328, Note_on_c, 1, 69, 0
3, 35328, Note_on_c, 1, 72, 100
3, 35520, Note_on_c, 1, 72, 0
3, 35520, Note_on_c, 1, 76, 100
3, 35712, Note_on_c, 1, 76, 0
3, 35712, Note_on_c, 1, 79, 100
3, 35904, Note_on_c, 1, 79, 0
3, 35904, Note_on_c, 1, 77, 100
3, 36096, Note_on_c, 1, 77, 0
3, 36096, Note_on_c, 1, 76, 100
3, 36288, Note_on_c, 1, 76, 0
3, 36288, Note_on_c, 1, 77, 100
3, 36480, Note_on_c, 1, 77, 0
3, 36480, Note_on_c, 1, 76, 100
3, 36672, Note_on_c, 1, 76, 0
3, 36672, Note_on_c, 1, 77, 100
3, 36864, Note_on_c, 1, 77, 0
3, 36864, Note_on_c, 1, 74, 100
3, 37056, Note_on_c, 1, 74, 0
3, 37056, Note_on_c, 1, 77, 100
3, 37248, Note_on_c, 1, 77, 0
3, 37248, Note_on_c, 1, 81, 100
3, 37440, Note_on_c, 1, 81, 0
3, 37440, Note_on_c, 1, 81, 100
3, 37632, Note_on_c, 1, 81, 0
3, 37632, Note_on_c, 1, 82, 100
3, 37824, Note_on_c, 1, 82, 0
3, 37824, Note_on_c, 1, 74, 100
3, 38016, Note_on_c, 1, 74, 0
3, 38016, Note_on_c, 1, 76, 100
3, 38208, Note_on_c, 1, 76, 0
3, 38208, Note_on_c, 1, 74, 100
3, 38400, Note_on_c, 1, 74, 0
3, 38400, Note_on_c, 1, 76, 100
3, 38592, Note_on_c, 1, 76, 0
3, 38592, Note_on_c, 1, 72, 100
3, 38784, Note_on_c, 1, 72, 0
3, 38784, Note_on_c, 1, 76, 100
3, 38976, Note_on_c, 1, 76, 0
3, 38976, Note_on_c, 1, 80, 100
3, 39168, Note_on_c, 1, 80, 0
3, 39168, Note_on_c, 1, 80, 100
3, 39360, Note_on_c, 1, 80, 0
3, 39360, Note_on_c, 1, 81, 100
3, 39552, Note_on_c, 1, 81, 0
3, 39552, Note_on_c, 1, 69, 100
3, 39744, Note_on_c, 1, 69, 0
3, 39744, Note_on_c, 1, 74, 100
3, 40128, Note_on_c, 1, 74, 0
3, 40128, Note_on_c, 1, 74, 100
3, 40320, Note_on_c, 1, 74, 0
3, 40320, Note_on_c, 1, 74, 100
3, 40704, Note_on_c, 1, 74, 0
3, 40704, Note_on_c, 1, 74, 100
3, 40896, Note_on_c, 1, 74, 0
3, 40896, Note_on_c, 1, 74, 100
3, 41280, Note_on_c, 1, 74, 0
3, 41280, Note_on_c, 1, 74, 100
3, 41472, Note_on_c, 1, 74, 0
3, 41472, Note_on_c, 1, 74, 100
3, 41664, Note_on_c, 1, 74, 0
3, 41664, Note_on_c, 1, 72, 100
3, 41856, Note_on_c, 1, 72, 0
3, 41856, Note_on_c, 1, 71, 100
3, 42048, Note_on_c, 1, 71, 0
3, 42048, Note_on_c, 1, 76, 100
3, 42432, Note_on_c, 1, 76, 0
3, 42432, Note_on_c, 1, 69, 100
3, 42624, Note_on_c, 1, 69, 0
3, 42624, Note_on_c, 1, 64, 100
3, 43008, Note_on_c, 1, 64, 0
3, 43008, Note_on_c, 1, 68, 100
3, 43200, Note_on_c, 1, 68, 0
3, 43200, Note_on_c, 1, 69, 100
3, 43584, Note_on_c, 1, 69, 0
3, 45504, Note_on_c, 1, 71, 100
3, 45696, Note_on_c, 1, 71, 0
3, 45696, Note_on_c, 1, 69, 100
3, 45888, Note_on_c, 1, 69, 0
3, 45888, Note_on_c, 1, 71, 100
3, 46080, Note_on_c, 1, 71, 0
3, 46080, Note_on_c, 1, 68, 100
3, 46464, Note_on_c, 1, 68, 0
3, 48960, Note_on_c, 1, 76, 100
3, 49152, Note_on_c, 1, 76, 0
3, 49152, Note_on_c, 1, 74, 100
3, 49344, Note_on_c, 1, 74, 0
3, 49344, Note_on_c, 1, 76, 100
3, 49536, Note_on_c, 1, 76, 0
3, 49536, Note_on_c, 1, 72, 100
3, 49920, Note_on_c, 1, 72, 0
3, 50688, Note_on_c, 1, 81, 100
3, 51264, Note_on_c, 1, 81, 0
3, 52416, Note_on_c, 1, 81, 100
3, 52800, Note_on_c, 1, 81, 0
3, 54144, Note_on_c, 1, 80, 100
3, 54528, Note_on_c, 1, 80, 0
3, 55872, Note_on_c, 1, 83, 100
3, 56287, Note_on_c, 1, 83, 0
3, 57600, Note_on_c, 1, 76, 100
3, 57984, Note_on_c, 1, 76, 0
3, 59328, Note_on_c, 1, 74, 100
3, 59712, Note_on_c, 1, 74, 0
3, 61056, Note_on_c, 1, 74, 100
3, 61440, Note_on_c, 1, 74, 0
3, 62784, Note_on_c, 1, 72, 100
3, 63168, Note_on_c, 1, 72, 0
3, 64512, Note_on_c, 1, 72, 100
3, 64896, Note_on_c, 1, 72, 0
3, 66240, Note_on_c, 1, 71, 100
3, 66624, Note_on_c, 1, 71, 0
3, 67968, Note_on_c, 1, 71, 100
3, 68352, Note_on_c, 1, 71, 0
3, 69696, Note_on_c, 1, 76, 100
3, 70080, Note_on_c, 1, 76, 0
3, 71424, Note_on_c, 1, 76, 100
3, 71808, Note_on_c, 1, 76, 0
3, 73152, Note_on_c, 1, 75, 100
3, 73536, Note_on_c, 1, 75, 0
3, 74112, Note_on_c, 1, 71, 100
3, 74304, Note_on_c, 1, 71, 0
3, 74304, Note_on_c, 1, 76, 100
3, 74496, Note_on_c, 1, 76, 0
3, 74496, Note_on_c, 1, 74, 100
3, 74688, Note_on_c, 1, 74, 0
3, 74688, Note_on_c, 1, 72, 100
3, 74880, Note_on_c, 1, 72, 0
3, 74880, Note_on_c, 1, 71, 100
3, 75072, Note_on_c, 1, 71, 0
3, 75072, Note_on_c, 1, 69, 100
3, 75264, Note_on_c, 1, 69, 0
3, 75264, Note_on_c, 1, 67, 100
3, 75456, Note_on_c, 1, 67, 0
3, 75456, Note_on_c, 1, 66, 100
3, 75648, Note_on_c, 1, 66, 0
3, 75648, Note_on_c, 1, 67, 100
3, 75840, Note_on_c, 1, 67, 0
3, 75840, Note_on_c, 1, 69, 100
3, 76032, Note_on_c, 1, 69, 0
3, 76032, Note_on_c, 1, 67, 100
3, 76224, Note_on_c, 1, 67, 0
3, 76224, Note_on_c, 1, 66, 100
3, 76416, Note_on_c, 1, 66, 0
3, 76416, Note_on_c, 1, 67, 100
3, 76608, Note_on_c, 1, 67, 0
3, 76608, Note_on_c, 1, 64, 100
3, 76800, Note_on_c, 1, 64, 0
3, 76800, Note_on_c, 1, 66, 100
3, 76992, Note_on_c, 1, 66, 0
3, 76992, Note_on_c, 1, 67, 100
3, 77184, Note_on_c, 1, 67, 0
3, 77184, Note_on_c, 1, 59, 100
3, 77376, Note_on_c, 1, 59, 0
3, 77376, Note_on_c, 1, 64, 100
3, 77568, Note_on_c, 1, 64, 0
3, 77568, Note_on_c, 1, 67, 100
3, 77760, Note_on_c, 1, 67, 0
3, 77760, Note_on_c, 1, 66, 100
3, 77952, Note_on_c, 1, 66, 0
3, 77952, Note_on_c, 1, 64, 100
3, 78144, Note_on_c, 1, 64, 0
3, 78144, Note_on_c, 1, 66, 100
3, 78336, Note_on_c, 1, 66, 0
3, 78336, Note_on_c, 1, 63, 100
3, 78528, Note_on_c, 1, 63, 0
3, 78528, Note_on_c, 1, 64, 100
3, 78720, Note_on_c, 1, 64, 0
3, 78720, Note_on_c, 1, 66, 100
3, 78912, Note_on_c, 1, 66, 0
3, 78912, Note_on_c, 1, 59, 100
3, 79104, Note_on_c, 1, 59, 0
3, 79104, Note_on_c, 1, 66, 100
3, 79296, Note_on_c, 1, 66, 0
3, 79296, Note_on_c, 1, 69, 100
3, 79488, Note_on_c, 1, 69, 0
3, 79488, Note_on_c, 1, 67, 100
3, 79872, Note_on_c, 1, 67, 0
3, 81792, Note_on_c, 1, 78, 100
3, 81984, Note_on_c, 1, 78, 0
3, 81984, Note_on_c, 1, 76, 100
3, 82176, Note_on_c, 1, 76, 0
3, 82176, Note_on_c, 1, 78, 100
3, 82368, Note_on_c, 1, 78, 0
3, 82368, Note_on_c, 1, 75, 100
3, 82752, Note_on_c, 1, 75, 0
3, 85248, Note_on_c, 1, 83, 100
3, 85440, Note_on_c, 1, 83, 0
3, 85440, Note_on_c, 1, 81, 100
3, 85632, Note_on_c, 1, 81, 0
3, 85632, Note_on_c, 1, 83, 100
3, 85824, Note_on_c, 1, 83, 0
3, 85824, Note_on_c, 1, 79, 100
3, 86208, Note_on_c, 1, 79, 0
3, 86976, Note_on_c, 1, 76, 100
3, 87360, Note_on_c, 1, 76, 0
3, 88704, Note_on_c, 1, 76, 100
3, 89088, Note_on_c, 1, 76, 0
3, 90432, Note_on_c, 1, 81, 100
3, 90816, Note_on_c, 1, 81, 0
3, 92160, Note_on_c, 1, 81, 100
3, 92544, Note_on_c, 1, 81, 0
3, 93888, Note_on_c, 1, 79, 100
3, 94272, Note_on_c, 1, 79, 0
3, 95616, Note_on_c, 1, 79, 100
3, 96000, Note_on_c, 1, 79, 0
3, 97344, Note_on_c, 1, 77, 100
3, 97728, Note_on_c, 1, 77, 0
3, 99072, Note_on_c, 1, 77, 100
3, 99456, Note_on_c, 1, 77, 0
3, 100800, Note_on_c, 1, 76, 100
3, 101184, Note_on_c, 1, 76, 0
3, 102528, Note_on_c, 1, 77, 100
3, 102912, Note_on_c, 1, 77, 0
3, 104064, Note_on_c, 1, 77, 100
3, 104256, Note_on_c, 1, 77, 0
3, 104256, Note_on_c, 1, 76, 100
3, 104448, Note_on_c, 1, 76, 0
3, 104448, Note_on_c, 1, 74, 100
3, 104640, Note_on_c, 1, 74, 0
3, 104640, Note_on_c, 1, 72, 100
3, 104832, Note_on_c, 1, 72, 0
3, 104832, Note_on_c, 1, 71, 100
3, 105024, Note_on_c, 1, 71, 0
3, 105024, Note_on_c, 1, 72, 100
3, 105216, Note_on_c, 1, 72, 0
3, 105216, Note_on_c, 1, 74, 100
3, 105408, Note_on_c, 1, 74, 0
3, 105408, Note_on_c, 1, 72, 100
3, 105600, Note_on_c, 1, 72, 0
3, 105600, Note_on_c, 1, 71, 100
3, 105792, Note_on_c, 1, 71, 0
3, 105792, Note_on_c, 1, 72, 100
3, 105984, Note_on_c, 1, 72, 0
3, 105984, Note_on_c, 1, 67, 100
3, 106176, Note_on_c, 1, 67, 0
3, 106176, Note_on_c, 1, 71, 100
3, 106368, Note_on_c, 1, 71, 0
3, 106368, Note_on_c, 1, 72, 100
3, 106560, Note_on_c, 1, 72, 0
3, 106560, Note_on_c, 1, 64, 100
3, 106752, Note_on_c, 1, 64, 0
3, 106752, Note_on_c, 1, 67, 100
3, 106944, Note_on_c, 1, 67, 0
3, 106944, Note_on_c, 1, 72, 100
3, 107136, Note_on_c, 1, 72, 0
3, 107136, Note_on_c, 1, 71, 100
3, 107328, Note_on_c, 1, 71, 0
3, 107328, Note_on_c, 1, 69, 100
3, 107520, Note_on_c, 1, 69, 0
3, 107520, Note_on_c, 1, 71, 100
3, 107712, Note_on_c, 1, 71, 0
3, 107712, Note_on_c, 1, 67, 100
3, 107904, Note_on_c, 1, 67, 0
3, 107904, Note_on_c, 1, 69, 100
3, 108096, Note_on_c, 1, 69, 0
3, 108096, Note_on_c, 1, 71, 100
3, 108288, Note_on_c, 1, 71, 0
3, 108288, Note_on_c, 1, 62, 100
3, 108480, Note_on_c, 1, 62, 0
3, 108480, Note_on_c, 1, 67, 100
3, 108672, Note_on_c, 1, 67, 0
3, 108672, Note_on_c, 1, 71, 100
3, 108864, Note_on_c, 1, 71, 0
3, 108864, Note_on_c, 1, 72, 100
3, 109056, Note_on_c, 1, 72, 0
3, 109056, Note_on_c, 1, 71, 100
3, 109248, Note_on_c, 1, 71, 0
3, 109248, Note_on_c, 1, 72, 100
3, 109440, Note_on_c, 1, 72, 0
3, 109440, Note_on_c, 1, 67, 100
3, 109824, Note_on_c, 1, 67, 0
3, 109824, Note_on_c, 1, 64, 100
3, 110016, Note_on_c, 1, 64, 0
3, 110016, Note_on_c, 1, 60, 100
3, 110400, Note_on_c, 1, 60, 0
3, 110400, Note_on_c, 1, 78, 100
3, 110592, Note_on_c, 1, 78, 0
3, 110592, Note_on_c, 1, 79, 100
3, 110784, Note_on_c, 1, 79, 0
3, 110784, Note_on_c, 1, 78, 100
3, 110976, Note_on_c, 1, 78, 0
3, 110976, Note_on_c, 1, 76, 100
3, 111168, Note_on_c, 1, 76, 0
3, 111168, Note_on_c, 1, 74, 100
3, 111360, Note_on_c, 1, 74, 0
3, 111360, Note_on_c, 1, 72, 100
3, 111552, Note_on_c, 1, 72, 0
3, 111552, Note_on_c, 1, 71, 100
3, 111744, Note_on_c, 1, 71, 0
3, 111744, Note_on_c, 1, 69, 100
3, 111936, Note_on_c, 1, 69, 0
3, 111936, Note_on_c, 1, 71, 100
3, 112128, Note_on_c, 1, 71, 0
3, 112128, Note_on_c, 1, 72, 100
3, 112320, Note_on_c, 1, 72, 0
3, 112320, Note_on_c, 1, 71, 100
3, 112512, Note_on_c, 1, 71, 0
3, 112512, Note_on_c, 1, 69, 100
3, 112704, Note_on_c, 1, 69, 0
3, 112704, Note_on_c, 1, 71, 100
3, 112896, Note_on_c, 1, 71, 0
3, 112896, Note_on_c, 1, 67, 100
3, 113088, Note_on_c, 1, 67, 0
3, 113088, Note_on_c, 1, 69, 100
3, 113280, Note_on_c, 1, 69, 0
3, 113280, Note_on_c, 1, 71, 100
3, 113472, Note_on_c, 1, 71, 0
3, 113472, Note_on_c, 1, 62, 100
3, 113664, Note_on_c, 1, 62, 0
3, 113664, Note_on_c, 1, 67, 100
3, 113856, Note_on_c, 1, 67, 0
3, 113856, Note_on_c, 1, 71, 100
3, 114048, Note_on_c, 1, 71, 0
3, 114048, Note_on_c, 1, 69, 100
3, 114240, Note_on_c, 1, 69, 0
3, 114240, Note_on_c, 1, 67, 100
3, 114432, Note_on_c, 1, 67, 0
3, 114432, Note_on_c, 1, 69, 100
3, 114624, Note_on_c, 1, 69, 0
3, 114624, Note_on_c, 1, 66, 100
3, 114816, Note_on_c, 1, 66, 0
3, 114816, Note_on_c, 1, 67, 100
3, 115008, Note_on_c, 1, 67, 0
3, 115008, Note_on_c, 1, 69, 100
3, 115200, Note_on_c, 1, 69, 0
3, 115200, Note_on_c, 1, 62, 100
3, 115392, Note_on_c, 1, 62, 0
3, 115392, Note_on_c, 1, 69, 100
3, 115584, Note_on_c, 1, 69, 0
3, 115584, Note_on_c, 1, 72, 100
3, 115776, Note_on_c, 1, 72, 0
3, 115776, Note_on_c, 1, 71, 100
3, 115968, Note_on_c, 1, 71, 0
3, 115968, Note_on_c, 1, 69, 100
3, 116160, Note_on_c, 1, 69, 0
3, 116160, Note_on_c, 1, 71, 100
3, 116352, Note_on_c, 1, 71, 0
3, 116352, Note_on_c, 1, 67, 100
3, 116544, Note_on_c, 1, 67, 0
3, 116544, Note_on_c, 1, 71, 100
3, 116736, Note_on_c, 1, 71, 0
3, 116736, Note_on_c, 1, 74, 100
3, 116928, Note_on_c, 1, 74, 0
3, 116928, Note_on_c, 1, 79, 100
3, 117120, Note_on_c, 1, 79, 0
3, 117120, Note_on_c, 1, 77, 100
3, 117312, Note_on_c, 1, 77, 0
3, 117312, Note_on_c, 1, 76, 100
3, 117504, Note_on_c, 1, 76, 0
3, 117504, Note_on_c, 1, 77, 100
3, 117888, Note_on_c, 1, 77, 0
3, 117888, Note_on_c, 1, 69, 100
3, 118080, Note_on_c, 1, 69, 0
3, 118080, Note_on_c, 1, 74, 100
3, 118464, Note_on_c, 1, 74, 0
3, 118464, Note_on_c, 1, 77, 100
3, 118656, Note_on_c, 1, 77, 0
3, 118656, Note_on_c, 1, 68, 100
3, 119040, Note_on_c, 1, 68, 0
3, 119040, Note_on_c, 1, 80, 100
3, 119232, Note_on_c, 1, 80, 0
3, 119232, Note_on_c, 1, 81, 100
3, 119424, Note_on_c, 1, 81, 0
3, 119424, Note_on_c, 1, 79, 100
3, 119616, Note_on_c, 1, 79, 0
3, 119616, Note_on_c, 1, 77, 100
3, 119808, Note_on_c, 1, 77, 0
3, 119808, Note_on_c, 1, 79, 100
3, 120000, Note_on_c, 1, 79, 0
3, 120000, Note_on_c, 1, 77, 100
3, 120192, Note_on_c, 1, 77, 0
3, 120192, Note_on_c, 1, 76, 100
3, 120384, Note_on_c, 1, 76, 0
3, 120384, Note_on_c, 1, 74, 100
3, 120576, Note_on_c, 1, 74, 0
3, 120576, Note_on_c, 1, 76, 100
3, 120768, Note_on_c, 1, 76, 0
3, 120768, Note_on_c, 1, 77, 100
3, 120960, Note_on_c, 1, 77, 0
3, 120960, Note_on_c, 1, 76, 100
3, 121152, Note_on_c, 1, 76, 0
3, 121152, Note_on_c, 1, 74, 100
3, 121344, Note_on_c, 1, 74, 0
3, 121344, Note_on_c, 1, 76, 100
3, 121536, Note_on_c, 1, 76, 0
3, 121536, Note_on_c, 1, 72, 100
3, 121728, Note_on_c, 1, 72, 0
3, 121728, Note_on_c, 1, 74, 100
3, 121920, Note_on_c, 1, 74, 0
3, 121920, Note_on_c, 1, 76, 100
3, 122112, Note_on_c, 1, 76, 0
3, 122112, Note_on_c, 1, 67, 100
3, 122304, Note_on_c, 1, 67, 0
3, 122304, Note_on_c, 1, 72, 100
3, 122496, Note_on_c, 1, 72, 0
3, 122496, Note_on_c, 1, 76, 100
3, 122688, Note_on_c, 1, 76, 0
3, 122688, Note_on_c, 1, 74, 100
3, 122880, Note_on_c, 1, 74, 0
3, 122880, Note_on_c, 1, 72, 100
3, 123072, Note_on_c, 1, 72, 0
3, 123072, Note_on_c, 1, 74, 100
3, 123264, Note_on_c, 1, 74, 0
3, 123264, Note_on_c, 1, 71, 100
3, 123456, Note_on_c, 1, 71, 0
3, 123456, Note_on_c, 1, 72, 100
3, 123648, Note_on_c, 1, 72, 0
3, 123648, Note_on_c, 1, 74, 100
3, 123840, Note_on_c, 1, 74, 0
3, 123840, Note_on_c, 1, 67, 100
3, 124032, Note_on_c, 1, 67, 0
3, 124032, Note_on_c, 1, 74, 100
3, 124224, Note_on_c, 1, 74, 0
3, 124224, Note_on_c, 1, 77, 100
3, 124416, Note_on_c, 1, 77, 0
3, 124416, Note_on_c, 1, 76, 100
3, 124608, Note_on_c, 1, 76, 0
3, 124608, Note_on_c, 1, 74, 100
3, 124800, Note_on_c, 1, 74, 0
3, 124800, Note_on_c, 1, 76, 100
3, 124992, Note_on_c, 1, 76, 0
3, 124992, Note_on_c, 1, 72, 100
3, 125376, Note_on_c, 1, 72, 0
3, 125568, Note_on_c, 1, 76, 100
3, 125952, Note_on_c, 1, 76, 0
3, 126144, Note_on_c, 1, 77, 100
3, 126528, Note_on_c, 1, 77, 0
3, 127680, Note_on_c, 1, 76, 100
3, 127872, Note_on_c, 1, 76, 0
3, 127872, Note_on_c, 1, 77, 100
3, 128064, Note_on_c, 1, 77, 0
3, 128064, Note_on_c, 1, 76, 100
3, 128256, Note_on_c, 1, 76, 0
3, 128256, Note_on_c, 1, 77, 100
3, 128448, Note_on_c, 1, 77, 0
3, 128448, Note_on_c, 1, 74, 100
3, 128832, Note_on_c, 1, 74, 0
3, 129024, Note_on_c, 1, 78, 100
3, 129408, Note_on_c, 1, 78, 0
3, 129600, Note_on_c, 1, 79, 100
3, 129984, Note_on_c, 1, 79, 0
3, 131136, Note_on_c, 1, 78, 100
3, 131328, Note_on_c, 1, 78, 0
3, 131328, Note_on_c, 1, 79, 100
3, 131520, Note_on_c, 1, 79, 0
3, 131520, Note_on_c, 1, 78, 100
3, 131712, Note_on_c, 1, 78, 0
3, 131712, Note_on_c, 1, 79, 100
3, 131904, Note_on_c, 1, 79, 0
3, 131904, Note_on_c, 1, 76, 100
3, 132288, Note_on_c, 1, 76, 0
3, 132480, Note_on_c, 1, 80, 100
3, 132864, Note_on_c, 1, 80, 0
3, 133056, Note_on_c, 1, 81, 100
3, 133440, Note_on_c, 1, 81, 0
3, 134592, Note_on_c, 1, 79, 100
3, 134784, Note_on_c, 1, 79, 0
3, 134784, Note_on_c, 1, 81, 100
3, 134976, Note_on_c, 1, 81, 0
3, 134976, Note_on_c, 1, 79, 100
3, 135168, Note_on_c, 1, 79, 0
3, 135168, Note_on_c, 1, 81, 100
3, 135360, Note_on_c, 1, 81, 0
3, 135360, Note_on_c, 1, 77, 100
3, 135744, Note_on_c, 1, 77, 0
3, 135936, Note_on_c, 1, 79, 100
3, 136320, Note_on_c, 1, 79, 0
3, 136512, Note_on_c, 1, 81, 100
3, 136896, Note_on_c, 1, 81, 0
3, 138048, Note_on_c, 1, 81, 100
3, 138240, Note_on_c, 1, 81, 0
3, 138240, Note_on_c, 1, 83, 100
3, 138432, Note_on_c, 1, 83, 0
3, 138432, Note_on_c, 1, 81, 100
3, 138624, Note_on_c, 1, 81, 0
3, 138624, Note_on_c, 1, 83, 100
3, 138816, Note_on_c, 1, 83, 0
3, 138816, Note_on_c, 1, 79, 100
3, 139200, Note_on_c, 1, 79, 0
3, 139392, Note_on_c, 1, 81, 100
3, 139776, Note_on_c, 1, 81, 0
3, 139968, Note_on_c, 1, 83, 100
3, 140352, Note_on_c, 1, 83, 0
3, 141504, Note_on_c, 1, 80, 100
3, 141696, Note_on_c, 1, 80, 0
3, 141696, Note_on_c, 1, 81, 100
3, 142080, Note_on_c, 1, 81, 0
3, 142080, Note_on_c, 1, 76, 100
3, 142272, Note_on_c, 1, 76, 0
3, 142272, Note_on_c, 1, 81, 100
3, 142656, Note_on_c, 1, 81, 0
3, 142656, Note_on_c, 1, 76, 100
3, 142848, Note_on_c, 1, 76, 0
3, 142848, Note_on_c, 1, 81, 100
3, 143232, Note_on_c, 1, 81, 0
3, 143232, Note_on_c, 1, 76, 100
3, 143424, Note_on_c, 1, 76, 0
3, 143424, Note_on_c, 1, 77, 100
3, 143808, Note_on_c, 1, 77, 0
3, 143808, Note_on_c, 1, 74, 100
3, 144000, Note_on_c, 1, 74, 0
3, 144000, Note_on_c, 1, 77, 100
3, 144384, Note_on_c, 1, 77, 0
3, 144384, Note_on_c, 1, 74, 100
3, 144576, Note_on_c, 1, 74, 0
3, 144576, Note_on_c, 1, 77, 100
3, 144960, Note_on_c, 1, 77, 0
3, 144960, Note_on_c, 1, 74, 100
3, 145152, Note_on_c, 1, 74, 0
3, 145152, Note_on_c, 1, 77, 100
3, 145536, Note_on_c, 1, 77, 0
3, 145536, Note_on_c, 1, 74, 100
3, 145728, Note_on_c, 1, 74, 0
3, 145728, Note_on_c, 1, 77, 100
3, 146112, Note_on_c, 1, 77, 0
3, 146112, Note_on_c, 1, 74, 100
3, 146304, Note_on_c, 1, 74, 0
3, 146304, Note_on_c, 1, 77, 100
3, 146688, Note_on_c, 1, 77, 0
3, 146688, Note_on_c, 1, 74, 100
3, 146880, Note_on_c, 1, 74, 0
3, 146880, Note_on_c, 1, 76, 100
3, 147264, Note_on_c, 1, 76, 0
3, 147264, Note_on_c, 1, 72, 100
3, 147456, Note_on_c, 1, 72, 0
3, 147456, Note_on_c, 1, 76, 100
3, 147840, Note_on_c, 1, 76, 0
3, 147840, Note_on_c, 1, 72, 100
3, 148032, Note_on_c, 1, 72, 0
3, 148032, Note_on_c, 1, 76, 100
3, 148416, Note_on_c, 1, 76, 0
3, 148416, Note_on_c, 1, 72, 100
3, 148608, Note_on_c, 1, 72, 0
3, 148608, Note_on_c, 1, 76, 100
3, 148992, Note_on_c, 1, 76, 0
3, 148992, Note_on_c, 1, 72, 100
3, 149184, Note_on_c, 1, 72, 0
3, 149184, Note_on_c, 1, 76, 100
3, 149568, Note_on_c, 1, 76, 0
3, 149568, Note_on_c, 1, 72, 100
3, 149760, Note_on_c, 1, 72, 0
3, 149760, Note_on_c, 1, 76, 100
3, 150144, Note_on_c, 1, 76, 0
3, 150144, Note_on_c, 1, 72, 100
3, 150336, Note_on_c, 1, 72, 0
3, 150336, Note_on_c, 1, 74, 100
3, 150720, Note_on_c, 1, 74, 0
3, 150720, Note_on_c, 1, 71, 100
3, 150912, Note_on_c, 1, 71, 0
3, 150912, Note_on_c, 1, 74, 100
3, 151296, Note_on_c, 1, 74, 0
3, 151296, Note_on_c, 1, 71, 100
3, 151488, Note_on_c, 1, 71, 0
3, 151488, Note_on_c, 1, 74, 100
3, 151872, Note_on_c, 1, 74, 0
3, 151872, Note_on_c, 1, 71, 100
3, 152064, Note_on_c, 1, 71, 0
3, 152064, Note_on_c, 1, 80, 100
3, 156672, Note_on_c, 1, 80, 0
3, 157056, Note_on_c, 1, 76, 100
3, 157248, Note_on_c, 1, 76, 0
3, 157248, Note_on_c, 1, 81, 100
3, 157440, Note_on_c, 1, 81, 0
3, 157440, Note_on_c, 1, 79, 100
3, 157632, Note_on_c, 1, 79, 0
3, 157632, Note_on_c, 1, 77, 100
3, 157824, Note_on_c, 1, 77, 0
3, 157824, Note_on_c, 1, 76, 100
3, 158016, Note_on_c, 1, 76, 0
3, 158016, Note_on_c, 1, 74, 100
3, 158208, Note_on_c, 1, 74, 0
3, 158208, Note_on_c, 1, 72, 100
3, 158400, Note_on_c, 1, 72, 0
3, 158400, Note_on_c, 1, 71, 100
3, 158592, Note_on_c, 1, 71, 0
3, 158592, Note_on_c, 1, 72, 100
3, 158784, Note_on_c, 1, 72, 0
3, 158784, Note_on_c, 1, 74, 100
3, 158976, Note_on_c, 1, 74, 0
3, 158976, Note_on_c, 1, 72, 100
3, 159168, Note_on_c, 1, 72, 0
3, 159168, Note_on_c, 1, 71, 100
3, 159360, Note_on_c, 1, 71, 0
3, 159360, Note_on_c, 1, 72, 100
3, 159552, Note_on_c, 1, 72, 0
3, 159552, Note_on_c, 1, 69, 100
3, 159744, Note_on_c, 1, 69, 0
3, 159744, Note_on_c, 1, 71, 100
3, 159936, Note_on_c, 1, 71, 0
3, 159936, Note_on_c, 1, 72, 100
3, 160128, Note_on_c, 1, 72, 0
3, 160128, Note_on_c, 1, 64, 100
3, 160320, Note_on_c, 1, 64, 0
3, 160320, Note_on_c, 1, 69, 100
3, 160512, Note_on_c, 1, 69, 0
3, 160512, Note_on_c, 1, 72, 100
3, 160704, Note_on_c, 1, 72, 0
3, 160704, Note_on_c, 1, 71, 100
3, 160896, Note_on_c, 1, 71, 0
3, 160896, Note_on_c, 1, 69, 100
3, 161088, Note_on_c, 1, 69, 0
3, 161088, Note_on_c, 1, 71, 100
3, 161280, Note_on_c, 1, 71, 0
3, 161280, Note_on_c, 1, 68, 100
3, 161472, Note_on_c, 1, 68, 0
3, 161472, Note_on_c, 1, 69, 100
3, 161664, Note_on_c, 1, 69, 0
3, 161664, Note_on_c, 1, 71, 100
3, 161856, Note_on_c, 1, 71, 0
3, 161856, Note_on_c, 1, 64, 100
3, 162048, Note_on_c, 1, 64, 0
3, 162048, Note_on_c, 1, 71, 100
3, 162240, Note_on_c, 1, 71, 0
3, 162240, Note_on_c, 1, 74, 100
3, 162432, Note_on_c, 1, 74, 0
3, 162432, Note_on_c, 1, 72, 100
3, 162816, Note_on_c, 1, 72, 0
3, 164736, Note_on_c, 1, 71, 100
3, 164928, Note_on_c, 1, 71, 0
3, 164928, Note_on_c, 1, 69, 100
3, 165120, Note_on_c, 1, 69, 0
3, 165120, Note_on_c, 1, 71, 100
3, 165312, Note_on_c, 1, 71, 0
3, 165312, Note_on_c, 1, 68, 100
3, 165696, Note_on_c, 1, 68, 0
3, 168192, Note_on_c, 1, 76, 100
3, 168384, Note_on_c, 1, 76, 0
3, 168384, Note_on_c, 1, 74, 100
3, 168576, Note_on_c, 1, 74, 0
3, 168576, Note_on_c, 1, 76, 100
3, 168768, Note_on_c, 1, 76, 0
3, 168768, Note_on_c, 1, 72, 100
3, 169152, Note_on_c, 1, 72, 0
3, 169920, Note_on_c, 1, 81, 100
3, 170304, Note_on_c, 1, 81, 0
3, 171648, Note_on_c, 1, 81, 100
3, 172032, Note_on_c, 1, 81, 0
3, 173376, Note_on_c, 1, 74, 100
3, 173760, Note_on_c, 1, 74, 0
3, 174528, Note_on_c, 1, 74, 100
3, 174912, Note_on_c, 1, 74, 0
3, 176256, Note_on_c, 1, 76, 100
3, 176448, Note_on_c, 1, 76, 0
3, 176448, Note_on_c, 1, 74, 100
3, 176640, Note_on_c, 1, 74, 0
3, 176640, Note_on_c, 1, 76, 100
3, 176832, Note_on_c, 1, 76, 0
3, 176832, Note_on_c, 1, 73, 100
3, 177024, Note_on_c, 1, 73, 0
3, 177024, Note_on_c, 1, 76, 100
3, 177216, Note_on_c, 1, 76, 0
3, 177216, Note_on_c, 1, 79, 100
3, 177408, Note_on_c, 1, 79, 0
3, 177408, Note_on_c, 1, 82, 100
3, 177600, Note_on_c, 1, 82, 0
3, 177600, Note_on_c, 1, 81, 100
3, 177792, Note_on_c, 1, 81, 0
3, 177792, Note_on_c, 1, 79, 100
3, 177984, Note_on_c, 1, 79, 0
3, 177984, Note_on_c, 1, 77, 100
3, 178368, Note_on_c, 1, 77, 0
3, 179712, Note_on_c, 1, 74, 100
3, 179904, Note_on_c, 1, 74, 0
3, 179904, Note_on_c, 1, 72, 100
3, 180096, Note_on_c, 1, 72, 0
3, 180096, Note_on_c, 1, 74, 100
3, 180288, Note_on_c, 1, 74, 0
3, 180288, Note_on_c, 1, 71, 100
3, 180480, Note_on_c, 1, 71, 0
3, 180480, Note_on_c, 1, 74, 100
3, 180672, Note_on_c, 1, 74, 0
3, 180672, Note_on_c, 1, 77, 100
3, 180864, Note_on_c, 1, 77, 0
3, 180864, Note_on_c, 1, 80, 100
3, 181056, Note_on_c, 1, 80, 0
3, 181056, Note_on_c, 1, 79, 100
3, 181248, Note_on_c, 1, 79, 0
3, 181248, Note_on_c, 1, 77, 100
3, 181440, Note_on_c, 1, 77, 0
3, 181440, Note_on_c, 1, 76, 100
3, 181824, Note_on_c, 1, 76, 0
3, 182400, Note_on_c, 1, 72, 100
3, 182592, Note_on_c, 1, 72, 0
3, 182592, Note_on_c, 1, 72, 100
3, 182784, Note_on_c, 1, 72, 0
3, 182784, Note_on_c, 1, 71, 100
3, 182976, Note_on_c, 1, 71, 0
3, 182976, Note_on_c, 1, 72, 100
3, 183168, Note_on_c, 1, 72, 0
3, 183168, Note_on_c, 1, 69, 100
3, 183552, Note_on_c, 1, 69, 0
3, 184128, Note_on_c, 1, 74, 100
3, 184320, Note_on_c, 1, 74, 0
3, 184320, Note_on_c, 1, 74, 100
3, 184512, Note_on_c, 1, 74, 0
3, 184512, Note_on_c, 1, 72, 100
3, 184704, Note_on_c, 1, 72, 0
3, 184704, Note_on_c, 1, 74, 100
3, 184896, Note_on_c, 1, 74, 0
3, 184896, Note_on_c, 1, 71, 100
3, 185280, Note_on_c, 1, 71, 0
3, 185856, Note_on_c, 1, 74, 100
3, 186048, Note_on_c, 1, 74, 0
3, 186048, Note_on_c, 1, 74, 100
3, 186240, Note_on_c, 1, 74, 0
3, 186240, Note_on_c, 1, 72, 100
3, 186432, Note_on_c, 1, 72, 0
3, 186432, Note_on_c, 1, 74, 100
3, 186624, Note_on_c, 1, 74, 0
3, 186624, Note_on_c, 1, 72, 100
3, 187008, Note_on_c, 1, 72, 0
3, 187584, Note_on_c, 1, 72, 100
3, 187776, Note_on_c, 1, 72, 0
3, 187776, Note_on_c, 1, 72, 100
3, 187968, Note_on_c, 1, 72, 0
3, 187968, Note_on_c, 1, 71, 100
3, 188160, Note_on_c, 1, 71, 0
3, 188160, Note_on_c, 1, 72, 100
3, 188352, Note_on_c, 1, 72, 0
3, 188352, Note_on_c, 1, 71, 100
3, 188736, Note_on_c, 1, 71, 0
3, 189312, Note_on_c, 1, 71, 100
3, 189504, Note_on_c, 1, 71, 0
3, 189504, Note_on_c, 1, 71, 100
3, 189696, Note_on_c, 1, 71, 0
3, 189696, Note_on_c, 1, 69, 100
3, 189888, Note_on_c, 1, 69, 0
3, 189888, Note_on_c, 1, 71, 100
3, 190080, Note_on_c, 1, 71, 0
3, 190080, Note_on_c, 1, 69, 100
3, 190656, Note_on_c, 1, 69, 0
3, 191616, Note_on_c, 1, 69, 100
3, 191808, Note_on_c, 1, 69, 0
3, 191808, Note_on_c, 1, 74, 100
3, 192000, Note_on_c, 1, 74, 0
3, 192000, Note_on_c, 1, 72, 100
3, 192192, Note_on_c, 1, 72, 0
3, 192192, Note_on_c, 1, 71, 100
3, 192384, Note_on_c, 1, 71, 0
3, 192384, Note_on_c, 1, 69, 100
3, 192576, Note_on_c, 1, 69, 0
3, 192576, Note_on_c, 1, 67, 100
3, 192768, Note_on_c, 1, 67, 0
3, 192768, Note_on_c, 1, 65, 100
3, 192960, Note_on_c, 1, 65, 0
3, 192960, Note_on_c, 1, 64, 100
3, 193152, Note_on_c, 1, 64, 0
3, 193152, Note_on_c, 1, 65, 100
3, 193344, Note_on_c, 1, 65, 0
3, 193344, Note_on_c, 1, 62, 100
3, 193536, Note_on_c, 1, 62, 0
3, 193536, Note_on_c, 1, 71, 100
3, 194112, Note_on_c, 1, 71, 0
3, 195072, Note_on_c, 1, 71, 100
3, 195264, Note_on_c, 1, 71, 0
3, 195264, Note_on_c, 1, 72, 100
3, 195456, Note_on_c, 1, 72, 0
3, 195456, Note_on_c, 1, 71, 100
3, 195648, Note_on_c, 1, 71, 0
3, 195648, Note_on_c, 1, 69, 100
3, 195840, Note_on_c, 1, 69, 0
3, 195840, Note_on_c, 1, 67, 100
3, 196032, Note_on_c, 1, 67, 0
3, 196032, Note_on_c, 1, 65, 100
3, 196224, Note_on_c, 1, 65, 0
3, 196224, Note_on_c, 1, 64, 100
3, 196416, Note_on_c, 1, 64, 0
3, 196416, Note_on_c, 1, 62, 100
3, 196608, Note_on_c, 1, 62, 0
3, 196608, Note_on_c, 1, 64, 100
3, 196800, Note_on_c, 1, 64, 0
3, 196800, Note_on_c, 1, 60, 100
3, 196992, Note_on_c, 1, 60, 0
3, 196992, Note_on_c, 1, 69, 100
3, 197568, Note_on_c, 1, 69, 0
3, 198528, Note_on_c, 1, 69, 100
3, 198720, Note_on_c, 1, 69, 0
3, 198720, Note_on_c, 1, 71, 100
3, 198912, Note_on_c, 1, 71, 0
3, 198912, Note_on_c, 1, 69, 100
3, 199104, Note_on_c, 1, 69, 0
3, 199104, Note_on_c, 1, 71, 100
3, 199296, Note_on_c, 1, 71, 0
3, 199296, Note_on_c, 1, 59, 100
3, 199488, Note_on_c, 1, 59, 0
3, 199488, Note_on_c, 1, 62, 100
3, 199680, Note_on_c, 1, 62, 0
3, 199680, Note_on_c, 1, 65, 100
3, 199872, Note_on_c, 1, 65, 0
3, 199872, Note_on_c, 1, 69, 100
3, 200064, Note_on_c, 1, 69, 0
3, 200064, Note_on_c, 1, 68, 100
3, 200256, Note_on_c, 1, 68, 0
3, 200256, Note_on_c, 1, 66, 100
3, 200448, Note_on_c, 1, 66, 0
3, 200448, Note_on_c, 1, 64, 100
3, 201024, Note_on_c, 1, 64, 0
3, 201984, Note_on_c, 1, 76, 100
3, 202176, Note_on_c, 1, 76, 0
3, 202176, Note_on_c, 1, 81, 100
3, 202368, Note_on_c, 1, 81, 0
3, 202368, Note_on_c, 1, 79, 100
3, 202560, Note_on_c, 1, 79, 0
3, 202560, Note_on_c, 1, 77, 100
3, 202752, Note_on_c, 1, 77, 0
3, 202752, Note_on_c, 1, 76, 100
3, 202944, Note_on_c, 1, 76, 0
3, 202944, Note_on_c, 1, 74, 100
3, 203136, Note_on_c, 1, 74, 0
3, 203136, Note_on_c, 1, 72, 100
3, 203328, Note_on_c, 1, 72, 0
3, 203328, Note_on_c, 1, 71, 100
3, 203520, Note_on_c, 1, 71, 0
3, 203520, Note_on_c, 1, 72, 100
3, 203712, Note_on_c, 1, 72, 0
3, 203712, Note_on_c, 1, 74, 100
3, 203904, Note_on_c, 1, 74, 0
3, 203904, Note_on_c, 1, 72, 100
3, 204096, Note_on_c, 1, 72, 0
3, 204096, Note_on_c, 1, 71, 100
3, 204288, Note_on_c, 1, 71, 0
3, 204288, Note_on_c, 1, 72, 100
3, 204480, Note_on_c, 1, 72, 0
3, 204480, Note_on_c, 1, 69, 100
3, 204672, Note_on_c, 1, 69, 0
3, 204672, Note_on_c, 1, 71, 100
3, 204864, Note_on_c, 1, 71, 0
3, 204864, Note_on_c, 1, 72, 100
3, 205056, Note_on_c, 1, 72, 0
3, 205056, Note_on_c, 1, 64, 100
3, 205248, Note_on_c, 1, 64, 0
3, 205248, Note_on_c, 1, 69, 100
3, 205440, Note_on_c, 1, 69, 0
3, 205440, Note_on_c, 1, 72, 100
3, 205632, Note_on_c, 1, 72, 0
3, 205632, Note_on_c, 1, 71, 100
3, 205824, Note_on_c, 1, 71, 0
3, 205824, Note_on_c, 1, 69, 100
3, 206016, Note_on_c, 1, 69, 0
3, 206016, Note_on_c, 1, 71, 100
3, 206208, Note_on_c, 1, 71, 0
3, 206208, Note_on_c, 1, 68, 100
3, 206400, Note_on_c, 1, 68, 0
3, 206400, Note_on_c, 1, 69, 100
3, 206592, Note_on_c, 1, 69, 0
3, 206592, Note_on_c, 1, 71, 100
3, 206784, Note_on_c, 1, 71, 0
3, 206784, Note_on_c, 1, 64, 100
3, 206976, Note_on_c, 1, 64, 0
3, 206976, Note_on_c, 1, 71, 100
3, 207168, Note_on_c, 1, 71, 0
3, 207168, Note_on_c, 1, 74, 100
3, 207360, Note_on_c, 1, 74, 0
3, 207360, Note_on_c, 1, 72, 100
3, 207552, Note_on_c, 1, 72, 0
3, 207552, Note_on_c, 1, 71, 100
3, 207744, Note_on_c, 1, 71, 0
3, 207744, Note_on_c, 1, 72, 100
3, 207936, Note_on_c, 1, 72, 0
3, 207936, Note_on_c, 1, 69, 100
3, 208128, Note_on_c, 1, 69, 0
3, 208128, Note_on_c, 1, 72, 100
3, 208320, Note_on_c, 1, 72, 0
3, 208320, Note_on_c, 1, 76, 100
3, 208512, Note_on_c, 1, 76, 0
3, 208512, Note_on_c, 1, 81, 100
3, 208704, Note_on_c, 1, 81, 0
3, 208704, Note_on_c, 1, 79, 100
3, 208896, Note_on_c, 1, 79, 0
3, 208896, Note_on_c, 1, 78, 100
3, 209088, Note_on_c, 1, 78, 0
3, 209088, Note_on_c, 1, 79, 100
3, 209856, Note_on_c, 1, 79, 0
3, 209856, Note_on_c, 1, 78, 100
3, 210048, Note_on_c, 1, 78, 0
3, 210048, Note_on_c, 1, 76, 100
3, 210240, Note_on_c, 1, 76, 0
3, 210240, Note_on_c, 1, 83, 100
3, 210624, Note_on_c, 1, 83, 0
3, 210624, Note_on_c, 1, 83, 100
3, 210816, Note_on_c, 1, 83, 0
3, 210816, Note_on_c, 1, 83, 100
3, 211008, Note_on_c, 1, 83, 0
3, 211008, Note_on_c, 1, 81, 100
3, 211200, Note_on_c, 1, 81, 0
3, 211200, Note_on_c, 1, 83, 100
3, 211392, Note_on_c, 1, 83, 0
3, 211392, Note_on_c, 1, 79, 100
3, 211584, Note_on_c, 1, 79, 0
3, 211584, Note_on_c, 1, 78, 100
3, 211776, Note_on_c, 1, 78, 0
3, 211776, Note_on_c, 1, 76, 100
3, 211968, Note_on_c, 1, 76, 0
3, 211968, Note_on_c, 1, 83, 100
3, 212352, Note_on_c, 1, 83, 0
3, 212352, Note_on_c, 1, 83, 100
3, 212544, Note_on_c, 1, 83, 0
3, 212544, Note_on_c, 1, 83, 100
3, 212928, Note_on_c, 1, 83, 0
3, 212928, Note_on_c, 1, 83, 100
3, 213120, Note_on_c, 1, 83, 0
3, 213120, Note_on_c, 1, 83, 100
3, 213504, Note_on_c, 1, 83, 0
3, 213504, Note_on_c, 1, 83, 100
3, 213696, Note_on_c, 1, 83, 0
3, 213696, Note_on_c, 1, 83, 100
3, 214080, Note_on_c, 1, 83, 0
3, 214080, Note_on_c, 1, 83, 100
3, 214272, Note_on_c, 1, 83, 0
3, 214272, Note_on_c, 1, 83, 100
3, 214464, Note_on_c, 1, 83, 0
3, 214464, Note_on_c, 1, 81, 100
3, 214656, Note_on_c, 1, 81, 0
3, 214656, Note_on_c, 1, 83, 100
3, 214848, Note_on_c, 1, 83, 0
3, 214848, Note_on_c, 1, 79, 100
3, 215232, Note_on_c, 1, 79, 0
3, 215232, Note_on_c, 1, 76, 100
3, 215424, Note_on_c, 1, 76, 0
3, 215424, Note_on_c, 1, 78, 100
3, 215808, Note_on_c, 1, 78, 0
3, 215808, Note_on_c, 1, 80, 100
3, 216000, Note_on_c, 1, 80, 0
3, 216000, Note_on_c, 1, 81, 100
3, 216384, Note_on_c, 1, 81, 0
3, 216384, Note_on_c, 1, 69, 100
3, 216576, Note_on_c, 1, 69, 0
3, 216576, Note_on_c, 1, 72, 100
3, 216960, Note_on_c, 1, 72, 0
3, 216960, Note_on_c, 1, 76, 100
3, 217152, Note_on_c, 1, 76, 0
3, 217152, Note_on_c, 1, 80, 100
3, 217344, Note_on_c, 1, 80, 0
3, 217344, Note_on_c, 1, 81, 100
3, 217536, Note_on_c, 1, 81, 0
3, 217536, Note_on_c, 1, 83, 100
3, 217728, Note_on_c, 1, 83, 0
3, 217728, Note_on_c, 1, 81, 100
3, 217920, Note_on_c, 1, 81, 0
3, 217920, Note_on_c, 1, 80, 100
3, 218112, Note_on_c, 1, 80, 0
3, 218112, Note_on_c, 1, 81, 100
3, 218304, Note_on_c, 1, 81, 0
3, 218304, Note_on_c, 1, 76, 100
3, 218496, Note_on_c, 1, 76, 0
3, 218496, Note_on_c, 1, 74, 100
3, 218688, Note_on_c, 1, 74, 0
3, 218688, Note_on_c, 1, 76, 100
3, 218880, Note_on_c, 1, 76, 0
3, 218880, Note_on_c, 1, 72, 100
3, 219072, Note_on_c, 1, 72, 0
3, 219072, Note_on_c, 1, 76, 100
3, 219264, Note_on_c, 1, 76, 0
3, 219264, Note_on_c, 1, 81, 100
3, 219456, Note_on_c, 1, 81, 0
3, 219456, Note_on_c, 1, 80, 100
3, 219648, Note_on_c, 1, 80, 0
3, 219648, Note_on_c, 1, 78, 100
3, 219840, Note_on_c, 1, 78, 0
3, 219840, Note_on_c, 1, 80, 100
3, 220032, Note_on_c, 1, 80, 0
3, 220032, Note_on_c, 1, 76, 100
3, 220416, Note_on_c, 1, 76, 0
3, 220416, Note_on_c, 1, 80, 100
3, 220608, Note_on_c, 1, 80, 0
3, 220608, Note_on_c, 1, 83, 100
3, 220800, Note_on_c, 1, 83, 0
3, 220800, Note_on_c, 1, 81, 100
3, 220992, Note_on_c, 1, 81, 0
3, 220992, Note_on_c, 1, 80, 100
3, 221184, Note_on_c, 1, 80, 0
3, 221184, Note_on_c, 1, 81, 100
3, 221760, Note_on_c, 1, 81, 0
3, 222144, Note_on_c, 1, 72, 100
3, 222336, Note_on_c, 1, 72, 0
3, 222336, Note_on_c, 1, 76, 100
3, 222720, Note_on_c, 1, 76, 0
3, 222720, Note_on_c, 1, 81, 100
3, 222912, Note_on_c, 1, 81, 0
3, 222912, Note_on_c, 1, 74, 100
3, 223296, Note_on_c, 1, 74, 0
3, 223296, Note_on_c, 1, 65, 100
3, 223488, Note_on_c, 1, 65, 0
3, 223488, Note_on_c, 1, 69, 100
3, 223872, Note_on_c, 1, 69, 0
3, 223872, Note_on_c, 1, 74, 100
3, 224064, Note_on_c, 1, 74, 0
3, 224064, Note_on_c, 1, 67, 100
3, 224448, Note_on_c, 1, 67, 0
3, 224448, Note_on_c, 1, 74, 100
3, 224640, Note_on_c, 1, 74, 0
3, 224640, Note_on_c, 1, 74, 100
3, 224832, Note_on_c, 1, 74, 0
3, 224832, Note_on_c, 1, 72, 100
3, 225024, Note_on_c, 1, 72, 0
3, 225024, Note_on_c, 1, 74, 100
3, 225216, Note_on_c, 1, 74, 0
3, 225216, Note_on_c, 1, 67, 100
3, 225408, Note_on_c, 1, 67, 0
3, 225408, Note_on_c, 1, 71, 100
3, 225600, Note_on_c, 1, 71, 0
3, 225600, Note_on_c, 1, 74, 100
3, 225792, Note_on_c, 1, 74, 0
3, 225792, Note_on_c, 1, 77, 100
3, 225984, Note_on_c, 1, 77, 0
3, 225984, Note_on_c, 1, 76, 100
3, 226176, Note_on_c, 1, 76, 0
3, 226176, Note_on_c, 1, 74, 100
3, 226368, Note_on_c, 1, 74, 0
3, 226368, Note_on_c, 1, 76, 100
3, 226752, Note_on_c, 1, 76, 0
3, 226752, Note_on_c, 1, 77, 100
3, 226944, Note_on_c, 1, 77, 0
3, 226944, Note_on_c, 1, 79, 100
3, 227904, Note_on_c, 1, 79, 0
3, 227904, Note_on_c, 1, 71, 100
3, 228096, Note_on_c, 1, 71, 0
3, 228096, Note_on_c, 1, 72, 100
3, 228480, Note_on_c, 1, 72, 0
3, 228480, Note_on_c, 1, 67, 100
3, 228672, Note_on_c, 1, 67, 0
3, 228672, Note_on_c, 1, 79, 100
3, 229440, Note_on_c, 1, 79, 0
3, 229632, Note_on_c, 1, 69, 100
3, 229824, Note_on_c, 1, 69, 0
3, 229824, Note_on_c, 1, 71, 100
3, 230208, Note_on_c, 1, 71, 0
3, 230208, Note_on_c, 1, 67, 100
3, 230400, Note_on_c, 1, 67, 0
3, 230400, Note_on_c, 1, 77, 100
3, 231168, Note_on_c, 1, 77, 0
3, 231360, Note_on_c, 1, 74, 100
3, 231552, Note_on_c, 1, 74, 0
3, 231552, Note_on_c, 1, 76, 100
3, 231936, Note_on_c, 1, 76, 0
3, 231936, Note_on_c, 1, 79, 100
3, 232128, Note_on_c, 1, 79, 0
3, 232128, Note_on_c, 1, 76, 100
3, 232512, Note_on_c, 1, 76, 0
3, 232512, Note_on_c, 1, 71, 100
3, 232704, Note_on_c, 1, 71, 0
3, 232704, Note_on_c, 1, 72, 100
3, 232896, Note_on_c, 1, 72, 0
3, 232896, Note_on_c, 1, 68, 100
3, 233088, Note_on_c, 1, 68, 0
3, 233088, Note_on_c, 1, 69, 100
3, 233280, Note_on_c, 1, 69, 0
3, 233280, Note_on_c, 1, 74, 100
3, 233472, Note_on_c, 1, 74, 0
3, 233472, Note_on_c, 1, 72, 100
3, 233664, Note_on_c, 1, 72, 0
3, 233664, Note_on_c, 1, 74, 100
3, 233856, Note_on_c, 1, 74, 0
3, 233856, Note_on_c, 1, 83, 100
3, 234240, Note_on_c, 1, 83, 0
3, 234240, Note_on_c, 1, 80, 100
3, 234432, Note_on_c, 1, 80, 0
3, 234432, Note_on_c, 1, 81, 100
3, 234816, Note_on_c, 1, 81, 0
3, 234816, Note_on_c, 1, 83, 100
3, 235008, Note_on_c, 1, 83, 0
3, 235008, Note_on_c, 1, 76, 100
3, 235200, Note_on_c, 1, 76, 0
3, 235200, Note_on_c, 1, 74, 100
3, 235392, Note_on_c, 1, 74, 0
3, 235392, Note_on_c, 1, 76, 100
3, 235584, Note_on_c, 1, 76, 0
3, 235584, Note_on_c, 1, 69, 100
3, 235776, Note_on_c, 1, 69, 0
3, 235776, Note_on_c, 1, 72, 100
3, 235968, Note_on_c, 1, 72, 0
3, 235968, Note_on_c, 1, 76, 100
3, 236160, Note_on_c, 1, 76, 0
3, 236160, Note_on_c, 1, 79, 100
3, 236352, Note_on_c, 1, 79, 0
3, 236352, Note_on_c, 1, 77, 100
3, 236544, Note_on_c, 1, 77, 0
3, 236544, Note_on_c, 1, 76, 100
3, 236736, Note_on_c, 1, 76, 0
3, 236736, Note_on_c, 1, 77, 100
3, 236928, Note_on_c, 1, 77, 0
3, 236928, Note_on_c, 1, 76, 100
3, 237120, Note_on_c, 1, 76, 0
3, 237120, Note_on_c, 1, 77, 100
3, 237312, Note_on_c, 1, 77, 0
3, 237312, Note_on_c, 1, 74, 100
3, 237504, Note_on_c, 1, 74, 0
3, 237504, Note_on_c, 1, 77, 100
3, 237696, Note_on_c, 1, 77, 0
3, 237696, Note_on_c, 1, 81, 100
3, 237888, Note_on_c, 1, 81, 0
3, 237888, Note_on_c, 1, 81, 100
3, 238080, Note_on_c, 1, 81, 0
3, 238080, Note_on_c, 1, 82, 100
3, 238272, Note_on_c, 1, 82, 0
3, 238272, Note_on_c, 1, 74, 100
3, 238464, Note_on_c, 1, 74, 0
3, 238464, Note_on_c, 1, 76, 100
3, 238656, Note_on_c, 1, 76, 0
3, 238656, Note_on_c, 1, 74, 100
3, 238848, Note_on_c, 1, 74, 0
3, 238848, Note_on_c, 1, 76, 100
3, 239040, Note_on_c, 1, 76, 0
3, 239040, Note_on_c, 1, 72, 100
3, 239232, Note_on_c, 1, 72, 0
3, 239232, Note_on_c, 1, 76, 100
3, 239424, Note_on_c, 1, 76, 0
3, 239424, Note_on_c, 1, 80, 100
3, 239616, Note_on_c, 1, 80, 0
3, 239616, Note_on_c, 1, 80, 100
3, 239808, Note_on_c, 1, 80, 0
3, 239808, Note_on_c, 1, 81, 100
3, 240000, Note_on_c, 1, 81, 0
3, 240000, Note_on_c, 1, 69, 100
3, 240192, Note_on_c, 1, 69, 0
3, 240192, Note_on_c, 1, 74, 100
3, 240576, Note_on_c, 1, 74, 0
3, 240576, Note_on_c, 1, 74, 100
3, 240768, Note_on_c, 1, 74, 0
3, 240768, Note_on_c, 1, 74, 100
3, 241152, Note_on_c, 1, 74, 0
3, 241152, Note_on_c, 1, 74, 100
3, 241344, Note_on_c, 1, 74, 0
3, 241344, Note_on_c, 1, 74, 100
3, 241728, Note_on_c, 1, 74, 0
3, 241728, Note_on_c, 1, 74, 100
3, 241920, Note_on_c, 1, 74, 0
3, 241920, Note_on_c, 1, 74, 100
3, 242112, Note_on_c, 1, 74, 0
3, 242112, Note_on_c, 1, 72, 100
3, 242304, Note_on_c, 1, 72, 0
3, 242304, Note_on_c, 1, 71, 100
3, 242496, Note_on_c, 1, 71, 0
3, 242496, Note_on_c, 1, 76, 100
3, 242880, Note_on_c, 1, 76, 0
3, 242880, Note_on_c, 1, 69, 100
3, 243072, Note_on_c, 1, 69, 0
3, 243072, Note_on_c, 1, 64, 100
3, 243456, Note_on_c, 1, 64, 0
3, 243456, Note_on_c, 1, 68, 100
3, 243648, Note_on_c, 1, 68, 0
3, 243648, Note_on_c, 1, 69, 100
3, 244800, Note_on_c, 1, 69, 0
3, 244800, End_track
4, 0, Start_track
4, 0, MIDI_port, 0
4, 0, Title_t, "Violin 2"
4, 0, Program_c, 2, 40
4, 0, Control_c, 2, 7, 110
4, 0, Control_c, 2, 10, 96
4, 8448, Note_on_c, 2, 69, 100
4, 8640, Note_on_c, 2, 69, 0
4, 8640, Note_on_c, 2, 76, 100
4, 8832, Note_on_c, 2, 76, 0
4, 8832, Note_on_c, 2, 74, 100
4, 9024, Note_on_c, 2, 74, 0
4, 9024, Note_on_c, 2, 72, 100
4, 9216, Note_on_c, 2, 72, 0
4, 9216, Note_on_c, 2, 71, 100
4, 9408, Note_on_c, 2, 71, 0
4, 9408, Note_on_c, 2, 69, 100
4, 9600, Note_on_c, 2, 69, 0
4, 9600, Note_on_c, 2, 67, 100
4, 9792, Note_on_c, 2, 67, 0
4, 9792, Note_on_c, 2, 66, 100
4, 9984, Note_on_c, 2, 66, 0
4, 9984, Note_on_c, 2, 67, 100
4, 10176, Note_on_c, 2, 67, 0
4, 10176, Note_on_c, 2, 69, 100
4, 10368, Note_on_c, 2, 69, 0
4, 10368, Note_on_c, 2, 67, 100
4, 10560, Note_on_c, 2, 67, 0
4, 10560, Note_on_c, 2, 66, 100
4, 10752, Note_on_c, 2, 66, 0
4, 10752, Note_on_c, 2, 67, 100
4, 10944, Note_on_c, 2, 67, 0
4, 10944, Note_on_c, 2, 64, 100
4, 11136, Note_on_c, 2, 64, 0
4, 11136, Note_on_c, 2, 66, 100
4, 11328, Note_on_c, 2, 66, 0
4, 11328, Note_on_c, 2, 67, 100
4, 11520, Note_on_c, 2, 67, 0
4, 11520, Note_on_c, 2, 59, 100
4, 11712, Note_on_c, 2, 59, 0
4, 11712, Note_on_c, 2, 64, 100
4, 11904, Note_on_c, 2, 64, 0
4, 11904, Note_on_c, 2, 67, 100
4, 12096, Note_on_c, 2, 67, 0
4, 12096, Note_on_c, 2, 66, 100
4, 12288, Note_on_c, 2, 66, 0
4, 12288, Note_on_c, 2, 64, 100
4, 12480, Note_on_c, 2, 64, 0
4, 12480, Note_on_c, 2, 66, 100
4, 12672, Note_on_c, 2, 66, 0
4, 12672, Note_on_c, 2, 63, 100
4, 12864, Note_on_c, 2, 63, 0
4, 12864, Note_on_c, 2, 64, 100
4, 13056, Note_on_c, 2, 64, 0
4, 13056, Note_on_c, 2, 66, 100
4, 13248, Note_on_c, 2, 66, 0
4, 13248, Note_on_c, 2, 59, 100
4, 13440, Note_on_c, 2, 59, 0
4, 13440, Note_on_c, 2, 66, 100
4, 13632, Note_on_c, 2, 66, 0
4, 13632, Note_on_c, 2, 69, 100
4, 13824, Note_on_c, 2, 69, 0
4, 13824, Note_on_c, 2, 67, 100
4, 14016, Note_on_c, 2, 67, 0
4, 14016, Note_on_c, 2, 66, 100
4, 14208, Note_on_c, 2, 66, 0
4, 14208, Note_on_c, 2, 67, 100
4, 14400, Note_on_c, 2, 67, 0
4, 14400, Note_on_c, 2, 64, 100
4, 14592, Note_on_c, 2, 64, 0
4, 14592, Note_on_c, 2, 67, 100
4, 14784, Note_on_c, 2, 67, 0
4, 14784, Note_on_c, 2, 71, 100
4, 14976, Note_on_c, 2, 71, 0
4, 14976, Note_on_c, 2, 74, 100
4, 15168, Note_on_c, 2, 74, 0
4, 15168, Note_on_c, 2, 72, 100
4, 15360, Note_on_c, 2, 72, 0
4, 15360, Note_on_c, 2, 71, 100
4, 15552, Note_on_c, 2, 71, 0
4, 15552, Note_on_c, 2, 72, 100
4, 16320, Note_on_c, 2, 72, 0
4, 16320, Note_on_c, 2, 71, 100
4, 16512, Note_on_c, 2, 71, 0
4, 16512, Note_on_c, 2, 69, 100
4, 16704, Note_on_c, 2, 69, 0
4, 16704, Note_on_c, 2, 76, 100
4, 17088, Note_on_c, 2, 76, 0
4, 17088, Note_on_c, 2, 76, 100
4, 17280, Note_on_c, 2, 76, 0
4, 17280, Note_on_c, 2, 76, 100
4, 17472, Note_on_c, 2, 76, 0
4, 17472, Note_on_c, 2, 74, 100
4, 17664, Note_on_c, 2, 74, 0
4, 17664, Note_on_c, 2, 76, 100
4, 17856, Note_on_c, 2, 76, 0
4, 17856, Note_on_c, 2, 72, 100
4, 18048, Note_on_c, 2, 72, 0
4, 18048, Note_on_c, 2, 71, 100
4, 18240, Note_on_c, 2, 71, 0
4, 18240, Note_on_c, 2, 69, 100
4, 18432, Note_on_c, 2, 69, 0
4, 18432, Note_on_c, 2, 76, 100
4, 18816, Note_on_c, 2, 76, 0
4, 18816, Note_on_c, 2, 76, 100
4, 19008, Note_on_c, 2, 76, 0
4, 19008, Note_on_c, 2, 76, 100
4, 19392, Note_on_c, 2, 76, 0
4, 19392, Note_on_c, 2, 76, 100
4, 19584, Note_on_c, 2, 76, 0
4, 19584, Note_on_c, 2, 76, 100
4, 19968, Note_on_c, 2, 76, 0
4, 19968, Note_on_c, 2, 76, 100
4, 20160, Note_on_c, 2, 76, 0
4, 20160, Note_on_c, 2, 76, 100
4, 20544, Note_on_c, 2, 76, 0
4, 20544, Note_on_c, 2, 76, 100
4, 20736, Note_on_c, 2, 76, 0
4, 20736, Note_on_c, 2, 76, 100
4, 20928, Note_on_c, 2, 76, 0
4, 20928, Note_on_c, 2, 74, 100
4, 21120, Note_on_c, 2, 74, 0
4, 21120, Note_on_c, 2, 76, 100
4, 21312, Note_on_c, 2, 76, 0
4, 21312, Note_on_c, 2, 72, 100
4, 21696, Note_on_c, 2, 72, 0
4, 21696, Note_on_c, 2, 69, 100
4, 21888, Note_on_c, 2, 69, 0
4, 21888, Note_on_c, 2, 71, 100
4, 22272, Note_on_c, 2, 71, 0
4, 22272, Note_on_c, 2, 73, 100
4, 22464, Note_on_c, 2, 73, 0
4, 22464, Note_on_c, 2, 74, 100
4, 22656, Note_on_c, 2, 74, 0
4, 22656, Note_on_c, 2, 73, 100
4, 22848, Note_on_c, 2, 73, 0
4, 22848, Note_on_c, 2, 74, 100
4, 23040, Note_on_c, 2, 74, 0
4, 23040, Note_on_c, 2, 62, 100
4, 23232, Note_on_c, 2, 62, 0
4, 23232, Note_on_c, 2, 65, 100
4, 23424, Note_on_c, 2, 65, 0
4, 23424, Note_on_c, 2, 69, 100
4, 23616, Note_on_c, 2, 69, 0
4, 23616, Note_on_c, 2, 72, 100
4, 23808, Note_on_c, 2, 72, 0
4, 23808, Note_on_c, 2, 71, 100
4, 24000, Note_on_c, 2, 71, 0
4, 24000, Note_on_c, 2, 69, 100
4, 24192, Note_on_c, 2, 69, 0
4, 24192, Note_on_c, 2, 71, 100
4, 24576, Note_on_c, 2, 71, 0
4, 24576, Note_on_c, 2, 59, 100
4, 24768, Note_on_c, 2, 59, 0
4, 24768, Note_on_c, 2, 62, 100
4, 25152, Note_on_c, 2, 62, 0
4, 25152, Note_on_c, 2, 67, 100
4, 25344, Note_on_c, 2, 67, 0
4, 25344, Note_on_c, 2, 60, 100
4, 25728, Note_on_c, 2, 60, 0
4, 25728, Note_on_c, 2, 67, 100
4, 25920, Note_on_c, 2, 67, 0
4, 25920, Note_on_c, 2, 67, 100
4, 26304, Note_on_c, 2, 67, 0
4, 26304, Note_on_c, 2, 65, 100
4, 26496, Note_on_c, 2, 65, 0
4, 26496, Note_on_c, 2, 64, 100
4, 26880, Note_on_c, 2, 64, 0
4, 26880, Note_on_c, 2, 67, 100
4, 27072, Note_on_c, 2, 67, 0
4, 27072, Note_on_c, 2, 71, 100
4, 27264, Note_on_c, 2, 71, 0
4, 27264, Note_on_c, 2, 72, 100
4, 27456, Note_on_c, 2, 72, 0
4, 27456, Note_on_c, 2, 74, 100
4, 27648, Note_on_c, 2, 74, 0
4, 27648, Note_on_c, 2, 72, 100
4, 27840, Note_on_c, 2, 72, 0
4, 27840, Note_on_c, 2, 71, 100
4, 28032, Note_on_c, 2, 71, 0
4, 28032, Note_on_c, 2, 72, 100
4, 28224, Note_on_c, 2, 72, 0
4, 28224, Note_on_c, 2, 67, 100
4, 28416, Note_on_c, 2, 67, 0
4, 28416, Note_on_c, 2, 65, 100
4, 28608, Note_on_c, 2, 65, 0
4, 28608, Note_on_c, 2, 64, 100
4, 28800, Note_on_c, 2, 64, 0
4, 28800, Note_on_c, 2, 64, 100
4, 28992, Note_on_c, 2, 64, 0
4, 28992, Note_on_c, 2, 67, 100
4, 29184, Note_on_c, 2, 67, 0
4, 29184, Note_on_c, 2, 72, 100
4, 29376, Note_on_c, 2, 72, 0
4, 29376, Note_on_c, 2, 71, 100
4, 29568, Note_on_c, 2, 71, 0
4, 29568, Note_on_c, 2, 69, 100
4, 29760, Note_on_c, 2, 69, 0
4, 29760, Note_on_c, 2, 71, 100
4, 29952, Note_on_c, 2, 71, 0
4, 29952, Note_on_c, 2, 67, 100
4, 30336, Note_on_c, 2, 67, 0
4, 30336, Note_on_c, 2, 71, 100
4, 30528, Note_on_c, 2, 71, 0
4, 30528, Note_on_c, 2, 74, 100
4, 30720, Note_on_c, 2, 74, 0
4, 30720, Note_on_c, 2, 72, 100
4, 30912, Note_on_c, 2, 72, 0
4, 30912, Note_on_c, 2, 71, 100
4, 31104, Note_on_c, 2, 71, 0
4, 31104, Note_on_c, 2, 72, 100
4, 31680, Note_on_c, 2, 72, 0
4, 32064, Note_on_c, 2, 65, 100
4, 32256, Note_on_c, 2, 65, 0
4, 32256, Note_on_c, 2, 64, 100
4, 32640, Note_on_c, 2, 64, 0
4, 32640, Note_on_c, 2, 72, 100
4, 32832, Note_on_c, 2, 72, 0
4, 32832, Note_on_c, 2, 71, 100
4, 33024, Note_on_c, 2, 71, 0
4, 33024, Note_on_c, 2, 69, 100
4, 33216, Note_on_c, 2, 69, 0
4, 33216, Note_on_c, 2, 71, 100
4, 33408, Note_on_c, 2, 71, 0
4, 33408, Note_on_c, 2, 64, 100
4, 33600, Note_on_c, 2, 64, 0
4, 33600, Note_on_c, 2, 68, 100
4, 33792, Note_on_c, 2, 68, 0
4, 33792, Note_on_c, 2, 71, 100
4, 33984, Note_on_c, 2, 71, 0
4, 33984, Note_on_c, 2, 74, 100
4, 34176, Note_on_c, 2, 74, 0
4, 34176, Note_on_c, 2, 72, 100
4, 34368, Note_on_c, 2, 72, 0
4, 34368, Note_on_c, 2, 71, 100
4, 34560, Note_on_c, 2, 71, 0
4, 34560, Note_on_c, 2, 72, 100
4, 34752, Note_on_c, 2, 72, 0
4, 34752, Note_on_c, 2, 71, 100
4, 34944, Note_on_c, 2, 71, 0
4, 34944, Note_on_c, 2, 72, 100
4, 35136, Note_on_c, 2, 72, 0
4, 35136, Note_on_c, 2, 81, 100
4, 35520, Note_on_c, 2, 81, 0
4, 35520, Note_on_c, 2, 73, 100
4, 35712, Note_on_c, 2, 73, 0
4, 35712, Note_on_c, 2, 74, 100
4, 36096, Note_on_c, 2, 74, 0
4, 36096, Note_on_c, 2, 76, 100
4, 36288, Note_on_c, 2, 76, 0
4, 36288, Note_on_c, 2, 69, 100
4, 36864, Note_on_c, 2, 69, 0
4, 37248, Note_on_c, 2, 77, 100
4, 37440, Note_on_c, 2, 77, 0
4, 37440, Note_on_c, 2, 77, 100
4, 37632, Note_on_c, 2, 77, 0
4, 37632, Note_on_c, 2, 76, 100
4, 37824, Note_on_c, 2, 76, 0
4, 37824, Note_on_c, 2, 77, 100
4, 38016, Note_on_c, 2, 77, 0
4, 38016, Note_on_c, 2, 76, 100
4, 38592, Note_on_c, 2, 76, 0
4, 38976, Note_on_c, 2, 76, 100
4, 39168, Note_on_c, 2, 76, 0
4, 39168, Note_on_c, 2, 76, 100
4, 39360, Note_on_c, 2, 76, 0
4, 39360, Note_on_c, 2, 74, 100
4, 39552, Note_on_c, 2, 74, 0
4, 39552, Note_on_c, 2, 76, 100
4, 39744, Note_on_c, 2, 76, 0
4, 39744, Note_on_c, 2, 74, 100
4, 40128, Note_on_c, 2, 74, 0
4, 40128, Note_on_c, 2, 62, 100
4, 40320, Note_on_c, 2, 62, 0
4, 40320, Note_on_c, 2, 65, 100
4, 40704, Note_on_c, 2, 65, 0
4, 40704, Note_on_c, 2, 62, 100
4, 40896, Note_on_c, 2, 62, 0
4, 40896, Note_on_c, 2, 59, 100
4, 41280, Note_on_c, 2, 59, 0
4, 41280, Note_on_c, 2, 68, 100
4, 41472, Note_on_c, 2, 68, 0
4, 41472, Note_on_c, 2, 68, 100
4, 41664, Note_on_c, 2, 68, 0
4, 41664, Note_on_c, 2, 69, 100
4, 41856, Note_on_c, 2, 69, 0
4, 41856, Note_on_c, 2, 71, 100
4, 42048, Note_on_c, 2, 71, 0
4, 42048, Note_on_c, 2, 69, 100
4, 42432, Note_on_c, 2, 69, 0
4, 42432, Note_on_c, 2, 65, 100
4, 42624, Note_on_c, 2, 65, 0
4, 42624, Note_on_c, 2, 64, 100
4, 43008, Note_on_c, 2, 64, 0
4, 43008, Note_on_c, 2, 64, 100
4, 43200, Note_on_c, 2, 64, 0
4, 43200, Note_on_c, 2, 64, 100
4, 43584, Note_on_c, 2, 64, 0
4, 45504, Note_on_c, 2, 68, 100
4, 45696, Note_on_c, 2, 68, 0
4, 45696, Note_on_c, 2, 66, 100
4, 45888, Note_on_c, 2, 66, 0
4, 45888, Note_on_c, 2, 68, 100
4, 46080, Note_on_c, 2, 68, 0
4, 46080, Note_on_c, 2, 59, 100
4, 46464, Note_on_c, 2, 59, 0
4, 48960, Note_on_c, 2, 72, 100
4, 49152, Note_on_c, 2, 72, 0
4, 49152, Note_on_c, 2, 71, 100
4, 49344, Note_on_c, 2, 71, 0
4, 49344, Note_on_c, 2, 72, 100
4, 49536, Note_on_c, 2, 72, 0
4, 49536, Note_on_c, 2, 64, 100
4, 49920, Note_on_c, 2, 64, 0
4, 50688, Note_on_c, 2, 77, 100
4, 51072, Note_on_c, 2, 77, 0
4, 52416, Note_on_c, 2, 76, 100
4, 52800, Note_on_c, 2, 76, 0
4, 54144, Note_on_c, 2, 74, 100
4, 54528, Note_on_c, 2, 74, 0
4, 55872, Note_on_c, 2, 74, 100
4, 56256, Note_on_c, 2, 74, 0
4, 57600, Note_on_c, 2, 72, 100
4, 57984, Note_on_c, 2, 72, 0
4, 59328, Note_on_c, 2, 72, 100
4, 59712, Note_on_c, 2, 72, 0
4, 61056, Note_on_c, 2, 71, 100
4, 61440, Note_on_c, 2, 71, 0
4, 62784, Note_on_c, 2, 71, 100
4, 63168, Note_on_c, 2, 71, 0
4, 64512, Note_on_c, 2, 69, 100
4, 64896, Note_on_c, 2, 69, 0
4, 66240, Note_on_c, 2, 69, 100
4, 66624, Note_on_c, 2, 69, 0
4, 67968, Note_on_c, 2, 67, 100
4, 68352, Note_on_c, 2, 67, 0
4, 69696, Note_on_c, 2, 69, 100
4, 70080, Note_on_c, 2, 69, 0
4, 71424, Note_on_c, 2, 71, 100
4, 71808, Note_on_c, 2, 71, 0
4, 73152, Note_on_c, 2, 71, 100
4, 73536, Note_on_c, 2, 71, 0
4, 74688, Note_on_c, 2, 69, 100
4, 74880, Note_on_c, 2, 69, 0
4, 74880, Note_on_c, 2, 67, 100
4, 75072, Note_on_c, 2, 67, 0
4, 75072, Note_on_c, 2, 66, 100
4, 75264, Note_on_c, 2, 66, 0
4, 75264, Note_on_c, 2, 64, 100
4, 75456, Note_on_c, 2, 64, 0
4, 75456, Note_on_c, 2, 71, 100
4, 75840, Note_on_c, 2, 71, 0
4, 75840, Note_on_c, 2, 71, 100
4, 76032, Note_on_c, 2, 71, 0
4, 76032, Note_on_c, 2, 71, 100
4, 76224, Note_on_c, 2, 71, 0
4, 76224, Note_on_c, 2, 69, 100
4, 76416, Note_on_c, 2, 69, 0
4, 76416, Note_on_c, 2, 71, 100
4, 76608, Note_on_c, 2, 71, 0
4, 76608, Note_on_c, 2, 67, 100
4, 76800, Note_on_c, 2, 67, 0
4, 76800, Note_on_c, 2, 66, 100
4, 76992, Note_on_c, 2, 66, 0
4, 76992, Note_on_c, 2, 64, 100
4, 77184, Note_on_c, 2, 64, 0
4, 77184, Note_on_c, 2, 71, 100
4, 77568, Note_on_c, 2, 71, 0
4, 77568, Note_on_c, 2, 71, 100
4, 77760, Note_on_c, 2, 71, 0
4, 77760, Note_on_c, 2, 71, 100
4, 78144, Note_on_c, 2, 71, 0
4, 78144, Note_on_c, 2, 71, 100
4, 78336, Note_on_c, 2, 71, 0
4, 78336, Note_on_c, 2, 71, 100
4, 78720, Note_on_c, 2, 71, 0
4, 78720, Note_on_c, 2, 71, 100
4, 78912, Note_on_c, 2, 71, 0
4, 78912, Note_on_c, 2, 71, 100
4, 79296, Note_on_c, 2, 71, 0
4, 79296, Note_on_c, 2, 71, 100
4, 79488, Note_on_c, 2, 71, 0
4, 79488, Note_on_c, 2, 71, 100
4, 79872, Note_on_c, 2, 71, 0
4, 81792, Note_on_c, 2, 75, 100
4, 81984, Note_on_c, 2, 75, 0
4, 81984, Note_on_c, 2, 73, 100
4, 82176, Note_on_c, 2, 73, 0
4, 82176, Note_on_c, 2, 75, 100
4, 82368, Note_on_c, 2, 75, 0
4, 82368, Note_on_c, 2, 66, 100
4, 82752, Note_on_c, 2, 66, 0
4, 85248, Note_on_c, 2, 79, 100
4, 85440, Note_on_c, 2, 79, 0
4, 85440, Note_on_c, 2, 78, 100
4, 85632, Note_on_c, 2, 78, 0
4, 85632, Note_on_c, 2, 79, 100
4, 85824, Note_on_c, 2, 79, 0
4, 85824, Note_on_c, 2, 71, 100
4, 86208, Note_on_c, 2, 71, 0
4, 86976, Note_on_c, 2, 72, 100
4, 87360, Note_on_c, 2, 72, 0
4, 88704, Note_on_c, 2, 71, 100
4, 89088, Note_on_c, 2, 71, 0
4, 90432, Note_on_c, 2, 72, 100
4, 90816, Note_on_c, 2, 72, 0
4, 92160, Note_on_c, 2, 78, 100
4, 92544, Note_on_c, 2, 78, 0
4, 93888, Note_on_c, 2, 71, 100
4, 94272, Note_on_c, 2, 71, 0
4, 95616, Note_on_c, 2, 69, 100
4, 96000, Note_on_c, 2, 69, 0
4, 97344, Note_on_c, 2, 69, 100
4, 97728, Note_on_c, 2, 69, 0
4, 99072, Note_on_c, 2, 67, 100
4, 99456, Note_on_c, 2, 67, 0
4, 100800, Note_on_c, 2, 67, 100
4, 101184, Note_on_c, 2, 67, 0
4, 102528, Note_on_c, 2, 72, 100
4, 102912, Note_on_c, 2, 72, 0
4, 103488, Note_on_c, 2, 65, 100
4, 103680, Note_on_c, 2, 65, 0
4, 103680, Note_on_c, 2, 72, 100
4, 103872, Note_on_c, 2, 72, 0
4, 103872, Note_on_c, 2, 71, 100
4, 104064, Note_on_c, 2, 71, 0
4, 104064, Note_on_c, 2, 69, 100
4, 104256, Note_on_c, 2, 69, 0
4, 104256, Note_on_c, 2, 67, 100
4, 104448, Note_on_c, 2, 67, 0
4, 104448, Note_on_c, 2, 65, 100
4, 104640, Note_on_c, 2, 65, 0
4, 104640, Note_on_c, 2, 64, 100
4, 104832, Note_on_c, 2, 64, 0
4, 104832, Note_on_c, 2, 62, 100
4, 105024, Note_on_c, 2, 62, 0
4, 105024, Note_on_c, 2, 64, 100
4, 105216, Note_on_c, 2, 64, 0
4, 105216, Note_on_c, 2, 65, 100
4, 105408, Note_on_c, 2, 65, 0
4, 105408, Note_on_c, 2, 64, 100
4, 105600, Note_on_c, 2, 64, 0
4, 105600, Note_on_c, 2, 62, 100
4, 105792, Note_on_c, 2, 62, 0
4, 105792, Note_on_c, 2, 64, 100
4, 105984, Note_on_c, 2, 64, 0
4, 105984, Note_on_c, 2, 60, 100
4, 106176, Note_on_c, 2, 60, 0
4, 106176, Note_on_c, 2, 62, 100
4, 106368, Note_on_c, 2, 62, 0
4, 106368, Note_on_c, 2, 64, 100
4, 106560, Note_on_c, 2, 64, 0
4, 106560, Note_on_c, 2, 55, 100
4, 106752, Note_on_c, 2, 55, 0
4, 106752, Note_on_c, 2, 60, 100
4, 106944, Note_on_c, 2, 60, 0
4, 106944, Note_on_c, 2, 64, 100
4, 107136, Note_on_c, 2, 64, 0
4, 107136, Note_on_c, 2, 62, 100
4, 107328, Note_on_c, 2, 62, 0
4, 107328, Note_on_c, 2, 60, 100
4, 107520, Note_on_c, 2, 60, 0
4, 107520, Note_on_c, 2, 62, 100
4, 107712, Note_on_c, 2, 62, 0
4, 107712, Note_on_c, 2, 59, 100
4, 107904, Note_on_c, 2, 59, 0
4, 107904, Note_on_c, 2, 60, 100
4, 108096, Note_on_c, 2, 60, 0
4, 108096, Note_on_c, 2, 62, 100
4, 108288, Note_on_c, 2, 62, 0
4, 108288, Note_on_c, 2, 55, 100
4, 108480, Note_on_c, 2, 55, 0
4, 108480, Note_on_c, 2, 62, 100
4, 108672, Note_on_c, 2, 62, 0
4, 108672, Note_on_c, 2, 65, 100
4, 108864, Note_on_c, 2, 65, 0
4, 108864, Note_on_c, 2, 64, 100
4, 109056, Note_on_c, 2, 64, 0
4, 109056, Note_on_c, 2, 62, 100
4, 109248, Note_on_c, 2, 62, 0
4, 109248, Note_on_c, 2, 64, 100
4, 109440, Note_on_c, 2, 64, 0
4, 109440, Note_on_c, 2, 60, 100
4, 109632, Note_on_c, 2, 60, 0
4, 109632, Note_on_c, 2, 64, 100
4, 109824, Note_on_c, 2, 64, 0
4, 109824, Note_on_c, 2, 67, 100
4, 110016, Note_on_c, 2, 67, 0
4, 110016, Note_on_c, 2, 72, 100
4, 110208, Note_on_c, 2, 72, 0
4, 110208, Note_on_c, 2, 71, 100
4, 110400, Note_on_c, 2, 71, 0
4, 110400, Note_on_c, 2, 69, 100
4, 110592, Note_on_c, 2, 69, 0
4, 110592, Note_on_c, 2, 71, 100
4, 111360, Note_on_c, 2, 71, 0
4, 111360, Note_on_c, 2, 69, 100
4, 111552, Note_on_c, 2, 69, 0
4, 111552, Note_on_c, 2, 67, 100
4, 111744, Note_on_c, 2, 67, 0
4, 111744, Note_on_c, 2, 66, 100
4, 111936, Note_on_c, 2, 66, 0
4, 111936, Note_on_c, 2, 67, 100
4, 112128, Note_on_c, 2, 67, 0
4, 112128, Note_on_c, 2, 69, 100
4, 112320, Note_on_c, 2, 69, 0
4, 112320, Note_on_c, 2, 67, 100
4, 112512, Note_on_c, 2, 67, 0
4, 112512, Note_on_c, 2, 66, 100
4, 112704, Note_on_c, 2, 66, 0
4, 112704, Note_on_c, 2, 67, 100
4, 112896, Note_on_c, 2, 67, 0
4, 112896, Note_on_c, 2, 62, 100
4, 113088, Note_on_c, 2, 62, 0
4, 113088, Note_on_c, 2, 66, 100
4, 113280, Note_on_c, 2, 66, 0
4, 113280, Note_on_c, 2, 67, 100
4, 113472, Note_on_c, 2, 67, 0
4, 113472, Note_on_c, 2, 59, 100
4, 113664, Note_on_c, 2, 59, 0
4, 113664, Note_on_c, 2, 62, 100
4, 113856, Note_on_c, 2, 62, 0
4, 113856, Note_on_c, 2, 67, 100
4, 114048, Note_on_c, 2, 67, 0
4, 114048, Note_on_c, 2, 66, 100
4, 114240, Note_on_c, 2, 66, 0
4, 114240, Note_on_c, 2, 64, 100
4, 114432, Note_on_c, 2, 64, 0
4, 114432, Note_on_c, 2, 66, 100
4, 114624, Note_on_c, 2, 66, 0
4, 114624, Note_on_c, 2, 62, 100
4, 114816, Note_on_c, 2, 62, 0
4, 114816, Note_on_c, 2, 64, 100
4, 115008, Note_on_c, 2, 64, 0
4, 115008, Note_on_c, 2, 66, 100
4, 115200, Note_on_c, 2, 66, 0
4, 115200, Note_on_c, 2, 57, 100
4, 115392, Note_on_c, 2, 57, 0
4, 115392, Note_on_c, 2, 62, 100
4, 115584, Note_on_c, 2, 62, 0
4, 115584, Note_on_c, 2, 66, 100
4, 115776, Note_on_c, 2, 66, 0
4, 115776, Note_on_c, 2, 67, 100
4, 115968, Note_on_c, 2, 67, 0
4, 115968, Note_on_c, 2, 66, 100
4, 116160, Note_on_c, 2, 66, 0
4, 116160, Note_on_c, 2, 67, 100
4, 116352, Note_on_c, 2, 67, 0
4, 116352, Note_on_c, 2, 62, 100
4, 116736, Note_on_c, 2, 62, 0
4, 116736, Note_on_c, 2, 59, 100
4, 116928, Note_on_c, 2, 59, 0
4, 116928, Note_on_c, 2, 61, 100
4, 117312, Note_on_c, 2, 61, 0
4, 117312, Note_on_c, 2, 73, 100
4, 117504, Note_on_c, 2, 73, 0
4, 117504, Note_on_c, 2, 74, 100
4, 117888, Note_on_c, 2, 74, 0
4, 117888, Note_on_c, 2, 62, 100
4, 118080, Note_on_c, 2, 62, 0
4, 118080, Note_on_c, 2, 65, 100
4, 118272, Note_on_c, 2, 65, 0
4, 118272, Note_on_c, 2, 69, 100
4, 118464, Note_on_c, 2, 69, 0
4, 118464, Note_on_c, 2, 74, 100
4, 118656, Note_on_c, 2, 74, 0
4, 118656, Note_on_c, 2, 77, 100
4, 118848, Note_on_c, 2, 77, 0
4, 118848, Note_on_c, 2, 76, 100
4, 119040, Note_on_c, 2, 76, 0
4, 119040, Note_on_c, 2, 74, 100
4, 119232, Note_on_c, 2, 74, 0
4, 119232, Note_on_c, 2, 76, 100
4, 119424, Note_on_c, 2, 76, 0
4, 119424, Note_on_c, 2, 74, 100
4, 119616, Note_on_c, 2, 74, 0
4, 119616, Note_on_c, 2, 72, 100
4, 119808, Note_on_c, 2, 72, 0
4, 119808, Note_on_c, 2, 72, 100
4, 120000, Note_on_c, 2, 72, 0
4, 120000, Note_on_c, 2, 71, 100
4, 120192, Note_on_c, 2, 71, 0
4, 120192, Note_on_c, 2, 72, 100
4, 120384, Note_on_c, 2, 72, 0
4, 120384, Note_on_c, 2, 74, 100
4, 120576, Note_on_c, 2, 74, 0
4, 120576, Note_on_c, 2, 72, 100
4, 120768, Note_on_c, 2, 72, 0
4, 120768, Note_on_c, 2, 74, 100
4, 120960, Note_on_c, 2, 74, 0
4, 120960, Note_on_c, 2, 72, 100
4, 121152, Note_on_c, 2, 72, 0
4, 121152, Note_on_c, 2, 71, 100
4, 121344, Note_on_c, 2, 71, 0
4, 121344, Note_on_c, 2, 72, 100
4, 121536, Note_on_c, 2, 72, 0
4, 121536, Note_on_c, 2, 67, 100
4, 121728, Note_on_c, 2, 67, 0
4, 121728, Note_on_c, 2, 65, 100
4, 121920, Note_on_c, 2, 65, 0
4, 121920, Note_on_c, 2, 67, 100
4, 122112, Note_on_c, 2, 67, 0
4, 122112, Note_on_c, 2, 64, 100
4, 122304, Note_on_c, 2, 64, 0
4, 122304, Note_on_c, 2, 67, 100
4, 122496, Note_on_c, 2, 67, 0
4, 122496, Note_on_c, 2, 72, 100
4, 122688, Note_on_c, 2, 72, 0
4, 122688, Note_on_c, 2, 74, 100
4, 122880, Note_on_c, 2, 74, 0
4, 122880, Note_on_c, 2, 76, 100
4, 123072, Note_on_c, 2, 76, 0
4, 123072, Note_on_c, 2, 77, 100
4, 123264, Note_on_c, 2, 77, 0
4, 123264, Note_on_c, 2, 77, 100
4, 123456, Note_on_c, 2, 77, 0
4, 123456, Note_on_c, 2, 76, 100
4, 123648, Note_on_c, 2, 76, 0
4, 123648, Note_on_c, 2, 77, 100
4, 123840, Note_on_c, 2, 77, 0
4, 123840, Note_on_c, 2, 77, 100
4, 124224, Note_on_c, 2, 77, 0
4, 124224, Note_on_c, 2, 74, 100
4, 124416, Note_on_c, 2, 74, 0
4, 124416, Note_on_c, 2, 72, 100
4, 124608, Note_on_c, 2, 72, 0
4, 124608, Note_on_c, 2, 71, 100
4, 124800, Note_on_c, 2, 71, 0
4, 124800, Note_on_c, 2, 72, 100
4, 124992, Note_on_c, 2, 72, 0
4, 124992, Note_on_c, 2, 67, 100
4, 125376, Note_on_c, 2, 67, 0
4, 125568, Note_on_c, 2, 72, 100
4, 125952, Note_on_c, 2, 72, 0
4, 126144, Note_on_c, 2, 72, 100
4, 126528, Note_on_c, 2, 72, 0
4, 127680, Note_on_c, 2, 73, 100
4, 127872, Note_on_c, 2, 73, 0
4, 127872, Note_on_c, 2, 74, 100
4, 128064, Note_on_c, 2, 74, 0
4, 128064, Note_on_c, 2, 73, 100
4, 128256, Note_on_c, 2, 73, 0
4, 128256, Note_on_c, 2, 74, 100
4, 128448, Note_on_c, 2, 74, 0
4, 128448, Note_on_c, 2, 69, 100
4, 128832, Note_on_c, 2, 69, 0
4, 129024, Note_on_c, 2, 74, 100
4, 129408, Note_on_c, 2, 74, 0
4, 129600, Note_on_c, 2, 74, 100
4, 129984, Note_on_c, 2, 74, 0
4, 131136, Note_on_c, 2, 75, 100
4, 131328, Note_on_c, 2, 75, 0
4, 131328, Note_on_c, 2, 76, 100
4, 131520, Note_on_c, 2, 76, 0
4, 131520, Note_on_c, 2, 75, 100
4, 131712, Note_on_c, 2, 75, 0
4, 131712, Note_on_c, 2, 76, 100
4, 131904, Note_on_c, 2, 76, 0
4, 131904, Note_on_c, 2, 71, 100
4, 132288, Note_on_c, 2, 71, 0
4, 132480, Note_on_c, 2, 76, 100
4, 132864, Note_on_c, 2, 76, 0
4, 133056, Note_on_c, 2, 76, 100
4, 133440, Note_on_c, 2, 76, 0
4, 134592, Note_on_c, 2, 76, 100
4, 134784, Note_on_c, 2, 76, 0
4, 134784, Note_on_c, 2, 77, 100
4, 134976, Note_on_c, 2, 77, 0
4, 134976, Note_on_c, 2, 76, 100
4, 135168, Note_on_c, 2, 76, 0
4, 135168, Note_on_c, 2, 77, 100
4, 135360, Note_on_c, 2, 77, 0
4, 135360, Note_on_c, 2, 72, 100
4, 135744, Note_on_c, 2, 72, 0
4, 135936, Note_on_c, 2, 72, 100
4, 136320, Note_on_c, 2, 72, 0
4, 136512, Note_on_c, 2, 69, 100
4, 136896, Note_on_c, 2, 69, 0
4, 138048, Note_on_c, 2, 78, 100
4, 138240, Note_on_c, 2, 78, 0
4, 138240, Note_on_c, 2, 79, 100
4, 138432, Note_on_c, 2, 79, 0
4, 138432, Note_on_c, 2, 78, 100
4, 138624, Note_on_c, 2, 78, 0
4, 138624, Note_on_c, 2, 79, 100
4, 138816, Note_on_c, 2, 79, 0
4, 138816, Note_on_c, 2, 74, 100
4, 139200, Note_on_c, 2, 74, 0
4, 139392, Note_on_c, 2, 74, 100
4, 139776, Note_on_c, 2, 74, 0
4, 139968, Note_on_c, 2, 71, 100
4, 140352, Note_on_c, 2, 71, 0
4, 141504, Note_on_c, 2, 76, 100
4, 141696, Note_on_c, 2, 76, 0
4, 141696, Note_on_c, 2, 76, 100
4, 142080, Note_on_c, 2, 76, 0
4, 142080, Note_on_c, 2, 69, 100
4, 142272, Note_on_c, 2, 69, 0
4, 142272, Note_on_c, 2, 76, 100
4, 142656, Note_on_c, 2, 76, 0
4, 142656, Note_on_c, 2, 69, 100
4, 142848, Note_on_c, 2, 69, 0
4, 142848, Note_on_c, 2, 76, 100
4, 143232, Note_on_c, 2, 76, 0
4, 143232, Note_on_c, 2, 69, 100
4, 143424, Note_on_c, 2, 69, 0
4, 143424, Note_on_c, 2, 69, 100
4, 143808, Note_on_c, 2, 69, 0
4, 143808, Note_on_c, 2, 65, 100
4, 144000, Note_on_c, 2, 65, 0
4, 144000, Note_on_c, 2, 69, 100
4, 144384, Note_on_c, 2, 69, 0
4, 144384, Note_on_c, 2, 65, 100
4, 144576, Note_on_c, 2, 65, 0
4, 144576, Note_on_c, 2, 69, 100
4, 144960, Note_on_c, 2, 69, 0
4, 144960, Note_on_c, 2, 77, 100
4, 145152, Note_on_c, 2, 77, 0
4, 145152, Note_on_c, 2, 74, 100
4, 145536, Note_on_c, 2, 74, 0
4, 145536, Note_on_c, 2, 67, 100
4, 145728, Note_on_c, 2, 67, 0
4, 145728, Note_on_c, 2, 74, 100
4, 146112, Note_on_c, 2, 74, 0
4, 146112, Note_on_c, 2, 67, 100
4, 146304, Note_on_c, 2, 67, 0
4, 146304, Note_on_c, 2, 74, 100
4, 146688, Note_on_c, 2, 74, 0
4, 146688, Note_on_c, 2, 67, 100
4, 146880, Note_on_c, 2, 67, 0
4, 146880, Note_on_c, 2, 67, 100
4, 147264, Note_on_c, 2, 67, 0
4, 147264, Note_on_c, 2, 64, 100
4, 147456, Note_on_c, 2, 64, 0
4, 147456, Note_on_c, 2, 67, 100
4, 147840, Note_on_c, 2, 67, 0
4, 147840, Note_on_c, 2, 64, 100
4, 148032, Note_on_c, 2, 64, 0
4, 148032, Note_on_c, 2, 67, 100
4, 148416, Note_on_c, 2, 67, 0
4, 148416, Note_on_c, 2, 76, 100
4, 148608, Note_on_c, 2, 76, 0
4, 148608, Note_on_c, 2, 72, 100
4, 148992, Note_on_c, 2, 72, 0
4, 148992, Note_on_c, 2, 65, 100
4, 149184, Note_on_c, 2, 65, 0
4, 149184, Note_on_c, 2, 72, 100
4, 149568, Note_on_c, 2, 72, 0
4, 149568, Note_on_c, 2, 65, 100
4, 149760, Note_on_c, 2, 65, 0
4, 149760, Note_on_c, 2, 72, 100
4, 150144, Note_on_c, 2, 72, 0
4, 150144, Note_on_c, 2, 65, 100
4, 150336, Note_on_c, 2, 65, 0
4, 150336, Note_on_c, 2, 65, 100
4, 150720, Note_on_c, 2, 65, 0
4, 150720, Note_on_c, 2, 62, 100
4, 150912, Note_on_c, 2, 62, 0
4, 150912, Note_on_c, 2, 65, 100
4, 151296, Note_on_c, 2, 65, 0
4, 151296, Note_on_c, 2, 62, 100
4, 151488, Note_on_c, 2, 62, 0
4, 151488, Note_on_c, 2, 65, 100
4, 151872, Note_on_c, 2, 65, 0
4, 151872, Note_on_c, 2, 74, 100
4, 152064, Note_on_c, 2, 74, 0
4, 152064, Note_on_c, 2, 71, 100
4, 156672, Note_on_c, 2, 71, 0
4, 157632, Note_on_c, 2, 69, 100
4, 157824, Note_on_c, 2, 69, 0
4, 157824, Note_on_c, 2, 81, 100
4, 158208, Note_on_c, 2, 81, 0
4, 158208, Note_on_c, 2, 76, 100
4, 158400, Note_on_c, 2, 76, 0
4, 158400, Note_on_c, 2, 80, 100
4, 158592, Note_on_c, 2, 80, 0
4, 158592, Note_on_c, 2, 81, 100
4, 158784, Note_on_c, 2, 81, 0
4, 158784, Note_on_c, 2, 83, 100
4, 158976, Note_on_c, 2, 83, 0
4, 158976, Note_on_c, 2, 81, 100
4, 159360, Note_on_c, 2, 81, 0
4, 159360, Note_on_c, 2, 76, 100
4, 159552, Note_on_c, 2, 76, 0
4, 159552, Note_on_c, 2, 72, 100
4, 159744, Note_on_c, 2, 72, 0
4, 159744, Note_on_c, 2, 74, 100
4, 159936, Note_on_c, 2, 74, 0
4, 159936, Note_on_c, 2, 76, 100
4, 160128, Note_on_c, 2, 76, 0
4, 160128, Note_on_c, 2, 69, 100
4, 160320, Note_on_c, 2, 69, 0
4, 160320, Note_on_c, 2, 72, 100
4, 160512, Note_on_c, 2, 72, 0
4, 160512, Note_on_c, 2, 76, 100
4, 160704, Note_on_c, 2, 76, 0
4, 160704, Note_on_c, 2, 76, 100
4, 160896, Note_on_c, 2, 76, 0
4, 160896, Note_on_c, 2, 77, 100
4, 161088, Note_on_c, 2, 77, 0
4, 161088, Note_on_c, 2, 76, 100
4, 161280, Note_on_c, 2, 76, 0
4, 161280, Note_on_c, 2, 71, 100
4, 161472, Note_on_c, 2, 71, 0
4, 161472, Note_on_c, 2, 72, 100
4, 161664, Note_on_c, 2, 72, 0
4, 161664, Note_on_c, 2, 74, 100
4, 161856, Note_on_c, 2, 74, 0
4, 161856, Note_on_c, 2, 76, 100
4, 162240, Note_on_c, 2, 76, 0
4, 162240, Note_on_c, 2, 64, 100
4, 162432, Note_on_c, 2, 64, 0
4, 162432, Note_on_c, 2, 57, 100
4, 162816, Note_on_c, 2, 57, 0
4, 164736, Note_on_c, 2, 68, 100
4, 164928, Note_on_c, 2, 68, 0
4, 164928, Note_on_c, 2, 66, 100
4, 165120, Note_on_c, 2, 66, 0
4, 165120, Note_on_c, 2, 68, 100
4, 165312, Note_on_c, 2, 68, 0
4, 165312, Note_on_c, 2, 59, 100
4, 165696, Note_on_c, 2, 59, 0
4, 168192, Note_on_c, 2, 72, 100
4, 168384, Note_on_c, 2, 72, 0
4, 168384, Note_on_c, 2, 71, 100
4, 168576, Note_on_c, 2, 71, 0
4, 168576, Note_on_c, 2, 72, 100
4, 168768, Note_on_c, 2, 72, 0
4, 168768, Note_on_c, 2, 64, 100
4, 169152, Note_on_c, 2, 64, 0
4, 169920, Note_on_c, 2, 77, 100
4, 170304, Note_on_c, 2, 77, 0
4, 171648, Note_on_c, 2, 76, 100
4, 172032, Note_on_c, 2, 76, 0
4, 173376, Note_on_c, 2, 68, 100
4, 173760, Note_on_c, 2, 68, 0
4, 174528, Note_on_c, 2, 71, 100
4, 174720, Note_on_c, 2, 71, 0
4, 174720, Note_on_c, 2, 69, 100
4, 174912, Note_on_c, 2, 69, 0
4, 174912, Note_on_c, 2, 71, 100
4, 175104, Note_on_c, 2, 71, 0
4, 175104, Note_on_c, 2, 68, 100
4, 175296, Note_on_c, 2, 68, 0
4, 175296, Note_on_c, 2, 71, 100
4, 175488, Note_on_c, 2, 71, 0
4, 175488, Note_on_c, 2, 74, 100
4, 175680, Note_on_c, 2, 74, 0
4, 175680, Note_on_c, 2, 77, 100
4, 175872, Note_on_c, 2, 77, 0
4, 175872, Note_on_c, 2, 76, 100
4, 176064, Note_on_c, 2, 76, 0
4, 176064, Note_on_c, 2, 74, 100
4, 176256, Note_on_c, 2, 74, 0
4, 176256, Note_on_c, 2, 72, 100
4, 176640, Note_on_c, 2, 72, 0
4, 177984, Note_on_c, 2, 69, 100
4, 178176, Note_on_c, 2, 69, 0
4, 178176, Note_on_c, 2, 67, 100
4, 178368, Note_on_c, 2, 67, 0
4, 178368, Note_on_c, 2, 69, 100
4, 178560, Note_on_c, 2, 69, 0
4, 178560, Note_on_c, 2, 66, 100
4, 178752, Note_on_c, 2, 66, 0
4, 178752, Note_on_c, 2, 69, 100
4, 178944, Note_on_c, 2, 69, 0
4, 178944, Note_on_c, 2, 72, 100
4, 179136, Note_on_c, 2, 72, 0
4, 179136, Note_on_c, 2, 75, 100
4, 179328, Note_on_c, 2, 75, 0
4, 179328, Note_on_c, 2, 74, 100
4, 179520, Note_on_c, 2, 74, 0
4, 179520, Note_on_c, 2, 72, 100
4, 179712, Note_on_c, 2, 72, 0
4, 179712, Note_on_c, 2, 71, 100
4, 180096, Note_on_c, 2, 71, 0
4, 182400, Note_on_c, 2, 69, 100
4, 182592, Note_on_c, 2, 69, 0
4, 182592, Note_on_c, 2, 69, 100
4, 182784, Note_on_c, 2, 69, 0
4, 182784, Note_on_c, 2, 68, 100
4, 182976, Note_on_c, 2, 68, 0
4, 182976, Note_on_c, 2, 69, 100
4, 183168, Note_on_c, 2, 69, 0
4, 183168, Note_on_c, 2, 62, 100
4, 183552, Note_on_c, 2, 62, 0
4, 184128, Note_on_c, 2, 71, 100
4, 184320, Note_on_c, 2, 71, 0
4, 184320, Note_on_c, 2, 71, 100
4, 184512, Note_on_c, 2, 71, 0
4, 184512, Note_on_c, 2, 69, 100
4, 184704, Note_on_c, 2, 69, 0
4, 184704, Note_on_c, 2, 71, 100
4, 184896, Note_on_c, 2, 71, 0
4, 184896, Note_on_c, 2, 64, 100
4, 185280, Note_on_c, 2, 64, 0
4, 185856, Note_on_c, 2, 71, 100
4, 186048, Note_on_c, 2, 71, 0
4, 186048, Note_on_c, 2, 71, 100
4, 186240, Note_on_c, 2, 71, 0
4, 186240, Note_on_c, 2, 69, 100
4, 186432, Note_on_c, 2, 69, 0
4, 186432, Note_on_c, 2, 71, 100
4, 186624, Note_on_c, 2, 71, 0
4, 186624, Note_on_c, 2, 69, 100
4, 187008, Note_on_c, 2, 69, 0
4, 187584, Note_on_c, 2, 69, 100
4, 187776, Note_on_c, 2, 69, 0
4, 187776, Note_on_c, 2, 69, 100
4, 187968, Note_on_c, 2, 69, 0
4, 187968, Note_on_c, 2, 68, 100
4, 188160, Note_on_c, 2, 68, 0
4, 188160, Note_on_c, 2, 69, 100
4, 188352, Note_on_c, 2, 69, 0
4, 188352, Note_on_c, 2, 64, 100
4, 188736, Note_on_c, 2, 64, 0
4, 189312, Note_on_c, 2, 62, 100
4, 189504, Note_on_c, 2, 62, 0
4, 189504, Note_on_c, 2, 62, 100
4, 189696, Note_on_c, 2, 62, 0
4, 189696, Note_on_c, 2, 60, 100
4, 189888, Note_on_c, 2, 60, 0
4, 189888, Note_on_c, 2, 62, 100
4, 190080, Note_on_c, 2, 62, 0
4, 190080, Note_on_c, 2, 60, 100
4, 190656, Note_on_c, 2, 60, 0
4, 191616, Note_on_c, 2, 69, 100
4, 191808, Note_on_c, 2, 69, 0
4, 191808, Note_on_c, 2, 74, 100
4, 192000, Note_on_c, 2, 74, 0
4, 192000, Note_on_c, 2, 72, 100
4, 192192, Note_on_c, 2, 72, 0
4, 192192, Note_on_c, 2, 71, 100
4, 192384, Note_on_c, 2, 71, 0
4, 192384, Note_on_c, 2, 69, 100
4, 192576, Note_on_c, 2, 69, 0
4, 192576, Note_on_c, 2, 67, 100
4, 192768, Note_on_c, 2, 67, 0
4, 192768, Note_on_c, 2, 65, 100
4, 192960, Note_on_c, 2, 65, 0
4, 192960, Note_on_c, 2, 64, 100
4, 193152, Note_on_c, 2, 64, 0
4, 193152, Note_on_c, 2, 65, 100
4, 193344, Note_on_c, 2, 65, 0
4, 193344, Note_on_c, 2, 62, 100
4, 193536, Note_on_c, 2, 62, 0
4, 193536, Note_on_c, 2, 71, 100
4, 194112, Note_on_c, 2, 71, 0
4, 195072, Note_on_c, 2, 71, 100
4, 195264, Note_on_c, 2, 71, 0
4, 195264, Note_on_c, 2, 72, 100
4, 195456, Note_on_c, 2, 72, 0
4, 195456, Note_on_c, 2, 71, 100
4, 195648, Note_on_c, 2, 71, 0
4, 195648, Note_on_c, 2, 69, 100
4, 195840, Note_on_c, 2, 69, 0
4, 195840, Note_on_c, 2, 67, 100
4, 196032, Note_on_c, 2, 67, 0
4, 196032, Note_on_c, 2, 65, 100
4, 196224, Note_on_c, 2, 65, 0
4, 196224, Note_on_c, 2, 64, 100
4, 196416, Note_on_c, 2, 64, 0
4, 196416, Note_on_c, 2, 62, 100
4, 196608, Note_on_c, 2, 62, 0
4, 196608, Note_on_c, 2, 64, 100
4, 196800, Note_on_c, 2, 64, 0
4, 196800, Note_on_c, 2, 60, 100
4, 196992, Note_on_c, 2, 60, 0
4, 196992, Note_on_c, 2, 69, 100
4, 197568, Note_on_c, 2, 69, 0
4, 198528, Note_on_c, 2, 69, 100
4, 198720, Note_on_c, 2, 69, 0
4, 198720, Note_on_c, 2, 71, 100
4, 198912, Note_on_c, 2, 71, 0
4, 198912, Note_on_c, 2, 69, 100
4, 199104, Note_on_c, 2, 69, 0
4, 199104, Note_on_c, 2, 71, 100
4, 199296, Note_on_c, 2, 71, 0
4, 199296, Note_on_c, 2, 59, 100
4, 199488, Note_on_c, 2, 59, 0
4, 199488, Note_on_c, 2, 62, 100
4, 199680, Note_on_c, 2, 62, 0
4, 199680, Note_on_c, 2, 65, 100
4, 199872, Note_on_c, 2, 65, 0
4, 199872, Note_on_c, 2, 69, 100
4, 200064, Note_on_c, 2, 69, 0
4, 200064, Note_on_c, 2, 68, 100
4, 200256, Note_on_c, 2, 68, 0
4, 200256, Note_on_c, 2, 66, 100
4, 200448, Note_on_c, 2, 66, 0
4, 200448, Note_on_c, 2, 64, 100
4, 201024, Note_on_c, 2, 64, 0
4, 202560, Note_on_c, 2, 74, 100
4, 202752, Note_on_c, 2, 74, 0
4, 202752, Note_on_c, 2, 72, 100
4, 202944, Note_on_c, 2, 72, 0
4, 202944, Note_on_c, 2, 71, 100
4, 203136, Note_on_c, 2, 71, 0
4, 203136, Note_on_c, 2, 69, 100
4, 203328, Note_on_c, 2, 69, 0
4, 203328, Note_on_c, 2, 68, 100
4, 203520, Note_on_c, 2, 68, 0
4, 203520, Note_on_c, 2, 69, 100
4, 203712, Note_on_c, 2, 69, 0
4, 203712, Note_on_c, 2, 71, 100
4, 203904, Note_on_c, 2, 71, 0
4, 203904, Note_on_c, 2, 69, 100
4, 204480, Note_on_c, 2, 69, 0
4, 208896, Note_on_c, 2, 69, 100
4, 209088, Note_on_c, 2, 69, 0
4, 209088, Note_on_c, 2, 76, 100
4, 209280, Note_on_c, 2, 76, 0
4, 209280, Note_on_c, 2, 74, 100
4, 209472, Note_on_c, 2, 74, 0
4, 209472, Note_on_c, 2, 72, 100
4, 209664, Note_on_c, 2, 72, 0
4, 209664, Note_on_c, 2, 71, 100
4, 209856, Note_on_c, 2, 71, 0
4, 209856, Note_on_c, 2, 69, 100
4, 210048, Note_on_c, 2, 69, 0
4, 210048, Note_on_c, 2, 67, 100
4, 210240, Note_on_c, 2, 67, 0
4, 210240, Note_on_c, 2, 66, 100
4, 210432, Note_on_c, 2, 66, 0
4, 210432, Note_on_c, 2, 67, 100
4, 210624, Note_on_c, 2, 67, 0
4, 210624, Note_on_c, 2, 69, 100
4, 210816, Note_on_c, 2, 69, 0
4, 210816, Note_on_c, 2, 67, 100
4, 211008, Note_on_c, 2, 67, 0
4, 211008, Note_on_c, 2, 66, 100
4, 211200, Note_on_c, 2, 66, 0
4, 211200, Note_on_c, 2, 67, 100
4, 211392, Note_on_c, 2, 67, 0
4, 211392, Note_on_c, 2, 64, 100
4, 211584, Note_on_c, 2, 64, 0
4, 211584, Note_on_c, 2, 66, 100
4, 211776, Note_on_c, 2, 66, 0
4, 211776, Note_on_c, 2, 67, 100
4, 211968, Note_on_c, 2, 67, 0
4, 211968, Note_on_c, 2, 59, 100
4, 212160, Note_on_c, 2, 59, 0
4, 212160, Note_on_c, 2, 64, 100
4, 212352, Note_on_c, 2, 64, 0
4, 212352, Note_on_c, 2, 67, 100
4, 212544, Note_on_c, 2, 67, 0
4, 212544, Note_on_c, 2, 66, 100
4, 212736, Note_on_c, 2, 66, 0
4, 212736, Note_on_c, 2, 64, 100
4, 212928, Note_on_c, 2, 64, 0
4, 212928, Note_on_c, 2, 66, 100
4, 213120, Note_on_c, 2, 66, 0
4, 213120, Note_on_c, 2, 63, 100
4, 213312, Note_on_c, 2, 63, 0
4, 213312, Note_on_c, 2, 64, 100
4, 213504, Note_on_c, 2, 64, 0
4, 213504, Note_on_c, 2, 66, 100
4, 213696, Note_on_c, 2, 66, 0
4, 213696, Note_on_c, 2, 59, 100
4, 213888, Note_on_c, 2, 59, 0
4, 213888, Note_on_c, 2, 66, 100
4, 214080, Note_on_c, 2, 66, 0
4, 214080, Note_on_c, 2, 69, 100
4, 214272, Note_on_c, 2, 69, 0
4, 214272, Note_on_c, 2, 67, 100
4, 214464, Note_on_c, 2, 67, 0
4, 214464, Note_on_c, 2, 66, 100
4, 214656, Note_on_c, 2, 66, 0
4, 214656, Note_on_c, 2, 67, 100
4, 214848, Note_on_c, 2, 67, 0
4, 214848, Note_on_c, 2, 64, 100
4, 215040, Note_on_c, 2, 64, 0
4, 215040, Note_on_c, 2, 67, 100
4, 215232, Note_on_c, 2, 67, 0
4, 215232, Note_on_c, 2, 71, 100
4, 215424, Note_on_c, 2, 71, 0
4, 215424, Note_on_c, 2, 74, 100
4, 215616, Note_on_c, 2, 74, 0
4, 215616, Note_on_c, 2, 72, 100
4, 215808, Note_on_c, 2, 72, 0
4, 215808, Note_on_c, 2, 71, 100
4, 216000, Note_on_c, 2, 71, 0
4, 216000, Note_on_c, 2, 72, 100
4, 216768, Note_on_c, 2, 72, 0
4, 216768, Note_on_c, 2, 71, 100
4, 216960, Note_on_c, 2, 71, 0
4, 216960, Note_on_c, 2, 69, 100
4, 217152, Note_on_c, 2, 69, 0
4, 217152, Note_on_c, 2, 76, 100
4, 217536, Note_on_c, 2, 76, 0
4, 217536, Note_on_c, 2, 76, 100
4, 217728, Note_on_c, 2, 76, 0
4, 217728, Note_on_c, 2, 76, 100
4, 217920, Note_on_c, 2, 76, 0
4, 217920, Note_on_c, 2, 74, 100
4, 218112, Note_on_c, 2, 74, 0
4, 218112, Note_on_c, 2, 76, 100
4, 218304, Note_on_c, 2, 76, 0
4, 218304, Note_on_c, 2, 72, 100
4, 218496, Note_on_c, 2, 72, 0
4, 218496, Note_on_c, 2, 71, 100
4, 218688, Note_on_c, 2, 71, 0
4, 218688, Note_on_c, 2, 69, 100
4, 218880, Note_on_c, 2, 69, 0
4, 218880, Note_on_c, 2, 76, 100
4, 219264, Note_on_c, 2, 76, 0
4, 219264, Note_on_c, 2, 76, 100
4, 219456, Note_on_c, 2, 76, 0
4, 219456, Note_on_c, 2, 76, 100
4, 219840, Note_on_c, 2, 76, 0
4, 219840, Note_on_c, 2, 76, 100
4, 220032, Note_on_c, 2, 76, 0
4, 220032, Note_on_c, 2, 76, 100
4, 220416, Note_on_c, 2, 76, 0
4, 220416, Note_on_c, 2, 76, 100
4, 220608, Note_on_c, 2, 76, 0
4, 220608, Note_on_c, 2, 76, 100
4, 220992, Note_on_c, 2, 76, 0
4, 220992, Note_on_c, 2, 76, 100
4, 221184, Note_on_c, 2, 76, 0
4, 221184, Note_on_c, 2, 76, 100
4, 221376, Note_on_c, 2, 76, 0
4, 221376, Note_on_c, 2, 74, 100
4, 221568, Note_on_c, 2, 74, 0
4, 221568, Note_on_c, 2, 76, 100
4, 221760, Note_on_c, 2, 76, 0
4, 221760, Note_on_c, 2, 72, 100
4, 222144, Note_on_c, 2, 72, 0
4, 222144, Note_on_c, 2, 69, 100
4, 222336, Note_on_c, 2, 69, 0
4, 222336, Note_on_c, 2, 71, 100
4, 222720, Note_on_c, 2, 71, 0
4, 222720, Note_on_c, 2, 73, 100
4, 222912, Note_on_c, 2, 73, 0
4, 222912, Note_on_c, 2, 74, 100
4, 223104, Note_on_c, 2, 74, 0
4, 223104, Note_on_c, 2, 73, 100
4, 223296, Note_on_c, 2, 73, 0
4, 223296, Note_on_c, 2, 74, 100
4, 223488, Note_on_c, 2, 74, 0
4, 223488, Note_on_c, 2, 62, 100
4, 223680, Note_on_c, 2, 62, 0
4, 223680, Note_on_c, 2, 65, 100
4, 223872, Note_on_c, 2, 65, 0
4, 223872, Note_on_c, 2, 69, 100
4, 224064, Note_on_c, 2, 69, 0
4, 224064, Note_on_c, 2, 72, 100
4, 224256, Note_on_c, 2, 72, 0
4, 224256, Note_on_c, 2, 71, 100
4, 224448, Note_on_c, 2, 71, 0
4, 224448, Note_on_c, 2, 69, 100
4, 224640, Note_on_c, 2, 69, 0
4, 224640, Note_on_c, 2, 71, 100
4, 225024, Note_on_c, 2, 71, 0
4, 225024, Note_on_c, 2, 59, 100
4, 225216, Note_on_c, 2, 59, 0
4, 225216, Note_on_c, 2, 62, 100
4, 225600, Note_on_c, 2, 62, 0
4, 225600, Note_on_c, 2, 67, 100
4, 225792, Note_on_c, 2, 67, 0
4, 225792, Note_on_c, 2, 60, 100
4, 226176, Note_on_c, 2, 60, 0
4, 226176, Note_on_c, 2, 67, 100
4, 226368, Note_on_c, 2, 67, 0
4, 226368, Note_on_c, 2, 67, 100
4, 226752, Note_on_c, 2, 67, 0
4, 226752, Note_on_c, 2, 65, 100
4, 226944, Note_on_c, 2, 65, 0
4, 226944, Note_on_c, 2, 64, 100
4, 227328, Note_on_c, 2, 64, 0
4, 227328, Note_on_c, 2, 67, 100
4, 227520, Note_on_c, 2, 67, 0
4, 227520, Note_on_c, 2, 71, 100
4, 227712, Note_on_c, 2, 71, 0
4, 227712, Note_on_c, 2, 72, 100
4, 227904, Note_on_c, 2, 72, 0
4, 227904, Note_on_c, 2, 74, 100
4, 228096, Note_on_c, 2, 74, 0
4, 228096, Note_on_c, 2, 72, 100
4, 228288, Note_on_c, 2, 72, 0
4, 228288, Note_on_c, 2, 71, 100
4, 228480, Note_on_c, 2, 71, 0
4, 228480, Note_on_c, 2, 72, 100
4, 228672, Note_on_c, 2, 72, 0
4, 228672, Note_on_c, 2, 67, 100
4, 228864, Note_on_c, 2, 67, 0
4, 228864, Note_on_c, 2, 65, 100
4, 229056, Note_on_c, 2, 65, 0
4, 229056, Note_on_c, 2, 64, 100
4, 229248, Note_on_c, 2, 64, 0
4, 229248, Note_on_c, 2, 64, 100
4, 229440, Note_on_c, 2, 64, 0
4, 229440, Note_on_c, 2, 67, 100
4, 229632, Note_on_c, 2, 67, 0
4, 229632, Note_on_c, 2, 72, 100
4, 229824, Note_on_c, 2, 72, 0
4, 229824, Note_on_c, 2, 71, 100
4, 230016, Note_on_c, 2, 71, 0
4, 230016, Note_on_c, 2, 69, 100
4, 230208, Note_on_c, 2, 69, 0
4, 230208, Note_on_c, 2, 71, 100
4, 230400, Note_on_c, 2, 71, 0
4, 230400, Note_on_c, 2, 67, 100
4, 230784, Note_on_c, 2, 67, 0
4, 230784, Note_on_c, 2, 71, 100
4, 230976, Note_on_c, 2, 71, 0
4, 230976, Note_on_c, 2, 74, 100
4, 231168, Note_on_c, 2, 74, 0
4, 231168, Note_on_c, 2, 72, 100
4, 231360, Note_on_c, 2, 72, 0
4, 231360, Note_on_c, 2, 71, 100
4, 231552, Note_on_c, 2, 71, 0
4, 231552, Note_on_c, 2, 72, 100
4, 232128, Note_on_c, 2, 72, 0
4, 232512, Note_on_c, 2, 65, 100
4, 232704, Note_on_c, 2, 65, 0
4, 232704, Note_on_c, 2, 64, 100
4, 233088, Note_on_c, 2, 64, 0
4, 233088, Note_on_c, 2, 72, 100
4, 233280, Note_on_c, 2, 72, 0
4, 233280, Note_on_c, 2, 71, 100
4, 233472, Note_on_c, 2, 71, 0
4, 233472, Note_on_c, 2, 69, 100
4, 233664, Note_on_c, 2, 69, 0
4, 233664, Note_on_c, 2, 71, 100
4, 233856, Note_on_c, 2, 71, 0
4, 233856, Note_on_c, 2, 64, 100
4, 234048, Note_on_c, 2, 64, 0
4, 234048, Note_on_c, 2, 68, 100
4, 234240, Note_on_c, 2, 68, 0
4, 234240, Note_on_c, 2, 71, 100
4, 234432, Note_on_c, 2, 71, 0
4, 234432, Note_on_c, 2, 74, 100
4, 234624, Note_on_c, 2, 74, 0
4, 234624, Note_on_c, 2, 72, 100
4, 234816, Note_on_c, 2, 72, 0
4, 234816, Note_on_c, 2, 71, 100
4, 235008, Note_on_c, 2, 71, 0
4, 235008, Note_on_c, 2, 72, 100
4, 235200, Note_on_c, 2, 72, 0
4, 235200, Note_on_c, 2, 71, 100
4, 235392, Note_on_c, 2, 71, 0
4, 235392, Note_on_c, 2, 72, 100
4, 235584, Note_on_c, 2, 72, 0
4, 235584, Note_on_c, 2, 81, 100
4, 235968, Note_on_c, 2, 81, 0
4, 235968, Note_on_c, 2, 73, 100
4, 236160, Note_on_c, 2, 73, 0
4, 236160, Note_on_c, 2, 74, 100
4, 236544, Note_on_c, 2, 74, 0
4, 236544, Note_on_c, 2, 76, 100
4, 236736, Note_on_c, 2, 76, 0
4, 236736, Note_on_c, 2, 69, 100
4, 237312, Note_on_c, 2, 69, 0
4, 237696, Note_on_c, 2, 77, 100
4, 237888, Note_on_c, 2, 77, 0
4, 237888, Note_on_c, 2, 77, 100
4, 238080, Note_on_c, 2, 77, 0
4, 238080, Note_on_c, 2, 76, 100
4, 238272, Note_on_c, 2, 76, 0
4, 238272, Note_on_c, 2, 77, 100
4, 238464, Note_on_c, 2, 77, 0
4, 238464, Note_on_c, 2, 76, 100
4, 239040, Note_on_c, 2, 76, 0
4, 239424, Note_on_c, 2, 76, 100
4, 239616, Note_on_c, 2, 76, 0
4, 239616, Note_on_c, 2, 76, 100
4, 239808, Note_on_c, 2, 76, 0
4, 239808, Note_on_c, 2, 74, 100
4, 240000, Note_on_c, 2, 74, 0
4, 240000, Note_on_c, 2, 76, 100
4, 240192, Note_on_c, 2, 76, 0
4, 240192, Note_on_c, 2, 74, 100
4, 240576, Note_on_c, 2, 74, 0
4, 240576, Note_on_c, 2, 62, 100
4, 240768, Note_on_c, 2, 62, 0
4, 240768, Note_on_c, 2, 65, 100
4, 241152, Note_on_c, 2, 65, 0
4, 241152, Note_on_c, 2, 62, 100
4, 241344, Note_on_c, 2, 62, 0
4, 241344, Note_on_c, 2, 59, 100
4, 241728, Note_on_c, 2, 59, 0
4, 241728, Note_on_c, 2, 68, 100
4, 241920, Note_on_c, 2, 68, 0
4, 241920, Note_on_c, 2, 68, 100
4, 242112, Note_on_c, 2, 68, 0
4, 242112, Note_on_c, 2, 69, 100
4, 242304, Note_on_c, 2, 69, 0
4, 242304, Note_on_c, 2, 71, 100
4, 242496, Note_on_c, 2, 71, 0
4, 242496, Note_on_c, 2, 69, 100
4, 242880, Note_on_c, 2, 69, 0
4, 242880, Note_on_c, 2, 65, 100
4, 243072, Note_on_c, 2, 65, 0
4, 243072, Note_on_c, 2, 64, 100
4, 243456, Note_on_c, 2, 64, 0
4, 243456, Note_on_c, 2, 64, 100
4, 243648, Note_on_c, 2, 64, 0
4, 243648, Note_on_c, 2, 64, 100
4, 244800, Note_on_c, 2, 64, 0
4, 244800, End_track
5, 0, Start_track
5, 0, MIDI_port, 0
5, 0, Title_t, "Viola"
5, 0, Program_c, 3, 41
5, 0, Control_c, 3, 7, 105
5, 0, Control_c, 3, 10, 44
5, 2304, Note_on_c, 3, 60, 100
5, 2496, Note_on_c, 3, 60, 0
5, 2496, Note_on_c, 3, 59, 100
5, 2688, Note_on_c, 3, 59, 0
5, 2688, Note_on_c, 3, 57, 100
5, 2880, Note_on_c, 3, 57, 0
5, 2880, Note_on_c, 3, 64, 100
5, 3264, Note_on_c, 3, 64, 0
5, 3264, Note_on_c, 3, 64, 100
5, 3456, Note_on_c, 3, 64, 0
5, 3456, Note_on_c, 3, 64, 100
5, 3648, Note_on_c, 3, 64, 0
5, 3648, Note_on_c, 3, 62, 100
5, 3840, Note_on_c, 3, 62, 0
5, 3840, Note_on_c, 3, 64, 100
5, 4032, Note_on_c, 3, 64, 0
5, 4032, Note_on_c, 3, 60, 100
5, 4224, Note_on_c, 3, 60, 0
5, 4224, Note_on_c, 3, 59, 100
5, 4416, Note_on_c, 3, 59, 0
5, 4416, Note_on_c, 3, 57, 100
5, 4608, Note_on_c, 3, 57, 0
5, 4608, Note_on_c, 3, 64, 100
5, 4992, Note_on_c, 3, 64, 0
5, 4992, Note_on_c, 3, 64, 100
5, 5184, Note_on_c, 3, 64, 0
5, 5184, Note_on_c, 3, 64, 100
5, 5568, Note_on_c, 3, 64, 0
5, 5568, Note_on_c, 3, 64, 100
5, 5760, Note_on_c, 3, 64, 0
5, 5760, Note_on_c, 3, 64, 100
5, 6144, Note_on_c, 3, 64, 0
5, 6144, Note_on_c, 3, 64, 100
5, 6336, Note_on_c, 3, 64, 0
5, 6336, Note_on_c, 3, 64, 100
5, 6720, Note_on_c, 3, 64, 0
5, 6720, Note_on_c, 3, 64, 100
5, 6912, Note_on_c, 3, 64, 0
5, 6912, Note_on_c, 3, 64, 100
5, 7104, Note_on_c, 3, 64, 0
5, 7104, Note_on_c, 3, 62, 100
5, 7296, Note_on_c, 3, 62, 0
5, 7296, Note_on_c, 3, 64, 100
5, 7488, Note_on_c, 3, 64, 0
5, 7488, Note_on_c, 3, 60, 100
5, 7872, Note_on_c, 3, 60, 0
5, 7872, Note_on_c, 3, 57, 100
5, 8064, Note_on_c, 3, 57, 0
5, 8064, Note_on_c, 3, 61, 100
5, 8448, Note_on_c, 3, 61, 0
5, 8448, Note_on_c, 3, 63, 100
5, 8640, Note_on_c, 3, 63, 0
5, 8640, Note_on_c, 3, 64, 100
5, 9024, Note_on_c, 3, 64, 0
5, 9024, Note_on_c, 3, 66, 100
5, 9216, Note_on_c, 3, 66, 0
5, 9216, Note_on_c, 3, 67, 100
5, 9408, Note_on_c, 3, 67, 0
5, 9408, Note_on_c, 3, 69, 100
5, 9600, Note_on_c, 3, 69, 0
5, 9600, Note_on_c, 3, 71, 100
5, 9792, Note_on_c, 3, 71, 0
5, 9792, Note_on_c, 3, 71, 100
5, 10176, Note_on_c, 3, 71, 0
5, 10176, Note_on_c, 3, 66, 100
5, 10368, Note_on_c, 3, 66, 0
5, 10368, Note_on_c, 3, 64, 100
5, 10752, Note_on_c, 3, 64, 0
5, 10752, Note_on_c, 3, 59, 100
5, 10944, Note_on_c, 3, 59, 0
5, 10944, Note_on_c, 3, 59, 100
5, 11328, Note_on_c, 3, 59, 0
5, 11328, Note_on_c, 3, 64, 100
5, 11520, Note_on_c, 3, 64, 0
5, 11520, Note_on_c, 3, 67, 100
5, 11904, Note_on_c, 3, 67, 0
5, 11904, Note_on_c, 3, 64, 100
5, 12096, Note_on_c, 3, 64, 0
5, 12096, Note_on_c, 3, 71, 100
5, 12480, Note_on_c, 3, 71, 0
5, 12480, Note_on_c, 3, 66, 100
5, 12672, Note_on_c, 3, 66, 0
5, 12672, Note_on_c, 3, 66, 100
5, 12864, Note_on_c, 3, 66, 0
5, 12864, Note_on_c, 3, 64, 100
5, 13056, Note_on_c, 3, 64, 0
5, 13056, Note_on_c, 3, 63, 100
5, 13248, Note_on_c, 3, 63, 0
5, 13248, Note_on_c, 3, 66, 100
5, 13632, Note_on_c, 3, 66, 0
5, 13632, Note_on_c, 3, 59, 100
5, 13824, Note_on_c, 3, 59, 0
5, 13824, Note_on_c, 3, 64, 100
5, 14208, Note_on_c, 3, 64, 0
5, 14208, Note_on_c, 3, 59, 100
5, 14400, Note_on_c, 3, 59, 0
5, 14400, Note_on_c, 3, 71, 100
5, 14784, Note_on_c, 3, 71, 0
5, 14784, Note_on_c, 3, 71, 100
5, 14976, Note_on_c, 3, 71, 0
5, 14976, Note_on_c, 3, 71, 100
5, 15360, Note_on_c, 3, 71, 0
5, 15360, Note_on_c, 3, 64, 100
5, 15552, Note_on_c, 3, 64, 0
5, 15552, Note_on_c, 3, 64, 100
5, 15936, Note_on_c, 3, 64, 0
5, 15936, Note_on_c, 3, 69, 100
5, 16128, Note_on_c, 3, 69, 0
5, 16128, Note_on_c, 3, 69, 100
5, 16512, Note_on_c, 3, 69, 0
5, 16512, Note_on_c, 3, 64, 100
5, 16704, Note_on_c, 3, 64, 0
5, 16704, Note_on_c, 3, 74, 100
5, 17088, Note_on_c, 3, 74, 0
5, 17088, Note_on_c, 3, 68, 100
5, 17280, Note_on_c, 3, 68, 0
5, 17280, Note_on_c, 3, 69, 100
5, 17664, Note_on_c, 3, 69, 0
5, 17664, Note_on_c, 3, 64, 100
5, 17856, Note_on_c, 3, 64, 0
5, 17856, Note_on_c, 3, 69, 100
5, 18240, Note_on_c, 3, 69, 0
5, 18240, Note_on_c, 3, 64, 100
5, 18432, Note_on_c, 3, 64, 0
5, 18432, Note_on_c, 3, 69, 100
5, 18816, Note_on_c, 3, 69, 0
5, 18816, Note_on_c, 3, 64, 100
5, 19008, Note_on_c, 3, 64, 0
5, 19008, Note_on_c, 3, 62, 100
5, 19200, Note_on_c, 3, 62, 0
5, 19200, Note_on_c, 3, 60, 100
5, 19392, Note_on_c, 3, 60, 0
5, 19392, Note_on_c, 3, 62, 100
5, 19584, Note_on_c, 3, 62, 0
5, 19584, Note_on_c, 3, 59, 100
5, 19776, Note_on_c, 3, 59, 0
5, 19776, Note_on_c, 3, 60, 100
5, 19968, Note_on_c, 3, 60, 0
5, 19968, Note_on_c, 3, 62, 100
5, 20160, Note_on_c, 3, 62, 0
5, 20160, Note_on_c, 3, 56, 100
5, 20544, Note_on_c, 3, 56, 0
5, 20544, Note_on_c, 3, 59, 100
5, 20736, Note_on_c, 3, 59, 0
5, 20736, Note_on_c, 3, 64, 100
5, 21120, Note_on_c, 3, 64, 0
5, 21120, Note_on_c, 3, 57, 100
5, 21312, Note_on_c, 3, 57, 0
5, 21312, Note_on_c, 3, 64, 100
5, 21696, Note_on_c, 3, 64, 0
5, 21696, Note_on_c, 3, 64, 100
5, 21888, Note_on_c, 3, 64, 0
5, 21888, Note_on_c, 3, 64, 100
5, 22080, Note_on_c, 3, 64, 0
5, 22080, Note_on_c, 3, 65, 100
5, 22272, Note_on_c, 3, 65, 0
5, 22272, Note_on_c, 3, 67, 100
5, 22464, Note_on_c, 3, 67, 0
5, 22464, Note_on_c, 3, 69, 100
5, 22848, Note_on_c, 3, 69, 0
5, 22848, Note_on_c, 3, 62, 100
5, 23040, Note_on_c, 3, 62, 0
5, 23040, Note_on_c, 3, 65, 100
5, 23424, Note_on_c, 3, 65, 0
5, 23424, Note_on_c, 3, 65, 100
5, 23616, Note_on_c, 3, 65, 0
5, 23616, Note_on_c, 3, 64, 100
5, 24000, Note_on_c, 3, 64, 0
5, 24000, Note_on_c, 3, 69, 100
5, 24192, Note_on_c, 3, 69, 0
5, 24192, Note_on_c, 3, 67, 100
5, 24576, Note_on_c, 3, 67, 0
5, 24576, Note_on_c, 3, 55, 100
5, 24768, Note_on_c, 3, 55, 0
5, 24768, Note_on_c, 3, 59, 100
5, 25152, Note_on_c, 3, 59, 0
5, 25152, Note_on_c, 3, 59, 100
5, 25344, Note_on_c, 3, 59, 0
5, 25344, Note_on_c, 3, 57, 100
5, 25728, Note_on_c, 3, 57, 0
5, 25728, Note_on_c, 3, 67, 100
5, 25920, Note_on_c, 3, 67, 0
5, 25920, Note_on_c, 3, 72, 100
5, 26112, Note_on_c, 3, 72, 0
5, 26112, Note_on_c, 3, 71, 100
5, 26304, Note_on_c, 3, 71, 0
5, 26304, Note_on_c, 3, 69, 100
5, 26496, Note_on_c, 3, 69, 0
5, 26496, Note_on_c, 3, 67, 100
5, 26688, Note_on_c, 3, 67, 0
5, 26688, Note_on_c, 3, 65, 100
5, 26880, Note_on_c, 3, 65, 0
5, 26880, Note_on_c, 3, 64, 100
5, 27072, Note_on_c, 3, 64, 0
5, 27072, Note_on_c, 3, 62, 100
5, 27264, Note_on_c, 3, 62, 0
5, 27264, Note_on_c, 3, 64, 100
5, 27456, Note_on_c, 3, 64, 0
5, 27456, Note_on_c, 3, 65, 100
5, 27648, Note_on_c, 3, 65, 0
5, 27648, Note_on_c, 3, 64, 100
5, 27840, Note_on_c, 3, 64, 0
5, 27840, Note_on_c, 3, 62, 100
5, 28032, Note_on_c, 3, 62, 0
5, 28032, Note_on_c, 3, 64, 100
5, 28224, Note_on_c, 3, 64, 0
5, 28224, Note_on_c, 3, 60, 100
5, 28416, Note_on_c, 3, 60, 0
5, 28416, Note_on_c, 3, 62, 100
5, 28608, Note_on_c, 3, 62, 0
5, 28608, Note_on_c, 3, 64, 100
5, 28800, Note_on_c, 3, 64, 0
5, 28800, Note_on_c, 3, 55, 100
5, 28992, Note_on_c, 3, 55, 0
5, 28992, Note_on_c, 3, 60, 100
5, 29184, Note_on_c, 3, 60, 0
5, 29184, Note_on_c, 3, 64, 100
5, 29376, Note_on_c, 3, 64, 0
5, 29376, Note_on_c, 3, 62, 100
5, 29568, Note_on_c, 3, 62, 0
5, 29568, Note_on_c, 3, 60, 100
5, 29760, Note_on_c, 3, 60, 0
5, 29760, Note_on_c, 3, 62, 100
5, 29952, Note_on_c, 3, 62, 0
5, 29952, Note_on_c, 3, 59, 100
5, 30144, Note_on_c, 3, 59, 0
5, 30144, Note_on_c, 3, 60, 100
5, 30336, Note_on_c, 3, 60, 0
5, 30336, Note_on_c, 3, 62, 100
5, 30528, Note_on_c, 3, 62, 0
5, 30528, Note_on_c, 3, 55, 100
5, 30720, Note_on_c, 3, 55, 0
5, 30720, Note_on_c, 3, 62, 100
5, 30912, Note_on_c, 3, 62, 0
5, 30912, Note_on_c, 3, 65, 100
5, 31104, Note_on_c, 3, 65, 0
5, 31104, Note_on_c, 3, 64, 100
5, 31296, Note_on_c, 3, 64, 0
5, 31296, Note_on_c, 3, 62, 100
5, 31488, Note_on_c, 3, 62, 0
5, 31488, Note_on_c, 3, 64, 100
5, 31680, Note_on_c, 3, 64, 0
5, 31680, Note_on_c, 3, 60, 100
5, 31872, Note_on_c, 3, 60, 0
5, 31872, Note_on_c, 3, 64, 100
5, 32064, Note_on_c, 3, 64, 0
5, 32064, Note_on_c, 3, 67, 100
5, 32256, Note_on_c, 3, 67, 0
5, 32256, Note_on_c, 3, 72, 100
5, 32448, Note_on_c, 3, 72, 0
5, 32448, Note_on_c, 3, 71, 100
5, 32640, Note_on_c, 3, 71, 0
5, 32640, Note_on_c, 3, 69, 100
5, 32832, Note_on_c, 3, 69, 0
5, 32832, Note_on_c, 3, 71, 100
5, 33792, Note_on_c, 3, 71, 0
5, 33792, Note_on_c, 3, 76, 100
5, 33984, Note_on_c, 3, 76, 0
5, 33984, Note_on_c, 3, 69, 100
5, 34368, Note_on_c, 3, 69, 0
5, 34368, Note_on_c, 3, 64, 100
5, 34560, Note_on_c, 3, 64, 0
5, 34560, Note_on_c, 3, 64, 100
5, 35136, Note_on_c, 3, 64, 0
5, 35520, Note_on_c, 3, 69, 100
5, 35712, Note_on_c, 3, 69, 0
5, 35712, Note_on_c, 3, 62, 100
5, 36096, Note_on_c, 3, 62, 0
5, 36096, Note_on_c, 3, 69, 100
5, 36288, Note_on_c, 3, 69, 0
5, 36288, Note_on_c, 3, 74, 100
5, 36864, Note_on_c, 3, 74, 0
5, 37248, Note_on_c, 3, 69, 100
5, 37440, Note_on_c, 3, 69, 0
5, 37440, Note_on_c, 3, 62, 100
5, 37824, Note_on_c, 3, 62, 0
5, 37824, Note_on_c, 3, 70, 100
5, 38016, Note_on_c, 3, 70, 0
5, 38016, Note_on_c, 3, 70, 100
5, 38400, Note_on_c, 3, 70, 0
5, 38400, Note_on_c, 3, 69, 100
5, 38592, Note_on_c, 3, 69, 0
5, 38976, Note_on_c, 3, 64, 100
5, 39168, Note_on_c, 3, 64, 0
5, 39168, Note_on_c, 3, 60, 100
5, 39552, Note_on_c, 3, 60, 0
5, 39552, Note_on_c, 3, 69, 100
5, 39744, Note_on_c, 3, 69, 0
5, 39744, Note_on_c, 3, 69, 100
5, 40128, Note_on_c, 3, 69, 0
5, 40128, Note_on_c, 3, 68, 100
5, 40320, Note_on_c, 3, 68, 0
5, 40704, Note_on_c, 3, 68, 100
5, 40896, Note_on_c, 3, 68, 0
5, 40896, Note_on_c, 3, 68, 100
5, 41280, Note_on_c, 3, 68, 0
5, 41280, Note_on_c, 3, 64, 100
5, 41472, Note_on_c, 3, 64, 0
5, 41472, Note_on_c, 3, 64, 100
5, 42432, Note_on_c, 3, 64, 0
5, 42432, Note_on_c, 3, 62, 100
5, 42624, Note_on_c, 3, 62, 0
5, 42624, Note_on_c, 3, 60, 100
5, 43008, Note_on_c, 3, 60, 0
5, 43008, Note_on_c, 3, 59, 100
5, 43200, Note_on_c, 3, 59, 0
5, 43200, Note_on_c, 3, 60, 100
5, 43584, Note_on_c, 3, 60, 0
5, 50688, Note_on_c, 3, 77, 100
5, 51264, Note_on_c, 3, 77, 0
5, 52416, Note_on_c, 3, 72, 100
5, 52992, Note_on_c, 3, 72, 0
5, 54144, Note_on_c, 3, 71, 100
5, 54720, Note_on_c, 3, 71, 0
5, 55872, Note_on_c, 3, 68, 100
5, 56448, Note_on_c, 3, 68, 0
5, 57600, Note_on_c, 3, 69, 100
5, 58176, Note_on_c, 3, 69, 0
5, 59328, Note_on_c, 3, 66, 100
5, 59904, Note_on_c, 3, 66, 0
5, 61056, Note_on_c, 3, 67, 100
5, 61632, Note_on_c, 3, 67, 0
5, 62784, Note_on_c, 3, 64, 100
5, 63360, Note_on_c, 3, 64, 0
5, 64512, Note_on_c, 3, 66, 100
5, 65088, Note_on_c, 3, 66, 0
5, 66240, Note_on_c, 3, 63, 100
5, 66816, Note_on_c, 3, 63, 0
5, 67968, Note_on_c, 3, 64, 100
5, 68544, Note_on_c, 3, 64, 0
5, 69696, Note_on_c, 3, 60, 100
5, 70272, Note_on_c, 3, 60, 0
5, 71424, Note_on_c, 3, 67, 100
5, 72000, Note_on_c, 3, 67, 0
5, 73152, Note_on_c, 3, 59, 100
5, 73728, Note_on_c, 3, 59, 0
5, 75264, Note_on_c, 3, 72, 100
5, 75456, Note_on_c, 3, 72, 0
5, 75456, Note_on_c, 3, 71, 100
5, 75840, Note_on_c, 3, 71, 0
5, 75840, Note_on_c, 3, 66, 100
5, 76032, Note_on_c, 3, 66, 0
5, 76032, Note_on_c, 3, 67, 100
5, 76416, Note_on_c, 3, 67, 0
5, 76416, Note_on_c, 3, 64, 100
5, 76608, Note_on_c, 3, 64, 0
5, 76608, Note_on_c, 3, 59, 100
5, 76992, Note_on_c, 3, 59, 0
5, 76992, Note_on_c, 3, 71, 100
5, 77184, Note_on_c, 3, 71, 0
5, 77184, Note_on_c, 3, 67, 100
5, 77568, Note_on_c, 3, 67, 0
5, 77568, Note_on_c, 3, 64, 100
5, 77760, Note_on_c, 3, 64, 0
5, 77760, Note_on_c, 3, 71, 100
5, 78144, Note_on_c, 3, 71, 0
5, 78144, Note_on_c, 3, 66, 100
5, 78336, Note_on_c, 3, 66, 0
5, 78336, Note_on_c, 3, 66, 100
5, 78528, Note_on_c, 3, 66, 0
5, 78528, Note_on_c, 3, 64, 100
5, 78720, Note_on_c, 3, 64, 0
5, 78720, Note_on_c, 3, 63, 100
5, 78912, Note_on_c, 3, 63, 0
5, 78912, Note_on_c, 3, 66, 100
5, 79296, Note_on_c, 3, 66, 0
5, 79296, Note_on_c, 3, 59, 100
5, 79488, Note_on_c, 3, 59, 0
5, 79488, Note_on_c, 3, 64, 100
5, 79872, Note_on_c, 3, 64, 0
5, 86976, Note_on_c, 3, 69, 100
5, 86976, Note_on_c, 3, 69, 0
5, 86976, Note_on_c, 3, 69, 100
5, 86976, Note_on_c, 3, 69, 100
5, 87360, Note_on_c, 3, 69, 0
5, 88704, Note_on_c, 3, 67, 100
5, 89088, Note_on_c, 3, 67, 0
5, 90432, Note_on_c, 3, 66, 100
5, 90432, Note_on_c, 3, 66, 0
5, 90432, Note_on_c, 3, 66, 100
5, 90432, Note_on_c, 3, 66, 100
5, 90816, Note_on_c, 3, 66, 0
5, 92160, Note_on_c, 3, 63, 100
5, 92544, Note_on_c, 3, 63, 0
5, 93888, Note_on_c, 3, 64, 100
5, 94272, Note_on_c, 3, 64, 0
5, 95616, Note_on_c, 3, 61, 100
5, 96000, Note_on_c, 3, 61, 0
5, 97344, Note_on_c, 3, 62, 100
5, 97728, Note_on_c, 3, 62, 0
5, 99072, Note_on_c, 3, 59, 100
5, 99456, Note_on_c, 3, 59, 0
5, 100800, Note_on_c, 3, 60, 100
5, 101184, Note_on_c, 3, 60, 0
5, 102528, Note_on_c, 3, 69, 100
5, 102912, Note_on_c, 3, 69, 0
5, 104256, Note_on_c, 3, 72, 100
5, 104640, Note_on_c, 3, 72, 0
5, 105984, Note_on_c, 3, 60, 100
5, 106368, Note_on_c, 3, 60, 0
5, 107712, Note_on_c, 3, 62, 100
5, 108096, Note_on_c, 3, 62, 0
5, 109440, Note_on_c, 3, 67, 100
5, 109824, Note_on_c, 3, 67, 0
5, 111168, Note_on_c, 3, 67, 100
5, 111552, Note_on_c, 3, 67, 0
5, 112896, Note_on_c, 3, 67, 100
5, 113280, Note_on_c, 3, 67, 0
5, 114624, Note_on_c, 3, 69, 100
5, 115008, Note_on_c, 3, 69, 0
5, 116352, Note_on_c, 3, 67, 100
5, 116736, Note_on_c, 3, 67, 0
5, 118080, Note_on_c, 3, 69, 100
5, 118464, Note_on_c, 3, 69, 0
5, 119808, Note_on_c, 3, 64, 100
5, 120000, Note_on_c, 3, 64, 0
5, 120000, Note_on_c, 3, 62, 100
5, 120192, Note_on_c, 3, 62, 0
5, 120192, Note_on_c, 3, 60, 100
5, 120384, Note_on_c, 3, 60, 0
5, 120384, Note_on_c, 3, 67, 100
5, 120768, Note_on_c, 3, 67, 0
5, 120768, Note_on_c, 3, 67, 100
5, 120960, Note_on_c, 3, 67, 0
5, 120960, Note_on_c, 3, 67, 100
5, 121152, Note_on_c, 3, 67, 0
5, 121152, Note_on_c, 3, 65, 100
5, 121344, Note_on_c, 3, 65, 0
5, 121344, Note_on_c, 3, 67, 100
5, 121536, Note_on_c, 3, 67, 0
5, 121536, Note_on_c, 3, 64, 100
5, 121728, Note_on_c, 3, 64, 0
5, 121728, Note_on_c, 3, 62, 100
5, 121920, Note_on_c, 3, 62, 0
5, 121920, Note_on_c, 3, 60, 100
5, 122112, Note_on_c, 3, 60, 0
5, 122112, Note_on_c, 3, 67, 100
5, 122496, Note_on_c, 3, 67, 0
5, 122496, Note_on_c, 3, 67, 100
5, 122688, Note_on_c, 3, 67, 0
5, 122688, Note_on_c, 3, 67, 100
5, 123072, Note_on_c, 3, 67, 0
5, 123072, Note_on_c, 3, 67, 100
5, 123264, Note_on_c, 3, 67, 0
5, 123264, Note_on_c, 3, 67, 100
5, 123648, Note_on_c, 3, 67, 0
5, 123648, Note_on_c, 3, 67, 100
5, 123840, Note_on_c, 3, 67, 0
5, 123840, Note_on_c, 3, 67, 100
5, 124224, Note_on_c, 3, 67, 0
5, 124224, Note_on_c, 3, 67, 100
5, 124416, Note_on_c, 3, 67, 0
5, 124416, Note_on_c, 3, 67, 100
5, 124608, Note_on_c, 3, 67, 0
5, 124608, Note_on_c, 3, 65, 100
5, 124800, Note_on_c, 3, 65, 0
5, 124800, Note_on_c, 3, 67, 100
5, 124992, Note_on_c, 3, 67, 0
5, 124992, Note_on_c, 3, 64, 100
5, 125376, Note_on_c, 3, 64, 0
5, 125568, Note_on_c, 3, 60, 100
5, 125952, Note_on_c, 3, 60, 0
5, 126144, Note_on_c, 3, 65, 100
5, 126528, Note_on_c, 3, 65, 0
5, 127680, Note_on_c, 3, 69, 100
5, 127872, Note_on_c, 3, 69, 0
5, 127872, Note_on_c, 3, 69, 100
5, 128064, Note_on_c, 3, 69, 0
5, 128064, Note_on_c, 3, 67, 100
5, 128256, Note_on_c, 3, 67, 0
5, 128256, Note_on_c, 3, 69, 100
5, 128448, Note_on_c, 3, 69, 0
5, 128448, Note_on_c, 3, 66, 100
5, 128832, Note_on_c, 3, 66, 0
5, 129024, Note_on_c, 3, 62, 100
5, 129408, Note_on_c, 3, 62, 0
5, 129600, Note_on_c, 3, 67, 100
5, 129984, Note_on_c, 3, 67, 0
5, 131136, Note_on_c, 3, 71, 100
5, 131328, Note_on_c, 3, 71, 0
5, 131328, Note_on_c, 3, 71, 100
5, 131520, Note_on_c, 3, 71, 0
5, 131520, Note_on_c, 3, 69, 100
5, 131712, Note_on_c, 3, 69, 0
5, 131712, Note_on_c, 3, 71, 100
5, 131904, Note_on_c, 3, 71, 0
5, 131904, Note_on_c, 3, 68, 100
5, 132288, Note_on_c, 3, 68, 0
5, 132480, Note_on_c, 3, 64, 100
5, 132864, Note_on_c, 3, 64, 0
5, 133056, Note_on_c, 3, 69, 100
5, 133440, Note_on_c, 3, 69, 0
5, 134592, Note_on_c, 3, 72, 100
5, 134784, Note_on_c, 3, 72, 0
5, 134784, Note_on_c, 3, 72, 100
5, 134976, Note_on_c, 3, 72, 0
5, 134976, Note_on_c, 3, 70, 100
5, 135168, Note_on_c, 3, 70, 0
5, 135168, Note_on_c, 3, 72, 100
5, 135360, Note_on_c, 3, 72, 0
5, 135360, Note_on_c, 3, 69, 100
5, 135744, Note_on_c, 3, 69, 0
5, 135936, Note_on_c, 3, 67, 100
5, 136320, Note_on_c, 3, 67, 0
5, 136512, Note_on_c, 3, 66, 100
5, 136896, Note_on_c, 3, 66, 0
5, 138048, Note_on_c, 3, 74, 100
5, 138240, Note_on_c, 3, 74, 0
5, 138240, Note_on_c, 3, 74, 100
5, 138432, Note_on_c, 3, 74, 0
5, 138432, Note_on_c, 3, 72, 100
5, 138624, Note_on_c, 3, 72, 0
5, 138624, Note_on_c, 3, 74, 100
5, 138816, Note_on_c, 3, 74, 0
5, 138816, Note_on_c, 3, 71, 100
5, 139200, Note_on_c, 3, 71, 0
5, 139392, Note_on_c, 3, 69, 100
5, 139776, Note_on_c, 3, 69, 0
5, 139968, Note_on_c, 3, 68, 100
5, 140352, Note_on_c, 3, 68, 0
5, 141504, Note_on_c, 3, 71, 100
5, 141696, Note_on_c, 3, 71, 0
5, 141696, Note_on_c, 3, 69, 100
5, 142272, Note_on_c, 3, 69, 0
5, 142848, Note_on_c, 3, 69, 100
5, 143424, Note_on_c, 3, 69, 0
5, 143424, Note_on_c, 3, 69, 100
5, 144000, Note_on_c, 3, 69, 0
5, 144576, Note_on_c, 3, 62, 100
5, 145152, Note_on_c, 3, 62, 0
5, 145152, Note_on_c, 3, 62, 100
5, 145728, Note_on_c, 3, 62, 0
5, 146304, Note_on_c, 3, 67, 100
5, 146880, Note_on_c, 3, 67, 0
5, 146880, Note_on_c, 3, 67, 100
5, 147456, Note_on_c, 3, 67, 0
5, 148032, Note_on_c, 3, 60, 100
5, 148608, Note_on_c, 3, 60, 0
5, 148608, Note_on_c, 3, 60, 100
5, 149184, Note_on_c, 3, 60, 0
5, 149760, Note_on_c, 3, 69, 100
5, 150336, Note_on_c, 3, 69, 0
5, 150336, Note_on_c, 3, 71, 100
5, 150912, Note_on_c, 3, 71, 0
5, 151488, Note_on_c, 3, 62, 100
5, 152064, Note_on_c, 3, 62, 0
5, 152064, Note_on_c, 3, 64, 100
5, 156672, Note_on_c, 3, 64, 0
5, 158208, Note_on_c, 3, 69, 100
5, 158400, Note_on_c, 3, 69, 0
5, 158400, Note_on_c, 3, 71, 100
5, 158784, Note_on_c, 3, 71, 0
5, 158784, Note_on_c, 3, 68, 100
5, 158976, Note_on_c, 3, 68, 0
5, 158976, Note_on_c, 3, 64, 100
5, 159360, Note_on_c, 3, 64, 0
5, 159360, Note_on_c, 3, 64, 100
5, 159552, Note_on_c, 3, 64, 0
5, 159552, Note_on_c, 3, 64, 100
5, 159936, Note_on_c, 3, 64, 0
5, 159936, Note_on_c, 3, 64, 100
5, 160128, Note_on_c, 3, 64, 0
5, 160128, Note_on_c, 3, 64, 100
5, 160512, Note_on_c, 3, 64, 0
5, 160512, Note_on_c, 3, 64, 100
5, 160704, Note_on_c, 3, 64, 0
5, 160704, Note_on_c, 3, 64, 100
5, 161088, Note_on_c, 3, 64, 0
5, 161088, Note_on_c, 3, 59, 100
5, 161280, Note_on_c, 3, 59, 0
5, 161280, Note_on_c, 3, 64, 100
5, 161664, Note_on_c, 3, 64, 0
5, 161664, Note_on_c, 3, 64, 100
5, 161856, Note_on_c, 3, 64, 0
5, 161856, Note_on_c, 3, 64, 100
5, 162240, Note_on_c, 3, 64, 0
5, 162240, Note_on_c, 3, 64, 100
5, 162432, Note_on_c, 3, 64, 0
5, 162432, Note_on_c, 3, 64, 100
5, 162816, Note_on_c, 3, 64, 0
5, 169920, Note_on_c, 3, 74, 100
5, 170304, Note_on_c, 3, 74, 0
5, 171648, Note_on_c, 3, 72, 100
5, 172032, Note_on_c, 3, 72, 0
5, 173376, Note_on_c, 3, 71, 100
5, 173760, Note_on_c, 3, 71, 0
5, 174912, Note_on_c, 3, 71, 100
5, 175104, Note_on_c, 3, 71, 0
5, 175104, Note_on_c, 3, 71, 100
5, 175488, Note_on_c, 3, 71, 0
5, 175488, Note_on_c, 3, 68, 100
5, 175680, Note_on_c, 3, 68, 0
5, 175680, Note_on_c, 3, 68, 100
5, 176064, Note_on_c, 3, 68, 0
5, 176064, Note_on_c, 3, 68, 100
5, 176256, Note_on_c, 3, 68, 0
5, 176256, Note_on_c, 3, 69, 100
5, 176640, Note_on_c, 3, 69, 0
5, 176640, Note_on_c, 3, 64, 100
5, 176832, Note_on_c, 3, 64, 0
5, 176832, Note_on_c, 3, 64, 100
5, 177216, Note_on_c, 3, 64, 0
5, 177216, Note_on_c, 3, 61, 100
5, 177408, Note_on_c, 3, 61, 0
5, 177408, Note_on_c, 3, 61, 100
5, 177792, Note_on_c, 3, 61, 0
5, 177792, Note_on_c, 3, 61, 100
5, 177984, Note_on_c, 3, 61, 0
5, 177984, Note_on_c, 3, 62, 100
5, 178368, Note_on_c, 3, 62, 0
5, 178368, Note_on_c, 3, 69, 100
5, 178560, Note_on_c, 3, 69, 0
5, 178560, Note_on_c, 3, 69, 100
5, 178944, Note_on_c, 3, 69, 0
5, 178944, Note_on_c, 3, 66, 100
5, 179136, Note_on_c, 3, 66, 0
5, 179136, Note_on_c, 3, 66, 100
5, 179520, Note_on_c, 3, 66, 0
5, 179520, Note_on_c, 3, 66, 100
5, 179712, Note_on_c, 3, 66, 0
5, 179712, Note_on_c, 3, 67, 100
5, 180096, Note_on_c, 3, 67, 0
5, 180096, Note_on_c, 3, 62, 100
5, 180288, Note_on_c, 3, 62, 0
5, 180288, Note_on_c, 3, 62, 100
5, 180672, Note_on_c, 3, 62, 0
5, 180672, Note_on_c, 3, 59, 100
5, 180864, Note_on_c, 3, 59, 0
5, 180864, Note_on_c, 3, 59, 100
5, 181248, Note_on_c, 3, 59, 0
5, 181248, Note_on_c, 3, 59, 100
5, 181440, Note_on_c, 3, 59, 0
5, 181440, Note_on_c, 3, 60, 100
5, 181824, Note_on_c, 3, 60, 0
5, 182592, Note_on_c, 3, 60, 100
5, 183168, Note_on_c, 3, 60, 0
5, 183168, Note_on_c, 3, 62, 100
5, 183744, Note_on_c, 3, 62, 0
5, 184320, Note_on_c, 3, 62, 100
5, 184896, Note_on_c, 3, 62, 0
5, 184896, Note_on_c, 3, 64, 100
5, 185472, Note_on_c, 3, 64, 0
5, 186048, Note_on_c, 3, 64, 100
5, 186624, Note_on_c, 3, 64, 0
5, 186624, Note_on_c, 3, 66, 100
5, 187200, Note_on_c, 3, 66, 0
5, 187776, Note_on_c, 3, 66, 100
5, 188352, Note_on_c, 3, 66, 0
5, 188352, Note_on_c, 3, 68, 100
5, 188928, Note_on_c, 3, 68, 0
5, 189504, Note_on_c, 3, 68, 100
5, 190080, Note_on_c, 3, 68, 0
5, 190080, Note_on_c, 3, 64, 100
5, 190656, Note_on_c, 3, 64, 0
5, 191616, Note_on_c, 3, 69, 100
5, 191808, Note_on_c, 3, 69, 0
5, 191808, Note_on_c, 3, 74, 100
5, 192000, Note_on_c, 3, 74, 0
5, 192000, Note_on_c, 3, 72, 100
5, 192192, Note_on_c, 3, 72, 0
5, 192192, Note_on_c, 3, 71, 100
5, 192384, Note_on_c, 3, 71, 0
5, 192384, Note_on_c, 3, 69, 100
5, 192576, Note_on_c, 3, 69, 0
5, 192576, Note_on_c, 3, 67, 100
5, 192768, Note_on_c, 3, 67, 0
5, 192768, Note_on_c, 3, 65, 100
5, 192960, Note_on_c, 3, 65, 0
5, 192960, Note_on_c, 3, 64, 100
5, 193152, Note_on_c, 3, 64, 0
5, 193152, Note_on_c, 3, 65, 100
5, 193344, Note_on_c, 3, 65, 0
5, 193344, Note_on_c, 3, 62, 100
5, 193536, Note_on_c, 3, 62, 0
5, 193536, Note_on_c, 3, 71, 100
5, 194112, Note_on_c, 3, 71, 0
5, 195072, Note_on_c, 3, 71, 100
5, 195264, Note_on_c, 3, 71, 0
5, 195264, Note_on_c, 3, 72, 100
5, 195456, Note_on_c, 3, 72, 0
5, 195456, Note_on_c, 3, 71, 100
5, 195648, Note_on_c, 3, 71, 0
5, 195648, Note_on_c, 3, 69, 100
5, 195840, Note_on_c, 3, 69, 0
5, 195840, Note_on_c, 3, 67, 100
5, 196032, Note_on_c, 3, 67, 0
5, 196032, Note_on_c, 3, 65, 100
5, 196224, Note_on_c, 3, 65, 0
5, 196224, Note_on_c, 3, 64, 100
5, 196416, Note_on_c, 3, 64, 0
5, 196416, Note_on_c, 3, 62, 100
5, 196608, Note_on_c, 3, 62, 0
5, 196608, Note_on_c, 3, 64, 100
5, 196800, Note_on_c, 3, 64, 0
5, 196800, Note_on_c, 3, 60, 100
5, 196992, Note_on_c, 3, 60, 0
5, 196992, Note_on_c, 3, 69, 100
5, 197568, Note_on_c, 3, 69, 0
5, 198528, Note_on_c, 3, 69, 100
5, 198720, Note_on_c, 3, 69, 0
5, 198720, Note_on_c, 3, 71, 100
5, 198912, Note_on_c, 3, 71, 0
5, 198912, Note_on_c, 3, 69, 100
5, 199104, Note_on_c, 3, 69, 0
5, 199104, Note_on_c, 3, 71, 100
5, 199296, Note_on_c, 3, 71, 0
5, 199296, Note_on_c, 3, 59, 100
5, 199488, Note_on_c, 3, 59, 0
5, 199488, Note_on_c, 3, 62, 100
5, 199680, Note_on_c, 3, 62, 0
5, 199680, Note_on_c, 3, 65, 100
5, 199872, Note_on_c, 3, 65, 0
5, 199872, Note_on_c, 3, 69, 100
5, 200064, Note_on_c, 3, 69, 0
5, 200064, Note_on_c, 3, 68, 100
5, 200256, Note_on_c, 3, 68, 0
5, 200256, Note_on_c, 3, 66, 100
5, 200448, Note_on_c, 3, 66, 0
5, 200448, Note_on_c, 3, 64, 100
5, 201024, Note_on_c, 3, 64, 0
5, 203136, Note_on_c, 3, 64, 100
5, 203328, Note_on_c, 3, 64, 0
5, 203328, Note_on_c, 3, 64, 100
5, 203712, Note_on_c, 3, 64, 0
5, 203712, Note_on_c, 3, 64, 100
5, 203904, Note_on_c, 3, 64, 0
5, 203904, Note_on_c, 3, 64, 100
5, 204096, Note_on_c, 3, 64, 0
5, 204096, Note_on_c, 3, 62, 100
5, 204288, Note_on_c, 3, 62, 0
5, 204288, Note_on_c, 3, 64, 100
5, 204480, Note_on_c, 3, 64, 0
5, 204480, Note_on_c, 3, 60, 100
5, 204672, Note_on_c, 3, 60, 0
5, 204672, Note_on_c, 3, 59, 100
5, 204864, Note_on_c, 3, 59, 0
5, 204864, Note_on_c, 3, 57, 100
5, 205056, Note_on_c, 3, 57, 0
5, 205056, Note_on_c, 3, 64, 100
5, 205440, Note_on_c, 3, 64, 0
5, 205440, Note_on_c, 3, 64, 100
5, 205632, Note_on_c, 3, 64, 0
5, 205632, Note_on_c, 3, 64, 100
5, 206016, Note_on_c, 3, 64, 0
5, 206016, Note_on_c, 3, 64, 100
5, 206208, Note_on_c, 3, 64, 0
5, 206208, Note_on_c, 3, 64, 100
5, 206592, Note_on_c, 3, 64, 0
5, 206592, Note_on_c, 3, 64, 100
5, 206784, Note_on_c, 3, 64, 0
5, 206784, Note_on_c, 3, 64, 100
5, 207168, Note_on_c, 3, 64, 0
5, 207168, Note_on_c, 3, 64, 100
5, 207360, Note_on_c, 3, 64, 0
5, 207360, Note_on_c, 3, 64, 100
5, 207552, Note_on_c, 3, 64, 0
5, 207552, Note_on_c, 3, 62, 100
5, 207744, Note_on_c, 3, 62, 0
5, 207744, Note_on_c, 3, 64, 100
5, 207936, Note_on_c, 3, 64, 0
5, 207936, Note_on_c, 3, 60, 100
5, 208320, Note_on_c, 3, 60, 0
5, 208320, Note_on_c, 3, 57, 100
5, 208512, Note_on_c, 3, 57, 0
5, 208512, Note_on_c, 3, 61, 100
5, 208896, Note_on_c, 3, 61, 0
5, 208896, Note_on_c, 3, 63, 100
5, 209088, Note_on_c, 3, 63, 0
5, 209088, Note_on_c, 3, 64, 100
5, 209472, Note_on_c, 3, 64, 0
5, 209472, Note_on_c, 3, 66, 100
5, 209664, Note_on_c, 3, 66, 0
5, 209664, Note_on_c, 3, 67, 100
5, 209856, Note_on_c, 3, 67, 0
5, 209856, Note_on_c, 3, 69, 100
5, 210048, Note_on_c, 3, 69, 0
5, 210048, Note_on_c, 3, 71, 100
5, 210240, Note_on_c, 3, 71, 0
5, 210240, Note_on_c, 3, 71, 100
5, 210624, Note_on_c, 3, 71, 0
5, 210624, Note_on_c, 3, 66, 100
5, 210816, Note_on_c, 3, 66, 0
5, 210816, Note_on_c, 3, 64, 100
5, 211200, Note_on_c, 3, 64, 0
5, 211200, Note_on_c, 3, 59, 100
5, 211392, Note_on_c, 3, 59, 0
5, 211392, Note_on_c, 3, 59, 100
5, 211776, Note_on_c, 3, 59, 0
5, 211776, Note_on_c, 3, 64, 100
5, 211968, Note_on_c, 3, 64, 0
5, 211968, Note_on_c, 3, 67, 100
5, 212352, Note_on_c, 3, 67, 0
5, 212352, Note_on_c, 3, 64, 100
5, 212544, Note_on_c, 3, 64, 0
5, 212544, Note_on_c, 3, 71, 100
5, 212928, Note_on_c, 3, 71, 0
5, 212928, Note_on_c, 3, 66, 100
5, 213120, Note_on_c, 3, 66, 0
5, 213120, Note_on_c, 3, 66, 100
5, 213312, Note_on_c, 3, 66, 0
5, 213312, Note_on_c, 3, 64, 100
5, 213504, Note_on_c, 3, 64, 0
5, 213504, Note_on_c, 3, 63, 100
5, 213696, Note_on_c, 3, 63, 0
5, 213696, Note_on_c, 3, 66, 100
5, 214080, Note_on_c, 3, 66, 0
5, 214080, Note_on_c, 3, 59, 100
5, 214272, Note_on_c, 3, 59, 0
5, 214272, Note_on_c, 3, 64, 100
5, 214656, Note_on_c, 3, 64, 0
5, 214656, Note_on_c, 3, 59, 100
5, 214848, Note_on_c, 3, 59, 0
5, 214848, Note_on_c, 3, 71, 100
5, 215232, Note_on_c, 3, 71, 0
5, 215232, Note_on_c, 3, 71, 100
5, 215424, Note_on_c, 3, 71, 0
5, 215424, Note_on_c, 3, 71, 100
5, 215808, Note_on_c, 3, 71, 0
5, 215808, Note_on_c, 3, 64, 100
5, 216000, Note_on_c, 3, 64, 0
5, 216000, Note_on_c, 3, 64, 100
5, 216384, Note_on_c, 3, 64, 0
5, 216384, Note_on_c, 3, 69, 100
5, 216576, Note_on_c, 3, 69, 0
5, 216576, Note_on_c, 3, 69, 100
5, 216960, Note_on_c, 3, 69, 0
5, 216960, Note_on_c, 3, 64, 100
5, 217152, Note_on_c, 3, 64, 0
5, 217152, Note_on_c, 3, 74, 100
5, 217536, Note_on_c, 3, 74, 0
5, 217536, Note_on_c, 3, 68, 100
5, 217728, Note_on_c, 3, 68, 0
5, 217728, Note_on_c, 3, 69, 100
5, 218112, Note_on_c, 3, 69, 0
5, 218112, Note_on_c, 3, 64, 100
5, 218304, Note_on_c, 3, 64, 0
5, 218304, Note_on_c, 3, 69, 100
5, 218688, Note_on_c, 3, 69, 0
5, 218688, Note_on_c, 3, 64, 100
5, 218880, Note_on_c, 3, 64, 0
5, 218880, Note_on_c, 3, 69, 100
5, 219264, Note_on_c, 3, 69, 0
5, 219264, Note_on_c, 3, 64, 100
5, 219456, Note_on_c, 3, 64, 0
5, 219456, Note_on_c, 3, 62, 100
5, 219648, Note_on_c, 3, 62, 0
5, 219648, Note_on_c, 3, 60, 100
5, 219840, Note_on_c, 3, 60, 0
5, 219840, Note_on_c, 3, 62, 100
5, 220032, Note_on_c, 3, 62, 0
5, 220032, Note_on_c, 3, 59, 100
5, 220224, Note_on_c, 3, 59, 0
5, 220224, Note_on_c, 3, 60, 100
5, 220416, Note_on_c, 3, 60, 0
5, 220416, Note_on_c, 3, 62, 100
5, 220608, Note_on_c, 3, 62, 0
5, 220608, Note_on_c, 3, 56, 100
5, 220992, Note_on_c, 3, 56, 0
5, 220992, Note_on_c, 3, 59, 100
5, 221184, Note_on_c, 3, 59, 0
5, 221184, Note_on_c, 3, 64, 100
5, 221568, Note_on_c, 3, 64, 0
5, 221568, Note_on_c, 3, 57, 100
5, 221760, Note_on_c, 3, 57, 0
5, 221760, Note_on_c, 3, 64, 100
5, 222144, Note_on_c, 3, 64, 0
5, 222144, Note_on_c, 3, 64, 100
5, 222336, Note_on_c, 3, 64, 0
5, 222336, Note_on_c, 3, 64, 100
5, 222528, Note_on_c, 3, 64, 0
5, 222528, Note_on_c, 3, 65, 100
5, 222720, Note_on_c, 3, 65, 0
5, 222720, Note_on_c, 3, 67, 100
5, 222912, Note_on_c, 3, 67, 0
5, 222912, Note_on_c, 3, 69, 100
5, 223296, Note_on_c, 3, 69, 0
5, 223296, Note_on_c, 3, 62, 100
5, 223488, Note_on_c, 3, 62, 0
5, 223488, Note_on_c, 3, 65, 100
5, 223872, Note_on_c, 3, 65, 0
5, 223872, Note_on_c, 3, 65, 100
5, 224064, Note_on_c, 3, 65, 0
5, 224064, Note_on_c, 3, 64, 100
5, 224448, Note_on_c, 3, 64, 0
5, 224448, Note_on_c, 3, 69, 100
5, 224640, Note_on_c, 3, 69, 0
5, 224640, Note_on_c, 3, 67, 100
5, 225024, Note_on_c, 3, 67, 0
5, 225024, Note_on_c, 3, 55, 100
5, 225216, Note_on_c, 3, 55, 0
5, 225216, Note_on_c, 3, 59, 100
5, 225600, Note_on_c, 3, 59, 0
5, 225600, Note_on_c, 3, 59, 100
5, 225792, Note_on_c, 3, 59, 0
5, 225792, Note_on_c, 3, 57, 100
5, 226176, Note_on_c, 3, 57, 0
5, 226176, Note_on_c, 3, 67, 100
5, 226368, Note_on_c, 3, 67, 0
5, 226368, Note_on_c, 3, 72, 100
5, 226560, Note_on_c, 3, 72, 0
5, 226560, Note_on_c, 3, 71, 100
5, 226752, Note_on_c, 3, 71, 0
5, 226752, Note_on_c, 3, 69, 100
5, 226944, Note_on_c, 3, 69, 0
5, 226944, Note_on_c, 3, 67, 100
5, 227136, Note_on_c, 3, 67, 0
5, 227136, Note_on_c, 3, 65, 100
5, 227328, Note_on_c, 3, 65, 0
5, 227328, Note_on_c, 3, 64, 100
5, 227520, Note_on_c, 3, 64, 0
5, 227520, Note_on_c, 3, 62, 100
5, 227712, Note_on_c, 3, 62, 0
5, 227712, Note_on_c, 3, 64, 100
5, 227904, Note_on_c, 3, 64, 0
5, 227904, Note_on_c, 3, 65, 100
5, 228096, Note_on_c, 3, 65, 0
5, 228096, Note_on_c, 3, 64, 100
5, 228288, Note_on_c, 3, 64, 0
5, 228288, Note_on_c, 3, 62, 100
5, 228480, Note_on_c, 3, 62, 0
5, 228480, Note_on_c, 3, 64, 100
5, 228672, Note_on_c, 3, 64, 0
5, 228672, Note_on_c, 3, 60, 100
5, 228864, Note_on_c, 3, 60, 0
5, 228864, Note_on_c, 3, 62, 100
5, 229056, Note_on_c, 3, 62, 0
5, 229056, Note_on_c, 3, 64, 100
5, 229248, Note_on_c, 3, 64, 0
5, 229248, Note_on_c, 3, 55, 100
5, 229440, Note_on_c, 3, 55, 0
5, 229440, Note_on_c, 3, 60, 100
5, 229632, Note_on_c, 3, 60, 0
5, 229632, Note_on_c, 3, 64, 100
5, 229824, Note_on_c, 3, 64, 0
5, 229824, Note_on_c, 3, 62, 100
5, 230016, Note_on_c, 3, 62, 0
5, 230016, Note_on_c, 3, 60, 100
5, 230208, Note_on_c, 3, 60, 0
5, 230208, Note_on_c, 3, 62, 100
5, 230400, Note_on_c, 3, 62, 0
5, 230400, Note_on_c, 3, 59, 100
5, 230592, Note_on_c, 3, 59, 0
5, 230592, Note_on_c, 3, 60, 100
5, 230784, Note_on_c, 3, 60, 0
5, 230784, Note_on_c, 3, 62, 100
5, 230976, Note_on_c, 3, 62, 0
5, 230976, Note_on_c, 3, 55, 100
5, 231168, Note_on_c, 3, 55, 0
5, 231168, Note_on_c, 3, 62, 100
5, 231360, Note_on_c, 3, 62, 0
5, 231360, Note_on_c, 3, 65, 100
5, 231552, Note_on_c, 3, 65, 0
5, 231552, Note_on_c, 3, 64, 100
5, 231744, Note_on_c, 3, 64, 0
5, 231744, Note_on_c, 3, 62, 100
5, 231936, Note_on_c, 3, 62, 0
5, 231936, Note_on_c, 3, 64, 100
5, 232128, Note_on_c, 3, 64, 0
5, 232128, Note_on_c, 3, 60, 100
5, 232320, Note_on_c, 3, 60, 0
5, 232320, Note_on_c, 3, 64, 100
5, 232512, Note_on_c, 3, 64, 0
5, 232512, Note_on_c, 3, 67, 100
5, 232704, Note_on_c, 3, 67, 0
5, 232704, Note_on_c, 3, 72, 100
5, 232896, Note_on_c, 3, 72, 0
5, 232896, Note_on_c, 3, 71, 100
5, 233088, Note_on_c, 3, 71, 0
5, 233088, Note_on_c, 3, 69, 100
5, 233280, Note_on_c, 3, 69, 0
5, 233280, Note_on_c, 3, 71, 100
5, 234048, Note_on_c, 3, 71, 0
5, 234240, Note_on_c, 3, 76, 100
5, 234432, Note_on_c, 3, 76, 0
5, 234432, Note_on_c, 3, 69, 100
5, 234816, Note_on_c, 3, 69, 0
5, 234816, Note_on_c, 3, 64, 100
5, 235008, Note_on_c, 3, 64, 0
5, 235008, Note_on_c, 3, 64, 100
5, 235584, Note_on_c, 3, 64, 0
5, 235968, Note_on_c, 3, 69, 100
5, 236160, Note_on_c, 3, 69, 0
5, 236160, Note_on_c, 3, 62, 100
5, 236544, Note_on_c, 3, 62, 0
5, 236544, Note_on_c, 3, 69, 100
5, 236736, Note_on_c, 3, 69, 0
5, 236736, Note_on_c, 3, 74, 100
5, 237312, Note_on_c, 3, 74, 0
5, 237696, Note_on_c, 3, 69, 100
5, 237888, Note_on_c, 3, 69, 0
5, 237888, Note_on_c, 3, 62, 100
5, 238272, Note_on_c, 3, 62, 0
5, 238272, Note_on_c, 3, 70, 100
5, 238464, Note_on_c, 3, 70, 0
5, 238464, Note_on_c, 3, 70, 100
5, 238848, Note_on_c, 3, 70, 0
5, 238848, Note_on_c, 3, 69, 100
5, 239040, Note_on_c, 3, 69, 0
5, 239424, Note_on_c, 3, 64, 100
5, 239616, Note_on_c, 3, 64, 0
5, 239616, Note_on_c, 3, 60, 100
5, 240000, Note_on_c, 3, 60, 0
5, 240000, Note_on_c, 3, 69, 100
5, 240192, Note_on_c, 3, 69, 0
5, 240192, Note_on_c, 3, 69, 100
5, 240576, Note_on_c, 3, 69, 0
5, 240576, Note_on_c, 3, 68, 100
5, 240768, Note_on_c, 3, 68, 0
5, 241152, Note_on_c, 3, 68, 100
5, 241344, Note_on_c, 3, 68, 0
5, 241344, Note_on_c, 3, 68, 100
5, 241728, Note_on_c, 3, 68, 0
5, 241728, Note_on_c, 3, 64, 100
5, 241920, Note_on_c, 3, 64, 0
5, 241920, Note_on_c, 3, 64, 100
5, 242880, Note_on_c, 3, 64, 0
5, 242880, Note_on_c, 3, 62, 100
5, 243072, Note_on_c, 3, 62, 0
5, 243072, Note_on_c, 3, 60, 100
5, 243456, Note_on_c, 3, 60, 0
5, 243456, Note_on_c, 3, 59, 100
5, 243648, Note_on_c, 3, 59, 0
5, 243648, Note_on_c, 3, 60, 100
5, 244800, Note_on_c, 3, 60, 0
5, 245376, Note_on_c, 3, 69, 0
5, 245376, Note_on_c, 3, 66, 0
5, 245376, End_track
6, 0, Start_track
6, 0, MIDI_port, 0
6, 0, Title_t, "Cello"
6, 0, Program_c, 4, 42
6, 0, Control_c, 4, 7, 100
6, 0, Control_c, 4, 10, 84
6, 2304, Note_on_c, 4, 57, 100
6, 2880, Note_on_c, 4, 57, 0
6, 2880, Note_on_c, 4, 56, 100
6, 3456, Note_on_c, 4, 56, 0
6, 3456, Note_on_c, 4, 57, 100
6, 4032, Note_on_c, 4, 57, 0
6, 4032, Note_on_c, 4, 45, 100
6, 4608, Note_on_c, 4, 45, 0
6, 4608, Note_on_c, 4, 57, 100
6, 5184, Note_on_c, 4, 57, 0
6, 5184, Note_on_c, 4, 56, 100
6, 5760, Note_on_c, 4, 56, 0
6, 5760, Note_on_c, 4, 52, 100
6, 6336, Note_on_c, 4, 52, 0
6, 6336, Note_on_c, 4, 56, 100
6, 6912, Note_on_c, 4, 56, 0
6, 6912, Note_on_c, 4, 57, 100
6, 7488, Note_on_c, 4, 57, 0
6, 7488, Note_on_c, 4, 55, 100
6, 8064, Note_on_c, 4, 55, 0
6, 8064, Note_on_c, 4, 54, 100
6, 8640, Note_on_c, 4, 54, 0
6, 8640, Note_on_c, 4, 52, 100
6, 9216, Note_on_c, 4, 52, 0
6, 9216, Note_on_c, 4, 40, 100
6, 9792, Note_on_c, 4, 40, 0
6, 9792, Note_on_c, 4, 51, 100
6, 10368, Note_on_c, 4, 51, 0
6, 10368, Note_on_c, 4, 52, 100
6, 10944, Note_on_c, 4, 52, 0
6, 10944, Note_on_c, 4, 40, 100
6, 11520, Note_on_c, 4, 40, 0
6, 11520, Note_on_c, 4, 52, 100
6, 12096, Note_on_c, 4, 52, 0
6, 12096, Note_on_c, 4, 51, 100
6, 12672, Note_on_c, 4, 51, 0
6, 12672, Note_on_c, 4, 47, 100
6, 13248, Note_on_c, 4, 47, 0
6, 13248, Note_on_c, 4, 51, 100
6, 13824, Note_on_c, 4, 51, 0
6, 13824, Note_on_c, 4, 52, 100
6, 14400, Note_on_c, 4, 52, 0
6, 15360, Note_on_c, 4, 52, 100
6, 15552, Note_on_c, 4, 52, 0
6, 15552, Note_on_c, 4, 57, 100
6, 15744, Note_on_c, 4, 57, 0
6, 15744, Note_on_c, 4, 55, 100
6, 15936, Note_on_c, 4, 55, 0
6, 15936, Note_on_c, 4, 53, 100
6, 16128, Note_on_c, 4, 53, 0
6, 16128, Note_on_c, 4, 52, 100
6, 16320, Note_on_c, 4, 52, 0
6, 16320, Note_on_c, 4, 50, 100
6, 16512, Note_on_c, 4, 50, 0
6, 16512, Note_on_c, 4, 48, 100
6, 16704, Note_on_c, 4, 48, 0
6, 16704, Note_on_c, 4, 47, 100
6, 16896, Note_on_c, 4, 47, 0
6, 16896, Note_on_c, 4, 48, 100
6, 17088, Note_on_c, 4, 48, 0
6, 17088, Note_on_c, 4, 50, 100
6, 17280, Note_on_c, 4, 50, 0
6, 17280, Note_on_c, 4, 48, 100
6, 17472, Note_on_c, 4, 48, 0
6, 17472, Note_on_c, 4, 47, 100
6, 17664, Note_on_c, 4, 47, 0
6, 17664, Note_on_c, 4, 48, 100
6, 17856, Note_on_c, 4, 48, 0
6, 17856, Note_on_c, 4, 45, 100
6, 18048, Note_on_c, 4, 45, 0
6, 18048, Note_on_c, 4, 47, 100
6, 18240, Note_on_c, 4, 47, 0
6, 18240, Note_on_c, 4, 48, 100
6, 18432, Note_on_c, 4, 48, 0
6, 18432, Note_on_c, 4, 40, 100
6, 18624, Note_on_c, 4, 40, 0
6, 18624, Note_on_c, 4, 45, 100
6, 18816, Note_on_c, 4, 45, 0
6, 18816, Note_on_c, 4, 48, 100
6, 19008, Note_on_c, 4, 48, 0
6, 19008, Note_on_c, 4, 47, 100
6, 19200, Note_on_c, 4, 47, 0
6, 19200, Note_on_c, 4, 45, 100
6, 19392, Note_on_c, 4, 45, 0
6, 19392, Note_on_c, 4, 47, 100
6, 19584, Note_on_c, 4, 47, 0
6, 19584, Note_on_c, 4, 44, 100
6, 19776, Note_on_c, 4, 44, 0
6, 19776, Note_on_c, 4, 45, 100
6, 19968, Note_on_c, 4, 45, 0
6, 19968, Note_on_c, 4, 47, 100
6, 20160, Note_on_c, 4, 47, 0
6, 20160, Note_on_c, 4, 40, 100
6, 20352, Note_on_c, 4, 40, 0
6, 20352, Note_on_c, 4, 47, 100
6, 20544, Note_on_c, 4, 47, 0
6, 20544, Note_on_c, 4, 50, 100
6, 20736, Note_on_c, 4, 50, 0
6, 20736, Note_on_c, 4, 48, 100
6, 20928, Note_on_c, 4, 48, 0
6, 20928, Note_on_c, 4, 47, 100
6, 21120, Note_on_c, 4, 47, 0
6, 21120, Note_on_c, 4, 48, 100
6, 21312, Note_on_c, 4, 48, 0
6, 21312, Note_on_c, 4, 45, 100
6, 21504, Note_on_c, 4, 45, 0
6, 21504, Note_on_c, 4, 48, 100
6, 21696, Note_on_c, 4, 48, 0
6, 21696, Note_on_c, 4, 52, 100
6, 21888, Note_on_c, 4, 52, 0
6, 21888, Note_on_c, 4, 55, 100
6, 22080, Note_on_c, 4, 55, 0
6, 22080, Note_on_c, 4, 53, 100
6, 22272, Note_on_c, 4, 53, 0
6, 22272, Note_on_c, 4, 52, 100
6, 22464, Note_on_c, 4, 52, 0
6, 22464, Note_on_c, 4, 53, 100
6, 23040, Note_on_c, 4, 53, 0
6, 23424, Note_on_c, 4, 50, 100
6, 23616, Note_on_c, 4, 50, 0
6, 23616, Note_on_c, 4, 52, 100
6, 24000, Note_on_c, 4, 52, 0
6, 24000, Note_on_c, 4, 54, 100
6, 24192, Note_on_c, 4, 54, 0
6, 24192, Note_on_c, 4, 55, 100
6, 24768, Note_on_c, 4, 55, 0
6, 25152, Note_on_c, 4, 43, 100
6, 25344, Note_on_c, 4, 43, 0
6, 25344, Note_on_c, 4, 45, 100
6, 25728, Note_on_c, 4, 45, 0
6, 25728, Note_on_c, 4, 47, 100
6, 25920, Note_on_c, 4, 47, 0
6, 25920, Note_on_c, 4, 48, 100
6, 26304, Note_on_c, 4, 48, 0
6, 26304, Note_on_c, 4, 50, 100
6, 26496, Note_on_c, 4, 50, 0
6, 26496, Note_on_c, 4, 52, 100
6, 26688, Note_on_c, 4, 52, 0
6, 26688, Note_on_c, 4, 50, 100
6, 26880, Note_on_c, 4, 50, 0
6, 26880, Note_on_c, 4, 48, 100
6, 27072, Note_on_c, 4, 48, 0
6, 27072, Note_on_c, 4, 55, 100
6, 27456, Note_on_c, 4, 55, 0
6, 27456, Note_on_c, 4, 55, 100
6, 27648, Note_on_c, 4, 55, 0
6, 27648, Note_on_c, 4, 55, 100
6, 27840, Note_on_c, 4, 55, 0
6, 27840, Note_on_c, 4, 53, 100
6, 28032, Note_on_c, 4, 53, 0
6, 28032, Note_on_c, 4, 55, 100
6, 28224, Note_on_c, 4, 55, 0
6, 28224, Note_on_c, 4, 52, 100
6, 28416, Note_on_c, 4, 52, 0
6, 28416, Note_on_c, 4, 50, 100
6, 28608, Note_on_c, 4, 50, 0
6, 28608, Note_on_c, 4, 48, 100
6, 28800, Note_on_c, 4, 48, 0
6, 28800, Note_on_c, 4, 55, 100
6, 29184, Note_on_c, 4, 55, 0
6, 29184, Note_on_c, 4, 55, 100
6, 29376, Note_on_c, 4, 55, 0
6, 29376, Note_on_c, 4, 55, 100
6, 29760, Note_on_c, 4, 55, 0
6, 29760, Note_on_c, 4, 55, 100
6, 29952, Note_on_c, 4, 55, 0
6, 29952, Note_on_c, 4, 55, 100
6, 30336, Note_on_c, 4, 55, 0
6, 30336, Note_on_c, 4, 55, 100
6, 30528, Note_on_c, 4, 55, 0
6, 30528, Note_on_c, 4, 55, 100
6, 30912, Note_on_c, 4, 55, 0
6, 30912, Note_on_c, 4, 55, 100
6, 31104, Note_on_c, 4, 55, 0
6, 31104, Note_on_c, 4, 48, 100
6, 31488, Note_on_c, 4, 48, 0
6, 32064, Note_on_c, 4, 50, 100
6, 32256, Note_on_c, 4, 50, 0
6, 32256, Note_on_c, 4, 52, 100
6, 32640, Note_on_c, 4, 52, 0
6, 32640, Note_on_c, 4, 53, 100
6, 32832, Note_on_c, 4, 53, 0
6, 32832, Note_on_c, 4, 44, 100
6, 33216, Note_on_c, 4, 44, 0
6, 33792, Note_on_c, 4, 40, 100
6, 33984, Note_on_c, 4, 40, 0
6, 33984, Note_on_c, 4, 42, 100
6, 34368, Note_on_c, 4, 42, 0
6, 34368, Note_on_c, 4, 44, 100
6, 34560, Note_on_c, 4, 44, 0
6, 34560, Note_on_c, 4, 45, 100
6, 35136, Note_on_c, 4, 45, 0
6, 35520, Note_on_c, 4, 57, 100
6, 35712, Note_on_c, 4, 57, 0
6, 35712, Note_on_c, 4, 59, 100
6, 36096, Note_on_c, 4, 59, 0
6, 36096, Note_on_c, 4, 61, 100
6, 36288, Note_on_c, 4, 61, 0
6, 36288, Note_on_c, 4, 62, 100
6, 36672, Note_on_c, 4, 62, 0
6, 36672, Note_on_c, 4, 50, 100
6, 36864, Note_on_c, 4, 50, 0
6, 36864, Note_on_c, 4, 50, 100
6, 37248, Note_on_c, 4, 50, 0
6, 37248, Note_on_c, 4, 62, 100
6, 37440, Note_on_c, 4, 62, 0
6, 37440, Note_on_c, 4, 62, 100
6, 37632, Note_on_c, 4, 62, 0
6, 37632, Note_on_c, 4, 61, 100
6, 37824, Note_on_c, 4, 61, 0
6, 37824, Note_on_c, 4, 62, 100
6, 38016, Note_on_c, 4, 62, 0
6, 38016, Note_on_c, 4, 60, 100
6, 38400, Note_on_c, 4, 60, 0
6, 38400, Note_on_c, 4, 48, 100
6, 38592, Note_on_c, 4, 48, 0
6, 38592, Note_on_c, 4, 48, 100
6, 38976, Note_on_c, 4, 48, 0
6, 38976, Note_on_c, 4, 60, 100
6, 39168, Note_on_c, 4, 60, 0
6, 39168, Note_on_c, 4, 60, 100
6, 39360, Note_on_c, 4, 60, 0
6, 39360, Note_on_c, 4, 59, 100
6, 39552, Note_on_c, 4, 59, 0
6, 39552, Note_on_c, 4, 60, 100
6, 39744, Note_on_c, 4, 60, 0
6, 39744, Note_on_c, 4, 59, 100
6, 39936, Note_on_c, 4, 59, 0
6, 39936, Note_on_c, 4, 57, 100
6, 40128, Note_on_c, 4, 57, 0
6, 40128, Note_on_c, 4, 59, 100
6, 40320, Note_on_c, 4, 59, 0
6, 40320, Note_on_c, 4, 56, 100
6, 40512, Note_on_c, 4, 56, 0
6, 40512, Note_on_c, 4, 57, 100
6, 40704, Note_on_c, 4, 57, 0
6, 40704, Note_on_c, 4, 59, 100
6, 40896, Note_on_c, 4, 59, 0
6, 40896, Note_on_c, 4, 52, 100
6, 41088, Note_on_c, 4, 52, 0
6, 41088, Note_on_c, 4, 56, 100
6, 41280, Note_on_c, 4, 56, 0
6, 41280, Note_on_c, 4, 59, 100
6, 41472, Note_on_c, 4, 59, 0
6, 41472, Note_on_c, 4, 48, 100
6, 42240, Note_on_c, 4, 48, 0
6, 42432, Note_on_c, 4, 50, 100
6, 42624, Note_on_c, 4, 50, 0
6, 42624, Note_on_c, 4, 52, 100
6, 43008, Note_on_c, 4, 52, 0
6, 43008, Note_on_c, 4, 40, 100
6, 43200, Note_on_c, 4, 40, 0
6, 43200, Note_on_c, 4, 45, 100
6, 43776, Note_on_c, 4, 45, 0
6, 43776, Note_on_c, 4, 48, 100
6, 44352, Note_on_c, 4, 48, 0
6, 44352, Note_on_c, 4, 45, 100
6, 44928, Note_on_c, 4, 45, 0
6, 44928, Note_on_c, 4, 52, 100
6, 45504, Note_on_c, 4, 52, 0
6, 45504, Note_on_c, 4, 40, 100
6, 46080, Note_on_c, 4, 40, 0
6, 46656, Note_on_c, 4, 52, 100
6, 47232, Note_on_c, 4, 52, 0
6, 47232, Note_on_c, 4, 56, 100
6, 47808, Note_on_c, 4, 56, 0
6, 47808, Note_on_c, 4, 52, 100
6, 48384, Note_on_c, 4, 52, 0
6, 48384, Note_on_c, 4, 57, 100
6, 48960, Note_on_c, 4, 57, 0
6, 48960, Note_on_c, 4, 45, 100
6, 49536, Note_on_c, 4, 45, 0
6, 50112, Note_on_c, 4, 50, 100
6, 50688, Note_on_c, 4, 50, 0
6, 51264, Note_on_c, 4, 50, 100
6, 51840, Note_on_c, 4, 50, 0
6, 51840, Note_on_c, 4, 48, 100
6, 52416, Note_on_c, 4, 48, 0
6, 52992, Note_on_c, 4, 48, 100
6, 53568, Note_on_c, 4, 48, 0
6, 53568, Note_on_c, 4, 47, 100
6, 54144, Note_on_c, 4, 47, 0
6, 54528, Note_on_c, 4, 48, 100
6, 54720, Note_on_c, 4, 48, 0
6, 54720, Note_on_c, 4, 47, 100
6, 55104, Note_on_c, 4, 47, 0
6, 55104, Note_on_c, 4, 45, 100
6, 55296, Note_on_c, 4, 45, 0
6, 55296, Note_on_c, 4, 44, 100
6, 55872, Note_on_c, 4, 44, 0
6, 56256, Note_on_c, 4, 56, 100
6, 56448, Note_on_c, 4, 56, 0
6, 56448, Note_on_c, 4, 52, 100
6, 56832, Note_on_c, 4, 52, 0
6, 56832, Note_on_c, 4, 56, 100
6, 57024, Note_on_c, 4, 56, 0
6, 57024, Note_on_c, 4, 57, 100
6, 57600, Note_on_c, 4, 57, 0
6, 58176, Note_on_c, 4, 55, 100
6, 58752, Note_on_c, 4, 55, 0
6, 58752, Note_on_c, 4, 54, 100
6, 59328, Note_on_c, 4, 54, 0
6, 59712, Note_on_c, 4, 50, 100
6, 59904, Note_on_c, 4, 50, 0
6, 59904, Note_on_c, 4, 52, 100
6, 60288, Note_on_c, 4, 52, 0
6, 60288, Note_on_c, 4, 54, 100
6, 60480, Note_on_c, 4, 54, 0
6, 60480, Note_on_c, 4, 55, 100
6, 61056, Note_on_c, 4, 55, 0
6, 61632, Note_on_c, 4, 54, 100
6, 62208, Note_on_c, 4, 54, 0
6, 62208, Note_on_c, 4, 52, 100
6, 62784, Note_on_c, 4, 52, 0
6, 63168, Note_on_c, 4, 48, 100
6, 63360, Note_on_c, 4, 48, 0
6, 63360, Note_on_c, 4, 50, 100
6, 63744, Note_on_c, 4, 50, 0
6, 63744, Note_on_c, 4, 52, 100
6, 63936, Note_on_c, 4, 52, 0
6, 63936, Note_on_c, 4, 54, 100
6, 64512, Note_on_c, 4, 54, 0
6, 65088, Note_on_c, 4, 52, 100
6, 65664, Note_on_c, 4, 52, 0
6, 65664, Note_on_c, 4, 51, 100
6, 66240, Note_on_c, 4, 51, 0
6, 66624, Note_on_c, 4, 47, 100
6, 66816, Note_on_c, 4, 47, 0
6, 66816, Note_on_c, 4, 49, 100
6, 67200, Note_on_c, 4, 49, 0
6, 67200, Note_on_c, 4, 51, 100
6, 67392, Note_on_c, 4, 51, 0
6, 67392, Note_on_c, 4, 52, 100
6, 67968, Note_on_c, 4, 52, 0
6, 68352, Note_on_c, 4, 55, 100
6, 68544, Note_on_c, 4, 55, 0
6, 68544, Note_on_c, 4, 55, 100
6, 68736, Note_on_c, 4, 55, 0
6, 68736, Note_on_c, 4, 54, 100
6, 68928, Note_on_c, 4, 54, 0
6, 68928, Note_on_c, 4, 55, 100
6, 69120, Note_on_c, 4, 55, 0
6, 69120, Note_on_c, 4, 48, 100
6, 69696, Note_on_c, 4, 48, 0
6, 70080, Note_on_c, 4, 60, 100
6, 70272, Note_on_c, 4, 60, 0
6, 70272, Note_on_c, 4, 60, 100
6, 70464, Note_on_c, 4, 60, 0
6, 70464, Note_on_c, 4, 59, 100
6, 70656, Note_on_c, 4, 59, 0
6, 70656, Note_on_c, 4, 60, 100
6, 70848, Note_on_c, 4, 60, 0
6, 70848, Note_on_c, 4, 55, 100
6, 71424, Note_on_c, 4, 55, 0
6, 71808, Note_on_c, 4, 52, 100
6, 72000, Note_on_c, 4, 52, 0
6, 72000, Note_on_c, 4, 57, 100
6, 72384, Note_on_c, 4, 57, 0
6, 72384, Note_on_c, 4, 54, 100
6, 72576, Note_on_c, 4, 54, 0
6, 72576, Note_on_c, 4, 59, 100
6, 73152, Note_on_c, 4, 59, 0
6, 73536, Note_on_c, 4, 51, 100
6, 73728, Note_on_c, 4, 51, 0
6, 73728, Note_on_c, 4, 47, 100
6, 74112, Note_on_c, 4, 47, 0
6, 74112, Note_on_c, 4, 51, 100
6, 74304, Note_on_c, 4, 51, 0
6, 74304, Note_on_c, 4, 52, 100
6, 74688, Note_on_c, 4, 52, 0
6, 74688, Note_on_c, 4, 54, 100
6, 74880, Note_on_c, 4, 54, 0
6, 74880, Note_on_c, 4, 55, 100
6, 75264, Note_on_c, 4, 55, 0
6, 75264, Note_on_c, 4, 57, 100
6, 75456, Note_on_c, 4, 57, 0
6, 75456, Note_on_c, 4, 59, 100
6, 75840, Note_on_c, 4, 59, 0
6, 75840, Note_on_c, 4, 47, 100
6, 76032, Note_on_c, 4, 47, 0
6, 76032, Note_on_c, 4, 52, 100
6, 76608, Note_on_c, 4, 52, 0
6, 76608, Note_on_c, 4, 40, 100
6, 77184, Note_on_c, 4, 40, 0
6, 77184, Note_on_c, 4, 52, 100
6, 77760, Note_on_c, 4, 52, 0
6, 77760, Note_on_c, 4, 51, 100
6, 78336, Note_on_c, 4, 51, 0
6, 78336, Note_on_c, 4, 47, 100
6, 78912, Note_on_c, 4, 47, 0
6, 78912, Note_on_c, 4, 51, 100
6, 79488, Note_on_c, 4, 51, 0
6, 79488, Note_on_c, 4, 52, 100
6, 80064, Note_on_c, 4, 52, 0
6, 80064, Note_on_c, 4, 55, 100
6, 80640, Note_on_c, 4, 55, 0
6, 80640, Note_on_c, 4, 52, 100
6, 81216, Note_on_c, 4, 52, 0
6, 81216, Note_on_c, 4, 59, 100
6, 81792, Note_on_c, 4, 59, 0
6, 81792, Note_on_c, 4, 47, 100
6, 82368, Note_on_c, 4, 47, 0
6, 82944, Note_on_c, 4, 59, 100
6, 83520, Note_on_c, 4, 59, 0
6, 83520, Note_on_c, 4, 63, 100
6, 84096, Note_on_c, 4, 63, 0
6, 84096, Note_on_c, 4, 59, 100
6, 84672, Note_on_c, 4, 59, 0
6, 84672, Note_on_c, 4, 64, 100
6, 85248, Note_on_c, 4, 64, 0
6, 85248, Note_on_c, 4, 52, 100
6, 85824, Note_on_c, 4, 52, 0
6, 86400, Note_on_c, 4, 57, 100
6, 86976, Note_on_c, 4, 57, 0
6, 87552, Note_on_c, 4, 57, 100
6, 88128, Note_on_c, 4, 57, 0
6, 88128, Note_on_c, 4, 55, 100
6, 88704, Note_on_c, 4, 55, 0
6, 89280, Note_on_c, 4, 55, 100
6, 89856, Note_on_c, 4, 55, 0
6, 89856, Note_on_c, 4, 54, 100
6, 90432, Note_on_c, 4, 54, 0
6, 90816, Note_on_c, 4, 55, 100
6, 91008, Note_on_c, 4, 55, 0
6, 91008, Note_on_c, 4, 57, 100
6, 91392, Note_on_c, 4, 57, 0
6, 91392, Note_on_c, 4, 54, 100
6, 91584, Note_on_c, 4, 54, 0
6, 91584, Note_on_c, 4, 51, 100
6, 92160, Note_on_c, 4, 51, 0
6, 92544, Note_on_c, 4, 51, 100
6, 92736, Note_on_c, 4, 51, 0
6, 92736, Note_on_c, 4, 47, 100
6, 93120, Note_on_c, 4, 47, 0
6, 93120, Note_on_c, 4, 51, 100
6, 93312, Note_on_c, 4, 51, 0
6, 93312, Note_on_c, 4, 52, 100
6, 93888, Note_on_c, 4, 52, 0
6, 94464, Note_on_c, 4, 50, 100
6, 95040, Note_on_c, 4, 50, 0
6, 95040, Note_on_c, 4, 49, 100
6, 95616, Note_on_c, 4, 49, 0
6, 96000, Note_on_c, 4, 45, 100
6, 96192, Note_on_c, 4, 45, 0
6, 96192, Note_on_c, 4, 47, 100
6, 96576, Note_on_c, 4, 47, 0
6, 96576, Note_on_c, 4, 49, 100
6, 96768, Note_on_c, 4, 49, 0
6, 96768, Note_on_c, 4, 50, 100
6, 97344, Note_on_c, 4, 50, 0
6, 97920, Note_on_c, 4, 48, 100
6, 98496, Note_on_c, 4, 48, 0
6, 98496, Note_on_c, 4, 47, 100
6, 99072, Note_on_c, 4, 47, 0
6, 99456, Note_on_c, 4, 43, 100
6, 99648, Note_on_c, 4, 43, 0
6, 99648, Note_on_c, 4, 45, 100
6, 100032, Note_on_c, 4, 45, 0
6, 100032, Note_on_c, 4, 47, 100
6, 100224, Note_on_c, 4, 47, 0
6, 100224, Note_on_c, 4, 48, 100
6, 100800, Note_on_c, 4, 48, 0
6, 101184, Note_on_c, 4, 50, 100
6, 101376, Note_on_c, 4, 50, 0
6, 101376, Note_on_c, 4, 52, 100
6, 101568, Note_on_c, 4, 52, 0
6, 101568, Note_on_c, 4, 50, 100
6, 101760, Note_on_c, 4, 50, 0
6, 101760, Note_on_c, 4, 52, 100
6, 101952, Note_on_c, 4, 52, 0
6, 101952, Note_on_c, 4, 45, 100
6, 102528, Note_on_c, 4, 45, 0
6, 102912, Note_on_c, 4, 55, 100
6, 103104, Note_on_c, 4, 55, 0
6, 103104, Note_on_c, 4, 57, 100
6, 103296, Note_on_c, 4, 57, 0
6, 103296, Note_on_c, 4, 55, 100
6, 103488, Note_on_c, 4, 55, 0
6, 103488, Note_on_c, 4, 57, 100
6, 103680, Note_on_c, 4, 57, 0
6, 103680, Note_on_c, 4, 52, 100
6, 104256, Note_on_c, 4, 52, 0
6, 104832, Note_on_c, 4, 55, 100
6, 105408, Note_on_c, 4, 55, 0
6, 105408, Note_on_c, 4, 60, 100
6, 105984, Note_on_c, 4, 60, 0
6, 106560, Note_on_c, 4, 48, 100
6, 107136, Note_on_c, 4, 48, 0
6, 107136, Note_on_c, 4, 55, 100
6, 107712, Note_on_c, 4, 55, 0
6, 108288, Note_on_c, 4, 43, 100
6, 108864, Note_on_c, 4, 43, 0
6, 108864, Note_on_c, 4, 48, 100
6, 109440, Note_on_c, 4, 48, 0
6, 109440, Note_on_c, 4, 47, 100
6, 110016, Note_on_c, 4, 47, 0
6, 110016, Note_on_c, 4, 45, 100
6, 110592, Note_on_c, 4, 45, 0
6, 110592, Note_on_c, 4, 43, 100
6, 111168, Note_on_c, 4, 43, 0
6, 111168, Note_on_c, 4, 47, 100
6, 111744, Note_on_c, 4, 47, 0
6, 111744, Note_on_c, 4, 50, 100
6, 112320, Note_on_c, 4, 50, 0
6, 112320, Note_on_c, 4, 55, 100
6, 112896, Note_on_c, 4, 55, 0
6, 113472, Note_on_c, 4, 43, 100
6, 114048, Note_on_c, 4, 43, 0
6, 114048, Note_on_c, 4, 38, 100
6, 114624, Note_on_c, 4, 38, 0
6, 115200, Note_on_c, 4, 50, 100
6, 115776, Note_on_c, 4, 50, 0
6, 115776, Note_on_c, 4, 55, 100
6, 116352, Note_on_c, 4, 55, 0
6, 116352, Note_on_c, 4, 53, 100
6, 116928, Note_on_c, 4, 53, 0
6, 116928, Note_on_c, 4, 52, 100
6, 117504, Note_on_c, 4, 52, 0
6, 117504, Note_on_c, 4, 50, 100
6, 118080, Note_on_c, 4, 50, 0
6, 118080, Note_on_c, 4, 48, 100
6, 118656, Note_on_c, 4, 48, 0
6, 118656, Note_on_c, 4, 47, 100
6, 119232, Note_on_c, 4, 47, 0
6, 119232, Note_on_c, 4, 45, 100
6, 119808, Note_on_c, 4, 45, 0
6, 119808, Note_on_c, 4, 57, 100
6, 120384, Note_on_c, 4, 57, 0
6, 120384, Note_on_c, 4, 59, 100
6, 120960, Note_on_c, 4, 59, 0
6, 120960, Note_on_c, 4, 60, 100
6, 121536, Note_on_c, 4, 60, 0
6, 121536, Note_on_c, 4, 48, 100
6, 122112, Note_on_c, 4, 48, 0
6, 122112, Note_on_c, 4, 60, 100
6, 122688, Note_on_c, 4, 60, 0
6, 122688, Note_on_c, 4, 59, 100
6, 123264, Note_on_c, 4, 59, 0
6, 123264, Note_on_c, 4, 55, 100
6, 123840, Note_on_c, 4, 55, 0
6, 123840, Note_on_c, 4, 59, 100
6, 124416, Note_on_c, 4, 59, 0
6, 124416, Note_on_c, 4, 60, 100
6, 124992, Note_on_c, 4, 60, 0
6, 126720, Note_on_c, 4, 57, 100
6, 127104, Note_on_c, 4, 57, 0
6, 127104, Note_on_c, 4, 52, 100
6, 127296, Note_on_c, 4, 52, 0
6, 127296, Note_on_c, 4, 49, 100
6, 127680, Note_on_c, 4, 49, 0
6, 127680, Note_on_c, 4, 45, 100
6, 127872, Note_on_c, 4, 45, 0
6, 127872, Note_on_c, 4, 50, 100
6, 128256, Note_on_c, 4, 50, 0
6, 130176, Note_on_c, 4, 59, 100
6, 130560, Note_on_c, 4, 59, 0
6, 130560, Note_on_c, 4, 54, 100
6, 130752, Note_on_c, 4, 54, 0
6, 130752, Note_on_c, 4, 51, 100
6, 131136, Note_on_c, 4, 51, 0
6, 131136, Note_on_c, 4, 47, 100
6, 131328, Note_on_c, 4, 47, 0
6, 131328, Note_on_c, 4, 52, 100
6, 131712, Note_on_c, 4, 52, 0
6, 133632, Note_on_c, 4, 60, 100
6, 134016, Note_on_c, 4, 60, 0
6, 134016, Note_on_c, 4, 55, 100
6, 134208, Note_on_c, 4, 55, 0
6, 134208, Note_on_c, 4, 52, 100
6, 134592, Note_on_c, 4, 52, 0
6, 134592, Note_on_c, 4, 48, 100
6, 134784, Note_on_c, 4, 48, 0
6, 134784, Note_on_c, 4, 53, 100
6, 135168, Note_on_c, 4, 53, 0
6, 137088, Note_on_c, 4, 62, 100
6, 137472, Note_on_c, 4, 62, 0
6, 137472, Note_on_c, 4, 57, 100
6, 137664, Note_on_c, 4, 57, 0
6, 137664, Note_on_c, 4, 54, 100
6, 138048, Note_on_c, 4, 54, 0
6, 138048, Note_on_c, 4, 50, 100
6, 138240, Note_on_c, 4, 50, 0
6, 138240, Note_on_c, 4, 55, 100
6, 138624, Note_on_c, 4, 55, 0
6, 140544, Note_on_c, 4, 64, 100
6, 140928, Note_on_c, 4, 64, 0
6, 140928, Note_on_c, 4, 59, 100
6, 141120, Note_on_c, 4, 59, 0
6, 141120, Note_on_c, 4, 56, 100
6, 141504, Note_on_c, 4, 56, 0
6, 141504, Note_on_c, 4, 52, 100
6, 141696, Note_on_c, 4, 52, 0
6, 141696, Note_on_c, 4, 57, 100
6, 142272, Note_on_c, 4, 57, 0
6, 142848, Note_on_c, 4, 45, 100
6, 143424, Note_on_c, 4, 45, 0
6, 143424, Note_on_c, 4, 50, 100
6, 144000, Note_on_c, 4, 50, 0
6, 144576, Note_on_c, 4, 62, 100
6, 145152, Note_on_c, 4, 62, 0
6, 145152, Note_on_c, 4, 55, 100
6, 145728, Note_on_c, 4, 55, 0
6, 146304, Note_on_c, 4, 43, 100
6, 146880, Note_on_c, 4, 43, 0
6, 146880, Note_on_c, 4, 48, 100
6, 147456, Note_on_c, 4, 48, 0
6, 148032, Note_on_c, 4, 60, 100
6, 148608, Note_on_c, 4, 60, 0
6, 148608, Note_on_c, 4, 53, 100
6, 149184, Note_on_c, 4, 53, 0
6, 149760, Note_on_c, 4, 53, 100
6, 150336, Note_on_c, 4, 53, 0
6, 150336, Note_on_c, 4, 47, 100
6, 150912, Note_on_c, 4, 47, 0
6, 151488, Note_on_c, 4, 47, 100
6, 152064, Note_on_c, 4, 47, 0
6, 152064, Note_on_c, 4, 40, 100
6, 155904, Note_on_c, 4, 40, 0
6, 155904, Note_on_c, 4, 59, 100
6, 156096, Note_on_c, 4, 59, 0
6, 156096, Note_on_c, 4, 64, 100
6, 156288, Note_on_c, 4, 64, 0
6, 156288, Note_on_c, 4, 62, 100
6, 156480, Note_on_c, 4, 62, 0
6, 156480, Note_on_c, 4, 60, 100
6, 156672, Note_on_c, 4, 60, 0
6, 156672, Note_on_c, 4, 59, 100
6, 156864, Note_on_c, 4, 59, 0
6, 156864, Note_on_c, 4, 60, 100
6, 157056, Note_on_c, 4, 60, 0
6, 157056, Note_on_c, 4, 62, 100
6, 157248, Note_on_c, 4, 62, 0
6, 157248, Note_on_c, 4, 60, 100
6, 157824, Note_on_c, 4, 60, 0
6, 157824, Note_on_c, 4, 48, 100
6, 158400, Note_on_c, 4, 48, 0
6, 158400, Note_on_c, 4, 52, 100
6, 158976, Note_on_c, 4, 52, 0
6, 158976, Note_on_c, 4, 57, 100
6, 159552, Note_on_c, 4, 57, 0
6, 159552, Note_on_c, 4, 45, 100
6, 160128, Note_on_c, 4, 45, 0
6, 160128, Note_on_c, 4, 57, 100
6, 160704, Note_on_c, 4, 57, 0
6, 160704, Note_on_c, 4, 56, 100
6, 161280, Note_on_c, 4, 56, 0
6, 161280, Note_on_c, 4, 52, 100
6, 161856, Note_on_c, 4, 52, 0
6, 161856, Note_on_c, 4, 56, 100
6, 162432, Note_on_c, 4, 56, 0
6, 162432, Note_on_c, 4, 57, 100
6, 163008, Note_on_c, 4, 57, 0
6, 163008, Note_on_c, 4, 60, 100
6, 163584, Note_on_c, 4, 60, 0
6, 163584, Note_on_c, 4, 57, 100
6, 164160, Note_on_c, 4, 57, 0
6, 164160, Note_on_c, 4, 64, 100
6, 164736, Note_on_c, 4, 64, 0
6, 164736, Note_on_c, 4, 52, 100
6, 165312, Note_on_c, 4, 52, 0
6, 165888, Note_on_c, 4, 52, 100
6, 166464, Note_on_c, 4, 52, 0
6, 166464, Note_on_c, 4, 56, 100
6, 167040, Note_on_c, 4, 56, 0
6, 167040, Note_on_c, 4, 52, 100
6, 167616, Note_on_c, 4, 52, 0
6, 167616, Note_on_c, 4, 57, 100
6, 168192, Note_on_c, 4, 57, 0
6, 168192, Note_on_c, 4, 45, 100
6, 168768, Note_on_c, 4, 45, 0
6, 169344, Note_on_c, 4, 50, 100
6, 169920, Note_on_c, 4, 50, 0
6, 170496, Note_on_c, 4, 50, 100
6, 171072, Note_on_c, 4, 50, 0
6, 171072, Note_on_c, 4, 48, 100
6, 171648, Note_on_c, 4, 48, 0
6, 172224, Note_on_c, 4, 48, 100
6, 172800, Note_on_c, 4, 48, 0
6, 172800, Note_on_c, 4, 47, 100
6, 173376, Note_on_c, 4, 47, 0
6, 173760, Note_on_c, 4, 48, 100
6, 173952, Note_on_c, 4, 48, 0
6, 173952, Note_on_c, 4, 47, 100
6, 174336, Note_on_c, 4, 47, 0
6, 174336, Note_on_c, 4, 45, 100
6, 174528, Note_on_c, 4, 45, 0
6, 175680, Note_on_c, 4, 40, 100
6, 176256, Note_on_c, 4, 40, 0
6, 176256, Note_on_c, 4, 45, 100
6, 176832, Note_on_c, 4, 45, 0
6, 177408, Note_on_c, 4, 45, 100
6, 177984, Note_on_c, 4, 45, 0
6, 177984, Note_on_c, 4, 50, 100
6, 178560, Note_on_c, 4, 50, 0
6, 179136, Note_on_c, 4, 38, 100
6, 179712, Note_on_c, 4, 38, 0
6, 179712, Note_on_c, 4, 43, 100
6, 180288, Note_on_c, 4, 43, 0
6, 180864, Note_on_c, 4, 43, 100
6, 181440, Note_on_c, 4, 43, 0
6, 181440, Note_on_c, 4, 48, 100
6, 181632, Note_on_c, 4, 48, 0
6, 181632, Note_on_c, 4, 52, 100
6, 181824, Note_on_c, 4, 52, 0
6, 181824, Note_on_c, 4, 55, 100
6, 182016, Note_on_c, 4, 55, 0
6, 182016, Note_on_c, 4, 60, 100
6, 182400, Note_on_c, 4, 60, 0
6, 183168, Note_on_c, 4, 50, 100
6, 183360, Note_on_c, 4, 50, 0
6, 183360, Note_on_c, 4, 54, 100
6, 183552, Note_on_c, 4, 54, 0
6, 183552, Note_on_c, 4, 57, 100
6, 183744, Note_on_c, 4, 57, 0
6, 183744, Note_on_c, 4, 62, 100
6, 184128, Note_on_c, 4, 62, 0
6, 184896, Note_on_c, 4, 52, 100
6, 185088, Note_on_c, 4, 52, 0
6, 185088, Note_on_c, 4, 56, 100
6, 185280, Note_on_c, 4, 56, 0
6, 185280, Note_on_c, 4, 59, 100
6, 185472, Note_on_c, 4, 59, 0
6, 185472, Note_on_c, 4, 64, 100
6, 185856, Note_on_c, 4, 64, 0
6, 186624, Note_on_c, 4, 54, 100
6, 186816, Note_on_c, 4, 54, 0
6, 186816, Note_on_c, 4, 57, 100
6, 187008, Note_on_c, 4, 57, 0
6, 187008, Note_on_c, 4, 60, 100
6, 187200, Note_on_c, 4, 60, 0
6, 187200, Note_on_c, 4, 64, 100
6, 187584, Note_on_c, 4, 64, 0
6, 188352, Note_on_c, 4, 56, 100
6, 188544, Note_on_c, 4, 56, 0
6, 188544, Note_on_c, 4, 59, 100
6, 188736, Note_on_c, 4, 59, 0
6, 188736, Note_on_c, 4, 62, 100
6, 188928, Note_on_c, 4, 62, 0
6, 188928, Note_on_c, 4, 64, 100
6, 189504, Note_on_c, 4, 64, 0
6, 189888, Note_on_c, 4, 55, 100
6, 190080, Note_on_c, 4, 55, 0
6, 190080, Note_on_c, 4, 57, 100
6, 190272, Note_on_c, 4, 57, 0
6, 190272, Note_on_c, 4, 55, 100
6, 190464, Note_on_c, 4, 55, 0
6, 190464, Note_on_c, 4, 53, 100
6, 190656, Note_on_c, 4, 53, 0
6, 190656, Note_on_c, 4, 52, 100
6, 190848, Note_on_c, 4, 52, 0
6, 190848, Note_on_c, 4, 50, 100
6, 191040, Note_on_c, 4, 50, 0
6, 191040, Note_on_c, 4, 48, 100
6, 191232, Note_on_c, 4, 48, 0
6, 191232, Note_on_c, 4, 47, 100
6, 191424, Note_on_c, 4, 47, 0
6, 191424, Note_on_c, 4, 48, 100
6, 191616, Note_on_c, 4, 48, 0
6, 191616, Note_on_c, 4, 45, 100
6, 191808, Note_on_c, 4, 45, 0
6, 191808, Note_on_c, 4, 53, 100
6, 192384, Note_on_c, 4, 53, 0
6, 193344, Note_on_c, 4, 53, 100
6, 193536, Note_on_c, 4, 53, 0
6, 193536, Note_on_c, 4, 55, 100
6, 193728, Note_on_c, 4, 55, 0
6, 193728, Note_on_c, 4, 53, 100
6, 193920, Note_on_c, 4, 53, 0
6, 193920, Note_on_c, 4, 52, 100
6, 194112, Note_on_c, 4, 52, 0
6, 194112, Note_on_c, 4, 50, 100
6, 194304, Note_on_c, 4, 50, 0
6, 194304, Note_on_c, 4, 48, 100
6, 194496, Note_on_c, 4, 48, 0
6, 194496, Note_on_c, 4, 47, 100
6, 194688, Note_on_c, 4, 47, 0
6, 194688, Note_on_c, 4, 45, 100
6, 194880, Note_on_c, 4, 45, 0
6, 194880, Note_on_c, 4, 47, 100
6, 195072, Note_on_c, 4, 47, 0
6, 195072, Note_on_c, 4, 43, 100
6, 195264, Note_on_c, 4, 43, 0
6, 195264, Note_on_c, 4, 52, 100
6, 195840, Note_on_c, 4, 52, 0
6, 196800, Note_on_c, 4, 52, 100
6, 196992, Note_on_c, 4, 52, 0
6, 196992, Note_on_c, 4, 53, 100
6, 197184, Note_on_c, 4, 53, 0
6, 197184, Note_on_c, 4, 52, 100
6, 197376, Note_on_c, 4, 52, 0
6, 197376, Note_on_c, 4, 50, 100
6, 197568, Note_on_c, 4, 50, 0
6, 197568, Note_on_c, 4, 48, 100
6, 197760, Note_on_c, 4, 48, 0
6, 197760, Note_on_c, 4, 47, 100
6, 197952, Note_on_c, 4, 47, 0
6, 197952, Note_on_c, 4, 45, 100
6, 198144, Note_on_c, 4, 45, 0
6, 198144, Note_on_c, 4, 43, 100
6, 198336, Note_on_c, 4, 43, 0
6, 198336, Note_on_c, 4, 45, 100
6, 198528, Note_on_c, 4, 45, 0
6, 198528, Note_on_c, 4, 41, 100
6, 198720, Note_on_c, 4, 41, 0
6, 198720, Note_on_c, 4, 50, 100
6, 199296, Note_on_c, 4, 50, 0
6, 200256, Note_on_c, 4, 50, 100
6, 200448, Note_on_c, 4, 50, 0
6, 200448, Note_on_c, 4, 50, 100
6, 200640, Note_on_c, 4, 50, 0
6, 200640, Note_on_c, 4, 48, 100
6, 200832, Note_on_c, 4, 48, 0
6, 200832, Note_on_c, 4, 50, 100
6, 201024, Note_on_c, 4, 50, 0
6, 201024, Note_on_c, 4, 40, 100
6, 201216, Note_on_c, 4, 40, 0
6, 201216, Note_on_c, 4, 44, 100
6, 201408, Note_on_c, 4, 44, 0
6, 201408, Note_on_c, 4, 47, 100
6, 201600, Note_on_c, 4, 47, 0
6, 201600, Note_on_c, 4, 50, 100
6, 201792, Note_on_c, 4, 50, 0
6, 201792, Note_on_c, 4, 48, 100
6, 201984, Note_on_c, 4, 48, 0
6, 201984, Note_on_c, 4, 47, 100
6, 202176, Note_on_c, 4, 47, 0
6, 202176, Note_on_c, 4, 48, 100
6, 202560, Note_on_c, 4, 48, 0
6, 202560, Note_on_c, 4, 50, 100
6, 202752, Note_on_c, 4, 50, 0
6, 202752, Note_on_c, 4, 52, 100
6, 203328, Note_on_c, 4, 52, 0
6, 203328, Note_on_c, 4, 40, 100
6, 203904, Note_on_c, 4, 40, 0
6, 203904, Note_on_c, 4, 57, 100
6, 204480, Note_on_c, 4, 57, 0
6, 204480, Note_on_c, 4, 45, 100
6, 205056, Note_on_c, 4, 45, 0
6, 205056, Note_on_c, 4, 57, 100
6, 205632, Note_on_c, 4, 57, 0
6, 205632, Note_on_c, 4, 56, 100
6, 206208, Note_on_c, 4, 56, 0
6, 206208, Note_on_c, 4, 52, 100
6, 206784, Note_on_c, 4, 52, 0
6, 206784, Note_on_c, 4, 56, 100
6, 207360, Note_on_c, 4, 56, 0
6, 207360, Note_on_c, 4, 57, 100
6, 207936, Note_on_c, 4, 57, 0
6, 207936, Note_on_c, 4, 55, 100
6, 208512, Note_on_c, 4, 55, 0
6, 208512, Note_on_c, 4, 54, 100
6, 209088, Note_on_c, 4, 54, 0
6, 209088, Note_on_c, 4, 52, 100
6, 209664, Note_on_c, 4, 52, 0
6, 209664, Note_on_c, 4, 40, 100
6, 210240, Note_on_c, 4, 40, 0
6, 210240, Note_on_c, 4, 51, 100
6, 210816, Note_on_c, 4, 51, 0
6, 210816, Note_on_c, 4, 52, 100
6, 211392, Note_on_c, 4, 52, 0
6, 211392, Note_on_c, 4, 40, 100
6, 211968, Note_on_c, 4, 40, 0
6, 211968, Note_on_c, 4, 52, 100
6, 212544, Note_on_c, 4, 52, 0
6, 212544, Note_on_c, 4, 51, 100
6, 213120, Note_on_c, 4, 51, 0
6, 213120, Note_on_c, 4, 47, 100
6, 213696, Note_on_c, 4, 47, 0
6, 213696, Note_on_c, 4, 51, 100
6, 214272, Note_on_c, 4, 51, 0
6, 214272, Note_on_c, 4, 52, 100
6, 214848, Note_on_c, 4, 52, 0
6, 215808, Note_on_c, 4, 52, 100
6, 216000, Note_on_c, 4, 52, 0
6, 216000, Note_on_c, 4, 57, 100
6, 216192, Note_on_c, 4, 57, 0
6, 216192, Note_on_c, 4, 55, 100
6, 216384, Note_on_c, 4, 55, 0
6, 216384, Note_on_c, 4, 53, 100
6, 216576, Note_on_c, 4, 53, 0
6, 216576, Note_on_c, 4, 52, 100
6, 216768, Note_on_c, 4, 52, 0
6, 216768, Note_on_c, 4, 50, 100
6, 216960, Note_on_c, 4, 50, 0
6, 216960, Note_on_c, 4, 48, 100
6, 217152, Note_on_c, 4, 48, 0
6, 217152, Note_on_c, 4, 47, 100
6, 217344, Note_on_c, 4, 47, 0
6, 217344, Note_on_c, 4, 48, 100
6, 217536, Note_on_c, 4, 48, 0
6, 217536, Note_on_c, 4, 50, 100
6, 217728, Note_on_c, 4, 50, 0
6, 217728, Note_on_c, 4, 48, 100
6, 217920, Note_on_c, 4, 48, 0
6, 217920, Note_on_c, 4, 47, 100
6, 218112, Note_on_c, 4, 47, 0
6, 218112, Note_on_c, 4, 48, 100
6, 218304, Note_on_c, 4, 48, 0
6, 218304, Note_on_c, 4, 45, 100
6, 218496, Note_on_c, 4, 45, 0
6, 218496, Note_on_c, 4, 47, 100
6, 218688, Note_on_c, 4, 47, 0
6, 218688, Note_on_c, 4, 48, 100
6, 218880, Note_on_c, 4, 48, 0
6, 218880, Note_on_c, 4, 40, 100
6, 219072, Note_on_c, 4, 40, 0
6, 219072, Note_on_c, 4, 45, 100
6, 219264, Note_on_c, 4, 45, 0
6, 219264, Note_on_c, 4, 48, 100
6, 219456, Note_on_c, 4, 48, 0
6, 219456, Note_on_c, 4, 47, 100
6, 219648, Note_on_c, 4, 47, 0
6, 219648, Note_on_c, 4, 45, 100
6, 219840, Note_on_c, 4, 45, 0
6, 219840, Note_on_c, 4, 47, 100
6, 220032, Note_on_c, 4, 47, 0
6, 220032, Note_on_c, 4, 44, 100
6, 220224, Note_on_c, 4, 44, 0
6, 220224, Note_on_c, 4, 45, 100
6, 220416, Note_on_c, 4, 45, 0
6, 220416, Note_on_c, 4, 47, 100
6, 220608, Note_on_c, 4, 47, 0
6, 220608, Note_on_c, 4, 40, 100
6, 220800, Note_on_c, 4, 40, 0
6, 220800, Note_on_c, 4, 47, 100
6, 220992, Note_on_c, 4, 47, 0
6, 220992, Note_on_c, 4, 50, 100
6, 221184, Note_on_c, 4, 50, 0
6, 221184, Note_on_c, 4, 48, 100
6, 221376, Note_on_c, 4, 48, 0
6, 221376, Note_on_c, 4, 47, 100
6, 221568, Note_on_c, 4, 47, 0
6, 221568, Note_on_c, 4, 48, 100
6, 221760, Note_on_c, 4, 48, 0
6, 221760, Note_on_c, 4, 45, 100
6, 221952, Note_on_c, 4, 45, 0
6, 221952, Note_on_c, 4, 48, 100
6, 222144, Note_on_c, 4, 48, 0
6, 222144, Note_on_c, 4, 52, 100
6, 222336, Note_on_c, 4, 52, 0
6, 222336, Note_on_c, 4, 55, 100
6, 222528, Note_on_c, 4, 55, 0
6, 222528, Note_on_c, 4, 53, 100
6, 222720, Note_on_c, 4, 53, 0
6, 222720, Note_on_c, 4, 52, 100
6, 222912, Note_on_c, 4, 52, 0
6, 222912, Note_on_c, 4, 53, 100
6, 223488, Note_on_c, 4, 53, 0
6, 223872, Note_on_c, 4, 50, 100
6, 224064, Note_on_c, 4, 50, 0
6, 224064, Note_on_c, 4, 52, 100
6, 224448, Note_on_c, 4, 52, 0
6, 224448, Note_on_c, 4, 54, 100
6, 224640, Note_on_c, 4, 54, 0
6, 224640, Note_on_c, 4, 55, 100
6, 225216, Note_on_c, 4, 55, 0
6, 225600, Note_on_c, 4, 43, 100
6, 225792, Note_on_c, 4, 43, 0
6, 225792, Note_on_c, 4, 45, 100
6, 226176, Note_on_c, 4, 45, 0
6, 226176, Note_on_c, 4, 47, 100
6, 226368, Note_on_c, 4, 47, 0
6, 226368, Note_on_c, 4, 48, 100
6, 226752, Note_on_c, 4, 48, 0
6, 226752, Note_on_c, 4, 50, 100
6, 226944, Note_on_c, 4, 50, 0
6, 226944, Note_on_c, 4, 52, 100
6, 227136, Note_on_c, 4, 52, 0
6, 227136, Note_on_c, 4, 50, 100
6, 227328, Note_on_c, 4, 50, 0
6, 227328, Note_on_c, 4, 48, 100
6, 227520, Note_on_c, 4, 48, 0
6, 227520, Note_on_c, 4, 55, 100
6, 227904, Note_on_c, 4, 55, 0
6, 227904, Note_on_c, 4, 55, 100
6, 228096, Note_on_c, 4, 55, 0
6, 228096, Note_on_c, 4, 55, 100
6, 228288, Note_on_c, 4, 55, 0
6, 228288, Note_on_c, 4, 53, 100
6, 228480, Note_on_c, 4, 53, 0
6, 228480, Note_on_c, 4, 55, 100
6, 228672, Note_on_c, 4, 55, 0
6, 228672, Note_on_c, 4, 52, 100
6, 228864, Note_on_c, 4, 52, 0
6, 228864, Note_on_c, 4, 50, 100
6, 229056, Note_on_c, 4, 50, 0
6, 229056, Note_on_c, 4, 48, 100
6, 229248, Note_on_c, 4, 48, 0
6, 229248, Note_on_c, 4, 55, 100
6, 229632, Note_on_c, 4, 55, 0
6, 229632, Note_on_c, 4, 55, 100
6, 229824, Note_on_c, 4, 55, 0
6, 229824, Note_on_c, 4, 55, 100
6, 230208, Note_on_c, 4, 55, 0
6, 230208, Note_on_c, 4, 55, 100
6, 230400, Note_on_c, 4, 55, 0
6, 230400, Note_on_c, 4, 55, 100
6, 230784, Note_on_c, 4, 55, 0
6, 230784, Note_on_c, 4, 55, 100
6, 230976, Note_on_c, 4, 55, 0
6, 230976, Note_on_c, 4, 55, 100
6, 231360, Note_on_c, 4, 55, 0
6, 231360, Note_on_c, 4, 55, 100
6, 231552, Note_on_c, 4, 55, 0
6, 231552, Note_on_c, 4, 48, 100
6, 231936, Note_on_c, 4, 48, 0
6, 232512, Note_on_c, 4, 50, 100
6, 232704, Note_on_c, 4, 50, 0
6, 232704, Note_on_c, 4, 52, 100
6, 233088, Note_on_c, 4, 52, 0
6, 233088, Note_on_c, 4, 53, 100
6, 233280, Note_on_c, 4, 53, 0
6, 233280, Note_on_c, 4, 44, 100
6, 233664, Note_on_c, 4, 44, 0
6, 234240, Note_on_c, 4, 40, 100
6, 234432, Note_on_c, 4, 40, 0
6, 234432, Note_on_c, 4, 42, 100
6, 234816, Note_on_c, 4, 42, 0
6, 234816, Note_on_c, 4, 44, 100
6, 235008, Note_on_c, 4, 44, 0
6, 235008, Note_on_c, 4, 45, 100
6, 235584, Note_on_c, 4, 45, 0
6, 235968, Note_on_c, 4, 57, 100
6, 236160, Note_on_c, 4, 57, 0
6, 236160, Note_on_c, 4, 59, 100
6, 236544, Note_on_c, 4, 59, 0
6, 236544, Note_on_c, 4, 61, 100
6, 236736, Note_on_c, 4, 61, 0
6, 236736, Note_on_c, 4, 62, 100
6, 237120, Note_on_c, 4, 62, 0
6, 237120, Note_on_c, 4, 50, 100
6, 237312, Note_on_c, 4, 50, 0
6, 237312, Note_on_c, 4, 50, 100
6, 237696, Note_on_c, 4, 50, 0
6, 237696, Note_on_c, 4, 62, 100
6, 237888, Note_on_c, 4, 62, 0
6, 237888, Note_on_c, 4, 62, 100
6, 238080, Note_on_c, 4, 62, 0
6, 238080, Note_on_c, 4, 61, 100
6, 238272, Note_on_c, 4, 61, 0
6, 238272, Note_on_c, 4, 62, 100
6, 238464, Note_on_c, 4, 62, 0
6, 238464, Note_on_c, 4, 60, 100
6, 238848, Note_on_c, 4, 60, 0
6, 238848, Note_on_c, 4, 48, 100
6, 239040, Note_on_c, 4, 48, 0
6, 239040, Note_on_c, 4, 48, 100
6, 239424, Note_on_c, 4, 48, 0
6, 239424, Note_on_c, 4, 60, 100
6, 239616, Note_on_c, 4, 60, 0
6, 239616, Note_on_c, 4, 60, 100
6, 239808, Note_on_c, 4, 60, 0
6, 239808, Note_on_c, 4, 59, 100
6, 240000, Note_on_c, 4, 59, 0
6, 240000, Note_on_c, 4, 60, 100
6, 240192, Note_on_c, 4, 60, 0
6, 240192, Note_on_c, 4, 59, 100
6, 240384, Note_on_c, 4, 59, 0
6, 240384, Note_on_c, 4, 57, 100
6, 240576, Note_on_c, 4, 57, 0
6, 240576, Note_on_c, 4, 59, 100
6, 240768, Note_on_c, 4, 59, 0
6, 240768, Note_on_c, 4, 56, 100
6, 240960, Note_on_c, 4, 56, 0
6, 240960, Note_on_c, 4, 57, 100
6, 241152, Note_on_c, 4, 57, 0
6, 241152, Note_on_c, 4, 59, 100
6, 241344, Note_on_c, 4, 59, 0
6, 241344, Note_on_c, 4, 52, 100
6, 241536, Note_on_c, 4, 52, 0
6, 241536, Note_on_c, 4, 56, 100
6, 241728, Note_on_c, 4, 56, 0
6, 241728, Note_on_c, 4, 59, 100
6, 241920, Note_on_c, 4, 59, 0
6, 241920, Note_on_c, 4, 48, 100
6, 242880, Note_on_c, 4, 48, 0
6, 242880, Note_on_c, 4, 50, 100
6, 243072, Note_on_c, 4, 50, 0
6, 243072, Note_on_c, 4, 52, 100
6, 243456, Note_on_c, 4, 52, 0
6, 243456, Note_on_c, 4, 40, 100
6, 243648, Note_on_c, 4, 40, 0
6, 243648, Note_on_c, 4, 45, 100
6, 244800, Note_on_c, 4, 45, 0
6, 244800, End_track
7, 0, Start_track
7, 0, MIDI_port, 0
7, 0, Title_t, "Violone"
7, 0, Program_c, 5, 43
7, 0, Control_c, 5, 7, 100
7, 0, Control_c, 5, 10, 64
7, 2304, Note_on_c, 5, 45, 100
7, 2880, Note_on_c, 5, 45, 0
7, 2880, Note_on_c, 5, 44, 100
7, 3456, Note_on_c, 5, 44, 0
7, 3456, Note_on_c, 5, 45, 100
7, 4032, Note_on_c, 5, 45, 0
7, 4032, Note_on_c, 5, 33, 100
7, 4608, Note_on_c, 5, 33, 0
7, 4608, Note_on_c, 5, 45, 100
7, 5184, Note_on_c, 5, 45, 0
7, 5184, Note_on_c, 5, 44, 100
7, 5760, Note_on_c, 5, 44, 0
7, 5760, Note_on_c, 5, 40, 100
7, 6336, Note_on_c, 5, 40, 0
7, 6336, Note_on_c, 5, 44, 100
7, 6912, Note_on_c, 5, 44, 0
7, 6912, Note_on_c, 5, 45, 100
7, 7488, Note_on_c, 5, 45, 0
7, 7488, Note_on_c, 5, 43, 100
7, 8064, Note_on_c, 5, 43, 0
7, 8064, Note_on_c, 5, 42, 100
7, 8640, Note_on_c, 5, 42, 0
7, 8640, Note_on_c, 5, 40, 100
7, 9216, Note_on_c, 5, 40, 0
7, 9216, Note_on_c, 5, 28, 100
7, 9792, Note_on_c, 5, 28, 0
7, 9792, Note_on_c, 5, 39, 100
7, 10368, Note_on_c, 5, 39, 0
7, 10368, Note_on_c, 5, 40, 100
7, 10944, Note_on_c, 5, 40, 0
7, 10944, Note_on_c, 5, 28, 100
7, 11520, Note_on_c, 5, 28, 0
7, 11520, Note_on_c, 5, 40, 100
7, 12096, Note_on_c, 5, 40, 0
7, 12096, Note_on_c, 5, 39, 100
7, 12672, Note_on_c, 5, 39, 0
7, 12672, Note_on_c, 5, 35, 100
7, 13248, Note_on_c, 5, 35, 0
7, 13248, Note_on_c, 5, 39, 100
7, 13824, Note_on_c, 5, 39, 0
7, 13824, Note_on_c, 5, 40, 100
7, 14400, Note_on_c, 5, 40, 0
7, 15360, Note_on_c, 5, 40, 100
7, 15552, Note_on_c, 5, 40, 0
7, 15552, Note_on_c, 5, 45, 100
7, 15744, Note_on_c, 5, 45, 0
7, 15744, Note_on_c, 5, 43, 100
7, 15936, Note_on_c, 5, 43, 0
7, 15936, Note_on_c, 5, 41, 100
7, 16128, Note_on_c, 5, 41, 0
7, 16128, Note_on_c, 5, 40, 100
7, 16320, Note_on_c, 5, 40, 0
7, 16320, Note_on_c, 5, 38, 100
7, 16512, Note_on_c, 5, 38, 0
7, 16512, Note_on_c, 5, 36, 100
7, 16704, Note_on_c, 5, 36, 0
7, 16704, Note_on_c, 5, 35, 100
7, 16896, Note_on_c, 5, 35, 0
7, 16896, Note_on_c, 5, 36, 100
7, 17088, Note_on_c, 5, 36, 0
7, 17088, Note_on_c, 5, 38, 100
7, 17280, Note_on_c, 5, 38, 0
7, 17280, Note_on_c, 5, 36, 100
7, 17472, Note_on_c, 5, 36, 0
7, 17472, Note_on_c, 5, 35, 100
7, 17664, Note_on_c, 5, 35, 0
7, 17664, Note_on_c, 5, 36, 100
7, 17856, Note_on_c, 5, 36, 0
7, 17856, Note_on_c, 5, 33, 100
7, 18048, Note_on_c, 5, 33, 0
7, 18048, Note_on_c, 5, 35, 100
7, 18240, Note_on_c, 5, 35, 0
7, 18240, Note_on_c, 5, 36, 100
7, 18432, Note_on_c, 5, 36, 0
7, 18432, Note_on_c, 5, 28, 100
7, 18624, Note_on_c, 5, 28, 0
7, 18624, Note_on_c, 5, 33, 100
7, 18816, Note_on_c, 5, 33, 0
7, 18816, Note_on_c, 5, 36, 100
7, 19008, Note_on_c, 5, 36, 0
7, 19008, Note_on_c, 5, 35, 100
7, 19200, Note_on_c, 5, 35, 0
7, 19200, Note_on_c, 5, 33, 100
7, 19392, Note_on_c, 5, 33, 0
7, 19392, Note_on_c, 5, 35, 100
7, 19584, Note_on_c, 5, 35, 0
7, 19584, Note_on_c, 5, 32, 100
7, 19776, Note_on_c, 5, 32, 0
7, 19776, Note_on_c, 5, 33, 100
7, 19968, Note_on_c, 5, 33, 0
7, 19968, Note_on_c, 5, 35, 100
7, 20160, Note_on_c, 5, 35, 0
7, 20160, Note_on_c, 5, 28, 100
7, 20352, Note_on_c, 5, 28, 0
7, 20352, Note_on_c, 5, 35, 100
7, 20544, Note_on_c, 5, 35, 0
7, 20544, Note_on_c, 5, 38, 100
7, 20736, Note_on_c, 5, 38, 0
7, 20736, Note_on_c, 5, 36, 100
7, 20928, Note_on_c, 5, 36, 0
7, 20928, Note_on_c, 5, 35, 100
7, 21120, Note_on_c, 5, 35, 0
7, 21120, Note_on_c, 5, 36, 100
7, 21312, Note_on_c, 5, 36, 0
7, 21312, Note_on_c, 5, 33, 100
7, 21504, Note_on_c, 5, 33, 0
7, 21504, Note_on_c, 5, 36, 100
7, 21696, Note_on_c, 5, 36, 0
7, 21696, Note_on_c, 5, 40, 100
7, 21888, Note_on_c, 5, 40, 0
7, 21888, Note_on_c, 5, 43, 100
7, 22080, Note_on_c, 5, 43, 0
7, 22080, Note_on_c, 5, 41, 100
7, 22272, Note_on_c, 5, 41, 0
7, 22272, Note_on_c, 5, 40, 100
7, 22464, Note_on_c, 5, 40, 0
7, 22464, Note_on_c, 5, 41, 100
7, 23040, Note_on_c, 5, 41, 0
7, 23424, Note_on_c, 5, 38, 100
7, 23616, Note_on_c, 5, 38, 0
7, 23616, Note_on_c, 5, 40, 100
7, 24000, Note_on_c, 5, 40, 0
7, 24000, Note_on_c, 5, 42, 100
7, 24192, Note_on_c, 5, 42, 0
7, 24192, Note_on_c, 5, 43, 100
7, 24768, Note_on_c, 5, 43, 0
7, 25152, Note_on_c, 5, 31, 100
7, 25344, Note_on_c, 5, 31, 0
7, 25344, Note_on_c, 5, 33, 100
7, 25728, Note_on_c, 5, 33, 0
7, 25728, Note_on_c, 5, 35, 100
7, 25920, Note_on_c, 5, 35, 0
7, 25920, Note_on_c, 5, 36, 100
7, 26304, Note_on_c, 5, 36, 0
7, 26304, Note_on_c, 5, 38, 100
7, 26496, Note_on_c, 5, 38, 0
7, 26496, Note_on_c, 5, 40, 100
7, 26688, Note_on_c, 5, 40, 0
7, 26688, Note_on_c, 5, 38, 100
7, 26880, Note_on_c, 5, 38, 0
7, 26880, Note_on_c, 5, 36, 100
7, 27072, Note_on_c, 5, 36, 0
7, 27072, Note_on_c, 5, 43, 100
7, 27456, Note_on_c, 5, 43, 0
7, 27456, Note_on_c, 5, 43, 100
7, 27648, Note_on_c, 5, 43, 0
7, 27648, Note_on_c, 5, 43, 100
7, 27840, Note_on_c, 5, 43, 0
7, 27840, Note_on_c, 5, 41, 100
7, 28032, Note_on_c, 5, 41, 0
7, 28032, Note_on_c, 5, 43, 100
7, 28224, Note_on_c, 5, 43, 0
7, 28224, Note_on_c, 5, 40, 100
7, 28416, Note_on_c, 5, 40, 0
7, 28416, Note_on_c, 5, 38, 100
7, 28608, Note_on_c, 5, 38, 0
7, 28608, Note_on_c, 5, 36, 100
7, 28800, Note_on_c, 5, 36, 0
7, 28800, Note_on_c, 5, 43, 100
7, 29184, Note_on_c, 5, 43, 0
7, 29184, Note_on_c, 5, 43, 100
7, 29376, Note_on_c, 5, 43, 0
7, 29376, Note_on_c, 5, 43, 100
7, 29760, Note_on_c, 5, 43, 0
7, 29760, Note_on_c, 5, 43, 100
7, 29952, Note_on_c, 5, 43, 0
7, 29952, Note_on_c, 5, 43, 100
7, 30336, Note_on_c, 5, 43, 0
7, 30336, Note_on_c, 5, 43, 100
7, 30528, Note_on_c, 5, 43, 0
7, 30528, Note_on_c, 5, 43, 100
7, 30912, Note_on_c, 5, 43, 0
7, 30912, Note_on_c, 5, 43, 100
7, 31104, Note_on_c, 5, 43, 0
7, 31104, Note_on_c, 5, 36, 100
7, 31488, Note_on_c, 5, 36, 0
7, 32064, Note_on_c, 5, 38, 100
7, 32256, Note_on_c, 5, 38, 0
7, 32256, Note_on_c, 5, 40, 100
7, 32640, Note_on_c, 5, 40, 0
7, 32640, Note_on_c, 5, 41, 100
7, 32832, Note_on_c, 5, 41, 0
7, 32832, Note_on_c, 5, 32, 100
7, 33216, Note_on_c, 5, 32, 0
7, 33792, Note_on_c, 5, 28, 100
7, 33984, Note_on_c, 5, 28, 0
7, 33984, Note_on_c, 5, 30, 100
7, 34368, Note_on_c, 5, 30, 0
7, 34368, Note_on_c, 5, 32, 100
7, 34560, Note_on_c, 5, 32, 0
7, 34560, Note_on_c, 5, 33, 100
7, 35136, Note_on_c, 5, 33, 0
7, 35520, Note_on_c, 5, 45, 100
7, 35712, Note_on_c, 5, 45, 0
7, 35712, Note_on_c, 5, 47, 100
7, 36096, Note_on_c, 5, 47, 0
7, 36096, Note_on_c, 5, 49, 100
7, 36288, Note_on_c, 5, 49, 0
7, 36288, Note_on_c, 5, 50, 100
7, 36672, Note_on_c, 5, 50, 0
7, 36672, Note_on_c, 5, 38, 100
7, 36864, Note_on_c, 5, 38, 0
7, 36864, Note_on_c, 5, 38, 100
7, 37248, Note_on_c, 5, 38, 0
7, 37248, Note_on_c, 5, 50, 100
7, 37440, Note_on_c, 5, 50, 0
7, 37440, Note_on_c, 5, 50, 100
7, 37632, Note_on_c, 5, 50, 0
7, 37632, Note_on_c, 5, 49, 100
7, 37824, Note_on_c, 5, 49, 0
7, 37824, Note_on_c, 5, 50, 100
7, 38016, Note_on_c, 5, 50, 0
7, 38016, Note_on_c, 5, 48, 100
7, 38400, Note_on_c, 5, 48, 0
7, 38400, Note_on_c, 5, 36, 100
7, 38592, Note_on_c, 5, 36, 0
7, 38592, Note_on_c, 5, 36, 100
7, 38976, Note_on_c, 5, 36, 0
7, 38976, Note_on_c, 5, 48, 100
7, 39168, Note_on_c, 5, 48, 0
7, 39168, Note_on_c, 5, 48, 100
7, 39360, Note_on_c, 5, 48, 0
7, 39360, Note_on_c, 5, 47, 100
7, 39552, Note_on_c, 5, 47, 0
7, 39552, Note_on_c, 5, 48, 100
7, 39744, Note_on_c, 5, 48, 0
7, 39744, Note_on_c, 5, 47, 100
7, 39936, Note_on_c, 5, 47, 0
7, 39936, Note_on_c, 5, 45, 100
7, 40128, Note_on_c, 5, 45, 0
7, 40128, Note_on_c, 5, 47, 100
7, 40320, Note_on_c, 5, 47, 0
7, 40320, Note_on_c, 5, 44, 100
7, 40512, Note_on_c, 5, 44, 0
7, 40512, Note_on_c, 5, 45, 100
7, 40704, Note_on_c, 5, 45, 0
7, 40704, Note_on_c, 5, 47, 100
7, 40896, Note_on_c, 5, 47, 0
7, 40896, Note_on_c, 5, 40, 100
7, 41088, Note_on_c, 5, 40, 0
7, 41088, Note_on_c, 5, 44, 100
7, 41280, Note_on_c, 5, 44, 0
7, 41280, Note_on_c, 5, 47, 100
7, 41472, Note_on_c, 5, 47, 0
7, 41472, Note_on_c, 5, 36, 100
7, 42240, Note_on_c, 5, 36, 0
7, 42432, Note_on_c, 5, 38, 100
7, 42624, Note_on_c, 5, 38, 0
7, 42624, Note_on_c, 5, 40, 100
7, 43008, Note_on_c, 5, 40, 0
7, 43008, Note_on_c, 5, 28, 100
7, 43200, Note_on_c, 5, 28, 0
7, 43200, Note_on_c, 5, 33, 100
7, 43776, Note_on_c, 5, 33, 0
7, 43776, Note_on_c, 5, 36, 100
7, 44352, Note_on_c, 5, 36, 0
7, 44352, Note_on_c, 5, 33, 100
7, 44928, Note_on_c, 5, 33, 0
7, 44928, Note_on_c, 5, 40, 100
7, 45504, Note_on_c, 5, 40, 0
7, 45504, Note_on_c, 5, 28, 100
7, 46080, Note_on_c, 5, 28, 0
7, 46656, Note_on_c, 5, 40, 100
7, 47232, Note_on_c, 5, 40, 0
7, 47232, Note_on_c, 5, 44, 100
7, 47808, Note_on_c, 5, 44, 0
7, 47808, Note_on_c, 5, 40, 100
7, 48384, Note_on_c, 5, 40, 0
7, 48384, Note_on_c, 5, 45, 100
7, 48960, Note_on_c, 5, 45, 0
7, 48960, Note_on_c, 5, 33, 100
7, 49536, Note_on_c, 5, 33, 0
7, 50112, Note_on_c, 5, 38, 100
7, 50688, Note_on_c, 5, 38, 0
7, 51264, Note_on_c, 5, 38, 100
7, 51840, Note_on_c, 5, 38, 0
7, 51840, Note_on_c, 5, 36, 100
7, 52416, Note_on_c, 5, 36, 0
7, 52992, Note_on_c, 5, 36, 100
7, 53568, Note_on_c, 5, 36, 0
7, 53568, Note_on_c, 5, 35, 100
7, 54144, Note_on_c, 5, 35, 0
7, 54528, Note_on_c, 5, 36, 100
7, 54720, Note_on_c, 5, 36, 0
7, 54720, Note_on_c, 5, 35, 100
7, 55104, Note_on_c, 5, 35, 0
7, 55104, Note_on_c, 5, 33, 100
7, 55296, Note_on_c, 5, 33, 0
7, 55296, Note_on_c, 5, 32, 100
7, 55872, Note_on_c, 5, 32, 0
7, 56256, Note_on_c, 5, 44, 100
7, 56448, Note_on_c, 5, 44, 0
7, 56448, Note_on_c, 5, 40, 100
7, 56832, Note_on_c, 5, 40, 0
7, 56832, Note_on_c, 5, 44, 100
7, 57024, Note_on_c, 5, 44, 0
7, 57024, Note_on_c, 5, 45, 100
7, 57600, Note_on_c, 5, 45, 0
7, 58176, Note_on_c, 5, 43, 100
7, 58752, Note_on_c, 5, 43, 0
7, 58752, Note_on_c, 5, 42, 100
7, 59328, Note_on_c, 5, 42, 0
7, 59712, Note_on_c, 5, 38, 100
7, 59904, Note_on_c, 5, 38, 0
7, 59904, Note_on_c, 5, 40, 100
7, 60288, Note_on_c, 5, 40, 0
7, 60288, Note_on_c, 5, 42, 100
7, 60480, Note_on_c, 5, 42, 0
7, 60480, Note_on_c, 5, 43, 100
7, 61056, Note_on_c, 5, 43, 0
7, 61632, Note_on_c, 5, 42, 100
7, 62208, Note_on_c, 5, 42, 0
7, 62208, Note_on_c, 5, 40, 100
7, 62784, Note_on_c, 5, 40, 0
7, 63168, Note_on_c, 5, 36, 100
7, 63360, Note_on_c, 5, 36, 0
7, 63360, Note_on_c, 5, 38, 100
7, 63744, Note_on_c, 5, 38, 0
7, 63744, Note_on_c, 5, 40, 100
7, 63936, Note_on_c, 5, 40, 0
7, 63936, Note_on_c, 5, 42, 100
7, 64512, Note_on_c, 5, 42, 0
7, 65088, Note_on_c, 5, 40, 100
7, 65664, Note_on_c, 5, 40, 0
7, 65664, Note_on_c, 5, 39, 100
7, 66240, Note_on_c, 5, 39, 0
7, 66624, Note_on_c, 5, 35, 100
7, 66816, Note_on_c, 5, 35, 0
7, 66816, Note_on_c, 5, 37, 100
7, 67200, Note_on_c, 5, 37, 0
7, 67200, Note_on_c, 5, 39, 100
7, 67392, Note_on_c, 5, 39, 0
7, 67392, Note_on_c, 5, 40, 100
7, 67968, Note_on_c, 5, 40, 0
7, 68352, Note_on_c, 5, 43, 100
7, 68544, Note_on_c, 5, 43, 0
7, 68544, Note_on_c, 5, 43, 100
7, 68736, Note_on_c, 5, 43, 0
7, 68736, Note_on_c, 5, 42, 100
7, 68928, Note_on_c, 5, 42, 0
7, 68928, Note_on_c, 5, 43, 100
7, 69120, Note_on_c, 5, 43, 0
7, 69120, Note_on_c, 5, 36, 100
7, 69696, Note_on_c, 5, 36, 0
7, 70080, Note_on_c, 5, 48, 100
7, 70272, Note_on_c, 5, 48, 0
7, 70272, Note_on_c, 5, 48, 100
7, 70464, Note_on_c, 5, 48, 0
7, 70464, Note_on_c, 5, 47, 100
7, 70656, Note_on_c, 5, 47, 0
7, 70656, Note_on_c, 5, 48, 100
7, 70848, Note_on_c, 5, 48, 0
7, 70848, Note_on_c, 5, 43, 100
7, 71424, Note_on_c, 5, 43, 0
7, 71808, Note_on_c, 5, 40, 100
7, 72000, Note_on_c, 5, 40, 0
7, 72000, Note_on_c, 5, 45, 100
7, 72384, Note_on_c, 5, 45, 0
7, 72384, Note_on_c, 5, 42, 100
7, 72576, Note_on_c, 5, 42, 0
7, 72576, Note_on_c, 5, 47, 100
7, 73152, Note_on_c, 5, 47, 0
7, 73536, Note_on_c, 5, 39, 100
7, 73728, Note_on_c, 5, 39, 0
7, 73728, Note_on_c, 5, 35, 100
7, 74112, Note_on_c, 5, 35, 0
7, 74112, Note_on_c, 5, 39, 100
7, 74304, Note_on_c, 5, 39, 0
7, 74304, Note_on_c, 5, 40, 100
7, 74688, Note_on_c, 5, 40, 0
7, 74688, Note_on_c, 5, 42, 100
7, 74880, Note_on_c, 5, 42, 0
7, 74880, Note_on_c, 5, 43, 100
7, 75264, Note_on_c, 5, 43, 0
7, 75264, Note_on_c, 5, 45, 100
7, 75456, Note_on_c, 5, 45, 0
7, 75456, Note_on_c, 5, 47, 100
7, 75840, Note_on_c, 5, 47, 0
7, 75840, Note_on_c, 5, 35, 100
7, 76032, Note_on_c, 5, 35, 0
7, 76032, Note_on_c, 5, 40, 100
7, 76608, Note_on_c, 5, 40, 0
7, 76608, Note_on_c, 5, 28, 100
7, 77184, Note_on_c, 5, 28, 0
7, 77184, Note_on_c, 5, 40, 100
7, 77760, Note_on_c, 5, 40, 0
7, 77760, Note_on_c, 5, 39, 100
7, 78336, Note_on_c, 5, 39, 0
7, 78336, Note_on_c, 5, 35, 100
7, 78912, Note_on_c, 5, 35, 0
7, 78912, Note_on_c, 5, 39, 100
7, 79488, Note_on_c, 5, 39, 0
7, 79488, Note_on_c, 5, 40, 100
7, 80064, Note_on_c, 5, 40, 0
7, 80064, Note_on_c, 5, 43, 100
7, 80640, Note_on_c, 5, 43, 0
7, 80640, Note_on_c, 5, 40, 100
7, 81216, Note_on_c, 5, 40, 0
7, 81216, Note_on_c, 5, 47, 100
7, 81792, Note_on_c, 5, 47, 0
7, 81792, Note_on_c, 5, 35, 100
7, 82368, Note_on_c, 5, 35, 0
7, 82944, Note_on_c, 5, 47, 100
7, 83520, Note_on_c, 5, 47, 0
7, 83520, Note_on_c, 5, 51, 100
7, 84096, Note_on_c, 5, 51, 0
7, 84096, Note_on_c, 5, 47, 100
7, 84672, Note_on_c, 5, 47, 0
7, 84672, Note_on_c, 5, 52, 100
7, 85248, Note_on_c, 5, 52, 0
7, 85248, Note_on_c, 5, 40, 100
7, 85824, Note_on_c, 5, 40, 0
7, 86400, Note_on_c, 5, 45, 100
7, 86976, Note_on_c, 5, 45, 0
7, 87552, Note_on_c, 5, 45, 100
7, 88128, Note_on_c, 5, 45, 0
7, 88128, Note_on_c, 5, 43, 100
7, 88704, Note_on_c, 5, 43, 0
7, 89280, Note_on_c, 5, 43, 100
7, 89856, Note_on_c, 5, 43, 0
7, 89856, Note_on_c, 5, 42, 100
7, 90432, Note_on_c, 5, 42, 0
7, 90816, Note_on_c, 5, 43, 100
7, 91008, Note_on_c, 5, 43, 0
7, 91008, Note_on_c, 5, 45, 100
7, 91392, Note_on_c, 5, 45, 0
7, 91392, Note_on_c, 5, 42, 100
7, 91584, Note_on_c, 5, 42, 0
7, 91584, Note_on_c, 5, 39, 100
7, 92160, Note_on_c, 5, 39, 0
7, 92544, Note_on_c, 5, 39, 100
7, 92736, Note_on_c, 5, 39, 0
7, 92736, Note_on_c, 5, 35, 100
7, 93120, Note_on_c, 5, 35, 0
7, 93120, Note_on_c, 5, 39, 100
7, 93312, Note_on_c, 5, 39, 0
7, 93312, Note_on_c, 5, 40, 100
7, 93888, Note_on_c, 5, 40, 0
7, 94464, Note_on_c, 5, 38, 100
7, 95040, Note_on_c, 5, 38, 0
7, 95040, Note_on_c, 5, 37, 100
7, 95616, Note_on_c, 5, 37, 0
7, 96000, Note_on_c, 5, 33, 100
7, 96192, Note_on_c, 5, 33, 0
7, 96192, Note_on_c, 5, 35, 100
7, 96576, Note_on_c, 5, 35, 0
7, 96576, Note_on_c, 5, 37, 100
7, 96768, Note_on_c, 5, 37, 0
7, 96768, Note_on_c, 5, 38, 100
7, 97344, Note_on_c, 5, 38, 0
7, 97920, Note_on_c, 5, 36, 100
7, 98496, Note_on_c, 5, 36, 0
7, 98496, Note_on_c, 5, 35, 100
7, 99072, Note_on_c, 5, 35, 0
7, 99456, Note_on_c, 5, 31, 100
7, 99648, Note_on_c, 5, 31, 0
7, 99648, Note_on_c, 5, 33, 100
7, 100032, Note_on_c, 5, 33, 0
7, 100032, Note_on_c, 5, 35, 100
7, 100224, Note_on_c, 5, 35, 0
7, 100224, Note_on_c, 5, 36, 100
7, 100800, Note_on_c, 5, 36, 0
7, 101184, Note_on_c, 5, 38, 100
7, 101376, Note_on_c, 5, 38, 0
7, 101376, Note_on_c, 5, 40, 100
7, 101568, Note_on_c, 5, 40, 0
7, 101568, Note_on_c, 5, 38, 100
7, 101760, Note_on_c, 5, 38, 0
7, 101760, Note_on_c, 5, 40, 100
7, 101952, Note_on_c, 5, 40, 0
7, 101952, Note_on_c, 5, 33, 100
7, 102528, Note_on_c, 5, 33, 0
7, 102912, Note_on_c, 5, 43, 100
7, 103104, Note_on_c, 5, 43, 0
7, 103104, Note_on_c, 5, 45, 100
7, 103296, Note_on_c, 5, 45, 0
7, 103296, Note_on_c, 5, 43, 100
7, 103488, Note_on_c, 5, 43, 0
7, 103488, Note_on_c, 5, 45, 100
7, 103680, Note_on_c, 5, 45, 0
7, 103680, Note_on_c, 5, 40, 100
7, 104256, Note_on_c, 5, 40, 0
7, 104832, Note_on_c, 5, 43, 100
7, 105408, Note_on_c, 5, 43, 0
7, 105408, Note_on_c, 5, 48, 100
7, 105984, Note_on_c, 5, 48, 0
7, 106560, Note_on_c, 5, 36, 100
7, 107136, Note_on_c, 5, 36, 0
7, 107136, Note_on_c, 5, 43, 100
7, 107712, Note_on_c, 5, 43, 0
7, 108288, Note_on_c, 5, 31, 100
7, 108864, Note_on_c, 5, 31, 0
7, 108864, Note_on_c, 5, 36, 100
7, 109440, Note_on_c, 5, 36, 0
7, 109440, Note_on_c, 5, 35, 100
7, 110016, Note_on_c, 5, 35, 0
7, 110016, Note_on_c, 5, 33, 100
7, 110592, Note_on_c, 5, 33, 0
7, 110592, Note_on_c, 5, 31, 100
7, 111168, Note_on_c, 5, 31, 0
7, 111168, Note_on_c, 5, 35, 100
7, 111744, Note_on_c, 5, 35, 0
7, 111744, Note_on_c, 5, 38, 100
7, 112320, Note_on_c, 5, 38, 0
7, 112320, Note_on_c, 5, 43, 100
7, 112896, Note_on_c, 5, 43, 0
7, 113472, Note_on_c, 5, 31, 100
7, 114048, Note_on_c, 5, 31, 0
7, 114048, Note_on_c, 5, 26, 100
7, 114624, Note_on_c, 5, 26, 0
7, 115200, Note_on_c, 5, 38, 100
7, 115776, Note_on_c, 5, 38, 0
7, 115776, Note_on_c, 5, 43, 100
7, 116352, Note_on_c, 5, 43, 0
7, 116352, Note_on_c, 5, 41, 100
7, 116928, Note_on_c, 5, 41, 0
7, 116928, Note_on_c, 5, 40, 100
7, 117504, Note_on_c, 5, 40, 0
7, 117504, Note_on_c, 5, 38, 100
7, 118080, Note_on_c, 5, 38, 0
7, 118080, Note_on_c, 5, 36, 100
7, 118656, Note_on_c, 5, 36, 0
7, 118656, Note_on_c, 5, 35, 100
7, 119232, Note_on_c, 5, 35, 0
7, 119232, Note_on_c, 5, 33, 100
7, 119808, Note_on_c, 5, 33, 0
7, 119808, Note_on_c, 5, 45, 100
7, 120384, Note_on_c, 5, 45, 0
7, 120384, Note_on_c, 5, 47, 100
7, 120960, Note_on_c, 5, 47, 0
7, 120960, Note_on_c, 5, 48, 100
7, 121536, Note_on_c, 5, 48, 0
7, 121536, Note_on_c, 5, 36, 100
7, 122112, Note_on_c, 5, 36, 0
7, 122112, Note_on_c, 5, 48, 100
7, 122688, Note_on_c, 5, 48, 0
7, 122688, Note_on_c, 5, 47, 100
7, 123264, Note_on_c, 5, 47, 0
7, 123264, Note_on_c, 5, 43, 100
7, 123840, Note_on_c, 5, 43, 0
7, 123840, Note_on_c, 5, 47, 100
7, 124416, Note_on_c, 5, 47, 0
7, 124416, Note_on_c, 5, 48, 100
7, 124992, Note_on_c, 5, 48, 0
7, 126720, Note_on_c, 5, 45, 100
7, 127104, Note_on_c, 5, 45, 0
7, 127104, Note_on_c, 5, 40, 100
7, 127296, Note_on_c, 5, 40, 0
7, 127296, Note_on_c, 5, 37, 100
7, 127680, Note_on_c, 5, 37, 0
7, 127680, Note_on_c, 5, 33, 100
7, 127872, Note_on_c, 5, 33, 0
7, 127872, Note_on_c, 5, 38, 100
7, 128256, Note_on_c, 5, 38, 0
7, 130176, Note_on_c, 5, 47, 100
7, 130560, Note_on_c, 5, 47, 0
7, 130560, Note_on_c, 5, 42, 100
7, 130752, Note_on_c, 5, 42, 0
7, 130752, Note_on_c, 5, 39, 100
7, 131136, Note_on_c, 5, 39, 0
7, 131136, Note_on_c, 5, 35, 100
7, 131328, Note_on_c, 5, 35, 0
7, 131328, Note_on_c, 5, 40, 100
7, 131712, Note_on_c, 5, 40, 0
7, 133632, Note_on_c, 5, 48, 100
7, 134016, Note_on_c, 5, 48, 0
7, 134016, Note_on_c, 5, 43, 100
7, 134208, Note_on_c, 5, 43, 0
7, 134208, Note_on_c, 5, 40, 100
7, 134592, Note_on_c, 5, 40, 0
7, 134592, Note_on_c, 5, 36, 100
7, 134784, Note_on_c, 5, 36, 0
7, 134784, Note_on_c, 5, 41, 100
7, 135168, Note_on_c, 5, 41, 0
7, 137088, Note_on_c, 5, 50, 100
7, 137472, Note_on_c, 5, 50, 0
7, 137472, Note_on_c, 5, 45, 100
7, 137664, Note_on_c, 5, 45, 0
7, 137664, Note_on_c, 5, 42, 100
7, 138048, Note_on_c, 5, 42, 0
7, 138048, Note_on_c, 5, 38, 100
7, 138240, Note_on_c, 5, 38, 0
7, 138240, Note_on_c, 5, 43, 100
7, 138624, Note_on_c, 5, 43, 0
7, 140544, Note_on_c, 5, 52, 100
7, 140928, Note_on_c, 5, 52, 0
7, 140928, Note_on_c, 5, 47, 100
7, 141120, Note_on_c, 5, 47, 0
7, 141120, Note_on_c, 5, 44, 100
7, 141504, Note_on_c, 5, 44, 0
7, 141504, Note_on_c, 5, 40, 100
7, 141696, Note_on_c, 5, 40, 0
7, 141696, Note_on_c, 5, 45, 100
7, 142272, Note_on_c, 5, 45, 0
7, 142848, Note_on_c, 5, 33, 100
7, 143424, Note_on_c, 5, 33, 0
7, 143424, Note_on_c, 5, 38, 100
7, 144000, Note_on_c, 5, 38, 0
7, 144576, Note_on_c, 5, 50, 100
7, 145152, Note_on_c, 5, 50, 0
7, 145152, Note_on_c, 5, 43, 100
7, 145728, Note_on_c, 5, 43, 0
7, 146304, Note_on_c, 5, 31, 100
7, 146880, Note_on_c, 5, 31, 0
7, 146880, Note_on_c, 5, 36, 100
7, 147456, Note_on_c, 5, 36, 0
7, 148032, Note_on_c, 5, 48, 100
7, 148608, Note_on_c, 5, 48, 0
7, 148608, Note_on_c, 5, 41, 100
7, 149184, Note_on_c, 5, 41, 0
7, 149760, Note_on_c, 5, 41, 100
7, 150336, Note_on_c, 5, 41, 0
7, 150336, Note_on_c, 5, 35, 100
7, 150912, Note_on_c, 5, 35, 0
7, 151488, Note_on_c, 5, 35, 100
7, 152064, Note_on_c, 5, 35, 0
7, 152064, Note_on_c, 5, 28, 100
7, 155904, Note_on_c, 5, 28, 0
7, 155904, Note_on_c, 5, 47, 100
7, 156096, Note_on_c, 5, 47, 0
7, 156096, Note_on_c, 5, 52, 100
7, 156288, Note_on_c, 5, 52, 0
7, 156288, Note_on_c, 5, 50, 100
7, 156480, Note_on_c, 5, 50, 0
7, 156480, Note_on_c, 5, 48, 100
7, 156672, Note_on_c, 5, 48, 0
7, 156672, Note_on_c, 5, 47, 100
7, 156864, Note_on_c, 5, 47, 0
7, 156864, Note_on_c, 5, 48, 100
7, 157056, Note_on_c, 5, 48, 0
7, 157056, Note_on_c, 5, 50, 100
7, 157248, Note_on_c, 5, 50, 0
7, 157248, Note_on_c, 5, 48, 100
7, 157824, Note_on_c, 5, 48, 0
7, 157824, Note_on_c, 5, 36, 100
7, 158400, Note_on_c, 5, 36, 0
7, 158400, Note_on_c, 5, 40, 100
7, 158976, Note_on_c, 5, 40, 0
7, 158976, Note_on_c, 5, 45, 100
7, 159552, Note_on_c, 5, 45, 0
7, 159552, Note_on_c, 5, 33, 100
7, 160128, Note_on_c, 5, 33, 0
7, 160128, Note_on_c, 5, 45, 100
7, 160704, Note_on_c, 5, 45, 0
7, 160704, Note_on_c, 5, 44, 100
7, 161280, Note_on_c, 5, 44, 0
7, 161280, Note_on_c, 5, 40, 100
7, 161856, Note_on_c, 5, 40, 0
7, 161856, Note_on_c, 5, 44, 100
7, 162432, Note_on_c, 5, 44, 0
7, 162432, Note_on_c, 5, 45, 100
7, 163008, Note_on_c, 5, 45, 0
7, 163008, Note_on_c, 5, 48, 100
7, 163584, Note_on_c, 5, 48, 0
7, 163584, Note_on_c, 5, 45, 100
7, 164160, Note_on_c, 5, 45, 0
7, 164160, Note_on_c, 5, 52, 100
7, 164736, Note_on_c, 5, 52, 0
7, 164736, Note_on_c, 5, 40, 100
7, 165312, Note_on_c, 5, 40, 0
7, 165888, Note_on_c, 5, 40, 100
7, 166464, Note_on_c, 5, 40, 0
7, 166464, Note_on_c, 5, 44, 100
7, 167040, Note_on_c, 5, 44, 0
7, 167040, Note_on_c, 5, 40, 100
7, 167616, Note_on_c, 5, 40, 0
7, 167616, Note_on_c, 5, 45, 100
7, 168192, Note_on_c, 5, 45, 0
7, 168192, Note_on_c, 5, 33, 100
7, 168768, Note_on_c, 5, 33, 0
7, 169344, Note_on_c, 5, 38, 100
7, 169920, Note_on_c, 5, 38, 0
7, 170496, Note_on_c, 5, 38, 100
7, 171072, Note_on_c, 5, 38, 0
7, 171072, Note_on_c, 5, 36, 100
7, 171648, Note_on_c, 5, 36, 0
7, 172224, Note_on_c, 5, 36, 100
7, 172800, Note_on_c, 5, 36, 0
7, 172800, Note_on_c, 5, 35, 100
7, 173376, Note_on_c, 5, 35, 0
7, 173760, Note_on_c, 5, 36, 100
7, 173952, Note_on_c, 5, 36, 0
7, 173952, Note_on_c, 5, 35, 100
7, 174336, Note_on_c, 5, 35, 0
7, 174336, Note_on_c, 5, 33, 100
7, 174528, Note_on_c, 5, 33, 0
7, 175680, Note_on_c, 5, 28, 100
7, 176256, Note_on_c, 5, 28, 0
7, 176256, Note_on_c, 5, 33, 100
7, 176832, Note_on_c, 5, 33, 0
7, 177408, Note_on_c, 5, 33, 100
7, 177984, Note_on_c, 5, 33, 0
7, 177984, Note_on_c, 5, 38, 100
7, 178560, Note_on_c, 5, 38, 0
7, 179136, Note_on_c, 5, 26, 100
7, 179712, Note_on_c, 5, 26, 0
7, 179712, Note_on_c, 5, 31, 100
7, 180288, Note_on_c, 5, 31, 0
7, 180864, Note_on_c, 5, 31, 100
7, 181440, Note_on_c, 5, 31, 0
7, 181440, Note_on_c, 5, 36, 100
7, 181632, Note_on_c, 5, 36, 0
7, 181632, Note_on_c, 5, 40, 100
7, 181824, Note_on_c, 5, 40, 0
7, 181824, Note_on_c, 5, 43, 100
7, 182016, Note_on_c, 5, 43, 0
7, 182016, Note_on_c, 5, 48, 100
7, 182400, Note_on_c, 5, 48, 0
7, 183168, Note_on_c, 5, 38, 100
7, 183360, Note_on_c, 5, 38, 0
7, 183360, Note_on_c, 5, 42, 100
7, 183552, Note_on_c, 5, 42, 0
7, 183552, Note_on_c, 5, 45, 100
7, 183744, Note_on_c, 5, 45, 0
7, 183744, Note_on_c, 5, 50, 100
7, 184128, Note_on_c, 5, 50, 0
7, 184896, Note_on_c, 5, 40, 100
7, 185088, Note_on_c, 5, 40, 0
7, 185088, Note_on_c, 5, 44, 100
7, 185280, Note_on_c, 5, 44, 0
7, 185280, Note_on_c, 5, 47, 100
7, 185472, Note_on_c, 5, 47, 0
7, 185472, Note_on_c, 5, 52, 100
7, 185856, Note_on_c, 5, 52, 0
7, 186624, Note_on_c, 5, 42, 100
7, 186816, Note_on_c, 5, 42, 0
7, 186816, Note_on_c, 5, 45, 100
7, 187008, Note_on_c, 5, 45, 0
7, 187008, Note_on_c, 5, 48, 100
7, 187200, Note_on_c, 5, 48, 0
7, 187200, Note_on_c, 5, 52, 100
7, 187584, Note_on_c, 5, 52, 0
7, 188352, Note_on_c, 5, 44, 100
7, 188544, Note_on_c, 5, 44, 0
7, 188544, Note_on_c, 5, 47, 100
7, 188736, Note_on_c, 5, 47, 0
7, 188736, Note_on_c, 5, 50, 100
7, 188928, Note_on_c, 5, 50, 0
7, 188928, Note_on_c, 5, 52, 100
7, 189504, Note_on_c, 5, 52, 0
7, 189888, Note_on_c, 5, 43, 100
7, 190080, Note_on_c, 5, 43, 0
7, 190080, Note_on_c, 5, 45, 100
7, 190272, Note_on_c, 5, 45, 0
7, 190272, Note_on_c, 5, 43, 100
7, 190464, Note_on_c, 5, 43, 0
7, 190464, Note_on_c, 5, 41, 100
7, 190656, Note_on_c, 5, 41, 0
7, 190656, Note_on_c, 5, 40, 100
7, 190848, Note_on_c, 5, 40, 0
7, 190848, Note_on_c, 5, 38, 100
7, 191040, Note_on_c, 5, 38, 0
7, 191040, Note_on_c, 5, 36, 100
7, 191232, Note_on_c, 5, 36, 0
7, 191232, Note_on_c, 5, 35, 100
7, 191424, Note_on_c, 5, 35, 0
7, 191424, Note_on_c, 5, 36, 100
7, 191616, Note_on_c, 5, 36, 0
7, 191616, Note_on_c, 5, 33, 100
7, 191808, Note_on_c, 5, 33, 0
7, 191808, Note_on_c, 5, 41, 100
7, 192384, Note_on_c, 5, 41, 0
7, 193344, Note_on_c, 5, 41, 100
7, 193536, Note_on_c, 5, 41, 0
7, 193536, Note_on_c, 5, 43, 100
7, 193728, Note_on_c, 5, 43, 0
7, 193728, Note_on_c, 5, 41, 100
7, 193920, Note_on_c, 5, 41, 0
7, 193920, Note_on_c, 5, 40, 100
7, 194112, Note_on_c, 5, 40, 0
7, 194112, Note_on_c, 5, 38, 100
7, 194304, Note_on_c, 5, 38, 0
7, 194304, Note_on_c, 5, 36, 100
7, 194496, Note_on_c, 5, 36, 0
7, 194496, Note_on_c, 5, 35, 100
7, 194688, Note_on_c, 5, 35, 0
7, 194688, Note_on_c, 5, 33, 100
7, 194880, Note_on_c, 5, 33, 0
7, 194880, Note_on_c, 5, 35, 100
7, 195072, Note_on_c, 5, 35, 0
7, 195072, Note_on_c, 5, 31, 100
7, 195264, Note_on_c, 5, 31, 0
7, 195264, Note_on_c, 5, 40, 100
7, 195840, Note_on_c, 5, 40, 0
7, 196800, Note_on_c, 5, 40, 100
7, 196992, Note_on_c, 5, 40, 0
7, 196992, Note_on_c, 5, 41, 100
7, 197184, Note_on_c, 5, 41, 0
7, 197184, Note_on_c, 5, 40, 100
7, 197376, Note_on_c, 5, 40, 0
7, 197376, Note_on_c, 5, 38, 100
7, 197568, Note_on_c, 5, 38, 0
7, 197568, Note_on_c, 5, 36, 100
7, 197760, Note_on_c, 5, 36, 0
7, 197760, Note_on_c, 5, 35, 100
7, 197952, Note_on_c, 5, 35, 0
7, 197952, Note_on_c, 5, 33, 100
7, 198144, Note_on_c, 5, 33, 0
7, 198144, Note_on_c, 5, 31, 100
7, 198336, Note_on_c, 5, 31, 0
7, 198336, Note_on_c, 5, 33, 100
7, 198528, Note_on_c, 5, 33, 0
7, 198528, Note_on_c, 5, 29, 100
7, 198720, Note_on_c, 5, 29, 0
7, 198720, Note_on_c, 5, 38, 100
7, 199296, Note_on_c, 5, 38, 0
7, 200256, Note_on_c, 5, 38, 100
7, 200448, Note_on_c, 5, 38, 0
7, 200448, Note_on_c, 5, 38, 100
7, 200640, Note_on_c, 5, 38, 0
7, 200640, Note_on_c, 5, 36, 100
7, 200832, Note_on_c, 5, 36, 0
7, 200832, Note_on_c, 5, 38, 100
7, 201024, Note_on_c, 5, 38, 0
7, 201024, Note_on_c, 5, 28, 100
7, 201216, Note_on_c, 5, 28, 0
7, 201216, Note_on_c, 5, 32, 100
7, 201408, Note_on_c, 5, 32, 0
7, 201408, Note_on_c, 5, 35, 100
7, 201600, Note_on_c, 5, 35, 0
7, 201600, Note_on_c, 5, 38, 100
7, 201792, Note_on_c, 5, 38, 0
7, 201792, Note_on_c, 5, 36, 100
7, 201984, Note_on_c, 5, 36, 0
7, 201984, Note_on_c, 5, 35, 100
7, 202176, Note_on_c, 5, 35, 0
7, 202176, Note_on_c, 5, 36, 100
7, 202560, Note_on_c, 5, 36, 0
7, 202560, Note_on_c, 5, 38, 100
7, 202752, Note_on_c, 5, 38, 0
7, 202752, Note_on_c, 5, 40, 100
7, 203328, Note_on_c, 5, 40, 0
7, 203328, Note_on_c, 5, 28, 100
7, 203904, Note_on_c, 5, 28, 0
7, 203904, Note_on_c, 5, 45, 100
7, 204480, Note_on_c, 5, 45, 0
7, 204480, Note_on_c, 5, 33, 100
7, 205056, Note_on_c, 5, 33, 0
7, 205056, Note_on_c, 5, 45, 100
7, 205632, Note_on_c, 5, 45, 0
7, 205632, Note_on_c, 5, 44, 100
7, 206208, Note_on_c, 5, 44, 0
7, 206208, Note_on_c, 5, 40, 100
7, 206784, Note_on_c, 5, 40, 0
7, 206784, Note_on_c, 5, 44, 100
7, 207360, Note_on_c, 5, 44, 0
7, 207360, Note_on_c, 5, 45, 100
7, 207936, Note_on_c, 5, 45, 0
7, 207936, Note_on_c, 5, 43, 100
7, 208512, Note_on_c, 5, 43, 0
7, 208512, Note_on_c, 5, 42, 100
7, 209088, Note_on_c, 5, 42, 0
7, 209088, Note_on_c, 5, 40, 100
7, 209664, Note_on_c, 5, 40, 0
7, 209664, Note_on_c, 5, 28, 100
7, 210240, Note_on_c, 5, 28, 0
7, 210240, Note_on_c, 5, 39, 100
7, 210816, Note_on_c, 5, 39, 0
7, 210816, Note_on_c, 5, 40, 100
7, 211392, Note_on_c, 5, 40, 0
7, 211392, Note_on_c, 5, 28, 100
7, 211968, Note_on_c, 5, 28, 0
7, 211968, Note_on_c, 5, 40, 100
7, 212544, Note_on_c, 5, 40, 0
7, 212544, Note_on_c, 5, 39, 100
7, 213120, Note_on_c, 5, 39, 0
7, 213120, Note_on_c, 5, 35, 100
7, 213696, Note_on_c, 5, 35, 0
7, 213696, Note_on_c, 5, 39, 100
7, 214272, Note_on_c, 5, 39, 0
7, 214272, Note_on_c, 5, 40, 100
7, 214848, Note_on_c, 5, 40, 0
7, 215808, Note_on_c, 5, 40, 100
7, 216000, Note_on_c, 5, 40, 0
7, 216000, Note_on_c, 5, 45, 100
7, 216192, Note_on_c, 5, 45, 0
7, 216192, Note_on_c, 5, 43, 100
7, 216384, Note_on_c, 5, 43, 0
7, 216384, Note_on_c, 5, 41, 100
7, 216576, Note_on_c, 5, 41, 0
7, 216576, Note_on_c, 5, 40, 100
7, 216768, Note_on_c, 5, 40, 0
7, 216768, Note_on_c, 5, 38, 100
7, 216960, Note_on_c, 5, 38, 0
7, 216960, Note_on_c, 5, 36, 100
7, 217152, Note_on_c, 5, 36, 0
7, 217152, Note_on_c, 5, 35, 100
7, 217344, Note_on_c, 5, 35, 0
7, 217344, Note_on_c, 5, 36, 100
7, 217536, Note_on_c, 5, 36, 0
7, 217536, Note_on_c, 5, 38, 100
7, 217728, Note_on_c, 5, 38, 0
7, 217728, Note_on_c, 5, 36, 100
7, 217920, Note_on_c, 5, 36, 0
7, 217920, Note_on_c, 5, 35, 100
7, 218112, Note_on_c, 5, 35, 0
7, 218112, Note_on_c, 5, 36, 100
7, 218304, Note_on_c, 5, 36, 0
7, 218304, Note_on_c, 5, 33, 100
7, 218496, Note_on_c, 5, 33, 0
7, 218496, Note_on_c, 5, 35, 100
7, 218688, Note_on_c, 5, 35, 0
7, 218688, Note_on_c, 5, 36, 100
7, 218880, Note_on_c, 5, 36, 0
7, 218880, Note_on_c, 5, 28, 100
7, 219072, Note_on_c, 5, 28, 0
7, 219072, Note_on_c, 5, 33, 100
7, 219264, Note_on_c, 5, 33, 0
7, 219264, Note_on_c, 5, 36, 100
7, 219456, Note_on_c, 5, 36, 0
7, 219456, Note_on_c, 5, 35, 100
7, 219648, Note_on_c, 5, 35, 0
7, 219648, Note_on_c, 5, 33, 100
7, 219840, Note_on_c, 5, 33, 0
7, 219840, Note_on_c, 5, 35, 100
7, 220032, Note_on_c, 5, 35, 0
7, 220032, Note_on_c, 5, 32, 100
7, 220224, Note_on_c, 5, 32, 0
7, 220224, Note_on_c, 5, 33, 100
7, 220416, Note_on_c, 5, 33, 0
7, 220416, Note_on_c, 5, 35, 100
7, 220608, Note_on_c, 5, 35, 0
7, 220608, Note_on_c, 5, 28, 100
7, 220800, Note_on_c, 5, 28, 0
7, 220800, Note_on_c, 5, 35, 100
7, 220992, Note_on_c, 5, 35, 0
7, 220992, Note_on_c, 5, 38, 100
7, 221184, Note_on_c, 5, 38, 0
7, 221184, Note_on_c, 5, 36, 100
7, 221376, Note_on_c, 5, 36, 0
7, 221376, Note_on_c, 5, 35, 100
7, 221568, Note_on_c, 5, 35, 0
7, 221568, Note_on_c, 5, 36, 100
7, 221760, Note_on_c, 5, 36, 0
7, 221760, Note_on_c, 5, 33, 100
7, 221952, Note_on_c, 5, 33, 0
7, 221952, Note_on_c, 5, 36, 100
7, 222144, Note_on_c, 5, 36, 0
7, 222144, Note_on_c, 5, 40, 100
7, 222336, Note_on_c, 5, 40, 0
7, 222336, Note_on_c, 5, 43, 100
7, 222528, Note_on_c, 5, 43, 0
7, 222528, Note_on_c, 5, 41, 100
7, 222720, Note_on_c, 5, 41, 0
7, 222720, Note_on_c, 5, 40, 100
7, 222912, Note_on_c, 5, 40, 0
7, 222912, Note_on_c, 5, 41, 100
7, 223488, Note_on_c, 5, 41, 0
7, 223872, Note_on_c, 5, 38, 100
7, 224064, Note_on_c, 5, 38, 0
7, 224064, Note_on_c, 5, 40, 100
7, 224448, Note_on_c, 5, 40, 0
7, 224448, Note_on_c, 5, 42, 100
7, 224640, Note_on_c, 5, 42, 0
7, 224640, Note_on_c, 5, 43, 100
7, 225216, Note_on_c, 5, 43, 0
7, 225600, Note_on_c, 5, 31, 100
7, 225792, Note_on_c, 5, 31, 0
7, 225792, Note_on_c, 5, 33, 100
7, 226176, Note_on_c, 5, 33, 0
7, 226176, Note_on_c, 5, 35, 100
7, 226368, Note_on_c, 5, 35, 0
7, 226368, Note_on_c, 5, 36, 100
7, 226752, Note_on_c, 5, 36, 0
7, 226752, Note_on_c, 5, 38, 100
7, 226944, Note_on_c, 5, 38, 0
7, 226944, Note_on_c, 5, 40, 100
7, 227136, Note_on_c, 5, 40, 0
7, 227136, Note_on_c, 5, 38, 100
7, 227328, Note_on_c, 5, 38, 0
7, 227328, Note_on_c, 5, 36, 100
7, 227520, Note_on_c, 5, 36, 0
7, 227520, Note_on_c, 5, 43, 100
7, 227904, Note_on_c, 5, 43, 0
7, 227904, Note_on_c, 5, 43, 100
7, 228096, Note_on_c, 5, 43, 0
7, 228096, Note_on_c, 5, 43, 100
7, 228288, Note_on_c, 5, 43, 0
7, 228288, Note_on_c, 5, 41, 100
7, 228480, Note_on_c, 5, 41, 0
7, 228480, Note_on_c, 5, 43, 100
7, 228672, Note_on_c, 5, 43, 0
7, 228672, Note_on_c, 5, 40, 100
7, 228864, Note_on_c, 5, 40, 0
7, 228864, Note_on_c, 5, 38, 100
7, 229056, Note_on_c, 5, 38, 0
7, 229056, Note_on_c, 5, 36, 100
7, 229248, Note_on_c, 5, 36, 0
7, 229248, Note_on_c, 5, 43, 100
7, 229632, Note_on_c, 5, 43, 0
7, 229632, Note_on_c, 5, 43, 100
7, 229824, Note_on_c, 5, 43, 0
7, 229824, Note_on_c, 5, 43, 100
7, 230208, Note_on_c, 5, 43, 0
7, 230208, Note_on_c, 5, 43, 100
7, 230400, Note_on_c, 5, 43, 0
7, 230400, Note_on_c, 5, 43, 100
7, 230784, Note_on_c, 5, 43, 0
7, 230784, Note_on_c, 5, 43, 100
7, 230976, Note_on_c, 5, 43, 0
7, 230976, Note_on_c, 5, 43, 100
7, 231360, Note_on_c, 5, 43, 0
7, 231360, Note_on_c, 5, 43, 100
7, 231552, Note_on_c, 5, 43, 0
7, 231552, Note_on_c, 5, 36, 100
7, 231936, Note_on_c, 5, 36, 0
7, 232512, Note_on_c, 5, 38, 100
7, 232704, Note_on_c, 5, 38, 0
7, 232704, Note_on_c, 5, 40, 100
7, 233088, Note_on_c, 5, 40, 0
7, 233088, Note_on_c, 5, 41, 100
7, 233280, Note_on_c, 5, 41, 0
7, 233280, Note_on_c, 5, 32, 100
7, 233664, Note_on_c, 5, 32, 0
7, 234240, Note_on_c, 5, 28, 100
7, 234432, Note_on_c, 5, 28, 0
7, 234432, Note_on_c, 5, 30, 100
7, 234816, Note_on_c, 5, 30, 0
7, 234816, Note_on_c, 5, 32, 100
7, 235008, Note_on_c, 5, 32, 0
7, 235008, Note_on_c, 5, 33, 100
7, 235584, Note_on_c, 5, 33, 0
7, 235968, Note_on_c, 5, 45, 100
7, 236160, Note_on_c, 5, 45, 0
7, 236160, Note_on_c, 5, 47, 100
7, 236544, Note_on_c, 5, 47, 0
7, 236544, Note_on_c, 5, 49, 100
7, 236736, Note_on_c, 5, 49, 0
7, 236736, Note_on_c, 5, 50, 100
7, 237120, Note_on_c, 5, 50, 0
7, 237120, Note_on_c, 5, 38, 100
7, 237312, Note_on_c, 5, 38, 0
7, 237312, Note_on_c, 5, 38, 100
7, 237696, Note_on_c, 5, 38, 0
7, 237696, Note_on_c, 5, 50, 100
7, 237888, Note_on_c, 5, 50, 0
7, 237888, Note_on_c, 5, 50, 100
7, 238080, Note_on_c, 5, 50, 0
7, 238080, Note_on_c, 5, 49, 100
7, 238272, Note_on_c, 5, 49, 0
7, 238272, Note_on_c, 5, 50, 100
7, 238464, Note_on_c, 5, 50, 0
7, 238464, Note_on_c, 5, 48, 100
7, 238848, Note_on_c, 5, 48, 0
7, 238848, Note_on_c, 5, 36, 100
7, 239040, Note_on_c, 5, 36, 0
7, 239040, Note_on_c, 5, 36, 100
7, 239424, Note_on_c, 5, 36, 0
7, 239424, Note_on_c, 5, 48, 100
7, 239616, Note_on_c, 5, 48, 0
7, 239616, Note_on_c, 5, 48, 100
7, 239808, Note_on_c, 5, 48, 0
7, 239808, Note_on_c, 5, 47, 100
7, 240000, Note_on_c, 5, 47, 0
7, 240000, Note_on_c, 5, 48, 100
7, 240192, Note_on_c, 5, 48, 0
7, 240192, Note_on_c, 5, 47, 100
7, 240384, Note_on_c, 5, 47, 0
7, 240384, Note_on_c, 5, 45, 100
7, 240576, Note_on_c, 5, 45, 0
7, 240576, Note_on_c, 5, 47, 100
7, 240768, Note_on_c, 5, 47, 0
7, 240768, Note_on_c, 5, 44, 100
7, 240960, Note_on_c, 5, 44, 0
7, 240960, Note_on_c, 5, 45, 100
7, 241152, Note_on_c, 5, 45, 0
7, 241152, Note_on_c, 5, 47, 100
7, 241344, Note_on_c, 5, 47, 0
7, 241344, Note_on_c, 5, 40, 100
7, 241536, Note_on_c, 5, 40, 0
7, 241536, Note_on_c, 5, 44, 100
7, 241728, Note_on_c, 5, 44, 0
7, 241728, Note_on_c, 5, 47, 100
7, 241920, Note_on_c, 5, 47, 0
7, 241920, Note_on_c, 5, 36, 100
7, 242880, Note_on_c, 5, 36, 0
7, 242880, Note_on_c, 5, 38, 100
7, 243072, Note_on_c, 5, 38, 0
7, 243072, Note_on_c, 5, 40, 100
7, 243456, Note_on_c, 5, 40, 0
7, 243456, Note_on_c, 5, 28, 100
7, 243648, Note_on_c, 5, 28, 0
7, 243648, Note_on_c, 5, 33, 100
7, 244800, Note_on_c, 5, 33, 0
7, 244800, End_track
8, 0, Start_track
8, 0, MIDI_port, 0
8, 0, Title_t, "Harpsichord"
8, 0, Program_c, 6, 6
8, 0, Control_c, 6, 7, 90
8, 0, Control_c, 6, 10, 64
8, 2304, Note_on_c, 6, 57, 100
8, 2880, Note_on_c, 6, 57, 0
8, 2880, Note_on_c, 6, 56, 100
8, 3456, Note_on_c, 6, 56, 0
8, 3456, Note_on_c, 6, 57, 100
8, 4032, Note_on_c, 6, 57, 0
8, 4032, Note_on_c, 6, 45, 100
8, 4608, Note_on_c, 6, 45, 0
8, 4608, Note_on_c, 6, 57, 100
8, 5184, Note_on_c, 6, 57, 0
8, 5184, Note_on_c, 6, 56, 100
8, 5760, Note_on_c, 6, 56, 0
8, 5760, Note_on_c, 6, 52, 100
8, 6336, Note_on_c, 6, 52, 0
8, 6336, Note_on_c, 6, 56, 100
8, 6912, Note_on_c, 6, 56, 0
8, 6912, Note_on_c, 6, 57, 100
8, 7488, Note_on_c, 6, 57, 0
8, 7488, Note_on_c, 6, 55, 100
8, 8064, Note_on_c, 6, 55, 0
8, 8064, Note_on_c, 6, 54, 100
8, 8640, Note_on_c, 6, 54, 0
8, 8640, Note_on_c, 6, 52, 100
8, 9216, Note_on_c, 6, 52, 0
8, 9216, Note_on_c, 6, 40, 100
8, 9792, Note_on_c, 6, 40, 0
8, 9792, Note_on_c, 6, 51, 100
8, 10368, Note_on_c, 6, 51, 0
8, 10368, Note_on_c, 6, 52, 100
8, 10944, Note_on_c, 6, 52, 0
8, 10944, Note_on_c, 6, 40, 100
8, 11520, Note_on_c, 6, 40, 0
8, 11520, Note_on_c, 6, 52, 100
8, 12096, Note_on_c, 6, 52, 0
8, 12096, Note_on_c, 6, 51, 100
8, 12672, Note_on_c, 6, 51, 0
8, 12672, Note_on_c, 6, 47, 100
8, 13248, Note_on_c, 6, 47, 0
8, 13248, Note_on_c, 6, 51, 100
8, 13824, Note_on_c, 6, 51, 0
8, 13824, Note_on_c, 6, 52, 100
8, 14400, Note_on_c, 6, 52, 0
8, 15360, Note_on_c, 6, 52, 100
8, 15552, Note_on_c, 6, 52, 0
8, 15552, Note_on_c, 6, 57, 100
8, 15744, Note_on_c, 6, 57, 0
8, 15744, Note_on_c, 6, 55, 100
8, 15936, Note_on_c, 6, 55, 0
8, 15936, Note_on_c, 6, 53, 100
8, 16128, Note_on_c, 6, 53, 0
8, 16128, Note_on_c, 6, 52, 100
8, 16320, Note_on_c, 6, 52, 0
8, 16320, Note_on_c, 6, 50, 100
8, 16512, Note_on_c, 6, 50, 0
8, 16512, Note_on_c, 6, 48, 100
8, 16704, Note_on_c, 6, 48, 0
8, 16704, Note_on_c, 6, 47, 100
8, 16896, Note_on_c, 6, 47, 0
8, 16896, Note_on_c, 6, 48, 100
8, 17088, Note_on_c, 6, 48, 0
8, 17088, Note_on_c, 6, 50, 100
8, 17280, Note_on_c, 6, 50, 0
8, 17280, Note_on_c, 6, 48, 100
8, 17472, Note_on_c, 6, 48, 0
8, 17472, Note_on_c, 6, 47, 100
8, 17664, Note_on_c, 6, 47, 0
8, 17664, Note_on_c, 6, 48, 100
8, 17856, Note_on_c, 6, 48, 0
8, 17856, Note_on_c, 6, 45, 100
8, 18048, Note_on_c, 6, 45, 0
8, 18048, Note_on_c, 6, 47, 100
8, 18240, Note_on_c, 6, 47, 0
8, 18240, Note_on_c, 6, 48, 100
8, 18432, Note_on_c, 6, 48, 0
8, 18432, Note_on_c, 6, 40, 100
8, 18624, Note_on_c, 6, 40, 0
8, 18624, Note_on_c, 6, 45, 100
8, 18816, Note_on_c, 6, 45, 0
8, 18816, Note_on_c, 6, 48, 100
8, 19008, Note_on_c, 6, 48, 0
8, 19008, Note_on_c, 6, 47, 100
8, 19200, Note_on_c, 6, 47, 0
8, 19200, Note_on_c, 6, 45, 100
8, 19392, Note_on_c, 6, 45, 0
8, 19392, Note_on_c, 6, 47, 100
8, 19584, Note_on_c, 6, 47, 0
8, 19584, Note_on_c, 6, 44, 100
8, 19776, Note_on_c, 6, 44, 0
8, 19776, Note_on_c, 6, 45, 100
8, 19968, Note_on_c, 6, 45, 0
8, 19968, Note_on_c, 6, 47, 100
8, 20160, Note_on_c, 6, 47, 0
8, 20160, Note_on_c, 6, 40, 100
8, 20352, Note_on_c, 6, 40, 0
8, 20352, Note_on_c, 6, 47, 100
8, 20544, Note_on_c, 6, 47, 0
8, 20544, Note_on_c, 6, 50, 100
8, 20736, Note_on_c, 6, 50, 0
8, 20736, Note_on_c, 6, 48, 100
8, 20928, Note_on_c, 6, 48, 0
8, 20928, Note_on_c, 6, 47, 100
8, 21120, Note_on_c, 6, 47, 0
8, 21120, Note_on_c, 6, 48, 100
8, 21312, Note_on_c, 6, 48, 0
8, 21312, Note_on_c, 6, 45, 100
8, 21504, Note_on_c, 6, 45, 0
8, 21504, Note_on_c, 6, 48, 100
8, 21696, Note_on_c, 6, 48, 0
8, 21696, Note_on_c, 6, 52, 100
8, 21888, Note_on_c, 6, 52, 0
8, 21888, Note_on_c, 6, 55, 100
8, 22080, Note_on_c, 6, 55, 0
8, 22080, Note_on_c, 6, 53, 100
8, 22272, Note_on_c, 6, 53, 0
8, 22272, Note_on_c, 6, 52, 100
8, 22464, Note_on_c, 6, 52, 0
8, 22464, Note_on_c, 6, 53, 100
8, 23040, Note_on_c, 6, 53, 0
8, 23424, Note_on_c, 6, 50, 100
8, 23616, Note_on_c, 6, 50, 0
8, 23616, Note_on_c, 6, 52, 100
8, 24000, Note_on_c, 6, 52, 0
8, 24000, Note_on_c, 6, 54, 100
8, 24192, Note_on_c, 6, 54, 0
8, 24192, Note_on_c, 6, 55, 100
8, 24768, Note_on_c, 6, 55, 0
8, 25152, Note_on_c, 6, 43, 100
8, 25344, Note_on_c, 6, 43, 0
8, 25344, Note_on_c, 6, 45, 100
8, 25728, Note_on_c, 6, 45, 0
8, 25728, Note_on_c, 6, 47, 100
8, 25920, Note_on_c, 6, 47, 0
8, 25920, Note_on_c, 6, 48, 100
8, 26304, Note_on_c, 6, 48, 0
8, 26304, Note_on_c, 6, 50, 100
8, 26496, Note_on_c, 6, 50, 0
8, 26496, Note_on_c, 6, 52, 100
8, 26688, Note_on_c, 6, 52, 0
8, 26688, Note_on_c, 6, 50, 100
8, 26880, Note_on_c, 6, 50, 0
8, 26880, Note_on_c, 6, 48, 100
8, 27072, Note_on_c, 6, 48, 0
8, 27072, Note_on_c, 6, 55, 100
8, 27456, Note_on_c, 6, 55, 0
8, 27456, Note_on_c, 6, 55, 100
8, 27648, Note_on_c, 6, 55, 0
8, 27648, Note_on_c, 6, 55, 100
8, 27840, Note_on_c, 6, 55, 0
8, 27840, Note_on_c, 6, 53, 100
8, 28032, Note_on_c, 6, 53, 0
8, 28032, Note_on_c, 6, 55, 100
8, 28224, Note_on_c, 6, 55, 0
8, 28224, Note_on_c, 6, 52, 100
8, 28416, Note_on_c, 6, 52, 0
8, 28416, Note_on_c, 6, 50, 100
8, 28608, Note_on_c, 6, 50, 0
8, 28608, Note_on_c, 6, 48, 100
8, 28800, Note_on_c, 6, 48, 0
8, 28800, Note_on_c, 6, 55, 100
8, 29184, Note_on_c, 6, 55, 0
8, 29184, Note_on_c, 6, 55, 100
8, 29376, Note_on_c, 6, 55, 0
8, 29376, Note_on_c, 6, 55, 100
8, 29760, Note_on_c, 6, 55, 0
8, 29760, Note_on_c, 6, 55, 100
8, 29952, Note_on_c, 6, 55, 0
8, 29952, Note_on_c, 6, 55, 100
8, 30336, Note_on_c, 6, 55, 0
8, 30336, Note_on_c, 6, 55, 100
8, 30528, Note_on_c, 6, 55, 0
8, 30528, Note_on_c, 6, 55, 100
8, 30912, Note_on_c, 6, 55, 0
8, 30912, Note_on_c, 6, 55, 100
8, 31104, Note_on_c, 6, 55, 0
8, 31104, Note_on_c, 6, 48, 100
8, 31488, Note_on_c, 6, 48, 0
8, 32064, Note_on_c, 6, 50, 100
8, 32256, Note_on_c, 6, 50, 0
8, 32256, Note_on_c, 6, 52, 100
8, 32640, Note_on_c, 6, 52, 0
8, 32640, Note_on_c, 6, 53, 100
8, 32832, Note_on_c, 6, 53, 0
8, 32832, Note_on_c, 6, 44, 100
8, 33216, Note_on_c, 6, 44, 0
8, 33792, Note_on_c, 6, 40, 100
8, 33984, Note_on_c, 6, 40, 0
8, 33984, Note_on_c, 6, 42, 100
8, 34368, Note_on_c, 6, 42, 0
8, 34368, Note_on_c, 6, 44, 100
8, 34560, Note_on_c, 6, 44, 0
8, 34560, Note_on_c, 6, 45, 100
8, 35136, Note_on_c, 6, 45, 0
8, 35520, Note_on_c, 6, 57, 100
8, 35712, Note_on_c, 6, 57, 0
8, 35712, Note_on_c, 6, 59, 100
8, 36096, Note_on_c, 6, 59, 0
8, 36096, Note_on_c, 6, 61, 100
8, 36288, Note_on_c, 6, 61, 0
8, 36288, Note_on_c, 6, 62, 100
8, 36672, Note_on_c, 6, 62, 0
8, 36672, Note_on_c, 6, 50, 100
8, 36864, Note_on_c, 6, 50, 0
8, 36864, Note_on_c, 6, 50, 100
8, 37248, Note_on_c, 6, 50, 0
8, 37248, Note_on_c, 6, 62, 100
8, 37440, Note_on_c, 6, 62, 0
8, 37440, Note_on_c, 6, 62, 100
8, 37632, Note_on_c, 6, 62, 0
8, 37632, Note_on_c, 6, 61, 100
8, 37824, Note_on_c, 6, 61, 0
8, 37824, Note_on_c, 6, 62, 100
8, 38016, Note_on_c, 6, 62, 0
8, 38016, Note_on_c, 6, 60, 100
8, 38400, Note_on_c, 6, 60, 0
8, 38400, Note_on_c, 6, 48, 100
8, 38592, Note_on_c, 6, 48, 0
8, 38592, Note_on_c, 6, 48, 100
8, 38976, Note_on_c, 6, 48, 0
8, 38976, Note_on_c, 6, 60, 100
8, 39168, Note_on_c, 6, 60, 0
8, 39168, Note_on_c, 6, 60, 100
8, 39360, Note_on_c, 6, 60, 0
8, 39360, Note_on_c, 6, 59, 100
8, 39552, Note_on_c, 6, 59, 0
8, 39552, Note_on_c, 6, 60, 100
8, 39744, Note_on_c, 6, 60, 0
8, 39744, Note_on_c, 6, 59, 100
8, 39936, Note_on_c, 6, 59, 0
8, 39936, Note_on_c, 6, 57, 100
8, 40128, Note_on_c, 6, 57, 0
8, 40128, Note_on_c, 6, 59, 100
8, 40320, Note_on_c, 6, 59, 0
8, 40320, Note_on_c, 6, 56, 100
8, 40512, Note_on_c, 6, 56, 0
8, 40512, Note_on_c, 6, 57, 100
8, 40704, Note_on_c, 6, 57, 0
8, 40704, Note_on_c, 6, 59, 100
8, 40896, Note_on_c, 6, 59, 0
8, 40896, Note_on_c, 6, 52, 100
8, 41088, Note_on_c, 6, 52, 0
8, 41088, Note_on_c, 6, 56, 100
8, 41280, Note_on_c, 6, 56, 0
8, 41280, Note_on_c, 6, 59, 100
8, 41472, Note_on_c, 6, 59, 0
8, 41472, Note_on_c, 6, 48, 100
8, 42240, Note_on_c, 6, 48, 0
8, 42432, Note_on_c, 6, 50, 100
8, 42624, Note_on_c, 6, 50, 0
8, 42624, Note_on_c, 6, 52, 100
8, 43008, Note_on_c, 6, 52, 0
8, 43008, Note_on_c, 6, 40, 100
8, 43200, Note_on_c, 6, 40, 0
8, 43200, Note_on_c, 6, 45, 100
8, 43776, Note_on_c, 6, 45, 0
8, 43776, Note_on_c, 6, 48, 100
8, 44352, Note_on_c, 6, 48, 0
8, 44352, Note_on_c, 6, 45, 100
8, 44928, Note_on_c, 6, 45, 0
8, 44928, Note_on_c, 6, 52, 100
8, 45504, Note_on_c, 6, 52, 0
8, 45504, Note_on_c, 6, 40, 100
8, 46080, Note_on_c, 6, 40, 0
8, 46656, Note_on_c, 6, 52, 100
8, 47232, Note_on_c, 6, 52, 0
8, 47232, Note_on_c, 6, 56, 100
8, 47808, Note_on_c, 6, 56, 0
8, 47808, Note_on_c, 6, 52, 100
8, 48384, Note_on_c, 6, 52, 0
8, 48384, Note_on_c, 6, 57, 100
8, 48960, Note_on_c, 6, 57, 0
8, 48960, Note_on_c, 6, 45, 100
8, 49536, Note_on_c, 6, 45, 0
8, 50112, Note_on_c, 6, 50, 100
8, 50688, Note_on_c, 6, 50, 0
8, 51264, Note_on_c, 6, 50, 100
8, 51840, Note_on_c, 6, 50, 0
8, 51840, Note_on_c, 6, 48, 100
8, 52416, Note_on_c, 6, 48, 0
8, 52992, Note_on_c, 6, 48, 100
8, 53568, Note_on_c, 6, 48, 0
8, 53568, Note_on_c, 6, 47, 100
8, 54144, Note_on_c, 6, 47, 0
8, 54528, Note_on_c, 6, 48, 100
8, 54720, Note_on_c, 6, 48, 0
8, 54720, Note_on_c, 6, 47, 100
8, 55104, Note_on_c, 6, 47, 0
8, 55104, Note_on_c, 6, 45, 100
8, 55296, Note_on_c, 6, 45, 0
8, 55296, Note_on_c, 6, 44, 100
8, 55872, Note_on_c, 6, 44, 0
8, 56256, Note_on_c, 6, 56, 100
8, 56448, Note_on_c, 6, 56, 0
8, 56448, Note_on_c, 6, 52, 100
8, 56832, Note_on_c, 6, 52, 0
8, 56832, Note_on_c, 6, 56, 100
8, 57024, Note_on_c, 6, 56, 0
8, 57024, Note_on_c, 6, 57, 100
8, 57600, Note_on_c, 6, 57, 0
8, 58176, Note_on_c, 6, 55, 100
8, 58752, Note_on_c, 6, 55, 0
8, 58752, Note_on_c, 6, 54, 100
8, 59328, Note_on_c, 6, 54, 0
8, 59712, Note_on_c, 6, 50, 100
8, 59904, Note_on_c, 6, 50, 0
8, 59904, Note_on_c, 6, 52, 100
8, 60288, Note_on_c, 6, 52, 0
8, 60288, Note_on_c, 6, 54, 100
8, 60480, Note_on_c, 6, 54, 0
8, 60480, Note_on_c, 6, 55, 100
8, 61056, Note_on_c, 6, 55, 0
8, 61632, Note_on_c, 6, 54, 100
8, 62208, Note_on_c, 6, 54, 0
8, 62208, Note_on_c, 6, 52, 100
8, 62784, Note_on_c, 6, 52, 0
8, 63168, Note_on_c, 6, 48, 100
8, 63360, Note_on_c, 6, 48, 0
8, 63360, Note_on_c, 6, 50, 100
8, 63744, Note_on_c, 6, 50, 0
8, 63744, Note_on_c, 6, 52, 100
8, 63936, Note_on_c, 6, 52, 0
8, 63936, Note_on_c, 6, 54, 100
8, 64512, Note_on_c, 6, 54, 0
8, 65088, Note_on_c, 6, 52, 100
8, 65664, Note_on_c, 6, 52, 0
8, 65664, Note_on_c, 6, 51, 100
8, 66240, Note_on_c, 6, 51, 0
8, 66624, Note_on_c, 6, 47, 100
8, 66816, Note_on_c, 6, 47, 0
8, 66816, Note_on_c, 6, 49, 100
8, 67200, Note_on_c, 6, 49, 0
8, 67200, Note_on_c, 6, 51, 100
8, 67392, Note_on_c, 6, 51, 0
8, 67392, Note_on_c, 6, 52, 100
8, 67968, Note_on_c, 6, 52, 0
8, 68352, Note_on_c, 6, 55, 100
8, 68544, Note_on_c, 6, 55, 0
8, 68544, Note_on_c, 6, 55, 100
8, 68736, Note_on_c, 6, 55, 0
8, 68736, Note_on_c, 6, 54, 100
8, 68928, Note_on_c, 6, 54, 0
8, 68928, Note_on_c, 6, 55, 100
8, 69120, Note_on_c, 6, 55, 0
8, 69120, Note_on_c, 6, 48, 100
8, 69696, Note_on_c, 6, 48, 0
8, 70080, Note_on_c, 6, 60, 100
8, 70272, Note_on_c, 6, 60, 0
8, 70272, Note_on_c, 6, 60, 100
8, 70464, Note_on_c, 6, 60, 0
8, 70464, Note_on_c, 6, 59, 100
8, 70656, Note_on_c, 6, 59, 0
8, 70656, Note_on_c, 6, 60, 100
8, 70848, Note_on_c, 6, 60, 0
8, 70848, Note_on_c, 6, 55, 100
8, 71424, Note_on_c, 6, 55, 0
8, 71808, Note_on_c, 6, 52, 100
8, 72000, Note_on_c, 6, 52, 0
8, 72000, Note_on_c, 6, 57, 100
8, 72384, Note_on_c, 6, 57, 0
8, 72384, Note_on_c, 6, 54, 100
8, 72576, Note_on_c, 6, 54, 0
8, 72576, Note_on_c, 6, 59, 100
8, 73152, Note_on_c, 6, 59, 0
8, 73536, Note_on_c, 6, 51, 100
8, 73728, Note_on_c, 6, 51, 0
8, 73728, Note_on_c, 6, 47, 100
8, 74112, Note_on_c, 6, 47, 0
8, 74112, Note_on_c, 6, 51, 100
8, 74304, Note_on_c, 6, 51, 0
8, 74304, Note_on_c, 6, 52, 100
8, 74688, Note_on_c, 6, 52, 0
8, 74688, Note_on_c, 6, 54, 100
8, 74880, Note_on_c, 6, 54, 0
8, 74880, Note_on_c, 6, 55, 100
8, 75264, Note_on_c, 6, 55, 0
8, 75264, Note_on_c, 6, 57, 100
8, 75456, Note_on_c, 6, 57, 0
8, 75456, Note_on_c, 6, 59, 100
8, 75840, Note_on_c, 6, 59, 0
8, 75840, Note_on_c, 6, 47, 100
8, 76032, Note_on_c, 6, 47, 0
8, 76032, Note_on_c, 6, 52, 100
8, 76608, Note_on_c, 6, 52, 0
8, 76608, Note_on_c, 6, 40, 100
8, 77184, Note_on_c, 6, 40, 0
8, 77184, Note_on_c, 6, 52, 100
8, 77760, Note_on_c, 6, 52, 0
8, 77760, Note_on_c, 6, 51, 100
8, 78336, Note_on_c, 6, 51, 0
8, 78336, Note_on_c, 6, 47, 100
8, 78912, Note_on_c, 6, 47, 0
8, 78912, Note_on_c, 6, 51, 100
8, 79488, Note_on_c, 6, 51, 0
8, 79488, Note_on_c, 6, 52, 100
8, 80064, Note_on_c, 6, 52, 0
8, 80064, Note_on_c, 6, 55, 100
8, 80640, Note_on_c, 6, 55, 0
8, 80640, Note_on_c, 6, 52, 100
8, 81216, Note_on_c, 6, 52, 0
8, 81216, Note_on_c, 6, 59, 100
8, 81792, Note_on_c, 6, 59, 0
8, 81792, Note_on_c, 6, 47, 100
8, 82368, Note_on_c, 6, 47, 0
8, 82944, Note_on_c, 6, 59, 100
8, 83520, Note_on_c, 6, 59, 0
8, 83520, Note_on_c, 6, 63, 100
8, 84096, Note_on_c, 6, 63, 0
8, 84096, Note_on_c, 6, 59, 100
8, 84672, Note_on_c, 6, 59, 0
8, 84672, Note_on_c, 6, 64, 100
8, 85248, Note_on_c, 6, 64, 0
8, 85248, Note_on_c, 6, 52, 100
8, 85824, Note_on_c, 6, 52, 0
8, 86400, Note_on_c, 6, 57, 100
8, 86976, Note_on_c, 6, 57, 0
8, 87552, Note_on_c, 6, 57, 100
8, 88128, Note_on_c, 6, 57, 0
8, 88128, Note_on_c, 6, 55, 100
8, 88704, Note_on_c, 6, 55, 0
8, 89280, Note_on_c, 6, 55, 100
8, 89856, Note_on_c, 6, 55, 0
8, 89856, Note_on_c, 6, 54, 100
8, 90432, Note_on_c, 6, 54, 0
8, 90816, Note_on_c, 6, 55, 100
8, 91008, Note_on_c, 6, 55, 0
8, 91008, Note_on_c, 6, 57, 100
8, 91392, Note_on_c, 6, 57, 0
8, 91392, Note_on_c, 6, 54, 100
8, 91584, Note_on_c, 6, 54, 0
8, 91584, Note_on_c, 6, 51, 100
8, 92160, Note_on_c, 6, 51, 0
8, 92544, Note_on_c, 6, 51, 100
8, 92736, Note_on_c, 6, 51, 0
8, 92736, Note_on_c, 6, 47, 100
8, 93120, Note_on_c, 6, 47, 0
8, 93120, Note_on_c, 6, 51, 100
8, 93312, Note_on_c, 6, 51, 0
8, 93312, Note_on_c, 6, 52, 100
8, 93888, Note_on_c, 6, 52, 0
8, 94464, Note_on_c, 6, 50, 100
8, 95040, Note_on_c, 6, 50, 0
8, 95040, Note_on_c, 6, 49, 100
8, 95616, Note_on_c, 6, 49, 0
8, 96000, Note_on_c, 6, 45, 100
8, 96192, Note_on_c, 6, 45, 0
8, 96192, Note_on_c, 6, 47, 100
8, 96576, Note_on_c, 6, 47, 0
8, 96576, Note_on_c, 6, 49, 100
8, 96768, Note_on_c, 6, 49, 0
8, 96768, Note_on_c, 6, 50, 100
8, 97344, Note_on_c, 6, 50, 0
8, 97920, Note_on_c, 6, 48, 100
8, 98496, Note_on_c, 6, 48, 0
8, 98496, Note_on_c, 6, 47, 100
8, 99072, Note_on_c, 6, 47, 0
8, 99456, Note_on_c, 6, 43, 100
8, 99648, Note_on_c, 6, 43, 0
8, 99648, Note_on_c, 6, 45, 100
8, 100032, Note_on_c, 6, 45, 0
8, 100032, Note_on_c, 6, 47, 100
8, 100224, Note_on_c, 6, 47, 0
8, 100224, Note_on_c, 6, 48, 100
8, 100800, Note_on_c, 6, 48, 0
8, 101184, Note_on_c, 6, 50, 100
8, 101376, Note_on_c, 6, 50, 0
8, 101376, Note_on_c, 6, 52, 100
8, 101568, Note_on_c, 6, 52, 0
8, 101568, Note_on_c, 6, 50, 100
8, 101760, Note_on_c, 6, 50, 0
8, 101760, Note_on_c, 6, 52, 100
8, 101952, Note_on_c, 6, 52, 0
8, 101952, Note_on_c, 6, 45, 100
8, 102528, Note_on_c, 6, 45, 0
8, 102912, Note_on_c, 6, 55, 100
8, 103104, Note_on_c, 6, 55, 0
8, 103104, Note_on_c, 6, 57, 100
8, 103296, Note_on_c, 6, 57, 0
8, 103296, Note_on_c, 6, 55, 100
8, 103488, Note_on_c, 6, 55, 0
8, 103488, Note_on_c, 6, 57, 100
8, 103680, Note_on_c, 6, 57, 0
8, 103680, Note_on_c, 6, 52, 100
8, 104256, Note_on_c, 6, 52, 0
8, 104832, Note_on_c, 6, 55, 100
8, 105408, Note_on_c, 6, 55, 0
8, 105408, Note_on_c, 6, 60, 100
8, 105984, Note_on_c, 6, 60, 0
8, 106560, Note_on_c, 6, 48, 100
8, 107136, Note_on_c, 6, 48, 0
8, 107136, Note_on_c, 6, 55, 100
8, 107712, Note_on_c, 6, 55, 0
8, 108288, Note_on_c, 6, 43, 100
8, 108864, Note_on_c, 6, 43, 0
8, 108864, Note_on_c, 6, 48, 100
8, 109440, Note_on_c, 6, 48, 0
8, 109440, Note_on_c, 6, 47, 100
8, 110016, Note_on_c, 6, 47, 0
8, 110016, Note_on_c, 6, 45, 100
8, 110592, Note_on_c, 6, 45, 0
8, 110592, Note_on_c, 6, 43, 100
8, 111168, Note_on_c, 6, 43, 0
8, 111168, Note_on_c, 6, 47, 100
8, 111744, Note_on_c, 6, 47, 0
8, 111744, Note_on_c, 6, 50, 100
8, 112320, Note_on_c, 6, 50, 0
8, 112320, Note_on_c, 6, 55, 100
8, 112896, Note_on_c, 6, 55, 0
8, 113472, Note_on_c, 6, 43, 100
8, 114048, Note_on_c, 6, 43, 0
8, 114048, Note_on_c, 6, 38, 100
8, 114624, Note_on_c, 6, 38, 0
8, 115200, Note_on_c, 6, 50, 100
8, 115776, Note_on_c, 6, 50, 0
8, 115776, Note_on_c, 6, 55, 100
8, 116352, Note_on_c, 6, 55, 0
8, 116352, Note_on_c, 6, 53, 100
8, 116928, Note_on_c, 6, 53, 0
8, 116928, Note_on_c, 6, 52, 100
8, 117504, Note_on_c, 6, 52, 0
8, 117504, Note_on_c, 6, 50, 100
8, 118080, Note_on_c, 6, 50, 0
8, 118080, Note_on_c, 6, 48, 100
8, 118656, Note_on_c, 6, 48, 0
8, 118656, Note_on_c, 6, 47, 100
8, 119232, Note_on_c, 6, 47, 0
8, 119232, Note_on_c, 6, 45, 100
8, 119808, Note_on_c, 6, 45, 0
8, 119808, Note_on_c, 6, 57, 100
8, 120384, Note_on_c, 6, 57, 0
8, 120384, Note_on_c, 6, 59, 100
8, 120960, Note_on_c, 6, 59, 0
8, 120960, Note_on_c, 6, 60, 100
8, 121536, Note_on_c, 6, 60, 0
8, 121536, Note_on_c, 6, 48, 100
8, 122112, Note_on_c, 6, 48, 0
8, 122112, Note_on_c, 6, 60, 100
8, 122688, Note_on_c, 6, 60, 0
8, 122688, Note_on_c, 6, 59, 100
8, 123264, Note_on_c, 6, 59, 0
8, 123264, Note_on_c, 6, 55, 100
8, 123840, Note_on_c, 6, 55, 0
8, 123840, Note_on_c, 6, 59, 100
8, 124416, Note_on_c, 6, 59, 0
8, 124416, Note_on_c, 6, 60, 100
8, 124992, Note_on_c, 6, 60, 0
8, 126720, Note_on_c, 6, 57, 100
8, 127104, Note_on_c, 6, 57, 0
8, 127104, Note_on_c, 6, 52, 100
8, 127296, Note_on_c, 6, 52, 0
8, 127296, Note_on_c, 6, 49, 100
8, 127680, Note_on_c, 6, 49, 0
8, 127680, Note_on_c, 6, 45, 100
8, 127872, Note_on_c, 6, 45, 0
8, 127872, Note_on_c, 6, 50, 100
8, 128256, Note_on_c, 6, 50, 0
8, 130176, Note_on_c, 6, 59, 100
8, 130560, Note_on_c, 6, 59, 0
8, 130560, Note_on_c, 6, 54, 100
8, 130752, Note_on_c, 6, 54, 0
8, 130752, Note_on_c, 6, 51, 100
8, 131136, Note_on_c, 6, 51, 0
8, 131136, Note_on_c, 6, 47, 100
8, 131328, Note_on_c, 6, 47, 0
8, 131328, Note_on_c, 6, 52, 100
8, 131712, Note_on_c, 6, 52, 0
8, 133632, Note_on_c, 6, 60, 100
8, 134016, Note_on_c, 6, 60, 0
8, 134016, Note_on_c, 6, 55, 100
8, 134208, Note_on_c, 6, 55, 0
8, 134208, Note_on_c, 6, 52, 100
8, 134592, Note_on_c, 6, 52, 0
8, 134592, Note_on_c, 6, 48, 100
8, 134784, Note_on_c, 6, 48, 0
8, 134784, Note_on_c, 6, 53, 100
8, 135168, Note_on_c, 6, 53, 0
8, 137088, Note_on_c, 6, 62, 100
8, 137472, Note_on_c, 6, 62, 0
8, 137472, Note_on_c, 6, 57, 100
8, 137664, Note_on_c, 6, 57, 0
8, 137664, Note_on_c, 6, 54, 100
8, 138048, Note_on_c, 6, 54, 0
8, 138048, Note_on_c, 6, 50, 100
8, 138240, Note_on_c, 6, 50, 0
8, 138240, Note_on_c, 6, 55, 100
8, 138624, Note_on_c, 6, 55, 0
8, 140544, Note_on_c, 6, 64, 100
8, 140928, Note_on_c, 6, 64, 0
8, 140928, Note_on_c, 6, 59, 100
8, 141120, Note_on_c, 6, 59, 0
8, 141120, Note_on_c, 6, 56, 100
8, 141504, Note_on_c, 6, 56, 0
8, 141504, Note_on_c, 6, 52, 100
8, 141696, Note_on_c, 6, 52, 0
8, 141696, Note_on_c, 6, 57, 100
8, 142272, Note_on_c, 6, 57, 0
8, 142848, Note_on_c, 6, 45, 100
8, 143424, Note_on_c, 6, 45, 0
8, 143424, Note_on_c, 6, 50, 100
8, 144000, Note_on_c, 6, 50, 0
8, 144576, Note_on_c, 6, 62, 100
8, 145152, Note_on_c, 6, 62, 0
8, 145152, Note_on_c, 6, 55, 100
8, 145728, Note_on_c, 6, 55, 0
8, 146304, Note_on_c, 6, 43, 100
8, 146880, Note_on_c, 6, 43, 0
8, 146880, Note_on_c, 6, 48, 100
8, 147456, Note_on_c, 6, 48, 0
8, 148032, Note_on_c, 6, 60, 100
8, 148608, Note_on_c, 6, 60, 0
8, 148608, Note_on_c, 6, 53, 100
8, 149184, Note_on_c, 6, 53, 0
8, 149760, Note_on_c, 6, 53, 100
8, 150336, Note_on_c, 6, 53, 0
8, 150336, Note_on_c, 6, 47, 100
8, 150912, Note_on_c, 6, 47, 0
8, 151488, Note_on_c, 6, 47, 100
8, 152064, Note_on_c, 6, 47, 0
8, 152064, Note_on_c, 6, 40, 100
8, 155904, Note_on_c, 6, 40, 0
8, 155904, Note_on_c, 6, 59, 100
8, 156096, Note_on_c, 6, 59, 0
8, 156096, Note_on_c, 6, 64, 100
8, 156288, Note_on_c, 6, 64, 0
8, 156288, Note_on_c, 6, 62, 100
8, 156480, Note_on_c, 6, 62, 0
8, 156480, Note_on_c, 6, 60, 100
8, 156672, Note_on_c, 6, 60, 0
8, 156672, Note_on_c, 6, 59, 100
8, 156864, Note_on_c, 6, 59, 0
8, 156864, Note_on_c, 6, 60, 100
8, 157056, Note_on_c, 6, 60, 0
8, 157056, Note_on_c, 6, 62, 100
8, 157248, Note_on_c, 6, 62, 0
8, 157248, Note_on_c, 6, 60, 100
8, 157824, Note_on_c, 6, 60, 0
8, 157824, Note_on_c, 6, 48, 100
8, 158400, Note_on_c, 6, 48, 0
8, 158400, Note_on_c, 6, 52, 100
8, 158976, Note_on_c, 6, 52, 0
8, 158976, Note_on_c, 6, 57, 100
8, 159552, Note_on_c, 6, 57, 0
8, 159552, Note_on_c, 6, 45, 100
8, 160128, Note_on_c, 6, 45, 0
8, 160128, Note_on_c, 6, 57, 100
8, 160704, Note_on_c, 6, 57, 0
8, 160704, Note_on_c, 6, 56, 100
8, 161280, Note_on_c, 6, 56, 0
8, 161280, Note_on_c, 6, 52, 100
8, 161856, Note_on_c, 6, 52, 0
8, 161856, Note_on_c, 6, 56, 100
8, 162432, Note_on_c, 6, 56, 0
8, 162432, Note_on_c, 6, 57, 100
8, 163008, Note_on_c, 6, 57, 0
8, 163008, Note_on_c, 6, 60, 100
8, 163584, Note_on_c, 6, 60, 0
8, 163584, Note_on_c, 6, 57, 100
8, 164160, Note_on_c, 6, 57, 0
8, 164160, Note_on_c, 6, 64, 100
8, 164736, Note_on_c, 6, 64, 0
8, 164736, Note_on_c, 6, 52, 100
8, 165312, Note_on_c, 6, 52, 0
8, 165888, Note_on_c, 6, 52, 100
8, 166464, Note_on_c, 6, 52, 0
8, 166464, Note_on_c, 6, 56, 100
8, 167040, Note_on_c, 6, 56, 0
8, 167040, Note_on_c, 6, 52, 100
8, 167616, Note_on_c, 6, 52, 0
8, 167616, Note_on_c, 6, 57, 100
8, 168192, Note_on_c, 6, 57, 0
8, 168192, Note_on_c, 6, 45, 100
8, 168768, Note_on_c, 6, 45, 0
8, 169344, Note_on_c, 6, 50, 100
8, 169920, Note_on_c, 6, 50, 0
8, 170496, Note_on_c, 6, 50, 100
8, 171072, Note_on_c, 6, 50, 0
8, 171072, Note_on_c, 6, 48, 100
8, 171648, Note_on_c, 6, 48, 0
8, 172224, Note_on_c, 6, 48, 100
8, 172800, Note_on_c, 6, 48, 0
8, 172800, Note_on_c, 6, 47, 100
8, 173376, Note_on_c, 6, 47, 0
8, 173760, Note_on_c, 6, 48, 100
8, 173952, Note_on_c, 6, 48, 0
8, 173952, Note_on_c, 6, 47, 100
8, 174336, Note_on_c, 6, 47, 0
8, 174336, Note_on_c, 6, 45, 100
8, 174528, Note_on_c, 6, 45, 0
8, 175680, Note_on_c, 6, 40, 100
8, 176256, Note_on_c, 6, 40, 0
8, 176256, Note_on_c, 6, 45, 100
8, 176832, Note_on_c, 6, 45, 0
8, 177408, Note_on_c, 6, 45, 100
8, 177984, Note_on_c, 6, 45, 0
8, 177984, Note_on_c, 6, 50, 100
8, 178560, Note_on_c, 6, 50, 0
8, 179136, Note_on_c, 6, 38, 100
8, 179712, Note_on_c, 6, 38, 0
8, 179712, Note_on_c, 6, 43, 100
8, 180288, Note_on_c, 6, 43, 0
8, 180864, Note_on_c, 6, 43, 100
8, 181440, Note_on_c, 6, 43, 0
8, 181440, Note_on_c, 6, 48, 100
8, 181632, Note_on_c, 6, 48, 0
8, 181632, Note_on_c, 6, 52, 100
8, 181824, Note_on_c, 6, 52, 0
8, 181824, Note_on_c, 6, 55, 100
8, 182016, Note_on_c, 6, 55, 0
8, 182016, Note_on_c, 6, 60, 100
8, 182400, Note_on_c, 6, 60, 0
8, 183168, Note_on_c, 6, 50, 100
8, 183360, Note_on_c, 6, 50, 0
8, 183360, Note_on_c, 6, 54, 100
8, 183552, Note_on_c, 6, 54, 0
8, 183552, Note_on_c, 6, 57, 100
8, 183744, Note_on_c, 6, 57, 0
8, 183744, Note_on_c, 6, 62, 100
8, 184128, Note_on_c, 6, 62, 0
8, 184896, Note_on_c, 6, 52, 100
8, 185088, Note_on_c, 6, 52, 0
8, 185088, Note_on_c, 6, 56, 100
8, 185280, Note_on_c, 6, 56, 0
8, 185280, Note_on_c, 6, 59, 100
8, 185472, Note_on_c, 6, 59, 0
8, 185472, Note_on_c, 6, 64, 100
8, 185856, Note_on_c, 6, 64, 0
8, 186624, Note_on_c, 6, 54, 100
8, 186816, Note_on_c, 6, 54, 0
8, 186816, Note_on_c, 6, 57, 100
8, 187008, Note_on_c, 6, 57, 0
8, 187008, Note_on_c, 6, 60, 100
8, 187200, Note_on_c, 6, 60, 0
8, 187200, Note_on_c, 6, 64, 100
8, 187584, Note_on_c, 6, 64, 0
8, 188352, Note_on_c, 6, 56, 100
8, 188544, Note_on_c, 6, 56, 0
8, 188544, Note_on_c, 6, 59, 100
8, 188736, Note_on_c, 6, 59, 0
8, 188736, Note_on_c, 6, 62, 100
8, 188928, Note_on_c, 6, 62, 0
8, 188928, Note_on_c, 6, 64, 100
8, 189504, Note_on_c, 6, 64, 0
8, 189888, Note_on_c, 6, 55, 100
8, 190080, Note_on_c, 6, 55, 0
8, 190080, Note_on_c, 6, 57, 100
8, 190272, Note_on_c, 6, 57, 0
8, 190272, Note_on_c, 6, 55, 100
8, 190464, Note_on_c, 6, 55, 0
8, 190464, Note_on_c, 6, 53, 100
8, 190656, Note_on_c, 6, 53, 0
8, 190656, Note_on_c, 6, 52, 100
8, 190848, Note_on_c, 6, 52, 0
8, 190848, Note_on_c, 6, 50, 100
8, 191040, Note_on_c, 6, 50, 0
8, 191040, Note_on_c, 6, 48, 100
8, 191232, Note_on_c, 6, 48, 0
8, 191232, Note_on_c, 6, 47, 100
8, 191424, Note_on_c, 6, 47, 0
8, 191424, Note_on_c, 6, 48, 100
8, 191616, Note_on_c, 6, 48, 0
8, 191616, Note_on_c, 6, 45, 100
8, 191808, Note_on_c, 6, 45, 0
8, 191808, Note_on_c, 6, 53, 100
8, 192384, Note_on_c, 6, 53, 0
8, 193344, Note_on_c, 6, 53, 100
8, 193536, Note_on_c, 6, 53, 0
8, 193536, Note_on_c, 6, 55, 100
8, 193728, Note_on_c, 6, 55, 0
8, 193728, Note_on_c, 6, 53, 100
8, 193920, Note_on_c, 6, 53, 0
8, 193920, Note_on_c, 6, 52, 100
8, 194112, Note_on_c, 6, 52, 0
8, 194112, Note_on_c, 6, 50, 100
8, 194304, Note_on_c, 6, 50, 0
8, 194304, Note_on_c, 6, 48, 100
8, 194496, Note_on_c, 6, 48, 0
8, 194496, Note_on_c, 6, 47, 100
8, 194688, Note_on_c, 6, 47, 0
8, 194688, Note_on_c, 6, 45, 100
8, 194880, Note_on_c, 6, 45, 0
8, 194880, Note_on_c, 6, 47, 100
8, 195072, Note_on_c, 6, 47, 0
8, 195072, Note_on_c, 6, 43, 100
8, 195264, Note_on_c, 6, 43, 0
8, 195264, Note_on_c, 6, 52, 100
8, 195840, Note_on_c, 6, 52, 0
8, 196800, Note_on_c, 6, 52, 100
8, 196992, Note_on_c, 6, 52, 0
8, 196992, Note_on_c, 6, 53, 100
8, 197184, Note_on_c, 6, 53, 0
8, 197184, Note_on_c, 6, 52, 100
8, 197376, Note_on_c, 6, 52, 0
8, 197376, Note_on_c, 6, 50, 100
8, 197568, Note_on_c, 6, 50, 0
8, 197568, Note_on_c, 6, 48, 100
8, 197760, Note_on_c, 6, 48, 0
8, 197760, Note_on_c, 6, 47, 100
8, 197952, Note_on_c, 6, 47, 0
8, 197952, Note_on_c, 6, 45, 100
8, 198144, Note_on_c, 6, 45, 0
8, 198144, Note_on_c, 6, 43, 100
8, 198336, Note_on_c, 6, 43, 0
8, 198336, Note_on_c, 6, 45, 100
8, 198528, Note_on_c, 6, 45, 0
8, 198528, Note_on_c, 6, 41, 100
8, 198720, Note_on_c, 6, 41, 0
8, 198720, Note_on_c, 6, 50, 100
8, 199296, Note_on_c, 6, 50, 0
8, 200256, Note_on_c, 6, 50, 100
8, 200448, Note_on_c, 6, 50, 0
8, 200448, Note_on_c, 6, 50, 100
8, 200640, Note_on_c, 6, 50, 0
8, 200640, Note_on_c, 6, 48, 100
8, 200832, Note_on_c, 6, 48, 0
8, 200832, Note_on_c, 6, 50, 100
8, 201024, Note_on_c, 6, 50, 0
8, 201024, Note_on_c, 6, 40, 100
8, 201216, Note_on_c, 6, 40, 0
8, 201216, Note_on_c, 6, 44, 100
8, 201408, Note_on_c, 6, 44, 0
8, 201408, Note_on_c, 6, 47, 100
8, 201600, Note_on_c, 6, 47, 0
8, 201600, Note_on_c, 6, 50, 100
8, 201792, Note_on_c, 6, 50, 0
8, 201792, Note_on_c, 6, 48, 100
8, 201984, Note_on_c, 6, 48, 0
8, 201984, Note_on_c, 6, 47, 100
8, 202176, Note_on_c, 6, 47, 0
8, 202176, Note_on_c, 6, 48, 100
8, 202560, Note_on_c, 6, 48, 0
8, 202560, Note_on_c, 6, 50, 100
8, 202752, Note_on_c, 6, 50, 0
8, 202752, Note_on_c, 6, 52, 100
8, 203328, Note_on_c, 6, 52, 0
8, 203328, Note_on_c, 6, 40, 100
8, 203904, Note_on_c, 6, 40, 0
8, 203904, Note_on_c, 6, 57, 100
8, 204480, Note_on_c, 6, 57, 0
8, 204480, Note_on_c, 6, 45, 100
8, 205056, Note_on_c, 6, 45, 0
8, 205056, Note_on_c, 6, 57, 100
8, 205632, Note_on_c, 6, 57, 0
8, 205632, Note_on_c, 6, 56, 100
8, 206208, Note_on_c, 6, 56, 0
8, 206208, Note_on_c, 6, 52, 100
8, 206784, Note_on_c, 6, 52, 0
8, 206784, Note_on_c, 6, 56, 100
8, 207360, Note_on_c, 6, 56, 0
8, 207360, Note_on_c, 6, 57, 100
8, 207936, Note_on_c, 6, 57, 0
8, 207936, Note_on_c, 6, 55, 100
8, 208512, Note_on_c, 6, 55, 0
8, 208512, Note_on_c, 6, 54, 100
8, 209088, Note_on_c, 6, 54, 0
8, 209088, Note_on_c, 6, 52, 100
8, 209664, Note_on_c, 6, 52, 0
8, 209664, Note_on_c, 6, 40, 100
8, 210240, Note_on_c, 6, 40, 0
8, 210240, Note_on_c, 6, 51, 100
8, 210816, Note_on_c, 6, 51, 0
8, 210816, Note_on_c, 6, 52, 100
8, 211392, Note_on_c, 6, 52, 0
8, 211392, Note_on_c, 6, 40, 100
8, 211968, Note_on_c, 6, 40, 0
8, 211968, Note_on_c, 6, 52, 100
8, 212544, Note_on_c, 6, 52, 0
8, 212544, Note_on_c, 6, 51, 100
8, 213120, Note_on_c, 6, 51, 0
8, 213120, Note_on_c, 6, 47, 100
8, 213696, Note_on_c, 6, 47, 0
8, 213696, Note_on_c, 6, 51, 100
8, 214272, Note_on_c, 6, 51, 0
8, 214272, Note_on_c, 6, 52, 100
8, 214848, Note_on_c, 6, 52, 0
8, 215808, Note_on_c, 6, 52, 100
8, 216000, Note_on_c, 6, 52, 0
8, 216000, Note_on_c, 6, 57, 100
8, 216192, Note_on_c, 6, 57, 0
8, 216192, Note_on_c, 6, 55, 100
8, 216384, Note_on_c, 6, 55, 0
8, 216384, Note_on_c, 6, 53, 100
8, 216576, Note_on_c, 6, 53, 0
8, 216576, Note_on_c, 6, 52, 100
8, 216768, Note_on_c, 6, 52, 0
8, 216768, Note_on_c, 6, 50, 100
8, 216960, Note_on_c, 6, 50, 0
8, 216960, Note_on_c, 6, 48, 100
8, 217152, Note_on_c, 6, 48, 0
8, 217152, Note_on_c, 6, 47, 100
8, 217344, Note_on_c, 6, 47, 0
8, 217344, Note_on_c, 6, 48, 100
8, 217536, Note_on_c, 6, 48, 0
8, 217536, Note_on_c, 6, 50, 100
8, 217728, Note_on_c, 6, 50, 0
8, 217728, Note_on_c, 6, 48, 100
8, 217920, Note_on_c, 6, 48, 0
8, 217920, Note_on_c, 6, 47, 100
8, 218112, Note_on_c, 6, 47, 0
8, 218112, Note_on_c, 6, 48, 100
8, 218304, Note_on_c, 6, 48, 0
8, 218304, Note_on_c, 6, 45, 100
8, 218496, Note_on_c, 6, 45, 0
8, 218496, Note_on_c, 6, 47, 100
8, 218688, Note_on_c, 6, 47, 0
8, 218688, Note_on_c, 6, 48, 100
8, 218880, Note_on_c, 6, 48, 0
8, 218880, Note_on_c, 6, 40, 100
8, 219072, Note_on_c, 6, 40, 0
8, 219072, Note_on_c, 6, 45, 100
8, 219264, Note_on_c, 6, 45, 0
8, 219264, Note_on_c, 6, 48, 100
8, 219456, Note_on_c, 6, 48, 0
8, 219456, Note_on_c, 6, 47, 100
8, 219648, Note_on_c, 6, 47, 0
8, 219648, Note_on_c, 6, 45, 100
8, 219840, Note_on_c, 6, 45, 0
8, 219840, Note_on_c, 6, 47, 100
8, 220032, Note_on_c, 6, 47, 0
8, 220032, Note_on_c, 6, 44, 100
8, 220224, Note_on_c, 6, 44, 0
8, 220224, Note_on_c, 6, 45, 100
8, 220416, Note_on_c, 6, 45, 0
8, 220416, Note_on_c, 6, 47, 100
8, 220608, Note_on_c, 6, 47, 0
8, 220608, Note_on_c, 6, 40, 100
8, 220800, Note_on_c, 6, 40, 0
8, 220800, Note_on_c, 6, 47, 100
8, 220992, Note_on_c, 6, 47, 0
8, 220992, Note_on_c, 6, 50, 100
8, 221184, Note_on_c, 6, 50, 0
8, 221184, Note_on_c, 6, 48, 100
8, 221376, Note_on_c, 6, 48, 0
8, 221376, Note_on_c, 6, 47, 100
8, 221568, Note_on_c, 6, 47, 0
8, 221568, Note_on_c, 6, 48, 100
8, 221760, Note_on_c, 6, 48, 0
8, 221760, Note_on_c, 6, 45, 100
8, 221952, Note_on_c, 6, 45, 0
8, 221952, Note_on_c, 6, 48, 100
8, 222144, Note_on_c, 6, 48, 0
8, 222144, Note_on_c, 6, 52, 100
8, 222336, Note_on_c, 6, 52, 0
8, 222336, Note_on_c, 6, 55, 100
8, 222528, Note_on_c, 6, 55, 0
8, 222528, Note_on_c, 6, 53, 100
8, 222720, Note_on_c, 6, 53, 0
8, 222720, Note_on_c, 6, 52, 100
8, 222912, Note_on_c, 6, 52, 0
8, 222912, Note_on_c, 6, 53, 100
8, 223488, Note_on_c, 6, 53, 0
8, 223872, Note_on_c, 6, 50, 100
8, 224064, Note_on_c, 6, 50, 0
8, 224064, Note_on_c, 6, 52, 100
8, 224448, Note_on_c, 6, 52, 0
8, 224448, Note_on_c, 6, 54, 100
8, 224640, Note_on_c, 6, 54, 0
8, 224640, Note_on_c, 6, 55, 100
8, 225216, Note_on_c, 6, 55, 0
8, 225600, Note_on_c, 6, 43, 100
8, 225792, Note_on_c, 6, 43, 0
8, 225792, Note_on_c, 6, 45, 100
8, 226176, Note_on_c, 6, 45, 0
8, 226176, Note_on_c, 6, 47, 100
8, 226368, Note_on_c, 6, 47, 0
8, 226368, Note_on_c, 6, 48, 100
8, 226752, Note_on_c, 6, 48, 0
8, 226752, Note_on_c, 6, 50, 100
8, 226944, Note_on_c, 6, 50, 0
8, 226944, Note_on_c, 6, 52, 100
8, 227136, Note_on_c, 6, 52, 0
8, 227136, Note_on_c, 6, 50, 100
8, 227328, Note_on_c, 6, 50, 0
8, 227328, Note_on_c, 6, 48, 100
8, 227520, Note_on_c, 6, 48, 0
8, 227520, Note_on_c, 6, 55, 100
8, 227904, Note_on_c, 6, 55, 0
8, 227904, Note_on_c, 6, 55, 100
8, 228096, Note_on_c, 6, 55, 0
8, 228096, Note_on_c, 6, 55, 100
8, 228288, Note_on_c, 6, 55, 0
8, 228288, Note_on_c, 6, 53, 100
8, 228480, Note_on_c, 6, 53, 0
8, 228480, Note_on_c, 6, 55, 100
8, 228672, Note_on_c, 6, 55, 0
8, 228672, Note_on_c, 6, 52, 100
8, 228864, Note_on_c, 6, 52, 0
8, 228864, Note_on_c, 6, 50, 100
8, 229056, Note_on_c, 6, 50, 0
8, 229056, Note_on_c, 6, 48, 100
8, 229248, Note_on_c, 6, 48, 0
8, 229248, Note_on_c, 6, 55, 100
8, 229632, Note_on_c, 6, 55, 0
8, 229632, Note_on_c, 6, 55, 100
8, 229824, Note_on_c, 6, 55, 0
8, 229824, Note_on_c, 6, 55, 100
8, 230208, Note_on_c, 6, 55, 0
8, 230208, Note_on_c, 6, 55, 100
8, 230400, Note_on_c, 6, 55, 0
8, 230400, Note_on_c, 6, 55, 100
8, 230784, Note_on_c, 6, 55, 0
8, 230784, Note_on_c, 6, 55, 100
8, 230976, Note_on_c, 6, 55, 0
8, 230976, Note_on_c, 6, 55, 100
8, 231360, Note_on_c, 6, 55, 0
8, 231360, Note_on_c, 6, 55, 100
8, 231552, Note_on_c, 6, 55, 0
8, 231552, Note_on_c, 6, 48, 100
8, 231936, Note_on_c, 6, 48, 0
8, 232512, Note_on_c, 6, 50, 100
8, 232704, Note_on_c, 6, 50, 0
8, 232704, Note_on_c, 6, 52, 100
8, 233088, Note_on_c, 6, 52, 0
8, 233088, Note_on_c, 6, 53, 100
8, 233280, Note_on_c, 6, 53, 0
8, 233280, Note_on_c, 6, 44, 100
8, 233664, Note_on_c, 6, 44, 0
8, 234240, Note_on_c, 6, 40, 100
8, 234432, Note_on_c, 6, 40, 0
8, 234432, Note_on_c, 6, 42, 100
8, 234816, Note_on_c, 6, 42, 0
8, 234816, Note_on_c, 6, 44, 100
8, 235008, Note_on_c, 6, 44, 0
8, 235008, Note_on_c, 6, 45, 100
8, 235584, Note_on_c, 6, 45, 0
8, 235968, Note_on_c, 6, 57, 100
8, 236160, Note_on_c, 6, 57, 0
8, 236160, Note_on_c, 6, 59, 100
8, 236544, Note_on_c, 6, 59, 0
8, 236544, Note_on_c, 6, 61, 100
8, 236736, Note_on_c, 6, 61, 0
8, 236736, Note_on_c, 6, 62, 100
8, 237120, Note_on_c, 6, 62, 0
8, 237120, Note_on_c, 6, 50, 100
8, 237312, Note_on_c, 6, 50, 0
8, 237312, Note_on_c, 6, 50, 100
8, 237696, Note_on_c, 6, 50, 0
8, 237696, Note_on_c, 6, 62, 100
8, 237888, Note_on_c, 6, 62, 0
8, 237888, Note_on_c, 6, 62, 100
8, 238080, Note_on_c, 6, 62, 0
8, 238080, Note_on_c, 6, 61, 100
8, 238272, Note_on_c, 6, 61, 0
8, 238272, Note_on_c, 6, 62, 100
8, 238464, Note_on_c, 6, 62, 0
8, 238464, Note_on_c, 6, 60, 100
8, 238848, Note_on_c, 6, 60, 0
8, 238848, Note_on_c, 6, 48, 100
8, 239040, Note_on_c, 6, 48, 0
8, 239040, Note_on_c, 6, 48, 100
8, 239424, Note_on_c, 6, 48, 0
8, 239424, Note_on_c, 6, 60, 100
8, 239616, Note_on_c, 6, 60, 0
8, 239616, Note_on_c, 6, 60, 100
8, 239808, Note_on_c, 6, 60, 0
8, 239808, Note_on_c, 6, 59, 100
8, 240000, Note_on_c, 6, 59, 0
8, 240000, Note_on_c, 6, 60, 100
8, 240192, Note_on_c, 6, 60, 0
8, 240192, Note_on_c, 6, 59, 100
8, 240384, Note_on_c, 6, 59, 0
8, 240384, Note_on_c, 6, 57, 100
8, 240576, Note_on_c, 6, 57, 0
8, 240576, Note_on_c, 6, 59, 100
8, 240768, Note_on_c, 6, 59, 0
8, 240768, Note_on_c, 6, 56, 100
8, 240960, Note_on_c, 6, 56, 0
8, 240960, Note_on_c, 6, 57, 100
8, 241152, Note_on_c, 6, 57, 0
8, 241152, Note_on_c, 6, 59, 100
8, 241344, Note_on_c, 6, 59, 0
8, 241344, Note_on_c, 6, 52, 100
8, 241536, Note_on_c, 6, 52, 0
8, 241536, Note_on_c, 6, 56, 100
8, 241728, Note_on_c, 6, 56, 0
8, 241728, Note_on_c, 6, 59, 100
8, 241920, Note_on_c, 6, 59, 0
8, 241920, Note_on_c, 6, 48, 100
8, 242880, Note_on_c, 6, 48, 0
8, 242880, Note_on_c, 6, 50, 100
8, 243072, Note_on_c, 6, 50, 0
8, 243072, Note_on_c, 6, 52, 100
8, 243456, Note_on_c, 6, 52, 0
8, 243456, Note_on_c, 6, 40, 100
8, 243648, Note_on_c, 6, 40, 0
8, 243648, Note_on_c, 6, 45, 100
8, 244800, Note_on_c, 6, 45, 0
8, 244800, End_track
9, 0, Start_track
9, 0, MIDI_port, 0
9, 0, Title_t, "------------------------------------------"
9, 0, End_track
10, 0, Start_track
10, 0, MIDI_port, 0
10, 0, Title_t, "Johann Sebastian Bach  (1685-1750)"
10, 0, End_track
11, 0, Start_track
11, 0, MIDI_port, 0
11, 0, Title_t, "Violin Concerto No. 1 in A minor - BWV 1041"
11, 0, End_track
12, 0, Start_track
12, 0, MIDI_port, 0
12, 0, Title_t, "3rd Movement: Allegro assai"
12, 0, End_track
13, 0, Start_track
13, 0, MIDI_port, 0
13, 0, Title_t, "------------------------------------------"
13, 0, End_track
0, 0, End_of_file
