0, 0, Header, 1, 17, 120
1, 0, Start_track
1, 0, Time_signature, 4, 2, 24, 8
1, 0, Key_signature, -3, "major"
1, 0, Tempo, 631579
1, 0, Marker_t, "1º Movimiento Vivace"
1, 42605, Tempo, 1333333
1, 42720, Time_signature, 12, 3, 12, 8
1, 42720, Marker_t, "2º movimiento Largo ma non tanto"
1, 79315, Tempo, 621762
1, 79440, Time_signature, 1, 3, 12, 8
1, 79440, Marker_t, "3º Movimiento Allegro"
1, 79495, Tempo, 615385
1, 79500, Time_signature, 3, 2, 24, 8
1, 79500, End_track
2, 0, Start_track
2, 0, MIDI_port, 0
2, 0, Title_t, "violin i"
2, 0, Program_c, 0, 48
2, 0, Control_c, 0, 7, 110
2, 0, Control_c, 0, 10, 96
2, 1920, Note_on_c, 0, 67, 120
2, 1950, Note_on_c, 0, 67, 0
2, 1950, Note_on_c, 0, 69, 120
2, 1980, Note_on_c, 0, 69, 0
2, 1980, Note_on_c, 0, 70, 120
2, 2010, Note_on_c, 0, 70, 0
2, 2010, Note_on_c, 0, 72, 120
2, 2040, Note_on_c, 0, 72, 0
2, 2040, Note_on_c, 0, 74, 120
2, 2100, Note_on_c, 0, 74, 0
2, 2100, Note_on_c, 0, 79, 120
2, 2160, Note_on_c, 0, 79, 0
2, 2160, Note_on_c, 0, 78, 120
2, 2220, Note_on_c, 0, 78, 0
2, 2220, Note_on_c, 0, 74, 120
2, 2280, Note_on_c, 0, 74, 0
2, 2280, Note_on_c, 0, 69, 120
2, 2340, Note_on_c, 0, 69, 0
2, 2340, Note_on_c, 0, 72, 120
2, 2400, Note_on_c, 0, 72, 0
2, 2400, Note_on_c, 0, 71, 120
2, 2460, Note_on_c, 0, 71, 0
2, 2460, Note_on_c, 0, 67, 120
2, 2520, Note_on_c, 0, 67, 0
2, 2520, Note_on_c, 0, 77, 120
2, 2700, Note_on_c, 0, 77, 0
2, 2700, Note_on_c, 0, 76, 120
2, 2730, Note_on_c, 0, 76, 0
2, 2730, Note_on_c, 0, 74, 120
2, 2760, Note_on_c, 0, 74, 0
2, 2760, Note_on_c, 0, 76, 120
2, 2820, Note_on_c, 0, 76, 0
2, 2820, Note_on_c, 0, 72, 120
2, 2880, Note_on_c, 0, 72, 0
2, 2880, Note_on_c, 0, 69, 120
2, 2940, Note_on_c, 0, 69, 0
2, 2940, Note_on_c, 0, 72, 120
2, 3000, Note_on_c, 0, 72, 0
2, 3000, Note_on_c, 0, 75, 120
2, 3060, Note_on_c, 0, 75, 0
2, 3060, Note_on_c, 0, 67, 120
2, 3120, Note_on_c, 0, 67, 0
2, 3120, Note_on_c, 0, 66, 120
2, 3180, Note_on_c, 0, 66, 0
2, 3180, Note_on_c, 0, 74, 120
2, 3240, Note_on_c, 0, 74, 0
2, 3240, Note_on_c, 0, 67, 120
2, 3300, Note_on_c, 0, 67, 0
2, 3300, Note_on_c, 0, 72, 120
2, 3360, Note_on_c, 0, 72, 0
2, 3360, Note_on_c, 0, 70, 120
2, 3480, Note_on_c, 0, 70, 0
2, 3480, Note_on_c, 0, 69, 120
2, 3600, Note_on_c, 0, 69, 0
2, 3600, Note_on_c, 0, 67, 120
2, 3630, Note_on_c, 0, 67, 0
2, 3630, Note_on_c, 0, 66, 120
2, 3660, Note_on_c, 0, 66, 0
2, 3660, Note_on_c, 0, 67, 120
2, 3690, Note_on_c, 0, 67, 0
2, 3690, Note_on_c, 0, 69, 120
2, 3720, Note_on_c, 0, 69, 0
2, 3720, Note_on_c, 0, 70, 120
2, 3750, Note_on_c, 0, 70, 0
2, 3750, Note_on_c, 0, 72, 120
2, 3780, Note_on_c, 0, 72, 0
2, 3780, Note_on_c, 0, 74, 120
2, 3810, Note_on_c, 0, 74, 0
2, 3810, Note_on_c, 0, 75, 120
2, 3840, Note_on_c, 0, 75, 0
2, 3840, Note_on_c, 0, 77, 120
2, 3900, Note_on_c, 0, 77, 0
2, 3900, Note_on_c, 0, 65, 120
2, 3960, Note_on_c, 0, 65, 0
2, 3960, Note_on_c, 0, 77, 120
2, 4140, Note_on_c, 0, 77, 0
2, 4140, Note_on_c, 0, 74, 120
2, 4200, Note_on_c, 0, 74, 0
2, 4200, Note_on_c, 0, 67, 120
2, 4260, Note_on_c, 0, 67, 0
2, 4260, Note_on_c, 0, 77, 120
2, 4320, Note_on_c, 0, 77, 0
2, 4320, Note_on_c, 0, 75, 120
2, 4350, Note_on_c, 0, 75, 0
2, 4350, Note_on_c, 0, 74, 120
2, 4380, Note_on_c, 0, 74, 0
2, 4380, Note_on_c, 0, 72, 120
2, 4410, Note_on_c, 0, 72, 0
2, 4410, Note_on_c, 0, 74, 120
2, 4440, Note_on_c, 0, 74, 0
2, 4440, Note_on_c, 0, 75, 120
2, 4470, Note_on_c, 0, 75, 0
2, 4470, Note_on_c, 0, 74, 120
2, 4500, Note_on_c, 0, 74, 0
2, 4500, Note_on_c, 0, 75, 120
2, 4530, Note_on_c, 0, 75, 0
2, 4530, Note_on_c, 0, 77, 120
2, 4560, Note_on_c, 0, 77, 0
2, 4560, Note_on_c, 0, 79, 120
2, 4620, Note_on_c, 0, 79, 0
2, 4620, Note_on_c, 0, 74, 120
2, 4680, Note_on_c, 0, 74, 0
2, 4680, Note_on_c, 0, 79, 120
2, 4830, Note_on_c, 0, 79, 0
2, 4830, Note_on_c, 0, 77, 120
2, 4860, Note_on_c, 0, 77, 0
2, 4860, Note_on_c, 0, 76, 120
2, 4890, Note_on_c, 0, 76, 0
2, 4890, Note_on_c, 0, 74, 120
2, 4920, Note_on_c, 0, 74, 0
2, 4920, Note_on_c, 0, 76, 120
2, 4950, Note_on_c, 0, 76, 0
2, 4950, Note_on_c, 0, 72, 120
2, 4980, Note_on_c, 0, 72, 0
2, 4980, Note_on_c, 0, 74, 120
2, 5010, Note_on_c, 0, 74, 0
2, 5010, Note_on_c, 0, 76, 120
2, 5040, Note_on_c, 0, 76, 0
2, 5040, Note_on_c, 0, 77, 120
2, 5100, Note_on_c, 0, 77, 0
2, 5100, Note_on_c, 0, 72, 120
2, 5160, Note_on_c, 0, 72, 0
2, 5160, Note_on_c, 0, 77, 120
2, 5310, Note_on_c, 0, 77, 0
2, 5310, Note_on_c, 0, 75, 120
2, 5340, Note_on_c, 0, 75, 0
2, 5340, Note_on_c, 0, 74, 120
2, 5370, Note_on_c, 0, 74, 0
2, 5370, Note_on_c, 0, 75, 120
2, 5400, Note_on_c, 0, 75, 0
2, 5400, Note_on_c, 0, 77, 120
2, 5430, Note_on_c, 0, 77, 0
2, 5430, Note_on_c, 0, 79, 120
2, 5460, Note_on_c, 0, 79, 0
2, 5460, Note_on_c, 0, 80, 120
2, 5490, Note_on_c, 0, 80, 0
2, 5490, Note_on_c, 0, 77, 120
2, 5520, Note_on_c, 0, 77, 0
2, 5520, Note_on_c, 0, 79, 120
2, 5550, Note_on_c, 0, 79, 0
2, 5550, Note_on_c, 0, 80, 120
2, 5580, Note_on_c, 0, 80, 0
2, 5580, Note_on_c, 0, 79, 120
2, 5610, Note_on_c, 0, 79, 0
2, 5610, Note_on_c, 0, 77, 120
2, 5640, Note_on_c, 0, 77, 0
2, 5640, Note_on_c, 0, 75, 120
2, 5670, Note_on_c, 0, 75, 0
2, 5670, Note_on_c, 0, 74, 120
2, 5700, Note_on_c, 0, 74, 0
2, 5700, Note_on_c, 0, 72, 120
2, 5730, Note_on_c, 0, 72, 0
2, 5730, Note_on_c, 0, 71, 120
2, 5760, Note_on_c, 0, 71, 0
2, 5760, Note_on_c, 0, 72, 120
2, 5819, Note_on_c, 0, 72, 0
2, 5820, Note_on_c, 0, 84, 120
2, 5939, Note_on_c, 0, 84, 0
2, 5940, Note_on_c, 0, 83, 120
2, 5999, Note_on_c, 0, 83, 0
2, 6000, Note_on_c, 0, 84, 120
2, 6119, Note_on_c, 0, 84, 0
2, 6180, Note_on_c, 0, 75, 120
2, 6239, Note_on_c, 0, 75, 0
2, 6240, Note_on_c, 0, 74, 120
2, 6299, Note_on_c, 0, 74, 0
2, 6300, Note_on_c, 0, 79, 120
2, 6359, Note_on_c, 0, 79, 0
2, 6360, Note_on_c, 0, 67, 120
2, 6539, Note_on_c, 0, 67, 0
2, 6540, Note_on_c, 0, 72, 120
2, 6569, Note_on_c, 0, 72, 0
2, 6570, Note_on_c, 0, 74, 120
2, 6599, Note_on_c, 0, 74, 0
2, 6600, Note_on_c, 0, 76, 120
2, 6629, Note_on_c, 0, 76, 0
2, 6630, Note_on_c, 0, 77, 120
2, 6659, Note_on_c, 0, 77, 0
2, 6660, Note_on_c, 0, 79, 120
2, 6689, Note_on_c, 0, 79, 0
2, 6690, Note_on_c, 0, 76, 120
2, 6719, Note_on_c, 0, 76, 0
2, 6720, Note_on_c, 0, 77, 120
2, 6779, Note_on_c, 0, 77, 0
2, 6780, Note_on_c, 0, 72, 120
2, 6809, Note_on_c, 0, 72, 0
2, 6810, Note_on_c, 0, 70, 120
2, 6839, Note_on_c, 0, 70, 0
2, 6840, Note_on_c, 0, 72, 120
2, 6869, Note_on_c, 0, 72, 0
2, 6870, Note_on_c, 0, 69, 120
2, 6899, Note_on_c, 0, 69, 0
2, 6900, Note_on_c, 0, 70, 120
2, 6929, Note_on_c, 0, 70, 0
2, 6930, Note_on_c, 0, 72, 120
2, 6959, Note_on_c, 0, 72, 0
2, 6960, Note_on_c, 0, 65, 120
2, 7019, Note_on_c, 0, 65, 0
2, 7020, Note_on_c, 0, 70, 120
2, 7079, Note_on_c, 0, 70, 0
2, 7080, Note_on_c, 0, 77, 120
2, 7259, Note_on_c, 0, 77, 0
2, 7260, Note_on_c, 0, 76, 120
2, 7289, Note_on_c, 0, 76, 0
2, 7290, Note_on_c, 0, 77, 120
2, 7319, Note_on_c, 0, 77, 0
2, 7320, Note_on_c, 0, 79, 120
2, 7379, Note_on_c, 0, 79, 0
2, 7380, Note_on_c, 0, 70, 120
2, 7499, Note_on_c, 0, 70, 0
2, 7500, Note_on_c, 0, 68, 120
2, 7529, Note_on_c, 0, 68, 0
2, 7530, Note_on_c, 0, 70, 120
2, 7559, Note_on_c, 0, 70, 0
2, 7560, Note_on_c, 0, 72, 120
2, 7619, Note_on_c, 0, 72, 0
2, 7620, Note_on_c, 0, 79, 120
2, 7739, Note_on_c, 0, 79, 0
2, 7740, Note_on_c, 0, 77, 120
2, 7859, Note_on_c, 0, 77, 0
2, 7860, Note_on_c, 0, 75, 120
2, 7979, Note_on_c, 0, 75, 0
2, 7980, Note_on_c, 0, 74, 120
2, 8009, Note_on_c, 0, 74, 0
2, 8010, Note_on_c, 0, 72, 120
2, 8039, Note_on_c, 0, 72, 0
2, 8040, Note_on_c, 0, 71, 120
2, 8069, Note_on_c, 0, 71, 0
2, 8070, Note_on_c, 0, 72, 120
2, 8099, Note_on_c, 0, 72, 0
2, 8100, Note_on_c, 0, 69, 120
2, 8129, Note_on_c, 0, 69, 0
2, 8130, Note_on_c, 0, 71, 120
2, 8159, Note_on_c, 0, 71, 0
2, 8160, Note_on_c, 0, 72, 120
2, 8189, Note_on_c, 0, 72, 0
2, 8190, Note_on_c, 0, 74, 120
2, 8219, Note_on_c, 0, 74, 0
2, 8220, Note_on_c, 0, 75, 120
2, 8249, Note_on_c, 0, 75, 0
2, 8250, Note_on_c, 0, 77, 120
2, 8279, Note_on_c, 0, 77, 0
2, 8280, Note_on_c, 0, 79, 120
2, 8339, Note_on_c, 0, 79, 0
2, 8340, Note_on_c, 0, 84, 120
2, 8399, Note_on_c, 0, 84, 0
2, 8400, Note_on_c, 0, 83, 120
2, 8459, Note_on_c, 0, 83, 0
2, 8460, Note_on_c, 0, 79, 120
2, 8519, Note_on_c, 0, 79, 0
2, 8520, Note_on_c, 0, 74, 120
2, 8579, Note_on_c, 0, 74, 0
2, 8580, Note_on_c, 0, 77, 120
2, 8639, Note_on_c, 0, 77, 0
2, 8640, Note_on_c, 0, 76, 120
2, 8699, Note_on_c, 0, 76, 0
2, 8700, Note_on_c, 0, 72, 120
2, 8759, Note_on_c, 0, 72, 0
2, 8760, Note_on_c, 0, 82, 120
2, 8939, Note_on_c, 0, 82, 0
2, 8940, Note_on_c, 0, 81, 120
2, 8969, Note_on_c, 0, 81, 0
2, 8970, Note_on_c, 0, 79, 120
2, 8999, Note_on_c, 0, 79, 0
2, 9000, Note_on_c, 0, 81, 120
2, 9059, Note_on_c, 0, 81, 0
2, 9060, Note_on_c, 0, 77, 120
2, 9119, Note_on_c, 0, 77, 0
2, 9120, Note_on_c, 0, 74, 120
2, 9179, Note_on_c, 0, 74, 0
2, 9180, Note_on_c, 0, 77, 120
2, 9239, Note_on_c, 0, 77, 0
2, 9240, Note_on_c, 0, 80, 120
2, 9299, Note_on_c, 0, 80, 0
2, 9300, Note_on_c, 0, 72, 120
2, 9359, Note_on_c, 0, 72, 0
2, 9360, Note_on_c, 0, 71, 120
2, 9419, Note_on_c, 0, 71, 0
2, 9420, Note_on_c, 0, 79, 120
2, 9479, Note_on_c, 0, 79, 0
2, 9480, Note_on_c, 0, 72, 120
2, 9539, Note_on_c, 0, 72, 0
2, 9540, Note_on_c, 0, 77, 120
2, 9599, Note_on_c, 0, 77, 0
2, 9600, Note_on_c, 0, 75, 120
2, 9719, Note_on_c, 0, 75, 0
2, 9720, Note_on_c, 0, 74, 120
2, 9839, Note_on_c, 0, 74, 0
2, 9840, Note_on_c, 0, 72, 120
2, 9959, Note_on_c, 0, 72, 0
2, 10080, Note_on_c, 0, 72, 120
2, 10140, Note_on_c, 0, 72, 0
2, 10200, Note_on_c, 0, 74, 120
2, 10260, Note_on_c, 0, 74, 0
2, 10320, Note_on_c, 0, 75, 120
2, 10380, Note_on_c, 0, 75, 0
2, 10560, Note_on_c, 0, 77, 120
2, 10620, Note_on_c, 0, 77, 0
2, 10680, Note_on_c, 0, 79, 120
2, 10740, Note_on_c, 0, 79, 0
2, 10800, Note_on_c, 0, 80, 120
2, 10860, Note_on_c, 0, 80, 0
2, 12000, Note_on_c, 0, 72, 120
2, 12060, Note_on_c, 0, 72, 0
2, 12120, Note_on_c, 0, 74, 120
2, 12180, Note_on_c, 0, 74, 0
2, 12240, Note_on_c, 0, 75, 120
2, 12300, Note_on_c, 0, 75, 0
2, 12480, Note_on_c, 0, 77, 120
2, 12540, Note_on_c, 0, 77, 0
2, 12600, Note_on_c, 0, 79, 120
2, 12660, Note_on_c, 0, 79, 0
2, 12720, Note_on_c, 0, 80, 120
2, 12780, Note_on_c, 0, 80, 0
2, 13920, Note_on_c, 0, 60, 120
2, 13950, Note_on_c, 0, 60, 0
2, 13950, Note_on_c, 0, 62, 120
2, 13980, Note_on_c, 0, 62, 0
2, 13980, Note_on_c, 0, 63, 120
2, 14010, Note_on_c, 0, 63, 0
2, 14010, Note_on_c, 0, 65, 120
2, 14040, Note_on_c, 0, 65, 0
2, 14040, Note_on_c, 0, 67, 120
2, 14100, Note_on_c, 0, 67, 0
2, 14100, Note_on_c, 0, 72, 120
2, 14160, Note_on_c, 0, 72, 0
2, 14160, Note_on_c, 0, 69, 120
2, 14220, Note_on_c, 0, 69, 0
2, 14220, Note_on_c, 0, 65, 120
2, 14280, Note_on_c, 0, 65, 0
2, 14400, Note_on_c, 0, 58, 120
2, 14430, Note_on_c, 0, 58, 0
2, 14430, Note_on_c, 0, 60, 120
2, 14460, Note_on_c, 0, 60, 0
2, 14460, Note_on_c, 0, 62, 120
2, 14490, Note_on_c, 0, 62, 0
2, 14490, Note_on_c, 0, 63, 120
2, 14520, Note_on_c, 0, 63, 0
2, 14520, Note_on_c, 0, 65, 120
2, 14580, Note_on_c, 0, 65, 0
2, 14580, Note_on_c, 0, 70, 120
2, 14640, Note_on_c, 0, 70, 0
2, 14640, Note_on_c, 0, 67, 120
2, 14700, Note_on_c, 0, 67, 0
2, 14700, Note_on_c, 0, 63, 120
2, 14760, Note_on_c, 0, 63, 0
2, 14940, Note_on_c, 0, 75, 120
2, 15000, Note_on_c, 0, 75, 0
2, 15000, Note_on_c, 0, 77, 120
2, 15060, Note_on_c, 0, 77, 0
2, 15180, Note_on_c, 0, 77, 120
2, 15240, Note_on_c, 0, 77, 0
2, 15240, Note_on_c, 0, 79, 120
2, 15300, Note_on_c, 0, 79, 0
2, 15420, Note_on_c, 0, 67, 120
2, 15480, Note_on_c, 0, 67, 0
2, 15480, Note_on_c, 0, 68, 120
2, 15540, Note_on_c, 0, 68, 0
2, 15660, Note_on_c, 0, 68, 120
2, 15720, Note_on_c, 0, 68, 0
2, 15720, Note_on_c, 0, 70, 120
2, 15780, Note_on_c, 0, 70, 0
2, 15840, Note_on_c, 0, 63, 120
2, 15870, Note_on_c, 0, 63, 0
2, 15870, Note_on_c, 0, 65, 120
2, 15900, Note_on_c, 0, 65, 0
2, 15900, Note_on_c, 0, 67, 120
2, 15930, Note_on_c, 0, 67, 0
2, 15930, Note_on_c, 0, 68, 120
2, 15960, Note_on_c, 0, 68, 0
2, 15960, Note_on_c, 0, 70, 120
2, 16020, Note_on_c, 0, 70, 0
2, 16020, Note_on_c, 0, 75, 120
2, 16080, Note_on_c, 0, 75, 0
2, 16080, Note_on_c, 0, 72, 120
2, 16140, Note_on_c, 0, 72, 0
2, 16140, Note_on_c, 0, 69, 120
2, 16200, Note_on_c, 0, 69, 0
2, 16320, Note_on_c, 0, 62, 120
2, 16350, Note_on_c, 0, 62, 0
2, 16350, Note_on_c, 0, 64, 120
2, 16380, Note_on_c, 0, 64, 0
2, 16380, Note_on_c, 0, 66, 120
2, 16410, Note_on_c, 0, 66, 0
2, 16410, Note_on_c, 0, 67, 120
2, 16440, Note_on_c, 0, 67, 0
2, 16440, Note_on_c, 0, 69, 120
2, 16500, Note_on_c, 0, 69, 0
2, 16500, Note_on_c, 0, 74, 120
2, 16560, Note_on_c, 0, 74, 0
2, 16560, Note_on_c, 0, 71, 120
2, 16620, Note_on_c, 0, 71, 0
2, 16620, Note_on_c, 0, 67, 120
2, 16680, Note_on_c, 0, 67, 0
2, 16860, Note_on_c, 0, 75, 120
2, 16920, Note_on_c, 0, 75, 0
2, 16920, Note_on_c, 0, 75, 120
2, 16980, Note_on_c, 0, 75, 0
2, 17100, Note_on_c, 0, 74, 120
2, 17160, Note_on_c, 0, 74, 0
2, 17160, Note_on_c, 0, 74, 120
2, 17220, Note_on_c, 0, 74, 0
2, 17340, Note_on_c, 0, 72, 120
2, 17400, Note_on_c, 0, 72, 0
2, 17400, Note_on_c, 0, 72, 120
2, 17460, Note_on_c, 0, 72, 0
2, 17580, Note_on_c, 0, 72, 120
2, 17640, Note_on_c, 0, 72, 0
2, 17640, Note_on_c, 0, 72, 120
2, 17700, Note_on_c, 0, 72, 0
2, 17760, Note_on_c, 0, 70, 120
2, 17820, Note_on_c, 0, 70, 0
2, 17880, Note_on_c, 0, 66, 120
2, 17940, Note_on_c, 0, 66, 0
2, 18000, Note_on_c, 0, 67, 120
2, 18060, Note_on_c, 0, 67, 0
2, 18240, Note_on_c, 0, 75, 120
2, 18300, Note_on_c, 0, 75, 0
2, 18360, Note_on_c, 0, 71, 120
2, 18420, Note_on_c, 0, 71, 0
2, 18480, Note_on_c, 0, 72, 120
2, 18540, Note_on_c, 0, 72, 0
2, 19680, Note_on_c, 0, 67, 120
2, 19740, Note_on_c, 0, 67, 0
2, 19800, Note_on_c, 0, 69, 120
2, 19860, Note_on_c, 0, 69, 0
2, 19920, Note_on_c, 0, 70, 120
2, 19980, Note_on_c, 0, 70, 0
2, 20160, Note_on_c, 0, 72, 120
2, 20220, Note_on_c, 0, 72, 0
2, 20280, Note_on_c, 0, 74, 120
2, 20340, Note_on_c, 0, 74, 0
2, 20400, Note_on_c, 0, 75, 120
2, 20460, Note_on_c, 0, 75, 0
2, 21600, Note_on_c, 0, 67, 120
2, 21630, Note_on_c, 0, 67, 0
2, 21630, Note_on_c, 0, 69, 120
2, 21660, Note_on_c, 0, 69, 0
2, 21660, Note_on_c, 0, 70, 120
2, 21690, Note_on_c, 0, 70, 0
2, 21690, Note_on_c, 0, 72, 120
2, 21720, Note_on_c, 0, 72, 0
2, 21720, Note_on_c, 0, 74, 120
2, 21780, Note_on_c, 0, 74, 0
2, 21780, Note_on_c, 0, 79, 120
2, 21840, Note_on_c, 0, 79, 0
2, 21840, Note_on_c, 0, 78, 120
2, 21900, Note_on_c, 0, 78, 0
2, 21900, Note_on_c, 0, 74, 120
2, 21960, Note_on_c, 0, 74, 0
2, 21960, Note_on_c, 0, 69, 120
2, 22020, Note_on_c, 0, 69, 0
2, 22020, Note_on_c, 0, 72, 120
2, 22080, Note_on_c, 0, 72, 0
2, 22080, Note_on_c, 0, 71, 120
2, 22140, Note_on_c, 0, 71, 0
2, 22140, Note_on_c, 0, 67, 120
2, 22200, Note_on_c, 0, 67, 0
2, 22200, Note_on_c, 0, 77, 120
2, 22380, Note_on_c, 0, 77, 0
2, 22380, Note_on_c, 0, 76, 120
2, 22410, Note_on_c, 0, 76, 0
2, 22410, Note_on_c, 0, 74, 120
2, 22440, Note_on_c, 0, 74, 0
2, 22440, Note_on_c, 0, 76, 120
2, 22500, Note_on_c, 0, 76, 0
2, 22500, Note_on_c, 0, 72, 120
2, 22560, Note_on_c, 0, 72, 0
2, 22560, Note_on_c, 0, 69, 120
2, 22620, Note_on_c, 0, 69, 0
2, 22620, Note_on_c, 0, 72, 120
2, 22680, Note_on_c, 0, 72, 0
2, 22680, Note_on_c, 0, 75, 120
2, 22740, Note_on_c, 0, 75, 0
2, 22740, Note_on_c, 0, 67, 120
2, 22800, Note_on_c, 0, 67, 0
2, 22800, Note_on_c, 0, 66, 120
2, 22860, Note_on_c, 0, 66, 0
2, 22860, Note_on_c, 0, 74, 120
2, 22920, Note_on_c, 0, 74, 0
2, 22920, Note_on_c, 0, 67, 120
2, 22980, Note_on_c, 0, 67, 0
2, 22980, Note_on_c, 0, 72, 120
2, 23040, Note_on_c, 0, 72, 0
2, 23040, Note_on_c, 0, 70, 120
2, 23160, Note_on_c, 0, 70, 0
2, 23160, Note_on_c, 0, 69, 120
2, 23280, Note_on_c, 0, 69, 0
2, 23280, Note_on_c, 0, 67, 120
2, 23400, Note_on_c, 0, 67, 0
2, 23520, Note_on_c, 0, 62, 120
2, 24360, Note_on_c, 0, 62, 0
2, 24480, Note_on_c, 0, 67, 120
2, 25320, Note_on_c, 0, 67, 0
2, 25380, Note_on_c, 0, 60, 120
2, 25440, Note_on_c, 0, 60, 0
2, 25440, Note_on_c, 0, 62, 120
2, 25470, Note_on_c, 0, 62, 0
2, 25470, Note_on_c, 0, 60, 120
2, 25500, Note_on_c, 0, 60, 0
2, 25500, Note_on_c, 0, 62, 120
2, 25530, Note_on_c, 0, 62, 0
2, 25530, Note_on_c, 0, 63, 120
2, 25560, Note_on_c, 0, 63, 0
2, 25560, Note_on_c, 0, 62, 120
2, 25590, Note_on_c, 0, 62, 0
2, 25590, Note_on_c, 0, 64, 120
2, 25620, Note_on_c, 0, 64, 0
2, 25620, Note_on_c, 0, 65, 120
2, 25650, Note_on_c, 0, 65, 0
2, 25650, Note_on_c, 0, 62, 120
2, 25680, Note_on_c, 0, 62, 0
2, 25680, Note_on_c, 0, 64, 120
2, 25710, Note_on_c, 0, 64, 0
2, 25710, Note_on_c, 0, 62, 120
2, 25740, Note_on_c, 0, 62, 0
2, 25740, Note_on_c, 0, 64, 120
2, 25770, Note_on_c, 0, 64, 0
2, 25770, Note_on_c, 0, 65, 120
2, 25800, Note_on_c, 0, 65, 0
2, 25800, Note_on_c, 0, 64, 120
2, 25830, Note_on_c, 0, 64, 0
2, 25830, Note_on_c, 0, 65, 120
2, 25860, Note_on_c, 0, 65, 0
2, 25860, Note_on_c, 0, 67, 120
2, 25890, Note_on_c, 0, 67, 0
2, 25890, Note_on_c, 0, 64, 120
2, 25920, Note_on_c, 0, 64, 0
2, 25920, Note_on_c, 0, 65, 120
2, 25979, Note_on_c, 0, 65, 0
2, 25980, Note_on_c, 0, 72, 120
2, 26039, Note_on_c, 0, 72, 0
2, 26100, Note_on_c, 0, 80, 120
2, 26159, Note_on_c, 0, 80, 0
2, 26160, Note_on_c, 0, 79, 120
2, 26189, Note_on_c, 0, 79, 0
2, 26190, Note_on_c, 0, 77, 120
2, 26219, Note_on_c, 0, 77, 0
2, 26220, Note_on_c, 0, 76, 120
2, 26249, Note_on_c, 0, 76, 0
2, 26250, Note_on_c, 0, 74, 120
2, 26279, Note_on_c, 0, 74, 0
2, 26280, Note_on_c, 0, 76, 120
2, 26309, Note_on_c, 0, 76, 0
2, 26310, Note_on_c, 0, 72, 120
2, 26339, Note_on_c, 0, 72, 0
2, 26340, Note_on_c, 0, 74, 120
2, 26369, Note_on_c, 0, 74, 0
2, 26370, Note_on_c, 0, 75, 120
2, 26399, Note_on_c, 0, 75, 0
2, 26400, Note_on_c, 0, 77, 120
2, 26460, Note_on_c, 0, 77, 0
2, 26460, Note_on_c, 0, 72, 120
2, 26520, Note_on_c, 0, 72, 0
2, 26520, Note_on_c, 0, 77, 120
2, 26670, Note_on_c, 0, 77, 0
2, 26670, Note_on_c, 0, 75, 120
2, 26699, Note_on_c, 0, 75, 0
2, 26700, Note_on_c, 0, 77, 120
2, 26729, Note_on_c, 0, 77, 0
2, 26730, Note_on_c, 0, 79, 120
2, 26759, Note_on_c, 0, 79, 0
2, 26760, Note_on_c, 0, 77, 120
2, 26789, Note_on_c, 0, 77, 0
2, 26790, Note_on_c, 0, 80, 120
2, 26819, Note_on_c, 0, 80, 0
2, 26820, Note_on_c, 0, 79, 120
2, 26849, Note_on_c, 0, 79, 0
2, 26850, Note_on_c, 0, 77, 120
2, 26879, Note_on_c, 0, 77, 0
2, 26880, Note_on_c, 0, 79, 120
2, 26940, Note_on_c, 0, 79, 0
2, 26940, Note_on_c, 0, 67, 120
2, 27000, Note_on_c, 0, 67, 0
2, 27000, Note_on_c, 0, 79, 120
2, 27150, Note_on_c, 0, 79, 0
2, 27150, Note_on_c, 0, 77, 120
2, 27179, Note_on_c, 0, 77, 0
2, 27180, Note_on_c, 0, 76, 120
2, 27209, Note_on_c, 0, 76, 0
2, 27210, Note_on_c, 0, 74, 120
2, 27239, Note_on_c, 0, 74, 0
2, 27240, Note_on_c, 0, 72, 120
2, 27269, Note_on_c, 0, 72, 0
2, 27270, Note_on_c, 0, 70, 120
2, 27299, Note_on_c, 0, 70, 0
2, 27300, Note_on_c, 0, 68, 120
2, 27329, Note_on_c, 0, 68, 0
2, 27330, Note_on_c, 0, 67, 120
2, 27359, Note_on_c, 0, 67, 0
2, 27360, Note_on_c, 0, 68, 120
2, 27449, Note_on_c, 0, 68, 0
2, 27450, Note_on_c, 0, 70, 120
2, 27479, Note_on_c, 0, 70, 0
2, 27480, Note_on_c, 0, 67, 120
2, 27569, Note_on_c, 0, 67, 0
2, 27570, Note_on_c, 0, 65, 120
2, 27599, Note_on_c, 0, 65, 0
2, 27600, Note_on_c, 0, 65, 120
2, 27719, Note_on_c, 0, 65, 0
2, 27840, Note_on_c, 0, 60, 120
2, 28680, Note_on_c, 0, 60, 0
2, 28800, Note_on_c, 0, 65, 120
2, 29640, Note_on_c, 0, 65, 0
2, 29820, Note_on_c, 0, 70, 120
2, 29850, Note_on_c, 0, 70, 0
2, 29850, Note_on_c, 0, 68, 120
2, 29880, Note_on_c, 0, 68, 0
2, 29880, Note_on_c, 0, 70, 120
2, 29940, Note_on_c, 0, 70, 0
2, 30060, Note_on_c, 0, 72, 120
2, 30090, Note_on_c, 0, 72, 0
2, 30090, Note_on_c, 0, 73, 120
2, 30120, Note_on_c, 0, 73, 0
2, 30120, Note_on_c, 0, 72, 120
2, 30180, Note_on_c, 0, 72, 0
2, 30300, Note_on_c, 0, 72, 120
2, 30330, Note_on_c, 0, 72, 0
2, 30330, Note_on_c, 0, 74, 120
2, 30360, Note_on_c, 0, 74, 0
2, 30360, Note_on_c, 0, 76, 120
2, 30420, Note_on_c, 0, 76, 0
2, 30540, Note_on_c, 0, 77, 120
2, 30570, Note_on_c, 0, 77, 0
2, 30570, Note_on_c, 0, 76, 120
2, 30600, Note_on_c, 0, 76, 0
2, 30600, Note_on_c, 0, 77, 120
2, 30660, Note_on_c, 0, 77, 0
2, 30780, Note_on_c, 0, 77, 120
2, 30810, Note_on_c, 0, 77, 0
2, 30810, Note_on_c, 0, 75, 120
2, 30840, Note_on_c, 0, 75, 0
2, 30840, Note_on_c, 0, 77, 120
2, 30900, Note_on_c, 0, 77, 0
2, 31020, Note_on_c, 0, 75, 120
2, 31050, Note_on_c, 0, 75, 0
2, 31050, Note_on_c, 0, 74, 120
2, 31080, Note_on_c, 0, 74, 0
2, 31080, Note_on_c, 0, 72, 120
2, 31140, Note_on_c, 0, 72, 0
2, 31260, Note_on_c, 0, 73, 120
2, 31290, Note_on_c, 0, 73, 0
2, 31290, Note_on_c, 0, 72, 120
2, 31320, Note_on_c, 0, 72, 0
2, 31320, Note_on_c, 0, 70, 120
2, 31380, Note_on_c, 0, 70, 0
2, 31500, Note_on_c, 0, 68, 120
2, 31530, Note_on_c, 0, 68, 0
2, 31530, Note_on_c, 0, 67, 120
2, 31560, Note_on_c, 0, 67, 0
2, 31560, Note_on_c, 0, 68, 120
2, 31620, Note_on_c, 0, 68, 0
2, 31740, Note_on_c, 0, 65, 120
2, 31770, Note_on_c, 0, 65, 0
2, 31770, Note_on_c, 0, 63, 120
2, 31800, Note_on_c, 0, 63, 0
2, 31800, Note_on_c, 0, 62, 120
2, 31860, Note_on_c, 0, 62, 0
2, 31980, Note_on_c, 0, 63, 120
2, 32010, Note_on_c, 0, 63, 0
2, 32010, Note_on_c, 0, 62, 120
2, 32040, Note_on_c, 0, 62, 0
2, 32040, Note_on_c, 0, 60, 120
2, 32100, Note_on_c, 0, 60, 0
2, 32220, Note_on_c, 0, 62, 120
2, 32250, Note_on_c, 0, 62, 0
2, 32250, Note_on_c, 0, 60, 120
2, 32280, Note_on_c, 0, 60, 0
2, 32280, Note_on_c, 0, 59, 120
2, 32340, Note_on_c, 0, 59, 0
2, 32340, Note_on_c, 0, 67, 120
2, 32400, Note_on_c, 0, 67, 0
2, 32400, Note_on_c, 0, 63, 120
2, 32460, Note_on_c, 0, 63, 0
2, 32640, Note_on_c, 0, 65, 120
2, 32670, Note_on_c, 0, 65, 0
2, 32670, Note_on_c, 0, 67, 120
2, 32700, Note_on_c, 0, 67, 0
2, 32700, Note_on_c, 0, 68, 120
2, 32730, Note_on_c, 0, 68, 0
2, 32730, Note_on_c, 0, 70, 120
2, 32760, Note_on_c, 0, 70, 0
2, 32760, Note_on_c, 0, 72, 120
2, 32820, Note_on_c, 0, 72, 0
2, 32820, Note_on_c, 0, 77, 120
2, 32880, Note_on_c, 0, 77, 0
2, 32880, Note_on_c, 0, 74, 120
2, 32940, Note_on_c, 0, 74, 0
2, 32940, Note_on_c, 0, 70, 120
2, 33000, Note_on_c, 0, 70, 0
2, 33120, Note_on_c, 0, 63, 120
2, 33150, Note_on_c, 0, 63, 0
2, 33150, Note_on_c, 0, 65, 120
2, 33180, Note_on_c, 0, 65, 0
2, 33180, Note_on_c, 0, 67, 120
2, 33210, Note_on_c, 0, 67, 0
2, 33210, Note_on_c, 0, 68, 120
2, 33240, Note_on_c, 0, 68, 0
2, 33240, Note_on_c, 0, 70, 120
2, 33300, Note_on_c, 0, 70, 0
2, 33300, Note_on_c, 0, 75, 120
2, 33360, Note_on_c, 0, 75, 0
2, 33360, Note_on_c, 0, 72, 120
2, 33420, Note_on_c, 0, 72, 0
2, 33420, Note_on_c, 0, 68, 120
2, 33480, Note_on_c, 0, 68, 0
2, 33660, Note_on_c, 0, 68, 120
2, 33720, Note_on_c, 0, 68, 0
2, 33720, Note_on_c, 0, 70, 120
2, 33780, Note_on_c, 0, 70, 0
2, 33900, Note_on_c, 0, 70, 120
2, 33960, Note_on_c, 0, 70, 0
2, 33960, Note_on_c, 0, 72, 120
2, 34020, Note_on_c, 0, 72, 0
2, 34140, Note_on_c, 0, 72, 120
2, 34200, Note_on_c, 0, 72, 0
2, 34200, Note_on_c, 0, 73, 120
2, 34260, Note_on_c, 0, 73, 0
2, 34380, Note_on_c, 0, 73, 120
2, 34440, Note_on_c, 0, 73, 0
2, 34440, Note_on_c, 0, 75, 120
2, 34500, Note_on_c, 0, 75, 0
2, 34560, Note_on_c, 0, 56, 120
2, 34590, Note_on_c, 0, 56, 0
2, 34590, Note_on_c, 0, 58, 120
2, 34620, Note_on_c, 0, 58, 0
2, 34620, Note_on_c, 0, 60, 120
2, 34650, Note_on_c, 0, 60, 0
2, 34650, Note_on_c, 0, 61, 120
2, 34680, Note_on_c, 0, 61, 0
2, 34680, Note_on_c, 0, 63, 120
2, 34740, Note_on_c, 0, 63, 0
2, 34740, Note_on_c, 0, 68, 120
2, 34800, Note_on_c, 0, 68, 0
2, 34800, Note_on_c, 0, 65, 120
2, 34860, Note_on_c, 0, 65, 0
2, 34860, Note_on_c, 0, 62, 120
2, 34920, Note_on_c, 0, 62, 0
2, 35040, Note_on_c, 0, 55, 120
2, 35070, Note_on_c, 0, 55, 0
2, 35070, Note_on_c, 0, 57, 120
2, 35100, Note_on_c, 0, 57, 0
2, 35100, Note_on_c, 0, 59, 120
2, 35130, Note_on_c, 0, 59, 0
2, 35130, Note_on_c, 0, 60, 120
2, 35160, Note_on_c, 0, 60, 0
2, 35160, Note_on_c, 0, 62, 120
2, 35220, Note_on_c, 0, 62, 0
2, 35220, Note_on_c, 0, 67, 120
2, 35280, Note_on_c, 0, 67, 0
2, 35280, Note_on_c, 0, 64, 120
2, 35340, Note_on_c, 0, 64, 0
2, 35340, Note_on_c, 0, 60, 120
2, 35400, Note_on_c, 0, 60, 0
2, 35580, Note_on_c, 0, 80, 120
2, 35640, Note_on_c, 0, 80, 0
2, 35640, Note_on_c, 0, 80, 120
2, 35700, Note_on_c, 0, 80, 0
2, 35820, Note_on_c, 0, 79, 120
2, 35880, Note_on_c, 0, 79, 0
2, 35880, Note_on_c, 0, 79, 120
2, 35940, Note_on_c, 0, 79, 0
2, 36060, Note_on_c, 0, 77, 120
2, 36120, Note_on_c, 0, 77, 0
2, 36120, Note_on_c, 0, 77, 120
2, 36180, Note_on_c, 0, 77, 0
2, 36300, Note_on_c, 0, 77, 120
2, 36360, Note_on_c, 0, 77, 0
2, 36360, Note_on_c, 0, 77, 120
2, 36420, Note_on_c, 0, 77, 0
2, 36480, Note_on_c, 0, 75, 120
2, 36540, Note_on_c, 0, 75, 0
2, 36600, Note_on_c, 0, 71, 120
2, 36660, Note_on_c, 0, 71, 0
2, 36720, Note_on_c, 0, 72, 120
2, 36780, Note_on_c, 0, 72, 0
2, 36960, Note_on_c, 0, 80, 120
2, 37020, Note_on_c, 0, 80, 0
2, 37080, Note_on_c, 0, 76, 120
2, 37140, Note_on_c, 0, 76, 0
2, 37200, Note_on_c, 0, 77, 120
2, 37260, Note_on_c, 0, 77, 0
2, 38400, Note_on_c, 0, 72, 120
2, 38460, Note_on_c, 0, 72, 0
2, 38520, Note_on_c, 0, 74, 120
2, 38580, Note_on_c, 0, 74, 0
2, 38640, Note_on_c, 0, 75, 120
2, 38700, Note_on_c, 0, 75, 0
2, 38880, Note_on_c, 0, 77, 120
2, 38940, Note_on_c, 0, 77, 0
2, 39000, Note_on_c, 0, 79, 120
2, 39060, Note_on_c, 0, 79, 0
2, 39120, Note_on_c, 0, 80, 120
2, 39180, Note_on_c, 0, 80, 0
2, 40320, Note_on_c, 0, 72, 120
2, 40349, Note_on_c, 0, 72, 0
2, 40350, Note_on_c, 0, 74, 120
2, 40379, Note_on_c, 0, 74, 0
2, 40380, Note_on_c, 0, 75, 120
2, 40409, Note_on_c, 0, 75, 0
2, 40410, Note_on_c, 0, 77, 120
2, 40439, Note_on_c, 0, 77, 0
2, 40440, Note_on_c, 0, 79, 120
2, 40499, Note_on_c, 0, 79, 0
2, 40500, Note_on_c, 0, 84, 120
2, 40559, Note_on_c, 0, 84, 0
2, 40560, Note_on_c, 0, 83, 120
2, 40619, Note_on_c, 0, 83, 0
2, 40620, Note_on_c, 0, 79, 120
2, 40679, Note_on_c, 0, 79, 0
2, 40680, Note_on_c, 0, 74, 120
2, 40739, Note_on_c, 0, 74, 0
2, 40740, Note_on_c, 0, 77, 120
2, 40799, Note_on_c, 0, 77, 0
2, 40800, Note_on_c, 0, 76, 120
2, 40859, Note_on_c, 0, 76, 0
2, 40860, Note_on_c, 0, 72, 120
2, 40919, Note_on_c, 0, 72, 0
2, 40920, Note_on_c, 0, 82, 120
2, 41099, Note_on_c, 0, 82, 0
2, 41100, Note_on_c, 0, 81, 120
2, 41129, Note_on_c, 0, 81, 0
2, 41130, Note_on_c, 0, 79, 120
2, 41159, Note_on_c, 0, 79, 0
2, 41160, Note_on_c, 0, 81, 120
2, 41219, Note_on_c, 0, 81, 0
2, 41220, Note_on_c, 0, 77, 120
2, 41279, Note_on_c, 0, 77, 0
2, 41280, Note_on_c, 0, 74, 120
2, 41339, Note_on_c, 0, 74, 0
2, 41340, Note_on_c, 0, 77, 120
2, 41399, Note_on_c, 0, 77, 0
2, 41400, Note_on_c, 0, 80, 120
2, 41459, Note_on_c, 0, 80, 0
2, 41460, Note_on_c, 0, 72, 120
2, 41519, Note_on_c, 0, 72, 0
2, 41520, Note_on_c, 0, 71, 120
2, 41579, Note_on_c, 0, 71, 0
2, 41580, Note_on_c, 0, 79, 120
2, 41639, Note_on_c, 0, 79, 0
2, 41640, Note_on_c, 0, 72, 120
2, 41699, Note_on_c, 0, 72, 0
2, 41700, Note_on_c, 0, 77, 120
2, 41759, Note_on_c, 0, 77, 0
2, 41760, Note_on_c, 0, 75, 120
2, 41879, Note_on_c, 0, 75, 0
2, 41880, Note_on_c, 0, 74, 120
2, 41894, Note_on_c, 0, 74, 0
2, 41895, Note_on_c, 0, 75, 120
2, 41909, Note_on_c, 0, 75, 0
2, 41910, Note_on_c, 0, 74, 120
2, 41924, Note_on_c, 0, 74, 0
2, 41925, Note_on_c, 0, 75, 120
2, 41939, Note_on_c, 0, 75, 0
2, 41940, Note_on_c, 0, 74, 120
2, 41960, Note_on_c, 0, 74, 0
2, 41960, Note_on_c, 0, 75, 120
2, 41980, Note_on_c, 0, 75, 0
2, 41980, Note_on_c, 0, 74, 120
2, 42000, Note_on_c, 0, 74, 0
2, 42000, Note_on_c, 0, 72, 120
2, 42239, Note_on_c, 0, 72, 0
2, 42720, Note_on_c, 0, 67, 120
2, 42840, Note_on_c, 0, 67, 0
2, 42900, Note_on_c, 0, 68, 120
2, 43020, Note_on_c, 0, 68, 0
2, 43080, Note_on_c, 0, 70, 120
2, 43200, Note_on_c, 0, 70, 0
2, 43260, Note_on_c, 0, 72, 120
2, 43380, Note_on_c, 0, 72, 0
2, 43440, Note_on_c, 0, 74, 120
2, 43500, Note_on_c, 0, 74, 0
2, 43500, Note_on_c, 0, 70, 120
2, 43560, Note_on_c, 0, 70, 0
2, 43560, Note_on_c, 0, 75, 120
2, 43680, Note_on_c, 0, 75, 0
2, 43680, Note_on_c, 0, 72, 120
2, 43740, Note_on_c, 0, 72, 0
2, 43740, Note_on_c, 0, 74, 120
2, 43800, Note_on_c, 0, 74, 0
2, 43800, Note_on_c, 0, 75, 120
2, 43920, Note_on_c, 0, 75, 0
2, 43920, Note_on_c, 0, 70, 120
2, 43980, Note_on_c, 0, 70, 0
2, 43980, Note_on_c, 0, 70, 120
2, 44100, Note_on_c, 0, 70, 0
2, 44100, Note_on_c, 0, 69, 120
2, 44160, Note_on_c, 0, 69, 0
2, 44160, Note_on_c, 0, 70, 120
2, 44280, Note_on_c, 0, 70, 0
2, 44340, Note_on_c, 0, 75, 120
2, 44460, Note_on_c, 0, 75, 0
2, 44520, Note_on_c, 0, 74, 120
2, 44640, Note_on_c, 0, 74, 0
2, 44700, Note_on_c, 0, 70, 120
2, 44820, Note_on_c, 0, 70, 0
2, 44880, Note_on_c, 0, 77, 120
2, 45000, Note_on_c, 0, 77, 0
2, 45000, Note_on_c, 0, 77, 120
2, 45060, Note_on_c, 0, 77, 0
2, 45060, Note_on_c, 0, 75, 120
2, 45180, Note_on_c, 0, 75, 0
2, 45180, Note_on_c, 0, 72, 120
2, 45240, Note_on_c, 0, 72, 0
2, 45240, Note_on_c, 0, 70, 120
2, 45360, Note_on_c, 0, 70, 0
2, 45540, Note_on_c, 0, 70, 120
2, 45660, Note_on_c, 0, 70, 0
2, 45660, Note_on_c, 0, 68, 120
2, 45720, Note_on_c, 0, 68, 0
2, 45900, Note_on_c, 0, 68, 120
2, 46020, Note_on_c, 0, 68, 0
2, 46020, Note_on_c, 0, 67, 120
2, 46080, Note_on_c, 0, 67, 0
2, 46260, Note_on_c, 0, 67, 120
2, 46380, Note_on_c, 0, 67, 0
2, 46380, Note_on_c, 0, 65, 120
2, 46440, Note_on_c, 0, 65, 0
2, 46620, Note_on_c, 0, 70, 120
2, 46740, Note_on_c, 0, 70, 0
2, 46740, Note_on_c, 0, 75, 120
2, 46800, Note_on_c, 0, 75, 0
2, 46800, Note_on_c, 0, 72, 120
2, 46860, Note_on_c, 0, 72, 0
2, 46860, Note_on_c, 0, 72, 120
2, 46980, Note_on_c, 0, 72, 0
2, 46980, Note_on_c, 0, 71, 120
2, 47040, Note_on_c, 0, 71, 0
2, 47040, Note_on_c, 0, 72, 120
2, 47160, Note_on_c, 0, 72, 0
2, 47220, Note_on_c, 0, 77, 120
2, 47340, Note_on_c, 0, 77, 0
2, 47400, Note_on_c, 0, 70, 120
2, 47520, Note_on_c, 0, 70, 0
2, 47580, Note_on_c, 0, 68, 120
2, 47700, Note_on_c, 0, 68, 0
2, 47760, Note_on_c, 0, 67, 120
2, 47880, Note_on_c, 0, 67, 0
2, 47880, Note_on_c, 0, 79, 120
2, 47940, Note_on_c, 0, 79, 0
2, 47940, Note_on_c, 0, 77, 120
2, 48060, Note_on_c, 0, 77, 0
2, 48060, Note_on_c, 0, 74, 120
2, 48120, Note_on_c, 0, 74, 0
2, 48120, Note_on_c, 0, 72, 120
2, 48240, Note_on_c, 0, 72, 0
2, 48420, Note_on_c, 0, 70, 120
2, 48480, Note_on_c, 0, 70, 0
2, 48480, Note_on_c, 0, 68, 120
2, 48600, Note_on_c, 0, 68, 0
2, 48780, Note_on_c, 0, 65, 120
2, 48840, Note_on_c, 0, 65, 0
2, 48840, Note_on_c, 0, 63, 120
2, 48960, Note_on_c, 0, 63, 0
2, 49140, Note_on_c, 0, 67, 120
2, 49200, Note_on_c, 0, 67, 0
2, 49200, Note_on_c, 0, 68, 120
2, 49320, Note_on_c, 0, 68, 0
2, 49380, Note_on_c, 0, 73, 120
2, 49500, Note_on_c, 0, 73, 0
2, 49560, Note_on_c, 0, 72, 120
2, 49680, Note_on_c, 0, 72, 0
2, 49740, Note_on_c, 0, 77, 120
2, 49860, Note_on_c, 0, 77, 0
2, 49920, Note_on_c, 0, 75, 120
2, 50040, Note_on_c, 0, 75, 0
2, 50040, Note_on_c, 0, 75, 120
2, 50100, Note_on_c, 0, 75, 0
2, 50100, Note_on_c, 0, 73, 120
2, 50220, Note_on_c, 0, 73, 0
2, 50220, Note_on_c, 0, 70, 120
2, 50280, Note_on_c, 0, 70, 0
2, 50280, Note_on_c, 0, 68, 120
2, 50400, Note_on_c, 0, 68, 0
2, 50400, Note_on_c, 0, 75, 120
2, 50460, Note_on_c, 0, 75, 0
2, 50460, Note_on_c, 0, 75, 120
2, 50580, Note_on_c, 0, 75, 0
2, 50580, Note_on_c, 0, 74, 120
2, 50640, Note_on_c, 0, 74, 0
2, 50640, Note_on_c, 0, 75, 120
2, 50760, Note_on_c, 0, 75, 0
2, 50820, Note_on_c, 0, 68, 120
2, 50940, Note_on_c, 0, 68, 0
2, 51000, Note_on_c, 0, 75, 120
2, 51120, Note_on_c, 0, 75, 0
2, 51180, Note_on_c, 0, 75, 120
2, 51300, Note_on_c, 0, 75, 0
2, 51360, Note_on_c, 0, 77, 120
2, 51479, Note_on_c, 0, 77, 0
2, 51480, Note_on_c, 0, 79, 120
2, 51539, Note_on_c, 0, 79, 0
2, 51540, Note_on_c, 0, 72, 120
2, 51659, Note_on_c, 0, 72, 0
2, 51660, Note_on_c, 0, 70, 120
2, 51719, Note_on_c, 0, 70, 0
2, 51720, Note_on_c, 0, 70, 120
2, 51839, Note_on_c, 0, 70, 0
2, 52020, Note_on_c, 0, 82, 120
2, 52139, Note_on_c, 0, 82, 0
2, 52140, Note_on_c, 0, 80, 120
2, 52199, Note_on_c, 0, 80, 0
2, 52380, Note_on_c, 0, 80, 120
2, 52499, Note_on_c, 0, 80, 0
2, 52500, Note_on_c, 0, 79, 120
2, 52559, Note_on_c, 0, 79, 0
2, 52740, Note_on_c, 0, 79, 120
2, 52859, Note_on_c, 0, 79, 0
2, 52860, Note_on_c, 0, 77, 120
2, 52919, Note_on_c, 0, 77, 0
2, 53100, Note_on_c, 0, 77, 120
2, 53219, Note_on_c, 0, 77, 0
2, 53220, Note_on_c, 0, 75, 120
2, 53279, Note_on_c, 0, 75, 0
2, 53280, Note_on_c, 0, 68, 120
2, 53339, Note_on_c, 0, 68, 0
2, 53340, Note_on_c, 0, 67, 120
2, 53399, Note_on_c, 0, 67, 0
2, 53400, Note_on_c, 0, 68, 120
2, 53459, Note_on_c, 0, 68, 0
2, 53460, Note_on_c, 0, 65, 120
2, 53519, Note_on_c, 0, 65, 0
2, 53520, Note_on_c, 0, 63, 120
2, 53639, Note_on_c, 0, 63, 0
2, 54360, Note_on_c, 0, 72, 120
2, 54419, Note_on_c, 0, 72, 0
2, 54420, Note_on_c, 0, 68, 120
2, 54539, Note_on_c, 0, 68, 0
2, 54540, Note_on_c, 0, 63, 120
2, 54599, Note_on_c, 0, 63, 0
2, 54720, Note_on_c, 0, 70, 120
2, 54779, Note_on_c, 0, 70, 0
2, 54780, Note_on_c, 0, 67, 120
2, 54899, Note_on_c, 0, 67, 0
2, 54900, Note_on_c, 0, 63, 120
2, 54959, Note_on_c, 0, 63, 0
2, 55080, Note_on_c, 0, 68, 120
2, 55139, Note_on_c, 0, 68, 0
2, 55140, Note_on_c, 0, 65, 120
2, 55259, Note_on_c, 0, 65, 0
2, 55260, Note_on_c, 0, 62, 120
2, 55319, Note_on_c, 0, 62, 0
2, 55320, Note_on_c, 0, 67, 120
2, 55439, Note_on_c, 0, 67, 0
2, 55980, Note_on_c, 0, 77, 120
2, 56099, Note_on_c, 0, 77, 0
2, 56100, Note_on_c, 0, 75, 120
2, 56159, Note_on_c, 0, 75, 0
2, 56340, Note_on_c, 0, 75, 120
2, 56459, Note_on_c, 0, 75, 0
2, 56460, Note_on_c, 0, 74, 120
2, 56519, Note_on_c, 0, 74, 0
2, 56700, Note_on_c, 0, 74, 120
2, 56819, Note_on_c, 0, 74, 0
2, 56820, Note_on_c, 0, 72, 120
2, 56879, Note_on_c, 0, 72, 0
2, 57060, Note_on_c, 0, 72, 120
2, 57119, Note_on_c, 0, 72, 0
2, 57120, Note_on_c, 0, 70, 120
2, 57239, Note_on_c, 0, 70, 0
2, 57960, Note_on_c, 0, 79, 120
2, 58019, Note_on_c, 0, 79, 0
2, 58020, Note_on_c, 0, 75, 120
2, 58139, Note_on_c, 0, 75, 0
2, 58140, Note_on_c, 0, 70, 120
2, 58199, Note_on_c, 0, 70, 0
2, 58320, Note_on_c, 0, 77, 120
2, 58379, Note_on_c, 0, 77, 0
2, 58380, Note_on_c, 0, 74, 120
2, 58499, Note_on_c, 0, 74, 0
2, 58500, Note_on_c, 0, 70, 120
2, 58559, Note_on_c, 0, 70, 0
2, 58680, Note_on_c, 0, 75, 120
2, 58739, Note_on_c, 0, 75, 0
2, 58740, Note_on_c, 0, 72, 120
2, 58859, Note_on_c, 0, 72, 0
2, 58860, Note_on_c, 0, 69, 120
2, 58919, Note_on_c, 0, 69, 0
2, 58920, Note_on_c, 0, 74, 120
2, 59039, Note_on_c, 0, 74, 0
2, 59460, Note_on_c, 0, 77, 120
2, 59519, Note_on_c, 0, 77, 0
2, 59640, Note_on_c, 0, 75, 120
2, 59699, Note_on_c, 0, 75, 0
2, 59820, Note_on_c, 0, 74, 120
2, 59879, Note_on_c, 0, 74, 0
2, 60000, Note_on_c, 0, 72, 120
2, 60119, Note_on_c, 0, 72, 0
2, 60300, Note_on_c, 0, 74, 120
2, 60359, Note_on_c, 0, 74, 0
2, 60360, Note_on_c, 0, 70, 120
2, 60479, Note_on_c, 0, 70, 0
2, 60660, Note_on_c, 0, 75, 120
2, 60719, Note_on_c, 0, 75, 0
2, 60720, Note_on_c, 0, 72, 120
2, 60839, Note_on_c, 0, 72, 0
2, 61020, Note_on_c, 0, 77, 120
2, 61079, Note_on_c, 0, 77, 0
2, 61080, Note_on_c, 0, 74, 120
2, 61139, Note_on_c, 0, 74, 0
2, 61260, Note_on_c, 0, 82, 120
2, 61319, Note_on_c, 0, 82, 0
2, 61440, Note_on_c, 0, 80, 120
2, 61499, Note_on_c, 0, 80, 0
2, 61620, Note_on_c, 0, 79, 120
2, 61679, Note_on_c, 0, 79, 0
2, 61800, Note_on_c, 0, 77, 120
2, 61919, Note_on_c, 0, 77, 0
2, 62100, Note_on_c, 0, 79, 120
2, 62159, Note_on_c, 0, 79, 0
2, 62160, Note_on_c, 0, 75, 120
2, 62279, Note_on_c, 0, 75, 0
2, 62460, Note_on_c, 0, 80, 120
2, 62519, Note_on_c, 0, 80, 0
2, 62520, Note_on_c, 0, 77, 120
2, 62639, Note_on_c, 0, 77, 0
2, 62820, Note_on_c, 0, 82, 120
2, 62879, Note_on_c, 0, 82, 0
2, 62880, Note_on_c, 0, 79, 120
2, 63599, Note_on_c, 0, 79, 0
2, 63600, Note_on_c, 0, 80, 120
2, 63959, Note_on_c, 0, 80, 0
2, 63960, Note_on_c, 0, 81, 120
2, 64319, Note_on_c, 0, 81, 0
2, 64320, Note_on_c, 0, 82, 120
2, 64439, Note_on_c, 0, 82, 0
2, 64500, Note_on_c, 0, 72, 120
2, 64619, Note_on_c, 0, 72, 0
2, 64680, Note_on_c, 0, 79, 120
2, 64799, Note_on_c, 0, 79, 0
2, 64860, Note_on_c, 0, 75, 120
2, 64979, Note_on_c, 0, 75, 0
2, 65040, Note_on_c, 0, 66, 120
2, 65099, Note_on_c, 0, 66, 0
2, 65100, Note_on_c, 0, 74, 120
2, 65159, Note_on_c, 0, 74, 0
2, 65160, Note_on_c, 0, 79, 120
2, 65279, Note_on_c, 0, 79, 0
2, 65280, Note_on_c, 0, 76, 120
2, 65339, Note_on_c, 0, 76, 0
2, 65340, Note_on_c, 0, 78, 120
2, 65399, Note_on_c, 0, 78, 0
2, 65400, Note_on_c, 0, 79, 120
2, 65519, Note_on_c, 0, 79, 0
2, 65520, Note_on_c, 0, 72, 120
2, 65579, Note_on_c, 0, 72, 0
2, 65580, Note_on_c, 0, 72, 120
2, 65699, Note_on_c, 0, 72, 0
2, 65700, Note_on_c, 0, 71, 120
2, 65759, Note_on_c, 0, 71, 0
2, 65760, Note_on_c, 0, 72, 120
2, 65879, Note_on_c, 0, 72, 0
2, 65940, Note_on_c, 0, 77, 120
2, 66059, Note_on_c, 0, 77, 0
2, 66120, Note_on_c, 0, 75, 120
2, 66239, Note_on_c, 0, 75, 0
2, 66300, Note_on_c, 0, 72, 120
2, 66419, Note_on_c, 0, 72, 0
2, 66480, Note_on_c, 0, 79, 120
2, 66599, Note_on_c, 0, 79, 0
2, 66600, Note_on_c, 0, 79, 120
2, 66660, Note_on_c, 0, 79, 0
2, 66660, Note_on_c, 0, 77, 120
2, 66779, Note_on_c, 0, 77, 0
2, 66780, Note_on_c, 0, 74, 120
2, 66840, Note_on_c, 0, 74, 0
2, 66840, Note_on_c, 0, 72, 120
2, 66959, Note_on_c, 0, 72, 0
2, 67860, Note_on_c, 0, 72, 120
2, 67920, Note_on_c, 0, 72, 0
2, 67920, Note_on_c, 0, 68, 120
2, 68040, Note_on_c, 0, 68, 0
2, 68220, Note_on_c, 0, 73, 120
2, 68280, Note_on_c, 0, 73, 0
2, 68280, Note_on_c, 0, 70, 120
2, 68400, Note_on_c, 0, 70, 0
2, 68580, Note_on_c, 0, 75, 120
2, 68640, Note_on_c, 0, 75, 0
2, 68640, Note_on_c, 0, 72, 120
2, 68760, Note_on_c, 0, 72, 0
2, 68760, Note_on_c, 0, 68, 120
2, 68820, Note_on_c, 0, 68, 0
2, 68820, Note_on_c, 0, 73, 120
2, 68940, Note_on_c, 0, 73, 0
2, 68940, Note_on_c, 0, 68, 120
2, 69000, Note_on_c, 0, 68, 0
2, 69120, Note_on_c, 0, 75, 120
2, 69180, Note_on_c, 0, 75, 0
2, 69180, Note_on_c, 0, 72, 120
2, 69300, Note_on_c, 0, 72, 0
2, 69300, Note_on_c, 0, 68, 120
2, 69360, Note_on_c, 0, 68, 0
2, 69480, Note_on_c, 0, 73, 120
2, 69540, Note_on_c, 0, 73, 0
2, 69540, Note_on_c, 0, 70, 120
2, 69660, Note_on_c, 0, 70, 0
2, 69660, Note_on_c, 0, 67, 120
2, 69720, Note_on_c, 0, 67, 0
2, 69720, Note_on_c, 0, 72, 120
2, 70440, Note_on_c, 0, 72, 0
2, 70440, Note_on_c, 0, 73, 120
2, 70800, Note_on_c, 0, 73, 0
2, 70800, Note_on_c, 0, 74, 120
2, 71160, Note_on_c, 0, 74, 0
2, 71160, Note_on_c, 0, 75, 120
2, 71280, Note_on_c, 0, 75, 0
2, 71280, Note_on_c, 0, 75, 120
2, 71340, Note_on_c, 0, 75, 0
2, 71340, Note_on_c, 0, 77, 120
2, 71460, Note_on_c, 0, 77, 0
2, 71460, Note_on_c, 0, 68, 120
2, 71520, Note_on_c, 0, 68, 0
2, 71520, Note_on_c, 0, 67, 120
2, 71640, Note_on_c, 0, 67, 0
2, 71700, Note_on_c, 0, 68, 120
2, 71820, Note_on_c, 0, 68, 0
2, 71880, Note_on_c, 0, 70, 120
2, 72000, Note_on_c, 0, 70, 0
2, 72060, Note_on_c, 0, 72, 120
2, 72180, Note_on_c, 0, 72, 0
2, 72240, Note_on_c, 0, 74, 120
2, 72300, Note_on_c, 0, 74, 0
2, 72300, Note_on_c, 0, 70, 120
2, 72360, Note_on_c, 0, 70, 0
2, 72360, Note_on_c, 0, 75, 120
2, 72480, Note_on_c, 0, 75, 0
2, 72480, Note_on_c, 0, 72, 120
2, 72540, Note_on_c, 0, 72, 0
2, 72540, Note_on_c, 0, 74, 120
2, 72600, Note_on_c, 0, 74, 0
2, 72600, Note_on_c, 0, 75, 120
2, 72720, Note_on_c, 0, 75, 0
2, 72720, Note_on_c, 0, 70, 120
2, 72780, Note_on_c, 0, 70, 0
2, 72780, Note_on_c, 0, 70, 120
2, 72900, Note_on_c, 0, 70, 0
2, 72900, Note_on_c, 0, 69, 120
2, 72960, Note_on_c, 0, 69, 0
2, 72960, Note_on_c, 0, 70, 120
2, 73080, Note_on_c, 0, 70, 0
2, 73140, Note_on_c, 0, 75, 120
2, 73260, Note_on_c, 0, 75, 0
2, 73320, Note_on_c, 0, 74, 120
2, 73440, Note_on_c, 0, 74, 0
2, 73500, Note_on_c, 0, 70, 120
2, 73620, Note_on_c, 0, 70, 0
2, 73680, Note_on_c, 0, 77, 120
2, 73800, Note_on_c, 0, 77, 0
2, 73800, Note_on_c, 0, 77, 120
2, 73860, Note_on_c, 0, 77, 0
2, 73860, Note_on_c, 0, 75, 120
2, 73980, Note_on_c, 0, 75, 0
2, 73980, Note_on_c, 0, 72, 120
2, 74040, Note_on_c, 0, 72, 0
2, 74040, Note_on_c, 0, 70, 120
2, 74160, Note_on_c, 0, 70, 0
2, 74340, Note_on_c, 0, 70, 120
2, 74460, Note_on_c, 0, 70, 0
2, 74460, Note_on_c, 0, 68, 120
2, 74520, Note_on_c, 0, 68, 0
2, 74700, Note_on_c, 0, 68, 120
2, 74820, Note_on_c, 0, 68, 0
2, 74820, Note_on_c, 0, 67, 120
2, 74880, Note_on_c, 0, 67, 0
2, 75060, Note_on_c, 0, 67, 120
2, 75180, Note_on_c, 0, 67, 0
2, 75180, Note_on_c, 0, 65, 120
2, 75239, Note_on_c, 0, 65, 0
2, 75420, Note_on_c, 0, 65, 120
2, 75479, Note_on_c, 0, 65, 0
2, 75480, Note_on_c, 0, 63, 120
2, 75599, Note_on_c, 0, 63, 0
2, 76500, Note_on_c, 0, 82, 120
2, 76619, Note_on_c, 0, 82, 0
2, 76620, Note_on_c, 0, 80, 120
2, 76679, Note_on_c, 0, 80, 0
2, 76860, Note_on_c, 0, 80, 120
2, 76979, Note_on_c, 0, 80, 0
2, 76980, Note_on_c, 0, 79, 120
2, 77039, Note_on_c, 0, 79, 0
2, 77220, Note_on_c, 0, 79, 120
2, 77339, Note_on_c, 0, 79, 0
2, 77340, Note_on_c, 0, 77, 120
2, 77399, Note_on_c, 0, 77, 0
2, 77580, Note_on_c, 0, 77, 120
2, 77699, Note_on_c, 0, 77, 0
2, 77700, Note_on_c, 0, 75, 120
2, 77759, Note_on_c, 0, 75, 0
2, 77760, Note_on_c, 0, 68, 120
2, 77819, Note_on_c, 0, 68, 0
2, 77820, Note_on_c, 0, 67, 120
2, 77879, Note_on_c, 0, 67, 0
2, 77880, Note_on_c, 0, 68, 120
2, 77939, Note_on_c, 0, 68, 0
2, 77940, Note_on_c, 0, 65, 120
2, 77999, Note_on_c, 0, 65, 0
2, 78000, Note_on_c, 0, 63, 120
2, 78179, Note_on_c, 0, 63, 0
2, 79440, Note_on_c, 0, 72, 120
2, 79469, Note_on_c, 0, 72, 0
2, 79470, Note_on_c, 0, 71, 120
2, 79499, Note_on_c, 0, 71, 0
2, 79500, Note_on_c, 0, 72, 120
2, 79560, Note_on_c, 0, 72, 0
2, 79680, Note_on_c, 0, 72, 120
2, 79709, Note_on_c, 0, 72, 0
2, 79710, Note_on_c, 0, 71, 120
2, 79739, Note_on_c, 0, 71, 0
2, 79740, Note_on_c, 0, 72, 120
2, 79800, Note_on_c, 0, 72, 0
2, 79920, Note_on_c, 0, 68, 120
2, 79949, Note_on_c, 0, 68, 0
2, 79950, Note_on_c, 0, 67, 120
2, 79979, Note_on_c, 0, 67, 0
2, 79980, Note_on_c, 0, 68, 120
2, 80040, Note_on_c, 0, 68, 0
2, 80160, Note_on_c, 0, 71, 120
2, 80189, Note_on_c, 0, 71, 0
2, 80190, Note_on_c, 0, 67, 120
2, 80219, Note_on_c, 0, 67, 0
2, 80220, Note_on_c, 0, 72, 120
2, 80280, Note_on_c, 0, 72, 0
2, 80400, Note_on_c, 0, 75, 120
2, 80429, Note_on_c, 0, 75, 0
2, 80430, Note_on_c, 0, 74, 120
2, 80459, Note_on_c, 0, 74, 0
2, 80460, Note_on_c, 0, 77, 120
2, 80520, Note_on_c, 0, 77, 0
2, 80640, Note_on_c, 0, 79, 120
2, 80669, Note_on_c, 0, 79, 0
2, 80670, Note_on_c, 0, 78, 120
2, 80699, Note_on_c, 0, 78, 0
2, 80700, Note_on_c, 0, 79, 120
2, 80729, Note_on_c, 0, 79, 0
2, 80730, Note_on_c, 0, 74, 120
2, 80759, Note_on_c, 0, 74, 0
2, 80760, Note_on_c, 0, 71, 120
2, 80789, Note_on_c, 0, 71, 0
2, 80790, Note_on_c, 0, 74, 120
2, 80819, Note_on_c, 0, 74, 0
2, 80820, Note_on_c, 0, 67, 120
2, 80879, Note_on_c, 0, 67, 0
2, 81480, Note_on_c, 0, 68, 120
2, 81509, Note_on_c, 0, 68, 0
2, 81510, Note_on_c, 0, 67, 120
2, 81539, Note_on_c, 0, 67, 0
2, 81540, Note_on_c, 0, 68, 120
2, 81599, Note_on_c, 0, 68, 0
2, 82200, Note_on_c, 0, 71, 120
2, 82230, Note_on_c, 0, 71, 0
2, 82230, Note_on_c, 0, 69, 120
2, 82260, Note_on_c, 0, 69, 0
2, 82260, Note_on_c, 0, 71, 120
2, 82319, Note_on_c, 0, 71, 0
2, 82320, Note_on_c, 0, 79, 120
2, 82350, Note_on_c, 0, 79, 0
2, 82350, Note_on_c, 0, 78, 120
2, 82380, Note_on_c, 0, 78, 0
2, 82380, Note_on_c, 0, 79, 120
2, 82439, Note_on_c, 0, 79, 0
2, 82560, Note_on_c, 0, 79, 120
2, 82589, Note_on_c, 0, 79, 0
2, 82590, Note_on_c, 0, 78, 120
2, 82619, Note_on_c, 0, 78, 0
2, 82620, Note_on_c, 0, 79, 120
2, 82679, Note_on_c, 0, 79, 0
2, 82800, Note_on_c, 0, 79, 120
2, 82829, Note_on_c, 0, 79, 0
2, 82830, Note_on_c, 0, 78, 120
2, 82859, Note_on_c, 0, 78, 0
2, 82860, Note_on_c, 0, 79, 120
2, 82919, Note_on_c, 0, 79, 0
2, 83040, Note_on_c, 0, 77, 120
2, 83070, Note_on_c, 0, 77, 0
2, 83100, Note_on_c, 0, 75, 120
2, 83130, Note_on_c, 0, 75, 0
2, 83160, Note_on_c, 0, 73, 120
2, 83190, Note_on_c, 0, 73, 0
2, 83280, Note_on_c, 0, 72, 120
2, 83310, Note_on_c, 0, 72, 0
2, 83400, Note_on_c, 0, 80, 120
2, 83430, Note_on_c, 0, 80, 0
2, 83460, Note_on_c, 0, 71, 120
2, 83519, Note_on_c, 0, 71, 0
2, 83820, Note_on_c, 0, 72, 120
2, 83879, Note_on_c, 0, 72, 0
2, 84180, Note_on_c, 0, 74, 120
2, 84239, Note_on_c, 0, 74, 0
2, 84540, Note_on_c, 0, 75, 120
2, 84569, Note_on_c, 0, 75, 0
2, 84570, Note_on_c, 0, 67, 120
2, 84599, Note_on_c, 0, 67, 0
2, 84600, Note_on_c, 0, 65, 120
2, 84629, Note_on_c, 0, 65, 0
2, 84630, Note_on_c, 0, 67, 120
2, 84659, Note_on_c, 0, 67, 0
2, 84660, Note_on_c, 0, 68, 120
2, 84689, Note_on_c, 0, 68, 0
2, 84690, Note_on_c, 0, 67, 120
2, 84719, Note_on_c, 0, 67, 0
2, 84720, Note_on_c, 0, 65, 120
2, 84749, Note_on_c, 0, 65, 0
2, 84750, Note_on_c, 0, 67, 120
2, 84779, Note_on_c, 0, 67, 0
2, 84780, Note_on_c, 0, 68, 120
2, 84809, Note_on_c, 0, 68, 0
2, 84840, Note_on_c, 0, 65, 120
2, 84869, Note_on_c, 0, 65, 0
2, 84900, Note_on_c, 0, 72, 120
2, 84929, Note_on_c, 0, 72, 0
2, 84930, Note_on_c, 0, 67, 120
2, 84959, Note_on_c, 0, 67, 0
2, 84960, Note_on_c, 0, 65, 120
2, 84989, Note_on_c, 0, 65, 0
2, 84990, Note_on_c, 0, 67, 120
2, 85019, Note_on_c, 0, 67, 0
2, 85020, Note_on_c, 0, 63, 120
2, 85049, Note_on_c, 0, 63, 0
2, 85050, Note_on_c, 0, 67, 120
2, 85079, Note_on_c, 0, 67, 0
2, 85080, Note_on_c, 0, 65, 120
2, 85109, Note_on_c, 0, 65, 0
2, 85110, Note_on_c, 0, 67, 120
2, 85139, Note_on_c, 0, 67, 0
2, 85140, Note_on_c, 0, 67, 120
2, 85169, Note_on_c, 0, 67, 0
2, 85200, Note_on_c, 0, 63, 120
2, 85229, Note_on_c, 0, 63, 0
2, 85260, Note_on_c, 0, 65, 120
2, 85289, Note_on_c, 0, 65, 0
2, 85290, Note_on_c, 0, 63, 120
2, 85319, Note_on_c, 0, 63, 0
2, 85320, Note_on_c, 0, 62, 120
2, 85349, Note_on_c, 0, 62, 0
2, 85350, Note_on_c, 0, 63, 120
2, 85379, Note_on_c, 0, 63, 0
2, 85380, Note_on_c, 0, 65, 120
2, 85409, Note_on_c, 0, 65, 0
2, 85410, Note_on_c, 0, 63, 120
2, 85439, Note_on_c, 0, 63, 0
2, 85440, Note_on_c, 0, 62, 120
2, 85469, Note_on_c, 0, 62, 0
2, 85470, Note_on_c, 0, 63, 120
2, 85499, Note_on_c, 0, 63, 0
2, 85500, Note_on_c, 0, 65, 120
2, 85529, Note_on_c, 0, 65, 0
2, 85560, Note_on_c, 0, 62, 120
2, 85589, Note_on_c, 0, 62, 0
2, 85620, Note_on_c, 0, 63, 120
2, 85680, Note_on_c, 0, 63, 0
2, 85680, Note_on_c, 0, 67, 120
2, 85740, Note_on_c, 0, 67, 0
2, 85740, Note_on_c, 0, 72, 120
2, 85800, Note_on_c, 0, 72, 0
2, 85800, Note_on_c, 0, 75, 120
2, 85860, Note_on_c, 0, 75, 0
2, 85860, Note_on_c, 0, 79, 120
2, 85875, Note_on_c, 0, 79, 0
2, 85875, Note_on_c, 0, 78, 120
2, 85890, Note_on_c, 0, 78, 0
2, 85890, Note_on_c, 0, 79, 120
2, 85905, Note_on_c, 0, 79, 0
2, 85905, Note_on_c, 0, 78, 120
2, 85920, Note_on_c, 0, 78, 0
2, 85920, Note_on_c, 0, 79, 120
2, 85935, Note_on_c, 0, 79, 0
2, 85935, Note_on_c, 0, 78, 120
2, 85950, Note_on_c, 0, 78, 0
2, 85950, Note_on_c, 0, 76, 120
2, 85965, Note_on_c, 0, 76, 0
2, 85965, Note_on_c, 0, 78, 120
2, 85980, Note_on_c, 0, 78, 0
2, 85980, Note_on_c, 0, 79, 120
2, 86040, Note_on_c, 0, 79, 0
2, 86040, Note_on_c, 0, 74, 120
2, 86100, Note_on_c, 0, 74, 0
2, 86100, Note_on_c, 0, 75, 120
2, 86160, Note_on_c, 0, 75, 0
2, 86160, Note_on_c, 0, 72, 120
2, 86220, Note_on_c, 0, 72, 0
2, 86220, Note_on_c, 0, 67, 120
2, 86280, Note_on_c, 0, 67, 0
2, 86280, Note_on_c, 0, 71, 120
2, 86340, Note_on_c, 0, 71, 0
2, 86340, Note_on_c, 0, 72, 120
2, 86370, Note_on_c, 0, 72, 0
2, 86370, Note_on_c, 0, 67, 120
2, 86400, Note_on_c, 0, 67, 0
2, 86400, Note_on_c, 0, 68, 120
2, 86430, Note_on_c, 0, 68, 0
2, 86430, Note_on_c, 0, 65, 120
2, 86460, Note_on_c, 0, 65, 0
2, 86460, Note_on_c, 0, 67, 120
2, 86490, Note_on_c, 0, 67, 0
2, 86490, Note_on_c, 0, 63, 120
2, 86520, Note_on_c, 0, 63, 0
2, 86520, Note_on_c, 0, 65, 120
2, 86550, Note_on_c, 0, 65, 0
2, 86550, Note_on_c, 0, 62, 120
2, 86580, Note_on_c, 0, 62, 0
2, 86580, Note_on_c, 0, 63, 120
2, 86610, Note_on_c, 0, 63, 0
2, 86610, Note_on_c, 0, 60, 120
2, 86640, Note_on_c, 0, 60, 0
2, 86640, Note_on_c, 0, 62, 120
2, 86670, Note_on_c, 0, 62, 0
2, 86670, Note_on_c, 0, 59, 120
2, 86700, Note_on_c, 0, 59, 0
2, 86700, Note_on_c, 0, 60, 120
2, 86820, Note_on_c, 0, 60, 0
2, 87840, Note_on_c, 0, 72, 120
2, 87870, Note_on_c, 0, 72, 0
2, 87870, Note_on_c, 0, 74, 120
2, 87900, Note_on_c, 0, 74, 0
2, 87900, Note_on_c, 0, 72, 120
2, 87960, Note_on_c, 0, 72, 0
2, 88080, Note_on_c, 0, 75, 120
2, 88110, Note_on_c, 0, 75, 0
2, 88110, Note_on_c, 0, 77, 120
2, 88140, Note_on_c, 0, 77, 0
2, 88140, Note_on_c, 0, 75, 120
2, 88200, Note_on_c, 0, 75, 0
2, 89280, Note_on_c, 0, 67, 120
2, 89310, Note_on_c, 0, 67, 0
2, 89310, Note_on_c, 0, 68, 120
2, 89340, Note_on_c, 0, 68, 0
2, 89340, Note_on_c, 0, 67, 120
2, 89400, Note_on_c, 0, 67, 0
2, 89520, Note_on_c, 0, 72, 120
2, 89550, Note_on_c, 0, 72, 0
2, 89550, Note_on_c, 0, 74, 120
2, 89580, Note_on_c, 0, 74, 0
2, 89580, Note_on_c, 0, 72, 120
2, 89640, Note_on_c, 0, 72, 0
2, 89700, Note_on_c, 0, 79, 120
2, 89760, Note_on_c, 0, 79, 0
2, 89940, Note_on_c, 0, 77, 120
2, 90000, Note_on_c, 0, 77, 0
2, 90060, Note_on_c, 0, 75, 120
2, 90120, Note_on_c, 0, 75, 0
2, 90300, Note_on_c, 0, 74, 120
2, 90360, Note_on_c, 0, 74, 0
2, 90420, Note_on_c, 0, 77, 120
2, 90480, Note_on_c, 0, 77, 0
2, 90660, Note_on_c, 0, 75, 120
2, 90720, Note_on_c, 0, 75, 0
2, 90780, Note_on_c, 0, 73, 120
2, 90840, Note_on_c, 0, 73, 0
2, 91020, Note_on_c, 0, 72, 120
2, 91080, Note_on_c, 0, 72, 0
2, 91140, Note_on_c, 0, 77, 120
2, 91200, Note_on_c, 0, 77, 0
2, 91380, Note_on_c, 0, 74, 120
2, 91440, Note_on_c, 0, 74, 0
2, 91500, Note_on_c, 0, 79, 120
2, 91560, Note_on_c, 0, 79, 0
2, 91740, Note_on_c, 0, 75, 120
2, 91800, Note_on_c, 0, 75, 0
2, 91860, Note_on_c, 0, 80, 120
2, 91920, Note_on_c, 0, 80, 0
2, 92100, Note_on_c, 0, 77, 120
2, 92160, Note_on_c, 0, 77, 0
2, 92220, Note_on_c, 0, 82, 120
2, 92280, Note_on_c, 0, 82, 0
2, 92400, Note_on_c, 0, 75, 120
2, 92430, Note_on_c, 0, 75, 0
2, 92430, Note_on_c, 0, 74, 120
2, 92460, Note_on_c, 0, 74, 0
2, 92460, Note_on_c, 0, 75, 120
2, 92520, Note_on_c, 0, 75, 0
2, 92640, Note_on_c, 0, 75, 120
2, 92670, Note_on_c, 0, 75, 0
2, 92670, Note_on_c, 0, 74, 120
2, 92700, Note_on_c, 0, 74, 0
2, 92700, Note_on_c, 0, 75, 120
2, 92760, Note_on_c, 0, 75, 0
2, 92880, Note_on_c, 0, 72, 120
2, 92910, Note_on_c, 0, 72, 0
2, 92910, Note_on_c, 0, 70, 120
2, 92940, Note_on_c, 0, 70, 0
2, 92940, Note_on_c, 0, 72, 120
2, 93000, Note_on_c, 0, 72, 0
2, 93120, Note_on_c, 0, 74, 120
2, 93150, Note_on_c, 0, 74, 0
2, 93150, Note_on_c, 0, 70, 120
2, 93180, Note_on_c, 0, 70, 0
2, 93180, Note_on_c, 0, 75, 120
2, 93240, Note_on_c, 0, 75, 0
2, 93360, Note_on_c, 0, 79, 120
2, 93390, Note_on_c, 0, 79, 0
2, 93390, Note_on_c, 0, 77, 120
2, 93420, Note_on_c, 0, 77, 0
2, 93420, Note_on_c, 0, 80, 120
2, 93480, Note_on_c, 0, 80, 0
2, 93600, Note_on_c, 0, 82, 120
2, 93630, Note_on_c, 0, 82, 0
2, 93630, Note_on_c, 0, 81, 120
2, 93660, Note_on_c, 0, 81, 0
2, 93660, Note_on_c, 0, 82, 120
2, 93690, Note_on_c, 0, 82, 0
2, 93690, Note_on_c, 0, 77, 120
2, 93720, Note_on_c, 0, 77, 0
2, 93720, Note_on_c, 0, 74, 120
2, 93750, Note_on_c, 0, 74, 0
2, 93750, Note_on_c, 0, 77, 120
2, 93780, Note_on_c, 0, 77, 0
2, 93780, Note_on_c, 0, 70, 120
2, 93840, Note_on_c, 0, 70, 0
2, 93960, Note_on_c, 0, 67, 120
2, 93990, Note_on_c, 0, 67, 0
2, 93990, Note_on_c, 0, 65, 120
2, 94020, Note_on_c, 0, 65, 0
2, 94020, Note_on_c, 0, 67, 120
2, 94050, Note_on_c, 0, 67, 0
2, 94050, Note_on_c, 0, 62, 120
2, 94080, Note_on_c, 0, 62, 0
2, 94080, Note_on_c, 0, 59, 120
2, 94110, Note_on_c, 0, 59, 0
2, 94110, Note_on_c, 0, 62, 120
2, 94140, Note_on_c, 0, 62, 0
2, 94140, Note_on_c, 0, 55, 120
2, 94200, Note_on_c, 0, 55, 0
2, 94320, Note_on_c, 0, 72, 120
2, 94350, Note_on_c, 0, 72, 0
2, 94350, Note_on_c, 0, 71, 120
2, 94380, Note_on_c, 0, 71, 0
2, 94380, Note_on_c, 0, 72, 120
2, 94410, Note_on_c, 0, 72, 0
2, 94410, Note_on_c, 0, 67, 120
2, 94440, Note_on_c, 0, 67, 0
2, 94440, Note_on_c, 0, 65, 120
2, 94470, Note_on_c, 0, 65, 0
2, 94470, Note_on_c, 0, 67, 120
2, 94500, Note_on_c, 0, 67, 0
2, 94500, Note_on_c, 0, 60, 120
2, 94560, Note_on_c, 0, 60, 0
2, 94680, Note_on_c, 0, 74, 120
2, 94710, Note_on_c, 0, 74, 0
2, 94710, Note_on_c, 0, 72, 120
2, 94740, Note_on_c, 0, 72, 0
2, 94740, Note_on_c, 0, 74, 120
2, 94770, Note_on_c, 0, 74, 0
2, 94770, Note_on_c, 0, 69, 120
2, 94800, Note_on_c, 0, 69, 0
2, 94800, Note_on_c, 0, 66, 120
2, 94830, Note_on_c, 0, 66, 0
2, 94830, Note_on_c, 0, 69, 120
2, 94860, Note_on_c, 0, 69, 0
2, 94860, Note_on_c, 0, 62, 120
2, 94920, Note_on_c, 0, 62, 0
2, 95040, Note_on_c, 0, 67, 120
2, 95070, Note_on_c, 0, 67, 0
2, 95070, Note_on_c, 0, 66, 120
2, 95100, Note_on_c, 0, 66, 0
2, 95100, Note_on_c, 0, 67, 120
2, 95130, Note_on_c, 0, 67, 0
2, 95130, Note_on_c, 0, 62, 120
2, 95160, Note_on_c, 0, 62, 0
2, 95160, Note_on_c, 0, 58, 120
2, 95190, Note_on_c, 0, 58, 0
2, 95190, Note_on_c, 0, 62, 120
2, 95220, Note_on_c, 0, 62, 0
2, 95220, Note_on_c, 0, 55, 120
2, 95280, Note_on_c, 0, 55, 0
2, 95370, Note_on_c, 0, 60, 120
2, 95400, Note_on_c, 0, 60, 0
2, 95400, Note_on_c, 0, 65, 120
2, 95430, Note_on_c, 0, 65, 0
2, 95430, Note_on_c, 0, 63, 120
2, 95460, Note_on_c, 0, 63, 0
2, 95460, Note_on_c, 0, 65, 120
2, 95490, Note_on_c, 0, 65, 0
2, 95490, Note_on_c, 0, 60, 120
2, 95520, Note_on_c, 0, 60, 0
2, 95520, Note_on_c, 0, 69, 120
2, 95550, Note_on_c, 0, 69, 0
2, 95550, Note_on_c, 0, 67, 120
2, 95580, Note_on_c, 0, 67, 0
2, 95580, Note_on_c, 0, 69, 120
2, 95610, Note_on_c, 0, 69, 0
2, 95610, Note_on_c, 0, 65, 120
2, 95640, Note_on_c, 0, 65, 0
2, 95640, Note_on_c, 0, 69, 120
2, 95670, Note_on_c, 0, 69, 0
2, 95670, Note_on_c, 0, 72, 120
2, 95700, Note_on_c, 0, 72, 0
2, 95700, Note_on_c, 0, 74, 120
2, 95729, Note_on_c, 0, 74, 0
2, 95730, Note_on_c, 0, 58, 120
2, 95759, Note_on_c, 0, 58, 0
2, 95760, Note_on_c, 0, 63, 120
2, 95789, Note_on_c, 0, 63, 0
2, 95790, Note_on_c, 0, 62, 120
2, 95819, Note_on_c, 0, 62, 0
2, 95820, Note_on_c, 0, 63, 120
2, 95849, Note_on_c, 0, 63, 0
2, 95850, Note_on_c, 0, 58, 120
2, 95879, Note_on_c, 0, 58, 0
2, 95880, Note_on_c, 0, 67, 120
2, 95909, Note_on_c, 0, 67, 0
2, 95910, Note_on_c, 0, 65, 120
2, 95939, Note_on_c, 0, 65, 0
2, 95940, Note_on_c, 0, 67, 120
2, 95969, Note_on_c, 0, 67, 0
2, 95970, Note_on_c, 0, 63, 120
2, 95999, Note_on_c, 0, 63, 0
2, 96000, Note_on_c, 0, 67, 120
2, 96029, Note_on_c, 0, 67, 0
2, 96030, Note_on_c, 0, 70, 120
2, 96059, Note_on_c, 0, 70, 0
2, 96060, Note_on_c, 0, 72, 120
2, 96089, Note_on_c, 0, 72, 0
2, 96090, Note_on_c, 0, 57, 120
2, 96119, Note_on_c, 0, 57, 0
2, 96120, Note_on_c, 0, 62, 120
2, 96149, Note_on_c, 0, 62, 0
2, 96150, Note_on_c, 0, 60, 120
2, 96179, Note_on_c, 0, 60, 0
2, 96180, Note_on_c, 0, 62, 120
2, 96209, Note_on_c, 0, 62, 0
2, 96210, Note_on_c, 0, 57, 120
2, 96239, Note_on_c, 0, 57, 0
2, 96240, Note_on_c, 0, 66, 120
2, 96269, Note_on_c, 0, 66, 0
2, 96270, Note_on_c, 0, 64, 120
2, 96299, Note_on_c, 0, 64, 0
2, 96300, Note_on_c, 0, 66, 120
2, 96329, Note_on_c, 0, 66, 0
2, 96330, Note_on_c, 0, 62, 120
2, 96359, Note_on_c, 0, 62, 0
2, 96360, Note_on_c, 0, 66, 120
2, 96389, Note_on_c, 0, 66, 0
2, 96390, Note_on_c, 0, 69, 120
2, 96419, Note_on_c, 0, 69, 0
2, 96420, Note_on_c, 0, 70, 120
2, 96479, Note_on_c, 0, 70, 0
2, 97560, Note_on_c, 0, 67, 120
2, 97590, Note_on_c, 0, 67, 0
2, 97590, Note_on_c, 0, 69, 120
2, 97620, Note_on_c, 0, 69, 0
2, 97620, Note_on_c, 0, 67, 120
2, 97680, Note_on_c, 0, 67, 0
2, 97800, Note_on_c, 0, 70, 120
2, 97830, Note_on_c, 0, 70, 0
2, 97830, Note_on_c, 0, 72, 120
2, 97860, Note_on_c, 0, 72, 0
2, 97860, Note_on_c, 0, 70, 120
2, 97920, Note_on_c, 0, 70, 0
2, 99000, Note_on_c, 0, 62, 120
2, 99030, Note_on_c, 0, 62, 0
2, 99030, Note_on_c, 0, 63, 120
2, 99060, Note_on_c, 0, 63, 0
2, 99060, Note_on_c, 0, 62, 120
2, 99120, Note_on_c, 0, 62, 0
2, 99240, Note_on_c, 0, 67, 120
2, 99270, Note_on_c, 0, 67, 0
2, 99270, Note_on_c, 0, 69, 120
2, 99300, Note_on_c, 0, 69, 0
2, 99300, Note_on_c, 0, 67, 120
2, 99360, Note_on_c, 0, 67, 0
2, 99420, Note_on_c, 0, 74, 120
2, 99480, Note_on_c, 0, 74, 0
2, 99660, Note_on_c, 0, 72, 120
2, 99720, Note_on_c, 0, 72, 0
2, 99780, Note_on_c, 0, 70, 120
2, 99840, Note_on_c, 0, 70, 0
2, 100020, Note_on_c, 0, 69, 120
2, 100080, Note_on_c, 0, 69, 0
2, 100140, Note_on_c, 0, 72, 120
2, 100200, Note_on_c, 0, 72, 0
2, 100380, Note_on_c, 0, 70, 120
2, 100440, Note_on_c, 0, 70, 0
2, 100500, Note_on_c, 0, 68, 120
2, 100560, Note_on_c, 0, 68, 0
2, 100740, Note_on_c, 0, 67, 120
2, 100800, Note_on_c, 0, 67, 0
2, 101640, Note_on_c, 0, 75, 120
2, 101670, Note_on_c, 0, 75, 0
2, 101670, Note_on_c, 0, 74, 120
2, 101700, Note_on_c, 0, 74, 0
2, 101700, Note_on_c, 0, 75, 120
2, 101760, Note_on_c, 0, 75, 0
2, 102360, Note_on_c, 0, 69, 120
2, 102390, Note_on_c, 0, 69, 0
2, 102390, Note_on_c, 0, 67, 120
2, 102420, Note_on_c, 0, 67, 0
2, 102420, Note_on_c, 0, 69, 120
2, 102480, Note_on_c, 0, 69, 0
2, 102540, Note_on_c, 0, 67, 120
2, 102600, Note_on_c, 0, 67, 0
2, 102900, Note_on_c, 0, 69, 120
2, 102960, Note_on_c, 0, 69, 0
2, 103260, Note_on_c, 0, 70, 120
2, 103289, Note_on_c, 0, 70, 0
2, 103290, Note_on_c, 0, 62, 120
2, 103319, Note_on_c, 0, 62, 0
2, 103320, Note_on_c, 0, 60, 120
2, 103349, Note_on_c, 0, 60, 0
2, 103350, Note_on_c, 0, 62, 120
2, 103379, Note_on_c, 0, 62, 0
2, 103380, Note_on_c, 0, 63, 120
2, 103409, Note_on_c, 0, 63, 0
2, 103410, Note_on_c, 0, 62, 120
2, 103439, Note_on_c, 0, 62, 0
2, 103440, Note_on_c, 0, 60, 120
2, 103469, Note_on_c, 0, 60, 0
2, 103470, Note_on_c, 0, 62, 120
2, 103499, Note_on_c, 0, 62, 0
2, 103500, Note_on_c, 0, 75, 120
2, 103529, Note_on_c, 0, 75, 0
2, 103560, Note_on_c, 0, 72, 120
2, 103589, Note_on_c, 0, 72, 0
2, 103620, Note_on_c, 0, 79, 120
2, 103649, Note_on_c, 0, 79, 0
2, 103650, Note_on_c, 0, 62, 120
2, 103679, Note_on_c, 0, 62, 0
2, 103680, Note_on_c, 0, 60, 120
2, 103709, Note_on_c, 0, 60, 0
2, 103710, Note_on_c, 0, 62, 120
2, 103739, Note_on_c, 0, 62, 0
2, 103740, Note_on_c, 0, 58, 120
2, 103769, Note_on_c, 0, 58, 0
2, 103770, Note_on_c, 0, 62, 120
2, 103799, Note_on_c, 0, 62, 0
2, 103800, Note_on_c, 0, 60, 120
2, 103829, Note_on_c, 0, 60, 0
2, 103830, Note_on_c, 0, 62, 120
2, 103859, Note_on_c, 0, 62, 0
2, 103860, Note_on_c, 0, 74, 120
2, 103889, Note_on_c, 0, 74, 0
2, 103920, Note_on_c, 0, 70, 120
2, 103949, Note_on_c, 0, 70, 0
2, 103980, Note_on_c, 0, 72, 120
2, 104009, Note_on_c, 0, 72, 0
2, 104010, Note_on_c, 0, 58, 120
2, 104039, Note_on_c, 0, 58, 0
2, 104040, Note_on_c, 0, 57, 120
2, 104069, Note_on_c, 0, 57, 0
2, 104070, Note_on_c, 0, 58, 120
2, 104099, Note_on_c, 0, 58, 0
2, 104100, Note_on_c, 0, 60, 120
2, 104129, Note_on_c, 0, 60, 0
2, 104130, Note_on_c, 0, 58, 120
2, 104159, Note_on_c, 0, 58, 0
2, 104160, Note_on_c, 0, 57, 120
2, 104189, Note_on_c, 0, 57, 0
2, 104190, Note_on_c, 0, 58, 120
2, 104219, Note_on_c, 0, 58, 0
2, 104220, Note_on_c, 0, 72, 120
2, 104249, Note_on_c, 0, 72, 0
2, 104280, Note_on_c, 0, 69, 120
2, 104309, Note_on_c, 0, 69, 0
2, 104340, Note_on_c, 0, 70, 120
2, 104399, Note_on_c, 0, 70, 0
2, 104400, Note_on_c, 0, 74, 120
2, 104459, Note_on_c, 0, 74, 0
2, 104460, Note_on_c, 0, 79, 120
2, 104519, Note_on_c, 0, 79, 0
2, 104520, Note_on_c, 0, 82, 120
2, 104579, Note_on_c, 0, 82, 0
2, 104580, Note_on_c, 0, 73, 120
2, 104589, Note_on_c, 0, 73, 0
2, 104590, Note_on_c, 0, 74, 120
2, 104599, Note_on_c, 0, 74, 0
2, 104600, Note_on_c, 0, 73, 120
2, 104609, Note_on_c, 0, 73, 0
2, 104610, Note_on_c, 0, 74, 120
2, 104619, Note_on_c, 0, 74, 0
2, 104620, Note_on_c, 0, 73, 120
2, 104629, Note_on_c, 0, 73, 0
2, 104630, Note_on_c, 0, 74, 120
2, 104639, Note_on_c, 0, 74, 0
2, 104640, Note_on_c, 0, 73, 120
2, 104649, Note_on_c, 0, 73, 0
2, 104650, Note_on_c, 0, 74, 120
2, 104659, Note_on_c, 0, 74, 0
2, 104660, Note_on_c, 0, 73, 120
2, 104669, Note_on_c, 0, 73, 0
2, 104670, Note_on_c, 0, 71, 120
2, 104685, Note_on_c, 0, 71, 0
2, 104685, Note_on_c, 0, 73, 120
2, 104700, Note_on_c, 0, 73, 0
2, 104700, Note_on_c, 0, 74, 120
2, 104759, Note_on_c, 0, 74, 0
2, 104760, Note_on_c, 0, 69, 120
2, 104819, Note_on_c, 0, 69, 0
2, 104820, Note_on_c, 0, 70, 120
2, 104879, Note_on_c, 0, 70, 0
2, 104880, Note_on_c, 0, 67, 120
2, 104939, Note_on_c, 0, 67, 0
2, 104940, Note_on_c, 0, 62, 120
2, 104999, Note_on_c, 0, 62, 0
2, 105000, Note_on_c, 0, 66, 120
2, 105059, Note_on_c, 0, 66, 0
2, 105060, Note_on_c, 0, 67, 120
2, 105120, Note_on_c, 0, 67, 0
2, 105120, Note_on_c, 0, 79, 120
2, 105150, Note_on_c, 0, 79, 0
2, 105150, Note_on_c, 0, 77, 120
2, 105180, Note_on_c, 0, 77, 0
2, 105180, Note_on_c, 0, 79, 120
2, 105240, Note_on_c, 0, 79, 0
2, 105840, Note_on_c, 0, 75, 120
2, 105870, Note_on_c, 0, 75, 0
2, 105870, Note_on_c, 0, 74, 120
2, 105900, Note_on_c, 0, 74, 0
2, 105900, Note_on_c, 0, 72, 120
2, 105960, Note_on_c, 0, 72, 0
2, 106560, Note_on_c, 0, 77, 120
2, 106590, Note_on_c, 0, 77, 0
2, 106590, Note_on_c, 0, 76, 120
2, 106620, Note_on_c, 0, 76, 0
2, 106620, Note_on_c, 0, 77, 120
2, 106680, Note_on_c, 0, 77, 0
2, 107280, Note_on_c, 0, 74, 120
2, 107310, Note_on_c, 0, 74, 0
2, 107310, Note_on_c, 0, 72, 120
2, 107340, Note_on_c, 0, 72, 0
2, 107340, Note_on_c, 0, 70, 120
2, 107400, Note_on_c, 0, 70, 0
2, 107880, Note_on_c, 0, 75, 120
2, 107909, Note_on_c, 0, 75, 0
2, 107910, Note_on_c, 0, 74, 120
2, 107939, Note_on_c, 0, 74, 0
2, 107940, Note_on_c, 0, 75, 120
2, 107969, Note_on_c, 0, 75, 0
2, 107970, Note_on_c, 0, 70, 120
2, 107999, Note_on_c, 0, 70, 0
2, 108000, Note_on_c, 0, 72, 120
2, 108029, Note_on_c, 0, 72, 0
2, 108030, Note_on_c, 0, 68, 120
2, 108059, Note_on_c, 0, 68, 0
2, 108060, Note_on_c, 0, 70, 120
2, 108089, Note_on_c, 0, 70, 0
2, 108090, Note_on_c, 0, 67, 120
2, 108119, Note_on_c, 0, 67, 0
2, 108120, Note_on_c, 0, 68, 120
2, 108149, Note_on_c, 0, 68, 0
2, 108150, Note_on_c, 0, 65, 120
2, 108179, Note_on_c, 0, 65, 0
2, 108180, Note_on_c, 0, 67, 120
2, 108209, Note_on_c, 0, 67, 0
2, 108210, Note_on_c, 0, 72, 120
2, 108239, Note_on_c, 0, 72, 0
2, 108240, Note_on_c, 0, 74, 120
2, 108269, Note_on_c, 0, 74, 0
2, 108270, Note_on_c, 0, 75, 120
2, 108299, Note_on_c, 0, 75, 0
2, 108300, Note_on_c, 0, 77, 120
2, 108329, Note_on_c, 0, 77, 0
2, 108330, Note_on_c, 0, 75, 120
2, 108359, Note_on_c, 0, 75, 0
2, 108360, Note_on_c, 0, 77, 120
2, 108389, Note_on_c, 0, 77, 0
2, 108390, Note_on_c, 0, 74, 120
2, 108419, Note_on_c, 0, 74, 0
2, 108420, Note_on_c, 0, 75, 120
2, 108449, Note_on_c, 0, 75, 0
2, 108450, Note_on_c, 0, 71, 120
2, 108479, Note_on_c, 0, 71, 0
2, 108480, Note_on_c, 0, 72, 120
2, 108509, Note_on_c, 0, 72, 0
2, 108510, Note_on_c, 0, 69, 120
2, 108539, Note_on_c, 0, 69, 0
2, 108540, Note_on_c, 0, 71, 120
2, 108569, Note_on_c, 0, 71, 0
2, 108570, Note_on_c, 0, 67, 120
2, 108599, Note_on_c, 0, 67, 0
2, 108600, Note_on_c, 0, 72, 120
2, 108629, Note_on_c, 0, 72, 0
2, 108630, Note_on_c, 0, 71, 120
2, 108659, Note_on_c, 0, 71, 0
2, 108660, Note_on_c, 0, 72, 120
2, 108689, Note_on_c, 0, 72, 0
2, 108690, Note_on_c, 0, 67, 120
2, 108719, Note_on_c, 0, 67, 0
2, 108720, Note_on_c, 0, 68, 120
2, 108749, Note_on_c, 0, 68, 0
2, 108750, Note_on_c, 0, 65, 120
2, 108779, Note_on_c, 0, 65, 0
2, 108780, Note_on_c, 0, 67, 120
2, 108809, Note_on_c, 0, 67, 0
2, 108810, Note_on_c, 0, 63, 120
2, 108839, Note_on_c, 0, 63, 0
2, 108840, Note_on_c, 0, 65, 120
2, 108869, Note_on_c, 0, 65, 0
2, 108870, Note_on_c, 0, 62, 120
2, 108899, Note_on_c, 0, 62, 0
2, 108900, Note_on_c, 0, 63, 120
2, 108929, Note_on_c, 0, 63, 0
2, 108930, Note_on_c, 0, 68, 120
2, 108959, Note_on_c, 0, 68, 0
2, 108960, Note_on_c, 0, 70, 120
2, 108989, Note_on_c, 0, 70, 0
2, 108990, Note_on_c, 0, 72, 120
2, 109019, Note_on_c, 0, 72, 0
2, 109020, Note_on_c, 0, 73, 120
2, 109049, Note_on_c, 0, 73, 0
2, 109050, Note_on_c, 0, 70, 120
2, 109079, Note_on_c, 0, 70, 0
2, 109080, Note_on_c, 0, 72, 120
2, 109109, Note_on_c, 0, 72, 0
2, 109110, Note_on_c, 0, 68, 120
2, 109139, Note_on_c, 0, 68, 0
2, 109140, Note_on_c, 0, 70, 120
2, 109169, Note_on_c, 0, 70, 0
2, 109170, Note_on_c, 0, 67, 120
2, 109199, Note_on_c, 0, 67, 0
2, 109200, Note_on_c, 0, 68, 120
2, 109229, Note_on_c, 0, 68, 0
2, 109230, Note_on_c, 0, 65, 120
2, 109259, Note_on_c, 0, 65, 0
2, 109260, Note_on_c, 0, 67, 120
2, 109289, Note_on_c, 0, 67, 0
2, 109290, Note_on_c, 0, 63, 120
2, 109319, Note_on_c, 0, 63, 0
2, 109320, Note_on_c, 0, 68, 120
2, 109349, Note_on_c, 0, 68, 0
2, 109350, Note_on_c, 0, 67, 120
2, 109379, Note_on_c, 0, 67, 0
2, 109380, Note_on_c, 0, 68, 120
2, 109409, Note_on_c, 0, 68, 0
2, 109410, Note_on_c, 0, 63, 120
2, 109439, Note_on_c, 0, 63, 0
2, 109440, Note_on_c, 0, 65, 120
2, 109469, Note_on_c, 0, 65, 0
2, 109470, Note_on_c, 0, 61, 120
2, 109499, Note_on_c, 0, 61, 0
2, 109500, Note_on_c, 0, 63, 120
2, 109529, Note_on_c, 0, 63, 0
2, 109530, Note_on_c, 0, 60, 120
2, 109559, Note_on_c, 0, 60, 0
2, 109560, Note_on_c, 0, 61, 120
2, 109589, Note_on_c, 0, 61, 0
2, 109590, Note_on_c, 0, 58, 120
2, 109619, Note_on_c, 0, 58, 0
2, 109620, Note_on_c, 0, 60, 120
2, 109649, Note_on_c, 0, 60, 0
2, 109650, Note_on_c, 0, 65, 120
2, 109679, Note_on_c, 0, 65, 0
2, 109680, Note_on_c, 0, 67, 120
2, 109709, Note_on_c, 0, 67, 0
2, 109710, Note_on_c, 0, 68, 120
2, 109739, Note_on_c, 0, 68, 0
2, 109740, Note_on_c, 0, 70, 120
2, 109769, Note_on_c, 0, 70, 0
2, 109770, Note_on_c, 0, 67, 120
2, 109799, Note_on_c, 0, 67, 0
2, 109800, Note_on_c, 0, 68, 120
2, 109829, Note_on_c, 0, 68, 0
2, 109830, Note_on_c, 0, 65, 120
2, 109859, Note_on_c, 0, 65, 0
2, 109860, Note_on_c, 0, 67, 120
2, 109889, Note_on_c, 0, 67, 0
2, 109890, Note_on_c, 0, 64, 120
2, 109919, Note_on_c, 0, 64, 0
2, 109920, Note_on_c, 0, 65, 120
2, 109949, Note_on_c, 0, 65, 0
2, 109950, Note_on_c, 0, 62, 120
2, 109979, Note_on_c, 0, 62, 0
2, 109980, Note_on_c, 0, 64, 120
2, 110009, Note_on_c, 0, 64, 0
2, 110010, Note_on_c, 0, 60, 120
2, 110039, Note_on_c, 0, 60, 0
2, 110040, Note_on_c, 0, 77, 120
2, 110069, Note_on_c, 0, 77, 0
2, 110070, Note_on_c, 0, 76, 120
2, 110099, Note_on_c, 0, 76, 0
2, 110100, Note_on_c, 0, 77, 120
2, 110159, Note_on_c, 0, 77, 0
2, 110280, Note_on_c, 0, 77, 120
2, 110309, Note_on_c, 0, 77, 0
2, 110310, Note_on_c, 0, 76, 120
2, 110339, Note_on_c, 0, 76, 0
2, 110340, Note_on_c, 0, 77, 120
2, 110399, Note_on_c, 0, 77, 0
2, 110520, Note_on_c, 0, 73, 120
2, 110549, Note_on_c, 0, 73, 0
2, 110550, Note_on_c, 0, 72, 120
2, 110579, Note_on_c, 0, 72, 0
2, 110580, Note_on_c, 0, 73, 120
2, 110639, Note_on_c, 0, 73, 0
2, 110760, Note_on_c, 0, 76, 120
2, 110789, Note_on_c, 0, 76, 0
2, 110790, Note_on_c, 0, 72, 120
2, 110819, Note_on_c, 0, 72, 0
2, 110820, Note_on_c, 0, 77, 120
2, 110879, Note_on_c, 0, 77, 0
2, 111000, Note_on_c, 0, 80, 120
2, 111029, Note_on_c, 0, 80, 0
2, 111030, Note_on_c, 0, 79, 120
2, 111059, Note_on_c, 0, 79, 0
2, 111060, Note_on_c, 0, 82, 120
2, 111119, Note_on_c, 0, 82, 0
2, 111240, Note_on_c, 0, 84, 120
2, 111269, Note_on_c, 0, 84, 0
2, 111270, Note_on_c, 0, 83, 120
2, 111299, Note_on_c, 0, 83, 0
2, 111300, Note_on_c, 0, 84, 120
2, 111329, Note_on_c, 0, 84, 0
2, 111330, Note_on_c, 0, 79, 120
2, 111359, Note_on_c, 0, 79, 0
2, 111360, Note_on_c, 0, 76, 120
2, 111389, Note_on_c, 0, 76, 0
2, 111390, Note_on_c, 0, 79, 120
2, 111419, Note_on_c, 0, 79, 0
2, 111420, Note_on_c, 0, 72, 120
2, 111479, Note_on_c, 0, 72, 0
2, 112080, Note_on_c, 0, 73, 120
2, 112110, Note_on_c, 0, 73, 0
2, 112110, Note_on_c, 0, 72, 120
2, 112140, Note_on_c, 0, 72, 0
2, 112140, Note_on_c, 0, 73, 120
2, 112199, Note_on_c, 0, 73, 0
2, 112800, Note_on_c, 0, 76, 120
2, 112830, Note_on_c, 0, 76, 0
2, 112830, Note_on_c, 0, 74, 120
2, 112860, Note_on_c, 0, 74, 0
2, 112860, Note_on_c, 0, 76, 120
2, 112920, Note_on_c, 0, 76, 0
2, 112920, Note_on_c, 0, 84, 120
2, 112950, Note_on_c, 0, 84, 0
2, 112950, Note_on_c, 0, 83, 120
2, 112980, Note_on_c, 0, 83, 0
2, 112980, Note_on_c, 0, 84, 120
2, 113040, Note_on_c, 0, 84, 0
2, 113160, Note_on_c, 0, 84, 120
2, 113190, Note_on_c, 0, 84, 0
2, 113190, Note_on_c, 0, 83, 120
2, 113220, Note_on_c, 0, 83, 0
2, 113220, Note_on_c, 0, 84, 120
2, 113280, Note_on_c, 0, 84, 0
2, 113400, Note_on_c, 0, 72, 120
2, 113430, Note_on_c, 0, 72, 0
2, 113430, Note_on_c, 0, 71, 120
2, 113460, Note_on_c, 0, 71, 0
2, 113460, Note_on_c, 0, 72, 120
2, 113520, Note_on_c, 0, 72, 0
2, 113640, Note_on_c, 0, 70, 120
2, 113700, Note_on_c, 0, 70, 0
2, 113700, Note_on_c, 0, 68, 120
2, 113760, Note_on_c, 0, 68, 0
2, 114840, Note_on_c, 0, 65, 120
2, 114870, Note_on_c, 0, 65, 0
2, 114870, Note_on_c, 0, 67, 120
2, 114900, Note_on_c, 0, 67, 0
2, 114900, Note_on_c, 0, 65, 120
2, 114960, Note_on_c, 0, 65, 0
2, 115080, Note_on_c, 0, 68, 120
2, 115110, Note_on_c, 0, 68, 0
2, 115110, Note_on_c, 0, 70, 120
2, 115140, Note_on_c, 0, 70, 0
2, 115140, Note_on_c, 0, 68, 120
2, 115200, Note_on_c, 0, 68, 0
2, 116280, Note_on_c, 0, 72, 120
2, 116310, Note_on_c, 0, 72, 0
2, 116310, Note_on_c, 0, 73, 120
2, 116340, Note_on_c, 0, 73, 0
2, 116340, Note_on_c, 0, 72, 120
2, 116400, Note_on_c, 0, 72, 0
2, 116520, Note_on_c, 0, 77, 120
2, 116550, Note_on_c, 0, 77, 0
2, 116550, Note_on_c, 0, 79, 120
2, 116580, Note_on_c, 0, 79, 0
2, 116580, Note_on_c, 0, 77, 120
2, 116640, Note_on_c, 0, 77, 0
2, 116700, Note_on_c, 0, 84, 120
2, 116760, Note_on_c, 0, 84, 0
2, 116940, Note_on_c, 0, 82, 120
2, 117000, Note_on_c, 0, 82, 0
2, 117060, Note_on_c, 0, 80, 120
2, 117120, Note_on_c, 0, 80, 0
2, 117300, Note_on_c, 0, 79, 120
2, 117360, Note_on_c, 0, 79, 0
2, 117420, Note_on_c, 0, 77, 120
2, 117480, Note_on_c, 0, 77, 0
2, 117660, Note_on_c, 0, 75, 120
2, 117720, Note_on_c, 0, 75, 0
2, 117780, Note_on_c, 0, 72, 120
2, 117840, Note_on_c, 0, 72, 0
2, 118020, Note_on_c, 0, 70, 120
2, 118080, Note_on_c, 0, 70, 0
2, 118140, Note_on_c, 0, 75, 120
2, 118200, Note_on_c, 0, 75, 0
2, 118380, Note_on_c, 0, 72, 120
2, 118440, Note_on_c, 0, 72, 0
2, 118500, Note_on_c, 0, 77, 120
2, 118560, Note_on_c, 0, 77, 0
2, 118740, Note_on_c, 0, 74, 120
2, 118800, Note_on_c, 0, 74, 0
2, 118860, Note_on_c, 0, 79, 120
2, 118920, Note_on_c, 0, 79, 0
2, 119100, Note_on_c, 0, 75, 120
2, 119160, Note_on_c, 0, 75, 0
2, 119160, Note_on_c, 0, 72, 120
2, 119190, Note_on_c, 0, 72, 0
2, 119190, Note_on_c, 0, 71, 120
2, 119220, Note_on_c, 0, 71, 0
2, 119220, Note_on_c, 0, 72, 120
2, 119280, Note_on_c, 0, 72, 0
2, 119880, Note_on_c, 0, 68, 120
2, 119910, Note_on_c, 0, 68, 0
2, 119910, Note_on_c, 0, 67, 120
2, 119940, Note_on_c, 0, 67, 0
2, 119940, Note_on_c, 0, 65, 120
2, 120000, Note_on_c, 0, 65, 0
2, 120600, Note_on_c, 0, 70, 120
2, 120630, Note_on_c, 0, 70, 0
2, 120630, Note_on_c, 0, 69, 120
2, 120660, Note_on_c, 0, 69, 0
2, 120660, Note_on_c, 0, 70, 120
2, 120720, Note_on_c, 0, 70, 0
2, 121320, Note_on_c, 0, 67, 120
2, 121350, Note_on_c, 0, 67, 0
2, 121350, Note_on_c, 0, 65, 120
2, 121380, Note_on_c, 0, 65, 0
2, 121380, Note_on_c, 0, 63, 120
2, 121440, Note_on_c, 0, 63, 0
2, 121920, Note_on_c, 0, 68, 120
2, 121949, Note_on_c, 0, 68, 0
2, 121950, Note_on_c, 0, 67, 120
2, 121979, Note_on_c, 0, 67, 0
2, 121980, Note_on_c, 0, 68, 120
2, 122009, Note_on_c, 0, 68, 0
2, 122010, Note_on_c, 0, 63, 120
2, 122039, Note_on_c, 0, 63, 0
2, 122040, Note_on_c, 0, 65, 120
2, 122069, Note_on_c, 0, 65, 0
2, 122070, Note_on_c, 0, 61, 120
2, 122099, Note_on_c, 0, 61, 0
2, 122100, Note_on_c, 0, 63, 120
2, 122129, Note_on_c, 0, 63, 0
2, 122130, Note_on_c, 0, 60, 120
2, 122159, Note_on_c, 0, 60, 0
2, 122160, Note_on_c, 0, 61, 120
2, 122189, Note_on_c, 0, 61, 0
2, 122190, Note_on_c, 0, 58, 120
2, 122219, Note_on_c, 0, 58, 0
2, 122220, Note_on_c, 0, 60, 120
2, 122249, Note_on_c, 0, 60, 0
2, 122250, Note_on_c, 0, 65, 120
2, 122279, Note_on_c, 0, 65, 0
2, 122280, Note_on_c, 0, 67, 120
2, 122309, Note_on_c, 0, 67, 0
2, 122310, Note_on_c, 0, 68, 120
2, 122339, Note_on_c, 0, 68, 0
2, 122340, Note_on_c, 0, 70, 120
2, 122369, Note_on_c, 0, 70, 0
2, 122370, Note_on_c, 0, 67, 120
2, 122399, Note_on_c, 0, 67, 0
2, 122400, Note_on_c, 0, 68, 120
2, 122429, Note_on_c, 0, 68, 0
2, 122430, Note_on_c, 0, 65, 120
2, 122459, Note_on_c, 0, 65, 0
2, 122460, Note_on_c, 0, 67, 120
2, 122489, Note_on_c, 0, 67, 0
2, 122490, Note_on_c, 0, 64, 120
2, 122519, Note_on_c, 0, 64, 0
2, 122520, Note_on_c, 0, 65, 120
2, 122549, Note_on_c, 0, 65, 0
2, 122550, Note_on_c, 0, 62, 120
2, 122579, Note_on_c, 0, 62, 0
2, 122580, Note_on_c, 0, 63, 120
2, 122609, Note_on_c, 0, 63, 0
2, 122610, Note_on_c, 0, 60, 120
2, 122639, Note_on_c, 0, 60, 0
2, 122640, Note_on_c, 0, 65, 120
2, 122669, Note_on_c, 0, 65, 0
2, 122670, Note_on_c, 0, 63, 120
2, 122699, Note_on_c, 0, 63, 0
2, 122700, Note_on_c, 0, 65, 120
2, 122729, Note_on_c, 0, 65, 0
2, 122730, Note_on_c, 0, 60, 120
2, 122759, Note_on_c, 0, 60, 0
2, 122760, Note_on_c, 0, 65, 120
2, 122789, Note_on_c, 0, 65, 0
2, 122790, Note_on_c, 0, 67, 120
2, 122819, Note_on_c, 0, 67, 0
2, 122820, Note_on_c, 0, 69, 120
2, 122849, Note_on_c, 0, 69, 0
2, 122850, Note_on_c, 0, 72, 120
2, 122879, Note_on_c, 0, 72, 0
2, 122880, Note_on_c, 0, 71, 120
2, 122909, Note_on_c, 0, 71, 0
2, 122910, Note_on_c, 0, 74, 120
2, 122939, Note_on_c, 0, 74, 0
2, 122940, Note_on_c, 0, 72, 120
2, 122969, Note_on_c, 0, 72, 0
2, 122970, Note_on_c, 0, 60, 120
2, 122999, Note_on_c, 0, 60, 0
2, 123000, Note_on_c, 0, 62, 120
2, 123029, Note_on_c, 0, 62, 0
2, 123030, Note_on_c, 0, 63, 120
2, 123059, Note_on_c, 0, 63, 0
2, 123060, Note_on_c, 0, 65, 120
2, 123089, Note_on_c, 0, 65, 0
2, 123090, Note_on_c, 0, 62, 120
2, 123119, Note_on_c, 0, 62, 0
2, 123120, Note_on_c, 0, 63, 120
2, 123149, Note_on_c, 0, 63, 0
2, 123150, Note_on_c, 0, 60, 120
2, 123179, Note_on_c, 0, 60, 0
2, 123180, Note_on_c, 0, 62, 120
2, 123209, Note_on_c, 0, 62, 0
2, 123210, Note_on_c, 0, 59, 120
2, 123239, Note_on_c, 0, 59, 0
2, 123240, Note_on_c, 0, 60, 120
2, 123269, Note_on_c, 0, 60, 0
2, 123270, Note_on_c, 0, 57, 120
2, 123299, Note_on_c, 0, 57, 0
2, 123300, Note_on_c, 0, 59, 120
2, 123329, Note_on_c, 0, 59, 0
2, 123330, Note_on_c, 0, 55, 120
2, 123359, Note_on_c, 0, 55, 0
2, 123360, Note_on_c, 0, 72, 120
2, 123389, Note_on_c, 0, 72, 0
2, 123390, Note_on_c, 0, 71, 120
2, 123419, Note_on_c, 0, 71, 0
2, 123420, Note_on_c, 0, 72, 120
2, 123479, Note_on_c, 0, 72, 0
2, 123600, Note_on_c, 0, 72, 120
2, 123629, Note_on_c, 0, 72, 0
2, 123630, Note_on_c, 0, 71, 120
2, 123659, Note_on_c, 0, 71, 0
2, 123660, Note_on_c, 0, 72, 120
2, 123719, Note_on_c, 0, 72, 0
2, 123840, Note_on_c, 0, 68, 120
2, 123869, Note_on_c, 0, 68, 0
2, 123870, Note_on_c, 0, 67, 120
2, 123899, Note_on_c, 0, 67, 0
2, 123900, Note_on_c, 0, 68, 120
2, 123959, Note_on_c, 0, 68, 0
2, 124080, Note_on_c, 0, 71, 120
2, 124109, Note_on_c, 0, 71, 0
2, 124110, Note_on_c, 0, 67, 120
2, 124139, Note_on_c, 0, 67, 0
2, 124140, Note_on_c, 0, 72, 120
2, 124199, Note_on_c, 0, 72, 0
2, 124320, Note_on_c, 0, 75, 120
2, 124349, Note_on_c, 0, 75, 0
2, 124350, Note_on_c, 0, 74, 120
2, 124379, Note_on_c, 0, 74, 0
2, 124380, Note_on_c, 0, 77, 120
2, 124439, Note_on_c, 0, 77, 0
2, 124560, Note_on_c, 0, 79, 120
2, 124589, Note_on_c, 0, 79, 0
2, 124590, Note_on_c, 0, 78, 120
2, 124619, Note_on_c, 0, 78, 0
2, 124620, Note_on_c, 0, 79, 120
2, 124649, Note_on_c, 0, 79, 0
2, 124650, Note_on_c, 0, 74, 120
2, 124679, Note_on_c, 0, 74, 0
2, 124680, Note_on_c, 0, 71, 120
2, 124709, Note_on_c, 0, 71, 0
2, 124710, Note_on_c, 0, 74, 120
2, 124739, Note_on_c, 0, 74, 0
2, 124740, Note_on_c, 0, 67, 120
2, 124799, Note_on_c, 0, 67, 0
2, 124920, Note_on_c, 0, 72, 120
2, 124949, Note_on_c, 0, 72, 0
2, 124950, Note_on_c, 0, 70, 120
2, 124979, Note_on_c, 0, 70, 0
2, 124980, Note_on_c, 0, 72, 120
2, 125009, Note_on_c, 0, 72, 0
2, 125010, Note_on_c, 0, 67, 120
2, 125039, Note_on_c, 0, 67, 0
2, 125040, Note_on_c, 0, 64, 120
2, 125069, Note_on_c, 0, 64, 0
2, 125070, Note_on_c, 0, 67, 120
2, 125099, Note_on_c, 0, 67, 0
2, 125100, Note_on_c, 0, 60, 120
2, 125159, Note_on_c, 0, 60, 0
2, 125280, Note_on_c, 0, 65, 120
2, 125309, Note_on_c, 0, 65, 0
2, 125310, Note_on_c, 0, 64, 120
2, 125339, Note_on_c, 0, 64, 0
2, 125340, Note_on_c, 0, 65, 120
2, 125369, Note_on_c, 0, 65, 0
2, 125370, Note_on_c, 0, 60, 120
2, 125399, Note_on_c, 0, 60, 0
2, 125400, Note_on_c, 0, 56, 120
2, 125429, Note_on_c, 0, 56, 0
2, 125430, Note_on_c, 0, 60, 120
2, 125459, Note_on_c, 0, 60, 0
2, 125460, Note_on_c, 0, 65, 120
2, 125519, Note_on_c, 0, 65, 0
2, 125640, Note_on_c, 0, 67, 120
2, 125669, Note_on_c, 0, 67, 0
2, 125670, Note_on_c, 0, 65, 120
2, 125699, Note_on_c, 0, 65, 0
2, 125700, Note_on_c, 0, 67, 120
2, 125729, Note_on_c, 0, 67, 0
2, 125730, Note_on_c, 0, 62, 120
2, 125759, Note_on_c, 0, 62, 0
2, 125760, Note_on_c, 0, 59, 120
2, 125789, Note_on_c, 0, 59, 0
2, 125790, Note_on_c, 0, 62, 120
2, 125819, Note_on_c, 0, 62, 0
2, 125820, Note_on_c, 0, 55, 120
2, 125879, Note_on_c, 0, 55, 0
2, 126000, Note_on_c, 0, 72, 120
2, 126029, Note_on_c, 0, 72, 0
2, 126030, Note_on_c, 0, 71, 120
2, 126059, Note_on_c, 0, 71, 0
2, 126060, Note_on_c, 0, 72, 120
2, 126089, Note_on_c, 0, 72, 0
2, 126090, Note_on_c, 0, 67, 120
2, 126119, Note_on_c, 0, 67, 0
2, 126120, Note_on_c, 0, 63, 120
2, 126149, Note_on_c, 0, 63, 0
2, 126150, Note_on_c, 0, 67, 120
2, 126179, Note_on_c, 0, 67, 0
2, 126180, Note_on_c, 0, 60, 120
2, 126239, Note_on_c, 0, 60, 0
2, 126330, Note_on_c, 0, 65, 120
2, 126359, Note_on_c, 0, 65, 0
2, 126360, Note_on_c, 0, 70, 120
2, 126389, Note_on_c, 0, 70, 0
2, 126390, Note_on_c, 0, 68, 120
2, 126419, Note_on_c, 0, 68, 0
2, 126420, Note_on_c, 0, 70, 120
2, 126449, Note_on_c, 0, 70, 0
2, 126450, Note_on_c, 0, 65, 120
2, 126479, Note_on_c, 0, 65, 0
2, 126480, Note_on_c, 0, 74, 120
2, 126509, Note_on_c, 0, 74, 0
2, 126510, Note_on_c, 0, 72, 120
2, 126539, Note_on_c, 0, 72, 0
2, 126540, Note_on_c, 0, 74, 120
2, 126569, Note_on_c, 0, 74, 0
2, 126570, Note_on_c, 0, 70, 120
2, 126599, Note_on_c, 0, 70, 0
2, 126600, Note_on_c, 0, 74, 120
2, 126629, Note_on_c, 0, 74, 0
2, 126630, Note_on_c, 0, 77, 120
2, 126659, Note_on_c, 0, 77, 0
2, 126660, Note_on_c, 0, 79, 120
2, 126689, Note_on_c, 0, 79, 0
2, 126690, Note_on_c, 0, 63, 120
2, 126719, Note_on_c, 0, 63, 0
2, 126720, Note_on_c, 0, 68, 120
2, 126749, Note_on_c, 0, 68, 0
2, 126750, Note_on_c, 0, 67, 120
2, 126779, Note_on_c, 0, 67, 0
2, 126780, Note_on_c, 0, 68, 120
2, 126809, Note_on_c, 0, 68, 0
2, 126810, Note_on_c, 0, 63, 120
2, 126839, Note_on_c, 0, 63, 0
2, 126840, Note_on_c, 0, 72, 120
2, 126869, Note_on_c, 0, 72, 0
2, 126870, Note_on_c, 0, 70, 120
2, 126899, Note_on_c, 0, 70, 0
2, 126900, Note_on_c, 0, 72, 120
2, 126929, Note_on_c, 0, 72, 0
2, 126930, Note_on_c, 0, 68, 120
2, 126959, Note_on_c, 0, 68, 0
2, 126960, Note_on_c, 0, 72, 120
2, 126989, Note_on_c, 0, 72, 0
2, 126990, Note_on_c, 0, 75, 120
2, 127019, Note_on_c, 0, 75, 0
2, 127020, Note_on_c, 0, 77, 120
2, 127049, Note_on_c, 0, 77, 0
2, 127050, Note_on_c, 0, 62, 120
2, 127079, Note_on_c, 0, 62, 0
2, 127080, Note_on_c, 0, 67, 120
2, 127109, Note_on_c, 0, 67, 0
2, 127110, Note_on_c, 0, 65, 120
2, 127139, Note_on_c, 0, 65, 0
2, 127140, Note_on_c, 0, 67, 120
2, 127169, Note_on_c, 0, 67, 0
2, 127170, Note_on_c, 0, 62, 120
2, 127199, Note_on_c, 0, 62, 0
2, 127200, Note_on_c, 0, 71, 120
2, 127229, Note_on_c, 0, 71, 0
2, 127230, Note_on_c, 0, 69, 120
2, 127259, Note_on_c, 0, 69, 0
2, 127260, Note_on_c, 0, 71, 120
2, 127289, Note_on_c, 0, 71, 0
2, 127290, Note_on_c, 0, 67, 120
2, 127319, Note_on_c, 0, 67, 0
2, 127320, Note_on_c, 0, 72, 120
2, 127349, Note_on_c, 0, 72, 0
2, 127350, Note_on_c, 0, 71, 120
2, 127379, Note_on_c, 0, 71, 0
2, 127380, Note_on_c, 0, 72, 120
2, 127439, Note_on_c, 0, 72, 0
2, 127560, Note_on_c, 0, 72, 120
2, 127589, Note_on_c, 0, 72, 0
2, 127590, Note_on_c, 0, 71, 120
2, 127619, Note_on_c, 0, 71, 0
2, 127620, Note_on_c, 0, 72, 120
2, 127679, Note_on_c, 0, 72, 0
2, 127800, Note_on_c, 0, 68, 120
2, 127829, Note_on_c, 0, 68, 0
2, 127830, Note_on_c, 0, 67, 120
2, 127859, Note_on_c, 0, 67, 0
2, 127860, Note_on_c, 0, 68, 120
2, 127920, Note_on_c, 0, 68, 0
2, 128040, Note_on_c, 0, 71, 120
2, 128069, Note_on_c, 0, 71, 0
2, 128070, Note_on_c, 0, 67, 120
2, 128099, Note_on_c, 0, 67, 0
2, 128100, Note_on_c, 0, 72, 120
2, 128160, Note_on_c, 0, 72, 0
2, 128280, Note_on_c, 0, 75, 120
2, 128309, Note_on_c, 0, 75, 0
2, 128310, Note_on_c, 0, 74, 120
2, 128339, Note_on_c, 0, 74, 0
2, 128340, Note_on_c, 0, 77, 120
2, 128400, Note_on_c, 0, 77, 0
2, 128520, Note_on_c, 0, 79, 120
2, 128549, Note_on_c, 0, 79, 0
2, 128550, Note_on_c, 0, 78, 120
2, 128579, Note_on_c, 0, 78, 0
2, 128580, Note_on_c, 0, 79, 120
2, 128609, Note_on_c, 0, 79, 0
2, 128610, Note_on_c, 0, 74, 120
2, 128639, Note_on_c, 0, 74, 0
2, 128640, Note_on_c, 0, 71, 120
2, 128669, Note_on_c, 0, 71, 0
2, 128670, Note_on_c, 0, 74, 120
2, 128699, Note_on_c, 0, 74, 0
2, 128700, Note_on_c, 0, 67, 120
2, 128759, Note_on_c, 0, 67, 0
2, 129360, Note_on_c, 0, 68, 120
2, 129389, Note_on_c, 0, 68, 0
2, 129390, Note_on_c, 0, 67, 120
2, 129419, Note_on_c, 0, 67, 0
2, 129420, Note_on_c, 0, 68, 120
2, 129479, Note_on_c, 0, 68, 0
2, 130080, Note_on_c, 0, 71, 120
2, 130110, Note_on_c, 0, 71, 0
2, 130110, Note_on_c, 0, 69, 120
2, 130140, Note_on_c, 0, 69, 0
2, 130140, Note_on_c, 0, 71, 120
2, 130199, Note_on_c, 0, 71, 0
2, 130200, Note_on_c, 0, 79, 120
2, 130230, Note_on_c, 0, 79, 0
2, 130230, Note_on_c, 0, 78, 120
2, 130260, Note_on_c, 0, 78, 0
2, 130260, Note_on_c, 0, 79, 120
2, 130319, Note_on_c, 0, 79, 0
2, 130440, Note_on_c, 0, 79, 120
2, 130469, Note_on_c, 0, 79, 0
2, 130470, Note_on_c, 0, 78, 120
2, 130499, Note_on_c, 0, 78, 0
2, 130500, Note_on_c, 0, 79, 120
2, 130559, Note_on_c, 0, 79, 0
2, 130680, Note_on_c, 0, 79, 120
2, 130709, Note_on_c, 0, 79, 0
2, 130710, Note_on_c, 0, 78, 120
2, 130739, Note_on_c, 0, 78, 0
2, 130740, Note_on_c, 0, 79, 120
2, 130799, Note_on_c, 0, 79, 0
2, 130920, Note_on_c, 0, 77, 120
2, 130950, Note_on_c, 0, 77, 0
2, 130980, Note_on_c, 0, 75, 120
2, 131010, Note_on_c, 0, 75, 0
2, 131040, Note_on_c, 0, 73, 120
2, 131070, Note_on_c, 0, 73, 0
2, 131160, Note_on_c, 0, 72, 120
2, 131190, Note_on_c, 0, 72, 0
2, 131280, Note_on_c, 0, 80, 120
2, 131310, Note_on_c, 0, 80, 0
2, 131340, Note_on_c, 0, 71, 120
2, 131399, Note_on_c, 0, 71, 0
2, 131700, Note_on_c, 0, 72, 120
2, 131759, Note_on_c, 0, 72, 0
2, 132060, Note_on_c, 0, 74, 120
2, 132119, Note_on_c, 0, 74, 0
2, 132420, Note_on_c, 0, 75, 120
2, 132449, Note_on_c, 0, 75, 0
2, 132450, Note_on_c, 0, 67, 120
2, 132479, Note_on_c, 0, 67, 0
2, 132480, Note_on_c, 0, 65, 120
2, 132509, Note_on_c, 0, 65, 0
2, 132510, Note_on_c, 0, 67, 120
2, 132539, Note_on_c, 0, 67, 0
2, 132540, Note_on_c, 0, 68, 120
2, 132569, Note_on_c, 0, 68, 0
2, 132570, Note_on_c, 0, 67, 120
2, 132599, Note_on_c, 0, 67, 0
2, 132600, Note_on_c, 0, 65, 120
2, 132629, Note_on_c, 0, 65, 0
2, 132630, Note_on_c, 0, 67, 120
2, 132659, Note_on_c, 0, 67, 0
2, 132660, Note_on_c, 0, 68, 120
2, 132689, Note_on_c, 0, 68, 0
2, 132720, Note_on_c, 0, 65, 120
2, 132749, Note_on_c, 0, 65, 0
2, 132780, Note_on_c, 0, 72, 120
2, 132809, Note_on_c, 0, 72, 0
2, 132810, Note_on_c, 0, 67, 120
2, 132839, Note_on_c, 0, 67, 0
2, 132840, Note_on_c, 0, 65, 120
2, 132869, Note_on_c, 0, 65, 0
2, 132870, Note_on_c, 0, 67, 120
2, 132899, Note_on_c, 0, 67, 0
2, 132900, Note_on_c, 0, 63, 120
2, 132929, Note_on_c, 0, 63, 0
2, 132930, Note_on_c, 0, 67, 120
2, 132959, Note_on_c, 0, 67, 0
2, 132960, Note_on_c, 0, 65, 120
2, 132989, Note_on_c, 0, 65, 0
2, 132990, Note_on_c, 0, 67, 120
2, 133019, Note_on_c, 0, 67, 0
2, 133020, Note_on_c, 0, 67, 120
2, 133049, Note_on_c, 0, 67, 0
2, 133080, Note_on_c, 0, 63, 120
2, 133109, Note_on_c, 0, 63, 0
2, 133140, Note_on_c, 0, 65, 120
2, 133169, Note_on_c, 0, 65, 0
2, 133170, Note_on_c, 0, 63, 120
2, 133199, Note_on_c, 0, 63, 0
2, 133200, Note_on_c, 0, 62, 120
2, 133229, Note_on_c, 0, 62, 0
2, 133230, Note_on_c, 0, 63, 120
2, 133259, Note_on_c, 0, 63, 0
2, 133260, Note_on_c, 0, 65, 120
2, 133289, Note_on_c, 0, 65, 0
2, 133290, Note_on_c, 0, 63, 120
2, 133319, Note_on_c, 0, 63, 0
2, 133320, Note_on_c, 0, 62, 120
2, 133349, Note_on_c, 0, 62, 0
2, 133350, Note_on_c, 0, 63, 120
2, 133379, Note_on_c, 0, 63, 0
2, 133380, Note_on_c, 0, 65, 120
2, 133409, Note_on_c, 0, 65, 0
2, 133440, Note_on_c, 0, 62, 120
2, 133469, Note_on_c, 0, 62, 0
2, 133500, Note_on_c, 0, 63, 120
2, 133560, Note_on_c, 0, 63, 0
2, 133560, Note_on_c, 0, 67, 120
2, 133620, Note_on_c, 0, 67, 0
2, 133620, Note_on_c, 0, 72, 120
2, 133680, Note_on_c, 0, 72, 0
2, 133680, Note_on_c, 0, 75, 120
2, 133740, Note_on_c, 0, 75, 0
2, 133740, Note_on_c, 0, 79, 120
2, 133755, Note_on_c, 0, 79, 0
2, 133755, Note_on_c, 0, 78, 120
2, 133770, Note_on_c, 0, 78, 0
2, 133770, Note_on_c, 0, 79, 120
2, 133785, Note_on_c, 0, 79, 0
2, 133785, Note_on_c, 0, 78, 120
2, 133800, Note_on_c, 0, 78, 0
2, 133800, Note_on_c, 0, 79, 120
2, 133815, Note_on_c, 0, 79, 0
2, 133815, Note_on_c, 0, 78, 120
2, 133830, Note_on_c, 0, 78, 0
2, 133830, Note_on_c, 0, 76, 120
2, 133845, Note_on_c, 0, 76, 0
2, 133845, Note_on_c, 0, 78, 120
2, 133860, Note_on_c, 0, 78, 0
2, 133860, Note_on_c, 0, 79, 120
2, 133920, Note_on_c, 0, 79, 0
2, 133920, Note_on_c, 0, 74, 120
2, 133980, Note_on_c, 0, 74, 0
2, 133980, Note_on_c, 0, 75, 120
2, 134040, Note_on_c, 0, 75, 0
2, 134040, Note_on_c, 0, 72, 120
2, 134100, Note_on_c, 0, 72, 0
2, 134100, Note_on_c, 0, 67, 120
2, 134160, Note_on_c, 0, 67, 0
2, 134160, Note_on_c, 0, 71, 120
2, 134220, Note_on_c, 0, 71, 0
2, 134220, Note_on_c, 0, 72, 120
2, 134250, Note_on_c, 0, 72, 0
2, 134250, Note_on_c, 0, 67, 120
2, 134280, Note_on_c, 0, 67, 0
2, 134280, Note_on_c, 0, 68, 120
2, 134310, Note_on_c, 0, 68, 0
2, 134310, Note_on_c, 0, 65, 120
2, 134340, Note_on_c, 0, 65, 0
2, 134340, Note_on_c, 0, 67, 120
2, 134370, Note_on_c, 0, 67, 0
2, 134370, Note_on_c, 0, 63, 120
2, 134400, Note_on_c, 0, 63, 0
2, 134400, Note_on_c, 0, 65, 120
2, 134430, Note_on_c, 0, 65, 0
2, 134430, Note_on_c, 0, 62, 120
2, 134460, Note_on_c, 0, 62, 0
2, 134460, Note_on_c, 0, 63, 120
2, 134490, Note_on_c, 0, 63, 0
2, 134490, Note_on_c, 0, 60, 120
2, 134520, Note_on_c, 0, 60, 0
2, 134520, Note_on_c, 0, 62, 120
2, 134550, Note_on_c, 0, 62, 0
2, 134550, Note_on_c, 0, 59, 120
2, 134580, Note_on_c, 0, 59, 0
2, 134580, Note_on_c, 0, 60, 120
2, 134700, Note_on_c, 0, 60, 0
2, 134700, End_track
3, 0, Start_track
3, 0, MIDI_port, 0
3, 0, Title_t, "violin ii"
3, 0, Program_c, 1, 48
3, 0, Control_c, 1, 7, 110
3, 0, Control_c, 1, 10, 33
3, 0, Note_on_c, 1, 60, 120
3, 30, Note_on_c, 1, 60, 0
3, 30, Note_on_c, 1, 62, 120
3, 60, Note_on_c, 1, 62, 0
3, 60, Note_on_c, 1, 63, 120
3, 90, Note_on_c, 1, 63, 0
3, 90, Note_on_c, 1, 65, 120
3, 120, Note_on_c, 1, 65, 0
3, 120, Note_on_c, 1, 67, 120
3, 180, Note_on_c, 1, 67, 0
3, 180, Note_on_c, 1, 72, 120
3, 240, Note_on_c, 1, 72, 0
3, 240, Note_on_c, 1, 71, 120
3, 300, Note_on_c, 1, 71, 0
3, 300, Note_on_c, 1, 67, 120
3, 360, Note_on_c, 1, 67, 0
3, 360, Note_on_c, 1, 62, 120
3, 420, Note_on_c, 1, 62, 0
3, 420, Note_on_c, 1, 65, 120
3, 480, Note_on_c, 1, 65, 0
3, 480, Note_on_c, 1, 64, 120
3, 540, Note_on_c, 1, 64, 0
3, 540, Note_on_c, 1, 60, 120
3, 600, Note_on_c, 1, 60, 0
3, 600, Note_on_c, 1, 70, 120
3, 780, Note_on_c, 1, 70, 0
3, 780, Note_on_c, 1, 69, 120
3, 810, Note_on_c, 1, 69, 0
3, 810, Note_on_c, 1, 67, 120
3, 840, Note_on_c, 1, 67, 0
3, 840, Note_on_c, 1, 69, 120
3, 900, Note_on_c, 1, 69, 0
3, 900, Note_on_c, 1, 65, 120
3, 960, Note_on_c, 1, 65, 0
3, 960, Note_on_c, 1, 62, 120
3, 1020, Note_on_c, 1, 62, 0
3, 1020, Note_on_c, 1, 65, 120
3, 1080, Note_on_c, 1, 65, 0
3, 1080, Note_on_c, 1, 68, 120
3, 1140, Note_on_c, 1, 68, 0
3, 1140, Note_on_c, 1, 60, 120
3, 1200, Note_on_c, 1, 60, 0
3, 1200, Note_on_c, 1, 59, 120
3, 1260, Note_on_c, 1, 59, 0
3, 1260, Note_on_c, 1, 67, 120
3, 1320, Note_on_c, 1, 67, 0
3, 1320, Note_on_c, 1, 60, 120
3, 1380, Note_on_c, 1, 60, 0
3, 1380, Note_on_c, 1, 65, 120
3, 1440, Note_on_c, 1, 65, 0
3, 1440, Note_on_c, 1, 63, 120
3, 1560, Note_on_c, 1, 63, 0
3, 1560, Note_on_c, 1, 62, 120
3, 1680, Note_on_c, 1, 62, 0
3, 1680, Note_on_c, 1, 60, 120
3, 1710, Note_on_c, 1, 60, 0
3, 1710, Note_on_c, 1, 59, 120
3, 1740, Note_on_c, 1, 59, 0
3, 1740, Note_on_c, 1, 60, 120
3, 1770, Note_on_c, 1, 60, 0
3, 1770, Note_on_c, 1, 62, 120
3, 1800, Note_on_c, 1, 62, 0
3, 1800, Note_on_c, 1, 64, 120
3, 1830, Note_on_c, 1, 64, 0
3, 1830, Note_on_c, 1, 66, 120
3, 1860, Note_on_c, 1, 66, 0
3, 1860, Note_on_c, 1, 67, 120
3, 1890, Note_on_c, 1, 67, 0
3, 1890, Note_on_c, 1, 69, 120
3, 1920, Note_on_c, 1, 69, 0
3, 1920, Note_on_c, 1, 70, 120
3, 1950, Note_on_c, 1, 70, 0
3, 1950, Note_on_c, 1, 69, 120
3, 1980, Note_on_c, 1, 69, 0
3, 1980, Note_on_c, 1, 67, 120
3, 2010, Note_on_c, 1, 67, 0
3, 2010, Note_on_c, 1, 69, 120
3, 2040, Note_on_c, 1, 69, 0
3, 2040, Note_on_c, 1, 70, 120
3, 2070, Note_on_c, 1, 70, 0
3, 2070, Note_on_c, 1, 69, 120
3, 2100, Note_on_c, 1, 69, 0
3, 2100, Note_on_c, 1, 70, 120
3, 2130, Note_on_c, 1, 70, 0
3, 2130, Note_on_c, 1, 72, 120
3, 2160, Note_on_c, 1, 72, 0
3, 2160, Note_on_c, 1, 74, 120
3, 2220, Note_on_c, 1, 74, 0
3, 2220, Note_on_c, 1, 69, 120
3, 2280, Note_on_c, 1, 69, 0
3, 2280, Note_on_c, 1, 74, 120
3, 2430, Note_on_c, 1, 74, 0
3, 2430, Note_on_c, 1, 72, 120
3, 2460, Note_on_c, 1, 72, 0
3, 2460, Note_on_c, 1, 71, 120
3, 2490, Note_on_c, 1, 71, 0
3, 2490, Note_on_c, 1, 69, 120
3, 2520, Note_on_c, 1, 69, 0
3, 2520, Note_on_c, 1, 71, 120
3, 2550, Note_on_c, 1, 71, 0
3, 2550, Note_on_c, 1, 67, 120
3, 2580, Note_on_c, 1, 67, 0
3, 2580, Note_on_c, 1, 69, 120
3, 2610, Note_on_c, 1, 69, 0
3, 2610, Note_on_c, 1, 71, 120
3, 2640, Note_on_c, 1, 71, 0
3, 2640, Note_on_c, 1, 72, 120
3, 2700, Note_on_c, 1, 72, 0
3, 2700, Note_on_c, 1, 67, 120
3, 2760, Note_on_c, 1, 67, 0
3, 2760, Note_on_c, 1, 72, 120
3, 2910, Note_on_c, 1, 72, 0
3, 2910, Note_on_c, 1, 70, 120
3, 2940, Note_on_c, 1, 70, 0
3, 2940, Note_on_c, 1, 69, 120
3, 2970, Note_on_c, 1, 69, 0
3, 2970, Note_on_c, 1, 70, 120
3, 3000, Note_on_c, 1, 70, 0
3, 3000, Note_on_c, 1, 72, 120
3, 3030, Note_on_c, 1, 72, 0
3, 3030, Note_on_c, 1, 74, 120
3, 3060, Note_on_c, 1, 74, 0
3, 3060, Note_on_c, 1, 75, 120
3, 3090, Note_on_c, 1, 75, 0
3, 3090, Note_on_c, 1, 72, 120
3, 3120, Note_on_c, 1, 72, 0
3, 3120, Note_on_c, 1, 74, 120
3, 3150, Note_on_c, 1, 74, 0
3, 3150, Note_on_c, 1, 75, 120
3, 3180, Note_on_c, 1, 75, 0
3, 3180, Note_on_c, 1, 74, 120
3, 3210, Note_on_c, 1, 74, 0
3, 3210, Note_on_c, 1, 72, 120
3, 3240, Note_on_c, 1, 72, 0
3, 3240, Note_on_c, 1, 70, 120
3, 3270, Note_on_c, 1, 70, 0
3, 3270, Note_on_c, 1, 69, 120
3, 3300, Note_on_c, 1, 69, 0
3, 3300, Note_on_c, 1, 67, 120
3, 3330, Note_on_c, 1, 67, 0
3, 3330, Note_on_c, 1, 66, 120
3, 3360, Note_on_c, 1, 66, 0
3, 3360, Note_on_c, 1, 67, 120
3, 3420, Note_on_c, 1, 67, 0
3, 3420, Note_on_c, 1, 79, 120
3, 3540, Note_on_c, 1, 79, 0
3, 3540, Note_on_c, 1, 78, 120
3, 3600, Note_on_c, 1, 78, 0
3, 3600, Note_on_c, 1, 79, 120
3, 3660, Note_on_c, 1, 79, 0
3, 3660, Note_on_c, 1, 67, 120
3, 3690, Note_on_c, 1, 67, 0
3, 3690, Note_on_c, 1, 66, 120
3, 3720, Note_on_c, 1, 66, 0
3, 3720, Note_on_c, 1, 67, 120
3, 3750, Note_on_c, 1, 67, 0
3, 3750, Note_on_c, 1, 69, 120
3, 3780, Note_on_c, 1, 69, 0
3, 3780, Note_on_c, 1, 70, 120
3, 3810, Note_on_c, 1, 70, 0
3, 3810, Note_on_c, 1, 67, 120
3, 3840, Note_on_c, 1, 67, 0
3, 3840, Note_on_c, 1, 69, 120
3, 3870, Note_on_c, 1, 69, 0
3, 3870, Note_on_c, 1, 67, 120
3, 3900, Note_on_c, 1, 67, 0
3, 3900, Note_on_c, 1, 69, 120
3, 3930, Note_on_c, 1, 69, 0
3, 3930, Note_on_c, 1, 70, 120
3, 3960, Note_on_c, 1, 70, 0
3, 3960, Note_on_c, 1, 69, 120
3, 3990, Note_on_c, 1, 69, 0
3, 3990, Note_on_c, 1, 71, 120
3, 4020, Note_on_c, 1, 71, 0
3, 4020, Note_on_c, 1, 72, 120
3, 4050, Note_on_c, 1, 72, 0
3, 4050, Note_on_c, 1, 69, 120
3, 4080, Note_on_c, 1, 69, 0
3, 4080, Note_on_c, 1, 71, 120
3, 4110, Note_on_c, 1, 71, 0
3, 4110, Note_on_c, 1, 69, 120
3, 4140, Note_on_c, 1, 69, 0
3, 4140, Note_on_c, 1, 71, 120
3, 4170, Note_on_c, 1, 71, 0
3, 4170, Note_on_c, 1, 72, 120
3, 4200, Note_on_c, 1, 72, 0
3, 4200, Note_on_c, 1, 71, 120
3, 4230, Note_on_c, 1, 71, 0
3, 4230, Note_on_c, 1, 72, 120
3, 4260, Note_on_c, 1, 72, 0
3, 4260, Note_on_c, 1, 74, 120
3, 4290, Note_on_c, 1, 74, 0
3, 4290, Note_on_c, 1, 71, 120
3, 4320, Note_on_c, 1, 71, 0
3, 4320, Note_on_c, 1, 72, 120
3, 4380, Note_on_c, 1, 72, 0
3, 4380, Note_on_c, 1, 79, 120
3, 4440, Note_on_c, 1, 79, 0
3, 4500, Note_on_c, 1, 75, 120
3, 4560, Note_on_c, 1, 75, 0
3, 4560, Note_on_c, 1, 74, 120
3, 4590, Note_on_c, 1, 74, 0
3, 4590, Note_on_c, 1, 72, 120
3, 4620, Note_on_c, 1, 72, 0
3, 4620, Note_on_c, 1, 71, 120
3, 4650, Note_on_c, 1, 71, 0
3, 4650, Note_on_c, 1, 69, 120
3, 4680, Note_on_c, 1, 69, 0
3, 4680, Note_on_c, 1, 71, 120
3, 4710, Note_on_c, 1, 71, 0
3, 4710, Note_on_c, 1, 67, 120
3, 4740, Note_on_c, 1, 67, 0
3, 4740, Note_on_c, 1, 69, 120
3, 4770, Note_on_c, 1, 69, 0
3, 4770, Note_on_c, 1, 71, 120
3, 4800, Note_on_c, 1, 71, 0
3, 4800, Note_on_c, 1, 72, 120
3, 4860, Note_on_c, 1, 72, 0
3, 4860, Note_on_c, 1, 67, 120
3, 4920, Note_on_c, 1, 67, 0
3, 4920, Note_on_c, 1, 72, 120
3, 5070, Note_on_c, 1, 72, 0
3, 5070, Note_on_c, 1, 70, 120
3, 5100, Note_on_c, 1, 70, 0
3, 5100, Note_on_c, 1, 72, 120
3, 5130, Note_on_c, 1, 72, 0
3, 5130, Note_on_c, 1, 74, 120
3, 5160, Note_on_c, 1, 74, 0
3, 5160, Note_on_c, 1, 72, 120
3, 5190, Note_on_c, 1, 72, 0
3, 5190, Note_on_c, 1, 75, 120
3, 5220, Note_on_c, 1, 75, 0
3, 5220, Note_on_c, 1, 74, 120
3, 5250, Note_on_c, 1, 74, 0
3, 5250, Note_on_c, 1, 72, 120
3, 5280, Note_on_c, 1, 72, 0
3, 5280, Note_on_c, 1, 74, 120
3, 5340, Note_on_c, 1, 74, 0
3, 5340, Note_on_c, 1, 62, 120
3, 5400, Note_on_c, 1, 62, 0
3, 5400, Note_on_c, 1, 74, 120
3, 5550, Note_on_c, 1, 74, 0
3, 5550, Note_on_c, 1, 72, 120
3, 5580, Note_on_c, 1, 72, 0
3, 5580, Note_on_c, 1, 71, 120
3, 5610, Note_on_c, 1, 71, 0
3, 5610, Note_on_c, 1, 69, 120
3, 5640, Note_on_c, 1, 69, 0
3, 5640, Note_on_c, 1, 67, 120
3, 5670, Note_on_c, 1, 67, 0
3, 5670, Note_on_c, 1, 65, 120
3, 5700, Note_on_c, 1, 65, 0
3, 5700, Note_on_c, 1, 63, 120
3, 5730, Note_on_c, 1, 63, 0
3, 5730, Note_on_c, 1, 62, 120
3, 5760, Note_on_c, 1, 62, 0
3, 5760, Note_on_c, 1, 60, 120
3, 5789, Note_on_c, 1, 60, 0
3, 5790, Note_on_c, 1, 70, 120
3, 5819, Note_on_c, 1, 70, 0
3, 5820, Note_on_c, 1, 68, 120
3, 5849, Note_on_c, 1, 68, 0
3, 5850, Note_on_c, 1, 67, 120
3, 5879, Note_on_c, 1, 67, 0
3, 5880, Note_on_c, 1, 65, 120
3, 5909, Note_on_c, 1, 65, 0
3, 5910, Note_on_c, 1, 63, 120
3, 5939, Note_on_c, 1, 63, 0
3, 5940, Note_on_c, 1, 62, 120
3, 5969, Note_on_c, 1, 62, 0
3, 5970, Note_on_c, 1, 65, 120
3, 5999, Note_on_c, 1, 65, 0
3, 6000, Note_on_c, 1, 63, 120
3, 6059, Note_on_c, 1, 63, 0
3, 6060, Note_on_c, 1, 60, 120
3, 6119, Note_on_c, 1, 60, 0
3, 6120, Note_on_c, 1, 67, 120
3, 6269, Note_on_c, 1, 67, 0
3, 6270, Note_on_c, 1, 69, 120
3, 6299, Note_on_c, 1, 69, 0
3, 6300, Note_on_c, 1, 71, 120
3, 6329, Note_on_c, 1, 71, 0
3, 6330, Note_on_c, 1, 72, 120
3, 6359, Note_on_c, 1, 72, 0
3, 6360, Note_on_c, 1, 74, 120
3, 6419, Note_on_c, 1, 74, 0
3, 6420, Note_on_c, 1, 77, 120
3, 6479, Note_on_c, 1, 77, 0
3, 6480, Note_on_c, 1, 76, 120
3, 6539, Note_on_c, 1, 76, 0
3, 6540, Note_on_c, 1, 72, 120
3, 6599, Note_on_c, 1, 72, 0
3, 6600, Note_on_c, 1, 67, 120
3, 6659, Note_on_c, 1, 67, 0
3, 6660, Note_on_c, 1, 70, 120
3, 6719, Note_on_c, 1, 70, 0
3, 6720, Note_on_c, 1, 69, 120
3, 6779, Note_on_c, 1, 69, 0
3, 6780, Note_on_c, 1, 65, 120
3, 6839, Note_on_c, 1, 65, 0
3, 6840, Note_on_c, 1, 75, 120
3, 7019, Note_on_c, 1, 75, 0
3, 7020, Note_on_c, 1, 74, 120
3, 7049, Note_on_c, 1, 74, 0
3, 7050, Note_on_c, 1, 72, 120
3, 7079, Note_on_c, 1, 72, 0
3, 7080, Note_on_c, 1, 74, 120
3, 7139, Note_on_c, 1, 74, 0
3, 7140, Note_on_c, 1, 70, 120
3, 7199, Note_on_c, 1, 70, 0
3, 7200, Note_on_c, 1, 67, 120
3, 7259, Note_on_c, 1, 67, 0
3, 7260, Note_on_c, 1, 70, 120
3, 7319, Note_on_c, 1, 70, 0
3, 7320, Note_on_c, 1, 73, 120
3, 7379, Note_on_c, 1, 73, 0
3, 7380, Note_on_c, 1, 65, 120
3, 7439, Note_on_c, 1, 65, 0
3, 7440, Note_on_c, 1, 64, 120
3, 7499, Note_on_c, 1, 64, 0
3, 7500, Note_on_c, 1, 72, 120
3, 7559, Note_on_c, 1, 72, 0
3, 7560, Note_on_c, 1, 65, 120
3, 7619, Note_on_c, 1, 65, 0
3, 7620, Note_on_c, 1, 70, 120
3, 7679, Note_on_c, 1, 70, 0
3, 7680, Note_on_c, 1, 68, 120
3, 7799, Note_on_c, 1, 68, 0
3, 7800, Note_on_c, 1, 67, 120
3, 7919, Note_on_c, 1, 67, 0
3, 7920, Note_on_c, 1, 65, 120
3, 8039, Note_on_c, 1, 65, 0
3, 8100, Note_on_c, 1, 62, 120
3, 8159, Note_on_c, 1, 62, 0
3, 8160, Note_on_c, 1, 67, 120
3, 8219, Note_on_c, 1, 67, 0
3, 8220, Note_on_c, 1, 55, 120
3, 8279, Note_on_c, 1, 55, 0
3, 8280, Note_on_c, 1, 67, 120
3, 8430, Note_on_c, 1, 67, 0
3, 8430, Note_on_c, 1, 66, 120
3, 8459, Note_on_c, 1, 66, 0
3, 8460, Note_on_c, 1, 67, 120
3, 8489, Note_on_c, 1, 67, 0
3, 8490, Note_on_c, 1, 69, 120
3, 8519, Note_on_c, 1, 69, 0
3, 8520, Note_on_c, 1, 71, 120
3, 8549, Note_on_c, 1, 71, 0
3, 8550, Note_on_c, 1, 72, 120
3, 8579, Note_on_c, 1, 72, 0
3, 8580, Note_on_c, 1, 74, 120
3, 8609, Note_on_c, 1, 74, 0
3, 8610, Note_on_c, 1, 71, 120
3, 8639, Note_on_c, 1, 71, 0
3, 8640, Note_on_c, 1, 72, 120
3, 8669, Note_on_c, 1, 72, 0
3, 8670, Note_on_c, 1, 68, 120
3, 8699, Note_on_c, 1, 68, 0
3, 8700, Note_on_c, 1, 67, 120
3, 8729, Note_on_c, 1, 67, 0
3, 8730, Note_on_c, 1, 65, 120
3, 8759, Note_on_c, 1, 65, 0
3, 8760, Note_on_c, 1, 67, 120
3, 8789, Note_on_c, 1, 67, 0
3, 8790, Note_on_c, 1, 64, 120
3, 8819, Note_on_c, 1, 64, 0
3, 8820, Note_on_c, 1, 65, 120
3, 8849, Note_on_c, 1, 65, 0
3, 8850, Note_on_c, 1, 67, 120
3, 8879, Note_on_c, 1, 67, 0
3, 8880, Note_on_c, 1, 60, 120
3, 8939, Note_on_c, 1, 60, 0
3, 8940, Note_on_c, 1, 65, 120
3, 8999, Note_on_c, 1, 65, 0
3, 9000, Note_on_c, 1, 72, 120
3, 9179, Note_on_c, 1, 72, 0
3, 9180, Note_on_c, 1, 71, 120
3, 9209, Note_on_c, 1, 71, 0
3, 9210, Note_on_c, 1, 72, 120
3, 9239, Note_on_c, 1, 72, 0
3, 9240, Note_on_c, 1, 74, 120
3, 9269, Note_on_c, 1, 74, 0
3, 9270, Note_on_c, 1, 75, 120
3, 9299, Note_on_c, 1, 75, 0
3, 9300, Note_on_c, 1, 77, 120
3, 9389, Note_on_c, 1, 77, 0
3, 9390, Note_on_c, 1, 74, 120
3, 9419, Note_on_c, 1, 74, 0
3, 9420, Note_on_c, 1, 75, 120
3, 9449, Note_on_c, 1, 75, 0
3, 9450, Note_on_c, 1, 77, 120
3, 9479, Note_on_c, 1, 77, 0
3, 9480, Note_on_c, 1, 79, 120
3, 9539, Note_on_c, 1, 79, 0
3, 9540, Note_on_c, 1, 74, 120
3, 9659, Note_on_c, 1, 74, 0
3, 9660, Note_on_c, 1, 72, 120
3, 9779, Note_on_c, 1, 72, 0
3, 9780, Note_on_c, 1, 71, 120
3, 9839, Note_on_c, 1, 71, 0
3, 9840, Note_on_c, 1, 72, 120
3, 9959, Note_on_c, 1, 72, 0
3, 10080, Note_on_c, 1, 67, 120
3, 10140, Note_on_c, 1, 67, 0
3, 10200, Note_on_c, 1, 67, 120
3, 10260, Note_on_c, 1, 67, 0
3, 10320, Note_on_c, 1, 67, 120
3, 10380, Note_on_c, 1, 67, 0
3, 10560, Note_on_c, 1, 68, 120
3, 10620, Note_on_c, 1, 68, 0
3, 10680, Note_on_c, 1, 64, 120
3, 10740, Note_on_c, 1, 64, 0
3, 10800, Note_on_c, 1, 65, 120
3, 10860, Note_on_c, 1, 65, 0
3, 12000, Note_on_c, 1, 67, 120
3, 12060, Note_on_c, 1, 67, 0
3, 12120, Note_on_c, 1, 71, 120
3, 12180, Note_on_c, 1, 71, 0
3, 12240, Note_on_c, 1, 72, 120
3, 12300, Note_on_c, 1, 72, 0
3, 12480, Note_on_c, 1, 72, 120
3, 12540, Note_on_c, 1, 72, 0
3, 12600, Note_on_c, 1, 72, 120
3, 12660, Note_on_c, 1, 72, 0
3, 12720, Note_on_c, 1, 72, 120
3, 12780, Note_on_c, 1, 72, 0
3, 13920, Note_on_c, 1, 60, 120
3, 13950, Note_on_c, 1, 60, 0
3, 13950, Note_on_c, 1, 62, 120
3, 13980, Note_on_c, 1, 62, 0
3, 13980, Note_on_c, 1, 63, 120
3, 14010, Note_on_c, 1, 63, 0
3, 14010, Note_on_c, 1, 65, 120
3, 14040, Note_on_c, 1, 65, 0
3, 14040, Note_on_c, 1, 67, 120
3, 14100, Note_on_c, 1, 67, 0
3, 14100, Note_on_c, 1, 72, 120
3, 14160, Note_on_c, 1, 72, 0
3, 14160, Note_on_c, 1, 69, 120
3, 14220, Note_on_c, 1, 69, 0
3, 14220, Note_on_c, 1, 65, 120
3, 14280, Note_on_c, 1, 65, 0
3, 14400, Note_on_c, 1, 58, 120
3, 14430, Note_on_c, 1, 58, 0
3, 14430, Note_on_c, 1, 60, 120
3, 14460, Note_on_c, 1, 60, 0
3, 14460, Note_on_c, 1, 62, 120
3, 14490, Note_on_c, 1, 62, 0
3, 14490, Note_on_c, 1, 63, 120
3, 14520, Note_on_c, 1, 63, 0
3, 14520, Note_on_c, 1, 65, 120
3, 14580, Note_on_c, 1, 65, 0
3, 14580, Note_on_c, 1, 70, 120
3, 14640, Note_on_c, 1, 70, 0
3, 14640, Note_on_c, 1, 67, 120
3, 14700, Note_on_c, 1, 67, 0
3, 14700, Note_on_c, 1, 63, 120
3, 14760, Note_on_c, 1, 63, 0
3, 15060, Note_on_c, 1, 72, 120
3, 15120, Note_on_c, 1, 72, 0
3, 15120, Note_on_c, 1, 74, 120
3, 15180, Note_on_c, 1, 74, 0
3, 15300, Note_on_c, 1, 74, 120
3, 15360, Note_on_c, 1, 74, 0
3, 15360, Note_on_c, 1, 75, 120
3, 15420, Note_on_c, 1, 75, 0
3, 15540, Note_on_c, 1, 63, 120
3, 15600, Note_on_c, 1, 63, 0
3, 15600, Note_on_c, 1, 65, 120
3, 15660, Note_on_c, 1, 65, 0
3, 15780, Note_on_c, 1, 65, 120
3, 15840, Note_on_c, 1, 65, 0
3, 15840, Note_on_c, 1, 67, 120
3, 15870, Note_on_c, 1, 67, 0
3, 15870, Note_on_c, 1, 65, 120
3, 15900, Note_on_c, 1, 65, 0
3, 15900, Note_on_c, 1, 67, 120
3, 15930, Note_on_c, 1, 67, 0
3, 15930, Note_on_c, 1, 68, 120
3, 15960, Note_on_c, 1, 68, 0
3, 15960, Note_on_c, 1, 70, 120
3, 16020, Note_on_c, 1, 70, 0
3, 16020, Note_on_c, 1, 75, 120
3, 16080, Note_on_c, 1, 75, 0
3, 16080, Note_on_c, 1, 72, 120
3, 16140, Note_on_c, 1, 72, 0
3, 16140, Note_on_c, 1, 69, 120
3, 16200, Note_on_c, 1, 69, 0
3, 16320, Note_on_c, 1, 62, 120
3, 16350, Note_on_c, 1, 62, 0
3, 16350, Note_on_c, 1, 64, 120
3, 16380, Note_on_c, 1, 64, 0
3, 16380, Note_on_c, 1, 66, 120
3, 16410, Note_on_c, 1, 66, 0
3, 16410, Note_on_c, 1, 67, 120
3, 16440, Note_on_c, 1, 67, 0
3, 16440, Note_on_c, 1, 69, 120
3, 16500, Note_on_c, 1, 69, 0
3, 16500, Note_on_c, 1, 74, 120
3, 16560, Note_on_c, 1, 74, 0
3, 16560, Note_on_c, 1, 71, 120
3, 16620, Note_on_c, 1, 71, 0
3, 16620, Note_on_c, 1, 67, 120
3, 16680, Note_on_c, 1, 67, 0
3, 16860, Note_on_c, 1, 72, 120
3, 16920, Note_on_c, 1, 72, 0
3, 16920, Note_on_c, 1, 72, 120
3, 16980, Note_on_c, 1, 72, 0
3, 17100, Note_on_c, 1, 67, 120
3, 17160, Note_on_c, 1, 67, 0
3, 17160, Note_on_c, 1, 67, 120
3, 17220, Note_on_c, 1, 67, 0
3, 17340, Note_on_c, 1, 67, 120
3, 17400, Note_on_c, 1, 67, 0
3, 17400, Note_on_c, 1, 67, 120
3, 17460, Note_on_c, 1, 67, 0
3, 17580, Note_on_c, 1, 66, 120
3, 17640, Note_on_c, 1, 66, 0
3, 17640, Note_on_c, 1, 66, 120
3, 17700, Note_on_c, 1, 66, 0
3, 17760, Note_on_c, 1, 67, 120
3, 17820, Note_on_c, 1, 67, 0
3, 17880, Note_on_c, 1, 69, 120
3, 17940, Note_on_c, 1, 69, 0
3, 18000, Note_on_c, 1, 70, 120
3, 18060, Note_on_c, 1, 70, 0
3, 18240, Note_on_c, 1, 72, 120
3, 18300, Note_on_c, 1, 72, 0
3, 18360, Note_on_c, 1, 74, 120
3, 18420, Note_on_c, 1, 74, 0
3, 18480, Note_on_c, 1, 75, 120
3, 18540, Note_on_c, 1, 75, 0
3, 19680, Note_on_c, 1, 70, 120
3, 19740, Note_on_c, 1, 70, 0
3, 19800, Note_on_c, 1, 66, 120
3, 19860, Note_on_c, 1, 66, 0
3, 19920, Note_on_c, 1, 67, 120
3, 19980, Note_on_c, 1, 67, 0
3, 20160, Note_on_c, 1, 75, 120
3, 20220, Note_on_c, 1, 75, 0
3, 20280, Note_on_c, 1, 71, 120
3, 20340, Note_on_c, 1, 71, 0
3, 20400, Note_on_c, 1, 72, 120
3, 20460, Note_on_c, 1, 72, 0
3, 21660, Note_on_c, 1, 67, 120
3, 21690, Note_on_c, 1, 67, 0
3, 21690, Note_on_c, 1, 69, 120
3, 21720, Note_on_c, 1, 69, 0
3, 21720, Note_on_c, 1, 70, 120
3, 21750, Note_on_c, 1, 70, 0
3, 21750, Note_on_c, 1, 69, 120
3, 21780, Note_on_c, 1, 69, 0
3, 21780, Note_on_c, 1, 70, 120
3, 21810, Note_on_c, 1, 70, 0
3, 21810, Note_on_c, 1, 72, 120
3, 21840, Note_on_c, 1, 72, 0
3, 21840, Note_on_c, 1, 74, 120
3, 21900, Note_on_c, 1, 74, 0
3, 21900, Note_on_c, 1, 69, 120
3, 21960, Note_on_c, 1, 69, 0
3, 21960, Note_on_c, 1, 74, 120
3, 22110, Note_on_c, 1, 74, 0
3, 22110, Note_on_c, 1, 72, 120
3, 22140, Note_on_c, 1, 72, 0
3, 22140, Note_on_c, 1, 71, 120
3, 22170, Note_on_c, 1, 71, 0
3, 22170, Note_on_c, 1, 69, 120
3, 22200, Note_on_c, 1, 69, 0
3, 22200, Note_on_c, 1, 71, 120
3, 22230, Note_on_c, 1, 71, 0
3, 22230, Note_on_c, 1, 67, 120
3, 22260, Note_on_c, 1, 67, 0
3, 22260, Note_on_c, 1, 69, 120
3, 22290, Note_on_c, 1, 69, 0
3, 22290, Note_on_c, 1, 71, 120
3, 22320, Note_on_c, 1, 71, 0
3, 22320, Note_on_c, 1, 72, 120
3, 22380, Note_on_c, 1, 72, 0
3, 22380, Note_on_c, 1, 67, 120
3, 22440, Note_on_c, 1, 67, 0
3, 22440, Note_on_c, 1, 72, 120
3, 22590, Note_on_c, 1, 72, 0
3, 22590, Note_on_c, 1, 70, 120
3, 22620, Note_on_c, 1, 70, 0
3, 22620, Note_on_c, 1, 69, 120
3, 22650, Note_on_c, 1, 69, 0
3, 22650, Note_on_c, 1, 70, 120
3, 22680, Note_on_c, 1, 70, 0
3, 22680, Note_on_c, 1, 72, 120
3, 22710, Note_on_c, 1, 72, 0
3, 22710, Note_on_c, 1, 74, 120
3, 22740, Note_on_c, 1, 74, 0
3, 22740, Note_on_c, 1, 75, 120
3, 22770, Note_on_c, 1, 75, 0
3, 22770, Note_on_c, 1, 72, 120
3, 22800, Note_on_c, 1, 72, 0
3, 22800, Note_on_c, 1, 74, 120
3, 22830, Note_on_c, 1, 74, 0
3, 22830, Note_on_c, 1, 75, 120
3, 22860, Note_on_c, 1, 75, 0
3, 22860, Note_on_c, 1, 74, 120
3, 22890, Note_on_c, 1, 74, 0
3, 22890, Note_on_c, 1, 72, 120
3, 22920, Note_on_c, 1, 72, 0
3, 22920, Note_on_c, 1, 70, 120
3, 22950, Note_on_c, 1, 70, 0
3, 22950, Note_on_c, 1, 69, 120
3, 22980, Note_on_c, 1, 69, 0
3, 22980, Note_on_c, 1, 67, 120
3, 23010, Note_on_c, 1, 67, 0
3, 23010, Note_on_c, 1, 66, 120
3, 23040, Note_on_c, 1, 66, 0
3, 23040, Note_on_c, 1, 67, 120
3, 23100, Note_on_c, 1, 67, 0
3, 23100, Note_on_c, 1, 79, 120
3, 23220, Note_on_c, 1, 79, 0
3, 23220, Note_on_c, 1, 78, 120
3, 23280, Note_on_c, 1, 78, 0
3, 23280, Note_on_c, 1, 79, 120
3, 23400, Note_on_c, 1, 79, 0
3, 23520, Note_on_c, 1, 62, 120
3, 24360, Note_on_c, 1, 62, 0
3, 24480, Note_on_c, 1, 67, 120
3, 25260, Note_on_c, 1, 67, 0
3, 25260, Note_on_c, 1, 60, 120
3, 25320, Note_on_c, 1, 60, 0
3, 25320, Note_on_c, 1, 72, 120
3, 25500, Note_on_c, 1, 72, 0
3, 25500, Note_on_c, 1, 70, 120
3, 25530, Note_on_c, 1, 70, 0
3, 25530, Note_on_c, 1, 69, 120
3, 25560, Note_on_c, 1, 69, 0
3, 25560, Note_on_c, 1, 70, 120
3, 25740, Note_on_c, 1, 70, 0
3, 25740, Note_on_c, 1, 67, 120
3, 25800, Note_on_c, 1, 67, 0
3, 25800, Note_on_c, 1, 60, 120
3, 25860, Note_on_c, 1, 60, 0
3, 25860, Note_on_c, 1, 70, 120
3, 25920, Note_on_c, 1, 70, 0
3, 25920, Note_on_c, 1, 68, 120
3, 25949, Note_on_c, 1, 68, 0
3, 25950, Note_on_c, 1, 67, 120
3, 25979, Note_on_c, 1, 67, 0
3, 25980, Note_on_c, 1, 65, 120
3, 26009, Note_on_c, 1, 65, 0
3, 26010, Note_on_c, 1, 67, 120
3, 26039, Note_on_c, 1, 67, 0
3, 26040, Note_on_c, 1, 68, 120
3, 26069, Note_on_c, 1, 68, 0
3, 26070, Note_on_c, 1, 67, 120
3, 26099, Note_on_c, 1, 67, 0
3, 26100, Note_on_c, 1, 68, 120
3, 26129, Note_on_c, 1, 68, 0
3, 26130, Note_on_c, 1, 70, 120
3, 26159, Note_on_c, 1, 70, 0
3, 26160, Note_on_c, 1, 72, 120
3, 26220, Note_on_c, 1, 72, 0
3, 26220, Note_on_c, 1, 67, 120
3, 26280, Note_on_c, 1, 67, 0
3, 26280, Note_on_c, 1, 72, 120
3, 26430, Note_on_c, 1, 72, 0
3, 26430, Note_on_c, 1, 70, 120
3, 26459, Note_on_c, 1, 70, 0
3, 26460, Note_on_c, 1, 69, 120
3, 26489, Note_on_c, 1, 69, 0
3, 26490, Note_on_c, 1, 67, 120
3, 26519, Note_on_c, 1, 67, 0
3, 26520, Note_on_c, 1, 69, 120
3, 26549, Note_on_c, 1, 69, 0
3, 26550, Note_on_c, 1, 65, 120
3, 26579, Note_on_c, 1, 65, 0
3, 26580, Note_on_c, 1, 67, 120
3, 26609, Note_on_c, 1, 67, 0
3, 26610, Note_on_c, 1, 69, 120
3, 26639, Note_on_c, 1, 69, 0
3, 26640, Note_on_c, 1, 70, 120
3, 26700, Note_on_c, 1, 70, 0
3, 26700, Note_on_c, 1, 65, 120
3, 26760, Note_on_c, 1, 65, 0
3, 26760, Note_on_c, 1, 70, 120
3, 26910, Note_on_c, 1, 70, 0
3, 26910, Note_on_c, 1, 68, 120
3, 26939, Note_on_c, 1, 68, 0
3, 26940, Note_on_c, 1, 67, 120
3, 26969, Note_on_c, 1, 67, 0
3, 26970, Note_on_c, 1, 68, 120
3, 26999, Note_on_c, 1, 68, 0
3, 27000, Note_on_c, 1, 70, 120
3, 27029, Note_on_c, 1, 70, 0
3, 27030, Note_on_c, 1, 72, 120
3, 27059, Note_on_c, 1, 72, 0
3, 27060, Note_on_c, 1, 73, 120
3, 27089, Note_on_c, 1, 73, 0
3, 27090, Note_on_c, 1, 70, 120
3, 27119, Note_on_c, 1, 70, 0
3, 27120, Note_on_c, 1, 72, 120
3, 27149, Note_on_c, 1, 72, 0
3, 27150, Note_on_c, 1, 73, 120
3, 27179, Note_on_c, 1, 73, 0
3, 27180, Note_on_c, 1, 72, 120
3, 27209, Note_on_c, 1, 72, 0
3, 27210, Note_on_c, 1, 70, 120
3, 27239, Note_on_c, 1, 70, 0
3, 27240, Note_on_c, 1, 68, 120
3, 27269, Note_on_c, 1, 68, 0
3, 27270, Note_on_c, 1, 67, 120
3, 27299, Note_on_c, 1, 67, 0
3, 27300, Note_on_c, 1, 65, 120
3, 27329, Note_on_c, 1, 65, 0
3, 27330, Note_on_c, 1, 64, 120
3, 27359, Note_on_c, 1, 64, 0
3, 27360, Note_on_c, 1, 65, 120
3, 27419, Note_on_c, 1, 65, 0
3, 27420, Note_on_c, 1, 77, 120
3, 27539, Note_on_c, 1, 77, 0
3, 27540, Note_on_c, 1, 76, 120
3, 27599, Note_on_c, 1, 76, 0
3, 27600, Note_on_c, 1, 77, 120
3, 27719, Note_on_c, 1, 77, 0
3, 27840, Note_on_c, 1, 60, 120
3, 28680, Note_on_c, 1, 60, 0
3, 28800, Note_on_c, 1, 65, 120
3, 29640, Note_on_c, 1, 65, 0
3, 29820, Note_on_c, 1, 67, 120
3, 29850, Note_on_c, 1, 67, 0
3, 29850, Note_on_c, 1, 65, 120
3, 29880, Note_on_c, 1, 65, 0
3, 29880, Note_on_c, 1, 67, 120
3, 29940, Note_on_c, 1, 67, 0
3, 30060, Note_on_c, 1, 68, 120
3, 30090, Note_on_c, 1, 68, 0
3, 30090, Note_on_c, 1, 67, 120
3, 30120, Note_on_c, 1, 67, 0
3, 30120, Note_on_c, 1, 68, 120
3, 30180, Note_on_c, 1, 68, 0
3, 30300, Note_on_c, 1, 67, 120
3, 30330, Note_on_c, 1, 67, 0
3, 30330, Note_on_c, 1, 68, 120
3, 30360, Note_on_c, 1, 68, 0
3, 30360, Note_on_c, 1, 70, 120
3, 30420, Note_on_c, 1, 70, 0
3, 30540, Note_on_c, 1, 68, 120
3, 30570, Note_on_c, 1, 68, 0
3, 30570, Note_on_c, 1, 70, 120
3, 30600, Note_on_c, 1, 70, 0
3, 30600, Note_on_c, 1, 72, 120
3, 30660, Note_on_c, 1, 72, 0
3, 30780, Note_on_c, 1, 74, 120
3, 30810, Note_on_c, 1, 74, 0
3, 30810, Note_on_c, 1, 72, 120
3, 30840, Note_on_c, 1, 72, 0
3, 30840, Note_on_c, 1, 74, 120
3, 30900, Note_on_c, 1, 74, 0
3, 31020, Note_on_c, 1, 67, 120
3, 31050, Note_on_c, 1, 67, 0
3, 31050, Note_on_c, 1, 65, 120
3, 31080, Note_on_c, 1, 65, 0
3, 31080, Note_on_c, 1, 63, 120
3, 31140, Note_on_c, 1, 63, 0
3, 31260, Note_on_c, 1, 63, 120
3, 31290, Note_on_c, 1, 63, 0
3, 31290, Note_on_c, 1, 65, 120
3, 31320, Note_on_c, 1, 65, 0
3, 31320, Note_on_c, 1, 67, 120
3, 31380, Note_on_c, 1, 67, 0
3, 31500, Note_on_c, 1, 63, 120
3, 31530, Note_on_c, 1, 63, 0
3, 31530, Note_on_c, 1, 61, 120
3, 31560, Note_on_c, 1, 61, 0
3, 31560, Note_on_c, 1, 60, 120
3, 31620, Note_on_c, 1, 60, 0
3, 31740, Note_on_c, 1, 65, 120
3, 31770, Note_on_c, 1, 65, 0
3, 31770, Note_on_c, 1, 63, 120
3, 31800, Note_on_c, 1, 63, 0
3, 31800, Note_on_c, 1, 62, 120
3, 31860, Note_on_c, 1, 62, 0
3, 31980, Note_on_c, 1, 63, 120
3, 32010, Note_on_c, 1, 63, 0
3, 32010, Note_on_c, 1, 62, 120
3, 32040, Note_on_c, 1, 62, 0
3, 32040, Note_on_c, 1, 60, 120
3, 32100, Note_on_c, 1, 60, 0
3, 32220, Note_on_c, 1, 62, 120
3, 32250, Note_on_c, 1, 62, 0
3, 32250, Note_on_c, 1, 60, 120
3, 32280, Note_on_c, 1, 60, 0
3, 32280, Note_on_c, 1, 59, 120
3, 32340, Note_on_c, 1, 59, 0
3, 32340, Note_on_c, 1, 62, 120
3, 32400, Note_on_c, 1, 62, 0
3, 32400, Note_on_c, 1, 60, 120
3, 32460, Note_on_c, 1, 60, 0
3, 32640, Note_on_c, 1, 65, 120
3, 32670, Note_on_c, 1, 65, 0
3, 32670, Note_on_c, 1, 67, 120
3, 32700, Note_on_c, 1, 67, 0
3, 32700, Note_on_c, 1, 68, 120
3, 32730, Note_on_c, 1, 68, 0
3, 32730, Note_on_c, 1, 70, 120
3, 32760, Note_on_c, 1, 70, 0
3, 32760, Note_on_c, 1, 72, 120
3, 32820, Note_on_c, 1, 72, 0
3, 32820, Note_on_c, 1, 77, 120
3, 32880, Note_on_c, 1, 77, 0
3, 32880, Note_on_c, 1, 74, 120
3, 32940, Note_on_c, 1, 74, 0
3, 32940, Note_on_c, 1, 70, 120
3, 33000, Note_on_c, 1, 70, 0
3, 33120, Note_on_c, 1, 63, 120
3, 33150, Note_on_c, 1, 63, 0
3, 33150, Note_on_c, 1, 65, 120
3, 33180, Note_on_c, 1, 65, 0
3, 33180, Note_on_c, 1, 67, 120
3, 33210, Note_on_c, 1, 67, 0
3, 33210, Note_on_c, 1, 68, 120
3, 33240, Note_on_c, 1, 68, 0
3, 33240, Note_on_c, 1, 70, 120
3, 33300, Note_on_c, 1, 70, 0
3, 33300, Note_on_c, 1, 75, 120
3, 33360, Note_on_c, 1, 75, 0
3, 33360, Note_on_c, 1, 72, 120
3, 33420, Note_on_c, 1, 72, 0
3, 33420, Note_on_c, 1, 68, 120
3, 33480, Note_on_c, 1, 68, 0
3, 33780, Note_on_c, 1, 65, 120
3, 33840, Note_on_c, 1, 65, 0
3, 33840, Note_on_c, 1, 67, 120
3, 33900, Note_on_c, 1, 67, 0
3, 34020, Note_on_c, 1, 67, 120
3, 34080, Note_on_c, 1, 67, 0
3, 34080, Note_on_c, 1, 68, 120
3, 34140, Note_on_c, 1, 68, 0
3, 34260, Note_on_c, 1, 68, 120
3, 34320, Note_on_c, 1, 68, 0
3, 34320, Note_on_c, 1, 70, 120
3, 34380, Note_on_c, 1, 70, 0
3, 34500, Note_on_c, 1, 70, 120
3, 34560, Note_on_c, 1, 70, 0
3, 34560, Note_on_c, 1, 72, 120
3, 34620, Note_on_c, 1, 72, 0
3, 34620, Note_on_c, 1, 60, 120
3, 34650, Note_on_c, 1, 60, 0
3, 34650, Note_on_c, 1, 61, 120
3, 34680, Note_on_c, 1, 61, 0
3, 34680, Note_on_c, 1, 63, 120
3, 34740, Note_on_c, 1, 63, 0
3, 34740, Note_on_c, 1, 68, 120
3, 34800, Note_on_c, 1, 68, 0
3, 34800, Note_on_c, 1, 65, 120
3, 34860, Note_on_c, 1, 65, 0
3, 34860, Note_on_c, 1, 62, 120
3, 34920, Note_on_c, 1, 62, 0
3, 35040, Note_on_c, 1, 55, 120
3, 35070, Note_on_c, 1, 55, 0
3, 35070, Note_on_c, 1, 57, 120
3, 35100, Note_on_c, 1, 57, 0
3, 35100, Note_on_c, 1, 59, 120
3, 35130, Note_on_c, 1, 59, 0
3, 35130, Note_on_c, 1, 60, 120
3, 35160, Note_on_c, 1, 60, 0
3, 35160, Note_on_c, 1, 62, 120
3, 35220, Note_on_c, 1, 62, 0
3, 35220, Note_on_c, 1, 67, 120
3, 35280, Note_on_c, 1, 67, 0
3, 35280, Note_on_c, 1, 64, 120
3, 35340, Note_on_c, 1, 64, 0
3, 35340, Note_on_c, 1, 60, 120
3, 35400, Note_on_c, 1, 60, 0
3, 35580, Note_on_c, 1, 77, 120
3, 35640, Note_on_c, 1, 77, 0
3, 35640, Note_on_c, 1, 77, 120
3, 35700, Note_on_c, 1, 77, 0
3, 35820, Note_on_c, 1, 72, 120
3, 35880, Note_on_c, 1, 72, 0
3, 35880, Note_on_c, 1, 72, 120
3, 35940, Note_on_c, 1, 72, 0
3, 36060, Note_on_c, 1, 72, 120
3, 36120, Note_on_c, 1, 72, 0
3, 36120, Note_on_c, 1, 72, 120
3, 36180, Note_on_c, 1, 72, 0
3, 36300, Note_on_c, 1, 71, 120
3, 36360, Note_on_c, 1, 71, 0
3, 36360, Note_on_c, 1, 71, 120
3, 36420, Note_on_c, 1, 71, 0
3, 36480, Note_on_c, 1, 72, 120
3, 36540, Note_on_c, 1, 72, 0
3, 36600, Note_on_c, 1, 74, 120
3, 36660, Note_on_c, 1, 74, 0
3, 36720, Note_on_c, 1, 75, 120
3, 36780, Note_on_c, 1, 75, 0
3, 36960, Note_on_c, 1, 77, 120
3, 37020, Note_on_c, 1, 77, 0
3, 37080, Note_on_c, 1, 79, 120
3, 37140, Note_on_c, 1, 79, 0
3, 37200, Note_on_c, 1, 80, 120
3, 37260, Note_on_c, 1, 80, 0
3, 38400, Note_on_c, 1, 67, 120
3, 38460, Note_on_c, 1, 67, 0
3, 38520, Note_on_c, 1, 71, 120
3, 38580, Note_on_c, 1, 71, 0
3, 38640, Note_on_c, 1, 72, 120
3, 38700, Note_on_c, 1, 72, 0
3, 38880, Note_on_c, 1, 68, 120
3, 38940, Note_on_c, 1, 68, 0
3, 39000, Note_on_c, 1, 64, 120
3, 39060, Note_on_c, 1, 64, 0
3, 39120, Note_on_c, 1, 65, 120
3, 39180, Note_on_c, 1, 65, 0
3, 40380, Note_on_c, 1, 67, 120
3, 40439, Note_on_c, 1, 67, 0
3, 40440, Note_on_c, 1, 72, 120
3, 40499, Note_on_c, 1, 72, 0
3, 40500, Note_on_c, 1, 75, 120
3, 40559, Note_on_c, 1, 75, 0
3, 40560, Note_on_c, 1, 74, 120
3, 40619, Note_on_c, 1, 74, 0
3, 40620, Note_on_c, 1, 71, 120
3, 40679, Note_on_c, 1, 71, 0
3, 40680, Note_on_c, 1, 67, 120
3, 40830, Note_on_c, 1, 67, 0
3, 40830, Note_on_c, 1, 65, 120
3, 40859, Note_on_c, 1, 65, 0
3, 40860, Note_on_c, 1, 64, 120
3, 40889, Note_on_c, 1, 64, 0
3, 40890, Note_on_c, 1, 62, 120
3, 40919, Note_on_c, 1, 62, 0
3, 40920, Note_on_c, 1, 64, 120
3, 40949, Note_on_c, 1, 64, 0
3, 40950, Note_on_c, 1, 60, 120
3, 40979, Note_on_c, 1, 60, 0
3, 40980, Note_on_c, 1, 62, 120
3, 41009, Note_on_c, 1, 62, 0
3, 41010, Note_on_c, 1, 64, 120
3, 41039, Note_on_c, 1, 64, 0
3, 41040, Note_on_c, 1, 65, 120
3, 41100, Note_on_c, 1, 65, 0
3, 41100, Note_on_c, 1, 60, 120
3, 41160, Note_on_c, 1, 60, 0
3, 41160, Note_on_c, 1, 65, 120
3, 41310, Note_on_c, 1, 65, 0
3, 41310, Note_on_c, 1, 63, 120
3, 41339, Note_on_c, 1, 63, 0
3, 41340, Note_on_c, 1, 62, 120
3, 41369, Note_on_c, 1, 62, 0
3, 41370, Note_on_c, 1, 63, 120
3, 41399, Note_on_c, 1, 63, 0
3, 41400, Note_on_c, 1, 65, 120
3, 41429, Note_on_c, 1, 65, 0
3, 41430, Note_on_c, 1, 67, 120
3, 41459, Note_on_c, 1, 67, 0
3, 41460, Note_on_c, 1, 68, 120
3, 41489, Note_on_c, 1, 68, 0
3, 41490, Note_on_c, 1, 65, 120
3, 41519, Note_on_c, 1, 65, 0
3, 41520, Note_on_c, 1, 67, 120
3, 41549, Note_on_c, 1, 67, 0
3, 41550, Note_on_c, 1, 68, 120
3, 41579, Note_on_c, 1, 68, 0
3, 41580, Note_on_c, 1, 67, 120
3, 41609, Note_on_c, 1, 67, 0
3, 41610, Note_on_c, 1, 65, 120
3, 41639, Note_on_c, 1, 65, 0
3, 41640, Note_on_c, 1, 63, 120
3, 41669, Note_on_c, 1, 63, 0
3, 41670, Note_on_c, 1, 62, 120
3, 41699, Note_on_c, 1, 62, 0
3, 41700, Note_on_c, 1, 60, 120
3, 41729, Note_on_c, 1, 60, 0
3, 41730, Note_on_c, 1, 59, 120
3, 41759, Note_on_c, 1, 59, 0
3, 41760, Note_on_c, 1, 60, 120
3, 41819, Note_on_c, 1, 60, 0
3, 41820, Note_on_c, 1, 72, 120
3, 41939, Note_on_c, 1, 72, 0
3, 41940, Note_on_c, 1, 71, 120
3, 41999, Note_on_c, 1, 71, 0
3, 42000, Note_on_c, 1, 72, 120
3, 42239, Note_on_c, 1, 72, 0
3, 42720, Note_on_c, 1, 63, 120
3, 42840, Note_on_c, 1, 63, 0
3, 42900, Note_on_c, 1, 56, 120
3, 43020, Note_on_c, 1, 56, 0
3, 43080, Note_on_c, 1, 63, 120
3, 43200, Note_on_c, 1, 63, 0
3, 43260, Note_on_c, 1, 60, 120
3, 43380, Note_on_c, 1, 60, 0
3, 43440, Note_on_c, 1, 65, 120
3, 43560, Note_on_c, 1, 65, 0
3, 43560, Note_on_c, 1, 70, 120
3, 43620, Note_on_c, 1, 70, 0
3, 43620, Note_on_c, 1, 72, 120
3, 43740, Note_on_c, 1, 72, 0
3, 43740, Note_on_c, 1, 70, 120
3, 43800, Note_on_c, 1, 70, 0
3, 43800, Note_on_c, 1, 70, 120
3, 43920, Note_on_c, 1, 70, 0
3, 43920, Note_on_c, 1, 67, 120
3, 43980, Note_on_c, 1, 67, 0
3, 43980, Note_on_c, 1, 67, 120
3, 44100, Note_on_c, 1, 67, 0
3, 44100, Note_on_c, 1, 65, 120
3, 44160, Note_on_c, 1, 65, 0
3, 44160, Note_on_c, 1, 65, 120
3, 44280, Note_on_c, 1, 65, 0
3, 44340, Note_on_c, 1, 63, 120
3, 44460, Note_on_c, 1, 63, 0
3, 44520, Note_on_c, 1, 70, 120
3, 44640, Note_on_c, 1, 70, 0
3, 44700, Note_on_c, 1, 67, 120
3, 44820, Note_on_c, 1, 67, 0
3, 44880, Note_on_c, 1, 72, 120
3, 45000, Note_on_c, 1, 72, 0
3, 45000, Note_on_c, 1, 74, 120
3, 45060, Note_on_c, 1, 74, 0
3, 45060, Note_on_c, 1, 67, 120
3, 45180, Note_on_c, 1, 67, 0
3, 45180, Note_on_c, 1, 65, 120
3, 45240, Note_on_c, 1, 65, 0
3, 45240, Note_on_c, 1, 65, 120
3, 45360, Note_on_c, 1, 65, 0
3, 45540, Note_on_c, 1, 63, 120
3, 45600, Note_on_c, 1, 63, 0
3, 45600, Note_on_c, 1, 63, 120
3, 45720, Note_on_c, 1, 63, 0
3, 45900, Note_on_c, 1, 62, 120
3, 45960, Note_on_c, 1, 62, 0
3, 45960, Note_on_c, 1, 62, 120
3, 46080, Note_on_c, 1, 62, 0
3, 46260, Note_on_c, 1, 60, 120
3, 46320, Note_on_c, 1, 60, 0
3, 46320, Note_on_c, 1, 60, 120
3, 46440, Note_on_c, 1, 60, 0
3, 46620, Note_on_c, 1, 62, 120
3, 46680, Note_on_c, 1, 62, 0
3, 46680, Note_on_c, 1, 58, 120
3, 46800, Note_on_c, 1, 58, 0
3, 46800, Note_on_c, 1, 56, 120
3, 46860, Note_on_c, 1, 56, 0
3, 46860, Note_on_c, 1, 68, 120
3, 46980, Note_on_c, 1, 68, 0
3, 46980, Note_on_c, 1, 67, 120
3, 47040, Note_on_c, 1, 67, 0
3, 47040, Note_on_c, 1, 67, 120
3, 47160, Note_on_c, 1, 67, 0
3, 47220, Note_on_c, 1, 65, 120
3, 47340, Note_on_c, 1, 65, 0
3, 47400, Note_on_c, 1, 63, 120
3, 47520, Note_on_c, 1, 63, 0
3, 47580, Note_on_c, 1, 63, 120
3, 47700, Note_on_c, 1, 63, 0
3, 47760, Note_on_c, 1, 62, 120
3, 47880, Note_on_c, 1, 62, 0
3, 47880, Note_on_c, 1, 55, 120
3, 47940, Note_on_c, 1, 55, 0
3, 47940, Note_on_c, 1, 62, 120
3, 48060, Note_on_c, 1, 62, 0
3, 48060, Note_on_c, 1, 59, 120
3, 48120, Note_on_c, 1, 59, 0
3, 48120, Note_on_c, 1, 55, 120
3, 48240, Note_on_c, 1, 55, 0
3, 48420, Note_on_c, 1, 64, 120
3, 48480, Note_on_c, 1, 64, 0
3, 48480, Note_on_c, 1, 60, 120
3, 48600, Note_on_c, 1, 60, 0
3, 48780, Note_on_c, 1, 61, 120
3, 48840, Note_on_c, 1, 61, 0
3, 48840, Note_on_c, 1, 61, 120
3, 48960, Note_on_c, 1, 61, 0
3, 49140, Note_on_c, 1, 61, 120
3, 49200, Note_on_c, 1, 61, 0
3, 49200, Note_on_c, 1, 60, 120
3, 49320, Note_on_c, 1, 60, 0
3, 49380, Note_on_c, 1, 58, 120
3, 49500, Note_on_c, 1, 58, 0
3, 49560, Note_on_c, 1, 63, 120
3, 49680, Note_on_c, 1, 63, 0
3, 49740, Note_on_c, 1, 68, 120
3, 49860, Note_on_c, 1, 68, 0
3, 49920, Note_on_c, 1, 70, 120
3, 50040, Note_on_c, 1, 70, 0
3, 50040, Note_on_c, 1, 72, 120
3, 50100, Note_on_c, 1, 72, 0
3, 50100, Note_on_c, 1, 65, 120
3, 50220, Note_on_c, 1, 65, 0
3, 50220, Note_on_c, 1, 63, 120
3, 50280, Note_on_c, 1, 63, 0
3, 50280, Note_on_c, 1, 63, 120
3, 50400, Note_on_c, 1, 63, 0
3, 50400, Note_on_c, 1, 60, 120
3, 50460, Note_on_c, 1, 60, 0
3, 50460, Note_on_c, 1, 72, 120
3, 50580, Note_on_c, 1, 72, 0
3, 50580, Note_on_c, 1, 70, 120
3, 50640, Note_on_c, 1, 70, 0
3, 50640, Note_on_c, 1, 70, 120
3, 50760, Note_on_c, 1, 70, 0
3, 50820, Note_on_c, 1, 65, 120
3, 50940, Note_on_c, 1, 65, 0
3, 51000, Note_on_c, 1, 70, 120
3, 51120, Note_on_c, 1, 70, 0
3, 51180, Note_on_c, 1, 63, 120
3, 51300, Note_on_c, 1, 63, 0
3, 51360, Note_on_c, 1, 70, 120
3, 51480, Note_on_c, 1, 70, 0
3, 51480, Note_on_c, 1, 70, 120
3, 51539, Note_on_c, 1, 70, 0
3, 51540, Note_on_c, 1, 68, 120
3, 51660, Note_on_c, 1, 68, 0
3, 51660, Note_on_c, 1, 65, 120
3, 51719, Note_on_c, 1, 65, 0
3, 51720, Note_on_c, 1, 63, 120
3, 51840, Note_on_c, 1, 63, 0
3, 52020, Note_on_c, 1, 63, 120
3, 52079, Note_on_c, 1, 63, 0
3, 52080, Note_on_c, 1, 63, 120
3, 52200, Note_on_c, 1, 63, 0
3, 52380, Note_on_c, 1, 62, 120
3, 52440, Note_on_c, 1, 62, 0
3, 52440, Note_on_c, 1, 62, 120
3, 52560, Note_on_c, 1, 62, 0
3, 52740, Note_on_c, 1, 60, 120
3, 52800, Note_on_c, 1, 60, 0
3, 52800, Note_on_c, 1, 60, 120
3, 52920, Note_on_c, 1, 60, 0
3, 53100, Note_on_c, 1, 62, 120
3, 53160, Note_on_c, 1, 62, 0
3, 53160, Note_on_c, 1, 63, 120
3, 53280, Note_on_c, 1, 63, 0
3, 53280, Note_on_c, 1, 63, 120
3, 53400, Note_on_c, 1, 63, 0
3, 53400, Note_on_c, 1, 65, 120
3, 53460, Note_on_c, 1, 65, 0
3, 53460, Note_on_c, 1, 62, 120
3, 53520, Note_on_c, 1, 62, 0
3, 53520, Note_on_c, 1, 63, 120
3, 53639, Note_on_c, 1, 63, 0
3, 54360, Note_on_c, 1, 68, 120
3, 54419, Note_on_c, 1, 68, 0
3, 54420, Note_on_c, 1, 63, 120
3, 54539, Note_on_c, 1, 63, 0
3, 54540, Note_on_c, 1, 60, 120
3, 54599, Note_on_c, 1, 60, 0
3, 54720, Note_on_c, 1, 67, 120
3, 54779, Note_on_c, 1, 67, 0
3, 54780, Note_on_c, 1, 63, 120
3, 54899, Note_on_c, 1, 63, 0
3, 54900, Note_on_c, 1, 58, 120
3, 54959, Note_on_c, 1, 58, 0
3, 55080, Note_on_c, 1, 63, 120
3, 55139, Note_on_c, 1, 63, 0
3, 55140, Note_on_c, 1, 62, 120
3, 55259, Note_on_c, 1, 62, 0
3, 55260, Note_on_c, 1, 56, 120
3, 55319, Note_on_c, 1, 56, 0
3, 55320, Note_on_c, 1, 58, 120
3, 55500, Note_on_c, 1, 58, 0
3, 55980, Note_on_c, 1, 70, 120
3, 56040, Note_on_c, 1, 70, 0
3, 56040, Note_on_c, 1, 70, 120
3, 56160, Note_on_c, 1, 70, 0
3, 56340, Note_on_c, 1, 69, 120
3, 56400, Note_on_c, 1, 69, 0
3, 56400, Note_on_c, 1, 69, 120
3, 56520, Note_on_c, 1, 69, 0
3, 56700, Note_on_c, 1, 67, 120
3, 56759, Note_on_c, 1, 67, 0
3, 56760, Note_on_c, 1, 67, 120
3, 56880, Note_on_c, 1, 67, 0
3, 57060, Note_on_c, 1, 69, 120
3, 57119, Note_on_c, 1, 69, 0
3, 57120, Note_on_c, 1, 65, 120
3, 57240, Note_on_c, 1, 65, 0
3, 57960, Note_on_c, 1, 75, 120
3, 58019, Note_on_c, 1, 75, 0
3, 58020, Note_on_c, 1, 70, 120
3, 58139, Note_on_c, 1, 70, 0
3, 58140, Note_on_c, 1, 67, 120
3, 58199, Note_on_c, 1, 67, 0
3, 58320, Note_on_c, 1, 74, 120
3, 58379, Note_on_c, 1, 74, 0
3, 58380, Note_on_c, 1, 70, 120
3, 58499, Note_on_c, 1, 70, 0
3, 58500, Note_on_c, 1, 65, 120
3, 58559, Note_on_c, 1, 65, 0
3, 58680, Note_on_c, 1, 70, 120
3, 58739, Note_on_c, 1, 70, 0
3, 58740, Note_on_c, 1, 69, 120
3, 58859, Note_on_c, 1, 69, 0
3, 58860, Note_on_c, 1, 63, 120
3, 58919, Note_on_c, 1, 63, 0
3, 58920, Note_on_c, 1, 65, 120
3, 59039, Note_on_c, 1, 65, 0
3, 59460, Note_on_c, 1, 70, 120
3, 59520, Note_on_c, 1, 70, 0
3, 59640, Note_on_c, 1, 69, 120
3, 59700, Note_on_c, 1, 69, 0
3, 59820, Note_on_c, 1, 70, 120
3, 59880, Note_on_c, 1, 70, 0
3, 60000, Note_on_c, 1, 69, 120
3, 60119, Note_on_c, 1, 69, 0
3, 60300, Note_on_c, 1, 66, 120
3, 60359, Note_on_c, 1, 66, 0
3, 60360, Note_on_c, 1, 62, 120
3, 60479, Note_on_c, 1, 62, 0
3, 60660, Note_on_c, 1, 67, 120
3, 60719, Note_on_c, 1, 67, 0
3, 60720, Note_on_c, 1, 65, 120
3, 60839, Note_on_c, 1, 65, 0
3, 61020, Note_on_c, 1, 69, 120
3, 61079, Note_on_c, 1, 69, 0
3, 61080, Note_on_c, 1, 65, 120
3, 61139, Note_on_c, 1, 65, 0
3, 61260, Note_on_c, 1, 67, 120
3, 61319, Note_on_c, 1, 67, 0
3, 61440, Note_on_c, 1, 68, 120
3, 61499, Note_on_c, 1, 68, 0
3, 61620, Note_on_c, 1, 70, 120
3, 61679, Note_on_c, 1, 70, 0
3, 61800, Note_on_c, 1, 74, 120
3, 61919, Note_on_c, 1, 74, 0
3, 62100, Note_on_c, 1, 71, 120
3, 62159, Note_on_c, 1, 71, 0
3, 62160, Note_on_c, 1, 67, 120
3, 62279, Note_on_c, 1, 67, 0
3, 62460, Note_on_c, 1, 72, 120
3, 62519, Note_on_c, 1, 72, 0
3, 62520, Note_on_c, 1, 70, 120
3, 62639, Note_on_c, 1, 70, 0
3, 62820, Note_on_c, 1, 74, 120
3, 62879, Note_on_c, 1, 74, 0
3, 62880, Note_on_c, 1, 70, 120
3, 63060, Note_on_c, 1, 70, 0
3, 63060, Note_on_c, 1, 75, 120
3, 63240, Note_on_c, 1, 75, 0
3, 63240, Note_on_c, 1, 76, 120
3, 63600, Note_on_c, 1, 76, 0
3, 63600, Note_on_c, 1, 77, 120
3, 63959, Note_on_c, 1, 77, 0
3, 63960, Note_on_c, 1, 78, 120
3, 64319, Note_on_c, 1, 78, 0
3, 64320, Note_on_c, 1, 79, 120
3, 64440, Note_on_c, 1, 79, 0
3, 64500, Note_on_c, 1, 75, 120
3, 64620, Note_on_c, 1, 75, 0
3, 64680, Note_on_c, 1, 74, 120
3, 64800, Note_on_c, 1, 74, 0
3, 64860, Note_on_c, 1, 67, 120
3, 64980, Note_on_c, 1, 67, 0
3, 65040, Note_on_c, 1, 69, 120
3, 65160, Note_on_c, 1, 69, 0
3, 65160, Note_on_c, 1, 67, 120
3, 65219, Note_on_c, 1, 67, 0
3, 65220, Note_on_c, 1, 69, 120
3, 65340, Note_on_c, 1, 69, 0
3, 65340, Note_on_c, 1, 69, 120
3, 65399, Note_on_c, 1, 69, 0
3, 65400, Note_on_c, 1, 67, 120
3, 65520, Note_on_c, 1, 67, 0
3, 65520, Note_on_c, 1, 67, 120
3, 65579, Note_on_c, 1, 67, 0
3, 65580, Note_on_c, 1, 68, 120
3, 65700, Note_on_c, 1, 68, 0
3, 65700, Note_on_c, 1, 67, 120
3, 65759, Note_on_c, 1, 67, 0
3, 65760, Note_on_c, 1, 67, 120
3, 65879, Note_on_c, 1, 67, 0
3, 65940, Note_on_c, 1, 65, 120
3, 66059, Note_on_c, 1, 65, 0
3, 66120, Note_on_c, 1, 72, 120
3, 66239, Note_on_c, 1, 72, 0
3, 66300, Note_on_c, 1, 68, 120
3, 66419, Note_on_c, 1, 68, 0
3, 66480, Note_on_c, 1, 62, 120
3, 66599, Note_on_c, 1, 62, 0
3, 66600, Note_on_c, 1, 63, 120
3, 66660, Note_on_c, 1, 63, 0
3, 66660, Note_on_c, 1, 68, 120
3, 66779, Note_on_c, 1, 68, 0
3, 66780, Note_on_c, 1, 67, 120
3, 66840, Note_on_c, 1, 67, 0
3, 66840, Note_on_c, 1, 67, 120
3, 66959, Note_on_c, 1, 67, 0
3, 67860, Note_on_c, 1, 64, 120
3, 67920, Note_on_c, 1, 64, 0
3, 67920, Note_on_c, 1, 60, 120
3, 68040, Note_on_c, 1, 60, 0
3, 68220, Note_on_c, 1, 68, 120
3, 68280, Note_on_c, 1, 68, 0
3, 68280, Note_on_c, 1, 63, 120
3, 68400, Note_on_c, 1, 63, 0
3, 68580, Note_on_c, 1, 67, 120
3, 68640, Note_on_c, 1, 67, 0
3, 68640, Note_on_c, 1, 63, 120
3, 68760, Note_on_c, 1, 63, 0
3, 68760, Note_on_c, 1, 60, 120
3, 68820, Note_on_c, 1, 60, 0
3, 68820, Note_on_c, 1, 68, 120
3, 68940, Note_on_c, 1, 68, 0
3, 68940, Note_on_c, 1, 65, 120
3, 69000, Note_on_c, 1, 65, 0
3, 69120, Note_on_c, 1, 72, 120
3, 69180, Note_on_c, 1, 72, 0
3, 69180, Note_on_c, 1, 68, 120
3, 69300, Note_on_c, 1, 68, 0
3, 69300, Note_on_c, 1, 63, 120
3, 69360, Note_on_c, 1, 63, 0
3, 69480, Note_on_c, 1, 68, 120
3, 69540, Note_on_c, 1, 68, 0
3, 69540, Note_on_c, 1, 67, 120
3, 69660, Note_on_c, 1, 67, 0
3, 69660, Note_on_c, 1, 61, 120
3, 69720, Note_on_c, 1, 61, 0
3, 69720, Note_on_c, 1, 63, 120
3, 69900, Note_on_c, 1, 63, 0
3, 69900, Note_on_c, 1, 68, 120
3, 70080, Note_on_c, 1, 68, 0
3, 70080, Note_on_c, 1, 69, 120
3, 70440, Note_on_c, 1, 69, 0
3, 70440, Note_on_c, 1, 70, 120
3, 70800, Note_on_c, 1, 70, 0
3, 70800, Note_on_c, 1, 71, 120
3, 71160, Note_on_c, 1, 71, 0
3, 71160, Note_on_c, 1, 72, 120
3, 71280, Note_on_c, 1, 72, 0
3, 71280, Note_on_c, 1, 72, 120
3, 71340, Note_on_c, 1, 72, 0
3, 71340, Note_on_c, 1, 70, 120
3, 71460, Note_on_c, 1, 70, 0
3, 71460, Note_on_c, 1, 74, 120
3, 71520, Note_on_c, 1, 74, 0
3, 71520, Note_on_c, 1, 75, 120
3, 71640, Note_on_c, 1, 75, 0
3, 71700, Note_on_c, 1, 72, 120
3, 71820, Note_on_c, 1, 72, 0
3, 71880, Note_on_c, 1, 67, 120
3, 72000, Note_on_c, 1, 67, 0
3, 72060, Note_on_c, 1, 63, 120
3, 72180, Note_on_c, 1, 63, 0
3, 72240, Note_on_c, 1, 58, 120
3, 72360, Note_on_c, 1, 58, 0
3, 72360, Note_on_c, 1, 70, 120
3, 72420, Note_on_c, 1, 70, 0
3, 72420, Note_on_c, 1, 72, 120
3, 72540, Note_on_c, 1, 72, 0
3, 72540, Note_on_c, 1, 70, 120
3, 72600, Note_on_c, 1, 70, 0
3, 72600, Note_on_c, 1, 70, 120
3, 72720, Note_on_c, 1, 70, 0
3, 72720, Note_on_c, 1, 67, 120
3, 72780, Note_on_c, 1, 67, 0
3, 72780, Note_on_c, 1, 67, 120
3, 72900, Note_on_c, 1, 67, 0
3, 72900, Note_on_c, 1, 65, 120
3, 72960, Note_on_c, 1, 65, 0
3, 72960, Note_on_c, 1, 65, 120
3, 73080, Note_on_c, 1, 65, 0
3, 73140, Note_on_c, 1, 63, 120
3, 73260, Note_on_c, 1, 63, 0
3, 73320, Note_on_c, 1, 70, 120
3, 73440, Note_on_c, 1, 70, 0
3, 73500, Note_on_c, 1, 67, 120
3, 73620, Note_on_c, 1, 67, 0
3, 73680, Note_on_c, 1, 72, 120
3, 73800, Note_on_c, 1, 72, 0
3, 73800, Note_on_c, 1, 74, 120
3, 73860, Note_on_c, 1, 74, 0
3, 73860, Note_on_c, 1, 67, 120
3, 73980, Note_on_c, 1, 67, 0
3, 73980, Note_on_c, 1, 65, 120
3, 74040, Note_on_c, 1, 65, 0
3, 74040, Note_on_c, 1, 65, 120
3, 74160, Note_on_c, 1, 65, 0
3, 74340, Note_on_c, 1, 63, 120
3, 74400, Note_on_c, 1, 63, 0
3, 74400, Note_on_c, 1, 63, 120
3, 74520, Note_on_c, 1, 63, 0
3, 74700, Note_on_c, 1, 62, 120
3, 74760, Note_on_c, 1, 62, 0
3, 74760, Note_on_c, 1, 62, 120
3, 74880, Note_on_c, 1, 62, 0
3, 75060, Note_on_c, 1, 60, 120
3, 75120, Note_on_c, 1, 60, 0
3, 75120, Note_on_c, 1, 60, 120
3, 75240, Note_on_c, 1, 60, 0
3, 75420, Note_on_c, 1, 62, 120
3, 75479, Note_on_c, 1, 62, 0
3, 75480, Note_on_c, 1, 58, 120
3, 75600, Note_on_c, 1, 58, 0
3, 76500, Note_on_c, 1, 63, 120
3, 76560, Note_on_c, 1, 63, 0
3, 76560, Note_on_c, 1, 63, 120
3, 76679, Note_on_c, 1, 63, 0
3, 76920, Note_on_c, 1, 62, 120
3, 76980, Note_on_c, 1, 62, 0
3, 76980, Note_on_c, 1, 62, 120
3, 77099, Note_on_c, 1, 62, 0
3, 77220, Note_on_c, 1, 60, 120
3, 77280, Note_on_c, 1, 60, 0
3, 77280, Note_on_c, 1, 60, 120
3, 77399, Note_on_c, 1, 60, 0
3, 77580, Note_on_c, 1, 62, 120
3, 77640, Note_on_c, 1, 62, 0
3, 77640, Note_on_c, 1, 63, 120
3, 77760, Note_on_c, 1, 63, 0
3, 77760, Note_on_c, 1, 63, 120
3, 77880, Note_on_c, 1, 63, 0
3, 77880, Note_on_c, 1, 65, 120
3, 77939, Note_on_c, 1, 65, 0
3, 77940, Note_on_c, 1, 62, 120
3, 77999, Note_on_c, 1, 62, 0
3, 78000, Note_on_c, 1, 63, 120
3, 78180, Note_on_c, 1, 63, 0
3, 79440, Note_on_c, 1, 67, 120
3, 79469, Note_on_c, 1, 67, 0
3, 79470, Note_on_c, 1, 65, 120
3, 79499, Note_on_c, 1, 65, 0
3, 79500, Note_on_c, 1, 67, 120
3, 79560, Note_on_c, 1, 67, 0
3, 79680, Note_on_c, 1, 68, 120
3, 79709, Note_on_c, 1, 68, 0
3, 79710, Note_on_c, 1, 65, 120
3, 79739, Note_on_c, 1, 65, 0
3, 79740, Note_on_c, 1, 67, 120
3, 79800, Note_on_c, 1, 67, 0
3, 79920, Note_on_c, 1, 65, 120
3, 79949, Note_on_c, 1, 65, 0
3, 79950, Note_on_c, 1, 62, 120
3, 79979, Note_on_c, 1, 62, 0
3, 79980, Note_on_c, 1, 63, 120
3, 80040, Note_on_c, 1, 63, 0
3, 80160, Note_on_c, 1, 65, 120
3, 80189, Note_on_c, 1, 65, 0
3, 80190, Note_on_c, 1, 62, 120
3, 80219, Note_on_c, 1, 62, 0
3, 80220, Note_on_c, 1, 67, 120
3, 80280, Note_on_c, 1, 67, 0
3, 80400, Note_on_c, 1, 72, 120
3, 80429, Note_on_c, 1, 72, 0
3, 80430, Note_on_c, 1, 71, 120
3, 80459, Note_on_c, 1, 71, 0
3, 80460, Note_on_c, 1, 72, 120
3, 80520, Note_on_c, 1, 72, 0
3, 80640, Note_on_c, 1, 74, 120
3, 80669, Note_on_c, 1, 74, 0
3, 80670, Note_on_c, 1, 72, 120
3, 80699, Note_on_c, 1, 72, 0
3, 80700, Note_on_c, 1, 74, 120
3, 80729, Note_on_c, 1, 74, 0
3, 80730, Note_on_c, 1, 71, 120
3, 80759, Note_on_c, 1, 71, 0
3, 80760, Note_on_c, 1, 67, 120
3, 80789, Note_on_c, 1, 67, 0
3, 80790, Note_on_c, 1, 71, 120
3, 80819, Note_on_c, 1, 71, 0
3, 80820, Note_on_c, 1, 62, 120
3, 80879, Note_on_c, 1, 62, 0
3, 81480, Note_on_c, 1, 65, 120
3, 81509, Note_on_c, 1, 65, 0
3, 81510, Note_on_c, 1, 64, 120
3, 81539, Note_on_c, 1, 64, 0
3, 81540, Note_on_c, 1, 65, 120
3, 81599, Note_on_c, 1, 65, 0
3, 82200, Note_on_c, 1, 67, 120
3, 82230, Note_on_c, 1, 67, 0
3, 82230, Note_on_c, 1, 66, 120
3, 82260, Note_on_c, 1, 66, 0
3, 82260, Note_on_c, 1, 67, 120
3, 82319, Note_on_c, 1, 67, 0
3, 82320, Note_on_c, 1, 74, 120
3, 82379, Note_on_c, 1, 74, 0
3, 82380, Note_on_c, 1, 72, 120
3, 82439, Note_on_c, 1, 72, 0
3, 82560, Note_on_c, 1, 75, 120
3, 82589, Note_on_c, 1, 75, 0
3, 82590, Note_on_c, 1, 72, 120
3, 82619, Note_on_c, 1, 72, 0
3, 82620, Note_on_c, 1, 74, 120
3, 82679, Note_on_c, 1, 74, 0
3, 82800, Note_on_c, 1, 75, 120
3, 82829, Note_on_c, 1, 75, 0
3, 82830, Note_on_c, 1, 72, 120
3, 82859, Note_on_c, 1, 72, 0
3, 82860, Note_on_c, 1, 74, 120
3, 82919, Note_on_c, 1, 74, 0
3, 83040, Note_on_c, 1, 71, 120
3, 83070, Note_on_c, 1, 71, 0
3, 83100, Note_on_c, 1, 72, 120
3, 83130, Note_on_c, 1, 72, 0
3, 83160, Note_on_c, 1, 68, 120
3, 83190, Note_on_c, 1, 68, 0
3, 83280, Note_on_c, 1, 67, 120
3, 83310, Note_on_c, 1, 67, 0
3, 83400, Note_on_c, 1, 65, 120
3, 83430, Note_on_c, 1, 65, 0
3, 83460, Note_on_c, 1, 65, 120
3, 83519, Note_on_c, 1, 65, 0
3, 83820, Note_on_c, 1, 63, 120
3, 83879, Note_on_c, 1, 63, 0
3, 84180, Note_on_c, 1, 71, 120
3, 84239, Note_on_c, 1, 71, 0
3, 84540, Note_on_c, 1, 72, 120
3, 84660, Note_on_c, 1, 72, 0
3, 84720, Note_on_c, 1, 60, 120
3, 84780, Note_on_c, 1, 60, 0
3, 84780, Note_on_c, 1, 60, 120
3, 84840, Note_on_c, 1, 60, 0
3, 84840, Note_on_c, 1, 60, 120
3, 84900, Note_on_c, 1, 60, 0
3, 84900, Note_on_c, 1, 60, 120
3, 85020, Note_on_c, 1, 60, 0
3, 85080, Note_on_c, 1, 60, 120
3, 85140, Note_on_c, 1, 60, 0
3, 85140, Note_on_c, 1, 60, 120
3, 85200, Note_on_c, 1, 60, 0
3, 85200, Note_on_c, 1, 60, 120
3, 85260, Note_on_c, 1, 60, 0
3, 85260, Note_on_c, 1, 60, 120
3, 85380, Note_on_c, 1, 60, 0
3, 85440, Note_on_c, 1, 62, 120
3, 85500, Note_on_c, 1, 62, 0
3, 85500, Note_on_c, 1, 59, 120
3, 85560, Note_on_c, 1, 59, 0
3, 85560, Note_on_c, 1, 62, 120
3, 85620, Note_on_c, 1, 62, 0
3, 85620, Note_on_c, 1, 60, 120
3, 85680, Note_on_c, 1, 60, 0
3, 85680, Note_on_c, 1, 63, 120
3, 85740, Note_on_c, 1, 63, 0
3, 85740, Note_on_c, 1, 67, 120
3, 85800, Note_on_c, 1, 67, 0
3, 85800, Note_on_c, 1, 72, 120
3, 85860, Note_on_c, 1, 72, 0
3, 85860, Note_on_c, 1, 74, 120
3, 85920, Note_on_c, 1, 74, 0
3, 85920, Note_on_c, 1, 69, 120
3, 85980, Note_on_c, 1, 69, 0
3, 85980, Note_on_c, 1, 74, 120
3, 86040, Note_on_c, 1, 74, 0
3, 86040, Note_on_c, 1, 71, 120
3, 86100, Note_on_c, 1, 71, 0
3, 86100, Note_on_c, 1, 67, 120
3, 86160, Note_on_c, 1, 67, 0
3, 86160, Note_on_c, 1, 67, 120
3, 86220, Note_on_c, 1, 67, 0
3, 86220, Note_on_c, 1, 63, 120
3, 86280, Note_on_c, 1, 63, 0
3, 86280, Note_on_c, 1, 62, 120
3, 86340, Note_on_c, 1, 62, 0
3, 86340, Note_on_c, 1, 63, 120
3, 86400, Note_on_c, 1, 63, 0
3, 86400, Note_on_c, 1, 65, 120
3, 86430, Note_on_c, 1, 65, 0
3, 86430, Note_on_c, 1, 62, 120
3, 86460, Note_on_c, 1, 62, 0
3, 86460, Note_on_c, 1, 63, 120
3, 86490, Note_on_c, 1, 63, 0
3, 86490, Note_on_c, 1, 60, 120
3, 86520, Note_on_c, 1, 60, 0
3, 86520, Note_on_c, 1, 62, 120
3, 86550, Note_on_c, 1, 62, 0
3, 86550, Note_on_c, 1, 59, 120
3, 86580, Note_on_c, 1, 59, 0
3, 86580, Note_on_c, 1, 60, 120
3, 86610, Note_on_c, 1, 60, 0
3, 86610, Note_on_c, 1, 55, 120
3, 86640, Note_on_c, 1, 55, 0
3, 86640, Note_on_c, 1, 56, 120
3, 86700, Note_on_c, 1, 56, 0
3, 86700, Note_on_c, 1, 55, 120
3, 86820, Note_on_c, 1, 55, 0
3, 87840, Note_on_c, 1, 67, 120
3, 87870, Note_on_c, 1, 67, 0
3, 87870, Note_on_c, 1, 68, 120
3, 87900, Note_on_c, 1, 68, 0
3, 87900, Note_on_c, 1, 67, 120
3, 87960, Note_on_c, 1, 67, 0
3, 88080, Note_on_c, 1, 72, 120
3, 88110, Note_on_c, 1, 72, 0
3, 88110, Note_on_c, 1, 74, 120
3, 88140, Note_on_c, 1, 74, 0
3, 88140, Note_on_c, 1, 72, 120
3, 88200, Note_on_c, 1, 72, 0
3, 89280, Note_on_c, 1, 63, 120
3, 89310, Note_on_c, 1, 63, 0
3, 89310, Note_on_c, 1, 65, 120
3, 89340, Note_on_c, 1, 65, 0
3, 89340, Note_on_c, 1, 63, 120
3, 89400, Note_on_c, 1, 63, 0
3, 89520, Note_on_c, 1, 67, 120
3, 89550, Note_on_c, 1, 67, 0
3, 89550, Note_on_c, 1, 68, 120
3, 89580, Note_on_c, 1, 68, 0
3, 89580, Note_on_c, 1, 67, 120
3, 89640, Note_on_c, 1, 67, 0
3, 89700, Note_on_c, 1, 72, 120
3, 89760, Note_on_c, 1, 72, 0
3, 89940, Note_on_c, 1, 68, 120
3, 90000, Note_on_c, 1, 68, 0
3, 90060, Note_on_c, 1, 72, 120
3, 90120, Note_on_c, 1, 72, 0
3, 90300, Note_on_c, 1, 70, 120
3, 90360, Note_on_c, 1, 70, 0
3, 90420, Note_on_c, 1, 68, 120
3, 90480, Note_on_c, 1, 68, 0
3, 90660, Note_on_c, 1, 67, 120
3, 90720, Note_on_c, 1, 67, 0
3, 90780, Note_on_c, 1, 70, 120
3, 90840, Note_on_c, 1, 70, 0
3, 91020, Note_on_c, 1, 68, 120
3, 91080, Note_on_c, 1, 68, 0
3, 91140, Note_on_c, 1, 72, 120
3, 91200, Note_on_c, 1, 72, 0
3, 91380, Note_on_c, 1, 70, 120
3, 91440, Note_on_c, 1, 70, 0
3, 91500, Note_on_c, 1, 74, 120
3, 91560, Note_on_c, 1, 74, 0
3, 91740, Note_on_c, 1, 72, 120
3, 91800, Note_on_c, 1, 72, 0
3, 91860, Note_on_c, 1, 75, 120
3, 91920, Note_on_c, 1, 75, 0
3, 92100, Note_on_c, 1, 70, 120
3, 92160, Note_on_c, 1, 70, 0
3, 92220, Note_on_c, 1, 74, 120
3, 92280, Note_on_c, 1, 74, 0
3, 92400, Note_on_c, 1, 70, 120
3, 92430, Note_on_c, 1, 70, 0
3, 92430, Note_on_c, 1, 68, 120
3, 92460, Note_on_c, 1, 68, 0
3, 92460, Note_on_c, 1, 67, 120
3, 92520, Note_on_c, 1, 67, 0
3, 92640, Note_on_c, 1, 72, 120
3, 92670, Note_on_c, 1, 72, 0
3, 92670, Note_on_c, 1, 68, 120
3, 92700, Note_on_c, 1, 68, 0
3, 92700, Note_on_c, 1, 72, 120
3, 92760, Note_on_c, 1, 72, 0
3, 92880, Note_on_c, 1, 68, 120
3, 92910, Note_on_c, 1, 68, 0
3, 92910, Note_on_c, 1, 65, 120
3, 92940, Note_on_c, 1, 65, 0
3, 92940, Note_on_c, 1, 67, 120
3, 93000, Note_on_c, 1, 67, 0
3, 93120, Note_on_c, 1, 68, 120
3, 93150, Note_on_c, 1, 68, 0
3, 93150, Note_on_c, 1, 65, 120
3, 93180, Note_on_c, 1, 65, 0
3, 93180, Note_on_c, 1, 70, 120
3, 93240, Note_on_c, 1, 70, 0
3, 93360, Note_on_c, 1, 75, 120
3, 93390, Note_on_c, 1, 75, 0
3, 93390, Note_on_c, 1, 74, 120
3, 93420, Note_on_c, 1, 74, 0
3, 93420, Note_on_c, 1, 75, 120
3, 93480, Note_on_c, 1, 75, 0
3, 93600, Note_on_c, 1, 77, 120
3, 93630, Note_on_c, 1, 77, 0
3, 93630, Note_on_c, 1, 75, 120
3, 93660, Note_on_c, 1, 75, 0
3, 93660, Note_on_c, 1, 77, 120
3, 93690, Note_on_c, 1, 77, 0
3, 93690, Note_on_c, 1, 74, 120
3, 93720, Note_on_c, 1, 74, 0
3, 93720, Note_on_c, 1, 70, 120
3, 93750, Note_on_c, 1, 70, 0
3, 93750, Note_on_c, 1, 74, 120
3, 93780, Note_on_c, 1, 74, 0
3, 93780, Note_on_c, 1, 65, 120
3, 93840, Note_on_c, 1, 65, 0
3, 93960, Note_on_c, 1, 67, 120
3, 93990, Note_on_c, 1, 67, 0
3, 93990, Note_on_c, 1, 65, 120
3, 94020, Note_on_c, 1, 65, 0
3, 94020, Note_on_c, 1, 67, 120
3, 94050, Note_on_c, 1, 67, 0
3, 94050, Note_on_c, 1, 62, 120
3, 94080, Note_on_c, 1, 62, 0
3, 94080, Note_on_c, 1, 59, 120
3, 94110, Note_on_c, 1, 59, 0
3, 94110, Note_on_c, 1, 62, 120
3, 94140, Note_on_c, 1, 62, 0
3, 94140, Note_on_c, 1, 55, 120
3, 94200, Note_on_c, 1, 55, 0
3, 94320, Note_on_c, 1, 72, 120
3, 94350, Note_on_c, 1, 72, 0
3, 94350, Note_on_c, 1, 71, 120
3, 94380, Note_on_c, 1, 71, 0
3, 94380, Note_on_c, 1, 72, 120
3, 94410, Note_on_c, 1, 72, 0
3, 94410, Note_on_c, 1, 67, 120
3, 94440, Note_on_c, 1, 67, 0
3, 94440, Note_on_c, 1, 63, 120
3, 94470, Note_on_c, 1, 63, 0
3, 94470, Note_on_c, 1, 67, 120
3, 94500, Note_on_c, 1, 67, 0
3, 94500, Note_on_c, 1, 60, 120
3, 94560, Note_on_c, 1, 60, 0
3, 94680, Note_on_c, 1, 74, 120
3, 94710, Note_on_c, 1, 74, 0
3, 94710, Note_on_c, 1, 72, 120
3, 94740, Note_on_c, 1, 72, 0
3, 94740, Note_on_c, 1, 74, 120
3, 94770, Note_on_c, 1, 74, 0
3, 94770, Note_on_c, 1, 69, 120
3, 94800, Note_on_c, 1, 69, 0
3, 94800, Note_on_c, 1, 66, 120
3, 94830, Note_on_c, 1, 66, 0
3, 94830, Note_on_c, 1, 69, 120
3, 94860, Note_on_c, 1, 69, 0
3, 94860, Note_on_c, 1, 62, 120
3, 94920, Note_on_c, 1, 62, 0
3, 95040, Note_on_c, 1, 67, 120
3, 95070, Note_on_c, 1, 67, 0
3, 95070, Note_on_c, 1, 66, 120
3, 95100, Note_on_c, 1, 66, 0
3, 95100, Note_on_c, 1, 67, 120
3, 95130, Note_on_c, 1, 67, 0
3, 95130, Note_on_c, 1, 62, 120
3, 95160, Note_on_c, 1, 62, 0
3, 95160, Note_on_c, 1, 58, 120
3, 95190, Note_on_c, 1, 58, 0
3, 95190, Note_on_c, 1, 62, 120
3, 95220, Note_on_c, 1, 62, 0
3, 95220, Note_on_c, 1, 55, 120
3, 95280, Note_on_c, 1, 55, 0
3, 95490, Note_on_c, 1, 60, 120
3, 95520, Note_on_c, 1, 60, 0
3, 95520, Note_on_c, 1, 65, 120
3, 95550, Note_on_c, 1, 65, 0
3, 95550, Note_on_c, 1, 63, 120
3, 95580, Note_on_c, 1, 63, 0
3, 95580, Note_on_c, 1, 65, 120
3, 95610, Note_on_c, 1, 65, 0
3, 95610, Note_on_c, 1, 60, 120
3, 95640, Note_on_c, 1, 60, 0
3, 95640, Note_on_c, 1, 65, 120
3, 95670, Note_on_c, 1, 65, 0
3, 95670, Note_on_c, 1, 69, 120
3, 95700, Note_on_c, 1, 69, 0
3, 95700, Note_on_c, 1, 70, 120
3, 95760, Note_on_c, 1, 70, 0
3, 95850, Note_on_c, 1, 58, 120
3, 95879, Note_on_c, 1, 58, 0
3, 95880, Note_on_c, 1, 63, 120
3, 95909, Note_on_c, 1, 63, 0
3, 95910, Note_on_c, 1, 62, 120
3, 95939, Note_on_c, 1, 62, 0
3, 95940, Note_on_c, 1, 63, 120
3, 95969, Note_on_c, 1, 63, 0
3, 95970, Note_on_c, 1, 58, 120
3, 95999, Note_on_c, 1, 58, 0
3, 96000, Note_on_c, 1, 63, 120
3, 96029, Note_on_c, 1, 63, 0
3, 96030, Note_on_c, 1, 67, 120
3, 96059, Note_on_c, 1, 67, 0
3, 96060, Note_on_c, 1, 69, 120
3, 96120, Note_on_c, 1, 69, 0
3, 96210, Note_on_c, 1, 57, 120
3, 96239, Note_on_c, 1, 57, 0
3, 96240, Note_on_c, 1, 62, 120
3, 96269, Note_on_c, 1, 62, 0
3, 96270, Note_on_c, 1, 60, 120
3, 96299, Note_on_c, 1, 60, 0
3, 96300, Note_on_c, 1, 62, 120
3, 96329, Note_on_c, 1, 62, 0
3, 96330, Note_on_c, 1, 57, 120
3, 96359, Note_on_c, 1, 57, 0
3, 96360, Note_on_c, 1, 62, 120
3, 96389, Note_on_c, 1, 62, 0
3, 96390, Note_on_c, 1, 66, 120
3, 96419, Note_on_c, 1, 66, 0
3, 96420, Note_on_c, 1, 67, 120
3, 96480, Note_on_c, 1, 67, 0
3, 97560, Note_on_c, 1, 62, 120
3, 97590, Note_on_c, 1, 62, 0
3, 97590, Note_on_c, 1, 63, 120
3, 97620, Note_on_c, 1, 63, 0
3, 97620, Note_on_c, 1, 62, 120
3, 97680, Note_on_c, 1, 62, 0
3, 97800, Note_on_c, 1, 67, 120
3, 97830, Note_on_c, 1, 67, 0
3, 97830, Note_on_c, 1, 69, 120
3, 97860, Note_on_c, 1, 69, 0
3, 97860, Note_on_c, 1, 67, 120
3, 97920, Note_on_c, 1, 67, 0
3, 99000, Note_on_c, 1, 58, 120
3, 99030, Note_on_c, 1, 58, 0
3, 99030, Note_on_c, 1, 60, 120
3, 99060, Note_on_c, 1, 60, 0
3, 99060, Note_on_c, 1, 58, 120
3, 99120, Note_on_c, 1, 58, 0
3, 99240, Note_on_c, 1, 62, 120
3, 99270, Note_on_c, 1, 62, 0
3, 99270, Note_on_c, 1, 63, 120
3, 99300, Note_on_c, 1, 63, 0
3, 99300, Note_on_c, 1, 62, 120
3, 99360, Note_on_c, 1, 62, 0
3, 99420, Note_on_c, 1, 65, 120
3, 99480, Note_on_c, 1, 65, 0
3, 99660, Note_on_c, 1, 63, 120
3, 99720, Note_on_c, 1, 63, 0
3, 99780, Note_on_c, 1, 67, 120
3, 99840, Note_on_c, 1, 67, 0
3, 100020, Note_on_c, 1, 65, 120
3, 100080, Note_on_c, 1, 65, 0
3, 100140, Note_on_c, 1, 63, 120
3, 100200, Note_on_c, 1, 63, 0
3, 100380, Note_on_c, 1, 62, 120
3, 100440, Note_on_c, 1, 62, 0
3, 100500, Note_on_c, 1, 65, 120
3, 100560, Note_on_c, 1, 65, 0
3, 100740, Note_on_c, 1, 63, 120
3, 100800, Note_on_c, 1, 63, 0
3, 101640, Note_on_c, 1, 72, 120
3, 101670, Note_on_c, 1, 72, 0
3, 101670, Note_on_c, 1, 71, 120
3, 101700, Note_on_c, 1, 71, 0
3, 101700, Note_on_c, 1, 72, 120
3, 101760, Note_on_c, 1, 72, 0
3, 102360, Note_on_c, 1, 66, 120
3, 102390, Note_on_c, 1, 66, 0
3, 102390, Note_on_c, 1, 64, 120
3, 102420, Note_on_c, 1, 64, 0
3, 102420, Note_on_c, 1, 62, 120
3, 102480, Note_on_c, 1, 62, 0
3, 102540, Note_on_c, 1, 58, 120
3, 102600, Note_on_c, 1, 58, 0
3, 102900, Note_on_c, 1, 66, 120
3, 102960, Note_on_c, 1, 66, 0
3, 103260, Note_on_c, 1, 67, 120
3, 103380, Note_on_c, 1, 67, 0
3, 103440, Note_on_c, 1, 55, 120
3, 103500, Note_on_c, 1, 55, 0
3, 103500, Note_on_c, 1, 55, 120
3, 103560, Note_on_c, 1, 55, 0
3, 103560, Note_on_c, 1, 55, 120
3, 103620, Note_on_c, 1, 55, 0
3, 103620, Note_on_c, 1, 55, 120
3, 103740, Note_on_c, 1, 55, 0
3, 103800, Note_on_c, 1, 55, 120
3, 103860, Note_on_c, 1, 55, 0
3, 103860, Note_on_c, 1, 55, 120
3, 103920, Note_on_c, 1, 55, 0
3, 103920, Note_on_c, 1, 55, 120
3, 103980, Note_on_c, 1, 55, 0
3, 103980, Note_on_c, 1, 55, 120
3, 104100, Note_on_c, 1, 55, 0
3, 104160, Note_on_c, 1, 69, 120
3, 104220, Note_on_c, 1, 69, 0
3, 104220, Note_on_c, 1, 66, 120
3, 104280, Note_on_c, 1, 66, 0
3, 104280, Note_on_c, 1, 69, 120
3, 104340, Note_on_c, 1, 69, 0
3, 104340, Note_on_c, 1, 62, 120
3, 104400, Note_on_c, 1, 62, 0
3, 104400, Note_on_c, 1, 67, 120
3, 104460, Note_on_c, 1, 67, 0
3, 104460, Note_on_c, 1, 70, 120
3, 104520, Note_on_c, 1, 70, 0
3, 104520, Note_on_c, 1, 74, 120
3, 104580, Note_on_c, 1, 74, 0
3, 104580, Note_on_c, 1, 76, 120
3, 104640, Note_on_c, 1, 76, 0
3, 104640, Note_on_c, 1, 69, 120
3, 104700, Note_on_c, 1, 69, 0
3, 104700, Note_on_c, 1, 69, 120
3, 104760, Note_on_c, 1, 69, 0
3, 104760, Note_on_c, 1, 66, 120
3, 104820, Note_on_c, 1, 66, 0
3, 104820, Note_on_c, 1, 67, 120
3, 104880, Note_on_c, 1, 67, 0
3, 104880, Note_on_c, 1, 62, 120
3, 104940, Note_on_c, 1, 62, 0
3, 104940, Note_on_c, 1, 58, 120
3, 105000, Note_on_c, 1, 58, 0
3, 105000, Note_on_c, 1, 57, 120
3, 105060, Note_on_c, 1, 57, 0
3, 105060, Note_on_c, 1, 58, 120
3, 105120, Note_on_c, 1, 58, 0
3, 105240, Note_on_c, 1, 74, 120
3, 105270, Note_on_c, 1, 74, 0
3, 105270, Note_on_c, 1, 72, 120
3, 105300, Note_on_c, 1, 72, 0
3, 105300, Note_on_c, 1, 74, 120
3, 105360, Note_on_c, 1, 74, 0
3, 105960, Note_on_c, 1, 68, 120
3, 105990, Note_on_c, 1, 68, 0
3, 105990, Note_on_c, 1, 67, 120
3, 106020, Note_on_c, 1, 67, 0
3, 106020, Note_on_c, 1, 65, 120
3, 106080, Note_on_c, 1, 65, 0
3, 106680, Note_on_c, 1, 72, 120
3, 106710, Note_on_c, 1, 72, 0
3, 106710, Note_on_c, 1, 70, 120
3, 106740, Note_on_c, 1, 70, 0
3, 106740, Note_on_c, 1, 72, 120
3, 106800, Note_on_c, 1, 72, 0
3, 107400, Note_on_c, 1, 67, 120
3, 107430, Note_on_c, 1, 67, 0
3, 107430, Note_on_c, 1, 65, 120
3, 107460, Note_on_c, 1, 65, 0
3, 107460, Note_on_c, 1, 63, 120
3, 107520, Note_on_c, 1, 63, 0
3, 108000, Note_on_c, 1, 63, 120
3, 108060, Note_on_c, 1, 63, 0
3, 108060, Note_on_c, 1, 63, 120
3, 108120, Note_on_c, 1, 63, 0
3, 108120, Note_on_c, 1, 63, 120
3, 108180, Note_on_c, 1, 63, 0
3, 108180, Note_on_c, 1, 63, 120
3, 108240, Note_on_c, 1, 63, 0
3, 108240, Note_on_c, 1, 63, 120
3, 108300, Note_on_c, 1, 63, 0
3, 108360, Note_on_c, 1, 62, 120
3, 108420, Note_on_c, 1, 62, 0
3, 108420, Note_on_c, 1, 62, 120
3, 108480, Note_on_c, 1, 62, 0
3, 108480, Note_on_c, 1, 62, 120
3, 108540, Note_on_c, 1, 62, 0
3, 108540, Note_on_c, 1, 62, 120
3, 108600, Note_on_c, 1, 62, 0
3, 108600, Note_on_c, 1, 62, 120
3, 108660, Note_on_c, 1, 62, 0
3, 108720, Note_on_c, 1, 60, 120
3, 108780, Note_on_c, 1, 60, 0
3, 108780, Note_on_c, 1, 60, 120
3, 108840, Note_on_c, 1, 60, 0
3, 108840, Note_on_c, 1, 60, 120
3, 108900, Note_on_c, 1, 60, 0
3, 108900, Note_on_c, 1, 60, 120
3, 108960, Note_on_c, 1, 60, 0
3, 108960, Note_on_c, 1, 60, 120
3, 109020, Note_on_c, 1, 60, 0
3, 109080, Note_on_c, 1, 58, 120
3, 109140, Note_on_c, 1, 58, 0
3, 109140, Note_on_c, 1, 58, 120
3, 109200, Note_on_c, 1, 58, 0
3, 109200, Note_on_c, 1, 58, 120
3, 109260, Note_on_c, 1, 58, 0
3, 109260, Note_on_c, 1, 58, 120
3, 109320, Note_on_c, 1, 58, 0
3, 109320, Note_on_c, 1, 58, 120
3, 109380, Note_on_c, 1, 58, 0
3, 109440, Note_on_c, 1, 56, 120
3, 109500, Note_on_c, 1, 56, 0
3, 109500, Note_on_c, 1, 56, 120
3, 109560, Note_on_c, 1, 56, 0
3, 109560, Note_on_c, 1, 56, 120
3, 109620, Note_on_c, 1, 56, 0
3, 109620, Note_on_c, 1, 56, 120
3, 109680, Note_on_c, 1, 56, 0
3, 109680, Note_on_c, 1, 56, 120
3, 109740, Note_on_c, 1, 56, 0
3, 109800, Note_on_c, 1, 55, 120
3, 109860, Note_on_c, 1, 55, 0
3, 109860, Note_on_c, 1, 55, 120
3, 109920, Note_on_c, 1, 55, 0
3, 109920, Note_on_c, 1, 55, 120
3, 109980, Note_on_c, 1, 55, 0
3, 109980, Note_on_c, 1, 55, 120
3, 110040, Note_on_c, 1, 55, 0
3, 110040, Note_on_c, 1, 72, 120
3, 110070, Note_on_c, 1, 72, 0
3, 110070, Note_on_c, 1, 70, 120
3, 110100, Note_on_c, 1, 70, 0
3, 110100, Note_on_c, 1, 68, 120
3, 110160, Note_on_c, 1, 68, 0
3, 110280, Note_on_c, 1, 73, 120
3, 110309, Note_on_c, 1, 73, 0
3, 110310, Note_on_c, 1, 70, 120
3, 110339, Note_on_c, 1, 70, 0
3, 110340, Note_on_c, 1, 72, 120
3, 110400, Note_on_c, 1, 72, 0
3, 110520, Note_on_c, 1, 70, 120
3, 110549, Note_on_c, 1, 70, 0
3, 110550, Note_on_c, 1, 67, 120
3, 110579, Note_on_c, 1, 67, 0
3, 110580, Note_on_c, 1, 68, 120
3, 110640, Note_on_c, 1, 68, 0
3, 110760, Note_on_c, 1, 70, 120
3, 110789, Note_on_c, 1, 70, 0
3, 110790, Note_on_c, 1, 67, 120
3, 110819, Note_on_c, 1, 67, 0
3, 110820, Note_on_c, 1, 72, 120
3, 110879, Note_on_c, 1, 72, 0
3, 111000, Note_on_c, 1, 77, 120
3, 111029, Note_on_c, 1, 77, 0
3, 111030, Note_on_c, 1, 76, 120
3, 111059, Note_on_c, 1, 76, 0
3, 111060, Note_on_c, 1, 77, 120
3, 111119, Note_on_c, 1, 77, 0
3, 111240, Note_on_c, 1, 79, 120
3, 111269, Note_on_c, 1, 79, 0
3, 111270, Note_on_c, 1, 77, 120
3, 111299, Note_on_c, 1, 77, 0
3, 111300, Note_on_c, 1, 79, 120
3, 111329, Note_on_c, 1, 79, 0
3, 111330, Note_on_c, 1, 76, 120
3, 111359, Note_on_c, 1, 76, 0
3, 111360, Note_on_c, 1, 72, 120
3, 111389, Note_on_c, 1, 72, 0
3, 111390, Note_on_c, 1, 76, 120
3, 111419, Note_on_c, 1, 76, 0
3, 111420, Note_on_c, 1, 67, 120
3, 111479, Note_on_c, 1, 67, 0
3, 112080, Note_on_c, 1, 70, 120
3, 112110, Note_on_c, 1, 70, 0
3, 112110, Note_on_c, 1, 69, 120
3, 112140, Note_on_c, 1, 69, 0
3, 112140, Note_on_c, 1, 70, 120
3, 112199, Note_on_c, 1, 70, 0
3, 112800, Note_on_c, 1, 72, 120
3, 112830, Note_on_c, 1, 72, 0
3, 112830, Note_on_c, 1, 71, 120
3, 112860, Note_on_c, 1, 71, 0
3, 112860, Note_on_c, 1, 72, 120
3, 112920, Note_on_c, 1, 72, 0
3, 112920, Note_on_c, 1, 79, 120
3, 112980, Note_on_c, 1, 79, 0
3, 112980, Note_on_c, 1, 77, 120
3, 113040, Note_on_c, 1, 77, 0
3, 113160, Note_on_c, 1, 80, 120
3, 113190, Note_on_c, 1, 80, 0
3, 113190, Note_on_c, 1, 77, 120
3, 113220, Note_on_c, 1, 77, 0
3, 113220, Note_on_c, 1, 79, 120
3, 113280, Note_on_c, 1, 79, 0
3, 113400, Note_on_c, 1, 72, 120
3, 113430, Note_on_c, 1, 72, 0
3, 113430, Note_on_c, 1, 74, 120
3, 113460, Note_on_c, 1, 74, 0
3, 113460, Note_on_c, 1, 76, 120
3, 113520, Note_on_c, 1, 76, 0
3, 113640, Note_on_c, 1, 75, 120
3, 113700, Note_on_c, 1, 75, 0
3, 113700, Note_on_c, 1, 77, 120
3, 113760, Note_on_c, 1, 77, 0
3, 114840, Note_on_c, 1, 60, 120
3, 114870, Note_on_c, 1, 60, 0
3, 114870, Note_on_c, 1, 61, 120
3, 114900, Note_on_c, 1, 61, 0
3, 114900, Note_on_c, 1, 60, 120
3, 114960, Note_on_c, 1, 60, 0
3, 115080, Note_on_c, 1, 65, 120
3, 115110, Note_on_c, 1, 65, 0
3, 115110, Note_on_c, 1, 67, 120
3, 115140, Note_on_c, 1, 67, 0
3, 115140, Note_on_c, 1, 65, 120
3, 115200, Note_on_c, 1, 65, 0
3, 116280, Note_on_c, 1, 68, 120
3, 116310, Note_on_c, 1, 68, 0
3, 116310, Note_on_c, 1, 70, 120
3, 116340, Note_on_c, 1, 70, 0
3, 116340, Note_on_c, 1, 68, 120
3, 116400, Note_on_c, 1, 68, 0
3, 116520, Note_on_c, 1, 72, 120
3, 116550, Note_on_c, 1, 72, 0
3, 116550, Note_on_c, 1, 73, 120
3, 116580, Note_on_c, 1, 73, 0
3, 116580, Note_on_c, 1, 72, 120
3, 116640, Note_on_c, 1, 72, 0
3, 116700, Note_on_c, 1, 75, 120
3, 116760, Note_on_c, 1, 75, 0
3, 116940, Note_on_c, 1, 73, 120
3, 117000, Note_on_c, 1, 73, 0
3, 117060, Note_on_c, 1, 77, 120
3, 117120, Note_on_c, 1, 77, 0
3, 117300, Note_on_c, 1, 71, 120
3, 117360, Note_on_c, 1, 71, 0
3, 117420, Note_on_c, 1, 74, 120
3, 117480, Note_on_c, 1, 74, 0
3, 117660, Note_on_c, 1, 72, 120
3, 117720, Note_on_c, 1, 72, 0
3, 117780, Note_on_c, 1, 66, 120
3, 117840, Note_on_c, 1, 66, 0
3, 118020, Note_on_c, 1, 62, 120
3, 118080, Note_on_c, 1, 62, 0
3, 118140, Note_on_c, 1, 70, 120
3, 118200, Note_on_c, 1, 70, 0
3, 118380, Note_on_c, 1, 68, 120
3, 118440, Note_on_c, 1, 68, 0
3, 118500, Note_on_c, 1, 72, 120
3, 118560, Note_on_c, 1, 72, 0
3, 118740, Note_on_c, 1, 70, 120
3, 118800, Note_on_c, 1, 70, 0
3, 118860, Note_on_c, 1, 74, 120
3, 118920, Note_on_c, 1, 74, 0
3, 119100, Note_on_c, 1, 72, 120
3, 119160, Note_on_c, 1, 72, 0
3, 119280, Note_on_c, 1, 67, 120
3, 119310, Note_on_c, 1, 67, 0
3, 119310, Note_on_c, 1, 65, 120
3, 119340, Note_on_c, 1, 65, 0
3, 119340, Note_on_c, 1, 67, 120
3, 119400, Note_on_c, 1, 67, 0
3, 120000, Note_on_c, 1, 61, 120
3, 120030, Note_on_c, 1, 61, 0
3, 120030, Note_on_c, 1, 60, 120
3, 120060, Note_on_c, 1, 60, 0
3, 120060, Note_on_c, 1, 58, 120
3, 120120, Note_on_c, 1, 58, 0
3, 120720, Note_on_c, 1, 65, 120
3, 120750, Note_on_c, 1, 65, 0
3, 120750, Note_on_c, 1, 63, 120
3, 120780, Note_on_c, 1, 63, 0
3, 120780, Note_on_c, 1, 65, 120
3, 120840, Note_on_c, 1, 65, 0
3, 121440, Note_on_c, 1, 60, 120
3, 121470, Note_on_c, 1, 60, 0
3, 121470, Note_on_c, 1, 58, 120
3, 121500, Note_on_c, 1, 58, 0
3, 121500, Note_on_c, 1, 56, 120
3, 121560, Note_on_c, 1, 56, 0
3, 122040, Note_on_c, 1, 56, 120
3, 122100, Note_on_c, 1, 56, 0
3, 122100, Note_on_c, 1, 56, 120
3, 122160, Note_on_c, 1, 56, 0
3, 122160, Note_on_c, 1, 56, 120
3, 122220, Note_on_c, 1, 56, 0
3, 122220, Note_on_c, 1, 56, 120
3, 122280, Note_on_c, 1, 56, 0
3, 122280, Note_on_c, 1, 56, 120
3, 122340, Note_on_c, 1, 56, 0
3, 122400, Note_on_c, 1, 55, 120
3, 122460, Note_on_c, 1, 55, 0
3, 122460, Note_on_c, 1, 55, 120
3, 122520, Note_on_c, 1, 55, 0
3, 122520, Note_on_c, 1, 55, 120
3, 122580, Note_on_c, 1, 55, 0
3, 122580, Note_on_c, 1, 55, 120
3, 122640, Note_on_c, 1, 55, 0
3, 122640, Note_on_c, 1, 60, 120
3, 122700, Note_on_c, 1, 60, 0
3, 122700, Note_on_c, 1, 60, 120
3, 122820, Note_on_c, 1, 60, 0
3, 123360, Note_on_c, 1, 67, 120
3, 123390, Note_on_c, 1, 67, 0
3, 123390, Note_on_c, 1, 65, 120
3, 123420, Note_on_c, 1, 65, 0
3, 123420, Note_on_c, 1, 67, 120
3, 123479, Note_on_c, 1, 67, 0
3, 123600, Note_on_c, 1, 68, 120
3, 123629, Note_on_c, 1, 68, 0
3, 123630, Note_on_c, 1, 65, 120
3, 123659, Note_on_c, 1, 65, 0
3, 123660, Note_on_c, 1, 67, 120
3, 123719, Note_on_c, 1, 67, 0
3, 123840, Note_on_c, 1, 65, 120
3, 123869, Note_on_c, 1, 65, 0
3, 123870, Note_on_c, 1, 62, 120
3, 123899, Note_on_c, 1, 62, 0
3, 123900, Note_on_c, 1, 63, 120
3, 123959, Note_on_c, 1, 63, 0
3, 124080, Note_on_c, 1, 65, 120
3, 124109, Note_on_c, 1, 65, 0
3, 124110, Note_on_c, 1, 62, 120
3, 124139, Note_on_c, 1, 62, 0
3, 124140, Note_on_c, 1, 67, 120
3, 124199, Note_on_c, 1, 67, 0
3, 124320, Note_on_c, 1, 72, 120
3, 124349, Note_on_c, 1, 72, 0
3, 124350, Note_on_c, 1, 71, 120
3, 124379, Note_on_c, 1, 71, 0
3, 124380, Note_on_c, 1, 72, 120
3, 124439, Note_on_c, 1, 72, 0
3, 124560, Note_on_c, 1, 74, 120
3, 124589, Note_on_c, 1, 74, 0
3, 124590, Note_on_c, 1, 72, 120
3, 124619, Note_on_c, 1, 72, 0
3, 124620, Note_on_c, 1, 74, 120
3, 124649, Note_on_c, 1, 74, 0
3, 124650, Note_on_c, 1, 71, 120
3, 124679, Note_on_c, 1, 71, 0
3, 124680, Note_on_c, 1, 67, 120
3, 124709, Note_on_c, 1, 67, 0
3, 124710, Note_on_c, 1, 71, 120
3, 124739, Note_on_c, 1, 71, 0
3, 124740, Note_on_c, 1, 62, 120
3, 124799, Note_on_c, 1, 62, 0
3, 124920, Note_on_c, 1, 72, 120
3, 124949, Note_on_c, 1, 72, 0
3, 124950, Note_on_c, 1, 70, 120
3, 124979, Note_on_c, 1, 70, 0
3, 124980, Note_on_c, 1, 72, 120
3, 125009, Note_on_c, 1, 72, 0
3, 125010, Note_on_c, 1, 67, 120
3, 125039, Note_on_c, 1, 67, 0
3, 125040, Note_on_c, 1, 64, 120
3, 125069, Note_on_c, 1, 64, 0
3, 125070, Note_on_c, 1, 67, 120
3, 125099, Note_on_c, 1, 67, 0
3, 125100, Note_on_c, 1, 60, 120
3, 125159, Note_on_c, 1, 60, 0
3, 125280, Note_on_c, 1, 65, 120
3, 125309, Note_on_c, 1, 65, 0
3, 125310, Note_on_c, 1, 64, 120
3, 125339, Note_on_c, 1, 64, 0
3, 125340, Note_on_c, 1, 65, 120
3, 125369, Note_on_c, 1, 65, 0
3, 125370, Note_on_c, 1, 60, 120
3, 125399, Note_on_c, 1, 60, 0
3, 125400, Note_on_c, 1, 56, 120
3, 125429, Note_on_c, 1, 56, 0
3, 125430, Note_on_c, 1, 60, 120
3, 125459, Note_on_c, 1, 60, 0
3, 125460, Note_on_c, 1, 65, 120
3, 125519, Note_on_c, 1, 65, 0
3, 125640, Note_on_c, 1, 67, 120
3, 125669, Note_on_c, 1, 67, 0
3, 125670, Note_on_c, 1, 65, 120
3, 125699, Note_on_c, 1, 65, 0
3, 125700, Note_on_c, 1, 67, 120
3, 125729, Note_on_c, 1, 67, 0
3, 125730, Note_on_c, 1, 62, 120
3, 125759, Note_on_c, 1, 62, 0
3, 125760, Note_on_c, 1, 59, 120
3, 125789, Note_on_c, 1, 59, 0
3, 125790, Note_on_c, 1, 62, 120
3, 125819, Note_on_c, 1, 62, 0
3, 125820, Note_on_c, 1, 55, 120
3, 125879, Note_on_c, 1, 55, 0
3, 126000, Note_on_c, 1, 72, 120
3, 126029, Note_on_c, 1, 72, 0
3, 126030, Note_on_c, 1, 71, 120
3, 126059, Note_on_c, 1, 71, 0
3, 126060, Note_on_c, 1, 72, 120
3, 126089, Note_on_c, 1, 72, 0
3, 126090, Note_on_c, 1, 67, 120
3, 126119, Note_on_c, 1, 67, 0
3, 126120, Note_on_c, 1, 63, 120
3, 126149, Note_on_c, 1, 63, 0
3, 126150, Note_on_c, 1, 67, 120
3, 126179, Note_on_c, 1, 67, 0
3, 126180, Note_on_c, 1, 60, 120
3, 126239, Note_on_c, 1, 60, 0
3, 126450, Note_on_c, 1, 65, 120
3, 126479, Note_on_c, 1, 65, 0
3, 126480, Note_on_c, 1, 70, 120
3, 126509, Note_on_c, 1, 70, 0
3, 126510, Note_on_c, 1, 68, 120
3, 126539, Note_on_c, 1, 68, 0
3, 126540, Note_on_c, 1, 70, 120
3, 126569, Note_on_c, 1, 70, 0
3, 126570, Note_on_c, 1, 65, 120
3, 126599, Note_on_c, 1, 65, 0
3, 126600, Note_on_c, 1, 70, 120
3, 126629, Note_on_c, 1, 70, 0
3, 126630, Note_on_c, 1, 74, 120
3, 126659, Note_on_c, 1, 74, 0
3, 126660, Note_on_c, 1, 75, 120
3, 126720, Note_on_c, 1, 75, 0
3, 126810, Note_on_c, 1, 63, 120
3, 126839, Note_on_c, 1, 63, 0
3, 126840, Note_on_c, 1, 68, 120
3, 126869, Note_on_c, 1, 68, 0
3, 126870, Note_on_c, 1, 67, 120
3, 126899, Note_on_c, 1, 67, 0
3, 126900, Note_on_c, 1, 68, 120
3, 126929, Note_on_c, 1, 68, 0
3, 126930, Note_on_c, 1, 63, 120
3, 126959, Note_on_c, 1, 63, 0
3, 126960, Note_on_c, 1, 68, 120
3, 126989, Note_on_c, 1, 68, 0
3, 126990, Note_on_c, 1, 72, 120
3, 127019, Note_on_c, 1, 72, 0
3, 127020, Note_on_c, 1, 74, 120
3, 127080, Note_on_c, 1, 74, 0
3, 127170, Note_on_c, 1, 62, 120
3, 127199, Note_on_c, 1, 62, 0
3, 127200, Note_on_c, 1, 67, 120
3, 127229, Note_on_c, 1, 67, 0
3, 127230, Note_on_c, 1, 65, 120
3, 127259, Note_on_c, 1, 65, 0
3, 127260, Note_on_c, 1, 67, 120
3, 127289, Note_on_c, 1, 67, 0
3, 127290, Note_on_c, 1, 62, 120
3, 127319, Note_on_c, 1, 62, 0
3, 127320, Note_on_c, 1, 67, 120
3, 127349, Note_on_c, 1, 67, 0
3, 127350, Note_on_c, 1, 65, 120
3, 127379, Note_on_c, 1, 65, 0
3, 127380, Note_on_c, 1, 63, 120
3, 127440, Note_on_c, 1, 63, 0
3, 127560, Note_on_c, 1, 68, 120
3, 127589, Note_on_c, 1, 68, 0
3, 127590, Note_on_c, 1, 65, 120
3, 127619, Note_on_c, 1, 65, 0
3, 127620, Note_on_c, 1, 67, 120
3, 127680, Note_on_c, 1, 67, 0
3, 127800, Note_on_c, 1, 65, 120
3, 127829, Note_on_c, 1, 65, 0
3, 127830, Note_on_c, 1, 62, 120
3, 127859, Note_on_c, 1, 62, 0
3, 127860, Note_on_c, 1, 63, 120
3, 127920, Note_on_c, 1, 63, 0
3, 128040, Note_on_c, 1, 65, 120
3, 128069, Note_on_c, 1, 65, 0
3, 128070, Note_on_c, 1, 62, 120
3, 128099, Note_on_c, 1, 62, 0
3, 128100, Note_on_c, 1, 67, 120
3, 128160, Note_on_c, 1, 67, 0
3, 128280, Note_on_c, 1, 72, 120
3, 128309, Note_on_c, 1, 72, 0
3, 128310, Note_on_c, 1, 71, 120
3, 128339, Note_on_c, 1, 71, 0
3, 128340, Note_on_c, 1, 72, 120
3, 128400, Note_on_c, 1, 72, 0
3, 128520, Note_on_c, 1, 74, 120
3, 128549, Note_on_c, 1, 74, 0
3, 128550, Note_on_c, 1, 72, 120
3, 128579, Note_on_c, 1, 72, 0
3, 128580, Note_on_c, 1, 74, 120
3, 128609, Note_on_c, 1, 74, 0
3, 128610, Note_on_c, 1, 71, 120
3, 128639, Note_on_c, 1, 71, 0
3, 128640, Note_on_c, 1, 67, 120
3, 128669, Note_on_c, 1, 67, 0
3, 128670, Note_on_c, 1, 71, 120
3, 128699, Note_on_c, 1, 71, 0
3, 128700, Note_on_c, 1, 62, 120
3, 128759, Note_on_c, 1, 62, 0
3, 129360, Note_on_c, 1, 65, 120
3, 129389, Note_on_c, 1, 65, 0
3, 129390, Note_on_c, 1, 64, 120
3, 129419, Note_on_c, 1, 64, 0
3, 129420, Note_on_c, 1, 65, 120
3, 129479, Note_on_c, 1, 65, 0
3, 130080, Note_on_c, 1, 67, 120
3, 130110, Note_on_c, 1, 67, 0
3, 130110, Note_on_c, 1, 66, 120
3, 130140, Note_on_c, 1, 66, 0
3, 130140, Note_on_c, 1, 67, 120
3, 130199, Note_on_c, 1, 67, 0
3, 130200, Note_on_c, 1, 74, 120
3, 130259, Note_on_c, 1, 74, 0
3, 130260, Note_on_c, 1, 72, 120
3, 130319, Note_on_c, 1, 72, 0
3, 130440, Note_on_c, 1, 75, 120
3, 130469, Note_on_c, 1, 75, 0
3, 130470, Note_on_c, 1, 72, 120
3, 130499, Note_on_c, 1, 72, 0
3, 130500, Note_on_c, 1, 74, 120
3, 130559, Note_on_c, 1, 74, 0
3, 130680, Note_on_c, 1, 75, 120
3, 130709, Note_on_c, 1, 75, 0
3, 130710, Note_on_c, 1, 72, 120
3, 130739, Note_on_c, 1, 72, 0
3, 130740, Note_on_c, 1, 74, 120
3, 130799, Note_on_c, 1, 74, 0
3, 130920, Note_on_c, 1, 71, 120
3, 130950, Note_on_c, 1, 71, 0
3, 130980, Note_on_c, 1, 72, 120
3, 131010, Note_on_c, 1, 72, 0
3, 131040, Note_on_c, 1, 68, 120
3, 131070, Note_on_c, 1, 68, 0
3, 131160, Note_on_c, 1, 67, 120
3, 131190, Note_on_c, 1, 67, 0
3, 131280, Note_on_c, 1, 65, 120
3, 131310, Note_on_c, 1, 65, 0
3, 131340, Note_on_c, 1, 65, 120
3, 131399, Note_on_c, 1, 65, 0
3, 131700, Note_on_c, 1, 63, 120
3, 131759, Note_on_c, 1, 63, 0
3, 132060, Note_on_c, 1, 71, 120
3, 132119, Note_on_c, 1, 71, 0
3, 132420, Note_on_c, 1, 72, 120
3, 132540, Note_on_c, 1, 72, 0
3, 132600, Note_on_c, 1, 60, 120
3, 132660, Note_on_c, 1, 60, 0
3, 132660, Note_on_c, 1, 60, 120
3, 132720, Note_on_c, 1, 60, 0
3, 132720, Note_on_c, 1, 60, 120
3, 132780, Note_on_c, 1, 60, 0
3, 132780, Note_on_c, 1, 60, 120
3, 132900, Note_on_c, 1, 60, 0
3, 132960, Note_on_c, 1, 60, 120
3, 133020, Note_on_c, 1, 60, 0
3, 133020, Note_on_c, 1, 60, 120
3, 133080, Note_on_c, 1, 60, 0
3, 133080, Note_on_c, 1, 60, 120
3, 133140, Note_on_c, 1, 60, 0
3, 133140, Note_on_c, 1, 60, 120
3, 133260, Note_on_c, 1, 60, 0
3, 133320, Note_on_c, 1, 62, 120
3, 133380, Note_on_c, 1, 62, 0
3, 133380, Note_on_c, 1, 59, 120
3, 133440, Note_on_c, 1, 59, 0
3, 133440, Note_on_c, 1, 62, 120
3, 133500, Note_on_c, 1, 62, 0
3, 133500, Note_on_c, 1, 60, 120
3, 133560, Note_on_c, 1, 60, 0
3, 133560, Note_on_c, 1, 63, 120
3, 133620, Note_on_c, 1, 63, 0
3, 133620, Note_on_c, 1, 67, 120
3, 133680, Note_on_c, 1, 67, 0
3, 133680, Note_on_c, 1, 72, 120
3, 133740, Note_on_c, 1, 72, 0
3, 133740, Note_on_c, 1, 74, 120
3, 133800, Note_on_c, 1, 74, 0
3, 133800, Note_on_c, 1, 69, 120
3, 133860, Note_on_c, 1, 69, 0
3, 133860, Note_on_c, 1, 74, 120
3, 133920, Note_on_c, 1, 74, 0
3, 133920, Note_on_c, 1, 71, 120
3, 133980, Note_on_c, 1, 71, 0
3, 133980, Note_on_c, 1, 67, 120
3, 134040, Note_on_c, 1, 67, 0
3, 134040, Note_on_c, 1, 67, 120
3, 134100, Note_on_c, 1, 67, 0
3, 134100, Note_on_c, 1, 63, 120
3, 134160, Note_on_c, 1, 63, 0
3, 134160, Note_on_c, 1, 62, 120
3, 134220, Note_on_c, 1, 62, 0
3, 134220, Note_on_c, 1, 63, 120
3, 134280, Note_on_c, 1, 63, 0
3, 134280, Note_on_c, 1, 65, 120
3, 134310, Note_on_c, 1, 65, 0
3, 134310, Note_on_c, 1, 62, 120
3, 134340, Note_on_c, 1, 62, 0
3, 134340, Note_on_c, 1, 63, 120
3, 134370, Note_on_c, 1, 63, 0
3, 134370, Note_on_c, 1, 60, 120
3, 134400, Note_on_c, 1, 60, 0
3, 134400, Note_on_c, 1, 62, 120
3, 134430, Note_on_c, 1, 62, 0
3, 134430, Note_on_c, 1, 59, 120
3, 134460, Note_on_c, 1, 59, 0
3, 134460, Note_on_c, 1, 60, 120
3, 134490, Note_on_c, 1, 60, 0
3, 134490, Note_on_c, 1, 55, 120
3, 134520, Note_on_c, 1, 55, 0
3, 134520, Note_on_c, 1, 56, 120
3, 134580, Note_on_c, 1, 56, 0
3, 134580, Note_on_c, 1, 55, 120
3, 134700, Note_on_c, 1, 55, 0
3, 134700, End_track
4, 0, Start_track
4, 0, MIDI_port, 0
4, 0, Title_t, "viola"
4, 0, Program_c, 2, 48
4, 0, Control_c, 2, 7, 113
4, 0, Control_c, 2, 10, 47
4, 0, Note_on_c, 2, 63, 127
4, 180, Note_on_c, 2, 63, 0
4, 180, Note_on_c, 2, 65, 127
4, 240, Note_on_c, 2, 65, 0
4, 240, Note_on_c, 2, 67, 127
4, 300, Note_on_c, 2, 67, 0
4, 300, Note_on_c, 2, 62, 127
4, 360, Note_on_c, 2, 62, 0
4, 360, Note_on_c, 2, 59, 127
4, 420, Note_on_c, 2, 59, 0
4, 540, Note_on_c, 2, 64, 127
4, 570, Note_on_c, 2, 64, 0
4, 570, Note_on_c, 2, 65, 127
4, 600, Note_on_c, 2, 65, 0
4, 600, Note_on_c, 2, 67, 127
4, 660, Note_on_c, 2, 67, 0
4, 660, Note_on_c, 2, 60, 127
4, 720, Note_on_c, 2, 60, 0
4, 720, Note_on_c, 2, 65, 127
4, 750, Note_on_c, 2, 65, 0
4, 750, Note_on_c, 2, 64, 127
4, 780, Note_on_c, 2, 64, 0
4, 780, Note_on_c, 2, 65, 127
4, 810, Note_on_c, 2, 65, 0
4, 810, Note_on_c, 2, 67, 127
4, 840, Note_on_c, 2, 67, 0
4, 840, Note_on_c, 2, 65, 127
4, 870, Note_on_c, 2, 65, 0
4, 870, Note_on_c, 2, 63, 127
4, 900, Note_on_c, 2, 63, 0
4, 900, Note_on_c, 2, 62, 127
4, 930, Note_on_c, 2, 62, 0
4, 930, Note_on_c, 2, 60, 127
4, 960, Note_on_c, 2, 60, 0
4, 960, Note_on_c, 2, 59, 127
4, 990, Note_on_c, 2, 59, 0
4, 990, Note_on_c, 2, 60, 127
4, 1020, Note_on_c, 2, 60, 0
4, 1020, Note_on_c, 2, 62, 127
4, 1050, Note_on_c, 2, 62, 0
4, 1050, Note_on_c, 2, 63, 127
4, 1080, Note_on_c, 2, 63, 0
4, 1080, Note_on_c, 2, 65, 127
4, 1110, Note_on_c, 2, 65, 0
4, 1110, Note_on_c, 2, 67, 127
4, 1140, Note_on_c, 2, 67, 0
4, 1140, Note_on_c, 2, 68, 127
4, 1170, Note_on_c, 2, 68, 0
4, 1170, Note_on_c, 2, 65, 127
4, 1200, Note_on_c, 2, 65, 0
4, 1200, Note_on_c, 2, 67, 127
4, 1260, Note_on_c, 2, 67, 0
4, 1260, Note_on_c, 2, 59, 127
4, 1320, Note_on_c, 2, 59, 0
4, 1320, Note_on_c, 2, 60, 127
4, 1560, Note_on_c, 2, 60, 0
4, 1560, Note_on_c, 2, 59, 127
4, 1680, Note_on_c, 2, 59, 0
4, 1680, Note_on_c, 2, 60, 127
4, 1740, Note_on_c, 2, 60, 0
4, 1740, Note_on_c, 2, 55, 127
4, 1830, Note_on_c, 2, 55, 0
4, 1830, Note_on_c, 2, 57, 127
4, 1860, Note_on_c, 2, 57, 0
4, 1860, Note_on_c, 2, 58, 127
4, 1890, Note_on_c, 2, 58, 0
4, 1890, Note_on_c, 2, 60, 127
4, 1920, Note_on_c, 2, 60, 0
4, 1920, Note_on_c, 2, 62, 127
4, 1980, Note_on_c, 2, 62, 0
4, 1980, Note_on_c, 2, 58, 127
4, 2040, Note_on_c, 2, 58, 0
4, 2040, Note_on_c, 2, 55, 127
4, 2160, Note_on_c, 2, 55, 0
4, 2160, Note_on_c, 2, 57, 127
4, 2220, Note_on_c, 2, 57, 0
4, 2220, Note_on_c, 2, 62, 127
4, 2280, Note_on_c, 2, 62, 0
4, 2280, Note_on_c, 2, 66, 127
4, 2400, Note_on_c, 2, 66, 0
4, 2400, Note_on_c, 2, 67, 127
4, 2460, Note_on_c, 2, 67, 0
4, 2460, Note_on_c, 2, 62, 127
4, 2520, Note_on_c, 2, 62, 0
4, 2520, Note_on_c, 2, 74, 127
4, 2580, Note_on_c, 2, 74, 0
4, 2580, Note_on_c, 2, 67, 127
4, 2640, Note_on_c, 2, 67, 0
4, 2700, Note_on_c, 2, 67, 127
4, 2760, Note_on_c, 2, 67, 0
4, 2760, Note_on_c, 2, 55, 127
4, 2820, Note_on_c, 2, 55, 0
4, 2820, Note_on_c, 2, 60, 127
4, 2880, Note_on_c, 2, 60, 0
4, 2940, Note_on_c, 2, 63, 127
4, 3000, Note_on_c, 2, 63, 0
4, 3000, Note_on_c, 2, 57, 127
4, 3060, Note_on_c, 2, 57, 0
4, 3060, Note_on_c, 2, 60, 127
4, 3120, Note_on_c, 2, 60, 0
4, 3180, Note_on_c, 2, 54, 127
4, 3240, Note_on_c, 2, 54, 0
4, 3240, Note_on_c, 2, 50, 127
4, 3300, Note_on_c, 2, 50, 0
4, 3300, Note_on_c, 2, 55, 127
4, 3360, Note_on_c, 2, 55, 0
4, 3360, Note_on_c, 2, 62, 127
4, 3420, Note_on_c, 2, 62, 0
4, 3420, Note_on_c, 2, 63, 127
4, 3540, Note_on_c, 2, 63, 0
4, 3540, Note_on_c, 2, 62, 127
4, 3570, Note_on_c, 2, 62, 0
4, 3570, Note_on_c, 2, 60, 127
4, 3600, Note_on_c, 2, 60, 0
4, 3600, Note_on_c, 2, 58, 127
4, 3660, Note_on_c, 2, 58, 0
4, 3660, Note_on_c, 2, 62, 127
4, 3720, Note_on_c, 2, 62, 0
4, 3720, Note_on_c, 2, 67, 127
4, 3780, Note_on_c, 2, 67, 0
4, 3780, Note_on_c, 2, 55, 127
4, 3840, Note_on_c, 2, 55, 0
4, 3840, Note_on_c, 2, 62, 127
4, 3960, Note_on_c, 2, 62, 0
4, 4020, Note_on_c, 2, 50, 127
4, 4080, Note_on_c, 2, 50, 0
4, 4080, Note_on_c, 2, 55, 127
4, 4200, Note_on_c, 2, 55, 0
4, 4260, Note_on_c, 2, 59, 127
4, 4320, Note_on_c, 2, 59, 0
4, 4320, Note_on_c, 2, 67, 127
4, 4350, Note_on_c, 2, 67, 0
4, 4350, Note_on_c, 2, 65, 127
4, 4380, Note_on_c, 2, 65, 0
4, 4380, Note_on_c, 2, 63, 127
4, 4410, Note_on_c, 2, 63, 0
4, 4410, Note_on_c, 2, 62, 127
4, 4440, Note_on_c, 2, 62, 0
4, 4440, Note_on_c, 2, 60, 127
4, 4470, Note_on_c, 2, 60, 0
4, 4470, Note_on_c, 2, 59, 127
4, 4500, Note_on_c, 2, 59, 0
4, 4500, Note_on_c, 2, 60, 127
4, 4530, Note_on_c, 2, 60, 0
4, 4530, Note_on_c, 2, 62, 127
4, 4560, Note_on_c, 2, 62, 0
4, 4560, Note_on_c, 2, 55, 127
4, 4620, Note_on_c, 2, 55, 0
4, 4620, Note_on_c, 2, 67, 127
4, 4680, Note_on_c, 2, 67, 0
4, 4680, Note_on_c, 2, 65, 127
4, 4740, Note_on_c, 2, 65, 0
4, 4740, Note_on_c, 2, 62, 127
4, 4800, Note_on_c, 2, 62, 0
4, 4860, Note_on_c, 2, 67, 127
4, 4920, Note_on_c, 2, 67, 0
4, 4920, Note_on_c, 2, 55, 127
4, 4980, Note_on_c, 2, 55, 0
4, 4980, Note_on_c, 2, 67, 127
4, 5040, Note_on_c, 2, 67, 0
4, 5100, Note_on_c, 2, 65, 127
4, 5160, Note_on_c, 2, 65, 0
4, 5160, Note_on_c, 2, 53, 127
4, 5220, Note_on_c, 2, 53, 0
4, 5220, Note_on_c, 2, 57, 127
4, 5280, Note_on_c, 2, 57, 0
4, 5280, Note_on_c, 2, 58, 127
4, 5340, Note_on_c, 2, 58, 0
4, 5340, Note_on_c, 2, 59, 127
4, 5460, Note_on_c, 2, 59, 0
4, 5460, Note_on_c, 2, 60, 127
4, 5520, Note_on_c, 2, 60, 0
4, 5520, Note_on_c, 2, 62, 127
4, 5580, Note_on_c, 2, 62, 0
4, 5580, Note_on_c, 2, 50, 127
4, 5640, Note_on_c, 2, 50, 0
4, 5640, Note_on_c, 2, 51, 127
4, 5700, Note_on_c, 2, 51, 0
4, 5700, Note_on_c, 2, 56, 127
4, 5760, Note_on_c, 2, 56, 0
4, 5760, Note_on_c, 2, 55, 127
4, 5820, Note_on_c, 2, 55, 0
4, 5820, Note_on_c, 2, 63, 127
4, 5880, Note_on_c, 2, 63, 0
4, 5880, Note_on_c, 2, 68, 127
4, 5940, Note_on_c, 2, 68, 0
4, 5940, Note_on_c, 2, 65, 127
4, 6000, Note_on_c, 2, 65, 0
4, 6000, Note_on_c, 2, 67, 127
4, 6030, Note_on_c, 2, 67, 0
4, 6030, Note_on_c, 2, 65, 127
4, 6060, Note_on_c, 2, 65, 0
4, 6060, Note_on_c, 2, 63, 127
4, 6090, Note_on_c, 2, 63, 0
4, 6090, Note_on_c, 2, 62, 127
4, 6120, Note_on_c, 2, 62, 0
4, 6120, Note_on_c, 2, 60, 127
4, 6150, Note_on_c, 2, 60, 0
4, 6150, Note_on_c, 2, 62, 127
4, 6180, Note_on_c, 2, 62, 0
4, 6180, Note_on_c, 2, 63, 127
4, 6210, Note_on_c, 2, 63, 0
4, 6210, Note_on_c, 2, 65, 127
4, 6240, Note_on_c, 2, 65, 0
4, 6240, Note_on_c, 2, 67, 127
4, 6300, Note_on_c, 2, 67, 0
4, 6300, Note_on_c, 2, 62, 127
4, 6360, Note_on_c, 2, 62, 0
4, 6420, Note_on_c, 2, 67, 127
4, 6480, Note_on_c, 2, 67, 0
4, 6480, Note_on_c, 2, 60, 127
4, 6540, Note_on_c, 2, 60, 0
4, 6540, Note_on_c, 2, 64, 127
4, 6600, Note_on_c, 2, 64, 0
4, 6600, Note_on_c, 2, 67, 127
4, 6660, Note_on_c, 2, 67, 0
4, 6660, Note_on_c, 2, 64, 127
4, 6720, Note_on_c, 2, 64, 0
4, 6720, Note_on_c, 2, 60, 127
4, 6780, Note_on_c, 2, 60, 0
4, 6780, Note_on_c, 2, 65, 127
4, 6840, Note_on_c, 2, 65, 0
4, 6900, Note_on_c, 2, 60, 127
4, 6990, Note_on_c, 2, 60, 0
4, 6990, Note_on_c, 2, 53, 127
4, 7019, Note_on_c, 2, 53, 0
4, 7020, Note_on_c, 2, 55, 127
4, 7049, Note_on_c, 2, 55, 0
4, 7050, Note_on_c, 2, 57, 127
4, 7079, Note_on_c, 2, 57, 0
4, 7080, Note_on_c, 2, 58, 127
4, 7109, Note_on_c, 2, 58, 0
4, 7110, Note_on_c, 2, 60, 127
4, 7139, Note_on_c, 2, 60, 0
4, 7140, Note_on_c, 2, 61, 127
4, 7169, Note_on_c, 2, 61, 0
4, 7170, Note_on_c, 2, 63, 127
4, 7199, Note_on_c, 2, 63, 0
4, 7200, Note_on_c, 2, 61, 127
4, 7229, Note_on_c, 2, 61, 0
4, 7230, Note_on_c, 2, 60, 127
4, 7259, Note_on_c, 2, 60, 0
4, 7260, Note_on_c, 2, 58, 127
4, 7289, Note_on_c, 2, 58, 0
4, 7290, Note_on_c, 2, 56, 127
4, 7319, Note_on_c, 2, 56, 0
4, 7320, Note_on_c, 2, 55, 127
4, 7349, Note_on_c, 2, 55, 0
4, 7350, Note_on_c, 2, 56, 127
4, 7379, Note_on_c, 2, 56, 0
4, 7380, Note_on_c, 2, 58, 127
4, 7409, Note_on_c, 2, 58, 0
4, 7410, Note_on_c, 2, 55, 127
4, 7439, Note_on_c, 2, 55, 0
4, 7440, Note_on_c, 2, 67, 127
4, 7469, Note_on_c, 2, 67, 0
4, 7470, Note_on_c, 2, 65, 127
4, 7499, Note_on_c, 2, 65, 0
4, 7500, Note_on_c, 2, 64, 127
4, 7529, Note_on_c, 2, 64, 0
4, 7530, Note_on_c, 2, 62, 127
4, 7559, Note_on_c, 2, 62, 0
4, 7560, Note_on_c, 2, 60, 127
4, 7589, Note_on_c, 2, 60, 0
4, 7590, Note_on_c, 2, 58, 127
4, 7619, Note_on_c, 2, 58, 0
4, 7620, Note_on_c, 2, 56, 127
4, 7649, Note_on_c, 2, 56, 0
4, 7650, Note_on_c, 2, 55, 127
4, 7679, Note_on_c, 2, 55, 0
4, 7680, Note_on_c, 2, 56, 127
4, 7709, Note_on_c, 2, 56, 0
4, 7710, Note_on_c, 2, 60, 127
4, 7739, Note_on_c, 2, 60, 0
4, 7740, Note_on_c, 2, 59, 127
4, 7769, Note_on_c, 2, 59, 0
4, 7770, Note_on_c, 2, 60, 127
4, 7799, Note_on_c, 2, 60, 0
4, 7800, Note_on_c, 2, 62, 127
4, 7859, Note_on_c, 2, 62, 0
4, 7860, Note_on_c, 2, 60, 127
4, 7979, Note_on_c, 2, 60, 0
4, 7980, Note_on_c, 2, 62, 127
4, 8009, Note_on_c, 2, 62, 0
4, 8010, Note_on_c, 2, 63, 127
4, 8039, Note_on_c, 2, 63, 0
4, 8040, Note_on_c, 2, 65, 127
4, 8069, Note_on_c, 2, 65, 0
4, 8070, Note_on_c, 2, 67, 127
4, 8099, Note_on_c, 2, 67, 0
4, 8100, Note_on_c, 2, 65, 127
4, 8129, Note_on_c, 2, 65, 0
4, 8130, Note_on_c, 2, 67, 127
4, 8159, Note_on_c, 2, 67, 0
4, 8160, Note_on_c, 2, 63, 127
4, 8219, Note_on_c, 2, 63, 0
4, 8220, Note_on_c, 2, 67, 127
4, 8279, Note_on_c, 2, 67, 0
4, 8280, Note_on_c, 2, 60, 127
4, 8339, Note_on_c, 2, 60, 0
4, 8340, Note_on_c, 2, 63, 127
4, 8399, Note_on_c, 2, 63, 0
4, 8400, Note_on_c, 2, 62, 127
4, 8459, Note_on_c, 2, 62, 0
4, 8460, Note_on_c, 2, 59, 127
4, 8519, Note_on_c, 2, 59, 0
4, 8520, Note_on_c, 2, 62, 127
4, 8579, Note_on_c, 2, 62, 0
4, 8580, Note_on_c, 2, 59, 127
4, 8639, Note_on_c, 2, 59, 0
4, 8640, Note_on_c, 2, 55, 127
4, 8699, Note_on_c, 2, 55, 0
4, 8700, Note_on_c, 2, 60, 127
4, 8759, Note_on_c, 2, 60, 0
4, 8820, Note_on_c, 2, 67, 127
4, 8909, Note_on_c, 2, 67, 0
4, 8910, Note_on_c, 2, 60, 127
4, 8939, Note_on_c, 2, 60, 0
4, 8940, Note_on_c, 2, 62, 127
4, 8969, Note_on_c, 2, 62, 0
4, 8970, Note_on_c, 2, 63, 127
4, 8999, Note_on_c, 2, 63, 0
4, 9000, Note_on_c, 2, 65, 127
4, 9029, Note_on_c, 2, 65, 0
4, 9030, Note_on_c, 2, 67, 127
4, 9059, Note_on_c, 2, 67, 0
4, 9060, Note_on_c, 2, 68, 127
4, 9089, Note_on_c, 2, 68, 0
4, 9090, Note_on_c, 2, 70, 127
4, 9119, Note_on_c, 2, 70, 0
4, 9120, Note_on_c, 2, 68, 127
4, 9149, Note_on_c, 2, 68, 0
4, 9150, Note_on_c, 2, 67, 127
4, 9179, Note_on_c, 2, 67, 0
4, 9180, Note_on_c, 2, 68, 127
4, 9209, Note_on_c, 2, 68, 0
4, 9210, Note_on_c, 2, 67, 127
4, 9239, Note_on_c, 2, 67, 0
4, 9240, Note_on_c, 2, 65, 127
4, 9299, Note_on_c, 2, 65, 0
4, 9300, Note_on_c, 2, 53, 127
4, 9359, Note_on_c, 2, 53, 0
4, 9360, Note_on_c, 2, 62, 127
4, 9389, Note_on_c, 2, 62, 0
4, 9390, Note_on_c, 2, 59, 127
4, 9419, Note_on_c, 2, 59, 0
4, 9420, Note_on_c, 2, 60, 127
4, 9449, Note_on_c, 2, 60, 0
4, 9450, Note_on_c, 2, 62, 127
4, 9479, Note_on_c, 2, 62, 0
4, 9480, Note_on_c, 2, 63, 127
4, 9509, Note_on_c, 2, 63, 0
4, 9510, Note_on_c, 2, 65, 127
4, 9539, Note_on_c, 2, 65, 0
4, 9540, Note_on_c, 2, 67, 127
4, 9599, Note_on_c, 2, 67, 0
4, 9600, Note_on_c, 2, 55, 127
4, 9659, Note_on_c, 2, 55, 0
4, 9660, Note_on_c, 2, 60, 127
4, 9719, Note_on_c, 2, 60, 0
4, 9720, Note_on_c, 2, 68, 127
4, 9779, Note_on_c, 2, 68, 0
4, 9780, Note_on_c, 2, 67, 127
4, 9839, Note_on_c, 2, 67, 0
4, 9840, Note_on_c, 2, 63, 127
4, 9959, Note_on_c, 2, 63, 0
4, 10080, Note_on_c, 2, 60, 127
4, 10140, Note_on_c, 2, 60, 0
4, 10200, Note_on_c, 2, 59, 127
4, 10260, Note_on_c, 2, 59, 0
4, 10320, Note_on_c, 2, 60, 127
4, 10380, Note_on_c, 2, 60, 0
4, 10560, Note_on_c, 2, 72, 127
4, 10620, Note_on_c, 2, 72, 0
4, 10680, Note_on_c, 2, 72, 127
4, 10740, Note_on_c, 2, 72, 0
4, 10800, Note_on_c, 2, 72, 127
4, 10860, Note_on_c, 2, 72, 0
4, 12000, Note_on_c, 2, 63, 127
4, 12060, Note_on_c, 2, 63, 0
4, 12120, Note_on_c, 2, 67, 127
4, 12180, Note_on_c, 2, 67, 0
4, 12240, Note_on_c, 2, 67, 127
4, 12300, Note_on_c, 2, 67, 0
4, 12480, Note_on_c, 2, 68, 127
4, 12540, Note_on_c, 2, 68, 0
4, 12600, Note_on_c, 2, 64, 127
4, 12660, Note_on_c, 2, 64, 0
4, 12720, Note_on_c, 2, 65, 127
4, 12780, Note_on_c, 2, 65, 0
4, 13920, Note_on_c, 2, 60, 127
4, 13950, Note_on_c, 2, 60, 0
4, 13950, Note_on_c, 2, 62, 127
4, 13980, Note_on_c, 2, 62, 0
4, 13980, Note_on_c, 2, 63, 127
4, 14010, Note_on_c, 2, 63, 0
4, 14010, Note_on_c, 2, 65, 127
4, 14040, Note_on_c, 2, 65, 0
4, 14040, Note_on_c, 2, 67, 127
4, 14100, Note_on_c, 2, 67, 0
4, 14100, Note_on_c, 2, 72, 127
4, 14160, Note_on_c, 2, 72, 0
4, 14160, Note_on_c, 2, 69, 127
4, 14220, Note_on_c, 2, 69, 0
4, 14220, Note_on_c, 2, 65, 127
4, 14280, Note_on_c, 2, 65, 0
4, 14400, Note_on_c, 2, 58, 127
4, 14430, Note_on_c, 2, 58, 0
4, 14430, Note_on_c, 2, 60, 127
4, 14460, Note_on_c, 2, 60, 0
4, 14460, Note_on_c, 2, 62, 127
4, 14490, Note_on_c, 2, 62, 0
4, 14490, Note_on_c, 2, 63, 127
4, 14520, Note_on_c, 2, 63, 0
4, 14520, Note_on_c, 2, 65, 127
4, 14580, Note_on_c, 2, 65, 0
4, 14580, Note_on_c, 2, 70, 127
4, 14640, Note_on_c, 2, 70, 0
4, 14640, Note_on_c, 2, 67, 127
4, 14700, Note_on_c, 2, 67, 0
4, 14700, Note_on_c, 2, 63, 127
4, 14760, Note_on_c, 2, 63, 0
4, 15840, Note_on_c, 2, 63, 127
4, 15870, Note_on_c, 2, 63, 0
4, 15870, Note_on_c, 2, 65, 127
4, 15900, Note_on_c, 2, 65, 0
4, 15900, Note_on_c, 2, 67, 127
4, 15930, Note_on_c, 2, 67, 0
4, 15930, Note_on_c, 2, 68, 127
4, 15960, Note_on_c, 2, 68, 0
4, 15960, Note_on_c, 2, 70, 127
4, 16020, Note_on_c, 2, 70, 0
4, 16020, Note_on_c, 2, 75, 127
4, 16080, Note_on_c, 2, 75, 0
4, 16080, Note_on_c, 2, 72, 127
4, 16140, Note_on_c, 2, 72, 0
4, 16140, Note_on_c, 2, 69, 127
4, 16200, Note_on_c, 2, 69, 0
4, 16320, Note_on_c, 2, 62, 127
4, 16350, Note_on_c, 2, 62, 0
4, 16350, Note_on_c, 2, 64, 127
4, 16380, Note_on_c, 2, 64, 0
4, 16380, Note_on_c, 2, 66, 127
4, 16410, Note_on_c, 2, 66, 0
4, 16410, Note_on_c, 2, 67, 127
4, 16440, Note_on_c, 2, 67, 0
4, 16440, Note_on_c, 2, 69, 127
4, 16500, Note_on_c, 2, 69, 0
4, 16500, Note_on_c, 2, 74, 127
4, 16560, Note_on_c, 2, 74, 0
4, 16560, Note_on_c, 2, 71, 127
4, 16620, Note_on_c, 2, 71, 0
4, 16620, Note_on_c, 2, 67, 127
4, 16680, Note_on_c, 2, 67, 0
4, 16860, Note_on_c, 2, 67, 127
4, 16920, Note_on_c, 2, 67, 0
4, 16920, Note_on_c, 2, 67, 127
4, 16980, Note_on_c, 2, 67, 0
4, 17100, Note_on_c, 2, 67, 127
4, 17160, Note_on_c, 2, 67, 0
4, 17160, Note_on_c, 2, 67, 127
4, 17220, Note_on_c, 2, 67, 0
4, 17340, Note_on_c, 2, 55, 127
4, 17400, Note_on_c, 2, 55, 0
4, 17400, Note_on_c, 2, 55, 127
4, 17460, Note_on_c, 2, 55, 0
4, 17580, Note_on_c, 2, 57, 127
4, 17640, Note_on_c, 2, 57, 0
4, 17640, Note_on_c, 2, 57, 127
4, 17700, Note_on_c, 2, 57, 0
4, 17760, Note_on_c, 2, 62, 127
4, 17820, Note_on_c, 2, 62, 0
4, 17880, Note_on_c, 2, 62, 127
4, 17940, Note_on_c, 2, 62, 0
4, 18000, Note_on_c, 2, 62, 127
4, 18060, Note_on_c, 2, 62, 0
4, 18240, Note_on_c, 2, 67, 127
4, 18300, Note_on_c, 2, 67, 0
4, 18360, Note_on_c, 2, 67, 127
4, 18420, Note_on_c, 2, 67, 0
4, 18480, Note_on_c, 2, 67, 127
4, 18540, Note_on_c, 2, 67, 0
4, 19680, Note_on_c, 2, 62, 127
4, 19740, Note_on_c, 2, 62, 0
4, 19800, Note_on_c, 2, 62, 127
4, 19860, Note_on_c, 2, 62, 0
4, 19920, Note_on_c, 2, 62, 127
4, 19980, Note_on_c, 2, 62, 0
4, 20160, Note_on_c, 2, 67, 127
4, 20220, Note_on_c, 2, 67, 0
4, 20280, Note_on_c, 2, 67, 127
4, 20340, Note_on_c, 2, 67, 0
4, 20400, Note_on_c, 2, 67, 127
4, 20460, Note_on_c, 2, 67, 0
4, 21600, Note_on_c, 2, 62, 127
4, 21660, Note_on_c, 2, 62, 0
4, 21660, Note_on_c, 2, 58, 127
4, 21720, Note_on_c, 2, 58, 0
4, 21720, Note_on_c, 2, 55, 127
4, 21840, Note_on_c, 2, 55, 0
4, 21840, Note_on_c, 2, 57, 127
4, 21900, Note_on_c, 2, 57, 0
4, 21900, Note_on_c, 2, 62, 127
4, 21960, Note_on_c, 2, 62, 0
4, 21960, Note_on_c, 2, 66, 127
4, 22080, Note_on_c, 2, 66, 0
4, 22080, Note_on_c, 2, 67, 127
4, 22140, Note_on_c, 2, 67, 0
4, 22140, Note_on_c, 2, 62, 127
4, 22200, Note_on_c, 2, 62, 0
4, 22200, Note_on_c, 2, 74, 127
4, 22260, Note_on_c, 2, 74, 0
4, 22260, Note_on_c, 2, 67, 127
4, 22320, Note_on_c, 2, 67, 0
4, 22380, Note_on_c, 2, 67, 127
4, 22440, Note_on_c, 2, 67, 0
4, 22440, Note_on_c, 2, 55, 127
4, 22500, Note_on_c, 2, 55, 0
4, 22500, Note_on_c, 2, 60, 127
4, 22560, Note_on_c, 2, 60, 0
4, 22620, Note_on_c, 2, 63, 127
4, 22680, Note_on_c, 2, 63, 0
4, 22680, Note_on_c, 2, 57, 127
4, 22740, Note_on_c, 2, 57, 0
4, 22740, Note_on_c, 2, 60, 127
4, 22800, Note_on_c, 2, 60, 0
4, 22860, Note_on_c, 2, 54, 127
4, 22920, Note_on_c, 2, 54, 0
4, 22920, Note_on_c, 2, 50, 127
4, 22980, Note_on_c, 2, 50, 0
4, 22980, Note_on_c, 2, 55, 127
4, 23040, Note_on_c, 2, 55, 0
4, 23040, Note_on_c, 2, 62, 127
4, 23100, Note_on_c, 2, 62, 0
4, 23100, Note_on_c, 2, 63, 127
4, 23220, Note_on_c, 2, 63, 0
4, 23220, Note_on_c, 2, 62, 127
4, 23250, Note_on_c, 2, 62, 0
4, 23250, Note_on_c, 2, 60, 127
4, 23280, Note_on_c, 2, 60, 0
4, 23280, Note_on_c, 2, 58, 127
4, 23340, Note_on_c, 2, 58, 0
4, 23520, Note_on_c, 2, 62, 127
4, 24360, Note_on_c, 2, 62, 0
4, 24480, Note_on_c, 2, 55, 127
4, 25320, Note_on_c, 2, 55, 0
4, 25380, Note_on_c, 2, 55, 127
4, 25440, Note_on_c, 2, 55, 0
4, 25440, Note_on_c, 2, 55, 127
4, 25560, Note_on_c, 2, 55, 0
4, 25620, Note_on_c, 2, 55, 127
4, 25680, Note_on_c, 2, 55, 0
4, 25680, Note_on_c, 2, 60, 127
4, 25800, Note_on_c, 2, 60, 0
4, 25860, Note_on_c, 2, 64, 127
4, 25920, Note_on_c, 2, 64, 0
4, 25920, Note_on_c, 2, 72, 127
4, 25949, Note_on_c, 2, 72, 0
4, 25950, Note_on_c, 2, 70, 127
4, 25979, Note_on_c, 2, 70, 0
4, 25980, Note_on_c, 2, 68, 127
4, 26009, Note_on_c, 2, 68, 0
4, 26010, Note_on_c, 2, 67, 127
4, 26039, Note_on_c, 2, 67, 0
4, 26040, Note_on_c, 2, 65, 127
4, 26069, Note_on_c, 2, 65, 0
4, 26070, Note_on_c, 2, 64, 127
4, 26099, Note_on_c, 2, 64, 0
4, 26100, Note_on_c, 2, 65, 127
4, 26129, Note_on_c, 2, 65, 0
4, 26130, Note_on_c, 2, 67, 127
4, 26159, Note_on_c, 2, 67, 0
4, 26160, Note_on_c, 2, 60, 127
4, 26219, Note_on_c, 2, 60, 0
4, 26220, Note_on_c, 2, 72, 127
4, 26279, Note_on_c, 2, 72, 0
4, 26280, Note_on_c, 2, 70, 127
4, 26339, Note_on_c, 2, 70, 0
4, 26340, Note_on_c, 2, 67, 127
4, 26399, Note_on_c, 2, 67, 0
4, 26460, Note_on_c, 2, 72, 127
4, 26519, Note_on_c, 2, 72, 0
4, 26520, Note_on_c, 2, 60, 127
4, 26579, Note_on_c, 2, 60, 0
4, 26580, Note_on_c, 2, 72, 127
4, 26639, Note_on_c, 2, 72, 0
4, 26700, Note_on_c, 2, 65, 127
4, 26759, Note_on_c, 2, 65, 0
4, 26760, Note_on_c, 2, 70, 127
4, 26819, Note_on_c, 2, 70, 0
4, 26820, Note_on_c, 2, 62, 127
4, 26879, Note_on_c, 2, 62, 0
4, 26880, Note_on_c, 2, 63, 127
4, 26939, Note_on_c, 2, 63, 0
4, 26940, Note_on_c, 2, 64, 127
4, 27059, Note_on_c, 2, 64, 0
4, 27060, Note_on_c, 2, 65, 127
4, 27119, Note_on_c, 2, 65, 0
4, 27120, Note_on_c, 2, 67, 127
4, 27179, Note_on_c, 2, 67, 0
4, 27180, Note_on_c, 2, 55, 127
4, 27239, Note_on_c, 2, 55, 0
4, 27240, Note_on_c, 2, 56, 127
4, 27299, Note_on_c, 2, 56, 0
4, 27300, Note_on_c, 2, 58, 127
4, 27359, Note_on_c, 2, 58, 0
4, 27360, Note_on_c, 2, 60, 127
4, 27419, Note_on_c, 2, 60, 0
4, 27420, Note_on_c, 2, 61, 127
4, 27479, Note_on_c, 2, 61, 0
4, 27480, Note_on_c, 2, 55, 127
4, 27539, Note_on_c, 2, 55, 0
4, 27540, Note_on_c, 2, 60, 127
4, 27599, Note_on_c, 2, 60, 0
4, 27600, Note_on_c, 2, 56, 127
4, 27719, Note_on_c, 2, 56, 0
4, 27840, Note_on_c, 2, 60, 127
4, 28680, Note_on_c, 2, 60, 0
4, 28800, Note_on_c, 2, 53, 127
4, 29640, Note_on_c, 2, 53, 0
4, 29820, Note_on_c, 2, 61, 127
4, 29850, Note_on_c, 2, 61, 0
4, 29850, Note_on_c, 2, 60, 127
4, 29880, Note_on_c, 2, 60, 0
4, 29880, Note_on_c, 2, 58, 127
4, 29940, Note_on_c, 2, 58, 0
4, 30060, Note_on_c, 2, 63, 127
4, 30090, Note_on_c, 2, 63, 0
4, 30090, Note_on_c, 2, 61, 127
4, 30120, Note_on_c, 2, 61, 0
4, 30120, Note_on_c, 2, 63, 127
4, 30180, Note_on_c, 2, 63, 0
4, 30300, Note_on_c, 2, 64, 127
4, 30330, Note_on_c, 2, 64, 0
4, 30330, Note_on_c, 2, 62, 127
4, 30360, Note_on_c, 2, 62, 0
4, 30360, Note_on_c, 2, 60, 127
4, 30420, Note_on_c, 2, 60, 0
4, 30540, Note_on_c, 2, 60, 127
4, 30570, Note_on_c, 2, 60, 0
4, 30570, Note_on_c, 2, 58, 127
4, 30600, Note_on_c, 2, 58, 0
4, 30600, Note_on_c, 2, 56, 127
4, 30660, Note_on_c, 2, 56, 0
4, 30780, Note_on_c, 2, 67, 127
4, 30840, Note_on_c, 2, 67, 0
4, 30840, Note_on_c, 2, 62, 127
4, 30900, Note_on_c, 2, 62, 0
4, 31020, Note_on_c, 2, 60, 127
4, 31050, Note_on_c, 2, 60, 0
4, 31050, Note_on_c, 2, 59, 127
4, 31080, Note_on_c, 2, 59, 0
4, 31080, Note_on_c, 2, 60, 127
4, 31140, Note_on_c, 2, 60, 0
4, 31260, Note_on_c, 2, 58, 127
4, 31290, Note_on_c, 2, 58, 0
4, 31290, Note_on_c, 2, 60, 127
4, 31320, Note_on_c, 2, 60, 0
4, 31320, Note_on_c, 2, 61, 127
4, 31380, Note_on_c, 2, 61, 0
4, 31500, Note_on_c, 2, 60, 127
4, 31530, Note_on_c, 2, 60, 0
4, 31530, Note_on_c, 2, 61, 127
4, 31560, Note_on_c, 2, 61, 0
4, 31560, Note_on_c, 2, 63, 127
4, 31620, Note_on_c, 2, 63, 0
4, 31740, Note_on_c, 2, 65, 127
4, 31770, Note_on_c, 2, 65, 0
4, 31770, Note_on_c, 2, 63, 127
4, 31800, Note_on_c, 2, 63, 0
4, 31800, Note_on_c, 2, 62, 127
4, 31860, Note_on_c, 2, 62, 0
4, 31980, Note_on_c, 2, 63, 127
4, 32010, Note_on_c, 2, 63, 0
4, 32010, Note_on_c, 2, 62, 127
4, 32040, Note_on_c, 2, 62, 0
4, 32040, Note_on_c, 2, 60, 127
4, 32100, Note_on_c, 2, 60, 0
4, 32220, Note_on_c, 2, 62, 127
4, 32250, Note_on_c, 2, 62, 0
4, 32250, Note_on_c, 2, 60, 127
4, 32280, Note_on_c, 2, 60, 0
4, 32280, Note_on_c, 2, 59, 127
4, 32340, Note_on_c, 2, 59, 0
4, 32340, Note_on_c, 2, 59, 127
4, 32400, Note_on_c, 2, 59, 0
4, 32400, Note_on_c, 2, 67, 127
4, 32460, Note_on_c, 2, 67, 0
4, 32640, Note_on_c, 2, 65, 127
4, 32670, Note_on_c, 2, 65, 0
4, 32670, Note_on_c, 2, 67, 127
4, 32700, Note_on_c, 2, 67, 0
4, 32700, Note_on_c, 2, 68, 127
4, 32730, Note_on_c, 2, 68, 0
4, 32730, Note_on_c, 2, 70, 127
4, 32760, Note_on_c, 2, 70, 0
4, 32760, Note_on_c, 2, 72, 127
4, 32820, Note_on_c, 2, 72, 0
4, 32820, Note_on_c, 2, 65, 127
4, 32880, Note_on_c, 2, 65, 0
4, 32880, Note_on_c, 2, 74, 127
4, 32940, Note_on_c, 2, 74, 0
4, 32940, Note_on_c, 2, 70, 127
4, 33000, Note_on_c, 2, 70, 0
4, 33120, Note_on_c, 2, 51, 127
4, 33150, Note_on_c, 2, 51, 0
4, 33150, Note_on_c, 2, 53, 127
4, 33180, Note_on_c, 2, 53, 0
4, 33180, Note_on_c, 2, 55, 127
4, 33210, Note_on_c, 2, 55, 0
4, 33210, Note_on_c, 2, 56, 127
4, 33240, Note_on_c, 2, 56, 0
4, 33240, Note_on_c, 2, 58, 127
4, 33300, Note_on_c, 2, 58, 0
4, 33300, Note_on_c, 2, 63, 127
4, 33360, Note_on_c, 2, 63, 0
4, 33360, Note_on_c, 2, 60, 127
4, 33420, Note_on_c, 2, 60, 0
4, 33420, Note_on_c, 2, 56, 127
4, 33480, Note_on_c, 2, 56, 0
4, 34560, Note_on_c, 2, 56, 127
4, 34590, Note_on_c, 2, 56, 0
4, 34590, Note_on_c, 2, 58, 127
4, 34620, Note_on_c, 2, 58, 0
4, 34620, Note_on_c, 2, 60, 127
4, 34650, Note_on_c, 2, 60, 0
4, 34650, Note_on_c, 2, 61, 127
4, 34680, Note_on_c, 2, 61, 0
4, 34680, Note_on_c, 2, 63, 127
4, 34740, Note_on_c, 2, 63, 0
4, 34740, Note_on_c, 2, 68, 127
4, 34800, Note_on_c, 2, 68, 0
4, 34800, Note_on_c, 2, 65, 127
4, 34860, Note_on_c, 2, 65, 0
4, 34860, Note_on_c, 2, 62, 127
4, 34920, Note_on_c, 2, 62, 0
4, 35040, Note_on_c, 2, 55, 127
4, 35070, Note_on_c, 2, 55, 0
4, 35070, Note_on_c, 2, 57, 127
4, 35100, Note_on_c, 2, 57, 0
4, 35100, Note_on_c, 2, 59, 127
4, 35130, Note_on_c, 2, 59, 0
4, 35130, Note_on_c, 2, 60, 127
4, 35160, Note_on_c, 2, 60, 0
4, 35160, Note_on_c, 2, 62, 127
4, 35220, Note_on_c, 2, 62, 0
4, 35220, Note_on_c, 2, 67, 127
4, 35280, Note_on_c, 2, 67, 0
4, 35280, Note_on_c, 2, 64, 127
4, 35340, Note_on_c, 2, 64, 0
4, 35340, Note_on_c, 2, 60, 127
4, 35400, Note_on_c, 2, 60, 0
4, 35580, Note_on_c, 2, 72, 127
4, 35640, Note_on_c, 2, 72, 0
4, 35640, Note_on_c, 2, 72, 127
4, 35700, Note_on_c, 2, 72, 0
4, 35820, Note_on_c, 2, 72, 127
4, 35880, Note_on_c, 2, 72, 0
4, 35880, Note_on_c, 2, 72, 127
4, 35940, Note_on_c, 2, 72, 0
4, 36060, Note_on_c, 2, 60, 127
4, 36120, Note_on_c, 2, 60, 0
4, 36120, Note_on_c, 2, 60, 127
4, 36180, Note_on_c, 2, 60, 0
4, 36300, Note_on_c, 2, 62, 127
4, 36360, Note_on_c, 2, 62, 0
4, 36360, Note_on_c, 2, 62, 127
4, 36420, Note_on_c, 2, 62, 0
4, 36480, Note_on_c, 2, 67, 127
4, 36540, Note_on_c, 2, 67, 0
4, 36600, Note_on_c, 2, 67, 127
4, 36660, Note_on_c, 2, 67, 0
4, 36720, Note_on_c, 2, 67, 127
4, 36780, Note_on_c, 2, 67, 0
4, 36960, Note_on_c, 2, 72, 127
4, 37020, Note_on_c, 2, 72, 0
4, 37080, Note_on_c, 2, 72, 127
4, 37140, Note_on_c, 2, 72, 0
4, 37200, Note_on_c, 2, 72, 127
4, 37260, Note_on_c, 2, 72, 0
4, 38400, Note_on_c, 2, 63, 127
4, 38460, Note_on_c, 2, 63, 0
4, 38520, Note_on_c, 2, 67, 127
4, 38580, Note_on_c, 2, 67, 0
4, 38640, Note_on_c, 2, 67, 127
4, 38700, Note_on_c, 2, 67, 0
4, 38880, Note_on_c, 2, 60, 127
4, 38940, Note_on_c, 2, 60, 0
4, 39000, Note_on_c, 2, 72, 127
4, 39060, Note_on_c, 2, 72, 0
4, 39120, Note_on_c, 2, 72, 127
4, 39180, Note_on_c, 2, 72, 0
4, 40320, Note_on_c, 2, 67, 127
4, 40620, Note_on_c, 2, 67, 0
4, 40620, Note_on_c, 2, 62, 127
4, 40679, Note_on_c, 2, 62, 0
4, 40680, Note_on_c, 2, 59, 127
4, 40799, Note_on_c, 2, 59, 0
4, 40800, Note_on_c, 2, 60, 127
4, 40859, Note_on_c, 2, 60, 0
4, 40860, Note_on_c, 2, 55, 127
4, 40919, Note_on_c, 2, 55, 0
4, 40920, Note_on_c, 2, 67, 127
4, 40979, Note_on_c, 2, 67, 0
4, 40980, Note_on_c, 2, 60, 127
4, 41039, Note_on_c, 2, 60, 0
4, 41100, Note_on_c, 2, 72, 127
4, 41159, Note_on_c, 2, 72, 0
4, 41160, Note_on_c, 2, 60, 127
4, 41219, Note_on_c, 2, 60, 0
4, 41220, Note_on_c, 2, 65, 127
4, 41279, Note_on_c, 2, 65, 0
4, 41340, Note_on_c, 2, 68, 127
4, 41399, Note_on_c, 2, 68, 0
4, 41400, Note_on_c, 2, 62, 127
4, 41459, Note_on_c, 2, 62, 0
4, 41460, Note_on_c, 2, 65, 127
4, 41519, Note_on_c, 2, 65, 0
4, 41580, Note_on_c, 2, 59, 127
4, 41639, Note_on_c, 2, 59, 0
4, 41640, Note_on_c, 2, 55, 127
4, 41699, Note_on_c, 2, 55, 0
4, 41700, Note_on_c, 2, 60, 127
4, 41759, Note_on_c, 2, 60, 0
4, 41760, Note_on_c, 2, 67, 127
4, 41819, Note_on_c, 2, 67, 0
4, 41820, Note_on_c, 2, 68, 127
4, 41939, Note_on_c, 2, 68, 0
4, 41940, Note_on_c, 2, 67, 127
4, 41969, Note_on_c, 2, 67, 0
4, 41970, Note_on_c, 2, 65, 127
4, 41999, Note_on_c, 2, 65, 0
4, 42000, Note_on_c, 2, 63, 127
4, 42239, Note_on_c, 2, 63, 0
4, 42720, Note_on_c, 2, 58, 127
4, 42840, Note_on_c, 2, 58, 0
4, 42900, Note_on_c, 2, 65, 127
4, 43020, Note_on_c, 2, 65, 0
4, 43080, Note_on_c, 2, 58, 127
4, 43200, Note_on_c, 2, 58, 0
4, 43260, Note_on_c, 2, 51, 127
4, 43380, Note_on_c, 2, 51, 0
4, 43440, Note_on_c, 2, 58, 127
4, 43560, Note_on_c, 2, 58, 0
4, 43560, Note_on_c, 2, 58, 127
4, 43620, Note_on_c, 2, 58, 0
4, 43620, Note_on_c, 2, 65, 127
4, 43740, Note_on_c, 2, 65, 0
4, 43740, Note_on_c, 2, 65, 127
4, 43800, Note_on_c, 2, 65, 0
4, 43800, Note_on_c, 2, 63, 127
4, 43920, Note_on_c, 2, 63, 0
4, 43920, Note_on_c, 2, 63, 127
4, 43980, Note_on_c, 2, 63, 0
4, 43980, Note_on_c, 2, 63, 127
4, 44100, Note_on_c, 2, 63, 0
4, 44100, Note_on_c, 2, 65, 127
4, 44160, Note_on_c, 2, 65, 0
4, 44160, Note_on_c, 2, 62, 127
4, 44280, Note_on_c, 2, 62, 0
4, 44340, Note_on_c, 2, 60, 127
4, 44460, Note_on_c, 2, 60, 0
4, 44520, Note_on_c, 2, 53, 127
4, 44640, Note_on_c, 2, 53, 0
4, 44700, Note_on_c, 2, 58, 127
4, 44820, Note_on_c, 2, 58, 0
4, 44880, Note_on_c, 2, 53, 127
4, 45000, Note_on_c, 2, 53, 0
4, 45000, Note_on_c, 2, 53, 127
4, 45060, Note_on_c, 2, 53, 0
4, 45060, Note_on_c, 2, 60, 127
4, 45180, Note_on_c, 2, 60, 0
4, 45180, Note_on_c, 2, 57, 127
4, 45240, Note_on_c, 2, 57, 0
4, 45240, Note_on_c, 2, 53, 127
4, 45360, Note_on_c, 2, 53, 0
4, 45540, Note_on_c, 2, 55, 127
4, 45600, Note_on_c, 2, 55, 0
4, 45600, Note_on_c, 2, 56, 127
4, 45720, Note_on_c, 2, 56, 0
4, 45900, Note_on_c, 2, 53, 127
4, 45960, Note_on_c, 2, 53, 0
4, 45960, Note_on_c, 2, 55, 127
4, 46080, Note_on_c, 2, 55, 0
4, 46260, Note_on_c, 2, 51, 127
4, 46320, Note_on_c, 2, 51, 0
4, 46320, Note_on_c, 2, 53, 127
4, 46440, Note_on_c, 2, 53, 0
4, 46620, Note_on_c, 2, 65, 127
4, 46680, Note_on_c, 2, 65, 0
4, 46680, Note_on_c, 2, 63, 127
4, 46800, Note_on_c, 2, 63, 0
4, 46800, Note_on_c, 2, 63, 127
4, 46860, Note_on_c, 2, 63, 0
4, 46860, Note_on_c, 2, 65, 127
4, 46980, Note_on_c, 2, 65, 0
4, 46980, Note_on_c, 2, 67, 127
4, 47040, Note_on_c, 2, 67, 0
4, 47040, Note_on_c, 2, 63, 127
4, 47160, Note_on_c, 2, 63, 0
4, 47220, Note_on_c, 2, 62, 127
4, 47340, Note_on_c, 2, 62, 0
4, 47400, Note_on_c, 2, 55, 127
4, 47520, Note_on_c, 2, 55, 0
4, 47580, Note_on_c, 2, 60, 127
4, 47700, Note_on_c, 2, 60, 0
4, 47760, Note_on_c, 2, 62, 127
4, 47880, Note_on_c, 2, 62, 0
4, 47880, Note_on_c, 2, 63, 127
4, 47940, Note_on_c, 2, 63, 0
4, 47940, Note_on_c, 2, 68, 127
4, 48060, Note_on_c, 2, 68, 0
4, 48060, Note_on_c, 2, 67, 127
4, 48120, Note_on_c, 2, 67, 0
4, 48120, Note_on_c, 2, 67, 127
4, 48240, Note_on_c, 2, 67, 0
4, 48420, Note_on_c, 2, 60, 127
4, 48480, Note_on_c, 2, 60, 0
4, 48480, Note_on_c, 2, 60, 127
4, 48600, Note_on_c, 2, 60, 0
4, 48780, Note_on_c, 2, 58, 127
4, 48840, Note_on_c, 2, 58, 0
4, 48840, Note_on_c, 2, 58, 127
4, 48960, Note_on_c, 2, 58, 0
4, 49140, Note_on_c, 2, 63, 127
4, 49200, Note_on_c, 2, 63, 0
4, 49200, Note_on_c, 2, 63, 127
4, 49320, Note_on_c, 2, 63, 0
4, 49380, Note_on_c, 2, 61, 127
4, 49500, Note_on_c, 2, 61, 0
4, 49560, Note_on_c, 2, 56, 127
4, 49680, Note_on_c, 2, 56, 0
4, 49740, Note_on_c, 2, 53, 127
4, 49860, Note_on_c, 2, 53, 0
4, 49920, Note_on_c, 2, 58, 127
4, 50040, Note_on_c, 2, 58, 0
4, 50040, Note_on_c, 2, 51, 127
4, 50100, Note_on_c, 2, 51, 0
4, 50100, Note_on_c, 2, 58, 127
4, 50220, Note_on_c, 2, 58, 0
4, 50220, Note_on_c, 2, 55, 127
4, 50280, Note_on_c, 2, 55, 0
4, 50280, Note_on_c, 2, 51, 127
4, 50400, Note_on_c, 2, 51, 0
4, 50400, Note_on_c, 2, 56, 127
4, 50460, Note_on_c, 2, 56, 0
4, 50460, Note_on_c, 2, 65, 127
4, 50580, Note_on_c, 2, 65, 0
4, 50580, Note_on_c, 2, 65, 127
4, 50640, Note_on_c, 2, 65, 0
4, 50640, Note_on_c, 2, 63, 127
4, 50760, Note_on_c, 2, 63, 0
4, 50820, Note_on_c, 2, 68, 127
4, 50940, Note_on_c, 2, 68, 0
4, 51000, Note_on_c, 2, 67, 127
4, 51120, Note_on_c, 2, 67, 0
4, 51180, Note_on_c, 2, 60, 127
4, 51300, Note_on_c, 2, 60, 0
4, 51360, Note_on_c, 2, 58, 127
4, 51480, Note_on_c, 2, 58, 0
4, 51480, Note_on_c, 2, 63, 127
4, 51539, Note_on_c, 2, 63, 0
4, 51540, Note_on_c, 2, 65, 127
4, 51660, Note_on_c, 2, 65, 0
4, 51660, Note_on_c, 2, 62, 127
4, 51719, Note_on_c, 2, 62, 0
4, 51720, Note_on_c, 2, 58, 127
4, 51840, Note_on_c, 2, 58, 0
4, 52020, Note_on_c, 2, 55, 127
4, 52079, Note_on_c, 2, 55, 0
4, 52080, Note_on_c, 2, 56, 127
4, 52200, Note_on_c, 2, 56, 0
4, 52380, Note_on_c, 2, 53, 127
4, 52440, Note_on_c, 2, 53, 0
4, 52440, Note_on_c, 2, 55, 127
4, 52560, Note_on_c, 2, 55, 0
4, 52740, Note_on_c, 2, 51, 127
4, 52800, Note_on_c, 2, 51, 0
4, 52800, Note_on_c, 2, 53, 127
4, 52920, Note_on_c, 2, 53, 0
4, 53100, Note_on_c, 2, 58, 127
4, 53160, Note_on_c, 2, 58, 0
4, 53160, Note_on_c, 2, 58, 127
4, 53280, Note_on_c, 2, 58, 0
4, 53280, Note_on_c, 2, 51, 127
4, 53340, Note_on_c, 2, 51, 0
4, 53340, Note_on_c, 2, 58, 127
4, 53460, Note_on_c, 2, 58, 0
4, 53460, Note_on_c, 2, 56, 127
4, 53520, Note_on_c, 2, 56, 0
4, 53520, Note_on_c, 2, 55, 127
4, 53639, Note_on_c, 2, 55, 0
4, 54360, Note_on_c, 2, 63, 127
4, 54419, Note_on_c, 2, 63, 0
4, 54420, Note_on_c, 2, 60, 127
4, 54539, Note_on_c, 2, 60, 0
4, 54540, Note_on_c, 2, 56, 127
4, 54599, Note_on_c, 2, 56, 0
4, 54720, Note_on_c, 2, 63, 127
4, 54779, Note_on_c, 2, 63, 0
4, 54780, Note_on_c, 2, 58, 127
4, 54899, Note_on_c, 2, 58, 0
4, 54900, Note_on_c, 2, 55, 127
4, 54959, Note_on_c, 2, 55, 0
4, 55080, Note_on_c, 2, 60, 127
4, 55139, Note_on_c, 2, 60, 0
4, 55140, Note_on_c, 2, 56, 127
4, 55259, Note_on_c, 2, 56, 0
4, 55260, Note_on_c, 2, 53, 127
4, 55319, Note_on_c, 2, 53, 0
4, 55320, Note_on_c, 2, 51, 127
4, 55500, Note_on_c, 2, 51, 0
4, 55980, Note_on_c, 2, 62, 127
4, 56040, Note_on_c, 2, 62, 0
4, 56040, Note_on_c, 2, 63, 127
4, 56160, Note_on_c, 2, 63, 0
4, 56340, Note_on_c, 2, 60, 127
4, 56400, Note_on_c, 2, 60, 0
4, 56400, Note_on_c, 2, 62, 127
4, 56520, Note_on_c, 2, 62, 0
4, 56700, Note_on_c, 2, 58, 127
4, 56759, Note_on_c, 2, 58, 0
4, 56760, Note_on_c, 2, 60, 127
4, 56880, Note_on_c, 2, 60, 0
4, 57060, Note_on_c, 2, 65, 127
4, 57119, Note_on_c, 2, 65, 0
4, 57120, Note_on_c, 2, 53, 127
4, 57240, Note_on_c, 2, 53, 0
4, 57960, Note_on_c, 2, 70, 127
4, 58019, Note_on_c, 2, 70, 0
4, 58020, Note_on_c, 2, 67, 127
4, 58139, Note_on_c, 2, 67, 0
4, 58140, Note_on_c, 2, 63, 127
4, 58199, Note_on_c, 2, 63, 0
4, 58320, Note_on_c, 2, 70, 127
4, 58379, Note_on_c, 2, 70, 0
4, 58380, Note_on_c, 2, 65, 127
4, 58499, Note_on_c, 2, 65, 0
4, 58500, Note_on_c, 2, 62, 127
4, 58559, Note_on_c, 2, 62, 0
4, 58680, Note_on_c, 2, 67, 127
4, 58739, Note_on_c, 2, 67, 0
4, 58740, Note_on_c, 2, 63, 127
4, 58859, Note_on_c, 2, 63, 0
4, 58860, Note_on_c, 2, 60, 127
4, 58919, Note_on_c, 2, 60, 0
4, 58920, Note_on_c, 2, 58, 127
4, 59039, Note_on_c, 2, 58, 0
4, 59460, Note_on_c, 2, 62, 127
4, 59520, Note_on_c, 2, 62, 0
4, 59640, Note_on_c, 2, 63, 127
4, 59700, Note_on_c, 2, 63, 0
4, 59820, Note_on_c, 2, 65, 127
4, 59880, Note_on_c, 2, 65, 0
4, 60000, Note_on_c, 2, 65, 127
4, 60119, Note_on_c, 2, 65, 0
4, 60300, Note_on_c, 2, 62, 127
4, 60359, Note_on_c, 2, 62, 0
4, 60360, Note_on_c, 2, 62, 127
4, 60479, Note_on_c, 2, 62, 0
4, 60660, Note_on_c, 2, 63, 127
4, 60719, Note_on_c, 2, 63, 0
4, 60720, Note_on_c, 2, 65, 127
4, 60839, Note_on_c, 2, 65, 0
4, 61020, Note_on_c, 2, 65, 127
4, 61079, Note_on_c, 2, 65, 0
4, 61080, Note_on_c, 2, 65, 127
4, 61139, Note_on_c, 2, 65, 0
4, 61260, Note_on_c, 2, 63, 127
4, 61319, Note_on_c, 2, 63, 0
4, 61440, Note_on_c, 2, 62, 127
4, 61499, Note_on_c, 2, 62, 0
4, 61620, Note_on_c, 2, 63, 127
4, 61679, Note_on_c, 2, 63, 0
4, 61800, Note_on_c, 2, 65, 127
4, 61919, Note_on_c, 2, 65, 0
4, 62100, Note_on_c, 2, 67, 127
4, 62159, Note_on_c, 2, 67, 0
4, 62160, Note_on_c, 2, 67, 127
4, 62279, Note_on_c, 2, 67, 0
4, 62460, Note_on_c, 2, 68, 127
4, 62519, Note_on_c, 2, 68, 0
4, 62520, Note_on_c, 2, 70, 127
4, 62639, Note_on_c, 2, 70, 0
4, 62820, Note_on_c, 2, 58, 127
4, 62879, Note_on_c, 2, 58, 0
4, 62880, Note_on_c, 2, 58, 127
4, 63240, Note_on_c, 2, 58, 0
4, 63240, Note_on_c, 2, 60, 127
4, 63960, Note_on_c, 2, 60, 0
4, 63960, Note_on_c, 2, 62, 127
4, 64319, Note_on_c, 2, 62, 0
4, 64320, Note_on_c, 2, 62, 127
4, 64440, Note_on_c, 2, 62, 0
4, 64500, Note_on_c, 2, 57, 127
4, 64620, Note_on_c, 2, 57, 0
4, 64680, Note_on_c, 2, 62, 127
4, 64800, Note_on_c, 2, 62, 0
4, 64860, Note_on_c, 2, 63, 127
4, 64980, Note_on_c, 2, 63, 0
4, 65040, Note_on_c, 2, 57, 127
4, 65160, Note_on_c, 2, 57, 0
4, 65160, Note_on_c, 2, 58, 127
4, 65219, Note_on_c, 2, 58, 0
4, 65220, Note_on_c, 2, 60, 127
4, 65340, Note_on_c, 2, 60, 0
4, 65340, Note_on_c, 2, 62, 127
4, 65399, Note_on_c, 2, 62, 0
4, 65400, Note_on_c, 2, 62, 127
4, 65520, Note_on_c, 2, 62, 0
4, 65520, Note_on_c, 2, 63, 127
4, 65579, Note_on_c, 2, 63, 0
4, 65580, Note_on_c, 2, 65, 127
4, 65700, Note_on_c, 2, 65, 0
4, 65700, Note_on_c, 2, 67, 127
4, 65759, Note_on_c, 2, 67, 0
4, 65760, Note_on_c, 2, 63, 127
4, 65879, Note_on_c, 2, 63, 0
4, 65940, Note_on_c, 2, 62, 127
4, 66059, Note_on_c, 2, 62, 0
4, 66120, Note_on_c, 2, 55, 127
4, 66239, Note_on_c, 2, 55, 0
4, 66300, Note_on_c, 2, 60, 127
4, 66419, Note_on_c, 2, 60, 0
4, 66480, Note_on_c, 2, 55, 127
4, 66599, Note_on_c, 2, 55, 0
4, 66600, Note_on_c, 2, 55, 127
4, 66660, Note_on_c, 2, 55, 0
4, 66660, Note_on_c, 2, 62, 127
4, 66779, Note_on_c, 2, 62, 0
4, 66780, Note_on_c, 2, 59, 127
4, 66840, Note_on_c, 2, 59, 0
4, 66840, Note_on_c, 2, 55, 127
4, 66959, Note_on_c, 2, 55, 0
4, 67860, Note_on_c, 2, 60, 127
4, 67920, Note_on_c, 2, 60, 0
4, 67920, Note_on_c, 2, 60, 127
4, 68040, Note_on_c, 2, 60, 0
4, 68220, Note_on_c, 2, 53, 127
4, 68280, Note_on_c, 2, 53, 0
4, 68280, Note_on_c, 2, 55, 127
4, 68400, Note_on_c, 2, 55, 0
4, 68580, Note_on_c, 2, 55, 127
4, 68640, Note_on_c, 2, 55, 0
4, 68640, Note_on_c, 2, 56, 127
4, 68760, Note_on_c, 2, 56, 0
4, 68760, Note_on_c, 2, 56, 127
4, 68820, Note_on_c, 2, 56, 0
4, 68820, Note_on_c, 2, 65, 127
4, 68940, Note_on_c, 2, 65, 0
4, 68940, Note_on_c, 2, 61, 127
4, 69000, Note_on_c, 2, 61, 0
4, 69120, Note_on_c, 2, 68, 127
4, 69180, Note_on_c, 2, 68, 0
4, 69180, Note_on_c, 2, 63, 127
4, 69300, Note_on_c, 2, 63, 0
4, 69300, Note_on_c, 2, 60, 127
4, 69360, Note_on_c, 2, 60, 0
4, 69480, Note_on_c, 2, 65, 127
4, 69540, Note_on_c, 2, 65, 0
4, 69540, Note_on_c, 2, 61, 127
4, 69660, Note_on_c, 2, 61, 0
4, 69660, Note_on_c, 2, 58, 127
4, 69720, Note_on_c, 2, 58, 0
4, 69720, Note_on_c, 2, 63, 127
4, 70080, Note_on_c, 2, 63, 0
4, 70080, Note_on_c, 2, 65, 127
4, 70800, Note_on_c, 2, 65, 0
4, 70800, Note_on_c, 2, 67, 127
4, 71280, Note_on_c, 2, 67, 0
4, 71280, Note_on_c, 2, 68, 127
4, 71340, Note_on_c, 2, 68, 0
4, 71340, Note_on_c, 2, 65, 127
4, 71460, Note_on_c, 2, 65, 0
4, 71460, Note_on_c, 2, 70, 127
4, 71520, Note_on_c, 2, 70, 0
4, 71520, Note_on_c, 2, 58, 127
4, 71640, Note_on_c, 2, 58, 0
4, 71700, Note_on_c, 2, 65, 127
4, 71820, Note_on_c, 2, 65, 0
4, 71880, Note_on_c, 2, 58, 127
4, 72000, Note_on_c, 2, 58, 0
4, 72060, Note_on_c, 2, 51, 127
4, 72180, Note_on_c, 2, 51, 0
4, 72240, Note_on_c, 2, 58, 127
4, 72360, Note_on_c, 2, 58, 0
4, 72360, Note_on_c, 2, 58, 127
4, 72420, Note_on_c, 2, 58, 0
4, 72420, Note_on_c, 2, 65, 127
4, 72540, Note_on_c, 2, 65, 0
4, 72540, Note_on_c, 2, 65, 127
4, 72600, Note_on_c, 2, 65, 0
4, 72600, Note_on_c, 2, 63, 127
4, 72720, Note_on_c, 2, 63, 0
4, 72720, Note_on_c, 2, 63, 127
4, 72780, Note_on_c, 2, 63, 0
4, 72780, Note_on_c, 2, 63, 127
4, 72900, Note_on_c, 2, 63, 0
4, 72900, Note_on_c, 2, 65, 127
4, 72960, Note_on_c, 2, 65, 0
4, 72960, Note_on_c, 2, 62, 127
4, 73080, Note_on_c, 2, 62, 0
4, 73140, Note_on_c, 2, 60, 127
4, 73260, Note_on_c, 2, 60, 0
4, 73320, Note_on_c, 2, 53, 127
4, 73440, Note_on_c, 2, 53, 0
4, 73500, Note_on_c, 2, 58, 127
4, 73620, Note_on_c, 2, 58, 0
4, 73680, Note_on_c, 2, 53, 127
4, 73800, Note_on_c, 2, 53, 0
4, 73800, Note_on_c, 2, 53, 127
4, 73860, Note_on_c, 2, 53, 0
4, 73860, Note_on_c, 2, 60, 127
4, 73980, Note_on_c, 2, 60, 0
4, 73980, Note_on_c, 2, 57, 127
4, 74040, Note_on_c, 2, 57, 0
4, 74040, Note_on_c, 2, 53, 127
4, 74160, Note_on_c, 2, 53, 0
4, 74340, Note_on_c, 2, 55, 127
4, 74400, Note_on_c, 2, 55, 0
4, 74400, Note_on_c, 2, 56, 127
4, 74520, Note_on_c, 2, 56, 0
4, 74700, Note_on_c, 2, 53, 127
4, 74760, Note_on_c, 2, 53, 0
4, 74760, Note_on_c, 2, 55, 127
4, 74880, Note_on_c, 2, 55, 0
4, 75060, Note_on_c, 2, 51, 127
4, 75120, Note_on_c, 2, 51, 0
4, 75120, Note_on_c, 2, 53, 127
4, 75240, Note_on_c, 2, 53, 0
4, 75420, Note_on_c, 2, 58, 127
4, 75479, Note_on_c, 2, 58, 0
4, 75480, Note_on_c, 2, 58, 127
4, 75600, Note_on_c, 2, 58, 0
4, 76500, Note_on_c, 2, 55, 127
4, 76560, Note_on_c, 2, 55, 0
4, 76560, Note_on_c, 2, 56, 127
4, 76679, Note_on_c, 2, 56, 0
4, 76920, Note_on_c, 2, 53, 127
4, 76980, Note_on_c, 2, 53, 0
4, 76980, Note_on_c, 2, 55, 127
4, 77099, Note_on_c, 2, 55, 0
4, 77220, Note_on_c, 2, 51, 127
4, 77280, Note_on_c, 2, 51, 0
4, 77280, Note_on_c, 2, 53, 127
4, 77399, Note_on_c, 2, 53, 0
4, 77580, Note_on_c, 2, 58, 127
4, 77640, Note_on_c, 2, 58, 0
4, 77640, Note_on_c, 2, 58, 127
4, 77760, Note_on_c, 2, 58, 0
4, 77760, Note_on_c, 2, 51, 127
4, 77819, Note_on_c, 2, 51, 0
4, 77820, Note_on_c, 2, 58, 127
4, 77940, Note_on_c, 2, 58, 0
4, 77940, Note_on_c, 2, 56, 127
4, 77999, Note_on_c, 2, 56, 0
4, 78000, Note_on_c, 2, 55, 127
4, 78180, Note_on_c, 2, 55, 0
4, 79440, Note_on_c, 2, 63, 127
4, 79469, Note_on_c, 2, 63, 0
4, 79470, Note_on_c, 2, 62, 127
4, 79499, Note_on_c, 2, 62, 0
4, 79500, Note_on_c, 2, 63, 127
4, 79560, Note_on_c, 2, 63, 0
4, 79680, Note_on_c, 2, 65, 127
4, 79709, Note_on_c, 2, 65, 0
4, 79710, Note_on_c, 2, 62, 127
4, 79739, Note_on_c, 2, 62, 0
4, 79740, Note_on_c, 2, 63, 127
4, 79800, Note_on_c, 2, 63, 0
4, 79920, Note_on_c, 2, 62, 127
4, 79949, Note_on_c, 2, 62, 0
4, 79950, Note_on_c, 2, 59, 127
4, 79979, Note_on_c, 2, 59, 0
4, 79980, Note_on_c, 2, 60, 127
4, 80040, Note_on_c, 2, 60, 0
4, 80160, Note_on_c, 2, 62, 127
4, 80189, Note_on_c, 2, 62, 0
4, 80190, Note_on_c, 2, 59, 127
4, 80219, Note_on_c, 2, 59, 0
4, 80220, Note_on_c, 2, 55, 127
4, 80280, Note_on_c, 2, 55, 0
4, 80400, Note_on_c, 2, 67, 127
4, 80429, Note_on_c, 2, 67, 0
4, 80430, Note_on_c, 2, 68, 127
4, 80459, Note_on_c, 2, 68, 0
4, 80460, Note_on_c, 2, 65, 127
4, 80520, Note_on_c, 2, 65, 0
4, 80640, Note_on_c, 2, 71, 127
4, 80669, Note_on_c, 2, 71, 0
4, 80670, Note_on_c, 2, 69, 127
4, 80699, Note_on_c, 2, 69, 0
4, 80700, Note_on_c, 2, 67, 127
4, 80729, Note_on_c, 2, 67, 0
4, 80730, Note_on_c, 2, 65, 127
4, 80759, Note_on_c, 2, 65, 0
4, 80760, Note_on_c, 2, 62, 127
4, 80789, Note_on_c, 2, 62, 0
4, 80790, Note_on_c, 2, 65, 127
4, 80819, Note_on_c, 2, 65, 0
4, 80820, Note_on_c, 2, 59, 127
4, 80879, Note_on_c, 2, 59, 0
4, 81480, Note_on_c, 2, 60, 127
4, 81509, Note_on_c, 2, 60, 0
4, 81510, Note_on_c, 2, 58, 127
4, 81539, Note_on_c, 2, 58, 0
4, 81540, Note_on_c, 2, 60, 127
4, 81599, Note_on_c, 2, 60, 0
4, 82200, Note_on_c, 2, 62, 127
4, 82230, Note_on_c, 2, 62, 0
4, 82230, Note_on_c, 2, 60, 127
4, 82260, Note_on_c, 2, 60, 0
4, 82260, Note_on_c, 2, 62, 127
4, 82319, Note_on_c, 2, 62, 0
4, 82320, Note_on_c, 2, 59, 127
4, 82379, Note_on_c, 2, 59, 0
4, 82380, Note_on_c, 2, 55, 127
4, 82439, Note_on_c, 2, 55, 0
4, 82560, Note_on_c, 2, 72, 127
4, 82589, Note_on_c, 2, 72, 0
4, 82590, Note_on_c, 2, 69, 127
4, 82619, Note_on_c, 2, 69, 0
4, 82620, Note_on_c, 2, 71, 127
4, 82679, Note_on_c, 2, 71, 0
4, 82800, Note_on_c, 2, 72, 127
4, 82859, Note_on_c, 2, 72, 0
4, 82860, Note_on_c, 2, 67, 127
4, 82919, Note_on_c, 2, 67, 0
4, 83040, Note_on_c, 2, 67, 127
4, 83070, Note_on_c, 2, 67, 0
4, 83100, Note_on_c, 2, 67, 127
4, 83130, Note_on_c, 2, 67, 0
4, 83160, Note_on_c, 2, 65, 127
4, 83190, Note_on_c, 2, 65, 0
4, 83280, Note_on_c, 2, 60, 127
4, 83310, Note_on_c, 2, 60, 0
4, 83400, Note_on_c, 2, 62, 127
4, 83430, Note_on_c, 2, 62, 0
4, 83460, Note_on_c, 2, 62, 127
4, 83519, Note_on_c, 2, 62, 0
4, 83820, Note_on_c, 2, 67, 127
4, 83879, Note_on_c, 2, 67, 0
4, 84180, Note_on_c, 2, 67, 127
4, 84239, Note_on_c, 2, 67, 0
4, 84540, Note_on_c, 2, 67, 127
4, 84660, Note_on_c, 2, 67, 0
4, 84720, Note_on_c, 2, 60, 127
4, 84780, Note_on_c, 2, 60, 0
4, 84780, Note_on_c, 2, 60, 127
4, 84840, Note_on_c, 2, 60, 0
4, 84840, Note_on_c, 2, 60, 127
4, 84900, Note_on_c, 2, 60, 0
4, 84900, Note_on_c, 2, 60, 127
4, 85020, Note_on_c, 2, 60, 0
4, 85080, Note_on_c, 2, 60, 127
4, 85140, Note_on_c, 2, 60, 0
4, 85140, Note_on_c, 2, 60, 127
4, 85200, Note_on_c, 2, 60, 0
4, 85200, Note_on_c, 2, 60, 127
4, 85260, Note_on_c, 2, 60, 0
4, 85260, Note_on_c, 2, 60, 127
4, 85380, Note_on_c, 2, 60, 0
4, 85440, Note_on_c, 2, 56, 127
4, 85500, Note_on_c, 2, 56, 0
4, 85500, Note_on_c, 2, 50, 127
4, 85560, Note_on_c, 2, 50, 0
4, 85560, Note_on_c, 2, 55, 127
4, 85620, Note_on_c, 2, 55, 0
4, 85620, Note_on_c, 2, 55, 127
4, 85680, Note_on_c, 2, 55, 0
4, 85680, Note_on_c, 2, 60, 127
4, 85740, Note_on_c, 2, 60, 0
4, 85740, Note_on_c, 2, 63, 127
4, 85800, Note_on_c, 2, 63, 0
4, 85800, Note_on_c, 2, 67, 127
4, 85860, Note_on_c, 2, 67, 0
4, 85860, Note_on_c, 2, 69, 127
4, 85920, Note_on_c, 2, 69, 0
4, 85920, Note_on_c, 2, 62, 127
4, 85980, Note_on_c, 2, 62, 0
4, 85980, Note_on_c, 2, 62, 127
4, 86040, Note_on_c, 2, 62, 0
4, 86040, Note_on_c, 2, 67, 127
4, 86100, Note_on_c, 2, 67, 0
4, 86100, Note_on_c, 2, 60, 127
4, 86160, Note_on_c, 2, 60, 0
4, 86160, Note_on_c, 2, 60, 127
4, 86220, Note_on_c, 2, 60, 0
4, 86220, Note_on_c, 2, 60, 127
4, 86280, Note_on_c, 2, 60, 0
4, 86280, Note_on_c, 2, 55, 127
4, 86340, Note_on_c, 2, 55, 0
4, 86340, Note_on_c, 2, 55, 127
4, 86460, Note_on_c, 2, 55, 0
4, 86490, Note_on_c, 2, 55, 127
4, 86520, Note_on_c, 2, 55, 0
4, 86520, Note_on_c, 2, 56, 127
4, 86550, Note_on_c, 2, 56, 0
4, 86550, Note_on_c, 2, 53, 127
4, 86580, Note_on_c, 2, 53, 0
4, 86580, Note_on_c, 2, 55, 127
4, 86610, Note_on_c, 2, 55, 0
4, 86610, Note_on_c, 2, 51, 127
4, 86640, Note_on_c, 2, 51, 0
4, 86640, Note_on_c, 2, 53, 127
4, 86670, Note_on_c, 2, 53, 0
4, 86670, Note_on_c, 2, 50, 127
4, 86700, Note_on_c, 2, 50, 0
4, 86700, Note_on_c, 2, 51, 127
4, 86820, Note_on_c, 2, 51, 0
4, 87840, Note_on_c, 2, 63, 127
4, 87870, Note_on_c, 2, 63, 0
4, 87870, Note_on_c, 2, 65, 127
4, 87900, Note_on_c, 2, 65, 0
4, 87900, Note_on_c, 2, 63, 127
4, 87960, Note_on_c, 2, 63, 0
4, 88080, Note_on_c, 2, 67, 127
4, 88110, Note_on_c, 2, 67, 0
4, 88110, Note_on_c, 2, 68, 127
4, 88140, Note_on_c, 2, 68, 0
4, 88140, Note_on_c, 2, 67, 127
4, 88200, Note_on_c, 2, 67, 0
4, 89280, Note_on_c, 2, 72, 127
4, 89310, Note_on_c, 2, 72, 0
4, 89310, Note_on_c, 2, 71, 127
4, 89340, Note_on_c, 2, 71, 0
4, 89340, Note_on_c, 2, 72, 127
4, 89400, Note_on_c, 2, 72, 0
4, 89520, Note_on_c, 2, 63, 127
4, 89550, Note_on_c, 2, 63, 0
4, 89550, Note_on_c, 2, 65, 127
4, 89580, Note_on_c, 2, 65, 0
4, 89580, Note_on_c, 2, 63, 127
4, 89640, Note_on_c, 2, 63, 0
4, 89700, Note_on_c, 2, 64, 127
4, 89760, Note_on_c, 2, 64, 0
4, 89940, Note_on_c, 2, 60, 127
4, 90000, Note_on_c, 2, 60, 0
4, 90060, Note_on_c, 2, 69, 127
4, 90120, Note_on_c, 2, 69, 0
4, 90300, Note_on_c, 2, 65, 127
4, 90360, Note_on_c, 2, 65, 0
4, 90420, Note_on_c, 2, 62, 127
4, 90480, Note_on_c, 2, 62, 0
4, 90660, Note_on_c, 2, 58, 127
4, 90720, Note_on_c, 2, 58, 0
4, 90780, Note_on_c, 2, 67, 127
4, 90840, Note_on_c, 2, 67, 0
4, 91020, Note_on_c, 2, 63, 127
4, 91080, Note_on_c, 2, 63, 0
4, 91140, Note_on_c, 2, 68, 127
4, 91200, Note_on_c, 2, 68, 0
4, 91380, Note_on_c, 2, 65, 127
4, 91440, Note_on_c, 2, 65, 0
4, 91500, Note_on_c, 2, 70, 127
4, 91560, Note_on_c, 2, 70, 0
4, 91740, Note_on_c, 2, 67, 127
4, 91800, Note_on_c, 2, 67, 0
4, 91860, Note_on_c, 2, 72, 127
4, 91920, Note_on_c, 2, 72, 0
4, 92100, Note_on_c, 2, 65, 127
4, 92160, Note_on_c, 2, 65, 0
4, 92220, Note_on_c, 2, 65, 127
4, 92280, Note_on_c, 2, 65, 0
4, 92400, Note_on_c, 2, 65, 127
4, 92460, Note_on_c, 2, 65, 0
4, 92460, Note_on_c, 2, 63, 127
4, 92520, Note_on_c, 2, 63, 0
4, 92640, Note_on_c, 2, 68, 127
4, 92670, Note_on_c, 2, 68, 0
4, 92670, Note_on_c, 2, 65, 127
4, 92700, Note_on_c, 2, 65, 0
4, 92700, Note_on_c, 2, 67, 127
4, 92760, Note_on_c, 2, 67, 0
4, 92880, Note_on_c, 2, 65, 127
4, 92910, Note_on_c, 2, 65, 0
4, 92910, Note_on_c, 2, 62, 127
4, 92940, Note_on_c, 2, 62, 0
4, 92940, Note_on_c, 2, 63, 127
4, 93000, Note_on_c, 2, 63, 0
4, 93120, Note_on_c, 2, 65, 127
4, 93150, Note_on_c, 2, 65, 0
4, 93150, Note_on_c, 2, 62, 127
4, 93180, Note_on_c, 2, 62, 0
4, 93180, Note_on_c, 2, 58, 127
4, 93240, Note_on_c, 2, 58, 0
4, 93360, Note_on_c, 2, 70, 127
4, 93390, Note_on_c, 2, 70, 0
4, 93390, Note_on_c, 2, 72, 127
4, 93420, Note_on_c, 2, 72, 0
4, 93420, Note_on_c, 2, 68, 127
4, 93480, Note_on_c, 2, 68, 0
4, 93600, Note_on_c, 2, 74, 127
4, 93630, Note_on_c, 2, 74, 0
4, 93630, Note_on_c, 2, 72, 127
4, 93660, Note_on_c, 2, 72, 0
4, 93660, Note_on_c, 2, 74, 127
4, 93690, Note_on_c, 2, 74, 0
4, 93690, Note_on_c, 2, 70, 127
4, 93720, Note_on_c, 2, 70, 0
4, 93720, Note_on_c, 2, 65, 127
4, 93750, Note_on_c, 2, 65, 0
4, 93750, Note_on_c, 2, 70, 127
4, 93780, Note_on_c, 2, 70, 0
4, 93780, Note_on_c, 2, 62, 127
4, 93840, Note_on_c, 2, 62, 0
4, 93960, Note_on_c, 2, 67, 127
4, 93990, Note_on_c, 2, 67, 0
4, 93990, Note_on_c, 2, 65, 127
4, 94020, Note_on_c, 2, 65, 0
4, 94020, Note_on_c, 2, 67, 127
4, 94050, Note_on_c, 2, 67, 0
4, 94050, Note_on_c, 2, 62, 127
4, 94080, Note_on_c, 2, 62, 0
4, 94080, Note_on_c, 2, 59, 127
4, 94110, Note_on_c, 2, 59, 0
4, 94110, Note_on_c, 2, 62, 127
4, 94140, Note_on_c, 2, 62, 0
4, 94140, Note_on_c, 2, 55, 127
4, 94200, Note_on_c, 2, 55, 0
4, 95040, Note_on_c, 2, 67, 127
4, 95070, Note_on_c, 2, 67, 0
4, 95070, Note_on_c, 2, 66, 127
4, 95100, Note_on_c, 2, 66, 0
4, 95100, Note_on_c, 2, 67, 127
4, 95130, Note_on_c, 2, 67, 0
4, 95130, Note_on_c, 2, 62, 127
4, 95160, Note_on_c, 2, 62, 0
4, 95160, Note_on_c, 2, 58, 127
4, 95190, Note_on_c, 2, 58, 0
4, 95190, Note_on_c, 2, 62, 127
4, 95220, Note_on_c, 2, 62, 0
4, 95220, Note_on_c, 2, 55, 127
4, 95280, Note_on_c, 2, 55, 0
4, 95610, Note_on_c, 2, 57, 127
4, 95640, Note_on_c, 2, 57, 0
4, 95640, Note_on_c, 2, 60, 127
4, 95670, Note_on_c, 2, 60, 0
4, 95670, Note_on_c, 2, 65, 127
4, 95700, Note_on_c, 2, 65, 0
4, 95700, Note_on_c, 2, 65, 127
4, 95760, Note_on_c, 2, 65, 0
4, 95970, Note_on_c, 2, 55, 127
4, 95999, Note_on_c, 2, 55, 0
4, 96000, Note_on_c, 2, 58, 127
4, 96029, Note_on_c, 2, 58, 0
4, 96030, Note_on_c, 2, 63, 127
4, 96059, Note_on_c, 2, 63, 0
4, 96060, Note_on_c, 2, 63, 127
4, 96120, Note_on_c, 2, 63, 0
4, 96330, Note_on_c, 2, 54, 127
4, 96359, Note_on_c, 2, 54, 0
4, 96360, Note_on_c, 2, 57, 127
4, 96389, Note_on_c, 2, 57, 0
4, 96390, Note_on_c, 2, 62, 127
4, 96419, Note_on_c, 2, 62, 0
4, 96420, Note_on_c, 2, 62, 127
4, 96480, Note_on_c, 2, 62, 0
4, 97560, Note_on_c, 2, 58, 127
4, 97590, Note_on_c, 2, 58, 0
4, 97590, Note_on_c, 2, 60, 127
4, 97620, Note_on_c, 2, 60, 0
4, 97620, Note_on_c, 2, 58, 127
4, 97680, Note_on_c, 2, 58, 0
4, 97800, Note_on_c, 2, 62, 127
4, 97830, Note_on_c, 2, 62, 0
4, 97830, Note_on_c, 2, 63, 127
4, 97860, Note_on_c, 2, 63, 0
4, 97860, Note_on_c, 2, 62, 127
4, 97920, Note_on_c, 2, 62, 0
4, 99000, Note_on_c, 2, 67, 127
4, 99030, Note_on_c, 2, 67, 0
4, 99030, Note_on_c, 2, 66, 127
4, 99060, Note_on_c, 2, 66, 0
4, 99060, Note_on_c, 2, 67, 127
4, 99120, Note_on_c, 2, 67, 0
4, 99240, Note_on_c, 2, 58, 127
4, 99270, Note_on_c, 2, 58, 0
4, 99270, Note_on_c, 2, 60, 127
4, 99300, Note_on_c, 2, 60, 0
4, 99300, Note_on_c, 2, 58, 127
4, 99360, Note_on_c, 2, 58, 0
4, 99420, Note_on_c, 2, 59, 127
4, 99480, Note_on_c, 2, 59, 0
4, 99660, Note_on_c, 2, 55, 127
4, 99720, Note_on_c, 2, 55, 0
4, 99780, Note_on_c, 2, 64, 127
4, 99840, Note_on_c, 2, 64, 0
4, 100020, Note_on_c, 2, 60, 127
4, 100080, Note_on_c, 2, 60, 0
4, 100140, Note_on_c, 2, 57, 127
4, 100200, Note_on_c, 2, 57, 0
4, 100380, Note_on_c, 2, 53, 127
4, 100440, Note_on_c, 2, 53, 0
4, 100500, Note_on_c, 2, 62, 127
4, 100560, Note_on_c, 2, 62, 0
4, 100740, Note_on_c, 2, 58, 127
4, 100800, Note_on_c, 2, 58, 0
4, 101640, Note_on_c, 2, 67, 127
4, 101670, Note_on_c, 2, 67, 0
4, 101670, Note_on_c, 2, 65, 127
4, 101700, Note_on_c, 2, 65, 0
4, 101700, Note_on_c, 2, 67, 127
4, 101760, Note_on_c, 2, 67, 0
4, 102360, Note_on_c, 2, 60, 127
4, 102390, Note_on_c, 2, 60, 0
4, 102390, Note_on_c, 2, 58, 127
4, 102420, Note_on_c, 2, 58, 0
4, 102420, Note_on_c, 2, 57, 127
4, 102480, Note_on_c, 2, 57, 0
4, 102540, Note_on_c, 2, 62, 127
4, 102600, Note_on_c, 2, 62, 0
4, 102900, Note_on_c, 2, 62, 127
4, 102960, Note_on_c, 2, 62, 0
4, 103260, Note_on_c, 2, 62, 127
4, 103380, Note_on_c, 2, 62, 0
4, 103440, Note_on_c, 2, 55, 127
4, 103500, Note_on_c, 2, 55, 0
4, 103500, Note_on_c, 2, 55, 127
4, 103560, Note_on_c, 2, 55, 0
4, 103560, Note_on_c, 2, 55, 127
4, 103620, Note_on_c, 2, 55, 0
4, 103620, Note_on_c, 2, 55, 127
4, 103740, Note_on_c, 2, 55, 0
4, 103800, Note_on_c, 2, 55, 127
4, 103860, Note_on_c, 2, 55, 0
4, 103860, Note_on_c, 2, 55, 127
4, 103920, Note_on_c, 2, 55, 0
4, 103920, Note_on_c, 2, 55, 127
4, 103980, Note_on_c, 2, 55, 0
4, 103980, Note_on_c, 2, 55, 127
4, 104100, Note_on_c, 2, 55, 0
4, 104160, Note_on_c, 2, 63, 127
4, 104220, Note_on_c, 2, 63, 0
4, 104220, Note_on_c, 2, 57, 127
4, 104280, Note_on_c, 2, 57, 0
4, 104280, Note_on_c, 2, 62, 127
4, 104340, Note_on_c, 2, 62, 0
4, 104340, Note_on_c, 2, 62, 127
4, 104400, Note_on_c, 2, 62, 0
4, 104400, Note_on_c, 2, 58, 127
4, 104460, Note_on_c, 2, 58, 0
4, 104460, Note_on_c, 2, 62, 127
4, 104520, Note_on_c, 2, 62, 0
4, 104520, Note_on_c, 2, 67, 127
4, 104580, Note_on_c, 2, 67, 0
4, 104580, Note_on_c, 2, 70, 127
4, 104640, Note_on_c, 2, 70, 0
4, 104640, Note_on_c, 2, 64, 127
4, 104700, Note_on_c, 2, 64, 0
4, 104700, Note_on_c, 2, 62, 127
4, 104760, Note_on_c, 2, 62, 0
4, 104760, Note_on_c, 2, 62, 127
4, 104820, Note_on_c, 2, 62, 0
4, 104820, Note_on_c, 2, 62, 127
4, 104880, Note_on_c, 2, 62, 0
4, 104880, Note_on_c, 2, 62, 127
4, 104940, Note_on_c, 2, 62, 0
4, 104940, Note_on_c, 2, 62, 127
4, 105000, Note_on_c, 2, 62, 0
4, 105000, Note_on_c, 2, 62, 127
4, 105060, Note_on_c, 2, 62, 0
4, 105060, Note_on_c, 2, 62, 127
4, 105120, Note_on_c, 2, 62, 0
4, 105360, Note_on_c, 2, 70, 127
4, 105390, Note_on_c, 2, 70, 0
4, 105390, Note_on_c, 2, 69, 127
4, 105420, Note_on_c, 2, 69, 0
4, 105420, Note_on_c, 2, 71, 127
4, 105480, Note_on_c, 2, 71, 0
4, 106080, Note_on_c, 2, 61, 127
4, 106110, Note_on_c, 2, 61, 0
4, 106110, Note_on_c, 2, 60, 127
4, 106140, Note_on_c, 2, 60, 0
4, 106140, Note_on_c, 2, 58, 127
4, 106200, Note_on_c, 2, 58, 0
4, 106800, Note_on_c, 2, 68, 127
4, 106830, Note_on_c, 2, 68, 0
4, 106830, Note_on_c, 2, 67, 127
4, 106860, Note_on_c, 2, 67, 0
4, 106860, Note_on_c, 2, 69, 127
4, 106920, Note_on_c, 2, 69, 0
4, 107520, Note_on_c, 2, 60, 127
4, 107550, Note_on_c, 2, 60, 0
4, 107550, Note_on_c, 2, 58, 127
4, 107580, Note_on_c, 2, 58, 0
4, 107580, Note_on_c, 2, 56, 127
4, 107640, Note_on_c, 2, 56, 0
4, 108000, Note_on_c, 2, 63, 127
4, 108060, Note_on_c, 2, 63, 0
4, 108060, Note_on_c, 2, 63, 127
4, 108120, Note_on_c, 2, 63, 0
4, 108120, Note_on_c, 2, 63, 127
4, 108180, Note_on_c, 2, 63, 0
4, 108180, Note_on_c, 2, 63, 127
4, 108240, Note_on_c, 2, 63, 0
4, 108240, Note_on_c, 2, 63, 127
4, 108300, Note_on_c, 2, 63, 0
4, 108360, Note_on_c, 2, 62, 127
4, 108420, Note_on_c, 2, 62, 0
4, 108420, Note_on_c, 2, 62, 127
4, 108480, Note_on_c, 2, 62, 0
4, 108480, Note_on_c, 2, 62, 127
4, 108540, Note_on_c, 2, 62, 0
4, 108540, Note_on_c, 2, 62, 127
4, 108600, Note_on_c, 2, 62, 0
4, 108600, Note_on_c, 2, 62, 127
4, 108660, Note_on_c, 2, 62, 0
4, 108720, Note_on_c, 2, 60, 127
4, 108780, Note_on_c, 2, 60, 0
4, 108780, Note_on_c, 2, 60, 127
4, 108840, Note_on_c, 2, 60, 0
4, 108840, Note_on_c, 2, 60, 127
4, 108900, Note_on_c, 2, 60, 0
4, 108900, Note_on_c, 2, 60, 127
4, 108960, Note_on_c, 2, 60, 0
4, 108960, Note_on_c, 2, 60, 127
4, 109020, Note_on_c, 2, 60, 0
4, 109080, Note_on_c, 2, 58, 127
4, 109140, Note_on_c, 2, 58, 0
4, 109140, Note_on_c, 2, 58, 127
4, 109200, Note_on_c, 2, 58, 0
4, 109200, Note_on_c, 2, 58, 127
4, 109260, Note_on_c, 2, 58, 0
4, 109260, Note_on_c, 2, 58, 127
4, 109320, Note_on_c, 2, 58, 0
4, 109320, Note_on_c, 2, 58, 127
4, 109380, Note_on_c, 2, 58, 0
4, 109440, Note_on_c, 2, 56, 127
4, 109500, Note_on_c, 2, 56, 0
4, 109500, Note_on_c, 2, 56, 127
4, 109560, Note_on_c, 2, 56, 0
4, 109560, Note_on_c, 2, 56, 127
4, 109620, Note_on_c, 2, 56, 0
4, 109620, Note_on_c, 2, 56, 127
4, 109680, Note_on_c, 2, 56, 0
4, 109680, Note_on_c, 2, 56, 127
4, 109740, Note_on_c, 2, 56, 0
4, 109800, Note_on_c, 2, 55, 127
4, 109860, Note_on_c, 2, 55, 0
4, 109860, Note_on_c, 2, 55, 127
4, 109920, Note_on_c, 2, 55, 0
4, 109920, Note_on_c, 2, 55, 127
4, 109980, Note_on_c, 2, 55, 0
4, 109980, Note_on_c, 2, 55, 127
4, 110040, Note_on_c, 2, 55, 0
4, 110040, Note_on_c, 2, 56, 127
4, 110070, Note_on_c, 2, 56, 0
4, 110070, Note_on_c, 2, 58, 127
4, 110100, Note_on_c, 2, 58, 0
4, 110100, Note_on_c, 2, 60, 127
4, 110160, Note_on_c, 2, 60, 0
4, 110280, Note_on_c, 2, 70, 127
4, 110309, Note_on_c, 2, 70, 0
4, 110310, Note_on_c, 2, 67, 127
4, 110339, Note_on_c, 2, 67, 0
4, 110340, Note_on_c, 2, 68, 127
4, 110400, Note_on_c, 2, 68, 0
4, 110520, Note_on_c, 2, 67, 127
4, 110549, Note_on_c, 2, 67, 0
4, 110550, Note_on_c, 2, 64, 127
4, 110579, Note_on_c, 2, 64, 0
4, 110580, Note_on_c, 2, 65, 127
4, 110640, Note_on_c, 2, 65, 0
4, 110760, Note_on_c, 2, 67, 127
4, 110789, Note_on_c, 2, 67, 0
4, 110790, Note_on_c, 2, 63, 127
4, 110819, Note_on_c, 2, 63, 0
4, 110820, Note_on_c, 2, 60, 127
4, 110879, Note_on_c, 2, 60, 0
4, 111000, Note_on_c, 2, 72, 127
4, 111029, Note_on_c, 2, 72, 0
4, 111030, Note_on_c, 2, 73, 127
4, 111059, Note_on_c, 2, 73, 0
4, 111060, Note_on_c, 2, 70, 127
4, 111119, Note_on_c, 2, 70, 0
4, 111240, Note_on_c, 2, 64, 127
4, 111269, Note_on_c, 2, 64, 0
4, 111270, Note_on_c, 2, 62, 127
4, 111299, Note_on_c, 2, 62, 0
4, 111300, Note_on_c, 2, 64, 127
4, 111329, Note_on_c, 2, 64, 0
4, 111330, Note_on_c, 2, 60, 127
4, 111359, Note_on_c, 2, 60, 0
4, 111360, Note_on_c, 2, 55, 127
4, 111389, Note_on_c, 2, 55, 0
4, 111390, Note_on_c, 2, 60, 127
4, 111419, Note_on_c, 2, 60, 0
4, 111420, Note_on_c, 2, 64, 127
4, 111479, Note_on_c, 2, 64, 0
4, 112080, Note_on_c, 2, 65, 127
4, 112110, Note_on_c, 2, 65, 0
4, 112110, Note_on_c, 2, 63, 127
4, 112140, Note_on_c, 2, 63, 0
4, 112140, Note_on_c, 2, 65, 127
4, 112199, Note_on_c, 2, 65, 0
4, 112800, Note_on_c, 2, 67, 127
4, 112830, Note_on_c, 2, 67, 0
4, 112830, Note_on_c, 2, 65, 127
4, 112860, Note_on_c, 2, 65, 0
4, 112860, Note_on_c, 2, 67, 127
4, 112920, Note_on_c, 2, 67, 0
4, 112920, Note_on_c, 2, 64, 127
4, 112980, Note_on_c, 2, 64, 0
4, 112980, Note_on_c, 2, 60, 127
4, 113040, Note_on_c, 2, 60, 0
4, 113160, Note_on_c, 2, 65, 127
4, 113220, Note_on_c, 2, 65, 0
4, 113220, Note_on_c, 2, 60, 127
4, 113280, Note_on_c, 2, 60, 0
4, 113400, Note_on_c, 2, 65, 127
4, 113460, Note_on_c, 2, 65, 0
4, 113460, Note_on_c, 2, 60, 127
4, 113520, Note_on_c, 2, 60, 0
4, 113640, Note_on_c, 2, 60, 127
4, 113700, Note_on_c, 2, 60, 0
4, 113700, Note_on_c, 2, 60, 127
4, 113760, Note_on_c, 2, 60, 0
4, 114840, Note_on_c, 2, 56, 127
4, 114870, Note_on_c, 2, 56, 0
4, 114870, Note_on_c, 2, 58, 127
4, 114900, Note_on_c, 2, 58, 0
4, 114900, Note_on_c, 2, 56, 127
4, 114960, Note_on_c, 2, 56, 0
4, 115080, Note_on_c, 2, 60, 127
4, 115110, Note_on_c, 2, 60, 0
4, 115110, Note_on_c, 2, 61, 127
4, 115140, Note_on_c, 2, 61, 0
4, 115140, Note_on_c, 2, 60, 127
4, 115200, Note_on_c, 2, 60, 0
4, 116280, Note_on_c, 2, 65, 127
4, 116340, Note_on_c, 2, 65, 0
4, 116340, Note_on_c, 2, 65, 127
4, 116400, Note_on_c, 2, 65, 0
4, 116520, Note_on_c, 2, 68, 127
4, 116550, Note_on_c, 2, 68, 0
4, 116550, Note_on_c, 2, 70, 127
4, 116580, Note_on_c, 2, 70, 0
4, 116580, Note_on_c, 2, 68, 127
4, 116640, Note_on_c, 2, 68, 0
4, 116700, Note_on_c, 2, 69, 127
4, 116760, Note_on_c, 2, 69, 0
4, 116940, Note_on_c, 2, 65, 127
4, 117000, Note_on_c, 2, 65, 0
4, 117060, Note_on_c, 2, 74, 127
4, 117120, Note_on_c, 2, 74, 0
4, 117300, Note_on_c, 2, 62, 127
4, 117360, Note_on_c, 2, 62, 0
4, 117420, Note_on_c, 2, 67, 127
4, 117480, Note_on_c, 2, 67, 0
4, 117660, Note_on_c, 2, 67, 127
4, 117720, Note_on_c, 2, 67, 0
4, 117780, Note_on_c, 2, 69, 127
4, 117840, Note_on_c, 2, 69, 0
4, 118020, Note_on_c, 2, 67, 127
4, 118080, Note_on_c, 2, 67, 0
4, 118140, Note_on_c, 2, 67, 127
4, 118200, Note_on_c, 2, 67, 0
4, 118380, Note_on_c, 2, 63, 127
4, 118440, Note_on_c, 2, 63, 0
4, 118500, Note_on_c, 2, 68, 127
4, 118560, Note_on_c, 2, 68, 0
4, 118740, Note_on_c, 2, 65, 127
4, 118800, Note_on_c, 2, 65, 0
4, 118860, Note_on_c, 2, 59, 127
4, 118920, Note_on_c, 2, 59, 0
4, 119100, Note_on_c, 2, 67, 127
4, 119160, Note_on_c, 2, 67, 0
4, 119400, Note_on_c, 2, 63, 127
4, 119430, Note_on_c, 2, 63, 0
4, 119430, Note_on_c, 2, 62, 127
4, 119460, Note_on_c, 2, 62, 0
4, 119460, Note_on_c, 2, 64, 127
4, 119520, Note_on_c, 2, 64, 0
4, 120120, Note_on_c, 2, 54, 127
4, 120150, Note_on_c, 2, 54, 0
4, 120150, Note_on_c, 2, 53, 127
4, 120180, Note_on_c, 2, 53, 0
4, 120180, Note_on_c, 2, 51, 127
4, 120240, Note_on_c, 2, 51, 0
4, 120840, Note_on_c, 2, 61, 127
4, 120870, Note_on_c, 2, 61, 0
4, 120870, Note_on_c, 2, 60, 127
4, 120900, Note_on_c, 2, 60, 0
4, 120900, Note_on_c, 2, 62, 127
4, 120960, Note_on_c, 2, 62, 0
4, 121560, Note_on_c, 2, 53, 127
4, 121590, Note_on_c, 2, 53, 0
4, 121590, Note_on_c, 2, 51, 127
4, 121620, Note_on_c, 2, 51, 0
4, 121620, Note_on_c, 2, 49, 127
4, 121680, Note_on_c, 2, 49, 0
4, 122040, Note_on_c, 2, 56, 127
4, 122100, Note_on_c, 2, 56, 0
4, 122100, Note_on_c, 2, 56, 127
4, 122160, Note_on_c, 2, 56, 0
4, 122160, Note_on_c, 2, 56, 127
4, 122220, Note_on_c, 2, 56, 0
4, 122220, Note_on_c, 2, 56, 127
4, 122280, Note_on_c, 2, 56, 0
4, 122280, Note_on_c, 2, 56, 127
4, 122340, Note_on_c, 2, 56, 0
4, 122400, Note_on_c, 2, 55, 127
4, 122460, Note_on_c, 2, 55, 0
4, 122460, Note_on_c, 2, 55, 127
4, 122520, Note_on_c, 2, 55, 0
4, 122520, Note_on_c, 2, 55, 127
4, 122580, Note_on_c, 2, 55, 0
4, 122580, Note_on_c, 2, 55, 127
4, 122640, Note_on_c, 2, 55, 0
4, 122640, Note_on_c, 2, 55, 127
4, 122700, Note_on_c, 2, 55, 0
4, 122700, Note_on_c, 2, 53, 127
4, 122820, Note_on_c, 2, 53, 0
4, 123360, Note_on_c, 2, 63, 127
4, 123390, Note_on_c, 2, 63, 0
4, 123390, Note_on_c, 2, 65, 127
4, 123420, Note_on_c, 2, 65, 0
4, 123420, Note_on_c, 2, 63, 127
4, 123479, Note_on_c, 2, 63, 0
4, 123600, Note_on_c, 2, 65, 127
4, 123629, Note_on_c, 2, 65, 0
4, 123630, Note_on_c, 2, 62, 127
4, 123659, Note_on_c, 2, 62, 0
4, 123660, Note_on_c, 2, 63, 127
4, 123719, Note_on_c, 2, 63, 0
4, 123840, Note_on_c, 2, 62, 127
4, 123869, Note_on_c, 2, 62, 0
4, 123870, Note_on_c, 2, 59, 127
4, 123899, Note_on_c, 2, 59, 0
4, 123900, Note_on_c, 2, 60, 127
4, 123959, Note_on_c, 2, 60, 0
4, 124080, Note_on_c, 2, 62, 127
4, 124109, Note_on_c, 2, 62, 0
4, 124110, Note_on_c, 2, 59, 127
4, 124139, Note_on_c, 2, 59, 0
4, 124140, Note_on_c, 2, 55, 127
4, 124199, Note_on_c, 2, 55, 0
4, 124320, Note_on_c, 2, 67, 127
4, 124349, Note_on_c, 2, 67, 0
4, 124350, Note_on_c, 2, 68, 127
4, 124379, Note_on_c, 2, 68, 0
4, 124380, Note_on_c, 2, 65, 127
4, 124439, Note_on_c, 2, 65, 0
4, 124560, Note_on_c, 2, 71, 127
4, 124589, Note_on_c, 2, 71, 0
4, 124590, Note_on_c, 2, 69, 127
4, 124619, Note_on_c, 2, 69, 0
4, 124620, Note_on_c, 2, 71, 127
4, 124649, Note_on_c, 2, 71, 0
4, 124650, Note_on_c, 2, 67, 127
4, 124679, Note_on_c, 2, 67, 0
4, 124680, Note_on_c, 2, 62, 127
4, 124709, Note_on_c, 2, 62, 0
4, 124710, Note_on_c, 2, 67, 127
4, 124739, Note_on_c, 2, 67, 0
4, 124740, Note_on_c, 2, 59, 127
4, 124799, Note_on_c, 2, 59, 0
4, 125460, Note_on_c, 2, 53, 127
4, 125519, Note_on_c, 2, 53, 0
4, 125640, Note_on_c, 2, 67, 127
4, 125669, Note_on_c, 2, 67, 0
4, 125670, Note_on_c, 2, 65, 127
4, 125699, Note_on_c, 2, 65, 0
4, 125700, Note_on_c, 2, 67, 127
4, 125729, Note_on_c, 2, 67, 0
4, 125730, Note_on_c, 2, 62, 127
4, 125759, Note_on_c, 2, 62, 0
4, 125760, Note_on_c, 2, 59, 127
4, 125789, Note_on_c, 2, 59, 0
4, 125790, Note_on_c, 2, 62, 127
4, 125819, Note_on_c, 2, 62, 0
4, 125820, Note_on_c, 2, 55, 127
4, 125879, Note_on_c, 2, 55, 0
4, 126570, Note_on_c, 2, 62, 127
4, 126599, Note_on_c, 2, 62, 0
4, 126600, Note_on_c, 2, 65, 127
4, 126629, Note_on_c, 2, 65, 0
4, 126630, Note_on_c, 2, 70, 127
4, 126659, Note_on_c, 2, 70, 0
4, 126660, Note_on_c, 2, 70, 127
4, 126720, Note_on_c, 2, 70, 0
4, 126930, Note_on_c, 2, 60, 127
4, 126959, Note_on_c, 2, 60, 0
4, 126960, Note_on_c, 2, 63, 127
4, 126989, Note_on_c, 2, 63, 0
4, 126990, Note_on_c, 2, 68, 127
4, 127019, Note_on_c, 2, 68, 0
4, 127020, Note_on_c, 2, 68, 127
4, 127080, Note_on_c, 2, 68, 0
4, 127290, Note_on_c, 2, 65, 127
4, 127319, Note_on_c, 2, 65, 0
4, 127320, Note_on_c, 2, 63, 127
4, 127349, Note_on_c, 2, 63, 0
4, 127350, Note_on_c, 2, 62, 127
4, 127379, Note_on_c, 2, 62, 0
4, 127380, Note_on_c, 2, 60, 127
4, 127440, Note_on_c, 2, 60, 0
4, 127560, Note_on_c, 2, 65, 127
4, 127589, Note_on_c, 2, 65, 0
4, 127590, Note_on_c, 2, 62, 127
4, 127619, Note_on_c, 2, 62, 0
4, 127620, Note_on_c, 2, 63, 127
4, 127680, Note_on_c, 2, 63, 0
4, 127800, Note_on_c, 2, 62, 127
4, 127829, Note_on_c, 2, 62, 0
4, 127830, Note_on_c, 2, 59, 127
4, 127859, Note_on_c, 2, 59, 0
4, 127860, Note_on_c, 2, 60, 127
4, 127920, Note_on_c, 2, 60, 0
4, 128040, Note_on_c, 2, 62, 127
4, 128069, Note_on_c, 2, 62, 0
4, 128070, Note_on_c, 2, 59, 127
4, 128099, Note_on_c, 2, 59, 0
4, 128100, Note_on_c, 2, 55, 127
4, 128160, Note_on_c, 2, 55, 0
4, 128280, Note_on_c, 2, 67, 127
4, 128309, Note_on_c, 2, 67, 0
4, 128310, Note_on_c, 2, 68, 127
4, 128339, Note_on_c, 2, 68, 0
4, 128340, Note_on_c, 2, 65, 127
4, 128400, Note_on_c, 2, 65, 0
4, 128520, Note_on_c, 2, 71, 127
4, 128549, Note_on_c, 2, 71, 0
4, 128550, Note_on_c, 2, 69, 127
4, 128579, Note_on_c, 2, 69, 0
4, 128580, Note_on_c, 2, 67, 127
4, 128609, Note_on_c, 2, 67, 0
4, 128610, Note_on_c, 2, 65, 127
4, 128639, Note_on_c, 2, 65, 0
4, 128640, Note_on_c, 2, 62, 127
4, 128669, Note_on_c, 2, 62, 0
4, 128670, Note_on_c, 2, 65, 127
4, 128699, Note_on_c, 2, 65, 0
4, 128700, Note_on_c, 2, 59, 127
4, 128759, Note_on_c, 2, 59, 0
4, 129360, Note_on_c, 2, 60, 127
4, 129389, Note_on_c, 2, 60, 0
4, 129390, Note_on_c, 2, 58, 127
4, 129419, Note_on_c, 2, 58, 0
4, 129420, Note_on_c, 2, 60, 127
4, 129479, Note_on_c, 2, 60, 0
4, 130080, Note_on_c, 2, 62, 127
4, 130110, Note_on_c, 2, 62, 0
4, 130110, Note_on_c, 2, 60, 127
4, 130140, Note_on_c, 2, 60, 0
4, 130140, Note_on_c, 2, 62, 127
4, 130199, Note_on_c, 2, 62, 0
4, 130200, Note_on_c, 2, 59, 127
4, 130259, Note_on_c, 2, 59, 0
4, 130260, Note_on_c, 2, 55, 127
4, 130319, Note_on_c, 2, 55, 0
4, 130440, Note_on_c, 2, 72, 127
4, 130469, Note_on_c, 2, 72, 0
4, 130470, Note_on_c, 2, 69, 127
4, 130499, Note_on_c, 2, 69, 0
4, 130500, Note_on_c, 2, 71, 127
4, 130559, Note_on_c, 2, 71, 0
4, 130680, Note_on_c, 2, 72, 127
4, 130739, Note_on_c, 2, 72, 0
4, 130740, Note_on_c, 2, 67, 127
4, 130799, Note_on_c, 2, 67, 0
4, 130920, Note_on_c, 2, 67, 127
4, 130950, Note_on_c, 2, 67, 0
4, 130980, Note_on_c, 2, 67, 127
4, 131010, Note_on_c, 2, 67, 0
4, 131040, Note_on_c, 2, 65, 127
4, 131070, Note_on_c, 2, 65, 0
4, 131160, Note_on_c, 2, 60, 127
4, 131190, Note_on_c, 2, 60, 0
4, 131280, Note_on_c, 2, 62, 127
4, 131310, Note_on_c, 2, 62, 0
4, 131340, Note_on_c, 2, 62, 127
4, 131399, Note_on_c, 2, 62, 0
4, 131700, Note_on_c, 2, 67, 127
4, 131759, Note_on_c, 2, 67, 0
4, 132060, Note_on_c, 2, 67, 127
4, 132119, Note_on_c, 2, 67, 0
4, 132420, Note_on_c, 2, 67, 127
4, 132540, Note_on_c, 2, 67, 0
4, 132600, Note_on_c, 2, 60, 127
4, 132660, Note_on_c, 2, 60, 0
4, 132660, Note_on_c, 2, 60, 127
4, 132720, Note_on_c, 2, 60, 0
4, 132720, Note_on_c, 2, 60, 127
4, 132780, Note_on_c, 2, 60, 0
4, 132780, Note_on_c, 2, 60, 127
4, 132900, Note_on_c, 2, 60, 0
4, 132960, Note_on_c, 2, 60, 127
4, 133020, Note_on_c, 2, 60, 0
4, 133020, Note_on_c, 2, 60, 127
4, 133080, Note_on_c, 2, 60, 0
4, 133080, Note_on_c, 2, 60, 127
4, 133140, Note_on_c, 2, 60, 0
4, 133140, Note_on_c, 2, 60, 127
4, 133260, Note_on_c, 2, 60, 0
4, 133320, Note_on_c, 2, 56, 127
4, 133380, Note_on_c, 2, 56, 0
4, 133380, Note_on_c, 2, 50, 127
4, 133440, Note_on_c, 2, 50, 0
4, 133440, Note_on_c, 2, 55, 127
4, 133500, Note_on_c, 2, 55, 0
4, 133500, Note_on_c, 2, 55, 127
4, 133560, Note_on_c, 2, 55, 0
4, 133560, Note_on_c, 2, 60, 127
4, 133620, Note_on_c, 2, 60, 0
4, 133620, Note_on_c, 2, 63, 127
4, 133680, Note_on_c, 2, 63, 0
4, 133680, Note_on_c, 2, 67, 127
4, 133740, Note_on_c, 2, 67, 0
4, 133740, Note_on_c, 2, 69, 127
4, 133800, Note_on_c, 2, 69, 0
4, 133800, Note_on_c, 2, 62, 127
4, 133860, Note_on_c, 2, 62, 0
4, 133860, Note_on_c, 2, 62, 127
4, 133920, Note_on_c, 2, 62, 0
4, 133920, Note_on_c, 2, 67, 127
4, 133980, Note_on_c, 2, 67, 0
4, 133980, Note_on_c, 2, 60, 127
4, 134040, Note_on_c, 2, 60, 0
4, 134040, Note_on_c, 2, 60, 127
4, 134100, Note_on_c, 2, 60, 0
4, 134100, Note_on_c, 2, 60, 127
4, 134160, Note_on_c, 2, 60, 0
4, 134160, Note_on_c, 2, 55, 127
4, 134220, Note_on_c, 2, 55, 0
4, 134220, Note_on_c, 2, 55, 127
4, 134340, Note_on_c, 2, 55, 0
4, 134370, Note_on_c, 2, 55, 127
4, 134400, Note_on_c, 2, 55, 0
4, 134400, Note_on_c, 2, 56, 127
4, 134430, Note_on_c, 2, 56, 0
4, 134430, Note_on_c, 2, 53, 127
4, 134460, Note_on_c, 2, 53, 0
4, 134460, Note_on_c, 2, 55, 127
4, 134490, Note_on_c, 2, 55, 0
4, 134490, Note_on_c, 2, 51, 127
4, 134520, Note_on_c, 2, 51, 0
4, 134520, Note_on_c, 2, 53, 127
4, 134550, Note_on_c, 2, 53, 0
4, 134550, Note_on_c, 2, 50, 127
4, 134580, Note_on_c, 2, 50, 0
4, 134580, Note_on_c, 2, 51, 127
4, 134700, Note_on_c, 2, 51, 0
4, 134700, End_track
5, 0, Start_track
5, 0, MIDI_port, 0
5, 0, Title_t, "cello"
5, 0, Program_c, 3, 42
5, 0, Control_c, 3, 7, 112
5, 0, Control_c, 3, 10, 80
5, 0, Note_on_c, 3, 48, 100
5, 60, Note_on_c, 3, 48, 0
5, 60, Note_on_c, 3, 60, 100
5, 120, Note_on_c, 3, 60, 0
5, 120, Note_on_c, 3, 58, 100
5, 180, Note_on_c, 3, 58, 0
5, 180, Note_on_c, 3, 56, 100
5, 240, Note_on_c, 3, 56, 0
5, 240, Note_on_c, 3, 55, 100
5, 270, Note_on_c, 3, 55, 0
5, 270, Note_on_c, 3, 53, 100
5, 300, Note_on_c, 3, 53, 0
5, 300, Note_on_c, 3, 55, 100
5, 330, Note_on_c, 3, 55, 0
5, 330, Note_on_c, 3, 56, 100
5, 360, Note_on_c, 3, 56, 0
5, 360, Note_on_c, 3, 55, 100
5, 390, Note_on_c, 3, 55, 0
5, 390, Note_on_c, 3, 53, 100
5, 420, Note_on_c, 3, 53, 0
5, 420, Note_on_c, 3, 51, 100
5, 450, Note_on_c, 3, 51, 0
5, 450, Note_on_c, 3, 50, 100
5, 480, Note_on_c, 3, 50, 0
5, 480, Note_on_c, 3, 48, 100
5, 510, Note_on_c, 3, 48, 0
5, 510, Note_on_c, 3, 46, 100
5, 540, Note_on_c, 3, 46, 0
5, 540, Note_on_c, 3, 48, 100
5, 570, Note_on_c, 3, 48, 0
5, 570, Note_on_c, 3, 49, 100
5, 600, Note_on_c, 3, 49, 0
5, 600, Note_on_c, 3, 48, 100
5, 630, Note_on_c, 3, 48, 0
5, 630, Note_on_c, 3, 46, 100
5, 660, Note_on_c, 3, 46, 0
5, 660, Note_on_c, 3, 45, 100
5, 690, Note_on_c, 3, 45, 0
5, 690, Note_on_c, 3, 43, 100
5, 720, Note_on_c, 3, 43, 0
5, 720, Note_on_c, 3, 41, 100
5, 1260, Note_on_c, 3, 41, 0
5, 1260, Note_on_c, 3, 39, 100
5, 1290, Note_on_c, 3, 39, 0
5, 1290, Note_on_c, 3, 38, 100
5, 1320, Note_on_c, 3, 38, 0
5, 1320, Note_on_c, 3, 39, 100
5, 1380, Note_on_c, 3, 39, 0
5, 1380, Note_on_c, 3, 44, 100
5, 1440, Note_on_c, 3, 44, 0
5, 1440, Note_on_c, 3, 43, 100
5, 1500, Note_on_c, 3, 43, 0
5, 1500, Note_on_c, 3, 41, 100
5, 1560, Note_on_c, 3, 41, 0
5, 1560, Note_on_c, 3, 43, 100
5, 1620, Note_on_c, 3, 43, 0
5, 1620, Note_on_c, 3, 43, 100
5, 1680, Note_on_c, 3, 43, 0
5, 1680, Note_on_c, 3, 36, 100
5, 1740, Note_on_c, 3, 36, 0
5, 1740, Note_on_c, 3, 48, 100
5, 1800, Note_on_c, 3, 48, 0
5, 1800, Note_on_c, 3, 46, 100
5, 1860, Note_on_c, 3, 46, 0
5, 1860, Note_on_c, 3, 45, 100
5, 1920, Note_on_c, 3, 45, 0
5, 1920, Note_on_c, 3, 43, 100
5, 1980, Note_on_c, 3, 43, 0
5, 1980, Note_on_c, 3, 55, 100
5, 2040, Note_on_c, 3, 55, 0
5, 2040, Note_on_c, 3, 53, 100
5, 2100, Note_on_c, 3, 53, 0
5, 2100, Note_on_c, 3, 51, 100
5, 2160, Note_on_c, 3, 51, 0
5, 2160, Note_on_c, 3, 50, 100
5, 2190, Note_on_c, 3, 50, 0
5, 2190, Note_on_c, 3, 48, 100
5, 2220, Note_on_c, 3, 48, 0
5, 2220, Note_on_c, 3, 50, 100
5, 2250, Note_on_c, 3, 50, 0
5, 2250, Note_on_c, 3, 51, 100
5, 2280, Note_on_c, 3, 51, 0
5, 2280, Note_on_c, 3, 50, 100
5, 2310, Note_on_c, 3, 50, 0
5, 2310, Note_on_c, 3, 48, 100
5, 2340, Note_on_c, 3, 48, 0
5, 2340, Note_on_c, 3, 46, 100
5, 2370, Note_on_c, 3, 46, 0
5, 2370, Note_on_c, 3, 45, 100
5, 2400, Note_on_c, 3, 45, 0
5, 2400, Note_on_c, 3, 43, 100
5, 2430, Note_on_c, 3, 43, 0
5, 2430, Note_on_c, 3, 42, 100
5, 2460, Note_on_c, 3, 42, 0
5, 2460, Note_on_c, 3, 43, 100
5, 2490, Note_on_c, 3, 43, 0
5, 2490, Note_on_c, 3, 45, 100
5, 2520, Note_on_c, 3, 45, 0
5, 2520, Note_on_c, 3, 43, 100
5, 2550, Note_on_c, 3, 43, 0
5, 2550, Note_on_c, 3, 41, 100
5, 2580, Note_on_c, 3, 41, 0
5, 2580, Note_on_c, 3, 39, 100
5, 2610, Note_on_c, 3, 39, 0
5, 2610, Note_on_c, 3, 38, 100
5, 2640, Note_on_c, 3, 38, 0
5, 2640, Note_on_c, 3, 36, 100
5, 2670, Note_on_c, 3, 36, 0
5, 2670, Note_on_c, 3, 47, 100
5, 2700, Note_on_c, 3, 47, 0
5, 2700, Note_on_c, 3, 48, 100
5, 2730, Note_on_c, 3, 48, 0
5, 2730, Note_on_c, 3, 50, 100
5, 2760, Note_on_c, 3, 50, 0
5, 2760, Note_on_c, 3, 48, 100
5, 2790, Note_on_c, 3, 48, 0
5, 2790, Note_on_c, 3, 46, 100
5, 2820, Note_on_c, 3, 46, 0
5, 2820, Note_on_c, 3, 45, 100
5, 2850, Note_on_c, 3, 45, 0
5, 2850, Note_on_c, 3, 43, 100
5, 2880, Note_on_c, 3, 43, 0
5, 2880, Note_on_c, 3, 42, 100
5, 3000, Note_on_c, 3, 42, 0
5, 3060, Note_on_c, 3, 48, 100
5, 3180, Note_on_c, 3, 48, 0
5, 3180, Note_on_c, 3, 46, 100
5, 3210, Note_on_c, 3, 46, 0
5, 3210, Note_on_c, 3, 45, 100
5, 3240, Note_on_c, 3, 45, 0
5, 3240, Note_on_c, 3, 46, 100
5, 3300, Note_on_c, 3, 46, 0
5, 3300, Note_on_c, 3, 51, 100
5, 3360, Note_on_c, 3, 51, 0
5, 3360, Note_on_c, 3, 50, 100
5, 3420, Note_on_c, 3, 50, 0
5, 3420, Note_on_c, 3, 48, 100
5, 3480, Note_on_c, 3, 48, 0
5, 3480, Note_on_c, 3, 50, 100
5, 3540, Note_on_c, 3, 50, 0
5, 3540, Note_on_c, 3, 38, 100
5, 3600, Note_on_c, 3, 38, 0
5, 3600, Note_on_c, 3, 43, 100
5, 3720, Note_on_c, 3, 43, 0
5, 4320, Note_on_c, 3, 48, 100
5, 4350, Note_on_c, 3, 48, 0
5, 4350, Note_on_c, 3, 50, 100
5, 4380, Note_on_c, 3, 50, 0
5, 4380, Note_on_c, 3, 51, 100
5, 4410, Note_on_c, 3, 51, 0
5, 4410, Note_on_c, 3, 53, 100
5, 4440, Note_on_c, 3, 53, 0
5, 4440, Note_on_c, 3, 55, 100
5, 4500, Note_on_c, 3, 55, 0
5, 4500, Note_on_c, 3, 60, 100
5, 4560, Note_on_c, 3, 60, 0
5, 4560, Note_on_c, 3, 59, 100
5, 4620, Note_on_c, 3, 59, 0
5, 4620, Note_on_c, 3, 55, 100
5, 4680, Note_on_c, 3, 55, 0
5, 4680, Note_on_c, 3, 50, 100
5, 4740, Note_on_c, 3, 50, 0
5, 4740, Note_on_c, 3, 53, 100
5, 4800, Note_on_c, 3, 53, 0
5, 4800, Note_on_c, 3, 52, 100
5, 4860, Note_on_c, 3, 52, 0
5, 4860, Note_on_c, 3, 48, 100
5, 4920, Note_on_c, 3, 48, 0
5, 4920, Note_on_c, 3, 58, 100
5, 5100, Note_on_c, 3, 58, 0
5, 5100, Note_on_c, 3, 57, 100
5, 5130, Note_on_c, 3, 57, 0
5, 5130, Note_on_c, 3, 55, 100
5, 5160, Note_on_c, 3, 55, 0
5, 5160, Note_on_c, 3, 57, 100
5, 5220, Note_on_c, 3, 57, 0
5, 5220, Note_on_c, 3, 53, 100
5, 5280, Note_on_c, 3, 53, 0
5, 5280, Note_on_c, 3, 50, 100
5, 5340, Note_on_c, 3, 50, 0
5, 5340, Note_on_c, 3, 53, 100
5, 5400, Note_on_c, 3, 53, 0
5, 5400, Note_on_c, 3, 56, 100
5, 5460, Note_on_c, 3, 56, 0
5, 5460, Note_on_c, 3, 48, 100
5, 5520, Note_on_c, 3, 48, 0
5, 5520, Note_on_c, 3, 47, 100
5, 5580, Note_on_c, 3, 47, 0
5, 5580, Note_on_c, 3, 55, 100
5, 5640, Note_on_c, 3, 55, 0
5, 5640, Note_on_c, 3, 48, 100
5, 5700, Note_on_c, 3, 48, 0
5, 5700, Note_on_c, 3, 53, 100
5, 5760, Note_on_c, 3, 53, 0
5, 5760, Note_on_c, 3, 51, 100
5, 5880, Note_on_c, 3, 51, 0
5, 5880, Note_on_c, 3, 50, 100
5, 6000, Note_on_c, 3, 50, 0
5, 6000, Note_on_c, 3, 48, 100
5, 6030, Note_on_c, 3, 48, 0
5, 6030, Note_on_c, 3, 47, 100
5, 6060, Note_on_c, 3, 47, 0
5, 6060, Note_on_c, 3, 48, 100
5, 6090, Note_on_c, 3, 48, 0
5, 6090, Note_on_c, 3, 50, 100
5, 6120, Note_on_c, 3, 50, 0
5, 6120, Note_on_c, 3, 51, 100
5, 6150, Note_on_c, 3, 51, 0
5, 6150, Note_on_c, 3, 53, 100
5, 6180, Note_on_c, 3, 53, 0
5, 6180, Note_on_c, 3, 55, 100
5, 6210, Note_on_c, 3, 55, 0
5, 6210, Note_on_c, 3, 57, 100
5, 6240, Note_on_c, 3, 57, 0
5, 6240, Note_on_c, 3, 59, 100
5, 6270, Note_on_c, 3, 59, 0
5, 6270, Note_on_c, 3, 57, 100
5, 6300, Note_on_c, 3, 57, 0
5, 6300, Note_on_c, 3, 55, 100
5, 6330, Note_on_c, 3, 55, 0
5, 6330, Note_on_c, 3, 57, 100
5, 6360, Note_on_c, 3, 57, 0
5, 6360, Note_on_c, 3, 59, 100
5, 6390, Note_on_c, 3, 59, 0
5, 6390, Note_on_c, 3, 55, 100
5, 6420, Note_on_c, 3, 55, 0
5, 6420, Note_on_c, 3, 57, 100
5, 6450, Note_on_c, 3, 57, 0
5, 6450, Note_on_c, 3, 59, 100
5, 6480, Note_on_c, 3, 59, 0
5, 6480, Note_on_c, 3, 60, 100
5, 6540, Note_on_c, 3, 60, 0
5, 6540, Note_on_c, 3, 48, 100
5, 6600, Note_on_c, 3, 48, 0
5, 6600, Note_on_c, 3, 60, 100
5, 6750, Note_on_c, 3, 60, 0
5, 6750, Note_on_c, 3, 58, 100
5, 6780, Note_on_c, 3, 58, 0
5, 6780, Note_on_c, 3, 57, 100
5, 6810, Note_on_c, 3, 57, 0
5, 6810, Note_on_c, 3, 55, 100
5, 6840, Note_on_c, 3, 55, 0
5, 6840, Note_on_c, 3, 57, 100
5, 6870, Note_on_c, 3, 57, 0
5, 6870, Note_on_c, 3, 53, 100
5, 6900, Note_on_c, 3, 53, 0
5, 6900, Note_on_c, 3, 55, 100
5, 6930, Note_on_c, 3, 55, 0
5, 6930, Note_on_c, 3, 57, 100
5, 6960, Note_on_c, 3, 57, 0
5, 6960, Note_on_c, 3, 58, 100
5, 7020, Note_on_c, 3, 58, 0
5, 7020, Note_on_c, 3, 46, 100
5, 7080, Note_on_c, 3, 46, 0
5, 7080, Note_on_c, 3, 58, 100
5, 7230, Note_on_c, 3, 58, 0
5, 7230, Note_on_c, 3, 56, 100
5, 7260, Note_on_c, 3, 56, 0
5, 7260, Note_on_c, 3, 55, 100
5, 7290, Note_on_c, 3, 55, 0
5, 7290, Note_on_c, 3, 56, 100
5, 7320, Note_on_c, 3, 56, 0
5, 7320, Note_on_c, 3, 58, 100
5, 7350, Note_on_c, 3, 58, 0
5, 7350, Note_on_c, 3, 60, 100
5, 7380, Note_on_c, 3, 60, 0
5, 7380, Note_on_c, 3, 61, 100
5, 7410, Note_on_c, 3, 61, 0
5, 7410, Note_on_c, 3, 58, 100
5, 7440, Note_on_c, 3, 58, 0
5, 7440, Note_on_c, 3, 60, 100
5, 7470, Note_on_c, 3, 60, 0
5, 7470, Note_on_c, 3, 61, 100
5, 7500, Note_on_c, 3, 61, 0
5, 7500, Note_on_c, 3, 60, 100
5, 7530, Note_on_c, 3, 60, 0
5, 7530, Note_on_c, 3, 58, 100
5, 7560, Note_on_c, 3, 58, 0
5, 7560, Note_on_c, 3, 56, 100
5, 7590, Note_on_c, 3, 56, 0
5, 7590, Note_on_c, 3, 55, 100
5, 7620, Note_on_c, 3, 55, 0
5, 7620, Note_on_c, 3, 53, 100
5, 7650, Note_on_c, 3, 53, 0
5, 7650, Note_on_c, 3, 52, 100
5, 7680, Note_on_c, 3, 52, 0
5, 7680, Note_on_c, 3, 53, 100
5, 7710, Note_on_c, 3, 53, 0
5, 7710, Note_on_c, 3, 51, 100
5, 7740, Note_on_c, 3, 51, 0
5, 7740, Note_on_c, 3, 50, 100
5, 7770, Note_on_c, 3, 50, 0
5, 7770, Note_on_c, 3, 48, 100
5, 7800, Note_on_c, 3, 48, 0
5, 7800, Note_on_c, 3, 47, 100
5, 7830, Note_on_c, 3, 47, 0
5, 7830, Note_on_c, 3, 43, 100
5, 7860, Note_on_c, 3, 43, 0
5, 7860, Note_on_c, 3, 48, 100
5, 7890, Note_on_c, 3, 48, 0
5, 7890, Note_on_c, 3, 46, 100
5, 7920, Note_on_c, 3, 46, 0
5, 7920, Note_on_c, 3, 44, 100
5, 7950, Note_on_c, 3, 44, 0
5, 7950, Note_on_c, 3, 48, 100
5, 7980, Note_on_c, 3, 48, 0
5, 7980, Note_on_c, 3, 47, 100
5, 8010, Note_on_c, 3, 47, 0
5, 8010, Note_on_c, 3, 48, 100
5, 8040, Note_on_c, 3, 48, 0
5, 8040, Note_on_c, 3, 50, 100
5, 8070, Note_on_c, 3, 50, 0
5, 8070, Note_on_c, 3, 51, 100
5, 8100, Note_on_c, 3, 51, 0
5, 8100, Note_on_c, 3, 53, 100
5, 8130, Note_on_c, 3, 53, 0
5, 8130, Note_on_c, 3, 50, 100
5, 8160, Note_on_c, 3, 50, 0
5, 8160, Note_on_c, 3, 51, 100
5, 8190, Note_on_c, 3, 51, 0
5, 8190, Note_on_c, 3, 50, 100
5, 8220, Note_on_c, 3, 50, 0
5, 8220, Note_on_c, 3, 48, 100
5, 8250, Note_on_c, 3, 48, 0
5, 8250, Note_on_c, 3, 50, 100
5, 8280, Note_on_c, 3, 50, 0
5, 8280, Note_on_c, 3, 51, 100
5, 8310, Note_on_c, 3, 51, 0
5, 8310, Note_on_c, 3, 50, 100
5, 8340, Note_on_c, 3, 50, 0
5, 8340, Note_on_c, 3, 51, 100
5, 8370, Note_on_c, 3, 51, 0
5, 8370, Note_on_c, 3, 53, 100
5, 8400, Note_on_c, 3, 53, 0
5, 8400, Note_on_c, 3, 55, 100
5, 8460, Note_on_c, 3, 55, 0
5, 8460, Note_on_c, 3, 43, 100
5, 8520, Note_on_c, 3, 43, 0
5, 8520, Note_on_c, 3, 55, 100
5, 8670, Note_on_c, 3, 55, 0
5, 8670, Note_on_c, 3, 53, 100
5, 8700, Note_on_c, 3, 53, 0
5, 8700, Note_on_c, 3, 52, 100
5, 8730, Note_on_c, 3, 52, 0
5, 8730, Note_on_c, 3, 50, 100
5, 8760, Note_on_c, 3, 50, 0
5, 8760, Note_on_c, 3, 52, 100
5, 8790, Note_on_c, 3, 52, 0
5, 8790, Note_on_c, 3, 48, 100
5, 8820, Note_on_c, 3, 48, 0
5, 8820, Note_on_c, 3, 50, 100
5, 8850, Note_on_c, 3, 50, 0
5, 8850, Note_on_c, 3, 52, 100
5, 8880, Note_on_c, 3, 52, 0
5, 8880, Note_on_c, 3, 53, 100
5, 8940, Note_on_c, 3, 53, 0
5, 8940, Note_on_c, 3, 41, 100
5, 9000, Note_on_c, 3, 41, 0
5, 9000, Note_on_c, 3, 53, 100
5, 9150, Note_on_c, 3, 53, 0
5, 9150, Note_on_c, 3, 51, 100
5, 9179, Note_on_c, 3, 51, 0
5, 9180, Note_on_c, 3, 50, 100
5, 9209, Note_on_c, 3, 50, 0
5, 9210, Note_on_c, 3, 51, 100
5, 9239, Note_on_c, 3, 51, 0
5, 9240, Note_on_c, 3, 53, 100
5, 9269, Note_on_c, 3, 53, 0
5, 9270, Note_on_c, 3, 55, 100
5, 9299, Note_on_c, 3, 55, 0
5, 9300, Note_on_c, 3, 56, 100
5, 9329, Note_on_c, 3, 56, 0
5, 9330, Note_on_c, 3, 53, 100
5, 9359, Note_on_c, 3, 53, 0
5, 9360, Note_on_c, 3, 55, 100
5, 9389, Note_on_c, 3, 55, 0
5, 9390, Note_on_c, 3, 56, 100
5, 9419, Note_on_c, 3, 56, 0
5, 9420, Note_on_c, 3, 55, 100
5, 9449, Note_on_c, 3, 55, 0
5, 9450, Note_on_c, 3, 53, 100
5, 9479, Note_on_c, 3, 53, 0
5, 9480, Note_on_c, 3, 51, 100
5, 9509, Note_on_c, 3, 51, 0
5, 9510, Note_on_c, 3, 50, 100
5, 9539, Note_on_c, 3, 50, 0
5, 9540, Note_on_c, 3, 48, 100
5, 9569, Note_on_c, 3, 48, 0
5, 9570, Note_on_c, 3, 47, 100
5, 9599, Note_on_c, 3, 47, 0
5, 9600, Note_on_c, 3, 48, 100
5, 9660, Note_on_c, 3, 48, 0
5, 9660, Note_on_c, 3, 44, 100
5, 9720, Note_on_c, 3, 44, 0
5, 9720, Note_on_c, 3, 41, 100
5, 9780, Note_on_c, 3, 41, 0
5, 9780, Note_on_c, 3, 43, 100
5, 9840, Note_on_c, 3, 43, 0
5, 9840, Note_on_c, 3, 36, 100
5, 9959, Note_on_c, 3, 36, 0
5, 10080, Note_on_c, 3, 48, 100
5, 10140, Note_on_c, 3, 48, 0
5, 10200, Note_on_c, 3, 43, 100
5, 10260, Note_on_c, 3, 43, 0
5, 10320, Note_on_c, 3, 36, 100
5, 10380, Note_on_c, 3, 36, 0
5, 10560, Note_on_c, 3, 53, 100
5, 10620, Note_on_c, 3, 53, 0
5, 10680, Note_on_c, 3, 48, 100
5, 10740, Note_on_c, 3, 48, 0
5, 10800, Note_on_c, 3, 41, 100
5, 10860, Note_on_c, 3, 41, 0
5, 11040, Note_on_c, 3, 58, 100
5, 11100, Note_on_c, 3, 58, 0
5, 11160, Note_on_c, 3, 51, 100
5, 11220, Note_on_c, 3, 51, 0
5, 11280, Note_on_c, 3, 56, 100
5, 11340, Note_on_c, 3, 56, 0
5, 11400, Note_on_c, 3, 50, 100
5, 11460, Note_on_c, 3, 50, 0
5, 11520, Note_on_c, 3, 55, 100
5, 11580, Note_on_c, 3, 55, 0
5, 11640, Note_on_c, 3, 48, 100
5, 11700, Note_on_c, 3, 48, 0
5, 11760, Note_on_c, 3, 55, 100
5, 11820, Note_on_c, 3, 55, 0
5, 11820, Note_on_c, 3, 50, 100
5, 11880, Note_on_c, 3, 50, 0
5, 11880, Note_on_c, 3, 47, 100
5, 11940, Note_on_c, 3, 47, 0
5, 11940, Note_on_c, 3, 43, 100
5, 12000, Note_on_c, 3, 43, 0
5, 12000, Note_on_c, 3, 48, 100
5, 12060, Note_on_c, 3, 48, 0
5, 12120, Note_on_c, 3, 43, 100
5, 12180, Note_on_c, 3, 43, 0
5, 12240, Note_on_c, 3, 36, 100
5, 12300, Note_on_c, 3, 36, 0
5, 12480, Note_on_c, 3, 53, 100
5, 12540, Note_on_c, 3, 53, 0
5, 12600, Note_on_c, 3, 48, 100
5, 12660, Note_on_c, 3, 48, 0
5, 12720, Note_on_c, 3, 41, 100
5, 12780, Note_on_c, 3, 41, 0
5, 12960, Note_on_c, 3, 58, 100
5, 13020, Note_on_c, 3, 58, 0
5, 13080, Note_on_c, 3, 51, 100
5, 13140, Note_on_c, 3, 51, 0
5, 13200, Note_on_c, 3, 56, 100
5, 13260, Note_on_c, 3, 56, 0
5, 13320, Note_on_c, 3, 50, 100
5, 13380, Note_on_c, 3, 50, 0
5, 13440, Note_on_c, 3, 55, 100
5, 13500, Note_on_c, 3, 55, 0
5, 13560, Note_on_c, 3, 48, 100
5, 13620, Note_on_c, 3, 48, 0
5, 13680, Note_on_c, 3, 55, 100
5, 13740, Note_on_c, 3, 55, 0
5, 13740, Note_on_c, 3, 50, 100
5, 13800, Note_on_c, 3, 50, 0
5, 13800, Note_on_c, 3, 47, 100
5, 13860, Note_on_c, 3, 47, 0
5, 13860, Note_on_c, 3, 43, 100
5, 13920, Note_on_c, 3, 43, 0
5, 13920, Note_on_c, 3, 48, 100
5, 13980, Note_on_c, 3, 48, 0
5, 14160, Note_on_c, 3, 53, 100
5, 14220, Note_on_c, 3, 53, 0
5, 14220, Note_on_c, 3, 48, 100
5, 14280, Note_on_c, 3, 48, 0
5, 14280, Note_on_c, 3, 45, 100
5, 14340, Note_on_c, 3, 45, 0
5, 14340, Note_on_c, 3, 41, 100
5, 14400, Note_on_c, 3, 41, 0
5, 14400, Note_on_c, 3, 46, 100
5, 14460, Note_on_c, 3, 46, 0
5, 14640, Note_on_c, 3, 51, 100
5, 14700, Note_on_c, 3, 51, 0
5, 14700, Note_on_c, 3, 46, 100
5, 14760, Note_on_c, 3, 46, 0
5, 14760, Note_on_c, 3, 43, 100
5, 14820, Note_on_c, 3, 43, 0
5, 14820, Note_on_c, 3, 39, 100
5, 14880, Note_on_c, 3, 39, 0
5, 14880, Note_on_c, 3, 44, 100
5, 14940, Note_on_c, 3, 44, 0
5, 15000, Note_on_c, 3, 45, 100
5, 15060, Note_on_c, 3, 45, 0
5, 15120, Note_on_c, 3, 46, 100
5, 15180, Note_on_c, 3, 46, 0
5, 15240, Note_on_c, 3, 47, 100
5, 15300, Note_on_c, 3, 47, 0
5, 15360, Note_on_c, 3, 48, 100
5, 15420, Note_on_c, 3, 48, 0
5, 15480, Note_on_c, 3, 44, 100
5, 15540, Note_on_c, 3, 44, 0
5, 15600, Note_on_c, 3, 50, 100
5, 15660, Note_on_c, 3, 50, 0
5, 15720, Note_on_c, 3, 46, 100
5, 15780, Note_on_c, 3, 46, 0
5, 15840, Note_on_c, 3, 51, 100
5, 15900, Note_on_c, 3, 51, 0
5, 16020, Note_on_c, 3, 48, 100
5, 16080, Note_on_c, 3, 48, 0
5, 16080, Note_on_c, 3, 45, 100
5, 16140, Note_on_c, 3, 45, 0
5, 16140, Note_on_c, 3, 57, 100
5, 16170, Note_on_c, 3, 57, 0
5, 16170, Note_on_c, 3, 58, 100
5, 16200, Note_on_c, 3, 58, 0
5, 16200, Note_on_c, 3, 60, 100
5, 16260, Note_on_c, 3, 60, 0
5, 16260, Note_on_c, 3, 57, 100
5, 16320, Note_on_c, 3, 57, 0
5, 16320, Note_on_c, 3, 50, 100
5, 16380, Note_on_c, 3, 50, 0
5, 16500, Note_on_c, 3, 47, 100
5, 16560, Note_on_c, 3, 47, 0
5, 16560, Note_on_c, 3, 43, 100
5, 16620, Note_on_c, 3, 43, 0
5, 16620, Note_on_c, 3, 55, 100
5, 16650, Note_on_c, 3, 55, 0
5, 16650, Note_on_c, 3, 57, 100
5, 16680, Note_on_c, 3, 57, 0
5, 16680, Note_on_c, 3, 59, 100
5, 16740, Note_on_c, 3, 59, 0
5, 16740, Note_on_c, 3, 55, 100
5, 16800, Note_on_c, 3, 55, 0
5, 16800, Note_on_c, 3, 48, 100
5, 16860, Note_on_c, 3, 48, 0
5, 16980, Note_on_c, 3, 60, 100
5, 17040, Note_on_c, 3, 60, 0
5, 17040, Note_on_c, 3, 58, 100
5, 17100, Note_on_c, 3, 58, 0
5, 17220, Note_on_c, 3, 46, 100
5, 17280, Note_on_c, 3, 46, 0
5, 17280, Note_on_c, 3, 51, 100
5, 17340, Note_on_c, 3, 51, 0
5, 17460, Note_on_c, 3, 39, 100
5, 17520, Note_on_c, 3, 39, 0
5, 17520, Note_on_c, 3, 38, 100
5, 17580, Note_on_c, 3, 38, 0
5, 17760, Note_on_c, 3, 43, 100
5, 17820, Note_on_c, 3, 43, 0
5, 17880, Note_on_c, 3, 50, 100
5, 17940, Note_on_c, 3, 50, 0
5, 18000, Note_on_c, 3, 55, 100
5, 18060, Note_on_c, 3, 55, 0
5, 18240, Note_on_c, 3, 48, 100
5, 18300, Note_on_c, 3, 48, 0
5, 18360, Note_on_c, 3, 55, 100
5, 18420, Note_on_c, 3, 55, 0
5, 18480, Note_on_c, 3, 60, 100
5, 18540, Note_on_c, 3, 60, 0
5, 18720, Note_on_c, 3, 53, 100
5, 18780, Note_on_c, 3, 53, 0
5, 18840, Note_on_c, 3, 46, 100
5, 18900, Note_on_c, 3, 46, 0
5, 18960, Note_on_c, 3, 51, 100
5, 19020, Note_on_c, 3, 51, 0
5, 19080, Note_on_c, 3, 45, 100
5, 19140, Note_on_c, 3, 45, 0
5, 19200, Note_on_c, 3, 50, 100
5, 19260, Note_on_c, 3, 50, 0
5, 19320, Note_on_c, 3, 43, 100
5, 19380, Note_on_c, 3, 43, 0
5, 19440, Note_on_c, 3, 50, 100
5, 19500, Note_on_c, 3, 50, 0
5, 19500, Note_on_c, 3, 45, 100
5, 19560, Note_on_c, 3, 45, 0
5, 19560, Note_on_c, 3, 42, 100
5, 19620, Note_on_c, 3, 42, 0
5, 19620, Note_on_c, 3, 38, 100
5, 19680, Note_on_c, 3, 38, 0
5, 19680, Note_on_c, 3, 43, 100
5, 19740, Note_on_c, 3, 43, 0
5, 19800, Note_on_c, 3, 50, 100
5, 19860, Note_on_c, 3, 50, 0
5, 19920, Note_on_c, 3, 55, 100
5, 19980, Note_on_c, 3, 55, 0
5, 20160, Note_on_c, 3, 48, 100
5, 20220, Note_on_c, 3, 48, 0
5, 20280, Note_on_c, 3, 55, 100
5, 20340, Note_on_c, 3, 55, 0
5, 20400, Note_on_c, 3, 60, 100
5, 20460, Note_on_c, 3, 60, 0
5, 20640, Note_on_c, 3, 53, 100
5, 20700, Note_on_c, 3, 53, 0
5, 20760, Note_on_c, 3, 46, 100
5, 20820, Note_on_c, 3, 46, 0
5, 20880, Note_on_c, 3, 51, 100
5, 20940, Note_on_c, 3, 51, 0
5, 21000, Note_on_c, 3, 45, 100
5, 21060, Note_on_c, 3, 45, 0
5, 21120, Note_on_c, 3, 50, 100
5, 21180, Note_on_c, 3, 50, 0
5, 21240, Note_on_c, 3, 43, 100
5, 21300, Note_on_c, 3, 43, 0
5, 21360, Note_on_c, 3, 50, 100
5, 21420, Note_on_c, 3, 50, 0
5, 21420, Note_on_c, 3, 38, 100
5, 21480, Note_on_c, 3, 38, 0
5, 21480, Note_on_c, 3, 42, 100
5, 21540, Note_on_c, 3, 42, 0
5, 21540, Note_on_c, 3, 38, 100
5, 21600, Note_on_c, 3, 38, 0
5, 21600, Note_on_c, 3, 43, 100
5, 21660, Note_on_c, 3, 43, 0
5, 21660, Note_on_c, 3, 55, 100
5, 21720, Note_on_c, 3, 55, 0
5, 21720, Note_on_c, 3, 53, 100
5, 21780, Note_on_c, 3, 53, 0
5, 21780, Note_on_c, 3, 51, 100
5, 21840, Note_on_c, 3, 51, 0
5, 21840, Note_on_c, 3, 50, 100
5, 21870, Note_on_c, 3, 50, 0
5, 21870, Note_on_c, 3, 48, 100
5, 21900, Note_on_c, 3, 48, 0
5, 21900, Note_on_c, 3, 50, 100
5, 21930, Note_on_c, 3, 50, 0
5, 21930, Note_on_c, 3, 51, 100
5, 21960, Note_on_c, 3, 51, 0
5, 21960, Note_on_c, 3, 50, 100
5, 21990, Note_on_c, 3, 50, 0
5, 21990, Note_on_c, 3, 48, 100
5, 22020, Note_on_c, 3, 48, 0
5, 22020, Note_on_c, 3, 46, 100
5, 22050, Note_on_c, 3, 46, 0
5, 22050, Note_on_c, 3, 45, 100
5, 22080, Note_on_c, 3, 45, 0
5, 22080, Note_on_c, 3, 43, 100
5, 22110, Note_on_c, 3, 43, 0
5, 22110, Note_on_c, 3, 42, 100
5, 22140, Note_on_c, 3, 42, 0
5, 22140, Note_on_c, 3, 43, 100
5, 22170, Note_on_c, 3, 43, 0
5, 22170, Note_on_c, 3, 45, 100
5, 22200, Note_on_c, 3, 45, 0
5, 22200, Note_on_c, 3, 43, 100
5, 22230, Note_on_c, 3, 43, 0
5, 22230, Note_on_c, 3, 41, 100
5, 22260, Note_on_c, 3, 41, 0
5, 22260, Note_on_c, 3, 39, 100
5, 22290, Note_on_c, 3, 39, 0
5, 22290, Note_on_c, 3, 38, 100
5, 22320, Note_on_c, 3, 38, 0
5, 22320, Note_on_c, 3, 36, 100
5, 22350, Note_on_c, 3, 36, 0
5, 22350, Note_on_c, 3, 47, 100
5, 22380, Note_on_c, 3, 47, 0
5, 22380, Note_on_c, 3, 48, 100
5, 22410, Note_on_c, 3, 48, 0
5, 22410, Note_on_c, 3, 50, 100
5, 22440, Note_on_c, 3, 50, 0
5, 22440, Note_on_c, 3, 48, 100
5, 22470, Note_on_c, 3, 48, 0
5, 22470, Note_on_c, 3, 46, 100
5, 22500, Note_on_c, 3, 46, 0
5, 22500, Note_on_c, 3, 45, 100
5, 22530, Note_on_c, 3, 45, 0
5, 22530, Note_on_c, 3, 43, 100
5, 22560, Note_on_c, 3, 43, 0
5, 22560, Note_on_c, 3, 42, 100
5, 22680, Note_on_c, 3, 42, 0
5, 22740, Note_on_c, 3, 48, 100
5, 22860, Note_on_c, 3, 48, 0
5, 22860, Note_on_c, 3, 46, 100
5, 22890, Note_on_c, 3, 46, 0
5, 22890, Note_on_c, 3, 45, 100
5, 22920, Note_on_c, 3, 45, 0
5, 22920, Note_on_c, 3, 46, 100
5, 22980, Note_on_c, 3, 46, 0
5, 22980, Note_on_c, 3, 51, 100
5, 23040, Note_on_c, 3, 51, 0
5, 23040, Note_on_c, 3, 50, 100
5, 23100, Note_on_c, 3, 50, 0
5, 23100, Note_on_c, 3, 48, 100
5, 23160, Note_on_c, 3, 48, 0
5, 23160, Note_on_c, 3, 50, 100
5, 23220, Note_on_c, 3, 50, 0
5, 23220, Note_on_c, 3, 38, 100
5, 23280, Note_on_c, 3, 38, 0
5, 23280, Note_on_c, 3, 43, 100
5, 23340, Note_on_c, 3, 43, 0
5, 23340, Note_on_c, 3, 55, 100
5, 23400, Note_on_c, 3, 55, 0
5, 23400, Note_on_c, 3, 54, 100
5, 23460, Note_on_c, 3, 54, 0
5, 23460, Note_on_c, 3, 50, 100
5, 23520, Note_on_c, 3, 50, 0
5, 23520, Note_on_c, 3, 55, 100
5, 23580, Note_on_c, 3, 55, 0
5, 24060, Note_on_c, 3, 55, 100
5, 24120, Note_on_c, 3, 55, 0
5, 24120, Note_on_c, 3, 54, 100
5, 24180, Note_on_c, 3, 54, 0
5, 24180, Note_on_c, 3, 50, 100
5, 24240, Note_on_c, 3, 50, 0
5, 24240, Note_on_c, 3, 55, 100
5, 24300, Note_on_c, 3, 55, 0
5, 24300, Note_on_c, 3, 43, 100
5, 24330, Note_on_c, 3, 43, 0
5, 24330, Note_on_c, 3, 45, 100
5, 24360, Note_on_c, 3, 45, 0
5, 24360, Note_on_c, 3, 46, 100
5, 24420, Note_on_c, 3, 46, 0
5, 24420, Note_on_c, 3, 43, 100
5, 24480, Note_on_c, 3, 43, 0
5, 24480, Note_on_c, 3, 48, 100
5, 24540, Note_on_c, 3, 48, 0
5, 25020, Note_on_c, 3, 60, 100
5, 25079, Note_on_c, 3, 60, 0
5, 25080, Note_on_c, 3, 59, 100
5, 25139, Note_on_c, 3, 59, 0
5, 25140, Note_on_c, 3, 55, 100
5, 25199, Note_on_c, 3, 55, 0
5, 25200, Note_on_c, 3, 60, 100
5, 25259, Note_on_c, 3, 60, 0
5, 25260, Note_on_c, 3, 48, 100
5, 25289, Note_on_c, 3, 48, 0
5, 25290, Note_on_c, 3, 50, 100
5, 25319, Note_on_c, 3, 50, 0
5, 25320, Note_on_c, 3, 51, 100
5, 25379, Note_on_c, 3, 51, 0
5, 25380, Note_on_c, 3, 48, 100
5, 25439, Note_on_c, 3, 48, 0
5, 25440, Note_on_c, 3, 55, 100
5, 25559, Note_on_c, 3, 55, 0
5, 25920, Note_on_c, 3, 41, 100
5, 25949, Note_on_c, 3, 41, 0
5, 25950, Note_on_c, 3, 43, 100
5, 25979, Note_on_c, 3, 43, 0
5, 25980, Note_on_c, 3, 44, 100
5, 26009, Note_on_c, 3, 44, 0
5, 26010, Note_on_c, 3, 46, 100
5, 26039, Note_on_c, 3, 46, 0
5, 26040, Note_on_c, 3, 48, 100
5, 26099, Note_on_c, 3, 48, 0
5, 26100, Note_on_c, 3, 53, 100
5, 26159, Note_on_c, 3, 53, 0
5, 26160, Note_on_c, 3, 52, 100
5, 26219, Note_on_c, 3, 52, 0
5, 26220, Note_on_c, 3, 48, 100
5, 26279, Note_on_c, 3, 48, 0
5, 26280, Note_on_c, 3, 43, 100
5, 26339, Note_on_c, 3, 43, 0
5, 26340, Note_on_c, 3, 46, 100
5, 26399, Note_on_c, 3, 46, 0
5, 26400, Note_on_c, 3, 45, 100
5, 26459, Note_on_c, 3, 45, 0
5, 26460, Note_on_c, 3, 41, 100
5, 26519, Note_on_c, 3, 41, 0
5, 26520, Note_on_c, 3, 51, 100
5, 26699, Note_on_c, 3, 51, 0
5, 26700, Note_on_c, 3, 50, 100
5, 26729, Note_on_c, 3, 50, 0
5, 26730, Note_on_c, 3, 48, 100
5, 26759, Note_on_c, 3, 48, 0
5, 26760, Note_on_c, 3, 50, 100
5, 26819, Note_on_c, 3, 50, 0
5, 26820, Note_on_c, 3, 46, 100
5, 26879, Note_on_c, 3, 46, 0
5, 26880, Note_on_c, 3, 43, 100
5, 26939, Note_on_c, 3, 43, 0
5, 26940, Note_on_c, 3, 46, 100
5, 26999, Note_on_c, 3, 46, 0
5, 27000, Note_on_c, 3, 49, 100
5, 27059, Note_on_c, 3, 49, 0
5, 27060, Note_on_c, 3, 41, 100
5, 27119, Note_on_c, 3, 41, 0
5, 27120, Note_on_c, 3, 40, 100
5, 27179, Note_on_c, 3, 40, 0
5, 27180, Note_on_c, 3, 48, 100
5, 27239, Note_on_c, 3, 48, 0
5, 27240, Note_on_c, 3, 41, 100
5, 27299, Note_on_c, 3, 41, 0
5, 27300, Note_on_c, 3, 49, 100
5, 27359, Note_on_c, 3, 49, 0
5, 27360, Note_on_c, 3, 48, 100
5, 27419, Note_on_c, 3, 48, 0
5, 27420, Note_on_c, 3, 46, 100
5, 27479, Note_on_c, 3, 46, 0
5, 27480, Note_on_c, 3, 48, 100
5, 27539, Note_on_c, 3, 48, 0
5, 27540, Note_on_c, 3, 36, 100
5, 27599, Note_on_c, 3, 36, 0
5, 27600, Note_on_c, 3, 41, 100
5, 27659, Note_on_c, 3, 41, 0
5, 27660, Note_on_c, 3, 53, 100
5, 27719, Note_on_c, 3, 53, 0
5, 27720, Note_on_c, 3, 52, 100
5, 27779, Note_on_c, 3, 52, 0
5, 27780, Note_on_c, 3, 48, 100
5, 27839, Note_on_c, 3, 48, 0
5, 27840, Note_on_c, 3, 53, 100
5, 27899, Note_on_c, 3, 53, 0
5, 28380, Note_on_c, 3, 53, 100
5, 28439, Note_on_c, 3, 53, 0
5, 28440, Note_on_c, 3, 52, 100
5, 28499, Note_on_c, 3, 52, 0
5, 28500, Note_on_c, 3, 48, 100
5, 28559, Note_on_c, 3, 48, 0
5, 28560, Note_on_c, 3, 53, 100
5, 28619, Note_on_c, 3, 53, 0
5, 28620, Note_on_c, 3, 41, 100
5, 28649, Note_on_c, 3, 41, 0
5, 28650, Note_on_c, 3, 43, 100
5, 28679, Note_on_c, 3, 43, 0
5, 28680, Note_on_c, 3, 44, 100
5, 28739, Note_on_c, 3, 44, 0
5, 28740, Note_on_c, 3, 41, 100
5, 28799, Note_on_c, 3, 41, 0
5, 28800, Note_on_c, 3, 46, 100
5, 28859, Note_on_c, 3, 46, 0
5, 29340, Note_on_c, 3, 58, 100
5, 29399, Note_on_c, 3, 58, 0
5, 29400, Note_on_c, 3, 57, 100
5, 29459, Note_on_c, 3, 57, 0
5, 29460, Note_on_c, 3, 53, 100
5, 29519, Note_on_c, 3, 53, 0
5, 29520, Note_on_c, 3, 58, 100
5, 29579, Note_on_c, 3, 58, 0
5, 29580, Note_on_c, 3, 46, 100
5, 29609, Note_on_c, 3, 46, 0
5, 29610, Note_on_c, 3, 48, 100
5, 29639, Note_on_c, 3, 48, 0
5, 29640, Note_on_c, 3, 49, 100
5, 29699, Note_on_c, 3, 49, 0
5, 29700, Note_on_c, 3, 46, 100
5, 29759, Note_on_c, 3, 46, 0
5, 29760, Note_on_c, 3, 51, 100
5, 29819, Note_on_c, 3, 51, 0
5, 29940, Note_on_c, 3, 39, 100
5, 29999, Note_on_c, 3, 39, 0
5, 30000, Note_on_c, 3, 44, 100
5, 30059, Note_on_c, 3, 44, 0
5, 30180, Note_on_c, 3, 44, 100
5, 30209, Note_on_c, 3, 44, 0
5, 30210, Note_on_c, 3, 46, 100
5, 30239, Note_on_c, 3, 46, 0
5, 30240, Note_on_c, 3, 48, 100
5, 30299, Note_on_c, 3, 48, 0
5, 30420, Note_on_c, 3, 36, 100
5, 30479, Note_on_c, 3, 36, 0
5, 30480, Note_on_c, 3, 41, 100
5, 30539, Note_on_c, 3, 41, 0
5, 30660, Note_on_c, 3, 38, 100
5, 30719, Note_on_c, 3, 38, 0
5, 30720, Note_on_c, 3, 43, 100
5, 30779, Note_on_c, 3, 43, 0
5, 30900, Note_on_c, 3, 43, 100
5, 30959, Note_on_c, 3, 43, 0
5, 30960, Note_on_c, 3, 48, 100
5, 31019, Note_on_c, 3, 48, 0
5, 31140, Note_on_c, 3, 48, 100
5, 31169, Note_on_c, 3, 48, 0
5, 31170, Note_on_c, 3, 49, 100
5, 31199, Note_on_c, 3, 49, 0
5, 31200, Note_on_c, 3, 51, 100
5, 31259, Note_on_c, 3, 51, 0
5, 31380, Note_on_c, 3, 39, 100
5, 31439, Note_on_c, 3, 39, 0
5, 31440, Note_on_c, 3, 44, 100
5, 31499, Note_on_c, 3, 44, 0
5, 31620, Note_on_c, 3, 56, 100
5, 31649, Note_on_c, 3, 56, 0
5, 31650, Note_on_c, 3, 55, 100
5, 31679, Note_on_c, 3, 55, 0
5, 31680, Note_on_c, 3, 53, 100
5, 31739, Note_on_c, 3, 53, 0
5, 31860, Note_on_c, 3, 50, 100
5, 31919, Note_on_c, 3, 50, 0
5, 31920, Note_on_c, 3, 51, 100
5, 31979, Note_on_c, 3, 51, 0
5, 32100, Note_on_c, 3, 48, 100
5, 32159, Note_on_c, 3, 48, 0
5, 32160, Note_on_c, 3, 50, 100
5, 32219, Note_on_c, 3, 50, 0
5, 32340, Note_on_c, 3, 43, 100
5, 32399, Note_on_c, 3, 43, 0
5, 32400, Note_on_c, 3, 48, 100
5, 32459, Note_on_c, 3, 48, 0
5, 32460, Note_on_c, 3, 36, 100
5, 32519, Note_on_c, 3, 36, 0
5, 32520, Note_on_c, 3, 48, 100
5, 32579, Note_on_c, 3, 48, 0
5, 32580, Note_on_c, 3, 51, 100
5, 32639, Note_on_c, 3, 51, 0
5, 32640, Note_on_c, 3, 53, 100
5, 32699, Note_on_c, 3, 53, 0
5, 32880, Note_on_c, 3, 58, 100
5, 32939, Note_on_c, 3, 58, 0
5, 32940, Note_on_c, 3, 53, 100
5, 32999, Note_on_c, 3, 53, 0
5, 33000, Note_on_c, 3, 50, 100
5, 33059, Note_on_c, 3, 50, 0
5, 33060, Note_on_c, 3, 46, 100
5, 33119, Note_on_c, 3, 46, 0
5, 33120, Note_on_c, 3, 51, 100
5, 33179, Note_on_c, 3, 51, 0
5, 33360, Note_on_c, 3, 56, 100
5, 33419, Note_on_c, 3, 56, 0
5, 33420, Note_on_c, 3, 51, 100
5, 33479, Note_on_c, 3, 51, 0
5, 33480, Note_on_c, 3, 48, 100
5, 33539, Note_on_c, 3, 48, 0
5, 33540, Note_on_c, 3, 44, 100
5, 33599, Note_on_c, 3, 44, 0
5, 33600, Note_on_c, 3, 49, 100
5, 33659, Note_on_c, 3, 49, 0
5, 33720, Note_on_c, 3, 50, 100
5, 33779, Note_on_c, 3, 50, 0
5, 33840, Note_on_c, 3, 51, 100
5, 33899, Note_on_c, 3, 51, 0
5, 33960, Note_on_c, 3, 52, 100
5, 34019, Note_on_c, 3, 52, 0
5, 34080, Note_on_c, 3, 53, 100
5, 34139, Note_on_c, 3, 53, 0
5, 34200, Note_on_c, 3, 49, 100
5, 34259, Note_on_c, 3, 49, 0
5, 34320, Note_on_c, 3, 55, 100
5, 34379, Note_on_c, 3, 55, 0
5, 34440, Note_on_c, 3, 51, 100
5, 34499, Note_on_c, 3, 51, 0
5, 34560, Note_on_c, 3, 56, 100
5, 34619, Note_on_c, 3, 56, 0
5, 34740, Note_on_c, 3, 53, 100
5, 34799, Note_on_c, 3, 53, 0
5, 34800, Note_on_c, 3, 50, 100
5, 34859, Note_on_c, 3, 50, 0
5, 34860, Note_on_c, 3, 38, 100
5, 34889, Note_on_c, 3, 38, 0
5, 34890, Note_on_c, 3, 39, 100
5, 34919, Note_on_c, 3, 39, 0
5, 34920, Note_on_c, 3, 41, 100
5, 34979, Note_on_c, 3, 41, 0
5, 34980, Note_on_c, 3, 38, 100
5, 35039, Note_on_c, 3, 38, 0
5, 35040, Note_on_c, 3, 43, 100
5, 35099, Note_on_c, 3, 43, 0
5, 35220, Note_on_c, 3, 52, 100
5, 35279, Note_on_c, 3, 52, 0
5, 35280, Note_on_c, 3, 48, 100
5, 35339, Note_on_c, 3, 48, 0
5, 35340, Note_on_c, 3, 36, 100
5, 35369, Note_on_c, 3, 36, 0
5, 35370, Note_on_c, 3, 38, 100
5, 35399, Note_on_c, 3, 38, 0
5, 35400, Note_on_c, 3, 40, 100
5, 35459, Note_on_c, 3, 40, 0
5, 35460, Note_on_c, 3, 36, 100
5, 35519, Note_on_c, 3, 36, 0
5, 35520, Note_on_c, 3, 41, 100
5, 35579, Note_on_c, 3, 41, 0
5, 35700, Note_on_c, 3, 53, 100
5, 35759, Note_on_c, 3, 53, 0
5, 35760, Note_on_c, 3, 51, 100
5, 35819, Note_on_c, 3, 51, 0
5, 35940, Note_on_c, 3, 39, 100
5, 35999, Note_on_c, 3, 39, 0
5, 36000, Note_on_c, 3, 44, 100
5, 36059, Note_on_c, 3, 44, 0
5, 36180, Note_on_c, 3, 56, 100
5, 36239, Note_on_c, 3, 56, 0
5, 36240, Note_on_c, 3, 55, 100
5, 36299, Note_on_c, 3, 55, 0
5, 36480, Note_on_c, 3, 48, 100
5, 36539, Note_on_c, 3, 48, 0
5, 36600, Note_on_c, 3, 43, 100
5, 36659, Note_on_c, 3, 43, 0
5, 36720, Note_on_c, 3, 36, 100
5, 36779, Note_on_c, 3, 36, 0
5, 36960, Note_on_c, 3, 53, 100
5, 37019, Note_on_c, 3, 53, 0
5, 37080, Note_on_c, 3, 48, 100
5, 37139, Note_on_c, 3, 48, 0
5, 37200, Note_on_c, 3, 41, 100
5, 37259, Note_on_c, 3, 41, 0
5, 37440, Note_on_c, 3, 58, 100
5, 37499, Note_on_c, 3, 58, 0
5, 37560, Note_on_c, 3, 51, 100
5, 37619, Note_on_c, 3, 51, 0
5, 37680, Note_on_c, 3, 56, 100
5, 37739, Note_on_c, 3, 56, 0
5, 37800, Note_on_c, 3, 50, 100
5, 37859, Note_on_c, 3, 50, 0
5, 37920, Note_on_c, 3, 55, 100
5, 37979, Note_on_c, 3, 55, 0
5, 38040, Note_on_c, 3, 48, 100
5, 38099, Note_on_c, 3, 48, 0
5, 38160, Note_on_c, 3, 55, 100
5, 38219, Note_on_c, 3, 55, 0
5, 38220, Note_on_c, 3, 50, 100
5, 38279, Note_on_c, 3, 50, 0
5, 38280, Note_on_c, 3, 47, 100
5, 38339, Note_on_c, 3, 47, 0
5, 38340, Note_on_c, 3, 43, 100
5, 38399, Note_on_c, 3, 43, 0
5, 38400, Note_on_c, 3, 48, 100
5, 38459, Note_on_c, 3, 48, 0
5, 38520, Note_on_c, 3, 43, 100
5, 38579, Note_on_c, 3, 43, 0
5, 38640, Note_on_c, 3, 36, 100
5, 38699, Note_on_c, 3, 36, 0
5, 38880, Note_on_c, 3, 53, 100
5, 38939, Note_on_c, 3, 53, 0
5, 39000, Note_on_c, 3, 48, 100
5, 39059, Note_on_c, 3, 48, 0
5, 39120, Note_on_c, 3, 41, 100
5, 39179, Note_on_c, 3, 41, 0
5, 39360, Note_on_c, 3, 58, 100
5, 39419, Note_on_c, 3, 58, 0
5, 39480, Note_on_c, 3, 51, 100
5, 39539, Note_on_c, 3, 51, 0
5, 39600, Note_on_c, 3, 56, 100
5, 39659, Note_on_c, 3, 56, 0
5, 39720, Note_on_c, 3, 50, 100
5, 39779, Note_on_c, 3, 50, 0
5, 39840, Note_on_c, 3, 55, 100
5, 39899, Note_on_c, 3, 55, 0
5, 39960, Note_on_c, 3, 48, 100
5, 40019, Note_on_c, 3, 48, 0
5, 40080, Note_on_c, 3, 55, 100
5, 40139, Note_on_c, 3, 55, 0
5, 40140, Note_on_c, 3, 43, 100
5, 40199, Note_on_c, 3, 43, 0
5, 40200, Note_on_c, 3, 47, 100
5, 40259, Note_on_c, 3, 47, 0
5, 40260, Note_on_c, 3, 43, 100
5, 40319, Note_on_c, 3, 43, 0
5, 40320, Note_on_c, 3, 48, 100
5, 40349, Note_on_c, 3, 48, 0
5, 40350, Note_on_c, 3, 47, 100
5, 40379, Note_on_c, 3, 47, 0
5, 40380, Note_on_c, 3, 48, 100
5, 40409, Note_on_c, 3, 48, 0
5, 40410, Note_on_c, 3, 50, 100
5, 40439, Note_on_c, 3, 50, 0
5, 40440, Note_on_c, 3, 51, 100
5, 40469, Note_on_c, 3, 51, 0
5, 40470, Note_on_c, 3, 50, 100
5, 40499, Note_on_c, 3, 50, 0
5, 40500, Note_on_c, 3, 51, 100
5, 40529, Note_on_c, 3, 51, 0
5, 40530, Note_on_c, 3, 53, 100
5, 40559, Note_on_c, 3, 53, 0
5, 40560, Note_on_c, 3, 55, 100
5, 40589, Note_on_c, 3, 55, 0
5, 40590, Note_on_c, 3, 53, 100
5, 40619, Note_on_c, 3, 53, 0
5, 40620, Note_on_c, 3, 55, 100
5, 40649, Note_on_c, 3, 55, 0
5, 40650, Note_on_c, 3, 56, 100
5, 40679, Note_on_c, 3, 56, 0
5, 40680, Note_on_c, 3, 55, 100
5, 40709, Note_on_c, 3, 55, 0
5, 40710, Note_on_c, 3, 53, 100
5, 40739, Note_on_c, 3, 53, 0
5, 40740, Note_on_c, 3, 52, 100
5, 40769, Note_on_c, 3, 52, 0
5, 40770, Note_on_c, 3, 50, 100
5, 40799, Note_on_c, 3, 50, 0
5, 40800, Note_on_c, 3, 48, 100
5, 40829, Note_on_c, 3, 48, 0
5, 40830, Note_on_c, 3, 46, 100
5, 40859, Note_on_c, 3, 46, 0
5, 40860, Note_on_c, 3, 48, 100
5, 40889, Note_on_c, 3, 48, 0
5, 40890, Note_on_c, 3, 49, 100
5, 40919, Note_on_c, 3, 49, 0
5, 40920, Note_on_c, 3, 48, 100
5, 40949, Note_on_c, 3, 48, 0
5, 40950, Note_on_c, 3, 46, 100
5, 40979, Note_on_c, 3, 46, 0
5, 40980, Note_on_c, 3, 44, 100
5, 41009, Note_on_c, 3, 44, 0
5, 41010, Note_on_c, 3, 43, 100
5, 41039, Note_on_c, 3, 43, 0
5, 41040, Note_on_c, 3, 41, 100
5, 41069, Note_on_c, 3, 41, 0
5, 41070, Note_on_c, 3, 52, 100
5, 41099, Note_on_c, 3, 52, 0
5, 41100, Note_on_c, 3, 53, 100
5, 41129, Note_on_c, 3, 53, 0
5, 41130, Note_on_c, 3, 55, 100
5, 41159, Note_on_c, 3, 55, 0
5, 41160, Note_on_c, 3, 53, 100
5, 41189, Note_on_c, 3, 53, 0
5, 41190, Note_on_c, 3, 51, 100
5, 41219, Note_on_c, 3, 51, 0
5, 41220, Note_on_c, 3, 50, 100
5, 41249, Note_on_c, 3, 50, 0
5, 41250, Note_on_c, 3, 48, 100
5, 41279, Note_on_c, 3, 48, 0
5, 41280, Note_on_c, 3, 47, 100
5, 41399, Note_on_c, 3, 47, 0
5, 41460, Note_on_c, 3, 53, 100
5, 41579, Note_on_c, 3, 53, 0
5, 41580, Note_on_c, 3, 51, 100
5, 41609, Note_on_c, 3, 51, 0
5, 41610, Note_on_c, 3, 50, 100
5, 41639, Note_on_c, 3, 50, 0
5, 41640, Note_on_c, 3, 51, 100
5, 41699, Note_on_c, 3, 51, 0
5, 41700, Note_on_c, 3, 56, 100
5, 41759, Note_on_c, 3, 56, 0
5, 41760, Note_on_c, 3, 55, 100
5, 41819, Note_on_c, 3, 55, 0
5, 41820, Note_on_c, 3, 53, 100
5, 41879, Note_on_c, 3, 53, 0
5, 41880, Note_on_c, 3, 55, 100
5, 41939, Note_on_c, 3, 55, 0
5, 41940, Note_on_c, 3, 43, 100
5, 41999, Note_on_c, 3, 43, 0
5, 42000, Note_on_c, 3, 48, 100
5, 42239, Note_on_c, 3, 48, 0
5, 42720, Note_on_c, 3, 51, 100
5, 42840, Note_on_c, 3, 51, 0
5, 42840, Note_on_c, 3, 39, 100
5, 42900, Note_on_c, 3, 39, 0
5, 42900, Note_on_c, 3, 41, 100
5, 43020, Note_on_c, 3, 41, 0
5, 43020, Note_on_c, 3, 53, 100
5, 43080, Note_on_c, 3, 53, 0
5, 43080, Note_on_c, 3, 55, 100
5, 43200, Note_on_c, 3, 55, 0
5, 43200, Note_on_c, 3, 43, 100
5, 43260, Note_on_c, 3, 43, 0
5, 43260, Note_on_c, 3, 44, 100
5, 43380, Note_on_c, 3, 44, 0
5, 43380, Note_on_c, 3, 56, 100
5, 43440, Note_on_c, 3, 56, 0
5, 43440, Note_on_c, 3, 56, 100
5, 43560, Note_on_c, 3, 56, 0
5, 43560, Note_on_c, 3, 55, 100
5, 43620, Note_on_c, 3, 55, 0
5, 43620, Note_on_c, 3, 53, 100
5, 43740, Note_on_c, 3, 53, 0
5, 43740, Note_on_c, 3, 58, 100
5, 43800, Note_on_c, 3, 58, 0
5, 43800, Note_on_c, 3, 51, 100
5, 43920, Note_on_c, 3, 51, 0
5, 43920, Note_on_c, 3, 55, 100
5, 43980, Note_on_c, 3, 55, 0
5, 43980, Note_on_c, 3, 48, 100
5, 44100, Note_on_c, 3, 48, 0
5, 44100, Note_on_c, 3, 53, 100
5, 44160, Note_on_c, 3, 53, 0
5, 44160, Note_on_c, 3, 46, 100
5, 44280, Note_on_c, 3, 46, 0
5, 44280, Note_on_c, 3, 58, 100
5, 44340, Note_on_c, 3, 58, 0
5, 44340, Note_on_c, 3, 60, 100
5, 44460, Note_on_c, 3, 60, 0
5, 44460, Note_on_c, 3, 48, 100
5, 44520, Note_on_c, 3, 48, 0
5, 44520, Note_on_c, 3, 50, 100
5, 44640, Note_on_c, 3, 50, 0
5, 44640, Note_on_c, 3, 38, 100
5, 44700, Note_on_c, 3, 38, 0
5, 44700, Note_on_c, 3, 39, 100
5, 44820, Note_on_c, 3, 39, 0
5, 44820, Note_on_c, 3, 51, 100
5, 44880, Note_on_c, 3, 51, 0
5, 44880, Note_on_c, 3, 51, 100
5, 45000, Note_on_c, 3, 51, 0
5, 45000, Note_on_c, 3, 50, 100
5, 45060, Note_on_c, 3, 50, 0
5, 45060, Note_on_c, 3, 48, 100
5, 45180, Note_on_c, 3, 48, 0
5, 45180, Note_on_c, 3, 53, 100
5, 45240, Note_on_c, 3, 53, 0
5, 45240, Note_on_c, 3, 46, 100
5, 45360, Note_on_c, 3, 46, 0
5, 45360, Note_on_c, 3, 44, 100
5, 45420, Note_on_c, 3, 44, 0
5, 45420, Note_on_c, 3, 43, 100
5, 45540, Note_on_c, 3, 43, 0
5, 45540, Note_on_c, 3, 39, 100
5, 45600, Note_on_c, 3, 39, 0
5, 45600, Note_on_c, 3, 44, 100
5, 45720, Note_on_c, 3, 44, 0
5, 45720, Note_on_c, 3, 43, 100
5, 45780, Note_on_c, 3, 43, 0
5, 45780, Note_on_c, 3, 41, 100
5, 45900, Note_on_c, 3, 41, 0
5, 45900, Note_on_c, 3, 38, 100
5, 45960, Note_on_c, 3, 38, 0
5, 45960, Note_on_c, 3, 43, 100
5, 46080, Note_on_c, 3, 43, 0
5, 46080, Note_on_c, 3, 41, 100
5, 46140, Note_on_c, 3, 41, 0
5, 46140, Note_on_c, 3, 39, 100
5, 46260, Note_on_c, 3, 39, 0
5, 46260, Note_on_c, 3, 36, 100
5, 46320, Note_on_c, 3, 36, 0
5, 46320, Note_on_c, 3, 41, 100
5, 46440, Note_on_c, 3, 41, 0
5, 46440, Note_on_c, 3, 39, 100
5, 46500, Note_on_c, 3, 39, 0
5, 46500, Note_on_c, 3, 38, 100
5, 46620, Note_on_c, 3, 38, 0
5, 46620, Note_on_c, 3, 46, 100
5, 46680, Note_on_c, 3, 46, 0
5, 46680, Note_on_c, 3, 39, 100
5, 46800, Note_on_c, 3, 39, 0
5, 46800, Note_on_c, 3, 44, 100
5, 46860, Note_on_c, 3, 44, 0
5, 46860, Note_on_c, 3, 38, 100
5, 46980, Note_on_c, 3, 38, 0
5, 46980, Note_on_c, 3, 43, 100
5, 47040, Note_on_c, 3, 43, 0
5, 47040, Note_on_c, 3, 48, 100
5, 47160, Note_on_c, 3, 48, 0
5, 47160, Note_on_c, 3, 36, 100
5, 47220, Note_on_c, 3, 36, 0
5, 47220, Note_on_c, 3, 38, 100
5, 47340, Note_on_c, 3, 38, 0
5, 47340, Note_on_c, 3, 50, 100
5, 47400, Note_on_c, 3, 50, 0
5, 47400, Note_on_c, 3, 51, 100
5, 47520, Note_on_c, 3, 51, 0
5, 47520, Note_on_c, 3, 39, 100
5, 47580, Note_on_c, 3, 39, 0
5, 47580, Note_on_c, 3, 41, 100
5, 47700, Note_on_c, 3, 41, 0
5, 47700, Note_on_c, 3, 53, 100
5, 47760, Note_on_c, 3, 53, 0
5, 47760, Note_on_c, 3, 53, 100
5, 47880, Note_on_c, 3, 53, 0
5, 47880, Note_on_c, 3, 51, 100
5, 47940, Note_on_c, 3, 51, 0
5, 47940, Note_on_c, 3, 50, 100
5, 48060, Note_on_c, 3, 50, 0
5, 48060, Note_on_c, 3, 55, 100
5, 48120, Note_on_c, 3, 55, 0
5, 48120, Note_on_c, 3, 48, 100
5, 48240, Note_on_c, 3, 48, 0
5, 48240, Note_on_c, 3, 60, 100
5, 48300, Note_on_c, 3, 60, 0
5, 48300, Note_on_c, 3, 52, 100
5, 48420, Note_on_c, 3, 52, 0
5, 48420, Note_on_c, 3, 48, 100
5, 48480, Note_on_c, 3, 48, 0
5, 48480, Note_on_c, 3, 53, 100
5, 48600, Note_on_c, 3, 53, 0
5, 48600, Note_on_c, 3, 61, 100
5, 48660, Note_on_c, 3, 61, 0
5, 48660, Note_on_c, 3, 53, 100
5, 48780, Note_on_c, 3, 53, 0
5, 48780, Note_on_c, 3, 49, 100
5, 48840, Note_on_c, 3, 49, 0
5, 48840, Note_on_c, 3, 55, 100
5, 48960, Note_on_c, 3, 55, 0
5, 48960, Note_on_c, 3, 63, 100
5, 49020, Note_on_c, 3, 63, 0
5, 49020, Note_on_c, 3, 55, 100
5, 49140, Note_on_c, 3, 55, 0
5, 49140, Note_on_c, 3, 51, 100
5, 49200, Note_on_c, 3, 51, 0
5, 49200, Note_on_c, 3, 56, 100
5, 49320, Note_on_c, 3, 56, 0
5, 49320, Note_on_c, 3, 44, 100
5, 49380, Note_on_c, 3, 44, 0
5, 49380, Note_on_c, 3, 46, 100
5, 49500, Note_on_c, 3, 46, 0
5, 49500, Note_on_c, 3, 58, 100
5, 49560, Note_on_c, 3, 58, 0
5, 49560, Note_on_c, 3, 60, 100
5, 49680, Note_on_c, 3, 60, 0
5, 49680, Note_on_c, 3, 48, 100
5, 49740, Note_on_c, 3, 48, 0
5, 49740, Note_on_c, 3, 49, 100
5, 49860, Note_on_c, 3, 49, 0
5, 49860, Note_on_c, 3, 61, 100
5, 49920, Note_on_c, 3, 61, 0
5, 49920, Note_on_c, 3, 61, 100
5, 50040, Note_on_c, 3, 61, 0
5, 50040, Note_on_c, 3, 60, 100
5, 50100, Note_on_c, 3, 60, 0
5, 50100, Note_on_c, 3, 58, 100
5, 50220, Note_on_c, 3, 58, 0
5, 50220, Note_on_c, 3, 51, 100
5, 50280, Note_on_c, 3, 51, 0
5, 50280, Note_on_c, 3, 56, 100
5, 50400, Note_on_c, 3, 56, 0
5, 50400, Note_on_c, 3, 60, 100
5, 50460, Note_on_c, 3, 60, 0
5, 50460, Note_on_c, 3, 53, 100
5, 50580, Note_on_c, 3, 53, 0
5, 50580, Note_on_c, 3, 58, 100
5, 50640, Note_on_c, 3, 58, 0
5, 50640, Note_on_c, 3, 51, 100
5, 50759, Note_on_c, 3, 51, 0
5, 50760, Note_on_c, 3, 39, 100
5, 50819, Note_on_c, 3, 39, 0
5, 50820, Note_on_c, 3, 41, 100
5, 50939, Note_on_c, 3, 41, 0
5, 50940, Note_on_c, 3, 53, 100
5, 50999, Note_on_c, 3, 53, 0
5, 51000, Note_on_c, 3, 55, 100
5, 51119, Note_on_c, 3, 55, 0
5, 51120, Note_on_c, 3, 43, 100
5, 51179, Note_on_c, 3, 43, 0
5, 51180, Note_on_c, 3, 44, 100
5, 51299, Note_on_c, 3, 44, 0
5, 51300, Note_on_c, 3, 56, 100
5, 51359, Note_on_c, 3, 56, 0
5, 51360, Note_on_c, 3, 56, 100
5, 51479, Note_on_c, 3, 56, 0
5, 51480, Note_on_c, 3, 55, 100
5, 51539, Note_on_c, 3, 55, 0
5, 51540, Note_on_c, 3, 53, 100
5, 51659, Note_on_c, 3, 53, 0
5, 51660, Note_on_c, 3, 46, 100
5, 51719, Note_on_c, 3, 46, 0
5, 51720, Note_on_c, 3, 51, 100
5, 51839, Note_on_c, 3, 51, 0
5, 51840, Note_on_c, 3, 53, 100
5, 51899, Note_on_c, 3, 53, 0
5, 51900, Note_on_c, 3, 55, 100
5, 52019, Note_on_c, 3, 55, 0
5, 52020, Note_on_c, 3, 51, 100
5, 52079, Note_on_c, 3, 51, 0
5, 52080, Note_on_c, 3, 56, 100
5, 52199, Note_on_c, 3, 56, 0
5, 52200, Note_on_c, 3, 55, 100
5, 52259, Note_on_c, 3, 55, 0
5, 52260, Note_on_c, 3, 53, 100
5, 52379, Note_on_c, 3, 53, 0
5, 52380, Note_on_c, 3, 50, 100
5, 52439, Note_on_c, 3, 50, 0
5, 52440, Note_on_c, 3, 55, 100
5, 52559, Note_on_c, 3, 55, 0
5, 52560, Note_on_c, 3, 53, 100
5, 52619, Note_on_c, 3, 53, 0
5, 52620, Note_on_c, 3, 51, 100
5, 52739, Note_on_c, 3, 51, 0
5, 52740, Note_on_c, 3, 48, 100
5, 52799, Note_on_c, 3, 48, 0
5, 52800, Note_on_c, 3, 53, 100
5, 52919, Note_on_c, 3, 53, 0
5, 52920, Note_on_c, 3, 51, 100
5, 52979, Note_on_c, 3, 51, 0
5, 52980, Note_on_c, 3, 50, 100
5, 53099, Note_on_c, 3, 50, 0
5, 53100, Note_on_c, 3, 46, 100
5, 53159, Note_on_c, 3, 46, 0
5, 53160, Note_on_c, 3, 51, 100
5, 53279, Note_on_c, 3, 51, 0
5, 53280, Note_on_c, 3, 48, 100
5, 53339, Note_on_c, 3, 48, 0
5, 53340, Note_on_c, 3, 46, 100
5, 53459, Note_on_c, 3, 46, 0
5, 53460, Note_on_c, 3, 46, 100
5, 53519, Note_on_c, 3, 46, 0
5, 53520, Note_on_c, 3, 39, 100
5, 53639, Note_on_c, 3, 39, 0
5, 53880, Note_on_c, 3, 39, 100
5, 53999, Note_on_c, 3, 39, 0
5, 54240, Note_on_c, 3, 39, 100
5, 54359, Note_on_c, 3, 39, 0
5, 54420, Note_on_c, 3, 51, 100
5, 54539, Note_on_c, 3, 51, 0
5, 54600, Note_on_c, 3, 39, 100
5, 54719, Note_on_c, 3, 39, 0
5, 54780, Note_on_c, 3, 51, 100
5, 54899, Note_on_c, 3, 51, 0
5, 54960, Note_on_c, 3, 39, 100
5, 55079, Note_on_c, 3, 39, 0
5, 55140, Note_on_c, 3, 51, 100
5, 55259, Note_on_c, 3, 51, 0
5, 55320, Note_on_c, 3, 39, 100
5, 55379, Note_on_c, 3, 39, 0
5, 55380, Note_on_c, 3, 41, 100
5, 55439, Note_on_c, 3, 41, 0
5, 55440, Note_on_c, 3, 43, 100
5, 55499, Note_on_c, 3, 43, 0
5, 55500, Note_on_c, 3, 36, 100
5, 55619, Note_on_c, 3, 36, 0
5, 55620, Note_on_c, 3, 41, 100
5, 55679, Note_on_c, 3, 41, 0
5, 55680, Note_on_c, 3, 46, 100
5, 55799, Note_on_c, 3, 46, 0
5, 55800, Note_on_c, 3, 48, 100
5, 55859, Note_on_c, 3, 48, 0
5, 55860, Note_on_c, 3, 50, 100
5, 55979, Note_on_c, 3, 50, 0
5, 55980, Note_on_c, 3, 46, 100
5, 56039, Note_on_c, 3, 46, 0
5, 56040, Note_on_c, 3, 51, 100
5, 56159, Note_on_c, 3, 51, 0
5, 56160, Note_on_c, 3, 50, 100
5, 56219, Note_on_c, 3, 50, 0
5, 56220, Note_on_c, 3, 48, 100
5, 56339, Note_on_c, 3, 48, 0
5, 56340, Note_on_c, 3, 45, 100
5, 56399, Note_on_c, 3, 45, 0
5, 56400, Note_on_c, 3, 50, 100
5, 56519, Note_on_c, 3, 50, 0
5, 56520, Note_on_c, 3, 48, 100
5, 56579, Note_on_c, 3, 48, 0
5, 56580, Note_on_c, 3, 46, 100
5, 56699, Note_on_c, 3, 46, 0
5, 56700, Note_on_c, 3, 43, 100
5, 56759, Note_on_c, 3, 43, 0
5, 56760, Note_on_c, 3, 48, 100
5, 56879, Note_on_c, 3, 48, 0
5, 56880, Note_on_c, 3, 46, 100
5, 56939, Note_on_c, 3, 46, 0
5, 56940, Note_on_c, 3, 45, 100
5, 57059, Note_on_c, 3, 45, 0
5, 57060, Note_on_c, 3, 41, 100
5, 57119, Note_on_c, 3, 41, 0
5, 57120, Note_on_c, 3, 46, 100
5, 57239, Note_on_c, 3, 46, 0
5, 57480, Note_on_c, 3, 46, 100
5, 57599, Note_on_c, 3, 46, 0
5, 57840, Note_on_c, 3, 46, 100
5, 57959, Note_on_c, 3, 46, 0
5, 58020, Note_on_c, 3, 58, 100
5, 58139, Note_on_c, 3, 58, 0
5, 58200, Note_on_c, 3, 46, 100
5, 58319, Note_on_c, 3, 46, 0
5, 58380, Note_on_c, 3, 58, 100
5, 58499, Note_on_c, 3, 58, 0
5, 58560, Note_on_c, 3, 46, 100
5, 58679, Note_on_c, 3, 46, 0
5, 58740, Note_on_c, 3, 58, 100
5, 58859, Note_on_c, 3, 58, 0
5, 58920, Note_on_c, 3, 46, 100
5, 58979, Note_on_c, 3, 46, 0
5, 58980, Note_on_c, 3, 48, 100
5, 59039, Note_on_c, 3, 48, 0
5, 59040, Note_on_c, 3, 50, 100
5, 59099, Note_on_c, 3, 50, 0
5, 59100, Note_on_c, 3, 43, 100
5, 59219, Note_on_c, 3, 43, 0
5, 59220, Note_on_c, 3, 48, 100
5, 59279, Note_on_c, 3, 48, 0
5, 59280, Note_on_c, 3, 41, 100
5, 59339, Note_on_c, 3, 41, 0
5, 59340, Note_on_c, 3, 53, 100
5, 59399, Note_on_c, 3, 53, 0
5, 59400, Note_on_c, 3, 51, 100
5, 59459, Note_on_c, 3, 51, 0
5, 59460, Note_on_c, 3, 50, 100
5, 59579, Note_on_c, 3, 50, 0
5, 59580, Note_on_c, 3, 58, 100
5, 59639, Note_on_c, 3, 58, 0
5, 59640, Note_on_c, 3, 48, 100
5, 59759, Note_on_c, 3, 48, 0
5, 59760, Note_on_c, 3, 57, 100
5, 59819, Note_on_c, 3, 57, 0
5, 59820, Note_on_c, 3, 46, 100
5, 59939, Note_on_c, 3, 46, 0
5, 59940, Note_on_c, 3, 58, 100
5, 59999, Note_on_c, 3, 58, 0
5, 60000, Note_on_c, 3, 53, 100
5, 60119, Note_on_c, 3, 53, 0
5, 60120, Note_on_c, 3, 41, 100
5, 60179, Note_on_c, 3, 41, 0
5, 60180, Note_on_c, 3, 42, 100
5, 60299, Note_on_c, 3, 42, 0
5, 60300, Note_on_c, 3, 38, 100
5, 60359, Note_on_c, 3, 38, 0
5, 60360, Note_on_c, 3, 43, 100
5, 60479, Note_on_c, 3, 43, 0
5, 60480, Note_on_c, 3, 51, 100
5, 60539, Note_on_c, 3, 51, 0
5, 60540, Note_on_c, 3, 43, 100
5, 60659, Note_on_c, 3, 43, 0
5, 60660, Note_on_c, 3, 39, 100
5, 60719, Note_on_c, 3, 39, 0
5, 60720, Note_on_c, 3, 45, 100
5, 60839, Note_on_c, 3, 45, 0
5, 60840, Note_on_c, 3, 53, 100
5, 60899, Note_on_c, 3, 53, 0
5, 60900, Note_on_c, 3, 45, 100
5, 61019, Note_on_c, 3, 45, 0
5, 61020, Note_on_c, 3, 41, 100
5, 61079, Note_on_c, 3, 41, 0
5, 61080, Note_on_c, 3, 46, 100
5, 61139, Note_on_c, 3, 46, 0
5, 61140, Note_on_c, 3, 58, 100
5, 61199, Note_on_c, 3, 58, 0
5, 61200, Note_on_c, 3, 56, 100
5, 61259, Note_on_c, 3, 56, 0
5, 61260, Note_on_c, 3, 55, 100
5, 61379, Note_on_c, 3, 55, 0
5, 61380, Note_on_c, 3, 63, 100
5, 61439, Note_on_c, 3, 63, 0
5, 61440, Note_on_c, 3, 53, 100
5, 61559, Note_on_c, 3, 53, 0
5, 61560, Note_on_c, 3, 62, 100
5, 61619, Note_on_c, 3, 62, 0
5, 61620, Note_on_c, 3, 51, 100
5, 61739, Note_on_c, 3, 51, 0
5, 61740, Note_on_c, 3, 63, 100
5, 61799, Note_on_c, 3, 63, 0
5, 61800, Note_on_c, 3, 58, 100
5, 61919, Note_on_c, 3, 58, 0
5, 61920, Note_on_c, 3, 46, 100
5, 61979, Note_on_c, 3, 46, 0
5, 61980, Note_on_c, 3, 47, 100
5, 62099, Note_on_c, 3, 47, 0
5, 62100, Note_on_c, 3, 43, 100
5, 62159, Note_on_c, 3, 43, 0
5, 62160, Note_on_c, 3, 48, 100
5, 62279, Note_on_c, 3, 48, 0
5, 62280, Note_on_c, 3, 56, 100
5, 62339, Note_on_c, 3, 56, 0
5, 62340, Note_on_c, 3, 48, 100
5, 62459, Note_on_c, 3, 48, 0
5, 62460, Note_on_c, 3, 44, 100
5, 62519, Note_on_c, 3, 44, 0
5, 62520, Note_on_c, 3, 50, 100
5, 62639, Note_on_c, 3, 50, 0
5, 62640, Note_on_c, 3, 58, 100
5, 62699, Note_on_c, 3, 58, 0
5, 62700, Note_on_c, 3, 50, 100
5, 62819, Note_on_c, 3, 50, 0
5, 62820, Note_on_c, 3, 46, 100
5, 62879, Note_on_c, 3, 46, 0
5, 62880, Note_on_c, 3, 51, 100
5, 62939, Note_on_c, 3, 51, 0
5, 62940, Note_on_c, 3, 51, 100
5, 62999, Note_on_c, 3, 51, 0
5, 63000, Note_on_c, 3, 51, 100
5, 63059, Note_on_c, 3, 51, 0
5, 63060, Note_on_c, 3, 49, 100
5, 63119, Note_on_c, 3, 49, 0
5, 63120, Note_on_c, 3, 49, 100
5, 63179, Note_on_c, 3, 49, 0
5, 63180, Note_on_c, 3, 49, 100
5, 63239, Note_on_c, 3, 49, 0
5, 63240, Note_on_c, 3, 48, 100
5, 63359, Note_on_c, 3, 48, 0
5, 63360, Note_on_c, 3, 36, 100
5, 63419, Note_on_c, 3, 36, 0
5, 63420, Note_on_c, 3, 36, 100
5, 63539, Note_on_c, 3, 36, 0
5, 63540, Note_on_c, 3, 48, 100
5, 63599, Note_on_c, 3, 48, 0
5, 63600, Note_on_c, 3, 53, 100
5, 63659, Note_on_c, 3, 53, 0
5, 63660, Note_on_c, 3, 53, 100
5, 63719, Note_on_c, 3, 53, 0
5, 63720, Note_on_c, 3, 53, 100
5, 63779, Note_on_c, 3, 53, 0
5, 63780, Note_on_c, 3, 51, 100
5, 63839, Note_on_c, 3, 51, 0
5, 63840, Note_on_c, 3, 51, 100
5, 63899, Note_on_c, 3, 51, 0
5, 63900, Note_on_c, 3, 51, 100
5, 63959, Note_on_c, 3, 51, 0
5, 63960, Note_on_c, 3, 50, 100
5, 64079, Note_on_c, 3, 50, 0
5, 64080, Note_on_c, 3, 38, 100
5, 64139, Note_on_c, 3, 38, 0
5, 64140, Note_on_c, 3, 38, 100
5, 64259, Note_on_c, 3, 38, 0
5, 64260, Note_on_c, 3, 50, 100
5, 64319, Note_on_c, 3, 50, 0
5, 64320, Note_on_c, 3, 55, 100
5, 64439, Note_on_c, 3, 55, 0
5, 64440, Note_on_c, 3, 43, 100
5, 64499, Note_on_c, 3, 43, 0
5, 64500, Note_on_c, 3, 45, 100
5, 64619, Note_on_c, 3, 45, 0
5, 64620, Note_on_c, 3, 57, 100
5, 64679, Note_on_c, 3, 57, 0
5, 64680, Note_on_c, 3, 58, 100
5, 64799, Note_on_c, 3, 58, 0
5, 64800, Note_on_c, 3, 46, 100
5, 64859, Note_on_c, 3, 46, 0
5, 64860, Note_on_c, 3, 48, 100
5, 64979, Note_on_c, 3, 48, 0
5, 64980, Note_on_c, 3, 60, 100
5, 65039, Note_on_c, 3, 60, 0
5, 65040, Note_on_c, 3, 60, 100
5, 65159, Note_on_c, 3, 60, 0
5, 65160, Note_on_c, 3, 58, 100
5, 65219, Note_on_c, 3, 58, 0
5, 65220, Note_on_c, 3, 57, 100
5, 65339, Note_on_c, 3, 57, 0
5, 65340, Note_on_c, 3, 50, 100
5, 65399, Note_on_c, 3, 50, 0
5, 65400, Note_on_c, 3, 55, 100
5, 65519, Note_on_c, 3, 55, 0
5, 65520, Note_on_c, 3, 51, 100
5, 65579, Note_on_c, 3, 51, 0
5, 65580, Note_on_c, 3, 50, 100
5, 65699, Note_on_c, 3, 50, 0
5, 65700, Note_on_c, 3, 43, 100
5, 65759, Note_on_c, 3, 43, 0
5, 65760, Note_on_c, 3, 48, 100
5, 65879, Note_on_c, 3, 48, 0
5, 65880, Note_on_c, 3, 36, 100
5, 65939, Note_on_c, 3, 36, 0
5, 65940, Note_on_c, 3, 38, 100
5, 66059, Note_on_c, 3, 38, 0
5, 66060, Note_on_c, 3, 50, 100
5, 66119, Note_on_c, 3, 50, 0
5, 66120, Note_on_c, 3, 51, 100
5, 66239, Note_on_c, 3, 51, 0
5, 66240, Note_on_c, 3, 39, 100
5, 66299, Note_on_c, 3, 39, 0
5, 66300, Note_on_c, 3, 41, 100
5, 66419, Note_on_c, 3, 41, 0
5, 66420, Note_on_c, 3, 53, 100
5, 66479, Note_on_c, 3, 53, 0
5, 66480, Note_on_c, 3, 53, 100
5, 66599, Note_on_c, 3, 53, 0
5, 66600, Note_on_c, 3, 51, 100
5, 66659, Note_on_c, 3, 51, 0
5, 66660, Note_on_c, 3, 50, 100
5, 66779, Note_on_c, 3, 50, 0
5, 66780, Note_on_c, 3, 43, 100
5, 66839, Note_on_c, 3, 43, 0
5, 66840, Note_on_c, 3, 48, 100
5, 66959, Note_on_c, 3, 48, 0
5, 66960, Note_on_c, 3, 36, 100
5, 67019, Note_on_c, 3, 36, 0
5, 67020, Note_on_c, 3, 36, 100
5, 67139, Note_on_c, 3, 36, 0
5, 67140, Note_on_c, 3, 48, 100
5, 67199, Note_on_c, 3, 48, 0
5, 67200, Note_on_c, 3, 48, 100
5, 67319, Note_on_c, 3, 48, 0
5, 67320, Note_on_c, 3, 36, 100
5, 67379, Note_on_c, 3, 36, 0
5, 67380, Note_on_c, 3, 36, 100
5, 67499, Note_on_c, 3, 36, 0
5, 67500, Note_on_c, 3, 48, 100
5, 67559, Note_on_c, 3, 48, 0
5, 67560, Note_on_c, 3, 48, 100
5, 67679, Note_on_c, 3, 48, 0
5, 67680, Note_on_c, 3, 60, 100
5, 67739, Note_on_c, 3, 60, 0
5, 67740, Note_on_c, 3, 52, 100
5, 67859, Note_on_c, 3, 52, 0
5, 67860, Note_on_c, 3, 48, 100
5, 67919, Note_on_c, 3, 48, 0
5, 67920, Note_on_c, 3, 53, 100
5, 68039, Note_on_c, 3, 53, 0
5, 68040, Note_on_c, 3, 61, 100
5, 68099, Note_on_c, 3, 61, 0
5, 68100, Note_on_c, 3, 53, 100
5, 68219, Note_on_c, 3, 53, 0
5, 68220, Note_on_c, 3, 49, 100
5, 68279, Note_on_c, 3, 49, 0
5, 68280, Note_on_c, 3, 55, 100
5, 68399, Note_on_c, 3, 55, 0
5, 68400, Note_on_c, 3, 63, 100
5, 68459, Note_on_c, 3, 63, 0
5, 68460, Note_on_c, 3, 55, 100
5, 68579, Note_on_c, 3, 55, 0
5, 68580, Note_on_c, 3, 51, 100
5, 68639, Note_on_c, 3, 51, 0
5, 68640, Note_on_c, 3, 56, 100
5, 68759, Note_on_c, 3, 56, 0
5, 68820, Note_on_c, 3, 44, 100
5, 68939, Note_on_c, 3, 44, 0
5, 69000, Note_on_c, 3, 56, 100
5, 69119, Note_on_c, 3, 56, 0
5, 69180, Note_on_c, 3, 44, 100
5, 69299, Note_on_c, 3, 44, 0
5, 69360, Note_on_c, 3, 56, 100
5, 69479, Note_on_c, 3, 56, 0
5, 69540, Note_on_c, 3, 44, 100
5, 69659, Note_on_c, 3, 44, 0
5, 69720, Note_on_c, 3, 56, 100
5, 69779, Note_on_c, 3, 56, 0
5, 69780, Note_on_c, 3, 56, 100
5, 69839, Note_on_c, 3, 56, 0
5, 69840, Note_on_c, 3, 56, 100
5, 69899, Note_on_c, 3, 56, 0
5, 69900, Note_on_c, 3, 54, 100
5, 69959, Note_on_c, 3, 54, 0
5, 69960, Note_on_c, 3, 54, 100
5, 70019, Note_on_c, 3, 54, 0
5, 70020, Note_on_c, 3, 54, 100
5, 70079, Note_on_c, 3, 54, 0
5, 70080, Note_on_c, 3, 53, 100
5, 70199, Note_on_c, 3, 53, 0
5, 70200, Note_on_c, 3, 41, 100
5, 70259, Note_on_c, 3, 41, 0
5, 70260, Note_on_c, 3, 41, 100
5, 70379, Note_on_c, 3, 41, 0
5, 70380, Note_on_c, 3, 53, 100
5, 70439, Note_on_c, 3, 53, 0
5, 70440, Note_on_c, 3, 58, 100
5, 70499, Note_on_c, 3, 58, 0
5, 70500, Note_on_c, 3, 58, 100
5, 70559, Note_on_c, 3, 58, 0
5, 70560, Note_on_c, 3, 58, 100
5, 70619, Note_on_c, 3, 58, 0
5, 70620, Note_on_c, 3, 56, 100
5, 70679, Note_on_c, 3, 56, 0
5, 70680, Note_on_c, 3, 56, 100
5, 70739, Note_on_c, 3, 56, 0
5, 70740, Note_on_c, 3, 56, 100
5, 70799, Note_on_c, 3, 56, 0
5, 70800, Note_on_c, 3, 55, 100
5, 70919, Note_on_c, 3, 55, 0
5, 70920, Note_on_c, 3, 43, 100
5, 70979, Note_on_c, 3, 43, 0
5, 70980, Note_on_c, 3, 43, 100
5, 71099, Note_on_c, 3, 43, 0
5, 71100, Note_on_c, 3, 55, 100
5, 71159, Note_on_c, 3, 55, 0
5, 71160, Note_on_c, 3, 60, 100
5, 71279, Note_on_c, 3, 60, 0
5, 71280, Note_on_c, 3, 48, 100
5, 71339, Note_on_c, 3, 48, 0
5, 71340, Note_on_c, 3, 50, 100
5, 71459, Note_on_c, 3, 50, 0
5, 71460, Note_on_c, 3, 46, 100
5, 71519, Note_on_c, 3, 46, 0
5, 71520, Note_on_c, 3, 51, 100
5, 71639, Note_on_c, 3, 51, 0
5, 71640, Note_on_c, 3, 39, 100
5, 71699, Note_on_c, 3, 39, 0
5, 71700, Note_on_c, 3, 41, 100
5, 71819, Note_on_c, 3, 41, 0
5, 71820, Note_on_c, 3, 53, 100
5, 71879, Note_on_c, 3, 53, 0
5, 71880, Note_on_c, 3, 55, 100
5, 71999, Note_on_c, 3, 55, 0
5, 72000, Note_on_c, 3, 43, 100
5, 72059, Note_on_c, 3, 43, 0
5, 72060, Note_on_c, 3, 44, 100
5, 72179, Note_on_c, 3, 44, 0
5, 72180, Note_on_c, 3, 56, 100
5, 72239, Note_on_c, 3, 56, 0
5, 72240, Note_on_c, 3, 56, 100
5, 72359, Note_on_c, 3, 56, 0
5, 72360, Note_on_c, 3, 55, 100
5, 72419, Note_on_c, 3, 55, 0
5, 72420, Note_on_c, 3, 53, 100
5, 72539, Note_on_c, 3, 53, 0
5, 72540, Note_on_c, 3, 58, 100
5, 72599, Note_on_c, 3, 58, 0
5, 72600, Note_on_c, 3, 51, 100
5, 72719, Note_on_c, 3, 51, 0
5, 72720, Note_on_c, 3, 55, 100
5, 72779, Note_on_c, 3, 55, 0
5, 72780, Note_on_c, 3, 48, 100
5, 72899, Note_on_c, 3, 48, 0
5, 72900, Note_on_c, 3, 53, 100
5, 72959, Note_on_c, 3, 53, 0
5, 72960, Note_on_c, 3, 46, 100
5, 73079, Note_on_c, 3, 46, 0
5, 73080, Note_on_c, 3, 58, 100
5, 73139, Note_on_c, 3, 58, 0
5, 73140, Note_on_c, 3, 60, 100
5, 73259, Note_on_c, 3, 60, 0
5, 73260, Note_on_c, 3, 48, 100
5, 73319, Note_on_c, 3, 48, 0
5, 73320, Note_on_c, 3, 50, 100
5, 73439, Note_on_c, 3, 50, 0
5, 73440, Note_on_c, 3, 38, 100
5, 73499, Note_on_c, 3, 38, 0
5, 73500, Note_on_c, 3, 39, 100
5, 73619, Note_on_c, 3, 39, 0
5, 73620, Note_on_c, 3, 51, 100
5, 73679, Note_on_c, 3, 51, 0
5, 73680, Note_on_c, 3, 51, 100
5, 73799, Note_on_c, 3, 51, 0
5, 73800, Note_on_c, 3, 50, 100
5, 73859, Note_on_c, 3, 50, 0
5, 73860, Note_on_c, 3, 48, 100
5, 73979, Note_on_c, 3, 48, 0
5, 73980, Note_on_c, 3, 53, 100
5, 74039, Note_on_c, 3, 53, 0
5, 74040, Note_on_c, 3, 46, 100
5, 74159, Note_on_c, 3, 46, 0
5, 74160, Note_on_c, 3, 44, 100
5, 74219, Note_on_c, 3, 44, 0
5, 74220, Note_on_c, 3, 43, 100
5, 74339, Note_on_c, 3, 43, 0
5, 74340, Note_on_c, 3, 39, 100
5, 74399, Note_on_c, 3, 39, 0
5, 74400, Note_on_c, 3, 44, 100
5, 74519, Note_on_c, 3, 44, 0
5, 74520, Note_on_c, 3, 43, 100
5, 74579, Note_on_c, 3, 43, 0
5, 74580, Note_on_c, 3, 41, 100
5, 74699, Note_on_c, 3, 41, 0
5, 74700, Note_on_c, 3, 38, 100
5, 74759, Note_on_c, 3, 38, 0
5, 74760, Note_on_c, 3, 43, 100
5, 74879, Note_on_c, 3, 43, 0
5, 74880, Note_on_c, 3, 41, 100
5, 74939, Note_on_c, 3, 41, 0
5, 74940, Note_on_c, 3, 39, 100
5, 75059, Note_on_c, 3, 39, 0
5, 75060, Note_on_c, 3, 36, 100
5, 75119, Note_on_c, 3, 36, 0
5, 75120, Note_on_c, 3, 41, 100
5, 75239, Note_on_c, 3, 41, 0
5, 75240, Note_on_c, 3, 39, 100
5, 75299, Note_on_c, 3, 39, 0
5, 75300, Note_on_c, 3, 38, 100
5, 75419, Note_on_c, 3, 38, 0
5, 75420, Note_on_c, 3, 46, 100
5, 75479, Note_on_c, 3, 46, 0
5, 75480, Note_on_c, 3, 39, 100
5, 75599, Note_on_c, 3, 39, 0
5, 75840, Note_on_c, 3, 39, 100
5, 75959, Note_on_c, 3, 39, 0
5, 76200, Note_on_c, 3, 39, 100
5, 76319, Note_on_c, 3, 39, 0
5, 76320, Note_on_c, 3, 51, 100
5, 76379, Note_on_c, 3, 51, 0
5, 76380, Note_on_c, 3, 55, 100
5, 76499, Note_on_c, 3, 55, 0
5, 76500, Note_on_c, 3, 51, 100
5, 76559, Note_on_c, 3, 51, 0
5, 76560, Note_on_c, 3, 56, 100
5, 76679, Note_on_c, 3, 56, 0
5, 76680, Note_on_c, 3, 55, 100
5, 76739, Note_on_c, 3, 55, 0
5, 76740, Note_on_c, 3, 53, 100
5, 76859, Note_on_c, 3, 53, 0
5, 76860, Note_on_c, 3, 50, 100
5, 76919, Note_on_c, 3, 50, 0
5, 76920, Note_on_c, 3, 55, 100
5, 77039, Note_on_c, 3, 55, 0
5, 77040, Note_on_c, 3, 53, 100
5, 77099, Note_on_c, 3, 53, 0
5, 77100, Note_on_c, 3, 51, 100
5, 77219, Note_on_c, 3, 51, 0
5, 77220, Note_on_c, 3, 48, 100
5, 77279, Note_on_c, 3, 48, 0
5, 77280, Note_on_c, 3, 53, 100
5, 77399, Note_on_c, 3, 53, 0
5, 77400, Note_on_c, 3, 51, 100
5, 77459, Note_on_c, 3, 51, 0
5, 77460, Note_on_c, 3, 50, 100
5, 77579, Note_on_c, 3, 50, 0
5, 77580, Note_on_c, 3, 46, 100
5, 77639, Note_on_c, 3, 46, 0
5, 77640, Note_on_c, 3, 51, 100
5, 77759, Note_on_c, 3, 51, 0
5, 77760, Note_on_c, 3, 48, 100
5, 77819, Note_on_c, 3, 48, 0
5, 77820, Note_on_c, 3, 46, 100
5, 77939, Note_on_c, 3, 46, 0
5, 77940, Note_on_c, 3, 46, 100
5, 77999, Note_on_c, 3, 46, 0
5, 78000, Note_on_c, 3, 39, 100
5, 78179, Note_on_c, 3, 39, 0
5, 79560, Note_on_c, 3, 48, 100
5, 79589, Note_on_c, 3, 48, 0
5, 79590, Note_on_c, 3, 50, 100
5, 79619, Note_on_c, 3, 50, 0
5, 79620, Note_on_c, 3, 51, 100
5, 79680, Note_on_c, 3, 51, 0
5, 79800, Note_on_c, 3, 55, 100
5, 79860, Note_on_c, 3, 55, 0
5, 79860, Note_on_c, 3, 48, 100
5, 79920, Note_on_c, 3, 48, 0
5, 80040, Note_on_c, 3, 47, 100
5, 80100, Note_on_c, 3, 47, 0
5, 80100, Note_on_c, 3, 48, 100
5, 80160, Note_on_c, 3, 48, 0
5, 80160, Note_on_c, 3, 50, 100
5, 80220, Note_on_c, 3, 50, 0
5, 80220, Note_on_c, 3, 51, 100
5, 80280, Note_on_c, 3, 51, 0
5, 80280, Note_on_c, 3, 51, 100
5, 80310, Note_on_c, 3, 51, 0
5, 80310, Note_on_c, 3, 50, 100
5, 80340, Note_on_c, 3, 50, 0
5, 80340, Note_on_c, 3, 51, 100
5, 80400, Note_on_c, 3, 51, 0
5, 80400, Note_on_c, 3, 48, 100
5, 80460, Note_on_c, 3, 48, 0
5, 80460, Note_on_c, 3, 56, 100
5, 80520, Note_on_c, 3, 56, 0
5, 80520, Note_on_c, 3, 44, 100
5, 80580, Note_on_c, 3, 44, 0
5, 80640, Note_on_c, 3, 43, 100
5, 80670, Note_on_c, 3, 43, 0
5, 80670, Note_on_c, 3, 45, 100
5, 80700, Note_on_c, 3, 45, 0
5, 80700, Note_on_c, 3, 47, 100
5, 80759, Note_on_c, 3, 47, 0
5, 80760, Note_on_c, 3, 50, 100
5, 80819, Note_on_c, 3, 50, 0
5, 80820, Note_on_c, 3, 55, 100
5, 80879, Note_on_c, 3, 55, 0
5, 80880, Note_on_c, 3, 53, 100
5, 80939, Note_on_c, 3, 53, 0
5, 80940, Note_on_c, 3, 52, 100
5, 80999, Note_on_c, 3, 52, 0
5, 81000, Note_on_c, 3, 52, 100
5, 81059, Note_on_c, 3, 52, 0
5, 81060, Note_on_c, 3, 52, 100
5, 81119, Note_on_c, 3, 52, 0
5, 81120, Note_on_c, 3, 53, 100
5, 81179, Note_on_c, 3, 53, 0
5, 81180, Note_on_c, 3, 58, 100
5, 81239, Note_on_c, 3, 58, 0
5, 81240, Note_on_c, 3, 56, 100
5, 81299, Note_on_c, 3, 56, 0
5, 81300, Note_on_c, 3, 55, 100
5, 81359, Note_on_c, 3, 55, 0
5, 81360, Note_on_c, 3, 53, 100
5, 81419, Note_on_c, 3, 53, 0
5, 81420, Note_on_c, 3, 52, 100
5, 81479, Note_on_c, 3, 52, 0
5, 81480, Note_on_c, 3, 53, 100
5, 81539, Note_on_c, 3, 53, 0
5, 81540, Note_on_c, 3, 41, 100
5, 81599, Note_on_c, 3, 41, 0
5, 81600, Note_on_c, 3, 53, 100
5, 81659, Note_on_c, 3, 53, 0
5, 81660, Note_on_c, 3, 54, 100
5, 81719, Note_on_c, 3, 54, 0
5, 81720, Note_on_c, 3, 54, 100
5, 81779, Note_on_c, 3, 54, 0
5, 81780, Note_on_c, 3, 54, 100
5, 81839, Note_on_c, 3, 54, 0
5, 81840, Note_on_c, 3, 55, 100
5, 81899, Note_on_c, 3, 55, 0
5, 81900, Note_on_c, 3, 60, 100
5, 81959, Note_on_c, 3, 60, 0
5, 81960, Note_on_c, 3, 58, 100
5, 82019, Note_on_c, 3, 58, 0
5, 82020, Note_on_c, 3, 57, 100
5, 82079, Note_on_c, 3, 57, 0
5, 82080, Note_on_c, 3, 55, 100
5, 82139, Note_on_c, 3, 55, 0
5, 82140, Note_on_c, 3, 54, 100
5, 82199, Note_on_c, 3, 54, 0
5, 82200, Note_on_c, 3, 55, 100
5, 82259, Note_on_c, 3, 55, 0
5, 82260, Note_on_c, 3, 43, 100
5, 82319, Note_on_c, 3, 43, 0
5, 82320, Note_on_c, 3, 55, 100
5, 82379, Note_on_c, 3, 55, 0
5, 82380, Note_on_c, 3, 51, 100
5, 82439, Note_on_c, 3, 51, 0
5, 82440, Note_on_c, 3, 48, 100
5, 82499, Note_on_c, 3, 48, 0
5, 82560, Note_on_c, 3, 55, 100
5, 82619, Note_on_c, 3, 55, 0
5, 82620, Note_on_c, 3, 53, 100
5, 82679, Note_on_c, 3, 53, 0
5, 82680, Note_on_c, 3, 51, 100
5, 82739, Note_on_c, 3, 51, 0
5, 82740, Note_on_c, 3, 50, 100
5, 82799, Note_on_c, 3, 50, 0
5, 82800, Note_on_c, 3, 48, 100
5, 82859, Note_on_c, 3, 48, 0
5, 82860, Note_on_c, 3, 47, 100
5, 82919, Note_on_c, 3, 47, 0
5, 82920, Note_on_c, 3, 43, 100
5, 82979, Note_on_c, 3, 43, 0
5, 82980, Note_on_c, 3, 55, 100
5, 83039, Note_on_c, 3, 55, 0
5, 83040, Note_on_c, 3, 43, 100
5, 83099, Note_on_c, 3, 43, 0
5, 83100, Note_on_c, 3, 48, 100
5, 83159, Note_on_c, 3, 48, 0
5, 83160, Note_on_c, 3, 53, 100
5, 83219, Note_on_c, 3, 53, 0
5, 83220, Note_on_c, 3, 51, 100
5, 83279, Note_on_c, 3, 51, 0
5, 83280, Note_on_c, 3, 39, 100
5, 83339, Note_on_c, 3, 39, 0
5, 83340, Note_on_c, 3, 38, 100
5, 83399, Note_on_c, 3, 38, 0
5, 83400, Note_on_c, 3, 50, 100
5, 83459, Note_on_c, 3, 50, 0
5, 83460, Note_on_c, 3, 55, 100
5, 83519, Note_on_c, 3, 55, 0
5, 83820, Note_on_c, 3, 43, 100
5, 83879, Note_on_c, 3, 43, 0
5, 84180, Note_on_c, 3, 55, 100
5, 84239, Note_on_c, 3, 55, 0
5, 84540, Note_on_c, 3, 48, 100
5, 84660, Note_on_c, 3, 48, 0
5, 84720, Note_on_c, 3, 48, 100
5, 84780, Note_on_c, 3, 48, 0
5, 84780, Note_on_c, 3, 53, 100
5, 84840, Note_on_c, 3, 53, 0
5, 84840, Note_on_c, 3, 50, 100
5, 84900, Note_on_c, 3, 50, 0
5, 84900, Note_on_c, 3, 51, 100
5, 85020, Note_on_c, 3, 51, 0
5, 85080, Note_on_c, 3, 48, 100
5, 85140, Note_on_c, 3, 48, 0
5, 85140, Note_on_c, 3, 51, 100
5, 85200, Note_on_c, 3, 51, 0
5, 85200, Note_on_c, 3, 48, 100
5, 85260, Note_on_c, 3, 48, 0
5, 85260, Note_on_c, 3, 50, 100
5, 85380, Note_on_c, 3, 50, 0
5, 85440, Note_on_c, 3, 53, 100
5, 85500, Note_on_c, 3, 53, 0
5, 85500, Note_on_c, 3, 43, 100
5, 85560, Note_on_c, 3, 43, 0
5, 85560, Note_on_c, 3, 47, 100
5, 85620, Note_on_c, 3, 47, 0
5, 85620, Note_on_c, 3, 48, 100
5, 85650, Note_on_c, 3, 48, 0
5, 85650, Note_on_c, 3, 60, 100
5, 85680, Note_on_c, 3, 60, 0
5, 85680, Note_on_c, 3, 58, 100
5, 85710, Note_on_c, 3, 58, 0
5, 85710, Note_on_c, 3, 56, 100
5, 85740, Note_on_c, 3, 56, 0
5, 85740, Note_on_c, 3, 55, 100
5, 85770, Note_on_c, 3, 55, 0
5, 85770, Note_on_c, 3, 53, 100
5, 85800, Note_on_c, 3, 53, 0
5, 85800, Note_on_c, 3, 51, 100
5, 85830, Note_on_c, 3, 51, 0
5, 85830, Note_on_c, 3, 50, 100
5, 85860, Note_on_c, 3, 50, 0
5, 85860, Note_on_c, 3, 48, 100
5, 85890, Note_on_c, 3, 48, 0
5, 85890, Note_on_c, 3, 51, 100
5, 85920, Note_on_c, 3, 51, 0
5, 85920, Note_on_c, 3, 50, 100
5, 85950, Note_on_c, 3, 50, 0
5, 85950, Note_on_c, 3, 48, 100
5, 85980, Note_on_c, 3, 48, 0
5, 85980, Note_on_c, 3, 47, 100
5, 86010, Note_on_c, 3, 47, 0
5, 86010, Note_on_c, 3, 43, 100
5, 86040, Note_on_c, 3, 43, 0
5, 86040, Note_on_c, 3, 45, 100
5, 86070, Note_on_c, 3, 45, 0
5, 86070, Note_on_c, 3, 47, 100
5, 86100, Note_on_c, 3, 47, 0
5, 86100, Note_on_c, 3, 48, 100
5, 86130, Note_on_c, 3, 48, 0
5, 86130, Note_on_c, 3, 50, 100
5, 86160, Note_on_c, 3, 50, 0
5, 86160, Note_on_c, 3, 51, 100
5, 86190, Note_on_c, 3, 51, 0
5, 86190, Note_on_c, 3, 53, 100
5, 86220, Note_on_c, 3, 53, 0
5, 86220, Note_on_c, 3, 55, 100
5, 86280, Note_on_c, 3, 55, 0
5, 86280, Note_on_c, 3, 43, 100
5, 86340, Note_on_c, 3, 43, 0
5, 86340, Note_on_c, 3, 48, 100
5, 86400, Note_on_c, 3, 48, 0
5, 86400, Note_on_c, 3, 36, 100
5, 86460, Note_on_c, 3, 36, 0
5, 86460, Note_on_c, 3, 36, 100
5, 86520, Note_on_c, 3, 36, 0
5, 86520, Note_on_c, 3, 36, 100
5, 86580, Note_on_c, 3, 36, 0
5, 86580, Note_on_c, 3, 36, 100
5, 86640, Note_on_c, 3, 36, 0
5, 86640, Note_on_c, 3, 36, 100
5, 86700, Note_on_c, 3, 36, 0
5, 86700, Note_on_c, 3, 36, 100
5, 86820, Note_on_c, 3, 36, 0
5, 86880, Note_on_c, 3, 48, 100
5, 86940, Note_on_c, 3, 48, 0
5, 86940, Note_on_c, 3, 50, 100
5, 87000, Note_on_c, 3, 50, 0
5, 87000, Note_on_c, 3, 51, 100
5, 87060, Note_on_c, 3, 51, 0
5, 87060, Note_on_c, 3, 53, 100
5, 87090, Note_on_c, 3, 53, 0
5, 87090, Note_on_c, 3, 55, 100
5, 87120, Note_on_c, 3, 55, 0
5, 87120, Note_on_c, 3, 56, 100
5, 87180, Note_on_c, 3, 56, 0
5, 87240, Note_on_c, 3, 53, 100
5, 87299, Note_on_c, 3, 53, 0
5, 87300, Note_on_c, 3, 55, 100
5, 87359, Note_on_c, 3, 55, 0
5, 87360, Note_on_c, 3, 56, 100
5, 87419, Note_on_c, 3, 56, 0
5, 87420, Note_on_c, 3, 47, 100
5, 87449, Note_on_c, 3, 47, 0
5, 87450, Note_on_c, 3, 48, 100
5, 87479, Note_on_c, 3, 48, 0
5, 87480, Note_on_c, 3, 50, 100
5, 87539, Note_on_c, 3, 50, 0
5, 87600, Note_on_c, 3, 47, 100
5, 87659, Note_on_c, 3, 47, 0
5, 87660, Note_on_c, 3, 48, 100
5, 87719, Note_on_c, 3, 48, 0
5, 87720, Note_on_c, 3, 50, 100
5, 87779, Note_on_c, 3, 50, 0
5, 87780, Note_on_c, 3, 51, 100
5, 87809, Note_on_c, 3, 51, 0
5, 87810, Note_on_c, 3, 53, 100
5, 87839, Note_on_c, 3, 53, 0
5, 87840, Note_on_c, 3, 55, 100
5, 87899, Note_on_c, 3, 55, 0
5, 87960, Note_on_c, 3, 43, 100
5, 88019, Note_on_c, 3, 43, 0
5, 88020, Note_on_c, 3, 39, 100
5, 88079, Note_on_c, 3, 39, 0
5, 88080, Note_on_c, 3, 43, 100
5, 88139, Note_on_c, 3, 43, 0
5, 88140, Note_on_c, 3, 36, 100
5, 88259, Note_on_c, 3, 36, 0
5, 88320, Note_on_c, 3, 36, 100
5, 88379, Note_on_c, 3, 36, 0
5, 88380, Note_on_c, 3, 43, 100
5, 88439, Note_on_c, 3, 43, 0
5, 88440, Note_on_c, 3, 48, 100
5, 88499, Note_on_c, 3, 48, 0
5, 88500, Note_on_c, 3, 43, 100
5, 88620, Note_on_c, 3, 43, 0
5, 88680, Note_on_c, 3, 43, 100
5, 88739, Note_on_c, 3, 43, 0
5, 88740, Note_on_c, 3, 47, 100
5, 88799, Note_on_c, 3, 47, 0
5, 88800, Note_on_c, 3, 50, 100
5, 88859, Note_on_c, 3, 50, 0
5, 88860, Note_on_c, 3, 55, 100
5, 88979, Note_on_c, 3, 55, 0
5, 89040, Note_on_c, 3, 50, 100
5, 89099, Note_on_c, 3, 50, 0
5, 89100, Note_on_c, 3, 47, 100
5, 89159, Note_on_c, 3, 47, 0
5, 89160, Note_on_c, 3, 43, 100
5, 89219, Note_on_c, 3, 43, 0
5, 89220, Note_on_c, 3, 48, 100
5, 89339, Note_on_c, 3, 48, 0
5, 89400, Note_on_c, 3, 43, 100
5, 89459, Note_on_c, 3, 43, 0
5, 89460, Note_on_c, 3, 39, 100
5, 89519, Note_on_c, 3, 39, 0
5, 89520, Note_on_c, 3, 43, 100
5, 89579, Note_on_c, 3, 43, 0
5, 89580, Note_on_c, 3, 36, 100
5, 89699, Note_on_c, 3, 36, 0
5, 89760, Note_on_c, 3, 48, 100
5, 89819, Note_on_c, 3, 48, 0
5, 89820, Note_on_c, 3, 52, 100
5, 89879, Note_on_c, 3, 52, 0
5, 89880, Note_on_c, 3, 48, 100
5, 89939, Note_on_c, 3, 48, 0
5, 89940, Note_on_c, 3, 53, 100
5, 90059, Note_on_c, 3, 53, 0
5, 90120, Note_on_c, 3, 53, 100
5, 90179, Note_on_c, 3, 53, 0
5, 90180, Note_on_c, 3, 45, 100
5, 90239, Note_on_c, 3, 45, 0
5, 90240, Note_on_c, 3, 41, 100
5, 90299, Note_on_c, 3, 41, 0
5, 90300, Note_on_c, 3, 46, 100
5, 90419, Note_on_c, 3, 46, 0
5, 90480, Note_on_c, 3, 46, 100
5, 90539, Note_on_c, 3, 46, 0
5, 90540, Note_on_c, 3, 50, 100
5, 90599, Note_on_c, 3, 50, 0
5, 90600, Note_on_c, 3, 46, 100
5, 90659, Note_on_c, 3, 46, 0
5, 90660, Note_on_c, 3, 51, 100
5, 90779, Note_on_c, 3, 51, 0
5, 90840, Note_on_c, 3, 51, 100
5, 90899, Note_on_c, 3, 51, 0
5, 90900, Note_on_c, 3, 43, 100
5, 90959, Note_on_c, 3, 43, 0
5, 90960, Note_on_c, 3, 39, 100
5, 91019, Note_on_c, 3, 39, 0
5, 91020, Note_on_c, 3, 44, 100
5, 91139, Note_on_c, 3, 44, 0
5, 91200, Note_on_c, 3, 48, 100
5, 91259, Note_on_c, 3, 48, 0
5, 91260, Note_on_c, 3, 41, 100
5, 91319, Note_on_c, 3, 41, 0
5, 91320, Note_on_c, 3, 44, 100
5, 91379, Note_on_c, 3, 44, 0
5, 91380, Note_on_c, 3, 46, 100
5, 91499, Note_on_c, 3, 46, 0
5, 91560, Note_on_c, 3, 50, 100
5, 91619, Note_on_c, 3, 50, 0
5, 91620, Note_on_c, 3, 43, 100
5, 91679, Note_on_c, 3, 43, 0
5, 91680, Note_on_c, 3, 46, 100
5, 91739, Note_on_c, 3, 46, 0
5, 91740, Note_on_c, 3, 48, 100
5, 91859, Note_on_c, 3, 48, 0
5, 91920, Note_on_c, 3, 51, 100
5, 91979, Note_on_c, 3, 51, 0
5, 91980, Note_on_c, 3, 44, 100
5, 92039, Note_on_c, 3, 44, 0
5, 92040, Note_on_c, 3, 48, 100
5, 92099, Note_on_c, 3, 48, 0
5, 92100, Note_on_c, 3, 50, 100
5, 92219, Note_on_c, 3, 50, 0
5, 92280, Note_on_c, 3, 53, 100
5, 92339, Note_on_c, 3, 53, 0
5, 92340, Note_on_c, 3, 58, 100
5, 92399, Note_on_c, 3, 58, 0
5, 92400, Note_on_c, 3, 46, 100
5, 92459, Note_on_c, 3, 46, 0
5, 92460, Note_on_c, 3, 51, 100
5, 92519, Note_on_c, 3, 51, 0
5, 92520, Note_on_c, 3, 39, 100
5, 92549, Note_on_c, 3, 39, 0
5, 92550, Note_on_c, 3, 41, 100
5, 92579, Note_on_c, 3, 41, 0
5, 92580, Note_on_c, 3, 43, 100
5, 92639, Note_on_c, 3, 43, 0
5, 92760, Note_on_c, 3, 46, 100
5, 92819, Note_on_c, 3, 46, 0
5, 92820, Note_on_c, 3, 39, 100
5, 92879, Note_on_c, 3, 39, 0
5, 93000, Note_on_c, 3, 50, 100
5, 93059, Note_on_c, 3, 50, 0
5, 93060, Note_on_c, 3, 51, 100
5, 93119, Note_on_c, 3, 51, 0
5, 93120, Note_on_c, 3, 53, 100
5, 93179, Note_on_c, 3, 53, 0
5, 93180, Note_on_c, 3, 55, 100
5, 93239, Note_on_c, 3, 55, 0
5, 93240, Note_on_c, 3, 55, 100
5, 93270, Note_on_c, 3, 55, 0
5, 93270, Note_on_c, 3, 53, 100
5, 93300, Note_on_c, 3, 53, 0
5, 93300, Note_on_c, 3, 55, 100
5, 93359, Note_on_c, 3, 55, 0
5, 93360, Note_on_c, 3, 51, 100
5, 93419, Note_on_c, 3, 51, 0
5, 93420, Note_on_c, 3, 60, 100
5, 93479, Note_on_c, 3, 60, 0
5, 93480, Note_on_c, 3, 48, 100
5, 93539, Note_on_c, 3, 48, 0
5, 93600, Note_on_c, 3, 46, 100
5, 93659, Note_on_c, 3, 46, 0
5, 93660, Note_on_c, 3, 50, 100
5, 93719, Note_on_c, 3, 50, 0
5, 93720, Note_on_c, 3, 53, 100
5, 93779, Note_on_c, 3, 53, 0
5, 93780, Note_on_c, 3, 58, 100
5, 93809, Note_on_c, 3, 58, 0
5, 93810, Note_on_c, 3, 46, 100
5, 93839, Note_on_c, 3, 46, 0
5, 93840, Note_on_c, 3, 44, 100
5, 93869, Note_on_c, 3, 44, 0
5, 93870, Note_on_c, 3, 46, 100
5, 93899, Note_on_c, 3, 46, 0
5, 93900, Note_on_c, 3, 43, 100
5, 93959, Note_on_c, 3, 43, 0
5, 94170, Note_on_c, 3, 55, 100
5, 94199, Note_on_c, 3, 55, 0
5, 94200, Note_on_c, 3, 53, 100
5, 94229, Note_on_c, 3, 53, 0
5, 94230, Note_on_c, 3, 55, 100
5, 94259, Note_on_c, 3, 55, 0
5, 94260, Note_on_c, 3, 48, 100
5, 94320, Note_on_c, 3, 48, 0
5, 94530, Note_on_c, 3, 48, 100
5, 94559, Note_on_c, 3, 48, 0
5, 94560, Note_on_c, 3, 50, 100
5, 94589, Note_on_c, 3, 50, 0
5, 94590, Note_on_c, 3, 51, 100
5, 94619, Note_on_c, 3, 51, 0
5, 94620, Note_on_c, 3, 50, 100
5, 94679, Note_on_c, 3, 50, 0
5, 94890, Note_on_c, 3, 50, 100
5, 94919, Note_on_c, 3, 50, 0
5, 94920, Note_on_c, 3, 48, 100
5, 94949, Note_on_c, 3, 48, 0
5, 94950, Note_on_c, 3, 50, 100
5, 94979, Note_on_c, 3, 50, 0
5, 94980, Note_on_c, 3, 43, 100
5, 95039, Note_on_c, 3, 43, 0
5, 95250, Note_on_c, 3, 43, 100
5, 95279, Note_on_c, 3, 43, 0
5, 95280, Note_on_c, 3, 42, 100
5, 95309, Note_on_c, 3, 42, 0
5, 95310, Note_on_c, 3, 43, 100
5, 95339, Note_on_c, 3, 43, 0
5, 95340, Note_on_c, 3, 36, 100
5, 95459, Note_on_c, 3, 36, 0
5, 95520, Note_on_c, 3, 48, 100
5, 95579, Note_on_c, 3, 48, 0
5, 95580, Note_on_c, 3, 45, 100
5, 95639, Note_on_c, 3, 45, 0
5, 95640, Note_on_c, 3, 41, 100
5, 95699, Note_on_c, 3, 41, 0
5, 95700, Note_on_c, 3, 46, 100
5, 95819, Note_on_c, 3, 46, 0
5, 95880, Note_on_c, 3, 46, 100
5, 95939, Note_on_c, 3, 46, 0
5, 95940, Note_on_c, 3, 43, 100
5, 95999, Note_on_c, 3, 43, 0
5, 96000, Note_on_c, 3, 39, 100
5, 96059, Note_on_c, 3, 39, 0
5, 96060, Note_on_c, 3, 45, 100
5, 96179, Note_on_c, 3, 45, 0
5, 96240, Note_on_c, 3, 45, 100
5, 96299, Note_on_c, 3, 45, 0
5, 96300, Note_on_c, 3, 50, 100
5, 96359, Note_on_c, 3, 50, 0
5, 96360, Note_on_c, 3, 38, 100
5, 96419, Note_on_c, 3, 38, 0
5, 96420, Note_on_c, 3, 43, 100
5, 96539, Note_on_c, 3, 43, 0
5, 96600, Note_on_c, 3, 55, 100
5, 96659, Note_on_c, 3, 55, 0
5, 96660, Note_on_c, 3, 57, 100
5, 96719, Note_on_c, 3, 57, 0
5, 96720, Note_on_c, 3, 58, 100
5, 96779, Note_on_c, 3, 58, 0
5, 96780, Note_on_c, 3, 60, 100
5, 96809, Note_on_c, 3, 60, 0
5, 96810, Note_on_c, 3, 62, 100
5, 96839, Note_on_c, 3, 62, 0
5, 96840, Note_on_c, 3, 63, 100
5, 96899, Note_on_c, 3, 63, 0
5, 96960, Note_on_c, 3, 60, 100
5, 97019, Note_on_c, 3, 60, 0
5, 97020, Note_on_c, 3, 62, 100
5, 97079, Note_on_c, 3, 62, 0
5, 97080, Note_on_c, 3, 63, 100
5, 97139, Note_on_c, 3, 63, 0
5, 97140, Note_on_c, 3, 54, 100
5, 97169, Note_on_c, 3, 54, 0
5, 97170, Note_on_c, 3, 55, 100
5, 97199, Note_on_c, 3, 55, 0
5, 97200, Note_on_c, 3, 57, 100
5, 97259, Note_on_c, 3, 57, 0
5, 97320, Note_on_c, 3, 54, 100
5, 97379, Note_on_c, 3, 54, 0
5, 97380, Note_on_c, 3, 55, 100
5, 97439, Note_on_c, 3, 55, 0
5, 97440, Note_on_c, 3, 57, 100
5, 97499, Note_on_c, 3, 57, 0
5, 97500, Note_on_c, 3, 58, 100
5, 97529, Note_on_c, 3, 58, 0
5, 97530, Note_on_c, 3, 60, 100
5, 97559, Note_on_c, 3, 60, 0
5, 97560, Note_on_c, 3, 62, 100
5, 97619, Note_on_c, 3, 62, 0
5, 97680, Note_on_c, 3, 50, 100
5, 97739, Note_on_c, 3, 50, 0
5, 97740, Note_on_c, 3, 46, 100
5, 97799, Note_on_c, 3, 46, 0
5, 97800, Note_on_c, 3, 50, 100
5, 97859, Note_on_c, 3, 50, 0
5, 97860, Note_on_c, 3, 43, 100
5, 97979, Note_on_c, 3, 43, 0
5, 98040, Note_on_c, 3, 43, 100
5, 98099, Note_on_c, 3, 43, 0
5, 98100, Note_on_c, 3, 50, 100
5, 98159, Note_on_c, 3, 50, 0
5, 98160, Note_on_c, 3, 55, 100
5, 98219, Note_on_c, 3, 55, 0
5, 98220, Note_on_c, 3, 50, 100
5, 98339, Note_on_c, 3, 50, 0
5, 98400, Note_on_c, 3, 50, 100
5, 98459, Note_on_c, 3, 50, 0
5, 98460, Note_on_c, 3, 54, 100
5, 98519, Note_on_c, 3, 54, 0
5, 98520, Note_on_c, 3, 57, 100
5, 98579, Note_on_c, 3, 57, 0
5, 98580, Note_on_c, 3, 62, 100
5, 98699, Note_on_c, 3, 62, 0
5, 98760, Note_on_c, 3, 57, 100
5, 98819, Note_on_c, 3, 57, 0
5, 98820, Note_on_c, 3, 54, 100
5, 98879, Note_on_c, 3, 54, 0
5, 98880, Note_on_c, 3, 50, 100
5, 98939, Note_on_c, 3, 50, 0
5, 98940, Note_on_c, 3, 55, 100
5, 99059, Note_on_c, 3, 55, 0
5, 99120, Note_on_c, 3, 50, 100
5, 99179, Note_on_c, 3, 50, 0
5, 99180, Note_on_c, 3, 46, 100
5, 99239, Note_on_c, 3, 46, 0
5, 99240, Note_on_c, 3, 50, 100
5, 99299, Note_on_c, 3, 50, 0
5, 99300, Note_on_c, 3, 43, 100
5, 99419, Note_on_c, 3, 43, 0
5, 99480, Note_on_c, 3, 55, 100
5, 99539, Note_on_c, 3, 55, 0
5, 99540, Note_on_c, 3, 59, 100
5, 99599, Note_on_c, 3, 59, 0
5, 99600, Note_on_c, 3, 55, 100
5, 99659, Note_on_c, 3, 55, 0
5, 99660, Note_on_c, 3, 60, 100
5, 99779, Note_on_c, 3, 60, 0
5, 99840, Note_on_c, 3, 60, 100
5, 99899, Note_on_c, 3, 60, 0
5, 99900, Note_on_c, 3, 52, 100
5, 99959, Note_on_c, 3, 52, 0
5, 99960, Note_on_c, 3, 48, 100
5, 100019, Note_on_c, 3, 48, 0
5, 100020, Note_on_c, 3, 53, 100
5, 100139, Note_on_c, 3, 53, 0
5, 100200, Note_on_c, 3, 53, 100
5, 100259, Note_on_c, 3, 53, 0
5, 100260, Note_on_c, 3, 57, 100
5, 100319, Note_on_c, 3, 57, 0
5, 100320, Note_on_c, 3, 53, 100
5, 100379, Note_on_c, 3, 53, 0
5, 100380, Note_on_c, 3, 58, 100
5, 100499, Note_on_c, 3, 58, 0
5, 100560, Note_on_c, 3, 58, 100
5, 100619, Note_on_c, 3, 58, 0
5, 100620, Note_on_c, 3, 50, 100
5, 100679, Note_on_c, 3, 50, 0
5, 100680, Note_on_c, 3, 46, 100
5, 100739, Note_on_c, 3, 46, 0
5, 100740, Note_on_c, 3, 51, 100
5, 100859, Note_on_c, 3, 51, 0
5, 100920, Note_on_c, 3, 51, 100
5, 100979, Note_on_c, 3, 51, 0
5, 100980, Note_on_c, 3, 50, 100
5, 101039, Note_on_c, 3, 50, 0
5, 101040, Note_on_c, 3, 48, 100
5, 101099, Note_on_c, 3, 48, 0
5, 101100, Note_on_c, 3, 47, 100
5, 101159, Note_on_c, 3, 47, 0
5, 101160, Note_on_c, 3, 47, 100
5, 101219, Note_on_c, 3, 47, 0
5, 101220, Note_on_c, 3, 47, 100
5, 101279, Note_on_c, 3, 47, 0
5, 101280, Note_on_c, 3, 48, 100
5, 101339, Note_on_c, 3, 48, 0
5, 101340, Note_on_c, 3, 53, 100
5, 101399, Note_on_c, 3, 53, 0
5, 101400, Note_on_c, 3, 51, 100
5, 101459, Note_on_c, 3, 51, 0
5, 101460, Note_on_c, 3, 50, 100
5, 101519, Note_on_c, 3, 50, 0
5, 101520, Note_on_c, 3, 48, 100
5, 101579, Note_on_c, 3, 48, 0
5, 101580, Note_on_c, 3, 47, 100
5, 101639, Note_on_c, 3, 47, 0
5, 101640, Note_on_c, 3, 48, 100
5, 101699, Note_on_c, 3, 48, 0
5, 101700, Note_on_c, 3, 36, 100
5, 101759, Note_on_c, 3, 36, 0
5, 101760, Note_on_c, 3, 48, 100
5, 101819, Note_on_c, 3, 48, 0
5, 101820, Note_on_c, 3, 49, 100
5, 101879, Note_on_c, 3, 49, 0
5, 101880, Note_on_c, 3, 49, 100
5, 101939, Note_on_c, 3, 49, 0
5, 101940, Note_on_c, 3, 49, 100
5, 101999, Note_on_c, 3, 49, 0
5, 102000, Note_on_c, 3, 50, 100
5, 102059, Note_on_c, 3, 50, 0
5, 102060, Note_on_c, 3, 55, 100
5, 102119, Note_on_c, 3, 55, 0
5, 102120, Note_on_c, 3, 53, 100
5, 102179, Note_on_c, 3, 53, 0
5, 102180, Note_on_c, 3, 52, 100
5, 102239, Note_on_c, 3, 52, 0
5, 102240, Note_on_c, 3, 50, 100
5, 102299, Note_on_c, 3, 50, 0
5, 102300, Note_on_c, 3, 49, 100
5, 102359, Note_on_c, 3, 49, 0
5, 102360, Note_on_c, 3, 50, 100
5, 102419, Note_on_c, 3, 50, 0
5, 102420, Note_on_c, 3, 42, 100
5, 102479, Note_on_c, 3, 42, 0
5, 102480, Note_on_c, 3, 45, 100
5, 102539, Note_on_c, 3, 45, 0
5, 102540, Note_on_c, 3, 38, 100
5, 102599, Note_on_c, 3, 38, 0
5, 102900, Note_on_c, 3, 38, 100
5, 102959, Note_on_c, 3, 38, 0
5, 103260, Note_on_c, 3, 43, 100
5, 103379, Note_on_c, 3, 43, 0
5, 103440, Note_on_c, 3, 43, 100
5, 103499, Note_on_c, 3, 43, 0
5, 103500, Note_on_c, 3, 48, 100
5, 103559, Note_on_c, 3, 48, 0
5, 103560, Note_on_c, 3, 45, 100
5, 103619, Note_on_c, 3, 45, 0
5, 103620, Note_on_c, 3, 46, 100
5, 103739, Note_on_c, 3, 46, 0
5, 103800, Note_on_c, 3, 43, 100
5, 103859, Note_on_c, 3, 43, 0
5, 103860, Note_on_c, 3, 46, 100
5, 103919, Note_on_c, 3, 46, 0
5, 103920, Note_on_c, 3, 43, 100
5, 103979, Note_on_c, 3, 43, 0
5, 103980, Note_on_c, 3, 45, 100
5, 104099, Note_on_c, 3, 45, 0
5, 104160, Note_on_c, 3, 48, 100
5, 104219, Note_on_c, 3, 48, 0
5, 104220, Note_on_c, 3, 38, 100
5, 104279, Note_on_c, 3, 38, 0
5, 104280, Note_on_c, 3, 42, 100
5, 104339, Note_on_c, 3, 42, 0
5, 104340, Note_on_c, 3, 43, 100
5, 104369, Note_on_c, 3, 43, 0
5, 104370, Note_on_c, 3, 55, 100
5, 104399, Note_on_c, 3, 55, 0
5, 104400, Note_on_c, 3, 53, 100
5, 104429, Note_on_c, 3, 53, 0
5, 104430, Note_on_c, 3, 51, 100
5, 104459, Note_on_c, 3, 51, 0
5, 104460, Note_on_c, 3, 50, 100
5, 104489, Note_on_c, 3, 50, 0
5, 104490, Note_on_c, 3, 48, 100
5, 104519, Note_on_c, 3, 48, 0
5, 104520, Note_on_c, 3, 46, 100
5, 104549, Note_on_c, 3, 46, 0
5, 104550, Note_on_c, 3, 45, 100
5, 104579, Note_on_c, 3, 45, 0
5, 104580, Note_on_c, 3, 43, 100
5, 104609, Note_on_c, 3, 43, 0
5, 104610, Note_on_c, 3, 46, 100
5, 104639, Note_on_c, 3, 46, 0
5, 104640, Note_on_c, 3, 45, 100
5, 104669, Note_on_c, 3, 45, 0
5, 104670, Note_on_c, 3, 43, 100
5, 104699, Note_on_c, 3, 43, 0
5, 104700, Note_on_c, 3, 42, 100
5, 104729, Note_on_c, 3, 42, 0
5, 104730, Note_on_c, 3, 38, 100
5, 104759, Note_on_c, 3, 38, 0
5, 104760, Note_on_c, 3, 40, 100
5, 104789, Note_on_c, 3, 40, 0
5, 104790, Note_on_c, 3, 42, 100
5, 104819, Note_on_c, 3, 42, 0
5, 104820, Note_on_c, 3, 43, 100
5, 104849, Note_on_c, 3, 43, 0
5, 104850, Note_on_c, 3, 45, 100
5, 104879, Note_on_c, 3, 45, 0
5, 104880, Note_on_c, 3, 46, 100
5, 104909, Note_on_c, 3, 46, 0
5, 104910, Note_on_c, 3, 48, 100
5, 104939, Note_on_c, 3, 48, 0
5, 104940, Note_on_c, 3, 50, 100
5, 104999, Note_on_c, 3, 50, 0
5, 105000, Note_on_c, 3, 38, 100
5, 105059, Note_on_c, 3, 38, 0
5, 105060, Note_on_c, 3, 43, 100
5, 105179, Note_on_c, 3, 43, 0
5, 105420, Note_on_c, 3, 43, 100
5, 105539, Note_on_c, 3, 43, 0
5, 105780, Note_on_c, 3, 44, 100
5, 105899, Note_on_c, 3, 44, 0
5, 106140, Note_on_c, 3, 43, 100
5, 106259, Note_on_c, 3, 43, 0
5, 106500, Note_on_c, 3, 41, 100
5, 106619, Note_on_c, 3, 41, 0
5, 106860, Note_on_c, 3, 41, 100
5, 106979, Note_on_c, 3, 41, 0
5, 107220, Note_on_c, 3, 43, 100
5, 107339, Note_on_c, 3, 43, 0
5, 107580, Note_on_c, 3, 41, 100
5, 107699, Note_on_c, 3, 41, 0
5, 107940, Note_on_c, 3, 39, 100
5, 108059, Note_on_c, 3, 39, 0
5, 108300, Note_on_c, 3, 38, 100
5, 108419, Note_on_c, 3, 38, 0
5, 108540, Note_on_c, 3, 43, 100
5, 108659, Note_on_c, 3, 43, 0
5, 108660, Note_on_c, 3, 48, 100
5, 108779, Note_on_c, 3, 48, 0
5, 109020, Note_on_c, 3, 46, 100
5, 109139, Note_on_c, 3, 46, 0
5, 109260, Note_on_c, 3, 51, 100
5, 109379, Note_on_c, 3, 51, 0
5, 109380, Note_on_c, 3, 44, 100
5, 109499, Note_on_c, 3, 44, 0
5, 109740, Note_on_c, 3, 43, 100
5, 109859, Note_on_c, 3, 43, 0
5, 109980, Note_on_c, 3, 48, 100
5, 110099, Note_on_c, 3, 48, 0
5, 110100, Note_on_c, 3, 53, 100
5, 110129, Note_on_c, 3, 53, 0
5, 110130, Note_on_c, 3, 52, 100
5, 110159, Note_on_c, 3, 52, 0
5, 110160, Note_on_c, 3, 53, 100
5, 110189, Note_on_c, 3, 53, 0
5, 110190, Note_on_c, 3, 55, 100
5, 110219, Note_on_c, 3, 55, 0
5, 110220, Note_on_c, 3, 56, 100
5, 110279, Note_on_c, 3, 56, 0
5, 110400, Note_on_c, 3, 60, 100
5, 110459, Note_on_c, 3, 60, 0
5, 110460, Note_on_c, 3, 53, 100
5, 110519, Note_on_c, 3, 53, 0
5, 110640, Note_on_c, 3, 52, 100
5, 110699, Note_on_c, 3, 52, 0
5, 110700, Note_on_c, 3, 53, 100
5, 110759, Note_on_c, 3, 53, 0
5, 110760, Note_on_c, 3, 55, 100
5, 110819, Note_on_c, 3, 55, 0
5, 110820, Note_on_c, 3, 56, 100
5, 110879, Note_on_c, 3, 56, 0
5, 110880, Note_on_c, 3, 56, 100
5, 110909, Note_on_c, 3, 56, 0
5, 110910, Note_on_c, 3, 55, 100
5, 110939, Note_on_c, 3, 55, 0
5, 110940, Note_on_c, 3, 56, 100
5, 110999, Note_on_c, 3, 56, 0
5, 111000, Note_on_c, 3, 53, 100
5, 111059, Note_on_c, 3, 53, 0
5, 111060, Note_on_c, 3, 61, 100
5, 111119, Note_on_c, 3, 61, 0
5, 111120, Note_on_c, 3, 49, 100
5, 111179, Note_on_c, 3, 49, 0
5, 111240, Note_on_c, 3, 48, 100
5, 111299, Note_on_c, 3, 48, 0
5, 111300, Note_on_c, 3, 52, 100
5, 111359, Note_on_c, 3, 52, 0
5, 111360, Note_on_c, 3, 55, 100
5, 111419, Note_on_c, 3, 55, 0
5, 111420, Note_on_c, 3, 60, 100
5, 111479, Note_on_c, 3, 60, 0
5, 111480, Note_on_c, 3, 46, 100
5, 111539, Note_on_c, 3, 46, 0
5, 111540, Note_on_c, 3, 45, 100
5, 111599, Note_on_c, 3, 45, 0
5, 111600, Note_on_c, 3, 45, 100
5, 111659, Note_on_c, 3, 45, 0
5, 111660, Note_on_c, 3, 45, 100
5, 111719, Note_on_c, 3, 45, 0
5, 111720, Note_on_c, 3, 46, 100
5, 111779, Note_on_c, 3, 46, 0
5, 111780, Note_on_c, 3, 51, 100
5, 111839, Note_on_c, 3, 51, 0
5, 111840, Note_on_c, 3, 49, 100
5, 111899, Note_on_c, 3, 49, 0
5, 111900, Note_on_c, 3, 48, 100
5, 111959, Note_on_c, 3, 48, 0
5, 111960, Note_on_c, 3, 46, 100
5, 112019, Note_on_c, 3, 46, 0
5, 112020, Note_on_c, 3, 45, 100
5, 112079, Note_on_c, 3, 45, 0
5, 112080, Note_on_c, 3, 46, 100
5, 112139, Note_on_c, 3, 46, 0
5, 112140, Note_on_c, 3, 58, 100
5, 112199, Note_on_c, 3, 58, 0
5, 112200, Note_on_c, 3, 46, 100
5, 112259, Note_on_c, 3, 46, 0
5, 112260, Note_on_c, 3, 47, 100
5, 112319, Note_on_c, 3, 47, 0
5, 112320, Note_on_c, 3, 47, 100
5, 112379, Note_on_c, 3, 47, 0
5, 112380, Note_on_c, 3, 47, 100
5, 112439, Note_on_c, 3, 47, 0
5, 112440, Note_on_c, 3, 48, 100
5, 112499, Note_on_c, 3, 48, 0
5, 112500, Note_on_c, 3, 53, 100
5, 112559, Note_on_c, 3, 53, 0
5, 112560, Note_on_c, 3, 51, 100
5, 112619, Note_on_c, 3, 51, 0
5, 112620, Note_on_c, 3, 50, 100
5, 112679, Note_on_c, 3, 50, 0
5, 112680, Note_on_c, 3, 48, 100
5, 112739, Note_on_c, 3, 48, 0
5, 112740, Note_on_c, 3, 47, 100
5, 112799, Note_on_c, 3, 47, 0
5, 112800, Note_on_c, 3, 48, 100
5, 112859, Note_on_c, 3, 48, 0
5, 112860, Note_on_c, 3, 60, 100
5, 112919, Note_on_c, 3, 60, 0
5, 112920, Note_on_c, 3, 58, 100
5, 112979, Note_on_c, 3, 58, 0
5, 112980, Note_on_c, 3, 56, 100
5, 113039, Note_on_c, 3, 56, 0
5, 113040, Note_on_c, 3, 53, 100
5, 113099, Note_on_c, 3, 53, 0
5, 113160, Note_on_c, 3, 53, 100
5, 113219, Note_on_c, 3, 53, 0
5, 113220, Note_on_c, 3, 58, 100
5, 113279, Note_on_c, 3, 58, 0
5, 113280, Note_on_c, 3, 56, 100
5, 113339, Note_on_c, 3, 56, 0
5, 113340, Note_on_c, 3, 55, 100
5, 113399, Note_on_c, 3, 55, 0
5, 113400, Note_on_c, 3, 53, 100
5, 113459, Note_on_c, 3, 53, 0
5, 113520, Note_on_c, 3, 48, 100
5, 113579, Note_on_c, 3, 48, 0
5, 113580, Note_on_c, 3, 60, 100
5, 113609, Note_on_c, 3, 60, 0
5, 113610, Note_on_c, 3, 58, 100
5, 113639, Note_on_c, 3, 58, 0
5, 113640, Note_on_c, 3, 56, 100
5, 113669, Note_on_c, 3, 56, 0
5, 113670, Note_on_c, 3, 55, 100
5, 113699, Note_on_c, 3, 55, 0
5, 113700, Note_on_c, 3, 53, 100
5, 113819, Note_on_c, 3, 53, 0
5, 113880, Note_on_c, 3, 41, 100
5, 113939, Note_on_c, 3, 41, 0
5, 113940, Note_on_c, 3, 43, 100
5, 113999, Note_on_c, 3, 43, 0
5, 114000, Note_on_c, 3, 44, 100
5, 114059, Note_on_c, 3, 44, 0
5, 114060, Note_on_c, 3, 46, 100
5, 114089, Note_on_c, 3, 46, 0
5, 114090, Note_on_c, 3, 48, 100
5, 114119, Note_on_c, 3, 48, 0
5, 114120, Note_on_c, 3, 49, 100
5, 114179, Note_on_c, 3, 49, 0
5, 114240, Note_on_c, 3, 46, 100
5, 114299, Note_on_c, 3, 46, 0
5, 114300, Note_on_c, 3, 48, 100
5, 114359, Note_on_c, 3, 48, 0
5, 114360, Note_on_c, 3, 49, 100
5, 114419, Note_on_c, 3, 49, 0
5, 114420, Note_on_c, 3, 40, 100
5, 114449, Note_on_c, 3, 40, 0
5, 114450, Note_on_c, 3, 41, 100
5, 114479, Note_on_c, 3, 41, 0
5, 114480, Note_on_c, 3, 43, 100
5, 114539, Note_on_c, 3, 43, 0
5, 114600, Note_on_c, 3, 52, 100
5, 114659, Note_on_c, 3, 52, 0
5, 114660, Note_on_c, 3, 53, 100
5, 114719, Note_on_c, 3, 53, 0
5, 114720, Note_on_c, 3, 55, 100
5, 114779, Note_on_c, 3, 55, 0
5, 114780, Note_on_c, 3, 56, 100
5, 114809, Note_on_c, 3, 56, 0
5, 114810, Note_on_c, 3, 58, 100
5, 114839, Note_on_c, 3, 58, 0
5, 114840, Note_on_c, 3, 60, 100
5, 114899, Note_on_c, 3, 60, 0
5, 114960, Note_on_c, 3, 48, 100
5, 115019, Note_on_c, 3, 48, 0
5, 115020, Note_on_c, 3, 44, 100
5, 115079, Note_on_c, 3, 44, 0
5, 115080, Note_on_c, 3, 48, 100
5, 115139, Note_on_c, 3, 48, 0
5, 115140, Note_on_c, 3, 41, 100
5, 115259, Note_on_c, 3, 41, 0
5, 115320, Note_on_c, 3, 41, 100
5, 115379, Note_on_c, 3, 41, 0
5, 115380, Note_on_c, 3, 48, 100
5, 115439, Note_on_c, 3, 48, 0
5, 115440, Note_on_c, 3, 53, 100
5, 115499, Note_on_c, 3, 53, 0
5, 115500, Note_on_c, 3, 48, 100
5, 115619, Note_on_c, 3, 48, 0
5, 115680, Note_on_c, 3, 48, 100
5, 115739, Note_on_c, 3, 48, 0
5, 115740, Note_on_c, 3, 52, 100
5, 115799, Note_on_c, 3, 52, 0
5, 115800, Note_on_c, 3, 55, 100
5, 115859, Note_on_c, 3, 55, 0
5, 115860, Note_on_c, 3, 60, 100
5, 115979, Note_on_c, 3, 60, 0
5, 116040, Note_on_c, 3, 55, 100
5, 116099, Note_on_c, 3, 55, 0
5, 116100, Note_on_c, 3, 52, 100
5, 116159, Note_on_c, 3, 52, 0
5, 116160, Note_on_c, 3, 48, 100
5, 116219, Note_on_c, 3, 48, 0
5, 116220, Note_on_c, 3, 53, 100
5, 116339, Note_on_c, 3, 53, 0
5, 116400, Note_on_c, 3, 48, 100
5, 116459, Note_on_c, 3, 48, 0
5, 116460, Note_on_c, 3, 44, 100
5, 116519, Note_on_c, 3, 44, 0
5, 116520, Note_on_c, 3, 48, 100
5, 116579, Note_on_c, 3, 48, 0
5, 116580, Note_on_c, 3, 41, 100
5, 116699, Note_on_c, 3, 41, 0
5, 116760, Note_on_c, 3, 53, 100
5, 116819, Note_on_c, 3, 53, 0
5, 116820, Note_on_c, 3, 57, 100
5, 116879, Note_on_c, 3, 57, 0
5, 116880, Note_on_c, 3, 53, 100
5, 116939, Note_on_c, 3, 53, 0
5, 116940, Note_on_c, 3, 58, 100
5, 117059, Note_on_c, 3, 58, 0
5, 117120, Note_on_c, 3, 46, 100
5, 117179, Note_on_c, 3, 46, 0
5, 117180, Note_on_c, 3, 50, 100
5, 117239, Note_on_c, 3, 50, 0
5, 117240, Note_on_c, 3, 46, 100
5, 117299, Note_on_c, 3, 46, 0
5, 117300, Note_on_c, 3, 43, 100
5, 117419, Note_on_c, 3, 43, 0
5, 117480, Note_on_c, 3, 55, 100
5, 117539, Note_on_c, 3, 55, 0
5, 117540, Note_on_c, 3, 59, 100
5, 117599, Note_on_c, 3, 59, 0
5, 117600, Note_on_c, 3, 55, 100
5, 117659, Note_on_c, 3, 55, 0
5, 117660, Note_on_c, 3, 60, 100
5, 117779, Note_on_c, 3, 60, 0
5, 117840, Note_on_c, 3, 57, 100
5, 117899, Note_on_c, 3, 57, 0
5, 117900, Note_on_c, 3, 54, 100
5, 117959, Note_on_c, 3, 54, 0
5, 117960, Note_on_c, 3, 50, 100
5, 118019, Note_on_c, 3, 50, 0
5, 118020, Note_on_c, 3, 43, 100
5, 118139, Note_on_c, 3, 43, 0
5, 118200, Note_on_c, 3, 46, 100
5, 118259, Note_on_c, 3, 46, 0
5, 118260, Note_on_c, 3, 39, 100
5, 118319, Note_on_c, 3, 39, 0
5, 118320, Note_on_c, 3, 43, 100
5, 118379, Note_on_c, 3, 43, 0
5, 118380, Note_on_c, 3, 44, 100
5, 118499, Note_on_c, 3, 44, 0
5, 118560, Note_on_c, 3, 48, 100
5, 118619, Note_on_c, 3, 48, 0
5, 118620, Note_on_c, 3, 41, 100
5, 118679, Note_on_c, 3, 41, 0
5, 118680, Note_on_c, 3, 45, 100
5, 118739, Note_on_c, 3, 45, 0
5, 118740, Note_on_c, 3, 46, 100
5, 118859, Note_on_c, 3, 46, 0
5, 118920, Note_on_c, 3, 50, 100
5, 118979, Note_on_c, 3, 50, 0
5, 118980, Note_on_c, 3, 43, 100
5, 119039, Note_on_c, 3, 43, 0
5, 119040, Note_on_c, 3, 47, 100
5, 119099, Note_on_c, 3, 47, 0
5, 119100, Note_on_c, 3, 48, 100
5, 119219, Note_on_c, 3, 48, 0
5, 119460, Note_on_c, 3, 48, 100
5, 119579, Note_on_c, 3, 48, 0
5, 119820, Note_on_c, 3, 49, 100
5, 119939, Note_on_c, 3, 49, 0
5, 120180, Note_on_c, 3, 48, 100
5, 120299, Note_on_c, 3, 48, 0
5, 120540, Note_on_c, 3, 46, 100
5, 120659, Note_on_c, 3, 46, 0
5, 120900, Note_on_c, 3, 46, 100
5, 121019, Note_on_c, 3, 46, 0
5, 121260, Note_on_c, 3, 48, 100
5, 121379, Note_on_c, 3, 48, 0
5, 121620, Note_on_c, 3, 46, 100
5, 121739, Note_on_c, 3, 46, 0
5, 121980, Note_on_c, 3, 44, 100
5, 122099, Note_on_c, 3, 44, 0
5, 122340, Note_on_c, 3, 43, 100
5, 122459, Note_on_c, 3, 43, 0
5, 122580, Note_on_c, 3, 48, 100
5, 122699, Note_on_c, 3, 48, 0
5, 122700, Note_on_c, 3, 41, 100
5, 122819, Note_on_c, 3, 41, 0
5, 122880, Note_on_c, 3, 43, 100
5, 122939, Note_on_c, 3, 43, 0
5, 122940, Note_on_c, 3, 44, 100
5, 122999, Note_on_c, 3, 44, 0
5, 123000, Note_on_c, 3, 41, 100
5, 123059, Note_on_c, 3, 41, 0
5, 123060, Note_on_c, 3, 38, 100
5, 123179, Note_on_c, 3, 38, 0
5, 123300, Note_on_c, 3, 43, 100
5, 123419, Note_on_c, 3, 43, 0
5, 123420, Note_on_c, 3, 36, 100
5, 123479, Note_on_c, 3, 36, 0
5, 123480, Note_on_c, 3, 48, 100
5, 123509, Note_on_c, 3, 48, 0
5, 123510, Note_on_c, 3, 50, 100
5, 123539, Note_on_c, 3, 50, 0
5, 123540, Note_on_c, 3, 51, 100
5, 123599, Note_on_c, 3, 51, 0
5, 123720, Note_on_c, 3, 55, 100
5, 123779, Note_on_c, 3, 55, 0
5, 123780, Note_on_c, 3, 48, 100
5, 123839, Note_on_c, 3, 48, 0
5, 123960, Note_on_c, 3, 47, 100
5, 124019, Note_on_c, 3, 47, 0
5, 124020, Note_on_c, 3, 48, 100
5, 124079, Note_on_c, 3, 48, 0
5, 124080, Note_on_c, 3, 50, 100
5, 124139, Note_on_c, 3, 50, 0
5, 124140, Note_on_c, 3, 51, 100
5, 124199, Note_on_c, 3, 51, 0
5, 124200, Note_on_c, 3, 51, 100
5, 124229, Note_on_c, 3, 51, 0
5, 124230, Note_on_c, 3, 50, 100
5, 124259, Note_on_c, 3, 50, 0
5, 124260, Note_on_c, 3, 51, 100
5, 124319, Note_on_c, 3, 51, 0
5, 124320, Note_on_c, 3, 48, 100
5, 124379, Note_on_c, 3, 48, 0
5, 124380, Note_on_c, 3, 56, 100
5, 124439, Note_on_c, 3, 56, 0
5, 124440, Note_on_c, 3, 44, 100
5, 124499, Note_on_c, 3, 44, 0
5, 124560, Note_on_c, 3, 43, 100
5, 124619, Note_on_c, 3, 43, 0
5, 124620, Note_on_c, 3, 47, 100
5, 124679, Note_on_c, 3, 47, 0
5, 124680, Note_on_c, 3, 50, 100
5, 124739, Note_on_c, 3, 50, 0
5, 124740, Note_on_c, 3, 55, 100
5, 124769, Note_on_c, 3, 55, 0
5, 124770, Note_on_c, 3, 56, 100
5, 124799, Note_on_c, 3, 56, 0
5, 124800, Note_on_c, 3, 55, 100
5, 124829, Note_on_c, 3, 55, 0
5, 124830, Note_on_c, 3, 53, 100
5, 124859, Note_on_c, 3, 53, 0
5, 124860, Note_on_c, 3, 52, 100
5, 124919, Note_on_c, 3, 52, 0
5, 124920, Note_on_c, 3, 48, 100
5, 124979, Note_on_c, 3, 48, 0
5, 125130, Note_on_c, 3, 48, 100
5, 125159, Note_on_c, 3, 48, 0
5, 125160, Note_on_c, 3, 46, 100
5, 125189, Note_on_c, 3, 46, 0
5, 125190, Note_on_c, 3, 48, 100
5, 125219, Note_on_c, 3, 48, 0
5, 125220, Note_on_c, 3, 41, 100
5, 125279, Note_on_c, 3, 41, 0
5, 125280, Note_on_c, 3, 53, 100
5, 125339, Note_on_c, 3, 53, 0
5, 125490, Note_on_c, 3, 53, 100
5, 125519, Note_on_c, 3, 53, 0
5, 125520, Note_on_c, 3, 55, 100
5, 125549, Note_on_c, 3, 55, 0
5, 125550, Note_on_c, 3, 56, 100
5, 125579, Note_on_c, 3, 56, 0
5, 125580, Note_on_c, 3, 55, 100
5, 125639, Note_on_c, 3, 55, 0
5, 125640, Note_on_c, 3, 43, 100
5, 125699, Note_on_c, 3, 43, 0
5, 125850, Note_on_c, 3, 43, 100
5, 125879, Note_on_c, 3, 43, 0
5, 125880, Note_on_c, 3, 41, 100
5, 125909, Note_on_c, 3, 41, 0
5, 125910, Note_on_c, 3, 43, 100
5, 125939, Note_on_c, 3, 43, 0
5, 125940, Note_on_c, 3, 36, 100
5, 125999, Note_on_c, 3, 36, 0
5, 126000, Note_on_c, 3, 48, 100
5, 126059, Note_on_c, 3, 48, 0
5, 126210, Note_on_c, 3, 48, 100
5, 126239, Note_on_c, 3, 48, 0
5, 126240, Note_on_c, 3, 47, 100
5, 126269, Note_on_c, 3, 47, 0
5, 126270, Note_on_c, 3, 48, 100
5, 126299, Note_on_c, 3, 48, 0
5, 126300, Note_on_c, 3, 41, 100
5, 126419, Note_on_c, 3, 41, 0
5, 126480, Note_on_c, 3, 53, 100
5, 126539, Note_on_c, 3, 53, 0
5, 126540, Note_on_c, 3, 50, 100
5, 126599, Note_on_c, 3, 50, 0
5, 126600, Note_on_c, 3, 46, 100
5, 126659, Note_on_c, 3, 46, 0
5, 126660, Note_on_c, 3, 51, 100
5, 126779, Note_on_c, 3, 51, 0
5, 126840, Note_on_c, 3, 51, 100
5, 126899, Note_on_c, 3, 51, 0
5, 126900, Note_on_c, 3, 48, 100
5, 126959, Note_on_c, 3, 48, 0
5, 126960, Note_on_c, 3, 44, 100
5, 127019, Note_on_c, 3, 44, 0
5, 127020, Note_on_c, 3, 50, 100
5, 127139, Note_on_c, 3, 50, 0
5, 127200, Note_on_c, 3, 50, 100
5, 127259, Note_on_c, 3, 50, 0
5, 127260, Note_on_c, 3, 55, 100
5, 127319, Note_on_c, 3, 55, 0
5, 127320, Note_on_c, 3, 43, 100
5, 127379, Note_on_c, 3, 43, 0
5, 127380, Note_on_c, 3, 48, 100
5, 127409, Note_on_c, 3, 48, 0
5, 127410, Note_on_c, 3, 47, 100
5, 127439, Note_on_c, 3, 47, 0
5, 127440, Note_on_c, 3, 48, 100
5, 127469, Note_on_c, 3, 48, 0
5, 127470, Note_on_c, 3, 50, 100
5, 127499, Note_on_c, 3, 50, 0
5, 127500, Note_on_c, 3, 51, 100
5, 127559, Note_on_c, 3, 51, 0
5, 127680, Note_on_c, 3, 55, 100
5, 127739, Note_on_c, 3, 55, 0
5, 127740, Note_on_c, 3, 48, 100
5, 127800, Note_on_c, 3, 48, 0
5, 127920, Note_on_c, 3, 47, 100
5, 127980, Note_on_c, 3, 47, 0
5, 127980, Note_on_c, 3, 48, 100
5, 128040, Note_on_c, 3, 48, 0
5, 128040, Note_on_c, 3, 50, 100
5, 128100, Note_on_c, 3, 50, 0
5, 128100, Note_on_c, 3, 51, 100
5, 128160, Note_on_c, 3, 51, 0
5, 128160, Note_on_c, 3, 51, 100
5, 128189, Note_on_c, 3, 51, 0
5, 128190, Note_on_c, 3, 50, 100
5, 128219, Note_on_c, 3, 50, 0
5, 128220, Note_on_c, 3, 51, 100
5, 128280, Note_on_c, 3, 51, 0
5, 128280, Note_on_c, 3, 48, 100
5, 128340, Note_on_c, 3, 48, 0
5, 128340, Note_on_c, 3, 56, 100
5, 128400, Note_on_c, 3, 56, 0
5, 128400, Note_on_c, 3, 44, 100
5, 128460, Note_on_c, 3, 44, 0
5, 128520, Note_on_c, 3, 43, 100
5, 128549, Note_on_c, 3, 43, 0
5, 128550, Note_on_c, 3, 45, 100
5, 128579, Note_on_c, 3, 45, 0
5, 128580, Note_on_c, 3, 47, 100
5, 128639, Note_on_c, 3, 47, 0
5, 128640, Note_on_c, 3, 50, 100
5, 128699, Note_on_c, 3, 50, 0
5, 128700, Note_on_c, 3, 55, 100
5, 128759, Note_on_c, 3, 55, 0
5, 128760, Note_on_c, 3, 53, 100
5, 128819, Note_on_c, 3, 53, 0
5, 128820, Note_on_c, 3, 52, 100
5, 128879, Note_on_c, 3, 52, 0
5, 128880, Note_on_c, 3, 52, 100
5, 128939, Note_on_c, 3, 52, 0
5, 128940, Note_on_c, 3, 52, 100
5, 128999, Note_on_c, 3, 52, 0
5, 129000, Note_on_c, 3, 53, 100
5, 129059, Note_on_c, 3, 53, 0
5, 129060, Note_on_c, 3, 58, 100
5, 129119, Note_on_c, 3, 58, 0
5, 129120, Note_on_c, 3, 56, 100
5, 129179, Note_on_c, 3, 56, 0
5, 129180, Note_on_c, 3, 55, 100
5, 129239, Note_on_c, 3, 55, 0
5, 129240, Note_on_c, 3, 53, 100
5, 129299, Note_on_c, 3, 53, 0
5, 129300, Note_on_c, 3, 52, 100
5, 129359, Note_on_c, 3, 52, 0
5, 129360, Note_on_c, 3, 53, 100
5, 129419, Note_on_c, 3, 53, 0
5, 129420, Note_on_c, 3, 41, 100
5, 129479, Note_on_c, 3, 41, 0
5, 129480, Note_on_c, 3, 53, 100
5, 129539, Note_on_c, 3, 53, 0
5, 129540, Note_on_c, 3, 54, 100
5, 129599, Note_on_c, 3, 54, 0
5, 129600, Note_on_c, 3, 54, 100
5, 129659, Note_on_c, 3, 54, 0
5, 129660, Note_on_c, 3, 54, 100
5, 129719, Note_on_c, 3, 54, 0
5, 129720, Note_on_c, 3, 55, 100
5, 129779, Note_on_c, 3, 55, 0
5, 129780, Note_on_c, 3, 60, 100
5, 129839, Note_on_c, 3, 60, 0
5, 129840, Note_on_c, 3, 58, 100
5, 129899, Note_on_c, 3, 58, 0
5, 129900, Note_on_c, 3, 57, 100
5, 129959, Note_on_c, 3, 57, 0
5, 129960, Note_on_c, 3, 55, 100
5, 130019, Note_on_c, 3, 55, 0
5, 130020, Note_on_c, 3, 54, 100
5, 130079, Note_on_c, 3, 54, 0
5, 130080, Note_on_c, 3, 55, 100
5, 130139, Note_on_c, 3, 55, 0
5, 130140, Note_on_c, 3, 43, 100
5, 130199, Note_on_c, 3, 43, 0
5, 130200, Note_on_c, 3, 55, 100
5, 130259, Note_on_c, 3, 55, 0
5, 130260, Note_on_c, 3, 51, 100
5, 130319, Note_on_c, 3, 51, 0
5, 130320, Note_on_c, 3, 48, 100
5, 130379, Note_on_c, 3, 48, 0
5, 130440, Note_on_c, 3, 48, 100
5, 130499, Note_on_c, 3, 48, 0
5, 130500, Note_on_c, 3, 53, 100
5, 130559, Note_on_c, 3, 53, 0
5, 130560, Note_on_c, 3, 51, 100
5, 130619, Note_on_c, 3, 51, 0
5, 130620, Note_on_c, 3, 50, 100
5, 130679, Note_on_c, 3, 50, 0
5, 130680, Note_on_c, 3, 48, 100
5, 130739, Note_on_c, 3, 48, 0
5, 130740, Note_on_c, 3, 47, 100
5, 130799, Note_on_c, 3, 47, 0
5, 130800, Note_on_c, 3, 43, 100
5, 130859, Note_on_c, 3, 43, 0
5, 130860, Note_on_c, 3, 55, 100
5, 130919, Note_on_c, 3, 55, 0
5, 130920, Note_on_c, 3, 43, 100
5, 130979, Note_on_c, 3, 43, 0
5, 130980, Note_on_c, 3, 48, 100
5, 131039, Note_on_c, 3, 48, 0
5, 131040, Note_on_c, 3, 53, 100
5, 131099, Note_on_c, 3, 53, 0
5, 131100, Note_on_c, 3, 51, 100
5, 131159, Note_on_c, 3, 51, 0
5, 131160, Note_on_c, 3, 39, 100
5, 131219, Note_on_c, 3, 39, 0
5, 131220, Note_on_c, 3, 38, 100
5, 131279, Note_on_c, 3, 38, 0
5, 131280, Note_on_c, 3, 50, 100
5, 131339, Note_on_c, 3, 50, 0
5, 131340, Note_on_c, 3, 43, 100
5, 131399, Note_on_c, 3, 43, 0
5, 131700, Note_on_c, 3, 43, 100
5, 131759, Note_on_c, 3, 43, 0
5, 132060, Note_on_c, 3, 43, 100
5, 132119, Note_on_c, 3, 43, 0
5, 132420, Note_on_c, 3, 48, 100
5, 132540, Note_on_c, 3, 48, 0
5, 132600, Note_on_c, 3, 48, 100
5, 132660, Note_on_c, 3, 48, 0
5, 132660, Note_on_c, 3, 53, 100
5, 132720, Note_on_c, 3, 53, 0
5, 132720, Note_on_c, 3, 50, 100
5, 132780, Note_on_c, 3, 50, 0
5, 132780, Note_on_c, 3, 51, 100
5, 132900, Note_on_c, 3, 51, 0
5, 132960, Note_on_c, 3, 48, 100
5, 133020, Note_on_c, 3, 48, 0
5, 133020, Note_on_c, 3, 51, 100
5, 133080, Note_on_c, 3, 51, 0
5, 133080, Note_on_c, 3, 48, 100
5, 133140, Note_on_c, 3, 48, 0
5, 133140, Note_on_c, 3, 50, 100
5, 133260, Note_on_c, 3, 50, 0
5, 133320, Note_on_c, 3, 53, 100
5, 133380, Note_on_c, 3, 53, 0
5, 133380, Note_on_c, 3, 43, 100
5, 133440, Note_on_c, 3, 43, 0
5, 133440, Note_on_c, 3, 47, 100
5, 133500, Note_on_c, 3, 47, 0
5, 133500, Note_on_c, 3, 48, 100
5, 133530, Note_on_c, 3, 48, 0
5, 133530, Note_on_c, 3, 60, 100
5, 133560, Note_on_c, 3, 60, 0
5, 133560, Note_on_c, 3, 58, 100
5, 133590, Note_on_c, 3, 58, 0
5, 133590, Note_on_c, 3, 56, 100
5, 133620, Note_on_c, 3, 56, 0
5, 133620, Note_on_c, 3, 55, 100
5, 133650, Note_on_c, 3, 55, 0
5, 133650, Note_on_c, 3, 53, 100
5, 133680, Note_on_c, 3, 53, 0
5, 133680, Note_on_c, 3, 51, 100
5, 133710, Note_on_c, 3, 51, 0
5, 133710, Note_on_c, 3, 50, 100
5, 133740, Note_on_c, 3, 50, 0
5, 133740, Note_on_c, 3, 48, 100
5, 133770, Note_on_c, 3, 48, 0
5, 133770, Note_on_c, 3, 51, 100
5, 133800, Note_on_c, 3, 51, 0
5, 133800, Note_on_c, 3, 50, 100
5, 133830, Note_on_c, 3, 50, 0
5, 133830, Note_on_c, 3, 48, 100
5, 133860, Note_on_c, 3, 48, 0
5, 133860, Note_on_c, 3, 47, 100
5, 133890, Note_on_c, 3, 47, 0
5, 133890, Note_on_c, 3, 43, 100
5, 133920, Note_on_c, 3, 43, 0
5, 133920, Note_on_c, 3, 45, 100
5, 133950, Note_on_c, 3, 45, 0
5, 133950, Note_on_c, 3, 47, 100
5, 133980, Note_on_c, 3, 47, 0
5, 133980, Note_on_c, 3, 48, 100
5, 134010, Note_on_c, 3, 48, 0
5, 134010, Note_on_c, 3, 50, 100
5, 134040, Note_on_c, 3, 50, 0
5, 134040, Note_on_c, 3, 51, 100
5, 134070, Note_on_c, 3, 51, 0
5, 134070, Note_on_c, 3, 53, 100
5, 134100, Note_on_c, 3, 53, 0
5, 134100, Note_on_c, 3, 55, 100
5, 134160, Note_on_c, 3, 55, 0
5, 134160, Note_on_c, 3, 43, 100
5, 134220, Note_on_c, 3, 43, 0
5, 134220, Note_on_c, 3, 48, 100
5, 134280, Note_on_c, 3, 48, 0
5, 134280, Note_on_c, 3, 36, 100
5, 134340, Note_on_c, 3, 36, 0
5, 134340, Note_on_c, 3, 36, 100
5, 134400, Note_on_c, 3, 36, 0
5, 134400, Note_on_c, 3, 36, 100
5, 134460, Note_on_c, 3, 36, 0
5, 134460, Note_on_c, 3, 36, 100
5, 134520, Note_on_c, 3, 36, 0
5, 134520, Note_on_c, 3, 36, 100
5, 134580, Note_on_c, 3, 36, 0
5, 134580, Note_on_c, 3, 36, 100
5, 134700, Note_on_c, 3, 36, 0
5, 134700, End_track
6, 0, Start_track
6, 0, MIDI_port, 0
6, 0, Title_t, "bass"
6, 0, Program_c, 4, 43
6, 0, Control_c, 4, 7, 110
6, 0, Control_c, 4, 10, 64
6, 0, Note_on_c, 4, 36, 100
6, 60, Note_on_c, 4, 36, 0
6, 60, Note_on_c, 4, 48, 100
6, 120, Note_on_c, 4, 48, 0
6, 120, Note_on_c, 4, 46, 100
6, 180, Note_on_c, 4, 46, 0
6, 180, Note_on_c, 4, 44, 100
6, 240, Note_on_c, 4, 44, 0
6, 240, Note_on_c, 4, 43, 100
6, 270, Note_on_c, 4, 43, 0
6, 270, Note_on_c, 4, 41, 100
6, 300, Note_on_c, 4, 41, 0
6, 300, Note_on_c, 4, 43, 100
6, 330, Note_on_c, 4, 43, 0
6, 330, Note_on_c, 4, 44, 100
6, 360, Note_on_c, 4, 44, 0
6, 360, Note_on_c, 4, 43, 100
6, 390, Note_on_c, 4, 43, 0
6, 390, Note_on_c, 4, 41, 100
6, 420, Note_on_c, 4, 41, 0
6, 420, Note_on_c, 4, 39, 100
6, 450, Note_on_c, 4, 39, 0
6, 450, Note_on_c, 4, 38, 100
6, 480, Note_on_c, 4, 38, 0
6, 480, Note_on_c, 4, 36, 100
6, 510, Note_on_c, 4, 36, 0
6, 510, Note_on_c, 4, 34, 100
6, 540, Note_on_c, 4, 34, 0
6, 540, Note_on_c, 4, 36, 100
6, 570, Note_on_c, 4, 36, 0
6, 570, Note_on_c, 4, 37, 100
6, 600, Note_on_c, 4, 37, 0
6, 600, Note_on_c, 4, 36, 100
6, 630, Note_on_c, 4, 36, 0
6, 630, Note_on_c, 4, 34, 100
6, 660, Note_on_c, 4, 34, 0
6, 660, Note_on_c, 4, 33, 100
6, 690, Note_on_c, 4, 33, 0
6, 690, Note_on_c, 4, 31, 100
6, 720, Note_on_c, 4, 31, 0
6, 720, Note_on_c, 4, 29, 100
6, 1260, Note_on_c, 4, 29, 0
6, 1260, Note_on_c, 4, 27, 100
6, 1290, Note_on_c, 4, 27, 0
6, 1290, Note_on_c, 4, 26, 100
6, 1320, Note_on_c, 4, 26, 0
6, 1320, Note_on_c, 4, 27, 100
6, 1380, Note_on_c, 4, 27, 0
6, 1380, Note_on_c, 4, 32, 100
6, 1440, Note_on_c, 4, 32, 0
6, 1440, Note_on_c, 4, 31, 100
6, 1500, Note_on_c, 4, 31, 0
6, 1500, Note_on_c, 4, 29, 100
6, 1560, Note_on_c, 4, 29, 0
6, 1560, Note_on_c, 4, 31, 100
6, 1620, Note_on_c, 4, 31, 0
6, 1620, Note_on_c, 4, 31, 100
6, 1680, Note_on_c, 4, 31, 0
6, 1680, Note_on_c, 4, 24, 100
6, 1740, Note_on_c, 4, 24, 0
6, 1740, Note_on_c, 4, 36, 100
6, 1800, Note_on_c, 4, 36, 0
6, 1800, Note_on_c, 4, 34, 100
6, 1860, Note_on_c, 4, 34, 0
6, 1860, Note_on_c, 4, 33, 100
6, 1920, Note_on_c, 4, 33, 0
6, 1920, Note_on_c, 4, 31, 100
6, 1980, Note_on_c, 4, 31, 0
6, 1980, Note_on_c, 4, 43, 100
6, 2040, Note_on_c, 4, 43, 0
6, 2040, Note_on_c, 4, 41, 100
6, 2100, Note_on_c, 4, 41, 0
6, 2100, Note_on_c, 4, 39, 100
6, 2160, Note_on_c, 4, 39, 0
6, 2160, Note_on_c, 4, 38, 100
6, 2190, Note_on_c, 4, 38, 0
6, 2190, Note_on_c, 4, 36, 100
6, 2220, Note_on_c, 4, 36, 0
6, 2220, Note_on_c, 4, 38, 100
6, 2250, Note_on_c, 4, 38, 0
6, 2250, Note_on_c, 4, 39, 100
6, 2280, Note_on_c, 4, 39, 0
6, 2280, Note_on_c, 4, 38, 100
6, 2310, Note_on_c, 4, 38, 0
6, 2310, Note_on_c, 4, 36, 100
6, 2340, Note_on_c, 4, 36, 0
6, 2340, Note_on_c, 4, 34, 100
6, 2370, Note_on_c, 4, 34, 0
6, 2370, Note_on_c, 4, 33, 100
6, 2400, Note_on_c, 4, 33, 0
6, 2400, Note_on_c, 4, 31, 100
6, 2430, Note_on_c, 4, 31, 0
6, 2430, Note_on_c, 4, 30, 100
6, 2460, Note_on_c, 4, 30, 0
6, 2460, Note_on_c, 4, 31, 100
6, 2490, Note_on_c, 4, 31, 0
6, 2490, Note_on_c, 4, 33, 100
6, 2520, Note_on_c, 4, 33, 0
6, 2520, Note_on_c, 4, 31, 100
6, 2550, Note_on_c, 4, 31, 0
6, 2550, Note_on_c, 4, 29, 100
6, 2580, Note_on_c, 4, 29, 0
6, 2580, Note_on_c, 4, 27, 100
6, 2610, Note_on_c, 4, 27, 0
6, 2610, Note_on_c, 4, 26, 100
6, 2640, Note_on_c, 4, 26, 0
6, 2640, Note_on_c, 4, 24, 100
6, 2670, Note_on_c, 4, 24, 0
6, 2670, Note_on_c, 4, 35, 100
6, 2700, Note_on_c, 4, 35, 0
6, 2700, Note_on_c, 4, 36, 100
6, 2730, Note_on_c, 4, 36, 0
6, 2730, Note_on_c, 4, 38, 100
6, 2760, Note_on_c, 4, 38, 0
6, 2760, Note_on_c, 4, 36, 100
6, 2790, Note_on_c, 4, 36, 0
6, 2790, Note_on_c, 4, 34, 100
6, 2820, Note_on_c, 4, 34, 0
6, 2820, Note_on_c, 4, 33, 100
6, 2850, Note_on_c, 4, 33, 0
6, 2850, Note_on_c, 4, 31, 100
6, 2880, Note_on_c, 4, 31, 0
6, 2880, Note_on_c, 4, 30, 100
6, 3000, Note_on_c, 4, 30, 0
6, 3060, Note_on_c, 4, 36, 100
6, 3180, Note_on_c, 4, 36, 0
6, 3180, Note_on_c, 4, 34, 100
6, 3210, Note_on_c, 4, 34, 0
6, 3210, Note_on_c, 4, 33, 100
6, 3240, Note_on_c, 4, 33, 0
6, 3240, Note_on_c, 4, 34, 100
6, 3300, Note_on_c, 4, 34, 0
6, 3300, Note_on_c, 4, 39, 100
6, 3360, Note_on_c, 4, 39, 0
6, 3360, Note_on_c, 4, 38, 100
6, 3420, Note_on_c, 4, 38, 0
6, 3420, Note_on_c, 4, 36, 100
6, 3480, Note_on_c, 4, 36, 0
6, 3480, Note_on_c, 4, 38, 100
6, 3540, Note_on_c, 4, 38, 0
6, 3540, Note_on_c, 4, 26, 100
6, 3600, Note_on_c, 4, 26, 0
6, 3600, Note_on_c, 4, 31, 100
6, 3720, Note_on_c, 4, 31, 0
6, 4320, Note_on_c, 4, 36, 100
6, 4350, Note_on_c, 4, 36, 0
6, 4350, Note_on_c, 4, 38, 100
6, 4380, Note_on_c, 4, 38, 0
6, 4380, Note_on_c, 4, 39, 100
6, 4410, Note_on_c, 4, 39, 0
6, 4410, Note_on_c, 4, 41, 100
6, 4440, Note_on_c, 4, 41, 0
6, 4440, Note_on_c, 4, 43, 100
6, 4500, Note_on_c, 4, 43, 0
6, 4500, Note_on_c, 4, 48, 100
6, 4560, Note_on_c, 4, 48, 0
6, 4560, Note_on_c, 4, 47, 100
6, 4620, Note_on_c, 4, 47, 0
6, 4620, Note_on_c, 4, 43, 100
6, 4680, Note_on_c, 4, 43, 0
6, 4680, Note_on_c, 4, 38, 100
6, 4740, Note_on_c, 4, 38, 0
6, 4740, Note_on_c, 4, 41, 100
6, 4800, Note_on_c, 4, 41, 0
6, 4800, Note_on_c, 4, 40, 100
6, 4860, Note_on_c, 4, 40, 0
6, 4860, Note_on_c, 4, 36, 100
6, 4920, Note_on_c, 4, 36, 0
6, 4920, Note_on_c, 4, 46, 100
6, 5100, Note_on_c, 4, 46, 0
6, 5100, Note_on_c, 4, 45, 100
6, 5130, Note_on_c, 4, 45, 0
6, 5130, Note_on_c, 4, 43, 100
6, 5160, Note_on_c, 4, 43, 0
6, 5160, Note_on_c, 4, 45, 100
6, 5220, Note_on_c, 4, 45, 0
6, 5220, Note_on_c, 4, 41, 100
6, 5280, Note_on_c, 4, 41, 0
6, 5280, Note_on_c, 4, 38, 100
6, 5340, Note_on_c, 4, 38, 0
6, 5340, Note_on_c, 4, 41, 100
6, 5400, Note_on_c, 4, 41, 0
6, 5400, Note_on_c, 4, 44, 100
6, 5460, Note_on_c, 4, 44, 0
6, 5460, Note_on_c, 4, 36, 100
6, 5520, Note_on_c, 4, 36, 0
6, 5520, Note_on_c, 4, 35, 100
6, 5580, Note_on_c, 4, 35, 0
6, 5580, Note_on_c, 4, 43, 100
6, 5640, Note_on_c, 4, 43, 0
6, 5640, Note_on_c, 4, 36, 100
6, 5700, Note_on_c, 4, 36, 0
6, 5700, Note_on_c, 4, 41, 100
6, 5760, Note_on_c, 4, 41, 0
6, 5760, Note_on_c, 4, 39, 100
6, 5880, Note_on_c, 4, 39, 0
6, 5880, Note_on_c, 4, 38, 100
6, 6000, Note_on_c, 4, 38, 0
6, 6000, Note_on_c, 4, 36, 100
6, 6030, Note_on_c, 4, 36, 0
6, 6030, Note_on_c, 4, 35, 100
6, 6060, Note_on_c, 4, 35, 0
6, 6060, Note_on_c, 4, 36, 100
6, 6090, Note_on_c, 4, 36, 0
6, 6090, Note_on_c, 4, 38, 100
6, 6120, Note_on_c, 4, 38, 0
6, 6120, Note_on_c, 4, 39, 100
6, 6150, Note_on_c, 4, 39, 0
6, 6150, Note_on_c, 4, 41, 100
6, 6180, Note_on_c, 4, 41, 0
6, 6180, Note_on_c, 4, 43, 100
6, 6210, Note_on_c, 4, 43, 0
6, 6210, Note_on_c, 4, 45, 100
6, 6240, Note_on_c, 4, 45, 0
6, 6240, Note_on_c, 4, 47, 100
6, 6270, Note_on_c, 4, 47, 0
6, 6270, Note_on_c, 4, 45, 100
6, 6300, Note_on_c, 4, 45, 0
6, 6300, Note_on_c, 4, 43, 100
6, 6330, Note_on_c, 4, 43, 0
6, 6330, Note_on_c, 4, 45, 100
6, 6360, Note_on_c, 4, 45, 0
6, 6360, Note_on_c, 4, 47, 100
6, 6390, Note_on_c, 4, 47, 0
6, 6390, Note_on_c, 4, 43, 100
6, 6420, Note_on_c, 4, 43, 0
6, 6420, Note_on_c, 4, 45, 100
6, 6450, Note_on_c, 4, 45, 0
6, 6450, Note_on_c, 4, 47, 100
6, 6480, Note_on_c, 4, 47, 0
6, 6480, Note_on_c, 4, 48, 100
6, 6540, Note_on_c, 4, 48, 0
6, 6540, Note_on_c, 4, 36, 100
6, 6600, Note_on_c, 4, 36, 0
6, 6600, Note_on_c, 4, 48, 100
6, 6750, Note_on_c, 4, 48, 0
6, 6750, Note_on_c, 4, 46, 100
6, 6780, Note_on_c, 4, 46, 0
6, 6780, Note_on_c, 4, 45, 100
6, 6810, Note_on_c, 4, 45, 0
6, 6810, Note_on_c, 4, 43, 100
6, 6840, Note_on_c, 4, 43, 0
6, 6840, Note_on_c, 4, 45, 100
6, 6870, Note_on_c, 4, 45, 0
6, 6870, Note_on_c, 4, 41, 100
6, 6900, Note_on_c, 4, 41, 0
6, 6900, Note_on_c, 4, 43, 100
6, 6930, Note_on_c, 4, 43, 0
6, 6930, Note_on_c, 4, 45, 100
6, 6960, Note_on_c, 4, 45, 0
6, 6960, Note_on_c, 4, 46, 100
6, 7020, Note_on_c, 4, 46, 0
6, 7020, Note_on_c, 4, 34, 100
6, 7080, Note_on_c, 4, 34, 0
6, 7080, Note_on_c, 4, 46, 100
6, 7230, Note_on_c, 4, 46, 0
6, 7230, Note_on_c, 4, 44, 100
6, 7260, Note_on_c, 4, 44, 0
6, 7260, Note_on_c, 4, 43, 100
6, 7290, Note_on_c, 4, 43, 0
6, 7290, Note_on_c, 4, 44, 100
6, 7320, Note_on_c, 4, 44, 0
6, 7320, Note_on_c, 4, 46, 100
6, 7350, Note_on_c, 4, 46, 0
6, 7350, Note_on_c, 4, 48, 100
6, 7380, Note_on_c, 4, 48, 0
6, 7380, Note_on_c, 4, 49, 100
6, 7410, Note_on_c, 4, 49, 0
6, 7410, Note_on_c, 4, 46, 100
6, 7440, Note_on_c, 4, 46, 0
6, 7440, Note_on_c, 4, 48, 100
6, 7470, Note_on_c, 4, 48, 0
6, 7470, Note_on_c, 4, 49, 100
6, 7500, Note_on_c, 4, 49, 0
6, 7500, Note_on_c, 4, 48, 100
6, 7530, Note_on_c, 4, 48, 0
6, 7530, Note_on_c, 4, 46, 100
6, 7560, Note_on_c, 4, 46, 0
6, 7560, Note_on_c, 4, 44, 100
6, 7590, Note_on_c, 4, 44, 0
6, 7590, Note_on_c, 4, 43, 100
6, 7620, Note_on_c, 4, 43, 0
6, 7620, Note_on_c, 4, 41, 100
6, 7650, Note_on_c, 4, 41, 0
6, 7650, Note_on_c, 4, 40, 100
6, 7680, Note_on_c, 4, 40, 0
6, 7680, Note_on_c, 4, 41, 100
6, 7710, Note_on_c, 4, 41, 0
6, 7710, Note_on_c, 4, 39, 100
6, 7740, Note_on_c, 4, 39, 0
6, 7740, Note_on_c, 4, 38, 100
6, 7770, Note_on_c, 4, 38, 0
6, 7770, Note_on_c, 4, 36, 100
6, 7800, Note_on_c, 4, 36, 0
6, 7800, Note_on_c, 4, 35, 100
6, 7830, Note_on_c, 4, 35, 0
6, 7830, Note_on_c, 4, 31, 100
6, 7860, Note_on_c, 4, 31, 0
6, 7860, Note_on_c, 4, 36, 100
6, 7890, Note_on_c, 4, 36, 0
6, 7890, Note_on_c, 4, 34, 100
6, 7920, Note_on_c, 4, 34, 0
6, 7920, Note_on_c, 4, 32, 100
6, 7950, Note_on_c, 4, 32, 0
6, 7950, Note_on_c, 4, 36, 100
6, 7980, Note_on_c, 4, 36, 0
6, 7980, Note_on_c, 4, 35, 100
6, 8010, Note_on_c, 4, 35, 0
6, 8010, Note_on_c, 4, 36, 100
6, 8040, Note_on_c, 4, 36, 0
6, 8040, Note_on_c, 4, 38, 100
6, 8070, Note_on_c, 4, 38, 0
6, 8070, Note_on_c, 4, 39, 100
6, 8100, Note_on_c, 4, 39, 0
6, 8100, Note_on_c, 4, 41, 100
6, 8130, Note_on_c, 4, 41, 0
6, 8130, Note_on_c, 4, 38, 100
6, 8160, Note_on_c, 4, 38, 0
6, 8160, Note_on_c, 4, 39, 100
6, 8190, Note_on_c, 4, 39, 0
6, 8190, Note_on_c, 4, 38, 100
6, 8220, Note_on_c, 4, 38, 0
6, 8220, Note_on_c, 4, 36, 100
6, 8250, Note_on_c, 4, 36, 0
6, 8250, Note_on_c, 4, 38, 100
6, 8280, Note_on_c, 4, 38, 0
6, 8280, Note_on_c, 4, 39, 100
6, 8310, Note_on_c, 4, 39, 0
6, 8310, Note_on_c, 4, 38, 100
6, 8340, Note_on_c, 4, 38, 0
6, 8340, Note_on_c, 4, 39, 100
6, 8370, Note_on_c, 4, 39, 0
6, 8370, Note_on_c, 4, 41, 100
6, 8400, Note_on_c, 4, 41, 0
6, 8400, Note_on_c, 4, 43, 100
6, 8460, Note_on_c, 4, 43, 0
6, 8460, Note_on_c, 4, 31, 100
6, 8520, Note_on_c, 4, 31, 0
6, 8520, Note_on_c, 4, 43, 100
6, 8670, Note_on_c, 4, 43, 0
6, 8670, Note_on_c, 4, 41, 100
6, 8700, Note_on_c, 4, 41, 0
6, 8700, Note_on_c, 4, 40, 100
6, 8730, Note_on_c, 4, 40, 0
6, 8730, Note_on_c, 4, 38, 100
6, 8760, Note_on_c, 4, 38, 0
6, 8760, Note_on_c, 4, 40, 100
6, 8790, Note_on_c, 4, 40, 0
6, 8790, Note_on_c, 4, 36, 100
6, 8820, Note_on_c, 4, 36, 0
6, 8820, Note_on_c, 4, 38, 100
6, 8850, Note_on_c, 4, 38, 0
6, 8850, Note_on_c, 4, 40, 100
6, 8880, Note_on_c, 4, 40, 0
6, 8880, Note_on_c, 4, 41, 100
6, 8940, Note_on_c, 4, 41, 0
6, 8940, Note_on_c, 4, 29, 100
6, 9000, Note_on_c, 4, 29, 0
6, 9000, Note_on_c, 4, 41, 100
6, 9150, Note_on_c, 4, 41, 0
6, 9150, Note_on_c, 4, 39, 100
6, 9179, Note_on_c, 4, 39, 0
6, 9180, Note_on_c, 4, 38, 100
6, 9209, Note_on_c, 4, 38, 0
6, 9210, Note_on_c, 4, 39, 100
6, 9239, Note_on_c, 4, 39, 0
6, 9240, Note_on_c, 4, 41, 100
6, 9269, Note_on_c, 4, 41, 0
6, 9270, Note_on_c, 4, 43, 100
6, 9299, Note_on_c, 4, 43, 0
6, 9300, Note_on_c, 4, 44, 100
6, 9329, Note_on_c, 4, 44, 0
6, 9330, Note_on_c, 4, 41, 100
6, 9359, Note_on_c, 4, 41, 0
6, 9360, Note_on_c, 4, 43, 100
6, 9389, Note_on_c, 4, 43, 0
6, 9390, Note_on_c, 4, 44, 100
6, 9419, Note_on_c, 4, 44, 0
6, 9420, Note_on_c, 4, 43, 100
6, 9449, Note_on_c, 4, 43, 0
6, 9450, Note_on_c, 4, 41, 100
6, 9479, Note_on_c, 4, 41, 0
6, 9480, Note_on_c, 4, 39, 100
6, 9509, Note_on_c, 4, 39, 0
6, 9510, Note_on_c, 4, 38, 100
6, 9539, Note_on_c, 4, 38, 0
6, 9540, Note_on_c, 4, 36, 100
6, 9569, Note_on_c, 4, 36, 0
6, 9570, Note_on_c, 4, 35, 100
6, 9599, Note_on_c, 4, 35, 0
6, 9600, Note_on_c, 4, 36, 100
6, 9660, Note_on_c, 4, 36, 0
6, 9660, Note_on_c, 4, 32, 100
6, 9720, Note_on_c, 4, 32, 0
6, 9720, Note_on_c, 4, 29, 100
6, 9780, Note_on_c, 4, 29, 0
6, 9780, Note_on_c, 4, 31, 100
6, 9840, Note_on_c, 4, 31, 0
6, 9840, Note_on_c, 4, 24, 100
6, 9959, Note_on_c, 4, 24, 0
6, 10080, Note_on_c, 4, 36, 100
6, 10140, Note_on_c, 4, 36, 0
6, 10200, Note_on_c, 4, 31, 100
6, 10260, Note_on_c, 4, 31, 0
6, 10320, Note_on_c, 4, 24, 100
6, 10380, Note_on_c, 4, 24, 0
6, 10560, Note_on_c, 4, 41, 100
6, 10620, Note_on_c, 4, 41, 0
6, 10680, Note_on_c, 4, 36, 100
6, 10740, Note_on_c, 4, 36, 0
6, 10800, Note_on_c, 4, 29, 100
6, 10860, Note_on_c, 4, 29, 0
6, 11040, Note_on_c, 4, 46, 100
6, 11100, Note_on_c, 4, 46, 0
6, 11160, Note_on_c, 4, 39, 100
6, 11220, Note_on_c, 4, 39, 0
6, 11280, Note_on_c, 4, 44, 100
6, 11340, Note_on_c, 4, 44, 0
6, 11400, Note_on_c, 4, 38, 100
6, 11460, Note_on_c, 4, 38, 0
6, 11520, Note_on_c, 4, 43, 100
6, 11580, Note_on_c, 4, 43, 0
6, 11640, Note_on_c, 4, 36, 100
6, 11700, Note_on_c, 4, 36, 0
6, 11760, Note_on_c, 4, 43, 100
6, 11820, Note_on_c, 4, 43, 0
6, 11820, Note_on_c, 4, 38, 100
6, 11880, Note_on_c, 4, 38, 0
6, 11880, Note_on_c, 4, 35, 100
6, 11940, Note_on_c, 4, 35, 0
6, 11940, Note_on_c, 4, 31, 100
6, 12000, Note_on_c, 4, 31, 0
6, 12000, Note_on_c, 4, 36, 100
6, 12060, Note_on_c, 4, 36, 0
6, 12120, Note_on_c, 4, 31, 100
6, 12180, Note_on_c, 4, 31, 0
6, 12240, Note_on_c, 4, 24, 100
6, 12300, Note_on_c, 4, 24, 0
6, 12480, Note_on_c, 4, 41, 100
6, 12540, Note_on_c, 4, 41, 0
6, 12600, Note_on_c, 4, 36, 100
6, 12660, Note_on_c, 4, 36, 0
6, 12720, Note_on_c, 4, 29, 100
6, 12780, Note_on_c, 4, 29, 0
6, 12960, Note_on_c, 4, 46, 100
6, 13020, Note_on_c, 4, 46, 0
6, 13080, Note_on_c, 4, 39, 100
6, 13140, Note_on_c, 4, 39, 0
6, 13200, Note_on_c, 4, 44, 100
6, 13260, Note_on_c, 4, 44, 0
6, 13320, Note_on_c, 4, 38, 100
6, 13380, Note_on_c, 4, 38, 0
6, 13440, Note_on_c, 4, 43, 100
6, 13500, Note_on_c, 4, 43, 0
6, 13560, Note_on_c, 4, 36, 100
6, 13620, Note_on_c, 4, 36, 0
6, 13680, Note_on_c, 4, 43, 100
6, 13740, Note_on_c, 4, 43, 0
6, 13740, Note_on_c, 4, 38, 100
6, 13800, Note_on_c, 4, 38, 0
6, 13800, Note_on_c, 4, 35, 100
6, 13860, Note_on_c, 4, 35, 0
6, 13860, Note_on_c, 4, 31, 100
6, 13920, Note_on_c, 4, 31, 0
6, 13920, Note_on_c, 4, 36, 100
6, 13980, Note_on_c, 4, 36, 0
6, 14160, Note_on_c, 4, 41, 100
6, 14220, Note_on_c, 4, 41, 0
6, 14220, Note_on_c, 4, 36, 100
6, 14280, Note_on_c, 4, 36, 0
6, 14280, Note_on_c, 4, 33, 100
6, 14340, Note_on_c, 4, 33, 0
6, 14340, Note_on_c, 4, 29, 100
6, 14400, Note_on_c, 4, 29, 0
6, 14400, Note_on_c, 4, 34, 100
6, 14460, Note_on_c, 4, 34, 0
6, 14640, Note_on_c, 4, 39, 100
6, 14700, Note_on_c, 4, 39, 0
6, 14700, Note_on_c, 4, 34, 100
6, 14760, Note_on_c, 4, 34, 0
6, 14760, Note_on_c, 4, 31, 100
6, 14820, Note_on_c, 4, 31, 0
6, 14820, Note_on_c, 4, 27, 100
6, 14880, Note_on_c, 4, 27, 0
6, 14880, Note_on_c, 4, 32, 100
6, 14940, Note_on_c, 4, 32, 0
6, 15000, Note_on_c, 4, 33, 100
6, 15060, Note_on_c, 4, 33, 0
6, 15120, Note_on_c, 4, 34, 100
6, 15180, Note_on_c, 4, 34, 0
6, 15240, Note_on_c, 4, 35, 100
6, 15300, Note_on_c, 4, 35, 0
6, 15360, Note_on_c, 4, 36, 100
6, 15420, Note_on_c, 4, 36, 0
6, 15480, Note_on_c, 4, 32, 100
6, 15540, Note_on_c, 4, 32, 0
6, 15600, Note_on_c, 4, 38, 100
6, 15660, Note_on_c, 4, 38, 0
6, 15720, Note_on_c, 4, 34, 100
6, 15780, Note_on_c, 4, 34, 0
6, 15840, Note_on_c, 4, 39, 100
6, 15900, Note_on_c, 4, 39, 0
6, 16020, Note_on_c, 4, 36, 100
6, 16080, Note_on_c, 4, 36, 0
6, 16080, Note_on_c, 4, 33, 100
6, 16140, Note_on_c, 4, 33, 0
6, 16140, Note_on_c, 4, 45, 100
6, 16170, Note_on_c, 4, 45, 0
6, 16170, Note_on_c, 4, 46, 100
6, 16200, Note_on_c, 4, 46, 0
6, 16200, Note_on_c, 4, 48, 100
6, 16260, Note_on_c, 4, 48, 0
6, 16260, Note_on_c, 4, 45, 100
6, 16320, Note_on_c, 4, 45, 0
6, 16320, Note_on_c, 4, 38, 100
6, 16380, Note_on_c, 4, 38, 0
6, 16500, Note_on_c, 4, 35, 100
6, 16560, Note_on_c, 4, 35, 0
6, 16560, Note_on_c, 4, 31, 100
6, 16620, Note_on_c, 4, 31, 0
6, 16620, Note_on_c, 4, 43, 100
6, 16650, Note_on_c, 4, 43, 0
6, 16650, Note_on_c, 4, 45, 100
6, 16680, Note_on_c, 4, 45, 0
6, 16680, Note_on_c, 4, 47, 100
6, 16740, Note_on_c, 4, 47, 0
6, 16740, Note_on_c, 4, 43, 100
6, 16800, Note_on_c, 4, 43, 0
6, 16800, Note_on_c, 4, 36, 100
6, 16860, Note_on_c, 4, 36, 0
6, 16980, Note_on_c, 4, 48, 100
6, 17040, Note_on_c, 4, 48, 0
6, 17040, Note_on_c, 4, 46, 100
6, 17100, Note_on_c, 4, 46, 0
6, 17220, Note_on_c, 4, 34, 100
6, 17280, Note_on_c, 4, 34, 0
6, 17280, Note_on_c, 4, 39, 100
6, 17340, Note_on_c, 4, 39, 0
6, 17460, Note_on_c, 4, 27, 100
6, 17520, Note_on_c, 4, 27, 0
6, 17520, Note_on_c, 4, 26, 100
6, 17580, Note_on_c, 4, 26, 0
6, 17760, Note_on_c, 4, 31, 100
6, 17820, Note_on_c, 4, 31, 0
6, 17880, Note_on_c, 4, 38, 100
6, 17940, Note_on_c, 4, 38, 0
6, 18000, Note_on_c, 4, 43, 100
6, 18060, Note_on_c, 4, 43, 0
6, 18240, Note_on_c, 4, 36, 100
6, 18300, Note_on_c, 4, 36, 0
6, 18360, Note_on_c, 4, 43, 100
6, 18420, Note_on_c, 4, 43, 0
6, 18480, Note_on_c, 4, 48, 100
6, 18540, Note_on_c, 4, 48, 0
6, 18720, Note_on_c, 4, 41, 100
6, 18780, Note_on_c, 4, 41, 0
6, 18840, Note_on_c, 4, 34, 100
6, 18900, Note_on_c, 4, 34, 0
6, 18960, Note_on_c, 4, 39, 100
6, 19020, Note_on_c, 4, 39, 0
6, 19080, Note_on_c, 4, 33, 100
6, 19140, Note_on_c, 4, 33, 0
6, 19200, Note_on_c, 4, 38, 100
6, 19260, Note_on_c, 4, 38, 0
6, 19320, Note_on_c, 4, 31, 100
6, 19380, Note_on_c, 4, 31, 0
6, 19440, Note_on_c, 4, 38, 100
6, 19500, Note_on_c, 4, 38, 0
6, 19500, Note_on_c, 4, 33, 100
6, 19560, Note_on_c, 4, 33, 0
6, 19560, Note_on_c, 4, 30, 100
6, 19620, Note_on_c, 4, 30, 0
6, 19620, Note_on_c, 4, 26, 100
6, 19680, Note_on_c, 4, 26, 0
6, 19680, Note_on_c, 4, 31, 100
6, 19740, Note_on_c, 4, 31, 0
6, 19800, Note_on_c, 4, 38, 100
6, 19860, Note_on_c, 4, 38, 0
6, 19920, Note_on_c, 4, 43, 100
6, 19980, Note_on_c, 4, 43, 0
6, 20160, Note_on_c, 4, 36, 100
6, 20220, Note_on_c, 4, 36, 0
6, 20280, Note_on_c, 4, 43, 100
6, 20340, Note_on_c, 4, 43, 0
6, 20400, Note_on_c, 4, 48, 100
6, 20460, Note_on_c, 4, 48, 0
6, 20640, Note_on_c, 4, 41, 100
6, 20700, Note_on_c, 4, 41, 0
6, 20760, Note_on_c, 4, 34, 100
6, 20820, Note_on_c, 4, 34, 0
6, 20880, Note_on_c, 4, 39, 100
6, 20940, Note_on_c, 4, 39, 0
6, 21000, Note_on_c, 4, 33, 100
6, 21060, Note_on_c, 4, 33, 0
6, 21120, Note_on_c, 4, 38, 100
6, 21180, Note_on_c, 4, 38, 0
6, 21240, Note_on_c, 4, 31, 100
6, 21300, Note_on_c, 4, 31, 0
6, 21360, Note_on_c, 4, 38, 100
6, 21420, Note_on_c, 4, 38, 0
6, 21420, Note_on_c, 4, 26, 100
6, 21480, Note_on_c, 4, 26, 0
6, 21480, Note_on_c, 4, 30, 100
6, 21540, Note_on_c, 4, 30, 0
6, 21540, Note_on_c, 4, 26, 100
6, 21600, Note_on_c, 4, 26, 0
6, 21600, Note_on_c, 4, 31, 100
6, 21660, Note_on_c, 4, 31, 0
6, 21660, Note_on_c, 4, 43, 100
6, 21720, Note_on_c, 4, 43, 0
6, 21720, Note_on_c, 4, 41, 100
6, 21780, Note_on_c, 4, 41, 0
6, 21780, Note_on_c, 4, 39, 100
6, 21840, Note_on_c, 4, 39, 0
6, 21840, Note_on_c, 4, 38, 100
6, 21870, Note_on_c, 4, 38, 0
6, 21870, Note_on_c, 4, 36, 100
6, 21900, Note_on_c, 4, 36, 0
6, 21900, Note_on_c, 4, 38, 100
6, 21930, Note_on_c, 4, 38, 0
6, 21930, Note_on_c, 4, 39, 100
6, 21960, Note_on_c, 4, 39, 0
6, 21960, Note_on_c, 4, 38, 100
6, 21990, Note_on_c, 4, 38, 0
6, 21990, Note_on_c, 4, 36, 100
6, 22020, Note_on_c, 4, 36, 0
6, 22020, Note_on_c, 4, 34, 100
6, 22050, Note_on_c, 4, 34, 0
6, 22050, Note_on_c, 4, 33, 100
6, 22080, Note_on_c, 4, 33, 0
6, 22080, Note_on_c, 4, 31, 100
6, 22110, Note_on_c, 4, 31, 0
6, 22110, Note_on_c, 4, 30, 100
6, 22140, Note_on_c, 4, 30, 0
6, 22140, Note_on_c, 4, 31, 100
6, 22170, Note_on_c, 4, 31, 0
6, 22170, Note_on_c, 4, 33, 100
6, 22200, Note_on_c, 4, 33, 0
6, 22200, Note_on_c, 4, 31, 100
6, 22230, Note_on_c, 4, 31, 0
6, 22230, Note_on_c, 4, 29, 100
6, 22260, Note_on_c, 4, 29, 0
6, 22260, Note_on_c, 4, 27, 100
6, 22290, Note_on_c, 4, 27, 0
6, 22290, Note_on_c, 4, 26, 100
6, 22320, Note_on_c, 4, 26, 0
6, 22320, Note_on_c, 4, 24, 100
6, 22350, Note_on_c, 4, 24, 0
6, 22350, Note_on_c, 4, 35, 100
6, 22380, Note_on_c, 4, 35, 0
6, 22380, Note_on_c, 4, 36, 100
6, 22410, Note_on_c, 4, 36, 0
6, 22410, Note_on_c, 4, 38, 100
6, 22440, Note_on_c, 4, 38, 0
6, 22440, Note_on_c, 4, 36, 100
6, 22470, Note_on_c, 4, 36, 0
6, 22470, Note_on_c, 4, 34, 100
6, 22500, Note_on_c, 4, 34, 0
6, 22500, Note_on_c, 4, 33, 100
6, 22530, Note_on_c, 4, 33, 0
6, 22530, Note_on_c, 4, 31, 100
6, 22560, Note_on_c, 4, 31, 0
6, 22560, Note_on_c, 4, 30, 100
6, 22680, Note_on_c, 4, 30, 0
6, 22740, Note_on_c, 4, 36, 100
6, 22860, Note_on_c, 4, 36, 0
6, 22860, Note_on_c, 4, 34, 100
6, 22890, Note_on_c, 4, 34, 0
6, 22890, Note_on_c, 4, 33, 100
6, 22920, Note_on_c, 4, 33, 0
6, 22920, Note_on_c, 4, 34, 100
6, 22980, Note_on_c, 4, 34, 0
6, 22980, Note_on_c, 4, 39, 100
6, 23040, Note_on_c, 4, 39, 0
6, 23040, Note_on_c, 4, 38, 100
6, 23100, Note_on_c, 4, 38, 0
6, 23100, Note_on_c, 4, 36, 100
6, 23160, Note_on_c, 4, 36, 0
6, 23160, Note_on_c, 4, 38, 100
6, 23220, Note_on_c, 4, 38, 0
6, 23220, Note_on_c, 4, 26, 100
6, 23280, Note_on_c, 4, 26, 0
6, 23280, Note_on_c, 4, 31, 100
6, 23340, Note_on_c, 4, 31, 0
6, 23340, Note_on_c, 4, 43, 100
6, 23400, Note_on_c, 4, 43, 0
6, 23400, Note_on_c, 4, 42, 100
6, 23460, Note_on_c, 4, 42, 0
6, 23460, Note_on_c, 4, 38, 100
6, 23520, Note_on_c, 4, 38, 0
6, 23520, Note_on_c, 4, 43, 100
6, 23580, Note_on_c, 4, 43, 0
6, 24060, Note_on_c, 4, 43, 100
6, 24120, Note_on_c, 4, 43, 0
6, 24120, Note_on_c, 4, 42, 100
6, 24180, Note_on_c, 4, 42, 0
6, 24180, Note_on_c, 4, 38, 100
6, 24240, Note_on_c, 4, 38, 0
6, 24240, Note_on_c, 4, 43, 100
6, 24300, Note_on_c, 4, 43, 0
6, 24300, Note_on_c, 4, 31, 100
6, 24330, Note_on_c, 4, 31, 0
6, 24330, Note_on_c, 4, 33, 100
6, 24360, Note_on_c, 4, 33, 0
6, 24360, Note_on_c, 4, 34, 100
6, 24420, Note_on_c, 4, 34, 0
6, 24420, Note_on_c, 4, 31, 100
6, 24480, Note_on_c, 4, 31, 0
6, 24480, Note_on_c, 4, 36, 100
6, 24540, Note_on_c, 4, 36, 0
6, 25020, Note_on_c, 4, 48, 100
6, 25079, Note_on_c, 4, 48, 0
6, 25080, Note_on_c, 4, 47, 100
6, 25139, Note_on_c, 4, 47, 0
6, 25140, Note_on_c, 4, 43, 100
6, 25199, Note_on_c, 4, 43, 0
6, 25200, Note_on_c, 4, 48, 100
6, 25259, Note_on_c, 4, 48, 0
6, 25260, Note_on_c, 4, 36, 100
6, 25289, Note_on_c, 4, 36, 0
6, 25290, Note_on_c, 4, 38, 100
6, 25319, Note_on_c, 4, 38, 0
6, 25320, Note_on_c, 4, 39, 100
6, 25379, Note_on_c, 4, 39, 0
6, 25380, Note_on_c, 4, 36, 100
6, 25439, Note_on_c, 4, 36, 0
6, 25440, Note_on_c, 4, 43, 100
6, 25559, Note_on_c, 4, 43, 0
6, 25920, Note_on_c, 4, 29, 100
6, 25949, Note_on_c, 4, 29, 0
6, 25950, Note_on_c, 4, 31, 100
6, 25979, Note_on_c, 4, 31, 0
6, 25980, Note_on_c, 4, 32, 100
6, 26009, Note_on_c, 4, 32, 0
6, 26010, Note_on_c, 4, 34, 100
6, 26039, Note_on_c, 4, 34, 0
6, 26040, Note_on_c, 4, 36, 100
6, 26099, Note_on_c, 4, 36, 0
6, 26100, Note_on_c, 4, 41, 100
6, 26159, Note_on_c, 4, 41, 0
6, 26160, Note_on_c, 4, 40, 100
6, 26219, Note_on_c, 4, 40, 0
6, 26220, Note_on_c, 4, 36, 100
6, 26279, Note_on_c, 4, 36, 0
6, 26280, Note_on_c, 4, 31, 100
6, 26339, Note_on_c, 4, 31, 0
6, 26340, Note_on_c, 4, 34, 100
6, 26399, Note_on_c, 4, 34, 0
6, 26400, Note_on_c, 4, 33, 100
6, 26459, Note_on_c, 4, 33, 0
6, 26460, Note_on_c, 4, 29, 100
6, 26519, Note_on_c, 4, 29, 0
6, 26520, Note_on_c, 4, 39, 100
6, 26699, Note_on_c, 4, 39, 0
6, 26700, Note_on_c, 4, 38, 100
6, 26729, Note_on_c, 4, 38, 0
6, 26730, Note_on_c, 4, 36, 100
6, 26759, Note_on_c, 4, 36, 0
6, 26760, Note_on_c, 4, 38, 100
6, 26819, Note_on_c, 4, 38, 0
6, 26820, Note_on_c, 4, 34, 100
6, 26879, Note_on_c, 4, 34, 0
6, 26880, Note_on_c, 4, 31, 100
6, 26939, Note_on_c, 4, 31, 0
6, 26940, Note_on_c, 4, 34, 100
6, 26999, Note_on_c, 4, 34, 0
6, 27000, Note_on_c, 4, 37, 100
6, 27059, Note_on_c, 4, 37, 0
6, 27060, Note_on_c, 4, 29, 100
6, 27119, Note_on_c, 4, 29, 0
6, 27120, Note_on_c, 4, 28, 100
6, 27179, Note_on_c, 4, 28, 0
6, 27180, Note_on_c, 4, 36, 100
6, 27239, Note_on_c, 4, 36, 0
6, 27240, Note_on_c, 4, 29, 100
6, 27299, Note_on_c, 4, 29, 0
6, 27300, Note_on_c, 4, 37, 100
6, 27359, Note_on_c, 4, 37, 0
6, 27360, Note_on_c, 4, 36, 100
6, 27419, Note_on_c, 4, 36, 0
6, 27420, Note_on_c, 4, 34, 100
6, 27479, Note_on_c, 4, 34, 0
6, 27480, Note_on_c, 4, 36, 100
6, 27539, Note_on_c, 4, 36, 0
6, 27540, Note_on_c, 4, 24, 100
6, 27599, Note_on_c, 4, 24, 0
6, 27600, Note_on_c, 4, 29, 100
6, 27659, Note_on_c, 4, 29, 0
6, 27660, Note_on_c, 4, 41, 100
6, 27719, Note_on_c, 4, 41, 0
6, 27720, Note_on_c, 4, 40, 100
6, 27779, Note_on_c, 4, 40, 0
6, 27780, Note_on_c, 4, 36, 100
6, 27839, Note_on_c, 4, 36, 0
6, 27840, Note_on_c, 4, 41, 100
6, 27899, Note_on_c, 4, 41, 0
6, 28380, Note_on_c, 4, 41, 100
6, 28439, Note_on_c, 4, 41, 0
6, 28440, Note_on_c, 4, 40, 100
6, 28499, Note_on_c, 4, 40, 0
6, 28500, Note_on_c, 4, 36, 100
6, 28559, Note_on_c, 4, 36, 0
6, 28560, Note_on_c, 4, 41, 100
6, 28619, Note_on_c, 4, 41, 0
6, 28620, Note_on_c, 4, 29, 100
6, 28649, Note_on_c, 4, 29, 0
6, 28650, Note_on_c, 4, 31, 100
6, 28679, Note_on_c, 4, 31, 0
6, 28680, Note_on_c, 4, 32, 100
6, 28739, Note_on_c, 4, 32, 0
6, 28740, Note_on_c, 4, 29, 100
6, 28799, Note_on_c, 4, 29, 0
6, 28800, Note_on_c, 4, 34, 100
6, 28859, Note_on_c, 4, 34, 0
6, 29340, Note_on_c, 4, 46, 100
6, 29399, Note_on_c, 4, 46, 0
6, 29400, Note_on_c, 4, 45, 100
6, 29459, Note_on_c, 4, 45, 0
6, 29460, Note_on_c, 4, 41, 100
6, 29519, Note_on_c, 4, 41, 0
6, 29520, Note_on_c, 4, 46, 100
6, 29579, Note_on_c, 4, 46, 0
6, 29580, Note_on_c, 4, 34, 100
6, 29609, Note_on_c, 4, 34, 0
6, 29610, Note_on_c, 4, 36, 100
6, 29639, Note_on_c, 4, 36, 0
6, 29640, Note_on_c, 4, 37, 100
6, 29699, Note_on_c, 4, 37, 0
6, 29700, Note_on_c, 4, 34, 100
6, 29759, Note_on_c, 4, 34, 0
6, 29760, Note_on_c, 4, 39, 100
6, 29819, Note_on_c, 4, 39, 0
6, 29940, Note_on_c, 4, 27, 100
6, 29999, Note_on_c, 4, 27, 0
6, 30000, Note_on_c, 4, 32, 100
6, 30059, Note_on_c, 4, 32, 0
6, 30180, Note_on_c, 4, 32, 100
6, 30209, Note_on_c, 4, 32, 0
6, 30210, Note_on_c, 4, 34, 100
6, 30239, Note_on_c, 4, 34, 0
6, 30240, Note_on_c, 4, 36, 100
6, 30299, Note_on_c, 4, 36, 0
6, 30420, Note_on_c, 4, 24, 100
6, 30479, Note_on_c, 4, 24, 0
6, 30480, Note_on_c, 4, 29, 100
6, 30539, Note_on_c, 4, 29, 0
6, 30660, Note_on_c, 4, 26, 100
6, 30719, Note_on_c, 4, 26, 0
6, 30720, Note_on_c, 4, 31, 100
6, 30779, Note_on_c, 4, 31, 0
6, 30900, Note_on_c, 4, 31, 100
6, 30959, Note_on_c, 4, 31, 0
6, 30960, Note_on_c, 4, 36, 100
6, 31019, Note_on_c, 4, 36, 0
6, 31140, Note_on_c, 4, 36, 100
6, 31169, Note_on_c, 4, 36, 0
6, 31170, Note_on_c, 4, 37, 100
6, 31199, Note_on_c, 4, 37, 0
6, 31200, Note_on_c, 4, 39, 100
6, 31259, Note_on_c, 4, 39, 0
6, 31380, Note_on_c, 4, 27, 100
6, 31439, Note_on_c, 4, 27, 0
6, 31440, Note_on_c, 4, 32, 100
6, 31499, Note_on_c, 4, 32, 0
6, 31620, Note_on_c, 4, 44, 100
6, 31649, Note_on_c, 4, 44, 0
6, 31650, Note_on_c, 4, 43, 100
6, 31679, Note_on_c, 4, 43, 0
6, 31680, Note_on_c, 4, 41, 100
6, 31739, Note_on_c, 4, 41, 0
6, 31860, Note_on_c, 4, 38, 100
6, 31919, Note_on_c, 4, 38, 0
6, 31920, Note_on_c, 4, 39, 100
6, 31979, Note_on_c, 4, 39, 0
6, 32100, Note_on_c, 4, 36, 100
6, 32159, Note_on_c, 4, 36, 0
6, 32160, Note_on_c, 4, 38, 100
6, 32219, Note_on_c, 4, 38, 0
6, 32340, Note_on_c, 4, 31, 100
6, 32399, Note_on_c, 4, 31, 0
6, 32400, Note_on_c, 4, 36, 100
6, 32459, Note_on_c, 4, 36, 0
6, 32460, Note_on_c, 4, 24, 100
6, 32519, Note_on_c, 4, 24, 0
6, 32520, Note_on_c, 4, 36, 100
6, 32579, Note_on_c, 4, 36, 0
6, 32580, Note_on_c, 4, 39, 100
6, 32639, Note_on_c, 4, 39, 0
6, 32640, Note_on_c, 4, 41, 100
6, 32699, Note_on_c, 4, 41, 0
6, 32880, Note_on_c, 4, 46, 100
6, 32939, Note_on_c, 4, 46, 0
6, 32940, Note_on_c, 4, 41, 100
6, 32999, Note_on_c, 4, 41, 0
6, 33000, Note_on_c, 4, 38, 100
6, 33059, Note_on_c, 4, 38, 0
6, 33060, Note_on_c, 4, 34, 100
6, 33119, Note_on_c, 4, 34, 0
6, 33120, Note_on_c, 4, 39, 100
6, 33179, Note_on_c, 4, 39, 0
6, 33360, Note_on_c, 4, 44, 100
6, 33419, Note_on_c, 4, 44, 0
6, 33420, Note_on_c, 4, 39, 100
6, 33479, Note_on_c, 4, 39, 0
6, 33480, Note_on_c, 4, 36, 100
6, 33539, Note_on_c, 4, 36, 0
6, 33540, Note_on_c, 4, 32, 100
6, 33599, Note_on_c, 4, 32, 0
6, 33600, Note_on_c, 4, 37, 100
6, 33659, Note_on_c, 4, 37, 0
6, 33720, Note_on_c, 4, 38, 100
6, 33779, Note_on_c, 4, 38, 0
6, 33840, Note_on_c, 4, 39, 100
6, 33899, Note_on_c, 4, 39, 0
6, 33960, Note_on_c, 4, 40, 100
6, 34019, Note_on_c, 4, 40, 0
6, 34080, Note_on_c, 4, 41, 100
6, 34139, Note_on_c, 4, 41, 0
6, 34200, Note_on_c, 4, 37, 100
6, 34259, Note_on_c, 4, 37, 0
6, 34320, Note_on_c, 4, 43, 100
6, 34379, Note_on_c, 4, 43, 0
6, 34440, Note_on_c, 4, 39, 100
6, 34499, Note_on_c, 4, 39, 0
6, 34560, Note_on_c, 4, 44, 100
6, 34619, Note_on_c, 4, 44, 0
6, 34740, Note_on_c, 4, 41, 100
6, 34799, Note_on_c, 4, 41, 0
6, 34800, Note_on_c, 4, 38, 100
6, 34859, Note_on_c, 4, 38, 0
6, 34860, Note_on_c, 4, 26, 100
6, 34889, Note_on_c, 4, 26, 0
6, 34890, Note_on_c, 4, 27, 100
6, 34919, Note_on_c, 4, 27, 0
6, 34920, Note_on_c, 4, 29, 100
6, 34979, Note_on_c, 4, 29, 0
6, 34980, Note_on_c, 4, 26, 100
6, 35039, Note_on_c, 4, 26, 0
6, 35040, Note_on_c, 4, 31, 100
6, 35099, Note_on_c, 4, 31, 0
6, 35220, Note_on_c, 4, 40, 100
6, 35279, Note_on_c, 4, 40, 0
6, 35280, Note_on_c, 4, 36, 100
6, 35339, Note_on_c, 4, 36, 0
6, 35340, Note_on_c, 4, 24, 100
6, 35369, Note_on_c, 4, 24, 0
6, 35370, Note_on_c, 4, 26, 100
6, 35399, Note_on_c, 4, 26, 0
6, 35400, Note_on_c, 4, 28, 100
6, 35459, Note_on_c, 4, 28, 0
6, 35460, Note_on_c, 4, 24, 100
6, 35519, Note_on_c, 4, 24, 0
6, 35520, Note_on_c, 4, 29, 100
6, 35579, Note_on_c, 4, 29, 0
6, 35700, Note_on_c, 4, 41, 100
6, 35759, Note_on_c, 4, 41, 0
6, 35760, Note_on_c, 4, 39, 100
6, 35819, Note_on_c, 4, 39, 0
6, 35940, Note_on_c, 4, 27, 100
6, 35999, Note_on_c, 4, 27, 0
6, 36000, Note_on_c, 4, 32, 100
6, 36059, Note_on_c, 4, 32, 0
6, 36180, Note_on_c, 4, 44, 100
6, 36239, Note_on_c, 4, 44, 0
6, 36240, Note_on_c, 4, 43, 100
6, 36299, Note_on_c, 4, 43, 0
6, 36480, Note_on_c, 4, 36, 100
6, 36539, Note_on_c, 4, 36, 0
6, 36600, Note_on_c, 4, 31, 100
6, 36659, Note_on_c, 4, 31, 0
6, 36720, Note_on_c, 4, 24, 100
6, 36779, Note_on_c, 4, 24, 0
6, 36960, Note_on_c, 4, 41, 100
6, 37019, Note_on_c, 4, 41, 0
6, 37080, Note_on_c, 4, 36, 100
6, 37139, Note_on_c, 4, 36, 0
6, 37200, Note_on_c, 4, 29, 100
6, 37259, Note_on_c, 4, 29, 0
6, 37440, Note_on_c, 4, 46, 100
6, 37499, Note_on_c, 4, 46, 0
6, 37560, Note_on_c, 4, 39, 100
6, 37619, Note_on_c, 4, 39, 0
6, 37680, Note_on_c, 4, 44, 100
6, 37739, Note_on_c, 4, 44, 0
6, 37800, Note_on_c, 4, 38, 100
6, 37859, Note_on_c, 4, 38, 0
6, 37920, Note_on_c, 4, 43, 100
6, 37979, Note_on_c, 4, 43, 0
6, 38040, Note_on_c, 4, 36, 100
6, 38099, Note_on_c, 4, 36, 0
6, 38160, Note_on_c, 4, 43, 100
6, 38219, Note_on_c, 4, 43, 0
6, 38220, Note_on_c, 4, 38, 100
6, 38279, Note_on_c, 4, 38, 0
6, 38280, Note_on_c, 4, 35, 100
6, 38339, Note_on_c, 4, 35, 0
6, 38340, Note_on_c, 4, 31, 100
6, 38399, Note_on_c, 4, 31, 0
6, 38400, Note_on_c, 4, 36, 100
6, 38459, Note_on_c, 4, 36, 0
6, 38520, Note_on_c, 4, 31, 100
6, 38579, Note_on_c, 4, 31, 0
6, 38640, Note_on_c, 4, 24, 100
6, 38699, Note_on_c, 4, 24, 0
6, 38880, Note_on_c, 4, 41, 100
6, 38939, Note_on_c, 4, 41, 0
6, 39000, Note_on_c, 4, 36, 100
6, 39059, Note_on_c, 4, 36, 0
6, 39120, Note_on_c, 4, 29, 100
6, 39179, Note_on_c, 4, 29, 0
6, 39360, Note_on_c, 4, 46, 100
6, 39419, Note_on_c, 4, 46, 0
6, 39480, Note_on_c, 4, 39, 100
6, 39539, Note_on_c, 4, 39, 0
6, 39600, Note_on_c, 4, 44, 100
6, 39659, Note_on_c, 4, 44, 0
6, 39720, Note_on_c, 4, 38, 100
6, 39779, Note_on_c, 4, 38, 0
6, 39840, Note_on_c, 4, 43, 100
6, 39899, Note_on_c, 4, 43, 0
6, 39960, Note_on_c, 4, 36, 100
6, 40019, Note_on_c, 4, 36, 0
6, 40080, Note_on_c, 4, 43, 100
6, 40139, Note_on_c, 4, 43, 0
6, 40140, Note_on_c, 4, 31, 100
6, 40199, Note_on_c, 4, 31, 0
6, 40200, Note_on_c, 4, 35, 100
6, 40259, Note_on_c, 4, 35, 0
6, 40260, Note_on_c, 4, 31, 100
6, 40319, Note_on_c, 4, 31, 0
6, 40320, Note_on_c, 4, 36, 100
6, 40349, Note_on_c, 4, 36, 0
6, 40350, Note_on_c, 4, 35, 100
6, 40379, Note_on_c, 4, 35, 0
6, 40380, Note_on_c, 4, 36, 100
6, 40409, Note_on_c, 4, 36, 0
6, 40410, Note_on_c, 4, 38, 100
6, 40439, Note_on_c, 4, 38, 0
6, 40440, Note_on_c, 4, 39, 100
6, 40469, Note_on_c, 4, 39, 0
6, 40470, Note_on_c, 4, 38, 100
6, 40499, Note_on_c, 4, 38, 0
6, 40500, Note_on_c, 4, 39, 100
6, 40529, Note_on_c, 4, 39, 0
6, 40530, Note_on_c, 4, 41, 100
6, 40559, Note_on_c, 4, 41, 0
6, 40560, Note_on_c, 4, 43, 100
6, 40589, Note_on_c, 4, 43, 0
6, 40590, Note_on_c, 4, 41, 100
6, 40619, Note_on_c, 4, 41, 0
6, 40620, Note_on_c, 4, 43, 100
6, 40649, Note_on_c, 4, 43, 0
6, 40650, Note_on_c, 4, 44, 100
6, 40679, Note_on_c, 4, 44, 0
6, 40680, Note_on_c, 4, 43, 100
6, 40709, Note_on_c, 4, 43, 0
6, 40710, Note_on_c, 4, 41, 100
6, 40739, Note_on_c, 4, 41, 0
6, 40740, Note_on_c, 4, 40, 100
6, 40769, Note_on_c, 4, 40, 0
6, 40770, Note_on_c, 4, 38, 100
6, 40799, Note_on_c, 4, 38, 0
6, 40800, Note_on_c, 4, 36, 100
6, 40829, Note_on_c, 4, 36, 0
6, 40830, Note_on_c, 4, 34, 100
6, 40859, Note_on_c, 4, 34, 0
6, 40860, Note_on_c, 4, 36, 100
6, 40889, Note_on_c, 4, 36, 0
6, 40890, Note_on_c, 4, 37, 100
6, 40919, Note_on_c, 4, 37, 0
6, 40920, Note_on_c, 4, 36, 100
6, 40949, Note_on_c, 4, 36, 0
6, 40950, Note_on_c, 4, 34, 100
6, 40979, Note_on_c, 4, 34, 0
6, 40980, Note_on_c, 4, 32, 100
6, 41009, Note_on_c, 4, 32, 0
6, 41010, Note_on_c, 4, 31, 100
6, 41039, Note_on_c, 4, 31, 0
6, 41040, Note_on_c, 4, 29, 100
6, 41069, Note_on_c, 4, 29, 0
6, 41070, Note_on_c, 4, 40, 100
6, 41099, Note_on_c, 4, 40, 0
6, 41100, Note_on_c, 4, 41, 100
6, 41129, Note_on_c, 4, 41, 0
6, 41130, Note_on_c, 4, 43, 100
6, 41159, Note_on_c, 4, 43, 0
6, 41160, Note_on_c, 4, 41, 100
6, 41189, Note_on_c, 4, 41, 0
6, 41190, Note_on_c, 4, 39, 100
6, 41219, Note_on_c, 4, 39, 0
6, 41220, Note_on_c, 4, 38, 100
6, 41249, Note_on_c, 4, 38, 0
6, 41250, Note_on_c, 4, 36, 100
6, 41279, Note_on_c, 4, 36, 0
6, 41280, Note_on_c, 4, 35, 100
6, 41399, Note_on_c, 4, 35, 0
6, 41460, Note_on_c, 4, 41, 100
6, 41579, Note_on_c, 4, 41, 0
6, 41580, Note_on_c, 4, 39, 100
6, 41609, Note_on_c, 4, 39, 0
6, 41610, Note_on_c, 4, 38, 100
6, 41639, Note_on_c, 4, 38, 0
6, 41640, Note_on_c, 4, 39, 100
6, 41699, Note_on_c, 4, 39, 0
6, 41700, Note_on_c, 4, 44, 100
6, 41759, Note_on_c, 4, 44, 0
6, 41760, Note_on_c, 4, 43, 100
6, 41819, Note_on_c, 4, 43, 0
6, 41820, Note_on_c, 4, 41, 100
6, 41879, Note_on_c, 4, 41, 0
6, 41880, Note_on_c, 4, 43, 100
6, 41939, Note_on_c, 4, 43, 0
6, 41940, Note_on_c, 4, 31, 100
6, 41999, Note_on_c, 4, 31, 0
6, 42000, Note_on_c, 4, 36, 100
6, 42239, Note_on_c, 4, 36, 0
6, 42720, Note_on_c, 4, 39, 100
6, 42840, Note_on_c, 4, 39, 0
6, 42840, Note_on_c, 4, 27, 100
6, 42900, Note_on_c, 4, 27, 0
6, 42900, Note_on_c, 4, 29, 100
6, 43020, Note_on_c, 4, 29, 0
6, 43020, Note_on_c, 4, 41, 100
6, 43080, Note_on_c, 4, 41, 0
6, 43080, Note_on_c, 4, 43, 100
6, 43200, Note_on_c, 4, 43, 0
6, 43200, Note_on_c, 4, 31, 100
6, 43260, Note_on_c, 4, 31, 0
6, 43260, Note_on_c, 4, 32, 100
6, 43380, Note_on_c, 4, 32, 0
6, 43380, Note_on_c, 4, 44, 100
6, 43440, Note_on_c, 4, 44, 0
6, 43440, Note_on_c, 4, 44, 100
6, 43560, Note_on_c, 4, 44, 0
6, 43560, Note_on_c, 4, 43, 100
6, 43620, Note_on_c, 4, 43, 0
6, 43620, Note_on_c, 4, 41, 100
6, 43740, Note_on_c, 4, 41, 0
6, 43740, Note_on_c, 4, 46, 100
6, 43800, Note_on_c, 4, 46, 0
6, 43800, Note_on_c, 4, 39, 100
6, 43920, Note_on_c, 4, 39, 0
6, 43920, Note_on_c, 4, 43, 100
6, 43980, Note_on_c, 4, 43, 0
6, 43980, Note_on_c, 4, 36, 100
6, 44100, Note_on_c, 4, 36, 0
6, 44100, Note_on_c, 4, 41, 100
6, 44160, Note_on_c, 4, 41, 0
6, 44160, Note_on_c, 4, 34, 100
6, 44280, Note_on_c, 4, 34, 0
6, 44280, Note_on_c, 4, 46, 100
6, 44340, Note_on_c, 4, 46, 0
6, 44340, Note_on_c, 4, 48, 100
6, 44460, Note_on_c, 4, 48, 0
6, 44460, Note_on_c, 4, 36, 100
6, 44520, Note_on_c, 4, 36, 0
6, 44520, Note_on_c, 4, 38, 100
6, 44640, Note_on_c, 4, 38, 0
6, 44640, Note_on_c, 4, 26, 100
6, 44700, Note_on_c, 4, 26, 0
6, 44700, Note_on_c, 4, 27, 100
6, 44820, Note_on_c, 4, 27, 0
6, 44820, Note_on_c, 4, 39, 100
6, 44880, Note_on_c, 4, 39, 0
6, 44880, Note_on_c, 4, 39, 100
6, 45000, Note_on_c, 4, 39, 0
6, 45000, Note_on_c, 4, 38, 100
6, 45060, Note_on_c, 4, 38, 0
6, 45060, Note_on_c, 4, 36, 100
6, 45180, Note_on_c, 4, 36, 0
6, 45180, Note_on_c, 4, 41, 100
6, 45240, Note_on_c, 4, 41, 0
6, 45240, Note_on_c, 4, 34, 100
6, 45360, Note_on_c, 4, 34, 0
6, 45360, Note_on_c, 4, 32, 100
6, 45420, Note_on_c, 4, 32, 0
6, 45420, Note_on_c, 4, 31, 100
6, 45540, Note_on_c, 4, 31, 0
6, 45540, Note_on_c, 4, 27, 100
6, 45600, Note_on_c, 4, 27, 0
6, 45600, Note_on_c, 4, 32, 100
6, 45720, Note_on_c, 4, 32, 0
6, 45720, Note_on_c, 4, 31, 100
6, 45780, Note_on_c, 4, 31, 0
6, 45780, Note_on_c, 4, 29, 100
6, 45900, Note_on_c, 4, 29, 0
6, 45900, Note_on_c, 4, 26, 100
6, 45960, Note_on_c, 4, 26, 0
6, 45960, Note_on_c, 4, 31, 100
6, 46080, Note_on_c, 4, 31, 0
6, 46080, Note_on_c, 4, 29, 100
6, 46140, Note_on_c, 4, 29, 0
6, 46140, Note_on_c, 4, 27, 100
6, 46260, Note_on_c, 4, 27, 0
6, 46260, Note_on_c, 4, 24, 100
6, 46320, Note_on_c, 4, 24, 0
6, 46320, Note_on_c, 4, 29, 100
6, 46440, Note_on_c, 4, 29, 0
6, 46440, Note_on_c, 4, 27, 100
6, 46500, Note_on_c, 4, 27, 0
6, 46500, Note_on_c, 4, 26, 100
6, 46620, Note_on_c, 4, 26, 0
6, 46620, Note_on_c, 4, 34, 100
6, 46680, Note_on_c, 4, 34, 0
6, 46680, Note_on_c, 4, 27, 100
6, 46800, Note_on_c, 4, 27, 0
6, 46800, Note_on_c, 4, 32, 100
6, 46860, Note_on_c, 4, 32, 0
6, 46860, Note_on_c, 4, 26, 100
6, 46980, Note_on_c, 4, 26, 0
6, 46980, Note_on_c, 4, 31, 100
6, 47040, Note_on_c, 4, 31, 0
6, 47040, Note_on_c, 4, 36, 100
6, 47160, Note_on_c, 4, 36, 0
6, 47160, Note_on_c, 4, 24, 100
6, 47220, Note_on_c, 4, 24, 0
6, 47220, Note_on_c, 4, 26, 100
6, 47340, Note_on_c, 4, 26, 0
6, 47340, Note_on_c, 4, 38, 100
6, 47400, Note_on_c, 4, 38, 0
6, 47400, Note_on_c, 4, 39, 100
6, 47520, Note_on_c, 4, 39, 0
6, 47520, Note_on_c, 4, 27, 100
6, 47580, Note_on_c, 4, 27, 0
6, 47580, Note_on_c, 4, 29, 100
6, 47700, Note_on_c, 4, 29, 0
6, 47700, Note_on_c, 4, 41, 100
6, 47760, Note_on_c, 4, 41, 0
6, 47760, Note_on_c, 4, 41, 100
6, 47880, Note_on_c, 4, 41, 0
6, 47880, Note_on_c, 4, 39, 100
6, 47940, Note_on_c, 4, 39, 0
6, 47940, Note_on_c, 4, 38, 100
6, 48060, Note_on_c, 4, 38, 0
6, 48060, Note_on_c, 4, 43, 100
6, 48120, Note_on_c, 4, 43, 0
6, 48120, Note_on_c, 4, 36, 100
6, 48240, Note_on_c, 4, 36, 0
6, 48240, Note_on_c, 4, 48, 100
6, 48300, Note_on_c, 4, 48, 0
6, 48300, Note_on_c, 4, 40, 100
6, 48420, Note_on_c, 4, 40, 0
6, 48420, Note_on_c, 4, 36, 100
6, 48480, Note_on_c, 4, 36, 0
6, 48480, Note_on_c, 4, 41, 100
6, 48600, Note_on_c, 4, 41, 0
6, 48600, Note_on_c, 4, 49, 100
6, 48660, Note_on_c, 4, 49, 0
6, 48660, Note_on_c, 4, 41, 100
6, 48780, Note_on_c, 4, 41, 0
6, 48780, Note_on_c, 4, 37, 100
6, 48840, Note_on_c, 4, 37, 0
6, 48840, Note_on_c, 4, 43, 100
6, 48960, Note_on_c, 4, 43, 0
6, 48960, Note_on_c, 4, 51, 100
6, 49020, Note_on_c, 4, 51, 0
6, 49020, Note_on_c, 4, 43, 100
6, 49140, Note_on_c, 4, 43, 0
6, 49140, Note_on_c, 4, 39, 100
6, 49200, Note_on_c, 4, 39, 0
6, 49200, Note_on_c, 4, 44, 100
6, 49320, Note_on_c, 4, 44, 0
6, 49320, Note_on_c, 4, 32, 100
6, 49380, Note_on_c, 4, 32, 0
6, 49380, Note_on_c, 4, 34, 100
6, 49500, Note_on_c, 4, 34, 0
6, 49500, Note_on_c, 4, 46, 100
6, 49560, Note_on_c, 4, 46, 0
6, 49560, Note_on_c, 4, 48, 100
6, 49680, Note_on_c, 4, 48, 0
6, 49680, Note_on_c, 4, 36, 100
6, 49740, Note_on_c, 4, 36, 0
6, 49740, Note_on_c, 4, 37, 100
6, 49860, Note_on_c, 4, 37, 0
6, 49860, Note_on_c, 4, 49, 100
6, 49920, Note_on_c, 4, 49, 0
6, 49920, Note_on_c, 4, 49, 100
6, 50040, Note_on_c, 4, 49, 0
6, 50040, Note_on_c, 4, 48, 100
6, 50100, Note_on_c, 4, 48, 0
6, 50100, Note_on_c, 4, 46, 100
6, 50220, Note_on_c, 4, 46, 0
6, 50220, Note_on_c, 4, 39, 100
6, 50280, Note_on_c, 4, 39, 0
6, 50280, Note_on_c, 4, 44, 100
6, 50400, Note_on_c, 4, 44, 0
6, 50400, Note_on_c, 4, 48, 100
6, 50460, Note_on_c, 4, 48, 0
6, 50460, Note_on_c, 4, 41, 100
6, 50580, Note_on_c, 4, 41, 0
6, 50580, Note_on_c, 4, 46, 100
6, 50640, Note_on_c, 4, 46, 0
6, 50640, Note_on_c, 4, 39, 100
6, 50759, Note_on_c, 4, 39, 0
6, 50760, Note_on_c, 4, 27, 100
6, 50819, Note_on_c, 4, 27, 0
6, 50820, Note_on_c, 4, 29, 100
6, 50939, Note_on_c, 4, 29, 0
6, 50940, Note_on_c, 4, 41, 100
6, 50999, Note_on_c, 4, 41, 0
6, 51000, Note_on_c, 4, 43, 100
6, 51119, Note_on_c, 4, 43, 0
6, 51120, Note_on_c, 4, 31, 100
6, 51179, Note_on_c, 4, 31, 0
6, 51180, Note_on_c, 4, 32, 100
6, 51299, Note_on_c, 4, 32, 0
6, 51300, Note_on_c, 4, 44, 100
6, 51359, Note_on_c, 4, 44, 0
6, 51360, Note_on_c, 4, 44, 100
6, 51479, Note_on_c, 4, 44, 0
6, 51480, Note_on_c, 4, 43, 100
6, 51539, Note_on_c, 4, 43, 0
6, 51540, Note_on_c, 4, 41, 100
6, 51659, Note_on_c, 4, 41, 0
6, 51660, Note_on_c, 4, 34, 100
6, 51719, Note_on_c, 4, 34, 0
6, 51720, Note_on_c, 4, 39, 100
6, 51839, Note_on_c, 4, 39, 0
6, 51840, Note_on_c, 4, 41, 100
6, 51899, Note_on_c, 4, 41, 0
6, 51900, Note_on_c, 4, 43, 100
6, 52019, Note_on_c, 4, 43, 0
6, 52020, Note_on_c, 4, 39, 100
6, 52079, Note_on_c, 4, 39, 0
6, 52080, Note_on_c, 4, 44, 100
6, 52199, Note_on_c, 4, 44, 0
6, 52200, Note_on_c, 4, 43, 100
6, 52259, Note_on_c, 4, 43, 0
6, 52260, Note_on_c, 4, 41, 100
6, 52379, Note_on_c, 4, 41, 0
6, 52380, Note_on_c, 4, 38, 100
6, 52439, Note_on_c, 4, 38, 0
6, 52440, Note_on_c, 4, 43, 100
6, 52559, Note_on_c, 4, 43, 0
6, 52560, Note_on_c, 4, 41, 100
6, 52619, Note_on_c, 4, 41, 0
6, 52620, Note_on_c, 4, 39, 100
6, 52739, Note_on_c, 4, 39, 0
6, 52740, Note_on_c, 4, 36, 100
6, 52799, Note_on_c, 4, 36, 0
6, 52800, Note_on_c, 4, 41, 100
6, 52919, Note_on_c, 4, 41, 0
6, 52920, Note_on_c, 4, 39, 100
6, 52979, Note_on_c, 4, 39, 0
6, 52980, Note_on_c, 4, 38, 100
6, 53099, Note_on_c, 4, 38, 0
6, 53100, Note_on_c, 4, 34, 100
6, 53159, Note_on_c, 4, 34, 0
6, 53160, Note_on_c, 4, 39, 100
6, 53279, Note_on_c, 4, 39, 0
6, 53280, Note_on_c, 4, 36, 100
6, 53339, Note_on_c, 4, 36, 0
6, 53340, Note_on_c, 4, 34, 100
6, 53459, Note_on_c, 4, 34, 0
6, 53460, Note_on_c, 4, 34, 100
6, 53519, Note_on_c, 4, 34, 0
6, 53520, Note_on_c, 4, 27, 100
6, 53639, Note_on_c, 4, 27, 0
6, 53880, Note_on_c, 4, 27, 100
6, 53999, Note_on_c, 4, 27, 0
6, 54240, Note_on_c, 4, 27, 100
6, 54359, Note_on_c, 4, 27, 0
6, 54420, Note_on_c, 4, 39, 100
6, 54539, Note_on_c, 4, 39, 0
6, 54600, Note_on_c, 4, 27, 100
6, 54719, Note_on_c, 4, 27, 0
6, 54780, Note_on_c, 4, 39, 100
6, 54899, Note_on_c, 4, 39, 0
6, 54960, Note_on_c, 4, 27, 100
6, 55079, Note_on_c, 4, 27, 0
6, 55140, Note_on_c, 4, 39, 100
6, 55259, Note_on_c, 4, 39, 0
6, 55320, Note_on_c, 4, 27, 100
6, 55379, Note_on_c, 4, 27, 0
6, 55380, Note_on_c, 4, 29, 100
6, 55439, Note_on_c, 4, 29, 0
6, 55440, Note_on_c, 4, 31, 100
6, 55499, Note_on_c, 4, 31, 0
6, 55500, Note_on_c, 4, 24, 100
6, 55619, Note_on_c, 4, 24, 0
6, 55620, Note_on_c, 4, 29, 100
6, 55679, Note_on_c, 4, 29, 0
6, 55680, Note_on_c, 4, 34, 100
6, 55799, Note_on_c, 4, 34, 0
6, 55800, Note_on_c, 4, 36, 100
6, 55859, Note_on_c, 4, 36, 0
6, 55860, Note_on_c, 4, 38, 100
6, 55979, Note_on_c, 4, 38, 0
6, 55980, Note_on_c, 4, 34, 100
6, 56039, Note_on_c, 4, 34, 0
6, 56040, Note_on_c, 4, 39, 100
6, 56159, Note_on_c, 4, 39, 0
6, 56160, Note_on_c, 4, 38, 100
6, 56219, Note_on_c, 4, 38, 0
6, 56220, Note_on_c, 4, 36, 100
6, 56339, Note_on_c, 4, 36, 0
6, 56340, Note_on_c, 4, 33, 100
6, 56399, Note_on_c, 4, 33, 0
6, 56400, Note_on_c, 4, 38, 100
6, 56519, Note_on_c, 4, 38, 0
6, 56520, Note_on_c, 4, 36, 100
6, 56579, Note_on_c, 4, 36, 0
6, 56580, Note_on_c, 4, 34, 100
6, 56699, Note_on_c, 4, 34, 0
6, 56700, Note_on_c, 4, 31, 100
6, 56759, Note_on_c, 4, 31, 0
6, 56760, Note_on_c, 4, 36, 100
6, 56879, Note_on_c, 4, 36, 0
6, 56880, Note_on_c, 4, 34, 100
6, 56939, Note_on_c, 4, 34, 0
6, 56940, Note_on_c, 4, 33, 100
6, 57059, Note_on_c, 4, 33, 0
6, 57060, Note_on_c, 4, 29, 100
6, 57119, Note_on_c, 4, 29, 0
6, 57120, Note_on_c, 4, 34, 100
6, 57239, Note_on_c, 4, 34, 0
6, 57480, Note_on_c, 4, 34, 100
6, 57599, Note_on_c, 4, 34, 0
6, 57840, Note_on_c, 4, 34, 100
6, 57959, Note_on_c, 4, 34, 0
6, 58020, Note_on_c, 4, 46, 100
6, 58139, Note_on_c, 4, 46, 0
6, 58200, Note_on_c, 4, 34, 100
6, 58319, Note_on_c, 4, 34, 0
6, 58380, Note_on_c, 4, 46, 100
6, 58499, Note_on_c, 4, 46, 0
6, 58560, Note_on_c, 4, 34, 100
6, 58679, Note_on_c, 4, 34, 0
6, 58740, Note_on_c, 4, 46, 100
6, 58859, Note_on_c, 4, 46, 0
6, 58920, Note_on_c, 4, 34, 100
6, 58979, Note_on_c, 4, 34, 0
6, 58980, Note_on_c, 4, 36, 100
6, 59039, Note_on_c, 4, 36, 0
6, 59040, Note_on_c, 4, 38, 100
6, 59099, Note_on_c, 4, 38, 0
6, 59100, Note_on_c, 4, 31, 100
6, 59219, Note_on_c, 4, 31, 0
6, 59220, Note_on_c, 4, 36, 100
6, 59279, Note_on_c, 4, 36, 0
6, 59280, Note_on_c, 4, 29, 100
6, 59339, Note_on_c, 4, 29, 0
6, 59340, Note_on_c, 4, 41, 100
6, 59399, Note_on_c, 4, 41, 0
6, 59400, Note_on_c, 4, 39, 100
6, 59459, Note_on_c, 4, 39, 0
6, 59460, Note_on_c, 4, 38, 100
6, 59579, Note_on_c, 4, 38, 0
6, 59580, Note_on_c, 4, 46, 100
6, 59639, Note_on_c, 4, 46, 0
6, 59640, Note_on_c, 4, 36, 100
6, 59759, Note_on_c, 4, 36, 0
6, 59760, Note_on_c, 4, 45, 100
6, 59819, Note_on_c, 4, 45, 0
6, 59820, Note_on_c, 4, 34, 100
6, 59939, Note_on_c, 4, 34, 0
6, 59940, Note_on_c, 4, 46, 100
6, 59999, Note_on_c, 4, 46, 0
6, 60000, Note_on_c, 4, 41, 100
6, 60119, Note_on_c, 4, 41, 0
6, 60120, Note_on_c, 4, 29, 100
6, 60179, Note_on_c, 4, 29, 0
6, 60180, Note_on_c, 4, 30, 100
6, 60299, Note_on_c, 4, 30, 0
6, 60300, Note_on_c, 4, 26, 100
6, 60359, Note_on_c, 4, 26, 0
6, 60360, Note_on_c, 4, 31, 100
6, 60479, Note_on_c, 4, 31, 0
6, 60480, Note_on_c, 4, 39, 100
6, 60539, Note_on_c, 4, 39, 0
6, 60540, Note_on_c, 4, 31, 100
6, 60659, Note_on_c, 4, 31, 0
6, 60660, Note_on_c, 4, 27, 100
6, 60719, Note_on_c, 4, 27, 0
6, 60720, Note_on_c, 4, 33, 100
6, 60839, Note_on_c, 4, 33, 0
6, 60840, Note_on_c, 4, 41, 100
6, 60899, Note_on_c, 4, 41, 0
6, 60900, Note_on_c, 4, 33, 100
6, 61019, Note_on_c, 4, 33, 0
6, 61020, Note_on_c, 4, 29, 100
6, 61079, Note_on_c, 4, 29, 0
6, 61080, Note_on_c, 4, 34, 100
6, 61139, Note_on_c, 4, 34, 0
6, 61140, Note_on_c, 4, 46, 100
6, 61199, Note_on_c, 4, 46, 0
6, 61200, Note_on_c, 4, 44, 100
6, 61259, Note_on_c, 4, 44, 0
6, 61260, Note_on_c, 4, 43, 100
6, 61379, Note_on_c, 4, 43, 0
6, 61380, Note_on_c, 4, 51, 100
6, 61439, Note_on_c, 4, 51, 0
6, 61440, Note_on_c, 4, 41, 100
6, 61559, Note_on_c, 4, 41, 0
6, 61560, Note_on_c, 4, 50, 100
6, 61619, Note_on_c, 4, 50, 0
6, 61620, Note_on_c, 4, 39, 100
6, 61739, Note_on_c, 4, 39, 0
6, 61740, Note_on_c, 4, 51, 100
6, 61799, Note_on_c, 4, 51, 0
6, 61800, Note_on_c, 4, 46, 100
6, 61919, Note_on_c, 4, 46, 0
6, 61920, Note_on_c, 4, 34, 100
6, 61979, Note_on_c, 4, 34, 0
6, 61980, Note_on_c, 4, 35, 100
6, 62099, Note_on_c, 4, 35, 0
6, 62100, Note_on_c, 4, 31, 100
6, 62159, Note_on_c, 4, 31, 0
6, 62160, Note_on_c, 4, 36, 100
6, 62279, Note_on_c, 4, 36, 0
6, 62280, Note_on_c, 4, 44, 100
6, 62339, Note_on_c, 4, 44, 0
6, 62340, Note_on_c, 4, 36, 100
6, 62459, Note_on_c, 4, 36, 0
6, 62460, Note_on_c, 4, 32, 100
6, 62519, Note_on_c, 4, 32, 0
6, 62520, Note_on_c, 4, 38, 100
6, 62639, Note_on_c, 4, 38, 0
6, 62640, Note_on_c, 4, 46, 100
6, 62699, Note_on_c, 4, 46, 0
6, 62700, Note_on_c, 4, 38, 100
6, 62819, Note_on_c, 4, 38, 0
6, 62820, Note_on_c, 4, 34, 100
6, 62879, Note_on_c, 4, 34, 0
6, 62880, Note_on_c, 4, 39, 100
6, 62939, Note_on_c, 4, 39, 0
6, 62940, Note_on_c, 4, 39, 100
6, 62999, Note_on_c, 4, 39, 0
6, 63000, Note_on_c, 4, 39, 100
6, 63059, Note_on_c, 4, 39, 0
6, 63060, Note_on_c, 4, 37, 100
6, 63119, Note_on_c, 4, 37, 0
6, 63120, Note_on_c, 4, 37, 100
6, 63179, Note_on_c, 4, 37, 0
6, 63180, Note_on_c, 4, 37, 100
6, 63239, Note_on_c, 4, 37, 0
6, 63240, Note_on_c, 4, 36, 100
6, 63359, Note_on_c, 4, 36, 0
6, 63360, Note_on_c, 4, 24, 100
6, 63419, Note_on_c, 4, 24, 0
6, 63420, Note_on_c, 4, 24, 100
6, 63539, Note_on_c, 4, 24, 0
6, 63540, Note_on_c, 4, 36, 100
6, 63599, Note_on_c, 4, 36, 0
6, 63600, Note_on_c, 4, 41, 100
6, 63659, Note_on_c, 4, 41, 0
6, 63660, Note_on_c, 4, 41, 100
6, 63719, Note_on_c, 4, 41, 0
6, 63720, Note_on_c, 4, 41, 100
6, 63779, Note_on_c, 4, 41, 0
6, 63780, Note_on_c, 4, 39, 100
6, 63839, Note_on_c, 4, 39, 0
6, 63840, Note_on_c, 4, 39, 100
6, 63899, Note_on_c, 4, 39, 0
6, 63900, Note_on_c, 4, 39, 100
6, 63959, Note_on_c, 4, 39, 0
6, 63960, Note_on_c, 4, 38, 100
6, 64079, Note_on_c, 4, 38, 0
6, 64080, Note_on_c, 4, 26, 100
6, 64139, Note_on_c, 4, 26, 0
6, 64140, Note_on_c, 4, 26, 100
6, 64259, Note_on_c, 4, 26, 0
6, 64260, Note_on_c, 4, 38, 100
6, 64319, Note_on_c, 4, 38, 0
6, 64320, Note_on_c, 4, 43, 100
6, 64439, Note_on_c, 4, 43, 0
6, 64440, Note_on_c, 4, 31, 100
6, 64499, Note_on_c, 4, 31, 0
6, 64500, Note_on_c, 4, 33, 100
6, 64619, Note_on_c, 4, 33, 0
6, 64620, Note_on_c, 4, 45, 100
6, 64679, Note_on_c, 4, 45, 0
6, 64680, Note_on_c, 4, 46, 100
6, 64799, Note_on_c, 4, 46, 0
6, 64800, Note_on_c, 4, 34, 100
6, 64859, Note_on_c, 4, 34, 0
6, 64860, Note_on_c, 4, 36, 100
6, 64979, Note_on_c, 4, 36, 0
6, 64980, Note_on_c, 4, 48, 100
6, 65039, Note_on_c, 4, 48, 0
6, 65040, Note_on_c, 4, 48, 100
6, 65159, Note_on_c, 4, 48, 0
6, 65160, Note_on_c, 4, 46, 100
6, 65219, Note_on_c, 4, 46, 0
6, 65220, Note_on_c, 4, 45, 100
6, 65339, Note_on_c, 4, 45, 0
6, 65340, Note_on_c, 4, 38, 100
6, 65399, Note_on_c, 4, 38, 0
6, 65400, Note_on_c, 4, 43, 100
6, 65519, Note_on_c, 4, 43, 0
6, 65520, Note_on_c, 4, 39, 100
6, 65579, Note_on_c, 4, 39, 0
6, 65580, Note_on_c, 4, 38, 100
6, 65699, Note_on_c, 4, 38, 0
6, 65700, Note_on_c, 4, 31, 100
6, 65759, Note_on_c, 4, 31, 0
6, 65760, Note_on_c, 4, 36, 100
6, 65879, Note_on_c, 4, 36, 0
6, 65880, Note_on_c, 4, 24, 100
6, 65939, Note_on_c, 4, 24, 0
6, 65940, Note_on_c, 4, 26, 100
6, 66059, Note_on_c, 4, 26, 0
6, 66060, Note_on_c, 4, 38, 100
6, 66119, Note_on_c, 4, 38, 0
6, 66120, Note_on_c, 4, 39, 100
6, 66239, Note_on_c, 4, 39, 0
6, 66240, Note_on_c, 4, 27, 100
6, 66299, Note_on_c, 4, 27, 0
6, 66300, Note_on_c, 4, 29, 100
6, 66419, Note_on_c, 4, 29, 0
6, 66420, Note_on_c, 4, 41, 100
6, 66479, Note_on_c, 4, 41, 0
6, 66480, Note_on_c, 4, 41, 100
6, 66599, Note_on_c, 4, 41, 0
6, 66600, Note_on_c, 4, 39, 100
6, 66659, Note_on_c, 4, 39, 0
6, 66660, Note_on_c, 4, 38, 100
6, 66779, Note_on_c, 4, 38, 0
6, 66780, Note_on_c, 4, 31, 100
6, 66839, Note_on_c, 4, 31, 0
6, 66840, Note_on_c, 4, 36, 100
6, 66959, Note_on_c, 4, 36, 0
6, 66960, Note_on_c, 4, 24, 100
6, 67019, Note_on_c, 4, 24, 0
6, 67020, Note_on_c, 4, 24, 100
6, 67139, Note_on_c, 4, 24, 0
6, 67140, Note_on_c, 4, 36, 100
6, 67199, Note_on_c, 4, 36, 0
6, 67200, Note_on_c, 4, 36, 100
6, 67319, Note_on_c, 4, 36, 0
6, 67320, Note_on_c, 4, 24, 100
6, 67379, Note_on_c, 4, 24, 0
6, 67380, Note_on_c, 4, 24, 100
6, 67499, Note_on_c, 4, 24, 0
6, 67500, Note_on_c, 4, 36, 100
6, 67559, Note_on_c, 4, 36, 0
6, 67560, Note_on_c, 4, 36, 100
6, 67679, Note_on_c, 4, 36, 0
6, 67680, Note_on_c, 4, 48, 100
6, 67739, Note_on_c, 4, 48, 0
6, 67740, Note_on_c, 4, 40, 100
6, 67859, Note_on_c, 4, 40, 0
6, 67860, Note_on_c, 4, 36, 100
6, 67919, Note_on_c, 4, 36, 0
6, 67920, Note_on_c, 4, 41, 100
6, 68039, Note_on_c, 4, 41, 0
6, 68040, Note_on_c, 4, 49, 100
6, 68099, Note_on_c, 4, 49, 0
6, 68100, Note_on_c, 4, 41, 100
6, 68219, Note_on_c, 4, 41, 0
6, 68220, Note_on_c, 4, 37, 100
6, 68279, Note_on_c, 4, 37, 0
6, 68280, Note_on_c, 4, 43, 100
6, 68399, Note_on_c, 4, 43, 0
6, 68400, Note_on_c, 4, 51, 100
6, 68459, Note_on_c, 4, 51, 0
6, 68460, Note_on_c, 4, 43, 100
6, 68579, Note_on_c, 4, 43, 0
6, 68580, Note_on_c, 4, 39, 100
6, 68639, Note_on_c, 4, 39, 0
6, 68640, Note_on_c, 4, 44, 100
6, 68759, Note_on_c, 4, 44, 0
6, 68820, Note_on_c, 4, 32, 100
6, 68939, Note_on_c, 4, 32, 0
6, 69000, Note_on_c, 4, 44, 100
6, 69119, Note_on_c, 4, 44, 0
6, 69180, Note_on_c, 4, 32, 100
6, 69299, Note_on_c, 4, 32, 0
6, 69360, Note_on_c, 4, 44, 100
6, 69479, Note_on_c, 4, 44, 0
6, 69540, Note_on_c, 4, 32, 100
6, 69659, Note_on_c, 4, 32, 0
6, 69720, Note_on_c, 4, 44, 100
6, 69779, Note_on_c, 4, 44, 0
6, 69780, Note_on_c, 4, 44, 100
6, 69839, Note_on_c, 4, 44, 0
6, 69840, Note_on_c, 4, 44, 100
6, 69899, Note_on_c, 4, 44, 0
6, 69900, Note_on_c, 4, 42, 100
6, 69959, Note_on_c, 4, 42, 0
6, 69960, Note_on_c, 4, 42, 100
6, 70019, Note_on_c, 4, 42, 0
6, 70020, Note_on_c, 4, 42, 100
6, 70079, Note_on_c, 4, 42, 0
6, 70080, Note_on_c, 4, 41, 100
6, 70199, Note_on_c, 4, 41, 0
6, 70200, Note_on_c, 4, 29, 100
6, 70259, Note_on_c, 4, 29, 0
6, 70260, Note_on_c, 4, 29, 100
6, 70379, Note_on_c, 4, 29, 0
6, 70380, Note_on_c, 4, 41, 100
6, 70439, Note_on_c, 4, 41, 0
6, 70440, Note_on_c, 4, 46, 100
6, 70499, Note_on_c, 4, 46, 0
6, 70500, Note_on_c, 4, 46, 100
6, 70559, Note_on_c, 4, 46, 0
6, 70560, Note_on_c, 4, 46, 100
6, 70619, Note_on_c, 4, 46, 0
6, 70620, Note_on_c, 4, 44, 100
6, 70679, Note_on_c, 4, 44, 0
6, 70680, Note_on_c, 4, 44, 100
6, 70739, Note_on_c, 4, 44, 0
6, 70740, Note_on_c, 4, 44, 100
6, 70799, Note_on_c, 4, 44, 0
6, 70800, Note_on_c, 4, 43, 100
6, 70919, Note_on_c, 4, 43, 0
6, 70920, Note_on_c, 4, 31, 100
6, 70979, Note_on_c, 4, 31, 0
6, 70980, Note_on_c, 4, 31, 100
6, 71099, Note_on_c, 4, 31, 0
6, 71100, Note_on_c, 4, 43, 100
6, 71159, Note_on_c, 4, 43, 0
6, 71160, Note_on_c, 4, 48, 100
6, 71279, Note_on_c, 4, 48, 0
6, 71280, Note_on_c, 4, 36, 100
6, 71339, Note_on_c, 4, 36, 0
6, 71340, Note_on_c, 4, 38, 100
6, 71459, Note_on_c, 4, 38, 0
6, 71460, Note_on_c, 4, 34, 100
6, 71519, Note_on_c, 4, 34, 0
6, 71520, Note_on_c, 4, 39, 100
6, 71639, Note_on_c, 4, 39, 0
6, 71640, Note_on_c, 4, 27, 100
6, 71699, Note_on_c, 4, 27, 0
6, 71700, Note_on_c, 4, 29, 100
6, 71819, Note_on_c, 4, 29, 0
6, 71820, Note_on_c, 4, 41, 100
6, 71879, Note_on_c, 4, 41, 0
6, 71880, Note_on_c, 4, 43, 100
6, 71999, Note_on_c, 4, 43, 0
6, 72000, Note_on_c, 4, 31, 100
6, 72059, Note_on_c, 4, 31, 0
6, 72060, Note_on_c, 4, 32, 100
6, 72179, Note_on_c, 4, 32, 0
6, 72180, Note_on_c, 4, 44, 100
6, 72239, Note_on_c, 4, 44, 0
6, 72240, Note_on_c, 4, 44, 100
6, 72359, Note_on_c, 4, 44, 0
6, 72360, Note_on_c, 4, 43, 100
6, 72419, Note_on_c, 4, 43, 0
6, 72420, Note_on_c, 4, 41, 100
6, 72539, Note_on_c, 4, 41, 0
6, 72540, Note_on_c, 4, 46, 100
6, 72599, Note_on_c, 4, 46, 0
6, 72600, Note_on_c, 4, 39, 100
6, 72719, Note_on_c, 4, 39, 0
6, 72720, Note_on_c, 4, 43, 100
6, 72779, Note_on_c, 4, 43, 0
6, 72780, Note_on_c, 4, 36, 100
6, 72899, Note_on_c, 4, 36, 0
6, 72900, Note_on_c, 4, 41, 100
6, 72959, Note_on_c, 4, 41, 0
6, 72960, Note_on_c, 4, 34, 100
6, 73079, Note_on_c, 4, 34, 0
6, 73080, Note_on_c, 4, 46, 100
6, 73139, Note_on_c, 4, 46, 0
6, 73140, Note_on_c, 4, 48, 100
6, 73259, Note_on_c, 4, 48, 0
6, 73260, Note_on_c, 4, 36, 100
6, 73319, Note_on_c, 4, 36, 0
6, 73320, Note_on_c, 4, 38, 100
6, 73439, Note_on_c, 4, 38, 0
6, 73440, Note_on_c, 4, 26, 100
6, 73499, Note_on_c, 4, 26, 0
6, 73500, Note_on_c, 4, 27, 100
6, 73619, Note_on_c, 4, 27, 0
6, 73620, Note_on_c, 4, 39, 100
6, 73679, Note_on_c, 4, 39, 0
6, 73680, Note_on_c, 4, 39, 100
6, 73799, Note_on_c, 4, 39, 0
6, 73800, Note_on_c, 4, 38, 100
6, 73859, Note_on_c, 4, 38, 0
6, 73860, Note_on_c, 4, 36, 100
6, 73979, Note_on_c, 4, 36, 0
6, 73980, Note_on_c, 4, 41, 100
6, 74039, Note_on_c, 4, 41, 0
6, 74040, Note_on_c, 4, 34, 100
6, 74159, Note_on_c, 4, 34, 0
6, 74160, Note_on_c, 4, 32, 100
6, 74219, Note_on_c, 4, 32, 0
6, 74220, Note_on_c, 4, 31, 100
6, 74339, Note_on_c, 4, 31, 0
6, 74340, Note_on_c, 4, 27, 100
6, 74399, Note_on_c, 4, 27, 0
6, 74400, Note_on_c, 4, 32, 100
6, 74519, Note_on_c, 4, 32, 0
6, 74520, Note_on_c, 4, 31, 100
6, 74579, Note_on_c, 4, 31, 0
6, 74580, Note_on_c, 4, 29, 100
6, 74699, Note_on_c, 4, 29, 0
6, 74700, Note_on_c, 4, 26, 100
6, 74759, Note_on_c, 4, 26, 0
6, 74760, Note_on_c, 4, 31, 100
6, 74879, Note_on_c, 4, 31, 0
6, 74880, Note_on_c, 4, 29, 100
6, 74939, Note_on_c, 4, 29, 0
6, 74940, Note_on_c, 4, 27, 100
6, 75059, Note_on_c, 4, 27, 0
6, 75060, Note_on_c, 4, 24, 100
6, 75119, Note_on_c, 4, 24, 0
6, 75120, Note_on_c, 4, 29, 100
6, 75239, Note_on_c, 4, 29, 0
6, 75240, Note_on_c, 4, 27, 100
6, 75299, Note_on_c, 4, 27, 0
6, 75300, Note_on_c, 4, 26, 100
6, 75419, Note_on_c, 4, 26, 0
6, 75420, Note_on_c, 4, 34, 100
6, 75479, Note_on_c, 4, 34, 0
6, 75480, Note_on_c, 4, 27, 100
6, 75599, Note_on_c, 4, 27, 0
6, 75840, Note_on_c, 4, 27, 100
6, 75959, Note_on_c, 4, 27, 0
6, 76200, Note_on_c, 4, 27, 100
6, 76319, Note_on_c, 4, 27, 0
6, 76320, Note_on_c, 4, 39, 100
6, 76379, Note_on_c, 4, 39, 0
6, 76380, Note_on_c, 4, 43, 100
6, 76499, Note_on_c, 4, 43, 0
6, 76500, Note_on_c, 4, 39, 100
6, 76559, Note_on_c, 4, 39, 0
6, 76560, Note_on_c, 4, 44, 100
6, 76679, Note_on_c, 4, 44, 0
6, 76680, Note_on_c, 4, 43, 100
6, 76739, Note_on_c, 4, 43, 0
6, 76740, Note_on_c, 4, 41, 100
6, 76859, Note_on_c, 4, 41, 0
6, 76860, Note_on_c, 4, 38, 100
6, 76919, Note_on_c, 4, 38, 0
6, 76920, Note_on_c, 4, 43, 100
6, 77039, Note_on_c, 4, 43, 0
6, 77040, Note_on_c, 4, 41, 100
6, 77099, Note_on_c, 4, 41, 0
6, 77100, Note_on_c, 4, 39, 100
6, 77219, Note_on_c, 4, 39, 0
6, 77220, Note_on_c, 4, 36, 100
6, 77279, Note_on_c, 4, 36, 0
6, 77280, Note_on_c, 4, 41, 100
6, 77399, Note_on_c, 4, 41, 0
6, 77400, Note_on_c, 4, 39, 100
6, 77459, Note_on_c, 4, 39, 0
6, 77460, Note_on_c, 4, 38, 100
6, 77579, Note_on_c, 4, 38, 0
6, 77580, Note_on_c, 4, 34, 100
6, 77639, Note_on_c, 4, 34, 0
6, 77640, Note_on_c, 4, 39, 100
6, 77759, Note_on_c, 4, 39, 0
6, 77760, Note_on_c, 4, 36, 100
6, 77819, Note_on_c, 4, 36, 0
6, 77820, Note_on_c, 4, 34, 100
6, 77939, Note_on_c, 4, 34, 0
6, 77940, Note_on_c, 4, 34, 100
6, 77999, Note_on_c, 4, 34, 0
6, 78000, Note_on_c, 4, 27, 100
6, 78179, Note_on_c, 4, 27, 0
6, 79560, Note_on_c, 4, 36, 100
6, 79589, Note_on_c, 4, 36, 0
6, 79590, Note_on_c, 4, 38, 100
6, 79619, Note_on_c, 4, 38, 0
6, 79620, Note_on_c, 4, 39, 100
6, 79680, Note_on_c, 4, 39, 0
6, 79800, Note_on_c, 4, 43, 100
6, 79860, Note_on_c, 4, 43, 0
6, 79860, Note_on_c, 4, 36, 100
6, 79920, Note_on_c, 4, 36, 0
6, 80040, Note_on_c, 4, 35, 100
6, 80100, Note_on_c, 4, 35, 0
6, 80100, Note_on_c, 4, 36, 100
6, 80160, Note_on_c, 4, 36, 0
6, 80160, Note_on_c, 4, 38, 100
6, 80220, Note_on_c, 4, 38, 0
6, 80220, Note_on_c, 4, 39, 100
6, 80280, Note_on_c, 4, 39, 0
6, 80280, Note_on_c, 4, 39, 100
6, 80310, Note_on_c, 4, 39, 0
6, 80310, Note_on_c, 4, 38, 100
6, 80340, Note_on_c, 4, 38, 0
6, 80340, Note_on_c, 4, 39, 100
6, 80400, Note_on_c, 4, 39, 0
6, 80400, Note_on_c, 4, 36, 100
6, 80460, Note_on_c, 4, 36, 0
6, 80460, Note_on_c, 4, 44, 100
6, 80520, Note_on_c, 4, 44, 0
6, 80520, Note_on_c, 4, 32, 100
6, 80580, Note_on_c, 4, 32, 0
6, 80640, Note_on_c, 4, 31, 100
6, 80670, Note_on_c, 4, 31, 0
6, 80670, Note_on_c, 4, 33, 100
6, 80700, Note_on_c, 4, 33, 0
6, 80700, Note_on_c, 4, 35, 100
6, 80759, Note_on_c, 4, 35, 0
6, 80760, Note_on_c, 4, 38, 100
6, 80819, Note_on_c, 4, 38, 0
6, 80820, Note_on_c, 4, 43, 100
6, 80879, Note_on_c, 4, 43, 0
6, 80880, Note_on_c, 4, 41, 100
6, 80939, Note_on_c, 4, 41, 0
6, 80940, Note_on_c, 4, 40, 100
6, 80999, Note_on_c, 4, 40, 0
6, 81000, Note_on_c, 4, 40, 100
6, 81059, Note_on_c, 4, 40, 0
6, 81060, Note_on_c, 4, 40, 100
6, 81119, Note_on_c, 4, 40, 0
6, 81120, Note_on_c, 4, 41, 100
6, 81179, Note_on_c, 4, 41, 0
6, 81180, Note_on_c, 4, 34, 100
6, 81239, Note_on_c, 4, 34, 0
6, 81240, Note_on_c, 4, 32, 100
6, 81299, Note_on_c, 4, 32, 0
6, 81300, Note_on_c, 4, 31, 100
6, 81359, Note_on_c, 4, 31, 0
6, 81360, Note_on_c, 4, 29, 100
6, 81419, Note_on_c, 4, 29, 0
6, 81420, Note_on_c, 4, 28, 100
6, 81479, Note_on_c, 4, 28, 0
6, 81480, Note_on_c, 4, 29, 100
6, 81539, Note_on_c, 4, 29, 0
6, 81540, Note_on_c, 4, 41, 100
6, 81599, Note_on_c, 4, 41, 0
6, 81600, Note_on_c, 4, 39, 100
6, 81659, Note_on_c, 4, 39, 0
6, 81660, Note_on_c, 4, 38, 100
6, 81719, Note_on_c, 4, 38, 0
6, 81720, Note_on_c, 4, 30, 100
6, 81779, Note_on_c, 4, 30, 0
6, 81780, Note_on_c, 4, 30, 100
6, 81839, Note_on_c, 4, 30, 0
6, 81840, Note_on_c, 4, 31, 100
6, 81899, Note_on_c, 4, 31, 0
6, 81900, Note_on_c, 4, 36, 100
6, 81959, Note_on_c, 4, 36, 0
6, 81960, Note_on_c, 4, 34, 100
6, 82019, Note_on_c, 4, 34, 0
6, 82020, Note_on_c, 4, 33, 100
6, 82079, Note_on_c, 4, 33, 0
6, 82080, Note_on_c, 4, 31, 100
6, 82139, Note_on_c, 4, 31, 0
6, 82140, Note_on_c, 4, 30, 100
6, 82199, Note_on_c, 4, 30, 0
6, 82200, Note_on_c, 4, 31, 100
6, 82259, Note_on_c, 4, 31, 0
6, 82260, Note_on_c, 4, 43, 100
6, 82319, Note_on_c, 4, 43, 0
6, 82320, Note_on_c, 4, 41, 100
6, 82379, Note_on_c, 4, 41, 0
6, 82380, Note_on_c, 4, 39, 100
6, 82439, Note_on_c, 4, 39, 0
6, 82440, Note_on_c, 4, 36, 100
6, 82499, Note_on_c, 4, 36, 0
6, 82560, Note_on_c, 4, 36, 100
6, 82619, Note_on_c, 4, 36, 0
6, 82620, Note_on_c, 4, 41, 100
6, 82679, Note_on_c, 4, 41, 0
6, 82680, Note_on_c, 4, 39, 100
6, 82739, Note_on_c, 4, 39, 0
6, 82740, Note_on_c, 4, 38, 100
6, 82799, Note_on_c, 4, 38, 0
6, 82800, Note_on_c, 4, 36, 100
6, 82859, Note_on_c, 4, 36, 0
6, 82860, Note_on_c, 4, 35, 100
6, 82919, Note_on_c, 4, 35, 0
6, 82920, Note_on_c, 4, 31, 100
6, 82979, Note_on_c, 4, 31, 0
6, 82980, Note_on_c, 4, 43, 100
6, 83039, Note_on_c, 4, 43, 0
6, 83040, Note_on_c, 4, 31, 100
6, 83099, Note_on_c, 4, 31, 0
6, 83100, Note_on_c, 4, 36, 100
6, 83159, Note_on_c, 4, 36, 0
6, 83160, Note_on_c, 4, 41, 100
6, 83219, Note_on_c, 4, 41, 0
6, 83220, Note_on_c, 4, 39, 100
6, 83279, Note_on_c, 4, 39, 0
6, 83280, Note_on_c, 4, 27, 100
6, 83339, Note_on_c, 4, 27, 0
6, 83340, Note_on_c, 4, 26, 100
6, 83399, Note_on_c, 4, 26, 0
6, 83400, Note_on_c, 4, 38, 100
6, 83459, Note_on_c, 4, 38, 0
6, 83460, Note_on_c, 4, 31, 100
6, 83519, Note_on_c, 4, 31, 0
6, 83820, Note_on_c, 4, 31, 100
6, 83879, Note_on_c, 4, 31, 0
6, 84180, Note_on_c, 4, 31, 100
6, 84239, Note_on_c, 4, 31, 0
6, 84540, Note_on_c, 4, 36, 100
6, 84660, Note_on_c, 4, 36, 0
6, 84720, Note_on_c, 4, 36, 100
6, 84780, Note_on_c, 4, 36, 0
6, 84780, Note_on_c, 4, 41, 100
6, 84840, Note_on_c, 4, 41, 0
6, 84840, Note_on_c, 4, 38, 100
6, 84900, Note_on_c, 4, 38, 0
6, 84900, Note_on_c, 4, 39, 100
6, 85020, Note_on_c, 4, 39, 0
6, 85080, Note_on_c, 4, 36, 100
6, 85140, Note_on_c, 4, 36, 0
6, 85140, Note_on_c, 4, 39, 100
6, 85200, Note_on_c, 4, 39, 0
6, 85200, Note_on_c, 4, 36, 100
6, 85260, Note_on_c, 4, 36, 0
6, 85260, Note_on_c, 4, 38, 100
6, 85380, Note_on_c, 4, 38, 0
6, 85440, Note_on_c, 4, 41, 100
6, 85500, Note_on_c, 4, 41, 0
6, 85500, Note_on_c, 4, 31, 100
6, 85560, Note_on_c, 4, 31, 0
6, 85560, Note_on_c, 4, 35, 100
6, 85620, Note_on_c, 4, 35, 0
6, 85620, Note_on_c, 4, 36, 100
6, 85650, Note_on_c, 4, 36, 0
6, 85650, Note_on_c, 4, 48, 100
6, 85680, Note_on_c, 4, 48, 0
6, 85680, Note_on_c, 4, 46, 100
6, 85710, Note_on_c, 4, 46, 0
6, 85710, Note_on_c, 4, 44, 100
6, 85740, Note_on_c, 4, 44, 0
6, 85740, Note_on_c, 4, 43, 100
6, 85770, Note_on_c, 4, 43, 0
6, 85770, Note_on_c, 4, 41, 100
6, 85800, Note_on_c, 4, 41, 0
6, 85800, Note_on_c, 4, 39, 100
6, 85830, Note_on_c, 4, 39, 0
6, 85830, Note_on_c, 4, 38, 100
6, 85860, Note_on_c, 4, 38, 0
6, 85860, Note_on_c, 4, 36, 100
6, 85890, Note_on_c, 4, 36, 0
6, 85890, Note_on_c, 4, 39, 100
6, 85920, Note_on_c, 4, 39, 0
6, 85920, Note_on_c, 4, 38, 100
6, 85950, Note_on_c, 4, 38, 0
6, 85950, Note_on_c, 4, 36, 100
6, 85980, Note_on_c, 4, 36, 0
6, 85980, Note_on_c, 4, 35, 100
6, 86010, Note_on_c, 4, 35, 0
6, 86010, Note_on_c, 4, 31, 100
6, 86040, Note_on_c, 4, 31, 0
6, 86040, Note_on_c, 4, 33, 100
6, 86070, Note_on_c, 4, 33, 0
6, 86070, Note_on_c, 4, 35, 100
6, 86100, Note_on_c, 4, 35, 0
6, 86100, Note_on_c, 4, 36, 100
6, 86130, Note_on_c, 4, 36, 0
6, 86130, Note_on_c, 4, 38, 100
6, 86160, Note_on_c, 4, 38, 0
6, 86160, Note_on_c, 4, 39, 100
6, 86190, Note_on_c, 4, 39, 0
6, 86190, Note_on_c, 4, 41, 100
6, 86220, Note_on_c, 4, 41, 0
6, 86220, Note_on_c, 4, 43, 100
6, 86280, Note_on_c, 4, 43, 0
6, 86280, Note_on_c, 4, 31, 100
6, 86340, Note_on_c, 4, 31, 0
6, 86340, Note_on_c, 4, 36, 100
6, 86400, Note_on_c, 4, 36, 0
6, 86400, Note_on_c, 4, 24, 100
6, 86460, Note_on_c, 4, 24, 0
6, 86460, Note_on_c, 4, 24, 100
6, 86520, Note_on_c, 4, 24, 0
6, 86520, Note_on_c, 4, 24, 100
6, 86580, Note_on_c, 4, 24, 0
6, 86580, Note_on_c, 4, 24, 100
6, 86640, Note_on_c, 4, 24, 0
6, 86640, Note_on_c, 4, 24, 100
6, 86700, Note_on_c, 4, 24, 0
6, 86700, Note_on_c, 4, 24, 100
6, 86820, Note_on_c, 4, 24, 0
6, 86880, Note_on_c, 4, 36, 100
6, 86940, Note_on_c, 4, 36, 0
6, 86940, Note_on_c, 4, 38, 100
6, 87000, Note_on_c, 4, 38, 0
6, 87000, Note_on_c, 4, 39, 100
6, 87060, Note_on_c, 4, 39, 0
6, 87060, Note_on_c, 4, 41, 100
6, 87090, Note_on_c, 4, 41, 0
6, 87090, Note_on_c, 4, 43, 100
6, 87120, Note_on_c, 4, 43, 0
6, 87120, Note_on_c, 4, 44, 100
6, 87180, Note_on_c, 4, 44, 0
6, 87240, Note_on_c, 4, 41, 100
6, 87299, Note_on_c, 4, 41, 0
6, 87300, Note_on_c, 4, 43, 100
6, 87359, Note_on_c, 4, 43, 0
6, 87360, Note_on_c, 4, 44, 100
6, 87419, Note_on_c, 4, 44, 0
6, 87420, Note_on_c, 4, 35, 100
6, 87449, Note_on_c, 4, 35, 0
6, 87450, Note_on_c, 4, 36, 100
6, 87479, Note_on_c, 4, 36, 0
6, 87480, Note_on_c, 4, 38, 100
6, 87539, Note_on_c, 4, 38, 0
6, 87600, Note_on_c, 4, 35, 100
6, 87659, Note_on_c, 4, 35, 0
6, 87660, Note_on_c, 4, 36, 100
6, 87719, Note_on_c, 4, 36, 0
6, 87720, Note_on_c, 4, 38, 100
6, 87779, Note_on_c, 4, 38, 0
6, 87780, Note_on_c, 4, 39, 100
6, 87809, Note_on_c, 4, 39, 0
6, 87810, Note_on_c, 4, 41, 100
6, 87839, Note_on_c, 4, 41, 0
6, 87840, Note_on_c, 4, 43, 100
6, 87899, Note_on_c, 4, 43, 0
6, 87960, Note_on_c, 4, 31, 100
6, 88019, Note_on_c, 4, 31, 0
6, 88020, Note_on_c, 4, 27, 100
6, 88079, Note_on_c, 4, 27, 0
6, 88080, Note_on_c, 4, 31, 100
6, 88139, Note_on_c, 4, 31, 0
6, 88140, Note_on_c, 4, 24, 100
6, 88259, Note_on_c, 4, 24, 0
6, 88320, Note_on_c, 4, 24, 100
6, 88379, Note_on_c, 4, 24, 0
6, 88380, Note_on_c, 4, 31, 100
6, 88439, Note_on_c, 4, 31, 0
6, 88440, Note_on_c, 4, 36, 100
6, 88499, Note_on_c, 4, 36, 0
6, 88500, Note_on_c, 4, 31, 100
6, 88620, Note_on_c, 4, 31, 0
6, 88680, Note_on_c, 4, 31, 100
6, 88739, Note_on_c, 4, 31, 0
6, 88740, Note_on_c, 4, 35, 100
6, 88799, Note_on_c, 4, 35, 0
6, 88800, Note_on_c, 4, 38, 100
6, 88859, Note_on_c, 4, 38, 0
6, 88860, Note_on_c, 4, 43, 100
6, 88979, Note_on_c, 4, 43, 0
6, 89040, Note_on_c, 4, 38, 100
6, 89099, Note_on_c, 4, 38, 0
6, 89100, Note_on_c, 4, 35, 100
6, 89159, Note_on_c, 4, 35, 0
6, 89160, Note_on_c, 4, 31, 100
6, 89219, Note_on_c, 4, 31, 0
6, 89220, Note_on_c, 4, 36, 100
6, 89339, Note_on_c, 4, 36, 0
6, 89400, Note_on_c, 4, 31, 100
6, 89459, Note_on_c, 4, 31, 0
6, 89460, Note_on_c, 4, 27, 100
6, 89519, Note_on_c, 4, 27, 0
6, 89520, Note_on_c, 4, 31, 100
6, 89579, Note_on_c, 4, 31, 0
6, 89580, Note_on_c, 4, 24, 100
6, 89699, Note_on_c, 4, 24, 0
6, 89760, Note_on_c, 4, 36, 100
6, 89819, Note_on_c, 4, 36, 0
6, 89820, Note_on_c, 4, 40, 100
6, 89879, Note_on_c, 4, 40, 0
6, 89880, Note_on_c, 4, 36, 100
6, 89939, Note_on_c, 4, 36, 0
6, 89940, Note_on_c, 4, 41, 100
6, 90059, Note_on_c, 4, 41, 0
6, 90120, Note_on_c, 4, 41, 100
6, 90179, Note_on_c, 4, 41, 0
6, 90180, Note_on_c, 4, 33, 100
6, 90239, Note_on_c, 4, 33, 0
6, 90240, Note_on_c, 4, 29, 100
6, 90299, Note_on_c, 4, 29, 0
6, 90300, Note_on_c, 4, 34, 100
6, 90419, Note_on_c, 4, 34, 0
6, 90480, Note_on_c, 4, 34, 100
6, 90539, Note_on_c, 4, 34, 0
6, 90540, Note_on_c, 4, 38, 100
6, 90599, Note_on_c, 4, 38, 0
6, 90600, Note_on_c, 4, 34, 100
6, 90659, Note_on_c, 4, 34, 0
6, 90660, Note_on_c, 4, 39, 100
6, 90779, Note_on_c, 4, 39, 0
6, 90840, Note_on_c, 4, 39, 100
6, 90899, Note_on_c, 4, 39, 0
6, 90900, Note_on_c, 4, 31, 100
6, 90959, Note_on_c, 4, 31, 0
6, 90960, Note_on_c, 4, 27, 100
6, 91019, Note_on_c, 4, 27, 0
6, 91020, Note_on_c, 4, 32, 100
6, 91139, Note_on_c, 4, 32, 0
6, 91200, Note_on_c, 4, 36, 100
6, 91259, Note_on_c, 4, 36, 0
6, 91260, Note_on_c, 4, 29, 100
6, 91319, Note_on_c, 4, 29, 0
6, 91320, Note_on_c, 4, 32, 100
6, 91379, Note_on_c, 4, 32, 0
6, 91380, Note_on_c, 4, 34, 100
6, 91499, Note_on_c, 4, 34, 0
6, 91560, Note_on_c, 4, 38, 100
6, 91619, Note_on_c, 4, 38, 0
6, 91620, Note_on_c, 4, 31, 100
6, 91679, Note_on_c, 4, 31, 0
6, 91680, Note_on_c, 4, 34, 100
6, 91739, Note_on_c, 4, 34, 0
6, 91740, Note_on_c, 4, 36, 100
6, 91859, Note_on_c, 4, 36, 0
6, 91920, Note_on_c, 4, 39, 100
6, 91979, Note_on_c, 4, 39, 0
6, 91980, Note_on_c, 4, 32, 100
6, 92039, Note_on_c, 4, 32, 0
6, 92040, Note_on_c, 4, 36, 100
6, 92099, Note_on_c, 4, 36, 0
6, 92100, Note_on_c, 4, 38, 100
6, 92219, Note_on_c, 4, 38, 0
6, 92280, Note_on_c, 4, 41, 100
6, 92339, Note_on_c, 4, 41, 0
6, 92340, Note_on_c, 4, 46, 100
6, 92399, Note_on_c, 4, 46, 0
6, 92400, Note_on_c, 4, 34, 100
6, 92459, Note_on_c, 4, 34, 0
6, 92460, Note_on_c, 4, 39, 100
6, 92519, Note_on_c, 4, 39, 0
6, 92520, Note_on_c, 4, 27, 100
6, 92549, Note_on_c, 4, 27, 0
6, 92550, Note_on_c, 4, 29, 100
6, 92579, Note_on_c, 4, 29, 0
6, 92580, Note_on_c, 4, 31, 100
6, 92639, Note_on_c, 4, 31, 0
6, 92760, Note_on_c, 4, 34, 100
6, 92819, Note_on_c, 4, 34, 0
6, 92820, Note_on_c, 4, 27, 100
6, 92879, Note_on_c, 4, 27, 0
6, 93000, Note_on_c, 4, 38, 100
6, 93059, Note_on_c, 4, 38, 0
6, 93060, Note_on_c, 4, 39, 100
6, 93119, Note_on_c, 4, 39, 0
6, 93120, Note_on_c, 4, 41, 100
6, 93179, Note_on_c, 4, 41, 0
6, 93180, Note_on_c, 4, 43, 100
6, 93239, Note_on_c, 4, 43, 0
6, 93240, Note_on_c, 4, 41, 100
6, 93299, Note_on_c, 4, 41, 0
6, 93300, Note_on_c, 4, 43, 100
6, 93359, Note_on_c, 4, 43, 0
6, 93360, Note_on_c, 4, 39, 100
6, 93419, Note_on_c, 4, 39, 0
6, 93420, Note_on_c, 4, 36, 100
6, 93479, Note_on_c, 4, 36, 0
6, 93480, Note_on_c, 4, 36, 100
6, 93539, Note_on_c, 4, 36, 0
6, 93600, Note_on_c, 4, 34, 100
6, 93659, Note_on_c, 4, 34, 0
6, 93660, Note_on_c, 4, 38, 100
6, 93719, Note_on_c, 4, 38, 0
6, 93720, Note_on_c, 4, 41, 100
6, 93779, Note_on_c, 4, 41, 0
6, 93780, Note_on_c, 4, 46, 100
6, 93809, Note_on_c, 4, 46, 0
6, 93810, Note_on_c, 4, 34, 100
6, 93839, Note_on_c, 4, 34, 0
6, 93840, Note_on_c, 4, 32, 100
6, 93869, Note_on_c, 4, 32, 0
6, 93870, Note_on_c, 4, 34, 100
6, 93899, Note_on_c, 4, 34, 0
6, 93900, Note_on_c, 4, 31, 100
6, 93959, Note_on_c, 4, 31, 0
6, 94170, Note_on_c, 4, 43, 100
6, 94199, Note_on_c, 4, 43, 0
6, 94200, Note_on_c, 4, 41, 100
6, 94229, Note_on_c, 4, 41, 0
6, 94230, Note_on_c, 4, 43, 100
6, 94259, Note_on_c, 4, 43, 0
6, 94260, Note_on_c, 4, 36, 100
6, 94320, Note_on_c, 4, 36, 0
6, 94530, Note_on_c, 4, 36, 100
6, 94559, Note_on_c, 4, 36, 0
6, 94560, Note_on_c, 4, 38, 100
6, 94589, Note_on_c, 4, 38, 0
6, 94590, Note_on_c, 4, 39, 100
6, 94619, Note_on_c, 4, 39, 0
6, 94620, Note_on_c, 4, 38, 100
6, 94679, Note_on_c, 4, 38, 0
6, 94890, Note_on_c, 4, 38, 100
6, 94919, Note_on_c, 4, 38, 0
6, 94920, Note_on_c, 4, 36, 100
6, 94949, Note_on_c, 4, 36, 0
6, 94950, Note_on_c, 4, 38, 100
6, 94979, Note_on_c, 4, 38, 0
6, 94980, Note_on_c, 4, 31, 100
6, 95039, Note_on_c, 4, 31, 0
6, 95250, Note_on_c, 4, 31, 100
6, 95279, Note_on_c, 4, 31, 0
6, 95280, Note_on_c, 4, 30, 100
6, 95309, Note_on_c, 4, 30, 0
6, 95310, Note_on_c, 4, 31, 100
6, 95339, Note_on_c, 4, 31, 0
6, 95340, Note_on_c, 4, 24, 100
6, 95459, Note_on_c, 4, 24, 0
6, 95520, Note_on_c, 4, 36, 100
6, 95579, Note_on_c, 4, 36, 0
6, 95580, Note_on_c, 4, 33, 100
6, 95639, Note_on_c, 4, 33, 0
6, 95640, Note_on_c, 4, 29, 100
6, 95699, Note_on_c, 4, 29, 0
6, 95700, Note_on_c, 4, 34, 100
6, 95819, Note_on_c, 4, 34, 0
6, 95880, Note_on_c, 4, 34, 100
6, 95939, Note_on_c, 4, 34, 0
6, 95940, Note_on_c, 4, 31, 100
6, 95999, Note_on_c, 4, 31, 0
6, 96000, Note_on_c, 4, 27, 100
6, 96059, Note_on_c, 4, 27, 0
6, 96060, Note_on_c, 4, 33, 100
6, 96179, Note_on_c, 4, 33, 0
6, 96240, Note_on_c, 4, 33, 100
6, 96299, Note_on_c, 4, 33, 0
6, 96300, Note_on_c, 4, 38, 100
6, 96359, Note_on_c, 4, 38, 0
6, 96360, Note_on_c, 4, 26, 100
6, 96419, Note_on_c, 4, 26, 0
6, 96420, Note_on_c, 4, 31, 100
6, 96539, Note_on_c, 4, 31, 0
6, 96600, Note_on_c, 4, 43, 100
6, 96659, Note_on_c, 4, 43, 0
6, 96660, Note_on_c, 4, 45, 100
6, 96719, Note_on_c, 4, 45, 0
6, 96720, Note_on_c, 4, 46, 100
6, 96779, Note_on_c, 4, 46, 0
6, 96780, Note_on_c, 4, 48, 100
6, 96809, Note_on_c, 4, 48, 0
6, 96810, Note_on_c, 4, 50, 100
6, 96839, Note_on_c, 4, 50, 0
6, 96840, Note_on_c, 4, 51, 100
6, 96899, Note_on_c, 4, 51, 0
6, 96960, Note_on_c, 4, 48, 100
6, 97019, Note_on_c, 4, 48, 0
6, 97020, Note_on_c, 4, 50, 100
6, 97079, Note_on_c, 4, 50, 0
6, 97080, Note_on_c, 4, 51, 100
6, 97139, Note_on_c, 4, 51, 0
6, 97140, Note_on_c, 4, 42, 100
6, 97169, Note_on_c, 4, 42, 0
6, 97170, Note_on_c, 4, 43, 100
6, 97199, Note_on_c, 4, 43, 0
6, 97200, Note_on_c, 4, 45, 100
6, 97259, Note_on_c, 4, 45, 0
6, 97320, Note_on_c, 4, 42, 100
6, 97379, Note_on_c, 4, 42, 0
6, 97380, Note_on_c, 4, 43, 100
6, 97439, Note_on_c, 4, 43, 0
6, 97440, Note_on_c, 4, 45, 100
6, 97499, Note_on_c, 4, 45, 0
6, 97500, Note_on_c, 4, 46, 100
6, 97529, Note_on_c, 4, 46, 0
6, 97530, Note_on_c, 4, 48, 100
6, 97559, Note_on_c, 4, 48, 0
6, 97560, Note_on_c, 4, 50, 100
6, 97619, Note_on_c, 4, 50, 0
6, 97680, Note_on_c, 4, 38, 100
6, 97739, Note_on_c, 4, 38, 0
6, 97740, Note_on_c, 4, 34, 100
6, 97799, Note_on_c, 4, 34, 0
6, 97800, Note_on_c, 4, 38, 100
6, 97859, Note_on_c, 4, 38, 0
6, 97860, Note_on_c, 4, 31, 100
6, 97979, Note_on_c, 4, 31, 0
6, 98040, Note_on_c, 4, 43, 100
6, 98099, Note_on_c, 4, 43, 0
6, 98100, Note_on_c, 4, 38, 100
6, 98159, Note_on_c, 4, 38, 0
6, 98160, Note_on_c, 4, 31, 100
6, 98219, Note_on_c, 4, 31, 0
6, 98220, Note_on_c, 4, 38, 100
6, 98339, Note_on_c, 4, 38, 0
6, 98400, Note_on_c, 4, 38, 100
6, 98459, Note_on_c, 4, 38, 0
6, 98460, Note_on_c, 4, 42, 100
6, 98519, Note_on_c, 4, 42, 0
6, 98520, Note_on_c, 4, 45, 100
6, 98579, Note_on_c, 4, 45, 0
6, 98580, Note_on_c, 4, 50, 100
6, 98699, Note_on_c, 4, 50, 0
6, 98760, Note_on_c, 4, 45, 100
6, 98819, Note_on_c, 4, 45, 0
6, 98820, Note_on_c, 4, 42, 100
6, 98879, Note_on_c, 4, 42, 0
6, 98880, Note_on_c, 4, 38, 100
6, 98939, Note_on_c, 4, 38, 0
6, 98940, Note_on_c, 4, 43, 100
6, 99059, Note_on_c, 4, 43, 0
6, 99120, Note_on_c, 4, 38, 100
6, 99179, Note_on_c, 4, 38, 0
6, 99180, Note_on_c, 4, 34, 100
6, 99239, Note_on_c, 4, 34, 0
6, 99240, Note_on_c, 4, 38, 100
6, 99299, Note_on_c, 4, 38, 0
6, 99300, Note_on_c, 4, 31, 100
6, 99419, Note_on_c, 4, 31, 0
6, 99480, Note_on_c, 4, 43, 100
6, 99539, Note_on_c, 4, 43, 0
6, 99540, Note_on_c, 4, 47, 100
6, 99599, Note_on_c, 4, 47, 0
6, 99600, Note_on_c, 4, 43, 100
6, 99659, Note_on_c, 4, 43, 0
6, 99660, Note_on_c, 4, 48, 100
6, 99779, Note_on_c, 4, 48, 0
6, 99840, Note_on_c, 4, 48, 100
6, 99899, Note_on_c, 4, 48, 0
6, 99900, Note_on_c, 4, 40, 100
6, 99959, Note_on_c, 4, 40, 0
6, 99960, Note_on_c, 4, 36, 100
6, 100019, Note_on_c, 4, 36, 0
6, 100020, Note_on_c, 4, 41, 100
6, 100139, Note_on_c, 4, 41, 0
6, 100200, Note_on_c, 4, 41, 100
6, 100259, Note_on_c, 4, 41, 0
6, 100260, Note_on_c, 4, 45, 100
6, 100319, Note_on_c, 4, 45, 0
6, 100320, Note_on_c, 4, 41, 100
6, 100379, Note_on_c, 4, 41, 0
6, 100380, Note_on_c, 4, 46, 100
6, 100499, Note_on_c, 4, 46, 0
6, 100560, Note_on_c, 4, 46, 100
6, 100619, Note_on_c, 4, 46, 0
6, 100620, Note_on_c, 4, 38, 100
6, 100679, Note_on_c, 4, 38, 0
6, 100680, Note_on_c, 4, 34, 100
6, 100739, Note_on_c, 4, 34, 0
6, 100740, Note_on_c, 4, 39, 100
6, 100859, Note_on_c, 4, 39, 0
6, 100920, Note_on_c, 4, 39, 100
6, 100979, Note_on_c, 4, 39, 0
6, 100980, Note_on_c, 4, 38, 100
6, 101039, Note_on_c, 4, 38, 0
6, 101040, Note_on_c, 4, 36, 100
6, 101099, Note_on_c, 4, 36, 0
6, 101100, Note_on_c, 4, 35, 100
6, 101159, Note_on_c, 4, 35, 0
6, 101160, Note_on_c, 4, 35, 100
6, 101219, Note_on_c, 4, 35, 0
6, 101220, Note_on_c, 4, 35, 100
6, 101279, Note_on_c, 4, 35, 0
6, 101280, Note_on_c, 4, 36, 100
6, 101339, Note_on_c, 4, 36, 0
6, 101340, Note_on_c, 4, 41, 100
6, 101399, Note_on_c, 4, 41, 0
6, 101400, Note_on_c, 4, 39, 100
6, 101459, Note_on_c, 4, 39, 0
6, 101460, Note_on_c, 4, 38, 100
6, 101519, Note_on_c, 4, 38, 0
6, 101520, Note_on_c, 4, 36, 100
6, 101579, Note_on_c, 4, 36, 0
6, 101580, Note_on_c, 4, 35, 100
6, 101639, Note_on_c, 4, 35, 0
6, 101640, Note_on_c, 4, 36, 100
6, 101699, Note_on_c, 4, 36, 0
6, 101700, Note_on_c, 4, 48, 100
6, 101759, Note_on_c, 4, 48, 0
6, 101760, Note_on_c, 4, 46, 100
6, 101819, Note_on_c, 4, 46, 0
6, 101820, Note_on_c, 4, 45, 100
6, 101879, Note_on_c, 4, 45, 0
6, 101880, Note_on_c, 4, 37, 100
6, 101939, Note_on_c, 4, 37, 0
6, 101940, Note_on_c, 4, 37, 100
6, 101999, Note_on_c, 4, 37, 0
6, 102000, Note_on_c, 4, 38, 100
6, 102059, Note_on_c, 4, 38, 0
6, 102060, Note_on_c, 4, 43, 100
6, 102119, Note_on_c, 4, 43, 0
6, 102120, Note_on_c, 4, 41, 100
6, 102179, Note_on_c, 4, 41, 0
6, 102180, Note_on_c, 4, 40, 100
6, 102239, Note_on_c, 4, 40, 0
6, 102240, Note_on_c, 4, 38, 100
6, 102299, Note_on_c, 4, 38, 0
6, 102300, Note_on_c, 4, 37, 100
6, 102359, Note_on_c, 4, 37, 0
6, 102360, Note_on_c, 4, 38, 100
6, 102419, Note_on_c, 4, 38, 0
6, 102420, Note_on_c, 4, 30, 100
6, 102479, Note_on_c, 4, 30, 0
6, 102480, Note_on_c, 4, 33, 100
6, 102539, Note_on_c, 4, 33, 0
6, 102540, Note_on_c, 4, 26, 100
6, 102599, Note_on_c, 4, 26, 0
6, 102900, Note_on_c, 4, 26, 100
6, 102959, Note_on_c, 4, 26, 0
6, 103260, Note_on_c, 4, 31, 100
6, 103379, Note_on_c, 4, 31, 0
6, 103440, Note_on_c, 4, 31, 100
6, 103499, Note_on_c, 4, 31, 0
6, 103500, Note_on_c, 4, 36, 100
6, 103559, Note_on_c, 4, 36, 0
6, 103560, Note_on_c, 4, 33, 100
6, 103619, Note_on_c, 4, 33, 0
6, 103620, Note_on_c, 4, 34, 100
6, 103739, Note_on_c, 4, 34, 0
6, 103800, Note_on_c, 4, 31, 100
6, 103859, Note_on_c, 4, 31, 0
6, 103860, Note_on_c, 4, 34, 100
6, 103919, Note_on_c, 4, 34, 0
6, 103920, Note_on_c, 4, 31, 100
6, 103979, Note_on_c, 4, 31, 0
6, 103980, Note_on_c, 4, 33, 100
6, 104099, Note_on_c, 4, 33, 0
6, 104160, Note_on_c, 4, 36, 100
6, 104219, Note_on_c, 4, 36, 0
6, 104220, Note_on_c, 4, 26, 100
6, 104279, Note_on_c, 4, 26, 0
6, 104280, Note_on_c, 4, 30, 100
6, 104339, Note_on_c, 4, 30, 0
6, 104340, Note_on_c, 4, 31, 100
6, 104369, Note_on_c, 4, 31, 0
6, 104370, Note_on_c, 4, 43, 100
6, 104399, Note_on_c, 4, 43, 0
6, 104400, Note_on_c, 4, 41, 100
6, 104429, Note_on_c, 4, 41, 0
6, 104430, Note_on_c, 4, 39, 100
6, 104459, Note_on_c, 4, 39, 0
6, 104460, Note_on_c, 4, 38, 100
6, 104489, Note_on_c, 4, 38, 0
6, 104490, Note_on_c, 4, 36, 100
6, 104519, Note_on_c, 4, 36, 0
6, 104520, Note_on_c, 4, 34, 100
6, 104549, Note_on_c, 4, 34, 0
6, 104550, Note_on_c, 4, 33, 100
6, 104579, Note_on_c, 4, 33, 0
6, 104580, Note_on_c, 4, 31, 100
6, 104609, Note_on_c, 4, 31, 0
6, 104610, Note_on_c, 4, 34, 100
6, 104639, Note_on_c, 4, 34, 0
6, 104640, Note_on_c, 4, 33, 100
6, 104669, Note_on_c, 4, 33, 0
6, 104670, Note_on_c, 4, 31, 100
6, 104699, Note_on_c, 4, 31, 0
6, 104700, Note_on_c, 4, 30, 100
6, 104729, Note_on_c, 4, 30, 0
6, 104730, Note_on_c, 4, 26, 100
6, 104759, Note_on_c, 4, 26, 0
6, 104760, Note_on_c, 4, 28, 100
6, 104789, Note_on_c, 4, 28, 0
6, 104790, Note_on_c, 4, 30, 100
6, 104819, Note_on_c, 4, 30, 0
6, 104820, Note_on_c, 4, 31, 100
6, 104849, Note_on_c, 4, 31, 0
6, 104850, Note_on_c, 4, 33, 100
6, 104879, Note_on_c, 4, 33, 0
6, 104880, Note_on_c, 4, 34, 100
6, 104909, Note_on_c, 4, 34, 0
6, 104910, Note_on_c, 4, 36, 100
6, 104939, Note_on_c, 4, 36, 0
6, 104940, Note_on_c, 4, 38, 100
6, 104999, Note_on_c, 4, 38, 0
6, 105000, Note_on_c, 4, 26, 100
6, 105059, Note_on_c, 4, 26, 0
6, 105060, Note_on_c, 4, 31, 100
6, 105179, Note_on_c, 4, 31, 0
6, 105420, Note_on_c, 4, 31, 100
6, 105539, Note_on_c, 4, 31, 0
6, 105780, Note_on_c, 4, 32, 100
6, 105899, Note_on_c, 4, 32, 0
6, 106140, Note_on_c, 4, 31, 100
6, 106259, Note_on_c, 4, 31, 0
6, 106500, Note_on_c, 4, 29, 100
6, 106619, Note_on_c, 4, 29, 0
6, 106860, Note_on_c, 4, 29, 100
6, 106979, Note_on_c, 4, 29, 0
6, 107220, Note_on_c, 4, 31, 100
6, 107339, Note_on_c, 4, 31, 0
6, 107580, Note_on_c, 4, 29, 100
6, 107699, Note_on_c, 4, 29, 0
6, 107940, Note_on_c, 4, 27, 100
6, 108059, Note_on_c, 4, 27, 0
6, 108300, Note_on_c, 4, 26, 100
6, 108419, Note_on_c, 4, 26, 0
6, 108540, Note_on_c, 4, 31, 100
6, 108659, Note_on_c, 4, 31, 0
6, 108660, Note_on_c, 4, 36, 100
6, 108779, Note_on_c, 4, 36, 0
6, 109020, Note_on_c, 4, 34, 100
6, 109139, Note_on_c, 4, 34, 0
6, 109260, Note_on_c, 4, 39, 100
6, 109379, Note_on_c, 4, 39, 0
6, 109380, Note_on_c, 4, 32, 100
6, 109499, Note_on_c, 4, 32, 0
6, 109740, Note_on_c, 4, 31, 100
6, 109859, Note_on_c, 4, 31, 0
6, 109980, Note_on_c, 4, 36, 100
6, 110099, Note_on_c, 4, 36, 0
6, 110100, Note_on_c, 4, 41, 100
6, 110129, Note_on_c, 4, 41, 0
6, 110130, Note_on_c, 4, 40, 100
6, 110159, Note_on_c, 4, 40, 0
6, 110160, Note_on_c, 4, 41, 100
6, 110189, Note_on_c, 4, 41, 0
6, 110190, Note_on_c, 4, 43, 100
6, 110219, Note_on_c, 4, 43, 0
6, 110220, Note_on_c, 4, 44, 100
6, 110279, Note_on_c, 4, 44, 0
6, 110400, Note_on_c, 4, 48, 100
6, 110459, Note_on_c, 4, 48, 0
6, 110460, Note_on_c, 4, 41, 100
6, 110519, Note_on_c, 4, 41, 0
6, 110640, Note_on_c, 4, 40, 100
6, 110699, Note_on_c, 4, 40, 0
6, 110700, Note_on_c, 4, 41, 100
6, 110759, Note_on_c, 4, 41, 0
6, 110760, Note_on_c, 4, 43, 100
6, 110819, Note_on_c, 4, 43, 0
6, 110820, Note_on_c, 4, 44, 100
6, 110879, Note_on_c, 4, 44, 0
6, 110880, Note_on_c, 4, 43, 100
6, 110939, Note_on_c, 4, 43, 0
6, 110940, Note_on_c, 4, 44, 100
6, 110999, Note_on_c, 4, 44, 0
6, 111000, Note_on_c, 4, 41, 100
6, 111059, Note_on_c, 4, 41, 0
6, 111060, Note_on_c, 4, 49, 100
6, 111119, Note_on_c, 4, 49, 0
6, 111120, Note_on_c, 4, 37, 100
6, 111179, Note_on_c, 4, 37, 0
6, 111240, Note_on_c, 4, 36, 100
6, 111299, Note_on_c, 4, 36, 0
6, 111300, Note_on_c, 4, 40, 100
6, 111359, Note_on_c, 4, 40, 0
6, 111360, Note_on_c, 4, 43, 100
6, 111419, Note_on_c, 4, 43, 0
6, 111420, Note_on_c, 4, 48, 100
6, 111479, Note_on_c, 4, 48, 0
6, 111480, Note_on_c, 4, 34, 100
6, 111539, Note_on_c, 4, 34, 0
6, 111540, Note_on_c, 4, 33, 100
6, 111599, Note_on_c, 4, 33, 0
6, 111600, Note_on_c, 4, 33, 100
6, 111659, Note_on_c, 4, 33, 0
6, 111660, Note_on_c, 4, 33, 100
6, 111719, Note_on_c, 4, 33, 0
6, 111720, Note_on_c, 4, 34, 100
6, 111779, Note_on_c, 4, 34, 0
6, 111780, Note_on_c, 4, 39, 100
6, 111839, Note_on_c, 4, 39, 0
6, 111840, Note_on_c, 4, 37, 100
6, 111899, Note_on_c, 4, 37, 0
6, 111900, Note_on_c, 4, 36, 100
6, 111959, Note_on_c, 4, 36, 0
6, 111960, Note_on_c, 4, 34, 100
6, 112019, Note_on_c, 4, 34, 0
6, 112020, Note_on_c, 4, 33, 100
6, 112079, Note_on_c, 4, 33, 0
6, 112080, Note_on_c, 4, 34, 100
6, 112139, Note_on_c, 4, 34, 0
6, 112140, Note_on_c, 4, 46, 100
6, 112199, Note_on_c, 4, 46, 0
6, 112200, Note_on_c, 4, 44, 100
6, 112259, Note_on_c, 4, 44, 0
6, 112260, Note_on_c, 4, 43, 100
6, 112319, Note_on_c, 4, 43, 0
6, 112320, Note_on_c, 4, 35, 100
6, 112379, Note_on_c, 4, 35, 0
6, 112380, Note_on_c, 4, 35, 100
6, 112439, Note_on_c, 4, 35, 0
6, 112440, Note_on_c, 4, 36, 100
6, 112499, Note_on_c, 4, 36, 0
6, 112500, Note_on_c, 4, 41, 100
6, 112559, Note_on_c, 4, 41, 0
6, 112560, Note_on_c, 4, 39, 100
6, 112619, Note_on_c, 4, 39, 0
6, 112620, Note_on_c, 4, 38, 100
6, 112679, Note_on_c, 4, 38, 0
6, 112680, Note_on_c, 4, 36, 100
6, 112739, Note_on_c, 4, 36, 0
6, 112740, Note_on_c, 4, 35, 100
6, 112799, Note_on_c, 4, 35, 0
6, 112800, Note_on_c, 4, 36, 100
6, 112859, Note_on_c, 4, 36, 0
6, 112860, Note_on_c, 4, 48, 100
6, 112919, Note_on_c, 4, 48, 0
6, 112920, Note_on_c, 4, 46, 100
6, 112979, Note_on_c, 4, 46, 0
6, 112980, Note_on_c, 4, 44, 100
6, 113039, Note_on_c, 4, 44, 0
6, 113040, Note_on_c, 4, 41, 100
6, 113099, Note_on_c, 4, 41, 0
6, 113160, Note_on_c, 4, 41, 100
6, 113219, Note_on_c, 4, 41, 0
6, 113220, Note_on_c, 4, 46, 100
6, 113279, Note_on_c, 4, 46, 0
6, 113280, Note_on_c, 4, 44, 100
6, 113339, Note_on_c, 4, 44, 0
6, 113340, Note_on_c, 4, 43, 100
6, 113399, Note_on_c, 4, 43, 0
6, 113400, Note_on_c, 4, 41, 100
6, 113459, Note_on_c, 4, 41, 0
6, 113520, Note_on_c, 4, 36, 100
6, 113579, Note_on_c, 4, 36, 0
6, 113580, Note_on_c, 4, 48, 100
6, 113609, Note_on_c, 4, 48, 0
6, 113610, Note_on_c, 4, 46, 100
6, 113639, Note_on_c, 4, 46, 0
6, 113640, Note_on_c, 4, 44, 100
6, 113669, Note_on_c, 4, 44, 0
6, 113670, Note_on_c, 4, 43, 100
6, 113699, Note_on_c, 4, 43, 0
6, 113700, Note_on_c, 4, 41, 100
6, 113819, Note_on_c, 4, 41, 0
6, 113880, Note_on_c, 4, 29, 100
6, 113939, Note_on_c, 4, 29, 0
6, 113940, Note_on_c, 4, 31, 100
6, 113999, Note_on_c, 4, 31, 0
6, 114000, Note_on_c, 4, 32, 100
6, 114059, Note_on_c, 4, 32, 0
6, 114060, Note_on_c, 4, 34, 100
6, 114089, Note_on_c, 4, 34, 0
6, 114090, Note_on_c, 4, 36, 100
6, 114119, Note_on_c, 4, 36, 0
6, 114120, Note_on_c, 4, 37, 100
6, 114179, Note_on_c, 4, 37, 0
6, 114240, Note_on_c, 4, 34, 100
6, 114299, Note_on_c, 4, 34, 0
6, 114300, Note_on_c, 4, 36, 100
6, 114359, Note_on_c, 4, 36, 0
6, 114360, Note_on_c, 4, 37, 100
6, 114419, Note_on_c, 4, 37, 0
6, 114420, Note_on_c, 4, 28, 100
6, 114449, Note_on_c, 4, 28, 0
6, 114450, Note_on_c, 4, 29, 100
6, 114479, Note_on_c, 4, 29, 0
6, 114480, Note_on_c, 4, 31, 100
6, 114539, Note_on_c, 4, 31, 0
6, 114600, Note_on_c, 4, 40, 100
6, 114659, Note_on_c, 4, 40, 0
6, 114660, Note_on_c, 4, 41, 100
6, 114719, Note_on_c, 4, 41, 0
6, 114720, Note_on_c, 4, 43, 100
6, 114779, Note_on_c, 4, 43, 0
6, 114780, Note_on_c, 4, 44, 100
6, 114809, Note_on_c, 4, 44, 0
6, 114810, Note_on_c, 4, 46, 100
6, 114839, Note_on_c, 4, 46, 0
6, 114840, Note_on_c, 4, 48, 100
6, 114899, Note_on_c, 4, 48, 0
6, 114960, Note_on_c, 4, 36, 100
6, 115019, Note_on_c, 4, 36, 0
6, 115020, Note_on_c, 4, 32, 100
6, 115079, Note_on_c, 4, 32, 0
6, 115080, Note_on_c, 4, 36, 100
6, 115139, Note_on_c, 4, 36, 0
6, 115140, Note_on_c, 4, 29, 100
6, 115259, Note_on_c, 4, 29, 0
6, 115320, Note_on_c, 4, 29, 100
6, 115379, Note_on_c, 4, 29, 0
6, 115380, Note_on_c, 4, 36, 100
6, 115439, Note_on_c, 4, 36, 0
6, 115440, Note_on_c, 4, 41, 100
6, 115499, Note_on_c, 4, 41, 0
6, 115500, Note_on_c, 4, 36, 100
6, 115619, Note_on_c, 4, 36, 0
6, 115680, Note_on_c, 4, 36, 100
6, 115739, Note_on_c, 4, 36, 0
6, 115740, Note_on_c, 4, 40, 100
6, 115799, Note_on_c, 4, 40, 0
6, 115800, Note_on_c, 4, 43, 100
6, 115859, Note_on_c, 4, 43, 0
6, 115860, Note_on_c, 4, 48, 100
6, 115979, Note_on_c, 4, 48, 0
6, 116040, Note_on_c, 4, 43, 100
6, 116099, Note_on_c, 4, 43, 0
6, 116100, Note_on_c, 4, 40, 100
6, 116159, Note_on_c, 4, 40, 0
6, 116160, Note_on_c, 4, 36, 100
6, 116219, Note_on_c, 4, 36, 0
6, 116220, Note_on_c, 4, 41, 100
6, 116339, Note_on_c, 4, 41, 0
6, 116400, Note_on_c, 4, 36, 100
6, 116459, Note_on_c, 4, 36, 0
6, 116460, Note_on_c, 4, 32, 100
6, 116519, Note_on_c, 4, 32, 0
6, 116520, Note_on_c, 4, 36, 100
6, 116579, Note_on_c, 4, 36, 0
6, 116580, Note_on_c, 4, 29, 100
6, 116699, Note_on_c, 4, 29, 0
6, 116760, Note_on_c, 4, 41, 100
6, 116819, Note_on_c, 4, 41, 0
6, 116820, Note_on_c, 4, 45, 100
6, 116879, Note_on_c, 4, 45, 0
6, 116880, Note_on_c, 4, 41, 100
6, 116939, Note_on_c, 4, 41, 0
6, 116940, Note_on_c, 4, 46, 100
6, 117059, Note_on_c, 4, 46, 0
6, 117120, Note_on_c, 4, 34, 100
6, 117179, Note_on_c, 4, 34, 0
6, 117180, Note_on_c, 4, 38, 100
6, 117239, Note_on_c, 4, 38, 0
6, 117240, Note_on_c, 4, 34, 100
6, 117299, Note_on_c, 4, 34, 0
6, 117300, Note_on_c, 4, 31, 100
6, 117419, Note_on_c, 4, 31, 0
6, 117480, Note_on_c, 4, 43, 100
6, 117539, Note_on_c, 4, 43, 0
6, 117540, Note_on_c, 4, 47, 100
6, 117599, Note_on_c, 4, 47, 0
6, 117600, Note_on_c, 4, 43, 100
6, 117659, Note_on_c, 4, 43, 0
6, 117660, Note_on_c, 4, 48, 100
6, 117779, Note_on_c, 4, 48, 0
6, 117840, Note_on_c, 4, 45, 100
6, 117899, Note_on_c, 4, 45, 0
6, 117900, Note_on_c, 4, 42, 100
6, 117959, Note_on_c, 4, 42, 0
6, 117960, Note_on_c, 4, 38, 100
6, 118019, Note_on_c, 4, 38, 0
6, 118020, Note_on_c, 4, 31, 100
6, 118139, Note_on_c, 4, 31, 0
6, 118200, Note_on_c, 4, 34, 100
6, 118259, Note_on_c, 4, 34, 0
6, 118260, Note_on_c, 4, 27, 100
6, 118319, Note_on_c, 4, 27, 0
6, 118320, Note_on_c, 4, 31, 100
6, 118379, Note_on_c, 4, 31, 0
6, 118380, Note_on_c, 4, 32, 100
6, 118499, Note_on_c, 4, 32, 0
6, 118560, Note_on_c, 4, 36, 100
6, 118619, Note_on_c, 4, 36, 0
6, 118620, Note_on_c, 4, 29, 100
6, 118679, Note_on_c, 4, 29, 0
6, 118680, Note_on_c, 4, 33, 100
6, 118739, Note_on_c, 4, 33, 0
6, 118740, Note_on_c, 4, 34, 100
6, 118859, Note_on_c, 4, 34, 0
6, 118920, Note_on_c, 4, 38, 100
6, 118979, Note_on_c, 4, 38, 0
6, 118980, Note_on_c, 4, 31, 100
6, 119039, Note_on_c, 4, 31, 0
6, 119040, Note_on_c, 4, 35, 100
6, 119099, Note_on_c, 4, 35, 0
6, 119100, Note_on_c, 4, 36, 100
6, 119219, Note_on_c, 4, 36, 0
6, 119460, Note_on_c, 4, 36, 100
6, 119579, Note_on_c, 4, 36, 0
6, 119820, Note_on_c, 4, 37, 100
6, 119939, Note_on_c, 4, 37, 0
6, 120180, Note_on_c, 4, 36, 100
6, 120299, Note_on_c, 4, 36, 0
6, 120540, Note_on_c, 4, 34, 100
6, 120659, Note_on_c, 4, 34, 0
6, 120900, Note_on_c, 4, 34, 100
6, 121019, Note_on_c, 4, 34, 0
6, 121260, Note_on_c, 4, 36, 100
6, 121379, Note_on_c, 4, 36, 0
6, 121620, Note_on_c, 4, 34, 100
6, 121739, Note_on_c, 4, 34, 0
6, 121980, Note_on_c, 4, 32, 100
6, 122099, Note_on_c, 4, 32, 0
6, 122340, Note_on_c, 4, 31, 100
6, 122459, Note_on_c, 4, 31, 0
6, 122580, Note_on_c, 4, 36, 100
6, 122699, Note_on_c, 4, 36, 0
6, 122700, Note_on_c, 4, 29, 100
6, 122819, Note_on_c, 4, 29, 0
6, 122880, Note_on_c, 4, 31, 100
6, 122939, Note_on_c, 4, 31, 0
6, 122940, Note_on_c, 4, 32, 100
6, 122999, Note_on_c, 4, 32, 0
6, 123000, Note_on_c, 4, 29, 100
6, 123059, Note_on_c, 4, 29, 0
6, 123060, Note_on_c, 4, 26, 100
6, 123179, Note_on_c, 4, 26, 0
6, 123300, Note_on_c, 4, 31, 100
6, 123419, Note_on_c, 4, 31, 0
6, 123420, Note_on_c, 4, 24, 100
6, 123479, Note_on_c, 4, 24, 0
6, 123480, Note_on_c, 4, 36, 100
6, 123509, Note_on_c, 4, 36, 0
6, 123510, Note_on_c, 4, 38, 100
6, 123539, Note_on_c, 4, 38, 0
6, 123540, Note_on_c, 4, 39, 100
6, 123599, Note_on_c, 4, 39, 0
6, 123720, Note_on_c, 4, 43, 100
6, 123779, Note_on_c, 4, 43, 0
6, 123780, Note_on_c, 4, 36, 100
6, 123839, Note_on_c, 4, 36, 0
6, 123960, Note_on_c, 4, 35, 100
6, 124019, Note_on_c, 4, 35, 0
6, 124020, Note_on_c, 4, 36, 100
6, 124079, Note_on_c, 4, 36, 0
6, 124080, Note_on_c, 4, 38, 100
6, 124139, Note_on_c, 4, 38, 0
6, 124140, Note_on_c, 4, 39, 100
6, 124199, Note_on_c, 4, 39, 0
6, 124200, Note_on_c, 4, 38, 100
6, 124259, Note_on_c, 4, 38, 0
6, 124260, Note_on_c, 4, 39, 100
6, 124319, Note_on_c, 4, 39, 0
6, 124320, Note_on_c, 4, 36, 100
6, 124379, Note_on_c, 4, 36, 0
6, 124380, Note_on_c, 4, 32, 100
6, 124439, Note_on_c, 4, 32, 0
6, 124440, Note_on_c, 4, 44, 100
6, 124499, Note_on_c, 4, 44, 0
6, 124560, Note_on_c, 4, 31, 100
6, 124619, Note_on_c, 4, 31, 0
6, 124620, Note_on_c, 4, 35, 100
6, 124679, Note_on_c, 4, 35, 0
6, 124680, Note_on_c, 4, 38, 100
6, 124739, Note_on_c, 4, 38, 0
6, 124740, Note_on_c, 4, 43, 100
6, 124769, Note_on_c, 4, 43, 0
6, 124770, Note_on_c, 4, 44, 100
6, 124799, Note_on_c, 4, 44, 0
6, 124800, Note_on_c, 4, 43, 100
6, 124829, Note_on_c, 4, 43, 0
6, 124830, Note_on_c, 4, 41, 100
6, 124859, Note_on_c, 4, 41, 0
6, 124860, Note_on_c, 4, 40, 100
6, 124919, Note_on_c, 4, 40, 0
6, 124920, Note_on_c, 4, 36, 100
6, 124979, Note_on_c, 4, 36, 0
6, 125130, Note_on_c, 4, 36, 100
6, 125159, Note_on_c, 4, 36, 0
6, 125160, Note_on_c, 4, 34, 100
6, 125189, Note_on_c, 4, 34, 0
6, 125190, Note_on_c, 4, 36, 100
6, 125219, Note_on_c, 4, 36, 0
6, 125220, Note_on_c, 4, 29, 100
6, 125279, Note_on_c, 4, 29, 0
6, 125280, Note_on_c, 4, 41, 100
6, 125339, Note_on_c, 4, 41, 0
6, 125490, Note_on_c, 4, 41, 100
6, 125519, Note_on_c, 4, 41, 0
6, 125520, Note_on_c, 4, 43, 100
6, 125549, Note_on_c, 4, 43, 0
6, 125550, Note_on_c, 4, 44, 100
6, 125579, Note_on_c, 4, 44, 0
6, 125580, Note_on_c, 4, 43, 100
6, 125639, Note_on_c, 4, 43, 0
6, 125640, Note_on_c, 4, 31, 100
6, 125699, Note_on_c, 4, 31, 0
6, 125850, Note_on_c, 4, 31, 100
6, 125879, Note_on_c, 4, 31, 0
6, 125880, Note_on_c, 4, 29, 100
6, 125909, Note_on_c, 4, 29, 0
6, 125910, Note_on_c, 4, 31, 100
6, 125939, Note_on_c, 4, 31, 0
6, 125940, Note_on_c, 4, 24, 100
6, 125999, Note_on_c, 4, 24, 0
6, 126000, Note_on_c, 4, 36, 100
6, 126059, Note_on_c, 4, 36, 0
6, 126210, Note_on_c, 4, 36, 100
6, 126239, Note_on_c, 4, 36, 0
6, 126240, Note_on_c, 4, 35, 100
6, 126269, Note_on_c, 4, 35, 0
6, 126270, Note_on_c, 4, 36, 100
6, 126299, Note_on_c, 4, 36, 0
6, 126300, Note_on_c, 4, 29, 100
6, 126419, Note_on_c, 4, 29, 0
6, 126480, Note_on_c, 4, 41, 100
6, 126539, Note_on_c, 4, 41, 0
6, 126540, Note_on_c, 4, 38, 100
6, 126599, Note_on_c, 4, 38, 0
6, 126600, Note_on_c, 4, 34, 100
6, 126659, Note_on_c, 4, 34, 0
6, 126660, Note_on_c, 4, 39, 100
6, 126779, Note_on_c, 4, 39, 0
6, 126840, Note_on_c, 4, 39, 100
6, 126899, Note_on_c, 4, 39, 0
6, 126900, Note_on_c, 4, 36, 100
6, 126959, Note_on_c, 4, 36, 0
6, 126960, Note_on_c, 4, 32, 100
6, 127019, Note_on_c, 4, 32, 0
6, 127020, Note_on_c, 4, 38, 100
6, 127139, Note_on_c, 4, 38, 0
6, 127200, Note_on_c, 4, 38, 100
6, 127259, Note_on_c, 4, 38, 0
6, 127260, Note_on_c, 4, 43, 100
6, 127319, Note_on_c, 4, 43, 0
6, 127320, Note_on_c, 4, 31, 100
6, 127379, Note_on_c, 4, 31, 0
6, 127380, Note_on_c, 4, 36, 100
6, 127409, Note_on_c, 4, 36, 0
6, 127410, Note_on_c, 4, 35, 100
6, 127439, Note_on_c, 4, 35, 0
6, 127440, Note_on_c, 4, 36, 100
6, 127469, Note_on_c, 4, 36, 0
6, 127470, Note_on_c, 4, 38, 100
6, 127499, Note_on_c, 4, 38, 0
6, 127500, Note_on_c, 4, 39, 100
6, 127559, Note_on_c, 4, 39, 0
6, 127680, Note_on_c, 4, 43, 100
6, 127739, Note_on_c, 4, 43, 0
6, 127740, Note_on_c, 4, 36, 100
6, 127800, Note_on_c, 4, 36, 0
6, 127920, Note_on_c, 4, 35, 100
6, 127980, Note_on_c, 4, 35, 0
6, 127980, Note_on_c, 4, 36, 100
6, 128040, Note_on_c, 4, 36, 0
6, 128040, Note_on_c, 4, 38, 100
6, 128100, Note_on_c, 4, 38, 0
6, 128100, Note_on_c, 4, 39, 100
6, 128160, Note_on_c, 4, 39, 0
6, 128160, Note_on_c, 4, 38, 100
6, 128220, Note_on_c, 4, 38, 0
6, 128220, Note_on_c, 4, 39, 100
6, 128280, Note_on_c, 4, 39, 0
6, 128280, Note_on_c, 4, 36, 100
6, 128340, Note_on_c, 4, 36, 0
6, 128340, Note_on_c, 4, 32, 100
6, 128400, Note_on_c, 4, 32, 0
6, 128400, Note_on_c, 4, 44, 100
6, 128460, Note_on_c, 4, 44, 0
6, 128520, Note_on_c, 4, 31, 100
6, 128579, Note_on_c, 4, 31, 0
6, 128580, Note_on_c, 4, 35, 100
6, 128639, Note_on_c, 4, 35, 0
6, 128640, Note_on_c, 4, 38, 100
6, 128699, Note_on_c, 4, 38, 0
6, 128700, Note_on_c, 4, 43, 100
6, 128759, Note_on_c, 4, 43, 0
6, 128760, Note_on_c, 4, 41, 100
6, 128819, Note_on_c, 4, 41, 0
6, 128820, Note_on_c, 4, 40, 100
6, 128879, Note_on_c, 4, 40, 0
6, 128880, Note_on_c, 4, 40, 100
6, 128939, Note_on_c, 4, 40, 0
6, 128940, Note_on_c, 4, 40, 100
6, 128999, Note_on_c, 4, 40, 0
6, 129000, Note_on_c, 4, 41, 100
6, 129059, Note_on_c, 4, 41, 0
6, 129060, Note_on_c, 4, 34, 100
6, 129119, Note_on_c, 4, 34, 0
6, 129120, Note_on_c, 4, 32, 100
6, 129179, Note_on_c, 4, 32, 0
6, 129180, Note_on_c, 4, 31, 100
6, 129239, Note_on_c, 4, 31, 0
6, 129240, Note_on_c, 4, 29, 100
6, 129299, Note_on_c, 4, 29, 0
6, 129300, Note_on_c, 4, 28, 100
6, 129359, Note_on_c, 4, 28, 0
6, 129360, Note_on_c, 4, 29, 100
6, 129419, Note_on_c, 4, 29, 0
6, 129420, Note_on_c, 4, 41, 100
6, 129479, Note_on_c, 4, 41, 0
6, 129480, Note_on_c, 4, 39, 100
6, 129539, Note_on_c, 4, 39, 0
6, 129540, Note_on_c, 4, 38, 100
6, 129599, Note_on_c, 4, 38, 0
6, 129600, Note_on_c, 4, 30, 100
6, 129659, Note_on_c, 4, 30, 0
6, 129660, Note_on_c, 4, 30, 100
6, 129719, Note_on_c, 4, 30, 0
6, 129720, Note_on_c, 4, 31, 100
6, 129779, Note_on_c, 4, 31, 0
6, 129780, Note_on_c, 4, 36, 100
6, 129839, Note_on_c, 4, 36, 0
6, 129840, Note_on_c, 4, 34, 100
6, 129899, Note_on_c, 4, 34, 0
6, 129900, Note_on_c, 4, 33, 100
6, 129959, Note_on_c, 4, 33, 0
6, 129960, Note_on_c, 4, 31, 100
6, 130019, Note_on_c, 4, 31, 0
6, 130020, Note_on_c, 4, 30, 100
6, 130079, Note_on_c, 4, 30, 0
6, 130080, Note_on_c, 4, 31, 100
6, 130139, Note_on_c, 4, 31, 0
6, 130140, Note_on_c, 4, 43, 100
6, 130199, Note_on_c, 4, 43, 0
6, 130200, Note_on_c, 4, 41, 100
6, 130259, Note_on_c, 4, 41, 0
6, 130260, Note_on_c, 4, 39, 100
6, 130319, Note_on_c, 4, 39, 0
6, 130320, Note_on_c, 4, 36, 100
6, 130379, Note_on_c, 4, 36, 0
6, 130440, Note_on_c, 4, 36, 100
6, 130499, Note_on_c, 4, 36, 0
6, 130500, Note_on_c, 4, 41, 100
6, 130559, Note_on_c, 4, 41, 0
6, 130560, Note_on_c, 4, 39, 100
6, 130619, Note_on_c, 4, 39, 0
6, 130620, Note_on_c, 4, 38, 100
6, 130679, Note_on_c, 4, 38, 0
6, 130680, Note_on_c, 4, 36, 100
6, 130739, Note_on_c, 4, 36, 0
6, 130740, Note_on_c, 4, 35, 100
6, 130799, Note_on_c, 4, 35, 0
6, 130800, Note_on_c, 4, 31, 100
6, 130859, Note_on_c, 4, 31, 0
6, 130860, Note_on_c, 4, 43, 100
6, 130919, Note_on_c, 4, 43, 0
6, 130920, Note_on_c, 4, 31, 100
6, 130979, Note_on_c, 4, 31, 0
6, 130980, Note_on_c, 4, 36, 100
6, 131039, Note_on_c, 4, 36, 0
6, 131040, Note_on_c, 4, 41, 100
6, 131099, Note_on_c, 4, 41, 0
6, 131100, Note_on_c, 4, 39, 100
6, 131159, Note_on_c, 4, 39, 0
6, 131160, Note_on_c, 4, 27, 100
6, 131219, Note_on_c, 4, 27, 0
6, 131220, Note_on_c, 4, 26, 100
6, 131279, Note_on_c, 4, 26, 0
6, 131280, Note_on_c, 4, 38, 100
6, 131339, Note_on_c, 4, 38, 0
6, 131340, Note_on_c, 4, 31, 100
6, 131399, Note_on_c, 4, 31, 0
6, 131700, Note_on_c, 4, 31, 100
6, 131759, Note_on_c, 4, 31, 0
6, 132060, Note_on_c, 4, 31, 100
6, 132119, Note_on_c, 4, 31, 0
6, 132420, Note_on_c, 4, 36, 100
6, 132540, Note_on_c, 4, 36, 0
6, 132600, Note_on_c, 4, 36, 100
6, 132660, Note_on_c, 4, 36, 0
6, 132660, Note_on_c, 4, 41, 100
6, 132720, Note_on_c, 4, 41, 0
6, 132720, Note_on_c, 4, 38, 100
6, 132780, Note_on_c, 4, 38, 0
6, 132780, Note_on_c, 4, 39, 100
6, 132900, Note_on_c, 4, 39, 0
6, 132960, Note_on_c, 4, 36, 100
6, 133020, Note_on_c, 4, 36, 0
6, 133020, Note_on_c, 4, 39, 100
6, 133080, Note_on_c, 4, 39, 0
6, 133080, Note_on_c, 4, 36, 100
6, 133140, Note_on_c, 4, 36, 0
6, 133140, Note_on_c, 4, 38, 100
6, 133260, Note_on_c, 4, 38, 0
6, 133320, Note_on_c, 4, 41, 100
6, 133380, Note_on_c, 4, 41, 0
6, 133380, Note_on_c, 4, 31, 100
6, 133440, Note_on_c, 4, 31, 0
6, 133440, Note_on_c, 4, 35, 100
6, 133500, Note_on_c, 4, 35, 0
6, 133500, Note_on_c, 4, 36, 100
6, 133530, Note_on_c, 4, 36, 0
6, 133530, Note_on_c, 4, 48, 100
6, 133560, Note_on_c, 4, 48, 0
6, 133560, Note_on_c, 4, 46, 100
6, 133590, Note_on_c, 4, 46, 0
6, 133590, Note_on_c, 4, 44, 100
6, 133620, Note_on_c, 4, 44, 0
6, 133620, Note_on_c, 4, 43, 100
6, 133650, Note_on_c, 4, 43, 0
6, 133650, Note_on_c, 4, 41, 100
6, 133680, Note_on_c, 4, 41, 0
6, 133680, Note_on_c, 4, 39, 100
6, 133710, Note_on_c, 4, 39, 0
6, 133710, Note_on_c, 4, 38, 100
6, 133740, Note_on_c, 4, 38, 0
6, 133740, Note_on_c, 4, 36, 100
6, 133770, Note_on_c, 4, 36, 0
6, 133770, Note_on_c, 4, 39, 100
6, 133800, Note_on_c, 4, 39, 0
6, 133800, Note_on_c, 4, 38, 100
6, 133830, Note_on_c, 4, 38, 0
6, 133830, Note_on_c, 4, 36, 100
6, 133860, Note_on_c, 4, 36, 0
6, 133860, Note_on_c, 4, 35, 100
6, 133890, Note_on_c, 4, 35, 0
6, 133890, Note_on_c, 4, 31, 100
6, 133920, Note_on_c, 4, 31, 0
6, 133920, Note_on_c, 4, 33, 100
6, 133950, Note_on_c, 4, 33, 0
6, 133950, Note_on_c, 4, 35, 100
6, 133980, Note_on_c, 4, 35, 0
6, 133980, Note_on_c, 4, 36, 100
6, 134010, Note_on_c, 4, 36, 0
6, 134010, Note_on_c, 4, 38, 100
6, 134040, Note_on_c, 4, 38, 0
6, 134040, Note_on_c, 4, 39, 100
6, 134070, Note_on_c, 4, 39, 0
6, 134070, Note_on_c, 4, 41, 100
6, 134100, Note_on_c, 4, 41, 0
6, 134100, Note_on_c, 4, 43, 100
6, 134160, Note_on_c, 4, 43, 0
6, 134160, Note_on_c, 4, 31, 100
6, 134220, Note_on_c, 4, 31, 0
6, 134220, Note_on_c, 4, 36, 100
6, 134280, Note_on_c, 4, 36, 0
6, 134280, Note_on_c, 4, 24, 100
6, 134340, Note_on_c, 4, 24, 0
6, 134340, Note_on_c, 4, 24, 100
6, 134400, Note_on_c, 4, 24, 0
6, 134400, Note_on_c, 4, 24, 100
6, 134460, Note_on_c, 4, 24, 0
6, 134460, Note_on_c, 4, 24, 100
6, 134520, Note_on_c, 4, 24, 0
6, 134520, Note_on_c, 4, 24, 100
6, 134580, Note_on_c, 4, 24, 0
6, 134580, Note_on_c, 4, 24, 100
6, 134700, Note_on_c, 4, 24, 0
6, 134700, End_track
7, 0, Start_track
7, 0, MIDI_port, 0
7, 0, Title_t, "clave I"
7, 0, Program_c, 5, 6
7, 0, Control_c, 5, 7, 120
7, 0, Control_c, 5, 10, 9
7, 1920, Note_on_c, 5, 67, 85
7, 1950, Note_on_c, 5, 67, 0
7, 1950, Note_on_c, 5, 69, 85
7, 1980, Note_on_c, 5, 69, 0
7, 1980, Note_on_c, 5, 70, 85
7, 2010, Note_on_c, 5, 70, 0
7, 2010, Note_on_c, 5, 72, 85
7, 2040, Note_on_c, 5, 72, 0
7, 2040, Note_on_c, 5, 74, 85
7, 2100, Note_on_c, 5, 74, 0
7, 2100, Note_on_c, 5, 79, 85
7, 2160, Note_on_c, 5, 79, 0
7, 2160, Note_on_c, 5, 78, 85
7, 2220, Note_on_c, 5, 78, 0
7, 2220, Note_on_c, 5, 74, 85
7, 2280, Note_on_c, 5, 74, 0
7, 2280, Note_on_c, 5, 69, 85
7, 2340, Note_on_c, 5, 69, 0
7, 2340, Note_on_c, 5, 72, 85
7, 2400, Note_on_c, 5, 72, 0
7, 2400, Note_on_c, 5, 71, 85
7, 2460, Note_on_c, 5, 71, 0
7, 2460, Note_on_c, 5, 67, 85
7, 2520, Note_on_c, 5, 67, 0
7, 2520, Note_on_c, 5, 77, 85
7, 2700, Note_on_c, 5, 77, 0
7, 2700, Note_on_c, 5, 76, 85
7, 2730, Note_on_c, 5, 76, 0
7, 2730, Note_on_c, 5, 74, 85
7, 2760, Note_on_c, 5, 74, 0
7, 2760, Note_on_c, 5, 76, 85
7, 2820, Note_on_c, 5, 76, 0
7, 2820, Note_on_c, 5, 72, 85
7, 2880, Note_on_c, 5, 72, 0
7, 2880, Note_on_c, 5, 69, 85
7, 2940, Note_on_c, 5, 69, 0
7, 2940, Note_on_c, 5, 72, 85
7, 3000, Note_on_c, 5, 72, 0
7, 3000, Note_on_c, 5, 75, 85
7, 3060, Note_on_c, 5, 75, 0
7, 3060, Note_on_c, 5, 67, 85
7, 3120, Note_on_c, 5, 67, 0
7, 3120, Note_on_c, 5, 66, 85
7, 3180, Note_on_c, 5, 66, 0
7, 3180, Note_on_c, 5, 74, 85
7, 3240, Note_on_c, 5, 74, 0
7, 3240, Note_on_c, 5, 67, 85
7, 3300, Note_on_c, 5, 67, 0
7, 3300, Note_on_c, 5, 72, 85
7, 3360, Note_on_c, 5, 72, 0
7, 3360, Note_on_c, 5, 70, 85
7, 3480, Note_on_c, 5, 70, 0
7, 3480, Note_on_c, 5, 69, 85
7, 3495, Note_on_c, 5, 69, 0
7, 3495, Note_on_c, 5, 70, 85
7, 3510, Note_on_c, 5, 70, 0
7, 3510, Note_on_c, 5, 69, 85
7, 3525, Note_on_c, 5, 69, 0
7, 3525, Note_on_c, 5, 70, 85
7, 3540, Note_on_c, 5, 70, 0
7, 3540, Note_on_c, 5, 69, 85
7, 3560, Note_on_c, 5, 69, 0
7, 3560, Note_on_c, 5, 70, 85
7, 3580, Note_on_c, 5, 70, 0
7, 3580, Note_on_c, 5, 69, 85
7, 3600, Note_on_c, 5, 69, 0
7, 3600, Note_on_c, 5, 67, 85
7, 3630, Note_on_c, 5, 67, 0
7, 3630, Note_on_c, 5, 66, 85
7, 3660, Note_on_c, 5, 66, 0
7, 3660, Note_on_c, 5, 67, 85
7, 3690, Note_on_c, 5, 67, 0
7, 3690, Note_on_c, 5, 69, 85
7, 3720, Note_on_c, 5, 69, 0
7, 3720, Note_on_c, 5, 70, 85
7, 3750, Note_on_c, 5, 70, 0
7, 3750, Note_on_c, 5, 72, 85
7, 3780, Note_on_c, 5, 72, 0
7, 3780, Note_on_c, 5, 74, 85
7, 3810, Note_on_c, 5, 74, 0
7, 3810, Note_on_c, 5, 75, 85
7, 3840, Note_on_c, 5, 75, 0
7, 3840, Note_on_c, 5, 77, 85
7, 3900, Note_on_c, 5, 77, 0
7, 3900, Note_on_c, 5, 65, 85
7, 3960, Note_on_c, 5, 65, 0
7, 3960, Note_on_c, 5, 77, 85
7, 4140, Note_on_c, 5, 77, 0
7, 4140, Note_on_c, 5, 74, 85
7, 4200, Note_on_c, 5, 74, 0
7, 4200, Note_on_c, 5, 67, 85
7, 4260, Note_on_c, 5, 67, 0
7, 4260, Note_on_c, 5, 77, 85
7, 4320, Note_on_c, 5, 77, 0
7, 4320, Note_on_c, 5, 75, 85
7, 4350, Note_on_c, 5, 75, 0
7, 4350, Note_on_c, 5, 74, 85
7, 4380, Note_on_c, 5, 74, 0
7, 4380, Note_on_c, 5, 72, 85
7, 4410, Note_on_c, 5, 72, 0
7, 4410, Note_on_c, 5, 74, 85
7, 4440, Note_on_c, 5, 74, 0
7, 4440, Note_on_c, 5, 75, 85
7, 4470, Note_on_c, 5, 75, 0
7, 4470, Note_on_c, 5, 74, 85
7, 4500, Note_on_c, 5, 74, 0
7, 4500, Note_on_c, 5, 75, 85
7, 4530, Note_on_c, 5, 75, 0
7, 4530, Note_on_c, 5, 77, 85
7, 4560, Note_on_c, 5, 77, 0
7, 4560, Note_on_c, 5, 79, 85
7, 4620, Note_on_c, 5, 79, 0
7, 4620, Note_on_c, 5, 74, 85
7, 4680, Note_on_c, 5, 74, 0
7, 4680, Note_on_c, 5, 79, 85
7, 4830, Note_on_c, 5, 79, 0
7, 4830, Note_on_c, 5, 77, 85
7, 4860, Note_on_c, 5, 77, 0
7, 4860, Note_on_c, 5, 76, 85
7, 4890, Note_on_c, 5, 76, 0
7, 4890, Note_on_c, 5, 74, 85
7, 4920, Note_on_c, 5, 74, 0
7, 4920, Note_on_c, 5, 76, 85
7, 4950, Note_on_c, 5, 76, 0
7, 4950, Note_on_c, 5, 72, 85
7, 4980, Note_on_c, 5, 72, 0
7, 4980, Note_on_c, 5, 74, 85
7, 5010, Note_on_c, 5, 74, 0
7, 5010, Note_on_c, 5, 76, 85
7, 5040, Note_on_c, 5, 76, 0
7, 5040, Note_on_c, 5, 77, 85
7, 5100, Note_on_c, 5, 77, 0
7, 5100, Note_on_c, 5, 72, 85
7, 5160, Note_on_c, 5, 72, 0
7, 5160, Note_on_c, 5, 77, 85
7, 5310, Note_on_c, 5, 77, 0
7, 5310, Note_on_c, 5, 75, 85
7, 5340, Note_on_c, 5, 75, 0
7, 5340, Note_on_c, 5, 74, 85
7, 5370, Note_on_c, 5, 74, 0
7, 5370, Note_on_c, 5, 75, 85
7, 5400, Note_on_c, 5, 75, 0
7, 5400, Note_on_c, 5, 77, 85
7, 5430, Note_on_c, 5, 77, 0
7, 5430, Note_on_c, 5, 79, 85
7, 5460, Note_on_c, 5, 79, 0
7, 5460, Note_on_c, 5, 80, 85
7, 5490, Note_on_c, 5, 80, 0
7, 5490, Note_on_c, 5, 77, 85
7, 5520, Note_on_c, 5, 77, 0
7, 5520, Note_on_c, 5, 79, 85
7, 5550, Note_on_c, 5, 79, 0
7, 5550, Note_on_c, 5, 80, 85
7, 5580, Note_on_c, 5, 80, 0
7, 5580, Note_on_c, 5, 79, 85
7, 5610, Note_on_c, 5, 79, 0
7, 5610, Note_on_c, 5, 77, 85
7, 5640, Note_on_c, 5, 77, 0
7, 5640, Note_on_c, 5, 75, 85
7, 5670, Note_on_c, 5, 75, 0
7, 5670, Note_on_c, 5, 74, 85
7, 5700, Note_on_c, 5, 74, 0
7, 5700, Note_on_c, 5, 72, 85
7, 5730, Note_on_c, 5, 72, 0
7, 5730, Note_on_c, 5, 71, 85
7, 5760, Note_on_c, 5, 71, 0
7, 5760, Note_on_c, 5, 72, 85
7, 5819, Note_on_c, 5, 72, 0
7, 5820, Note_on_c, 5, 84, 85
7, 5939, Note_on_c, 5, 84, 0
7, 5940, Note_on_c, 5, 83, 85
7, 5999, Note_on_c, 5, 83, 0
7, 6000, Note_on_c, 5, 84, 85
7, 6119, Note_on_c, 5, 84, 0
7, 6180, Note_on_c, 5, 75, 85
7, 6239, Note_on_c, 5, 75, 0
7, 6240, Note_on_c, 5, 74, 85
7, 6299, Note_on_c, 5, 74, 0
7, 6300, Note_on_c, 5, 79, 85
7, 6359, Note_on_c, 5, 79, 0
7, 6360, Note_on_c, 5, 67, 85
7, 6539, Note_on_c, 5, 67, 0
7, 6540, Note_on_c, 5, 72, 85
7, 6569, Note_on_c, 5, 72, 0
7, 6570, Note_on_c, 5, 74, 85
7, 6599, Note_on_c, 5, 74, 0
7, 6600, Note_on_c, 5, 76, 85
7, 6629, Note_on_c, 5, 76, 0
7, 6630, Note_on_c, 5, 77, 85
7, 6659, Note_on_c, 5, 77, 0
7, 6660, Note_on_c, 5, 79, 85
7, 6689, Note_on_c, 5, 79, 0
7, 6690, Note_on_c, 5, 76, 85
7, 6719, Note_on_c, 5, 76, 0
7, 6720, Note_on_c, 5, 77, 85
7, 6779, Note_on_c, 5, 77, 0
7, 6780, Note_on_c, 5, 72, 85
7, 6809, Note_on_c, 5, 72, 0
7, 6810, Note_on_c, 5, 70, 85
7, 6839, Note_on_c, 5, 70, 0
7, 6840, Note_on_c, 5, 72, 85
7, 6869, Note_on_c, 5, 72, 0
7, 6870, Note_on_c, 5, 69, 85
7, 6899, Note_on_c, 5, 69, 0
7, 6900, Note_on_c, 5, 70, 85
7, 6929, Note_on_c, 5, 70, 0
7, 6930, Note_on_c, 5, 72, 85
7, 6959, Note_on_c, 5, 72, 0
7, 6960, Note_on_c, 5, 65, 85
7, 7019, Note_on_c, 5, 65, 0
7, 7020, Note_on_c, 5, 70, 85
7, 7079, Note_on_c, 5, 70, 0
7, 7080, Note_on_c, 5, 77, 85
7, 7259, Note_on_c, 5, 77, 0
7, 7260, Note_on_c, 5, 76, 85
7, 7289, Note_on_c, 5, 76, 0
7, 7290, Note_on_c, 5, 77, 85
7, 7319, Note_on_c, 5, 77, 0
7, 7320, Note_on_c, 5, 79, 85
7, 7379, Note_on_c, 5, 79, 0
7, 7380, Note_on_c, 5, 70, 85
7, 7499, Note_on_c, 5, 70, 0
7, 7500, Note_on_c, 5, 68, 85
7, 7529, Note_on_c, 5, 68, 0
7, 7530, Note_on_c, 5, 70, 85
7, 7559, Note_on_c, 5, 70, 0
7, 7560, Note_on_c, 5, 72, 85
7, 7619, Note_on_c, 5, 72, 0
7, 7620, Note_on_c, 5, 79, 85
7, 7739, Note_on_c, 5, 79, 0
7, 7740, Note_on_c, 5, 77, 85
7, 7859, Note_on_c, 5, 77, 0
7, 7860, Note_on_c, 5, 75, 85
7, 7979, Note_on_c, 5, 75, 0
7, 7980, Note_on_c, 5, 74, 85
7, 8009, Note_on_c, 5, 74, 0
7, 8010, Note_on_c, 5, 72, 85
7, 8039, Note_on_c, 5, 72, 0
7, 8040, Note_on_c, 5, 71, 85
7, 8069, Note_on_c, 5, 71, 0
7, 8070, Note_on_c, 5, 72, 85
7, 8099, Note_on_c, 5, 72, 0
7, 8100, Note_on_c, 5, 69, 85
7, 8129, Note_on_c, 5, 69, 0
7, 8130, Note_on_c, 5, 71, 85
7, 8159, Note_on_c, 5, 71, 0
7, 8160, Note_on_c, 5, 72, 85
7, 8189, Note_on_c, 5, 72, 0
7, 8190, Note_on_c, 5, 74, 85
7, 8219, Note_on_c, 5, 74, 0
7, 8220, Note_on_c, 5, 75, 85
7, 8249, Note_on_c, 5, 75, 0
7, 8250, Note_on_c, 5, 77, 85
7, 8279, Note_on_c, 5, 77, 0
7, 8280, Note_on_c, 5, 79, 85
7, 8339, Note_on_c, 5, 79, 0
7, 8340, Note_on_c, 5, 84, 85
7, 8399, Note_on_c, 5, 84, 0
7, 8400, Note_on_c, 5, 83, 85
7, 8459, Note_on_c, 5, 83, 0
7, 8460, Note_on_c, 5, 79, 85
7, 8519, Note_on_c, 5, 79, 0
7, 8520, Note_on_c, 5, 74, 85
7, 8579, Note_on_c, 5, 74, 0
7, 8580, Note_on_c, 5, 77, 85
7, 8639, Note_on_c, 5, 77, 0
7, 8640, Note_on_c, 5, 76, 85
7, 8699, Note_on_c, 5, 76, 0
7, 8700, Note_on_c, 5, 72, 85
7, 8759, Note_on_c, 5, 72, 0
7, 8760, Note_on_c, 5, 82, 85
7, 8939, Note_on_c, 5, 82, 0
7, 8940, Note_on_c, 5, 81, 85
7, 8969, Note_on_c, 5, 81, 0
7, 8970, Note_on_c, 5, 79, 85
7, 8999, Note_on_c, 5, 79, 0
7, 9000, Note_on_c, 5, 81, 85
7, 9059, Note_on_c, 5, 81, 0
7, 9060, Note_on_c, 5, 77, 85
7, 9119, Note_on_c, 5, 77, 0
7, 9120, Note_on_c, 5, 74, 85
7, 9179, Note_on_c, 5, 74, 0
7, 9180, Note_on_c, 5, 77, 85
7, 9239, Note_on_c, 5, 77, 0
7, 9240, Note_on_c, 5, 80, 85
7, 9299, Note_on_c, 5, 80, 0
7, 9300, Note_on_c, 5, 72, 85
7, 9359, Note_on_c, 5, 72, 0
7, 9360, Note_on_c, 5, 71, 85
7, 9419, Note_on_c, 5, 71, 0
7, 9420, Note_on_c, 5, 79, 85
7, 9479, Note_on_c, 5, 79, 0
7, 9480, Note_on_c, 5, 72, 85
7, 9539, Note_on_c, 5, 72, 0
7, 9540, Note_on_c, 5, 77, 85
7, 9599, Note_on_c, 5, 77, 0
7, 9600, Note_on_c, 5, 75, 85
7, 9719, Note_on_c, 5, 75, 0
7, 9720, Note_on_c, 5, 74, 85
7, 9839, Note_on_c, 5, 74, 0
7, 9840, Note_on_c, 5, 72, 85
7, 9899, Note_on_c, 5, 72, 0
7, 9900, Note_on_c, 5, 70, 85
7, 9929, Note_on_c, 5, 70, 0
7, 9930, Note_on_c, 5, 68, 85
7, 9959, Note_on_c, 5, 68, 0
7, 9960, Note_on_c, 5, 67, 85
7, 9989, Note_on_c, 5, 67, 0
7, 9990, Note_on_c, 5, 65, 85
7, 10019, Note_on_c, 5, 65, 0
7, 10020, Note_on_c, 5, 63, 85
7, 10049, Note_on_c, 5, 63, 0
7, 10050, Note_on_c, 5, 62, 85
7, 10079, Note_on_c, 5, 62, 0
7, 10080, Note_on_c, 5, 63, 85
7, 10109, Note_on_c, 5, 63, 0
7, 10140, Note_on_c, 5, 79, 85
7, 10169, Note_on_c, 5, 79, 0
7, 10200, Note_on_c, 5, 62, 85
7, 10229, Note_on_c, 5, 62, 0
7, 10260, Note_on_c, 5, 77, 85
7, 10289, Note_on_c, 5, 77, 0
7, 10320, Note_on_c, 5, 60, 85
7, 10349, Note_on_c, 5, 60, 0
7, 10350, Note_on_c, 5, 77, 85
7, 10379, Note_on_c, 5, 77, 0
7, 10380, Note_on_c, 5, 75, 85
7, 10409, Note_on_c, 5, 75, 0
7, 10410, Note_on_c, 5, 74, 85
7, 10439, Note_on_c, 5, 74, 0
7, 10440, Note_on_c, 5, 72, 85
7, 10469, Note_on_c, 5, 72, 0
7, 10470, Note_on_c, 5, 70, 85
7, 10499, Note_on_c, 5, 70, 0
7, 10500, Note_on_c, 5, 68, 85
7, 10529, Note_on_c, 5, 68, 0
7, 10530, Note_on_c, 5, 67, 85
7, 10559, Note_on_c, 5, 67, 0
7, 10560, Note_on_c, 5, 68, 85
7, 10589, Note_on_c, 5, 68, 0
7, 10620, Note_on_c, 5, 84, 85
7, 10649, Note_on_c, 5, 84, 0
7, 10680, Note_on_c, 5, 67, 85
7, 10709, Note_on_c, 5, 67, 0
7, 10740, Note_on_c, 5, 82, 85
7, 10769, Note_on_c, 5, 82, 0
7, 10800, Note_on_c, 5, 65, 85
7, 10829, Note_on_c, 5, 65, 0
7, 10830, Note_on_c, 5, 82, 85
7, 10859, Note_on_c, 5, 82, 0
7, 10860, Note_on_c, 5, 80, 85
7, 10889, Note_on_c, 5, 80, 0
7, 10890, Note_on_c, 5, 79, 85
7, 10919, Note_on_c, 5, 79, 0
7, 10920, Note_on_c, 5, 77, 85
7, 10949, Note_on_c, 5, 77, 0
7, 10950, Note_on_c, 5, 75, 85
7, 10979, Note_on_c, 5, 75, 0
7, 10980, Note_on_c, 5, 74, 85
7, 11009, Note_on_c, 5, 74, 0
7, 11010, Note_on_c, 5, 72, 85
7, 11039, Note_on_c, 5, 72, 0
7, 11040, Note_on_c, 5, 74, 85
7, 11069, Note_on_c, 5, 74, 0
7, 11070, Note_on_c, 5, 80, 85
7, 11099, Note_on_c, 5, 80, 0
7, 11100, Note_on_c, 5, 79, 85
7, 11129, Note_on_c, 5, 79, 0
7, 11130, Note_on_c, 5, 77, 85
7, 11159, Note_on_c, 5, 77, 0
7, 11160, Note_on_c, 5, 79, 85
7, 11189, Note_on_c, 5, 79, 0
7, 11190, Note_on_c, 5, 74, 85
7, 11219, Note_on_c, 5, 74, 0
7, 11220, Note_on_c, 5, 72, 85
7, 11249, Note_on_c, 5, 72, 0
7, 11250, Note_on_c, 5, 71, 85
7, 11279, Note_on_c, 5, 71, 0
7, 11280, Note_on_c, 5, 72, 85
7, 11309, Note_on_c, 5, 72, 0
7, 11310, Note_on_c, 5, 79, 85
7, 11339, Note_on_c, 5, 79, 0
7, 11340, Note_on_c, 5, 77, 85
7, 11369, Note_on_c, 5, 77, 0
7, 11370, Note_on_c, 5, 75, 85
7, 11399, Note_on_c, 5, 75, 0
7, 11400, Note_on_c, 5, 77, 85
7, 11429, Note_on_c, 5, 77, 0
7, 11430, Note_on_c, 5, 72, 85
7, 11459, Note_on_c, 5, 72, 0
7, 11460, Note_on_c, 5, 71, 85
7, 11489, Note_on_c, 5, 71, 0
7, 11490, Note_on_c, 5, 69, 85
7, 11519, Note_on_c, 5, 69, 0
7, 11520, Note_on_c, 5, 71, 85
7, 11549, Note_on_c, 5, 71, 0
7, 11550, Note_on_c, 5, 77, 85
7, 11579, Note_on_c, 5, 77, 0
7, 11580, Note_on_c, 5, 75, 85
7, 11609, Note_on_c, 5, 75, 0
7, 11610, Note_on_c, 5, 74, 85
7, 11639, Note_on_c, 5, 74, 0
7, 11640, Note_on_c, 5, 75, 85
7, 11669, Note_on_c, 5, 75, 0
7, 11670, Note_on_c, 5, 74, 85
7, 11699, Note_on_c, 5, 74, 0
7, 11700, Note_on_c, 5, 72, 85
7, 11729, Note_on_c, 5, 72, 0
7, 11730, Note_on_c, 5, 75, 85
7, 11759, Note_on_c, 5, 75, 0
7, 11760, Note_on_c, 5, 74, 85
7, 11789, Note_on_c, 5, 74, 0
7, 11790, Note_on_c, 5, 72, 85
7, 11819, Note_on_c, 5, 72, 0
7, 11820, Note_on_c, 5, 71, 85
7, 11849, Note_on_c, 5, 71, 0
7, 11850, Note_on_c, 5, 69, 85
7, 11879, Note_on_c, 5, 69, 0
7, 11880, Note_on_c, 5, 67, 85
7, 12029, Note_on_c, 5, 67, 0
7, 12030, Note_on_c, 5, 63, 85
7, 12059, Note_on_c, 5, 63, 0
7, 12060, Note_on_c, 5, 60, 85
7, 12089, Note_on_c, 5, 60, 0
7, 12090, Note_on_c, 5, 63, 85
7, 12119, Note_on_c, 5, 63, 0
7, 12120, Note_on_c, 5, 65, 85
7, 12149, Note_on_c, 5, 65, 0
7, 12150, Note_on_c, 5, 62, 85
7, 12179, Note_on_c, 5, 62, 0
7, 12180, Note_on_c, 5, 59, 85
7, 12209, Note_on_c, 5, 59, 0
7, 12210, Note_on_c, 5, 62, 85
7, 12239, Note_on_c, 5, 62, 0
7, 12240, Note_on_c, 5, 63, 85
7, 12269, Note_on_c, 5, 63, 0
7, 12300, Note_on_c, 5, 60, 85
7, 12329, Note_on_c, 5, 60, 0
7, 12360, Note_on_c, 5, 72, 85
7, 12509, Note_on_c, 5, 72, 0
7, 12510, Note_on_c, 5, 68, 85
7, 12539, Note_on_c, 5, 68, 0
7, 12540, Note_on_c, 5, 65, 85
7, 12569, Note_on_c, 5, 65, 0
7, 12570, Note_on_c, 5, 68, 85
7, 12599, Note_on_c, 5, 68, 0
7, 12600, Note_on_c, 5, 70, 85
7, 12629, Note_on_c, 5, 70, 0
7, 12630, Note_on_c, 5, 67, 85
7, 12659, Note_on_c, 5, 67, 0
7, 12660, Note_on_c, 5, 64, 85
7, 12689, Note_on_c, 5, 64, 0
7, 12690, Note_on_c, 5, 67, 85
7, 12719, Note_on_c, 5, 67, 0
7, 12720, Note_on_c, 5, 68, 85
7, 12749, Note_on_c, 5, 68, 0
7, 12780, Note_on_c, 5, 65, 85
7, 12809, Note_on_c, 5, 65, 0
7, 12840, Note_on_c, 5, 80, 85
7, 12989, Note_on_c, 5, 80, 0
7, 12990, Note_on_c, 5, 65, 85
7, 13019, Note_on_c, 5, 65, 0
7, 13020, Note_on_c, 5, 63, 85
7, 13049, Note_on_c, 5, 63, 0
7, 13050, Note_on_c, 5, 62, 85
7, 13079, Note_on_c, 5, 62, 0
7, 13080, Note_on_c, 5, 63, 85
7, 13139, Note_on_c, 5, 63, 0
7, 13140, Note_on_c, 5, 79, 85
7, 13229, Note_on_c, 5, 79, 0
7, 13230, Note_on_c, 5, 63, 85
7, 13259, Note_on_c, 5, 63, 0
7, 13260, Note_on_c, 5, 62, 85
7, 13289, Note_on_c, 5, 62, 0
7, 13290, Note_on_c, 5, 60, 85
7, 13319, Note_on_c, 5, 60, 0
7, 13320, Note_on_c, 5, 62, 85
7, 13379, Note_on_c, 5, 62, 0
7, 13380, Note_on_c, 5, 77, 85
7, 13469, Note_on_c, 5, 77, 0
7, 13470, Note_on_c, 5, 62, 85
7, 13499, Note_on_c, 5, 62, 0
7, 13500, Note_on_c, 5, 60, 85
7, 13529, Note_on_c, 5, 60, 0
7, 13530, Note_on_c, 5, 59, 85
7, 13559, Note_on_c, 5, 59, 0
7, 13560, Note_on_c, 5, 60, 85
7, 13619, Note_on_c, 5, 60, 0
7, 13620, Note_on_c, 5, 72, 85
7, 13709, Note_on_c, 5, 72, 0
7, 13710, Note_on_c, 5, 75, 85
7, 13739, Note_on_c, 5, 75, 0
7, 13740, Note_on_c, 5, 74, 85
7, 13769, Note_on_c, 5, 74, 0
7, 13770, Note_on_c, 5, 72, 85
7, 13799, Note_on_c, 5, 72, 0
7, 13800, Note_on_c, 5, 74, 85
7, 13829, Note_on_c, 5, 74, 0
7, 13830, Note_on_c, 5, 77, 85
7, 13859, Note_on_c, 5, 77, 0
7, 13860, Note_on_c, 5, 75, 85
7, 13889, Note_on_c, 5, 75, 0
7, 13890, Note_on_c, 5, 74, 85
7, 13919, Note_on_c, 5, 74, 0
7, 13920, Note_on_c, 5, 75, 85
7, 13949, Note_on_c, 5, 75, 0
7, 13950, Note_on_c, 5, 67, 85
7, 13979, Note_on_c, 5, 67, 0
7, 13980, Note_on_c, 5, 69, 85
7, 14009, Note_on_c, 5, 69, 0
7, 14010, Note_on_c, 5, 71, 85
7, 14039, Note_on_c, 5, 71, 0
7, 14040, Note_on_c, 5, 72, 85
7, 14069, Note_on_c, 5, 72, 0
7, 14070, Note_on_c, 5, 74, 85
7, 14099, Note_on_c, 5, 74, 0
7, 14100, Note_on_c, 5, 75, 85
7, 14129, Note_on_c, 5, 75, 0
7, 14130, Note_on_c, 5, 72, 85
7, 14159, Note_on_c, 5, 72, 0
7, 14160, Note_on_c, 5, 65, 85
7, 14189, Note_on_c, 5, 65, 0
7, 14190, Note_on_c, 5, 72, 85
7, 14219, Note_on_c, 5, 72, 0
7, 14220, Note_on_c, 5, 75, 85
7, 14310, Note_on_c, 5, 75, 0
7, 14310, Note_on_c, 5, 72, 85
7, 14339, Note_on_c, 5, 72, 0
7, 14340, Note_on_c, 5, 69, 85
7, 14369, Note_on_c, 5, 69, 0
7, 14370, Note_on_c, 5, 65, 85
7, 14399, Note_on_c, 5, 65, 0
7, 14400, Note_on_c, 5, 74, 85
7, 14429, Note_on_c, 5, 74, 0
7, 14430, Note_on_c, 5, 65, 85
7, 14459, Note_on_c, 5, 65, 0
7, 14460, Note_on_c, 5, 67, 85
7, 14489, Note_on_c, 5, 67, 0
7, 14490, Note_on_c, 5, 69, 85
7, 14519, Note_on_c, 5, 69, 0
7, 14520, Note_on_c, 5, 70, 85
7, 14549, Note_on_c, 5, 70, 0
7, 14550, Note_on_c, 5, 72, 85
7, 14579, Note_on_c, 5, 72, 0
7, 14580, Note_on_c, 5, 74, 85
7, 14609, Note_on_c, 5, 74, 0
7, 14610, Note_on_c, 5, 70, 85
7, 14639, Note_on_c, 5, 70, 0
7, 14640, Note_on_c, 5, 63, 85
7, 14669, Note_on_c, 5, 63, 0
7, 14670, Note_on_c, 5, 70, 85
7, 14699, Note_on_c, 5, 70, 0
7, 14700, Note_on_c, 5, 73, 85
7, 14790, Note_on_c, 5, 73, 0
7, 14790, Note_on_c, 5, 70, 85
7, 14819, Note_on_c, 5, 70, 0
7, 14820, Note_on_c, 5, 67, 85
7, 14849, Note_on_c, 5, 67, 0
7, 14850, Note_on_c, 5, 63, 85
7, 14879, Note_on_c, 5, 63, 0
7, 14880, Note_on_c, 5, 72, 85
7, 14940, Note_on_c, 5, 72, 0
7, 14940, Note_on_c, 5, 77, 85
7, 14955, Note_on_c, 5, 77, 0
7, 14955, Note_on_c, 5, 75, 85
7, 14970, Note_on_c, 5, 75, 0
7, 14970, Note_on_c, 5, 74, 85
7, 14985, Note_on_c, 5, 74, 0
7, 14985, Note_on_c, 5, 75, 85
7, 15000, Note_on_c, 5, 75, 0
7, 15000, Note_on_c, 5, 77, 85
7, 15029, Note_on_c, 5, 77, 0
7, 15060, Note_on_c, 5, 72, 85
7, 15089, Note_on_c, 5, 72, 0
7, 15120, Note_on_c, 5, 74, 85
7, 15149, Note_on_c, 5, 74, 0
7, 15180, Note_on_c, 5, 79, 85
7, 15195, Note_on_c, 5, 79, 0
7, 15195, Note_on_c, 5, 77, 85
7, 15210, Note_on_c, 5, 77, 0
7, 15210, Note_on_c, 5, 75, 85
7, 15225, Note_on_c, 5, 75, 0
7, 15225, Note_on_c, 5, 77, 85
7, 15240, Note_on_c, 5, 77, 0
7, 15240, Note_on_c, 5, 79, 85
7, 15269, Note_on_c, 5, 79, 0
7, 15300, Note_on_c, 5, 74, 85
7, 15329, Note_on_c, 5, 74, 0
7, 15360, Note_on_c, 5, 75, 85
7, 15389, Note_on_c, 5, 75, 0
7, 15390, Note_on_c, 5, 77, 85
7, 15419, Note_on_c, 5, 77, 0
7, 15420, Note_on_c, 5, 75, 85
7, 15449, Note_on_c, 5, 75, 0
7, 15450, Note_on_c, 5, 74, 85
7, 15479, Note_on_c, 5, 74, 0
7, 15480, Note_on_c, 5, 72, 85
7, 15509, Note_on_c, 5, 72, 0
7, 15510, Note_on_c, 5, 70, 85
7, 15539, Note_on_c, 5, 70, 0
7, 15540, Note_on_c, 5, 68, 85
7, 15569, Note_on_c, 5, 68, 0
7, 15570, Note_on_c, 5, 67, 85
7, 15599, Note_on_c, 5, 67, 0
7, 15600, Note_on_c, 5, 65, 85
7, 15629, Note_on_c, 5, 65, 0
7, 15630, Note_on_c, 5, 79, 85
7, 15659, Note_on_c, 5, 79, 0
7, 15660, Note_on_c, 5, 77, 85
7, 15689, Note_on_c, 5, 77, 0
7, 15690, Note_on_c, 5, 75, 85
7, 15719, Note_on_c, 5, 75, 0
7, 15720, Note_on_c, 5, 74, 85
7, 15749, Note_on_c, 5, 74, 0
7, 15750, Note_on_c, 5, 72, 85
7, 15779, Note_on_c, 5, 72, 0
7, 15780, Note_on_c, 5, 70, 85
7, 15809, Note_on_c, 5, 70, 0
7, 15810, Note_on_c, 5, 68, 85
7, 15839, Note_on_c, 5, 68, 0
7, 15840, Note_on_c, 5, 67, 85
7, 15900, Note_on_c, 5, 67, 0
7, 15900, Note_on_c, 5, 75, 85
7, 15929, Note_on_c, 5, 75, 0
7, 15930, Note_on_c, 5, 77, 85
7, 15959, Note_on_c, 5, 77, 0
7, 15960, Note_on_c, 5, 79, 85
7, 16020, Note_on_c, 5, 79, 0
7, 16020, Note_on_c, 5, 63, 85
7, 16110, Note_on_c, 5, 63, 0
7, 16110, Note_on_c, 5, 62, 85
7, 16139, Note_on_c, 5, 62, 0
7, 16140, Note_on_c, 5, 60, 85
7, 16169, Note_on_c, 5, 60, 0
7, 16170, Note_on_c, 5, 58, 85
7, 16199, Note_on_c, 5, 58, 0
7, 16200, Note_on_c, 5, 57, 85
7, 16260, Note_on_c, 5, 57, 0
7, 16260, Note_on_c, 5, 69, 85
7, 16380, Note_on_c, 5, 69, 0
7, 16380, Note_on_c, 5, 74, 85
7, 16409, Note_on_c, 5, 74, 0
7, 16410, Note_on_c, 5, 75, 85
7, 16439, Note_on_c, 5, 75, 0
7, 16440, Note_on_c, 5, 77, 85
7, 16500, Note_on_c, 5, 77, 0
7, 16500, Note_on_c, 5, 62, 85
7, 16590, Note_on_c, 5, 62, 0
7, 16590, Note_on_c, 5, 60, 85
7, 16619, Note_on_c, 5, 60, 0
7, 16620, Note_on_c, 5, 59, 85
7, 16649, Note_on_c, 5, 59, 0
7, 16650, Note_on_c, 5, 57, 85
7, 16679, Note_on_c, 5, 57, 0
7, 16680, Note_on_c, 5, 55, 85
7, 16740, Note_on_c, 5, 55, 0
7, 16740, Note_on_c, 5, 67, 85
7, 16830, Note_on_c, 5, 67, 0
7, 16830, Note_on_c, 5, 72, 85
7, 16859, Note_on_c, 5, 72, 0
7, 16860, Note_on_c, 5, 75, 85
7, 16889, Note_on_c, 5, 75, 0
7, 16890, Note_on_c, 5, 79, 85
7, 16919, Note_on_c, 5, 79, 0
7, 16920, Note_on_c, 5, 84, 85
7, 16949, Note_on_c, 5, 84, 0
7, 16950, Note_on_c, 5, 79, 85
7, 16979, Note_on_c, 5, 79, 0
7, 16980, Note_on_c, 5, 75, 85
7, 17009, Note_on_c, 5, 75, 0
7, 17010, Note_on_c, 5, 72, 85
7, 17039, Note_on_c, 5, 72, 0
7, 17040, Note_on_c, 5, 67, 85
7, 17069, Note_on_c, 5, 67, 0
7, 17070, Note_on_c, 5, 70, 85
7, 17099, Note_on_c, 5, 70, 0
7, 17100, Note_on_c, 5, 74, 85
7, 17129, Note_on_c, 5, 74, 0
7, 17130, Note_on_c, 5, 79, 85
7, 17159, Note_on_c, 5, 79, 0
7, 17160, Note_on_c, 5, 82, 85
7, 17189, Note_on_c, 5, 82, 0
7, 17190, Note_on_c, 5, 79, 85
7, 17219, Note_on_c, 5, 79, 0
7, 17220, Note_on_c, 5, 74, 85
7, 17249, Note_on_c, 5, 74, 0
7, 17250, Note_on_c, 5, 70, 85
7, 17279, Note_on_c, 5, 70, 0
7, 17280, Note_on_c, 5, 67, 85
7, 17309, Note_on_c, 5, 67, 0
7, 17310, Note_on_c, 5, 69, 85
7, 17339, Note_on_c, 5, 69, 0
7, 17340, Note_on_c, 5, 72, 85
7, 17369, Note_on_c, 5, 72, 0
7, 17370, Note_on_c, 5, 75, 85
7, 17399, Note_on_c, 5, 75, 0
7, 17400, Note_on_c, 5, 81, 85
7, 17429, Note_on_c, 5, 81, 0
7, 17430, Note_on_c, 5, 75, 85
7, 17459, Note_on_c, 5, 75, 0
7, 17460, Note_on_c, 5, 72, 85
7, 17489, Note_on_c, 5, 72, 0
7, 17490, Note_on_c, 5, 67, 85
7, 17519, Note_on_c, 5, 67, 0
7, 17520, Note_on_c, 5, 66, 85
7, 17549, Note_on_c, 5, 66, 0
7, 17550, Note_on_c, 5, 69, 85
7, 17579, Note_on_c, 5, 69, 0
7, 17580, Note_on_c, 5, 72, 85
7, 17609, Note_on_c, 5, 72, 0
7, 17610, Note_on_c, 5, 74, 85
7, 17639, Note_on_c, 5, 74, 0
7, 17640, Note_on_c, 5, 81, 85
7, 17700, Note_on_c, 5, 81, 0
7, 19590, Note_on_c, 5, 60, 85
7, 19620, Note_on_c, 5, 60, 0
7, 19620, Note_on_c, 5, 58, 85
7, 19650, Note_on_c, 5, 58, 0
7, 19650, Note_on_c, 5, 57, 85
7, 19680, Note_on_c, 5, 57, 0
7, 19680, Note_on_c, 5, 58, 85
7, 19710, Note_on_c, 5, 58, 0
7, 19740, Note_on_c, 5, 74, 85
7, 19770, Note_on_c, 5, 74, 0
7, 19800, Note_on_c, 5, 57, 85
7, 19830, Note_on_c, 5, 57, 0
7, 19860, Note_on_c, 5, 72, 85
7, 19890, Note_on_c, 5, 72, 0
7, 19920, Note_on_c, 5, 55, 85
7, 19950, Note_on_c, 5, 55, 0
7, 19950, Note_on_c, 5, 72, 85
7, 19980, Note_on_c, 5, 72, 0
7, 19980, Note_on_c, 5, 70, 85
7, 20010, Note_on_c, 5, 70, 0
7, 20010, Note_on_c, 5, 69, 85
7, 20040, Note_on_c, 5, 69, 0
7, 20040, Note_on_c, 5, 67, 85
7, 20070, Note_on_c, 5, 67, 0
7, 20070, Note_on_c, 5, 65, 85
7, 20100, Note_on_c, 5, 65, 0
7, 20100, Note_on_c, 5, 63, 85
7, 20130, Note_on_c, 5, 63, 0
7, 20130, Note_on_c, 5, 62, 85
7, 20160, Note_on_c, 5, 62, 0
7, 20160, Note_on_c, 5, 63, 85
7, 20190, Note_on_c, 5, 63, 0
7, 20220, Note_on_c, 5, 79, 85
7, 20250, Note_on_c, 5, 79, 0
7, 20280, Note_on_c, 5, 62, 85
7, 20310, Note_on_c, 5, 62, 0
7, 20340, Note_on_c, 5, 77, 85
7, 20370, Note_on_c, 5, 77, 0
7, 20400, Note_on_c, 5, 60, 85
7, 20430, Note_on_c, 5, 60, 0
7, 20430, Note_on_c, 5, 77, 85
7, 20460, Note_on_c, 5, 77, 0
7, 20460, Note_on_c, 5, 75, 85
7, 20490, Note_on_c, 5, 75, 0
7, 20490, Note_on_c, 5, 74, 85
7, 20520, Note_on_c, 5, 74, 0
7, 20520, Note_on_c, 5, 72, 85
7, 20550, Note_on_c, 5, 72, 0
7, 20550, Note_on_c, 5, 70, 85
7, 20580, Note_on_c, 5, 70, 0
7, 20580, Note_on_c, 5, 69, 85
7, 20610, Note_on_c, 5, 69, 0
7, 20610, Note_on_c, 5, 67, 85
7, 20640, Note_on_c, 5, 67, 0
7, 20640, Note_on_c, 5, 69, 85
7, 20670, Note_on_c, 5, 69, 0
7, 20670, Note_on_c, 5, 75, 85
7, 20700, Note_on_c, 5, 75, 0
7, 20700, Note_on_c, 5, 74, 85
7, 20730, Note_on_c, 5, 74, 0
7, 20730, Note_on_c, 5, 72, 85
7, 20760, Note_on_c, 5, 72, 0
7, 20760, Note_on_c, 5, 74, 85
7, 20790, Note_on_c, 5, 74, 0
7, 20790, Note_on_c, 5, 69, 85
7, 20820, Note_on_c, 5, 69, 0
7, 20820, Note_on_c, 5, 67, 85
7, 20850, Note_on_c, 5, 67, 0
7, 20850, Note_on_c, 5, 66, 85
7, 20880, Note_on_c, 5, 66, 0
7, 20880, Note_on_c, 5, 67, 85
7, 20910, Note_on_c, 5, 67, 0
7, 20910, Note_on_c, 5, 74, 85
7, 20940, Note_on_c, 5, 74, 0
7, 20940, Note_on_c, 5, 72, 85
7, 20970, Note_on_c, 5, 72, 0
7, 20970, Note_on_c, 5, 70, 85
7, 21000, Note_on_c, 5, 70, 0
7, 21000, Note_on_c, 5, 72, 85
7, 21030, Note_on_c, 5, 72, 0
7, 21030, Note_on_c, 5, 67, 85
7, 21060, Note_on_c, 5, 67, 0
7, 21060, Note_on_c, 5, 66, 85
7, 21090, Note_on_c, 5, 66, 0
7, 21090, Note_on_c, 5, 64, 85
7, 21120, Note_on_c, 5, 64, 0
7, 21120, Note_on_c, 5, 66, 85
7, 21150, Note_on_c, 5, 66, 0
7, 21150, Note_on_c, 5, 72, 85
7, 21180, Note_on_c, 5, 72, 0
7, 21180, Note_on_c, 5, 70, 85
7, 21210, Note_on_c, 5, 70, 0
7, 21210, Note_on_c, 5, 69, 85
7, 21240, Note_on_c, 5, 69, 0
7, 21240, Note_on_c, 5, 70, 85
7, 21270, Note_on_c, 5, 70, 0
7, 21270, Note_on_c, 5, 69, 85
7, 21300, Note_on_c, 5, 69, 0
7, 21300, Note_on_c, 5, 67, 85
7, 21330, Note_on_c, 5, 67, 0
7, 21330, Note_on_c, 5, 70, 85
7, 21360, Note_on_c, 5, 70, 0
7, 21360, Note_on_c, 5, 69, 85
7, 21390, Note_on_c, 5, 69, 0
7, 21390, Note_on_c, 5, 67, 85
7, 21420, Note_on_c, 5, 67, 0
7, 21420, Note_on_c, 5, 66, 85
7, 21450, Note_on_c, 5, 66, 0
7, 21450, Note_on_c, 5, 64, 85
7, 21480, Note_on_c, 5, 64, 0
7, 21480, Note_on_c, 5, 62, 85
7, 21540, Note_on_c, 5, 62, 0
7, 21600, Note_on_c, 5, 67, 85
7, 21630, Note_on_c, 5, 67, 0
7, 21630, Note_on_c, 5, 69, 85
7, 21660, Note_on_c, 5, 69, 0
7, 21660, Note_on_c, 5, 70, 85
7, 21690, Note_on_c, 5, 70, 0
7, 21690, Note_on_c, 5, 72, 85
7, 21720, Note_on_c, 5, 72, 0
7, 21720, Note_on_c, 5, 74, 85
7, 21780, Note_on_c, 5, 74, 0
7, 21780, Note_on_c, 5, 79, 85
7, 21840, Note_on_c, 5, 79, 0
7, 21840, Note_on_c, 5, 78, 85
7, 21900, Note_on_c, 5, 78, 0
7, 21900, Note_on_c, 5, 74, 85
7, 21960, Note_on_c, 5, 74, 0
7, 21960, Note_on_c, 5, 69, 85
7, 22020, Note_on_c, 5, 69, 0
7, 22020, Note_on_c, 5, 72, 85
7, 22080, Note_on_c, 5, 72, 0
7, 22080, Note_on_c, 5, 71, 85
7, 22140, Note_on_c, 5, 71, 0
7, 22140, Note_on_c, 5, 67, 85
7, 22200, Note_on_c, 5, 67, 0
7, 22200, Note_on_c, 5, 77, 85
7, 22380, Note_on_c, 5, 77, 0
7, 22380, Note_on_c, 5, 76, 85
7, 22410, Note_on_c, 5, 76, 0
7, 22410, Note_on_c, 5, 74, 85
7, 22440, Note_on_c, 5, 74, 0
7, 22440, Note_on_c, 5, 76, 85
7, 22500, Note_on_c, 5, 76, 0
7, 22500, Note_on_c, 5, 72, 85
7, 22560, Note_on_c, 5, 72, 0
7, 22560, Note_on_c, 5, 69, 85
7, 22620, Note_on_c, 5, 69, 0
7, 22620, Note_on_c, 5, 72, 85
7, 22680, Note_on_c, 5, 72, 0
7, 22680, Note_on_c, 5, 75, 85
7, 22740, Note_on_c, 5, 75, 0
7, 22740, Note_on_c, 5, 67, 85
7, 22800, Note_on_c, 5, 67, 0
7, 22800, Note_on_c, 5, 66, 85
7, 22860, Note_on_c, 5, 66, 0
7, 22860, Note_on_c, 5, 74, 85
7, 22920, Note_on_c, 5, 74, 0
7, 22920, Note_on_c, 5, 67, 85
7, 22980, Note_on_c, 5, 67, 0
7, 22980, Note_on_c, 5, 72, 85
7, 23040, Note_on_c, 5, 72, 0
7, 23040, Note_on_c, 5, 70, 85
7, 23160, Note_on_c, 5, 70, 0
7, 23160, Note_on_c, 5, 69, 85
7, 23175, Note_on_c, 5, 69, 0
7, 23175, Note_on_c, 5, 70, 85
7, 23190, Note_on_c, 5, 70, 0
7, 23190, Note_on_c, 5, 69, 85
7, 23205, Note_on_c, 5, 69, 0
7, 23205, Note_on_c, 5, 70, 85
7, 23220, Note_on_c, 5, 70, 0
7, 23220, Note_on_c, 5, 69, 85
7, 23240, Note_on_c, 5, 69, 0
7, 23240, Note_on_c, 5, 70, 85
7, 23260, Note_on_c, 5, 70, 0
7, 23260, Note_on_c, 5, 69, 85
7, 23280, Note_on_c, 5, 69, 0
7, 23280, Note_on_c, 5, 67, 85
7, 23400, Note_on_c, 5, 67, 0
7, 23430, Note_on_c, 5, 63, 85
7, 23460, Note_on_c, 5, 63, 0
7, 23460, Note_on_c, 5, 62, 85
7, 23490, Note_on_c, 5, 62, 0
7, 23490, Note_on_c, 5, 60, 85
7, 23520, Note_on_c, 5, 60, 0
7, 23520, Note_on_c, 5, 58, 85
7, 23550, Note_on_c, 5, 58, 0
7, 23580, Note_on_c, 5, 67, 85
7, 23610, Note_on_c, 5, 67, 0
7, 23640, Note_on_c, 5, 60, 85
7, 23670, Note_on_c, 5, 60, 0
7, 23700, Note_on_c, 5, 69, 85
7, 23730, Note_on_c, 5, 69, 0
7, 23760, Note_on_c, 5, 58, 85
7, 23790, Note_on_c, 5, 58, 0
7, 23820, Note_on_c, 5, 67, 85
7, 23850, Note_on_c, 5, 67, 0
7, 23880, Note_on_c, 5, 57, 85
7, 23910, Note_on_c, 5, 57, 0
7, 23940, Note_on_c, 5, 66, 85
7, 23970, Note_on_c, 5, 66, 0
7, 24000, Note_on_c, 5, 58, 85
7, 24030, Note_on_c, 5, 58, 0
7, 24060, Note_on_c, 5, 67, 85
7, 24090, Note_on_c, 5, 67, 0
7, 24120, Note_on_c, 5, 62, 85
7, 24150, Note_on_c, 5, 62, 0
7, 24180, Note_on_c, 5, 69, 85
7, 24210, Note_on_c, 5, 69, 0
7, 24240, Note_on_c, 5, 70, 85
7, 24270, Note_on_c, 5, 70, 0
7, 24300, Note_on_c, 5, 67, 85
7, 24330, Note_on_c, 5, 67, 0
7, 24390, Note_on_c, 5, 74, 85
7, 24390, Note_on_c, 5, 77, 85
7, 24420, Note_on_c, 5, 77, 0
7, 24420, Note_on_c, 5, 74, 0
7, 24420, Note_on_c, 5, 72, 85
7, 24420, Note_on_c, 5, 75, 85
7, 24450, Note_on_c, 5, 75, 0
7, 24450, Note_on_c, 5, 72, 0
7, 24450, Note_on_c, 5, 71, 85
7, 24450, Note_on_c, 5, 74, 85
7, 24480, Note_on_c, 5, 74, 0
7, 24480, Note_on_c, 5, 71, 0
7, 24480, Note_on_c, 5, 72, 85
7, 24510, Note_on_c, 5, 72, 0
7, 24510, Note_on_c, 5, 75, 85
7, 24540, Note_on_c, 5, 75, 0
7, 24540, Note_on_c, 5, 79, 85
7, 24570, Note_on_c, 5, 79, 0
7, 24570, Note_on_c, 5, 84, 85
7, 24600, Note_on_c, 5, 84, 0
7, 24600, Note_on_c, 5, 74, 85
7, 24630, Note_on_c, 5, 74, 0
7, 24630, Note_on_c, 5, 77, 85
7, 24660, Note_on_c, 5, 77, 0
7, 24660, Note_on_c, 5, 79, 85
7, 24690, Note_on_c, 5, 79, 0
7, 24690, Note_on_c, 5, 83, 85
7, 24720, Note_on_c, 5, 83, 0
7, 24720, Note_on_c, 5, 84, 85
7, 24750, Note_on_c, 5, 84, 0
7, 24750, Note_on_c, 5, 79, 85
7, 24780, Note_on_c, 5, 79, 0
7, 24780, Note_on_c, 5, 75, 85
7, 24810, Note_on_c, 5, 75, 0
7, 24810, Note_on_c, 5, 72, 85
7, 24840, Note_on_c, 5, 72, 0
7, 24840, Note_on_c, 5, 71, 85
7, 24870, Note_on_c, 5, 71, 0
7, 24870, Note_on_c, 5, 74, 85
7, 24900, Note_on_c, 5, 74, 0
7, 24900, Note_on_c, 5, 77, 85
7, 24930, Note_on_c, 5, 77, 0
7, 24930, Note_on_c, 5, 79, 85
7, 24960, Note_on_c, 5, 79, 0
7, 24960, Note_on_c, 5, 72, 85
7, 24990, Note_on_c, 5, 72, 0
7, 24990, Note_on_c, 5, 75, 85
7, 25020, Note_on_c, 5, 75, 0
7, 25020, Note_on_c, 5, 79, 85
7, 25050, Note_on_c, 5, 79, 0
7, 25050, Note_on_c, 5, 84, 85
7, 25080, Note_on_c, 5, 84, 0
7, 25080, Note_on_c, 5, 74, 85
7, 25110, Note_on_c, 5, 74, 0
7, 25110, Note_on_c, 5, 77, 85
7, 25140, Note_on_c, 5, 77, 0
7, 25140, Note_on_c, 5, 79, 85
7, 25170, Note_on_c, 5, 79, 0
7, 25170, Note_on_c, 5, 83, 85
7, 25200, Note_on_c, 5, 83, 0
7, 25200, Note_on_c, 5, 84, 85
7, 25230, Note_on_c, 5, 84, 0
7, 25230, Note_on_c, 5, 79, 85
7, 25260, Note_on_c, 5, 79, 0
7, 25260, Note_on_c, 5, 75, 85
7, 25290, Note_on_c, 5, 75, 0
7, 25290, Note_on_c, 5, 72, 85
7, 25320, Note_on_c, 5, 72, 0
7, 25320, Note_on_c, 5, 60, 85
7, 25350, Note_on_c, 5, 60, 0
7, 25350, Note_on_c, 5, 62, 85
7, 25380, Note_on_c, 5, 62, 0
7, 25380, Note_on_c, 5, 63, 85
7, 25410, Note_on_c, 5, 63, 0
7, 25410, Note_on_c, 5, 60, 85
7, 25440, Note_on_c, 5, 60, 0
7, 25440, Note_on_c, 5, 62, 85
7, 25470, Note_on_c, 5, 62, 0
7, 25470, Note_on_c, 5, 60, 85
7, 25500, Note_on_c, 5, 60, 0
7, 25500, Note_on_c, 5, 62, 85
7, 25530, Note_on_c, 5, 62, 0
7, 25530, Note_on_c, 5, 63, 85
7, 25560, Note_on_c, 5, 63, 0
7, 25560, Note_on_c, 5, 62, 85
7, 25590, Note_on_c, 5, 62, 0
7, 25590, Note_on_c, 5, 64, 85
7, 25620, Note_on_c, 5, 64, 0
7, 25620, Note_on_c, 5, 65, 85
7, 25650, Note_on_c, 5, 65, 0
7, 25650, Note_on_c, 5, 62, 85
7, 25680, Note_on_c, 5, 62, 0
7, 25680, Note_on_c, 5, 64, 85
7, 25710, Note_on_c, 5, 64, 0
7, 25710, Note_on_c, 5, 62, 85
7, 25740, Note_on_c, 5, 62, 0
7, 25740, Note_on_c, 5, 64, 85
7, 25770, Note_on_c, 5, 64, 0
7, 25770, Note_on_c, 5, 65, 85
7, 25800, Note_on_c, 5, 65, 0
7, 25800, Note_on_c, 5, 64, 85
7, 25830, Note_on_c, 5, 64, 0
7, 25830, Note_on_c, 5, 65, 85
7, 25860, Note_on_c, 5, 65, 0
7, 25860, Note_on_c, 5, 67, 85
7, 25890, Note_on_c, 5, 67, 0
7, 25890, Note_on_c, 5, 64, 85
7, 25920, Note_on_c, 5, 64, 0
7, 25920, Note_on_c, 5, 65, 85
7, 25979, Note_on_c, 5, 65, 0
7, 25980, Note_on_c, 5, 72, 85
7, 26039, Note_on_c, 5, 72, 0
7, 26100, Note_on_c, 5, 80, 85
7, 26159, Note_on_c, 5, 80, 0
7, 26160, Note_on_c, 5, 79, 85
7, 26189, Note_on_c, 5, 79, 0
7, 26190, Note_on_c, 5, 77, 85
7, 26219, Note_on_c, 5, 77, 0
7, 26220, Note_on_c, 5, 76, 85
7, 26249, Note_on_c, 5, 76, 0
7, 26250, Note_on_c, 5, 74, 85
7, 26279, Note_on_c, 5, 74, 0
7, 26280, Note_on_c, 5, 76, 85
7, 26309, Note_on_c, 5, 76, 0
7, 26310, Note_on_c, 5, 72, 85
7, 26339, Note_on_c, 5, 72, 0
7, 26340, Note_on_c, 5, 74, 85
7, 26369, Note_on_c, 5, 74, 0
7, 26370, Note_on_c, 5, 76, 85
7, 26399, Note_on_c, 5, 76, 0
7, 26400, Note_on_c, 5, 77, 85
7, 26459, Note_on_c, 5, 77, 0
7, 26460, Note_on_c, 5, 72, 85
7, 26519, Note_on_c, 5, 72, 0
7, 26520, Note_on_c, 5, 77, 85
7, 26549, Note_on_c, 5, 77, 0
7, 26550, Note_on_c, 5, 81, 85
7, 26579, Note_on_c, 5, 81, 0
7, 26580, Note_on_c, 5, 82, 85
7, 26609, Note_on_c, 5, 82, 0
7, 26610, Note_on_c, 5, 84, 85
7, 26639, Note_on_c, 5, 84, 0
7, 26640, Note_on_c, 5, 77, 85
7, 26669, Note_on_c, 5, 77, 0
7, 26670, Note_on_c, 5, 75, 85
7, 26699, Note_on_c, 5, 75, 0
7, 26700, Note_on_c, 5, 77, 85
7, 26729, Note_on_c, 5, 77, 0
7, 26730, Note_on_c, 5, 79, 85
7, 26759, Note_on_c, 5, 79, 0
7, 26760, Note_on_c, 5, 77, 85
7, 26789, Note_on_c, 5, 77, 0
7, 26790, Note_on_c, 5, 80, 85
7, 26819, Note_on_c, 5, 80, 0
7, 26820, Note_on_c, 5, 79, 85
7, 26849, Note_on_c, 5, 79, 0
7, 26850, Note_on_c, 5, 77, 85
7, 26879, Note_on_c, 5, 77, 0
7, 26880, Note_on_c, 5, 79, 85
7, 26939, Note_on_c, 5, 79, 0
7, 26940, Note_on_c, 5, 67, 85
7, 26999, Note_on_c, 5, 67, 0
7, 27000, Note_on_c, 5, 79, 85
7, 27150, Note_on_c, 5, 79, 0
7, 27150, Note_on_c, 5, 77, 85
7, 27179, Note_on_c, 5, 77, 0
7, 27180, Note_on_c, 5, 76, 85
7, 27209, Note_on_c, 5, 76, 0
7, 27210, Note_on_c, 5, 74, 85
7, 27239, Note_on_c, 5, 74, 0
7, 27240, Note_on_c, 5, 72, 85
7, 27269, Note_on_c, 5, 72, 0
7, 27270, Note_on_c, 5, 70, 85
7, 27299, Note_on_c, 5, 70, 0
7, 27300, Note_on_c, 5, 68, 85
7, 27329, Note_on_c, 5, 68, 0
7, 27330, Note_on_c, 5, 67, 85
7, 27359, Note_on_c, 5, 67, 0
7, 27360, Note_on_c, 5, 68, 85
7, 27449, Note_on_c, 5, 68, 0
7, 27450, Note_on_c, 5, 70, 85
7, 27479, Note_on_c, 5, 70, 0
7, 27480, Note_on_c, 5, 67, 85
7, 27569, Note_on_c, 5, 67, 0
7, 27570, Note_on_c, 5, 65, 85
7, 27599, Note_on_c, 5, 65, 0
7, 27600, Note_on_c, 5, 65, 85
7, 27629, Note_on_c, 5, 65, 0
7, 27630, Note_on_c, 5, 77, 85
7, 27659, Note_on_c, 5, 77, 0
7, 27660, Note_on_c, 5, 76, 85
7, 27689, Note_on_c, 5, 76, 0
7, 27690, Note_on_c, 5, 74, 85
7, 27719, Note_on_c, 5, 74, 0
7, 27720, Note_on_c, 5, 72, 85
7, 27749, Note_on_c, 5, 72, 0
7, 27750, Note_on_c, 5, 67, 85
7, 27750, Note_on_c, 5, 70, 85
7, 27779, Note_on_c, 5, 70, 0
7, 27779, Note_on_c, 5, 67, 0
7, 27780, Note_on_c, 5, 65, 85
7, 27780, Note_on_c, 5, 68, 85
7, 27809, Note_on_c, 5, 68, 0
7, 27809, Note_on_c, 5, 65, 0
7, 27810, Note_on_c, 5, 64, 85
7, 27810, Note_on_c, 5, 67, 85
7, 27839, Note_on_c, 5, 67, 0
7, 27839, Note_on_c, 5, 64, 0
7, 27840, Note_on_c, 5, 65, 85
7, 27869, Note_on_c, 5, 65, 0
7, 27870, Note_on_c, 5, 68, 85
7, 27899, Note_on_c, 5, 68, 0
7, 27900, Note_on_c, 5, 72, 85
7, 27929, Note_on_c, 5, 72, 0
7, 27930, Note_on_c, 5, 77, 85
7, 27959, Note_on_c, 5, 77, 0
7, 27960, Note_on_c, 5, 67, 85
7, 27989, Note_on_c, 5, 67, 0
7, 27990, Note_on_c, 5, 70, 85
7, 28019, Note_on_c, 5, 70, 0
7, 28020, Note_on_c, 5, 72, 85
7, 28049, Note_on_c, 5, 72, 0
7, 28050, Note_on_c, 5, 76, 85
7, 28079, Note_on_c, 5, 76, 0
7, 28080, Note_on_c, 5, 77, 85
7, 28109, Note_on_c, 5, 77, 0
7, 28110, Note_on_c, 5, 72, 85
7, 28139, Note_on_c, 5, 72, 0
7, 28140, Note_on_c, 5, 68, 85
7, 28169, Note_on_c, 5, 68, 0
7, 28170, Note_on_c, 5, 65, 85
7, 28199, Note_on_c, 5, 65, 0
7, 28200, Note_on_c, 5, 64, 85
7, 28229, Note_on_c, 5, 64, 0
7, 28230, Note_on_c, 5, 67, 85
7, 28259, Note_on_c, 5, 67, 0
7, 28260, Note_on_c, 5, 70, 85
7, 28289, Note_on_c, 5, 70, 0
7, 28290, Note_on_c, 5, 72, 85
7, 28319, Note_on_c, 5, 72, 0
7, 28320, Note_on_c, 5, 65, 85
7, 28349, Note_on_c, 5, 65, 0
7, 28350, Note_on_c, 5, 68, 85
7, 28379, Note_on_c, 5, 68, 0
7, 28380, Note_on_c, 5, 72, 85
7, 28409, Note_on_c, 5, 72, 0
7, 28410, Note_on_c, 5, 77, 85
7, 28439, Note_on_c, 5, 77, 0
7, 28440, Note_on_c, 5, 67, 85
7, 28469, Note_on_c, 5, 67, 0
7, 28470, Note_on_c, 5, 70, 85
7, 28499, Note_on_c, 5, 70, 0
7, 28500, Note_on_c, 5, 72, 85
7, 28529, Note_on_c, 5, 72, 0
7, 28530, Note_on_c, 5, 76, 85
7, 28559, Note_on_c, 5, 76, 0
7, 28560, Note_on_c, 5, 77, 85
7, 28589, Note_on_c, 5, 77, 0
7, 28590, Note_on_c, 5, 72, 85
7, 28619, Note_on_c, 5, 72, 0
7, 28620, Note_on_c, 5, 68, 85
7, 28649, Note_on_c, 5, 68, 0
7, 28650, Note_on_c, 5, 65, 85
7, 28679, Note_on_c, 5, 65, 0
7, 28710, Note_on_c, 5, 66, 85
7, 28739, Note_on_c, 5, 66, 0
7, 28740, Note_on_c, 5, 65, 85
7, 28769, Note_on_c, 5, 65, 0
7, 28770, Note_on_c, 5, 63, 85
7, 28799, Note_on_c, 5, 63, 0
7, 28800, Note_on_c, 5, 61, 85
7, 28829, Note_on_c, 5, 61, 0
7, 28860, Note_on_c, 5, 70, 85
7, 28889, Note_on_c, 5, 70, 0
7, 28920, Note_on_c, 5, 63, 85
7, 28949, Note_on_c, 5, 63, 0
7, 28980, Note_on_c, 5, 72, 85
7, 29009, Note_on_c, 5, 72, 0
7, 29040, Note_on_c, 5, 61, 85
7, 29069, Note_on_c, 5, 61, 0
7, 29100, Note_on_c, 5, 70, 85
7, 29129, Note_on_c, 5, 70, 0
7, 29160, Note_on_c, 5, 60, 85
7, 29189, Note_on_c, 5, 60, 0
7, 29220, Note_on_c, 5, 69, 85
7, 29249, Note_on_c, 5, 69, 0
7, 29280, Note_on_c, 5, 61, 85
7, 29309, Note_on_c, 5, 61, 0
7, 29340, Note_on_c, 5, 70, 85
7, 29369, Note_on_c, 5, 70, 0
7, 29400, Note_on_c, 5, 65, 85
7, 29429, Note_on_c, 5, 65, 0
7, 29460, Note_on_c, 5, 72, 85
7, 29489, Note_on_c, 5, 72, 0
7, 29520, Note_on_c, 5, 73, 85
7, 29549, Note_on_c, 5, 73, 0
7, 29580, Note_on_c, 5, 70, 85
7, 29609, Note_on_c, 5, 70, 0
7, 29670, Note_on_c, 5, 65, 85
7, 29699, Note_on_c, 5, 65, 0
7, 29700, Note_on_c, 5, 63, 85
7, 29729, Note_on_c, 5, 63, 0
7, 29730, Note_on_c, 5, 65, 85
7, 29759, Note_on_c, 5, 65, 0
7, 29760, Note_on_c, 5, 67, 85
7, 29789, Note_on_c, 5, 67, 0
7, 29790, Note_on_c, 5, 65, 85
7, 29819, Note_on_c, 5, 65, 0
7, 29820, Note_on_c, 5, 67, 85
7, 29849, Note_on_c, 5, 67, 0
7, 29850, Note_on_c, 5, 68, 85
7, 29879, Note_on_c, 5, 68, 0
7, 29880, Note_on_c, 5, 67, 85
7, 29909, Note_on_c, 5, 67, 0
7, 29910, Note_on_c, 5, 68, 85
7, 29939, Note_on_c, 5, 68, 0
7, 29940, Note_on_c, 5, 70, 85
7, 29969, Note_on_c, 5, 70, 0
7, 29970, Note_on_c, 5, 67, 85
7, 29999, Note_on_c, 5, 67, 0
7, 30000, Note_on_c, 5, 68, 85
7, 30029, Note_on_c, 5, 68, 0
7, 30030, Note_on_c, 5, 67, 85
7, 30059, Note_on_c, 5, 67, 0
7, 30060, Note_on_c, 5, 68, 85
7, 30089, Note_on_c, 5, 68, 0
7, 30090, Note_on_c, 5, 70, 85
7, 30119, Note_on_c, 5, 70, 0
7, 30120, Note_on_c, 5, 72, 85
7, 30149, Note_on_c, 5, 72, 0
7, 30150, Note_on_c, 5, 70, 85
7, 30179, Note_on_c, 5, 70, 0
7, 30180, Note_on_c, 5, 72, 85
7, 30209, Note_on_c, 5, 72, 0
7, 30210, Note_on_c, 5, 74, 85
7, 30239, Note_on_c, 5, 74, 0
7, 30240, Note_on_c, 5, 76, 85
7, 30269, Note_on_c, 5, 76, 0
7, 30270, Note_on_c, 5, 74, 85
7, 30299, Note_on_c, 5, 74, 0
7, 30300, Note_on_c, 5, 76, 85
7, 30329, Note_on_c, 5, 76, 0
7, 30330, Note_on_c, 5, 77, 85
7, 30359, Note_on_c, 5, 77, 0
7, 30360, Note_on_c, 5, 76, 85
7, 30389, Note_on_c, 5, 76, 0
7, 30390, Note_on_c, 5, 77, 85
7, 30419, Note_on_c, 5, 77, 0
7, 30420, Note_on_c, 5, 79, 85
7, 30449, Note_on_c, 5, 79, 0
7, 30450, Note_on_c, 5, 76, 85
7, 30479, Note_on_c, 5, 76, 0
7, 30480, Note_on_c, 5, 77, 85
7, 30509, Note_on_c, 5, 77, 0
7, 30510, Note_on_c, 5, 70, 85
7, 30539, Note_on_c, 5, 70, 0
7, 30540, Note_on_c, 5, 68, 85
7, 30569, Note_on_c, 5, 68, 0
7, 30570, Note_on_c, 5, 67, 85
7, 30599, Note_on_c, 5, 67, 0
7, 30600, Note_on_c, 5, 68, 85
7, 30629, Note_on_c, 5, 68, 0
7, 30630, Note_on_c, 5, 72, 85
7, 30659, Note_on_c, 5, 72, 0
7, 30660, Note_on_c, 5, 77, 85
7, 30779, Note_on_c, 5, 77, 0
7, 30780, Note_on_c, 5, 67, 85
7, 30839, Note_on_c, 5, 67, 0
7, 30840, Note_on_c, 5, 77, 85
7, 31019, Note_on_c, 5, 77, 0
7, 31020, Note_on_c, 5, 67, 85
7, 31079, Note_on_c, 5, 67, 0
7, 31080, Note_on_c, 5, 60, 85
7, 31139, Note_on_c, 5, 60, 0
7, 31140, Note_on_c, 5, 75, 85
7, 31259, Note_on_c, 5, 75, 0
7, 31260, Note_on_c, 5, 63, 85
7, 31319, Note_on_c, 5, 63, 0
7, 31320, Note_on_c, 5, 73, 85
7, 31499, Note_on_c, 5, 73, 0
7, 31500, Note_on_c, 5, 63, 85
7, 31559, Note_on_c, 5, 63, 0
7, 31560, Note_on_c, 5, 56, 85
7, 31619, Note_on_c, 5, 56, 0
7, 31620, Note_on_c, 5, 72, 85
7, 31679, Note_on_c, 5, 72, 0
7, 31680, Note_on_c, 5, 62, 85
7, 31709, Note_on_c, 5, 62, 0
7, 31710, Note_on_c, 5, 63, 85
7, 31739, Note_on_c, 5, 63, 0
7, 31740, Note_on_c, 5, 65, 85
7, 31769, Note_on_c, 5, 65, 0
7, 31770, Note_on_c, 5, 68, 85
7, 31799, Note_on_c, 5, 68, 0
7, 31800, Note_on_c, 5, 71, 85
7, 31829, Note_on_c, 5, 71, 0
7, 31830, Note_on_c, 5, 80, 85
7, 31859, Note_on_c, 5, 80, 0
7, 31860, Note_on_c, 5, 79, 85
7, 31889, Note_on_c, 5, 79, 0
7, 31890, Note_on_c, 5, 77, 85
7, 31919, Note_on_c, 5, 77, 0
7, 31920, Note_on_c, 5, 63, 85
7, 31949, Note_on_c, 5, 63, 0
7, 31950, Note_on_c, 5, 65, 85
7, 31979, Note_on_c, 5, 65, 0
7, 31980, Note_on_c, 5, 67, 85
7, 32009, Note_on_c, 5, 67, 0
7, 32010, Note_on_c, 5, 71, 85
7, 32039, Note_on_c, 5, 71, 0
7, 32040, Note_on_c, 5, 72, 85
7, 32069, Note_on_c, 5, 72, 0
7, 32070, Note_on_c, 5, 79, 85
7, 32099, Note_on_c, 5, 79, 0
7, 32100, Note_on_c, 5, 77, 85
7, 32129, Note_on_c, 5, 77, 0
7, 32130, Note_on_c, 5, 75, 85
7, 32159, Note_on_c, 5, 75, 0
7, 32160, Note_on_c, 5, 65, 85
7, 32189, Note_on_c, 5, 65, 0
7, 32190, Note_on_c, 5, 67, 85
7, 32219, Note_on_c, 5, 67, 0
7, 32220, Note_on_c, 5, 71, 85
7, 32249, Note_on_c, 5, 71, 0
7, 32250, Note_on_c, 5, 72, 85
7, 32279, Note_on_c, 5, 72, 0
7, 32280, Note_on_c, 5, 74, 85
7, 32309, Note_on_c, 5, 74, 0
7, 32310, Note_on_c, 5, 77, 85
7, 32339, Note_on_c, 5, 77, 0
7, 32340, Note_on_c, 5, 75, 85
7, 32369, Note_on_c, 5, 75, 0
7, 32370, Note_on_c, 5, 74, 85
7, 32399, Note_on_c, 5, 74, 0
7, 32400, Note_on_c, 5, 67, 85
7, 32429, Note_on_c, 5, 67, 0
7, 32430, Note_on_c, 5, 71, 85
7, 32459, Note_on_c, 5, 71, 0
7, 32460, Note_on_c, 5, 72, 85
7, 32489, Note_on_c, 5, 72, 0
7, 32490, Note_on_c, 5, 74, 85
7, 32519, Note_on_c, 5, 74, 0
7, 32520, Note_on_c, 5, 75, 85
7, 32579, Note_on_c, 5, 75, 0
7, 32580, Note_on_c, 5, 72, 85
7, 32699, Note_on_c, 5, 72, 0
7, 32700, Note_on_c, 5, 77, 85
7, 32729, Note_on_c, 5, 77, 0
7, 32730, Note_on_c, 5, 79, 85
7, 32759, Note_on_c, 5, 79, 0
7, 32760, Note_on_c, 5, 80, 85
7, 32819, Note_on_c, 5, 80, 0
7, 32820, Note_on_c, 5, 65, 85
7, 32909, Note_on_c, 5, 65, 0
7, 32910, Note_on_c, 5, 63, 85
7, 32939, Note_on_c, 5, 63, 0
7, 32940, Note_on_c, 5, 62, 85
7, 32969, Note_on_c, 5, 62, 0
7, 32970, Note_on_c, 5, 60, 85
7, 32999, Note_on_c, 5, 60, 0
7, 33000, Note_on_c, 5, 58, 85
7, 33059, Note_on_c, 5, 58, 0
7, 33060, Note_on_c, 5, 70, 85
7, 33179, Note_on_c, 5, 70, 0
7, 33180, Note_on_c, 5, 75, 85
7, 33209, Note_on_c, 5, 75, 0
7, 33210, Note_on_c, 5, 77, 85
7, 33239, Note_on_c, 5, 77, 0
7, 33240, Note_on_c, 5, 79, 85
7, 33299, Note_on_c, 5, 79, 0
7, 33300, Note_on_c, 5, 63, 85
7, 33389, Note_on_c, 5, 63, 0
7, 33390, Note_on_c, 5, 61, 85
7, 33419, Note_on_c, 5, 61, 0
7, 33420, Note_on_c, 5, 60, 85
7, 33449, Note_on_c, 5, 60, 0
7, 33450, Note_on_c, 5, 58, 85
7, 33479, Note_on_c, 5, 58, 0
7, 33480, Note_on_c, 5, 56, 85
7, 33539, Note_on_c, 5, 56, 0
7, 33540, Note_on_c, 5, 68, 85
7, 33629, Note_on_c, 5, 68, 0
7, 33630, Note_on_c, 5, 70, 85
7, 33659, Note_on_c, 5, 70, 0
7, 33660, Note_on_c, 5, 68, 85
7, 33689, Note_on_c, 5, 68, 0
7, 33690, Note_on_c, 5, 67, 85
7, 33719, Note_on_c, 5, 67, 0
7, 33720, Note_on_c, 5, 65, 85
7, 33749, Note_on_c, 5, 65, 0
7, 33750, Note_on_c, 5, 63, 85
7, 33779, Note_on_c, 5, 63, 0
7, 33780, Note_on_c, 5, 62, 85
7, 33809, Note_on_c, 5, 62, 0
7, 33810, Note_on_c, 5, 60, 85
7, 33839, Note_on_c, 5, 60, 0
7, 33840, Note_on_c, 5, 58, 85
7, 33869, Note_on_c, 5, 58, 0
7, 33870, Note_on_c, 5, 72, 85
7, 33899, Note_on_c, 5, 72, 0
7, 33900, Note_on_c, 5, 70, 85
7, 33929, Note_on_c, 5, 70, 0
7, 33930, Note_on_c, 5, 68, 85
7, 33959, Note_on_c, 5, 68, 0
7, 33960, Note_on_c, 5, 67, 85
7, 33989, Note_on_c, 5, 67, 0
7, 33990, Note_on_c, 5, 65, 85
7, 34019, Note_on_c, 5, 65, 0
7, 34020, Note_on_c, 5, 64, 85
7, 34049, Note_on_c, 5, 64, 0
7, 34050, Note_on_c, 5, 62, 85
7, 34079, Note_on_c, 5, 62, 0
7, 34080, Note_on_c, 5, 60, 85
7, 34139, Note_on_c, 5, 60, 0
7, 34140, Note_on_c, 5, 73, 85
7, 34155, Note_on_c, 5, 73, 0
7, 34155, Note_on_c, 5, 72, 85
7, 34170, Note_on_c, 5, 72, 0
7, 34170, Note_on_c, 5, 70, 85
7, 34185, Note_on_c, 5, 70, 0
7, 34185, Note_on_c, 5, 72, 85
7, 34200, Note_on_c, 5, 72, 0
7, 34200, Note_on_c, 5, 73, 85
7, 34229, Note_on_c, 5, 73, 0
7, 34260, Note_on_c, 5, 68, 85
7, 34289, Note_on_c, 5, 68, 0
7, 34320, Note_on_c, 5, 70, 85
7, 34349, Note_on_c, 5, 70, 0
7, 34380, Note_on_c, 5, 75, 85
7, 34395, Note_on_c, 5, 75, 0
7, 34395, Note_on_c, 5, 73, 85
7, 34410, Note_on_c, 5, 73, 0
7, 34410, Note_on_c, 5, 72, 85
7, 34425, Note_on_c, 5, 72, 0
7, 34425, Note_on_c, 5, 73, 85
7, 34440, Note_on_c, 5, 73, 0
7, 34440, Note_on_c, 5, 75, 85
7, 34469, Note_on_c, 5, 75, 0
7, 34500, Note_on_c, 5, 70, 85
7, 34529, Note_on_c, 5, 70, 0
7, 34560, Note_on_c, 5, 72, 85
7, 34589, Note_on_c, 5, 72, 0
7, 34590, Note_on_c, 5, 75, 85
7, 34619, Note_on_c, 5, 75, 0
7, 34620, Note_on_c, 5, 77, 85
7, 34649, Note_on_c, 5, 77, 0
7, 34650, Note_on_c, 5, 79, 85
7, 34679, Note_on_c, 5, 79, 0
7, 34680, Note_on_c, 5, 80, 85
7, 34709, Note_on_c, 5, 80, 0
7, 34710, Note_on_c, 5, 82, 85
7, 34739, Note_on_c, 5, 82, 0
7, 34740, Note_on_c, 5, 84, 85
7, 34769, Note_on_c, 5, 84, 0
7, 34770, Note_on_c, 5, 80, 85
7, 34799, Note_on_c, 5, 80, 0
7, 34800, Note_on_c, 5, 74, 85
7, 34829, Note_on_c, 5, 74, 0
7, 34830, Note_on_c, 5, 80, 85
7, 34859, Note_on_c, 5, 80, 0
7, 34860, Note_on_c, 5, 84, 85
7, 34949, Note_on_c, 5, 84, 0
7, 34950, Note_on_c, 5, 80, 85
7, 34979, Note_on_c, 5, 80, 0
7, 34980, Note_on_c, 5, 77, 85
7, 35009, Note_on_c, 5, 77, 0
7, 35010, Note_on_c, 5, 74, 85
7, 35039, Note_on_c, 5, 74, 0
7, 35040, Note_on_c, 5, 83, 85
7, 35069, Note_on_c, 5, 83, 0
7, 35070, Note_on_c, 5, 74, 85
7, 35099, Note_on_c, 5, 74, 0
7, 35100, Note_on_c, 5, 75, 85
7, 35129, Note_on_c, 5, 75, 0
7, 35130, Note_on_c, 5, 77, 85
7, 35159, Note_on_c, 5, 77, 0
7, 35160, Note_on_c, 5, 79, 85
7, 35189, Note_on_c, 5, 79, 0
7, 35190, Note_on_c, 5, 80, 85
7, 35219, Note_on_c, 5, 80, 0
7, 35220, Note_on_c, 5, 82, 85
7, 35249, Note_on_c, 5, 82, 0
7, 35250, Note_on_c, 5, 79, 85
7, 35279, Note_on_c, 5, 79, 0
7, 35280, Note_on_c, 5, 72, 85
7, 35309, Note_on_c, 5, 72, 0
7, 35310, Note_on_c, 5, 79, 85
7, 35339, Note_on_c, 5, 79, 0
7, 35340, Note_on_c, 5, 82, 85
7, 35429, Note_on_c, 5, 82, 0
7, 35430, Note_on_c, 5, 79, 85
7, 35459, Note_on_c, 5, 79, 0
7, 35460, Note_on_c, 5, 76, 85
7, 35489, Note_on_c, 5, 76, 0
7, 35490, Note_on_c, 5, 72, 85
7, 35519, Note_on_c, 5, 72, 0
7, 35520, Note_on_c, 5, 80, 85
7, 35579, Note_on_c, 5, 80, 0
7, 35580, Note_on_c, 5, 77, 85
7, 35639, Note_on_c, 5, 77, 0
7, 35640, Note_on_c, 5, 72, 85
7, 35699, Note_on_c, 5, 72, 0
7, 35700, Note_on_c, 5, 84, 85
7, 35819, Note_on_c, 5, 84, 0
7, 35820, Note_on_c, 5, 79, 85
7, 35849, Note_on_c, 5, 79, 0
7, 35850, Note_on_c, 5, 75, 85
7, 35879, Note_on_c, 5, 75, 0
7, 35880, Note_on_c, 5, 72, 85
7, 36059, Note_on_c, 5, 72, 0
7, 36060, Note_on_c, 5, 68, 85
7, 36119, Note_on_c, 5, 68, 0
7, 36120, Note_on_c, 5, 65, 85
7, 36179, Note_on_c, 5, 65, 0
7, 36180, Note_on_c, 5, 77, 85
7, 36299, Note_on_c, 5, 77, 0
7, 36300, Note_on_c, 5, 74, 85
7, 36329, Note_on_c, 5, 74, 0
7, 36330, Note_on_c, 5, 71, 85
7, 36359, Note_on_c, 5, 71, 0
7, 36360, Note_on_c, 5, 67, 85
7, 36389, Note_on_c, 5, 67, 0
7, 36390, Note_on_c, 5, 65, 85
7, 36419, Note_on_c, 5, 65, 0
7, 36420, Note_on_c, 5, 63, 85
7, 36449, Note_on_c, 5, 63, 0
7, 36450, Note_on_c, 5, 62, 85
7, 36479, Note_on_c, 5, 62, 0
7, 36480, Note_on_c, 5, 63, 85
7, 36509, Note_on_c, 5, 63, 0
7, 36540, Note_on_c, 5, 79, 85
7, 36569, Note_on_c, 5, 79, 0
7, 36600, Note_on_c, 5, 62, 85
7, 36629, Note_on_c, 5, 62, 0
7, 36660, Note_on_c, 5, 77, 85
7, 36689, Note_on_c, 5, 77, 0
7, 36720, Note_on_c, 5, 60, 85
7, 36749, Note_on_c, 5, 60, 0
7, 36750, Note_on_c, 5, 77, 85
7, 36779, Note_on_c, 5, 77, 0
7, 36780, Note_on_c, 5, 75, 85
7, 36809, Note_on_c, 5, 75, 0
7, 36810, Note_on_c, 5, 74, 85
7, 36839, Note_on_c, 5, 74, 0
7, 36840, Note_on_c, 5, 72, 85
7, 36869, Note_on_c, 5, 72, 0
7, 36870, Note_on_c, 5, 70, 85
7, 36899, Note_on_c, 5, 70, 0
7, 36900, Note_on_c, 5, 68, 85
7, 36929, Note_on_c, 5, 68, 0
7, 36930, Note_on_c, 5, 67, 85
7, 36959, Note_on_c, 5, 67, 0
7, 36960, Note_on_c, 5, 68, 85
7, 36989, Note_on_c, 5, 68, 0
7, 37020, Note_on_c, 5, 84, 85
7, 37049, Note_on_c, 5, 84, 0
7, 37080, Note_on_c, 5, 67, 85
7, 37109, Note_on_c, 5, 67, 0
7, 37140, Note_on_c, 5, 82, 85
7, 37169, Note_on_c, 5, 82, 0
7, 37200, Note_on_c, 5, 65, 85
7, 37229, Note_on_c, 5, 65, 0
7, 37230, Note_on_c, 5, 82, 85
7, 37259, Note_on_c, 5, 82, 0
7, 37260, Note_on_c, 5, 80, 85
7, 37289, Note_on_c, 5, 80, 0
7, 37290, Note_on_c, 5, 79, 85
7, 37319, Note_on_c, 5, 79, 0
7, 37320, Note_on_c, 5, 77, 85
7, 37349, Note_on_c, 5, 77, 0
7, 37350, Note_on_c, 5, 75, 85
7, 37379, Note_on_c, 5, 75, 0
7, 37380, Note_on_c, 5, 74, 85
7, 37409, Note_on_c, 5, 74, 0
7, 37410, Note_on_c, 5, 72, 85
7, 37439, Note_on_c, 5, 72, 0
7, 37440, Note_on_c, 5, 74, 85
7, 37469, Note_on_c, 5, 74, 0
7, 37470, Note_on_c, 5, 80, 85
7, 37499, Note_on_c, 5, 80, 0
7, 37500, Note_on_c, 5, 79, 85
7, 37529, Note_on_c, 5, 79, 0
7, 37530, Note_on_c, 5, 77, 85
7, 37559, Note_on_c, 5, 77, 0
7, 37560, Note_on_c, 5, 79, 85
7, 37589, Note_on_c, 5, 79, 0
7, 37590, Note_on_c, 5, 74, 85
7, 37619, Note_on_c, 5, 74, 0
7, 37620, Note_on_c, 5, 72, 85
7, 37649, Note_on_c, 5, 72, 0
7, 37650, Note_on_c, 5, 71, 85
7, 37679, Note_on_c, 5, 71, 0
7, 37680, Note_on_c, 5, 72, 85
7, 37709, Note_on_c, 5, 72, 0
7, 37710, Note_on_c, 5, 79, 85
7, 37739, Note_on_c, 5, 79, 0
7, 37740, Note_on_c, 5, 77, 85
7, 37769, Note_on_c, 5, 77, 0
7, 37770, Note_on_c, 5, 75, 85
7, 37799, Note_on_c, 5, 75, 0
7, 37800, Note_on_c, 5, 77, 85
7, 37829, Note_on_c, 5, 77, 0
7, 37830, Note_on_c, 5, 72, 85
7, 37859, Note_on_c, 5, 72, 0
7, 37860, Note_on_c, 5, 71, 85
7, 37889, Note_on_c, 5, 71, 0
7, 37890, Note_on_c, 5, 69, 85
7, 37919, Note_on_c, 5, 69, 0
7, 37920, Note_on_c, 5, 71, 85
7, 37949, Note_on_c, 5, 71, 0
7, 37950, Note_on_c, 5, 77, 85
7, 37979, Note_on_c, 5, 77, 0
7, 37980, Note_on_c, 5, 75, 85
7, 38009, Note_on_c, 5, 75, 0
7, 38010, Note_on_c, 5, 74, 85
7, 38039, Note_on_c, 5, 74, 0
7, 38040, Note_on_c, 5, 75, 85
7, 38069, Note_on_c, 5, 75, 0
7, 38070, Note_on_c, 5, 74, 85
7, 38099, Note_on_c, 5, 74, 0
7, 38100, Note_on_c, 5, 72, 85
7, 38129, Note_on_c, 5, 72, 0
7, 38130, Note_on_c, 5, 75, 85
7, 38159, Note_on_c, 5, 75, 0
7, 38160, Note_on_c, 5, 74, 85
7, 38189, Note_on_c, 5, 74, 0
7, 38190, Note_on_c, 5, 72, 85
7, 38219, Note_on_c, 5, 72, 0
7, 38220, Note_on_c, 5, 71, 85
7, 38249, Note_on_c, 5, 71, 0
7, 38250, Note_on_c, 5, 69, 85
7, 38279, Note_on_c, 5, 69, 0
7, 38280, Note_on_c, 5, 67, 85
7, 38430, Note_on_c, 5, 67, 0
7, 38430, Note_on_c, 5, 63, 85
7, 38459, Note_on_c, 5, 63, 0
7, 38460, Note_on_c, 5, 60, 85
7, 38489, Note_on_c, 5, 60, 0
7, 38490, Note_on_c, 5, 63, 85
7, 38519, Note_on_c, 5, 63, 0
7, 38520, Note_on_c, 5, 65, 85
7, 38549, Note_on_c, 5, 65, 0
7, 38550, Note_on_c, 5, 62, 85
7, 38579, Note_on_c, 5, 62, 0
7, 38580, Note_on_c, 5, 59, 85
7, 38609, Note_on_c, 5, 59, 0
7, 38610, Note_on_c, 5, 62, 85
7, 38639, Note_on_c, 5, 62, 0
7, 38640, Note_on_c, 5, 63, 85
7, 38699, Note_on_c, 5, 63, 0
7, 38700, Note_on_c, 5, 60, 85
7, 38759, Note_on_c, 5, 60, 0
7, 38760, Note_on_c, 5, 72, 85
7, 38910, Note_on_c, 5, 72, 0
7, 38910, Note_on_c, 5, 68, 85
7, 38939, Note_on_c, 5, 68, 0
7, 38940, Note_on_c, 5, 65, 85
7, 38969, Note_on_c, 5, 65, 0
7, 38970, Note_on_c, 5, 68, 85
7, 38999, Note_on_c, 5, 68, 0
7, 39000, Note_on_c, 5, 70, 85
7, 39029, Note_on_c, 5, 70, 0
7, 39030, Note_on_c, 5, 67, 85
7, 39059, Note_on_c, 5, 67, 0
7, 39060, Note_on_c, 5, 64, 85
7, 39089, Note_on_c, 5, 64, 0
7, 39090, Note_on_c, 5, 67, 85
7, 39119, Note_on_c, 5, 67, 0
7, 39120, Note_on_c, 5, 68, 85
7, 39179, Note_on_c, 5, 68, 0
7, 39180, Note_on_c, 5, 65, 85
7, 39239, Note_on_c, 5, 65, 0
7, 39240, Note_on_c, 5, 80, 85
7, 39390, Note_on_c, 5, 80, 0
7, 39390, Note_on_c, 5, 65, 85
7, 39419, Note_on_c, 5, 65, 0
7, 39420, Note_on_c, 5, 63, 85
7, 39449, Note_on_c, 5, 63, 0
7, 39450, Note_on_c, 5, 62, 85
7, 39479, Note_on_c, 5, 62, 0
7, 39480, Note_on_c, 5, 63, 85
7, 39539, Note_on_c, 5, 63, 0
7, 39540, Note_on_c, 5, 79, 85
7, 39629, Note_on_c, 5, 79, 0
7, 39630, Note_on_c, 5, 63, 85
7, 39659, Note_on_c, 5, 63, 0
7, 39660, Note_on_c, 5, 62, 85
7, 39689, Note_on_c, 5, 62, 0
7, 39690, Note_on_c, 5, 60, 85
7, 39719, Note_on_c, 5, 60, 0
7, 39720, Note_on_c, 5, 62, 85
7, 39779, Note_on_c, 5, 62, 0
7, 39780, Note_on_c, 5, 77, 85
7, 39869, Note_on_c, 5, 77, 0
7, 39870, Note_on_c, 5, 62, 85
7, 39899, Note_on_c, 5, 62, 0
7, 39900, Note_on_c, 5, 60, 85
7, 39929, Note_on_c, 5, 60, 0
7, 39930, Note_on_c, 5, 59, 85
7, 39959, Note_on_c, 5, 59, 0
7, 39960, Note_on_c, 5, 60, 85
7, 40019, Note_on_c, 5, 60, 0
7, 40020, Note_on_c, 5, 72, 85
7, 40109, Note_on_c, 5, 72, 0
7, 40110, Note_on_c, 5, 75, 85
7, 40139, Note_on_c, 5, 75, 0
7, 40140, Note_on_c, 5, 74, 85
7, 40169, Note_on_c, 5, 74, 0
7, 40170, Note_on_c, 5, 72, 85
7, 40199, Note_on_c, 5, 72, 0
7, 40200, Note_on_c, 5, 74, 85
7, 40229, Note_on_c, 5, 74, 0
7, 40230, Note_on_c, 5, 77, 85
7, 40259, Note_on_c, 5, 77, 0
7, 40260, Note_on_c, 5, 75, 85
7, 40289, Note_on_c, 5, 75, 0
7, 40290, Note_on_c, 5, 74, 85
7, 40319, Note_on_c, 5, 74, 0
7, 40320, Note_on_c, 5, 75, 85
7, 40349, Note_on_c, 5, 75, 0
7, 40350, Note_on_c, 5, 77, 85
7, 40379, Note_on_c, 5, 77, 0
7, 40380, Note_on_c, 5, 75, 85
7, 40409, Note_on_c, 5, 75, 0
7, 40410, Note_on_c, 5, 74, 85
7, 40439, Note_on_c, 5, 74, 0
7, 40440, Note_on_c, 5, 72, 85
7, 40499, Note_on_c, 5, 72, 0
7, 40500, Note_on_c, 5, 84, 85
7, 40559, Note_on_c, 5, 84, 0
7, 40560, Note_on_c, 5, 83, 85
7, 40619, Note_on_c, 5, 83, 0
7, 40620, Note_on_c, 5, 79, 85
7, 40679, Note_on_c, 5, 79, 0
7, 40680, Note_on_c, 5, 74, 85
7, 40739, Note_on_c, 5, 74, 0
7, 40740, Note_on_c, 5, 77, 85
7, 40799, Note_on_c, 5, 77, 0
7, 40800, Note_on_c, 5, 76, 85
7, 40859, Note_on_c, 5, 76, 0
7, 40860, Note_on_c, 5, 72, 85
7, 40919, Note_on_c, 5, 72, 0
7, 40920, Note_on_c, 5, 82, 85
7, 41099, Note_on_c, 5, 82, 0
7, 41100, Note_on_c, 5, 81, 85
7, 41129, Note_on_c, 5, 81, 0
7, 41130, Note_on_c, 5, 79, 85
7, 41159, Note_on_c, 5, 79, 0
7, 41160, Note_on_c, 5, 81, 85
7, 41219, Note_on_c, 5, 81, 0
7, 41220, Note_on_c, 5, 77, 85
7, 41279, Note_on_c, 5, 77, 0
7, 41280, Note_on_c, 5, 74, 85
7, 41339, Note_on_c, 5, 74, 0
7, 41340, Note_on_c, 5, 77, 85
7, 41399, Note_on_c, 5, 77, 0
7, 41400, Note_on_c, 5, 80, 85
7, 41459, Note_on_c, 5, 80, 0
7, 41460, Note_on_c, 5, 72, 85
7, 41519, Note_on_c, 5, 72, 0
7, 41520, Note_on_c, 5, 71, 85
7, 41579, Note_on_c, 5, 71, 0
7, 41580, Note_on_c, 5, 79, 85
7, 41639, Note_on_c, 5, 79, 0
7, 41640, Note_on_c, 5, 72, 85
7, 41699, Note_on_c, 5, 72, 0
7, 41700, Note_on_c, 5, 77, 85
7, 41759, Note_on_c, 5, 77, 0
7, 41760, Note_on_c, 5, 75, 85
7, 41879, Note_on_c, 5, 75, 0
7, 41880, Note_on_c, 5, 74, 85
7, 41894, Note_on_c, 5, 74, 0
7, 41895, Note_on_c, 5, 75, 85
7, 41909, Note_on_c, 5, 75, 0
7, 41910, Note_on_c, 5, 74, 85
7, 41924, Note_on_c, 5, 74, 0
7, 41925, Note_on_c, 5, 75, 85
7, 41939, Note_on_c, 5, 75, 0
7, 41940, Note_on_c, 5, 74, 85
7, 41960, Note_on_c, 5, 74, 0
7, 41960, Note_on_c, 5, 75, 85
7, 41980, Note_on_c, 5, 75, 0
7, 41980, Note_on_c, 5, 74, 85
7, 42000, Note_on_c, 5, 74, 0
7, 42000, Note_on_c, 5, 72, 85
7, 42239, Note_on_c, 5, 72, 0
7, 44160, Note_on_c, 5, 82, 85
7, 44400, Note_on_c, 5, 82, 0
7, 44400, Note_on_c, 5, 81, 85
7, 44460, Note_on_c, 5, 81, 0
7, 44460, Note_on_c, 5, 79, 85
7, 44520, Note_on_c, 5, 79, 0
7, 44520, Note_on_c, 5, 77, 85
7, 44760, Note_on_c, 5, 77, 0
7, 44760, Note_on_c, 5, 75, 85
7, 44820, Note_on_c, 5, 75, 0
7, 44820, Note_on_c, 5, 74, 85
7, 44880, Note_on_c, 5, 74, 0
7, 44880, Note_on_c, 5, 74, 85
7, 44895, Note_on_c, 5, 74, 0
7, 44895, Note_on_c, 5, 72, 85
7, 44940, Note_on_c, 5, 72, 0
7, 44940, Note_on_c, 5, 70, 85
7, 44955, Note_on_c, 5, 70, 0
7, 44955, Note_on_c, 5, 69, 85
7, 45000, Note_on_c, 5, 69, 0
7, 45000, Note_on_c, 5, 70, 85
7, 45060, Note_on_c, 5, 70, 0
7, 45060, Note_on_c, 5, 75, 85
7, 45300, Note_on_c, 5, 75, 0
7, 45300, Note_on_c, 5, 74, 85
7, 45360, Note_on_c, 5, 74, 0
7, 45360, Note_on_c, 5, 77, 85
7, 45420, Note_on_c, 5, 77, 0
7, 45420, Note_on_c, 5, 82, 85
7, 45540, Note_on_c, 5, 82, 0
7, 45540, Note_on_c, 5, 73, 85
7, 45660, Note_on_c, 5, 73, 0
7, 45660, Note_on_c, 5, 72, 85
7, 45720, Note_on_c, 5, 72, 0
7, 45720, Note_on_c, 5, 75, 85
7, 45780, Note_on_c, 5, 75, 0
7, 45780, Note_on_c, 5, 80, 85
7, 45900, Note_on_c, 5, 80, 0
7, 45900, Note_on_c, 5, 72, 85
7, 46020, Note_on_c, 5, 72, 0
7, 46020, Note_on_c, 5, 70, 85
7, 46080, Note_on_c, 5, 70, 0
7, 46080, Note_on_c, 5, 74, 85
7, 46140, Note_on_c, 5, 74, 0
7, 46140, Note_on_c, 5, 79, 85
7, 46260, Note_on_c, 5, 79, 0
7, 46260, Note_on_c, 5, 70, 85
7, 46380, Note_on_c, 5, 70, 0
7, 46380, Note_on_c, 5, 68, 85
7, 46440, Note_on_c, 5, 68, 0
7, 46440, Note_on_c, 5, 72, 85
7, 46500, Note_on_c, 5, 72, 0
7, 46500, Note_on_c, 5, 77, 85
7, 46620, Note_on_c, 5, 77, 0
7, 46620, Note_on_c, 5, 68, 85
7, 46740, Note_on_c, 5, 68, 0
7, 46740, Note_on_c, 5, 67, 85
7, 46800, Note_on_c, 5, 67, 0
7, 46800, Note_on_c, 5, 72, 85
7, 46860, Note_on_c, 5, 72, 0
7, 46860, Note_on_c, 5, 77, 85
7, 46920, Note_on_c, 5, 77, 0
7, 46920, Note_on_c, 5, 79, 85
7, 46950, Note_on_c, 5, 79, 0
7, 46950, Note_on_c, 5, 77, 85
7, 46980, Note_on_c, 5, 77, 0
7, 46980, Note_on_c, 5, 75, 85
7, 47010, Note_on_c, 5, 75, 0
7, 47010, Note_on_c, 5, 74, 85
7, 47040, Note_on_c, 5, 74, 0
7, 47040, Note_on_c, 5, 75, 85
7, 47070, Note_on_c, 5, 75, 0
7, 47070, Note_on_c, 5, 74, 85
7, 47100, Note_on_c, 5, 74, 0
7, 47100, Note_on_c, 5, 75, 85
7, 47130, Note_on_c, 5, 75, 0
7, 47130, Note_on_c, 5, 72, 85
7, 47160, Note_on_c, 5, 72, 0
7, 47160, Note_on_c, 5, 67, 85
7, 47190, Note_on_c, 5, 67, 0
7, 47190, Note_on_c, 5, 72, 85
7, 47220, Note_on_c, 5, 72, 0
7, 47220, Note_on_c, 5, 77, 85
7, 47250, Note_on_c, 5, 77, 0
7, 47250, Note_on_c, 5, 75, 85
7, 47280, Note_on_c, 5, 75, 0
7, 47280, Note_on_c, 5, 77, 85
7, 47310, Note_on_c, 5, 77, 0
7, 47310, Note_on_c, 5, 74, 85
7, 47340, Note_on_c, 5, 74, 0
7, 47340, Note_on_c, 5, 71, 85
7, 47370, Note_on_c, 5, 71, 0
7, 47370, Note_on_c, 5, 74, 85
7, 47400, Note_on_c, 5, 74, 0
7, 47400, Note_on_c, 5, 79, 85
7, 47430, Note_on_c, 5, 79, 0
7, 47430, Note_on_c, 5, 77, 85
7, 47460, Note_on_c, 5, 77, 0
7, 47460, Note_on_c, 5, 79, 85
7, 47490, Note_on_c, 5, 79, 0
7, 47490, Note_on_c, 5, 75, 85
7, 47520, Note_on_c, 5, 75, 0
7, 47520, Note_on_c, 5, 72, 85
7, 47550, Note_on_c, 5, 72, 0
7, 47550, Note_on_c, 5, 75, 85
7, 47580, Note_on_c, 5, 75, 0
7, 47580, Note_on_c, 5, 80, 85
7, 47610, Note_on_c, 5, 80, 0
7, 47610, Note_on_c, 5, 79, 85
7, 47640, Note_on_c, 5, 79, 0
7, 47640, Note_on_c, 5, 80, 85
7, 47670, Note_on_c, 5, 80, 0
7, 47670, Note_on_c, 5, 77, 85
7, 47700, Note_on_c, 5, 77, 0
7, 47700, Note_on_c, 5, 79, 85
7, 47730, Note_on_c, 5, 79, 0
7, 47730, Note_on_c, 5, 80, 85
7, 47760, Note_on_c, 5, 80, 0
7, 47760, Note_on_c, 5, 71, 85
7, 47820, Note_on_c, 5, 71, 0
7, 47820, Note_on_c, 5, 79, 85
7, 47880, Note_on_c, 5, 79, 0
7, 47880, Note_on_c, 5, 72, 85
7, 48000, Note_on_c, 5, 72, 0
7, 48000, Note_on_c, 5, 71, 85
7, 48030, Note_on_c, 5, 71, 0
7, 48030, Note_on_c, 5, 69, 85
7, 48060, Note_on_c, 5, 69, 0
7, 48060, Note_on_c, 5, 71, 85
7, 48120, Note_on_c, 5, 71, 0
7, 48120, Note_on_c, 5, 72, 85
7, 48240, Note_on_c, 5, 72, 0
7, 48360, Note_on_c, 5, 67, 85
7, 48510, Note_on_c, 5, 67, 0
7, 48510, Note_on_c, 5, 64, 85
7, 48540, Note_on_c, 5, 64, 0
7, 48540, Note_on_c, 5, 65, 85
7, 48570, Note_on_c, 5, 65, 0
7, 48570, Note_on_c, 5, 67, 85
7, 48600, Note_on_c, 5, 67, 0
7, 48600, Note_on_c, 5, 68, 85
7, 48630, Note_on_c, 5, 68, 0
7, 48630, Note_on_c, 5, 70, 85
7, 48660, Note_on_c, 5, 70, 0
7, 48660, Note_on_c, 5, 72, 85
7, 48690, Note_on_c, 5, 72, 0
7, 48690, Note_on_c, 5, 75, 85
7, 48720, Note_on_c, 5, 75, 0
7, 48720, Note_on_c, 5, 73, 85
7, 48750, Note_on_c, 5, 73, 0
7, 48750, Note_on_c, 5, 72, 85
7, 48780, Note_on_c, 5, 72, 0
7, 48780, Note_on_c, 5, 70, 85
7, 48810, Note_on_c, 5, 70, 0
7, 48810, Note_on_c, 5, 68, 85
7, 48840, Note_on_c, 5, 68, 0
7, 48840, Note_on_c, 5, 70, 85
7, 49020, Note_on_c, 5, 70, 0
7, 49200, Note_on_c, 5, 80, 85
7, 49440, Note_on_c, 5, 80, 0
7, 49440, Note_on_c, 5, 79, 85
7, 49500, Note_on_c, 5, 79, 0
7, 49500, Note_on_c, 5, 77, 85
7, 49560, Note_on_c, 5, 77, 0
7, 49560, Note_on_c, 5, 75, 85
7, 49800, Note_on_c, 5, 75, 0
7, 49800, Note_on_c, 5, 73, 85
7, 49860, Note_on_c, 5, 73, 0
7, 49860, Note_on_c, 5, 72, 85
7, 49920, Note_on_c, 5, 72, 0
7, 49920, Note_on_c, 5, 70, 85
7, 49980, Note_on_c, 5, 70, 0
7, 49980, Note_on_c, 5, 67, 85
7, 50040, Note_on_c, 5, 67, 0
7, 50040, Note_on_c, 5, 68, 85
7, 50100, Note_on_c, 5, 68, 0
7, 50100, Note_on_c, 5, 73, 85
7, 50340, Note_on_c, 5, 73, 0
7, 50340, Note_on_c, 5, 72, 85
7, 50400, Note_on_c, 5, 72, 0
7, 50400, Note_on_c, 5, 75, 85
7, 50460, Note_on_c, 5, 75, 0
7, 50460, Note_on_c, 5, 80, 85
7, 50520, Note_on_c, 5, 80, 0
7, 50520, Note_on_c, 5, 82, 85
7, 50550, Note_on_c, 5, 82, 0
7, 50550, Note_on_c, 5, 80, 85
7, 50580, Note_on_c, 5, 80, 0
7, 50580, Note_on_c, 5, 79, 85
7, 50610, Note_on_c, 5, 79, 0
7, 50610, Note_on_c, 5, 77, 85
7, 50640, Note_on_c, 5, 77, 0
7, 50640, Note_on_c, 5, 79, 85
7, 50669, Note_on_c, 5, 79, 0
7, 50670, Note_on_c, 5, 77, 85
7, 50699, Note_on_c, 5, 77, 0
7, 50700, Note_on_c, 5, 79, 85
7, 50729, Note_on_c, 5, 79, 0
7, 50730, Note_on_c, 5, 75, 85
7, 50759, Note_on_c, 5, 75, 0
7, 50760, Note_on_c, 5, 70, 85
7, 50789, Note_on_c, 5, 70, 0
7, 50790, Note_on_c, 5, 75, 85
7, 50819, Note_on_c, 5, 75, 0
7, 50820, Note_on_c, 5, 80, 85
7, 50849, Note_on_c, 5, 80, 0
7, 50850, Note_on_c, 5, 79, 85
7, 50879, Note_on_c, 5, 79, 0
7, 50880, Note_on_c, 5, 80, 85
7, 50909, Note_on_c, 5, 80, 0
7, 50910, Note_on_c, 5, 77, 85
7, 50939, Note_on_c, 5, 77, 0
7, 50940, Note_on_c, 5, 74, 85
7, 50969, Note_on_c, 5, 74, 0
7, 50970, Note_on_c, 5, 77, 85
7, 50999, Note_on_c, 5, 77, 0
7, 51000, Note_on_c, 5, 82, 85
7, 51029, Note_on_c, 5, 82, 0
7, 51030, Note_on_c, 5, 80, 85
7, 51059, Note_on_c, 5, 80, 0
7, 51060, Note_on_c, 5, 82, 85
7, 51089, Note_on_c, 5, 82, 0
7, 51090, Note_on_c, 5, 79, 85
7, 51119, Note_on_c, 5, 79, 0
7, 51120, Note_on_c, 5, 75, 85
7, 51149, Note_on_c, 5, 75, 0
7, 51150, Note_on_c, 5, 79, 85
7, 51179, Note_on_c, 5, 79, 0
7, 51180, Note_on_c, 5, 84, 85
7, 51209, Note_on_c, 5, 84, 0
7, 51210, Note_on_c, 5, 82, 85
7, 51239, Note_on_c, 5, 82, 0
7, 51240, Note_on_c, 5, 84, 85
7, 51269, Note_on_c, 5, 84, 0
7, 51270, Note_on_c, 5, 80, 85
7, 51299, Note_on_c, 5, 80, 0
7, 51300, Note_on_c, 5, 82, 85
7, 51329, Note_on_c, 5, 82, 0
7, 51330, Note_on_c, 5, 84, 85
7, 51359, Note_on_c, 5, 84, 0
7, 51360, Note_on_c, 5, 74, 85
7, 51419, Note_on_c, 5, 74, 0
7, 51420, Note_on_c, 5, 82, 85
7, 51479, Note_on_c, 5, 82, 0
7, 51480, Note_on_c, 5, 75, 85
7, 51599, Note_on_c, 5, 75, 0
7, 51600, Note_on_c, 5, 72, 85
7, 51659, Note_on_c, 5, 72, 0
7, 51660, Note_on_c, 5, 74, 85
7, 51719, Note_on_c, 5, 74, 0
7, 51720, Note_on_c, 5, 75, 85
7, 51749, Note_on_c, 5, 75, 0
7, 51750, Note_on_c, 5, 74, 85
7, 51779, Note_on_c, 5, 74, 0
7, 51780, Note_on_c, 5, 75, 85
7, 51809, Note_on_c, 5, 75, 0
7, 51810, Note_on_c, 5, 79, 85
7, 51839, Note_on_c, 5, 79, 0
7, 51840, Note_on_c, 5, 74, 85
7, 51869, Note_on_c, 5, 74, 0
7, 51870, Note_on_c, 5, 77, 85
7, 51899, Note_on_c, 5, 77, 0
7, 51900, Note_on_c, 5, 75, 85
7, 51929, Note_on_c, 5, 75, 0
7, 51930, Note_on_c, 5, 77, 85
7, 51959, Note_on_c, 5, 77, 0
7, 51960, Note_on_c, 5, 79, 85
7, 51989, Note_on_c, 5, 79, 0
7, 51990, Note_on_c, 5, 80, 85
7, 52019, Note_on_c, 5, 80, 0
7, 52020, Note_on_c, 5, 82, 85
7, 52049, Note_on_c, 5, 82, 0
7, 52050, Note_on_c, 5, 79, 85
7, 52079, Note_on_c, 5, 79, 0
7, 52080, Note_on_c, 5, 75, 85
7, 52109, Note_on_c, 5, 75, 0
7, 52110, Note_on_c, 5, 73, 85
7, 52139, Note_on_c, 5, 73, 0
7, 52140, Note_on_c, 5, 75, 85
7, 52169, Note_on_c, 5, 75, 0
7, 52170, Note_on_c, 5, 80, 85
7, 52199, Note_on_c, 5, 80, 0
7, 52200, Note_on_c, 5, 72, 85
7, 52229, Note_on_c, 5, 72, 0
7, 52230, Note_on_c, 5, 75, 85
7, 52259, Note_on_c, 5, 75, 0
7, 52260, Note_on_c, 5, 74, 85
7, 52289, Note_on_c, 5, 74, 0
7, 52290, Note_on_c, 5, 75, 85
7, 52319, Note_on_c, 5, 75, 0
7, 52320, Note_on_c, 5, 77, 85
7, 52349, Note_on_c, 5, 77, 0
7, 52350, Note_on_c, 5, 79, 85
7, 52379, Note_on_c, 5, 79, 0
7, 52380, Note_on_c, 5, 80, 85
7, 52409, Note_on_c, 5, 80, 0
7, 52410, Note_on_c, 5, 77, 85
7, 52439, Note_on_c, 5, 77, 0
7, 52440, Note_on_c, 5, 74, 85
7, 52469, Note_on_c, 5, 74, 0
7, 52470, Note_on_c, 5, 72, 85
7, 52499, Note_on_c, 5, 72, 0
7, 52500, Note_on_c, 5, 74, 85
7, 52529, Note_on_c, 5, 74, 0
7, 52530, Note_on_c, 5, 79, 85
7, 52559, Note_on_c, 5, 79, 0
7, 52560, Note_on_c, 5, 70, 85
7, 52589, Note_on_c, 5, 70, 0
7, 52590, Note_on_c, 5, 74, 85
7, 52619, Note_on_c, 5, 74, 0
7, 52620, Note_on_c, 5, 72, 85
7, 52649, Note_on_c, 5, 72, 0
7, 52650, Note_on_c, 5, 74, 85
7, 52679, Note_on_c, 5, 74, 0
7, 52680, Note_on_c, 5, 75, 85
7, 52709, Note_on_c, 5, 75, 0
7, 52710, Note_on_c, 5, 77, 85
7, 52739, Note_on_c, 5, 77, 0
7, 52740, Note_on_c, 5, 79, 85
7, 52769, Note_on_c, 5, 79, 0
7, 52770, Note_on_c, 5, 75, 85
7, 52799, Note_on_c, 5, 75, 0
7, 52800, Note_on_c, 5, 72, 85
7, 52829, Note_on_c, 5, 72, 0
7, 52830, Note_on_c, 5, 70, 85
7, 52859, Note_on_c, 5, 70, 0
7, 52860, Note_on_c, 5, 72, 85
7, 52889, Note_on_c, 5, 72, 0
7, 52890, Note_on_c, 5, 77, 85
7, 52919, Note_on_c, 5, 77, 0
7, 52920, Note_on_c, 5, 68, 85
7, 52949, Note_on_c, 5, 68, 0
7, 52950, Note_on_c, 5, 72, 85
7, 52979, Note_on_c, 5, 72, 0
7, 52980, Note_on_c, 5, 70, 85
7, 53009, Note_on_c, 5, 70, 0
7, 53010, Note_on_c, 5, 72, 85
7, 53039, Note_on_c, 5, 72, 0
7, 53040, Note_on_c, 5, 74, 85
7, 53069, Note_on_c, 5, 74, 0
7, 53070, Note_on_c, 5, 75, 85
7, 53099, Note_on_c, 5, 75, 0
7, 53100, Note_on_c, 5, 77, 85
7, 53129, Note_on_c, 5, 77, 0
7, 53130, Note_on_c, 5, 74, 85
7, 53159, Note_on_c, 5, 74, 0
7, 53160, Note_on_c, 5, 70, 85
7, 53189, Note_on_c, 5, 70, 0
7, 53190, Note_on_c, 5, 68, 85
7, 53219, Note_on_c, 5, 68, 0
7, 53220, Note_on_c, 5, 70, 85
7, 53249, Note_on_c, 5, 70, 0
7, 53250, Note_on_c, 5, 75, 85
7, 53279, Note_on_c, 5, 75, 0
7, 53280, Note_on_c, 5, 68, 85
7, 53309, Note_on_c, 5, 68, 0
7, 53340, Note_on_c, 5, 67, 85
7, 53399, Note_on_c, 5, 67, 0
7, 53400, Note_on_c, 5, 68, 85
7, 53459, Note_on_c, 5, 68, 0
7, 53460, Note_on_c, 5, 65, 85
7, 53519, Note_on_c, 5, 65, 0
7, 53520, Note_on_c, 5, 63, 85
7, 53639, Note_on_c, 5, 63, 0
7, 53700, Note_on_c, 5, 60, 85
7, 53729, Note_on_c, 5, 60, 0
7, 53760, Note_on_c, 5, 58, 85
7, 53789, Note_on_c, 5, 58, 0
7, 53820, Note_on_c, 5, 56, 85
7, 53849, Note_on_c, 5, 56, 0
7, 53880, Note_on_c, 5, 55, 85
7, 53909, Note_on_c, 5, 55, 0
7, 53910, Note_on_c, 5, 58, 85
7, 53939, Note_on_c, 5, 58, 0
7, 53940, Note_on_c, 5, 60, 85
7, 53969, Note_on_c, 5, 60, 0
7, 53970, Note_on_c, 5, 56, 85
7, 53999, Note_on_c, 5, 56, 0
7, 54000, Note_on_c, 5, 58, 85
7, 54029, Note_on_c, 5, 58, 0
7, 54060, Note_on_c, 5, 68, 85
7, 54089, Note_on_c, 5, 68, 0
7, 54120, Note_on_c, 5, 67, 85
7, 54149, Note_on_c, 5, 67, 0
7, 54180, Note_on_c, 5, 65, 85
7, 54209, Note_on_c, 5, 65, 0
7, 54240, Note_on_c, 5, 63, 85
7, 54299, Note_on_c, 5, 63, 0
7, 54300, Note_on_c, 5, 72, 85
7, 54479, Note_on_c, 5, 72, 0
7, 54480, Note_on_c, 5, 74, 85
7, 54539, Note_on_c, 5, 74, 0
7, 54540, Note_on_c, 5, 75, 85
7, 54599, Note_on_c, 5, 75, 0
7, 54600, Note_on_c, 5, 70, 85
7, 54839, Note_on_c, 5, 70, 0
7, 54840, Note_on_c, 5, 74, 85
7, 54899, Note_on_c, 5, 74, 0
7, 54900, Note_on_c, 5, 75, 85
7, 54959, Note_on_c, 5, 75, 0
7, 54960, Note_on_c, 5, 68, 85
7, 55199, Note_on_c, 5, 68, 0
7, 55200, Note_on_c, 5, 74, 85
7, 55289, Note_on_c, 5, 74, 0
7, 55290, Note_on_c, 5, 75, 85
7, 55304, Note_on_c, 5, 75, 0
7, 55305, Note_on_c, 5, 77, 85
7, 55319, Note_on_c, 5, 77, 0
7, 55320, Note_on_c, 5, 67, 85
7, 55529, Note_on_c, 5, 67, 0
7, 55530, Note_on_c, 5, 69, 85
7, 55559, Note_on_c, 5, 69, 0
7, 55560, Note_on_c, 5, 70, 85
7, 55569, Note_on_c, 5, 70, 0
7, 55570, Note_on_c, 5, 69, 85
7, 55579, Note_on_c, 5, 69, 0
7, 55580, Note_on_c, 5, 70, 85
7, 55589, Note_on_c, 5, 70, 0
7, 55590, Note_on_c, 5, 69, 85
7, 55599, Note_on_c, 5, 69, 0
7, 55600, Note_on_c, 5, 70, 85
7, 55609, Note_on_c, 5, 70, 0
7, 55610, Note_on_c, 5, 69, 85
7, 55619, Note_on_c, 5, 69, 0
7, 55620, Note_on_c, 5, 70, 85
7, 55629, Note_on_c, 5, 70, 0
7, 55630, Note_on_c, 5, 69, 85
7, 55639, Note_on_c, 5, 69, 0
7, 55640, Note_on_c, 5, 70, 85
7, 55649, Note_on_c, 5, 70, 0
7, 55650, Note_on_c, 5, 69, 85
7, 55659, Note_on_c, 5, 69, 0
7, 55660, Note_on_c, 5, 67, 85
7, 55669, Note_on_c, 5, 67, 0
7, 55670, Note_on_c, 5, 69, 85
7, 55679, Note_on_c, 5, 69, 0
7, 55680, Note_on_c, 5, 70, 85
7, 55709, Note_on_c, 5, 70, 0
7, 55710, Note_on_c, 5, 69, 85
7, 55739, Note_on_c, 5, 69, 0
7, 55740, Note_on_c, 5, 70, 85
7, 55769, Note_on_c, 5, 70, 0
7, 55770, Note_on_c, 5, 74, 85
7, 55799, Note_on_c, 5, 74, 0
7, 55800, Note_on_c, 5, 69, 85
7, 55829, Note_on_c, 5, 69, 0
7, 55830, Note_on_c, 5, 72, 85
7, 55859, Note_on_c, 5, 72, 0
7, 55860, Note_on_c, 5, 70, 85
7, 55889, Note_on_c, 5, 70, 0
7, 55890, Note_on_c, 5, 72, 85
7, 55919, Note_on_c, 5, 72, 0
7, 55920, Note_on_c, 5, 74, 85
7, 55949, Note_on_c, 5, 74, 0
7, 55950, Note_on_c, 5, 75, 85
7, 55979, Note_on_c, 5, 75, 0
7, 55980, Note_on_c, 5, 77, 85
7, 56009, Note_on_c, 5, 77, 0
7, 56010, Note_on_c, 5, 74, 85
7, 56039, Note_on_c, 5, 74, 0
7, 56040, Note_on_c, 5, 70, 85
7, 56069, Note_on_c, 5, 70, 0
7, 56070, Note_on_c, 5, 68, 85
7, 56099, Note_on_c, 5, 68, 0
7, 56100, Note_on_c, 5, 70, 85
7, 56129, Note_on_c, 5, 70, 0
7, 56130, Note_on_c, 5, 75, 85
7, 56159, Note_on_c, 5, 75, 0
7, 56160, Note_on_c, 5, 67, 85
7, 56189, Note_on_c, 5, 67, 0
7, 56190, Note_on_c, 5, 70, 85
7, 56219, Note_on_c, 5, 70, 0
7, 56220, Note_on_c, 5, 69, 85
7, 56249, Note_on_c, 5, 69, 0
7, 56250, Note_on_c, 5, 70, 85
7, 56279, Note_on_c, 5, 70, 0
7, 56280, Note_on_c, 5, 72, 85
7, 56309, Note_on_c, 5, 72, 0
7, 56310, Note_on_c, 5, 74, 85
7, 56339, Note_on_c, 5, 74, 0
7, 56340, Note_on_c, 5, 75, 85
7, 56369, Note_on_c, 5, 75, 0
7, 56370, Note_on_c, 5, 72, 85
7, 56399, Note_on_c, 5, 72, 0
7, 56400, Note_on_c, 5, 69, 85
7, 56429, Note_on_c, 5, 69, 0
7, 56430, Note_on_c, 5, 67, 85
7, 56459, Note_on_c, 5, 67, 0
7, 56460, Note_on_c, 5, 69, 85
7, 56489, Note_on_c, 5, 69, 0
7, 56490, Note_on_c, 5, 74, 85
7, 56519, Note_on_c, 5, 74, 0
7, 56520, Note_on_c, 5, 65, 85
7, 56549, Note_on_c, 5, 65, 0
7, 56550, Note_on_c, 5, 69, 85
7, 56579, Note_on_c, 5, 69, 0
7, 56580, Note_on_c, 5, 67, 85
7, 56609, Note_on_c, 5, 67, 0
7, 56610, Note_on_c, 5, 69, 85
7, 56639, Note_on_c, 5, 69, 0
7, 56640, Note_on_c, 5, 70, 85
7, 56669, Note_on_c, 5, 70, 0
7, 56670, Note_on_c, 5, 72, 85
7, 56699, Note_on_c, 5, 72, 0
7, 56700, Note_on_c, 5, 74, 85
7, 56729, Note_on_c, 5, 74, 0
7, 56730, Note_on_c, 5, 70, 85
7, 56759, Note_on_c, 5, 70, 0
7, 56760, Note_on_c, 5, 67, 85
7, 56789, Note_on_c, 5, 67, 0
7, 56790, Note_on_c, 5, 65, 85
7, 56819, Note_on_c, 5, 65, 0
7, 56820, Note_on_c, 5, 67, 85
7, 56849, Note_on_c, 5, 67, 0
7, 56850, Note_on_c, 5, 72, 85
7, 56879, Note_on_c, 5, 72, 0
7, 56880, Note_on_c, 5, 63, 85
7, 56909, Note_on_c, 5, 63, 0
7, 56910, Note_on_c, 5, 67, 85
7, 56939, Note_on_c, 5, 67, 0
7, 56940, Note_on_c, 5, 65, 85
7, 56969, Note_on_c, 5, 65, 0
7, 56970, Note_on_c, 5, 67, 85
7, 56999, Note_on_c, 5, 67, 0
7, 57000, Note_on_c, 5, 69, 85
7, 57029, Note_on_c, 5, 69, 0
7, 57030, Note_on_c, 5, 70, 85
7, 57059, Note_on_c, 5, 70, 0
7, 57060, Note_on_c, 5, 72, 85
7, 57089, Note_on_c, 5, 72, 0
7, 57090, Note_on_c, 5, 69, 85
7, 57119, Note_on_c, 5, 69, 0
7, 57120, Note_on_c, 5, 70, 85
7, 57149, Note_on_c, 5, 70, 0
7, 57150, Note_on_c, 5, 65, 85
7, 57179, Note_on_c, 5, 65, 0
7, 57180, Note_on_c, 5, 67, 85
7, 57209, Note_on_c, 5, 67, 0
7, 57210, Note_on_c, 5, 63, 85
7, 57239, Note_on_c, 5, 63, 0
7, 57240, Note_on_c, 5, 65, 85
7, 57269, Note_on_c, 5, 65, 0
7, 57300, Note_on_c, 5, 75, 85
7, 57329, Note_on_c, 5, 75, 0
7, 57360, Note_on_c, 5, 74, 85
7, 57389, Note_on_c, 5, 74, 0
7, 57420, Note_on_c, 5, 72, 85
7, 57449, Note_on_c, 5, 72, 0
7, 57480, Note_on_c, 5, 70, 85
7, 57599, Note_on_c, 5, 70, 0
7, 57660, Note_on_c, 5, 67, 85
7, 57689, Note_on_c, 5, 67, 0
7, 57720, Note_on_c, 5, 65, 85
7, 57749, Note_on_c, 5, 65, 0
7, 57780, Note_on_c, 5, 63, 85
7, 57809, Note_on_c, 5, 63, 0
7, 57840, Note_on_c, 5, 62, 85
7, 57959, Note_on_c, 5, 62, 0
7, 58020, Note_on_c, 5, 75, 85
7, 58230, Note_on_c, 5, 75, 0
7, 58230, Note_on_c, 5, 74, 85
7, 58259, Note_on_c, 5, 74, 0
7, 58260, Note_on_c, 5, 81, 85
7, 58289, Note_on_c, 5, 81, 0
7, 58320, Note_on_c, 5, 82, 85
7, 58349, Note_on_c, 5, 82, 0
7, 58380, Note_on_c, 5, 74, 85
7, 58590, Note_on_c, 5, 74, 0
7, 58590, Note_on_c, 5, 72, 85
7, 58619, Note_on_c, 5, 72, 0
7, 58620, Note_on_c, 5, 81, 85
7, 58649, Note_on_c, 5, 81, 0
7, 58680, Note_on_c, 5, 82, 85
7, 58709, Note_on_c, 5, 82, 0
7, 58740, Note_on_c, 5, 72, 85
7, 58950, Note_on_c, 5, 72, 0
7, 58950, Note_on_c, 5, 70, 85
7, 58979, Note_on_c, 5, 70, 0
7, 58980, Note_on_c, 5, 81, 85
7, 59009, Note_on_c, 5, 81, 0
7, 59040, Note_on_c, 5, 82, 85
7, 59069, Note_on_c, 5, 82, 0
7, 59100, Note_on_c, 5, 72, 85
7, 59109, Note_on_c, 5, 72, 0
7, 59110, Note_on_c, 5, 70, 85
7, 59119, Note_on_c, 5, 70, 0
7, 59120, Note_on_c, 5, 72, 85
7, 59129, Note_on_c, 5, 72, 0
7, 59130, Note_on_c, 5, 70, 85
7, 59139, Note_on_c, 5, 70, 0
7, 59140, Note_on_c, 5, 72, 85
7, 59149, Note_on_c, 5, 72, 0
7, 59150, Note_on_c, 5, 70, 85
7, 59159, Note_on_c, 5, 70, 0
7, 59160, Note_on_c, 5, 72, 85
7, 59169, Note_on_c, 5, 72, 0
7, 59170, Note_on_c, 5, 70, 85
7, 59179, Note_on_c, 5, 70, 0
7, 59180, Note_on_c, 5, 72, 85
7, 59189, Note_on_c, 5, 72, 0
7, 59190, Note_on_c, 5, 70, 85
7, 59199, Note_on_c, 5, 70, 0
7, 59200, Note_on_c, 5, 72, 85
7, 59209, Note_on_c, 5, 72, 0
7, 59210, Note_on_c, 5, 70, 85
7, 59219, Note_on_c, 5, 70, 0
7, 59220, Note_on_c, 5, 72, 85
7, 59229, Note_on_c, 5, 72, 0
7, 59230, Note_on_c, 5, 70, 85
7, 59239, Note_on_c, 5, 70, 0
7, 59240, Note_on_c, 5, 72, 85
7, 59249, Note_on_c, 5, 72, 0
7, 59250, Note_on_c, 5, 70, 85
7, 59259, Note_on_c, 5, 70, 0
7, 59260, Note_on_c, 5, 69, 85
7, 59269, Note_on_c, 5, 69, 0
7, 59270, Note_on_c, 5, 70, 85
7, 59279, Note_on_c, 5, 70, 0
7, 59280, Note_on_c, 5, 69, 85
7, 59309, Note_on_c, 5, 69, 0
7, 59310, Note_on_c, 5, 67, 85
7, 59339, Note_on_c, 5, 67, 0
7, 59340, Note_on_c, 5, 69, 85
7, 59369, Note_on_c, 5, 69, 0
7, 59370, Note_on_c, 5, 65, 85
7, 59399, Note_on_c, 5, 65, 0
7, 59400, Note_on_c, 5, 60, 85
7, 59429, Note_on_c, 5, 60, 0
7, 59430, Note_on_c, 5, 65, 85
7, 59459, Note_on_c, 5, 65, 0
7, 59460, Note_on_c, 5, 70, 85
7, 59489, Note_on_c, 5, 70, 0
7, 59490, Note_on_c, 5, 69, 85
7, 59519, Note_on_c, 5, 69, 0
7, 59520, Note_on_c, 5, 70, 85
7, 59549, Note_on_c, 5, 70, 0
7, 59550, Note_on_c, 5, 65, 85
7, 59579, Note_on_c, 5, 65, 0
7, 59580, Note_on_c, 5, 62, 85
7, 59609, Note_on_c, 5, 62, 0
7, 59610, Note_on_c, 5, 65, 85
7, 59639, Note_on_c, 5, 65, 0
7, 59640, Note_on_c, 5, 72, 85
7, 59669, Note_on_c, 5, 72, 0
7, 59670, Note_on_c, 5, 70, 85
7, 59699, Note_on_c, 5, 70, 0
7, 59700, Note_on_c, 5, 72, 85
7, 59729, Note_on_c, 5, 72, 0
7, 59730, Note_on_c, 5, 69, 85
7, 59759, Note_on_c, 5, 69, 0
7, 59760, Note_on_c, 5, 65, 85
7, 59789, Note_on_c, 5, 65, 0
7, 59790, Note_on_c, 5, 69, 85
7, 59819, Note_on_c, 5, 69, 0
7, 59820, Note_on_c, 5, 74, 85
7, 59849, Note_on_c, 5, 74, 0
7, 59850, Note_on_c, 5, 72, 85
7, 59879, Note_on_c, 5, 72, 0
7, 59880, Note_on_c, 5, 74, 85
7, 59909, Note_on_c, 5, 74, 0
7, 59910, Note_on_c, 5, 70, 85
7, 59939, Note_on_c, 5, 70, 0
7, 59940, Note_on_c, 5, 65, 85
7, 59969, Note_on_c, 5, 65, 0
7, 59970, Note_on_c, 5, 70, 85
7, 59999, Note_on_c, 5, 70, 0
7, 60000, Note_on_c, 5, 69, 85
7, 60119, Note_on_c, 5, 69, 0
7, 60240, Note_on_c, 5, 69, 85
7, 60390, Note_on_c, 5, 69, 0
7, 60390, Note_on_c, 5, 66, 85
7, 60419, Note_on_c, 5, 66, 0
7, 60420, Note_on_c, 5, 67, 85
7, 60449, Note_on_c, 5, 67, 0
7, 60450, Note_on_c, 5, 69, 85
7, 60479, Note_on_c, 5, 69, 0
7, 60480, Note_on_c, 5, 70, 85
7, 60509, Note_on_c, 5, 70, 0
7, 60510, Note_on_c, 5, 72, 85
7, 60539, Note_on_c, 5, 72, 0
7, 60540, Note_on_c, 5, 74, 85
7, 60569, Note_on_c, 5, 74, 0
7, 60570, Note_on_c, 5, 77, 85
7, 60599, Note_on_c, 5, 77, 0
7, 60600, Note_on_c, 5, 75, 85
7, 60629, Note_on_c, 5, 75, 0
7, 60630, Note_on_c, 5, 74, 85
7, 60659, Note_on_c, 5, 74, 0
7, 60660, Note_on_c, 5, 72, 85
7, 60689, Note_on_c, 5, 72, 0
7, 60690, Note_on_c, 5, 70, 85
7, 60719, Note_on_c, 5, 70, 0
7, 60720, Note_on_c, 5, 72, 85
7, 60899, Note_on_c, 5, 72, 0
7, 61020, Note_on_c, 5, 81, 85
7, 61079, Note_on_c, 5, 81, 0
7, 61080, Note_on_c, 5, 82, 85
7, 61199, Note_on_c, 5, 82, 0
7, 61200, Note_on_c, 5, 70, 85
7, 61259, Note_on_c, 5, 70, 0
7, 61260, Note_on_c, 5, 70, 85
7, 61379, Note_on_c, 5, 70, 0
7, 61380, Note_on_c, 5, 82, 85
7, 61439, Note_on_c, 5, 82, 0
7, 61440, Note_on_c, 5, 80, 85
7, 61559, Note_on_c, 5, 80, 0
7, 61560, Note_on_c, 5, 70, 85
7, 61619, Note_on_c, 5, 70, 0
7, 61620, Note_on_c, 5, 70, 85
7, 61739, Note_on_c, 5, 70, 0
7, 61740, Note_on_c, 5, 79, 85
7, 61799, Note_on_c, 5, 79, 0
7, 61800, Note_on_c, 5, 77, 85
7, 61829, Note_on_c, 5, 77, 0
7, 61830, Note_on_c, 5, 69, 85
7, 61859, Note_on_c, 5, 69, 0
7, 61860, Note_on_c, 5, 70, 85
7, 61889, Note_on_c, 5, 70, 0
7, 61890, Note_on_c, 5, 72, 85
7, 61919, Note_on_c, 5, 72, 0
7, 61920, Note_on_c, 5, 74, 85
7, 61949, Note_on_c, 5, 74, 0
7, 61950, Note_on_c, 5, 75, 85
7, 61979, Note_on_c, 5, 75, 0
7, 61980, Note_on_c, 5, 77, 85
7, 62009, Note_on_c, 5, 77, 0
7, 62010, Note_on_c, 5, 80, 85
7, 62039, Note_on_c, 5, 80, 0
7, 62040, Note_on_c, 5, 79, 85
7, 62069, Note_on_c, 5, 79, 0
7, 62070, Note_on_c, 5, 77, 85
7, 62099, Note_on_c, 5, 77, 0
7, 62100, Note_on_c, 5, 75, 85
7, 62129, Note_on_c, 5, 75, 0
7, 62130, Note_on_c, 5, 74, 85
7, 62159, Note_on_c, 5, 74, 0
7, 62160, Note_on_c, 5, 75, 85
7, 62339, Note_on_c, 5, 75, 0
7, 62400, Note_on_c, 5, 75, 85
7, 62550, Note_on_c, 5, 75, 0
7, 62550, Note_on_c, 5, 72, 85
7, 62579, Note_on_c, 5, 72, 0
7, 62580, Note_on_c, 5, 74, 85
7, 62609, Note_on_c, 5, 74, 0
7, 62610, Note_on_c, 5, 75, 85
7, 62639, Note_on_c, 5, 75, 0
7, 62640, Note_on_c, 5, 77, 85
7, 62669, Note_on_c, 5, 77, 0
7, 62670, Note_on_c, 5, 79, 85
7, 62699, Note_on_c, 5, 79, 0
7, 62700, Note_on_c, 5, 80, 85
7, 62729, Note_on_c, 5, 80, 0
7, 62730, Note_on_c, 5, 84, 85
7, 62759, Note_on_c, 5, 84, 0
7, 62760, Note_on_c, 5, 82, 85
7, 62789, Note_on_c, 5, 82, 0
7, 62790, Note_on_c, 5, 80, 85
7, 62819, Note_on_c, 5, 80, 0
7, 62820, Note_on_c, 5, 79, 85
7, 62849, Note_on_c, 5, 79, 0
7, 62850, Note_on_c, 5, 77, 85
7, 62879, Note_on_c, 5, 77, 0
7, 62880, Note_on_c, 5, 79, 85
7, 62909, Note_on_c, 5, 79, 0
7, 62910, Note_on_c, 5, 77, 85
7, 62939, Note_on_c, 5, 77, 0
7, 62940, Note_on_c, 5, 79, 85
7, 62969, Note_on_c, 5, 79, 0
7, 62970, Note_on_c, 5, 75, 85
7, 62999, Note_on_c, 5, 75, 0
7, 63000, Note_on_c, 5, 70, 85
7, 63029, Note_on_c, 5, 70, 0
7, 63030, Note_on_c, 5, 75, 85
7, 63059, Note_on_c, 5, 75, 0
7, 63060, Note_on_c, 5, 79, 85
7, 63089, Note_on_c, 5, 79, 0
7, 63090, Note_on_c, 5, 77, 85
7, 63119, Note_on_c, 5, 77, 0
7, 63120, Note_on_c, 5, 79, 85
7, 63149, Note_on_c, 5, 79, 0
7, 63150, Note_on_c, 5, 75, 85
7, 63179, Note_on_c, 5, 75, 0
7, 63180, Note_on_c, 5, 70, 85
7, 63209, Note_on_c, 5, 70, 0
7, 63210, Note_on_c, 5, 75, 85
7, 63239, Note_on_c, 5, 75, 0
7, 63240, Note_on_c, 5, 79, 85
7, 63269, Note_on_c, 5, 79, 0
7, 63270, Note_on_c, 5, 77, 85
7, 63299, Note_on_c, 5, 77, 0
7, 63300, Note_on_c, 5, 79, 85
7, 63329, Note_on_c, 5, 79, 0
7, 63330, Note_on_c, 5, 76, 85
7, 63359, Note_on_c, 5, 76, 0
7, 63360, Note_on_c, 5, 70, 85
7, 63389, Note_on_c, 5, 70, 0
7, 63390, Note_on_c, 5, 76, 85
7, 63419, Note_on_c, 5, 76, 0
7, 63420, Note_on_c, 5, 79, 85
7, 63449, Note_on_c, 5, 79, 0
7, 63450, Note_on_c, 5, 77, 85
7, 63479, Note_on_c, 5, 77, 0
7, 63480, Note_on_c, 5, 79, 85
7, 63509, Note_on_c, 5, 79, 0
7, 63510, Note_on_c, 5, 76, 85
7, 63539, Note_on_c, 5, 76, 0
7, 63540, Note_on_c, 5, 70, 85
7, 63569, Note_on_c, 5, 70, 0
7, 63570, Note_on_c, 5, 76, 85
7, 63599, Note_on_c, 5, 76, 0
7, 63600, Note_on_c, 5, 77, 85
7, 63659, Note_on_c, 5, 77, 0
7, 63660, Note_on_c, 5, 72, 85
7, 63719, Note_on_c, 5, 72, 0
7, 63720, Note_on_c, 5, 68, 85
7, 63779, Note_on_c, 5, 68, 0
7, 63780, Note_on_c, 5, 72, 85
7, 63839, Note_on_c, 5, 72, 0
7, 63840, Note_on_c, 5, 77, 85
7, 63899, Note_on_c, 5, 77, 0
7, 63900, Note_on_c, 5, 80, 85
7, 63959, Note_on_c, 5, 80, 0
7, 63960, Note_on_c, 5, 78, 85
7, 64019, Note_on_c, 5, 78, 0
7, 64020, Note_on_c, 5, 72, 85
7, 64079, Note_on_c, 5, 72, 0
7, 64080, Note_on_c, 5, 69, 85
7, 64139, Note_on_c, 5, 69, 0
7, 64140, Note_on_c, 5, 72, 85
7, 64199, Note_on_c, 5, 72, 0
7, 64200, Note_on_c, 5, 78, 85
7, 64259, Note_on_c, 5, 78, 0
7, 64260, Note_on_c, 5, 81, 85
7, 64319, Note_on_c, 5, 81, 0
7, 64320, Note_on_c, 5, 82, 85
7, 64349, Note_on_c, 5, 82, 0
7, 64350, Note_on_c, 5, 81, 85
7, 64379, Note_on_c, 5, 81, 0
7, 64380, Note_on_c, 5, 79, 85
7, 64409, Note_on_c, 5, 79, 0
7, 64410, Note_on_c, 5, 78, 85
7, 64439, Note_on_c, 5, 78, 0
7, 64440, Note_on_c, 5, 79, 85
7, 64499, Note_on_c, 5, 79, 0
7, 65760, Note_on_c, 5, 84, 85
7, 65999, Note_on_c, 5, 84, 0
7, 66000, Note_on_c, 5, 82, 85
7, 66059, Note_on_c, 5, 82, 0
7, 66060, Note_on_c, 5, 80, 85
7, 66119, Note_on_c, 5, 80, 0
7, 66120, Note_on_c, 5, 79, 85
7, 66359, Note_on_c, 5, 79, 0
7, 66360, Note_on_c, 5, 77, 85
7, 66419, Note_on_c, 5, 77, 0
7, 66420, Note_on_c, 5, 75, 85
7, 66479, Note_on_c, 5, 75, 0
7, 66480, Note_on_c, 5, 74, 85
7, 66539, Note_on_c, 5, 74, 0
7, 66540, Note_on_c, 5, 71, 85
7, 66599, Note_on_c, 5, 71, 0
7, 66600, Note_on_c, 5, 72, 85
7, 66659, Note_on_c, 5, 72, 0
7, 66660, Note_on_c, 5, 77, 85
7, 66899, Note_on_c, 5, 77, 0
7, 66900, Note_on_c, 5, 75, 85
7, 66959, Note_on_c, 5, 75, 0
7, 67020, Note_on_c, 5, 68, 85
7, 67049, Note_on_c, 5, 68, 0
7, 67080, Note_on_c, 5, 67, 85
7, 67109, Note_on_c, 5, 67, 0
7, 67140, Note_on_c, 5, 65, 85
7, 67169, Note_on_c, 5, 65, 0
7, 67200, Note_on_c, 5, 63, 85
7, 67229, Note_on_c, 5, 63, 0
7, 67230, Note_on_c, 5, 67, 85
7, 67259, Note_on_c, 5, 67, 0
7, 67260, Note_on_c, 5, 68, 85
7, 67289, Note_on_c, 5, 68, 0
7, 67290, Note_on_c, 5, 65, 85
7, 67319, Note_on_c, 5, 65, 0
7, 67320, Note_on_c, 5, 67, 85
7, 67349, Note_on_c, 5, 67, 0
7, 67380, Note_on_c, 5, 77, 85
7, 67409, Note_on_c, 5, 77, 0
7, 67440, Note_on_c, 5, 75, 85
7, 67469, Note_on_c, 5, 75, 0
7, 67500, Note_on_c, 5, 74, 85
7, 67529, Note_on_c, 5, 74, 0
7, 67560, Note_on_c, 5, 72, 85
7, 67679, Note_on_c, 5, 72, 0
7, 67800, Note_on_c, 5, 67, 85
7, 67950, Note_on_c, 5, 67, 0
7, 67950, Note_on_c, 5, 64, 85
7, 67979, Note_on_c, 5, 64, 0
7, 67980, Note_on_c, 5, 65, 85
7, 68009, Note_on_c, 5, 65, 0
7, 68010, Note_on_c, 5, 67, 85
7, 68039, Note_on_c, 5, 67, 0
7, 68040, Note_on_c, 5, 68, 85
7, 68069, Note_on_c, 5, 68, 0
7, 68070, Note_on_c, 5, 70, 85
7, 68099, Note_on_c, 5, 70, 0
7, 68100, Note_on_c, 5, 72, 85
7, 68129, Note_on_c, 5, 72, 0
7, 68130, Note_on_c, 5, 75, 85
7, 68159, Note_on_c, 5, 75, 0
7, 68160, Note_on_c, 5, 73, 85
7, 68189, Note_on_c, 5, 73, 0
7, 68190, Note_on_c, 5, 72, 85
7, 68219, Note_on_c, 5, 72, 0
7, 68220, Note_on_c, 5, 70, 85
7, 68249, Note_on_c, 5, 70, 0
7, 68250, Note_on_c, 5, 68, 85
7, 68279, Note_on_c, 5, 68, 0
7, 68280, Note_on_c, 5, 70, 85
7, 68399, Note_on_c, 5, 70, 0
7, 68520, Note_on_c, 5, 70, 85
7, 68699, Note_on_c, 5, 70, 0
7, 68700, Note_on_c, 5, 68, 85
7, 68729, Note_on_c, 5, 68, 0
7, 68730, Note_on_c, 5, 66, 85
7, 68759, Note_on_c, 5, 66, 0
7, 68760, Note_on_c, 5, 65, 85
7, 68789, Note_on_c, 5, 65, 0
7, 68790, Note_on_c, 5, 63, 85
7, 68819, Note_on_c, 5, 63, 0
7, 68820, Note_on_c, 5, 61, 85
7, 69030, Note_on_c, 5, 61, 0
7, 69030, Note_on_c, 5, 60, 85
7, 69059, Note_on_c, 5, 60, 0
7, 69060, Note_on_c, 5, 67, 85
7, 69089, Note_on_c, 5, 67, 0
7, 69120, Note_on_c, 5, 68, 85
7, 69149, Note_on_c, 5, 68, 0
7, 69180, Note_on_c, 5, 60, 85
7, 69390, Note_on_c, 5, 60, 0
7, 69390, Note_on_c, 5, 58, 85
7, 69419, Note_on_c, 5, 58, 0
7, 69420, Note_on_c, 5, 67, 85
7, 69449, Note_on_c, 5, 67, 0
7, 69480, Note_on_c, 5, 68, 85
7, 69509, Note_on_c, 5, 68, 0
7, 69540, Note_on_c, 5, 58, 85
7, 69779, Note_on_c, 5, 58, 0
7, 69780, Note_on_c, 5, 56, 85
7, 69839, Note_on_c, 5, 56, 0
7, 69840, Note_on_c, 5, 60, 85
7, 69899, Note_on_c, 5, 60, 0
7, 69900, Note_on_c, 5, 63, 85
7, 69959, Note_on_c, 5, 63, 0
7, 69960, Note_on_c, 5, 68, 85
7, 70019, Note_on_c, 5, 68, 0
7, 70020, Note_on_c, 5, 72, 85
7, 70079, Note_on_c, 5, 72, 0
7, 70080, Note_on_c, 5, 69, 85
7, 70139, Note_on_c, 5, 69, 0
7, 70140, Note_on_c, 5, 63, 85
7, 70199, Note_on_c, 5, 63, 0
7, 70200, Note_on_c, 5, 60, 85
7, 70259, Note_on_c, 5, 60, 0
7, 70260, Note_on_c, 5, 65, 85
7, 70319, Note_on_c, 5, 65, 0
7, 70320, Note_on_c, 5, 69, 85
7, 70379, Note_on_c, 5, 69, 0
7, 70380, Note_on_c, 5, 72, 85
7, 70439, Note_on_c, 5, 72, 0
7, 70440, Note_on_c, 5, 73, 85
7, 70469, Note_on_c, 5, 73, 0
7, 70470, Note_on_c, 5, 72, 85
7, 70499, Note_on_c, 5, 72, 0
7, 70500, Note_on_c, 5, 73, 85
7, 70529, Note_on_c, 5, 73, 0
7, 70530, Note_on_c, 5, 70, 85
7, 70559, Note_on_c, 5, 70, 0
7, 70560, Note_on_c, 5, 65, 85
7, 70589, Note_on_c, 5, 65, 0
7, 70590, Note_on_c, 5, 70, 85
7, 70619, Note_on_c, 5, 70, 0
7, 70620, Note_on_c, 5, 73, 85
7, 70649, Note_on_c, 5, 73, 0
7, 70650, Note_on_c, 5, 72, 85
7, 70679, Note_on_c, 5, 72, 0
7, 70680, Note_on_c, 5, 73, 85
7, 70709, Note_on_c, 5, 73, 0
7, 70710, Note_on_c, 5, 70, 85
7, 70739, Note_on_c, 5, 70, 0
7, 70740, Note_on_c, 5, 65, 85
7, 70769, Note_on_c, 5, 65, 0
7, 70770, Note_on_c, 5, 70, 85
7, 70799, Note_on_c, 5, 70, 0
7, 70800, Note_on_c, 5, 74, 85
7, 70829, Note_on_c, 5, 74, 0
7, 70830, Note_on_c, 5, 72, 85
7, 70859, Note_on_c, 5, 72, 0
7, 70860, Note_on_c, 5, 74, 85
7, 70889, Note_on_c, 5, 74, 0
7, 70890, Note_on_c, 5, 71, 85
7, 70919, Note_on_c, 5, 71, 0
7, 70920, Note_on_c, 5, 65, 85
7, 70949, Note_on_c, 5, 65, 0
7, 70950, Note_on_c, 5, 71, 85
7, 70979, Note_on_c, 5, 71, 0
7, 70980, Note_on_c, 5, 74, 85
7, 71009, Note_on_c, 5, 74, 0
7, 71010, Note_on_c, 5, 72, 85
7, 71039, Note_on_c, 5, 72, 0
7, 71040, Note_on_c, 5, 74, 85
7, 71069, Note_on_c, 5, 74, 0
7, 71070, Note_on_c, 5, 71, 85
7, 71099, Note_on_c, 5, 71, 0
7, 71100, Note_on_c, 5, 65, 85
7, 71129, Note_on_c, 5, 65, 0
7, 71130, Note_on_c, 5, 71, 85
7, 71159, Note_on_c, 5, 71, 0
7, 71160, Note_on_c, 5, 72, 85
7, 71219, Note_on_c, 5, 72, 0
7, 71220, Note_on_c, 5, 75, 85
7, 71279, Note_on_c, 5, 75, 0
7, 71280, Note_on_c, 5, 80, 85
7, 71369, Note_on_c, 5, 80, 0
7, 71370, Note_on_c, 5, 84, 85
7, 71399, Note_on_c, 5, 84, 0
7, 71400, Note_on_c, 5, 82, 85
7, 71429, Note_on_c, 5, 82, 0
7, 71430, Note_on_c, 5, 80, 85
7, 71459, Note_on_c, 5, 80, 0
7, 71460, Note_on_c, 5, 79, 85
7, 71489, Note_on_c, 5, 79, 0
7, 71490, Note_on_c, 5, 77, 85
7, 71519, Note_on_c, 5, 77, 0
7, 71520, Note_on_c, 5, 79, 85
7, 71549, Note_on_c, 5, 79, 0
7, 71550, Note_on_c, 5, 77, 85
7, 71579, Note_on_c, 5, 77, 0
7, 71580, Note_on_c, 5, 75, 85
7, 71609, Note_on_c, 5, 75, 0
7, 71610, Note_on_c, 5, 74, 85
7, 71639, Note_on_c, 5, 74, 0
7, 71640, Note_on_c, 5, 75, 85
7, 71699, Note_on_c, 5, 75, 0
7, 72960, Note_on_c, 5, 82, 85
7, 73199, Note_on_c, 5, 82, 0
7, 73200, Note_on_c, 5, 81, 85
7, 73259, Note_on_c, 5, 81, 0
7, 73260, Note_on_c, 5, 79, 85
7, 73319, Note_on_c, 5, 79, 0
7, 73320, Note_on_c, 5, 77, 85
7, 73559, Note_on_c, 5, 77, 0
7, 73560, Note_on_c, 5, 75, 85
7, 73619, Note_on_c, 5, 75, 0
7, 73620, Note_on_c, 5, 74, 85
7, 73679, Note_on_c, 5, 74, 0
7, 73680, Note_on_c, 5, 72, 85
7, 73739, Note_on_c, 5, 72, 0
7, 73740, Note_on_c, 5, 69, 85
7, 73799, Note_on_c, 5, 69, 0
7, 73800, Note_on_c, 5, 70, 85
7, 73859, Note_on_c, 5, 70, 0
7, 73860, Note_on_c, 5, 75, 85
7, 74099, Note_on_c, 5, 75, 0
7, 74100, Note_on_c, 5, 74, 85
7, 74159, Note_on_c, 5, 74, 0
7, 74160, Note_on_c, 5, 77, 85
7, 74219, Note_on_c, 5, 77, 0
7, 74220, Note_on_c, 5, 82, 85
7, 74339, Note_on_c, 5, 82, 0
7, 74340, Note_on_c, 5, 73, 85
7, 74459, Note_on_c, 5, 73, 0
7, 74460, Note_on_c, 5, 72, 85
7, 74519, Note_on_c, 5, 72, 0
7, 74520, Note_on_c, 5, 75, 85
7, 74579, Note_on_c, 5, 75, 0
7, 74580, Note_on_c, 5, 80, 85
7, 74699, Note_on_c, 5, 80, 0
7, 74700, Note_on_c, 5, 72, 85
7, 74819, Note_on_c, 5, 72, 0
7, 74820, Note_on_c, 5, 70, 85
7, 74879, Note_on_c, 5, 70, 0
7, 74880, Note_on_c, 5, 74, 85
7, 74939, Note_on_c, 5, 74, 0
7, 74940, Note_on_c, 5, 79, 85
7, 75059, Note_on_c, 5, 79, 0
7, 75060, Note_on_c, 5, 70, 85
7, 75179, Note_on_c, 5, 70, 0
7, 75180, Note_on_c, 5, 68, 85
7, 75239, Note_on_c, 5, 68, 0
7, 75240, Note_on_c, 5, 72, 85
7, 75299, Note_on_c, 5, 72, 0
7, 75300, Note_on_c, 5, 77, 85
7, 75419, Note_on_c, 5, 77, 0
7, 75420, Note_on_c, 5, 68, 85
7, 75539, Note_on_c, 5, 68, 0
7, 75540, Note_on_c, 5, 67, 85
7, 75599, Note_on_c, 5, 67, 0
7, 75660, Note_on_c, 5, 60, 85
7, 75689, Note_on_c, 5, 60, 0
7, 75720, Note_on_c, 5, 58, 85
7, 75749, Note_on_c, 5, 58, 0
7, 75780, Note_on_c, 5, 56, 85
7, 75809, Note_on_c, 5, 56, 0
7, 75840, Note_on_c, 5, 55, 85
7, 75869, Note_on_c, 5, 55, 0
7, 75870, Note_on_c, 5, 58, 85
7, 75899, Note_on_c, 5, 58, 0
7, 75900, Note_on_c, 5, 60, 85
7, 75929, Note_on_c, 5, 60, 0
7, 75930, Note_on_c, 5, 56, 85
7, 75959, Note_on_c, 5, 56, 0
7, 75960, Note_on_c, 5, 58, 85
7, 75989, Note_on_c, 5, 58, 0
7, 76020, Note_on_c, 5, 68, 85
7, 76049, Note_on_c, 5, 68, 0
7, 76080, Note_on_c, 5, 67, 85
7, 76109, Note_on_c, 5, 67, 0
7, 76140, Note_on_c, 5, 65, 85
7, 76169, Note_on_c, 5, 65, 0
7, 76200, Note_on_c, 5, 63, 85
7, 76259, Note_on_c, 5, 63, 0
7, 76260, Note_on_c, 5, 82, 85
7, 76410, Note_on_c, 5, 82, 0
7, 76410, Note_on_c, 5, 80, 85
7, 76439, Note_on_c, 5, 80, 0
7, 76440, Note_on_c, 5, 79, 85
7, 76469, Note_on_c, 5, 79, 0
7, 76470, Note_on_c, 5, 80, 85
7, 76499, Note_on_c, 5, 80, 0
7, 76500, Note_on_c, 5, 82, 85
7, 76529, Note_on_c, 5, 82, 0
7, 76530, Note_on_c, 5, 79, 85
7, 76559, Note_on_c, 5, 79, 0
7, 76560, Note_on_c, 5, 75, 85
7, 76589, Note_on_c, 5, 75, 0
7, 76590, Note_on_c, 5, 73, 85
7, 76619, Note_on_c, 5, 73, 0
7, 76620, Note_on_c, 5, 75, 85
7, 76649, Note_on_c, 5, 75, 0
7, 76650, Note_on_c, 5, 80, 85
7, 76679, Note_on_c, 5, 80, 0
7, 76680, Note_on_c, 5, 72, 85
7, 76709, Note_on_c, 5, 72, 0
7, 76710, Note_on_c, 5, 75, 85
7, 76739, Note_on_c, 5, 75, 0
7, 76740, Note_on_c, 5, 74, 85
7, 76769, Note_on_c, 5, 74, 0
7, 76770, Note_on_c, 5, 75, 85
7, 76799, Note_on_c, 5, 75, 0
7, 76800, Note_on_c, 5, 77, 85
7, 76829, Note_on_c, 5, 77, 0
7, 76830, Note_on_c, 5, 79, 85
7, 76859, Note_on_c, 5, 79, 0
7, 76860, Note_on_c, 5, 80, 85
7, 76889, Note_on_c, 5, 80, 0
7, 76890, Note_on_c, 5, 77, 85
7, 76919, Note_on_c, 5, 77, 0
7, 76920, Note_on_c, 5, 74, 85
7, 76949, Note_on_c, 5, 74, 0
7, 76950, Note_on_c, 5, 72, 85
7, 76979, Note_on_c, 5, 72, 0
7, 76980, Note_on_c, 5, 74, 85
7, 77009, Note_on_c, 5, 74, 0
7, 77010, Note_on_c, 5, 79, 85
7, 77039, Note_on_c, 5, 79, 0
7, 77040, Note_on_c, 5, 70, 85
7, 77069, Note_on_c, 5, 70, 0
7, 77070, Note_on_c, 5, 74, 85
7, 77099, Note_on_c, 5, 74, 0
7, 77100, Note_on_c, 5, 72, 85
7, 77129, Note_on_c, 5, 72, 0
7, 77130, Note_on_c, 5, 74, 85
7, 77159, Note_on_c, 5, 74, 0
7, 77160, Note_on_c, 5, 75, 85
7, 77189, Note_on_c, 5, 75, 0
7, 77190, Note_on_c, 5, 77, 85
7, 77219, Note_on_c, 5, 77, 0
7, 77220, Note_on_c, 5, 79, 85
7, 77249, Note_on_c, 5, 79, 0
7, 77250, Note_on_c, 5, 75, 85
7, 77279, Note_on_c, 5, 75, 0
7, 77280, Note_on_c, 5, 72, 85
7, 77309, Note_on_c, 5, 72, 0
7, 77310, Note_on_c, 5, 70, 85
7, 77339, Note_on_c, 5, 70, 0
7, 77340, Note_on_c, 5, 72, 85
7, 77369, Note_on_c, 5, 72, 0
7, 77370, Note_on_c, 5, 77, 85
7, 77399, Note_on_c, 5, 77, 0
7, 77400, Note_on_c, 5, 68, 85
7, 77429, Note_on_c, 5, 68, 0
7, 77430, Note_on_c, 5, 72, 85
7, 77459, Note_on_c, 5, 72, 0
7, 77460, Note_on_c, 5, 70, 85
7, 77489, Note_on_c, 5, 70, 0
7, 77490, Note_on_c, 5, 72, 85
7, 77519, Note_on_c, 5, 72, 0
7, 77520, Note_on_c, 5, 74, 85
7, 77549, Note_on_c, 5, 74, 0
7, 77550, Note_on_c, 5, 75, 85
7, 77579, Note_on_c, 5, 75, 0
7, 77580, Note_on_c, 5, 77, 85
7, 77609, Note_on_c, 5, 77, 0
7, 77610, Note_on_c, 5, 74, 85
7, 77639, Note_on_c, 5, 74, 0
7, 77640, Note_on_c, 5, 70, 85
7, 77669, Note_on_c, 5, 70, 0
7, 77670, Note_on_c, 5, 68, 85
7, 77699, Note_on_c, 5, 68, 0
7, 77700, Note_on_c, 5, 70, 85
7, 77729, Note_on_c, 5, 70, 0
7, 77730, Note_on_c, 5, 75, 85
7, 77759, Note_on_c, 5, 75, 0
7, 77760, Note_on_c, 5, 68, 85
7, 77789, Note_on_c, 5, 68, 0
7, 77820, Note_on_c, 5, 67, 85
7, 77879, Note_on_c, 5, 67, 0
7, 77880, Note_on_c, 5, 68, 85
7, 77939, Note_on_c, 5, 68, 0
7, 77940, Note_on_c, 5, 65, 85
7, 77999, Note_on_c, 5, 65, 0
7, 78000, Note_on_c, 5, 55, 85
7, 78000, Note_on_c, 5, 58, 85
7, 78000, Note_on_c, 5, 63, 85
7, 78179, Note_on_c, 5, 63, 0
7, 78179, Note_on_c, 5, 58, 0
7, 78179, Note_on_c, 5, 55, 0
7, 79440, Note_on_c, 5, 72, 85
7, 79469, Note_on_c, 5, 72, 0
7, 79470, Note_on_c, 5, 71, 85
7, 79499, Note_on_c, 5, 71, 0
7, 79500, Note_on_c, 5, 72, 85
7, 79529, Note_on_c, 5, 72, 0
7, 79530, Note_on_c, 5, 67, 85
7, 79559, Note_on_c, 5, 67, 0
7, 79560, Note_on_c, 5, 68, 85
7, 79589, Note_on_c, 5, 68, 0
7, 79590, Note_on_c, 5, 65, 85
7, 79619, Note_on_c, 5, 65, 0
7, 79620, Note_on_c, 5, 67, 85
7, 79649, Note_on_c, 5, 67, 0
7, 79650, Note_on_c, 5, 63, 85
7, 79679, Note_on_c, 5, 63, 0
7, 79680, Note_on_c, 5, 65, 85
7, 79709, Note_on_c, 5, 65, 0
7, 79710, Note_on_c, 5, 62, 85
7, 79739, Note_on_c, 5, 62, 0
7, 79740, Note_on_c, 5, 63, 85
7, 79769, Note_on_c, 5, 63, 0
7, 79770, Note_on_c, 5, 60, 85
7, 79799, Note_on_c, 5, 60, 0
7, 79800, Note_on_c, 5, 62, 85
7, 79829, Note_on_c, 5, 62, 0
7, 79830, Note_on_c, 5, 59, 85
7, 79859, Note_on_c, 5, 59, 0
7, 79860, Note_on_c, 5, 60, 85
7, 79919, Note_on_c, 5, 60, 0
7, 79920, Note_on_c, 5, 68, 85
7, 79979, Note_on_c, 5, 68, 0
7, 79980, Note_on_c, 5, 68, 85
7, 79995, Note_on_c, 5, 68, 0
7, 79995, Note_on_c, 5, 70, 85
7, 80010, Note_on_c, 5, 70, 0
7, 80010, Note_on_c, 5, 68, 85
7, 80040, Note_on_c, 5, 68, 0
7, 80040, Note_on_c, 5, 67, 85
7, 80129, Note_on_c, 5, 67, 0
7, 80130, Note_on_c, 5, 69, 85
7, 80159, Note_on_c, 5, 69, 0
7, 80160, Note_on_c, 5, 71, 85
7, 80189, Note_on_c, 5, 71, 0
7, 80190, Note_on_c, 5, 67, 85
7, 80219, Note_on_c, 5, 67, 0
7, 80220, Note_on_c, 5, 72, 85
7, 80249, Note_on_c, 5, 72, 0
7, 80250, Note_on_c, 5, 71, 85
7, 80279, Note_on_c, 5, 71, 0
7, 80280, Note_on_c, 5, 72, 85
7, 80369, Note_on_c, 5, 72, 0
7, 80370, Note_on_c, 5, 74, 85
7, 80399, Note_on_c, 5, 74, 0
7, 80400, Note_on_c, 5, 75, 85
7, 80429, Note_on_c, 5, 75, 0
7, 80430, Note_on_c, 5, 74, 85
7, 80459, Note_on_c, 5, 74, 0
7, 80460, Note_on_c, 5, 77, 85
7, 80489, Note_on_c, 5, 77, 0
7, 80490, Note_on_c, 5, 75, 85
7, 80519, Note_on_c, 5, 75, 0
7, 80520, Note_on_c, 5, 74, 85
7, 80549, Note_on_c, 5, 74, 0
7, 80550, Note_on_c, 5, 72, 85
7, 80579, Note_on_c, 5, 72, 0
7, 80580, Note_on_c, 5, 78, 85
7, 80609, Note_on_c, 5, 78, 0
7, 80610, Note_on_c, 5, 79, 85
7, 80639, Note_on_c, 5, 79, 0
7, 80640, Note_on_c, 5, 67, 85
7, 80699, Note_on_c, 5, 67, 0
7, 80880, Note_on_c, 5, 67, 85
7, 80909, Note_on_c, 5, 67, 0
7, 80910, Note_on_c, 5, 68, 85
7, 80939, Note_on_c, 5, 68, 0
7, 80940, Note_on_c, 5, 70, 85
7, 80999, Note_on_c, 5, 70, 0
7, 81000, Note_on_c, 5, 73, 85
7, 81119, Note_on_c, 5, 73, 0
7, 81120, Note_on_c, 5, 72, 85
7, 81179, Note_on_c, 5, 72, 0
7, 81180, Note_on_c, 5, 64, 85
7, 81239, Note_on_c, 5, 64, 0
7, 81240, Note_on_c, 5, 65, 85
7, 81299, Note_on_c, 5, 65, 0
7, 81300, Note_on_c, 5, 70, 85
7, 81329, Note_on_c, 5, 70, 0
7, 81330, Note_on_c, 5, 67, 85
7, 81359, Note_on_c, 5, 67, 0
7, 81360, Note_on_c, 5, 68, 85
7, 81419, Note_on_c, 5, 68, 0
7, 81600, Note_on_c, 5, 69, 85
7, 81629, Note_on_c, 5, 69, 0
7, 81630, Note_on_c, 5, 70, 85
7, 81659, Note_on_c, 5, 70, 0
7, 81660, Note_on_c, 5, 72, 85
7, 81719, Note_on_c, 5, 72, 0
7, 81720, Note_on_c, 5, 75, 85
7, 81839, Note_on_c, 5, 75, 0
7, 81840, Note_on_c, 5, 74, 85
7, 81899, Note_on_c, 5, 74, 0
7, 81900, Note_on_c, 5, 66, 85
7, 81959, Note_on_c, 5, 66, 0
7, 81960, Note_on_c, 5, 67, 85
7, 82019, Note_on_c, 5, 67, 0
7, 82020, Note_on_c, 5, 72, 85
7, 82049, Note_on_c, 5, 72, 0
7, 82050, Note_on_c, 5, 69, 85
7, 82079, Note_on_c, 5, 69, 0
7, 82080, Note_on_c, 5, 71, 85
7, 82139, Note_on_c, 5, 71, 0
7, 82320, Note_on_c, 5, 79, 85
7, 82349, Note_on_c, 5, 79, 0
7, 82350, Note_on_c, 5, 78, 85
7, 82379, Note_on_c, 5, 78, 0
7, 82380, Note_on_c, 5, 79, 85
7, 82409, Note_on_c, 5, 79, 0
7, 82410, Note_on_c, 5, 74, 85
7, 82439, Note_on_c, 5, 74, 0
7, 82440, Note_on_c, 5, 75, 85
7, 82469, Note_on_c, 5, 75, 0
7, 82470, Note_on_c, 5, 72, 85
7, 82499, Note_on_c, 5, 72, 0
7, 82500, Note_on_c, 5, 74, 85
7, 82529, Note_on_c, 5, 74, 0
7, 82530, Note_on_c, 5, 71, 85
7, 82559, Note_on_c, 5, 71, 0
7, 82560, Note_on_c, 5, 72, 85
7, 82589, Note_on_c, 5, 72, 0
7, 82590, Note_on_c, 5, 69, 85
7, 82619, Note_on_c, 5, 69, 0
7, 82620, Note_on_c, 5, 71, 85
7, 82649, Note_on_c, 5, 71, 0
7, 82650, Note_on_c, 5, 67, 85
7, 82679, Note_on_c, 5, 67, 0
7, 82680, Note_on_c, 5, 71, 85
7, 82709, Note_on_c, 5, 71, 0
7, 82710, Note_on_c, 5, 74, 85
7, 82739, Note_on_c, 5, 74, 0
7, 82739, Note_on_c, 5, 77, 85
7, 82768, Note_on_c, 5, 77, 0
7, 82769, Note_on_c, 5, 74, 85
7, 82798, Note_on_c, 5, 74, 0
7, 82799, Note_on_c, 5, 75, 85
7, 82828, Note_on_c, 5, 75, 0
7, 82829, Note_on_c, 5, 72, 85
7, 82858, Note_on_c, 5, 72, 0
7, 82859, Note_on_c, 5, 74, 85
7, 82888, Note_on_c, 5, 74, 0
7, 82889, Note_on_c, 5, 71, 85
7, 82918, Note_on_c, 5, 71, 0
7, 82919, Note_on_c, 5, 72, 85
7, 82948, Note_on_c, 5, 72, 0
7, 82949, Note_on_c, 5, 69, 85
7, 82978, Note_on_c, 5, 69, 0
7, 82979, Note_on_c, 5, 71, 85
7, 83008, Note_on_c, 5, 71, 0
7, 83009, Note_on_c, 5, 67, 85
7, 83038, Note_on_c, 5, 67, 0
7, 83039, Note_on_c, 5, 71, 85
7, 83068, Note_on_c, 5, 71, 0
7, 83069, Note_on_c, 5, 74, 85
7, 83098, Note_on_c, 5, 74, 0
7, 83099, Note_on_c, 5, 75, 85
7, 83118, Note_on_c, 5, 75, 0
7, 83119, Note_on_c, 5, 73, 85
7, 83138, Note_on_c, 5, 73, 0
7, 83139, Note_on_c, 5, 72, 85
7, 83158, Note_on_c, 5, 72, 0
7, 83159, Note_on_c, 5, 73, 85
7, 83238, Note_on_c, 5, 73, 0
7, 83239, Note_on_c, 5, 72, 85
7, 83258, Note_on_c, 5, 72, 0
7, 83259, Note_on_c, 5, 71, 85
7, 83278, Note_on_c, 5, 71, 0
7, 83279, Note_on_c, 5, 72, 85
7, 83368, Note_on_c, 5, 72, 0
7, 83369, Note_on_c, 5, 80, 85
7, 83398, Note_on_c, 5, 80, 0
7, 83399, Note_on_c, 5, 71, 85
7, 83428, Note_on_c, 5, 71, 0
7, 83429, Note_on_c, 5, 72, 85
7, 83458, Note_on_c, 5, 72, 0
7, 83459, Note_on_c, 5, 71, 85
7, 83488, Note_on_c, 5, 71, 0
7, 83489, Note_on_c, 5, 67, 85
7, 83518, Note_on_c, 5, 67, 0
7, 83519, Note_on_c, 5, 62, 85
7, 83548, Note_on_c, 5, 62, 0
7, 83549, Note_on_c, 5, 59, 85
7, 83578, Note_on_c, 5, 59, 0
7, 83580, Note_on_c, 5, 55, 85
7, 83640, Note_on_c, 5, 55, 0
7, 83640, Note_on_c, 5, 62, 85
7, 83659, Note_on_c, 5, 62, 0
7, 83660, Note_on_c, 5, 63, 85
7, 83679, Note_on_c, 5, 63, 0
7, 83680, Note_on_c, 5, 65, 85
7, 83699, Note_on_c, 5, 65, 0
7, 83700, Note_on_c, 5, 65, 85
7, 83719, Note_on_c, 5, 65, 0
7, 83720, Note_on_c, 5, 67, 85
7, 83739, Note_on_c, 5, 67, 0
7, 83740, Note_on_c, 5, 69, 85
7, 83759, Note_on_c, 5, 69, 0
7, 83760, Note_on_c, 5, 69, 85
7, 83779, Note_on_c, 5, 69, 0
7, 83780, Note_on_c, 5, 71, 85
7, 83799, Note_on_c, 5, 71, 0
7, 83800, Note_on_c, 5, 72, 85
7, 83819, Note_on_c, 5, 72, 0
7, 83820, Note_on_c, 5, 72, 85
7, 83849, Note_on_c, 5, 72, 0
7, 83850, Note_on_c, 5, 67, 85
7, 83879, Note_on_c, 5, 67, 0
7, 83880, Note_on_c, 5, 63, 85
7, 83909, Note_on_c, 5, 63, 0
7, 83910, Note_on_c, 5, 60, 85
7, 83939, Note_on_c, 5, 60, 0
7, 83940, Note_on_c, 5, 55, 85
7, 83999, Note_on_c, 5, 55, 0
7, 84000, Note_on_c, 5, 63, 85
7, 84019, Note_on_c, 5, 63, 0
7, 84020, Note_on_c, 5, 65, 85
7, 84039, Note_on_c, 5, 65, 0
7, 84040, Note_on_c, 5, 67, 85
7, 84059, Note_on_c, 5, 67, 0
7, 84060, Note_on_c, 5, 67, 85
7, 84079, Note_on_c, 5, 67, 0
7, 84080, Note_on_c, 5, 69, 85
7, 84099, Note_on_c, 5, 69, 0
7, 84100, Note_on_c, 5, 71, 85
7, 84119, Note_on_c, 5, 71, 0
7, 84120, Note_on_c, 5, 71, 85
7, 84139, Note_on_c, 5, 71, 0
7, 84140, Note_on_c, 5, 72, 85
7, 84159, Note_on_c, 5, 72, 0
7, 84160, Note_on_c, 5, 74, 85
7, 84179, Note_on_c, 5, 74, 0
7, 84180, Note_on_c, 5, 74, 85
7, 84209, Note_on_c, 5, 74, 0
7, 84210, Note_on_c, 5, 71, 85
7, 84239, Note_on_c, 5, 71, 0
7, 84240, Note_on_c, 5, 65, 85
7, 84269, Note_on_c, 5, 65, 0
7, 84270, Note_on_c, 5, 62, 85
7, 84299, Note_on_c, 5, 62, 0
7, 84300, Note_on_c, 5, 55, 85
7, 84359, Note_on_c, 5, 55, 0
7, 84360, Note_on_c, 5, 67, 85
7, 84379, Note_on_c, 5, 67, 0
7, 84380, Note_on_c, 5, 69, 85
7, 84399, Note_on_c, 5, 69, 0
7, 84400, Note_on_c, 5, 71, 85
7, 84419, Note_on_c, 5, 71, 0
7, 84420, Note_on_c, 5, 71, 85
7, 84439, Note_on_c, 5, 71, 0
7, 84440, Note_on_c, 5, 72, 85
7, 84459, Note_on_c, 5, 72, 0
7, 84460, Note_on_c, 5, 74, 85
7, 84479, Note_on_c, 5, 74, 0
7, 84480, Note_on_c, 5, 74, 85
7, 84499, Note_on_c, 5, 74, 0
7, 84500, Note_on_c, 5, 75, 85
7, 84519, Note_on_c, 5, 75, 0
7, 84520, Note_on_c, 5, 77, 85
7, 84539, Note_on_c, 5, 77, 0
7, 84540, Note_on_c, 5, 75, 85
7, 84569, Note_on_c, 5, 75, 0
7, 84570, Note_on_c, 5, 72, 85
7, 84599, Note_on_c, 5, 72, 0
7, 84600, Note_on_c, 5, 71, 85
7, 84629, Note_on_c, 5, 71, 0
7, 84630, Note_on_c, 5, 72, 85
7, 84659, Note_on_c, 5, 72, 0
7, 84660, Note_on_c, 5, 73, 85
7, 84689, Note_on_c, 5, 73, 0
7, 84690, Note_on_c, 5, 72, 85
7, 84719, Note_on_c, 5, 72, 0
7, 84720, Note_on_c, 5, 71, 85
7, 84749, Note_on_c, 5, 71, 0
7, 84750, Note_on_c, 5, 72, 85
7, 84779, Note_on_c, 5, 72, 0
7, 84780, Note_on_c, 5, 68, 85
7, 84799, Note_on_c, 5, 68, 0
7, 84800, Note_on_c, 5, 71, 85
7, 84819, Note_on_c, 5, 71, 0
7, 84820, Note_on_c, 5, 72, 85
7, 84839, Note_on_c, 5, 72, 0
7, 84840, Note_on_c, 5, 65, 85
7, 84859, Note_on_c, 5, 65, 0
7, 84860, Note_on_c, 5, 71, 85
7, 84879, Note_on_c, 5, 71, 0
7, 84880, Note_on_c, 5, 72, 85
7, 84899, Note_on_c, 5, 72, 0
7, 84900, Note_on_c, 5, 67, 85
7, 84929, Note_on_c, 5, 67, 0
7, 84930, Note_on_c, 5, 72, 85
7, 84959, Note_on_c, 5, 72, 0
7, 84960, Note_on_c, 5, 71, 85
7, 84989, Note_on_c, 5, 71, 0
7, 84990, Note_on_c, 5, 72, 85
7, 85019, Note_on_c, 5, 72, 0
7, 85020, Note_on_c, 5, 75, 85
7, 85049, Note_on_c, 5, 75, 0
7, 85050, Note_on_c, 5, 72, 85
7, 85079, Note_on_c, 5, 72, 0
7, 85080, Note_on_c, 5, 71, 85
7, 85109, Note_on_c, 5, 71, 0
7, 85110, Note_on_c, 5, 72, 85
7, 85139, Note_on_c, 5, 72, 0
7, 85140, Note_on_c, 5, 67, 85
7, 85159, Note_on_c, 5, 67, 0
7, 85160, Note_on_c, 5, 70, 85
7, 85179, Note_on_c, 5, 70, 0
7, 85180, Note_on_c, 5, 72, 85
7, 85199, Note_on_c, 5, 72, 0
7, 85200, Note_on_c, 5, 63, 85
7, 85219, Note_on_c, 5, 63, 0
7, 85220, Note_on_c, 5, 71, 85
7, 85239, Note_on_c, 5, 71, 0
7, 85240, Note_on_c, 5, 72, 85
7, 85259, Note_on_c, 5, 72, 0
7, 85260, Note_on_c, 5, 65, 85
7, 85289, Note_on_c, 5, 65, 0
7, 85290, Note_on_c, 5, 72, 85
7, 85319, Note_on_c, 5, 72, 0
7, 85320, Note_on_c, 5, 71, 85
7, 85349, Note_on_c, 5, 71, 0
7, 85350, Note_on_c, 5, 72, 85
7, 85379, Note_on_c, 5, 72, 0
7, 85380, Note_on_c, 5, 80, 85
7, 85409, Note_on_c, 5, 80, 0
7, 85410, Note_on_c, 5, 72, 85
7, 85439, Note_on_c, 5, 72, 0
7, 85440, Note_on_c, 5, 71, 85
7, 85469, Note_on_c, 5, 71, 0
7, 85470, Note_on_c, 5, 72, 85
7, 85499, Note_on_c, 5, 72, 0
7, 85500, Note_on_c, 5, 65, 85
7, 85519, Note_on_c, 5, 65, 0
7, 85520, Note_on_c, 5, 71, 85
7, 85539, Note_on_c, 5, 71, 0
7, 85540, Note_on_c, 5, 72, 85
7, 85559, Note_on_c, 5, 72, 0
7, 85560, Note_on_c, 5, 62, 85
7, 85579, Note_on_c, 5, 62, 0
7, 85580, Note_on_c, 5, 71, 85
7, 85599, Note_on_c, 5, 71, 0
7, 85600, Note_on_c, 5, 72, 85
7, 85619, Note_on_c, 5, 72, 0
7, 85620, Note_on_c, 5, 63, 85
7, 85679, Note_on_c, 5, 63, 0
7, 85680, Note_on_c, 5, 67, 85
7, 85739, Note_on_c, 5, 67, 0
7, 85740, Note_on_c, 5, 72, 85
7, 85799, Note_on_c, 5, 72, 0
7, 85800, Note_on_c, 5, 75, 85
7, 85860, Note_on_c, 5, 75, 0
7, 85860, Note_on_c, 5, 79, 85
7, 85875, Note_on_c, 5, 79, 0
7, 85875, Note_on_c, 5, 78, 85
7, 85890, Note_on_c, 5, 78, 0
7, 85890, Note_on_c, 5, 79, 85
7, 85905, Note_on_c, 5, 79, 0
7, 85905, Note_on_c, 5, 78, 85
7, 85920, Note_on_c, 5, 78, 0
7, 85920, Note_on_c, 5, 79, 85
7, 85935, Note_on_c, 5, 79, 0
7, 85935, Note_on_c, 5, 78, 85
7, 85950, Note_on_c, 5, 78, 0
7, 85950, Note_on_c, 5, 76, 85
7, 85965, Note_on_c, 5, 76, 0
7, 85965, Note_on_c, 5, 78, 85
7, 85980, Note_on_c, 5, 78, 0
7, 85980, Note_on_c, 5, 79, 85
7, 86040, Note_on_c, 5, 79, 0
7, 86040, Note_on_c, 5, 74, 85
7, 86100, Note_on_c, 5, 74, 0
7, 86100, Note_on_c, 5, 75, 85
7, 86160, Note_on_c, 5, 75, 0
7, 86160, Note_on_c, 5, 72, 85
7, 86220, Note_on_c, 5, 72, 0
7, 86220, Note_on_c, 5, 67, 85
7, 86280, Note_on_c, 5, 67, 0
7, 86280, Note_on_c, 5, 71, 85
7, 86340, Note_on_c, 5, 71, 0
7, 86340, Note_on_c, 5, 72, 85
7, 86370, Note_on_c, 5, 72, 0
7, 86370, Note_on_c, 5, 67, 85
7, 86400, Note_on_c, 5, 67, 0
7, 86400, Note_on_c, 5, 68, 85
7, 86430, Note_on_c, 5, 68, 0
7, 86430, Note_on_c, 5, 65, 85
7, 86460, Note_on_c, 5, 65, 0
7, 86460, Note_on_c, 5, 67, 85
7, 86490, Note_on_c, 5, 67, 0
7, 86490, Note_on_c, 5, 63, 85
7, 86520, Note_on_c, 5, 63, 0
7, 86520, Note_on_c, 5, 65, 85
7, 86550, Note_on_c, 5, 65, 0
7, 86550, Note_on_c, 5, 62, 85
7, 86580, Note_on_c, 5, 62, 0
7, 86580, Note_on_c, 5, 63, 85
7, 86610, Note_on_c, 5, 63, 0
7, 86610, Note_on_c, 5, 60, 85
7, 86640, Note_on_c, 5, 60, 0
7, 86640, Note_on_c, 5, 62, 85
7, 86670, Note_on_c, 5, 62, 0
7, 86670, Note_on_c, 5, 59, 85
7, 86700, Note_on_c, 5, 59, 0
7, 86700, Note_on_c, 5, 60, 85
7, 86760, Note_on_c, 5, 60, 0
7, 86760, Note_on_c, 5, 67, 85
7, 86790, Note_on_c, 5, 67, 0
7, 86790, Note_on_c, 5, 65, 85
7, 86820, Note_on_c, 5, 65, 0
7, 86820, Note_on_c, 5, 67, 85
7, 86880, Note_on_c, 5, 67, 0
7, 86880, Note_on_c, 5, 75, 85
7, 86940, Note_on_c, 5, 75, 0
7, 86940, Note_on_c, 5, 71, 85
7, 87000, Note_on_c, 5, 71, 0
7, 87000, Note_on_c, 5, 72, 85
7, 87060, Note_on_c, 5, 72, 0
7, 87120, Note_on_c, 5, 65, 85
7, 87150, Note_on_c, 5, 65, 0
7, 87150, Note_on_c, 5, 63, 85
7, 87180, Note_on_c, 5, 63, 0
7, 87180, Note_on_c, 5, 65, 85
7, 87240, Note_on_c, 5, 65, 0
7, 87240, Note_on_c, 5, 74, 85
7, 87330, Note_on_c, 5, 74, 0
7, 87330, Note_on_c, 5, 72, 85
7, 87360, Note_on_c, 5, 72, 0
7, 87360, Note_on_c, 5, 71, 85
7, 87390, Note_on_c, 5, 71, 0
7, 87390, Note_on_c, 5, 72, 85
7, 87420, Note_on_c, 5, 72, 0
7, 87420, Note_on_c, 5, 74, 85
7, 87450, Note_on_c, 5, 74, 0
7, 87450, Note_on_c, 5, 72, 85
7, 87480, Note_on_c, 5, 72, 0
7, 87480, Note_on_c, 5, 71, 85
7, 87510, Note_on_c, 5, 71, 0
7, 87510, Note_on_c, 5, 69, 85
7, 87540, Note_on_c, 5, 69, 0
7, 87540, Note_on_c, 5, 67, 85
7, 87570, Note_on_c, 5, 67, 0
7, 87570, Note_on_c, 5, 65, 85
7, 87600, Note_on_c, 5, 65, 0
7, 87600, Note_on_c, 5, 68, 85
7, 87720, Note_on_c, 5, 68, 0
7, 87720, Note_on_c, 5, 67, 85
7, 87809, Note_on_c, 5, 67, 0
7, 87810, Note_on_c, 5, 65, 85
7, 87839, Note_on_c, 5, 65, 0
7, 87840, Note_on_c, 5, 63, 85
7, 87869, Note_on_c, 5, 63, 0
7, 87870, Note_on_c, 5, 62, 85
7, 87899, Note_on_c, 5, 62, 0
7, 87900, Note_on_c, 5, 63, 85
7, 87929, Note_on_c, 5, 63, 0
7, 87930, Note_on_c, 5, 60, 85
7, 87959, Note_on_c, 5, 60, 0
7, 87960, Note_on_c, 5, 62, 85
7, 87989, Note_on_c, 5, 62, 0
7, 87990, Note_on_c, 5, 59, 85
7, 88019, Note_on_c, 5, 59, 0
7, 88020, Note_on_c, 5, 60, 85
7, 88049, Note_on_c, 5, 60, 0
7, 88050, Note_on_c, 5, 55, 85
7, 88079, Note_on_c, 5, 55, 0
7, 88080, Note_on_c, 5, 60, 85
7, 88109, Note_on_c, 5, 60, 0
7, 88110, Note_on_c, 5, 59, 85
7, 88139, Note_on_c, 5, 59, 0
7, 88140, Note_on_c, 5, 60, 85
7, 88169, Note_on_c, 5, 60, 0
7, 88170, Note_on_c, 5, 55, 85
7, 88199, Note_on_c, 5, 55, 0
7, 88200, Note_on_c, 5, 63, 85
7, 88229, Note_on_c, 5, 63, 0
7, 88230, Note_on_c, 5, 62, 85
7, 88259, Note_on_c, 5, 62, 0
7, 88260, Note_on_c, 5, 63, 85
7, 88289, Note_on_c, 5, 63, 0
7, 88290, Note_on_c, 5, 62, 85
7, 88319, Note_on_c, 5, 62, 0
7, 88320, Note_on_c, 5, 67, 85
7, 88349, Note_on_c, 5, 67, 0
7, 88350, Note_on_c, 5, 63, 85
7, 88379, Note_on_c, 5, 63, 0
7, 88380, Note_on_c, 5, 65, 85
7, 88409, Note_on_c, 5, 65, 0
7, 88410, Note_on_c, 5, 62, 85
7, 88439, Note_on_c, 5, 62, 0
7, 88440, Note_on_c, 5, 63, 85
7, 88469, Note_on_c, 5, 63, 0
7, 88470, Note_on_c, 5, 60, 85
7, 88499, Note_on_c, 5, 60, 0
7, 88500, Note_on_c, 5, 59, 85
7, 88529, Note_on_c, 5, 59, 0
7, 88530, Note_on_c, 5, 67, 85
7, 88559, Note_on_c, 5, 67, 0
7, 88560, Note_on_c, 5, 74, 85
7, 88589, Note_on_c, 5, 74, 0
7, 88590, Note_on_c, 5, 72, 85
7, 88619, Note_on_c, 5, 72, 0
7, 88620, Note_on_c, 5, 74, 85
7, 88649, Note_on_c, 5, 74, 0
7, 88650, Note_on_c, 5, 67, 85
7, 88679, Note_on_c, 5, 67, 0
7, 88680, Note_on_c, 5, 77, 85
7, 88709, Note_on_c, 5, 77, 0
7, 88710, Note_on_c, 5, 75, 85
7, 88739, Note_on_c, 5, 75, 0
7, 88740, Note_on_c, 5, 77, 85
7, 88769, Note_on_c, 5, 77, 0
7, 88770, Note_on_c, 5, 74, 85
7, 88799, Note_on_c, 5, 74, 0
7, 88800, Note_on_c, 5, 79, 85
7, 88829, Note_on_c, 5, 79, 0
7, 88830, Note_on_c, 5, 75, 85
7, 88859, Note_on_c, 5, 75, 0
7, 88860, Note_on_c, 5, 77, 85
7, 88919, Note_on_c, 5, 77, 0
7, 88920, Note_on_c, 5, 67, 85
7, 89009, Note_on_c, 5, 67, 0
7, 89010, Note_on_c, 5, 69, 85
7, 89039, Note_on_c, 5, 69, 0
7, 89040, Note_on_c, 5, 71, 85
7, 89069, Note_on_c, 5, 71, 0
7, 89070, Note_on_c, 5, 72, 85
7, 89099, Note_on_c, 5, 72, 0
7, 89100, Note_on_c, 5, 74, 85
7, 89129, Note_on_c, 5, 74, 0
7, 89130, Note_on_c, 5, 75, 85
7, 89159, Note_on_c, 5, 75, 0
7, 89160, Note_on_c, 5, 77, 85
7, 89189, Note_on_c, 5, 77, 0
7, 89190, Note_on_c, 5, 74, 85
7, 89219, Note_on_c, 5, 74, 0
7, 89220, Note_on_c, 5, 75, 85
7, 89249, Note_on_c, 5, 75, 0
7, 89250, Note_on_c, 5, 80, 85
7, 89279, Note_on_c, 5, 80, 0
7, 89280, Note_on_c, 5, 79, 85
7, 89309, Note_on_c, 5, 79, 0
7, 89310, Note_on_c, 5, 77, 85
7, 89339, Note_on_c, 5, 77, 0
7, 89340, Note_on_c, 5, 79, 85
7, 89369, Note_on_c, 5, 79, 0
7, 89370, Note_on_c, 5, 75, 85
7, 89399, Note_on_c, 5, 75, 0
7, 89400, Note_on_c, 5, 77, 85
7, 89429, Note_on_c, 5, 77, 0
7, 89430, Note_on_c, 5, 74, 85
7, 89459, Note_on_c, 5, 74, 0
7, 89460, Note_on_c, 5, 75, 85
7, 89489, Note_on_c, 5, 75, 0
7, 89490, Note_on_c, 5, 79, 85
7, 89519, Note_on_c, 5, 79, 0
7, 89520, Note_on_c, 5, 75, 85
7, 89549, Note_on_c, 5, 75, 0
7, 89550, Note_on_c, 5, 74, 85
7, 89579, Note_on_c, 5, 74, 0
7, 89580, Note_on_c, 5, 75, 85
7, 89609, Note_on_c, 5, 75, 0
7, 89610, Note_on_c, 5, 79, 85
7, 89639, Note_on_c, 5, 79, 0
7, 89640, Note_on_c, 5, 72, 85
7, 89669, Note_on_c, 5, 72, 0
7, 89670, Note_on_c, 5, 71, 85
7, 89699, Note_on_c, 5, 71, 0
7, 89700, Note_on_c, 5, 72, 85
7, 89729, Note_on_c, 5, 72, 0
7, 89730, Note_on_c, 5, 79, 85
7, 89759, Note_on_c, 5, 79, 0
7, 89760, Note_on_c, 5, 70, 85
7, 89789, Note_on_c, 5, 70, 0
7, 89790, Note_on_c, 5, 68, 85
7, 89819, Note_on_c, 5, 68, 0
7, 89820, Note_on_c, 5, 70, 85
7, 89849, Note_on_c, 5, 70, 0
7, 89850, Note_on_c, 5, 79, 85
7, 89879, Note_on_c, 5, 79, 0
7, 89880, Note_on_c, 5, 68, 85
7, 89909, Note_on_c, 5, 68, 0
7, 89910, Note_on_c, 5, 67, 85
7, 89939, Note_on_c, 5, 67, 0
7, 89940, Note_on_c, 5, 65, 85
7, 89969, Note_on_c, 5, 65, 0
7, 89970, Note_on_c, 5, 60, 85
7, 89999, Note_on_c, 5, 60, 0
7, 90000, Note_on_c, 5, 68, 85
7, 90029, Note_on_c, 5, 68, 0
7, 90030, Note_on_c, 5, 67, 85
7, 90059, Note_on_c, 5, 67, 0
7, 90060, Note_on_c, 5, 69, 85
7, 90089, Note_on_c, 5, 69, 0
7, 90090, Note_on_c, 5, 65, 85
7, 90119, Note_on_c, 5, 65, 0
7, 90120, Note_on_c, 5, 72, 85
7, 90149, Note_on_c, 5, 72, 0
7, 90150, Note_on_c, 5, 70, 85
7, 90179, Note_on_c, 5, 70, 0
7, 90180, Note_on_c, 5, 72, 85
7, 90209, Note_on_c, 5, 72, 0
7, 90210, Note_on_c, 5, 65, 85
7, 90239, Note_on_c, 5, 65, 0
7, 90240, Note_on_c, 5, 70, 85
7, 90269, Note_on_c, 5, 70, 0
7, 90270, Note_on_c, 5, 72, 85
7, 90299, Note_on_c, 5, 72, 0
7, 90300, Note_on_c, 5, 74, 85
7, 90329, Note_on_c, 5, 74, 0
7, 90330, Note_on_c, 5, 77, 85
7, 90359, Note_on_c, 5, 77, 0
7, 90360, Note_on_c, 5, 70, 85
7, 90389, Note_on_c, 5, 70, 0
7, 90390, Note_on_c, 5, 69, 85
7, 90419, Note_on_c, 5, 69, 0
7, 90420, Note_on_c, 5, 70, 85
7, 90449, Note_on_c, 5, 70, 0
7, 90450, Note_on_c, 5, 77, 85
7, 90479, Note_on_c, 5, 77, 0
7, 90480, Note_on_c, 5, 68, 85
7, 90509, Note_on_c, 5, 68, 0
7, 90510, Note_on_c, 5, 67, 85
7, 90539, Note_on_c, 5, 67, 0
7, 90540, Note_on_c, 5, 68, 85
7, 90569, Note_on_c, 5, 68, 0
7, 90570, Note_on_c, 5, 77, 85
7, 90599, Note_on_c, 5, 77, 0
7, 90600, Note_on_c, 5, 67, 85
7, 90629, Note_on_c, 5, 67, 0
7, 90630, Note_on_c, 5, 65, 85
7, 90659, Note_on_c, 5, 65, 0
7, 90660, Note_on_c, 5, 63, 85
7, 90689, Note_on_c, 5, 63, 0
7, 90690, Note_on_c, 5, 58, 85
7, 90719, Note_on_c, 5, 58, 0
7, 90720, Note_on_c, 5, 67, 85
7, 90749, Note_on_c, 5, 67, 0
7, 90750, Note_on_c, 5, 65, 85
7, 90779, Note_on_c, 5, 65, 0
7, 90780, Note_on_c, 5, 67, 85
7, 90809, Note_on_c, 5, 67, 0
7, 90810, Note_on_c, 5, 63, 85
7, 90839, Note_on_c, 5, 63, 0
7, 90840, Note_on_c, 5, 70, 85
7, 90869, Note_on_c, 5, 70, 0
7, 90870, Note_on_c, 5, 68, 85
7, 90899, Note_on_c, 5, 68, 0
7, 90900, Note_on_c, 5, 70, 85
7, 90929, Note_on_c, 5, 70, 0
7, 90930, Note_on_c, 5, 63, 85
7, 90959, Note_on_c, 5, 63, 0
7, 90960, Note_on_c, 5, 68, 85
7, 90989, Note_on_c, 5, 68, 0
7, 90990, Note_on_c, 5, 70, 85
7, 91019, Note_on_c, 5, 70, 0
7, 91020, Note_on_c, 5, 72, 85
7, 91049, Note_on_c, 5, 72, 0
7, 91050, Note_on_c, 5, 63, 85
7, 91079, Note_on_c, 5, 63, 0
7, 91080, Note_on_c, 5, 68, 85
7, 91109, Note_on_c, 5, 68, 0
7, 91110, Note_on_c, 5, 72, 85
7, 91139, Note_on_c, 5, 72, 0
7, 91140, Note_on_c, 5, 65, 85
7, 91199, Note_on_c, 5, 65, 0
7, 91200, Note_on_c, 5, 77, 85
7, 91289, Note_on_c, 5, 77, 0
7, 91290, Note_on_c, 5, 74, 85
7, 91319, Note_on_c, 5, 74, 0
7, 91320, Note_on_c, 5, 75, 85
7, 91349, Note_on_c, 5, 75, 0
7, 91350, Note_on_c, 5, 72, 85
7, 91379, Note_on_c, 5, 72, 0
7, 91380, Note_on_c, 5, 74, 85
7, 91409, Note_on_c, 5, 74, 0
7, 91410, Note_on_c, 5, 65, 85
7, 91439, Note_on_c, 5, 65, 0
7, 91440, Note_on_c, 5, 70, 85
7, 91469, Note_on_c, 5, 70, 0
7, 91470, Note_on_c, 5, 74, 85
7, 91499, Note_on_c, 5, 74, 0
7, 91500, Note_on_c, 5, 67, 85
7, 91559, Note_on_c, 5, 67, 0
7, 91560, Note_on_c, 5, 79, 85
7, 91649, Note_on_c, 5, 79, 0
7, 91650, Note_on_c, 5, 75, 85
7, 91679, Note_on_c, 5, 75, 0
7, 91680, Note_on_c, 5, 77, 85
7, 91709, Note_on_c, 5, 77, 0
7, 91710, Note_on_c, 5, 74, 85
7, 91739, Note_on_c, 5, 74, 0
7, 91740, Note_on_c, 5, 75, 85
7, 91769, Note_on_c, 5, 75, 0
7, 91770, Note_on_c, 5, 67, 85
7, 91799, Note_on_c, 5, 67, 0
7, 91800, Note_on_c, 5, 72, 85
7, 91829, Note_on_c, 5, 72, 0
7, 91830, Note_on_c, 5, 75, 85
7, 91859, Note_on_c, 5, 75, 0
7, 91860, Note_on_c, 5, 68, 85
7, 91919, Note_on_c, 5, 68, 0
7, 91920, Note_on_c, 5, 80, 85
7, 92009, Note_on_c, 5, 80, 0
7, 92010, Note_on_c, 5, 77, 85
7, 92039, Note_on_c, 5, 77, 0
7, 92040, Note_on_c, 5, 79, 85
7, 92069, Note_on_c, 5, 79, 0
7, 92070, Note_on_c, 5, 75, 85
7, 92099, Note_on_c, 5, 75, 0
7, 92100, Note_on_c, 5, 77, 85
7, 92129, Note_on_c, 5, 77, 0
7, 92130, Note_on_c, 5, 70, 85
7, 92159, Note_on_c, 5, 70, 0
7, 92160, Note_on_c, 5, 74, 85
7, 92189, Note_on_c, 5, 74, 0
7, 92190, Note_on_c, 5, 77, 85
7, 92219, Note_on_c, 5, 77, 0
7, 92220, Note_on_c, 5, 70, 85
7, 92279, Note_on_c, 5, 70, 0
7, 92280, Note_on_c, 5, 82, 85
7, 92369, Note_on_c, 5, 82, 0
7, 92370, Note_on_c, 5, 79, 85
7, 92399, Note_on_c, 5, 79, 0
7, 92400, Note_on_c, 5, 80, 85
7, 92429, Note_on_c, 5, 80, 0
7, 92430, Note_on_c, 5, 77, 85
7, 92459, Note_on_c, 5, 77, 0
7, 92460, Note_on_c, 5, 79, 85
7, 92489, Note_on_c, 5, 79, 0
7, 92490, Note_on_c, 5, 70, 85
7, 92519, Note_on_c, 5, 70, 0
7, 92520, Note_on_c, 5, 72, 85
7, 92549, Note_on_c, 5, 72, 0
7, 92550, Note_on_c, 5, 68, 85
7, 92579, Note_on_c, 5, 68, 0
7, 92580, Note_on_c, 5, 70, 85
7, 92609, Note_on_c, 5, 70, 0
7, 92610, Note_on_c, 5, 67, 85
7, 92639, Note_on_c, 5, 67, 0
7, 92640, Note_on_c, 5, 68, 85
7, 92669, Note_on_c, 5, 68, 0
7, 92670, Note_on_c, 5, 65, 85
7, 92699, Note_on_c, 5, 65, 0
7, 92700, Note_on_c, 5, 67, 85
7, 92729, Note_on_c, 5, 67, 0
7, 92730, Note_on_c, 5, 63, 85
7, 92759, Note_on_c, 5, 63, 0
7, 92760, Note_on_c, 5, 65, 85
7, 92789, Note_on_c, 5, 65, 0
7, 92790, Note_on_c, 5, 62, 85
7, 92819, Note_on_c, 5, 62, 0
7, 92820, Note_on_c, 5, 63, 85
7, 92879, Note_on_c, 5, 63, 0
7, 92880, Note_on_c, 5, 72, 85
7, 92939, Note_on_c, 5, 72, 0
7, 92940, Note_on_c, 5, 72, 85
7, 92999, Note_on_c, 5, 72, 0
7, 93000, Note_on_c, 5, 70, 85
7, 93089, Note_on_c, 5, 70, 0
7, 93090, Note_on_c, 5, 72, 85
7, 93119, Note_on_c, 5, 72, 0
7, 93120, Note_on_c, 5, 74, 85
7, 93149, Note_on_c, 5, 74, 0
7, 93150, Note_on_c, 5, 70, 85
7, 93179, Note_on_c, 5, 70, 0
7, 93180, Note_on_c, 5, 75, 85
7, 93209, Note_on_c, 5, 75, 0
7, 93210, Note_on_c, 5, 74, 85
7, 93239, Note_on_c, 5, 74, 0
7, 93240, Note_on_c, 5, 75, 85
7, 93329, Note_on_c, 5, 75, 0
7, 93330, Note_on_c, 5, 77, 85
7, 93359, Note_on_c, 5, 77, 0
7, 93360, Note_on_c, 5, 79, 85
7, 93389, Note_on_c, 5, 79, 0
7, 93390, Note_on_c, 5, 77, 85
7, 93419, Note_on_c, 5, 77, 0
7, 93420, Note_on_c, 5, 80, 85
7, 93449, Note_on_c, 5, 80, 0
7, 93450, Note_on_c, 5, 79, 85
7, 93479, Note_on_c, 5, 79, 0
7, 93480, Note_on_c, 5, 77, 85
7, 93509, Note_on_c, 5, 77, 0
7, 93510, Note_on_c, 5, 75, 85
7, 93539, Note_on_c, 5, 75, 0
7, 93540, Note_on_c, 5, 81, 85
7, 93569, Note_on_c, 5, 81, 0
7, 93570, Note_on_c, 5, 82, 85
7, 93599, Note_on_c, 5, 82, 0
7, 93600, Note_on_c, 5, 70, 85
7, 93659, Note_on_c, 5, 70, 0
7, 93900, Note_on_c, 5, 74, 85
7, 93900, Note_on_c, 5, 83, 85
7, 93959, Note_on_c, 5, 83, 0
7, 93959, Note_on_c, 5, 74, 0
7, 93960, Note_on_c, 5, 74, 85
7, 93960, Note_on_c, 5, 83, 85
7, 94019, Note_on_c, 5, 83, 0
7, 94019, Note_on_c, 5, 74, 0
7, 94020, Note_on_c, 5, 74, 85
7, 94020, Note_on_c, 5, 83, 85
7, 94079, Note_on_c, 5, 83, 0
7, 94079, Note_on_c, 5, 74, 0
7, 94080, Note_on_c, 5, 74, 85
7, 94080, Note_on_c, 5, 83, 85
7, 94139, Note_on_c, 5, 83, 0
7, 94139, Note_on_c, 5, 74, 0
7, 94140, Note_on_c, 5, 74, 85
7, 94140, Note_on_c, 5, 83, 85
7, 94199, Note_on_c, 5, 83, 0
7, 94199, Note_on_c, 5, 74, 0
7, 94200, Note_on_c, 5, 74, 85
7, 94200, Note_on_c, 5, 83, 85
7, 94259, Note_on_c, 5, 83, 0
7, 94259, Note_on_c, 5, 74, 0
7, 94260, Note_on_c, 5, 72, 85
7, 94260, Note_on_c, 5, 84, 85
7, 94319, Note_on_c, 5, 84, 0
7, 94319, Note_on_c, 5, 72, 0
7, 94320, Note_on_c, 5, 72, 85
7, 94320, Note_on_c, 5, 84, 85
7, 94379, Note_on_c, 5, 84, 0
7, 94379, Note_on_c, 5, 72, 0
7, 94380, Note_on_c, 5, 72, 85
7, 94380, Note_on_c, 5, 84, 85
7, 94439, Note_on_c, 5, 84, 0
7, 94439, Note_on_c, 5, 72, 0
7, 94440, Note_on_c, 5, 72, 85
7, 94440, Note_on_c, 5, 84, 85
7, 94499, Note_on_c, 5, 84, 0
7, 94499, Note_on_c, 5, 72, 0
7, 94500, Note_on_c, 5, 72, 85
7, 94500, Note_on_c, 5, 84, 85
7, 94559, Note_on_c, 5, 84, 0
7, 94559, Note_on_c, 5, 72, 0
7, 94560, Note_on_c, 5, 72, 85
7, 94560, Note_on_c, 5, 84, 85
7, 94619, Note_on_c, 5, 84, 0
7, 94619, Note_on_c, 5, 72, 0
7, 94620, Note_on_c, 5, 74, 85
7, 94620, Note_on_c, 5, 84, 85
7, 94679, Note_on_c, 5, 84, 0
7, 94679, Note_on_c, 5, 74, 0
7, 94680, Note_on_c, 5, 74, 85
7, 94680, Note_on_c, 5, 84, 85
7, 94739, Note_on_c, 5, 84, 0
7, 94739, Note_on_c, 5, 74, 0
7, 94740, Note_on_c, 5, 74, 85
7, 94740, Note_on_c, 5, 84, 85
7, 94799, Note_on_c, 5, 84, 0
7, 94799, Note_on_c, 5, 74, 0
7, 94800, Note_on_c, 5, 74, 85
7, 94800, Note_on_c, 5, 84, 85
7, 94859, Note_on_c, 5, 84, 0
7, 94859, Note_on_c, 5, 74, 0
7, 94860, Note_on_c, 5, 74, 85
7, 94860, Note_on_c, 5, 84, 85
7, 94919, Note_on_c, 5, 84, 0
7, 94919, Note_on_c, 5, 74, 0
7, 94920, Note_on_c, 5, 74, 85
7, 94920, Note_on_c, 5, 84, 85
7, 94979, Note_on_c, 5, 84, 0
7, 94979, Note_on_c, 5, 74, 0
7, 94980, Note_on_c, 5, 74, 85
7, 94980, Note_on_c, 5, 82, 85
7, 95039, Note_on_c, 5, 82, 0
7, 95039, Note_on_c, 5, 74, 0
7, 95040, Note_on_c, 5, 74, 85
7, 95040, Note_on_c, 5, 82, 85
7, 95099, Note_on_c, 5, 82, 0
7, 95099, Note_on_c, 5, 74, 0
7, 95100, Note_on_c, 5, 74, 85
7, 95100, Note_on_c, 5, 82, 85
7, 95159, Note_on_c, 5, 82, 0
7, 95159, Note_on_c, 5, 74, 0
7, 95160, Note_on_c, 5, 74, 85
7, 95160, Note_on_c, 5, 82, 85
7, 95219, Note_on_c, 5, 82, 0
7, 95219, Note_on_c, 5, 74, 0
7, 95220, Note_on_c, 5, 74, 85
7, 95220, Note_on_c, 5, 82, 85
7, 95279, Note_on_c, 5, 82, 0
7, 95279, Note_on_c, 5, 74, 0
7, 95280, Note_on_c, 5, 74, 85
7, 95280, Note_on_c, 5, 82, 85
7, 95339, Note_on_c, 5, 82, 0
7, 95339, Note_on_c, 5, 74, 0
7, 95340, Note_on_c, 5, 72, 85
7, 95340, Note_on_c, 5, 82, 85
7, 95399, Note_on_c, 5, 82, 0
7, 95399, Note_on_c, 5, 72, 0
7, 95400, Note_on_c, 5, 72, 85
7, 95400, Note_on_c, 5, 82, 85
7, 95459, Note_on_c, 5, 82, 0
7, 95459, Note_on_c, 5, 72, 0
7, 95460, Note_on_c, 5, 72, 85
7, 95460, Note_on_c, 5, 81, 85
7, 95519, Note_on_c, 5, 81, 0
7, 95519, Note_on_c, 5, 72, 0
7, 95520, Note_on_c, 5, 72, 85
7, 95520, Note_on_c, 5, 81, 85
7, 95579, Note_on_c, 5, 81, 0
7, 95579, Note_on_c, 5, 72, 0
7, 95580, Note_on_c, 5, 81, 85
7, 95580, Note_on_c, 5, 72, 85
7, 95639, Note_on_c, 5, 72, 0
7, 95639, Note_on_c, 5, 81, 0
7, 95640, Note_on_c, 5, 72, 85
7, 95640, Note_on_c, 5, 81, 85
7, 95699, Note_on_c, 5, 81, 0
7, 95699, Note_on_c, 5, 72, 0
7, 95700, Note_on_c, 5, 70, 85
7, 95700, Note_on_c, 5, 81, 85
7, 95759, Note_on_c, 5, 81, 0
7, 95759, Note_on_c, 5, 70, 0
7, 95760, Note_on_c, 5, 70, 85
7, 95760, Note_on_c, 5, 81, 85
7, 95819, Note_on_c, 5, 81, 0
7, 95819, Note_on_c, 5, 70, 0
7, 95820, Note_on_c, 5, 70, 85
7, 95820, Note_on_c, 5, 79, 85
7, 95879, Note_on_c, 5, 79, 0
7, 95879, Note_on_c, 5, 70, 0
7, 95880, Note_on_c, 5, 79, 85
7, 95880, Note_on_c, 5, 70, 85
7, 95939, Note_on_c, 5, 70, 0
7, 95939, Note_on_c, 5, 79, 0
7, 95940, Note_on_c, 5, 70, 85
7, 95940, Note_on_c, 5, 79, 85
7, 95999, Note_on_c, 5, 79, 0
7, 95999, Note_on_c, 5, 70, 0
7, 96000, Note_on_c, 5, 70, 85
7, 96000, Note_on_c, 5, 79, 85
7, 96059, Note_on_c, 5, 79, 0
7, 96059, Note_on_c, 5, 70, 0
7, 96060, Note_on_c, 5, 69, 85
7, 96060, Note_on_c, 5, 79, 85
7, 96119, Note_on_c, 5, 79, 0
7, 96119, Note_on_c, 5, 69, 0
7, 96120, Note_on_c, 5, 69, 85
7, 96120, Note_on_c, 5, 79, 85
7, 96179, Note_on_c, 5, 79, 0
7, 96179, Note_on_c, 5, 69, 0
7, 96180, Note_on_c, 5, 69, 85
7, 96180, Note_on_c, 5, 78, 85
7, 96239, Note_on_c, 5, 78, 0
7, 96239, Note_on_c, 5, 69, 0
7, 96240, Note_on_c, 5, 69, 85
7, 96240, Note_on_c, 5, 78, 85
7, 96299, Note_on_c, 5, 78, 0
7, 96299, Note_on_c, 5, 69, 0
7, 96300, Note_on_c, 5, 69, 85
7, 96300, Note_on_c, 5, 78, 85
7, 96359, Note_on_c, 5, 78, 0
7, 96359, Note_on_c, 5, 69, 0
7, 96360, Note_on_c, 5, 69, 85
7, 96360, Note_on_c, 5, 78, 85
7, 96419, Note_on_c, 5, 78, 0
7, 96419, Note_on_c, 5, 69, 0
7, 96420, Note_on_c, 5, 67, 85
7, 96420, Note_on_c, 5, 79, 85
7, 96479, Note_on_c, 5, 79, 0
7, 96479, Note_on_c, 5, 67, 0
7, 96480, Note_on_c, 5, 74, 85
7, 96509, Note_on_c, 5, 74, 0
7, 96510, Note_on_c, 5, 72, 85
7, 96539, Note_on_c, 5, 72, 0
7, 96540, Note_on_c, 5, 74, 85
7, 96599, Note_on_c, 5, 74, 0
7, 96600, Note_on_c, 5, 82, 85
7, 96659, Note_on_c, 5, 82, 0
7, 96660, Note_on_c, 5, 78, 85
7, 96719, Note_on_c, 5, 78, 0
7, 96720, Note_on_c, 5, 79, 85
7, 96779, Note_on_c, 5, 79, 0
7, 96840, Note_on_c, 5, 72, 85
7, 96869, Note_on_c, 5, 72, 0
7, 96870, Note_on_c, 5, 70, 85
7, 96899, Note_on_c, 5, 70, 0
7, 96900, Note_on_c, 5, 72, 85
7, 96960, Note_on_c, 5, 72, 0
7, 96960, Note_on_c, 5, 81, 85
7, 97049, Note_on_c, 5, 81, 0
7, 97050, Note_on_c, 5, 79, 85
7, 97079, Note_on_c, 5, 79, 0
7, 97080, Note_on_c, 5, 78, 85
7, 97109, Note_on_c, 5, 78, 0
7, 97110, Note_on_c, 5, 79, 85
7, 97139, Note_on_c, 5, 79, 0
7, 97140, Note_on_c, 5, 81, 85
7, 97169, Note_on_c, 5, 81, 0
7, 97170, Note_on_c, 5, 79, 85
7, 97199, Note_on_c, 5, 79, 0
7, 97200, Note_on_c, 5, 78, 85
7, 97229, Note_on_c, 5, 78, 0
7, 97230, Note_on_c, 5, 76, 85
7, 97259, Note_on_c, 5, 76, 0
7, 97260, Note_on_c, 5, 74, 85
7, 97289, Note_on_c, 5, 74, 0
7, 97290, Note_on_c, 5, 72, 85
7, 97319, Note_on_c, 5, 72, 0
7, 97320, Note_on_c, 5, 75, 85
7, 97439, Note_on_c, 5, 75, 0
7, 97440, Note_on_c, 5, 74, 85
7, 97529, Note_on_c, 5, 74, 0
7, 97530, Note_on_c, 5, 72, 85
7, 97559, Note_on_c, 5, 72, 0
7, 97560, Note_on_c, 5, 70, 85
7, 97589, Note_on_c, 5, 70, 0
7, 97590, Note_on_c, 5, 69, 85
7, 97619, Note_on_c, 5, 69, 0
7, 97620, Note_on_c, 5, 70, 85
7, 97649, Note_on_c, 5, 70, 0
7, 97650, Note_on_c, 5, 67, 85
7, 97679, Note_on_c, 5, 67, 0
7, 97680, Note_on_c, 5, 69, 85
7, 97709, Note_on_c, 5, 69, 0
7, 97710, Note_on_c, 5, 66, 85
7, 97739, Note_on_c, 5, 66, 0
7, 97740, Note_on_c, 5, 67, 85
7, 97769, Note_on_c, 5, 67, 0
7, 97770, Note_on_c, 5, 62, 85
7, 97799, Note_on_c, 5, 62, 0
7, 97800, Note_on_c, 5, 67, 85
7, 97829, Note_on_c, 5, 67, 0
7, 97830, Note_on_c, 5, 65, 85
7, 97859, Note_on_c, 5, 65, 0
7, 97860, Note_on_c, 5, 67, 85
7, 97889, Note_on_c, 5, 67, 0
7, 97890, Note_on_c, 5, 62, 85
7, 97919, Note_on_c, 5, 62, 0
7, 97920, Note_on_c, 5, 70, 85
7, 97949, Note_on_c, 5, 70, 0
7, 97950, Note_on_c, 5, 69, 85
7, 97979, Note_on_c, 5, 69, 0
7, 97980, Note_on_c, 5, 70, 85
7, 98009, Note_on_c, 5, 70, 0
7, 98010, Note_on_c, 5, 67, 85
7, 98039, Note_on_c, 5, 67, 0
7, 98040, Note_on_c, 5, 74, 85
7, 98069, Note_on_c, 5, 74, 0
7, 98070, Note_on_c, 5, 70, 85
7, 98099, Note_on_c, 5, 70, 0
7, 98100, Note_on_c, 5, 72, 85
7, 98129, Note_on_c, 5, 72, 0
7, 98130, Note_on_c, 5, 69, 85
7, 98159, Note_on_c, 5, 69, 0
7, 98160, Note_on_c, 5, 70, 85
7, 98189, Note_on_c, 5, 70, 0
7, 98190, Note_on_c, 5, 67, 85
7, 98219, Note_on_c, 5, 67, 0
7, 98220, Note_on_c, 5, 66, 85
7, 98249, Note_on_c, 5, 66, 0
7, 98250, Note_on_c, 5, 74, 85
7, 98279, Note_on_c, 5, 74, 0
7, 98280, Note_on_c, 5, 81, 85
7, 98309, Note_on_c, 5, 81, 0
7, 98310, Note_on_c, 5, 79, 85
7, 98339, Note_on_c, 5, 79, 0
7, 98340, Note_on_c, 5, 81, 85
7, 98369, Note_on_c, 5, 81, 0
7, 98370, Note_on_c, 5, 74, 85
7, 98399, Note_on_c, 5, 74, 0
7, 98400, Note_on_c, 5, 84, 85
7, 98429, Note_on_c, 5, 84, 0
7, 98430, Note_on_c, 5, 82, 85
7, 98459, Note_on_c, 5, 82, 0
7, 98460, Note_on_c, 5, 84, 85
7, 98489, Note_on_c, 5, 84, 0
7, 98490, Note_on_c, 5, 81, 85
7, 98519, Note_on_c, 5, 81, 0
7, 98520, Note_on_c, 5, 86, 85
7, 98549, Note_on_c, 5, 86, 0
7, 98550, Note_on_c, 5, 84, 85
7, 98579, Note_on_c, 5, 84, 0
7, 98580, Note_on_c, 5, 86, 85
7, 98639, Note_on_c, 5, 86, 0
7, 98640, Note_on_c, 5, 74, 85
7, 98729, Note_on_c, 5, 74, 0
7, 98730, Note_on_c, 5, 76, 85
7, 98759, Note_on_c, 5, 76, 0
7, 98760, Note_on_c, 5, 78, 85
7, 98789, Note_on_c, 5, 78, 0
7, 98790, Note_on_c, 5, 79, 85
7, 98819, Note_on_c, 5, 79, 0
7, 98820, Note_on_c, 5, 81, 85
7, 98849, Note_on_c, 5, 81, 0
7, 98850, Note_on_c, 5, 82, 85
7, 98879, Note_on_c, 5, 82, 0
7, 98880, Note_on_c, 5, 84, 85
7, 98909, Note_on_c, 5, 84, 0
7, 98910, Note_on_c, 5, 81, 85
7, 98939, Note_on_c, 5, 81, 0
7, 98940, Note_on_c, 5, 82, 85
7, 98969, Note_on_c, 5, 82, 0
7, 98970, Note_on_c, 5, 75, 85
7, 98999, Note_on_c, 5, 75, 0
7, 99000, Note_on_c, 5, 74, 85
7, 99029, Note_on_c, 5, 74, 0
7, 99030, Note_on_c, 5, 72, 85
7, 99059, Note_on_c, 5, 72, 0
7, 99060, Note_on_c, 5, 74, 85
7, 99089, Note_on_c, 5, 74, 0
7, 99090, Note_on_c, 5, 70, 85
7, 99119, Note_on_c, 5, 70, 0
7, 99120, Note_on_c, 5, 72, 85
7, 99149, Note_on_c, 5, 72, 0
7, 99150, Note_on_c, 5, 69, 85
7, 99179, Note_on_c, 5, 69, 0
7, 99180, Note_on_c, 5, 70, 85
7, 99209, Note_on_c, 5, 70, 0
7, 99210, Note_on_c, 5, 74, 85
7, 99239, Note_on_c, 5, 74, 0
7, 99240, Note_on_c, 5, 70, 85
7, 99269, Note_on_c, 5, 70, 0
7, 99270, Note_on_c, 5, 69, 85
7, 99299, Note_on_c, 5, 69, 0
7, 99300, Note_on_c, 5, 70, 85
7, 99329, Note_on_c, 5, 70, 0
7, 99330, Note_on_c, 5, 74, 85
7, 99359, Note_on_c, 5, 74, 0
7, 99360, Note_on_c, 5, 67, 85
7, 99389, Note_on_c, 5, 67, 0
7, 99390, Note_on_c, 5, 66, 85
7, 99419, Note_on_c, 5, 66, 0
7, 99420, Note_on_c, 5, 67, 85
7, 99449, Note_on_c, 5, 67, 0
7, 99450, Note_on_c, 5, 74, 85
7, 99479, Note_on_c, 5, 74, 0
7, 99480, Note_on_c, 5, 65, 85
7, 99509, Note_on_c, 5, 65, 0
7, 99510, Note_on_c, 5, 63, 85
7, 99539, Note_on_c, 5, 63, 0
7, 99540, Note_on_c, 5, 65, 85
7, 99569, Note_on_c, 5, 65, 0
7, 99570, Note_on_c, 5, 74, 85
7, 99599, Note_on_c, 5, 74, 0
7, 99600, Note_on_c, 5, 63, 85
7, 99629, Note_on_c, 5, 63, 0
7, 99630, Note_on_c, 5, 62, 85
7, 99659, Note_on_c, 5, 62, 0
7, 99660, Note_on_c, 5, 60, 85
7, 99689, Note_on_c, 5, 60, 0
7, 99690, Note_on_c, 5, 55, 85
7, 99719, Note_on_c, 5, 55, 0
7, 99720, Note_on_c, 5, 63, 85
7, 99749, Note_on_c, 5, 63, 0
7, 99750, Note_on_c, 5, 62, 85
7, 99779, Note_on_c, 5, 62, 0
7, 99780, Note_on_c, 5, 64, 85
7, 99809, Note_on_c, 5, 64, 0
7, 99810, Note_on_c, 5, 60, 85
7, 99839, Note_on_c, 5, 60, 0
7, 99840, Note_on_c, 5, 67, 85
7, 99869, Note_on_c, 5, 67, 0
7, 99870, Note_on_c, 5, 65, 85
7, 99899, Note_on_c, 5, 65, 0
7, 99900, Note_on_c, 5, 67, 85
7, 99929, Note_on_c, 5, 67, 0
7, 99930, Note_on_c, 5, 60, 85
7, 99959, Note_on_c, 5, 60, 0
7, 99960, Note_on_c, 5, 65, 85
7, 99989, Note_on_c, 5, 65, 0
7, 99990, Note_on_c, 5, 67, 85
7, 100019, Note_on_c, 5, 67, 0
7, 100020, Note_on_c, 5, 69, 85
7, 100049, Note_on_c, 5, 69, 0
7, 100050, Note_on_c, 5, 72, 85
7, 100079, Note_on_c, 5, 72, 0
7, 100080, Note_on_c, 5, 65, 85
7, 100109, Note_on_c, 5, 65, 0
7, 100110, Note_on_c, 5, 64, 85
7, 100139, Note_on_c, 5, 64, 0
7, 100140, Note_on_c, 5, 65, 85
7, 100169, Note_on_c, 5, 65, 0
7, 100170, Note_on_c, 5, 72, 85
7, 100199, Note_on_c, 5, 72, 0
7, 100200, Note_on_c, 5, 63, 85
7, 100229, Note_on_c, 5, 63, 0
7, 100230, Note_on_c, 5, 62, 85
7, 100259, Note_on_c, 5, 62, 0
7, 100260, Note_on_c, 5, 63, 85
7, 100289, Note_on_c, 5, 63, 0
7, 100290, Note_on_c, 5, 72, 85
7, 100319, Note_on_c, 5, 72, 0
7, 100320, Note_on_c, 5, 62, 85
7, 100349, Note_on_c, 5, 62, 0
7, 100350, Note_on_c, 5, 60, 85
7, 100379, Note_on_c, 5, 60, 0
7, 100380, Note_on_c, 5, 58, 85
7, 100409, Note_on_c, 5, 58, 0
7, 100410, Note_on_c, 5, 53, 85
7, 100439, Note_on_c, 5, 53, 0
7, 100440, Note_on_c, 5, 62, 85
7, 100469, Note_on_c, 5, 62, 0
7, 100470, Note_on_c, 5, 60, 85
7, 100499, Note_on_c, 5, 60, 0
7, 100500, Note_on_c, 5, 62, 85
7, 100529, Note_on_c, 5, 62, 0
7, 100530, Note_on_c, 5, 58, 85
7, 100559, Note_on_c, 5, 58, 0
7, 100560, Note_on_c, 5, 65, 85
7, 100589, Note_on_c, 5, 65, 0
7, 100590, Note_on_c, 5, 63, 85
7, 100619, Note_on_c, 5, 63, 0
7, 100620, Note_on_c, 5, 65, 85
7, 100649, Note_on_c, 5, 65, 0
7, 100650, Note_on_c, 5, 58, 85
7, 100679, Note_on_c, 5, 58, 0
7, 100680, Note_on_c, 5, 63, 85
7, 100709, Note_on_c, 5, 63, 0
7, 100710, Note_on_c, 5, 65, 85
7, 100739, Note_on_c, 5, 65, 0
7, 100740, Note_on_c, 5, 67, 85
7, 100769, Note_on_c, 5, 67, 0
7, 100770, Note_on_c, 5, 58, 85
7, 100799, Note_on_c, 5, 58, 0
7, 100800, Note_on_c, 5, 60, 85
7, 100829, Note_on_c, 5, 60, 0
7, 100830, Note_on_c, 5, 62, 85
7, 100859, Note_on_c, 5, 62, 0
7, 100860, Note_on_c, 5, 63, 85
7, 100889, Note_on_c, 5, 63, 0
7, 100890, Note_on_c, 5, 65, 85
7, 100919, Note_on_c, 5, 65, 0
7, 100920, Note_on_c, 5, 67, 85
7, 100949, Note_on_c, 5, 67, 0
7, 100950, Note_on_c, 5, 68, 85
7, 100979, Note_on_c, 5, 68, 0
7, 100980, Note_on_c, 5, 70, 85
7, 101009, Note_on_c, 5, 70, 0
7, 101010, Note_on_c, 5, 72, 85
7, 101039, Note_on_c, 5, 72, 0
7, 101040, Note_on_c, 5, 74, 85
7, 101069, Note_on_c, 5, 74, 0
7, 101070, Note_on_c, 5, 75, 85
7, 101099, Note_on_c, 5, 75, 0
7, 101100, Note_on_c, 5, 77, 85
7, 101159, Note_on_c, 5, 77, 0
7, 101160, Note_on_c, 5, 80, 85
7, 101279, Note_on_c, 5, 80, 0
7, 101280, Note_on_c, 5, 79, 85
7, 101339, Note_on_c, 5, 79, 0
7, 101340, Note_on_c, 5, 71, 85
7, 101399, Note_on_c, 5, 71, 0
7, 101400, Note_on_c, 5, 72, 85
7, 101459, Note_on_c, 5, 72, 0
7, 101460, Note_on_c, 5, 77, 85
7, 101489, Note_on_c, 5, 77, 0
7, 101490, Note_on_c, 5, 74, 85
7, 101519, Note_on_c, 5, 74, 0
7, 101520, Note_on_c, 5, 75, 85
7, 101579, Note_on_c, 5, 75, 0
7, 101760, Note_on_c, 5, 76, 85
7, 101789, Note_on_c, 5, 76, 0
7, 101790, Note_on_c, 5, 77, 85
7, 101819, Note_on_c, 5, 77, 0
7, 101820, Note_on_c, 5, 79, 85
7, 101879, Note_on_c, 5, 79, 0
7, 101880, Note_on_c, 5, 82, 85
7, 101999, Note_on_c, 5, 82, 0
7, 102000, Note_on_c, 5, 81, 85
7, 102059, Note_on_c, 5, 81, 0
7, 102060, Note_on_c, 5, 73, 85
7, 102119, Note_on_c, 5, 73, 0
7, 102120, Note_on_c, 5, 74, 85
7, 102179, Note_on_c, 5, 74, 0
7, 102180, Note_on_c, 5, 79, 85
7, 102209, Note_on_c, 5, 79, 0
7, 102210, Note_on_c, 5, 76, 85
7, 102239, Note_on_c, 5, 76, 0
7, 102240, Note_on_c, 5, 78, 85
7, 102299, Note_on_c, 5, 78, 0
7, 102360, Note_on_c, 5, 69, 85
7, 102379, Note_on_c, 5, 69, 0
7, 102380, Note_on_c, 5, 70, 85
7, 102399, Note_on_c, 5, 70, 0
7, 102400, Note_on_c, 5, 72, 85
7, 102419, Note_on_c, 5, 72, 0
7, 102420, Note_on_c, 5, 72, 85
7, 102439, Note_on_c, 5, 72, 0
7, 102440, Note_on_c, 5, 74, 85
7, 102459, Note_on_c, 5, 74, 0
7, 102460, Note_on_c, 5, 76, 85
7, 102479, Note_on_c, 5, 76, 0
7, 102480, Note_on_c, 5, 76, 85
7, 102499, Note_on_c, 5, 76, 0
7, 102500, Note_on_c, 5, 78, 85
7, 102519, Note_on_c, 5, 78, 0
7, 102520, Note_on_c, 5, 79, 85
7, 102539, Note_on_c, 5, 79, 0
7, 102540, Note_on_c, 5, 79, 85
7, 102569, Note_on_c, 5, 79, 0
7, 102570, Note_on_c, 5, 74, 85
7, 102599, Note_on_c, 5, 74, 0
7, 102600, Note_on_c, 5, 70, 85
7, 102629, Note_on_c, 5, 70, 0
7, 102630, Note_on_c, 5, 67, 85
7, 102659, Note_on_c, 5, 67, 0
7, 102660, Note_on_c, 5, 62, 85
7, 102720, Note_on_c, 5, 62, 0
7, 102720, Note_on_c, 5, 70, 85
7, 102739, Note_on_c, 5, 70, 0
7, 102740, Note_on_c, 5, 72, 85
7, 102759, Note_on_c, 5, 72, 0
7, 102760, Note_on_c, 5, 74, 85
7, 102779, Note_on_c, 5, 74, 0
7, 102780, Note_on_c, 5, 74, 85
7, 102799, Note_on_c, 5, 74, 0
7, 102800, Note_on_c, 5, 76, 85
7, 102819, Note_on_c, 5, 76, 0
7, 102820, Note_on_c, 5, 78, 85
7, 102839, Note_on_c, 5, 78, 0
7, 102840, Note_on_c, 5, 78, 85
7, 102859, Note_on_c, 5, 78, 0
7, 102860, Note_on_c, 5, 79, 85
7, 102879, Note_on_c, 5, 79, 0
7, 102880, Note_on_c, 5, 81, 85
7, 102899, Note_on_c, 5, 81, 0
7, 102900, Note_on_c, 5, 81, 85
7, 102929, Note_on_c, 5, 81, 0
7, 102930, Note_on_c, 5, 78, 85
7, 102959, Note_on_c, 5, 78, 0
7, 102960, Note_on_c, 5, 72, 85
7, 102989, Note_on_c, 5, 72, 0
7, 102990, Note_on_c, 5, 69, 85
7, 103019, Note_on_c, 5, 69, 0
7, 103020, Note_on_c, 5, 62, 85
7, 103080, Note_on_c, 5, 62, 0
7, 103080, Note_on_c, 5, 74, 85
7, 103099, Note_on_c, 5, 74, 0
7, 103100, Note_on_c, 5, 76, 85
7, 103119, Note_on_c, 5, 76, 0
7, 103120, Note_on_c, 5, 78, 85
7, 103139, Note_on_c, 5, 78, 0
7, 103140, Note_on_c, 5, 78, 85
7, 103159, Note_on_c, 5, 78, 0
7, 103160, Note_on_c, 5, 79, 85
7, 103179, Note_on_c, 5, 79, 0
7, 103180, Note_on_c, 5, 81, 85
7, 103199, Note_on_c, 5, 81, 0
7, 103200, Note_on_c, 5, 81, 85
7, 103219, Note_on_c, 5, 81, 0
7, 103220, Note_on_c, 5, 82, 85
7, 103239, Note_on_c, 5, 82, 0
7, 103240, Note_on_c, 5, 84, 85
7, 103259, Note_on_c, 5, 84, 0
7, 103260, Note_on_c, 5, 82, 85
7, 103289, Note_on_c, 5, 82, 0
7, 103290, Note_on_c, 5, 79, 85
7, 103319, Note_on_c, 5, 79, 0
7, 103320, Note_on_c, 5, 78, 85
7, 103349, Note_on_c, 5, 78, 0
7, 103350, Note_on_c, 5, 79, 85
7, 103379, Note_on_c, 5, 79, 0
7, 103380, Note_on_c, 5, 80, 85
7, 103409, Note_on_c, 5, 80, 0
7, 103410, Note_on_c, 5, 79, 85
7, 103439, Note_on_c, 5, 79, 0
7, 103440, Note_on_c, 5, 78, 85
7, 103469, Note_on_c, 5, 78, 0
7, 103470, Note_on_c, 5, 79, 85
7, 103499, Note_on_c, 5, 79, 0
7, 103500, Note_on_c, 5, 75, 85
7, 103519, Note_on_c, 5, 75, 0
7, 103520, Note_on_c, 5, 78, 85
7, 103539, Note_on_c, 5, 78, 0
7, 103540, Note_on_c, 5, 79, 85
7, 103559, Note_on_c, 5, 79, 0
7, 103560, Note_on_c, 5, 72, 85
7, 103579, Note_on_c, 5, 72, 0
7, 103580, Note_on_c, 5, 78, 85
7, 103599, Note_on_c, 5, 78, 0
7, 103600, Note_on_c, 5, 79, 85
7, 103619, Note_on_c, 5, 79, 0
7, 103620, Note_on_c, 5, 74, 85
7, 103649, Note_on_c, 5, 74, 0
7, 103650, Note_on_c, 5, 79, 85
7, 103679, Note_on_c, 5, 79, 0
7, 103680, Note_on_c, 5, 78, 85
7, 103709, Note_on_c, 5, 78, 0
7, 103710, Note_on_c, 5, 79, 85
7, 103739, Note_on_c, 5, 79, 0
7, 103740, Note_on_c, 5, 82, 85
7, 103769, Note_on_c, 5, 82, 0
7, 103770, Note_on_c, 5, 79, 85
7, 103799, Note_on_c, 5, 79, 0
7, 103800, Note_on_c, 5, 78, 85
7, 103829, Note_on_c, 5, 78, 0
7, 103830, Note_on_c, 5, 79, 85
7, 103859, Note_on_c, 5, 79, 0
7, 103860, Note_on_c, 5, 74, 85
7, 103879, Note_on_c, 5, 74, 0
7, 103880, Note_on_c, 5, 78, 85
7, 103899, Note_on_c, 5, 78, 0
7, 103900, Note_on_c, 5, 79, 85
7, 103919, Note_on_c, 5, 79, 0
7, 103920, Note_on_c, 5, 70, 85
7, 103939, Note_on_c, 5, 70, 0
7, 103940, Note_on_c, 5, 78, 85
7, 103959, Note_on_c, 5, 78, 0
7, 103960, Note_on_c, 5, 79, 85
7, 103979, Note_on_c, 5, 79, 0
7, 103980, Note_on_c, 5, 72, 85
7, 104009, Note_on_c, 5, 72, 0
7, 104010, Note_on_c, 5, 79, 85
7, 104039, Note_on_c, 5, 79, 0
7, 104040, Note_on_c, 5, 78, 85
7, 104069, Note_on_c, 5, 78, 0
7, 104070, Note_on_c, 5, 79, 85
7, 104099, Note_on_c, 5, 79, 0
7, 104100, Note_on_c, 5, 75, 85
7, 104129, Note_on_c, 5, 75, 0
7, 104130, Note_on_c, 5, 79, 85
7, 104159, Note_on_c, 5, 79, 0
7, 104160, Note_on_c, 5, 78, 85
7, 104189, Note_on_c, 5, 78, 0
7, 104190, Note_on_c, 5, 79, 85
7, 104219, Note_on_c, 5, 79, 0
7, 104220, Note_on_c, 5, 72, 85
7, 104239, Note_on_c, 5, 72, 0
7, 104240, Note_on_c, 5, 78, 85
7, 104259, Note_on_c, 5, 78, 0
7, 104260, Note_on_c, 5, 79, 85
7, 104279, Note_on_c, 5, 79, 0
7, 104280, Note_on_c, 5, 69, 85
7, 104299, Note_on_c, 5, 69, 0
7, 104300, Note_on_c, 5, 78, 85
7, 104319, Note_on_c, 5, 78, 0
7, 104320, Note_on_c, 5, 79, 85
7, 104339, Note_on_c, 5, 79, 0
7, 104340, Note_on_c, 5, 70, 85
7, 104399, Note_on_c, 5, 70, 0
7, 104400, Note_on_c, 5, 74, 85
7, 104459, Note_on_c, 5, 74, 0
7, 104460, Note_on_c, 5, 79, 85
7, 104519, Note_on_c, 5, 79, 0
7, 104520, Note_on_c, 5, 82, 85
7, 104579, Note_on_c, 5, 82, 0
7, 104580, Note_on_c, 5, 73, 85
7, 104595, Note_on_c, 5, 73, 0
7, 104595, Note_on_c, 5, 74, 85
7, 104610, Note_on_c, 5, 74, 0
7, 104610, Note_on_c, 5, 73, 85
7, 104625, Note_on_c, 5, 73, 0
7, 104625, Note_on_c, 5, 74, 85
7, 104640, Note_on_c, 5, 74, 0
7, 104640, Note_on_c, 5, 73, 85
7, 104655, Note_on_c, 5, 73, 0
7, 104655, Note_on_c, 5, 74, 85
7, 104670, Note_on_c, 5, 74, 0
7, 104670, Note_on_c, 5, 71, 85
7, 104685, Note_on_c, 5, 71, 0
7, 104685, Note_on_c, 5, 73, 85
7, 104700, Note_on_c, 5, 73, 0
7, 104700, Note_on_c, 5, 74, 85
7, 104759, Note_on_c, 5, 74, 0
7, 104760, Note_on_c, 5, 69, 85
7, 104819, Note_on_c, 5, 69, 0
7, 104820, Note_on_c, 5, 70, 85
7, 104879, Note_on_c, 5, 70, 0
7, 104880, Note_on_c, 5, 67, 85
7, 104939, Note_on_c, 5, 67, 0
7, 104940, Note_on_c, 5, 62, 85
7, 104999, Note_on_c, 5, 62, 0
7, 105000, Note_on_c, 5, 66, 85
7, 105059, Note_on_c, 5, 66, 0
7, 105060, Note_on_c, 5, 67, 85
7, 105089, Note_on_c, 5, 67, 0
7, 105090, Note_on_c, 5, 74, 85
7, 105119, Note_on_c, 5, 74, 0
7, 105120, Note_on_c, 5, 79, 85
7, 105149, Note_on_c, 5, 79, 0
7, 105150, Note_on_c, 5, 81, 85
7, 105179, Note_on_c, 5, 81, 0
7, 105180, Note_on_c, 5, 82, 85
7, 105209, Note_on_c, 5, 82, 0
7, 105210, Note_on_c, 5, 79, 85
7, 105239, Note_on_c, 5, 79, 0
7, 105240, Note_on_c, 5, 74, 85
7, 105269, Note_on_c, 5, 74, 0
7, 105270, Note_on_c, 5, 79, 85
7, 105299, Note_on_c, 5, 79, 0
7, 105300, Note_on_c, 5, 70, 85
7, 105329, Note_on_c, 5, 70, 0
7, 105330, Note_on_c, 5, 74, 85
7, 105359, Note_on_c, 5, 74, 0
7, 105360, Note_on_c, 5, 67, 85
7, 105389, Note_on_c, 5, 67, 0
7, 105390, Note_on_c, 5, 74, 85
7, 105419, Note_on_c, 5, 74, 0
7, 105420, Note_on_c, 5, 65, 85
7, 105449, Note_on_c, 5, 65, 0
7, 105450, Note_on_c, 5, 74, 85
7, 105479, Note_on_c, 5, 74, 0
7, 105480, Note_on_c, 5, 79, 85
7, 105509, Note_on_c, 5, 79, 0
7, 105510, Note_on_c, 5, 81, 85
7, 105539, Note_on_c, 5, 81, 0
7, 105540, Note_on_c, 5, 83, 85
7, 105569, Note_on_c, 5, 83, 0
7, 105570, Note_on_c, 5, 79, 85
7, 105599, Note_on_c, 5, 79, 0
7, 105600, Note_on_c, 5, 74, 85
7, 105629, Note_on_c, 5, 74, 0
7, 105630, Note_on_c, 5, 79, 85
7, 105659, Note_on_c, 5, 79, 0
7, 105660, Note_on_c, 5, 71, 85
7, 105689, Note_on_c, 5, 71, 0
7, 105690, Note_on_c, 5, 74, 85
7, 105719, Note_on_c, 5, 74, 0
7, 105720, Note_on_c, 5, 65, 85
7, 105749, Note_on_c, 5, 65, 0
7, 105750, Note_on_c, 5, 74, 85
7, 105779, Note_on_c, 5, 74, 0
7, 105780, Note_on_c, 5, 63, 85
7, 105809, Note_on_c, 5, 63, 0
7, 105810, Note_on_c, 5, 72, 85
7, 105839, Note_on_c, 5, 72, 0
7, 105840, Note_on_c, 5, 75, 85
7, 105869, Note_on_c, 5, 75, 0
7, 105870, Note_on_c, 5, 79, 85
7, 105899, Note_on_c, 5, 79, 0
7, 105900, Note_on_c, 5, 84, 85
7, 105929, Note_on_c, 5, 84, 0
7, 105930, Note_on_c, 5, 80, 85
7, 105959, Note_on_c, 5, 80, 0
7, 105960, Note_on_c, 5, 77, 85
7, 105989, Note_on_c, 5, 77, 0
7, 105990, Note_on_c, 5, 80, 85
7, 106019, Note_on_c, 5, 80, 0
7, 106020, Note_on_c, 5, 72, 85
7, 106049, Note_on_c, 5, 72, 0
7, 106050, Note_on_c, 5, 77, 85
7, 106079, Note_on_c, 5, 77, 0
7, 106080, Note_on_c, 5, 68, 85
7, 106109, Note_on_c, 5, 68, 0
7, 106110, Note_on_c, 5, 72, 85
7, 106139, Note_on_c, 5, 72, 0
7, 106140, Note_on_c, 5, 64, 85
7, 106169, Note_on_c, 5, 64, 0
7, 106170, Note_on_c, 5, 72, 85
7, 106199, Note_on_c, 5, 72, 0
7, 106200, Note_on_c, 5, 79, 85
7, 106229, Note_on_c, 5, 79, 0
7, 106230, Note_on_c, 5, 80, 85
7, 106259, Note_on_c, 5, 80, 0
7, 106260, Note_on_c, 5, 82, 85
7, 106289, Note_on_c, 5, 82, 0
7, 106290, Note_on_c, 5, 79, 85
7, 106319, Note_on_c, 5, 79, 0
7, 106320, Note_on_c, 5, 76, 85
7, 106349, Note_on_c, 5, 76, 0
7, 106350, Note_on_c, 5, 79, 85
7, 106379, Note_on_c, 5, 79, 0
7, 106380, Note_on_c, 5, 70, 85
7, 106409, Note_on_c, 5, 70, 0
7, 106410, Note_on_c, 5, 76, 85
7, 106439, Note_on_c, 5, 76, 0
7, 106440, Note_on_c, 5, 67, 85
7, 106469, Note_on_c, 5, 67, 0
7, 106470, Note_on_c, 5, 70, 85
7, 106499, Note_on_c, 5, 70, 0
7, 106500, Note_on_c, 5, 68, 85
7, 106619, Note_on_c, 5, 68, 0
7, 106920, Note_on_c, 5, 69, 85
7, 106979, Note_on_c, 5, 69, 0
7, 106980, Note_on_c, 5, 72, 85
7, 107039, Note_on_c, 5, 72, 0
7, 107040, Note_on_c, 5, 75, 85
7, 107099, Note_on_c, 5, 75, 0
7, 107100, Note_on_c, 5, 78, 85
7, 107159, Note_on_c, 5, 78, 0
7, 107160, Note_on_c, 5, 77, 85
7, 107219, Note_on_c, 5, 77, 0
7, 107220, Note_on_c, 5, 70, 85
7, 107640, Note_on_c, 5, 70, 0
7, 107640, Note_on_c, 5, 68, 85
7, 107699, Note_on_c, 5, 68, 0
7, 107700, Note_on_c, 5, 62, 85
7, 107759, Note_on_c, 5, 62, 0
7, 107760, Note_on_c, 5, 65, 85
7, 107819, Note_on_c, 5, 65, 0
7, 107820, Note_on_c, 5, 59, 85
7, 107879, Note_on_c, 5, 59, 0
7, 107880, Note_on_c, 5, 58, 85
7, 107999, Note_on_c, 5, 58, 0
7, 108000, Note_on_c, 5, 77, 85
7, 108059, Note_on_c, 5, 77, 0
7, 108060, Note_on_c, 5, 75, 85
7, 108119, Note_on_c, 5, 75, 0
7, 108120, Note_on_c, 5, 74, 85
7, 108179, Note_on_c, 5, 74, 0
7, 108180, Note_on_c, 5, 72, 85
7, 108359, Note_on_c, 5, 72, 0
7, 108360, Note_on_c, 5, 80, 85
7, 108419, Note_on_c, 5, 80, 0
7, 108420, Note_on_c, 5, 71, 85
7, 108479, Note_on_c, 5, 71, 0
7, 108480, Note_on_c, 5, 74, 85
7, 108539, Note_on_c, 5, 74, 0
7, 108540, Note_on_c, 5, 77, 85
7, 108599, Note_on_c, 5, 77, 0
7, 108600, Note_on_c, 5, 75, 85
7, 108629, Note_on_c, 5, 75, 0
7, 108630, Note_on_c, 5, 74, 85
7, 108659, Note_on_c, 5, 74, 0
7, 108660, Note_on_c, 5, 75, 85
7, 108719, Note_on_c, 5, 75, 0
7, 108720, Note_on_c, 5, 77, 85
7, 108779, Note_on_c, 5, 77, 0
7, 108780, Note_on_c, 5, 75, 85
7, 108839, Note_on_c, 5, 75, 0
7, 108840, Note_on_c, 5, 74, 85
7, 108899, Note_on_c, 5, 74, 0
7, 108900, Note_on_c, 5, 72, 85
7, 108959, Note_on_c, 5, 72, 0
7, 108960, Note_on_c, 5, 73, 85
7, 108989, Note_on_c, 5, 73, 0
7, 108990, Note_on_c, 5, 75, 85
7, 109019, Note_on_c, 5, 75, 0
7, 109020, Note_on_c, 5, 77, 85
7, 109199, Note_on_c, 5, 77, 0
7, 109200, Note_on_c, 5, 73, 85
7, 109259, Note_on_c, 5, 73, 0
7, 109260, Note_on_c, 5, 72, 85
7, 109275, Note_on_c, 5, 72, 0
7, 109275, Note_on_c, 5, 70, 85
7, 109290, Note_on_c, 5, 70, 0
7, 109290, Note_on_c, 5, 72, 85
7, 109305, Note_on_c, 5, 72, 0
7, 109305, Note_on_c, 5, 70, 85
7, 109320, Note_on_c, 5, 70, 0
7, 109320, Note_on_c, 5, 72, 85
7, 109335, Note_on_c, 5, 72, 0
7, 109335, Note_on_c, 5, 70, 85
7, 109350, Note_on_c, 5, 70, 0
7, 109350, Note_on_c, 5, 72, 85
7, 109365, Note_on_c, 5, 72, 0
7, 109365, Note_on_c, 5, 70, 85
7, 109380, Note_on_c, 5, 70, 0
7, 109380, Note_on_c, 5, 68, 85
7, 109439, Note_on_c, 5, 68, 0
7, 109440, Note_on_c, 5, 82, 85
7, 109499, Note_on_c, 5, 82, 0
7, 109500, Note_on_c, 5, 80, 85
7, 109559, Note_on_c, 5, 80, 0
7, 109560, Note_on_c, 5, 79, 85
7, 109619, Note_on_c, 5, 79, 0
7, 109620, Note_on_c, 5, 77, 85
7, 109799, Note_on_c, 5, 77, 0
7, 109800, Note_on_c, 5, 85, 85
7, 109859, Note_on_c, 5, 85, 0
7, 109860, Note_on_c, 5, 76, 85
7, 109919, Note_on_c, 5, 76, 0
7, 109920, Note_on_c, 5, 79, 85
7, 109979, Note_on_c, 5, 79, 0
7, 109980, Note_on_c, 5, 82, 85
7, 110039, Note_on_c, 5, 82, 0
7, 110040, Note_on_c, 5, 80, 85
7, 110069, Note_on_c, 5, 80, 0
7, 110070, Note_on_c, 5, 79, 85
7, 110099, Note_on_c, 5, 79, 0
7, 110100, Note_on_c, 5, 80, 85
7, 110129, Note_on_c, 5, 80, 0
7, 110130, Note_on_c, 5, 72, 85
7, 110159, Note_on_c, 5, 72, 0
7, 110160, Note_on_c, 5, 73, 85
7, 110189, Note_on_c, 5, 73, 0
7, 110190, Note_on_c, 5, 70, 85
7, 110219, Note_on_c, 5, 70, 0
7, 110220, Note_on_c, 5, 72, 85
7, 110249, Note_on_c, 5, 72, 0
7, 110250, Note_on_c, 5, 68, 85
7, 110279, Note_on_c, 5, 68, 0
7, 110280, Note_on_c, 5, 70, 85
7, 110309, Note_on_c, 5, 70, 0
7, 110310, Note_on_c, 5, 67, 85
7, 110339, Note_on_c, 5, 67, 0
7, 110340, Note_on_c, 5, 68, 85
7, 110369, Note_on_c, 5, 68, 0
7, 110370, Note_on_c, 5, 65, 85
7, 110399, Note_on_c, 5, 65, 0
7, 110400, Note_on_c, 5, 67, 85
7, 110429, Note_on_c, 5, 67, 0
7, 110430, Note_on_c, 5, 64, 85
7, 110459, Note_on_c, 5, 64, 0
7, 110460, Note_on_c, 5, 65, 85
7, 110519, Note_on_c, 5, 65, 0
7, 110520, Note_on_c, 5, 73, 85
7, 110579, Note_on_c, 5, 73, 0
7, 110580, Note_on_c, 5, 73, 85
7, 110595, Note_on_c, 5, 73, 0
7, 110595, Note_on_c, 5, 74, 85
7, 110610, Note_on_c, 5, 74, 0
7, 110610, Note_on_c, 5, 73, 85
7, 110640, Note_on_c, 5, 73, 0
7, 110640, Note_on_c, 5, 72, 85
7, 110729, Note_on_c, 5, 72, 0
7, 110730, Note_on_c, 5, 74, 85
7, 110759, Note_on_c, 5, 74, 0
7, 110760, Note_on_c, 5, 76, 85
7, 110789, Note_on_c, 5, 76, 0
7, 110790, Note_on_c, 5, 72, 85
7, 110819, Note_on_c, 5, 72, 0
7, 110820, Note_on_c, 5, 77, 85
7, 110849, Note_on_c, 5, 77, 0
7, 110850, Note_on_c, 5, 76, 85
7, 110879, Note_on_c, 5, 76, 0
7, 110880, Note_on_c, 5, 77, 85
7, 110969, Note_on_c, 5, 77, 0
7, 110970, Note_on_c, 5, 79, 85
7, 110999, Note_on_c, 5, 79, 0
7, 111000, Note_on_c, 5, 80, 85
7, 111029, Note_on_c, 5, 80, 0
7, 111030, Note_on_c, 5, 79, 85
7, 111059, Note_on_c, 5, 79, 0
7, 111060, Note_on_c, 5, 82, 85
7, 111089, Note_on_c, 5, 82, 0
7, 111090, Note_on_c, 5, 80, 85
7, 111119, Note_on_c, 5, 80, 0
7, 111120, Note_on_c, 5, 79, 85
7, 111149, Note_on_c, 5, 79, 0
7, 111150, Note_on_c, 5, 77, 85
7, 111179, Note_on_c, 5, 77, 0
7, 111180, Note_on_c, 5, 83, 85
7, 111209, Note_on_c, 5, 83, 0
7, 111210, Note_on_c, 5, 84, 85
7, 111239, Note_on_c, 5, 84, 0
7, 111240, Note_on_c, 5, 72, 85
7, 111299, Note_on_c, 5, 72, 0
7, 111480, Note_on_c, 5, 72, 85
7, 111509, Note_on_c, 5, 72, 0
7, 111510, Note_on_c, 5, 73, 85
7, 111539, Note_on_c, 5, 73, 0
7, 111540, Note_on_c, 5, 75, 85
7, 111599, Note_on_c, 5, 75, 0
7, 111600, Note_on_c, 5, 78, 85
7, 111719, Note_on_c, 5, 78, 0
7, 111720, Note_on_c, 5, 77, 85
7, 111779, Note_on_c, 5, 77, 0
7, 111780, Note_on_c, 5, 69, 85
7, 111839, Note_on_c, 5, 69, 0
7, 111840, Note_on_c, 5, 70, 85
7, 111899, Note_on_c, 5, 70, 0
7, 111900, Note_on_c, 5, 75, 85
7, 111929, Note_on_c, 5, 75, 0
7, 111930, Note_on_c, 5, 72, 85
7, 111959, Note_on_c, 5, 72, 0
7, 111960, Note_on_c, 5, 73, 85
7, 112019, Note_on_c, 5, 73, 0
7, 112200, Note_on_c, 5, 74, 85
7, 112229, Note_on_c, 5, 74, 0
7, 112230, Note_on_c, 5, 75, 85
7, 112259, Note_on_c, 5, 75, 0
7, 112260, Note_on_c, 5, 77, 85
7, 112319, Note_on_c, 5, 77, 0
7, 112320, Note_on_c, 5, 80, 85
7, 112439, Note_on_c, 5, 80, 0
7, 112440, Note_on_c, 5, 79, 85
7, 112499, Note_on_c, 5, 79, 0
7, 112500, Note_on_c, 5, 71, 85
7, 112559, Note_on_c, 5, 71, 0
7, 112560, Note_on_c, 5, 72, 85
7, 112619, Note_on_c, 5, 72, 0
7, 112620, Note_on_c, 5, 77, 85
7, 112649, Note_on_c, 5, 77, 0
7, 112650, Note_on_c, 5, 74, 85
7, 112679, Note_on_c, 5, 74, 0
7, 112680, Note_on_c, 5, 76, 85
7, 112739, Note_on_c, 5, 76, 0
7, 112920, Note_on_c, 5, 84, 85
7, 112949, Note_on_c, 5, 84, 0
7, 112950, Note_on_c, 5, 83, 85
7, 112979, Note_on_c, 5, 83, 0
7, 112980, Note_on_c, 5, 84, 85
7, 113009, Note_on_c, 5, 84, 0
7, 113010, Note_on_c, 5, 79, 85
7, 113039, Note_on_c, 5, 79, 0
7, 113040, Note_on_c, 5, 80, 85
7, 113069, Note_on_c, 5, 80, 0
7, 113070, Note_on_c, 5, 77, 85
7, 113099, Note_on_c, 5, 77, 0
7, 113100, Note_on_c, 5, 79, 85
7, 113129, Note_on_c, 5, 79, 0
7, 113130, Note_on_c, 5, 76, 85
7, 113159, Note_on_c, 5, 76, 0
7, 113160, Note_on_c, 5, 77, 85
7, 113189, Note_on_c, 5, 77, 0
7, 113190, Note_on_c, 5, 74, 85
7, 113219, Note_on_c, 5, 74, 0
7, 113220, Note_on_c, 5, 76, 85
7, 113249, Note_on_c, 5, 76, 0
7, 113250, Note_on_c, 5, 72, 85
7, 113279, Note_on_c, 5, 72, 0
7, 113280, Note_on_c, 5, 76, 85
7, 113309, Note_on_c, 5, 76, 0
7, 113310, Note_on_c, 5, 79, 85
7, 113339, Note_on_c, 5, 79, 0
7, 113340, Note_on_c, 5, 82, 85
7, 113369, Note_on_c, 5, 82, 0
7, 113370, Note_on_c, 5, 79, 85
7, 113399, Note_on_c, 5, 79, 0
7, 113400, Note_on_c, 5, 80, 85
7, 113429, Note_on_c, 5, 80, 0
7, 113430, Note_on_c, 5, 77, 85
7, 113459, Note_on_c, 5, 77, 0
7, 113460, Note_on_c, 5, 79, 85
7, 113489, Note_on_c, 5, 79, 0
7, 113490, Note_on_c, 5, 76, 85
7, 113519, Note_on_c, 5, 76, 0
7, 113520, Note_on_c, 5, 77, 85
7, 113549, Note_on_c, 5, 77, 0
7, 113550, Note_on_c, 5, 74, 85
7, 113579, Note_on_c, 5, 74, 0
7, 113580, Note_on_c, 5, 76, 85
7, 113609, Note_on_c, 5, 76, 0
7, 113610, Note_on_c, 5, 72, 85
7, 113639, Note_on_c, 5, 72, 0
7, 113640, Note_on_c, 5, 76, 85
7, 113669, Note_on_c, 5, 76, 0
7, 113670, Note_on_c, 5, 79, 85
7, 113699, Note_on_c, 5, 79, 0
7, 113700, Note_on_c, 5, 80, 85
7, 113759, Note_on_c, 5, 80, 0
7, 115200, Note_on_c, 5, 72, 85
7, 115229, Note_on_c, 5, 72, 0
7, 115230, Note_on_c, 5, 70, 85
7, 115259, Note_on_c, 5, 70, 0
7, 115260, Note_on_c, 5, 72, 85
7, 115319, Note_on_c, 5, 72, 0
7, 115320, Note_on_c, 5, 80, 85
7, 115379, Note_on_c, 5, 80, 0
7, 115380, Note_on_c, 5, 76, 85
7, 115439, Note_on_c, 5, 76, 0
7, 115440, Note_on_c, 5, 77, 85
7, 115499, Note_on_c, 5, 77, 0
7, 115560, Note_on_c, 5, 70, 85
7, 115589, Note_on_c, 5, 70, 0
7, 115590, Note_on_c, 5, 68, 85
7, 115619, Note_on_c, 5, 68, 0
7, 115620, Note_on_c, 5, 70, 85
7, 115680, Note_on_c, 5, 70, 0
7, 115680, Note_on_c, 5, 79, 85
7, 115769, Note_on_c, 5, 79, 0
7, 115770, Note_on_c, 5, 77, 85
7, 115799, Note_on_c, 5, 77, 0
7, 115800, Note_on_c, 5, 76, 85
7, 115829, Note_on_c, 5, 76, 0
7, 115830, Note_on_c, 5, 77, 85
7, 115859, Note_on_c, 5, 77, 0
7, 115860, Note_on_c, 5, 79, 85
7, 115889, Note_on_c, 5, 79, 0
7, 115890, Note_on_c, 5, 77, 85
7, 115919, Note_on_c, 5, 77, 0
7, 115920, Note_on_c, 5, 76, 85
7, 115949, Note_on_c, 5, 76, 0
7, 115950, Note_on_c, 5, 74, 85
7, 115979, Note_on_c, 5, 74, 0
7, 115980, Note_on_c, 5, 72, 85
7, 116009, Note_on_c, 5, 72, 0
7, 116010, Note_on_c, 5, 70, 85
7, 116039, Note_on_c, 5, 70, 0
7, 116040, Note_on_c, 5, 73, 85
7, 116159, Note_on_c, 5, 73, 0
7, 116160, Note_on_c, 5, 72, 85
7, 116249, Note_on_c, 5, 72, 0
7, 116250, Note_on_c, 5, 70, 85
7, 116279, Note_on_c, 5, 70, 0
7, 116280, Note_on_c, 5, 68, 85
7, 116309, Note_on_c, 5, 68, 0
7, 116310, Note_on_c, 5, 67, 85
7, 116339, Note_on_c, 5, 67, 0
7, 116340, Note_on_c, 5, 68, 85
7, 116369, Note_on_c, 5, 68, 0
7, 116370, Note_on_c, 5, 65, 85
7, 116399, Note_on_c, 5, 65, 0
7, 116400, Note_on_c, 5, 67, 85
7, 116429, Note_on_c, 5, 67, 0
7, 116430, Note_on_c, 5, 64, 85
7, 116459, Note_on_c, 5, 64, 0
7, 116460, Note_on_c, 5, 65, 85
7, 116489, Note_on_c, 5, 65, 0
7, 116490, Note_on_c, 5, 60, 85
7, 116519, Note_on_c, 5, 60, 0
7, 116520, Note_on_c, 5, 65, 85
7, 116549, Note_on_c, 5, 65, 0
7, 116550, Note_on_c, 5, 64, 85
7, 116579, Note_on_c, 5, 64, 0
7, 116580, Note_on_c, 5, 65, 85
7, 116609, Note_on_c, 5, 65, 0
7, 116610, Note_on_c, 5, 60, 85
7, 116639, Note_on_c, 5, 60, 0
7, 116640, Note_on_c, 5, 68, 85
7, 116669, Note_on_c, 5, 68, 0
7, 116670, Note_on_c, 5, 67, 85
7, 116699, Note_on_c, 5, 67, 0
7, 116700, Note_on_c, 5, 69, 85
7, 116729, Note_on_c, 5, 69, 0
7, 116730, Note_on_c, 5, 65, 85
7, 116759, Note_on_c, 5, 65, 0
7, 116760, Note_on_c, 5, 72, 85
7, 116789, Note_on_c, 5, 72, 0
7, 116790, Note_on_c, 5, 70, 85
7, 116819, Note_on_c, 5, 70, 0
7, 116820, Note_on_c, 5, 72, 85
7, 116849, Note_on_c, 5, 72, 0
7, 116850, Note_on_c, 5, 65, 85
7, 116879, Note_on_c, 5, 65, 0
7, 116880, Note_on_c, 5, 70, 85
7, 116909, Note_on_c, 5, 70, 0
7, 116910, Note_on_c, 5, 72, 85
7, 116939, Note_on_c, 5, 72, 0
7, 116940, Note_on_c, 5, 73, 85
7, 116969, Note_on_c, 5, 73, 0
7, 116970, Note_on_c, 5, 77, 85
7, 116999, Note_on_c, 5, 77, 0
7, 117000, Note_on_c, 5, 70, 85
7, 117029, Note_on_c, 5, 70, 0
7, 117030, Note_on_c, 5, 69, 85
7, 117059, Note_on_c, 5, 69, 0
7, 117060, Note_on_c, 5, 70, 85
7, 117089, Note_on_c, 5, 70, 0
7, 117090, Note_on_c, 5, 77, 85
7, 117119, Note_on_c, 5, 77, 0
7, 117120, Note_on_c, 5, 68, 85
7, 117149, Note_on_c, 5, 68, 0
7, 117150, Note_on_c, 5, 67, 85
7, 117179, Note_on_c, 5, 67, 0
7, 117180, Note_on_c, 5, 68, 85
7, 117209, Note_on_c, 5, 68, 0
7, 117210, Note_on_c, 5, 77, 85
7, 117239, Note_on_c, 5, 77, 0
7, 117240, Note_on_c, 5, 67, 85
7, 117269, Note_on_c, 5, 67, 0
7, 117270, Note_on_c, 5, 65, 85
7, 117299, Note_on_c, 5, 65, 0
7, 117300, Note_on_c, 5, 67, 85
7, 117329, Note_on_c, 5, 67, 0
7, 117330, Note_on_c, 5, 62, 85
7, 117359, Note_on_c, 5, 62, 0
7, 117360, Note_on_c, 5, 71, 85
7, 117389, Note_on_c, 5, 71, 0
7, 117390, Note_on_c, 5, 69, 85
7, 117419, Note_on_c, 5, 69, 0
7, 117420, Note_on_c, 5, 71, 85
7, 117449, Note_on_c, 5, 71, 0
7, 117450, Note_on_c, 5, 67, 85
7, 117479, Note_on_c, 5, 67, 0
7, 117480, Note_on_c, 5, 74, 85
7, 117509, Note_on_c, 5, 74, 0
7, 117510, Note_on_c, 5, 72, 85
7, 117539, Note_on_c, 5, 72, 0
7, 117540, Note_on_c, 5, 74, 85
7, 117569, Note_on_c, 5, 74, 0
7, 117570, Note_on_c, 5, 67, 85
7, 117599, Note_on_c, 5, 67, 0
7, 117600, Note_on_c, 5, 72, 85
7, 117629, Note_on_c, 5, 72, 0
7, 117630, Note_on_c, 5, 74, 85
7, 117659, Note_on_c, 5, 74, 0
7, 117660, Note_on_c, 5, 75, 85
7, 117689, Note_on_c, 5, 75, 0
7, 117690, Note_on_c, 5, 79, 85
7, 117719, Note_on_c, 5, 79, 0
7, 117720, Note_on_c, 5, 72, 85
7, 117749, Note_on_c, 5, 72, 0
7, 117750, Note_on_c, 5, 71, 85
7, 117779, Note_on_c, 5, 71, 0
7, 117780, Note_on_c, 5, 72, 85
7, 117809, Note_on_c, 5, 72, 0
7, 117810, Note_on_c, 5, 81, 85
7, 117839, Note_on_c, 5, 81, 0
7, 117840, Note_on_c, 5, 72, 85
7, 117869, Note_on_c, 5, 72, 0
7, 117870, Note_on_c, 5, 71, 85
7, 117899, Note_on_c, 5, 71, 0
7, 117900, Note_on_c, 5, 72, 85
7, 117929, Note_on_c, 5, 72, 0
7, 117930, Note_on_c, 5, 81, 85
7, 117959, Note_on_c, 5, 81, 0
7, 117960, Note_on_c, 5, 70, 85
7, 117989, Note_on_c, 5, 70, 0
7, 117990, Note_on_c, 5, 69, 85
7, 118019, Note_on_c, 5, 69, 0
7, 118020, Note_on_c, 5, 67, 85
7, 118049, Note_on_c, 5, 67, 0
7, 118050, Note_on_c, 5, 70, 85
7, 118079, Note_on_c, 5, 70, 0
7, 118080, Note_on_c, 5, 74, 85
7, 118109, Note_on_c, 5, 74, 0
7, 118110, Note_on_c, 5, 79, 85
7, 118139, Note_on_c, 5, 79, 0
7, 118140, Note_on_c, 5, 82, 85
7, 118169, Note_on_c, 5, 82, 0
7, 118170, Note_on_c, 5, 79, 85
7, 118199, Note_on_c, 5, 79, 0
7, 118200, Note_on_c, 5, 80, 85
7, 118229, Note_on_c, 5, 80, 0
7, 118230, Note_on_c, 5, 77, 85
7, 118259, Note_on_c, 5, 77, 0
7, 118260, Note_on_c, 5, 79, 85
7, 118319, Note_on_c, 5, 79, 0
7, 118320, Note_on_c, 5, 82, 85
7, 118409, Note_on_c, 5, 82, 0
7, 118410, Note_on_c, 5, 72, 85
7, 118439, Note_on_c, 5, 72, 0
7, 118440, Note_on_c, 5, 75, 85
7, 118469, Note_on_c, 5, 75, 0
7, 118470, Note_on_c, 5, 80, 85
7, 118499, Note_on_c, 5, 80, 0
7, 118500, Note_on_c, 5, 84, 85
7, 118529, Note_on_c, 5, 84, 0
7, 118530, Note_on_c, 5, 80, 85
7, 118559, Note_on_c, 5, 80, 0
7, 118560, Note_on_c, 5, 82, 85
7, 118589, Note_on_c, 5, 82, 0
7, 118590, Note_on_c, 5, 79, 85
7, 118619, Note_on_c, 5, 79, 0
7, 118620, Note_on_c, 5, 81, 85
7, 118679, Note_on_c, 5, 81, 0
7, 118680, Note_on_c, 5, 84, 85
7, 118769, Note_on_c, 5, 84, 0
7, 118770, Note_on_c, 5, 74, 85
7, 118799, Note_on_c, 5, 74, 0
7, 118800, Note_on_c, 5, 77, 85
7, 118829, Note_on_c, 5, 77, 0
7, 118830, Note_on_c, 5, 82, 85
7, 118859, Note_on_c, 5, 82, 0
7, 118860, Note_on_c, 5, 86, 85
7, 118889, Note_on_c, 5, 86, 0
7, 118890, Note_on_c, 5, 83, 85
7, 118919, Note_on_c, 5, 83, 0
7, 118920, Note_on_c, 5, 84, 85
7, 118949, Note_on_c, 5, 84, 0
7, 118950, Note_on_c, 5, 81, 85
7, 118979, Note_on_c, 5, 81, 0
7, 118980, Note_on_c, 5, 83, 85
7, 119039, Note_on_c, 5, 83, 0
7, 119040, Note_on_c, 5, 86, 85
7, 119129, Note_on_c, 5, 86, 0
7, 119130, Note_on_c, 5, 67, 85
7, 119159, Note_on_c, 5, 67, 0
7, 119160, Note_on_c, 5, 72, 85
7, 119189, Note_on_c, 5, 72, 0
7, 119190, Note_on_c, 5, 74, 85
7, 119219, Note_on_c, 5, 74, 0
7, 119220, Note_on_c, 5, 75, 85
7, 119249, Note_on_c, 5, 75, 0
7, 119250, Note_on_c, 5, 72, 85
7, 119279, Note_on_c, 5, 72, 0
7, 119280, Note_on_c, 5, 67, 85
7, 119309, Note_on_c, 5, 67, 0
7, 119310, Note_on_c, 5, 72, 85
7, 119339, Note_on_c, 5, 72, 0
7, 119340, Note_on_c, 5, 63, 85
7, 119369, Note_on_c, 5, 63, 0
7, 119370, Note_on_c, 5, 67, 85
7, 119399, Note_on_c, 5, 67, 0
7, 119400, Note_on_c, 5, 60, 85
7, 119429, Note_on_c, 5, 60, 0
7, 119430, Note_on_c, 5, 67, 85
7, 119459, Note_on_c, 5, 67, 0
7, 119460, Note_on_c, 5, 58, 85
7, 119489, Note_on_c, 5, 58, 0
7, 119490, Note_on_c, 5, 67, 85
7, 119519, Note_on_c, 5, 67, 0
7, 119520, Note_on_c, 5, 72, 85
7, 119549, Note_on_c, 5, 72, 0
7, 119550, Note_on_c, 5, 74, 85
7, 119579, Note_on_c, 5, 74, 0
7, 119580, Note_on_c, 5, 76, 85
7, 119609, Note_on_c, 5, 76, 0
7, 119610, Note_on_c, 5, 72, 85
7, 119639, Note_on_c, 5, 72, 0
7, 119640, Note_on_c, 5, 67, 85
7, 119669, Note_on_c, 5, 67, 0
7, 119670, Note_on_c, 5, 72, 85
7, 119699, Note_on_c, 5, 72, 0
7, 119700, Note_on_c, 5, 64, 85
7, 119729, Note_on_c, 5, 64, 0
7, 119730, Note_on_c, 5, 67, 85
7, 119759, Note_on_c, 5, 67, 0
7, 119760, Note_on_c, 5, 58, 85
7, 119789, Note_on_c, 5, 58, 0
7, 119790, Note_on_c, 5, 67, 85
7, 119819, Note_on_c, 5, 67, 0
7, 119820, Note_on_c, 5, 56, 85
7, 119849, Note_on_c, 5, 56, 0
7, 119850, Note_on_c, 5, 65, 85
7, 119879, Note_on_c, 5, 65, 0
7, 119880, Note_on_c, 5, 72, 85
7, 119909, Note_on_c, 5, 72, 0
7, 119910, Note_on_c, 5, 76, 85
7, 119939, Note_on_c, 5, 76, 0
7, 119940, Note_on_c, 5, 77, 85
7, 119969, Note_on_c, 5, 77, 0
7, 119970, Note_on_c, 5, 73, 85
7, 119999, Note_on_c, 5, 73, 0
7, 120000, Note_on_c, 5, 70, 85
7, 120029, Note_on_c, 5, 70, 0
7, 120030, Note_on_c, 5, 73, 85
7, 120059, Note_on_c, 5, 73, 0
7, 120060, Note_on_c, 5, 65, 85
7, 120089, Note_on_c, 5, 65, 0
7, 120090, Note_on_c, 5, 70, 85
7, 120119, Note_on_c, 5, 70, 0
7, 120120, Note_on_c, 5, 61, 85
7, 120149, Note_on_c, 5, 61, 0
7, 120150, Note_on_c, 5, 65, 85
7, 120179, Note_on_c, 5, 65, 0
7, 120180, Note_on_c, 5, 57, 85
7, 120209, Note_on_c, 5, 57, 0
7, 120210, Note_on_c, 5, 65, 85
7, 120239, Note_on_c, 5, 65, 0
7, 120240, Note_on_c, 5, 72, 85
7, 120269, Note_on_c, 5, 72, 0
7, 120270, Note_on_c, 5, 73, 85
7, 120299, Note_on_c, 5, 73, 0
7, 120300, Note_on_c, 5, 75, 85
7, 120329, Note_on_c, 5, 75, 0
7, 120330, Note_on_c, 5, 72, 85
7, 120359, Note_on_c, 5, 72, 0
7, 120360, Note_on_c, 5, 69, 85
7, 120389, Note_on_c, 5, 69, 0
7, 120390, Note_on_c, 5, 72, 85
7, 120419, Note_on_c, 5, 72, 0
7, 120420, Note_on_c, 5, 63, 85
7, 120449, Note_on_c, 5, 63, 0
7, 120450, Note_on_c, 5, 69, 85
7, 120479, Note_on_c, 5, 69, 0
7, 120480, Note_on_c, 5, 60, 85
7, 120509, Note_on_c, 5, 60, 0
7, 120510, Note_on_c, 5, 63, 85
7, 120539, Note_on_c, 5, 63, 0
7, 120540, Note_on_c, 5, 61, 85
7, 120659, Note_on_c, 5, 61, 0
7, 120960, Note_on_c, 5, 74, 85
7, 121019, Note_on_c, 5, 74, 0
7, 121020, Note_on_c, 5, 77, 85
7, 121079, Note_on_c, 5, 77, 0
7, 121080, Note_on_c, 5, 80, 85
7, 121139, Note_on_c, 5, 80, 0
7, 121140, Note_on_c, 5, 83, 85
7, 121199, Note_on_c, 5, 83, 0
7, 121200, Note_on_c, 5, 82, 85
7, 121259, Note_on_c, 5, 82, 0
7, 121260, Note_on_c, 5, 75, 85
7, 121680, Note_on_c, 5, 75, 0
7, 121680, Note_on_c, 5, 73, 85
7, 121739, Note_on_c, 5, 73, 0
7, 121740, Note_on_c, 5, 67, 85
7, 121799, Note_on_c, 5, 67, 0
7, 121800, Note_on_c, 5, 70, 85
7, 121859, Note_on_c, 5, 70, 0
7, 121860, Note_on_c, 5, 64, 85
7, 121919, Note_on_c, 5, 64, 0
7, 121920, Note_on_c, 5, 63, 85
7, 122039, Note_on_c, 5, 63, 0
7, 122040, Note_on_c, 5, 70, 85
7, 122099, Note_on_c, 5, 70, 0
7, 122100, Note_on_c, 5, 68, 85
7, 122159, Note_on_c, 5, 68, 0
7, 122160, Note_on_c, 5, 67, 85
7, 122219, Note_on_c, 5, 67, 0
7, 122220, Note_on_c, 5, 65, 85
7, 122399, Note_on_c, 5, 65, 0
7, 122400, Note_on_c, 5, 73, 85
7, 122459, Note_on_c, 5, 73, 0
7, 122460, Note_on_c, 5, 64, 85
7, 122519, Note_on_c, 5, 64, 0
7, 122520, Note_on_c, 5, 67, 85
7, 122579, Note_on_c, 5, 67, 0
7, 122580, Note_on_c, 5, 70, 85
7, 122639, Note_on_c, 5, 70, 0
7, 122640, Note_on_c, 5, 68, 85
7, 122669, Note_on_c, 5, 68, 0
7, 122670, Note_on_c, 5, 67, 85
7, 122699, Note_on_c, 5, 67, 0
7, 122700, Note_on_c, 5, 68, 85
7, 122759, Note_on_c, 5, 68, 0
7, 122760, Note_on_c, 5, 80, 85
7, 122819, Note_on_c, 5, 80, 0
7, 122820, Note_on_c, 5, 79, 85
7, 122879, Note_on_c, 5, 79, 0
7, 122880, Note_on_c, 5, 77, 85
7, 122939, Note_on_c, 5, 77, 0
7, 122940, Note_on_c, 5, 75, 85
7, 122999, Note_on_c, 5, 75, 0
7, 123000, Note_on_c, 5, 77, 85
7, 123029, Note_on_c, 5, 77, 0
7, 123030, Note_on_c, 5, 79, 85
7, 123059, Note_on_c, 5, 79, 0
7, 123060, Note_on_c, 5, 80, 85
7, 123239, Note_on_c, 5, 80, 0
7, 123240, Note_on_c, 5, 77, 85
7, 123299, Note_on_c, 5, 77, 0
7, 123300, Note_on_c, 5, 74, 85
7, 123359, Note_on_c, 5, 74, 0
7, 123360, Note_on_c, 5, 72, 85
7, 123389, Note_on_c, 5, 72, 0
7, 123390, Note_on_c, 5, 71, 85
7, 123419, Note_on_c, 5, 71, 0
7, 123420, Note_on_c, 5, 72, 85
7, 123449, Note_on_c, 5, 72, 0
7, 123450, Note_on_c, 5, 67, 85
7, 123479, Note_on_c, 5, 67, 0
7, 123480, Note_on_c, 5, 68, 85
7, 123509, Note_on_c, 5, 68, 0
7, 123510, Note_on_c, 5, 65, 85
7, 123539, Note_on_c, 5, 65, 0
7, 123540, Note_on_c, 5, 67, 85
7, 123569, Note_on_c, 5, 67, 0
7, 123570, Note_on_c, 5, 63, 85
7, 123599, Note_on_c, 5, 63, 0
7, 123600, Note_on_c, 5, 65, 85
7, 123629, Note_on_c, 5, 65, 0
7, 123630, Note_on_c, 5, 62, 85
7, 123659, Note_on_c, 5, 62, 0
7, 123660, Note_on_c, 5, 63, 85
7, 123689, Note_on_c, 5, 63, 0
7, 123690, Note_on_c, 5, 60, 85
7, 123719, Note_on_c, 5, 60, 0
7, 123720, Note_on_c, 5, 62, 85
7, 123749, Note_on_c, 5, 62, 0
7, 123750, Note_on_c, 5, 59, 85
7, 123779, Note_on_c, 5, 59, 0
7, 123780, Note_on_c, 5, 60, 85
7, 123839, Note_on_c, 5, 60, 0
7, 123840, Note_on_c, 5, 68, 85
7, 123899, Note_on_c, 5, 68, 0
7, 123900, Note_on_c, 5, 68, 85
7, 123959, Note_on_c, 5, 68, 0
7, 123960, Note_on_c, 5, 67, 85
7, 124049, Note_on_c, 5, 67, 0
7, 124050, Note_on_c, 5, 69, 85
7, 124079, Note_on_c, 5, 69, 0
7, 124080, Note_on_c, 5, 71, 85
7, 124109, Note_on_c, 5, 71, 0
7, 124110, Note_on_c, 5, 67, 85
7, 124139, Note_on_c, 5, 67, 0
7, 124140, Note_on_c, 5, 72, 85
7, 124169, Note_on_c, 5, 72, 0
7, 124170, Note_on_c, 5, 71, 85
7, 124199, Note_on_c, 5, 71, 0
7, 124200, Note_on_c, 5, 72, 85
7, 124289, Note_on_c, 5, 72, 0
7, 124290, Note_on_c, 5, 74, 85
7, 124319, Note_on_c, 5, 74, 0
7, 124320, Note_on_c, 5, 75, 85
7, 124349, Note_on_c, 5, 75, 0
7, 124350, Note_on_c, 5, 74, 85
7, 124379, Note_on_c, 5, 74, 0
7, 124380, Note_on_c, 5, 77, 85
7, 124409, Note_on_c, 5, 77, 0
7, 124410, Note_on_c, 5, 75, 85
7, 124439, Note_on_c, 5, 75, 0
7, 124440, Note_on_c, 5, 74, 85
7, 124469, Note_on_c, 5, 74, 0
7, 124470, Note_on_c, 5, 72, 85
7, 124499, Note_on_c, 5, 72, 0
7, 124500, Note_on_c, 5, 78, 85
7, 124529, Note_on_c, 5, 78, 0
7, 124530, Note_on_c, 5, 79, 85
7, 124559, Note_on_c, 5, 79, 0
7, 124560, Note_on_c, 5, 67, 85
7, 124619, Note_on_c, 5, 67, 0
7, 124800, Note_on_c, 5, 79, 85
7, 124829, Note_on_c, 5, 79, 0
7, 124830, Note_on_c, 5, 80, 85
7, 124859, Note_on_c, 5, 80, 0
7, 124860, Note_on_c, 5, 82, 85
7, 124919, Note_on_c, 5, 82, 0
7, 124920, Note_on_c, 5, 72, 85
7, 124920, Note_on_c, 5, 82, 85
7, 124979, Note_on_c, 5, 82, 0
7, 124979, Note_on_c, 5, 72, 0
7, 124980, Note_on_c, 5, 72, 85
7, 124980, Note_on_c, 5, 82, 85
7, 125039, Note_on_c, 5, 82, 0
7, 125039, Note_on_c, 5, 72, 0
7, 125040, Note_on_c, 5, 72, 85
7, 125040, Note_on_c, 5, 82, 85
7, 125099, Note_on_c, 5, 82, 0
7, 125099, Note_on_c, 5, 72, 0
7, 125100, Note_on_c, 5, 72, 85
7, 125100, Note_on_c, 5, 82, 85
7, 125159, Note_on_c, 5, 82, 0
7, 125159, Note_on_c, 5, 72, 0
7, 125160, Note_on_c, 5, 72, 85
7, 125160, Note_on_c, 5, 82, 85
7, 125219, Note_on_c, 5, 82, 0
7, 125219, Note_on_c, 5, 72, 0
7, 125220, Note_on_c, 5, 80, 85
7, 125220, Note_on_c, 5, 72, 85
7, 125279, Note_on_c, 5, 72, 0
7, 125279, Note_on_c, 5, 80, 0
7, 125280, Note_on_c, 5, 72, 85
7, 125280, Note_on_c, 5, 80, 85
7, 125339, Note_on_c, 5, 80, 0
7, 125339, Note_on_c, 5, 72, 0
7, 125340, Note_on_c, 5, 72, 85
7, 125340, Note_on_c, 5, 80, 85
7, 125399, Note_on_c, 5, 80, 0
7, 125399, Note_on_c, 5, 72, 0
7, 125400, Note_on_c, 5, 72, 85
7, 125400, Note_on_c, 5, 80, 85
7, 125459, Note_on_c, 5, 80, 0
7, 125459, Note_on_c, 5, 72, 0
7, 125460, Note_on_c, 5, 72, 85
7, 125460, Note_on_c, 5, 80, 85
7, 125519, Note_on_c, 5, 80, 0
7, 125519, Note_on_c, 5, 72, 0
7, 125520, Note_on_c, 5, 72, 85
7, 125520, Note_on_c, 5, 80, 85
7, 125579, Note_on_c, 5, 80, 0
7, 125579, Note_on_c, 5, 72, 0
7, 125580, Note_on_c, 5, 71, 85
7, 125580, Note_on_c, 5, 74, 85
7, 125639, Note_on_c, 5, 74, 0
7, 125639, Note_on_c, 5, 71, 0
7, 125640, Note_on_c, 5, 71, 85
7, 125640, Note_on_c, 5, 74, 85
7, 125699, Note_on_c, 5, 74, 0
7, 125699, Note_on_c, 5, 71, 0
7, 125700, Note_on_c, 5, 74, 85
7, 125700, Note_on_c, 5, 83, 85
7, 125759, Note_on_c, 5, 83, 0
7, 125759, Note_on_c, 5, 74, 0
7, 125760, Note_on_c, 5, 74, 85
7, 125760, Note_on_c, 5, 83, 85
7, 125819, Note_on_c, 5, 83, 0
7, 125819, Note_on_c, 5, 74, 0
7, 125820, Note_on_c, 5, 74, 85
7, 125820, Note_on_c, 5, 83, 85
7, 125879, Note_on_c, 5, 83, 0
7, 125879, Note_on_c, 5, 74, 0
7, 125880, Note_on_c, 5, 74, 85
7, 125880, Note_on_c, 5, 83, 85
7, 125939, Note_on_c, 5, 83, 0
7, 125939, Note_on_c, 5, 74, 0
7, 125940, Note_on_c, 5, 72, 85
7, 125940, Note_on_c, 5, 84, 85
7, 125999, Note_on_c, 5, 84, 0
7, 125999, Note_on_c, 5, 72, 0
7, 126000, Note_on_c, 5, 72, 85
7, 126000, Note_on_c, 5, 84, 85
7, 126059, Note_on_c, 5, 84, 0
7, 126059, Note_on_c, 5, 72, 0
7, 126060, Note_on_c, 5, 72, 85
7, 126060, Note_on_c, 5, 84, 85
7, 126119, Note_on_c, 5, 84, 0
7, 126119, Note_on_c, 5, 72, 0
7, 126120, Note_on_c, 5, 72, 85
7, 126120, Note_on_c, 5, 84, 85
7, 126179, Note_on_c, 5, 84, 0
7, 126179, Note_on_c, 5, 72, 0
7, 126180, Note_on_c, 5, 72, 85
7, 126180, Note_on_c, 5, 84, 85
7, 126239, Note_on_c, 5, 84, 0
7, 126239, Note_on_c, 5, 72, 0
7, 126240, Note_on_c, 5, 72, 85
7, 126240, Note_on_c, 5, 84, 85
7, 126299, Note_on_c, 5, 84, 0
7, 126299, Note_on_c, 5, 72, 0
7, 126300, Note_on_c, 5, 72, 85
7, 126300, Note_on_c, 5, 80, 85
7, 126359, Note_on_c, 5, 80, 0
7, 126359, Note_on_c, 5, 72, 0
7, 126360, Note_on_c, 5, 72, 85
7, 126360, Note_on_c, 5, 80, 85
7, 126419, Note_on_c, 5, 80, 0
7, 126419, Note_on_c, 5, 72, 0
7, 126420, Note_on_c, 5, 80, 85
7, 126420, Note_on_c, 5, 70, 85
7, 126479, Note_on_c, 5, 70, 0
7, 126479, Note_on_c, 5, 80, 0
7, 126480, Note_on_c, 5, 80, 85
7, 126480, Note_on_c, 5, 70, 85
7, 126539, Note_on_c, 5, 70, 0
7, 126539, Note_on_c, 5, 80, 0
7, 126540, Note_on_c, 5, 70, 85
7, 126540, Note_on_c, 5, 80, 85
7, 126599, Note_on_c, 5, 80, 0
7, 126599, Note_on_c, 5, 70, 0
7, 126600, Note_on_c, 5, 70, 85
7, 126600, Note_on_c, 5, 80, 85
7, 126659, Note_on_c, 5, 80, 0
7, 126659, Note_on_c, 5, 70, 0
7, 126660, Note_on_c, 5, 79, 85
7, 126660, Note_on_c, 5, 70, 85
7, 126719, Note_on_c, 5, 70, 0
7, 126719, Note_on_c, 5, 79, 0
7, 126720, Note_on_c, 5, 70, 85
7, 126720, Note_on_c, 5, 79, 85
7, 126779, Note_on_c, 5, 79, 0
7, 126779, Note_on_c, 5, 70, 0
7, 126780, Note_on_c, 5, 68, 85
7, 126780, Note_on_c, 5, 79, 85
7, 126839, Note_on_c, 5, 79, 0
7, 126839, Note_on_c, 5, 68, 0
7, 126840, Note_on_c, 5, 68, 85
7, 126840, Note_on_c, 5, 79, 85
7, 126899, Note_on_c, 5, 79, 0
7, 126899, Note_on_c, 5, 68, 0
7, 126900, Note_on_c, 5, 68, 85
7, 126900, Note_on_c, 5, 79, 85
7, 126959, Note_on_c, 5, 79, 0
7, 126959, Note_on_c, 5, 68, 0
7, 126960, Note_on_c, 5, 68, 85
7, 126960, Note_on_c, 5, 79, 85
7, 127019, Note_on_c, 5, 79, 0
7, 127019, Note_on_c, 5, 68, 0
7, 127020, Note_on_c, 5, 68, 85
7, 127020, Note_on_c, 5, 77, 85
7, 127079, Note_on_c, 5, 77, 0
7, 127079, Note_on_c, 5, 68, 0
7, 127080, Note_on_c, 5, 68, 85
7, 127080, Note_on_c, 5, 77, 85
7, 127139, Note_on_c, 5, 77, 0
7, 127139, Note_on_c, 5, 68, 0
7, 127140, Note_on_c, 5, 67, 85
7, 127140, Note_on_c, 5, 77, 85
7, 127199, Note_on_c, 5, 77, 0
7, 127199, Note_on_c, 5, 67, 0
7, 127200, Note_on_c, 5, 67, 85
7, 127200, Note_on_c, 5, 77, 85
7, 127259, Note_on_c, 5, 77, 0
7, 127259, Note_on_c, 5, 67, 0
7, 127260, Note_on_c, 5, 67, 85
7, 127260, Note_on_c, 5, 77, 85
7, 127319, Note_on_c, 5, 77, 0
7, 127319, Note_on_c, 5, 67, 0
7, 127320, Note_on_c, 5, 72, 85
7, 127320, Note_on_c, 5, 77, 85
7, 127349, Note_on_c, 5, 72, 0
7, 127350, Note_on_c, 5, 71, 85
7, 127379, Note_on_c, 5, 71, 0
7, 127379, Note_on_c, 5, 77, 0
7, 127380, Note_on_c, 5, 72, 85
7, 127380, Note_on_c, 5, 75, 85
7, 127409, Note_on_c, 5, 75, 0
7, 127409, Note_on_c, 5, 72, 0
7, 127410, Note_on_c, 5, 67, 85
7, 127439, Note_on_c, 5, 67, 0
7, 127440, Note_on_c, 5, 68, 85
7, 127469, Note_on_c, 5, 68, 0
7, 127470, Note_on_c, 5, 65, 85
7, 127499, Note_on_c, 5, 65, 0
7, 127500, Note_on_c, 5, 67, 85
7, 127529, Note_on_c, 5, 67, 0
7, 127530, Note_on_c, 5, 63, 85
7, 127559, Note_on_c, 5, 63, 0
7, 127560, Note_on_c, 5, 65, 85
7, 127589, Note_on_c, 5, 65, 0
7, 127590, Note_on_c, 5, 62, 85
7, 127619, Note_on_c, 5, 62, 0
7, 127620, Note_on_c, 5, 63, 85
7, 127649, Note_on_c, 5, 63, 0
7, 127650, Note_on_c, 5, 60, 85
7, 127679, Note_on_c, 5, 60, 0
7, 127680, Note_on_c, 5, 62, 85
7, 127709, Note_on_c, 5, 62, 0
7, 127710, Note_on_c, 5, 59, 85
7, 127739, Note_on_c, 5, 59, 0
7, 127740, Note_on_c, 5, 60, 85
7, 127799, Note_on_c, 5, 60, 0
7, 127800, Note_on_c, 5, 68, 85
7, 127859, Note_on_c, 5, 68, 0
7, 127860, Note_on_c, 5, 68, 85
7, 127919, Note_on_c, 5, 68, 0
7, 127920, Note_on_c, 5, 67, 85
7, 128009, Note_on_c, 5, 67, 0
7, 128010, Note_on_c, 5, 69, 85
7, 128039, Note_on_c, 5, 69, 0
7, 128040, Note_on_c, 5, 71, 85
7, 128069, Note_on_c, 5, 71, 0
7, 128070, Note_on_c, 5, 67, 85
7, 128099, Note_on_c, 5, 67, 0
7, 128100, Note_on_c, 5, 72, 85
7, 128129, Note_on_c, 5, 72, 0
7, 128130, Note_on_c, 5, 71, 85
7, 128159, Note_on_c, 5, 71, 0
7, 128160, Note_on_c, 5, 72, 85
7, 128249, Note_on_c, 5, 72, 0
7, 128250, Note_on_c, 5, 74, 85
7, 128279, Note_on_c, 5, 74, 0
7, 128280, Note_on_c, 5, 75, 85
7, 128309, Note_on_c, 5, 75, 0
7, 128310, Note_on_c, 5, 74, 85
7, 128339, Note_on_c, 5, 74, 0
7, 128340, Note_on_c, 5, 77, 85
7, 128369, Note_on_c, 5, 77, 0
7, 128370, Note_on_c, 5, 75, 85
7, 128399, Note_on_c, 5, 75, 0
7, 128400, Note_on_c, 5, 74, 85
7, 128429, Note_on_c, 5, 74, 0
7, 128430, Note_on_c, 5, 72, 85
7, 128459, Note_on_c, 5, 72, 0
7, 128460, Note_on_c, 5, 78, 85
7, 128489, Note_on_c, 5, 78, 0
7, 128490, Note_on_c, 5, 79, 85
7, 128519, Note_on_c, 5, 79, 0
7, 128520, Note_on_c, 5, 67, 85
7, 128579, Note_on_c, 5, 67, 0
7, 128760, Note_on_c, 5, 67, 85
7, 128789, Note_on_c, 5, 67, 0
7, 128790, Note_on_c, 5, 68, 85
7, 128819, Note_on_c, 5, 68, 0
7, 128820, Note_on_c, 5, 70, 85
7, 128879, Note_on_c, 5, 70, 0
7, 128880, Note_on_c, 5, 73, 85
7, 128999, Note_on_c, 5, 73, 0
7, 129000, Note_on_c, 5, 72, 85
7, 129059, Note_on_c, 5, 72, 0
7, 129060, Note_on_c, 5, 64, 85
7, 129119, Note_on_c, 5, 64, 0
7, 129120, Note_on_c, 5, 65, 85
7, 129179, Note_on_c, 5, 65, 0
7, 129180, Note_on_c, 5, 70, 85
7, 129209, Note_on_c, 5, 70, 0
7, 129210, Note_on_c, 5, 67, 85
7, 129239, Note_on_c, 5, 67, 0
7, 129240, Note_on_c, 5, 68, 85
7, 129299, Note_on_c, 5, 68, 0
7, 129480, Note_on_c, 5, 69, 85
7, 129509, Note_on_c, 5, 69, 0
7, 129510, Note_on_c, 5, 70, 85
7, 129539, Note_on_c, 5, 70, 0
7, 129540, Note_on_c, 5, 72, 85
7, 129599, Note_on_c, 5, 72, 0
7, 129600, Note_on_c, 5, 75, 85
7, 129719, Note_on_c, 5, 75, 0
7, 129720, Note_on_c, 5, 74, 85
7, 129779, Note_on_c, 5, 74, 0
7, 129780, Note_on_c, 5, 66, 85
7, 129839, Note_on_c, 5, 66, 0
7, 129840, Note_on_c, 5, 67, 85
7, 129899, Note_on_c, 5, 67, 0
7, 129900, Note_on_c, 5, 72, 85
7, 129929, Note_on_c, 5, 72, 0
7, 129930, Note_on_c, 5, 69, 85
7, 129959, Note_on_c, 5, 69, 0
7, 129960, Note_on_c, 5, 71, 85
7, 130019, Note_on_c, 5, 71, 0
7, 130200, Note_on_c, 5, 79, 85
7, 130229, Note_on_c, 5, 79, 0
7, 130230, Note_on_c, 5, 78, 85
7, 130259, Note_on_c, 5, 78, 0
7, 130260, Note_on_c, 5, 79, 85
7, 130289, Note_on_c, 5, 79, 0
7, 130290, Note_on_c, 5, 74, 85
7, 130319, Note_on_c, 5, 74, 0
7, 130320, Note_on_c, 5, 75, 85
7, 130349, Note_on_c, 5, 75, 0
7, 130350, Note_on_c, 5, 72, 85
7, 130379, Note_on_c, 5, 72, 0
7, 130380, Note_on_c, 5, 74, 85
7, 130409, Note_on_c, 5, 74, 0
7, 130410, Note_on_c, 5, 71, 85
7, 130439, Note_on_c, 5, 71, 0
7, 130440, Note_on_c, 5, 72, 85
7, 130469, Note_on_c, 5, 72, 0
7, 130470, Note_on_c, 5, 69, 85
7, 130499, Note_on_c, 5, 69, 0
7, 130500, Note_on_c, 5, 71, 85
7, 130529, Note_on_c, 5, 71, 0
7, 130530, Note_on_c, 5, 67, 85
7, 130559, Note_on_c, 5, 67, 0
7, 130560, Note_on_c, 5, 71, 85
7, 130589, Note_on_c, 5, 71, 0
7, 130590, Note_on_c, 5, 74, 85
7, 130619, Note_on_c, 5, 74, 0
7, 130619, Note_on_c, 5, 77, 85
7, 130648, Note_on_c, 5, 77, 0
7, 130649, Note_on_c, 5, 74, 85
7, 130678, Note_on_c, 5, 74, 0
7, 130679, Note_on_c, 5, 75, 85
7, 130708, Note_on_c, 5, 75, 0
7, 130709, Note_on_c, 5, 72, 85
7, 130738, Note_on_c, 5, 72, 0
7, 130739, Note_on_c, 5, 74, 85
7, 130768, Note_on_c, 5, 74, 0
7, 130769, Note_on_c, 5, 71, 85
7, 130798, Note_on_c, 5, 71, 0
7, 130799, Note_on_c, 5, 72, 85
7, 130828, Note_on_c, 5, 72, 0
7, 130829, Note_on_c, 5, 69, 85
7, 130858, Note_on_c, 5, 69, 0
7, 130859, Note_on_c, 5, 71, 85
7, 130888, Note_on_c, 5, 71, 0
7, 130889, Note_on_c, 5, 67, 85
7, 130918, Note_on_c, 5, 67, 0
7, 130919, Note_on_c, 5, 71, 85
7, 130948, Note_on_c, 5, 71, 0
7, 130949, Note_on_c, 5, 74, 85
7, 130978, Note_on_c, 5, 74, 0
7, 130979, Note_on_c, 5, 75, 85
7, 130998, Note_on_c, 5, 75, 0
7, 130999, Note_on_c, 5, 73, 85
7, 131018, Note_on_c, 5, 73, 0
7, 131019, Note_on_c, 5, 72, 85
7, 131038, Note_on_c, 5, 72, 0
7, 131039, Note_on_c, 5, 73, 85
7, 131118, Note_on_c, 5, 73, 0
7, 131119, Note_on_c, 5, 72, 85
7, 131138, Note_on_c, 5, 72, 0
7, 131139, Note_on_c, 5, 71, 85
7, 131158, Note_on_c, 5, 71, 0
7, 131159, Note_on_c, 5, 72, 85
7, 131248, Note_on_c, 5, 72, 0
7, 131249, Note_on_c, 5, 80, 85
7, 131278, Note_on_c, 5, 80, 0
7, 131279, Note_on_c, 5, 71, 85
7, 131308, Note_on_c, 5, 71, 0
7, 131309, Note_on_c, 5, 72, 85
7, 131338, Note_on_c, 5, 72, 0
7, 131339, Note_on_c, 5, 71, 85
7, 131368, Note_on_c, 5, 71, 0
7, 131369, Note_on_c, 5, 67, 85
7, 131398, Note_on_c, 5, 67, 0
7, 131399, Note_on_c, 5, 62, 85
7, 131428, Note_on_c, 5, 62, 0
7, 131429, Note_on_c, 5, 59, 85
7, 131458, Note_on_c, 5, 59, 0
7, 131460, Note_on_c, 5, 55, 85
7, 131520, Note_on_c, 5, 55, 0
7, 131520, Note_on_c, 5, 62, 85
7, 131539, Note_on_c, 5, 62, 0
7, 131540, Note_on_c, 5, 63, 85
7, 131559, Note_on_c, 5, 63, 0
7, 131560, Note_on_c, 5, 65, 85
7, 131579, Note_on_c, 5, 65, 0
7, 131580, Note_on_c, 5, 65, 85
7, 131599, Note_on_c, 5, 65, 0
7, 131600, Note_on_c, 5, 67, 85
7, 131619, Note_on_c, 5, 67, 0
7, 131620, Note_on_c, 5, 69, 85
7, 131639, Note_on_c, 5, 69, 0
7, 131640, Note_on_c, 5, 69, 85
7, 131659, Note_on_c, 5, 69, 0
7, 131660, Note_on_c, 5, 71, 85
7, 131679, Note_on_c, 5, 71, 0
7, 131680, Note_on_c, 5, 72, 85
7, 131699, Note_on_c, 5, 72, 0
7, 131700, Note_on_c, 5, 72, 85
7, 131729, Note_on_c, 5, 72, 0
7, 131730, Note_on_c, 5, 67, 85
7, 131759, Note_on_c, 5, 67, 0
7, 131760, Note_on_c, 5, 63, 85
7, 131789, Note_on_c, 5, 63, 0
7, 131790, Note_on_c, 5, 60, 85
7, 131819, Note_on_c, 5, 60, 0
7, 131820, Note_on_c, 5, 55, 85
7, 131879, Note_on_c, 5, 55, 0
7, 131880, Note_on_c, 5, 63, 85
7, 131899, Note_on_c, 5, 63, 0
7, 131900, Note_on_c, 5, 65, 85
7, 131919, Note_on_c, 5, 65, 0
7, 131920, Note_on_c, 5, 67, 85
7, 131939, Note_on_c, 5, 67, 0
7, 131940, Note_on_c, 5, 67, 85
7, 131959, Note_on_c, 5, 67, 0
7, 131960, Note_on_c, 5, 69, 85
7, 131979, Note_on_c, 5, 69, 0
7, 131980, Note_on_c, 5, 71, 85
7, 131999, Note_on_c, 5, 71, 0
7, 132000, Note_on_c, 5, 71, 85
7, 132019, Note_on_c, 5, 71, 0
7, 132020, Note_on_c, 5, 72, 85
7, 132039, Note_on_c, 5, 72, 0
7, 132040, Note_on_c, 5, 74, 85
7, 132059, Note_on_c, 5, 74, 0
7, 132060, Note_on_c, 5, 74, 85
7, 132089, Note_on_c, 5, 74, 0
7, 132090, Note_on_c, 5, 71, 85
7, 132119, Note_on_c, 5, 71, 0
7, 132120, Note_on_c, 5, 65, 85
7, 132149, Note_on_c, 5, 65, 0
7, 132150, Note_on_c, 5, 62, 85
7, 132179, Note_on_c, 5, 62, 0
7, 132180, Note_on_c, 5, 55, 85
7, 132239, Note_on_c, 5, 55, 0
7, 132240, Note_on_c, 5, 67, 85
7, 132259, Note_on_c, 5, 67, 0
7, 132260, Note_on_c, 5, 69, 85
7, 132279, Note_on_c, 5, 69, 0
7, 132280, Note_on_c, 5, 71, 85
7, 132299, Note_on_c, 5, 71, 0
7, 132300, Note_on_c, 5, 71, 85
7, 132319, Note_on_c, 5, 71, 0
7, 132320, Note_on_c, 5, 72, 85
7, 132339, Note_on_c, 5, 72, 0
7, 132340, Note_on_c, 5, 74, 85
7, 132359, Note_on_c, 5, 74, 0
7, 132360, Note_on_c, 5, 74, 85
7, 132379, Note_on_c, 5, 74, 0
7, 132380, Note_on_c, 5, 75, 85
7, 132399, Note_on_c, 5, 75, 0
7, 132400, Note_on_c, 5, 77, 85
7, 132419, Note_on_c, 5, 77, 0
7, 132420, Note_on_c, 5, 75, 85
7, 132449, Note_on_c, 5, 75, 0
7, 132450, Note_on_c, 5, 72, 85
7, 132479, Note_on_c, 5, 72, 0
7, 132480, Note_on_c, 5, 71, 85
7, 132509, Note_on_c, 5, 71, 0
7, 132510, Note_on_c, 5, 72, 85
7, 132539, Note_on_c, 5, 72, 0
7, 132540, Note_on_c, 5, 73, 85
7, 132569, Note_on_c, 5, 73, 0
7, 132570, Note_on_c, 5, 72, 85
7, 132599, Note_on_c, 5, 72, 0
7, 132600, Note_on_c, 5, 71, 85
7, 132629, Note_on_c, 5, 71, 0
7, 132630, Note_on_c, 5, 72, 85
7, 132659, Note_on_c, 5, 72, 0
7, 132660, Note_on_c, 5, 68, 85
7, 132679, Note_on_c, 5, 68, 0
7, 132680, Note_on_c, 5, 71, 85
7, 132699, Note_on_c, 5, 71, 0
7, 132700, Note_on_c, 5, 72, 85
7, 132719, Note_on_c, 5, 72, 0
7, 132720, Note_on_c, 5, 65, 85
7, 132739, Note_on_c, 5, 65, 0
7, 132740, Note_on_c, 5, 71, 85
7, 132759, Note_on_c, 5, 71, 0
7, 132760, Note_on_c, 5, 72, 85
7, 132779, Note_on_c, 5, 72, 0
7, 132780, Note_on_c, 5, 67, 85
7, 132809, Note_on_c, 5, 67, 0
7, 132810, Note_on_c, 5, 72, 85
7, 132839, Note_on_c, 5, 72, 0
7, 132840, Note_on_c, 5, 71, 85
7, 132869, Note_on_c, 5, 71, 0
7, 132870, Note_on_c, 5, 72, 85
7, 132899, Note_on_c, 5, 72, 0
7, 132900, Note_on_c, 5, 75, 85
7, 132929, Note_on_c, 5, 75, 0
7, 132930, Note_on_c, 5, 72, 85
7, 132959, Note_on_c, 5, 72, 0
7, 132960, Note_on_c, 5, 71, 85
7, 132989, Note_on_c, 5, 71, 0
7, 132990, Note_on_c, 5, 72, 85
7, 133019, Note_on_c, 5, 72, 0
7, 133020, Note_on_c, 5, 67, 85
7, 133039, Note_on_c, 5, 67, 0
7, 133040, Note_on_c, 5, 70, 85
7, 133059, Note_on_c, 5, 70, 0
7, 133060, Note_on_c, 5, 72, 85
7, 133079, Note_on_c, 5, 72, 0
7, 133080, Note_on_c, 5, 63, 85
7, 133099, Note_on_c, 5, 63, 0
7, 133100, Note_on_c, 5, 71, 85
7, 133119, Note_on_c, 5, 71, 0
7, 133120, Note_on_c, 5, 72, 85
7, 133139, Note_on_c, 5, 72, 0
7, 133140, Note_on_c, 5, 65, 85
7, 133169, Note_on_c, 5, 65, 0
7, 133170, Note_on_c, 5, 72, 85
7, 133199, Note_on_c, 5, 72, 0
7, 133200, Note_on_c, 5, 71, 85
7, 133229, Note_on_c, 5, 71, 0
7, 133230, Note_on_c, 5, 72, 85
7, 133259, Note_on_c, 5, 72, 0
7, 133260, Note_on_c, 5, 80, 85
7, 133289, Note_on_c, 5, 80, 0
7, 133290, Note_on_c, 5, 72, 85
7, 133319, Note_on_c, 5, 72, 0
7, 133320, Note_on_c, 5, 71, 85
7, 133349, Note_on_c, 5, 71, 0
7, 133350, Note_on_c, 5, 72, 85
7, 133379, Note_on_c, 5, 72, 0
7, 133380, Note_on_c, 5, 65, 85
7, 133399, Note_on_c, 5, 65, 0
7, 133400, Note_on_c, 5, 71, 85
7, 133419, Note_on_c, 5, 71, 0
7, 133420, Note_on_c, 5, 72, 85
7, 133439, Note_on_c, 5, 72, 0
7, 133440, Note_on_c, 5, 62, 85
7, 133459, Note_on_c, 5, 62, 0
7, 133460, Note_on_c, 5, 71, 85
7, 133479, Note_on_c, 5, 71, 0
7, 133480, Note_on_c, 5, 72, 85
7, 133499, Note_on_c, 5, 72, 0
7, 133500, Note_on_c, 5, 63, 85
7, 133559, Note_on_c, 5, 63, 0
7, 133560, Note_on_c, 5, 67, 85
7, 133619, Note_on_c, 5, 67, 0
7, 133620, Note_on_c, 5, 72, 85
7, 133679, Note_on_c, 5, 72, 0
7, 133680, Note_on_c, 5, 75, 85
7, 133740, Note_on_c, 5, 75, 0
7, 133740, Note_on_c, 5, 79, 85
7, 133755, Note_on_c, 5, 79, 0
7, 133755, Note_on_c, 5, 78, 85
7, 133770, Note_on_c, 5, 78, 0
7, 133770, Note_on_c, 5, 79, 85
7, 133785, Note_on_c, 5, 79, 0
7, 133785, Note_on_c, 5, 78, 85
7, 133800, Note_on_c, 5, 78, 0
7, 133800, Note_on_c, 5, 79, 85
7, 133815, Note_on_c, 5, 79, 0
7, 133815, Note_on_c, 5, 78, 85
7, 133830, Note_on_c, 5, 78, 0
7, 133830, Note_on_c, 5, 76, 85
7, 133845, Note_on_c, 5, 76, 0
7, 133845, Note_on_c, 5, 78, 85
7, 133860, Note_on_c, 5, 78, 0
7, 133860, Note_on_c, 5, 79, 85
7, 133920, Note_on_c, 5, 79, 0
7, 133920, Note_on_c, 5, 74, 85
7, 133980, Note_on_c, 5, 74, 0
7, 133980, Note_on_c, 5, 75, 85
7, 134040, Note_on_c, 5, 75, 0
7, 134040, Note_on_c, 5, 72, 85
7, 134100, Note_on_c, 5, 72, 0
7, 134100, Note_on_c, 5, 67, 85
7, 134160, Note_on_c, 5, 67, 0
7, 134160, Note_on_c, 5, 71, 85
7, 134220, Note_on_c, 5, 71, 0
7, 134220, Note_on_c, 5, 72, 85
7, 134250, Note_on_c, 5, 72, 0
7, 134250, Note_on_c, 5, 67, 85
7, 134280, Note_on_c, 5, 67, 0
7, 134280, Note_on_c, 5, 68, 85
7, 134310, Note_on_c, 5, 68, 0
7, 134310, Note_on_c, 5, 65, 85
7, 134340, Note_on_c, 5, 65, 0
7, 134340, Note_on_c, 5, 67, 85
7, 134370, Note_on_c, 5, 67, 0
7, 134370, Note_on_c, 5, 63, 85
7, 134400, Note_on_c, 5, 63, 0
7, 134400, Note_on_c, 5, 65, 85
7, 134430, Note_on_c, 5, 65, 0
7, 134430, Note_on_c, 5, 62, 85
7, 134460, Note_on_c, 5, 62, 0
7, 134460, Note_on_c, 5, 63, 85
7, 134490, Note_on_c, 5, 63, 0
7, 134490, Note_on_c, 5, 60, 85
7, 134520, Note_on_c, 5, 60, 0
7, 134520, Note_on_c, 5, 62, 85
7, 134550, Note_on_c, 5, 62, 0
7, 134550, Note_on_c, 5, 59, 85
7, 134580, Note_on_c, 5, 59, 0
7, 134580, Note_on_c, 5, 60, 85
7, 134700, Note_on_c, 5, 60, 0
7, 134700, End_track
8, 0, Start_track
8, 0, MIDI_port, 0
8, 0, Title_t, "Clave I"
8, 0, Program_c, 6, 6
8, 1920, Note_on_c, 6, 43, 100
8, 1979, Note_on_c, 6, 43, 0
8, 1980, Note_on_c, 6, 55, 100
8, 2039, Note_on_c, 6, 55, 0
8, 2040, Note_on_c, 6, 53, 100
8, 2099, Note_on_c, 6, 53, 0
8, 2100, Note_on_c, 6, 51, 100
8, 2159, Note_on_c, 6, 51, 0
8, 2160, Note_on_c, 6, 50, 100
8, 2189, Note_on_c, 6, 50, 0
8, 2190, Note_on_c, 6, 48, 100
8, 2219, Note_on_c, 6, 48, 0
8, 2220, Note_on_c, 6, 50, 100
8, 2249, Note_on_c, 6, 50, 0
8, 2250, Note_on_c, 6, 51, 100
8, 2279, Note_on_c, 6, 51, 0
8, 2280, Note_on_c, 6, 50, 100
8, 2309, Note_on_c, 6, 50, 0
8, 2310, Note_on_c, 6, 48, 100
8, 2339, Note_on_c, 6, 48, 0
8, 2340, Note_on_c, 6, 46, 100
8, 2369, Note_on_c, 6, 46, 0
8, 2370, Note_on_c, 6, 45, 100
8, 2399, Note_on_c, 6, 45, 0
8, 2400, Note_on_c, 6, 43, 100
8, 2429, Note_on_c, 6, 43, 0
8, 2430, Note_on_c, 6, 42, 100
8, 2459, Note_on_c, 6, 42, 0
8, 2460, Note_on_c, 6, 43, 100
8, 2489, Note_on_c, 6, 43, 0
8, 2490, Note_on_c, 6, 45, 100
8, 2519, Note_on_c, 6, 45, 0
8, 2520, Note_on_c, 6, 43, 100
8, 2549, Note_on_c, 6, 43, 0
8, 2550, Note_on_c, 6, 41, 100
8, 2579, Note_on_c, 6, 41, 0
8, 2580, Note_on_c, 6, 39, 100
8, 2609, Note_on_c, 6, 39, 0
8, 2610, Note_on_c, 6, 38, 100
8, 2639, Note_on_c, 6, 38, 0
8, 2640, Note_on_c, 6, 36, 100
8, 2669, Note_on_c, 6, 36, 0
8, 2670, Note_on_c, 6, 47, 100
8, 2699, Note_on_c, 6, 47, 0
8, 2700, Note_on_c, 6, 48, 100
8, 2729, Note_on_c, 6, 48, 0
8, 2730, Note_on_c, 6, 50, 100
8, 2759, Note_on_c, 6, 50, 0
8, 2760, Note_on_c, 6, 48, 100
8, 2789, Note_on_c, 6, 48, 0
8, 2790, Note_on_c, 6, 46, 100
8, 2819, Note_on_c, 6, 46, 0
8, 2820, Note_on_c, 6, 45, 100
8, 2849, Note_on_c, 6, 45, 0
8, 2850, Note_on_c, 6, 43, 100
8, 2879, Note_on_c, 6, 43, 0
8, 2880, Note_on_c, 6, 42, 100
8, 2999, Note_on_c, 6, 42, 0
8, 3060, Note_on_c, 6, 48, 100
8, 3179, Note_on_c, 6, 48, 0
8, 3180, Note_on_c, 6, 46, 100
8, 3209, Note_on_c, 6, 46, 0
8, 3210, Note_on_c, 6, 45, 100
8, 3239, Note_on_c, 6, 45, 0
8, 3240, Note_on_c, 6, 46, 100
8, 3299, Note_on_c, 6, 46, 0
8, 3300, Note_on_c, 6, 51, 100
8, 3359, Note_on_c, 6, 51, 0
8, 3360, Note_on_c, 6, 50, 100
8, 3419, Note_on_c, 6, 50, 0
8, 3420, Note_on_c, 6, 48, 100
8, 3479, Note_on_c, 6, 48, 0
8, 3480, Note_on_c, 6, 50, 100
8, 3539, Note_on_c, 6, 50, 0
8, 3540, Note_on_c, 6, 38, 100
8, 3599, Note_on_c, 6, 38, 0
8, 3600, Note_on_c, 6, 43, 100
8, 3719, Note_on_c, 6, 43, 0
8, 3780, Note_on_c, 6, 55, 100
8, 3839, Note_on_c, 6, 55, 0
8, 3840, Note_on_c, 6, 50, 100
8, 3959, Note_on_c, 6, 50, 0
8, 4020, Note_on_c, 6, 62, 100
8, 4079, Note_on_c, 6, 62, 0
8, 4080, Note_on_c, 6, 55, 100
8, 4199, Note_on_c, 6, 55, 0
8, 4260, Note_on_c, 6, 55, 100
8, 4319, Note_on_c, 6, 55, 0
8, 4320, Note_on_c, 6, 48, 100
8, 4349, Note_on_c, 6, 48, 0
8, 4350, Note_on_c, 6, 50, 100
8, 4379, Note_on_c, 6, 50, 0
8, 4380, Note_on_c, 6, 51, 100
8, 4409, Note_on_c, 6, 51, 0
8, 4410, Note_on_c, 6, 53, 100
8, 4439, Note_on_c, 6, 53, 0
8, 4440, Note_on_c, 6, 55, 100
8, 4499, Note_on_c, 6, 55, 0
8, 4500, Note_on_c, 6, 60, 100
8, 4559, Note_on_c, 6, 60, 0
8, 4560, Note_on_c, 6, 59, 100
8, 4619, Note_on_c, 6, 59, 0
8, 4620, Note_on_c, 6, 55, 100
8, 4679, Note_on_c, 6, 55, 0
8, 4680, Note_on_c, 6, 50, 100
8, 4739, Note_on_c, 6, 50, 0
8, 4740, Note_on_c, 6, 53, 100
8, 4799, Note_on_c, 6, 53, 0
8, 4800, Note_on_c, 6, 52, 100
8, 4859, Note_on_c, 6, 52, 0
8, 4860, Note_on_c, 6, 48, 100
8, 4919, Note_on_c, 6, 48, 0
8, 4920, Note_on_c, 6, 58, 100
8, 5099, Note_on_c, 6, 58, 0
8, 5100, Note_on_c, 6, 57, 100
8, 5129, Note_on_c, 6, 57, 0
8, 5130, Note_on_c, 6, 55, 100
8, 5159, Note_on_c, 6, 55, 0
8, 5160, Note_on_c, 6, 57, 100
8, 5219, Note_on_c, 6, 57, 0
8, 5220, Note_on_c, 6, 53, 100
8, 5279, Note_on_c, 6, 53, 0
8, 5280, Note_on_c, 6, 50, 100
8, 5339, Note_on_c, 6, 50, 0
8, 5340, Note_on_c, 6, 53, 100
8, 5399, Note_on_c, 6, 53, 0
8, 5400, Note_on_c, 6, 56, 100
8, 5459, Note_on_c, 6, 56, 0
8, 5460, Note_on_c, 6, 48, 100
8, 5519, Note_on_c, 6, 48, 0
8, 5520, Note_on_c, 6, 47, 100
8, 5579, Note_on_c, 6, 47, 0
8, 5580, Note_on_c, 6, 55, 100
8, 5639, Note_on_c, 6, 55, 0
8, 5640, Note_on_c, 6, 48, 100
8, 5699, Note_on_c, 6, 48, 0
8, 5700, Note_on_c, 6, 53, 100
8, 5759, Note_on_c, 6, 53, 0
8, 5760, Note_on_c, 6, 51, 100
8, 5879, Note_on_c, 6, 51, 0
8, 5880, Note_on_c, 6, 51, 100
8, 5900, Note_on_c, 6, 51, 0
8, 5900, Note_on_c, 6, 50, 100
8, 5920, Note_on_c, 6, 50, 0
8, 5920, Note_on_c, 6, 48, 100
8, 5940, Note_on_c, 6, 48, 0
8, 5940, Note_on_c, 6, 50, 100
8, 5955, Note_on_c, 6, 50, 0
8, 5955, Note_on_c, 6, 48, 100
8, 5970, Note_on_c, 6, 48, 0
8, 5970, Note_on_c, 6, 50, 100
8, 6000, Note_on_c, 6, 50, 0
8, 6000, Note_on_c, 6, 48, 100
8, 6029, Note_on_c, 6, 48, 0
8, 6030, Note_on_c, 6, 47, 100
8, 6059, Note_on_c, 6, 47, 0
8, 6060, Note_on_c, 6, 48, 100
8, 6089, Note_on_c, 6, 48, 0
8, 6090, Note_on_c, 6, 50, 100
8, 6119, Note_on_c, 6, 50, 0
8, 6120, Note_on_c, 6, 51, 100
8, 6149, Note_on_c, 6, 51, 0
8, 6150, Note_on_c, 6, 53, 100
8, 6179, Note_on_c, 6, 53, 0
8, 6180, Note_on_c, 6, 55, 100
8, 6209, Note_on_c, 6, 55, 0
8, 6210, Note_on_c, 6, 57, 100
8, 6239, Note_on_c, 6, 57, 0
8, 6240, Note_on_c, 6, 59, 100
8, 6269, Note_on_c, 6, 59, 0
8, 6270, Note_on_c, 6, 57, 100
8, 6299, Note_on_c, 6, 57, 0
8, 6300, Note_on_c, 6, 55, 100
8, 6329, Note_on_c, 6, 55, 0
8, 6330, Note_on_c, 6, 57, 100
8, 6359, Note_on_c, 6, 57, 0
8, 6360, Note_on_c, 6, 59, 100
8, 6389, Note_on_c, 6, 59, 0
8, 6390, Note_on_c, 6, 55, 100
8, 6419, Note_on_c, 6, 55, 0
8, 6420, Note_on_c, 6, 57, 100
8, 6449, Note_on_c, 6, 57, 0
8, 6450, Note_on_c, 6, 59, 100
8, 6479, Note_on_c, 6, 59, 0
8, 6480, Note_on_c, 6, 60, 100
8, 6540, Note_on_c, 6, 60, 0
8, 6540, Note_on_c, 6, 48, 100
8, 6600, Note_on_c, 6, 48, 0
8, 6600, Note_on_c, 6, 60, 100
8, 6750, Note_on_c, 6, 60, 0
8, 6750, Note_on_c, 6, 58, 100
8, 6779, Note_on_c, 6, 58, 0
8, 6780, Note_on_c, 6, 57, 100
8, 6809, Note_on_c, 6, 57, 0
8, 6810, Note_on_c, 6, 55, 100
8, 6839, Note_on_c, 6, 55, 0
8, 6840, Note_on_c, 6, 57, 100
8, 6869, Note_on_c, 6, 57, 0
8, 6870, Note_on_c, 6, 53, 100
8, 6899, Note_on_c, 6, 53, 0
8, 6900, Note_on_c, 6, 55, 100
8, 6929, Note_on_c, 6, 55, 0
8, 6930, Note_on_c, 6, 57, 100
8, 6959, Note_on_c, 6, 57, 0
8, 6960, Note_on_c, 6, 58, 100
8, 7019, Note_on_c, 6, 58, 0
8, 7020, Note_on_c, 6, 46, 100
8, 7079, Note_on_c, 6, 46, 0
8, 7080, Note_on_c, 6, 58, 100
8, 7139, Note_on_c, 6, 58, 0
8, 7140, Note_on_c, 6, 46, 100
8, 7199, Note_on_c, 6, 46, 0
8, 7200, Note_on_c, 6, 58, 100
8, 7229, Note_on_c, 6, 58, 0
8, 7230, Note_on_c, 6, 56, 100
8, 7259, Note_on_c, 6, 56, 0
8, 7260, Note_on_c, 6, 55, 100
8, 7289, Note_on_c, 6, 55, 0
8, 7290, Note_on_c, 6, 56, 100
8, 7319, Note_on_c, 6, 56, 0
8, 7320, Note_on_c, 6, 58, 100
8, 7349, Note_on_c, 6, 58, 0
8, 7350, Note_on_c, 6, 60, 100
8, 7379, Note_on_c, 6, 60, 0
8, 7380, Note_on_c, 6, 61, 100
8, 7409, Note_on_c, 6, 61, 0
8, 7410, Note_on_c, 6, 58, 100
8, 7439, Note_on_c, 6, 58, 0
8, 7440, Note_on_c, 6, 60, 100
8, 7469, Note_on_c, 6, 60, 0
8, 7470, Note_on_c, 6, 61, 100
8, 7499, Note_on_c, 6, 61, 0
8, 7500, Note_on_c, 6, 60, 100
8, 7529, Note_on_c, 6, 60, 0
8, 7530, Note_on_c, 6, 58, 100
8, 7559, Note_on_c, 6, 58, 0
8, 7560, Note_on_c, 6, 56, 100
8, 7589, Note_on_c, 6, 56, 0
8, 7590, Note_on_c, 6, 55, 100
8, 7619, Note_on_c, 6, 55, 0
8, 7620, Note_on_c, 6, 53, 100
8, 7649, Note_on_c, 6, 53, 0
8, 7650, Note_on_c, 6, 52, 100
8, 7679, Note_on_c, 6, 52, 0
8, 7680, Note_on_c, 6, 53, 100
8, 7709, Note_on_c, 6, 53, 0
8, 7710, Note_on_c, 6, 51, 100
8, 7739, Note_on_c, 6, 51, 0
8, 7740, Note_on_c, 6, 50, 100
8, 7769, Note_on_c, 6, 50, 0
8, 7770, Note_on_c, 6, 48, 100
8, 7799, Note_on_c, 6, 48, 0
8, 7800, Note_on_c, 6, 47, 100
8, 7829, Note_on_c, 6, 47, 0
8, 7830, Note_on_c, 6, 43, 100
8, 7859, Note_on_c, 6, 43, 0
8, 7860, Note_on_c, 6, 48, 100
8, 7889, Note_on_c, 6, 48, 0
8, 7890, Note_on_c, 6, 46, 100
8, 7919, Note_on_c, 6, 46, 0
8, 7920, Note_on_c, 6, 45, 100
8, 7949, Note_on_c, 6, 45, 0
8, 7950, Note_on_c, 6, 48, 100
8, 7979, Note_on_c, 6, 48, 0
8, 7980, Note_on_c, 6, 47, 100
8, 8009, Note_on_c, 6, 47, 0
8, 8010, Note_on_c, 6, 48, 100
8, 8039, Note_on_c, 6, 48, 0
8, 8040, Note_on_c, 6, 50, 100
8, 8069, Note_on_c, 6, 50, 0
8, 8070, Note_on_c, 6, 51, 100
8, 8099, Note_on_c, 6, 51, 0
8, 8100, Note_on_c, 6, 53, 100
8, 8129, Note_on_c, 6, 53, 0
8, 8130, Note_on_c, 6, 50, 100
8, 8159, Note_on_c, 6, 50, 0
8, 8160, Note_on_c, 6, 51, 100
8, 8189, Note_on_c, 6, 51, 0
8, 8190, Note_on_c, 6, 50, 100
8, 8219, Note_on_c, 6, 50, 0
8, 8220, Note_on_c, 6, 48, 100
8, 8249, Note_on_c, 6, 48, 0
8, 8250, Note_on_c, 6, 50, 100
8, 8279, Note_on_c, 6, 50, 0
8, 8280, Note_on_c, 6, 51, 100
8, 8309, Note_on_c, 6, 51, 0
8, 8310, Note_on_c, 6, 50, 100
8, 8339, Note_on_c, 6, 50, 0
8, 8340, Note_on_c, 6, 51, 100
8, 8369, Note_on_c, 6, 51, 0
8, 8370, Note_on_c, 6, 53, 100
8, 8399, Note_on_c, 6, 53, 0
8, 8400, Note_on_c, 6, 55, 100
8, 8459, Note_on_c, 6, 55, 0
8, 8460, Note_on_c, 6, 43, 100
8, 8519, Note_on_c, 6, 43, 0
8, 8520, Note_on_c, 6, 55, 100
8, 8579, Note_on_c, 6, 55, 0
8, 8580, Note_on_c, 6, 43, 100
8, 8639, Note_on_c, 6, 43, 0
8, 8640, Note_on_c, 6, 55, 100
8, 8669, Note_on_c, 6, 55, 0
8, 8670, Note_on_c, 6, 53, 100
8, 8699, Note_on_c, 6, 53, 0
8, 8700, Note_on_c, 6, 51, 100
8, 8729, Note_on_c, 6, 51, 0
8, 8730, Note_on_c, 6, 50, 100
8, 8759, Note_on_c, 6, 50, 0
8, 8760, Note_on_c, 6, 51, 100
8, 8789, Note_on_c, 6, 51, 0
8, 8790, Note_on_c, 6, 48, 100
8, 8819, Note_on_c, 6, 48, 0
8, 8820, Note_on_c, 6, 50, 100
8, 8849, Note_on_c, 6, 50, 0
8, 8850, Note_on_c, 6, 51, 100
8, 8879, Note_on_c, 6, 51, 0
8, 8880, Note_on_c, 6, 53, 100
8, 8939, Note_on_c, 6, 53, 0
8, 8940, Note_on_c, 6, 41, 100
8, 8999, Note_on_c, 6, 41, 0
8, 9000, Note_on_c, 6, 53, 100
8, 9150, Note_on_c, 6, 53, 0
8, 9150, Note_on_c, 6, 51, 100
8, 9179, Note_on_c, 6, 51, 0
8, 9180, Note_on_c, 6, 50, 100
8, 9209, Note_on_c, 6, 50, 0
8, 9210, Note_on_c, 6, 51, 100
8, 9239, Note_on_c, 6, 51, 0
8, 9240, Note_on_c, 6, 53, 100
8, 9269, Note_on_c, 6, 53, 0
8, 9270, Note_on_c, 6, 55, 100
8, 9299, Note_on_c, 6, 55, 0
8, 9300, Note_on_c, 6, 56, 100
8, 9329, Note_on_c, 6, 56, 0
8, 9330, Note_on_c, 6, 53, 100
8, 9359, Note_on_c, 6, 53, 0
8, 9360, Note_on_c, 6, 55, 100
8, 9389, Note_on_c, 6, 55, 0
8, 9390, Note_on_c, 6, 56, 100
8, 9419, Note_on_c, 6, 56, 0
8, 9420, Note_on_c, 6, 55, 100
8, 9449, Note_on_c, 6, 55, 0
8, 9450, Note_on_c, 6, 53, 100
8, 9479, Note_on_c, 6, 53, 0
8, 9480, Note_on_c, 6, 51, 100
8, 9509, Note_on_c, 6, 51, 0
8, 9510, Note_on_c, 6, 50, 100
8, 9539, Note_on_c, 6, 50, 0
8, 9540, Note_on_c, 6, 48, 100
8, 9569, Note_on_c, 6, 48, 0
8, 9570, Note_on_c, 6, 47, 100
8, 9599, Note_on_c, 6, 47, 0
8, 9600, Note_on_c, 6, 48, 100
8, 9659, Note_on_c, 6, 48, 0
8, 9660, Note_on_c, 6, 44, 100
8, 9719, Note_on_c, 6, 44, 0
8, 9720, Note_on_c, 6, 41, 100
8, 9779, Note_on_c, 6, 41, 0
8, 9780, Note_on_c, 6, 43, 100
8, 9839, Note_on_c, 6, 43, 0
8, 9840, Note_on_c, 6, 36, 100
8, 9959, Note_on_c, 6, 36, 0
8, 10080, Note_on_c, 6, 60, 100
8, 10109, Note_on_c, 6, 60, 0
8, 10110, Note_on_c, 6, 55, 100
8, 10139, Note_on_c, 6, 55, 0
8, 10140, Note_on_c, 6, 51, 100
8, 10169, Note_on_c, 6, 51, 0
8, 10170, Note_on_c, 6, 55, 100
8, 10199, Note_on_c, 6, 55, 0
8, 10200, Note_on_c, 6, 59, 100
8, 10229, Note_on_c, 6, 59, 0
8, 10230, Note_on_c, 6, 55, 100
8, 10259, Note_on_c, 6, 55, 0
8, 10260, Note_on_c, 6, 50, 100
8, 10289, Note_on_c, 6, 50, 0
8, 10290, Note_on_c, 6, 55, 100
8, 10319, Note_on_c, 6, 55, 0
8, 10320, Note_on_c, 6, 60, 100
8, 10349, Note_on_c, 6, 60, 0
8, 10350, Note_on_c, 6, 59, 100
8, 10379, Note_on_c, 6, 59, 0
8, 10380, Note_on_c, 6, 60, 100
8, 10409, Note_on_c, 6, 60, 0
8, 10410, Note_on_c, 6, 62, 100
8, 10439, Note_on_c, 6, 62, 0
8, 10440, Note_on_c, 6, 63, 100
8, 10469, Note_on_c, 6, 63, 0
8, 10470, Note_on_c, 6, 64, 100
8, 10499, Note_on_c, 6, 64, 0
8, 10500, Note_on_c, 6, 65, 100
8, 10529, Note_on_c, 6, 65, 0
8, 10530, Note_on_c, 6, 67, 100
8, 10559, Note_on_c, 6, 67, 0
8, 10560, Note_on_c, 6, 65, 100
8, 10589, Note_on_c, 6, 65, 0
8, 10590, Note_on_c, 6, 60, 100
8, 10619, Note_on_c, 6, 60, 0
8, 10620, Note_on_c, 6, 56, 100
8, 10649, Note_on_c, 6, 56, 0
8, 10650, Note_on_c, 6, 60, 100
8, 10679, Note_on_c, 6, 60, 0
8, 10680, Note_on_c, 6, 64, 100
8, 10709, Note_on_c, 6, 64, 0
8, 10710, Note_on_c, 6, 60, 100
8, 10739, Note_on_c, 6, 60, 0
8, 10740, Note_on_c, 6, 55, 100
8, 10769, Note_on_c, 6, 55, 0
8, 10770, Note_on_c, 6, 60, 100
8, 10799, Note_on_c, 6, 60, 0
8, 10800, Note_on_c, 6, 65, 100
8, 10829, Note_on_c, 6, 65, 0
8, 10830, Note_on_c, 6, 64, 100
8, 10859, Note_on_c, 6, 64, 0
8, 10860, Note_on_c, 6, 65, 100
8, 10889, Note_on_c, 6, 65, 0
8, 10890, Note_on_c, 6, 67, 100
8, 10919, Note_on_c, 6, 67, 0
8, 10920, Note_on_c, 6, 68, 100
8, 10979, Note_on_c, 6, 68, 0
8, 10980, Note_on_c, 6, 65, 100
8, 11099, Note_on_c, 6, 65, 0
8, 11100, Note_on_c, 6, 58, 100
8, 11219, Note_on_c, 6, 58, 0
8, 11220, Note_on_c, 6, 63, 100
8, 11339, Note_on_c, 6, 63, 0
8, 11340, Note_on_c, 6, 56, 100
8, 11459, Note_on_c, 6, 56, 0
8, 11460, Note_on_c, 6, 62, 100
8, 11579, Note_on_c, 6, 62, 0
8, 11580, Note_on_c, 6, 55, 100
8, 11699, Note_on_c, 6, 55, 0
8, 11700, Note_on_c, 6, 60, 100
8, 11759, Note_on_c, 6, 60, 0
8, 11760, Note_on_c, 6, 59, 100
8, 11819, Note_on_c, 6, 59, 0
8, 11820, Note_on_c, 6, 55, 100
8, 11849, Note_on_c, 6, 55, 0
8, 11850, Note_on_c, 6, 50, 100
8, 11879, Note_on_c, 6, 50, 0
8, 11880, Note_on_c, 6, 47, 100
8, 11909, Note_on_c, 6, 47, 0
8, 11910, Note_on_c, 6, 43, 100
8, 11939, Note_on_c, 6, 43, 0
8, 11940, Note_on_c, 6, 45, 100
8, 11969, Note_on_c, 6, 45, 0
8, 11970, Note_on_c, 6, 47, 100
8, 11999, Note_on_c, 6, 47, 0
8, 12000, Note_on_c, 6, 48, 100
8, 12059, Note_on_c, 6, 48, 0
8, 12060, Note_on_c, 6, 51, 100
8, 12119, Note_on_c, 6, 51, 0
8, 12120, Note_on_c, 6, 55, 100
8, 12179, Note_on_c, 6, 55, 0
8, 12180, Note_on_c, 6, 43, 100
8, 12239, Note_on_c, 6, 43, 0
8, 12240, Note_on_c, 6, 48, 100
8, 12299, Note_on_c, 6, 48, 0
8, 12300, Note_on_c, 6, 36, 100
8, 12359, Note_on_c, 6, 36, 0
8, 12390, Note_on_c, 6, 48, 100
8, 12419, Note_on_c, 6, 48, 0
8, 12420, Note_on_c, 6, 50, 100
8, 12449, Note_on_c, 6, 50, 0
8, 12450, Note_on_c, 6, 52, 100
8, 12479, Note_on_c, 6, 52, 0
8, 12480, Note_on_c, 6, 53, 100
8, 12539, Note_on_c, 6, 53, 0
8, 12540, Note_on_c, 6, 56, 100
8, 12599, Note_on_c, 6, 56, 0
8, 12600, Note_on_c, 6, 60, 100
8, 12659, Note_on_c, 6, 60, 0
8, 12660, Note_on_c, 6, 48, 100
8, 12719, Note_on_c, 6, 48, 0
8, 12720, Note_on_c, 6, 53, 100
8, 12779, Note_on_c, 6, 53, 0
8, 12780, Note_on_c, 6, 41, 100
8, 12839, Note_on_c, 6, 41, 0
8, 12870, Note_on_c, 6, 53, 100
8, 12899, Note_on_c, 6, 53, 0
8, 12900, Note_on_c, 6, 55, 100
8, 12929, Note_on_c, 6, 55, 0
8, 12930, Note_on_c, 6, 56, 100
8, 12959, Note_on_c, 6, 56, 0
8, 12960, Note_on_c, 6, 58, 100
8, 13019, Note_on_c, 6, 58, 0
8, 13110, Note_on_c, 6, 58, 100
8, 13139, Note_on_c, 6, 58, 0
8, 13140, Note_on_c, 6, 56, 100
8, 13169, Note_on_c, 6, 56, 0
8, 13170, Note_on_c, 6, 55, 100
8, 13199, Note_on_c, 6, 55, 0
8, 13200, Note_on_c, 6, 56, 100
8, 13259, Note_on_c, 6, 56, 0
8, 13350, Note_on_c, 6, 56, 100
8, 13379, Note_on_c, 6, 56, 0
8, 13380, Note_on_c, 6, 55, 100
8, 13409, Note_on_c, 6, 55, 0
8, 13410, Note_on_c, 6, 53, 100
8, 13439, Note_on_c, 6, 53, 0
8, 13440, Note_on_c, 6, 55, 100
8, 13499, Note_on_c, 6, 55, 0
8, 13590, Note_on_c, 6, 55, 100
8, 13619, Note_on_c, 6, 55, 0
8, 13620, Note_on_c, 6, 51, 100
8, 13649, Note_on_c, 6, 51, 0
8, 13650, Note_on_c, 6, 48, 100
8, 13679, Note_on_c, 6, 48, 0
8, 13680, Note_on_c, 6, 55, 100
8, 13739, Note_on_c, 6, 55, 0
8, 13740, Note_on_c, 6, 43, 100
8, 13799, Note_on_c, 6, 43, 0
8, 13830, Note_on_c, 6, 55, 100
8, 13859, Note_on_c, 6, 55, 0
8, 13860, Note_on_c, 6, 57, 100
8, 13889, Note_on_c, 6, 57, 0
8, 13890, Note_on_c, 6, 59, 100
8, 13919, Note_on_c, 6, 59, 0
8, 13920, Note_on_c, 6, 60, 100
8, 13949, Note_on_c, 6, 60, 0
8, 13950, Note_on_c, 6, 59, 100
8, 13979, Note_on_c, 6, 59, 0
8, 13980, Note_on_c, 6, 60, 100
8, 14039, Note_on_c, 6, 60, 0
8, 14220, Note_on_c, 6, 53, 100
8, 14279, Note_on_c, 6, 53, 0
8, 14280, Note_on_c, 6, 57, 100
8, 14339, Note_on_c, 6, 57, 0
8, 14340, Note_on_c, 6, 60, 100
8, 14399, Note_on_c, 6, 60, 0
8, 14400, Note_on_c, 6, 58, 100
8, 14429, Note_on_c, 6, 58, 0
8, 14430, Note_on_c, 6, 57, 100
8, 14459, Note_on_c, 6, 57, 0
8, 14460, Note_on_c, 6, 58, 100
8, 14519, Note_on_c, 6, 58, 0
8, 14700, Note_on_c, 6, 51, 100
8, 14759, Note_on_c, 6, 51, 0
8, 14760, Note_on_c, 6, 55, 100
8, 14819, Note_on_c, 6, 55, 0
8, 14820, Note_on_c, 6, 58, 100
8, 14879, Note_on_c, 6, 58, 0
8, 14880, Note_on_c, 6, 56, 100
8, 14909, Note_on_c, 6, 56, 0
8, 14910, Note_on_c, 6, 55, 100
8, 14939, Note_on_c, 6, 55, 0
8, 14940, Note_on_c, 6, 56, 100
8, 14999, Note_on_c, 6, 56, 0
8, 15060, Note_on_c, 6, 57, 100
8, 15119, Note_on_c, 6, 57, 0
8, 15120, Note_on_c, 6, 58, 100
8, 15149, Note_on_c, 6, 58, 0
8, 15150, Note_on_c, 6, 57, 100
8, 15179, Note_on_c, 6, 57, 0
8, 15180, Note_on_c, 6, 58, 100
8, 15239, Note_on_c, 6, 58, 0
8, 15300, Note_on_c, 6, 59, 100
8, 15359, Note_on_c, 6, 59, 0
8, 15360, Note_on_c, 6, 60, 100
8, 15419, Note_on_c, 6, 60, 0
8, 15420, Note_on_c, 6, 48, 100
8, 15479, Note_on_c, 6, 48, 0
8, 15480, Note_on_c, 6, 44, 100
8, 15539, Note_on_c, 6, 44, 0
8, 15540, Note_on_c, 6, 48, 100
8, 15599, Note_on_c, 6, 48, 0
8, 15600, Note_on_c, 6, 38, 100
8, 15659, Note_on_c, 6, 38, 0
8, 15660, Note_on_c, 6, 50, 100
8, 15719, Note_on_c, 6, 50, 0
8, 15720, Note_on_c, 6, 46, 100
8, 15779, Note_on_c, 6, 46, 0
8, 15780, Note_on_c, 6, 50, 100
8, 15839, Note_on_c, 6, 50, 0
8, 15840, Note_on_c, 6, 39, 100
8, 15899, Note_on_c, 6, 39, 0
8, 15900, Note_on_c, 6, 51, 100
8, 15959, Note_on_c, 6, 51, 0
8, 15960, Note_on_c, 6, 51, 100
8, 16019, Note_on_c, 6, 51, 0
8, 16020, Note_on_c, 6, 48, 100
8, 16079, Note_on_c, 6, 48, 0
8, 16080, Note_on_c, 6, 45, 100
8, 16139, Note_on_c, 6, 45, 0
8, 16140, Note_on_c, 6, 57, 100
8, 16199, Note_on_c, 6, 57, 0
8, 16230, Note_on_c, 6, 55, 100
8, 16259, Note_on_c, 6, 55, 0
8, 16260, Note_on_c, 6, 54, 100
8, 16289, Note_on_c, 6, 54, 0
8, 16290, Note_on_c, 6, 52, 100
8, 16319, Note_on_c, 6, 52, 0
8, 16320, Note_on_c, 6, 50, 100
8, 16379, Note_on_c, 6, 50, 0
8, 16380, Note_on_c, 6, 38, 100
8, 16439, Note_on_c, 6, 38, 0
8, 16440, Note_on_c, 6, 50, 100
8, 16499, Note_on_c, 6, 50, 0
8, 16500, Note_on_c, 6, 47, 100
8, 16559, Note_on_c, 6, 47, 0
8, 16560, Note_on_c, 6, 43, 100
8, 16619, Note_on_c, 6, 43, 0
8, 16620, Note_on_c, 6, 55, 100
8, 16679, Note_on_c, 6, 55, 0
8, 16710, Note_on_c, 6, 53, 100
8, 16739, Note_on_c, 6, 53, 0
8, 16740, Note_on_c, 6, 51, 100
8, 16769, Note_on_c, 6, 51, 0
8, 16770, Note_on_c, 6, 50, 100
8, 16799, Note_on_c, 6, 50, 0
8, 16800, Note_on_c, 6, 48, 100
8, 16829, Note_on_c, 6, 48, 0
8, 16830, Note_on_c, 6, 51, 100
8, 16859, Note_on_c, 6, 51, 0
8, 16860, Note_on_c, 6, 55, 100
8, 16889, Note_on_c, 6, 55, 0
8, 16890, Note_on_c, 6, 60, 100
8, 16919, Note_on_c, 6, 60, 0
8, 16920, Note_on_c, 6, 63, 100
8, 16979, Note_on_c, 6, 63, 0
8, 16980, Note_on_c, 6, 48, 100
8, 17039, Note_on_c, 6, 48, 0
8, 17040, Note_on_c, 6, 46, 100
8, 17069, Note_on_c, 6, 46, 0
8, 17070, Note_on_c, 6, 50, 100
8, 17099, Note_on_c, 6, 50, 0
8, 17100, Note_on_c, 6, 55, 100
8, 17129, Note_on_c, 6, 55, 0
8, 17130, Note_on_c, 6, 58, 100
8, 17159, Note_on_c, 6, 58, 0
8, 17160, Note_on_c, 6, 62, 100
8, 17219, Note_on_c, 6, 62, 0
8, 17220, Note_on_c, 6, 46, 100
8, 17279, Note_on_c, 6, 46, 0
8, 17280, Note_on_c, 6, 51, 100
8, 17309, Note_on_c, 6, 51, 0
8, 17310, Note_on_c, 6, 48, 100
8, 17339, Note_on_c, 6, 48, 0
8, 17340, Note_on_c, 6, 51, 100
8, 17369, Note_on_c, 6, 51, 0
8, 17370, Note_on_c, 6, 57, 100
8, 17399, Note_on_c, 6, 57, 0
8, 17400, Note_on_c, 6, 60, 100
8, 17459, Note_on_c, 6, 60, 0
8, 17460, Note_on_c, 6, 39, 100
8, 17519, Note_on_c, 6, 39, 0
8, 17520, Note_on_c, 6, 38, 100
8, 17549, Note_on_c, 6, 38, 0
8, 17550, Note_on_c, 6, 42, 100
8, 17579, Note_on_c, 6, 42, 0
8, 17580, Note_on_c, 6, 45, 100
8, 17609, Note_on_c, 6, 45, 0
8, 17610, Note_on_c, 6, 48, 100
8, 17639, Note_on_c, 6, 48, 0
8, 17640, Note_on_c, 6, 54, 100
8, 17699, Note_on_c, 6, 54, 0
8, 19680, Note_on_c, 6, 55, 100
8, 19709, Note_on_c, 6, 55, 0
8, 19710, Note_on_c, 6, 50, 100
8, 19739, Note_on_c, 6, 50, 0
8, 19740, Note_on_c, 6, 46, 100
8, 19769, Note_on_c, 6, 46, 0
8, 19770, Note_on_c, 6, 50, 100
8, 19799, Note_on_c, 6, 50, 0
8, 19800, Note_on_c, 6, 54, 100
8, 19829, Note_on_c, 6, 54, 0
8, 19830, Note_on_c, 6, 50, 100
8, 19859, Note_on_c, 6, 50, 0
8, 19860, Note_on_c, 6, 45, 100
8, 19889, Note_on_c, 6, 45, 0
8, 19890, Note_on_c, 6, 50, 100
8, 19919, Note_on_c, 6, 50, 0
8, 19920, Note_on_c, 6, 55, 100
8, 19949, Note_on_c, 6, 55, 0
8, 19950, Note_on_c, 6, 54, 100
8, 19979, Note_on_c, 6, 54, 0
8, 19980, Note_on_c, 6, 55, 100
8, 20009, Note_on_c, 6, 55, 0
8, 20010, Note_on_c, 6, 57, 100
8, 20039, Note_on_c, 6, 57, 0
8, 20040, Note_on_c, 6, 58, 100
8, 20069, Note_on_c, 6, 58, 0
8, 20070, Note_on_c, 6, 59, 100
8, 20099, Note_on_c, 6, 59, 0
8, 20100, Note_on_c, 6, 60, 100
8, 20129, Note_on_c, 6, 60, 0
8, 20130, Note_on_c, 6, 62, 100
8, 20159, Note_on_c, 6, 62, 0
8, 20160, Note_on_c, 6, 60, 100
8, 20189, Note_on_c, 6, 60, 0
8, 20190, Note_on_c, 6, 55, 100
8, 20219, Note_on_c, 6, 55, 0
8, 20220, Note_on_c, 6, 51, 100
8, 20249, Note_on_c, 6, 51, 0
8, 20250, Note_on_c, 6, 55, 100
8, 20279, Note_on_c, 6, 55, 0
8, 20280, Note_on_c, 6, 59, 100
8, 20309, Note_on_c, 6, 59, 0
8, 20310, Note_on_c, 6, 55, 100
8, 20339, Note_on_c, 6, 55, 0
8, 20340, Note_on_c, 6, 50, 100
8, 20369, Note_on_c, 6, 50, 0
8, 20370, Note_on_c, 6, 55, 100
8, 20399, Note_on_c, 6, 55, 0
8, 20400, Note_on_c, 6, 60, 100
8, 20429, Note_on_c, 6, 60, 0
8, 20430, Note_on_c, 6, 59, 100
8, 20459, Note_on_c, 6, 59, 0
8, 20460, Note_on_c, 6, 60, 100
8, 20489, Note_on_c, 6, 60, 0
8, 20490, Note_on_c, 6, 62, 100
8, 20519, Note_on_c, 6, 62, 0
8, 20520, Note_on_c, 6, 63, 100
8, 20579, Note_on_c, 6, 63, 0
8, 20580, Note_on_c, 6, 60, 100
8, 20699, Note_on_c, 6, 60, 0
8, 20700, Note_on_c, 6, 53, 100
8, 20819, Note_on_c, 6, 53, 0
8, 20820, Note_on_c, 6, 58, 100
8, 20939, Note_on_c, 6, 58, 0
8, 20940, Note_on_c, 6, 51, 100
8, 21059, Note_on_c, 6, 51, 0
8, 21060, Note_on_c, 6, 57, 100
8, 21179, Note_on_c, 6, 57, 0
8, 21180, Note_on_c, 6, 50, 100
8, 21299, Note_on_c, 6, 50, 0
8, 21300, Note_on_c, 6, 55, 100
8, 21359, Note_on_c, 6, 55, 0
8, 21360, Note_on_c, 6, 54, 100
8, 21419, Note_on_c, 6, 54, 0
8, 21420, Note_on_c, 6, 50, 100
8, 21479, Note_on_c, 6, 50, 0
8, 21510, Note_on_c, 6, 54, 100
8, 21539, Note_on_c, 6, 54, 0
8, 21540, Note_on_c, 6, 55, 100
8, 21569, Note_on_c, 6, 55, 0
8, 21570, Note_on_c, 6, 57, 100
8, 21599, Note_on_c, 6, 57, 0
8, 21600, Note_on_c, 6, 43, 100
8, 21659, Note_on_c, 6, 43, 0
8, 21660, Note_on_c, 6, 55, 100
8, 21719, Note_on_c, 6, 55, 0
8, 21720, Note_on_c, 6, 53, 100
8, 21779, Note_on_c, 6, 53, 0
8, 21780, Note_on_c, 6, 51, 100
8, 21839, Note_on_c, 6, 51, 0
8, 21840, Note_on_c, 6, 50, 100
8, 21869, Note_on_c, 6, 50, 0
8, 21870, Note_on_c, 6, 48, 100
8, 21899, Note_on_c, 6, 48, 0
8, 21900, Note_on_c, 6, 50, 100
8, 21929, Note_on_c, 6, 50, 0
8, 21930, Note_on_c, 6, 51, 100
8, 21959, Note_on_c, 6, 51, 0
8, 21960, Note_on_c, 6, 50, 100
8, 21989, Note_on_c, 6, 50, 0
8, 21990, Note_on_c, 6, 48, 100
8, 22019, Note_on_c, 6, 48, 0
8, 22020, Note_on_c, 6, 47, 100
8, 22049, Note_on_c, 6, 47, 0
8, 22050, Note_on_c, 6, 45, 100
8, 22079, Note_on_c, 6, 45, 0
8, 22080, Note_on_c, 6, 43, 100
8, 22109, Note_on_c, 6, 43, 0
8, 22110, Note_on_c, 6, 42, 100
8, 22139, Note_on_c, 6, 42, 0
8, 22140, Note_on_c, 6, 43, 100
8, 22169, Note_on_c, 6, 43, 0
8, 22170, Note_on_c, 6, 45, 100
8, 22199, Note_on_c, 6, 45, 0
8, 22200, Note_on_c, 6, 43, 100
8, 22229, Note_on_c, 6, 43, 0
8, 22230, Note_on_c, 6, 41, 100
8, 22259, Note_on_c, 6, 41, 0
8, 22260, Note_on_c, 6, 39, 100
8, 22289, Note_on_c, 6, 39, 0
8, 22290, Note_on_c, 6, 38, 100
8, 22319, Note_on_c, 6, 38, 0
8, 22320, Note_on_c, 6, 36, 100
8, 22349, Note_on_c, 6, 36, 0
8, 22350, Note_on_c, 6, 47, 100
8, 22379, Note_on_c, 6, 47, 0
8, 22380, Note_on_c, 6, 48, 100
8, 22409, Note_on_c, 6, 48, 0
8, 22410, Note_on_c, 6, 50, 100
8, 22439, Note_on_c, 6, 50, 0
8, 22440, Note_on_c, 6, 48, 100
8, 22469, Note_on_c, 6, 48, 0
8, 22470, Note_on_c, 6, 46, 100
8, 22499, Note_on_c, 6, 46, 0
8, 22500, Note_on_c, 6, 45, 100
8, 22529, Note_on_c, 6, 45, 0
8, 22530, Note_on_c, 6, 43, 100
8, 22559, Note_on_c, 6, 43, 0
8, 22560, Note_on_c, 6, 42, 100
8, 22679, Note_on_c, 6, 42, 0
8, 22740, Note_on_c, 6, 48, 100
8, 22859, Note_on_c, 6, 48, 0
8, 22860, Note_on_c, 6, 46, 100
8, 22889, Note_on_c, 6, 46, 0
8, 22890, Note_on_c, 6, 45, 100
8, 22919, Note_on_c, 6, 45, 0
8, 22920, Note_on_c, 6, 46, 100
8, 22979, Note_on_c, 6, 46, 0
8, 22980, Note_on_c, 6, 51, 100
8, 23039, Note_on_c, 6, 51, 0
8, 23040, Note_on_c, 6, 50, 100
8, 23099, Note_on_c, 6, 50, 0
8, 23100, Note_on_c, 6, 48, 100
8, 23159, Note_on_c, 6, 48, 0
8, 23160, Note_on_c, 6, 50, 100
8, 23219, Note_on_c, 6, 50, 0
8, 23220, Note_on_c, 6, 38, 100
8, 23279, Note_on_c, 6, 38, 0
8, 23280, Note_on_c, 6, 43, 100
8, 23339, Note_on_c, 6, 43, 0
8, 23340, Note_on_c, 6, 46, 100
8, 23399, Note_on_c, 6, 46, 0
8, 23400, Note_on_c, 6, 50, 100
8, 23459, Note_on_c, 6, 50, 0
8, 23460, Note_on_c, 6, 38, 100
8, 23519, Note_on_c, 6, 38, 0
8, 23520, Note_on_c, 6, 50, 100
8, 23579, Note_on_c, 6, 50, 0
8, 24060, Note_on_c, 6, 55, 100
8, 24119, Note_on_c, 6, 55, 0
8, 24120, Note_on_c, 6, 54, 100
8, 24179, Note_on_c, 6, 54, 0
8, 24180, Note_on_c, 6, 50, 100
8, 24239, Note_on_c, 6, 50, 0
8, 24240, Note_on_c, 6, 55, 100
8, 24299, Note_on_c, 6, 55, 0
8, 24300, Note_on_c, 6, 62, 100
8, 24359, Note_on_c, 6, 62, 0
8, 24360, Note_on_c, 6, 67, 100
8, 24389, Note_on_c, 6, 67, 0
8, 25500, Note_on_c, 6, 55, 100
8, 25559, Note_on_c, 6, 55, 0
8, 25560, Note_on_c, 6, 43, 100
8, 25679, Note_on_c, 6, 43, 0
8, 25740, Note_on_c, 6, 48, 100
8, 25799, Note_on_c, 6, 48, 0
8, 25800, Note_on_c, 6, 60, 100
8, 25919, Note_on_c, 6, 60, 0
8, 25920, Note_on_c, 6, 41, 100
8, 25949, Note_on_c, 6, 41, 0
8, 25950, Note_on_c, 6, 43, 100
8, 25979, Note_on_c, 6, 43, 0
8, 25980, Note_on_c, 6, 44, 100
8, 26009, Note_on_c, 6, 44, 0
8, 26010, Note_on_c, 6, 46, 100
8, 26039, Note_on_c, 6, 46, 0
8, 26040, Note_on_c, 6, 48, 100
8, 26099, Note_on_c, 6, 48, 0
8, 26100, Note_on_c, 6, 53, 100
8, 26159, Note_on_c, 6, 53, 0
8, 26160, Note_on_c, 6, 52, 100
8, 26219, Note_on_c, 6, 52, 0
8, 26220, Note_on_c, 6, 48, 100
8, 26279, Note_on_c, 6, 48, 0
8, 26280, Note_on_c, 6, 43, 100
8, 26339, Note_on_c, 6, 43, 0
8, 26340, Note_on_c, 6, 46, 100
8, 26399, Note_on_c, 6, 46, 0
8, 26400, Note_on_c, 6, 45, 100
8, 26459, Note_on_c, 6, 45, 0
8, 26460, Note_on_c, 6, 41, 100
8, 26519, Note_on_c, 6, 41, 0
8, 26520, Note_on_c, 6, 51, 100
8, 26699, Note_on_c, 6, 51, 0
8, 26700, Note_on_c, 6, 50, 100
8, 26729, Note_on_c, 6, 50, 0
8, 26730, Note_on_c, 6, 48, 100
8, 26759, Note_on_c, 6, 48, 0
8, 26760, Note_on_c, 6, 50, 100
8, 26819, Note_on_c, 6, 50, 0
8, 26820, Note_on_c, 6, 46, 100
8, 26879, Note_on_c, 6, 46, 0
8, 26880, Note_on_c, 6, 43, 100
8, 26939, Note_on_c, 6, 43, 0
8, 26940, Note_on_c, 6, 46, 100
8, 26999, Note_on_c, 6, 46, 0
8, 27000, Note_on_c, 6, 49, 100
8, 27059, Note_on_c, 6, 49, 0
8, 27060, Note_on_c, 6, 41, 100
8, 27119, Note_on_c, 6, 41, 0
8, 27120, Note_on_c, 6, 40, 100
8, 27179, Note_on_c, 6, 40, 0
8, 27180, Note_on_c, 6, 48, 100
8, 27239, Note_on_c, 6, 48, 0
8, 27240, Note_on_c, 6, 41, 100
8, 27299, Note_on_c, 6, 41, 0
8, 27300, Note_on_c, 6, 49, 100
8, 27359, Note_on_c, 6, 49, 0
8, 27360, Note_on_c, 6, 48, 100
8, 27419, Note_on_c, 6, 48, 0
8, 27420, Note_on_c, 6, 46, 100
8, 27479, Note_on_c, 6, 46, 0
8, 27480, Note_on_c, 6, 48, 100
8, 27539, Note_on_c, 6, 48, 0
8, 27540, Note_on_c, 6, 36, 100
8, 27599, Note_on_c, 6, 36, 0
8, 27600, Note_on_c, 6, 41, 100
8, 27659, Note_on_c, 6, 41, 0
8, 28680, Note_on_c, 6, 53, 100
8, 28709, Note_on_c, 6, 53, 0
8, 28710, Note_on_c, 6, 57, 100
8, 28739, Note_on_c, 6, 57, 0
8, 28740, Note_on_c, 6, 58, 100
8, 28769, Note_on_c, 6, 58, 0
8, 28770, Note_on_c, 6, 60, 100
8, 28799, Note_on_c, 6, 60, 0
8, 28800, Note_on_c, 6, 53, 100
8, 28859, Note_on_c, 6, 53, 0
8, 29340, Note_on_c, 6, 58, 100
8, 29399, Note_on_c, 6, 58, 0
8, 29400, Note_on_c, 6, 57, 100
8, 29459, Note_on_c, 6, 57, 0
8, 29460, Note_on_c, 6, 53, 100
8, 29519, Note_on_c, 6, 53, 0
8, 29520, Note_on_c, 6, 58, 100
8, 29579, Note_on_c, 6, 58, 0
8, 29580, Note_on_c, 6, 46, 100
8, 29609, Note_on_c, 6, 46, 0
8, 29610, Note_on_c, 6, 48, 100
8, 29639, Note_on_c, 6, 48, 0
8, 29640, Note_on_c, 6, 49, 100
8, 29699, Note_on_c, 6, 49, 0
8, 29700, Note_on_c, 6, 46, 100
8, 29759, Note_on_c, 6, 46, 0
8, 29760, Note_on_c, 6, 51, 100
8, 29819, Note_on_c, 6, 51, 0
8, 29820, Note_on_c, 6, 58, 100
8, 29879, Note_on_c, 6, 58, 0
8, 29880, Note_on_c, 6, 58, 100
8, 29939, Note_on_c, 6, 58, 0
8, 29940, Note_on_c, 6, 51, 100
8, 29999, Note_on_c, 6, 51, 0
8, 30000, Note_on_c, 6, 56, 100
8, 30029, Note_on_c, 6, 56, 0
8, 30030, Note_on_c, 6, 58, 100
8, 30059, Note_on_c, 6, 58, 0
8, 30060, Note_on_c, 6, 60, 100
8, 30089, Note_on_c, 6, 60, 0
8, 30090, Note_on_c, 6, 58, 100
8, 30119, Note_on_c, 6, 58, 0
8, 30120, Note_on_c, 6, 56, 100
8, 30149, Note_on_c, 6, 56, 0
8, 30150, Note_on_c, 6, 55, 100
8, 30179, Note_on_c, 6, 55, 0
8, 30180, Note_on_c, 6, 56, 100
8, 30209, Note_on_c, 6, 56, 0
8, 30210, Note_on_c, 6, 53, 100
8, 30239, Note_on_c, 6, 53, 0
8, 30240, Note_on_c, 6, 60, 100
8, 30299, Note_on_c, 6, 60, 0
8, 30300, Note_on_c, 6, 67, 100
8, 30359, Note_on_c, 6, 67, 0
8, 30360, Note_on_c, 6, 67, 100
8, 30419, Note_on_c, 6, 67, 0
8, 30420, Note_on_c, 6, 60, 100
8, 30479, Note_on_c, 6, 60, 0
8, 30480, Note_on_c, 6, 65, 100
8, 30509, Note_on_c, 6, 65, 0
8, 30510, Note_on_c, 6, 64, 100
8, 30539, Note_on_c, 6, 64, 0
8, 30540, Note_on_c, 6, 65, 100
8, 30599, Note_on_c, 6, 65, 0
8, 30600, Note_on_c, 6, 53, 100
8, 30659, Note_on_c, 6, 53, 0
8, 30660, Note_on_c, 6, 62, 100
8, 30719, Note_on_c, 6, 62, 0
8, 30720, Note_on_c, 6, 55, 100
8, 30779, Note_on_c, 6, 55, 0
8, 30900, Note_on_c, 6, 43, 100
8, 30959, Note_on_c, 6, 43, 0
8, 30960, Note_on_c, 6, 48, 100
8, 31019, Note_on_c, 6, 48, 0
8, 31140, Note_on_c, 6, 48, 100
8, 31169, Note_on_c, 6, 48, 0
8, 31170, Note_on_c, 6, 49, 100
8, 31199, Note_on_c, 6, 49, 0
8, 31200, Note_on_c, 6, 51, 100
8, 31259, Note_on_c, 6, 51, 0
8, 31380, Note_on_c, 6, 39, 100
8, 31439, Note_on_c, 6, 39, 0
8, 31440, Note_on_c, 6, 44, 100
8, 31499, Note_on_c, 6, 44, 0
8, 32400, Note_on_c, 6, 67, 100
8, 32429, Note_on_c, 6, 67, 0
8, 32430, Note_on_c, 6, 65, 100
8, 32459, Note_on_c, 6, 65, 0
8, 32460, Note_on_c, 6, 63, 100
8, 32489, Note_on_c, 6, 63, 0
8, 32490, Note_on_c, 6, 62, 100
8, 32519, Note_on_c, 6, 62, 0
8, 32520, Note_on_c, 6, 60, 100
8, 32549, Note_on_c, 6, 60, 0
8, 32550, Note_on_c, 6, 62, 100
8, 32579, Note_on_c, 6, 62, 0
8, 32580, Note_on_c, 6, 60, 100
8, 32609, Note_on_c, 6, 60, 0
8, 32610, Note_on_c, 6, 58, 100
8, 32639, Note_on_c, 6, 58, 0
8, 32640, Note_on_c, 6, 56, 100
8, 32669, Note_on_c, 6, 56, 0
8, 32670, Note_on_c, 6, 58, 100
8, 32699, Note_on_c, 6, 58, 0
8, 32700, Note_on_c, 6, 56, 100
8, 32729, Note_on_c, 6, 56, 0
8, 32730, Note_on_c, 6, 55, 100
8, 32759, Note_on_c, 6, 55, 0
8, 32760, Note_on_c, 6, 53, 100
8, 32789, Note_on_c, 6, 53, 0
8, 32790, Note_on_c, 6, 52, 100
8, 32819, Note_on_c, 6, 52, 0
8, 32820, Note_on_c, 6, 53, 100
8, 32879, Note_on_c, 6, 53, 0
8, 32880, Note_on_c, 6, 58, 100
8, 32939, Note_on_c, 6, 58, 0
8, 32940, Note_on_c, 6, 53, 100
8, 32999, Note_on_c, 6, 53, 0
8, 33000, Note_on_c, 6, 50, 100
8, 33059, Note_on_c, 6, 50, 0
8, 33060, Note_on_c, 6, 46, 100
8, 33119, Note_on_c, 6, 46, 0
8, 33120, Note_on_c, 6, 51, 100
8, 33179, Note_on_c, 6, 51, 0
8, 33240, Note_on_c, 6, 51, 100
8, 33269, Note_on_c, 6, 51, 0
8, 33270, Note_on_c, 6, 50, 100
8, 33299, Note_on_c, 6, 50, 0
8, 33300, Note_on_c, 6, 51, 100
8, 33359, Note_on_c, 6, 51, 0
8, 33360, Note_on_c, 6, 56, 100
8, 33419, Note_on_c, 6, 56, 0
8, 33420, Note_on_c, 6, 51, 100
8, 33479, Note_on_c, 6, 51, 0
8, 33480, Note_on_c, 6, 48, 100
8, 33539, Note_on_c, 6, 48, 0
8, 33540, Note_on_c, 6, 44, 100
8, 33599, Note_on_c, 6, 44, 0
8, 33600, Note_on_c, 6, 49, 100
8, 33659, Note_on_c, 6, 49, 0
8, 33660, Note_on_c, 6, 53, 100
8, 33719, Note_on_c, 6, 53, 0
8, 33720, Note_on_c, 6, 50, 100
8, 33779, Note_on_c, 6, 50, 0
8, 33780, Note_on_c, 6, 46, 100
8, 33839, Note_on_c, 6, 46, 0
8, 33840, Note_on_c, 6, 51, 100
8, 33899, Note_on_c, 6, 51, 0
8, 33900, Note_on_c, 6, 55, 100
8, 33959, Note_on_c, 6, 55, 0
8, 33960, Note_on_c, 6, 52, 100
8, 34019, Note_on_c, 6, 52, 0
8, 34020, Note_on_c, 6, 48, 100
8, 34079, Note_on_c, 6, 48, 0
8, 34080, Note_on_c, 6, 53, 100
8, 34109, Note_on_c, 6, 53, 0
8, 34110, Note_on_c, 6, 52, 100
8, 34139, Note_on_c, 6, 52, 0
8, 34140, Note_on_c, 6, 53, 100
8, 34199, Note_on_c, 6, 53, 0
8, 34260, Note_on_c, 6, 53, 100
8, 34319, Note_on_c, 6, 53, 0
8, 34320, Note_on_c, 6, 55, 100
8, 34349, Note_on_c, 6, 55, 0
8, 34350, Note_on_c, 6, 53, 100
8, 34379, Note_on_c, 6, 53, 0
8, 34380, Note_on_c, 6, 55, 100
8, 34439, Note_on_c, 6, 55, 0
8, 34500, Note_on_c, 6, 55, 100
8, 34559, Note_on_c, 6, 55, 0
8, 34560, Note_on_c, 6, 56, 100
8, 34589, Note_on_c, 6, 56, 0
8, 34590, Note_on_c, 6, 55, 100
8, 34619, Note_on_c, 6, 55, 0
8, 34620, Note_on_c, 6, 56, 100
8, 34679, Note_on_c, 6, 56, 0
8, 34860, Note_on_c, 6, 50, 100
8, 34889, Note_on_c, 6, 50, 0
8, 34890, Note_on_c, 6, 51, 100
8, 34919, Note_on_c, 6, 51, 0
8, 34920, Note_on_c, 6, 53, 100
8, 34979, Note_on_c, 6, 53, 0
8, 34980, Note_on_c, 6, 50, 100
8, 35039, Note_on_c, 6, 50, 0
8, 35040, Note_on_c, 6, 55, 100
8, 35069, Note_on_c, 6, 55, 0
8, 35070, Note_on_c, 6, 53, 100
8, 35099, Note_on_c, 6, 53, 0
8, 35100, Note_on_c, 6, 55, 100
8, 35159, Note_on_c, 6, 55, 0
8, 35340, Note_on_c, 6, 48, 100
8, 35369, Note_on_c, 6, 48, 0
8, 35370, Note_on_c, 6, 50, 100
8, 35399, Note_on_c, 6, 50, 0
8, 35400, Note_on_c, 6, 52, 100
8, 35459, Note_on_c, 6, 52, 0
8, 35460, Note_on_c, 6, 48, 100
8, 35519, Note_on_c, 6, 48, 0
8, 35520, Note_on_c, 6, 53, 100
8, 35579, Note_on_c, 6, 53, 0
8, 35670, Note_on_c, 6, 53, 100
8, 35699, Note_on_c, 6, 53, 0
8, 35700, Note_on_c, 6, 56, 100
8, 35729, Note_on_c, 6, 56, 0
8, 35730, Note_on_c, 6, 60, 100
8, 35759, Note_on_c, 6, 60, 0
8, 35760, Note_on_c, 6, 63, 100
8, 35819, Note_on_c, 6, 63, 0
8, 35910, Note_on_c, 6, 67, 100
8, 35939, Note_on_c, 6, 67, 0
8, 35940, Note_on_c, 6, 63, 100
8, 35969, Note_on_c, 6, 63, 0
8, 35970, Note_on_c, 6, 60, 100
8, 35999, Note_on_c, 6, 60, 0
8, 36000, Note_on_c, 6, 56, 100
8, 36059, Note_on_c, 6, 56, 0
8, 36150, Note_on_c, 6, 56, 100
8, 36179, Note_on_c, 6, 56, 0
8, 36180, Note_on_c, 6, 62, 100
8, 36209, Note_on_c, 6, 62, 0
8, 36210, Note_on_c, 6, 65, 100
8, 36239, Note_on_c, 6, 65, 0
8, 36240, Note_on_c, 6, 55, 100
8, 36299, Note_on_c, 6, 55, 0
8, 36390, Note_on_c, 6, 55, 100
8, 36419, Note_on_c, 6, 55, 0
8, 36420, Note_on_c, 6, 57, 100
8, 36449, Note_on_c, 6, 57, 0
8, 36450, Note_on_c, 6, 59, 100
8, 36479, Note_on_c, 6, 59, 0
8, 36480, Note_on_c, 6, 60, 100
8, 36509, Note_on_c, 6, 60, 0
8, 36510, Note_on_c, 6, 55, 100
8, 36539, Note_on_c, 6, 55, 0
8, 36540, Note_on_c, 6, 51, 100
8, 36569, Note_on_c, 6, 51, 0
8, 36570, Note_on_c, 6, 55, 100
8, 36599, Note_on_c, 6, 55, 0
8, 36600, Note_on_c, 6, 59, 100
8, 36629, Note_on_c, 6, 59, 0
8, 36630, Note_on_c, 6, 55, 100
8, 36659, Note_on_c, 6, 55, 0
8, 36660, Note_on_c, 6, 50, 100
8, 36689, Note_on_c, 6, 50, 0
8, 36690, Note_on_c, 6, 55, 100
8, 36719, Note_on_c, 6, 55, 0
8, 36720, Note_on_c, 6, 60, 100
8, 36749, Note_on_c, 6, 60, 0
8, 36750, Note_on_c, 6, 59, 100
8, 36779, Note_on_c, 6, 59, 0
8, 36780, Note_on_c, 6, 60, 100
8, 36809, Note_on_c, 6, 60, 0
8, 36810, Note_on_c, 6, 62, 100
8, 36839, Note_on_c, 6, 62, 0
8, 36840, Note_on_c, 6, 63, 100
8, 36869, Note_on_c, 6, 63, 0
8, 36870, Note_on_c, 6, 64, 100
8, 36899, Note_on_c, 6, 64, 0
8, 36900, Note_on_c, 6, 65, 100
8, 36929, Note_on_c, 6, 65, 0
8, 36930, Note_on_c, 6, 67, 100
8, 36959, Note_on_c, 6, 67, 0
8, 36960, Note_on_c, 6, 65, 100
8, 36989, Note_on_c, 6, 65, 0
8, 36990, Note_on_c, 6, 60, 100
8, 37019, Note_on_c, 6, 60, 0
8, 37020, Note_on_c, 6, 56, 100
8, 37049, Note_on_c, 6, 56, 0
8, 37050, Note_on_c, 6, 60, 100
8, 37079, Note_on_c, 6, 60, 0
8, 37080, Note_on_c, 6, 64, 100
8, 37109, Note_on_c, 6, 64, 0
8, 37110, Note_on_c, 6, 60, 100
8, 37139, Note_on_c, 6, 60, 0
8, 37140, Note_on_c, 6, 55, 100
8, 37169, Note_on_c, 6, 55, 0
8, 37170, Note_on_c, 6, 60, 100
8, 37199, Note_on_c, 6, 60, 0
8, 37200, Note_on_c, 6, 65, 100
8, 37229, Note_on_c, 6, 65, 0
8, 37230, Note_on_c, 6, 64, 100
8, 37259, Note_on_c, 6, 64, 0
8, 37260, Note_on_c, 6, 65, 100
8, 37289, Note_on_c, 6, 65, 0
8, 37290, Note_on_c, 6, 67, 100
8, 37319, Note_on_c, 6, 67, 0
8, 37320, Note_on_c, 6, 68, 100
8, 37379, Note_on_c, 6, 68, 0
8, 37380, Note_on_c, 6, 65, 100
8, 37499, Note_on_c, 6, 65, 0
8, 37500, Note_on_c, 6, 58, 100
8, 37619, Note_on_c, 6, 58, 0
8, 37620, Note_on_c, 6, 63, 100
8, 37739, Note_on_c, 6, 63, 0
8, 37740, Note_on_c, 6, 56, 100
8, 37859, Note_on_c, 6, 56, 0
8, 37860, Note_on_c, 6, 62, 100
8, 37979, Note_on_c, 6, 62, 0
8, 37980, Note_on_c, 6, 55, 100
8, 38099, Note_on_c, 6, 55, 0
8, 38100, Note_on_c, 6, 60, 100
8, 38159, Note_on_c, 6, 60, 0
8, 38160, Note_on_c, 6, 59, 100
8, 38219, Note_on_c, 6, 59, 0
8, 38220, Note_on_c, 6, 55, 100
8, 38249, Note_on_c, 6, 55, 0
8, 38250, Note_on_c, 6, 50, 100
8, 38279, Note_on_c, 6, 50, 0
8, 38280, Note_on_c, 6, 47, 100
8, 38309, Note_on_c, 6, 47, 0
8, 38310, Note_on_c, 6, 43, 100
8, 38339, Note_on_c, 6, 43, 0
8, 38340, Note_on_c, 6, 45, 100
8, 38369, Note_on_c, 6, 45, 0
8, 38370, Note_on_c, 6, 47, 100
8, 38399, Note_on_c, 6, 47, 0
8, 38400, Note_on_c, 6, 48, 100
8, 38459, Note_on_c, 6, 48, 0
8, 38460, Note_on_c, 6, 51, 100
8, 38519, Note_on_c, 6, 51, 0
8, 38520, Note_on_c, 6, 55, 100
8, 38579, Note_on_c, 6, 55, 0
8, 38580, Note_on_c, 6, 43, 100
8, 38639, Note_on_c, 6, 43, 0
8, 38640, Note_on_c, 6, 48, 100
8, 38699, Note_on_c, 6, 48, 0
8, 38700, Note_on_c, 6, 36, 100
8, 38759, Note_on_c, 6, 36, 0
8, 38790, Note_on_c, 6, 48, 100
8, 38819, Note_on_c, 6, 48, 0
8, 38820, Note_on_c, 6, 50, 100
8, 38849, Note_on_c, 6, 50, 0
8, 38850, Note_on_c, 6, 52, 100
8, 38879, Note_on_c, 6, 52, 0
8, 38880, Note_on_c, 6, 53, 100
8, 38939, Note_on_c, 6, 53, 0
8, 38940, Note_on_c, 6, 56, 100
8, 38999, Note_on_c, 6, 56, 0
8, 39000, Note_on_c, 6, 60, 100
8, 39059, Note_on_c, 6, 60, 0
8, 39060, Note_on_c, 6, 48, 100
8, 39119, Note_on_c, 6, 48, 0
8, 39120, Note_on_c, 6, 53, 100
8, 39179, Note_on_c, 6, 53, 0
8, 39180, Note_on_c, 6, 41, 100
8, 39239, Note_on_c, 6, 41, 0
8, 39270, Note_on_c, 6, 53, 100
8, 39299, Note_on_c, 6, 53, 0
8, 39300, Note_on_c, 6, 55, 100
8, 39329, Note_on_c, 6, 55, 0
8, 39330, Note_on_c, 6, 56, 100
8, 39359, Note_on_c, 6, 56, 0
8, 39360, Note_on_c, 6, 58, 100
8, 39419, Note_on_c, 6, 58, 0
8, 39510, Note_on_c, 6, 58, 100
8, 39539, Note_on_c, 6, 58, 0
8, 39540, Note_on_c, 6, 56, 100
8, 39569, Note_on_c, 6, 56, 0
8, 39570, Note_on_c, 6, 55, 100
8, 39599, Note_on_c, 6, 55, 0
8, 39600, Note_on_c, 6, 56, 100
8, 39659, Note_on_c, 6, 56, 0
8, 39750, Note_on_c, 6, 56, 100
8, 39779, Note_on_c, 6, 56, 0
8, 39780, Note_on_c, 6, 55, 100
8, 39809, Note_on_c, 6, 55, 0
8, 39810, Note_on_c, 6, 53, 100
8, 39839, Note_on_c, 6, 53, 0
8, 39840, Note_on_c, 6, 55, 100
8, 39899, Note_on_c, 6, 55, 0
8, 39990, Note_on_c, 6, 55, 100
8, 40019, Note_on_c, 6, 55, 0
8, 40020, Note_on_c, 6, 51, 100
8, 40049, Note_on_c, 6, 51, 0
8, 40050, Note_on_c, 6, 48, 100
8, 40079, Note_on_c, 6, 48, 0
8, 40080, Note_on_c, 6, 55, 100
8, 40139, Note_on_c, 6, 55, 0
8, 40140, Note_on_c, 6, 43, 100
8, 40199, Note_on_c, 6, 43, 0
8, 40230, Note_on_c, 6, 55, 100
8, 40259, Note_on_c, 6, 55, 0
8, 40260, Note_on_c, 6, 57, 100
8, 40289, Note_on_c, 6, 57, 0
8, 40290, Note_on_c, 6, 59, 100
8, 40319, Note_on_c, 6, 59, 0
8, 40320, Note_on_c, 6, 60, 100
8, 40379, Note_on_c, 6, 60, 0
8, 40380, Note_on_c, 6, 48, 100
8, 40409, Note_on_c, 6, 48, 0
8, 40410, Note_on_c, 6, 50, 100
8, 40439, Note_on_c, 6, 50, 0
8, 40440, Note_on_c, 6, 51, 100
8, 40469, Note_on_c, 6, 51, 0
8, 40470, Note_on_c, 6, 50, 100
8, 40499, Note_on_c, 6, 50, 0
8, 40500, Note_on_c, 6, 51, 100
8, 40529, Note_on_c, 6, 51, 0
8, 40530, Note_on_c, 6, 53, 100
8, 40559, Note_on_c, 6, 53, 0
8, 40560, Note_on_c, 6, 55, 100
8, 40589, Note_on_c, 6, 55, 0
8, 40590, Note_on_c, 6, 53, 100
8, 40619, Note_on_c, 6, 53, 0
8, 40620, Note_on_c, 6, 55, 100
8, 40649, Note_on_c, 6, 55, 0
8, 40650, Note_on_c, 6, 56, 100
8, 40679, Note_on_c, 6, 56, 0
8, 40680, Note_on_c, 6, 55, 100
8, 40709, Note_on_c, 6, 55, 0
8, 40710, Note_on_c, 6, 53, 100
8, 40739, Note_on_c, 6, 53, 0
8, 40740, Note_on_c, 6, 52, 100
8, 40769, Note_on_c, 6, 52, 0
8, 40770, Note_on_c, 6, 50, 100
8, 40799, Note_on_c, 6, 50, 0
8, 40800, Note_on_c, 6, 48, 100
8, 40829, Note_on_c, 6, 48, 0
8, 40830, Note_on_c, 6, 47, 100
8, 40859, Note_on_c, 6, 47, 0
8, 40860, Note_on_c, 6, 48, 100
8, 40889, Note_on_c, 6, 48, 0
8, 40890, Note_on_c, 6, 50, 100
8, 40919, Note_on_c, 6, 50, 0
8, 40920, Note_on_c, 6, 48, 100
8, 40949, Note_on_c, 6, 48, 0
8, 40950, Note_on_c, 6, 46, 100
8, 40979, Note_on_c, 6, 46, 0
8, 40980, Note_on_c, 6, 45, 100
8, 41009, Note_on_c, 6, 45, 0
8, 41010, Note_on_c, 6, 43, 100
8, 41039, Note_on_c, 6, 43, 0
8, 41040, Note_on_c, 6, 41, 100
8, 41069, Note_on_c, 6, 41, 0
8, 41070, Note_on_c, 6, 40, 100
8, 41099, Note_on_c, 6, 40, 0
8, 41100, Note_on_c, 6, 41, 100
8, 41129, Note_on_c, 6, 41, 0
8, 41130, Note_on_c, 6, 43, 100
8, 41159, Note_on_c, 6, 43, 0
8, 41160, Note_on_c, 6, 41, 100
8, 41189, Note_on_c, 6, 41, 0
8, 41190, Note_on_c, 6, 39, 100
8, 41219, Note_on_c, 6, 39, 0
8, 41220, Note_on_c, 6, 38, 100
8, 41249, Note_on_c, 6, 38, 0
8, 41250, Note_on_c, 6, 36, 100
8, 41279, Note_on_c, 6, 36, 0
8, 41280, Note_on_c, 6, 47, 100
8, 41399, Note_on_c, 6, 47, 0
8, 41460, Note_on_c, 6, 53, 100
8, 41579, Note_on_c, 6, 53, 0
8, 41580, Note_on_c, 6, 51, 100
8, 41609, Note_on_c, 6, 51, 0
8, 41610, Note_on_c, 6, 50, 100
8, 41639, Note_on_c, 6, 50, 0
8, 41640, Note_on_c, 6, 51, 100
8, 41699, Note_on_c, 6, 51, 0
8, 41700, Note_on_c, 6, 56, 100
8, 41759, Note_on_c, 6, 56, 0
8, 41760, Note_on_c, 6, 55, 100
8, 41819, Note_on_c, 6, 55, 0
8, 41820, Note_on_c, 6, 53, 100
8, 41879, Note_on_c, 6, 53, 0
8, 41880, Note_on_c, 6, 55, 100
8, 41939, Note_on_c, 6, 55, 0
8, 41940, Note_on_c, 6, 43, 100
8, 41999, Note_on_c, 6, 43, 0
8, 42000, Note_on_c, 6, 48, 100
8, 42239, Note_on_c, 6, 48, 0
8, 44160, Note_on_c, 6, 58, 100
8, 44280, Note_on_c, 6, 58, 0
8, 44280, Note_on_c, 6, 46, 100
8, 44340, Note_on_c, 6, 46, 0
8, 44340, Note_on_c, 6, 48, 100
8, 44460, Note_on_c, 6, 48, 0
8, 44460, Note_on_c, 6, 60, 100
8, 44520, Note_on_c, 6, 60, 0
8, 44520, Note_on_c, 6, 62, 100
8, 44640, Note_on_c, 6, 62, 0
8, 44640, Note_on_c, 6, 50, 100
8, 44700, Note_on_c, 6, 50, 0
8, 44700, Note_on_c, 6, 51, 100
8, 44820, Note_on_c, 6, 51, 0
8, 44820, Note_on_c, 6, 63, 100
8, 44880, Note_on_c, 6, 63, 0
8, 44880, Note_on_c, 6, 63, 100
8, 45000, Note_on_c, 6, 63, 0
8, 45000, Note_on_c, 6, 62, 100
8, 45060, Note_on_c, 6, 62, 0
8, 45060, Note_on_c, 6, 60, 100
8, 45180, Note_on_c, 6, 60, 0
8, 45180, Note_on_c, 6, 53, 100
8, 45240, Note_on_c, 6, 53, 0
8, 45240, Note_on_c, 6, 58, 100
8, 45360, Note_on_c, 6, 58, 0
8, 45360, Note_on_c, 6, 56, 100
8, 45420, Note_on_c, 6, 56, 0
8, 45420, Note_on_c, 6, 55, 100
8, 45540, Note_on_c, 6, 55, 0
8, 45540, Note_on_c, 6, 51, 100
8, 45600, Note_on_c, 6, 51, 0
8, 45600, Note_on_c, 6, 56, 100
8, 45720, Note_on_c, 6, 56, 0
8, 45720, Note_on_c, 6, 55, 100
8, 45780, Note_on_c, 6, 55, 0
8, 45780, Note_on_c, 6, 53, 100
8, 45900, Note_on_c, 6, 53, 0
8, 45900, Note_on_c, 6, 50, 100
8, 45960, Note_on_c, 6, 50, 0
8, 45960, Note_on_c, 6, 55, 100
8, 46080, Note_on_c, 6, 55, 0
8, 46080, Note_on_c, 6, 53, 100
8, 46140, Note_on_c, 6, 53, 0
8, 46140, Note_on_c, 6, 51, 100
8, 46260, Note_on_c, 6, 51, 0
8, 46260, Note_on_c, 6, 48, 100
8, 46320, Note_on_c, 6, 48, 0
8, 46320, Note_on_c, 6, 53, 100
8, 46440, Note_on_c, 6, 53, 0
8, 46440, Note_on_c, 6, 51, 100
8, 46500, Note_on_c, 6, 51, 0
8, 46500, Note_on_c, 6, 50, 100
8, 46620, Note_on_c, 6, 50, 0
8, 46620, Note_on_c, 6, 46, 100
8, 46680, Note_on_c, 6, 46, 0
8, 46680, Note_on_c, 6, 51, 100
8, 46800, Note_on_c, 6, 51, 0
8, 46800, Note_on_c, 6, 56, 100
8, 46860, Note_on_c, 6, 56, 0
8, 46860, Note_on_c, 6, 50, 100
8, 46980, Note_on_c, 6, 50, 0
8, 46980, Note_on_c, 6, 55, 100
8, 47040, Note_on_c, 6, 55, 0
8, 47040, Note_on_c, 6, 48, 100
8, 47160, Note_on_c, 6, 48, 0
8, 47160, Note_on_c, 6, 36, 100
8, 47220, Note_on_c, 6, 36, 0
8, 47220, Note_on_c, 6, 38, 100
8, 47340, Note_on_c, 6, 38, 0
8, 47340, Note_on_c, 6, 50, 100
8, 47400, Note_on_c, 6, 50, 0
8, 47400, Note_on_c, 6, 51, 100
8, 47520, Note_on_c, 6, 51, 0
8, 47520, Note_on_c, 6, 39, 100
8, 47580, Note_on_c, 6, 39, 0
8, 47580, Note_on_c, 6, 41, 100
8, 47700, Note_on_c, 6, 41, 0
8, 47700, Note_on_c, 6, 53, 100
8, 47760, Note_on_c, 6, 53, 0
8, 47760, Note_on_c, 6, 53, 100
8, 47880, Note_on_c, 6, 53, 0
8, 47880, Note_on_c, 6, 51, 100
8, 47940, Note_on_c, 6, 51, 0
8, 47940, Note_on_c, 6, 50, 100
8, 48060, Note_on_c, 6, 50, 0
8, 48060, Note_on_c, 6, 55, 100
8, 48120, Note_on_c, 6, 55, 0
8, 48120, Note_on_c, 6, 48, 100
8, 48240, Note_on_c, 6, 48, 0
8, 48240, Note_on_c, 6, 60, 100
8, 48300, Note_on_c, 6, 60, 0
8, 48300, Note_on_c, 6, 52, 100
8, 48420, Note_on_c, 6, 52, 0
8, 48420, Note_on_c, 6, 48, 100
8, 48480, Note_on_c, 6, 48, 0
8, 48480, Note_on_c, 6, 53, 100
8, 48600, Note_on_c, 6, 53, 0
8, 48600, Note_on_c, 6, 61, 100
8, 48660, Note_on_c, 6, 61, 0
8, 48660, Note_on_c, 6, 53, 100
8, 48780, Note_on_c, 6, 53, 0
8, 48780, Note_on_c, 6, 49, 100
8, 48840, Note_on_c, 6, 49, 0
8, 48840, Note_on_c, 6, 55, 100
8, 48960, Note_on_c, 6, 55, 0
8, 48960, Note_on_c, 6, 63, 100
8, 49020, Note_on_c, 6, 63, 0
8, 49020, Note_on_c, 6, 55, 100
8, 49140, Note_on_c, 6, 55, 0
8, 49140, Note_on_c, 6, 51, 100
8, 49200, Note_on_c, 6, 51, 0
8, 49200, Note_on_c, 6, 44, 100
8, 49320, Note_on_c, 6, 44, 0
8, 49320, Note_on_c, 6, 56, 100
8, 49380, Note_on_c, 6, 56, 0
8, 49380, Note_on_c, 6, 58, 100
8, 49500, Note_on_c, 6, 58, 0
8, 49500, Note_on_c, 6, 46, 100
8, 49560, Note_on_c, 6, 46, 0
8, 49560, Note_on_c, 6, 48, 100
8, 49680, Note_on_c, 6, 48, 0
8, 49680, Note_on_c, 6, 60, 100
8, 49740, Note_on_c, 6, 60, 0
8, 49740, Note_on_c, 6, 61, 100
8, 49860, Note_on_c, 6, 61, 0
8, 49860, Note_on_c, 6, 49, 100
8, 49920, Note_on_c, 6, 49, 0
8, 49920, Note_on_c, 6, 49, 100
8, 50040, Note_on_c, 6, 49, 0
8, 50040, Note_on_c, 6, 48, 100
8, 50100, Note_on_c, 6, 48, 0
8, 50100, Note_on_c, 6, 46, 100
8, 50220, Note_on_c, 6, 46, 0
8, 50220, Note_on_c, 6, 51, 100
8, 50280, Note_on_c, 6, 51, 0
8, 50280, Note_on_c, 6, 44, 100
8, 50400, Note_on_c, 6, 44, 0
8, 50400, Note_on_c, 6, 48, 100
8, 50460, Note_on_c, 6, 48, 0
8, 50460, Note_on_c, 6, 41, 100
8, 50580, Note_on_c, 6, 41, 0
8, 50580, Note_on_c, 6, 46, 100
8, 50640, Note_on_c, 6, 46, 0
8, 50640, Note_on_c, 6, 51, 100
8, 50759, Note_on_c, 6, 51, 0
8, 50760, Note_on_c, 6, 39, 100
8, 50819, Note_on_c, 6, 39, 0
8, 50820, Note_on_c, 6, 41, 100
8, 50939, Note_on_c, 6, 41, 0
8, 50940, Note_on_c, 6, 53, 100
8, 50999, Note_on_c, 6, 53, 0
8, 51000, Note_on_c, 6, 55, 100
8, 51119, Note_on_c, 6, 55, 0
8, 51120, Note_on_c, 6, 43, 100
8, 51179, Note_on_c, 6, 43, 0
8, 51180, Note_on_c, 6, 44, 100
8, 51299, Note_on_c, 6, 44, 0
8, 51300, Note_on_c, 6, 56, 100
8, 51359, Note_on_c, 6, 56, 0
8, 51360, Note_on_c, 6, 56, 100
8, 51479, Note_on_c, 6, 56, 0
8, 51480, Note_on_c, 6, 55, 100
8, 51539, Note_on_c, 6, 55, 0
8, 51540, Note_on_c, 6, 53, 100
8, 51659, Note_on_c, 6, 53, 0
8, 51660, Note_on_c, 6, 46, 100
8, 51719, Note_on_c, 6, 46, 0
8, 51720, Note_on_c, 6, 51, 100
8, 51839, Note_on_c, 6, 51, 0
8, 51840, Note_on_c, 6, 53, 100
8, 51899, Note_on_c, 6, 53, 0
8, 51900, Note_on_c, 6, 55, 100
8, 52019, Note_on_c, 6, 55, 0
8, 52020, Note_on_c, 6, 51, 100
8, 52079, Note_on_c, 6, 51, 0
8, 52080, Note_on_c, 6, 56, 100
8, 52199, Note_on_c, 6, 56, 0
8, 52200, Note_on_c, 6, 55, 100
8, 52259, Note_on_c, 6, 55, 0
8, 52260, Note_on_c, 6, 53, 100
8, 52379, Note_on_c, 6, 53, 0
8, 52380, Note_on_c, 6, 50, 100
8, 52439, Note_on_c, 6, 50, 0
8, 52440, Note_on_c, 6, 55, 100
8, 52559, Note_on_c, 6, 55, 0
8, 52560, Note_on_c, 6, 53, 100
8, 52619, Note_on_c, 6, 53, 0
8, 52620, Note_on_c, 6, 51, 100
8, 52739, Note_on_c, 6, 51, 0
8, 52740, Note_on_c, 6, 48, 100
8, 52799, Note_on_c, 6, 48, 0
8, 52800, Note_on_c, 6, 53, 100
8, 52919, Note_on_c, 6, 53, 0
8, 52920, Note_on_c, 6, 51, 100
8, 52979, Note_on_c, 6, 51, 0
8, 52980, Note_on_c, 6, 50, 100
8, 53099, Note_on_c, 6, 50, 0
8, 53100, Note_on_c, 6, 46, 100
8, 53159, Note_on_c, 6, 46, 0
8, 53160, Note_on_c, 6, 51, 100
8, 53279, Note_on_c, 6, 51, 0
8, 53280, Note_on_c, 6, 60, 100
8, 53339, Note_on_c, 6, 60, 0
8, 53340, Note_on_c, 6, 58, 100
8, 53459, Note_on_c, 6, 58, 0
8, 53460, Note_on_c, 6, 46, 100
8, 53519, Note_on_c, 6, 46, 0
8, 53520, Note_on_c, 6, 51, 100
8, 53639, Note_on_c, 6, 51, 0
8, 53640, Note_on_c, 6, 39, 100
8, 53700, Note_on_c, 6, 39, 0
8, 53700, Note_on_c, 6, 39, 100
8, 53819, Note_on_c, 6, 39, 0
8, 53820, Note_on_c, 6, 51, 100
8, 53880, Note_on_c, 6, 51, 0
8, 53880, Note_on_c, 6, 51, 100
8, 53999, Note_on_c, 6, 51, 0
8, 54000, Note_on_c, 6, 39, 100
8, 54060, Note_on_c, 6, 39, 0
8, 54060, Note_on_c, 6, 39, 100
8, 54179, Note_on_c, 6, 39, 0
8, 54180, Note_on_c, 6, 51, 100
8, 54240, Note_on_c, 6, 51, 0
8, 54240, Note_on_c, 6, 51, 100
8, 54359, Note_on_c, 6, 51, 0
8, 54420, Note_on_c, 6, 39, 100
8, 54539, Note_on_c, 6, 39, 0
8, 54600, Note_on_c, 6, 51, 100
8, 54719, Note_on_c, 6, 51, 0
8, 54780, Note_on_c, 6, 39, 100
8, 54899, Note_on_c, 6, 39, 0
8, 54960, Note_on_c, 6, 51, 100
8, 55079, Note_on_c, 6, 51, 0
8, 55140, Note_on_c, 6, 39, 100
8, 55259, Note_on_c, 6, 39, 0
8, 55320, Note_on_c, 6, 51, 100
8, 55379, Note_on_c, 6, 51, 0
8, 55380, Note_on_c, 6, 53, 100
8, 55439, Note_on_c, 6, 53, 0
8, 55440, Note_on_c, 6, 55, 100
8, 55499, Note_on_c, 6, 55, 0
8, 55500, Note_on_c, 6, 48, 100
8, 55619, Note_on_c, 6, 48, 0
8, 55620, Note_on_c, 6, 53, 100
8, 55679, Note_on_c, 6, 53, 0
8, 55680, Note_on_c, 6, 46, 100
8, 55799, Note_on_c, 6, 46, 0
8, 55800, Note_on_c, 6, 48, 100
8, 55859, Note_on_c, 6, 48, 0
8, 55860, Note_on_c, 6, 50, 100
8, 55979, Note_on_c, 6, 50, 0
8, 55980, Note_on_c, 6, 46, 100
8, 56039, Note_on_c, 6, 46, 0
8, 56040, Note_on_c, 6, 51, 100
8, 56159, Note_on_c, 6, 51, 0
8, 56160, Note_on_c, 6, 50, 100
8, 56219, Note_on_c, 6, 50, 0
8, 56220, Note_on_c, 6, 48, 100
8, 56339, Note_on_c, 6, 48, 0
8, 56340, Note_on_c, 6, 45, 100
8, 56399, Note_on_c, 6, 45, 0
8, 56400, Note_on_c, 6, 50, 100
8, 56519, Note_on_c, 6, 50, 0
8, 56520, Note_on_c, 6, 48, 100
8, 56579, Note_on_c, 6, 48, 0
8, 56580, Note_on_c, 6, 46, 100
8, 56699, Note_on_c, 6, 46, 0
8, 56700, Note_on_c, 6, 43, 100
8, 56759, Note_on_c, 6, 43, 0
8, 56760, Note_on_c, 6, 48, 100
8, 56879, Note_on_c, 6, 48, 0
8, 56880, Note_on_c, 6, 46, 100
8, 56939, Note_on_c, 6, 46, 0
8, 56940, Note_on_c, 6, 45, 100
8, 57059, Note_on_c, 6, 45, 0
8, 57060, Note_on_c, 6, 41, 100
8, 57119, Note_on_c, 6, 41, 0
8, 57120, Note_on_c, 6, 46, 100
8, 57239, Note_on_c, 6, 46, 0
8, 57240, Note_on_c, 6, 58, 100
8, 57300, Note_on_c, 6, 58, 0
8, 57300, Note_on_c, 6, 58, 100
8, 57419, Note_on_c, 6, 58, 0
8, 57420, Note_on_c, 6, 46, 100
8, 57480, Note_on_c, 6, 46, 0
8, 57480, Note_on_c, 6, 46, 100
8, 57599, Note_on_c, 6, 46, 0
8, 57600, Note_on_c, 6, 58, 100
8, 57660, Note_on_c, 6, 58, 0
8, 57660, Note_on_c, 6, 58, 100
8, 57779, Note_on_c, 6, 58, 0
8, 57780, Note_on_c, 6, 46, 100
8, 57840, Note_on_c, 6, 46, 0
8, 57840, Note_on_c, 6, 46, 100
8, 57959, Note_on_c, 6, 46, 0
8, 58020, Note_on_c, 6, 58, 100
8, 58139, Note_on_c, 6, 58, 0
8, 58200, Note_on_c, 6, 46, 100
8, 58319, Note_on_c, 6, 46, 0
8, 58380, Note_on_c, 6, 58, 100
8, 58499, Note_on_c, 6, 58, 0
8, 58560, Note_on_c, 6, 46, 100
8, 58679, Note_on_c, 6, 46, 0
8, 58740, Note_on_c, 6, 58, 100
8, 58859, Note_on_c, 6, 58, 0
8, 58920, Note_on_c, 6, 46, 100
8, 58979, Note_on_c, 6, 46, 0
8, 58980, Note_on_c, 6, 48, 100
8, 59039, Note_on_c, 6, 48, 0
8, 59040, Note_on_c, 6, 50, 100
8, 59099, Note_on_c, 6, 50, 0
8, 59100, Note_on_c, 6, 43, 100
8, 59219, Note_on_c, 6, 43, 0
8, 59220, Note_on_c, 6, 48, 100
8, 59279, Note_on_c, 6, 48, 0
8, 59280, Note_on_c, 6, 41, 100
8, 59339, Note_on_c, 6, 41, 0
8, 59340, Note_on_c, 6, 53, 100
8, 59399, Note_on_c, 6, 53, 0
8, 59400, Note_on_c, 6, 51, 100
8, 59459, Note_on_c, 6, 51, 0
8, 59460, Note_on_c, 6, 50, 100
8, 59519, Note_on_c, 6, 50, 0
8, 59520, Note_on_c, 6, 53, 100
8, 59579, Note_on_c, 6, 53, 0
8, 59580, Note_on_c, 6, 58, 100
8, 59639, Note_on_c, 6, 58, 0
8, 59640, Note_on_c, 6, 48, 100
8, 59699, Note_on_c, 6, 48, 0
8, 59700, Note_on_c, 6, 51, 100
8, 59759, Note_on_c, 6, 51, 0
8, 59760, Note_on_c, 6, 57, 100
8, 59819, Note_on_c, 6, 57, 0
8, 59820, Note_on_c, 6, 46, 100
8, 59879, Note_on_c, 6, 46, 0
8, 59880, Note_on_c, 6, 53, 100
8, 59939, Note_on_c, 6, 53, 0
8, 59940, Note_on_c, 6, 58, 100
8, 59999, Note_on_c, 6, 58, 0
8, 60000, Note_on_c, 6, 53, 100
8, 60059, Note_on_c, 6, 53, 0
8, 60060, Note_on_c, 6, 57, 100
8, 60119, Note_on_c, 6, 57, 0
8, 60120, Note_on_c, 6, 60, 100
8, 60179, Note_on_c, 6, 60, 0
8, 60180, Note_on_c, 6, 54, 100
8, 60299, Note_on_c, 6, 54, 0
8, 60300, Note_on_c, 6, 62, 100
8, 60359, Note_on_c, 6, 62, 0
8, 60360, Note_on_c, 6, 55, 100
8, 60479, Note_on_c, 6, 55, 0
8, 60660, Note_on_c, 6, 55, 100
8, 60719, Note_on_c, 6, 55, 0
8, 60720, Note_on_c, 6, 57, 100
8, 60779, Note_on_c, 6, 57, 0
8, 60780, Note_on_c, 6, 60, 100
8, 60839, Note_on_c, 6, 60, 0
8, 60840, Note_on_c, 6, 63, 100
8, 60899, Note_on_c, 6, 63, 0
8, 60900, Note_on_c, 6, 57, 100
8, 61019, Note_on_c, 6, 57, 0
8, 61020, Note_on_c, 6, 65, 100
8, 61079, Note_on_c, 6, 65, 0
8, 61080, Note_on_c, 6, 58, 100
8, 61139, Note_on_c, 6, 58, 0
8, 61140, Note_on_c, 6, 65, 100
8, 61199, Note_on_c, 6, 65, 0
8, 61200, Note_on_c, 6, 68, 100
8, 61259, Note_on_c, 6, 68, 0
8, 61260, Note_on_c, 6, 67, 100
8, 61319, Note_on_c, 6, 67, 0
8, 61320, Note_on_c, 6, 63, 100
8, 61379, Note_on_c, 6, 63, 0
8, 61380, Note_on_c, 6, 63, 100
8, 61439, Note_on_c, 6, 63, 0
8, 61440, Note_on_c, 6, 62, 100
8, 61499, Note_on_c, 6, 62, 0
8, 61500, Note_on_c, 6, 58, 100
8, 61559, Note_on_c, 6, 58, 0
8, 61560, Note_on_c, 6, 53, 100
8, 61619, Note_on_c, 6, 53, 0
8, 61620, Note_on_c, 6, 63, 100
8, 61679, Note_on_c, 6, 63, 0
8, 61680, Note_on_c, 6, 58, 100
8, 61739, Note_on_c, 6, 58, 0
8, 61740, Note_on_c, 6, 51, 100
8, 61799, Note_on_c, 6, 51, 0
8, 61800, Note_on_c, 6, 58, 100
8, 61919, Note_on_c, 6, 58, 0
8, 62100, Note_on_c, 6, 59, 100
8, 62159, Note_on_c, 6, 59, 0
8, 62160, Note_on_c, 6, 60, 100
8, 62219, Note_on_c, 6, 60, 0
8, 62220, Note_on_c, 6, 63, 100
8, 62279, Note_on_c, 6, 63, 0
8, 62280, Note_on_c, 6, 67, 100
8, 62339, Note_on_c, 6, 67, 0
8, 62340, Note_on_c, 6, 60, 100
8, 62459, Note_on_c, 6, 60, 0
8, 62460, Note_on_c, 6, 68, 100
8, 62519, Note_on_c, 6, 68, 0
8, 62520, Note_on_c, 6, 62, 100
8, 62639, Note_on_c, 6, 62, 0
8, 62820, Note_on_c, 6, 58, 100
8, 62879, Note_on_c, 6, 58, 0
8, 62880, Note_on_c, 6, 63, 100
8, 63000, Note_on_c, 6, 63, 0
8, 63000, Note_on_c, 6, 51, 100
8, 63059, Note_on_c, 6, 51, 0
8, 63060, Note_on_c, 6, 49, 100
8, 63180, Note_on_c, 6, 49, 0
8, 63180, Note_on_c, 6, 61, 100
8, 63239, Note_on_c, 6, 61, 0
8, 63240, Note_on_c, 6, 60, 100
8, 63359, Note_on_c, 6, 60, 0
8, 63360, Note_on_c, 6, 48, 100
8, 63419, Note_on_c, 6, 48, 0
8, 63420, Note_on_c, 6, 48, 100
8, 63539, Note_on_c, 6, 48, 0
8, 63540, Note_on_c, 6, 60, 100
8, 63599, Note_on_c, 6, 60, 0
8, 63600, Note_on_c, 6, 53, 100
8, 63659, Note_on_c, 6, 53, 0
8, 63660, Note_on_c, 6, 56, 100
8, 63719, Note_on_c, 6, 56, 0
8, 63720, Note_on_c, 6, 60, 100
8, 63779, Note_on_c, 6, 60, 0
8, 63780, Note_on_c, 6, 56, 100
8, 63839, Note_on_c, 6, 56, 0
8, 63840, Note_on_c, 6, 53, 100
8, 63899, Note_on_c, 6, 53, 0
8, 63900, Note_on_c, 6, 51, 100
8, 63959, Note_on_c, 6, 51, 0
8, 63960, Note_on_c, 6, 50, 100
8, 64019, Note_on_c, 6, 50, 0
8, 64020, Note_on_c, 6, 54, 100
8, 64079, Note_on_c, 6, 54, 0
8, 64080, Note_on_c, 6, 57, 100
8, 64139, Note_on_c, 6, 57, 0
8, 64140, Note_on_c, 6, 54, 100
8, 64199, Note_on_c, 6, 54, 0
8, 64200, Note_on_c, 6, 50, 100
8, 64259, Note_on_c, 6, 50, 0
8, 64260, Note_on_c, 6, 62, 100
8, 64319, Note_on_c, 6, 62, 0
8, 64320, Note_on_c, 6, 62, 100
8, 64350, Note_on_c, 6, 62, 0
8, 64350, Note_on_c, 6, 60, 100
8, 64380, Note_on_c, 6, 60, 0
8, 64380, Note_on_c, 6, 58, 100
8, 64410, Note_on_c, 6, 58, 0
8, 64410, Note_on_c, 6, 57, 100
8, 64440, Note_on_c, 6, 57, 0
8, 64440, Note_on_c, 6, 58, 100
8, 64499, Note_on_c, 6, 58, 0
8, 65760, Note_on_c, 6, 60, 100
8, 65879, Note_on_c, 6, 60, 0
8, 65880, Note_on_c, 6, 48, 100
8, 65939, Note_on_c, 6, 48, 0
8, 65940, Note_on_c, 6, 50, 100
8, 66059, Note_on_c, 6, 50, 0
8, 66060, Note_on_c, 6, 62, 100
8, 66119, Note_on_c, 6, 62, 0
8, 66120, Note_on_c, 6, 63, 100
8, 66239, Note_on_c, 6, 63, 0
8, 66240, Note_on_c, 6, 51, 100
8, 66299, Note_on_c, 6, 51, 0
8, 66300, Note_on_c, 6, 41, 100
8, 66419, Note_on_c, 6, 41, 0
8, 66420, Note_on_c, 6, 53, 100
8, 66479, Note_on_c, 6, 53, 0
8, 66480, Note_on_c, 6, 53, 100
8, 66599, Note_on_c, 6, 53, 0
8, 66600, Note_on_c, 6, 51, 100
8, 66659, Note_on_c, 6, 51, 0
8, 66660, Note_on_c, 6, 50, 100
8, 66779, Note_on_c, 6, 50, 0
8, 66780, Note_on_c, 6, 43, 100
8, 66839, Note_on_c, 6, 43, 0
8, 66840, Note_on_c, 6, 48, 100
8, 66959, Note_on_c, 6, 48, 0
8, 66960, Note_on_c, 6, 36, 100
8, 67019, Note_on_c, 6, 36, 0
8, 67020, Note_on_c, 6, 36, 100
8, 67139, Note_on_c, 6, 36, 0
8, 67140, Note_on_c, 6, 48, 100
8, 67199, Note_on_c, 6, 48, 0
8, 67200, Note_on_c, 6, 48, 100
8, 67319, Note_on_c, 6, 48, 0
8, 67320, Note_on_c, 6, 36, 100
8, 67379, Note_on_c, 6, 36, 0
8, 67380, Note_on_c, 6, 36, 100
8, 67499, Note_on_c, 6, 36, 0
8, 67500, Note_on_c, 6, 48, 100
8, 67559, Note_on_c, 6, 48, 0
8, 67560, Note_on_c, 6, 48, 100
8, 67619, Note_on_c, 6, 48, 0
8, 67620, Note_on_c, 6, 55, 100
8, 67679, Note_on_c, 6, 55, 0
8, 67680, Note_on_c, 6, 60, 100
8, 67739, Note_on_c, 6, 60, 0
8, 67740, Note_on_c, 6, 52, 100
8, 67859, Note_on_c, 6, 52, 0
8, 67860, Note_on_c, 6, 60, 100
8, 67919, Note_on_c, 6, 60, 0
8, 67920, Note_on_c, 6, 53, 100
8, 68039, Note_on_c, 6, 53, 0
8, 68220, Note_on_c, 6, 53, 100
8, 68279, Note_on_c, 6, 53, 0
8, 68280, Note_on_c, 6, 55, 100
8, 68339, Note_on_c, 6, 55, 0
8, 68340, Note_on_c, 6, 58, 100
8, 68399, Note_on_c, 6, 58, 0
8, 68400, Note_on_c, 6, 61, 100
8, 68459, Note_on_c, 6, 61, 0
8, 68460, Note_on_c, 6, 55, 100
8, 68579, Note_on_c, 6, 55, 0
8, 68580, Note_on_c, 6, 63, 100
8, 68639, Note_on_c, 6, 63, 0
8, 68640, Note_on_c, 6, 56, 100
8, 68759, Note_on_c, 6, 56, 0
8, 68820, Note_on_c, 6, 44, 100
8, 68939, Note_on_c, 6, 44, 0
8, 69000, Note_on_c, 6, 56, 100
8, 69119, Note_on_c, 6, 56, 0
8, 69180, Note_on_c, 6, 44, 100
8, 69299, Note_on_c, 6, 44, 0
8, 69360, Note_on_c, 6, 56, 100
8, 69479, Note_on_c, 6, 56, 0
8, 69600, Note_on_c, 6, 51, 100
8, 69659, Note_on_c, 6, 51, 0
8, 69660, Note_on_c, 6, 55, 100
8, 69719, Note_on_c, 6, 55, 0
8, 69720, Note_on_c, 6, 51, 100
8, 69779, Note_on_c, 6, 51, 0
8, 69780, Note_on_c, 6, 48, 100
8, 69839, Note_on_c, 6, 48, 0
8, 69840, Note_on_c, 6, 51, 100
8, 69899, Note_on_c, 6, 51, 0
8, 69900, Note_on_c, 6, 56, 100
8, 69959, Note_on_c, 6, 56, 0
8, 69960, Note_on_c, 6, 51, 100
8, 70019, Note_on_c, 6, 51, 0
8, 70020, Note_on_c, 6, 48, 100
8, 70079, Note_on_c, 6, 48, 0
8, 70080, Note_on_c, 6, 53, 100
8, 70139, Note_on_c, 6, 53, 0
8, 70140, Note_on_c, 6, 48, 100
8, 70199, Note_on_c, 6, 48, 0
8, 70200, Note_on_c, 6, 45, 100
8, 70259, Note_on_c, 6, 45, 0
8, 70260, Note_on_c, 6, 41, 100
8, 70319, Note_on_c, 6, 41, 0
8, 70320, Note_on_c, 6, 48, 100
8, 70379, Note_on_c, 6, 48, 0
8, 70380, Note_on_c, 6, 53, 100
8, 70439, Note_on_c, 6, 53, 0
8, 70440, Note_on_c, 6, 46, 100
8, 70560, Note_on_c, 6, 46, 0
8, 70560, Note_on_c, 6, 58, 100
8, 70619, Note_on_c, 6, 58, 0
8, 70620, Note_on_c, 6, 56, 100
8, 70739, Note_on_c, 6, 56, 0
8, 70740, Note_on_c, 6, 44, 100
8, 70799, Note_on_c, 6, 44, 0
8, 70800, Note_on_c, 6, 43, 100
8, 70919, Note_on_c, 6, 43, 0
8, 70920, Note_on_c, 6, 55, 100
8, 70979, Note_on_c, 6, 55, 0
8, 70980, Note_on_c, 6, 55, 100
8, 71099, Note_on_c, 6, 55, 0
8, 71100, Note_on_c, 6, 43, 100
8, 71159, Note_on_c, 6, 43, 0
8, 71160, Note_on_c, 6, 48, 100
8, 71279, Note_on_c, 6, 48, 0
8, 71280, Note_on_c, 6, 60, 100
8, 71339, Note_on_c, 6, 60, 0
8, 71340, Note_on_c, 6, 62, 100
8, 71459, Note_on_c, 6, 62, 0
8, 71460, Note_on_c, 6, 58, 100
8, 71519, Note_on_c, 6, 58, 0
8, 71520, Note_on_c, 6, 58, 100
8, 71550, Note_on_c, 6, 58, 0
8, 71550, Note_on_c, 6, 56, 100
8, 71580, Note_on_c, 6, 56, 0
8, 71580, Note_on_c, 6, 55, 100
8, 71610, Note_on_c, 6, 55, 0
8, 71610, Note_on_c, 6, 53, 100
8, 71640, Note_on_c, 6, 53, 0
8, 71640, Note_on_c, 6, 55, 100
8, 71699, Note_on_c, 6, 55, 0
8, 72960, Note_on_c, 6, 58, 100
8, 73079, Note_on_c, 6, 58, 0
8, 73080, Note_on_c, 6, 46, 100
8, 73139, Note_on_c, 6, 46, 0
8, 73140, Note_on_c, 6, 48, 100
8, 73259, Note_on_c, 6, 48, 0
8, 73260, Note_on_c, 6, 60, 100
8, 73319, Note_on_c, 6, 60, 0
8, 73320, Note_on_c, 6, 62, 100
8, 73439, Note_on_c, 6, 62, 0
8, 73440, Note_on_c, 6, 50, 100
8, 73499, Note_on_c, 6, 50, 0
8, 73500, Note_on_c, 6, 51, 100
8, 73619, Note_on_c, 6, 51, 0
8, 73620, Note_on_c, 6, 63, 100
8, 73679, Note_on_c, 6, 63, 0
8, 73680, Note_on_c, 6, 63, 100
8, 73799, Note_on_c, 6, 63, 0
8, 73800, Note_on_c, 6, 62, 100
8, 73859, Note_on_c, 6, 62, 0
8, 73860, Note_on_c, 6, 60, 100
8, 73979, Note_on_c, 6, 60, 0
8, 73980, Note_on_c, 6, 53, 100
8, 74039, Note_on_c, 6, 53, 0
8, 74040, Note_on_c, 6, 58, 100
8, 74159, Note_on_c, 6, 58, 0
8, 74160, Note_on_c, 6, 56, 100
8, 74219, Note_on_c, 6, 56, 0
8, 74220, Note_on_c, 6, 55, 100
8, 74339, Note_on_c, 6, 55, 0
8, 74340, Note_on_c, 6, 51, 100
8, 74399, Note_on_c, 6, 51, 0
8, 74400, Note_on_c, 6, 56, 100
8, 74519, Note_on_c, 6, 56, 0
8, 74520, Note_on_c, 6, 55, 100
8, 74579, Note_on_c, 6, 55, 0
8, 74580, Note_on_c, 6, 53, 100
8, 74699, Note_on_c, 6, 53, 0
8, 74700, Note_on_c, 6, 50, 100
8, 74759, Note_on_c, 6, 50, 0
8, 74760, Note_on_c, 6, 55, 100
8, 74879, Note_on_c, 6, 55, 0
8, 74880, Note_on_c, 6, 53, 100
8, 74939, Note_on_c, 6, 53, 0
8, 74940, Note_on_c, 6, 51, 100
8, 75059, Note_on_c, 6, 51, 0
8, 75060, Note_on_c, 6, 48, 100
8, 75119, Note_on_c, 6, 48, 0
8, 75120, Note_on_c, 6, 53, 100
8, 75239, Note_on_c, 6, 53, 0
8, 75240, Note_on_c, 6, 51, 100
8, 75299, Note_on_c, 6, 51, 0
8, 75300, Note_on_c, 6, 50, 100
8, 75419, Note_on_c, 6, 50, 0
8, 75420, Note_on_c, 6, 46, 100
8, 75479, Note_on_c, 6, 46, 0
8, 75480, Note_on_c, 6, 51, 100
8, 75599, Note_on_c, 6, 51, 0
8, 75600, Note_on_c, 6, 39, 100
8, 75659, Note_on_c, 6, 39, 0
8, 75660, Note_on_c, 6, 39, 100
8, 75779, Note_on_c, 6, 39, 0
8, 75780, Note_on_c, 6, 51, 100
8, 75839, Note_on_c, 6, 51, 0
8, 75840, Note_on_c, 6, 51, 100
8, 75959, Note_on_c, 6, 51, 0
8, 75960, Note_on_c, 6, 39, 100
8, 76019, Note_on_c, 6, 39, 0
8, 76020, Note_on_c, 6, 39, 100
8, 76139, Note_on_c, 6, 39, 0
8, 76140, Note_on_c, 6, 51, 100
8, 76199, Note_on_c, 6, 51, 0
8, 76200, Note_on_c, 6, 51, 100
8, 76259, Note_on_c, 6, 51, 0
8, 76260, Note_on_c, 6, 55, 100
8, 76319, Note_on_c, 6, 55, 0
8, 76320, Note_on_c, 6, 58, 100
8, 76379, Note_on_c, 6, 58, 0
8, 76380, Note_on_c, 6, 55, 100
8, 76439, Note_on_c, 6, 55, 0
8, 76440, Note_on_c, 6, 51, 100
8, 76499, Note_on_c, 6, 51, 0
8, 76500, Note_on_c, 6, 55, 100
8, 76559, Note_on_c, 6, 55, 0
8, 76560, Note_on_c, 6, 56, 100
8, 76679, Note_on_c, 6, 56, 0
8, 76680, Note_on_c, 6, 55, 100
8, 76739, Note_on_c, 6, 55, 0
8, 76740, Note_on_c, 6, 53, 100
8, 76859, Note_on_c, 6, 53, 0
8, 76860, Note_on_c, 6, 50, 100
8, 76919, Note_on_c, 6, 50, 0
8, 76920, Note_on_c, 6, 55, 100
8, 77039, Note_on_c, 6, 55, 0
8, 77040, Note_on_c, 6, 53, 100
8, 77099, Note_on_c, 6, 53, 0
8, 77100, Note_on_c, 6, 51, 100
8, 77219, Note_on_c, 6, 51, 0
8, 77220, Note_on_c, 6, 48, 100
8, 77279, Note_on_c, 6, 48, 0
8, 77280, Note_on_c, 6, 53, 100
8, 77399, Note_on_c, 6, 53, 0
8, 77400, Note_on_c, 6, 51, 100
8, 77459, Note_on_c, 6, 51, 0
8, 77460, Note_on_c, 6, 50, 100
8, 77579, Note_on_c, 6, 50, 0
8, 77580, Note_on_c, 6, 46, 100
8, 77639, Note_on_c, 6, 46, 0
8, 77640, Note_on_c, 6, 51, 100
8, 77759, Note_on_c, 6, 51, 0
8, 77760, Note_on_c, 6, 60, 100
8, 77819, Note_on_c, 6, 60, 0
8, 77820, Note_on_c, 6, 58, 100
8, 77939, Note_on_c, 6, 58, 0
8, 77940, Note_on_c, 6, 46, 100
8, 77999, Note_on_c, 6, 46, 0
8, 78000, Note_on_c, 6, 51, 100
8, 78179, Note_on_c, 6, 51, 0
8, 79560, Note_on_c, 6, 48, 100
8, 79589, Note_on_c, 6, 48, 0
8, 79590, Note_on_c, 6, 50, 100
8, 79619, Note_on_c, 6, 50, 0
8, 79620, Note_on_c, 6, 51, 100
8, 79680, Note_on_c, 6, 51, 0
8, 79800, Note_on_c, 6, 55, 100
8, 79860, Note_on_c, 6, 55, 0
8, 79860, Note_on_c, 6, 48, 100
8, 79920, Note_on_c, 6, 48, 0
8, 80040, Note_on_c, 6, 47, 100
8, 80100, Note_on_c, 6, 47, 0
8, 80100, Note_on_c, 6, 48, 100
8, 80160, Note_on_c, 6, 48, 0
8, 80160, Note_on_c, 6, 50, 100
8, 80220, Note_on_c, 6, 50, 0
8, 80220, Note_on_c, 6, 51, 100
8, 80280, Note_on_c, 6, 51, 0
8, 80280, Note_on_c, 6, 51, 100
8, 80310, Note_on_c, 6, 51, 0
8, 80310, Note_on_c, 6, 50, 100
8, 80340, Note_on_c, 6, 50, 0
8, 80340, Note_on_c, 6, 51, 100
8, 80400, Note_on_c, 6, 51, 0
8, 80400, Note_on_c, 6, 48, 100
8, 80460, Note_on_c, 6, 48, 0
8, 80460, Note_on_c, 6, 56, 100
8, 80520, Note_on_c, 6, 56, 0
8, 80520, Note_on_c, 6, 44, 100
8, 80580, Note_on_c, 6, 44, 0
8, 80640, Note_on_c, 6, 43, 100
8, 80670, Note_on_c, 6, 43, 0
8, 80670, Note_on_c, 6, 45, 100
8, 80700, Note_on_c, 6, 45, 0
8, 80700, Note_on_c, 6, 47, 100
8, 80759, Note_on_c, 6, 47, 0
8, 80760, Note_on_c, 6, 50, 100
8, 80819, Note_on_c, 6, 50, 0
8, 80820, Note_on_c, 6, 55, 100
8, 80879, Note_on_c, 6, 55, 0
8, 80880, Note_on_c, 6, 53, 100
8, 80939, Note_on_c, 6, 53, 0
8, 80940, Note_on_c, 6, 52, 100
8, 80999, Note_on_c, 6, 52, 0
8, 81000, Note_on_c, 6, 52, 100
8, 81059, Note_on_c, 6, 52, 0
8, 81060, Note_on_c, 6, 52, 100
8, 81119, Note_on_c, 6, 52, 0
8, 81120, Note_on_c, 6, 53, 100
8, 81179, Note_on_c, 6, 53, 0
8, 81180, Note_on_c, 6, 58, 100
8, 81239, Note_on_c, 6, 58, 0
8, 81240, Note_on_c, 6, 56, 100
8, 81299, Note_on_c, 6, 56, 0
8, 81300, Note_on_c, 6, 55, 100
8, 81359, Note_on_c, 6, 55, 0
8, 81360, Note_on_c, 6, 53, 100
8, 81419, Note_on_c, 6, 53, 0
8, 81420, Note_on_c, 6, 52, 100
8, 81479, Note_on_c, 6, 52, 0
8, 81480, Note_on_c, 6, 53, 100
8, 81539, Note_on_c, 6, 53, 0
8, 81540, Note_on_c, 6, 41, 100
8, 81599, Note_on_c, 6, 41, 0
8, 81600, Note_on_c, 6, 53, 100
8, 81659, Note_on_c, 6, 53, 0
8, 81660, Note_on_c, 6, 54, 100
8, 81719, Note_on_c, 6, 54, 0
8, 81720, Note_on_c, 6, 54, 100
8, 81779, Note_on_c, 6, 54, 0
8, 81780, Note_on_c, 6, 54, 100
8, 81839, Note_on_c, 6, 54, 0
8, 81840, Note_on_c, 6, 55, 100
8, 81899, Note_on_c, 6, 55, 0
8, 81900, Note_on_c, 6, 60, 100
8, 81959, Note_on_c, 6, 60, 0
8, 81960, Note_on_c, 6, 58, 100
8, 82019, Note_on_c, 6, 58, 0
8, 82020, Note_on_c, 6, 57, 100
8, 82079, Note_on_c, 6, 57, 0
8, 82080, Note_on_c, 6, 55, 100
8, 82139, Note_on_c, 6, 55, 0
8, 82140, Note_on_c, 6, 54, 100
8, 82199, Note_on_c, 6, 54, 0
8, 82200, Note_on_c, 6, 55, 100
8, 82259, Note_on_c, 6, 55, 0
8, 82260, Note_on_c, 6, 43, 100
8, 82319, Note_on_c, 6, 43, 0
8, 82320, Note_on_c, 6, 55, 100
8, 82379, Note_on_c, 6, 55, 0
8, 82380, Note_on_c, 6, 51, 100
8, 82439, Note_on_c, 6, 51, 0
8, 82440, Note_on_c, 6, 48, 100
8, 82499, Note_on_c, 6, 48, 0
8, 82560, Note_on_c, 6, 55, 100
8, 82619, Note_on_c, 6, 55, 0
8, 82620, Note_on_c, 6, 53, 100
8, 82679, Note_on_c, 6, 53, 0
8, 82680, Note_on_c, 6, 51, 100
8, 82739, Note_on_c, 6, 51, 0
8, 82740, Note_on_c, 6, 50, 100
8, 82799, Note_on_c, 6, 50, 0
8, 82800, Note_on_c, 6, 48, 100
8, 82859, Note_on_c, 6, 48, 0
8, 82860, Note_on_c, 6, 47, 100
8, 82919, Note_on_c, 6, 47, 0
8, 82920, Note_on_c, 6, 43, 100
8, 82979, Note_on_c, 6, 43, 0
8, 82980, Note_on_c, 6, 55, 100
8, 83039, Note_on_c, 6, 55, 0
8, 83040, Note_on_c, 6, 43, 100
8, 83099, Note_on_c, 6, 43, 0
8, 83100, Note_on_c, 6, 48, 100
8, 83159, Note_on_c, 6, 48, 0
8, 83160, Note_on_c, 6, 53, 100
8, 83219, Note_on_c, 6, 53, 0
8, 83220, Note_on_c, 6, 51, 100
8, 83279, Note_on_c, 6, 51, 0
8, 83280, Note_on_c, 6, 63, 100
8, 83339, Note_on_c, 6, 63, 0
8, 83340, Note_on_c, 6, 62, 100
8, 83399, Note_on_c, 6, 62, 0
8, 83400, Note_on_c, 6, 50, 100
8, 83459, Note_on_c, 6, 50, 0
8, 83460, Note_on_c, 6, 55, 100
8, 83489, Note_on_c, 6, 55, 0
8, 83490, Note_on_c, 6, 43, 100
8, 83519, Note_on_c, 6, 43, 0
8, 83520, Note_on_c, 6, 47, 100
8, 83549, Note_on_c, 6, 47, 0
8, 83550, Note_on_c, 6, 50, 100
8, 83579, Note_on_c, 6, 50, 0
8, 83850, Note_on_c, 6, 43, 100
8, 83879, Note_on_c, 6, 43, 0
8, 83880, Note_on_c, 6, 48, 100
8, 83909, Note_on_c, 6, 48, 0
8, 83910, Note_on_c, 6, 51, 100
8, 83939, Note_on_c, 6, 51, 0
8, 84210, Note_on_c, 6, 43, 100
8, 84239, Note_on_c, 6, 43, 0
8, 84240, Note_on_c, 6, 47, 100
8, 84269, Note_on_c, 6, 47, 0
8, 84270, Note_on_c, 6, 50, 100
8, 84299, Note_on_c, 6, 50, 0
8, 84540, Note_on_c, 6, 48, 100
8, 84660, Note_on_c, 6, 48, 0
8, 84720, Note_on_c, 6, 48, 100
8, 84780, Note_on_c, 6, 48, 0
8, 84780, Note_on_c, 6, 53, 100
8, 84840, Note_on_c, 6, 53, 0
8, 84840, Note_on_c, 6, 50, 100
8, 84900, Note_on_c, 6, 50, 0
8, 84900, Note_on_c, 6, 51, 100
8, 85020, Note_on_c, 6, 51, 0
8, 85080, Note_on_c, 6, 48, 100
8, 85140, Note_on_c, 6, 48, 0
8, 85140, Note_on_c, 6, 51, 100
8, 85200, Note_on_c, 6, 51, 0
8, 85200, Note_on_c, 6, 48, 100
8, 85260, Note_on_c, 6, 48, 0
8, 85260, Note_on_c, 6, 50, 100
8, 85380, Note_on_c, 6, 50, 0
8, 85440, Note_on_c, 6, 53, 100
8, 85500, Note_on_c, 6, 53, 0
8, 85500, Note_on_c, 6, 43, 100
8, 85560, Note_on_c, 6, 43, 0
8, 85560, Note_on_c, 6, 47, 100
8, 85620, Note_on_c, 6, 47, 0
8, 85620, Note_on_c, 6, 48, 100
8, 85650, Note_on_c, 6, 48, 0
8, 85650, Note_on_c, 6, 60, 100
8, 85680, Note_on_c, 6, 60, 0
8, 85680, Note_on_c, 6, 58, 100
8, 85710, Note_on_c, 6, 58, 0
8, 85710, Note_on_c, 6, 56, 100
8, 85740, Note_on_c, 6, 56, 0
8, 85740, Note_on_c, 6, 55, 100
8, 85770, Note_on_c, 6, 55, 0
8, 85770, Note_on_c, 6, 53, 100
8, 85800, Note_on_c, 6, 53, 0
8, 85800, Note_on_c, 6, 51, 100
8, 85830, Note_on_c, 6, 51, 0
8, 85830, Note_on_c, 6, 50, 100
8, 85860, Note_on_c, 6, 50, 0
8, 85860, Note_on_c, 6, 48, 100
8, 85890, Note_on_c, 6, 48, 0
8, 85890, Note_on_c, 6, 51, 100
8, 85920, Note_on_c, 6, 51, 0
8, 85920, Note_on_c, 6, 50, 100
8, 85950, Note_on_c, 6, 50, 0
8, 85950, Note_on_c, 6, 48, 100
8, 85980, Note_on_c, 6, 48, 0
8, 85980, Note_on_c, 6, 47, 100
8, 86010, Note_on_c, 6, 47, 0
8, 86010, Note_on_c, 6, 43, 100
8, 86040, Note_on_c, 6, 43, 0
8, 86040, Note_on_c, 6, 45, 100
8, 86070, Note_on_c, 6, 45, 0
8, 86070, Note_on_c, 6, 47, 100
8, 86100, Note_on_c, 6, 47, 0
8, 86100, Note_on_c, 6, 48, 100
8, 86130, Note_on_c, 6, 48, 0
8, 86130, Note_on_c, 6, 50, 100
8, 86160, Note_on_c, 6, 50, 0
8, 86160, Note_on_c, 6, 51, 100
8, 86190, Note_on_c, 6, 51, 0
8, 86190, Note_on_c, 6, 53, 100
8, 86220, Note_on_c, 6, 53, 0
8, 86220, Note_on_c, 6, 55, 100
8, 86280, Note_on_c, 6, 55, 0
8, 86280, Note_on_c, 6, 43, 100
8, 86340, Note_on_c, 6, 43, 0
8, 86340, Note_on_c, 6, 48, 100
8, 86400, Note_on_c, 6, 48, 0
8, 86400, Note_on_c, 6, 36, 100
8, 86460, Note_on_c, 6, 36, 0
8, 86460, Note_on_c, 6, 36, 100
8, 86520, Note_on_c, 6, 36, 0
8, 86520, Note_on_c, 6, 36, 100
8, 86580, Note_on_c, 6, 36, 0
8, 86580, Note_on_c, 6, 36, 100
8, 86640, Note_on_c, 6, 36, 0
8, 86640, Note_on_c, 6, 36, 100
8, 86700, Note_on_c, 6, 36, 0
8, 86700, Note_on_c, 6, 36, 100
8, 86820, Note_on_c, 6, 36, 0
8, 86880, Note_on_c, 6, 48, 100
8, 86940, Note_on_c, 6, 48, 0
8, 86940, Note_on_c, 6, 50, 100
8, 87000, Note_on_c, 6, 50, 0
8, 87000, Note_on_c, 6, 51, 100
8, 87060, Note_on_c, 6, 51, 0
8, 87060, Note_on_c, 6, 53, 100
8, 87090, Note_on_c, 6, 53, 0
8, 87090, Note_on_c, 6, 55, 100
8, 87120, Note_on_c, 6, 55, 0
8, 87120, Note_on_c, 6, 56, 100
8, 87180, Note_on_c, 6, 56, 0
8, 87240, Note_on_c, 6, 53, 100
8, 87299, Note_on_c, 6, 53, 0
8, 87300, Note_on_c, 6, 55, 100
8, 87359, Note_on_c, 6, 55, 0
8, 87360, Note_on_c, 6, 56, 100
8, 87419, Note_on_c, 6, 56, 0
8, 87420, Note_on_c, 6, 47, 100
8, 87449, Note_on_c, 6, 47, 0
8, 87450, Note_on_c, 6, 48, 100
8, 87479, Note_on_c, 6, 48, 0
8, 87480, Note_on_c, 6, 50, 100
8, 87539, Note_on_c, 6, 50, 0
8, 87600, Note_on_c, 6, 47, 100
8, 87659, Note_on_c, 6, 47, 0
8, 87660, Note_on_c, 6, 48, 100
8, 87719, Note_on_c, 6, 48, 0
8, 87720, Note_on_c, 6, 50, 100
8, 87779, Note_on_c, 6, 50, 0
8, 87780, Note_on_c, 6, 51, 100
8, 87809, Note_on_c, 6, 51, 0
8, 87810, Note_on_c, 6, 53, 100
8, 87839, Note_on_c, 6, 53, 0
8, 87840, Note_on_c, 6, 55, 100
8, 87899, Note_on_c, 6, 55, 0
8, 87960, Note_on_c, 6, 43, 100
8, 88019, Note_on_c, 6, 43, 0
8, 88020, Note_on_c, 6, 39, 100
8, 88079, Note_on_c, 6, 39, 0
8, 88080, Note_on_c, 6, 43, 100
8, 88139, Note_on_c, 6, 43, 0
8, 88140, Note_on_c, 6, 36, 100
8, 88259, Note_on_c, 6, 36, 0
8, 88320, Note_on_c, 6, 51, 100
8, 88379, Note_on_c, 6, 51, 0
8, 88380, Note_on_c, 6, 50, 100
8, 88439, Note_on_c, 6, 50, 0
8, 88440, Note_on_c, 6, 48, 100
8, 88499, Note_on_c, 6, 48, 0
8, 88500, Note_on_c, 6, 55, 100
8, 88559, Note_on_c, 6, 55, 0
8, 88560, Note_on_c, 6, 43, 100
8, 88619, Note_on_c, 6, 43, 0
8, 88680, Note_on_c, 6, 62, 100
8, 88739, Note_on_c, 6, 62, 0
8, 88740, Note_on_c, 6, 59, 100
8, 88799, Note_on_c, 6, 59, 0
8, 88800, Note_on_c, 6, 55, 100
8, 88859, Note_on_c, 6, 55, 0
8, 88860, Note_on_c, 6, 50, 100
8, 88919, Note_on_c, 6, 50, 0
8, 88920, Note_on_c, 6, 55, 100
8, 88979, Note_on_c, 6, 55, 0
8, 88980, Note_on_c, 6, 59, 100
8, 89039, Note_on_c, 6, 59, 0
8, 89040, Note_on_c, 6, 62, 100
8, 89099, Note_on_c, 6, 62, 0
8, 89100, Note_on_c, 6, 59, 100
8, 89159, Note_on_c, 6, 59, 0
8, 89160, Note_on_c, 6, 55, 100
8, 89219, Note_on_c, 6, 55, 0
8, 89220, Note_on_c, 6, 60, 100
8, 89279, Note_on_c, 6, 60, 0
8, 89280, Note_on_c, 6, 48, 100
8, 89339, Note_on_c, 6, 48, 0
8, 89400, Note_on_c, 6, 43, 100
8, 89459, Note_on_c, 6, 43, 0
8, 89460, Note_on_c, 6, 48, 100
8, 89519, Note_on_c, 6, 48, 0
8, 89520, Note_on_c, 6, 55, 100
8, 89579, Note_on_c, 6, 55, 0
8, 89580, Note_on_c, 6, 60, 100
8, 89699, Note_on_c, 6, 60, 0
8, 89760, Note_on_c, 6, 60, 100
8, 89819, Note_on_c, 6, 60, 0
8, 89820, Note_on_c, 6, 55, 100
8, 89879, Note_on_c, 6, 55, 0
8, 89880, Note_on_c, 6, 60, 100
8, 89939, Note_on_c, 6, 60, 0
8, 89940, Note_on_c, 6, 56, 100
8, 89999, Note_on_c, 6, 56, 0
8, 90000, Note_on_c, 6, 60, 100
8, 90029, Note_on_c, 6, 60, 0
8, 90030, Note_on_c, 6, 58, 100
8, 90059, Note_on_c, 6, 58, 0
8, 90060, Note_on_c, 6, 60, 100
8, 90119, Note_on_c, 6, 60, 0
8, 90120, Note_on_c, 6, 57, 100
8, 90179, Note_on_c, 6, 57, 0
8, 90180, Note_on_c, 6, 53, 100
8, 90239, Note_on_c, 6, 53, 0
8, 90240, Note_on_c, 6, 41, 100
8, 90299, Note_on_c, 6, 41, 0
8, 90300, Note_on_c, 6, 46, 100
8, 90419, Note_on_c, 6, 46, 0
8, 90480, Note_on_c, 6, 58, 100
8, 90539, Note_on_c, 6, 58, 0
8, 90540, Note_on_c, 6, 53, 100
8, 90599, Note_on_c, 6, 53, 0
8, 90600, Note_on_c, 6, 58, 100
8, 90659, Note_on_c, 6, 58, 0
8, 90660, Note_on_c, 6, 55, 100
8, 90719, Note_on_c, 6, 55, 0
8, 90720, Note_on_c, 6, 58, 100
8, 90749, Note_on_c, 6, 58, 0
8, 90750, Note_on_c, 6, 56, 100
8, 90779, Note_on_c, 6, 56, 0
8, 90780, Note_on_c, 6, 58, 100
8, 90839, Note_on_c, 6, 58, 0
8, 90840, Note_on_c, 6, 55, 100
8, 90899, Note_on_c, 6, 55, 0
8, 90900, Note_on_c, 6, 51, 100
8, 90959, Note_on_c, 6, 51, 0
8, 90960, Note_on_c, 6, 39, 100
8, 91019, Note_on_c, 6, 39, 0
8, 91020, Note_on_c, 6, 44, 100
8, 91079, Note_on_c, 6, 44, 0
8, 91080, Note_on_c, 6, 56, 100
8, 91139, Note_on_c, 6, 56, 0
8, 91170, Note_on_c, 6, 48, 100
8, 91199, Note_on_c, 6, 48, 0
8, 91200, Note_on_c, 6, 50, 100
8, 91229, Note_on_c, 6, 50, 0
8, 91230, Note_on_c, 6, 51, 100
8, 91259, Note_on_c, 6, 51, 0
8, 91260, Note_on_c, 6, 53, 100
8, 91319, Note_on_c, 6, 53, 0
8, 91320, Note_on_c, 6, 41, 100
8, 91379, Note_on_c, 6, 41, 0
8, 91380, Note_on_c, 6, 46, 100
8, 91439, Note_on_c, 6, 46, 0
8, 91440, Note_on_c, 6, 58, 100
8, 91499, Note_on_c, 6, 58, 0
8, 91530, Note_on_c, 6, 50, 100
8, 91559, Note_on_c, 6, 50, 0
8, 91560, Note_on_c, 6, 51, 100
8, 91589, Note_on_c, 6, 51, 0
8, 91590, Note_on_c, 6, 53, 100
8, 91619, Note_on_c, 6, 53, 0
8, 91620, Note_on_c, 6, 55, 100
8, 91679, Note_on_c, 6, 55, 0
8, 91680, Note_on_c, 6, 43, 100
8, 91739, Note_on_c, 6, 43, 0
8, 91740, Note_on_c, 6, 48, 100
8, 91799, Note_on_c, 6, 48, 0
8, 91800, Note_on_c, 6, 60, 100
8, 91859, Note_on_c, 6, 60, 0
8, 91890, Note_on_c, 6, 51, 100
8, 91919, Note_on_c, 6, 51, 0
8, 91920, Note_on_c, 6, 53, 100
8, 91949, Note_on_c, 6, 53, 0
8, 91950, Note_on_c, 6, 55, 100
8, 91979, Note_on_c, 6, 55, 0
8, 91980, Note_on_c, 6, 56, 100
8, 92039, Note_on_c, 6, 56, 0
8, 92040, Note_on_c, 6, 44, 100
8, 92099, Note_on_c, 6, 44, 0
8, 92100, Note_on_c, 6, 50, 100
8, 92159, Note_on_c, 6, 50, 0
8, 92160, Note_on_c, 6, 62, 100
8, 92219, Note_on_c, 6, 62, 0
8, 92250, Note_on_c, 6, 53, 100
8, 92279, Note_on_c, 6, 53, 0
8, 92280, Note_on_c, 6, 55, 100
8, 92309, Note_on_c, 6, 55, 0
8, 92310, Note_on_c, 6, 56, 100
8, 92339, Note_on_c, 6, 56, 0
8, 92340, Note_on_c, 6, 58, 100
8, 92399, Note_on_c, 6, 58, 0
8, 92400, Note_on_c, 6, 46, 100
8, 92459, Note_on_c, 6, 46, 0
8, 92460, Note_on_c, 6, 51, 100
8, 92519, Note_on_c, 6, 51, 0
8, 92520, Note_on_c, 6, 39, 100
8, 92549, Note_on_c, 6, 39, 0
8, 92550, Note_on_c, 6, 41, 100
8, 92579, Note_on_c, 6, 41, 0
8, 92580, Note_on_c, 6, 43, 100
8, 92639, Note_on_c, 6, 43, 0
8, 92760, Note_on_c, 6, 46, 100
8, 92819, Note_on_c, 6, 46, 0
8, 92820, Note_on_c, 6, 39, 100
8, 92879, Note_on_c, 6, 39, 0
8, 93000, Note_on_c, 6, 50, 100
8, 93059, Note_on_c, 6, 50, 0
8, 93060, Note_on_c, 6, 51, 100
8, 93119, Note_on_c, 6, 51, 0
8, 93120, Note_on_c, 6, 53, 100
8, 93179, Note_on_c, 6, 53, 0
8, 93180, Note_on_c, 6, 55, 100
8, 93239, Note_on_c, 6, 55, 0
8, 93240, Note_on_c, 6, 55, 100
8, 93270, Note_on_c, 6, 55, 0
8, 93270, Note_on_c, 6, 53, 100
8, 93300, Note_on_c, 6, 53, 0
8, 93300, Note_on_c, 6, 55, 100
8, 93359, Note_on_c, 6, 55, 0
8, 93360, Note_on_c, 6, 51, 100
8, 93419, Note_on_c, 6, 51, 0
8, 93420, Note_on_c, 6, 60, 100
8, 93479, Note_on_c, 6, 60, 0
8, 93480, Note_on_c, 6, 48, 100
8, 93539, Note_on_c, 6, 48, 0
8, 93600, Note_on_c, 6, 46, 100
8, 93659, Note_on_c, 6, 46, 0
8, 93660, Note_on_c, 6, 50, 100
8, 93719, Note_on_c, 6, 50, 0
8, 93720, Note_on_c, 6, 53, 100
8, 93779, Note_on_c, 6, 53, 0
8, 93780, Note_on_c, 6, 58, 100
8, 93809, Note_on_c, 6, 58, 0
8, 93810, Note_on_c, 6, 46, 100
8, 93839, Note_on_c, 6, 46, 0
8, 93840, Note_on_c, 6, 44, 100
8, 93869, Note_on_c, 6, 44, 0
8, 93870, Note_on_c, 6, 46, 100
8, 93899, Note_on_c, 6, 46, 0
8, 93900, Note_on_c, 6, 43, 100
8, 93959, Note_on_c, 6, 43, 0
8, 93960, Note_on_c, 6, 55, 100
8, 94019, Note_on_c, 6, 55, 0
8, 94020, Note_on_c, 6, 59, 100
8, 94079, Note_on_c, 6, 59, 0
8, 94080, Note_on_c, 6, 62, 100
8, 94139, Note_on_c, 6, 62, 0
8, 94140, Note_on_c, 6, 59, 100
8, 94169, Note_on_c, 6, 59, 0
8, 94170, Note_on_c, 6, 55, 100
8, 94199, Note_on_c, 6, 55, 0
8, 94200, Note_on_c, 6, 53, 100
8, 94229, Note_on_c, 6, 53, 0
8, 94230, Note_on_c, 6, 55, 100
8, 94259, Note_on_c, 6, 55, 0
8, 94260, Note_on_c, 6, 48, 100
8, 94320, Note_on_c, 6, 48, 0
8, 94380, Note_on_c, 6, 60, 100
8, 94440, Note_on_c, 6, 60, 0
8, 94440, Note_on_c, 6, 63, 100
8, 94500, Note_on_c, 6, 63, 0
8, 94500, Note_on_c, 6, 67, 100
8, 94560, Note_on_c, 6, 67, 0
8, 94560, Note_on_c, 6, 63, 100
8, 94620, Note_on_c, 6, 63, 0
8, 94620, Note_on_c, 6, 62, 100
8, 94679, Note_on_c, 6, 62, 0
8, 94680, Note_on_c, 6, 50, 100
8, 94739, Note_on_c, 6, 50, 0
8, 94740, Note_on_c, 6, 54, 100
8, 94799, Note_on_c, 6, 54, 0
8, 94800, Note_on_c, 6, 57, 100
8, 94859, Note_on_c, 6, 57, 0
8, 94860, Note_on_c, 6, 54, 100
8, 94889, Note_on_c, 6, 54, 0
8, 94890, Note_on_c, 6, 50, 100
8, 94919, Note_on_c, 6, 50, 0
8, 94920, Note_on_c, 6, 48, 100
8, 94949, Note_on_c, 6, 48, 0
8, 94950, Note_on_c, 6, 50, 100
8, 94979, Note_on_c, 6, 50, 0
8, 94980, Note_on_c, 6, 43, 100
8, 95039, Note_on_c, 6, 43, 0
8, 95100, Note_on_c, 6, 55, 100
8, 95160, Note_on_c, 6, 55, 0
8, 95160, Note_on_c, 6, 58, 100
8, 95220, Note_on_c, 6, 58, 0
8, 95220, Note_on_c, 6, 62, 100
8, 95280, Note_on_c, 6, 62, 0
8, 95280, Note_on_c, 6, 58, 100
8, 95340, Note_on_c, 6, 58, 0
8, 95340, Note_on_c, 6, 60, 100
8, 95370, Note_on_c, 6, 60, 0
8, 95370, Note_on_c, 6, 63, 100
8, 95400, Note_on_c, 6, 63, 0
8, 95400, Note_on_c, 6, 62, 100
8, 95430, Note_on_c, 6, 62, 0
8, 95430, Note_on_c, 6, 63, 100
8, 95460, Note_on_c, 6, 63, 0
8, 95460, Note_on_c, 6, 53, 100
8, 95519, Note_on_c, 6, 53, 0
8, 95640, Note_on_c, 6, 65, 100
8, 95699, Note_on_c, 6, 65, 0
8, 95700, Note_on_c, 6, 58, 100
8, 95730, Note_on_c, 6, 58, 0
8, 95730, Note_on_c, 6, 62, 100
8, 95760, Note_on_c, 6, 62, 0
8, 95760, Note_on_c, 6, 60, 100
8, 95790, Note_on_c, 6, 60, 0
8, 95790, Note_on_c, 6, 62, 100
8, 95820, Note_on_c, 6, 62, 0
8, 95820, Note_on_c, 6, 51, 100
8, 95879, Note_on_c, 6, 51, 0
8, 96000, Note_on_c, 6, 63, 100
8, 96059, Note_on_c, 6, 63, 0
8, 96060, Note_on_c, 6, 57, 100
8, 96090, Note_on_c, 6, 57, 0
8, 96090, Note_on_c, 6, 60, 100
8, 96120, Note_on_c, 6, 60, 0
8, 96120, Note_on_c, 6, 58, 100
8, 96150, Note_on_c, 6, 58, 0
8, 96150, Note_on_c, 6, 60, 100
8, 96180, Note_on_c, 6, 60, 0
8, 96180, Note_on_c, 6, 50, 100
8, 96239, Note_on_c, 6, 50, 0
8, 96360, Note_on_c, 6, 62, 100
8, 96419, Note_on_c, 6, 62, 0
8, 96420, Note_on_c, 6, 55, 100
8, 96479, Note_on_c, 6, 55, 0
8, 96600, Note_on_c, 6, 55, 100
8, 96659, Note_on_c, 6, 55, 0
8, 96660, Note_on_c, 6, 57, 100
8, 96719, Note_on_c, 6, 57, 0
8, 96720, Note_on_c, 6, 58, 100
8, 96779, Note_on_c, 6, 58, 0
8, 96780, Note_on_c, 6, 60, 100
8, 96809, Note_on_c, 6, 60, 0
8, 96810, Note_on_c, 6, 62, 100
8, 96839, Note_on_c, 6, 62, 0
8, 96840, Note_on_c, 6, 63, 100
8, 96899, Note_on_c, 6, 63, 0
8, 96960, Note_on_c, 6, 60, 100
8, 97019, Note_on_c, 6, 60, 0
8, 97020, Note_on_c, 6, 62, 100
8, 97079, Note_on_c, 6, 62, 0
8, 97080, Note_on_c, 6, 63, 100
8, 97139, Note_on_c, 6, 63, 0
8, 97140, Note_on_c, 6, 54, 100
8, 97169, Note_on_c, 6, 54, 0
8, 97170, Note_on_c, 6, 55, 100
8, 97199, Note_on_c, 6, 55, 0
8, 97200, Note_on_c, 6, 57, 100
8, 97259, Note_on_c, 6, 57, 0
8, 97320, Note_on_c, 6, 54, 100
8, 97379, Note_on_c, 6, 54, 0
8, 97380, Note_on_c, 6, 55, 100
8, 97439, Note_on_c, 6, 55, 0
8, 97440, Note_on_c, 6, 57, 100
8, 97499, Note_on_c, 6, 57, 0
8, 97500, Note_on_c, 6, 58, 100
8, 97529, Note_on_c, 6, 58, 0
8, 97530, Note_on_c, 6, 60, 100
8, 97559, Note_on_c, 6, 60, 0
8, 97560, Note_on_c, 6, 62, 100
8, 97619, Note_on_c, 6, 62, 0
8, 97680, Note_on_c, 6, 50, 100
8, 97739, Note_on_c, 6, 50, 0
8, 97740, Note_on_c, 6, 46, 100
8, 97799, Note_on_c, 6, 46, 0
8, 97800, Note_on_c, 6, 50, 100
8, 97859, Note_on_c, 6, 50, 0
8, 97860, Note_on_c, 6, 43, 100
8, 97979, Note_on_c, 6, 43, 0
8, 98040, Note_on_c, 6, 58, 100
8, 98099, Note_on_c, 6, 58, 0
8, 98100, Note_on_c, 6, 57, 100
8, 98159, Note_on_c, 6, 57, 0
8, 98160, Note_on_c, 6, 55, 100
8, 98219, Note_on_c, 6, 55, 0
8, 98220, Note_on_c, 6, 62, 100
8, 98279, Note_on_c, 6, 62, 0
8, 98280, Note_on_c, 6, 50, 100
8, 98339, Note_on_c, 6, 50, 0
8, 98400, Note_on_c, 6, 69, 100
8, 98459, Note_on_c, 6, 69, 0
8, 98460, Note_on_c, 6, 66, 100
8, 98519, Note_on_c, 6, 66, 0
8, 98520, Note_on_c, 6, 62, 100
8, 98579, Note_on_c, 6, 62, 0
8, 98580, Note_on_c, 6, 57, 100
8, 98639, Note_on_c, 6, 57, 0
8, 98640, Note_on_c, 6, 62, 100
8, 98699, Note_on_c, 6, 62, 0
8, 98700, Note_on_c, 6, 66, 100
8, 98759, Note_on_c, 6, 66, 0
8, 98760, Note_on_c, 6, 71, 100
8, 98819, Note_on_c, 6, 71, 0
8, 98820, Note_on_c, 6, 66, 100
8, 98879, Note_on_c, 6, 66, 0
8, 98880, Note_on_c, 6, 62, 100
8, 98939, Note_on_c, 6, 62, 0
8, 98940, Note_on_c, 6, 67, 100
8, 98999, Note_on_c, 6, 67, 0
8, 99000, Note_on_c, 6, 55, 100
8, 99059, Note_on_c, 6, 55, 0
8, 99120, Note_on_c, 6, 38, 100
8, 99179, Note_on_c, 6, 38, 0
8, 99180, Note_on_c, 6, 46, 100
8, 99239, Note_on_c, 6, 46, 0
8, 99240, Note_on_c, 6, 50, 100
8, 99299, Note_on_c, 6, 50, 0
8, 99300, Note_on_c, 6, 55, 100
8, 99419, Note_on_c, 6, 55, 0
8, 99480, Note_on_c, 6, 55, 100
8, 99539, Note_on_c, 6, 55, 0
8, 99540, Note_on_c, 6, 50, 100
8, 99599, Note_on_c, 6, 50, 0
8, 99600, Note_on_c, 6, 55, 100
8, 99659, Note_on_c, 6, 55, 0
8, 99660, Note_on_c, 6, 51, 100
8, 99719, Note_on_c, 6, 51, 0
8, 99720, Note_on_c, 6, 55, 100
8, 99749, Note_on_c, 6, 55, 0
8, 99750, Note_on_c, 6, 53, 100
8, 99779, Note_on_c, 6, 53, 0
8, 99780, Note_on_c, 6, 55, 100
8, 99839, Note_on_c, 6, 55, 0
8, 99840, Note_on_c, 6, 52, 100
8, 99899, Note_on_c, 6, 52, 0
8, 99900, Note_on_c, 6, 48, 100
8, 99959, Note_on_c, 6, 48, 0
8, 99960, Note_on_c, 6, 36, 100
8, 100019, Note_on_c, 6, 36, 0
8, 100020, Note_on_c, 6, 41, 100
8, 100139, Note_on_c, 6, 41, 0
8, 100200, Note_on_c, 6, 53, 100
8, 100259, Note_on_c, 6, 53, 0
8, 100260, Note_on_c, 6, 48, 100
8, 100319, Note_on_c, 6, 48, 0
8, 100320, Note_on_c, 6, 53, 100
8, 100379, Note_on_c, 6, 53, 0
8, 100380, Note_on_c, 6, 50, 100
8, 100439, Note_on_c, 6, 50, 0
8, 100440, Note_on_c, 6, 53, 100
8, 100469, Note_on_c, 6, 53, 0
8, 100470, Note_on_c, 6, 51, 100
8, 100499, Note_on_c, 6, 51, 0
8, 100500, Note_on_c, 6, 53, 100
8, 100559, Note_on_c, 6, 53, 0
8, 100560, Note_on_c, 6, 50, 100
8, 100619, Note_on_c, 6, 50, 0
8, 100620, Note_on_c, 6, 46, 100
8, 100679, Note_on_c, 6, 46, 0
8, 100680, Note_on_c, 6, 46, 100
8, 100739, Note_on_c, 6, 46, 0
8, 100740, Note_on_c, 6, 39, 100
8, 100799, Note_on_c, 6, 39, 0
8, 100800, Note_on_c, 6, 51, 100
8, 100859, Note_on_c, 6, 51, 0
8, 100920, Note_on_c, 6, 51, 100
8, 100979, Note_on_c, 6, 51, 0
8, 100980, Note_on_c, 6, 50, 100
8, 101039, Note_on_c, 6, 50, 0
8, 101040, Note_on_c, 6, 48, 100
8, 101099, Note_on_c, 6, 48, 0
8, 101100, Note_on_c, 6, 47, 100
8, 101159, Note_on_c, 6, 47, 0
8, 101160, Note_on_c, 6, 47, 100
8, 101219, Note_on_c, 6, 47, 0
8, 101220, Note_on_c, 6, 47, 100
8, 101279, Note_on_c, 6, 47, 0
8, 101280, Note_on_c, 6, 48, 100
8, 101339, Note_on_c, 6, 48, 0
8, 101340, Note_on_c, 6, 53, 100
8, 101399, Note_on_c, 6, 53, 0
8, 101400, Note_on_c, 6, 51, 100
8, 101459, Note_on_c, 6, 51, 0
8, 101460, Note_on_c, 6, 50, 100
8, 101519, Note_on_c, 6, 50, 0
8, 101520, Note_on_c, 6, 48, 100
8, 101579, Note_on_c, 6, 48, 0
8, 101580, Note_on_c, 6, 47, 100
8, 101639, Note_on_c, 6, 47, 0
8, 101640, Note_on_c, 6, 48, 100
8, 101699, Note_on_c, 6, 48, 0
8, 101700, Note_on_c, 6, 36, 100
8, 101759, Note_on_c, 6, 36, 0
8, 101760, Note_on_c, 6, 48, 100
8, 101819, Note_on_c, 6, 48, 0
8, 101820, Note_on_c, 6, 49, 100
8, 101879, Note_on_c, 6, 49, 0
8, 101880, Note_on_c, 6, 49, 100
8, 101939, Note_on_c, 6, 49, 0
8, 101940, Note_on_c, 6, 49, 100
8, 101999, Note_on_c, 6, 49, 0
8, 102000, Note_on_c, 6, 50, 100
8, 102059, Note_on_c, 6, 50, 0
8, 102060, Note_on_c, 6, 55, 100
8, 102119, Note_on_c, 6, 55, 0
8, 102120, Note_on_c, 6, 53, 100
8, 102179, Note_on_c, 6, 53, 0
8, 102180, Note_on_c, 6, 52, 100
8, 102239, Note_on_c, 6, 52, 0
8, 102240, Note_on_c, 6, 50, 100
8, 102299, Note_on_c, 6, 50, 0
8, 102300, Note_on_c, 6, 49, 100
8, 102359, Note_on_c, 6, 49, 0
8, 102360, Note_on_c, 6, 50, 100
8, 102419, Note_on_c, 6, 50, 0
8, 102420, Note_on_c, 6, 38, 100
8, 102479, Note_on_c, 6, 38, 0
8, 102570, Note_on_c, 6, 50, 100
8, 102599, Note_on_c, 6, 50, 0
8, 102600, Note_on_c, 6, 55, 100
8, 102629, Note_on_c, 6, 55, 0
8, 102630, Note_on_c, 6, 58, 100
8, 102659, Note_on_c, 6, 58, 0
8, 102930, Note_on_c, 6, 50, 100
8, 102959, Note_on_c, 6, 50, 0
8, 102960, Note_on_c, 6, 54, 100
8, 102989, Note_on_c, 6, 54, 0
8, 102990, Note_on_c, 6, 57, 100
8, 103019, Note_on_c, 6, 57, 0
8, 103260, Note_on_c, 6, 43, 100
8, 103379, Note_on_c, 6, 43, 0
8, 103440, Note_on_c, 6, 43, 100
8, 103499, Note_on_c, 6, 43, 0
8, 103500, Note_on_c, 6, 48, 100
8, 103559, Note_on_c, 6, 48, 0
8, 103560, Note_on_c, 6, 45, 100
8, 103619, Note_on_c, 6, 45, 0
8, 103620, Note_on_c, 6, 46, 100
8, 103739, Note_on_c, 6, 46, 0
8, 103800, Note_on_c, 6, 43, 100
8, 103859, Note_on_c, 6, 43, 0
8, 103860, Note_on_c, 6, 46, 100
8, 103919, Note_on_c, 6, 46, 0
8, 103920, Note_on_c, 6, 43, 100
8, 103979, Note_on_c, 6, 43, 0
8, 103980, Note_on_c, 6, 45, 100
8, 104099, Note_on_c, 6, 45, 0
8, 104160, Note_on_c, 6, 48, 100
8, 104219, Note_on_c, 6, 48, 0
8, 104220, Note_on_c, 6, 38, 100
8, 104279, Note_on_c, 6, 38, 0
8, 104280, Note_on_c, 6, 42, 100
8, 104339, Note_on_c, 6, 42, 0
8, 104340, Note_on_c, 6, 43, 100
8, 104369, Note_on_c, 6, 43, 0
8, 104370, Note_on_c, 6, 55, 100
8, 104399, Note_on_c, 6, 55, 0
8, 104400, Note_on_c, 6, 53, 100
8, 104429, Note_on_c, 6, 53, 0
8, 104430, Note_on_c, 6, 51, 100
8, 104459, Note_on_c, 6, 51, 0
8, 104460, Note_on_c, 6, 50, 100
8, 104489, Note_on_c, 6, 50, 0
8, 104490, Note_on_c, 6, 48, 100
8, 104519, Note_on_c, 6, 48, 0
8, 104520, Note_on_c, 6, 46, 100
8, 104549, Note_on_c, 6, 46, 0
8, 104550, Note_on_c, 6, 45, 100
8, 104579, Note_on_c, 6, 45, 0
8, 104580, Note_on_c, 6, 43, 100
8, 104609, Note_on_c, 6, 43, 0
8, 104610, Note_on_c, 6, 46, 100
8, 104639, Note_on_c, 6, 46, 0
8, 104640, Note_on_c, 6, 45, 100
8, 104669, Note_on_c, 6, 45, 0
8, 104670, Note_on_c, 6, 43, 100
8, 104699, Note_on_c, 6, 43, 0
8, 104700, Note_on_c, 6, 42, 100
8, 104729, Note_on_c, 6, 42, 0
8, 104730, Note_on_c, 6, 38, 100
8, 104759, Note_on_c, 6, 38, 0
8, 104760, Note_on_c, 6, 40, 100
8, 104789, Note_on_c, 6, 40, 0
8, 104790, Note_on_c, 6, 42, 100
8, 104819, Note_on_c, 6, 42, 0
8, 104820, Note_on_c, 6, 43, 100
8, 104849, Note_on_c, 6, 43, 0
8, 104850, Note_on_c, 6, 45, 100
8, 104879, Note_on_c, 6, 45, 0
8, 104880, Note_on_c, 6, 46, 100
8, 104909, Note_on_c, 6, 46, 0
8, 104910, Note_on_c, 6, 48, 100
8, 104939, Note_on_c, 6, 48, 0
8, 104940, Note_on_c, 6, 50, 100
8, 104999, Note_on_c, 6, 50, 0
8, 105000, Note_on_c, 6, 38, 100
8, 105059, Note_on_c, 6, 38, 0
8, 105060, Note_on_c, 6, 43, 100
8, 105119, Note_on_c, 6, 43, 0
8, 105120, Note_on_c, 6, 46, 100
8, 105149, Note_on_c, 6, 46, 0
8, 105150, Note_on_c, 6, 50, 100
8, 105179, Note_on_c, 6, 50, 0
8, 105180, Note_on_c, 6, 55, 100
8, 105239, Note_on_c, 6, 55, 0
8, 105330, Note_on_c, 6, 55, 100
8, 105359, Note_on_c, 6, 55, 0
8, 105360, Note_on_c, 6, 58, 100
8, 105389, Note_on_c, 6, 58, 0
8, 105390, Note_on_c, 6, 62, 100
8, 105419, Note_on_c, 6, 62, 0
8, 105420, Note_on_c, 6, 65, 100
8, 105480, Note_on_c, 6, 65, 0
8, 105480, Note_on_c, 6, 65, 100
8, 105540, Note_on_c, 6, 65, 0
8, 105540, Note_on_c, 6, 65, 100
8, 105600, Note_on_c, 6, 65, 0
8, 105600, Note_on_c, 6, 65, 100
8, 105660, Note_on_c, 6, 65, 0
8, 105660, Note_on_c, 6, 65, 100
8, 105720, Note_on_c, 6, 65, 0
8, 105720, Note_on_c, 6, 65, 100
8, 105780, Note_on_c, 6, 65, 0
8, 105780, Note_on_c, 6, 63, 100
8, 105840, Note_on_c, 6, 63, 0
8, 105840, Note_on_c, 6, 60, 100
8, 105900, Note_on_c, 6, 60, 0
8, 105900, Note_on_c, 6, 68, 100
8, 105960, Note_on_c, 6, 68, 0
8, 106020, Note_on_c, 6, 60, 100
8, 106049, Note_on_c, 6, 60, 0
8, 106050, Note_on_c, 6, 65, 100
8, 106079, Note_on_c, 6, 65, 0
8, 106080, Note_on_c, 6, 68, 100
8, 106109, Note_on_c, 6, 68, 0
8, 106140, Note_on_c, 6, 64, 100
8, 106200, Note_on_c, 6, 64, 0
8, 106200, Note_on_c, 6, 64, 100
8, 106260, Note_on_c, 6, 64, 0
8, 106260, Note_on_c, 6, 64, 100
8, 106320, Note_on_c, 6, 64, 0
8, 106320, Note_on_c, 6, 64, 100
8, 106380, Note_on_c, 6, 64, 0
8, 106380, Note_on_c, 6, 64, 100
8, 106440, Note_on_c, 6, 64, 0
8, 106440, Note_on_c, 6, 64, 100
8, 106500, Note_on_c, 6, 64, 0
8, 106500, Note_on_c, 6, 65, 100
8, 106560, Note_on_c, 6, 65, 0
8, 106560, Note_on_c, 6, 60, 100
8, 106620, Note_on_c, 6, 60, 0
8, 106620, Note_on_c, 6, 56, 100
8, 106680, Note_on_c, 6, 56, 0
8, 106680, Note_on_c, 6, 53, 100
8, 106740, Note_on_c, 6, 53, 0
8, 106740, Note_on_c, 6, 48, 100
8, 106800, Note_on_c, 6, 48, 0
8, 106800, Note_on_c, 6, 53, 100
8, 106860, Note_on_c, 6, 53, 0
8, 106860, Note_on_c, 6, 41, 100
8, 106979, Note_on_c, 6, 41, 0
8, 107220, Note_on_c, 6, 43, 100
8, 107279, Note_on_c, 6, 43, 0
8, 107280, Note_on_c, 6, 46, 100
8, 107339, Note_on_c, 6, 46, 0
8, 107340, Note_on_c, 6, 50, 100
8, 107399, Note_on_c, 6, 50, 0
8, 107400, Note_on_c, 6, 55, 100
8, 107459, Note_on_c, 6, 55, 0
8, 107460, Note_on_c, 6, 58, 100
8, 107519, Note_on_c, 6, 58, 0
8, 107520, Note_on_c, 6, 51, 100
8, 107579, Note_on_c, 6, 51, 0
8, 107580, Note_on_c, 6, 53, 100
8, 107699, Note_on_c, 6, 53, 0
8, 107940, Note_on_c, 6, 39, 100
8, 108059, Note_on_c, 6, 39, 0
8, 108210, Note_on_c, 6, 51, 100
8, 108240, Note_on_c, 6, 51, 0
8, 108240, Note_on_c, 6, 50, 100
8, 108270, Note_on_c, 6, 50, 0
8, 108270, Note_on_c, 6, 48, 100
8, 108300, Note_on_c, 6, 48, 0
8, 108300, Note_on_c, 6, 50, 100
8, 108419, Note_on_c, 6, 50, 0
8, 108480, Note_on_c, 6, 53, 100
8, 108539, Note_on_c, 6, 53, 0
8, 108540, Note_on_c, 6, 55, 100
8, 108599, Note_on_c, 6, 55, 0
8, 108600, Note_on_c, 6, 43, 100
8, 108659, Note_on_c, 6, 43, 0
8, 108660, Note_on_c, 6, 48, 100
8, 108779, Note_on_c, 6, 48, 0
8, 108930, Note_on_c, 6, 51, 100
8, 108960, Note_on_c, 6, 51, 0
8, 108960, Note_on_c, 6, 49, 100
8, 108990, Note_on_c, 6, 49, 0
8, 108990, Note_on_c, 6, 48, 100
8, 109020, Note_on_c, 6, 48, 0
8, 109020, Note_on_c, 6, 46, 100
8, 109139, Note_on_c, 6, 46, 0
8, 109200, Note_on_c, 6, 46, 100
8, 109259, Note_on_c, 6, 46, 0
8, 109260, Note_on_c, 6, 51, 100
8, 109319, Note_on_c, 6, 51, 0
8, 109320, Note_on_c, 6, 39, 100
8, 109379, Note_on_c, 6, 39, 0
8, 109380, Note_on_c, 6, 44, 100
8, 109499, Note_on_c, 6, 44, 0
8, 109650, Note_on_c, 6, 56, 100
8, 109680, Note_on_c, 6, 56, 0
8, 109680, Note_on_c, 6, 55, 100
8, 109710, Note_on_c, 6, 55, 0
8, 109710, Note_on_c, 6, 53, 100
8, 109740, Note_on_c, 6, 53, 0
8, 109740, Note_on_c, 6, 55, 100
8, 109859, Note_on_c, 6, 55, 0
8, 109920, Note_on_c, 6, 58, 100
8, 109979, Note_on_c, 6, 58, 0
8, 109980, Note_on_c, 6, 60, 100
8, 110039, Note_on_c, 6, 60, 0
8, 110040, Note_on_c, 6, 48, 100
8, 110099, Note_on_c, 6, 48, 0
8, 110100, Note_on_c, 6, 53, 100
8, 110129, Note_on_c, 6, 53, 0
8, 110130, Note_on_c, 6, 52, 100
8, 110159, Note_on_c, 6, 52, 0
8, 110160, Note_on_c, 6, 53, 100
8, 110189, Note_on_c, 6, 53, 0
8, 110190, Note_on_c, 6, 55, 100
8, 110219, Note_on_c, 6, 55, 0
8, 110220, Note_on_c, 6, 56, 100
8, 110279, Note_on_c, 6, 56, 0
8, 110400, Note_on_c, 6, 60, 100
8, 110459, Note_on_c, 6, 60, 0
8, 110460, Note_on_c, 6, 53, 100
8, 110519, Note_on_c, 6, 53, 0
8, 110640, Note_on_c, 6, 52, 100
8, 110699, Note_on_c, 6, 52, 0
8, 110700, Note_on_c, 6, 53, 100
8, 110759, Note_on_c, 6, 53, 0
8, 110760, Note_on_c, 6, 55, 100
8, 110819, Note_on_c, 6, 55, 0
8, 110820, Note_on_c, 6, 56, 100
8, 110879, Note_on_c, 6, 56, 0
8, 110880, Note_on_c, 6, 56, 100
8, 110909, Note_on_c, 6, 56, 0
8, 110910, Note_on_c, 6, 55, 100
8, 110939, Note_on_c, 6, 55, 0
8, 110940, Note_on_c, 6, 56, 100
8, 110999, Note_on_c, 6, 56, 0
8, 111000, Note_on_c, 6, 53, 100
8, 111059, Note_on_c, 6, 53, 0
8, 111060, Note_on_c, 6, 61, 100
8, 111119, Note_on_c, 6, 61, 0
8, 111120, Note_on_c, 6, 49, 100
8, 111179, Note_on_c, 6, 49, 0
8, 111240, Note_on_c, 6, 48, 100
8, 111299, Note_on_c, 6, 48, 0
8, 111300, Note_on_c, 6, 52, 100
8, 111359, Note_on_c, 6, 52, 0
8, 111360, Note_on_c, 6, 55, 100
8, 111419, Note_on_c, 6, 55, 0
8, 111420, Note_on_c, 6, 60, 100
8, 111479, Note_on_c, 6, 60, 0
8, 111480, Note_on_c, 6, 46, 100
8, 111539, Note_on_c, 6, 46, 0
8, 111540, Note_on_c, 6, 45, 100
8, 111599, Note_on_c, 6, 45, 0
8, 111600, Note_on_c, 6, 45, 100
8, 111659, Note_on_c, 6, 45, 0
8, 111660, Note_on_c, 6, 45, 100
8, 111719, Note_on_c, 6, 45, 0
8, 111720, Note_on_c, 6, 46, 100
8, 111779, Note_on_c, 6, 46, 0
8, 111780, Note_on_c, 6, 51, 100
8, 111839, Note_on_c, 6, 51, 0
8, 111840, Note_on_c, 6, 49, 100
8, 111899, Note_on_c, 6, 49, 0
8, 111900, Note_on_c, 6, 48, 100
8, 111959, Note_on_c, 6, 48, 0
8, 111960, Note_on_c, 6, 46, 100
8, 112019, Note_on_c, 6, 46, 0
8, 112020, Note_on_c, 6, 45, 100
8, 112079, Note_on_c, 6, 45, 0
8, 112080, Note_on_c, 6, 46, 100
8, 112139, Note_on_c, 6, 46, 0
8, 112140, Note_on_c, 6, 58, 100
8, 112199, Note_on_c, 6, 58, 0
8, 112200, Note_on_c, 6, 46, 100
8, 112259, Note_on_c, 6, 46, 0
8, 112260, Note_on_c, 6, 47, 100
8, 112319, Note_on_c, 6, 47, 0
8, 112320, Note_on_c, 6, 47, 100
8, 112379, Note_on_c, 6, 47, 0
8, 112380, Note_on_c, 6, 47, 100
8, 112439, Note_on_c, 6, 47, 0
8, 112440, Note_on_c, 6, 48, 100
8, 112499, Note_on_c, 6, 48, 0
8, 112500, Note_on_c, 6, 53, 100
8, 112559, Note_on_c, 6, 53, 0
8, 112560, Note_on_c, 6, 51, 100
8, 112619, Note_on_c, 6, 51, 0
8, 112620, Note_on_c, 6, 50, 100
8, 112679, Note_on_c, 6, 50, 0
8, 112680, Note_on_c, 6, 48, 100
8, 112739, Note_on_c, 6, 48, 0
8, 112740, Note_on_c, 6, 47, 100
8, 112799, Note_on_c, 6, 47, 0
8, 112800, Note_on_c, 6, 48, 100
8, 112859, Note_on_c, 6, 48, 0
8, 112860, Note_on_c, 6, 60, 100
8, 112919, Note_on_c, 6, 60, 0
8, 112920, Note_on_c, 6, 58, 100
8, 112979, Note_on_c, 6, 58, 0
8, 112980, Note_on_c, 6, 56, 100
8, 113039, Note_on_c, 6, 56, 0
8, 113040, Note_on_c, 6, 53, 100
8, 113099, Note_on_c, 6, 53, 0
8, 113160, Note_on_c, 6, 53, 100
8, 113219, Note_on_c, 6, 53, 0
8, 113220, Note_on_c, 6, 58, 100
8, 113279, Note_on_c, 6, 58, 0
8, 113280, Note_on_c, 6, 56, 100
8, 113339, Note_on_c, 6, 56, 0
8, 113340, Note_on_c, 6, 55, 100
8, 113399, Note_on_c, 6, 55, 0
8, 113400, Note_on_c, 6, 53, 100
8, 113459, Note_on_c, 6, 53, 0
8, 113520, Note_on_c, 6, 48, 100
8, 113579, Note_on_c, 6, 48, 0
8, 113580, Note_on_c, 6, 60, 100
8, 113609, Note_on_c, 6, 60, 0
8, 113610, Note_on_c, 6, 58, 100
8, 113639, Note_on_c, 6, 58, 0
8, 113640, Note_on_c, 6, 56, 100
8, 113669, Note_on_c, 6, 56, 0
8, 113670, Note_on_c, 6, 55, 100
8, 113699, Note_on_c, 6, 55, 0
8, 113700, Note_on_c, 6, 53, 100
8, 113819, Note_on_c, 6, 53, 0
8, 115140, Note_on_c, 6, 41, 100
8, 115200, Note_on_c, 6, 41, 0
8, 115200, Note_on_c, 6, 53, 100
8, 115260, Note_on_c, 6, 53, 0
8, 115320, Note_on_c, 6, 53, 100
8, 115379, Note_on_c, 6, 53, 0
8, 115380, Note_on_c, 6, 55, 100
8, 115439, Note_on_c, 6, 55, 0
8, 115440, Note_on_c, 6, 56, 100
8, 115499, Note_on_c, 6, 56, 0
8, 115500, Note_on_c, 6, 55, 100
8, 115529, Note_on_c, 6, 55, 0
8, 115530, Note_on_c, 6, 53, 100
8, 115559, Note_on_c, 6, 53, 0
8, 115560, Note_on_c, 6, 52, 100
8, 115619, Note_on_c, 6, 52, 0
8, 115680, Note_on_c, 6, 64, 100
8, 115739, Note_on_c, 6, 64, 0
8, 115740, Note_on_c, 6, 60, 100
8, 115799, Note_on_c, 6, 60, 0
8, 115800, Note_on_c, 6, 55, 100
8, 115859, Note_on_c, 6, 55, 0
8, 115860, Note_on_c, 6, 52, 100
8, 115919, Note_on_c, 6, 52, 0
8, 115920, Note_on_c, 6, 55, 100
8, 115979, Note_on_c, 6, 55, 0
8, 115980, Note_on_c, 6, 60, 100
8, 116039, Note_on_c, 6, 60, 0
8, 116040, Note_on_c, 6, 55, 100
8, 116099, Note_on_c, 6, 55, 0
8, 116100, Note_on_c, 6, 52, 100
8, 116159, Note_on_c, 6, 52, 0
8, 116160, Note_on_c, 6, 48, 100
8, 116219, Note_on_c, 6, 48, 0
8, 116220, Note_on_c, 6, 53, 100
8, 116279, Note_on_c, 6, 53, 0
8, 116280, Note_on_c, 6, 41, 100
8, 116339, Note_on_c, 6, 41, 0
8, 116400, Note_on_c, 6, 36, 100
8, 116459, Note_on_c, 6, 36, 0
8, 116460, Note_on_c, 6, 44, 100
8, 116519, Note_on_c, 6, 44, 0
8, 116520, Note_on_c, 6, 48, 100
8, 116579, Note_on_c, 6, 48, 0
8, 116580, Note_on_c, 6, 53, 100
8, 116639, Note_on_c, 6, 53, 0
8, 116640, Note_on_c, 6, 60, 100
8, 116669, Note_on_c, 6, 60, 0
8, 116670, Note_on_c, 6, 58, 100
8, 116699, Note_on_c, 6, 58, 0
8, 116700, Note_on_c, 6, 60, 100
8, 116759, Note_on_c, 6, 60, 0
8, 116760, Note_on_c, 6, 57, 100
8, 116819, Note_on_c, 6, 57, 0
8, 116820, Note_on_c, 6, 53, 100
8, 116879, Note_on_c, 6, 53, 0
8, 116880, Note_on_c, 6, 41, 100
8, 116939, Note_on_c, 6, 41, 0
8, 116940, Note_on_c, 6, 58, 100
8, 117059, Note_on_c, 6, 58, 0
8, 117120, Note_on_c, 6, 58, 100
8, 117179, Note_on_c, 6, 58, 0
8, 117180, Note_on_c, 6, 53, 100
8, 117239, Note_on_c, 6, 53, 0
8, 117240, Note_on_c, 6, 58, 100
8, 117299, Note_on_c, 6, 58, 0
8, 117300, Note_on_c, 6, 59, 100
8, 117359, Note_on_c, 6, 59, 0
8, 117360, Note_on_c, 6, 62, 100
8, 117389, Note_on_c, 6, 62, 0
8, 117390, Note_on_c, 6, 60, 100
8, 117419, Note_on_c, 6, 60, 0
8, 117420, Note_on_c, 6, 62, 100
8, 117479, Note_on_c, 6, 62, 0
8, 117480, Note_on_c, 6, 59, 100
8, 117539, Note_on_c, 6, 59, 0
8, 117540, Note_on_c, 6, 55, 100
8, 117599, Note_on_c, 6, 55, 0
8, 117600, Note_on_c, 6, 43, 100
8, 117659, Note_on_c, 6, 43, 0
8, 117660, Note_on_c, 6, 48, 100
8, 117719, Note_on_c, 6, 48, 0
8, 117720, Note_on_c, 6, 55, 100
8, 117779, Note_on_c, 6, 55, 0
8, 117780, Note_on_c, 6, 60, 100
8, 117839, Note_on_c, 6, 60, 0
8, 117840, Note_on_c, 6, 63, 100
8, 117899, Note_on_c, 6, 63, 0
8, 117900, Note_on_c, 6, 57, 100
8, 117959, Note_on_c, 6, 57, 0
8, 117960, Note_on_c, 6, 54, 100
8, 118019, Note_on_c, 6, 54, 0
8, 118020, Note_on_c, 6, 55, 100
8, 118050, Note_on_c, 6, 55, 0
8, 118050, Note_on_c, 6, 43, 100
8, 118080, Note_on_c, 6, 43, 0
8, 118080, Note_on_c, 6, 46, 100
8, 118110, Note_on_c, 6, 46, 0
8, 118110, Note_on_c, 6, 50, 100
8, 118140, Note_on_c, 6, 50, 0
8, 118140, Note_on_c, 6, 55, 100
8, 118199, Note_on_c, 6, 55, 0
8, 118290, Note_on_c, 6, 51, 100
8, 118320, Note_on_c, 6, 51, 0
8, 118320, Note_on_c, 6, 53, 100
8, 118350, Note_on_c, 6, 53, 0
8, 118350, Note_on_c, 6, 55, 100
8, 118380, Note_on_c, 6, 55, 0
8, 118380, Note_on_c, 6, 56, 100
8, 118410, Note_on_c, 6, 56, 0
8, 118410, Note_on_c, 6, 44, 100
8, 118440, Note_on_c, 6, 44, 0
8, 118440, Note_on_c, 6, 48, 100
8, 118470, Note_on_c, 6, 48, 0
8, 118470, Note_on_c, 6, 51, 100
8, 118500, Note_on_c, 6, 51, 0
8, 118500, Note_on_c, 6, 56, 100
8, 118559, Note_on_c, 6, 56, 0
8, 118650, Note_on_c, 6, 53, 100
8, 118680, Note_on_c, 6, 53, 0
8, 118680, Note_on_c, 6, 55, 100
8, 118710, Note_on_c, 6, 55, 0
8, 118710, Note_on_c, 6, 57, 100
8, 118740, Note_on_c, 6, 57, 0
8, 118740, Note_on_c, 6, 58, 100
8, 118770, Note_on_c, 6, 58, 0
8, 118770, Note_on_c, 6, 46, 100
8, 118800, Note_on_c, 6, 46, 0
8, 118800, Note_on_c, 6, 50, 100
8, 118830, Note_on_c, 6, 50, 0
8, 118830, Note_on_c, 6, 53, 100
8, 118860, Note_on_c, 6, 53, 0
8, 118860, Note_on_c, 6, 59, 100
8, 118919, Note_on_c, 6, 59, 0
8, 119010, Note_on_c, 6, 55, 100
8, 119039, Note_on_c, 6, 55, 0
8, 119040, Note_on_c, 6, 57, 100
8, 119069, Note_on_c, 6, 57, 0
8, 119070, Note_on_c, 6, 59, 100
8, 119099, Note_on_c, 6, 59, 0
8, 119100, Note_on_c, 6, 60, 100
8, 119159, Note_on_c, 6, 60, 0
8, 119160, Note_on_c, 6, 51, 100
8, 119189, Note_on_c, 6, 51, 0
8, 119190, Note_on_c, 6, 55, 100
8, 119219, Note_on_c, 6, 55, 0
8, 119220, Note_on_c, 6, 48, 100
8, 119279, Note_on_c, 6, 48, 0
8, 119370, Note_on_c, 6, 48, 100
8, 119399, Note_on_c, 6, 48, 0
8, 119400, Note_on_c, 6, 51, 100
8, 119429, Note_on_c, 6, 51, 0
8, 119430, Note_on_c, 6, 55, 100
8, 119459, Note_on_c, 6, 55, 0
8, 119460, Note_on_c, 6, 58, 100
8, 119520, Note_on_c, 6, 58, 0
8, 119520, Note_on_c, 6, 58, 100
8, 119580, Note_on_c, 6, 58, 0
8, 119580, Note_on_c, 6, 58, 100
8, 119640, Note_on_c, 6, 58, 0
8, 119640, Note_on_c, 6, 58, 100
8, 119700, Note_on_c, 6, 58, 0
8, 119700, Note_on_c, 6, 58, 100
8, 119760, Note_on_c, 6, 58, 0
8, 119760, Note_on_c, 6, 58, 100
8, 119820, Note_on_c, 6, 58, 0
8, 119820, Note_on_c, 6, 56, 100
8, 119880, Note_on_c, 6, 56, 0
8, 119880, Note_on_c, 6, 53, 100
8, 119940, Note_on_c, 6, 53, 0
8, 119940, Note_on_c, 6, 61, 100
8, 120000, Note_on_c, 6, 61, 0
8, 120090, Note_on_c, 6, 53, 100
8, 120119, Note_on_c, 6, 53, 0
8, 120120, Note_on_c, 6, 58, 100
8, 120149, Note_on_c, 6, 58, 0
8, 120150, Note_on_c, 6, 61, 100
8, 120179, Note_on_c, 6, 61, 0
8, 120180, Note_on_c, 6, 57, 100
8, 120240, Note_on_c, 6, 57, 0
8, 120240, Note_on_c, 6, 57, 100
8, 120300, Note_on_c, 6, 57, 0
8, 120300, Note_on_c, 6, 57, 100
8, 120360, Note_on_c, 6, 57, 0
8, 120360, Note_on_c, 6, 57, 100
8, 120420, Note_on_c, 6, 57, 0
8, 120420, Note_on_c, 6, 57, 100
8, 120480, Note_on_c, 6, 57, 0
8, 120480, Note_on_c, 6, 57, 100
8, 120540, Note_on_c, 6, 57, 0
8, 120540, Note_on_c, 6, 58, 100
8, 120600, Note_on_c, 6, 58, 0
8, 120600, Note_on_c, 6, 53, 100
8, 120660, Note_on_c, 6, 53, 0
8, 120660, Note_on_c, 6, 49, 100
8, 120720, Note_on_c, 6, 49, 0
8, 120720, Note_on_c, 6, 46, 100
8, 120780, Note_on_c, 6, 46, 0
8, 120780, Note_on_c, 6, 53, 100
8, 120840, Note_on_c, 6, 53, 0
8, 120840, Note_on_c, 6, 58, 100
8, 120900, Note_on_c, 6, 58, 0
8, 120900, Note_on_c, 6, 46, 100
8, 121019, Note_on_c, 6, 46, 0
8, 121260, Note_on_c, 6, 48, 100
8, 121319, Note_on_c, 6, 48, 0
8, 121320, Note_on_c, 6, 51, 100
8, 121379, Note_on_c, 6, 51, 0
8, 121380, Note_on_c, 6, 55, 100
8, 121439, Note_on_c, 6, 55, 0
8, 121440, Note_on_c, 6, 60, 100
8, 121499, Note_on_c, 6, 60, 0
8, 121500, Note_on_c, 6, 63, 100
8, 121559, Note_on_c, 6, 63, 0
8, 121560, Note_on_c, 6, 56, 100
8, 121619, Note_on_c, 6, 56, 0
8, 121620, Note_on_c, 6, 58, 100
8, 121739, Note_on_c, 6, 58, 0
8, 121980, Note_on_c, 6, 44, 100
8, 122099, Note_on_c, 6, 44, 0
8, 122250, Note_on_c, 6, 56, 100
8, 122280, Note_on_c, 6, 56, 0
8, 122280, Note_on_c, 6, 55, 100
8, 122310, Note_on_c, 6, 55, 0
8, 122310, Note_on_c, 6, 53, 100
8, 122340, Note_on_c, 6, 53, 0
8, 122340, Note_on_c, 6, 55, 100
8, 122459, Note_on_c, 6, 55, 0
8, 122520, Note_on_c, 6, 58, 100
8, 122580, Note_on_c, 6, 58, 0
8, 122580, Note_on_c, 6, 60, 100
8, 122640, Note_on_c, 6, 60, 0
8, 122640, Note_on_c, 6, 48, 100
8, 122700, Note_on_c, 6, 48, 0
8, 122700, Note_on_c, 6, 53, 100
8, 122819, Note_on_c, 6, 53, 0
8, 122970, Note_on_c, 6, 55, 100
8, 123000, Note_on_c, 6, 55, 0
8, 123000, Note_on_c, 6, 53, 100
8, 123030, Note_on_c, 6, 53, 0
8, 123030, Note_on_c, 6, 51, 100
8, 123060, Note_on_c, 6, 51, 0
8, 123060, Note_on_c, 6, 50, 100
8, 123179, Note_on_c, 6, 50, 0
8, 123240, Note_on_c, 6, 53, 100
8, 123299, Note_on_c, 6, 53, 0
8, 123300, Note_on_c, 6, 55, 100
8, 123359, Note_on_c, 6, 55, 0
8, 123360, Note_on_c, 6, 43, 100
8, 123419, Note_on_c, 6, 43, 0
8, 123420, Note_on_c, 6, 48, 100
8, 123449, Note_on_c, 6, 48, 0
8, 123450, Note_on_c, 6, 47, 100
8, 123479, Note_on_c, 6, 47, 0
8, 123480, Note_on_c, 6, 48, 100
8, 123509, Note_on_c, 6, 48, 0
8, 123510, Note_on_c, 6, 50, 100
8, 123539, Note_on_c, 6, 50, 0
8, 123540, Note_on_c, 6, 51, 100
8, 123599, Note_on_c, 6, 51, 0
8, 123720, Note_on_c, 6, 55, 100
8, 123779, Note_on_c, 6, 55, 0
8, 123780, Note_on_c, 6, 48, 100
8, 123839, Note_on_c, 6, 48, 0
8, 123960, Note_on_c, 6, 47, 100
8, 124019, Note_on_c, 6, 47, 0
8, 124020, Note_on_c, 6, 48, 100
8, 124079, Note_on_c, 6, 48, 0
8, 124080, Note_on_c, 6, 50, 100
8, 124139, Note_on_c, 6, 50, 0
8, 124140, Note_on_c, 6, 51, 100
8, 124199, Note_on_c, 6, 51, 0
8, 124200, Note_on_c, 6, 51, 100
8, 124229, Note_on_c, 6, 51, 0
8, 124230, Note_on_c, 6, 50, 100
8, 124259, Note_on_c, 6, 50, 0
8, 124260, Note_on_c, 6, 51, 100
8, 124319, Note_on_c, 6, 51, 0
8, 124320, Note_on_c, 6, 48, 100
8, 124379, Note_on_c, 6, 48, 0
8, 124380, Note_on_c, 6, 56, 100
8, 124439, Note_on_c, 6, 56, 0
8, 124440, Note_on_c, 6, 44, 100
8, 124499, Note_on_c, 6, 44, 0
8, 124560, Note_on_c, 6, 43, 100
8, 124619, Note_on_c, 6, 43, 0
8, 124620, Note_on_c, 6, 47, 100
8, 124679, Note_on_c, 6, 47, 0
8, 124680, Note_on_c, 6, 50, 100
8, 124739, Note_on_c, 6, 50, 0
8, 124740, Note_on_c, 6, 55, 100
8, 124769, Note_on_c, 6, 55, 0
8, 124770, Note_on_c, 6, 56, 100
8, 124799, Note_on_c, 6, 56, 0
8, 124800, Note_on_c, 6, 55, 100
8, 124829, Note_on_c, 6, 55, 0
8, 124830, Note_on_c, 6, 53, 100
8, 124859, Note_on_c, 6, 53, 0
8, 124860, Note_on_c, 6, 52, 100
8, 124919, Note_on_c, 6, 52, 0
8, 124980, Note_on_c, 6, 60, 100
8, 125039, Note_on_c, 6, 60, 0
8, 125040, Note_on_c, 6, 64, 100
8, 125099, Note_on_c, 6, 64, 0
8, 125100, Note_on_c, 6, 67, 100
8, 125159, Note_on_c, 6, 67, 0
8, 125160, Note_on_c, 6, 64, 100
8, 125219, Note_on_c, 6, 64, 0
8, 125220, Note_on_c, 6, 65, 100
8, 125279, Note_on_c, 6, 65, 0
8, 125280, Note_on_c, 6, 53, 100
8, 125339, Note_on_c, 6, 53, 0
8, 125340, Note_on_c, 6, 56, 100
8, 125399, Note_on_c, 6, 56, 0
8, 125400, Note_on_c, 6, 60, 100
8, 125459, Note_on_c, 6, 60, 0
8, 125460, Note_on_c, 6, 65, 100
8, 125489, Note_on_c, 6, 65, 0
8, 125490, Note_on_c, 6, 53, 100
8, 125519, Note_on_c, 6, 53, 0
8, 125520, Note_on_c, 6, 55, 100
8, 125549, Note_on_c, 6, 55, 0
8, 125550, Note_on_c, 6, 56, 100
8, 125579, Note_on_c, 6, 56, 0
8, 125580, Note_on_c, 6, 55, 100
8, 125639, Note_on_c, 6, 55, 0
8, 125700, Note_on_c, 6, 55, 100
8, 125759, Note_on_c, 6, 55, 0
8, 125760, Note_on_c, 6, 59, 100
8, 125819, Note_on_c, 6, 59, 0
8, 125820, Note_on_c, 6, 62, 100
8, 125879, Note_on_c, 6, 62, 0
8, 125880, Note_on_c, 6, 67, 100
8, 125939, Note_on_c, 6, 67, 0
8, 125940, Note_on_c, 6, 60, 100
8, 125999, Note_on_c, 6, 60, 0
8, 126000, Note_on_c, 6, 48, 100
8, 126059, Note_on_c, 6, 48, 0
8, 126060, Note_on_c, 6, 51, 100
8, 126119, Note_on_c, 6, 51, 0
8, 126120, Note_on_c, 6, 55, 100
8, 126179, Note_on_c, 6, 55, 0
8, 126180, Note_on_c, 6, 51, 100
8, 126209, Note_on_c, 6, 51, 0
8, 126210, Note_on_c, 6, 48, 100
8, 126239, Note_on_c, 6, 48, 0
8, 126240, Note_on_c, 6, 47, 100
8, 126269, Note_on_c, 6, 47, 0
8, 126270, Note_on_c, 6, 48, 100
8, 126299, Note_on_c, 6, 48, 0
8, 126300, Note_on_c, 6, 41, 100
8, 126419, Note_on_c, 6, 41, 0
8, 126450, Note_on_c, 6, 65, 100
8, 126479, Note_on_c, 6, 65, 0
8, 126480, Note_on_c, 6, 63, 100
8, 126509, Note_on_c, 6, 63, 0
8, 126510, Note_on_c, 6, 65, 100
8, 126539, Note_on_c, 6, 65, 0
8, 126540, Note_on_c, 6, 58, 100
8, 126599, Note_on_c, 6, 58, 0
8, 126600, Note_on_c, 6, 46, 100
8, 126659, Note_on_c, 6, 46, 0
8, 126660, Note_on_c, 6, 51, 100
8, 126779, Note_on_c, 6, 51, 0
8, 126810, Note_on_c, 6, 63, 100
8, 126840, Note_on_c, 6, 63, 0
8, 126840, Note_on_c, 6, 62, 100
8, 126870, Note_on_c, 6, 62, 0
8, 126870, Note_on_c, 6, 63, 100
8, 126900, Note_on_c, 6, 63, 0
8, 126900, Note_on_c, 6, 56, 100
8, 126959, Note_on_c, 6, 56, 0
8, 126960, Note_on_c, 6, 44, 100
8, 127019, Note_on_c, 6, 44, 0
8, 127020, Note_on_c, 6, 50, 100
8, 127139, Note_on_c, 6, 50, 0
8, 127170, Note_on_c, 6, 62, 100
8, 127200, Note_on_c, 6, 62, 0
8, 127200, Note_on_c, 6, 60, 100
8, 127230, Note_on_c, 6, 60, 0
8, 127230, Note_on_c, 6, 62, 100
8, 127260, Note_on_c, 6, 62, 0
8, 127260, Note_on_c, 6, 55, 100
8, 127319, Note_on_c, 6, 55, 0
8, 127320, Note_on_c, 6, 43, 100
8, 127379, Note_on_c, 6, 43, 0
8, 127380, Note_on_c, 6, 48, 100
8, 127409, Note_on_c, 6, 48, 0
8, 127410, Note_on_c, 6, 47, 100
8, 127439, Note_on_c, 6, 47, 0
8, 127440, Note_on_c, 6, 48, 100
8, 127469, Note_on_c, 6, 48, 0
8, 127470, Note_on_c, 6, 50, 100
8, 127499, Note_on_c, 6, 50, 0
8, 127500, Note_on_c, 6, 51, 100
8, 127559, Note_on_c, 6, 51, 0
8, 127680, Note_on_c, 6, 55, 100
8, 127739, Note_on_c, 6, 55, 0
8, 127740, Note_on_c, 6, 48, 100
8, 127800, Note_on_c, 6, 48, 0
8, 127920, Note_on_c, 6, 47, 100
8, 127980, Note_on_c, 6, 47, 0
8, 127980, Note_on_c, 6, 48, 100
8, 128040, Note_on_c, 6, 48, 0
8, 128040, Note_on_c, 6, 50, 100
8, 128100, Note_on_c, 6, 50, 0
8, 128100, Note_on_c, 6, 51, 100
8, 128160, Note_on_c, 6, 51, 0
8, 128160, Note_on_c, 6, 51, 100
8, 128189, Note_on_c, 6, 51, 0
8, 128190, Note_on_c, 6, 50, 100
8, 128219, Note_on_c, 6, 50, 0
8, 128220, Note_on_c, 6, 51, 100
8, 128280, Note_on_c, 6, 51, 0
8, 128280, Note_on_c, 6, 48, 100
8, 128340, Note_on_c, 6, 48, 0
8, 128340, Note_on_c, 6, 56, 100
8, 128400, Note_on_c, 6, 56, 0
8, 128400, Note_on_c, 6, 44, 100
8, 128460, Note_on_c, 6, 44, 0
8, 128520, Note_on_c, 6, 43, 100
8, 128549, Note_on_c, 6, 43, 0
8, 128550, Note_on_c, 6, 45, 100
8, 128579, Note_on_c, 6, 45, 0
8, 128580, Note_on_c, 6, 47, 100
8, 128639, Note_on_c, 6, 47, 0
8, 128640, Note_on_c, 6, 50, 100
8, 128699, Note_on_c, 6, 50, 0
8, 128700, Note_on_c, 6, 55, 100
8, 128759, Note_on_c, 6, 55, 0
8, 128760, Note_on_c, 6, 53, 100
8, 128819, Note_on_c, 6, 53, 0
8, 128820, Note_on_c, 6, 52, 100
8, 128879, Note_on_c, 6, 52, 0
8, 128880, Note_on_c, 6, 52, 100
8, 128939, Note_on_c, 6, 52, 0
8, 128940, Note_on_c, 6, 52, 100
8, 128999, Note_on_c, 6, 52, 0
8, 129000, Note_on_c, 6, 53, 100
8, 129059, Note_on_c, 6, 53, 0
8, 129060, Note_on_c, 6, 58, 100
8, 129119, Note_on_c, 6, 58, 0
8, 129120, Note_on_c, 6, 56, 100
8, 129179, Note_on_c, 6, 56, 0
8, 129180, Note_on_c, 6, 55, 100
8, 129239, Note_on_c, 6, 55, 0
8, 129240, Note_on_c, 6, 53, 100
8, 129299, Note_on_c, 6, 53, 0
8, 129300, Note_on_c, 6, 52, 100
8, 129359, Note_on_c, 6, 52, 0
8, 129360, Note_on_c, 6, 53, 100
8, 129419, Note_on_c, 6, 53, 0
8, 129420, Note_on_c, 6, 41, 100
8, 129479, Note_on_c, 6, 41, 0
8, 129480, Note_on_c, 6, 53, 100
8, 129539, Note_on_c, 6, 53, 0
8, 129540, Note_on_c, 6, 54, 100
8, 129599, Note_on_c, 6, 54, 0
8, 129600, Note_on_c, 6, 54, 100
8, 129659, Note_on_c, 6, 54, 0
8, 129660, Note_on_c, 6, 54, 100
8, 129719, Note_on_c, 6, 54, 0
8, 129720, Note_on_c, 6, 55, 100
8, 129779, Note_on_c, 6, 55, 0
8, 129780, Note_on_c, 6, 60, 100
8, 129839, Note_on_c, 6, 60, 0
8, 129840, Note_on_c, 6, 58, 100
8, 129899, Note_on_c, 6, 58, 0
8, 129900, Note_on_c, 6, 57, 100
8, 129959, Note_on_c, 6, 57, 0
8, 129960, Note_on_c, 6, 55, 100
8, 130019, Note_on_c, 6, 55, 0
8, 130020, Note_on_c, 6, 54, 100
8, 130079, Note_on_c, 6, 54, 0
8, 130080, Note_on_c, 6, 55, 100
8, 130139, Note_on_c, 6, 55, 0
8, 130140, Note_on_c, 6, 43, 100
8, 130199, Note_on_c, 6, 43, 0
8, 130200, Note_on_c, 6, 55, 100
8, 130259, Note_on_c, 6, 55, 0
8, 130260, Note_on_c, 6, 51, 100
8, 130319, Note_on_c, 6, 51, 0
8, 130320, Note_on_c, 6, 48, 100
8, 130379, Note_on_c, 6, 48, 0
8, 130440, Note_on_c, 6, 48, 100
8, 130499, Note_on_c, 6, 48, 0
8, 130500, Note_on_c, 6, 53, 100
8, 130559, Note_on_c, 6, 53, 0
8, 130560, Note_on_c, 6, 51, 100
8, 130619, Note_on_c, 6, 51, 0
8, 130620, Note_on_c, 6, 50, 100
8, 130679, Note_on_c, 6, 50, 0
8, 130680, Note_on_c, 6, 48, 100
8, 130739, Note_on_c, 6, 48, 0
8, 130740, Note_on_c, 6, 47, 100
8, 130799, Note_on_c, 6, 47, 0
8, 130800, Note_on_c, 6, 43, 100
8, 130859, Note_on_c, 6, 43, 0
8, 130860, Note_on_c, 6, 55, 100
8, 130919, Note_on_c, 6, 55, 0
8, 130920, Note_on_c, 6, 43, 100
8, 130979, Note_on_c, 6, 43, 0
8, 130980, Note_on_c, 6, 48, 100
8, 131039, Note_on_c, 6, 48, 0
8, 131040, Note_on_c, 6, 53, 100
8, 131099, Note_on_c, 6, 53, 0
8, 131100, Note_on_c, 6, 51, 100
8, 131159, Note_on_c, 6, 51, 0
8, 131160, Note_on_c, 6, 63, 100
8, 131219, Note_on_c, 6, 63, 0
8, 131220, Note_on_c, 6, 62, 100
8, 131279, Note_on_c, 6, 62, 0
8, 131280, Note_on_c, 6, 50, 100
8, 131339, Note_on_c, 6, 50, 0
8, 131340, Note_on_c, 6, 55, 100
8, 131369, Note_on_c, 6, 55, 0
8, 131370, Note_on_c, 6, 43, 100
8, 131399, Note_on_c, 6, 43, 0
8, 131400, Note_on_c, 6, 47, 100
8, 131429, Note_on_c, 6, 47, 0
8, 131430, Note_on_c, 6, 50, 100
8, 131459, Note_on_c, 6, 50, 0
8, 131730, Note_on_c, 6, 43, 100
8, 131759, Note_on_c, 6, 43, 0
8, 131760, Note_on_c, 6, 48, 100
8, 131789, Note_on_c, 6, 48, 0
8, 131790, Note_on_c, 6, 51, 100
8, 131819, Note_on_c, 6, 51, 0
8, 132090, Note_on_c, 6, 43, 100
8, 132119, Note_on_c, 6, 43, 0
8, 132120, Note_on_c, 6, 47, 100
8, 132149, Note_on_c, 6, 47, 0
8, 132150, Note_on_c, 6, 50, 100
8, 132179, Note_on_c, 6, 50, 0
8, 132420, Note_on_c, 6, 48, 100
8, 132540, Note_on_c, 6, 48, 0
8, 132600, Note_on_c, 6, 48, 100
8, 132660, Note_on_c, 6, 48, 0
8, 132660, Note_on_c, 6, 53, 100
8, 132720, Note_on_c, 6, 53, 0
8, 132720, Note_on_c, 6, 50, 100
8, 132780, Note_on_c, 6, 50, 0
8, 132780, Note_on_c, 6, 51, 100
8, 132900, Note_on_c, 6, 51, 0
8, 132960, Note_on_c, 6, 48, 100
8, 133020, Note_on_c, 6, 48, 0
8, 133020, Note_on_c, 6, 51, 100
8, 133080, Note_on_c, 6, 51, 0
8, 133080, Note_on_c, 6, 48, 100
8, 133140, Note_on_c, 6, 48, 0
8, 133140, Note_on_c, 6, 50, 100
8, 133260, Note_on_c, 6, 50, 0
8, 133320, Note_on_c, 6, 53, 100
8, 133380, Note_on_c, 6, 53, 0
8, 133380, Note_on_c, 6, 43, 100
8, 133440, Note_on_c, 6, 43, 0
8, 133440, Note_on_c, 6, 47, 100
8, 133500, Note_on_c, 6, 47, 0
8, 133500, Note_on_c, 6, 48, 100
8, 133530, Note_on_c, 6, 48, 0
8, 133530, Note_on_c, 6, 60, 100
8, 133560, Note_on_c, 6, 60, 0
8, 133560, Note_on_c, 6, 58, 100
8, 133590, Note_on_c, 6, 58, 0
8, 133590, Note_on_c, 6, 56, 100
8, 133620, Note_on_c, 6, 56, 0
8, 133620, Note_on_c, 6, 55, 100
8, 133650, Note_on_c, 6, 55, 0
8, 133650, Note_on_c, 6, 53, 100
8, 133680, Note_on_c, 6, 53, 0
8, 133680, Note_on_c, 6, 51, 100
8, 133710, Note_on_c, 6, 51, 0
8, 133710, Note_on_c, 6, 50, 100
8, 133740, Note_on_c, 6, 50, 0
8, 133740, Note_on_c, 6, 48, 100
8, 133770, Note_on_c, 6, 48, 0
8, 133770, Note_on_c, 6, 51, 100
8, 133800, Note_on_c, 6, 51, 0
8, 133800, Note_on_c, 6, 50, 100
8, 133830, Note_on_c, 6, 50, 0
8, 133830, Note_on_c, 6, 48, 100
8, 133860, Note_on_c, 6, 48, 0
8, 133860, Note_on_c, 6, 47, 100
8, 133890, Note_on_c, 6, 47, 0
8, 133890, Note_on_c, 6, 43, 100
8, 133920, Note_on_c, 6, 43, 0
8, 133920, Note_on_c, 6, 45, 100
8, 133950, Note_on_c, 6, 45, 0
8, 133950, Note_on_c, 6, 47, 100
8, 133980, Note_on_c, 6, 47, 0
8, 133980, Note_on_c, 6, 48, 100
8, 134010, Note_on_c, 6, 48, 0
8, 134010, Note_on_c, 6, 50, 100
8, 134040, Note_on_c, 6, 50, 0
8, 134040, Note_on_c, 6, 51, 100
8, 134070, Note_on_c, 6, 51, 0
8, 134070, Note_on_c, 6, 53, 100
8, 134100, Note_on_c, 6, 53, 0
8, 134100, Note_on_c, 6, 55, 100
8, 134160, Note_on_c, 6, 55, 0
8, 134160, Note_on_c, 6, 43, 100
8, 134220, Note_on_c, 6, 43, 0
8, 134220, Note_on_c, 6, 48, 100
8, 134280, Note_on_c, 6, 48, 0
8, 134280, Note_on_c, 6, 36, 100
8, 134340, Note_on_c, 6, 36, 0
8, 134340, Note_on_c, 6, 36, 100
8, 134400, Note_on_c, 6, 36, 0
8, 134400, Note_on_c, 6, 36, 100
8, 134460, Note_on_c, 6, 36, 0
8, 134460, Note_on_c, 6, 36, 100
8, 134520, Note_on_c, 6, 36, 0
8, 134520, Note_on_c, 6, 36, 100
8, 134580, Note_on_c, 6, 36, 0
8, 134580, Note_on_c, 6, 36, 100
8, 134700, Note_on_c, 6, 36, 0
8, 134700, End_track
9, 0, Start_track
9, 0, MIDI_port, 0
9, 0, Title_t, "Clave II"
9, 0, Program_c, 7, 6
9, 0, Control_c, 7, 7, 116
9, 0, Control_c, 7, 10, 127
9, 0, Note_on_c, 7, 60, 66
9, 30, Note_on_c, 7, 60, 0
9, 30, Note_on_c, 7, 62, 66
9, 60, Note_on_c, 7, 62, 0
9, 60, Note_on_c, 7, 63, 66
9, 90, Note_on_c, 7, 63, 0
9, 90, Note_on_c, 7, 65, 66
9, 120, Note_on_c, 7, 65, 0
9, 120, Note_on_c, 7, 67, 66
9, 180, Note_on_c, 7, 67, 0
9, 180, Note_on_c, 7, 72, 66
9, 240, Note_on_c, 7, 72, 0
9, 240, Note_on_c, 7, 71, 66
9, 300, Note_on_c, 7, 71, 0
9, 300, Note_on_c, 7, 67, 66
9, 360, Note_on_c, 7, 67, 0
9, 360, Note_on_c, 7, 62, 66
9, 420, Note_on_c, 7, 62, 0
9, 420, Note_on_c, 7, 65, 66
9, 480, Note_on_c, 7, 65, 0
9, 480, Note_on_c, 7, 64, 66
9, 540, Note_on_c, 7, 64, 0
9, 540, Note_on_c, 7, 60, 66
9, 600, Note_on_c, 7, 60, 0
9, 600, Note_on_c, 7, 70, 66
9, 780, Note_on_c, 7, 70, 0
9, 780, Note_on_c, 7, 69, 66
9, 810, Note_on_c, 7, 69, 0
9, 810, Note_on_c, 7, 67, 66
9, 840, Note_on_c, 7, 67, 0
9, 840, Note_on_c, 7, 69, 66
9, 900, Note_on_c, 7, 69, 0
9, 900, Note_on_c, 7, 65, 66
9, 960, Note_on_c, 7, 65, 0
9, 960, Note_on_c, 7, 62, 66
9, 1020, Note_on_c, 7, 62, 0
9, 1020, Note_on_c, 7, 65, 66
9, 1080, Note_on_c, 7, 65, 0
9, 1080, Note_on_c, 7, 68, 66
9, 1140, Note_on_c, 7, 68, 0
9, 1140, Note_on_c, 7, 60, 66
9, 1200, Note_on_c, 7, 60, 0
9, 1200, Note_on_c, 7, 59, 66
9, 1260, Note_on_c, 7, 59, 0
9, 1260, Note_on_c, 7, 67, 66
9, 1320, Note_on_c, 7, 67, 0
9, 1320, Note_on_c, 7, 60, 66
9, 1380, Note_on_c, 7, 60, 0
9, 1380, Note_on_c, 7, 65, 66
9, 1440, Note_on_c, 7, 65, 0
9, 1440, Note_on_c, 7, 63, 66
9, 1560, Note_on_c, 7, 63, 0
9, 1560, Note_on_c, 7, 62, 66
9, 1575, Note_on_c, 7, 62, 0
9, 1575, Note_on_c, 7, 63, 66
9, 1590, Note_on_c, 7, 63, 0
9, 1590, Note_on_c, 7, 62, 66
9, 1605, Note_on_c, 7, 62, 0
9, 1605, Note_on_c, 7, 63, 66
9, 1620, Note_on_c, 7, 63, 0
9, 1620, Note_on_c, 7, 62, 66
9, 1640, Note_on_c, 7, 62, 0
9, 1640, Note_on_c, 7, 63, 66
9, 1660, Note_on_c, 7, 63, 0
9, 1660, Note_on_c, 7, 62, 66
9, 1680, Note_on_c, 7, 62, 0
9, 1680, Note_on_c, 7, 60, 66
9, 1710, Note_on_c, 7, 60, 0
9, 1710, Note_on_c, 7, 59, 66
9, 1740, Note_on_c, 7, 59, 0
9, 1740, Note_on_c, 7, 60, 66
9, 1770, Note_on_c, 7, 60, 0
9, 1770, Note_on_c, 7, 62, 66
9, 1800, Note_on_c, 7, 62, 0
9, 1800, Note_on_c, 7, 64, 66
9, 1830, Note_on_c, 7, 64, 0
9, 1830, Note_on_c, 7, 66, 66
9, 1860, Note_on_c, 7, 66, 0
9, 1860, Note_on_c, 7, 67, 66
9, 1890, Note_on_c, 7, 67, 0
9, 1890, Note_on_c, 7, 69, 66
9, 1920, Note_on_c, 7, 69, 0
9, 1920, Note_on_c, 7, 70, 66
9, 1950, Note_on_c, 7, 70, 0
9, 1950, Note_on_c, 7, 69, 66
9, 1980, Note_on_c, 7, 69, 0
9, 1980, Note_on_c, 7, 67, 66
9, 2010, Note_on_c, 7, 67, 0
9, 2010, Note_on_c, 7, 69, 66
9, 2040, Note_on_c, 7, 69, 0
9, 2040, Note_on_c, 7, 70, 66
9, 2070, Note_on_c, 7, 70, 0
9, 2070, Note_on_c, 7, 69, 66
9, 2100, Note_on_c, 7, 69, 0
9, 2100, Note_on_c, 7, 70, 66
9, 2130, Note_on_c, 7, 70, 0
9, 2130, Note_on_c, 7, 72, 66
9, 2160, Note_on_c, 7, 72, 0
9, 2160, Note_on_c, 7, 74, 66
9, 2220, Note_on_c, 7, 74, 0
9, 2220, Note_on_c, 7, 69, 66
9, 2280, Note_on_c, 7, 69, 0
9, 2280, Note_on_c, 7, 74, 66
9, 2430, Note_on_c, 7, 74, 0
9, 2430, Note_on_c, 7, 72, 66
9, 2460, Note_on_c, 7, 72, 0
9, 2460, Note_on_c, 7, 71, 66
9, 2490, Note_on_c, 7, 71, 0
9, 2490, Note_on_c, 7, 69, 66
9, 2520, Note_on_c, 7, 69, 0
9, 2520, Note_on_c, 7, 71, 66
9, 2550, Note_on_c, 7, 71, 0
9, 2550, Note_on_c, 7, 67, 66
9, 2580, Note_on_c, 7, 67, 0
9, 2580, Note_on_c, 7, 69, 66
9, 2610, Note_on_c, 7, 69, 0
9, 2610, Note_on_c, 7, 71, 66
9, 2640, Note_on_c, 7, 71, 0
9, 2640, Note_on_c, 7, 72, 66
9, 2700, Note_on_c, 7, 72, 0
9, 2700, Note_on_c, 7, 67, 66
9, 2760, Note_on_c, 7, 67, 0
9, 2760, Note_on_c, 7, 72, 66
9, 2910, Note_on_c, 7, 72, 0
9, 2910, Note_on_c, 7, 70, 66
9, 2940, Note_on_c, 7, 70, 0
9, 2940, Note_on_c, 7, 69, 66
9, 2970, Note_on_c, 7, 69, 0
9, 2970, Note_on_c, 7, 70, 66
9, 3000, Note_on_c, 7, 70, 0
9, 3000, Note_on_c, 7, 72, 66
9, 3030, Note_on_c, 7, 72, 0
9, 3030, Note_on_c, 7, 74, 66
9, 3060, Note_on_c, 7, 74, 0
9, 3060, Note_on_c, 7, 75, 66
9, 3090, Note_on_c, 7, 75, 0
9, 3090, Note_on_c, 7, 72, 66
9, 3120, Note_on_c, 7, 72, 0
9, 3120, Note_on_c, 7, 74, 66
9, 3150, Note_on_c, 7, 74, 0
9, 3150, Note_on_c, 7, 75, 66
9, 3180, Note_on_c, 7, 75, 0
9, 3180, Note_on_c, 7, 74, 66
9, 3210, Note_on_c, 7, 74, 0
9, 3210, Note_on_c, 7, 72, 66
9, 3240, Note_on_c, 7, 72, 0
9, 3240, Note_on_c, 7, 70, 66
9, 3270, Note_on_c, 7, 70, 0
9, 3270, Note_on_c, 7, 69, 66
9, 3300, Note_on_c, 7, 69, 0
9, 3300, Note_on_c, 7, 67, 66
9, 3330, Note_on_c, 7, 67, 0
9, 3330, Note_on_c, 7, 66, 66
9, 3360, Note_on_c, 7, 66, 0
9, 3360, Note_on_c, 7, 67, 66
9, 3420, Note_on_c, 7, 67, 0
9, 3420, Note_on_c, 7, 79, 66
9, 3540, Note_on_c, 7, 79, 0
9, 3540, Note_on_c, 7, 78, 66
9, 3600, Note_on_c, 7, 78, 0
9, 3600, Note_on_c, 7, 79, 66
9, 3660, Note_on_c, 7, 79, 0
9, 3660, Note_on_c, 7, 67, 66
9, 3690, Note_on_c, 7, 67, 0
9, 3690, Note_on_c, 7, 66, 66
9, 3720, Note_on_c, 7, 66, 0
9, 3720, Note_on_c, 7, 67, 66
9, 3750, Note_on_c, 7, 67, 0
9, 3750, Note_on_c, 7, 69, 66
9, 3780, Note_on_c, 7, 69, 0
9, 3780, Note_on_c, 7, 70, 66
9, 3810, Note_on_c, 7, 70, 0
9, 3810, Note_on_c, 7, 67, 66
9, 3840, Note_on_c, 7, 67, 0
9, 3840, Note_on_c, 7, 69, 66
9, 3870, Note_on_c, 7, 69, 0
9, 3870, Note_on_c, 7, 67, 66
9, 3900, Note_on_c, 7, 67, 0
9, 3900, Note_on_c, 7, 69, 66
9, 3930, Note_on_c, 7, 69, 0
9, 3930, Note_on_c, 7, 70, 66
9, 3960, Note_on_c, 7, 70, 0
9, 3960, Note_on_c, 7, 69, 66
9, 3990, Note_on_c, 7, 69, 0
9, 3990, Note_on_c, 7, 71, 66
9, 4020, Note_on_c, 7, 71, 0
9, 4020, Note_on_c, 7, 72, 66
9, 4050, Note_on_c, 7, 72, 0
9, 4050, Note_on_c, 7, 69, 66
9, 4080, Note_on_c, 7, 69, 0
9, 4080, Note_on_c, 7, 71, 66
9, 4110, Note_on_c, 7, 71, 0
9, 4110, Note_on_c, 7, 69, 66
9, 4140, Note_on_c, 7, 69, 0
9, 4140, Note_on_c, 7, 71, 66
9, 4170, Note_on_c, 7, 71, 0
9, 4170, Note_on_c, 7, 72, 66
9, 4200, Note_on_c, 7, 72, 0
9, 4200, Note_on_c, 7, 71, 66
9, 4230, Note_on_c, 7, 71, 0
9, 4230, Note_on_c, 7, 72, 66
9, 4260, Note_on_c, 7, 72, 0
9, 4260, Note_on_c, 7, 74, 66
9, 4290, Note_on_c, 7, 74, 0
9, 4290, Note_on_c, 7, 71, 66
9, 4320, Note_on_c, 7, 71, 0
9, 4320, Note_on_c, 7, 72, 66
9, 4380, Note_on_c, 7, 72, 0
9, 4380, Note_on_c, 7, 79, 66
9, 4440, Note_on_c, 7, 79, 0
9, 4500, Note_on_c, 7, 75, 66
9, 4560, Note_on_c, 7, 75, 0
9, 4560, Note_on_c, 7, 74, 66
9, 4590, Note_on_c, 7, 74, 0
9, 4590, Note_on_c, 7, 72, 66
9, 4620, Note_on_c, 7, 72, 0
9, 4620, Note_on_c, 7, 71, 66
9, 4650, Note_on_c, 7, 71, 0
9, 4650, Note_on_c, 7, 69, 66
9, 4680, Note_on_c, 7, 69, 0
9, 4680, Note_on_c, 7, 71, 66
9, 4710, Note_on_c, 7, 71, 0
9, 4710, Note_on_c, 7, 67, 66
9, 4740, Note_on_c, 7, 67, 0
9, 4740, Note_on_c, 7, 69, 66
9, 4770, Note_on_c, 7, 69, 0
9, 4770, Note_on_c, 7, 71, 66
9, 4800, Note_on_c, 7, 71, 0
9, 4800, Note_on_c, 7, 72, 66
9, 4860, Note_on_c, 7, 72, 0
9, 4860, Note_on_c, 7, 67, 66
9, 4920, Note_on_c, 7, 67, 0
9, 4920, Note_on_c, 7, 72, 66
9, 4950, Note_on_c, 7, 72, 0
9, 4950, Note_on_c, 7, 74, 66
9, 4980, Note_on_c, 7, 74, 0
9, 4980, Note_on_c, 7, 76, 66
9, 5010, Note_on_c, 7, 76, 0
9, 5010, Note_on_c, 7, 77, 66
9, 5040, Note_on_c, 7, 77, 0
9, 5040, Note_on_c, 7, 72, 66
9, 5070, Note_on_c, 7, 72, 0
9, 5070, Note_on_c, 7, 70, 66
9, 5100, Note_on_c, 7, 70, 0
9, 5100, Note_on_c, 7, 72, 66
9, 5130, Note_on_c, 7, 72, 0
9, 5130, Note_on_c, 7, 74, 66
9, 5160, Note_on_c, 7, 74, 0
9, 5160, Note_on_c, 7, 72, 66
9, 5190, Note_on_c, 7, 72, 0
9, 5190, Note_on_c, 7, 75, 66
9, 5220, Note_on_c, 7, 75, 0
9, 5220, Note_on_c, 7, 74, 66
9, 5250, Note_on_c, 7, 74, 0
9, 5250, Note_on_c, 7, 72, 66
9, 5280, Note_on_c, 7, 72, 0
9, 5280, Note_on_c, 7, 74, 66
9, 5340, Note_on_c, 7, 74, 0
9, 5340, Note_on_c, 7, 62, 66
9, 5400, Note_on_c, 7, 62, 0
9, 5400, Note_on_c, 7, 74, 66
9, 5550, Note_on_c, 7, 74, 0
9, 5550, Note_on_c, 7, 72, 66
9, 5580, Note_on_c, 7, 72, 0
9, 5580, Note_on_c, 7, 71, 66
9, 5610, Note_on_c, 7, 71, 0
9, 5610, Note_on_c, 7, 69, 66
9, 5640, Note_on_c, 7, 69, 0
9, 5640, Note_on_c, 7, 67, 66
9, 5670, Note_on_c, 7, 67, 0
9, 5670, Note_on_c, 7, 65, 66
9, 5700, Note_on_c, 7, 65, 0
9, 5700, Note_on_c, 7, 63, 66
9, 5730, Note_on_c, 7, 63, 0
9, 5730, Note_on_c, 7, 62, 66
9, 5760, Note_on_c, 7, 62, 0
9, 5760, Note_on_c, 7, 60, 66
9, 5789, Note_on_c, 7, 60, 0
9, 5790, Note_on_c, 7, 70, 66
9, 5819, Note_on_c, 7, 70, 0
9, 5820, Note_on_c, 7, 68, 66
9, 5849, Note_on_c, 7, 68, 0
9, 5850, Note_on_c, 7, 67, 66
9, 5879, Note_on_c, 7, 67, 0
9, 5880, Note_on_c, 7, 65, 66
9, 5909, Note_on_c, 7, 65, 0
9, 5910, Note_on_c, 7, 63, 66
9, 5939, Note_on_c, 7, 63, 0
9, 5940, Note_on_c, 7, 62, 66
9, 5969, Note_on_c, 7, 62, 0
9, 5970, Note_on_c, 7, 65, 66
9, 5999, Note_on_c, 7, 65, 0
9, 6000, Note_on_c, 7, 63, 66
9, 6059, Note_on_c, 7, 63, 0
9, 6060, Note_on_c, 7, 60, 66
9, 6119, Note_on_c, 7, 60, 0
9, 6120, Note_on_c, 7, 67, 66
9, 6269, Note_on_c, 7, 67, 0
9, 6270, Note_on_c, 7, 69, 66
9, 6299, Note_on_c, 7, 69, 0
9, 6300, Note_on_c, 7, 71, 66
9, 6329, Note_on_c, 7, 71, 0
9, 6330, Note_on_c, 7, 72, 66
9, 6359, Note_on_c, 7, 72, 0
9, 6360, Note_on_c, 7, 74, 66
9, 6419, Note_on_c, 7, 74, 0
9, 6420, Note_on_c, 7, 77, 66
9, 6479, Note_on_c, 7, 77, 0
9, 6480, Note_on_c, 7, 76, 66
9, 6539, Note_on_c, 7, 76, 0
9, 6540, Note_on_c, 7, 72, 66
9, 6599, Note_on_c, 7, 72, 0
9, 6600, Note_on_c, 7, 67, 66
9, 6659, Note_on_c, 7, 67, 0
9, 6660, Note_on_c, 7, 70, 66
9, 6719, Note_on_c, 7, 70, 0
9, 6720, Note_on_c, 7, 69, 66
9, 6779, Note_on_c, 7, 69, 0
9, 6780, Note_on_c, 7, 65, 66
9, 6839, Note_on_c, 7, 65, 0
9, 6840, Note_on_c, 7, 75, 66
9, 7019, Note_on_c, 7, 75, 0
9, 7020, Note_on_c, 7, 74, 66
9, 7049, Note_on_c, 7, 74, 0
9, 7050, Note_on_c, 7, 72, 66
9, 7079, Note_on_c, 7, 72, 0
9, 7080, Note_on_c, 7, 74, 66
9, 7139, Note_on_c, 7, 74, 0
9, 7140, Note_on_c, 7, 70, 66
9, 7199, Note_on_c, 7, 70, 0
9, 7200, Note_on_c, 7, 67, 66
9, 7259, Note_on_c, 7, 67, 0
9, 7260, Note_on_c, 7, 70, 66
9, 7319, Note_on_c, 7, 70, 0
9, 7320, Note_on_c, 7, 73, 66
9, 7379, Note_on_c, 7, 73, 0
9, 7380, Note_on_c, 7, 65, 66
9, 7439, Note_on_c, 7, 65, 0
9, 7440, Note_on_c, 7, 64, 66
9, 7499, Note_on_c, 7, 64, 0
9, 7500, Note_on_c, 7, 72, 66
9, 7559, Note_on_c, 7, 72, 0
9, 7560, Note_on_c, 7, 65, 66
9, 7619, Note_on_c, 7, 65, 0
9, 7620, Note_on_c, 7, 70, 66
9, 7679, Note_on_c, 7, 70, 0
9, 7680, Note_on_c, 7, 68, 66
9, 7799, Note_on_c, 7, 68, 0
9, 7800, Note_on_c, 7, 67, 66
9, 7919, Note_on_c, 7, 67, 0
9, 7920, Note_on_c, 7, 65, 66
9, 8039, Note_on_c, 7, 65, 0
9, 8100, Note_on_c, 7, 62, 66
9, 8159, Note_on_c, 7, 62, 0
9, 8160, Note_on_c, 7, 67, 66
9, 8220, Note_on_c, 7, 67, 0
9, 8220, Note_on_c, 7, 55, 66
9, 8280, Note_on_c, 7, 55, 0
9, 8280, Note_on_c, 7, 67, 66
9, 8430, Note_on_c, 7, 67, 0
9, 8430, Note_on_c, 7, 66, 66
9, 8459, Note_on_c, 7, 66, 0
9, 8460, Note_on_c, 7, 67, 66
9, 8489, Note_on_c, 7, 67, 0
9, 8490, Note_on_c, 7, 69, 66
9, 8519, Note_on_c, 7, 69, 0
9, 8520, Note_on_c, 7, 71, 66
9, 8549, Note_on_c, 7, 71, 0
9, 8550, Note_on_c, 7, 72, 66
9, 8579, Note_on_c, 7, 72, 0
9, 8580, Note_on_c, 7, 74, 66
9, 8609, Note_on_c, 7, 74, 0
9, 8610, Note_on_c, 7, 71, 66
9, 8639, Note_on_c, 7, 71, 0
9, 8640, Note_on_c, 7, 72, 66
9, 8669, Note_on_c, 7, 72, 0
9, 8670, Note_on_c, 7, 68, 66
9, 8699, Note_on_c, 7, 68, 0
9, 8700, Note_on_c, 7, 67, 66
9, 8729, Note_on_c, 7, 67, 0
9, 8730, Note_on_c, 7, 65, 66
9, 8759, Note_on_c, 7, 65, 0
9, 8760, Note_on_c, 7, 67, 66
9, 8789, Note_on_c, 7, 67, 0
9, 8790, Note_on_c, 7, 64, 66
9, 8819, Note_on_c, 7, 64, 0
9, 8820, Note_on_c, 7, 65, 66
9, 8849, Note_on_c, 7, 65, 0
9, 8850, Note_on_c, 7, 67, 66
9, 8879, Note_on_c, 7, 67, 0
9, 8880, Note_on_c, 7, 60, 66
9, 8939, Note_on_c, 7, 60, 0
9, 8940, Note_on_c, 7, 65, 66
9, 8999, Note_on_c, 7, 65, 0
9, 9000, Note_on_c, 7, 72, 66
9, 9179, Note_on_c, 7, 72, 0
9, 9180, Note_on_c, 7, 71, 66
9, 9209, Note_on_c, 7, 71, 0
9, 9210, Note_on_c, 7, 72, 66
9, 9239, Note_on_c, 7, 72, 0
9, 9240, Note_on_c, 7, 74, 66
9, 9269, Note_on_c, 7, 74, 0
9, 9270, Note_on_c, 7, 75, 66
9, 9299, Note_on_c, 7, 75, 0
9, 9300, Note_on_c, 7, 77, 66
9, 9389, Note_on_c, 7, 77, 0
9, 9390, Note_on_c, 7, 74, 66
9, 9419, Note_on_c, 7, 74, 0
9, 9420, Note_on_c, 7, 75, 66
9, 9449, Note_on_c, 7, 75, 0
9, 9450, Note_on_c, 7, 77, 66
9, 9479, Note_on_c, 7, 77, 0
9, 9480, Note_on_c, 7, 79, 66
9, 9539, Note_on_c, 7, 79, 0
9, 9540, Note_on_c, 7, 74, 66
9, 9659, Note_on_c, 7, 74, 0
9, 9660, Note_on_c, 7, 72, 66
9, 9779, Note_on_c, 7, 72, 0
9, 9780, Note_on_c, 7, 71, 66
9, 9839, Note_on_c, 7, 71, 0
9, 9840, Note_on_c, 7, 72, 66
9, 9959, Note_on_c, 7, 72, 0
9, 11910, Note_on_c, 7, 65, 66
9, 11939, Note_on_c, 7, 65, 0
9, 11940, Note_on_c, 7, 63, 66
9, 11969, Note_on_c, 7, 63, 0
9, 11970, Note_on_c, 7, 62, 66
9, 11999, Note_on_c, 7, 62, 0
9, 12000, Note_on_c, 7, 63, 66
9, 12029, Note_on_c, 7, 63, 0
9, 12060, Note_on_c, 7, 79, 66
9, 12089, Note_on_c, 7, 79, 0
9, 12120, Note_on_c, 7, 62, 66
9, 12149, Note_on_c, 7, 62, 0
9, 12180, Note_on_c, 7, 77, 66
9, 12209, Note_on_c, 7, 77, 0
9, 12240, Note_on_c, 7, 60, 66
9, 12269, Note_on_c, 7, 60, 0
9, 12270, Note_on_c, 7, 77, 66
9, 12299, Note_on_c, 7, 77, 0
9, 12300, Note_on_c, 7, 75, 66
9, 12329, Note_on_c, 7, 75, 0
9, 12330, Note_on_c, 7, 74, 66
9, 12359, Note_on_c, 7, 74, 0
9, 12360, Note_on_c, 7, 72, 66
9, 12389, Note_on_c, 7, 72, 0
9, 12390, Note_on_c, 7, 70, 66
9, 12419, Note_on_c, 7, 70, 0
9, 12420, Note_on_c, 7, 68, 66
9, 12449, Note_on_c, 7, 68, 0
9, 12450, Note_on_c, 7, 67, 66
9, 12479, Note_on_c, 7, 67, 0
9, 12480, Note_on_c, 7, 68, 66
9, 12509, Note_on_c, 7, 68, 0
9, 12540, Note_on_c, 7, 84, 66
9, 12569, Note_on_c, 7, 84, 0
9, 12600, Note_on_c, 7, 67, 66
9, 12629, Note_on_c, 7, 67, 0
9, 12660, Note_on_c, 7, 82, 66
9, 12689, Note_on_c, 7, 82, 0
9, 12720, Note_on_c, 7, 65, 66
9, 12749, Note_on_c, 7, 65, 0
9, 12750, Note_on_c, 7, 82, 66
9, 12779, Note_on_c, 7, 82, 0
9, 12780, Note_on_c, 7, 80, 66
9, 12809, Note_on_c, 7, 80, 0
9, 12810, Note_on_c, 7, 79, 66
9, 12839, Note_on_c, 7, 79, 0
9, 12840, Note_on_c, 7, 77, 66
9, 12869, Note_on_c, 7, 77, 0
9, 12870, Note_on_c, 7, 75, 66
9, 12899, Note_on_c, 7, 75, 0
9, 12900, Note_on_c, 7, 74, 66
9, 12929, Note_on_c, 7, 74, 0
9, 12930, Note_on_c, 7, 72, 66
9, 12959, Note_on_c, 7, 72, 0
9, 12960, Note_on_c, 7, 74, 66
9, 12989, Note_on_c, 7, 74, 0
9, 12990, Note_on_c, 7, 80, 66
9, 13019, Note_on_c, 7, 80, 0
9, 13020, Note_on_c, 7, 79, 66
9, 13049, Note_on_c, 7, 79, 0
9, 13050, Note_on_c, 7, 77, 66
9, 13079, Note_on_c, 7, 77, 0
9, 13080, Note_on_c, 7, 79, 66
9, 13109, Note_on_c, 7, 79, 0
9, 13110, Note_on_c, 7, 74, 66
9, 13139, Note_on_c, 7, 74, 0
9, 13140, Note_on_c, 7, 72, 66
9, 13169, Note_on_c, 7, 72, 0
9, 13170, Note_on_c, 7, 71, 66
9, 13199, Note_on_c, 7, 71, 0
9, 13200, Note_on_c, 7, 72, 66
9, 13229, Note_on_c, 7, 72, 0
9, 13230, Note_on_c, 7, 79, 66
9, 13259, Note_on_c, 7, 79, 0
9, 13260, Note_on_c, 7, 77, 66
9, 13289, Note_on_c, 7, 77, 0
9, 13290, Note_on_c, 7, 75, 66
9, 13319, Note_on_c, 7, 75, 0
9, 13320, Note_on_c, 7, 77, 66
9, 13349, Note_on_c, 7, 77, 0
9, 13350, Note_on_c, 7, 72, 66
9, 13379, Note_on_c, 7, 72, 0
9, 13380, Note_on_c, 7, 71, 66
9, 13409, Note_on_c, 7, 71, 0
9, 13410, Note_on_c, 7, 69, 66
9, 13439, Note_on_c, 7, 69, 0
9, 13440, Note_on_c, 7, 71, 66
9, 13469, Note_on_c, 7, 71, 0
9, 13470, Note_on_c, 7, 77, 66
9, 13499, Note_on_c, 7, 77, 0
9, 13500, Note_on_c, 7, 75, 66
9, 13529, Note_on_c, 7, 75, 0
9, 13530, Note_on_c, 7, 74, 66
9, 13559, Note_on_c, 7, 74, 0
9, 13560, Note_on_c, 7, 75, 66
9, 13589, Note_on_c, 7, 75, 0
9, 13590, Note_on_c, 7, 74, 66
9, 13619, Note_on_c, 7, 74, 0
9, 13620, Note_on_c, 7, 72, 66
9, 13649, Note_on_c, 7, 72, 0
9, 13650, Note_on_c, 7, 75, 66
9, 13679, Note_on_c, 7, 75, 0
9, 13680, Note_on_c, 7, 74, 66
9, 13709, Note_on_c, 7, 74, 0
9, 13710, Note_on_c, 7, 72, 66
9, 13739, Note_on_c, 7, 72, 0
9, 13740, Note_on_c, 7, 71, 66
9, 13769, Note_on_c, 7, 71, 0
9, 13770, Note_on_c, 7, 69, 66
9, 13799, Note_on_c, 7, 69, 0
9, 13800, Note_on_c, 7, 67, 66
9, 13979, Note_on_c, 7, 67, 0
9, 13980, Note_on_c, 7, 72, 66
9, 14009, Note_on_c, 7, 72, 0
9, 14010, Note_on_c, 7, 74, 66
9, 14039, Note_on_c, 7, 74, 0
9, 14040, Note_on_c, 7, 75, 66
9, 14100, Note_on_c, 7, 75, 0
9, 14100, Note_on_c, 7, 60, 66
9, 14190, Note_on_c, 7, 60, 0
9, 14190, Note_on_c, 7, 58, 66
9, 14219, Note_on_c, 7, 58, 0
9, 14220, Note_on_c, 7, 57, 66
9, 14249, Note_on_c, 7, 57, 0
9, 14250, Note_on_c, 7, 55, 66
9, 14279, Note_on_c, 7, 55, 0
9, 14280, Note_on_c, 7, 57, 66
9, 14340, Note_on_c, 7, 57, 0
9, 14340, Note_on_c, 7, 65, 66
9, 14460, Note_on_c, 7, 65, 0
9, 14460, Note_on_c, 7, 70, 66
9, 14489, Note_on_c, 7, 70, 0
9, 14490, Note_on_c, 7, 72, 66
9, 14519, Note_on_c, 7, 72, 0
9, 14520, Note_on_c, 7, 74, 66
9, 14580, Note_on_c, 7, 74, 0
9, 14580, Note_on_c, 7, 58, 66
9, 14670, Note_on_c, 7, 58, 0
9, 14670, Note_on_c, 7, 56, 66
9, 14699, Note_on_c, 7, 56, 0
9, 14700, Note_on_c, 7, 55, 66
9, 14729, Note_on_c, 7, 55, 0
9, 14730, Note_on_c, 7, 53, 66
9, 14759, Note_on_c, 7, 53, 0
9, 14760, Note_on_c, 7, 55, 66
9, 14820, Note_on_c, 7, 55, 0
9, 14820, Note_on_c, 7, 63, 66
9, 14910, Note_on_c, 7, 63, 0
9, 14910, Note_on_c, 7, 65, 66
9, 14939, Note_on_c, 7, 65, 0
9, 14940, Note_on_c, 7, 63, 66
9, 14969, Note_on_c, 7, 63, 0
9, 14970, Note_on_c, 7, 62, 66
9, 14999, Note_on_c, 7, 62, 0
9, 15000, Note_on_c, 7, 60, 66
9, 15029, Note_on_c, 7, 60, 0
9, 15030, Note_on_c, 7, 58, 66
9, 15059, Note_on_c, 7, 58, 0
9, 15060, Note_on_c, 7, 57, 66
9, 15089, Note_on_c, 7, 57, 0
9, 15090, Note_on_c, 7, 55, 66
9, 15119, Note_on_c, 7, 55, 0
9, 15120, Note_on_c, 7, 53, 66
9, 15149, Note_on_c, 7, 53, 0
9, 15150, Note_on_c, 7, 67, 66
9, 15179, Note_on_c, 7, 67, 0
9, 15180, Note_on_c, 7, 65, 66
9, 15209, Note_on_c, 7, 65, 0
9, 15210, Note_on_c, 7, 63, 66
9, 15239, Note_on_c, 7, 63, 0
9, 15240, Note_on_c, 7, 62, 66
9, 15269, Note_on_c, 7, 62, 0
9, 15270, Note_on_c, 7, 60, 66
9, 15299, Note_on_c, 7, 60, 0
9, 15300, Note_on_c, 7, 59, 66
9, 15329, Note_on_c, 7, 59, 0
9, 15330, Note_on_c, 7, 57, 66
9, 15359, Note_on_c, 7, 57, 0
9, 15360, Note_on_c, 7, 55, 66
9, 15420, Note_on_c, 7, 55, 0
9, 15420, Note_on_c, 7, 68, 66
9, 15435, Note_on_c, 7, 68, 0
9, 15435, Note_on_c, 7, 67, 66
9, 15450, Note_on_c, 7, 67, 0
9, 15450, Note_on_c, 7, 65, 66
9, 15465, Note_on_c, 7, 65, 0
9, 15465, Note_on_c, 7, 67, 66
9, 15480, Note_on_c, 7, 67, 0
9, 15480, Note_on_c, 7, 68, 66
9, 15509, Note_on_c, 7, 68, 0
9, 15540, Note_on_c, 7, 63, 66
9, 15569, Note_on_c, 7, 63, 0
9, 15600, Note_on_c, 7, 65, 66
9, 15629, Note_on_c, 7, 65, 0
9, 15660, Note_on_c, 7, 68, 66
9, 15689, Note_on_c, 7, 68, 0
9, 15720, Note_on_c, 7, 70, 66
9, 15749, Note_on_c, 7, 70, 0
9, 15780, Note_on_c, 7, 65, 66
9, 15809, Note_on_c, 7, 65, 0
9, 15840, Note_on_c, 7, 67, 66
9, 15869, Note_on_c, 7, 67, 0
9, 15870, Note_on_c, 7, 70, 66
9, 15899, Note_on_c, 7, 70, 0
9, 15900, Note_on_c, 7, 72, 66
9, 15929, Note_on_c, 7, 72, 0
9, 15930, Note_on_c, 7, 74, 66
9, 15959, Note_on_c, 7, 74, 0
9, 15960, Note_on_c, 7, 75, 66
9, 15989, Note_on_c, 7, 75, 0
9, 15990, Note_on_c, 7, 77, 66
9, 16019, Note_on_c, 7, 77, 0
9, 16020, Note_on_c, 7, 79, 66
9, 16049, Note_on_c, 7, 79, 0
9, 16050, Note_on_c, 7, 75, 66
9, 16079, Note_on_c, 7, 75, 0
9, 16080, Note_on_c, 7, 69, 66
9, 16109, Note_on_c, 7, 69, 0
9, 16110, Note_on_c, 7, 75, 66
9, 16139, Note_on_c, 7, 75, 0
9, 16140, Note_on_c, 7, 79, 66
9, 16230, Note_on_c, 7, 79, 0
9, 16230, Note_on_c, 7, 75, 66
9, 16259, Note_on_c, 7, 75, 0
9, 16260, Note_on_c, 7, 72, 66
9, 16289, Note_on_c, 7, 72, 0
9, 16290, Note_on_c, 7, 69, 66
9, 16319, Note_on_c, 7, 69, 0
9, 16320, Note_on_c, 7, 78, 66
9, 16349, Note_on_c, 7, 78, 0
9, 16350, Note_on_c, 7, 69, 66
9, 16379, Note_on_c, 7, 69, 0
9, 16380, Note_on_c, 7, 70, 66
9, 16409, Note_on_c, 7, 70, 0
9, 16410, Note_on_c, 7, 72, 66
9, 16439, Note_on_c, 7, 72, 0
9, 16440, Note_on_c, 7, 74, 66
9, 16469, Note_on_c, 7, 74, 0
9, 16470, Note_on_c, 7, 75, 66
9, 16499, Note_on_c, 7, 75, 0
9, 16500, Note_on_c, 7, 77, 66
9, 16529, Note_on_c, 7, 77, 0
9, 16530, Note_on_c, 7, 74, 66
9, 16559, Note_on_c, 7, 74, 0
9, 16560, Note_on_c, 7, 67, 66
9, 16589, Note_on_c, 7, 67, 0
9, 16590, Note_on_c, 7, 74, 66
9, 16619, Note_on_c, 7, 74, 0
9, 16620, Note_on_c, 7, 77, 66
9, 16710, Note_on_c, 7, 77, 0
9, 16710, Note_on_c, 7, 74, 66
9, 16739, Note_on_c, 7, 74, 0
9, 16740, Note_on_c, 7, 71, 66
9, 16769, Note_on_c, 7, 71, 0
9, 16770, Note_on_c, 7, 67, 66
9, 16799, Note_on_c, 7, 67, 0
9, 16800, Note_on_c, 7, 75, 66
9, 16860, Note_on_c, 7, 75, 0
9, 16860, Note_on_c, 7, 72, 66
9, 16920, Note_on_c, 7, 72, 0
9, 16920, Note_on_c, 7, 67, 66
9, 16980, Note_on_c, 7, 67, 0
9, 16980, Note_on_c, 7, 79, 66
9, 17100, Note_on_c, 7, 79, 0
9, 17100, Note_on_c, 7, 74, 66
9, 17129, Note_on_c, 7, 74, 0
9, 17130, Note_on_c, 7, 70, 66
9, 17159, Note_on_c, 7, 70, 0
9, 17160, Note_on_c, 7, 67, 66
9, 17340, Note_on_c, 7, 67, 0
9, 17340, Note_on_c, 7, 63, 66
9, 17400, Note_on_c, 7, 63, 0
9, 17400, Note_on_c, 7, 60, 66
9, 17460, Note_on_c, 7, 60, 0
9, 17460, Note_on_c, 7, 72, 66
9, 17580, Note_on_c, 7, 72, 0
9, 17580, Note_on_c, 7, 69, 66
9, 17609, Note_on_c, 7, 69, 0
9, 17610, Note_on_c, 7, 66, 66
9, 17639, Note_on_c, 7, 66, 0
9, 17640, Note_on_c, 7, 62, 66
9, 17669, Note_on_c, 7, 62, 0
9, 17670, Note_on_c, 7, 60, 66
9, 17699, Note_on_c, 7, 60, 0
9, 17700, Note_on_c, 7, 58, 66
9, 17729, Note_on_c, 7, 58, 0
9, 17730, Note_on_c, 7, 57, 66
9, 17759, Note_on_c, 7, 57, 0
9, 17760, Note_on_c, 7, 58, 66
9, 17790, Note_on_c, 7, 58, 0
9, 17820, Note_on_c, 7, 74, 66
9, 17850, Note_on_c, 7, 74, 0
9, 17880, Note_on_c, 7, 57, 66
9, 17910, Note_on_c, 7, 57, 0
9, 17940, Note_on_c, 7, 72, 66
9, 17970, Note_on_c, 7, 72, 0
9, 18000, Note_on_c, 7, 55, 66
9, 18030, Note_on_c, 7, 55, 0
9, 18030, Note_on_c, 7, 72, 66
9, 18060, Note_on_c, 7, 72, 0
9, 18060, Note_on_c, 7, 70, 66
9, 18090, Note_on_c, 7, 70, 0
9, 18090, Note_on_c, 7, 69, 66
9, 18120, Note_on_c, 7, 69, 0
9, 18120, Note_on_c, 7, 67, 66
9, 18150, Note_on_c, 7, 67, 0
9, 18150, Note_on_c, 7, 65, 66
9, 18180, Note_on_c, 7, 65, 0
9, 18180, Note_on_c, 7, 63, 66
9, 18210, Note_on_c, 7, 63, 0
9, 18210, Note_on_c, 7, 62, 66
9, 18240, Note_on_c, 7, 62, 0
9, 18240, Note_on_c, 7, 63, 66
9, 18270, Note_on_c, 7, 63, 0
9, 18300, Note_on_c, 7, 79, 66
9, 18330, Note_on_c, 7, 79, 0
9, 18360, Note_on_c, 7, 62, 66
9, 18390, Note_on_c, 7, 62, 0
9, 18420, Note_on_c, 7, 77, 66
9, 18450, Note_on_c, 7, 77, 0
9, 18480, Note_on_c, 7, 60, 66
9, 18510, Note_on_c, 7, 60, 0
9, 18510, Note_on_c, 7, 77, 66
9, 18540, Note_on_c, 7, 77, 0
9, 18540, Note_on_c, 7, 75, 66
9, 18570, Note_on_c, 7, 75, 0
9, 18570, Note_on_c, 7, 74, 66
9, 18600, Note_on_c, 7, 74, 0
9, 18600, Note_on_c, 7, 72, 66
9, 18630, Note_on_c, 7, 72, 0
9, 18630, Note_on_c, 7, 70, 66
9, 18660, Note_on_c, 7, 70, 0
9, 18660, Note_on_c, 7, 69, 66
9, 18690, Note_on_c, 7, 69, 0
9, 18690, Note_on_c, 7, 67, 66
9, 18720, Note_on_c, 7, 67, 0
9, 18720, Note_on_c, 7, 69, 66
9, 18750, Note_on_c, 7, 69, 0
9, 18750, Note_on_c, 7, 75, 66
9, 18780, Note_on_c, 7, 75, 0
9, 18780, Note_on_c, 7, 74, 66
9, 18810, Note_on_c, 7, 74, 0
9, 18810, Note_on_c, 7, 72, 66
9, 18840, Note_on_c, 7, 72, 0
9, 18840, Note_on_c, 7, 74, 66
9, 18870, Note_on_c, 7, 74, 0
9, 18870, Note_on_c, 7, 69, 66
9, 18900, Note_on_c, 7, 69, 0
9, 18900, Note_on_c, 7, 67, 66
9, 18930, Note_on_c, 7, 67, 0
9, 18930, Note_on_c, 7, 66, 66
9, 18960, Note_on_c, 7, 66, 0
9, 18960, Note_on_c, 7, 67, 66
9, 18990, Note_on_c, 7, 67, 0
9, 18990, Note_on_c, 7, 74, 66
9, 19020, Note_on_c, 7, 74, 0
9, 19020, Note_on_c, 7, 72, 66
9, 19050, Note_on_c, 7, 72, 0
9, 19050, Note_on_c, 7, 70, 66
9, 19080, Note_on_c, 7, 70, 0
9, 19080, Note_on_c, 7, 72, 66
9, 19110, Note_on_c, 7, 72, 0
9, 19110, Note_on_c, 7, 67, 66
9, 19140, Note_on_c, 7, 67, 0
9, 19140, Note_on_c, 7, 66, 66
9, 19170, Note_on_c, 7, 66, 0
9, 19170, Note_on_c, 7, 64, 66
9, 19200, Note_on_c, 7, 64, 0
9, 19200, Note_on_c, 7, 66, 66
9, 19230, Note_on_c, 7, 66, 0
9, 19230, Note_on_c, 7, 72, 66
9, 19260, Note_on_c, 7, 72, 0
9, 19260, Note_on_c, 7, 70, 66
9, 19290, Note_on_c, 7, 70, 0
9, 19290, Note_on_c, 7, 69, 66
9, 19320, Note_on_c, 7, 69, 0
9, 19320, Note_on_c, 7, 70, 66
9, 19350, Note_on_c, 7, 70, 0
9, 19350, Note_on_c, 7, 69, 66
9, 19380, Note_on_c, 7, 69, 0
9, 19380, Note_on_c, 7, 67, 66
9, 19410, Note_on_c, 7, 67, 0
9, 19410, Note_on_c, 7, 70, 66
9, 19440, Note_on_c, 7, 70, 0
9, 19440, Note_on_c, 7, 69, 66
9, 19470, Note_on_c, 7, 69, 0
9, 19470, Note_on_c, 7, 67, 66
9, 19500, Note_on_c, 7, 67, 0
9, 19500, Note_on_c, 7, 66, 66
9, 19530, Note_on_c, 7, 66, 0
9, 19530, Note_on_c, 7, 64, 66
9, 19560, Note_on_c, 7, 64, 0
9, 19560, Note_on_c, 7, 62, 66
9, 19710, Note_on_c, 7, 62, 0
9, 19710, Note_on_c, 7, 58, 66
9, 19740, Note_on_c, 7, 58, 0
9, 19740, Note_on_c, 7, 55, 66
9, 19770, Note_on_c, 7, 55, 0
9, 19770, Note_on_c, 7, 58, 66
9, 19800, Note_on_c, 7, 58, 0
9, 19800, Note_on_c, 7, 60, 66
9, 19830, Note_on_c, 7, 60, 0
9, 19830, Note_on_c, 7, 57, 66
9, 19860, Note_on_c, 7, 57, 0
9, 19860, Note_on_c, 7, 54, 66
9, 19890, Note_on_c, 7, 54, 0
9, 19890, Note_on_c, 7, 57, 66
9, 19920, Note_on_c, 7, 57, 0
9, 19920, Note_on_c, 7, 58, 66
9, 19950, Note_on_c, 7, 58, 0
9, 19980, Note_on_c, 7, 55, 66
9, 20010, Note_on_c, 7, 55, 0
9, 20040, Note_on_c, 7, 67, 66
9, 20190, Note_on_c, 7, 67, 0
9, 20190, Note_on_c, 7, 63, 66
9, 20220, Note_on_c, 7, 63, 0
9, 20220, Note_on_c, 7, 60, 66
9, 20250, Note_on_c, 7, 60, 0
9, 20250, Note_on_c, 7, 63, 66
9, 20280, Note_on_c, 7, 63, 0
9, 20280, Note_on_c, 7, 65, 66
9, 20310, Note_on_c, 7, 65, 0
9, 20310, Note_on_c, 7, 62, 66
9, 20340, Note_on_c, 7, 62, 0
9, 20340, Note_on_c, 7, 59, 66
9, 20370, Note_on_c, 7, 59, 0
9, 20370, Note_on_c, 7, 62, 66
9, 20400, Note_on_c, 7, 62, 0
9, 20400, Note_on_c, 7, 63, 66
9, 20430, Note_on_c, 7, 63, 0
9, 20460, Note_on_c, 7, 60, 66
9, 20490, Note_on_c, 7, 60, 0
9, 20520, Note_on_c, 7, 75, 66
9, 20670, Note_on_c, 7, 75, 0
9, 20670, Note_on_c, 7, 60, 66
9, 20700, Note_on_c, 7, 60, 0
9, 20700, Note_on_c, 7, 58, 66
9, 20730, Note_on_c, 7, 58, 0
9, 20730, Note_on_c, 7, 57, 66
9, 20760, Note_on_c, 7, 57, 0
9, 20760, Note_on_c, 7, 58, 66
9, 20820, Note_on_c, 7, 58, 0
9, 20820, Note_on_c, 7, 74, 66
9, 20910, Note_on_c, 7, 74, 0
9, 20910, Note_on_c, 7, 58, 66
9, 20940, Note_on_c, 7, 58, 0
9, 20940, Note_on_c, 7, 57, 66
9, 20970, Note_on_c, 7, 57, 0
9, 20970, Note_on_c, 7, 55, 66
9, 21000, Note_on_c, 7, 55, 0
9, 21000, Note_on_c, 7, 57, 66
9, 21060, Note_on_c, 7, 57, 0
9, 21060, Note_on_c, 7, 72, 66
9, 21150, Note_on_c, 7, 72, 0
9, 21150, Note_on_c, 7, 57, 66
9, 21180, Note_on_c, 7, 57, 0
9, 21180, Note_on_c, 7, 55, 66
9, 21210, Note_on_c, 7, 55, 0
9, 21210, Note_on_c, 7, 54, 66
9, 21240, Note_on_c, 7, 54, 0
9, 21240, Note_on_c, 7, 55, 66
9, 21300, Note_on_c, 7, 55, 0
9, 21300, Note_on_c, 7, 67, 66
9, 21390, Note_on_c, 7, 67, 0
9, 21390, Note_on_c, 7, 70, 66
9, 21420, Note_on_c, 7, 70, 0
9, 21420, Note_on_c, 7, 69, 66
9, 21450, Note_on_c, 7, 69, 0
9, 21450, Note_on_c, 7, 67, 66
9, 21480, Note_on_c, 7, 67, 0
9, 21480, Note_on_c, 7, 69, 66
9, 21510, Note_on_c, 7, 69, 0
9, 21510, Note_on_c, 7, 72, 66
9, 21540, Note_on_c, 7, 72, 0
9, 21540, Note_on_c, 7, 70, 66
9, 21570, Note_on_c, 7, 70, 0
9, 21570, Note_on_c, 7, 69, 66
9, 21600, Note_on_c, 7, 69, 0
9, 21600, Note_on_c, 7, 70, 66
9, 21630, Note_on_c, 7, 70, 0
9, 21630, Note_on_c, 7, 69, 66
9, 21660, Note_on_c, 7, 69, 0
9, 21660, Note_on_c, 7, 67, 66
9, 21690, Note_on_c, 7, 67, 0
9, 21690, Note_on_c, 7, 69, 66
9, 21720, Note_on_c, 7, 69, 0
9, 21720, Note_on_c, 7, 70, 66
9, 21750, Note_on_c, 7, 70, 0
9, 21750, Note_on_c, 7, 69, 66
9, 21780, Note_on_c, 7, 69, 0
9, 21780, Note_on_c, 7, 70, 66
9, 21810, Note_on_c, 7, 70, 0
9, 21810, Note_on_c, 7, 72, 66
9, 21840, Note_on_c, 7, 72, 0
9, 21840, Note_on_c, 7, 74, 66
9, 21900, Note_on_c, 7, 74, 0
9, 21900, Note_on_c, 7, 69, 66
9, 21960, Note_on_c, 7, 69, 0
9, 21960, Note_on_c, 7, 74, 66
9, 22110, Note_on_c, 7, 74, 0
9, 22110, Note_on_c, 7, 72, 66
9, 22140, Note_on_c, 7, 72, 0
9, 22140, Note_on_c, 7, 71, 66
9, 22170, Note_on_c, 7, 71, 0
9, 22170, Note_on_c, 7, 69, 66
9, 22200, Note_on_c, 7, 69, 0
9, 22200, Note_on_c, 7, 71, 66
9, 22230, Note_on_c, 7, 71, 0
9, 22230, Note_on_c, 7, 67, 66
9, 22260, Note_on_c, 7, 67, 0
9, 22260, Note_on_c, 7, 69, 66
9, 22290, Note_on_c, 7, 69, 0
9, 22290, Note_on_c, 7, 71, 66
9, 22320, Note_on_c, 7, 71, 0
9, 22320, Note_on_c, 7, 72, 66
9, 22380, Note_on_c, 7, 72, 0
9, 22380, Note_on_c, 7, 67, 66
9, 22440, Note_on_c, 7, 67, 0
9, 22440, Note_on_c, 7, 72, 66
9, 22590, Note_on_c, 7, 72, 0
9, 22590, Note_on_c, 7, 70, 66
9, 22620, Note_on_c, 7, 70, 0
9, 22620, Note_on_c, 7, 69, 66
9, 22650, Note_on_c, 7, 69, 0
9, 22650, Note_on_c, 7, 70, 66
9, 22680, Note_on_c, 7, 70, 0
9, 22680, Note_on_c, 7, 72, 66
9, 22710, Note_on_c, 7, 72, 0
9, 22710, Note_on_c, 7, 74, 66
9, 22740, Note_on_c, 7, 74, 0
9, 22740, Note_on_c, 7, 75, 66
9, 22770, Note_on_c, 7, 75, 0
9, 22770, Note_on_c, 7, 72, 66
9, 22800, Note_on_c, 7, 72, 0
9, 22800, Note_on_c, 7, 74, 66
9, 22830, Note_on_c, 7, 74, 0
9, 22830, Note_on_c, 7, 75, 66
9, 22860, Note_on_c, 7, 75, 0
9, 22860, Note_on_c, 7, 74, 66
9, 22890, Note_on_c, 7, 74, 0
9, 22890, Note_on_c, 7, 72, 66
9, 22920, Note_on_c, 7, 72, 0
9, 22920, Note_on_c, 7, 70, 66
9, 22950, Note_on_c, 7, 70, 0
9, 22950, Note_on_c, 7, 69, 66
9, 22980, Note_on_c, 7, 69, 0
9, 22980, Note_on_c, 7, 67, 66
9, 23010, Note_on_c, 7, 67, 0
9, 23010, Note_on_c, 7, 66, 66
9, 23040, Note_on_c, 7, 66, 0
9, 23040, Note_on_c, 7, 67, 66
9, 23100, Note_on_c, 7, 67, 0
9, 23100, Note_on_c, 7, 79, 66
9, 23220, Note_on_c, 7, 79, 0
9, 23220, Note_on_c, 7, 78, 66
9, 23280, Note_on_c, 7, 78, 0
9, 23280, Note_on_c, 7, 79, 66
9, 23340, Note_on_c, 7, 79, 0
9, 23340, Note_on_c, 7, 77, 66
9, 23370, Note_on_c, 7, 77, 0
9, 23370, Note_on_c, 7, 75, 66
9, 23400, Note_on_c, 7, 75, 0
9, 23400, Note_on_c, 7, 74, 66
9, 23430, Note_on_c, 7, 74, 0
9, 23430, Note_on_c, 7, 72, 66
9, 23460, Note_on_c, 7, 72, 0
9, 23460, Note_on_c, 7, 70, 66
9, 23490, Note_on_c, 7, 70, 0
9, 23490, Note_on_c, 7, 69, 66
9, 23520, Note_on_c, 7, 69, 0
9, 23520, Note_on_c, 7, 67, 66
9, 23550, Note_on_c, 7, 67, 0
9, 23550, Note_on_c, 7, 70, 66
9, 23580, Note_on_c, 7, 70, 0
9, 23580, Note_on_c, 7, 74, 66
9, 23610, Note_on_c, 7, 74, 0
9, 23610, Note_on_c, 7, 79, 66
9, 23640, Note_on_c, 7, 79, 0
9, 23640, Note_on_c, 7, 69, 66
9, 23670, Note_on_c, 7, 69, 0
9, 23670, Note_on_c, 7, 72, 66
9, 23700, Note_on_c, 7, 72, 0
9, 23700, Note_on_c, 7, 74, 66
9, 23730, Note_on_c, 7, 74, 0
9, 23730, Note_on_c, 7, 78, 66
9, 23760, Note_on_c, 7, 78, 0
9, 23760, Note_on_c, 7, 79, 66
9, 23790, Note_on_c, 7, 79, 0
9, 23790, Note_on_c, 7, 74, 66
9, 23820, Note_on_c, 7, 74, 0
9, 23820, Note_on_c, 7, 70, 66
9, 23850, Note_on_c, 7, 70, 0
9, 23850, Note_on_c, 7, 67, 66
9, 23880, Note_on_c, 7, 67, 0
9, 23880, Note_on_c, 7, 66, 66
9, 23910, Note_on_c, 7, 66, 0
9, 23910, Note_on_c, 7, 69, 66
9, 23940, Note_on_c, 7, 69, 0
9, 23940, Note_on_c, 7, 72, 66
9, 23970, Note_on_c, 7, 72, 0
9, 23970, Note_on_c, 7, 74, 66
9, 24000, Note_on_c, 7, 74, 0
9, 24000, Note_on_c, 7, 67, 66
9, 24030, Note_on_c, 7, 67, 0
9, 24030, Note_on_c, 7, 70, 66
9, 24060, Note_on_c, 7, 70, 0
9, 24060, Note_on_c, 7, 74, 66
9, 24090, Note_on_c, 7, 74, 0
9, 24090, Note_on_c, 7, 79, 66
9, 24120, Note_on_c, 7, 79, 0
9, 24120, Note_on_c, 7, 69, 66
9, 24150, Note_on_c, 7, 69, 0
9, 24150, Note_on_c, 7, 72, 66
9, 24180, Note_on_c, 7, 72, 0
9, 24180, Note_on_c, 7, 74, 66
9, 24210, Note_on_c, 7, 74, 0
9, 24210, Note_on_c, 7, 78, 66
9, 24240, Note_on_c, 7, 78, 0
9, 24240, Note_on_c, 7, 79, 66
9, 24270, Note_on_c, 7, 79, 0
9, 24270, Note_on_c, 7, 74, 66
9, 24300, Note_on_c, 7, 74, 0
9, 24300, Note_on_c, 7, 70, 66
9, 24330, Note_on_c, 7, 70, 0
9, 24330, Note_on_c, 7, 67, 66
9, 24360, Note_on_c, 7, 67, 0
9, 24390, Note_on_c, 7, 68, 66
9, 24420, Note_on_c, 7, 68, 0
9, 24420, Note_on_c, 7, 67, 66
9, 24450, Note_on_c, 7, 67, 0
9, 24450, Note_on_c, 7, 65, 66
9, 24480, Note_on_c, 7, 65, 0
9, 24480, Note_on_c, 7, 63, 66
9, 24510, Note_on_c, 7, 63, 0
9, 24540, Note_on_c, 7, 72, 66
9, 24570, Note_on_c, 7, 72, 0
9, 24600, Note_on_c, 7, 65, 66
9, 24630, Note_on_c, 7, 65, 0
9, 24660, Note_on_c, 7, 74, 66
9, 24690, Note_on_c, 7, 74, 0
9, 24720, Note_on_c, 7, 63, 66
9, 24750, Note_on_c, 7, 63, 0
9, 24780, Note_on_c, 7, 72, 66
9, 24810, Note_on_c, 7, 72, 0
9, 24840, Note_on_c, 7, 62, 66
9, 24870, Note_on_c, 7, 62, 0
9, 24900, Note_on_c, 7, 71, 66
9, 24930, Note_on_c, 7, 71, 0
9, 24960, Note_on_c, 7, 63, 66
9, 24990, Note_on_c, 7, 63, 0
9, 25020, Note_on_c, 7, 72, 66
9, 25050, Note_on_c, 7, 72, 0
9, 25080, Note_on_c, 7, 67, 66
9, 25110, Note_on_c, 7, 67, 0
9, 25140, Note_on_c, 7, 74, 66
9, 25170, Note_on_c, 7, 74, 0
9, 25200, Note_on_c, 7, 75, 66
9, 25230, Note_on_c, 7, 75, 0
9, 25260, Note_on_c, 7, 72, 66
9, 25290, Note_on_c, 7, 72, 0
9, 25380, Note_on_c, 7, 72, 66
9, 25500, Note_on_c, 7, 72, 0
9, 25500, Note_on_c, 7, 70, 66
9, 25530, Note_on_c, 7, 70, 0
9, 25530, Note_on_c, 7, 69, 66
9, 25560, Note_on_c, 7, 69, 0
9, 25560, Note_on_c, 7, 70, 66
9, 25740, Note_on_c, 7, 70, 0
9, 25740, Note_on_c, 7, 67, 66
9, 25800, Note_on_c, 7, 67, 0
9, 25800, Note_on_c, 7, 60, 66
9, 25860, Note_on_c, 7, 60, 0
9, 25860, Note_on_c, 7, 70, 66
9, 25920, Note_on_c, 7, 70, 0
9, 25920, Note_on_c, 7, 68, 66
9, 25949, Note_on_c, 7, 68, 0
9, 25950, Note_on_c, 7, 67, 66
9, 25979, Note_on_c, 7, 67, 0
9, 25980, Note_on_c, 7, 65, 66
9, 26009, Note_on_c, 7, 65, 0
9, 26010, Note_on_c, 7, 67, 66
9, 26039, Note_on_c, 7, 67, 0
9, 26040, Note_on_c, 7, 68, 66
9, 26069, Note_on_c, 7, 68, 0
9, 26070, Note_on_c, 7, 67, 66
9, 26099, Note_on_c, 7, 67, 0
9, 26100, Note_on_c, 7, 68, 66
9, 26129, Note_on_c, 7, 68, 0
9, 26130, Note_on_c, 7, 70, 66
9, 26159, Note_on_c, 7, 70, 0
9, 26160, Note_on_c, 7, 72, 66
9, 26220, Note_on_c, 7, 72, 0
9, 26220, Note_on_c, 7, 67, 66
9, 26280, Note_on_c, 7, 67, 0
9, 26280, Note_on_c, 7, 72, 66
9, 26430, Note_on_c, 7, 72, 0
9, 26430, Note_on_c, 7, 70, 66
9, 26459, Note_on_c, 7, 70, 0
9, 26460, Note_on_c, 7, 69, 66
9, 26489, Note_on_c, 7, 69, 0
9, 26490, Note_on_c, 7, 67, 66
9, 26519, Note_on_c, 7, 67, 0
9, 26520, Note_on_c, 7, 69, 66
9, 26549, Note_on_c, 7, 69, 0
9, 26550, Note_on_c, 7, 65, 66
9, 26579, Note_on_c, 7, 65, 0
9, 26580, Note_on_c, 7, 67, 66
9, 26609, Note_on_c, 7, 67, 0
9, 26610, Note_on_c, 7, 69, 66
9, 26639, Note_on_c, 7, 69, 0
9, 26640, Note_on_c, 7, 70, 66
9, 26700, Note_on_c, 7, 70, 0
9, 26700, Note_on_c, 7, 65, 66
9, 26760, Note_on_c, 7, 65, 0
9, 26760, Note_on_c, 7, 70, 66
9, 26910, Note_on_c, 7, 70, 0
9, 26910, Note_on_c, 7, 68, 66
9, 26939, Note_on_c, 7, 68, 0
9, 26940, Note_on_c, 7, 67, 66
9, 26969, Note_on_c, 7, 67, 0
9, 26970, Note_on_c, 7, 68, 66
9, 26999, Note_on_c, 7, 68, 0
9, 27000, Note_on_c, 7, 70, 66
9, 27029, Note_on_c, 7, 70, 0
9, 27030, Note_on_c, 7, 72, 66
9, 27059, Note_on_c, 7, 72, 0
9, 27060, Note_on_c, 7, 73, 66
9, 27089, Note_on_c, 7, 73, 0
9, 27090, Note_on_c, 7, 70, 66
9, 27119, Note_on_c, 7, 70, 0
9, 27120, Note_on_c, 7, 72, 66
9, 27149, Note_on_c, 7, 72, 0
9, 27150, Note_on_c, 7, 73, 66
9, 27179, Note_on_c, 7, 73, 0
9, 27180, Note_on_c, 7, 72, 66
9, 27209, Note_on_c, 7, 72, 0
9, 27210, Note_on_c, 7, 70, 66
9, 27239, Note_on_c, 7, 70, 0
9, 27240, Note_on_c, 7, 68, 66
9, 27269, Note_on_c, 7, 68, 0
9, 27270, Note_on_c, 7, 67, 66
9, 27299, Note_on_c, 7, 67, 0
9, 27300, Note_on_c, 7, 65, 66
9, 27329, Note_on_c, 7, 65, 0
9, 27330, Note_on_c, 7, 64, 66
9, 27359, Note_on_c, 7, 64, 0
9, 27360, Note_on_c, 7, 65, 66
9, 27419, Note_on_c, 7, 65, 0
9, 27420, Note_on_c, 7, 77, 66
9, 27539, Note_on_c, 7, 77, 0
9, 27540, Note_on_c, 7, 76, 66
9, 27599, Note_on_c, 7, 76, 0
9, 27600, Note_on_c, 7, 77, 66
9, 27719, Note_on_c, 7, 77, 0
9, 27750, Note_on_c, 7, 61, 66
9, 27779, Note_on_c, 7, 61, 0
9, 27780, Note_on_c, 7, 60, 66
9, 27809, Note_on_c, 7, 60, 0
9, 27810, Note_on_c, 7, 58, 66
9, 27839, Note_on_c, 7, 58, 0
9, 27840, Note_on_c, 7, 56, 66
9, 27869, Note_on_c, 7, 56, 0
9, 27900, Note_on_c, 7, 65, 66
9, 27929, Note_on_c, 7, 65, 0
9, 27960, Note_on_c, 7, 58, 66
9, 27989, Note_on_c, 7, 58, 0
9, 28020, Note_on_c, 7, 67, 66
9, 28049, Note_on_c, 7, 67, 0
9, 28080, Note_on_c, 7, 56, 66
9, 28109, Note_on_c, 7, 56, 0
9, 28140, Note_on_c, 7, 65, 66
9, 28169, Note_on_c, 7, 65, 0
9, 28200, Note_on_c, 7, 55, 66
9, 28229, Note_on_c, 7, 55, 0
9, 28260, Note_on_c, 7, 64, 66
9, 28289, Note_on_c, 7, 64, 0
9, 28320, Note_on_c, 7, 56, 66
9, 28349, Note_on_c, 7, 56, 0
9, 28380, Note_on_c, 7, 65, 66
9, 28409, Note_on_c, 7, 65, 0
9, 28440, Note_on_c, 7, 60, 66
9, 28469, Note_on_c, 7, 60, 0
9, 28500, Note_on_c, 7, 67, 66
9, 28529, Note_on_c, 7, 67, 0
9, 28560, Note_on_c, 7, 68, 66
9, 28589, Note_on_c, 7, 68, 0
9, 28620, Note_on_c, 7, 65, 66
9, 28649, Note_on_c, 7, 65, 0
9, 28710, Note_on_c, 7, 72, 66
9, 28710, Note_on_c, 7, 75, 66
9, 28739, Note_on_c, 7, 75, 0
9, 28739, Note_on_c, 7, 72, 0
9, 28740, Note_on_c, 7, 70, 66
9, 28740, Note_on_c, 7, 73, 66
9, 28769, Note_on_c, 7, 73, 0
9, 28769, Note_on_c, 7, 70, 0
9, 28770, Note_on_c, 7, 69, 66
9, 28770, Note_on_c, 7, 72, 66
9, 28799, Note_on_c, 7, 72, 0
9, 28799, Note_on_c, 7, 69, 0
9, 28800, Note_on_c, 7, 70, 66
9, 28829, Note_on_c, 7, 70, 0
9, 28830, Note_on_c, 7, 73, 66
9, 28859, Note_on_c, 7, 73, 0
9, 28860, Note_on_c, 7, 77, 66
9, 28889, Note_on_c, 7, 77, 0
9, 28890, Note_on_c, 7, 82, 66
9, 28919, Note_on_c, 7, 82, 0
9, 28920, Note_on_c, 7, 72, 66
9, 28949, Note_on_c, 7, 72, 0
9, 28950, Note_on_c, 7, 75, 66
9, 28979, Note_on_c, 7, 75, 0
9, 28980, Note_on_c, 7, 77, 66
9, 29009, Note_on_c, 7, 77, 0
9, 29010, Note_on_c, 7, 81, 66
9, 29039, Note_on_c, 7, 81, 0
9, 29040, Note_on_c, 7, 82, 66
9, 29069, Note_on_c, 7, 82, 0
9, 29070, Note_on_c, 7, 77, 66
9, 29099, Note_on_c, 7, 77, 0
9, 29100, Note_on_c, 7, 73, 66
9, 29129, Note_on_c, 7, 73, 0
9, 29130, Note_on_c, 7, 70, 66
9, 29159, Note_on_c, 7, 70, 0
9, 29160, Note_on_c, 7, 69, 66
9, 29189, Note_on_c, 7, 69, 0
9, 29190, Note_on_c, 7, 72, 66
9, 29219, Note_on_c, 7, 72, 0
9, 29220, Note_on_c, 7, 75, 66
9, 29249, Note_on_c, 7, 75, 0
9, 29250, Note_on_c, 7, 77, 66
9, 29279, Note_on_c, 7, 77, 0
9, 29280, Note_on_c, 7, 70, 66
9, 29309, Note_on_c, 7, 70, 0
9, 29310, Note_on_c, 7, 73, 66
9, 29339, Note_on_c, 7, 73, 0
9, 29340, Note_on_c, 7, 77, 66
9, 29369, Note_on_c, 7, 77, 0
9, 29370, Note_on_c, 7, 82, 66
9, 29399, Note_on_c, 7, 82, 0
9, 29400, Note_on_c, 7, 72, 66
9, 29429, Note_on_c, 7, 72, 0
9, 29430, Note_on_c, 7, 75, 66
9, 29459, Note_on_c, 7, 75, 0
9, 29460, Note_on_c, 7, 77, 66
9, 29489, Note_on_c, 7, 77, 0
9, 29490, Note_on_c, 7, 81, 66
9, 29519, Note_on_c, 7, 81, 0
9, 29520, Note_on_c, 7, 82, 66
9, 29549, Note_on_c, 7, 82, 0
9, 29550, Note_on_c, 7, 77, 66
9, 29579, Note_on_c, 7, 77, 0
9, 29580, Note_on_c, 7, 73, 66
9, 29609, Note_on_c, 7, 73, 0
9, 29610, Note_on_c, 7, 70, 66
9, 29639, Note_on_c, 7, 70, 0
9, 29640, Note_on_c, 7, 58, 66
9, 29699, Note_on_c, 7, 58, 0
9, 29700, Note_on_c, 7, 73, 66
9, 29819, Note_on_c, 7, 73, 0
9, 29820, Note_on_c, 7, 63, 66
9, 29879, Note_on_c, 7, 63, 0
9, 29880, Note_on_c, 7, 73, 66
9, 30059, Note_on_c, 7, 73, 0
9, 30060, Note_on_c, 7, 63, 66
9, 30119, Note_on_c, 7, 63, 0
9, 30120, Note_on_c, 7, 56, 66
9, 30179, Note_on_c, 7, 56, 0
9, 30180, Note_on_c, 7, 72, 66
9, 30299, Note_on_c, 7, 72, 0
9, 30300, Note_on_c, 7, 60, 66
9, 30359, Note_on_c, 7, 60, 0
9, 30360, Note_on_c, 7, 70, 66
9, 30539, Note_on_c, 7, 70, 0
9, 30540, Note_on_c, 7, 60, 66
9, 30599, Note_on_c, 7, 60, 0
9, 30600, Note_on_c, 7, 53, 66
9, 30629, Note_on_c, 7, 53, 0
9, 30630, Note_on_c, 7, 56, 66
9, 30659, Note_on_c, 7, 56, 0
9, 30660, Note_on_c, 7, 55, 66
9, 30689, Note_on_c, 7, 55, 0
9, 30690, Note_on_c, 7, 57, 66
9, 30719, Note_on_c, 7, 57, 0
9, 30720, Note_on_c, 7, 59, 66
9, 30749, Note_on_c, 7, 59, 0
9, 30750, Note_on_c, 7, 57, 66
9, 30779, Note_on_c, 7, 57, 0
9, 30780, Note_on_c, 7, 59, 66
9, 30809, Note_on_c, 7, 59, 0
9, 30810, Note_on_c, 7, 60, 66
9, 30839, Note_on_c, 7, 60, 0
9, 30840, Note_on_c, 7, 59, 66
9, 30869, Note_on_c, 7, 59, 0
9, 30870, Note_on_c, 7, 60, 66
9, 30899, Note_on_c, 7, 60, 0
9, 30900, Note_on_c, 7, 62, 66
9, 30929, Note_on_c, 7, 62, 0
9, 30930, Note_on_c, 7, 59, 66
9, 30959, Note_on_c, 7, 59, 0
9, 30960, Note_on_c, 7, 60, 66
9, 30989, Note_on_c, 7, 60, 0
9, 30990, Note_on_c, 7, 59, 66
9, 31019, Note_on_c, 7, 59, 0
9, 31020, Note_on_c, 7, 60, 66
9, 31049, Note_on_c, 7, 60, 0
9, 31050, Note_on_c, 7, 62, 66
9, 31079, Note_on_c, 7, 62, 0
9, 31080, Note_on_c, 7, 63, 66
9, 31109, Note_on_c, 7, 63, 0
9, 31110, Note_on_c, 7, 62, 66
9, 31139, Note_on_c, 7, 62, 0
9, 31140, Note_on_c, 7, 63, 66
9, 31169, Note_on_c, 7, 63, 0
9, 31170, Note_on_c, 7, 65, 66
9, 31199, Note_on_c, 7, 65, 0
9, 31200, Note_on_c, 7, 67, 66
9, 31229, Note_on_c, 7, 67, 0
9, 31230, Note_on_c, 7, 65, 66
9, 31259, Note_on_c, 7, 65, 0
9, 31260, Note_on_c, 7, 67, 66
9, 31289, Note_on_c, 7, 67, 0
9, 31290, Note_on_c, 7, 68, 66
9, 31319, Note_on_c, 7, 68, 0
9, 31320, Note_on_c, 7, 67, 66
9, 31349, Note_on_c, 7, 67, 0
9, 31350, Note_on_c, 7, 68, 66
9, 31379, Note_on_c, 7, 68, 0
9, 31380, Note_on_c, 7, 70, 66
9, 31409, Note_on_c, 7, 70, 0
9, 31410, Note_on_c, 7, 67, 66
9, 31439, Note_on_c, 7, 67, 0
9, 31440, Note_on_c, 7, 68, 66
9, 31469, Note_on_c, 7, 68, 0
9, 31470, Note_on_c, 7, 61, 66
9, 31499, Note_on_c, 7, 61, 0
9, 31500, Note_on_c, 7, 60, 66
9, 31529, Note_on_c, 7, 60, 0
9, 31530, Note_on_c, 7, 58, 66
9, 31559, Note_on_c, 7, 58, 0
9, 31560, Note_on_c, 7, 60, 66
9, 31589, Note_on_c, 7, 60, 0
9, 31590, Note_on_c, 7, 63, 66
9, 31619, Note_on_c, 7, 63, 0
9, 31620, Note_on_c, 7, 68, 66
9, 31739, Note_on_c, 7, 68, 0
9, 31740, Note_on_c, 7, 68, 66
9, 31799, Note_on_c, 7, 68, 0
9, 31800, Note_on_c, 7, 65, 66
9, 31859, Note_on_c, 7, 65, 0
9, 31860, Note_on_c, 7, 74, 66
9, 31979, Note_on_c, 7, 74, 0
9, 31980, Note_on_c, 7, 67, 66
9, 32039, Note_on_c, 7, 67, 0
9, 32040, Note_on_c, 7, 63, 66
9, 32099, Note_on_c, 7, 63, 0
9, 32100, Note_on_c, 7, 72, 66
9, 32219, Note_on_c, 7, 72, 0
9, 32220, Note_on_c, 7, 65, 66
9, 32279, Note_on_c, 7, 65, 0
9, 32280, Note_on_c, 7, 62, 66
9, 32339, Note_on_c, 7, 62, 0
9, 32340, Note_on_c, 7, 71, 66
9, 32399, Note_on_c, 7, 71, 0
9, 32400, Note_on_c, 7, 72, 66
9, 32550, Note_on_c, 7, 72, 0
9, 32550, Note_on_c, 7, 70, 66
9, 32579, Note_on_c, 7, 70, 0
9, 32580, Note_on_c, 7, 68, 66
9, 32609, Note_on_c, 7, 68, 0
9, 32610, Note_on_c, 7, 67, 66
9, 32639, Note_on_c, 7, 67, 0
9, 32640, Note_on_c, 7, 68, 66
9, 32669, Note_on_c, 7, 68, 0
9, 32670, Note_on_c, 7, 60, 66
9, 32699, Note_on_c, 7, 60, 0
9, 32700, Note_on_c, 7, 62, 66
9, 32729, Note_on_c, 7, 62, 0
9, 32730, Note_on_c, 7, 64, 66
9, 32759, Note_on_c, 7, 64, 0
9, 32760, Note_on_c, 7, 65, 66
9, 32789, Note_on_c, 7, 65, 0
9, 32790, Note_on_c, 7, 67, 66
9, 32819, Note_on_c, 7, 67, 0
9, 32820, Note_on_c, 7, 68, 66
9, 32849, Note_on_c, 7, 68, 0
9, 32850, Note_on_c, 7, 65, 66
9, 32879, Note_on_c, 7, 65, 0
9, 32880, Note_on_c, 7, 58, 66
9, 32909, Note_on_c, 7, 58, 0
9, 32910, Note_on_c, 7, 65, 66
9, 32939, Note_on_c, 7, 65, 0
9, 32940, Note_on_c, 7, 68, 66
9, 33029, Note_on_c, 7, 68, 0
9, 33030, Note_on_c, 7, 65, 66
9, 33059, Note_on_c, 7, 65, 0
9, 33060, Note_on_c, 7, 62, 66
9, 33089, Note_on_c, 7, 62, 0
9, 33090, Note_on_c, 7, 58, 66
9, 33119, Note_on_c, 7, 58, 0
9, 33120, Note_on_c, 7, 67, 66
9, 33149, Note_on_c, 7, 67, 0
9, 33150, Note_on_c, 7, 58, 66
9, 33179, Note_on_c, 7, 58, 0
9, 33180, Note_on_c, 7, 60, 66
9, 33209, Note_on_c, 7, 60, 0
9, 33210, Note_on_c, 7, 62, 66
9, 33239, Note_on_c, 7, 62, 0
9, 33240, Note_on_c, 7, 63, 66
9, 33269, Note_on_c, 7, 63, 0
9, 33270, Note_on_c, 7, 65, 66
9, 33299, Note_on_c, 7, 65, 0
9, 33300, Note_on_c, 7, 67, 66
9, 33329, Note_on_c, 7, 67, 0
9, 33330, Note_on_c, 7, 63, 66
9, 33359, Note_on_c, 7, 63, 0
9, 33360, Note_on_c, 7, 56, 66
9, 33389, Note_on_c, 7, 56, 0
9, 33390, Note_on_c, 7, 63, 66
9, 33419, Note_on_c, 7, 63, 0
9, 33420, Note_on_c, 7, 66, 66
9, 33509, Note_on_c, 7, 66, 0
9, 33510, Note_on_c, 7, 63, 66
9, 33539, Note_on_c, 7, 63, 0
9, 33540, Note_on_c, 7, 60, 66
9, 33569, Note_on_c, 7, 60, 0
9, 33570, Note_on_c, 7, 56, 66
9, 33599, Note_on_c, 7, 56, 0
9, 33600, Note_on_c, 7, 65, 66
9, 33659, Note_on_c, 7, 65, 0
9, 33660, Note_on_c, 7, 70, 66
9, 33675, Note_on_c, 7, 70, 0
9, 33675, Note_on_c, 7, 68, 66
9, 33690, Note_on_c, 7, 68, 0
9, 33690, Note_on_c, 7, 67, 66
9, 33705, Note_on_c, 7, 67, 0
9, 33705, Note_on_c, 7, 68, 66
9, 33720, Note_on_c, 7, 68, 0
9, 33720, Note_on_c, 7, 70, 66
9, 33749, Note_on_c, 7, 70, 0
9, 33780, Note_on_c, 7, 65, 66
9, 33809, Note_on_c, 7, 65, 0
9, 33840, Note_on_c, 7, 67, 66
9, 33869, Note_on_c, 7, 67, 0
9, 33900, Note_on_c, 7, 72, 66
9, 33915, Note_on_c, 7, 72, 0
9, 33915, Note_on_c, 7, 70, 66
9, 33930, Note_on_c, 7, 70, 0
9, 33930, Note_on_c, 7, 68, 66
9, 33945, Note_on_c, 7, 68, 0
9, 33945, Note_on_c, 7, 70, 66
9, 33960, Note_on_c, 7, 70, 0
9, 33960, Note_on_c, 7, 72, 66
9, 33989, Note_on_c, 7, 72, 0
9, 34020, Note_on_c, 7, 67, 66
9, 34049, Note_on_c, 7, 67, 0
9, 34080, Note_on_c, 7, 68, 66
9, 34109, Note_on_c, 7, 68, 0
9, 34110, Note_on_c, 7, 70, 66
9, 34139, Note_on_c, 7, 70, 0
9, 34140, Note_on_c, 7, 68, 66
9, 34169, Note_on_c, 7, 68, 0
9, 34170, Note_on_c, 7, 67, 66
9, 34199, Note_on_c, 7, 67, 0
9, 34200, Note_on_c, 7, 65, 66
9, 34229, Note_on_c, 7, 65, 0
9, 34230, Note_on_c, 7, 63, 66
9, 34259, Note_on_c, 7, 63, 0
9, 34260, Note_on_c, 7, 61, 66
9, 34289, Note_on_c, 7, 61, 0
9, 34290, Note_on_c, 7, 60, 66
9, 34319, Note_on_c, 7, 60, 0
9, 34320, Note_on_c, 7, 58, 66
9, 34349, Note_on_c, 7, 58, 0
9, 34350, Note_on_c, 7, 72, 66
9, 34379, Note_on_c, 7, 72, 0
9, 34380, Note_on_c, 7, 70, 66
9, 34409, Note_on_c, 7, 70, 0
9, 34410, Note_on_c, 7, 68, 66
9, 34439, Note_on_c, 7, 68, 0
9, 34440, Note_on_c, 7, 67, 66
9, 34469, Note_on_c, 7, 67, 0
9, 34470, Note_on_c, 7, 65, 66
9, 34499, Note_on_c, 7, 65, 0
9, 34500, Note_on_c, 7, 63, 66
9, 34529, Note_on_c, 7, 63, 0
9, 34530, Note_on_c, 7, 61, 66
9, 34559, Note_on_c, 7, 61, 0
9, 34560, Note_on_c, 7, 60, 66
9, 34619, Note_on_c, 7, 60, 0
9, 34620, Note_on_c, 7, 68, 66
9, 34649, Note_on_c, 7, 68, 0
9, 34650, Note_on_c, 7, 70, 66
9, 34679, Note_on_c, 7, 70, 0
9, 34680, Note_on_c, 7, 72, 66
9, 34739, Note_on_c, 7, 72, 0
9, 34740, Note_on_c, 7, 68, 66
9, 34829, Note_on_c, 7, 68, 0
9, 34830, Note_on_c, 7, 67, 66
9, 34859, Note_on_c, 7, 67, 0
9, 34860, Note_on_c, 7, 65, 66
9, 34889, Note_on_c, 7, 65, 0
9, 34890, Note_on_c, 7, 63, 66
9, 34919, Note_on_c, 7, 63, 0
9, 34920, Note_on_c, 7, 62, 66
9, 34979, Note_on_c, 7, 62, 0
9, 34980, Note_on_c, 7, 74, 66
9, 35099, Note_on_c, 7, 74, 0
9, 35100, Note_on_c, 7, 67, 66
9, 35129, Note_on_c, 7, 67, 0
9, 35130, Note_on_c, 7, 68, 66
9, 35159, Note_on_c, 7, 68, 0
9, 35160, Note_on_c, 7, 70, 66
9, 35219, Note_on_c, 7, 70, 0
9, 35220, Note_on_c, 7, 67, 66
9, 35309, Note_on_c, 7, 67, 0
9, 35310, Note_on_c, 7, 65, 66
9, 35339, Note_on_c, 7, 65, 0
9, 35340, Note_on_c, 7, 64, 66
9, 35369, Note_on_c, 7, 64, 0
9, 35370, Note_on_c, 7, 62, 66
9, 35399, Note_on_c, 7, 62, 0
9, 35400, Note_on_c, 7, 60, 66
9, 35550, Note_on_c, 7, 60, 0
9, 35550, Note_on_c, 7, 65, 66
9, 35579, Note_on_c, 7, 65, 0
9, 35580, Note_on_c, 7, 68, 66
9, 35609, Note_on_c, 7, 68, 0
9, 35610, Note_on_c, 7, 72, 66
9, 35639, Note_on_c, 7, 72, 0
9, 35640, Note_on_c, 7, 77, 66
9, 35669, Note_on_c, 7, 77, 0
9, 35670, Note_on_c, 7, 72, 66
9, 35699, Note_on_c, 7, 72, 0
9, 35700, Note_on_c, 7, 68, 66
9, 35729, Note_on_c, 7, 68, 0
9, 35730, Note_on_c, 7, 65, 66
9, 35759, Note_on_c, 7, 65, 0
9, 35760, Note_on_c, 7, 60, 66
9, 35789, Note_on_c, 7, 60, 0
9, 35790, Note_on_c, 7, 63, 66
9, 35819, Note_on_c, 7, 63, 0
9, 35820, Note_on_c, 7, 67, 66
9, 35849, Note_on_c, 7, 67, 0
9, 35850, Note_on_c, 7, 72, 66
9, 35879, Note_on_c, 7, 72, 0
9, 35880, Note_on_c, 7, 75, 66
9, 35909, Note_on_c, 7, 75, 0
9, 35910, Note_on_c, 7, 72, 66
9, 35939, Note_on_c, 7, 72, 0
9, 35940, Note_on_c, 7, 67, 66
9, 35969, Note_on_c, 7, 67, 0
9, 35970, Note_on_c, 7, 63, 66
9, 35999, Note_on_c, 7, 63, 0
9, 36000, Note_on_c, 7, 60, 66
9, 36029, Note_on_c, 7, 60, 0
9, 36030, Note_on_c, 7, 62, 66
9, 36059, Note_on_c, 7, 62, 0
9, 36060, Note_on_c, 7, 65, 66
9, 36089, Note_on_c, 7, 65, 0
9, 36090, Note_on_c, 7, 68, 66
9, 36119, Note_on_c, 7, 68, 0
9, 36120, Note_on_c, 7, 74, 66
9, 36149, Note_on_c, 7, 74, 0
9, 36150, Note_on_c, 7, 68, 66
9, 36179, Note_on_c, 7, 68, 0
9, 36180, Note_on_c, 7, 65, 66
9, 36209, Note_on_c, 7, 65, 0
9, 36210, Note_on_c, 7, 60, 66
9, 36239, Note_on_c, 7, 60, 0
9, 36240, Note_on_c, 7, 59, 66
9, 36269, Note_on_c, 7, 59, 0
9, 36270, Note_on_c, 7, 62, 66
9, 36299, Note_on_c, 7, 62, 0
9, 36300, Note_on_c, 7, 65, 66
9, 36329, Note_on_c, 7, 65, 0
9, 36330, Note_on_c, 7, 67, 66
9, 36359, Note_on_c, 7, 67, 0
9, 36360, Note_on_c, 7, 74, 66
9, 36419, Note_on_c, 7, 74, 0
9, 38310, Note_on_c, 7, 65, 66
9, 38339, Note_on_c, 7, 65, 0
9, 38340, Note_on_c, 7, 63, 66
9, 38369, Note_on_c, 7, 63, 0
9, 38370, Note_on_c, 7, 62, 66
9, 38399, Note_on_c, 7, 62, 0
9, 38400, Note_on_c, 7, 63, 66
9, 38429, Note_on_c, 7, 63, 0
9, 38460, Note_on_c, 7, 79, 66
9, 38489, Note_on_c, 7, 79, 0
9, 38520, Note_on_c, 7, 62, 66
9, 38549, Note_on_c, 7, 62, 0
9, 38580, Note_on_c, 7, 77, 66
9, 38609, Note_on_c, 7, 77, 0
9, 38640, Note_on_c, 7, 60, 66
9, 38669, Note_on_c, 7, 60, 0
9, 38670, Note_on_c, 7, 77, 66
9, 38699, Note_on_c, 7, 77, 0
9, 38700, Note_on_c, 7, 75, 66
9, 38729, Note_on_c, 7, 75, 0
9, 38730, Note_on_c, 7, 74, 66
9, 38759, Note_on_c, 7, 74, 0
9, 38760, Note_on_c, 7, 72, 66
9, 38789, Note_on_c, 7, 72, 0
9, 38790, Note_on_c, 7, 70, 66
9, 38819, Note_on_c, 7, 70, 0
9, 38820, Note_on_c, 7, 68, 66
9, 38849, Note_on_c, 7, 68, 0
9, 38850, Note_on_c, 7, 67, 66
9, 38879, Note_on_c, 7, 67, 0
9, 38880, Note_on_c, 7, 68, 66
9, 38909, Note_on_c, 7, 68, 0
9, 38940, Note_on_c, 7, 84, 66
9, 38969, Note_on_c, 7, 84, 0
9, 39000, Note_on_c, 7, 67, 66
9, 39029, Note_on_c, 7, 67, 0
9, 39060, Note_on_c, 7, 82, 66
9, 39089, Note_on_c, 7, 82, 0
9, 39120, Note_on_c, 7, 65, 66
9, 39149, Note_on_c, 7, 65, 0
9, 39150, Note_on_c, 7, 82, 66
9, 39179, Note_on_c, 7, 82, 0
9, 39180, Note_on_c, 7, 80, 66
9, 39209, Note_on_c, 7, 80, 0
9, 39210, Note_on_c, 7, 79, 66
9, 39239, Note_on_c, 7, 79, 0
9, 39240, Note_on_c, 7, 77, 66
9, 39269, Note_on_c, 7, 77, 0
9, 39270, Note_on_c, 7, 75, 66
9, 39299, Note_on_c, 7, 75, 0
9, 39300, Note_on_c, 7, 74, 66
9, 39329, Note_on_c, 7, 74, 0
9, 39330, Note_on_c, 7, 72, 66
9, 39359, Note_on_c, 7, 72, 0
9, 39360, Note_on_c, 7, 74, 66
9, 39389, Note_on_c, 7, 74, 0
9, 39390, Note_on_c, 7, 80, 66
9, 39419, Note_on_c, 7, 80, 0
9, 39420, Note_on_c, 7, 79, 66
9, 39449, Note_on_c, 7, 79, 0
9, 39450, Note_on_c, 7, 77, 66
9, 39479, Note_on_c, 7, 77, 0
9, 39480, Note_on_c, 7, 79, 66
9, 39509, Note_on_c, 7, 79, 0
9, 39510, Note_on_c, 7, 74, 66
9, 39539, Note_on_c, 7, 74, 0
9, 39540, Note_on_c, 7, 72, 66
9, 39569, Note_on_c, 7, 72, 0
9, 39570, Note_on_c, 7, 71, 66
9, 39599, Note_on_c, 7, 71, 0
9, 39600, Note_on_c, 7, 72, 66
9, 39629, Note_on_c, 7, 72, 0
9, 39630, Note_on_c, 7, 79, 66
9, 39659, Note_on_c, 7, 79, 0
9, 39660, Note_on_c, 7, 77, 66
9, 39689, Note_on_c, 7, 77, 0
9, 39690, Note_on_c, 7, 75, 66
9, 39719, Note_on_c, 7, 75, 0
9, 39720, Note_on_c, 7, 77, 66
9, 39749, Note_on_c, 7, 77, 0
9, 39750, Note_on_c, 7, 72, 66
9, 39779, Note_on_c, 7, 72, 0
9, 39780, Note_on_c, 7, 71, 66
9, 39809, Note_on_c, 7, 71, 0
9, 39810, Note_on_c, 7, 69, 66
9, 39839, Note_on_c, 7, 69, 0
9, 39840, Note_on_c, 7, 71, 66
9, 39869, Note_on_c, 7, 71, 0
9, 39870, Note_on_c, 7, 77, 66
9, 39899, Note_on_c, 7, 77, 0
9, 39900, Note_on_c, 7, 75, 66
9, 39929, Note_on_c, 7, 75, 0
9, 39930, Note_on_c, 7, 74, 66
9, 39959, Note_on_c, 7, 74, 0
9, 39960, Note_on_c, 7, 75, 66
9, 39989, Note_on_c, 7, 75, 0
9, 39990, Note_on_c, 7, 74, 66
9, 40019, Note_on_c, 7, 74, 0
9, 40020, Note_on_c, 7, 72, 66
9, 40049, Note_on_c, 7, 72, 0
9, 40050, Note_on_c, 7, 75, 66
9, 40079, Note_on_c, 7, 75, 0
9, 40080, Note_on_c, 7, 74, 66
9, 40109, Note_on_c, 7, 74, 0
9, 40110, Note_on_c, 7, 72, 66
9, 40139, Note_on_c, 7, 72, 0
9, 40140, Note_on_c, 7, 71, 66
9, 40169, Note_on_c, 7, 71, 0
9, 40170, Note_on_c, 7, 69, 66
9, 40199, Note_on_c, 7, 69, 0
9, 40200, Note_on_c, 7, 67, 66
9, 40259, Note_on_c, 7, 67, 0
9, 40380, Note_on_c, 7, 67, 66
9, 40439, Note_on_c, 7, 67, 0
9, 40440, Note_on_c, 7, 72, 66
9, 40499, Note_on_c, 7, 72, 0
9, 40500, Note_on_c, 7, 75, 66
9, 40559, Note_on_c, 7, 75, 0
9, 40560, Note_on_c, 7, 74, 66
9, 40619, Note_on_c, 7, 74, 0
9, 40620, Note_on_c, 7, 71, 66
9, 40679, Note_on_c, 7, 71, 0
9, 40680, Note_on_c, 7, 67, 66
9, 40830, Note_on_c, 7, 67, 0
9, 40830, Note_on_c, 7, 65, 66
9, 40859, Note_on_c, 7, 65, 0
9, 40860, Note_on_c, 7, 64, 66
9, 40889, Note_on_c, 7, 64, 0
9, 40890, Note_on_c, 7, 62, 66
9, 40919, Note_on_c, 7, 62, 0
9, 40920, Note_on_c, 7, 64, 66
9, 40949, Note_on_c, 7, 64, 0
9, 40950, Note_on_c, 7, 60, 66
9, 40979, Note_on_c, 7, 60, 0
9, 40980, Note_on_c, 7, 62, 66
9, 41009, Note_on_c, 7, 62, 0
9, 41010, Note_on_c, 7, 64, 66
9, 41039, Note_on_c, 7, 64, 0
9, 41040, Note_on_c, 7, 65, 66
9, 41100, Note_on_c, 7, 65, 0
9, 41100, Note_on_c, 7, 60, 66
9, 41160, Note_on_c, 7, 60, 0
9, 41160, Note_on_c, 7, 65, 66
9, 41310, Note_on_c, 7, 65, 0
9, 41310, Note_on_c, 7, 63, 66
9, 41339, Note_on_c, 7, 63, 0
9, 41340, Note_on_c, 7, 62, 66
9, 41369, Note_on_c, 7, 62, 0
9, 41370, Note_on_c, 7, 63, 66
9, 41399, Note_on_c, 7, 63, 0
9, 41400, Note_on_c, 7, 65, 66
9, 41429, Note_on_c, 7, 65, 0
9, 41430, Note_on_c, 7, 67, 66
9, 41459, Note_on_c, 7, 67, 0
9, 41460, Note_on_c, 7, 68, 66
9, 41489, Note_on_c, 7, 68, 0
9, 41490, Note_on_c, 7, 65, 66
9, 41519, Note_on_c, 7, 65, 0
9, 41520, Note_on_c, 7, 67, 66
9, 41549, Note_on_c, 7, 67, 0
9, 41550, Note_on_c, 7, 68, 66
9, 41579, Note_on_c, 7, 68, 0
9, 41580, Note_on_c, 7, 67, 66
9, 41609, Note_on_c, 7, 67, 0
9, 41610, Note_on_c, 7, 65, 66
9, 41639, Note_on_c, 7, 65, 0
9, 41640, Note_on_c, 7, 63, 66
9, 41669, Note_on_c, 7, 63, 0
9, 41670, Note_on_c, 7, 62, 66
9, 41699, Note_on_c, 7, 62, 0
9, 41700, Note_on_c, 7, 60, 66
9, 41729, Note_on_c, 7, 60, 0
9, 41730, Note_on_c, 7, 59, 66
9, 41759, Note_on_c, 7, 59, 0
9, 41760, Note_on_c, 7, 60, 66
9, 41819, Note_on_c, 7, 60, 0
9, 41820, Note_on_c, 7, 72, 66
9, 41939, Note_on_c, 7, 72, 0
9, 41940, Note_on_c, 7, 71, 66
9, 41999, Note_on_c, 7, 71, 0
9, 42000, Note_on_c, 7, 72, 66
9, 42239, Note_on_c, 7, 72, 0
9, 42720, Note_on_c, 7, 75, 66
9, 42960, Note_on_c, 7, 75, 0
9, 42960, Note_on_c, 7, 74, 66
9, 43020, Note_on_c, 7, 74, 0
9, 43020, Note_on_c, 7, 72, 66
9, 43080, Note_on_c, 7, 72, 0
9, 43080, Note_on_c, 7, 70, 66
9, 43320, Note_on_c, 7, 70, 0
9, 43320, Note_on_c, 7, 68, 66
9, 43380, Note_on_c, 7, 68, 0
9, 43380, Note_on_c, 7, 67, 66
9, 43440, Note_on_c, 7, 67, 0
9, 43440, Note_on_c, 7, 65, 66
9, 43500, Note_on_c, 7, 65, 0
9, 43500, Note_on_c, 7, 62, 66
9, 43560, Note_on_c, 7, 62, 0
9, 43560, Note_on_c, 7, 63, 66
9, 43620, Note_on_c, 7, 63, 0
9, 43620, Note_on_c, 7, 68, 66
9, 43860, Note_on_c, 7, 68, 0
9, 43860, Note_on_c, 7, 67, 66
9, 43920, Note_on_c, 7, 67, 0
9, 43920, Note_on_c, 7, 70, 66
9, 43980, Note_on_c, 7, 70, 0
9, 43980, Note_on_c, 7, 75, 66
9, 44040, Note_on_c, 7, 75, 0
9, 44040, Note_on_c, 7, 77, 66
9, 44070, Note_on_c, 7, 77, 0
9, 44070, Note_on_c, 7, 75, 66
9, 44100, Note_on_c, 7, 75, 0
9, 44100, Note_on_c, 7, 74, 66
9, 44130, Note_on_c, 7, 74, 0
9, 44130, Note_on_c, 7, 72, 66
9, 44160, Note_on_c, 7, 72, 0
9, 44160, Note_on_c, 7, 74, 66
9, 44190, Note_on_c, 7, 74, 0
9, 44190, Note_on_c, 7, 72, 66
9, 44220, Note_on_c, 7, 72, 0
9, 44220, Note_on_c, 7, 74, 66
9, 44250, Note_on_c, 7, 74, 0
9, 44250, Note_on_c, 7, 70, 66
9, 44280, Note_on_c, 7, 70, 0
9, 44280, Note_on_c, 7, 65, 66
9, 44310, Note_on_c, 7, 65, 0
9, 44310, Note_on_c, 7, 70, 66
9, 44340, Note_on_c, 7, 70, 0
9, 44340, Note_on_c, 7, 75, 66
9, 44370, Note_on_c, 7, 75, 0
9, 44370, Note_on_c, 7, 74, 66
9, 44400, Note_on_c, 7, 74, 0
9, 44400, Note_on_c, 7, 75, 66
9, 44430, Note_on_c, 7, 75, 0
9, 44430, Note_on_c, 7, 72, 66
9, 44460, Note_on_c, 7, 72, 0
9, 44460, Note_on_c, 7, 69, 66
9, 44490, Note_on_c, 7, 69, 0
9, 44490, Note_on_c, 7, 72, 66
9, 44520, Note_on_c, 7, 72, 0
9, 44520, Note_on_c, 7, 77, 66
9, 44550, Note_on_c, 7, 77, 0
9, 44550, Note_on_c, 7, 75, 66
9, 44580, Note_on_c, 7, 75, 0
9, 44580, Note_on_c, 7, 77, 66
9, 44610, Note_on_c, 7, 77, 0
9, 44610, Note_on_c, 7, 74, 66
9, 44640, Note_on_c, 7, 74, 0
9, 44640, Note_on_c, 7, 70, 66
9, 44670, Note_on_c, 7, 70, 0
9, 44670, Note_on_c, 7, 74, 66
9, 44700, Note_on_c, 7, 74, 0
9, 44700, Note_on_c, 7, 79, 66
9, 44730, Note_on_c, 7, 79, 0
9, 44730, Note_on_c, 7, 77, 66
9, 44760, Note_on_c, 7, 77, 0
9, 44760, Note_on_c, 7, 79, 66
9, 44790, Note_on_c, 7, 79, 0
9, 44790, Note_on_c, 7, 75, 66
9, 44820, Note_on_c, 7, 75, 0
9, 44820, Note_on_c, 7, 77, 66
9, 44850, Note_on_c, 7, 77, 0
9, 44850, Note_on_c, 7, 79, 66
9, 44880, Note_on_c, 7, 79, 0
9, 44880, Note_on_c, 7, 69, 66
9, 44940, Note_on_c, 7, 69, 0
9, 44940, Note_on_c, 7, 77, 66
9, 45000, Note_on_c, 7, 77, 0
9, 45000, Note_on_c, 7, 70, 66
9, 45120, Note_on_c, 7, 70, 0
9, 45120, Note_on_c, 7, 69, 66
9, 45150, Note_on_c, 7, 69, 0
9, 45150, Note_on_c, 7, 67, 66
9, 45180, Note_on_c, 7, 67, 0
9, 45180, Note_on_c, 7, 69, 66
9, 45240, Note_on_c, 7, 69, 0
9, 45240, Note_on_c, 7, 70, 66
9, 45270, Note_on_c, 7, 70, 0
9, 45270, Note_on_c, 7, 69, 66
9, 45300, Note_on_c, 7, 69, 0
9, 45300, Note_on_c, 7, 70, 66
9, 45330, Note_on_c, 7, 70, 0
9, 45330, Note_on_c, 7, 65, 66
9, 45360, Note_on_c, 7, 65, 0
9, 45360, Note_on_c, 7, 62, 66
9, 45390, Note_on_c, 7, 62, 0
9, 45390, Note_on_c, 7, 65, 66
9, 45420, Note_on_c, 7, 65, 0
9, 45420, Note_on_c, 7, 63, 66
9, 45450, Note_on_c, 7, 63, 0
9, 45450, Note_on_c, 7, 65, 66
9, 45480, Note_on_c, 7, 65, 0
9, 45480, Note_on_c, 7, 67, 66
9, 45510, Note_on_c, 7, 67, 0
9, 45510, Note_on_c, 7, 68, 66
9, 45540, Note_on_c, 7, 68, 0
9, 45540, Note_on_c, 7, 70, 66
9, 45570, Note_on_c, 7, 70, 0
9, 45570, Note_on_c, 7, 67, 66
9, 45600, Note_on_c, 7, 67, 0
9, 45600, Note_on_c, 7, 63, 66
9, 45630, Note_on_c, 7, 63, 0
9, 45630, Note_on_c, 7, 61, 66
9, 45660, Note_on_c, 7, 61, 0
9, 45660, Note_on_c, 7, 63, 66
9, 45690, Note_on_c, 7, 63, 0
9, 45690, Note_on_c, 7, 68, 66
9, 45720, Note_on_c, 7, 68, 0
9, 45720, Note_on_c, 7, 60, 66
9, 45750, Note_on_c, 7, 60, 0
9, 45750, Note_on_c, 7, 63, 66
9, 45780, Note_on_c, 7, 63, 0
9, 45780, Note_on_c, 7, 62, 66
9, 45810, Note_on_c, 7, 62, 0
9, 45810, Note_on_c, 7, 63, 66
9, 45840, Note_on_c, 7, 63, 0
9, 45840, Note_on_c, 7, 65, 66
9, 45870, Note_on_c, 7, 65, 0
9, 45870, Note_on_c, 7, 67, 66
9, 45900, Note_on_c, 7, 67, 0
9, 45900, Note_on_c, 7, 68, 66
9, 45930, Note_on_c, 7, 68, 0
9, 45930, Note_on_c, 7, 65, 66
9, 45960, Note_on_c, 7, 65, 0
9, 45960, Note_on_c, 7, 62, 66
9, 45990, Note_on_c, 7, 62, 0
9, 45990, Note_on_c, 7, 60, 66
9, 46020, Note_on_c, 7, 60, 0
9, 46020, Note_on_c, 7, 62, 66
9, 46050, Note_on_c, 7, 62, 0
9, 46050, Note_on_c, 7, 67, 66
9, 46080, Note_on_c, 7, 67, 0
9, 46080, Note_on_c, 7, 58, 66
9, 46110, Note_on_c, 7, 58, 0
9, 46110, Note_on_c, 7, 62, 66
9, 46140, Note_on_c, 7, 62, 0
9, 46140, Note_on_c, 7, 60, 66
9, 46170, Note_on_c, 7, 60, 0
9, 46170, Note_on_c, 7, 62, 66
9, 46200, Note_on_c, 7, 62, 0
9, 46200, Note_on_c, 7, 63, 66
9, 46230, Note_on_c, 7, 63, 0
9, 46230, Note_on_c, 7, 65, 66
9, 46260, Note_on_c, 7, 65, 0
9, 46260, Note_on_c, 7, 67, 66
9, 46290, Note_on_c, 7, 67, 0
9, 46290, Note_on_c, 7, 63, 66
9, 46320, Note_on_c, 7, 63, 0
9, 46320, Note_on_c, 7, 60, 66
9, 46350, Note_on_c, 7, 60, 0
9, 46350, Note_on_c, 7, 58, 66
9, 46380, Note_on_c, 7, 58, 0
9, 46380, Note_on_c, 7, 60, 66
9, 46410, Note_on_c, 7, 60, 0
9, 46410, Note_on_c, 7, 65, 66
9, 46440, Note_on_c, 7, 65, 0
9, 46440, Note_on_c, 7, 56, 66
9, 46470, Note_on_c, 7, 56, 0
9, 46470, Note_on_c, 7, 60, 66
9, 46500, Note_on_c, 7, 60, 0
9, 46500, Note_on_c, 7, 58, 66
9, 46530, Note_on_c, 7, 58, 0
9, 46530, Note_on_c, 7, 60, 66
9, 46560, Note_on_c, 7, 60, 0
9, 46560, Note_on_c, 7, 62, 66
9, 46590, Note_on_c, 7, 62, 0
9, 46590, Note_on_c, 7, 63, 66
9, 46620, Note_on_c, 7, 63, 0
9, 46620, Note_on_c, 7, 65, 66
9, 46650, Note_on_c, 7, 65, 0
9, 46650, Note_on_c, 7, 62, 66
9, 46680, Note_on_c, 7, 62, 0
9, 46680, Note_on_c, 7, 63, 66
9, 46800, Note_on_c, 7, 63, 0
9, 47040, Note_on_c, 7, 72, 66
9, 47280, Note_on_c, 7, 72, 0
9, 47280, Note_on_c, 7, 70, 66
9, 47340, Note_on_c, 7, 70, 0
9, 47340, Note_on_c, 7, 68, 66
9, 47400, Note_on_c, 7, 68, 0
9, 47400, Note_on_c, 7, 67, 66
9, 47640, Note_on_c, 7, 67, 0
9, 47640, Note_on_c, 7, 65, 66
9, 47700, Note_on_c, 7, 65, 0
9, 47700, Note_on_c, 7, 63, 66
9, 47760, Note_on_c, 7, 63, 0
9, 47760, Note_on_c, 7, 62, 66
9, 47820, Note_on_c, 7, 62, 0
9, 47820, Note_on_c, 7, 59, 66
9, 47880, Note_on_c, 7, 59, 0
9, 47880, Note_on_c, 7, 60, 66
9, 47940, Note_on_c, 7, 60, 0
9, 47940, Note_on_c, 7, 65, 66
9, 48150, Note_on_c, 7, 65, 0
9, 48150, Note_on_c, 7, 62, 66
9, 48180, Note_on_c, 7, 62, 0
9, 48180, Note_on_c, 7, 64, 66
9, 48210, Note_on_c, 7, 64, 0
9, 48210, Note_on_c, 7, 65, 66
9, 48240, Note_on_c, 7, 65, 0
9, 48240, Note_on_c, 7, 67, 66
9, 48270, Note_on_c, 7, 67, 0
9, 48270, Note_on_c, 7, 68, 66
9, 48300, Note_on_c, 7, 68, 0
9, 48300, Note_on_c, 7, 70, 66
9, 48330, Note_on_c, 7, 70, 0
9, 48330, Note_on_c, 7, 73, 66
9, 48360, Note_on_c, 7, 73, 0
9, 48360, Note_on_c, 7, 72, 66
9, 48390, Note_on_c, 7, 72, 0
9, 48390, Note_on_c, 7, 70, 66
9, 48420, Note_on_c, 7, 70, 0
9, 48420, Note_on_c, 7, 68, 66
9, 48450, Note_on_c, 7, 68, 0
9, 48450, Note_on_c, 7, 67, 66
9, 48480, Note_on_c, 7, 67, 0
9, 48480, Note_on_c, 7, 68, 66
9, 48870, Note_on_c, 7, 68, 0
9, 48870, Note_on_c, 7, 65, 66
9, 48900, Note_on_c, 7, 65, 0
9, 48900, Note_on_c, 7, 67, 66
9, 48930, Note_on_c, 7, 67, 0
9, 48930, Note_on_c, 7, 68, 66
9, 48960, Note_on_c, 7, 68, 0
9, 48960, Note_on_c, 7, 70, 66
9, 48990, Note_on_c, 7, 70, 0
9, 48990, Note_on_c, 7, 72, 66
9, 49020, Note_on_c, 7, 72, 0
9, 49020, Note_on_c, 7, 73, 66
9, 49050, Note_on_c, 7, 73, 0
9, 49050, Note_on_c, 7, 77, 66
9, 49080, Note_on_c, 7, 77, 0
9, 49080, Note_on_c, 7, 75, 66
9, 49110, Note_on_c, 7, 75, 0
9, 49110, Note_on_c, 7, 73, 66
9, 49140, Note_on_c, 7, 73, 0
9, 49140, Note_on_c, 7, 72, 66
9, 49170, Note_on_c, 7, 72, 0
9, 49170, Note_on_c, 7, 70, 66
9, 49200, Note_on_c, 7, 70, 0
9, 49200, Note_on_c, 7, 72, 66
9, 49230, Note_on_c, 7, 72, 0
9, 49230, Note_on_c, 7, 70, 66
9, 49260, Note_on_c, 7, 70, 0
9, 49260, Note_on_c, 7, 72, 66
9, 49290, Note_on_c, 7, 72, 0
9, 49290, Note_on_c, 7, 68, 66
9, 49320, Note_on_c, 7, 68, 0
9, 49320, Note_on_c, 7, 63, 66
9, 49350, Note_on_c, 7, 63, 0
9, 49350, Note_on_c, 7, 68, 66
9, 49380, Note_on_c, 7, 68, 0
9, 49380, Note_on_c, 7, 73, 66
9, 49410, Note_on_c, 7, 73, 0
9, 49410, Note_on_c, 7, 72, 66
9, 49440, Note_on_c, 7, 72, 0
9, 49440, Note_on_c, 7, 73, 66
9, 49470, Note_on_c, 7, 73, 0
9, 49470, Note_on_c, 7, 70, 66
9, 49500, Note_on_c, 7, 70, 0
9, 49500, Note_on_c, 7, 67, 66
9, 49530, Note_on_c, 7, 67, 0
9, 49530, Note_on_c, 7, 70, 66
9, 49560, Note_on_c, 7, 70, 0
9, 49560, Note_on_c, 7, 75, 66
9, 49590, Note_on_c, 7, 75, 0
9, 49590, Note_on_c, 7, 73, 66
9, 49620, Note_on_c, 7, 73, 0
9, 49620, Note_on_c, 7, 75, 66
9, 49650, Note_on_c, 7, 75, 0
9, 49650, Note_on_c, 7, 72, 66
9, 49680, Note_on_c, 7, 72, 0
9, 49680, Note_on_c, 7, 68, 66
9, 49710, Note_on_c, 7, 68, 0
9, 49710, Note_on_c, 7, 72, 66
9, 49740, Note_on_c, 7, 72, 0
9, 49740, Note_on_c, 7, 77, 66
9, 49770, Note_on_c, 7, 77, 0
9, 49770, Note_on_c, 7, 75, 66
9, 49800, Note_on_c, 7, 75, 0
9, 49800, Note_on_c, 7, 77, 66
9, 49830, Note_on_c, 7, 77, 0
9, 49830, Note_on_c, 7, 73, 66
9, 49860, Note_on_c, 7, 73, 0
9, 49860, Note_on_c, 7, 75, 66
9, 49890, Note_on_c, 7, 75, 0
9, 49890, Note_on_c, 7, 77, 66
9, 49920, Note_on_c, 7, 77, 0
9, 49920, Note_on_c, 7, 67, 66
9, 49980, Note_on_c, 7, 67, 0
9, 49980, Note_on_c, 7, 75, 66
9, 50040, Note_on_c, 7, 75, 0
9, 50040, Note_on_c, 7, 68, 66
9, 50160, Note_on_c, 7, 68, 0
9, 50160, Note_on_c, 7, 67, 66
9, 50190, Note_on_c, 7, 67, 0
9, 50190, Note_on_c, 7, 65, 66
9, 50220, Note_on_c, 7, 65, 0
9, 50220, Note_on_c, 7, 67, 66
9, 50280, Note_on_c, 7, 67, 0
9, 50280, Note_on_c, 7, 68, 66
9, 50460, Note_on_c, 7, 68, 0
9, 50640, Note_on_c, 7, 75, 66
9, 50880, Note_on_c, 7, 75, 0
9, 50880, Note_on_c, 7, 74, 66
9, 50940, Note_on_c, 7, 74, 0
9, 50940, Note_on_c, 7, 72, 66
9, 51000, Note_on_c, 7, 72, 0
9, 51000, Note_on_c, 7, 70, 66
9, 51240, Note_on_c, 7, 70, 0
9, 51240, Note_on_c, 7, 68, 66
9, 51300, Note_on_c, 7, 68, 0
9, 51300, Note_on_c, 7, 67, 66
9, 51360, Note_on_c, 7, 67, 0
9, 51360, Note_on_c, 7, 65, 66
9, 51420, Note_on_c, 7, 65, 0
9, 51420, Note_on_c, 7, 62, 66
9, 51480, Note_on_c, 7, 62, 0
9, 51480, Note_on_c, 7, 63, 66
9, 51540, Note_on_c, 7, 63, 0
9, 51540, Note_on_c, 7, 68, 66
9, 51780, Note_on_c, 7, 68, 0
9, 51780, Note_on_c, 7, 67, 66
9, 51840, Note_on_c, 7, 67, 0
9, 51840, Note_on_c, 7, 68, 66
9, 51900, Note_on_c, 7, 68, 0
9, 51900, Note_on_c, 7, 70, 66
9, 52020, Note_on_c, 7, 70, 0
9, 52020, Note_on_c, 7, 61, 66
9, 52140, Note_on_c, 7, 61, 0
9, 52140, Note_on_c, 7, 60, 66
9, 52200, Note_on_c, 7, 60, 0
9, 52200, Note_on_c, 7, 63, 66
9, 52260, Note_on_c, 7, 63, 0
9, 52260, Note_on_c, 7, 68, 66
9, 52380, Note_on_c, 7, 68, 0
9, 52380, Note_on_c, 7, 60, 66
9, 52500, Note_on_c, 7, 60, 0
9, 52500, Note_on_c, 7, 58, 66
9, 52560, Note_on_c, 7, 58, 0
9, 52560, Note_on_c, 7, 62, 66
9, 52620, Note_on_c, 7, 62, 0
9, 52620, Note_on_c, 7, 67, 66
9, 52740, Note_on_c, 7, 67, 0
9, 52740, Note_on_c, 7, 58, 66
9, 52860, Note_on_c, 7, 58, 0
9, 52860, Note_on_c, 7, 56, 66
9, 52920, Note_on_c, 7, 56, 0
9, 52920, Note_on_c, 7, 60, 66
9, 52980, Note_on_c, 7, 60, 0
9, 52980, Note_on_c, 7, 65, 66
9, 53100, Note_on_c, 7, 65, 0
9, 53100, Note_on_c, 7, 56, 66
9, 53220, Note_on_c, 7, 56, 0
9, 53220, Note_on_c, 7, 55, 66
9, 53280, Note_on_c, 7, 55, 0
9, 53280, Note_on_c, 7, 58, 66
9, 53340, Note_on_c, 7, 58, 0
9, 53340, Note_on_c, 7, 63, 66
9, 53400, Note_on_c, 7, 63, 0
9, 53400, Note_on_c, 7, 65, 66
9, 53460, Note_on_c, 7, 65, 0
9, 53460, Note_on_c, 7, 62, 66
9, 53520, Note_on_c, 7, 62, 0
9, 53520, Note_on_c, 7, 63, 66
9, 53550, Note_on_c, 7, 63, 0
9, 53550, Note_on_c, 7, 58, 66
9, 53580, Note_on_c, 7, 58, 0
9, 53580, Note_on_c, 7, 60, 66
9, 53610, Note_on_c, 7, 60, 0
9, 53610, Note_on_c, 7, 56, 66
9, 53640, Note_on_c, 7, 56, 0
9, 53640, Note_on_c, 7, 58, 66
9, 53670, Note_on_c, 7, 58, 0
9, 53700, Note_on_c, 7, 68, 66
9, 53730, Note_on_c, 7, 68, 0
9, 53760, Note_on_c, 7, 67, 66
9, 53790, Note_on_c, 7, 67, 0
9, 53820, Note_on_c, 7, 65, 66
9, 53850, Note_on_c, 7, 65, 0
9, 53880, Note_on_c, 7, 63, 66
9, 54000, Note_on_c, 7, 63, 0
9, 54060, Note_on_c, 7, 60, 66
9, 54090, Note_on_c, 7, 60, 0
9, 54120, Note_on_c, 7, 58, 66
9, 54150, Note_on_c, 7, 58, 0
9, 54180, Note_on_c, 7, 56, 66
9, 54210, Note_on_c, 7, 56, 0
9, 54240, Note_on_c, 7, 55, 66
9, 54360, Note_on_c, 7, 55, 0
9, 54420, Note_on_c, 7, 68, 66
9, 54630, Note_on_c, 7, 68, 0
9, 54630, Note_on_c, 7, 67, 66
9, 54660, Note_on_c, 7, 67, 0
9, 54660, Note_on_c, 7, 74, 66
9, 54690, Note_on_c, 7, 74, 0
9, 54720, Note_on_c, 7, 75, 66
9, 54750, Note_on_c, 7, 75, 0
9, 54780, Note_on_c, 7, 67, 66
9, 54990, Note_on_c, 7, 67, 0
9, 54990, Note_on_c, 7, 65, 66
9, 55020, Note_on_c, 7, 65, 0
9, 55020, Note_on_c, 7, 74, 66
9, 55050, Note_on_c, 7, 74, 0
9, 55080, Note_on_c, 7, 75, 66
9, 55110, Note_on_c, 7, 75, 0
9, 55140, Note_on_c, 7, 65, 66
9, 55350, Note_on_c, 7, 65, 0
9, 55350, Note_on_c, 7, 63, 66
9, 55380, Note_on_c, 7, 63, 0
9, 55380, Note_on_c, 7, 74, 66
9, 55410, Note_on_c, 7, 74, 0
9, 55440, Note_on_c, 7, 75, 66
9, 55470, Note_on_c, 7, 75, 0
9, 55500, Note_on_c, 7, 63, 66
9, 55740, Note_on_c, 7, 63, 0
9, 55740, Note_on_c, 7, 62, 66
9, 55800, Note_on_c, 7, 62, 0
9, 55860, Note_on_c, 7, 77, 66
9, 55980, Note_on_c, 7, 77, 0
9, 55980, Note_on_c, 7, 68, 66
9, 56100, Note_on_c, 7, 68, 0
9, 56100, Note_on_c, 7, 67, 66
9, 56160, Note_on_c, 7, 67, 0
9, 56160, Note_on_c, 7, 70, 66
9, 56220, Note_on_c, 7, 70, 0
9, 56220, Note_on_c, 7, 75, 66
9, 56340, Note_on_c, 7, 75, 0
9, 56340, Note_on_c, 7, 67, 66
9, 56460, Note_on_c, 7, 67, 0
9, 56460, Note_on_c, 7, 65, 66
9, 56520, Note_on_c, 7, 65, 0
9, 56520, Note_on_c, 7, 69, 66
9, 56580, Note_on_c, 7, 69, 0
9, 56580, Note_on_c, 7, 74, 66
9, 56700, Note_on_c, 7, 74, 0
9, 56700, Note_on_c, 7, 65, 66
9, 56820, Note_on_c, 7, 65, 0
9, 56820, Note_on_c, 7, 63, 66
9, 56880, Note_on_c, 7, 63, 0
9, 56880, Note_on_c, 7, 67, 66
9, 56940, Note_on_c, 7, 67, 0
9, 56940, Note_on_c, 7, 72, 66
9, 57060, Note_on_c, 7, 72, 0
9, 57060, Note_on_c, 7, 63, 66
9, 57180, Note_on_c, 7, 63, 0
9, 57180, Note_on_c, 7, 62, 66
9, 57240, Note_on_c, 7, 62, 0
9, 57300, Note_on_c, 7, 67, 66
9, 57329, Note_on_c, 7, 67, 0
9, 57360, Note_on_c, 7, 65, 66
9, 57389, Note_on_c, 7, 65, 0
9, 57420, Note_on_c, 7, 63, 66
9, 57449, Note_on_c, 7, 63, 0
9, 57480, Note_on_c, 7, 62, 66
9, 57509, Note_on_c, 7, 62, 0
9, 57510, Note_on_c, 7, 65, 66
9, 57539, Note_on_c, 7, 65, 0
9, 57540, Note_on_c, 7, 67, 66
9, 57569, Note_on_c, 7, 67, 0
9, 57570, Note_on_c, 7, 63, 66
9, 57599, Note_on_c, 7, 63, 0
9, 57600, Note_on_c, 7, 65, 66
9, 57629, Note_on_c, 7, 65, 0
9, 57660, Note_on_c, 7, 75, 66
9, 57689, Note_on_c, 7, 75, 0
9, 57720, Note_on_c, 7, 74, 66
9, 57749, Note_on_c, 7, 74, 0
9, 57780, Note_on_c, 7, 72, 66
9, 57809, Note_on_c, 7, 72, 0
9, 57840, Note_on_c, 7, 70, 66
9, 57900, Note_on_c, 7, 70, 0
9, 57900, Note_on_c, 7, 79, 66
9, 58079, Note_on_c, 7, 79, 0
9, 58080, Note_on_c, 7, 81, 66
9, 58139, Note_on_c, 7, 81, 0
9, 58140, Note_on_c, 7, 82, 66
9, 58199, Note_on_c, 7, 82, 0
9, 58200, Note_on_c, 7, 77, 66
9, 58439, Note_on_c, 7, 77, 0
9, 58440, Note_on_c, 7, 81, 66
9, 58499, Note_on_c, 7, 81, 0
9, 58500, Note_on_c, 7, 82, 66
9, 58559, Note_on_c, 7, 82, 0
9, 58560, Note_on_c, 7, 75, 66
9, 58799, Note_on_c, 7, 75, 0
9, 58800, Note_on_c, 7, 81, 66
9, 58889, Note_on_c, 7, 81, 0
9, 58890, Note_on_c, 7, 82, 66
9, 58904, Note_on_c, 7, 82, 0
9, 58905, Note_on_c, 7, 84, 66
9, 58919, Note_on_c, 7, 84, 0
9, 58920, Note_on_c, 7, 74, 66
9, 59130, Note_on_c, 7, 74, 0
9, 59130, Note_on_c, 7, 76, 66
9, 59159, Note_on_c, 7, 76, 0
9, 59160, Note_on_c, 7, 77, 66
9, 59169, Note_on_c, 7, 77, 0
9, 59170, Note_on_c, 7, 76, 66
9, 59179, Note_on_c, 7, 76, 0
9, 59180, Note_on_c, 7, 77, 66
9, 59189, Note_on_c, 7, 77, 0
9, 59190, Note_on_c, 7, 76, 66
9, 59199, Note_on_c, 7, 76, 0
9, 59200, Note_on_c, 7, 77, 66
9, 59209, Note_on_c, 7, 77, 0
9, 59210, Note_on_c, 7, 76, 66
9, 59219, Note_on_c, 7, 76, 0
9, 59220, Note_on_c, 7, 77, 66
9, 59229, Note_on_c, 7, 77, 0
9, 59230, Note_on_c, 7, 76, 66
9, 59239, Note_on_c, 7, 76, 0
9, 59240, Note_on_c, 7, 77, 66
9, 59249, Note_on_c, 7, 77, 0
9, 59250, Note_on_c, 7, 76, 66
9, 59259, Note_on_c, 7, 76, 0
9, 59260, Note_on_c, 7, 74, 66
9, 59269, Note_on_c, 7, 74, 0
9, 59270, Note_on_c, 7, 76, 66
9, 59279, Note_on_c, 7, 76, 0
9, 59280, Note_on_c, 7, 77, 66
9, 59399, Note_on_c, 7, 77, 0
9, 59400, Note_on_c, 7, 65, 66
9, 59459, Note_on_c, 7, 65, 0
9, 59460, Note_on_c, 7, 65, 66
9, 59579, Note_on_c, 7, 65, 0
9, 59580, Note_on_c, 7, 77, 66
9, 59639, Note_on_c, 7, 77, 0
9, 59640, Note_on_c, 7, 75, 66
9, 59759, Note_on_c, 7, 75, 0
9, 59760, Note_on_c, 7, 65, 66
9, 59819, Note_on_c, 7, 65, 0
9, 59820, Note_on_c, 7, 65, 66
9, 59939, Note_on_c, 7, 65, 0
9, 59940, Note_on_c, 7, 74, 66
9, 59999, Note_on_c, 7, 74, 0
9, 60000, Note_on_c, 7, 72, 66
9, 60029, Note_on_c, 7, 72, 0
9, 60030, Note_on_c, 7, 64, 66
9, 60059, Note_on_c, 7, 64, 0
9, 60060, Note_on_c, 7, 65, 66
9, 60089, Note_on_c, 7, 65, 0
9, 60090, Note_on_c, 7, 67, 66
9, 60119, Note_on_c, 7, 67, 0
9, 60120, Note_on_c, 7, 69, 66
9, 60149, Note_on_c, 7, 69, 0
9, 60150, Note_on_c, 7, 70, 66
9, 60179, Note_on_c, 7, 70, 0
9, 60180, Note_on_c, 7, 72, 66
9, 60209, Note_on_c, 7, 72, 0
9, 60210, Note_on_c, 7, 75, 66
9, 60239, Note_on_c, 7, 75, 0
9, 60240, Note_on_c, 7, 74, 66
9, 60269, Note_on_c, 7, 74, 0
9, 60270, Note_on_c, 7, 72, 66
9, 60299, Note_on_c, 7, 72, 0
9, 60300, Note_on_c, 7, 70, 66
9, 60329, Note_on_c, 7, 70, 0
9, 60330, Note_on_c, 7, 69, 66
9, 60359, Note_on_c, 7, 69, 0
9, 60360, Note_on_c, 7, 70, 66
9, 60539, Note_on_c, 7, 70, 0
9, 60600, Note_on_c, 7, 70, 66
9, 60750, Note_on_c, 7, 70, 0
9, 60750, Note_on_c, 7, 67, 66
9, 60779, Note_on_c, 7, 67, 0
9, 60780, Note_on_c, 7, 69, 66
9, 60809, Note_on_c, 7, 69, 0
9, 60810, Note_on_c, 7, 70, 66
9, 60839, Note_on_c, 7, 70, 0
9, 60840, Note_on_c, 7, 72, 66
9, 60869, Note_on_c, 7, 72, 0
9, 60870, Note_on_c, 7, 74, 66
9, 60899, Note_on_c, 7, 74, 0
9, 60900, Note_on_c, 7, 75, 66
9, 60929, Note_on_c, 7, 75, 0
9, 60930, Note_on_c, 7, 79, 66
9, 60959, Note_on_c, 7, 79, 0
9, 60960, Note_on_c, 7, 77, 66
9, 60989, Note_on_c, 7, 77, 0
9, 60990, Note_on_c, 7, 75, 66
9, 61019, Note_on_c, 7, 75, 0
9, 61020, Note_on_c, 7, 74, 66
9, 61049, Note_on_c, 7, 74, 0
9, 61050, Note_on_c, 7, 72, 66
9, 61079, Note_on_c, 7, 72, 0
9, 61080, Note_on_c, 7, 74, 66
9, 61109, Note_on_c, 7, 74, 0
9, 61110, Note_on_c, 7, 72, 66
9, 61139, Note_on_c, 7, 72, 0
9, 61140, Note_on_c, 7, 74, 66
9, 61169, Note_on_c, 7, 74, 0
9, 61170, Note_on_c, 7, 70, 66
9, 61199, Note_on_c, 7, 70, 0
9, 61200, Note_on_c, 7, 65, 66
9, 61229, Note_on_c, 7, 65, 0
9, 61230, Note_on_c, 7, 70, 66
9, 61259, Note_on_c, 7, 70, 0
9, 61260, Note_on_c, 7, 75, 66
9, 61289, Note_on_c, 7, 75, 0
9, 61290, Note_on_c, 7, 74, 66
9, 61319, Note_on_c, 7, 74, 0
9, 61320, Note_on_c, 7, 75, 66
9, 61349, Note_on_c, 7, 75, 0
9, 61350, Note_on_c, 7, 70, 66
9, 61379, Note_on_c, 7, 70, 0
9, 61380, Note_on_c, 7, 67, 66
9, 61409, Note_on_c, 7, 67, 0
9, 61410, Note_on_c, 7, 70, 66
9, 61439, Note_on_c, 7, 70, 0
9, 61440, Note_on_c, 7, 77, 66
9, 61469, Note_on_c, 7, 77, 0
9, 61470, Note_on_c, 7, 75, 66
9, 61499, Note_on_c, 7, 75, 0
9, 61500, Note_on_c, 7, 77, 66
9, 61529, Note_on_c, 7, 77, 0
9, 61530, Note_on_c, 7, 74, 66
9, 61559, Note_on_c, 7, 74, 0
9, 61560, Note_on_c, 7, 70, 66
9, 61589, Note_on_c, 7, 70, 0
9, 61590, Note_on_c, 7, 74, 66
9, 61619, Note_on_c, 7, 74, 0
9, 61620, Note_on_c, 7, 79, 66
9, 61649, Note_on_c, 7, 79, 0
9, 61650, Note_on_c, 7, 77, 66
9, 61679, Note_on_c, 7, 77, 0
9, 61680, Note_on_c, 7, 79, 66
9, 61709, Note_on_c, 7, 79, 0
9, 61710, Note_on_c, 7, 75, 66
9, 61739, Note_on_c, 7, 75, 0
9, 61740, Note_on_c, 7, 70, 66
9, 61769, Note_on_c, 7, 70, 0
9, 61770, Note_on_c, 7, 75, 66
9, 61799, Note_on_c, 7, 75, 0
9, 61800, Note_on_c, 7, 74, 66
9, 61919, Note_on_c, 7, 74, 0
9, 62040, Note_on_c, 7, 74, 66
9, 62190, Note_on_c, 7, 74, 0
9, 62190, Note_on_c, 7, 71, 66
9, 62219, Note_on_c, 7, 71, 0
9, 62220, Note_on_c, 7, 72, 66
9, 62249, Note_on_c, 7, 72, 0
9, 62250, Note_on_c, 7, 74, 66
9, 62279, Note_on_c, 7, 74, 0
9, 62280, Note_on_c, 7, 75, 66
9, 62309, Note_on_c, 7, 75, 0
9, 62310, Note_on_c, 7, 77, 66
9, 62339, Note_on_c, 7, 77, 0
9, 62340, Note_on_c, 7, 79, 66
9, 62369, Note_on_c, 7, 79, 0
9, 62370, Note_on_c, 7, 82, 66
9, 62399, Note_on_c, 7, 82, 0
9, 62400, Note_on_c, 7, 80, 66
9, 62429, Note_on_c, 7, 80, 0
9, 62430, Note_on_c, 7, 79, 66
9, 62459, Note_on_c, 7, 79, 0
9, 62460, Note_on_c, 7, 77, 66
9, 62489, Note_on_c, 7, 77, 0
9, 62490, Note_on_c, 7, 75, 66
9, 62519, Note_on_c, 7, 75, 0
9, 62520, Note_on_c, 7, 77, 66
9, 62699, Note_on_c, 7, 77, 0
9, 62820, Note_on_c, 7, 74, 66
9, 62879, Note_on_c, 7, 74, 0
9, 62880, Note_on_c, 7, 75, 66
9, 62939, Note_on_c, 7, 75, 0
9, 62940, Note_on_c, 7, 70, 66
9, 62999, Note_on_c, 7, 70, 0
9, 63000, Note_on_c, 7, 67, 66
9, 63059, Note_on_c, 7, 67, 0
9, 63060, Note_on_c, 7, 70, 66
9, 63119, Note_on_c, 7, 70, 0
9, 63120, Note_on_c, 7, 75, 66
9, 63179, Note_on_c, 7, 75, 0
9, 63180, Note_on_c, 7, 79, 66
9, 63239, Note_on_c, 7, 79, 0
9, 63240, Note_on_c, 7, 76, 66
9, 63299, Note_on_c, 7, 76, 0
9, 63300, Note_on_c, 7, 70, 66
9, 63359, Note_on_c, 7, 70, 0
9, 63360, Note_on_c, 7, 67, 66
9, 63419, Note_on_c, 7, 67, 0
9, 63420, Note_on_c, 7, 70, 66
9, 63479, Note_on_c, 7, 70, 0
9, 63480, Note_on_c, 7, 76, 66
9, 63539, Note_on_c, 7, 76, 0
9, 63540, Note_on_c, 7, 79, 66
9, 63599, Note_on_c, 7, 79, 0
9, 63600, Note_on_c, 7, 80, 66
9, 63629, Note_on_c, 7, 80, 0
9, 63630, Note_on_c, 7, 79, 66
9, 63659, Note_on_c, 7, 79, 0
9, 63660, Note_on_c, 7, 80, 66
9, 63689, Note_on_c, 7, 80, 0
9, 63690, Note_on_c, 7, 77, 66
9, 63719, Note_on_c, 7, 77, 0
9, 63720, Note_on_c, 7, 72, 66
9, 63749, Note_on_c, 7, 72, 0
9, 63750, Note_on_c, 7, 77, 66
9, 63779, Note_on_c, 7, 77, 0
9, 63780, Note_on_c, 7, 80, 66
9, 63809, Note_on_c, 7, 80, 0
9, 63810, Note_on_c, 7, 79, 66
9, 63839, Note_on_c, 7, 79, 0
9, 63840, Note_on_c, 7, 80, 66
9, 63869, Note_on_c, 7, 80, 0
9, 63870, Note_on_c, 7, 77, 66
9, 63899, Note_on_c, 7, 77, 0
9, 63900, Note_on_c, 7, 72, 66
9, 63929, Note_on_c, 7, 72, 0
9, 63930, Note_on_c, 7, 77, 66
9, 63959, Note_on_c, 7, 77, 0
9, 63960, Note_on_c, 7, 81, 66
9, 63989, Note_on_c, 7, 81, 0
9, 63990, Note_on_c, 7, 79, 66
9, 64019, Note_on_c, 7, 79, 0
9, 64020, Note_on_c, 7, 81, 66
9, 64049, Note_on_c, 7, 81, 0
9, 64050, Note_on_c, 7, 78, 66
9, 64079, Note_on_c, 7, 78, 0
9, 64080, Note_on_c, 7, 72, 66
9, 64109, Note_on_c, 7, 72, 0
9, 64110, Note_on_c, 7, 78, 66
9, 64139, Note_on_c, 7, 78, 0
9, 64140, Note_on_c, 7, 81, 66
9, 64169, Note_on_c, 7, 81, 0
9, 64170, Note_on_c, 7, 79, 66
9, 64199, Note_on_c, 7, 79, 0
9, 64200, Note_on_c, 7, 81, 66
9, 64229, Note_on_c, 7, 81, 0
9, 64230, Note_on_c, 7, 78, 66
9, 64259, Note_on_c, 7, 78, 0
9, 64260, Note_on_c, 7, 72, 66
9, 64289, Note_on_c, 7, 72, 0
9, 64290, Note_on_c, 7, 78, 66
9, 64319, Note_on_c, 7, 78, 0
9, 64320, Note_on_c, 7, 79, 66
9, 64559, Note_on_c, 7, 79, 0
9, 64560, Note_on_c, 7, 77, 66
9, 64619, Note_on_c, 7, 77, 0
9, 64620, Note_on_c, 7, 75, 66
9, 64679, Note_on_c, 7, 75, 0
9, 64680, Note_on_c, 7, 74, 66
9, 64919, Note_on_c, 7, 74, 0
9, 64920, Note_on_c, 7, 72, 66
9, 64979, Note_on_c, 7, 72, 0
9, 64980, Note_on_c, 7, 70, 66
9, 65039, Note_on_c, 7, 70, 0
9, 65040, Note_on_c, 7, 69, 66
9, 65099, Note_on_c, 7, 69, 0
9, 65100, Note_on_c, 7, 66, 66
9, 65159, Note_on_c, 7, 66, 0
9, 65160, Note_on_c, 7, 67, 66
9, 65219, Note_on_c, 7, 67, 0
9, 65220, Note_on_c, 7, 72, 66
9, 65459, Note_on_c, 7, 72, 0
9, 65460, Note_on_c, 7, 71, 66
9, 65519, Note_on_c, 7, 71, 0
9, 65520, Note_on_c, 7, 72, 66
9, 65579, Note_on_c, 7, 72, 0
9, 65580, Note_on_c, 7, 77, 66
9, 65639, Note_on_c, 7, 77, 0
9, 65640, Note_on_c, 7, 79, 66
9, 65669, Note_on_c, 7, 79, 0
9, 65670, Note_on_c, 7, 77, 66
9, 65699, Note_on_c, 7, 77, 0
9, 65700, Note_on_c, 7, 75, 66
9, 65729, Note_on_c, 7, 75, 0
9, 65730, Note_on_c, 7, 74, 66
9, 65759, Note_on_c, 7, 74, 0
9, 65760, Note_on_c, 7, 75, 66
9, 65789, Note_on_c, 7, 75, 0
9, 65790, Note_on_c, 7, 74, 66
9, 65819, Note_on_c, 7, 74, 0
9, 65820, Note_on_c, 7, 75, 66
9, 65849, Note_on_c, 7, 75, 0
9, 65850, Note_on_c, 7, 72, 66
9, 65879, Note_on_c, 7, 72, 0
9, 65880, Note_on_c, 7, 67, 66
9, 65909, Note_on_c, 7, 67, 0
9, 65910, Note_on_c, 7, 72, 66
9, 65939, Note_on_c, 7, 72, 0
9, 65940, Note_on_c, 7, 77, 66
9, 65969, Note_on_c, 7, 77, 0
9, 65970, Note_on_c, 7, 75, 66
9, 65999, Note_on_c, 7, 75, 0
9, 66000, Note_on_c, 7, 77, 66
9, 66029, Note_on_c, 7, 77, 0
9, 66030, Note_on_c, 7, 74, 66
9, 66059, Note_on_c, 7, 74, 0
9, 66060, Note_on_c, 7, 70, 66
9, 66089, Note_on_c, 7, 70, 0
9, 66090, Note_on_c, 7, 74, 66
9, 66119, Note_on_c, 7, 74, 0
9, 66120, Note_on_c, 7, 79, 66
9, 66149, Note_on_c, 7, 79, 0
9, 66150, Note_on_c, 7, 77, 66
9, 66179, Note_on_c, 7, 77, 0
9, 66180, Note_on_c, 7, 79, 66
9, 66209, Note_on_c, 7, 79, 0
9, 66210, Note_on_c, 7, 75, 66
9, 66239, Note_on_c, 7, 75, 0
9, 66240, Note_on_c, 7, 72, 66
9, 66269, Note_on_c, 7, 72, 0
9, 66270, Note_on_c, 7, 75, 66
9, 66299, Note_on_c, 7, 75, 0
9, 66300, Note_on_c, 7, 80, 66
9, 66329, Note_on_c, 7, 80, 0
9, 66330, Note_on_c, 7, 79, 66
9, 66359, Note_on_c, 7, 79, 0
9, 66360, Note_on_c, 7, 80, 66
9, 66389, Note_on_c, 7, 80, 0
9, 66390, Note_on_c, 7, 77, 66
9, 66419, Note_on_c, 7, 77, 0
9, 66420, Note_on_c, 7, 79, 66
9, 66449, Note_on_c, 7, 79, 0
9, 66450, Note_on_c, 7, 80, 66
9, 66479, Note_on_c, 7, 80, 0
9, 66480, Note_on_c, 7, 71, 66
9, 66539, Note_on_c, 7, 71, 0
9, 66540, Note_on_c, 7, 79, 66
9, 66599, Note_on_c, 7, 79, 0
9, 66600, Note_on_c, 7, 72, 66
9, 66719, Note_on_c, 7, 72, 0
9, 66720, Note_on_c, 7, 71, 66
9, 66749, Note_on_c, 7, 71, 0
9, 66750, Note_on_c, 7, 69, 66
9, 66779, Note_on_c, 7, 69, 0
9, 66780, Note_on_c, 7, 71, 66
9, 66839, Note_on_c, 7, 71, 0
9, 66840, Note_on_c, 7, 72, 66
9, 66869, Note_on_c, 7, 72, 0
9, 66870, Note_on_c, 7, 67, 66
9, 66899, Note_on_c, 7, 67, 0
9, 66900, Note_on_c, 7, 68, 66
9, 66929, Note_on_c, 7, 68, 0
9, 66930, Note_on_c, 7, 65, 66
9, 66959, Note_on_c, 7, 65, 0
9, 66960, Note_on_c, 7, 67, 66
9, 66989, Note_on_c, 7, 67, 0
9, 67020, Note_on_c, 7, 77, 66
9, 67049, Note_on_c, 7, 77, 0
9, 67080, Note_on_c, 7, 75, 66
9, 67109, Note_on_c, 7, 75, 0
9, 67140, Note_on_c, 7, 74, 66
9, 67169, Note_on_c, 7, 74, 0
9, 67200, Note_on_c, 7, 72, 66
9, 67319, Note_on_c, 7, 72, 0
9, 67380, Note_on_c, 7, 68, 66
9, 67409, Note_on_c, 7, 68, 0
9, 67440, Note_on_c, 7, 67, 66
9, 67469, Note_on_c, 7, 67, 0
9, 67500, Note_on_c, 7, 65, 66
9, 67529, Note_on_c, 7, 65, 0
9, 67560, Note_on_c, 7, 63, 66
9, 67589, Note_on_c, 7, 63, 0
9, 67590, Note_on_c, 7, 62, 66
9, 67619, Note_on_c, 7, 62, 0
9, 67620, Note_on_c, 7, 63, 66
9, 67649, Note_on_c, 7, 63, 0
9, 67650, Note_on_c, 7, 65, 66
9, 67679, Note_on_c, 7, 65, 0
9, 67680, Note_on_c, 7, 67, 66
9, 67709, Note_on_c, 7, 67, 0
9, 67710, Note_on_c, 7, 68, 66
9, 67739, Note_on_c, 7, 68, 0
9, 67740, Note_on_c, 7, 70, 66
9, 67769, Note_on_c, 7, 70, 0
9, 67770, Note_on_c, 7, 73, 66
9, 67799, Note_on_c, 7, 73, 0
9, 67800, Note_on_c, 7, 72, 66
9, 67829, Note_on_c, 7, 72, 0
9, 67830, Note_on_c, 7, 70, 66
9, 67859, Note_on_c, 7, 70, 0
9, 67860, Note_on_c, 7, 68, 66
9, 67889, Note_on_c, 7, 68, 0
9, 67890, Note_on_c, 7, 67, 66
9, 67919, Note_on_c, 7, 67, 0
9, 67920, Note_on_c, 7, 68, 66
9, 68039, Note_on_c, 7, 68, 0
9, 68160, Note_on_c, 7, 68, 66
9, 68310, Note_on_c, 7, 68, 0
9, 68310, Note_on_c, 7, 65, 66
9, 68339, Note_on_c, 7, 65, 0
9, 68340, Note_on_c, 7, 67, 66
9, 68369, Note_on_c, 7, 67, 0
9, 68370, Note_on_c, 7, 68, 66
9, 68399, Note_on_c, 7, 68, 0
9, 68400, Note_on_c, 7, 70, 66
9, 68429, Note_on_c, 7, 70, 0
9, 68430, Note_on_c, 7, 72, 66
9, 68459, Note_on_c, 7, 72, 0
9, 68460, Note_on_c, 7, 73, 66
9, 68489, Note_on_c, 7, 73, 0
9, 68490, Note_on_c, 7, 77, 66
9, 68519, Note_on_c, 7, 77, 0
9, 68520, Note_on_c, 7, 75, 66
9, 68549, Note_on_c, 7, 75, 0
9, 68550, Note_on_c, 7, 73, 66
9, 68579, Note_on_c, 7, 73, 0
9, 68580, Note_on_c, 7, 72, 66
9, 68609, Note_on_c, 7, 72, 0
9, 68610, Note_on_c, 7, 70, 66
9, 68639, Note_on_c, 7, 70, 0
9, 68640, Note_on_c, 7, 72, 66
9, 68699, Note_on_c, 7, 72, 0
9, 68700, Note_on_c, 7, 77, 66
9, 68879, Note_on_c, 7, 77, 0
9, 68880, Note_on_c, 7, 79, 66
9, 68939, Note_on_c, 7, 79, 0
9, 68940, Note_on_c, 7, 80, 66
9, 68999, Note_on_c, 7, 80, 0
9, 69000, Note_on_c, 7, 75, 66
9, 69239, Note_on_c, 7, 75, 0
9, 69240, Note_on_c, 7, 79, 66
9, 69299, Note_on_c, 7, 79, 0
9, 69300, Note_on_c, 7, 80, 66
9, 69359, Note_on_c, 7, 80, 0
9, 69360, Note_on_c, 7, 73, 66
9, 69599, Note_on_c, 7, 73, 0
9, 69600, Note_on_c, 7, 79, 66
9, 69689, Note_on_c, 7, 79, 0
9, 69690, Note_on_c, 7, 80, 66
9, 69704, Note_on_c, 7, 80, 0
9, 69705, Note_on_c, 7, 82, 66
9, 69719, Note_on_c, 7, 82, 0
9, 69720, Note_on_c, 7, 72, 66
9, 69749, Note_on_c, 7, 72, 0
9, 69750, Note_on_c, 7, 70, 66
9, 69779, Note_on_c, 7, 70, 0
9, 69780, Note_on_c, 7, 72, 66
9, 69809, Note_on_c, 7, 72, 0
9, 69810, Note_on_c, 7, 68, 66
9, 69839, Note_on_c, 7, 68, 0
9, 69840, Note_on_c, 7, 63, 66
9, 69869, Note_on_c, 7, 63, 0
9, 69870, Note_on_c, 7, 68, 66
9, 69899, Note_on_c, 7, 68, 0
9, 69900, Note_on_c, 7, 72, 66
9, 69929, Note_on_c, 7, 72, 0
9, 69930, Note_on_c, 7, 70, 66
9, 69959, Note_on_c, 7, 70, 0
9, 69960, Note_on_c, 7, 72, 66
9, 69989, Note_on_c, 7, 72, 0
9, 69990, Note_on_c, 7, 68, 66
9, 70019, Note_on_c, 7, 68, 0
9, 70020, Note_on_c, 7, 63, 66
9, 70049, Note_on_c, 7, 63, 0
9, 70050, Note_on_c, 7, 68, 66
9, 70079, Note_on_c, 7, 68, 0
9, 70080, Note_on_c, 7, 72, 66
9, 70109, Note_on_c, 7, 72, 0
9, 70110, Note_on_c, 7, 70, 66
9, 70139, Note_on_c, 7, 70, 0
9, 70140, Note_on_c, 7, 72, 66
9, 70169, Note_on_c, 7, 72, 0
9, 70170, Note_on_c, 7, 69, 66
9, 70199, Note_on_c, 7, 69, 0
9, 70200, Note_on_c, 7, 63, 66
9, 70229, Note_on_c, 7, 63, 0
9, 70230, Note_on_c, 7, 69, 66
9, 70259, Note_on_c, 7, 69, 0
9, 70260, Note_on_c, 7, 72, 66
9, 70289, Note_on_c, 7, 72, 0
9, 70290, Note_on_c, 7, 70, 66
9, 70319, Note_on_c, 7, 70, 0
9, 70320, Note_on_c, 7, 72, 66
9, 70349, Note_on_c, 7, 72, 0
9, 70350, Note_on_c, 7, 69, 66
9, 70379, Note_on_c, 7, 69, 0
9, 70380, Note_on_c, 7, 63, 66
9, 70409, Note_on_c, 7, 63, 0
9, 70410, Note_on_c, 7, 69, 66
9, 70439, Note_on_c, 7, 69, 0
9, 70440, Note_on_c, 7, 70, 66
9, 70499, Note_on_c, 7, 70, 0
9, 70500, Note_on_c, 7, 65, 66
9, 70559, Note_on_c, 7, 65, 0
9, 70560, Note_on_c, 7, 61, 66
9, 70619, Note_on_c, 7, 61, 0
9, 70620, Note_on_c, 7, 65, 66
9, 70679, Note_on_c, 7, 65, 0
9, 70680, Note_on_c, 7, 70, 66
9, 70739, Note_on_c, 7, 70, 0
9, 70740, Note_on_c, 7, 73, 66
9, 70799, Note_on_c, 7, 73, 0
9, 70800, Note_on_c, 7, 71, 66
9, 70859, Note_on_c, 7, 71, 0
9, 70860, Note_on_c, 7, 65, 66
9, 70919, Note_on_c, 7, 65, 0
9, 70920, Note_on_c, 7, 62, 66
9, 70979, Note_on_c, 7, 62, 0
9, 70980, Note_on_c, 7, 65, 66
9, 71039, Note_on_c, 7, 65, 0
9, 71040, Note_on_c, 7, 71, 66
9, 71099, Note_on_c, 7, 71, 0
9, 71100, Note_on_c, 7, 74, 66
9, 71159, Note_on_c, 7, 74, 0
9, 71160, Note_on_c, 7, 75, 66
9, 71189, Note_on_c, 7, 75, 0
9, 71190, Note_on_c, 7, 74, 66
9, 71219, Note_on_c, 7, 74, 0
9, 71220, Note_on_c, 7, 72, 66
9, 71249, Note_on_c, 7, 72, 0
9, 71250, Note_on_c, 7, 71, 66
9, 71279, Note_on_c, 7, 71, 0
9, 71280, Note_on_c, 7, 72, 66
9, 71339, Note_on_c, 7, 72, 0
9, 71520, Note_on_c, 7, 75, 66
9, 71759, Note_on_c, 7, 75, 0
9, 71760, Note_on_c, 7, 74, 66
9, 71819, Note_on_c, 7, 74, 0
9, 71820, Note_on_c, 7, 72, 66
9, 71879, Note_on_c, 7, 72, 0
9, 71880, Note_on_c, 7, 70, 66
9, 72119, Note_on_c, 7, 70, 0
9, 72120, Note_on_c, 7, 68, 66
9, 72179, Note_on_c, 7, 68, 0
9, 72180, Note_on_c, 7, 67, 66
9, 72239, Note_on_c, 7, 67, 0
9, 72240, Note_on_c, 7, 65, 66
9, 72299, Note_on_c, 7, 65, 0
9, 72300, Note_on_c, 7, 62, 66
9, 72359, Note_on_c, 7, 62, 0
9, 72360, Note_on_c, 7, 63, 66
9, 72419, Note_on_c, 7, 63, 0
9, 72420, Note_on_c, 7, 68, 66
9, 72659, Note_on_c, 7, 68, 0
9, 72660, Note_on_c, 7, 67, 66
9, 72719, Note_on_c, 7, 67, 0
9, 72720, Note_on_c, 7, 70, 66
9, 72779, Note_on_c, 7, 70, 0
9, 72780, Note_on_c, 7, 75, 66
9, 72839, Note_on_c, 7, 75, 0
9, 72840, Note_on_c, 7, 77, 66
9, 72869, Note_on_c, 7, 77, 0
9, 72870, Note_on_c, 7, 75, 66
9, 72899, Note_on_c, 7, 75, 0
9, 72900, Note_on_c, 7, 74, 66
9, 72929, Note_on_c, 7, 74, 0
9, 72930, Note_on_c, 7, 72, 66
9, 72959, Note_on_c, 7, 72, 0
9, 72960, Note_on_c, 7, 74, 66
9, 72989, Note_on_c, 7, 74, 0
9, 72990, Note_on_c, 7, 72, 66
9, 73019, Note_on_c, 7, 72, 0
9, 73020, Note_on_c, 7, 74, 66
9, 73049, Note_on_c, 7, 74, 0
9, 73050, Note_on_c, 7, 70, 66
9, 73079, Note_on_c, 7, 70, 0
9, 73080, Note_on_c, 7, 65, 66
9, 73109, Note_on_c, 7, 65, 0
9, 73110, Note_on_c, 7, 70, 66
9, 73139, Note_on_c, 7, 70, 0
9, 73140, Note_on_c, 7, 75, 66
9, 73169, Note_on_c, 7, 75, 0
9, 73170, Note_on_c, 7, 74, 66
9, 73199, Note_on_c, 7, 74, 0
9, 73200, Note_on_c, 7, 75, 66
9, 73229, Note_on_c, 7, 75, 0
9, 73230, Note_on_c, 7, 72, 66
9, 73259, Note_on_c, 7, 72, 0
9, 73260, Note_on_c, 7, 69, 66
9, 73289, Note_on_c, 7, 69, 0
9, 73290, Note_on_c, 7, 72, 66
9, 73319, Note_on_c, 7, 72, 0
9, 73320, Note_on_c, 7, 77, 66
9, 73349, Note_on_c, 7, 77, 0
9, 73350, Note_on_c, 7, 75, 66
9, 73379, Note_on_c, 7, 75, 0
9, 73380, Note_on_c, 7, 77, 66
9, 73409, Note_on_c, 7, 77, 0
9, 73410, Note_on_c, 7, 74, 66
9, 73439, Note_on_c, 7, 74, 0
9, 73440, Note_on_c, 7, 70, 66
9, 73469, Note_on_c, 7, 70, 0
9, 73470, Note_on_c, 7, 74, 66
9, 73499, Note_on_c, 7, 74, 0
9, 73500, Note_on_c, 7, 79, 66
9, 73529, Note_on_c, 7, 79, 0
9, 73530, Note_on_c, 7, 77, 66
9, 73559, Note_on_c, 7, 77, 0
9, 73560, Note_on_c, 7, 79, 66
9, 73589, Note_on_c, 7, 79, 0
9, 73590, Note_on_c, 7, 75, 66
9, 73619, Note_on_c, 7, 75, 0
9, 73620, Note_on_c, 7, 77, 66
9, 73649, Note_on_c, 7, 77, 0
9, 73650, Note_on_c, 7, 79, 66
9, 73679, Note_on_c, 7, 79, 0
9, 73680, Note_on_c, 7, 69, 66
9, 73739, Note_on_c, 7, 69, 0
9, 73740, Note_on_c, 7, 77, 66
9, 73799, Note_on_c, 7, 77, 0
9, 73800, Note_on_c, 7, 70, 66
9, 73919, Note_on_c, 7, 70, 0
9, 73920, Note_on_c, 7, 69, 66
9, 73949, Note_on_c, 7, 69, 0
9, 73950, Note_on_c, 7, 67, 66
9, 73979, Note_on_c, 7, 67, 0
9, 73980, Note_on_c, 7, 69, 66
9, 74039, Note_on_c, 7, 69, 0
9, 74040, Note_on_c, 7, 70, 66
9, 74069, Note_on_c, 7, 70, 0
9, 74070, Note_on_c, 7, 69, 66
9, 74099, Note_on_c, 7, 69, 0
9, 74100, Note_on_c, 7, 70, 66
9, 74129, Note_on_c, 7, 70, 0
9, 74130, Note_on_c, 7, 65, 66
9, 74159, Note_on_c, 7, 65, 0
9, 74160, Note_on_c, 7, 62, 66
9, 74189, Note_on_c, 7, 62, 0
9, 74190, Note_on_c, 7, 65, 66
9, 74219, Note_on_c, 7, 65, 0
9, 74220, Note_on_c, 7, 63, 66
9, 74249, Note_on_c, 7, 63, 0
9, 74250, Note_on_c, 7, 65, 66
9, 74279, Note_on_c, 7, 65, 0
9, 74280, Note_on_c, 7, 67, 66
9, 74309, Note_on_c, 7, 67, 0
9, 74310, Note_on_c, 7, 68, 66
9, 74339, Note_on_c, 7, 68, 0
9, 74340, Note_on_c, 7, 70, 66
9, 74369, Note_on_c, 7, 70, 0
9, 74370, Note_on_c, 7, 67, 66
9, 74399, Note_on_c, 7, 67, 0
9, 74400, Note_on_c, 7, 63, 66
9, 74429, Note_on_c, 7, 63, 0
9, 74430, Note_on_c, 7, 61, 66
9, 74459, Note_on_c, 7, 61, 0
9, 74460, Note_on_c, 7, 63, 66
9, 74489, Note_on_c, 7, 63, 0
9, 74490, Note_on_c, 7, 68, 66
9, 74519, Note_on_c, 7, 68, 0
9, 74520, Note_on_c, 7, 60, 66
9, 74549, Note_on_c, 7, 60, 0
9, 74550, Note_on_c, 7, 63, 66
9, 74579, Note_on_c, 7, 63, 0
9, 74580, Note_on_c, 7, 62, 66
9, 74609, Note_on_c, 7, 62, 0
9, 74610, Note_on_c, 7, 63, 66
9, 74639, Note_on_c, 7, 63, 0
9, 74640, Note_on_c, 7, 65, 66
9, 74669, Note_on_c, 7, 65, 0
9, 74670, Note_on_c, 7, 67, 66
9, 74699, Note_on_c, 7, 67, 0
9, 74700, Note_on_c, 7, 68, 66
9, 74729, Note_on_c, 7, 68, 0
9, 74730, Note_on_c, 7, 65, 66
9, 74759, Note_on_c, 7, 65, 0
9, 74760, Note_on_c, 7, 62, 66
9, 74789, Note_on_c, 7, 62, 0
9, 74790, Note_on_c, 7, 60, 66
9, 74819, Note_on_c, 7, 60, 0
9, 74820, Note_on_c, 7, 62, 66
9, 74849, Note_on_c, 7, 62, 0
9, 74850, Note_on_c, 7, 67, 66
9, 74879, Note_on_c, 7, 67, 0
9, 74880, Note_on_c, 7, 58, 66
9, 74909, Note_on_c, 7, 58, 0
9, 74910, Note_on_c, 7, 62, 66
9, 74939, Note_on_c, 7, 62, 0
9, 74940, Note_on_c, 7, 60, 66
9, 74969, Note_on_c, 7, 60, 0
9, 74970, Note_on_c, 7, 62, 66
9, 74999, Note_on_c, 7, 62, 0
9, 75000, Note_on_c, 7, 63, 66
9, 75029, Note_on_c, 7, 63, 0
9, 75030, Note_on_c, 7, 65, 66
9, 75059, Note_on_c, 7, 65, 0
9, 75060, Note_on_c, 7, 67, 66
9, 75089, Note_on_c, 7, 67, 0
9, 75090, Note_on_c, 7, 63, 66
9, 75119, Note_on_c, 7, 63, 0
9, 75120, Note_on_c, 7, 60, 66
9, 75149, Note_on_c, 7, 60, 0
9, 75150, Note_on_c, 7, 58, 66
9, 75179, Note_on_c, 7, 58, 0
9, 75180, Note_on_c, 7, 60, 66
9, 75209, Note_on_c, 7, 60, 0
9, 75210, Note_on_c, 7, 65, 66
9, 75239, Note_on_c, 7, 65, 0
9, 75240, Note_on_c, 7, 56, 66
9, 75269, Note_on_c, 7, 56, 0
9, 75270, Note_on_c, 7, 60, 66
9, 75299, Note_on_c, 7, 60, 0
9, 75300, Note_on_c, 7, 58, 66
9, 75329, Note_on_c, 7, 58, 0
9, 75330, Note_on_c, 7, 60, 66
9, 75359, Note_on_c, 7, 60, 0
9, 75360, Note_on_c, 7, 62, 66
9, 75389, Note_on_c, 7, 62, 0
9, 75390, Note_on_c, 7, 63, 66
9, 75419, Note_on_c, 7, 63, 0
9, 75420, Note_on_c, 7, 65, 66
9, 75449, Note_on_c, 7, 65, 0
9, 75450, Note_on_c, 7, 62, 66
9, 75479, Note_on_c, 7, 62, 0
9, 75480, Note_on_c, 7, 63, 66
9, 75509, Note_on_c, 7, 63, 0
9, 75510, Note_on_c, 7, 58, 66
9, 75539, Note_on_c, 7, 58, 0
9, 75540, Note_on_c, 7, 60, 66
9, 75569, Note_on_c, 7, 60, 0
9, 75570, Note_on_c, 7, 56, 66
9, 75599, Note_on_c, 7, 56, 0
9, 75600, Note_on_c, 7, 58, 66
9, 75629, Note_on_c, 7, 58, 0
9, 75660, Note_on_c, 7, 68, 66
9, 75689, Note_on_c, 7, 68, 0
9, 75720, Note_on_c, 7, 67, 66
9, 75749, Note_on_c, 7, 67, 0
9, 75780, Note_on_c, 7, 65, 66
9, 75809, Note_on_c, 7, 65, 0
9, 75840, Note_on_c, 7, 63, 66
9, 75959, Note_on_c, 7, 63, 0
9, 76020, Note_on_c, 7, 60, 66
9, 76049, Note_on_c, 7, 60, 0
9, 76080, Note_on_c, 7, 58, 66
9, 76109, Note_on_c, 7, 58, 0
9, 76140, Note_on_c, 7, 56, 66
9, 76169, Note_on_c, 7, 56, 0
9, 76200, Note_on_c, 7, 55, 66
9, 76229, Note_on_c, 7, 55, 0
9, 76230, Note_on_c, 7, 58, 66
9, 76259, Note_on_c, 7, 58, 0
9, 76260, Note_on_c, 7, 63, 66
9, 76289, Note_on_c, 7, 63, 0
9, 76290, Note_on_c, 7, 65, 66
9, 76319, Note_on_c, 7, 65, 0
9, 76320, Note_on_c, 7, 67, 66
9, 76349, Note_on_c, 7, 67, 0
9, 76350, Note_on_c, 7, 68, 66
9, 76379, Note_on_c, 7, 68, 0
9, 76380, Note_on_c, 7, 70, 66
9, 76499, Note_on_c, 7, 70, 0
9, 76500, Note_on_c, 7, 61, 66
9, 76619, Note_on_c, 7, 61, 0
9, 76620, Note_on_c, 7, 60, 66
9, 76679, Note_on_c, 7, 60, 0
9, 76680, Note_on_c, 7, 63, 66
9, 76739, Note_on_c, 7, 63, 0
9, 76740, Note_on_c, 7, 68, 66
9, 76859, Note_on_c, 7, 68, 0
9, 76860, Note_on_c, 7, 60, 66
9, 76979, Note_on_c, 7, 60, 0
9, 76980, Note_on_c, 7, 58, 66
9, 77039, Note_on_c, 7, 58, 0
9, 77040, Note_on_c, 7, 62, 66
9, 77099, Note_on_c, 7, 62, 0
9, 77100, Note_on_c, 7, 67, 66
9, 77219, Note_on_c, 7, 67, 0
9, 77220, Note_on_c, 7, 58, 66
9, 77339, Note_on_c, 7, 58, 0
9, 77340, Note_on_c, 7, 56, 66
9, 77399, Note_on_c, 7, 56, 0
9, 77400, Note_on_c, 7, 60, 66
9, 77459, Note_on_c, 7, 60, 0
9, 77460, Note_on_c, 7, 65, 66
9, 77579, Note_on_c, 7, 65, 0
9, 77580, Note_on_c, 7, 56, 66
9, 77699, Note_on_c, 7, 56, 0
9, 77700, Note_on_c, 7, 55, 66
9, 77759, Note_on_c, 7, 55, 0
9, 77760, Note_on_c, 7, 63, 66
9, 77879, Note_on_c, 7, 63, 0
9, 77880, Note_on_c, 7, 65, 66
9, 77939, Note_on_c, 7, 65, 0
9, 77940, Note_on_c, 7, 62, 66
9, 77999, Note_on_c, 7, 62, 0
9, 78000, Note_on_c, 7, 55, 66
9, 78000, Note_on_c, 7, 58, 66
9, 78000, Note_on_c, 7, 63, 66
9, 78179, Note_on_c, 7, 63, 0
9, 78179, Note_on_c, 7, 58, 0
9, 78179, Note_on_c, 7, 55, 0
9, 79560, Note_on_c, 7, 72, 66
9, 79589, Note_on_c, 7, 72, 0
9, 79590, Note_on_c, 7, 71, 66
9, 79619, Note_on_c, 7, 71, 0
9, 79620, Note_on_c, 7, 72, 66
9, 79649, Note_on_c, 7, 72, 0
9, 79650, Note_on_c, 7, 67, 66
9, 79679, Note_on_c, 7, 67, 0
9, 79680, Note_on_c, 7, 68, 66
9, 79709, Note_on_c, 7, 68, 0
9, 79710, Note_on_c, 7, 65, 66
9, 79739, Note_on_c, 7, 65, 0
9, 79740, Note_on_c, 7, 67, 66
9, 79769, Note_on_c, 7, 67, 0
9, 79770, Note_on_c, 7, 63, 66
9, 79799, Note_on_c, 7, 63, 0
9, 79800, Note_on_c, 7, 65, 66
9, 79829, Note_on_c, 7, 65, 0
9, 79830, Note_on_c, 7, 62, 66
9, 79859, Note_on_c, 7, 62, 0
9, 79860, Note_on_c, 7, 63, 66
9, 79889, Note_on_c, 7, 63, 0
9, 79890, Note_on_c, 7, 60, 66
9, 79919, Note_on_c, 7, 60, 0
9, 79920, Note_on_c, 7, 62, 66
9, 79949, Note_on_c, 7, 62, 0
9, 79950, Note_on_c, 7, 59, 66
9, 79979, Note_on_c, 7, 59, 0
9, 79980, Note_on_c, 7, 60, 66
9, 80009, Note_on_c, 7, 60, 0
9, 80010, Note_on_c, 7, 63, 66
9, 80039, Note_on_c, 7, 63, 0
9, 80040, Note_on_c, 7, 62, 66
9, 80069, Note_on_c, 7, 62, 0
9, 80070, Note_on_c, 7, 65, 66
9, 80099, Note_on_c, 7, 65, 0
9, 80100, Note_on_c, 7, 63, 66
9, 80159, Note_on_c, 7, 63, 0
9, 80160, Note_on_c, 7, 67, 66
9, 80175, Note_on_c, 7, 67, 0
9, 80175, Note_on_c, 7, 65, 66
9, 80190, Note_on_c, 7, 65, 0
9, 80190, Note_on_c, 7, 63, 66
9, 80205, Note_on_c, 7, 63, 0
9, 80205, Note_on_c, 7, 65, 66
9, 80220, Note_on_c, 7, 65, 0
9, 80220, Note_on_c, 7, 67, 66
9, 80279, Note_on_c, 7, 67, 0
9, 80280, Note_on_c, 7, 69, 66
9, 80309, Note_on_c, 7, 69, 0
9, 80310, Note_on_c, 7, 71, 66
9, 80339, Note_on_c, 7, 71, 0
9, 80340, Note_on_c, 7, 72, 66
9, 80369, Note_on_c, 7, 72, 0
9, 80370, Note_on_c, 7, 71, 66
9, 80399, Note_on_c, 7, 71, 0
9, 80400, Note_on_c, 7, 72, 66
9, 80429, Note_on_c, 7, 72, 0
9, 80430, Note_on_c, 7, 71, 66
9, 80459, Note_on_c, 7, 71, 0
9, 80460, Note_on_c, 7, 72, 66
9, 80519, Note_on_c, 7, 72, 0
9, 80520, Note_on_c, 7, 72, 66
9, 80579, Note_on_c, 7, 72, 0
9, 80580, Note_on_c, 7, 72, 66
9, 80595, Note_on_c, 7, 72, 0
9, 80595, Note_on_c, 7, 74, 66
9, 80610, Note_on_c, 7, 74, 0
9, 80610, Note_on_c, 7, 72, 66
9, 80640, Note_on_c, 7, 72, 0
9, 80640, Note_on_c, 7, 71, 66
9, 80699, Note_on_c, 7, 71, 0
9, 81000, Note_on_c, 7, 67, 66
9, 81029, Note_on_c, 7, 67, 0
9, 81030, Note_on_c, 7, 68, 66
9, 81059, Note_on_c, 7, 68, 0
9, 81060, Note_on_c, 7, 70, 66
9, 81119, Note_on_c, 7, 70, 0
9, 81120, Note_on_c, 7, 68, 66
9, 81179, Note_on_c, 7, 68, 0
9, 81180, Note_on_c, 7, 73, 66
9, 81239, Note_on_c, 7, 73, 0
9, 81240, Note_on_c, 7, 72, 66
9, 81299, Note_on_c, 7, 72, 0
9, 81300, Note_on_c, 7, 64, 66
9, 81359, Note_on_c, 7, 64, 0
9, 81360, Note_on_c, 7, 65, 66
9, 81419, Note_on_c, 7, 65, 0
9, 81420, Note_on_c, 7, 70, 66
9, 81449, Note_on_c, 7, 70, 0
9, 81450, Note_on_c, 7, 67, 66
9, 81479, Note_on_c, 7, 67, 0
9, 81480, Note_on_c, 7, 68, 66
9, 81539, Note_on_c, 7, 68, 0
9, 81720, Note_on_c, 7, 69, 66
9, 81749, Note_on_c, 7, 69, 0
9, 81750, Note_on_c, 7, 70, 66
9, 81779, Note_on_c, 7, 70, 0
9, 81780, Note_on_c, 7, 72, 66
9, 81839, Note_on_c, 7, 72, 0
9, 81840, Note_on_c, 7, 70, 66
9, 81899, Note_on_c, 7, 70, 0
9, 81900, Note_on_c, 7, 75, 66
9, 81959, Note_on_c, 7, 75, 0
9, 81960, Note_on_c, 7, 74, 66
9, 82019, Note_on_c, 7, 74, 0
9, 82020, Note_on_c, 7, 66, 66
9, 82079, Note_on_c, 7, 66, 0
9, 82080, Note_on_c, 7, 67, 66
9, 82139, Note_on_c, 7, 67, 0
9, 82140, Note_on_c, 7, 72, 66
9, 82169, Note_on_c, 7, 72, 0
9, 82170, Note_on_c, 7, 69, 66
9, 82199, Note_on_c, 7, 69, 0
9, 82200, Note_on_c, 7, 71, 66
9, 82259, Note_on_c, 7, 71, 0
9, 82440, Note_on_c, 7, 79, 66
9, 82469, Note_on_c, 7, 79, 0
9, 82470, Note_on_c, 7, 78, 66
9, 82499, Note_on_c, 7, 78, 0
9, 82500, Note_on_c, 7, 79, 66
9, 82529, Note_on_c, 7, 79, 0
9, 82530, Note_on_c, 7, 74, 66
9, 82559, Note_on_c, 7, 74, 0
9, 82560, Note_on_c, 7, 75, 66
9, 82589, Note_on_c, 7, 75, 0
9, 82590, Note_on_c, 7, 72, 66
9, 82619, Note_on_c, 7, 72, 0
9, 82620, Note_on_c, 7, 74, 66
9, 82649, Note_on_c, 7, 74, 0
9, 82650, Note_on_c, 7, 71, 66
9, 82679, Note_on_c, 7, 71, 0
9, 82680, Note_on_c, 7, 67, 66
9, 82739, Note_on_c, 7, 67, 0
9, 82800, Note_on_c, 7, 79, 66
9, 82829, Note_on_c, 7, 79, 0
9, 82830, Note_on_c, 7, 75, 66
9, 82859, Note_on_c, 7, 75, 0
9, 82860, Note_on_c, 7, 77, 66
9, 82889, Note_on_c, 7, 77, 0
9, 82890, Note_on_c, 7, 74, 66
9, 82919, Note_on_c, 7, 74, 0
9, 82920, Note_on_c, 7, 75, 66
9, 82949, Note_on_c, 7, 75, 0
9, 82950, Note_on_c, 7, 72, 66
9, 82979, Note_on_c, 7, 72, 0
9, 82980, Note_on_c, 7, 74, 66
9, 83009, Note_on_c, 7, 74, 0
9, 83010, Note_on_c, 7, 71, 66
9, 83039, Note_on_c, 7, 71, 0
9, 83040, Note_on_c, 7, 67, 66
9, 83099, Note_on_c, 7, 67, 0
9, 83160, Note_on_c, 7, 68, 66
9, 83179, Note_on_c, 7, 68, 0
9, 83180, Note_on_c, 7, 67, 66
9, 83199, Note_on_c, 7, 67, 0
9, 83200, Note_on_c, 7, 65, 66
9, 83219, Note_on_c, 7, 65, 0
9, 83220, Note_on_c, 7, 67, 66
9, 83300, Note_on_c, 7, 67, 0
9, 83300, Note_on_c, 7, 65, 66
9, 83319, Note_on_c, 7, 65, 0
9, 83320, Note_on_c, 7, 63, 66
9, 83339, Note_on_c, 7, 63, 0
9, 83340, Note_on_c, 7, 65, 66
9, 83369, Note_on_c, 7, 65, 0
9, 83370, Note_on_c, 7, 63, 66
9, 83399, Note_on_c, 7, 63, 0
9, 83400, Note_on_c, 7, 65, 66
9, 83429, Note_on_c, 7, 65, 0
9, 83430, Note_on_c, 7, 63, 66
9, 83459, Note_on_c, 7, 63, 0
9, 83460, Note_on_c, 7, 65, 66
9, 83519, Note_on_c, 7, 65, 0
9, 83640, Note_on_c, 7, 71, 66
9, 83659, Note_on_c, 7, 71, 0
9, 83660, Note_on_c, 7, 72, 66
9, 83679, Note_on_c, 7, 72, 0
9, 83680, Note_on_c, 7, 74, 66
9, 83699, Note_on_c, 7, 74, 0
9, 83700, Note_on_c, 7, 74, 66
9, 83719, Note_on_c, 7, 74, 0
9, 83720, Note_on_c, 7, 75, 66
9, 83739, Note_on_c, 7, 75, 0
9, 83740, Note_on_c, 7, 77, 66
9, 83759, Note_on_c, 7, 77, 0
9, 83760, Note_on_c, 7, 77, 66
9, 83779, Note_on_c, 7, 77, 0
9, 83780, Note_on_c, 7, 75, 66
9, 83799, Note_on_c, 7, 75, 0
9, 83800, Note_on_c, 7, 74, 66
9, 83819, Note_on_c, 7, 74, 0
9, 83820, Note_on_c, 7, 75, 66
9, 83879, Note_on_c, 7, 75, 0
9, 84000, Note_on_c, 7, 72, 66
9, 84019, Note_on_c, 7, 72, 0
9, 84020, Note_on_c, 7, 74, 66
9, 84039, Note_on_c, 7, 74, 0
9, 84040, Note_on_c, 7, 75, 66
9, 84059, Note_on_c, 7, 75, 0
9, 84060, Note_on_c, 7, 75, 66
9, 84079, Note_on_c, 7, 75, 0
9, 84080, Note_on_c, 7, 77, 66
9, 84099, Note_on_c, 7, 77, 0
9, 84100, Note_on_c, 7, 79, 66
9, 84119, Note_on_c, 7, 79, 0
9, 84120, Note_on_c, 7, 79, 66
9, 84139, Note_on_c, 7, 79, 0
9, 84140, Note_on_c, 7, 77, 66
9, 84159, Note_on_c, 7, 77, 0
9, 84160, Note_on_c, 7, 75, 66
9, 84179, Note_on_c, 7, 75, 0
9, 84180, Note_on_c, 7, 77, 66
9, 84239, Note_on_c, 7, 77, 0
9, 84360, Note_on_c, 7, 59, 66
9, 84379, Note_on_c, 7, 59, 0
9, 84380, Note_on_c, 7, 60, 66
9, 84399, Note_on_c, 7, 60, 0
9, 84400, Note_on_c, 7, 62, 66
9, 84419, Note_on_c, 7, 62, 0
9, 84420, Note_on_c, 7, 62, 66
9, 84439, Note_on_c, 7, 62, 0
9, 84440, Note_on_c, 7, 63, 66
9, 84459, Note_on_c, 7, 63, 0
9, 84460, Note_on_c, 7, 65, 66
9, 84479, Note_on_c, 7, 65, 0
9, 84480, Note_on_c, 7, 65, 66
9, 84499, Note_on_c, 7, 65, 0
9, 84500, Note_on_c, 7, 63, 66
9, 84519, Note_on_c, 7, 63, 0
9, 84520, Note_on_c, 7, 62, 66
9, 84539, Note_on_c, 7, 62, 0
9, 84540, Note_on_c, 7, 60, 66
9, 84569, Note_on_c, 7, 60, 0
9, 84570, Note_on_c, 7, 63, 66
9, 84599, Note_on_c, 7, 63, 0
9, 84600, Note_on_c, 7, 62, 66
9, 84629, Note_on_c, 7, 62, 0
9, 84630, Note_on_c, 7, 63, 66
9, 84659, Note_on_c, 7, 63, 0
9, 84660, Note_on_c, 7, 65, 66
9, 84689, Note_on_c, 7, 65, 0
9, 84690, Note_on_c, 7, 63, 66
9, 84719, Note_on_c, 7, 63, 0
9, 84720, Note_on_c, 7, 62, 66
9, 84749, Note_on_c, 7, 62, 0
9, 84750, Note_on_c, 7, 63, 66
9, 84779, Note_on_c, 7, 63, 0
9, 84780, Note_on_c, 7, 68, 66
9, 84809, Note_on_c, 7, 68, 0
9, 84840, Note_on_c, 7, 65, 66
9, 84869, Note_on_c, 7, 65, 0
9, 84900, Note_on_c, 7, 67, 66
9, 84929, Note_on_c, 7, 67, 0
9, 84930, Note_on_c, 7, 63, 66
9, 84959, Note_on_c, 7, 63, 0
9, 84960, Note_on_c, 7, 62, 66
9, 84989, Note_on_c, 7, 62, 0
9, 84990, Note_on_c, 7, 63, 66
9, 85019, Note_on_c, 7, 63, 0
9, 85020, Note_on_c, 7, 60, 66
9, 85049, Note_on_c, 7, 60, 0
9, 85050, Note_on_c, 7, 63, 66
9, 85079, Note_on_c, 7, 63, 0
9, 85080, Note_on_c, 7, 62, 66
9, 85109, Note_on_c, 7, 62, 0
9, 85110, Note_on_c, 7, 63, 66
9, 85139, Note_on_c, 7, 63, 0
9, 85140, Note_on_c, 7, 67, 66
9, 85169, Note_on_c, 7, 67, 0
9, 85200, Note_on_c, 7, 63, 66
9, 85229, Note_on_c, 7, 63, 0
9, 85260, Note_on_c, 7, 65, 66
9, 85289, Note_on_c, 7, 65, 0
9, 85290, Note_on_c, 7, 68, 66
9, 85319, Note_on_c, 7, 68, 0
9, 85320, Note_on_c, 7, 67, 66
9, 85349, Note_on_c, 7, 67, 0
9, 85350, Note_on_c, 7, 68, 66
9, 85379, Note_on_c, 7, 68, 0
9, 85380, Note_on_c, 7, 65, 66
9, 85409, Note_on_c, 7, 65, 0
9, 85410, Note_on_c, 7, 68, 66
9, 85439, Note_on_c, 7, 68, 0
9, 85440, Note_on_c, 7, 67, 66
9, 85469, Note_on_c, 7, 67, 0
9, 85470, Note_on_c, 7, 68, 66
9, 85499, Note_on_c, 7, 68, 0
9, 85500, Note_on_c, 7, 65, 66
9, 85529, Note_on_c, 7, 65, 0
9, 85560, Note_on_c, 7, 62, 66
9, 85589, Note_on_c, 7, 62, 0
9, 85620, Note_on_c, 7, 63, 66
9, 85679, Note_on_c, 7, 63, 0
9, 85680, Note_on_c, 7, 67, 66
9, 85739, Note_on_c, 7, 67, 0
9, 85740, Note_on_c, 7, 72, 66
9, 85799, Note_on_c, 7, 72, 0
9, 85800, Note_on_c, 7, 75, 66
9, 85860, Note_on_c, 7, 75, 0
9, 85860, Note_on_c, 7, 79, 66
9, 85875, Note_on_c, 7, 79, 0
9, 85875, Note_on_c, 7, 78, 66
9, 85890, Note_on_c, 7, 78, 0
9, 85890, Note_on_c, 7, 79, 66
9, 85905, Note_on_c, 7, 79, 0
9, 85905, Note_on_c, 7, 78, 66
9, 85920, Note_on_c, 7, 78, 0
9, 85920, Note_on_c, 7, 79, 66
9, 85935, Note_on_c, 7, 79, 0
9, 85935, Note_on_c, 7, 78, 66
9, 85950, Note_on_c, 7, 78, 0
9, 85950, Note_on_c, 7, 76, 66
9, 85965, Note_on_c, 7, 76, 0
9, 85965, Note_on_c, 7, 78, 66
9, 85980, Note_on_c, 7, 78, 0
9, 85980, Note_on_c, 7, 79, 66
9, 86040, Note_on_c, 7, 79, 0
9, 86040, Note_on_c, 7, 74, 66
9, 86100, Note_on_c, 7, 74, 0
9, 86100, Note_on_c, 7, 75, 66
9, 86160, Note_on_c, 7, 75, 0
9, 86160, Note_on_c, 7, 72, 66
9, 86220, Note_on_c, 7, 72, 0
9, 86220, Note_on_c, 7, 67, 66
9, 86280, Note_on_c, 7, 67, 0
9, 86280, Note_on_c, 7, 71, 66
9, 86340, Note_on_c, 7, 71, 0
9, 86340, Note_on_c, 7, 72, 66
9, 86370, Note_on_c, 7, 72, 0
9, 86370, Note_on_c, 7, 67, 66
9, 86400, Note_on_c, 7, 67, 0
9, 86400, Note_on_c, 7, 68, 66
9, 86430, Note_on_c, 7, 68, 0
9, 86430, Note_on_c, 7, 65, 66
9, 86460, Note_on_c, 7, 65, 0
9, 86460, Note_on_c, 7, 67, 66
9, 86490, Note_on_c, 7, 67, 0
9, 86490, Note_on_c, 7, 63, 66
9, 86520, Note_on_c, 7, 63, 0
9, 86520, Note_on_c, 7, 65, 66
9, 86550, Note_on_c, 7, 65, 0
9, 86550, Note_on_c, 7, 62, 66
9, 86580, Note_on_c, 7, 62, 0
9, 86580, Note_on_c, 7, 63, 66
9, 86610, Note_on_c, 7, 63, 0
9, 86610, Note_on_c, 7, 60, 66
9, 86640, Note_on_c, 7, 60, 0
9, 86640, Note_on_c, 7, 62, 66
9, 86670, Note_on_c, 7, 62, 0
9, 86670, Note_on_c, 7, 59, 66
9, 86700, Note_on_c, 7, 59, 0
9, 86700, Note_on_c, 7, 60, 66
9, 86820, Note_on_c, 7, 60, 0
9, 88200, Note_on_c, 7, 67, 66
9, 88229, Note_on_c, 7, 67, 0
9, 88230, Note_on_c, 7, 65, 66
9, 88259, Note_on_c, 7, 65, 0
9, 88260, Note_on_c, 7, 67, 66
9, 88319, Note_on_c, 7, 67, 0
9, 88320, Note_on_c, 7, 75, 66
9, 88379, Note_on_c, 7, 75, 0
9, 88380, Note_on_c, 7, 71, 66
9, 88439, Note_on_c, 7, 71, 0
9, 88440, Note_on_c, 7, 72, 66
9, 88499, Note_on_c, 7, 72, 0
9, 88560, Note_on_c, 7, 65, 66
9, 88589, Note_on_c, 7, 65, 0
9, 88590, Note_on_c, 7, 63, 66
9, 88619, Note_on_c, 7, 63, 0
9, 88620, Note_on_c, 7, 65, 66
9, 88679, Note_on_c, 7, 65, 0
9, 88680, Note_on_c, 7, 74, 66
9, 88769, Note_on_c, 7, 74, 0
9, 88770, Note_on_c, 7, 72, 66
9, 88799, Note_on_c, 7, 72, 0
9, 88800, Note_on_c, 7, 71, 66
9, 88829, Note_on_c, 7, 71, 0
9, 88830, Note_on_c, 7, 72, 66
9, 88859, Note_on_c, 7, 72, 0
9, 88860, Note_on_c, 7, 74, 66
9, 88889, Note_on_c, 7, 74, 0
9, 88890, Note_on_c, 7, 72, 66
9, 88919, Note_on_c, 7, 72, 0
9, 88920, Note_on_c, 7, 71, 66
9, 88949, Note_on_c, 7, 71, 0
9, 88950, Note_on_c, 7, 69, 66
9, 88979, Note_on_c, 7, 69, 0
9, 88980, Note_on_c, 7, 67, 66
9, 89009, Note_on_c, 7, 67, 0
9, 89010, Note_on_c, 7, 65, 66
9, 89039, Note_on_c, 7, 65, 0
9, 89040, Note_on_c, 7, 68, 66
9, 89159, Note_on_c, 7, 68, 0
9, 89160, Note_on_c, 7, 67, 66
9, 89249, Note_on_c, 7, 67, 0
9, 89250, Note_on_c, 7, 65, 66
9, 89279, Note_on_c, 7, 65, 0
9, 89280, Note_on_c, 7, 63, 66
9, 89309, Note_on_c, 7, 63, 0
9, 89310, Note_on_c, 7, 62, 66
9, 89339, Note_on_c, 7, 62, 0
9, 89340, Note_on_c, 7, 63, 66
9, 89369, Note_on_c, 7, 63, 0
9, 89370, Note_on_c, 7, 60, 66
9, 89399, Note_on_c, 7, 60, 0
9, 89400, Note_on_c, 7, 62, 66
9, 89429, Note_on_c, 7, 62, 0
9, 89430, Note_on_c, 7, 59, 66
9, 89459, Note_on_c, 7, 59, 0
9, 89460, Note_on_c, 7, 60, 66
9, 89489, Note_on_c, 7, 60, 0
9, 89490, Note_on_c, 7, 55, 66
9, 89519, Note_on_c, 7, 55, 0
9, 89520, Note_on_c, 7, 60, 66
9, 89549, Note_on_c, 7, 60, 0
9, 89550, Note_on_c, 7, 59, 66
9, 89579, Note_on_c, 7, 59, 0
9, 89580, Note_on_c, 7, 60, 66
9, 89609, Note_on_c, 7, 60, 0
9, 89610, Note_on_c, 7, 55, 66
9, 89639, Note_on_c, 7, 55, 0
9, 89640, Note_on_c, 7, 63, 66
9, 89669, Note_on_c, 7, 63, 0
9, 89670, Note_on_c, 7, 62, 66
9, 89699, Note_on_c, 7, 62, 0
9, 89700, Note_on_c, 7, 64, 66
9, 89729, Note_on_c, 7, 64, 0
9, 89730, Note_on_c, 7, 60, 66
9, 89759, Note_on_c, 7, 60, 0
9, 89760, Note_on_c, 7, 67, 66
9, 89789, Note_on_c, 7, 67, 0
9, 89790, Note_on_c, 7, 65, 66
9, 89819, Note_on_c, 7, 65, 0
9, 89820, Note_on_c, 7, 67, 66
9, 89849, Note_on_c, 7, 67, 0
9, 89850, Note_on_c, 7, 60, 66
9, 89879, Note_on_c, 7, 60, 0
9, 89880, Note_on_c, 7, 65, 66
9, 89909, Note_on_c, 7, 65, 0
9, 89910, Note_on_c, 7, 67, 66
9, 89939, Note_on_c, 7, 67, 0
9, 89940, Note_on_c, 7, 68, 66
9, 89969, Note_on_c, 7, 68, 0
9, 89970, Note_on_c, 7, 72, 66
9, 89999, Note_on_c, 7, 72, 0
9, 90000, Note_on_c, 7, 65, 66
9, 90029, Note_on_c, 7, 65, 0
9, 90030, Note_on_c, 7, 64, 66
9, 90059, Note_on_c, 7, 64, 0
9, 90060, Note_on_c, 7, 65, 66
9, 90089, Note_on_c, 7, 65, 0
9, 90090, Note_on_c, 7, 72, 66
9, 90119, Note_on_c, 7, 72, 0
9, 90120, Note_on_c, 7, 63, 66
9, 90149, Note_on_c, 7, 63, 0
9, 90150, Note_on_c, 7, 62, 66
9, 90179, Note_on_c, 7, 62, 0
9, 90180, Note_on_c, 7, 63, 66
9, 90209, Note_on_c, 7, 63, 0
9, 90210, Note_on_c, 7, 72, 66
9, 90239, Note_on_c, 7, 72, 0
9, 90240, Note_on_c, 7, 62, 66
9, 90269, Note_on_c, 7, 62, 0
9, 90270, Note_on_c, 7, 60, 66
9, 90299, Note_on_c, 7, 60, 0
9, 90300, Note_on_c, 7, 58, 66
9, 90329, Note_on_c, 7, 58, 0
9, 90330, Note_on_c, 7, 53, 66
9, 90359, Note_on_c, 7, 53, 0
9, 90360, Note_on_c, 7, 62, 66
9, 90389, Note_on_c, 7, 62, 0
9, 90390, Note_on_c, 7, 60, 66
9, 90419, Note_on_c, 7, 60, 0
9, 90420, Note_on_c, 7, 62, 66
9, 90449, Note_on_c, 7, 62, 0
9, 90450, Note_on_c, 7, 58, 66
9, 90479, Note_on_c, 7, 58, 0
9, 90480, Note_on_c, 7, 65, 66
9, 90509, Note_on_c, 7, 65, 0
9, 90510, Note_on_c, 7, 63, 66
9, 90539, Note_on_c, 7, 63, 0
9, 90540, Note_on_c, 7, 65, 66
9, 90569, Note_on_c, 7, 65, 0
9, 90570, Note_on_c, 7, 58, 66
9, 90599, Note_on_c, 7, 58, 0
9, 90600, Note_on_c, 7, 63, 66
9, 90629, Note_on_c, 7, 63, 0
9, 90630, Note_on_c, 7, 65, 66
9, 90659, Note_on_c, 7, 65, 0
9, 90660, Note_on_c, 7, 67, 66
9, 90689, Note_on_c, 7, 67, 0
9, 90690, Note_on_c, 7, 70, 66
9, 90719, Note_on_c, 7, 70, 0
9, 90720, Note_on_c, 7, 63, 66
9, 90749, Note_on_c, 7, 63, 0
9, 90750, Note_on_c, 7, 62, 66
9, 90779, Note_on_c, 7, 62, 0
9, 90780, Note_on_c, 7, 63, 66
9, 90809, Note_on_c, 7, 63, 0
9, 90810, Note_on_c, 7, 70, 66
9, 90839, Note_on_c, 7, 70, 0
9, 90840, Note_on_c, 7, 61, 66
9, 90869, Note_on_c, 7, 61, 0
9, 90870, Note_on_c, 7, 60, 66
9, 90899, Note_on_c, 7, 60, 0
9, 90900, Note_on_c, 7, 61, 66
9, 90929, Note_on_c, 7, 61, 0
9, 90930, Note_on_c, 7, 70, 66
9, 90959, Note_on_c, 7, 70, 0
9, 90960, Note_on_c, 7, 60, 66
9, 90989, Note_on_c, 7, 60, 0
9, 90990, Note_on_c, 7, 58, 66
9, 91019, Note_on_c, 7, 58, 0
9, 91020, Note_on_c, 7, 56, 66
9, 91049, Note_on_c, 7, 56, 0
9, 91050, Note_on_c, 7, 60, 66
9, 91079, Note_on_c, 7, 60, 0
9, 91080, Note_on_c, 7, 63, 66
9, 91109, Note_on_c, 7, 63, 0
9, 91110, Note_on_c, 7, 68, 66
9, 91139, Note_on_c, 7, 68, 0
9, 91140, Note_on_c, 7, 72, 66
9, 91169, Note_on_c, 7, 72, 0
9, 91170, Note_on_c, 7, 68, 66
9, 91199, Note_on_c, 7, 68, 0
9, 91200, Note_on_c, 7, 70, 66
9, 91229, Note_on_c, 7, 70, 0
9, 91230, Note_on_c, 7, 67, 66
9, 91259, Note_on_c, 7, 67, 0
9, 91260, Note_on_c, 7, 68, 66
9, 91319, Note_on_c, 7, 68, 0
9, 91320, Note_on_c, 7, 72, 66
9, 91409, Note_on_c, 7, 72, 0
9, 91410, Note_on_c, 7, 62, 66
9, 91439, Note_on_c, 7, 62, 0
9, 91440, Note_on_c, 7, 65, 66
9, 91469, Note_on_c, 7, 65, 0
9, 91470, Note_on_c, 7, 70, 66
9, 91499, Note_on_c, 7, 70, 0
9, 91500, Note_on_c, 7, 74, 66
9, 91529, Note_on_c, 7, 74, 0
9, 91530, Note_on_c, 7, 70, 66
9, 91559, Note_on_c, 7, 70, 0
9, 91560, Note_on_c, 7, 72, 66
9, 91589, Note_on_c, 7, 72, 0
9, 91590, Note_on_c, 7, 68, 66
9, 91619, Note_on_c, 7, 68, 0
9, 91620, Note_on_c, 7, 70, 66
9, 91679, Note_on_c, 7, 70, 0
9, 91680, Note_on_c, 7, 74, 66
9, 91769, Note_on_c, 7, 74, 0
9, 91770, Note_on_c, 7, 63, 66
9, 91799, Note_on_c, 7, 63, 0
9, 91800, Note_on_c, 7, 67, 66
9, 91829, Note_on_c, 7, 67, 0
9, 91830, Note_on_c, 7, 72, 66
9, 91859, Note_on_c, 7, 72, 0
9, 91860, Note_on_c, 7, 75, 66
9, 91889, Note_on_c, 7, 75, 0
9, 91890, Note_on_c, 7, 72, 66
9, 91919, Note_on_c, 7, 72, 0
9, 91920, Note_on_c, 7, 73, 66
9, 91949, Note_on_c, 7, 73, 0
9, 91950, Note_on_c, 7, 70, 66
9, 91979, Note_on_c, 7, 70, 0
9, 91980, Note_on_c, 7, 72, 66
9, 92039, Note_on_c, 7, 72, 0
9, 92040, Note_on_c, 7, 75, 66
9, 92129, Note_on_c, 7, 75, 0
9, 92130, Note_on_c, 7, 65, 66
9, 92159, Note_on_c, 7, 65, 0
9, 92160, Note_on_c, 7, 70, 66
9, 92189, Note_on_c, 7, 70, 0
9, 92190, Note_on_c, 7, 74, 66
9, 92219, Note_on_c, 7, 74, 0
9, 92220, Note_on_c, 7, 77, 66
9, 92249, Note_on_c, 7, 77, 0
9, 92250, Note_on_c, 7, 74, 66
9, 92279, Note_on_c, 7, 74, 0
9, 92280, Note_on_c, 7, 75, 66
9, 92309, Note_on_c, 7, 75, 0
9, 92310, Note_on_c, 7, 72, 66
9, 92339, Note_on_c, 7, 72, 0
9, 92340, Note_on_c, 7, 74, 66
9, 92399, Note_on_c, 7, 74, 0
9, 92520, Note_on_c, 7, 75, 66
9, 92549, Note_on_c, 7, 75, 0
9, 92550, Note_on_c, 7, 74, 66
9, 92579, Note_on_c, 7, 74, 0
9, 92580, Note_on_c, 7, 75, 66
9, 92609, Note_on_c, 7, 75, 0
9, 92610, Note_on_c, 7, 70, 66
9, 92639, Note_on_c, 7, 70, 0
9, 92640, Note_on_c, 7, 72, 66
9, 92669, Note_on_c, 7, 72, 0
9, 92670, Note_on_c, 7, 68, 66
9, 92699, Note_on_c, 7, 68, 0
9, 92700, Note_on_c, 7, 70, 66
9, 92729, Note_on_c, 7, 70, 0
9, 92730, Note_on_c, 7, 67, 66
9, 92759, Note_on_c, 7, 67, 0
9, 92760, Note_on_c, 7, 68, 66
9, 92789, Note_on_c, 7, 68, 0
9, 92790, Note_on_c, 7, 65, 66
9, 92819, Note_on_c, 7, 65, 0
9, 92820, Note_on_c, 7, 67, 66
9, 92849, Note_on_c, 7, 67, 0
9, 92850, Note_on_c, 7, 63, 66
9, 92879, Note_on_c, 7, 63, 0
9, 92880, Note_on_c, 7, 65, 66
9, 92909, Note_on_c, 7, 65, 0
9, 92910, Note_on_c, 7, 62, 66
9, 92939, Note_on_c, 7, 62, 0
9, 92940, Note_on_c, 7, 63, 66
9, 92969, Note_on_c, 7, 63, 0
9, 92970, Note_on_c, 7, 67, 66
9, 92999, Note_on_c, 7, 67, 0
9, 93000, Note_on_c, 7, 65, 66
9, 93029, Note_on_c, 7, 65, 0
9, 93030, Note_on_c, 7, 68, 66
9, 93059, Note_on_c, 7, 68, 0
9, 93060, Note_on_c, 7, 67, 66
9, 93119, Note_on_c, 7, 67, 0
9, 93120, Note_on_c, 7, 68, 66
9, 93135, Note_on_c, 7, 68, 0
9, 93135, Note_on_c, 7, 70, 66
9, 93150, Note_on_c, 7, 70, 0
9, 93150, Note_on_c, 7, 68, 66
9, 93180, Note_on_c, 7, 68, 0
9, 93180, Note_on_c, 7, 70, 66
9, 93239, Note_on_c, 7, 70, 0
9, 93240, Note_on_c, 7, 72, 66
9, 93269, Note_on_c, 7, 72, 0
9, 93270, Note_on_c, 7, 74, 66
9, 93299, Note_on_c, 7, 74, 0
9, 93300, Note_on_c, 7, 75, 66
9, 93329, Note_on_c, 7, 75, 0
9, 93330, Note_on_c, 7, 74, 66
9, 93359, Note_on_c, 7, 74, 0
9, 93360, Note_on_c, 7, 75, 66
9, 93389, Note_on_c, 7, 75, 0
9, 93390, Note_on_c, 7, 74, 66
9, 93419, Note_on_c, 7, 74, 0
9, 93420, Note_on_c, 7, 75, 66
9, 93479, Note_on_c, 7, 75, 0
9, 93480, Note_on_c, 7, 75, 66
9, 93539, Note_on_c, 7, 75, 0
9, 93540, Note_on_c, 7, 75, 66
9, 93555, Note_on_c, 7, 75, 0
9, 93555, Note_on_c, 7, 77, 66
9, 93570, Note_on_c, 7, 77, 0
9, 93570, Note_on_c, 7, 75, 66
9, 93599, Note_on_c, 7, 75, 0
9, 93600, Note_on_c, 7, 75, 66
9, 93659, Note_on_c, 7, 75, 0
9, 93900, Note_on_c, 7, 67, 66
9, 93900, Note_on_c, 7, 77, 66
9, 93959, Note_on_c, 7, 77, 0
9, 93959, Note_on_c, 7, 67, 0
9, 93960, Note_on_c, 7, 67, 66
9, 93960, Note_on_c, 7, 77, 66
9, 94019, Note_on_c, 7, 77, 0
9, 94019, Note_on_c, 7, 67, 0
9, 94020, Note_on_c, 7, 67, 66
9, 94020, Note_on_c, 7, 77, 66
9, 94079, Note_on_c, 7, 77, 0
9, 94079, Note_on_c, 7, 67, 0
9, 94080, Note_on_c, 7, 67, 66
9, 94080, Note_on_c, 7, 77, 66
9, 94139, Note_on_c, 7, 77, 0
9, 94139, Note_on_c, 7, 67, 0
9, 94140, Note_on_c, 7, 67, 66
9, 94140, Note_on_c, 7, 77, 66
9, 94199, Note_on_c, 7, 77, 0
9, 94199, Note_on_c, 7, 67, 0
9, 94200, Note_on_c, 7, 67, 66
9, 94200, Note_on_c, 7, 77, 66
9, 94259, Note_on_c, 7, 77, 0
9, 94259, Note_on_c, 7, 67, 0
9, 94260, Note_on_c, 7, 75, 66
9, 94260, Note_on_c, 7, 67, 66
9, 94319, Note_on_c, 7, 67, 0
9, 94319, Note_on_c, 7, 75, 0
9, 94320, Note_on_c, 7, 67, 66
9, 94320, Note_on_c, 7, 75, 66
9, 94379, Note_on_c, 7, 75, 0
9, 94379, Note_on_c, 7, 67, 0
9, 94380, Note_on_c, 7, 75, 66
9, 94380, Note_on_c, 7, 67, 66
9, 94439, Note_on_c, 7, 67, 0
9, 94439, Note_on_c, 7, 75, 0
9, 94440, Note_on_c, 7, 75, 66
9, 94440, Note_on_c, 7, 67, 66
9, 94499, Note_on_c, 7, 67, 0
9, 94499, Note_on_c, 7, 75, 0
9, 94500, Note_on_c, 7, 67, 66
9, 94500, Note_on_c, 7, 75, 66
9, 94559, Note_on_c, 7, 75, 0
9, 94559, Note_on_c, 7, 67, 0
9, 94560, Note_on_c, 7, 75, 66
9, 94560, Note_on_c, 7, 67, 66
9, 94619, Note_on_c, 7, 67, 0
9, 94619, Note_on_c, 7, 75, 0
9, 94620, Note_on_c, 7, 66, 66
9, 94620, Note_on_c, 7, 69, 66
9, 94679, Note_on_c, 7, 69, 0
9, 94679, Note_on_c, 7, 66, 0
9, 94680, Note_on_c, 7, 66, 66
9, 94680, Note_on_c, 7, 69, 66
9, 94739, Note_on_c, 7, 69, 0
9, 94739, Note_on_c, 7, 66, 0
9, 94740, Note_on_c, 7, 78, 66
9, 94740, Note_on_c, 7, 69, 66
9, 94799, Note_on_c, 7, 69, 0
9, 94799, Note_on_c, 7, 78, 0
9, 94800, Note_on_c, 7, 69, 66
9, 94800, Note_on_c, 7, 78, 66
9, 94859, Note_on_c, 7, 78, 0
9, 94859, Note_on_c, 7, 69, 0
9, 94860, Note_on_c, 7, 69, 66
9, 94860, Note_on_c, 7, 78, 66
9, 94919, Note_on_c, 7, 78, 0
9, 94919, Note_on_c, 7, 69, 0
9, 94920, Note_on_c, 7, 78, 66
9, 94920, Note_on_c, 7, 69, 66
9, 94979, Note_on_c, 7, 69, 0
9, 94979, Note_on_c, 7, 78, 0
9, 94980, Note_on_c, 7, 67, 66
9, 94980, Note_on_c, 7, 79, 66
9, 95039, Note_on_c, 7, 79, 0
9, 95039, Note_on_c, 7, 67, 0
9, 95040, Note_on_c, 7, 67, 66
9, 95040, Note_on_c, 7, 79, 66
9, 95099, Note_on_c, 7, 79, 0
9, 95099, Note_on_c, 7, 67, 0
9, 95100, Note_on_c, 7, 67, 66
9, 95100, Note_on_c, 7, 79, 66
9, 95159, Note_on_c, 7, 79, 0
9, 95159, Note_on_c, 7, 67, 0
9, 95160, Note_on_c, 7, 67, 66
9, 95160, Note_on_c, 7, 79, 66
9, 95219, Note_on_c, 7, 79, 0
9, 95219, Note_on_c, 7, 67, 0
9, 95220, Note_on_c, 7, 67, 66
9, 95220, Note_on_c, 7, 79, 66
9, 95279, Note_on_c, 7, 79, 0
9, 95279, Note_on_c, 7, 67, 0
9, 95280, Note_on_c, 7, 67, 66
9, 95280, Note_on_c, 7, 79, 66
9, 95339, Note_on_c, 7, 79, 0
9, 95339, Note_on_c, 7, 67, 0
9, 95340, Note_on_c, 7, 67, 66
9, 95340, Note_on_c, 7, 75, 66
9, 95399, Note_on_c, 7, 75, 0
9, 95399, Note_on_c, 7, 67, 0
9, 95400, Note_on_c, 7, 67, 66
9, 95400, Note_on_c, 7, 75, 66
9, 95459, Note_on_c, 7, 75, 0
9, 95459, Note_on_c, 7, 67, 0
9, 95460, Note_on_c, 7, 65, 66
9, 95460, Note_on_c, 7, 75, 66
9, 95519, Note_on_c, 7, 75, 0
9, 95519, Note_on_c, 7, 65, 0
9, 95520, Note_on_c, 7, 65, 66
9, 95520, Note_on_c, 7, 75, 66
9, 95579, Note_on_c, 7, 75, 0
9, 95579, Note_on_c, 7, 65, 0
9, 95580, Note_on_c, 7, 65, 66
9, 95580, Note_on_c, 7, 75, 66
9, 95639, Note_on_c, 7, 75, 0
9, 95639, Note_on_c, 7, 65, 0
9, 95640, Note_on_c, 7, 65, 66
9, 95640, Note_on_c, 7, 75, 66
9, 95699, Note_on_c, 7, 75, 0
9, 95699, Note_on_c, 7, 65, 0
9, 95700, Note_on_c, 7, 74, 66
9, 95700, Note_on_c, 7, 65, 66
9, 95759, Note_on_c, 7, 65, 0
9, 95759, Note_on_c, 7, 74, 0
9, 95760, Note_on_c, 7, 65, 66
9, 95760, Note_on_c, 7, 74, 66
9, 95819, Note_on_c, 7, 74, 0
9, 95819, Note_on_c, 7, 65, 0
9, 95820, Note_on_c, 7, 63, 66
9, 95820, Note_on_c, 7, 74, 66
9, 95879, Note_on_c, 7, 74, 0
9, 95879, Note_on_c, 7, 63, 0
9, 95880, Note_on_c, 7, 63, 66
9, 95880, Note_on_c, 7, 74, 66
9, 95939, Note_on_c, 7, 74, 0
9, 95939, Note_on_c, 7, 63, 0
9, 95940, Note_on_c, 7, 63, 66
9, 95940, Note_on_c, 7, 74, 66
9, 95999, Note_on_c, 7, 74, 0
9, 95999, Note_on_c, 7, 63, 0
9, 96000, Note_on_c, 7, 63, 66
9, 96000, Note_on_c, 7, 74, 66
9, 96059, Note_on_c, 7, 74, 0
9, 96059, Note_on_c, 7, 63, 0
9, 96060, Note_on_c, 7, 63, 66
9, 96060, Note_on_c, 7, 72, 66
9, 96119, Note_on_c, 7, 72, 0
9, 96119, Note_on_c, 7, 63, 0
9, 96120, Note_on_c, 7, 63, 66
9, 96120, Note_on_c, 7, 72, 66
9, 96179, Note_on_c, 7, 72, 0
9, 96179, Note_on_c, 7, 63, 0
9, 96180, Note_on_c, 7, 72, 66
9, 96180, Note_on_c, 7, 62, 66
9, 96239, Note_on_c, 7, 62, 0
9, 96239, Note_on_c, 7, 72, 0
9, 96240, Note_on_c, 7, 62, 66
9, 96240, Note_on_c, 7, 72, 66
9, 96299, Note_on_c, 7, 72, 0
9, 96299, Note_on_c, 7, 62, 0
9, 96300, Note_on_c, 7, 62, 66
9, 96300, Note_on_c, 7, 72, 66
9, 96359, Note_on_c, 7, 72, 0
9, 96359, Note_on_c, 7, 62, 0
9, 96360, Note_on_c, 7, 62, 66
9, 96360, Note_on_c, 7, 72, 66
9, 96419, Note_on_c, 7, 72, 0
9, 96419, Note_on_c, 7, 62, 0
9, 96420, Note_on_c, 7, 62, 66
9, 96420, Note_on_c, 7, 70, 66
9, 96479, Note_on_c, 7, 70, 0
9, 96479, Note_on_c, 7, 62, 0
9, 97920, Note_on_c, 7, 74, 66
9, 97949, Note_on_c, 7, 74, 0
9, 97950, Note_on_c, 7, 72, 66
9, 97979, Note_on_c, 7, 72, 0
9, 97980, Note_on_c, 7, 74, 66
9, 98039, Note_on_c, 7, 74, 0
9, 98040, Note_on_c, 7, 82, 66
9, 98099, Note_on_c, 7, 82, 0
9, 98100, Note_on_c, 7, 78, 66
9, 98159, Note_on_c, 7, 78, 0
9, 98160, Note_on_c, 7, 79, 66
9, 98219, Note_on_c, 7, 79, 0
9, 98280, Note_on_c, 7, 72, 66
9, 98309, Note_on_c, 7, 72, 0
9, 98310, Note_on_c, 7, 70, 66
9, 98339, Note_on_c, 7, 70, 0
9, 98340, Note_on_c, 7, 72, 66
9, 98399, Note_on_c, 7, 72, 0
9, 98400, Note_on_c, 7, 81, 66
9, 98489, Note_on_c, 7, 81, 0
9, 98490, Note_on_c, 7, 79, 66
9, 98519, Note_on_c, 7, 79, 0
9, 98520, Note_on_c, 7, 78, 66
9, 98549, Note_on_c, 7, 78, 0
9, 98550, Note_on_c, 7, 79, 66
9, 98579, Note_on_c, 7, 79, 0
9, 98580, Note_on_c, 7, 81, 66
9, 98609, Note_on_c, 7, 81, 0
9, 98610, Note_on_c, 7, 79, 66
9, 98639, Note_on_c, 7, 79, 0
9, 98640, Note_on_c, 7, 78, 66
9, 98669, Note_on_c, 7, 78, 0
9, 98670, Note_on_c, 7, 76, 66
9, 98699, Note_on_c, 7, 76, 0
9, 98700, Note_on_c, 7, 74, 66
9, 98729, Note_on_c, 7, 74, 0
9, 98730, Note_on_c, 7, 72, 66
9, 98759, Note_on_c, 7, 72, 0
9, 98760, Note_on_c, 7, 75, 66
9, 98879, Note_on_c, 7, 75, 0
9, 98880, Note_on_c, 7, 74, 66
9, 98969, Note_on_c, 7, 74, 0
9, 98970, Note_on_c, 7, 72, 66
9, 98999, Note_on_c, 7, 72, 0
9, 99000, Note_on_c, 7, 70, 66
9, 99029, Note_on_c, 7, 70, 0
9, 99030, Note_on_c, 7, 69, 66
9, 99059, Note_on_c, 7, 69, 0
9, 99060, Note_on_c, 7, 70, 66
9, 99089, Note_on_c, 7, 70, 0
9, 99090, Note_on_c, 7, 67, 66
9, 99119, Note_on_c, 7, 67, 0
9, 99120, Note_on_c, 7, 69, 66
9, 99149, Note_on_c, 7, 69, 0
9, 99150, Note_on_c, 7, 66, 66
9, 99179, Note_on_c, 7, 66, 0
9, 99180, Note_on_c, 7, 67, 66
9, 99209, Note_on_c, 7, 67, 0
9, 99210, Note_on_c, 7, 62, 66
9, 99239, Note_on_c, 7, 62, 0
9, 99240, Note_on_c, 7, 67, 66
9, 99269, Note_on_c, 7, 67, 0
9, 99270, Note_on_c, 7, 66, 66
9, 99299, Note_on_c, 7, 66, 0
9, 99300, Note_on_c, 7, 67, 66
9, 99329, Note_on_c, 7, 67, 0
9, 99330, Note_on_c, 7, 62, 66
9, 99359, Note_on_c, 7, 62, 0
9, 99360, Note_on_c, 7, 70, 66
9, 99389, Note_on_c, 7, 70, 0
9, 99390, Note_on_c, 7, 69, 66
9, 99419, Note_on_c, 7, 69, 0
9, 99420, Note_on_c, 7, 71, 66
9, 99449, Note_on_c, 7, 71, 0
9, 99450, Note_on_c, 7, 67, 66
9, 99479, Note_on_c, 7, 67, 0
9, 99480, Note_on_c, 7, 74, 66
9, 99509, Note_on_c, 7, 74, 0
9, 99510, Note_on_c, 7, 72, 66
9, 99539, Note_on_c, 7, 72, 0
9, 99540, Note_on_c, 7, 74, 66
9, 99569, Note_on_c, 7, 74, 0
9, 99570, Note_on_c, 7, 67, 66
9, 99599, Note_on_c, 7, 67, 0
9, 99600, Note_on_c, 7, 72, 66
9, 99629, Note_on_c, 7, 72, 0
9, 99630, Note_on_c, 7, 74, 66
9, 99659, Note_on_c, 7, 74, 0
9, 99660, Note_on_c, 7, 75, 66
9, 99689, Note_on_c, 7, 75, 0
9, 99690, Note_on_c, 7, 79, 66
9, 99719, Note_on_c, 7, 79, 0
9, 99720, Note_on_c, 7, 72, 66
9, 99749, Note_on_c, 7, 72, 0
9, 99750, Note_on_c, 7, 71, 66
9, 99779, Note_on_c, 7, 71, 0
9, 99780, Note_on_c, 7, 72, 66
9, 99809, Note_on_c, 7, 72, 0
9, 99810, Note_on_c, 7, 79, 66
9, 99839, Note_on_c, 7, 79, 0
9, 99840, Note_on_c, 7, 70, 66
9, 99869, Note_on_c, 7, 70, 0
9, 99870, Note_on_c, 7, 69, 66
9, 99899, Note_on_c, 7, 69, 0
9, 99900, Note_on_c, 7, 70, 66
9, 99929, Note_on_c, 7, 70, 0
9, 99930, Note_on_c, 7, 79, 66
9, 99959, Note_on_c, 7, 79, 0
9, 99960, Note_on_c, 7, 69, 66
9, 99989, Note_on_c, 7, 69, 0
9, 99990, Note_on_c, 7, 67, 66
9, 100019, Note_on_c, 7, 67, 0
9, 100020, Note_on_c, 7, 65, 66
9, 100049, Note_on_c, 7, 65, 0
9, 100050, Note_on_c, 7, 60, 66
9, 100079, Note_on_c, 7, 60, 0
9, 100080, Note_on_c, 7, 69, 66
9, 100109, Note_on_c, 7, 69, 0
9, 100110, Note_on_c, 7, 67, 66
9, 100139, Note_on_c, 7, 67, 0
9, 100140, Note_on_c, 7, 69, 66
9, 100169, Note_on_c, 7, 69, 0
9, 100170, Note_on_c, 7, 65, 66
9, 100199, Note_on_c, 7, 65, 0
9, 100200, Note_on_c, 7, 72, 66
9, 100229, Note_on_c, 7, 72, 0
9, 100230, Note_on_c, 7, 70, 66
9, 100259, Note_on_c, 7, 70, 0
9, 100260, Note_on_c, 7, 72, 66
9, 100289, Note_on_c, 7, 72, 0
9, 100290, Note_on_c, 7, 65, 66
9, 100319, Note_on_c, 7, 65, 0
9, 100320, Note_on_c, 7, 70, 66
9, 100349, Note_on_c, 7, 70, 0
9, 100350, Note_on_c, 7, 72, 66
9, 100379, Note_on_c, 7, 72, 0
9, 100380, Note_on_c, 7, 74, 66
9, 100409, Note_on_c, 7, 74, 0
9, 100410, Note_on_c, 7, 77, 66
9, 100439, Note_on_c, 7, 77, 0
9, 100440, Note_on_c, 7, 70, 66
9, 100469, Note_on_c, 7, 70, 0
9, 100470, Note_on_c, 7, 69, 66
9, 100499, Note_on_c, 7, 69, 0
9, 100500, Note_on_c, 7, 70, 66
9, 100529, Note_on_c, 7, 70, 0
9, 100530, Note_on_c, 7, 77, 66
9, 100559, Note_on_c, 7, 77, 0
9, 100560, Note_on_c, 7, 68, 66
9, 100589, Note_on_c, 7, 68, 0
9, 100590, Note_on_c, 7, 67, 66
9, 100619, Note_on_c, 7, 67, 0
9, 100620, Note_on_c, 7, 68, 66
9, 100649, Note_on_c, 7, 68, 0
9, 100650, Note_on_c, 7, 77, 66
9, 100679, Note_on_c, 7, 77, 0
9, 100680, Note_on_c, 7, 67, 66
9, 100709, Note_on_c, 7, 67, 0
9, 100710, Note_on_c, 7, 65, 66
9, 100739, Note_on_c, 7, 65, 0
9, 100740, Note_on_c, 7, 63, 66
9, 100829, Note_on_c, 7, 63, 0
9, 100830, Note_on_c, 7, 58, 66
9, 100859, Note_on_c, 7, 58, 0
9, 100860, Note_on_c, 7, 60, 66
9, 100889, Note_on_c, 7, 60, 0
9, 100890, Note_on_c, 7, 62, 66
9, 100919, Note_on_c, 7, 62, 0
9, 100920, Note_on_c, 7, 63, 66
9, 100949, Note_on_c, 7, 63, 0
9, 100950, Note_on_c, 7, 65, 66
9, 100979, Note_on_c, 7, 65, 0
9, 100980, Note_on_c, 7, 67, 66
9, 101009, Note_on_c, 7, 67, 0
9, 101010, Note_on_c, 7, 69, 66
9, 101039, Note_on_c, 7, 69, 0
9, 101040, Note_on_c, 7, 71, 66
9, 101069, Note_on_c, 7, 71, 0
9, 101070, Note_on_c, 7, 72, 66
9, 101099, Note_on_c, 7, 72, 0
9, 101100, Note_on_c, 7, 74, 66
9, 101129, Note_on_c, 7, 74, 0
9, 101130, Note_on_c, 7, 72, 66
9, 101159, Note_on_c, 7, 72, 0
9, 101160, Note_on_c, 7, 74, 66
9, 101189, Note_on_c, 7, 74, 0
9, 101190, Note_on_c, 7, 75, 66
9, 101219, Note_on_c, 7, 75, 0
9, 101220, Note_on_c, 7, 77, 66
9, 101279, Note_on_c, 7, 77, 0
9, 101280, Note_on_c, 7, 75, 66
9, 101339, Note_on_c, 7, 75, 0
9, 101340, Note_on_c, 7, 80, 66
9, 101399, Note_on_c, 7, 80, 0
9, 101400, Note_on_c, 7, 79, 66
9, 101459, Note_on_c, 7, 79, 0
9, 101460, Note_on_c, 7, 71, 66
9, 101519, Note_on_c, 7, 71, 0
9, 101520, Note_on_c, 7, 72, 66
9, 101579, Note_on_c, 7, 72, 0
9, 101580, Note_on_c, 7, 77, 66
9, 101609, Note_on_c, 7, 77, 0
9, 101610, Note_on_c, 7, 74, 66
9, 101639, Note_on_c, 7, 74, 0
9, 101640, Note_on_c, 7, 75, 66
9, 101699, Note_on_c, 7, 75, 0
9, 101880, Note_on_c, 7, 76, 66
9, 101909, Note_on_c, 7, 76, 0
9, 101910, Note_on_c, 7, 77, 66
9, 101939, Note_on_c, 7, 77, 0
9, 101940, Note_on_c, 7, 79, 66
9, 101999, Note_on_c, 7, 79, 0
9, 102000, Note_on_c, 7, 77, 66
9, 102059, Note_on_c, 7, 77, 0
9, 102060, Note_on_c, 7, 82, 66
9, 102119, Note_on_c, 7, 82, 0
9, 102120, Note_on_c, 7, 81, 66
9, 102179, Note_on_c, 7, 81, 0
9, 102180, Note_on_c, 7, 71, 66
9, 102239, Note_on_c, 7, 71, 0
9, 102240, Note_on_c, 7, 72, 66
9, 102299, Note_on_c, 7, 72, 0
9, 102300, Note_on_c, 7, 79, 66
9, 102329, Note_on_c, 7, 79, 0
9, 102330, Note_on_c, 7, 76, 66
9, 102359, Note_on_c, 7, 76, 0
9, 102360, Note_on_c, 7, 78, 66
9, 102379, Note_on_c, 7, 78, 0
9, 102380, Note_on_c, 7, 79, 66
9, 102399, Note_on_c, 7, 79, 0
9, 102400, Note_on_c, 7, 81, 66
9, 102419, Note_on_c, 7, 81, 0
9, 102420, Note_on_c, 7, 69, 66
9, 102439, Note_on_c, 7, 69, 0
9, 102440, Note_on_c, 7, 70, 66
9, 102459, Note_on_c, 7, 70, 0
9, 102460, Note_on_c, 7, 72, 66
9, 102479, Note_on_c, 7, 72, 0
9, 102480, Note_on_c, 7, 72, 66
9, 102499, Note_on_c, 7, 72, 0
9, 102500, Note_on_c, 7, 70, 66
9, 102519, Note_on_c, 7, 70, 0
9, 102520, Note_on_c, 7, 69, 66
9, 102539, Note_on_c, 7, 69, 0
9, 102540, Note_on_c, 7, 70, 66
9, 102599, Note_on_c, 7, 70, 0
9, 102720, Note_on_c, 7, 79, 66
9, 102739, Note_on_c, 7, 79, 0
9, 102740, Note_on_c, 7, 81, 66
9, 102759, Note_on_c, 7, 81, 0
9, 102760, Note_on_c, 7, 82, 66
9, 102779, Note_on_c, 7, 82, 0
9, 102780, Note_on_c, 7, 70, 66
9, 102799, Note_on_c, 7, 70, 0
9, 102800, Note_on_c, 7, 72, 66
9, 102819, Note_on_c, 7, 72, 0
9, 102820, Note_on_c, 7, 74, 66
9, 102839, Note_on_c, 7, 74, 0
9, 102840, Note_on_c, 7, 74, 66
9, 102859, Note_on_c, 7, 74, 0
9, 102860, Note_on_c, 7, 72, 66
9, 102879, Note_on_c, 7, 72, 0
9, 102880, Note_on_c, 7, 70, 66
9, 102899, Note_on_c, 7, 70, 0
9, 102900, Note_on_c, 7, 72, 66
9, 102959, Note_on_c, 7, 72, 0
9, 103080, Note_on_c, 7, 66, 66
9, 103099, Note_on_c, 7, 66, 0
9, 103100, Note_on_c, 7, 67, 66
9, 103119, Note_on_c, 7, 67, 0
9, 103120, Note_on_c, 7, 69, 66
9, 103139, Note_on_c, 7, 69, 0
9, 103140, Note_on_c, 7, 57, 66
9, 103159, Note_on_c, 7, 57, 0
9, 103160, Note_on_c, 7, 58, 66
9, 103179, Note_on_c, 7, 58, 0
9, 103180, Note_on_c, 7, 60, 66
9, 103199, Note_on_c, 7, 60, 0
9, 103200, Note_on_c, 7, 60, 66
9, 103219, Note_on_c, 7, 60, 0
9, 103220, Note_on_c, 7, 58, 66
9, 103239, Note_on_c, 7, 58, 0
9, 103240, Note_on_c, 7, 57, 66
9, 103259, Note_on_c, 7, 57, 0
9, 103260, Note_on_c, 7, 55, 66
9, 103289, Note_on_c, 7, 55, 0
9, 103290, Note_on_c, 7, 70, 66
9, 103319, Note_on_c, 7, 70, 0
9, 103320, Note_on_c, 7, 69, 66
9, 103349, Note_on_c, 7, 69, 0
9, 103350, Note_on_c, 7, 70, 66
9, 103379, Note_on_c, 7, 70, 0
9, 103380, Note_on_c, 7, 72, 66
9, 103409, Note_on_c, 7, 72, 0
9, 103410, Note_on_c, 7, 70, 66
9, 103439, Note_on_c, 7, 70, 0
9, 103440, Note_on_c, 7, 69, 66
9, 103469, Note_on_c, 7, 69, 0
9, 103470, Note_on_c, 7, 70, 66
9, 103499, Note_on_c, 7, 70, 0
9, 103500, Note_on_c, 7, 75, 66
9, 103529, Note_on_c, 7, 75, 0
9, 103560, Note_on_c, 7, 72, 66
9, 103589, Note_on_c, 7, 72, 0
9, 103620, Note_on_c, 7, 74, 66
9, 103649, Note_on_c, 7, 74, 0
9, 103650, Note_on_c, 7, 70, 66
9, 103679, Note_on_c, 7, 70, 0
9, 103680, Note_on_c, 7, 69, 66
9, 103709, Note_on_c, 7, 69, 0
9, 103710, Note_on_c, 7, 70, 66
9, 103739, Note_on_c, 7, 70, 0
9, 103740, Note_on_c, 7, 67, 66
9, 103769, Note_on_c, 7, 67, 0
9, 103770, Note_on_c, 7, 70, 66
9, 103799, Note_on_c, 7, 70, 0
9, 103800, Note_on_c, 7, 69, 66
9, 103829, Note_on_c, 7, 69, 0
9, 103830, Note_on_c, 7, 70, 66
9, 103859, Note_on_c, 7, 70, 0
9, 103860, Note_on_c, 7, 74, 66
9, 103889, Note_on_c, 7, 74, 0
9, 103920, Note_on_c, 7, 70, 66
9, 103949, Note_on_c, 7, 70, 0
9, 103980, Note_on_c, 7, 72, 66
9, 104009, Note_on_c, 7, 72, 0
9, 104010, Note_on_c, 7, 75, 66
9, 104039, Note_on_c, 7, 75, 0
9, 104040, Note_on_c, 7, 74, 66
9, 104069, Note_on_c, 7, 74, 0
9, 104070, Note_on_c, 7, 75, 66
9, 104099, Note_on_c, 7, 75, 0
9, 104100, Note_on_c, 7, 72, 66
9, 104129, Note_on_c, 7, 72, 0
9, 104130, Note_on_c, 7, 75, 66
9, 104159, Note_on_c, 7, 75, 0
9, 104160, Note_on_c, 7, 74, 66
9, 104189, Note_on_c, 7, 74, 0
9, 104190, Note_on_c, 7, 75, 66
9, 104219, Note_on_c, 7, 75, 0
9, 104220, Note_on_c, 7, 72, 66
9, 104249, Note_on_c, 7, 72, 0
9, 104280, Note_on_c, 7, 69, 66
9, 104309, Note_on_c, 7, 69, 0
9, 104340, Note_on_c, 7, 70, 66
9, 104399, Note_on_c, 7, 70, 0
9, 104400, Note_on_c, 7, 74, 66
9, 104459, Note_on_c, 7, 74, 0
9, 104460, Note_on_c, 7, 79, 66
9, 104519, Note_on_c, 7, 79, 0
9, 104520, Note_on_c, 7, 82, 66
9, 104579, Note_on_c, 7, 82, 0
9, 104580, Note_on_c, 7, 73, 66
9, 104595, Note_on_c, 7, 73, 0
9, 104595, Note_on_c, 7, 74, 66
9, 104610, Note_on_c, 7, 74, 0
9, 104610, Note_on_c, 7, 73, 66
9, 104625, Note_on_c, 7, 73, 0
9, 104625, Note_on_c, 7, 74, 66
9, 104640, Note_on_c, 7, 74, 0
9, 104640, Note_on_c, 7, 73, 66
9, 104655, Note_on_c, 7, 73, 0
9, 104655, Note_on_c, 7, 74, 66
9, 104670, Note_on_c, 7, 74, 0
9, 104670, Note_on_c, 7, 71, 66
9, 104685, Note_on_c, 7, 71, 0
9, 104685, Note_on_c, 7, 73, 66
9, 104700, Note_on_c, 7, 73, 0
9, 104700, Note_on_c, 7, 74, 66
9, 104759, Note_on_c, 7, 74, 0
9, 104760, Note_on_c, 7, 69, 66
9, 104819, Note_on_c, 7, 69, 0
9, 104820, Note_on_c, 7, 70, 66
9, 104879, Note_on_c, 7, 70, 0
9, 104880, Note_on_c, 7, 67, 66
9, 104939, Note_on_c, 7, 67, 0
9, 104940, Note_on_c, 7, 62, 66
9, 104999, Note_on_c, 7, 62, 0
9, 105000, Note_on_c, 7, 66, 66
9, 105059, Note_on_c, 7, 66, 0
9, 105060, Note_on_c, 7, 67, 66
9, 105119, Note_on_c, 7, 67, 0
9, 105120, Note_on_c, 7, 62, 66
9, 105179, Note_on_c, 7, 62, 0
9, 105180, Note_on_c, 7, 58, 66
9, 105239, Note_on_c, 7, 58, 0
9, 105480, Note_on_c, 7, 71, 66
9, 105539, Note_on_c, 7, 71, 0
9, 105540, Note_on_c, 7, 74, 66
9, 105599, Note_on_c, 7, 74, 0
9, 105600, Note_on_c, 7, 77, 66
9, 105659, Note_on_c, 7, 77, 0
9, 105660, Note_on_c, 7, 80, 66
9, 105719, Note_on_c, 7, 80, 0
9, 105720, Note_on_c, 7, 79, 66
9, 105779, Note_on_c, 7, 79, 0
9, 105780, Note_on_c, 7, 72, 66
9, 106200, Note_on_c, 7, 72, 0
9, 106200, Note_on_c, 7, 70, 66
9, 106259, Note_on_c, 7, 70, 0
9, 106260, Note_on_c, 7, 64, 66
9, 106319, Note_on_c, 7, 64, 0
9, 106320, Note_on_c, 7, 67, 66
9, 106379, Note_on_c, 7, 67, 0
9, 106380, Note_on_c, 7, 61, 66
9, 106439, Note_on_c, 7, 61, 0
9, 106440, Note_on_c, 7, 60, 66
9, 106529, Note_on_c, 7, 60, 0
9, 106530, Note_on_c, 7, 72, 66
9, 106559, Note_on_c, 7, 72, 0
9, 106560, Note_on_c, 7, 77, 66
9, 106589, Note_on_c, 7, 77, 0
9, 106590, Note_on_c, 7, 79, 66
9, 106619, Note_on_c, 7, 79, 0
9, 106620, Note_on_c, 7, 80, 66
9, 106649, Note_on_c, 7, 80, 0
9, 106650, Note_on_c, 7, 77, 66
9, 106679, Note_on_c, 7, 77, 0
9, 106680, Note_on_c, 7, 72, 66
9, 106709, Note_on_c, 7, 72, 0
9, 106710, Note_on_c, 7, 77, 66
9, 106739, Note_on_c, 7, 77, 0
9, 106740, Note_on_c, 7, 68, 66
9, 106769, Note_on_c, 7, 68, 0
9, 106770, Note_on_c, 7, 72, 66
9, 106799, Note_on_c, 7, 72, 0
9, 106800, Note_on_c, 7, 65, 66
9, 106829, Note_on_c, 7, 65, 0
9, 106830, Note_on_c, 7, 72, 66
9, 106859, Note_on_c, 7, 72, 0
9, 106860, Note_on_c, 7, 63, 66
9, 106889, Note_on_c, 7, 63, 0
9, 106890, Note_on_c, 7, 72, 66
9, 106919, Note_on_c, 7, 72, 0
9, 106920, Note_on_c, 7, 77, 66
9, 106949, Note_on_c, 7, 77, 0
9, 106950, Note_on_c, 7, 79, 66
9, 106979, Note_on_c, 7, 79, 0
9, 106980, Note_on_c, 7, 81, 66
9, 107009, Note_on_c, 7, 81, 0
9, 107010, Note_on_c, 7, 77, 66
9, 107039, Note_on_c, 7, 77, 0
9, 107040, Note_on_c, 7, 72, 66
9, 107069, Note_on_c, 7, 72, 0
9, 107070, Note_on_c, 7, 77, 66
9, 107099, Note_on_c, 7, 77, 0
9, 107100, Note_on_c, 7, 69, 66
9, 107129, Note_on_c, 7, 69, 0
9, 107130, Note_on_c, 7, 72, 66
9, 107159, Note_on_c, 7, 72, 0
9, 107160, Note_on_c, 7, 63, 66
9, 107189, Note_on_c, 7, 63, 0
9, 107190, Note_on_c, 7, 72, 66
9, 107219, Note_on_c, 7, 72, 0
9, 107220, Note_on_c, 7, 62, 66
9, 107249, Note_on_c, 7, 62, 0
9, 107250, Note_on_c, 7, 70, 66
9, 107279, Note_on_c, 7, 70, 0
9, 107280, Note_on_c, 7, 77, 66
9, 107309, Note_on_c, 7, 77, 0
9, 107310, Note_on_c, 7, 81, 66
9, 107339, Note_on_c, 7, 81, 0
9, 107340, Note_on_c, 7, 82, 66
9, 107369, Note_on_c, 7, 82, 0
9, 107370, Note_on_c, 7, 79, 66
9, 107399, Note_on_c, 7, 79, 0
9, 107400, Note_on_c, 7, 75, 66
9, 107429, Note_on_c, 7, 75, 0
9, 107430, Note_on_c, 7, 79, 66
9, 107459, Note_on_c, 7, 79, 0
9, 107460, Note_on_c, 7, 70, 66
9, 107489, Note_on_c, 7, 70, 0
9, 107490, Note_on_c, 7, 75, 66
9, 107519, Note_on_c, 7, 75, 0
9, 107520, Note_on_c, 7, 67, 66
9, 107549, Note_on_c, 7, 67, 0
9, 107550, Note_on_c, 7, 70, 66
9, 107579, Note_on_c, 7, 70, 0
9, 107580, Note_on_c, 7, 62, 66
9, 107609, Note_on_c, 7, 62, 0
9, 107610, Note_on_c, 7, 70, 66
9, 107639, Note_on_c, 7, 70, 0
9, 107640, Note_on_c, 7, 77, 66
9, 107669, Note_on_c, 7, 77, 0
9, 107670, Note_on_c, 7, 79, 66
9, 107699, Note_on_c, 7, 79, 0
9, 107700, Note_on_c, 7, 80, 66
9, 107729, Note_on_c, 7, 80, 0
9, 107730, Note_on_c, 7, 77, 66
9, 107759, Note_on_c, 7, 77, 0
9, 107760, Note_on_c, 7, 74, 66
9, 107789, Note_on_c, 7, 74, 0
9, 107790, Note_on_c, 7, 77, 66
9, 107819, Note_on_c, 7, 77, 0
9, 107820, Note_on_c, 7, 68, 66
9, 107849, Note_on_c, 7, 68, 0
9, 107850, Note_on_c, 7, 74, 66
9, 107879, Note_on_c, 7, 74, 0
9, 107880, Note_on_c, 7, 65, 66
9, 107909, Note_on_c, 7, 65, 0
9, 107910, Note_on_c, 7, 68, 66
9, 107939, Note_on_c, 7, 68, 0
9, 107940, Note_on_c, 7, 67, 66
9, 107999, Note_on_c, 7, 67, 0
9, 108000, Note_on_c, 7, 68, 66
9, 108059, Note_on_c, 7, 68, 0
9, 108060, Note_on_c, 7, 67, 66
9, 108119, Note_on_c, 7, 67, 0
9, 108120, Note_on_c, 7, 65, 66
9, 108179, Note_on_c, 7, 65, 0
9, 108180, Note_on_c, 7, 63, 66
9, 108239, Note_on_c, 7, 63, 0
9, 108240, Note_on_c, 7, 65, 66
9, 108269, Note_on_c, 7, 65, 0
9, 108270, Note_on_c, 7, 67, 66
9, 108299, Note_on_c, 7, 67, 0
9, 108300, Note_on_c, 7, 68, 66
9, 108479, Note_on_c, 7, 68, 0
9, 108480, Note_on_c, 7, 65, 66
9, 108540, Note_on_c, 7, 65, 0
9, 108540, Note_on_c, 7, 63, 66
9, 108555, Note_on_c, 7, 63, 0
9, 108555, Note_on_c, 7, 62, 66
9, 108570, Note_on_c, 7, 62, 0
9, 108570, Note_on_c, 7, 63, 66
9, 108585, Note_on_c, 7, 63, 0
9, 108585, Note_on_c, 7, 62, 66
9, 108600, Note_on_c, 7, 62, 0
9, 108600, Note_on_c, 7, 63, 66
9, 108615, Note_on_c, 7, 63, 0
9, 108615, Note_on_c, 7, 62, 66
9, 108630, Note_on_c, 7, 62, 0
9, 108630, Note_on_c, 7, 63, 66
9, 108645, Note_on_c, 7, 63, 0
9, 108645, Note_on_c, 7, 62, 66
9, 108660, Note_on_c, 7, 62, 0
9, 108660, Note_on_c, 7, 60, 66
9, 108719, Note_on_c, 7, 60, 0
9, 108720, Note_on_c, 7, 72, 66
9, 108839, Note_on_c, 7, 72, 0
9, 108840, Note_on_c, 7, 70, 66
9, 108899, Note_on_c, 7, 70, 0
9, 108900, Note_on_c, 7, 68, 66
9, 109079, Note_on_c, 7, 68, 0
9, 109080, Note_on_c, 7, 77, 66
9, 109139, Note_on_c, 7, 77, 0
9, 109140, Note_on_c, 7, 67, 66
9, 109199, Note_on_c, 7, 67, 0
9, 109200, Note_on_c, 7, 70, 66
9, 109259, Note_on_c, 7, 70, 0
9, 109260, Note_on_c, 7, 73, 66
9, 109319, Note_on_c, 7, 73, 0
9, 109320, Note_on_c, 7, 72, 66
9, 109349, Note_on_c, 7, 72, 0
9, 109350, Note_on_c, 7, 70, 66
9, 109379, Note_on_c, 7, 70, 0
9, 109380, Note_on_c, 7, 72, 66
9, 109439, Note_on_c, 7, 72, 0
9, 109440, Note_on_c, 7, 73, 66
9, 109499, Note_on_c, 7, 73, 0
9, 109500, Note_on_c, 7, 72, 66
9, 109559, Note_on_c, 7, 72, 0
9, 109560, Note_on_c, 7, 70, 66
9, 109619, Note_on_c, 7, 70, 0
9, 109620, Note_on_c, 7, 68, 66
9, 109679, Note_on_c, 7, 68, 0
9, 109680, Note_on_c, 7, 70, 66
9, 109709, Note_on_c, 7, 70, 0
9, 109710, Note_on_c, 7, 72, 66
9, 109739, Note_on_c, 7, 72, 0
9, 109740, Note_on_c, 7, 73, 66
9, 109919, Note_on_c, 7, 73, 0
9, 109920, Note_on_c, 7, 70, 66
9, 109979, Note_on_c, 7, 70, 0
9, 109980, Note_on_c, 7, 68, 66
9, 109995, Note_on_c, 7, 68, 0
9, 109995, Note_on_c, 7, 67, 66
9, 110010, Note_on_c, 7, 67, 0
9, 110010, Note_on_c, 7, 68, 66
9, 110025, Note_on_c, 7, 68, 0
9, 110025, Note_on_c, 7, 67, 66
9, 110040, Note_on_c, 7, 67, 0
9, 110040, Note_on_c, 7, 68, 66
9, 110055, Note_on_c, 7, 68, 0
9, 110055, Note_on_c, 7, 67, 66
9, 110070, Note_on_c, 7, 67, 0
9, 110070, Note_on_c, 7, 68, 66
9, 110085, Note_on_c, 7, 68, 0
9, 110085, Note_on_c, 7, 67, 66
9, 110100, Note_on_c, 7, 67, 0
9, 110100, Note_on_c, 7, 65, 66
9, 110159, Note_on_c, 7, 65, 0
9, 110160, Note_on_c, 7, 77, 66
9, 110189, Note_on_c, 7, 77, 0
9, 110190, Note_on_c, 7, 76, 66
9, 110219, Note_on_c, 7, 76, 0
9, 110220, Note_on_c, 7, 77, 66
9, 110249, Note_on_c, 7, 77, 0
9, 110250, Note_on_c, 7, 72, 66
9, 110279, Note_on_c, 7, 72, 0
9, 110280, Note_on_c, 7, 73, 66
9, 110309, Note_on_c, 7, 73, 0
9, 110310, Note_on_c, 7, 70, 66
9, 110339, Note_on_c, 7, 70, 0
9, 110340, Note_on_c, 7, 72, 66
9, 110369, Note_on_c, 7, 72, 0
9, 110370, Note_on_c, 7, 68, 66
9, 110399, Note_on_c, 7, 68, 0
9, 110400, Note_on_c, 7, 70, 66
9, 110429, Note_on_c, 7, 70, 0
9, 110430, Note_on_c, 7, 67, 66
9, 110459, Note_on_c, 7, 67, 0
9, 110460, Note_on_c, 7, 68, 66
9, 110489, Note_on_c, 7, 68, 0
9, 110490, Note_on_c, 7, 65, 66
9, 110519, Note_on_c, 7, 65, 0
9, 110520, Note_on_c, 7, 67, 66
9, 110549, Note_on_c, 7, 67, 0
9, 110550, Note_on_c, 7, 64, 66
9, 110579, Note_on_c, 7, 64, 0
9, 110580, Note_on_c, 7, 65, 66
9, 110609, Note_on_c, 7, 65, 0
9, 110610, Note_on_c, 7, 68, 66
9, 110639, Note_on_c, 7, 68, 0
9, 110640, Note_on_c, 7, 67, 66
9, 110669, Note_on_c, 7, 67, 0
9, 110670, Note_on_c, 7, 70, 66
9, 110699, Note_on_c, 7, 70, 0
9, 110700, Note_on_c, 7, 68, 66
9, 110759, Note_on_c, 7, 68, 0
9, 110760, Note_on_c, 7, 70, 66
9, 110819, Note_on_c, 7, 70, 0
9, 110820, Note_on_c, 7, 72, 66
9, 110879, Note_on_c, 7, 72, 0
9, 110880, Note_on_c, 7, 74, 66
9, 110909, Note_on_c, 7, 74, 0
9, 110910, Note_on_c, 7, 76, 66
9, 110939, Note_on_c, 7, 76, 0
9, 110940, Note_on_c, 7, 77, 66
9, 110969, Note_on_c, 7, 77, 0
9, 110970, Note_on_c, 7, 76, 66
9, 110999, Note_on_c, 7, 76, 0
9, 111000, Note_on_c, 7, 77, 66
9, 111029, Note_on_c, 7, 77, 0
9, 111030, Note_on_c, 7, 76, 66
9, 111059, Note_on_c, 7, 76, 0
9, 111060, Note_on_c, 7, 77, 66
9, 111119, Note_on_c, 7, 77, 0
9, 111120, Note_on_c, 7, 77, 66
9, 111179, Note_on_c, 7, 77, 0
9, 111180, Note_on_c, 7, 77, 66
9, 111195, Note_on_c, 7, 77, 0
9, 111195, Note_on_c, 7, 79, 66
9, 111210, Note_on_c, 7, 79, 0
9, 111210, Note_on_c, 7, 77, 66
9, 111239, Note_on_c, 7, 77, 0
9, 111240, Note_on_c, 7, 76, 66
9, 111299, Note_on_c, 7, 76, 0
9, 111600, Note_on_c, 7, 72, 66
9, 111629, Note_on_c, 7, 72, 0
9, 111630, Note_on_c, 7, 73, 66
9, 111659, Note_on_c, 7, 73, 0
9, 111660, Note_on_c, 7, 75, 66
9, 111719, Note_on_c, 7, 75, 0
9, 111720, Note_on_c, 7, 73, 66
9, 111779, Note_on_c, 7, 73, 0
9, 111780, Note_on_c, 7, 78, 66
9, 111839, Note_on_c, 7, 78, 0
9, 111840, Note_on_c, 7, 77, 66
9, 111899, Note_on_c, 7, 77, 0
9, 111900, Note_on_c, 7, 69, 66
9, 111959, Note_on_c, 7, 69, 0
9, 111960, Note_on_c, 7, 70, 66
9, 112019, Note_on_c, 7, 70, 0
9, 112020, Note_on_c, 7, 75, 66
9, 112049, Note_on_c, 7, 75, 0
9, 112050, Note_on_c, 7, 72, 66
9, 112079, Note_on_c, 7, 72, 0
9, 112080, Note_on_c, 7, 73, 66
9, 112139, Note_on_c, 7, 73, 0
9, 112320, Note_on_c, 7, 74, 66
9, 112349, Note_on_c, 7, 74, 0
9, 112350, Note_on_c, 7, 75, 66
9, 112379, Note_on_c, 7, 75, 0
9, 112380, Note_on_c, 7, 77, 66
9, 112439, Note_on_c, 7, 77, 0
9, 112440, Note_on_c, 7, 75, 66
9, 112499, Note_on_c, 7, 75, 0
9, 112500, Note_on_c, 7, 80, 66
9, 112559, Note_on_c, 7, 80, 0
9, 112560, Note_on_c, 7, 79, 66
9, 112619, Note_on_c, 7, 79, 0
9, 112620, Note_on_c, 7, 71, 66
9, 112679, Note_on_c, 7, 71, 0
9, 112680, Note_on_c, 7, 72, 66
9, 112739, Note_on_c, 7, 72, 0
9, 112740, Note_on_c, 7, 77, 66
9, 112769, Note_on_c, 7, 77, 0
9, 112770, Note_on_c, 7, 74, 66
9, 112799, Note_on_c, 7, 74, 0
9, 112800, Note_on_c, 7, 76, 66
9, 112859, Note_on_c, 7, 76, 0
9, 113040, Note_on_c, 7, 84, 66
9, 113069, Note_on_c, 7, 84, 0
9, 113070, Note_on_c, 7, 83, 66
9, 113099, Note_on_c, 7, 83, 0
9, 113100, Note_on_c, 7, 84, 66
9, 113129, Note_on_c, 7, 84, 0
9, 113130, Note_on_c, 7, 79, 66
9, 113159, Note_on_c, 7, 79, 0
9, 113160, Note_on_c, 7, 80, 66
9, 113189, Note_on_c, 7, 80, 0
9, 113190, Note_on_c, 7, 77, 66
9, 113219, Note_on_c, 7, 77, 0
9, 113220, Note_on_c, 7, 79, 66
9, 113249, Note_on_c, 7, 79, 0
9, 113250, Note_on_c, 7, 76, 66
9, 113279, Note_on_c, 7, 76, 0
9, 113280, Note_on_c, 7, 72, 66
9, 113339, Note_on_c, 7, 72, 0
9, 113400, Note_on_c, 7, 84, 66
9, 113429, Note_on_c, 7, 84, 0
9, 113430, Note_on_c, 7, 80, 66
9, 113459, Note_on_c, 7, 80, 0
9, 113460, Note_on_c, 7, 82, 66
9, 113489, Note_on_c, 7, 82, 0
9, 113490, Note_on_c, 7, 79, 66
9, 113519, Note_on_c, 7, 79, 0
9, 113520, Note_on_c, 7, 80, 66
9, 113549, Note_on_c, 7, 80, 0
9, 113550, Note_on_c, 7, 77, 66
9, 113579, Note_on_c, 7, 77, 0
9, 113580, Note_on_c, 7, 79, 66
9, 113609, Note_on_c, 7, 79, 0
9, 113610, Note_on_c, 7, 76, 66
9, 113639, Note_on_c, 7, 76, 0
9, 113640, Note_on_c, 7, 72, 66
9, 113699, Note_on_c, 7, 72, 0
9, 113760, Note_on_c, 7, 72, 66
9, 113789, Note_on_c, 7, 72, 0
9, 113790, Note_on_c, 7, 70, 66
9, 113819, Note_on_c, 7, 70, 0
9, 113820, Note_on_c, 7, 72, 66
9, 113879, Note_on_c, 7, 72, 0
9, 113880, Note_on_c, 7, 80, 66
9, 113939, Note_on_c, 7, 80, 0
9, 113940, Note_on_c, 7, 76, 66
9, 113999, Note_on_c, 7, 76, 0
9, 114000, Note_on_c, 7, 77, 66
9, 114059, Note_on_c, 7, 77, 0
9, 114120, Note_on_c, 7, 70, 66
9, 114149, Note_on_c, 7, 70, 0
9, 114150, Note_on_c, 7, 68, 66
9, 114179, Note_on_c, 7, 68, 0
9, 114180, Note_on_c, 7, 70, 66
9, 114239, Note_on_c, 7, 70, 0
9, 114240, Note_on_c, 7, 79, 66
9, 114329, Note_on_c, 7, 79, 0
9, 114330, Note_on_c, 7, 77, 66
9, 114359, Note_on_c, 7, 77, 0
9, 114360, Note_on_c, 7, 76, 66
9, 114389, Note_on_c, 7, 76, 0
9, 114390, Note_on_c, 7, 77, 66
9, 114419, Note_on_c, 7, 77, 0
9, 114420, Note_on_c, 7, 79, 66
9, 114449, Note_on_c, 7, 79, 0
9, 114450, Note_on_c, 7, 77, 66
9, 114479, Note_on_c, 7, 77, 0
9, 114480, Note_on_c, 7, 76, 66
9, 114509, Note_on_c, 7, 76, 0
9, 114510, Note_on_c, 7, 74, 66
9, 114539, Note_on_c, 7, 74, 0
9, 114540, Note_on_c, 7, 72, 66
9, 114569, Note_on_c, 7, 72, 0
9, 114570, Note_on_c, 7, 70, 66
9, 114599, Note_on_c, 7, 70, 0
9, 114600, Note_on_c, 7, 73, 66
9, 114719, Note_on_c, 7, 73, 0
9, 114720, Note_on_c, 7, 72, 66
9, 114809, Note_on_c, 7, 72, 0
9, 114810, Note_on_c, 7, 70, 66
9, 114839, Note_on_c, 7, 70, 0
9, 114840, Note_on_c, 7, 68, 66
9, 114869, Note_on_c, 7, 68, 0
9, 114870, Note_on_c, 7, 67, 66
9, 114899, Note_on_c, 7, 67, 0
9, 114900, Note_on_c, 7, 68, 66
9, 114929, Note_on_c, 7, 68, 0
9, 114930, Note_on_c, 7, 65, 66
9, 114959, Note_on_c, 7, 65, 0
9, 114960, Note_on_c, 7, 67, 66
9, 114989, Note_on_c, 7, 67, 0
9, 114990, Note_on_c, 7, 64, 66
9, 115019, Note_on_c, 7, 64, 0
9, 115020, Note_on_c, 7, 65, 66
9, 115049, Note_on_c, 7, 65, 0
9, 115050, Note_on_c, 7, 60, 66
9, 115079, Note_on_c, 7, 60, 0
9, 115080, Note_on_c, 7, 65, 66
9, 115109, Note_on_c, 7, 65, 0
9, 115110, Note_on_c, 7, 64, 66
9, 115139, Note_on_c, 7, 64, 0
9, 115140, Note_on_c, 7, 65, 66
9, 115169, Note_on_c, 7, 65, 0
9, 115170, Note_on_c, 7, 60, 66
9, 115199, Note_on_c, 7, 60, 0
9, 115200, Note_on_c, 7, 68, 66
9, 115229, Note_on_c, 7, 68, 0
9, 115230, Note_on_c, 7, 67, 66
9, 115259, Note_on_c, 7, 67, 0
9, 115260, Note_on_c, 7, 68, 66
9, 115289, Note_on_c, 7, 68, 0
9, 115290, Note_on_c, 7, 65, 66
9, 115319, Note_on_c, 7, 65, 0
9, 115320, Note_on_c, 7, 72, 66
9, 115349, Note_on_c, 7, 72, 0
9, 115350, Note_on_c, 7, 68, 66
9, 115379, Note_on_c, 7, 68, 0
9, 115380, Note_on_c, 7, 70, 66
9, 115409, Note_on_c, 7, 70, 0
9, 115410, Note_on_c, 7, 67, 66
9, 115439, Note_on_c, 7, 67, 0
9, 115440, Note_on_c, 7, 68, 66
9, 115469, Note_on_c, 7, 68, 0
9, 115470, Note_on_c, 7, 65, 66
9, 115499, Note_on_c, 7, 65, 0
9, 115500, Note_on_c, 7, 64, 66
9, 115529, Note_on_c, 7, 64, 0
9, 115530, Note_on_c, 7, 72, 66
9, 115559, Note_on_c, 7, 72, 0
9, 115560, Note_on_c, 7, 79, 66
9, 115589, Note_on_c, 7, 79, 0
9, 115590, Note_on_c, 7, 77, 66
9, 115619, Note_on_c, 7, 77, 0
9, 115620, Note_on_c, 7, 79, 66
9, 115649, Note_on_c, 7, 79, 0
9, 115650, Note_on_c, 7, 72, 66
9, 115679, Note_on_c, 7, 72, 0
9, 115680, Note_on_c, 7, 82, 66
9, 115709, Note_on_c, 7, 82, 0
9, 115710, Note_on_c, 7, 81, 66
9, 115739, Note_on_c, 7, 81, 0
9, 115740, Note_on_c, 7, 82, 66
9, 115769, Note_on_c, 7, 82, 0
9, 115770, Note_on_c, 7, 79, 66
9, 115799, Note_on_c, 7, 79, 0
9, 115800, Note_on_c, 7, 84, 66
9, 115829, Note_on_c, 7, 84, 0
9, 115830, Note_on_c, 7, 80, 66
9, 115859, Note_on_c, 7, 80, 0
9, 115860, Note_on_c, 7, 82, 66
9, 115919, Note_on_c, 7, 82, 0
9, 115920, Note_on_c, 7, 60, 66
9, 116009, Note_on_c, 7, 60, 0
9, 116010, Note_on_c, 7, 62, 66
9, 116039, Note_on_c, 7, 62, 0
9, 116040, Note_on_c, 7, 64, 66
9, 116069, Note_on_c, 7, 64, 0
9, 116070, Note_on_c, 7, 65, 66
9, 116099, Note_on_c, 7, 65, 0
9, 116100, Note_on_c, 7, 67, 66
9, 116129, Note_on_c, 7, 67, 0
9, 116130, Note_on_c, 7, 68, 66
9, 116159, Note_on_c, 7, 68, 0
9, 116160, Note_on_c, 7, 70, 66
9, 116189, Note_on_c, 7, 70, 0
9, 116190, Note_on_c, 7, 67, 66
9, 116219, Note_on_c, 7, 67, 0
9, 116220, Note_on_c, 7, 68, 66
9, 116249, Note_on_c, 7, 68, 0
9, 116250, Note_on_c, 7, 73, 66
9, 116279, Note_on_c, 7, 73, 0
9, 116280, Note_on_c, 7, 72, 66
9, 116309, Note_on_c, 7, 72, 0
9, 116310, Note_on_c, 7, 70, 66
9, 116339, Note_on_c, 7, 70, 0
9, 116340, Note_on_c, 7, 72, 66
9, 116369, Note_on_c, 7, 72, 0
9, 116370, Note_on_c, 7, 68, 66
9, 116399, Note_on_c, 7, 68, 0
9, 116400, Note_on_c, 7, 70, 66
9, 116429, Note_on_c, 7, 70, 0
9, 116430, Note_on_c, 7, 67, 66
9, 116459, Note_on_c, 7, 67, 0
9, 116460, Note_on_c, 7, 68, 66
9, 116489, Note_on_c, 7, 68, 0
9, 116490, Note_on_c, 7, 72, 66
9, 116519, Note_on_c, 7, 72, 0
9, 116520, Note_on_c, 7, 68, 66
9, 116549, Note_on_c, 7, 68, 0
9, 116550, Note_on_c, 7, 67, 66
9, 116579, Note_on_c, 7, 67, 0
9, 116580, Note_on_c, 7, 68, 66
9, 116609, Note_on_c, 7, 68, 0
9, 116610, Note_on_c, 7, 72, 66
9, 116639, Note_on_c, 7, 72, 0
9, 116640, Note_on_c, 7, 65, 66
9, 116669, Note_on_c, 7, 65, 0
9, 116670, Note_on_c, 7, 64, 66
9, 116699, Note_on_c, 7, 64, 0
9, 116700, Note_on_c, 7, 65, 66
9, 116729, Note_on_c, 7, 65, 0
9, 116730, Note_on_c, 7, 72, 66
9, 116759, Note_on_c, 7, 72, 0
9, 116760, Note_on_c, 7, 63, 66
9, 116789, Note_on_c, 7, 63, 0
9, 116790, Note_on_c, 7, 61, 66
9, 116819, Note_on_c, 7, 61, 0
9, 116820, Note_on_c, 7, 63, 66
9, 116849, Note_on_c, 7, 63, 0
9, 116850, Note_on_c, 7, 72, 66
9, 116879, Note_on_c, 7, 72, 0
9, 116880, Note_on_c, 7, 61, 66
9, 116909, Note_on_c, 7, 61, 0
9, 116910, Note_on_c, 7, 60, 66
9, 116939, Note_on_c, 7, 60, 0
9, 116940, Note_on_c, 7, 58, 66
9, 116969, Note_on_c, 7, 58, 0
9, 116970, Note_on_c, 7, 53, 66
9, 116999, Note_on_c, 7, 53, 0
9, 117000, Note_on_c, 7, 61, 66
9, 117029, Note_on_c, 7, 61, 0
9, 117030, Note_on_c, 7, 60, 66
9, 117059, Note_on_c, 7, 60, 0
9, 117060, Note_on_c, 7, 62, 66
9, 117089, Note_on_c, 7, 62, 0
9, 117090, Note_on_c, 7, 58, 66
9, 117119, Note_on_c, 7, 58, 0
9, 117120, Note_on_c, 7, 65, 66
9, 117149, Note_on_c, 7, 65, 0
9, 117150, Note_on_c, 7, 63, 66
9, 117179, Note_on_c, 7, 63, 0
9, 117180, Note_on_c, 7, 65, 66
9, 117209, Note_on_c, 7, 65, 0
9, 117210, Note_on_c, 7, 62, 66
9, 117239, Note_on_c, 7, 62, 0
9, 117240, Note_on_c, 7, 67, 66
9, 117269, Note_on_c, 7, 67, 0
9, 117270, Note_on_c, 7, 69, 66
9, 117299, Note_on_c, 7, 69, 0
9, 117300, Note_on_c, 7, 71, 66
9, 117329, Note_on_c, 7, 71, 0
9, 117330, Note_on_c, 7, 74, 66
9, 117359, Note_on_c, 7, 74, 0
9, 117360, Note_on_c, 7, 67, 66
9, 117389, Note_on_c, 7, 67, 0
9, 117390, Note_on_c, 7, 66, 66
9, 117419, Note_on_c, 7, 66, 0
9, 117420, Note_on_c, 7, 67, 66
9, 117449, Note_on_c, 7, 67, 0
9, 117450, Note_on_c, 7, 74, 66
9, 117479, Note_on_c, 7, 74, 0
9, 117480, Note_on_c, 7, 65, 66
9, 117509, Note_on_c, 7, 65, 0
9, 117510, Note_on_c, 7, 63, 66
9, 117539, Note_on_c, 7, 63, 0
9, 117540, Note_on_c, 7, 65, 66
9, 117569, Note_on_c, 7, 65, 0
9, 117570, Note_on_c, 7, 74, 66
9, 117599, Note_on_c, 7, 74, 0
9, 117600, Note_on_c, 7, 63, 66
9, 117629, Note_on_c, 7, 63, 0
9, 117630, Note_on_c, 7, 62, 66
9, 117659, Note_on_c, 7, 62, 0
9, 117660, Note_on_c, 7, 60, 66
9, 117689, Note_on_c, 7, 60, 0
9, 117690, Note_on_c, 7, 55, 66
9, 117719, Note_on_c, 7, 55, 0
9, 117720, Note_on_c, 7, 63, 66
9, 117749, Note_on_c, 7, 63, 0
9, 117750, Note_on_c, 7, 62, 66
9, 117779, Note_on_c, 7, 62, 0
9, 117780, Note_on_c, 7, 63, 66
9, 117809, Note_on_c, 7, 63, 0
9, 117810, Note_on_c, 7, 60, 66
9, 117839, Note_on_c, 7, 60, 0
9, 117840, Note_on_c, 7, 69, 66
9, 117869, Note_on_c, 7, 69, 0
9, 117870, Note_on_c, 7, 67, 66
9, 117899, Note_on_c, 7, 67, 0
9, 117900, Note_on_c, 7, 69, 66
9, 117929, Note_on_c, 7, 69, 0
9, 117930, Note_on_c, 7, 62, 66
9, 117959, Note_on_c, 7, 62, 0
9, 117960, Note_on_c, 7, 67, 66
9, 117989, Note_on_c, 7, 67, 0
9, 117990, Note_on_c, 7, 69, 66
9, 118019, Note_on_c, 7, 69, 0
9, 118020, Note_on_c, 7, 70, 66
9, 118049, Note_on_c, 7, 70, 0
9, 118050, Note_on_c, 7, 62, 66
9, 118079, Note_on_c, 7, 62, 0
9, 118080, Note_on_c, 7, 67, 66
9, 118109, Note_on_c, 7, 67, 0
9, 118110, Note_on_c, 7, 70, 66
9, 118139, Note_on_c, 7, 70, 0
9, 118140, Note_on_c, 7, 63, 66
9, 118199, Note_on_c, 7, 63, 0
9, 118200, Note_on_c, 7, 75, 66
9, 118289, Note_on_c, 7, 75, 0
9, 118290, Note_on_c, 7, 72, 66
9, 118319, Note_on_c, 7, 72, 0
9, 118320, Note_on_c, 7, 74, 66
9, 118349, Note_on_c, 7, 74, 0
9, 118350, Note_on_c, 7, 71, 66
9, 118379, Note_on_c, 7, 71, 0
9, 118380, Note_on_c, 7, 72, 66
9, 118409, Note_on_c, 7, 72, 0
9, 118410, Note_on_c, 7, 63, 66
9, 118439, Note_on_c, 7, 63, 0
9, 118440, Note_on_c, 7, 68, 66
9, 118469, Note_on_c, 7, 68, 0
9, 118470, Note_on_c, 7, 72, 66
9, 118499, Note_on_c, 7, 72, 0
9, 118500, Note_on_c, 7, 65, 66
9, 118559, Note_on_c, 7, 65, 0
9, 118560, Note_on_c, 7, 77, 66
9, 118649, Note_on_c, 7, 77, 0
9, 118650, Note_on_c, 7, 74, 66
9, 118679, Note_on_c, 7, 74, 0
9, 118680, Note_on_c, 7, 75, 66
9, 118709, Note_on_c, 7, 75, 0
9, 118710, Note_on_c, 7, 72, 66
9, 118739, Note_on_c, 7, 72, 0
9, 118740, Note_on_c, 7, 74, 66
9, 118769, Note_on_c, 7, 74, 0
9, 118770, Note_on_c, 7, 65, 66
9, 118799, Note_on_c, 7, 65, 0
9, 118800, Note_on_c, 7, 70, 66
9, 118829, Note_on_c, 7, 70, 0
9, 118830, Note_on_c, 7, 74, 66
9, 118859, Note_on_c, 7, 74, 0
9, 118860, Note_on_c, 7, 67, 66
9, 118919, Note_on_c, 7, 67, 0
9, 118920, Note_on_c, 7, 79, 66
9, 119009, Note_on_c, 7, 79, 0
9, 119010, Note_on_c, 7, 75, 66
9, 119039, Note_on_c, 7, 75, 0
9, 119040, Note_on_c, 7, 77, 66
9, 119069, Note_on_c, 7, 77, 0
9, 119070, Note_on_c, 7, 74, 66
9, 119099, Note_on_c, 7, 74, 0
9, 119100, Note_on_c, 7, 75, 66
9, 119159, Note_on_c, 7, 75, 0
9, 119160, Note_on_c, 7, 67, 66
9, 119219, Note_on_c, 7, 67, 0
9, 119220, Note_on_c, 7, 63, 66
9, 119279, Note_on_c, 7, 63, 0
9, 119520, Note_on_c, 7, 76, 66
9, 119579, Note_on_c, 7, 76, 0
9, 119580, Note_on_c, 7, 79, 66
9, 119639, Note_on_c, 7, 79, 0
9, 119640, Note_on_c, 7, 82, 66
9, 119699, Note_on_c, 7, 82, 0
9, 119700, Note_on_c, 7, 85, 66
9, 119759, Note_on_c, 7, 85, 0
9, 119760, Note_on_c, 7, 84, 66
9, 119819, Note_on_c, 7, 84, 0
9, 119820, Note_on_c, 7, 77, 66
9, 120240, Note_on_c, 7, 77, 0
9, 120240, Note_on_c, 7, 75, 66
9, 120299, Note_on_c, 7, 75, 0
9, 120300, Note_on_c, 7, 69, 66
9, 120359, Note_on_c, 7, 69, 0
9, 120360, Note_on_c, 7, 72, 66
9, 120419, Note_on_c, 7, 72, 0
9, 120420, Note_on_c, 7, 66, 66
9, 120479, Note_on_c, 7, 66, 0
9, 120480, Note_on_c, 7, 65, 66
9, 120569, Note_on_c, 7, 65, 0
9, 120570, Note_on_c, 7, 65, 66
9, 120599, Note_on_c, 7, 65, 0
9, 120600, Note_on_c, 7, 70, 66
9, 120629, Note_on_c, 7, 70, 0
9, 120630, Note_on_c, 7, 72, 66
9, 120659, Note_on_c, 7, 72, 0
9, 120660, Note_on_c, 7, 73, 66
9, 120689, Note_on_c, 7, 73, 0
9, 120690, Note_on_c, 7, 70, 66
9, 120719, Note_on_c, 7, 70, 0
9, 120720, Note_on_c, 7, 65, 66
9, 120749, Note_on_c, 7, 65, 0
9, 120750, Note_on_c, 7, 70, 66
9, 120779, Note_on_c, 7, 70, 0
9, 120780, Note_on_c, 7, 61, 66
9, 120809, Note_on_c, 7, 61, 0
9, 120810, Note_on_c, 7, 65, 66
9, 120839, Note_on_c, 7, 65, 0
9, 120840, Note_on_c, 7, 58, 66
9, 120869, Note_on_c, 7, 58, 0
9, 120870, Note_on_c, 7, 65, 66
9, 120899, Note_on_c, 7, 65, 0
9, 120900, Note_on_c, 7, 56, 66
9, 120929, Note_on_c, 7, 56, 0
9, 120930, Note_on_c, 7, 65, 66
9, 120959, Note_on_c, 7, 65, 0
9, 120960, Note_on_c, 7, 72, 66
9, 120989, Note_on_c, 7, 72, 0
9, 120990, Note_on_c, 7, 74, 66
9, 121019, Note_on_c, 7, 74, 0
9, 121020, Note_on_c, 7, 75, 66
9, 121049, Note_on_c, 7, 75, 0
9, 121050, Note_on_c, 7, 70, 66
9, 121079, Note_on_c, 7, 70, 0
9, 121080, Note_on_c, 7, 65, 66
9, 121109, Note_on_c, 7, 65, 0
9, 121110, Note_on_c, 7, 70, 66
9, 121139, Note_on_c, 7, 70, 0
9, 121140, Note_on_c, 7, 62, 66
9, 121169, Note_on_c, 7, 62, 0
9, 121170, Note_on_c, 7, 65, 66
9, 121199, Note_on_c, 7, 65, 0
9, 121200, Note_on_c, 7, 56, 66
9, 121229, Note_on_c, 7, 56, 0
9, 121230, Note_on_c, 7, 65, 66
9, 121259, Note_on_c, 7, 65, 0
9, 121260, Note_on_c, 7, 55, 66
9, 121289, Note_on_c, 7, 55, 0
9, 121290, Note_on_c, 7, 63, 66
9, 121319, Note_on_c, 7, 63, 0
9, 121320, Note_on_c, 7, 70, 66
9, 121349, Note_on_c, 7, 70, 0
9, 121350, Note_on_c, 7, 74, 66
9, 121379, Note_on_c, 7, 74, 0
9, 121380, Note_on_c, 7, 75, 66
9, 121409, Note_on_c, 7, 75, 0
9, 121410, Note_on_c, 7, 72, 66
9, 121439, Note_on_c, 7, 72, 0
9, 121440, Note_on_c, 7, 68, 66
9, 121469, Note_on_c, 7, 68, 0
9, 121470, Note_on_c, 7, 72, 66
9, 121499, Note_on_c, 7, 72, 0
9, 121500, Note_on_c, 7, 63, 66
9, 121529, Note_on_c, 7, 63, 0
9, 121530, Note_on_c, 7, 68, 66
9, 121559, Note_on_c, 7, 68, 0
9, 121560, Note_on_c, 7, 60, 66
9, 121589, Note_on_c, 7, 60, 0
9, 121590, Note_on_c, 7, 63, 66
9, 121619, Note_on_c, 7, 63, 0
9, 121620, Note_on_c, 7, 55, 66
9, 121649, Note_on_c, 7, 55, 0
9, 121650, Note_on_c, 7, 63, 66
9, 121679, Note_on_c, 7, 63, 0
9, 121680, Note_on_c, 7, 70, 66
9, 121709, Note_on_c, 7, 70, 0
9, 121710, Note_on_c, 7, 72, 66
9, 121739, Note_on_c, 7, 72, 0
9, 121740, Note_on_c, 7, 73, 66
9, 121769, Note_on_c, 7, 73, 0
9, 121770, Note_on_c, 7, 70, 66
9, 121799, Note_on_c, 7, 70, 0
9, 121800, Note_on_c, 7, 67, 66
9, 121829, Note_on_c, 7, 67, 0
9, 121830, Note_on_c, 7, 70, 66
9, 121859, Note_on_c, 7, 70, 0
9, 121860, Note_on_c, 7, 61, 66
9, 121889, Note_on_c, 7, 61, 0
9, 121890, Note_on_c, 7, 67, 66
9, 121919, Note_on_c, 7, 67, 0
9, 121920, Note_on_c, 7, 58, 66
9, 121949, Note_on_c, 7, 58, 0
9, 121950, Note_on_c, 7, 61, 66
9, 121979, Note_on_c, 7, 61, 0
9, 121980, Note_on_c, 7, 60, 66
9, 122039, Note_on_c, 7, 60, 0
9, 122040, Note_on_c, 7, 73, 66
9, 122099, Note_on_c, 7, 73, 0
9, 122100, Note_on_c, 7, 72, 66
9, 122159, Note_on_c, 7, 72, 0
9, 122160, Note_on_c, 7, 70, 66
9, 122219, Note_on_c, 7, 70, 0
9, 122220, Note_on_c, 7, 68, 66
9, 122279, Note_on_c, 7, 68, 0
9, 122280, Note_on_c, 7, 70, 66
9, 122309, Note_on_c, 7, 70, 0
9, 122310, Note_on_c, 7, 72, 66
9, 122339, Note_on_c, 7, 72, 0
9, 122340, Note_on_c, 7, 73, 66
9, 122519, Note_on_c, 7, 73, 0
9, 122520, Note_on_c, 7, 70, 66
9, 122579, Note_on_c, 7, 70, 0
9, 122580, Note_on_c, 7, 68, 66
9, 122595, Note_on_c, 7, 68, 0
9, 122595, Note_on_c, 7, 67, 66
9, 122610, Note_on_c, 7, 67, 0
9, 122610, Note_on_c, 7, 68, 66
9, 122625, Note_on_c, 7, 68, 0
9, 122625, Note_on_c, 7, 67, 66
9, 122640, Note_on_c, 7, 67, 0
9, 122640, Note_on_c, 7, 68, 66
9, 122655, Note_on_c, 7, 68, 0
9, 122655, Note_on_c, 7, 67, 66
9, 122670, Note_on_c, 7, 67, 0
9, 122670, Note_on_c, 7, 68, 66
9, 122685, Note_on_c, 7, 68, 0
9, 122685, Note_on_c, 7, 67, 66
9, 122700, Note_on_c, 7, 67, 0
9, 122700, Note_on_c, 7, 65, 66
9, 122759, Note_on_c, 7, 65, 0
9, 122760, Note_on_c, 7, 77, 66
9, 122819, Note_on_c, 7, 77, 0
9, 122820, Note_on_c, 7, 75, 66
9, 122879, Note_on_c, 7, 75, 0
9, 122880, Note_on_c, 7, 74, 66
9, 122939, Note_on_c, 7, 74, 0
9, 122940, Note_on_c, 7, 72, 66
9, 123119, Note_on_c, 7, 72, 0
9, 123120, Note_on_c, 7, 81, 66
9, 123179, Note_on_c, 7, 81, 0
9, 123180, Note_on_c, 7, 71, 66
9, 123239, Note_on_c, 7, 71, 0
9, 123240, Note_on_c, 7, 72, 66
9, 123299, Note_on_c, 7, 72, 0
9, 123300, Note_on_c, 7, 77, 66
9, 123359, Note_on_c, 7, 77, 0
9, 123360, Note_on_c, 7, 75, 66
9, 123389, Note_on_c, 7, 75, 0
9, 123390, Note_on_c, 7, 74, 66
9, 123419, Note_on_c, 7, 74, 0
9, 123420, Note_on_c, 7, 75, 66
9, 123449, Note_on_c, 7, 75, 0
9, 123450, Note_on_c, 7, 74, 66
9, 123479, Note_on_c, 7, 74, 0
9, 123480, Note_on_c, 7, 72, 66
9, 123509, Note_on_c, 7, 72, 0
9, 123510, Note_on_c, 7, 71, 66
9, 123539, Note_on_c, 7, 71, 0
9, 123540, Note_on_c, 7, 72, 66
9, 123569, Note_on_c, 7, 72, 0
9, 123570, Note_on_c, 7, 67, 66
9, 123599, Note_on_c, 7, 67, 0
9, 123600, Note_on_c, 7, 68, 66
9, 123629, Note_on_c, 7, 68, 0
9, 123630, Note_on_c, 7, 65, 66
9, 123659, Note_on_c, 7, 65, 0
9, 123660, Note_on_c, 7, 67, 66
9, 123689, Note_on_c, 7, 67, 0
9, 123690, Note_on_c, 7, 63, 66
9, 123719, Note_on_c, 7, 63, 0
9, 123720, Note_on_c, 7, 65, 66
9, 123749, Note_on_c, 7, 65, 0
9, 123750, Note_on_c, 7, 62, 66
9, 123779, Note_on_c, 7, 62, 0
9, 123780, Note_on_c, 7, 63, 66
9, 123809, Note_on_c, 7, 63, 0
9, 123810, Note_on_c, 7, 60, 66
9, 123839, Note_on_c, 7, 60, 0
9, 123840, Note_on_c, 7, 62, 66
9, 123869, Note_on_c, 7, 62, 0
9, 123870, Note_on_c, 7, 59, 66
9, 123899, Note_on_c, 7, 59, 0
9, 123900, Note_on_c, 7, 60, 66
9, 123929, Note_on_c, 7, 60, 0
9, 123930, Note_on_c, 7, 63, 66
9, 123959, Note_on_c, 7, 63, 0
9, 123960, Note_on_c, 7, 62, 66
9, 123989, Note_on_c, 7, 62, 0
9, 123990, Note_on_c, 7, 65, 66
9, 124019, Note_on_c, 7, 65, 0
9, 124020, Note_on_c, 7, 63, 66
9, 124079, Note_on_c, 7, 63, 0
9, 124080, Note_on_c, 7, 63, 66
9, 124095, Note_on_c, 7, 63, 0
9, 124095, Note_on_c, 7, 65, 66
9, 124110, Note_on_c, 7, 65, 0
9, 124110, Note_on_c, 7, 63, 66
9, 124140, Note_on_c, 7, 63, 0
9, 124140, Note_on_c, 7, 67, 66
9, 124199, Note_on_c, 7, 67, 0
9, 124200, Note_on_c, 7, 69, 66
9, 124229, Note_on_c, 7, 69, 0
9, 124230, Note_on_c, 7, 71, 66
9, 124259, Note_on_c, 7, 71, 0
9, 124260, Note_on_c, 7, 72, 66
9, 124289, Note_on_c, 7, 72, 0
9, 124290, Note_on_c, 7, 71, 66
9, 124319, Note_on_c, 7, 71, 0
9, 124320, Note_on_c, 7, 72, 66
9, 124349, Note_on_c, 7, 72, 0
9, 124350, Note_on_c, 7, 71, 66
9, 124379, Note_on_c, 7, 71, 0
9, 124380, Note_on_c, 7, 72, 66
9, 124439, Note_on_c, 7, 72, 0
9, 124440, Note_on_c, 7, 72, 66
9, 124499, Note_on_c, 7, 72, 0
9, 124500, Note_on_c, 7, 72, 66
9, 124515, Note_on_c, 7, 72, 0
9, 124515, Note_on_c, 7, 74, 66
9, 124530, Note_on_c, 7, 74, 0
9, 124530, Note_on_c, 7, 72, 66
9, 124559, Note_on_c, 7, 72, 0
9, 124560, Note_on_c, 7, 71, 66
9, 124619, Note_on_c, 7, 71, 0
9, 124920, Note_on_c, 7, 76, 66
9, 124920, Note_on_c, 7, 67, 66
9, 124979, Note_on_c, 7, 67, 0
9, 124979, Note_on_c, 7, 76, 0
9, 124980, Note_on_c, 7, 67, 66
9, 124980, Note_on_c, 7, 76, 66
9, 125039, Note_on_c, 7, 76, 0
9, 125039, Note_on_c, 7, 67, 0
9, 125040, Note_on_c, 7, 76, 66
9, 125040, Note_on_c, 7, 67, 66
9, 125099, Note_on_c, 7, 67, 0
9, 125099, Note_on_c, 7, 76, 0
9, 125100, Note_on_c, 7, 67, 66
9, 125100, Note_on_c, 7, 76, 66
9, 125159, Note_on_c, 7, 76, 0
9, 125159, Note_on_c, 7, 67, 0
9, 125160, Note_on_c, 7, 76, 66
9, 125160, Note_on_c, 7, 67, 66
9, 125219, Note_on_c, 7, 67, 0
9, 125219, Note_on_c, 7, 76, 0
9, 125220, Note_on_c, 7, 65, 66
9, 125220, Note_on_c, 7, 77, 66
9, 125279, Note_on_c, 7, 77, 0
9, 125279, Note_on_c, 7, 65, 0
9, 125280, Note_on_c, 7, 65, 66
9, 125280, Note_on_c, 7, 77, 66
9, 125339, Note_on_c, 7, 77, 0
9, 125339, Note_on_c, 7, 65, 0
9, 125340, Note_on_c, 7, 65, 66
9, 125340, Note_on_c, 7, 77, 66
9, 125399, Note_on_c, 7, 77, 0
9, 125399, Note_on_c, 7, 65, 0
9, 125400, Note_on_c, 7, 65, 66
9, 125400, Note_on_c, 7, 77, 66
9, 125459, Note_on_c, 7, 77, 0
9, 125459, Note_on_c, 7, 65, 0
9, 125460, Note_on_c, 7, 65, 66
9, 125460, Note_on_c, 7, 77, 66
9, 125519, Note_on_c, 7, 77, 0
9, 125519, Note_on_c, 7, 65, 0
9, 125520, Note_on_c, 7, 65, 66
9, 125520, Note_on_c, 7, 77, 66
9, 125579, Note_on_c, 7, 77, 0
9, 125579, Note_on_c, 7, 65, 0
9, 125580, Note_on_c, 7, 77, 66
9, 125580, Note_on_c, 7, 67, 66
9, 125639, Note_on_c, 7, 67, 0
9, 125639, Note_on_c, 7, 77, 0
9, 125640, Note_on_c, 7, 67, 66
9, 125640, Note_on_c, 7, 77, 66
9, 125699, Note_on_c, 7, 77, 0
9, 125699, Note_on_c, 7, 67, 0
9, 125700, Note_on_c, 7, 77, 66
9, 125700, Note_on_c, 7, 67, 66
9, 125759, Note_on_c, 7, 67, 0
9, 125759, Note_on_c, 7, 77, 0
9, 125760, Note_on_c, 7, 67, 66
9, 125760, Note_on_c, 7, 77, 66
9, 125819, Note_on_c, 7, 77, 0
9, 125819, Note_on_c, 7, 67, 0
9, 125820, Note_on_c, 7, 67, 66
9, 125820, Note_on_c, 7, 77, 66
9, 125879, Note_on_c, 7, 77, 0
9, 125879, Note_on_c, 7, 67, 0
9, 125880, Note_on_c, 7, 67, 66
9, 125880, Note_on_c, 7, 77, 66
9, 125939, Note_on_c, 7, 77, 0
9, 125939, Note_on_c, 7, 67, 0
9, 125940, Note_on_c, 7, 75, 66
9, 125940, Note_on_c, 7, 67, 66
9, 125999, Note_on_c, 7, 67, 0
9, 125999, Note_on_c, 7, 75, 0
9, 126000, Note_on_c, 7, 67, 66
9, 126000, Note_on_c, 7, 75, 66
9, 126059, Note_on_c, 7, 75, 0
9, 126059, Note_on_c, 7, 67, 0
9, 126060, Note_on_c, 7, 67, 66
9, 126060, Note_on_c, 7, 75, 66
9, 126119, Note_on_c, 7, 75, 0
9, 126119, Note_on_c, 7, 67, 0
9, 126120, Note_on_c, 7, 75, 66
9, 126120, Note_on_c, 7, 67, 66
9, 126179, Note_on_c, 7, 67, 0
9, 126179, Note_on_c, 7, 75, 0
9, 126180, Note_on_c, 7, 67, 66
9, 126180, Note_on_c, 7, 75, 66
9, 126239, Note_on_c, 7, 75, 0
9, 126239, Note_on_c, 7, 67, 0
9, 126240, Note_on_c, 7, 75, 66
9, 126240, Note_on_c, 7, 67, 66
9, 126299, Note_on_c, 7, 67, 0
9, 126299, Note_on_c, 7, 75, 0
9, 126300, Note_on_c, 7, 75, 66
9, 126300, Note_on_c, 7, 65, 66
9, 126359, Note_on_c, 7, 65, 0
9, 126359, Note_on_c, 7, 75, 0
9, 126360, Note_on_c, 7, 75, 66
9, 126360, Note_on_c, 7, 65, 66
9, 126419, Note_on_c, 7, 65, 0
9, 126419, Note_on_c, 7, 75, 0
9, 126420, Note_on_c, 7, 74, 66
9, 126420, Note_on_c, 7, 65, 66
9, 126479, Note_on_c, 7, 65, 0
9, 126479, Note_on_c, 7, 74, 0
9, 126480, Note_on_c, 7, 65, 66
9, 126480, Note_on_c, 7, 74, 66
9, 126539, Note_on_c, 7, 74, 0
9, 126539, Note_on_c, 7, 65, 0
9, 126540, Note_on_c, 7, 65, 66
9, 126540, Note_on_c, 7, 74, 66
9, 126599, Note_on_c, 7, 74, 0
9, 126599, Note_on_c, 7, 65, 0
9, 126600, Note_on_c, 7, 74, 66
9, 126600, Note_on_c, 7, 65, 66
9, 126659, Note_on_c, 7, 65, 0
9, 126659, Note_on_c, 7, 74, 0
9, 126660, Note_on_c, 7, 74, 66
9, 126660, Note_on_c, 7, 63, 66
9, 126719, Note_on_c, 7, 63, 0
9, 126719, Note_on_c, 7, 74, 0
9, 126720, Note_on_c, 7, 63, 66
9, 126720, Note_on_c, 7, 74, 66
9, 126779, Note_on_c, 7, 74, 0
9, 126779, Note_on_c, 7, 63, 0
9, 126780, Note_on_c, 7, 72, 66
9, 126780, Note_on_c, 7, 63, 66
9, 126839, Note_on_c, 7, 63, 0
9, 126839, Note_on_c, 7, 72, 0
9, 126840, Note_on_c, 7, 63, 66
9, 126840, Note_on_c, 7, 72, 66
9, 126899, Note_on_c, 7, 72, 0
9, 126899, Note_on_c, 7, 63, 0
9, 126900, Note_on_c, 7, 63, 66
9, 126900, Note_on_c, 7, 72, 66
9, 126959, Note_on_c, 7, 72, 0
9, 126959, Note_on_c, 7, 63, 0
9, 126960, Note_on_c, 7, 63, 66
9, 126960, Note_on_c, 7, 72, 66
9, 127019, Note_on_c, 7, 72, 0
9, 127019, Note_on_c, 7, 63, 0
9, 127020, Note_on_c, 7, 62, 66
9, 127020, Note_on_c, 7, 72, 66
9, 127079, Note_on_c, 7, 72, 0
9, 127079, Note_on_c, 7, 62, 0
9, 127080, Note_on_c, 7, 62, 66
9, 127080, Note_on_c, 7, 72, 66
9, 127139, Note_on_c, 7, 72, 0
9, 127139, Note_on_c, 7, 62, 0
9, 127140, Note_on_c, 7, 62, 66
9, 127140, Note_on_c, 7, 71, 66
9, 127199, Note_on_c, 7, 71, 0
9, 127199, Note_on_c, 7, 62, 0
9, 127200, Note_on_c, 7, 71, 66
9, 127200, Note_on_c, 7, 62, 66
9, 127259, Note_on_c, 7, 62, 0
9, 127259, Note_on_c, 7, 71, 0
9, 127260, Note_on_c, 7, 62, 66
9, 127260, Note_on_c, 7, 71, 66
9, 127319, Note_on_c, 7, 71, 0
9, 127319, Note_on_c, 7, 62, 0
9, 127320, Note_on_c, 7, 72, 66
9, 127320, Note_on_c, 7, 67, 66
9, 127350, Note_on_c, 7, 72, 0
9, 127350, Note_on_c, 7, 74, 66
9, 127379, Note_on_c, 7, 67, 0
9, 127380, Note_on_c, 7, 74, 0
9, 127380, Note_on_c, 7, 72, 66
9, 127380, Note_on_c, 7, 67, 66
9, 127380, Note_on_c, 7, 75, 66
9, 127439, Note_on_c, 7, 75, 0
9, 127439, Note_on_c, 7, 67, 0
9, 127439, Note_on_c, 7, 72, 0
9, 127440, Note_on_c, 7, 72, 66
9, 127469, Note_on_c, 7, 72, 0
9, 127470, Note_on_c, 7, 71, 66
9, 127499, Note_on_c, 7, 71, 0
9, 127500, Note_on_c, 7, 72, 66
9, 127529, Note_on_c, 7, 72, 0
9, 127530, Note_on_c, 7, 67, 66
9, 127559, Note_on_c, 7, 67, 0
9, 127560, Note_on_c, 7, 68, 66
9, 127589, Note_on_c, 7, 68, 0
9, 127590, Note_on_c, 7, 65, 66
9, 127619, Note_on_c, 7, 65, 0
9, 127620, Note_on_c, 7, 67, 66
9, 127649, Note_on_c, 7, 67, 0
9, 127650, Note_on_c, 7, 63, 66
9, 127679, Note_on_c, 7, 63, 0
9, 127680, Note_on_c, 7, 65, 66
9, 127709, Note_on_c, 7, 65, 0
9, 127710, Note_on_c, 7, 62, 66
9, 127739, Note_on_c, 7, 62, 0
9, 127740, Note_on_c, 7, 63, 66
9, 127769, Note_on_c, 7, 63, 0
9, 127770, Note_on_c, 7, 60, 66
9, 127799, Note_on_c, 7, 60, 0
9, 127800, Note_on_c, 7, 62, 66
9, 127829, Note_on_c, 7, 62, 0
9, 127830, Note_on_c, 7, 59, 66
9, 127859, Note_on_c, 7, 59, 0
9, 127860, Note_on_c, 7, 60, 66
9, 127889, Note_on_c, 7, 60, 0
9, 127890, Note_on_c, 7, 63, 66
9, 127919, Note_on_c, 7, 63, 0
9, 127920, Note_on_c, 7, 62, 66
9, 127949, Note_on_c, 7, 62, 0
9, 127950, Note_on_c, 7, 65, 66
9, 127979, Note_on_c, 7, 65, 0
9, 127980, Note_on_c, 7, 63, 66
9, 128039, Note_on_c, 7, 63, 0
9, 128040, Note_on_c, 7, 67, 66
9, 128055, Note_on_c, 7, 67, 0
9, 128055, Note_on_c, 7, 65, 66
9, 128070, Note_on_c, 7, 65, 0
9, 128070, Note_on_c, 7, 63, 66
9, 128085, Note_on_c, 7, 63, 0
9, 128085, Note_on_c, 7, 65, 66
9, 128100, Note_on_c, 7, 65, 0
9, 128100, Note_on_c, 7, 67, 66
9, 128159, Note_on_c, 7, 67, 0
9, 128160, Note_on_c, 7, 69, 66
9, 128189, Note_on_c, 7, 69, 0
9, 128190, Note_on_c, 7, 71, 66
9, 128219, Note_on_c, 7, 71, 0
9, 128220, Note_on_c, 7, 72, 66
9, 128249, Note_on_c, 7, 72, 0
9, 128250, Note_on_c, 7, 71, 66
9, 128279, Note_on_c, 7, 71, 0
9, 128280, Note_on_c, 7, 72, 66
9, 128309, Note_on_c, 7, 72, 0
9, 128310, Note_on_c, 7, 71, 66
9, 128339, Note_on_c, 7, 71, 0
9, 128340, Note_on_c, 7, 72, 66
9, 128399, Note_on_c, 7, 72, 0
9, 128400, Note_on_c, 7, 72, 66
9, 128459, Note_on_c, 7, 72, 0
9, 128460, Note_on_c, 7, 72, 66
9, 128475, Note_on_c, 7, 72, 0
9, 128475, Note_on_c, 7, 74, 66
9, 128490, Note_on_c, 7, 74, 0
9, 128490, Note_on_c, 7, 72, 66
9, 128520, Note_on_c, 7, 72, 0
9, 128520, Note_on_c, 7, 71, 66
9, 128579, Note_on_c, 7, 71, 0
9, 128880, Note_on_c, 7, 67, 66
9, 128909, Note_on_c, 7, 67, 0
9, 128910, Note_on_c, 7, 68, 66
9, 128939, Note_on_c, 7, 68, 0
9, 128940, Note_on_c, 7, 70, 66
9, 128999, Note_on_c, 7, 70, 0
9, 129000, Note_on_c, 7, 68, 66
9, 129059, Note_on_c, 7, 68, 0
9, 129060, Note_on_c, 7, 73, 66
9, 129119, Note_on_c, 7, 73, 0
9, 129120, Note_on_c, 7, 72, 66
9, 129179, Note_on_c, 7, 72, 0
9, 129180, Note_on_c, 7, 64, 66
9, 129239, Note_on_c, 7, 64, 0
9, 129240, Note_on_c, 7, 65, 66
9, 129299, Note_on_c, 7, 65, 0
9, 129300, Note_on_c, 7, 70, 66
9, 129329, Note_on_c, 7, 70, 0
9, 129330, Note_on_c, 7, 67, 66
9, 129359, Note_on_c, 7, 67, 0
9, 129360, Note_on_c, 7, 68, 66
9, 129419, Note_on_c, 7, 68, 0
9, 129600, Note_on_c, 7, 69, 66
9, 129629, Note_on_c, 7, 69, 0
9, 129630, Note_on_c, 7, 70, 66
9, 129659, Note_on_c, 7, 70, 0
9, 129660, Note_on_c, 7, 72, 66
9, 129719, Note_on_c, 7, 72, 0
9, 129720, Note_on_c, 7, 70, 66
9, 129779, Note_on_c, 7, 70, 0
9, 129780, Note_on_c, 7, 75, 66
9, 129839, Note_on_c, 7, 75, 0
9, 129840, Note_on_c, 7, 74, 66
9, 129899, Note_on_c, 7, 74, 0
9, 129900, Note_on_c, 7, 66, 66
9, 129959, Note_on_c, 7, 66, 0
9, 129960, Note_on_c, 7, 67, 66
9, 130019, Note_on_c, 7, 67, 0
9, 130020, Note_on_c, 7, 72, 66
9, 130049, Note_on_c, 7, 72, 0
9, 130050, Note_on_c, 7, 69, 66
9, 130079, Note_on_c, 7, 69, 0
9, 130080, Note_on_c, 7, 71, 66
9, 130139, Note_on_c, 7, 71, 0
9, 130320, Note_on_c, 7, 79, 66
9, 130349, Note_on_c, 7, 79, 0
9, 130350, Note_on_c, 7, 78, 66
9, 130379, Note_on_c, 7, 78, 0
9, 130380, Note_on_c, 7, 79, 66
9, 130409, Note_on_c, 7, 79, 0
9, 130410, Note_on_c, 7, 74, 66
9, 130439, Note_on_c, 7, 74, 0
9, 130440, Note_on_c, 7, 75, 66
9, 130469, Note_on_c, 7, 75, 0
9, 130470, Note_on_c, 7, 72, 66
9, 130499, Note_on_c, 7, 72, 0
9, 130500, Note_on_c, 7, 74, 66
9, 130529, Note_on_c, 7, 74, 0
9, 130530, Note_on_c, 7, 71, 66
9, 130559, Note_on_c, 7, 71, 0
9, 130560, Note_on_c, 7, 67, 66
9, 130619, Note_on_c, 7, 67, 0
9, 130680, Note_on_c, 7, 79, 66
9, 130709, Note_on_c, 7, 79, 0
9, 130710, Note_on_c, 7, 75, 66
9, 130739, Note_on_c, 7, 75, 0
9, 130740, Note_on_c, 7, 77, 66
9, 130769, Note_on_c, 7, 77, 0
9, 130770, Note_on_c, 7, 74, 66
9, 130799, Note_on_c, 7, 74, 0
9, 130800, Note_on_c, 7, 75, 66
9, 130829, Note_on_c, 7, 75, 0
9, 130830, Note_on_c, 7, 72, 66
9, 130859, Note_on_c, 7, 72, 0
9, 130860, Note_on_c, 7, 74, 66
9, 130889, Note_on_c, 7, 74, 0
9, 130890, Note_on_c, 7, 71, 66
9, 130919, Note_on_c, 7, 71, 0
9, 130920, Note_on_c, 7, 67, 66
9, 130979, Note_on_c, 7, 67, 0
9, 131040, Note_on_c, 7, 68, 66
9, 131059, Note_on_c, 7, 68, 0
9, 131060, Note_on_c, 7, 67, 66
9, 131079, Note_on_c, 7, 67, 0
9, 131080, Note_on_c, 7, 65, 66
9, 131099, Note_on_c, 7, 65, 0
9, 131100, Note_on_c, 7, 67, 66
9, 131180, Note_on_c, 7, 67, 0
9, 131180, Note_on_c, 7, 65, 66
9, 131199, Note_on_c, 7, 65, 0
9, 131200, Note_on_c, 7, 63, 66
9, 131219, Note_on_c, 7, 63, 0
9, 131220, Note_on_c, 7, 65, 66
9, 131249, Note_on_c, 7, 65, 0
9, 131250, Note_on_c, 7, 63, 66
9, 131279, Note_on_c, 7, 63, 0
9, 131280, Note_on_c, 7, 65, 66
9, 131309, Note_on_c, 7, 65, 0
9, 131310, Note_on_c, 7, 63, 66
9, 131339, Note_on_c, 7, 63, 0
9, 131340, Note_on_c, 7, 65, 66
9, 131399, Note_on_c, 7, 65, 0
9, 131520, Note_on_c, 7, 71, 66
9, 131539, Note_on_c, 7, 71, 0
9, 131540, Note_on_c, 7, 72, 66
9, 131559, Note_on_c, 7, 72, 0
9, 131560, Note_on_c, 7, 74, 66
9, 131579, Note_on_c, 7, 74, 0
9, 131580, Note_on_c, 7, 74, 66
9, 131599, Note_on_c, 7, 74, 0
9, 131600, Note_on_c, 7, 75, 66
9, 131619, Note_on_c, 7, 75, 0
9, 131620, Note_on_c, 7, 77, 66
9, 131639, Note_on_c, 7, 77, 0
9, 131640, Note_on_c, 7, 77, 66
9, 131659, Note_on_c, 7, 77, 0
9, 131660, Note_on_c, 7, 75, 66
9, 131679, Note_on_c, 7, 75, 0
9, 131680, Note_on_c, 7, 74, 66
9, 131699, Note_on_c, 7, 74, 0
9, 131700, Note_on_c, 7, 75, 66
9, 131759, Note_on_c, 7, 75, 0
9, 131880, Note_on_c, 7, 72, 66
9, 131899, Note_on_c, 7, 72, 0
9, 131900, Note_on_c, 7, 74, 66
9, 131919, Note_on_c, 7, 74, 0
9, 131920, Note_on_c, 7, 75, 66
9, 131939, Note_on_c, 7, 75, 0
9, 131940, Note_on_c, 7, 75, 66
9, 131959, Note_on_c, 7, 75, 0
9, 131960, Note_on_c, 7, 77, 66
9, 131979, Note_on_c, 7, 77, 0
9, 131980, Note_on_c, 7, 79, 66
9, 131999, Note_on_c, 7, 79, 0
9, 132000, Note_on_c, 7, 79, 66
9, 132019, Note_on_c, 7, 79, 0
9, 132020, Note_on_c, 7, 77, 66
9, 132039, Note_on_c, 7, 77, 0
9, 132040, Note_on_c, 7, 75, 66
9, 132059, Note_on_c, 7, 75, 0
9, 132060, Note_on_c, 7, 77, 66
9, 132119, Note_on_c, 7, 77, 0
9, 132240, Note_on_c, 7, 59, 66
9, 132259, Note_on_c, 7, 59, 0
9, 132260, Note_on_c, 7, 60, 66
9, 132279, Note_on_c, 7, 60, 0
9, 132280, Note_on_c, 7, 62, 66
9, 132299, Note_on_c, 7, 62, 0
9, 132300, Note_on_c, 7, 62, 66
9, 132319, Note_on_c, 7, 62, 0
9, 132320, Note_on_c, 7, 63, 66
9, 132339, Note_on_c, 7, 63, 0
9, 132340, Note_on_c, 7, 65, 66
9, 132359, Note_on_c, 7, 65, 0
9, 132360, Note_on_c, 7, 65, 66
9, 132379, Note_on_c, 7, 65, 0
9, 132380, Note_on_c, 7, 63, 66
9, 132399, Note_on_c, 7, 63, 0
9, 132400, Note_on_c, 7, 62, 66
9, 132419, Note_on_c, 7, 62, 0
9, 132420, Note_on_c, 7, 60, 66
9, 132449, Note_on_c, 7, 60, 0
9, 132450, Note_on_c, 7, 63, 66
9, 132479, Note_on_c, 7, 63, 0
9, 132480, Note_on_c, 7, 62, 66
9, 132509, Note_on_c, 7, 62, 0
9, 132510, Note_on_c, 7, 63, 66
9, 132539, Note_on_c, 7, 63, 0
9, 132540, Note_on_c, 7, 65, 66
9, 132569, Note_on_c, 7, 65, 0
9, 132570, Note_on_c, 7, 63, 66
9, 132599, Note_on_c, 7, 63, 0
9, 132600, Note_on_c, 7, 62, 66
9, 132629, Note_on_c, 7, 62, 0
9, 132630, Note_on_c, 7, 63, 66
9, 132659, Note_on_c, 7, 63, 0
9, 132660, Note_on_c, 7, 68, 66
9, 132689, Note_on_c, 7, 68, 0
9, 132720, Note_on_c, 7, 65, 66
9, 132749, Note_on_c, 7, 65, 0
9, 132780, Note_on_c, 7, 67, 66
9, 132809, Note_on_c, 7, 67, 0
9, 132810, Note_on_c, 7, 63, 66
9, 132839, Note_on_c, 7, 63, 0
9, 132840, Note_on_c, 7, 62, 66
9, 132869, Note_on_c, 7, 62, 0
9, 132870, Note_on_c, 7, 63, 66
9, 132899, Note_on_c, 7, 63, 0
9, 132900, Note_on_c, 7, 60, 66
9, 132929, Note_on_c, 7, 60, 0
9, 132930, Note_on_c, 7, 63, 66
9, 132959, Note_on_c, 7, 63, 0
9, 132960, Note_on_c, 7, 62, 66
9, 132989, Note_on_c, 7, 62, 0
9, 132990, Note_on_c, 7, 63, 66
9, 133019, Note_on_c, 7, 63, 0
9, 133020, Note_on_c, 7, 67, 66
9, 133049, Note_on_c, 7, 67, 0
9, 133080, Note_on_c, 7, 63, 66
9, 133109, Note_on_c, 7, 63, 0
9, 133140, Note_on_c, 7, 65, 66
9, 133169, Note_on_c, 7, 65, 0
9, 133170, Note_on_c, 7, 68, 66
9, 133199, Note_on_c, 7, 68, 0
9, 133200, Note_on_c, 7, 67, 66
9, 133229, Note_on_c, 7, 67, 0
9, 133230, Note_on_c, 7, 68, 66
9, 133259, Note_on_c, 7, 68, 0
9, 133260, Note_on_c, 7, 65, 66
9, 133289, Note_on_c, 7, 65, 0
9, 133290, Note_on_c, 7, 68, 66
9, 133319, Note_on_c, 7, 68, 0
9, 133320, Note_on_c, 7, 67, 66
9, 133349, Note_on_c, 7, 67, 0
9, 133350, Note_on_c, 7, 68, 66
9, 133379, Note_on_c, 7, 68, 0
9, 133380, Note_on_c, 7, 65, 66
9, 133409, Note_on_c, 7, 65, 0
9, 133440, Note_on_c, 7, 62, 66
9, 133469, Note_on_c, 7, 62, 0
9, 133500, Note_on_c, 7, 63, 66
9, 133559, Note_on_c, 7, 63, 0
9, 133560, Note_on_c, 7, 67, 66
9, 133619, Note_on_c, 7, 67, 0
9, 133620, Note_on_c, 7, 72, 66
9, 133679, Note_on_c, 7, 72, 0
9, 133680, Note_on_c, 7, 75, 66
9, 133740, Note_on_c, 7, 75, 0
9, 133740, Note_on_c, 7, 79, 66
9, 133755, Note_on_c, 7, 79, 0
9, 133755, Note_on_c, 7, 78, 66
9, 133770, Note_on_c, 7, 78, 0
9, 133770, Note_on_c, 7, 79, 66
9, 133785, Note_on_c, 7, 79, 0
9, 133785, Note_on_c, 7, 78, 66
9, 133800, Note_on_c, 7, 78, 0
9, 133800, Note_on_c, 7, 79, 66
9, 133815, Note_on_c, 7, 79, 0
9, 133815, Note_on_c, 7, 78, 66
9, 133830, Note_on_c, 7, 78, 0
9, 133830, Note_on_c, 7, 76, 66
9, 133845, Note_on_c, 7, 76, 0
9, 133845, Note_on_c, 7, 78, 66
9, 133860, Note_on_c, 7, 78, 0
9, 133860, Note_on_c, 7, 79, 66
9, 133920, Note_on_c, 7, 79, 0
9, 133920, Note_on_c, 7, 74, 66
9, 133980, Note_on_c, 7, 74, 0
9, 133980, Note_on_c, 7, 75, 66
9, 134040, Note_on_c, 7, 75, 0
9, 134040, Note_on_c, 7, 72, 66
9, 134100, Note_on_c, 7, 72, 0
9, 134100, Note_on_c, 7, 67, 66
9, 134160, Note_on_c, 7, 67, 0
9, 134160, Note_on_c, 7, 71, 66
9, 134220, Note_on_c, 7, 71, 0
9, 134220, Note_on_c, 7, 72, 66
9, 134250, Note_on_c, 7, 72, 0
9, 134250, Note_on_c, 7, 67, 66
9, 134280, Note_on_c, 7, 67, 0
9, 134280, Note_on_c, 7, 68, 66
9, 134310, Note_on_c, 7, 68, 0
9, 134310, Note_on_c, 7, 65, 66
9, 134340, Note_on_c, 7, 65, 0
9, 134340, Note_on_c, 7, 67, 66
9, 134370, Note_on_c, 7, 67, 0
9, 134370, Note_on_c, 7, 63, 66
9, 134400, Note_on_c, 7, 63, 0
9, 134400, Note_on_c, 7, 65, 66
9, 134430, Note_on_c, 7, 65, 0
9, 134430, Note_on_c, 7, 62, 66
9, 134460, Note_on_c, 7, 62, 0
9, 134460, Note_on_c, 7, 63, 66
9, 134490, Note_on_c, 7, 63, 0
9, 134490, Note_on_c, 7, 60, 66
9, 134520, Note_on_c, 7, 60, 0
9, 134520, Note_on_c, 7, 62, 66
9, 134550, Note_on_c, 7, 62, 0
9, 134550, Note_on_c, 7, 59, 66
9, 134580, Note_on_c, 7, 59, 0
9, 134580, Note_on_c, 7, 60, 66
9, 134700, Note_on_c, 7, 60, 0
9, 134700, End_track
10, 0, Start_track
10, 0, MIDI_port, 0
10, 0, Title_t, "Clave II"
10, 0, Program_c, 8, 6
10, 0, Note_on_c, 8, 48, 100
10, 60, Note_on_c, 8, 48, 0
10, 60, Note_on_c, 8, 60, 100
10, 120, Note_on_c, 8, 60, 0
10, 120, Note_on_c, 8, 58, 100
10, 180, Note_on_c, 8, 58, 0
10, 180, Note_on_c, 8, 56, 100
10, 240, Note_on_c, 8, 56, 0
10, 240, Note_on_c, 8, 55, 100
10, 270, Note_on_c, 8, 55, 0
10, 270, Note_on_c, 8, 53, 100
10, 300, Note_on_c, 8, 53, 0
10, 300, Note_on_c, 8, 55, 100
10, 330, Note_on_c, 8, 55, 0
10, 330, Note_on_c, 8, 56, 100
10, 360, Note_on_c, 8, 56, 0
10, 360, Note_on_c, 8, 55, 100
10, 390, Note_on_c, 8, 55, 0
10, 390, Note_on_c, 8, 53, 100
10, 420, Note_on_c, 8, 53, 0
10, 420, Note_on_c, 8, 51, 100
10, 450, Note_on_c, 8, 51, 0
10, 450, Note_on_c, 8, 50, 100
10, 480, Note_on_c, 8, 50, 0
10, 480, Note_on_c, 8, 48, 100
10, 510, Note_on_c, 8, 48, 0
10, 510, Note_on_c, 8, 46, 100
10, 540, Note_on_c, 8, 46, 0
10, 540, Note_on_c, 8, 48, 100
10, 570, Note_on_c, 8, 48, 0
10, 570, Note_on_c, 8, 49, 100
10, 600, Note_on_c, 8, 49, 0
10, 600, Note_on_c, 8, 48, 100
10, 630, Note_on_c, 8, 48, 0
10, 630, Note_on_c, 8, 46, 100
10, 660, Note_on_c, 8, 46, 0
10, 660, Note_on_c, 8, 45, 100
10, 690, Note_on_c, 8, 45, 0
10, 690, Note_on_c, 8, 43, 100
10, 720, Note_on_c, 8, 43, 0
10, 720, Note_on_c, 8, 41, 100
10, 779, Note_on_c, 8, 41, 0
10, 780, Note_on_c, 8, 51, 100
10, 839, Note_on_c, 8, 51, 0
10, 840, Note_on_c, 8, 53, 100
10, 1019, Note_on_c, 8, 53, 0
10, 1020, Note_on_c, 8, 41, 100
10, 1080, Note_on_c, 8, 41, 0
10, 1080, Note_on_c, 8, 53, 100
10, 1259, Note_on_c, 8, 53, 0
10, 1260, Note_on_c, 8, 51, 100
10, 1289, Note_on_c, 8, 51, 0
10, 1290, Note_on_c, 8, 50, 100
10, 1319, Note_on_c, 8, 50, 0
10, 1320, Note_on_c, 8, 51, 100
10, 1379, Note_on_c, 8, 51, 0
10, 1380, Note_on_c, 8, 56, 100
10, 1439, Note_on_c, 8, 56, 0
10, 1440, Note_on_c, 8, 55, 100
10, 1499, Note_on_c, 8, 55, 0
10, 1500, Note_on_c, 8, 53, 100
10, 1559, Note_on_c, 8, 53, 0
10, 1560, Note_on_c, 8, 55, 100
10, 1619, Note_on_c, 8, 55, 0
10, 1620, Note_on_c, 8, 43, 100
10, 1679, Note_on_c, 8, 43, 0
10, 1680, Note_on_c, 8, 36, 100
10, 1739, Note_on_c, 8, 36, 0
10, 1740, Note_on_c, 8, 48, 100
10, 1799, Note_on_c, 8, 48, 0
10, 1800, Note_on_c, 8, 46, 100
10, 1859, Note_on_c, 8, 46, 0
10, 1860, Note_on_c, 8, 45, 100
10, 1919, Note_on_c, 8, 45, 0
10, 1920, Note_on_c, 8, 43, 100
10, 1979, Note_on_c, 8, 43, 0
10, 1980, Note_on_c, 8, 55, 100
10, 2039, Note_on_c, 8, 55, 0
10, 2040, Note_on_c, 8, 53, 100
10, 2099, Note_on_c, 8, 53, 0
10, 2100, Note_on_c, 8, 51, 100
10, 2159, Note_on_c, 8, 51, 0
10, 2160, Note_on_c, 8, 50, 100
10, 2219, Note_on_c, 8, 50, 0
10, 2220, Note_on_c, 8, 62, 100
10, 2249, Note_on_c, 8, 62, 0
10, 2250, Note_on_c, 8, 63, 100
10, 2279, Note_on_c, 8, 63, 0
10, 2280, Note_on_c, 8, 62, 100
10, 2309, Note_on_c, 8, 62, 0
10, 2310, Note_on_c, 8, 60, 100
10, 2339, Note_on_c, 8, 60, 0
10, 2340, Note_on_c, 8, 58, 100
10, 2369, Note_on_c, 8, 58, 0
10, 2370, Note_on_c, 8, 57, 100
10, 2399, Note_on_c, 8, 57, 0
10, 2400, Note_on_c, 8, 55, 100
10, 2519, Note_on_c, 8, 55, 0
10, 2550, Note_on_c, 8, 53, 100
10, 2579, Note_on_c, 8, 53, 0
10, 2580, Note_on_c, 8, 51, 100
10, 2609, Note_on_c, 8, 51, 0
10, 2610, Note_on_c, 8, 50, 100
10, 2639, Note_on_c, 8, 50, 0
10, 2640, Note_on_c, 8, 48, 100
10, 2669, Note_on_c, 8, 48, 0
10, 2670, Note_on_c, 8, 47, 100
10, 2699, Note_on_c, 8, 47, 0
10, 2700, Note_on_c, 8, 48, 100
10, 2729, Note_on_c, 8, 48, 0
10, 2730, Note_on_c, 8, 50, 100
10, 2759, Note_on_c, 8, 50, 0
10, 2760, Note_on_c, 8, 48, 100
10, 2789, Note_on_c, 8, 48, 0
10, 2790, Note_on_c, 8, 46, 100
10, 2819, Note_on_c, 8, 46, 0
10, 2820, Note_on_c, 8, 44, 100
10, 2849, Note_on_c, 8, 44, 0
10, 2850, Note_on_c, 8, 43, 100
10, 2879, Note_on_c, 8, 43, 0
10, 2880, Note_on_c, 8, 42, 100
10, 2999, Note_on_c, 8, 42, 0
10, 3060, Note_on_c, 8, 48, 100
10, 3180, Note_on_c, 8, 48, 0
10, 3180, Note_on_c, 8, 46, 100
10, 3209, Note_on_c, 8, 46, 0
10, 3210, Note_on_c, 8, 45, 100
10, 3239, Note_on_c, 8, 45, 0
10, 3240, Note_on_c, 8, 46, 100
10, 3299, Note_on_c, 8, 46, 0
10, 3300, Note_on_c, 8, 51, 100
10, 3359, Note_on_c, 8, 51, 0
10, 3360, Note_on_c, 8, 50, 100
10, 3419, Note_on_c, 8, 50, 0
10, 3420, Note_on_c, 8, 48, 100
10, 3479, Note_on_c, 8, 48, 0
10, 3480, Note_on_c, 8, 50, 100
10, 3539, Note_on_c, 8, 50, 0
10, 3540, Note_on_c, 8, 38, 100
10, 3599, Note_on_c, 8, 38, 0
10, 3600, Note_on_c, 8, 43, 100
10, 3659, Note_on_c, 8, 43, 0
10, 3660, Note_on_c, 8, 55, 100
10, 3719, Note_on_c, 8, 55, 0
10, 3720, Note_on_c, 8, 43, 100
10, 3839, Note_on_c, 8, 43, 0
10, 3900, Note_on_c, 8, 62, 100
10, 3959, Note_on_c, 8, 62, 0
10, 3960, Note_on_c, 8, 50, 100
10, 4079, Note_on_c, 8, 50, 0
10, 4140, Note_on_c, 8, 55, 100
10, 4199, Note_on_c, 8, 55, 0
10, 4200, Note_on_c, 8, 43, 100
10, 4319, Note_on_c, 8, 43, 0
10, 4320, Note_on_c, 8, 48, 100
10, 4349, Note_on_c, 8, 48, 0
10, 4350, Note_on_c, 8, 50, 100
10, 4379, Note_on_c, 8, 50, 0
10, 4380, Note_on_c, 8, 51, 100
10, 4409, Note_on_c, 8, 51, 0
10, 4410, Note_on_c, 8, 53, 100
10, 4439, Note_on_c, 8, 53, 0
10, 4440, Note_on_c, 8, 55, 100
10, 4499, Note_on_c, 8, 55, 0
10, 4500, Note_on_c, 8, 60, 100
10, 4559, Note_on_c, 8, 60, 0
10, 4560, Note_on_c, 8, 59, 100
10, 4619, Note_on_c, 8, 59, 0
10, 4620, Note_on_c, 8, 55, 100
10, 4679, Note_on_c, 8, 55, 0
10, 4680, Note_on_c, 8, 50, 100
10, 4739, Note_on_c, 8, 50, 0
10, 4740, Note_on_c, 8, 53, 100
10, 4799, Note_on_c, 8, 53, 0
10, 4800, Note_on_c, 8, 52, 100
10, 4859, Note_on_c, 8, 52, 0
10, 4860, Note_on_c, 8, 48, 100
10, 4919, Note_on_c, 8, 48, 0
10, 4920, Note_on_c, 8, 58, 100
10, 5099, Note_on_c, 8, 58, 0
10, 5100, Note_on_c, 8, 57, 100
10, 5129, Note_on_c, 8, 57, 0
10, 5130, Note_on_c, 8, 55, 100
10, 5159, Note_on_c, 8, 55, 0
10, 5160, Note_on_c, 8, 57, 100
10, 5219, Note_on_c, 8, 57, 0
10, 5220, Note_on_c, 8, 53, 100
10, 5279, Note_on_c, 8, 53, 0
10, 5280, Note_on_c, 8, 50, 100
10, 5339, Note_on_c, 8, 50, 0
10, 5340, Note_on_c, 8, 53, 100
10, 5399, Note_on_c, 8, 53, 0
10, 5400, Note_on_c, 8, 56, 100
10, 5459, Note_on_c, 8, 56, 0
10, 5460, Note_on_c, 8, 48, 100
10, 5519, Note_on_c, 8, 48, 0
10, 5520, Note_on_c, 8, 47, 100
10, 5579, Note_on_c, 8, 47, 0
10, 5580, Note_on_c, 8, 55, 100
10, 5639, Note_on_c, 8, 55, 0
10, 5640, Note_on_c, 8, 48, 100
10, 5699, Note_on_c, 8, 48, 0
10, 5700, Note_on_c, 8, 53, 100
10, 5759, Note_on_c, 8, 53, 0
10, 5760, Note_on_c, 8, 51, 100
10, 5879, Note_on_c, 8, 51, 0
10, 5880, Note_on_c, 8, 51, 100
10, 5900, Note_on_c, 8, 51, 0
10, 5900, Note_on_c, 8, 50, 100
10, 5920, Note_on_c, 8, 50, 0
10, 5920, Note_on_c, 8, 48, 100
10, 5940, Note_on_c, 8, 48, 0
10, 5940, Note_on_c, 8, 50, 100
10, 5955, Note_on_c, 8, 50, 0
10, 5955, Note_on_c, 8, 48, 100
10, 5970, Note_on_c, 8, 48, 0
10, 5970, Note_on_c, 8, 50, 100
10, 6000, Note_on_c, 8, 50, 0
10, 6000, Note_on_c, 8, 48, 100
10, 6029, Note_on_c, 8, 48, 0
10, 6030, Note_on_c, 8, 47, 100
10, 6059, Note_on_c, 8, 47, 0
10, 6060, Note_on_c, 8, 48, 100
10, 6089, Note_on_c, 8, 48, 0
10, 6090, Note_on_c, 8, 50, 100
10, 6119, Note_on_c, 8, 50, 0
10, 6120, Note_on_c, 8, 51, 100
10, 6149, Note_on_c, 8, 51, 0
10, 6150, Note_on_c, 8, 53, 100
10, 6179, Note_on_c, 8, 53, 0
10, 6180, Note_on_c, 8, 55, 100
10, 6209, Note_on_c, 8, 55, 0
10, 6210, Note_on_c, 8, 57, 100
10, 6239, Note_on_c, 8, 57, 0
10, 6240, Note_on_c, 8, 59, 100
10, 6269, Note_on_c, 8, 59, 0
10, 6270, Note_on_c, 8, 57, 100
10, 6299, Note_on_c, 8, 57, 0
10, 6300, Note_on_c, 8, 55, 100
10, 6329, Note_on_c, 8, 55, 0
10, 6330, Note_on_c, 8, 57, 100
10, 6359, Note_on_c, 8, 57, 0
10, 6360, Note_on_c, 8, 59, 100
10, 6389, Note_on_c, 8, 59, 0
10, 6390, Note_on_c, 8, 55, 100
10, 6419, Note_on_c, 8, 55, 0
10, 6420, Note_on_c, 8, 57, 100
10, 6449, Note_on_c, 8, 57, 0
10, 6450, Note_on_c, 8, 59, 100
10, 6479, Note_on_c, 8, 59, 0
10, 6480, Note_on_c, 8, 60, 100
10, 6540, Note_on_c, 8, 60, 0
10, 6540, Note_on_c, 8, 48, 100
10, 6600, Note_on_c, 8, 48, 0
10, 6600, Note_on_c, 8, 60, 100
10, 6660, Note_on_c, 8, 60, 0
10, 6660, Note_on_c, 8, 48, 100
10, 6720, Note_on_c, 8, 48, 0
10, 6720, Note_on_c, 8, 60, 100
10, 6749, Note_on_c, 8, 60, 0
10, 6750, Note_on_c, 8, 58, 100
10, 6779, Note_on_c, 8, 58, 0
10, 6780, Note_on_c, 8, 57, 100
10, 6809, Note_on_c, 8, 57, 0
10, 6810, Note_on_c, 8, 55, 100
10, 6839, Note_on_c, 8, 55, 0
10, 6840, Note_on_c, 8, 57, 100
10, 6869, Note_on_c, 8, 57, 0
10, 6870, Note_on_c, 8, 53, 100
10, 6899, Note_on_c, 8, 53, 0
10, 6900, Note_on_c, 8, 55, 100
10, 6929, Note_on_c, 8, 55, 0
10, 6930, Note_on_c, 8, 57, 100
10, 6959, Note_on_c, 8, 57, 0
10, 6960, Note_on_c, 8, 58, 100
10, 7019, Note_on_c, 8, 58, 0
10, 7020, Note_on_c, 8, 46, 100
10, 7079, Note_on_c, 8, 46, 0
10, 7080, Note_on_c, 8, 58, 100
10, 7230, Note_on_c, 8, 58, 0
10, 7230, Note_on_c, 8, 56, 100
10, 7259, Note_on_c, 8, 56, 0
10, 7260, Note_on_c, 8, 55, 100
10, 7289, Note_on_c, 8, 55, 0
10, 7290, Note_on_c, 8, 56, 100
10, 7319, Note_on_c, 8, 56, 0
10, 7320, Note_on_c, 8, 58, 100
10, 7349, Note_on_c, 8, 58, 0
10, 7350, Note_on_c, 8, 60, 100
10, 7379, Note_on_c, 8, 60, 0
10, 7380, Note_on_c, 8, 61, 100
10, 7409, Note_on_c, 8, 61, 0
10, 7410, Note_on_c, 8, 58, 100
10, 7439, Note_on_c, 8, 58, 0
10, 7440, Note_on_c, 8, 60, 100
10, 7469, Note_on_c, 8, 60, 0
10, 7470, Note_on_c, 8, 61, 100
10, 7499, Note_on_c, 8, 61, 0
10, 7500, Note_on_c, 8, 60, 100
10, 7529, Note_on_c, 8, 60, 0
10, 7530, Note_on_c, 8, 58, 100
10, 7559, Note_on_c, 8, 58, 0
10, 7560, Note_on_c, 8, 56, 100
10, 7589, Note_on_c, 8, 56, 0
10, 7590, Note_on_c, 8, 55, 100
10, 7619, Note_on_c, 8, 55, 0
10, 7620, Note_on_c, 8, 53, 100
10, 7649, Note_on_c, 8, 53, 0
10, 7650, Note_on_c, 8, 52, 100
10, 7679, Note_on_c, 8, 52, 0
10, 7680, Note_on_c, 8, 53, 100
10, 7709, Note_on_c, 8, 53, 0
10, 7710, Note_on_c, 8, 51, 100
10, 7739, Note_on_c, 8, 51, 0
10, 7740, Note_on_c, 8, 50, 100
10, 7769, Note_on_c, 8, 50, 0
10, 7770, Note_on_c, 8, 48, 100
10, 7799, Note_on_c, 8, 48, 0
10, 7800, Note_on_c, 8, 47, 100
10, 7829, Note_on_c, 8, 47, 0
10, 7830, Note_on_c, 8, 43, 100
10, 7859, Note_on_c, 8, 43, 0
10, 7860, Note_on_c, 8, 48, 100
10, 7889, Note_on_c, 8, 48, 0
10, 7890, Note_on_c, 8, 46, 100
10, 7919, Note_on_c, 8, 46, 0
10, 7920, Note_on_c, 8, 45, 100
10, 7949, Note_on_c, 8, 45, 0
10, 7950, Note_on_c, 8, 48, 100
10, 7979, Note_on_c, 8, 48, 0
10, 7980, Note_on_c, 8, 47, 100
10, 8009, Note_on_c, 8, 47, 0
10, 8010, Note_on_c, 8, 48, 100
10, 8039, Note_on_c, 8, 48, 0
10, 8040, Note_on_c, 8, 50, 100
10, 8069, Note_on_c, 8, 50, 0
10, 8070, Note_on_c, 8, 51, 100
10, 8099, Note_on_c, 8, 51, 0
10, 8100, Note_on_c, 8, 53, 100
10, 8129, Note_on_c, 8, 53, 0
10, 8130, Note_on_c, 8, 50, 100
10, 8159, Note_on_c, 8, 50, 0
10, 8160, Note_on_c, 8, 51, 100
10, 8189, Note_on_c, 8, 51, 0
10, 8190, Note_on_c, 8, 50, 100
10, 8219, Note_on_c, 8, 50, 0
10, 8220, Note_on_c, 8, 48, 100
10, 8249, Note_on_c, 8, 48, 0
10, 8250, Note_on_c, 8, 50, 100
10, 8279, Note_on_c, 8, 50, 0
10, 8280, Note_on_c, 8, 51, 100
10, 8309, Note_on_c, 8, 51, 0
10, 8310, Note_on_c, 8, 50, 100
10, 8339, Note_on_c, 8, 50, 0
10, 8340, Note_on_c, 8, 51, 100
10, 8369, Note_on_c, 8, 51, 0
10, 8370, Note_on_c, 8, 53, 100
10, 8399, Note_on_c, 8, 53, 0
10, 8400, Note_on_c, 8, 55, 100
10, 8459, Note_on_c, 8, 55, 0
10, 8460, Note_on_c, 8, 43, 100
10, 8519, Note_on_c, 8, 43, 0
10, 8520, Note_on_c, 8, 55, 100
10, 8670, Note_on_c, 8, 55, 0
10, 8670, Note_on_c, 8, 53, 100
10, 8699, Note_on_c, 8, 53, 0
10, 8700, Note_on_c, 8, 51, 100
10, 8729, Note_on_c, 8, 51, 0
10, 8730, Note_on_c, 8, 50, 100
10, 8759, Note_on_c, 8, 50, 0
10, 8760, Note_on_c, 8, 51, 100
10, 8789, Note_on_c, 8, 51, 0
10, 8790, Note_on_c, 8, 48, 100
10, 8819, Note_on_c, 8, 48, 0
10, 8820, Note_on_c, 8, 50, 100
10, 8849, Note_on_c, 8, 50, 0
10, 8850, Note_on_c, 8, 51, 100
10, 8879, Note_on_c, 8, 51, 0
10, 8880, Note_on_c, 8, 53, 100
10, 8939, Note_on_c, 8, 53, 0
10, 8940, Note_on_c, 8, 41, 100
10, 8999, Note_on_c, 8, 41, 0
10, 9000, Note_on_c, 8, 53, 100
10, 9059, Note_on_c, 8, 53, 0
10, 9060, Note_on_c, 8, 41, 100
10, 9119, Note_on_c, 8, 41, 0
10, 9120, Note_on_c, 8, 53, 100
10, 9149, Note_on_c, 8, 53, 0
10, 9150, Note_on_c, 8, 51, 100
10, 9179, Note_on_c, 8, 51, 0
10, 9180, Note_on_c, 8, 50, 100
10, 9209, Note_on_c, 8, 50, 0
10, 9210, Note_on_c, 8, 51, 100
10, 9239, Note_on_c, 8, 51, 0
10, 9240, Note_on_c, 8, 53, 100
10, 9269, Note_on_c, 8, 53, 0
10, 9270, Note_on_c, 8, 55, 100
10, 9299, Note_on_c, 8, 55, 0
10, 9300, Note_on_c, 8, 56, 100
10, 9329, Note_on_c, 8, 56, 0
10, 9330, Note_on_c, 8, 53, 100
10, 9359, Note_on_c, 8, 53, 0
10, 9360, Note_on_c, 8, 55, 100
10, 9389, Note_on_c, 8, 55, 0
10, 9390, Note_on_c, 8, 56, 100
10, 9419, Note_on_c, 8, 56, 0
10, 9420, Note_on_c, 8, 55, 100
10, 9449, Note_on_c, 8, 55, 0
10, 9450, Note_on_c, 8, 53, 100
10, 9479, Note_on_c, 8, 53, 0
10, 9480, Note_on_c, 8, 51, 100
10, 9509, Note_on_c, 8, 51, 0
10, 9510, Note_on_c, 8, 50, 100
10, 9539, Note_on_c, 8, 50, 0
10, 9540, Note_on_c, 8, 48, 100
10, 9569, Note_on_c, 8, 48, 0
10, 9570, Note_on_c, 8, 47, 100
10, 9599, Note_on_c, 8, 47, 0
10, 9600, Note_on_c, 8, 48, 100
10, 9659, Note_on_c, 8, 48, 0
10, 9660, Note_on_c, 8, 44, 100
10, 9719, Note_on_c, 8, 44, 0
10, 9720, Note_on_c, 8, 41, 100
10, 9779, Note_on_c, 8, 41, 0
10, 9780, Note_on_c, 8, 43, 100
10, 9839, Note_on_c, 8, 43, 0
10, 9840, Note_on_c, 8, 36, 100
10, 9959, Note_on_c, 8, 36, 0
10, 12000, Note_on_c, 8, 60, 100
10, 12029, Note_on_c, 8, 60, 0
10, 12030, Note_on_c, 8, 55, 100
10, 12059, Note_on_c, 8, 55, 0
10, 12060, Note_on_c, 8, 51, 100
10, 12089, Note_on_c, 8, 51, 0
10, 12090, Note_on_c, 8, 55, 100
10, 12119, Note_on_c, 8, 55, 0
10, 12120, Note_on_c, 8, 59, 100
10, 12149, Note_on_c, 8, 59, 0
10, 12150, Note_on_c, 8, 55, 100
10, 12179, Note_on_c, 8, 55, 0
10, 12180, Note_on_c, 8, 50, 100
10, 12209, Note_on_c, 8, 50, 0
10, 12210, Note_on_c, 8, 55, 100
10, 12239, Note_on_c, 8, 55, 0
10, 12240, Note_on_c, 8, 60, 100
10, 12269, Note_on_c, 8, 60, 0
10, 12270, Note_on_c, 8, 59, 100
10, 12299, Note_on_c, 8, 59, 0
10, 12300, Note_on_c, 8, 60, 100
10, 12329, Note_on_c, 8, 60, 0
10, 12330, Note_on_c, 8, 62, 100
10, 12359, Note_on_c, 8, 62, 0
10, 12360, Note_on_c, 8, 63, 100
10, 12389, Note_on_c, 8, 63, 0
10, 12390, Note_on_c, 8, 64, 100
10, 12419, Note_on_c, 8, 64, 0
10, 12420, Note_on_c, 8, 65, 100
10, 12449, Note_on_c, 8, 65, 0
10, 12450, Note_on_c, 8, 67, 100
10, 12479, Note_on_c, 8, 67, 0
10, 12480, Note_on_c, 8, 65, 100
10, 12509, Note_on_c, 8, 65, 0
10, 12510, Note_on_c, 8, 60, 100
10, 12539, Note_on_c, 8, 60, 0
10, 12540, Note_on_c, 8, 56, 100
10, 12569, Note_on_c, 8, 56, 0
10, 12570, Note_on_c, 8, 60, 100
10, 12599, Note_on_c, 8, 60, 0
10, 12600, Note_on_c, 8, 64, 100
10, 12629, Note_on_c, 8, 64, 0
10, 12630, Note_on_c, 8, 60, 100
10, 12659, Note_on_c, 8, 60, 0
10, 12660, Note_on_c, 8, 55, 100
10, 12689, Note_on_c, 8, 55, 0
10, 12690, Note_on_c, 8, 60, 100
10, 12719, Note_on_c, 8, 60, 0
10, 12720, Note_on_c, 8, 65, 100
10, 12749, Note_on_c, 8, 65, 0
10, 12750, Note_on_c, 8, 64, 100
10, 12779, Note_on_c, 8, 64, 0
10, 12780, Note_on_c, 8, 65, 100
10, 12809, Note_on_c, 8, 65, 0
10, 12810, Note_on_c, 8, 67, 100
10, 12839, Note_on_c, 8, 67, 0
10, 12840, Note_on_c, 8, 68, 100
10, 12899, Note_on_c, 8, 68, 0
10, 12900, Note_on_c, 8, 65, 100
10, 13019, Note_on_c, 8, 65, 0
10, 13020, Note_on_c, 8, 58, 100
10, 13139, Note_on_c, 8, 58, 0
10, 13140, Note_on_c, 8, 63, 100
10, 13259, Note_on_c, 8, 63, 0
10, 13260, Note_on_c, 8, 56, 100
10, 13379, Note_on_c, 8, 56, 0
10, 13380, Note_on_c, 8, 62, 100
10, 13499, Note_on_c, 8, 62, 0
10, 13500, Note_on_c, 8, 55, 100
10, 13619, Note_on_c, 8, 55, 0
10, 13620, Note_on_c, 8, 60, 100
10, 13679, Note_on_c, 8, 60, 0
10, 13680, Note_on_c, 8, 55, 100
10, 13739, Note_on_c, 8, 55, 0
10, 13740, Note_on_c, 8, 50, 100
10, 13799, Note_on_c, 8, 50, 0
10, 13800, Note_on_c, 8, 47, 100
10, 13859, Note_on_c, 8, 47, 0
10, 13860, Note_on_c, 8, 43, 100
10, 13919, Note_on_c, 8, 43, 0
10, 13920, Note_on_c, 8, 48, 100
10, 13979, Note_on_c, 8, 48, 0
10, 14040, Note_on_c, 8, 48, 100
10, 14069, Note_on_c, 8, 48, 0
10, 14070, Note_on_c, 8, 47, 100
10, 14099, Note_on_c, 8, 47, 0
10, 14100, Note_on_c, 8, 48, 100
10, 14159, Note_on_c, 8, 48, 0
10, 14160, Note_on_c, 8, 53, 100
10, 14219, Note_on_c, 8, 53, 0
10, 14220, Note_on_c, 8, 48, 100
10, 14279, Note_on_c, 8, 48, 0
10, 14280, Note_on_c, 8, 45, 100
10, 14339, Note_on_c, 8, 45, 0
10, 14340, Note_on_c, 8, 41, 100
10, 14399, Note_on_c, 8, 41, 0
10, 14400, Note_on_c, 8, 46, 100
10, 14459, Note_on_c, 8, 46, 0
10, 14520, Note_on_c, 8, 46, 100
10, 14549, Note_on_c, 8, 46, 0
10, 14550, Note_on_c, 8, 45, 100
10, 14579, Note_on_c, 8, 45, 0
10, 14580, Note_on_c, 8, 46, 100
10, 14639, Note_on_c, 8, 46, 0
10, 14640, Note_on_c, 8, 51, 100
10, 14699, Note_on_c, 8, 51, 0
10, 14700, Note_on_c, 8, 48, 100
10, 14759, Note_on_c, 8, 48, 0
10, 14760, Note_on_c, 8, 43, 100
10, 14819, Note_on_c, 8, 43, 0
10, 14820, Note_on_c, 8, 39, 100
10, 14879, Note_on_c, 8, 39, 0
10, 14880, Note_on_c, 8, 44, 100
10, 14939, Note_on_c, 8, 44, 0
10, 14940, Note_on_c, 8, 48, 100
10, 14999, Note_on_c, 8, 48, 0
10, 15000, Note_on_c, 8, 45, 100
10, 15059, Note_on_c, 8, 45, 0
10, 15060, Note_on_c, 8, 41, 100
10, 15119, Note_on_c, 8, 41, 0
10, 15120, Note_on_c, 8, 46, 100
10, 15179, Note_on_c, 8, 46, 0
10, 15180, Note_on_c, 8, 50, 100
10, 15239, Note_on_c, 8, 50, 0
10, 15240, Note_on_c, 8, 47, 100
10, 15299, Note_on_c, 8, 47, 0
10, 15300, Note_on_c, 8, 43, 100
10, 15359, Note_on_c, 8, 43, 0
10, 15360, Note_on_c, 8, 48, 100
10, 15389, Note_on_c, 8, 48, 0
10, 15390, Note_on_c, 8, 47, 100
10, 15419, Note_on_c, 8, 47, 0
10, 15420, Note_on_c, 8, 48, 100
10, 15479, Note_on_c, 8, 48, 0
10, 15540, Note_on_c, 8, 48, 100
10, 15599, Note_on_c, 8, 48, 0
10, 15600, Note_on_c, 8, 50, 100
10, 15629, Note_on_c, 8, 50, 0
10, 15630, Note_on_c, 8, 48, 100
10, 15659, Note_on_c, 8, 48, 0
10, 15660, Note_on_c, 8, 50, 100
10, 15719, Note_on_c, 8, 50, 0
10, 15780, Note_on_c, 8, 50, 100
10, 15839, Note_on_c, 8, 50, 0
10, 15840, Note_on_c, 8, 51, 100
10, 15869, Note_on_c, 8, 51, 0
10, 15870, Note_on_c, 8, 50, 100
10, 15899, Note_on_c, 8, 50, 0
10, 15900, Note_on_c, 8, 51, 100
10, 15959, Note_on_c, 8, 51, 0
10, 16140, Note_on_c, 8, 45, 100
10, 16169, Note_on_c, 8, 45, 0
10, 16170, Note_on_c, 8, 46, 100
10, 16199, Note_on_c, 8, 46, 0
10, 16200, Note_on_c, 8, 48, 100
10, 16259, Note_on_c, 8, 48, 0
10, 16260, Note_on_c, 8, 45, 100
10, 16319, Note_on_c, 8, 45, 0
10, 16320, Note_on_c, 8, 50, 100
10, 16349, Note_on_c, 8, 50, 0
10, 16350, Note_on_c, 8, 48, 100
10, 16379, Note_on_c, 8, 48, 0
10, 16380, Note_on_c, 8, 50, 100
10, 16439, Note_on_c, 8, 50, 0
10, 16620, Note_on_c, 8, 43, 100
10, 16649, Note_on_c, 8, 43, 0
10, 16650, Note_on_c, 8, 45, 100
10, 16679, Note_on_c, 8, 45, 0
10, 16680, Note_on_c, 8, 47, 100
10, 16739, Note_on_c, 8, 47, 0
10, 16740, Note_on_c, 8, 43, 100
10, 16799, Note_on_c, 8, 43, 0
10, 16800, Note_on_c, 8, 48, 100
10, 16859, Note_on_c, 8, 48, 0
10, 16950, Note_on_c, 8, 48, 100
10, 16979, Note_on_c, 8, 48, 0
10, 16980, Note_on_c, 8, 51, 100
10, 17009, Note_on_c, 8, 51, 0
10, 17010, Note_on_c, 8, 55, 100
10, 17039, Note_on_c, 8, 55, 0
10, 17040, Note_on_c, 8, 58, 100
10, 17099, Note_on_c, 8, 58, 0
10, 17190, Note_on_c, 8, 62, 100
10, 17219, Note_on_c, 8, 62, 0
10, 17220, Note_on_c, 8, 58, 100
10, 17249, Note_on_c, 8, 58, 0
10, 17250, Note_on_c, 8, 55, 100
10, 17279, Note_on_c, 8, 55, 0
10, 17280, Note_on_c, 8, 51, 100
10, 17339, Note_on_c, 8, 51, 0
10, 17430, Note_on_c, 8, 51, 100
10, 17459, Note_on_c, 8, 51, 0
10, 17460, Note_on_c, 8, 57, 100
10, 17489, Note_on_c, 8, 57, 0
10, 17490, Note_on_c, 8, 60, 100
10, 17519, Note_on_c, 8, 60, 0
10, 17520, Note_on_c, 8, 50, 100
10, 17579, Note_on_c, 8, 50, 0
10, 17670, Note_on_c, 8, 50, 100
10, 17699, Note_on_c, 8, 50, 0
10, 17700, Note_on_c, 8, 52, 100
10, 17729, Note_on_c, 8, 52, 0
10, 17730, Note_on_c, 8, 54, 100
10, 17759, Note_on_c, 8, 54, 0
10, 17760, Note_on_c, 8, 55, 100
10, 17789, Note_on_c, 8, 55, 0
10, 17790, Note_on_c, 8, 50, 100
10, 17819, Note_on_c, 8, 50, 0
10, 17820, Note_on_c, 8, 46, 100
10, 17849, Note_on_c, 8, 46, 0
10, 17850, Note_on_c, 8, 50, 100
10, 17879, Note_on_c, 8, 50, 0
10, 17880, Note_on_c, 8, 54, 100
10, 17909, Note_on_c, 8, 54, 0
10, 17910, Note_on_c, 8, 50, 100
10, 17939, Note_on_c, 8, 50, 0
10, 17940, Note_on_c, 8, 45, 100
10, 17969, Note_on_c, 8, 45, 0
10, 17970, Note_on_c, 8, 50, 100
10, 17999, Note_on_c, 8, 50, 0
10, 18000, Note_on_c, 8, 55, 100
10, 18029, Note_on_c, 8, 55, 0
10, 18030, Note_on_c, 8, 54, 100
10, 18059, Note_on_c, 8, 54, 0
10, 18060, Note_on_c, 8, 55, 100
10, 18089, Note_on_c, 8, 55, 0
10, 18090, Note_on_c, 8, 57, 100
10, 18119, Note_on_c, 8, 57, 0
10, 18120, Note_on_c, 8, 58, 100
10, 18149, Note_on_c, 8, 58, 0
10, 18150, Note_on_c, 8, 59, 100
10, 18179, Note_on_c, 8, 59, 0
10, 18180, Note_on_c, 8, 60, 100
10, 18209, Note_on_c, 8, 60, 0
10, 18210, Note_on_c, 8, 62, 100
10, 18239, Note_on_c, 8, 62, 0
10, 18240, Note_on_c, 8, 60, 100
10, 18269, Note_on_c, 8, 60, 0
10, 18270, Note_on_c, 8, 55, 100
10, 18299, Note_on_c, 8, 55, 0
10, 18300, Note_on_c, 8, 51, 100
10, 18329, Note_on_c, 8, 51, 0
10, 18330, Note_on_c, 8, 55, 100
10, 18359, Note_on_c, 8, 55, 0
10, 18360, Note_on_c, 8, 59, 100
10, 18389, Note_on_c, 8, 59, 0
10, 18390, Note_on_c, 8, 55, 100
10, 18419, Note_on_c, 8, 55, 0
10, 18420, Note_on_c, 8, 50, 100
10, 18449, Note_on_c, 8, 50, 0
10, 18450, Note_on_c, 8, 55, 100
10, 18479, Note_on_c, 8, 55, 0
10, 18480, Note_on_c, 8, 60, 100
10, 18509, Note_on_c, 8, 60, 0
10, 18510, Note_on_c, 8, 59, 100
10, 18539, Note_on_c, 8, 59, 0
10, 18540, Note_on_c, 8, 60, 100
10, 18569, Note_on_c, 8, 60, 0
10, 18570, Note_on_c, 8, 62, 100
10, 18599, Note_on_c, 8, 62, 0
10, 18600, Note_on_c, 8, 63, 100
10, 18659, Note_on_c, 8, 63, 0
10, 18660, Note_on_c, 8, 60, 100
10, 18779, Note_on_c, 8, 60, 0
10, 18780, Note_on_c, 8, 53, 100
10, 18899, Note_on_c, 8, 53, 0
10, 18900, Note_on_c, 8, 58, 100
10, 19019, Note_on_c, 8, 58, 0
10, 19020, Note_on_c, 8, 51, 100
10, 19139, Note_on_c, 8, 51, 0
10, 19140, Note_on_c, 8, 57, 100
10, 19259, Note_on_c, 8, 57, 0
10, 19260, Note_on_c, 8, 50, 100
10, 19379, Note_on_c, 8, 50, 0
10, 19380, Note_on_c, 8, 55, 100
10, 19439, Note_on_c, 8, 55, 0
10, 19440, Note_on_c, 8, 54, 100
10, 19499, Note_on_c, 8, 54, 0
10, 19500, Note_on_c, 8, 50, 100
10, 19529, Note_on_c, 8, 50, 0
10, 19530, Note_on_c, 8, 45, 100
10, 19559, Note_on_c, 8, 45, 0
10, 19560, Note_on_c, 8, 42, 100
10, 19589, Note_on_c, 8, 42, 0
10, 19590, Note_on_c, 8, 38, 100
10, 19619, Note_on_c, 8, 38, 0
10, 19620, Note_on_c, 8, 40, 100
10, 19649, Note_on_c, 8, 40, 0
10, 19650, Note_on_c, 8, 42, 100
10, 19679, Note_on_c, 8, 42, 0
10, 19680, Note_on_c, 8, 43, 100
10, 19739, Note_on_c, 8, 43, 0
10, 19740, Note_on_c, 8, 46, 100
10, 19799, Note_on_c, 8, 46, 0
10, 19800, Note_on_c, 8, 50, 100
10, 19859, Note_on_c, 8, 50, 0
10, 19860, Note_on_c, 8, 38, 100
10, 19919, Note_on_c, 8, 38, 0
10, 19920, Note_on_c, 8, 43, 100
10, 19979, Note_on_c, 8, 43, 0
10, 19980, Note_on_c, 8, 55, 100
10, 20039, Note_on_c, 8, 55, 0
10, 20070, Note_on_c, 8, 43, 100
10, 20099, Note_on_c, 8, 43, 0
10, 20100, Note_on_c, 8, 45, 100
10, 20129, Note_on_c, 8, 45, 0
10, 20130, Note_on_c, 8, 47, 100
10, 20159, Note_on_c, 8, 47, 0
10, 20160, Note_on_c, 8, 48, 100
10, 20219, Note_on_c, 8, 48, 0
10, 20220, Note_on_c, 8, 51, 100
10, 20279, Note_on_c, 8, 51, 0
10, 20280, Note_on_c, 8, 55, 100
10, 20339, Note_on_c, 8, 55, 0
10, 20340, Note_on_c, 8, 43, 100
10, 20399, Note_on_c, 8, 43, 0
10, 20400, Note_on_c, 8, 48, 100
10, 20459, Note_on_c, 8, 48, 0
10, 20460, Note_on_c, 8, 36, 100
10, 20519, Note_on_c, 8, 36, 0
10, 20550, Note_on_c, 8, 48, 100
10, 20579, Note_on_c, 8, 48, 0
10, 20580, Note_on_c, 8, 50, 100
10, 20609, Note_on_c, 8, 50, 0
10, 20610, Note_on_c, 8, 51, 100
10, 20639, Note_on_c, 8, 51, 0
10, 20640, Note_on_c, 8, 53, 100
10, 20699, Note_on_c, 8, 53, 0
10, 20790, Note_on_c, 8, 53, 100
10, 20819, Note_on_c, 8, 53, 0
10, 20820, Note_on_c, 8, 51, 100
10, 20849, Note_on_c, 8, 51, 0
10, 20850, Note_on_c, 8, 50, 100
10, 20879, Note_on_c, 8, 50, 0
10, 20880, Note_on_c, 8, 51, 100
10, 20939, Note_on_c, 8, 51, 0
10, 21030, Note_on_c, 8, 51, 100
10, 21059, Note_on_c, 8, 51, 0
10, 21060, Note_on_c, 8, 50, 100
10, 21089, Note_on_c, 8, 50, 0
10, 21090, Note_on_c, 8, 48, 100
10, 21119, Note_on_c, 8, 48, 0
10, 21120, Note_on_c, 8, 50, 100
10, 21179, Note_on_c, 8, 50, 0
10, 21270, Note_on_c, 8, 50, 100
10, 21299, Note_on_c, 8, 50, 0
10, 21300, Note_on_c, 8, 46, 100
10, 21329, Note_on_c, 8, 46, 0
10, 21330, Note_on_c, 8, 43, 100
10, 21359, Note_on_c, 8, 43, 0
10, 21360, Note_on_c, 8, 50, 100
10, 21419, Note_on_c, 8, 50, 0
10, 21420, Note_on_c, 8, 38, 100
10, 21479, Note_on_c, 8, 38, 0
10, 21510, Note_on_c, 8, 38, 100
10, 21539, Note_on_c, 8, 38, 0
10, 21540, Note_on_c, 8, 40, 100
10, 21569, Note_on_c, 8, 40, 0
10, 21570, Note_on_c, 8, 42, 100
10, 21599, Note_on_c, 8, 42, 0
10, 21600, Note_on_c, 8, 43, 100
10, 21659, Note_on_c, 8, 43, 0
10, 21660, Note_on_c, 8, 55, 100
10, 21719, Note_on_c, 8, 55, 0
10, 21720, Note_on_c, 8, 53, 100
10, 21779, Note_on_c, 8, 53, 0
10, 21780, Note_on_c, 8, 51, 100
10, 21839, Note_on_c, 8, 51, 0
10, 21840, Note_on_c, 8, 50, 100
10, 21899, Note_on_c, 8, 50, 0
10, 21900, Note_on_c, 8, 62, 100
10, 21929, Note_on_c, 8, 62, 0
10, 21930, Note_on_c, 8, 63, 100
10, 21959, Note_on_c, 8, 63, 0
10, 21960, Note_on_c, 8, 62, 100
10, 21989, Note_on_c, 8, 62, 0
10, 21990, Note_on_c, 8, 60, 100
10, 22019, Note_on_c, 8, 60, 0
10, 22020, Note_on_c, 8, 59, 100
10, 22049, Note_on_c, 8, 59, 0
10, 22050, Note_on_c, 8, 57, 100
10, 22079, Note_on_c, 8, 57, 0
10, 22080, Note_on_c, 8, 55, 100
10, 22230, Note_on_c, 8, 55, 0
10, 22230, Note_on_c, 8, 53, 100
10, 22259, Note_on_c, 8, 53, 0
10, 22260, Note_on_c, 8, 51, 100
10, 22289, Note_on_c, 8, 51, 0
10, 22290, Note_on_c, 8, 50, 100
10, 22319, Note_on_c, 8, 50, 0
10, 22320, Note_on_c, 8, 48, 100
10, 22349, Note_on_c, 8, 48, 0
10, 22350, Note_on_c, 8, 47, 100
10, 22379, Note_on_c, 8, 47, 0
10, 22380, Note_on_c, 8, 48, 100
10, 22409, Note_on_c, 8, 48, 0
10, 22410, Note_on_c, 8, 50, 100
10, 22439, Note_on_c, 8, 50, 0
10, 22440, Note_on_c, 8, 48, 100
10, 22469, Note_on_c, 8, 48, 0
10, 22470, Note_on_c, 8, 46, 100
10, 22499, Note_on_c, 8, 46, 0
10, 22500, Note_on_c, 8, 45, 100
10, 22529, Note_on_c, 8, 45, 0
10, 22530, Note_on_c, 8, 43, 100
10, 22559, Note_on_c, 8, 43, 0
10, 22560, Note_on_c, 8, 42, 100
10, 22679, Note_on_c, 8, 42, 0
10, 22740, Note_on_c, 8, 48, 100
10, 22859, Note_on_c, 8, 48, 0
10, 22860, Note_on_c, 8, 46, 100
10, 22889, Note_on_c, 8, 46, 0
10, 22890, Note_on_c, 8, 45, 100
10, 22919, Note_on_c, 8, 45, 0
10, 22920, Note_on_c, 8, 46, 100
10, 22979, Note_on_c, 8, 46, 0
10, 22980, Note_on_c, 8, 51, 100
10, 23039, Note_on_c, 8, 51, 0
10, 23040, Note_on_c, 8, 50, 100
10, 23099, Note_on_c, 8, 50, 0
10, 23100, Note_on_c, 8, 48, 100
10, 23159, Note_on_c, 8, 48, 0
10, 23160, Note_on_c, 8, 50, 100
10, 23219, Note_on_c, 8, 50, 0
10, 23220, Note_on_c, 8, 38, 100
10, 23279, Note_on_c, 8, 38, 0
10, 23280, Note_on_c, 8, 43, 100
10, 23339, Note_on_c, 8, 43, 0
10, 23430, Note_on_c, 8, 69, 100
10, 23460, Note_on_c, 8, 69, 0
10, 23460, Note_on_c, 8, 67, 100
10, 23490, Note_on_c, 8, 67, 0
10, 23490, Note_on_c, 8, 66, 100
10, 23520, Note_on_c, 8, 66, 0
10, 24360, Note_on_c, 8, 55, 100
10, 24390, Note_on_c, 8, 55, 0
10, 24390, Note_on_c, 8, 59, 100
10, 24420, Note_on_c, 8, 59, 0
10, 24420, Note_on_c, 8, 60, 100
10, 24450, Note_on_c, 8, 60, 0
10, 24450, Note_on_c, 8, 62, 100
10, 24480, Note_on_c, 8, 62, 0
10, 24480, Note_on_c, 8, 55, 100
10, 24540, Note_on_c, 8, 55, 0
10, 25020, Note_on_c, 8, 60, 100
10, 25079, Note_on_c, 8, 60, 0
10, 25080, Note_on_c, 8, 59, 100
10, 25139, Note_on_c, 8, 59, 0
10, 25140, Note_on_c, 8, 55, 100
10, 25199, Note_on_c, 8, 55, 0
10, 25200, Note_on_c, 8, 60, 100
10, 25259, Note_on_c, 8, 60, 0
10, 25260, Note_on_c, 8, 48, 100
10, 25289, Note_on_c, 8, 48, 0
10, 25290, Note_on_c, 8, 50, 100
10, 25319, Note_on_c, 8, 50, 0
10, 25320, Note_on_c, 8, 51, 100
10, 25379, Note_on_c, 8, 51, 0
10, 25380, Note_on_c, 8, 48, 100
10, 25439, Note_on_c, 8, 48, 0
10, 25440, Note_on_c, 8, 55, 100
10, 25559, Note_on_c, 8, 55, 0
10, 25620, Note_on_c, 8, 55, 100
10, 25679, Note_on_c, 8, 55, 0
10, 25680, Note_on_c, 8, 60, 100
10, 25799, Note_on_c, 8, 60, 0
10, 25860, Note_on_c, 8, 48, 100
10, 25919, Note_on_c, 8, 48, 0
10, 25920, Note_on_c, 8, 41, 100
10, 25949, Note_on_c, 8, 41, 0
10, 25950, Note_on_c, 8, 43, 100
10, 25979, Note_on_c, 8, 43, 0
10, 25980, Note_on_c, 8, 44, 100
10, 26009, Note_on_c, 8, 44, 0
10, 26010, Note_on_c, 8, 46, 100
10, 26039, Note_on_c, 8, 46, 0
10, 26040, Note_on_c, 8, 48, 100
10, 26099, Note_on_c, 8, 48, 0
10, 26100, Note_on_c, 8, 53, 100
10, 26159, Note_on_c, 8, 53, 0
10, 26160, Note_on_c, 8, 52, 100
10, 26219, Note_on_c, 8, 52, 0
10, 26220, Note_on_c, 8, 48, 100
10, 26279, Note_on_c, 8, 48, 0
10, 26280, Note_on_c, 8, 43, 100
10, 26339, Note_on_c, 8, 43, 0
10, 26340, Note_on_c, 8, 46, 100
10, 26399, Note_on_c, 8, 46, 0
10, 26400, Note_on_c, 8, 45, 100
10, 26459, Note_on_c, 8, 45, 0
10, 26460, Note_on_c, 8, 41, 100
10, 26519, Note_on_c, 8, 41, 0
10, 26520, Note_on_c, 8, 51, 100
10, 26699, Note_on_c, 8, 51, 0
10, 26700, Note_on_c, 8, 50, 100
10, 26729, Note_on_c, 8, 50, 0
10, 26730, Note_on_c, 8, 48, 100
10, 26759, Note_on_c, 8, 48, 0
10, 26760, Note_on_c, 8, 50, 100
10, 26819, Note_on_c, 8, 50, 0
10, 26820, Note_on_c, 8, 46, 100
10, 26879, Note_on_c, 8, 46, 0
10, 26880, Note_on_c, 8, 43, 100
10, 26939, Note_on_c, 8, 43, 0
10, 26940, Note_on_c, 8, 46, 100
10, 26999, Note_on_c, 8, 46, 0
10, 27000, Note_on_c, 8, 49, 100
10, 27059, Note_on_c, 8, 49, 0
10, 27060, Note_on_c, 8, 41, 100
10, 27119, Note_on_c, 8, 41, 0
10, 27120, Note_on_c, 8, 40, 100
10, 27179, Note_on_c, 8, 40, 0
10, 27180, Note_on_c, 8, 48, 100
10, 27239, Note_on_c, 8, 48, 0
10, 27240, Note_on_c, 8, 41, 100
10, 27299, Note_on_c, 8, 41, 0
10, 27300, Note_on_c, 8, 49, 100
10, 27359, Note_on_c, 8, 49, 0
10, 27360, Note_on_c, 8, 48, 100
10, 27419, Note_on_c, 8, 48, 0
10, 27420, Note_on_c, 8, 46, 100
10, 27479, Note_on_c, 8, 46, 0
10, 27480, Note_on_c, 8, 48, 100
10, 27539, Note_on_c, 8, 48, 0
10, 27540, Note_on_c, 8, 36, 100
10, 27599, Note_on_c, 8, 36, 0
10, 27600, Note_on_c, 8, 41, 100
10, 27659, Note_on_c, 8, 41, 0
10, 27660, Note_on_c, 8, 44, 100
10, 27719, Note_on_c, 8, 44, 0
10, 27720, Note_on_c, 8, 48, 100
10, 27749, Note_on_c, 8, 48, 0
10, 27750, Note_on_c, 8, 52, 100
10, 27779, Note_on_c, 8, 52, 0
10, 27780, Note_on_c, 8, 53, 100
10, 27809, Note_on_c, 8, 53, 0
10, 27810, Note_on_c, 8, 55, 100
10, 27839, Note_on_c, 8, 55, 0
10, 27840, Note_on_c, 8, 48, 100
10, 27899, Note_on_c, 8, 48, 0
10, 28380, Note_on_c, 8, 53, 100
10, 28439, Note_on_c, 8, 53, 0
10, 28440, Note_on_c, 8, 52, 100
10, 28499, Note_on_c, 8, 52, 0
10, 28500, Note_on_c, 8, 48, 100
10, 28559, Note_on_c, 8, 48, 0
10, 28560, Note_on_c, 8, 53, 100
10, 28619, Note_on_c, 8, 53, 0
10, 28620, Note_on_c, 8, 60, 100
10, 28679, Note_on_c, 8, 60, 0
10, 28680, Note_on_c, 8, 65, 100
10, 28709, Note_on_c, 8, 65, 0
10, 29640, Note_on_c, 8, 58, 100
10, 29669, Note_on_c, 8, 58, 0
10, 29670, Note_on_c, 8, 56, 100
10, 29699, Note_on_c, 8, 56, 0
10, 29700, Note_on_c, 8, 55, 100
10, 29729, Note_on_c, 8, 55, 0
10, 29730, Note_on_c, 8, 53, 100
10, 29759, Note_on_c, 8, 53, 0
10, 29760, Note_on_c, 8, 51, 100
10, 29819, Note_on_c, 8, 51, 0
10, 29940, Note_on_c, 8, 39, 100
10, 29999, Note_on_c, 8, 39, 0
10, 30000, Note_on_c, 8, 44, 100
10, 30059, Note_on_c, 8, 44, 0
10, 30180, Note_on_c, 8, 44, 100
10, 30209, Note_on_c, 8, 44, 0
10, 30210, Note_on_c, 8, 46, 100
10, 30239, Note_on_c, 8, 46, 0
10, 30240, Note_on_c, 8, 48, 100
10, 30299, Note_on_c, 8, 48, 0
10, 30420, Note_on_c, 8, 36, 100
10, 30479, Note_on_c, 8, 36, 0
10, 30480, Note_on_c, 8, 41, 100
10, 30539, Note_on_c, 8, 41, 0
10, 30660, Note_on_c, 8, 38, 100
10, 30719, Note_on_c, 8, 38, 0
10, 30720, Note_on_c, 8, 43, 100
10, 30779, Note_on_c, 8, 43, 0
10, 30780, Note_on_c, 8, 50, 100
10, 30839, Note_on_c, 8, 50, 0
10, 30840, Note_on_c, 8, 50, 100
10, 30899, Note_on_c, 8, 50, 0
10, 30900, Note_on_c, 8, 43, 100
10, 30959, Note_on_c, 8, 43, 0
10, 30960, Note_on_c, 8, 48, 100
10, 30989, Note_on_c, 8, 48, 0
10, 30990, Note_on_c, 8, 50, 100
10, 31019, Note_on_c, 8, 50, 0
10, 31020, Note_on_c, 8, 51, 100
10, 31049, Note_on_c, 8, 51, 0
10, 31050, Note_on_c, 8, 50, 100
10, 31079, Note_on_c, 8, 50, 0
10, 31080, Note_on_c, 8, 48, 100
10, 31109, Note_on_c, 8, 48, 0
10, 31110, Note_on_c, 8, 46, 100
10, 31139, Note_on_c, 8, 46, 0
10, 31140, Note_on_c, 8, 48, 100
10, 31169, Note_on_c, 8, 48, 0
10, 31170, Note_on_c, 8, 44, 100
10, 31199, Note_on_c, 8, 44, 0
10, 31200, Note_on_c, 8, 51, 100
10, 31259, Note_on_c, 8, 51, 0
10, 31260, Note_on_c, 8, 58, 100
10, 31319, Note_on_c, 8, 58, 0
10, 31320, Note_on_c, 8, 58, 100
10, 31379, Note_on_c, 8, 58, 0
10, 31380, Note_on_c, 8, 51, 100
10, 31439, Note_on_c, 8, 51, 0
10, 31440, Note_on_c, 8, 56, 100
10, 31469, Note_on_c, 8, 56, 0
10, 31470, Note_on_c, 8, 55, 100
10, 31499, Note_on_c, 8, 55, 0
10, 31500, Note_on_c, 8, 56, 100
10, 31559, Note_on_c, 8, 56, 0
10, 31560, Note_on_c, 8, 44, 100
10, 31619, Note_on_c, 8, 44, 0
10, 31620, Note_on_c, 8, 56, 100
10, 31649, Note_on_c, 8, 56, 0
10, 31650, Note_on_c, 8, 55, 100
10, 31679, Note_on_c, 8, 55, 0
10, 31680, Note_on_c, 8, 53, 100
10, 31739, Note_on_c, 8, 53, 0
10, 31860, Note_on_c, 8, 47, 100
10, 31919, Note_on_c, 8, 47, 0
10, 31920, Note_on_c, 8, 51, 100
10, 31979, Note_on_c, 8, 51, 0
10, 32100, Note_on_c, 8, 45, 100
10, 32159, Note_on_c, 8, 45, 0
10, 32160, Note_on_c, 8, 50, 100
10, 32219, Note_on_c, 8, 50, 0
10, 32340, Note_on_c, 8, 43, 100
10, 32399, Note_on_c, 8, 43, 0
10, 32400, Note_on_c, 8, 48, 100
10, 32429, Note_on_c, 8, 48, 0
10, 32430, Note_on_c, 8, 55, 100
10, 32459, Note_on_c, 8, 55, 0
10, 32460, Note_on_c, 8, 57, 100
10, 32489, Note_on_c, 8, 57, 0
10, 32490, Note_on_c, 8, 59, 100
10, 32519, Note_on_c, 8, 59, 0
10, 32520, Note_on_c, 8, 60, 100
10, 32579, Note_on_c, 8, 60, 0
10, 32580, Note_on_c, 8, 48, 100
10, 32639, Note_on_c, 8, 48, 0
10, 32640, Note_on_c, 8, 53, 100
10, 32669, Note_on_c, 8, 53, 0
10, 32670, Note_on_c, 8, 52, 100
10, 32699, Note_on_c, 8, 52, 0
10, 32700, Note_on_c, 8, 53, 100
10, 32759, Note_on_c, 8, 53, 0
10, 32940, Note_on_c, 8, 46, 100
10, 32999, Note_on_c, 8, 46, 0
10, 33000, Note_on_c, 8, 50, 100
10, 33059, Note_on_c, 8, 50, 0
10, 33060, Note_on_c, 8, 53, 100
10, 33119, Note_on_c, 8, 53, 0
10, 33120, Note_on_c, 8, 51, 100
10, 33149, Note_on_c, 8, 51, 0
10, 33150, Note_on_c, 8, 50, 100
10, 33179, Note_on_c, 8, 50, 0
10, 33180, Note_on_c, 8, 51, 100
10, 33239, Note_on_c, 8, 51, 0
10, 33420, Note_on_c, 8, 44, 100
10, 33479, Note_on_c, 8, 44, 0
10, 33480, Note_on_c, 8, 48, 100
10, 33539, Note_on_c, 8, 48, 0
10, 33540, Note_on_c, 8, 51, 100
10, 33599, Note_on_c, 8, 51, 0
10, 33600, Note_on_c, 8, 49, 100
10, 33629, Note_on_c, 8, 49, 0
10, 33630, Note_on_c, 8, 48, 100
10, 33659, Note_on_c, 8, 48, 0
10, 33660, Note_on_c, 8, 49, 100
10, 33719, Note_on_c, 8, 49, 0
10, 33780, Note_on_c, 8, 50, 100
10, 33839, Note_on_c, 8, 50, 0
10, 33840, Note_on_c, 8, 51, 100
10, 33869, Note_on_c, 8, 51, 0
10, 33870, Note_on_c, 8, 50, 100
10, 33899, Note_on_c, 8, 50, 0
10, 33900, Note_on_c, 8, 51, 100
10, 33959, Note_on_c, 8, 51, 0
10, 34020, Note_on_c, 8, 52, 100
10, 34079, Note_on_c, 8, 52, 0
10, 34080, Note_on_c, 8, 41, 100
10, 34139, Note_on_c, 8, 41, 0
10, 34140, Note_on_c, 8, 53, 100
10, 34199, Note_on_c, 8, 53, 0
10, 34200, Note_on_c, 8, 49, 100
10, 34259, Note_on_c, 8, 49, 0
10, 34260, Note_on_c, 8, 53, 100
10, 34319, Note_on_c, 8, 53, 0
10, 34320, Note_on_c, 8, 43, 100
10, 34379, Note_on_c, 8, 43, 0
10, 34380, Note_on_c, 8, 55, 100
10, 34439, Note_on_c, 8, 55, 0
10, 34440, Note_on_c, 8, 51, 100
10, 34499, Note_on_c, 8, 51, 0
10, 34500, Note_on_c, 8, 55, 100
10, 34559, Note_on_c, 8, 55, 0
10, 34560, Note_on_c, 8, 44, 100
10, 34619, Note_on_c, 8, 44, 0
10, 34620, Note_on_c, 8, 56, 100
10, 34679, Note_on_c, 8, 56, 0
10, 34680, Note_on_c, 8, 56, 100
10, 34739, Note_on_c, 8, 56, 0
10, 34740, Note_on_c, 8, 53, 100
10, 34799, Note_on_c, 8, 53, 0
10, 34800, Note_on_c, 8, 50, 100
10, 34859, Note_on_c, 8, 50, 0
10, 34860, Note_on_c, 8, 62, 100
10, 34919, Note_on_c, 8, 62, 0
10, 34950, Note_on_c, 8, 60, 100
10, 34979, Note_on_c, 8, 60, 0
10, 34980, Note_on_c, 8, 59, 100
10, 35009, Note_on_c, 8, 59, 0
10, 35010, Note_on_c, 8, 57, 100
10, 35039, Note_on_c, 8, 57, 0
10, 35040, Note_on_c, 8, 55, 100
10, 35099, Note_on_c, 8, 55, 0
10, 35100, Note_on_c, 8, 43, 100
10, 35159, Note_on_c, 8, 43, 0
10, 35160, Note_on_c, 8, 55, 100
10, 35219, Note_on_c, 8, 55, 0
10, 35220, Note_on_c, 8, 52, 100
10, 35279, Note_on_c, 8, 52, 0
10, 35280, Note_on_c, 8, 48, 100
10, 35339, Note_on_c, 8, 48, 0
10, 35340, Note_on_c, 8, 60, 100
10, 35399, Note_on_c, 8, 60, 0
10, 35430, Note_on_c, 8, 58, 100
10, 35459, Note_on_c, 8, 58, 0
10, 35460, Note_on_c, 8, 56, 100
10, 35489, Note_on_c, 8, 56, 0
10, 35490, Note_on_c, 8, 55, 100
10, 35519, Note_on_c, 8, 55, 0
10, 35520, Note_on_c, 8, 53, 100
10, 35549, Note_on_c, 8, 53, 0
10, 35550, Note_on_c, 8, 56, 100
10, 35579, Note_on_c, 8, 56, 0
10, 35580, Note_on_c, 8, 60, 100
10, 35609, Note_on_c, 8, 60, 0
10, 35610, Note_on_c, 8, 65, 100
10, 35639, Note_on_c, 8, 65, 0
10, 35640, Note_on_c, 8, 68, 100
10, 35699, Note_on_c, 8, 68, 0
10, 35700, Note_on_c, 8, 53, 100
10, 35759, Note_on_c, 8, 53, 0
10, 35760, Note_on_c, 8, 51, 100
10, 35789, Note_on_c, 8, 51, 0
10, 35790, Note_on_c, 8, 55, 100
10, 35819, Note_on_c, 8, 55, 0
10, 35820, Note_on_c, 8, 60, 100
10, 35849, Note_on_c, 8, 60, 0
10, 35850, Note_on_c, 8, 63, 100
10, 35879, Note_on_c, 8, 63, 0
10, 35880, Note_on_c, 8, 67, 100
10, 35939, Note_on_c, 8, 67, 0
10, 35940, Note_on_c, 8, 51, 100
10, 35999, Note_on_c, 8, 51, 0
10, 36000, Note_on_c, 8, 56, 100
10, 36029, Note_on_c, 8, 56, 0
10, 36030, Note_on_c, 8, 53, 100
10, 36059, Note_on_c, 8, 53, 0
10, 36060, Note_on_c, 8, 56, 100
10, 36089, Note_on_c, 8, 56, 0
10, 36090, Note_on_c, 8, 62, 100
10, 36119, Note_on_c, 8, 62, 0
10, 36120, Note_on_c, 8, 65, 100
10, 36179, Note_on_c, 8, 65, 0
10, 36180, Note_on_c, 8, 44, 100
10, 36239, Note_on_c, 8, 44, 0
10, 36240, Note_on_c, 8, 43, 100
10, 36269, Note_on_c, 8, 43, 0
10, 36270, Note_on_c, 8, 47, 100
10, 36299, Note_on_c, 8, 47, 0
10, 36300, Note_on_c, 8, 50, 100
10, 36329, Note_on_c, 8, 50, 0
10, 36330, Note_on_c, 8, 53, 100
10, 36359, Note_on_c, 8, 53, 0
10, 36360, Note_on_c, 8, 59, 100
10, 36419, Note_on_c, 8, 59, 0
10, 38400, Note_on_c, 8, 60, 100
10, 38429, Note_on_c, 8, 60, 0
10, 38430, Note_on_c, 8, 55, 100
10, 38459, Note_on_c, 8, 55, 0
10, 38460, Note_on_c, 8, 51, 100
10, 38489, Note_on_c, 8, 51, 0
10, 38490, Note_on_c, 8, 55, 100
10, 38519, Note_on_c, 8, 55, 0
10, 38520, Note_on_c, 8, 59, 100
10, 38549, Note_on_c, 8, 59, 0
10, 38550, Note_on_c, 8, 55, 100
10, 38579, Note_on_c, 8, 55, 0
10, 38580, Note_on_c, 8, 50, 100
10, 38609, Note_on_c, 8, 50, 0
10, 38610, Note_on_c, 8, 55, 100
10, 38639, Note_on_c, 8, 55, 0
10, 38640, Note_on_c, 8, 60, 100
10, 38669, Note_on_c, 8, 60, 0
10, 38670, Note_on_c, 8, 59, 100
10, 38699, Note_on_c, 8, 59, 0
10, 38700, Note_on_c, 8, 60, 100
10, 38729, Note_on_c, 8, 60, 0
10, 38730, Note_on_c, 8, 62, 100
10, 38759, Note_on_c, 8, 62, 0
10, 38760, Note_on_c, 8, 63, 100
10, 38789, Note_on_c, 8, 63, 0
10, 38790, Note_on_c, 8, 64, 100
10, 38819, Note_on_c, 8, 64, 0
10, 38820, Note_on_c, 8, 65, 100
10, 38849, Note_on_c, 8, 65, 0
10, 38850, Note_on_c, 8, 67, 100
10, 38879, Note_on_c, 8, 67, 0
10, 38880, Note_on_c, 8, 65, 100
10, 38909, Note_on_c, 8, 65, 0
10, 38910, Note_on_c, 8, 60, 100
10, 38939, Note_on_c, 8, 60, 0
10, 38940, Note_on_c, 8, 56, 100
10, 38969, Note_on_c, 8, 56, 0
10, 38970, Note_on_c, 8, 60, 100
10, 38999, Note_on_c, 8, 60, 0
10, 39000, Note_on_c, 8, 64, 100
10, 39029, Note_on_c, 8, 64, 0
10, 39030, Note_on_c, 8, 60, 100
10, 39059, Note_on_c, 8, 60, 0
10, 39060, Note_on_c, 8, 55, 100
10, 39089, Note_on_c, 8, 55, 0
10, 39090, Note_on_c, 8, 60, 100
10, 39119, Note_on_c, 8, 60, 0
10, 39120, Note_on_c, 8, 65, 100
10, 39149, Note_on_c, 8, 65, 0
10, 39150, Note_on_c, 8, 64, 100
10, 39179, Note_on_c, 8, 64, 0
10, 39180, Note_on_c, 8, 65, 100
10, 39209, Note_on_c, 8, 65, 0
10, 39210, Note_on_c, 8, 67, 100
10, 39239, Note_on_c, 8, 67, 0
10, 39240, Note_on_c, 8, 68, 100
10, 39299, Note_on_c, 8, 68, 0
10, 39300, Note_on_c, 8, 65, 100
10, 39420, Note_on_c, 8, 65, 0
10, 39420, Note_on_c, 8, 58, 100
10, 39539, Note_on_c, 8, 58, 0
10, 39540, Note_on_c, 8, 63, 100
10, 39659, Note_on_c, 8, 63, 0
10, 39660, Note_on_c, 8, 56, 100
10, 39779, Note_on_c, 8, 56, 0
10, 39780, Note_on_c, 8, 62, 100
10, 39899, Note_on_c, 8, 62, 0
10, 39900, Note_on_c, 8, 55, 100
10, 40019, Note_on_c, 8, 55, 0
10, 40020, Note_on_c, 8, 60, 100
10, 40079, Note_on_c, 8, 60, 0
10, 40080, Note_on_c, 8, 55, 100
10, 40109, Note_on_c, 8, 55, 0
10, 40110, Note_on_c, 8, 54, 100
10, 40139, Note_on_c, 8, 54, 0
10, 40140, Note_on_c, 8, 55, 100
10, 40169, Note_on_c, 8, 55, 0
10, 40170, Note_on_c, 8, 57, 100
10, 40199, Note_on_c, 8, 57, 0
10, 40200, Note_on_c, 8, 59, 100
10, 40229, Note_on_c, 8, 59, 0
10, 40230, Note_on_c, 8, 62, 100
10, 40259, Note_on_c, 8, 62, 0
10, 40260, Note_on_c, 8, 60, 100
10, 40289, Note_on_c, 8, 60, 0
10, 40290, Note_on_c, 8, 59, 100
10, 40319, Note_on_c, 8, 59, 0
10, 40320, Note_on_c, 8, 60, 100
10, 40379, Note_on_c, 8, 60, 0
10, 40380, Note_on_c, 8, 48, 100
10, 40409, Note_on_c, 8, 48, 0
10, 40410, Note_on_c, 8, 50, 100
10, 40439, Note_on_c, 8, 50, 0
10, 40440, Note_on_c, 8, 51, 100
10, 40469, Note_on_c, 8, 51, 0
10, 40470, Note_on_c, 8, 50, 100
10, 40499, Note_on_c, 8, 50, 0
10, 40500, Note_on_c, 8, 51, 100
10, 40529, Note_on_c, 8, 51, 0
10, 40530, Note_on_c, 8, 53, 100
10, 40559, Note_on_c, 8, 53, 0
10, 40560, Note_on_c, 8, 55, 100
10, 40589, Note_on_c, 8, 55, 0
10, 40590, Note_on_c, 8, 53, 100
10, 40619, Note_on_c, 8, 53, 0
10, 40620, Note_on_c, 8, 55, 100
10, 40649, Note_on_c, 8, 55, 0
10, 40650, Note_on_c, 8, 56, 100
10, 40679, Note_on_c, 8, 56, 0
10, 40680, Note_on_c, 8, 55, 100
10, 40709, Note_on_c, 8, 55, 0
10, 40710, Note_on_c, 8, 53, 100
10, 40739, Note_on_c, 8, 53, 0
10, 40740, Note_on_c, 8, 52, 100
10, 40769, Note_on_c, 8, 52, 0
10, 40770, Note_on_c, 8, 50, 100
10, 40799, Note_on_c, 8, 50, 0
10, 40800, Note_on_c, 8, 48, 100
10, 40829, Note_on_c, 8, 48, 0
10, 40830, Note_on_c, 8, 47, 100
10, 40859, Note_on_c, 8, 47, 0
10, 40860, Note_on_c, 8, 48, 100
10, 40889, Note_on_c, 8, 48, 0
10, 40890, Note_on_c, 8, 50, 100
10, 40919, Note_on_c, 8, 50, 0
10, 40920, Note_on_c, 8, 48, 100
10, 40949, Note_on_c, 8, 48, 0
10, 40950, Note_on_c, 8, 46, 100
10, 40979, Note_on_c, 8, 46, 0
10, 40980, Note_on_c, 8, 45, 100
10, 41009, Note_on_c, 8, 45, 0
10, 41010, Note_on_c, 8, 43, 100
10, 41039, Note_on_c, 8, 43, 0
10, 41040, Note_on_c, 8, 41, 100
10, 41069, Note_on_c, 8, 41, 0
10, 41070, Note_on_c, 8, 40, 100
10, 41099, Note_on_c, 8, 40, 0
10, 41100, Note_on_c, 8, 41, 100
10, 41129, Note_on_c, 8, 41, 0
10, 41130, Note_on_c, 8, 43, 100
10, 41159, Note_on_c, 8, 43, 0
10, 41160, Note_on_c, 8, 41, 100
10, 41189, Note_on_c, 8, 41, 0
10, 41190, Note_on_c, 8, 39, 100
10, 41219, Note_on_c, 8, 39, 0
10, 41220, Note_on_c, 8, 38, 100
10, 41249, Note_on_c, 8, 38, 0
10, 41250, Note_on_c, 8, 36, 100
10, 41279, Note_on_c, 8, 36, 0
10, 41280, Note_on_c, 8, 47, 100
10, 41399, Note_on_c, 8, 47, 0
10, 41460, Note_on_c, 8, 53, 100
10, 41579, Note_on_c, 8, 53, 0
10, 41580, Note_on_c, 8, 51, 100
10, 41609, Note_on_c, 8, 51, 0
10, 41610, Note_on_c, 8, 50, 100
10, 41639, Note_on_c, 8, 50, 0
10, 41640, Note_on_c, 8, 51, 100
10, 41699, Note_on_c, 8, 51, 0
10, 41700, Note_on_c, 8, 56, 100
10, 41759, Note_on_c, 8, 56, 0
10, 41760, Note_on_c, 8, 55, 100
10, 41819, Note_on_c, 8, 55, 0
10, 41820, Note_on_c, 8, 53, 100
10, 41879, Note_on_c, 8, 53, 0
10, 41880, Note_on_c, 8, 55, 100
10, 41939, Note_on_c, 8, 55, 0
10, 41940, Note_on_c, 8, 43, 100
10, 41999, Note_on_c, 8, 43, 0
10, 42000, Note_on_c, 8, 36, 100
10, 42239, Note_on_c, 8, 36, 0
10, 42720, Note_on_c, 8, 51, 100
10, 42840, Note_on_c, 8, 51, 0
10, 42840, Note_on_c, 8, 39, 100
10, 42900, Note_on_c, 8, 39, 0
10, 42900, Note_on_c, 8, 41, 100
10, 43020, Note_on_c, 8, 41, 0
10, 43020, Note_on_c, 8, 53, 100
10, 43080, Note_on_c, 8, 53, 0
10, 43080, Note_on_c, 8, 55, 100
10, 43200, Note_on_c, 8, 55, 0
10, 43200, Note_on_c, 8, 43, 100
10, 43260, Note_on_c, 8, 43, 0
10, 43260, Note_on_c, 8, 44, 100
10, 43380, Note_on_c, 8, 44, 0
10, 43380, Note_on_c, 8, 56, 100
10, 43440, Note_on_c, 8, 56, 0
10, 43440, Note_on_c, 8, 56, 100
10, 43560, Note_on_c, 8, 56, 0
10, 43560, Note_on_c, 8, 55, 100
10, 43620, Note_on_c, 8, 55, 0
10, 43620, Note_on_c, 8, 53, 100
10, 43740, Note_on_c, 8, 53, 0
10, 43740, Note_on_c, 8, 58, 100
10, 43800, Note_on_c, 8, 58, 0
10, 43800, Note_on_c, 8, 51, 100
10, 43920, Note_on_c, 8, 51, 0
10, 43920, Note_on_c, 8, 55, 100
10, 43980, Note_on_c, 8, 55, 0
10, 43980, Note_on_c, 8, 48, 100
10, 44100, Note_on_c, 8, 48, 0
10, 44100, Note_on_c, 8, 53, 100
10, 44160, Note_on_c, 8, 53, 0
10, 44160, Note_on_c, 8, 46, 100
10, 44280, Note_on_c, 8, 46, 0
10, 44280, Note_on_c, 8, 58, 100
10, 44340, Note_on_c, 8, 58, 0
10, 44340, Note_on_c, 8, 60, 100
10, 44460, Note_on_c, 8, 60, 0
10, 44460, Note_on_c, 8, 48, 100
10, 44520, Note_on_c, 8, 48, 0
10, 44520, Note_on_c, 8, 50, 100
10, 44640, Note_on_c, 8, 50, 0
10, 44640, Note_on_c, 8, 62, 100
10, 44700, Note_on_c, 8, 62, 0
10, 44700, Note_on_c, 8, 63, 100
10, 44820, Note_on_c, 8, 63, 0
10, 44820, Note_on_c, 8, 51, 100
10, 44880, Note_on_c, 8, 51, 0
10, 44880, Note_on_c, 8, 51, 100
10, 45000, Note_on_c, 8, 51, 0
10, 45000, Note_on_c, 8, 50, 100
10, 45060, Note_on_c, 8, 50, 0
10, 45060, Note_on_c, 8, 48, 100
10, 45180, Note_on_c, 8, 48, 0
10, 45180, Note_on_c, 8, 53, 100
10, 45240, Note_on_c, 8, 53, 0
10, 45240, Note_on_c, 8, 46, 100
10, 45360, Note_on_c, 8, 46, 0
10, 45360, Note_on_c, 8, 44, 100
10, 45420, Note_on_c, 8, 44, 0
10, 45420, Note_on_c, 8, 43, 100
10, 45540, Note_on_c, 8, 43, 0
10, 45540, Note_on_c, 8, 39, 100
10, 45600, Note_on_c, 8, 39, 0
10, 45600, Note_on_c, 8, 44, 100
10, 45720, Note_on_c, 8, 44, 0
10, 45720, Note_on_c, 8, 43, 100
10, 45780, Note_on_c, 8, 43, 0
10, 45780, Note_on_c, 8, 41, 100
10, 45900, Note_on_c, 8, 41, 0
10, 45900, Note_on_c, 8, 38, 100
10, 45960, Note_on_c, 8, 38, 0
10, 45960, Note_on_c, 8, 43, 100
10, 46080, Note_on_c, 8, 43, 0
10, 46080, Note_on_c, 8, 41, 100
10, 46140, Note_on_c, 8, 41, 0
10, 46140, Note_on_c, 8, 39, 100
10, 46260, Note_on_c, 8, 39, 0
10, 46260, Note_on_c, 8, 36, 100
10, 46320, Note_on_c, 8, 36, 0
10, 46320, Note_on_c, 8, 41, 100
10, 46440, Note_on_c, 8, 41, 0
10, 46440, Note_on_c, 8, 39, 100
10, 46500, Note_on_c, 8, 39, 0
10, 46500, Note_on_c, 8, 38, 100
10, 46620, Note_on_c, 8, 38, 0
10, 46620, Note_on_c, 8, 46, 100
10, 46680, Note_on_c, 8, 46, 0
10, 46680, Note_on_c, 8, 39, 100
10, 46800, Note_on_c, 8, 39, 0
10, 46800, Note_on_c, 8, 44, 100
10, 46860, Note_on_c, 8, 44, 0
10, 46860, Note_on_c, 8, 38, 100
10, 46980, Note_on_c, 8, 38, 0
10, 46980, Note_on_c, 8, 43, 100
10, 47040, Note_on_c, 8, 43, 0
10, 47040, Note_on_c, 8, 36, 100
10, 47160, Note_on_c, 8, 36, 0
10, 47160, Note_on_c, 8, 48, 100
10, 47220, Note_on_c, 8, 48, 0
10, 47220, Note_on_c, 8, 50, 100
10, 47340, Note_on_c, 8, 50, 0
10, 47340, Note_on_c, 8, 38, 100
10, 47400, Note_on_c, 8, 38, 0
10, 47400, Note_on_c, 8, 39, 100
10, 47520, Note_on_c, 8, 39, 0
10, 47520, Note_on_c, 8, 51, 100
10, 47580, Note_on_c, 8, 51, 0
10, 47580, Note_on_c, 8, 53, 100
10, 47700, Note_on_c, 8, 53, 0
10, 47700, Note_on_c, 8, 41, 100
10, 47760, Note_on_c, 8, 41, 0
10, 47760, Note_on_c, 8, 41, 100
10, 47880, Note_on_c, 8, 41, 0
10, 47880, Note_on_c, 8, 39, 100
10, 47940, Note_on_c, 8, 39, 0
10, 47940, Note_on_c, 8, 38, 100
10, 48060, Note_on_c, 8, 38, 0
10, 48060, Note_on_c, 8, 43, 100
10, 48120, Note_on_c, 8, 43, 0
10, 48120, Note_on_c, 8, 36, 100
10, 48240, Note_on_c, 8, 36, 0
10, 48240, Note_on_c, 8, 48, 100
10, 48300, Note_on_c, 8, 48, 0
10, 48300, Note_on_c, 8, 40, 100
10, 48420, Note_on_c, 8, 40, 0
10, 48420, Note_on_c, 8, 36, 100
10, 48480, Note_on_c, 8, 36, 0
10, 48480, Note_on_c, 8, 41, 100
10, 48600, Note_on_c, 8, 41, 0
10, 48600, Note_on_c, 8, 49, 100
10, 48660, Note_on_c, 8, 49, 0
10, 48660, Note_on_c, 8, 41, 100
10, 48780, Note_on_c, 8, 41, 0
10, 48780, Note_on_c, 8, 37, 100
10, 48840, Note_on_c, 8, 37, 0
10, 48840, Note_on_c, 8, 43, 100
10, 48960, Note_on_c, 8, 43, 0
10, 48960, Note_on_c, 8, 51, 100
10, 49020, Note_on_c, 8, 51, 0
10, 49020, Note_on_c, 8, 43, 100
10, 49140, Note_on_c, 8, 43, 0
10, 49140, Note_on_c, 8, 39, 100
10, 49200, Note_on_c, 8, 39, 0
10, 49200, Note_on_c, 8, 56, 100
10, 49320, Note_on_c, 8, 56, 0
10, 49320, Note_on_c, 8, 44, 100
10, 49380, Note_on_c, 8, 44, 0
10, 49380, Note_on_c, 8, 46, 100
10, 49500, Note_on_c, 8, 46, 0
10, 49500, Note_on_c, 8, 58, 100
10, 49560, Note_on_c, 8, 58, 0
10, 49560, Note_on_c, 8, 60, 100
10, 49680, Note_on_c, 8, 60, 0
10, 49680, Note_on_c, 8, 48, 100
10, 49740, Note_on_c, 8, 48, 0
10, 49740, Note_on_c, 8, 49, 100
10, 49860, Note_on_c, 8, 49, 0
10, 49860, Note_on_c, 8, 61, 100
10, 49920, Note_on_c, 8, 61, 0
10, 49920, Note_on_c, 8, 61, 100
10, 50040, Note_on_c, 8, 61, 0
10, 50040, Note_on_c, 8, 60, 100
10, 50100, Note_on_c, 8, 60, 0
10, 50100, Note_on_c, 8, 58, 100
10, 50220, Note_on_c, 8, 58, 0
10, 50220, Note_on_c, 8, 51, 100
10, 50280, Note_on_c, 8, 51, 0
10, 50280, Note_on_c, 8, 56, 100
10, 50400, Note_on_c, 8, 56, 0
10, 50400, Note_on_c, 8, 60, 100
10, 50460, Note_on_c, 8, 60, 0
10, 50460, Note_on_c, 8, 53, 100
10, 50580, Note_on_c, 8, 53, 0
10, 50580, Note_on_c, 8, 46, 100
10, 50640, Note_on_c, 8, 46, 0
10, 50640, Note_on_c, 8, 39, 100
10, 50759, Note_on_c, 8, 39, 0
10, 50760, Note_on_c, 8, 51, 100
10, 50819, Note_on_c, 8, 51, 0
10, 50820, Note_on_c, 8, 53, 100
10, 50939, Note_on_c, 8, 53, 0
10, 50940, Note_on_c, 8, 41, 100
10, 50999, Note_on_c, 8, 41, 0
10, 51000, Note_on_c, 8, 43, 100
10, 51119, Note_on_c, 8, 43, 0
10, 51120, Note_on_c, 8, 55, 100
10, 51179, Note_on_c, 8, 55, 0
10, 51180, Note_on_c, 8, 56, 100
10, 51299, Note_on_c, 8, 56, 0
10, 51300, Note_on_c, 8, 44, 100
10, 51359, Note_on_c, 8, 44, 0
10, 51360, Note_on_c, 8, 44, 100
10, 51479, Note_on_c, 8, 44, 0
10, 51480, Note_on_c, 8, 43, 100
10, 51539, Note_on_c, 8, 43, 0
10, 51540, Note_on_c, 8, 41, 100
10, 51659, Note_on_c, 8, 41, 0
10, 51660, Note_on_c, 8, 46, 100
10, 51719, Note_on_c, 8, 46, 0
10, 51720, Note_on_c, 8, 39, 100
10, 51839, Note_on_c, 8, 39, 0
10, 51840, Note_on_c, 8, 41, 100
10, 51899, Note_on_c, 8, 41, 0
10, 51900, Note_on_c, 8, 43, 100
10, 52019, Note_on_c, 8, 43, 0
10, 52020, Note_on_c, 8, 39, 100
10, 52079, Note_on_c, 8, 39, 0
10, 52080, Note_on_c, 8, 44, 100
10, 52199, Note_on_c, 8, 44, 0
10, 52200, Note_on_c, 8, 43, 100
10, 52259, Note_on_c, 8, 43, 0
10, 52260, Note_on_c, 8, 41, 100
10, 52379, Note_on_c, 8, 41, 0
10, 52380, Note_on_c, 8, 38, 100
10, 52439, Note_on_c, 8, 38, 0
10, 52440, Note_on_c, 8, 43, 100
10, 52559, Note_on_c, 8, 43, 0
10, 52560, Note_on_c, 8, 41, 100
10, 52619, Note_on_c, 8, 41, 0
10, 52620, Note_on_c, 8, 39, 100
10, 52739, Note_on_c, 8, 39, 0
10, 52740, Note_on_c, 8, 36, 100
10, 52799, Note_on_c, 8, 36, 0
10, 52800, Note_on_c, 8, 41, 100
10, 52919, Note_on_c, 8, 41, 0
10, 52920, Note_on_c, 8, 39, 100
10, 52979, Note_on_c, 8, 39, 0
10, 52980, Note_on_c, 8, 38, 100
10, 53099, Note_on_c, 8, 38, 0
10, 53100, Note_on_c, 8, 46, 100
10, 53159, Note_on_c, 8, 46, 0
10, 53160, Note_on_c, 8, 51, 100
10, 53279, Note_on_c, 8, 51, 0
10, 53280, Note_on_c, 8, 48, 100
10, 53339, Note_on_c, 8, 48, 0
10, 53340, Note_on_c, 8, 46, 100
10, 53459, Note_on_c, 8, 46, 0
10, 53460, Note_on_c, 8, 46, 100
10, 53519, Note_on_c, 8, 46, 0
10, 53520, Note_on_c, 8, 39, 100
10, 53639, Note_on_c, 8, 39, 0
10, 53640, Note_on_c, 8, 51, 100
10, 53699, Note_on_c, 8, 51, 0
10, 53700, Note_on_c, 8, 51, 100
10, 53819, Note_on_c, 8, 51, 0
10, 53820, Note_on_c, 8, 39, 100
10, 53879, Note_on_c, 8, 39, 0
10, 53880, Note_on_c, 8, 39, 100
10, 53999, Note_on_c, 8, 39, 0
10, 54000, Note_on_c, 8, 51, 100
10, 54059, Note_on_c, 8, 51, 0
10, 54060, Note_on_c, 8, 51, 100
10, 54179, Note_on_c, 8, 51, 0
10, 54180, Note_on_c, 8, 39, 100
10, 54239, Note_on_c, 8, 39, 0
10, 54240, Note_on_c, 8, 39, 100
10, 54359, Note_on_c, 8, 39, 0
10, 54420, Note_on_c, 8, 51, 100
10, 54539, Note_on_c, 8, 51, 0
10, 54600, Note_on_c, 8, 39, 100
10, 54719, Note_on_c, 8, 39, 0
10, 54780, Note_on_c, 8, 51, 100
10, 54899, Note_on_c, 8, 51, 0
10, 54960, Note_on_c, 8, 39, 100
10, 55079, Note_on_c, 8, 39, 0
10, 55140, Note_on_c, 8, 51, 100
10, 55259, Note_on_c, 8, 51, 0
10, 55320, Note_on_c, 8, 39, 100
10, 55379, Note_on_c, 8, 39, 0
10, 55380, Note_on_c, 8, 41, 100
10, 55439, Note_on_c, 8, 41, 0
10, 55440, Note_on_c, 8, 43, 100
10, 55499, Note_on_c, 8, 43, 0
10, 55500, Note_on_c, 8, 36, 100
10, 55619, Note_on_c, 8, 36, 0
10, 55620, Note_on_c, 8, 41, 100
10, 55679, Note_on_c, 8, 41, 0
10, 55680, Note_on_c, 8, 46, 100
10, 55799, Note_on_c, 8, 46, 0
10, 55800, Note_on_c, 8, 48, 100
10, 55859, Note_on_c, 8, 48, 0
10, 55860, Note_on_c, 8, 50, 100
10, 55979, Note_on_c, 8, 50, 0
10, 55980, Note_on_c, 8, 46, 100
10, 56039, Note_on_c, 8, 46, 0
10, 56040, Note_on_c, 8, 51, 100
10, 56159, Note_on_c, 8, 51, 0
10, 56160, Note_on_c, 8, 50, 100
10, 56219, Note_on_c, 8, 50, 0
10, 56220, Note_on_c, 8, 48, 100
10, 56339, Note_on_c, 8, 48, 0
10, 56340, Note_on_c, 8, 45, 100
10, 56399, Note_on_c, 8, 45, 0
10, 56400, Note_on_c, 8, 50, 100
10, 56519, Note_on_c, 8, 50, 0
10, 56520, Note_on_c, 8, 48, 100
10, 56579, Note_on_c, 8, 48, 0
10, 56580, Note_on_c, 8, 46, 100
10, 56699, Note_on_c, 8, 46, 0
10, 56700, Note_on_c, 8, 43, 100
10, 56759, Note_on_c, 8, 43, 0
10, 56760, Note_on_c, 8, 48, 100
10, 56879, Note_on_c, 8, 48, 0
10, 56880, Note_on_c, 8, 46, 100
10, 56939, Note_on_c, 8, 46, 0
10, 56940, Note_on_c, 8, 45, 100
10, 57059, Note_on_c, 8, 45, 0
10, 57060, Note_on_c, 8, 41, 100
10, 57119, Note_on_c, 8, 41, 0
10, 57120, Note_on_c, 8, 58, 100
10, 57239, Note_on_c, 8, 58, 0
10, 57240, Note_on_c, 8, 46, 100
10, 57300, Note_on_c, 8, 46, 0
10, 57300, Note_on_c, 8, 46, 100
10, 57419, Note_on_c, 8, 46, 0
10, 57420, Note_on_c, 8, 58, 100
10, 57480, Note_on_c, 8, 58, 0
10, 57480, Note_on_c, 8, 58, 100
10, 57599, Note_on_c, 8, 58, 0
10, 57600, Note_on_c, 8, 46, 100
10, 57660, Note_on_c, 8, 46, 0
10, 57660, Note_on_c, 8, 46, 100
10, 57779, Note_on_c, 8, 46, 0
10, 57780, Note_on_c, 8, 58, 100
10, 57840, Note_on_c, 8, 58, 0
10, 57840, Note_on_c, 8, 58, 100
10, 57959, Note_on_c, 8, 58, 0
10, 58020, Note_on_c, 8, 46, 100
10, 58139, Note_on_c, 8, 46, 0
10, 58200, Note_on_c, 8, 58, 100
10, 58319, Note_on_c, 8, 58, 0
10, 58380, Note_on_c, 8, 46, 100
10, 58499, Note_on_c, 8, 46, 0
10, 58560, Note_on_c, 8, 58, 100
10, 58679, Note_on_c, 8, 58, 0
10, 58740, Note_on_c, 8, 46, 100
10, 58859, Note_on_c, 8, 46, 0
10, 58920, Note_on_c, 8, 58, 100
10, 58979, Note_on_c, 8, 58, 0
10, 58980, Note_on_c, 8, 60, 100
10, 59039, Note_on_c, 8, 60, 0
10, 59040, Note_on_c, 8, 62, 100
10, 59099, Note_on_c, 8, 62, 0
10, 59100, Note_on_c, 8, 55, 100
10, 59219, Note_on_c, 8, 55, 0
10, 59220, Note_on_c, 8, 60, 100
10, 59279, Note_on_c, 8, 60, 0
10, 59280, Note_on_c, 8, 53, 100
10, 59339, Note_on_c, 8, 53, 0
10, 59340, Note_on_c, 8, 60, 100
10, 59399, Note_on_c, 8, 60, 0
10, 59400, Note_on_c, 8, 63, 100
10, 59459, Note_on_c, 8, 63, 0
10, 59460, Note_on_c, 8, 62, 100
10, 59519, Note_on_c, 8, 62, 0
10, 59520, Note_on_c, 8, 58, 100
10, 59579, Note_on_c, 8, 58, 0
10, 59580, Note_on_c, 8, 53, 100
10, 59639, Note_on_c, 8, 53, 0
10, 59640, Note_on_c, 8, 57, 100
10, 59699, Note_on_c, 8, 57, 0
10, 59700, Note_on_c, 8, 53, 100
10, 59759, Note_on_c, 8, 53, 0
10, 59760, Note_on_c, 8, 48, 100
10, 59819, Note_on_c, 8, 48, 0
10, 59820, Note_on_c, 8, 58, 100
10, 59879, Note_on_c, 8, 58, 0
10, 59880, Note_on_c, 8, 53, 100
10, 59939, Note_on_c, 8, 53, 0
10, 59940, Note_on_c, 8, 46, 100
10, 59999, Note_on_c, 8, 46, 0
10, 60000, Note_on_c, 8, 53, 100
10, 60119, Note_on_c, 8, 53, 0
10, 60300, Note_on_c, 8, 54, 100
10, 60359, Note_on_c, 8, 54, 0
10, 60360, Note_on_c, 8, 55, 100
10, 60419, Note_on_c, 8, 55, 0
10, 60420, Note_on_c, 8, 58, 100
10, 60479, Note_on_c, 8, 58, 0
10, 60480, Note_on_c, 8, 62, 100
10, 60539, Note_on_c, 8, 62, 0
10, 60540, Note_on_c, 8, 55, 100
10, 60659, Note_on_c, 8, 55, 0
10, 60660, Note_on_c, 8, 63, 100
10, 60719, Note_on_c, 8, 63, 0
10, 60720, Note_on_c, 8, 57, 100
10, 60839, Note_on_c, 8, 57, 0
10, 61020, Note_on_c, 8, 53, 100
10, 61079, Note_on_c, 8, 53, 0
10, 61080, Note_on_c, 8, 46, 100
10, 61139, Note_on_c, 8, 46, 0
10, 61140, Note_on_c, 8, 58, 100
10, 61199, Note_on_c, 8, 58, 0
10, 61200, Note_on_c, 8, 56, 100
10, 61259, Note_on_c, 8, 56, 0
10, 61260, Note_on_c, 8, 55, 100
10, 61319, Note_on_c, 8, 55, 0
10, 61320, Note_on_c, 8, 58, 100
10, 61379, Note_on_c, 8, 58, 0
10, 61380, Note_on_c, 8, 63, 100
10, 61439, Note_on_c, 8, 63, 0
10, 61440, Note_on_c, 8, 53, 100
10, 61499, Note_on_c, 8, 53, 0
10, 61500, Note_on_c, 8, 56, 100
10, 61559, Note_on_c, 8, 56, 0
10, 61560, Note_on_c, 8, 62, 100
10, 61619, Note_on_c, 8, 62, 0
10, 61620, Note_on_c, 8, 51, 100
10, 61679, Note_on_c, 8, 51, 0
10, 61680, Note_on_c, 8, 58, 100
10, 61739, Note_on_c, 8, 58, 0
10, 61740, Note_on_c, 8, 63, 100
10, 61799, Note_on_c, 8, 63, 0
10, 61800, Note_on_c, 8, 58, 100
10, 61859, Note_on_c, 8, 58, 0
10, 61860, Note_on_c, 8, 62, 100
10, 61919, Note_on_c, 8, 62, 0
10, 61920, Note_on_c, 8, 65, 100
10, 61979, Note_on_c, 8, 65, 0
10, 61980, Note_on_c, 8, 59, 100
10, 62099, Note_on_c, 8, 59, 0
10, 62100, Note_on_c, 8, 67, 100
10, 62159, Note_on_c, 8, 67, 0
10, 62160, Note_on_c, 8, 60, 100
10, 62340, Note_on_c, 8, 60, 0
10, 62460, Note_on_c, 8, 60, 100
10, 62519, Note_on_c, 8, 60, 0
10, 62520, Note_on_c, 8, 62, 100
10, 62579, Note_on_c, 8, 62, 0
10, 62580, Note_on_c, 8, 65, 100
10, 62639, Note_on_c, 8, 65, 0
10, 62640, Note_on_c, 8, 68, 100
10, 62699, Note_on_c, 8, 68, 0
10, 62700, Note_on_c, 8, 62, 100
10, 62819, Note_on_c, 8, 62, 0
10, 62820, Note_on_c, 8, 58, 100
10, 62879, Note_on_c, 8, 58, 0
10, 62880, Note_on_c, 8, 51, 100
10, 62939, Note_on_c, 8, 51, 0
10, 62940, Note_on_c, 8, 55, 100
10, 62999, Note_on_c, 8, 55, 0
10, 63000, Note_on_c, 8, 58, 100
10, 63059, Note_on_c, 8, 58, 0
10, 63060, Note_on_c, 8, 55, 100
10, 63119, Note_on_c, 8, 55, 0
10, 63120, Note_on_c, 8, 51, 100
10, 63179, Note_on_c, 8, 51, 0
10, 63180, Note_on_c, 8, 49, 100
10, 63239, Note_on_c, 8, 49, 0
10, 63240, Note_on_c, 8, 48, 100
10, 63299, Note_on_c, 8, 48, 0
10, 63300, Note_on_c, 8, 52, 100
10, 63359, Note_on_c, 8, 52, 0
10, 63360, Note_on_c, 8, 55, 100
10, 63419, Note_on_c, 8, 55, 0
10, 63420, Note_on_c, 8, 52, 100
10, 63479, Note_on_c, 8, 52, 0
10, 63480, Note_on_c, 8, 48, 100
10, 63539, Note_on_c, 8, 48, 0
10, 63540, Note_on_c, 8, 60, 100
10, 63599, Note_on_c, 8, 60, 0
10, 63600, Note_on_c, 8, 65, 100
10, 63719, Note_on_c, 8, 65, 0
10, 63720, Note_on_c, 8, 53, 100
10, 63779, Note_on_c, 8, 53, 0
10, 63780, Note_on_c, 8, 51, 100
10, 63899, Note_on_c, 8, 51, 0
10, 63900, Note_on_c, 8, 63, 100
10, 63959, Note_on_c, 8, 63, 0
10, 63960, Note_on_c, 8, 62, 100
10, 64079, Note_on_c, 8, 62, 0
10, 64080, Note_on_c, 8, 50, 100
10, 64139, Note_on_c, 8, 50, 0
10, 64140, Note_on_c, 8, 50, 100
10, 64259, Note_on_c, 8, 50, 0
10, 64260, Note_on_c, 8, 62, 100
10, 64319, Note_on_c, 8, 62, 0
10, 64320, Note_on_c, 8, 55, 100
10, 64439, Note_on_c, 8, 55, 0
10, 64440, Note_on_c, 8, 43, 100
10, 64499, Note_on_c, 8, 43, 0
10, 64500, Note_on_c, 8, 45, 100
10, 64619, Note_on_c, 8, 45, 0
10, 64620, Note_on_c, 8, 57, 100
10, 64679, Note_on_c, 8, 57, 0
10, 64680, Note_on_c, 8, 58, 100
10, 64799, Note_on_c, 8, 58, 0
10, 64800, Note_on_c, 8, 46, 100
10, 64859, Note_on_c, 8, 46, 0
10, 64860, Note_on_c, 8, 48, 100
10, 64979, Note_on_c, 8, 48, 0
10, 64980, Note_on_c, 8, 60, 100
10, 65039, Note_on_c, 8, 60, 0
10, 65040, Note_on_c, 8, 60, 100
10, 65159, Note_on_c, 8, 60, 0
10, 65160, Note_on_c, 8, 58, 100
10, 65219, Note_on_c, 8, 58, 0
10, 65220, Note_on_c, 8, 57, 100
10, 65339, Note_on_c, 8, 57, 0
10, 65340, Note_on_c, 8, 50, 100
10, 65399, Note_on_c, 8, 50, 0
10, 65400, Note_on_c, 8, 55, 100
10, 65519, Note_on_c, 8, 55, 0
10, 65520, Note_on_c, 8, 51, 100
10, 65579, Note_on_c, 8, 51, 0
10, 65580, Note_on_c, 8, 50, 100
10, 65699, Note_on_c, 8, 50, 0
10, 65700, Note_on_c, 8, 43, 100
10, 65759, Note_on_c, 8, 43, 0
10, 65760, Note_on_c, 8, 48, 100
10, 65879, Note_on_c, 8, 48, 0
10, 65880, Note_on_c, 8, 60, 100
10, 65939, Note_on_c, 8, 60, 0
10, 65940, Note_on_c, 8, 62, 100
10, 66059, Note_on_c, 8, 62, 0
10, 66060, Note_on_c, 8, 50, 100
10, 66119, Note_on_c, 8, 50, 0
10, 66120, Note_on_c, 8, 51, 100
10, 66239, Note_on_c, 8, 51, 0
10, 66240, Note_on_c, 8, 39, 100
10, 66299, Note_on_c, 8, 39, 0
10, 66300, Note_on_c, 8, 41, 100
10, 66419, Note_on_c, 8, 41, 0
10, 66420, Note_on_c, 8, 53, 100
10, 66479, Note_on_c, 8, 53, 0
10, 66480, Note_on_c, 8, 53, 100
10, 66599, Note_on_c, 8, 53, 0
10, 66600, Note_on_c, 8, 51, 100
10, 66659, Note_on_c, 8, 51, 0
10, 66660, Note_on_c, 8, 50, 100
10, 66779, Note_on_c, 8, 50, 0
10, 66780, Note_on_c, 8, 43, 100
10, 66839, Note_on_c, 8, 43, 0
10, 66840, Note_on_c, 8, 36, 100
10, 66959, Note_on_c, 8, 36, 0
10, 66960, Note_on_c, 8, 48, 100
10, 67019, Note_on_c, 8, 48, 0
10, 67020, Note_on_c, 8, 48, 100
10, 67139, Note_on_c, 8, 48, 0
10, 67140, Note_on_c, 8, 36, 100
10, 67199, Note_on_c, 8, 36, 0
10, 67200, Note_on_c, 8, 36, 100
10, 67319, Note_on_c, 8, 36, 0
10, 67320, Note_on_c, 8, 48, 100
10, 67379, Note_on_c, 8, 48, 0
10, 67380, Note_on_c, 8, 48, 100
10, 67499, Note_on_c, 8, 48, 0
10, 67500, Note_on_c, 8, 36, 100
10, 67559, Note_on_c, 8, 36, 0
10, 67560, Note_on_c, 8, 36, 100
10, 67679, Note_on_c, 8, 36, 0
10, 67860, Note_on_c, 8, 52, 100
10, 67919, Note_on_c, 8, 52, 0
10, 67920, Note_on_c, 8, 53, 100
10, 67979, Note_on_c, 8, 53, 0
10, 67980, Note_on_c, 8, 56, 100
10, 68039, Note_on_c, 8, 56, 0
10, 68040, Note_on_c, 8, 60, 100
10, 68099, Note_on_c, 8, 60, 0
10, 68100, Note_on_c, 8, 53, 100
10, 68219, Note_on_c, 8, 53, 0
10, 68220, Note_on_c, 8, 61, 100
10, 68279, Note_on_c, 8, 61, 0
10, 68280, Note_on_c, 8, 55, 100
10, 68399, Note_on_c, 8, 55, 0
10, 68580, Note_on_c, 8, 55, 100
10, 68639, Note_on_c, 8, 55, 0
10, 68640, Note_on_c, 8, 44, 100
10, 68759, Note_on_c, 8, 44, 0
10, 68820, Note_on_c, 8, 56, 100
10, 68939, Note_on_c, 8, 56, 0
10, 69000, Note_on_c, 8, 44, 100
10, 69119, Note_on_c, 8, 44, 0
10, 69180, Note_on_c, 8, 56, 100
10, 69299, Note_on_c, 8, 56, 0
10, 69360, Note_on_c, 8, 44, 100
10, 69479, Note_on_c, 8, 44, 0
10, 69540, Note_on_c, 8, 56, 100
10, 69659, Note_on_c, 8, 56, 0
10, 69720, Note_on_c, 8, 44, 100
10, 69839, Note_on_c, 8, 44, 0
10, 69840, Note_on_c, 8, 56, 100
10, 69899, Note_on_c, 8, 56, 0
10, 69900, Note_on_c, 8, 54, 100
10, 70019, Note_on_c, 8, 54, 0
10, 70020, Note_on_c, 8, 42, 100
10, 70079, Note_on_c, 8, 42, 0
10, 70080, Note_on_c, 8, 41, 100
10, 70199, Note_on_c, 8, 41, 0
10, 70200, Note_on_c, 8, 53, 100
10, 70259, Note_on_c, 8, 53, 0
10, 70260, Note_on_c, 8, 53, 100
10, 70379, Note_on_c, 8, 53, 0
10, 70380, Note_on_c, 8, 41, 100
10, 70439, Note_on_c, 8, 41, 0
10, 70440, Note_on_c, 8, 46, 100
10, 70499, Note_on_c, 8, 46, 0
10, 70500, Note_on_c, 8, 49, 100
10, 70559, Note_on_c, 8, 49, 0
10, 70560, Note_on_c, 8, 53, 100
10, 70619, Note_on_c, 8, 53, 0
10, 70620, Note_on_c, 8, 49, 100
10, 70679, Note_on_c, 8, 49, 0
10, 70680, Note_on_c, 8, 46, 100
10, 70739, Note_on_c, 8, 46, 0
10, 70740, Note_on_c, 8, 44, 100
10, 70799, Note_on_c, 8, 44, 0
10, 70800, Note_on_c, 8, 43, 100
10, 70859, Note_on_c, 8, 43, 0
10, 70860, Note_on_c, 8, 47, 100
10, 70919, Note_on_c, 8, 47, 0
10, 70920, Note_on_c, 8, 50, 100
10, 70979, Note_on_c, 8, 50, 0
10, 70980, Note_on_c, 8, 47, 100
10, 71039, Note_on_c, 8, 47, 0
10, 71040, Note_on_c, 8, 43, 100
10, 71099, Note_on_c, 8, 43, 0
10, 71100, Note_on_c, 8, 55, 100
10, 71159, Note_on_c, 8, 55, 0
10, 71160, Note_on_c, 8, 55, 100
10, 71190, Note_on_c, 8, 55, 0
10, 71190, Note_on_c, 8, 53, 100
10, 71220, Note_on_c, 8, 53, 0
10, 71220, Note_on_c, 8, 51, 100
10, 71250, Note_on_c, 8, 51, 0
10, 71250, Note_on_c, 8, 50, 100
10, 71280, Note_on_c, 8, 50, 0
10, 71280, Note_on_c, 8, 51, 100
10, 71339, Note_on_c, 8, 51, 0
10, 71520, Note_on_c, 8, 51, 100
10, 71639, Note_on_c, 8, 51, 0
10, 71640, Note_on_c, 8, 39, 100
10, 71699, Note_on_c, 8, 39, 0
10, 71700, Note_on_c, 8, 41, 100
10, 71819, Note_on_c, 8, 41, 0
10, 71820, Note_on_c, 8, 53, 100
10, 71879, Note_on_c, 8, 53, 0
10, 71880, Note_on_c, 8, 55, 100
10, 71999, Note_on_c, 8, 55, 0
10, 72000, Note_on_c, 8, 43, 100
10, 72059, Note_on_c, 8, 43, 0
10, 72060, Note_on_c, 8, 44, 100
10, 72179, Note_on_c, 8, 44, 0
10, 72180, Note_on_c, 8, 56, 100
10, 72239, Note_on_c, 8, 56, 0
10, 72240, Note_on_c, 8, 56, 100
10, 72359, Note_on_c, 8, 56, 0
10, 72360, Note_on_c, 8, 55, 100
10, 72419, Note_on_c, 8, 55, 0
10, 72420, Note_on_c, 8, 53, 100
10, 72539, Note_on_c, 8, 53, 0
10, 72540, Note_on_c, 8, 58, 100
10, 72599, Note_on_c, 8, 58, 0
10, 72600, Note_on_c, 8, 51, 100
10, 72719, Note_on_c, 8, 51, 0
10, 72720, Note_on_c, 8, 55, 100
10, 72779, Note_on_c, 8, 55, 0
10, 72780, Note_on_c, 8, 48, 100
10, 72899, Note_on_c, 8, 48, 0
10, 72900, Note_on_c, 8, 53, 100
10, 72959, Note_on_c, 8, 53, 0
10, 72960, Note_on_c, 8, 46, 100
10, 73079, Note_on_c, 8, 46, 0
10, 73080, Note_on_c, 8, 58, 100
10, 73139, Note_on_c, 8, 58, 0
10, 73140, Note_on_c, 8, 60, 100
10, 73259, Note_on_c, 8, 60, 0
10, 73260, Note_on_c, 8, 48, 100
10, 73319, Note_on_c, 8, 48, 0
10, 73320, Note_on_c, 8, 50, 100
10, 73439, Note_on_c, 8, 50, 0
10, 73440, Note_on_c, 8, 62, 100
10, 73499, Note_on_c, 8, 62, 0
10, 73500, Note_on_c, 8, 63, 100
10, 73619, Note_on_c, 8, 63, 0
10, 73620, Note_on_c, 8, 51, 100
10, 73679, Note_on_c, 8, 51, 0
10, 73680, Note_on_c, 8, 51, 100
10, 73799, Note_on_c, 8, 51, 0
10, 73800, Note_on_c, 8, 50, 100
10, 73859, Note_on_c, 8, 50, 0
10, 73860, Note_on_c, 8, 48, 100
10, 73979, Note_on_c, 8, 48, 0
10, 73980, Note_on_c, 8, 53, 100
10, 74039, Note_on_c, 8, 53, 0
10, 74040, Note_on_c, 8, 46, 100
10, 74159, Note_on_c, 8, 46, 0
10, 74160, Note_on_c, 8, 44, 100
10, 74219, Note_on_c, 8, 44, 0
10, 74220, Note_on_c, 8, 43, 100
10, 74339, Note_on_c, 8, 43, 0
10, 74340, Note_on_c, 8, 39, 100
10, 74399, Note_on_c, 8, 39, 0
10, 74400, Note_on_c, 8, 44, 100
10, 74519, Note_on_c, 8, 44, 0
10, 74520, Note_on_c, 8, 43, 100
10, 74579, Note_on_c, 8, 43, 0
10, 74580, Note_on_c, 8, 41, 100
10, 74699, Note_on_c, 8, 41, 0
10, 74700, Note_on_c, 8, 38, 100
10, 74759, Note_on_c, 8, 38, 0
10, 74760, Note_on_c, 8, 43, 100
10, 74879, Note_on_c, 8, 43, 0
10, 74880, Note_on_c, 8, 41, 100
10, 74939, Note_on_c, 8, 41, 0
10, 74940, Note_on_c, 8, 39, 100
10, 75059, Note_on_c, 8, 39, 0
10, 75060, Note_on_c, 8, 36, 100
10, 75119, Note_on_c, 8, 36, 0
10, 75120, Note_on_c, 8, 41, 100
10, 75239, Note_on_c, 8, 41, 0
10, 75240, Note_on_c, 8, 39, 100
10, 75299, Note_on_c, 8, 39, 0
10, 75300, Note_on_c, 8, 38, 100
10, 75419, Note_on_c, 8, 38, 0
10, 75420, Note_on_c, 8, 46, 100
10, 75479, Note_on_c, 8, 46, 0
10, 75480, Note_on_c, 8, 39, 100
10, 75599, Note_on_c, 8, 39, 0
10, 75600, Note_on_c, 8, 51, 100
10, 75659, Note_on_c, 8, 51, 0
10, 75660, Note_on_c, 8, 51, 100
10, 75779, Note_on_c, 8, 51, 0
10, 75780, Note_on_c, 8, 39, 100
10, 75839, Note_on_c, 8, 39, 0
10, 75840, Note_on_c, 8, 39, 100
10, 75959, Note_on_c, 8, 39, 0
10, 75960, Note_on_c, 8, 51, 100
10, 76019, Note_on_c, 8, 51, 0
10, 76020, Note_on_c, 8, 51, 100
10, 76139, Note_on_c, 8, 51, 0
10, 76140, Note_on_c, 8, 39, 100
10, 76199, Note_on_c, 8, 39, 0
10, 76200, Note_on_c, 8, 39, 100
10, 76319, Note_on_c, 8, 39, 0
10, 76320, Note_on_c, 8, 51, 100
10, 76379, Note_on_c, 8, 51, 0
10, 76380, Note_on_c, 8, 43, 100
10, 76499, Note_on_c, 8, 43, 0
10, 76500, Note_on_c, 8, 39, 100
10, 76559, Note_on_c, 8, 39, 0
10, 76560, Note_on_c, 8, 44, 100
10, 76679, Note_on_c, 8, 44, 0
10, 76680, Note_on_c, 8, 43, 100
10, 76739, Note_on_c, 8, 43, 0
10, 76740, Note_on_c, 8, 41, 100
10, 76859, Note_on_c, 8, 41, 0
10, 76860, Note_on_c, 8, 38, 100
10, 76919, Note_on_c, 8, 38, 0
10, 76920, Note_on_c, 8, 43, 100
10, 77039, Note_on_c, 8, 43, 0
10, 77040, Note_on_c, 8, 41, 100
10, 77099, Note_on_c, 8, 41, 0
10, 77100, Note_on_c, 8, 39, 100
10, 77219, Note_on_c, 8, 39, 0
10, 77220, Note_on_c, 8, 36, 100
10, 77279, Note_on_c, 8, 36, 0
10, 77280, Note_on_c, 8, 41, 100
10, 77399, Note_on_c, 8, 41, 0
10, 77400, Note_on_c, 8, 39, 100
10, 77459, Note_on_c, 8, 39, 0
10, 77460, Note_on_c, 8, 38, 100
10, 77579, Note_on_c, 8, 38, 0
10, 77580, Note_on_c, 8, 46, 100
10, 77639, Note_on_c, 8, 46, 0
10, 77640, Note_on_c, 8, 51, 100
10, 77759, Note_on_c, 8, 51, 0
10, 77760, Note_on_c, 8, 48, 100
10, 77819, Note_on_c, 8, 48, 0
10, 77820, Note_on_c, 8, 46, 100
10, 77939, Note_on_c, 8, 46, 0
10, 77940, Note_on_c, 8, 46, 100
10, 77999, Note_on_c, 8, 46, 0
10, 78000, Note_on_c, 8, 39, 100
10, 78179, Note_on_c, 8, 39, 0
10, 79560, Note_on_c, 8, 48, 100
10, 79589, Note_on_c, 8, 48, 0
10, 79590, Note_on_c, 8, 50, 100
10, 79619, Note_on_c, 8, 50, 0
10, 79620, Note_on_c, 8, 51, 100
10, 79680, Note_on_c, 8, 51, 0
10, 79800, Note_on_c, 8, 55, 100
10, 79860, Note_on_c, 8, 55, 0
10, 79860, Note_on_c, 8, 48, 100
10, 79920, Note_on_c, 8, 48, 0
10, 80040, Note_on_c, 8, 47, 100
10, 80100, Note_on_c, 8, 47, 0
10, 80100, Note_on_c, 8, 48, 100
10, 80160, Note_on_c, 8, 48, 0
10, 80160, Note_on_c, 8, 50, 100
10, 80220, Note_on_c, 8, 50, 0
10, 80220, Note_on_c, 8, 51, 100
10, 80280, Note_on_c, 8, 51, 0
10, 80280, Note_on_c, 8, 51, 100
10, 80310, Note_on_c, 8, 51, 0
10, 80310, Note_on_c, 8, 50, 100
10, 80340, Note_on_c, 8, 50, 0
10, 80340, Note_on_c, 8, 51, 100
10, 80400, Note_on_c, 8, 51, 0
10, 80400, Note_on_c, 8, 48, 100
10, 80460, Note_on_c, 8, 48, 0
10, 80460, Note_on_c, 8, 56, 100
10, 80520, Note_on_c, 8, 56, 0
10, 80520, Note_on_c, 8, 44, 100
10, 80580, Note_on_c, 8, 44, 0
10, 80640, Note_on_c, 8, 43, 100
10, 80670, Note_on_c, 8, 43, 0
10, 80670, Note_on_c, 8, 45, 100
10, 80700, Note_on_c, 8, 45, 0
10, 80700, Note_on_c, 8, 47, 100
10, 80759, Note_on_c, 8, 47, 0
10, 80760, Note_on_c, 8, 50, 100
10, 80819, Note_on_c, 8, 50, 0
10, 80820, Note_on_c, 8, 55, 100
10, 80879, Note_on_c, 8, 55, 0
10, 80880, Note_on_c, 8, 53, 100
10, 80939, Note_on_c, 8, 53, 0
10, 80940, Note_on_c, 8, 52, 100
10, 80999, Note_on_c, 8, 52, 0
10, 81000, Note_on_c, 8, 52, 100
10, 81059, Note_on_c, 8, 52, 0
10, 81060, Note_on_c, 8, 52, 100
10, 81119, Note_on_c, 8, 52, 0
10, 81120, Note_on_c, 8, 53, 100
10, 81179, Note_on_c, 8, 53, 0
10, 81180, Note_on_c, 8, 58, 100
10, 81239, Note_on_c, 8, 58, 0
10, 81240, Note_on_c, 8, 56, 100
10, 81299, Note_on_c, 8, 56, 0
10, 81300, Note_on_c, 8, 55, 100
10, 81359, Note_on_c, 8, 55, 0
10, 81360, Note_on_c, 8, 53, 100
10, 81419, Note_on_c, 8, 53, 0
10, 81420, Note_on_c, 8, 52, 100
10, 81479, Note_on_c, 8, 52, 0
10, 81480, Note_on_c, 8, 53, 100
10, 81539, Note_on_c, 8, 53, 0
10, 81540, Note_on_c, 8, 41, 100
10, 81599, Note_on_c, 8, 41, 0
10, 81600, Note_on_c, 8, 53, 100
10, 81659, Note_on_c, 8, 53, 0
10, 81660, Note_on_c, 8, 54, 100
10, 81719, Note_on_c, 8, 54, 0
10, 81720, Note_on_c, 8, 54, 100
10, 81779, Note_on_c, 8, 54, 0
10, 81780, Note_on_c, 8, 54, 100
10, 81839, Note_on_c, 8, 54, 0
10, 81840, Note_on_c, 8, 55, 100
10, 81899, Note_on_c, 8, 55, 0
10, 81900, Note_on_c, 8, 60, 100
10, 81959, Note_on_c, 8, 60, 0
10, 81960, Note_on_c, 8, 58, 100
10, 82019, Note_on_c, 8, 58, 0
10, 82020, Note_on_c, 8, 57, 100
10, 82079, Note_on_c, 8, 57, 0
10, 82080, Note_on_c, 8, 55, 100
10, 82139, Note_on_c, 8, 55, 0
10, 82140, Note_on_c, 8, 54, 100
10, 82199, Note_on_c, 8, 54, 0
10, 82200, Note_on_c, 8, 55, 100
10, 82259, Note_on_c, 8, 55, 0
10, 82260, Note_on_c, 8, 43, 100
10, 82319, Note_on_c, 8, 43, 0
10, 82320, Note_on_c, 8, 55, 100
10, 82379, Note_on_c, 8, 55, 0
10, 82380, Note_on_c, 8, 51, 100
10, 82439, Note_on_c, 8, 51, 0
10, 82440, Note_on_c, 8, 48, 100
10, 82499, Note_on_c, 8, 48, 0
10, 82560, Note_on_c, 8, 55, 100
10, 82619, Note_on_c, 8, 55, 0
10, 82620, Note_on_c, 8, 53, 100
10, 82679, Note_on_c, 8, 53, 0
10, 82680, Note_on_c, 8, 51, 100
10, 82739, Note_on_c, 8, 51, 0
10, 82740, Note_on_c, 8, 50, 100
10, 82799, Note_on_c, 8, 50, 0
10, 82800, Note_on_c, 8, 48, 100
10, 82859, Note_on_c, 8, 48, 0
10, 82860, Note_on_c, 8, 47, 100
10, 82919, Note_on_c, 8, 47, 0
10, 82920, Note_on_c, 8, 43, 100
10, 82979, Note_on_c, 8, 43, 0
10, 82980, Note_on_c, 8, 55, 100
10, 83039, Note_on_c, 8, 55, 0
10, 83040, Note_on_c, 8, 43, 100
10, 83099, Note_on_c, 8, 43, 0
10, 83100, Note_on_c, 8, 48, 100
10, 83159, Note_on_c, 8, 48, 0
10, 83160, Note_on_c, 8, 53, 100
10, 83219, Note_on_c, 8, 53, 0
10, 83220, Note_on_c, 8, 51, 100
10, 83279, Note_on_c, 8, 51, 0
10, 83280, Note_on_c, 8, 39, 100
10, 83339, Note_on_c, 8, 39, 0
10, 83340, Note_on_c, 8, 38, 100
10, 83399, Note_on_c, 8, 38, 0
10, 83400, Note_on_c, 8, 50, 100
10, 83459, Note_on_c, 8, 50, 0
10, 83460, Note_on_c, 8, 43, 100
10, 83490, Note_on_c, 8, 43, 0
10, 83490, Note_on_c, 8, 47, 100
10, 83520, Note_on_c, 8, 47, 0
10, 83520, Note_on_c, 8, 50, 100
10, 83550, Note_on_c, 8, 50, 0
10, 83550, Note_on_c, 8, 55, 100
10, 83580, Note_on_c, 8, 55, 0
10, 83580, Note_on_c, 8, 43, 100
10, 83639, Note_on_c, 8, 43, 0
10, 83820, Note_on_c, 8, 43, 100
10, 83850, Note_on_c, 8, 43, 0
10, 83850, Note_on_c, 8, 48, 100
10, 83880, Note_on_c, 8, 48, 0
10, 83880, Note_on_c, 8, 51, 100
10, 83910, Note_on_c, 8, 51, 0
10, 83910, Note_on_c, 8, 55, 100
10, 83940, Note_on_c, 8, 55, 0
10, 83940, Note_on_c, 8, 43, 100
10, 83999, Note_on_c, 8, 43, 0
10, 84180, Note_on_c, 8, 43, 100
10, 84210, Note_on_c, 8, 43, 0
10, 84210, Note_on_c, 8, 47, 100
10, 84240, Note_on_c, 8, 47, 0
10, 84240, Note_on_c, 8, 50, 100
10, 84270, Note_on_c, 8, 50, 0
10, 84270, Note_on_c, 8, 55, 100
10, 84300, Note_on_c, 8, 55, 0
10, 84300, Note_on_c, 8, 43, 100
10, 84359, Note_on_c, 8, 43, 0
10, 84540, Note_on_c, 8, 48, 100
10, 84660, Note_on_c, 8, 48, 0
10, 84720, Note_on_c, 8, 48, 100
10, 84780, Note_on_c, 8, 48, 0
10, 84780, Note_on_c, 8, 53, 100
10, 84840, Note_on_c, 8, 53, 0
10, 84840, Note_on_c, 8, 50, 100
10, 84900, Note_on_c, 8, 50, 0
10, 84900, Note_on_c, 8, 51, 100
10, 85020, Note_on_c, 8, 51, 0
10, 85080, Note_on_c, 8, 48, 100
10, 85140, Note_on_c, 8, 48, 0
10, 85140, Note_on_c, 8, 51, 100
10, 85200, Note_on_c, 8, 51, 0
10, 85200, Note_on_c, 8, 48, 100
10, 85260, Note_on_c, 8, 48, 0
10, 85260, Note_on_c, 8, 50, 100
10, 85380, Note_on_c, 8, 50, 0
10, 85440, Note_on_c, 8, 53, 100
10, 85500, Note_on_c, 8, 53, 0
10, 85500, Note_on_c, 8, 43, 100
10, 85560, Note_on_c, 8, 43, 0
10, 85560, Note_on_c, 8, 47, 100
10, 85620, Note_on_c, 8, 47, 0
10, 85620, Note_on_c, 8, 48, 100
10, 85650, Note_on_c, 8, 48, 0
10, 85650, Note_on_c, 8, 60, 100
10, 85680, Note_on_c, 8, 60, 0
10, 85680, Note_on_c, 8, 58, 100
10, 85710, Note_on_c, 8, 58, 0
10, 85710, Note_on_c, 8, 56, 100
10, 85740, Note_on_c, 8, 56, 0
10, 85740, Note_on_c, 8, 55, 100
10, 85770, Note_on_c, 8, 55, 0
10, 85770, Note_on_c, 8, 53, 100
10, 85800, Note_on_c, 8, 53, 0
10, 85800, Note_on_c, 8, 51, 100
10, 85830, Note_on_c, 8, 51, 0
10, 85830, Note_on_c, 8, 50, 100
10, 85860, Note_on_c, 8, 50, 0
10, 85860, Note_on_c, 8, 48, 100
10, 85890, Note_on_c, 8, 48, 0
10, 85890, Note_on_c, 8, 51, 100
10, 85920, Note_on_c, 8, 51, 0
10, 85920, Note_on_c, 8, 50, 100
10, 85950, Note_on_c, 8, 50, 0
10, 85950, Note_on_c, 8, 48, 100
10, 85980, Note_on_c, 8, 48, 0
10, 85980, Note_on_c, 8, 47, 100
10, 86010, Note_on_c, 8, 47, 0
10, 86010, Note_on_c, 8, 43, 100
10, 86040, Note_on_c, 8, 43, 0
10, 86040, Note_on_c, 8, 45, 100
10, 86070, Note_on_c, 8, 45, 0
10, 86070, Note_on_c, 8, 47, 100
10, 86100, Note_on_c, 8, 47, 0
10, 86100, Note_on_c, 8, 48, 100
10, 86130, Note_on_c, 8, 48, 0
10, 86130, Note_on_c, 8, 50, 100
10, 86160, Note_on_c, 8, 50, 0
10, 86160, Note_on_c, 8, 51, 100
10, 86190, Note_on_c, 8, 51, 0
10, 86190, Note_on_c, 8, 53, 100
10, 86220, Note_on_c, 8, 53, 0
10, 86220, Note_on_c, 8, 55, 100
10, 86280, Note_on_c, 8, 55, 0
10, 86280, Note_on_c, 8, 43, 100
10, 86340, Note_on_c, 8, 43, 0
10, 86340, Note_on_c, 8, 48, 100
10, 86400, Note_on_c, 8, 48, 0
10, 86400, Note_on_c, 8, 36, 100
10, 86460, Note_on_c, 8, 36, 0
10, 86460, Note_on_c, 8, 36, 100
10, 86520, Note_on_c, 8, 36, 0
10, 86520, Note_on_c, 8, 36, 100
10, 86580, Note_on_c, 8, 36, 0
10, 86580, Note_on_c, 8, 36, 100
10, 86640, Note_on_c, 8, 36, 0
10, 86640, Note_on_c, 8, 36, 100
10, 86700, Note_on_c, 8, 36, 0
10, 86700, Note_on_c, 8, 36, 100
10, 86820, Note_on_c, 8, 36, 0
10, 88140, Note_on_c, 8, 48, 100
10, 88199, Note_on_c, 8, 48, 0
10, 88200, Note_on_c, 8, 60, 100
10, 88259, Note_on_c, 8, 60, 0
10, 88320, Note_on_c, 8, 60, 100
10, 88379, Note_on_c, 8, 60, 0
10, 88380, Note_on_c, 8, 62, 100
10, 88439, Note_on_c, 8, 62, 0
10, 88440, Note_on_c, 8, 63, 100
10, 88499, Note_on_c, 8, 63, 0
10, 88500, Note_on_c, 8, 62, 100
10, 88529, Note_on_c, 8, 62, 0
10, 88530, Note_on_c, 8, 60, 100
10, 88559, Note_on_c, 8, 60, 0
10, 88560, Note_on_c, 8, 59, 100
10, 88619, Note_on_c, 8, 59, 0
10, 88680, Note_on_c, 8, 59, 100
10, 88739, Note_on_c, 8, 59, 0
10, 88740, Note_on_c, 8, 55, 100
10, 88799, Note_on_c, 8, 55, 0
10, 88800, Note_on_c, 8, 50, 100
10, 88859, Note_on_c, 8, 50, 0
10, 88860, Note_on_c, 8, 47, 100
10, 88919, Note_on_c, 8, 47, 0
10, 88920, Note_on_c, 8, 50, 100
10, 88979, Note_on_c, 8, 50, 0
10, 88980, Note_on_c, 8, 55, 100
10, 89039, Note_on_c, 8, 55, 0
10, 89040, Note_on_c, 8, 50, 100
10, 89099, Note_on_c, 8, 50, 0
10, 89100, Note_on_c, 8, 47, 100
10, 89159, Note_on_c, 8, 47, 0
10, 89160, Note_on_c, 8, 43, 100
10, 89219, Note_on_c, 8, 43, 0
10, 89220, Note_on_c, 8, 48, 100
10, 89279, Note_on_c, 8, 48, 0
10, 89280, Note_on_c, 8, 60, 100
10, 89339, Note_on_c, 8, 60, 0
10, 89400, Note_on_c, 8, 55, 100
10, 89459, Note_on_c, 8, 55, 0
10, 89460, Note_on_c, 8, 51, 100
10, 89519, Note_on_c, 8, 51, 0
10, 89520, Note_on_c, 8, 55, 100
10, 89579, Note_on_c, 8, 55, 0
10, 89580, Note_on_c, 8, 48, 100
10, 89639, Note_on_c, 8, 48, 0
10, 89640, Note_on_c, 8, 55, 100
10, 89669, Note_on_c, 8, 55, 0
10, 89670, Note_on_c, 8, 53, 100
10, 89699, Note_on_c, 8, 53, 0
10, 89700, Note_on_c, 8, 55, 100
10, 89759, Note_on_c, 8, 55, 0
10, 89760, Note_on_c, 8, 52, 100
10, 89819, Note_on_c, 8, 52, 0
10, 89820, Note_on_c, 8, 48, 100
10, 89879, Note_on_c, 8, 48, 0
10, 89880, Note_on_c, 8, 36, 100
10, 89939, Note_on_c, 8, 36, 0
10, 89940, Note_on_c, 8, 41, 100
10, 90059, Note_on_c, 8, 41, 0
10, 90120, Note_on_c, 8, 53, 100
10, 90179, Note_on_c, 8, 53, 0
10, 90180, Note_on_c, 8, 48, 100
10, 90239, Note_on_c, 8, 48, 0
10, 90240, Note_on_c, 8, 53, 100
10, 90299, Note_on_c, 8, 53, 0
10, 90300, Note_on_c, 8, 50, 100
10, 90359, Note_on_c, 8, 50, 0
10, 90360, Note_on_c, 8, 53, 100
10, 90389, Note_on_c, 8, 53, 0
10, 90390, Note_on_c, 8, 51, 100
10, 90419, Note_on_c, 8, 51, 0
10, 90420, Note_on_c, 8, 53, 100
10, 90479, Note_on_c, 8, 53, 0
10, 90480, Note_on_c, 8, 50, 100
10, 90539, Note_on_c, 8, 50, 0
10, 90540, Note_on_c, 8, 46, 100
10, 90599, Note_on_c, 8, 46, 0
10, 90600, Note_on_c, 8, 46, 100
10, 90659, Note_on_c, 8, 46, 0
10, 90660, Note_on_c, 8, 39, 100
10, 90779, Note_on_c, 8, 39, 0
10, 90840, Note_on_c, 8, 51, 100
10, 90899, Note_on_c, 8, 51, 0
10, 90900, Note_on_c, 8, 46, 100
10, 90959, Note_on_c, 8, 46, 0
10, 90960, Note_on_c, 8, 51, 100
10, 91019, Note_on_c, 8, 51, 0
10, 91020, Note_on_c, 8, 56, 100
10, 91049, Note_on_c, 8, 56, 0
10, 91050, Note_on_c, 8, 43, 100
10, 91079, Note_on_c, 8, 43, 0
10, 91080, Note_on_c, 8, 48, 100
10, 91109, Note_on_c, 8, 48, 0
10, 91110, Note_on_c, 8, 51, 100
10, 91139, Note_on_c, 8, 51, 0
10, 91140, Note_on_c, 8, 56, 100
10, 91199, Note_on_c, 8, 56, 0
10, 91290, Note_on_c, 8, 53, 100
10, 91319, Note_on_c, 8, 53, 0
10, 91320, Note_on_c, 8, 55, 100
10, 91349, Note_on_c, 8, 55, 0
10, 91350, Note_on_c, 8, 56, 100
10, 91379, Note_on_c, 8, 56, 0
10, 91380, Note_on_c, 8, 58, 100
10, 91409, Note_on_c, 8, 58, 0
10, 91410, Note_on_c, 8, 46, 100
10, 91439, Note_on_c, 8, 46, 0
10, 91440, Note_on_c, 8, 50, 100
10, 91469, Note_on_c, 8, 50, 0
10, 91470, Note_on_c, 8, 53, 100
10, 91499, Note_on_c, 8, 53, 0
10, 91500, Note_on_c, 8, 58, 100
10, 91559, Note_on_c, 8, 58, 0
10, 91650, Note_on_c, 8, 55, 100
10, 91679, Note_on_c, 8, 55, 0
10, 91680, Note_on_c, 8, 56, 100
10, 91709, Note_on_c, 8, 56, 0
10, 91710, Note_on_c, 8, 58, 100
10, 91739, Note_on_c, 8, 58, 0
10, 91740, Note_on_c, 8, 60, 100
10, 91769, Note_on_c, 8, 60, 0
10, 91770, Note_on_c, 8, 48, 100
10, 91799, Note_on_c, 8, 48, 0
10, 91800, Note_on_c, 8, 51, 100
10, 91829, Note_on_c, 8, 51, 0
10, 91830, Note_on_c, 8, 56, 100
10, 91859, Note_on_c, 8, 56, 0
10, 91860, Note_on_c, 8, 60, 100
10, 91919, Note_on_c, 8, 60, 0
10, 92010, Note_on_c, 8, 56, 100
10, 92039, Note_on_c, 8, 56, 0
10, 92040, Note_on_c, 8, 58, 100
10, 92069, Note_on_c, 8, 58, 0
10, 92070, Note_on_c, 8, 60, 100
10, 92099, Note_on_c, 8, 60, 0
10, 92100, Note_on_c, 8, 62, 100
10, 92129, Note_on_c, 8, 62, 0
10, 92130, Note_on_c, 8, 50, 100
10, 92159, Note_on_c, 8, 50, 0
10, 92160, Note_on_c, 8, 53, 100
10, 92189, Note_on_c, 8, 53, 0
10, 92190, Note_on_c, 8, 58, 100
10, 92219, Note_on_c, 8, 58, 0
10, 92220, Note_on_c, 8, 62, 100
10, 92279, Note_on_c, 8, 62, 0
10, 92370, Note_on_c, 8, 58, 100
10, 92399, Note_on_c, 8, 58, 0
10, 92400, Note_on_c, 8, 56, 100
10, 92429, Note_on_c, 8, 56, 0
10, 92430, Note_on_c, 8, 58, 100
10, 92459, Note_on_c, 8, 58, 0
10, 92460, Note_on_c, 8, 51, 100
10, 92519, Note_on_c, 8, 51, 0
10, 92520, Note_on_c, 8, 39, 100
10, 92549, Note_on_c, 8, 39, 0
10, 92550, Note_on_c, 8, 41, 100
10, 92579, Note_on_c, 8, 41, 0
10, 92580, Note_on_c, 8, 43, 100
10, 92639, Note_on_c, 8, 43, 0
10, 92760, Note_on_c, 8, 46, 100
10, 92819, Note_on_c, 8, 46, 0
10, 92820, Note_on_c, 8, 39, 100
10, 92879, Note_on_c, 8, 39, 0
10, 93000, Note_on_c, 8, 50, 100
10, 93059, Note_on_c, 8, 50, 0
10, 93060, Note_on_c, 8, 51, 100
10, 93119, Note_on_c, 8, 51, 0
10, 93120, Note_on_c, 8, 53, 100
10, 93179, Note_on_c, 8, 53, 0
10, 93180, Note_on_c, 8, 55, 100
10, 93239, Note_on_c, 8, 55, 0
10, 93240, Note_on_c, 8, 55, 100
10, 93270, Note_on_c, 8, 55, 0
10, 93270, Note_on_c, 8, 53, 100
10, 93300, Note_on_c, 8, 53, 0
10, 93300, Note_on_c, 8, 55, 100
10, 93359, Note_on_c, 8, 55, 0
10, 93360, Note_on_c, 8, 51, 100
10, 93419, Note_on_c, 8, 51, 0
10, 93420, Note_on_c, 8, 60, 100
10, 93479, Note_on_c, 8, 60, 0
10, 93480, Note_on_c, 8, 48, 100
10, 93539, Note_on_c, 8, 48, 0
10, 93600, Note_on_c, 8, 46, 100
10, 93659, Note_on_c, 8, 46, 0
10, 93660, Note_on_c, 8, 50, 100
10, 93719, Note_on_c, 8, 50, 0
10, 93720, Note_on_c, 8, 53, 100
10, 93779, Note_on_c, 8, 53, 0
10, 93780, Note_on_c, 8, 58, 100
10, 93809, Note_on_c, 8, 58, 0
10, 93810, Note_on_c, 8, 46, 100
10, 93839, Note_on_c, 8, 46, 0
10, 93840, Note_on_c, 8, 44, 100
10, 93869, Note_on_c, 8, 44, 0
10, 93870, Note_on_c, 8, 46, 100
10, 93899, Note_on_c, 8, 46, 0
10, 93900, Note_on_c, 8, 43, 100
10, 93959, Note_on_c, 8, 43, 0
10, 94020, Note_on_c, 8, 55, 100
10, 94080, Note_on_c, 8, 55, 0
10, 94080, Note_on_c, 8, 59, 100
10, 94140, Note_on_c, 8, 59, 0
10, 94140, Note_on_c, 8, 62, 100
10, 94200, Note_on_c, 8, 62, 0
10, 94200, Note_on_c, 8, 59, 100
10, 94260, Note_on_c, 8, 59, 0
10, 94260, Note_on_c, 8, 60, 100
10, 94320, Note_on_c, 8, 60, 0
10, 94320, Note_on_c, 8, 48, 100
10, 94380, Note_on_c, 8, 48, 0
10, 94380, Note_on_c, 8, 51, 100
10, 94440, Note_on_c, 8, 51, 0
10, 94440, Note_on_c, 8, 55, 100
10, 94500, Note_on_c, 8, 55, 0
10, 94500, Note_on_c, 8, 60, 100
10, 94529, Note_on_c, 8, 60, 0
10, 94530, Note_on_c, 8, 48, 100
10, 94559, Note_on_c, 8, 48, 0
10, 94560, Note_on_c, 8, 50, 100
10, 94589, Note_on_c, 8, 50, 0
10, 94590, Note_on_c, 8, 51, 100
10, 94619, Note_on_c, 8, 51, 0
10, 94620, Note_on_c, 8, 50, 100
10, 94679, Note_on_c, 8, 50, 0
10, 94740, Note_on_c, 8, 50, 100
10, 94799, Note_on_c, 8, 50, 0
10, 94800, Note_on_c, 8, 54, 100
10, 94859, Note_on_c, 8, 54, 0
10, 94860, Note_on_c, 8, 57, 100
10, 94919, Note_on_c, 8, 57, 0
10, 94920, Note_on_c, 8, 62, 100
10, 94979, Note_on_c, 8, 62, 0
10, 94980, Note_on_c, 8, 55, 100
10, 95039, Note_on_c, 8, 55, 0
10, 95040, Note_on_c, 8, 43, 100
10, 95099, Note_on_c, 8, 43, 0
10, 95100, Note_on_c, 8, 46, 100
10, 95159, Note_on_c, 8, 46, 0
10, 95160, Note_on_c, 8, 50, 100
10, 95219, Note_on_c, 8, 50, 0
10, 95220, Note_on_c, 8, 46, 100
10, 95249, Note_on_c, 8, 46, 0
10, 95250, Note_on_c, 8, 43, 100
10, 95279, Note_on_c, 8, 43, 0
10, 95280, Note_on_c, 8, 42, 100
10, 95309, Note_on_c, 8, 42, 0
10, 95310, Note_on_c, 8, 43, 100
10, 95339, Note_on_c, 8, 43, 0
10, 95340, Note_on_c, 8, 36, 100
10, 95459, Note_on_c, 8, 36, 0
10, 95490, Note_on_c, 8, 60, 100
10, 95520, Note_on_c, 8, 60, 0
10, 95520, Note_on_c, 8, 58, 100
10, 95550, Note_on_c, 8, 58, 0
10, 95550, Note_on_c, 8, 60, 100
10, 95580, Note_on_c, 8, 60, 0
10, 95580, Note_on_c, 8, 53, 100
10, 95640, Note_on_c, 8, 53, 0
10, 95640, Note_on_c, 8, 41, 100
10, 95700, Note_on_c, 8, 41, 0
10, 95700, Note_on_c, 8, 46, 100
10, 95819, Note_on_c, 8, 46, 0
10, 95850, Note_on_c, 8, 58, 100
10, 95880, Note_on_c, 8, 58, 0
10, 95880, Note_on_c, 8, 57, 100
10, 95910, Note_on_c, 8, 57, 0
10, 95910, Note_on_c, 8, 58, 100
10, 95940, Note_on_c, 8, 58, 0
10, 95940, Note_on_c, 8, 51, 100
10, 96000, Note_on_c, 8, 51, 0
10, 96000, Note_on_c, 8, 39, 100
10, 96060, Note_on_c, 8, 39, 0
10, 96060, Note_on_c, 8, 45, 100
10, 96179, Note_on_c, 8, 45, 0
10, 96210, Note_on_c, 8, 57, 100
10, 96240, Note_on_c, 8, 57, 0
10, 96240, Note_on_c, 8, 55, 100
10, 96270, Note_on_c, 8, 55, 0
10, 96270, Note_on_c, 8, 57, 100
10, 96300, Note_on_c, 8, 57, 0
10, 96300, Note_on_c, 8, 50, 100
10, 96360, Note_on_c, 8, 50, 0
10, 96360, Note_on_c, 8, 38, 100
10, 96420, Note_on_c, 8, 38, 0
10, 96420, Note_on_c, 8, 43, 100
10, 96480, Note_on_c, 8, 43, 0
10, 97860, Note_on_c, 8, 55, 100
10, 97920, Note_on_c, 8, 55, 0
10, 97920, Note_on_c, 8, 67, 100
10, 97980, Note_on_c, 8, 67, 0
10, 98040, Note_on_c, 8, 67, 100
10, 98099, Note_on_c, 8, 67, 0
10, 98100, Note_on_c, 8, 69, 100
10, 98159, Note_on_c, 8, 69, 0
10, 98160, Note_on_c, 8, 70, 100
10, 98219, Note_on_c, 8, 70, 0
10, 98220, Note_on_c, 8, 69, 100
10, 98249, Note_on_c, 8, 69, 0
10, 98250, Note_on_c, 8, 67, 100
10, 98279, Note_on_c, 8, 67, 0
10, 98280, Note_on_c, 8, 66, 100
10, 98339, Note_on_c, 8, 66, 0
10, 98400, Note_on_c, 8, 66, 100
10, 98459, Note_on_c, 8, 66, 0
10, 98460, Note_on_c, 8, 62, 100
10, 98519, Note_on_c, 8, 62, 0
10, 98520, Note_on_c, 8, 57, 100
10, 98579, Note_on_c, 8, 57, 0
10, 98580, Note_on_c, 8, 54, 100
10, 98639, Note_on_c, 8, 54, 0
10, 98640, Note_on_c, 8, 57, 100
10, 98699, Note_on_c, 8, 57, 0
10, 98700, Note_on_c, 8, 62, 100
10, 98759, Note_on_c, 8, 62, 0
10, 98760, Note_on_c, 8, 57, 100
10, 98819, Note_on_c, 8, 57, 0
10, 98820, Note_on_c, 8, 54, 100
10, 98879, Note_on_c, 8, 54, 0
10, 98880, Note_on_c, 8, 50, 100
10, 98939, Note_on_c, 8, 50, 0
10, 98940, Note_on_c, 8, 55, 100
10, 98999, Note_on_c, 8, 55, 0
10, 99000, Note_on_c, 8, 67, 100
10, 99059, Note_on_c, 8, 67, 0
10, 99120, Note_on_c, 8, 62, 100
10, 99179, Note_on_c, 8, 62, 0
10, 99180, Note_on_c, 8, 58, 100
10, 99239, Note_on_c, 8, 58, 0
10, 99240, Note_on_c, 8, 62, 100
10, 99299, Note_on_c, 8, 62, 0
10, 99300, Note_on_c, 8, 55, 100
10, 99359, Note_on_c, 8, 55, 0
10, 99360, Note_on_c, 8, 62, 100
10, 99389, Note_on_c, 8, 62, 0
10, 99390, Note_on_c, 8, 60, 100
10, 99419, Note_on_c, 8, 60, 0
10, 99420, Note_on_c, 8, 62, 100
10, 99479, Note_on_c, 8, 62, 0
10, 99480, Note_on_c, 8, 59, 100
10, 99539, Note_on_c, 8, 59, 0
10, 99540, Note_on_c, 8, 55, 100
10, 99599, Note_on_c, 8, 55, 0
10, 99600, Note_on_c, 8, 43, 100
10, 99659, Note_on_c, 8, 43, 0
10, 99660, Note_on_c, 8, 60, 100
10, 99779, Note_on_c, 8, 60, 0
10, 99840, Note_on_c, 8, 60, 100
10, 99899, Note_on_c, 8, 60, 0
10, 99900, Note_on_c, 8, 55, 100
10, 99959, Note_on_c, 8, 55, 0
10, 99960, Note_on_c, 8, 60, 100
10, 100019, Note_on_c, 8, 60, 0
10, 100020, Note_on_c, 8, 57, 100
10, 100079, Note_on_c, 8, 57, 0
10, 100080, Note_on_c, 8, 60, 100
10, 100109, Note_on_c, 8, 60, 0
10, 100110, Note_on_c, 8, 58, 100
10, 100139, Note_on_c, 8, 58, 0
10, 100140, Note_on_c, 8, 60, 100
10, 100199, Note_on_c, 8, 60, 0
10, 100200, Note_on_c, 8, 57, 100
10, 100259, Note_on_c, 8, 57, 0
10, 100260, Note_on_c, 8, 53, 100
10, 100319, Note_on_c, 8, 53, 0
10, 100320, Note_on_c, 8, 41, 100
10, 100379, Note_on_c, 8, 41, 0
10, 100380, Note_on_c, 8, 46, 100
10, 100499, Note_on_c, 8, 46, 0
10, 100560, Note_on_c, 8, 58, 100
10, 100619, Note_on_c, 8, 58, 0
10, 100620, Note_on_c, 8, 53, 100
10, 100679, Note_on_c, 8, 53, 0
10, 100680, Note_on_c, 8, 58, 100
10, 100739, Note_on_c, 8, 58, 0
10, 100740, Note_on_c, 8, 55, 100
10, 100799, Note_on_c, 8, 55, 0
10, 100800, Note_on_c, 8, 51, 100
10, 100859, Note_on_c, 8, 51, 0
10, 100920, Note_on_c, 8, 51, 100
10, 100979, Note_on_c, 8, 51, 0
10, 100980, Note_on_c, 8, 50, 100
10, 101039, Note_on_c, 8, 50, 0
10, 101040, Note_on_c, 8, 48, 100
10, 101099, Note_on_c, 8, 48, 0
10, 101100, Note_on_c, 8, 47, 100
10, 101159, Note_on_c, 8, 47, 0
10, 101160, Note_on_c, 8, 47, 100
10, 101219, Note_on_c, 8, 47, 0
10, 101220, Note_on_c, 8, 47, 100
10, 101279, Note_on_c, 8, 47, 0
10, 101280, Note_on_c, 8, 48, 100
10, 101339, Note_on_c, 8, 48, 0
10, 101340, Note_on_c, 8, 53, 100
10, 101399, Note_on_c, 8, 53, 0
10, 101400, Note_on_c, 8, 51, 100
10, 101459, Note_on_c, 8, 51, 0
10, 101460, Note_on_c, 8, 50, 100
10, 101519, Note_on_c, 8, 50, 0
10, 101520, Note_on_c, 8, 48, 100
10, 101579, Note_on_c, 8, 48, 0
10, 101580, Note_on_c, 8, 47, 100
10, 101639, Note_on_c, 8, 47, 0
10, 101640, Note_on_c, 8, 48, 100
10, 101699, Note_on_c, 8, 48, 0
10, 101700, Note_on_c, 8, 36, 100
10, 101759, Note_on_c, 8, 36, 0
10, 101760, Note_on_c, 8, 48, 100
10, 101819, Note_on_c, 8, 48, 0
10, 101820, Note_on_c, 8, 49, 100
10, 101879, Note_on_c, 8, 49, 0
10, 101880, Note_on_c, 8, 49, 100
10, 101939, Note_on_c, 8, 49, 0
10, 101940, Note_on_c, 8, 49, 100
10, 101999, Note_on_c, 8, 49, 0
10, 102000, Note_on_c, 8, 50, 100
10, 102059, Note_on_c, 8, 50, 0
10, 102060, Note_on_c, 8, 55, 100
10, 102119, Note_on_c, 8, 55, 0
10, 102120, Note_on_c, 8, 53, 100
10, 102179, Note_on_c, 8, 53, 0
10, 102180, Note_on_c, 8, 52, 100
10, 102239, Note_on_c, 8, 52, 0
10, 102240, Note_on_c, 8, 50, 100
10, 102299, Note_on_c, 8, 50, 0
10, 102300, Note_on_c, 8, 49, 100
10, 102359, Note_on_c, 8, 49, 0
10, 102360, Note_on_c, 8, 50, 100
10, 102419, Note_on_c, 8, 50, 0
10, 102420, Note_on_c, 8, 42, 100
10, 102479, Note_on_c, 8, 42, 0
10, 102540, Note_on_c, 8, 38, 100
10, 102570, Note_on_c, 8, 38, 0
10, 102570, Note_on_c, 8, 43, 100
10, 102600, Note_on_c, 8, 43, 0
10, 102600, Note_on_c, 8, 46, 100
10, 102630, Note_on_c, 8, 46, 0
10, 102630, Note_on_c, 8, 50, 100
10, 102660, Note_on_c, 8, 50, 0
10, 102660, Note_on_c, 8, 38, 100
10, 102719, Note_on_c, 8, 38, 0
10, 102900, Note_on_c, 8, 38, 100
10, 102930, Note_on_c, 8, 38, 0
10, 102930, Note_on_c, 8, 42, 100
10, 102960, Note_on_c, 8, 42, 0
10, 102960, Note_on_c, 8, 45, 100
10, 102990, Note_on_c, 8, 45, 0
10, 102990, Note_on_c, 8, 50, 100
10, 103020, Note_on_c, 8, 50, 0
10, 103020, Note_on_c, 8, 38, 100
10, 103079, Note_on_c, 8, 38, 0
10, 103260, Note_on_c, 8, 43, 100
10, 103379, Note_on_c, 8, 43, 0
10, 103440, Note_on_c, 8, 43, 100
10, 103499, Note_on_c, 8, 43, 0
10, 103500, Note_on_c, 8, 48, 100
10, 103559, Note_on_c, 8, 48, 0
10, 103560, Note_on_c, 8, 45, 100
10, 103619, Note_on_c, 8, 45, 0
10, 103620, Note_on_c, 8, 46, 100
10, 103739, Note_on_c, 8, 46, 0
10, 103800, Note_on_c, 8, 43, 100
10, 103859, Note_on_c, 8, 43, 0
10, 103860, Note_on_c, 8, 46, 100
10, 103919, Note_on_c, 8, 46, 0
10, 103920, Note_on_c, 8, 43, 100
10, 103979, Note_on_c, 8, 43, 0
10, 103980, Note_on_c, 8, 45, 100
10, 104099, Note_on_c, 8, 45, 0
10, 104160, Note_on_c, 8, 48, 100
10, 104219, Note_on_c, 8, 48, 0
10, 104220, Note_on_c, 8, 38, 100
10, 104279, Note_on_c, 8, 38, 0
10, 104280, Note_on_c, 8, 42, 100
10, 104339, Note_on_c, 8, 42, 0
10, 104340, Note_on_c, 8, 43, 100
10, 104369, Note_on_c, 8, 43, 0
10, 104370, Note_on_c, 8, 55, 100
10, 104399, Note_on_c, 8, 55, 0
10, 104400, Note_on_c, 8, 53, 100
10, 104429, Note_on_c, 8, 53, 0
10, 104430, Note_on_c, 8, 51, 100
10, 104459, Note_on_c, 8, 51, 0
10, 104460, Note_on_c, 8, 50, 100
10, 104489, Note_on_c, 8, 50, 0
10, 104490, Note_on_c, 8, 48, 100
10, 104519, Note_on_c, 8, 48, 0
10, 104520, Note_on_c, 8, 46, 100
10, 104549, Note_on_c, 8, 46, 0
10, 104550, Note_on_c, 8, 45, 100
10, 104579, Note_on_c, 8, 45, 0
10, 104580, Note_on_c, 8, 43, 100
10, 104609, Note_on_c, 8, 43, 0
10, 104610, Note_on_c, 8, 46, 100
10, 104639, Note_on_c, 8, 46, 0
10, 104640, Note_on_c, 8, 45, 100
10, 104669, Note_on_c, 8, 45, 0
10, 104670, Note_on_c, 8, 43, 100
10, 104699, Note_on_c, 8, 43, 0
10, 104700, Note_on_c, 8, 42, 100
10, 104729, Note_on_c, 8, 42, 0
10, 104730, Note_on_c, 8, 38, 100
10, 104759, Note_on_c, 8, 38, 0
10, 104760, Note_on_c, 8, 40, 100
10, 104789, Note_on_c, 8, 40, 0
10, 104790, Note_on_c, 8, 42, 100
10, 104819, Note_on_c, 8, 42, 0
10, 104820, Note_on_c, 8, 43, 100
10, 104849, Note_on_c, 8, 43, 0
10, 104850, Note_on_c, 8, 45, 100
10, 104879, Note_on_c, 8, 45, 0
10, 104880, Note_on_c, 8, 46, 100
10, 104909, Note_on_c, 8, 46, 0
10, 104910, Note_on_c, 8, 48, 100
10, 104939, Note_on_c, 8, 48, 0
10, 104940, Note_on_c, 8, 50, 100
10, 104999, Note_on_c, 8, 50, 0
10, 105000, Note_on_c, 8, 38, 100
10, 105059, Note_on_c, 8, 38, 0
10, 105060, Note_on_c, 8, 43, 100
10, 105119, Note_on_c, 8, 43, 0
10, 105240, Note_on_c, 8, 55, 100
10, 105299, Note_on_c, 8, 55, 0
10, 105300, Note_on_c, 8, 53, 100
10, 105359, Note_on_c, 8, 53, 0
10, 105360, Note_on_c, 8, 55, 100
10, 105419, Note_on_c, 8, 55, 0
10, 105420, Note_on_c, 8, 43, 100
10, 105539, Note_on_c, 8, 43, 0
10, 105780, Note_on_c, 8, 44, 100
10, 105839, Note_on_c, 8, 44, 0
10, 105840, Note_on_c, 8, 48, 100
10, 105899, Note_on_c, 8, 48, 0
10, 105900, Note_on_c, 8, 51, 100
10, 105959, Note_on_c, 8, 51, 0
10, 105960, Note_on_c, 8, 56, 100
10, 106019, Note_on_c, 8, 56, 0
10, 106020, Note_on_c, 8, 60, 100
10, 106079, Note_on_c, 8, 60, 0
10, 106080, Note_on_c, 8, 53, 100
10, 106139, Note_on_c, 8, 53, 0
10, 106140, Note_on_c, 8, 55, 100
10, 106259, Note_on_c, 8, 55, 0
10, 106500, Note_on_c, 8, 41, 100
10, 106560, Note_on_c, 8, 41, 0
10, 106560, Note_on_c, 8, 44, 100
10, 106589, Note_on_c, 8, 44, 0
10, 106590, Note_on_c, 8, 48, 100
10, 106619, Note_on_c, 8, 48, 0
10, 106620, Note_on_c, 8, 53, 100
10, 106680, Note_on_c, 8, 53, 0
10, 106770, Note_on_c, 8, 53, 100
10, 106799, Note_on_c, 8, 53, 0
10, 106800, Note_on_c, 8, 56, 100
10, 106829, Note_on_c, 8, 56, 0
10, 106830, Note_on_c, 8, 60, 100
10, 106859, Note_on_c, 8, 60, 0
10, 106860, Note_on_c, 8, 63, 100
10, 106920, Note_on_c, 8, 63, 0
10, 106920, Note_on_c, 8, 63, 100
10, 106980, Note_on_c, 8, 63, 0
10, 106980, Note_on_c, 8, 63, 100
10, 107040, Note_on_c, 8, 63, 0
10, 107040, Note_on_c, 8, 63, 100
10, 107100, Note_on_c, 8, 63, 0
10, 107100, Note_on_c, 8, 63, 100
10, 107160, Note_on_c, 8, 63, 0
10, 107160, Note_on_c, 8, 63, 100
10, 107220, Note_on_c, 8, 63, 0
10, 107220, Note_on_c, 8, 62, 100
10, 107280, Note_on_c, 8, 62, 0
10, 107280, Note_on_c, 8, 58, 100
10, 107340, Note_on_c, 8, 58, 0
10, 107340, Note_on_c, 8, 67, 100
10, 107400, Note_on_c, 8, 67, 0
10, 107490, Note_on_c, 8, 58, 100
10, 107520, Note_on_c, 8, 58, 0
10, 107520, Note_on_c, 8, 63, 100
10, 107550, Note_on_c, 8, 63, 0
10, 107550, Note_on_c, 8, 65, 100
10, 107580, Note_on_c, 8, 65, 0
10, 107580, Note_on_c, 8, 62, 100
10, 107640, Note_on_c, 8, 62, 0
10, 107640, Note_on_c, 8, 62, 100
10, 107700, Note_on_c, 8, 62, 0
10, 107700, Note_on_c, 8, 62, 100
10, 107760, Note_on_c, 8, 62, 0
10, 107760, Note_on_c, 8, 62, 100
10, 107820, Note_on_c, 8, 62, 0
10, 107820, Note_on_c, 8, 62, 100
10, 107880, Note_on_c, 8, 62, 0
10, 107880, Note_on_c, 8, 62, 100
10, 107940, Note_on_c, 8, 62, 0
10, 107940, Note_on_c, 8, 63, 100
10, 108059, Note_on_c, 8, 63, 0
10, 108210, Note_on_c, 8, 55, 100
10, 108239, Note_on_c, 8, 55, 0
10, 108240, Note_on_c, 8, 53, 100
10, 108269, Note_on_c, 8, 53, 0
10, 108270, Note_on_c, 8, 51, 100
10, 108299, Note_on_c, 8, 51, 0
10, 108300, Note_on_c, 8, 50, 100
10, 108419, Note_on_c, 8, 50, 0
10, 108480, Note_on_c, 8, 50, 100
10, 108540, Note_on_c, 8, 50, 0
10, 108540, Note_on_c, 8, 55, 100
10, 108600, Note_on_c, 8, 55, 0
10, 108600, Note_on_c, 8, 43, 100
10, 108660, Note_on_c, 8, 43, 0
10, 108660, Note_on_c, 8, 48, 100
10, 108779, Note_on_c, 8, 48, 0
10, 108930, Note_on_c, 8, 48, 100
10, 108960, Note_on_c, 8, 48, 0
10, 108960, Note_on_c, 8, 46, 100
10, 108990, Note_on_c, 8, 46, 0
10, 108990, Note_on_c, 8, 44, 100
10, 109020, Note_on_c, 8, 44, 0
10, 109020, Note_on_c, 8, 46, 100
10, 109139, Note_on_c, 8, 46, 0
10, 109200, Note_on_c, 8, 49, 100
10, 109259, Note_on_c, 8, 49, 0
10, 109260, Note_on_c, 8, 51, 100
10, 109319, Note_on_c, 8, 51, 0
10, 109320, Note_on_c, 8, 39, 100
10, 109379, Note_on_c, 8, 39, 0
10, 109380, Note_on_c, 8, 44, 100
10, 109499, Note_on_c, 8, 44, 0
10, 109650, Note_on_c, 8, 60, 100
10, 109680, Note_on_c, 8, 60, 0
10, 109680, Note_on_c, 8, 58, 100
10, 109710, Note_on_c, 8, 58, 0
10, 109710, Note_on_c, 8, 56, 100
10, 109740, Note_on_c, 8, 56, 0
10, 109740, Note_on_c, 8, 55, 100
10, 109859, Note_on_c, 8, 55, 0
10, 109920, Note_on_c, 8, 58, 100
10, 109979, Note_on_c, 8, 58, 0
10, 109980, Note_on_c, 8, 60, 100
10, 110039, Note_on_c, 8, 60, 0
10, 110040, Note_on_c, 8, 48, 100
10, 110099, Note_on_c, 8, 48, 0
10, 110100, Note_on_c, 8, 53, 100
10, 110129, Note_on_c, 8, 53, 0
10, 110130, Note_on_c, 8, 52, 100
10, 110159, Note_on_c, 8, 52, 0
10, 110160, Note_on_c, 8, 53, 100
10, 110189, Note_on_c, 8, 53, 0
10, 110190, Note_on_c, 8, 55, 100
10, 110219, Note_on_c, 8, 55, 0
10, 110220, Note_on_c, 8, 56, 100
10, 110279, Note_on_c, 8, 56, 0
10, 110400, Note_on_c, 8, 60, 100
10, 110459, Note_on_c, 8, 60, 0
10, 110460, Note_on_c, 8, 53, 100
10, 110519, Note_on_c, 8, 53, 0
10, 110640, Note_on_c, 8, 52, 100
10, 110699, Note_on_c, 8, 52, 0
10, 110700, Note_on_c, 8, 53, 100
10, 110759, Note_on_c, 8, 53, 0
10, 110760, Note_on_c, 8, 55, 100
10, 110819, Note_on_c, 8, 55, 0
10, 110820, Note_on_c, 8, 56, 100
10, 110879, Note_on_c, 8, 56, 0
10, 110880, Note_on_c, 8, 56, 100
10, 110909, Note_on_c, 8, 56, 0
10, 110910, Note_on_c, 8, 55, 100
10, 110939, Note_on_c, 8, 55, 0
10, 110940, Note_on_c, 8, 56, 100
10, 110999, Note_on_c, 8, 56, 0
10, 111000, Note_on_c, 8, 53, 100
10, 111059, Note_on_c, 8, 53, 0
10, 111060, Note_on_c, 8, 61, 100
10, 111119, Note_on_c, 8, 61, 0
10, 111120, Note_on_c, 8, 49, 100
10, 111179, Note_on_c, 8, 49, 0
10, 111240, Note_on_c, 8, 48, 100
10, 111299, Note_on_c, 8, 48, 0
10, 111300, Note_on_c, 8, 52, 100
10, 111359, Note_on_c, 8, 52, 0
10, 111360, Note_on_c, 8, 55, 100
10, 111419, Note_on_c, 8, 55, 0
10, 111420, Note_on_c, 8, 60, 100
10, 111479, Note_on_c, 8, 60, 0
10, 111480, Note_on_c, 8, 46, 100
10, 111539, Note_on_c, 8, 46, 0
10, 111540, Note_on_c, 8, 45, 100
10, 111599, Note_on_c, 8, 45, 0
10, 111600, Note_on_c, 8, 45, 100
10, 111659, Note_on_c, 8, 45, 0
10, 111660, Note_on_c, 8, 45, 100
10, 111719, Note_on_c, 8, 45, 0
10, 111720, Note_on_c, 8, 46, 100
10, 111779, Note_on_c, 8, 46, 0
10, 111780, Note_on_c, 8, 51, 100
10, 111839, Note_on_c, 8, 51, 0
10, 111840, Note_on_c, 8, 49, 100
10, 111899, Note_on_c, 8, 49, 0
10, 111900, Note_on_c, 8, 48, 100
10, 111959, Note_on_c, 8, 48, 0
10, 111960, Note_on_c, 8, 46, 100
10, 112019, Note_on_c, 8, 46, 0
10, 112020, Note_on_c, 8, 45, 100
10, 112079, Note_on_c, 8, 45, 0
10, 112080, Note_on_c, 8, 46, 100
10, 112139, Note_on_c, 8, 46, 0
10, 112140, Note_on_c, 8, 58, 100
10, 112199, Note_on_c, 8, 58, 0
10, 112200, Note_on_c, 8, 46, 100
10, 112259, Note_on_c, 8, 46, 0
10, 112260, Note_on_c, 8, 47, 100
10, 112319, Note_on_c, 8, 47, 0
10, 112320, Note_on_c, 8, 47, 100
10, 112379, Note_on_c, 8, 47, 0
10, 112380, Note_on_c, 8, 47, 100
10, 112439, Note_on_c, 8, 47, 0
10, 112440, Note_on_c, 8, 48, 100
10, 112499, Note_on_c, 8, 48, 0
10, 112500, Note_on_c, 8, 53, 100
10, 112559, Note_on_c, 8, 53, 0
10, 112560, Note_on_c, 8, 51, 100
10, 112619, Note_on_c, 8, 51, 0
10, 112620, Note_on_c, 8, 50, 100
10, 112679, Note_on_c, 8, 50, 0
10, 112680, Note_on_c, 8, 48, 100
10, 112739, Note_on_c, 8, 48, 0
10, 112740, Note_on_c, 8, 47, 100
10, 112799, Note_on_c, 8, 47, 0
10, 112800, Note_on_c, 8, 48, 100
10, 112859, Note_on_c, 8, 48, 0
10, 112860, Note_on_c, 8, 60, 100
10, 112919, Note_on_c, 8, 60, 0
10, 112920, Note_on_c, 8, 58, 100
10, 112979, Note_on_c, 8, 58, 0
10, 112980, Note_on_c, 8, 56, 100
10, 113039, Note_on_c, 8, 56, 0
10, 113040, Note_on_c, 8, 53, 100
10, 113099, Note_on_c, 8, 53, 0
10, 113160, Note_on_c, 8, 53, 100
10, 113219, Note_on_c, 8, 53, 0
10, 113220, Note_on_c, 8, 58, 100
10, 113279, Note_on_c, 8, 58, 0
10, 113280, Note_on_c, 8, 56, 100
10, 113339, Note_on_c, 8, 56, 0
10, 113340, Note_on_c, 8, 55, 100
10, 113399, Note_on_c, 8, 55, 0
10, 113400, Note_on_c, 8, 53, 100
10, 113459, Note_on_c, 8, 53, 0
10, 113520, Note_on_c, 8, 48, 100
10, 113579, Note_on_c, 8, 48, 0
10, 113580, Note_on_c, 8, 60, 100
10, 113609, Note_on_c, 8, 60, 0
10, 113610, Note_on_c, 8, 58, 100
10, 113639, Note_on_c, 8, 58, 0
10, 113640, Note_on_c, 8, 56, 100
10, 113669, Note_on_c, 8, 56, 0
10, 113670, Note_on_c, 8, 55, 100
10, 113699, Note_on_c, 8, 55, 0
10, 113700, Note_on_c, 8, 53, 100
10, 113819, Note_on_c, 8, 53, 0
10, 113880, Note_on_c, 8, 53, 100
10, 113939, Note_on_c, 8, 53, 0
10, 113940, Note_on_c, 8, 55, 100
10, 113999, Note_on_c, 8, 55, 0
10, 114000, Note_on_c, 8, 56, 100
10, 114059, Note_on_c, 8, 56, 0
10, 114060, Note_on_c, 8, 58, 100
10, 114089, Note_on_c, 8, 58, 0
10, 114090, Note_on_c, 8, 60, 100
10, 114119, Note_on_c, 8, 60, 0
10, 114120, Note_on_c, 8, 61, 100
10, 114179, Note_on_c, 8, 61, 0
10, 114240, Note_on_c, 8, 58, 100
10, 114299, Note_on_c, 8, 58, 0
10, 114300, Note_on_c, 8, 60, 100
10, 114359, Note_on_c, 8, 60, 0
10, 114360, Note_on_c, 8, 61, 100
10, 114419, Note_on_c, 8, 61, 0
10, 114420, Note_on_c, 8, 52, 100
10, 114449, Note_on_c, 8, 52, 0
10, 114450, Note_on_c, 8, 53, 100
10, 114479, Note_on_c, 8, 53, 0
10, 114480, Note_on_c, 8, 55, 100
10, 114539, Note_on_c, 8, 55, 0
10, 114600, Note_on_c, 8, 52, 100
10, 114659, Note_on_c, 8, 52, 0
10, 114660, Note_on_c, 8, 53, 100
10, 114719, Note_on_c, 8, 53, 0
10, 114720, Note_on_c, 8, 55, 100
10, 114779, Note_on_c, 8, 55, 0
10, 114780, Note_on_c, 8, 56, 100
10, 114809, Note_on_c, 8, 56, 0
10, 114810, Note_on_c, 8, 58, 100
10, 114839, Note_on_c, 8, 58, 0
10, 114840, Note_on_c, 8, 60, 100
10, 114899, Note_on_c, 8, 60, 0
10, 114960, Note_on_c, 8, 48, 100
10, 115019, Note_on_c, 8, 48, 0
10, 115020, Note_on_c, 8, 44, 100
10, 115079, Note_on_c, 8, 44, 0
10, 115080, Note_on_c, 8, 48, 100
10, 115139, Note_on_c, 8, 48, 0
10, 115140, Note_on_c, 8, 41, 100
10, 115259, Note_on_c, 8, 41, 0
10, 115320, Note_on_c, 8, 56, 100
10, 115379, Note_on_c, 8, 56, 0
10, 115380, Note_on_c, 8, 55, 100
10, 115439, Note_on_c, 8, 55, 0
10, 115440, Note_on_c, 8, 53, 100
10, 115499, Note_on_c, 8, 53, 0
10, 115500, Note_on_c, 8, 60, 100
10, 115559, Note_on_c, 8, 60, 0
10, 115560, Note_on_c, 8, 48, 100
10, 115619, Note_on_c, 8, 48, 0
10, 115680, Note_on_c, 8, 55, 100
10, 115739, Note_on_c, 8, 55, 0
10, 115740, Note_on_c, 8, 52, 100
10, 115799, Note_on_c, 8, 52, 0
10, 115800, Note_on_c, 8, 48, 100
10, 115859, Note_on_c, 8, 48, 0
10, 115860, Note_on_c, 8, 60, 100
10, 115919, Note_on_c, 8, 60, 0
10, 115920, Note_on_c, 8, 48, 100
10, 115979, Note_on_c, 8, 48, 0
10, 115980, Note_on_c, 8, 52, 100
10, 116039, Note_on_c, 8, 52, 0
10, 116040, Note_on_c, 8, 55, 100
10, 116099, Note_on_c, 8, 55, 0
10, 116100, Note_on_c, 8, 52, 100
10, 116159, Note_on_c, 8, 52, 0
10, 116160, Note_on_c, 8, 48, 100
10, 116219, Note_on_c, 8, 48, 0
10, 116220, Note_on_c, 8, 41, 100
10, 116279, Note_on_c, 8, 41, 0
10, 116280, Note_on_c, 8, 53, 100
10, 116339, Note_on_c, 8, 53, 0
10, 116400, Note_on_c, 8, 48, 100
10, 116459, Note_on_c, 8, 48, 0
10, 116460, Note_on_c, 8, 44, 100
10, 116519, Note_on_c, 8, 44, 0
10, 116520, Note_on_c, 8, 48, 100
10, 116579, Note_on_c, 8, 48, 0
10, 116580, Note_on_c, 8, 41, 100
10, 116699, Note_on_c, 8, 41, 0
10, 116760, Note_on_c, 8, 53, 100
10, 116819, Note_on_c, 8, 53, 0
10, 116820, Note_on_c, 8, 48, 100
10, 116879, Note_on_c, 8, 48, 0
10, 116880, Note_on_c, 8, 53, 100
10, 116939, Note_on_c, 8, 53, 0
10, 116940, Note_on_c, 8, 49, 100
10, 116999, Note_on_c, 8, 49, 0
10, 117000, Note_on_c, 8, 53, 100
10, 117030, Note_on_c, 8, 53, 0
10, 117030, Note_on_c, 8, 51, 100
10, 117060, Note_on_c, 8, 51, 0
10, 117060, Note_on_c, 8, 53, 100
10, 117119, Note_on_c, 8, 53, 0
10, 117120, Note_on_c, 8, 50, 100
10, 117179, Note_on_c, 8, 50, 0
10, 117180, Note_on_c, 8, 46, 100
10, 117239, Note_on_c, 8, 46, 0
10, 117240, Note_on_c, 8, 58, 100
10, 117299, Note_on_c, 8, 58, 0
10, 117300, Note_on_c, 8, 55, 100
10, 117419, Note_on_c, 8, 55, 0
10, 117480, Note_on_c, 8, 55, 100
10, 117539, Note_on_c, 8, 55, 0
10, 117540, Note_on_c, 8, 50, 100
10, 117599, Note_on_c, 8, 50, 0
10, 117600, Note_on_c, 8, 55, 100
10, 117659, Note_on_c, 8, 55, 0
10, 117660, Note_on_c, 8, 48, 100
10, 117690, Note_on_c, 8, 48, 0
10, 117690, Note_on_c, 8, 47, 100
10, 117720, Note_on_c, 8, 47, 0
10, 117720, Note_on_c, 8, 48, 100
10, 117750, Note_on_c, 8, 48, 0
10, 117750, Note_on_c, 8, 50, 100
10, 117780, Note_on_c, 8, 50, 0
10, 117780, Note_on_c, 8, 48, 100
10, 117839, Note_on_c, 8, 48, 0
10, 117840, Note_on_c, 8, 45, 100
10, 117899, Note_on_c, 8, 45, 0
10, 117900, Note_on_c, 8, 42, 100
10, 117959, Note_on_c, 8, 42, 0
10, 117960, Note_on_c, 8, 38, 100
10, 118019, Note_on_c, 8, 38, 0
10, 118020, Note_on_c, 8, 43, 100
10, 118079, Note_on_c, 8, 43, 0
10, 118080, Note_on_c, 8, 55, 100
10, 118139, Note_on_c, 8, 55, 0
10, 118170, Note_on_c, 8, 46, 100
10, 118199, Note_on_c, 8, 46, 0
10, 118200, Note_on_c, 8, 48, 100
10, 118229, Note_on_c, 8, 48, 0
10, 118230, Note_on_c, 8, 50, 100
10, 118259, Note_on_c, 8, 50, 0
10, 118260, Note_on_c, 8, 51, 100
10, 118319, Note_on_c, 8, 51, 0
10, 118320, Note_on_c, 8, 39, 100
10, 118379, Note_on_c, 8, 39, 0
10, 118380, Note_on_c, 8, 44, 100
10, 118439, Note_on_c, 8, 44, 0
10, 118440, Note_on_c, 8, 56, 100
10, 118499, Note_on_c, 8, 56, 0
10, 118530, Note_on_c, 8, 48, 100
10, 118559, Note_on_c, 8, 48, 0
10, 118560, Note_on_c, 8, 50, 100
10, 118589, Note_on_c, 8, 50, 0
10, 118590, Note_on_c, 8, 51, 100
10, 118619, Note_on_c, 8, 51, 0
10, 118620, Note_on_c, 8, 53, 100
10, 118679, Note_on_c, 8, 53, 0
10, 118680, Note_on_c, 8, 41, 100
10, 118739, Note_on_c, 8, 41, 0
10, 118740, Note_on_c, 8, 46, 100
10, 118799, Note_on_c, 8, 46, 0
10, 118800, Note_on_c, 8, 58, 100
10, 118859, Note_on_c, 8, 58, 0
10, 118890, Note_on_c, 8, 50, 100
10, 118919, Note_on_c, 8, 50, 0
10, 118920, Note_on_c, 8, 51, 100
10, 118949, Note_on_c, 8, 51, 0
10, 118950, Note_on_c, 8, 53, 100
10, 118979, Note_on_c, 8, 53, 0
10, 118980, Note_on_c, 8, 55, 100
10, 119039, Note_on_c, 8, 55, 0
10, 119040, Note_on_c, 8, 43, 100
10, 119099, Note_on_c, 8, 43, 0
10, 119100, Note_on_c, 8, 48, 100
10, 119219, Note_on_c, 8, 48, 0
10, 119280, Note_on_c, 8, 60, 100
10, 119339, Note_on_c, 8, 60, 0
10, 119340, Note_on_c, 8, 55, 100
10, 119399, Note_on_c, 8, 55, 0
10, 119400, Note_on_c, 8, 60, 100
10, 119459, Note_on_c, 8, 60, 0
10, 119460, Note_on_c, 8, 48, 100
10, 119579, Note_on_c, 8, 48, 0
10, 119820, Note_on_c, 8, 49, 100
10, 119879, Note_on_c, 8, 49, 0
10, 119880, Note_on_c, 8, 53, 100
10, 119939, Note_on_c, 8, 53, 0
10, 119940, Note_on_c, 8, 56, 100
10, 119999, Note_on_c, 8, 56, 0
10, 120000, Note_on_c, 8, 61, 100
10, 120059, Note_on_c, 8, 61, 0
10, 120060, Note_on_c, 8, 65, 100
10, 120119, Note_on_c, 8, 65, 0
10, 120120, Note_on_c, 8, 58, 100
10, 120179, Note_on_c, 8, 58, 0
10, 120180, Note_on_c, 8, 60, 100
10, 120299, Note_on_c, 8, 60, 0
10, 120540, Note_on_c, 8, 58, 100
10, 120600, Note_on_c, 8, 58, 0
10, 120600, Note_on_c, 8, 49, 100
10, 120629, Note_on_c, 8, 49, 0
10, 120630, Note_on_c, 8, 53, 100
10, 120659, Note_on_c, 8, 53, 0
10, 120660, Note_on_c, 8, 46, 100
10, 120720, Note_on_c, 8, 46, 0
10, 120810, Note_on_c, 8, 46, 100
10, 120839, Note_on_c, 8, 46, 0
10, 120840, Note_on_c, 8, 49, 100
10, 120869, Note_on_c, 8, 49, 0
10, 120870, Note_on_c, 8, 53, 100
10, 120899, Note_on_c, 8, 53, 0
10, 120900, Note_on_c, 8, 56, 100
10, 120960, Note_on_c, 8, 56, 0
10, 120960, Note_on_c, 8, 56, 100
10, 121020, Note_on_c, 8, 56, 0
10, 121020, Note_on_c, 8, 56, 100
10, 121080, Note_on_c, 8, 56, 0
10, 121080, Note_on_c, 8, 56, 100
10, 121140, Note_on_c, 8, 56, 0
10, 121140, Note_on_c, 8, 56, 100
10, 121200, Note_on_c, 8, 56, 0
10, 121200, Note_on_c, 8, 56, 100
10, 121260, Note_on_c, 8, 56, 0
10, 121260, Note_on_c, 8, 55, 100
10, 121320, Note_on_c, 8, 55, 0
10, 121320, Note_on_c, 8, 51, 100
10, 121380, Note_on_c, 8, 51, 0
10, 121380, Note_on_c, 8, 60, 100
10, 121440, Note_on_c, 8, 60, 0
10, 121530, Note_on_c, 8, 51, 100
10, 121560, Note_on_c, 8, 51, 0
10, 121560, Note_on_c, 8, 56, 100
10, 121590, Note_on_c, 8, 56, 0
10, 121590, Note_on_c, 8, 60, 100
10, 121620, Note_on_c, 8, 60, 0
10, 121620, Note_on_c, 8, 55, 100
10, 121680, Note_on_c, 8, 55, 0
10, 121680, Note_on_c, 8, 55, 100
10, 121740, Note_on_c, 8, 55, 0
10, 121740, Note_on_c, 8, 55, 100
10, 121800, Note_on_c, 8, 55, 0
10, 121800, Note_on_c, 8, 55, 100
10, 121860, Note_on_c, 8, 55, 0
10, 121860, Note_on_c, 8, 55, 100
10, 121920, Note_on_c, 8, 55, 0
10, 121920, Note_on_c, 8, 55, 100
10, 121980, Note_on_c, 8, 55, 0
10, 121980, Note_on_c, 8, 56, 100
10, 122099, Note_on_c, 8, 56, 0
10, 122250, Note_on_c, 8, 60, 100
10, 122280, Note_on_c, 8, 60, 0
10, 122280, Note_on_c, 8, 58, 100
10, 122310, Note_on_c, 8, 58, 0
10, 122310, Note_on_c, 8, 56, 100
10, 122340, Note_on_c, 8, 56, 0
10, 122340, Note_on_c, 8, 55, 100
10, 122459, Note_on_c, 8, 55, 0
10, 122520, Note_on_c, 8, 55, 100
10, 122579, Note_on_c, 8, 55, 0
10, 122580, Note_on_c, 8, 60, 100
10, 122639, Note_on_c, 8, 60, 0
10, 122640, Note_on_c, 8, 48, 100
10, 122699, Note_on_c, 8, 48, 0
10, 122700, Note_on_c, 8, 53, 100
10, 122819, Note_on_c, 8, 53, 0
10, 122970, Note_on_c, 8, 51, 100
10, 123000, Note_on_c, 8, 51, 0
10, 123000, Note_on_c, 8, 50, 100
10, 123030, Note_on_c, 8, 50, 0
10, 123030, Note_on_c, 8, 48, 100
10, 123060, Note_on_c, 8, 48, 0
10, 123060, Note_on_c, 8, 50, 100
10, 123179, Note_on_c, 8, 50, 0
10, 123240, Note_on_c, 8, 53, 100
10, 123299, Note_on_c, 8, 53, 0
10, 123300, Note_on_c, 8, 55, 100
10, 123359, Note_on_c, 8, 55, 0
10, 123360, Note_on_c, 8, 43, 100
10, 123419, Note_on_c, 8, 43, 0
10, 123420, Note_on_c, 8, 36, 100
10, 123479, Note_on_c, 8, 36, 0
10, 123480, Note_on_c, 8, 48, 100
10, 123509, Note_on_c, 8, 48, 0
10, 123510, Note_on_c, 8, 50, 100
10, 123539, Note_on_c, 8, 50, 0
10, 123540, Note_on_c, 8, 51, 100
10, 123599, Note_on_c, 8, 51, 0
10, 123720, Note_on_c, 8, 55, 100
10, 123779, Note_on_c, 8, 55, 0
10, 123780, Note_on_c, 8, 48, 100
10, 123839, Note_on_c, 8, 48, 0
10, 123960, Note_on_c, 8, 47, 100
10, 124019, Note_on_c, 8, 47, 0
10, 124020, Note_on_c, 8, 48, 100
10, 124079, Note_on_c, 8, 48, 0
10, 124080, Note_on_c, 8, 50, 100
10, 124139, Note_on_c, 8, 50, 0
10, 124140, Note_on_c, 8, 51, 100
10, 124199, Note_on_c, 8, 51, 0
10, 124200, Note_on_c, 8, 51, 100
10, 124229, Note_on_c, 8, 51, 0
10, 124230, Note_on_c, 8, 50, 100
10, 124259, Note_on_c, 8, 50, 0
10, 124260, Note_on_c, 8, 51, 100
10, 124319, Note_on_c, 8, 51, 0
10, 124320, Note_on_c, 8, 48, 100
10, 124379, Note_on_c, 8, 48, 0
10, 124380, Note_on_c, 8, 56, 100
10, 124439, Note_on_c, 8, 56, 0
10, 124440, Note_on_c, 8, 44, 100
10, 124499, Note_on_c, 8, 44, 0
10, 124560, Note_on_c, 8, 43, 100
10, 124619, Note_on_c, 8, 43, 0
10, 124620, Note_on_c, 8, 47, 100
10, 124679, Note_on_c, 8, 47, 0
10, 124680, Note_on_c, 8, 50, 100
10, 124739, Note_on_c, 8, 50, 0
10, 124740, Note_on_c, 8, 55, 100
10, 124769, Note_on_c, 8, 55, 0
10, 124770, Note_on_c, 8, 56, 100
10, 124799, Note_on_c, 8, 56, 0
10, 124800, Note_on_c, 8, 55, 100
10, 124829, Note_on_c, 8, 55, 0
10, 124830, Note_on_c, 8, 53, 100
10, 124859, Note_on_c, 8, 53, 0
10, 124860, Note_on_c, 8, 52, 100
10, 124919, Note_on_c, 8, 52, 0
10, 124920, Note_on_c, 8, 48, 100
10, 124979, Note_on_c, 8, 48, 0
10, 124980, Note_on_c, 8, 52, 100
10, 125039, Note_on_c, 8, 52, 0
10, 125040, Note_on_c, 8, 55, 100
10, 125099, Note_on_c, 8, 55, 0
10, 125100, Note_on_c, 8, 52, 100
10, 125129, Note_on_c, 8, 52, 0
10, 125130, Note_on_c, 8, 48, 100
10, 125159, Note_on_c, 8, 48, 0
10, 125160, Note_on_c, 8, 46, 100
10, 125189, Note_on_c, 8, 46, 0
10, 125190, Note_on_c, 8, 48, 100
10, 125219, Note_on_c, 8, 48, 0
10, 125220, Note_on_c, 8, 41, 100
10, 125279, Note_on_c, 8, 41, 0
10, 125340, Note_on_c, 8, 53, 100
10, 125399, Note_on_c, 8, 53, 0
10, 125400, Note_on_c, 8, 56, 100
10, 125459, Note_on_c, 8, 56, 0
10, 125460, Note_on_c, 8, 60, 100
10, 125519, Note_on_c, 8, 60, 0
10, 125520, Note_on_c, 8, 56, 100
10, 125579, Note_on_c, 8, 56, 0
10, 125580, Note_on_c, 8, 55, 100
10, 125639, Note_on_c, 8, 55, 0
10, 125640, Note_on_c, 8, 43, 100
10, 125699, Note_on_c, 8, 43, 0
10, 125700, Note_on_c, 8, 47, 100
10, 125759, Note_on_c, 8, 47, 0
10, 125760, Note_on_c, 8, 50, 100
10, 125819, Note_on_c, 8, 50, 0
10, 125820, Note_on_c, 8, 47, 100
10, 125849, Note_on_c, 8, 47, 0
10, 125850, Note_on_c, 8, 43, 100
10, 125879, Note_on_c, 8, 43, 0
10, 125880, Note_on_c, 8, 41, 100
10, 125909, Note_on_c, 8, 41, 0
10, 125910, Note_on_c, 8, 43, 100
10, 125939, Note_on_c, 8, 43, 0
10, 125940, Note_on_c, 8, 36, 100
10, 125999, Note_on_c, 8, 36, 0
10, 126060, Note_on_c, 8, 48, 100
10, 126119, Note_on_c, 8, 48, 0
10, 126120, Note_on_c, 8, 51, 100
10, 126179, Note_on_c, 8, 51, 0
10, 126180, Note_on_c, 8, 55, 100
10, 126239, Note_on_c, 8, 55, 0
10, 126240, Note_on_c, 8, 51, 100
10, 126299, Note_on_c, 8, 51, 0
10, 126300, Note_on_c, 8, 53, 100
10, 126329, Note_on_c, 8, 53, 0
10, 126330, Note_on_c, 8, 56, 100
10, 126359, Note_on_c, 8, 56, 0
10, 126360, Note_on_c, 8, 55, 100
10, 126389, Note_on_c, 8, 55, 0
10, 126390, Note_on_c, 8, 56, 100
10, 126419, Note_on_c, 8, 56, 0
10, 126420, Note_on_c, 8, 46, 100
10, 126479, Note_on_c, 8, 46, 0
10, 126600, Note_on_c, 8, 58, 100
10, 126659, Note_on_c, 8, 58, 0
10, 126660, Note_on_c, 8, 51, 100
10, 126689, Note_on_c, 8, 51, 0
10, 126690, Note_on_c, 8, 55, 100
10, 126719, Note_on_c, 8, 55, 0
10, 126720, Note_on_c, 8, 53, 100
10, 126749, Note_on_c, 8, 53, 0
10, 126750, Note_on_c, 8, 55, 100
10, 126779, Note_on_c, 8, 55, 0
10, 126780, Note_on_c, 8, 44, 100
10, 126839, Note_on_c, 8, 44, 0
10, 126960, Note_on_c, 8, 56, 100
10, 127019, Note_on_c, 8, 56, 0
10, 127020, Note_on_c, 8, 50, 100
10, 127049, Note_on_c, 8, 50, 0
10, 127050, Note_on_c, 8, 53, 100
10, 127079, Note_on_c, 8, 53, 0
10, 127080, Note_on_c, 8, 51, 100
10, 127109, Note_on_c, 8, 51, 0
10, 127110, Note_on_c, 8, 53, 100
10, 127139, Note_on_c, 8, 53, 0
10, 127140, Note_on_c, 8, 43, 100
10, 127199, Note_on_c, 8, 43, 0
10, 127320, Note_on_c, 8, 43, 100
10, 127379, Note_on_c, 8, 43, 0
10, 127380, Note_on_c, 8, 36, 100
10, 127439, Note_on_c, 8, 36, 0
10, 127440, Note_on_c, 8, 48, 100
10, 127469, Note_on_c, 8, 48, 0
10, 127470, Note_on_c, 8, 50, 100
10, 127499, Note_on_c, 8, 50, 0
10, 127500, Note_on_c, 8, 51, 100
10, 127559, Note_on_c, 8, 51, 0
10, 127680, Note_on_c, 8, 55, 100
10, 127739, Note_on_c, 8, 55, 0
10, 127740, Note_on_c, 8, 48, 100
10, 127800, Note_on_c, 8, 48, 0
10, 127920, Note_on_c, 8, 47, 100
10, 127980, Note_on_c, 8, 47, 0
10, 127980, Note_on_c, 8, 48, 100
10, 128040, Note_on_c, 8, 48, 0
10, 128040, Note_on_c, 8, 50, 100
10, 128100, Note_on_c, 8, 50, 0
10, 128100, Note_on_c, 8, 51, 100
10, 128160, Note_on_c, 8, 51, 0
10, 128160, Note_on_c, 8, 51, 100
10, 128189, Note_on_c, 8, 51, 0
10, 128190, Note_on_c, 8, 50, 100
10, 128219, Note_on_c, 8, 50, 0
10, 128220, Note_on_c, 8, 51, 100
10, 128280, Note_on_c, 8, 51, 0
10, 128280, Note_on_c, 8, 48, 100
10, 128340, Note_on_c, 8, 48, 0
10, 128340, Note_on_c, 8, 56, 100
10, 128400, Note_on_c, 8, 56, 0
10, 128400, Note_on_c, 8, 44, 100
10, 128460, Note_on_c, 8, 44, 0
10, 128520, Note_on_c, 8, 43, 100
10, 128549, Note_on_c, 8, 43, 0
10, 128550, Note_on_c, 8, 45, 100
10, 128579, Note_on_c, 8, 45, 0
10, 128580, Note_on_c, 8, 47, 100
10, 128639, Note_on_c, 8, 47, 0
10, 128640, Note_on_c, 8, 50, 100
10, 128699, Note_on_c, 8, 50, 0
10, 128700, Note_on_c, 8, 55, 100
10, 128759, Note_on_c, 8, 55, 0
10, 128760, Note_on_c, 8, 53, 100
10, 128819, Note_on_c, 8, 53, 0
10, 128820, Note_on_c, 8, 52, 100
10, 128879, Note_on_c, 8, 52, 0
10, 128880, Note_on_c, 8, 52, 100
10, 128939, Note_on_c, 8, 52, 0
10, 128940, Note_on_c, 8, 52, 100
10, 128999, Note_on_c, 8, 52, 0
10, 129000, Note_on_c, 8, 53, 100
10, 129059, Note_on_c, 8, 53, 0
10, 129060, Note_on_c, 8, 58, 100
10, 129119, Note_on_c, 8, 58, 0
10, 129120, Note_on_c, 8, 56, 100
10, 129179, Note_on_c, 8, 56, 0
10, 129180, Note_on_c, 8, 55, 100
10, 129239, Note_on_c, 8, 55, 0
10, 129240, Note_on_c, 8, 53, 100
10, 129299, Note_on_c, 8, 53, 0
10, 129300, Note_on_c, 8, 52, 100
10, 129359, Note_on_c, 8, 52, 0
10, 129360, Note_on_c, 8, 53, 100
10, 129419, Note_on_c, 8, 53, 0
10, 129420, Note_on_c, 8, 41, 100
10, 129479, Note_on_c, 8, 41, 0
10, 129480, Note_on_c, 8, 53, 100
10, 129539, Note_on_c, 8, 53, 0
10, 129540, Note_on_c, 8, 54, 100
10, 129599, Note_on_c, 8, 54, 0
10, 129600, Note_on_c, 8, 54, 100
10, 129659, Note_on_c, 8, 54, 0
10, 129660, Note_on_c, 8, 54, 100
10, 129719, Note_on_c, 8, 54, 0
10, 129720, Note_on_c, 8, 55, 100
10, 129779, Note_on_c, 8, 55, 0
10, 129780, Note_on_c, 8, 60, 100
10, 129839, Note_on_c, 8, 60, 0
10, 129840, Note_on_c, 8, 58, 100
10, 129899, Note_on_c, 8, 58, 0
10, 129900, Note_on_c, 8, 56, 100
10, 129959, Note_on_c, 8, 56, 0
10, 129960, Note_on_c, 8, 55, 100
10, 130019, Note_on_c, 8, 55, 0
10, 130020, Note_on_c, 8, 54, 100
10, 130079, Note_on_c, 8, 54, 0
10, 130080, Note_on_c, 8, 55, 100
10, 130139, Note_on_c, 8, 55, 0
10, 130140, Note_on_c, 8, 43, 100
10, 130199, Note_on_c, 8, 43, 0
10, 130200, Note_on_c, 8, 55, 100
10, 130259, Note_on_c, 8, 55, 0
10, 130260, Note_on_c, 8, 51, 100
10, 130319, Note_on_c, 8, 51, 0
10, 130320, Note_on_c, 8, 48, 100
10, 130379, Note_on_c, 8, 48, 0
10, 130440, Note_on_c, 8, 48, 100
10, 130499, Note_on_c, 8, 48, 0
10, 130500, Note_on_c, 8, 53, 100
10, 130559, Note_on_c, 8, 53, 0
10, 130560, Note_on_c, 8, 51, 100
10, 130619, Note_on_c, 8, 51, 0
10, 130620, Note_on_c, 8, 50, 100
10, 130679, Note_on_c, 8, 50, 0
10, 130680, Note_on_c, 8, 48, 100
10, 130739, Note_on_c, 8, 48, 0
10, 130740, Note_on_c, 8, 47, 100
10, 130799, Note_on_c, 8, 47, 0
10, 130800, Note_on_c, 8, 43, 100
10, 130859, Note_on_c, 8, 43, 0
10, 130860, Note_on_c, 8, 55, 100
10, 130919, Note_on_c, 8, 55, 0
10, 130920, Note_on_c, 8, 43, 100
10, 130979, Note_on_c, 8, 43, 0
10, 130980, Note_on_c, 8, 48, 100
10, 131039, Note_on_c, 8, 48, 0
10, 131040, Note_on_c, 8, 53, 100
10, 131099, Note_on_c, 8, 53, 0
10, 131100, Note_on_c, 8, 51, 100
10, 131159, Note_on_c, 8, 51, 0
10, 131160, Note_on_c, 8, 39, 100
10, 131219, Note_on_c, 8, 39, 0
10, 131220, Note_on_c, 8, 38, 100
10, 131279, Note_on_c, 8, 38, 0
10, 131280, Note_on_c, 8, 50, 100
10, 131339, Note_on_c, 8, 50, 0
10, 131340, Note_on_c, 8, 43, 100
10, 131369, Note_on_c, 8, 43, 0
10, 131370, Note_on_c, 8, 47, 100
10, 131399, Note_on_c, 8, 47, 0
10, 131400, Note_on_c, 8, 50, 100
10, 131429, Note_on_c, 8, 50, 0
10, 131430, Note_on_c, 8, 55, 100
10, 131459, Note_on_c, 8, 55, 0
10, 131460, Note_on_c, 8, 43, 100
10, 131519, Note_on_c, 8, 43, 0
10, 131700, Note_on_c, 8, 43, 100
10, 131730, Note_on_c, 8, 43, 0
10, 131730, Note_on_c, 8, 48, 100
10, 131760, Note_on_c, 8, 48, 0
10, 131760, Note_on_c, 8, 51, 100
10, 131790, Note_on_c, 8, 51, 0
10, 131790, Note_on_c, 8, 55, 100
10, 131820, Note_on_c, 8, 55, 0
10, 131820, Note_on_c, 8, 43, 100
10, 131879, Note_on_c, 8, 43, 0
10, 132060, Note_on_c, 8, 43, 100
10, 132090, Note_on_c, 8, 43, 0
10, 132090, Note_on_c, 8, 47, 100
10, 132120, Note_on_c, 8, 47, 0
10, 132120, Note_on_c, 8, 50, 100
10, 132150, Note_on_c, 8, 50, 0
10, 132150, Note_on_c, 8, 55, 100
10, 132180, Note_on_c, 8, 55, 0
10, 132180, Note_on_c, 8, 43, 100
10, 132239, Note_on_c, 8, 43, 0
10, 132420, Note_on_c, 8, 48, 100
10, 132540, Note_on_c, 8, 48, 0
10, 132600, Note_on_c, 8, 48, 100
10, 132660, Note_on_c, 8, 48, 0
10, 132660, Note_on_c, 8, 53, 100
10, 132720, Note_on_c, 8, 53, 0
10, 132720, Note_on_c, 8, 50, 100
10, 132780, Note_on_c, 8, 50, 0
10, 132780, Note_on_c, 8, 51, 100
10, 132900, Note_on_c, 8, 51, 0
10, 132960, Note_on_c, 8, 48, 100
10, 133020, Note_on_c, 8, 48, 0
10, 133020, Note_on_c, 8, 51, 100
10, 133080, Note_on_c, 8, 51, 0
10, 133080, Note_on_c, 8, 48, 100
10, 133140, Note_on_c, 8, 48, 0
10, 133140, Note_on_c, 8, 50, 100
10, 133260, Note_on_c, 8, 50, 0
10, 133320, Note_on_c, 8, 53, 100
10, 133380, Note_on_c, 8, 53, 0
10, 133380, Note_on_c, 8, 43, 100
10, 133440, Note_on_c, 8, 43, 0
10, 133440, Note_on_c, 8, 47, 100
10, 133500, Note_on_c, 8, 47, 0
10, 133500, Note_on_c, 8, 48, 100
10, 133530, Note_on_c, 8, 48, 0
10, 133530, Note_on_c, 8, 60, 100
10, 133560, Note_on_c, 8, 60, 0
10, 133560, Note_on_c, 8, 58, 100
10, 133590, Note_on_c, 8, 58, 0
10, 133590, Note_on_c, 8, 56, 100
10, 133620, Note_on_c, 8, 56, 0
10, 133620, Note_on_c, 8, 55, 100
10, 133650, Note_on_c, 8, 55, 0
10, 133650, Note_on_c, 8, 53, 100
10, 133680, Note_on_c, 8, 53, 0
10, 133680, Note_on_c, 8, 51, 100
10, 133710, Note_on_c, 8, 51, 0
10, 133710, Note_on_c, 8, 50, 100
10, 133740, Note_on_c, 8, 50, 0
10, 133740, Note_on_c, 8, 48, 100
10, 133770, Note_on_c, 8, 48, 0
10, 133770, Note_on_c, 8, 51, 100
10, 133800, Note_on_c, 8, 51, 0
10, 133800, Note_on_c, 8, 50, 100
10, 133830, Note_on_c, 8, 50, 0
10, 133830, Note_on_c, 8, 48, 100
10, 133860, Note_on_c, 8, 48, 0
10, 133860, Note_on_c, 8, 47, 100
10, 133890, Note_on_c, 8, 47, 0
10, 133890, Note_on_c, 8, 43, 100
10, 133920, Note_on_c, 8, 43, 0
10, 133920, Note_on_c, 8, 45, 100
10, 133950, Note_on_c, 8, 45, 0
10, 133950, Note_on_c, 8, 47, 100
10, 133980, Note_on_c, 8, 47, 0
10, 133980, Note_on_c, 8, 48, 100
10, 134010, Note_on_c, 8, 48, 0
10, 134010, Note_on_c, 8, 50, 100
10, 134040, Note_on_c, 8, 50, 0
10, 134040, Note_on_c, 8, 51, 100
10, 134070, Note_on_c, 8, 51, 0
10, 134070, Note_on_c, 8, 53, 100
10, 134100, Note_on_c, 8, 53, 0
10, 134100, Note_on_c, 8, 55, 100
10, 134160, Note_on_c, 8, 55, 0
10, 134160, Note_on_c, 8, 43, 100
10, 134220, Note_on_c, 8, 43, 0
10, 134220, Note_on_c, 8, 48, 100
10, 134280, Note_on_c, 8, 48, 0
10, 134280, Note_on_c, 8, 36, 100
10, 134340, Note_on_c, 8, 36, 0
10, 134340, Note_on_c, 8, 36, 100
10, 134400, Note_on_c, 8, 36, 0
10, 134400, Note_on_c, 8, 36, 100
10, 134460, Note_on_c, 8, 36, 0
10, 134460, Note_on_c, 8, 36, 100
10, 134520, Note_on_c, 8, 36, 0
10, 134520, Note_on_c, 8, 36, 100
10, 134580, Note_on_c, 8, 36, 0
10, 134580, Note_on_c, 8, 36, 100
10, 134700, Note_on_c, 8, 36, 0
10, 134700, End_track
11, 0, Start_track
11, 0, MIDI_port, 0
11, 0, Title_t, "J.S.BACH"
11, 0, End_track
12, 0, Start_track
12, 0, MIDI_port, 0
12, 0, Title_t, "BWV 1062"
12, 0, End_track
13, 0, Start_track
13, 0, MIDI_port, 0
13, 0, Title_t, "CONCERTO FOR TWO HARPSICHORDS"
13, 0, End_track
14, 0, Start_track
14, 0, MIDI_port, 0
14, 0, Title_t, "IN C MINOR"
14, 0, End_track
15, 0, Start_track
15, 0, MIDI_port, 0
15, 0, Title_t, "SECUENCED BY"
15, 0, End_track
16, 0, Start_track
16, 0, MIDI_port, 0
16, 0, Title_t, "MARCELO COPIA M"
16, 0, End_track
17, 0, Start_track
17, 0, MIDI_port, 0
17, 0, Title_t, "mcopia@entelchile.net"
17, 0, End_track
0, 0, End_of_file
