0, 0, Header, 1, 17, 120
1, 0, Start_track
1, 0, Title_t, "untitled"
1, 0, Copyright_t, "Copyright © 1997 by David J. Grossman"
1, 0, Text_t, "David J. Grossman"
1, 0, SMPTE_offset, 96, 0, 3, 0, 0
1, 0, Time_signature, 4, 1, 48, 8
1, 0, Key_signature, -1, "major"
1, 0, Tempo, 333333
1, 0, End_track
2, 0, Start_track
2, 0, MIDI_port, 0
2, 0, Program_c, 0, 24
2, 0, Control_c, 0, 7, 100
2, 0, Control_c, 0, 10, 29
2, 240, Note_on_c, 0, 65, 100
2, 480, Note_on_c, 0, 65, 0
2, 480, Note_on_c, 0, 67, 100
2, 960, Note_on_c, 0, 67, 0
2, 960, Note_on_c, 0, 69, 100
2, 1080, Note_on_c, 0, 69, 0
2, 1080, Note_on_c, 0, 70, 100
2, 1200, Note_on_c, 0, 70, 0
2, 1200, Note_on_c, 0, 72, 100
2, 1320, Note_on_c, 0, 72, 0
2, 1320, Note_on_c, 0, 74, 100
2, 1440, Note_on_c, 0, 74, 0
2, 1440, Note_on_c, 0, 76, 100
2, 1560, Note_on_c, 0, 76, 0
2, 1560, Note_on_c, 0, 77, 100
2, 1680, Note_on_c, 0, 77, 0
2, 1680, Note_on_c, 0, 79, 100
2, 2040, Note_on_c, 0, 79, 0
2, 2040, Note_on_c, 0, 77, 100
2, 2100, Note_on_c, 0, 77, 0
2, 2100, Note_on_c, 0, 76, 100
2, 2160, Note_on_c, 0, 76, 0
2, 2160, Note_on_c, 0, 77, 100
2, 2400, Note_on_c, 0, 77, 0
2, 2520, Note_on_c, 0, 74, 100
2, 2760, Note_on_c, 0, 74, 0
2, 2760, Note_on_c, 0, 72, 100
2, 2820, Note_on_c, 0, 72, 0
2, 2820, Note_on_c, 0, 70, 100
2, 2880, Note_on_c, 0, 70, 0
2, 2880, Note_on_c, 0, 69, 100
2, 3360, Note_on_c, 0, 69, 0
2, 3360, Note_on_c, 0, 67, 100
2, 3840, Note_on_c, 0, 67, 0
2, 3840, Note_on_c, 0, 65, 100
2, 4200, Note_on_c, 0, 65, 0
2, 4200, Note_on_c, 0, 62, 100
2, 4320, Note_on_c, 0, 62, 0
2, 4320, Note_on_c, 0, 67, 100
2, 4680, Note_on_c, 0, 67, 0
2, 4680, Note_on_c, 0, 60, 100
2, 4800, Note_on_c, 0, 60, 0
2, 4800, Note_on_c, 0, 65, 100
2, 5040, Note_on_c, 0, 65, 0
2, 5400, Note_on_c, 0, 70, 100
2, 5640, Note_on_c, 0, 70, 0
2, 5640, Note_on_c, 0, 72, 100
2, 5880, Note_on_c, 0, 72, 0
2, 5880, Note_on_c, 0, 74, 100
2, 5940, Note_on_c, 0, 74, 0
2, 5940, Note_on_c, 0, 72, 100
2, 5970, Note_on_c, 0, 72, 0
2, 5970, Note_on_c, 0, 70, 100
2, 6000, Note_on_c, 0, 70, 0
2, 6000, Note_on_c, 0, 69, 100
2, 6060, Note_on_c, 0, 69, 0
2, 6060, Note_on_c, 0, 65, 100
2, 6120, Note_on_c, 0, 65, 0
2, 6120, Note_on_c, 0, 77, 100
2, 6240, Note_on_c, 0, 77, 0
2, 6240, Note_on_c, 0, 76, 100
2, 6360, Note_on_c, 0, 76, 0
2, 6360, Note_on_c, 0, 74, 100
2, 6480, Note_on_c, 0, 74, 0
2, 6480, Note_on_c, 0, 76, 100
2, 6600, Note_on_c, 0, 76, 0
2, 6960, Note_on_c, 0, 65, 100
2, 7200, Note_on_c, 0, 65, 0
2, 7200, Note_on_c, 0, 67, 100
2, 7680, Note_on_c, 0, 67, 0
2, 7680, Note_on_c, 0, 69, 100
2, 7800, Note_on_c, 0, 69, 0
2, 7800, Note_on_c, 0, 70, 100
2, 7920, Note_on_c, 0, 70, 0
2, 7920, Note_on_c, 0, 72, 100
2, 8040, Note_on_c, 0, 72, 0
2, 8040, Note_on_c, 0, 74, 100
2, 8160, Note_on_c, 0, 74, 0
2, 8160, Note_on_c, 0, 76, 100
2, 8280, Note_on_c, 0, 76, 0
2, 8280, Note_on_c, 0, 77, 100
2, 8400, Note_on_c, 0, 77, 0
2, 8400, Note_on_c, 0, 79, 100
2, 8760, Note_on_c, 0, 79, 0
2, 8760, Note_on_c, 0, 77, 100
2, 8820, Note_on_c, 0, 77, 0
2, 8820, Note_on_c, 0, 76, 100
2, 8880, Note_on_c, 0, 76, 0
2, 8880, Note_on_c, 0, 77, 100
2, 9120, Note_on_c, 0, 77, 0
2, 9240, Note_on_c, 0, 74, 100
2, 9480, Note_on_c, 0, 74, 0
2, 9480, Note_on_c, 0, 72, 100
2, 9540, Note_on_c, 0, 72, 0
2, 9540, Note_on_c, 0, 70, 100
2, 9600, Note_on_c, 0, 70, 0
2, 9600, Note_on_c, 0, 69, 100
2, 10080, Note_on_c, 0, 69, 0
2, 10080, Note_on_c, 0, 67, 100
2, 10560, Note_on_c, 0, 67, 0
2, 10560, Note_on_c, 0, 65, 100
2, 10920, Note_on_c, 0, 65, 0
2, 10920, Note_on_c, 0, 62, 100
2, 11040, Note_on_c, 0, 62, 0
2, 11040, Note_on_c, 0, 67, 100
2, 11400, Note_on_c, 0, 67, 0
2, 11400, Note_on_c, 0, 60, 100
2, 11520, Note_on_c, 0, 60, 0
2, 11520, Note_on_c, 0, 65, 100
2, 11760, Note_on_c, 0, 65, 0
2, 12120, Note_on_c, 0, 70, 100
2, 12360, Note_on_c, 0, 70, 0
2, 12360, Note_on_c, 0, 72, 100
2, 12600, Note_on_c, 0, 72, 0
2, 12600, Note_on_c, 0, 74, 100
2, 12660, Note_on_c, 0, 74, 0
2, 12660, Note_on_c, 0, 72, 100
2, 12690, Note_on_c, 0, 72, 0
2, 12690, Note_on_c, 0, 70, 100
2, 12720, Note_on_c, 0, 70, 0
2, 12720, Note_on_c, 0, 69, 100
2, 12780, Note_on_c, 0, 69, 0
2, 12780, Note_on_c, 0, 65, 100
2, 12840, Note_on_c, 0, 65, 0
2, 12840, Note_on_c, 0, 77, 100
2, 12960, Note_on_c, 0, 77, 0
2, 12960, Note_on_c, 0, 76, 100
2, 13080, Note_on_c, 0, 76, 0
2, 13080, Note_on_c, 0, 74, 100
2, 13200, Note_on_c, 0, 74, 0
2, 13200, Note_on_c, 0, 76, 100
2, 13320, Note_on_c, 0, 76, 0
2, 13680, Note_on_c, 0, 65, 100
2, 13920, Note_on_c, 0, 65, 0
2, 13920, Note_on_c, 0, 67, 100
2, 14400, Note_on_c, 0, 67, 0
2, 14400, Note_on_c, 0, 69, 100
2, 14520, Note_on_c, 0, 69, 0
2, 14520, Note_on_c, 0, 70, 100
2, 14640, Note_on_c, 0, 70, 0
2, 14640, Note_on_c, 0, 72, 100
2, 14760, Note_on_c, 0, 72, 0
2, 14760, Note_on_c, 0, 74, 100
2, 14880, Note_on_c, 0, 74, 0
2, 14880, Note_on_c, 0, 76, 100
2, 15000, Note_on_c, 0, 76, 0
2, 15000, Note_on_c, 0, 77, 100
2, 15120, Note_on_c, 0, 77, 0
2, 15120, Note_on_c, 0, 79, 100
2, 15480, Note_on_c, 0, 79, 0
2, 15480, Note_on_c, 0, 77, 100
2, 15540, Note_on_c, 0, 77, 0
2, 15540, Note_on_c, 0, 76, 100
2, 15600, Note_on_c, 0, 76, 0
2, 15600, Note_on_c, 0, 77, 100
2, 15840, Note_on_c, 0, 77, 0
2, 15960, Note_on_c, 0, 74, 100
2, 16200, Note_on_c, 0, 74, 0
2, 16200, Note_on_c, 0, 72, 100
2, 16260, Note_on_c, 0, 72, 0
2, 16260, Note_on_c, 0, 70, 100
2, 16320, Note_on_c, 0, 70, 0
2, 16320, Note_on_c, 0, 69, 100
2, 16800, Note_on_c, 0, 69, 0
2, 16800, Note_on_c, 0, 67, 100
2, 17280, Note_on_c, 0, 67, 0
2, 17280, Note_on_c, 0, 65, 100
2, 17640, Note_on_c, 0, 65, 0
2, 17640, Note_on_c, 0, 62, 100
2, 17760, Note_on_c, 0, 62, 0
2, 17760, Note_on_c, 0, 67, 100
2, 18120, Note_on_c, 0, 67, 0
2, 18120, Note_on_c, 0, 60, 100
2, 18240, Note_on_c, 0, 60, 0
2, 18240, Note_on_c, 0, 65, 100
2, 18480, Note_on_c, 0, 65, 0
2, 18840, Note_on_c, 0, 70, 100
2, 19080, Note_on_c, 0, 70, 0
2, 19080, Note_on_c, 0, 72, 100
2, 19320, Note_on_c, 0, 72, 0
2, 19320, Note_on_c, 0, 74, 100
2, 19380, Note_on_c, 0, 74, 0
2, 19380, Note_on_c, 0, 72, 100
2, 19410, Note_on_c, 0, 72, 0
2, 19410, Note_on_c, 0, 70, 100
2, 19440, Note_on_c, 0, 70, 0
2, 19440, Note_on_c, 0, 69, 100
2, 19500, Note_on_c, 0, 69, 0
2, 19500, Note_on_c, 0, 65, 100
2, 19560, Note_on_c, 0, 65, 0
2, 19560, Note_on_c, 0, 77, 100
2, 19680, Note_on_c, 0, 77, 0
2, 19680, Note_on_c, 0, 76, 100
2, 19800, Note_on_c, 0, 76, 0
2, 19800, Note_on_c, 0, 74, 100
2, 19920, Note_on_c, 0, 74, 0
2, 19920, Note_on_c, 0, 76, 100
2, 20040, Note_on_c, 0, 76, 0
2, 20040, End_track
3, 0, Start_track
3, 0, MIDI_port, 0
3, 0, Program_c, 1, 24
3, 0, Control_c, 1, 7, 100
3, 0, Control_c, 1, 10, 39
3, 1200, Note_on_c, 1, 65, 100
3, 1440, Note_on_c, 1, 65, 0
3, 1440, Note_on_c, 1, 67, 100
3, 1920, Note_on_c, 1, 67, 0
3, 1920, Note_on_c, 1, 69, 100
3, 2040, Note_on_c, 1, 69, 0
3, 2040, Note_on_c, 1, 70, 100
3, 2160, Note_on_c, 1, 70, 0
3, 2160, Note_on_c, 1, 72, 100
3, 2280, Note_on_c, 1, 72, 0
3, 2280, Note_on_c, 1, 74, 100
3, 2400, Note_on_c, 1, 74, 0
3, 2400, Note_on_c, 1, 76, 100
3, 2520, Note_on_c, 1, 76, 0
3, 2520, Note_on_c, 1, 77, 100
3, 2640, Note_on_c, 1, 77, 0
3, 2640, Note_on_c, 1, 79, 100
3, 3000, Note_on_c, 1, 79, 0
3, 3000, Note_on_c, 1, 77, 100
3, 3060, Note_on_c, 1, 77, 0
3, 3060, Note_on_c, 1, 76, 100
3, 3120, Note_on_c, 1, 76, 0
3, 3120, Note_on_c, 1, 77, 100
3, 3360, Note_on_c, 1, 77, 0
3, 3480, Note_on_c, 1, 74, 100
3, 3720, Note_on_c, 1, 74, 0
3, 3720, Note_on_c, 1, 72, 100
3, 3780, Note_on_c, 1, 72, 0
3, 3780, Note_on_c, 1, 70, 100
3, 3840, Note_on_c, 1, 70, 0
3, 3840, Note_on_c, 1, 69, 100
3, 4320, Note_on_c, 1, 69, 0
3, 4320, Note_on_c, 1, 67, 100
3, 4800, Note_on_c, 1, 67, 0
3, 4800, Note_on_c, 1, 65, 100
3, 5160, Note_on_c, 1, 65, 0
3, 5160, Note_on_c, 1, 62, 100
3, 5280, Note_on_c, 1, 62, 0
3, 5280, Note_on_c, 1, 67, 100
3, 5640, Note_on_c, 1, 67, 0
3, 5640, Note_on_c, 1, 60, 100
3, 5760, Note_on_c, 1, 60, 0
3, 5760, Note_on_c, 1, 65, 100
3, 6000, Note_on_c, 1, 65, 0
3, 6360, Note_on_c, 1, 70, 100
3, 6600, Note_on_c, 1, 70, 0
3, 6600, Note_on_c, 1, 72, 100
3, 6840, Note_on_c, 1, 72, 0
3, 6840, Note_on_c, 1, 74, 100
3, 6900, Note_on_c, 1, 74, 0
3, 6900, Note_on_c, 1, 72, 100
3, 6930, Note_on_c, 1, 72, 0
3, 6930, Note_on_c, 1, 70, 100
3, 6960, Note_on_c, 1, 70, 0
3, 6960, Note_on_c, 1, 69, 100
3, 7020, Note_on_c, 1, 69, 0
3, 7020, Note_on_c, 1, 65, 100
3, 7080, Note_on_c, 1, 65, 0
3, 7080, Note_on_c, 1, 77, 100
3, 7200, Note_on_c, 1, 77, 0
3, 7200, Note_on_c, 1, 76, 100
3, 7320, Note_on_c, 1, 76, 0
3, 7320, Note_on_c, 1, 74, 100
3, 7440, Note_on_c, 1, 74, 0
3, 7440, Note_on_c, 1, 76, 100
3, 7560, Note_on_c, 1, 76, 0
3, 7920, Note_on_c, 1, 65, 100
3, 8160, Note_on_c, 1, 65, 0
3, 8160, Note_on_c, 1, 67, 100
3, 8640, Note_on_c, 1, 67, 0
3, 8640, Note_on_c, 1, 69, 100
3, 8760, Note_on_c, 1, 69, 0
3, 8760, Note_on_c, 1, 70, 100
3, 8880, Note_on_c, 1, 70, 0
3, 8880, Note_on_c, 1, 72, 100
3, 9000, Note_on_c, 1, 72, 0
3, 9000, Note_on_c, 1, 74, 100
3, 9120, Note_on_c, 1, 74, 0
3, 9120, Note_on_c, 1, 76, 100
3, 9240, Note_on_c, 1, 76, 0
3, 9240, Note_on_c, 1, 77, 100
3, 9360, Note_on_c, 1, 77, 0
3, 9360, Note_on_c, 1, 79, 100
3, 9720, Note_on_c, 1, 79, 0
3, 9720, Note_on_c, 1, 77, 100
3, 9780, Note_on_c, 1, 77, 0
3, 9780, Note_on_c, 1, 76, 100
3, 9840, Note_on_c, 1, 76, 0
3, 9840, Note_on_c, 1, 77, 100
3, 10080, Note_on_c, 1, 77, 0
3, 10200, Note_on_c, 1, 74, 100
3, 10440, Note_on_c, 1, 74, 0
3, 10440, Note_on_c, 1, 72, 100
3, 10500, Note_on_c, 1, 72, 0
3, 10500, Note_on_c, 1, 70, 100
3, 10560, Note_on_c, 1, 70, 0
3, 10560, Note_on_c, 1, 69, 100
3, 11040, Note_on_c, 1, 69, 0
3, 11040, Note_on_c, 1, 67, 100
3, 11520, Note_on_c, 1, 67, 0
3, 11520, Note_on_c, 1, 65, 100
3, 11880, Note_on_c, 1, 65, 0
3, 11880, Note_on_c, 1, 62, 100
3, 12000, Note_on_c, 1, 62, 0
3, 12000, Note_on_c, 1, 67, 100
3, 12360, Note_on_c, 1, 67, 0
3, 12360, Note_on_c, 1, 60, 100
3, 12480, Note_on_c, 1, 60, 0
3, 12480, Note_on_c, 1, 65, 100
3, 12720, Note_on_c, 1, 65, 0
3, 13080, Note_on_c, 1, 70, 100
3, 13320, Note_on_c, 1, 70, 0
3, 13320, Note_on_c, 1, 72, 100
3, 13560, Note_on_c, 1, 72, 0
3, 13560, Note_on_c, 1, 74, 100
3, 13620, Note_on_c, 1, 74, 0
3, 13620, Note_on_c, 1, 72, 100
3, 13650, Note_on_c, 1, 72, 0
3, 13650, Note_on_c, 1, 70, 100
3, 13680, Note_on_c, 1, 70, 0
3, 13680, Note_on_c, 1, 69, 100
3, 13740, Note_on_c, 1, 69, 0
3, 13740, Note_on_c, 1, 65, 100
3, 13800, Note_on_c, 1, 65, 0
3, 13800, Note_on_c, 1, 77, 100
3, 13920, Note_on_c, 1, 77, 0
3, 13920, Note_on_c, 1, 76, 100
3, 14040, Note_on_c, 1, 76, 0
3, 14040, Note_on_c, 1, 74, 100
3, 14160, Note_on_c, 1, 74, 0
3, 14160, Note_on_c, 1, 76, 100
3, 14280, Note_on_c, 1, 76, 0
3, 14640, Note_on_c, 1, 65, 100
3, 14880, Note_on_c, 1, 65, 0
3, 14880, Note_on_c, 1, 67, 100
3, 15360, Note_on_c, 1, 67, 0
3, 15360, Note_on_c, 1, 69, 100
3, 15480, Note_on_c, 1, 69, 0
3, 15480, Note_on_c, 1, 70, 100
3, 15600, Note_on_c, 1, 70, 0
3, 15600, Note_on_c, 1, 72, 100
3, 15720, Note_on_c, 1, 72, 0
3, 15720, Note_on_c, 1, 74, 100
3, 15840, Note_on_c, 1, 74, 0
3, 15840, Note_on_c, 1, 76, 100
3, 15960, Note_on_c, 1, 76, 0
3, 15960, Note_on_c, 1, 77, 100
3, 16080, Note_on_c, 1, 77, 0
3, 16080, Note_on_c, 1, 79, 100
3, 16440, Note_on_c, 1, 79, 0
3, 16440, Note_on_c, 1, 77, 100
3, 16500, Note_on_c, 1, 77, 0
3, 16500, Note_on_c, 1, 76, 100
3, 16560, Note_on_c, 1, 76, 0
3, 16560, Note_on_c, 1, 77, 100
3, 16800, Note_on_c, 1, 77, 0
3, 16920, Note_on_c, 1, 74, 100
3, 17160, Note_on_c, 1, 74, 0
3, 17160, Note_on_c, 1, 72, 100
3, 17220, Note_on_c, 1, 72, 0
3, 17220, Note_on_c, 1, 70, 100
3, 17280, Note_on_c, 1, 70, 0
3, 17280, Note_on_c, 1, 69, 100
3, 17760, Note_on_c, 1, 69, 0
3, 17760, Note_on_c, 1, 67, 100
3, 18240, Note_on_c, 1, 67, 0
3, 18240, Note_on_c, 1, 65, 100
3, 18600, Note_on_c, 1, 65, 0
3, 18600, Note_on_c, 1, 62, 100
3, 18720, Note_on_c, 1, 62, 0
3, 18720, Note_on_c, 1, 67, 100
3, 19080, Note_on_c, 1, 67, 0
3, 19080, Note_on_c, 1, 60, 100
3, 19200, Note_on_c, 1, 60, 0
3, 19200, Note_on_c, 1, 65, 100
3, 19440, Note_on_c, 1, 65, 0
3, 19800, Note_on_c, 1, 70, 100
3, 20040, Note_on_c, 1, 70, 0
3, 20040, Note_on_c, 1, 72, 100
3, 20280, Note_on_c, 1, 72, 0
3, 20280, Note_on_c, 1, 74, 100
3, 20340, Note_on_c, 1, 74, 0
3, 20340, Note_on_c, 1, 72, 100
3, 20370, Note_on_c, 1, 72, 0
3, 20370, Note_on_c, 1, 70, 100
3, 20400, Note_on_c, 1, 70, 0
3, 20400, Note_on_c, 1, 69, 100
3, 21120, Note_on_c, 1, 69, 0
3, 21120, End_track
4, 0, Start_track
4, 0, MIDI_port, 0
4, 0, Title_t, "--------------------------------------"
4, 0, Program_c, 2, 24
4, 0, Control_c, 2, 7, 100
4, 0, Control_c, 2, 10, 49
4, 2160, Note_on_c, 2, 65, 100
4, 2400, Note_on_c, 2, 65, 0
4, 2400, Note_on_c, 2, 67, 100
4, 2880, Note_on_c, 2, 67, 0
4, 2880, Note_on_c, 2, 69, 100
4, 3000, Note_on_c, 2, 69, 0
4, 3000, Note_on_c, 2, 70, 100
4, 3120, Note_on_c, 2, 70, 0
4, 3120, Note_on_c, 2, 72, 100
4, 3240, Note_on_c, 2, 72, 0
4, 3240, Note_on_c, 2, 74, 100
4, 3360, Note_on_c, 2, 74, 0
4, 3360, Note_on_c, 2, 76, 100
4, 3480, Note_on_c, 2, 76, 0
4, 3480, Note_on_c, 2, 77, 100
4, 3600, Note_on_c, 2, 77, 0
4, 3600, Note_on_c, 2, 79, 100
4, 3960, Note_on_c, 2, 79, 0
4, 3960, Note_on_c, 2, 77, 100
4, 4020, Note_on_c, 2, 77, 0
4, 4020, Note_on_c, 2, 76, 100
4, 4080, Note_on_c, 2, 76, 0
4, 4080, Note_on_c, 2, 77, 100
4, 4320, Note_on_c, 2, 77, 0
4, 4440, Note_on_c, 2, 74, 100
4, 4680, Note_on_c, 2, 74, 0
4, 4680, Note_on_c, 2, 72, 100
4, 4740, Note_on_c, 2, 72, 0
4, 4740, Note_on_c, 2, 70, 100
4, 4800, Note_on_c, 2, 70, 0
4, 4800, Note_on_c, 2, 69, 100
4, 5280, Note_on_c, 2, 69, 0
4, 5280, Note_on_c, 2, 67, 100
4, 5760, Note_on_c, 2, 67, 0
4, 5760, Note_on_c, 2, 65, 100
4, 6120, Note_on_c, 2, 65, 0
4, 6120, Note_on_c, 2, 62, 100
4, 6240, Note_on_c, 2, 62, 0
4, 6240, Note_on_c, 2, 67, 100
4, 6600, Note_on_c, 2, 67, 0
4, 6600, Note_on_c, 2, 60, 100
4, 6720, Note_on_c, 2, 60, 0
4, 6720, Note_on_c, 2, 65, 100
4, 6960, Note_on_c, 2, 65, 0
4, 7320, Note_on_c, 2, 70, 100
4, 7560, Note_on_c, 2, 70, 0
4, 7560, Note_on_c, 2, 72, 100
4, 7800, Note_on_c, 2, 72, 0
4, 7800, Note_on_c, 2, 74, 100
4, 7860, Note_on_c, 2, 74, 0
4, 7860, Note_on_c, 2, 72, 100
4, 7890, Note_on_c, 2, 72, 0
4, 7890, Note_on_c, 2, 70, 100
4, 7920, Note_on_c, 2, 70, 0
4, 7920, Note_on_c, 2, 69, 100
4, 7980, Note_on_c, 2, 69, 0
4, 7980, Note_on_c, 2, 65, 100
4, 8040, Note_on_c, 2, 65, 0
4, 8040, Note_on_c, 2, 77, 100
4, 8160, Note_on_c, 2, 77, 0
4, 8160, Note_on_c, 2, 76, 100
4, 8280, Note_on_c, 2, 76, 0
4, 8280, Note_on_c, 2, 74, 100
4, 8400, Note_on_c, 2, 74, 0
4, 8400, Note_on_c, 2, 76, 100
4, 8520, Note_on_c, 2, 76, 0
4, 8880, Note_on_c, 2, 65, 100
4, 9120, Note_on_c, 2, 65, 0
4, 9120, Note_on_c, 2, 67, 100
4, 9600, Note_on_c, 2, 67, 0
4, 9600, Note_on_c, 2, 69, 100
4, 9720, Note_on_c, 2, 69, 0
4, 9720, Note_on_c, 2, 70, 100
4, 9840, Note_on_c, 2, 70, 0
4, 9840, Note_on_c, 2, 72, 100
4, 9960, Note_on_c, 2, 72, 0
4, 9960, Note_on_c, 2, 74, 100
4, 10080, Note_on_c, 2, 74, 0
4, 10080, Note_on_c, 2, 76, 100
4, 10200, Note_on_c, 2, 76, 0
4, 10200, Note_on_c, 2, 77, 100
4, 10320, Note_on_c, 2, 77, 0
4, 10320, Note_on_c, 2, 79, 100
4, 10680, Note_on_c, 2, 79, 0
4, 10680, Note_on_c, 2, 77, 100
4, 10740, Note_on_c, 2, 77, 0
4, 10740, Note_on_c, 2, 76, 100
4, 10800, Note_on_c, 2, 76, 0
4, 10800, Note_on_c, 2, 77, 100
4, 11040, Note_on_c, 2, 77, 0
4, 11160, Note_on_c, 2, 74, 100
4, 11400, Note_on_c, 2, 74, 0
4, 11400, Note_on_c, 2, 72, 100
4, 11460, Note_on_c, 2, 72, 0
4, 11460, Note_on_c, 2, 70, 100
4, 11520, Note_on_c, 2, 70, 0
4, 11520, Note_on_c, 2, 69, 100
4, 12000, Note_on_c, 2, 69, 0
4, 12000, Note_on_c, 2, 67, 100
4, 12480, Note_on_c, 2, 67, 0
4, 12480, Note_on_c, 2, 65, 100
4, 12840, Note_on_c, 2, 65, 0
4, 12840, Note_on_c, 2, 62, 100
4, 12960, Note_on_c, 2, 62, 0
4, 12960, Note_on_c, 2, 67, 100
4, 13320, Note_on_c, 2, 67, 0
4, 13320, Note_on_c, 2, 60, 100
4, 13440, Note_on_c, 2, 60, 0
4, 13440, Note_on_c, 2, 65, 100
4, 13680, Note_on_c, 2, 65, 0
4, 14040, Note_on_c, 2, 70, 100
4, 14280, Note_on_c, 2, 70, 0
4, 14280, Note_on_c, 2, 72, 100
4, 14520, Note_on_c, 2, 72, 0
4, 14520, Note_on_c, 2, 74, 100
4, 14580, Note_on_c, 2, 74, 0
4, 14580, Note_on_c, 2, 72, 100
4, 14610, Note_on_c, 2, 72, 0
4, 14610, Note_on_c, 2, 70, 100
4, 14640, Note_on_c, 2, 70, 0
4, 14640, Note_on_c, 2, 69, 100
4, 14700, Note_on_c, 2, 69, 0
4, 14700, Note_on_c, 2, 65, 100
4, 14760, Note_on_c, 2, 65, 0
4, 14760, Note_on_c, 2, 77, 100
4, 14880, Note_on_c, 2, 77, 0
4, 14880, Note_on_c, 2, 76, 100
4, 15000, Note_on_c, 2, 76, 0
4, 15000, Note_on_c, 2, 74, 100
4, 15120, Note_on_c, 2, 74, 0
4, 15120, Note_on_c, 2, 76, 100
4, 15240, Note_on_c, 2, 76, 0
4, 15600, Note_on_c, 2, 65, 100
4, 15840, Note_on_c, 2, 65, 0
4, 15840, Note_on_c, 2, 67, 100
4, 16320, Note_on_c, 2, 67, 0
4, 16320, Note_on_c, 2, 69, 100
4, 16440, Note_on_c, 2, 69, 0
4, 16440, Note_on_c, 2, 70, 100
4, 16560, Note_on_c, 2, 70, 0
4, 16560, Note_on_c, 2, 72, 100
4, 16680, Note_on_c, 2, 72, 0
4, 16680, Note_on_c, 2, 74, 100
4, 16800, Note_on_c, 2, 74, 0
4, 16800, Note_on_c, 2, 76, 100
4, 16920, Note_on_c, 2, 76, 0
4, 16920, Note_on_c, 2, 77, 100
4, 17040, Note_on_c, 2, 77, 0
4, 17040, Note_on_c, 2, 79, 100
4, 17400, Note_on_c, 2, 79, 0
4, 17400, Note_on_c, 2, 77, 100
4, 17460, Note_on_c, 2, 77, 0
4, 17460, Note_on_c, 2, 76, 100
4, 17520, Note_on_c, 2, 76, 0
4, 17520, Note_on_c, 2, 77, 100
4, 17760, Note_on_c, 2, 77, 0
4, 17880, Note_on_c, 2, 74, 100
4, 18120, Note_on_c, 2, 74, 0
4, 18120, Note_on_c, 2, 72, 100
4, 18180, Note_on_c, 2, 72, 0
4, 18180, Note_on_c, 2, 70, 100
4, 18240, Note_on_c, 2, 70, 0
4, 18240, Note_on_c, 2, 69, 100
4, 18720, Note_on_c, 2, 69, 0
4, 18720, Note_on_c, 2, 67, 100
4, 19200, Note_on_c, 2, 67, 0
4, 19200, Note_on_c, 2, 65, 100
4, 19560, Note_on_c, 2, 65, 0
4, 19560, Note_on_c, 2, 62, 100
4, 19680, Note_on_c, 2, 62, 0
4, 19680, Note_on_c, 2, 67, 100
4, 20040, Note_on_c, 2, 67, 0
4, 20040, Note_on_c, 2, 60, 100
4, 20160, Note_on_c, 2, 60, 0
4, 20160, Note_on_c, 2, 65, 100
4, 21120, Note_on_c, 2, 65, 0
4, 21120, End_track
5, 0, Start_track
5, 0, MIDI_port, 0
5, 0, Title_t, "Johann Sebastian Bach  (1685-1750)"
5, 0, Program_c, 3, 24
5, 0, Control_c, 3, 7, 100
5, 0, Control_c, 3, 10, 59
5, 3120, Note_on_c, 3, 65, 100
5, 3360, Note_on_c, 3, 65, 0
5, 3360, Note_on_c, 3, 67, 100
5, 3840, Note_on_c, 3, 67, 0
5, 3840, Note_on_c, 3, 69, 100
5, 3960, Note_on_c, 3, 69, 0
5, 3960, Note_on_c, 3, 70, 100
5, 4080, Note_on_c, 3, 70, 0
5, 4080, Note_on_c, 3, 72, 100
5, 4200, Note_on_c, 3, 72, 0
5, 4200, Note_on_c, 3, 74, 100
5, 4320, Note_on_c, 3, 74, 0
5, 4320, Note_on_c, 3, 76, 100
5, 4440, Note_on_c, 3, 76, 0
5, 4440, Note_on_c, 3, 77, 100
5, 4560, Note_on_c, 3, 77, 0
5, 4560, Note_on_c, 3, 79, 100
5, 4920, Note_on_c, 3, 79, 0
5, 4920, Note_on_c, 3, 77, 100
5, 4980, Note_on_c, 3, 77, 0
5, 4980, Note_on_c, 3, 76, 100
5, 5040, Note_on_c, 3, 76, 0
5, 5040, Note_on_c, 3, 77, 100
5, 5280, Note_on_c, 3, 77, 0
5, 5400, Note_on_c, 3, 74, 100
5, 5640, Note_on_c, 3, 74, 0
5, 5640, Note_on_c, 3, 72, 100
5, 5700, Note_on_c, 3, 72, 0
5, 5700, Note_on_c, 3, 70, 100
5, 5760, Note_on_c, 3, 70, 0
5, 5760, Note_on_c, 3, 69, 100
5, 6240, Note_on_c, 3, 69, 0
5, 6240, Note_on_c, 3, 67, 100
5, 6720, Note_on_c, 3, 67, 0
5, 6720, Note_on_c, 3, 65, 100
5, 7080, Note_on_c, 3, 65, 0
5, 7080, Note_on_c, 3, 62, 100
5, 7200, Note_on_c, 3, 62, 0
5, 7200, Note_on_c, 3, 67, 100
5, 7560, Note_on_c, 3, 67, 0
5, 7560, Note_on_c, 3, 60, 100
5, 7680, Note_on_c, 3, 60, 0
5, 7680, Note_on_c, 3, 65, 100
5, 7920, Note_on_c, 3, 65, 0
5, 8280, Note_on_c, 3, 70, 100
5, 8520, Note_on_c, 3, 70, 0
5, 8520, Note_on_c, 3, 72, 100
5, 8760, Note_on_c, 3, 72, 0
5, 8760, Note_on_c, 3, 74, 100
5, 8820, Note_on_c, 3, 74, 0
5, 8820, Note_on_c, 3, 72, 100
5, 8850, Note_on_c, 3, 72, 0
5, 8850, Note_on_c, 3, 70, 100
5, 8880, Note_on_c, 3, 70, 0
5, 8880, Note_on_c, 3, 69, 100
5, 8940, Note_on_c, 3, 69, 0
5, 8940, Note_on_c, 3, 65, 100
5, 9000, Note_on_c, 3, 65, 0
5, 9000, Note_on_c, 3, 77, 100
5, 9120, Note_on_c, 3, 77, 0
5, 9120, Note_on_c, 3, 76, 100
5, 9240, Note_on_c, 3, 76, 0
5, 9240, Note_on_c, 3, 74, 100
5, 9360, Note_on_c, 3, 74, 0
5, 9360, Note_on_c, 3, 76, 100
5, 9480, Note_on_c, 3, 76, 0
5, 9840, Note_on_c, 3, 65, 100
5, 10080, Note_on_c, 3, 65, 0
5, 10080, Note_on_c, 3, 67, 100
5, 10560, Note_on_c, 3, 67, 0
5, 10560, Note_on_c, 3, 69, 100
5, 10680, Note_on_c, 3, 69, 0
5, 10680, Note_on_c, 3, 70, 100
5, 10800, Note_on_c, 3, 70, 0
5, 10800, Note_on_c, 3, 72, 100
5, 10920, Note_on_c, 3, 72, 0
5, 10920, Note_on_c, 3, 74, 100
5, 11040, Note_on_c, 3, 74, 0
5, 11040, Note_on_c, 3, 76, 100
5, 11160, Note_on_c, 3, 76, 0
5, 11160, Note_on_c, 3, 77, 100
5, 11280, Note_on_c, 3, 77, 0
5, 11280, Note_on_c, 3, 79, 100
5, 11640, Note_on_c, 3, 79, 0
5, 11640, Note_on_c, 3, 77, 100
5, 11700, Note_on_c, 3, 77, 0
5, 11700, Note_on_c, 3, 76, 100
5, 11760, Note_on_c, 3, 76, 0
5, 11760, Note_on_c, 3, 77, 100
5, 12000, Note_on_c, 3, 77, 0
5, 12120, Note_on_c, 3, 74, 100
5, 12360, Note_on_c, 3, 74, 0
5, 12360, Note_on_c, 3, 72, 100
5, 12420, Note_on_c, 3, 72, 0
5, 12420, Note_on_c, 3, 70, 100
5, 12480, Note_on_c, 3, 70, 0
5, 12480, Note_on_c, 3, 69, 100
5, 12960, Note_on_c, 3, 69, 0
5, 12960, Note_on_c, 3, 67, 100
5, 13440, Note_on_c, 3, 67, 0
5, 13440, Note_on_c, 3, 65, 100
5, 13800, Note_on_c, 3, 65, 0
5, 13800, Note_on_c, 3, 62, 100
5, 13920, Note_on_c, 3, 62, 0
5, 13920, Note_on_c, 3, 67, 100
5, 14280, Note_on_c, 3, 67, 0
5, 14280, Note_on_c, 3, 60, 100
5, 14400, Note_on_c, 3, 60, 0
5, 14400, Note_on_c, 3, 65, 100
5, 14640, Note_on_c, 3, 65, 0
5, 15000, Note_on_c, 3, 70, 100
5, 15240, Note_on_c, 3, 70, 0
5, 15240, Note_on_c, 3, 72, 100
5, 15480, Note_on_c, 3, 72, 0
5, 15480, Note_on_c, 3, 74, 100
5, 15540, Note_on_c, 3, 74, 0
5, 15540, Note_on_c, 3, 72, 100
5, 15570, Note_on_c, 3, 72, 0
5, 15570, Note_on_c, 3, 70, 100
5, 15600, Note_on_c, 3, 70, 0
5, 15600, Note_on_c, 3, 69, 100
5, 15660, Note_on_c, 3, 69, 0
5, 15660, Note_on_c, 3, 65, 100
5, 15720, Note_on_c, 3, 65, 0
5, 15720, Note_on_c, 3, 77, 100
5, 15840, Note_on_c, 3, 77, 0
5, 15840, Note_on_c, 3, 76, 100
5, 15960, Note_on_c, 3, 76, 0
5, 15960, Note_on_c, 3, 74, 100
5, 16080, Note_on_c, 3, 74, 0
5, 16080, Note_on_c, 3, 76, 100
5, 16200, Note_on_c, 3, 76, 0
5, 16560, Note_on_c, 3, 65, 100
5, 16800, Note_on_c, 3, 65, 0
5, 16800, Note_on_c, 3, 67, 100
5, 17280, Note_on_c, 3, 67, 0
5, 17280, Note_on_c, 3, 69, 100
5, 17400, Note_on_c, 3, 69, 0
5, 17400, Note_on_c, 3, 70, 100
5, 17520, Note_on_c, 3, 70, 0
5, 17520, Note_on_c, 3, 72, 100
5, 17640, Note_on_c, 3, 72, 0
5, 17640, Note_on_c, 3, 74, 100
5, 17760, Note_on_c, 3, 74, 0
5, 17760, Note_on_c, 3, 76, 100
5, 17880, Note_on_c, 3, 76, 0
5, 17880, Note_on_c, 3, 77, 100
5, 18000, Note_on_c, 3, 77, 0
5, 18000, Note_on_c, 3, 79, 100
5, 18360, Note_on_c, 3, 79, 0
5, 18360, Note_on_c, 3, 77, 100
5, 18420, Note_on_c, 3, 77, 0
5, 18420, Note_on_c, 3, 76, 100
5, 18480, Note_on_c, 3, 76, 0
5, 18480, Note_on_c, 3, 77, 100
5, 18720, Note_on_c, 3, 77, 0
5, 18840, Note_on_c, 3, 74, 100
5, 19080, Note_on_c, 3, 74, 0
5, 19080, Note_on_c, 3, 72, 100
5, 19140, Note_on_c, 3, 72, 0
5, 19140, Note_on_c, 3, 70, 100
5, 19200, Note_on_c, 3, 70, 0
5, 19200, Note_on_c, 3, 69, 100
5, 19680, Note_on_c, 3, 69, 0
5, 19680, Note_on_c, 3, 67, 100
5, 20160, Note_on_c, 3, 67, 0
5, 20160, Note_on_c, 3, 65, 100
5, 21120, Note_on_c, 3, 65, 0
5, 21120, End_track
6, 0, Start_track
6, 0, MIDI_port, 0
6, 0, Title_t, "Canon super fa mi a 7 post tempus musicum"
6, 0, Program_c, 4, 24
6, 0, Control_c, 4, 7, 100
6, 0, Control_c, 4, 10, 69
6, 4080, Note_on_c, 4, 65, 100
6, 4320, Note_on_c, 4, 65, 0
6, 4320, Note_on_c, 4, 67, 100
6, 4800, Note_on_c, 4, 67, 0
6, 4800, Note_on_c, 4, 69, 100
6, 4920, Note_on_c, 4, 69, 0
6, 4920, Note_on_c, 4, 70, 100
6, 5040, Note_on_c, 4, 70, 0
6, 5040, Note_on_c, 4, 72, 100
6, 5160, Note_on_c, 4, 72, 0
6, 5160, Note_on_c, 4, 74, 100
6, 5280, Note_on_c, 4, 74, 0
6, 5280, Note_on_c, 4, 76, 100
6, 5400, Note_on_c, 4, 76, 0
6, 5400, Note_on_c, 4, 77, 100
6, 5520, Note_on_c, 4, 77, 0
6, 5520, Note_on_c, 4, 79, 100
6, 5880, Note_on_c, 4, 79, 0
6, 5880, Note_on_c, 4, 77, 100
6, 5940, Note_on_c, 4, 77, 0
6, 5940, Note_on_c, 4, 76, 100
6, 6000, Note_on_c, 4, 76, 0
6, 6000, Note_on_c, 4, 77, 100
6, 6240, Note_on_c, 4, 77, 0
6, 6360, Note_on_c, 4, 74, 100
6, 6600, Note_on_c, 4, 74, 0
6, 6600, Note_on_c, 4, 72, 100
6, 6660, Note_on_c, 4, 72, 0
6, 6660, Note_on_c, 4, 70, 100
6, 6720, Note_on_c, 4, 70, 0
6, 6720, Note_on_c, 4, 69, 100
6, 7200, Note_on_c, 4, 69, 0
6, 7200, Note_on_c, 4, 67, 100
6, 7680, Note_on_c, 4, 67, 0
6, 7680, Note_on_c, 4, 65, 100
6, 8040, Note_on_c, 4, 65, 0
6, 8040, Note_on_c, 4, 62, 100
6, 8160, Note_on_c, 4, 62, 0
6, 8160, Note_on_c, 4, 67, 100
6, 8520, Note_on_c, 4, 67, 0
6, 8520, Note_on_c, 4, 60, 100
6, 8640, Note_on_c, 4, 60, 0
6, 8640, Note_on_c, 4, 65, 100
6, 8880, Note_on_c, 4, 65, 0
6, 9240, Note_on_c, 4, 70, 100
6, 9480, Note_on_c, 4, 70, 0
6, 9480, Note_on_c, 4, 72, 100
6, 9720, Note_on_c, 4, 72, 0
6, 9720, Note_on_c, 4, 74, 100
6, 9780, Note_on_c, 4, 74, 0
6, 9780, Note_on_c, 4, 72, 100
6, 9810, Note_on_c, 4, 72, 0
6, 9810, Note_on_c, 4, 70, 100
6, 9840, Note_on_c, 4, 70, 0
6, 9840, Note_on_c, 4, 69, 100
6, 9900, Note_on_c, 4, 69, 0
6, 9900, Note_on_c, 4, 65, 100
6, 9960, Note_on_c, 4, 65, 0
6, 9960, Note_on_c, 4, 77, 100
6, 10080, Note_on_c, 4, 77, 0
6, 10080, Note_on_c, 4, 76, 100
6, 10200, Note_on_c, 4, 76, 0
6, 10200, Note_on_c, 4, 74, 100
6, 10320, Note_on_c, 4, 74, 0
6, 10320, Note_on_c, 4, 76, 100
6, 10440, Note_on_c, 4, 76, 0
6, 10800, Note_on_c, 4, 65, 100
6, 11040, Note_on_c, 4, 65, 0
6, 11040, Note_on_c, 4, 67, 100
6, 11520, Note_on_c, 4, 67, 0
6, 11520, Note_on_c, 4, 69, 100
6, 11640, Note_on_c, 4, 69, 0
6, 11640, Note_on_c, 4, 70, 100
6, 11760, Note_on_c, 4, 70, 0
6, 11760, Note_on_c, 4, 72, 100
6, 11880, Note_on_c, 4, 72, 0
6, 11880, Note_on_c, 4, 74, 100
6, 12000, Note_on_c, 4, 74, 0
6, 12000, Note_on_c, 4, 76, 100
6, 12120, Note_on_c, 4, 76, 0
6, 12120, Note_on_c, 4, 77, 100
6, 12240, Note_on_c, 4, 77, 0
6, 12240, Note_on_c, 4, 79, 100
6, 12600, Note_on_c, 4, 79, 0
6, 12600, Note_on_c, 4, 77, 100
6, 12660, Note_on_c, 4, 77, 0
6, 12660, Note_on_c, 4, 76, 100
6, 12720, Note_on_c, 4, 76, 0
6, 12720, Note_on_c, 4, 77, 100
6, 12960, Note_on_c, 4, 77, 0
6, 13080, Note_on_c, 4, 74, 100
6, 13320, Note_on_c, 4, 74, 0
6, 13320, Note_on_c, 4, 72, 100
6, 13380, Note_on_c, 4, 72, 0
6, 13380, Note_on_c, 4, 70, 100
6, 13440, Note_on_c, 4, 70, 0
6, 13440, Note_on_c, 4, 69, 100
6, 13920, Note_on_c, 4, 69, 0
6, 13920, Note_on_c, 4, 67, 100
6, 14400, Note_on_c, 4, 67, 0
6, 14400, Note_on_c, 4, 65, 100
6, 14760, Note_on_c, 4, 65, 0
6, 14760, Note_on_c, 4, 62, 100
6, 14880, Note_on_c, 4, 62, 0
6, 14880, Note_on_c, 4, 67, 100
6, 15240, Note_on_c, 4, 67, 0
6, 15240, Note_on_c, 4, 60, 100
6, 15360, Note_on_c, 4, 60, 0
6, 15360, Note_on_c, 4, 65, 100
6, 15600, Note_on_c, 4, 65, 0
6, 15960, Note_on_c, 4, 70, 100
6, 16200, Note_on_c, 4, 70, 0
6, 16200, Note_on_c, 4, 72, 100
6, 16440, Note_on_c, 4, 72, 0
6, 16440, Note_on_c, 4, 74, 100
6, 16500, Note_on_c, 4, 74, 0
6, 16500, Note_on_c, 4, 72, 100
6, 16530, Note_on_c, 4, 72, 0
6, 16530, Note_on_c, 4, 70, 100
6, 16560, Note_on_c, 4, 70, 0
6, 16560, Note_on_c, 4, 69, 100
6, 16620, Note_on_c, 4, 69, 0
6, 16620, Note_on_c, 4, 65, 100
6, 16680, Note_on_c, 4, 65, 0
6, 16680, Note_on_c, 4, 77, 100
6, 16800, Note_on_c, 4, 77, 0
6, 16800, Note_on_c, 4, 76, 100
6, 16920, Note_on_c, 4, 76, 0
6, 16920, Note_on_c, 4, 74, 100
6, 17040, Note_on_c, 4, 74, 0
6, 17040, Note_on_c, 4, 76, 100
6, 17160, Note_on_c, 4, 76, 0
6, 17520, Note_on_c, 4, 65, 100
6, 17760, Note_on_c, 4, 65, 0
6, 17760, Note_on_c, 4, 67, 100
6, 18240, Note_on_c, 4, 67, 0
6, 18240, Note_on_c, 4, 69, 100
6, 18360, Note_on_c, 4, 69, 0
6, 18360, Note_on_c, 4, 70, 100
6, 18480, Note_on_c, 4, 70, 0
6, 18480, Note_on_c, 4, 72, 100
6, 18600, Note_on_c, 4, 72, 0
6, 18600, Note_on_c, 4, 74, 100
6, 18720, Note_on_c, 4, 74, 0
6, 18720, Note_on_c, 4, 76, 100
6, 18840, Note_on_c, 4, 76, 0
6, 18840, Note_on_c, 4, 77, 100
6, 18960, Note_on_c, 4, 77, 0
6, 18960, Note_on_c, 4, 79, 100
6, 19320, Note_on_c, 4, 79, 0
6, 19320, Note_on_c, 4, 77, 100
6, 19380, Note_on_c, 4, 77, 0
6, 19380, Note_on_c, 4, 76, 100
6, 19440, Note_on_c, 4, 76, 0
6, 19440, Note_on_c, 4, 77, 100
6, 19680, Note_on_c, 4, 77, 0
6, 19800, Note_on_c, 4, 74, 100
6, 20040, Note_on_c, 4, 74, 0
6, 20040, Note_on_c, 4, 72, 100
6, 20100, Note_on_c, 4, 72, 0
6, 20100, Note_on_c, 4, 70, 100
6, 20160, Note_on_c, 4, 70, 0
6, 20160, Note_on_c, 4, 69, 100
6, 21120, Note_on_c, 4, 69, 0
6, 21120, End_track
7, 0, Start_track
7, 0, MIDI_port, 0
7, 0, Title_t, "BWV 1078"
7, 0, Program_c, 5, 24
7, 0, Control_c, 5, 7, 100
7, 0, Control_c, 5, 10, 79
7, 5040, Note_on_c, 5, 65, 100
7, 5280, Note_on_c, 5, 65, 0
7, 5280, Note_on_c, 5, 67, 100
7, 5760, Note_on_c, 5, 67, 0
7, 5760, Note_on_c, 5, 69, 100
7, 5880, Note_on_c, 5, 69, 0
7, 5880, Note_on_c, 5, 70, 100
7, 6000, Note_on_c, 5, 70, 0
7, 6000, Note_on_c, 5, 72, 100
7, 6120, Note_on_c, 5, 72, 0
7, 6120, Note_on_c, 5, 74, 100
7, 6240, Note_on_c, 5, 74, 0
7, 6240, Note_on_c, 5, 76, 100
7, 6360, Note_on_c, 5, 76, 0
7, 6360, Note_on_c, 5, 77, 100
7, 6480, Note_on_c, 5, 77, 0
7, 6480, Note_on_c, 5, 79, 100
7, 6840, Note_on_c, 5, 79, 0
7, 6840, Note_on_c, 5, 77, 100
7, 6900, Note_on_c, 5, 77, 0
7, 6900, Note_on_c, 5, 76, 100
7, 6960, Note_on_c, 5, 76, 0
7, 6960, Note_on_c, 5, 77, 100
7, 7200, Note_on_c, 5, 77, 0
7, 7320, Note_on_c, 5, 74, 100
7, 7560, Note_on_c, 5, 74, 0
7, 7560, Note_on_c, 5, 72, 100
7, 7620, Note_on_c, 5, 72, 0
7, 7620, Note_on_c, 5, 70, 100
7, 7680, Note_on_c, 5, 70, 0
7, 7680, Note_on_c, 5, 69, 100
7, 8160, Note_on_c, 5, 69, 0
7, 8160, Note_on_c, 5, 67, 100
7, 8640, Note_on_c, 5, 67, 0
7, 8640, Note_on_c, 5, 65, 100
7, 9000, Note_on_c, 5, 65, 0
7, 9000, Note_on_c, 5, 62, 100
7, 9120, Note_on_c, 5, 62, 0
7, 9120, Note_on_c, 5, 67, 100
7, 9480, Note_on_c, 5, 67, 0
7, 9480, Note_on_c, 5, 60, 100
7, 9600, Note_on_c, 5, 60, 0
7, 9600, Note_on_c, 5, 65, 100
7, 9840, Note_on_c, 5, 65, 0
7, 10200, Note_on_c, 5, 70, 100
7, 10440, Note_on_c, 5, 70, 0
7, 10440, Note_on_c, 5, 72, 100
7, 10680, Note_on_c, 5, 72, 0
7, 10680, Note_on_c, 5, 74, 100
7, 10740, Note_on_c, 5, 74, 0
7, 10740, Note_on_c, 5, 72, 100
7, 10770, Note_on_c, 5, 72, 0
7, 10770, Note_on_c, 5, 70, 100
7, 10800, Note_on_c, 5, 70, 0
7, 10800, Note_on_c, 5, 69, 100
7, 10860, Note_on_c, 5, 69, 0
7, 10860, Note_on_c, 5, 65, 100
7, 10920, Note_on_c, 5, 65, 0
7, 10920, Note_on_c, 5, 77, 100
7, 11040, Note_on_c, 5, 77, 0
7, 11040, Note_on_c, 5, 76, 100
7, 11160, Note_on_c, 5, 76, 0
7, 11160, Note_on_c, 5, 74, 100
7, 11280, Note_on_c, 5, 74, 0
7, 11280, Note_on_c, 5, 76, 100
7, 11400, Note_on_c, 5, 76, 0
7, 11760, Note_on_c, 5, 65, 100
7, 12000, Note_on_c, 5, 65, 0
7, 12000, Note_on_c, 5, 67, 100
7, 12480, Note_on_c, 5, 67, 0
7, 12480, Note_on_c, 5, 69, 100
7, 12600, Note_on_c, 5, 69, 0
7, 12600, Note_on_c, 5, 70, 100
7, 12720, Note_on_c, 5, 70, 0
7, 12720, Note_on_c, 5, 72, 100
7, 12840, Note_on_c, 5, 72, 0
7, 12840, Note_on_c, 5, 74, 100
7, 12960, Note_on_c, 5, 74, 0
7, 12960, Note_on_c, 5, 76, 100
7, 13080, Note_on_c, 5, 76, 0
7, 13080, Note_on_c, 5, 77, 100
7, 13200, Note_on_c, 5, 77, 0
7, 13200, Note_on_c, 5, 79, 100
7, 13560, Note_on_c, 5, 79, 0
7, 13560, Note_on_c, 5, 77, 100
7, 13620, Note_on_c, 5, 77, 0
7, 13620, Note_on_c, 5, 76, 100
7, 13680, Note_on_c, 5, 76, 0
7, 13680, Note_on_c, 5, 77, 100
7, 13920, Note_on_c, 5, 77, 0
7, 14040, Note_on_c, 5, 74, 100
7, 14280, Note_on_c, 5, 74, 0
7, 14280, Note_on_c, 5, 72, 100
7, 14340, Note_on_c, 5, 72, 0
7, 14340, Note_on_c, 5, 70, 100
7, 14400, Note_on_c, 5, 70, 0
7, 14400, Note_on_c, 5, 69, 100
7, 14880, Note_on_c, 5, 69, 0
7, 14880, Note_on_c, 5, 67, 100
7, 15360, Note_on_c, 5, 67, 0
7, 15360, Note_on_c, 5, 65, 100
7, 15720, Note_on_c, 5, 65, 0
7, 15720, Note_on_c, 5, 62, 100
7, 15840, Note_on_c, 5, 62, 0
7, 15840, Note_on_c, 5, 67, 100
7, 16200, Note_on_c, 5, 67, 0
7, 16200, Note_on_c, 5, 60, 100
7, 16320, Note_on_c, 5, 60, 0
7, 16320, Note_on_c, 5, 65, 100
7, 16560, Note_on_c, 5, 65, 0
7, 16920, Note_on_c, 5, 70, 100
7, 17160, Note_on_c, 5, 70, 0
7, 17160, Note_on_c, 5, 72, 100
7, 17400, Note_on_c, 5, 72, 0
7, 17400, Note_on_c, 5, 74, 100
7, 17460, Note_on_c, 5, 74, 0
7, 17460, Note_on_c, 5, 72, 100
7, 17490, Note_on_c, 5, 72, 0
7, 17490, Note_on_c, 5, 70, 100
7, 17520, Note_on_c, 5, 70, 0
7, 17520, Note_on_c, 5, 69, 100
7, 17580, Note_on_c, 5, 69, 0
7, 17580, Note_on_c, 5, 65, 100
7, 17640, Note_on_c, 5, 65, 0
7, 17640, Note_on_c, 5, 77, 100
7, 17760, Note_on_c, 5, 77, 0
7, 17760, Note_on_c, 5, 76, 100
7, 17880, Note_on_c, 5, 76, 0
7, 17880, Note_on_c, 5, 74, 100
7, 18000, Note_on_c, 5, 74, 0
7, 18000, Note_on_c, 5, 76, 100
7, 18120, Note_on_c, 5, 76, 0
7, 18480, Note_on_c, 5, 65, 100
7, 18720, Note_on_c, 5, 65, 0
7, 18720, Note_on_c, 5, 67, 100
7, 19200, Note_on_c, 5, 67, 0
7, 19200, Note_on_c, 5, 69, 100
7, 19320, Note_on_c, 5, 69, 0
7, 19320, Note_on_c, 5, 70, 100
7, 19440, Note_on_c, 5, 70, 0
7, 19440, Note_on_c, 5, 72, 100
7, 19560, Note_on_c, 5, 72, 0
7, 19560, Note_on_c, 5, 74, 100
7, 19680, Note_on_c, 5, 74, 0
7, 19680, Note_on_c, 5, 76, 100
7, 19800, Note_on_c, 5, 76, 0
7, 19800, Note_on_c, 5, 77, 100
7, 19920, Note_on_c, 5, 77, 0
7, 19920, Note_on_c, 5, 79, 100
7, 20280, Note_on_c, 5, 79, 0
7, 20280, Note_on_c, 5, 77, 100
7, 20340, Note_on_c, 5, 77, 0
7, 20340, Note_on_c, 5, 76, 100
7, 20400, Note_on_c, 5, 76, 0
7, 20400, Note_on_c, 5, 77, 100
7, 21120, Note_on_c, 5, 77, 0
7, 21120, End_track
8, 0, Start_track
8, 0, MIDI_port, 0
8, 0, Title_t, "--------------------------------------"
8, 0, Program_c, 6, 24
8, 0, Control_c, 6, 7, 100
8, 0, Control_c, 6, 10, 89
8, 6000, Note_on_c, 6, 65, 100
8, 6240, Note_on_c, 6, 65, 0
8, 6240, Note_on_c, 6, 67, 100
8, 6720, Note_on_c, 6, 67, 0
8, 6720, Note_on_c, 6, 69, 100
8, 6840, Note_on_c, 6, 69, 0
8, 6840, Note_on_c, 6, 70, 100
8, 6960, Note_on_c, 6, 70, 0
8, 6960, Note_on_c, 6, 72, 100
8, 7080, Note_on_c, 6, 72, 0
8, 7080, Note_on_c, 6, 74, 100
8, 7200, Note_on_c, 6, 74, 0
8, 7200, Note_on_c, 6, 76, 100
8, 7320, Note_on_c, 6, 76, 0
8, 7320, Note_on_c, 6, 77, 100
8, 7440, Note_on_c, 6, 77, 0
8, 7440, Note_on_c, 6, 79, 100
8, 7800, Note_on_c, 6, 79, 0
8, 7800, Note_on_c, 6, 77, 100
8, 7860, Note_on_c, 6, 77, 0
8, 7860, Note_on_c, 6, 76, 100
8, 7920, Note_on_c, 6, 76, 0
8, 7920, Note_on_c, 6, 77, 100
8, 8160, Note_on_c, 6, 77, 0
8, 8280, Note_on_c, 6, 74, 100
8, 8520, Note_on_c, 6, 74, 0
8, 8520, Note_on_c, 6, 72, 100
8, 8580, Note_on_c, 6, 72, 0
8, 8580, Note_on_c, 6, 70, 100
8, 8640, Note_on_c, 6, 70, 0
8, 8640, Note_on_c, 6, 69, 100
8, 9120, Note_on_c, 6, 69, 0
8, 9120, Note_on_c, 6, 67, 100
8, 9600, Note_on_c, 6, 67, 0
8, 9600, Note_on_c, 6, 65, 100
8, 9960, Note_on_c, 6, 65, 0
8, 9960, Note_on_c, 6, 62, 100
8, 10080, Note_on_c, 6, 62, 0
8, 10080, Note_on_c, 6, 67, 100
8, 10440, Note_on_c, 6, 67, 0
8, 10440, Note_on_c, 6, 60, 100
8, 10560, Note_on_c, 6, 60, 0
8, 10560, Note_on_c, 6, 65, 100
8, 10800, Note_on_c, 6, 65, 0
8, 11160, Note_on_c, 6, 70, 100
8, 11400, Note_on_c, 6, 70, 0
8, 11400, Note_on_c, 6, 72, 100
8, 11640, Note_on_c, 6, 72, 0
8, 11640, Note_on_c, 6, 74, 100
8, 11700, Note_on_c, 6, 74, 0
8, 11700, Note_on_c, 6, 72, 100
8, 11730, Note_on_c, 6, 72, 0
8, 11730, Note_on_c, 6, 70, 100
8, 11760, Note_on_c, 6, 70, 0
8, 11760, Note_on_c, 6, 69, 100
8, 11820, Note_on_c, 6, 69, 0
8, 11820, Note_on_c, 6, 65, 100
8, 11880, Note_on_c, 6, 65, 0
8, 11880, Note_on_c, 6, 77, 100
8, 12000, Note_on_c, 6, 77, 0
8, 12000, Note_on_c, 6, 76, 100
8, 12120, Note_on_c, 6, 76, 0
8, 12120, Note_on_c, 6, 74, 100
8, 12240, Note_on_c, 6, 74, 0
8, 12240, Note_on_c, 6, 76, 100
8, 12360, Note_on_c, 6, 76, 0
8, 12720, Note_on_c, 6, 65, 100
8, 12960, Note_on_c, 6, 65, 0
8, 12960, Note_on_c, 6, 67, 100
8, 13440, Note_on_c, 6, 67, 0
8, 13440, Note_on_c, 6, 69, 100
8, 13560, Note_on_c, 6, 69, 0
8, 13560, Note_on_c, 6, 70, 100
8, 13680, Note_on_c, 6, 70, 0
8, 13680, Note_on_c, 6, 72, 100
8, 13800, Note_on_c, 6, 72, 0
8, 13800, Note_on_c, 6, 74, 100
8, 13920, Note_on_c, 6, 74, 0
8, 13920, Note_on_c, 6, 76, 100
8, 14040, Note_on_c, 6, 76, 0
8, 14040, Note_on_c, 6, 77, 100
8, 14160, Note_on_c, 6, 77, 0
8, 14160, Note_on_c, 6, 79, 100
8, 14520, Note_on_c, 6, 79, 0
8, 14520, Note_on_c, 6, 77, 100
8, 14580, Note_on_c, 6, 77, 0
8, 14580, Note_on_c, 6, 76, 100
8, 14640, Note_on_c, 6, 76, 0
8, 14640, Note_on_c, 6, 77, 100
8, 14880, Note_on_c, 6, 77, 0
8, 15000, Note_on_c, 6, 74, 100
8, 15240, Note_on_c, 6, 74, 0
8, 15240, Note_on_c, 6, 72, 100
8, 15300, Note_on_c, 6, 72, 0
8, 15300, Note_on_c, 6, 70, 100
8, 15360, Note_on_c, 6, 70, 0
8, 15360, Note_on_c, 6, 69, 100
8, 15840, Note_on_c, 6, 69, 0
8, 15840, Note_on_c, 6, 67, 100
8, 16320, Note_on_c, 6, 67, 0
8, 16320, Note_on_c, 6, 65, 100
8, 16680, Note_on_c, 6, 65, 0
8, 16680, Note_on_c, 6, 62, 100
8, 16800, Note_on_c, 6, 62, 0
8, 16800, Note_on_c, 6, 67, 100
8, 17160, Note_on_c, 6, 67, 0
8, 17160, Note_on_c, 6, 60, 100
8, 17280, Note_on_c, 6, 60, 0
8, 17280, Note_on_c, 6, 65, 100
8, 17520, Note_on_c, 6, 65, 0
8, 17880, Note_on_c, 6, 70, 100
8, 18120, Note_on_c, 6, 70, 0
8, 18120, Note_on_c, 6, 72, 100
8, 18360, Note_on_c, 6, 72, 0
8, 18360, Note_on_c, 6, 74, 100
8, 18420, Note_on_c, 6, 74, 0
8, 18420, Note_on_c, 6, 72, 100
8, 18450, Note_on_c, 6, 72, 0
8, 18450, Note_on_c, 6, 70, 100
8, 18480, Note_on_c, 6, 70, 0
8, 18480, Note_on_c, 6, 69, 100
8, 18540, Note_on_c, 6, 69, 0
8, 18540, Note_on_c, 6, 65, 100
8, 18600, Note_on_c, 6, 65, 0
8, 18600, Note_on_c, 6, 77, 100
8, 18720, Note_on_c, 6, 77, 0
8, 18720, Note_on_c, 6, 76, 100
8, 18840, Note_on_c, 6, 76, 0
8, 18840, Note_on_c, 6, 74, 100
8, 18960, Note_on_c, 6, 74, 0
8, 18960, Note_on_c, 6, 76, 100
8, 19080, Note_on_c, 6, 76, 0
8, 19440, Note_on_c, 6, 65, 100
8, 19680, Note_on_c, 6, 65, 0
8, 19680, Note_on_c, 6, 67, 100
8, 20160, Note_on_c, 6, 67, 0
8, 20160, Note_on_c, 6, 69, 100
8, 20280, Note_on_c, 6, 69, 0
8, 20280, Note_on_c, 6, 70, 100
8, 20400, Note_on_c, 6, 70, 0
8, 20400, Note_on_c, 6, 72, 100
8, 21120, Note_on_c, 6, 72, 0
8, 21120, End_track
9, 0, Start_track
9, 0, MIDI_port, 0
9, 0, Title_t, "Sequenced with Cakewalk Pro Audio by"
9, 0, Program_c, 7, 24
9, 0, Control_c, 7, 7, 100
9, 0, Control_c, 7, 10, 99
9, 0, Note_on_c, 7, 65, 100
9, 240, Note_on_c, 7, 65, 0
9, 240, Note_on_c, 7, 69, 100
9, 480, Note_on_c, 7, 69, 0
9, 480, Note_on_c, 7, 70, 100
9, 720, Note_on_c, 7, 70, 0
9, 720, Note_on_c, 7, 64, 100
9, 960, Note_on_c, 7, 64, 0
9, 960, Note_on_c, 7, 65, 100
9, 1200, Note_on_c, 7, 65, 0
9, 1200, Note_on_c, 7, 69, 100
9, 1440, Note_on_c, 7, 69, 0
9, 1440, Note_on_c, 7, 70, 100
9, 1680, Note_on_c, 7, 70, 0
9, 1680, Note_on_c, 7, 64, 100
9, 1920, Note_on_c, 7, 64, 0
9, 1920, Note_on_c, 7, 65, 100
9, 2160, Note_on_c, 7, 65, 0
9, 2160, Note_on_c, 7, 69, 100
9, 2400, Note_on_c, 7, 69, 0
9, 2400, Note_on_c, 7, 70, 100
9, 2640, Note_on_c, 7, 70, 0
9, 2640, Note_on_c, 7, 64, 100
9, 2880, Note_on_c, 7, 64, 0
9, 2880, Note_on_c, 7, 65, 100
9, 3120, Note_on_c, 7, 65, 0
9, 3120, Note_on_c, 7, 69, 100
9, 3360, Note_on_c, 7, 69, 0
9, 3360, Note_on_c, 7, 70, 100
9, 3600, Note_on_c, 7, 70, 0
9, 3600, Note_on_c, 7, 64, 100
9, 3840, Note_on_c, 7, 64, 0
9, 3840, Note_on_c, 7, 65, 100
9, 4080, Note_on_c, 7, 65, 0
9, 4080, Note_on_c, 7, 69, 100
9, 4320, Note_on_c, 7, 69, 0
9, 4320, Note_on_c, 7, 70, 100
9, 4560, Note_on_c, 7, 70, 0
9, 4560, Note_on_c, 7, 64, 100
9, 4800, Note_on_c, 7, 64, 0
9, 4800, Note_on_c, 7, 65, 100
9, 5040, Note_on_c, 7, 65, 0
9, 5040, Note_on_c, 7, 69, 100
9, 5280, Note_on_c, 7, 69, 0
9, 5280, Note_on_c, 7, 70, 100
9, 5520, Note_on_c, 7, 70, 0
9, 5520, Note_on_c, 7, 64, 100
9, 5760, Note_on_c, 7, 64, 0
9, 5760, Note_on_c, 7, 65, 100
9, 6000, Note_on_c, 7, 65, 0
9, 6000, Note_on_c, 7, 69, 100
9, 6240, Note_on_c, 7, 69, 0
9, 6240, Note_on_c, 7, 70, 100
9, 6480, Note_on_c, 7, 70, 0
9, 6480, Note_on_c, 7, 64, 100
9, 6720, Note_on_c, 7, 64, 0
9, 6720, Note_on_c, 7, 65, 100
9, 6960, Note_on_c, 7, 65, 0
9, 6960, Note_on_c, 7, 69, 100
9, 7200, Note_on_c, 7, 69, 0
9, 7200, Note_on_c, 7, 70, 100
9, 7440, Note_on_c, 7, 70, 0
9, 7440, Note_on_c, 7, 64, 100
9, 7680, Note_on_c, 7, 64, 0
9, 7680, Note_on_c, 7, 65, 100
9, 7920, Note_on_c, 7, 65, 0
9, 7920, Note_on_c, 7, 69, 100
9, 8160, Note_on_c, 7, 69, 0
9, 8160, Note_on_c, 7, 70, 100
9, 8400, Note_on_c, 7, 70, 0
9, 8400, Note_on_c, 7, 64, 100
9, 8640, Note_on_c, 7, 64, 0
9, 8640, Note_on_c, 7, 65, 100
9, 8880, Note_on_c, 7, 65, 0
9, 8880, Note_on_c, 7, 69, 100
9, 9120, Note_on_c, 7, 69, 0
9, 9120, Note_on_c, 7, 70, 100
9, 9360, Note_on_c, 7, 70, 0
9, 9360, Note_on_c, 7, 64, 100
9, 9600, Note_on_c, 7, 64, 0
9, 9600, Note_on_c, 7, 65, 100
9, 9840, Note_on_c, 7, 65, 0
9, 9840, Note_on_c, 7, 69, 100
9, 10080, Note_on_c, 7, 69, 0
9, 10080, Note_on_c, 7, 70, 100
9, 10320, Note_on_c, 7, 70, 0
9, 10320, Note_on_c, 7, 64, 100
9, 10560, Note_on_c, 7, 64, 0
9, 10560, Note_on_c, 7, 65, 100
9, 10800, Note_on_c, 7, 65, 0
9, 10800, Note_on_c, 7, 69, 100
9, 11040, Note_on_c, 7, 69, 0
9, 11040, Note_on_c, 7, 70, 100
9, 11280, Note_on_c, 7, 70, 0
9, 11280, Note_on_c, 7, 64, 100
9, 11520, Note_on_c, 7, 64, 0
9, 11520, Note_on_c, 7, 65, 100
9, 11760, Note_on_c, 7, 65, 0
9, 11760, Note_on_c, 7, 69, 100
9, 12000, Note_on_c, 7, 69, 0
9, 12000, Note_on_c, 7, 70, 100
9, 12240, Note_on_c, 7, 70, 0
9, 12240, Note_on_c, 7, 64, 100
9, 12480, Note_on_c, 7, 64, 0
9, 12480, Note_on_c, 7, 65, 100
9, 12720, Note_on_c, 7, 65, 0
9, 12720, Note_on_c, 7, 69, 100
9, 12960, Note_on_c, 7, 69, 0
9, 12960, Note_on_c, 7, 70, 100
9, 13200, Note_on_c, 7, 70, 0
9, 13200, Note_on_c, 7, 64, 100
9, 13440, Note_on_c, 7, 64, 0
9, 13440, Note_on_c, 7, 65, 100
9, 13680, Note_on_c, 7, 65, 0
9, 13680, Note_on_c, 7, 69, 100
9, 13920, Note_on_c, 7, 69, 0
9, 13920, Note_on_c, 7, 70, 100
9, 14160, Note_on_c, 7, 70, 0
9, 14160, Note_on_c, 7, 64, 100
9, 14400, Note_on_c, 7, 64, 0
9, 14400, Note_on_c, 7, 65, 100
9, 14640, Note_on_c, 7, 65, 0
9, 14640, Note_on_c, 7, 69, 100
9, 14880, Note_on_c, 7, 69, 0
9, 14880, Note_on_c, 7, 70, 100
9, 15120, Note_on_c, 7, 70, 0
9, 15120, Note_on_c, 7, 64, 100
9, 15360, Note_on_c, 7, 64, 0
9, 15360, Note_on_c, 7, 65, 100
9, 15600, Note_on_c, 7, 65, 0
9, 15600, Note_on_c, 7, 69, 100
9, 15840, Note_on_c, 7, 69, 0
9, 15840, Note_on_c, 7, 70, 100
9, 16080, Note_on_c, 7, 70, 0
9, 16080, Note_on_c, 7, 64, 100
9, 16320, Note_on_c, 7, 64, 0
9, 16320, Note_on_c, 7, 65, 100
9, 16560, Note_on_c, 7, 65, 0
9, 16560, Note_on_c, 7, 69, 100
9, 16800, Note_on_c, 7, 69, 0
9, 16800, Note_on_c, 7, 70, 100
9, 17040, Note_on_c, 7, 70, 0
9, 17040, Note_on_c, 7, 64, 100
9, 17280, Note_on_c, 7, 64, 0
9, 17280, Note_on_c, 7, 65, 100
9, 17520, Note_on_c, 7, 65, 0
9, 17520, Note_on_c, 7, 69, 100
9, 17760, Note_on_c, 7, 69, 0
9, 17760, Note_on_c, 7, 70, 100
9, 18000, Note_on_c, 7, 70, 0
9, 18000, Note_on_c, 7, 64, 100
9, 18240, Note_on_c, 7, 64, 0
9, 18240, Note_on_c, 7, 65, 100
9, 18480, Note_on_c, 7, 65, 0
9, 18480, Note_on_c, 7, 69, 100
9, 18720, Note_on_c, 7, 69, 0
9, 18720, Note_on_c, 7, 70, 100
9, 18960, Note_on_c, 7, 70, 0
9, 18960, Note_on_c, 7, 64, 100
9, 19200, Note_on_c, 7, 64, 0
9, 19200, Note_on_c, 7, 65, 100
9, 19440, Note_on_c, 7, 65, 0
9, 19440, Note_on_c, 7, 69, 100
9, 19680, Note_on_c, 7, 69, 0
9, 19680, Note_on_c, 7, 70, 100
9, 19920, Note_on_c, 7, 70, 0
9, 19920, Note_on_c, 7, 64, 100
9, 20160, Note_on_c, 7, 64, 0
9, 20160, Note_on_c, 7, 65, 100
9, 21120, Note_on_c, 7, 65, 0
9, 21120, End_track
10, 0, Start_track
10, 0, MIDI_port, 0
10, 0, Title_t, "David J. Grossman - dave@unpronounceable.com"
10, 0, End_track
11, 0, Start_track
11, 0, MIDI_port, 0
11, 0, Title_t, "This and other Bach MIDI files can be found at:"
11, 0, End_track
12, 0, Start_track
12, 0, MIDI_port, 0
12, 0, Title_t, "Dave's J.S. Bach Page"
12, 0, End_track
13, 0, Start_track
13, 0, MIDI_port, 0
13, 0, Title_t, "http://www.unpronounceable.com/bach"
13, 0, End_track
14, 0, Start_track
14, 0, MIDI_port, 0
14, 0, Title_t, "For more info about this work, check out:"
14, 0, End_track
15, 0, Start_track
15, 0, MIDI_port, 0
15, 0, Title_t, "http://jan.ucc.nau.edu/~tas3/bachindex.html"
15, 0, End_track
16, 0, Start_track
16, 0, MIDI_port, 0
16, 0, Title_t, "Original Filename: bwv1078.mid"
16, 0, End_track
17, 0, Start_track
17, 0, MIDI_port, 0
17, 0, Title_t, "Last Modified: December 4, 1997"
17, 0, End_track
0, 0, End_of_file
