0, 0, Header, 1, 13, 384
1, 0, Start_track
1, 0, Title_t, "untitled"
1, 0, SMPTE_offset, 96, 0, 3, 0, 0
1, 0, Time_signature, 4, 2, 24, 8
1, 0, Key_signature, 0, "major"
1, 0, Tempo, 2142857
1, 0, End_track
2, 0, Start_track
2, 0, MIDI_port, 0
2, 0, Title_t, "Solo Violin"
2, 0, Program_c, 0, 40
2, 0, Control_c, 0, 7, 115
2, 0, Control_c, 0, 10, 64
2, 6144, Note_on_c, 0, 79, 100
2, 6576, Note_on_c, 0, 79, 0
2, 6576, Note_on_c, 0, 77, 100
2, 6624, Note_on_c, 0, 77, 0
2, 6624, Note_on_c, 0, 76, 100
2, 6672, Note_on_c, 0, 76, 0
2, 6672, Note_on_c, 0, 74, 100
2, 6720, Note_on_c, 0, 74, 0
2, 6720, Note_on_c, 0, 72, 100
2, 6816, Note_on_c, 0, 72, 0
2, 6816, Note_on_c, 0, 71, 100
2, 6912, Note_on_c, 0, 71, 0
2, 6912, Note_on_c, 0, 72, 100
2, 7008, Note_on_c, 0, 72, 0
2, 7008, Note_on_c, 0, 79, 100
2, 7344, Note_on_c, 0, 79, 0
2, 7344, Note_on_c, 0, 77, 100
2, 7392, Note_on_c, 0, 77, 0
2, 7392, Note_on_c, 0, 76, 100
2, 7440, Note_on_c, 0, 76, 0
2, 7440, Note_on_c, 0, 74, 100
2, 7488, Note_on_c, 0, 74, 0
2, 7488, Note_on_c, 0, 72, 100
2, 7584, Note_on_c, 0, 72, 0
2, 7584, Note_on_c, 0, 71, 100
2, 7680, Note_on_c, 0, 71, 0
2, 7680, Note_on_c, 0, 72, 100
2, 7744, Note_on_c, 0, 72, 0
2, 7744, Note_on_c, 0, 82, 100
2, 7808, Note_on_c, 0, 82, 0
2, 7808, Note_on_c, 0, 81, 100
2, 7872, Note_on_c, 0, 81, 0
2, 7872, Note_on_c, 0, 72, 100
2, 7936, Note_on_c, 0, 72, 0
2, 7936, Note_on_c, 0, 81, 100
2, 8000, Note_on_c, 0, 81, 0
2, 8000, Note_on_c, 0, 79, 100
2, 8064, Note_on_c, 0, 79, 0
2, 8064, Note_on_c, 0, 71, 100
2, 8128, Note_on_c, 0, 71, 0
2, 8128, Note_on_c, 0, 79, 100
2, 8192, Note_on_c, 0, 79, 0
2, 8192, Note_on_c, 0, 77, 100
2, 8256, Note_on_c, 0, 77, 0
2, 8256, Note_on_c, 0, 72, 100
2, 8320, Note_on_c, 0, 72, 0
2, 8320, Note_on_c, 0, 77, 100
2, 8384, Note_on_c, 0, 77, 0
2, 8384, Note_on_c, 0, 76, 100
2, 8448, Note_on_c, 0, 76, 0
2, 8448, Note_on_c, 0, 74, 100
2, 8512, Note_on_c, 0, 74, 0
2, 8512, Note_on_c, 0, 78, 100
2, 8576, Note_on_c, 0, 78, 0
2, 8576, Note_on_c, 0, 79, 100
2, 8640, Note_on_c, 0, 79, 0
2, 8640, Note_on_c, 0, 67, 100
2, 8832, Note_on_c, 0, 67, 0
2, 12288, Note_on_c, 0, 76, 100
2, 12736, Note_on_c, 0, 76, 0
2, 12736, Note_on_c, 0, 72, 100
2, 12800, Note_on_c, 0, 72, 0
2, 12800, Note_on_c, 0, 71, 100
2, 12864, Note_on_c, 0, 71, 0
2, 12864, Note_on_c, 0, 72, 100
2, 12928, Note_on_c, 0, 72, 0
2, 12928, Note_on_c, 0, 76, 100
2, 12992, Note_on_c, 0, 76, 0
2, 12992, Note_on_c, 0, 81, 100
2, 13056, Note_on_c, 0, 81, 0
2, 13056, Note_on_c, 0, 81, 100
2, 13248, Note_on_c, 0, 81, 0
2, 13248, Note_on_c, 0, 74, 100
2, 13504, Note_on_c, 0, 74, 0
2, 13504, Note_on_c, 0, 71, 100
2, 13568, Note_on_c, 0, 71, 0
2, 13568, Note_on_c, 0, 69, 100
2, 13632, Note_on_c, 0, 69, 0
2, 13632, Note_on_c, 0, 71, 100
2, 13696, Note_on_c, 0, 71, 0
2, 13696, Note_on_c, 0, 74, 100
2, 13760, Note_on_c, 0, 74, 0
2, 13760, Note_on_c, 0, 79, 100
2, 13824, Note_on_c, 0, 79, 0
2, 13824, Note_on_c, 0, 79, 100
2, 13888, Note_on_c, 0, 79, 0
2, 13888, Note_on_c, 0, 78, 100
2, 13952, Note_on_c, 0, 78, 0
2, 13952, Note_on_c, 0, 76, 100
2, 14016, Note_on_c, 0, 76, 0
2, 14016, Note_on_c, 0, 78, 100
2, 14080, Note_on_c, 0, 78, 0
2, 14080, Note_on_c, 0, 81, 100
2, 14144, Note_on_c, 0, 81, 0
2, 14144, Note_on_c, 0, 84, 100
2, 14208, Note_on_c, 0, 84, 0
2, 14208, Note_on_c, 0, 84, 100
2, 14272, Note_on_c, 0, 84, 0
2, 14272, Note_on_c, 0, 83, 100
2, 14336, Note_on_c, 0, 83, 0
2, 14336, Note_on_c, 0, 81, 100
2, 14400, Note_on_c, 0, 81, 0
2, 14400, Note_on_c, 0, 79, 100
2, 14464, Note_on_c, 0, 79, 0
2, 14464, Note_on_c, 0, 78, 100
2, 14528, Note_on_c, 0, 78, 0
2, 14528, Note_on_c, 0, 76, 100
2, 14592, Note_on_c, 0, 76, 0
2, 14592, Note_on_c, 0, 74, 100
2, 15040, Note_on_c, 0, 74, 0
2, 15040, Note_on_c, 0, 78, 100
2, 15104, Note_on_c, 0, 78, 0
2, 15104, Note_on_c, 0, 81, 100
2, 15168, Note_on_c, 0, 81, 0
2, 15168, Note_on_c, 0, 84, 100
2, 15232, Note_on_c, 0, 84, 0
2, 15232, Note_on_c, 0, 83, 100
2, 15296, Note_on_c, 0, 83, 0
2, 15296, Note_on_c, 0, 81, 100
2, 15360, Note_on_c, 0, 81, 0
2, 15360, Note_on_c, 0, 83, 100
2, 15424, Note_on_c, 0, 83, 0
2, 15424, Note_on_c, 0, 86, 100
2, 15488, Note_on_c, 0, 86, 0
2, 15488, Note_on_c, 0, 84, 100
2, 15552, Note_on_c, 0, 84, 0
2, 15552, Note_on_c, 0, 83, 100
2, 15616, Note_on_c, 0, 83, 0
2, 15616, Note_on_c, 0, 81, 100
2, 15680, Note_on_c, 0, 81, 0
2, 15680, Note_on_c, 0, 79, 100
2, 15744, Note_on_c, 0, 79, 0
2, 15744, Note_on_c, 0, 77, 100
2, 15808, Note_on_c, 0, 77, 0
2, 15808, Note_on_c, 0, 76, 100
2, 15872, Note_on_c, 0, 76, 0
2, 15872, Note_on_c, 0, 77, 100
2, 15936, Note_on_c, 0, 77, 0
2, 15936, Note_on_c, 0, 77, 100
2, 16192, Note_on_c, 0, 77, 0
2, 16192, Note_on_c, 0, 67, 100
2, 16256, Note_on_c, 0, 67, 0
2, 16256, Note_on_c, 0, 69, 100
2, 16320, Note_on_c, 0, 69, 0
2, 16320, Note_on_c, 0, 71, 100
2, 16384, Note_on_c, 0, 71, 0
2, 16384, Note_on_c, 0, 72, 100
2, 16448, Note_on_c, 0, 72, 0
2, 16448, Note_on_c, 0, 74, 100
2, 16512, Note_on_c, 0, 74, 0
2, 16512, Note_on_c, 0, 76, 100
2, 16576, Note_on_c, 0, 76, 0
2, 16576, Note_on_c, 0, 79, 100
2, 16640, Note_on_c, 0, 79, 0
2, 16640, Note_on_c, 0, 84, 100
2, 16704, Note_on_c, 0, 84, 0
2, 16704, Note_on_c, 0, 76, 100
2, 16960, Note_on_c, 0, 76, 0
2, 16960, Note_on_c, 0, 78, 100
2, 17024, Note_on_c, 0, 78, 0
2, 17024, Note_on_c, 0, 79, 100
2, 17088, Note_on_c, 0, 79, 0
2, 17088, Note_on_c, 0, 81, 100
2, 17152, Note_on_c, 0, 81, 0
2, 17152, Note_on_c, 0, 79, 100
2, 17216, Note_on_c, 0, 79, 0
2, 17216, Note_on_c, 0, 81, 100
2, 17280, Note_on_c, 0, 81, 0
2, 17280, Note_on_c, 0, 72, 100
2, 17344, Note_on_c, 0, 72, 0
2, 17344, Note_on_c, 0, 71, 100
2, 17408, Note_on_c, 0, 71, 0
2, 17408, Note_on_c, 0, 72, 100
2, 17472, Note_on_c, 0, 72, 0
2, 17472, Note_on_c, 0, 81, 100
2, 17616, Note_on_c, 0, 81, 0
2, 17616, Note_on_c, 0, 72, 100
2, 17664, Note_on_c, 0, 72, 0
2, 17664, Note_on_c, 0, 72, 100
2, 17728, Note_on_c, 0, 72, 0
2, 17728, Note_on_c, 0, 71, 100
2, 17792, Note_on_c, 0, 71, 0
2, 17792, Note_on_c, 0, 69, 100
2, 17856, Note_on_c, 0, 69, 0
2, 17856, Note_on_c, 0, 71, 100
2, 18112, Note_on_c, 0, 71, 0
2, 18112, Note_on_c, 0, 74, 100
2, 18176, Note_on_c, 0, 74, 0
2, 18176, Note_on_c, 0, 76, 100
2, 18240, Note_on_c, 0, 76, 0
2, 18240, Note_on_c, 0, 78, 100
2, 18304, Note_on_c, 0, 78, 0
2, 18304, Note_on_c, 0, 79, 100
2, 18368, Note_on_c, 0, 79, 0
2, 18368, Note_on_c, 0, 81, 100
2, 18432, Note_on_c, 0, 81, 0
2, 18432, Note_on_c, 0, 82, 100
2, 18880, Note_on_c, 0, 82, 0
2, 18880, Note_on_c, 0, 81, 100
2, 18944, Note_on_c, 0, 81, 0
2, 18944, Note_on_c, 0, 79, 100
2, 19008, Note_on_c, 0, 79, 0
2, 19008, Note_on_c, 0, 80, 100
2, 19264, Note_on_c, 0, 80, 0
2, 19264, Note_on_c, 0, 79, 100
2, 19328, Note_on_c, 0, 79, 0
2, 19328, Note_on_c, 0, 78, 100
2, 19392, Note_on_c, 0, 78, 0
2, 19392, Note_on_c, 0, 79, 100
2, 19648, Note_on_c, 0, 79, 0
2, 19648, Note_on_c, 0, 77, 100
2, 19712, Note_on_c, 0, 77, 0
2, 19712, Note_on_c, 0, 75, 100
2, 19776, Note_on_c, 0, 75, 0
2, 19776, Note_on_c, 0, 74, 100
2, 19840, Note_on_c, 0, 74, 0
2, 19840, Note_on_c, 0, 73, 100
2, 19904, Note_on_c, 0, 73, 0
2, 19904, Note_on_c, 0, 74, 100
2, 19968, Note_on_c, 0, 74, 0
2, 19968, Note_on_c, 0, 84, 100
2, 20032, Note_on_c, 0, 84, 0
2, 20032, Note_on_c, 0, 83, 100
2, 20096, Note_on_c, 0, 83, 0
2, 20096, Note_on_c, 0, 81, 100
2, 20160, Note_on_c, 0, 81, 0
2, 20160, Note_on_c, 0, 83, 100
2, 20304, Note_on_c, 0, 83, 0
2, 20304, Note_on_c, 0, 79, 100
2, 20352, Note_on_c, 0, 79, 0
2, 20352, Note_on_c, 0, 78, 100
2, 20376, Note_on_c, 0, 78, 0
2, 20376, Note_on_c, 0, 79, 100
2, 20400, Note_on_c, 0, 79, 0
2, 20400, Note_on_c, 0, 78, 100
2, 20424, Note_on_c, 0, 78, 0
2, 20424, Note_on_c, 0, 79, 100
2, 20448, Note_on_c, 0, 79, 0
2, 20448, Note_on_c, 0, 78, 100
2, 20472, Note_on_c, 0, 78, 0
2, 20472, Note_on_c, 0, 79, 100
2, 20496, Note_on_c, 0, 79, 0
2, 20496, Note_on_c, 0, 78, 100
2, 20520, Note_on_c, 0, 78, 0
2, 20520, Note_on_c, 0, 79, 100
2, 20544, Note_on_c, 0, 79, 0
2, 20544, Note_on_c, 0, 78, 100
2, 20568, Note_on_c, 0, 78, 0
2, 20568, Note_on_c, 0, 79, 100
2, 20592, Note_on_c, 0, 79, 0
2, 20592, Note_on_c, 0, 78, 100
2, 20616, Note_on_c, 0, 78, 0
2, 20616, Note_on_c, 0, 79, 100
2, 20640, Note_on_c, 0, 79, 0
2, 20640, Note_on_c, 0, 79, 100
2, 20736, Note_on_c, 0, 79, 0
2, 20736, Note_on_c, 0, 79, 100
2, 20800, Note_on_c, 0, 79, 0
2, 20800, Note_on_c, 0, 74, 100
2, 20864, Note_on_c, 0, 74, 0
2, 20864, Note_on_c, 0, 79, 100
2, 20928, Note_on_c, 0, 79, 0
2, 20928, Note_on_c, 0, 83, 100
2, 20992, Note_on_c, 0, 83, 0
2, 20992, Note_on_c, 0, 79, 100
2, 21056, Note_on_c, 0, 79, 0
2, 21056, Note_on_c, 0, 83, 100
2, 21120, Note_on_c, 0, 83, 0
2, 21120, Note_on_c, 0, 86, 100
2, 21184, Note_on_c, 0, 86, 0
2, 21184, Note_on_c, 0, 79, 100
2, 21248, Note_on_c, 0, 79, 0
2, 21248, Note_on_c, 0, 83, 100
2, 21312, Note_on_c, 0, 83, 0
2, 21312, Note_on_c, 0, 86, 100
2, 21376, Note_on_c, 0, 86, 0
2, 21376, Note_on_c, 0, 83, 100
2, 21440, Note_on_c, 0, 83, 0
2, 21440, Note_on_c, 0, 86, 100
2, 21504, Note_on_c, 0, 86, 0
2, 21504, Note_on_c, 0, 91, 100
2, 21888, Note_on_c, 0, 91, 0
2, 24576, Note_on_c, 0, 82, 100
2, 26176, Note_on_c, 0, 82, 0
2, 26176, Note_on_c, 0, 81, 100
2, 26240, Note_on_c, 0, 81, 0
2, 26240, Note_on_c, 0, 79, 100
2, 26304, Note_on_c, 0, 79, 0
2, 26304, Note_on_c, 0, 77, 100
2, 26368, Note_on_c, 0, 77, 0
2, 26368, Note_on_c, 0, 76, 100
2, 26432, Note_on_c, 0, 76, 0
2, 26432, Note_on_c, 0, 74, 100
2, 26496, Note_on_c, 0, 74, 0
2, 26496, Note_on_c, 0, 73, 100
2, 26560, Note_on_c, 0, 73, 0
2, 26560, Note_on_c, 0, 70, 100
2, 26624, Note_on_c, 0, 70, 0
2, 26624, Note_on_c, 0, 69, 100
2, 26688, Note_on_c, 0, 69, 0
2, 26688, Note_on_c, 0, 67, 100
2, 26752, Note_on_c, 0, 67, 0
2, 26752, Note_on_c, 0, 65, 100
2, 26816, Note_on_c, 0, 65, 0
2, 26816, Note_on_c, 0, 64, 100
2, 26880, Note_on_c, 0, 64, 0
2, 26880, Note_on_c, 0, 65, 100
2, 26944, Note_on_c, 0, 65, 0
2, 26944, Note_on_c, 0, 62, 100
2, 27008, Note_on_c, 0, 62, 0
2, 27008, Note_on_c, 0, 65, 100
2, 27072, Note_on_c, 0, 65, 0
2, 27072, Note_on_c, 0, 69, 100
2, 27136, Note_on_c, 0, 69, 0
2, 27136, Note_on_c, 0, 73, 100
2, 27200, Note_on_c, 0, 73, 0
2, 27200, Note_on_c, 0, 74, 100
2, 27264, Note_on_c, 0, 74, 0
2, 27264, Note_on_c, 0, 77, 100
2, 27712, Note_on_c, 0, 77, 0
2, 27712, Note_on_c, 0, 79, 100
2, 27776, Note_on_c, 0, 79, 0
2, 27776, Note_on_c, 0, 81, 100
2, 27840, Note_on_c, 0, 81, 0
2, 27840, Note_on_c, 0, 82, 100
2, 27904, Note_on_c, 0, 82, 0
2, 27904, Note_on_c, 0, 81, 100
2, 27968, Note_on_c, 0, 81, 0
2, 27968, Note_on_c, 0, 79, 100
2, 28032, Note_on_c, 0, 79, 0
2, 28032, Note_on_c, 0, 77, 100
2, 28096, Note_on_c, 0, 77, 0
2, 28096, Note_on_c, 0, 76, 100
2, 28160, Note_on_c, 0, 76, 0
2, 28160, Note_on_c, 0, 74, 100
2, 28224, Note_on_c, 0, 74, 0
2, 28224, Note_on_c, 0, 76, 100
2, 28480, Note_on_c, 0, 76, 0
2, 28480, Note_on_c, 0, 77, 100
2, 28544, Note_on_c, 0, 77, 0
2, 28544, Note_on_c, 0, 79, 100
2, 28608, Note_on_c, 0, 79, 0
2, 28608, Note_on_c, 0, 81, 100
2, 28672, Note_on_c, 0, 81, 0
2, 28672, Note_on_c, 0, 79, 100
2, 28736, Note_on_c, 0, 79, 0
2, 28736, Note_on_c, 0, 77, 100
2, 28800, Note_on_c, 0, 77, 0
2, 28800, Note_on_c, 0, 75, 100
2, 28864, Note_on_c, 0, 75, 0
2, 28864, Note_on_c, 0, 74, 100
2, 28928, Note_on_c, 0, 74, 0
2, 28928, Note_on_c, 0, 73, 100
2, 28992, Note_on_c, 0, 73, 0
2, 28992, Note_on_c, 0, 74, 100
2, 29248, Note_on_c, 0, 74, 0
2, 29248, Note_on_c, 0, 81, 100
2, 29312, Note_on_c, 0, 81, 0
2, 29312, Note_on_c, 0, 79, 100
2, 29376, Note_on_c, 0, 79, 0
2, 29376, Note_on_c, 0, 69, 100
2, 29440, Note_on_c, 0, 69, 0
2, 29440, Note_on_c, 0, 79, 100
2, 29504, Note_on_c, 0, 79, 0
2, 29504, Note_on_c, 0, 77, 100
2, 29568, Note_on_c, 0, 77, 0
2, 29568, Note_on_c, 0, 69, 100
2, 29632, Note_on_c, 0, 69, 0
2, 29632, Note_on_c, 0, 77, 100
2, 29696, Note_on_c, 0, 77, 0
2, 29696, Note_on_c, 0, 76, 100
2, 29760, Note_on_c, 0, 76, 0
2, 29760, Note_on_c, 0, 67, 100
2, 29824, Note_on_c, 0, 67, 0
2, 29824, Note_on_c, 0, 76, 100
2, 29888, Note_on_c, 0, 76, 0
2, 29888, Note_on_c, 0, 74, 100
2, 29952, Note_on_c, 0, 74, 0
2, 29952, Note_on_c, 0, 76, 100
2, 30016, Note_on_c, 0, 76, 0
2, 30016, Note_on_c, 0, 80, 100
2, 30080, Note_on_c, 0, 80, 0
2, 30080, Note_on_c, 0, 81, 100
2, 30144, Note_on_c, 0, 81, 0
2, 30144, Note_on_c, 0, 69, 100
2, 30336, Note_on_c, 0, 69, 0
2, 33792, Note_on_c, 0, 77, 100
2, 34240, Note_on_c, 0, 77, 0
2, 34240, Note_on_c, 0, 74, 100
2, 34304, Note_on_c, 0, 74, 0
2, 34304, Note_on_c, 0, 73, 100
2, 34368, Note_on_c, 0, 73, 0
2, 34368, Note_on_c, 0, 74, 100
2, 34432, Note_on_c, 0, 74, 0
2, 34432, Note_on_c, 0, 77, 100
2, 34496, Note_on_c, 0, 77, 0
2, 34496, Note_on_c, 0, 82, 100
2, 34560, Note_on_c, 0, 82, 0
2, 34560, Note_on_c, 0, 82, 100
2, 34752, Note_on_c, 0, 82, 0
2, 34752, Note_on_c, 0, 76, 100
2, 35008, Note_on_c, 0, 76, 0
2, 35008, Note_on_c, 0, 72, 100
2, 35072, Note_on_c, 0, 72, 0
2, 35072, Note_on_c, 0, 71, 100
2, 35136, Note_on_c, 0, 71, 0
2, 35136, Note_on_c, 0, 72, 100
2, 35200, Note_on_c, 0, 72, 0
2, 35200, Note_on_c, 0, 76, 100
2, 35264, Note_on_c, 0, 76, 0
2, 35264, Note_on_c, 0, 81, 100
2, 35328, Note_on_c, 0, 81, 0
2, 35328, Note_on_c, 0, 81, 100
2, 35392, Note_on_c, 0, 81, 0
2, 35392, Note_on_c, 0, 80, 100
2, 35456, Note_on_c, 0, 80, 0
2, 35456, Note_on_c, 0, 78, 100
2, 35520, Note_on_c, 0, 78, 0
2, 35520, Note_on_c, 0, 80, 100
2, 35584, Note_on_c, 0, 80, 0
2, 35584, Note_on_c, 0, 83, 100
2, 35648, Note_on_c, 0, 83, 0
2, 35648, Note_on_c, 0, 86, 100
2, 35712, Note_on_c, 0, 86, 0
2, 35712, Note_on_c, 0, 86, 100
2, 35776, Note_on_c, 0, 86, 0
2, 35776, Note_on_c, 0, 84, 100
2, 35840, Note_on_c, 0, 84, 0
2, 35840, Note_on_c, 0, 83, 100
2, 35904, Note_on_c, 0, 83, 0
2, 35904, Note_on_c, 0, 81, 100
2, 35968, Note_on_c, 0, 81, 0
2, 35968, Note_on_c, 0, 80, 100
2, 36032, Note_on_c, 0, 80, 0
2, 36032, Note_on_c, 0, 78, 100
2, 36096, Note_on_c, 0, 78, 0
2, 36096, Note_on_c, 0, 76, 100
2, 36544, Note_on_c, 0, 76, 0
2, 36544, Note_on_c, 0, 80, 100
2, 36608, Note_on_c, 0, 80, 0
2, 36608, Note_on_c, 0, 83, 100
2, 36672, Note_on_c, 0, 83, 0
2, 36672, Note_on_c, 0, 86, 100
2, 36736, Note_on_c, 0, 86, 0
2, 36736, Note_on_c, 0, 84, 100
2, 36800, Note_on_c, 0, 84, 0
2, 36800, Note_on_c, 0, 83, 100
2, 36864, Note_on_c, 0, 83, 0
2, 36864, Note_on_c, 0, 84, 100
2, 36928, Note_on_c, 0, 84, 0
2, 36928, Note_on_c, 0, 88, 100
2, 36992, Note_on_c, 0, 88, 0
2, 36992, Note_on_c, 0, 86, 100
2, 37056, Note_on_c, 0, 86, 0
2, 37056, Note_on_c, 0, 84, 100
2, 37120, Note_on_c, 0, 84, 0
2, 37120, Note_on_c, 0, 83, 100
2, 37184, Note_on_c, 0, 83, 0
2, 37184, Note_on_c, 0, 81, 100
2, 37248, Note_on_c, 0, 81, 0
2, 37248, Note_on_c, 0, 79, 100
2, 37312, Note_on_c, 0, 79, 0
2, 37312, Note_on_c, 0, 78, 100
2, 37376, Note_on_c, 0, 78, 0
2, 37376, Note_on_c, 0, 79, 100
2, 37440, Note_on_c, 0, 79, 0
2, 37440, Note_on_c, 0, 79, 100
2, 37696, Note_on_c, 0, 79, 0
2, 37696, Note_on_c, 0, 69, 100
2, 37760, Note_on_c, 0, 69, 0
2, 37760, Note_on_c, 0, 71, 100
2, 37824, Note_on_c, 0, 71, 0
2, 37824, Note_on_c, 0, 73, 100
2, 37888, Note_on_c, 0, 73, 0
2, 37888, Note_on_c, 0, 74, 100
2, 37952, Note_on_c, 0, 74, 0
2, 37952, Note_on_c, 0, 76, 100
2, 38016, Note_on_c, 0, 76, 0
2, 38016, Note_on_c, 0, 77, 100
2, 38080, Note_on_c, 0, 77, 0
2, 38080, Note_on_c, 0, 81, 100
2, 38144, Note_on_c, 0, 81, 0
2, 38144, Note_on_c, 0, 86, 100
2, 38208, Note_on_c, 0, 86, 0
2, 38208, Note_on_c, 0, 77, 100
2, 38464, Note_on_c, 0, 77, 0
2, 38464, Note_on_c, 0, 80, 100
2, 38528, Note_on_c, 0, 80, 0
2, 38528, Note_on_c, 0, 81, 100
2, 38592, Note_on_c, 0, 81, 0
2, 38592, Note_on_c, 0, 83, 100
2, 38656, Note_on_c, 0, 83, 0
2, 38656, Note_on_c, 0, 81, 100
2, 38720, Note_on_c, 0, 81, 0
2, 38720, Note_on_c, 0, 83, 100
2, 38784, Note_on_c, 0, 83, 0
2, 38784, Note_on_c, 0, 74, 100
2, 38848, Note_on_c, 0, 74, 0
2, 38848, Note_on_c, 0, 72, 100
2, 38912, Note_on_c, 0, 72, 0
2, 38912, Note_on_c, 0, 74, 100
2, 38976, Note_on_c, 0, 74, 0
2, 38976, Note_on_c, 0, 83, 100
2, 39120, Note_on_c, 0, 83, 0
2, 39120, Note_on_c, 0, 74, 100
2, 39168, Note_on_c, 0, 74, 0
2, 39168, Note_on_c, 0, 74, 100
2, 39232, Note_on_c, 0, 74, 0
2, 39232, Note_on_c, 0, 72, 100
2, 39296, Note_on_c, 0, 72, 0
2, 39296, Note_on_c, 0, 71, 100
2, 39360, Note_on_c, 0, 71, 0
2, 39360, Note_on_c, 0, 72, 100
2, 39616, Note_on_c, 0, 72, 0
2, 39616, Note_on_c, 0, 76, 100
2, 39680, Note_on_c, 0, 76, 0
2, 39680, Note_on_c, 0, 78, 100
2, 39744, Note_on_c, 0, 78, 0
2, 39744, Note_on_c, 0, 80, 100
2, 39808, Note_on_c, 0, 80, 0
2, 39808, Note_on_c, 0, 81, 100
2, 39872, Note_on_c, 0, 81, 0
2, 39872, Note_on_c, 0, 83, 100
2, 39936, Note_on_c, 0, 83, 0
2, 39936, Note_on_c, 0, 84, 100
2, 40384, Note_on_c, 0, 84, 0
2, 40384, Note_on_c, 0, 83, 100
2, 40448, Note_on_c, 0, 83, 0
2, 40448, Note_on_c, 0, 81, 100
2, 40512, Note_on_c, 0, 81, 0
2, 40512, Note_on_c, 0, 82, 100
2, 40768, Note_on_c, 0, 82, 0
2, 40768, Note_on_c, 0, 81, 100
2, 40832, Note_on_c, 0, 81, 0
2, 40832, Note_on_c, 0, 80, 100
2, 40896, Note_on_c, 0, 80, 0
2, 40896, Note_on_c, 0, 81, 100
2, 41152, Note_on_c, 0, 81, 0
2, 41152, Note_on_c, 0, 79, 100
2, 41216, Note_on_c, 0, 79, 0
2, 41216, Note_on_c, 0, 77, 100
2, 41280, Note_on_c, 0, 77, 0
2, 41280, Note_on_c, 0, 76, 100
2, 41344, Note_on_c, 0, 76, 0
2, 41344, Note_on_c, 0, 75, 100
2, 41408, Note_on_c, 0, 75, 0
2, 41408, Note_on_c, 0, 76, 100
2, 41472, Note_on_c, 0, 76, 0
2, 41472, Note_on_c, 0, 86, 100
2, 41536, Note_on_c, 0, 86, 0
2, 41536, Note_on_c, 0, 84, 100
2, 41600, Note_on_c, 0, 84, 0
2, 41600, Note_on_c, 0, 83, 100
2, 41664, Note_on_c, 0, 83, 0
2, 41664, Note_on_c, 0, 84, 100
2, 41808, Note_on_c, 0, 84, 0
2, 41808, Note_on_c, 0, 81, 100
2, 41856, Note_on_c, 0, 81, 0
2, 41856, Note_on_c, 0, 83, 100
2, 41880, Note_on_c, 0, 83, 0
2, 41880, Note_on_c, 0, 84, 100
2, 41904, Note_on_c, 0, 84, 0
2, 41904, Note_on_c, 0, 83, 100
2, 41928, Note_on_c, 0, 83, 0
2, 41928, Note_on_c, 0, 84, 100
2, 41952, Note_on_c, 0, 84, 0
2, 41952, Note_on_c, 0, 83, 100
2, 41976, Note_on_c, 0, 83, 0
2, 41976, Note_on_c, 0, 84, 100
2, 42000, Note_on_c, 0, 84, 0
2, 42000, Note_on_c, 0, 83, 100
2, 42024, Note_on_c, 0, 83, 0
2, 42024, Note_on_c, 0, 84, 100
2, 42048, Note_on_c, 0, 84, 0
2, 42048, Note_on_c, 0, 83, 100
2, 42072, Note_on_c, 0, 83, 0
2, 42072, Note_on_c, 0, 84, 100
2, 42096, Note_on_c, 0, 84, 0
2, 42096, Note_on_c, 0, 83, 100
2, 42120, Note_on_c, 0, 83, 0
2, 42120, Note_on_c, 0, 84, 100
2, 42144, Note_on_c, 0, 84, 0
2, 42144, Note_on_c, 0, 81, 100
2, 42240, Note_on_c, 0, 81, 0
2, 42240, Note_on_c, 0, 81, 100
2, 42624, Note_on_c, 0, 81, 0
2, 45376, Note_on_c, 0, 64, 100
2, 45440, Note_on_c, 0, 64, 0
2, 45440, Note_on_c, 0, 62, 100
2, 45504, Note_on_c, 0, 62, 0
2, 45504, Note_on_c, 0, 64, 100
2, 45568, Note_on_c, 0, 64, 0
2, 45568, Note_on_c, 0, 69, 100
2, 45632, Note_on_c, 0, 69, 0
2, 45632, Note_on_c, 0, 71, 100
2, 45696, Note_on_c, 0, 71, 0
2, 45696, Note_on_c, 0, 72, 100
2, 45760, Note_on_c, 0, 72, 0
2, 45760, Note_on_c, 0, 69, 100
2, 45824, Note_on_c, 0, 69, 0
2, 45824, Note_on_c, 0, 68, 100
2, 45888, Note_on_c, 0, 68, 0
2, 45888, Note_on_c, 0, 69, 100
2, 45952, Note_on_c, 0, 69, 0
2, 45952, Note_on_c, 0, 72, 100
2, 46016, Note_on_c, 0, 72, 0
2, 46016, Note_on_c, 0, 74, 100
2, 46080, Note_on_c, 0, 74, 0
2, 46080, Note_on_c, 0, 75, 100
2, 47680, Note_on_c, 0, 75, 0
2, 47680, Note_on_c, 0, 74, 100
2, 47744, Note_on_c, 0, 74, 0
2, 47744, Note_on_c, 0, 72, 100
2, 47808, Note_on_c, 0, 72, 0
2, 47808, Note_on_c, 0, 70, 100
2, 47872, Note_on_c, 0, 70, 0
2, 47872, Note_on_c, 0, 69, 100
2, 47936, Note_on_c, 0, 69, 0
2, 47936, Note_on_c, 0, 67, 100
2, 48000, Note_on_c, 0, 67, 0
2, 48000, Note_on_c, 0, 66, 100
2, 48064, Note_on_c, 0, 66, 0
2, 48064, Note_on_c, 0, 63, 100
2, 48128, Note_on_c, 0, 63, 0
2, 48128, Note_on_c, 0, 62, 100
2, 48192, Note_on_c, 0, 62, 0
2, 48192, Note_on_c, 0, 60, 100
2, 48256, Note_on_c, 0, 60, 0
2, 48256, Note_on_c, 0, 58, 100
2, 48320, Note_on_c, 0, 58, 0
2, 48320, Note_on_c, 0, 57, 100
2, 48384, Note_on_c, 0, 57, 0
2, 48384, Note_on_c, 0, 58, 100
2, 48448, Note_on_c, 0, 58, 0
2, 48448, Note_on_c, 0, 55, 100
2, 48512, Note_on_c, 0, 55, 0
2, 48512, Note_on_c, 0, 58, 100
2, 48576, Note_on_c, 0, 58, 0
2, 48576, Note_on_c, 0, 62, 100
2, 48640, Note_on_c, 0, 62, 0
2, 48640, Note_on_c, 0, 66, 100
2, 48704, Note_on_c, 0, 66, 0
2, 48704, Note_on_c, 0, 67, 100
2, 48768, Note_on_c, 0, 67, 0
2, 48768, Note_on_c, 0, 70, 100
2, 48832, Note_on_c, 0, 70, 0
2, 48832, Note_on_c, 0, 67, 100
2, 48896, Note_on_c, 0, 67, 0
2, 48896, Note_on_c, 0, 70, 100
2, 48960, Note_on_c, 0, 70, 0
2, 48960, Note_on_c, 0, 74, 100
2, 49024, Note_on_c, 0, 74, 0
2, 49024, Note_on_c, 0, 78, 100
2, 49088, Note_on_c, 0, 78, 0
2, 49088, Note_on_c, 0, 79, 100
2, 49152, Note_on_c, 0, 79, 0
2, 49152, Note_on_c, 0, 80, 100
2, 50752, Note_on_c, 0, 80, 0
2, 50752, Note_on_c, 0, 79, 100
2, 50816, Note_on_c, 0, 79, 0
2, 50816, Note_on_c, 0, 77, 100
2, 50880, Note_on_c, 0, 77, 0
2, 50880, Note_on_c, 0, 75, 100
2, 50944, Note_on_c, 0, 75, 0
2, 50944, Note_on_c, 0, 74, 100
2, 51008, Note_on_c, 0, 74, 0
2, 51008, Note_on_c, 0, 72, 100
2, 51072, Note_on_c, 0, 72, 0
2, 51072, Note_on_c, 0, 71, 100
2, 51136, Note_on_c, 0, 71, 0
2, 51136, Note_on_c, 0, 68, 100
2, 51200, Note_on_c, 0, 68, 0
2, 51200, Note_on_c, 0, 67, 100
2, 51264, Note_on_c, 0, 67, 0
2, 51264, Note_on_c, 0, 65, 100
2, 51328, Note_on_c, 0, 65, 0
2, 51328, Note_on_c, 0, 63, 100
2, 51392, Note_on_c, 0, 63, 0
2, 51392, Note_on_c, 0, 62, 100
2, 51456, Note_on_c, 0, 62, 0
2, 51456, Note_on_c, 0, 63, 100
2, 51456, Note_on_c, 0, 63, 100
2, 51520, Note_on_c, 0, 63, 0
2, 51520, Note_on_c, 0, 63, 0
2, 51520, Note_on_c, 0, 60, 100
2, 51584, Note_on_c, 0, 60, 0
2, 51584, Note_on_c, 0, 63, 100
2, 51648, Note_on_c, 0, 63, 0
2, 51648, Note_on_c, 0, 67, 100
2, 51712, Note_on_c, 0, 67, 0
2, 51712, Note_on_c, 0, 71, 100
2, 51776, Note_on_c, 0, 71, 0
2, 51776, Note_on_c, 0, 72, 100
2, 51840, Note_on_c, 0, 72, 0
2, 51840, Note_on_c, 0, 75, 100
2, 52288, Note_on_c, 0, 75, 0
2, 52288, Note_on_c, 0, 77, 100
2, 52352, Note_on_c, 0, 77, 0
2, 52352, Note_on_c, 0, 79, 100
2, 52416, Note_on_c, 0, 79, 0
2, 52416, Note_on_c, 0, 80, 100
2, 52480, Note_on_c, 0, 80, 0
2, 52480, Note_on_c, 0, 79, 100
2, 52544, Note_on_c, 0, 79, 0
2, 52544, Note_on_c, 0, 77, 100
2, 52608, Note_on_c, 0, 77, 0
2, 52608, Note_on_c, 0, 75, 100
2, 52672, Note_on_c, 0, 75, 0
2, 52672, Note_on_c, 0, 74, 100
2, 52736, Note_on_c, 0, 74, 0
2, 52736, Note_on_c, 0, 72, 100
2, 52800, Note_on_c, 0, 72, 0
2, 52800, Note_on_c, 0, 74, 100
2, 53056, Note_on_c, 0, 74, 0
2, 53056, Note_on_c, 0, 75, 100
2, 53120, Note_on_c, 0, 75, 0
2, 53120, Note_on_c, 0, 77, 100
2, 53184, Note_on_c, 0, 77, 0
2, 53184, Note_on_c, 0, 79, 100
2, 53248, Note_on_c, 0, 79, 0
2, 53248, Note_on_c, 0, 77, 100
2, 53312, Note_on_c, 0, 77, 0
2, 53312, Note_on_c, 0, 75, 100
2, 53376, Note_on_c, 0, 75, 0
2, 53376, Note_on_c, 0, 73, 100
2, 53440, Note_on_c, 0, 73, 0
2, 53440, Note_on_c, 0, 72, 100
2, 53504, Note_on_c, 0, 72, 0
2, 53504, Note_on_c, 0, 71, 100
2, 53568, Note_on_c, 0, 71, 0
2, 53568, Note_on_c, 0, 72, 100
2, 53824, Note_on_c, 0, 72, 0
2, 53824, Note_on_c, 0, 82, 100
2, 53888, Note_on_c, 0, 82, 0
2, 53888, Note_on_c, 0, 80, 100
2, 53952, Note_on_c, 0, 80, 0
2, 53952, Note_on_c, 0, 72, 100
2, 54016, Note_on_c, 0, 72, 0
2, 54016, Note_on_c, 0, 80, 100
2, 54080, Note_on_c, 0, 80, 0
2, 54080, Note_on_c, 0, 79, 100
2, 54144, Note_on_c, 0, 79, 0
2, 54144, Note_on_c, 0, 71, 100
2, 54208, Note_on_c, 0, 71, 0
2, 54208, Note_on_c, 0, 79, 100
2, 54272, Note_on_c, 0, 79, 0
2, 54272, Note_on_c, 0, 77, 100
2, 54336, Note_on_c, 0, 77, 0
2, 54336, Note_on_c, 0, 72, 100
2, 54400, Note_on_c, 0, 72, 0
2, 54400, Note_on_c, 0, 77, 100
2, 54464, Note_on_c, 0, 77, 0
2, 54464, Note_on_c, 0, 75, 100
2, 54528, Note_on_c, 0, 75, 0
2, 54528, Note_on_c, 0, 74, 100
2, 54592, Note_on_c, 0, 74, 0
2, 54592, Note_on_c, 0, 78, 100
2, 54656, Note_on_c, 0, 78, 0
2, 54656, Note_on_c, 0, 79, 100
2, 54720, Note_on_c, 0, 79, 0
2, 54720, Note_on_c, 0, 67, 100
2, 54912, Note_on_c, 0, 67, 0
2, 58368, Note_on_c, 0, 69, 100
2, 58816, Note_on_c, 0, 69, 0
2, 58816, Note_on_c, 0, 65, 100
2, 58880, Note_on_c, 0, 65, 0
2, 58880, Note_on_c, 0, 64, 100
2, 58944, Note_on_c, 0, 64, 0
2, 58944, Note_on_c, 0, 65, 100
2, 59008, Note_on_c, 0, 65, 0
2, 59008, Note_on_c, 0, 69, 100
2, 59072, Note_on_c, 0, 69, 0
2, 59072, Note_on_c, 0, 74, 100
2, 59136, Note_on_c, 0, 74, 0
2, 59136, Note_on_c, 0, 74, 100
2, 59328, Note_on_c, 0, 74, 0
2, 59328, Note_on_c, 0, 67, 100
2, 59584, Note_on_c, 0, 67, 0
2, 59584, Note_on_c, 0, 64, 100
2, 59648, Note_on_c, 0, 64, 0
2, 59648, Note_on_c, 0, 62, 100
2, 59712, Note_on_c, 0, 62, 0
2, 59712, Note_on_c, 0, 64, 100
2, 59776, Note_on_c, 0, 64, 0
2, 59776, Note_on_c, 0, 67, 100
2, 59840, Note_on_c, 0, 67, 0
2, 59840, Note_on_c, 0, 72, 100
2, 59904, Note_on_c, 0, 72, 0
2, 59904, Note_on_c, 0, 72, 100
2, 59968, Note_on_c, 0, 72, 0
2, 59968, Note_on_c, 0, 71, 100
2, 60032, Note_on_c, 0, 71, 0
2, 60032, Note_on_c, 0, 69, 100
2, 60096, Note_on_c, 0, 69, 0
2, 60096, Note_on_c, 0, 71, 100
2, 60160, Note_on_c, 0, 71, 0
2, 60160, Note_on_c, 0, 74, 100
2, 60224, Note_on_c, 0, 74, 0
2, 60224, Note_on_c, 0, 77, 100
2, 60288, Note_on_c, 0, 77, 0
2, 60288, Note_on_c, 0, 77, 100
2, 60352, Note_on_c, 0, 77, 0
2, 60352, Note_on_c, 0, 76, 100
2, 60416, Note_on_c, 0, 76, 0
2, 60416, Note_on_c, 0, 74, 100
2, 60480, Note_on_c, 0, 74, 0
2, 60480, Note_on_c, 0, 72, 100
2, 60544, Note_on_c, 0, 72, 0
2, 60544, Note_on_c, 0, 71, 100
2, 60608, Note_on_c, 0, 71, 0
2, 60608, Note_on_c, 0, 69, 100
2, 60672, Note_on_c, 0, 69, 0
2, 60672, Note_on_c, 0, 67, 100
2, 61120, Note_on_c, 0, 67, 0
2, 61120, Note_on_c, 0, 71, 100
2, 61184, Note_on_c, 0, 71, 0
2, 61184, Note_on_c, 0, 74, 100
2, 61248, Note_on_c, 0, 74, 0
2, 61248, Note_on_c, 0, 77, 100
2, 61312, Note_on_c, 0, 77, 0
2, 61312, Note_on_c, 0, 75, 100
2, 61376, Note_on_c, 0, 75, 0
2, 61376, Note_on_c, 0, 74, 100
2, 61440, Note_on_c, 0, 74, 0
2, 61440, Note_on_c, 0, 75, 100
2, 61888, Note_on_c, 0, 75, 0
2, 61888, Note_on_c, 0, 74, 100
2, 61952, Note_on_c, 0, 74, 0
2, 61952, Note_on_c, 0, 72, 100
2, 62016, Note_on_c, 0, 72, 0
2, 62016, Note_on_c, 0, 73, 100
2, 62272, Note_on_c, 0, 73, 0
2, 62272, Note_on_c, 0, 72, 100
2, 62336, Note_on_c, 0, 72, 0
2, 62336, Note_on_c, 0, 71, 100
2, 62400, Note_on_c, 0, 71, 0
2, 62400, Note_on_c, 0, 72, 100
2, 62656, Note_on_c, 0, 72, 0
2, 62656, Note_on_c, 0, 70, 100
2, 62720, Note_on_c, 0, 70, 0
2, 62720, Note_on_c, 0, 68, 100
2, 62784, Note_on_c, 0, 68, 0
2, 62784, Note_on_c, 0, 67, 100
2, 62848, Note_on_c, 0, 67, 0
2, 62848, Note_on_c, 0, 66, 100
2, 62912, Note_on_c, 0, 66, 0
2, 62912, Note_on_c, 0, 67, 100
2, 62976, Note_on_c, 0, 67, 0
2, 62976, Note_on_c, 0, 77, 100
2, 63040, Note_on_c, 0, 77, 0
2, 63040, Note_on_c, 0, 76, 100
2, 63104, Note_on_c, 0, 76, 0
2, 63104, Note_on_c, 0, 74, 100
2, 63168, Note_on_c, 0, 74, 0
2, 63168, Note_on_c, 0, 79, 100
2, 63312, Note_on_c, 0, 79, 0
2, 63312, Note_on_c, 0, 72, 100
2, 63360, Note_on_c, 0, 72, 0
2, 63360, Note_on_c, 0, 74, 100
2, 63384, Note_on_c, 0, 74, 0
2, 63384, Note_on_c, 0, 76, 100
2, 63408, Note_on_c, 0, 76, 0
2, 63408, Note_on_c, 0, 74, 100
2, 63432, Note_on_c, 0, 74, 0
2, 63432, Note_on_c, 0, 76, 100
2, 63456, Note_on_c, 0, 76, 0
2, 63456, Note_on_c, 0, 74, 100
2, 63480, Note_on_c, 0, 74, 0
2, 63480, Note_on_c, 0, 76, 100
2, 63504, Note_on_c, 0, 76, 0
2, 63504, Note_on_c, 0, 74, 100
2, 63528, Note_on_c, 0, 74, 0
2, 63528, Note_on_c, 0, 76, 100
2, 63552, Note_on_c, 0, 76, 0
2, 63552, Note_on_c, 0, 74, 100
2, 63576, Note_on_c, 0, 74, 0
2, 63576, Note_on_c, 0, 76, 100
2, 63600, Note_on_c, 0, 76, 0
2, 63600, Note_on_c, 0, 74, 100
2, 63624, Note_on_c, 0, 74, 0
2, 63624, Note_on_c, 0, 76, 100
2, 63648, Note_on_c, 0, 76, 0
2, 63648, Note_on_c, 0, 72, 100
2, 63744, Note_on_c, 0, 72, 0
2, 63744, Note_on_c, 0, 72, 100
2, 64128, Note_on_c, 0, 72, 0
2, 66880, Note_on_c, 0, 67, 100
2, 66944, Note_on_c, 0, 67, 0
2, 66944, Note_on_c, 0, 69, 100
2, 67008, Note_on_c, 0, 69, 0
2, 67008, Note_on_c, 0, 71, 100
2, 67072, Note_on_c, 0, 71, 0
2, 67072, Note_on_c, 0, 72, 100
2, 67136, Note_on_c, 0, 72, 0
2, 67136, Note_on_c, 0, 74, 100
2, 67200, Note_on_c, 0, 74, 0
2, 67200, Note_on_c, 0, 76, 100
2, 67264, Note_on_c, 0, 76, 0
2, 67264, Note_on_c, 0, 72, 100
2, 67328, Note_on_c, 0, 72, 0
2, 67328, Note_on_c, 0, 74, 100
2, 67392, Note_on_c, 0, 74, 0
2, 67392, Note_on_c, 0, 76, 100
2, 67456, Note_on_c, 0, 76, 0
2, 67456, Note_on_c, 0, 77, 100
2, 67520, Note_on_c, 0, 77, 0
2, 67520, Note_on_c, 0, 79, 100
2, 67584, Note_on_c, 0, 79, 0
2, 67584, Note_on_c, 0, 81, 100
2, 67648, Note_on_c, 0, 81, 0
2, 67648, Note_on_c, 0, 77, 100
2, 67712, Note_on_c, 0, 77, 0
2, 67712, Note_on_c, 0, 79, 100
2, 67776, Note_on_c, 0, 79, 0
2, 67776, Note_on_c, 0, 81, 100
2, 67840, Note_on_c, 0, 81, 0
2, 67840, Note_on_c, 0, 83, 100
2, 67904, Note_on_c, 0, 83, 0
2, 67904, Note_on_c, 0, 84, 100
2, 67968, Note_on_c, 0, 84, 0
2, 67968, Note_on_c, 0, 86, 100
2, 68032, Note_on_c, 0, 86, 0
2, 68032, Note_on_c, 0, 84, 100
2, 68096, Note_on_c, 0, 84, 0
2, 68096, Note_on_c, 0, 83, 100
2, 68160, Note_on_c, 0, 83, 0
2, 68160, Note_on_c, 0, 81, 100
2, 68224, Note_on_c, 0, 81, 0
2, 68224, Note_on_c, 0, 79, 100
2, 68288, Note_on_c, 0, 79, 0
2, 68288, Note_on_c, 0, 77, 100
2, 68352, Note_on_c, 0, 77, 0
2, 68352, Note_on_c, 0, 79, 100
2, 68416, Note_on_c, 0, 79, 0
2, 68416, Note_on_c, 0, 76, 100
2, 68480, Note_on_c, 0, 76, 0
2, 68480, Note_on_c, 0, 77, 100
2, 68544, Note_on_c, 0, 77, 0
2, 68544, Note_on_c, 0, 79, 100
2, 68608, Note_on_c, 0, 79, 0
2, 68608, Note_on_c, 0, 81, 100
2, 68672, Note_on_c, 0, 81, 0
2, 68672, Note_on_c, 0, 83, 100
2, 68736, Note_on_c, 0, 83, 0
2, 68736, Note_on_c, 0, 84, 100
2, 68800, Note_on_c, 0, 84, 0
2, 68800, Note_on_c, 0, 83, 100
2, 68864, Note_on_c, 0, 83, 0
2, 68864, Note_on_c, 0, 81, 100
2, 68928, Note_on_c, 0, 81, 0
2, 68928, Note_on_c, 0, 79, 100
2, 68992, Note_on_c, 0, 79, 0
2, 68992, Note_on_c, 0, 77, 100
2, 69056, Note_on_c, 0, 77, 0
2, 69056, Note_on_c, 0, 76, 100
2, 69120, Note_on_c, 0, 76, 0
2, 69120, Note_on_c, 0, 77, 100
2, 69184, Note_on_c, 0, 77, 0
2, 69184, Note_on_c, 0, 76, 100
2, 69248, Note_on_c, 0, 76, 0
2, 69248, Note_on_c, 0, 74, 100
2, 69312, Note_on_c, 0, 74, 0
2, 69312, Note_on_c, 0, 76, 100
2, 69376, Note_on_c, 0, 76, 0
2, 69376, Note_on_c, 0, 74, 100
2, 69440, Note_on_c, 0, 74, 0
2, 69440, Note_on_c, 0, 72, 100
2, 69504, Note_on_c, 0, 72, 0
2, 69504, Note_on_c, 0, 71, 100
2, 69528, Note_on_c, 0, 71, 0
2, 69528, Note_on_c, 0, 72, 100
2, 69552, Note_on_c, 0, 72, 0
2, 69552, Note_on_c, 0, 71, 100
2, 69576, Note_on_c, 0, 71, 0
2, 69576, Note_on_c, 0, 72, 100
2, 69600, Note_on_c, 0, 72, 0
2, 69600, Note_on_c, 0, 71, 100
2, 69624, Note_on_c, 0, 71, 0
2, 69624, Note_on_c, 0, 72, 100
2, 69648, Note_on_c, 0, 72, 0
2, 69648, Note_on_c, 0, 71, 100
2, 69672, Note_on_c, 0, 71, 0
2, 69672, Note_on_c, 0, 72, 100
2, 69696, Note_on_c, 0, 72, 0
2, 69696, Note_on_c, 0, 71, 100
2, 69720, Note_on_c, 0, 71, 0
2, 69720, Note_on_c, 0, 72, 100
2, 69744, Note_on_c, 0, 72, 0
2, 69744, Note_on_c, 0, 71, 100
2, 69768, Note_on_c, 0, 71, 0
2, 69768, Note_on_c, 0, 72, 100
2, 69792, Note_on_c, 0, 72, 0
2, 69792, Note_on_c, 0, 72, 100
2, 69888, Note_on_c, 0, 72, 0
2, 69888, Note_on_c, 0, 72, 100
2, 70656, Note_on_c, 0, 72, 0
2, 70656, End_track
3, 0, Start_track
3, 0, MIDI_port, 0
3, 0, Title_t, "Violin 1"
3, 0, Program_c, 1, 40
3, 0, Control_c, 1, 7, 110
3, 0, Control_c, 1, 10, 32
3, 7, Note_on_c, 1, 67, 100
3, 103, Note_on_c, 1, 67, 0
3, 384, Note_on_c, 1, 70, 100
3, 576, Note_on_c, 1, 70, 0
3, 768, Note_on_c, 1, 70, 100
3, 960, Note_on_c, 1, 70, 0
3, 1152, Note_on_c, 1, 69, 100
3, 1344, Note_on_c, 1, 69, 0
3, 1536, Note_on_c, 1, 74, 100
3, 1728, Note_on_c, 1, 74, 0
3, 1920, Note_on_c, 1, 65, 100
3, 2112, Note_on_c, 1, 65, 0
3, 2304, Note_on_c, 1, 65, 100
3, 2496, Note_on_c, 1, 65, 0
3, 2688, Note_on_c, 1, 64, 100
3, 2880, Note_on_c, 1, 64, 0
3, 3072, Note_on_c, 1, 76, 100
3, 3264, Note_on_c, 1, 76, 0
3, 3456, Note_on_c, 1, 69, 100
3, 3648, Note_on_c, 1, 69, 0
3, 3840, Note_on_c, 1, 74, 100
3, 4032, Note_on_c, 1, 74, 0
3, 4224, Note_on_c, 1, 67, 100
3, 4416, Note_on_c, 1, 67, 0
3, 4608, Note_on_c, 1, 72, 100
3, 4800, Note_on_c, 1, 72, 0
3, 4992, Note_on_c, 1, 72, 100
3, 5184, Note_on_c, 1, 72, 0
3, 5376, Note_on_c, 1, 72, 100
3, 5568, Note_on_c, 1, 72, 0
3, 5568, Note_on_c, 1, 71, 100
3, 5760, Note_on_c, 1, 71, 0
3, 6144, Note_on_c, 1, 64, 100
3, 6336, Note_on_c, 1, 64, 0
3, 6528, Note_on_c, 1, 67, 100
3, 6720, Note_on_c, 1, 67, 0
3, 6912, Note_on_c, 1, 70, 100
3, 7104, Note_on_c, 1, 70, 0
3, 7296, Note_on_c, 1, 76, 100
3, 7488, Note_on_c, 1, 76, 0
3, 7680, Note_on_c, 1, 77, 100
3, 7872, Note_on_c, 1, 77, 0
3, 7872, Note_on_c, 1, 76, 100
3, 8064, Note_on_c, 1, 76, 0
3, 8064, Note_on_c, 1, 74, 100
3, 8256, Note_on_c, 1, 74, 0
3, 8256, Note_on_c, 1, 72, 100
3, 8448, Note_on_c, 1, 72, 0
3, 8448, Note_on_c, 1, 72, 100
3, 8640, Note_on_c, 1, 72, 0
3, 8640, Note_on_c, 1, 71, 100
3, 8832, Note_on_c, 1, 71, 0
3, 8832, Note_on_c, 1, 62, 100
3, 9024, Note_on_c, 1, 62, 0
3, 9024, Note_on_c, 1, 74, 100
3, 9120, Note_on_c, 1, 74, 0
3, 9120, Note_on_c, 1, 76, 100
3, 9168, Note_on_c, 1, 76, 0
3, 9168, Note_on_c, 1, 77, 100
3, 9216, Note_on_c, 1, 77, 0
3, 9216, Note_on_c, 1, 67, 100
3, 9408, Note_on_c, 1, 67, 0
3, 9600, Note_on_c, 1, 70, 100
3, 9792, Note_on_c, 1, 70, 0
3, 9984, Note_on_c, 1, 70, 100
3, 10176, Note_on_c, 1, 70, 0
3, 10368, Note_on_c, 1, 69, 100
3, 10560, Note_on_c, 1, 69, 0
3, 10752, Note_on_c, 1, 74, 100
3, 10944, Note_on_c, 1, 74, 0
3, 11136, Note_on_c, 1, 65, 100
3, 11328, Note_on_c, 1, 65, 0
3, 11520, Note_on_c, 1, 65, 100
3, 11712, Note_on_c, 1, 65, 0
3, 11904, Note_on_c, 1, 64, 100
3, 12096, Note_on_c, 1, 64, 0
3, 12288, Note_on_c, 1, 76, 100
3, 12480, Note_on_c, 1, 76, 0
3, 12672, Note_on_c, 1, 81, 100
3, 12864, Note_on_c, 1, 81, 0
3, 13056, Note_on_c, 1, 74, 100
3, 13248, Note_on_c, 1, 74, 0
3, 13440, Note_on_c, 1, 79, 100
3, 13632, Note_on_c, 1, 79, 0
3, 13824, Note_on_c, 1, 72, 100
3, 14016, Note_on_c, 1, 72, 0
3, 14208, Note_on_c, 1, 76, 100
3, 14400, Note_on_c, 1, 76, 0
3, 14592, Note_on_c, 1, 81, 100
3, 14784, Note_on_c, 1, 81, 0
3, 14976, Note_on_c, 1, 78, 100
3, 15168, Note_on_c, 1, 78, 0
3, 15360, Note_on_c, 1, 74, 100
3, 15552, Note_on_c, 1, 74, 0
3, 15744, Note_on_c, 1, 77, 100
3, 15936, Note_on_c, 1, 77, 0
3, 16128, Note_on_c, 1, 77, 100
3, 16320, Note_on_c, 1, 77, 0
3, 16512, Note_on_c, 1, 76, 100
3, 16704, Note_on_c, 1, 76, 0
3, 16896, Note_on_c, 1, 81, 100
3, 17088, Note_on_c, 1, 81, 0
3, 17280, Note_on_c, 1, 72, 100
3, 17472, Note_on_c, 1, 72, 0
3, 17664, Note_on_c, 1, 72, 100
3, 17856, Note_on_c, 1, 72, 0
3, 17856, Note_on_c, 1, 71, 100
3, 17952, Note_on_c, 1, 71, 0
3, 17952, Note_on_c, 1, 74, 100
3, 18048, Note_on_c, 1, 74, 0
3, 18048, Note_on_c, 1, 79, 100
3, 18240, Note_on_c, 1, 79, 0
3, 18432, Note_on_c, 1, 76, 100
3, 18624, Note_on_c, 1, 76, 0
3, 18816, Note_on_c, 1, 75, 100
3, 19008, Note_on_c, 1, 75, 0
3, 19200, Note_on_c, 1, 74, 100
3, 19392, Note_on_c, 1, 74, 0
3, 19584, Note_on_c, 1, 79, 100
3, 19776, Note_on_c, 1, 79, 0
3, 19968, Note_on_c, 1, 78, 100
3, 20160, Note_on_c, 1, 78, 0
3, 20160, Note_on_c, 1, 79, 100
3, 20304, Note_on_c, 1, 79, 0
3, 20304, Note_on_c, 1, 71, 100
3, 20352, Note_on_c, 1, 71, 0
3, 20352, Note_on_c, 1, 69, 100
3, 20640, Note_on_c, 1, 69, 0
3, 20640, Note_on_c, 1, 71, 100
3, 20736, Note_on_c, 1, 71, 0
3, 20736, Note_on_c, 1, 71, 100
3, 21120, Note_on_c, 1, 71, 0
3, 21504, Note_on_c, 1, 62, 100
3, 21696, Note_on_c, 1, 62, 0
3, 21888, Note_on_c, 1, 65, 100
3, 22080, Note_on_c, 1, 65, 0
3, 22272, Note_on_c, 1, 65, 100
3, 22464, Note_on_c, 1, 65, 0
3, 22656, Note_on_c, 1, 64, 100
3, 22848, Note_on_c, 1, 64, 0
3, 23040, Note_on_c, 1, 69, 100
3, 23232, Note_on_c, 1, 69, 0
3, 23424, Note_on_c, 1, 60, 100
3, 23616, Note_on_c, 1, 60, 0
3, 23808, Note_on_c, 1, 60, 100
3, 24000, Note_on_c, 1, 60, 0
3, 24192, Note_on_c, 1, 59, 100
3, 24384, Note_on_c, 1, 59, 0
3, 24576, Note_on_c, 1, 73, 100
3, 24768, Note_on_c, 1, 73, 0
3, 24960, Note_on_c, 1, 76, 100
3, 25152, Note_on_c, 1, 76, 0
3, 25344, Note_on_c, 1, 79, 100
3, 25536, Note_on_c, 1, 79, 0
3, 25728, Note_on_c, 1, 82, 100
3, 25920, Note_on_c, 1, 82, 0
3, 26112, Note_on_c, 1, 73, 100
3, 26304, Note_on_c, 1, 73, 0
3, 26496, Note_on_c, 1, 76, 100
3, 26688, Note_on_c, 1, 76, 0
3, 26880, Note_on_c, 1, 76, 100
3, 27072, Note_on_c, 1, 76, 0
3, 27072, Note_on_c, 1, 74, 100
3, 27264, Note_on_c, 1, 74, 0
3, 27264, Note_on_c, 1, 69, 100
3, 27456, Note_on_c, 1, 69, 0
3, 27648, Note_on_c, 1, 70, 100
3, 27840, Note_on_c, 1, 70, 0
3, 28032, Note_on_c, 1, 82, 100
3, 28224, Note_on_c, 1, 82, 0
3, 28416, Note_on_c, 1, 81, 100
3, 28608, Note_on_c, 1, 81, 0
3, 28800, Note_on_c, 1, 69, 100
3, 28992, Note_on_c, 1, 69, 0
3, 29184, Note_on_c, 1, 79, 100
3, 29376, Note_on_c, 1, 79, 0
3, 29376, Note_on_c, 1, 77, 100
3, 29568, Note_on_c, 1, 77, 0
3, 29568, Note_on_c, 1, 76, 100
3, 29760, Note_on_c, 1, 76, 0
3, 29760, Note_on_c, 1, 74, 100
3, 29952, Note_on_c, 1, 74, 0
3, 29952, Note_on_c, 1, 73, 100
3, 30144, Note_on_c, 1, 73, 0
3, 30144, Note_on_c, 1, 69, 100
3, 30336, Note_on_c, 1, 69, 0
3, 30336, Note_on_c, 1, 64, 100
3, 30528, Note_on_c, 1, 64, 0
3, 30528, Note_on_c, 1, 76, 100
3, 30624, Note_on_c, 1, 76, 0
3, 30624, Note_on_c, 1, 77, 100
3, 30672, Note_on_c, 1, 77, 0
3, 30672, Note_on_c, 1, 79, 100
3, 30720, Note_on_c, 1, 79, 0
3, 30720, Note_on_c, 1, 77, 100
3, 30912, Note_on_c, 1, 77, 0
3, 31104, Note_on_c, 1, 77, 100
3, 31296, Note_on_c, 1, 77, 0
3, 31488, Note_on_c, 1, 77, 100
3, 31680, Note_on_c, 1, 77, 0
3, 31872, Note_on_c, 1, 76, 100
3, 32064, Note_on_c, 1, 76, 0
3, 32256, Note_on_c, 1, 73, 100
3, 32448, Note_on_c, 1, 73, 0
3, 32640, Note_on_c, 1, 76, 100
3, 32832, Note_on_c, 1, 76, 0
3, 33024, Note_on_c, 1, 76, 100
3, 33216, Note_on_c, 1, 76, 0
3, 33408, Note_on_c, 1, 74, 100
3, 33600, Note_on_c, 1, 74, 0
3, 33792, Note_on_c, 1, 77, 100
3, 33984, Note_on_c, 1, 77, 0
3, 34176, Note_on_c, 1, 82, 100
3, 34368, Note_on_c, 1, 82, 0
3, 34560, Note_on_c, 1, 76, 100
3, 34752, Note_on_c, 1, 76, 0
3, 34944, Note_on_c, 1, 81, 100
3, 35136, Note_on_c, 1, 81, 0
3, 35328, Note_on_c, 1, 74, 100
3, 35520, Note_on_c, 1, 74, 0
3, 35712, Note_on_c, 1, 77, 100
3, 35904, Note_on_c, 1, 77, 0
3, 36096, Note_on_c, 1, 83, 100
3, 36288, Note_on_c, 1, 83, 0
3, 36480, Note_on_c, 1, 80, 100
3, 36672, Note_on_c, 1, 80, 0
3, 36864, Note_on_c, 1, 76, 100
3, 37056, Note_on_c, 1, 76, 0
3, 37248, Note_on_c, 1, 79, 100
3, 37440, Note_on_c, 1, 79, 0
3, 37632, Note_on_c, 1, 79, 100
3, 37824, Note_on_c, 1, 79, 0
3, 38016, Note_on_c, 1, 77, 100
3, 38208, Note_on_c, 1, 77, 0
3, 38400, Note_on_c, 1, 83, 100
3, 38592, Note_on_c, 1, 83, 0
3, 38784, Note_on_c, 1, 74, 100
3, 38976, Note_on_c, 1, 74, 0
3, 39168, Note_on_c, 1, 74, 100
3, 39360, Note_on_c, 1, 74, 0
3, 39360, Note_on_c, 1, 72, 100
3, 39456, Note_on_c, 1, 72, 0
3, 39456, Note_on_c, 1, 76, 100
3, 39552, Note_on_c, 1, 76, 0
3, 39552, Note_on_c, 1, 81, 100
3, 39744, Note_on_c, 1, 81, 0
3, 39936, Note_on_c, 1, 78, 100
3, 40128, Note_on_c, 1, 78, 0
3, 40320, Note_on_c, 1, 77, 100
3, 40512, Note_on_c, 1, 77, 0
3, 40704, Note_on_c, 1, 76, 100
3, 40896, Note_on_c, 1, 76, 0
3, 41088, Note_on_c, 1, 81, 100
3, 41280, Note_on_c, 1, 81, 0
3, 41472, Note_on_c, 1, 80, 100
3, 41664, Note_on_c, 1, 80, 0
3, 41664, Note_on_c, 1, 81, 100
3, 41856, Note_on_c, 1, 81, 0
3, 41856, Note_on_c, 1, 81, 100
3, 42048, Note_on_c, 1, 81, 0
3, 42048, Note_on_c, 1, 80, 100
3, 42240, Note_on_c, 1, 80, 0
3, 42240, Note_on_c, 1, 81, 100
3, 42432, Note_on_c, 1, 81, 0
3, 42624, Note_on_c, 1, 79, 100
3, 42816, Note_on_c, 1, 79, 0
3, 43008, Note_on_c, 1, 77, 100
3, 43200, Note_on_c, 1, 77, 0
3, 43392, Note_on_c, 1, 71, 100
3, 43584, Note_on_c, 1, 71, 0
3, 43776, Note_on_c, 1, 76, 100
3, 43968, Note_on_c, 1, 76, 0
3, 44160, Note_on_c, 1, 69, 100
3, 44352, Note_on_c, 1, 69, 0
3, 44544, Note_on_c, 1, 74, 100
3, 44736, Note_on_c, 1, 74, 0
3, 44928, Note_on_c, 1, 74, 100
3, 45120, Note_on_c, 1, 74, 0
3, 45312, Note_on_c, 1, 74, 100
3, 45504, Note_on_c, 1, 74, 0
3, 45504, Note_on_c, 1, 72, 100
3, 45696, Note_on_c, 1, 72, 0
3, 46080, Note_on_c, 1, 66, 100
3, 46272, Note_on_c, 1, 66, 0
3, 46464, Note_on_c, 1, 69, 100
3, 46656, Note_on_c, 1, 69, 0
3, 46848, Note_on_c, 1, 72, 100
3, 47040, Note_on_c, 1, 72, 0
3, 47232, Note_on_c, 1, 75, 100
3, 47424, Note_on_c, 1, 75, 0
3, 47616, Note_on_c, 1, 66, 100
3, 47808, Note_on_c, 1, 66, 0
3, 48000, Note_on_c, 1, 69, 100
3, 48192, Note_on_c, 1, 69, 0
3, 48384, Note_on_c, 1, 69, 100
3, 48576, Note_on_c, 1, 69, 0
3, 48576, Note_on_c, 1, 67, 100
3, 48768, Note_on_c, 1, 67, 0
3, 49152, Note_on_c, 1, 71, 100
3, 49344, Note_on_c, 1, 71, 0
3, 49536, Note_on_c, 1, 74, 100
3, 49728, Note_on_c, 1, 74, 0
3, 49920, Note_on_c, 1, 77, 100
3, 50112, Note_on_c, 1, 77, 0
3, 50304, Note_on_c, 1, 80, 100
3, 50496, Note_on_c, 1, 80, 0
3, 50688, Note_on_c, 1, 71, 100
3, 50880, Note_on_c, 1, 71, 0
3, 51072, Note_on_c, 1, 74, 100
3, 51264, Note_on_c, 1, 74, 0
3, 51456, Note_on_c, 1, 74, 100
3, 51648, Note_on_c, 1, 74, 0
3, 51648, Note_on_c, 1, 72, 100
3, 51840, Note_on_c, 1, 72, 0
3, 51840, Note_on_c, 1, 67, 100
3, 52032, Note_on_c, 1, 67, 0
3, 52224, Note_on_c, 1, 68, 100
3, 52416, Note_on_c, 1, 68, 0
3, 52608, Note_on_c, 1, 80, 100
3, 52800, Note_on_c, 1, 80, 0
3, 52992, Note_on_c, 1, 79, 100
3, 53184, Note_on_c, 1, 79, 0
3, 53376, Note_on_c, 1, 67, 100
3, 53568, Note_on_c, 1, 67, 0
3, 53760, Note_on_c, 1, 74, 100
3, 53952, Note_on_c, 1, 74, 0
3, 53952, Note_on_c, 1, 75, 100
3, 54144, Note_on_c, 1, 75, 0
3, 54144, Note_on_c, 1, 71, 100
3, 54336, Note_on_c, 1, 71, 0
3, 54336, Note_on_c, 1, 72, 100
3, 54528, Note_on_c, 1, 72, 0
3, 54528, Note_on_c, 1, 72, 100
3, 54720, Note_on_c, 1, 72, 0
3, 54720, Note_on_c, 1, 71, 100
3, 54912, Note_on_c, 1, 71, 0
3, 54912, Note_on_c, 1, 67, 100
3, 55104, Note_on_c, 1, 67, 0
3, 55104, Note_on_c, 1, 74, 100
3, 55200, Note_on_c, 1, 74, 0
3, 55200, Note_on_c, 1, 76, 100
3, 55248, Note_on_c, 1, 76, 0
3, 55248, Note_on_c, 1, 77, 100
3, 55296, Note_on_c, 1, 77, 0
3, 55296, Note_on_c, 1, 67, 100
3, 55488, Note_on_c, 1, 67, 0
3, 55680, Note_on_c, 1, 70, 100
3, 55872, Note_on_c, 1, 70, 0
3, 56064, Note_on_c, 1, 70, 100
3, 56256, Note_on_c, 1, 70, 0
3, 56448, Note_on_c, 1, 69, 100
3, 56640, Note_on_c, 1, 69, 0
3, 56832, Note_on_c, 1, 74, 100
3, 57024, Note_on_c, 1, 74, 0
3, 57216, Note_on_c, 1, 65, 100
3, 57408, Note_on_c, 1, 65, 0
3, 57600, Note_on_c, 1, 65, 100
3, 57792, Note_on_c, 1, 65, 0
3, 57984, Note_on_c, 1, 64, 100
3, 58176, Note_on_c, 1, 64, 0
3, 58368, Note_on_c, 1, 69, 100
3, 58560, Note_on_c, 1, 69, 0
3, 58752, Note_on_c, 1, 74, 100
3, 58944, Note_on_c, 1, 74, 0
3, 59136, Note_on_c, 1, 67, 100
3, 59328, Note_on_c, 1, 67, 0
3, 59520, Note_on_c, 1, 72, 100
3, 59712, Note_on_c, 1, 72, 0
3, 59904, Note_on_c, 1, 65, 100
3, 60096, Note_on_c, 1, 65, 0
3, 60288, Note_on_c, 1, 69, 100
3, 60480, Note_on_c, 1, 69, 0
3, 60672, Note_on_c, 1, 74, 100
3, 60864, Note_on_c, 1, 74, 0
3, 61056, Note_on_c, 1, 71, 100
3, 61248, Note_on_c, 1, 71, 0
3, 61440, Note_on_c, 1, 72, 100
3, 61632, Note_on_c, 1, 72, 0
3, 61824, Note_on_c, 1, 68, 100
3, 62016, Note_on_c, 1, 68, 0
3, 62208, Note_on_c, 1, 67, 100
3, 62400, Note_on_c, 1, 67, 0
3, 62592, Note_on_c, 1, 72, 100
3, 62784, Note_on_c, 1, 72, 0
3, 62976, Note_on_c, 1, 71, 100
3, 63168, Note_on_c, 1, 71, 0
3, 63168, Note_on_c, 1, 72, 100
3, 63360, Note_on_c, 1, 72, 0
3, 63360, Note_on_c, 1, 72, 100
3, 63552, Note_on_c, 1, 72, 0
3, 63552, Note_on_c, 1, 71, 100
3, 63744, Note_on_c, 1, 71, 0
3, 63744, Note_on_c, 1, 72, 100
3, 63936, Note_on_c, 1, 72, 0
3, 63936, Note_on_c, 1, 67, 100
3, 64128, Note_on_c, 1, 67, 0
3, 64128, Note_on_c, 1, 72, 100
3, 64320, Note_on_c, 1, 72, 0
3, 64320, Note_on_c, 1, 74, 100
3, 64416, Note_on_c, 1, 74, 0
3, 64416, Note_on_c, 1, 76, 100
3, 64464, Note_on_c, 1, 76, 0
3, 64464, Note_on_c, 1, 77, 100
3, 64512, Note_on_c, 1, 77, 0
3, 64512, Note_on_c, 1, 76, 100
3, 64704, Note_on_c, 1, 76, 0
3, 64896, Note_on_c, 1, 79, 100
3, 65088, Note_on_c, 1, 79, 0
3, 65280, Note_on_c, 1, 79, 100
3, 65472, Note_on_c, 1, 79, 0
3, 65664, Note_on_c, 1, 77, 100
3, 65856, Note_on_c, 1, 77, 0
3, 66048, Note_on_c, 1, 74, 100
3, 66240, Note_on_c, 1, 74, 0
3, 66432, Note_on_c, 1, 77, 100
3, 66624, Note_on_c, 1, 77, 0
3, 66816, Note_on_c, 1, 77, 100
3, 67008, Note_on_c, 1, 77, 0
3, 67200, Note_on_c, 1, 76, 100
3, 67392, Note_on_c, 1, 76, 0
3, 67584, Note_on_c, 1, 76, 100
3, 67776, Note_on_c, 1, 76, 0
3, 67968, Note_on_c, 1, 74, 100
3, 68160, Note_on_c, 1, 74, 0
3, 68352, Note_on_c, 1, 74, 100
3, 68544, Note_on_c, 1, 74, 0
3, 68736, Note_on_c, 1, 72, 100
3, 68928, Note_on_c, 1, 72, 0
3, 69120, Note_on_c, 1, 71, 100
3, 69408, Note_on_c, 1, 71, 0
3, 69408, Note_on_c, 1, 72, 100
3, 69504, Note_on_c, 1, 72, 0
3, 69504, Note_on_c, 1, 71, 100
3, 69528, Note_on_c, 1, 71, 0
3, 69528, Note_on_c, 1, 72, 100
3, 69552, Note_on_c, 1, 72, 0
3, 69552, Note_on_c, 1, 71, 100
3, 69576, Note_on_c, 1, 71, 0
3, 69576, Note_on_c, 1, 72, 100
3, 69600, Note_on_c, 1, 72, 0
3, 69600, Note_on_c, 1, 71, 100
3, 69624, Note_on_c, 1, 71, 0
3, 69624, Note_on_c, 1, 72, 100
3, 69648, Note_on_c, 1, 72, 0
3, 69648, Note_on_c, 1, 71, 100
3, 69672, Note_on_c, 1, 71, 0
3, 69672, Note_on_c, 1, 72, 100
3, 69696, Note_on_c, 1, 72, 0
3, 69696, Note_on_c, 1, 71, 100
3, 69720, Note_on_c, 1, 71, 0
3, 69720, Note_on_c, 1, 72, 100
3, 69744, Note_on_c, 1, 72, 0
3, 69744, Note_on_c, 1, 71, 100
3, 69768, Note_on_c, 1, 71, 0
3, 69768, Note_on_c, 1, 72, 100
3, 69792, Note_on_c, 1, 72, 0
3, 69792, Note_on_c, 1, 72, 100
3, 69888, Note_on_c, 1, 72, 0
3, 69888, Note_on_c, 1, 72, 100
3, 70656, Note_on_c, 1, 72, 0
3, 70656, End_track
4, 0, Start_track
4, 0, MIDI_port, 0
4, 0, Title_t, "Violin 2"
4, 0, Program_c, 2, 40
4, 0, Control_c, 2, 7, 110
4, 0, Control_c, 2, 10, 96
4, 7, Note_on_c, 2, 64, 100
4, 199, Note_on_c, 2, 64, 0
4, 384, Note_on_c, 2, 64, 100
4, 576, Note_on_c, 2, 64, 0
4, 768, Note_on_c, 2, 65, 100
4, 960, Note_on_c, 2, 65, 0
4, 1152, Note_on_c, 2, 65, 100
4, 1344, Note_on_c, 2, 65, 0
4, 1536, Note_on_c, 2, 65, 100
4, 1728, Note_on_c, 2, 65, 0
4, 1920, Note_on_c, 2, 62, 100
4, 2112, Note_on_c, 2, 62, 0
4, 2304, Note_on_c, 2, 62, 100
4, 2496, Note_on_c, 2, 62, 0
4, 2688, Note_on_c, 2, 60, 100
4, 2880, Note_on_c, 2, 60, 0
4, 3072, Note_on_c, 2, 67, 100
4, 3264, Note_on_c, 2, 67, 0
4, 3456, Note_on_c, 2, 69, 100
4, 3648, Note_on_c, 2, 69, 0
4, 3840, Note_on_c, 2, 69, 100
4, 4032, Note_on_c, 2, 69, 0
4, 4224, Note_on_c, 2, 67, 100
4, 4416, Note_on_c, 2, 67, 0
4, 4608, Note_on_c, 2, 67, 100
4, 4800, Note_on_c, 2, 67, 0
4, 4992, Note_on_c, 2, 66, 100
4, 5184, Note_on_c, 2, 66, 0
4, 5376, Note_on_c, 2, 67, 100
4, 5568, Note_on_c, 2, 67, 0
4, 5568, Note_on_c, 2, 62, 100
4, 5760, Note_on_c, 2, 62, 0
4, 6144, Note_on_c, 2, 60, 100
4, 6336, Note_on_c, 2, 60, 0
4, 6528, Note_on_c, 2, 64, 100
4, 6720, Note_on_c, 2, 64, 0
4, 6912, Note_on_c, 2, 67, 100
4, 7104, Note_on_c, 2, 67, 0
4, 7296, Note_on_c, 2, 70, 100
4, 7488, Note_on_c, 2, 70, 0
4, 7680, Note_on_c, 2, 69, 100
4, 7872, Note_on_c, 2, 69, 0
4, 7872, Note_on_c, 2, 72, 100
4, 8064, Note_on_c, 2, 72, 0
4, 8064, Note_on_c, 2, 65, 100
4, 8256, Note_on_c, 2, 65, 0
4, 8256, Note_on_c, 2, 67, 100
4, 8448, Note_on_c, 2, 67, 0
4, 8448, Note_on_c, 2, 67, 100
4, 8640, Note_on_c, 2, 67, 0
4, 8640, Note_on_c, 2, 62, 100
4, 8832, Note_on_c, 2, 62, 0
4, 8832, Note_on_c, 2, 59, 100
4, 9024, Note_on_c, 2, 59, 0
4, 9024, Note_on_c, 2, 71, 100
4, 9120, Note_on_c, 2, 71, 0
4, 9120, Note_on_c, 2, 72, 100
4, 9168, Note_on_c, 2, 72, 0
4, 9168, Note_on_c, 2, 74, 100
4, 9216, Note_on_c, 2, 74, 0
4, 9216, Note_on_c, 2, 64, 100
4, 9408, Note_on_c, 2, 64, 0
4, 9600, Note_on_c, 2, 64, 100
4, 9792, Note_on_c, 2, 64, 0
4, 9984, Note_on_c, 2, 65, 100
4, 10176, Note_on_c, 2, 65, 0
4, 10368, Note_on_c, 2, 65, 100
4, 10560, Note_on_c, 2, 65, 0
4, 10752, Note_on_c, 2, 65, 100
4, 10944, Note_on_c, 2, 65, 0
4, 11136, Note_on_c, 2, 62, 100
4, 11328, Note_on_c, 2, 62, 0
4, 11520, Note_on_c, 2, 62, 100
4, 11712, Note_on_c, 2, 62, 0
4, 11904, Note_on_c, 2, 60, 100
4, 12096, Note_on_c, 2, 60, 0
4, 12288, Note_on_c, 2, 67, 100
4, 12480, Note_on_c, 2, 67, 0
4, 12672, Note_on_c, 2, 72, 100
4, 12864, Note_on_c, 2, 72, 0
4, 13056, Note_on_c, 2, 66, 100
4, 13248, Note_on_c, 2, 66, 0
4, 13440, Note_on_c, 2, 71, 100
4, 13632, Note_on_c, 2, 71, 0
4, 13824, Note_on_c, 2, 64, 100
4, 14016, Note_on_c, 2, 64, 0
4, 14208, Note_on_c, 2, 67, 100
4, 14400, Note_on_c, 2, 67, 0
4, 14592, Note_on_c, 2, 72, 100
4, 14784, Note_on_c, 2, 72, 0
4, 14976, Note_on_c, 2, 72, 100
4, 15168, Note_on_c, 2, 72, 0
4, 15360, Note_on_c, 2, 71, 100
4, 15552, Note_on_c, 2, 71, 0
4, 15744, Note_on_c, 2, 74, 100
4, 15936, Note_on_c, 2, 74, 0
4, 16128, Note_on_c, 2, 74, 100
4, 16320, Note_on_c, 2, 74, 0
4, 16512, Note_on_c, 2, 72, 100
4, 16704, Note_on_c, 2, 72, 0
4, 16896, Note_on_c, 2, 72, 100
4, 17088, Note_on_c, 2, 72, 0
4, 17280, Note_on_c, 2, 69, 100
4, 17472, Note_on_c, 2, 69, 0
4, 17664, Note_on_c, 2, 69, 100
4, 17856, Note_on_c, 2, 69, 0
4, 17856, Note_on_c, 2, 67, 100
4, 17952, Note_on_c, 2, 67, 0
4, 17952, Note_on_c, 2, 71, 100
4, 18048, Note_on_c, 2, 71, 0
4, 18048, Note_on_c, 2, 76, 100
4, 18240, Note_on_c, 2, 76, 0
4, 18432, Note_on_c, 2, 67, 100
4, 18624, Note_on_c, 2, 67, 0
4, 18816, Note_on_c, 2, 72, 100
4, 19008, Note_on_c, 2, 72, 0
4, 19200, Note_on_c, 2, 62, 100
4, 19392, Note_on_c, 2, 62, 0
4, 19584, Note_on_c, 2, 74, 100
4, 19776, Note_on_c, 2, 74, 0
4, 19968, Note_on_c, 2, 74, 100
4, 20160, Note_on_c, 2, 74, 0
4, 20160, Note_on_c, 2, 74, 100
4, 20352, Note_on_c, 2, 74, 0
4, 20352, Note_on_c, 2, 74, 100
4, 20544, Note_on_c, 2, 74, 0
4, 20544, Note_on_c, 2, 74, 100
4, 20736, Note_on_c, 2, 74, 0
4, 20736, Note_on_c, 2, 74, 100
4, 21120, Note_on_c, 2, 74, 0
4, 21504, Note_on_c, 2, 59, 100
4, 21696, Note_on_c, 2, 59, 0
4, 21888, Note_on_c, 2, 59, 100
4, 22080, Note_on_c, 2, 59, 0
4, 22272, Note_on_c, 2, 60, 100
4, 22464, Note_on_c, 2, 60, 0
4, 22656, Note_on_c, 2, 60, 100
4, 22848, Note_on_c, 2, 60, 0
4, 23040, Note_on_c, 2, 60, 100
4, 23232, Note_on_c, 2, 60, 0
4, 23424, Note_on_c, 2, 57, 100
4, 23616, Note_on_c, 2, 57, 0
4, 23808, Note_on_c, 2, 57, 100
4, 24000, Note_on_c, 2, 57, 0
4, 24192, Note_on_c, 2, 55, 100
4, 24384, Note_on_c, 2, 55, 0
4, 24576, Note_on_c, 2, 67, 100
4, 24768, Note_on_c, 2, 67, 0
4, 24960, Note_on_c, 2, 73, 100
4, 25152, Note_on_c, 2, 73, 0
4, 25344, Note_on_c, 2, 76, 100
4, 25536, Note_on_c, 2, 76, 0
4, 25728, Note_on_c, 2, 79, 100
4, 25920, Note_on_c, 2, 79, 0
4, 26112, Note_on_c, 2, 79, 100
4, 26304, Note_on_c, 2, 79, 0
4, 26496, Note_on_c, 2, 67, 100
4, 26688, Note_on_c, 2, 67, 0
4, 26880, Note_on_c, 2, 65, 100
4, 27072, Note_on_c, 2, 65, 0
4, 27072, Note_on_c, 2, 77, 100
4, 27264, Note_on_c, 2, 77, 0
4, 27264, Note_on_c, 2, 74, 100
4, 27456, Note_on_c, 2, 74, 0
4, 27648, Note_on_c, 2, 74, 100
4, 27840, Note_on_c, 2, 74, 0
4, 28032, Note_on_c, 2, 73, 100
4, 28224, Note_on_c, 2, 73, 0
4, 28416, Note_on_c, 2, 73, 100
4, 28608, Note_on_c, 2, 73, 0
4, 28800, Note_on_c, 2, 69, 100
4, 28992, Note_on_c, 2, 69, 0
4, 29184, Note_on_c, 2, 73, 100
4, 29376, Note_on_c, 2, 73, 0
4, 29376, Note_on_c, 2, 74, 100
4, 29568, Note_on_c, 2, 74, 0
4, 29568, Note_on_c, 2, 69, 100
4, 29760, Note_on_c, 2, 69, 0
4, 29760, Note_on_c, 2, 70, 100
4, 29952, Note_on_c, 2, 70, 0
4, 29952, Note_on_c, 2, 64, 100
4, 30144, Note_on_c, 2, 64, 0
4, 30144, Note_on_c, 2, 61, 100
4, 30336, Note_on_c, 2, 61, 0
4, 30336, Note_on_c, 2, 61, 100
4, 30528, Note_on_c, 2, 61, 0
4, 30528, Note_on_c, 2, 73, 100
4, 30624, Note_on_c, 2, 73, 0
4, 30624, Note_on_c, 2, 74, 100
4, 30672, Note_on_c, 2, 74, 0
4, 30672, Note_on_c, 2, 76, 100
4, 30720, Note_on_c, 2, 76, 0
4, 30720, Note_on_c, 2, 69, 100
4, 30912, Note_on_c, 2, 69, 0
4, 31104, Note_on_c, 2, 72, 100
4, 31296, Note_on_c, 2, 72, 0
4, 31488, Note_on_c, 2, 70, 100
4, 31680, Note_on_c, 2, 70, 0
4, 31872, Note_on_c, 2, 70, 100
4, 32064, Note_on_c, 2, 70, 0
4, 32256, Note_on_c, 2, 64, 100
4, 32448, Note_on_c, 2, 64, 0
4, 32640, Note_on_c, 2, 67, 100
4, 32832, Note_on_c, 2, 67, 0
4, 33024, Note_on_c, 2, 67, 100
4, 33216, Note_on_c, 2, 67, 0
4, 33408, Note_on_c, 2, 65, 100
4, 33600, Note_on_c, 2, 65, 0
4, 33792, Note_on_c, 2, 69, 100
4, 33984, Note_on_c, 2, 69, 0
4, 34176, Note_on_c, 2, 74, 100
4, 34368, Note_on_c, 2, 74, 0
4, 34560, Note_on_c, 2, 67, 100
4, 34752, Note_on_c, 2, 67, 0
4, 34944, Note_on_c, 2, 69, 100
4, 35136, Note_on_c, 2, 69, 0
4, 35328, Note_on_c, 2, 71, 100
4, 35520, Note_on_c, 2, 71, 0
4, 35712, Note_on_c, 2, 71, 100
4, 35904, Note_on_c, 2, 71, 0
4, 36096, Note_on_c, 2, 74, 100
4, 36288, Note_on_c, 2, 74, 0
4, 36480, Note_on_c, 2, 74, 100
4, 36672, Note_on_c, 2, 74, 0
4, 36864, Note_on_c, 2, 72, 100
4, 37056, Note_on_c, 2, 72, 0
4, 37248, Note_on_c, 2, 76, 100
4, 37440, Note_on_c, 2, 76, 0
4, 37632, Note_on_c, 2, 76, 100
4, 37824, Note_on_c, 2, 76, 0
4, 38016, Note_on_c, 2, 74, 100
4, 38208, Note_on_c, 2, 74, 0
4, 38400, Note_on_c, 2, 74, 100
4, 38592, Note_on_c, 2, 74, 0
4, 38784, Note_on_c, 2, 71, 100
4, 38976, Note_on_c, 2, 71, 0
4, 39168, Note_on_c, 2, 71, 100
4, 39360, Note_on_c, 2, 71, 0
4, 39360, Note_on_c, 2, 69, 100
4, 39456, Note_on_c, 2, 69, 0
4, 39456, Note_on_c, 2, 71, 100
4, 39552, Note_on_c, 2, 71, 0
4, 39552, Note_on_c, 2, 72, 100
4, 39744, Note_on_c, 2, 72, 0
4, 39936, Note_on_c, 2, 69, 100
4, 40128, Note_on_c, 2, 69, 0
4, 40320, Note_on_c, 2, 74, 100
4, 40512, Note_on_c, 2, 74, 0
4, 40704, Note_on_c, 2, 64, 100
4, 40896, Note_on_c, 2, 64, 0
4, 41088, Note_on_c, 2, 76, 100
4, 41280, Note_on_c, 2, 76, 0
4, 41472, Note_on_c, 2, 76, 100
4, 41664, Note_on_c, 2, 76, 0
4, 41664, Note_on_c, 2, 76, 100
4, 41856, Note_on_c, 2, 76, 0
4, 41856, Note_on_c, 2, 76, 100
4, 42048, Note_on_c, 2, 76, 0
4, 42048, Note_on_c, 2, 74, 100
4, 42240, Note_on_c, 2, 74, 0
4, 42240, Note_on_c, 2, 72, 100
4, 42432, Note_on_c, 2, 72, 0
4, 42624, Note_on_c, 2, 73, 100
4, 42816, Note_on_c, 2, 73, 0
4, 43008, Note_on_c, 2, 74, 100
4, 43200, Note_on_c, 2, 74, 0
4, 43392, Note_on_c, 2, 68, 100
4, 43584, Note_on_c, 2, 68, 0
4, 43776, Note_on_c, 2, 68, 100
4, 43968, Note_on_c, 2, 68, 0
4, 44160, Note_on_c, 2, 69, 100
4, 44352, Note_on_c, 2, 69, 0
4, 44544, Note_on_c, 2, 69, 100
4, 44736, Note_on_c, 2, 69, 0
4, 44928, Note_on_c, 2, 68, 100
4, 45120, Note_on_c, 2, 68, 0
4, 45312, Note_on_c, 2, 69, 100
4, 45504, Note_on_c, 2, 69, 0
4, 45504, Note_on_c, 2, 64, 100
4, 45696, Note_on_c, 2, 64, 0
4, 46080, Note_on_c, 2, 60, 100
4, 46272, Note_on_c, 2, 60, 0
4, 46464, Note_on_c, 2, 66, 100
4, 46656, Note_on_c, 2, 66, 0
4, 46848, Note_on_c, 2, 69, 100
4, 47040, Note_on_c, 2, 69, 0
4, 47232, Note_on_c, 2, 72, 100
4, 47424, Note_on_c, 2, 72, 0
4, 47616, Note_on_c, 2, 72, 100
4, 47808, Note_on_c, 2, 72, 0
4, 48000, Note_on_c, 2, 72, 100
4, 48192, Note_on_c, 2, 72, 0
4, 48384, Note_on_c, 2, 72, 100
4, 48576, Note_on_c, 2, 72, 0
4, 48576, Note_on_c, 2, 70, 100
4, 48768, Note_on_c, 2, 70, 0
4, 49152, Note_on_c, 2, 65, 100
4, 49344, Note_on_c, 2, 65, 0
4, 49536, Note_on_c, 2, 71, 100
4, 49728, Note_on_c, 2, 71, 0
4, 49920, Note_on_c, 2, 74, 100
4, 50112, Note_on_c, 2, 74, 0
4, 50304, Note_on_c, 2, 77, 100
4, 50496, Note_on_c, 2, 77, 0
4, 50688, Note_on_c, 2, 77, 100
4, 50880, Note_on_c, 2, 77, 0
4, 51072, Note_on_c, 2, 65, 100
4, 51264, Note_on_c, 2, 65, 0
4, 51456, Note_on_c, 2, 63, 100
4, 51648, Note_on_c, 2, 63, 0
4, 51648, Note_on_c, 2, 75, 100
4, 51840, Note_on_c, 2, 75, 0
4, 51840, Note_on_c, 2, 72, 100
4, 52032, Note_on_c, 2, 72, 0
4, 52224, Note_on_c, 2, 72, 100
4, 52416, Note_on_c, 2, 72, 0
4, 52608, Note_on_c, 2, 71, 100
4, 52800, Note_on_c, 2, 71, 0
4, 52992, Note_on_c, 2, 71, 100
4, 53184, Note_on_c, 2, 71, 0
4, 53376, Note_on_c, 2, 67, 100
4, 53568, Note_on_c, 2, 67, 0
4, 53760, Note_on_c, 2, 71, 100
4, 53952, Note_on_c, 2, 71, 0
4, 53952, Note_on_c, 2, 72, 100
4, 54144, Note_on_c, 2, 72, 0
4, 54144, Note_on_c, 2, 67, 100
4, 54336, Note_on_c, 2, 67, 0
4, 54336, Note_on_c, 2, 67, 100
4, 54528, Note_on_c, 2, 67, 0
4, 54528, Note_on_c, 2, 67, 100
4, 54720, Note_on_c, 2, 67, 0
4, 54720, Note_on_c, 2, 62, 100
4, 54912, Note_on_c, 2, 62, 0
4, 54912, Note_on_c, 2, 59, 100
4, 55104, Note_on_c, 2, 59, 0
4, 55104, Note_on_c, 2, 71, 100
4, 55200, Note_on_c, 2, 71, 0
4, 55200, Note_on_c, 2, 72, 100
4, 55248, Note_on_c, 2, 72, 0
4, 55248, Note_on_c, 2, 74, 100
4, 55296, Note_on_c, 2, 74, 0
4, 55296, Note_on_c, 2, 64, 100
4, 55488, Note_on_c, 2, 64, 0
4, 55680, Note_on_c, 2, 64, 100
4, 55872, Note_on_c, 2, 64, 0
4, 56064, Note_on_c, 2, 65, 100
4, 56256, Note_on_c, 2, 65, 0
4, 56448, Note_on_c, 2, 65, 100
4, 56640, Note_on_c, 2, 65, 0
4, 56832, Note_on_c, 2, 65, 100
4, 57024, Note_on_c, 2, 65, 0
4, 57216, Note_on_c, 2, 62, 100
4, 57408, Note_on_c, 2, 62, 0
4, 57600, Note_on_c, 2, 62, 100
4, 57792, Note_on_c, 2, 62, 0
4, 57984, Note_on_c, 2, 60, 100
4, 58176, Note_on_c, 2, 60, 0
4, 58368, Note_on_c, 2, 60, 100
4, 58560, Note_on_c, 2, 60, 0
4, 58752, Note_on_c, 2, 69, 100
4, 58944, Note_on_c, 2, 69, 0
4, 59136, Note_on_c, 2, 71, 100
4, 59328, Note_on_c, 2, 71, 0
4, 59520, Note_on_c, 2, 67, 100
4, 59712, Note_on_c, 2, 67, 0
4, 59904, Note_on_c, 2, 69, 100
4, 60096, Note_on_c, 2, 69, 0
4, 60288, Note_on_c, 2, 62, 100
4, 60480, Note_on_c, 2, 62, 0
4, 60672, Note_on_c, 2, 62, 100
4, 60864, Note_on_c, 2, 62, 0
4, 61056, Note_on_c, 2, 62, 100
4, 61248, Note_on_c, 2, 62, 0
4, 61440, Note_on_c, 2, 57, 100
4, 61632, Note_on_c, 2, 57, 0
4, 61824, Note_on_c, 2, 65, 100
4, 62016, Note_on_c, 2, 65, 0
4, 62208, Note_on_c, 2, 67, 100
4, 62400, Note_on_c, 2, 67, 0
4, 62592, Note_on_c, 2, 67, 100
4, 62784, Note_on_c, 2, 67, 0
4, 62976, Note_on_c, 2, 67, 100
4, 63168, Note_on_c, 2, 67, 0
4, 63168, Note_on_c, 2, 67, 100
4, 63360, Note_on_c, 2, 67, 0
4, 63360, Note_on_c, 2, 67, 100
4, 63552, Note_on_c, 2, 67, 0
4, 63552, Note_on_c, 2, 65, 100
4, 63744, Note_on_c, 2, 65, 0
4, 63744, Note_on_c, 2, 64, 100
4, 63936, Note_on_c, 2, 64, 0
4, 63936, Note_on_c, 2, 64, 100
4, 64128, Note_on_c, 2, 64, 0
4, 64128, Note_on_c, 2, 67, 100
4, 64320, Note_on_c, 2, 67, 0
4, 64320, Note_on_c, 2, 71, 100
4, 64416, Note_on_c, 2, 71, 0
4, 64416, Note_on_c, 2, 72, 100
4, 64464, Note_on_c, 2, 72, 0
4, 64464, Note_on_c, 2, 74, 100
4, 64512, Note_on_c, 2, 74, 0
4, 64512, Note_on_c, 2, 67, 100
4, 64704, Note_on_c, 2, 67, 0
4, 64896, Note_on_c, 2, 70, 100
4, 65088, Note_on_c, 2, 70, 0
4, 65280, Note_on_c, 2, 70, 100
4, 65472, Note_on_c, 2, 70, 0
4, 65664, Note_on_c, 2, 69, 100
4, 65856, Note_on_c, 2, 69, 0
4, 66048, Note_on_c, 2, 71, 100
4, 66240, Note_on_c, 2, 71, 0
4, 66432, Note_on_c, 2, 74, 100
4, 66624, Note_on_c, 2, 74, 0
4, 66816, Note_on_c, 2, 74, 100
4, 67008, Note_on_c, 2, 74, 0
4, 67200, Note_on_c, 2, 72, 100
4, 67392, Note_on_c, 2, 72, 0
4, 67584, Note_on_c, 2, 72, 100
4, 67776, Note_on_c, 2, 72, 0
4, 67968, Note_on_c, 2, 69, 100
4, 68160, Note_on_c, 2, 69, 0
4, 68352, Note_on_c, 2, 71, 100
4, 68544, Note_on_c, 2, 71, 0
4, 68736, Note_on_c, 2, 67, 100
4, 68928, Note_on_c, 2, 67, 0
4, 69120, Note_on_c, 2, 74, 100
4, 69312, Note_on_c, 2, 74, 0
4, 69312, Note_on_c, 2, 67, 100
4, 69504, Note_on_c, 2, 67, 0
4, 69504, Note_on_c, 2, 67, 100
4, 69792, Note_on_c, 2, 67, 0
4, 69792, Note_on_c, 2, 67, 100
4, 69888, Note_on_c, 2, 67, 0
4, 69888, Note_on_c, 2, 67, 100
4, 70656, Note_on_c, 2, 67, 0
4, 70656, End_track
5, 0, Start_track
5, 0, MIDI_port, 0
5, 0, Title_t, "Viola"
5, 0, Program_c, 3, 41
5, 0, Control_c, 3, 7, 105
5, 0, Control_c, 3, 10, 44
5, 7, Note_on_c, 3, 60, 100
5, 199, Note_on_c, 3, 60, 0
5, 384, Note_on_c, 3, 55, 100
5, 576, Note_on_c, 3, 55, 0
5, 768, Note_on_c, 3, 60, 100
5, 960, Note_on_c, 3, 60, 0
5, 1152, Note_on_c, 3, 60, 100
5, 1344, Note_on_c, 3, 60, 0
5, 1536, Note_on_c, 3, 57, 100
5, 1728, Note_on_c, 3, 57, 0
5, 1920, Note_on_c, 3, 59, 100
5, 2112, Note_on_c, 3, 59, 0
5, 2304, Note_on_c, 3, 55, 100
5, 2496, Note_on_c, 3, 55, 0
5, 2688, Note_on_c, 3, 55, 100
5, 2880, Note_on_c, 3, 55, 0
5, 3072, Note_on_c, 3, 60, 100
5, 3264, Note_on_c, 3, 60, 0
5, 3456, Note_on_c, 3, 64, 100
5, 3648, Note_on_c, 3, 64, 0
5, 3840, Note_on_c, 3, 62, 100
5, 4032, Note_on_c, 3, 62, 0
5, 4224, Note_on_c, 3, 62, 100
5, 4416, Note_on_c, 3, 62, 0
5, 4608, Note_on_c, 3, 60, 100
5, 4800, Note_on_c, 3, 60, 0
5, 4992, Note_on_c, 3, 57, 100
5, 5184, Note_on_c, 3, 57, 0
5, 5376, Note_on_c, 3, 55, 100
5, 5760, Note_on_c, 3, 55, 0
5, 6144, Note_on_c, 3, 60, 100
5, 6336, Note_on_c, 3, 60, 0
5, 6336, Note_on_c, 3, 60, 100
5, 6528, Note_on_c, 3, 60, 0
5, 6528, Note_on_c, 3, 60, 100
5, 6720, Note_on_c, 3, 60, 0
5, 6720, Note_on_c, 3, 60, 100
5, 6912, Note_on_c, 3, 60, 0
5, 6912, Note_on_c, 3, 60, 100
5, 7104, Note_on_c, 3, 60, 0
5, 7104, Note_on_c, 3, 60, 100
5, 7296, Note_on_c, 3, 60, 0
5, 7296, Note_on_c, 3, 60, 100
5, 7488, Note_on_c, 3, 60, 0
5, 7488, Note_on_c, 3, 60, 100
5, 7680, Note_on_c, 3, 60, 0
5, 7680, Note_on_c, 3, 60, 100
5, 7872, Note_on_c, 3, 60, 0
5, 7872, Note_on_c, 3, 60, 100
5, 8064, Note_on_c, 3, 60, 0
5, 8064, Note_on_c, 3, 60, 100
5, 8256, Note_on_c, 3, 60, 0
5, 8256, Note_on_c, 3, 60, 100
5, 8448, Note_on_c, 3, 60, 0
5, 8448, Note_on_c, 3, 55, 100
5, 8640, Note_on_c, 3, 55, 0
5, 8640, Note_on_c, 3, 67, 100
5, 8736, Note_on_c, 3, 67, 0
5, 8736, Note_on_c, 3, 69, 100
5, 8832, Note_on_c, 3, 69, 0
5, 8832, Note_on_c, 3, 67, 100
5, 8928, Note_on_c, 3, 67, 0
5, 8928, Note_on_c, 3, 65, 100
5, 9024, Note_on_c, 3, 65, 0
5, 9024, Note_on_c, 3, 64, 100
5, 9120, Note_on_c, 3, 64, 0
5, 9120, Note_on_c, 3, 62, 100
5, 9216, Note_on_c, 3, 62, 0
5, 9216, Note_on_c, 3, 60, 100
5, 9408, Note_on_c, 3, 60, 0
5, 9600, Note_on_c, 3, 55, 100
5, 9792, Note_on_c, 3, 55, 0
5, 9984, Note_on_c, 3, 60, 100
5, 10176, Note_on_c, 3, 60, 0
5, 10368, Note_on_c, 3, 60, 100
5, 10560, Note_on_c, 3, 60, 0
5, 10752, Note_on_c, 3, 57, 100
5, 10944, Note_on_c, 3, 57, 0
5, 11136, Note_on_c, 3, 59, 100
5, 11328, Note_on_c, 3, 59, 0
5, 11520, Note_on_c, 3, 55, 100
5, 11712, Note_on_c, 3, 55, 0
5, 11904, Note_on_c, 3, 55, 100
5, 12096, Note_on_c, 3, 55, 0
5, 12288, Note_on_c, 3, 60, 100
5, 12480, Note_on_c, 3, 60, 0
5, 12480, Note_on_c, 3, 60, 100
5, 12672, Note_on_c, 3, 60, 0
5, 12672, Note_on_c, 3, 60, 100
5, 12864, Note_on_c, 3, 60, 0
5, 12864, Note_on_c, 3, 60, 100
5, 13056, Note_on_c, 3, 60, 0
5, 13056, Note_on_c, 3, 59, 100
5, 13248, Note_on_c, 3, 59, 0
5, 13248, Note_on_c, 3, 59, 100
5, 13440, Note_on_c, 3, 59, 0
5, 13440, Note_on_c, 3, 59, 100
5, 13632, Note_on_c, 3, 59, 0
5, 13632, Note_on_c, 3, 59, 100
5, 13824, Note_on_c, 3, 59, 0
5, 13824, Note_on_c, 3, 57, 100
5, 14016, Note_on_c, 3, 57, 0
5, 14016, Note_on_c, 3, 57, 100
5, 14208, Note_on_c, 3, 57, 0
5, 14208, Note_on_c, 3, 55, 100
5, 14400, Note_on_c, 3, 55, 0
5, 14400, Note_on_c, 3, 55, 100
5, 14592, Note_on_c, 3, 55, 0
5, 14592, Note_on_c, 3, 54, 100
5, 14784, Note_on_c, 3, 54, 0
5, 14784, Note_on_c, 3, 54, 100
5, 14976, Note_on_c, 3, 54, 0
5, 14976, Note_on_c, 3, 52, 100
5, 15168, Note_on_c, 3, 52, 0
5, 15168, Note_on_c, 3, 52, 100
5, 15360, Note_on_c, 3, 52, 0
5, 15360, Note_on_c, 3, 55, 100
5, 15552, Note_on_c, 3, 55, 0
5, 15744, Note_on_c, 3, 59, 100
5, 15936, Note_on_c, 3, 59, 0
5, 16128, Note_on_c, 3, 60, 100
5, 16320, Note_on_c, 3, 60, 0
5, 16512, Note_on_c, 3, 67, 100
5, 16704, Note_on_c, 3, 67, 0
5, 16896, Note_on_c, 3, 64, 100
5, 17088, Note_on_c, 3, 64, 0
5, 17280, Note_on_c, 3, 66, 100
5, 17472, Note_on_c, 3, 66, 0
5, 17664, Note_on_c, 3, 62, 100
5, 17856, Note_on_c, 3, 62, 0
5, 17856, Note_on_c, 3, 67, 100
5, 17952, Note_on_c, 3, 67, 0
5, 17952, Note_on_c, 3, 66, 100
5, 18048, Note_on_c, 3, 66, 0
5, 18048, Note_on_c, 3, 64, 100
5, 18240, Note_on_c, 3, 64, 0
5, 18240, Note_on_c, 3, 62, 100
5, 18432, Note_on_c, 3, 62, 0
5, 18432, Note_on_c, 3, 61, 100
5, 18624, Note_on_c, 3, 61, 0
5, 18624, Note_on_c, 3, 61, 100
5, 18816, Note_on_c, 3, 61, 0
5, 18816, Note_on_c, 3, 60, 100
5, 19008, Note_on_c, 3, 60, 0
5, 19008, Note_on_c, 3, 60, 100
5, 19200, Note_on_c, 3, 60, 0
5, 19200, Note_on_c, 3, 59, 100
5, 19392, Note_on_c, 3, 59, 0
5, 19392, Note_on_c, 3, 59, 100
5, 19584, Note_on_c, 3, 59, 0
5, 19584, Note_on_c, 3, 58, 100
5, 19776, Note_on_c, 3, 58, 0
5, 19776, Note_on_c, 3, 58, 100
5, 19968, Note_on_c, 3, 58, 0
5, 19968, Note_on_c, 3, 57, 100
5, 20160, Note_on_c, 3, 57, 0
5, 20160, Note_on_c, 3, 55, 100
5, 20352, Note_on_c, 3, 55, 0
5, 20352, Note_on_c, 3, 62, 100
5, 20544, Note_on_c, 3, 62, 0
5, 20544, Note_on_c, 3, 50, 100
5, 20736, Note_on_c, 3, 50, 0
5, 20736, Note_on_c, 3, 55, 100
5, 21120, Note_on_c, 3, 55, 0
5, 21504, Note_on_c, 3, 55, 100
5, 21696, Note_on_c, 3, 55, 0
5, 21888, Note_on_c, 3, 50, 100
5, 22080, Note_on_c, 3, 50, 0
5, 22272, Note_on_c, 3, 55, 100
5, 22464, Note_on_c, 3, 55, 0
5, 22656, Note_on_c, 3, 55, 100
5, 22848, Note_on_c, 3, 55, 0
5, 23040, Note_on_c, 3, 52, 100
5, 23232, Note_on_c, 3, 52, 0
5, 23424, Note_on_c, 3, 54, 100
5, 23616, Note_on_c, 3, 54, 0
5, 23808, Note_on_c, 3, 50, 100
5, 24000, Note_on_c, 3, 50, 0
5, 24192, Note_on_c, 3, 50, 100
5, 24384, Note_on_c, 3, 50, 0
5, 24576, Note_on_c, 3, 64, 100
5, 24768, Note_on_c, 3, 64, 0
5, 24960, Note_on_c, 3, 67, 100
5, 25152, Note_on_c, 3, 67, 0
5, 25344, Note_on_c, 3, 64, 100
5, 25536, Note_on_c, 3, 64, 0
5, 25728, Note_on_c, 3, 61, 100
5, 25920, Note_on_c, 3, 61, 0
5, 26112, Note_on_c, 3, 64, 100
5, 26304, Note_on_c, 3, 64, 0
5, 26496, Note_on_c, 3, 69, 100
5, 26688, Note_on_c, 3, 69, 0
5, 26880, Note_on_c, 3, 69, 100
5, 27072, Note_on_c, 3, 69, 0
5, 27072, Note_on_c, 3, 62, 100
5, 27264, Note_on_c, 3, 62, 0
5, 27264, Note_on_c, 3, 62, 100
5, 27456, Note_on_c, 3, 62, 0
5, 27456, Note_on_c, 3, 64, 100
5, 27552, Note_on_c, 3, 64, 0
5, 27552, Note_on_c, 3, 65, 100
5, 27648, Note_on_c, 3, 65, 0
5, 27648, Note_on_c, 3, 67, 100
5, 27840, Note_on_c, 3, 67, 0
5, 27840, Note_on_c, 3, 67, 100
5, 28032, Note_on_c, 3, 67, 0
5, 28032, Note_on_c, 3, 67, 100
5, 28224, Note_on_c, 3, 67, 0
5, 28224, Note_on_c, 3, 67, 100
5, 28416, Note_on_c, 3, 67, 0
5, 28416, Note_on_c, 3, 65, 100
5, 28608, Note_on_c, 3, 65, 0
5, 28608, Note_on_c, 3, 65, 100
5, 28800, Note_on_c, 3, 65, 0
5, 28800, Note_on_c, 3, 65, 100
5, 28992, Note_on_c, 3, 65, 0
5, 28992, Note_on_c, 3, 65, 100
5, 29184, Note_on_c, 3, 65, 0
5, 29184, Note_on_c, 3, 64, 100
5, 29376, Note_on_c, 3, 64, 0
5, 29376, Note_on_c, 3, 62, 100
5, 29568, Note_on_c, 3, 62, 0
5, 29568, Note_on_c, 3, 60, 100
5, 29760, Note_on_c, 3, 60, 0
5, 29760, Note_on_c, 3, 58, 100
5, 29952, Note_on_c, 3, 58, 0
5, 29952, Note_on_c, 3, 57, 100
5, 30144, Note_on_c, 3, 57, 0
5, 30144, Note_on_c, 3, 69, 100
5, 30240, Note_on_c, 3, 69, 0
5, 30240, Note_on_c, 3, 70, 100
5, 30336, Note_on_c, 3, 70, 0
5, 30336, Note_on_c, 3, 69, 100
5, 30432, Note_on_c, 3, 69, 0
5, 30432, Note_on_c, 3, 67, 100
5, 30528, Note_on_c, 3, 67, 0
5, 30528, Note_on_c, 3, 65, 100
5, 30624, Note_on_c, 3, 65, 0
5, 30624, Note_on_c, 3, 64, 100
5, 30720, Note_on_c, 3, 64, 0
5, 30720, Note_on_c, 3, 62, 100
5, 30912, Note_on_c, 3, 62, 0
5, 31104, Note_on_c, 3, 69, 100
5, 31296, Note_on_c, 3, 69, 0
5, 31488, Note_on_c, 3, 67, 100
5, 31680, Note_on_c, 3, 67, 0
5, 31872, Note_on_c, 3, 67, 100
5, 32064, Note_on_c, 3, 67, 0
5, 32256, Note_on_c, 3, 67, 100
5, 32448, Note_on_c, 3, 67, 0
5, 32640, Note_on_c, 3, 61, 100
5, 32832, Note_on_c, 3, 61, 0
5, 33024, Note_on_c, 3, 57, 100
5, 33216, Note_on_c, 3, 57, 0
5, 33408, Note_on_c, 3, 69, 100
5, 33600, Note_on_c, 3, 69, 0
5, 33792, Note_on_c, 3, 62, 100
5, 33984, Note_on_c, 3, 62, 0
5, 33984, Note_on_c, 3, 62, 100
5, 34176, Note_on_c, 3, 62, 0
5, 34176, Note_on_c, 3, 62, 100
5, 34368, Note_on_c, 3, 62, 0
5, 34368, Note_on_c, 3, 62, 100
5, 34560, Note_on_c, 3, 62, 0
5, 34560, Note_on_c, 3, 60, 100
5, 34752, Note_on_c, 3, 60, 0
5, 34752, Note_on_c, 3, 60, 100
5, 34944, Note_on_c, 3, 60, 0
5, 34944, Note_on_c, 3, 60, 100
5, 35136, Note_on_c, 3, 60, 0
5, 35136, Note_on_c, 3, 60, 100
5, 35328, Note_on_c, 3, 60, 0
5, 35328, Note_on_c, 3, 59, 100
5, 35520, Note_on_c, 3, 59, 0
5, 35520, Note_on_c, 3, 59, 100
5, 35712, Note_on_c, 3, 59, 0
5, 35712, Note_on_c, 3, 57, 100
5, 35904, Note_on_c, 3, 57, 0
5, 35904, Note_on_c, 3, 57, 100
5, 36096, Note_on_c, 3, 57, 0
5, 36096, Note_on_c, 3, 56, 100
5, 36288, Note_on_c, 3, 56, 0
5, 36288, Note_on_c, 3, 56, 100
5, 36480, Note_on_c, 3, 56, 0
5, 36480, Note_on_c, 3, 52, 100
5, 36672, Note_on_c, 3, 52, 0
5, 36672, Note_on_c, 3, 52, 100
5, 36864, Note_on_c, 3, 52, 0
5, 36864, Note_on_c, 3, 57, 100
5, 37056, Note_on_c, 3, 57, 0
5, 37248, Note_on_c, 3, 61, 100
5, 37440, Note_on_c, 3, 61, 0
5, 37632, Note_on_c, 3, 62, 100
5, 37824, Note_on_c, 3, 62, 0
5, 38016, Note_on_c, 3, 69, 100
5, 38208, Note_on_c, 3, 69, 0
5, 38400, Note_on_c, 3, 68, 100
5, 38592, Note_on_c, 3, 68, 0
5, 38784, Note_on_c, 3, 68, 100
5, 38976, Note_on_c, 3, 68, 0
5, 39168, Note_on_c, 3, 64, 100
5, 39360, Note_on_c, 3, 64, 0
5, 39360, Note_on_c, 3, 69, 100
5, 39456, Note_on_c, 3, 69, 0
5, 39456, Note_on_c, 3, 68, 100
5, 39552, Note_on_c, 3, 68, 0
5, 39552, Note_on_c, 3, 69, 100
5, 39744, Note_on_c, 3, 69, 0
5, 39744, Note_on_c, 3, 65, 100
5, 39936, Note_on_c, 3, 65, 0
5, 39936, Note_on_c, 3, 63, 100
5, 40128, Note_on_c, 3, 63, 0
5, 40128, Note_on_c, 3, 63, 100
5, 40320, Note_on_c, 3, 63, 0
5, 40320, Note_on_c, 3, 62, 100
5, 40512, Note_on_c, 3, 62, 0
5, 40512, Note_on_c, 3, 62, 100
5, 40704, Note_on_c, 3, 62, 0
5, 40704, Note_on_c, 3, 61, 100
5, 40896, Note_on_c, 3, 61, 0
5, 40896, Note_on_c, 3, 61, 100
5, 41088, Note_on_c, 3, 61, 0
5, 41088, Note_on_c, 3, 60, 100
5, 41280, Note_on_c, 3, 60, 0
5, 41280, Note_on_c, 3, 60, 100
5, 41472, Note_on_c, 3, 60, 0
5, 41472, Note_on_c, 3, 59, 100
5, 41664, Note_on_c, 3, 59, 0
5, 41664, Note_on_c, 3, 57, 100
5, 41856, Note_on_c, 3, 57, 0
5, 41856, Note_on_c, 3, 64, 100
5, 42048, Note_on_c, 3, 64, 0
5, 42048, Note_on_c, 3, 52, 100
5, 42240, Note_on_c, 3, 52, 0
5, 42240, Note_on_c, 3, 57, 100
5, 42432, Note_on_c, 3, 57, 0
5, 42624, Note_on_c, 3, 64, 100
5, 42816, Note_on_c, 3, 64, 0
5, 43008, Note_on_c, 3, 69, 100
5, 43200, Note_on_c, 3, 69, 0
5, 43392, Note_on_c, 3, 71, 100
5, 43584, Note_on_c, 3, 71, 0
5, 43776, Note_on_c, 3, 71, 100
5, 43968, Note_on_c, 3, 71, 0
5, 44160, Note_on_c, 3, 64, 100
5, 44352, Note_on_c, 3, 64, 0
5, 44544, Note_on_c, 3, 65, 100
5, 44736, Note_on_c, 3, 65, 0
5, 44928, Note_on_c, 3, 64, 100
5, 45120, Note_on_c, 3, 64, 0
5, 45312, Note_on_c, 3, 64, 100
5, 45504, Note_on_c, 3, 64, 0
5, 45504, Note_on_c, 3, 57, 100
5, 45696, Note_on_c, 3, 57, 0
5, 46080, Note_on_c, 3, 69, 100
5, 46272, Note_on_c, 3, 69, 0
5, 46272, Note_on_c, 3, 69, 100
5, 46464, Note_on_c, 3, 69, 0
5, 46464, Note_on_c, 3, 69, 100
5, 46656, Note_on_c, 3, 69, 0
5, 46656, Note_on_c, 3, 72, 100
5, 46752, Note_on_c, 3, 72, 0
5, 46752, Note_on_c, 3, 74, 100
5, 46800, Note_on_c, 3, 74, 0
5, 46800, Note_on_c, 3, 75, 100
5, 46848, Note_on_c, 3, 75, 0
5, 46848, Note_on_c, 3, 66, 100
5, 47040, Note_on_c, 3, 66, 0
5, 47040, Note_on_c, 3, 66, 100
5, 47232, Note_on_c, 3, 66, 0
5, 47232, Note_on_c, 3, 66, 100
5, 47424, Note_on_c, 3, 66, 0
5, 47424, Note_on_c, 3, 69, 100
5, 47520, Note_on_c, 3, 69, 0
5, 47520, Note_on_c, 3, 70, 100
5, 47568, Note_on_c, 3, 70, 0
5, 47568, Note_on_c, 3, 72, 100
5, 47616, Note_on_c, 3, 72, 0
5, 47616, Note_on_c, 3, 62, 100
5, 47808, Note_on_c, 3, 62, 0
5, 47808, Note_on_c, 3, 62, 100
5, 48000, Note_on_c, 3, 62, 0
5, 48000, Note_on_c, 3, 62, 100
5, 48192, Note_on_c, 3, 62, 0
5, 48192, Note_on_c, 3, 66, 100
5, 48288, Note_on_c, 3, 66, 0
5, 48288, Note_on_c, 3, 67, 100
5, 48336, Note_on_c, 3, 67, 0
5, 48336, Note_on_c, 3, 69, 100
5, 48384, Note_on_c, 3, 69, 0
5, 48384, Note_on_c, 3, 55, 100
5, 48768, Note_on_c, 3, 55, 0
5, 49152, Note_on_c, 3, 62, 100
5, 49344, Note_on_c, 3, 62, 0
5, 49536, Note_on_c, 3, 65, 100
5, 49728, Note_on_c, 3, 65, 0
5, 49920, Note_on_c, 3, 62, 100
5, 50112, Note_on_c, 3, 62, 0
5, 50304, Note_on_c, 3, 59, 100
5, 50496, Note_on_c, 3, 59, 0
5, 50688, Note_on_c, 3, 62, 100
5, 50880, Note_on_c, 3, 62, 0
5, 51072, Note_on_c, 3, 67, 100
5, 51264, Note_on_c, 3, 67, 0
5, 51456, Note_on_c, 3, 67, 100
5, 51648, Note_on_c, 3, 67, 0
5, 51648, Note_on_c, 3, 60, 100
5, 51840, Note_on_c, 3, 60, 0
5, 51840, Note_on_c, 3, 60, 100
5, 52032, Note_on_c, 3, 60, 0
5, 52032, Note_on_c, 3, 62, 100
5, 52128, Note_on_c, 3, 62, 0
5, 52128, Note_on_c, 3, 63, 100
5, 52224, Note_on_c, 3, 63, 0
5, 52224, Note_on_c, 3, 65, 100
5, 52416, Note_on_c, 3, 65, 0
5, 52416, Note_on_c, 3, 65, 100
5, 52608, Note_on_c, 3, 65, 0
5, 52800, Note_on_c, 3, 65, 100
5, 52992, Note_on_c, 3, 65, 0
5, 52992, Note_on_c, 3, 63, 100
5, 53184, Note_on_c, 3, 63, 0
5, 53184, Note_on_c, 3, 63, 100
5, 53376, Note_on_c, 3, 63, 0
5, 53376, Note_on_c, 3, 62, 100
5, 53568, Note_on_c, 3, 62, 0
5, 53568, Note_on_c, 3, 62, 100
5, 53760, Note_on_c, 3, 62, 0
5, 53760, Note_on_c, 3, 65, 100
5, 53952, Note_on_c, 3, 65, 0
5, 53952, Note_on_c, 3, 63, 100
5, 54144, Note_on_c, 3, 63, 0
5, 54144, Note_on_c, 3, 62, 100
5, 54336, Note_on_c, 3, 62, 0
5, 54336, Note_on_c, 3, 60, 100
5, 54528, Note_on_c, 3, 60, 0
5, 54528, Note_on_c, 3, 55, 100
5, 54720, Note_on_c, 3, 55, 0
5, 54720, Note_on_c, 3, 67, 100
5, 54912, Note_on_c, 3, 67, 0
5, 54912, Note_on_c, 3, 62, 100
5, 55104, Note_on_c, 3, 62, 0
5, 55104, Note_on_c, 3, 55, 100
5, 55296, Note_on_c, 3, 55, 0
5, 55296, Note_on_c, 3, 60, 100
5, 55488, Note_on_c, 3, 60, 0
5, 55680, Note_on_c, 3, 55, 100
5, 55872, Note_on_c, 3, 55, 0
5, 56064, Note_on_c, 3, 60, 100
5, 56256, Note_on_c, 3, 60, 0
5, 56448, Note_on_c, 3, 60, 100
5, 56640, Note_on_c, 3, 60, 0
5, 56832, Note_on_c, 3, 57, 100
5, 57024, Note_on_c, 3, 57, 0
5, 57216, Note_on_c, 3, 59, 100
5, 57408, Note_on_c, 3, 59, 0
5, 57600, Note_on_c, 3, 55, 100
5, 57792, Note_on_c, 3, 55, 0
5, 57984, Note_on_c, 3, 55, 100
5, 58176, Note_on_c, 3, 55, 0
5, 58368, Note_on_c, 3, 53, 100
5, 58560, Note_on_c, 3, 53, 0
5, 58560, Note_on_c, 3, 53, 100
5, 58752, Note_on_c, 3, 53, 0
5, 58752, Note_on_c, 3, 65, 100
5, 58944, Note_on_c, 3, 65, 0
5, 58944, Note_on_c, 3, 65, 100
5, 59136, Note_on_c, 3, 65, 0
5, 59136, Note_on_c, 3, 64, 100
5, 59328, Note_on_c, 3, 64, 0
5, 59328, Note_on_c, 3, 64, 100
5, 59520, Note_on_c, 3, 64, 0
5, 59520, Note_on_c, 3, 64, 100
5, 59712, Note_on_c, 3, 64, 0
5, 59712, Note_on_c, 3, 64, 100
5, 59904, Note_on_c, 3, 64, 0
5, 59904, Note_on_c, 3, 62, 100
5, 60096, Note_on_c, 3, 62, 0
5, 60096, Note_on_c, 3, 62, 100
5, 60288, Note_on_c, 3, 62, 0
5, 60288, Note_on_c, 3, 60, 100
5, 60480, Note_on_c, 3, 60, 0
5, 60480, Note_on_c, 3, 60, 100
5, 60672, Note_on_c, 3, 60, 0
5, 60672, Note_on_c, 3, 59, 100
5, 60864, Note_on_c, 3, 59, 0
5, 60864, Note_on_c, 3, 59, 100
5, 61056, Note_on_c, 3, 59, 0
5, 61056, Note_on_c, 3, 55, 100
5, 61248, Note_on_c, 3, 55, 0
5, 61248, Note_on_c, 3, 55, 100
5, 61440, Note_on_c, 3, 55, 0
5, 61440, Note_on_c, 3, 54, 100
5, 61632, Note_on_c, 3, 54, 0
5, 61632, Note_on_c, 3, 54, 100
5, 61824, Note_on_c, 3, 54, 0
5, 61824, Note_on_c, 3, 53, 100
5, 62016, Note_on_c, 3, 53, 0
5, 62016, Note_on_c, 3, 53, 100
5, 62208, Note_on_c, 3, 53, 0
5, 62208, Note_on_c, 3, 52, 100
5, 62400, Note_on_c, 3, 52, 0
5, 62400, Note_on_c, 3, 52, 100
5, 62592, Note_on_c, 3, 52, 0
5, 62592, Note_on_c, 3, 51, 100
5, 62784, Note_on_c, 3, 51, 0
5, 62784, Note_on_c, 3, 51, 100
5, 62976, Note_on_c, 3, 51, 0
5, 62976, Note_on_c, 3, 50, 100
5, 63168, Note_on_c, 3, 50, 0
5, 63168, Note_on_c, 3, 48, 100
5, 63360, Note_on_c, 3, 48, 0
5, 63360, Note_on_c, 3, 55, 100
5, 63552, Note_on_c, 3, 55, 0
5, 63552, Note_on_c, 3, 55, 100
5, 63744, Note_on_c, 3, 55, 0
5, 63744, Note_on_c, 3, 48, 100
5, 63936, Note_on_c, 3, 48, 0
5, 63936, Note_on_c, 3, 60, 100
5, 64128, Note_on_c, 3, 60, 0
5, 64128, Note_on_c, 3, 64, 100
5, 64320, Note_on_c, 3, 64, 0
5, 64320, Note_on_c, 3, 65, 100
5, 64512, Note_on_c, 3, 65, 0
5, 64512, Note_on_c, 3, 67, 100
5, 64704, Note_on_c, 3, 67, 0
5, 64896, Note_on_c, 3, 64, 100
5, 65088, Note_on_c, 3, 64, 0
5, 65280, Note_on_c, 3, 64, 100
5, 65472, Note_on_c, 3, 64, 0
5, 65664, Note_on_c, 3, 60, 100
5, 65856, Note_on_c, 3, 60, 0
5, 66048, Note_on_c, 3, 65, 100
5, 66240, Note_on_c, 3, 65, 0
5, 66432, Note_on_c, 3, 59, 100
5, 66624, Note_on_c, 3, 59, 0
5, 66816, Note_on_c, 3, 55, 100
5, 67008, Note_on_c, 3, 55, 0
5, 67200, Note_on_c, 3, 67, 100
5, 67392, Note_on_c, 3, 67, 0
5, 67584, Note_on_c, 3, 65, 100
5, 67776, Note_on_c, 3, 65, 0
5, 67968, Note_on_c, 3, 69, 100
5, 68160, Note_on_c, 3, 69, 0
5, 68352, Note_on_c, 3, 67, 100
5, 68544, Note_on_c, 3, 67, 0
5, 68736, Note_on_c, 3, 64, 100
5, 68928, Note_on_c, 3, 64, 0
5, 69120, Note_on_c, 3, 65, 100
5, 69312, Note_on_c, 3, 65, 0
5, 69312, Note_on_c, 3, 67, 100
5, 69456, Note_on_c, 3, 67, 0
5, 69456, Note_on_c, 3, 64, 100
5, 69504, Note_on_c, 3, 64, 0
5, 69504, Note_on_c, 3, 62, 100
5, 69792, Note_on_c, 3, 62, 0
5, 69792, Note_on_c, 3, 64, 100
5, 69888, Note_on_c, 3, 64, 0
5, 69888, Note_on_c, 3, 64, 100
5, 70656, Note_on_c, 3, 64, 0
5, 70656, End_track
6, 0, Start_track
6, 0, MIDI_port, 0
6, 0, Title_t, "Cello"
6, 0, Program_c, 4, 42
6, 0, Control_c, 4, 7, 100
6, 0, Control_c, 4, 10, 84
6, 7, Note_on_c, 4, 48, 100
6, 192, Note_on_c, 4, 48, 100
6, 199, Note_on_c, 4, 48, 0
6, 384, Note_on_c, 4, 48, 0
6, 384, Note_on_c, 4, 48, 100
6, 576, Note_on_c, 4, 48, 0
6, 576, Note_on_c, 4, 52, 100
6, 672, Note_on_c, 4, 52, 0
6, 672, Note_on_c, 4, 53, 100
6, 720, Note_on_c, 4, 53, 0
6, 720, Note_on_c, 4, 55, 100
6, 768, Note_on_c, 4, 55, 0
6, 768, Note_on_c, 4, 48, 100
6, 960, Note_on_c, 4, 48, 0
6, 960, Note_on_c, 4, 48, 100
6, 1152, Note_on_c, 4, 48, 0
6, 1152, Note_on_c, 4, 48, 100
6, 1344, Note_on_c, 4, 48, 0
6, 1344, Note_on_c, 4, 53, 100
6, 1440, Note_on_c, 4, 53, 0
6, 1440, Note_on_c, 4, 55, 100
6, 1488, Note_on_c, 4, 55, 0
6, 1488, Note_on_c, 4, 57, 100
6, 1536, Note_on_c, 4, 57, 0
6, 1536, Note_on_c, 4, 48, 100
6, 1728, Note_on_c, 4, 48, 0
6, 1728, Note_on_c, 4, 48, 100
6, 1920, Note_on_c, 4, 48, 0
6, 1920, Note_on_c, 4, 48, 100
6, 2112, Note_on_c, 4, 48, 0
6, 2112, Note_on_c, 4, 59, 100
6, 2208, Note_on_c, 4, 59, 0
6, 2208, Note_on_c, 4, 60, 100
6, 2256, Note_on_c, 4, 60, 0
6, 2256, Note_on_c, 4, 62, 100
6, 2304, Note_on_c, 4, 62, 0
6, 2304, Note_on_c, 4, 48, 100
6, 2496, Note_on_c, 4, 48, 0
6, 2496, Note_on_c, 4, 48, 100
6, 2688, Note_on_c, 4, 48, 0
6, 2688, Note_on_c, 4, 48, 100
6, 2880, Note_on_c, 4, 48, 0
6, 2880, Note_on_c, 4, 55, 100
6, 2976, Note_on_c, 4, 55, 0
6, 2976, Note_on_c, 4, 57, 100
6, 3024, Note_on_c, 4, 57, 0
6, 3024, Note_on_c, 4, 59, 100
6, 3072, Note_on_c, 4, 59, 0
6, 3072, Note_on_c, 4, 48, 100
6, 3264, Note_on_c, 4, 48, 0
6, 3264, Note_on_c, 4, 48, 100
6, 3456, Note_on_c, 4, 48, 0
6, 3456, Note_on_c, 4, 48, 100
6, 3648, Note_on_c, 4, 48, 0
6, 3648, Note_on_c, 4, 54, 100
6, 3744, Note_on_c, 4, 54, 0
6, 3744, Note_on_c, 4, 55, 100
6, 3792, Note_on_c, 4, 55, 0
6, 3792, Note_on_c, 4, 57, 100
6, 3840, Note_on_c, 4, 57, 0
6, 3840, Note_on_c, 4, 47, 100
6, 4032, Note_on_c, 4, 47, 0
6, 4032, Note_on_c, 4, 47, 100
6, 4224, Note_on_c, 4, 47, 0
6, 4224, Note_on_c, 4, 47, 100
6, 4416, Note_on_c, 4, 47, 0
6, 4416, Note_on_c, 4, 52, 100
6, 4512, Note_on_c, 4, 52, 0
6, 4512, Note_on_c, 4, 54, 100
6, 4560, Note_on_c, 4, 54, 0
6, 4560, Note_on_c, 4, 55, 100
6, 4608, Note_on_c, 4, 55, 0
6, 4608, Note_on_c, 4, 45, 100
6, 4800, Note_on_c, 4, 45, 0
6, 4800, Note_on_c, 4, 45, 100
6, 4992, Note_on_c, 4, 45, 0
6, 4992, Note_on_c, 4, 45, 100
6, 5184, Note_on_c, 4, 45, 0
6, 5184, Note_on_c, 4, 50, 100
6, 5280, Note_on_c, 4, 50, 0
6, 5280, Note_on_c, 4, 52, 100
6, 5328, Note_on_c, 4, 52, 0
6, 5328, Note_on_c, 4, 54, 100
6, 5376, Note_on_c, 4, 54, 0
6, 5376, Note_on_c, 4, 43, 100
6, 5760, Note_on_c, 4, 43, 0
6, 9216, Note_on_c, 4, 48, 100
6, 9408, Note_on_c, 4, 48, 0
6, 9408, Note_on_c, 4, 48, 100
6, 9600, Note_on_c, 4, 48, 0
6, 9600, Note_on_c, 4, 48, 100
6, 9792, Note_on_c, 4, 48, 0
6, 9792, Note_on_c, 4, 52, 100
6, 9888, Note_on_c, 4, 52, 0
6, 9888, Note_on_c, 4, 53, 100
6, 9936, Note_on_c, 4, 53, 0
6, 9936, Note_on_c, 4, 55, 100
6, 9984, Note_on_c, 4, 55, 0
6, 9984, Note_on_c, 4, 48, 100
6, 10176, Note_on_c, 4, 48, 0
6, 10176, Note_on_c, 4, 48, 100
6, 10368, Note_on_c, 4, 48, 0
6, 10368, Note_on_c, 4, 48, 100
6, 10560, Note_on_c, 4, 48, 0
6, 10560, Note_on_c, 4, 53, 100
6, 10656, Note_on_c, 4, 53, 0
6, 10656, Note_on_c, 4, 55, 100
6, 10704, Note_on_c, 4, 55, 0
6, 10704, Note_on_c, 4, 57, 100
6, 10752, Note_on_c, 4, 57, 0
6, 10752, Note_on_c, 4, 48, 100
6, 10944, Note_on_c, 4, 48, 0
6, 10944, Note_on_c, 4, 48, 100
6, 11136, Note_on_c, 4, 48, 0
6, 11136, Note_on_c, 4, 48, 100
6, 11328, Note_on_c, 4, 48, 0
6, 11328, Note_on_c, 4, 59, 100
6, 11424, Note_on_c, 4, 59, 0
6, 11424, Note_on_c, 4, 60, 100
6, 11472, Note_on_c, 4, 60, 0
6, 11472, Note_on_c, 4, 62, 100
6, 11520, Note_on_c, 4, 62, 0
6, 11520, Note_on_c, 4, 48, 100
6, 11712, Note_on_c, 4, 48, 0
6, 11712, Note_on_c, 4, 48, 100
6, 11904, Note_on_c, 4, 48, 0
6, 11904, Note_on_c, 4, 48, 100
6, 12096, Note_on_c, 4, 48, 0
6, 12096, Note_on_c, 4, 55, 100
6, 12192, Note_on_c, 4, 55, 0
6, 12192, Note_on_c, 4, 57, 100
6, 12240, Note_on_c, 4, 57, 0
6, 12240, Note_on_c, 4, 59, 100
6, 12288, Note_on_c, 4, 59, 0
6, 12288, Note_on_c, 4, 48, 100
6, 12480, Note_on_c, 4, 48, 0
6, 15360, Note_on_c, 4, 43, 100
6, 15552, Note_on_c, 4, 43, 0
6, 15552, Note_on_c, 4, 43, 100
6, 15744, Note_on_c, 4, 43, 0
6, 15744, Note_on_c, 4, 43, 100
6, 15936, Note_on_c, 4, 43, 0
6, 15936, Note_on_c, 4, 47, 100
6, 16032, Note_on_c, 4, 47, 0
6, 16032, Note_on_c, 4, 48, 100
6, 16080, Note_on_c, 4, 48, 0
6, 16080, Note_on_c, 4, 50, 100
6, 16128, Note_on_c, 4, 50, 0
6, 16128, Note_on_c, 4, 43, 100
6, 16320, Note_on_c, 4, 43, 0
6, 16320, Note_on_c, 4, 43, 100
6, 16512, Note_on_c, 4, 43, 0
6, 16512, Note_on_c, 4, 43, 100
6, 16704, Note_on_c, 4, 43, 0
6, 16704, Note_on_c, 4, 48, 100
6, 16800, Note_on_c, 4, 48, 0
6, 16800, Note_on_c, 4, 50, 100
6, 16848, Note_on_c, 4, 50, 0
6, 16848, Note_on_c, 4, 52, 100
6, 16896, Note_on_c, 4, 52, 0
6, 16896, Note_on_c, 4, 43, 100
6, 17088, Note_on_c, 4, 43, 0
6, 17088, Note_on_c, 4, 43, 100
6, 17280, Note_on_c, 4, 43, 0
6, 17280, Note_on_c, 4, 43, 100
6, 17472, Note_on_c, 4, 43, 0
6, 17472, Note_on_c, 4, 54, 100
6, 17568, Note_on_c, 4, 54, 0
6, 17568, Note_on_c, 4, 55, 100
6, 17616, Note_on_c, 4, 55, 0
6, 17616, Note_on_c, 4, 57, 100
6, 17664, Note_on_c, 4, 57, 0
6, 17664, Note_on_c, 4, 43, 100
6, 18048, Note_on_c, 4, 43, 0
6, 21504, Note_on_c, 4, 43, 100
6, 21696, Note_on_c, 4, 43, 0
6, 21696, Note_on_c, 4, 43, 100
6, 21888, Note_on_c, 4, 43, 0
6, 21888, Note_on_c, 4, 43, 100
6, 22080, Note_on_c, 4, 43, 0
6, 22080, Note_on_c, 4, 47, 100
6, 22176, Note_on_c, 4, 47, 0
6, 22176, Note_on_c, 4, 48, 100
6, 22224, Note_on_c, 4, 48, 0
6, 22224, Note_on_c, 4, 50, 100
6, 22272, Note_on_c, 4, 50, 0
6, 22272, Note_on_c, 4, 43, 100
6, 22464, Note_on_c, 4, 43, 0
6, 22464, Note_on_c, 4, 43, 100
6, 22656, Note_on_c, 4, 43, 0
6, 22656, Note_on_c, 4, 43, 100
6, 22848, Note_on_c, 4, 43, 0
6, 22848, Note_on_c, 4, 48, 100
6, 22944, Note_on_c, 4, 48, 0
6, 22944, Note_on_c, 4, 50, 100
6, 22992, Note_on_c, 4, 50, 0
6, 22992, Note_on_c, 4, 52, 100
6, 23040, Note_on_c, 4, 52, 0
6, 23040, Note_on_c, 4, 43, 100
6, 23232, Note_on_c, 4, 43, 0
6, 23232, Note_on_c, 4, 43, 100
6, 23424, Note_on_c, 4, 43, 0
6, 23424, Note_on_c, 4, 43, 100
6, 23616, Note_on_c, 4, 43, 0
6, 23616, Note_on_c, 4, 54, 100
6, 23712, Note_on_c, 4, 54, 0
6, 23712, Note_on_c, 4, 55, 100
6, 23760, Note_on_c, 4, 55, 0
6, 23760, Note_on_c, 4, 57, 100
6, 23808, Note_on_c, 4, 57, 0
6, 23808, Note_on_c, 4, 43, 100
6, 24000, Note_on_c, 4, 43, 0
6, 24000, Note_on_c, 4, 43, 100
6, 24192, Note_on_c, 4, 43, 0
6, 24192, Note_on_c, 4, 43, 100
6, 24384, Note_on_c, 4, 43, 0
6, 24384, Note_on_c, 4, 55, 100
6, 24480, Note_on_c, 4, 55, 0
6, 24480, Note_on_c, 4, 57, 100
6, 24528, Note_on_c, 4, 57, 0
6, 24528, Note_on_c, 4, 59, 100
6, 24576, Note_on_c, 4, 59, 0
6, 24576, Note_on_c, 4, 52, 100
6, 24768, Note_on_c, 4, 52, 0
6, 24768, Note_on_c, 4, 52, 100
6, 24960, Note_on_c, 4, 52, 0
6, 24960, Note_on_c, 4, 52, 100
6, 25152, Note_on_c, 4, 52, 0
6, 25152, Note_on_c, 4, 55, 100
6, 25248, Note_on_c, 4, 55, 0
6, 25248, Note_on_c, 4, 57, 100
6, 25296, Note_on_c, 4, 57, 0
6, 25296, Note_on_c, 4, 58, 100
6, 25344, Note_on_c, 4, 58, 0
6, 25344, Note_on_c, 4, 49, 100
6, 25536, Note_on_c, 4, 49, 0
6, 25536, Note_on_c, 4, 49, 100
6, 25728, Note_on_c, 4, 49, 0
6, 25728, Note_on_c, 4, 49, 100
6, 25920, Note_on_c, 4, 49, 0
6, 25920, Note_on_c, 4, 52, 100
6, 26016, Note_on_c, 4, 52, 0
6, 26016, Note_on_c, 4, 53, 100
6, 26064, Note_on_c, 4, 53, 0
6, 26064, Note_on_c, 4, 55, 100
6, 26112, Note_on_c, 4, 55, 0
6, 26112, Note_on_c, 4, 45, 100
6, 26304, Note_on_c, 4, 45, 0
6, 26304, Note_on_c, 4, 45, 100
6, 26496, Note_on_c, 4, 45, 0
6, 26496, Note_on_c, 4, 45, 100
6, 26688, Note_on_c, 4, 45, 0
6, 26688, Note_on_c, 4, 49, 100
6, 26784, Note_on_c, 4, 49, 0
6, 26784, Note_on_c, 4, 50, 100
6, 26832, Note_on_c, 4, 50, 0
6, 26832, Note_on_c, 4, 52, 100
6, 26880, Note_on_c, 4, 52, 0
6, 26880, Note_on_c, 4, 38, 100
6, 27264, Note_on_c, 4, 38, 0
6, 30720, Note_on_c, 4, 50, 100
6, 30912, Note_on_c, 4, 50, 0
6, 30912, Note_on_c, 4, 50, 100
6, 31104, Note_on_c, 4, 50, 0
6, 31104, Note_on_c, 4, 50, 100
6, 31296, Note_on_c, 4, 50, 0
6, 31296, Note_on_c, 4, 53, 100
6, 31392, Note_on_c, 4, 53, 0
6, 31392, Note_on_c, 4, 55, 100
6, 31440, Note_on_c, 4, 55, 0
6, 31440, Note_on_c, 4, 57, 100
6, 31488, Note_on_c, 4, 57, 0
6, 31488, Note_on_c, 4, 50, 100
6, 31680, Note_on_c, 4, 50, 0
6, 31680, Note_on_c, 4, 50, 100
6, 31872, Note_on_c, 4, 50, 0
6, 31872, Note_on_c, 4, 50, 100
6, 32064, Note_on_c, 4, 50, 0
6, 32064, Note_on_c, 4, 55, 100
6, 32160, Note_on_c, 4, 55, 0
6, 32160, Note_on_c, 4, 57, 100
6, 32208, Note_on_c, 4, 57, 0
6, 32208, Note_on_c, 4, 58, 100
6, 32256, Note_on_c, 4, 58, 0
6, 32256, Note_on_c, 4, 50, 100
6, 32448, Note_on_c, 4, 50, 0
6, 32448, Note_on_c, 4, 50, 100
6, 32640, Note_on_c, 4, 50, 0
6, 32640, Note_on_c, 4, 50, 100
6, 32832, Note_on_c, 4, 50, 0
6, 32832, Note_on_c, 4, 61, 100
6, 32928, Note_on_c, 4, 61, 0
6, 32928, Note_on_c, 4, 62, 100
6, 32976, Note_on_c, 4, 62, 0
6, 32976, Note_on_c, 4, 64, 100
6, 33024, Note_on_c, 4, 64, 0
6, 33024, Note_on_c, 4, 50, 100
6, 33216, Note_on_c, 4, 50, 0
6, 33216, Note_on_c, 4, 50, 100
6, 33408, Note_on_c, 4, 50, 0
6, 33408, Note_on_c, 4, 50, 100
6, 33600, Note_on_c, 4, 50, 0
6, 33600, Note_on_c, 4, 57, 100
6, 33696, Note_on_c, 4, 57, 0
6, 33696, Note_on_c, 4, 59, 100
6, 33744, Note_on_c, 4, 59, 0
6, 33744, Note_on_c, 4, 61, 100
6, 33792, Note_on_c, 4, 61, 0
6, 33792, Note_on_c, 4, 50, 100
6, 34176, Note_on_c, 4, 50, 0
6, 36864, Note_on_c, 4, 45, 100
6, 37056, Note_on_c, 4, 45, 0
6, 37056, Note_on_c, 4, 45, 100
6, 37248, Note_on_c, 4, 45, 0
6, 37248, Note_on_c, 4, 45, 100
6, 37440, Note_on_c, 4, 45, 0
6, 37440, Note_on_c, 4, 49, 100
6, 37536, Note_on_c, 4, 49, 0
6, 37536, Note_on_c, 4, 50, 100
6, 37584, Note_on_c, 4, 50, 0
6, 37584, Note_on_c, 4, 52, 100
6, 37632, Note_on_c, 4, 52, 0
6, 37632, Note_on_c, 4, 45, 100
6, 37824, Note_on_c, 4, 45, 0
6, 37824, Note_on_c, 4, 45, 100
6, 38016, Note_on_c, 4, 45, 0
6, 38016, Note_on_c, 4, 45, 100
6, 38208, Note_on_c, 4, 45, 0
6, 38208, Note_on_c, 4, 50, 100
6, 38304, Note_on_c, 4, 50, 0
6, 38304, Note_on_c, 4, 52, 100
6, 38352, Note_on_c, 4, 52, 0
6, 38352, Note_on_c, 4, 53, 100
6, 38400, Note_on_c, 4, 53, 0
6, 38400, Note_on_c, 4, 45, 100
6, 38592, Note_on_c, 4, 45, 0
6, 38592, Note_on_c, 4, 45, 100
6, 38784, Note_on_c, 4, 45, 0
6, 38784, Note_on_c, 4, 45, 100
6, 38976, Note_on_c, 4, 45, 0
6, 38976, Note_on_c, 4, 56, 100
6, 39072, Note_on_c, 4, 56, 0
6, 39072, Note_on_c, 4, 57, 100
6, 39120, Note_on_c, 4, 57, 0
6, 39120, Note_on_c, 4, 59, 100
6, 39168, Note_on_c, 4, 59, 0
6, 39168, Note_on_c, 4, 45, 100
6, 39552, Note_on_c, 4, 45, 0
6, 42432, Note_on_c, 4, 57, 100
6, 42528, Note_on_c, 4, 57, 0
6, 42528, Note_on_c, 4, 58, 100
6, 42624, Note_on_c, 4, 58, 0
6, 42624, Note_on_c, 4, 57, 100
6, 42720, Note_on_c, 4, 57, 0
6, 42720, Note_on_c, 4, 55, 100
6, 42816, Note_on_c, 4, 55, 0
6, 42816, Note_on_c, 4, 53, 100
6, 42912, Note_on_c, 4, 53, 0
6, 42912, Note_on_c, 4, 52, 100
6, 43008, Note_on_c, 4, 52, 0
6, 43008, Note_on_c, 4, 50, 100
6, 43200, Note_on_c, 4, 50, 0
6, 43200, Note_on_c, 4, 50, 100
6, 43392, Note_on_c, 4, 50, 0
6, 43392, Note_on_c, 4, 50, 100
6, 43584, Note_on_c, 4, 50, 0
6, 43584, Note_on_c, 4, 56, 100
6, 43680, Note_on_c, 4, 56, 0
6, 43680, Note_on_c, 4, 57, 100
6, 43728, Note_on_c, 4, 57, 0
6, 43728, Note_on_c, 4, 59, 100
6, 43776, Note_on_c, 4, 59, 0
6, 43776, Note_on_c, 4, 48, 100
6, 43968, Note_on_c, 4, 48, 0
6, 43968, Note_on_c, 4, 48, 100
6, 44160, Note_on_c, 4, 48, 0
6, 44160, Note_on_c, 4, 48, 100
6, 44352, Note_on_c, 4, 48, 0
6, 44352, Note_on_c, 4, 54, 100
6, 44448, Note_on_c, 4, 54, 0
6, 44448, Note_on_c, 4, 56, 100
6, 44496, Note_on_c, 4, 56, 0
6, 44496, Note_on_c, 4, 57, 100
6, 44544, Note_on_c, 4, 57, 0
6, 44544, Note_on_c, 4, 47, 100
6, 44736, Note_on_c, 4, 47, 0
6, 44736, Note_on_c, 4, 47, 100
6, 44928, Note_on_c, 4, 47, 0
6, 44928, Note_on_c, 4, 47, 100
6, 45120, Note_on_c, 4, 47, 0
6, 45120, Note_on_c, 4, 52, 100
6, 45216, Note_on_c, 4, 52, 0
6, 45216, Note_on_c, 4, 54, 100
6, 45264, Note_on_c, 4, 54, 0
6, 45264, Note_on_c, 4, 56, 100
6, 45312, Note_on_c, 4, 56, 0
6, 45312, Note_on_c, 4, 45, 100
6, 45504, Note_on_c, 4, 45, 0
6, 49152, Note_on_c, 4, 50, 100
6, 49344, Note_on_c, 4, 50, 0
6, 49344, Note_on_c, 4, 50, 100
6, 49536, Note_on_c, 4, 50, 0
6, 49536, Note_on_c, 4, 50, 100
6, 49728, Note_on_c, 4, 50, 0
6, 49728, Note_on_c, 4, 53, 100
6, 49824, Note_on_c, 4, 53, 0
6, 49824, Note_on_c, 4, 55, 100
6, 49872, Note_on_c, 4, 55, 0
6, 49872, Note_on_c, 4, 56, 100
6, 49920, Note_on_c, 4, 56, 0
6, 49920, Note_on_c, 4, 47, 100
6, 50112, Note_on_c, 4, 47, 0
6, 50112, Note_on_c, 4, 47, 100
6, 50304, Note_on_c, 4, 47, 0
6, 50304, Note_on_c, 4, 47, 100
6, 50496, Note_on_c, 4, 47, 0
6, 50496, Note_on_c, 4, 50, 100
6, 50592, Note_on_c, 4, 50, 0
6, 50592, Note_on_c, 4, 51, 100
6, 50640, Note_on_c, 4, 51, 0
6, 50640, Note_on_c, 4, 53, 100
6, 50688, Note_on_c, 4, 53, 0
6, 50688, Note_on_c, 4, 43, 100
6, 50880, Note_on_c, 4, 43, 0
6, 50880, Note_on_c, 4, 43, 100
6, 51072, Note_on_c, 4, 43, 0
6, 51072, Note_on_c, 4, 43, 100
6, 51264, Note_on_c, 4, 43, 0
6, 51264, Note_on_c, 4, 47, 100
6, 51360, Note_on_c, 4, 47, 0
6, 51360, Note_on_c, 4, 48, 100
6, 51408, Note_on_c, 4, 48, 0
6, 51408, Note_on_c, 4, 50, 100
6, 51456, Note_on_c, 4, 50, 0
6, 51456, Note_on_c, 4, 36, 100
6, 51840, Note_on_c, 4, 36, 0
6, 54720, Note_on_c, 4, 55, 100
6, 54816, Note_on_c, 4, 55, 0
6, 54816, Note_on_c, 4, 57, 100
6, 54912, Note_on_c, 4, 57, 0
6, 54912, Note_on_c, 4, 55, 100
6, 55008, Note_on_c, 4, 55, 0
6, 55008, Note_on_c, 4, 53, 100
6, 55104, Note_on_c, 4, 53, 0
6, 55104, Note_on_c, 4, 52, 100
6, 55200, Note_on_c, 4, 52, 0
6, 55200, Note_on_c, 4, 50, 100
6, 55296, Note_on_c, 4, 50, 0
6, 55296, Note_on_c, 4, 48, 100
6, 55488, Note_on_c, 4, 48, 0
6, 55488, Note_on_c, 4, 48, 100
6, 55680, Note_on_c, 4, 48, 0
6, 55680, Note_on_c, 4, 48, 100
6, 55872, Note_on_c, 4, 48, 0
6, 55872, Note_on_c, 4, 52, 100
6, 55968, Note_on_c, 4, 52, 0
6, 55968, Note_on_c, 4, 53, 100
6, 56016, Note_on_c, 4, 53, 0
6, 56016, Note_on_c, 4, 55, 100
6, 56064, Note_on_c, 4, 55, 0
6, 56064, Note_on_c, 4, 48, 100
6, 56256, Note_on_c, 4, 48, 0
6, 56256, Note_on_c, 4, 48, 100
6, 56448, Note_on_c, 4, 48, 0
6, 56448, Note_on_c, 4, 48, 100
6, 56640, Note_on_c, 4, 48, 0
6, 56640, Note_on_c, 4, 53, 100
6, 56736, Note_on_c, 4, 53, 0
6, 56736, Note_on_c, 4, 55, 100
6, 56784, Note_on_c, 4, 55, 0
6, 56784, Note_on_c, 4, 57, 100
6, 56832, Note_on_c, 4, 57, 0
6, 56832, Note_on_c, 4, 48, 100
6, 57024, Note_on_c, 4, 48, 0
6, 57024, Note_on_c, 4, 48, 100
6, 57216, Note_on_c, 4, 48, 0
6, 57216, Note_on_c, 4, 48, 100
6, 57408, Note_on_c, 4, 48, 0
6, 57408, Note_on_c, 4, 59, 100
6, 57504, Note_on_c, 4, 59, 0
6, 57504, Note_on_c, 4, 60, 100
6, 57552, Note_on_c, 4, 60, 0
6, 57552, Note_on_c, 4, 62, 100
6, 57600, Note_on_c, 4, 62, 0
6, 57600, Note_on_c, 4, 48, 100
6, 57792, Note_on_c, 4, 48, 0
6, 57792, Note_on_c, 4, 48, 100
6, 57984, Note_on_c, 4, 48, 0
6, 57984, Note_on_c, 4, 48, 100
6, 58176, Note_on_c, 4, 48, 0
6, 58176, Note_on_c, 4, 60, 100
6, 58272, Note_on_c, 4, 60, 0
6, 58272, Note_on_c, 4, 62, 100
6, 58320, Note_on_c, 4, 62, 0
6, 58320, Note_on_c, 4, 64, 100
6, 58368, Note_on_c, 4, 64, 0
6, 58368, Note_on_c, 4, 53, 100
6, 58752, Note_on_c, 4, 53, 0
6, 63840, Note_on_c, 4, 60, 100
6, 63936, Note_on_c, 4, 60, 0
6, 63936, Note_on_c, 4, 59, 100
6, 64032, Note_on_c, 4, 59, 0
6, 64032, Note_on_c, 4, 57, 100
6, 64128, Note_on_c, 4, 57, 0
6, 64128, Note_on_c, 4, 55, 100
6, 64224, Note_on_c, 4, 55, 0
6, 64224, Note_on_c, 4, 53, 100
6, 64320, Note_on_c, 4, 53, 0
6, 64320, Note_on_c, 4, 52, 100
6, 64416, Note_on_c, 4, 52, 0
6, 64416, Note_on_c, 4, 50, 100
6, 64512, Note_on_c, 4, 50, 0
6, 64512, Note_on_c, 4, 48, 100
6, 64704, Note_on_c, 4, 48, 0
6, 64704, Note_on_c, 4, 48, 100
6, 64896, Note_on_c, 4, 48, 0
6, 64896, Note_on_c, 4, 48, 100
6, 65088, Note_on_c, 4, 48, 0
6, 65088, Note_on_c, 4, 52, 100
6, 65184, Note_on_c, 4, 52, 0
6, 65184, Note_on_c, 4, 53, 100
6, 65232, Note_on_c, 4, 53, 0
6, 65232, Note_on_c, 4, 55, 100
6, 65280, Note_on_c, 4, 55, 0
6, 65280, Note_on_c, 4, 48, 100
6, 65472, Note_on_c, 4, 48, 0
6, 65472, Note_on_c, 4, 48, 100
6, 65664, Note_on_c, 4, 48, 0
6, 65664, Note_on_c, 4, 48, 100
6, 65856, Note_on_c, 4, 48, 0
6, 65856, Note_on_c, 4, 53, 100
6, 65952, Note_on_c, 4, 53, 0
6, 65952, Note_on_c, 4, 55, 100
6, 66000, Note_on_c, 4, 55, 0
6, 66000, Note_on_c, 4, 57, 100
6, 66048, Note_on_c, 4, 57, 0
6, 66048, Note_on_c, 4, 48, 100
6, 66240, Note_on_c, 4, 48, 0
6, 66240, Note_on_c, 4, 48, 100
6, 66432, Note_on_c, 4, 48, 0
6, 66432, Note_on_c, 4, 48, 100
6, 66624, Note_on_c, 4, 48, 0
6, 66624, Note_on_c, 4, 59, 100
6, 66720, Note_on_c, 4, 59, 0
6, 66720, Note_on_c, 4, 60, 100
6, 66768, Note_on_c, 4, 60, 0
6, 66768, Note_on_c, 4, 62, 100
6, 66816, Note_on_c, 4, 62, 0
6, 66816, Note_on_c, 4, 48, 100
6, 67008, Note_on_c, 4, 48, 0
6, 67008, Note_on_c, 4, 48, 100
6, 67200, Note_on_c, 4, 48, 0
6, 67200, Note_on_c, 4, 48, 100
6, 67392, Note_on_c, 4, 48, 0
6, 67392, Note_on_c, 4, 60, 100
6, 67488, Note_on_c, 4, 60, 0
6, 67488, Note_on_c, 4, 62, 100
6, 67536, Note_on_c, 4, 62, 0
6, 67536, Note_on_c, 4, 64, 100
6, 67584, Note_on_c, 4, 64, 0
6, 67584, Note_on_c, 4, 53, 100
6, 67776, Note_on_c, 4, 53, 0
6, 67776, Note_on_c, 4, 53, 100
6, 67968, Note_on_c, 4, 53, 0
6, 67968, Note_on_c, 4, 53, 100
6, 68160, Note_on_c, 4, 53, 0
6, 68160, Note_on_c, 4, 59, 100
6, 68256, Note_on_c, 4, 59, 0
6, 68256, Note_on_c, 4, 60, 100
6, 68304, Note_on_c, 4, 60, 0
6, 68304, Note_on_c, 4, 62, 100
6, 68352, Note_on_c, 4, 62, 0
6, 68352, Note_on_c, 4, 52, 100
6, 68544, Note_on_c, 4, 52, 0
6, 68544, Note_on_c, 4, 52, 100
6, 68736, Note_on_c, 4, 52, 0
6, 68736, Note_on_c, 4, 52, 100
6, 68928, Note_on_c, 4, 52, 0
6, 68928, Note_on_c, 4, 57, 100
6, 69024, Note_on_c, 4, 57, 0
6, 69024, Note_on_c, 4, 59, 100
6, 69072, Note_on_c, 4, 59, 0
6, 69072, Note_on_c, 4, 60, 100
6, 69120, Note_on_c, 4, 60, 0
6, 69120, Note_on_c, 4, 50, 100
6, 69312, Note_on_c, 4, 50, 0
6, 69312, Note_on_c, 4, 48, 100
6, 69504, Note_on_c, 4, 48, 0
6, 69504, Note_on_c, 4, 55, 100
6, 69696, Note_on_c, 4, 55, 0
6, 69696, Note_on_c, 4, 43, 100
6, 69888, Note_on_c, 4, 43, 0
6, 69888, Note_on_c, 4, 36, 100
6, 70656, Note_on_c, 4, 36, 0
6, 70656, End_track
7, 0, Start_track
7, 0, MIDI_port, 0
7, 0, Title_t, "Violone"
7, 0, Program_c, 5, 43
7, 0, Control_c, 5, 7, 100
7, 0, Control_c, 5, 10, 64
7, 7, Note_on_c, 5, 36, 100
7, 192, Note_on_c, 5, 36, 100
7, 199, Note_on_c, 5, 36, 0
7, 384, Note_on_c, 5, 36, 0
7, 384, Note_on_c, 5, 36, 100
7, 576, Note_on_c, 5, 36, 0
7, 576, Note_on_c, 5, 40, 100
7, 672, Note_on_c, 5, 40, 0
7, 672, Note_on_c, 5, 41, 100
7, 720, Note_on_c, 5, 41, 0
7, 720, Note_on_c, 5, 43, 100
7, 768, Note_on_c, 5, 43, 0
7, 768, Note_on_c, 5, 36, 100
7, 960, Note_on_c, 5, 36, 0
7, 960, Note_on_c, 5, 36, 100
7, 1152, Note_on_c, 5, 36, 0
7, 1152, Note_on_c, 5, 36, 100
7, 1344, Note_on_c, 5, 36, 0
7, 1344, Note_on_c, 5, 41, 100
7, 1440, Note_on_c, 5, 41, 0
7, 1440, Note_on_c, 5, 43, 100
7, 1488, Note_on_c, 5, 43, 0
7, 1488, Note_on_c, 5, 45, 100
7, 1536, Note_on_c, 5, 45, 0
7, 1536, Note_on_c, 5, 36, 100
7, 1728, Note_on_c, 5, 36, 0
7, 1728, Note_on_c, 5, 36, 100
7, 1920, Note_on_c, 5, 36, 0
7, 1920, Note_on_c, 5, 36, 100
7, 2112, Note_on_c, 5, 36, 0
7, 2112, Note_on_c, 5, 47, 100
7, 2208, Note_on_c, 5, 47, 0
7, 2208, Note_on_c, 5, 48, 100
7, 2256, Note_on_c, 5, 48, 0
7, 2256, Note_on_c, 5, 50, 100
7, 2304, Note_on_c, 5, 50, 0
7, 2304, Note_on_c, 5, 36, 100
7, 2496, Note_on_c, 5, 36, 0
7, 2496, Note_on_c, 5, 36, 100
7, 2688, Note_on_c, 5, 36, 0
7, 2688, Note_on_c, 5, 36, 100
7, 2880, Note_on_c, 5, 36, 0
7, 2880, Note_on_c, 5, 43, 100
7, 2976, Note_on_c, 5, 43, 0
7, 2976, Note_on_c, 5, 45, 100
7, 3024, Note_on_c, 5, 45, 0
7, 3024, Note_on_c, 5, 47, 100
7, 3072, Note_on_c, 5, 47, 0
7, 3072, Note_on_c, 5, 36, 100
7, 3264, Note_on_c, 5, 36, 0
7, 3264, Note_on_c, 5, 36, 100
7, 3456, Note_on_c, 5, 36, 0
7, 3456, Note_on_c, 5, 36, 100
7, 3648, Note_on_c, 5, 36, 0
7, 3648, Note_on_c, 5, 42, 100
7, 3744, Note_on_c, 5, 42, 0
7, 3744, Note_on_c, 5, 43, 100
7, 3792, Note_on_c, 5, 43, 0
7, 3792, Note_on_c, 5, 45, 100
7, 3840, Note_on_c, 5, 45, 0
7, 3840, Note_on_c, 5, 35, 100
7, 4032, Note_on_c, 5, 35, 0
7, 4032, Note_on_c, 5, 35, 100
7, 4224, Note_on_c, 5, 35, 0
7, 4224, Note_on_c, 5, 35, 100
7, 4416, Note_on_c, 5, 35, 0
7, 4416, Note_on_c, 5, 40, 100
7, 4512, Note_on_c, 5, 40, 0
7, 4512, Note_on_c, 5, 42, 100
7, 4560, Note_on_c, 5, 42, 0
7, 4560, Note_on_c, 5, 43, 100
7, 4608, Note_on_c, 5, 43, 0
7, 4608, Note_on_c, 5, 33, 100
7, 4800, Note_on_c, 5, 33, 0
7, 4800, Note_on_c, 5, 33, 100
7, 4992, Note_on_c, 5, 33, 0
7, 4992, Note_on_c, 5, 33, 100
7, 5184, Note_on_c, 5, 33, 0
7, 5184, Note_on_c, 5, 38, 100
7, 5280, Note_on_c, 5, 38, 0
7, 5280, Note_on_c, 5, 40, 100
7, 5328, Note_on_c, 5, 40, 0
7, 5328, Note_on_c, 5, 42, 100
7, 5376, Note_on_c, 5, 42, 0
7, 5376, Note_on_c, 5, 31, 100
7, 5760, Note_on_c, 5, 31, 0
7, 9216, Note_on_c, 5, 36, 100
7, 9408, Note_on_c, 5, 36, 0
7, 9408, Note_on_c, 5, 36, 100
7, 9600, Note_on_c, 5, 36, 0
7, 9600, Note_on_c, 5, 36, 100
7, 9792, Note_on_c, 5, 36, 0
7, 9792, Note_on_c, 5, 40, 100
7, 9888, Note_on_c, 5, 40, 0
7, 9888, Note_on_c, 5, 41, 100
7, 9936, Note_on_c, 5, 41, 0
7, 9936, Note_on_c, 5, 43, 100
7, 9984, Note_on_c, 5, 43, 0
7, 9984, Note_on_c, 5, 36, 100
7, 10176, Note_on_c, 5, 36, 0
7, 10176, Note_on_c, 5, 36, 100
7, 10368, Note_on_c, 5, 36, 0
7, 10368, Note_on_c, 5, 36, 100
7, 10560, Note_on_c, 5, 36, 0
7, 10560, Note_on_c, 5, 41, 100
7, 10656, Note_on_c, 5, 41, 0
7, 10656, Note_on_c, 5, 43, 100
7, 10704, Note_on_c, 5, 43, 0
7, 10704, Note_on_c, 5, 45, 100
7, 10752, Note_on_c, 5, 45, 0
7, 10752, Note_on_c, 5, 36, 100
7, 10944, Note_on_c, 5, 36, 0
7, 10944, Note_on_c, 5, 36, 100
7, 11136, Note_on_c, 5, 36, 0
7, 11136, Note_on_c, 5, 36, 100
7, 11328, Note_on_c, 5, 36, 0
7, 11328, Note_on_c, 5, 47, 100
7, 11424, Note_on_c, 5, 47, 0
7, 11424, Note_on_c, 5, 48, 100
7, 11472, Note_on_c, 5, 48, 0
7, 11472, Note_on_c, 5, 50, 100
7, 11520, Note_on_c, 5, 50, 0
7, 11520, Note_on_c, 5, 36, 100
7, 11712, Note_on_c, 5, 36, 0
7, 11712, Note_on_c, 5, 36, 100
7, 11904, Note_on_c, 5, 36, 0
7, 11904, Note_on_c, 5, 36, 100
7, 12096, Note_on_c, 5, 36, 0
7, 12096, Note_on_c, 5, 43, 100
7, 12192, Note_on_c, 5, 43, 0
7, 12192, Note_on_c, 5, 45, 100
7, 12240, Note_on_c, 5, 45, 0
7, 12240, Note_on_c, 5, 47, 100
7, 12288, Note_on_c, 5, 47, 0
7, 12288, Note_on_c, 5, 36, 100
7, 12480, Note_on_c, 5, 36, 0
7, 15360, Note_on_c, 5, 31, 100
7, 15552, Note_on_c, 5, 31, 0
7, 15552, Note_on_c, 5, 31, 100
7, 15744, Note_on_c, 5, 31, 0
7, 15744, Note_on_c, 5, 31, 100
7, 15936, Note_on_c, 5, 31, 0
7, 15936, Note_on_c, 5, 35, 100
7, 16032, Note_on_c, 5, 35, 0
7, 16032, Note_on_c, 5, 36, 100
7, 16080, Note_on_c, 5, 36, 0
7, 16080, Note_on_c, 5, 38, 100
7, 16128, Note_on_c, 5, 38, 0
7, 16128, Note_on_c, 5, 31, 100
7, 16320, Note_on_c, 5, 31, 0
7, 16320, Note_on_c, 5, 31, 100
7, 16512, Note_on_c, 5, 31, 0
7, 16512, Note_on_c, 5, 31, 100
7, 16704, Note_on_c, 5, 31, 0
7, 16704, Note_on_c, 5, 36, 100
7, 16800, Note_on_c, 5, 36, 0
7, 16800, Note_on_c, 5, 38, 100
7, 16848, Note_on_c, 5, 38, 0
7, 16848, Note_on_c, 5, 40, 100
7, 16896, Note_on_c, 5, 40, 0
7, 16896, Note_on_c, 5, 31, 100
7, 17088, Note_on_c, 5, 31, 0
7, 17088, Note_on_c, 5, 31, 100
7, 17280, Note_on_c, 5, 31, 0
7, 17280, Note_on_c, 5, 31, 100
7, 17472, Note_on_c, 5, 31, 0
7, 17472, Note_on_c, 5, 42, 100
7, 17568, Note_on_c, 5, 42, 0
7, 17568, Note_on_c, 5, 43, 100
7, 17616, Note_on_c, 5, 43, 0
7, 17616, Note_on_c, 5, 45, 100
7, 17664, Note_on_c, 5, 45, 0
7, 17664, Note_on_c, 5, 31, 100
7, 18048, Note_on_c, 5, 31, 0
7, 21504, Note_on_c, 5, 31, 100
7, 21696, Note_on_c, 5, 31, 0
7, 21696, Note_on_c, 5, 31, 100
7, 21888, Note_on_c, 5, 31, 0
7, 21888, Note_on_c, 5, 31, 100
7, 22080, Note_on_c, 5, 31, 0
7, 22080, Note_on_c, 5, 35, 100
7, 22176, Note_on_c, 5, 35, 0
7, 22176, Note_on_c, 5, 36, 100
7, 22224, Note_on_c, 5, 36, 0
7, 22224, Note_on_c, 5, 38, 100
7, 22272, Note_on_c, 5, 38, 0
7, 22272, Note_on_c, 5, 31, 100
7, 22464, Note_on_c, 5, 31, 0
7, 22464, Note_on_c, 5, 31, 100
7, 22656, Note_on_c, 5, 31, 0
7, 22656, Note_on_c, 5, 31, 100
7, 22848, Note_on_c, 5, 31, 0
7, 22848, Note_on_c, 5, 36, 100
7, 22944, Note_on_c, 5, 36, 0
7, 22944, Note_on_c, 5, 38, 100
7, 22992, Note_on_c, 5, 38, 0
7, 22992, Note_on_c, 5, 40, 100
7, 23040, Note_on_c, 5, 40, 0
7, 23040, Note_on_c, 5, 31, 100
7, 23232, Note_on_c, 5, 31, 0
7, 23232, Note_on_c, 5, 31, 100
7, 23424, Note_on_c, 5, 31, 0
7, 23424, Note_on_c, 5, 31, 100
7, 23616, Note_on_c, 5, 31, 0
7, 23616, Note_on_c, 5, 42, 100
7, 23712, Note_on_c, 5, 42, 0
7, 23712, Note_on_c, 5, 43, 100
7, 23760, Note_on_c, 5, 43, 0
7, 23760, Note_on_c, 5, 45, 100
7, 23808, Note_on_c, 5, 45, 0
7, 23808, Note_on_c, 5, 31, 100
7, 24000, Note_on_c, 5, 31, 0
7, 24000, Note_on_c, 5, 31, 100
7, 24192, Note_on_c, 5, 31, 0
7, 24192, Note_on_c, 5, 31, 100
7, 24384, Note_on_c, 5, 31, 0
7, 24384, Note_on_c, 5, 43, 100
7, 24480, Note_on_c, 5, 43, 0
7, 24480, Note_on_c, 5, 45, 100
7, 24528, Note_on_c, 5, 45, 0
7, 24528, Note_on_c, 5, 47, 100
7, 24576, Note_on_c, 5, 47, 0
7, 24576, Note_on_c, 5, 40, 100
7, 24768, Note_on_c, 5, 40, 0
7, 24768, Note_on_c, 5, 40, 100
7, 24960, Note_on_c, 5, 40, 0
7, 24960, Note_on_c, 5, 40, 100
7, 25152, Note_on_c, 5, 40, 0
7, 25152, Note_on_c, 5, 43, 100
7, 25248, Note_on_c, 5, 43, 0
7, 25248, Note_on_c, 5, 45, 100
7, 25296, Note_on_c, 5, 45, 0
7, 25296, Note_on_c, 5, 46, 100
7, 25344, Note_on_c, 5, 46, 0
7, 25344, Note_on_c, 5, 37, 100
7, 25536, Note_on_c, 5, 37, 0
7, 25536, Note_on_c, 5, 37, 100
7, 25728, Note_on_c, 5, 37, 0
7, 25728, Note_on_c, 5, 37, 100
7, 25920, Note_on_c, 5, 37, 0
7, 25920, Note_on_c, 5, 40, 100
7, 26016, Note_on_c, 5, 40, 0
7, 26016, Note_on_c, 5, 41, 100
7, 26064, Note_on_c, 5, 41, 0
7, 26064, Note_on_c, 5, 43, 100
7, 26112, Note_on_c, 5, 43, 0
7, 26112, Note_on_c, 5, 33, 100
7, 26304, Note_on_c, 5, 33, 0
7, 26304, Note_on_c, 5, 33, 100
7, 26496, Note_on_c, 5, 33, 0
7, 26496, Note_on_c, 5, 33, 100
7, 26688, Note_on_c, 5, 33, 0
7, 26688, Note_on_c, 5, 37, 100
7, 26784, Note_on_c, 5, 37, 0
7, 26784, Note_on_c, 5, 38, 100
7, 26832, Note_on_c, 5, 38, 0
7, 26832, Note_on_c, 5, 40, 100
7, 26880, Note_on_c, 5, 40, 0
7, 26880, Note_on_c, 5, 26, 100
7, 27264, Note_on_c, 5, 26, 0
7, 30720, Note_on_c, 5, 38, 100
7, 30912, Note_on_c, 5, 38, 0
7, 30912, Note_on_c, 5, 38, 100
7, 31104, Note_on_c, 5, 38, 0
7, 31104, Note_on_c, 5, 38, 100
7, 31296, Note_on_c, 5, 38, 0
7, 31296, Note_on_c, 5, 41, 100
7, 31392, Note_on_c, 5, 41, 0
7, 31392, Note_on_c, 5, 43, 100
7, 31440, Note_on_c, 5, 43, 0
7, 31440, Note_on_c, 5, 45, 100
7, 31488, Note_on_c, 5, 45, 0
7, 31488, Note_on_c, 5, 38, 100
7, 31680, Note_on_c, 5, 38, 0
7, 31680, Note_on_c, 5, 38, 100
7, 31872, Note_on_c, 5, 38, 0
7, 31872, Note_on_c, 5, 38, 100
7, 32064, Note_on_c, 5, 38, 0
7, 32064, Note_on_c, 5, 43, 100
7, 32160, Note_on_c, 5, 43, 0
7, 32160, Note_on_c, 5, 45, 100
7, 32208, Note_on_c, 5, 45, 0
7, 32208, Note_on_c, 5, 46, 100
7, 32256, Note_on_c, 5, 46, 0
7, 32256, Note_on_c, 5, 38, 100
7, 32448, Note_on_c, 5, 38, 0
7, 32448, Note_on_c, 5, 38, 100
7, 32640, Note_on_c, 5, 38, 0
7, 32640, Note_on_c, 5, 38, 100
7, 32832, Note_on_c, 5, 38, 0
7, 32832, Note_on_c, 5, 49, 100
7, 32928, Note_on_c, 5, 49, 0
7, 32928, Note_on_c, 5, 50, 100
7, 32976, Note_on_c, 5, 50, 0
7, 32976, Note_on_c, 5, 52, 100
7, 33024, Note_on_c, 5, 52, 0
7, 33024, Note_on_c, 5, 38, 100
7, 33216, Note_on_c, 5, 38, 0
7, 33216, Note_on_c, 5, 38, 100
7, 33408, Note_on_c, 5, 38, 0
7, 33408, Note_on_c, 5, 38, 100
7, 33600, Note_on_c, 5, 38, 0
7, 33600, Note_on_c, 5, 45, 100
7, 33696, Note_on_c, 5, 45, 0
7, 33696, Note_on_c, 5, 47, 100
7, 33744, Note_on_c, 5, 47, 0
7, 33744, Note_on_c, 5, 49, 100
7, 33792, Note_on_c, 5, 49, 0
7, 33792, Note_on_c, 5, 38, 100
7, 34176, Note_on_c, 5, 38, 0
7, 36864, Note_on_c, 5, 33, 100
7, 37056, Note_on_c, 5, 33, 0
7, 37056, Note_on_c, 5, 33, 100
7, 37248, Note_on_c, 5, 33, 0
7, 37248, Note_on_c, 5, 33, 100
7, 37440, Note_on_c, 5, 33, 0
7, 37440, Note_on_c, 5, 37, 100
7, 37536, Note_on_c, 5, 37, 0
7, 37536, Note_on_c, 5, 38, 100
7, 37584, Note_on_c, 5, 38, 0
7, 37584, Note_on_c, 5, 40, 100
7, 37632, Note_on_c, 5, 40, 0
7, 37632, Note_on_c, 5, 33, 100
7, 37824, Note_on_c, 5, 33, 0
7, 37824, Note_on_c, 5, 33, 100
7, 38016, Note_on_c, 5, 33, 0
7, 38016, Note_on_c, 5, 33, 100
7, 38208, Note_on_c, 5, 33, 0
7, 38208, Note_on_c, 5, 38, 100
7, 38304, Note_on_c, 5, 38, 0
7, 38304, Note_on_c, 5, 40, 100
7, 38352, Note_on_c, 5, 40, 0
7, 38352, Note_on_c, 5, 41, 100
7, 38400, Note_on_c, 5, 41, 0
7, 38400, Note_on_c, 5, 33, 100
7, 38592, Note_on_c, 5, 33, 0
7, 38592, Note_on_c, 5, 33, 100
7, 38784, Note_on_c, 5, 33, 0
7, 38784, Note_on_c, 5, 33, 100
7, 38976, Note_on_c, 5, 33, 0
7, 38976, Note_on_c, 5, 44, 100
7, 39072, Note_on_c, 5, 44, 0
7, 39072, Note_on_c, 5, 45, 100
7, 39120, Note_on_c, 5, 45, 0
7, 39120, Note_on_c, 5, 47, 100
7, 39168, Note_on_c, 5, 47, 0
7, 39168, Note_on_c, 5, 33, 100
7, 39552, Note_on_c, 5, 33, 0
7, 42432, Note_on_c, 5, 45, 100
7, 42528, Note_on_c, 5, 45, 0
7, 42528, Note_on_c, 5, 46, 100
7, 42624, Note_on_c, 5, 46, 0
7, 42624, Note_on_c, 5, 45, 100
7, 42720, Note_on_c, 5, 45, 0
7, 42720, Note_on_c, 5, 43, 100
7, 42816, Note_on_c, 5, 43, 0
7, 42816, Note_on_c, 5, 41, 100
7, 42912, Note_on_c, 5, 41, 0
7, 42912, Note_on_c, 5, 40, 100
7, 43008, Note_on_c, 5, 40, 0
7, 43008, Note_on_c, 5, 38, 100
7, 43200, Note_on_c, 5, 38, 0
7, 43200, Note_on_c, 5, 38, 100
7, 43392, Note_on_c, 5, 38, 0
7, 43392, Note_on_c, 5, 38, 100
7, 43584, Note_on_c, 5, 38, 0
7, 43584, Note_on_c, 5, 44, 100
7, 43680, Note_on_c, 5, 44, 0
7, 43680, Note_on_c, 5, 45, 100
7, 43728, Note_on_c, 5, 45, 0
7, 43728, Note_on_c, 5, 47, 100
7, 43776, Note_on_c, 5, 47, 0
7, 43776, Note_on_c, 5, 36, 100
7, 43968, Note_on_c, 5, 36, 0
7, 43968, Note_on_c, 5, 36, 100
7, 44160, Note_on_c, 5, 36, 0
7, 44160, Note_on_c, 5, 36, 100
7, 44352, Note_on_c, 5, 36, 0
7, 44352, Note_on_c, 5, 42, 100
7, 44448, Note_on_c, 5, 42, 0
7, 44448, Note_on_c, 5, 44, 100
7, 44496, Note_on_c, 5, 44, 0
7, 44496, Note_on_c, 5, 45, 100
7, 44544, Note_on_c, 5, 45, 0
7, 44544, Note_on_c, 5, 35, 100
7, 44736, Note_on_c, 5, 35, 0
7, 44736, Note_on_c, 5, 35, 100
7, 44928, Note_on_c, 5, 35, 0
7, 44928, Note_on_c, 5, 35, 100
7, 45120, Note_on_c, 5, 35, 0
7, 45120, Note_on_c, 5, 40, 100
7, 45216, Note_on_c, 5, 40, 0
7, 45216, Note_on_c, 5, 42, 100
7, 45264, Note_on_c, 5, 42, 0
7, 45264, Note_on_c, 5, 44, 100
7, 45312, Note_on_c, 5, 44, 0
7, 45312, Note_on_c, 5, 33, 100
7, 45504, Note_on_c, 5, 33, 0
7, 49152, Note_on_c, 5, 38, 100
7, 49344, Note_on_c, 5, 38, 0
7, 49344, Note_on_c, 5, 38, 100
7, 49536, Note_on_c, 5, 38, 0
7, 49536, Note_on_c, 5, 38, 100
7, 49728, Note_on_c, 5, 38, 0
7, 49728, Note_on_c, 5, 41, 100
7, 49824, Note_on_c, 5, 41, 0
7, 49824, Note_on_c, 5, 43, 100
7, 49872, Note_on_c, 5, 43, 0
7, 49872, Note_on_c, 5, 44, 100
7, 49920, Note_on_c, 5, 44, 0
7, 49920, Note_on_c, 5, 35, 100
7, 50112, Note_on_c, 5, 35, 0
7, 50112, Note_on_c, 5, 35, 100
7, 50304, Note_on_c, 5, 35, 0
7, 50304, Note_on_c, 5, 35, 100
7, 50496, Note_on_c, 5, 35, 0
7, 50496, Note_on_c, 5, 38, 100
7, 50592, Note_on_c, 5, 38, 0
7, 50592, Note_on_c, 5, 39, 100
7, 50640, Note_on_c, 5, 39, 0
7, 50640, Note_on_c, 5, 41, 100
7, 50688, Note_on_c, 5, 41, 0
7, 50688, Note_on_c, 5, 31, 100
7, 50880, Note_on_c, 5, 31, 0
7, 50880, Note_on_c, 5, 31, 100
7, 51072, Note_on_c, 5, 31, 0
7, 51072, Note_on_c, 5, 31, 100
7, 51264, Note_on_c, 5, 31, 0
7, 51264, Note_on_c, 5, 35, 100
7, 51360, Note_on_c, 5, 35, 0
7, 51360, Note_on_c, 5, 36, 100
7, 51408, Note_on_c, 5, 36, 0
7, 51408, Note_on_c, 5, 38, 100
7, 51456, Note_on_c, 5, 38, 0
7, 51456, Note_on_c, 5, 24, 100
7, 51840, Note_on_c, 5, 24, 0
7, 54720, Note_on_c, 5, 43, 100
7, 54816, Note_on_c, 5, 43, 0
7, 54816, Note_on_c, 5, 45, 100
7, 54912, Note_on_c, 5, 45, 0
7, 54912, Note_on_c, 5, 43, 100
7, 55008, Note_on_c, 5, 43, 0
7, 55008, Note_on_c, 5, 41, 100
7, 55104, Note_on_c, 5, 41, 0
7, 55104, Note_on_c, 5, 40, 100
7, 55200, Note_on_c, 5, 40, 0
7, 55200, Note_on_c, 5, 38, 100
7, 55296, Note_on_c, 5, 38, 0
7, 55296, Note_on_c, 5, 36, 100
7, 55488, Note_on_c, 5, 36, 0
7, 55488, Note_on_c, 5, 36, 100
7, 55680, Note_on_c, 5, 36, 0
7, 55680, Note_on_c, 5, 36, 100
7, 55872, Note_on_c, 5, 36, 0
7, 55872, Note_on_c, 5, 40, 100
7, 55968, Note_on_c, 5, 40, 0
7, 55968, Note_on_c, 5, 41, 100
7, 56016, Note_on_c, 5, 41, 0
7, 56016, Note_on_c, 5, 43, 100
7, 56064, Note_on_c, 5, 43, 0
7, 56064, Note_on_c, 5, 36, 100
7, 56256, Note_on_c, 5, 36, 0
7, 56256, Note_on_c, 5, 36, 100
7, 56448, Note_on_c, 5, 36, 0
7, 56448, Note_on_c, 5, 36, 100
7, 56640, Note_on_c, 5, 36, 0
7, 56640, Note_on_c, 5, 41, 100
7, 56736, Note_on_c, 5, 41, 0
7, 56736, Note_on_c, 5, 43, 100
7, 56784, Note_on_c, 5, 43, 0
7, 56784, Note_on_c, 5, 45, 100
7, 56832, Note_on_c, 5, 45, 0
7, 56832, Note_on_c, 5, 36, 100
7, 57024, Note_on_c, 5, 36, 0
7, 57024, Note_on_c, 5, 36, 100
7, 57216, Note_on_c, 5, 36, 0
7, 57216, Note_on_c, 5, 36, 100
7, 57408, Note_on_c, 5, 36, 0
7, 57408, Note_on_c, 5, 47, 100
7, 57504, Note_on_c, 5, 47, 0
7, 57504, Note_on_c, 5, 48, 100
7, 57552, Note_on_c, 5, 48, 0
7, 57552, Note_on_c, 5, 50, 100
7, 57600, Note_on_c, 5, 50, 0
7, 57600, Note_on_c, 5, 36, 100
7, 57792, Note_on_c, 5, 36, 0
7, 57792, Note_on_c, 5, 36, 100
7, 57984, Note_on_c, 5, 36, 0
7, 57984, Note_on_c, 5, 36, 100
7, 58176, Note_on_c, 5, 36, 0
7, 58176, Note_on_c, 5, 48, 100
7, 58272, Note_on_c, 5, 48, 0
7, 58272, Note_on_c, 5, 50, 100
7, 58320, Note_on_c, 5, 50, 0
7, 58320, Note_on_c, 5, 52, 100
7, 58368, Note_on_c, 5, 52, 0
7, 58368, Note_on_c, 5, 41, 100
7, 58752, Note_on_c, 5, 41, 0
7, 63840, Note_on_c, 5, 48, 100
7, 63936, Note_on_c, 5, 48, 0
7, 63936, Note_on_c, 5, 47, 100
7, 64032, Note_on_c, 5, 47, 0
7, 64032, Note_on_c, 5, 45, 100
7, 64128, Note_on_c, 5, 45, 0
7, 64128, Note_on_c, 5, 43, 100
7, 64224, Note_on_c, 5, 43, 0
7, 64224, Note_on_c, 5, 41, 100
7, 64320, Note_on_c, 5, 41, 0
7, 64320, Note_on_c, 5, 40, 100
7, 64416, Note_on_c, 5, 40, 0
7, 64416, Note_on_c, 5, 38, 100
7, 64512, Note_on_c, 5, 38, 0
7, 64512, Note_on_c, 5, 36, 100
7, 64704, Note_on_c, 5, 36, 0
7, 64704, Note_on_c, 5, 36, 100
7, 64896, Note_on_c, 5, 36, 0
7, 64896, Note_on_c, 5, 36, 100
7, 65088, Note_on_c, 5, 36, 0
7, 65088, Note_on_c, 5, 40, 100
7, 65184, Note_on_c, 5, 40, 0
7, 65184, Note_on_c, 5, 41, 100
7, 65232, Note_on_c, 5, 41, 0
7, 65232, Note_on_c, 5, 43, 100
7, 65280, Note_on_c, 5, 43, 0
7, 65280, Note_on_c, 5, 36, 100
7, 65472, Note_on_c, 5, 36, 0
7, 65472, Note_on_c, 5, 36, 100
7, 65664, Note_on_c, 5, 36, 0
7, 65664, Note_on_c, 5, 36, 100
7, 65856, Note_on_c, 5, 36, 0
7, 65856, Note_on_c, 5, 41, 100
7, 65952, Note_on_c, 5, 41, 0
7, 65952, Note_on_c, 5, 43, 100
7, 66000, Note_on_c, 5, 43, 0
7, 66000, Note_on_c, 5, 45, 100
7, 66048, Note_on_c, 5, 45, 0
7, 66048, Note_on_c, 5, 36, 100
7, 66240, Note_on_c, 5, 36, 0
7, 66240, Note_on_c, 5, 36, 100
7, 66432, Note_on_c, 5, 36, 0
7, 66432, Note_on_c, 5, 36, 100
7, 66624, Note_on_c, 5, 36, 0
7, 66624, Note_on_c, 5, 47, 100
7, 66720, Note_on_c, 5, 47, 0
7, 66720, Note_on_c, 5, 48, 100
7, 66768, Note_on_c, 5, 48, 0
7, 66768, Note_on_c, 5, 50, 100
7, 66816, Note_on_c, 5, 50, 0
7, 66816, Note_on_c, 5, 36, 100
7, 67008, Note_on_c, 5, 36, 0
7, 67008, Note_on_c, 5, 36, 100
7, 67200, Note_on_c, 5, 36, 0
7, 67200, Note_on_c, 5, 36, 100
7, 67392, Note_on_c, 5, 36, 0
7, 67392, Note_on_c, 5, 48, 100
7, 67488, Note_on_c, 5, 48, 0
7, 67488, Note_on_c, 5, 50, 100
7, 67536, Note_on_c, 5, 50, 0
7, 67536, Note_on_c, 5, 52, 100
7, 67584, Note_on_c, 5, 52, 0
7, 67584, Note_on_c, 5, 41, 100
7, 67776, Note_on_c, 5, 41, 0
7, 67776, Note_on_c, 5, 41, 100
7, 67968, Note_on_c, 5, 41, 0
7, 67968, Note_on_c, 5, 41, 100
7, 68160, Note_on_c, 5, 41, 0
7, 68160, Note_on_c, 5, 47, 100
7, 68256, Note_on_c, 5, 47, 0
7, 68256, Note_on_c, 5, 48, 100
7, 68304, Note_on_c, 5, 48, 0
7, 68304, Note_on_c, 5, 50, 100
7, 68352, Note_on_c, 5, 50, 0
7, 68352, Note_on_c, 5, 40, 100
7, 68544, Note_on_c, 5, 40, 0
7, 68544, Note_on_c, 5, 40, 100
7, 68736, Note_on_c, 5, 40, 0
7, 68736, Note_on_c, 5, 40, 100
7, 68928, Note_on_c, 5, 40, 0
7, 68928, Note_on_c, 5, 45, 100
7, 69024, Note_on_c, 5, 45, 0
7, 69024, Note_on_c, 5, 47, 100
7, 69072, Note_on_c, 5, 47, 0
7, 69072, Note_on_c, 5, 48, 100
7, 69120, Note_on_c, 5, 48, 0
7, 69120, Note_on_c, 5, 38, 100
7, 69312, Note_on_c, 5, 38, 0
7, 69312, Note_on_c, 5, 36, 100
7, 69504, Note_on_c, 5, 36, 0
7, 69504, Note_on_c, 5, 43, 100
7, 69696, Note_on_c, 5, 43, 0
7, 69696, Note_on_c, 5, 31, 100
7, 69888, Note_on_c, 5, 31, 0
7, 69888, Note_on_c, 5, 24, 100
7, 70656, Note_on_c, 5, 24, 0
7, 70656, End_track
8, 0, Start_track
8, 0, MIDI_port, 0
8, 0, Title_t, "Harpsichord"
8, 0, Program_c, 6, 6
8, 0, Control_c, 6, 7, 90
8, 0, Control_c, 6, 10, 64
8, 7, Note_on_c, 6, 48, 100
8, 192, Note_on_c, 6, 48, 100
8, 199, Note_on_c, 6, 48, 0
8, 384, Note_on_c, 6, 48, 0
8, 384, Note_on_c, 6, 48, 100
8, 576, Note_on_c, 6, 48, 0
8, 576, Note_on_c, 6, 52, 100
8, 672, Note_on_c, 6, 52, 0
8, 672, Note_on_c, 6, 53, 100
8, 720, Note_on_c, 6, 53, 0
8, 720, Note_on_c, 6, 55, 100
8, 768, Note_on_c, 6, 55, 0
8, 768, Note_on_c, 6, 48, 100
8, 960, Note_on_c, 6, 48, 0
8, 960, Note_on_c, 6, 48, 100
8, 1152, Note_on_c, 6, 48, 0
8, 1152, Note_on_c, 6, 48, 100
8, 1344, Note_on_c, 6, 48, 0
8, 1344, Note_on_c, 6, 53, 100
8, 1440, Note_on_c, 6, 53, 0
8, 1440, Note_on_c, 6, 55, 100
8, 1488, Note_on_c, 6, 55, 0
8, 1488, Note_on_c, 6, 57, 100
8, 1536, Note_on_c, 6, 57, 0
8, 1536, Note_on_c, 6, 48, 100
8, 1728, Note_on_c, 6, 48, 0
8, 1728, Note_on_c, 6, 48, 100
8, 1920, Note_on_c, 6, 48, 0
8, 1920, Note_on_c, 6, 48, 100
8, 2112, Note_on_c, 6, 48, 0
8, 2112, Note_on_c, 6, 59, 100
8, 2208, Note_on_c, 6, 59, 0
8, 2208, Note_on_c, 6, 60, 100
8, 2256, Note_on_c, 6, 60, 0
8, 2256, Note_on_c, 6, 62, 100
8, 2304, Note_on_c, 6, 62, 0
8, 2304, Note_on_c, 6, 48, 100
8, 2496, Note_on_c, 6, 48, 0
8, 2496, Note_on_c, 6, 48, 100
8, 2688, Note_on_c, 6, 48, 0
8, 2688, Note_on_c, 6, 48, 100
8, 2880, Note_on_c, 6, 48, 0
8, 2880, Note_on_c, 6, 55, 100
8, 2976, Note_on_c, 6, 55, 0
8, 2976, Note_on_c, 6, 57, 100
8, 3024, Note_on_c, 6, 57, 0
8, 3024, Note_on_c, 6, 59, 100
8, 3072, Note_on_c, 6, 59, 0
8, 3072, Note_on_c, 6, 48, 100
8, 3264, Note_on_c, 6, 48, 0
8, 3264, Note_on_c, 6, 48, 100
8, 3456, Note_on_c, 6, 48, 0
8, 3456, Note_on_c, 6, 48, 100
8, 3648, Note_on_c, 6, 48, 0
8, 3648, Note_on_c, 6, 54, 100
8, 3744, Note_on_c, 6, 54, 0
8, 3744, Note_on_c, 6, 55, 100
8, 3792, Note_on_c, 6, 55, 0
8, 3792, Note_on_c, 6, 57, 100
8, 3840, Note_on_c, 6, 57, 0
8, 3840, Note_on_c, 6, 47, 100
8, 4032, Note_on_c, 6, 47, 0
8, 4032, Note_on_c, 6, 47, 100
8, 4224, Note_on_c, 6, 47, 0
8, 4224, Note_on_c, 6, 47, 100
8, 4416, Note_on_c, 6, 47, 0
8, 4416, Note_on_c, 6, 52, 100
8, 4512, Note_on_c, 6, 52, 0
8, 4512, Note_on_c, 6, 54, 100
8, 4560, Note_on_c, 6, 54, 0
8, 4560, Note_on_c, 6, 55, 100
8, 4608, Note_on_c, 6, 55, 0
8, 4608, Note_on_c, 6, 45, 100
8, 4800, Note_on_c, 6, 45, 0
8, 4800, Note_on_c, 6, 45, 100
8, 4992, Note_on_c, 6, 45, 0
8, 4992, Note_on_c, 6, 45, 100
8, 5184, Note_on_c, 6, 45, 0
8, 5184, Note_on_c, 6, 50, 100
8, 5280, Note_on_c, 6, 50, 0
8, 5280, Note_on_c, 6, 52, 100
8, 5328, Note_on_c, 6, 52, 0
8, 5328, Note_on_c, 6, 54, 100
8, 5376, Note_on_c, 6, 54, 0
8, 5376, Note_on_c, 6, 43, 100
8, 5760, Note_on_c, 6, 43, 0
8, 9216, Note_on_c, 6, 48, 100
8, 9408, Note_on_c, 6, 48, 0
8, 9408, Note_on_c, 6, 48, 100
8, 9600, Note_on_c, 6, 48, 0
8, 9600, Note_on_c, 6, 48, 100
8, 9792, Note_on_c, 6, 48, 0
8, 9792, Note_on_c, 6, 52, 100
8, 9888, Note_on_c, 6, 52, 0
8, 9888, Note_on_c, 6, 53, 100
8, 9936, Note_on_c, 6, 53, 0
8, 9936, Note_on_c, 6, 55, 100
8, 9984, Note_on_c, 6, 55, 0
8, 9984, Note_on_c, 6, 48, 100
8, 10176, Note_on_c, 6, 48, 0
8, 10176, Note_on_c, 6, 48, 100
8, 10368, Note_on_c, 6, 48, 0
8, 10368, Note_on_c, 6, 48, 100
8, 10560, Note_on_c, 6, 48, 0
8, 10560, Note_on_c, 6, 53, 100
8, 10656, Note_on_c, 6, 53, 0
8, 10656, Note_on_c, 6, 55, 100
8, 10704, Note_on_c, 6, 55, 0
8, 10704, Note_on_c, 6, 57, 100
8, 10752, Note_on_c, 6, 57, 0
8, 10752, Note_on_c, 6, 48, 100
8, 10944, Note_on_c, 6, 48, 0
8, 10944, Note_on_c, 6, 48, 100
8, 11136, Note_on_c, 6, 48, 0
8, 11136, Note_on_c, 6, 48, 100
8, 11328, Note_on_c, 6, 48, 0
8, 11328, Note_on_c, 6, 59, 100
8, 11424, Note_on_c, 6, 59, 0
8, 11424, Note_on_c, 6, 60, 100
8, 11472, Note_on_c, 6, 60, 0
8, 11472, Note_on_c, 6, 62, 100
8, 11520, Note_on_c, 6, 62, 0
8, 11520, Note_on_c, 6, 48, 100
8, 11712, Note_on_c, 6, 48, 0
8, 11712, Note_on_c, 6, 48, 100
8, 11904, Note_on_c, 6, 48, 0
8, 11904, Note_on_c, 6, 48, 100
8, 12096, Note_on_c, 6, 48, 0
8, 12096, Note_on_c, 6, 55, 100
8, 12192, Note_on_c, 6, 55, 0
8, 12192, Note_on_c, 6, 57, 100
8, 12240, Note_on_c, 6, 57, 0
8, 12240, Note_on_c, 6, 59, 100
8, 12288, Note_on_c, 6, 59, 0
8, 12288, Note_on_c, 6, 48, 100
8, 12480, Note_on_c, 6, 48, 0
8, 15360, Note_on_c, 6, 43, 100
8, 15552, Note_on_c, 6, 43, 0
8, 15552, Note_on_c, 6, 43, 100
8, 15744, Note_on_c, 6, 43, 0
8, 15744, Note_on_c, 6, 43, 100
8, 15936, Note_on_c, 6, 43, 0
8, 15936, Note_on_c, 6, 47, 100
8, 16032, Note_on_c, 6, 47, 0
8, 16032, Note_on_c, 6, 48, 100
8, 16080, Note_on_c, 6, 48, 0
8, 16080, Note_on_c, 6, 50, 100
8, 16128, Note_on_c, 6, 50, 0
8, 16128, Note_on_c, 6, 43, 100
8, 16320, Note_on_c, 6, 43, 0
8, 16320, Note_on_c, 6, 43, 100
8, 16512, Note_on_c, 6, 43, 0
8, 16512, Note_on_c, 6, 43, 100
8, 16704, Note_on_c, 6, 43, 0
8, 16704, Note_on_c, 6, 48, 100
8, 16800, Note_on_c, 6, 48, 0
8, 16800, Note_on_c, 6, 50, 100
8, 16848, Note_on_c, 6, 50, 0
8, 16848, Note_on_c, 6, 52, 100
8, 16896, Note_on_c, 6, 52, 0
8, 16896, Note_on_c, 6, 43, 100
8, 17088, Note_on_c, 6, 43, 0
8, 17088, Note_on_c, 6, 43, 100
8, 17280, Note_on_c, 6, 43, 0
8, 17280, Note_on_c, 6, 43, 100
8, 17472, Note_on_c, 6, 43, 0
8, 17472, Note_on_c, 6, 54, 100
8, 17568, Note_on_c, 6, 54, 0
8, 17568, Note_on_c, 6, 55, 100
8, 17616, Note_on_c, 6, 55, 0
8, 17616, Note_on_c, 6, 57, 100
8, 17664, Note_on_c, 6, 57, 0
8, 17664, Note_on_c, 6, 43, 100
8, 18048, Note_on_c, 6, 43, 0
8, 21504, Note_on_c, 6, 43, 100
8, 21696, Note_on_c, 6, 43, 0
8, 21696, Note_on_c, 6, 43, 100
8, 21888, Note_on_c, 6, 43, 0
8, 21888, Note_on_c, 6, 43, 100
8, 22080, Note_on_c, 6, 43, 0
8, 22080, Note_on_c, 6, 47, 100
8, 22176, Note_on_c, 6, 47, 0
8, 22176, Note_on_c, 6, 48, 100
8, 22224, Note_on_c, 6, 48, 0
8, 22224, Note_on_c, 6, 50, 100
8, 22272, Note_on_c, 6, 50, 0
8, 22272, Note_on_c, 6, 43, 100
8, 22464, Note_on_c, 6, 43, 0
8, 22464, Note_on_c, 6, 43, 100
8, 22656, Note_on_c, 6, 43, 0
8, 22656, Note_on_c, 6, 43, 100
8, 22848, Note_on_c, 6, 43, 0
8, 22848, Note_on_c, 6, 48, 100
8, 22944, Note_on_c, 6, 48, 0
8, 22944, Note_on_c, 6, 50, 100
8, 22992, Note_on_c, 6, 50, 0
8, 22992, Note_on_c, 6, 52, 100
8, 23040, Note_on_c, 6, 52, 0
8, 23040, Note_on_c, 6, 43, 100
8, 23232, Note_on_c, 6, 43, 0
8, 23232, Note_on_c, 6, 43, 100
8, 23424, Note_on_c, 6, 43, 0
8, 23424, Note_on_c, 6, 43, 100
8, 23616, Note_on_c, 6, 43, 0
8, 23616, Note_on_c, 6, 54, 100
8, 23712, Note_on_c, 6, 54, 0
8, 23712, Note_on_c, 6, 55, 100
8, 23760, Note_on_c, 6, 55, 0
8, 23760, Note_on_c, 6, 57, 100
8, 23808, Note_on_c, 6, 57, 0
8, 23808, Note_on_c, 6, 43, 100
8, 24000, Note_on_c, 6, 43, 0
8, 24000, Note_on_c, 6, 43, 100
8, 24192, Note_on_c, 6, 43, 0
8, 24192, Note_on_c, 6, 43, 100
8, 24384, Note_on_c, 6, 43, 0
8, 24384, Note_on_c, 6, 55, 100
8, 24480, Note_on_c, 6, 55, 0
8, 24480, Note_on_c, 6, 57, 100
8, 24528, Note_on_c, 6, 57, 0
8, 24528, Note_on_c, 6, 59, 100
8, 24576, Note_on_c, 6, 59, 0
8, 24576, Note_on_c, 6, 52, 100
8, 24768, Note_on_c, 6, 52, 0
8, 24768, Note_on_c, 6, 52, 100
8, 24960, Note_on_c, 6, 52, 0
8, 24960, Note_on_c, 6, 52, 100
8, 25152, Note_on_c, 6, 52, 0
8, 25152, Note_on_c, 6, 55, 100
8, 25248, Note_on_c, 6, 55, 0
8, 25248, Note_on_c, 6, 57, 100
8, 25296, Note_on_c, 6, 57, 0
8, 25296, Note_on_c, 6, 58, 100
8, 25344, Note_on_c, 6, 58, 0
8, 25344, Note_on_c, 6, 49, 100
8, 25536, Note_on_c, 6, 49, 0
8, 25536, Note_on_c, 6, 49, 100
8, 25728, Note_on_c, 6, 49, 0
8, 25728, Note_on_c, 6, 49, 100
8, 25920, Note_on_c, 6, 49, 0
8, 25920, Note_on_c, 6, 52, 100
8, 26016, Note_on_c, 6, 52, 0
8, 26016, Note_on_c, 6, 53, 100
8, 26064, Note_on_c, 6, 53, 0
8, 26064, Note_on_c, 6, 55, 100
8, 26112, Note_on_c, 6, 55, 0
8, 26112, Note_on_c, 6, 45, 100
8, 26304, Note_on_c, 6, 45, 0
8, 26304, Note_on_c, 6, 45, 100
8, 26496, Note_on_c, 6, 45, 0
8, 26496, Note_on_c, 6, 45, 100
8, 26688, Note_on_c, 6, 45, 0
8, 26688, Note_on_c, 6, 49, 100
8, 26784, Note_on_c, 6, 49, 0
8, 26784, Note_on_c, 6, 50, 100
8, 26832, Note_on_c, 6, 50, 0
8, 26832, Note_on_c, 6, 52, 100
8, 26880, Note_on_c, 6, 52, 0
8, 26880, Note_on_c, 6, 38, 100
8, 27264, Note_on_c, 6, 38, 0
8, 30720, Note_on_c, 6, 50, 100
8, 30912, Note_on_c, 6, 50, 0
8, 30912, Note_on_c, 6, 50, 100
8, 31104, Note_on_c, 6, 50, 0
8, 31104, Note_on_c, 6, 50, 100
8, 31296, Note_on_c, 6, 50, 0
8, 31296, Note_on_c, 6, 53, 100
8, 31392, Note_on_c, 6, 53, 0
8, 31392, Note_on_c, 6, 55, 100
8, 31440, Note_on_c, 6, 55, 0
8, 31440, Note_on_c, 6, 57, 100
8, 31488, Note_on_c, 6, 57, 0
8, 31488, Note_on_c, 6, 50, 100
8, 31680, Note_on_c, 6, 50, 0
8, 31680, Note_on_c, 6, 50, 100
8, 31872, Note_on_c, 6, 50, 0
8, 31872, Note_on_c, 6, 50, 100
8, 32064, Note_on_c, 6, 50, 0
8, 32064, Note_on_c, 6, 55, 100
8, 32160, Note_on_c, 6, 55, 0
8, 32160, Note_on_c, 6, 57, 100
8, 32208, Note_on_c, 6, 57, 0
8, 32208, Note_on_c, 6, 58, 100
8, 32256, Note_on_c, 6, 58, 0
8, 32256, Note_on_c, 6, 50, 100
8, 32448, Note_on_c, 6, 50, 0
8, 32448, Note_on_c, 6, 50, 100
8, 32640, Note_on_c, 6, 50, 0
8, 32640, Note_on_c, 6, 50, 100
8, 32832, Note_on_c, 6, 50, 0
8, 32832, Note_on_c, 6, 61, 100
8, 32928, Note_on_c, 6, 61, 0
8, 32928, Note_on_c, 6, 62, 100
8, 32976, Note_on_c, 6, 62, 0
8, 32976, Note_on_c, 6, 64, 100
8, 33024, Note_on_c, 6, 64, 0
8, 33024, Note_on_c, 6, 50, 100
8, 33216, Note_on_c, 6, 50, 0
8, 33216, Note_on_c, 6, 50, 100
8, 33408, Note_on_c, 6, 50, 0
8, 33408, Note_on_c, 6, 50, 100
8, 33600, Note_on_c, 6, 50, 0
8, 33600, Note_on_c, 6, 57, 100
8, 33696, Note_on_c, 6, 57, 0
8, 33696, Note_on_c, 6, 59, 100
8, 33744, Note_on_c, 6, 59, 0
8, 33744, Note_on_c, 6, 61, 100
8, 33792, Note_on_c, 6, 61, 0
8, 33792, Note_on_c, 6, 50, 100
8, 34176, Note_on_c, 6, 50, 0
8, 36864, Note_on_c, 6, 45, 100
8, 37056, Note_on_c, 6, 45, 0
8, 37056, Note_on_c, 6, 45, 100
8, 37248, Note_on_c, 6, 45, 0
8, 37248, Note_on_c, 6, 45, 100
8, 37440, Note_on_c, 6, 45, 0
8, 37440, Note_on_c, 6, 49, 100
8, 37536, Note_on_c, 6, 49, 0
8, 37536, Note_on_c, 6, 50, 100
8, 37584, Note_on_c, 6, 50, 0
8, 37584, Note_on_c, 6, 52, 100
8, 37632, Note_on_c, 6, 52, 0
8, 37632, Note_on_c, 6, 45, 100
8, 37824, Note_on_c, 6, 45, 0
8, 37824, Note_on_c, 6, 45, 100
8, 38016, Note_on_c, 6, 45, 0
8, 38016, Note_on_c, 6, 45, 100
8, 38208, Note_on_c, 6, 45, 0
8, 38208, Note_on_c, 6, 50, 100
8, 38304, Note_on_c, 6, 50, 0
8, 38304, Note_on_c, 6, 52, 100
8, 38352, Note_on_c, 6, 52, 0
8, 38352, Note_on_c, 6, 53, 100
8, 38400, Note_on_c, 6, 53, 0
8, 38400, Note_on_c, 6, 45, 100
8, 38592, Note_on_c, 6, 45, 0
8, 38592, Note_on_c, 6, 45, 100
8, 38784, Note_on_c, 6, 45, 0
8, 38784, Note_on_c, 6, 45, 100
8, 38976, Note_on_c, 6, 45, 0
8, 38976, Note_on_c, 6, 56, 100
8, 39072, Note_on_c, 6, 56, 0
8, 39072, Note_on_c, 6, 57, 100
8, 39120, Note_on_c, 6, 57, 0
8, 39120, Note_on_c, 6, 59, 100
8, 39168, Note_on_c, 6, 59, 0
8, 39168, Note_on_c, 6, 45, 100
8, 39552, Note_on_c, 6, 45, 0
8, 42432, Note_on_c, 6, 57, 100
8, 42528, Note_on_c, 6, 57, 0
8, 42528, Note_on_c, 6, 58, 100
8, 42624, Note_on_c, 6, 58, 0
8, 42624, Note_on_c, 6, 57, 100
8, 42720, Note_on_c, 6, 57, 0
8, 42720, Note_on_c, 6, 55, 100
8, 42816, Note_on_c, 6, 55, 0
8, 42816, Note_on_c, 6, 53, 100
8, 42912, Note_on_c, 6, 53, 0
8, 42912, Note_on_c, 6, 52, 100
8, 43008, Note_on_c, 6, 52, 0
8, 43008, Note_on_c, 6, 50, 100
8, 43200, Note_on_c, 6, 50, 0
8, 43200, Note_on_c, 6, 50, 100
8, 43392, Note_on_c, 6, 50, 0
8, 43392, Note_on_c, 6, 50, 100
8, 43584, Note_on_c, 6, 50, 0
8, 43584, Note_on_c, 6, 56, 100
8, 43680, Note_on_c, 6, 56, 0
8, 43680, Note_on_c, 6, 57, 100
8, 43728, Note_on_c, 6, 57, 0
8, 43728, Note_on_c, 6, 59, 100
8, 43776, Note_on_c, 6, 59, 0
8, 43776, Note_on_c, 6, 48, 100
8, 43968, Note_on_c, 6, 48, 0
8, 43968, Note_on_c, 6, 48, 100
8, 44160, Note_on_c, 6, 48, 0
8, 44160, Note_on_c, 6, 48, 100
8, 44352, Note_on_c, 6, 48, 0
8, 44352, Note_on_c, 6, 54, 100
8, 44448, Note_on_c, 6, 54, 0
8, 44448, Note_on_c, 6, 56, 100
8, 44496, Note_on_c, 6, 56, 0
8, 44496, Note_on_c, 6, 57, 100
8, 44544, Note_on_c, 6, 57, 0
8, 44544, Note_on_c, 6, 47, 100
8, 44736, Note_on_c, 6, 47, 0
8, 44736, Note_on_c, 6, 47, 100
8, 44928, Note_on_c, 6, 47, 0
8, 44928, Note_on_c, 6, 47, 100
8, 45120, Note_on_c, 6, 47, 0
8, 45120, Note_on_c, 6, 52, 100
8, 45216, Note_on_c, 6, 52, 0
8, 45216, Note_on_c, 6, 54, 100
8, 45264, Note_on_c, 6, 54, 0
8, 45264, Note_on_c, 6, 56, 100
8, 45312, Note_on_c, 6, 56, 0
8, 45312, Note_on_c, 6, 45, 100
8, 45504, Note_on_c, 6, 45, 0
8, 49152, Note_on_c, 6, 50, 100
8, 49344, Note_on_c, 6, 50, 0
8, 49344, Note_on_c, 6, 50, 100
8, 49536, Note_on_c, 6, 50, 0
8, 49536, Note_on_c, 6, 50, 100
8, 49728, Note_on_c, 6, 50, 0
8, 49728, Note_on_c, 6, 53, 100
8, 49824, Note_on_c, 6, 53, 0
8, 49824, Note_on_c, 6, 55, 100
8, 49872, Note_on_c, 6, 55, 0
8, 49872, Note_on_c, 6, 56, 100
8, 49920, Note_on_c, 6, 56, 0
8, 49920, Note_on_c, 6, 47, 100
8, 50112, Note_on_c, 6, 47, 0
8, 50112, Note_on_c, 6, 47, 100
8, 50304, Note_on_c, 6, 47, 0
8, 50304, Note_on_c, 6, 47, 100
8, 50496, Note_on_c, 6, 47, 0
8, 50496, Note_on_c, 6, 50, 100
8, 50592, Note_on_c, 6, 50, 0
8, 50592, Note_on_c, 6, 51, 100
8, 50640, Note_on_c, 6, 51, 0
8, 50640, Note_on_c, 6, 53, 100
8, 50688, Note_on_c, 6, 53, 0
8, 50688, Note_on_c, 6, 43, 100
8, 50880, Note_on_c, 6, 43, 0
8, 50880, Note_on_c, 6, 43, 100
8, 51072, Note_on_c, 6, 43, 0
8, 51072, Note_on_c, 6, 43, 100
8, 51264, Note_on_c, 6, 43, 0
8, 51264, Note_on_c, 6, 47, 100
8, 51360, Note_on_c, 6, 47, 0
8, 51360, Note_on_c, 6, 48, 100
8, 51408, Note_on_c, 6, 48, 0
8, 51408, Note_on_c, 6, 50, 100
8, 51456, Note_on_c, 6, 50, 0
8, 51456, Note_on_c, 6, 36, 100
8, 51840, Note_on_c, 6, 36, 0
8, 54720, Note_on_c, 6, 55, 100
8, 54816, Note_on_c, 6, 55, 0
8, 54816, Note_on_c, 6, 57, 100
8, 54912, Note_on_c, 6, 57, 0
8, 54912, Note_on_c, 6, 55, 100
8, 55008, Note_on_c, 6, 55, 0
8, 55008, Note_on_c, 6, 53, 100
8, 55104, Note_on_c, 6, 53, 0
8, 55104, Note_on_c, 6, 52, 100
8, 55200, Note_on_c, 6, 52, 0
8, 55200, Note_on_c, 6, 50, 100
8, 55296, Note_on_c, 6, 50, 0
8, 55296, Note_on_c, 6, 48, 100
8, 55488, Note_on_c, 6, 48, 0
8, 55488, Note_on_c, 6, 48, 100
8, 55680, Note_on_c, 6, 48, 0
8, 55680, Note_on_c, 6, 48, 100
8, 55872, Note_on_c, 6, 48, 0
8, 55872, Note_on_c, 6, 52, 100
8, 55968, Note_on_c, 6, 52, 0
8, 55968, Note_on_c, 6, 53, 100
8, 56016, Note_on_c, 6, 53, 0
8, 56016, Note_on_c, 6, 55, 100
8, 56064, Note_on_c, 6, 55, 0
8, 56064, Note_on_c, 6, 48, 100
8, 56256, Note_on_c, 6, 48, 0
8, 56256, Note_on_c, 6, 48, 100
8, 56448, Note_on_c, 6, 48, 0
8, 56448, Note_on_c, 6, 48, 100
8, 56640, Note_on_c, 6, 48, 0
8, 56640, Note_on_c, 6, 53, 100
8, 56736, Note_on_c, 6, 53, 0
8, 56736, Note_on_c, 6, 55, 100
8, 56784, Note_on_c, 6, 55, 0
8, 56784, Note_on_c, 6, 57, 100
8, 56832, Note_on_c, 6, 57, 0
8, 56832, Note_on_c, 6, 48, 100
8, 57024, Note_on_c, 6, 48, 0
8, 57024, Note_on_c, 6, 48, 100
8, 57216, Note_on_c, 6, 48, 0
8, 57216, Note_on_c, 6, 48, 100
8, 57408, Note_on_c, 6, 48, 0
8, 57408, Note_on_c, 6, 59, 100
8, 57504, Note_on_c, 6, 59, 0
8, 57504, Note_on_c, 6, 60, 100
8, 57552, Note_on_c, 6, 60, 0
8, 57552, Note_on_c, 6, 62, 100
8, 57600, Note_on_c, 6, 62, 0
8, 57600, Note_on_c, 6, 48, 100
8, 57792, Note_on_c, 6, 48, 0
8, 57792, Note_on_c, 6, 48, 100
8, 57984, Note_on_c, 6, 48, 0
8, 57984, Note_on_c, 6, 48, 100
8, 58176, Note_on_c, 6, 48, 0
8, 58176, Note_on_c, 6, 60, 100
8, 58272, Note_on_c, 6, 60, 0
8, 58272, Note_on_c, 6, 62, 100
8, 58320, Note_on_c, 6, 62, 0
8, 58320, Note_on_c, 6, 64, 100
8, 58368, Note_on_c, 6, 64, 0
8, 58368, Note_on_c, 6, 53, 100
8, 58752, Note_on_c, 6, 53, 0
8, 63840, Note_on_c, 6, 60, 100
8, 63936, Note_on_c, 6, 60, 0
8, 63936, Note_on_c, 6, 59, 100
8, 64032, Note_on_c, 6, 59, 0
8, 64032, Note_on_c, 6, 57, 100
8, 64128, Note_on_c, 6, 57, 0
8, 64128, Note_on_c, 6, 55, 100
8, 64224, Note_on_c, 6, 55, 0
8, 64224, Note_on_c, 6, 53, 100
8, 64320, Note_on_c, 6, 53, 0
8, 64320, Note_on_c, 6, 52, 100
8, 64416, Note_on_c, 6, 52, 0
8, 64416, Note_on_c, 6, 50, 100
8, 64512, Note_on_c, 6, 50, 0
8, 64512, Note_on_c, 6, 48, 100
8, 64704, Note_on_c, 6, 48, 0
8, 64704, Note_on_c, 6, 48, 100
8, 64896, Note_on_c, 6, 48, 0
8, 64896, Note_on_c, 6, 48, 100
8, 65088, Note_on_c, 6, 48, 0
8, 65088, Note_on_c, 6, 52, 100
8, 65184, Note_on_c, 6, 52, 0
8, 65184, Note_on_c, 6, 53, 100
8, 65232, Note_on_c, 6, 53, 0
8, 65232, Note_on_c, 6, 55, 100
8, 65280, Note_on_c, 6, 55, 0
8, 65280, Note_on_c, 6, 48, 100
8, 65472, Note_on_c, 6, 48, 0
8, 65472, Note_on_c, 6, 48, 100
8, 65664, Note_on_c, 6, 48, 0
8, 65664, Note_on_c, 6, 48, 100
8, 65856, Note_on_c, 6, 48, 0
8, 65856, Note_on_c, 6, 53, 100
8, 65952, Note_on_c, 6, 53, 0
8, 65952, Note_on_c, 6, 55, 100
8, 66000, Note_on_c, 6, 55, 0
8, 66000, Note_on_c, 6, 57, 100
8, 66048, Note_on_c, 6, 57, 0
8, 66048, Note_on_c, 6, 48, 100
8, 66240, Note_on_c, 6, 48, 0
8, 66240, Note_on_c, 6, 48, 100
8, 66432, Note_on_c, 6, 48, 0
8, 66432, Note_on_c, 6, 48, 100
8, 66624, Note_on_c, 6, 48, 0
8, 66624, Note_on_c, 6, 59, 100
8, 66720, Note_on_c, 6, 59, 0
8, 66720, Note_on_c, 6, 60, 100
8, 66768, Note_on_c, 6, 60, 0
8, 66768, Note_on_c, 6, 62, 100
8, 66816, Note_on_c, 6, 62, 0
8, 66816, Note_on_c, 6, 48, 100
8, 67008, Note_on_c, 6, 48, 0
8, 67008, Note_on_c, 6, 48, 100
8, 67200, Note_on_c, 6, 48, 0
8, 67200, Note_on_c, 6, 48, 100
8, 67392, Note_on_c, 6, 48, 0
8, 67392, Note_on_c, 6, 60, 100
8, 67488, Note_on_c, 6, 60, 0
8, 67488, Note_on_c, 6, 62, 100
8, 67536, Note_on_c, 6, 62, 0
8, 67536, Note_on_c, 6, 64, 100
8, 67584, Note_on_c, 6, 64, 0
8, 67584, Note_on_c, 6, 53, 100
8, 67776, Note_on_c, 6, 53, 0
8, 67776, Note_on_c, 6, 53, 100
8, 67968, Note_on_c, 6, 53, 0
8, 67968, Note_on_c, 6, 53, 100
8, 68160, Note_on_c, 6, 53, 0
8, 68160, Note_on_c, 6, 59, 100
8, 68256, Note_on_c, 6, 59, 0
8, 68256, Note_on_c, 6, 60, 100
8, 68304, Note_on_c, 6, 60, 0
8, 68304, Note_on_c, 6, 62, 100
8, 68352, Note_on_c, 6, 62, 0
8, 68352, Note_on_c, 6, 52, 100
8, 68544, Note_on_c, 6, 52, 0
8, 68544, Note_on_c, 6, 52, 100
8, 68736, Note_on_c, 6, 52, 0
8, 68736, Note_on_c, 6, 52, 100
8, 68928, Note_on_c, 6, 52, 0
8, 68928, Note_on_c, 6, 57, 100
8, 69024, Note_on_c, 6, 57, 0
8, 69024, Note_on_c, 6, 59, 100
8, 69072, Note_on_c, 6, 59, 0
8, 69072, Note_on_c, 6, 60, 100
8, 69120, Note_on_c, 6, 60, 0
8, 69120, Note_on_c, 6, 50, 100
8, 69312, Note_on_c, 6, 50, 0
8, 69312, Note_on_c, 6, 48, 100
8, 69504, Note_on_c, 6, 48, 0
8, 69504, Note_on_c, 6, 55, 100
8, 69696, Note_on_c, 6, 55, 0
8, 69696, Note_on_c, 6, 43, 100
8, 69888, Note_on_c, 6, 43, 0
8, 69888, Note_on_c, 6, 36, 100
8, 70656, Note_on_c, 6, 36, 0
8, 70656, End_track
9, 0, Start_track
9, 0, MIDI_port, 0
9, 0, Title_t, "------------------------------------------"
9, 0, End_track
10, 0, Start_track
10, 0, MIDI_port, 0
10, 0, Title_t, "Johann Sebastian Bach  (1685-1750)"
10, 0, End_track
11, 0, Start_track
11, 0, MIDI_port, 0
11, 0, Title_t, "Violin Concerto No. 1 in A minor - BWV 1041"
11, 0, End_track
12, 0, Start_track
12, 0, MIDI_port, 0
12, 0, Title_t, "2nd Movement: Andante"
12, 0, End_track
13, 0, Start_track
13, 0, MIDI_port, 0
13, 0, Title_t, "------------------------------------------"
13, 0, End_track
0, 0, End_of_file
