0, 0, Header, 1, 17, 120
1, 0, Start_track
1, 0, Title_t, "untitled"
1, 0, Copyright_t, "Copyright © 1997 by David J. Grossman"
1, 0, Text_t, "David J. Grossman"
1, 0, SMPTE_offset, 96, 0, 3, 0, 0
1, 0, Time_signature, 4, 2, 24, 8
1, 0, Key_signature, 0, "major"
1, 0, Tempo, 600000
1, 0, End_track
2, 0, Start_track
2, 0, MIDI_port, 0
2, 0, Program_c, 0, 40
2, 0, Control_c, 0, 7, 100
2, 0, Control_c, 0, 10, 124
2, 720, Note_on_c, 0, 69, 100
2, 840, Note_on_c, 0, 69, 0
2, 840, Note_on_c, 0, 69, 100
2, 900, Note_on_c, 0, 69, 0
2, 900, Note_on_c, 0, 71, 100
2, 960, Note_on_c, 0, 71, 0
2, 960, Note_on_c, 0, 72, 100
2, 1080, Note_on_c, 0, 72, 0
2, 1080, Note_on_c, 0, 72, 100
2, 1140, Note_on_c, 0, 72, 0
2, 1140, Note_on_c, 0, 74, 100
2, 1200, Note_on_c, 0, 74, 0
2, 1200, Note_on_c, 0, 76, 100
2, 1260, Note_on_c, 0, 76, 0
2, 1260, Note_on_c, 0, 77, 100
2, 1290, Note_on_c, 0, 77, 0
2, 1290, Note_on_c, 0, 76, 100
2, 1320, Note_on_c, 0, 76, 0
2, 1320, Note_on_c, 0, 74, 100
2, 1380, Note_on_c, 0, 74, 0
2, 1380, Note_on_c, 0, 72, 100
2, 1440, Note_on_c, 0, 72, 0
2, 1440, Note_on_c, 0, 71, 100
2, 1500, Note_on_c, 0, 71, 0
2, 1500, Note_on_c, 0, 74, 100
2, 1560, Note_on_c, 0, 74, 0
2, 1560, Note_on_c, 0, 72, 100
2, 1620, Note_on_c, 0, 72, 0
2, 1620, Note_on_c, 0, 71, 100
2, 1680, Note_on_c, 0, 71, 0
2, 1680, Note_on_c, 0, 69, 100
2, 1980, Note_on_c, 0, 69, 0
2, 1980, Note_on_c, 0, 71, 100
2, 2040, Note_on_c, 0, 71, 0
2, 2040, Note_on_c, 0, 72, 100
2, 2100, Note_on_c, 0, 72, 0
2, 2100, Note_on_c, 0, 74, 100
2, 2160, Note_on_c, 0, 74, 0
2, 2160, Note_on_c, 0, 76, 100
2, 2340, Note_on_c, 0, 76, 0
2, 2340, Note_on_c, 0, 76, 100
2, 2400, Note_on_c, 0, 76, 0
2, 2400, Note_on_c, 0, 74, 100
2, 2460, Note_on_c, 0, 74, 0
2, 2460, Note_on_c, 0, 72, 100
2, 2520, Note_on_c, 0, 72, 0
2, 2520, Note_on_c, 0, 71, 100
2, 2580, Note_on_c, 0, 71, 0
2, 2580, Note_on_c, 0, 72, 100
2, 2640, Note_on_c, 0, 72, 0
2, 2640, Note_on_c, 0, 74, 100
2, 2700, Note_on_c, 0, 74, 0
2, 2700, Note_on_c, 0, 76, 100
2, 2760, Note_on_c, 0, 76, 0
2, 2760, Note_on_c, 0, 77, 100
2, 2820, Note_on_c, 0, 77, 0
2, 2820, Note_on_c, 0, 76, 100
2, 2850, Note_on_c, 0, 76, 0
2, 2850, Note_on_c, 0, 74, 100
2, 2880, Note_on_c, 0, 74, 0
2, 2880, Note_on_c, 0, 72, 100
2, 2940, Note_on_c, 0, 72, 0
2, 2940, Note_on_c, 0, 71, 100
2, 3000, Note_on_c, 0, 71, 0
2, 3000, Note_on_c, 0, 69, 100
2, 3120, Note_on_c, 0, 69, 0
2, 3120, Note_on_c, 0, 76, 100
2, 3300, Note_on_c, 0, 76, 0
2, 3300, Note_on_c, 0, 74, 100
2, 3330, Note_on_c, 0, 74, 0
2, 3330, Note_on_c, 0, 72, 100
2, 3360, Note_on_c, 0, 72, 0
2, 3360, Note_on_c, 0, 71, 100
2, 3480, Note_on_c, 0, 71, 0
2, 3480, Note_on_c, 0, 71, 100
2, 3540, Note_on_c, 0, 71, 0
2, 3540, Note_on_c, 0, 72, 100
2, 3600, Note_on_c, 0, 72, 0
2, 3600, Note_on_c, 0, 74, 100
2, 3720, Note_on_c, 0, 74, 0
2, 3720, Note_on_c, 0, 74, 100
2, 3780, Note_on_c, 0, 74, 0
2, 3780, Note_on_c, 0, 76, 100
2, 3840, Note_on_c, 0, 76, 0
2, 3840, Note_on_c, 0, 77, 100
2, 3900, Note_on_c, 0, 77, 0
2, 3900, Note_on_c, 0, 79, 100
2, 3960, Note_on_c, 0, 79, 0
2, 3960, Note_on_c, 0, 81, 100
2, 4020, Note_on_c, 0, 81, 0
2, 4020, Note_on_c, 0, 79, 100
2, 4050, Note_on_c, 0, 79, 0
2, 4050, Note_on_c, 0, 77, 100
2, 4080, Note_on_c, 0, 77, 0
2, 4080, Note_on_c, 0, 76, 100
2, 4140, Note_on_c, 0, 76, 0
2, 4140, Note_on_c, 0, 74, 100
2, 4200, Note_on_c, 0, 74, 0
2, 4200, Note_on_c, 0, 72, 100
2, 4260, Note_on_c, 0, 72, 0
2, 4260, Note_on_c, 0, 71, 100
2, 4290, Note_on_c, 0, 71, 0
2, 4290, Note_on_c, 0, 69, 100
2, 4320, Note_on_c, 0, 69, 0
2, 4320, Note_on_c, 0, 67, 100
2, 4380, Note_on_c, 0, 67, 0
2, 4380, Note_on_c, 0, 65, 100
2, 4440, Note_on_c, 0, 65, 0
2, 4440, Note_on_c, 0, 64, 100
2, 4560, Note_on_c, 0, 64, 0
2, 4560, Note_on_c, 0, 71, 100
2, 4620, Note_on_c, 0, 71, 0
2, 4620, Note_on_c, 0, 72, 100
2, 4680, Note_on_c, 0, 72, 0
2, 4680, Note_on_c, 0, 74, 100
2, 4740, Note_on_c, 0, 74, 0
2, 4740, Note_on_c, 0, 76, 100
2, 4800, Note_on_c, 0, 76, 0
2, 4800, Note_on_c, 0, 77, 100
2, 4980, Note_on_c, 0, 77, 0
2, 4980, Note_on_c, 0, 79, 100
2, 5040, Note_on_c, 0, 79, 0
2, 5040, Note_on_c, 0, 81, 100
2, 5220, Note_on_c, 0, 81, 0
2, 5220, Note_on_c, 0, 79, 100
2, 5250, Note_on_c, 0, 79, 0
2, 5250, Note_on_c, 0, 77, 100
2, 5280, Note_on_c, 0, 77, 0
2, 5280, Note_on_c, 0, 76, 100
2, 5340, Note_on_c, 0, 76, 0
2, 5340, Note_on_c, 0, 74, 100
2, 5370, Note_on_c, 0, 74, 0
2, 5370, Note_on_c, 0, 72, 100
2, 5400, Note_on_c, 0, 72, 0
2, 5400, Note_on_c, 0, 71, 100
2, 5580, Note_on_c, 0, 71, 0
2, 5580, Note_on_c, 0, 72, 100
2, 5640, Note_on_c, 0, 72, 0
2, 5640, Note_on_c, 0, 74, 100
2, 5820, Note_on_c, 0, 74, 0
2, 5820, Note_on_c, 0, 72, 100
2, 5850, Note_on_c, 0, 72, 0
2, 5850, Note_on_c, 0, 71, 100
2, 5880, Note_on_c, 0, 71, 0
2, 5880, Note_on_c, 0, 69, 100
2, 6060, Note_on_c, 0, 69, 0
2, 6060, Note_on_c, 0, 71, 100
2, 6120, Note_on_c, 0, 71, 0
2, 6120, Note_on_c, 0, 72, 100
2, 6180, Note_on_c, 0, 72, 0
2, 6180, Note_on_c, 0, 74, 100
2, 6240, Note_on_c, 0, 74, 0
2, 6240, Note_on_c, 0, 76, 100
2, 6360, Note_on_c, 0, 76, 0
2, 6360, Note_on_c, 0, 64, 100
2, 6420, Note_on_c, 0, 64, 0
2, 6420, Note_on_c, 0, 65, 100
2, 6480, Note_on_c, 0, 65, 0
2, 6480, Note_on_c, 0, 67, 100
2, 6540, Note_on_c, 0, 67, 0
2, 6540, Note_on_c, 0, 69, 100
2, 6600, Note_on_c, 0, 69, 0
2, 6600, Note_on_c, 0, 71, 100
2, 6720, Note_on_c, 0, 71, 0
2, 6960, Note_on_c, 0, 69, 100
2, 7080, Note_on_c, 0, 69, 0
2, 7080, Note_on_c, 0, 69, 100
2, 7140, Note_on_c, 0, 69, 0
2, 7140, Note_on_c, 0, 71, 100
2, 7200, Note_on_c, 0, 71, 0
2, 7200, Note_on_c, 0, 72, 100
2, 7320, Note_on_c, 0, 72, 0
2, 7320, Note_on_c, 0, 72, 100
2, 7380, Note_on_c, 0, 72, 0
2, 7380, Note_on_c, 0, 74, 100
2, 7440, Note_on_c, 0, 74, 0
2, 7440, Note_on_c, 0, 76, 100
2, 7500, Note_on_c, 0, 76, 0
2, 7500, Note_on_c, 0, 77, 100
2, 7530, Note_on_c, 0, 77, 0
2, 7530, Note_on_c, 0, 76, 100
2, 7560, Note_on_c, 0, 76, 0
2, 7560, Note_on_c, 0, 74, 100
2, 7620, Note_on_c, 0, 74, 0
2, 7620, Note_on_c, 0, 72, 100
2, 7680, Note_on_c, 0, 72, 0
2, 7680, Note_on_c, 0, 71, 100
2, 7740, Note_on_c, 0, 71, 0
2, 7740, Note_on_c, 0, 74, 100
2, 7800, Note_on_c, 0, 74, 0
2, 7800, Note_on_c, 0, 72, 100
2, 7860, Note_on_c, 0, 72, 0
2, 7860, Note_on_c, 0, 71, 100
2, 7920, Note_on_c, 0, 71, 0
2, 7920, Note_on_c, 0, 69, 100
2, 8220, Note_on_c, 0, 69, 0
2, 8220, Note_on_c, 0, 71, 100
2, 8280, Note_on_c, 0, 71, 0
2, 8280, Note_on_c, 0, 72, 100
2, 8340, Note_on_c, 0, 72, 0
2, 8340, Note_on_c, 0, 74, 100
2, 8400, Note_on_c, 0, 74, 0
2, 8400, Note_on_c, 0, 76, 100
2, 8580, Note_on_c, 0, 76, 0
2, 8580, Note_on_c, 0, 76, 100
2, 8640, Note_on_c, 0, 76, 0
2, 8640, Note_on_c, 0, 74, 100
2, 8700, Note_on_c, 0, 74, 0
2, 8700, Note_on_c, 0, 72, 100
2, 8760, Note_on_c, 0, 72, 0
2, 8760, Note_on_c, 0, 71, 100
2, 8820, Note_on_c, 0, 71, 0
2, 8820, Note_on_c, 0, 72, 100
2, 8880, Note_on_c, 0, 72, 0
2, 8880, Note_on_c, 0, 74, 100
2, 8940, Note_on_c, 0, 74, 0
2, 8940, Note_on_c, 0, 76, 100
2, 9000, Note_on_c, 0, 76, 0
2, 9000, Note_on_c, 0, 77, 100
2, 9060, Note_on_c, 0, 77, 0
2, 9060, Note_on_c, 0, 76, 100
2, 9090, Note_on_c, 0, 76, 0
2, 9090, Note_on_c, 0, 74, 100
2, 9120, Note_on_c, 0, 74, 0
2, 9120, Note_on_c, 0, 72, 100
2, 9180, Note_on_c, 0, 72, 0
2, 9180, Note_on_c, 0, 71, 100
2, 9240, Note_on_c, 0, 71, 0
2, 9240, Note_on_c, 0, 69, 100
2, 9360, Note_on_c, 0, 69, 0
2, 9360, Note_on_c, 0, 76, 100
2, 9540, Note_on_c, 0, 76, 0
2, 9540, Note_on_c, 0, 74, 100
2, 9570, Note_on_c, 0, 74, 0
2, 9570, Note_on_c, 0, 72, 100
2, 9600, Note_on_c, 0, 72, 0
2, 9600, Note_on_c, 0, 71, 100
2, 9720, Note_on_c, 0, 71, 0
2, 9720, Note_on_c, 0, 71, 100
2, 9780, Note_on_c, 0, 71, 0
2, 9780, Note_on_c, 0, 72, 100
2, 9840, Note_on_c, 0, 72, 0
2, 9840, Note_on_c, 0, 74, 100
2, 9960, Note_on_c, 0, 74, 0
2, 9960, Note_on_c, 0, 74, 100
2, 10020, Note_on_c, 0, 74, 0
2, 10020, Note_on_c, 0, 76, 100
2, 10080, Note_on_c, 0, 76, 0
2, 10080, Note_on_c, 0, 77, 100
2, 10140, Note_on_c, 0, 77, 0
2, 10140, Note_on_c, 0, 79, 100
2, 10200, Note_on_c, 0, 79, 0
2, 10200, Note_on_c, 0, 81, 100
2, 10260, Note_on_c, 0, 81, 0
2, 10260, Note_on_c, 0, 79, 100
2, 10290, Note_on_c, 0, 79, 0
2, 10290, Note_on_c, 0, 77, 100
2, 10320, Note_on_c, 0, 77, 0
2, 10320, Note_on_c, 0, 76, 100
2, 10380, Note_on_c, 0, 76, 0
2, 10380, Note_on_c, 0, 74, 100
2, 10440, Note_on_c, 0, 74, 0
2, 10440, Note_on_c, 0, 72, 100
2, 10500, Note_on_c, 0, 72, 0
2, 10500, Note_on_c, 0, 71, 100
2, 10530, Note_on_c, 0, 71, 0
2, 10530, Note_on_c, 0, 69, 100
2, 10560, Note_on_c, 0, 69, 0
2, 10560, Note_on_c, 0, 67, 100
2, 10620, Note_on_c, 0, 67, 0
2, 10620, Note_on_c, 0, 65, 100
2, 10680, Note_on_c, 0, 65, 0
2, 10680, Note_on_c, 0, 64, 100
2, 10800, Note_on_c, 0, 64, 0
2, 10800, Note_on_c, 0, 71, 100
2, 10860, Note_on_c, 0, 71, 0
2, 10860, Note_on_c, 0, 72, 100
2, 10920, Note_on_c, 0, 72, 0
2, 10920, Note_on_c, 0, 74, 100
2, 10980, Note_on_c, 0, 74, 0
2, 10980, Note_on_c, 0, 76, 100
2, 11040, Note_on_c, 0, 76, 0
2, 11040, Note_on_c, 0, 77, 100
2, 11220, Note_on_c, 0, 77, 0
2, 11220, Note_on_c, 0, 79, 100
2, 11280, Note_on_c, 0, 79, 0
2, 11280, Note_on_c, 0, 81, 100
2, 11460, Note_on_c, 0, 81, 0
2, 11460, Note_on_c, 0, 79, 100
2, 11490, Note_on_c, 0, 79, 0
2, 11490, Note_on_c, 0, 77, 100
2, 11520, Note_on_c, 0, 77, 0
2, 11520, Note_on_c, 0, 76, 100
2, 11580, Note_on_c, 0, 76, 0
2, 11580, Note_on_c, 0, 74, 100
2, 11610, Note_on_c, 0, 74, 0
2, 11610, Note_on_c, 0, 72, 100
2, 11640, Note_on_c, 0, 72, 0
2, 11640, Note_on_c, 0, 71, 100
2, 11820, Note_on_c, 0, 71, 0
2, 11820, Note_on_c, 0, 72, 100
2, 11880, Note_on_c, 0, 72, 0
2, 11880, Note_on_c, 0, 74, 100
2, 12060, Note_on_c, 0, 74, 0
2, 12060, Note_on_c, 0, 72, 100
2, 12090, Note_on_c, 0, 72, 0
2, 12090, Note_on_c, 0, 71, 100
2, 12120, Note_on_c, 0, 71, 0
2, 12120, Note_on_c, 0, 69, 100
2, 12300, Note_on_c, 0, 69, 0
2, 12300, Note_on_c, 0, 71, 100
2, 12360, Note_on_c, 0, 71, 0
2, 12360, Note_on_c, 0, 72, 100
2, 12420, Note_on_c, 0, 72, 0
2, 12420, Note_on_c, 0, 74, 100
2, 12480, Note_on_c, 0, 74, 0
2, 12480, Note_on_c, 0, 76, 100
2, 12600, Note_on_c, 0, 76, 0
2, 12600, Note_on_c, 0, 64, 100
2, 12660, Note_on_c, 0, 64, 0
2, 12660, Note_on_c, 0, 65, 100
2, 12720, Note_on_c, 0, 65, 0
2, 12720, Note_on_c, 0, 67, 100
2, 12780, Note_on_c, 0, 67, 0
2, 12780, Note_on_c, 0, 69, 100
2, 12840, Note_on_c, 0, 69, 0
2, 12840, Note_on_c, 0, 71, 100
2, 12960, Note_on_c, 0, 71, 0
2, 13200, Note_on_c, 0, 69, 100
2, 13320, Note_on_c, 0, 69, 0
2, 13320, Note_on_c, 0, 69, 100
2, 13380, Note_on_c, 0, 69, 0
2, 13380, Note_on_c, 0, 71, 100
2, 13440, Note_on_c, 0, 71, 0
2, 13440, Note_on_c, 0, 72, 100
2, 13560, Note_on_c, 0, 72, 0
2, 13560, Note_on_c, 0, 72, 100
2, 13620, Note_on_c, 0, 72, 0
2, 13620, Note_on_c, 0, 74, 100
2, 13680, Note_on_c, 0, 74, 0
2, 13680, Note_on_c, 0, 76, 100
2, 13920, Note_on_c, 0, 76, 0
2, 13920, End_track
3, 0, Start_track
3, 0, MIDI_port, 0
3, 0, Program_c, 1, 41
3, 0, Control_c, 1, 7, 100
3, 0, Control_c, 1, 10, 84
3, 480, Note_on_c, 1, 62, 100
3, 600, Note_on_c, 1, 62, 0
3, 600, Note_on_c, 1, 62, 100
3, 660, Note_on_c, 1, 62, 0
3, 660, Note_on_c, 1, 64, 100
3, 720, Note_on_c, 1, 64, 0
3, 720, Note_on_c, 1, 65, 100
3, 840, Note_on_c, 1, 65, 0
3, 840, Note_on_c, 1, 65, 100
3, 900, Note_on_c, 1, 65, 0
3, 900, Note_on_c, 1, 67, 100
3, 960, Note_on_c, 1, 67, 0
3, 960, Note_on_c, 1, 69, 100
3, 1020, Note_on_c, 1, 69, 0
3, 1020, Note_on_c, 1, 71, 100
3, 1050, Note_on_c, 1, 71, 0
3, 1050, Note_on_c, 1, 69, 100
3, 1080, Note_on_c, 1, 69, 0
3, 1080, Note_on_c, 1, 67, 100
3, 1140, Note_on_c, 1, 67, 0
3, 1140, Note_on_c, 1, 65, 100
3, 1200, Note_on_c, 1, 65, 0
3, 1200, Note_on_c, 1, 64, 100
3, 1260, Note_on_c, 1, 64, 0
3, 1260, Note_on_c, 1, 67, 100
3, 1320, Note_on_c, 1, 67, 0
3, 1320, Note_on_c, 1, 65, 100
3, 1380, Note_on_c, 1, 65, 0
3, 1380, Note_on_c, 1, 64, 100
3, 1440, Note_on_c, 1, 64, 0
3, 1440, Note_on_c, 1, 62, 100
3, 1740, Note_on_c, 1, 62, 0
3, 1740, Note_on_c, 1, 64, 100
3, 1800, Note_on_c, 1, 64, 0
3, 1800, Note_on_c, 1, 65, 100
3, 1860, Note_on_c, 1, 65, 0
3, 1860, Note_on_c, 1, 67, 100
3, 1920, Note_on_c, 1, 67, 0
3, 1920, Note_on_c, 1, 69, 100
3, 2100, Note_on_c, 1, 69, 0
3, 2100, Note_on_c, 1, 69, 100
3, 2160, Note_on_c, 1, 69, 0
3, 2160, Note_on_c, 1, 67, 100
3, 2220, Note_on_c, 1, 67, 0
3, 2220, Note_on_c, 1, 65, 100
3, 2280, Note_on_c, 1, 65, 0
3, 2280, Note_on_c, 1, 64, 100
3, 2340, Note_on_c, 1, 64, 0
3, 2340, Note_on_c, 1, 65, 100
3, 2400, Note_on_c, 1, 65, 0
3, 2400, Note_on_c, 1, 67, 100
3, 2460, Note_on_c, 1, 67, 0
3, 2460, Note_on_c, 1, 69, 100
3, 2520, Note_on_c, 1, 69, 0
3, 2520, Note_on_c, 1, 71, 100
3, 2580, Note_on_c, 1, 71, 0
3, 2580, Note_on_c, 1, 69, 100
3, 2610, Note_on_c, 1, 69, 0
3, 2610, Note_on_c, 1, 67, 100
3, 2640, Note_on_c, 1, 67, 0
3, 2640, Note_on_c, 1, 65, 100
3, 2700, Note_on_c, 1, 65, 0
3, 2700, Note_on_c, 1, 64, 100
3, 2760, Note_on_c, 1, 64, 0
3, 2760, Note_on_c, 1, 62, 100
3, 2880, Note_on_c, 1, 62, 0
3, 2880, Note_on_c, 1, 69, 100
3, 3060, Note_on_c, 1, 69, 0
3, 3060, Note_on_c, 1, 67, 100
3, 3090, Note_on_c, 1, 67, 0
3, 3090, Note_on_c, 1, 65, 100
3, 3120, Note_on_c, 1, 65, 0
3, 3120, Note_on_c, 1, 64, 100
3, 3240, Note_on_c, 1, 64, 0
3, 3240, Note_on_c, 1, 64, 100
3, 3300, Note_on_c, 1, 64, 0
3, 3300, Note_on_c, 1, 65, 100
3, 3360, Note_on_c, 1, 65, 0
3, 3360, Note_on_c, 1, 67, 100
3, 3480, Note_on_c, 1, 67, 0
3, 3480, Note_on_c, 1, 67, 100
3, 3540, Note_on_c, 1, 67, 0
3, 3540, Note_on_c, 1, 69, 100
3, 3600, Note_on_c, 1, 69, 0
3, 3600, Note_on_c, 1, 71, 100
3, 3660, Note_on_c, 1, 71, 0
3, 3660, Note_on_c, 1, 72, 100
3, 3720, Note_on_c, 1, 72, 0
3, 3720, Note_on_c, 1, 74, 100
3, 3780, Note_on_c, 1, 74, 0
3, 3780, Note_on_c, 1, 72, 100
3, 3810, Note_on_c, 1, 72, 0
3, 3810, Note_on_c, 1, 71, 100
3, 3840, Note_on_c, 1, 71, 0
3, 3840, Note_on_c, 1, 69, 100
3, 3900, Note_on_c, 1, 69, 0
3, 3900, Note_on_c, 1, 67, 100
3, 3960, Note_on_c, 1, 67, 0
3, 3960, Note_on_c, 1, 65, 100
3, 4020, Note_on_c, 1, 65, 0
3, 4020, Note_on_c, 1, 64, 100
3, 4050, Note_on_c, 1, 64, 0
3, 4050, Note_on_c, 1, 62, 100
3, 4080, Note_on_c, 1, 62, 0
3, 4080, Note_on_c, 1, 60, 100
3, 4140, Note_on_c, 1, 60, 0
3, 4140, Note_on_c, 1, 59, 100
3, 4200, Note_on_c, 1, 59, 0
3, 4200, Note_on_c, 1, 57, 100
3, 4320, Note_on_c, 1, 57, 0
3, 4320, Note_on_c, 1, 64, 100
3, 4380, Note_on_c, 1, 64, 0
3, 4380, Note_on_c, 1, 65, 100
3, 4440, Note_on_c, 1, 65, 0
3, 4440, Note_on_c, 1, 67, 100
3, 4500, Note_on_c, 1, 67, 0
3, 4500, Note_on_c, 1, 69, 100
3, 4560, Note_on_c, 1, 69, 0
3, 4560, Note_on_c, 1, 71, 100
3, 4740, Note_on_c, 1, 71, 0
3, 4740, Note_on_c, 1, 72, 100
3, 4800, Note_on_c, 1, 72, 0
3, 4800, Note_on_c, 1, 74, 100
3, 4980, Note_on_c, 1, 74, 0
3, 4980, Note_on_c, 1, 72, 100
3, 5010, Note_on_c, 1, 72, 0
3, 5010, Note_on_c, 1, 71, 100
3, 5040, Note_on_c, 1, 71, 0
3, 5040, Note_on_c, 1, 69, 100
3, 5100, Note_on_c, 1, 69, 0
3, 5100, Note_on_c, 1, 67, 100
3, 5130, Note_on_c, 1, 67, 0
3, 5130, Note_on_c, 1, 65, 100
3, 5160, Note_on_c, 1, 65, 0
3, 5160, Note_on_c, 1, 64, 100
3, 5340, Note_on_c, 1, 64, 0
3, 5340, Note_on_c, 1, 65, 100
3, 5400, Note_on_c, 1, 65, 0
3, 5400, Note_on_c, 1, 67, 100
3, 5580, Note_on_c, 1, 67, 0
3, 5580, Note_on_c, 1, 65, 100
3, 5610, Note_on_c, 1, 65, 0
3, 5610, Note_on_c, 1, 64, 100
3, 5640, Note_on_c, 1, 64, 0
3, 5640, Note_on_c, 1, 62, 100
3, 5820, Note_on_c, 1, 62, 0
3, 5820, Note_on_c, 1, 64, 100
3, 5880, Note_on_c, 1, 64, 0
3, 5880, Note_on_c, 1, 65, 100
3, 5940, Note_on_c, 1, 65, 0
3, 5940, Note_on_c, 1, 67, 100
3, 6000, Note_on_c, 1, 67, 0
3, 6000, Note_on_c, 1, 69, 100
3, 6120, Note_on_c, 1, 69, 0
3, 6120, Note_on_c, 1, 57, 100
3, 6180, Note_on_c, 1, 57, 0
3, 6180, Note_on_c, 1, 59, 100
3, 6240, Note_on_c, 1, 59, 0
3, 6240, Note_on_c, 1, 60, 100
3, 6300, Note_on_c, 1, 60, 0
3, 6300, Note_on_c, 1, 62, 100
3, 6360, Note_on_c, 1, 62, 0
3, 6360, Note_on_c, 1, 64, 100
3, 6480, Note_on_c, 1, 64, 0
3, 6720, Note_on_c, 1, 62, 100
3, 6840, Note_on_c, 1, 62, 0
3, 6840, Note_on_c, 1, 62, 100
3, 6900, Note_on_c, 1, 62, 0
3, 6900, Note_on_c, 1, 64, 100
3, 6960, Note_on_c, 1, 64, 0
3, 6960, Note_on_c, 1, 65, 100
3, 7080, Note_on_c, 1, 65, 0
3, 7080, Note_on_c, 1, 65, 100
3, 7140, Note_on_c, 1, 65, 0
3, 7140, Note_on_c, 1, 67, 100
3, 7200, Note_on_c, 1, 67, 0
3, 7200, Note_on_c, 1, 69, 100
3, 7260, Note_on_c, 1, 69, 0
3, 7260, Note_on_c, 1, 71, 100
3, 7290, Note_on_c, 1, 71, 0
3, 7290, Note_on_c, 1, 69, 100
3, 7320, Note_on_c, 1, 69, 0
3, 7320, Note_on_c, 1, 67, 100
3, 7380, Note_on_c, 1, 67, 0
3, 7380, Note_on_c, 1, 65, 100
3, 7440, Note_on_c, 1, 65, 0
3, 7440, Note_on_c, 1, 64, 100
3, 7500, Note_on_c, 1, 64, 0
3, 7500, Note_on_c, 1, 67, 100
3, 7560, Note_on_c, 1, 67, 0
3, 7560, Note_on_c, 1, 65, 100
3, 7620, Note_on_c, 1, 65, 0
3, 7620, Note_on_c, 1, 64, 100
3, 7680, Note_on_c, 1, 64, 0
3, 7680, Note_on_c, 1, 62, 100
3, 7980, Note_on_c, 1, 62, 0
3, 7980, Note_on_c, 1, 64, 100
3, 8040, Note_on_c, 1, 64, 0
3, 8040, Note_on_c, 1, 65, 100
3, 8100, Note_on_c, 1, 65, 0
3, 8100, Note_on_c, 1, 67, 100
3, 8160, Note_on_c, 1, 67, 0
3, 8160, Note_on_c, 1, 69, 100
3, 8340, Note_on_c, 1, 69, 0
3, 8340, Note_on_c, 1, 69, 100
3, 8400, Note_on_c, 1, 69, 0
3, 8400, Note_on_c, 1, 67, 100
3, 8460, Note_on_c, 1, 67, 0
3, 8460, Note_on_c, 1, 65, 100
3, 8520, Note_on_c, 1, 65, 0
3, 8520, Note_on_c, 1, 64, 100
3, 8580, Note_on_c, 1, 64, 0
3, 8580, Note_on_c, 1, 65, 100
3, 8640, Note_on_c, 1, 65, 0
3, 8640, Note_on_c, 1, 67, 100
3, 8700, Note_on_c, 1, 67, 0
3, 8700, Note_on_c, 1, 69, 100
3, 8760, Note_on_c, 1, 69, 0
3, 8760, Note_on_c, 1, 71, 100
3, 8820, Note_on_c, 1, 71, 0
3, 8820, Note_on_c, 1, 69, 100
3, 8850, Note_on_c, 1, 69, 0
3, 8850, Note_on_c, 1, 67, 100
3, 8880, Note_on_c, 1, 67, 0
3, 8880, Note_on_c, 1, 65, 100
3, 8940, Note_on_c, 1, 65, 0
3, 8940, Note_on_c, 1, 64, 100
3, 9000, Note_on_c, 1, 64, 0
3, 9000, Note_on_c, 1, 62, 100
3, 9120, Note_on_c, 1, 62, 0
3, 9120, Note_on_c, 1, 69, 100
3, 9300, Note_on_c, 1, 69, 0
3, 9300, Note_on_c, 1, 67, 100
3, 9330, Note_on_c, 1, 67, 0
3, 9330, Note_on_c, 1, 65, 100
3, 9360, Note_on_c, 1, 65, 0
3, 9360, Note_on_c, 1, 64, 100
3, 9480, Note_on_c, 1, 64, 0
3, 9480, Note_on_c, 1, 64, 100
3, 9540, Note_on_c, 1, 64, 0
3, 9540, Note_on_c, 1, 65, 100
3, 9600, Note_on_c, 1, 65, 0
3, 9600, Note_on_c, 1, 67, 100
3, 9720, Note_on_c, 1, 67, 0
3, 9720, Note_on_c, 1, 67, 100
3, 9780, Note_on_c, 1, 67, 0
3, 9780, Note_on_c, 1, 69, 100
3, 9840, Note_on_c, 1, 69, 0
3, 9840, Note_on_c, 1, 71, 100
3, 9900, Note_on_c, 1, 71, 0
3, 9900, Note_on_c, 1, 72, 100
3, 9960, Note_on_c, 1, 72, 0
3, 9960, Note_on_c, 1, 74, 100
3, 10020, Note_on_c, 1, 74, 0
3, 10020, Note_on_c, 1, 72, 100
3, 10050, Note_on_c, 1, 72, 0
3, 10050, Note_on_c, 1, 71, 100
3, 10080, Note_on_c, 1, 71, 0
3, 10080, Note_on_c, 1, 69, 100
3, 10140, Note_on_c, 1, 69, 0
3, 10140, Note_on_c, 1, 67, 100
3, 10200, Note_on_c, 1, 67, 0
3, 10200, Note_on_c, 1, 65, 100
3, 10260, Note_on_c, 1, 65, 0
3, 10260, Note_on_c, 1, 64, 100
3, 10290, Note_on_c, 1, 64, 0
3, 10290, Note_on_c, 1, 62, 100
3, 10320, Note_on_c, 1, 62, 0
3, 10320, Note_on_c, 1, 60, 100
3, 10380, Note_on_c, 1, 60, 0
3, 10380, Note_on_c, 1, 59, 100
3, 10440, Note_on_c, 1, 59, 0
3, 10440, Note_on_c, 1, 57, 100
3, 10560, Note_on_c, 1, 57, 0
3, 10560, Note_on_c, 1, 64, 100
3, 10620, Note_on_c, 1, 64, 0
3, 10620, Note_on_c, 1, 65, 100
3, 10680, Note_on_c, 1, 65, 0
3, 10680, Note_on_c, 1, 67, 100
3, 10740, Note_on_c, 1, 67, 0
3, 10740, Note_on_c, 1, 69, 100
3, 10800, Note_on_c, 1, 69, 0
3, 10800, Note_on_c, 1, 71, 100
3, 10980, Note_on_c, 1, 71, 0
3, 10980, Note_on_c, 1, 72, 100
3, 11040, Note_on_c, 1, 72, 0
3, 11040, Note_on_c, 1, 74, 100
3, 11220, Note_on_c, 1, 74, 0
3, 11220, Note_on_c, 1, 72, 100
3, 11250, Note_on_c, 1, 72, 0
3, 11250, Note_on_c, 1, 71, 100
3, 11280, Note_on_c, 1, 71, 0
3, 11280, Note_on_c, 1, 69, 100
3, 11340, Note_on_c, 1, 69, 0
3, 11340, Note_on_c, 1, 67, 100
3, 11370, Note_on_c, 1, 67, 0
3, 11370, Note_on_c, 1, 65, 100
3, 11400, Note_on_c, 1, 65, 0
3, 11400, Note_on_c, 1, 64, 100
3, 11580, Note_on_c, 1, 64, 0
3, 11580, Note_on_c, 1, 65, 100
3, 11640, Note_on_c, 1, 65, 0
3, 11640, Note_on_c, 1, 67, 100
3, 11820, Note_on_c, 1, 67, 0
3, 11820, Note_on_c, 1, 65, 100
3, 11850, Note_on_c, 1, 65, 0
3, 11850, Note_on_c, 1, 64, 100
3, 11880, Note_on_c, 1, 64, 0
3, 11880, Note_on_c, 1, 62, 100
3, 12060, Note_on_c, 1, 62, 0
3, 12060, Note_on_c, 1, 64, 100
3, 12120, Note_on_c, 1, 64, 0
3, 12120, Note_on_c, 1, 65, 100
3, 12180, Note_on_c, 1, 65, 0
3, 12180, Note_on_c, 1, 67, 100
3, 12240, Note_on_c, 1, 67, 0
3, 12240, Note_on_c, 1, 69, 100
3, 12360, Note_on_c, 1, 69, 0
3, 12360, Note_on_c, 1, 57, 100
3, 12420, Note_on_c, 1, 57, 0
3, 12420, Note_on_c, 1, 59, 100
3, 12480, Note_on_c, 1, 59, 0
3, 12480, Note_on_c, 1, 60, 100
3, 12540, Note_on_c, 1, 60, 0
3, 12540, Note_on_c, 1, 62, 100
3, 12600, Note_on_c, 1, 62, 0
3, 12600, Note_on_c, 1, 64, 100
3, 12720, Note_on_c, 1, 64, 0
3, 12960, Note_on_c, 1, 62, 100
3, 13080, Note_on_c, 1, 62, 0
3, 13080, Note_on_c, 1, 62, 100
3, 13140, Note_on_c, 1, 62, 0
3, 13140, Note_on_c, 1, 64, 100
3, 13200, Note_on_c, 1, 64, 0
3, 13200, Note_on_c, 1, 65, 100
3, 13320, Note_on_c, 1, 65, 0
3, 13320, Note_on_c, 1, 65, 100
3, 13380, Note_on_c, 1, 65, 0
3, 13380, Note_on_c, 1, 67, 100
3, 13440, Note_on_c, 1, 67, 0
3, 13440, Note_on_c, 1, 69, 100
3, 13500, Note_on_c, 1, 69, 0
3, 13500, Note_on_c, 1, 71, 100
3, 13530, Note_on_c, 1, 71, 0
3, 13530, Note_on_c, 1, 69, 100
3, 13560, Note_on_c, 1, 69, 0
3, 13560, Note_on_c, 1, 67, 100
3, 13620, Note_on_c, 1, 67, 0
3, 13620, Note_on_c, 1, 65, 100
3, 13680, Note_on_c, 1, 65, 0
3, 13680, Note_on_c, 1, 64, 100
3, 13920, Note_on_c, 1, 64, 0
3, 13920, End_track
4, 0, Start_track
4, 0, MIDI_port, 0
4, 0, Title_t, "--------------------------------------"
4, 0, Program_c, 2, 42
4, 0, Control_c, 2, 7, 100
4, 0, Control_c, 2, 10, 44
4, 240, Note_on_c, 2, 55, 100
4, 360, Note_on_c, 2, 55, 0
4, 360, Note_on_c, 2, 55, 100
4, 420, Note_on_c, 2, 55, 0
4, 420, Note_on_c, 2, 57, 100
4, 480, Note_on_c, 2, 57, 0
4, 480, Note_on_c, 2, 59, 100
4, 600, Note_on_c, 2, 59, 0
4, 600, Note_on_c, 2, 59, 100
4, 660, Note_on_c, 2, 59, 0
4, 660, Note_on_c, 2, 60, 100
4, 720, Note_on_c, 2, 60, 0
4, 720, Note_on_c, 2, 62, 100
4, 780, Note_on_c, 2, 62, 0
4, 780, Note_on_c, 2, 64, 100
4, 810, Note_on_c, 2, 64, 0
4, 810, Note_on_c, 2, 62, 100
4, 840, Note_on_c, 2, 62, 0
4, 840, Note_on_c, 2, 60, 100
4, 900, Note_on_c, 2, 60, 0
4, 900, Note_on_c, 2, 59, 100
4, 960, Note_on_c, 2, 59, 0
4, 960, Note_on_c, 2, 57, 100
4, 1020, Note_on_c, 2, 57, 0
4, 1020, Note_on_c, 2, 60, 100
4, 1080, Note_on_c, 2, 60, 0
4, 1080, Note_on_c, 2, 59, 100
4, 1140, Note_on_c, 2, 59, 0
4, 1140, Note_on_c, 2, 57, 100
4, 1200, Note_on_c, 2, 57, 0
4, 1200, Note_on_c, 2, 55, 100
4, 1500, Note_on_c, 2, 55, 0
4, 1500, Note_on_c, 2, 57, 100
4, 1560, Note_on_c, 2, 57, 0
4, 1560, Note_on_c, 2, 59, 100
4, 1620, Note_on_c, 2, 59, 0
4, 1620, Note_on_c, 2, 60, 100
4, 1680, Note_on_c, 2, 60, 0
4, 1680, Note_on_c, 2, 62, 100
4, 1860, Note_on_c, 2, 62, 0
4, 1860, Note_on_c, 2, 62, 100
4, 1920, Note_on_c, 2, 62, 0
4, 1920, Note_on_c, 2, 60, 100
4, 1980, Note_on_c, 2, 60, 0
4, 1980, Note_on_c, 2, 59, 100
4, 2040, Note_on_c, 2, 59, 0
4, 2040, Note_on_c, 2, 57, 100
4, 2100, Note_on_c, 2, 57, 0
4, 2100, Note_on_c, 2, 59, 100
4, 2160, Note_on_c, 2, 59, 0
4, 2160, Note_on_c, 2, 60, 100
4, 2220, Note_on_c, 2, 60, 0
4, 2220, Note_on_c, 2, 62, 100
4, 2280, Note_on_c, 2, 62, 0
4, 2280, Note_on_c, 2, 64, 100
4, 2340, Note_on_c, 2, 64, 0
4, 2340, Note_on_c, 2, 62, 100
4, 2370, Note_on_c, 2, 62, 0
4, 2370, Note_on_c, 2, 60, 100
4, 2400, Note_on_c, 2, 60, 0
4, 2400, Note_on_c, 2, 59, 100
4, 2460, Note_on_c, 2, 59, 0
4, 2460, Note_on_c, 2, 57, 100
4, 2520, Note_on_c, 2, 57, 0
4, 2520, Note_on_c, 2, 55, 100
4, 2640, Note_on_c, 2, 55, 0
4, 2640, Note_on_c, 2, 62, 100
4, 2820, Note_on_c, 2, 62, 0
4, 2820, Note_on_c, 2, 60, 100
4, 2850, Note_on_c, 2, 60, 0
4, 2850, Note_on_c, 2, 59, 100
4, 2880, Note_on_c, 2, 59, 0
4, 2880, Note_on_c, 2, 57, 100
4, 3000, Note_on_c, 2, 57, 0
4, 3000, Note_on_c, 2, 57, 100
4, 3060, Note_on_c, 2, 57, 0
4, 3060, Note_on_c, 2, 59, 100
4, 3120, Note_on_c, 2, 59, 0
4, 3120, Note_on_c, 2, 60, 100
4, 3240, Note_on_c, 2, 60, 0
4, 3240, Note_on_c, 2, 60, 100
4, 3300, Note_on_c, 2, 60, 0
4, 3300, Note_on_c, 2, 62, 100
4, 3360, Note_on_c, 2, 62, 0
4, 3360, Note_on_c, 2, 64, 100
4, 3420, Note_on_c, 2, 64, 0
4, 3420, Note_on_c, 2, 65, 100
4, 3480, Note_on_c, 2, 65, 0
4, 3480, Note_on_c, 2, 67, 100
4, 3540, Note_on_c, 2, 67, 0
4, 3540, Note_on_c, 2, 65, 100
4, 3570, Note_on_c, 2, 65, 0
4, 3570, Note_on_c, 2, 64, 100
4, 3600, Note_on_c, 2, 64, 0
4, 3600, Note_on_c, 2, 62, 100
4, 3660, Note_on_c, 2, 62, 0
4, 3660, Note_on_c, 2, 60, 100
4, 3720, Note_on_c, 2, 60, 0
4, 3720, Note_on_c, 2, 59, 100
4, 3780, Note_on_c, 2, 59, 0
4, 3780, Note_on_c, 2, 57, 100
4, 3810, Note_on_c, 2, 57, 0
4, 3810, Note_on_c, 2, 55, 100
4, 3840, Note_on_c, 2, 55, 0
4, 3840, Note_on_c, 2, 53, 100
4, 3900, Note_on_c, 2, 53, 0
4, 3900, Note_on_c, 2, 52, 100
4, 3960, Note_on_c, 2, 52, 0
4, 3960, Note_on_c, 2, 50, 100
4, 4080, Note_on_c, 2, 50, 0
4, 4080, Note_on_c, 2, 57, 100
4, 4140, Note_on_c, 2, 57, 0
4, 4140, Note_on_c, 2, 59, 100
4, 4200, Note_on_c, 2, 59, 0
4, 4200, Note_on_c, 2, 60, 100
4, 4260, Note_on_c, 2, 60, 0
4, 4260, Note_on_c, 2, 62, 100
4, 4320, Note_on_c, 2, 62, 0
4, 4320, Note_on_c, 2, 64, 100
4, 4500, Note_on_c, 2, 64, 0
4, 4500, Note_on_c, 2, 65, 100
4, 4560, Note_on_c, 2, 65, 0
4, 4560, Note_on_c, 2, 67, 100
4, 4740, Note_on_c, 2, 67, 0
4, 4740, Note_on_c, 2, 65, 100
4, 4770, Note_on_c, 2, 65, 0
4, 4770, Note_on_c, 2, 64, 100
4, 4800, Note_on_c, 2, 64, 0
4, 4800, Note_on_c, 2, 62, 100
4, 4860, Note_on_c, 2, 62, 0
4, 4860, Note_on_c, 2, 60, 100
4, 4890, Note_on_c, 2, 60, 0
4, 4890, Note_on_c, 2, 59, 100
4, 4920, Note_on_c, 2, 59, 0
4, 4920, Note_on_c, 2, 57, 100
4, 5100, Note_on_c, 2, 57, 0
4, 5100, Note_on_c, 2, 59, 100
4, 5160, Note_on_c, 2, 59, 0
4, 5160, Note_on_c, 2, 60, 100
4, 5340, Note_on_c, 2, 60, 0
4, 5340, Note_on_c, 2, 59, 100
4, 5370, Note_on_c, 2, 59, 0
4, 5370, Note_on_c, 2, 57, 100
4, 5400, Note_on_c, 2, 57, 0
4, 5400, Note_on_c, 2, 55, 100
4, 5580, Note_on_c, 2, 55, 0
4, 5580, Note_on_c, 2, 57, 100
4, 5640, Note_on_c, 2, 57, 0
4, 5640, Note_on_c, 2, 59, 100
4, 5700, Note_on_c, 2, 59, 0
4, 5700, Note_on_c, 2, 60, 100
4, 5760, Note_on_c, 2, 60, 0
4, 5760, Note_on_c, 2, 62, 100
4, 5880, Note_on_c, 2, 62, 0
4, 5880, Note_on_c, 2, 50, 100
4, 5940, Note_on_c, 2, 50, 0
4, 5940, Note_on_c, 2, 52, 100
4, 6000, Note_on_c, 2, 52, 0
4, 6000, Note_on_c, 2, 53, 100
4, 6060, Note_on_c, 2, 53, 0
4, 6060, Note_on_c, 2, 55, 100
4, 6120, Note_on_c, 2, 55, 0
4, 6120, Note_on_c, 2, 57, 100
4, 6240, Note_on_c, 2, 57, 0
4, 6480, Note_on_c, 2, 55, 100
4, 6600, Note_on_c, 2, 55, 0
4, 6600, Note_on_c, 2, 55, 100
4, 6660, Note_on_c, 2, 55, 0
4, 6660, Note_on_c, 2, 57, 100
4, 6720, Note_on_c, 2, 57, 0
4, 6720, Note_on_c, 2, 59, 100
4, 6840, Note_on_c, 2, 59, 0
4, 6840, Note_on_c, 2, 59, 100
4, 6900, Note_on_c, 2, 59, 0
4, 6900, Note_on_c, 2, 60, 100
4, 6960, Note_on_c, 2, 60, 0
4, 6960, Note_on_c, 2, 62, 100
4, 7020, Note_on_c, 2, 62, 0
4, 7020, Note_on_c, 2, 64, 100
4, 7050, Note_on_c, 2, 64, 0
4, 7050, Note_on_c, 2, 62, 100
4, 7080, Note_on_c, 2, 62, 0
4, 7080, Note_on_c, 2, 60, 100
4, 7140, Note_on_c, 2, 60, 0
4, 7140, Note_on_c, 2, 59, 100
4, 7200, Note_on_c, 2, 59, 0
4, 7200, Note_on_c, 2, 57, 100
4, 7260, Note_on_c, 2, 57, 0
4, 7260, Note_on_c, 2, 60, 100
4, 7320, Note_on_c, 2, 60, 0
4, 7320, Note_on_c, 2, 59, 100
4, 7380, Note_on_c, 2, 59, 0
4, 7380, Note_on_c, 2, 57, 100
4, 7440, Note_on_c, 2, 57, 0
4, 7440, Note_on_c, 2, 55, 100
4, 7740, Note_on_c, 2, 55, 0
4, 7740, Note_on_c, 2, 57, 100
4, 7800, Note_on_c, 2, 57, 0
4, 7800, Note_on_c, 2, 59, 100
4, 7860, Note_on_c, 2, 59, 0
4, 7860, Note_on_c, 2, 60, 100
4, 7920, Note_on_c, 2, 60, 0
4, 7920, Note_on_c, 2, 62, 100
4, 8100, Note_on_c, 2, 62, 0
4, 8100, Note_on_c, 2, 62, 100
4, 8160, Note_on_c, 2, 62, 0
4, 8160, Note_on_c, 2, 60, 100
4, 8220, Note_on_c, 2, 60, 0
4, 8220, Note_on_c, 2, 59, 100
4, 8280, Note_on_c, 2, 59, 0
4, 8280, Note_on_c, 2, 57, 100
4, 8340, Note_on_c, 2, 57, 0
4, 8340, Note_on_c, 2, 59, 100
4, 8400, Note_on_c, 2, 59, 0
4, 8400, Note_on_c, 2, 60, 100
4, 8460, Note_on_c, 2, 60, 0
4, 8460, Note_on_c, 2, 62, 100
4, 8520, Note_on_c, 2, 62, 0
4, 8520, Note_on_c, 2, 64, 100
4, 8580, Note_on_c, 2, 64, 0
4, 8580, Note_on_c, 2, 62, 100
4, 8610, Note_on_c, 2, 62, 0
4, 8610, Note_on_c, 2, 60, 100
4, 8640, Note_on_c, 2, 60, 0
4, 8640, Note_on_c, 2, 59, 100
4, 8700, Note_on_c, 2, 59, 0
4, 8700, Note_on_c, 2, 57, 100
4, 8760, Note_on_c, 2, 57, 0
4, 8760, Note_on_c, 2, 55, 100
4, 8880, Note_on_c, 2, 55, 0
4, 8880, Note_on_c, 2, 62, 100
4, 9060, Note_on_c, 2, 62, 0
4, 9060, Note_on_c, 2, 60, 100
4, 9090, Note_on_c, 2, 60, 0
4, 9090, Note_on_c, 2, 59, 100
4, 9120, Note_on_c, 2, 59, 0
4, 9120, Note_on_c, 2, 57, 100
4, 9240, Note_on_c, 2, 57, 0
4, 9240, Note_on_c, 2, 57, 100
4, 9300, Note_on_c, 2, 57, 0
4, 9300, Note_on_c, 2, 59, 100
4, 9360, Note_on_c, 2, 59, 0
4, 9360, Note_on_c, 2, 60, 100
4, 9480, Note_on_c, 2, 60, 0
4, 9480, Note_on_c, 2, 60, 100
4, 9540, Note_on_c, 2, 60, 0
4, 9540, Note_on_c, 2, 62, 100
4, 9600, Note_on_c, 2, 62, 0
4, 9600, Note_on_c, 2, 64, 100
4, 9660, Note_on_c, 2, 64, 0
4, 9660, Note_on_c, 2, 65, 100
4, 9720, Note_on_c, 2, 65, 0
4, 9720, Note_on_c, 2, 67, 100
4, 9780, Note_on_c, 2, 67, 0
4, 9780, Note_on_c, 2, 65, 100
4, 9810, Note_on_c, 2, 65, 0
4, 9810, Note_on_c, 2, 64, 100
4, 9840, Note_on_c, 2, 64, 0
4, 9840, Note_on_c, 2, 62, 100
4, 9900, Note_on_c, 2, 62, 0
4, 9900, Note_on_c, 2, 60, 100
4, 9960, Note_on_c, 2, 60, 0
4, 9960, Note_on_c, 2, 59, 100
4, 10020, Note_on_c, 2, 59, 0
4, 10020, Note_on_c, 2, 57, 100
4, 10050, Note_on_c, 2, 57, 0
4, 10050, Note_on_c, 2, 55, 100
4, 10080, Note_on_c, 2, 55, 0
4, 10080, Note_on_c, 2, 53, 100
4, 10140, Note_on_c, 2, 53, 0
4, 10140, Note_on_c, 2, 52, 100
4, 10200, Note_on_c, 2, 52, 0
4, 10200, Note_on_c, 2, 50, 100
4, 10320, Note_on_c, 2, 50, 0
4, 10320, Note_on_c, 2, 57, 100
4, 10380, Note_on_c, 2, 57, 0
4, 10380, Note_on_c, 2, 59, 100
4, 10440, Note_on_c, 2, 59, 0
4, 10440, Note_on_c, 2, 60, 100
4, 10500, Note_on_c, 2, 60, 0
4, 10500, Note_on_c, 2, 62, 100
4, 10560, Note_on_c, 2, 62, 0
4, 10560, Note_on_c, 2, 64, 100
4, 10740, Note_on_c, 2, 64, 0
4, 10740, Note_on_c, 2, 65, 100
4, 10800, Note_on_c, 2, 65, 0
4, 10800, Note_on_c, 2, 67, 100
4, 10980, Note_on_c, 2, 67, 0
4, 10980, Note_on_c, 2, 65, 100
4, 11010, Note_on_c, 2, 65, 0
4, 11010, Note_on_c, 2, 64, 100
4, 11040, Note_on_c, 2, 64, 0
4, 11040, Note_on_c, 2, 62, 100
4, 11100, Note_on_c, 2, 62, 0
4, 11100, Note_on_c, 2, 60, 100
4, 11130, Note_on_c, 2, 60, 0
4, 11130, Note_on_c, 2, 59, 100
4, 11160, Note_on_c, 2, 59, 0
4, 11160, Note_on_c, 2, 57, 100
4, 11340, Note_on_c, 2, 57, 0
4, 11340, Note_on_c, 2, 59, 100
4, 11400, Note_on_c, 2, 59, 0
4, 11400, Note_on_c, 2, 60, 100
4, 11580, Note_on_c, 2, 60, 0
4, 11580, Note_on_c, 2, 59, 100
4, 11610, Note_on_c, 2, 59, 0
4, 11610, Note_on_c, 2, 57, 100
4, 11640, Note_on_c, 2, 57, 0
4, 11640, Note_on_c, 2, 55, 100
4, 11820, Note_on_c, 2, 55, 0
4, 11820, Note_on_c, 2, 57, 100
4, 11880, Note_on_c, 2, 57, 0
4, 11880, Note_on_c, 2, 59, 100
4, 11940, Note_on_c, 2, 59, 0
4, 11940, Note_on_c, 2, 60, 100
4, 12000, Note_on_c, 2, 60, 0
4, 12000, Note_on_c, 2, 62, 100
4, 12120, Note_on_c, 2, 62, 0
4, 12120, Note_on_c, 2, 50, 100
4, 12180, Note_on_c, 2, 50, 0
4, 12180, Note_on_c, 2, 52, 100
4, 12240, Note_on_c, 2, 52, 0
4, 12240, Note_on_c, 2, 53, 100
4, 12300, Note_on_c, 2, 53, 0
4, 12300, Note_on_c, 2, 55, 100
4, 12360, Note_on_c, 2, 55, 0
4, 12360, Note_on_c, 2, 57, 100
4, 12480, Note_on_c, 2, 57, 0
4, 12720, Note_on_c, 2, 55, 100
4, 12840, Note_on_c, 2, 55, 0
4, 12840, Note_on_c, 2, 55, 100
4, 12900, Note_on_c, 2, 55, 0
4, 12900, Note_on_c, 2, 57, 100
4, 12960, Note_on_c, 2, 57, 0
4, 12960, Note_on_c, 2, 59, 100
4, 13080, Note_on_c, 2, 59, 0
4, 13080, Note_on_c, 2, 59, 100
4, 13140, Note_on_c, 2, 59, 0
4, 13140, Note_on_c, 2, 60, 100
4, 13200, Note_on_c, 2, 60, 0
4, 13200, Note_on_c, 2, 62, 100
4, 13260, Note_on_c, 2, 62, 0
4, 13260, Note_on_c, 2, 64, 100
4, 13290, Note_on_c, 2, 64, 0
4, 13290, Note_on_c, 2, 62, 100
4, 13320, Note_on_c, 2, 62, 0
4, 13320, Note_on_c, 2, 60, 100
4, 13380, Note_on_c, 2, 60, 0
4, 13380, Note_on_c, 2, 59, 100
4, 13440, Note_on_c, 2, 59, 0
4, 13440, Note_on_c, 2, 57, 100
4, 13500, Note_on_c, 2, 57, 0
4, 13500, Note_on_c, 2, 60, 100
4, 13560, Note_on_c, 2, 60, 0
4, 13560, Note_on_c, 2, 59, 100
4, 13620, Note_on_c, 2, 59, 0
4, 13620, Note_on_c, 2, 57, 100
4, 13680, Note_on_c, 2, 57, 0
4, 13680, Note_on_c, 2, 55, 100
4, 13920, Note_on_c, 2, 55, 0
4, 13920, End_track
5, 0, Start_track
5, 0, MIDI_port, 0
5, 0, Title_t, "Johann Sebastian Bach  (1685-1750)"
5, 0, Program_c, 3, 43
5, 0, Control_c, 3, 7, 100
5, 0, Control_c, 3, 10, 4
5, 0, Note_on_c, 3, 48, 100
5, 120, Note_on_c, 3, 48, 0
5, 120, Note_on_c, 3, 48, 100
5, 180, Note_on_c, 3, 48, 0
5, 180, Note_on_c, 3, 50, 100
5, 240, Note_on_c, 3, 50, 0
5, 240, Note_on_c, 3, 52, 100
5, 360, Note_on_c, 3, 52, 0
5, 360, Note_on_c, 3, 52, 100
5, 420, Note_on_c, 3, 52, 0
5, 420, Note_on_c, 3, 53, 100
5, 480, Note_on_c, 3, 53, 0
5, 480, Note_on_c, 3, 55, 100
5, 540, Note_on_c, 3, 55, 0
5, 540, Note_on_c, 3, 57, 100
5, 570, Note_on_c, 3, 57, 0
5, 570, Note_on_c, 3, 55, 100
5, 600, Note_on_c, 3, 55, 0
5, 600, Note_on_c, 3, 53, 100
5, 660, Note_on_c, 3, 53, 0
5, 660, Note_on_c, 3, 52, 100
5, 720, Note_on_c, 3, 52, 0
5, 720, Note_on_c, 3, 50, 100
5, 780, Note_on_c, 3, 50, 0
5, 780, Note_on_c, 3, 53, 100
5, 840, Note_on_c, 3, 53, 0
5, 840, Note_on_c, 3, 52, 100
5, 900, Note_on_c, 3, 52, 0
5, 900, Note_on_c, 3, 50, 100
5, 960, Note_on_c, 3, 50, 0
5, 960, Note_on_c, 3, 48, 100
5, 1260, Note_on_c, 3, 48, 0
5, 1260, Note_on_c, 3, 50, 100
5, 1320, Note_on_c, 3, 50, 0
5, 1320, Note_on_c, 3, 52, 100
5, 1380, Note_on_c, 3, 52, 0
5, 1380, Note_on_c, 3, 53, 100
5, 1440, Note_on_c, 3, 53, 0
5, 1440, Note_on_c, 3, 55, 100
5, 1620, Note_on_c, 3, 55, 0
5, 1620, Note_on_c, 3, 55, 100
5, 1680, Note_on_c, 3, 55, 0
5, 1680, Note_on_c, 3, 53, 100
5, 1740, Note_on_c, 3, 53, 0
5, 1740, Note_on_c, 3, 52, 100
5, 1800, Note_on_c, 3, 52, 0
5, 1800, Note_on_c, 3, 50, 100
5, 1860, Note_on_c, 3, 50, 0
5, 1860, Note_on_c, 3, 52, 100
5, 1920, Note_on_c, 3, 52, 0
5, 1920, Note_on_c, 3, 53, 100
5, 1980, Note_on_c, 3, 53, 0
5, 1980, Note_on_c, 3, 55, 100
5, 2040, Note_on_c, 3, 55, 0
5, 2040, Note_on_c, 3, 57, 100
5, 2100, Note_on_c, 3, 57, 0
5, 2100, Note_on_c, 3, 55, 100
5, 2130, Note_on_c, 3, 55, 0
5, 2130, Note_on_c, 3, 53, 100
5, 2160, Note_on_c, 3, 53, 0
5, 2160, Note_on_c, 3, 52, 100
5, 2220, Note_on_c, 3, 52, 0
5, 2220, Note_on_c, 3, 50, 100
5, 2280, Note_on_c, 3, 50, 0
5, 2280, Note_on_c, 3, 48, 100
5, 2400, Note_on_c, 3, 48, 0
5, 2400, Note_on_c, 3, 55, 100
5, 2580, Note_on_c, 3, 55, 0
5, 2580, Note_on_c, 3, 53, 100
5, 2610, Note_on_c, 3, 53, 0
5, 2610, Note_on_c, 3, 52, 100
5, 2640, Note_on_c, 3, 52, 0
5, 2640, Note_on_c, 3, 50, 100
5, 2760, Note_on_c, 3, 50, 0
5, 2760, Note_on_c, 3, 50, 100
5, 2820, Note_on_c, 3, 50, 0
5, 2820, Note_on_c, 3, 52, 100
5, 2880, Note_on_c, 3, 52, 0
5, 2880, Note_on_c, 3, 53, 100
5, 3000, Note_on_c, 3, 53, 0
5, 3000, Note_on_c, 3, 53, 100
5, 3060, Note_on_c, 3, 53, 0
5, 3060, Note_on_c, 3, 55, 100
5, 3120, Note_on_c, 3, 55, 0
5, 3120, Note_on_c, 3, 57, 100
5, 3180, Note_on_c, 3, 57, 0
5, 3180, Note_on_c, 3, 59, 100
5, 3240, Note_on_c, 3, 59, 0
5, 3240, Note_on_c, 3, 60, 100
5, 3300, Note_on_c, 3, 60, 0
5, 3300, Note_on_c, 3, 59, 100
5, 3330, Note_on_c, 3, 59, 0
5, 3330, Note_on_c, 3, 57, 100
5, 3360, Note_on_c, 3, 57, 0
5, 3360, Note_on_c, 3, 55, 100
5, 3420, Note_on_c, 3, 55, 0
5, 3420, Note_on_c, 3, 53, 100
5, 3480, Note_on_c, 3, 53, 0
5, 3480, Note_on_c, 3, 52, 100
5, 3540, Note_on_c, 3, 52, 0
5, 3540, Note_on_c, 3, 50, 100
5, 3570, Note_on_c, 3, 50, 0
5, 3570, Note_on_c, 3, 48, 100
5, 3600, Note_on_c, 3, 48, 0
5, 3600, Note_on_c, 3, 47, 100
5, 3660, Note_on_c, 3, 47, 0
5, 3660, Note_on_c, 3, 45, 100
5, 3720, Note_on_c, 3, 45, 0
5, 3720, Note_on_c, 3, 43, 100
5, 3840, Note_on_c, 3, 43, 0
5, 3840, Note_on_c, 3, 50, 100
5, 3900, Note_on_c, 3, 50, 0
5, 3900, Note_on_c, 3, 52, 100
5, 3960, Note_on_c, 3, 52, 0
5, 3960, Note_on_c, 3, 53, 100
5, 4020, Note_on_c, 3, 53, 0
5, 4020, Note_on_c, 3, 55, 100
5, 4080, Note_on_c, 3, 55, 0
5, 4080, Note_on_c, 3, 57, 100
5, 4260, Note_on_c, 3, 57, 0
5, 4260, Note_on_c, 3, 59, 100
5, 4320, Note_on_c, 3, 59, 0
5, 4320, Note_on_c, 3, 60, 100
5, 4500, Note_on_c, 3, 60, 0
5, 4500, Note_on_c, 3, 59, 100
5, 4530, Note_on_c, 3, 59, 0
5, 4530, Note_on_c, 3, 57, 100
5, 4560, Note_on_c, 3, 57, 0
5, 4560, Note_on_c, 3, 55, 100
5, 4620, Note_on_c, 3, 55, 0
5, 4620, Note_on_c, 3, 53, 100
5, 4650, Note_on_c, 3, 53, 0
5, 4650, Note_on_c, 3, 52, 100
5, 4680, Note_on_c, 3, 52, 0
5, 4680, Note_on_c, 3, 50, 100
5, 4860, Note_on_c, 3, 50, 0
5, 4860, Note_on_c, 3, 52, 100
5, 4920, Note_on_c, 3, 52, 0
5, 4920, Note_on_c, 3, 53, 100
5, 5100, Note_on_c, 3, 53, 0
5, 5100, Note_on_c, 3, 52, 100
5, 5130, Note_on_c, 3, 52, 0
5, 5130, Note_on_c, 3, 50, 100
5, 5160, Note_on_c, 3, 50, 0
5, 5160, Note_on_c, 3, 48, 100
5, 5340, Note_on_c, 3, 48, 0
5, 5340, Note_on_c, 3, 50, 100
5, 5400, Note_on_c, 3, 50, 0
5, 5400, Note_on_c, 3, 52, 100
5, 5460, Note_on_c, 3, 52, 0
5, 5460, Note_on_c, 3, 53, 100
5, 5520, Note_on_c, 3, 53, 0
5, 5520, Note_on_c, 3, 55, 100
5, 5640, Note_on_c, 3, 55, 0
5, 5640, Note_on_c, 3, 43, 100
5, 5700, Note_on_c, 3, 43, 0
5, 5700, Note_on_c, 3, 45, 100
5, 5760, Note_on_c, 3, 45, 0
5, 5760, Note_on_c, 3, 47, 100
5, 5820, Note_on_c, 3, 47, 0
5, 5820, Note_on_c, 3, 48, 100
5, 5880, Note_on_c, 3, 48, 0
5, 5880, Note_on_c, 3, 50, 100
5, 6000, Note_on_c, 3, 50, 0
5, 6240, Note_on_c, 3, 48, 100
5, 6360, Note_on_c, 3, 48, 0
5, 6360, Note_on_c, 3, 48, 100
5, 6420, Note_on_c, 3, 48, 0
5, 6420, Note_on_c, 3, 50, 100
5, 6480, Note_on_c, 3, 50, 0
5, 6480, Note_on_c, 3, 52, 100
5, 6600, Note_on_c, 3, 52, 0
5, 6600, Note_on_c, 3, 52, 100
5, 6660, Note_on_c, 3, 52, 0
5, 6660, Note_on_c, 3, 53, 100
5, 6720, Note_on_c, 3, 53, 0
5, 6720, Note_on_c, 3, 55, 100
5, 6780, Note_on_c, 3, 55, 0
5, 6780, Note_on_c, 3, 57, 100
5, 6810, Note_on_c, 3, 57, 0
5, 6810, Note_on_c, 3, 55, 100
5, 6840, Note_on_c, 3, 55, 0
5, 6840, Note_on_c, 3, 53, 100
5, 6900, Note_on_c, 3, 53, 0
5, 6900, Note_on_c, 3, 52, 100
5, 6960, Note_on_c, 3, 52, 0
5, 6960, Note_on_c, 3, 50, 100
5, 7020, Note_on_c, 3, 50, 0
5, 7020, Note_on_c, 3, 53, 100
5, 7080, Note_on_c, 3, 53, 0
5, 7080, Note_on_c, 3, 52, 100
5, 7140, Note_on_c, 3, 52, 0
5, 7140, Note_on_c, 3, 50, 100
5, 7200, Note_on_c, 3, 50, 0
5, 7200, Note_on_c, 3, 48, 100
5, 7500, Note_on_c, 3, 48, 0
5, 7500, Note_on_c, 3, 50, 100
5, 7560, Note_on_c, 3, 50, 0
5, 7560, Note_on_c, 3, 52, 100
5, 7620, Note_on_c, 3, 52, 0
5, 7620, Note_on_c, 3, 53, 100
5, 7680, Note_on_c, 3, 53, 0
5, 7680, Note_on_c, 3, 55, 100
5, 7860, Note_on_c, 3, 55, 0
5, 7860, Note_on_c, 3, 55, 100
5, 7920, Note_on_c, 3, 55, 0
5, 7920, Note_on_c, 3, 53, 100
5, 7980, Note_on_c, 3, 53, 0
5, 7980, Note_on_c, 3, 52, 100
5, 8040, Note_on_c, 3, 52, 0
5, 8040, Note_on_c, 3, 50, 100
5, 8100, Note_on_c, 3, 50, 0
5, 8100, Note_on_c, 3, 52, 100
5, 8160, Note_on_c, 3, 52, 0
5, 8160, Note_on_c, 3, 53, 100
5, 8220, Note_on_c, 3, 53, 0
5, 8220, Note_on_c, 3, 55, 100
5, 8280, Note_on_c, 3, 55, 0
5, 8280, Note_on_c, 3, 57, 100
5, 8340, Note_on_c, 3, 57, 0
5, 8340, Note_on_c, 3, 55, 100
5, 8370, Note_on_c, 3, 55, 0
5, 8370, Note_on_c, 3, 53, 100
5, 8400, Note_on_c, 3, 53, 0
5, 8400, Note_on_c, 3, 52, 100
5, 8460, Note_on_c, 3, 52, 0
5, 8460, Note_on_c, 3, 50, 100
5, 8520, Note_on_c, 3, 50, 0
5, 8520, Note_on_c, 3, 48, 100
5, 8640, Note_on_c, 3, 48, 0
5, 8640, Note_on_c, 3, 55, 100
5, 8820, Note_on_c, 3, 55, 0
5, 8820, Note_on_c, 3, 53, 100
5, 8850, Note_on_c, 3, 53, 0
5, 8850, Note_on_c, 3, 52, 100
5, 8880, Note_on_c, 3, 52, 0
5, 8880, Note_on_c, 3, 50, 100
5, 9000, Note_on_c, 3, 50, 0
5, 9000, Note_on_c, 3, 50, 100
5, 9060, Note_on_c, 3, 50, 0
5, 9060, Note_on_c, 3, 52, 100
5, 9120, Note_on_c, 3, 52, 0
5, 9120, Note_on_c, 3, 53, 100
5, 9240, Note_on_c, 3, 53, 0
5, 9240, Note_on_c, 3, 53, 100
5, 9300, Note_on_c, 3, 53, 0
5, 9300, Note_on_c, 3, 55, 100
5, 9360, Note_on_c, 3, 55, 0
5, 9360, Note_on_c, 3, 57, 100
5, 9420, Note_on_c, 3, 57, 0
5, 9420, Note_on_c, 3, 59, 100
5, 9480, Note_on_c, 3, 59, 0
5, 9480, Note_on_c, 3, 60, 100
5, 9540, Note_on_c, 3, 60, 0
5, 9540, Note_on_c, 3, 59, 100
5, 9570, Note_on_c, 3, 59, 0
5, 9570, Note_on_c, 3, 57, 100
5, 9600, Note_on_c, 3, 57, 0
5, 9600, Note_on_c, 3, 55, 100
5, 9660, Note_on_c, 3, 55, 0
5, 9660, Note_on_c, 3, 53, 100
5, 9720, Note_on_c, 3, 53, 0
5, 9720, Note_on_c, 3, 52, 100
5, 9780, Note_on_c, 3, 52, 0
5, 9780, Note_on_c, 3, 50, 100
5, 9810, Note_on_c, 3, 50, 0
5, 9810, Note_on_c, 3, 48, 100
5, 9840, Note_on_c, 3, 48, 0
5, 9840, Note_on_c, 3, 47, 100
5, 9900, Note_on_c, 3, 47, 0
5, 9900, Note_on_c, 3, 45, 100
5, 9960, Note_on_c, 3, 45, 0
5, 9960, Note_on_c, 3, 43, 100
5, 10080, Note_on_c, 3, 43, 0
5, 10080, Note_on_c, 3, 50, 100
5, 10140, Note_on_c, 3, 50, 0
5, 10140, Note_on_c, 3, 52, 100
5, 10200, Note_on_c, 3, 52, 0
5, 10200, Note_on_c, 3, 53, 100
5, 10260, Note_on_c, 3, 53, 0
5, 10260, Note_on_c, 3, 55, 100
5, 10320, Note_on_c, 3, 55, 0
5, 10320, Note_on_c, 3, 57, 100
5, 10500, Note_on_c, 3, 57, 0
5, 10500, Note_on_c, 3, 59, 100
5, 10560, Note_on_c, 3, 59, 0
5, 10560, Note_on_c, 3, 60, 100
5, 10740, Note_on_c, 3, 60, 0
5, 10740, Note_on_c, 3, 59, 100
5, 10770, Note_on_c, 3, 59, 0
5, 10770, Note_on_c, 3, 57, 100
5, 10800, Note_on_c, 3, 57, 0
5, 10800, Note_on_c, 3, 55, 100
5, 10860, Note_on_c, 3, 55, 0
5, 10860, Note_on_c, 3, 53, 100
5, 10890, Note_on_c, 3, 53, 0
5, 10890, Note_on_c, 3, 52, 100
5, 10920, Note_on_c, 3, 52, 0
5, 10920, Note_on_c, 3, 50, 100
5, 11100, Note_on_c, 3, 50, 0
5, 11100, Note_on_c, 3, 52, 100
5, 11160, Note_on_c, 3, 52, 0
5, 11160, Note_on_c, 3, 53, 100
5, 11340, Note_on_c, 3, 53, 0
5, 11340, Note_on_c, 3, 52, 100
5, 11370, Note_on_c, 3, 52, 0
5, 11370, Note_on_c, 3, 50, 100
5, 11400, Note_on_c, 3, 50, 0
5, 11400, Note_on_c, 3, 48, 100
5, 11580, Note_on_c, 3, 48, 0
5, 11580, Note_on_c, 3, 50, 100
5, 11640, Note_on_c, 3, 50, 0
5, 11640, Note_on_c, 3, 52, 100
5, 11700, Note_on_c, 3, 52, 0
5, 11700, Note_on_c, 3, 53, 100
5, 11760, Note_on_c, 3, 53, 0
5, 11760, Note_on_c, 3, 55, 100
5, 11880, Note_on_c, 3, 55, 0
5, 11880, Note_on_c, 3, 43, 100
5, 11940, Note_on_c, 3, 43, 0
5, 11940, Note_on_c, 3, 45, 100
5, 12000, Note_on_c, 3, 45, 0
5, 12000, Note_on_c, 3, 47, 100
5, 12060, Note_on_c, 3, 47, 0
5, 12060, Note_on_c, 3, 48, 100
5, 12120, Note_on_c, 3, 48, 0
5, 12120, Note_on_c, 3, 50, 100
5, 12240, Note_on_c, 3, 50, 0
5, 12480, Note_on_c, 3, 48, 100
5, 12600, Note_on_c, 3, 48, 0
5, 12600, Note_on_c, 3, 48, 100
5, 12660, Note_on_c, 3, 48, 0
5, 12660, Note_on_c, 3, 50, 100
5, 12720, Note_on_c, 3, 50, 0
5, 12720, Note_on_c, 3, 52, 100
5, 12840, Note_on_c, 3, 52, 0
5, 12840, Note_on_c, 3, 52, 100
5, 12900, Note_on_c, 3, 52, 0
5, 12900, Note_on_c, 3, 53, 100
5, 12960, Note_on_c, 3, 53, 0
5, 12960, Note_on_c, 3, 55, 100
5, 13020, Note_on_c, 3, 55, 0
5, 13020, Note_on_c, 3, 57, 100
5, 13050, Note_on_c, 3, 57, 0
5, 13050, Note_on_c, 3, 55, 100
5, 13080, Note_on_c, 3, 55, 0
5, 13080, Note_on_c, 3, 53, 100
5, 13140, Note_on_c, 3, 53, 0
5, 13140, Note_on_c, 3, 52, 100
5, 13200, Note_on_c, 3, 52, 0
5, 13200, Note_on_c, 3, 50, 100
5, 13260, Note_on_c, 3, 50, 0
5, 13260, Note_on_c, 3, 53, 100
5, 13320, Note_on_c, 3, 53, 0
5, 13320, Note_on_c, 3, 52, 100
5, 13380, Note_on_c, 3, 52, 0
5, 13380, Note_on_c, 3, 50, 100
5, 13440, Note_on_c, 3, 50, 0
5, 13440, Note_on_c, 3, 48, 100
5, 13920, Note_on_c, 3, 48, 0
5, 13920, End_track
6, 0, Start_track
6, 0, MIDI_port, 0
6, 0, Title_t, "Canon a 4 perpetuus 2 Aug"
6, 0, End_track
7, 0, Start_track
7, 0, MIDI_port, 0
7, 0, Title_t, "BWV 1073"
7, 0, End_track
8, 0, Start_track
8, 0, MIDI_port, 0
8, 0, Title_t, "--------------------------------------"
8, 0, End_track
9, 0, Start_track
9, 0, MIDI_port, 0
9, 0, Title_t, "Sequenced with Cakewalk Pro Audio by"
9, 0, End_track
10, 0, Start_track
10, 0, MIDI_port, 0
10, 0, Title_t, "David J. Grossman - dave@unpronounceable.com"
10, 0, End_track
11, 0, Start_track
11, 0, MIDI_port, 0
11, 0, Title_t, "This and other Bach MIDI files can be found at:"
11, 0, End_track
12, 0, Start_track
12, 0, MIDI_port, 0
12, 0, Title_t, "Dave's J.S. Bach Page"
12, 0, End_track
13, 0, Start_track
13, 0, MIDI_port, 0
13, 0, Title_t, "http://www.unpronounceable.com/bach"
13, 0, End_track
14, 0, Start_track
14, 0, MIDI_port, 0
14, 0, Title_t, "For more info about this work, check out:"
14, 0, End_track
15, 0, Start_track
15, 0, MIDI_port, 0
15, 0, Title_t, "http://jan.ucc.nau.edu/~tas3/bachindex.html"
15, 0, End_track
16, 0, Start_track
16, 0, MIDI_port, 0
16, 0, Title_t, "Original Filename: bwv1073.mid"
16, 0, End_track
17, 0, Start_track
17, 0, MIDI_port, 0
17, 0, Title_t, "Last Modified: December 4, 1997"
17, 0, End_track
0, 0, End_of_file
