0, 0, Header, 1, 12, 120
1, 0, Start_track
1, 0, Time_signature, 12, 3, 12, 8
1, 0, Key_signature, 1, "major"
1, 0, Tempo, 1500000
1, 0, Marker_t, "Adagio"
1, 20880, Time_signature, 3, 2, 24, 8
1, 20880, Tempo, 600000
1, 20880, Marker_t, "Allegro ma non tanto"
1, 21450, Tempo, 600000
1, 61920, Time_signature, 4, 2, 24, 8
1, 61920, Tempo, 1500000
1, 61920, Marker_t, "Andante"
1, 71040, Tempo, 400000
1, 71040, Marker_t, "Allegro moderato"
1, 71040, End_track
2, 0, Start_track
2, 0, MIDI_port, 0
2, 0, Title_t, "Viola"
2, 0, Program_c, 0, 41
2, 0, Note_on_c, 0, 59, 90
2, 59, Note_on_c, 0, 59, 0
2, 60, Note_on_c, 0, 62, 90
2, 89, Note_on_c, 0, 62, 0
2, 90, Note_on_c, 0, 60, 90
2, 119, Note_on_c, 0, 60, 0
2, 120, Note_on_c, 0, 59, 90
2, 149, Note_on_c, 0, 59, 0
2, 150, Note_on_c, 0, 57, 90
2, 179, Note_on_c, 0, 57, 0
2, 180, Note_on_c, 0, 59, 90
2, 209, Note_on_c, 0, 59, 0
2, 240, Note_on_c, 0, 55, 90
2, 269, Note_on_c, 0, 55, 0
2, 300, Note_on_c, 0, 57, 90
2, 329, Note_on_c, 0, 57, 0
2, 330, Note_on_c, 0, 59, 90
2, 344, Note_on_c, 0, 59, 0
2, 345, Note_on_c, 0, 60, 90
2, 359, Note_on_c, 0, 60, 0
2, 360, Note_on_c, 0, 60, 90
2, 389, Note_on_c, 0, 60, 0
2, 390, Note_on_c, 0, 59, 90
2, 419, Note_on_c, 0, 59, 0
2, 420, Note_on_c, 0, 62, 90
2, 449, Note_on_c, 0, 62, 0
2, 450, Note_on_c, 0, 60, 90
2, 479, Note_on_c, 0, 60, 0
2, 480, Note_on_c, 0, 59, 90
2, 509, Note_on_c, 0, 59, 0
2, 510, Note_on_c, 0, 57, 90
2, 539, Note_on_c, 0, 57, 0
2, 540, Note_on_c, 0, 59, 90
2, 569, Note_on_c, 0, 59, 0
2, 570, Note_on_c, 0, 55, 90
2, 599, Note_on_c, 0, 55, 0
2, 600, Note_on_c, 0, 62, 90
2, 629, Note_on_c, 0, 62, 0
2, 660, Note_on_c, 0, 64, 90
2, 689, Note_on_c, 0, 64, 0
2, 690, Note_on_c, 0, 66, 90
2, 704, Note_on_c, 0, 66, 0
2, 705, Note_on_c, 0, 67, 90
2, 719, Note_on_c, 0, 67, 0
2, 720, Note_on_c, 0, 66, 90
2, 779, Note_on_c, 0, 66, 0
2, 780, Note_on_c, 0, 67, 90
2, 809, Note_on_c, 0, 67, 0
2, 810, Note_on_c, 0, 66, 90
2, 839, Note_on_c, 0, 66, 0
2, 840, Note_on_c, 0, 64, 90
2, 869, Note_on_c, 0, 64, 0
2, 870, Note_on_c, 0, 62, 90
2, 899, Note_on_c, 0, 62, 0
2, 900, Note_on_c, 0, 67, 90
2, 929, Note_on_c, 0, 67, 0
2, 960, Note_on_c, 0, 62, 90
2, 989, Note_on_c, 0, 62, 0
2, 1020, Note_on_c, 0, 62, 90
2, 1049, Note_on_c, 0, 62, 0
2, 1050, Note_on_c, 0, 64, 90
2, 1064, Note_on_c, 0, 64, 0
2, 1065, Note_on_c, 0, 65, 90
2, 1079, Note_on_c, 0, 65, 0
2, 1080, Note_on_c, 0, 64, 90
2, 1139, Note_on_c, 0, 64, 0
2, 1140, Note_on_c, 0, 65, 90
2, 1169, Note_on_c, 0, 65, 0
2, 1170, Note_on_c, 0, 64, 90
2, 1199, Note_on_c, 0, 64, 0
2, 1200, Note_on_c, 0, 62, 90
2, 1229, Note_on_c, 0, 62, 0
2, 1230, Note_on_c, 0, 60, 90
2, 1259, Note_on_c, 0, 60, 0
2, 1260, Note_on_c, 0, 62, 90
2, 1289, Note_on_c, 0, 62, 0
2, 1320, Note_on_c, 0, 67, 90
2, 1349, Note_on_c, 0, 67, 0
2, 1380, Note_on_c, 0, 59, 90
2, 1409, Note_on_c, 0, 59, 0
2, 1410, Note_on_c, 0, 60, 90
2, 1424, Note_on_c, 0, 60, 0
2, 1425, Note_on_c, 0, 62, 90
2, 1439, Note_on_c, 0, 62, 0
2, 1440, Note_on_c, 0, 62, 90
2, 1469, Note_on_c, 0, 62, 0
2, 1470, Note_on_c, 0, 60, 90
2, 1499, Note_on_c, 0, 60, 0
2, 1500, Note_on_c, 0, 62, 90
2, 1529, Note_on_c, 0, 62, 0
2, 1530, Note_on_c, 0, 60, 90
2, 1559, Note_on_c, 0, 60, 0
2, 1560, Note_on_c, 0, 59, 90
2, 1589, Note_on_c, 0, 59, 0
2, 1590, Note_on_c, 0, 57, 90
2, 1619, Note_on_c, 0, 57, 0
2, 1620, Note_on_c, 0, 59, 90
2, 1649, Note_on_c, 0, 59, 0
2, 1650, Note_on_c, 0, 57, 90
2, 1679, Note_on_c, 0, 57, 0
2, 1680, Note_on_c, 0, 55, 90
2, 1709, Note_on_c, 0, 55, 0
2, 1710, Note_on_c, 0, 57, 90
2, 1739, Note_on_c, 0, 57, 0
2, 1740, Note_on_c, 0, 59, 90
2, 1769, Note_on_c, 0, 59, 0
2, 1770, Note_on_c, 0, 60, 90
2, 1799, Note_on_c, 0, 60, 0
2, 1800, Note_on_c, 0, 62, 90
2, 1829, Note_on_c, 0, 62, 0
2, 1830, Note_on_c, 0, 60, 90
2, 1859, Note_on_c, 0, 60, 0
2, 1860, Note_on_c, 0, 64, 90
2, 1889, Note_on_c, 0, 64, 0
2, 1890, Note_on_c, 0, 62, 90
2, 1919, Note_on_c, 0, 62, 0
2, 1920, Note_on_c, 0, 60, 90
2, 1949, Note_on_c, 0, 60, 0
2, 1950, Note_on_c, 0, 59, 90
2, 1979, Note_on_c, 0, 59, 0
2, 1980, Note_on_c, 0, 57, 90
2, 2009, Note_on_c, 0, 57, 0
2, 2010, Note_on_c, 0, 55, 90
2, 2039, Note_on_c, 0, 55, 0
2, 2040, Note_on_c, 0, 54, 90
2, 2069, Note_on_c, 0, 54, 0
2, 2070, Note_on_c, 0, 52, 90
2, 2099, Note_on_c, 0, 52, 0
2, 2100, Note_on_c, 0, 50, 90
2, 2129, Note_on_c, 0, 50, 0
2, 2160, Note_on_c, 0, 69, 90
2, 3300, Note_on_c, 0, 69, 0
2, 3300, Note_on_c, 0, 67, 90
2, 3479, Note_on_c, 0, 67, 0
2, 3480, Note_on_c, 0, 66, 90
2, 3659, Note_on_c, 0, 66, 0
2, 3660, Note_on_c, 0, 64, 90
2, 3839, Note_on_c, 0, 64, 0
2, 3840, Note_on_c, 0, 69, 90
2, 3899, Note_on_c, 0, 69, 0
2, 3900, Note_on_c, 0, 61, 90
2, 3910, Note_on_c, 0, 61, 0
2, 3910, Note_on_c, 0, 62, 90
2, 3920, Note_on_c, 0, 62, 0
2, 3920, Note_on_c, 0, 61, 90
2, 3960, Note_on_c, 0, 61, 0
2, 3960, Note_on_c, 0, 62, 90
2, 4170, Note_on_c, 0, 62, 0
2, 4170, Note_on_c, 0, 61, 90
2, 4199, Note_on_c, 0, 61, 0
2, 4200, Note_on_c, 0, 64, 90
2, 4229, Note_on_c, 0, 64, 0
2, 4230, Note_on_c, 0, 62, 90
2, 4259, Note_on_c, 0, 62, 0
2, 4260, Note_on_c, 0, 61, 90
2, 4289, Note_on_c, 0, 61, 0
2, 4290, Note_on_c, 0, 59, 90
2, 4319, Note_on_c, 0, 59, 0
2, 4320, Note_on_c, 0, 58, 90
2, 4379, Note_on_c, 0, 58, 0
2, 4380, Note_on_c, 0, 59, 90
2, 4390, Note_on_c, 0, 59, 0
2, 4390, Note_on_c, 0, 61, 90
2, 4400, Note_on_c, 0, 61, 0
2, 4400, Note_on_c, 0, 59, 90
2, 4440, Note_on_c, 0, 59, 0
2, 4440, Note_on_c, 0, 61, 90
2, 4529, Note_on_c, 0, 61, 0
2, 4530, Note_on_c, 0, 59, 90
2, 4559, Note_on_c, 0, 59, 0
2, 4560, Note_on_c, 0, 57, 90
2, 4589, Note_on_c, 0, 57, 0
2, 4590, Note_on_c, 0, 55, 90
2, 4619, Note_on_c, 0, 55, 0
2, 4620, Note_on_c, 0, 57, 90
2, 4649, Note_on_c, 0, 57, 0
2, 4650, Note_on_c, 0, 54, 90
2, 4679, Note_on_c, 0, 54, 0
2, 4680, Note_on_c, 0, 56, 90
2, 4739, Note_on_c, 0, 56, 0
2, 4740, Note_on_c, 0, 58, 90
2, 4750, Note_on_c, 0, 58, 0
2, 4750, Note_on_c, 0, 59, 90
2, 4760, Note_on_c, 0, 59, 0
2, 4760, Note_on_c, 0, 58, 90
2, 4800, Note_on_c, 0, 58, 0
2, 4800, Note_on_c, 0, 59, 90
2, 4889, Note_on_c, 0, 59, 0
2, 4890, Note_on_c, 0, 58, 90
2, 4919, Note_on_c, 0, 58, 0
2, 4920, Note_on_c, 0, 61, 90
2, 4949, Note_on_c, 0, 61, 0
2, 4950, Note_on_c, 0, 59, 90
2, 4979, Note_on_c, 0, 59, 0
2, 4980, Note_on_c, 0, 62, 90
2, 5009, Note_on_c, 0, 62, 0
2, 5010, Note_on_c, 0, 61, 90
2, 5039, Note_on_c, 0, 61, 0
2, 5040, Note_on_c, 0, 64, 90
2, 5099, Note_on_c, 0, 64, 0
2, 5100, Note_on_c, 0, 62, 90
2, 5159, Note_on_c, 0, 62, 0
2, 5160, Note_on_c, 0, 61, 90
2, 5219, Note_on_c, 0, 61, 0
2, 5220, Note_on_c, 0, 59, 90
2, 5249, Note_on_c, 0, 59, 0
2, 5250, Note_on_c, 0, 62, 90
2, 5279, Note_on_c, 0, 62, 0
2, 5280, Note_on_c, 0, 61, 90
2, 5309, Note_on_c, 0, 61, 0
2, 5310, Note_on_c, 0, 58, 90
2, 5339, Note_on_c, 0, 58, 0
2, 5340, Note_on_c, 0, 59, 90
2, 5369, Note_on_c, 0, 59, 0
2, 5370, Note_on_c, 0, 62, 90
2, 5399, Note_on_c, 0, 62, 0
2, 5400, Note_on_c, 0, 67, 90
2, 5610, Note_on_c, 0, 67, 0
2, 5610, Note_on_c, 0, 66, 90
2, 5639, Note_on_c, 0, 66, 0
2, 5640, Note_on_c, 0, 66, 90
2, 5669, Note_on_c, 0, 66, 0
2, 5670, Note_on_c, 0, 65, 90
2, 5699, Note_on_c, 0, 65, 0
2, 5700, Note_on_c, 0, 65, 90
2, 5729, Note_on_c, 0, 65, 0
2, 5730, Note_on_c, 0, 66, 90
2, 5759, Note_on_c, 0, 66, 0
2, 5760, Note_on_c, 0, 66, 90
2, 5849, Note_on_c, 0, 66, 0
2, 5850, Note_on_c, 0, 64, 90
2, 5879, Note_on_c, 0, 64, 0
2, 5880, Note_on_c, 0, 64, 90
2, 5909, Note_on_c, 0, 64, 0
2, 5910, Note_on_c, 0, 62, 90
2, 5939, Note_on_c, 0, 62, 0
2, 5940, Note_on_c, 0, 67, 90
2, 5969, Note_on_c, 0, 67, 0
2, 5970, Note_on_c, 0, 66, 90
2, 5999, Note_on_c, 0, 66, 0
2, 6000, Note_on_c, 0, 64, 90
2, 6029, Note_on_c, 0, 64, 0
2, 6030, Note_on_c, 0, 62, 90
2, 6059, Note_on_c, 0, 62, 0
2, 6060, Note_on_c, 0, 61, 90
2, 6070, Note_on_c, 0, 61, 0
2, 6070, Note_on_c, 0, 62, 90
2, 6080, Note_on_c, 0, 62, 0
2, 6080, Note_on_c, 0, 61, 90
2, 6090, Note_on_c, 0, 61, 0
2, 6090, Note_on_c, 0, 59, 90
2, 6119, Note_on_c, 0, 59, 0
2, 6120, Note_on_c, 0, 59, 90
2, 6179, Note_on_c, 0, 59, 0
2, 6180, Note_on_c, 0, 66, 90
2, 6209, Note_on_c, 0, 66, 0
2, 6210, Note_on_c, 0, 64, 90
2, 6239, Note_on_c, 0, 64, 0
2, 6240, Note_on_c, 0, 62, 90
2, 6269, Note_on_c, 0, 62, 0
2, 6270, Note_on_c, 0, 61, 90
2, 6299, Note_on_c, 0, 61, 0
2, 6300, Note_on_c, 0, 59, 90
2, 6329, Note_on_c, 0, 59, 0
2, 6360, Note_on_c, 0, 66, 90
2, 6389, Note_on_c, 0, 66, 0
2, 6420, Note_on_c, 0, 66, 90
2, 6449, Note_on_c, 0, 66, 0
2, 6450, Note_on_c, 0, 67, 90
2, 6464, Note_on_c, 0, 67, 0
2, 6465, Note_on_c, 0, 69, 90
2, 6479, Note_on_c, 0, 69, 0
2, 6480, Note_on_c, 0, 67, 90
2, 6539, Note_on_c, 0, 67, 0
2, 6540, Note_on_c, 0, 66, 90
2, 6599, Note_on_c, 0, 66, 0
2, 6600, Note_on_c, 0, 64, 90
2, 6719, Note_on_c, 0, 64, 0
2, 6720, Note_on_c, 0, 67, 90
2, 6749, Note_on_c, 0, 67, 0
2, 6750, Note_on_c, 0, 66, 90
2, 6779, Note_on_c, 0, 66, 0
2, 6780, Note_on_c, 0, 64, 90
2, 6809, Note_on_c, 0, 64, 0
2, 6810, Note_on_c, 0, 62, 90
2, 6839, Note_on_c, 0, 62, 0
2, 6840, Note_on_c, 0, 62, 90
2, 6869, Note_on_c, 0, 62, 0
2, 6870, Note_on_c, 0, 61, 90
2, 6899, Note_on_c, 0, 61, 0
2, 6900, Note_on_c, 0, 64, 90
2, 6929, Note_on_c, 0, 64, 0
2, 6930, Note_on_c, 0, 62, 90
2, 6959, Note_on_c, 0, 62, 0
2, 6960, Note_on_c, 0, 61, 90
2, 6989, Note_on_c, 0, 61, 0
2, 6990, Note_on_c, 0, 59, 90
2, 7019, Note_on_c, 0, 59, 0
2, 7020, Note_on_c, 0, 57, 90
2, 7079, Note_on_c, 0, 57, 0
2, 7080, Note_on_c, 0, 64, 90
2, 7139, Note_on_c, 0, 64, 0
2, 7140, Note_on_c, 0, 64, 90
2, 7169, Note_on_c, 0, 64, 0
2, 7170, Note_on_c, 0, 66, 90
2, 7184, Note_on_c, 0, 66, 0
2, 7185, Note_on_c, 0, 67, 90
2, 7199, Note_on_c, 0, 67, 0
2, 7200, Note_on_c, 0, 66, 90
2, 7259, Note_on_c, 0, 66, 0
2, 7260, Note_on_c, 0, 64, 90
2, 7319, Note_on_c, 0, 64, 0
2, 7320, Note_on_c, 0, 62, 90
2, 7439, Note_on_c, 0, 62, 0
2, 7440, Note_on_c, 0, 66, 90
2, 7469, Note_on_c, 0, 66, 0
2, 7470, Note_on_c, 0, 64, 90
2, 7499, Note_on_c, 0, 64, 0
2, 7500, Note_on_c, 0, 62, 90
2, 7529, Note_on_c, 0, 62, 0
2, 7530, Note_on_c, 0, 61, 90
2, 7559, Note_on_c, 0, 61, 0
2, 7560, Note_on_c, 0, 59, 90
2, 7589, Note_on_c, 0, 59, 0
2, 7590, Note_on_c, 0, 57, 90
2, 7619, Note_on_c, 0, 57, 0
2, 7620, Note_on_c, 0, 55, 90
2, 7649, Note_on_c, 0, 55, 0
2, 7650, Note_on_c, 0, 54, 90
2, 7679, Note_on_c, 0, 54, 0
2, 7680, Note_on_c, 0, 55, 90
2, 7769, Note_on_c, 0, 55, 0
2, 7770, Note_on_c, 0, 64, 90
2, 7799, Note_on_c, 0, 64, 0
2, 7800, Note_on_c, 0, 62, 90
2, 7829, Note_on_c, 0, 62, 0
2, 7830, Note_on_c, 0, 61, 90
2, 7859, Note_on_c, 0, 61, 0
2, 7860, Note_on_c, 0, 59, 90
2, 7889, Note_on_c, 0, 59, 0
2, 7890, Note_on_c, 0, 57, 90
2, 7919, Note_on_c, 0, 57, 0
2, 7920, Note_on_c, 0, 67, 90
2, 7949, Note_on_c, 0, 67, 0
2, 7950, Note_on_c, 0, 66, 90
2, 7979, Note_on_c, 0, 66, 0
2, 7980, Note_on_c, 0, 64, 90
2, 8009, Note_on_c, 0, 64, 0
2, 8010, Note_on_c, 0, 62, 90
2, 8039, Note_on_c, 0, 62, 0
2, 8040, Note_on_c, 0, 71, 90
2, 8159, Note_on_c, 0, 71, 0
2, 8160, Note_on_c, 0, 69, 90
2, 8189, Note_on_c, 0, 69, 0
2, 8220, Note_on_c, 0, 67, 90
2, 8249, Note_on_c, 0, 67, 0
2, 8280, Note_on_c, 0, 66, 90
2, 8309, Note_on_c, 0, 66, 0
2, 8310, Note_on_c, 0, 67, 90
2, 8339, Note_on_c, 0, 67, 0
2, 8340, Note_on_c, 0, 69, 90
2, 8369, Note_on_c, 0, 69, 0
2, 8400, Note_on_c, 0, 64, 90
2, 8429, Note_on_c, 0, 64, 0
2, 8460, Note_on_c, 0, 66, 90
2, 8489, Note_on_c, 0, 66, 0
2, 8490, Note_on_c, 0, 64, 90
2, 8519, Note_on_c, 0, 64, 0
2, 8520, Note_on_c, 0, 67, 90
2, 8549, Note_on_c, 0, 67, 0
2, 8550, Note_on_c, 0, 66, 90
2, 8579, Note_on_c, 0, 66, 0
2, 8580, Note_on_c, 0, 64, 90
2, 8609, Note_on_c, 0, 64, 0
2, 8610, Note_on_c, 0, 66, 90
2, 8639, Note_on_c, 0, 66, 0
2, 8640, Note_on_c, 0, 62, 90
2, 9780, Note_on_c, 0, 62, 0
2, 9780, Note_on_c, 0, 60, 90
2, 9959, Note_on_c, 0, 60, 0
2, 9960, Note_on_c, 0, 59, 90
2, 10139, Note_on_c, 0, 59, 0
2, 10140, Note_on_c, 0, 57, 90
2, 10319, Note_on_c, 0, 57, 0
2, 10320, Note_on_c, 0, 62, 90
2, 10379, Note_on_c, 0, 62, 0
2, 10380, Note_on_c, 0, 54, 90
2, 10439, Note_on_c, 0, 54, 0
2, 10440, Note_on_c, 0, 55, 90
2, 10650, Note_on_c, 0, 55, 0
2, 10650, Note_on_c, 0, 59, 90
2, 10679, Note_on_c, 0, 59, 0
2, 10680, Note_on_c, 0, 57, 90
2, 10709, Note_on_c, 0, 57, 0
2, 10710, Note_on_c, 0, 60, 90
2, 10739, Note_on_c, 0, 60, 0
2, 10740, Note_on_c, 0, 59, 90
2, 10769, Note_on_c, 0, 59, 0
2, 10770, Note_on_c, 0, 57, 90
2, 10799, Note_on_c, 0, 57, 0
2, 10800, Note_on_c, 0, 59, 90
2, 10829, Note_on_c, 0, 59, 0
2, 10830, Note_on_c, 0, 67, 90
2, 10859, Note_on_c, 0, 67, 0
2, 10860, Note_on_c, 0, 62, 90
2, 10889, Note_on_c, 0, 62, 0
2, 10890, Note_on_c, 0, 60, 90
2, 10919, Note_on_c, 0, 60, 0
2, 10920, Note_on_c, 0, 59, 90
2, 10949, Note_on_c, 0, 59, 0
2, 10950, Note_on_c, 0, 57, 90
2, 10979, Note_on_c, 0, 57, 0
2, 10980, Note_on_c, 0, 59, 90
2, 11009, Note_on_c, 0, 59, 0
2, 11040, Note_on_c, 0, 55, 90
2, 11069, Note_on_c, 0, 55, 0
2, 11100, Note_on_c, 0, 57, 90
2, 11129, Note_on_c, 0, 57, 0
2, 11130, Note_on_c, 0, 59, 90
2, 11144, Note_on_c, 0, 59, 0
2, 11145, Note_on_c, 0, 60, 90
2, 11159, Note_on_c, 0, 60, 0
2, 11160, Note_on_c, 0, 60, 90
2, 11189, Note_on_c, 0, 60, 0
2, 11190, Note_on_c, 0, 59, 90
2, 11219, Note_on_c, 0, 59, 0
2, 11220, Note_on_c, 0, 62, 90
2, 11249, Note_on_c, 0, 62, 0
2, 11250, Note_on_c, 0, 60, 90
2, 11279, Note_on_c, 0, 60, 0
2, 11280, Note_on_c, 0, 59, 90
2, 11309, Note_on_c, 0, 59, 0
2, 11310, Note_on_c, 0, 57, 90
2, 11339, Note_on_c, 0, 57, 0
2, 11340, Note_on_c, 0, 59, 90
2, 11369, Note_on_c, 0, 59, 0
2, 11370, Note_on_c, 0, 55, 90
2, 11399, Note_on_c, 0, 55, 0
2, 11400, Note_on_c, 0, 62, 90
2, 11459, Note_on_c, 0, 62, 0
2, 11460, Note_on_c, 0, 64, 90
2, 11489, Note_on_c, 0, 64, 0
2, 11490, Note_on_c, 0, 66, 90
2, 11504, Note_on_c, 0, 66, 0
2, 11505, Note_on_c, 0, 67, 90
2, 11519, Note_on_c, 0, 67, 0
2, 11520, Note_on_c, 0, 66, 90
2, 11579, Note_on_c, 0, 66, 0
2, 11580, Note_on_c, 0, 67, 90
2, 11609, Note_on_c, 0, 67, 0
2, 11610, Note_on_c, 0, 66, 90
2, 11639, Note_on_c, 0, 66, 0
2, 11640, Note_on_c, 0, 64, 90
2, 11669, Note_on_c, 0, 64, 0
2, 11670, Note_on_c, 0, 62, 90
2, 11699, Note_on_c, 0, 62, 0
2, 11700, Note_on_c, 0, 67, 90
2, 11729, Note_on_c, 0, 67, 0
2, 11760, Note_on_c, 0, 62, 90
2, 11789, Note_on_c, 0, 62, 0
2, 11820, Note_on_c, 0, 62, 90
2, 11849, Note_on_c, 0, 62, 0
2, 11850, Note_on_c, 0, 64, 90
2, 11864, Note_on_c, 0, 64, 0
2, 11865, Note_on_c, 0, 65, 90
2, 11879, Note_on_c, 0, 65, 0
2, 11880, Note_on_c, 0, 64, 90
2, 11939, Note_on_c, 0, 64, 0
2, 11940, Note_on_c, 0, 65, 90
2, 11969, Note_on_c, 0, 65, 0
2, 11970, Note_on_c, 0, 64, 90
2, 11999, Note_on_c, 0, 64, 0
2, 12000, Note_on_c, 0, 62, 90
2, 12029, Note_on_c, 0, 62, 0
2, 12030, Note_on_c, 0, 60, 90
2, 12059, Note_on_c, 0, 60, 0
2, 12060, Note_on_c, 0, 62, 90
2, 12089, Note_on_c, 0, 62, 0
2, 12120, Note_on_c, 0, 67, 90
2, 12149, Note_on_c, 0, 67, 0
2, 12180, Note_on_c, 0, 59, 90
2, 12209, Note_on_c, 0, 59, 0
2, 12210, Note_on_c, 0, 60, 90
2, 12224, Note_on_c, 0, 60, 0
2, 12225, Note_on_c, 0, 62, 90
2, 12239, Note_on_c, 0, 62, 0
2, 12240, Note_on_c, 0, 60, 90
2, 12299, Note_on_c, 0, 60, 0
2, 12300, Note_on_c, 0, 62, 90
2, 12329, Note_on_c, 0, 62, 0
2, 12330, Note_on_c, 0, 60, 90
2, 12359, Note_on_c, 0, 60, 0
2, 12360, Note_on_c, 0, 59, 90
2, 12389, Note_on_c, 0, 59, 0
2, 12390, Note_on_c, 0, 57, 90
2, 12419, Note_on_c, 0, 57, 0
2, 12420, Note_on_c, 0, 59, 90
2, 12449, Note_on_c, 0, 59, 0
2, 12450, Note_on_c, 0, 57, 90
2, 12479, Note_on_c, 0, 57, 0
2, 12480, Note_on_c, 0, 55, 90
2, 12509, Note_on_c, 0, 55, 0
2, 12510, Note_on_c, 0, 57, 90
2, 12539, Note_on_c, 0, 57, 0
2, 12540, Note_on_c, 0, 59, 90
2, 12569, Note_on_c, 0, 59, 0
2, 12570, Note_on_c, 0, 60, 90
2, 12599, Note_on_c, 0, 60, 0
2, 12600, Note_on_c, 0, 62, 90
2, 12629, Note_on_c, 0, 62, 0
2, 12630, Note_on_c, 0, 60, 90
2, 12659, Note_on_c, 0, 60, 0
2, 12660, Note_on_c, 0, 64, 90
2, 12689, Note_on_c, 0, 64, 0
2, 12690, Note_on_c, 0, 62, 90
2, 12719, Note_on_c, 0, 62, 0
2, 12720, Note_on_c, 0, 60, 90
2, 12749, Note_on_c, 0, 60, 0
2, 12750, Note_on_c, 0, 59, 90
2, 12779, Note_on_c, 0, 59, 0
2, 12780, Note_on_c, 0, 57, 90
2, 12839, Note_on_c, 0, 57, 0
2, 12840, Note_on_c, 0, 69, 90
2, 12990, Note_on_c, 0, 69, 0
2, 12990, Note_on_c, 0, 67, 90
2, 13019, Note_on_c, 0, 67, 0
2, 13020, Note_on_c, 0, 71, 90
2, 13049, Note_on_c, 0, 71, 0
2, 13050, Note_on_c, 0, 69, 90
2, 13079, Note_on_c, 0, 69, 0
2, 13080, Note_on_c, 0, 67, 90
2, 13109, Note_on_c, 0, 67, 0
2, 13110, Note_on_c, 0, 66, 90
2, 13139, Note_on_c, 0, 66, 0
2, 13140, Note_on_c, 0, 67, 90
2, 13199, Note_on_c, 0, 67, 0
2, 13200, Note_on_c, 0, 69, 90
2, 13259, Note_on_c, 0, 69, 0
2, 13260, Note_on_c, 0, 71, 90
2, 13349, Note_on_c, 0, 71, 0
2, 13350, Note_on_c, 0, 69, 90
2, 13379, Note_on_c, 0, 69, 0
2, 13380, Note_on_c, 0, 67, 90
2, 13409, Note_on_c, 0, 67, 0
2, 13410, Note_on_c, 0, 66, 90
2, 13439, Note_on_c, 0, 66, 0
2, 13440, Note_on_c, 0, 67, 90
2, 13469, Note_on_c, 0, 67, 0
2, 13470, Note_on_c, 0, 64, 90
2, 13499, Note_on_c, 0, 64, 0
2, 13500, Note_on_c, 0, 66, 90
2, 13710, Note_on_c, 0, 66, 0
2, 13710, Note_on_c, 0, 64, 90
2, 13739, Note_on_c, 0, 64, 0
2, 13740, Note_on_c, 0, 67, 90
2, 13769, Note_on_c, 0, 67, 0
2, 13770, Note_on_c, 0, 66, 90
2, 13799, Note_on_c, 0, 66, 0
2, 13800, Note_on_c, 0, 69, 90
2, 13829, Note_on_c, 0, 69, 0
2, 13830, Note_on_c, 0, 68, 90
2, 13859, Note_on_c, 0, 68, 0
2, 13860, Note_on_c, 0, 71, 90
2, 13889, Note_on_c, 0, 71, 0
2, 13890, Note_on_c, 0, 70, 90
2, 13980, Note_on_c, 0, 70, 0
2, 13980, Note_on_c, 0, 69, 90
2, 14069, Note_on_c, 0, 69, 0
2, 14070, Note_on_c, 0, 72, 90
2, 14099, Note_on_c, 0, 72, 0
2, 14100, Note_on_c, 0, 71, 90
2, 14129, Note_on_c, 0, 71, 0
2, 14130, Note_on_c, 0, 67, 90
2, 14159, Note_on_c, 0, 67, 0
2, 14160, Note_on_c, 0, 69, 90
2, 14189, Note_on_c, 0, 69, 0
2, 14190, Note_on_c, 0, 66, 90
2, 14219, Note_on_c, 0, 66, 0
2, 14220, Note_on_c, 0, 67, 90
2, 14370, Note_on_c, 0, 67, 0
2, 14370, Note_on_c, 0, 66, 90
2, 14384, Note_on_c, 0, 66, 0
2, 14385, Note_on_c, 0, 67, 90
2, 14399, Note_on_c, 0, 67, 0
2, 14400, Note_on_c, 0, 66, 90
2, 14429, Note_on_c, 0, 66, 0
2, 14430, Note_on_c, 0, 64, 90
2, 14459, Note_on_c, 0, 64, 0
2, 14460, Note_on_c, 0, 64, 90
2, 14489, Note_on_c, 0, 64, 0
2, 14490, Note_on_c, 0, 63, 90
2, 14519, Note_on_c, 0, 63, 0
2, 14520, Note_on_c, 0, 63, 90
2, 14549, Note_on_c, 0, 63, 0
2, 14550, Note_on_c, 0, 64, 90
2, 14579, Note_on_c, 0, 64, 0
2, 14580, Note_on_c, 0, 64, 90
2, 14609, Note_on_c, 0, 64, 0
2, 14610, Note_on_c, 0, 66, 90
2, 14639, Note_on_c, 0, 66, 0
2, 14640, Note_on_c, 0, 63, 90
2, 14650, Note_on_c, 0, 63, 0
2, 14650, Note_on_c, 0, 64, 90
2, 14660, Note_on_c, 0, 64, 0
2, 14660, Note_on_c, 0, 63, 90
2, 14670, Note_on_c, 0, 63, 0
2, 14670, Note_on_c, 0, 64, 90
2, 14677, Note_on_c, 0, 63, 90
2, 14678, Note_on_c, 0, 64, 0
2, 14685, Note_on_c, 0, 63, 0
2, 14685, Note_on_c, 0, 64, 90
2, 14692, Note_on_c, 0, 63, 90
2, 14693, Note_on_c, 0, 64, 0
2, 14700, Note_on_c, 0, 63, 0
2, 14700, Note_on_c, 0, 64, 90
2, 14707, Note_on_c, 0, 63, 90
2, 14708, Note_on_c, 0, 64, 0
2, 14730, Note_on_c, 0, 63, 0
2, 14730, Note_on_c, 0, 64, 90
2, 14759, Note_on_c, 0, 64, 0
2, 14760, Note_on_c, 0, 64, 90
2, 14879, Note_on_c, 0, 64, 0
2, 14940, Note_on_c, 0, 59, 90
2, 14969, Note_on_c, 0, 59, 0
2, 14970, Note_on_c, 0, 57, 90
2, 14999, Note_on_c, 0, 57, 0
2, 15000, Note_on_c, 0, 55, 90
2, 15029, Note_on_c, 0, 55, 0
2, 15030, Note_on_c, 0, 54, 90
2, 15059, Note_on_c, 0, 54, 0
2, 15060, Note_on_c, 0, 52, 90
2, 15089, Note_on_c, 0, 52, 0
2, 15240, Note_on_c, 0, 64, 90
2, 15269, Note_on_c, 0, 64, 0
2, 15270, Note_on_c, 0, 62, 90
2, 15299, Note_on_c, 0, 62, 0
2, 15300, Note_on_c, 0, 60, 90
2, 15329, Note_on_c, 0, 60, 0
2, 15330, Note_on_c, 0, 59, 90
2, 15359, Note_on_c, 0, 59, 0
2, 15360, Note_on_c, 0, 57, 90
2, 15389, Note_on_c, 0, 57, 0
2, 15660, Note_on_c, 0, 57, 90
2, 15689, Note_on_c, 0, 57, 0
2, 15690, Note_on_c, 0, 55, 90
2, 15719, Note_on_c, 0, 55, 0
2, 15720, Note_on_c, 0, 54, 90
2, 15749, Note_on_c, 0, 54, 0
2, 15750, Note_on_c, 0, 52, 90
2, 15779, Note_on_c, 0, 52, 0
2, 15780, Note_on_c, 0, 50, 90
2, 15809, Note_on_c, 0, 50, 0
2, 15960, Note_on_c, 0, 62, 90
2, 15989, Note_on_c, 0, 62, 0
2, 15990, Note_on_c, 0, 60, 90
2, 16019, Note_on_c, 0, 60, 0
2, 16020, Note_on_c, 0, 59, 90
2, 16049, Note_on_c, 0, 59, 0
2, 16050, Note_on_c, 0, 57, 90
2, 16079, Note_on_c, 0, 57, 0
2, 16080, Note_on_c, 0, 55, 90
2, 16109, Note_on_c, 0, 55, 0
2, 16200, Note_on_c, 0, 67, 90
2, 16229, Note_on_c, 0, 67, 0
2, 16230, Note_on_c, 0, 65, 90
2, 16259, Note_on_c, 0, 65, 0
2, 16260, Note_on_c, 0, 64, 90
2, 16289, Note_on_c, 0, 64, 0
2, 16290, Note_on_c, 0, 62, 90
2, 16319, Note_on_c, 0, 62, 0
2, 16320, Note_on_c, 0, 60, 90
2, 16349, Note_on_c, 0, 60, 0
2, 16350, Note_on_c, 0, 59, 90
2, 16379, Note_on_c, 0, 59, 0
2, 16380, Note_on_c, 0, 59, 90
2, 16409, Note_on_c, 0, 59, 0
2, 16410, Note_on_c, 0, 60, 90
2, 16469, Note_on_c, 0, 60, 0
2, 16470, Note_on_c, 0, 69, 90
2, 16499, Note_on_c, 0, 69, 0
2, 16500, Note_on_c, 0, 67, 90
2, 16529, Note_on_c, 0, 67, 0
2, 16530, Note_on_c, 0, 66, 90
2, 16559, Note_on_c, 0, 66, 0
2, 16560, Note_on_c, 0, 64, 90
2, 16589, Note_on_c, 0, 64, 0
2, 16590, Note_on_c, 0, 62, 90
2, 16619, Note_on_c, 0, 62, 0
2, 16620, Note_on_c, 0, 60, 90
2, 16649, Note_on_c, 0, 60, 0
2, 16650, Note_on_c, 0, 59, 90
2, 16679, Note_on_c, 0, 59, 0
2, 16680, Note_on_c, 0, 57, 90
2, 16709, Note_on_c, 0, 57, 0
2, 16710, Note_on_c, 0, 55, 90
2, 16739, Note_on_c, 0, 55, 0
2, 16740, Note_on_c, 0, 54, 90
2, 16769, Note_on_c, 0, 54, 0
2, 16770, Note_on_c, 0, 55, 90
2, 16799, Note_on_c, 0, 55, 0
2, 16800, Note_on_c, 0, 55, 90
2, 16829, Note_on_c, 0, 55, 0
2, 16830, Note_on_c, 0, 57, 90
2, 16859, Note_on_c, 0, 57, 0
2, 16860, Note_on_c, 0, 57, 90
2, 16949, Note_on_c, 0, 57, 0
2, 16950, Note_on_c, 0, 54, 90
2, 16979, Note_on_c, 0, 54, 0
2, 16980, Note_on_c, 0, 55, 90
2, 17130, Note_on_c, 0, 55, 0
2, 17130, Note_on_c, 0, 52, 90
2, 17159, Note_on_c, 0, 52, 0
2, 17160, Note_on_c, 0, 57, 90
2, 17189, Note_on_c, 0, 57, 0
2, 17220, Note_on_c, 0, 54, 90
2, 17279, Note_on_c, 0, 54, 0
2, 17280, Note_on_c, 0, 55, 90
2, 17309, Note_on_c, 0, 55, 0
2, 17310, Note_on_c, 0, 59, 90
2, 17339, Note_on_c, 0, 59, 0
2, 17340, Note_on_c, 0, 62, 90
2, 17369, Note_on_c, 0, 62, 0
2, 17370, Note_on_c, 0, 60, 90
2, 17399, Note_on_c, 0, 60, 0
2, 17400, Note_on_c, 0, 59, 90
2, 17429, Note_on_c, 0, 59, 0
2, 17430, Note_on_c, 0, 57, 90
2, 17459, Note_on_c, 0, 57, 0
2, 17460, Note_on_c, 0, 59, 90
2, 17489, Note_on_c, 0, 59, 0
2, 17520, Note_on_c, 0, 55, 90
2, 17549, Note_on_c, 0, 55, 0
2, 17580, Note_on_c, 0, 57, 90
2, 17609, Note_on_c, 0, 57, 0
2, 17610, Note_on_c, 0, 59, 90
2, 17624, Note_on_c, 0, 59, 0
2, 17625, Note_on_c, 0, 60, 90
2, 17639, Note_on_c, 0, 60, 0
2, 17640, Note_on_c, 0, 60, 90
2, 17669, Note_on_c, 0, 60, 0
2, 17670, Note_on_c, 0, 59, 90
2, 17699, Note_on_c, 0, 59, 0
2, 17700, Note_on_c, 0, 62, 90
2, 17729, Note_on_c, 0, 62, 0
2, 17730, Note_on_c, 0, 60, 90
2, 17759, Note_on_c, 0, 60, 0
2, 17760, Note_on_c, 0, 59, 90
2, 17789, Note_on_c, 0, 59, 0
2, 17790, Note_on_c, 0, 57, 90
2, 17819, Note_on_c, 0, 57, 0
2, 17820, Note_on_c, 0, 59, 90
2, 17849, Note_on_c, 0, 59, 0
2, 17850, Note_on_c, 0, 55, 90
2, 17879, Note_on_c, 0, 55, 0
2, 17880, Note_on_c, 0, 57, 90
2, 17909, Note_on_c, 0, 57, 0
2, 17910, Note_on_c, 0, 60, 90
2, 17939, Note_on_c, 0, 60, 0
2, 17940, Note_on_c, 0, 59, 90
2, 17969, Note_on_c, 0, 59, 0
2, 17970, Note_on_c, 0, 62, 90
2, 17999, Note_on_c, 0, 62, 0
2, 18000, Note_on_c, 0, 61, 90
2, 18359, Note_on_c, 0, 61, 0
2, 18360, Note_on_c, 0, 60, 90
2, 18840, Note_on_c, 0, 60, 0
2, 19080, Note_on_c, 0, 58, 90
2, 19440, Note_on_c, 0, 58, 0
2, 19440, Note_on_c, 0, 57, 90
2, 20160, Note_on_c, 0, 57, 0
2, 22500, Note_on_c, 0, 57, 100
2, 22560, Note_on_c, 0, 57, 0
2, 22560, Note_on_c, 0, 62, 100
2, 22590, Note_on_c, 0, 62, 0
2, 22590, Note_on_c, 0, 64, 100
2, 22620, Note_on_c, 0, 64, 0
2, 22620, Note_on_c, 0, 66, 100
2, 22650, Note_on_c, 0, 66, 0
2, 22680, Note_on_c, 0, 66, 100
2, 22695, Note_on_c, 0, 66, 0
2, 22695, Note_on_c, 0, 67, 100
2, 22710, Note_on_c, 0, 67, 0
2, 22710, Note_on_c, 0, 66, 100
2, 22740, Note_on_c, 0, 66, 0
2, 22740, Note_on_c, 0, 64, 100
2, 22785, Note_on_c, 0, 64, 0
2, 22800, Note_on_c, 0, 64, 100
2, 22860, Note_on_c, 0, 64, 0
2, 22860, Note_on_c, 0, 61, 100
2, 22890, Note_on_c, 0, 61, 0
2, 22890, Note_on_c, 0, 62, 100
2, 22920, Note_on_c, 0, 62, 0
2, 22920, Note_on_c, 0, 64, 100
2, 22950, Note_on_c, 0, 64, 0
2, 22950, Note_on_c, 0, 66, 100
2, 22980, Note_on_c, 0, 66, 0
2, 22980, Note_on_c, 0, 67, 100
2, 23010, Note_on_c, 0, 67, 0
2, 23040, Note_on_c, 0, 67, 100
2, 23055, Note_on_c, 0, 67, 0
2, 23055, Note_on_c, 0, 69, 100
2, 23070, Note_on_c, 0, 69, 0
2, 23070, Note_on_c, 0, 67, 100
2, 23100, Note_on_c, 0, 67, 0
2, 23100, Note_on_c, 0, 66, 100
2, 23145, Note_on_c, 0, 66, 0
2, 23160, Note_on_c, 0, 66, 100
2, 23220, Note_on_c, 0, 66, 0
2, 23220, Note_on_c, 0, 69, 100
2, 23280, Note_on_c, 0, 69, 0
2, 23280, Note_on_c, 0, 67, 100
2, 23310, Note_on_c, 0, 67, 0
2, 23310, Note_on_c, 0, 66, 100
2, 23340, Note_on_c, 0, 66, 0
2, 23340, Note_on_c, 0, 64, 100
2, 23370, Note_on_c, 0, 64, 0
2, 23370, Note_on_c, 0, 62, 100
2, 23400, Note_on_c, 0, 62, 0
2, 23400, Note_on_c, 0, 71, 100
2, 23460, Note_on_c, 0, 71, 0
2, 23460, Note_on_c, 0, 74, 100
2, 23490, Note_on_c, 0, 74, 0
2, 23490, Note_on_c, 0, 73, 100
2, 23520, Note_on_c, 0, 73, 0
2, 23520, Note_on_c, 0, 71, 100
2, 23550, Note_on_c, 0, 71, 0
2, 23580, Note_on_c, 0, 69, 100
2, 23610, Note_on_c, 0, 69, 0
2, 23640, Note_on_c, 0, 67, 100
2, 23670, Note_on_c, 0, 67, 0
2, 23670, Note_on_c, 0, 66, 100
2, 23700, Note_on_c, 0, 66, 0
2, 23700, Note_on_c, 0, 64, 100
2, 23730, Note_on_c, 0, 64, 0
2, 23730, Note_on_c, 0, 62, 100
2, 23760, Note_on_c, 0, 62, 0
2, 23760, Note_on_c, 0, 64, 100
2, 23790, Note_on_c, 0, 64, 0
2, 23790, Note_on_c, 0, 62, 100
2, 23820, Note_on_c, 0, 62, 0
2, 23820, Note_on_c, 0, 61, 100
2, 23850, Note_on_c, 0, 61, 0
2, 23850, Note_on_c, 0, 59, 100
2, 23880, Note_on_c, 0, 59, 0
2, 23880, Note_on_c, 0, 57, 100
2, 24000, Note_on_c, 0, 57, 0
2, 24000, Note_on_c, 0, 62, 100
2, 24120, Note_on_c, 0, 62, 0
2, 24120, Note_on_c, 0, 62, 100
2, 24720, Note_on_c, 0, 62, 0
2, 24720, Note_on_c, 0, 67, 100
2, 24870, Note_on_c, 0, 67, 0
2, 24870, Note_on_c, 0, 67, 100
2, 24900, Note_on_c, 0, 67, 0
2, 24900, Note_on_c, 0, 66, 100
2, 24930, Note_on_c, 0, 66, 0
2, 24930, Note_on_c, 0, 67, 100
2, 24960, Note_on_c, 0, 67, 0
2, 24960, Note_on_c, 0, 64, 100
2, 24990, Note_on_c, 0, 64, 0
2, 24990, Note_on_c, 0, 67, 100
2, 25020, Note_on_c, 0, 67, 0
2, 25020, Note_on_c, 0, 62, 100
2, 25050, Note_on_c, 0, 62, 0
2, 25050, Note_on_c, 0, 67, 100
2, 25080, Note_on_c, 0, 67, 0
2, 25080, Note_on_c, 0, 61, 100
2, 25110, Note_on_c, 0, 61, 0
2, 25110, Note_on_c, 0, 67, 100
2, 25140, Note_on_c, 0, 67, 0
2, 25140, Note_on_c, 0, 59, 100
2, 25170, Note_on_c, 0, 59, 0
2, 25170, Note_on_c, 0, 67, 100
2, 25200, Note_on_c, 0, 67, 0
2, 25200, Note_on_c, 0, 57, 100
2, 25260, Note_on_c, 0, 57, 0
2, 25260, Note_on_c, 0, 67, 100
2, 25320, Note_on_c, 0, 67, 0
2, 25320, Note_on_c, 0, 66, 100
2, 25350, Note_on_c, 0, 66, 0
2, 25350, Note_on_c, 0, 64, 100
2, 25380, Note_on_c, 0, 64, 0
2, 25380, Note_on_c, 0, 66, 100
2, 25410, Note_on_c, 0, 66, 0
2, 25410, Note_on_c, 0, 67, 100
2, 25440, Note_on_c, 0, 67, 0
2, 25440, Note_on_c, 0, 64, 100
2, 25455, Note_on_c, 0, 64, 0
2, 25455, Note_on_c, 0, 66, 100
2, 25470, Note_on_c, 0, 66, 0
2, 25470, Note_on_c, 0, 64, 100
2, 25485, Note_on_c, 0, 64, 0
2, 25485, Note_on_c, 0, 66, 100
2, 25500, Note_on_c, 0, 66, 0
2, 25500, Note_on_c, 0, 64, 100
2, 25515, Note_on_c, 0, 64, 0
2, 25530, Note_on_c, 0, 62, 100
2, 25560, Note_on_c, 0, 62, 0
2, 25560, Note_on_c, 0, 62, 100
2, 25800, Note_on_c, 0, 62, 0
2, 25860, Note_on_c, 0, 62, 100
2, 25950, Note_on_c, 0, 62, 0
2, 25950, Note_on_c, 0, 59, 100
2, 25980, Note_on_c, 0, 59, 0
2, 25980, Note_on_c, 0, 61, 100
2, 26010, Note_on_c, 0, 61, 0
2, 26010, Note_on_c, 0, 62, 100
2, 26040, Note_on_c, 0, 62, 0
2, 26040, Note_on_c, 0, 64, 100
2, 26070, Note_on_c, 0, 64, 0
2, 26070, Note_on_c, 0, 66, 100
2, 26100, Note_on_c, 0, 66, 0
2, 26100, Note_on_c, 0, 67, 100
2, 26130, Note_on_c, 0, 67, 0
2, 26160, Note_on_c, 0, 57, 100
2, 26190, Note_on_c, 0, 57, 0
2, 26220, Note_on_c, 0, 61, 100
2, 26235, Note_on_c, 0, 61, 0
2, 26235, Note_on_c, 0, 62, 100
2, 26250, Note_on_c, 0, 62, 0
2, 26250, Note_on_c, 0, 61, 100
2, 26265, Note_on_c, 0, 61, 0
2, 26280, Note_on_c, 0, 62, 100
2, 26400, Note_on_c, 0, 62, 0
2, 26760, Note_on_c, 0, 66, 100
2, 26790, Note_on_c, 0, 66, 0
2, 26790, Note_on_c, 0, 67, 100
2, 26820, Note_on_c, 0, 67, 0
2, 26820, Note_on_c, 0, 66, 100
2, 26840, Note_on_c, 0, 66, 0
2, 26840, Note_on_c, 0, 67, 100
2, 26860, Note_on_c, 0, 67, 0
2, 26860, Note_on_c, 0, 66, 100
2, 26880, Note_on_c, 0, 66, 0
2, 26880, Note_on_c, 0, 67, 100
2, 26895, Note_on_c, 0, 67, 0
2, 26895, Note_on_c, 0, 66, 100
2, 26910, Note_on_c, 0, 66, 0
2, 26910, Note_on_c, 0, 67, 100
2, 26925, Note_on_c, 0, 67, 0
2, 26925, Note_on_c, 0, 66, 100
2, 26940, Note_on_c, 0, 66, 0
2, 26940, Note_on_c, 0, 67, 100
2, 26955, Note_on_c, 0, 67, 0
2, 26955, Note_on_c, 0, 66, 100
2, 26970, Note_on_c, 0, 66, 0
2, 26970, Note_on_c, 0, 64, 100
2, 26985, Note_on_c, 0, 64, 0
2, 26985, Note_on_c, 0, 66, 100
2, 27000, Note_on_c, 0, 66, 0
2, 27000, Note_on_c, 0, 67, 100
2, 27120, Note_on_c, 0, 67, 0
2, 27180, Note_on_c, 0, 50, 100
2, 27240, Note_on_c, 0, 50, 0
2, 27240, Note_on_c, 0, 55, 100
2, 27270, Note_on_c, 0, 55, 0
2, 27270, Note_on_c, 0, 57, 100
2, 27300, Note_on_c, 0, 57, 0
2, 27300, Note_on_c, 0, 59, 100
2, 27330, Note_on_c, 0, 59, 0
2, 27360, Note_on_c, 0, 59, 100
2, 27375, Note_on_c, 0, 59, 0
2, 27375, Note_on_c, 0, 60, 100
2, 27390, Note_on_c, 0, 60, 0
2, 27390, Note_on_c, 0, 59, 100
2, 27420, Note_on_c, 0, 59, 0
2, 27420, Note_on_c, 0, 57, 100
2, 27480, Note_on_c, 0, 57, 0
2, 27480, Note_on_c, 0, 57, 100
2, 27540, Note_on_c, 0, 57, 0
2, 27540, Note_on_c, 0, 54, 100
2, 27570, Note_on_c, 0, 54, 0
2, 27570, Note_on_c, 0, 55, 100
2, 27600, Note_on_c, 0, 55, 0
2, 27600, Note_on_c, 0, 57, 100
2, 27630, Note_on_c, 0, 57, 0
2, 27630, Note_on_c, 0, 59, 100
2, 27660, Note_on_c, 0, 59, 0
2, 27660, Note_on_c, 0, 60, 100
2, 27690, Note_on_c, 0, 60, 0
2, 27720, Note_on_c, 0, 60, 100
2, 27735, Note_on_c, 0, 60, 0
2, 27735, Note_on_c, 0, 62, 100
2, 27750, Note_on_c, 0, 62, 0
2, 27750, Note_on_c, 0, 60, 100
2, 27780, Note_on_c, 0, 60, 0
2, 27780, Note_on_c, 0, 59, 100
2, 27840, Note_on_c, 0, 59, 0
2, 27840, Note_on_c, 0, 59, 100
2, 27900, Note_on_c, 0, 59, 0
2, 27900, Note_on_c, 0, 62, 100
2, 27960, Note_on_c, 0, 62, 0
2, 27960, Note_on_c, 0, 60, 100
2, 27990, Note_on_c, 0, 60, 0
2, 27990, Note_on_c, 0, 59, 100
2, 28020, Note_on_c, 0, 59, 0
2, 28020, Note_on_c, 0, 57, 100
2, 28050, Note_on_c, 0, 57, 0
2, 28050, Note_on_c, 0, 55, 100
2, 28080, Note_on_c, 0, 55, 0
2, 28080, Note_on_c, 0, 53, 90
2, 28139, Note_on_c, 0, 53, 0
2, 28140, Note_on_c, 0, 57, 90
2, 28169, Note_on_c, 0, 57, 0
2, 28170, Note_on_c, 0, 55, 90
2, 28199, Note_on_c, 0, 55, 0
2, 28200, Note_on_c, 0, 53, 90
2, 28259, Note_on_c, 0, 53, 0
2, 28260, Note_on_c, 0, 62, 90
2, 28289, Note_on_c, 0, 62, 0
2, 28290, Note_on_c, 0, 60, 90
2, 28319, Note_on_c, 0, 60, 0
2, 28320, Note_on_c, 0, 59, 90
2, 28349, Note_on_c, 0, 59, 0
2, 28350, Note_on_c, 0, 57, 90
2, 28379, Note_on_c, 0, 57, 0
2, 28380, Note_on_c, 0, 55, 90
2, 28409, Note_on_c, 0, 55, 0
2, 28410, Note_on_c, 0, 53, 90
2, 28439, Note_on_c, 0, 53, 0
2, 28440, Note_on_c, 0, 52, 90
2, 28559, Note_on_c, 0, 52, 0
2, 28620, Note_on_c, 0, 69, 90
2, 28679, Note_on_c, 0, 69, 0
2, 28680, Note_on_c, 0, 67, 90
2, 28709, Note_on_c, 0, 67, 0
2, 28710, Note_on_c, 0, 66, 90
2, 28739, Note_on_c, 0, 66, 0
2, 28740, Note_on_c, 0, 64, 90
2, 28769, Note_on_c, 0, 64, 0
2, 28770, Note_on_c, 0, 62, 90
2, 28799, Note_on_c, 0, 62, 0
2, 28800, Note_on_c, 0, 67, 90
2, 28919, Note_on_c, 0, 67, 0
2, 28980, Note_on_c, 0, 67, 90
2, 29009, Note_on_c, 0, 67, 0
2, 29010, Note_on_c, 0, 66, 90
2, 29039, Note_on_c, 0, 66, 0
2, 29040, Note_on_c, 0, 64, 90
2, 29069, Note_on_c, 0, 64, 0
2, 29070, Note_on_c, 0, 62, 90
2, 29099, Note_on_c, 0, 62, 0
2, 29100, Note_on_c, 0, 60, 90
2, 29129, Note_on_c, 0, 60, 0
2, 29130, Note_on_c, 0, 59, 90
2, 29159, Note_on_c, 0, 59, 0
2, 29160, Note_on_c, 0, 60, 90
2, 29279, Note_on_c, 0, 60, 0
2, 29760, Note_on_c, 0, 62, 90
2, 29910, Note_on_c, 0, 62, 0
2, 29910, Note_on_c, 0, 62, 90
2, 29939, Note_on_c, 0, 62, 0
2, 29940, Note_on_c, 0, 60, 90
2, 29969, Note_on_c, 0, 60, 0
2, 29970, Note_on_c, 0, 59, 90
2, 29999, Note_on_c, 0, 59, 0
2, 30000, Note_on_c, 0, 60, 90
2, 30029, Note_on_c, 0, 60, 0
2, 30030, Note_on_c, 0, 62, 90
2, 30059, Note_on_c, 0, 62, 0
2, 30060, Note_on_c, 0, 64, 90
2, 30089, Note_on_c, 0, 64, 0
2, 30090, Note_on_c, 0, 60, 90
2, 30119, Note_on_c, 0, 60, 0
2, 30120, Note_on_c, 0, 54, 90
2, 30149, Note_on_c, 0, 54, 0
2, 30150, Note_on_c, 0, 59, 90
2, 30179, Note_on_c, 0, 59, 0
2, 30180, Note_on_c, 0, 57, 90
2, 30209, Note_on_c, 0, 57, 0
2, 30210, Note_on_c, 0, 55, 90
2, 30239, Note_on_c, 0, 55, 0
2, 30240, Note_on_c, 0, 57, 90
2, 30269, Note_on_c, 0, 57, 0
2, 30270, Note_on_c, 0, 59, 90
2, 30299, Note_on_c, 0, 59, 0
2, 30300, Note_on_c, 0, 60, 90
2, 30329, Note_on_c, 0, 60, 0
2, 30330, Note_on_c, 0, 57, 90
2, 30359, Note_on_c, 0, 57, 0
2, 30360, Note_on_c, 0, 50, 90
2, 30389, Note_on_c, 0, 50, 0
2, 30390, Note_on_c, 0, 55, 90
2, 30419, Note_on_c, 0, 55, 0
2, 30420, Note_on_c, 0, 54, 90
2, 30449, Note_on_c, 0, 54, 0
2, 30450, Note_on_c, 0, 52, 90
2, 30479, Note_on_c, 0, 52, 0
2, 30480, Note_on_c, 0, 54, 90
2, 30509, Note_on_c, 0, 54, 0
2, 30510, Note_on_c, 0, 55, 90
2, 30539, Note_on_c, 0, 55, 0
2, 30540, Note_on_c, 0, 57, 90
2, 30569, Note_on_c, 0, 57, 0
2, 30570, Note_on_c, 0, 54, 90
2, 30599, Note_on_c, 0, 54, 0
2, 30600, Note_on_c, 0, 47, 90
2, 30659, Note_on_c, 0, 47, 0
2, 30900, Note_on_c, 0, 55, 90
2, 30989, Note_on_c, 0, 55, 0
2, 30990, Note_on_c, 0, 52, 90
2, 31019, Note_on_c, 0, 52, 0
2, 31020, Note_on_c, 0, 54, 90
2, 31049, Note_on_c, 0, 54, 0
2, 31050, Note_on_c, 0, 55, 90
2, 31079, Note_on_c, 0, 55, 0
2, 31080, Note_on_c, 0, 57, 90
2, 31109, Note_on_c, 0, 57, 0
2, 31110, Note_on_c, 0, 59, 90
2, 31139, Note_on_c, 0, 59, 0
2, 31140, Note_on_c, 0, 60, 90
2, 31169, Note_on_c, 0, 60, 0
2, 31200, Note_on_c, 0, 50, 90
2, 31229, Note_on_c, 0, 50, 0
2, 31260, Note_on_c, 0, 54, 90
2, 31274, Note_on_c, 0, 54, 0
2, 31275, Note_on_c, 0, 52, 90
2, 31289, Note_on_c, 0, 52, 0
2, 31290, Note_on_c, 0, 54, 90
2, 31319, Note_on_c, 0, 54, 0
2, 31320, Note_on_c, 0, 55, 90
2, 31349, Note_on_c, 0, 55, 0
2, 31350, Note_on_c, 0, 50, 90
2, 31379, Note_on_c, 0, 50, 0
2, 31380, Note_on_c, 0, 52, 90
2, 31409, Note_on_c, 0, 52, 0
2, 31410, Note_on_c, 0, 54, 90
2, 31439, Note_on_c, 0, 54, 0
2, 31440, Note_on_c, 0, 55, 90
2, 31469, Note_on_c, 0, 55, 0
2, 31470, Note_on_c, 0, 57, 90
2, 31499, Note_on_c, 0, 57, 0
2, 31500, Note_on_c, 0, 59, 90
2, 31529, Note_on_c, 0, 59, 0
2, 31530, Note_on_c, 0, 60, 90
2, 31559, Note_on_c, 0, 60, 0
2, 31560, Note_on_c, 0, 62, 90
2, 31589, Note_on_c, 0, 62, 0
2, 31620, Note_on_c, 0, 59, 90
2, 31649, Note_on_c, 0, 59, 0
2, 31680, Note_on_c, 0, 55, 90
2, 31709, Note_on_c, 0, 55, 0
2, 31740, Note_on_c, 0, 52, 90
2, 31769, Note_on_c, 0, 52, 0
2, 31800, Note_on_c, 0, 57, 90
2, 31829, Note_on_c, 0, 57, 0
2, 31830, Note_on_c, 0, 59, 90
2, 31859, Note_on_c, 0, 59, 0
2, 31860, Note_on_c, 0, 60, 90
2, 31889, Note_on_c, 0, 60, 0
2, 31890, Note_on_c, 0, 62, 90
2, 31919, Note_on_c, 0, 62, 0
2, 31920, Note_on_c, 0, 64, 90
2, 31949, Note_on_c, 0, 64, 0
2, 31950, Note_on_c, 0, 62, 90
2, 31979, Note_on_c, 0, 62, 0
2, 31980, Note_on_c, 0, 60, 90
2, 32009, Note_on_c, 0, 60, 0
2, 32010, Note_on_c, 0, 59, 90
2, 32039, Note_on_c, 0, 59, 0
2, 32040, Note_on_c, 0, 57, 90
2, 32069, Note_on_c, 0, 57, 0
2, 32070, Note_on_c, 0, 60, 90
2, 32099, Note_on_c, 0, 60, 0
2, 32100, Note_on_c, 0, 59, 90
2, 32129, Note_on_c, 0, 59, 0
2, 32130, Note_on_c, 0, 57, 90
2, 32159, Note_on_c, 0, 57, 0
2, 32160, Note_on_c, 0, 55, 90
2, 32189, Note_on_c, 0, 55, 0
2, 32190, Note_on_c, 0, 54, 90
2, 32219, Note_on_c, 0, 54, 0
2, 32220, Note_on_c, 0, 55, 90
2, 32249, Note_on_c, 0, 55, 0
2, 32250, Note_on_c, 0, 57, 90
2, 32279, Note_on_c, 0, 57, 0
2, 32280, Note_on_c, 0, 54, 90
2, 32295, Note_on_c, 0, 54, 0
2, 32295, Note_on_c, 0, 55, 90
2, 32310, Note_on_c, 0, 55, 0
2, 32310, Note_on_c, 0, 54, 90
2, 32370, Note_on_c, 0, 54, 0
2, 32370, Note_on_c, 0, 55, 90
2, 32399, Note_on_c, 0, 55, 0
2, 32400, Note_on_c, 0, 55, 90
2, 32519, Note_on_c, 0, 55, 0
2, 33300, Note_on_c, 0, 64, 90
2, 33359, Note_on_c, 0, 64, 0
2, 33360, Note_on_c, 0, 59, 90
2, 33389, Note_on_c, 0, 59, 0
2, 33390, Note_on_c, 0, 57, 90
2, 33419, Note_on_c, 0, 57, 0
2, 33420, Note_on_c, 0, 55, 90
2, 33479, Note_on_c, 0, 55, 0
2, 33480, Note_on_c, 0, 55, 90
2, 33539, Note_on_c, 0, 55, 0
2, 33540, Note_on_c, 0, 57, 90
2, 33599, Note_on_c, 0, 57, 0
2, 33600, Note_on_c, 0, 57, 90
2, 33659, Note_on_c, 0, 57, 0
2, 33660, Note_on_c, 0, 60, 90
2, 33689, Note_on_c, 0, 60, 0
2, 33690, Note_on_c, 0, 59, 90
2, 33719, Note_on_c, 0, 59, 0
2, 33720, Note_on_c, 0, 57, 90
2, 33749, Note_on_c, 0, 57, 0
2, 33750, Note_on_c, 0, 55, 90
2, 33779, Note_on_c, 0, 55, 0
2, 33780, Note_on_c, 0, 54, 90
2, 33809, Note_on_c, 0, 54, 0
2, 33840, Note_on_c, 0, 54, 90
2, 33899, Note_on_c, 0, 54, 0
2, 33900, Note_on_c, 0, 55, 90
2, 33959, Note_on_c, 0, 55, 0
2, 33960, Note_on_c, 0, 55, 90
2, 34079, Note_on_c, 0, 55, 0
2, 34140, Note_on_c, 0, 59, 90
2, 34199, Note_on_c, 0, 59, 0
2, 34200, Note_on_c, 0, 64, 90
2, 34259, Note_on_c, 0, 64, 0
2, 34260, Note_on_c, 0, 66, 90
2, 34289, Note_on_c, 0, 66, 0
2, 34290, Note_on_c, 0, 67, 90
2, 34319, Note_on_c, 0, 67, 0
2, 34320, Note_on_c, 0, 69, 90
2, 34349, Note_on_c, 0, 69, 0
2, 34350, Note_on_c, 0, 71, 90
2, 34379, Note_on_c, 0, 71, 0
2, 34380, Note_on_c, 0, 69, 90
2, 34409, Note_on_c, 0, 69, 0
2, 34410, Note_on_c, 0, 67, 90
2, 34439, Note_on_c, 0, 67, 0
2, 34440, Note_on_c, 0, 66, 90
2, 34469, Note_on_c, 0, 66, 0
2, 34470, Note_on_c, 0, 64, 90
2, 34499, Note_on_c, 0, 64, 0
2, 34500, Note_on_c, 0, 63, 90
2, 34529, Note_on_c, 0, 63, 0
2, 34530, Note_on_c, 0, 61, 90
2, 34559, Note_on_c, 0, 61, 0
2, 34560, Note_on_c, 0, 59, 90
2, 34679, Note_on_c, 0, 59, 0
2, 34710, Note_on_c, 0, 64, 90
2, 34739, Note_on_c, 0, 64, 0
2, 34740, Note_on_c, 0, 62, 90
2, 34769, Note_on_c, 0, 62, 0
2, 34770, Note_on_c, 0, 64, 90
2, 34799, Note_on_c, 0, 64, 0
2, 34800, Note_on_c, 0, 60, 90
2, 34829, Note_on_c, 0, 60, 0
2, 34830, Note_on_c, 0, 64, 90
2, 34859, Note_on_c, 0, 64, 0
2, 34860, Note_on_c, 0, 59, 90
2, 34889, Note_on_c, 0, 59, 0
2, 34890, Note_on_c, 0, 64, 90
2, 34919, Note_on_c, 0, 64, 0
2, 34920, Note_on_c, 0, 57, 90
2, 34949, Note_on_c, 0, 57, 0
2, 34950, Note_on_c, 0, 60, 90
2, 34979, Note_on_c, 0, 60, 0
2, 34980, Note_on_c, 0, 59, 90
2, 35009, Note_on_c, 0, 59, 0
2, 35010, Note_on_c, 0, 60, 90
2, 35039, Note_on_c, 0, 60, 0
2, 35040, Note_on_c, 0, 57, 90
2, 35069, Note_on_c, 0, 57, 0
2, 35070, Note_on_c, 0, 60, 90
2, 35099, Note_on_c, 0, 60, 0
2, 35100, Note_on_c, 0, 55, 90
2, 35129, Note_on_c, 0, 55, 0
2, 35130, Note_on_c, 0, 60, 90
2, 35159, Note_on_c, 0, 60, 0
2, 35160, Note_on_c, 0, 54, 90
2, 35189, Note_on_c, 0, 54, 0
2, 35190, Note_on_c, 0, 60, 90
2, 35219, Note_on_c, 0, 60, 0
2, 35220, Note_on_c, 0, 52, 90
2, 35249, Note_on_c, 0, 52, 0
2, 35250, Note_on_c, 0, 60, 90
2, 35279, Note_on_c, 0, 60, 0
2, 35280, Note_on_c, 0, 51, 90
2, 35339, Note_on_c, 0, 51, 0
2, 35340, Note_on_c, 0, 54, 90
2, 35399, Note_on_c, 0, 54, 0
2, 35400, Note_on_c, 0, 59, 90
2, 35550, Note_on_c, 0, 59, 0
2, 35550, Note_on_c, 0, 57, 90
2, 35579, Note_on_c, 0, 57, 0
2, 35580, Note_on_c, 0, 55, 90
2, 35609, Note_on_c, 0, 55, 0
2, 35610, Note_on_c, 0, 54, 90
2, 35639, Note_on_c, 0, 54, 0
2, 35640, Note_on_c, 0, 52, 90
2, 35669, Note_on_c, 0, 52, 0
2, 35670, Note_on_c, 0, 54, 90
2, 35699, Note_on_c, 0, 54, 0
2, 35700, Note_on_c, 0, 55, 90
2, 35729, Note_on_c, 0, 55, 0
2, 35730, Note_on_c, 0, 57, 90
2, 35759, Note_on_c, 0, 57, 0
2, 35760, Note_on_c, 0, 59, 90
2, 35789, Note_on_c, 0, 59, 0
2, 35790, Note_on_c, 0, 57, 90
2, 35819, Note_on_c, 0, 57, 0
2, 35820, Note_on_c, 0, 59, 90
2, 35849, Note_on_c, 0, 59, 0
2, 35850, Note_on_c, 0, 60, 90
2, 35879, Note_on_c, 0, 60, 0
2, 35880, Note_on_c, 0, 54, 90
2, 35939, Note_on_c, 0, 54, 0
2, 35940, Note_on_c, 0, 63, 90
2, 35955, Note_on_c, 0, 63, 0
2, 35955, Note_on_c, 0, 64, 90
2, 35970, Note_on_c, 0, 64, 0
2, 35970, Note_on_c, 0, 63, 90
2, 36000, Note_on_c, 0, 63, 0
2, 36000, Note_on_c, 0, 64, 90
2, 36750, Note_on_c, 0, 64, 0
2, 36750, Note_on_c, 0, 67, 90
2, 36779, Note_on_c, 0, 67, 0
2, 36780, Note_on_c, 0, 66, 90
2, 36809, Note_on_c, 0, 66, 0
2, 36810, Note_on_c, 0, 67, 90
2, 36839, Note_on_c, 0, 67, 0
2, 36840, Note_on_c, 0, 64, 90
2, 36869, Note_on_c, 0, 64, 0
2, 36870, Note_on_c, 0, 67, 90
2, 36899, Note_on_c, 0, 67, 0
2, 36900, Note_on_c, 0, 62, 90
2, 36929, Note_on_c, 0, 62, 0
2, 36930, Note_on_c, 0, 67, 90
2, 36959, Note_on_c, 0, 67, 0
2, 36960, Note_on_c, 0, 61, 90
2, 36989, Note_on_c, 0, 61, 0
2, 36990, Note_on_c, 0, 67, 90
2, 37019, Note_on_c, 0, 67, 0
2, 37020, Note_on_c, 0, 59, 90
2, 37049, Note_on_c, 0, 59, 0
2, 37050, Note_on_c, 0, 67, 90
2, 37079, Note_on_c, 0, 67, 0
2, 37080, Note_on_c, 0, 61, 90
2, 37109, Note_on_c, 0, 61, 0
2, 37110, Note_on_c, 0, 64, 90
2, 37139, Note_on_c, 0, 64, 0
2, 37140, Note_on_c, 0, 62, 90
2, 37169, Note_on_c, 0, 62, 0
2, 37170, Note_on_c, 0, 64, 90
2, 37199, Note_on_c, 0, 64, 0
2, 37200, Note_on_c, 0, 61, 90
2, 37229, Note_on_c, 0, 61, 0
2, 37230, Note_on_c, 0, 64, 90
2, 37259, Note_on_c, 0, 64, 0
2, 37260, Note_on_c, 0, 59, 90
2, 37289, Note_on_c, 0, 59, 0
2, 37290, Note_on_c, 0, 64, 90
2, 37319, Note_on_c, 0, 64, 0
2, 37320, Note_on_c, 0, 58, 90
2, 37349, Note_on_c, 0, 58, 0
2, 37350, Note_on_c, 0, 64, 90
2, 37379, Note_on_c, 0, 64, 0
2, 37380, Note_on_c, 0, 61, 90
2, 37409, Note_on_c, 0, 61, 0
2, 37410, Note_on_c, 0, 64, 90
2, 37439, Note_on_c, 0, 64, 0
2, 37440, Note_on_c, 0, 54, 90
2, 37590, Note_on_c, 0, 54, 0
2, 37590, Note_on_c, 0, 62, 90
2, 37619, Note_on_c, 0, 62, 0
2, 37620, Note_on_c, 0, 61, 90
2, 37649, Note_on_c, 0, 61, 0
2, 37650, Note_on_c, 0, 59, 90
2, 37679, Note_on_c, 0, 59, 0
2, 37680, Note_on_c, 0, 58, 90
2, 37695, Note_on_c, 0, 58, 0
2, 37695, Note_on_c, 0, 59, 90
2, 37710, Note_on_c, 0, 59, 0
2, 37710, Note_on_c, 0, 58, 90
2, 37725, Note_on_c, 0, 58, 0
2, 37725, Note_on_c, 0, 59, 90
2, 37740, Note_on_c, 0, 59, 0
2, 37740, Note_on_c, 0, 59, 90
2, 37769, Note_on_c, 0, 59, 0
2, 37770, Note_on_c, 0, 59, 90
2, 37799, Note_on_c, 0, 59, 0
2, 37800, Note_on_c, 0, 59, 90
2, 37919, Note_on_c, 0, 59, 0
2, 37980, Note_on_c, 0, 67, 90
2, 38039, Note_on_c, 0, 67, 0
2, 38040, Note_on_c, 0, 62, 90
2, 38069, Note_on_c, 0, 62, 0
2, 38070, Note_on_c, 0, 60, 90
2, 38099, Note_on_c, 0, 60, 0
2, 38100, Note_on_c, 0, 59, 90
2, 38129, Note_on_c, 0, 59, 0
2, 38160, Note_on_c, 0, 59, 90
2, 38219, Note_on_c, 0, 59, 0
2, 38220, Note_on_c, 0, 60, 90
2, 38279, Note_on_c, 0, 60, 0
2, 38280, Note_on_c, 0, 60, 90
2, 38339, Note_on_c, 0, 60, 0
2, 38340, Note_on_c, 0, 64, 90
2, 38369, Note_on_c, 0, 64, 0
2, 38370, Note_on_c, 0, 62, 90
2, 38399, Note_on_c, 0, 62, 0
2, 38400, Note_on_c, 0, 60, 90
2, 38429, Note_on_c, 0, 60, 0
2, 38430, Note_on_c, 0, 59, 90
2, 38459, Note_on_c, 0, 59, 0
2, 38460, Note_on_c, 0, 57, 90
2, 38489, Note_on_c, 0, 57, 0
2, 38520, Note_on_c, 0, 57, 90
2, 38579, Note_on_c, 0, 57, 0
2, 38580, Note_on_c, 0, 59, 90
2, 38639, Note_on_c, 0, 59, 0
2, 38640, Note_on_c, 0, 59, 90
2, 38999, Note_on_c, 0, 59, 0
2, 39000, Note_on_c, 0, 61, 90
2, 39120, Note_on_c, 0, 61, 0
2, 39120, Note_on_c, 0, 62, 90
2, 39135, Note_on_c, 0, 62, 0
2, 39135, Note_on_c, 0, 61, 90
2, 39150, Note_on_c, 0, 61, 0
2, 39150, Note_on_c, 0, 62, 90
2, 39165, Note_on_c, 0, 62, 0
2, 39165, Note_on_c, 0, 61, 90
2, 39180, Note_on_c, 0, 61, 0
2, 39180, Note_on_c, 0, 62, 90
2, 39195, Note_on_c, 0, 62, 0
2, 39195, Note_on_c, 0, 61, 90
2, 39210, Note_on_c, 0, 61, 0
2, 39210, Note_on_c, 0, 62, 90
2, 39225, Note_on_c, 0, 62, 0
2, 39225, Note_on_c, 0, 61, 90
2, 39240, Note_on_c, 0, 61, 0
2, 39240, Note_on_c, 0, 62, 90
2, 39359, Note_on_c, 0, 62, 0
2, 39480, Note_on_c, 0, 66, 90
2, 39630, Note_on_c, 0, 66, 0
2, 39630, Note_on_c, 0, 66, 90
2, 39659, Note_on_c, 0, 66, 0
2, 39660, Note_on_c, 0, 64, 90
2, 39689, Note_on_c, 0, 64, 0
2, 39690, Note_on_c, 0, 63, 90
2, 39719, Note_on_c, 0, 63, 0
2, 39720, Note_on_c, 0, 64, 90
2, 39749, Note_on_c, 0, 64, 0
2, 39750, Note_on_c, 0, 66, 90
2, 39779, Note_on_c, 0, 66, 0
2, 39780, Note_on_c, 0, 67, 90
2, 39809, Note_on_c, 0, 67, 0
2, 39810, Note_on_c, 0, 64, 90
2, 39839, Note_on_c, 0, 64, 0
2, 39840, Note_on_c, 0, 57, 90
2, 39990, Note_on_c, 0, 57, 0
2, 39990, Note_on_c, 0, 64, 90
2, 40019, Note_on_c, 0, 64, 0
2, 40020, Note_on_c, 0, 62, 90
2, 40049, Note_on_c, 0, 62, 0
2, 40050, Note_on_c, 0, 61, 90
2, 40079, Note_on_c, 0, 61, 0
2, 40080, Note_on_c, 0, 62, 90
2, 40109, Note_on_c, 0, 62, 0
2, 40110, Note_on_c, 0, 64, 90
2, 40139, Note_on_c, 0, 64, 0
2, 40140, Note_on_c, 0, 66, 90
2, 40169, Note_on_c, 0, 66, 0
2, 40170, Note_on_c, 0, 62, 90
2, 40199, Note_on_c, 0, 62, 0
2, 40200, Note_on_c, 0, 55, 90
2, 40350, Note_on_c, 0, 55, 0
2, 40350, Note_on_c, 0, 62, 90
2, 40379, Note_on_c, 0, 62, 0
2, 40380, Note_on_c, 0, 61, 90
2, 40409, Note_on_c, 0, 61, 0
2, 40410, Note_on_c, 0, 59, 90
2, 40439, Note_on_c, 0, 59, 0
2, 40440, Note_on_c, 0, 61, 90
2, 40469, Note_on_c, 0, 61, 0
2, 40470, Note_on_c, 0, 62, 90
2, 40499, Note_on_c, 0, 62, 0
2, 40500, Note_on_c, 0, 64, 90
2, 40529, Note_on_c, 0, 64, 0
2, 40530, Note_on_c, 0, 61, 90
2, 40559, Note_on_c, 0, 61, 0
2, 40560, Note_on_c, 0, 54, 90
2, 40589, Note_on_c, 0, 54, 0
2, 40590, Note_on_c, 0, 59, 90
2, 40619, Note_on_c, 0, 59, 0
2, 40620, Note_on_c, 0, 57, 90
2, 40649, Note_on_c, 0, 57, 0
2, 40650, Note_on_c, 0, 55, 90
2, 40679, Note_on_c, 0, 55, 0
2, 40680, Note_on_c, 0, 57, 90
2, 40709, Note_on_c, 0, 57, 0
2, 40710, Note_on_c, 0, 59, 90
2, 40739, Note_on_c, 0, 59, 0
2, 40740, Note_on_c, 0, 61, 90
2, 40769, Note_on_c, 0, 61, 0
2, 40770, Note_on_c, 0, 57, 90
2, 40799, Note_on_c, 0, 57, 0
2, 40800, Note_on_c, 0, 50, 90
2, 40829, Note_on_c, 0, 50, 0
2, 40830, Note_on_c, 0, 55, 90
2, 40859, Note_on_c, 0, 55, 0
2, 40860, Note_on_c, 0, 54, 90
2, 40889, Note_on_c, 0, 54, 0
2, 40890, Note_on_c, 0, 52, 90
2, 40919, Note_on_c, 0, 52, 0
2, 40920, Note_on_c, 0, 54, 90
2, 40949, Note_on_c, 0, 54, 0
2, 40950, Note_on_c, 0, 55, 90
2, 40979, Note_on_c, 0, 55, 0
2, 40980, Note_on_c, 0, 57, 90
2, 41009, Note_on_c, 0, 57, 0
2, 41010, Note_on_c, 0, 54, 90
2, 41039, Note_on_c, 0, 54, 0
2, 41040, Note_on_c, 0, 59, 90
2, 41069, Note_on_c, 0, 59, 0
2, 41070, Note_on_c, 0, 61, 90
2, 41099, Note_on_c, 0, 61, 0
2, 41100, Note_on_c, 0, 62, 90
2, 41189, Note_on_c, 0, 62, 0
2, 41190, Note_on_c, 0, 66, 90
2, 41219, Note_on_c, 0, 66, 0
2, 41220, Note_on_c, 0, 64, 90
2, 41309, Note_on_c, 0, 64, 0
2, 41310, Note_on_c, 0, 66, 90
2, 41339, Note_on_c, 0, 66, 0
2, 41340, Note_on_c, 0, 67, 90
2, 41429, Note_on_c, 0, 67, 0
2, 41430, Note_on_c, 0, 71, 90
2, 41459, Note_on_c, 0, 71, 0
2, 41460, Note_on_c, 0, 69, 90
2, 41549, Note_on_c, 0, 69, 0
2, 41550, Note_on_c, 0, 66, 90
2, 41579, Note_on_c, 0, 66, 0
2, 41580, Note_on_c, 0, 67, 90
2, 41669, Note_on_c, 0, 67, 0
2, 41670, Note_on_c, 0, 74, 90
2, 41699, Note_on_c, 0, 74, 0
2, 41700, Note_on_c, 0, 73, 90
2, 41729, Note_on_c, 0, 73, 0
2, 41730, Note_on_c, 0, 74, 90
2, 41759, Note_on_c, 0, 74, 0
2, 41760, Note_on_c, 0, 74, 90
2, 41820, Note_on_c, 0, 74, 0
2, 41820, Note_on_c, 0, 73, 90
2, 41849, Note_on_c, 0, 73, 0
2, 41850, Note_on_c, 0, 71, 90
2, 41879, Note_on_c, 0, 71, 0
2, 41880, Note_on_c, 0, 69, 90
2, 41909, Note_on_c, 0, 69, 0
2, 41910, Note_on_c, 0, 67, 90
2, 41939, Note_on_c, 0, 67, 0
2, 41940, Note_on_c, 0, 66, 90
2, 41969, Note_on_c, 0, 66, 0
2, 41970, Note_on_c, 0, 64, 90
2, 41999, Note_on_c, 0, 64, 0
2, 42000, Note_on_c, 0, 62, 90
2, 42029, Note_on_c, 0, 62, 0
2, 42030, Note_on_c, 0, 64, 90
2, 42059, Note_on_c, 0, 64, 0
2, 42060, Note_on_c, 0, 66, 90
2, 42089, Note_on_c, 0, 66, 0
2, 42120, Note_on_c, 0, 66, 90
2, 42135, Note_on_c, 0, 66, 0
2, 42135, Note_on_c, 0, 67, 90
2, 42150, Note_on_c, 0, 67, 0
2, 42150, Note_on_c, 0, 66, 90
2, 42179, Note_on_c, 0, 66, 0
2, 42180, Note_on_c, 0, 64, 90
2, 42239, Note_on_c, 0, 64, 0
2, 42240, Note_on_c, 0, 64, 90
2, 42299, Note_on_c, 0, 64, 0
2, 42300, Note_on_c, 0, 61, 90
2, 42329, Note_on_c, 0, 61, 0
2, 42330, Note_on_c, 0, 62, 90
2, 42359, Note_on_c, 0, 62, 0
2, 42360, Note_on_c, 0, 64, 90
2, 42389, Note_on_c, 0, 64, 0
2, 42390, Note_on_c, 0, 66, 90
2, 42419, Note_on_c, 0, 66, 0
2, 42420, Note_on_c, 0, 67, 90
2, 42449, Note_on_c, 0, 67, 0
2, 42480, Note_on_c, 0, 67, 90
2, 42495, Note_on_c, 0, 67, 0
2, 42495, Note_on_c, 0, 69, 90
2, 42510, Note_on_c, 0, 69, 0
2, 42510, Note_on_c, 0, 67, 90
2, 42539, Note_on_c, 0, 67, 0
2, 42540, Note_on_c, 0, 66, 90
2, 42599, Note_on_c, 0, 66, 0
2, 42600, Note_on_c, 0, 66, 90
2, 42659, Note_on_c, 0, 66, 0
2, 42660, Note_on_c, 0, 69, 90
2, 42719, Note_on_c, 0, 69, 0
2, 42720, Note_on_c, 0, 67, 90
2, 42749, Note_on_c, 0, 67, 0
2, 42750, Note_on_c, 0, 66, 90
2, 42779, Note_on_c, 0, 66, 0
2, 42780, Note_on_c, 0, 64, 90
2, 42809, Note_on_c, 0, 64, 0
2, 42810, Note_on_c, 0, 62, 90
2, 42839, Note_on_c, 0, 62, 0
2, 42840, Note_on_c, 0, 71, 90
2, 42899, Note_on_c, 0, 71, 0
2, 42900, Note_on_c, 0, 74, 90
2, 42929, Note_on_c, 0, 74, 0
2, 42930, Note_on_c, 0, 73, 90
2, 42959, Note_on_c, 0, 73, 0
2, 42960, Note_on_c, 0, 71, 90
2, 43019, Note_on_c, 0, 71, 0
2, 43020, Note_on_c, 0, 69, 90
2, 43079, Note_on_c, 0, 69, 0
2, 43080, Note_on_c, 0, 67, 90
2, 43109, Note_on_c, 0, 67, 0
2, 43110, Note_on_c, 0, 66, 90
2, 43139, Note_on_c, 0, 66, 0
2, 43140, Note_on_c, 0, 64, 90
2, 43169, Note_on_c, 0, 64, 0
2, 43170, Note_on_c, 0, 62, 90
2, 43199, Note_on_c, 0, 62, 0
2, 43200, Note_on_c, 0, 61, 90
2, 43229, Note_on_c, 0, 61, 0
2, 43230, Note_on_c, 0, 59, 90
2, 43259, Note_on_c, 0, 59, 0
2, 43260, Note_on_c, 0, 57, 90
2, 43289, Note_on_c, 0, 57, 0
2, 43290, Note_on_c, 0, 64, 90
2, 43319, Note_on_c, 0, 64, 0
2, 43320, Note_on_c, 0, 55, 90
2, 43349, Note_on_c, 0, 55, 0
2, 43350, Note_on_c, 0, 54, 90
2, 43409, Note_on_c, 0, 54, 0
2, 43410, Note_on_c, 0, 52, 90
2, 43439, Note_on_c, 0, 52, 0
2, 43440, Note_on_c, 0, 52, 90
2, 43455, Note_on_c, 0, 52, 0
2, 43455, Note_on_c, 0, 54, 90
2, 43470, Note_on_c, 0, 54, 0
2, 43470, Note_on_c, 0, 52, 90
2, 43530, Note_on_c, 0, 52, 0
2, 43530, Note_on_c, 0, 50, 90
2, 43559, Note_on_c, 0, 50, 0
2, 43560, Note_on_c, 0, 50, 90
2, 43589, Note_on_c, 0, 50, 0
2, 43590, Note_on_c, 0, 52, 90
2, 43619, Note_on_c, 0, 52, 0
2, 43620, Note_on_c, 0, 54, 90
2, 43649, Note_on_c, 0, 54, 0
2, 43650, Note_on_c, 0, 55, 90
2, 43679, Note_on_c, 0, 55, 0
2, 43680, Note_on_c, 0, 57, 90
2, 43709, Note_on_c, 0, 57, 0
2, 43710, Note_on_c, 0, 59, 90
2, 43739, Note_on_c, 0, 59, 0
2, 43740, Note_on_c, 0, 60, 90
2, 43769, Note_on_c, 0, 60, 0
2, 43770, Note_on_c, 0, 62, 90
2, 43799, Note_on_c, 0, 62, 0
2, 43800, Note_on_c, 0, 64, 90
2, 43829, Note_on_c, 0, 64, 0
2, 43830, Note_on_c, 0, 66, 90
2, 43859, Note_on_c, 0, 66, 0
2, 43860, Note_on_c, 0, 67, 90
2, 43889, Note_on_c, 0, 67, 0
2, 43920, Note_on_c, 0, 67, 90
2, 43935, Note_on_c, 0, 67, 0
2, 43935, Note_on_c, 0, 69, 90
2, 43950, Note_on_c, 0, 69, 0
2, 43950, Note_on_c, 0, 67, 90
2, 43979, Note_on_c, 0, 67, 0
2, 43980, Note_on_c, 0, 66, 90
2, 44039, Note_on_c, 0, 66, 0
2, 44040, Note_on_c, 0, 66, 90
2, 44099, Note_on_c, 0, 66, 0
2, 44100, Note_on_c, 0, 62, 90
2, 44129, Note_on_c, 0, 62, 0
2, 44130, Note_on_c, 0, 64, 90
2, 44159, Note_on_c, 0, 64, 0
2, 44160, Note_on_c, 0, 66, 90
2, 44189, Note_on_c, 0, 66, 0
2, 44190, Note_on_c, 0, 67, 90
2, 44219, Note_on_c, 0, 67, 0
2, 44220, Note_on_c, 0, 69, 90
2, 44249, Note_on_c, 0, 69, 0
2, 44280, Note_on_c, 0, 69, 90
2, 44295, Note_on_c, 0, 69, 0
2, 44295, Note_on_c, 0, 71, 90
2, 44310, Note_on_c, 0, 71, 0
2, 44310, Note_on_c, 0, 69, 90
2, 44339, Note_on_c, 0, 69, 0
2, 44340, Note_on_c, 0, 67, 90
2, 44399, Note_on_c, 0, 67, 0
2, 44400, Note_on_c, 0, 67, 90
2, 44759, Note_on_c, 0, 67, 0
2, 44760, Note_on_c, 0, 66, 90
2, 44910, Note_on_c, 0, 66, 0
2, 44910, Note_on_c, 0, 67, 90
2, 44939, Note_on_c, 0, 67, 0
2, 44940, Note_on_c, 0, 69, 90
2, 44969, Note_on_c, 0, 69, 0
2, 44970, Note_on_c, 0, 66, 90
2, 44999, Note_on_c, 0, 66, 0
2, 45000, Note_on_c, 0, 62, 90
2, 45059, Note_on_c, 0, 62, 0
2, 45060, Note_on_c, 0, 65, 90
2, 45089, Note_on_c, 0, 65, 0
2, 45090, Note_on_c, 0, 64, 90
2, 45119, Note_on_c, 0, 64, 0
2, 45120, Note_on_c, 0, 65, 90
2, 45390, Note_on_c, 0, 65, 0
2, 45390, Note_on_c, 0, 64, 90
2, 45419, Note_on_c, 0, 64, 0
2, 45420, Note_on_c, 0, 62, 90
2, 45449, Note_on_c, 0, 62, 0
2, 45450, Note_on_c, 0, 60, 90
2, 45479, Note_on_c, 0, 60, 0
2, 45480, Note_on_c, 0, 62, 90
2, 45509, Note_on_c, 0, 62, 0
2, 45510, Note_on_c, 0, 60, 90
2, 45539, Note_on_c, 0, 60, 0
2, 45540, Note_on_c, 0, 59, 90
2, 45569, Note_on_c, 0, 59, 0
2, 45570, Note_on_c, 0, 60, 90
2, 45599, Note_on_c, 0, 60, 0
2, 45600, Note_on_c, 0, 62, 90
2, 45629, Note_on_c, 0, 62, 0
2, 45630, Note_on_c, 0, 64, 90
2, 45659, Note_on_c, 0, 64, 0
2, 45660, Note_on_c, 0, 65, 90
2, 45689, Note_on_c, 0, 65, 0
2, 45690, Note_on_c, 0, 62, 90
2, 45719, Note_on_c, 0, 62, 0
2, 45720, Note_on_c, 0, 61, 90
2, 45779, Note_on_c, 0, 61, 0
2, 45780, Note_on_c, 0, 64, 90
2, 45809, Note_on_c, 0, 64, 0
2, 45810, Note_on_c, 0, 63, 90
2, 45839, Note_on_c, 0, 63, 0
2, 45840, Note_on_c, 0, 64, 90
2, 46110, Note_on_c, 0, 64, 0
2, 46110, Note_on_c, 0, 67, 90
2, 46139, Note_on_c, 0, 67, 0
2, 46140, Note_on_c, 0, 66, 90
2, 46169, Note_on_c, 0, 66, 0
2, 46170, Note_on_c, 0, 64, 90
2, 46199, Note_on_c, 0, 64, 0
2, 46200, Note_on_c, 0, 63, 90
2, 46229, Note_on_c, 0, 63, 0
2, 46230, Note_on_c, 0, 61, 90
2, 46259, Note_on_c, 0, 61, 0
2, 46260, Note_on_c, 0, 59, 90
2, 46289, Note_on_c, 0, 59, 0
2, 46290, Note_on_c, 0, 61, 90
2, 46319, Note_on_c, 0, 61, 0
2, 46320, Note_on_c, 0, 63, 90
2, 46349, Note_on_c, 0, 63, 0
2, 46350, Note_on_c, 0, 64, 90
2, 46379, Note_on_c, 0, 64, 0
2, 46380, Note_on_c, 0, 66, 90
2, 46409, Note_on_c, 0, 66, 0
2, 46410, Note_on_c, 0, 63, 90
2, 46439, Note_on_c, 0, 63, 0
2, 46440, Note_on_c, 0, 59, 90
2, 46499, Note_on_c, 0, 59, 0
2, 46500, Note_on_c, 0, 62, 90
2, 46529, Note_on_c, 0, 62, 0
2, 46530, Note_on_c, 0, 61, 90
2, 46559, Note_on_c, 0, 61, 0
2, 46560, Note_on_c, 0, 62, 90
2, 46830, Note_on_c, 0, 62, 0
2, 46830, Note_on_c, 0, 66, 90
2, 46859, Note_on_c, 0, 66, 0
2, 46860, Note_on_c, 0, 64, 90
2, 46889, Note_on_c, 0, 64, 0
2, 46890, Note_on_c, 0, 62, 90
2, 46919, Note_on_c, 0, 62, 0
2, 46920, Note_on_c, 0, 61, 90
2, 46949, Note_on_c, 0, 61, 0
2, 46950, Note_on_c, 0, 59, 90
2, 46979, Note_on_c, 0, 59, 0
2, 46980, Note_on_c, 0, 57, 90
2, 47009, Note_on_c, 0, 57, 0
2, 47010, Note_on_c, 0, 59, 90
2, 47039, Note_on_c, 0, 59, 0
2, 47040, Note_on_c, 0, 61, 90
2, 47069, Note_on_c, 0, 61, 0
2, 47070, Note_on_c, 0, 62, 90
2, 47099, Note_on_c, 0, 62, 0
2, 47100, Note_on_c, 0, 64, 90
2, 47129, Note_on_c, 0, 64, 0
2, 47130, Note_on_c, 0, 61, 90
2, 47159, Note_on_c, 0, 61, 0
2, 47160, Note_on_c, 0, 57, 90
2, 47219, Note_on_c, 0, 57, 0
2, 47220, Note_on_c, 0, 60, 90
2, 47249, Note_on_c, 0, 60, 0
2, 47250, Note_on_c, 0, 59, 90
2, 47279, Note_on_c, 0, 59, 0
2, 47280, Note_on_c, 0, 60, 90
2, 47550, Note_on_c, 0, 60, 0
2, 47550, Note_on_c, 0, 64, 90
2, 47579, Note_on_c, 0, 64, 0
2, 47580, Note_on_c, 0, 62, 90
2, 47609, Note_on_c, 0, 62, 0
2, 47610, Note_on_c, 0, 60, 90
2, 47639, Note_on_c, 0, 60, 0
2, 47640, Note_on_c, 0, 59, 90
2, 47669, Note_on_c, 0, 59, 0
2, 47670, Note_on_c, 0, 57, 90
2, 47699, Note_on_c, 0, 57, 0
2, 47700, Note_on_c, 0, 55, 90
2, 47729, Note_on_c, 0, 55, 0
2, 47730, Note_on_c, 0, 57, 90
2, 47759, Note_on_c, 0, 57, 0
2, 47760, Note_on_c, 0, 59, 90
2, 47789, Note_on_c, 0, 59, 0
2, 47790, Note_on_c, 0, 60, 90
2, 47819, Note_on_c, 0, 60, 0
2, 47820, Note_on_c, 0, 62, 90
2, 47849, Note_on_c, 0, 62, 0
2, 47850, Note_on_c, 0, 59, 90
2, 47879, Note_on_c, 0, 59, 0
2, 47880, Note_on_c, 0, 55, 90
2, 48030, Note_on_c, 0, 55, 0
2, 48030, Note_on_c, 0, 57, 90
2, 48059, Note_on_c, 0, 57, 0
2, 48060, Note_on_c, 0, 59, 90
2, 48089, Note_on_c, 0, 59, 0
2, 48090, Note_on_c, 0, 60, 90
2, 48119, Note_on_c, 0, 60, 0
2, 48120, Note_on_c, 0, 62, 90
2, 48149, Note_on_c, 0, 62, 0
2, 48150, Note_on_c, 0, 64, 90
2, 48179, Note_on_c, 0, 64, 0
2, 48180, Note_on_c, 0, 66, 90
2, 48209, Note_on_c, 0, 66, 0
2, 48210, Note_on_c, 0, 67, 90
2, 48239, Note_on_c, 0, 67, 0
2, 48240, Note_on_c, 0, 69, 90
2, 48269, Note_on_c, 0, 69, 0
2, 48270, Note_on_c, 0, 67, 90
2, 48299, Note_on_c, 0, 67, 0
2, 48300, Note_on_c, 0, 66, 90
2, 48329, Note_on_c, 0, 66, 0
2, 48330, Note_on_c, 0, 64, 90
2, 48359, Note_on_c, 0, 64, 0
2, 48360, Note_on_c, 0, 62, 90
2, 48479, Note_on_c, 0, 62, 0
2, 48780, Note_on_c, 0, 50, 90
2, 48839, Note_on_c, 0, 50, 0
2, 48840, Note_on_c, 0, 55, 90
2, 48869, Note_on_c, 0, 55, 0
2, 48870, Note_on_c, 0, 57, 90
2, 48899, Note_on_c, 0, 57, 0
2, 48900, Note_on_c, 0, 59, 90
2, 48929, Note_on_c, 0, 59, 0
2, 48960, Note_on_c, 0, 59, 90
2, 48975, Note_on_c, 0, 59, 0
2, 48975, Note_on_c, 0, 60, 90
2, 48990, Note_on_c, 0, 60, 0
2, 48990, Note_on_c, 0, 59, 90
2, 49019, Note_on_c, 0, 59, 0
2, 49020, Note_on_c, 0, 57, 90
2, 49079, Note_on_c, 0, 57, 0
2, 49080, Note_on_c, 0, 57, 90
2, 49139, Note_on_c, 0, 57, 0
2, 49140, Note_on_c, 0, 54, 90
2, 49169, Note_on_c, 0, 54, 0
2, 49170, Note_on_c, 0, 55, 90
2, 49199, Note_on_c, 0, 55, 0
2, 49200, Note_on_c, 0, 57, 90
2, 49229, Note_on_c, 0, 57, 0
2, 49230, Note_on_c, 0, 59, 90
2, 49259, Note_on_c, 0, 59, 0
2, 49260, Note_on_c, 0, 60, 90
2, 49289, Note_on_c, 0, 60, 0
2, 49320, Note_on_c, 0, 60, 90
2, 49335, Note_on_c, 0, 60, 0
2, 49335, Note_on_c, 0, 62, 90
2, 49350, Note_on_c, 0, 62, 0
2, 49350, Note_on_c, 0, 60, 90
2, 49379, Note_on_c, 0, 60, 0
2, 49380, Note_on_c, 0, 59, 90
2, 49439, Note_on_c, 0, 59, 0
2, 49440, Note_on_c, 0, 59, 90
2, 49499, Note_on_c, 0, 59, 0
2, 49500, Note_on_c, 0, 62, 90
2, 49529, Note_on_c, 0, 62, 0
2, 49560, Note_on_c, 0, 60, 90
2, 49589, Note_on_c, 0, 60, 0
2, 49590, Note_on_c, 0, 59, 90
2, 49619, Note_on_c, 0, 59, 0
2, 49620, Note_on_c, 0, 57, 90
2, 49649, Note_on_c, 0, 57, 0
2, 49650, Note_on_c, 0, 55, 90
2, 49679, Note_on_c, 0, 55, 0
2, 49680, Note_on_c, 0, 64, 90
2, 49739, Note_on_c, 0, 64, 0
2, 49740, Note_on_c, 0, 67, 90
2, 49769, Note_on_c, 0, 67, 0
2, 49770, Note_on_c, 0, 66, 90
2, 49799, Note_on_c, 0, 66, 0
2, 49800, Note_on_c, 0, 64, 90
2, 49859, Note_on_c, 0, 64, 0
2, 49860, Note_on_c, 0, 62, 90
2, 49919, Note_on_c, 0, 62, 0
2, 49920, Note_on_c, 0, 60, 90
2, 49949, Note_on_c, 0, 60, 0
2, 49950, Note_on_c, 0, 59, 90
2, 49979, Note_on_c, 0, 59, 0
2, 49980, Note_on_c, 0, 57, 90
2, 50009, Note_on_c, 0, 57, 0
2, 50010, Note_on_c, 0, 55, 90
2, 50039, Note_on_c, 0, 55, 0
2, 50040, Note_on_c, 0, 57, 90
2, 50069, Note_on_c, 0, 57, 0
2, 50070, Note_on_c, 0, 55, 90
2, 50099, Note_on_c, 0, 55, 0
2, 50100, Note_on_c, 0, 54, 90
2, 50129, Note_on_c, 0, 54, 0
2, 50130, Note_on_c, 0, 52, 90
2, 50159, Note_on_c, 0, 52, 0
2, 50160, Note_on_c, 0, 50, 90
2, 50279, Note_on_c, 0, 50, 0
2, 50340, Note_on_c, 0, 62, 90
2, 50429, Note_on_c, 0, 62, 0
2, 50430, Note_on_c, 0, 59, 90
2, 50459, Note_on_c, 0, 59, 0
2, 50460, Note_on_c, 0, 61, 90
2, 50489, Note_on_c, 0, 61, 0
2, 50490, Note_on_c, 0, 62, 90
2, 50519, Note_on_c, 0, 62, 0
2, 50520, Note_on_c, 0, 64, 90
2, 50549, Note_on_c, 0, 64, 0
2, 50550, Note_on_c, 0, 66, 90
2, 50579, Note_on_c, 0, 66, 0
2, 50580, Note_on_c, 0, 67, 90
2, 50609, Note_on_c, 0, 67, 0
2, 50640, Note_on_c, 0, 57, 90
2, 50699, Note_on_c, 0, 57, 0
2, 50700, Note_on_c, 0, 61, 90
2, 50715, Note_on_c, 0, 61, 0
2, 50715, Note_on_c, 0, 62, 90
2, 50730, Note_on_c, 0, 62, 0
2, 50730, Note_on_c, 0, 61, 90
2, 50760, Note_on_c, 0, 61, 0
2, 50760, Note_on_c, 0, 62, 90
2, 50789, Note_on_c, 0, 62, 0
2, 50790, Note_on_c, 0, 57, 90
2, 50819, Note_on_c, 0, 57, 0
2, 50820, Note_on_c, 0, 59, 90
2, 50849, Note_on_c, 0, 59, 0
2, 50850, Note_on_c, 0, 61, 90
2, 50879, Note_on_c, 0, 61, 0
2, 50880, Note_on_c, 0, 62, 90
2, 50909, Note_on_c, 0, 62, 0
2, 50910, Note_on_c, 0, 64, 90
2, 50939, Note_on_c, 0, 64, 0
2, 50940, Note_on_c, 0, 66, 90
2, 50969, Note_on_c, 0, 66, 0
2, 50970, Note_on_c, 0, 67, 90
2, 50999, Note_on_c, 0, 67, 0
2, 51000, Note_on_c, 0, 69, 90
2, 51059, Note_on_c, 0, 69, 0
2, 51060, Note_on_c, 0, 66, 90
2, 51119, Note_on_c, 0, 66, 0
2, 51120, Note_on_c, 0, 62, 90
2, 51510, Note_on_c, 0, 62, 0
2, 51510, Note_on_c, 0, 62, 90
2, 51539, Note_on_c, 0, 62, 0
2, 51540, Note_on_c, 0, 60, 90
2, 51569, Note_on_c, 0, 60, 0
2, 51570, Note_on_c, 0, 62, 90
2, 51599, Note_on_c, 0, 62, 0
2, 51600, Note_on_c, 0, 59, 90
2, 51629, Note_on_c, 0, 59, 0
2, 51630, Note_on_c, 0, 62, 90
2, 51659, Note_on_c, 0, 62, 0
2, 51660, Note_on_c, 0, 57, 90
2, 51689, Note_on_c, 0, 57, 0
2, 51690, Note_on_c, 0, 62, 90
2, 51719, Note_on_c, 0, 62, 0
2, 51720, Note_on_c, 0, 56, 90
2, 51749, Note_on_c, 0, 56, 0
2, 51750, Note_on_c, 0, 62, 90
2, 51779, Note_on_c, 0, 62, 0
2, 51780, Note_on_c, 0, 59, 90
2, 51809, Note_on_c, 0, 59, 0
2, 51810, Note_on_c, 0, 62, 90
2, 51839, Note_on_c, 0, 62, 0
2, 51840, Note_on_c, 0, 60, 90
2, 52230, Note_on_c, 0, 60, 0
2, 52230, Note_on_c, 0, 60, 90
2, 52259, Note_on_c, 0, 60, 0
2, 52260, Note_on_c, 0, 59, 90
2, 52289, Note_on_c, 0, 59, 0
2, 52290, Note_on_c, 0, 60, 90
2, 52319, Note_on_c, 0, 60, 0
2, 52320, Note_on_c, 0, 57, 90
2, 52349, Note_on_c, 0, 57, 0
2, 52350, Note_on_c, 0, 60, 90
2, 52379, Note_on_c, 0, 60, 0
2, 52380, Note_on_c, 0, 55, 90
2, 52409, Note_on_c, 0, 55, 0
2, 52410, Note_on_c, 0, 60, 90
2, 52439, Note_on_c, 0, 60, 0
2, 52440, Note_on_c, 0, 54, 90
2, 52469, Note_on_c, 0, 54, 0
2, 52470, Note_on_c, 0, 60, 90
2, 52499, Note_on_c, 0, 60, 0
2, 52500, Note_on_c, 0, 57, 90
2, 52529, Note_on_c, 0, 57, 0
2, 52530, Note_on_c, 0, 60, 90
2, 52559, Note_on_c, 0, 60, 0
2, 52560, Note_on_c, 0, 59, 90
2, 53070, Note_on_c, 0, 59, 0
2, 53100, Note_on_c, 0, 59, 90
2, 53129, Note_on_c, 0, 59, 0
2, 53130, Note_on_c, 0, 57, 90
2, 53159, Note_on_c, 0, 57, 0
2, 53160, Note_on_c, 0, 59, 90
2, 53189, Note_on_c, 0, 59, 0
2, 53220, Note_on_c, 0, 59, 90
2, 53249, Note_on_c, 0, 59, 0
2, 53280, Note_on_c, 0, 57, 90
2, 53459, Note_on_c, 0, 57, 0
2, 53460, Note_on_c, 0, 57, 90
2, 53489, Note_on_c, 0, 57, 0
2, 53490, Note_on_c, 0, 55, 90
2, 53519, Note_on_c, 0, 55, 0
2, 53520, Note_on_c, 0, 57, 90
2, 53549, Note_on_c, 0, 57, 0
2, 53580, Note_on_c, 0, 57, 90
2, 53609, Note_on_c, 0, 57, 0
2, 53640, Note_on_c, 0, 55, 90
2, 53819, Note_on_c, 0, 55, 0
2, 53820, Note_on_c, 0, 60, 90
2, 53849, Note_on_c, 0, 60, 0
2, 53850, Note_on_c, 0, 59, 90
2, 53879, Note_on_c, 0, 59, 0
2, 53880, Note_on_c, 0, 57, 90
2, 53909, Note_on_c, 0, 57, 0
2, 53940, Note_on_c, 0, 55, 90
2, 53969, Note_on_c, 0, 55, 0
2, 54000, Note_on_c, 0, 54, 90
2, 54029, Note_on_c, 0, 54, 0
2, 54030, Note_on_c, 0, 62, 90
2, 54059, Note_on_c, 0, 62, 0
2, 54060, Note_on_c, 0, 60, 90
2, 54089, Note_on_c, 0, 60, 0
2, 54090, Note_on_c, 0, 59, 90
2, 54119, Note_on_c, 0, 59, 0
2, 54120, Note_on_c, 0, 57, 90
2, 54149, Note_on_c, 0, 57, 0
2, 54150, Note_on_c, 0, 55, 90
2, 54179, Note_on_c, 0, 55, 0
2, 54180, Note_on_c, 0, 54, 90
2, 54209, Note_on_c, 0, 54, 0
2, 54210, Note_on_c, 0, 52, 90
2, 54239, Note_on_c, 0, 52, 0
2, 54240, Note_on_c, 0, 50, 90
2, 54299, Note_on_c, 0, 50, 0
2, 55260, Note_on_c, 0, 50, 90
2, 55319, Note_on_c, 0, 50, 0
2, 55320, Note_on_c, 0, 55, 90
2, 55349, Note_on_c, 0, 55, 0
2, 55350, Note_on_c, 0, 57, 90
2, 55379, Note_on_c, 0, 57, 0
2, 55380, Note_on_c, 0, 59, 90
2, 55409, Note_on_c, 0, 59, 0
2, 55440, Note_on_c, 0, 59, 90
2, 55455, Note_on_c, 0, 59, 0
2, 55455, Note_on_c, 0, 60, 90
2, 55470, Note_on_c, 0, 60, 0
2, 55470, Note_on_c, 0, 59, 90
2, 55499, Note_on_c, 0, 59, 0
2, 55500, Note_on_c, 0, 57, 90
2, 55559, Note_on_c, 0, 57, 0
2, 55560, Note_on_c, 0, 57, 90
2, 55619, Note_on_c, 0, 57, 0
2, 55620, Note_on_c, 0, 54, 90
2, 55649, Note_on_c, 0, 54, 0
2, 55650, Note_on_c, 0, 55, 90
2, 55679, Note_on_c, 0, 55, 0
2, 55680, Note_on_c, 0, 57, 90
2, 55709, Note_on_c, 0, 57, 0
2, 55710, Note_on_c, 0, 59, 90
2, 55739, Note_on_c, 0, 59, 0
2, 55740, Note_on_c, 0, 60, 90
2, 55769, Note_on_c, 0, 60, 0
2, 55800, Note_on_c, 0, 60, 90
2, 55815, Note_on_c, 0, 60, 0
2, 55815, Note_on_c, 0, 62, 90
2, 55830, Note_on_c, 0, 62, 0
2, 55830, Note_on_c, 0, 60, 90
2, 55859, Note_on_c, 0, 60, 0
2, 55860, Note_on_c, 0, 59, 90
2, 55919, Note_on_c, 0, 59, 0
2, 55920, Note_on_c, 0, 59, 90
2, 55979, Note_on_c, 0, 59, 0
2, 55980, Note_on_c, 0, 62, 90
2, 56039, Note_on_c, 0, 62, 0
2, 56040, Note_on_c, 0, 60, 90
2, 56069, Note_on_c, 0, 60, 0
2, 56070, Note_on_c, 0, 59, 90
2, 56099, Note_on_c, 0, 59, 0
2, 56100, Note_on_c, 0, 57, 90
2, 56129, Note_on_c, 0, 57, 0
2, 56130, Note_on_c, 0, 55, 90
2, 56159, Note_on_c, 0, 55, 0
2, 56160, Note_on_c, 0, 64, 90
2, 56219, Note_on_c, 0, 64, 0
2, 56220, Note_on_c, 0, 67, 90
2, 56249, Note_on_c, 0, 67, 0
2, 56250, Note_on_c, 0, 66, 90
2, 56279, Note_on_c, 0, 66, 0
2, 56280, Note_on_c, 0, 64, 90
2, 56339, Note_on_c, 0, 64, 0
2, 56340, Note_on_c, 0, 62, 90
2, 56399, Note_on_c, 0, 62, 0
2, 56400, Note_on_c, 0, 60, 90
2, 56429, Note_on_c, 0, 60, 0
2, 56430, Note_on_c, 0, 59, 90
2, 56459, Note_on_c, 0, 59, 0
2, 56460, Note_on_c, 0, 57, 90
2, 56489, Note_on_c, 0, 57, 0
2, 56490, Note_on_c, 0, 55, 90
2, 56519, Note_on_c, 0, 55, 0
2, 56520, Note_on_c, 0, 57, 90
2, 56579, Note_on_c, 0, 57, 0
2, 56580, Note_on_c, 0, 62, 90
2, 56609, Note_on_c, 0, 62, 0
2, 56610, Note_on_c, 0, 60, 90
2, 56639, Note_on_c, 0, 60, 0
2, 56640, Note_on_c, 0, 62, 90
2, 56669, Note_on_c, 0, 62, 0
2, 56700, Note_on_c, 0, 62, 90
2, 56729, Note_on_c, 0, 62, 0
2, 56760, Note_on_c, 0, 62, 90
2, 56789, Note_on_c, 0, 62, 0
2, 56820, Note_on_c, 0, 62, 90
2, 56849, Note_on_c, 0, 62, 0
2, 56880, Note_on_c, 0, 62, 90
2, 56939, Note_on_c, 0, 62, 0
2, 56940, Note_on_c, 0, 60, 90
2, 56969, Note_on_c, 0, 60, 0
2, 56970, Note_on_c, 0, 59, 90
2, 56999, Note_on_c, 0, 59, 0
2, 57000, Note_on_c, 0, 60, 90
2, 57029, Note_on_c, 0, 60, 0
2, 57060, Note_on_c, 0, 60, 90
2, 57089, Note_on_c, 0, 60, 0
2, 57120, Note_on_c, 0, 60, 90
2, 57149, Note_on_c, 0, 60, 0
2, 57180, Note_on_c, 0, 60, 90
2, 57209, Note_on_c, 0, 60, 0
2, 57240, Note_on_c, 0, 60, 90
2, 57299, Note_on_c, 0, 60, 0
2, 57300, Note_on_c, 0, 59, 90
2, 57329, Note_on_c, 0, 59, 0
2, 57330, Note_on_c, 0, 57, 90
2, 57359, Note_on_c, 0, 57, 0
2, 57360, Note_on_c, 0, 59, 90
2, 57479, Note_on_c, 0, 59, 0
2, 57840, Note_on_c, 0, 64, 90
2, 57990, Note_on_c, 0, 64, 0
2, 57990, Note_on_c, 0, 64, 90
2, 58019, Note_on_c, 0, 64, 0
2, 58020, Note_on_c, 0, 62, 90
2, 58049, Note_on_c, 0, 62, 0
2, 58050, Note_on_c, 0, 60, 90
2, 58079, Note_on_c, 0, 60, 0
2, 58080, Note_on_c, 0, 62, 90
2, 58109, Note_on_c, 0, 62, 0
2, 58110, Note_on_c, 0, 64, 90
2, 58139, Note_on_c, 0, 64, 0
2, 58140, Note_on_c, 0, 66, 90
2, 58169, Note_on_c, 0, 66, 0
2, 58170, Note_on_c, 0, 62, 90
2, 58199, Note_on_c, 0, 62, 0
2, 58200, Note_on_c, 0, 55, 90
2, 58229, Note_on_c, 0, 55, 0
2, 58230, Note_on_c, 0, 60, 90
2, 58259, Note_on_c, 0, 60, 0
2, 58260, Note_on_c, 0, 59, 90
2, 58289, Note_on_c, 0, 59, 0
2, 58290, Note_on_c, 0, 57, 90
2, 58319, Note_on_c, 0, 57, 0
2, 58320, Note_on_c, 0, 59, 90
2, 58349, Note_on_c, 0, 59, 0
2, 58350, Note_on_c, 0, 60, 90
2, 58379, Note_on_c, 0, 60, 0
2, 58380, Note_on_c, 0, 62, 90
2, 58409, Note_on_c, 0, 62, 0
2, 58410, Note_on_c, 0, 59, 90
2, 58439, Note_on_c, 0, 59, 0
2, 58440, Note_on_c, 0, 52, 90
2, 58469, Note_on_c, 0, 52, 0
2, 58470, Note_on_c, 0, 57, 90
2, 58499, Note_on_c, 0, 57, 0
2, 58500, Note_on_c, 0, 55, 90
2, 58529, Note_on_c, 0, 55, 0
2, 58530, Note_on_c, 0, 54, 90
2, 58559, Note_on_c, 0, 54, 0
2, 58560, Note_on_c, 0, 55, 90
2, 58589, Note_on_c, 0, 55, 0
2, 58590, Note_on_c, 0, 57, 90
2, 58619, Note_on_c, 0, 57, 0
2, 58620, Note_on_c, 0, 59, 90
2, 58649, Note_on_c, 0, 59, 0
2, 58650, Note_on_c, 0, 55, 90
2, 58679, Note_on_c, 0, 55, 0
2, 58680, Note_on_c, 0, 48, 90
2, 58739, Note_on_c, 0, 48, 0
2, 58740, Note_on_c, 0, 60, 90
2, 58799, Note_on_c, 0, 60, 0
2, 58860, Note_on_c, 0, 50, 90
2, 58919, Note_on_c, 0, 50, 0
2, 58920, Note_on_c, 0, 55, 90
2, 58949, Note_on_c, 0, 55, 0
2, 58950, Note_on_c, 0, 57, 90
2, 58979, Note_on_c, 0, 57, 0
2, 58980, Note_on_c, 0, 59, 90
2, 59009, Note_on_c, 0, 59, 0
2, 59040, Note_on_c, 0, 59, 90
2, 59055, Note_on_c, 0, 59, 0
2, 59055, Note_on_c, 0, 60, 90
2, 59070, Note_on_c, 0, 60, 0
2, 59070, Note_on_c, 0, 59, 90
2, 59099, Note_on_c, 0, 59, 0
2, 59100, Note_on_c, 0, 57, 90
2, 59159, Note_on_c, 0, 57, 0
2, 59160, Note_on_c, 0, 57, 90
2, 59219, Note_on_c, 0, 57, 0
2, 59220, Note_on_c, 0, 54, 90
2, 59249, Note_on_c, 0, 54, 0
2, 59250, Note_on_c, 0, 55, 90
2, 59279, Note_on_c, 0, 55, 0
2, 59280, Note_on_c, 0, 57, 90
2, 59309, Note_on_c, 0, 57, 0
2, 59310, Note_on_c, 0, 59, 90
2, 59339, Note_on_c, 0, 59, 0
2, 59340, Note_on_c, 0, 60, 90
2, 59369, Note_on_c, 0, 60, 0
2, 59400, Note_on_c, 0, 60, 90
2, 59415, Note_on_c, 0, 60, 0
2, 59415, Note_on_c, 0, 62, 90
2, 59430, Note_on_c, 0, 62, 0
2, 59430, Note_on_c, 0, 60, 90
2, 59459, Note_on_c, 0, 60, 0
2, 59460, Note_on_c, 0, 59, 90
2, 59519, Note_on_c, 0, 59, 0
2, 59520, Note_on_c, 0, 59, 90
2, 59579, Note_on_c, 0, 59, 0
2, 59580, Note_on_c, 0, 62, 90
2, 59639, Note_on_c, 0, 62, 0
2, 59640, Note_on_c, 0, 60, 90
2, 59669, Note_on_c, 0, 60, 0
2, 59670, Note_on_c, 0, 59, 90
2, 59699, Note_on_c, 0, 59, 0
2, 59700, Note_on_c, 0, 57, 90
2, 59729, Note_on_c, 0, 57, 0
2, 59730, Note_on_c, 0, 55, 90
2, 59759, Note_on_c, 0, 55, 0
2, 59760, Note_on_c, 0, 64, 90
2, 59819, Note_on_c, 0, 64, 0
2, 59820, Note_on_c, 0, 67, 90
2, 59849, Note_on_c, 0, 67, 0
2, 59850, Note_on_c, 0, 66, 90
2, 59879, Note_on_c, 0, 66, 0
2, 59880, Note_on_c, 0, 64, 90
2, 59909, Note_on_c, 0, 64, 0
2, 59940, Note_on_c, 0, 62, 90
2, 59969, Note_on_c, 0, 62, 0
2, 60000, Note_on_c, 0, 60, 90
2, 60029, Note_on_c, 0, 60, 0
2, 60030, Note_on_c, 0, 59, 90
2, 60059, Note_on_c, 0, 59, 0
2, 60060, Note_on_c, 0, 57, 90
2, 60089, Note_on_c, 0, 57, 0
2, 60090, Note_on_c, 0, 55, 90
2, 60119, Note_on_c, 0, 55, 0
2, 60120, Note_on_c, 0, 54, 90
2, 60149, Note_on_c, 0, 54, 0
2, 60150, Note_on_c, 0, 50, 90
2, 60179, Note_on_c, 0, 50, 0
2, 60180, Note_on_c, 0, 52, 90
2, 60209, Note_on_c, 0, 52, 0
2, 60210, Note_on_c, 0, 54, 90
2, 60239, Note_on_c, 0, 54, 0
2, 60240, Note_on_c, 0, 55, 90
2, 60269, Note_on_c, 0, 55, 0
2, 60270, Note_on_c, 0, 57, 90
2, 60299, Note_on_c, 0, 57, 0
2, 60300, Note_on_c, 0, 59, 90
2, 60329, Note_on_c, 0, 59, 0
2, 60330, Note_on_c, 0, 60, 90
2, 60359, Note_on_c, 0, 60, 0
2, 60360, Note_on_c, 0, 62, 90
2, 60389, Note_on_c, 0, 62, 0
2, 60420, Note_on_c, 0, 59, 90
2, 60449, Note_on_c, 0, 59, 0
2, 60480, Note_on_c, 0, 55, 90
2, 60539, Note_on_c, 0, 55, 0
2, 60540, Note_on_c, 0, 52, 90
2, 60599, Note_on_c, 0, 52, 0
2, 60600, Note_on_c, 0, 57, 90
2, 60629, Note_on_c, 0, 57, 0
2, 60630, Note_on_c, 0, 59, 90
2, 60659, Note_on_c, 0, 59, 0
2, 60660, Note_on_c, 0, 60, 90
2, 60689, Note_on_c, 0, 60, 0
2, 60690, Note_on_c, 0, 62, 90
2, 60719, Note_on_c, 0, 62, 0
2, 60720, Note_on_c, 0, 64, 90
2, 60749, Note_on_c, 0, 64, 0
2, 60750, Note_on_c, 0, 62, 90
2, 60779, Note_on_c, 0, 62, 0
2, 60780, Note_on_c, 0, 60, 90
2, 60809, Note_on_c, 0, 60, 0
2, 60810, Note_on_c, 0, 59, 90
2, 60839, Note_on_c, 0, 59, 0
2, 60840, Note_on_c, 0, 57, 90
2, 60869, Note_on_c, 0, 57, 0
2, 60870, Note_on_c, 0, 60, 90
2, 60899, Note_on_c, 0, 60, 0
2, 60900, Note_on_c, 0, 59, 90
2, 60929, Note_on_c, 0, 59, 0
2, 60930, Note_on_c, 0, 57, 90
2, 60959, Note_on_c, 0, 57, 0
2, 60960, Note_on_c, 0, 55, 90
2, 60989, Note_on_c, 0, 55, 0
2, 60990, Note_on_c, 0, 54, 90
2, 61019, Note_on_c, 0, 54, 0
2, 61020, Note_on_c, 0, 55, 90
2, 61049, Note_on_c, 0, 55, 0
2, 61050, Note_on_c, 0, 57, 90
2, 61079, Note_on_c, 0, 57, 0
2, 61080, Note_on_c, 0, 57, 90
2, 61095, Note_on_c, 0, 57, 0
2, 61095, Note_on_c, 0, 55, 90
2, 61110, Note_on_c, 0, 55, 0
2, 61110, Note_on_c, 0, 57, 90
2, 61125, Note_on_c, 0, 57, 0
2, 61125, Note_on_c, 0, 55, 90
2, 61140, Note_on_c, 0, 55, 0
2, 61140, Note_on_c, 0, 57, 90
2, 61169, Note_on_c, 0, 57, 0
2, 61170, Note_on_c, 0, 55, 90
2, 61199, Note_on_c, 0, 55, 0
2, 61200, Note_on_c, 0, 55, 90
2, 61559, Note_on_c, 0, 55, 0
2, 62160, Note_on_c, 0, 64, 100
2, 62190, Note_on_c, 0, 64, 0
2, 62190, Note_on_c, 0, 68, 100
2, 62220, Note_on_c, 0, 68, 0
2, 62220, Note_on_c, 0, 69, 100
2, 62250, Note_on_c, 0, 69, 0
2, 62250, Note_on_c, 0, 72, 100
2, 62280, Note_on_c, 0, 72, 0
2, 62280, Note_on_c, 0, 64, 100
2, 62310, Note_on_c, 0, 64, 0
2, 62310, Note_on_c, 0, 68, 100
2, 62340, Note_on_c, 0, 68, 0
2, 62340, Note_on_c, 0, 69, 100
2, 62370, Note_on_c, 0, 69, 0
2, 62370, Note_on_c, 0, 72, 100
2, 62400, Note_on_c, 0, 72, 0
2, 62400, Note_on_c, 0, 66, 100
2, 62430, Note_on_c, 0, 66, 0
2, 62430, Note_on_c, 0, 64, 100
2, 62460, Note_on_c, 0, 64, 0
2, 62460, Note_on_c, 0, 66, 100
2, 62490, Note_on_c, 0, 66, 0
2, 62490, Note_on_c, 0, 69, 100
2, 62520, Note_on_c, 0, 69, 0
2, 62520, Note_on_c, 0, 66, 100
2, 62550, Note_on_c, 0, 66, 0
2, 62550, Note_on_c, 0, 64, 100
2, 62580, Note_on_c, 0, 64, 0
2, 62580, Note_on_c, 0, 66, 100
2, 62610, Note_on_c, 0, 66, 0
2, 62610, Note_on_c, 0, 69, 100
2, 62640, Note_on_c, 0, 69, 0
2, 62640, Note_on_c, 0, 59, 100
2, 62670, Note_on_c, 0, 59, 0
2, 62670, Note_on_c, 0, 63, 100
2, 62700, Note_on_c, 0, 63, 0
2, 62700, Note_on_c, 0, 64, 100
2, 62730, Note_on_c, 0, 64, 0
2, 62730, Note_on_c, 0, 67, 100
2, 62760, Note_on_c, 0, 67, 0
2, 62760, Note_on_c, 0, 59, 100
2, 62790, Note_on_c, 0, 59, 0
2, 62790, Note_on_c, 0, 63, 100
2, 62820, Note_on_c, 0, 63, 0
2, 62820, Note_on_c, 0, 64, 100
2, 62850, Note_on_c, 0, 64, 0
2, 62850, Note_on_c, 0, 67, 100
2, 62880, Note_on_c, 0, 67, 0
2, 62880, Note_on_c, 0, 56, 100
2, 62940, Note_on_c, 0, 56, 0
2, 62940, Note_on_c, 0, 59, 100
2, 63000, Note_on_c, 0, 59, 0
2, 63000, Note_on_c, 0, 56, 100
2, 63060, Note_on_c, 0, 56, 0
2, 63060, Note_on_c, 0, 52, 100
2, 63120, Note_on_c, 0, 52, 0
2, 63120, Note_on_c, 0, 56, 100
2, 63150, Note_on_c, 0, 56, 0
2, 63150, Note_on_c, 0, 57, 100
2, 63180, Note_on_c, 0, 57, 0
2, 63180, Note_on_c, 0, 59, 100
2, 63210, Note_on_c, 0, 59, 0
2, 63210, Note_on_c, 0, 65, 100
2, 63240, Note_on_c, 0, 65, 0
2, 63240, Note_on_c, 0, 68, 100
2, 63270, Note_on_c, 0, 68, 0
2, 63270, Note_on_c, 0, 69, 100
2, 63300, Note_on_c, 0, 69, 0
2, 63300, Note_on_c, 0, 71, 100
2, 63330, Note_on_c, 0, 71, 0
2, 63330, Note_on_c, 0, 68, 100
2, 63360, Note_on_c, 0, 68, 0
2, 63360, Note_on_c, 0, 69, 100
2, 63420, Note_on_c, 0, 69, 0
2, 63420, Note_on_c, 0, 73, 100
2, 63480, Note_on_c, 0, 73, 0
2, 63480, Note_on_c, 0, 69, 100
2, 63540, Note_on_c, 0, 69, 0
2, 63540, Note_on_c, 0, 66, 100
2, 63600, Note_on_c, 0, 66, 0
2, 63600, Note_on_c, 0, 51, 100
2, 63630, Note_on_c, 0, 51, 0
2, 63630, Note_on_c, 0, 52, 100
2, 63660, Note_on_c, 0, 52, 0
2, 63660, Note_on_c, 0, 54, 100
2, 63690, Note_on_c, 0, 54, 0
2, 63690, Note_on_c, 0, 60, 100
2, 63720, Note_on_c, 0, 60, 0
2, 63720, Note_on_c, 0, 63, 100
2, 63750, Note_on_c, 0, 63, 0
2, 63750, Note_on_c, 0, 64, 100
2, 63780, Note_on_c, 0, 64, 0
2, 63780, Note_on_c, 0, 66, 100
2, 63810, Note_on_c, 0, 66, 0
2, 63810, Note_on_c, 0, 68, 100
2, 63840, Note_on_c, 0, 68, 0
2, 63840, Note_on_c, 0, 65, 100
2, 63900, Note_on_c, 0, 65, 0
2, 63900, Note_on_c, 0, 68, 100
2, 63960, Note_on_c, 0, 68, 0
2, 63960, Note_on_c, 0, 66, 100
2, 64020, Note_on_c, 0, 66, 0
2, 64020, Note_on_c, 0, 69, 100
2, 64080, Note_on_c, 0, 69, 0
2, 64080, Note_on_c, 0, 66, 100
2, 64140, Note_on_c, 0, 66, 0
2, 64140, Note_on_c, 0, 69, 100
2, 64200, Note_on_c, 0, 69, 0
2, 64200, Note_on_c, 0, 66, 100
2, 64260, Note_on_c, 0, 66, 0
2, 64260, Note_on_c, 0, 69, 100
2, 64320, Note_on_c, 0, 69, 0
2, 64320, Note_on_c, 0, 57, 100
2, 64350, Note_on_c, 0, 57, 0
2, 64350, Note_on_c, 0, 60, 100
2, 64380, Note_on_c, 0, 60, 0
2, 64380, Note_on_c, 0, 59, 100
2, 64410, Note_on_c, 0, 59, 0
2, 64410, Note_on_c, 0, 54, 100
2, 64440, Note_on_c, 0, 54, 0
2, 64440, Note_on_c, 0, 55, 100
2, 64470, Note_on_c, 0, 55, 0
2, 64470, Note_on_c, 0, 51, 100
2, 64500, Note_on_c, 0, 51, 0
2, 64500, Note_on_c, 0, 52, 100
2, 64530, Note_on_c, 0, 52, 0
2, 64530, Note_on_c, 0, 55, 100
2, 64560, Note_on_c, 0, 55, 0
2, 64560, Note_on_c, 0, 60, 100
2, 64590, Note_on_c, 0, 60, 0
2, 64590, Note_on_c, 0, 62, 100
2, 64620, Note_on_c, 0, 62, 0
2, 64620, Note_on_c, 0, 64, 100
2, 64650, Note_on_c, 0, 64, 0
2, 64650, Note_on_c, 0, 67, 100
2, 64680, Note_on_c, 0, 67, 0
2, 64680, Note_on_c, 0, 60, 100
2, 64710, Note_on_c, 0, 60, 0
2, 64710, Note_on_c, 0, 62, 100
2, 64740, Note_on_c, 0, 62, 0
2, 64740, Note_on_c, 0, 64, 100
2, 64770, Note_on_c, 0, 64, 0
2, 64770, Note_on_c, 0, 67, 100
2, 64800, Note_on_c, 0, 67, 0
2, 64800, Note_on_c, 0, 61, 90
2, 64859, Note_on_c, 0, 61, 0
2, 64860, Note_on_c, 0, 64, 90
2, 64919, Note_on_c, 0, 64, 0
2, 64920, Note_on_c, 0, 62, 90
2, 64979, Note_on_c, 0, 62, 0
2, 64980, Note_on_c, 0, 65, 90
2, 65069, Note_on_c, 0, 65, 0
2, 65070, Note_on_c, 0, 64, 90
2, 65099, Note_on_c, 0, 64, 0
2, 65100, Note_on_c, 0, 65, 90
2, 65129, Note_on_c, 0, 65, 0
2, 65130, Note_on_c, 0, 62, 90
2, 65159, Note_on_c, 0, 62, 0
2, 65160, Note_on_c, 0, 64, 100
2, 65170, Note_on_c, 0, 64, 0
2, 65170, Note_on_c, 0, 62, 100
2, 65180, Note_on_c, 0, 62, 0
2, 65180, Note_on_c, 0, 64, 100
2, 65190, Note_on_c, 0, 64, 0
2, 65190, Note_on_c, 0, 62, 100
2, 65197, Note_on_c, 0, 64, 100
2, 65198, Note_on_c, 0, 62, 0
2, 65205, Note_on_c, 0, 64, 0
2, 65205, Note_on_c, 0, 62, 100
2, 65212, Note_on_c, 0, 64, 100
2, 65213, Note_on_c, 0, 62, 0
2, 65220, Note_on_c, 0, 64, 0
2, 65220, Note_on_c, 0, 62, 100
2, 65227, Note_on_c, 0, 64, 100
2, 65228, Note_on_c, 0, 62, 0
2, 65250, Note_on_c, 0, 64, 0
2, 65250, Note_on_c, 0, 62, 90
2, 65279, Note_on_c, 0, 62, 0
2, 65280, Note_on_c, 0, 57, 90
2, 65309, Note_on_c, 0, 57, 0
2, 65310, Note_on_c, 0, 61, 90
2, 65339, Note_on_c, 0, 61, 0
2, 65340, Note_on_c, 0, 62, 90
2, 65369, Note_on_c, 0, 62, 0
2, 65370, Note_on_c, 0, 66, 90
2, 65399, Note_on_c, 0, 66, 0
2, 65400, Note_on_c, 0, 57, 90
2, 65429, Note_on_c, 0, 57, 0
2, 65430, Note_on_c, 0, 61, 90
2, 65459, Note_on_c, 0, 61, 0
2, 65460, Note_on_c, 0, 62, 90
2, 65489, Note_on_c, 0, 62, 0
2, 65490, Note_on_c, 0, 66, 90
2, 65519, Note_on_c, 0, 66, 0
2, 65520, Note_on_c, 0, 59, 90
2, 65549, Note_on_c, 0, 59, 0
2, 65550, Note_on_c, 0, 57, 90
2, 65579, Note_on_c, 0, 57, 0
2, 65580, Note_on_c, 0, 59, 90
2, 65609, Note_on_c, 0, 59, 0
2, 65610, Note_on_c, 0, 62, 90
2, 65639, Note_on_c, 0, 62, 0
2, 65640, Note_on_c, 0, 59, 90
2, 65669, Note_on_c, 0, 59, 0
2, 65670, Note_on_c, 0, 57, 90
2, 65699, Note_on_c, 0, 57, 0
2, 65700, Note_on_c, 0, 59, 90
2, 65729, Note_on_c, 0, 59, 0
2, 65730, Note_on_c, 0, 62, 90
2, 65759, Note_on_c, 0, 62, 0
2, 65760, Note_on_c, 0, 55, 90
2, 65789, Note_on_c, 0, 55, 0
2, 65790, Note_on_c, 0, 59, 90
2, 65819, Note_on_c, 0, 59, 0
2, 65820, Note_on_c, 0, 61, 90
2, 65849, Note_on_c, 0, 61, 0
2, 65850, Note_on_c, 0, 64, 90
2, 65879, Note_on_c, 0, 64, 0
2, 65880, Note_on_c, 0, 55, 90
2, 65909, Note_on_c, 0, 55, 0
2, 65910, Note_on_c, 0, 59, 90
2, 65939, Note_on_c, 0, 59, 0
2, 65940, Note_on_c, 0, 61, 90
2, 65969, Note_on_c, 0, 61, 0
2, 65970, Note_on_c, 0, 64, 90
2, 65999, Note_on_c, 0, 64, 0
2, 66000, Note_on_c, 0, 54, 90
2, 66029, Note_on_c, 0, 54, 0
2, 66030, Note_on_c, 0, 52, 90
2, 66059, Note_on_c, 0, 52, 0
2, 66060, Note_on_c, 0, 54, 90
2, 66089, Note_on_c, 0, 54, 0
2, 66090, Note_on_c, 0, 57, 90
2, 66119, Note_on_c, 0, 57, 0
2, 66120, Note_on_c, 0, 54, 90
2, 66149, Note_on_c, 0, 54, 0
2, 66150, Note_on_c, 0, 52, 90
2, 66179, Note_on_c, 0, 52, 0
2, 66180, Note_on_c, 0, 54, 90
2, 66209, Note_on_c, 0, 54, 0
2, 66210, Note_on_c, 0, 57, 90
2, 66239, Note_on_c, 0, 57, 0
2, 66240, Note_on_c, 0, 50, 90
2, 66269, Note_on_c, 0, 50, 0
2, 66270, Note_on_c, 0, 52, 90
2, 66299, Note_on_c, 0, 52, 0
2, 66300, Note_on_c, 0, 54, 90
2, 66329, Note_on_c, 0, 54, 0
2, 66330, Note_on_c, 0, 57, 90
2, 66359, Note_on_c, 0, 57, 0
2, 66360, Note_on_c, 0, 62, 90
2, 66389, Note_on_c, 0, 62, 0
2, 66390, Note_on_c, 0, 64, 90
2, 66419, Note_on_c, 0, 64, 0
2, 66420, Note_on_c, 0, 66, 90
2, 66449, Note_on_c, 0, 66, 0
2, 66450, Note_on_c, 0, 69, 90
2, 66479, Note_on_c, 0, 69, 0
2, 66480, Note_on_c, 0, 63, 90
2, 66539, Note_on_c, 0, 63, 0
2, 66540, Note_on_c, 0, 66, 90
2, 66599, Note_on_c, 0, 66, 0
2, 66600, Note_on_c, 0, 63, 90
2, 66659, Note_on_c, 0, 63, 0
2, 66660, Note_on_c, 0, 59, 90
2, 66719, Note_on_c, 0, 59, 0
2, 66720, Note_on_c, 0, 52, 90
2, 66749, Note_on_c, 0, 52, 0
2, 66750, Note_on_c, 0, 54, 90
2, 66779, Note_on_c, 0, 54, 0
2, 66780, Note_on_c, 0, 55, 90
2, 66809, Note_on_c, 0, 55, 0
2, 66810, Note_on_c, 0, 59, 90
2, 66839, Note_on_c, 0, 59, 0
2, 66840, Note_on_c, 0, 64, 90
2, 66869, Note_on_c, 0, 64, 0
2, 66870, Note_on_c, 0, 66, 90
2, 66899, Note_on_c, 0, 66, 0
2, 66900, Note_on_c, 0, 67, 90
2, 66929, Note_on_c, 0, 67, 0
2, 66930, Note_on_c, 0, 64, 90
2, 66959, Note_on_c, 0, 64, 0
2, 66960, Note_on_c, 0, 58, 90
2, 67019, Note_on_c, 0, 58, 0
2, 67020, Note_on_c, 0, 61, 90
2, 67079, Note_on_c, 0, 61, 0
2, 67080, Note_on_c, 0, 58, 90
2, 67139, Note_on_c, 0, 58, 0
2, 67140, Note_on_c, 0, 54, 90
2, 67199, Note_on_c, 0, 54, 0
2, 67200, Note_on_c, 0, 57, 90
2, 67229, Note_on_c, 0, 57, 0
2, 67230, Note_on_c, 0, 60, 90
2, 67259, Note_on_c, 0, 60, 0
2, 67260, Note_on_c, 0, 59, 90
2, 67289, Note_on_c, 0, 59, 0
2, 67290, Note_on_c, 0, 54, 90
2, 67319, Note_on_c, 0, 54, 0
2, 67320, Note_on_c, 0, 55, 90
2, 67349, Note_on_c, 0, 55, 0
2, 67350, Note_on_c, 0, 51, 90
2, 67379, Note_on_c, 0, 51, 0
2, 67380, Note_on_c, 0, 52, 90
2, 67409, Note_on_c, 0, 52, 0
2, 67410, Note_on_c, 0, 55, 90
2, 67439, Note_on_c, 0, 55, 0
2, 67440, Note_on_c, 0, 59, 100
2, 67455, Note_on_c, 0, 59, 0
2, 67455, Note_on_c, 0, 58, 100
2, 67462, Note_on_c, 0, 59, 100
2, 67463, Note_on_c, 0, 58, 0
2, 67470, Note_on_c, 0, 59, 0
2, 67470, Note_on_c, 0, 58, 100
2, 67477, Note_on_c, 0, 59, 100
2, 67478, Note_on_c, 0, 58, 0
2, 67485, Note_on_c, 0, 59, 0
2, 67485, Note_on_c, 0, 58, 100
2, 67492, Note_on_c, 0, 59, 100
2, 67493, Note_on_c, 0, 58, 0
2, 67500, Note_on_c, 0, 59, 0
2, 67500, Note_on_c, 0, 58, 100
2, 67507, Note_on_c, 0, 59, 100
2, 67508, Note_on_c, 0, 58, 0
2, 67515, Note_on_c, 0, 59, 0
2, 67515, Note_on_c, 0, 58, 100
2, 67523, Note_on_c, 0, 58, 0
2, 67530, Note_on_c, 0, 59, 100
2, 67560, Note_on_c, 0, 59, 0
2, 67560, Note_on_c, 0, 54, 100
2, 67650, Note_on_c, 0, 54, 0
2, 67650, Note_on_c, 0, 52, 100
2, 67680, Note_on_c, 0, 52, 0
2, 67680, Note_on_c, 0, 52, 100
2, 69660, Note_on_c, 0, 52, 0
2, 69660, Note_on_c, 0, 67, 100
2, 69720, Note_on_c, 0, 67, 0
2, 69720, Note_on_c, 0, 66, 100
2, 69750, Note_on_c, 0, 66, 0
2, 69750, Note_on_c, 0, 64, 100
2, 69780, Note_on_c, 0, 64, 0
2, 69780, Note_on_c, 0, 63, 100
2, 69810, Note_on_c, 0, 63, 0
2, 69810, Note_on_c, 0, 61, 100
2, 69840, Note_on_c, 0, 61, 0
2, 69840, Note_on_c, 0, 59, 100
2, 69870, Note_on_c, 0, 59, 0
2, 69870, Note_on_c, 0, 58, 100
2, 69945, Note_on_c, 0, 58, 0
2, 69945, Note_on_c, 0, 59, 100
2, 69952, Note_on_c, 0, 58, 100
2, 69953, Note_on_c, 0, 59, 0
2, 69960, Note_on_c, 0, 58, 0
2, 69960, Note_on_c, 0, 56, 100
2, 69967, Note_on_c, 0, 58, 100
2, 69968, Note_on_c, 0, 56, 0
2, 69975, Note_on_c, 0, 58, 0
2, 69975, Note_on_c, 0, 59, 100
2, 69985, Note_on_c, 0, 59, 0
2, 69985, Note_on_c, 0, 58, 100
2, 69995, Note_on_c, 0, 58, 0
2, 69995, Note_on_c, 0, 59, 100
2, 70005, Note_on_c, 0, 59, 0
2, 70005, Note_on_c, 0, 58, 100
2, 70012, Note_on_c, 0, 59, 100
2, 70013, Note_on_c, 0, 58, 0
2, 70020, Note_on_c, 0, 59, 0
2, 70020, Note_on_c, 0, 58, 100
2, 70027, Note_on_c, 0, 59, 100
2, 70028, Note_on_c, 0, 58, 0
2, 70035, Note_on_c, 0, 59, 0
2, 70035, Note_on_c, 0, 58, 100
2, 70042, Note_on_c, 0, 59, 100
2, 70043, Note_on_c, 0, 58, 0
2, 70050, Note_on_c, 0, 59, 0
2, 70050, Note_on_c, 0, 56, 100
2, 70065, Note_on_c, 0, 56, 0
2, 70065, Note_on_c, 0, 58, 100
2, 70080, Note_on_c, 0, 58, 0
2, 70080, Note_on_c, 0, 59, 100
2, 70560, Note_on_c, 0, 59, 0
2, 75240, Note_on_c, 0, 57, 90
2, 75299, Note_on_c, 0, 57, 0
2, 75300, Note_on_c, 0, 55, 90
2, 75359, Note_on_c, 0, 55, 0
2, 75360, Note_on_c, 0, 54, 90
2, 75479, Note_on_c, 0, 54, 0
2, 75480, Note_on_c, 0, 50, 90
2, 75599, Note_on_c, 0, 50, 0
2, 75600, Note_on_c, 0, 62, 90
2, 75719, Note_on_c, 0, 62, 0
2, 75720, Note_on_c, 0, 57, 90
2, 75839, Note_on_c, 0, 57, 0
2, 75840, Note_on_c, 0, 54, 90
2, 75870, Note_on_c, 0, 54, 0
2, 75870, Note_on_c, 0, 55, 90
2, 75900, Note_on_c, 0, 55, 0
2, 75900, Note_on_c, 0, 54, 90
2, 75959, Note_on_c, 0, 54, 0
2, 75960, Note_on_c, 0, 52, 90
2, 76019, Note_on_c, 0, 52, 0
2, 76020, Note_on_c, 0, 50, 90
2, 76079, Note_on_c, 0, 50, 0
2, 76080, Note_on_c, 0, 57, 90
2, 76199, Note_on_c, 0, 57, 0
2, 76200, Note_on_c, 0, 57, 90
2, 76319, Note_on_c, 0, 57, 0
2, 76320, Note_on_c, 0, 57, 90
2, 76439, Note_on_c, 0, 57, 0
2, 76440, Note_on_c, 0, 55, 90
2, 76499, Note_on_c, 0, 55, 0
2, 76500, Note_on_c, 0, 54, 90
2, 76559, Note_on_c, 0, 54, 0
2, 76560, Note_on_c, 0, 55, 90
2, 76619, Note_on_c, 0, 55, 0
2, 76620, Note_on_c, 0, 57, 90
2, 76679, Note_on_c, 0, 57, 0
2, 76680, Note_on_c, 0, 59, 90
2, 76799, Note_on_c, 0, 59, 0
2, 76800, Note_on_c, 0, 59, 90
2, 76919, Note_on_c, 0, 59, 0
2, 76920, Note_on_c, 0, 52, 90
2, 77039, Note_on_c, 0, 52, 0
2, 77040, Note_on_c, 0, 52, 90
2, 77159, Note_on_c, 0, 52, 0
2, 77160, Note_on_c, 0, 55, 90
2, 77399, Note_on_c, 0, 55, 0
2, 77400, Note_on_c, 0, 54, 90
2, 77459, Note_on_c, 0, 54, 0
2, 77460, Note_on_c, 0, 52, 90
2, 77519, Note_on_c, 0, 52, 0
2, 77520, Note_on_c, 0, 54, 90
2, 77579, Note_on_c, 0, 54, 0
2, 77580, Note_on_c, 0, 55, 90
2, 77639, Note_on_c, 0, 55, 0
2, 77640, Note_on_c, 0, 57, 90
2, 77759, Note_on_c, 0, 57, 0
2, 77760, Note_on_c, 0, 57, 90
2, 77879, Note_on_c, 0, 57, 0
2, 77880, Note_on_c, 0, 50, 90
2, 77999, Note_on_c, 0, 50, 0
2, 78000, Note_on_c, 0, 50, 90
2, 78119, Note_on_c, 0, 50, 0
2, 78120, Note_on_c, 0, 62, 90
2, 78359, Note_on_c, 0, 62, 0
2, 78360, Note_on_c, 0, 60, 90
2, 78599, Note_on_c, 0, 60, 0
2, 78600, Note_on_c, 0, 59, 90
2, 78839, Note_on_c, 0, 59, 0
2, 78840, Note_on_c, 0, 57, 90
2, 78899, Note_on_c, 0, 57, 0
2, 78900, Note_on_c, 0, 55, 90
2, 78959, Note_on_c, 0, 55, 0
2, 78960, Note_on_c, 0, 54, 90
2, 79019, Note_on_c, 0, 54, 0
2, 79020, Note_on_c, 0, 50, 90
2, 79079, Note_on_c, 0, 50, 0
2, 79080, Note_on_c, 0, 52, 90
2, 79139, Note_on_c, 0, 52, 0
2, 79140, Note_on_c, 0, 54, 90
2, 79199, Note_on_c, 0, 54, 0
2, 79200, Note_on_c, 0, 55, 90
2, 79259, Note_on_c, 0, 55, 0
2, 79260, Note_on_c, 0, 50, 90
2, 79319, Note_on_c, 0, 50, 0
2, 79320, Note_on_c, 0, 52, 90
2, 79379, Note_on_c, 0, 52, 0
2, 79380, Note_on_c, 0, 54, 90
2, 79439, Note_on_c, 0, 54, 0
2, 79440, Note_on_c, 0, 55, 90
2, 79499, Note_on_c, 0, 55, 0
2, 79500, Note_on_c, 0, 57, 90
2, 79559, Note_on_c, 0, 57, 0
2, 79560, Note_on_c, 0, 59, 90
2, 79619, Note_on_c, 0, 59, 0
2, 79620, Note_on_c, 0, 60, 90
2, 79679, Note_on_c, 0, 60, 0
2, 79680, Note_on_c, 0, 62, 90
2, 79739, Note_on_c, 0, 62, 0
2, 79740, Note_on_c, 0, 64, 90
2, 79799, Note_on_c, 0, 64, 0
2, 79800, Note_on_c, 0, 62, 90
2, 79859, Note_on_c, 0, 62, 0
2, 79860, Note_on_c, 0, 60, 90
2, 79919, Note_on_c, 0, 60, 0
2, 79920, Note_on_c, 0, 59, 90
2, 79979, Note_on_c, 0, 59, 0
2, 79980, Note_on_c, 0, 57, 90
2, 80039, Note_on_c, 0, 57, 0
2, 80040, Note_on_c, 0, 55, 90
2, 80099, Note_on_c, 0, 55, 0
2, 80100, Note_on_c, 0, 54, 90
2, 80159, Note_on_c, 0, 54, 0
2, 80160, Note_on_c, 0, 52, 90
2, 80279, Note_on_c, 0, 52, 0
2, 80280, Note_on_c, 0, 64, 90
2, 80339, Note_on_c, 0, 64, 0
2, 80340, Note_on_c, 0, 62, 90
2, 80399, Note_on_c, 0, 62, 0
2, 80400, Note_on_c, 0, 60, 90
2, 80459, Note_on_c, 0, 60, 0
2, 80460, Note_on_c, 0, 59, 90
2, 80519, Note_on_c, 0, 59, 0
2, 80520, Note_on_c, 0, 57, 90
2, 80579, Note_on_c, 0, 57, 0
2, 80580, Note_on_c, 0, 55, 90
2, 80639, Note_on_c, 0, 55, 0
2, 80640, Note_on_c, 0, 54, 90
2, 80699, Note_on_c, 0, 54, 0
2, 80700, Note_on_c, 0, 52, 90
2, 80759, Note_on_c, 0, 52, 0
2, 80760, Note_on_c, 0, 50, 90
2, 80819, Note_on_c, 0, 50, 0
2, 80820, Note_on_c, 0, 52, 90
2, 80879, Note_on_c, 0, 52, 0
2, 80880, Note_on_c, 0, 54, 90
2, 80939, Note_on_c, 0, 54, 0
2, 80940, Note_on_c, 0, 55, 90
2, 80999, Note_on_c, 0, 55, 0
2, 81000, Note_on_c, 0, 57, 90
2, 81059, Note_on_c, 0, 57, 0
2, 81060, Note_on_c, 0, 54, 90
2, 81119, Note_on_c, 0, 54, 0
2, 81120, Note_on_c, 0, 62, 90
2, 81239, Note_on_c, 0, 62, 0
2, 81240, Note_on_c, 0, 50, 90
2, 81359, Note_on_c, 0, 50, 0
2, 81360, Note_on_c, 0, 50, 90
2, 81479, Note_on_c, 0, 50, 0
2, 81480, Note_on_c, 0, 54, 90
2, 81599, Note_on_c, 0, 54, 0
2, 81600, Note_on_c, 0, 55, 90
2, 81839, Note_on_c, 0, 55, 0
2, 81960, Note_on_c, 0, 59, 90
2, 82079, Note_on_c, 0, 59, 0
2, 82080, Note_on_c, 0, 57, 90
2, 82139, Note_on_c, 0, 57, 0
2, 82140, Note_on_c, 0, 59, 90
2, 82199, Note_on_c, 0, 59, 0
2, 82200, Note_on_c, 0, 61, 90
2, 82259, Note_on_c, 0, 61, 0
2, 82260, Note_on_c, 0, 62, 90
2, 82319, Note_on_c, 0, 62, 0
2, 82320, Note_on_c, 0, 55, 90
2, 82379, Note_on_c, 0, 55, 0
2, 82380, Note_on_c, 0, 57, 90
2, 82439, Note_on_c, 0, 57, 0
2, 82440, Note_on_c, 0, 59, 90
2, 82499, Note_on_c, 0, 59, 0
2, 82500, Note_on_c, 0, 61, 90
2, 82559, Note_on_c, 0, 61, 0
2, 82560, Note_on_c, 0, 54, 90
2, 82679, Note_on_c, 0, 54, 0
2, 82680, Note_on_c, 0, 66, 90
2, 82919, Note_on_c, 0, 66, 0
2, 82920, Note_on_c, 0, 64, 90
2, 83159, Note_on_c, 0, 64, 0
2, 83160, Note_on_c, 0, 62, 90
2, 83219, Note_on_c, 0, 62, 0
2, 83220, Note_on_c, 0, 64, 90
2, 83279, Note_on_c, 0, 64, 0
2, 83280, Note_on_c, 0, 61, 90
2, 83310, Note_on_c, 0, 61, 0
2, 83310, Note_on_c, 0, 62, 90
2, 83340, Note_on_c, 0, 62, 0
2, 83340, Note_on_c, 0, 61, 90
2, 83370, Note_on_c, 0, 61, 0
2, 83370, Note_on_c, 0, 62, 90
2, 83400, Note_on_c, 0, 62, 0
2, 83400, Note_on_c, 0, 61, 90
2, 83420, Note_on_c, 0, 61, 0
2, 83420, Note_on_c, 0, 62, 90
2, 83440, Note_on_c, 0, 62, 0
2, 83440, Note_on_c, 0, 61, 90
2, 83460, Note_on_c, 0, 61, 0
2, 83460, Note_on_c, 0, 62, 90
2, 83519, Note_on_c, 0, 62, 0
2, 83520, Note_on_c, 0, 62, 90
2, 83639, Note_on_c, 0, 62, 0
2, 83640, Note_on_c, 0, 57, 90
2, 83759, Note_on_c, 0, 57, 0
2, 83760, Note_on_c, 0, 62, 90
2, 83879, Note_on_c, 0, 62, 0
2, 83880, Note_on_c, 0, 66, 90
2, 83999, Note_on_c, 0, 66, 0
2, 84000, Note_on_c, 0, 69, 90
2, 84119, Note_on_c, 0, 69, 0
2, 84120, Note_on_c, 0, 62, 90
2, 84239, Note_on_c, 0, 62, 0
2, 84240, Note_on_c, 0, 66, 90
2, 84359, Note_on_c, 0, 66, 0
2, 84360, Note_on_c, 0, 69, 90
2, 84479, Note_on_c, 0, 69, 0
2, 84480, Note_on_c, 0, 66, 90
2, 84599, Note_on_c, 0, 66, 0
2, 84600, Note_on_c, 0, 63, 90
2, 84719, Note_on_c, 0, 63, 0
2, 84720, Note_on_c, 0, 59, 90
2, 84839, Note_on_c, 0, 59, 0
2, 84840, Note_on_c, 0, 63, 90
2, 84959, Note_on_c, 0, 63, 0
2, 84960, Note_on_c, 0, 66, 90
2, 85079, Note_on_c, 0, 66, 0
2, 85080, Note_on_c, 0, 69, 90
2, 85199, Note_on_c, 0, 69, 0
2, 85200, Note_on_c, 0, 66, 90
2, 85319, Note_on_c, 0, 66, 0
2, 85320, Note_on_c, 0, 63, 90
2, 85439, Note_on_c, 0, 63, 0
2, 85440, Note_on_c, 0, 52, 90
2, 85499, Note_on_c, 0, 52, 0
2, 85500, Note_on_c, 0, 55, 90
2, 85559, Note_on_c, 0, 55, 0
2, 85560, Note_on_c, 0, 54, 90
2, 85619, Note_on_c, 0, 54, 0
2, 85620, Note_on_c, 0, 52, 90
2, 85679, Note_on_c, 0, 52, 0
2, 85680, Note_on_c, 0, 59, 90
2, 85739, Note_on_c, 0, 59, 0
2, 85740, Note_on_c, 0, 55, 90
2, 85799, Note_on_c, 0, 55, 0
2, 85800, Note_on_c, 0, 54, 90
2, 85859, Note_on_c, 0, 54, 0
2, 85860, Note_on_c, 0, 52, 90
2, 85919, Note_on_c, 0, 52, 0
2, 85920, Note_on_c, 0, 50, 90
2, 85979, Note_on_c, 0, 50, 0
2, 85980, Note_on_c, 0, 53, 90
2, 86039, Note_on_c, 0, 53, 0
2, 86040, Note_on_c, 0, 52, 90
2, 86099, Note_on_c, 0, 52, 0
2, 86100, Note_on_c, 0, 50, 90
2, 86159, Note_on_c, 0, 50, 0
2, 86160, Note_on_c, 0, 59, 90
2, 86219, Note_on_c, 0, 59, 0
2, 86220, Note_on_c, 0, 53, 90
2, 86279, Note_on_c, 0, 53, 0
2, 86280, Note_on_c, 0, 52, 90
2, 86339, Note_on_c, 0, 52, 0
2, 86340, Note_on_c, 0, 50, 90
2, 86399, Note_on_c, 0, 50, 0
2, 86400, Note_on_c, 0, 62, 90
2, 86459, Note_on_c, 0, 62, 0
2, 86460, Note_on_c, 0, 60, 90
2, 86519, Note_on_c, 0, 60, 0
2, 86520, Note_on_c, 0, 59, 90
2, 86579, Note_on_c, 0, 59, 0
2, 86580, Note_on_c, 0, 57, 90
2, 86639, Note_on_c, 0, 57, 0
2, 86640, Note_on_c, 0, 56, 90
2, 86699, Note_on_c, 0, 56, 0
2, 86700, Note_on_c, 0, 54, 90
2, 86759, Note_on_c, 0, 54, 0
2, 86760, Note_on_c, 0, 52, 90
2, 86819, Note_on_c, 0, 52, 0
2, 86820, Note_on_c, 0, 54, 90
2, 86879, Note_on_c, 0, 54, 0
2, 86880, Note_on_c, 0, 56, 90
2, 86939, Note_on_c, 0, 56, 0
2, 86940, Note_on_c, 0, 57, 90
2, 86999, Note_on_c, 0, 57, 0
2, 87000, Note_on_c, 0, 59, 90
2, 87059, Note_on_c, 0, 59, 0
2, 87060, Note_on_c, 0, 60, 90
2, 87119, Note_on_c, 0, 60, 0
2, 87120, Note_on_c, 0, 62, 90
2, 87179, Note_on_c, 0, 62, 0
2, 87180, Note_on_c, 0, 60, 90
2, 87239, Note_on_c, 0, 60, 0
2, 87240, Note_on_c, 0, 62, 90
2, 87299, Note_on_c, 0, 62, 0
2, 87300, Note_on_c, 0, 59, 90
2, 87359, Note_on_c, 0, 59, 0
2, 87360, Note_on_c, 0, 60, 90
2, 87419, Note_on_c, 0, 60, 0
2, 87420, Note_on_c, 0, 62, 90
2, 87479, Note_on_c, 0, 62, 0
2, 87480, Note_on_c, 0, 64, 90
2, 87539, Note_on_c, 0, 64, 0
2, 87540, Note_on_c, 0, 65, 90
2, 87599, Note_on_c, 0, 65, 0
2, 87600, Note_on_c, 0, 57, 90
2, 87659, Note_on_c, 0, 57, 0
2, 87660, Note_on_c, 0, 59, 90
2, 87719, Note_on_c, 0, 59, 0
2, 87720, Note_on_c, 0, 60, 90
2, 87779, Note_on_c, 0, 60, 0
2, 87780, Note_on_c, 0, 62, 90
2, 87839, Note_on_c, 0, 62, 0
2, 87840, Note_on_c, 0, 59, 90
2, 87899, Note_on_c, 0, 59, 0
2, 87900, Note_on_c, 0, 60, 90
2, 87959, Note_on_c, 0, 60, 0
2, 87960, Note_on_c, 0, 62, 90
2, 88019, Note_on_c, 0, 62, 0
2, 88020, Note_on_c, 0, 64, 90
2, 88079, Note_on_c, 0, 64, 0
2, 88080, Note_on_c, 0, 56, 90
2, 88139, Note_on_c, 0, 56, 0
2, 88140, Note_on_c, 0, 57, 90
2, 88199, Note_on_c, 0, 57, 0
2, 88200, Note_on_c, 0, 59, 90
2, 88259, Note_on_c, 0, 59, 0
2, 88260, Note_on_c, 0, 60, 90
2, 88319, Note_on_c, 0, 60, 0
2, 88320, Note_on_c, 0, 57, 90
2, 88379, Note_on_c, 0, 57, 0
2, 88380, Note_on_c, 0, 59, 90
2, 88439, Note_on_c, 0, 59, 0
2, 88440, Note_on_c, 0, 60, 90
2, 88499, Note_on_c, 0, 60, 0
2, 88500, Note_on_c, 0, 62, 90
2, 88559, Note_on_c, 0, 62, 0
2, 88560, Note_on_c, 0, 54, 90
2, 88619, Note_on_c, 0, 54, 0
2, 88620, Note_on_c, 0, 56, 90
2, 88679, Note_on_c, 0, 56, 0
2, 88680, Note_on_c, 0, 57, 90
2, 88739, Note_on_c, 0, 57, 0
2, 88740, Note_on_c, 0, 59, 90
2, 88799, Note_on_c, 0, 59, 0
2, 88800, Note_on_c, 0, 56, 90
2, 88859, Note_on_c, 0, 56, 0
2, 88860, Note_on_c, 0, 57, 90
2, 88919, Note_on_c, 0, 57, 0
2, 88920, Note_on_c, 0, 59, 90
2, 88979, Note_on_c, 0, 59, 0
2, 88980, Note_on_c, 0, 52, 90
2, 89039, Note_on_c, 0, 52, 0
2, 89040, Note_on_c, 0, 56, 90
2, 89099, Note_on_c, 0, 56, 0
2, 89100, Note_on_c, 0, 59, 90
2, 89159, Note_on_c, 0, 59, 0
2, 89160, Note_on_c, 0, 64, 90
2, 89279, Note_on_c, 0, 64, 0
2, 89280, Note_on_c, 0, 64, 100
2, 90480, Note_on_c, 0, 64, 0
2, 90480, Note_on_c, 0, 62, 100
2, 90780, Note_on_c, 0, 62, 0
2, 90780, Note_on_c, 0, 64, 90
2, 90839, Note_on_c, 0, 64, 0
2, 90840, Note_on_c, 0, 62, 90
2, 90899, Note_on_c, 0, 62, 0
2, 90900, Note_on_c, 0, 60, 90
2, 90959, Note_on_c, 0, 60, 0
2, 90960, Note_on_c, 0, 59, 90
2, 91019, Note_on_c, 0, 59, 0
2, 91020, Note_on_c, 0, 57, 90
2, 91079, Note_on_c, 0, 57, 0
2, 91080, Note_on_c, 0, 56, 90
2, 91139, Note_on_c, 0, 56, 0
2, 91140, Note_on_c, 0, 59, 90
2, 91199, Note_on_c, 0, 59, 0
2, 91200, Note_on_c, 0, 57, 90
2, 91319, Note_on_c, 0, 57, 0
2, 91320, Note_on_c, 0, 64, 90
2, 91379, Note_on_c, 0, 64, 0
2, 91380, Note_on_c, 0, 62, 90
2, 91439, Note_on_c, 0, 62, 0
2, 91440, Note_on_c, 0, 60, 90
2, 91559, Note_on_c, 0, 60, 0
2, 91560, Note_on_c, 0, 57, 90
2, 91679, Note_on_c, 0, 57, 0
2, 91680, Note_on_c, 0, 69, 90
2, 91799, Note_on_c, 0, 69, 0
2, 91800, Note_on_c, 0, 64, 90
2, 91919, Note_on_c, 0, 64, 0
2, 91920, Note_on_c, 0, 60, 90
2, 92039, Note_on_c, 0, 60, 0
2, 92040, Note_on_c, 0, 59, 90
2, 92099, Note_on_c, 0, 59, 0
2, 92100, Note_on_c, 0, 57, 90
2, 92159, Note_on_c, 0, 57, 0
2, 92160, Note_on_c, 0, 65, 90
2, 92219, Note_on_c, 0, 65, 0
2, 92220, Note_on_c, 0, 64, 90
2, 92279, Note_on_c, 0, 64, 0
2, 92280, Note_on_c, 0, 65, 90
2, 92339, Note_on_c, 0, 65, 0
2, 92340, Note_on_c, 0, 67, 90
2, 92399, Note_on_c, 0, 67, 0
2, 92400, Note_on_c, 0, 65, 90
2, 92459, Note_on_c, 0, 65, 0
2, 92460, Note_on_c, 0, 64, 90
2, 92519, Note_on_c, 0, 64, 0
2, 92520, Note_on_c, 0, 62, 90
2, 92579, Note_on_c, 0, 62, 0
2, 92580, Note_on_c, 0, 60, 90
2, 92639, Note_on_c, 0, 60, 0
2, 92640, Note_on_c, 0, 59, 90
2, 92699, Note_on_c, 0, 59, 0
2, 92700, Note_on_c, 0, 60, 90
2, 92759, Note_on_c, 0, 60, 0
2, 92760, Note_on_c, 0, 62, 90
2, 92819, Note_on_c, 0, 62, 0
2, 92820, Note_on_c, 0, 60, 90
2, 92879, Note_on_c, 0, 60, 0
2, 92880, Note_on_c, 0, 59, 90
2, 92939, Note_on_c, 0, 59, 0
2, 92940, Note_on_c, 0, 57, 90
2, 92999, Note_on_c, 0, 57, 0
2, 93000, Note_on_c, 0, 55, 90
2, 93059, Note_on_c, 0, 55, 0
2, 93060, Note_on_c, 0, 53, 90
2, 93119, Note_on_c, 0, 53, 0
2, 93120, Note_on_c, 0, 64, 90
2, 93179, Note_on_c, 0, 64, 0
2, 93180, Note_on_c, 0, 62, 90
2, 93239, Note_on_c, 0, 62, 0
2, 93240, Note_on_c, 0, 64, 90
2, 93299, Note_on_c, 0, 64, 0
2, 93300, Note_on_c, 0, 65, 90
2, 93359, Note_on_c, 0, 65, 0
2, 93360, Note_on_c, 0, 64, 90
2, 93419, Note_on_c, 0, 64, 0
2, 93420, Note_on_c, 0, 62, 90
2, 93479, Note_on_c, 0, 62, 0
2, 93480, Note_on_c, 0, 60, 90
2, 93539, Note_on_c, 0, 60, 0
2, 93540, Note_on_c, 0, 59, 90
2, 93599, Note_on_c, 0, 59, 0
2, 93600, Note_on_c, 0, 57, 90
2, 93659, Note_on_c, 0, 57, 0
2, 93660, Note_on_c, 0, 59, 90
2, 93719, Note_on_c, 0, 59, 0
2, 93720, Note_on_c, 0, 60, 90
2, 93779, Note_on_c, 0, 60, 0
2, 93780, Note_on_c, 0, 62, 90
2, 93839, Note_on_c, 0, 62, 0
2, 93840, Note_on_c, 0, 64, 90
2, 93899, Note_on_c, 0, 64, 0
2, 93900, Note_on_c, 0, 66, 90
2, 93959, Note_on_c, 0, 66, 0
2, 93960, Note_on_c, 0, 68, 90
2, 94019, Note_on_c, 0, 68, 0
2, 94020, Note_on_c, 0, 64, 90
2, 94079, Note_on_c, 0, 64, 0
2, 94080, Note_on_c, 0, 69, 90
2, 94259, Note_on_c, 0, 69, 0
2, 94260, Note_on_c, 0, 71, 90
2, 94319, Note_on_c, 0, 71, 0
2, 94320, Note_on_c, 0, 68, 90
2, 94499, Note_on_c, 0, 68, 0
2, 94500, Note_on_c, 0, 69, 90
2, 94559, Note_on_c, 0, 69, 0
2, 94560, Note_on_c, 0, 69, 90
2, 94679, Note_on_c, 0, 69, 0
2, 94680, Note_on_c, 0, 64, 90
2, 94799, Note_on_c, 0, 64, 0
2, 94800, Note_on_c, 0, 71, 90
2, 95039, Note_on_c, 0, 71, 0
2, 95040, Note_on_c, 0, 69, 90
2, 95399, Note_on_c, 0, 69, 0
2, 95400, Note_on_c, 0, 67, 90
2, 95459, Note_on_c, 0, 67, 0
2, 95460, Note_on_c, 0, 66, 90
2, 95519, Note_on_c, 0, 66, 0
2, 95520, Note_on_c, 0, 64, 90
2, 95579, Note_on_c, 0, 64, 0
2, 95580, Note_on_c, 0, 59, 90
2, 95639, Note_on_c, 0, 59, 0
2, 95640, Note_on_c, 0, 64, 90
2, 95879, Note_on_c, 0, 64, 0
2, 95880, Note_on_c, 0, 62, 90
2, 96119, Note_on_c, 0, 62, 0
2, 96120, Note_on_c, 0, 61, 90
2, 96179, Note_on_c, 0, 61, 0
2, 96180, Note_on_c, 0, 59, 90
2, 96239, Note_on_c, 0, 59, 0
2, 96240, Note_on_c, 0, 58, 90
2, 96359, Note_on_c, 0, 58, 0
2, 96360, Note_on_c, 0, 54, 90
2, 96479, Note_on_c, 0, 54, 0
2, 96480, Note_on_c, 0, 62, 90
2, 96719, Note_on_c, 0, 62, 0
2, 96720, Note_on_c, 0, 61, 90
2, 96959, Note_on_c, 0, 61, 0
2, 96960, Note_on_c, 0, 59, 90
2, 97319, Note_on_c, 0, 59, 0
2, 97320, Note_on_c, 0, 57, 90
2, 97379, Note_on_c, 0, 57, 0
2, 97380, Note_on_c, 0, 56, 90
2, 97439, Note_on_c, 0, 56, 0
2, 97440, Note_on_c, 0, 54, 90
2, 97559, Note_on_c, 0, 54, 0
2, 97560, Note_on_c, 0, 66, 90
2, 97799, Note_on_c, 0, 66, 0
2, 97800, Note_on_c, 0, 64, 90
2, 98039, Note_on_c, 0, 64, 0
2, 98040, Note_on_c, 0, 62, 90
2, 98279, Note_on_c, 0, 62, 0
2, 98280, Note_on_c, 0, 61, 90
2, 98519, Note_on_c, 0, 61, 0
2, 98520, Note_on_c, 0, 59, 90
2, 98639, Note_on_c, 0, 59, 0
2, 98640, Note_on_c, 0, 64, 100
2, 98940, Note_on_c, 0, 64, 0
2, 98940, Note_on_c, 0, 62, 90
2, 98999, Note_on_c, 0, 62, 0
2, 99000, Note_on_c, 0, 61, 90
2, 99059, Note_on_c, 0, 61, 0
2, 99060, Note_on_c, 0, 62, 90
2, 99119, Note_on_c, 0, 62, 0
2, 99120, Note_on_c, 0, 64, 90
2, 99179, Note_on_c, 0, 64, 0
2, 99180, Note_on_c, 0, 67, 90
2, 99239, Note_on_c, 0, 67, 0
2, 99240, Note_on_c, 0, 66, 90
2, 99299, Note_on_c, 0, 66, 0
2, 99300, Note_on_c, 0, 64, 90
2, 99359, Note_on_c, 0, 64, 0
2, 99360, Note_on_c, 0, 62, 90
2, 99479, Note_on_c, 0, 62, 0
2, 99480, Note_on_c, 0, 59, 90
2, 99599, Note_on_c, 0, 59, 0
2, 99600, Note_on_c, 0, 71, 90
2, 99719, Note_on_c, 0, 71, 0
2, 99720, Note_on_c, 0, 66, 90
2, 99839, Note_on_c, 0, 66, 0
2, 99840, Note_on_c, 0, 62, 90
2, 99959, Note_on_c, 0, 62, 0
2, 99960, Note_on_c, 0, 61, 90
2, 100019, Note_on_c, 0, 61, 0
2, 100020, Note_on_c, 0, 59, 90
2, 100079, Note_on_c, 0, 59, 0
2, 100080, Note_on_c, 0, 66, 90
2, 100199, Note_on_c, 0, 66, 0
2, 100200, Note_on_c, 0, 66, 90
2, 100319, Note_on_c, 0, 66, 0
2, 100320, Note_on_c, 0, 66, 90
2, 100439, Note_on_c, 0, 66, 0
2, 100440, Note_on_c, 0, 64, 90
2, 100499, Note_on_c, 0, 64, 0
2, 100500, Note_on_c, 0, 63, 90
2, 100559, Note_on_c, 0, 63, 0
2, 100560, Note_on_c, 0, 64, 90
2, 100619, Note_on_c, 0, 64, 0
2, 100620, Note_on_c, 0, 66, 90
2, 100679, Note_on_c, 0, 66, 0
2, 100680, Note_on_c, 0, 67, 90
2, 100799, Note_on_c, 0, 67, 0
2, 100800, Note_on_c, 0, 67, 90
2, 100919, Note_on_c, 0, 67, 0
2, 100920, Note_on_c, 0, 61, 90
2, 101039, Note_on_c, 0, 61, 0
2, 101040, Note_on_c, 0, 61, 90
2, 101159, Note_on_c, 0, 61, 0
2, 101160, Note_on_c, 0, 64, 90
2, 101399, Note_on_c, 0, 64, 0
2, 101400, Note_on_c, 0, 62, 90
2, 101459, Note_on_c, 0, 62, 0
2, 101460, Note_on_c, 0, 61, 90
2, 101519, Note_on_c, 0, 61, 0
2, 101520, Note_on_c, 0, 62, 90
2, 101579, Note_on_c, 0, 62, 0
2, 101580, Note_on_c, 0, 64, 90
2, 101639, Note_on_c, 0, 64, 0
2, 101640, Note_on_c, 0, 66, 90
2, 101759, Note_on_c, 0, 66, 0
2, 101760, Note_on_c, 0, 66, 90
2, 101879, Note_on_c, 0, 66, 0
2, 101880, Note_on_c, 0, 59, 90
2, 101999, Note_on_c, 0, 59, 0
2, 102000, Note_on_c, 0, 59, 90
2, 102119, Note_on_c, 0, 59, 0
2, 102120, Note_on_c, 0, 64, 90
2, 102239, Note_on_c, 0, 64, 0
2, 102240, Note_on_c, 0, 64, 90
2, 102299, Note_on_c, 0, 64, 0
2, 102300, Note_on_c, 0, 62, 90
2, 102419, Note_on_c, 0, 62, 0
2, 102420, Note_on_c, 0, 61, 90
2, 102479, Note_on_c, 0, 61, 0
2, 102480, Note_on_c, 0, 61, 90
2, 102510, Note_on_c, 0, 61, 0
2, 102510, Note_on_c, 0, 62, 90
2, 102540, Note_on_c, 0, 62, 0
2, 102540, Note_on_c, 0, 61, 90
2, 102660, Note_on_c, 0, 61, 0
2, 102660, Note_on_c, 0, 59, 90
2, 102719, Note_on_c, 0, 59, 0
2, 102720, Note_on_c, 0, 59, 90
2, 102959, Note_on_c, 0, 59, 0
2, 103080, Note_on_c, 0, 66, 90
2, 103199, Note_on_c, 0, 66, 0
2, 103200, Note_on_c, 0, 62, 90
2, 103319, Note_on_c, 0, 62, 0
2, 103320, Note_on_c, 0, 59, 90
2, 103439, Note_on_c, 0, 59, 0
2, 103560, Note_on_c, 0, 69, 90
2, 103679, Note_on_c, 0, 69, 0
2, 103680, Note_on_c, 0, 66, 90
2, 103799, Note_on_c, 0, 66, 0
2, 103800, Note_on_c, 0, 63, 90
2, 103919, Note_on_c, 0, 63, 0
2, 104040, Note_on_c, 0, 72, 90
2, 104159, Note_on_c, 0, 72, 0
2, 104160, Note_on_c, 0, 69, 90
2, 104279, Note_on_c, 0, 69, 0
2, 104280, Note_on_c, 0, 66, 90
2, 104399, Note_on_c, 0, 66, 0
2, 104400, Note_on_c, 0, 63, 90
2, 104579, Note_on_c, 0, 63, 0
2, 104580, Note_on_c, 0, 64, 90
2, 104639, Note_on_c, 0, 64, 0
2, 104640, Note_on_c, 0, 64, 90
2, 104759, Note_on_c, 0, 64, 0
2, 104760, Note_on_c, 0, 59, 90
2, 104879, Note_on_c, 0, 59, 0
2, 104880, Note_on_c, 0, 55, 90
2, 104999, Note_on_c, 0, 55, 0
2, 105000, Note_on_c, 0, 52, 90
2, 105119, Note_on_c, 0, 52, 0
2, 105240, Note_on_c, 0, 62, 90
2, 105359, Note_on_c, 0, 62, 0
2, 105360, Note_on_c, 0, 59, 90
2, 105479, Note_on_c, 0, 59, 0
2, 105480, Note_on_c, 0, 56, 90
2, 105599, Note_on_c, 0, 56, 0
2, 105720, Note_on_c, 0, 65, 90
2, 105839, Note_on_c, 0, 65, 0
2, 105840, Note_on_c, 0, 62, 90
2, 105959, Note_on_c, 0, 62, 0
2, 105960, Note_on_c, 0, 59, 90
2, 106079, Note_on_c, 0, 59, 0
2, 106080, Note_on_c, 0, 56, 90
2, 106139, Note_on_c, 0, 56, 0
2, 106140, Note_on_c, 0, 57, 90
2, 106199, Note_on_c, 0, 57, 0
2, 106200, Note_on_c, 0, 59, 90
2, 106259, Note_on_c, 0, 59, 0
2, 106260, Note_on_c, 0, 60, 90
2, 106319, Note_on_c, 0, 60, 0
2, 106320, Note_on_c, 0, 62, 90
2, 106379, Note_on_c, 0, 62, 0
2, 106380, Note_on_c, 0, 65, 90
2, 106439, Note_on_c, 0, 65, 0
2, 106440, Note_on_c, 0, 64, 90
2, 106499, Note_on_c, 0, 64, 0
2, 106500, Note_on_c, 0, 62, 90
2, 106559, Note_on_c, 0, 62, 0
2, 106560, Note_on_c, 0, 61, 90
2, 106679, Note_on_c, 0, 61, 0
2, 106920, Note_on_c, 0, 64, 90
2, 107039, Note_on_c, 0, 64, 0
2, 107040, Note_on_c, 0, 61, 90
2, 107159, Note_on_c, 0, 61, 0
2, 107160, Note_on_c, 0, 57, 90
2, 107279, Note_on_c, 0, 57, 0
2, 107400, Note_on_c, 0, 67, 90
2, 107519, Note_on_c, 0, 67, 0
2, 107520, Note_on_c, 0, 64, 90
2, 107639, Note_on_c, 0, 64, 0
2, 107640, Note_on_c, 0, 61, 90
2, 107759, Note_on_c, 0, 61, 0
2, 107880, Note_on_c, 0, 70, 90
2, 107999, Note_on_c, 0, 70, 0
2, 108000, Note_on_c, 0, 67, 90
2, 108119, Note_on_c, 0, 67, 0
2, 108120, Note_on_c, 0, 64, 90
2, 108239, Note_on_c, 0, 64, 0
2, 108240, Note_on_c, 0, 61, 90
2, 108419, Note_on_c, 0, 61, 0
2, 108420, Note_on_c, 0, 62, 90
2, 108479, Note_on_c, 0, 62, 0
2, 108480, Note_on_c, 0, 62, 90
2, 108599, Note_on_c, 0, 62, 0
2, 108600, Note_on_c, 0, 57, 90
2, 108719, Note_on_c, 0, 57, 0
2, 108720, Note_on_c, 0, 54, 90
2, 108839, Note_on_c, 0, 54, 0
2, 108840, Note_on_c, 0, 50, 90
2, 108959, Note_on_c, 0, 50, 0
2, 109080, Note_on_c, 0, 60, 90
2, 109199, Note_on_c, 0, 60, 0
2, 109200, Note_on_c, 0, 57, 90
2, 109319, Note_on_c, 0, 57, 0
2, 109320, Note_on_c, 0, 54, 90
2, 109439, Note_on_c, 0, 54, 0
2, 109560, Note_on_c, 0, 63, 90
2, 109679, Note_on_c, 0, 63, 0
2, 109680, Note_on_c, 0, 60, 90
2, 109799, Note_on_c, 0, 60, 0
2, 109800, Note_on_c, 0, 57, 90
2, 109919, Note_on_c, 0, 57, 0
2, 109920, Note_on_c, 0, 54, 90
2, 109979, Note_on_c, 0, 54, 0
2, 109980, Note_on_c, 0, 55, 90
2, 110039, Note_on_c, 0, 55, 0
2, 110040, Note_on_c, 0, 57, 90
2, 110099, Note_on_c, 0, 57, 0
2, 110100, Note_on_c, 0, 59, 90
2, 110159, Note_on_c, 0, 59, 0
2, 110160, Note_on_c, 0, 60, 90
2, 110279, Note_on_c, 0, 60, 0
2, 110280, Note_on_c, 0, 54, 90
2, 110399, Note_on_c, 0, 54, 0
2, 110400, Note_on_c, 0, 55, 90
2, 110459, Note_on_c, 0, 55, 0
2, 110460, Note_on_c, 0, 50, 90
2, 110519, Note_on_c, 0, 50, 0
2, 110520, Note_on_c, 0, 52, 90
2, 110579, Note_on_c, 0, 52, 0
2, 110580, Note_on_c, 0, 54, 90
2, 110639, Note_on_c, 0, 54, 0
2, 110640, Note_on_c, 0, 55, 90
2, 110699, Note_on_c, 0, 55, 0
2, 110700, Note_on_c, 0, 57, 90
2, 110759, Note_on_c, 0, 57, 0
2, 110760, Note_on_c, 0, 59, 90
2, 110819, Note_on_c, 0, 59, 0
2, 110820, Note_on_c, 0, 60, 90
2, 110879, Note_on_c, 0, 60, 0
2, 110880, Note_on_c, 0, 62, 90
2, 110939, Note_on_c, 0, 62, 0
2, 110940, Note_on_c, 0, 64, 90
2, 110999, Note_on_c, 0, 64, 0
2, 111000, Note_on_c, 0, 62, 90
2, 111059, Note_on_c, 0, 62, 0
2, 111060, Note_on_c, 0, 60, 90
2, 111119, Note_on_c, 0, 60, 0
2, 111120, Note_on_c, 0, 59, 90
2, 111179, Note_on_c, 0, 59, 0
2, 111180, Note_on_c, 0, 57, 90
2, 111239, Note_on_c, 0, 57, 0
2, 111240, Note_on_c, 0, 55, 90
2, 111299, Note_on_c, 0, 55, 0
2, 111300, Note_on_c, 0, 54, 90
2, 111359, Note_on_c, 0, 54, 0
2, 111360, Note_on_c, 0, 52, 90
2, 111479, Note_on_c, 0, 52, 0
2, 111480, Note_on_c, 0, 64, 90
2, 111539, Note_on_c, 0, 64, 0
2, 111540, Note_on_c, 0, 62, 90
2, 111599, Note_on_c, 0, 62, 0
2, 111600, Note_on_c, 0, 60, 90
2, 111659, Note_on_c, 0, 60, 0
2, 111660, Note_on_c, 0, 59, 90
2, 111719, Note_on_c, 0, 59, 0
2, 111720, Note_on_c, 0, 57, 90
2, 111779, Note_on_c, 0, 57, 0
2, 111780, Note_on_c, 0, 55, 90
2, 111839, Note_on_c, 0, 55, 0
2, 111840, Note_on_c, 0, 54, 90
2, 111899, Note_on_c, 0, 54, 0
2, 111900, Note_on_c, 0, 52, 90
2, 111959, Note_on_c, 0, 52, 0
2, 111960, Note_on_c, 0, 50, 90
2, 112019, Note_on_c, 0, 50, 0
2, 112020, Note_on_c, 0, 52, 90
2, 112079, Note_on_c, 0, 52, 0
2, 112080, Note_on_c, 0, 54, 90
2, 112139, Note_on_c, 0, 54, 0
2, 112140, Note_on_c, 0, 55, 90
2, 112199, Note_on_c, 0, 55, 0
2, 112200, Note_on_c, 0, 57, 90
2, 112259, Note_on_c, 0, 57, 0
2, 112260, Note_on_c, 0, 54, 90
2, 112319, Note_on_c, 0, 54, 0
2, 112320, Note_on_c, 0, 62, 90
2, 112439, Note_on_c, 0, 62, 0
2, 112440, Note_on_c, 0, 50, 90
2, 112559, Note_on_c, 0, 50, 0
2, 112560, Note_on_c, 0, 50, 90
2, 112679, Note_on_c, 0, 50, 0
2, 112680, Note_on_c, 0, 54, 90
2, 112799, Note_on_c, 0, 54, 0
2, 112800, Note_on_c, 0, 55, 90
2, 113039, Note_on_c, 0, 55, 0
2, 114120, Note_on_c, 0, 55, 90
2, 114179, Note_on_c, 0, 55, 0
2, 114180, Note_on_c, 0, 53, 90
2, 114239, Note_on_c, 0, 53, 0
2, 114240, Note_on_c, 0, 52, 90
2, 114359, Note_on_c, 0, 52, 0
2, 114360, Note_on_c, 0, 48, 90
2, 114479, Note_on_c, 0, 48, 0
2, 114480, Note_on_c, 0, 60, 90
2, 114599, Note_on_c, 0, 60, 0
2, 114600, Note_on_c, 0, 55, 90
2, 114719, Note_on_c, 0, 55, 0
2, 114720, Note_on_c, 0, 52, 90
2, 114839, Note_on_c, 0, 52, 0
2, 114840, Note_on_c, 0, 50, 90
2, 114899, Note_on_c, 0, 50, 0
2, 114900, Note_on_c, 0, 48, 90
2, 114959, Note_on_c, 0, 48, 0
2, 114960, Note_on_c, 0, 55, 90
2, 115079, Note_on_c, 0, 55, 0
2, 115080, Note_on_c, 0, 55, 90
2, 115199, Note_on_c, 0, 55, 0
2, 115200, Note_on_c, 0, 55, 90
2, 115319, Note_on_c, 0, 55, 0
2, 115320, Note_on_c, 0, 53, 90
2, 115379, Note_on_c, 0, 53, 0
2, 115380, Note_on_c, 0, 52, 90
2, 115439, Note_on_c, 0, 52, 0
2, 115440, Note_on_c, 0, 53, 90
2, 115499, Note_on_c, 0, 53, 0
2, 115500, Note_on_c, 0, 55, 90
2, 115559, Note_on_c, 0, 55, 0
2, 115560, Note_on_c, 0, 57, 90
2, 115679, Note_on_c, 0, 57, 0
2, 115680, Note_on_c, 0, 57, 90
2, 115799, Note_on_c, 0, 57, 0
2, 115800, Note_on_c, 0, 50, 90
2, 115919, Note_on_c, 0, 50, 0
2, 115920, Note_on_c, 0, 50, 90
2, 116039, Note_on_c, 0, 50, 0
2, 116040, Note_on_c, 0, 53, 90
2, 116279, Note_on_c, 0, 53, 0
2, 116280, Note_on_c, 0, 52, 90
2, 116339, Note_on_c, 0, 52, 0
2, 116340, Note_on_c, 0, 50, 90
2, 116399, Note_on_c, 0, 50, 0
2, 116400, Note_on_c, 0, 52, 90
2, 116459, Note_on_c, 0, 52, 0
2, 116460, Note_on_c, 0, 53, 90
2, 116519, Note_on_c, 0, 53, 0
2, 116520, Note_on_c, 0, 55, 90
2, 116639, Note_on_c, 0, 55, 0
2, 116640, Note_on_c, 0, 55, 90
2, 116759, Note_on_c, 0, 55, 0
2, 116760, Note_on_c, 0, 48, 90
2, 116879, Note_on_c, 0, 48, 0
2, 116880, Note_on_c, 0, 48, 90
2, 116999, Note_on_c, 0, 48, 0
2, 117000, Note_on_c, 0, 60, 90
2, 117239, Note_on_c, 0, 60, 0
2, 117240, Note_on_c, 0, 59, 90
2, 117479, Note_on_c, 0, 59, 0
2, 117480, Note_on_c, 0, 57, 90
2, 117719, Note_on_c, 0, 57, 0
2, 117720, Note_on_c, 0, 55, 90
2, 117779, Note_on_c, 0, 55, 0
2, 117780, Note_on_c, 0, 53, 90
2, 117839, Note_on_c, 0, 53, 0
2, 117840, Note_on_c, 0, 52, 90
2, 117899, Note_on_c, 0, 52, 0
2, 117900, Note_on_c, 0, 50, 90
2, 117959, Note_on_c, 0, 50, 0
2, 117960, Note_on_c, 0, 52, 90
2, 118019, Note_on_c, 0, 52, 0
2, 118020, Note_on_c, 0, 54, 90
2, 118079, Note_on_c, 0, 54, 0
2, 118080, Note_on_c, 0, 55, 90
2, 118139, Note_on_c, 0, 55, 0
2, 118140, Note_on_c, 0, 54, 90
2, 118199, Note_on_c, 0, 54, 0
2, 118200, Note_on_c, 0, 55, 90
2, 118259, Note_on_c, 0, 55, 0
2, 118260, Note_on_c, 0, 57, 90
2, 118319, Note_on_c, 0, 57, 0
2, 118320, Note_on_c, 0, 59, 90
2, 118379, Note_on_c, 0, 59, 0
2, 118380, Note_on_c, 0, 60, 90
2, 118439, Note_on_c, 0, 60, 0
2, 118440, Note_on_c, 0, 62, 90
2, 118499, Note_on_c, 0, 62, 0
2, 118500, Note_on_c, 0, 64, 90
2, 118559, Note_on_c, 0, 64, 0
2, 118560, Note_on_c, 0, 62, 90
2, 118619, Note_on_c, 0, 62, 0
2, 118620, Note_on_c, 0, 67, 90
2, 118679, Note_on_c, 0, 67, 0
2, 118680, Note_on_c, 0, 66, 90
2, 118739, Note_on_c, 0, 66, 0
2, 118740, Note_on_c, 0, 64, 90
2, 118799, Note_on_c, 0, 64, 0
2, 118800, Note_on_c, 0, 62, 90
2, 118859, Note_on_c, 0, 62, 0
2, 118860, Note_on_c, 0, 60, 90
2, 118919, Note_on_c, 0, 60, 0
2, 118920, Note_on_c, 0, 59, 90
2, 118979, Note_on_c, 0, 59, 0
2, 118980, Note_on_c, 0, 57, 90
2, 119039, Note_on_c, 0, 57, 0
2, 119040, Note_on_c, 0, 55, 90
2, 119099, Note_on_c, 0, 55, 0
2, 119100, Note_on_c, 0, 59, 90
2, 119159, Note_on_c, 0, 59, 0
2, 119160, Note_on_c, 0, 60, 90
2, 119219, Note_on_c, 0, 60, 0
2, 119220, Note_on_c, 0, 62, 90
2, 119279, Note_on_c, 0, 62, 0
2, 119280, Note_on_c, 0, 64, 90
2, 119339, Note_on_c, 0, 64, 0
2, 119340, Note_on_c, 0, 66, 90
2, 119399, Note_on_c, 0, 66, 0
2, 119400, Note_on_c, 0, 67, 90
2, 119459, Note_on_c, 0, 67, 0
2, 119460, Note_on_c, 0, 64, 90
2, 119519, Note_on_c, 0, 64, 0
2, 119520, Note_on_c, 0, 69, 90
2, 119579, Note_on_c, 0, 69, 0
2, 119580, Note_on_c, 0, 67, 90
2, 119639, Note_on_c, 0, 67, 0
2, 119640, Note_on_c, 0, 66, 90
2, 119699, Note_on_c, 0, 66, 0
2, 119700, Note_on_c, 0, 67, 90
2, 119759, Note_on_c, 0, 67, 0
2, 119760, Note_on_c, 0, 69, 90
2, 119819, Note_on_c, 0, 69, 0
2, 119820, Note_on_c, 0, 67, 90
2, 119879, Note_on_c, 0, 67, 0
2, 119880, Note_on_c, 0, 66, 90
2, 119939, Note_on_c, 0, 66, 0
2, 119940, Note_on_c, 0, 64, 90
2, 119999, Note_on_c, 0, 64, 0
2, 120000, Note_on_c, 0, 66, 90
2, 120059, Note_on_c, 0, 66, 0
2, 120060, Note_on_c, 0, 69, 90
2, 120119, Note_on_c, 0, 69, 0
2, 120120, Note_on_c, 0, 67, 90
2, 120179, Note_on_c, 0, 67, 0
2, 120180, Note_on_c, 0, 66, 90
2, 120239, Note_on_c, 0, 66, 0
2, 120240, Note_on_c, 0, 64, 90
2, 120299, Note_on_c, 0, 64, 0
2, 120300, Note_on_c, 0, 62, 90
2, 120359, Note_on_c, 0, 62, 0
2, 120360, Note_on_c, 0, 60, 90
2, 120419, Note_on_c, 0, 60, 0
2, 120420, Note_on_c, 0, 62, 90
2, 120479, Note_on_c, 0, 62, 0
2, 120480, Note_on_c, 0, 59, 90
2, 120539, Note_on_c, 0, 59, 0
2, 120540, Note_on_c, 0, 57, 90
2, 120599, Note_on_c, 0, 57, 0
2, 120600, Note_on_c, 0, 59, 90
2, 120659, Note_on_c, 0, 59, 0
2, 120660, Note_on_c, 0, 60, 90
2, 120719, Note_on_c, 0, 60, 0
2, 120720, Note_on_c, 0, 62, 90
2, 120779, Note_on_c, 0, 62, 0
2, 120780, Note_on_c, 0, 64, 90
2, 120839, Note_on_c, 0, 64, 0
2, 120840, Note_on_c, 0, 66, 90
2, 120899, Note_on_c, 0, 66, 0
2, 120900, Note_on_c, 0, 67, 90
2, 120959, Note_on_c, 0, 67, 0
2, 120960, Note_on_c, 0, 61, 90
2, 121079, Note_on_c, 0, 61, 0
2, 121080, Note_on_c, 0, 69, 90
2, 121199, Note_on_c, 0, 69, 0
2, 121200, Note_on_c, 0, 59, 90
2, 121319, Note_on_c, 0, 59, 0
2, 121320, Note_on_c, 0, 67, 90
2, 121439, Note_on_c, 0, 67, 0
2, 121440, Note_on_c, 0, 57, 90
2, 121499, Note_on_c, 0, 57, 0
2, 121500, Note_on_c, 0, 60, 90
2, 121559, Note_on_c, 0, 60, 0
2, 121560, Note_on_c, 0, 59, 90
2, 121619, Note_on_c, 0, 59, 0
2, 121620, Note_on_c, 0, 57, 90
2, 121679, Note_on_c, 0, 57, 0
2, 121680, Note_on_c, 0, 55, 90
2, 121799, Note_on_c, 0, 55, 0
2, 121800, Note_on_c, 0, 67, 90
2, 121919, Note_on_c, 0, 67, 0
2, 121920, Note_on_c, 0, 67, 90
2, 121979, Note_on_c, 0, 67, 0
2, 121980, Note_on_c, 0, 66, 90
2, 122099, Note_on_c, 0, 66, 0
2, 122100, Note_on_c, 0, 64, 90
2, 122159, Note_on_c, 0, 64, 0
2, 122160, Note_on_c, 0, 64, 90
2, 122339, Note_on_c, 0, 64, 0
2, 122340, Note_on_c, 0, 62, 90
2, 122399, Note_on_c, 0, 62, 0
2, 122400, Note_on_c, 0, 62, 90
2, 122519, Note_on_c, 0, 62, 0
2, 122520, Note_on_c, 0, 57, 90
2, 122639, Note_on_c, 0, 57, 0
2, 122640, Note_on_c, 0, 62, 90
2, 122759, Note_on_c, 0, 62, 0
2, 122760, Note_on_c, 0, 66, 90
2, 122879, Note_on_c, 0, 66, 0
2, 122880, Note_on_c, 0, 69, 90
2, 122999, Note_on_c, 0, 69, 0
2, 123000, Note_on_c, 0, 66, 90
2, 123119, Note_on_c, 0, 66, 0
2, 123120, Note_on_c, 0, 62, 90
2, 123239, Note_on_c, 0, 62, 0
2, 123240, Note_on_c, 0, 57, 90
2, 123359, Note_on_c, 0, 57, 0
2, 123360, Note_on_c, 0, 54, 90
2, 123479, Note_on_c, 0, 54, 0
2, 123480, Note_on_c, 0, 57, 90
2, 123599, Note_on_c, 0, 57, 0
2, 123600, Note_on_c, 0, 50, 90
2, 123659, Note_on_c, 0, 50, 0
2, 123660, Note_on_c, 0, 52, 90
2, 123719, Note_on_c, 0, 52, 0
2, 123720, Note_on_c, 0, 54, 90
2, 123779, Note_on_c, 0, 54, 0
2, 123780, Note_on_c, 0, 55, 90
2, 123839, Note_on_c, 0, 55, 0
2, 123840, Note_on_c, 0, 57, 90
2, 123899, Note_on_c, 0, 57, 0
2, 123900, Note_on_c, 0, 59, 90
2, 123959, Note_on_c, 0, 59, 0
2, 123960, Note_on_c, 0, 60, 90
2, 124019, Note_on_c, 0, 60, 0
2, 124020, Note_on_c, 0, 59, 90
2, 124079, Note_on_c, 0, 59, 0
2, 124080, Note_on_c, 0, 57, 90
2, 124139, Note_on_c, 0, 57, 0
2, 124140, Note_on_c, 0, 55, 90
2, 124199, Note_on_c, 0, 55, 0
2, 124200, Note_on_c, 0, 57, 90
2, 124259, Note_on_c, 0, 57, 0
2, 124260, Note_on_c, 0, 54, 90
2, 124319, Note_on_c, 0, 54, 0
2, 124320, Note_on_c, 0, 55, 90
2, 124379, Note_on_c, 0, 55, 0
2, 124380, Note_on_c, 0, 59, 90
2, 124439, Note_on_c, 0, 59, 0
2, 124440, Note_on_c, 0, 57, 90
2, 124499, Note_on_c, 0, 57, 0
2, 124500, Note_on_c, 0, 55, 90
2, 124559, Note_on_c, 0, 55, 0
2, 124560, Note_on_c, 0, 62, 90
2, 124619, Note_on_c, 0, 62, 0
2, 124620, Note_on_c, 0, 59, 90
2, 124679, Note_on_c, 0, 59, 0
2, 124680, Note_on_c, 0, 57, 90
2, 124739, Note_on_c, 0, 57, 0
2, 124740, Note_on_c, 0, 55, 90
2, 124799, Note_on_c, 0, 55, 0
2, 124800, Note_on_c, 0, 53, 90
2, 124859, Note_on_c, 0, 53, 0
2, 124860, Note_on_c, 0, 57, 90
2, 124919, Note_on_c, 0, 57, 0
2, 124920, Note_on_c, 0, 55, 90
2, 124979, Note_on_c, 0, 55, 0
2, 124980, Note_on_c, 0, 53, 90
2, 125039, Note_on_c, 0, 53, 0
2, 125040, Note_on_c, 0, 62, 90
2, 125099, Note_on_c, 0, 62, 0
2, 125100, Note_on_c, 0, 57, 90
2, 125159, Note_on_c, 0, 57, 0
2, 125160, Note_on_c, 0, 55, 90
2, 125219, Note_on_c, 0, 55, 0
2, 125220, Note_on_c, 0, 53, 90
2, 125279, Note_on_c, 0, 53, 0
2, 125280, Note_on_c, 0, 52, 90
2, 125339, Note_on_c, 0, 52, 0
2, 125340, Note_on_c, 0, 56, 90
2, 125399, Note_on_c, 0, 56, 0
2, 125400, Note_on_c, 0, 54, 90
2, 125459, Note_on_c, 0, 54, 0
2, 125460, Note_on_c, 0, 52, 90
2, 125519, Note_on_c, 0, 52, 0
2, 125520, Note_on_c, 0, 62, 90
2, 125579, Note_on_c, 0, 62, 0
2, 125580, Note_on_c, 0, 60, 90
2, 125639, Note_on_c, 0, 60, 0
2, 125640, Note_on_c, 0, 59, 90
2, 125699, Note_on_c, 0, 59, 0
2, 125700, Note_on_c, 0, 57, 90
2, 125759, Note_on_c, 0, 57, 0
2, 125760, Note_on_c, 0, 56, 90
2, 125819, Note_on_c, 0, 56, 0
2, 125820, Note_on_c, 0, 57, 90
2, 125879, Note_on_c, 0, 57, 0
2, 125880, Note_on_c, 0, 59, 90
2, 125939, Note_on_c, 0, 59, 0
2, 125940, Note_on_c, 0, 60, 90
2, 125999, Note_on_c, 0, 60, 0
2, 126000, Note_on_c, 0, 62, 90
2, 126059, Note_on_c, 0, 62, 0
2, 126060, Note_on_c, 0, 60, 90
2, 126119, Note_on_c, 0, 60, 0
2, 126120, Note_on_c, 0, 62, 90
2, 126179, Note_on_c, 0, 62, 0
2, 126180, Note_on_c, 0, 59, 90
2, 126239, Note_on_c, 0, 59, 0
2, 126240, Note_on_c, 0, 60, 90
2, 126359, Note_on_c, 0, 60, 0
2, 126360, Note_on_c, 0, 72, 90
2, 126599, Note_on_c, 0, 72, 0
2, 126600, Note_on_c, 0, 71, 90
2, 126839, Note_on_c, 0, 71, 0
2, 126840, Note_on_c, 0, 69, 90
2, 126899, Note_on_c, 0, 69, 0
2, 126900, Note_on_c, 0, 67, 90
2, 126959, Note_on_c, 0, 67, 0
2, 126960, Note_on_c, 0, 66, 90
2, 127079, Note_on_c, 0, 66, 0
2, 127080, Note_on_c, 0, 62, 90
2, 127199, Note_on_c, 0, 62, 0
2, 127200, Note_on_c, 0, 71, 90
2, 127439, Note_on_c, 0, 71, 0
2, 127440, Note_on_c, 0, 69, 90
2, 127679, Note_on_c, 0, 69, 0
2, 127680, Note_on_c, 0, 67, 90
2, 128039, Note_on_c, 0, 67, 0
2, 128040, Note_on_c, 0, 66, 90
2, 128099, Note_on_c, 0, 66, 0
2, 128100, Note_on_c, 0, 64, 90
2, 128159, Note_on_c, 0, 64, 0
2, 128160, Note_on_c, 0, 62, 90
2, 128279, Note_on_c, 0, 62, 0
2, 128280, Note_on_c, 0, 74, 90
2, 128519, Note_on_c, 0, 74, 0
2, 128520, Note_on_c, 0, 72, 90
2, 128759, Note_on_c, 0, 72, 0
2, 128760, Note_on_c, 0, 71, 90
2, 128819, Note_on_c, 0, 71, 0
2, 128820, Note_on_c, 0, 69, 90
2, 128879, Note_on_c, 0, 69, 0
2, 128880, Note_on_c, 0, 68, 90
2, 128999, Note_on_c, 0, 68, 0
2, 129000, Note_on_c, 0, 64, 90
2, 129119, Note_on_c, 0, 64, 0
2, 129120, Note_on_c, 0, 72, 90
2, 129359, Note_on_c, 0, 72, 0
2, 129360, Note_on_c, 0, 71, 90
2, 129599, Note_on_c, 0, 71, 0
2, 129600, Note_on_c, 0, 69, 90
2, 129959, Note_on_c, 0, 69, 0
2, 129960, Note_on_c, 0, 67, 90
2, 130019, Note_on_c, 0, 67, 0
2, 130020, Note_on_c, 0, 66, 90
2, 130079, Note_on_c, 0, 66, 0
2, 130080, Note_on_c, 0, 64, 90
2, 130139, Note_on_c, 0, 64, 0
2, 130140, Note_on_c, 0, 63, 90
2, 130199, Note_on_c, 0, 63, 0
2, 130200, Note_on_c, 0, 64, 90
2, 130439, Note_on_c, 0, 64, 0
2, 130440, Note_on_c, 0, 62, 90
2, 130679, Note_on_c, 0, 62, 0
2, 130680, Note_on_c, 0, 60, 90
2, 130919, Note_on_c, 0, 60, 0
2, 130920, Note_on_c, 0, 59, 90
2, 130979, Note_on_c, 0, 59, 0
2, 130980, Note_on_c, 0, 57, 90
2, 131039, Note_on_c, 0, 57, 0
2, 131040, Note_on_c, 0, 55, 90
2, 131099, Note_on_c, 0, 55, 0
2, 131100, Note_on_c, 0, 54, 90
2, 131159, Note_on_c, 0, 54, 0
2, 131160, Note_on_c, 0, 52, 90
2, 131219, Note_on_c, 0, 52, 0
2, 131220, Note_on_c, 0, 54, 90
2, 131279, Note_on_c, 0, 54, 0
2, 131280, Note_on_c, 0, 55, 90
2, 131339, Note_on_c, 0, 55, 0
2, 131340, Note_on_c, 0, 59, 90
2, 131399, Note_on_c, 0, 59, 0
2, 131400, Note_on_c, 0, 57, 90
2, 131459, Note_on_c, 0, 57, 0
2, 131460, Note_on_c, 0, 55, 90
2, 131519, Note_on_c, 0, 55, 0
2, 131520, Note_on_c, 0, 54, 90
2, 131579, Note_on_c, 0, 54, 0
2, 131580, Note_on_c, 0, 55, 90
2, 131639, Note_on_c, 0, 55, 0
2, 131640, Note_on_c, 0, 57, 90
2, 131699, Note_on_c, 0, 57, 0
2, 131700, Note_on_c, 0, 54, 90
2, 131759, Note_on_c, 0, 54, 0
2, 131760, Note_on_c, 0, 50, 90
2, 131879, Note_on_c, 0, 50, 0
2, 131880, Note_on_c, 0, 62, 90
2, 131999, Note_on_c, 0, 62, 0
2, 132000, Note_on_c, 0, 62, 90
2, 133740, Note_on_c, 0, 62, 0
2, 133740, Note_on_c, 0, 60, 90
2, 133799, Note_on_c, 0, 60, 0
2, 133800, Note_on_c, 0, 59, 90
2, 133859, Note_on_c, 0, 59, 0
2, 133860, Note_on_c, 0, 57, 90
2, 133919, Note_on_c, 0, 57, 0
2, 133920, Note_on_c, 0, 59, 90
2, 133979, Note_on_c, 0, 59, 0
2, 133980, Note_on_c, 0, 60, 90
2, 134039, Note_on_c, 0, 60, 0
2, 134040, Note_on_c, 0, 62, 90
2, 134099, Note_on_c, 0, 62, 0
2, 134100, Note_on_c, 0, 64, 90
2, 134159, Note_on_c, 0, 64, 0
2, 134160, Note_on_c, 0, 55, 90
2, 134219, Note_on_c, 0, 55, 0
2, 134220, Note_on_c, 0, 57, 90
2, 134279, Note_on_c, 0, 57, 0
2, 134280, Note_on_c, 0, 59, 90
2, 134339, Note_on_c, 0, 59, 0
2, 134340, Note_on_c, 0, 60, 90
2, 134399, Note_on_c, 0, 60, 0
2, 134400, Note_on_c, 0, 57, 90
2, 134459, Note_on_c, 0, 57, 0
2, 134460, Note_on_c, 0, 59, 90
2, 134519, Note_on_c, 0, 59, 0
2, 134520, Note_on_c, 0, 60, 90
2, 134579, Note_on_c, 0, 60, 0
2, 134580, Note_on_c, 0, 62, 90
2, 134639, Note_on_c, 0, 62, 0
2, 134640, Note_on_c, 0, 54, 90
2, 134699, Note_on_c, 0, 54, 0
2, 134700, Note_on_c, 0, 55, 90
2, 134759, Note_on_c, 0, 55, 0
2, 134760, Note_on_c, 0, 57, 90
2, 134819, Note_on_c, 0, 57, 0
2, 134820, Note_on_c, 0, 59, 90
2, 134879, Note_on_c, 0, 59, 0
2, 134880, Note_on_c, 0, 55, 90
2, 134939, Note_on_c, 0, 55, 0
2, 134940, Note_on_c, 0, 57, 90
2, 134999, Note_on_c, 0, 57, 0
2, 135000, Note_on_c, 0, 59, 90
2, 135059, Note_on_c, 0, 59, 0
2, 135060, Note_on_c, 0, 60, 90
2, 135119, Note_on_c, 0, 60, 0
2, 135120, Note_on_c, 0, 52, 90
2, 135179, Note_on_c, 0, 52, 0
2, 135180, Note_on_c, 0, 54, 90
2, 135239, Note_on_c, 0, 54, 0
2, 135240, Note_on_c, 0, 55, 90
2, 135299, Note_on_c, 0, 55, 0
2, 135300, Note_on_c, 0, 57, 90
2, 135359, Note_on_c, 0, 57, 0
2, 135360, Note_on_c, 0, 54, 90
2, 135660, Note_on_c, 0, 54, 0
2, 135660, Note_on_c, 0, 50, 90
2, 135719, Note_on_c, 0, 50, 0
2, 135720, Note_on_c, 0, 52, 90
2, 135779, Note_on_c, 0, 52, 0
2, 135780, Note_on_c, 0, 54, 90
2, 135839, Note_on_c, 0, 54, 0
2, 135840, Note_on_c, 0, 55, 90
2, 135899, Note_on_c, 0, 55, 0
2, 135900, Note_on_c, 0, 59, 90
2, 135959, Note_on_c, 0, 59, 0
2, 135960, Note_on_c, 0, 62, 90
2, 136019, Note_on_c, 0, 62, 0
2, 136020, Note_on_c, 0, 60, 90
2, 136079, Note_on_c, 0, 60, 0
2, 136080, Note_on_c, 0, 59, 90
2, 136139, Note_on_c, 0, 59, 0
2, 136140, Note_on_c, 0, 55, 90
2, 136199, Note_on_c, 0, 55, 0
2, 136200, Note_on_c, 0, 54, 90
2, 136259, Note_on_c, 0, 54, 0
2, 136260, Note_on_c, 0, 55, 90
2, 136319, Note_on_c, 0, 55, 0
2, 136320, Note_on_c, 0, 67, 90
2, 136439, Note_on_c, 0, 67, 0
2, 136440, Note_on_c, 0, 62, 90
2, 136559, Note_on_c, 0, 62, 0
2, 136560, Note_on_c, 0, 59, 90
2, 136679, Note_on_c, 0, 59, 0
2, 136680, Note_on_c, 0, 57, 90
2, 136739, Note_on_c, 0, 57, 0
2, 136740, Note_on_c, 0, 55, 90
2, 136799, Note_on_c, 0, 55, 0
2, 136800, Note_on_c, 0, 64, 90
2, 136859, Note_on_c, 0, 64, 0
2, 136860, Note_on_c, 0, 62, 90
2, 136919, Note_on_c, 0, 62, 0
2, 136920, Note_on_c, 0, 64, 90
2, 136979, Note_on_c, 0, 64, 0
2, 136980, Note_on_c, 0, 65, 90
2, 137039, Note_on_c, 0, 65, 0
2, 137040, Note_on_c, 0, 64, 90
2, 137099, Note_on_c, 0, 64, 0
2, 137100, Note_on_c, 0, 62, 90
2, 137159, Note_on_c, 0, 62, 0
2, 137160, Note_on_c, 0, 60, 90
2, 137219, Note_on_c, 0, 60, 0
2, 137220, Note_on_c, 0, 59, 90
2, 137279, Note_on_c, 0, 59, 0
2, 137280, Note_on_c, 0, 57, 90
2, 137339, Note_on_c, 0, 57, 0
2, 137340, Note_on_c, 0, 59, 90
2, 137399, Note_on_c, 0, 59, 0
2, 137400, Note_on_c, 0, 60, 90
2, 137459, Note_on_c, 0, 60, 0
2, 137460, Note_on_c, 0, 59, 90
2, 137519, Note_on_c, 0, 59, 0
2, 137520, Note_on_c, 0, 57, 90
2, 137579, Note_on_c, 0, 57, 0
2, 137580, Note_on_c, 0, 55, 90
2, 137639, Note_on_c, 0, 55, 0
2, 137640, Note_on_c, 0, 54, 90
2, 137699, Note_on_c, 0, 54, 0
2, 137700, Note_on_c, 0, 52, 90
2, 137759, Note_on_c, 0, 52, 0
2, 137760, Note_on_c, 0, 62, 90
2, 137819, Note_on_c, 0, 62, 0
2, 137820, Note_on_c, 0, 60, 90
2, 137879, Note_on_c, 0, 60, 0
2, 137880, Note_on_c, 0, 62, 90
2, 137939, Note_on_c, 0, 62, 0
2, 137940, Note_on_c, 0, 64, 90
2, 137999, Note_on_c, 0, 64, 0
2, 138000, Note_on_c, 0, 62, 90
2, 138059, Note_on_c, 0, 62, 0
2, 138060, Note_on_c, 0, 60, 90
2, 138119, Note_on_c, 0, 60, 0
2, 138120, Note_on_c, 0, 59, 90
2, 138179, Note_on_c, 0, 59, 0
2, 138180, Note_on_c, 0, 57, 90
2, 138239, Note_on_c, 0, 57, 0
2, 138240, Note_on_c, 0, 55, 90
2, 138299, Note_on_c, 0, 55, 0
2, 138300, Note_on_c, 0, 57, 90
2, 138359, Note_on_c, 0, 57, 0
2, 138360, Note_on_c, 0, 59, 90
2, 138419, Note_on_c, 0, 59, 0
2, 138420, Note_on_c, 0, 60, 90
2, 138479, Note_on_c, 0, 60, 0
2, 138480, Note_on_c, 0, 62, 90
2, 138539, Note_on_c, 0, 62, 0
2, 138540, Note_on_c, 0, 64, 90
2, 138599, Note_on_c, 0, 64, 0
2, 138600, Note_on_c, 0, 66, 90
2, 138659, Note_on_c, 0, 66, 0
2, 138660, Note_on_c, 0, 62, 90
2, 138719, Note_on_c, 0, 62, 0
2, 138720, Note_on_c, 0, 67, 90
2, 138899, Note_on_c, 0, 67, 0
2, 138900, Note_on_c, 0, 69, 90
2, 138959, Note_on_c, 0, 69, 0
2, 138960, Note_on_c, 0, 66, 90
2, 138980, Note_on_c, 0, 66, 0
2, 138980, Note_on_c, 0, 67, 90
2, 139000, Note_on_c, 0, 67, 0
2, 139000, Note_on_c, 0, 66, 90
2, 139140, Note_on_c, 0, 66, 0
2, 139140, Note_on_c, 0, 67, 90
2, 139199, Note_on_c, 0, 67, 0
2, 139200, Note_on_c, 0, 67, 90
2, 139559, Note_on_c, 0, 67, 0
2, 139559, End_track
3, 0, Start_track
3, 0, MIDI_port, 0
3, 0, Title_t, "Clave H"
3, 0, Program_c, 1, 6
3, 0, Note_on_c, 1, 74, 100
3, 1140, Note_on_c, 1, 74, 0
3, 1140, Note_on_c, 1, 72, 90
3, 1319, Note_on_c, 1, 72, 0
3, 1320, Note_on_c, 1, 71, 90
3, 1499, Note_on_c, 1, 71, 0
3, 1500, Note_on_c, 1, 69, 90
3, 1679, Note_on_c, 1, 69, 0
3, 1680, Note_on_c, 1, 74, 90
3, 1739, Note_on_c, 1, 74, 0
3, 1740, Note_on_c, 1, 66, 90
3, 1799, Note_on_c, 1, 66, 0
3, 1800, Note_on_c, 1, 67, 90
3, 2010, Note_on_c, 1, 67, 0
3, 2010, Note_on_c, 1, 71, 90
3, 2039, Note_on_c, 1, 71, 0
3, 2040, Note_on_c, 1, 69, 90
3, 2069, Note_on_c, 1, 69, 0
3, 2070, Note_on_c, 1, 73, 90
3, 2099, Note_on_c, 1, 73, 0
3, 2100, Note_on_c, 1, 74, 90
3, 2129, Note_on_c, 1, 74, 0
3, 2130, Note_on_c, 1, 69, 90
3, 2159, Note_on_c, 1, 69, 0
3, 2160, Note_on_c, 1, 66, 90
3, 2189, Note_on_c, 1, 66, 0
3, 2190, Note_on_c, 1, 71, 90
3, 2219, Note_on_c, 1, 71, 0
3, 2220, Note_on_c, 1, 69, 90
3, 2249, Note_on_c, 1, 69, 0
3, 2250, Note_on_c, 1, 67, 90
3, 2279, Note_on_c, 1, 67, 0
3, 2280, Note_on_c, 1, 66, 90
3, 2309, Note_on_c, 1, 66, 0
3, 2310, Note_on_c, 1, 64, 90
3, 2339, Note_on_c, 1, 64, 0
3, 2340, Note_on_c, 1, 66, 90
3, 2369, Note_on_c, 1, 66, 0
3, 2400, Note_on_c, 1, 62, 90
3, 2429, Note_on_c, 1, 62, 0
3, 2460, Note_on_c, 1, 64, 90
3, 2489, Note_on_c, 1, 64, 0
3, 2490, Note_on_c, 1, 66, 90
3, 2504, Note_on_c, 1, 66, 0
3, 2505, Note_on_c, 1, 67, 90
3, 2519, Note_on_c, 1, 67, 0
3, 2520, Note_on_c, 1, 66, 90
3, 2579, Note_on_c, 1, 66, 0
3, 2580, Note_on_c, 1, 69, 90
3, 2609, Note_on_c, 1, 69, 0
3, 2610, Note_on_c, 1, 67, 90
3, 2639, Note_on_c, 1, 67, 0
3, 2640, Note_on_c, 1, 66, 90
3, 2669, Note_on_c, 1, 66, 0
3, 2670, Note_on_c, 1, 64, 90
3, 2699, Note_on_c, 1, 64, 0
3, 2700, Note_on_c, 1, 66, 90
3, 2729, Note_on_c, 1, 66, 0
3, 2730, Note_on_c, 1, 62, 90
3, 2759, Note_on_c, 1, 62, 0
3, 2760, Note_on_c, 1, 69, 90
3, 2789, Note_on_c, 1, 69, 0
3, 2820, Note_on_c, 1, 71, 90
3, 2849, Note_on_c, 1, 71, 0
3, 2850, Note_on_c, 1, 73, 90
3, 2864, Note_on_c, 1, 73, 0
3, 2865, Note_on_c, 1, 74, 90
3, 2879, Note_on_c, 1, 74, 0
3, 2880, Note_on_c, 1, 73, 90
3, 2939, Note_on_c, 1, 73, 0
3, 2940, Note_on_c, 1, 74, 90
3, 2969, Note_on_c, 1, 74, 0
3, 2970, Note_on_c, 1, 73, 90
3, 2999, Note_on_c, 1, 73, 0
3, 3000, Note_on_c, 1, 71, 90
3, 3029, Note_on_c, 1, 71, 0
3, 3030, Note_on_c, 1, 69, 90
3, 3059, Note_on_c, 1, 69, 0
3, 3060, Note_on_c, 1, 74, 90
3, 3089, Note_on_c, 1, 74, 0
3, 3120, Note_on_c, 1, 69, 90
3, 3149, Note_on_c, 1, 69, 0
3, 3180, Note_on_c, 1, 69, 90
3, 3209, Note_on_c, 1, 69, 0
3, 3210, Note_on_c, 1, 71, 90
3, 3224, Note_on_c, 1, 71, 0
3, 3225, Note_on_c, 1, 72, 90
3, 3239, Note_on_c, 1, 72, 0
3, 3240, Note_on_c, 1, 71, 90
3, 3300, Note_on_c, 1, 71, 0
3, 3300, Note_on_c, 1, 72, 90
3, 3330, Note_on_c, 1, 72, 0
3, 3330, Note_on_c, 1, 71, 90
3, 3360, Note_on_c, 1, 71, 0
3, 3360, Note_on_c, 1, 69, 90
3, 3390, Note_on_c, 1, 69, 0
3, 3390, Note_on_c, 1, 67, 90
3, 3420, Note_on_c, 1, 67, 0
3, 3420, Note_on_c, 1, 69, 90
3, 3450, Note_on_c, 1, 69, 0
3, 3480, Note_on_c, 1, 74, 90
3, 3510, Note_on_c, 1, 74, 0
3, 3540, Note_on_c, 1, 66, 90
3, 3569, Note_on_c, 1, 66, 0
3, 3570, Note_on_c, 1, 67, 90
3, 3584, Note_on_c, 1, 67, 0
3, 3585, Note_on_c, 1, 69, 90
3, 3599, Note_on_c, 1, 69, 0
3, 3600, Note_on_c, 1, 67, 90
3, 3659, Note_on_c, 1, 67, 0
3, 3660, Note_on_c, 1, 69, 90
3, 3689, Note_on_c, 1, 69, 0
3, 3690, Note_on_c, 1, 67, 90
3, 3719, Note_on_c, 1, 67, 0
3, 3720, Note_on_c, 1, 66, 90
3, 3749, Note_on_c, 1, 66, 0
3, 3750, Note_on_c, 1, 64, 90
3, 3779, Note_on_c, 1, 64, 0
3, 3780, Note_on_c, 1, 66, 90
3, 3809, Note_on_c, 1, 66, 0
3, 3810, Note_on_c, 1, 64, 90
3, 3839, Note_on_c, 1, 64, 0
3, 3840, Note_on_c, 1, 62, 90
3, 3869, Note_on_c, 1, 62, 0
3, 3870, Note_on_c, 1, 64, 90
3, 3899, Note_on_c, 1, 64, 0
3, 3900, Note_on_c, 1, 66, 90
3, 3929, Note_on_c, 1, 66, 0
3, 3930, Note_on_c, 1, 67, 90
3, 3959, Note_on_c, 1, 67, 0
3, 3960, Note_on_c, 1, 69, 90
3, 3989, Note_on_c, 1, 69, 0
3, 3990, Note_on_c, 1, 67, 90
3, 4019, Note_on_c, 1, 67, 0
3, 4020, Note_on_c, 1, 71, 90
3, 4049, Note_on_c, 1, 71, 0
3, 4050, Note_on_c, 1, 69, 90
3, 4079, Note_on_c, 1, 69, 0
3, 4080, Note_on_c, 1, 67, 90
3, 4109, Note_on_c, 1, 67, 0
3, 4110, Note_on_c, 1, 66, 90
3, 4139, Note_on_c, 1, 66, 0
3, 4140, Note_on_c, 1, 64, 90
3, 4199, Note_on_c, 1, 64, 0
3, 4260, Note_on_c, 1, 76, 90
3, 4349, Note_on_c, 1, 76, 0
3, 4350, Note_on_c, 1, 74, 90
3, 4379, Note_on_c, 1, 74, 0
3, 4380, Note_on_c, 1, 78, 90
3, 4409, Note_on_c, 1, 78, 0
3, 4410, Note_on_c, 1, 76, 90
3, 4439, Note_on_c, 1, 76, 0
3, 4440, Note_on_c, 1, 74, 90
3, 4469, Note_on_c, 1, 74, 0
3, 4470, Note_on_c, 1, 73, 90
3, 4499, Note_on_c, 1, 73, 0
3, 4500, Note_on_c, 1, 74, 90
3, 4559, Note_on_c, 1, 74, 0
3, 4560, Note_on_c, 1, 78, 90
3, 4575, Note_on_c, 1, 78, 0
3, 4575, Note_on_c, 1, 76, 90
3, 4590, Note_on_c, 1, 76, 0
3, 4590, Note_on_c, 1, 74, 90
3, 4605, Note_on_c, 1, 74, 0
3, 4605, Note_on_c, 1, 76, 90
3, 4620, Note_on_c, 1, 76, 0
3, 4620, Note_on_c, 1, 78, 90
3, 4709, Note_on_c, 1, 78, 0
3, 4710, Note_on_c, 1, 76, 90
3, 4739, Note_on_c, 1, 76, 0
3, 4740, Note_on_c, 1, 74, 90
3, 4769, Note_on_c, 1, 74, 0
3, 4770, Note_on_c, 1, 73, 90
3, 4799, Note_on_c, 1, 73, 0
3, 4800, Note_on_c, 1, 74, 90
3, 4829, Note_on_c, 1, 74, 0
3, 4830, Note_on_c, 1, 71, 90
3, 4859, Note_on_c, 1, 71, 0
3, 4860, Note_on_c, 1, 73, 90
3, 4870, Note_on_c, 1, 73, 0
3, 4870, Note_on_c, 1, 74, 90
3, 4880, Note_on_c, 1, 74, 0
3, 4880, Note_on_c, 1, 73, 90
3, 4890, Note_on_c, 1, 73, 0
3, 4890, Note_on_c, 1, 74, 90
3, 4900, Note_on_c, 1, 74, 0
3, 4900, Note_on_c, 1, 73, 90
3, 4910, Note_on_c, 1, 73, 0
3, 4910, Note_on_c, 1, 74, 90
3, 4920, Note_on_c, 1, 74, 0
3, 4920, Note_on_c, 1, 73, 90
3, 4930, Note_on_c, 1, 73, 0
3, 4930, Note_on_c, 1, 74, 90
3, 4940, Note_on_c, 1, 74, 0
3, 4940, Note_on_c, 1, 73, 90
3, 4950, Note_on_c, 1, 73, 0
3, 4950, Note_on_c, 1, 74, 90
3, 4957, Note_on_c, 1, 73, 90
3, 4958, Note_on_c, 1, 74, 0
3, 4965, Note_on_c, 1, 73, 0
3, 4965, Note_on_c, 1, 74, 90
3, 4972, Note_on_c, 1, 73, 90
3, 4973, Note_on_c, 1, 74, 0
3, 4980, Note_on_c, 1, 73, 0
3, 4980, Note_on_c, 1, 74, 90
3, 4987, Note_on_c, 1, 73, 90
3, 4988, Note_on_c, 1, 74, 0
3, 4995, Note_on_c, 1, 73, 0
3, 4995, Note_on_c, 1, 74, 90
3, 5002, Note_on_c, 1, 73, 90
3, 5003, Note_on_c, 1, 74, 0
3, 5010, Note_on_c, 1, 73, 0
3, 5010, Note_on_c, 1, 74, 90
3, 5017, Note_on_c, 1, 73, 90
3, 5018, Note_on_c, 1, 74, 0
3, 5025, Note_on_c, 1, 73, 0
3, 5025, Note_on_c, 1, 74, 90
3, 5032, Note_on_c, 1, 73, 90
3, 5033, Note_on_c, 1, 74, 0
3, 5040, Note_on_c, 1, 73, 0
3, 5040, Note_on_c, 1, 74, 90
3, 5047, Note_on_c, 1, 73, 90
3, 5048, Note_on_c, 1, 74, 0
3, 5070, Note_on_c, 1, 73, 0
3, 5070, Note_on_c, 1, 71, 90
3, 5099, Note_on_c, 1, 71, 0
3, 5100, Note_on_c, 1, 74, 90
3, 5129, Note_on_c, 1, 74, 0
3, 5130, Note_on_c, 1, 73, 90
3, 5159, Note_on_c, 1, 73, 0
3, 5160, Note_on_c, 1, 76, 90
3, 5189, Note_on_c, 1, 76, 0
3, 5190, Note_on_c, 1, 75, 90
3, 5219, Note_on_c, 1, 75, 0
3, 5220, Note_on_c, 1, 77, 90
3, 5230, Note_on_c, 1, 77, 0
3, 5230, Note_on_c, 1, 78, 90
3, 5240, Note_on_c, 1, 78, 0
3, 5240, Note_on_c, 1, 77, 90
3, 5250, Note_on_c, 1, 77, 0
3, 5250, Note_on_c, 1, 78, 90
3, 5260, Note_on_c, 1, 78, 0
3, 5260, Note_on_c, 1, 77, 90
3, 5270, Note_on_c, 1, 77, 0
3, 5270, Note_on_c, 1, 78, 90
3, 5280, Note_on_c, 1, 78, 0
3, 5280, Note_on_c, 1, 77, 90
3, 5290, Note_on_c, 1, 77, 0
3, 5290, Note_on_c, 1, 78, 90
3, 5300, Note_on_c, 1, 78, 0
3, 5300, Note_on_c, 1, 77, 90
3, 5310, Note_on_c, 1, 77, 0
3, 5310, Note_on_c, 1, 78, 90
3, 5317, Note_on_c, 1, 77, 90
3, 5318, Note_on_c, 1, 78, 0
3, 5325, Note_on_c, 1, 77, 0
3, 5325, Note_on_c, 1, 75, 90
3, 5332, Note_on_c, 1, 77, 90
3, 5333, Note_on_c, 1, 75, 0
3, 5340, Note_on_c, 1, 77, 0
3, 5340, Note_on_c, 1, 76, 90
3, 5429, Note_on_c, 1, 76, 0
3, 5430, Note_on_c, 1, 79, 90
3, 5459, Note_on_c, 1, 79, 0
3, 5460, Note_on_c, 1, 78, 90
3, 5489, Note_on_c, 1, 78, 0
3, 5490, Note_on_c, 1, 74, 90
3, 5519, Note_on_c, 1, 74, 0
3, 5520, Note_on_c, 1, 76, 90
3, 5549, Note_on_c, 1, 76, 0
3, 5550, Note_on_c, 1, 73, 90
3, 5579, Note_on_c, 1, 73, 0
3, 5580, Note_on_c, 1, 74, 90
3, 5730, Note_on_c, 1, 74, 0
3, 5730, Note_on_c, 1, 73, 90
3, 5744, Note_on_c, 1, 73, 0
3, 5745, Note_on_c, 1, 74, 90
3, 5759, Note_on_c, 1, 74, 0
3, 5760, Note_on_c, 1, 73, 90
3, 5789, Note_on_c, 1, 73, 0
3, 5790, Note_on_c, 1, 71, 90
3, 5819, Note_on_c, 1, 71, 0
3, 5820, Note_on_c, 1, 71, 90
3, 5849, Note_on_c, 1, 71, 0
3, 5850, Note_on_c, 1, 70, 90
3, 5879, Note_on_c, 1, 70, 0
3, 5880, Note_on_c, 1, 70, 90
3, 5909, Note_on_c, 1, 70, 0
3, 5910, Note_on_c, 1, 71, 90
3, 5939, Note_on_c, 1, 71, 0
3, 5940, Note_on_c, 1, 71, 90
3, 5969, Note_on_c, 1, 71, 0
3, 5970, Note_on_c, 1, 73, 90
3, 5999, Note_on_c, 1, 73, 0
3, 6000, Note_on_c, 1, 70, 90
3, 6010, Note_on_c, 1, 70, 0
3, 6010, Note_on_c, 1, 71, 90
3, 6020, Note_on_c, 1, 71, 0
3, 6020, Note_on_c, 1, 70, 90
3, 6030, Note_on_c, 1, 70, 0
3, 6030, Note_on_c, 1, 71, 90
3, 6037, Note_on_c, 1, 70, 90
3, 6038, Note_on_c, 1, 71, 0
3, 6045, Note_on_c, 1, 70, 0
3, 6045, Note_on_c, 1, 71, 90
3, 6052, Note_on_c, 1, 70, 90
3, 6053, Note_on_c, 1, 71, 0
3, 6060, Note_on_c, 1, 70, 0
3, 6060, Note_on_c, 1, 71, 90
3, 6067, Note_on_c, 1, 70, 90
3, 6068, Note_on_c, 1, 71, 0
3, 6075, Note_on_c, 1, 70, 0
3, 6075, Note_on_c, 1, 71, 90
3, 6082, Note_on_c, 1, 70, 90
3, 6083, Note_on_c, 1, 71, 0
3, 6090, Note_on_c, 1, 70, 0
3, 6090, Note_on_c, 1, 71, 90
3, 6119, Note_on_c, 1, 71, 0
3, 6120, Note_on_c, 1, 71, 90
3, 6239, Note_on_c, 1, 71, 0
3, 6300, Note_on_c, 1, 78, 90
3, 6329, Note_on_c, 1, 78, 0
3, 6330, Note_on_c, 1, 76, 90
3, 6359, Note_on_c, 1, 76, 0
3, 6360, Note_on_c, 1, 74, 90
3, 6389, Note_on_c, 1, 74, 0
3, 6390, Note_on_c, 1, 73, 90
3, 6419, Note_on_c, 1, 73, 0
3, 6420, Note_on_c, 1, 71, 90
3, 6449, Note_on_c, 1, 71, 0
3, 6600, Note_on_c, 1, 71, 90
3, 6629, Note_on_c, 1, 71, 0
3, 6630, Note_on_c, 1, 69, 90
3, 6659, Note_on_c, 1, 69, 0
3, 6660, Note_on_c, 1, 67, 90
3, 6689, Note_on_c, 1, 67, 0
3, 6690, Note_on_c, 1, 66, 90
3, 6719, Note_on_c, 1, 66, 0
3, 6720, Note_on_c, 1, 64, 90
3, 6749, Note_on_c, 1, 64, 0
3, 7020, Note_on_c, 1, 76, 90
3, 7049, Note_on_c, 1, 76, 0
3, 7050, Note_on_c, 1, 74, 90
3, 7079, Note_on_c, 1, 74, 0
3, 7080, Note_on_c, 1, 73, 90
3, 7109, Note_on_c, 1, 73, 0
3, 7110, Note_on_c, 1, 71, 90
3, 7139, Note_on_c, 1, 71, 0
3, 7140, Note_on_c, 1, 69, 90
3, 7169, Note_on_c, 1, 69, 0
3, 7320, Note_on_c, 1, 69, 90
3, 7349, Note_on_c, 1, 69, 0
3, 7350, Note_on_c, 1, 67, 90
3, 7379, Note_on_c, 1, 67, 0
3, 7380, Note_on_c, 1, 66, 90
3, 7409, Note_on_c, 1, 66, 0
3, 7410, Note_on_c, 1, 64, 90
3, 7439, Note_on_c, 1, 64, 0
3, 7440, Note_on_c, 1, 62, 90
3, 7469, Note_on_c, 1, 62, 0
3, 7560, Note_on_c, 1, 74, 90
3, 7589, Note_on_c, 1, 74, 0
3, 7590, Note_on_c, 1, 72, 90
3, 7619, Note_on_c, 1, 72, 0
3, 7620, Note_on_c, 1, 71, 90
3, 7649, Note_on_c, 1, 71, 0
3, 7650, Note_on_c, 1, 69, 90
3, 7679, Note_on_c, 1, 69, 0
3, 7680, Note_on_c, 1, 67, 90
3, 7709, Note_on_c, 1, 67, 0
3, 7710, Note_on_c, 1, 66, 90
3, 7739, Note_on_c, 1, 66, 0
3, 7740, Note_on_c, 1, 67, 90
3, 7829, Note_on_c, 1, 67, 0
3, 7830, Note_on_c, 1, 76, 90
3, 7859, Note_on_c, 1, 76, 0
3, 7860, Note_on_c, 1, 74, 90
3, 7889, Note_on_c, 1, 74, 0
3, 7890, Note_on_c, 1, 73, 90
3, 7919, Note_on_c, 1, 73, 0
3, 7920, Note_on_c, 1, 71, 90
3, 7949, Note_on_c, 1, 71, 0
3, 7950, Note_on_c, 1, 69, 90
3, 7979, Note_on_c, 1, 69, 0
3, 7980, Note_on_c, 1, 79, 90
3, 8009, Note_on_c, 1, 79, 0
3, 8010, Note_on_c, 1, 78, 90
3, 8039, Note_on_c, 1, 78, 0
3, 8040, Note_on_c, 1, 76, 90
3, 8069, Note_on_c, 1, 76, 0
3, 8070, Note_on_c, 1, 74, 90
3, 8099, Note_on_c, 1, 74, 0
3, 8100, Note_on_c, 1, 73, 90
3, 8129, Note_on_c, 1, 73, 0
3, 8130, Note_on_c, 1, 74, 90
3, 8159, Note_on_c, 1, 74, 0
3, 8160, Note_on_c, 1, 74, 90
3, 8189, Note_on_c, 1, 74, 0
3, 8190, Note_on_c, 1, 76, 90
3, 8219, Note_on_c, 1, 76, 0
3, 8220, Note_on_c, 1, 76, 90
3, 8309, Note_on_c, 1, 76, 0
3, 8310, Note_on_c, 1, 73, 90
3, 8339, Note_on_c, 1, 73, 0
3, 8340, Note_on_c, 1, 74, 90
3, 8490, Note_on_c, 1, 74, 0
3, 8490, Note_on_c, 1, 71, 90
3, 8519, Note_on_c, 1, 71, 0
3, 8520, Note_on_c, 1, 76, 90
3, 8579, Note_on_c, 1, 76, 0
3, 8580, Note_on_c, 1, 73, 90
3, 8590, Note_on_c, 1, 73, 0
3, 8590, Note_on_c, 1, 74, 90
3, 8600, Note_on_c, 1, 74, 0
3, 8600, Note_on_c, 1, 73, 90
3, 8640, Note_on_c, 1, 73, 0
3, 8640, Note_on_c, 1, 74, 90
3, 8669, Note_on_c, 1, 74, 0
3, 8670, Note_on_c, 1, 66, 90
3, 8699, Note_on_c, 1, 66, 0
3, 8700, Note_on_c, 1, 69, 90
3, 8729, Note_on_c, 1, 69, 0
3, 8730, Note_on_c, 1, 67, 90
3, 8759, Note_on_c, 1, 67, 0
3, 8760, Note_on_c, 1, 66, 90
3, 8789, Note_on_c, 1, 66, 0
3, 8790, Note_on_c, 1, 64, 90
3, 8819, Note_on_c, 1, 64, 0
3, 8820, Note_on_c, 1, 66, 90
3, 8849, Note_on_c, 1, 66, 0
3, 8850, Note_on_c, 1, 62, 90
3, 8879, Note_on_c, 1, 62, 0
3, 8880, Note_on_c, 1, 61, 90
3, 8909, Note_on_c, 1, 61, 0
3, 8910, Note_on_c, 1, 62, 90
3, 8939, Note_on_c, 1, 62, 0
3, 8940, Note_on_c, 1, 69, 90
3, 8969, Note_on_c, 1, 69, 0
3, 8970, Note_on_c, 1, 71, 90
3, 8984, Note_on_c, 1, 71, 0
3, 8985, Note_on_c, 1, 72, 90
3, 8999, Note_on_c, 1, 72, 0
3, 9000, Note_on_c, 1, 72, 90
3, 9029, Note_on_c, 1, 72, 0
3, 9030, Note_on_c, 1, 71, 90
3, 9059, Note_on_c, 1, 71, 0
3, 9060, Note_on_c, 1, 74, 90
3, 9089, Note_on_c, 1, 74, 0
3, 9090, Note_on_c, 1, 72, 90
3, 9119, Note_on_c, 1, 72, 0
3, 9120, Note_on_c, 1, 71, 90
3, 9149, Note_on_c, 1, 71, 0
3, 9150, Note_on_c, 1, 69, 90
3, 9179, Note_on_c, 1, 69, 0
3, 9180, Note_on_c, 1, 71, 90
3, 9209, Note_on_c, 1, 71, 0
3, 9210, Note_on_c, 1, 67, 90
3, 9239, Note_on_c, 1, 67, 0
3, 9240, Note_on_c, 1, 74, 90
3, 9299, Note_on_c, 1, 74, 0
3, 9300, Note_on_c, 1, 76, 90
3, 9329, Note_on_c, 1, 76, 0
3, 9330, Note_on_c, 1, 78, 90
3, 9344, Note_on_c, 1, 78, 0
3, 9345, Note_on_c, 1, 79, 90
3, 9359, Note_on_c, 1, 79, 0
3, 9360, Note_on_c, 1, 79, 90
3, 9389, Note_on_c, 1, 79, 0
3, 9390, Note_on_c, 1, 78, 90
3, 9419, Note_on_c, 1, 78, 0
3, 9420, Note_on_c, 1, 79, 90
3, 9449, Note_on_c, 1, 79, 0
3, 9450, Note_on_c, 1, 78, 90
3, 9479, Note_on_c, 1, 78, 0
3, 9480, Note_on_c, 1, 76, 90
3, 9509, Note_on_c, 1, 76, 0
3, 9510, Note_on_c, 1, 74, 90
3, 9539, Note_on_c, 1, 74, 0
3, 9540, Note_on_c, 1, 79, 90
3, 9569, Note_on_c, 1, 79, 0
3, 9600, Note_on_c, 1, 74, 90
3, 9629, Note_on_c, 1, 74, 0
3, 9660, Note_on_c, 1, 74, 90
3, 9689, Note_on_c, 1, 74, 0
3, 9690, Note_on_c, 1, 76, 90
3, 9704, Note_on_c, 1, 76, 0
3, 9705, Note_on_c, 1, 77, 90
3, 9719, Note_on_c, 1, 77, 0
3, 9720, Note_on_c, 1, 76, 90
3, 9779, Note_on_c, 1, 76, 0
3, 9780, Note_on_c, 1, 77, 90
3, 9809, Note_on_c, 1, 77, 0
3, 9810, Note_on_c, 1, 76, 90
3, 9839, Note_on_c, 1, 76, 0
3, 9840, Note_on_c, 1, 74, 90
3, 9869, Note_on_c, 1, 74, 0
3, 9870, Note_on_c, 1, 72, 90
3, 9899, Note_on_c, 1, 72, 0
3, 9900, Note_on_c, 1, 74, 90
3, 9929, Note_on_c, 1, 74, 0
3, 9960, Note_on_c, 1, 79, 90
3, 9989, Note_on_c, 1, 79, 0
3, 10020, Note_on_c, 1, 71, 90
3, 10049, Note_on_c, 1, 71, 0
3, 10050, Note_on_c, 1, 72, 90
3, 10064, Note_on_c, 1, 72, 0
3, 10065, Note_on_c, 1, 74, 90
3, 10079, Note_on_c, 1, 74, 0
3, 10080, Note_on_c, 1, 72, 90
3, 10139, Note_on_c, 1, 72, 0
3, 10140, Note_on_c, 1, 74, 90
3, 10169, Note_on_c, 1, 74, 0
3, 10170, Note_on_c, 1, 72, 90
3, 10199, Note_on_c, 1, 72, 0
3, 10200, Note_on_c, 1, 71, 90
3, 10229, Note_on_c, 1, 71, 0
3, 10230, Note_on_c, 1, 69, 90
3, 10259, Note_on_c, 1, 69, 0
3, 10260, Note_on_c, 1, 71, 90
3, 10289, Note_on_c, 1, 71, 0
3, 10290, Note_on_c, 1, 69, 90
3, 10319, Note_on_c, 1, 69, 0
3, 10320, Note_on_c, 1, 67, 90
3, 10349, Note_on_c, 1, 67, 0
3, 10350, Note_on_c, 1, 69, 90
3, 10379, Note_on_c, 1, 69, 0
3, 10380, Note_on_c, 1, 71, 90
3, 10409, Note_on_c, 1, 71, 0
3, 10410, Note_on_c, 1, 72, 90
3, 10439, Note_on_c, 1, 72, 0
3, 10440, Note_on_c, 1, 74, 90
3, 10469, Note_on_c, 1, 74, 0
3, 10470, Note_on_c, 1, 72, 90
3, 10499, Note_on_c, 1, 72, 0
3, 10500, Note_on_c, 1, 76, 90
3, 10529, Note_on_c, 1, 76, 0
3, 10530, Note_on_c, 1, 74, 90
3, 10559, Note_on_c, 1, 74, 0
3, 10560, Note_on_c, 1, 72, 90
3, 10589, Note_on_c, 1, 72, 0
3, 10590, Note_on_c, 1, 71, 90
3, 10619, Note_on_c, 1, 71, 0
3, 10620, Note_on_c, 1, 69, 90
3, 10649, Note_on_c, 1, 69, 0
3, 10650, Note_on_c, 1, 67, 90
3, 10679, Note_on_c, 1, 67, 0
3, 10680, Note_on_c, 1, 66, 90
3, 10709, Note_on_c, 1, 66, 0
3, 10710, Note_on_c, 1, 64, 90
3, 10739, Note_on_c, 1, 64, 0
3, 10740, Note_on_c, 1, 62, 90
3, 10799, Note_on_c, 1, 62, 0
3, 10800, Note_on_c, 1, 74, 90
3, 11940, Note_on_c, 1, 74, 0
3, 11940, Note_on_c, 1, 72, 90
3, 12119, Note_on_c, 1, 72, 0
3, 12120, Note_on_c, 1, 71, 90
3, 12299, Note_on_c, 1, 71, 0
3, 12300, Note_on_c, 1, 69, 90
3, 12479, Note_on_c, 1, 69, 0
3, 12480, Note_on_c, 1, 74, 90
3, 12539, Note_on_c, 1, 74, 0
3, 12540, Note_on_c, 1, 66, 90
3, 12599, Note_on_c, 1, 66, 0
3, 12600, Note_on_c, 1, 67, 90
3, 12659, Note_on_c, 1, 67, 0
3, 12660, Note_on_c, 1, 79, 90
3, 12810, Note_on_c, 1, 79, 0
3, 12810, Note_on_c, 1, 78, 90
3, 12839, Note_on_c, 1, 78, 0
3, 12840, Note_on_c, 1, 81, 90
3, 12869, Note_on_c, 1, 81, 0
3, 12870, Note_on_c, 1, 79, 90
3, 12899, Note_on_c, 1, 79, 0
3, 12900, Note_on_c, 1, 78, 90
3, 12929, Note_on_c, 1, 78, 0
3, 12930, Note_on_c, 1, 76, 90
3, 12959, Note_on_c, 1, 76, 0
3, 12960, Note_on_c, 1, 75, 90
3, 13019, Note_on_c, 1, 75, 0
3, 13020, Note_on_c, 1, 78, 90
3, 13034, Note_on_c, 1, 78, 0
3, 13035, Note_on_c, 1, 76, 90
3, 13049, Note_on_c, 1, 76, 0
3, 13050, Note_on_c, 1, 75, 90
3, 13064, Note_on_c, 1, 75, 0
3, 13065, Note_on_c, 1, 76, 90
3, 13079, Note_on_c, 1, 76, 0
3, 13080, Note_on_c, 1, 78, 90
3, 13169, Note_on_c, 1, 78, 0
3, 13170, Note_on_c, 1, 76, 90
3, 13199, Note_on_c, 1, 76, 0
3, 13200, Note_on_c, 1, 74, 90
3, 13229, Note_on_c, 1, 74, 0
3, 13230, Note_on_c, 1, 72, 90
3, 13259, Note_on_c, 1, 72, 0
3, 13260, Note_on_c, 1, 74, 90
3, 13289, Note_on_c, 1, 74, 0
3, 13290, Note_on_c, 1, 71, 90
3, 13319, Note_on_c, 1, 71, 0
3, 13320, Note_on_c, 1, 73, 90
3, 13379, Note_on_c, 1, 73, 0
3, 13380, Note_on_c, 1, 76, 90
3, 13394, Note_on_c, 1, 76, 0
3, 13395, Note_on_c, 1, 75, 90
3, 13409, Note_on_c, 1, 75, 0
3, 13410, Note_on_c, 1, 73, 90
3, 13424, Note_on_c, 1, 73, 0
3, 13425, Note_on_c, 1, 75, 90
3, 13439, Note_on_c, 1, 75, 0
3, 13440, Note_on_c, 1, 76, 90
3, 13529, Note_on_c, 1, 76, 0
3, 13530, Note_on_c, 1, 75, 90
3, 13559, Note_on_c, 1, 75, 0
3, 13560, Note_on_c, 1, 78, 90
3, 13589, Note_on_c, 1, 78, 0
3, 13590, Note_on_c, 1, 76, 90
3, 13619, Note_on_c, 1, 76, 0
3, 13620, Note_on_c, 1, 79, 90
3, 13649, Note_on_c, 1, 79, 0
3, 13650, Note_on_c, 1, 78, 90
3, 13679, Note_on_c, 1, 78, 0
3, 13680, Note_on_c, 1, 81, 90
3, 13739, Note_on_c, 1, 81, 0
3, 13740, Note_on_c, 1, 79, 90
3, 13799, Note_on_c, 1, 79, 0
3, 13800, Note_on_c, 1, 78, 90
3, 13859, Note_on_c, 1, 78, 0
3, 13860, Note_on_c, 1, 76, 90
3, 13889, Note_on_c, 1, 76, 0
3, 13890, Note_on_c, 1, 79, 90
3, 13919, Note_on_c, 1, 79, 0
3, 13920, Note_on_c, 1, 78, 90
3, 13949, Note_on_c, 1, 78, 0
3, 13950, Note_on_c, 1, 75, 90
3, 13979, Note_on_c, 1, 75, 0
3, 13980, Note_on_c, 1, 76, 90
3, 14009, Note_on_c, 1, 76, 0
3, 14010, Note_on_c, 1, 79, 90
3, 14039, Note_on_c, 1, 79, 0
3, 14040, Note_on_c, 1, 84, 90
3, 14050, Note_on_c, 1, 84, 0
3, 14050, Note_on_c, 1, 86, 90
3, 14060, Note_on_c, 1, 86, 0
3, 14060, Note_on_c, 1, 84, 90
3, 14070, Note_on_c, 1, 84, 0
3, 14070, Note_on_c, 1, 86, 90
3, 14077, Note_on_c, 1, 84, 90
3, 14078, Note_on_c, 1, 86, 0
3, 14085, Note_on_c, 1, 84, 0
3, 14085, Note_on_c, 1, 86, 90
3, 14092, Note_on_c, 1, 84, 90
3, 14093, Note_on_c, 1, 86, 0
3, 14100, Note_on_c, 1, 84, 0
3, 14100, Note_on_c, 1, 86, 90
3, 14107, Note_on_c, 1, 84, 90
3, 14108, Note_on_c, 1, 86, 0
3, 14115, Note_on_c, 1, 84, 0
3, 14115, Note_on_c, 1, 86, 90
3, 14122, Note_on_c, 1, 84, 90
3, 14123, Note_on_c, 1, 86, 0
3, 14130, Note_on_c, 1, 84, 0
3, 14130, Note_on_c, 1, 86, 90
3, 14137, Note_on_c, 1, 84, 90
3, 14138, Note_on_c, 1, 86, 0
3, 14145, Note_on_c, 1, 84, 0
3, 14145, Note_on_c, 1, 86, 90
3, 14152, Note_on_c, 1, 84, 90
3, 14153, Note_on_c, 1, 86, 0
3, 14160, Note_on_c, 1, 84, 0
3, 14160, Note_on_c, 1, 86, 90
3, 14167, Note_on_c, 1, 84, 90
3, 14168, Note_on_c, 1, 86, 0
3, 14175, Note_on_c, 1, 84, 0
3, 14175, Note_on_c, 1, 86, 90
3, 14182, Note_on_c, 1, 84, 90
3, 14183, Note_on_c, 1, 86, 0
3, 14190, Note_on_c, 1, 84, 0
3, 14190, Note_on_c, 1, 86, 90
3, 14197, Note_on_c, 1, 84, 90
3, 14198, Note_on_c, 1, 86, 0
3, 14205, Note_on_c, 1, 84, 0
3, 14205, Note_on_c, 1, 86, 90
3, 14212, Note_on_c, 1, 84, 90
3, 14213, Note_on_c, 1, 86, 0
3, 14250, Note_on_c, 1, 84, 0
3, 14250, Note_on_c, 1, 83, 90
3, 14279, Note_on_c, 1, 83, 0
3, 14280, Note_on_c, 1, 83, 90
3, 14309, Note_on_c, 1, 83, 0
3, 14310, Note_on_c, 1, 82, 90
3, 14339, Note_on_c, 1, 82, 0
3, 14340, Note_on_c, 1, 82, 90
3, 14369, Note_on_c, 1, 82, 0
3, 14370, Note_on_c, 1, 83, 90
3, 14399, Note_on_c, 1, 83, 0
3, 14400, Note_on_c, 1, 83, 90
3, 14489, Note_on_c, 1, 83, 0
3, 14490, Note_on_c, 1, 81, 90
3, 14519, Note_on_c, 1, 81, 0
3, 14520, Note_on_c, 1, 81, 90
3, 14549, Note_on_c, 1, 81, 0
3, 14550, Note_on_c, 1, 79, 90
3, 14579, Note_on_c, 1, 79, 0
3, 14580, Note_on_c, 1, 84, 90
3, 14609, Note_on_c, 1, 84, 0
3, 14610, Note_on_c, 1, 83, 90
3, 14639, Note_on_c, 1, 83, 0
3, 14640, Note_on_c, 1, 81, 90
3, 14669, Note_on_c, 1, 81, 0
3, 14670, Note_on_c, 1, 79, 90
3, 14699, Note_on_c, 1, 79, 0
3, 14700, Note_on_c, 1, 78, 90
3, 14710, Note_on_c, 1, 78, 0
3, 14710, Note_on_c, 1, 79, 90
3, 14720, Note_on_c, 1, 79, 0
3, 14720, Note_on_c, 1, 78, 90
3, 14730, Note_on_c, 1, 78, 0
3, 14730, Note_on_c, 1, 76, 90
3, 14759, Note_on_c, 1, 76, 0
3, 14760, Note_on_c, 1, 76, 90
3, 14819, Note_on_c, 1, 76, 0
3, 14820, Note_on_c, 1, 71, 90
3, 14849, Note_on_c, 1, 71, 0
3, 14850, Note_on_c, 1, 69, 90
3, 14879, Note_on_c, 1, 69, 0
3, 14880, Note_on_c, 1, 67, 90
3, 14909, Note_on_c, 1, 67, 0
3, 14910, Note_on_c, 1, 66, 90
3, 14939, Note_on_c, 1, 66, 0
3, 14940, Note_on_c, 1, 64, 90
3, 14969, Note_on_c, 1, 64, 0
3, 15000, Note_on_c, 1, 71, 90
3, 15029, Note_on_c, 1, 71, 0
3, 15060, Note_on_c, 1, 71, 90
3, 15089, Note_on_c, 1, 71, 0
3, 15090, Note_on_c, 1, 73, 90
3, 15104, Note_on_c, 1, 73, 0
3, 15105, Note_on_c, 1, 74, 90
3, 15119, Note_on_c, 1, 74, 0
3, 15120, Note_on_c, 1, 72, 90
3, 15179, Note_on_c, 1, 72, 0
3, 15180, Note_on_c, 1, 71, 90
3, 15190, Note_on_c, 1, 71, 0
3, 15190, Note_on_c, 1, 72, 90
3, 15200, Note_on_c, 1, 72, 0
3, 15200, Note_on_c, 1, 71, 90
3, 15240, Note_on_c, 1, 71, 0
3, 15240, Note_on_c, 1, 69, 90
3, 15359, Note_on_c, 1, 69, 0
3, 15360, Note_on_c, 1, 72, 90
3, 15389, Note_on_c, 1, 72, 0
3, 15390, Note_on_c, 1, 71, 90
3, 15419, Note_on_c, 1, 71, 0
3, 15420, Note_on_c, 1, 69, 90
3, 15449, Note_on_c, 1, 69, 0
3, 15450, Note_on_c, 1, 67, 90
3, 15479, Note_on_c, 1, 67, 0
3, 15480, Note_on_c, 1, 66, 90
3, 15539, Note_on_c, 1, 66, 0
3, 15540, Note_on_c, 1, 69, 90
3, 15569, Note_on_c, 1, 69, 0
3, 15570, Note_on_c, 1, 67, 90
3, 15599, Note_on_c, 1, 67, 0
3, 15600, Note_on_c, 1, 66, 90
3, 15629, Note_on_c, 1, 66, 0
3, 15630, Note_on_c, 1, 64, 90
3, 15659, Note_on_c, 1, 64, 0
3, 15660, Note_on_c, 1, 62, 90
3, 15689, Note_on_c, 1, 62, 0
3, 15720, Note_on_c, 1, 69, 90
3, 15749, Note_on_c, 1, 69, 0
3, 15780, Note_on_c, 1, 69, 90
3, 15809, Note_on_c, 1, 69, 0
3, 15810, Note_on_c, 1, 71, 90
3, 15824, Note_on_c, 1, 71, 0
3, 15825, Note_on_c, 1, 72, 90
3, 15839, Note_on_c, 1, 72, 0
3, 15840, Note_on_c, 1, 71, 90
3, 15899, Note_on_c, 1, 71, 0
3, 15900, Note_on_c, 1, 69, 90
3, 15910, Note_on_c, 1, 69, 0
3, 15910, Note_on_c, 1, 71, 90
3, 15920, Note_on_c, 1, 71, 0
3, 15920, Note_on_c, 1, 69, 90
3, 15960, Note_on_c, 1, 69, 0
3, 15960, Note_on_c, 1, 67, 90
3, 16079, Note_on_c, 1, 67, 0
3, 16080, Note_on_c, 1, 83, 90
3, 16109, Note_on_c, 1, 83, 0
3, 16110, Note_on_c, 1, 81, 90
3, 16139, Note_on_c, 1, 81, 0
3, 16140, Note_on_c, 1, 79, 90
3, 16169, Note_on_c, 1, 79, 0
3, 16170, Note_on_c, 1, 77, 90
3, 16199, Note_on_c, 1, 77, 0
3, 16200, Note_on_c, 1, 76, 90
3, 16229, Note_on_c, 1, 76, 0
3, 16230, Note_on_c, 1, 74, 90
3, 16259, Note_on_c, 1, 74, 0
3, 16260, Note_on_c, 1, 72, 90
3, 16289, Note_on_c, 1, 72, 0
3, 16290, Note_on_c, 1, 71, 90
3, 16319, Note_on_c, 1, 71, 0
3, 16320, Note_on_c, 1, 72, 90
3, 16409, Note_on_c, 1, 72, 0
3, 16410, Note_on_c, 1, 81, 90
3, 16439, Note_on_c, 1, 81, 0
3, 16440, Note_on_c, 1, 79, 90
3, 16469, Note_on_c, 1, 79, 0
3, 16470, Note_on_c, 1, 78, 90
3, 16499, Note_on_c, 1, 78, 0
3, 16500, Note_on_c, 1, 76, 90
3, 16529, Note_on_c, 1, 76, 0
3, 16530, Note_on_c, 1, 74, 90
3, 16559, Note_on_c, 1, 74, 0
3, 16560, Note_on_c, 1, 72, 90
3, 16589, Note_on_c, 1, 72, 0
3, 16590, Note_on_c, 1, 71, 90
3, 16619, Note_on_c, 1, 71, 0
3, 16620, Note_on_c, 1, 69, 90
3, 16649, Note_on_c, 1, 69, 0
3, 16650, Note_on_c, 1, 67, 90
3, 16679, Note_on_c, 1, 67, 0
3, 16680, Note_on_c, 1, 76, 90
3, 16799, Note_on_c, 1, 76, 0
3, 16800, Note_on_c, 1, 74, 90
3, 16829, Note_on_c, 1, 74, 0
3, 16860, Note_on_c, 1, 72, 90
3, 16889, Note_on_c, 1, 72, 0
3, 16920, Note_on_c, 1, 71, 90
3, 16949, Note_on_c, 1, 71, 0
3, 16950, Note_on_c, 1, 72, 90
3, 16979, Note_on_c, 1, 72, 0
3, 16980, Note_on_c, 1, 74, 90
3, 17009, Note_on_c, 1, 74, 0
3, 17040, Note_on_c, 1, 69, 90
3, 17069, Note_on_c, 1, 69, 0
3, 17100, Note_on_c, 1, 71, 90
3, 17129, Note_on_c, 1, 71, 0
3, 17130, Note_on_c, 1, 69, 90
3, 17159, Note_on_c, 1, 69, 0
3, 17160, Note_on_c, 1, 72, 90
3, 17189, Note_on_c, 1, 72, 0
3, 17190, Note_on_c, 1, 71, 90
3, 17219, Note_on_c, 1, 71, 0
3, 17220, Note_on_c, 1, 69, 90
3, 17249, Note_on_c, 1, 69, 0
3, 17250, Note_on_c, 1, 71, 90
3, 17279, Note_on_c, 1, 71, 0
3, 17280, Note_on_c, 1, 67, 90
3, 18060, Note_on_c, 1, 67, 0
3, 18060, Note_on_c, 1, 70, 90
3, 18089, Note_on_c, 1, 70, 0
3, 18090, Note_on_c, 1, 69, 90
3, 18119, Note_on_c, 1, 69, 0
3, 18120, Note_on_c, 1, 67, 90
3, 18149, Note_on_c, 1, 67, 0
3, 18150, Note_on_c, 1, 66, 90
3, 18179, Note_on_c, 1, 66, 0
3, 18180, Note_on_c, 1, 67, 90
3, 18209, Note_on_c, 1, 67, 0
3, 18240, Note_on_c, 1, 64, 90
3, 18269, Note_on_c, 1, 64, 0
3, 18300, Note_on_c, 1, 66, 90
3, 18329, Note_on_c, 1, 66, 0
3, 18330, Note_on_c, 1, 67, 90
3, 18344, Note_on_c, 1, 67, 0
3, 18345, Note_on_c, 1, 69, 90
3, 18359, Note_on_c, 1, 69, 0
3, 18360, Note_on_c, 1, 67, 90
3, 18419, Note_on_c, 1, 67, 0
3, 18420, Note_on_c, 1, 70, 90
3, 18449, Note_on_c, 1, 70, 0
3, 18450, Note_on_c, 1, 69, 90
3, 18479, Note_on_c, 1, 69, 0
3, 18480, Note_on_c, 1, 67, 90
3, 18509, Note_on_c, 1, 67, 0
3, 18510, Note_on_c, 1, 66, 90
3, 18539, Note_on_c, 1, 66, 0
3, 18540, Note_on_c, 1, 67, 90
3, 18569, Note_on_c, 1, 67, 0
3, 18570, Note_on_c, 1, 71, 90
3, 18599, Note_on_c, 1, 71, 0
3, 18600, Note_on_c, 1, 72, 90
3, 18629, Note_on_c, 1, 72, 0
3, 18630, Note_on_c, 1, 75, 90
3, 18659, Note_on_c, 1, 75, 0
3, 18660, Note_on_c, 1, 68, 90
3, 18689, Note_on_c, 1, 68, 0
3, 18690, Note_on_c, 1, 67, 90
3, 18719, Note_on_c, 1, 67, 0
3, 18720, Note_on_c, 1, 67, 90
3, 18779, Note_on_c, 1, 67, 0
3, 18780, Note_on_c, 1, 66, 90
3, 18839, Note_on_c, 1, 66, 0
3, 19080, Note_on_c, 1, 78, 90
3, 19090, Note_on_c, 1, 78, 0
3, 19090, Note_on_c, 1, 79, 90
3, 19100, Note_on_c, 1, 79, 0
3, 19100, Note_on_c, 1, 81, 90
3, 19110, Note_on_c, 1, 81, 0
3, 19110, Note_on_c, 1, 79, 90
3, 19117, Note_on_c, 1, 81, 90
3, 19118, Note_on_c, 1, 79, 0
3, 19125, Note_on_c, 1, 81, 0
3, 19125, Note_on_c, 1, 79, 90
3, 19132, Note_on_c, 1, 81, 90
3, 19133, Note_on_c, 1, 79, 0
3, 19140, Note_on_c, 1, 81, 0
3, 19140, Note_on_c, 1, 79, 90
3, 19147, Note_on_c, 1, 81, 90
3, 19148, Note_on_c, 1, 79, 0
3, 19155, Note_on_c, 1, 81, 0
3, 19155, Note_on_c, 1, 79, 90
3, 19162, Note_on_c, 1, 81, 90
3, 19163, Note_on_c, 1, 79, 0
3, 19170, Note_on_c, 1, 81, 0
3, 19170, Note_on_c, 1, 79, 90
3, 19177, Note_on_c, 1, 81, 90
3, 19178, Note_on_c, 1, 79, 0
3, 19185, Note_on_c, 1, 81, 0
3, 19185, Note_on_c, 1, 79, 90
3, 19192, Note_on_c, 1, 81, 90
3, 19193, Note_on_c, 1, 79, 0
3, 19200, Note_on_c, 1, 81, 0
3, 19200, Note_on_c, 1, 79, 90
3, 19207, Note_on_c, 1, 81, 90
3, 19208, Note_on_c, 1, 79, 0
3, 19215, Note_on_c, 1, 81, 0
3, 19215, Note_on_c, 1, 79, 90
3, 19222, Note_on_c, 1, 81, 90
3, 19223, Note_on_c, 1, 79, 0
3, 19230, Note_on_c, 1, 81, 0
3, 19230, Note_on_c, 1, 79, 90
3, 19237, Note_on_c, 1, 81, 90
3, 19238, Note_on_c, 1, 79, 0
3, 19245, Note_on_c, 1, 81, 0
3, 19245, Note_on_c, 1, 79, 90
3, 19252, Note_on_c, 1, 81, 90
3, 19253, Note_on_c, 1, 79, 0
3, 19260, Note_on_c, 1, 81, 0
3, 19260, Note_on_c, 1, 79, 90
3, 19267, Note_on_c, 1, 81, 90
3, 19268, Note_on_c, 1, 79, 0
3, 19275, Note_on_c, 1, 81, 0
3, 19275, Note_on_c, 1, 79, 90
3, 19282, Note_on_c, 1, 81, 90
3, 19283, Note_on_c, 1, 79, 0
3, 19290, Note_on_c, 1, 81, 0
3, 19290, Note_on_c, 1, 79, 90
3, 19297, Note_on_c, 1, 81, 90
3, 19298, Note_on_c, 1, 79, 0
3, 19305, Note_on_c, 1, 81, 0
3, 19305, Note_on_c, 1, 79, 90
3, 19312, Note_on_c, 1, 81, 90
3, 19313, Note_on_c, 1, 79, 0
3, 19320, Note_on_c, 1, 81, 0
3, 19320, Note_on_c, 1, 79, 90
3, 19327, Note_on_c, 1, 81, 90
3, 19328, Note_on_c, 1, 79, 0
3, 19335, Note_on_c, 1, 81, 0
3, 19335, Note_on_c, 1, 79, 90
3, 19342, Note_on_c, 1, 81, 90
3, 19343, Note_on_c, 1, 79, 0
3, 19350, Note_on_c, 1, 81, 0
3, 19350, Note_on_c, 1, 79, 90
3, 19357, Note_on_c, 1, 81, 90
3, 19358, Note_on_c, 1, 79, 0
3, 19365, Note_on_c, 1, 81, 0
3, 19365, Note_on_c, 1, 79, 90
3, 19372, Note_on_c, 1, 81, 90
3, 19373, Note_on_c, 1, 79, 0
3, 19380, Note_on_c, 1, 81, 0
3, 19380, Note_on_c, 1, 79, 90
3, 19387, Note_on_c, 1, 81, 90
3, 19388, Note_on_c, 1, 79, 0
3, 19395, Note_on_c, 1, 81, 0
3, 19395, Note_on_c, 1, 79, 90
3, 19402, Note_on_c, 1, 81, 90
3, 19403, Note_on_c, 1, 79, 0
3, 19410, Note_on_c, 1, 81, 0
3, 19410, Note_on_c, 1, 79, 90
3, 19420, Note_on_c, 1, 79, 0
3, 19420, Note_on_c, 1, 78, 90
3, 19430, Note_on_c, 1, 78, 0
3, 19430, Note_on_c, 1, 79, 90
3, 19440, Note_on_c, 1, 79, 0
3, 19440, Note_on_c, 1, 78, 90
3, 20160, Note_on_c, 1, 78, 0
3, 21060, Note_on_c, 1, 62, 100
3, 21120, Note_on_c, 1, 62, 0
3, 21120, Note_on_c, 1, 67, 100
3, 21150, Note_on_c, 1, 67, 0
3, 21150, Note_on_c, 1, 69, 100
3, 21180, Note_on_c, 1, 69, 0
3, 21180, Note_on_c, 1, 71, 100
3, 21210, Note_on_c, 1, 71, 0
3, 21240, Note_on_c, 1, 71, 100
3, 21255, Note_on_c, 1, 71, 0
3, 21255, Note_on_c, 1, 72, 100
3, 21270, Note_on_c, 1, 72, 0
3, 21270, Note_on_c, 1, 71, 100
3, 21300, Note_on_c, 1, 71, 0
3, 21300, Note_on_c, 1, 69, 100
3, 21345, Note_on_c, 1, 69, 0
3, 21360, Note_on_c, 1, 69, 100
3, 21420, Note_on_c, 1, 69, 0
3, 21420, Note_on_c, 1, 66, 100
3, 21450, Note_on_c, 1, 66, 0
3, 21450, Note_on_c, 1, 67, 100
3, 21480, Note_on_c, 1, 67, 0
3, 21480, Note_on_c, 1, 69, 100
3, 21510, Note_on_c, 1, 69, 0
3, 21510, Note_on_c, 1, 71, 100
3, 21540, Note_on_c, 1, 71, 0
3, 21540, Note_on_c, 1, 72, 100
3, 21570, Note_on_c, 1, 72, 0
3, 21600, Note_on_c, 1, 72, 100
3, 21615, Note_on_c, 1, 72, 0
3, 21615, Note_on_c, 1, 74, 100
3, 21630, Note_on_c, 1, 74, 0
3, 21630, Note_on_c, 1, 72, 100
3, 21660, Note_on_c, 1, 72, 0
3, 21660, Note_on_c, 1, 71, 100
3, 21705, Note_on_c, 1, 71, 0
3, 21720, Note_on_c, 1, 71, 100
3, 21780, Note_on_c, 1, 71, 0
3, 21780, Note_on_c, 1, 74, 100
3, 21810, Note_on_c, 1, 74, 0
3, 21840, Note_on_c, 1, 72, 100
3, 21870, Note_on_c, 1, 72, 0
3, 21870, Note_on_c, 1, 71, 100
3, 21900, Note_on_c, 1, 71, 0
3, 21900, Note_on_c, 1, 69, 100
3, 21930, Note_on_c, 1, 69, 0
3, 21930, Note_on_c, 1, 67, 100
3, 21960, Note_on_c, 1, 67, 0
3, 21960, Note_on_c, 1, 76, 100
3, 22020, Note_on_c, 1, 76, 0
3, 22020, Note_on_c, 1, 79, 100
3, 22050, Note_on_c, 1, 79, 0
3, 22050, Note_on_c, 1, 78, 100
3, 22080, Note_on_c, 1, 78, 0
3, 22080, Note_on_c, 1, 76, 100
3, 22110, Note_on_c, 1, 76, 0
3, 22140, Note_on_c, 1, 74, 100
3, 22170, Note_on_c, 1, 74, 0
3, 22200, Note_on_c, 1, 72, 100
3, 22230, Note_on_c, 1, 72, 0
3, 22230, Note_on_c, 1, 71, 100
3, 22260, Note_on_c, 1, 71, 0
3, 22260, Note_on_c, 1, 69, 100
3, 22290, Note_on_c, 1, 69, 0
3, 22290, Note_on_c, 1, 67, 100
3, 22320, Note_on_c, 1, 67, 0
3, 22320, Note_on_c, 1, 69, 100
3, 22350, Note_on_c, 1, 69, 0
3, 22350, Note_on_c, 1, 67, 100
3, 22380, Note_on_c, 1, 67, 0
3, 22380, Note_on_c, 1, 66, 100
3, 22410, Note_on_c, 1, 66, 0
3, 22410, Note_on_c, 1, 64, 100
3, 22440, Note_on_c, 1, 64, 0
3, 22440, Note_on_c, 1, 62, 100
3, 22560, Note_on_c, 1, 62, 0
3, 22620, Note_on_c, 1, 74, 100
3, 22710, Note_on_c, 1, 74, 0
3, 22710, Note_on_c, 1, 71, 100
3, 22740, Note_on_c, 1, 71, 0
3, 22740, Note_on_c, 1, 73, 100
3, 22770, Note_on_c, 1, 73, 0
3, 22770, Note_on_c, 1, 74, 100
3, 22800, Note_on_c, 1, 74, 0
3, 22800, Note_on_c, 1, 76, 100
3, 22830, Note_on_c, 1, 76, 0
3, 22830, Note_on_c, 1, 78, 100
3, 22860, Note_on_c, 1, 78, 0
3, 22860, Note_on_c, 1, 79, 100
3, 22890, Note_on_c, 1, 79, 0
3, 22920, Note_on_c, 1, 69, 100
3, 22980, Note_on_c, 1, 69, 0
3, 22980, Note_on_c, 1, 74, 100
3, 22995, Note_on_c, 1, 74, 0
3, 22995, Note_on_c, 1, 73, 100
3, 23010, Note_on_c, 1, 73, 0
3, 23010, Note_on_c, 1, 71, 100
3, 23025, Note_on_c, 1, 71, 0
3, 23025, Note_on_c, 1, 73, 100
3, 23040, Note_on_c, 1, 73, 0
3, 23040, Note_on_c, 1, 74, 100
3, 23070, Note_on_c, 1, 74, 0
3, 23070, Note_on_c, 1, 69, 100
3, 23100, Note_on_c, 1, 69, 0
3, 23100, Note_on_c, 1, 71, 100
3, 23130, Note_on_c, 1, 71, 0
3, 23130, Note_on_c, 1, 73, 100
3, 23160, Note_on_c, 1, 73, 0
3, 23160, Note_on_c, 1, 74, 100
3, 23190, Note_on_c, 1, 74, 0
3, 23190, Note_on_c, 1, 76, 100
3, 23220, Note_on_c, 1, 76, 0
3, 23220, Note_on_c, 1, 78, 100
3, 23250, Note_on_c, 1, 78, 0
3, 23250, Note_on_c, 1, 79, 100
3, 23280, Note_on_c, 1, 79, 0
3, 23280, Note_on_c, 1, 81, 100
3, 23340, Note_on_c, 1, 81, 0
3, 23340, Note_on_c, 1, 78, 100
3, 23400, Note_on_c, 1, 78, 0
3, 23400, Note_on_c, 1, 74, 100
3, 23460, Note_on_c, 1, 74, 0
3, 23460, Note_on_c, 1, 71, 100
3, 23520, Note_on_c, 1, 71, 0
3, 23520, Note_on_c, 1, 76, 100
3, 23550, Note_on_c, 1, 76, 0
3, 23550, Note_on_c, 1, 78, 100
3, 23580, Note_on_c, 1, 78, 0
3, 23580, Note_on_c, 1, 79, 100
3, 23610, Note_on_c, 1, 79, 0
3, 23610, Note_on_c, 1, 81, 100
3, 23640, Note_on_c, 1, 81, 0
3, 23640, Note_on_c, 1, 83, 100
3, 23700, Note_on_c, 1, 83, 0
3, 23700, Note_on_c, 1, 71, 100
3, 23760, Note_on_c, 1, 71, 0
3, 23760, Note_on_c, 1, 73, 100
3, 23820, Note_on_c, 1, 73, 0
3, 23820, Note_on_c, 1, 69, 100
3, 23880, Note_on_c, 1, 69, 0
3, 23880, Note_on_c, 1, 74, 100
3, 23910, Note_on_c, 1, 74, 0
3, 23910, Note_on_c, 1, 76, 100
3, 23940, Note_on_c, 1, 76, 0
3, 23940, Note_on_c, 1, 78, 100
3, 23970, Note_on_c, 1, 78, 0
3, 23970, Note_on_c, 1, 79, 100
3, 24000, Note_on_c, 1, 79, 0
3, 24000, Note_on_c, 1, 81, 100
3, 24030, Note_on_c, 1, 81, 0
3, 24030, Note_on_c, 1, 72, 100
3, 24060, Note_on_c, 1, 72, 0
3, 24060, Note_on_c, 1, 71, 100
3, 24090, Note_on_c, 1, 71, 0
3, 24090, Note_on_c, 1, 69, 100
3, 24120, Note_on_c, 1, 69, 0
3, 24120, Note_on_c, 1, 71, 100
3, 24150, Note_on_c, 1, 71, 0
3, 24150, Note_on_c, 1, 74, 100
3, 24180, Note_on_c, 1, 74, 0
3, 24180, Note_on_c, 1, 72, 100
3, 24210, Note_on_c, 1, 72, 0
3, 24210, Note_on_c, 1, 74, 100
3, 24240, Note_on_c, 1, 74, 0
3, 24240, Note_on_c, 1, 71, 100
3, 24270, Note_on_c, 1, 71, 0
3, 24270, Note_on_c, 1, 74, 100
3, 24300, Note_on_c, 1, 74, 0
3, 24300, Note_on_c, 1, 69, 100
3, 24330, Note_on_c, 1, 69, 0
3, 24330, Note_on_c, 1, 74, 100
3, 24360, Note_on_c, 1, 74, 0
3, 24360, Note_on_c, 1, 67, 100
3, 24390, Note_on_c, 1, 67, 0
3, 24390, Note_on_c, 1, 74, 100
3, 24420, Note_on_c, 1, 74, 0
3, 24420, Note_on_c, 1, 66, 100
3, 24450, Note_on_c, 1, 66, 0
3, 24450, Note_on_c, 1, 74, 100
3, 24480, Note_on_c, 1, 74, 0
3, 24480, Note_on_c, 1, 67, 100
3, 24510, Note_on_c, 1, 67, 0
3, 24510, Note_on_c, 1, 71, 100
3, 24540, Note_on_c, 1, 71, 0
3, 24540, Note_on_c, 1, 69, 100
3, 24570, Note_on_c, 1, 69, 0
3, 24570, Note_on_c, 1, 71, 100
3, 24600, Note_on_c, 1, 71, 0
3, 24600, Note_on_c, 1, 67, 100
3, 24630, Note_on_c, 1, 67, 0
3, 24630, Note_on_c, 1, 71, 100
3, 24660, Note_on_c, 1, 71, 0
3, 24660, Note_on_c, 1, 66, 100
3, 24690, Note_on_c, 1, 66, 0
3, 24690, Note_on_c, 1, 71, 100
3, 24720, Note_on_c, 1, 71, 0
3, 24720, Note_on_c, 1, 64, 100
3, 24750, Note_on_c, 1, 64, 0
3, 24750, Note_on_c, 1, 71, 100
3, 24780, Note_on_c, 1, 71, 0
3, 24780, Note_on_c, 1, 62, 100
3, 24810, Note_on_c, 1, 62, 0
3, 24810, Note_on_c, 1, 71, 100
3, 24840, Note_on_c, 1, 71, 0
3, 24840, Note_on_c, 1, 61, 100
3, 24900, Note_on_c, 1, 61, 0
3, 24900, Note_on_c, 1, 57, 100
3, 24960, Note_on_c, 1, 57, 0
3, 24960, Note_on_c, 1, 69, 100
3, 25230, Note_on_c, 1, 69, 0
3, 25230, Note_on_c, 1, 69, 100
3, 25260, Note_on_c, 1, 69, 0
3, 25260, Note_on_c, 1, 71, 100
3, 25290, Note_on_c, 1, 71, 0
3, 25290, Note_on_c, 1, 73, 100
3, 25320, Note_on_c, 1, 73, 0
3, 25320, Note_on_c, 1, 74, 100
3, 25350, Note_on_c, 1, 74, 0
3, 25350, Note_on_c, 1, 73, 100
3, 25380, Note_on_c, 1, 73, 0
3, 25380, Note_on_c, 1, 74, 100
3, 25410, Note_on_c, 1, 74, 0
3, 25410, Note_on_c, 1, 76, 100
3, 25440, Note_on_c, 1, 76, 0
3, 25440, Note_on_c, 1, 73, 100
3, 25455, Note_on_c, 1, 73, 0
3, 25455, Note_on_c, 1, 74, 100
3, 25470, Note_on_c, 1, 74, 0
3, 25470, Note_on_c, 1, 73, 100
3, 25485, Note_on_c, 1, 73, 0
3, 25485, Note_on_c, 1, 74, 100
3, 25500, Note_on_c, 1, 74, 0
3, 25500, Note_on_c, 1, 73, 100
3, 25515, Note_on_c, 1, 73, 0
3, 25530, Note_on_c, 1, 74, 100
3, 25560, Note_on_c, 1, 74, 0
3, 25560, Note_on_c, 1, 74, 100
3, 25590, Note_on_c, 1, 74, 0
3, 25590, Note_on_c, 1, 62, 100
3, 25620, Note_on_c, 1, 62, 0
3, 25620, Note_on_c, 1, 64, 100
3, 25650, Note_on_c, 1, 64, 0
3, 25650, Note_on_c, 1, 66, 100
3, 25680, Note_on_c, 1, 66, 0
3, 25680, Note_on_c, 1, 67, 100
3, 25710, Note_on_c, 1, 67, 0
3, 25710, Note_on_c, 1, 69, 100
3, 25740, Note_on_c, 1, 69, 0
3, 25740, Note_on_c, 1, 71, 100
3, 25770, Note_on_c, 1, 71, 0
3, 25770, Note_on_c, 1, 73, 100
3, 25800, Note_on_c, 1, 73, 0
3, 25800, Note_on_c, 1, 74, 100
3, 25830, Note_on_c, 1, 74, 0
3, 25830, Note_on_c, 1, 76, 100
3, 25860, Note_on_c, 1, 76, 0
3, 25860, Note_on_c, 1, 78, 100
3, 25890, Note_on_c, 1, 78, 0
3, 25920, Note_on_c, 1, 78, 100
3, 25935, Note_on_c, 1, 78, 0
3, 25935, Note_on_c, 1, 79, 100
3, 25950, Note_on_c, 1, 79, 0
3, 25950, Note_on_c, 1, 78, 100
3, 25980, Note_on_c, 1, 78, 0
3, 25980, Note_on_c, 1, 76, 100
3, 26025, Note_on_c, 1, 76, 0
3, 26040, Note_on_c, 1, 76, 100
3, 26100, Note_on_c, 1, 76, 0
3, 26100, Note_on_c, 1, 73, 100
3, 26130, Note_on_c, 1, 73, 0
3, 26130, Note_on_c, 1, 74, 100
3, 26160, Note_on_c, 1, 74, 0
3, 26160, Note_on_c, 1, 76, 100
3, 26190, Note_on_c, 1, 76, 0
3, 26190, Note_on_c, 1, 78, 100
3, 26220, Note_on_c, 1, 78, 0
3, 26220, Note_on_c, 1, 79, 100
3, 26250, Note_on_c, 1, 79, 0
3, 26280, Note_on_c, 1, 79, 100
3, 26295, Note_on_c, 1, 79, 0
3, 26295, Note_on_c, 1, 81, 100
3, 26310, Note_on_c, 1, 81, 0
3, 26310, Note_on_c, 1, 79, 100
3, 26340, Note_on_c, 1, 79, 0
3, 26340, Note_on_c, 1, 78, 100
3, 26385, Note_on_c, 1, 78, 0
3, 26400, Note_on_c, 1, 78, 100
3, 26460, Note_on_c, 1, 78, 0
3, 26460, Note_on_c, 1, 81, 100
3, 26520, Note_on_c, 1, 81, 0
3, 26520, Note_on_c, 1, 79, 100
3, 26550, Note_on_c, 1, 79, 0
3, 26550, Note_on_c, 1, 78, 100
3, 26580, Note_on_c, 1, 78, 0
3, 26580, Note_on_c, 1, 76, 100
3, 26610, Note_on_c, 1, 76, 0
3, 26610, Note_on_c, 1, 74, 100
3, 26640, Note_on_c, 1, 74, 0
3, 26640, Note_on_c, 1, 72, 100
3, 26700, Note_on_c, 1, 72, 0
3, 26700, Note_on_c, 1, 76, 100
3, 26730, Note_on_c, 1, 76, 0
3, 26730, Note_on_c, 1, 74, 100
3, 26760, Note_on_c, 1, 74, 0
3, 26760, Note_on_c, 1, 72, 100
3, 26820, Note_on_c, 1, 72, 0
3, 26820, Note_on_c, 1, 81, 100
3, 26850, Note_on_c, 1, 81, 0
3, 26850, Note_on_c, 1, 79, 100
3, 26880, Note_on_c, 1, 79, 0
3, 26880, Note_on_c, 1, 78, 100
3, 26910, Note_on_c, 1, 78, 0
3, 26910, Note_on_c, 1, 76, 100
3, 26940, Note_on_c, 1, 76, 0
3, 26940, Note_on_c, 1, 74, 100
3, 26970, Note_on_c, 1, 74, 0
3, 26970, Note_on_c, 1, 72, 100
3, 27000, Note_on_c, 1, 72, 0
3, 27000, Note_on_c, 1, 71, 100
3, 27030, Note_on_c, 1, 71, 0
3, 27030, Note_on_c, 1, 69, 100
3, 27060, Note_on_c, 1, 69, 0
3, 27060, Note_on_c, 1, 67, 100
3, 27090, Note_on_c, 1, 67, 0
3, 27090, Note_on_c, 1, 66, 100
3, 27120, Note_on_c, 1, 66, 0
3, 27120, Note_on_c, 1, 67, 100
3, 27150, Note_on_c, 1, 67, 0
3, 27150, Note_on_c, 1, 69, 100
3, 27180, Note_on_c, 1, 69, 0
3, 27180, Note_on_c, 1, 71, 100
3, 27210, Note_on_c, 1, 71, 0
3, 27210, Note_on_c, 1, 72, 100
3, 27240, Note_on_c, 1, 72, 0
3, 27240, Note_on_c, 1, 74, 100
3, 27300, Note_on_c, 1, 74, 0
3, 27300, Note_on_c, 1, 79, 100
3, 27390, Note_on_c, 1, 79, 0
3, 27390, Note_on_c, 1, 76, 100
3, 27420, Note_on_c, 1, 76, 0
3, 27420, Note_on_c, 1, 78, 100
3, 27450, Note_on_c, 1, 78, 0
3, 27450, Note_on_c, 1, 79, 100
3, 27480, Note_on_c, 1, 79, 0
3, 27480, Note_on_c, 1, 81, 100
3, 27510, Note_on_c, 1, 81, 0
3, 27510, Note_on_c, 1, 83, 100
3, 27540, Note_on_c, 1, 83, 0
3, 27540, Note_on_c, 1, 84, 100
3, 27600, Note_on_c, 1, 84, 0
3, 27600, Note_on_c, 1, 74, 100
3, 27660, Note_on_c, 1, 74, 0
3, 27660, Note_on_c, 1, 79, 100
3, 27675, Note_on_c, 1, 79, 0
3, 27675, Note_on_c, 1, 78, 100
3, 27690, Note_on_c, 1, 78, 0
3, 27690, Note_on_c, 1, 76, 100
3, 27705, Note_on_c, 1, 76, 0
3, 27705, Note_on_c, 1, 78, 100
3, 27720, Note_on_c, 1, 78, 0
3, 27720, Note_on_c, 1, 79, 100
3, 27780, Note_on_c, 1, 79, 0
3, 27780, Note_on_c, 1, 74, 100
3, 27810, Note_on_c, 1, 74, 0
3, 27810, Note_on_c, 1, 71, 100
3, 27840, Note_on_c, 1, 71, 0
3, 27840, Note_on_c, 1, 67, 100
3, 27960, Note_on_c, 1, 67, 0
3, 28200, Note_on_c, 1, 83, 100
3, 28470, Note_on_c, 1, 83, 0
3, 28470, Note_on_c, 1, 83, 90
3, 28499, Note_on_c, 1, 83, 0
3, 28500, Note_on_c, 1, 81, 90
3, 28529, Note_on_c, 1, 81, 0
3, 28530, Note_on_c, 1, 80, 90
3, 28559, Note_on_c, 1, 80, 0
3, 28560, Note_on_c, 1, 81, 90
3, 28589, Note_on_c, 1, 81, 0
3, 28590, Note_on_c, 1, 83, 90
3, 28619, Note_on_c, 1, 83, 0
3, 28620, Note_on_c, 1, 84, 90
3, 28649, Note_on_c, 1, 84, 0
3, 28650, Note_on_c, 1, 81, 90
3, 28679, Note_on_c, 1, 81, 0
3, 28680, Note_on_c, 1, 74, 90
3, 28799, Note_on_c, 1, 74, 0
3, 28830, Note_on_c, 1, 81, 90
3, 28859, Note_on_c, 1, 81, 0
3, 28860, Note_on_c, 1, 79, 90
3, 28889, Note_on_c, 1, 79, 0
3, 28890, Note_on_c, 1, 78, 90
3, 28919, Note_on_c, 1, 78, 0
3, 28920, Note_on_c, 1, 79, 90
3, 28949, Note_on_c, 1, 79, 0
3, 28950, Note_on_c, 1, 81, 90
3, 28979, Note_on_c, 1, 81, 0
3, 28980, Note_on_c, 1, 83, 90
3, 29009, Note_on_c, 1, 83, 0
3, 29010, Note_on_c, 1, 79, 90
3, 29039, Note_on_c, 1, 79, 0
3, 29040, Note_on_c, 1, 72, 90
3, 29159, Note_on_c, 1, 72, 0
3, 29190, Note_on_c, 1, 79, 90
3, 29219, Note_on_c, 1, 79, 0
3, 29220, Note_on_c, 1, 78, 90
3, 29249, Note_on_c, 1, 78, 0
3, 29250, Note_on_c, 1, 76, 90
3, 29279, Note_on_c, 1, 76, 0
3, 29280, Note_on_c, 1, 78, 90
3, 29309, Note_on_c, 1, 78, 0
3, 29310, Note_on_c, 1, 79, 90
3, 29339, Note_on_c, 1, 79, 0
3, 29340, Note_on_c, 1, 81, 90
3, 29369, Note_on_c, 1, 81, 0
3, 29370, Note_on_c, 1, 78, 90
3, 29399, Note_on_c, 1, 78, 0
3, 29400, Note_on_c, 1, 71, 90
3, 29429, Note_on_c, 1, 71, 0
3, 29430, Note_on_c, 1, 76, 90
3, 29459, Note_on_c, 1, 76, 0
3, 29460, Note_on_c, 1, 74, 90
3, 29489, Note_on_c, 1, 74, 0
3, 29490, Note_on_c, 1, 72, 90
3, 29519, Note_on_c, 1, 72, 0
3, 29520, Note_on_c, 1, 74, 90
3, 29549, Note_on_c, 1, 74, 0
3, 29550, Note_on_c, 1, 76, 90
3, 29579, Note_on_c, 1, 76, 0
3, 29580, Note_on_c, 1, 78, 90
3, 29609, Note_on_c, 1, 78, 0
3, 29610, Note_on_c, 1, 74, 90
3, 29639, Note_on_c, 1, 74, 0
3, 29640, Note_on_c, 1, 67, 90
3, 29669, Note_on_c, 1, 67, 0
3, 29670, Note_on_c, 1, 72, 90
3, 29699, Note_on_c, 1, 72, 0
3, 29700, Note_on_c, 1, 71, 90
3, 29729, Note_on_c, 1, 71, 0
3, 29730, Note_on_c, 1, 69, 90
3, 29759, Note_on_c, 1, 69, 0
3, 29760, Note_on_c, 1, 71, 90
3, 29789, Note_on_c, 1, 71, 0
3, 29790, Note_on_c, 1, 72, 90
3, 29819, Note_on_c, 1, 72, 0
3, 29820, Note_on_c, 1, 74, 90
3, 29849, Note_on_c, 1, 74, 0
3, 29850, Note_on_c, 1, 71, 90
3, 29879, Note_on_c, 1, 71, 0
3, 29880, Note_on_c, 1, 64, 90
3, 29909, Note_on_c, 1, 64, 0
3, 29910, Note_on_c, 1, 66, 90
3, 29939, Note_on_c, 1, 66, 0
3, 29940, Note_on_c, 1, 67, 90
3, 30029, Note_on_c, 1, 67, 0
3, 30030, Note_on_c, 1, 71, 90
3, 30059, Note_on_c, 1, 71, 0
3, 30060, Note_on_c, 1, 69, 90
3, 30149, Note_on_c, 1, 69, 0
3, 30150, Note_on_c, 1, 71, 90
3, 30179, Note_on_c, 1, 71, 0
3, 30180, Note_on_c, 1, 72, 90
3, 30269, Note_on_c, 1, 72, 0
3, 30270, Note_on_c, 1, 76, 90
3, 30299, Note_on_c, 1, 76, 0
3, 30300, Note_on_c, 1, 74, 90
3, 30389, Note_on_c, 1, 74, 0
3, 30390, Note_on_c, 1, 71, 90
3, 30419, Note_on_c, 1, 71, 0
3, 30420, Note_on_c, 1, 72, 90
3, 30509, Note_on_c, 1, 72, 0
3, 30510, Note_on_c, 1, 79, 90
3, 30539, Note_on_c, 1, 79, 0
3, 30540, Note_on_c, 1, 78, 90
3, 30599, Note_on_c, 1, 78, 0
3, 30600, Note_on_c, 1, 79, 90
3, 30659, Note_on_c, 1, 79, 0
3, 30660, Note_on_c, 1, 78, 90
3, 30689, Note_on_c, 1, 78, 0
3, 30690, Note_on_c, 1, 76, 90
3, 30719, Note_on_c, 1, 76, 0
3, 30720, Note_on_c, 1, 74, 90
3, 30749, Note_on_c, 1, 74, 0
3, 30750, Note_on_c, 1, 72, 90
3, 30779, Note_on_c, 1, 72, 0
3, 30780, Note_on_c, 1, 71, 90
3, 30809, Note_on_c, 1, 71, 0
3, 30810, Note_on_c, 1, 69, 90
3, 30839, Note_on_c, 1, 69, 0
3, 30840, Note_on_c, 1, 67, 90
3, 30869, Note_on_c, 1, 67, 0
3, 30870, Note_on_c, 1, 69, 90
3, 30899, Note_on_c, 1, 69, 0
3, 30900, Note_on_c, 1, 71, 90
3, 30929, Note_on_c, 1, 71, 0
3, 30960, Note_on_c, 1, 71, 90
3, 30975, Note_on_c, 1, 71, 0
3, 30975, Note_on_c, 1, 72, 90
3, 30990, Note_on_c, 1, 72, 0
3, 30990, Note_on_c, 1, 71, 90
3, 31020, Note_on_c, 1, 71, 0
3, 31020, Note_on_c, 1, 69, 90
3, 31079, Note_on_c, 1, 69, 0
3, 31080, Note_on_c, 1, 69, 90
3, 31139, Note_on_c, 1, 69, 0
3, 31140, Note_on_c, 1, 66, 90
3, 31169, Note_on_c, 1, 66, 0
3, 31170, Note_on_c, 1, 67, 90
3, 31199, Note_on_c, 1, 67, 0
3, 31200, Note_on_c, 1, 69, 90
3, 31229, Note_on_c, 1, 69, 0
3, 31230, Note_on_c, 1, 71, 90
3, 31259, Note_on_c, 1, 71, 0
3, 31260, Note_on_c, 1, 72, 90
3, 31289, Note_on_c, 1, 72, 0
3, 31320, Note_on_c, 1, 72, 90
3, 31335, Note_on_c, 1, 72, 0
3, 31335, Note_on_c, 1, 74, 90
3, 31350, Note_on_c, 1, 74, 0
3, 31350, Note_on_c, 1, 72, 90
3, 31379, Note_on_c, 1, 72, 0
3, 31380, Note_on_c, 1, 71, 90
3, 31439, Note_on_c, 1, 71, 0
3, 31440, Note_on_c, 1, 71, 90
3, 31499, Note_on_c, 1, 71, 0
3, 31500, Note_on_c, 1, 74, 90
3, 31559, Note_on_c, 1, 74, 0
3, 31560, Note_on_c, 1, 72, 90
3, 31589, Note_on_c, 1, 72, 0
3, 31590, Note_on_c, 1, 71, 90
3, 31619, Note_on_c, 1, 71, 0
3, 31620, Note_on_c, 1, 69, 90
3, 31649, Note_on_c, 1, 69, 0
3, 31650, Note_on_c, 1, 67, 90
3, 31679, Note_on_c, 1, 67, 0
3, 31680, Note_on_c, 1, 76, 90
3, 31739, Note_on_c, 1, 76, 0
3, 31740, Note_on_c, 1, 79, 90
3, 31769, Note_on_c, 1, 79, 0
3, 31770, Note_on_c, 1, 78, 90
3, 31799, Note_on_c, 1, 78, 0
3, 31800, Note_on_c, 1, 76, 90
3, 31859, Note_on_c, 1, 76, 0
3, 31860, Note_on_c, 1, 74, 90
3, 31919, Note_on_c, 1, 74, 0
3, 31920, Note_on_c, 1, 72, 90
3, 31949, Note_on_c, 1, 72, 0
3, 31950, Note_on_c, 1, 71, 90
3, 31979, Note_on_c, 1, 71, 0
3, 31980, Note_on_c, 1, 69, 90
3, 32009, Note_on_c, 1, 69, 0
3, 32010, Note_on_c, 1, 67, 90
3, 32039, Note_on_c, 1, 67, 0
3, 32040, Note_on_c, 1, 78, 90
3, 32069, Note_on_c, 1, 78, 0
3, 32070, Note_on_c, 1, 76, 90
3, 32099, Note_on_c, 1, 76, 0
3, 32100, Note_on_c, 1, 74, 90
3, 32129, Note_on_c, 1, 74, 0
3, 32130, Note_on_c, 1, 81, 90
3, 32159, Note_on_c, 1, 81, 0
3, 32160, Note_on_c, 1, 72, 90
3, 32189, Note_on_c, 1, 72, 0
3, 32190, Note_on_c, 1, 71, 90
3, 32249, Note_on_c, 1, 71, 0
3, 32250, Note_on_c, 1, 69, 90
3, 32279, Note_on_c, 1, 69, 0
3, 32280, Note_on_c, 1, 69, 90
3, 32295, Note_on_c, 1, 69, 0
3, 32295, Note_on_c, 1, 71, 90
3, 32310, Note_on_c, 1, 71, 0
3, 32310, Note_on_c, 1, 69, 90
3, 32370, Note_on_c, 1, 69, 0
3, 32370, Note_on_c, 1, 67, 90
3, 32399, Note_on_c, 1, 67, 0
3, 32400, Note_on_c, 1, 67, 90
3, 32519, Note_on_c, 1, 67, 0
3, 32580, Note_on_c, 1, 79, 90
3, 32639, Note_on_c, 1, 79, 0
3, 32640, Note_on_c, 1, 74, 90
3, 32669, Note_on_c, 1, 74, 0
3, 32670, Note_on_c, 1, 72, 90
3, 32699, Note_on_c, 1, 72, 0
3, 32700, Note_on_c, 1, 71, 90
3, 32729, Note_on_c, 1, 71, 0
3, 32760, Note_on_c, 1, 71, 90
3, 32819, Note_on_c, 1, 71, 0
3, 32820, Note_on_c, 1, 72, 90
3, 32879, Note_on_c, 1, 72, 0
3, 32880, Note_on_c, 1, 72, 90
3, 32939, Note_on_c, 1, 72, 0
3, 32940, Note_on_c, 1, 76, 90
3, 32969, Note_on_c, 1, 76, 0
3, 32970, Note_on_c, 1, 74, 90
3, 32999, Note_on_c, 1, 74, 0
3, 33000, Note_on_c, 1, 72, 90
3, 33029, Note_on_c, 1, 72, 0
3, 33030, Note_on_c, 1, 71, 90
3, 33059, Note_on_c, 1, 71, 0
3, 33060, Note_on_c, 1, 69, 90
3, 33089, Note_on_c, 1, 69, 0
3, 33120, Note_on_c, 1, 69, 90
3, 33179, Note_on_c, 1, 69, 0
3, 33180, Note_on_c, 1, 71, 90
3, 33239, Note_on_c, 1, 71, 0
3, 33240, Note_on_c, 1, 71, 90
3, 33359, Note_on_c, 1, 71, 0
3, 33360, Note_on_c, 1, 76, 90
3, 33375, Note_on_c, 1, 76, 0
3, 33375, Note_on_c, 1, 74, 90
3, 33390, Note_on_c, 1, 74, 0
3, 33390, Note_on_c, 1, 76, 90
3, 33540, Note_on_c, 1, 76, 0
3, 33540, Note_on_c, 1, 75, 90
3, 33569, Note_on_c, 1, 75, 0
3, 33570, Note_on_c, 1, 76, 90
3, 33599, Note_on_c, 1, 76, 0
3, 33600, Note_on_c, 1, 78, 90
3, 33659, Note_on_c, 1, 78, 0
3, 33660, Note_on_c, 1, 75, 90
3, 33719, Note_on_c, 1, 75, 0
3, 33720, Note_on_c, 1, 71, 90
3, 33870, Note_on_c, 1, 71, 0
3, 33870, Note_on_c, 1, 72, 90
3, 33899, Note_on_c, 1, 72, 0
3, 33900, Note_on_c, 1, 71, 90
3, 33929, Note_on_c, 1, 71, 0
3, 33930, Note_on_c, 1, 69, 90
3, 33959, Note_on_c, 1, 69, 0
3, 33960, Note_on_c, 1, 71, 90
3, 33989, Note_on_c, 1, 71, 0
3, 33990, Note_on_c, 1, 75, 90
3, 34019, Note_on_c, 1, 75, 0
3, 34020, Note_on_c, 1, 76, 90
3, 34049, Note_on_c, 1, 76, 0
3, 34050, Note_on_c, 1, 78, 90
3, 34079, Note_on_c, 1, 78, 0
3, 34080, Note_on_c, 1, 79, 90
3, 34139, Note_on_c, 1, 79, 0
3, 34140, Note_on_c, 1, 76, 90
3, 34199, Note_on_c, 1, 76, 0
3, 34200, Note_on_c, 1, 73, 90
3, 34229, Note_on_c, 1, 73, 0
3, 34230, Note_on_c, 1, 71, 90
3, 34259, Note_on_c, 1, 71, 0
3, 34260, Note_on_c, 1, 69, 90
3, 34289, Note_on_c, 1, 69, 0
3, 34290, Note_on_c, 1, 71, 90
3, 34319, Note_on_c, 1, 71, 0
3, 34320, Note_on_c, 1, 73, 90
3, 34349, Note_on_c, 1, 73, 0
3, 34350, Note_on_c, 1, 76, 90
3, 34379, Note_on_c, 1, 76, 0
3, 34380, Note_on_c, 1, 78, 90
3, 34409, Note_on_c, 1, 78, 0
3, 34410, Note_on_c, 1, 79, 90
3, 34439, Note_on_c, 1, 79, 0
3, 34440, Note_on_c, 1, 81, 90
3, 34499, Note_on_c, 1, 81, 0
3, 34500, Note_on_c, 1, 78, 90
3, 34559, Note_on_c, 1, 78, 0
3, 34560, Note_on_c, 1, 76, 90
3, 34589, Note_on_c, 1, 76, 0
3, 34590, Note_on_c, 1, 75, 90
3, 34619, Note_on_c, 1, 75, 0
3, 34620, Note_on_c, 1, 73, 90
3, 34649, Note_on_c, 1, 73, 0
3, 34650, Note_on_c, 1, 71, 90
3, 34679, Note_on_c, 1, 71, 0
3, 34680, Note_on_c, 1, 76, 90
3, 35220, Note_on_c, 1, 76, 0
3, 35220, Note_on_c, 1, 64, 90
3, 35280, Note_on_c, 1, 64, 0
3, 35280, Note_on_c, 1, 69, 90
3, 35430, Note_on_c, 1, 69, 0
3, 35430, Note_on_c, 1, 72, 90
3, 35459, Note_on_c, 1, 72, 0
3, 35460, Note_on_c, 1, 71, 90
3, 35489, Note_on_c, 1, 71, 0
3, 35490, Note_on_c, 1, 69, 90
3, 35519, Note_on_c, 1, 69, 0
3, 35520, Note_on_c, 1, 67, 90
3, 35549, Note_on_c, 1, 67, 0
3, 35550, Note_on_c, 1, 66, 90
3, 35579, Note_on_c, 1, 66, 0
3, 35580, Note_on_c, 1, 64, 90
3, 35609, Note_on_c, 1, 64, 0
3, 35610, Note_on_c, 1, 66, 90
3, 35639, Note_on_c, 1, 66, 0
3, 35640, Note_on_c, 1, 67, 90
3, 35669, Note_on_c, 1, 67, 0
3, 35670, Note_on_c, 1, 69, 90
3, 35699, Note_on_c, 1, 69, 0
3, 35700, Note_on_c, 1, 71, 90
3, 35729, Note_on_c, 1, 71, 0
3, 35730, Note_on_c, 1, 73, 90
3, 35759, Note_on_c, 1, 73, 0
3, 35760, Note_on_c, 1, 75, 90
3, 35789, Note_on_c, 1, 75, 0
3, 35790, Note_on_c, 1, 71, 90
3, 35819, Note_on_c, 1, 71, 0
3, 35820, Note_on_c, 1, 76, 90
3, 35849, Note_on_c, 1, 76, 0
3, 35880, Note_on_c, 1, 76, 90
3, 35909, Note_on_c, 1, 76, 0
3, 35910, Note_on_c, 1, 78, 90
3, 35924, Note_on_c, 1, 78, 0
3, 35925, Note_on_c, 1, 79, 90
3, 35939, Note_on_c, 1, 79, 0
3, 35940, Note_on_c, 1, 78, 90
3, 35969, Note_on_c, 1, 78, 0
3, 35970, Note_on_c, 1, 76, 90
3, 35999, Note_on_c, 1, 76, 0
3, 36000, Note_on_c, 1, 76, 90
3, 36029, Note_on_c, 1, 76, 0
3, 36030, Note_on_c, 1, 79, 90
3, 36059, Note_on_c, 1, 79, 0
3, 36060, Note_on_c, 1, 78, 90
3, 36089, Note_on_c, 1, 78, 0
3, 36090, Note_on_c, 1, 79, 90
3, 36119, Note_on_c, 1, 79, 0
3, 36120, Note_on_c, 1, 76, 90
3, 36149, Note_on_c, 1, 76, 0
3, 36150, Note_on_c, 1, 79, 90
3, 36179, Note_on_c, 1, 79, 0
3, 36180, Note_on_c, 1, 74, 90
3, 36209, Note_on_c, 1, 74, 0
3, 36210, Note_on_c, 1, 79, 90
3, 36239, Note_on_c, 1, 79, 0
3, 36240, Note_on_c, 1, 73, 90
3, 36269, Note_on_c, 1, 73, 0
3, 36270, Note_on_c, 1, 79, 90
3, 36299, Note_on_c, 1, 79, 0
3, 36300, Note_on_c, 1, 71, 90
3, 36329, Note_on_c, 1, 71, 0
3, 36330, Note_on_c, 1, 79, 90
3, 36359, Note_on_c, 1, 79, 0
3, 36360, Note_on_c, 1, 73, 90
3, 36389, Note_on_c, 1, 73, 0
3, 36390, Note_on_c, 1, 76, 90
3, 36419, Note_on_c, 1, 76, 0
3, 36420, Note_on_c, 1, 74, 90
3, 36449, Note_on_c, 1, 74, 0
3, 36450, Note_on_c, 1, 76, 90
3, 36479, Note_on_c, 1, 76, 0
3, 36480, Note_on_c, 1, 73, 90
3, 36509, Note_on_c, 1, 73, 0
3, 36510, Note_on_c, 1, 76, 90
3, 36539, Note_on_c, 1, 76, 0
3, 36540, Note_on_c, 1, 71, 90
3, 36569, Note_on_c, 1, 71, 0
3, 36570, Note_on_c, 1, 76, 90
3, 36599, Note_on_c, 1, 76, 0
3, 36600, Note_on_c, 1, 70, 90
3, 36629, Note_on_c, 1, 70, 0
3, 36630, Note_on_c, 1, 76, 90
3, 36659, Note_on_c, 1, 76, 0
3, 36660, Note_on_c, 1, 71, 90
3, 36689, Note_on_c, 1, 71, 0
3, 36690, Note_on_c, 1, 76, 90
3, 36719, Note_on_c, 1, 76, 0
3, 36720, Note_on_c, 1, 71, 90
3, 36779, Note_on_c, 1, 71, 0
3, 36780, Note_on_c, 1, 70, 90
3, 36899, Note_on_c, 1, 70, 0
3, 36900, Note_on_c, 1, 71, 90
3, 36959, Note_on_c, 1, 71, 0
3, 36960, Note_on_c, 1, 73, 90
3, 37019, Note_on_c, 1, 73, 0
3, 37020, Note_on_c, 1, 74, 90
3, 37079, Note_on_c, 1, 74, 0
3, 37080, Note_on_c, 1, 76, 90
3, 37470, Note_on_c, 1, 76, 0
3, 37470, Note_on_c, 1, 70, 90
3, 37499, Note_on_c, 1, 70, 0
3, 37500, Note_on_c, 1, 71, 90
3, 37529, Note_on_c, 1, 71, 0
3, 37530, Note_on_c, 1, 73, 90
3, 37559, Note_on_c, 1, 73, 0
3, 37560, Note_on_c, 1, 74, 90
3, 37589, Note_on_c, 1, 74, 0
3, 37590, Note_on_c, 1, 76, 90
3, 37619, Note_on_c, 1, 76, 0
3, 37620, Note_on_c, 1, 78, 90
3, 37649, Note_on_c, 1, 78, 0
3, 37650, Note_on_c, 1, 79, 90
3, 37679, Note_on_c, 1, 79, 0
3, 37680, Note_on_c, 1, 73, 90
3, 37695, Note_on_c, 1, 73, 0
3, 37695, Note_on_c, 1, 74, 90
3, 37710, Note_on_c, 1, 74, 0
3, 37710, Note_on_c, 1, 73, 90
3, 37725, Note_on_c, 1, 73, 0
3, 37725, Note_on_c, 1, 74, 90
3, 37740, Note_on_c, 1, 74, 0
3, 37740, Note_on_c, 1, 73, 90
3, 37769, Note_on_c, 1, 73, 0
3, 37770, Note_on_c, 1, 71, 90
3, 37799, Note_on_c, 1, 71, 0
3, 37800, Note_on_c, 1, 71, 90
3, 37919, Note_on_c, 1, 71, 0
3, 38700, Note_on_c, 1, 74, 90
3, 38759, Note_on_c, 1, 74, 0
3, 38760, Note_on_c, 1, 69, 90
3, 38789, Note_on_c, 1, 69, 0
3, 38790, Note_on_c, 1, 67, 90
3, 38819, Note_on_c, 1, 67, 0
3, 38820, Note_on_c, 1, 66, 90
3, 38849, Note_on_c, 1, 66, 0
3, 38880, Note_on_c, 1, 66, 90
3, 38939, Note_on_c, 1, 66, 0
3, 38940, Note_on_c, 1, 67, 90
3, 38999, Note_on_c, 1, 67, 0
3, 39000, Note_on_c, 1, 67, 90
3, 39059, Note_on_c, 1, 67, 0
3, 39060, Note_on_c, 1, 71, 90
3, 39089, Note_on_c, 1, 71, 0
3, 39090, Note_on_c, 1, 69, 90
3, 39119, Note_on_c, 1, 69, 0
3, 39120, Note_on_c, 1, 67, 90
3, 39149, Note_on_c, 1, 67, 0
3, 39150, Note_on_c, 1, 66, 90
3, 39179, Note_on_c, 1, 66, 0
3, 39180, Note_on_c, 1, 64, 90
3, 39209, Note_on_c, 1, 64, 0
3, 39240, Note_on_c, 1, 64, 90
3, 39299, Note_on_c, 1, 64, 0
3, 39300, Note_on_c, 1, 66, 90
3, 39359, Note_on_c, 1, 66, 0
3, 39360, Note_on_c, 1, 66, 90
3, 39389, Note_on_c, 1, 66, 0
3, 39390, Note_on_c, 1, 69, 90
3, 39419, Note_on_c, 1, 69, 0
3, 39420, Note_on_c, 1, 71, 90
3, 39449, Note_on_c, 1, 71, 0
3, 39450, Note_on_c, 1, 73, 90
3, 39479, Note_on_c, 1, 73, 0
3, 39480, Note_on_c, 1, 74, 90
3, 39509, Note_on_c, 1, 74, 0
3, 39510, Note_on_c, 1, 76, 90
3, 39539, Note_on_c, 1, 76, 0
3, 39540, Note_on_c, 1, 78, 90
3, 39569, Note_on_c, 1, 78, 0
3, 39570, Note_on_c, 1, 74, 90
3, 39599, Note_on_c, 1, 74, 0
3, 39600, Note_on_c, 1, 72, 90
3, 39659, Note_on_c, 1, 72, 0
3, 39660, Note_on_c, 1, 71, 90
3, 39719, Note_on_c, 1, 71, 0
3, 39780, Note_on_c, 1, 76, 90
3, 39839, Note_on_c, 1, 76, 0
3, 39840, Note_on_c, 1, 74, 90
3, 39869, Note_on_c, 1, 74, 0
3, 39870, Note_on_c, 1, 73, 90
3, 39899, Note_on_c, 1, 73, 0
3, 39900, Note_on_c, 1, 71, 90
3, 39929, Note_on_c, 1, 71, 0
3, 39930, Note_on_c, 1, 69, 90
3, 39959, Note_on_c, 1, 69, 0
3, 39960, Note_on_c, 1, 74, 90
3, 39975, Note_on_c, 1, 74, 0
3, 39975, Note_on_c, 1, 73, 90
3, 39990, Note_on_c, 1, 73, 0
3, 39990, Note_on_c, 1, 74, 90
3, 40080, Note_on_c, 1, 74, 0
3, 40140, Note_on_c, 1, 74, 90
3, 40169, Note_on_c, 1, 74, 0
3, 40170, Note_on_c, 1, 73, 90
3, 40199, Note_on_c, 1, 73, 0
3, 40200, Note_on_c, 1, 71, 90
3, 40229, Note_on_c, 1, 71, 0
3, 40230, Note_on_c, 1, 69, 90
3, 40259, Note_on_c, 1, 69, 0
3, 40260, Note_on_c, 1, 67, 90
3, 40289, Note_on_c, 1, 67, 0
3, 40290, Note_on_c, 1, 66, 90
3, 40319, Note_on_c, 1, 66, 0
3, 40320, Note_on_c, 1, 71, 90
3, 40379, Note_on_c, 1, 71, 0
3, 40380, Note_on_c, 1, 79, 90
3, 40439, Note_on_c, 1, 79, 0
3, 40920, Note_on_c, 1, 81, 90
3, 41070, Note_on_c, 1, 81, 0
3, 41070, Note_on_c, 1, 81, 90
3, 41099, Note_on_c, 1, 81, 0
3, 41100, Note_on_c, 1, 79, 90
3, 41129, Note_on_c, 1, 79, 0
3, 41130, Note_on_c, 1, 78, 90
3, 41159, Note_on_c, 1, 78, 0
3, 41160, Note_on_c, 1, 79, 90
3, 41189, Note_on_c, 1, 79, 0
3, 41190, Note_on_c, 1, 81, 90
3, 41219, Note_on_c, 1, 81, 0
3, 41220, Note_on_c, 1, 83, 90
3, 41249, Note_on_c, 1, 83, 0
3, 41250, Note_on_c, 1, 79, 90
3, 41279, Note_on_c, 1, 79, 0
3, 41280, Note_on_c, 1, 73, 90
3, 41309, Note_on_c, 1, 73, 0
3, 41310, Note_on_c, 1, 78, 90
3, 41339, Note_on_c, 1, 78, 0
3, 41340, Note_on_c, 1, 76, 90
3, 41369, Note_on_c, 1, 76, 0
3, 41370, Note_on_c, 1, 74, 90
3, 41399, Note_on_c, 1, 74, 0
3, 41400, Note_on_c, 1, 76, 90
3, 41429, Note_on_c, 1, 76, 0
3, 41430, Note_on_c, 1, 78, 90
3, 41459, Note_on_c, 1, 78, 0
3, 41460, Note_on_c, 1, 79, 90
3, 41489, Note_on_c, 1, 79, 0
3, 41490, Note_on_c, 1, 76, 90
3, 41519, Note_on_c, 1, 76, 0
3, 41520, Note_on_c, 1, 69, 90
3, 41549, Note_on_c, 1, 69, 0
3, 41550, Note_on_c, 1, 74, 90
3, 41579, Note_on_c, 1, 74, 0
3, 41580, Note_on_c, 1, 73, 90
3, 41609, Note_on_c, 1, 73, 0
3, 41610, Note_on_c, 1, 71, 90
3, 41639, Note_on_c, 1, 71, 0
3, 41640, Note_on_c, 1, 73, 90
3, 41669, Note_on_c, 1, 73, 0
3, 41670, Note_on_c, 1, 74, 90
3, 41699, Note_on_c, 1, 74, 0
3, 41700, Note_on_c, 1, 76, 90
3, 41729, Note_on_c, 1, 76, 0
3, 41730, Note_on_c, 1, 73, 90
3, 41759, Note_on_c, 1, 73, 0
3, 41760, Note_on_c, 1, 66, 90
3, 41789, Note_on_c, 1, 66, 0
3, 41790, Note_on_c, 1, 69, 90
3, 41819, Note_on_c, 1, 69, 0
3, 41820, Note_on_c, 1, 67, 90
3, 41879, Note_on_c, 1, 67, 0
3, 42060, Note_on_c, 1, 74, 90
3, 42149, Note_on_c, 1, 74, 0
3, 42150, Note_on_c, 1, 71, 90
3, 42179, Note_on_c, 1, 71, 0
3, 42180, Note_on_c, 1, 73, 90
3, 42209, Note_on_c, 1, 73, 0
3, 42210, Note_on_c, 1, 74, 90
3, 42239, Note_on_c, 1, 74, 0
3, 42240, Note_on_c, 1, 76, 90
3, 42269, Note_on_c, 1, 76, 0
3, 42270, Note_on_c, 1, 78, 90
3, 42299, Note_on_c, 1, 78, 0
3, 42300, Note_on_c, 1, 79, 90
3, 42359, Note_on_c, 1, 79, 0
3, 42360, Note_on_c, 1, 69, 90
3, 42419, Note_on_c, 1, 69, 0
3, 42420, Note_on_c, 1, 74, 90
3, 42435, Note_on_c, 1, 74, 0
3, 42435, Note_on_c, 1, 73, 90
3, 42450, Note_on_c, 1, 73, 0
3, 42450, Note_on_c, 1, 71, 90
3, 42465, Note_on_c, 1, 71, 0
3, 42465, Note_on_c, 1, 73, 90
3, 42480, Note_on_c, 1, 73, 0
3, 42480, Note_on_c, 1, 74, 90
3, 42509, Note_on_c, 1, 74, 0
3, 42510, Note_on_c, 1, 69, 90
3, 42539, Note_on_c, 1, 69, 0
3, 42540, Note_on_c, 1, 71, 90
3, 42569, Note_on_c, 1, 71, 0
3, 42570, Note_on_c, 1, 73, 90
3, 42599, Note_on_c, 1, 73, 0
3, 42600, Note_on_c, 1, 74, 90
3, 42629, Note_on_c, 1, 74, 0
3, 42630, Note_on_c, 1, 76, 90
3, 42659, Note_on_c, 1, 76, 0
3, 42660, Note_on_c, 1, 78, 90
3, 42689, Note_on_c, 1, 78, 0
3, 42690, Note_on_c, 1, 79, 90
3, 42719, Note_on_c, 1, 79, 0
3, 42720, Note_on_c, 1, 81, 90
3, 42779, Note_on_c, 1, 81, 0
3, 42780, Note_on_c, 1, 78, 90
3, 42839, Note_on_c, 1, 78, 0
3, 42840, Note_on_c, 1, 74, 90
3, 42899, Note_on_c, 1, 74, 0
3, 42900, Note_on_c, 1, 71, 90
3, 42959, Note_on_c, 1, 71, 0
3, 42960, Note_on_c, 1, 76, 90
3, 42989, Note_on_c, 1, 76, 0
3, 42990, Note_on_c, 1, 78, 90
3, 43019, Note_on_c, 1, 78, 0
3, 43020, Note_on_c, 1, 79, 90
3, 43049, Note_on_c, 1, 79, 0
3, 43050, Note_on_c, 1, 81, 90
3, 43079, Note_on_c, 1, 81, 0
3, 43080, Note_on_c, 1, 83, 90
3, 43109, Note_on_c, 1, 83, 0
3, 43110, Note_on_c, 1, 81, 90
3, 43139, Note_on_c, 1, 81, 0
3, 43140, Note_on_c, 1, 79, 90
3, 43169, Note_on_c, 1, 79, 0
3, 43170, Note_on_c, 1, 78, 90
3, 43199, Note_on_c, 1, 78, 0
3, 43200, Note_on_c, 1, 76, 90
3, 43229, Note_on_c, 1, 76, 0
3, 43230, Note_on_c, 1, 79, 90
3, 43259, Note_on_c, 1, 79, 0
3, 43260, Note_on_c, 1, 78, 90
3, 43289, Note_on_c, 1, 78, 0
3, 43290, Note_on_c, 1, 76, 90
3, 43319, Note_on_c, 1, 76, 0
3, 43320, Note_on_c, 1, 74, 90
3, 43349, Note_on_c, 1, 74, 0
3, 43350, Note_on_c, 1, 73, 90
3, 43379, Note_on_c, 1, 73, 0
3, 43380, Note_on_c, 1, 74, 90
3, 43409, Note_on_c, 1, 74, 0
3, 43410, Note_on_c, 1, 76, 90
3, 43439, Note_on_c, 1, 76, 0
3, 43440, Note_on_c, 1, 73, 90
3, 43455, Note_on_c, 1, 73, 0
3, 43455, Note_on_c, 1, 74, 90
3, 43470, Note_on_c, 1, 74, 0
3, 43470, Note_on_c, 1, 73, 90
3, 43485, Note_on_c, 1, 73, 0
3, 43485, Note_on_c, 1, 74, 90
3, 43500, Note_on_c, 1, 74, 0
3, 43500, Note_on_c, 1, 73, 90
3, 43530, Note_on_c, 1, 73, 0
3, 43530, Note_on_c, 1, 74, 90
3, 43559, Note_on_c, 1, 74, 0
3, 43560, Note_on_c, 1, 74, 90
3, 44430, Note_on_c, 1, 74, 0
3, 44430, Note_on_c, 1, 62, 90
3, 44459, Note_on_c, 1, 62, 0
3, 44460, Note_on_c, 1, 64, 90
3, 44489, Note_on_c, 1, 64, 0
3, 44490, Note_on_c, 1, 66, 90
3, 44519, Note_on_c, 1, 66, 0
3, 44520, Note_on_c, 1, 67, 90
3, 44549, Note_on_c, 1, 67, 0
3, 44550, Note_on_c, 1, 69, 90
3, 44579, Note_on_c, 1, 69, 0
3, 44580, Note_on_c, 1, 71, 90
3, 44639, Note_on_c, 1, 71, 0
3, 44640, Note_on_c, 1, 71, 90
3, 44655, Note_on_c, 1, 71, 0
3, 44655, Note_on_c, 1, 72, 90
3, 44670, Note_on_c, 1, 72, 0
3, 44670, Note_on_c, 1, 71, 90
3, 44700, Note_on_c, 1, 71, 0
3, 44700, Note_on_c, 1, 69, 90
3, 44759, Note_on_c, 1, 69, 0
3, 44760, Note_on_c, 1, 69, 90
3, 44819, Note_on_c, 1, 69, 0
3, 44820, Note_on_c, 1, 66, 90
3, 44849, Note_on_c, 1, 66, 0
3, 44850, Note_on_c, 1, 67, 90
3, 44879, Note_on_c, 1, 67, 0
3, 44880, Note_on_c, 1, 69, 90
3, 44909, Note_on_c, 1, 69, 0
3, 44910, Note_on_c, 1, 71, 90
3, 44939, Note_on_c, 1, 71, 0
3, 44940, Note_on_c, 1, 72, 90
3, 44969, Note_on_c, 1, 72, 0
3, 45000, Note_on_c, 1, 72, 90
3, 45015, Note_on_c, 1, 72, 0
3, 45015, Note_on_c, 1, 74, 90
3, 45030, Note_on_c, 1, 74, 0
3, 45030, Note_on_c, 1, 72, 90
3, 45059, Note_on_c, 1, 72, 0
3, 45060, Note_on_c, 1, 71, 90
3, 45119, Note_on_c, 1, 71, 0
3, 45120, Note_on_c, 1, 71, 90
3, 45149, Note_on_c, 1, 71, 0
3, 45150, Note_on_c, 1, 69, 90
3, 45179, Note_on_c, 1, 69, 0
3, 45180, Note_on_c, 1, 67, 90
3, 45209, Note_on_c, 1, 67, 0
3, 45210, Note_on_c, 1, 69, 90
3, 45239, Note_on_c, 1, 69, 0
3, 45240, Note_on_c, 1, 71, 90
3, 45269, Note_on_c, 1, 71, 0
3, 45270, Note_on_c, 1, 72, 90
3, 45299, Note_on_c, 1, 72, 0
3, 45300, Note_on_c, 1, 74, 90
3, 45329, Note_on_c, 1, 74, 0
3, 45330, Note_on_c, 1, 71, 90
3, 45359, Note_on_c, 1, 71, 0
3, 45360, Note_on_c, 1, 67, 90
3, 45419, Note_on_c, 1, 67, 0
3, 45420, Note_on_c, 1, 71, 90
3, 45449, Note_on_c, 1, 71, 0
3, 45450, Note_on_c, 1, 69, 90
3, 45479, Note_on_c, 1, 69, 0
3, 45480, Note_on_c, 1, 71, 90
3, 45750, Note_on_c, 1, 71, 0
3, 45750, Note_on_c, 1, 64, 90
3, 45779, Note_on_c, 1, 64, 0
3, 45780, Note_on_c, 1, 66, 90
3, 45809, Note_on_c, 1, 66, 0
3, 45810, Note_on_c, 1, 67, 90
3, 45839, Note_on_c, 1, 67, 0
3, 45840, Note_on_c, 1, 69, 90
3, 45869, Note_on_c, 1, 69, 0
3, 45870, Note_on_c, 1, 67, 90
3, 45899, Note_on_c, 1, 67, 0
3, 45900, Note_on_c, 1, 66, 90
3, 45929, Note_on_c, 1, 66, 0
3, 45930, Note_on_c, 1, 67, 90
3, 45959, Note_on_c, 1, 67, 0
3, 45960, Note_on_c, 1, 69, 90
3, 45989, Note_on_c, 1, 69, 0
3, 45990, Note_on_c, 1, 71, 90
3, 46019, Note_on_c, 1, 71, 0
3, 46020, Note_on_c, 1, 72, 90
3, 46049, Note_on_c, 1, 72, 0
3, 46050, Note_on_c, 1, 69, 90
3, 46079, Note_on_c, 1, 69, 0
3, 46080, Note_on_c, 1, 66, 90
3, 46139, Note_on_c, 1, 66, 0
3, 46140, Note_on_c, 1, 69, 90
3, 46169, Note_on_c, 1, 69, 0
3, 46170, Note_on_c, 1, 67, 90
3, 46199, Note_on_c, 1, 67, 0
3, 46200, Note_on_c, 1, 69, 90
3, 46470, Note_on_c, 1, 69, 0
3, 46470, Note_on_c, 1, 72, 90
3, 46499, Note_on_c, 1, 72, 0
3, 46500, Note_on_c, 1, 71, 90
3, 46529, Note_on_c, 1, 71, 0
3, 46530, Note_on_c, 1, 69, 90
3, 46559, Note_on_c, 1, 69, 0
3, 46560, Note_on_c, 1, 68, 90
3, 46589, Note_on_c, 1, 68, 0
3, 46590, Note_on_c, 1, 66, 90
3, 46619, Note_on_c, 1, 66, 0
3, 46620, Note_on_c, 1, 64, 90
3, 46649, Note_on_c, 1, 64, 0
3, 46650, Note_on_c, 1, 66, 90
3, 46679, Note_on_c, 1, 66, 0
3, 46680, Note_on_c, 1, 68, 90
3, 46709, Note_on_c, 1, 68, 0
3, 46710, Note_on_c, 1, 69, 90
3, 46739, Note_on_c, 1, 69, 0
3, 46740, Note_on_c, 1, 71, 90
3, 46769, Note_on_c, 1, 71, 0
3, 46770, Note_on_c, 1, 68, 90
3, 46799, Note_on_c, 1, 68, 0
3, 46800, Note_on_c, 1, 64, 90
3, 46859, Note_on_c, 1, 64, 0
3, 46860, Note_on_c, 1, 67, 90
3, 46889, Note_on_c, 1, 67, 0
3, 46890, Note_on_c, 1, 66, 90
3, 46919, Note_on_c, 1, 66, 0
3, 46920, Note_on_c, 1, 67, 90
3, 47190, Note_on_c, 1, 67, 0
3, 47190, Note_on_c, 1, 71, 90
3, 47219, Note_on_c, 1, 71, 0
3, 47220, Note_on_c, 1, 69, 90
3, 47249, Note_on_c, 1, 69, 0
3, 47250, Note_on_c, 1, 67, 90
3, 47279, Note_on_c, 1, 67, 0
3, 47280, Note_on_c, 1, 66, 90
3, 47309, Note_on_c, 1, 66, 0
3, 47310, Note_on_c, 1, 64, 90
3, 47339, Note_on_c, 1, 64, 0
3, 47340, Note_on_c, 1, 62, 90
3, 47369, Note_on_c, 1, 62, 0
3, 47370, Note_on_c, 1, 64, 90
3, 47399, Note_on_c, 1, 64, 0
3, 47400, Note_on_c, 1, 66, 90
3, 47429, Note_on_c, 1, 66, 0
3, 47430, Note_on_c, 1, 67, 90
3, 47459, Note_on_c, 1, 67, 0
3, 47460, Note_on_c, 1, 69, 90
3, 47489, Note_on_c, 1, 69, 0
3, 47490, Note_on_c, 1, 66, 90
3, 47519, Note_on_c, 1, 66, 0
3, 47520, Note_on_c, 1, 62, 90
3, 47579, Note_on_c, 1, 62, 0
3, 47580, Note_on_c, 1, 65, 90
3, 47609, Note_on_c, 1, 65, 0
3, 47610, Note_on_c, 1, 64, 90
3, 47639, Note_on_c, 1, 64, 0
3, 47640, Note_on_c, 1, 65, 90
3, 47940, Note_on_c, 1, 65, 0
3, 47940, Note_on_c, 1, 64, 90
3, 47969, Note_on_c, 1, 64, 0
3, 47970, Note_on_c, 1, 62, 90
3, 47999, Note_on_c, 1, 62, 0
3, 48000, Note_on_c, 1, 64, 90
3, 48029, Note_on_c, 1, 64, 0
3, 48030, Note_on_c, 1, 66, 90
3, 48059, Note_on_c, 1, 66, 0
3, 48060, Note_on_c, 1, 67, 90
3, 48089, Note_on_c, 1, 67, 0
3, 48090, Note_on_c, 1, 69, 90
3, 48119, Note_on_c, 1, 69, 0
3, 48120, Note_on_c, 1, 71, 90
3, 48149, Note_on_c, 1, 71, 0
3, 48150, Note_on_c, 1, 72, 90
3, 48179, Note_on_c, 1, 72, 0
3, 48180, Note_on_c, 1, 74, 90
3, 48209, Note_on_c, 1, 74, 0
3, 48210, Note_on_c, 1, 76, 90
3, 48239, Note_on_c, 1, 76, 0
3, 48240, Note_on_c, 1, 66, 90
3, 48269, Note_on_c, 1, 66, 0
3, 48270, Note_on_c, 1, 64, 90
3, 48299, Note_on_c, 1, 64, 0
3, 48300, Note_on_c, 1, 62, 90
3, 48329, Note_on_c, 1, 62, 0
3, 48330, Note_on_c, 1, 64, 90
3, 48359, Note_on_c, 1, 64, 0
3, 48360, Note_on_c, 1, 66, 90
3, 48389, Note_on_c, 1, 66, 0
3, 48390, Note_on_c, 1, 67, 90
3, 48419, Note_on_c, 1, 67, 0
3, 48420, Note_on_c, 1, 69, 90
3, 48449, Note_on_c, 1, 69, 0
3, 48450, Note_on_c, 1, 71, 90
3, 48479, Note_on_c, 1, 71, 0
3, 48480, Note_on_c, 1, 72, 90
3, 48509, Note_on_c, 1, 72, 0
3, 48510, Note_on_c, 1, 76, 90
3, 48539, Note_on_c, 1, 76, 0
3, 48540, Note_on_c, 1, 74, 90
3, 48569, Note_on_c, 1, 74, 0
3, 48570, Note_on_c, 1, 72, 90
3, 48599, Note_on_c, 1, 72, 0
3, 48600, Note_on_c, 1, 71, 90
3, 48629, Note_on_c, 1, 71, 0
3, 48630, Note_on_c, 1, 72, 90
3, 48659, Note_on_c, 1, 72, 0
3, 48660, Note_on_c, 1, 74, 90
3, 48689, Note_on_c, 1, 74, 0
3, 48690, Note_on_c, 1, 71, 90
3, 48719, Note_on_c, 1, 71, 0
3, 48720, Note_on_c, 1, 69, 90
3, 48779, Note_on_c, 1, 69, 0
3, 48780, Note_on_c, 1, 67, 90
3, 48839, Note_on_c, 1, 67, 0
3, 48900, Note_on_c, 1, 79, 90
3, 48989, Note_on_c, 1, 79, 0
3, 48990, Note_on_c, 1, 76, 90
3, 49019, Note_on_c, 1, 76, 0
3, 49020, Note_on_c, 1, 78, 90
3, 49049, Note_on_c, 1, 78, 0
3, 49050, Note_on_c, 1, 79, 90
3, 49079, Note_on_c, 1, 79, 0
3, 49080, Note_on_c, 1, 81, 90
3, 49109, Note_on_c, 1, 81, 0
3, 49110, Note_on_c, 1, 83, 90
3, 49139, Note_on_c, 1, 83, 0
3, 49140, Note_on_c, 1, 84, 90
3, 49169, Note_on_c, 1, 84, 0
3, 49200, Note_on_c, 1, 74, 90
3, 49259, Note_on_c, 1, 74, 0
3, 49260, Note_on_c, 1, 79, 90
3, 49274, Note_on_c, 1, 79, 0
3, 49275, Note_on_c, 1, 78, 90
3, 49289, Note_on_c, 1, 78, 0
3, 49290, Note_on_c, 1, 76, 90
3, 49304, Note_on_c, 1, 76, 0
3, 49305, Note_on_c, 1, 78, 90
3, 49319, Note_on_c, 1, 78, 0
3, 49320, Note_on_c, 1, 79, 90
3, 49349, Note_on_c, 1, 79, 0
3, 49350, Note_on_c, 1, 62, 90
3, 49379, Note_on_c, 1, 62, 0
3, 49380, Note_on_c, 1, 64, 90
3, 49409, Note_on_c, 1, 64, 0
3, 49410, Note_on_c, 1, 66, 90
3, 49439, Note_on_c, 1, 66, 0
3, 49440, Note_on_c, 1, 67, 90
3, 49469, Note_on_c, 1, 67, 0
3, 49470, Note_on_c, 1, 69, 90
3, 49499, Note_on_c, 1, 69, 0
3, 49500, Note_on_c, 1, 71, 90
3, 49529, Note_on_c, 1, 71, 0
3, 49530, Note_on_c, 1, 72, 90
3, 49559, Note_on_c, 1, 72, 0
3, 49560, Note_on_c, 1, 74, 90
3, 49619, Note_on_c, 1, 74, 0
3, 49620, Note_on_c, 1, 71, 90
3, 49679, Note_on_c, 1, 71, 0
3, 49680, Note_on_c, 1, 67, 90
3, 49739, Note_on_c, 1, 67, 0
3, 49740, Note_on_c, 1, 64, 90
3, 49799, Note_on_c, 1, 64, 0
3, 49800, Note_on_c, 1, 69, 90
3, 49829, Note_on_c, 1, 69, 0
3, 49830, Note_on_c, 1, 71, 90
3, 49859, Note_on_c, 1, 71, 0
3, 49860, Note_on_c, 1, 72, 90
3, 49889, Note_on_c, 1, 72, 0
3, 49890, Note_on_c, 1, 74, 90
3, 49919, Note_on_c, 1, 74, 0
3, 49920, Note_on_c, 1, 76, 90
3, 49949, Note_on_c, 1, 76, 0
3, 49950, Note_on_c, 1, 78, 90
3, 49979, Note_on_c, 1, 78, 0
3, 49980, Note_on_c, 1, 79, 90
3, 50069, Note_on_c, 1, 79, 0
3, 50070, Note_on_c, 1, 83, 90
3, 50099, Note_on_c, 1, 83, 0
3, 50100, Note_on_c, 1, 81, 90
3, 50129, Note_on_c, 1, 81, 0
3, 50130, Note_on_c, 1, 79, 90
3, 50159, Note_on_c, 1, 79, 0
3, 50160, Note_on_c, 1, 78, 90
3, 50189, Note_on_c, 1, 78, 0
3, 50190, Note_on_c, 1, 76, 90
3, 50219, Note_on_c, 1, 76, 0
3, 50220, Note_on_c, 1, 74, 90
3, 50249, Note_on_c, 1, 74, 0
3, 50250, Note_on_c, 1, 73, 90
3, 50279, Note_on_c, 1, 73, 0
3, 50280, Note_on_c, 1, 74, 90
3, 50309, Note_on_c, 1, 74, 0
3, 50310, Note_on_c, 1, 76, 90
3, 50339, Note_on_c, 1, 76, 0
3, 50340, Note_on_c, 1, 78, 90
3, 50369, Note_on_c, 1, 78, 0
3, 50400, Note_on_c, 1, 78, 90
3, 50415, Note_on_c, 1, 78, 0
3, 50415, Note_on_c, 1, 79, 90
3, 50430, Note_on_c, 1, 79, 0
3, 50430, Note_on_c, 1, 78, 90
3, 50459, Note_on_c, 1, 78, 0
3, 50460, Note_on_c, 1, 76, 90
3, 50519, Note_on_c, 1, 76, 0
3, 50520, Note_on_c, 1, 76, 90
3, 50579, Note_on_c, 1, 76, 0
3, 50580, Note_on_c, 1, 73, 90
3, 50609, Note_on_c, 1, 73, 0
3, 50610, Note_on_c, 1, 74, 90
3, 50639, Note_on_c, 1, 74, 0
3, 50640, Note_on_c, 1, 76, 90
3, 50669, Note_on_c, 1, 76, 0
3, 50670, Note_on_c, 1, 78, 90
3, 50699, Note_on_c, 1, 78, 0
3, 50700, Note_on_c, 1, 79, 90
3, 50729, Note_on_c, 1, 79, 0
3, 50760, Note_on_c, 1, 79, 90
3, 50775, Note_on_c, 1, 79, 0
3, 50775, Note_on_c, 1, 81, 90
3, 50790, Note_on_c, 1, 81, 0
3, 50790, Note_on_c, 1, 79, 90
3, 50819, Note_on_c, 1, 79, 0
3, 50820, Note_on_c, 1, 78, 90
3, 50879, Note_on_c, 1, 78, 0
3, 50880, Note_on_c, 1, 78, 90
3, 50939, Note_on_c, 1, 78, 0
3, 50940, Note_on_c, 1, 81, 90
3, 50999, Note_on_c, 1, 81, 0
3, 51000, Note_on_c, 1, 79, 90
3, 51029, Note_on_c, 1, 79, 0
3, 51030, Note_on_c, 1, 78, 90
3, 51059, Note_on_c, 1, 78, 0
3, 51060, Note_on_c, 1, 76, 90
3, 51089, Note_on_c, 1, 76, 0
3, 51090, Note_on_c, 1, 74, 90
3, 51119, Note_on_c, 1, 74, 0
3, 51120, Note_on_c, 1, 83, 90
3, 51179, Note_on_c, 1, 83, 0
3, 51180, Note_on_c, 1, 86, 90
3, 51209, Note_on_c, 1, 86, 0
3, 51210, Note_on_c, 1, 84, 90
3, 51239, Note_on_c, 1, 84, 0
3, 51240, Note_on_c, 1, 83, 90
3, 51299, Note_on_c, 1, 83, 0
3, 51300, Note_on_c, 1, 81, 90
3, 51359, Note_on_c, 1, 81, 0
3, 51360, Note_on_c, 1, 79, 90
3, 51389, Note_on_c, 1, 79, 0
3, 51390, Note_on_c, 1, 78, 90
3, 51419, Note_on_c, 1, 78, 0
3, 51420, Note_on_c, 1, 76, 90
3, 51449, Note_on_c, 1, 76, 0
3, 51450, Note_on_c, 1, 74, 90
3, 51479, Note_on_c, 1, 74, 0
3, 51480, Note_on_c, 1, 76, 90
3, 51870, Note_on_c, 1, 76, 0
3, 51870, Note_on_c, 1, 76, 90
3, 51899, Note_on_c, 1, 76, 0
3, 51900, Note_on_c, 1, 74, 90
3, 51929, Note_on_c, 1, 74, 0
3, 51930, Note_on_c, 1, 76, 90
3, 51959, Note_on_c, 1, 76, 0
3, 51960, Note_on_c, 1, 72, 90
3, 51989, Note_on_c, 1, 72, 0
3, 51990, Note_on_c, 1, 76, 90
3, 52019, Note_on_c, 1, 76, 0
3, 52020, Note_on_c, 1, 71, 90
3, 52049, Note_on_c, 1, 71, 0
3, 52050, Note_on_c, 1, 76, 90
3, 52079, Note_on_c, 1, 76, 0
3, 52080, Note_on_c, 1, 69, 90
3, 52109, Note_on_c, 1, 69, 0
3, 52110, Note_on_c, 1, 76, 90
3, 52139, Note_on_c, 1, 76, 0
3, 52140, Note_on_c, 1, 72, 90
3, 52169, Note_on_c, 1, 72, 0
3, 52170, Note_on_c, 1, 76, 90
3, 52199, Note_on_c, 1, 76, 0
3, 52200, Note_on_c, 1, 74, 90
3, 52215, Note_on_c, 1, 74, 0
3, 52215, Note_on_c, 1, 76, 90
3, 52230, Note_on_c, 1, 76, 0
3, 52230, Note_on_c, 1, 74, 90
3, 52590, Note_on_c, 1, 74, 0
3, 52590, Note_on_c, 1, 74, 90
3, 52619, Note_on_c, 1, 74, 0
3, 52620, Note_on_c, 1, 72, 90
3, 52649, Note_on_c, 1, 72, 0
3, 52650, Note_on_c, 1, 74, 90
3, 52679, Note_on_c, 1, 74, 0
3, 52680, Note_on_c, 1, 71, 90
3, 52709, Note_on_c, 1, 71, 0
3, 52710, Note_on_c, 1, 74, 90
3, 52739, Note_on_c, 1, 74, 0
3, 52740, Note_on_c, 1, 69, 90
3, 52769, Note_on_c, 1, 69, 0
3, 52770, Note_on_c, 1, 74, 90
3, 52799, Note_on_c, 1, 74, 0
3, 52800, Note_on_c, 1, 67, 90
3, 52829, Note_on_c, 1, 67, 0
3, 52830, Note_on_c, 1, 74, 90
3, 52859, Note_on_c, 1, 74, 0
3, 52860, Note_on_c, 1, 71, 90
3, 52889, Note_on_c, 1, 71, 0
3, 52890, Note_on_c, 1, 74, 90
3, 52919, Note_on_c, 1, 74, 0
3, 52920, Note_on_c, 1, 72, 90
3, 52979, Note_on_c, 1, 72, 0
3, 52980, Note_on_c, 1, 72, 90
3, 53009, Note_on_c, 1, 72, 0
3, 53010, Note_on_c, 1, 71, 90
3, 53039, Note_on_c, 1, 71, 0
3, 53040, Note_on_c, 1, 72, 90
3, 53069, Note_on_c, 1, 72, 0
3, 53100, Note_on_c, 1, 72, 90
3, 53129, Note_on_c, 1, 72, 0
3, 53160, Note_on_c, 1, 72, 90
3, 53189, Note_on_c, 1, 72, 0
3, 53220, Note_on_c, 1, 72, 90
3, 53249, Note_on_c, 1, 72, 0
3, 53280, Note_on_c, 1, 72, 90
3, 53339, Note_on_c, 1, 72, 0
3, 53340, Note_on_c, 1, 72, 90
3, 53369, Note_on_c, 1, 72, 0
3, 53370, Note_on_c, 1, 71, 90
3, 53399, Note_on_c, 1, 71, 0
3, 53400, Note_on_c, 1, 72, 90
3, 53429, Note_on_c, 1, 72, 0
3, 53460, Note_on_c, 1, 72, 90
3, 53489, Note_on_c, 1, 72, 0
3, 53520, Note_on_c, 1, 72, 90
3, 53549, Note_on_c, 1, 72, 0
3, 53580, Note_on_c, 1, 72, 90
3, 53609, Note_on_c, 1, 72, 0
3, 53640, Note_on_c, 1, 72, 90
3, 53699, Note_on_c, 1, 72, 0
3, 53700, Note_on_c, 1, 72, 90
3, 53729, Note_on_c, 1, 72, 0
3, 53730, Note_on_c, 1, 71, 90
3, 53759, Note_on_c, 1, 71, 0
3, 53760, Note_on_c, 1, 72, 90
3, 53789, Note_on_c, 1, 72, 0
3, 53820, Note_on_c, 1, 72, 90
3, 53849, Note_on_c, 1, 72, 0
3, 53880, Note_on_c, 1, 72, 90
3, 53909, Note_on_c, 1, 72, 0
3, 53940, Note_on_c, 1, 72, 90
3, 53969, Note_on_c, 1, 72, 0
3, 54000, Note_on_c, 1, 72, 90
3, 54029, Note_on_c, 1, 72, 0
3, 54030, Note_on_c, 1, 71, 90
3, 54059, Note_on_c, 1, 71, 0
3, 54060, Note_on_c, 1, 69, 90
3, 54089, Note_on_c, 1, 69, 0
3, 54090, Note_on_c, 1, 67, 90
3, 54119, Note_on_c, 1, 67, 0
3, 54120, Note_on_c, 1, 66, 90
3, 54149, Note_on_c, 1, 66, 0
3, 54150, Note_on_c, 1, 64, 90
3, 54179, Note_on_c, 1, 64, 0
3, 54180, Note_on_c, 1, 62, 90
3, 54209, Note_on_c, 1, 62, 0
3, 54540, Note_on_c, 1, 62, 90
3, 54599, Note_on_c, 1, 62, 0
3, 54600, Note_on_c, 1, 67, 90
3, 54629, Note_on_c, 1, 67, 0
3, 54630, Note_on_c, 1, 69, 90
3, 54659, Note_on_c, 1, 69, 0
3, 54660, Note_on_c, 1, 71, 90
3, 54689, Note_on_c, 1, 71, 0
3, 54720, Note_on_c, 1, 71, 90
3, 54735, Note_on_c, 1, 71, 0
3, 54735, Note_on_c, 1, 72, 90
3, 54750, Note_on_c, 1, 72, 0
3, 54750, Note_on_c, 1, 71, 90
3, 54779, Note_on_c, 1, 71, 0
3, 54780, Note_on_c, 1, 69, 90
3, 54839, Note_on_c, 1, 69, 0
3, 54840, Note_on_c, 1, 69, 90
3, 54899, Note_on_c, 1, 69, 0
3, 54900, Note_on_c, 1, 66, 90
3, 54929, Note_on_c, 1, 66, 0
3, 54930, Note_on_c, 1, 67, 90
3, 54959, Note_on_c, 1, 67, 0
3, 54960, Note_on_c, 1, 69, 90
3, 54989, Note_on_c, 1, 69, 0
3, 54990, Note_on_c, 1, 71, 90
3, 55019, Note_on_c, 1, 71, 0
3, 55020, Note_on_c, 1, 72, 90
3, 55049, Note_on_c, 1, 72, 0
3, 55080, Note_on_c, 1, 72, 90
3, 55095, Note_on_c, 1, 72, 0
3, 55095, Note_on_c, 1, 74, 90
3, 55110, Note_on_c, 1, 74, 0
3, 55110, Note_on_c, 1, 72, 90
3, 55139, Note_on_c, 1, 72, 0
3, 55140, Note_on_c, 1, 71, 90
3, 55199, Note_on_c, 1, 71, 0
3, 55200, Note_on_c, 1, 71, 90
3, 55259, Note_on_c, 1, 71, 0
3, 55260, Note_on_c, 1, 74, 90
3, 55289, Note_on_c, 1, 74, 0
3, 55320, Note_on_c, 1, 72, 90
3, 55349, Note_on_c, 1, 72, 0
3, 55350, Note_on_c, 1, 71, 90
3, 55379, Note_on_c, 1, 71, 0
3, 55380, Note_on_c, 1, 69, 90
3, 55409, Note_on_c, 1, 69, 0
3, 55410, Note_on_c, 1, 67, 90
3, 55439, Note_on_c, 1, 67, 0
3, 55440, Note_on_c, 1, 76, 90
3, 55499, Note_on_c, 1, 76, 0
3, 55500, Note_on_c, 1, 79, 90
3, 55529, Note_on_c, 1, 79, 0
3, 55530, Note_on_c, 1, 78, 90
3, 55559, Note_on_c, 1, 78, 0
3, 55560, Note_on_c, 1, 76, 90
3, 55589, Note_on_c, 1, 76, 0
3, 55620, Note_on_c, 1, 74, 90
3, 55649, Note_on_c, 1, 74, 0
3, 55680, Note_on_c, 1, 72, 90
3, 55709, Note_on_c, 1, 72, 0
3, 55710, Note_on_c, 1, 71, 90
3, 55739, Note_on_c, 1, 71, 0
3, 55740, Note_on_c, 1, 69, 90
3, 55769, Note_on_c, 1, 69, 0
3, 55770, Note_on_c, 1, 67, 90
3, 55799, Note_on_c, 1, 67, 0
3, 55800, Note_on_c, 1, 66, 90
3, 55829, Note_on_c, 1, 66, 0
3, 55830, Note_on_c, 1, 64, 90
3, 55859, Note_on_c, 1, 64, 0
3, 55860, Note_on_c, 1, 62, 90
3, 55889, Note_on_c, 1, 62, 0
3, 55890, Note_on_c, 1, 64, 90
3, 55919, Note_on_c, 1, 64, 0
3, 55920, Note_on_c, 1, 65, 90
3, 55949, Note_on_c, 1, 65, 0
3, 55950, Note_on_c, 1, 62, 90
3, 55979, Note_on_c, 1, 62, 0
3, 55980, Note_on_c, 1, 65, 90
3, 56009, Note_on_c, 1, 65, 0
3, 56010, Note_on_c, 1, 71, 90
3, 56039, Note_on_c, 1, 71, 0
3, 56040, Note_on_c, 1, 74, 90
3, 56219, Note_on_c, 1, 74, 0
3, 56220, Note_on_c, 1, 64, 90
3, 56279, Note_on_c, 1, 64, 0
3, 56280, Note_on_c, 1, 72, 90
3, 56550, Note_on_c, 1, 72, 0
3, 56550, Note_on_c, 1, 72, 90
3, 56579, Note_on_c, 1, 72, 0
3, 56580, Note_on_c, 1, 71, 90
3, 56609, Note_on_c, 1, 71, 0
3, 56610, Note_on_c, 1, 69, 90
3, 56639, Note_on_c, 1, 69, 0
3, 56640, Note_on_c, 1, 71, 90
3, 56669, Note_on_c, 1, 71, 0
3, 56670, Note_on_c, 1, 72, 90
3, 56699, Note_on_c, 1, 72, 0
3, 56700, Note_on_c, 1, 74, 90
3, 56729, Note_on_c, 1, 74, 0
3, 56730, Note_on_c, 1, 71, 90
3, 56759, Note_on_c, 1, 71, 0
3, 56760, Note_on_c, 1, 64, 90
3, 56910, Note_on_c, 1, 64, 0
3, 56910, Note_on_c, 1, 71, 90
3, 56939, Note_on_c, 1, 71, 0
3, 56940, Note_on_c, 1, 69, 90
3, 56969, Note_on_c, 1, 69, 0
3, 56970, Note_on_c, 1, 68, 90
3, 56999, Note_on_c, 1, 68, 0
3, 57000, Note_on_c, 1, 69, 90
3, 57029, Note_on_c, 1, 69, 0
3, 57030, Note_on_c, 1, 71, 90
3, 57059, Note_on_c, 1, 71, 0
3, 57060, Note_on_c, 1, 72, 90
3, 57089, Note_on_c, 1, 72, 0
3, 57090, Note_on_c, 1, 69, 90
3, 57119, Note_on_c, 1, 69, 0
3, 57120, Note_on_c, 1, 62, 90
3, 57270, Note_on_c, 1, 62, 0
3, 57270, Note_on_c, 1, 81, 90
3, 57299, Note_on_c, 1, 81, 0
3, 57300, Note_on_c, 1, 79, 90
3, 57329, Note_on_c, 1, 79, 0
3, 57330, Note_on_c, 1, 78, 90
3, 57359, Note_on_c, 1, 78, 0
3, 57360, Note_on_c, 1, 79, 90
3, 57389, Note_on_c, 1, 79, 0
3, 57390, Note_on_c, 1, 81, 90
3, 57419, Note_on_c, 1, 81, 0
3, 57420, Note_on_c, 1, 83, 90
3, 57449, Note_on_c, 1, 83, 0
3, 57450, Note_on_c, 1, 79, 90
3, 57479, Note_on_c, 1, 79, 0
3, 57480, Note_on_c, 1, 72, 90
3, 57509, Note_on_c, 1, 72, 0
3, 57510, Note_on_c, 1, 77, 90
3, 57539, Note_on_c, 1, 77, 0
3, 57540, Note_on_c, 1, 76, 90
3, 57569, Note_on_c, 1, 76, 0
3, 57570, Note_on_c, 1, 74, 90
3, 57599, Note_on_c, 1, 74, 0
3, 57600, Note_on_c, 1, 76, 90
3, 57629, Note_on_c, 1, 76, 0
3, 57630, Note_on_c, 1, 78, 90
3, 57659, Note_on_c, 1, 78, 0
3, 57660, Note_on_c, 1, 79, 90
3, 57689, Note_on_c, 1, 79, 0
3, 57690, Note_on_c, 1, 76, 90
3, 57719, Note_on_c, 1, 76, 0
3, 57720, Note_on_c, 1, 69, 90
3, 57749, Note_on_c, 1, 69, 0
3, 57750, Note_on_c, 1, 74, 90
3, 57779, Note_on_c, 1, 74, 0
3, 57780, Note_on_c, 1, 72, 90
3, 57809, Note_on_c, 1, 72, 0
3, 57810, Note_on_c, 1, 71, 90
3, 57839, Note_on_c, 1, 71, 0
3, 57840, Note_on_c, 1, 72, 90
3, 57869, Note_on_c, 1, 72, 0
3, 57870, Note_on_c, 1, 74, 90
3, 57899, Note_on_c, 1, 74, 0
3, 57900, Note_on_c, 1, 76, 90
3, 57929, Note_on_c, 1, 76, 0
3, 57930, Note_on_c, 1, 72, 90
3, 57959, Note_on_c, 1, 72, 0
3, 57960, Note_on_c, 1, 66, 90
3, 57989, Note_on_c, 1, 66, 0
3, 57990, Note_on_c, 1, 67, 90
3, 58019, Note_on_c, 1, 67, 0
3, 58020, Note_on_c, 1, 69, 90
3, 58109, Note_on_c, 1, 69, 0
3, 58110, Note_on_c, 1, 72, 90
3, 58139, Note_on_c, 1, 72, 0
3, 58140, Note_on_c, 1, 71, 90
3, 58229, Note_on_c, 1, 71, 0
3, 58230, Note_on_c, 1, 72, 90
3, 58259, Note_on_c, 1, 72, 0
3, 58260, Note_on_c, 1, 74, 90
3, 58349, Note_on_c, 1, 74, 0
3, 58350, Note_on_c, 1, 77, 90
3, 58379, Note_on_c, 1, 77, 0
3, 58380, Note_on_c, 1, 76, 90
3, 58469, Note_on_c, 1, 76, 0
3, 58470, Note_on_c, 1, 74, 90
3, 58499, Note_on_c, 1, 74, 0
3, 58500, Note_on_c, 1, 76, 90
3, 58589, Note_on_c, 1, 76, 0
3, 58590, Note_on_c, 1, 81, 90
3, 58619, Note_on_c, 1, 81, 0
3, 58620, Note_on_c, 1, 79, 90
3, 58709, Note_on_c, 1, 79, 0
3, 58710, Note_on_c, 1, 83, 90
3, 58739, Note_on_c, 1, 83, 0
3, 58740, Note_on_c, 1, 81, 90
3, 58769, Note_on_c, 1, 81, 0
3, 58770, Note_on_c, 1, 79, 90
3, 58799, Note_on_c, 1, 79, 0
3, 58800, Note_on_c, 1, 78, 90
3, 58829, Note_on_c, 1, 78, 0
3, 58830, Note_on_c, 1, 76, 90
3, 58859, Note_on_c, 1, 76, 0
3, 58860, Note_on_c, 1, 74, 90
3, 58889, Note_on_c, 1, 74, 0
3, 58890, Note_on_c, 1, 72, 90
3, 58919, Note_on_c, 1, 72, 0
3, 58920, Note_on_c, 1, 71, 90
3, 58949, Note_on_c, 1, 71, 0
3, 58950, Note_on_c, 1, 69, 90
3, 58979, Note_on_c, 1, 69, 0
3, 58980, Note_on_c, 1, 67, 90
3, 59009, Note_on_c, 1, 67, 0
3, 59010, Note_on_c, 1, 71, 90
3, 59039, Note_on_c, 1, 71, 0
3, 59040, Note_on_c, 1, 64, 90
3, 59115, Note_on_c, 1, 64, 0
3, 59115, Note_on_c, 1, 66, 90
3, 59129, Note_on_c, 1, 66, 0
3, 59130, Note_on_c, 1, 64, 90
3, 59144, Note_on_c, 1, 64, 0
3, 59145, Note_on_c, 1, 66, 90
3, 59159, Note_on_c, 1, 66, 0
3, 59160, Note_on_c, 1, 67, 90
3, 59175, Note_on_c, 1, 67, 0
3, 59175, Note_on_c, 1, 66, 90
3, 59190, Note_on_c, 1, 66, 0
3, 59190, Note_on_c, 1, 67, 90
3, 59205, Note_on_c, 1, 67, 0
3, 59205, Note_on_c, 1, 66, 90
3, 59220, Note_on_c, 1, 66, 0
3, 59220, Note_on_c, 1, 67, 90
3, 59235, Note_on_c, 1, 67, 0
3, 59235, Note_on_c, 1, 66, 90
3, 59250, Note_on_c, 1, 66, 0
3, 59250, Note_on_c, 1, 67, 90
3, 59265, Note_on_c, 1, 67, 0
3, 59265, Note_on_c, 1, 66, 90
3, 59280, Note_on_c, 1, 66, 0
3, 59280, Note_on_c, 1, 67, 90
3, 59295, Note_on_c, 1, 67, 0
3, 59295, Note_on_c, 1, 66, 90
3, 59310, Note_on_c, 1, 66, 0
3, 59310, Note_on_c, 1, 67, 90
3, 59325, Note_on_c, 1, 67, 0
3, 59325, Note_on_c, 1, 66, 90
3, 59340, Note_on_c, 1, 66, 0
3, 59340, Note_on_c, 1, 64, 90
3, 59369, Note_on_c, 1, 64, 0
3, 59370, Note_on_c, 1, 66, 90
3, 59399, Note_on_c, 1, 66, 0
3, 59400, Note_on_c, 1, 67, 90
3, 59519, Note_on_c, 1, 67, 0
3, 59580, Note_on_c, 1, 62, 90
3, 59639, Note_on_c, 1, 62, 0
3, 59640, Note_on_c, 1, 67, 90
3, 59669, Note_on_c, 1, 67, 0
3, 59670, Note_on_c, 1, 69, 90
3, 59699, Note_on_c, 1, 69, 0
3, 59700, Note_on_c, 1, 71, 90
3, 59729, Note_on_c, 1, 71, 0
3, 59760, Note_on_c, 1, 71, 90
3, 59775, Note_on_c, 1, 71, 0
3, 59775, Note_on_c, 1, 72, 90
3, 59790, Note_on_c, 1, 72, 0
3, 59790, Note_on_c, 1, 71, 90
3, 59819, Note_on_c, 1, 71, 0
3, 59820, Note_on_c, 1, 69, 90
3, 59879, Note_on_c, 1, 69, 0
3, 59880, Note_on_c, 1, 69, 90
3, 59939, Note_on_c, 1, 69, 0
3, 59940, Note_on_c, 1, 66, 90
3, 59969, Note_on_c, 1, 66, 0
3, 59970, Note_on_c, 1, 67, 90
3, 59999, Note_on_c, 1, 67, 0
3, 60000, Note_on_c, 1, 69, 90
3, 60029, Note_on_c, 1, 69, 0
3, 60030, Note_on_c, 1, 71, 90
3, 60059, Note_on_c, 1, 71, 0
3, 60060, Note_on_c, 1, 72, 90
3, 60089, Note_on_c, 1, 72, 0
3, 60120, Note_on_c, 1, 72, 90
3, 60135, Note_on_c, 1, 72, 0
3, 60135, Note_on_c, 1, 74, 90
3, 60150, Note_on_c, 1, 74, 0
3, 60150, Note_on_c, 1, 72, 90
3, 60179, Note_on_c, 1, 72, 0
3, 60180, Note_on_c, 1, 71, 90
3, 60239, Note_on_c, 1, 71, 0
3, 60240, Note_on_c, 1, 71, 90
3, 60299, Note_on_c, 1, 71, 0
3, 60300, Note_on_c, 1, 74, 90
3, 60359, Note_on_c, 1, 74, 0
3, 60360, Note_on_c, 1, 72, 90
3, 60389, Note_on_c, 1, 72, 0
3, 60390, Note_on_c, 1, 71, 90
3, 60419, Note_on_c, 1, 71, 0
3, 60420, Note_on_c, 1, 69, 90
3, 60449, Note_on_c, 1, 69, 0
3, 60450, Note_on_c, 1, 67, 90
3, 60479, Note_on_c, 1, 67, 0
3, 60480, Note_on_c, 1, 76, 90
3, 60539, Note_on_c, 1, 76, 0
3, 60540, Note_on_c, 1, 79, 90
3, 60569, Note_on_c, 1, 79, 0
3, 60570, Note_on_c, 1, 78, 90
3, 60599, Note_on_c, 1, 78, 0
3, 60600, Note_on_c, 1, 76, 90
3, 60629, Note_on_c, 1, 76, 0
3, 60660, Note_on_c, 1, 74, 90
3, 60689, Note_on_c, 1, 74, 0
3, 60720, Note_on_c, 1, 72, 90
3, 60749, Note_on_c, 1, 72, 0
3, 60750, Note_on_c, 1, 71, 90
3, 60779, Note_on_c, 1, 71, 0
3, 60780, Note_on_c, 1, 69, 90
3, 60809, Note_on_c, 1, 69, 0
3, 60810, Note_on_c, 1, 67, 90
3, 60839, Note_on_c, 1, 67, 0
3, 60840, Note_on_c, 1, 78, 90
3, 60869, Note_on_c, 1, 78, 0
3, 60870, Note_on_c, 1, 76, 90
3, 60899, Note_on_c, 1, 76, 0
3, 60900, Note_on_c, 1, 74, 90
3, 60929, Note_on_c, 1, 74, 0
3, 60930, Note_on_c, 1, 81, 90
3, 60959, Note_on_c, 1, 81, 0
3, 60960, Note_on_c, 1, 72, 90
3, 60989, Note_on_c, 1, 72, 0
3, 60990, Note_on_c, 1, 71, 90
3, 61049, Note_on_c, 1, 71, 0
3, 61050, Note_on_c, 1, 69, 90
3, 61079, Note_on_c, 1, 69, 0
3, 61080, Note_on_c, 1, 69, 90
3, 61095, Note_on_c, 1, 69, 0
3, 61095, Note_on_c, 1, 71, 90
3, 61110, Note_on_c, 1, 71, 0
3, 61110, Note_on_c, 1, 69, 90
3, 61125, Note_on_c, 1, 69, 0
3, 61125, Note_on_c, 1, 71, 90
3, 61140, Note_on_c, 1, 71, 0
3, 61140, Note_on_c, 1, 69, 90
3, 61170, Note_on_c, 1, 69, 0
3, 61170, Note_on_c, 1, 67, 90
3, 61199, Note_on_c, 1, 67, 0
3, 61200, Note_on_c, 1, 67, 90
3, 61559, Note_on_c, 1, 67, 0
3, 61920, Note_on_c, 1, 71, 100
3, 61950, Note_on_c, 1, 71, 0
3, 61950, Note_on_c, 1, 75, 100
3, 61980, Note_on_c, 1, 75, 0
3, 61980, Note_on_c, 1, 76, 100
3, 62010, Note_on_c, 1, 76, 0
3, 62010, Note_on_c, 1, 79, 100
3, 62040, Note_on_c, 1, 79, 0
3, 62040, Note_on_c, 1, 71, 100
3, 62070, Note_on_c, 1, 71, 0
3, 62070, Note_on_c, 1, 75, 100
3, 62100, Note_on_c, 1, 75, 0
3, 62100, Note_on_c, 1, 76, 100
3, 62130, Note_on_c, 1, 76, 0
3, 62130, Note_on_c, 1, 79, 100
3, 62160, Note_on_c, 1, 79, 0
3, 62160, Note_on_c, 1, 72, 100
3, 62190, Note_on_c, 1, 72, 0
3, 62190, Note_on_c, 1, 71, 100
3, 62220, Note_on_c, 1, 71, 0
3, 62220, Note_on_c, 1, 72, 100
3, 62250, Note_on_c, 1, 72, 0
3, 62250, Note_on_c, 1, 76, 100
3, 62280, Note_on_c, 1, 76, 0
3, 62280, Note_on_c, 1, 72, 100
3, 62310, Note_on_c, 1, 72, 0
3, 62310, Note_on_c, 1, 71, 100
3, 62340, Note_on_c, 1, 71, 0
3, 62340, Note_on_c, 1, 72, 100
3, 62370, Note_on_c, 1, 72, 0
3, 62370, Note_on_c, 1, 76, 100
3, 62400, Note_on_c, 1, 76, 0
3, 62400, Note_on_c, 1, 69, 100
3, 62430, Note_on_c, 1, 69, 0
3, 62430, Note_on_c, 1, 72, 100
3, 62460, Note_on_c, 1, 72, 0
3, 62460, Note_on_c, 1, 75, 100
3, 62490, Note_on_c, 1, 75, 0
3, 62490, Note_on_c, 1, 78, 100
3, 62520, Note_on_c, 1, 78, 0
3, 62520, Note_on_c, 1, 69, 100
3, 62550, Note_on_c, 1, 69, 0
3, 62550, Note_on_c, 1, 72, 100
3, 62580, Note_on_c, 1, 72, 0
3, 62580, Note_on_c, 1, 75, 100
3, 62610, Note_on_c, 1, 75, 0
3, 62610, Note_on_c, 1, 78, 100
3, 62640, Note_on_c, 1, 78, 0
3, 62640, Note_on_c, 1, 67, 100
3, 62670, Note_on_c, 1, 67, 0
3, 62670, Note_on_c, 1, 66, 100
3, 62700, Note_on_c, 1, 66, 0
3, 62700, Note_on_c, 1, 67, 100
3, 62730, Note_on_c, 1, 67, 0
3, 62730, Note_on_c, 1, 71, 100
3, 62760, Note_on_c, 1, 71, 0
3, 62760, Note_on_c, 1, 67, 100
3, 62790, Note_on_c, 1, 67, 0
3, 62790, Note_on_c, 1, 66, 100
3, 62820, Note_on_c, 1, 66, 0
3, 62820, Note_on_c, 1, 67, 100
3, 62850, Note_on_c, 1, 67, 0
3, 62850, Note_on_c, 1, 71, 100
3, 62880, Note_on_c, 1, 71, 0
3, 62880, Note_on_c, 1, 64, 100
3, 62910, Note_on_c, 1, 64, 0
3, 62910, Note_on_c, 1, 66, 100
3, 62940, Note_on_c, 1, 66, 0
3, 62940, Note_on_c, 1, 68, 100
3, 62970, Note_on_c, 1, 68, 0
3, 62970, Note_on_c, 1, 71, 100
3, 63000, Note_on_c, 1, 71, 0
3, 63000, Note_on_c, 1, 76, 100
3, 63030, Note_on_c, 1, 76, 0
3, 63030, Note_on_c, 1, 78, 100
3, 63060, Note_on_c, 1, 78, 0
3, 63060, Note_on_c, 1, 80, 100
3, 63090, Note_on_c, 1, 80, 0
3, 63090, Note_on_c, 1, 83, 100
3, 63120, Note_on_c, 1, 83, 0
3, 63120, Note_on_c, 1, 77, 100
3, 63180, Note_on_c, 1, 77, 0
3, 63180, Note_on_c, 1, 80, 100
3, 63240, Note_on_c, 1, 80, 0
3, 63240, Note_on_c, 1, 77, 100
3, 63300, Note_on_c, 1, 77, 0
3, 63300, Note_on_c, 1, 73, 100
3, 63360, Note_on_c, 1, 73, 0
3, 63360, Note_on_c, 1, 66, 100
3, 63390, Note_on_c, 1, 66, 0
3, 63390, Note_on_c, 1, 68, 100
3, 63420, Note_on_c, 1, 68, 0
3, 63420, Note_on_c, 1, 69, 100
3, 63450, Note_on_c, 1, 69, 0
3, 63450, Note_on_c, 1, 73, 100
3, 63480, Note_on_c, 1, 73, 0
3, 63480, Note_on_c, 1, 78, 100
3, 63510, Note_on_c, 1, 78, 0
3, 63510, Note_on_c, 1, 80, 100
3, 63540, Note_on_c, 1, 80, 0
3, 63540, Note_on_c, 1, 81, 100
3, 63570, Note_on_c, 1, 81, 0
3, 63570, Note_on_c, 1, 78, 100
3, 63600, Note_on_c, 1, 78, 0
3, 63600, Note_on_c, 1, 72, 100
3, 63660, Note_on_c, 1, 72, 0
3, 63660, Note_on_c, 1, 75, 100
3, 63720, Note_on_c, 1, 75, 0
3, 63720, Note_on_c, 1, 71, 100
3, 63780, Note_on_c, 1, 71, 0
3, 63780, Note_on_c, 1, 68, 100
3, 63840, Note_on_c, 1, 68, 0
3, 63840, Note_on_c, 1, 71, 100
3, 63870, Note_on_c, 1, 71, 0
3, 63870, Note_on_c, 1, 74, 100
3, 63900, Note_on_c, 1, 74, 0
3, 63900, Note_on_c, 1, 73, 100
3, 63930, Note_on_c, 1, 73, 0
3, 63930, Note_on_c, 1, 68, 100
3, 63960, Note_on_c, 1, 68, 0
3, 63960, Note_on_c, 1, 69, 100
3, 63990, Note_on_c, 1, 69, 0
3, 63990, Note_on_c, 1, 65, 100
3, 64020, Note_on_c, 1, 65, 0
3, 64020, Note_on_c, 1, 66, 100
3, 64050, Note_on_c, 1, 66, 0
3, 64050, Note_on_c, 1, 69, 100
3, 64080, Note_on_c, 1, 69, 0
3, 64080, Note_on_c, 1, 62, 100
3, 64110, Note_on_c, 1, 62, 0
3, 64110, Note_on_c, 1, 64, 100
3, 64140, Note_on_c, 1, 64, 0
3, 64140, Note_on_c, 1, 66, 100
3, 64170, Note_on_c, 1, 66, 0
3, 64170, Note_on_c, 1, 69, 100
3, 64200, Note_on_c, 1, 69, 0
3, 64200, Note_on_c, 1, 74, 100
3, 64230, Note_on_c, 1, 74, 0
3, 64230, Note_on_c, 1, 76, 100
3, 64260, Note_on_c, 1, 76, 0
3, 64260, Note_on_c, 1, 78, 100
3, 64290, Note_on_c, 1, 78, 0
3, 64290, Note_on_c, 1, 69, 100
3, 64320, Note_on_c, 1, 69, 0
3, 64320, Note_on_c, 1, 63, 100
3, 64380, Note_on_c, 1, 63, 0
3, 64380, Note_on_c, 1, 66, 100
3, 64440, Note_on_c, 1, 66, 0
3, 64440, Note_on_c, 1, 64, 100
3, 64500, Note_on_c, 1, 64, 0
3, 64500, Note_on_c, 1, 67, 100
3, 64560, Note_on_c, 1, 67, 0
3, 64560, Note_on_c, 1, 64, 100
3, 64620, Note_on_c, 1, 64, 0
3, 64620, Note_on_c, 1, 67, 100
3, 64680, Note_on_c, 1, 67, 0
3, 64680, Note_on_c, 1, 64, 100
3, 64740, Note_on_c, 1, 64, 0
3, 64740, Note_on_c, 1, 67, 100
3, 64800, Note_on_c, 1, 67, 0
3, 64800, Note_on_c, 1, 67, 90
3, 64829, Note_on_c, 1, 67, 0
3, 64830, Note_on_c, 1, 70, 90
3, 64859, Note_on_c, 1, 70, 0
3, 64860, Note_on_c, 1, 69, 90
3, 64889, Note_on_c, 1, 69, 0
3, 64890, Note_on_c, 1, 64, 90
3, 64919, Note_on_c, 1, 64, 0
3, 64920, Note_on_c, 1, 65, 90
3, 64949, Note_on_c, 1, 65, 0
3, 64950, Note_on_c, 1, 69, 90
3, 64979, Note_on_c, 1, 69, 0
3, 64980, Note_on_c, 1, 73, 90
3, 65009, Note_on_c, 1, 73, 0
3, 65010, Note_on_c, 1, 74, 90
3, 65039, Note_on_c, 1, 74, 0
3, 65040, Note_on_c, 1, 80, 90
3, 65100, Note_on_c, 1, 80, 0
3, 65100, Note_on_c, 1, 81, 90
3, 65107, Note_on_c, 1, 80, 90
3, 65108, Note_on_c, 1, 81, 0
3, 65115, Note_on_c, 1, 80, 0
3, 65115, Note_on_c, 1, 78, 90
3, 65122, Note_on_c, 1, 80, 90
3, 65123, Note_on_c, 1, 78, 0
3, 65130, Note_on_c, 1, 80, 0
3, 65130, Note_on_c, 1, 81, 90
3, 65159, Note_on_c, 1, 81, 0
3, 65160, Note_on_c, 1, 73, 90
3, 65170, Note_on_c, 1, 73, 0
3, 65170, Note_on_c, 1, 74, 90
3, 65180, Note_on_c, 1, 74, 0
3, 65180, Note_on_c, 1, 73, 90
3, 65190, Note_on_c, 1, 73, 0
3, 65190, Note_on_c, 1, 74, 90
3, 65197, Note_on_c, 1, 73, 90
3, 65198, Note_on_c, 1, 74, 0
3, 65205, Note_on_c, 1, 73, 0
3, 65205, Note_on_c, 1, 74, 90
3, 65212, Note_on_c, 1, 73, 90
3, 65213, Note_on_c, 1, 74, 0
3, 65220, Note_on_c, 1, 73, 0
3, 65220, Note_on_c, 1, 74, 90
3, 65227, Note_on_c, 1, 73, 90
3, 65228, Note_on_c, 1, 74, 0
3, 65250, Note_on_c, 1, 73, 0
3, 65250, Note_on_c, 1, 74, 90
3, 65279, Note_on_c, 1, 74, 0
3, 65280, Note_on_c, 1, 74, 90
3, 65399, Note_on_c, 1, 74, 0
3, 65520, Note_on_c, 1, 74, 90
3, 65549, Note_on_c, 1, 74, 0
3, 65550, Note_on_c, 1, 78, 90
3, 65579, Note_on_c, 1, 78, 0
3, 65580, Note_on_c, 1, 79, 90
3, 65609, Note_on_c, 1, 79, 0
3, 65610, Note_on_c, 1, 83, 90
3, 65639, Note_on_c, 1, 83, 0
3, 65640, Note_on_c, 1, 74, 90
3, 65669, Note_on_c, 1, 74, 0
3, 65670, Note_on_c, 1, 78, 90
3, 65699, Note_on_c, 1, 78, 0
3, 65700, Note_on_c, 1, 79, 90
3, 65729, Note_on_c, 1, 79, 0
3, 65730, Note_on_c, 1, 83, 90
3, 65759, Note_on_c, 1, 83, 0
3, 65760, Note_on_c, 1, 76, 90
3, 65789, Note_on_c, 1, 76, 0
3, 65790, Note_on_c, 1, 74, 90
3, 65819, Note_on_c, 1, 74, 0
3, 65820, Note_on_c, 1, 76, 90
3, 65849, Note_on_c, 1, 76, 0
3, 65850, Note_on_c, 1, 79, 90
3, 65879, Note_on_c, 1, 79, 0
3, 65880, Note_on_c, 1, 76, 90
3, 65909, Note_on_c, 1, 76, 0
3, 65910, Note_on_c, 1, 74, 90
3, 65939, Note_on_c, 1, 74, 0
3, 65940, Note_on_c, 1, 76, 90
3, 65969, Note_on_c, 1, 76, 0
3, 65970, Note_on_c, 1, 79, 90
3, 65999, Note_on_c, 1, 79, 0
3, 66000, Note_on_c, 1, 69, 90
3, 66029, Note_on_c, 1, 69, 0
3, 66030, Note_on_c, 1, 73, 90
3, 66059, Note_on_c, 1, 73, 0
3, 66060, Note_on_c, 1, 74, 90
3, 66089, Note_on_c, 1, 74, 0
3, 66090, Note_on_c, 1, 78, 90
3, 66119, Note_on_c, 1, 78, 0
3, 66120, Note_on_c, 1, 69, 90
3, 66149, Note_on_c, 1, 69, 0
3, 66150, Note_on_c, 1, 73, 90
3, 66179, Note_on_c, 1, 73, 0
3, 66180, Note_on_c, 1, 74, 90
3, 66209, Note_on_c, 1, 74, 0
3, 66210, Note_on_c, 1, 78, 90
3, 66239, Note_on_c, 1, 78, 0
3, 66240, Note_on_c, 1, 66, 90
3, 66299, Note_on_c, 1, 66, 0
3, 66300, Note_on_c, 1, 69, 90
3, 66359, Note_on_c, 1, 69, 0
3, 66360, Note_on_c, 1, 66, 90
3, 66419, Note_on_c, 1, 66, 0
3, 66420, Note_on_c, 1, 62, 90
3, 66479, Note_on_c, 1, 62, 0
3, 66480, Note_on_c, 1, 66, 90
3, 66509, Note_on_c, 1, 66, 0
3, 66510, Note_on_c, 1, 67, 90
3, 66539, Note_on_c, 1, 67, 0
3, 66540, Note_on_c, 1, 69, 90
3, 66569, Note_on_c, 1, 69, 0
3, 66570, Note_on_c, 1, 75, 90
3, 66599, Note_on_c, 1, 75, 0
3, 66600, Note_on_c, 1, 78, 90
3, 66629, Note_on_c, 1, 78, 0
3, 66630, Note_on_c, 1, 79, 90
3, 66659, Note_on_c, 1, 79, 0
3, 66660, Note_on_c, 1, 81, 90
3, 66689, Note_on_c, 1, 81, 0
3, 66690, Note_on_c, 1, 78, 90
3, 66719, Note_on_c, 1, 78, 0
3, 66720, Note_on_c, 1, 79, 90
3, 66779, Note_on_c, 1, 79, 0
3, 66780, Note_on_c, 1, 83, 90
3, 66839, Note_on_c, 1, 83, 0
3, 66840, Note_on_c, 1, 79, 90
3, 66899, Note_on_c, 1, 79, 0
3, 66900, Note_on_c, 1, 76, 90
3, 66959, Note_on_c, 1, 76, 0
3, 66960, Note_on_c, 1, 61, 90
3, 66989, Note_on_c, 1, 61, 0
3, 66990, Note_on_c, 1, 63, 90
3, 67019, Note_on_c, 1, 63, 0
3, 67020, Note_on_c, 1, 64, 90
3, 67049, Note_on_c, 1, 64, 0
3, 67050, Note_on_c, 1, 70, 90
3, 67079, Note_on_c, 1, 70, 0
3, 67080, Note_on_c, 1, 73, 90
3, 67109, Note_on_c, 1, 73, 0
3, 67110, Note_on_c, 1, 75, 90
3, 67139, Note_on_c, 1, 75, 0
3, 67140, Note_on_c, 1, 76, 90
3, 67169, Note_on_c, 1, 76, 0
3, 67170, Note_on_c, 1, 79, 90
3, 67199, Note_on_c, 1, 79, 0
3, 67200, Note_on_c, 1, 77, 90
3, 67259, Note_on_c, 1, 77, 0
3, 67260, Note_on_c, 1, 75, 90
3, 67319, Note_on_c, 1, 75, 0
3, 67320, Note_on_c, 1, 76, 90
3, 67470, Note_on_c, 1, 76, 0
3, 67470, Note_on_c, 1, 66, 90
3, 67499, Note_on_c, 1, 66, 0
3, 67500, Note_on_c, 1, 67, 90
3, 67529, Note_on_c, 1, 67, 0
3, 67530, Note_on_c, 1, 76, 90
3, 67559, Note_on_c, 1, 76, 0
3, 67560, Note_on_c, 1, 75, 90
3, 67570, Note_on_c, 1, 75, 0
3, 67570, Note_on_c, 1, 76, 90
3, 67580, Note_on_c, 1, 76, 0
3, 67580, Note_on_c, 1, 75, 90
3, 67590, Note_on_c, 1, 75, 0
3, 67590, Note_on_c, 1, 76, 90
3, 67597, Note_on_c, 1, 75, 90
3, 67598, Note_on_c, 1, 76, 0
3, 67605, Note_on_c, 1, 75, 0
3, 67605, Note_on_c, 1, 76, 90
3, 67612, Note_on_c, 1, 75, 90
3, 67613, Note_on_c, 1, 76, 0
3, 67620, Note_on_c, 1, 75, 0
3, 67620, Note_on_c, 1, 76, 90
3, 67627, Note_on_c, 1, 75, 90
3, 67628, Note_on_c, 1, 76, 0
3, 67650, Note_on_c, 1, 75, 0
3, 67650, Note_on_c, 1, 76, 90
3, 67680, Note_on_c, 1, 76, 0
3, 67680, Note_on_c, 1, 72, 90
3, 67709, Note_on_c, 1, 72, 0
3, 67710, Note_on_c, 1, 75, 90
3, 67739, Note_on_c, 1, 75, 0
3, 67740, Note_on_c, 1, 76, 90
3, 67769, Note_on_c, 1, 76, 0
3, 67770, Note_on_c, 1, 81, 90
3, 67799, Note_on_c, 1, 81, 0
3, 67800, Note_on_c, 1, 72, 90
3, 67829, Note_on_c, 1, 72, 0
3, 67830, Note_on_c, 1, 75, 90
3, 67859, Note_on_c, 1, 75, 0
3, 67860, Note_on_c, 1, 76, 90
3, 67889, Note_on_c, 1, 76, 0
3, 67890, Note_on_c, 1, 81, 90
3, 67919, Note_on_c, 1, 81, 0
3, 67920, Note_on_c, 1, 71, 90
3, 67949, Note_on_c, 1, 71, 0
3, 67950, Note_on_c, 1, 75, 90
3, 67979, Note_on_c, 1, 75, 0
3, 67980, Note_on_c, 1, 76, 90
3, 68009, Note_on_c, 1, 76, 0
3, 68010, Note_on_c, 1, 79, 90
3, 68039, Note_on_c, 1, 79, 0
3, 68040, Note_on_c, 1, 71, 90
3, 68069, Note_on_c, 1, 71, 0
3, 68070, Note_on_c, 1, 75, 90
3, 68099, Note_on_c, 1, 75, 0
3, 68100, Note_on_c, 1, 76, 90
3, 68129, Note_on_c, 1, 76, 0
3, 68130, Note_on_c, 1, 79, 90
3, 68159, Note_on_c, 1, 79, 0
3, 68160, Note_on_c, 1, 69, 90
3, 68189, Note_on_c, 1, 69, 0
3, 68190, Note_on_c, 1, 75, 90
3, 68219, Note_on_c, 1, 75, 0
3, 68220, Note_on_c, 1, 76, 90
3, 68249, Note_on_c, 1, 76, 0
3, 68250, Note_on_c, 1, 78, 90
3, 68279, Note_on_c, 1, 78, 0
3, 68280, Note_on_c, 1, 69, 90
3, 68309, Note_on_c, 1, 69, 0
3, 68310, Note_on_c, 1, 75, 90
3, 68339, Note_on_c, 1, 75, 0
3, 68340, Note_on_c, 1, 76, 90
3, 68369, Note_on_c, 1, 76, 0
3, 68370, Note_on_c, 1, 78, 90
3, 68399, Note_on_c, 1, 78, 0
3, 68400, Note_on_c, 1, 67, 90
3, 68429, Note_on_c, 1, 67, 0
3, 68430, Note_on_c, 1, 75, 90
3, 68459, Note_on_c, 1, 75, 0
3, 68460, Note_on_c, 1, 76, 90
3, 68489, Note_on_c, 1, 76, 0
3, 68490, Note_on_c, 1, 83, 90
3, 68519, Note_on_c, 1, 83, 0
3, 68520, Note_on_c, 1, 67, 90
3, 68549, Note_on_c, 1, 67, 0
3, 68550, Note_on_c, 1, 75, 90
3, 68579, Note_on_c, 1, 75, 0
3, 68580, Note_on_c, 1, 76, 90
3, 68609, Note_on_c, 1, 76, 0
3, 68610, Note_on_c, 1, 83, 90
3, 68639, Note_on_c, 1, 83, 0
3, 68640, Note_on_c, 1, 66, 90
3, 68669, Note_on_c, 1, 66, 0
3, 68670, Note_on_c, 1, 75, 90
3, 68699, Note_on_c, 1, 75, 0
3, 68700, Note_on_c, 1, 76, 90
3, 68729, Note_on_c, 1, 76, 0
3, 68730, Note_on_c, 1, 84, 90
3, 68759, Note_on_c, 1, 84, 0
3, 68760, Note_on_c, 1, 66, 90
3, 68789, Note_on_c, 1, 66, 0
3, 68790, Note_on_c, 1, 75, 90
3, 68819, Note_on_c, 1, 75, 0
3, 68820, Note_on_c, 1, 76, 90
3, 68849, Note_on_c, 1, 76, 0
3, 68850, Note_on_c, 1, 84, 90
3, 68879, Note_on_c, 1, 84, 0
3, 68880, Note_on_c, 1, 67, 90
3, 68909, Note_on_c, 1, 67, 0
3, 68910, Note_on_c, 1, 75, 90
3, 68939, Note_on_c, 1, 75, 0
3, 68940, Note_on_c, 1, 76, 90
3, 68969, Note_on_c, 1, 76, 0
3, 68970, Note_on_c, 1, 83, 90
3, 68999, Note_on_c, 1, 83, 0
3, 69000, Note_on_c, 1, 67, 90
3, 69029, Note_on_c, 1, 67, 0
3, 69030, Note_on_c, 1, 75, 90
3, 69059, Note_on_c, 1, 75, 0
3, 69060, Note_on_c, 1, 76, 90
3, 69089, Note_on_c, 1, 76, 0
3, 69090, Note_on_c, 1, 83, 90
3, 69119, Note_on_c, 1, 83, 0
3, 69120, Note_on_c, 1, 68, 90
3, 69149, Note_on_c, 1, 68, 0
3, 69150, Note_on_c, 1, 76, 90
3, 69179, Note_on_c, 1, 76, 0
3, 69180, Note_on_c, 1, 74, 90
3, 69209, Note_on_c, 1, 74, 0
3, 69210, Note_on_c, 1, 83, 90
3, 69239, Note_on_c, 1, 83, 0
3, 69240, Note_on_c, 1, 68, 90
3, 69269, Note_on_c, 1, 68, 0
3, 69270, Note_on_c, 1, 76, 90
3, 69299, Note_on_c, 1, 76, 0
3, 69300, Note_on_c, 1, 74, 90
3, 69329, Note_on_c, 1, 74, 0
3, 69330, Note_on_c, 1, 83, 90
3, 69359, Note_on_c, 1, 83, 0
3, 69360, Note_on_c, 1, 72, 90
3, 69389, Note_on_c, 1, 72, 0
3, 69390, Note_on_c, 1, 75, 90
3, 69419, Note_on_c, 1, 75, 0
3, 69420, Note_on_c, 1, 76, 90
3, 69449, Note_on_c, 1, 76, 0
3, 69450, Note_on_c, 1, 81, 90
3, 69479, Note_on_c, 1, 81, 0
3, 69480, Note_on_c, 1, 71, 90
3, 69509, Note_on_c, 1, 71, 0
3, 69510, Note_on_c, 1, 75, 90
3, 69539, Note_on_c, 1, 75, 0
3, 69540, Note_on_c, 1, 76, 90
3, 69569, Note_on_c, 1, 76, 0
3, 69570, Note_on_c, 1, 79, 90
3, 69599, Note_on_c, 1, 79, 0
3, 69600, Note_on_c, 1, 70, 90
3, 69629, Note_on_c, 1, 70, 0
3, 69630, Note_on_c, 1, 75, 90
3, 69659, Note_on_c, 1, 75, 0
3, 69660, Note_on_c, 1, 76, 90
3, 69689, Note_on_c, 1, 76, 0
3, 69690, Note_on_c, 1, 79, 90
3, 69719, Note_on_c, 1, 79, 0
3, 69720, Note_on_c, 1, 71, 90
3, 69749, Note_on_c, 1, 71, 0
3, 69750, Note_on_c, 1, 75, 90
3, 69779, Note_on_c, 1, 75, 0
3, 69780, Note_on_c, 1, 76, 90
3, 69809, Note_on_c, 1, 76, 0
3, 69810, Note_on_c, 1, 79, 90
3, 69839, Note_on_c, 1, 79, 0
3, 69840, Note_on_c, 1, 73, 90
3, 69869, Note_on_c, 1, 73, 0
3, 69870, Note_on_c, 1, 75, 90
3, 69899, Note_on_c, 1, 75, 0
3, 69900, Note_on_c, 1, 76, 90
3, 69929, Note_on_c, 1, 76, 0
3, 69930, Note_on_c, 1, 79, 90
3, 69959, Note_on_c, 1, 79, 0
3, 69960, Note_on_c, 1, 78, 90
3, 69989, Note_on_c, 1, 78, 0
3, 69990, Note_on_c, 1, 76, 90
3, 70019, Note_on_c, 1, 76, 0
3, 70020, Note_on_c, 1, 75, 90
3, 70049, Note_on_c, 1, 75, 0
3, 70050, Note_on_c, 1, 76, 90
3, 70079, Note_on_c, 1, 76, 0
3, 70080, Note_on_c, 1, 75, 90
3, 70559, Note_on_c, 1, 75, 0
3, 71400, Note_on_c, 1, 74, 100
3, 71460, Note_on_c, 1, 74, 0
3, 71460, Note_on_c, 1, 72, 100
3, 71520, Note_on_c, 1, 72, 0
3, 71520, Note_on_c, 1, 71, 100
3, 71640, Note_on_c, 1, 71, 0
3, 71640, Note_on_c, 1, 67, 100
3, 71760, Note_on_c, 1, 67, 0
3, 71760, Note_on_c, 1, 79, 100
3, 71880, Note_on_c, 1, 79, 0
3, 71880, Note_on_c, 1, 74, 100
3, 72000, Note_on_c, 1, 74, 0
3, 72000, Note_on_c, 1, 71, 100
3, 72120, Note_on_c, 1, 71, 0
3, 72120, Note_on_c, 1, 69, 100
3, 72180, Note_on_c, 1, 69, 0
3, 72180, Note_on_c, 1, 67, 100
3, 72240, Note_on_c, 1, 67, 0
3, 72240, Note_on_c, 1, 74, 100
3, 72360, Note_on_c, 1, 74, 0
3, 72360, Note_on_c, 1, 74, 100
3, 72480, Note_on_c, 1, 74, 0
3, 72480, Note_on_c, 1, 74, 100
3, 72600, Note_on_c, 1, 74, 0
3, 72600, Note_on_c, 1, 72, 100
3, 72660, Note_on_c, 1, 72, 0
3, 72660, Note_on_c, 1, 71, 100
3, 72720, Note_on_c, 1, 71, 0
3, 72720, Note_on_c, 1, 72, 100
3, 72780, Note_on_c, 1, 72, 0
3, 72780, Note_on_c, 1, 74, 100
3, 72840, Note_on_c, 1, 74, 0
3, 72840, Note_on_c, 1, 76, 100
3, 72960, Note_on_c, 1, 76, 0
3, 72960, Note_on_c, 1, 76, 100
3, 73080, Note_on_c, 1, 76, 0
3, 73080, Note_on_c, 1, 69, 100
3, 73200, Note_on_c, 1, 69, 0
3, 73200, Note_on_c, 1, 69, 100
3, 73320, Note_on_c, 1, 69, 0
3, 73320, Note_on_c, 1, 72, 100
3, 73560, Note_on_c, 1, 72, 0
3, 73560, Note_on_c, 1, 71, 100
3, 73620, Note_on_c, 1, 71, 0
3, 73620, Note_on_c, 1, 69, 100
3, 73680, Note_on_c, 1, 69, 0
3, 73680, Note_on_c, 1, 71, 100
3, 73740, Note_on_c, 1, 71, 0
3, 73740, Note_on_c, 1, 72, 100
3, 73800, Note_on_c, 1, 72, 0
3, 73800, Note_on_c, 1, 74, 100
3, 73920, Note_on_c, 1, 74, 0
3, 73920, Note_on_c, 1, 74, 90
3, 74039, Note_on_c, 1, 74, 0
3, 74040, Note_on_c, 1, 67, 90
3, 74159, Note_on_c, 1, 67, 0
3, 74160, Note_on_c, 1, 67, 90
3, 74279, Note_on_c, 1, 67, 0
3, 74280, Note_on_c, 1, 79, 90
3, 74399, Note_on_c, 1, 79, 0
3, 74400, Note_on_c, 1, 81, 90
3, 74459, Note_on_c, 1, 81, 0
3, 74460, Note_on_c, 1, 79, 90
3, 74519, Note_on_c, 1, 79, 0
3, 74520, Note_on_c, 1, 78, 90
3, 74759, Note_on_c, 1, 78, 0
3, 74760, Note_on_c, 1, 76, 90
3, 74999, Note_on_c, 1, 76, 0
3, 75000, Note_on_c, 1, 74, 90
3, 75059, Note_on_c, 1, 74, 0
3, 75060, Note_on_c, 1, 73, 90
3, 75119, Note_on_c, 1, 73, 0
3, 75120, Note_on_c, 1, 71, 90
3, 75179, Note_on_c, 1, 71, 0
3, 75180, Note_on_c, 1, 69, 90
3, 75239, Note_on_c, 1, 69, 0
3, 75240, Note_on_c, 1, 71, 90
3, 75299, Note_on_c, 1, 71, 0
3, 75300, Note_on_c, 1, 73, 90
3, 75359, Note_on_c, 1, 73, 0
3, 75360, Note_on_c, 1, 74, 90
3, 75419, Note_on_c, 1, 74, 0
3, 75420, Note_on_c, 1, 69, 90
3, 75479, Note_on_c, 1, 69, 0
3, 75480, Note_on_c, 1, 71, 90
3, 75539, Note_on_c, 1, 71, 0
3, 75540, Note_on_c, 1, 73, 90
3, 75599, Note_on_c, 1, 73, 0
3, 75600, Note_on_c, 1, 74, 90
3, 75659, Note_on_c, 1, 74, 0
3, 75660, Note_on_c, 1, 76, 90
3, 75719, Note_on_c, 1, 76, 0
3, 75720, Note_on_c, 1, 78, 90
3, 75779, Note_on_c, 1, 78, 0
3, 75780, Note_on_c, 1, 79, 90
3, 75839, Note_on_c, 1, 79, 0
3, 75840, Note_on_c, 1, 81, 90
3, 75899, Note_on_c, 1, 81, 0
3, 75900, Note_on_c, 1, 83, 90
3, 75959, Note_on_c, 1, 83, 0
3, 75960, Note_on_c, 1, 81, 90
3, 76019, Note_on_c, 1, 81, 0
3, 76020, Note_on_c, 1, 79, 90
3, 76079, Note_on_c, 1, 79, 0
3, 76080, Note_on_c, 1, 78, 90
3, 76139, Note_on_c, 1, 78, 0
3, 76140, Note_on_c, 1, 76, 90
3, 76199, Note_on_c, 1, 76, 0
3, 76200, Note_on_c, 1, 74, 90
3, 76259, Note_on_c, 1, 74, 0
3, 76260, Note_on_c, 1, 73, 90
3, 76319, Note_on_c, 1, 73, 0
3, 76320, Note_on_c, 1, 71, 90
3, 76439, Note_on_c, 1, 71, 0
3, 76440, Note_on_c, 1, 83, 90
3, 76499, Note_on_c, 1, 83, 0
3, 76500, Note_on_c, 1, 81, 90
3, 76559, Note_on_c, 1, 81, 0
3, 76560, Note_on_c, 1, 79, 90
3, 76619, Note_on_c, 1, 79, 0
3, 76620, Note_on_c, 1, 78, 90
3, 76679, Note_on_c, 1, 78, 0
3, 76680, Note_on_c, 1, 76, 90
3, 76739, Note_on_c, 1, 76, 0
3, 76740, Note_on_c, 1, 74, 90
3, 76799, Note_on_c, 1, 74, 0
3, 76800, Note_on_c, 1, 73, 90
3, 76859, Note_on_c, 1, 73, 0
3, 76860, Note_on_c, 1, 71, 90
3, 76919, Note_on_c, 1, 71, 0
3, 76920, Note_on_c, 1, 69, 90
3, 76979, Note_on_c, 1, 69, 0
3, 76980, Note_on_c, 1, 71, 90
3, 77039, Note_on_c, 1, 71, 0
3, 77040, Note_on_c, 1, 73, 90
3, 77099, Note_on_c, 1, 73, 0
3, 77100, Note_on_c, 1, 74, 90
3, 77159, Note_on_c, 1, 74, 0
3, 77160, Note_on_c, 1, 76, 90
3, 77219, Note_on_c, 1, 76, 0
3, 77220, Note_on_c, 1, 73, 90
3, 77279, Note_on_c, 1, 73, 0
3, 77280, Note_on_c, 1, 81, 90
3, 77399, Note_on_c, 1, 81, 0
3, 77400, Note_on_c, 1, 69, 90
3, 77519, Note_on_c, 1, 69, 0
3, 77520, Note_on_c, 1, 69, 90
3, 77639, Note_on_c, 1, 69, 0
3, 77640, Note_on_c, 1, 74, 90
3, 77669, Note_on_c, 1, 74, 0
3, 77670, Note_on_c, 1, 73, 90
3, 77699, Note_on_c, 1, 73, 0
3, 77700, Note_on_c, 1, 71, 90
3, 77729, Note_on_c, 1, 71, 0
3, 77730, Note_on_c, 1, 73, 90
3, 77759, Note_on_c, 1, 73, 0
3, 77760, Note_on_c, 1, 74, 90
3, 77999, Note_on_c, 1, 74, 0
3, 78120, Note_on_c, 1, 78, 90
3, 78239, Note_on_c, 1, 78, 0
3, 78240, Note_on_c, 1, 76, 90
3, 78299, Note_on_c, 1, 76, 0
3, 78300, Note_on_c, 1, 78, 90
3, 78359, Note_on_c, 1, 78, 0
3, 78360, Note_on_c, 1, 79, 90
3, 78419, Note_on_c, 1, 79, 0
3, 78420, Note_on_c, 1, 81, 90
3, 78479, Note_on_c, 1, 81, 0
3, 78480, Note_on_c, 1, 74, 90
3, 78539, Note_on_c, 1, 74, 0
3, 78540, Note_on_c, 1, 76, 90
3, 78599, Note_on_c, 1, 76, 0
3, 78600, Note_on_c, 1, 78, 90
3, 78659, Note_on_c, 1, 78, 0
3, 78660, Note_on_c, 1, 79, 90
3, 78719, Note_on_c, 1, 79, 0
3, 78720, Note_on_c, 1, 72, 90
3, 79079, Note_on_c, 1, 72, 0
3, 79080, Note_on_c, 1, 71, 90
3, 79139, Note_on_c, 1, 71, 0
3, 79140, Note_on_c, 1, 69, 90
3, 79199, Note_on_c, 1, 69, 0
3, 79200, Note_on_c, 1, 67, 90
3, 79259, Note_on_c, 1, 67, 0
3, 79260, Note_on_c, 1, 66, 90
3, 79319, Note_on_c, 1, 66, 0
3, 79320, Note_on_c, 1, 67, 90
3, 79379, Note_on_c, 1, 67, 0
3, 79380, Note_on_c, 1, 69, 90
3, 79439, Note_on_c, 1, 69, 0
3, 79440, Note_on_c, 1, 71, 90
3, 79499, Note_on_c, 1, 71, 0
3, 79500, Note_on_c, 1, 72, 90
3, 79559, Note_on_c, 1, 72, 0
3, 79560, Note_on_c, 1, 74, 90
3, 79619, Note_on_c, 1, 74, 0
3, 79620, Note_on_c, 1, 76, 90
3, 79679, Note_on_c, 1, 76, 0
3, 79680, Note_on_c, 1, 74, 90
3, 79739, Note_on_c, 1, 74, 0
3, 79740, Note_on_c, 1, 79, 90
3, 79799, Note_on_c, 1, 79, 0
3, 79800, Note_on_c, 1, 78, 90
3, 79859, Note_on_c, 1, 78, 0
3, 79860, Note_on_c, 1, 76, 90
3, 79919, Note_on_c, 1, 76, 0
3, 79920, Note_on_c, 1, 74, 90
3, 79979, Note_on_c, 1, 74, 0
3, 79980, Note_on_c, 1, 72, 90
3, 80039, Note_on_c, 1, 72, 0
3, 80040, Note_on_c, 1, 71, 90
3, 80099, Note_on_c, 1, 71, 0
3, 80100, Note_on_c, 1, 69, 90
3, 80159, Note_on_c, 1, 69, 0
3, 80160, Note_on_c, 1, 67, 90
3, 80219, Note_on_c, 1, 67, 0
3, 80220, Note_on_c, 1, 71, 90
3, 80279, Note_on_c, 1, 71, 0
3, 80280, Note_on_c, 1, 72, 90
3, 80339, Note_on_c, 1, 72, 0
3, 80340, Note_on_c, 1, 74, 90
3, 80399, Note_on_c, 1, 74, 0
3, 80400, Note_on_c, 1, 76, 90
3, 80459, Note_on_c, 1, 76, 0
3, 80460, Note_on_c, 1, 78, 90
3, 80519, Note_on_c, 1, 78, 0
3, 80520, Note_on_c, 1, 79, 90
3, 80579, Note_on_c, 1, 79, 0
3, 80580, Note_on_c, 1, 76, 90
3, 80639, Note_on_c, 1, 76, 0
3, 80640, Note_on_c, 1, 81, 90
3, 80699, Note_on_c, 1, 81, 0
3, 80700, Note_on_c, 1, 79, 90
3, 80759, Note_on_c, 1, 79, 0
3, 80760, Note_on_c, 1, 78, 90
3, 80819, Note_on_c, 1, 78, 0
3, 80820, Note_on_c, 1, 79, 90
3, 80879, Note_on_c, 1, 79, 0
3, 80880, Note_on_c, 1, 81, 90
3, 80939, Note_on_c, 1, 81, 0
3, 80940, Note_on_c, 1, 79, 90
3, 80999, Note_on_c, 1, 79, 0
3, 81000, Note_on_c, 1, 78, 90
3, 81059, Note_on_c, 1, 78, 0
3, 81060, Note_on_c, 1, 76, 90
3, 81119, Note_on_c, 1, 76, 0
3, 81120, Note_on_c, 1, 78, 90
3, 81179, Note_on_c, 1, 78, 0
3, 81180, Note_on_c, 1, 81, 90
3, 81239, Note_on_c, 1, 81, 0
3, 81240, Note_on_c, 1, 79, 90
3, 81299, Note_on_c, 1, 79, 0
3, 81300, Note_on_c, 1, 78, 90
3, 81359, Note_on_c, 1, 78, 0
3, 81360, Note_on_c, 1, 76, 90
3, 81419, Note_on_c, 1, 76, 0
3, 81420, Note_on_c, 1, 74, 90
3, 81479, Note_on_c, 1, 74, 0
3, 81480, Note_on_c, 1, 72, 90
3, 81539, Note_on_c, 1, 72, 0
3, 81540, Note_on_c, 1, 74, 90
3, 81599, Note_on_c, 1, 74, 0
3, 81600, Note_on_c, 1, 71, 90
3, 81659, Note_on_c, 1, 71, 0
3, 81660, Note_on_c, 1, 69, 90
3, 81719, Note_on_c, 1, 69, 0
3, 81720, Note_on_c, 1, 71, 90
3, 81779, Note_on_c, 1, 71, 0
3, 81780, Note_on_c, 1, 72, 90
3, 81839, Note_on_c, 1, 72, 0
3, 81840, Note_on_c, 1, 74, 90
3, 81899, Note_on_c, 1, 74, 0
3, 81900, Note_on_c, 1, 76, 90
3, 81959, Note_on_c, 1, 76, 0
3, 81960, Note_on_c, 1, 78, 90
3, 82019, Note_on_c, 1, 78, 0
3, 82020, Note_on_c, 1, 79, 90
3, 82079, Note_on_c, 1, 79, 0
3, 82080, Note_on_c, 1, 73, 90
3, 82199, Note_on_c, 1, 73, 0
3, 82200, Note_on_c, 1, 81, 90
3, 82319, Note_on_c, 1, 81, 0
3, 82320, Note_on_c, 1, 71, 90
3, 82439, Note_on_c, 1, 71, 0
3, 82440, Note_on_c, 1, 79, 90
3, 82559, Note_on_c, 1, 79, 0
3, 82560, Note_on_c, 1, 69, 90
3, 82619, Note_on_c, 1, 69, 0
3, 82620, Note_on_c, 1, 72, 90
3, 82679, Note_on_c, 1, 72, 0
3, 82680, Note_on_c, 1, 71, 90
3, 82739, Note_on_c, 1, 71, 0
3, 82740, Note_on_c, 1, 69, 90
3, 82799, Note_on_c, 1, 69, 0
3, 82800, Note_on_c, 1, 67, 90
3, 82919, Note_on_c, 1, 67, 0
3, 82920, Note_on_c, 1, 79, 90
3, 83039, Note_on_c, 1, 79, 0
3, 83040, Note_on_c, 1, 79, 90
3, 83099, Note_on_c, 1, 79, 0
3, 83100, Note_on_c, 1, 78, 90
3, 83219, Note_on_c, 1, 78, 0
3, 83220, Note_on_c, 1, 76, 90
3, 83279, Note_on_c, 1, 76, 0
3, 83280, Note_on_c, 1, 76, 90
3, 83310, Note_on_c, 1, 76, 0
3, 83310, Note_on_c, 1, 78, 90
3, 83340, Note_on_c, 1, 78, 0
3, 83340, Note_on_c, 1, 76, 90
3, 83370, Note_on_c, 1, 76, 0
3, 83370, Note_on_c, 1, 78, 90
3, 83400, Note_on_c, 1, 78, 0
3, 83400, Note_on_c, 1, 76, 90
3, 83420, Note_on_c, 1, 76, 0
3, 83420, Note_on_c, 1, 74, 90
3, 83440, Note_on_c, 1, 74, 0
3, 83440, Note_on_c, 1, 76, 90
3, 83460, Note_on_c, 1, 76, 0
3, 83460, Note_on_c, 1, 74, 90
3, 83519, Note_on_c, 1, 74, 0
3, 83520, Note_on_c, 1, 74, 90
3, 83579, Note_on_c, 1, 74, 0
3, 83580, Note_on_c, 1, 78, 90
3, 83639, Note_on_c, 1, 78, 0
3, 83640, Note_on_c, 1, 76, 90
3, 83699, Note_on_c, 1, 76, 0
3, 83700, Note_on_c, 1, 74, 90
3, 83759, Note_on_c, 1, 74, 0
3, 83760, Note_on_c, 1, 81, 90
3, 83819, Note_on_c, 1, 81, 0
3, 83820, Note_on_c, 1, 78, 90
3, 83879, Note_on_c, 1, 78, 0
3, 83880, Note_on_c, 1, 76, 90
3, 83939, Note_on_c, 1, 76, 0
3, 83940, Note_on_c, 1, 74, 90
3, 83999, Note_on_c, 1, 74, 0
3, 84000, Note_on_c, 1, 72, 90
3, 84059, Note_on_c, 1, 72, 0
3, 84060, Note_on_c, 1, 76, 90
3, 84119, Note_on_c, 1, 76, 0
3, 84120, Note_on_c, 1, 74, 90
3, 84179, Note_on_c, 1, 74, 0
3, 84180, Note_on_c, 1, 72, 90
3, 84239, Note_on_c, 1, 72, 0
3, 84240, Note_on_c, 1, 81, 90
3, 84299, Note_on_c, 1, 81, 0
3, 84300, Note_on_c, 1, 76, 90
3, 84359, Note_on_c, 1, 76, 0
3, 84360, Note_on_c, 1, 74, 90
3, 84419, Note_on_c, 1, 74, 0
3, 84420, Note_on_c, 1, 72, 90
3, 84479, Note_on_c, 1, 72, 0
3, 84480, Note_on_c, 1, 71, 90
3, 84539, Note_on_c, 1, 71, 0
3, 84540, Note_on_c, 1, 75, 90
3, 84599, Note_on_c, 1, 75, 0
3, 84600, Note_on_c, 1, 73, 90
3, 84659, Note_on_c, 1, 73, 0
3, 84660, Note_on_c, 1, 71, 90
3, 84719, Note_on_c, 1, 71, 0
3, 84720, Note_on_c, 1, 81, 90
3, 84779, Note_on_c, 1, 81, 0
3, 84780, Note_on_c, 1, 79, 90
3, 84839, Note_on_c, 1, 79, 0
3, 84840, Note_on_c, 1, 78, 90
3, 84899, Note_on_c, 1, 78, 0
3, 84900, Note_on_c, 1, 76, 90
3, 84959, Note_on_c, 1, 76, 0
3, 84960, Note_on_c, 1, 75, 90
3, 85019, Note_on_c, 1, 75, 0
3, 85020, Note_on_c, 1, 76, 90
3, 85079, Note_on_c, 1, 76, 0
3, 85080, Note_on_c, 1, 78, 90
3, 85139, Note_on_c, 1, 78, 0
3, 85140, Note_on_c, 1, 79, 90
3, 85199, Note_on_c, 1, 79, 0
3, 85200, Note_on_c, 1, 81, 90
3, 85259, Note_on_c, 1, 81, 0
3, 85260, Note_on_c, 1, 79, 90
3, 85319, Note_on_c, 1, 79, 0
3, 85320, Note_on_c, 1, 81, 90
3, 85379, Note_on_c, 1, 81, 0
3, 85380, Note_on_c, 1, 78, 90
3, 85439, Note_on_c, 1, 78, 0
3, 85440, Note_on_c, 1, 79, 90
3, 85559, Note_on_c, 1, 79, 0
3, 85560, Note_on_c, 1, 71, 90
3, 85679, Note_on_c, 1, 71, 0
3, 85680, Note_on_c, 1, 76, 90
3, 85799, Note_on_c, 1, 76, 0
3, 85800, Note_on_c, 1, 79, 90
3, 85919, Note_on_c, 1, 79, 0
3, 85920, Note_on_c, 1, 83, 90
3, 86039, Note_on_c, 1, 83, 0
3, 86040, Note_on_c, 1, 80, 90
3, 86159, Note_on_c, 1, 80, 0
3, 86160, Note_on_c, 1, 76, 90
3, 86279, Note_on_c, 1, 76, 0
3, 86280, Note_on_c, 1, 71, 90
3, 86399, Note_on_c, 1, 71, 0
3, 86400, Note_on_c, 1, 68, 90
3, 86519, Note_on_c, 1, 68, 0
3, 86520, Note_on_c, 1, 71, 90
3, 86639, Note_on_c, 1, 71, 0
3, 86640, Note_on_c, 1, 64, 90
3, 86699, Note_on_c, 1, 64, 0
3, 86700, Note_on_c, 1, 66, 90
3, 86759, Note_on_c, 1, 66, 0
3, 86760, Note_on_c, 1, 68, 90
3, 86819, Note_on_c, 1, 68, 0
3, 86820, Note_on_c, 1, 69, 90
3, 86879, Note_on_c, 1, 69, 0
3, 86880, Note_on_c, 1, 71, 90
3, 86939, Note_on_c, 1, 71, 0
3, 86940, Note_on_c, 1, 72, 90
3, 86999, Note_on_c, 1, 72, 0
3, 87000, Note_on_c, 1, 74, 90
3, 87059, Note_on_c, 1, 74, 0
3, 87060, Note_on_c, 1, 72, 90
3, 87119, Note_on_c, 1, 72, 0
3, 87120, Note_on_c, 1, 71, 90
3, 87179, Note_on_c, 1, 71, 0
3, 87180, Note_on_c, 1, 69, 90
3, 87239, Note_on_c, 1, 69, 0
3, 87240, Note_on_c, 1, 71, 90
3, 87299, Note_on_c, 1, 71, 0
3, 87300, Note_on_c, 1, 68, 90
3, 87359, Note_on_c, 1, 68, 0
3, 87360, Note_on_c, 1, 76, 90
3, 89100, Note_on_c, 1, 76, 0
3, 89100, Note_on_c, 1, 74, 90
3, 89159, Note_on_c, 1, 74, 0
3, 89160, Note_on_c, 1, 72, 90
3, 89219, Note_on_c, 1, 72, 0
3, 89220, Note_on_c, 1, 71, 90
3, 89279, Note_on_c, 1, 71, 0
3, 89280, Note_on_c, 1, 72, 90
3, 89339, Note_on_c, 1, 72, 0
3, 89340, Note_on_c, 1, 74, 90
3, 89399, Note_on_c, 1, 74, 0
3, 89400, Note_on_c, 1, 76, 90
3, 89459, Note_on_c, 1, 76, 0
3, 89460, Note_on_c, 1, 77, 90
3, 89519, Note_on_c, 1, 77, 0
3, 89520, Note_on_c, 1, 69, 90
3, 89579, Note_on_c, 1, 69, 0
3, 89580, Note_on_c, 1, 71, 90
3, 89639, Note_on_c, 1, 71, 0
3, 89640, Note_on_c, 1, 72, 90
3, 89699, Note_on_c, 1, 72, 0
3, 89700, Note_on_c, 1, 74, 90
3, 89759, Note_on_c, 1, 74, 0
3, 89760, Note_on_c, 1, 71, 90
3, 89819, Note_on_c, 1, 71, 0
3, 89820, Note_on_c, 1, 72, 90
3, 89879, Note_on_c, 1, 72, 0
3, 89880, Note_on_c, 1, 74, 90
3, 89939, Note_on_c, 1, 74, 0
3, 89940, Note_on_c, 1, 76, 90
3, 89999, Note_on_c, 1, 76, 0
3, 90000, Note_on_c, 1, 68, 90
3, 90059, Note_on_c, 1, 68, 0
3, 90060, Note_on_c, 1, 69, 90
3, 90119, Note_on_c, 1, 69, 0
3, 90120, Note_on_c, 1, 71, 90
3, 90179, Note_on_c, 1, 71, 0
3, 90180, Note_on_c, 1, 72, 90
3, 90239, Note_on_c, 1, 72, 0
3, 90240, Note_on_c, 1, 69, 90
3, 90299, Note_on_c, 1, 69, 0
3, 90300, Note_on_c, 1, 71, 90
3, 90359, Note_on_c, 1, 71, 0
3, 90360, Note_on_c, 1, 72, 90
3, 90419, Note_on_c, 1, 72, 0
3, 90420, Note_on_c, 1, 74, 90
3, 90479, Note_on_c, 1, 74, 0
3, 90480, Note_on_c, 1, 66, 90
3, 90539, Note_on_c, 1, 66, 0
3, 90540, Note_on_c, 1, 68, 90
3, 90599, Note_on_c, 1, 68, 0
3, 90600, Note_on_c, 1, 69, 90
3, 90659, Note_on_c, 1, 69, 0
3, 90660, Note_on_c, 1, 71, 90
3, 90719, Note_on_c, 1, 71, 0
3, 90720, Note_on_c, 1, 68, 90
3, 90779, Note_on_c, 1, 68, 0
3, 90780, Note_on_c, 1, 69, 90
3, 90839, Note_on_c, 1, 69, 0
3, 90840, Note_on_c, 1, 71, 90
3, 90899, Note_on_c, 1, 71, 0
3, 90900, Note_on_c, 1, 64, 90
3, 90959, Note_on_c, 1, 64, 0
3, 90960, Note_on_c, 1, 68, 90
3, 91019, Note_on_c, 1, 68, 0
3, 91020, Note_on_c, 1, 71, 90
3, 91079, Note_on_c, 1, 71, 0
3, 91080, Note_on_c, 1, 76, 90
3, 91139, Note_on_c, 1, 76, 0
3, 91140, Note_on_c, 1, 74, 90
3, 91199, Note_on_c, 1, 74, 0
3, 91200, Note_on_c, 1, 72, 90
3, 91319, Note_on_c, 1, 72, 0
3, 91320, Note_on_c, 1, 69, 90
3, 91439, Note_on_c, 1, 69, 0
3, 91440, Note_on_c, 1, 81, 90
3, 91559, Note_on_c, 1, 81, 0
3, 91560, Note_on_c, 1, 76, 90
3, 91679, Note_on_c, 1, 76, 0
3, 91680, Note_on_c, 1, 72, 90
3, 91799, Note_on_c, 1, 72, 0
3, 91800, Note_on_c, 1, 71, 90
3, 91859, Note_on_c, 1, 71, 0
3, 91860, Note_on_c, 1, 69, 90
3, 91919, Note_on_c, 1, 69, 0
3, 91920, Note_on_c, 1, 76, 90
3, 92039, Note_on_c, 1, 76, 0
3, 92040, Note_on_c, 1, 76, 90
3, 92159, Note_on_c, 1, 76, 0
3, 92160, Note_on_c, 1, 76, 90
3, 92279, Note_on_c, 1, 76, 0
3, 92280, Note_on_c, 1, 74, 90
3, 92339, Note_on_c, 1, 74, 0
3, 92340, Note_on_c, 1, 73, 90
3, 92399, Note_on_c, 1, 73, 0
3, 92400, Note_on_c, 1, 74, 90
3, 92459, Note_on_c, 1, 74, 0
3, 92460, Note_on_c, 1, 76, 90
3, 92519, Note_on_c, 1, 76, 0
3, 92520, Note_on_c, 1, 77, 90
3, 92639, Note_on_c, 1, 77, 0
3, 92640, Note_on_c, 1, 77, 90
3, 92759, Note_on_c, 1, 77, 0
3, 92760, Note_on_c, 1, 71, 90
3, 92879, Note_on_c, 1, 71, 0
3, 92880, Note_on_c, 1, 71, 90
3, 92999, Note_on_c, 1, 71, 0
3, 93000, Note_on_c, 1, 74, 90
3, 93240, Note_on_c, 1, 74, 0
3, 93240, Note_on_c, 1, 72, 90
3, 93299, Note_on_c, 1, 72, 0
3, 93300, Note_on_c, 1, 71, 90
3, 93359, Note_on_c, 1, 71, 0
3, 93360, Note_on_c, 1, 72, 90
3, 93419, Note_on_c, 1, 72, 0
3, 93420, Note_on_c, 1, 74, 90
3, 93479, Note_on_c, 1, 74, 0
3, 93480, Note_on_c, 1, 76, 90
3, 93599, Note_on_c, 1, 76, 0
3, 93600, Note_on_c, 1, 76, 90
3, 93719, Note_on_c, 1, 76, 0
3, 93720, Note_on_c, 1, 69, 90
3, 93839, Note_on_c, 1, 69, 0
3, 93840, Note_on_c, 1, 69, 90
3, 93959, Note_on_c, 1, 69, 0
3, 93960, Note_on_c, 1, 71, 90
3, 93989, Note_on_c, 1, 71, 0
3, 93990, Note_on_c, 1, 72, 90
3, 94019, Note_on_c, 1, 72, 0
3, 94020, Note_on_c, 1, 74, 90
3, 94080, Note_on_c, 1, 74, 0
3, 94080, Note_on_c, 1, 74, 90
3, 94140, Note_on_c, 1, 74, 0
3, 94140, Note_on_c, 1, 72, 90
3, 94259, Note_on_c, 1, 72, 0
3, 94260, Note_on_c, 1, 71, 90
3, 94320, Note_on_c, 1, 71, 0
3, 94320, Note_on_c, 1, 71, 90
3, 94349, Note_on_c, 1, 71, 0
3, 94350, Note_on_c, 1, 72, 90
3, 94379, Note_on_c, 1, 72, 0
3, 94380, Note_on_c, 1, 71, 90
3, 94409, Note_on_c, 1, 71, 0
3, 94410, Note_on_c, 1, 72, 90
3, 94439, Note_on_c, 1, 72, 0
3, 94440, Note_on_c, 1, 71, 90
3, 94460, Note_on_c, 1, 71, 0
3, 94460, Note_on_c, 1, 72, 90
3, 94480, Note_on_c, 1, 72, 0
3, 94480, Note_on_c, 1, 71, 90
3, 94500, Note_on_c, 1, 71, 0
3, 94500, Note_on_c, 1, 69, 90
3, 94560, Note_on_c, 1, 69, 0
3, 94560, Note_on_c, 1, 69, 90
3, 94679, Note_on_c, 1, 69, 0
3, 94680, Note_on_c, 1, 81, 90
3, 94919, Note_on_c, 1, 81, 0
3, 94920, Note_on_c, 1, 79, 90
3, 95159, Note_on_c, 1, 79, 0
3, 95160, Note_on_c, 1, 78, 90
3, 95219, Note_on_c, 1, 78, 0
3, 95220, Note_on_c, 1, 76, 90
3, 95279, Note_on_c, 1, 76, 0
3, 95280, Note_on_c, 1, 75, 90
3, 95399, Note_on_c, 1, 75, 0
3, 95400, Note_on_c, 1, 71, 90
3, 95519, Note_on_c, 1, 71, 0
3, 95520, Note_on_c, 1, 79, 90
3, 95759, Note_on_c, 1, 79, 0
3, 95760, Note_on_c, 1, 78, 90
3, 95999, Note_on_c, 1, 78, 0
3, 96000, Note_on_c, 1, 76, 90
3, 96359, Note_on_c, 1, 76, 0
3, 96360, Note_on_c, 1, 74, 90
3, 96419, Note_on_c, 1, 74, 0
3, 96420, Note_on_c, 1, 73, 90
3, 96479, Note_on_c, 1, 73, 0
3, 96480, Note_on_c, 1, 71, 90
3, 96599, Note_on_c, 1, 71, 0
3, 96600, Note_on_c, 1, 83, 90
3, 96839, Note_on_c, 1, 83, 0
3, 96840, Note_on_c, 1, 81, 90
3, 97079, Note_on_c, 1, 81, 0
3, 97080, Note_on_c, 1, 80, 90
3, 97139, Note_on_c, 1, 80, 0
3, 97140, Note_on_c, 1, 78, 90
3, 97199, Note_on_c, 1, 78, 0
3, 97200, Note_on_c, 1, 77, 90
3, 97319, Note_on_c, 1, 77, 0
3, 97320, Note_on_c, 1, 75, 90
3, 97439, Note_on_c, 1, 75, 0
3, 97440, Note_on_c, 1, 81, 90
3, 97679, Note_on_c, 1, 81, 0
3, 97680, Note_on_c, 1, 80, 90
3, 97919, Note_on_c, 1, 80, 0
3, 97920, Note_on_c, 1, 78, 90
3, 98159, Note_on_c, 1, 78, 0
3, 98160, Note_on_c, 1, 76, 90
3, 98399, Note_on_c, 1, 76, 0
3, 98400, Note_on_c, 1, 74, 90
3, 98759, Note_on_c, 1, 74, 0
3, 98760, Note_on_c, 1, 73, 90
3, 98819, Note_on_c, 1, 73, 0
3, 98820, Note_on_c, 1, 71, 90
3, 98879, Note_on_c, 1, 71, 0
3, 98880, Note_on_c, 1, 70, 90
3, 98999, Note_on_c, 1, 70, 0
3, 99000, Note_on_c, 1, 73, 90
3, 99119, Note_on_c, 1, 73, 0
3, 99120, Note_on_c, 1, 66, 90
3, 99239, Note_on_c, 1, 66, 0
3, 99240, Note_on_c, 1, 71, 90
3, 99269, Note_on_c, 1, 71, 0
3, 99270, Note_on_c, 1, 70, 90
3, 99299, Note_on_c, 1, 70, 0
3, 99300, Note_on_c, 1, 68, 90
3, 99329, Note_on_c, 1, 68, 0
3, 99330, Note_on_c, 1, 70, 90
3, 99359, Note_on_c, 1, 70, 0
3, 99360, Note_on_c, 1, 71, 90
3, 99479, Note_on_c, 1, 71, 0
3, 99480, Note_on_c, 1, 78, 90
3, 99539, Note_on_c, 1, 78, 0
3, 99540, Note_on_c, 1, 76, 90
3, 99599, Note_on_c, 1, 76, 0
3, 99600, Note_on_c, 1, 74, 90
3, 99719, Note_on_c, 1, 74, 0
3, 99720, Note_on_c, 1, 71, 90
3, 99839, Note_on_c, 1, 71, 0
3, 99840, Note_on_c, 1, 83, 90
3, 99959, Note_on_c, 1, 83, 0
3, 99960, Note_on_c, 1, 78, 90
3, 100079, Note_on_c, 1, 78, 0
3, 100080, Note_on_c, 1, 74, 90
3, 100199, Note_on_c, 1, 74, 0
3, 100200, Note_on_c, 1, 73, 90
3, 100259, Note_on_c, 1, 73, 0
3, 100260, Note_on_c, 1, 71, 90
3, 100319, Note_on_c, 1, 71, 0
3, 100320, Note_on_c, 1, 79, 90
3, 100379, Note_on_c, 1, 79, 0
3, 100380, Note_on_c, 1, 78, 90
3, 100439, Note_on_c, 1, 78, 0
3, 100440, Note_on_c, 1, 79, 90
3, 100499, Note_on_c, 1, 79, 0
3, 100500, Note_on_c, 1, 81, 90
3, 100559, Note_on_c, 1, 81, 0
3, 100560, Note_on_c, 1, 79, 90
3, 100619, Note_on_c, 1, 79, 0
3, 100620, Note_on_c, 1, 78, 90
3, 100679, Note_on_c, 1, 78, 0
3, 100680, Note_on_c, 1, 76, 90
3, 100739, Note_on_c, 1, 76, 0
3, 100740, Note_on_c, 1, 74, 90
3, 100799, Note_on_c, 1, 74, 0
3, 100800, Note_on_c, 1, 73, 90
3, 100859, Note_on_c, 1, 73, 0
3, 100860, Note_on_c, 1, 74, 90
3, 100919, Note_on_c, 1, 74, 0
3, 100920, Note_on_c, 1, 76, 90
3, 100979, Note_on_c, 1, 76, 0
3, 100980, Note_on_c, 1, 74, 90
3, 101039, Note_on_c, 1, 74, 0
3, 101040, Note_on_c, 1, 73, 90
3, 101099, Note_on_c, 1, 73, 0
3, 101100, Note_on_c, 1, 71, 90
3, 101159, Note_on_c, 1, 71, 0
3, 101160, Note_on_c, 1, 69, 90
3, 101219, Note_on_c, 1, 69, 0
3, 101220, Note_on_c, 1, 67, 90
3, 101279, Note_on_c, 1, 67, 0
3, 101280, Note_on_c, 1, 78, 90
3, 101339, Note_on_c, 1, 78, 0
3, 101340, Note_on_c, 1, 76, 90
3, 101399, Note_on_c, 1, 76, 0
3, 101400, Note_on_c, 1, 78, 90
3, 101459, Note_on_c, 1, 78, 0
3, 101460, Note_on_c, 1, 79, 90
3, 101519, Note_on_c, 1, 79, 0
3, 101520, Note_on_c, 1, 78, 90
3, 101579, Note_on_c, 1, 78, 0
3, 101580, Note_on_c, 1, 76, 90
3, 101639, Note_on_c, 1, 76, 0
3, 101640, Note_on_c, 1, 74, 90
3, 101699, Note_on_c, 1, 74, 0
3, 101700, Note_on_c, 1, 73, 90
3, 101759, Note_on_c, 1, 73, 0
3, 101760, Note_on_c, 1, 71, 90
3, 101819, Note_on_c, 1, 71, 0
3, 101820, Note_on_c, 1, 73, 90
3, 101879, Note_on_c, 1, 73, 0
3, 101880, Note_on_c, 1, 74, 90
3, 101939, Note_on_c, 1, 74, 0
3, 101940, Note_on_c, 1, 76, 90
3, 101999, Note_on_c, 1, 76, 0
3, 102000, Note_on_c, 1, 78, 90
3, 102059, Note_on_c, 1, 78, 0
3, 102060, Note_on_c, 1, 79, 90
3, 102119, Note_on_c, 1, 79, 0
3, 102120, Note_on_c, 1, 70, 90
3, 102239, Note_on_c, 1, 70, 0
3, 102240, Note_on_c, 1, 71, 90
3, 102419, Note_on_c, 1, 71, 0
3, 102420, Note_on_c, 1, 73, 90
3, 102479, Note_on_c, 1, 73, 0
3, 102480, Note_on_c, 1, 70, 90
3, 102509, Note_on_c, 1, 70, 0
3, 102510, Note_on_c, 1, 71, 90
3, 102539, Note_on_c, 1, 71, 0
3, 102540, Note_on_c, 1, 70, 90
3, 102569, Note_on_c, 1, 70, 0
3, 102570, Note_on_c, 1, 71, 90
3, 102599, Note_on_c, 1, 71, 0
3, 102600, Note_on_c, 1, 70, 90
3, 102619, Note_on_c, 1, 70, 0
3, 102620, Note_on_c, 1, 71, 90
3, 102639, Note_on_c, 1, 71, 0
3, 102640, Note_on_c, 1, 70, 90
3, 102659, Note_on_c, 1, 70, 0
3, 102660, Note_on_c, 1, 71, 90
3, 102719, Note_on_c, 1, 71, 0
3, 102720, Note_on_c, 1, 71, 90
3, 102839, Note_on_c, 1, 71, 0
3, 102840, Note_on_c, 1, 78, 90
3, 102959, Note_on_c, 1, 78, 0
3, 102960, Note_on_c, 1, 74, 90
3, 103079, Note_on_c, 1, 74, 0
3, 103080, Note_on_c, 1, 71, 90
3, 103199, Note_on_c, 1, 71, 0
3, 103320, Note_on_c, 1, 81, 90
3, 103439, Note_on_c, 1, 81, 0
3, 103440, Note_on_c, 1, 78, 90
3, 103559, Note_on_c, 1, 78, 0
3, 103560, Note_on_c, 1, 75, 90
3, 103679, Note_on_c, 1, 75, 0
3, 103800, Note_on_c, 1, 84, 90
3, 103919, Note_on_c, 1, 84, 0
3, 103920, Note_on_c, 1, 81, 90
3, 104039, Note_on_c, 1, 81, 0
3, 104040, Note_on_c, 1, 78, 90
3, 104159, Note_on_c, 1, 78, 0
3, 104160, Note_on_c, 1, 75, 90
3, 104219, Note_on_c, 1, 75, 0
3, 104220, Note_on_c, 1, 76, 90
3, 104279, Note_on_c, 1, 76, 0
3, 104280, Note_on_c, 1, 78, 90
3, 104339, Note_on_c, 1, 78, 0
3, 104340, Note_on_c, 1, 79, 90
3, 104399, Note_on_c, 1, 79, 0
3, 104400, Note_on_c, 1, 81, 90
3, 104459, Note_on_c, 1, 81, 0
3, 104460, Note_on_c, 1, 84, 90
3, 104519, Note_on_c, 1, 84, 0
3, 104520, Note_on_c, 1, 83, 90
3, 104579, Note_on_c, 1, 83, 0
3, 104580, Note_on_c, 1, 81, 90
3, 104639, Note_on_c, 1, 81, 0
3, 104640, Note_on_c, 1, 79, 90
3, 104759, Note_on_c, 1, 79, 0
3, 105000, Note_on_c, 1, 71, 90
3, 105119, Note_on_c, 1, 71, 0
3, 105120, Note_on_c, 1, 67, 90
3, 105239, Note_on_c, 1, 67, 0
3, 105240, Note_on_c, 1, 64, 90
3, 105359, Note_on_c, 1, 64, 0
3, 105480, Note_on_c, 1, 74, 90
3, 105599, Note_on_c, 1, 74, 0
3, 105600, Note_on_c, 1, 71, 90
3, 105719, Note_on_c, 1, 71, 0
3, 105720, Note_on_c, 1, 68, 90
3, 105839, Note_on_c, 1, 68, 0
3, 105960, Note_on_c, 1, 77, 90
3, 106079, Note_on_c, 1, 77, 0
3, 106080, Note_on_c, 1, 74, 90
3, 106199, Note_on_c, 1, 74, 0
3, 106200, Note_on_c, 1, 71, 90
3, 106319, Note_on_c, 1, 71, 0
3, 106320, Note_on_c, 1, 68, 90
3, 106499, Note_on_c, 1, 68, 0
3, 106500, Note_on_c, 1, 69, 90
3, 106559, Note_on_c, 1, 69, 0
3, 106560, Note_on_c, 1, 69, 90
3, 106679, Note_on_c, 1, 69, 0
3, 106680, Note_on_c, 1, 76, 90
3, 106799, Note_on_c, 1, 76, 0
3, 106800, Note_on_c, 1, 73, 90
3, 106919, Note_on_c, 1, 73, 0
3, 106920, Note_on_c, 1, 69, 90
3, 107039, Note_on_c, 1, 69, 0
3, 107160, Note_on_c, 1, 79, 90
3, 107279, Note_on_c, 1, 79, 0
3, 107280, Note_on_c, 1, 76, 90
3, 107399, Note_on_c, 1, 76, 0
3, 107400, Note_on_c, 1, 73, 90
3, 107519, Note_on_c, 1, 73, 0
3, 107640, Note_on_c, 1, 82, 90
3, 107759, Note_on_c, 1, 82, 0
3, 107760, Note_on_c, 1, 79, 90
3, 107879, Note_on_c, 1, 79, 0
3, 107880, Note_on_c, 1, 76, 90
3, 107999, Note_on_c, 1, 76, 0
3, 108000, Note_on_c, 1, 73, 90
3, 108059, Note_on_c, 1, 73, 0
3, 108060, Note_on_c, 1, 74, 90
3, 108119, Note_on_c, 1, 74, 0
3, 108120, Note_on_c, 1, 76, 90
3, 108179, Note_on_c, 1, 76, 0
3, 108180, Note_on_c, 1, 78, 90
3, 108239, Note_on_c, 1, 78, 0
3, 108240, Note_on_c, 1, 79, 90
3, 108299, Note_on_c, 1, 79, 0
3, 108300, Note_on_c, 1, 82, 90
3, 108359, Note_on_c, 1, 82, 0
3, 108360, Note_on_c, 1, 81, 90
3, 108419, Note_on_c, 1, 81, 0
3, 108420, Note_on_c, 1, 79, 90
3, 108479, Note_on_c, 1, 79, 0
3, 108480, Note_on_c, 1, 78, 90
3, 108599, Note_on_c, 1, 78, 0
3, 108840, Note_on_c, 1, 69, 90
3, 108959, Note_on_c, 1, 69, 0
3, 108960, Note_on_c, 1, 66, 90
3, 109079, Note_on_c, 1, 66, 0
3, 109080, Note_on_c, 1, 62, 90
3, 109199, Note_on_c, 1, 62, 0
3, 109320, Note_on_c, 1, 72, 90
3, 109439, Note_on_c, 1, 72, 0
3, 109440, Note_on_c, 1, 69, 90
3, 109559, Note_on_c, 1, 69, 0
3, 109560, Note_on_c, 1, 66, 90
3, 109679, Note_on_c, 1, 66, 0
3, 109800, Note_on_c, 1, 75, 90
3, 109919, Note_on_c, 1, 75, 0
3, 109920, Note_on_c, 1, 72, 90
3, 110039, Note_on_c, 1, 72, 0
3, 110040, Note_on_c, 1, 69, 90
3, 110159, Note_on_c, 1, 69, 0
3, 110160, Note_on_c, 1, 66, 90
3, 110219, Note_on_c, 1, 66, 0
3, 110220, Note_on_c, 1, 69, 90
3, 110279, Note_on_c, 1, 69, 0
3, 110280, Note_on_c, 1, 74, 90
3, 110339, Note_on_c, 1, 74, 0
3, 110340, Note_on_c, 1, 72, 90
3, 110399, Note_on_c, 1, 72, 0
3, 110400, Note_on_c, 1, 71, 90
3, 110519, Note_on_c, 1, 71, 0
3, 110520, Note_on_c, 1, 67, 90
3, 110639, Note_on_c, 1, 67, 0
3, 110640, Note_on_c, 1, 79, 90
3, 110759, Note_on_c, 1, 79, 0
3, 110760, Note_on_c, 1, 74, 90
3, 110879, Note_on_c, 1, 74, 0
3, 110880, Note_on_c, 1, 71, 90
3, 110999, Note_on_c, 1, 71, 0
3, 111000, Note_on_c, 1, 69, 90
3, 111059, Note_on_c, 1, 69, 0
3, 111060, Note_on_c, 1, 67, 90
3, 111119, Note_on_c, 1, 67, 0
3, 111120, Note_on_c, 1, 74, 90
3, 111239, Note_on_c, 1, 74, 0
3, 111240, Note_on_c, 1, 74, 90
3, 111359, Note_on_c, 1, 74, 0
3, 111360, Note_on_c, 1, 74, 90
3, 111479, Note_on_c, 1, 74, 0
3, 111480, Note_on_c, 1, 72, 90
3, 111539, Note_on_c, 1, 72, 0
3, 111540, Note_on_c, 1, 71, 90
3, 111599, Note_on_c, 1, 71, 0
3, 111600, Note_on_c, 1, 72, 90
3, 111659, Note_on_c, 1, 72, 0
3, 111660, Note_on_c, 1, 74, 90
3, 111719, Note_on_c, 1, 74, 0
3, 111720, Note_on_c, 1, 76, 90
3, 111839, Note_on_c, 1, 76, 0
3, 111840, Note_on_c, 1, 76, 90
3, 111959, Note_on_c, 1, 76, 0
3, 111960, Note_on_c, 1, 69, 90
3, 112079, Note_on_c, 1, 69, 0
3, 112080, Note_on_c, 1, 69, 90
3, 112199, Note_on_c, 1, 69, 0
3, 112200, Note_on_c, 1, 72, 90
3, 112439, Note_on_c, 1, 72, 0
3, 112440, Note_on_c, 1, 71, 90
3, 112499, Note_on_c, 1, 71, 0
3, 112500, Note_on_c, 1, 69, 90
3, 112559, Note_on_c, 1, 69, 0
3, 112560, Note_on_c, 1, 71, 90
3, 112619, Note_on_c, 1, 71, 0
3, 112620, Note_on_c, 1, 72, 90
3, 112679, Note_on_c, 1, 72, 0
3, 112680, Note_on_c, 1, 74, 90
3, 112799, Note_on_c, 1, 74, 0
3, 112800, Note_on_c, 1, 74, 90
3, 112919, Note_on_c, 1, 74, 0
3, 112920, Note_on_c, 1, 67, 90
3, 113039, Note_on_c, 1, 67, 0
3, 113040, Note_on_c, 1, 67, 90
3, 113159, Note_on_c, 1, 67, 0
3, 113160, Note_on_c, 1, 77, 90
3, 113399, Note_on_c, 1, 77, 0
3, 113400, Note_on_c, 1, 76, 90
3, 113639, Note_on_c, 1, 76, 0
3, 113640, Note_on_c, 1, 74, 90
3, 113879, Note_on_c, 1, 74, 0
3, 113880, Note_on_c, 1, 72, 90
3, 113939, Note_on_c, 1, 72, 0
3, 113940, Note_on_c, 1, 71, 90
3, 113999, Note_on_c, 1, 71, 0
3, 114000, Note_on_c, 1, 69, 90
3, 114059, Note_on_c, 1, 69, 0
3, 114060, Note_on_c, 1, 67, 90
3, 114119, Note_on_c, 1, 67, 0
3, 114120, Note_on_c, 1, 69, 90
3, 114179, Note_on_c, 1, 69, 0
3, 114180, Note_on_c, 1, 71, 90
3, 114239, Note_on_c, 1, 71, 0
3, 114240, Note_on_c, 1, 72, 90
3, 114299, Note_on_c, 1, 72, 0
3, 114300, Note_on_c, 1, 67, 90
3, 114359, Note_on_c, 1, 67, 0
3, 114360, Note_on_c, 1, 69, 90
3, 114419, Note_on_c, 1, 69, 0
3, 114420, Note_on_c, 1, 71, 90
3, 114479, Note_on_c, 1, 71, 0
3, 114480, Note_on_c, 1, 72, 90
3, 114539, Note_on_c, 1, 72, 0
3, 114540, Note_on_c, 1, 74, 90
3, 114599, Note_on_c, 1, 74, 0
3, 114600, Note_on_c, 1, 76, 90
3, 114659, Note_on_c, 1, 76, 0
3, 114660, Note_on_c, 1, 77, 90
3, 114719, Note_on_c, 1, 77, 0
3, 114720, Note_on_c, 1, 79, 90
3, 114779, Note_on_c, 1, 79, 0
3, 114780, Note_on_c, 1, 81, 90
3, 114839, Note_on_c, 1, 81, 0
3, 114840, Note_on_c, 1, 79, 90
3, 114899, Note_on_c, 1, 79, 0
3, 114900, Note_on_c, 1, 77, 90
3, 114959, Note_on_c, 1, 77, 0
3, 114960, Note_on_c, 1, 76, 90
3, 115019, Note_on_c, 1, 76, 0
3, 115020, Note_on_c, 1, 74, 90
3, 115079, Note_on_c, 1, 74, 0
3, 115080, Note_on_c, 1, 72, 90
3, 115139, Note_on_c, 1, 72, 0
3, 115140, Note_on_c, 1, 71, 90
3, 115199, Note_on_c, 1, 71, 0
3, 115200, Note_on_c, 1, 69, 90
3, 115319, Note_on_c, 1, 69, 0
3, 115320, Note_on_c, 1, 81, 90
3, 115379, Note_on_c, 1, 81, 0
3, 115380, Note_on_c, 1, 79, 90
3, 115439, Note_on_c, 1, 79, 0
3, 115440, Note_on_c, 1, 77, 90
3, 115499, Note_on_c, 1, 77, 0
3, 115500, Note_on_c, 1, 76, 90
3, 115559, Note_on_c, 1, 76, 0
3, 115560, Note_on_c, 1, 74, 90
3, 115619, Note_on_c, 1, 74, 0
3, 115620, Note_on_c, 1, 72, 90
3, 115679, Note_on_c, 1, 72, 0
3, 115680, Note_on_c, 1, 71, 90
3, 115739, Note_on_c, 1, 71, 0
3, 115740, Note_on_c, 1, 69, 90
3, 115799, Note_on_c, 1, 69, 0
3, 115800, Note_on_c, 1, 67, 90
3, 115859, Note_on_c, 1, 67, 0
3, 115860, Note_on_c, 1, 69, 90
3, 115919, Note_on_c, 1, 69, 0
3, 115920, Note_on_c, 1, 71, 90
3, 115979, Note_on_c, 1, 71, 0
3, 115980, Note_on_c, 1, 72, 90
3, 116039, Note_on_c, 1, 72, 0
3, 116040, Note_on_c, 1, 74, 90
3, 116099, Note_on_c, 1, 74, 0
3, 116100, Note_on_c, 1, 71, 90
3, 116159, Note_on_c, 1, 71, 0
3, 116160, Note_on_c, 1, 79, 90
3, 116279, Note_on_c, 1, 79, 0
3, 116280, Note_on_c, 1, 67, 90
3, 116399, Note_on_c, 1, 67, 0
3, 116400, Note_on_c, 1, 67, 90
3, 116519, Note_on_c, 1, 67, 0
3, 116520, Note_on_c, 1, 71, 90
3, 116639, Note_on_c, 1, 71, 0
3, 116640, Note_on_c, 1, 72, 90
3, 116879, Note_on_c, 1, 72, 0
3, 117000, Note_on_c, 1, 76, 90
3, 117119, Note_on_c, 1, 76, 0
3, 117120, Note_on_c, 1, 74, 90
3, 117179, Note_on_c, 1, 74, 0
3, 117180, Note_on_c, 1, 76, 90
3, 117239, Note_on_c, 1, 76, 0
3, 117240, Note_on_c, 1, 78, 90
3, 117299, Note_on_c, 1, 78, 0
3, 117300, Note_on_c, 1, 79, 90
3, 117359, Note_on_c, 1, 79, 0
3, 117360, Note_on_c, 1, 72, 90
3, 117419, Note_on_c, 1, 72, 0
3, 117420, Note_on_c, 1, 74, 90
3, 117479, Note_on_c, 1, 74, 0
3, 117480, Note_on_c, 1, 76, 90
3, 117539, Note_on_c, 1, 76, 0
3, 117540, Note_on_c, 1, 78, 90
3, 117599, Note_on_c, 1, 78, 0
3, 117600, Note_on_c, 1, 71, 90
3, 117659, Note_on_c, 1, 71, 0
3, 117660, Note_on_c, 1, 72, 90
3, 117719, Note_on_c, 1, 72, 0
3, 117720, Note_on_c, 1, 74, 90
3, 117779, Note_on_c, 1, 74, 0
3, 117780, Note_on_c, 1, 71, 90
3, 117839, Note_on_c, 1, 71, 0
3, 117840, Note_on_c, 1, 67, 90
3, 117899, Note_on_c, 1, 67, 0
3, 117900, Note_on_c, 1, 66, 90
3, 117959, Note_on_c, 1, 66, 0
3, 117960, Note_on_c, 1, 67, 90
3, 118019, Note_on_c, 1, 67, 0
3, 118020, Note_on_c, 1, 69, 90
3, 118079, Note_on_c, 1, 69, 0
3, 118080, Note_on_c, 1, 62, 90
3, 118199, Note_on_c, 1, 62, 0
3, 118200, Note_on_c, 1, 64, 90
3, 118259, Note_on_c, 1, 64, 0
3, 118260, Note_on_c, 1, 66, 90
3, 118319, Note_on_c, 1, 66, 0
3, 118320, Note_on_c, 1, 67, 90
3, 118379, Note_on_c, 1, 67, 0
3, 118380, Note_on_c, 1, 69, 90
3, 118439, Note_on_c, 1, 69, 0
3, 118440, Note_on_c, 1, 71, 90
3, 118499, Note_on_c, 1, 71, 0
3, 118500, Note_on_c, 1, 72, 90
3, 118559, Note_on_c, 1, 72, 0
3, 118560, Note_on_c, 1, 74, 90
3, 118619, Note_on_c, 1, 74, 0
3, 118620, Note_on_c, 1, 76, 90
3, 118679, Note_on_c, 1, 76, 0
3, 118680, Note_on_c, 1, 74, 90
3, 118739, Note_on_c, 1, 74, 0
3, 118740, Note_on_c, 1, 72, 90
3, 118799, Note_on_c, 1, 72, 0
3, 118800, Note_on_c, 1, 71, 90
3, 118859, Note_on_c, 1, 71, 0
3, 118860, Note_on_c, 1, 69, 90
3, 118919, Note_on_c, 1, 69, 0
3, 118920, Note_on_c, 1, 67, 90
3, 118979, Note_on_c, 1, 67, 0
3, 118980, Note_on_c, 1, 66, 90
3, 119039, Note_on_c, 1, 66, 0
3, 119040, Note_on_c, 1, 64, 90
3, 119159, Note_on_c, 1, 64, 0
3, 119160, Note_on_c, 1, 76, 90
3, 119219, Note_on_c, 1, 76, 0
3, 119220, Note_on_c, 1, 74, 90
3, 119279, Note_on_c, 1, 74, 0
3, 119280, Note_on_c, 1, 72, 90
3, 119339, Note_on_c, 1, 72, 0
3, 119340, Note_on_c, 1, 71, 90
3, 119399, Note_on_c, 1, 71, 0
3, 119400, Note_on_c, 1, 69, 90
3, 119459, Note_on_c, 1, 69, 0
3, 119460, Note_on_c, 1, 67, 90
3, 119519, Note_on_c, 1, 67, 0
3, 119520, Note_on_c, 1, 66, 90
3, 119579, Note_on_c, 1, 66, 0
3, 119580, Note_on_c, 1, 64, 90
3, 119639, Note_on_c, 1, 64, 0
3, 119640, Note_on_c, 1, 62, 90
3, 119699, Note_on_c, 1, 62, 0
3, 119700, Note_on_c, 1, 64, 90
3, 119759, Note_on_c, 1, 64, 0
3, 119760, Note_on_c, 1, 66, 90
3, 119819, Note_on_c, 1, 66, 0
3, 119820, Note_on_c, 1, 67, 90
3, 119879, Note_on_c, 1, 67, 0
3, 119880, Note_on_c, 1, 69, 90
3, 119939, Note_on_c, 1, 69, 0
3, 119940, Note_on_c, 1, 66, 90
3, 119999, Note_on_c, 1, 66, 0
3, 120000, Note_on_c, 1, 74, 90
3, 120119, Note_on_c, 1, 74, 0
3, 120120, Note_on_c, 1, 62, 90
3, 120239, Note_on_c, 1, 62, 0
3, 120240, Note_on_c, 1, 62, 90
3, 120359, Note_on_c, 1, 62, 0
3, 120360, Note_on_c, 1, 66, 90
3, 120479, Note_on_c, 1, 66, 0
3, 120480, Note_on_c, 1, 67, 90
3, 120719, Note_on_c, 1, 67, 0
3, 120840, Note_on_c, 1, 71, 90
3, 120959, Note_on_c, 1, 71, 0
3, 120960, Note_on_c, 1, 69, 90
3, 121019, Note_on_c, 1, 69, 0
3, 121020, Note_on_c, 1, 71, 90
3, 121079, Note_on_c, 1, 71, 0
3, 121080, Note_on_c, 1, 73, 90
3, 121139, Note_on_c, 1, 73, 0
3, 121140, Note_on_c, 1, 74, 90
3, 121199, Note_on_c, 1, 74, 0
3, 121200, Note_on_c, 1, 67, 90
3, 121259, Note_on_c, 1, 67, 0
3, 121260, Note_on_c, 1, 69, 90
3, 121319, Note_on_c, 1, 69, 0
3, 121320, Note_on_c, 1, 71, 90
3, 121379, Note_on_c, 1, 71, 0
3, 121380, Note_on_c, 1, 73, 90
3, 121439, Note_on_c, 1, 73, 0
3, 121440, Note_on_c, 1, 66, 90
3, 121559, Note_on_c, 1, 66, 0
3, 121560, Note_on_c, 1, 78, 90
3, 121799, Note_on_c, 1, 78, 0
3, 121800, Note_on_c, 1, 76, 90
3, 122039, Note_on_c, 1, 76, 0
3, 122040, Note_on_c, 1, 74, 90
3, 122099, Note_on_c, 1, 74, 0
3, 122100, Note_on_c, 1, 76, 90
3, 122159, Note_on_c, 1, 76, 0
3, 122160, Note_on_c, 1, 73, 90
3, 122189, Note_on_c, 1, 73, 0
3, 122190, Note_on_c, 1, 74, 90
3, 122219, Note_on_c, 1, 74, 0
3, 122220, Note_on_c, 1, 73, 90
3, 122249, Note_on_c, 1, 73, 0
3, 122250, Note_on_c, 1, 74, 90
3, 122279, Note_on_c, 1, 74, 0
3, 122280, Note_on_c, 1, 73, 90
3, 122299, Note_on_c, 1, 73, 0
3, 122300, Note_on_c, 1, 74, 90
3, 122319, Note_on_c, 1, 74, 0
3, 122320, Note_on_c, 1, 73, 90
3, 122339, Note_on_c, 1, 73, 0
3, 122340, Note_on_c, 1, 74, 90
3, 122399, Note_on_c, 1, 74, 0
3, 122400, Note_on_c, 1, 74, 90
3, 122459, Note_on_c, 1, 74, 0
3, 122460, Note_on_c, 1, 78, 90
3, 122519, Note_on_c, 1, 78, 0
3, 122520, Note_on_c, 1, 76, 90
3, 122579, Note_on_c, 1, 76, 0
3, 122580, Note_on_c, 1, 74, 90
3, 122639, Note_on_c, 1, 74, 0
3, 122640, Note_on_c, 1, 81, 90
3, 122699, Note_on_c, 1, 81, 0
3, 122700, Note_on_c, 1, 78, 90
3, 122759, Note_on_c, 1, 78, 0
3, 122760, Note_on_c, 1, 76, 90
3, 122819, Note_on_c, 1, 76, 0
3, 122820, Note_on_c, 1, 74, 90
3, 122879, Note_on_c, 1, 74, 0
3, 122880, Note_on_c, 1, 72, 90
3, 122939, Note_on_c, 1, 72, 0
3, 122940, Note_on_c, 1, 75, 90
3, 122999, Note_on_c, 1, 75, 0
3, 123000, Note_on_c, 1, 74, 90
3, 123059, Note_on_c, 1, 74, 0
3, 123060, Note_on_c, 1, 72, 90
3, 123119, Note_on_c, 1, 72, 0
3, 123120, Note_on_c, 1, 81, 90
3, 123179, Note_on_c, 1, 81, 0
3, 123180, Note_on_c, 1, 78, 90
3, 123239, Note_on_c, 1, 78, 0
3, 123240, Note_on_c, 1, 76, 90
3, 123299, Note_on_c, 1, 76, 0
3, 123300, Note_on_c, 1, 74, 90
3, 123359, Note_on_c, 1, 74, 0
3, 123360, Note_on_c, 1, 84, 90
3, 123419, Note_on_c, 1, 84, 0
3, 123420, Note_on_c, 1, 83, 90
3, 123479, Note_on_c, 1, 83, 0
3, 123480, Note_on_c, 1, 81, 90
3, 123539, Note_on_c, 1, 81, 0
3, 123540, Note_on_c, 1, 79, 90
3, 123599, Note_on_c, 1, 79, 0
3, 123600, Note_on_c, 1, 78, 90
3, 123659, Note_on_c, 1, 78, 0
3, 123660, Note_on_c, 1, 76, 90
3, 123719, Note_on_c, 1, 76, 0
3, 123720, Note_on_c, 1, 74, 90
3, 123779, Note_on_c, 1, 74, 0
3, 123780, Note_on_c, 1, 76, 90
3, 123839, Note_on_c, 1, 76, 0
3, 123840, Note_on_c, 1, 78, 90
3, 123899, Note_on_c, 1, 78, 0
3, 123900, Note_on_c, 1, 79, 90
3, 123959, Note_on_c, 1, 79, 0
3, 123960, Note_on_c, 1, 81, 90
3, 124019, Note_on_c, 1, 81, 0
3, 124020, Note_on_c, 1, 83, 90
3, 124079, Note_on_c, 1, 83, 0
3, 124080, Note_on_c, 1, 84, 90
3, 124139, Note_on_c, 1, 84, 0
3, 124140, Note_on_c, 1, 83, 90
3, 124199, Note_on_c, 1, 83, 0
3, 124200, Note_on_c, 1, 84, 90
3, 124259, Note_on_c, 1, 84, 0
3, 124260, Note_on_c, 1, 81, 90
3, 124319, Note_on_c, 1, 81, 0
3, 124320, Note_on_c, 1, 83, 90
3, 124439, Note_on_c, 1, 83, 0
3, 124440, Note_on_c, 1, 62, 90
3, 124559, Note_on_c, 1, 62, 0
3, 124560, Note_on_c, 1, 67, 90
3, 124679, Note_on_c, 1, 67, 0
3, 124680, Note_on_c, 1, 71, 90
3, 124799, Note_on_c, 1, 71, 0
3, 124800, Note_on_c, 1, 74, 90
3, 124919, Note_on_c, 1, 74, 0
3, 124920, Note_on_c, 1, 67, 90
3, 125039, Note_on_c, 1, 67, 0
3, 125040, Note_on_c, 1, 71, 90
3, 125159, Note_on_c, 1, 71, 0
3, 125160, Note_on_c, 1, 74, 90
3, 125399, Note_on_c, 1, 74, 0
3, 125400, Note_on_c, 1, 68, 90
3, 125519, Note_on_c, 1, 68, 0
3, 125520, Note_on_c, 1, 64, 90
3, 125639, Note_on_c, 1, 64, 0
3, 125640, Note_on_c, 1, 68, 90
3, 125759, Note_on_c, 1, 68, 0
3, 125760, Note_on_c, 1, 71, 90
3, 125879, Note_on_c, 1, 71, 0
3, 125880, Note_on_c, 1, 74, 90
3, 125999, Note_on_c, 1, 74, 0
3, 126000, Note_on_c, 1, 71, 90
3, 126119, Note_on_c, 1, 71, 0
3, 126120, Note_on_c, 1, 68, 90
3, 126239, Note_on_c, 1, 68, 0
3, 126240, Note_on_c, 1, 76, 90
3, 126479, Note_on_c, 1, 76, 0
3, 126480, Note_on_c, 1, 74, 90
3, 126719, Note_on_c, 1, 74, 0
3, 126720, Note_on_c, 1, 72, 90
3, 127079, Note_on_c, 1, 72, 0
3, 127080, Note_on_c, 1, 71, 90
3, 127139, Note_on_c, 1, 71, 0
3, 127140, Note_on_c, 1, 69, 90
3, 127199, Note_on_c, 1, 69, 0
3, 127200, Note_on_c, 1, 67, 90
3, 127319, Note_on_c, 1, 67, 0
3, 127320, Note_on_c, 1, 79, 90
3, 127559, Note_on_c, 1, 79, 0
3, 127560, Note_on_c, 1, 78, 90
3, 127799, Note_on_c, 1, 78, 0
3, 127800, Note_on_c, 1, 76, 90
3, 127859, Note_on_c, 1, 76, 0
3, 127860, Note_on_c, 1, 74, 90
3, 127919, Note_on_c, 1, 74, 0
3, 127920, Note_on_c, 1, 73, 90
3, 128039, Note_on_c, 1, 73, 0
3, 128040, Note_on_c, 1, 69, 90
3, 128159, Note_on_c, 1, 69, 0
3, 128160, Note_on_c, 1, 78, 90
3, 128399, Note_on_c, 1, 78, 0
3, 128400, Note_on_c, 1, 76, 90
3, 128639, Note_on_c, 1, 76, 0
3, 128640, Note_on_c, 1, 74, 90
3, 128999, Note_on_c, 1, 74, 0
3, 129000, Note_on_c, 1, 72, 90
3, 129059, Note_on_c, 1, 72, 0
3, 129060, Note_on_c, 1, 71, 90
3, 129119, Note_on_c, 1, 71, 0
3, 129120, Note_on_c, 1, 69, 90
3, 129239, Note_on_c, 1, 69, 0
3, 129240, Note_on_c, 1, 81, 90
3, 129479, Note_on_c, 1, 81, 0
3, 129480, Note_on_c, 1, 79, 90
3, 129719, Note_on_c, 1, 79, 0
3, 129720, Note_on_c, 1, 78, 90
3, 129779, Note_on_c, 1, 78, 0
3, 129780, Note_on_c, 1, 76, 90
3, 129839, Note_on_c, 1, 76, 0
3, 129840, Note_on_c, 1, 75, 90
3, 129959, Note_on_c, 1, 75, 0
3, 129960, Note_on_c, 1, 71, 90
3, 130079, Note_on_c, 1, 71, 0
3, 130080, Note_on_c, 1, 79, 90
3, 130319, Note_on_c, 1, 79, 0
3, 130320, Note_on_c, 1, 78, 90
3, 130559, Note_on_c, 1, 78, 0
3, 130560, Note_on_c, 1, 76, 90
3, 130799, Note_on_c, 1, 76, 0
3, 130800, Note_on_c, 1, 74, 90
3, 131159, Note_on_c, 1, 74, 0
3, 131160, Note_on_c, 1, 72, 90
3, 131219, Note_on_c, 1, 72, 0
3, 131220, Note_on_c, 1, 71, 90
3, 131279, Note_on_c, 1, 71, 0
3, 131280, Note_on_c, 1, 72, 90
3, 131580, Note_on_c, 1, 72, 0
3, 131580, Note_on_c, 1, 71, 90
3, 131639, Note_on_c, 1, 71, 0
3, 131640, Note_on_c, 1, 69, 90
3, 131699, Note_on_c, 1, 69, 0
3, 131700, Note_on_c, 1, 71, 90
3, 131759, Note_on_c, 1, 71, 0
3, 131760, Note_on_c, 1, 72, 90
3, 131819, Note_on_c, 1, 72, 0
3, 131820, Note_on_c, 1, 76, 90
3, 131879, Note_on_c, 1, 76, 0
3, 131880, Note_on_c, 1, 74, 90
3, 131939, Note_on_c, 1, 74, 0
3, 131940, Note_on_c, 1, 72, 90
3, 131999, Note_on_c, 1, 72, 0
3, 132000, Note_on_c, 1, 71, 90
3, 132059, Note_on_c, 1, 71, 0
3, 132060, Note_on_c, 1, 72, 90
3, 132119, Note_on_c, 1, 72, 0
3, 132120, Note_on_c, 1, 74, 90
3, 132179, Note_on_c, 1, 74, 0
3, 132180, Note_on_c, 1, 76, 90
3, 132239, Note_on_c, 1, 76, 0
3, 132240, Note_on_c, 1, 67, 90
3, 132299, Note_on_c, 1, 67, 0
3, 132300, Note_on_c, 1, 69, 90
3, 132359, Note_on_c, 1, 69, 0
3, 132360, Note_on_c, 1, 71, 90
3, 132419, Note_on_c, 1, 71, 0
3, 132420, Note_on_c, 1, 72, 90
3, 132479, Note_on_c, 1, 72, 0
3, 132480, Note_on_c, 1, 69, 90
3, 132539, Note_on_c, 1, 69, 0
3, 132540, Note_on_c, 1, 71, 90
3, 132599, Note_on_c, 1, 71, 0
3, 132600, Note_on_c, 1, 72, 90
3, 132659, Note_on_c, 1, 72, 0
3, 132660, Note_on_c, 1, 74, 90
3, 132719, Note_on_c, 1, 74, 0
3, 132720, Note_on_c, 1, 66, 90
3, 132779, Note_on_c, 1, 66, 0
3, 132780, Note_on_c, 1, 67, 90
3, 132839, Note_on_c, 1, 67, 0
3, 132840, Note_on_c, 1, 69, 90
3, 132899, Note_on_c, 1, 69, 0
3, 132900, Note_on_c, 1, 71, 90
3, 132959, Note_on_c, 1, 71, 0
3, 132960, Note_on_c, 1, 67, 90
3, 133019, Note_on_c, 1, 67, 0
3, 133020, Note_on_c, 1, 69, 90
3, 133079, Note_on_c, 1, 69, 0
3, 133080, Note_on_c, 1, 71, 90
3, 133139, Note_on_c, 1, 71, 0
3, 133140, Note_on_c, 1, 72, 90
3, 133199, Note_on_c, 1, 72, 0
3, 133200, Note_on_c, 1, 64, 90
3, 133259, Note_on_c, 1, 64, 0
3, 133260, Note_on_c, 1, 66, 90
3, 133319, Note_on_c, 1, 66, 0
3, 133320, Note_on_c, 1, 67, 90
3, 133379, Note_on_c, 1, 67, 0
3, 133380, Note_on_c, 1, 69, 90
3, 133439, Note_on_c, 1, 69, 0
3, 133440, Note_on_c, 1, 66, 90
3, 133499, Note_on_c, 1, 66, 0
3, 133500, Note_on_c, 1, 67, 90
3, 133559, Note_on_c, 1, 67, 0
3, 133560, Note_on_c, 1, 69, 90
3, 133619, Note_on_c, 1, 69, 0
3, 133620, Note_on_c, 1, 62, 90
3, 133679, Note_on_c, 1, 62, 0
3, 133680, Note_on_c, 1, 66, 90
3, 133739, Note_on_c, 1, 66, 0
3, 133740, Note_on_c, 1, 69, 90
3, 133799, Note_on_c, 1, 69, 0
3, 133800, Note_on_c, 1, 74, 90
3, 133919, Note_on_c, 1, 74, 0
3, 133920, Note_on_c, 1, 74, 90
3, 135120, Note_on_c, 1, 74, 0
3, 135120, Note_on_c, 1, 72, 90
3, 135420, Note_on_c, 1, 72, 0
3, 135420, Note_on_c, 1, 62, 90
3, 135479, Note_on_c, 1, 62, 0
3, 135480, Note_on_c, 1, 66, 90
3, 135539, Note_on_c, 1, 66, 0
3, 135540, Note_on_c, 1, 69, 90
3, 135599, Note_on_c, 1, 69, 0
3, 135600, Note_on_c, 1, 72, 90
3, 135659, Note_on_c, 1, 72, 0
3, 135660, Note_on_c, 1, 76, 90
3, 135719, Note_on_c, 1, 76, 0
3, 135720, Note_on_c, 1, 74, 90
3, 135779, Note_on_c, 1, 74, 0
3, 135780, Note_on_c, 1, 72, 90
3, 135839, Note_on_c, 1, 72, 0
3, 135840, Note_on_c, 1, 71, 90
3, 135899, Note_on_c, 1, 71, 0
3, 135900, Note_on_c, 1, 67, 90
3, 135959, Note_on_c, 1, 67, 0
3, 135960, Note_on_c, 1, 66, 90
3, 136019, Note_on_c, 1, 66, 0
3, 136020, Note_on_c, 1, 67, 90
3, 136079, Note_on_c, 1, 67, 0
3, 136080, Note_on_c, 1, 79, 90
3, 136199, Note_on_c, 1, 79, 0
3, 136200, Note_on_c, 1, 74, 90
3, 136319, Note_on_c, 1, 74, 0
3, 136320, Note_on_c, 1, 71, 90
3, 136439, Note_on_c, 1, 71, 0
3, 136440, Note_on_c, 1, 69, 90
3, 136499, Note_on_c, 1, 69, 0
3, 136500, Note_on_c, 1, 67, 90
3, 136559, Note_on_c, 1, 67, 0
3, 136560, Note_on_c, 1, 74, 90
3, 136679, Note_on_c, 1, 74, 0
3, 136680, Note_on_c, 1, 74, 90
3, 136799, Note_on_c, 1, 74, 0
3, 136800, Note_on_c, 1, 74, 90
3, 136919, Note_on_c, 1, 74, 0
3, 136920, Note_on_c, 1, 72, 90
3, 136979, Note_on_c, 1, 72, 0
3, 136980, Note_on_c, 1, 71, 90
3, 137039, Note_on_c, 1, 71, 0
3, 137040, Note_on_c, 1, 72, 90
3, 137099, Note_on_c, 1, 72, 0
3, 137100, Note_on_c, 1, 74, 90
3, 137159, Note_on_c, 1, 74, 0
3, 137160, Note_on_c, 1, 76, 90
3, 137279, Note_on_c, 1, 76, 0
3, 137280, Note_on_c, 1, 76, 90
3, 137399, Note_on_c, 1, 76, 0
3, 137400, Note_on_c, 1, 69, 90
3, 137519, Note_on_c, 1, 69, 0
3, 137520, Note_on_c, 1, 69, 90
3, 137639, Note_on_c, 1, 69, 0
3, 137640, Note_on_c, 1, 72, 90
3, 137879, Note_on_c, 1, 72, 0
3, 137880, Note_on_c, 1, 71, 90
3, 137939, Note_on_c, 1, 71, 0
3, 137940, Note_on_c, 1, 69, 90
3, 137999, Note_on_c, 1, 69, 0
3, 138000, Note_on_c, 1, 71, 90
3, 138059, Note_on_c, 1, 71, 0
3, 138060, Note_on_c, 1, 72, 90
3, 138119, Note_on_c, 1, 72, 0
3, 138120, Note_on_c, 1, 74, 90
3, 138239, Note_on_c, 1, 74, 0
3, 138240, Note_on_c, 1, 74, 90
3, 138359, Note_on_c, 1, 74, 0
3, 138360, Note_on_c, 1, 67, 90
3, 138479, Note_on_c, 1, 67, 0
3, 138480, Note_on_c, 1, 67, 90
3, 138599, Note_on_c, 1, 67, 0
3, 138600, Note_on_c, 1, 72, 90
3, 138719, Note_on_c, 1, 72, 0
3, 138720, Note_on_c, 1, 71, 90
3, 138899, Note_on_c, 1, 71, 0
3, 138900, Note_on_c, 1, 69, 90
3, 138959, Note_on_c, 1, 69, 0
3, 138960, Note_on_c, 1, 69, 90
3, 138989, Note_on_c, 1, 69, 0
3, 138990, Note_on_c, 1, 71, 90
3, 139019, Note_on_c, 1, 71, 0
3, 139020, Note_on_c, 1, 69, 90
3, 139049, Note_on_c, 1, 69, 0
3, 139050, Note_on_c, 1, 71, 90
3, 139079, Note_on_c, 1, 71, 0
3, 139080, Note_on_c, 1, 69, 90
3, 139099, Note_on_c, 1, 69, 0
3, 139100, Note_on_c, 1, 71, 90
3, 139119, Note_on_c, 1, 71, 0
3, 139120, Note_on_c, 1, 69, 90
3, 139139, Note_on_c, 1, 69, 0
3, 139140, Note_on_c, 1, 67, 90
3, 139199, Note_on_c, 1, 67, 0
3, 139200, Note_on_c, 1, 67, 90
3, 139559, Note_on_c, 1, 67, 0
3, 139559, End_track
4, 0, Start_track
4, 0, MIDI_port, 0
4, 0, Title_t, "Clave L"
4, 0, Program_c, 2, 6
4, 0, Note_on_c, 2, 43, 90
4, 59, Note_on_c, 2, 43, 0
4, 60, Note_on_c, 2, 47, 90
4, 119, Note_on_c, 2, 47, 0
4, 120, Note_on_c, 2, 50, 90
4, 179, Note_on_c, 2, 50, 0
4, 180, Note_on_c, 2, 55, 90
4, 239, Note_on_c, 2, 55, 0
4, 240, Note_on_c, 2, 59, 90
4, 299, Note_on_c, 2, 59, 0
4, 300, Note_on_c, 2, 62, 90
4, 359, Note_on_c, 2, 62, 0
4, 360, Note_on_c, 2, 55, 90
4, 419, Note_on_c, 2, 55, 0
4, 420, Note_on_c, 2, 47, 90
4, 479, Note_on_c, 2, 47, 0
4, 480, Note_on_c, 2, 50, 90
4, 539, Note_on_c, 2, 50, 0
4, 540, Note_on_c, 2, 43, 90
4, 599, Note_on_c, 2, 43, 0
4, 600, Note_on_c, 2, 47, 90
4, 659, Note_on_c, 2, 47, 0
4, 660, Note_on_c, 2, 43, 90
4, 719, Note_on_c, 2, 43, 0
4, 720, Note_on_c, 2, 50, 90
4, 779, Note_on_c, 2, 50, 0
4, 780, Note_on_c, 2, 62, 90
4, 839, Note_on_c, 2, 62, 0
4, 840, Note_on_c, 2, 60, 90
4, 899, Note_on_c, 2, 60, 0
4, 900, Note_on_c, 2, 59, 90
4, 929, Note_on_c, 2, 59, 0
4, 930, Note_on_c, 2, 57, 90
4, 959, Note_on_c, 2, 57, 0
4, 960, Note_on_c, 2, 60, 90
4, 989, Note_on_c, 2, 60, 0
4, 990, Note_on_c, 2, 59, 90
4, 1019, Note_on_c, 2, 59, 0
4, 1020, Note_on_c, 2, 57, 90
4, 1049, Note_on_c, 2, 57, 0
4, 1050, Note_on_c, 2, 55, 90
4, 1079, Note_on_c, 2, 55, 0
4, 1080, Note_on_c, 2, 60, 90
4, 1139, Note_on_c, 2, 60, 0
4, 1140, Note_on_c, 2, 57, 90
4, 1199, Note_on_c, 2, 57, 0
4, 1200, Note_on_c, 2, 52, 90
4, 1259, Note_on_c, 2, 52, 0
4, 1260, Note_on_c, 2, 54, 90
4, 1319, Note_on_c, 2, 54, 0
4, 1320, Note_on_c, 2, 55, 90
4, 1379, Note_on_c, 2, 55, 0
4, 1380, Note_on_c, 2, 52, 90
4, 1439, Note_on_c, 2, 52, 0
4, 1440, Note_on_c, 2, 57, 90
4, 1499, Note_on_c, 2, 57, 0
4, 1500, Note_on_c, 2, 54, 90
4, 1559, Note_on_c, 2, 54, 0
4, 1560, Note_on_c, 2, 50, 90
4, 1619, Note_on_c, 2, 50, 0
4, 1620, Note_on_c, 2, 55, 90
4, 1679, Note_on_c, 2, 55, 0
4, 1680, Note_on_c, 2, 59, 90
4, 1739, Note_on_c, 2, 59, 0
4, 1740, Note_on_c, 2, 57, 90
4, 1799, Note_on_c, 2, 57, 0
4, 1800, Note_on_c, 2, 59, 90
4, 1859, Note_on_c, 2, 59, 0
4, 1860, Note_on_c, 2, 60, 90
4, 1919, Note_on_c, 2, 60, 0
4, 1920, Note_on_c, 2, 57, 90
4, 1979, Note_on_c, 2, 57, 0
4, 1980, Note_on_c, 2, 62, 90
4, 2099, Note_on_c, 2, 62, 0
4, 2160, Note_on_c, 2, 38, 90
4, 2219, Note_on_c, 2, 38, 0
4, 2220, Note_on_c, 2, 42, 90
4, 2279, Note_on_c, 2, 42, 0
4, 2280, Note_on_c, 2, 45, 90
4, 2339, Note_on_c, 2, 45, 0
4, 2340, Note_on_c, 2, 50, 90
4, 2399, Note_on_c, 2, 50, 0
4, 2400, Note_on_c, 2, 54, 90
4, 2459, Note_on_c, 2, 54, 0
4, 2460, Note_on_c, 2, 57, 90
4, 2519, Note_on_c, 2, 57, 0
4, 2520, Note_on_c, 2, 62, 90
4, 2579, Note_on_c, 2, 62, 0
4, 2580, Note_on_c, 2, 54, 90
4, 2639, Note_on_c, 2, 54, 0
4, 2640, Note_on_c, 2, 57, 90
4, 2699, Note_on_c, 2, 57, 0
4, 2700, Note_on_c, 2, 50, 90
4, 2759, Note_on_c, 2, 50, 0
4, 2760, Note_on_c, 2, 54, 90
4, 2819, Note_on_c, 2, 54, 0
4, 2820, Note_on_c, 2, 50, 90
4, 2879, Note_on_c, 2, 50, 0
4, 2880, Note_on_c, 2, 43, 90
4, 2939, Note_on_c, 2, 43, 0
4, 2940, Note_on_c, 2, 57, 90
4, 2999, Note_on_c, 2, 57, 0
4, 3000, Note_on_c, 2, 55, 90
4, 3059, Note_on_c, 2, 55, 0
4, 3060, Note_on_c, 2, 54, 90
4, 3089, Note_on_c, 2, 54, 0
4, 3090, Note_on_c, 2, 52, 90
4, 3119, Note_on_c, 2, 52, 0
4, 3120, Note_on_c, 2, 55, 90
4, 3149, Note_on_c, 2, 55, 0
4, 3150, Note_on_c, 2, 54, 90
4, 3179, Note_on_c, 2, 54, 0
4, 3180, Note_on_c, 2, 52, 90
4, 3209, Note_on_c, 2, 52, 0
4, 3210, Note_on_c, 2, 50, 90
4, 3239, Note_on_c, 2, 50, 0
4, 3240, Note_on_c, 2, 55, 90
4, 3299, Note_on_c, 2, 55, 0
4, 3300, Note_on_c, 2, 52, 90
4, 3359, Note_on_c, 2, 52, 0
4, 3360, Note_on_c, 2, 47, 90
4, 3419, Note_on_c, 2, 47, 0
4, 3420, Note_on_c, 2, 49, 90
4, 3479, Note_on_c, 2, 49, 0
4, 3480, Note_on_c, 2, 50, 90
4, 3539, Note_on_c, 2, 50, 0
4, 3540, Note_on_c, 2, 47, 90
4, 3599, Note_on_c, 2, 47, 0
4, 3600, Note_on_c, 2, 52, 90
4, 3659, Note_on_c, 2, 52, 0
4, 3660, Note_on_c, 2, 49, 90
4, 3719, Note_on_c, 2, 49, 0
4, 3720, Note_on_c, 2, 45, 90
4, 3779, Note_on_c, 2, 45, 0
4, 3780, Note_on_c, 2, 50, 90
4, 3839, Note_on_c, 2, 50, 0
4, 3840, Note_on_c, 2, 54, 90
4, 3899, Note_on_c, 2, 54, 0
4, 3900, Note_on_c, 2, 52, 90
4, 3959, Note_on_c, 2, 52, 0
4, 3960, Note_on_c, 2, 54, 90
4, 4019, Note_on_c, 2, 54, 0
4, 4020, Note_on_c, 2, 55, 90
4, 4079, Note_on_c, 2, 55, 0
4, 4080, Note_on_c, 2, 50, 90
4, 4139, Note_on_c, 2, 50, 0
4, 4140, Note_on_c, 2, 55, 90
4, 4199, Note_on_c, 2, 55, 0
4, 4200, Note_on_c, 2, 45, 90
4, 4259, Note_on_c, 2, 45, 0
4, 4260, Note_on_c, 2, 43, 90
4, 4319, Note_on_c, 2, 43, 0
4, 4320, Note_on_c, 2, 42, 90
4, 4379, Note_on_c, 2, 42, 0
4, 4380, Note_on_c, 2, 44, 90
4, 4439, Note_on_c, 2, 44, 0
4, 4440, Note_on_c, 2, 46, 90
4, 4499, Note_on_c, 2, 46, 0
4, 4500, Note_on_c, 2, 47, 90
4, 4559, Note_on_c, 2, 47, 0
4, 4560, Note_on_c, 2, 49, 90
4, 4619, Note_on_c, 2, 49, 0
4, 4620, Note_on_c, 2, 51, 90
4, 4679, Note_on_c, 2, 51, 0
4, 4680, Note_on_c, 2, 52, 90
4, 4799, Note_on_c, 2, 52, 0
4, 4860, Note_on_c, 2, 53, 90
4, 4979, Note_on_c, 2, 53, 0
4, 5040, Note_on_c, 2, 54, 90
4, 5159, Note_on_c, 2, 54, 0
4, 5220, Note_on_c, 2, 56, 90
4, 5339, Note_on_c, 2, 56, 0
4, 5400, Note_on_c, 2, 58, 90
4, 5519, Note_on_c, 2, 58, 0
4, 5580, Note_on_c, 2, 59, 90
4, 5639, Note_on_c, 2, 59, 0
4, 5640, Note_on_c, 2, 58, 90
4, 5699, Note_on_c, 2, 58, 0
4, 5700, Note_on_c, 2, 56, 90
4, 5759, Note_on_c, 2, 56, 0
4, 5760, Note_on_c, 2, 58, 90
4, 5819, Note_on_c, 2, 58, 0
4, 5820, Note_on_c, 2, 54, 90
4, 5879, Note_on_c, 2, 54, 0
4, 5880, Note_on_c, 2, 55, 90
4, 5939, Note_on_c, 2, 55, 0
4, 5940, Note_on_c, 2, 52, 90
4, 5999, Note_on_c, 2, 52, 0
4, 6000, Note_on_c, 2, 54, 90
4, 6059, Note_on_c, 2, 54, 0
4, 6060, Note_on_c, 2, 42, 90
4, 6119, Note_on_c, 2, 42, 0
4, 6120, Note_on_c, 2, 47, 90
4, 6239, Note_on_c, 2, 47, 0
4, 6240, Note_on_c, 2, 54, 90
4, 6269, Note_on_c, 2, 54, 0
4, 6270, Note_on_c, 2, 52, 90
4, 6299, Note_on_c, 2, 52, 0
4, 6300, Note_on_c, 2, 50, 90
4, 6329, Note_on_c, 2, 50, 0
4, 6330, Note_on_c, 2, 49, 90
4, 6359, Note_on_c, 2, 49, 0
4, 6360, Note_on_c, 2, 47, 90
4, 6419, Note_on_c, 2, 47, 0
4, 6420, Note_on_c, 2, 51, 90
4, 6479, Note_on_c, 2, 51, 0
4, 6480, Note_on_c, 2, 52, 90
4, 6539, Note_on_c, 2, 52, 0
4, 6540, Note_on_c, 2, 59, 90
4, 6569, Note_on_c, 2, 59, 0
4, 6570, Note_on_c, 2, 57, 90
4, 6599, Note_on_c, 2, 57, 0
4, 6600, Note_on_c, 2, 55, 90
4, 6629, Note_on_c, 2, 55, 0
4, 6630, Note_on_c, 2, 54, 90
4, 6659, Note_on_c, 2, 54, 0
4, 6660, Note_on_c, 2, 52, 90
4, 6719, Note_on_c, 2, 52, 0
4, 6720, Note_on_c, 2, 40, 90
4, 6779, Note_on_c, 2, 40, 0
4, 6780, Note_on_c, 2, 43, 90
4, 6839, Note_on_c, 2, 43, 0
4, 6840, Note_on_c, 2, 45, 90
4, 6959, Note_on_c, 2, 45, 0
4, 6960, Note_on_c, 2, 52, 90
4, 6989, Note_on_c, 2, 52, 0
4, 6990, Note_on_c, 2, 50, 90
4, 7019, Note_on_c, 2, 50, 0
4, 7020, Note_on_c, 2, 49, 90
4, 7049, Note_on_c, 2, 49, 0
4, 7050, Note_on_c, 2, 47, 90
4, 7079, Note_on_c, 2, 47, 0
4, 7080, Note_on_c, 2, 45, 90
4, 7139, Note_on_c, 2, 45, 0
4, 7140, Note_on_c, 2, 49, 90
4, 7199, Note_on_c, 2, 49, 0
4, 7200, Note_on_c, 2, 50, 90
4, 7259, Note_on_c, 2, 50, 0
4, 7260, Note_on_c, 2, 57, 90
4, 7289, Note_on_c, 2, 57, 0
4, 7290, Note_on_c, 2, 55, 90
4, 7319, Note_on_c, 2, 55, 0
4, 7320, Note_on_c, 2, 54, 90
4, 7349, Note_on_c, 2, 54, 0
4, 7350, Note_on_c, 2, 52, 90
4, 7379, Note_on_c, 2, 52, 0
4, 7380, Note_on_c, 2, 50, 90
4, 7439, Note_on_c, 2, 50, 0
4, 7440, Note_on_c, 2, 38, 90
4, 7499, Note_on_c, 2, 38, 0
4, 7500, Note_on_c, 2, 54, 90
4, 7559, Note_on_c, 2, 54, 0
4, 7560, Note_on_c, 2, 55, 90
4, 7619, Note_on_c, 2, 55, 0
4, 7620, Note_on_c, 2, 57, 90
4, 7679, Note_on_c, 2, 57, 0
4, 7680, Note_on_c, 2, 59, 90
4, 7739, Note_on_c, 2, 59, 0
4, 7740, Note_on_c, 2, 52, 90
4, 7799, Note_on_c, 2, 52, 0
4, 7800, Note_on_c, 2, 54, 90
4, 7859, Note_on_c, 2, 54, 0
4, 7860, Note_on_c, 2, 55, 90
4, 7919, Note_on_c, 2, 55, 0
4, 7920, Note_on_c, 2, 49, 90
4, 7979, Note_on_c, 2, 49, 0
4, 7980, Note_on_c, 2, 50, 90
4, 8039, Note_on_c, 2, 50, 0
4, 8040, Note_on_c, 2, 52, 90
4, 8099, Note_on_c, 2, 52, 0
4, 8100, Note_on_c, 2, 45, 90
4, 8159, Note_on_c, 2, 45, 0
4, 8160, Note_on_c, 2, 47, 90
4, 8219, Note_on_c, 2, 47, 0
4, 8220, Note_on_c, 2, 49, 90
4, 8279, Note_on_c, 2, 49, 0
4, 8280, Note_on_c, 2, 50, 90
4, 8339, Note_on_c, 2, 50, 0
4, 8340, Note_on_c, 2, 42, 90
4, 8399, Note_on_c, 2, 42, 0
4, 8400, Note_on_c, 2, 43, 90
4, 8459, Note_on_c, 2, 43, 0
4, 8460, Note_on_c, 2, 45, 90
4, 8519, Note_on_c, 2, 45, 0
4, 8520, Note_on_c, 2, 43, 90
4, 8579, Note_on_c, 2, 43, 0
4, 8580, Note_on_c, 2, 45, 90
4, 8639, Note_on_c, 2, 45, 0
4, 8640, Note_on_c, 2, 38, 90
4, 8699, Note_on_c, 2, 38, 0
4, 8700, Note_on_c, 2, 42, 90
4, 8759, Note_on_c, 2, 42, 0
4, 8760, Note_on_c, 2, 45, 90
4, 8819, Note_on_c, 2, 45, 0
4, 8820, Note_on_c, 2, 50, 90
4, 8879, Note_on_c, 2, 50, 0
4, 8880, Note_on_c, 2, 54, 90
4, 8939, Note_on_c, 2, 54, 0
4, 8940, Note_on_c, 2, 50, 90
4, 8999, Note_on_c, 2, 50, 0
4, 9000, Note_on_c, 2, 55, 90
4, 9059, Note_on_c, 2, 55, 0
4, 9060, Note_on_c, 2, 47, 90
4, 9119, Note_on_c, 2, 47, 0
4, 9120, Note_on_c, 2, 50, 90
4, 9179, Note_on_c, 2, 50, 0
4, 9180, Note_on_c, 2, 43, 90
4, 9239, Note_on_c, 2, 43, 0
4, 9240, Note_on_c, 2, 47, 90
4, 9299, Note_on_c, 2, 47, 0
4, 9300, Note_on_c, 2, 43, 90
4, 9359, Note_on_c, 2, 43, 0
4, 9360, Note_on_c, 2, 50, 90
4, 9419, Note_on_c, 2, 50, 0
4, 9420, Note_on_c, 2, 62, 90
4, 9479, Note_on_c, 2, 62, 0
4, 9480, Note_on_c, 2, 60, 90
4, 9539, Note_on_c, 2, 60, 0
4, 9540, Note_on_c, 2, 59, 90
4, 9569, Note_on_c, 2, 59, 0
4, 9570, Note_on_c, 2, 57, 90
4, 9599, Note_on_c, 2, 57, 0
4, 9600, Note_on_c, 2, 60, 90
4, 9629, Note_on_c, 2, 60, 0
4, 9630, Note_on_c, 2, 59, 90
4, 9659, Note_on_c, 2, 59, 0
4, 9660, Note_on_c, 2, 57, 90
4, 9689, Note_on_c, 2, 57, 0
4, 9690, Note_on_c, 2, 55, 90
4, 9719, Note_on_c, 2, 55, 0
4, 9720, Note_on_c, 2, 60, 90
4, 9779, Note_on_c, 2, 60, 0
4, 9780, Note_on_c, 2, 57, 90
4, 9839, Note_on_c, 2, 57, 0
4, 9840, Note_on_c, 2, 52, 90
4, 9899, Note_on_c, 2, 52, 0
4, 9900, Note_on_c, 2, 54, 90
4, 9959, Note_on_c, 2, 54, 0
4, 9960, Note_on_c, 2, 55, 90
4, 10019, Note_on_c, 2, 55, 0
4, 10020, Note_on_c, 2, 52, 90
4, 10079, Note_on_c, 2, 52, 0
4, 10080, Note_on_c, 2, 57, 90
4, 10139, Note_on_c, 2, 57, 0
4, 10140, Note_on_c, 2, 54, 90
4, 10199, Note_on_c, 2, 54, 0
4, 10200, Note_on_c, 2, 50, 90
4, 10259, Note_on_c, 2, 50, 0
4, 10260, Note_on_c, 2, 55, 90
4, 10319, Note_on_c, 2, 55, 0
4, 10320, Note_on_c, 2, 59, 90
4, 10379, Note_on_c, 2, 59, 0
4, 10380, Note_on_c, 2, 57, 90
4, 10439, Note_on_c, 2, 57, 0
4, 10440, Note_on_c, 2, 59, 90
4, 10499, Note_on_c, 2, 59, 0
4, 10500, Note_on_c, 2, 60, 90
4, 10559, Note_on_c, 2, 60, 0
4, 10560, Note_on_c, 2, 55, 90
4, 10619, Note_on_c, 2, 55, 0
4, 10620, Note_on_c, 2, 60, 90
4, 10739, Note_on_c, 2, 60, 0
4, 10800, Note_on_c, 2, 43, 90
4, 10859, Note_on_c, 2, 43, 0
4, 10860, Note_on_c, 2, 47, 90
4, 10919, Note_on_c, 2, 47, 0
4, 10920, Note_on_c, 2, 50, 90
4, 10979, Note_on_c, 2, 50, 0
4, 10980, Note_on_c, 2, 55, 90
4, 11039, Note_on_c, 2, 55, 0
4, 11040, Note_on_c, 2, 59, 90
4, 11099, Note_on_c, 2, 59, 0
4, 11100, Note_on_c, 2, 62, 90
4, 11159, Note_on_c, 2, 62, 0
4, 11160, Note_on_c, 2, 55, 90
4, 11219, Note_on_c, 2, 55, 0
4, 11220, Note_on_c, 2, 47, 90
4, 11279, Note_on_c, 2, 47, 0
4, 11280, Note_on_c, 2, 50, 90
4, 11339, Note_on_c, 2, 50, 0
4, 11340, Note_on_c, 2, 43, 90
4, 11399, Note_on_c, 2, 43, 0
4, 11400, Note_on_c, 2, 47, 90
4, 11459, Note_on_c, 2, 47, 0
4, 11460, Note_on_c, 2, 43, 90
4, 11519, Note_on_c, 2, 43, 0
4, 11520, Note_on_c, 2, 50, 90
4, 11579, Note_on_c, 2, 50, 0
4, 11580, Note_on_c, 2, 62, 90
4, 11639, Note_on_c, 2, 62, 0
4, 11640, Note_on_c, 2, 60, 90
4, 11699, Note_on_c, 2, 60, 0
4, 11700, Note_on_c, 2, 59, 90
4, 11759, Note_on_c, 2, 59, 0
4, 11760, Note_on_c, 2, 57, 90
4, 11819, Note_on_c, 2, 57, 0
4, 11820, Note_on_c, 2, 55, 90
4, 11879, Note_on_c, 2, 55, 0
4, 11880, Note_on_c, 2, 60, 90
4, 11939, Note_on_c, 2, 60, 0
4, 11940, Note_on_c, 2, 57, 90
4, 11999, Note_on_c, 2, 57, 0
4, 12000, Note_on_c, 2, 52, 90
4, 12059, Note_on_c, 2, 52, 0
4, 12060, Note_on_c, 2, 54, 90
4, 12119, Note_on_c, 2, 54, 0
4, 12120, Note_on_c, 2, 55, 90
4, 12179, Note_on_c, 2, 55, 0
4, 12180, Note_on_c, 2, 52, 90
4, 12239, Note_on_c, 2, 52, 0
4, 12240, Note_on_c, 2, 57, 90
4, 12299, Note_on_c, 2, 57, 0
4, 12300, Note_on_c, 2, 54, 90
4, 12359, Note_on_c, 2, 54, 0
4, 12360, Note_on_c, 2, 50, 90
4, 12419, Note_on_c, 2, 50, 0
4, 12420, Note_on_c, 2, 43, 90
4, 12479, Note_on_c, 2, 43, 0
4, 12480, Note_on_c, 2, 47, 90
4, 12539, Note_on_c, 2, 47, 0
4, 12540, Note_on_c, 2, 45, 90
4, 12599, Note_on_c, 2, 45, 0
4, 12600, Note_on_c, 2, 47, 90
4, 12659, Note_on_c, 2, 47, 0
4, 12660, Note_on_c, 2, 48, 90
4, 12719, Note_on_c, 2, 48, 0
4, 12720, Note_on_c, 2, 45, 90
4, 12779, Note_on_c, 2, 45, 0
4, 12780, Note_on_c, 2, 50, 90
4, 12899, Note_on_c, 2, 50, 0
4, 12900, Note_on_c, 2, 48, 90
4, 12959, Note_on_c, 2, 48, 0
4, 12960, Note_on_c, 2, 47, 90
4, 13019, Note_on_c, 2, 47, 0
4, 13020, Note_on_c, 2, 49, 90
4, 13079, Note_on_c, 2, 49, 0
4, 13080, Note_on_c, 2, 51, 90
4, 13139, Note_on_c, 2, 51, 0
4, 13140, Note_on_c, 2, 52, 90
4, 13199, Note_on_c, 2, 52, 0
4, 13200, Note_on_c, 2, 54, 90
4, 13259, Note_on_c, 2, 54, 0
4, 13260, Note_on_c, 2, 56, 90
4, 13319, Note_on_c, 2, 56, 0
4, 13320, Note_on_c, 2, 57, 90
4, 13439, Note_on_c, 2, 57, 0
4, 13500, Note_on_c, 2, 58, 90
4, 13559, Note_on_c, 2, 58, 0
4, 13680, Note_on_c, 2, 59, 90
4, 13799, Note_on_c, 2, 59, 0
4, 13860, Note_on_c, 2, 61, 90
4, 13979, Note_on_c, 2, 61, 0
4, 14040, Note_on_c, 2, 63, 90
4, 14159, Note_on_c, 2, 63, 0
4, 14220, Note_on_c, 2, 64, 90
4, 14279, Note_on_c, 2, 64, 0
4, 14280, Note_on_c, 2, 63, 90
4, 14339, Note_on_c, 2, 63, 0
4, 14340, Note_on_c, 2, 61, 90
4, 14399, Note_on_c, 2, 61, 0
4, 14400, Note_on_c, 2, 63, 90
4, 14459, Note_on_c, 2, 63, 0
4, 14460, Note_on_c, 2, 59, 90
4, 14519, Note_on_c, 2, 59, 0
4, 14520, Note_on_c, 2, 60, 90
4, 14579, Note_on_c, 2, 60, 0
4, 14580, Note_on_c, 2, 57, 90
4, 14639, Note_on_c, 2, 57, 0
4, 14640, Note_on_c, 2, 59, 90
4, 14699, Note_on_c, 2, 59, 0
4, 14700, Note_on_c, 2, 47, 90
4, 14759, Note_on_c, 2, 47, 0
4, 14760, Note_on_c, 2, 40, 90
4, 14879, Note_on_c, 2, 40, 0
4, 14880, Note_on_c, 2, 59, 90
4, 14909, Note_on_c, 2, 59, 0
4, 14910, Note_on_c, 2, 57, 90
4, 14939, Note_on_c, 2, 57, 0
4, 14940, Note_on_c, 2, 55, 90
4, 14969, Note_on_c, 2, 55, 0
4, 14970, Note_on_c, 2, 54, 90
4, 14999, Note_on_c, 2, 54, 0
4, 15000, Note_on_c, 2, 52, 90
4, 15059, Note_on_c, 2, 52, 0
4, 15060, Note_on_c, 2, 56, 90
4, 15119, Note_on_c, 2, 56, 0
4, 15120, Note_on_c, 2, 57, 90
4, 15179, Note_on_c, 2, 57, 0
4, 15180, Note_on_c, 2, 52, 90
4, 15209, Note_on_c, 2, 52, 0
4, 15210, Note_on_c, 2, 50, 90
4, 15239, Note_on_c, 2, 50, 0
4, 15240, Note_on_c, 2, 48, 90
4, 15269, Note_on_c, 2, 48, 0
4, 15270, Note_on_c, 2, 47, 90
4, 15299, Note_on_c, 2, 47, 0
4, 15300, Note_on_c, 2, 45, 90
4, 15419, Note_on_c, 2, 45, 0
4, 15420, Note_on_c, 2, 48, 90
4, 15479, Note_on_c, 2, 48, 0
4, 15480, Note_on_c, 2, 38, 90
4, 15599, Note_on_c, 2, 38, 0
4, 15600, Note_on_c, 2, 57, 90
4, 15629, Note_on_c, 2, 57, 0
4, 15630, Note_on_c, 2, 55, 90
4, 15659, Note_on_c, 2, 55, 0
4, 15660, Note_on_c, 2, 54, 90
4, 15689, Note_on_c, 2, 54, 0
4, 15690, Note_on_c, 2, 52, 90
4, 15719, Note_on_c, 2, 52, 0
4, 15720, Note_on_c, 2, 50, 90
4, 15779, Note_on_c, 2, 50, 0
4, 15780, Note_on_c, 2, 54, 90
4, 15839, Note_on_c, 2, 54, 0
4, 15840, Note_on_c, 2, 55, 90
4, 15899, Note_on_c, 2, 55, 0
4, 15900, Note_on_c, 2, 50, 90
4, 15929, Note_on_c, 2, 50, 0
4, 15930, Note_on_c, 2, 48, 90
4, 15959, Note_on_c, 2, 48, 0
4, 15960, Note_on_c, 2, 47, 90
4, 15989, Note_on_c, 2, 47, 0
4, 15990, Note_on_c, 2, 45, 90
4, 16019, Note_on_c, 2, 45, 0
4, 16020, Note_on_c, 2, 43, 90
4, 16079, Note_on_c, 2, 43, 0
4, 16080, Note_on_c, 2, 45, 90
4, 16139, Note_on_c, 2, 45, 0
4, 16140, Note_on_c, 2, 47, 90
4, 16199, Note_on_c, 2, 47, 0
4, 16200, Note_on_c, 2, 48, 90
4, 16259, Note_on_c, 2, 48, 0
4, 16260, Note_on_c, 2, 50, 90
4, 16319, Note_on_c, 2, 50, 0
4, 16320, Note_on_c, 2, 52, 90
4, 16379, Note_on_c, 2, 52, 0
4, 16380, Note_on_c, 2, 45, 90
4, 16439, Note_on_c, 2, 45, 0
4, 16440, Note_on_c, 2, 47, 90
4, 16499, Note_on_c, 2, 47, 0
4, 16500, Note_on_c, 2, 48, 90
4, 16559, Note_on_c, 2, 48, 0
4, 16560, Note_on_c, 2, 42, 90
4, 16619, Note_on_c, 2, 42, 0
4, 16620, Note_on_c, 2, 43, 90
4, 16679, Note_on_c, 2, 43, 0
4, 16680, Note_on_c, 2, 45, 90
4, 16739, Note_on_c, 2, 45, 0
4, 16740, Note_on_c, 2, 38, 90
4, 16799, Note_on_c, 2, 38, 0
4, 16800, Note_on_c, 2, 40, 90
4, 16859, Note_on_c, 2, 40, 0
4, 16860, Note_on_c, 2, 42, 90
4, 16919, Note_on_c, 2, 42, 0
4, 16920, Note_on_c, 2, 43, 90
4, 16979, Note_on_c, 2, 43, 0
4, 16980, Note_on_c, 2, 47, 90
4, 17039, Note_on_c, 2, 47, 0
4, 17040, Note_on_c, 2, 48, 90
4, 17099, Note_on_c, 2, 48, 0
4, 17100, Note_on_c, 2, 50, 90
4, 17159, Note_on_c, 2, 50, 0
4, 17160, Note_on_c, 2, 48, 90
4, 17219, Note_on_c, 2, 48, 0
4, 17220, Note_on_c, 2, 50, 90
4, 17279, Note_on_c, 2, 50, 0
4, 17280, Note_on_c, 2, 43, 90
4, 17400, Note_on_c, 2, 43, 0
4, 17640, Note_on_c, 2, 41, 90
4, 17760, Note_on_c, 2, 41, 0
4, 18000, Note_on_c, 2, 40, 90
4, 18120, Note_on_c, 2, 40, 0
4, 18360, Note_on_c, 2, 39, 90
4, 18480, Note_on_c, 2, 39, 0
4, 18720, Note_on_c, 2, 38, 90
4, 18840, Note_on_c, 2, 38, 0
4, 19080, Note_on_c, 2, 37, 90
4, 19440, Note_on_c, 2, 37, 0
4, 19440, Note_on_c, 2, 38, 90
4, 20160, Note_on_c, 2, 38, 0
4, 20880, Note_on_c, 2, 43, 100
4, 21000, Note_on_c, 2, 43, 0
4, 21000, Note_on_c, 2, 47, 100
4, 21120, Note_on_c, 2, 47, 0
4, 21120, Note_on_c, 2, 43, 100
4, 21240, Note_on_c, 2, 43, 0
4, 21240, Note_on_c, 2, 50, 100
4, 21360, Note_on_c, 2, 50, 0
4, 21360, Note_on_c, 2, 54, 100
4, 21480, Note_on_c, 2, 54, 0
4, 21480, Note_on_c, 2, 50, 100
4, 21600, Note_on_c, 2, 50, 0
4, 21600, Note_on_c, 2, 55, 100
4, 21720, Note_on_c, 2, 55, 0
4, 21780, Note_on_c, 2, 59, 100
4, 21840, Note_on_c, 2, 59, 0
4, 21840, Note_on_c, 2, 55, 100
4, 21900, Note_on_c, 2, 55, 0
4, 21900, Note_on_c, 2, 59, 100
4, 21960, Note_on_c, 2, 59, 0
4, 21960, Note_on_c, 2, 60, 100
4, 22020, Note_on_c, 2, 60, 0
4, 22020, Note_on_c, 2, 59, 100
4, 22080, Note_on_c, 2, 59, 0
4, 22080, Note_on_c, 2, 60, 100
4, 22140, Note_on_c, 2, 60, 0
4, 22140, Note_on_c, 2, 62, 100
4, 22200, Note_on_c, 2, 62, 0
4, 22200, Note_on_c, 2, 64, 100
4, 22260, Note_on_c, 2, 64, 0
4, 22260, Note_on_c, 2, 52, 100
4, 22320, Note_on_c, 2, 52, 0
4, 22320, Note_on_c, 2, 50, 100
4, 22380, Note_on_c, 2, 50, 0
4, 22380, Note_on_c, 2, 57, 100
4, 22410, Note_on_c, 2, 57, 0
4, 22410, Note_on_c, 2, 55, 100
4, 22440, Note_on_c, 2, 55, 0
4, 22440, Note_on_c, 2, 54, 100
4, 22500, Note_on_c, 2, 54, 0
4, 22500, Note_on_c, 2, 52, 100
4, 22560, Note_on_c, 2, 52, 0
4, 22560, Note_on_c, 2, 54, 100
4, 22620, Note_on_c, 2, 54, 0
4, 22620, Note_on_c, 2, 50, 100
4, 22680, Note_on_c, 2, 50, 0
4, 22680, Note_on_c, 2, 57, 100
4, 22710, Note_on_c, 2, 57, 0
4, 22710, Note_on_c, 2, 56, 100
4, 22740, Note_on_c, 2, 56, 0
4, 22740, Note_on_c, 2, 57, 100
4, 22770, Note_on_c, 2, 57, 0
4, 22770, Note_on_c, 2, 59, 100
4, 22800, Note_on_c, 2, 59, 0
4, 22800, Note_on_c, 2, 61, 100
4, 22830, Note_on_c, 2, 61, 0
4, 22830, Note_on_c, 2, 62, 100
4, 22860, Note_on_c, 2, 62, 0
4, 22860, Note_on_c, 2, 64, 100
4, 22920, Note_on_c, 2, 64, 0
4, 22920, Note_on_c, 2, 61, 100
4, 22980, Note_on_c, 2, 61, 0
4, 22980, Note_on_c, 2, 57, 100
4, 23040, Note_on_c, 2, 57, 0
4, 23040, Note_on_c, 2, 62, 100
4, 23160, Note_on_c, 2, 62, 0
4, 23280, Note_on_c, 2, 50, 100
4, 23400, Note_on_c, 2, 50, 0
4, 23400, Note_on_c, 2, 55, 100
4, 23520, Note_on_c, 2, 55, 0
4, 23640, Note_on_c, 2, 52, 100
4, 23760, Note_on_c, 2, 52, 0
4, 23760, Note_on_c, 2, 57, 100
4, 23820, Note_on_c, 2, 57, 0
4, 23820, Note_on_c, 2, 55, 100
4, 23880, Note_on_c, 2, 55, 0
4, 23880, Note_on_c, 2, 54, 100
4, 23940, Note_on_c, 2, 54, 0
4, 23940, Note_on_c, 2, 52, 100
4, 24000, Note_on_c, 2, 52, 0
4, 24000, Note_on_c, 2, 54, 100
4, 24060, Note_on_c, 2, 54, 0
4, 24060, Note_on_c, 2, 50, 100
4, 24120, Note_on_c, 2, 50, 0
4, 24120, Note_on_c, 2, 55, 100
4, 24180, Note_on_c, 2, 55, 0
4, 24180, Note_on_c, 2, 57, 100
4, 24240, Note_on_c, 2, 57, 0
4, 24240, Note_on_c, 2, 55, 100
4, 24300, Note_on_c, 2, 55, 0
4, 24300, Note_on_c, 2, 54, 100
4, 24360, Note_on_c, 2, 54, 0
4, 24360, Note_on_c, 2, 52, 100
4, 24420, Note_on_c, 2, 52, 0
4, 24420, Note_on_c, 2, 50, 100
4, 24480, Note_on_c, 2, 50, 0
4, 24480, Note_on_c, 2, 52, 100
4, 24540, Note_on_c, 2, 52, 0
4, 24540, Note_on_c, 2, 47, 100
4, 24600, Note_on_c, 2, 47, 0
4, 24600, Note_on_c, 2, 52, 100
4, 24660, Note_on_c, 2, 52, 0
4, 24660, Note_on_c, 2, 54, 100
4, 24720, Note_on_c, 2, 54, 0
4, 24720, Note_on_c, 2, 55, 100
4, 24780, Note_on_c, 2, 55, 0
4, 24780, Note_on_c, 2, 52, 100
4, 24840, Note_on_c, 2, 52, 0
4, 24840, Note_on_c, 2, 45, 100
4, 24900, Note_on_c, 2, 45, 0
4, 24900, Note_on_c, 2, 47, 100
4, 24960, Note_on_c, 2, 47, 0
4, 24960, Note_on_c, 2, 49, 100
4, 25020, Note_on_c, 2, 49, 0
4, 25020, Note_on_c, 2, 47, 100
4, 25080, Note_on_c, 2, 47, 0
4, 25080, Note_on_c, 2, 45, 100
4, 25140, Note_on_c, 2, 45, 0
4, 25140, Note_on_c, 2, 43, 100
4, 25200, Note_on_c, 2, 43, 0
4, 25200, Note_on_c, 2, 42, 100
4, 25260, Note_on_c, 2, 42, 0
4, 25260, Note_on_c, 2, 40, 100
4, 25320, Note_on_c, 2, 40, 0
4, 25320, Note_on_c, 2, 38, 100
4, 25380, Note_on_c, 2, 38, 0
4, 25380, Note_on_c, 2, 43, 100
4, 25440, Note_on_c, 2, 43, 0
4, 25440, Note_on_c, 2, 45, 100
4, 25470, Note_on_c, 2, 45, 0
4, 25470, Note_on_c, 2, 43, 100
4, 25500, Note_on_c, 2, 43, 0
4, 25500, Note_on_c, 2, 45, 100
4, 25560, Note_on_c, 2, 45, 0
4, 25560, Note_on_c, 2, 38, 100
4, 25680, Note_on_c, 2, 38, 0
4, 25740, Note_on_c, 2, 50, 100
4, 25770, Note_on_c, 2, 50, 0
4, 25770, Note_on_c, 2, 49, 100
4, 25800, Note_on_c, 2, 49, 0
4, 25800, Note_on_c, 2, 47, 100
4, 25860, Note_on_c, 2, 47, 0
4, 25860, Note_on_c, 2, 45, 100
4, 25920, Note_on_c, 2, 45, 0
4, 25920, Note_on_c, 2, 43, 100
4, 25980, Note_on_c, 2, 43, 0
4, 25980, Note_on_c, 2, 45, 100
4, 26010, Note_on_c, 2, 45, 0
4, 26010, Note_on_c, 2, 47, 100
4, 26040, Note_on_c, 2, 47, 0
4, 26040, Note_on_c, 2, 49, 100
4, 26070, Note_on_c, 2, 49, 0
4, 26070, Note_on_c, 2, 50, 100
4, 26100, Note_on_c, 2, 50, 0
4, 26100, Note_on_c, 2, 52, 100
4, 26130, Note_on_c, 2, 52, 0
4, 26130, Note_on_c, 2, 50, 100
4, 26160, Note_on_c, 2, 50, 0
4, 26160, Note_on_c, 2, 49, 100
4, 26220, Note_on_c, 2, 49, 0
4, 26220, Note_on_c, 2, 45, 100
4, 26280, Note_on_c, 2, 45, 0
4, 26280, Note_on_c, 2, 50, 100
4, 26340, Note_on_c, 2, 50, 0
4, 26340, Note_on_c, 2, 38, 100
4, 26400, Note_on_c, 2, 38, 0
4, 26460, Note_on_c, 2, 54, 100
4, 26490, Note_on_c, 2, 54, 0
4, 26490, Note_on_c, 2, 52, 100
4, 26520, Note_on_c, 2, 52, 0
4, 26520, Note_on_c, 2, 50, 100
4, 26580, Note_on_c, 2, 50, 0
4, 26580, Note_on_c, 2, 54, 100
4, 26640, Note_on_c, 2, 54, 0
4, 26640, Note_on_c, 2, 57, 100
4, 26670, Note_on_c, 2, 57, 0
4, 26670, Note_on_c, 2, 59, 100
4, 26700, Note_on_c, 2, 59, 0
4, 26700, Note_on_c, 2, 60, 100
4, 26730, Note_on_c, 2, 60, 0
4, 26730, Note_on_c, 2, 59, 100
4, 26760, Note_on_c, 2, 59, 0
4, 26760, Note_on_c, 2, 57, 100
4, 26790, Note_on_c, 2, 57, 0
4, 26790, Note_on_c, 2, 55, 100
4, 26820, Note_on_c, 2, 55, 0
4, 26820, Note_on_c, 2, 54, 100
4, 26850, Note_on_c, 2, 54, 0
4, 26850, Note_on_c, 2, 52, 100
4, 26880, Note_on_c, 2, 52, 0
4, 26880, Note_on_c, 2, 50, 100
4, 26910, Note_on_c, 2, 50, 0
4, 26910, Note_on_c, 2, 48, 100
4, 26940, Note_on_c, 2, 48, 0
4, 26940, Note_on_c, 2, 47, 100
4, 26970, Note_on_c, 2, 47, 0
4, 26970, Note_on_c, 2, 45, 100
4, 27000, Note_on_c, 2, 45, 0
4, 27000, Note_on_c, 2, 43, 100
4, 27120, Note_on_c, 2, 43, 0
4, 27180, Note_on_c, 2, 55, 100
4, 27210, Note_on_c, 2, 55, 0
4, 27210, Note_on_c, 2, 57, 100
4, 27240, Note_on_c, 2, 57, 0
4, 27240, Note_on_c, 2, 59, 100
4, 27300, Note_on_c, 2, 59, 0
4, 27300, Note_on_c, 2, 55, 100
4, 27360, Note_on_c, 2, 55, 0
4, 27360, Note_on_c, 2, 62, 100
4, 27420, Note_on_c, 2, 62, 0
4, 27420, Note_on_c, 2, 50, 100
4, 27480, Note_on_c, 2, 50, 0
4, 27540, Note_on_c, 2, 50, 100
4, 27570, Note_on_c, 2, 50, 0
4, 27570, Note_on_c, 2, 52, 100
4, 27600, Note_on_c, 2, 52, 0
4, 27600, Note_on_c, 2, 54, 100
4, 27660, Note_on_c, 2, 54, 0
4, 27660, Note_on_c, 2, 50, 100
4, 27720, Note_on_c, 2, 50, 0
4, 27720, Note_on_c, 2, 55, 100
4, 27780, Note_on_c, 2, 55, 0
4, 27780, Note_on_c, 2, 43, 100
4, 27840, Note_on_c, 2, 43, 0
4, 27900, Note_on_c, 2, 47, 100
4, 27930, Note_on_c, 2, 47, 0
4, 27930, Note_on_c, 2, 45, 100
4, 27960, Note_on_c, 2, 45, 0
4, 27960, Note_on_c, 2, 43, 100
4, 28020, Note_on_c, 2, 43, 0
4, 28020, Note_on_c, 2, 47, 100
4, 28080, Note_on_c, 2, 47, 0
4, 28080, Note_on_c, 2, 50, 90
4, 28109, Note_on_c, 2, 50, 0
4, 28110, Note_on_c, 2, 52, 90
4, 28139, Note_on_c, 2, 52, 0
4, 28140, Note_on_c, 2, 53, 90
4, 28169, Note_on_c, 2, 53, 0
4, 28170, Note_on_c, 2, 52, 90
4, 28199, Note_on_c, 2, 52, 0
4, 28200, Note_on_c, 2, 50, 90
4, 28229, Note_on_c, 2, 50, 0
4, 28230, Note_on_c, 2, 48, 90
4, 28259, Note_on_c, 2, 48, 0
4, 28260, Note_on_c, 2, 47, 90
4, 28289, Note_on_c, 2, 47, 0
4, 28290, Note_on_c, 2, 45, 90
4, 28319, Note_on_c, 2, 45, 0
4, 28320, Note_on_c, 2, 43, 90
4, 28349, Note_on_c, 2, 43, 0
4, 28350, Note_on_c, 2, 41, 90
4, 28379, Note_on_c, 2, 41, 0
4, 28380, Note_on_c, 2, 40, 90
4, 28409, Note_on_c, 2, 40, 0
4, 28410, Note_on_c, 2, 38, 90
4, 28439, Note_on_c, 2, 38, 0
4, 28440, Note_on_c, 2, 36, 90
4, 28499, Note_on_c, 2, 36, 0
4, 28500, Note_on_c, 2, 60, 90
4, 28529, Note_on_c, 2, 60, 0
4, 28530, Note_on_c, 2, 59, 90
4, 28559, Note_on_c, 2, 59, 0
4, 28560, Note_on_c, 2, 60, 90
4, 28619, Note_on_c, 2, 60, 0
4, 28620, Note_on_c, 2, 60, 90
4, 28679, Note_on_c, 2, 60, 0
4, 28680, Note_on_c, 2, 60, 90
4, 28739, Note_on_c, 2, 60, 0
4, 28740, Note_on_c, 2, 60, 90
4, 28799, Note_on_c, 2, 60, 0
4, 28800, Note_on_c, 2, 60, 90
4, 28859, Note_on_c, 2, 60, 0
4, 28860, Note_on_c, 2, 59, 90
4, 28889, Note_on_c, 2, 59, 0
4, 28890, Note_on_c, 2, 57, 90
4, 28919, Note_on_c, 2, 57, 0
4, 28920, Note_on_c, 2, 59, 90
4, 28979, Note_on_c, 2, 59, 0
4, 28980, Note_on_c, 2, 59, 90
4, 29039, Note_on_c, 2, 59, 0
4, 29040, Note_on_c, 2, 59, 90
4, 29099, Note_on_c, 2, 59, 0
4, 29100, Note_on_c, 2, 59, 90
4, 29159, Note_on_c, 2, 59, 0
4, 29160, Note_on_c, 2, 59, 90
4, 29219, Note_on_c, 2, 59, 0
4, 29220, Note_on_c, 2, 57, 90
4, 29249, Note_on_c, 2, 57, 0
4, 29250, Note_on_c, 2, 55, 90
4, 29279, Note_on_c, 2, 55, 0
4, 29280, Note_on_c, 2, 57, 90
4, 29339, Note_on_c, 2, 57, 0
4, 29340, Note_on_c, 2, 50, 90
4, 29399, Note_on_c, 2, 50, 0
4, 29400, Note_on_c, 2, 55, 90
4, 29459, Note_on_c, 2, 55, 0
4, 29460, Note_on_c, 2, 57, 90
4, 29519, Note_on_c, 2, 57, 0
4, 29520, Note_on_c, 2, 59, 90
4, 29579, Note_on_c, 2, 59, 0
4, 29580, Note_on_c, 2, 47, 90
4, 29639, Note_on_c, 2, 47, 0
4, 29640, Note_on_c, 2, 52, 90
4, 29699, Note_on_c, 2, 52, 0
4, 29700, Note_on_c, 2, 54, 90
4, 29759, Note_on_c, 2, 54, 0
4, 29760, Note_on_c, 2, 55, 90
4, 29819, Note_on_c, 2, 55, 0
4, 29820, Note_on_c, 2, 43, 90
4, 29879, Note_on_c, 2, 43, 0
4, 29880, Note_on_c, 2, 48, 90
4, 29939, Note_on_c, 2, 48, 0
4, 29940, Note_on_c, 2, 52, 90
4, 29969, Note_on_c, 2, 52, 0
4, 29970, Note_on_c, 2, 50, 90
4, 29999, Note_on_c, 2, 50, 0
4, 30000, Note_on_c, 2, 52, 90
4, 30059, Note_on_c, 2, 52, 0
4, 30060, Note_on_c, 2, 48, 90
4, 30119, Note_on_c, 2, 48, 0
4, 30120, Note_on_c, 2, 50, 90
4, 30179, Note_on_c, 2, 50, 0
4, 30180, Note_on_c, 2, 52, 90
4, 30239, Note_on_c, 2, 52, 0
4, 30240, Note_on_c, 2, 42, 90
4, 30299, Note_on_c, 2, 42, 0
4, 30300, Note_on_c, 2, 54, 90
4, 30359, Note_on_c, 2, 54, 0
4, 30360, Note_on_c, 2, 59, 90
4, 30419, Note_on_c, 2, 59, 0
4, 30420, Note_on_c, 2, 57, 90
4, 30449, Note_on_c, 2, 57, 0
4, 30450, Note_on_c, 2, 55, 90
4, 30479, Note_on_c, 2, 55, 0
4, 30480, Note_on_c, 2, 57, 90
4, 30539, Note_on_c, 2, 57, 0
4, 30540, Note_on_c, 2, 51, 90
4, 30599, Note_on_c, 2, 51, 0
4, 30600, Note_on_c, 2, 52, 90
4, 30659, Note_on_c, 2, 52, 0
4, 30660, Note_on_c, 2, 57, 90
4, 30689, Note_on_c, 2, 57, 0
4, 30690, Note_on_c, 2, 55, 90
4, 30719, Note_on_c, 2, 55, 0
4, 30720, Note_on_c, 2, 54, 90
4, 30749, Note_on_c, 2, 54, 0
4, 30750, Note_on_c, 2, 57, 90
4, 30779, Note_on_c, 2, 57, 0
4, 30780, Note_on_c, 2, 62, 90
4, 30809, Note_on_c, 2, 62, 0
4, 30810, Note_on_c, 2, 60, 90
4, 30839, Note_on_c, 2, 60, 0
4, 30840, Note_on_c, 2, 59, 90
4, 30869, Note_on_c, 2, 59, 0
4, 30870, Note_on_c, 2, 57, 90
4, 30899, Note_on_c, 2, 57, 0
4, 30900, Note_on_c, 2, 55, 90
4, 30959, Note_on_c, 2, 55, 0
4, 30960, Note_on_c, 2, 60, 90
4, 31019, Note_on_c, 2, 60, 0
4, 31020, Note_on_c, 2, 48, 90
4, 31049, Note_on_c, 2, 48, 0
4, 31050, Note_on_c, 2, 47, 90
4, 31079, Note_on_c, 2, 47, 0
4, 31080, Note_on_c, 2, 48, 90
4, 31139, Note_on_c, 2, 48, 0
4, 31140, Note_on_c, 2, 45, 90
4, 31199, Note_on_c, 2, 45, 0
4, 31200, Note_on_c, 2, 50, 90
4, 31259, Note_on_c, 2, 50, 0
4, 31260, Note_on_c, 2, 38, 90
4, 31319, Note_on_c, 2, 38, 0
4, 31320, Note_on_c, 2, 43, 90
4, 31439, Note_on_c, 2, 43, 0
4, 31560, Note_on_c, 2, 43, 90
4, 31679, Note_on_c, 2, 43, 0
4, 31680, Note_on_c, 2, 48, 90
4, 31799, Note_on_c, 2, 48, 0
4, 31920, Note_on_c, 2, 45, 90
4, 32039, Note_on_c, 2, 45, 0
4, 32040, Note_on_c, 2, 50, 90
4, 32099, Note_on_c, 2, 50, 0
4, 32100, Note_on_c, 2, 54, 90
4, 32159, Note_on_c, 2, 54, 0
4, 32160, Note_on_c, 2, 55, 90
4, 32219, Note_on_c, 2, 55, 0
4, 32220, Note_on_c, 2, 48, 90
4, 32279, Note_on_c, 2, 48, 0
4, 32280, Note_on_c, 2, 50, 90
4, 32339, Note_on_c, 2, 50, 0
4, 32340, Note_on_c, 2, 38, 90
4, 32399, Note_on_c, 2, 38, 0
4, 32400, Note_on_c, 2, 43, 90
4, 32459, Note_on_c, 2, 43, 0
4, 32460, Note_on_c, 2, 59, 90
4, 32489, Note_on_c, 2, 59, 0
4, 32490, Note_on_c, 2, 57, 90
4, 32519, Note_on_c, 2, 57, 0
4, 32520, Note_on_c, 2, 55, 90
4, 32549, Note_on_c, 2, 55, 0
4, 32550, Note_on_c, 2, 54, 90
4, 32579, Note_on_c, 2, 54, 0
4, 32580, Note_on_c, 2, 52, 90
4, 32699, Note_on_c, 2, 52, 0
4, 32700, Note_on_c, 2, 54, 90
4, 32729, Note_on_c, 2, 54, 0
4, 32730, Note_on_c, 2, 56, 90
4, 32759, Note_on_c, 2, 56, 0
4, 32760, Note_on_c, 2, 57, 90
4, 32789, Note_on_c, 2, 57, 0
4, 32790, Note_on_c, 2, 59, 90
4, 32819, Note_on_c, 2, 59, 0
4, 32820, Note_on_c, 2, 57, 90
4, 32849, Note_on_c, 2, 57, 0
4, 32850, Note_on_c, 2, 55, 90
4, 32879, Note_on_c, 2, 55, 0
4, 32880, Note_on_c, 2, 54, 90
4, 32909, Note_on_c, 2, 54, 0
4, 32910, Note_on_c, 2, 52, 90
4, 32939, Note_on_c, 2, 52, 0
4, 32940, Note_on_c, 2, 50, 90
4, 33059, Note_on_c, 2, 50, 0
4, 33060, Note_on_c, 2, 52, 90
4, 33089, Note_on_c, 2, 52, 0
4, 33090, Note_on_c, 2, 54, 90
4, 33119, Note_on_c, 2, 54, 0
4, 33120, Note_on_c, 2, 55, 90
4, 33149, Note_on_c, 2, 55, 0
4, 33150, Note_on_c, 2, 57, 90
4, 33179, Note_on_c, 2, 57, 0
4, 33180, Note_on_c, 2, 55, 90
4, 33209, Note_on_c, 2, 55, 0
4, 33210, Note_on_c, 2, 54, 90
4, 33239, Note_on_c, 2, 54, 0
4, 33240, Note_on_c, 2, 52, 90
4, 33269, Note_on_c, 2, 52, 0
4, 33270, Note_on_c, 2, 50, 90
4, 33299, Note_on_c, 2, 50, 0
4, 33300, Note_on_c, 2, 49, 90
4, 33419, Note_on_c, 2, 49, 0
4, 33420, Note_on_c, 2, 51, 90
4, 33449, Note_on_c, 2, 51, 0
4, 33450, Note_on_c, 2, 52, 90
4, 33479, Note_on_c, 2, 52, 0
4, 33480, Note_on_c, 2, 54, 90
4, 33509, Note_on_c, 2, 54, 0
4, 33510, Note_on_c, 2, 55, 90
4, 33539, Note_on_c, 2, 55, 0
4, 33540, Note_on_c, 2, 54, 90
4, 33569, Note_on_c, 2, 54, 0
4, 33570, Note_on_c, 2, 52, 90
4, 33599, Note_on_c, 2, 52, 0
4, 33600, Note_on_c, 2, 51, 90
4, 33629, Note_on_c, 2, 51, 0
4, 33630, Note_on_c, 2, 49, 90
4, 33659, Note_on_c, 2, 49, 0
4, 33660, Note_on_c, 2, 47, 90
4, 33779, Note_on_c, 2, 47, 0
4, 33780, Note_on_c, 2, 49, 90
4, 33809, Note_on_c, 2, 49, 0
4, 33810, Note_on_c, 2, 51, 90
4, 33839, Note_on_c, 2, 51, 0
4, 33840, Note_on_c, 2, 52, 90
4, 33899, Note_on_c, 2, 52, 0
4, 33900, Note_on_c, 2, 40, 90
4, 33959, Note_on_c, 2, 40, 0
4, 33990, Note_on_c, 2, 47, 90
4, 34019, Note_on_c, 2, 47, 0
4, 34020, Note_on_c, 2, 49, 90
4, 34049, Note_on_c, 2, 49, 0
4, 34050, Note_on_c, 2, 51, 90
4, 34079, Note_on_c, 2, 51, 0
4, 34080, Note_on_c, 2, 52, 90
4, 34109, Note_on_c, 2, 52, 0
4, 34110, Note_on_c, 2, 54, 90
4, 34139, Note_on_c, 2, 54, 0
4, 34140, Note_on_c, 2, 55, 90
4, 34169, Note_on_c, 2, 55, 0
4, 34200, Note_on_c, 2, 55, 90
4, 34215, Note_on_c, 2, 55, 0
4, 34215, Note_on_c, 2, 57, 90
4, 34230, Note_on_c, 2, 57, 0
4, 34230, Note_on_c, 2, 55, 90
4, 34259, Note_on_c, 2, 55, 0
4, 34260, Note_on_c, 2, 54, 90
4, 34319, Note_on_c, 2, 54, 0
4, 34320, Note_on_c, 2, 54, 90
4, 34379, Note_on_c, 2, 54, 0
4, 34380, Note_on_c, 2, 51, 90
4, 34409, Note_on_c, 2, 51, 0
4, 34410, Note_on_c, 2, 52, 90
4, 34439, Note_on_c, 2, 52, 0
4, 34440, Note_on_c, 2, 54, 90
4, 34469, Note_on_c, 2, 54, 0
4, 34470, Note_on_c, 2, 55, 90
4, 34499, Note_on_c, 2, 55, 0
4, 34500, Note_on_c, 2, 57, 90
4, 34529, Note_on_c, 2, 57, 0
4, 34560, Note_on_c, 2, 57, 90
4, 34575, Note_on_c, 2, 57, 0
4, 34575, Note_on_c, 2, 59, 90
4, 34590, Note_on_c, 2, 59, 0
4, 34590, Note_on_c, 2, 57, 90
4, 34619, Note_on_c, 2, 57, 0
4, 34620, Note_on_c, 2, 55, 90
4, 34679, Note_on_c, 2, 55, 0
4, 34680, Note_on_c, 2, 55, 90
4, 34739, Note_on_c, 2, 55, 0
4, 34740, Note_on_c, 2, 59, 90
4, 34799, Note_on_c, 2, 59, 0
4, 34800, Note_on_c, 2, 57, 90
4, 34829, Note_on_c, 2, 57, 0
4, 34830, Note_on_c, 2, 55, 90
4, 34859, Note_on_c, 2, 55, 0
4, 34860, Note_on_c, 2, 54, 90
4, 34889, Note_on_c, 2, 54, 0
4, 34890, Note_on_c, 2, 52, 90
4, 34919, Note_on_c, 2, 52, 0
4, 34920, Note_on_c, 2, 60, 90
4, 34979, Note_on_c, 2, 60, 0
4, 34980, Note_on_c, 2, 64, 90
4, 35009, Note_on_c, 2, 64, 0
4, 35010, Note_on_c, 2, 62, 90
4, 35039, Note_on_c, 2, 62, 0
4, 35040, Note_on_c, 2, 60, 90
4, 35099, Note_on_c, 2, 60, 0
4, 35100, Note_on_c, 2, 59, 90
4, 35159, Note_on_c, 2, 59, 0
4, 35160, Note_on_c, 2, 57, 90
4, 35189, Note_on_c, 2, 57, 0
4, 35190, Note_on_c, 2, 55, 90
4, 35219, Note_on_c, 2, 55, 0
4, 35220, Note_on_c, 2, 54, 90
4, 35249, Note_on_c, 2, 54, 0
4, 35250, Note_on_c, 2, 52, 90
4, 35279, Note_on_c, 2, 52, 0
4, 35280, Note_on_c, 2, 54, 90
4, 35309, Note_on_c, 2, 54, 0
4, 35310, Note_on_c, 2, 52, 90
4, 35339, Note_on_c, 2, 52, 0
4, 35340, Note_on_c, 2, 51, 90
4, 35369, Note_on_c, 2, 51, 0
4, 35370, Note_on_c, 2, 49, 90
4, 35399, Note_on_c, 2, 49, 0
4, 35400, Note_on_c, 2, 48, 90
4, 35459, Note_on_c, 2, 48, 0
4, 35460, Note_on_c, 2, 51, 90
4, 35519, Note_on_c, 2, 51, 0
4, 35520, Note_on_c, 2, 52, 90
4, 35579, Note_on_c, 2, 52, 0
4, 35580, Note_on_c, 2, 55, 90
4, 35639, Note_on_c, 2, 55, 0
4, 35640, Note_on_c, 2, 48, 90
4, 35699, Note_on_c, 2, 48, 0
4, 35700, Note_on_c, 2, 47, 90
4, 35759, Note_on_c, 2, 47, 0
4, 35760, Note_on_c, 2, 45, 90
4, 35819, Note_on_c, 2, 45, 0
4, 35820, Note_on_c, 2, 43, 90
4, 35849, Note_on_c, 2, 43, 0
4, 35850, Note_on_c, 2, 45, 90
4, 35879, Note_on_c, 2, 45, 0
4, 35880, Note_on_c, 2, 47, 90
4, 35939, Note_on_c, 2, 47, 0
4, 35940, Note_on_c, 2, 35, 90
4, 35999, Note_on_c, 2, 35, 0
4, 36000, Note_on_c, 2, 40, 90
4, 36119, Note_on_c, 2, 40, 0
4, 36180, Note_on_c, 2, 47, 90
4, 36239, Note_on_c, 2, 47, 0
4, 36240, Note_on_c, 2, 52, 90
4, 36299, Note_on_c, 2, 52, 0
4, 36300, Note_on_c, 2, 50, 90
4, 36359, Note_on_c, 2, 50, 0
4, 36360, Note_on_c, 2, 52, 90
4, 36479, Note_on_c, 2, 52, 0
4, 36540, Note_on_c, 2, 55, 90
4, 36569, Note_on_c, 2, 55, 0
4, 36570, Note_on_c, 2, 54, 90
4, 36599, Note_on_c, 2, 54, 0
4, 36600, Note_on_c, 2, 55, 90
4, 36659, Note_on_c, 2, 55, 0
4, 36660, Note_on_c, 2, 52, 90
4, 36719, Note_on_c, 2, 52, 0
4, 36720, Note_on_c, 2, 54, 90
4, 36779, Note_on_c, 2, 54, 0
4, 36780, Note_on_c, 2, 42, 90
4, 36839, Note_on_c, 2, 42, 0
4, 36840, Note_on_c, 2, 54, 90
4, 37140, Note_on_c, 2, 54, 0
4, 37140, Note_on_c, 2, 56, 90
4, 37199, Note_on_c, 2, 56, 0
4, 37200, Note_on_c, 2, 58, 90
4, 37259, Note_on_c, 2, 58, 0
4, 37260, Note_on_c, 2, 61, 90
4, 37319, Note_on_c, 2, 61, 0
4, 37320, Note_on_c, 2, 54, 90
4, 37379, Note_on_c, 2, 54, 0
4, 37380, Note_on_c, 2, 56, 90
4, 37439, Note_on_c, 2, 56, 0
4, 37440, Note_on_c, 2, 50, 90
4, 37499, Note_on_c, 2, 50, 0
4, 37500, Note_on_c, 2, 49, 90
4, 37559, Note_on_c, 2, 49, 0
4, 37560, Note_on_c, 2, 47, 90
4, 37619, Note_on_c, 2, 47, 0
4, 37620, Note_on_c, 2, 52, 90
4, 37679, Note_on_c, 2, 52, 0
4, 37680, Note_on_c, 2, 54, 90
4, 37739, Note_on_c, 2, 54, 0
4, 37740, Note_on_c, 2, 42, 90
4, 37799, Note_on_c, 2, 42, 0
4, 37800, Note_on_c, 2, 47, 90
4, 37859, Note_on_c, 2, 47, 0
4, 37860, Note_on_c, 2, 59, 90
4, 37889, Note_on_c, 2, 59, 0
4, 37890, Note_on_c, 2, 58, 90
4, 37919, Note_on_c, 2, 58, 0
4, 37920, Note_on_c, 2, 59, 90
4, 37979, Note_on_c, 2, 59, 0
4, 37980, Note_on_c, 2, 52, 90
4, 38039, Note_on_c, 2, 52, 0
4, 38040, Note_on_c, 2, 54, 90
4, 38099, Note_on_c, 2, 54, 0
4, 38100, Note_on_c, 2, 56, 90
4, 38159, Note_on_c, 2, 56, 0
4, 38160, Note_on_c, 2, 57, 90
4, 38189, Note_on_c, 2, 57, 0
4, 38190, Note_on_c, 2, 59, 90
4, 38219, Note_on_c, 2, 59, 0
4, 38220, Note_on_c, 2, 57, 90
4, 38249, Note_on_c, 2, 57, 0
4, 38250, Note_on_c, 2, 55, 90
4, 38279, Note_on_c, 2, 55, 0
4, 38280, Note_on_c, 2, 54, 90
4, 38339, Note_on_c, 2, 54, 0
4, 38340, Note_on_c, 2, 50, 90
4, 38399, Note_on_c, 2, 50, 0
4, 38400, Note_on_c, 2, 52, 90
4, 38459, Note_on_c, 2, 52, 0
4, 38460, Note_on_c, 2, 54, 90
4, 38519, Note_on_c, 2, 54, 0
4, 38520, Note_on_c, 2, 55, 90
4, 38579, Note_on_c, 2, 55, 0
4, 38580, Note_on_c, 2, 43, 90
4, 38639, Note_on_c, 2, 43, 0
4, 38670, Note_on_c, 2, 54, 90
4, 38699, Note_on_c, 2, 54, 0
4, 38700, Note_on_c, 2, 55, 90
4, 38729, Note_on_c, 2, 55, 0
4, 38730, Note_on_c, 2, 57, 90
4, 38759, Note_on_c, 2, 57, 0
4, 38760, Note_on_c, 2, 59, 90
4, 38819, Note_on_c, 2, 59, 0
4, 38820, Note_on_c, 2, 47, 90
4, 38879, Note_on_c, 2, 47, 0
4, 38880, Note_on_c, 2, 52, 90
4, 38909, Note_on_c, 2, 52, 0
4, 38910, Note_on_c, 2, 50, 90
4, 38939, Note_on_c, 2, 50, 0
4, 38940, Note_on_c, 2, 49, 90
4, 38969, Note_on_c, 2, 49, 0
4, 38970, Note_on_c, 2, 47, 90
4, 38999, Note_on_c, 2, 47, 0
4, 39000, Note_on_c, 2, 45, 90
4, 39059, Note_on_c, 2, 45, 0
4, 39060, Note_on_c, 2, 52, 90
4, 39119, Note_on_c, 2, 52, 0
4, 39120, Note_on_c, 2, 57, 90
4, 39179, Note_on_c, 2, 57, 0
4, 39180, Note_on_c, 2, 45, 90
4, 39239, Note_on_c, 2, 45, 0
4, 39240, Note_on_c, 2, 38, 90
4, 39299, Note_on_c, 2, 38, 0
4, 39300, Note_on_c, 2, 50, 90
4, 39329, Note_on_c, 2, 50, 0
4, 39330, Note_on_c, 2, 52, 90
4, 39359, Note_on_c, 2, 52, 0
4, 39360, Note_on_c, 2, 50, 90
4, 39419, Note_on_c, 2, 50, 0
4, 39420, Note_on_c, 2, 49, 90
4, 39479, Note_on_c, 2, 49, 0
4, 39480, Note_on_c, 2, 47, 90
4, 39539, Note_on_c, 2, 47, 0
4, 39540, Note_on_c, 2, 45, 90
4, 39599, Note_on_c, 2, 45, 0
4, 39600, Note_on_c, 2, 43, 90
4, 39659, Note_on_c, 2, 43, 0
4, 39660, Note_on_c, 2, 55, 90
4, 39689, Note_on_c, 2, 55, 0
4, 39690, Note_on_c, 2, 54, 90
4, 39719, Note_on_c, 2, 54, 0
4, 39720, Note_on_c, 2, 55, 90
4, 39779, Note_on_c, 2, 55, 0
4, 39780, Note_on_c, 2, 55, 90
4, 39839, Note_on_c, 2, 55, 0
4, 39840, Note_on_c, 2, 55, 90
4, 39899, Note_on_c, 2, 55, 0
4, 39900, Note_on_c, 2, 55, 90
4, 39959, Note_on_c, 2, 55, 0
4, 39960, Note_on_c, 2, 55, 90
4, 40019, Note_on_c, 2, 55, 0
4, 40020, Note_on_c, 2, 54, 90
4, 40049, Note_on_c, 2, 54, 0
4, 40050, Note_on_c, 2, 52, 90
4, 40079, Note_on_c, 2, 52, 0
4, 40080, Note_on_c, 2, 54, 90
4, 40139, Note_on_c, 2, 54, 0
4, 40140, Note_on_c, 2, 54, 90
4, 40199, Note_on_c, 2, 54, 0
4, 40200, Note_on_c, 2, 54, 90
4, 40259, Note_on_c, 2, 54, 0
4, 40260, Note_on_c, 2, 54, 90
4, 40319, Note_on_c, 2, 54, 0
4, 40320, Note_on_c, 2, 54, 90
4, 40379, Note_on_c, 2, 54, 0
4, 40380, Note_on_c, 2, 52, 90
4, 40409, Note_on_c, 2, 52, 0
4, 40410, Note_on_c, 2, 50, 90
4, 40439, Note_on_c, 2, 50, 0
4, 40440, Note_on_c, 2, 52, 90
4, 40499, Note_on_c, 2, 52, 0
4, 40500, Note_on_c, 2, 45, 90
4, 40559, Note_on_c, 2, 45, 0
4, 40560, Note_on_c, 2, 50, 90
4, 40619, Note_on_c, 2, 50, 0
4, 40620, Note_on_c, 2, 52, 90
4, 40679, Note_on_c, 2, 52, 0
4, 40680, Note_on_c, 2, 54, 90
4, 40739, Note_on_c, 2, 54, 0
4, 40740, Note_on_c, 2, 42, 90
4, 40799, Note_on_c, 2, 42, 0
4, 40800, Note_on_c, 2, 47, 90
4, 40859, Note_on_c, 2, 47, 0
4, 40860, Note_on_c, 2, 49, 90
4, 40919, Note_on_c, 2, 49, 0
4, 40920, Note_on_c, 2, 50, 90
4, 40979, Note_on_c, 2, 50, 0
4, 40980, Note_on_c, 2, 38, 90
4, 41039, Note_on_c, 2, 38, 0
4, 41040, Note_on_c, 2, 43, 90
4, 41099, Note_on_c, 2, 43, 0
4, 41100, Note_on_c, 2, 45, 90
4, 41159, Note_on_c, 2, 45, 0
4, 41160, Note_on_c, 2, 47, 90
4, 41219, Note_on_c, 2, 47, 0
4, 41220, Note_on_c, 2, 43, 90
4, 41279, Note_on_c, 2, 43, 0
4, 41280, Note_on_c, 2, 45, 90
4, 41339, Note_on_c, 2, 45, 0
4, 41340, Note_on_c, 2, 47, 90
4, 41399, Note_on_c, 2, 47, 0
4, 41400, Note_on_c, 2, 37, 90
4, 41459, Note_on_c, 2, 37, 0
4, 41460, Note_on_c, 2, 49, 90
4, 41519, Note_on_c, 2, 49, 0
4, 41520, Note_on_c, 2, 54, 90
4, 41579, Note_on_c, 2, 54, 0
4, 41580, Note_on_c, 2, 52, 90
4, 41609, Note_on_c, 2, 52, 0
4, 41610, Note_on_c, 2, 50, 90
4, 41639, Note_on_c, 2, 50, 0
4, 41640, Note_on_c, 2, 52, 90
4, 41699, Note_on_c, 2, 52, 0
4, 41700, Note_on_c, 2, 46, 90
4, 41759, Note_on_c, 2, 46, 0
4, 41760, Note_on_c, 2, 47, 90
4, 41819, Note_on_c, 2, 47, 0
4, 41820, Note_on_c, 2, 52, 90
4, 41849, Note_on_c, 2, 52, 0
4, 41850, Note_on_c, 2, 50, 90
4, 41879, Note_on_c, 2, 50, 0
4, 41880, Note_on_c, 2, 49, 90
4, 41909, Note_on_c, 2, 49, 0
4, 41910, Note_on_c, 2, 52, 90
4, 41939, Note_on_c, 2, 52, 0
4, 41940, Note_on_c, 2, 57, 90
4, 41969, Note_on_c, 2, 57, 0
4, 41970, Note_on_c, 2, 55, 90
4, 41999, Note_on_c, 2, 55, 0
4, 42000, Note_on_c, 2, 54, 90
4, 42029, Note_on_c, 2, 54, 0
4, 42030, Note_on_c, 2, 52, 90
4, 42059, Note_on_c, 2, 52, 0
4, 42060, Note_on_c, 2, 50, 90
4, 42119, Note_on_c, 2, 50, 0
4, 42120, Note_on_c, 2, 55, 90
4, 42179, Note_on_c, 2, 55, 0
4, 42180, Note_on_c, 2, 43, 90
4, 42209, Note_on_c, 2, 43, 0
4, 42210, Note_on_c, 2, 42, 90
4, 42239, Note_on_c, 2, 42, 0
4, 42240, Note_on_c, 2, 43, 90
4, 42299, Note_on_c, 2, 43, 0
4, 42300, Note_on_c, 2, 40, 90
4, 42359, Note_on_c, 2, 40, 0
4, 42360, Note_on_c, 2, 45, 90
4, 42419, Note_on_c, 2, 45, 0
4, 42420, Note_on_c, 2, 33, 90
4, 42479, Note_on_c, 2, 33, 0
4, 42480, Note_on_c, 2, 38, 90
4, 42599, Note_on_c, 2, 38, 0
4, 42720, Note_on_c, 2, 50, 90
4, 42839, Note_on_c, 2, 50, 0
4, 42840, Note_on_c, 2, 55, 90
4, 42959, Note_on_c, 2, 55, 0
4, 43080, Note_on_c, 2, 52, 90
4, 43199, Note_on_c, 2, 52, 0
4, 43200, Note_on_c, 2, 57, 90
4, 43259, Note_on_c, 2, 57, 0
4, 43260, Note_on_c, 2, 49, 90
4, 43319, Note_on_c, 2, 49, 0
4, 43320, Note_on_c, 2, 50, 90
4, 43379, Note_on_c, 2, 50, 0
4, 43380, Note_on_c, 2, 55, 90
4, 43439, Note_on_c, 2, 55, 0
4, 43440, Note_on_c, 2, 57, 90
4, 43499, Note_on_c, 2, 57, 0
4, 43500, Note_on_c, 2, 45, 90
4, 43559, Note_on_c, 2, 45, 0
4, 43560, Note_on_c, 2, 38, 90
4, 43679, Note_on_c, 2, 38, 0
4, 43740, Note_on_c, 2, 50, 90
4, 43799, Note_on_c, 2, 50, 0
4, 43800, Note_on_c, 2, 55, 90
4, 43829, Note_on_c, 2, 55, 0
4, 43830, Note_on_c, 2, 57, 90
4, 43859, Note_on_c, 2, 57, 0
4, 43860, Note_on_c, 2, 59, 90
4, 43889, Note_on_c, 2, 59, 0
4, 43920, Note_on_c, 2, 59, 90
4, 43935, Note_on_c, 2, 59, 0
4, 43935, Note_on_c, 2, 60, 90
4, 43950, Note_on_c, 2, 60, 0
4, 43950, Note_on_c, 2, 59, 90
4, 43979, Note_on_c, 2, 59, 0
4, 43980, Note_on_c, 2, 57, 90
4, 44039, Note_on_c, 2, 57, 0
4, 44040, Note_on_c, 2, 57, 90
4, 44099, Note_on_c, 2, 57, 0
4, 44100, Note_on_c, 2, 54, 90
4, 44129, Note_on_c, 2, 54, 0
4, 44130, Note_on_c, 2, 55, 90
4, 44159, Note_on_c, 2, 55, 0
4, 44160, Note_on_c, 2, 57, 90
4, 44189, Note_on_c, 2, 57, 0
4, 44190, Note_on_c, 2, 59, 90
4, 44219, Note_on_c, 2, 59, 0
4, 44220, Note_on_c, 2, 60, 90
4, 44249, Note_on_c, 2, 60, 0
4, 44280, Note_on_c, 2, 60, 90
4, 44295, Note_on_c, 2, 60, 0
4, 44295, Note_on_c, 2, 62, 90
4, 44310, Note_on_c, 2, 62, 0
4, 44310, Note_on_c, 2, 60, 90
4, 44339, Note_on_c, 2, 60, 0
4, 44340, Note_on_c, 2, 59, 90
4, 44399, Note_on_c, 2, 59, 0
4, 44400, Note_on_c, 2, 59, 90
4, 44429, Note_on_c, 2, 59, 0
4, 44430, Note_on_c, 2, 57, 90
4, 44459, Note_on_c, 2, 57, 0
4, 44460, Note_on_c, 2, 55, 90
4, 44489, Note_on_c, 2, 55, 0
4, 44490, Note_on_c, 2, 54, 90
4, 44519, Note_on_c, 2, 54, 0
4, 44520, Note_on_c, 2, 52, 90
4, 44549, Note_on_c, 2, 52, 0
4, 44550, Note_on_c, 2, 50, 90
4, 44579, Note_on_c, 2, 50, 0
4, 44580, Note_on_c, 2, 48, 90
4, 44609, Note_on_c, 2, 48, 0
4, 44610, Note_on_c, 2, 47, 90
4, 44639, Note_on_c, 2, 47, 0
4, 44640, Note_on_c, 2, 48, 90
4, 44669, Note_on_c, 2, 48, 0
4, 44670, Note_on_c, 2, 50, 90
4, 44699, Note_on_c, 2, 50, 0
4, 44700, Note_on_c, 2, 52, 90
4, 44729, Note_on_c, 2, 52, 0
4, 44730, Note_on_c, 2, 48, 90
4, 44759, Note_on_c, 2, 48, 0
4, 44760, Note_on_c, 2, 50, 90
4, 44819, Note_on_c, 2, 50, 0
4, 44820, Note_on_c, 2, 48, 90
4, 44879, Note_on_c, 2, 48, 0
4, 44880, Note_on_c, 2, 47, 90
4, 44939, Note_on_c, 2, 47, 0
4, 44940, Note_on_c, 2, 45, 90
4, 44999, Note_on_c, 2, 45, 0
4, 45000, Note_on_c, 2, 43, 90
4, 45119, Note_on_c, 2, 43, 0
4, 45240, Note_on_c, 2, 43, 90
4, 45359, Note_on_c, 2, 43, 0
4, 45360, Note_on_c, 2, 48, 90
4, 45479, Note_on_c, 2, 48, 0
4, 45600, Note_on_c, 2, 44, 90
4, 45719, Note_on_c, 2, 44, 0
4, 45720, Note_on_c, 2, 45, 90
4, 45839, Note_on_c, 2, 45, 0
4, 45960, Note_on_c, 2, 42, 90
4, 46079, Note_on_c, 2, 42, 0
4, 46080, Note_on_c, 2, 47, 90
4, 46199, Note_on_c, 2, 47, 0
4, 46320, Note_on_c, 2, 47, 90
4, 46439, Note_on_c, 2, 47, 0
4, 46440, Note_on_c, 2, 52, 90
4, 46559, Note_on_c, 2, 52, 0
4, 46680, Note_on_c, 2, 40, 90
4, 46799, Note_on_c, 2, 40, 0
4, 46800, Note_on_c, 2, 45, 90
4, 46919, Note_on_c, 2, 45, 0
4, 47040, Note_on_c, 2, 45, 90
4, 47159, Note_on_c, 2, 45, 0
4, 47160, Note_on_c, 2, 50, 90
4, 47279, Note_on_c, 2, 50, 0
4, 47400, Note_on_c, 2, 38, 90
4, 47519, Note_on_c, 2, 38, 0
4, 47520, Note_on_c, 2, 43, 90
4, 47639, Note_on_c, 2, 43, 0
4, 47760, Note_on_c, 2, 43, 90
4, 47879, Note_on_c, 2, 43, 0
4, 47880, Note_on_c, 2, 48, 90
4, 47999, Note_on_c, 2, 48, 0
4, 48030, Note_on_c, 2, 60, 90
4, 48059, Note_on_c, 2, 60, 0
4, 48060, Note_on_c, 2, 59, 90
4, 48089, Note_on_c, 2, 59, 0
4, 48090, Note_on_c, 2, 57, 90
4, 48119, Note_on_c, 2, 57, 0
4, 48120, Note_on_c, 2, 55, 90
4, 48179, Note_on_c, 2, 55, 0
4, 48180, Note_on_c, 2, 43, 90
4, 48239, Note_on_c, 2, 43, 0
4, 48240, Note_on_c, 2, 50, 90
4, 48359, Note_on_c, 2, 50, 0
4, 48390, Note_on_c, 2, 50, 90
4, 48419, Note_on_c, 2, 50, 0
4, 48420, Note_on_c, 2, 48, 90
4, 48449, Note_on_c, 2, 48, 0
4, 48450, Note_on_c, 2, 47, 90
4, 48479, Note_on_c, 2, 47, 0
4, 48480, Note_on_c, 2, 45, 90
4, 48539, Note_on_c, 2, 45, 0
4, 48540, Note_on_c, 2, 50, 90
4, 48599, Note_on_c, 2, 50, 0
4, 48600, Note_on_c, 2, 43, 90
4, 48719, Note_on_c, 2, 43, 0
4, 48720, Note_on_c, 2, 47, 90
4, 48839, Note_on_c, 2, 47, 0
4, 48840, Note_on_c, 2, 43, 90
4, 48959, Note_on_c, 2, 43, 0
4, 48960, Note_on_c, 2, 50, 90
4, 49079, Note_on_c, 2, 50, 0
4, 49140, Note_on_c, 2, 50, 90
4, 49169, Note_on_c, 2, 50, 0
4, 49170, Note_on_c, 2, 52, 90
4, 49199, Note_on_c, 2, 52, 0
4, 49200, Note_on_c, 2, 54, 90
4, 49259, Note_on_c, 2, 54, 0
4, 49260, Note_on_c, 2, 50, 90
4, 49319, Note_on_c, 2, 50, 0
4, 49320, Note_on_c, 2, 55, 90
4, 49439, Note_on_c, 2, 55, 0
4, 49560, Note_on_c, 2, 43, 90
4, 49679, Note_on_c, 2, 43, 0
4, 49680, Note_on_c, 2, 48, 90
4, 49799, Note_on_c, 2, 48, 0
4, 49920, Note_on_c, 2, 45, 90
4, 50039, Note_on_c, 2, 45, 0
4, 50040, Note_on_c, 2, 50, 90
4, 50159, Note_on_c, 2, 50, 0
4, 50220, Note_on_c, 2, 54, 90
4, 50249, Note_on_c, 2, 54, 0
4, 50250, Note_on_c, 2, 52, 90
4, 50279, Note_on_c, 2, 52, 0
4, 50280, Note_on_c, 2, 50, 90
4, 50309, Note_on_c, 2, 50, 0
4, 50310, Note_on_c, 2, 49, 90
4, 50339, Note_on_c, 2, 49, 0
4, 50340, Note_on_c, 2, 47, 90
4, 50369, Note_on_c, 2, 47, 0
4, 50370, Note_on_c, 2, 45, 90
4, 50399, Note_on_c, 2, 45, 0
4, 50400, Note_on_c, 2, 43, 90
4, 50459, Note_on_c, 2, 43, 0
4, 50460, Note_on_c, 2, 57, 90
4, 50519, Note_on_c, 2, 57, 0
4, 50520, Note_on_c, 2, 49, 90
4, 50579, Note_on_c, 2, 49, 0
4, 50580, Note_on_c, 2, 45, 90
4, 50609, Note_on_c, 2, 45, 0
4, 50610, Note_on_c, 2, 47, 90
4, 50639, Note_on_c, 2, 47, 0
4, 50640, Note_on_c, 2, 49, 90
4, 50699, Note_on_c, 2, 49, 0
4, 50700, Note_on_c, 2, 45, 90
4, 50759, Note_on_c, 2, 45, 0
4, 50760, Note_on_c, 2, 50, 90
4, 50879, Note_on_c, 2, 50, 0
4, 51000, Note_on_c, 2, 38, 90
4, 51119, Note_on_c, 2, 38, 0
4, 51120, Note_on_c, 2, 43, 90
4, 51239, Note_on_c, 2, 43, 0
4, 51300, Note_on_c, 2, 62, 90
4, 51329, Note_on_c, 2, 62, 0
4, 51330, Note_on_c, 2, 60, 90
4, 51359, Note_on_c, 2, 60, 0
4, 51360, Note_on_c, 2, 59, 90
4, 51389, Note_on_c, 2, 59, 0
4, 51390, Note_on_c, 2, 57, 90
4, 51419, Note_on_c, 2, 57, 0
4, 51420, Note_on_c, 2, 56, 90
4, 51449, Note_on_c, 2, 56, 0
4, 51450, Note_on_c, 2, 54, 90
4, 51479, Note_on_c, 2, 54, 0
4, 51480, Note_on_c, 2, 56, 90
4, 51539, Note_on_c, 2, 56, 0
4, 51540, Note_on_c, 2, 52, 90
4, 51569, Note_on_c, 2, 52, 0
4, 51570, Note_on_c, 2, 54, 90
4, 51599, Note_on_c, 2, 54, 0
4, 51600, Note_on_c, 2, 56, 90
4, 51659, Note_on_c, 2, 56, 0
4, 51660, Note_on_c, 2, 59, 90
4, 51719, Note_on_c, 2, 59, 0
4, 51720, Note_on_c, 2, 64, 90
4, 51779, Note_on_c, 2, 64, 0
4, 51780, Note_on_c, 2, 56, 90
4, 51839, Note_on_c, 2, 56, 0
4, 51840, Note_on_c, 2, 57, 90
4, 51899, Note_on_c, 2, 57, 0
4, 51900, Note_on_c, 2, 45, 90
4, 51959, Note_on_c, 2, 45, 0
4, 51960, Note_on_c, 2, 57, 90
4, 52019, Note_on_c, 2, 57, 0
4, 52020, Note_on_c, 2, 59, 90
4, 52079, Note_on_c, 2, 59, 0
4, 52080, Note_on_c, 2, 60, 90
4, 52139, Note_on_c, 2, 60, 0
4, 52140, Note_on_c, 2, 57, 90
4, 52199, Note_on_c, 2, 57, 0
4, 52200, Note_on_c, 2, 54, 90
4, 52259, Note_on_c, 2, 54, 0
4, 52260, Note_on_c, 2, 50, 90
4, 52289, Note_on_c, 2, 50, 0
4, 52290, Note_on_c, 2, 52, 90
4, 52319, Note_on_c, 2, 52, 0
4, 52320, Note_on_c, 2, 54, 90
4, 52379, Note_on_c, 2, 54, 0
4, 52380, Note_on_c, 2, 57, 90
4, 52439, Note_on_c, 2, 57, 0
4, 52440, Note_on_c, 2, 62, 90
4, 52499, Note_on_c, 2, 62, 0
4, 52500, Note_on_c, 2, 54, 90
4, 52559, Note_on_c, 2, 54, 0
4, 52560, Note_on_c, 2, 55, 90
4, 52619, Note_on_c, 2, 55, 0
4, 52620, Note_on_c, 2, 43, 90
4, 52679, Note_on_c, 2, 43, 0
4, 52680, Note_on_c, 2, 55, 90
4, 52739, Note_on_c, 2, 55, 0
4, 52740, Note_on_c, 2, 57, 90
4, 52799, Note_on_c, 2, 57, 0
4, 52800, Note_on_c, 2, 59, 90
4, 52859, Note_on_c, 2, 59, 0
4, 52860, Note_on_c, 2, 55, 90
4, 52919, Note_on_c, 2, 55, 0
4, 52920, Note_on_c, 2, 52, 90
4, 52949, Note_on_c, 2, 52, 0
4, 52950, Note_on_c, 2, 55, 90
4, 52979, Note_on_c, 2, 55, 0
4, 52980, Note_on_c, 2, 54, 90
4, 53009, Note_on_c, 2, 54, 0
4, 53010, Note_on_c, 2, 55, 90
4, 53039, Note_on_c, 2, 55, 0
4, 53040, Note_on_c, 2, 52, 90
4, 53069, Note_on_c, 2, 52, 0
4, 53070, Note_on_c, 2, 55, 90
4, 53099, Note_on_c, 2, 55, 0
4, 53100, Note_on_c, 2, 50, 90
4, 53129, Note_on_c, 2, 50, 0
4, 53130, Note_on_c, 2, 55, 90
4, 53159, Note_on_c, 2, 55, 0
4, 53160, Note_on_c, 2, 48, 90
4, 53189, Note_on_c, 2, 48, 0
4, 53190, Note_on_c, 2, 55, 90
4, 53219, Note_on_c, 2, 55, 0
4, 53220, Note_on_c, 2, 47, 90
4, 53249, Note_on_c, 2, 47, 0
4, 53250, Note_on_c, 2, 55, 90
4, 53279, Note_on_c, 2, 55, 0
4, 53280, Note_on_c, 2, 48, 90
4, 53309, Note_on_c, 2, 48, 0
4, 53310, Note_on_c, 2, 52, 90
4, 53339, Note_on_c, 2, 52, 0
4, 53340, Note_on_c, 2, 50, 90
4, 53369, Note_on_c, 2, 50, 0
4, 53370, Note_on_c, 2, 52, 90
4, 53399, Note_on_c, 2, 52, 0
4, 53400, Note_on_c, 2, 48, 90
4, 53429, Note_on_c, 2, 48, 0
4, 53430, Note_on_c, 2, 52, 90
4, 53459, Note_on_c, 2, 52, 0
4, 53460, Note_on_c, 2, 47, 90
4, 53489, Note_on_c, 2, 47, 0
4, 53490, Note_on_c, 2, 52, 90
4, 53519, Note_on_c, 2, 52, 0
4, 53520, Note_on_c, 2, 45, 90
4, 53549, Note_on_c, 2, 45, 0
4, 53550, Note_on_c, 2, 52, 90
4, 53579, Note_on_c, 2, 52, 0
4, 53580, Note_on_c, 2, 43, 90
4, 53609, Note_on_c, 2, 43, 0
4, 53610, Note_on_c, 2, 52, 90
4, 53639, Note_on_c, 2, 52, 0
4, 53640, Note_on_c, 2, 45, 90
4, 53669, Note_on_c, 2, 45, 0
4, 53670, Note_on_c, 2, 48, 90
4, 53699, Note_on_c, 2, 48, 0
4, 53700, Note_on_c, 2, 47, 90
4, 53729, Note_on_c, 2, 47, 0
4, 53730, Note_on_c, 2, 48, 90
4, 53759, Note_on_c, 2, 48, 0
4, 53760, Note_on_c, 2, 45, 90
4, 53789, Note_on_c, 2, 45, 0
4, 53790, Note_on_c, 2, 48, 90
4, 53819, Note_on_c, 2, 48, 0
4, 53820, Note_on_c, 2, 43, 90
4, 53849, Note_on_c, 2, 43, 0
4, 53850, Note_on_c, 2, 48, 90
4, 53879, Note_on_c, 2, 48, 0
4, 53880, Note_on_c, 2, 42, 90
4, 53909, Note_on_c, 2, 42, 0
4, 53910, Note_on_c, 2, 48, 90
4, 53939, Note_on_c, 2, 48, 0
4, 53940, Note_on_c, 2, 40, 90
4, 53969, Note_on_c, 2, 40, 0
4, 53970, Note_on_c, 2, 48, 90
4, 53999, Note_on_c, 2, 48, 0
4, 54000, Note_on_c, 2, 38, 90
4, 54239, Note_on_c, 2, 38, 0
4, 54270, Note_on_c, 2, 52, 90
4, 54299, Note_on_c, 2, 52, 0
4, 54300, Note_on_c, 2, 50, 90
4, 54329, Note_on_c, 2, 50, 0
4, 54330, Note_on_c, 2, 48, 90
4, 54359, Note_on_c, 2, 48, 0
4, 54360, Note_on_c, 2, 47, 90
4, 54389, Note_on_c, 2, 47, 0
4, 54390, Note_on_c, 2, 45, 90
4, 54419, Note_on_c, 2, 45, 0
4, 54420, Note_on_c, 2, 43, 90
4, 54449, Note_on_c, 2, 43, 0
4, 54450, Note_on_c, 2, 42, 90
4, 54479, Note_on_c, 2, 42, 0
4, 54480, Note_on_c, 2, 43, 90
4, 54509, Note_on_c, 2, 43, 0
4, 54510, Note_on_c, 2, 45, 90
4, 54539, Note_on_c, 2, 45, 0
4, 54540, Note_on_c, 2, 47, 90
4, 54569, Note_on_c, 2, 47, 0
4, 54570, Note_on_c, 2, 45, 90
4, 54599, Note_on_c, 2, 45, 0
4, 54600, Note_on_c, 2, 43, 90
4, 54629, Note_on_c, 2, 43, 0
4, 54630, Note_on_c, 2, 42, 90
4, 54659, Note_on_c, 2, 42, 0
4, 54660, Note_on_c, 2, 40, 90
4, 54689, Note_on_c, 2, 40, 0
4, 54690, Note_on_c, 2, 38, 90
4, 54719, Note_on_c, 2, 38, 0
4, 54720, Note_on_c, 2, 36, 90
4, 54749, Note_on_c, 2, 36, 0
4, 54750, Note_on_c, 2, 43, 90
4, 54779, Note_on_c, 2, 43, 0
4, 54780, Note_on_c, 2, 48, 90
4, 54809, Note_on_c, 2, 48, 0
4, 54810, Note_on_c, 2, 50, 90
4, 54839, Note_on_c, 2, 50, 0
4, 54840, Note_on_c, 2, 48, 90
4, 54869, Note_on_c, 2, 48, 0
4, 54870, Note_on_c, 2, 47, 90
4, 54899, Note_on_c, 2, 47, 0
4, 54900, Note_on_c, 2, 45, 90
4, 54929, Note_on_c, 2, 45, 0
4, 54930, Note_on_c, 2, 43, 90
4, 54959, Note_on_c, 2, 43, 0
4, 54960, Note_on_c, 2, 42, 90
4, 55019, Note_on_c, 2, 42, 0
4, 55020, Note_on_c, 2, 38, 90
4, 55079, Note_on_c, 2, 38, 0
4, 55080, Note_on_c, 2, 43, 90
4, 55109, Note_on_c, 2, 43, 0
4, 55110, Note_on_c, 2, 50, 90
4, 55139, Note_on_c, 2, 50, 0
4, 55140, Note_on_c, 2, 52, 90
4, 55169, Note_on_c, 2, 52, 0
4, 55170, Note_on_c, 2, 54, 90
4, 55199, Note_on_c, 2, 54, 0
4, 55200, Note_on_c, 2, 55, 90
4, 55259, Note_on_c, 2, 55, 0
4, 55260, Note_on_c, 2, 59, 90
4, 55319, Note_on_c, 2, 59, 0
4, 55320, Note_on_c, 2, 52, 90
4, 55379, Note_on_c, 2, 52, 0
4, 55380, Note_on_c, 2, 55, 90
4, 55439, Note_on_c, 2, 55, 0
4, 55440, Note_on_c, 2, 48, 90
4, 55499, Note_on_c, 2, 48, 0
4, 55500, Note_on_c, 2, 60, 90
4, 55559, Note_on_c, 2, 60, 0
4, 55560, Note_on_c, 2, 54, 90
4, 55619, Note_on_c, 2, 54, 0
4, 55620, Note_on_c, 2, 57, 90
4, 55679, Note_on_c, 2, 57, 0
4, 55680, Note_on_c, 2, 50, 90
4, 55739, Note_on_c, 2, 50, 0
4, 55740, Note_on_c, 2, 54, 90
4, 55799, Note_on_c, 2, 54, 0
4, 55800, Note_on_c, 2, 47, 90
4, 55859, Note_on_c, 2, 47, 0
4, 55860, Note_on_c, 2, 50, 90
4, 55919, Note_on_c, 2, 50, 0
4, 55920, Note_on_c, 2, 43, 90
4, 55979, Note_on_c, 2, 43, 0
4, 55980, Note_on_c, 2, 47, 90
4, 56039, Note_on_c, 2, 47, 0
4, 56070, Note_on_c, 2, 43, 90
4, 56099, Note_on_c, 2, 43, 0
4, 56100, Note_on_c, 2, 45, 90
4, 56129, Note_on_c, 2, 45, 0
4, 56130, Note_on_c, 2, 47, 90
4, 56159, Note_on_c, 2, 47, 0
4, 56160, Note_on_c, 2, 48, 90
4, 56219, Note_on_c, 2, 48, 0
4, 56220, Note_on_c, 2, 36, 90
4, 56279, Note_on_c, 2, 36, 0
4, 56310, Note_on_c, 2, 52, 90
4, 56339, Note_on_c, 2, 52, 0
4, 56340, Note_on_c, 2, 54, 90
4, 56369, Note_on_c, 2, 54, 0
4, 56370, Note_on_c, 2, 55, 90
4, 56399, Note_on_c, 2, 55, 0
4, 56400, Note_on_c, 2, 57, 90
4, 56459, Note_on_c, 2, 57, 0
4, 56460, Note_on_c, 2, 52, 90
4, 56519, Note_on_c, 2, 52, 0
4, 56520, Note_on_c, 2, 54, 90
4, 56549, Note_on_c, 2, 54, 0
4, 56550, Note_on_c, 2, 57, 90
4, 56579, Note_on_c, 2, 57, 0
4, 56580, Note_on_c, 2, 56, 90
4, 56669, Note_on_c, 2, 56, 0
4, 56670, Note_on_c, 2, 57, 90
4, 56699, Note_on_c, 2, 57, 0
4, 56700, Note_on_c, 2, 59, 90
4, 56729, Note_on_c, 2, 59, 0
4, 56730, Note_on_c, 2, 57, 90
4, 56759, Note_on_c, 2, 57, 0
4, 56760, Note_on_c, 2, 56, 90
4, 56789, Note_on_c, 2, 56, 0
4, 56790, Note_on_c, 2, 54, 90
4, 56819, Note_on_c, 2, 54, 0
4, 56820, Note_on_c, 2, 52, 90
4, 56849, Note_on_c, 2, 52, 0
4, 56850, Note_on_c, 2, 50, 90
4, 56879, Note_on_c, 2, 50, 0
4, 56880, Note_on_c, 2, 48, 90
4, 56939, Note_on_c, 2, 48, 0
4, 56940, Note_on_c, 2, 52, 90
4, 56999, Note_on_c, 2, 52, 0
4, 57000, Note_on_c, 2, 45, 90
4, 57059, Note_on_c, 2, 45, 0
4, 57060, Note_on_c, 2, 57, 90
4, 57089, Note_on_c, 2, 57, 0
4, 57090, Note_on_c, 2, 55, 90
4, 57119, Note_on_c, 2, 55, 0
4, 57120, Note_on_c, 2, 53, 90
4, 57149, Note_on_c, 2, 53, 0
4, 57150, Note_on_c, 2, 52, 90
4, 57179, Note_on_c, 2, 52, 0
4, 57180, Note_on_c, 2, 50, 90
4, 57209, Note_on_c, 2, 50, 0
4, 57210, Note_on_c, 2, 48, 90
4, 57239, Note_on_c, 2, 48, 0
4, 57240, Note_on_c, 2, 47, 90
4, 57299, Note_on_c, 2, 47, 0
4, 57300, Note_on_c, 2, 50, 90
4, 57359, Note_on_c, 2, 50, 0
4, 57360, Note_on_c, 2, 43, 90
4, 57419, Note_on_c, 2, 43, 0
4, 57420, Note_on_c, 2, 55, 90
4, 57479, Note_on_c, 2, 55, 0
4, 57480, Note_on_c, 2, 57, 90
4, 57539, Note_on_c, 2, 57, 0
4, 57540, Note_on_c, 2, 59, 90
4, 57599, Note_on_c, 2, 59, 0
4, 57600, Note_on_c, 2, 60, 90
4, 57659, Note_on_c, 2, 60, 0
4, 57660, Note_on_c, 2, 52, 90
4, 57719, Note_on_c, 2, 52, 0
4, 57720, Note_on_c, 2, 54, 90
4, 57779, Note_on_c, 2, 54, 0
4, 57780, Note_on_c, 2, 56, 90
4, 57839, Note_on_c, 2, 56, 0
4, 57840, Note_on_c, 2, 57, 90
4, 57899, Note_on_c, 2, 57, 0
4, 57900, Note_on_c, 2, 45, 90
4, 57959, Note_on_c, 2, 45, 0
4, 57960, Note_on_c, 2, 50, 90
4, 58019, Note_on_c, 2, 50, 0
4, 58020, Note_on_c, 2, 52, 90
4, 58079, Note_on_c, 2, 52, 0
4, 58080, Note_on_c, 2, 54, 90
4, 58139, Note_on_c, 2, 54, 0
4, 58140, Note_on_c, 2, 50, 90
4, 58199, Note_on_c, 2, 50, 0
4, 58200, Note_on_c, 2, 52, 90
4, 58259, Note_on_c, 2, 52, 0
4, 58260, Note_on_c, 2, 54, 90
4, 58319, Note_on_c, 2, 54, 0
4, 58320, Note_on_c, 2, 43, 90
4, 58379, Note_on_c, 2, 43, 0
4, 58380, Note_on_c, 2, 55, 90
4, 58439, Note_on_c, 2, 55, 0
4, 58440, Note_on_c, 2, 60, 90
4, 58499, Note_on_c, 2, 60, 0
4, 58500, Note_on_c, 2, 59, 90
4, 58529, Note_on_c, 2, 59, 0
4, 58530, Note_on_c, 2, 57, 90
4, 58559, Note_on_c, 2, 57, 0
4, 58560, Note_on_c, 2, 59, 90
4, 58619, Note_on_c, 2, 59, 0
4, 58620, Note_on_c, 2, 52, 90
4, 58679, Note_on_c, 2, 52, 0
4, 58680, Note_on_c, 2, 57, 90
4, 58709, Note_on_c, 2, 57, 0
4, 58710, Note_on_c, 2, 55, 90
4, 58739, Note_on_c, 2, 55, 0
4, 58740, Note_on_c, 2, 54, 90
4, 58769, Note_on_c, 2, 54, 0
4, 58770, Note_on_c, 2, 52, 90
4, 58799, Note_on_c, 2, 52, 0
4, 58800, Note_on_c, 2, 50, 90
4, 58859, Note_on_c, 2, 50, 0
4, 58860, Note_on_c, 2, 47, 90
4, 58919, Note_on_c, 2, 47, 0
4, 58920, Note_on_c, 2, 52, 90
4, 58979, Note_on_c, 2, 52, 0
4, 58980, Note_on_c, 2, 50, 90
4, 59039, Note_on_c, 2, 50, 0
4, 59040, Note_on_c, 2, 48, 90
4, 59069, Note_on_c, 2, 48, 0
4, 59070, Note_on_c, 2, 47, 90
4, 59099, Note_on_c, 2, 47, 0
4, 59100, Note_on_c, 2, 48, 90
4, 59129, Note_on_c, 2, 48, 0
4, 59130, Note_on_c, 2, 45, 90
4, 59159, Note_on_c, 2, 45, 0
4, 59160, Note_on_c, 2, 50, 90
4, 59279, Note_on_c, 2, 50, 0
4, 59280, Note_on_c, 2, 38, 90
4, 59399, Note_on_c, 2, 38, 0
4, 59400, Note_on_c, 2, 43, 90
4, 59519, Note_on_c, 2, 43, 0
4, 59640, Note_on_c, 2, 43, 90
4, 59759, Note_on_c, 2, 43, 0
4, 59760, Note_on_c, 2, 36, 90
4, 59879, Note_on_c, 2, 36, 0
4, 59940, Note_on_c, 2, 48, 90
4, 59999, Note_on_c, 2, 48, 0
4, 60000, Note_on_c, 2, 42, 90
4, 60059, Note_on_c, 2, 42, 0
4, 60060, Note_on_c, 2, 45, 90
4, 60119, Note_on_c, 2, 45, 0
4, 60120, Note_on_c, 2, 38, 90
4, 60149, Note_on_c, 2, 38, 0
4, 60150, Note_on_c, 2, 50, 90
4, 60179, Note_on_c, 2, 50, 0
4, 60180, Note_on_c, 2, 48, 90
4, 60209, Note_on_c, 2, 48, 0
4, 60210, Note_on_c, 2, 50, 90
4, 60239, Note_on_c, 2, 50, 0
4, 60240, Note_on_c, 2, 43, 90
4, 60299, Note_on_c, 2, 43, 0
4, 60300, Note_on_c, 2, 55, 90
4, 60359, Note_on_c, 2, 55, 0
4, 60390, Note_on_c, 2, 43, 90
4, 60419, Note_on_c, 2, 43, 0
4, 60420, Note_on_c, 2, 45, 90
4, 60449, Note_on_c, 2, 45, 0
4, 60450, Note_on_c, 2, 47, 90
4, 60479, Note_on_c, 2, 47, 0
4, 60480, Note_on_c, 2, 48, 90
4, 60509, Note_on_c, 2, 48, 0
4, 60510, Note_on_c, 2, 50, 90
4, 60539, Note_on_c, 2, 50, 0
4, 60540, Note_on_c, 2, 52, 90
4, 60569, Note_on_c, 2, 52, 0
4, 60570, Note_on_c, 2, 50, 90
4, 60599, Note_on_c, 2, 50, 0
4, 60600, Note_on_c, 2, 48, 90
4, 60659, Note_on_c, 2, 48, 0
4, 60660, Note_on_c, 2, 47, 90
4, 60719, Note_on_c, 2, 47, 0
4, 60720, Note_on_c, 2, 45, 90
4, 60779, Note_on_c, 2, 45, 0
4, 60780, Note_on_c, 2, 47, 90
4, 60809, Note_on_c, 2, 47, 0
4, 60810, Note_on_c, 2, 48, 90
4, 60839, Note_on_c, 2, 48, 0
4, 60840, Note_on_c, 2, 50, 90
4, 60899, Note_on_c, 2, 50, 0
4, 60900, Note_on_c, 2, 54, 90
4, 60959, Note_on_c, 2, 54, 0
4, 60960, Note_on_c, 2, 55, 90
4, 61019, Note_on_c, 2, 55, 0
4, 61020, Note_on_c, 2, 48, 90
4, 61079, Note_on_c, 2, 48, 0
4, 61080, Note_on_c, 2, 50, 90
4, 61139, Note_on_c, 2, 50, 0
4, 61140, Note_on_c, 2, 38, 90
4, 61199, Note_on_c, 2, 38, 0
4, 61200, Note_on_c, 2, 43, 90
4, 61559, Note_on_c, 2, 43, 0
4, 61920, Note_on_c, 2, 52, 100
4, 61980, Note_on_c, 2, 52, 0
4, 61980, Note_on_c, 2, 40, 100
4, 62040, Note_on_c, 2, 40, 0
4, 62040, Note_on_c, 2, 52, 100
4, 62100, Note_on_c, 2, 52, 0
4, 62100, Note_on_c, 2, 40, 100
4, 62160, Note_on_c, 2, 40, 0
4, 62161, Note_on_c, 2, 52, 100
4, 62221, Note_on_c, 2, 52, 0
4, 62221, Note_on_c, 2, 40, 100
4, 62281, Note_on_c, 2, 40, 0
4, 62282, Note_on_c, 2, 52, 100
4, 62342, Note_on_c, 2, 52, 0
4, 62342, Note_on_c, 2, 40, 100
4, 62402, Note_on_c, 2, 40, 0
4, 62403, Note_on_c, 2, 52, 100
4, 62463, Note_on_c, 2, 52, 0
4, 62463, Note_on_c, 2, 40, 100
4, 62523, Note_on_c, 2, 40, 0
4, 62524, Note_on_c, 2, 52, 100
4, 62584, Note_on_c, 2, 52, 0
4, 62584, Note_on_c, 2, 40, 100
4, 62644, Note_on_c, 2, 40, 0
4, 62645, Note_on_c, 2, 52, 100
4, 62705, Note_on_c, 2, 52, 0
4, 62705, Note_on_c, 2, 40, 100
4, 62765, Note_on_c, 2, 40, 0
4, 62766, Note_on_c, 2, 52, 100
4, 62826, Note_on_c, 2, 52, 0
4, 62826, Note_on_c, 2, 40, 100
4, 62880, Note_on_c, 2, 50, 100
4, 62886, Note_on_c, 2, 40, 0
4, 62940, Note_on_c, 2, 50, 0
4, 62940, Note_on_c, 2, 38, 100
4, 63000, Note_on_c, 2, 38, 0
4, 63000, Note_on_c, 2, 50, 100
4, 63060, Note_on_c, 2, 50, 0
4, 63060, Note_on_c, 2, 38, 100
4, 63120, Note_on_c, 2, 38, 0
4, 63120, Note_on_c, 2, 49, 100
4, 63180, Note_on_c, 2, 49, 0
4, 63180, Note_on_c, 2, 37, 100
4, 63240, Note_on_c, 2, 37, 0
4, 63240, Note_on_c, 2, 49, 100
4, 63300, Note_on_c, 2, 49, 0
4, 63300, Note_on_c, 2, 37, 100
4, 63360, Note_on_c, 2, 37, 0
4, 63360, Note_on_c, 2, 49, 100
4, 63420, Note_on_c, 2, 49, 0
4, 63420, Note_on_c, 2, 37, 100
4, 63480, Note_on_c, 2, 37, 0
4, 63481, Note_on_c, 2, 49, 100
4, 63541, Note_on_c, 2, 49, 0
4, 63541, Note_on_c, 2, 37, 100
4, 63601, Note_on_c, 2, 37, 0
4, 63602, Note_on_c, 2, 49, 100
4, 63662, Note_on_c, 2, 49, 0
4, 63662, Note_on_c, 2, 37, 100
4, 63722, Note_on_c, 2, 37, 0
4, 63723, Note_on_c, 2, 49, 100
4, 63783, Note_on_c, 2, 49, 0
4, 63783, Note_on_c, 2, 37, 100
4, 63843, Note_on_c, 2, 37, 0
4, 63844, Note_on_c, 2, 49, 100
4, 63904, Note_on_c, 2, 49, 0
4, 63904, Note_on_c, 2, 37, 100
4, 63964, Note_on_c, 2, 37, 0
4, 63965, Note_on_c, 2, 49, 100
4, 64025, Note_on_c, 2, 49, 0
4, 64025, Note_on_c, 2, 37, 100
4, 64080, Note_on_c, 2, 48, 100
4, 64085, Note_on_c, 2, 37, 0
4, 64140, Note_on_c, 2, 48, 0
4, 64140, Note_on_c, 2, 36, 100
4, 64200, Note_on_c, 2, 36, 0
4, 64200, Note_on_c, 2, 48, 100
4, 64260, Note_on_c, 2, 48, 0
4, 64260, Note_on_c, 2, 36, 100
4, 64320, Note_on_c, 2, 36, 0
4, 64320, Note_on_c, 2, 47, 100
4, 64380, Note_on_c, 2, 47, 0
4, 64380, Note_on_c, 2, 35, 100
4, 64440, Note_on_c, 2, 35, 0
4, 64440, Note_on_c, 2, 47, 100
4, 64500, Note_on_c, 2, 47, 0
4, 64500, Note_on_c, 2, 35, 100
4, 64560, Note_on_c, 2, 35, 0
4, 64560, Note_on_c, 2, 46, 100
4, 64620, Note_on_c, 2, 46, 0
4, 64620, Note_on_c, 2, 34, 100
4, 64680, Note_on_c, 2, 34, 0
4, 64680, Note_on_c, 2, 46, 100
4, 64740, Note_on_c, 2, 46, 0
4, 64740, Note_on_c, 2, 34, 100
4, 64800, Note_on_c, 2, 34, 0
4, 64800, Note_on_c, 2, 45, 90
4, 64859, Note_on_c, 2, 45, 0
4, 64860, Note_on_c, 2, 33, 90
4, 64919, Note_on_c, 2, 33, 0
4, 64920, Note_on_c, 2, 45, 90
4, 64979, Note_on_c, 2, 45, 0
4, 64980, Note_on_c, 2, 33, 90
4, 65039, Note_on_c, 2, 33, 0
4, 65040, Note_on_c, 2, 45, 90
4, 65099, Note_on_c, 2, 45, 0
4, 65100, Note_on_c, 2, 33, 90
4, 65159, Note_on_c, 2, 33, 0
4, 65160, Note_on_c, 2, 45, 90
4, 65219, Note_on_c, 2, 45, 0
4, 65220, Note_on_c, 2, 33, 90
4, 65279, Note_on_c, 2, 33, 0
4, 65280, Note_on_c, 2, 38, 90
4, 65339, Note_on_c, 2, 38, 0
4, 65340, Note_on_c, 2, 50, 90
4, 65399, Note_on_c, 2, 50, 0
4, 65400, Note_on_c, 2, 38, 90
4, 65459, Note_on_c, 2, 38, 0
4, 65460, Note_on_c, 2, 50, 90
4, 65519, Note_on_c, 2, 50, 0
4, 65520, Note_on_c, 2, 38, 90
4, 65579, Note_on_c, 2, 38, 0
4, 65580, Note_on_c, 2, 50, 90
4, 65639, Note_on_c, 2, 50, 0
4, 65640, Note_on_c, 2, 38, 90
4, 65699, Note_on_c, 2, 38, 0
4, 65700, Note_on_c, 2, 50, 90
4, 65759, Note_on_c, 2, 50, 0
4, 65760, Note_on_c, 2, 38, 90
4, 65819, Note_on_c, 2, 38, 0
4, 65820, Note_on_c, 2, 50, 90
4, 65879, Note_on_c, 2, 50, 0
4, 65880, Note_on_c, 2, 38, 90
4, 65939, Note_on_c, 2, 38, 0
4, 65940, Note_on_c, 2, 50, 90
4, 65999, Note_on_c, 2, 50, 0
4, 66000, Note_on_c, 2, 38, 90
4, 66059, Note_on_c, 2, 38, 0
4, 66060, Note_on_c, 2, 50, 90
4, 66119, Note_on_c, 2, 50, 0
4, 66120, Note_on_c, 2, 38, 90
4, 66179, Note_on_c, 2, 38, 0
4, 66180, Note_on_c, 2, 50, 90
4, 66239, Note_on_c, 2, 50, 0
4, 66240, Note_on_c, 2, 36, 90
4, 66299, Note_on_c, 2, 36, 0
4, 66300, Note_on_c, 2, 48, 90
4, 66359, Note_on_c, 2, 48, 0
4, 66360, Note_on_c, 2, 36, 90
4, 66419, Note_on_c, 2, 36, 0
4, 66420, Note_on_c, 2, 48, 90
4, 66479, Note_on_c, 2, 48, 0
4, 66480, Note_on_c, 2, 35, 90
4, 66539, Note_on_c, 2, 35, 0
4, 66540, Note_on_c, 2, 47, 90
4, 66599, Note_on_c, 2, 47, 0
4, 66600, Note_on_c, 2, 35, 90
4, 66659, Note_on_c, 2, 35, 0
4, 66660, Note_on_c, 2, 47, 90
4, 66719, Note_on_c, 2, 47, 0
4, 66720, Note_on_c, 2, 35, 90
4, 66779, Note_on_c, 2, 35, 0
4, 66780, Note_on_c, 2, 47, 90
4, 66839, Note_on_c, 2, 47, 0
4, 66840, Note_on_c, 2, 35, 90
4, 66899, Note_on_c, 2, 35, 0
4, 66900, Note_on_c, 2, 47, 90
4, 66959, Note_on_c, 2, 47, 0
4, 66960, Note_on_c, 2, 35, 90
4, 67019, Note_on_c, 2, 35, 0
4, 67020, Note_on_c, 2, 47, 90
4, 67079, Note_on_c, 2, 47, 0
4, 67080, Note_on_c, 2, 35, 90
4, 67139, Note_on_c, 2, 35, 0
4, 67140, Note_on_c, 2, 47, 90
4, 67199, Note_on_c, 2, 47, 0
4, 67200, Note_on_c, 2, 35, 90
4, 67259, Note_on_c, 2, 35, 0
4, 67260, Note_on_c, 2, 47, 90
4, 67319, Note_on_c, 2, 47, 0
4, 67320, Note_on_c, 2, 35, 90
4, 67379, Note_on_c, 2, 35, 0
4, 67380, Note_on_c, 2, 47, 90
4, 67439, Note_on_c, 2, 47, 0
4, 67440, Note_on_c, 2, 35, 90
4, 67499, Note_on_c, 2, 35, 0
4, 67500, Note_on_c, 2, 47, 90
4, 67559, Note_on_c, 2, 47, 0
4, 67560, Note_on_c, 2, 35, 90
4, 67619, Note_on_c, 2, 35, 0
4, 67620, Note_on_c, 2, 47, 90
4, 67679, Note_on_c, 2, 47, 0
4, 67680, Note_on_c, 2, 52, 90
4, 67739, Note_on_c, 2, 52, 0
4, 67740, Note_on_c, 2, 60, 90
4, 67799, Note_on_c, 2, 60, 0
4, 67800, Note_on_c, 2, 52, 90
4, 67859, Note_on_c, 2, 52, 0
4, 67860, Note_on_c, 2, 60, 90
4, 67919, Note_on_c, 2, 60, 0
4, 67920, Note_on_c, 2, 50, 90
4, 67979, Note_on_c, 2, 50, 0
4, 67980, Note_on_c, 2, 59, 90
4, 68039, Note_on_c, 2, 59, 0
4, 68040, Note_on_c, 2, 50, 90
4, 68099, Note_on_c, 2, 50, 0
4, 68100, Note_on_c, 2, 59, 90
4, 68159, Note_on_c, 2, 59, 0
4, 68160, Note_on_c, 2, 48, 90
4, 68219, Note_on_c, 2, 48, 0
4, 68220, Note_on_c, 2, 57, 90
4, 68279, Note_on_c, 2, 57, 0
4, 68280, Note_on_c, 2, 48, 90
4, 68339, Note_on_c, 2, 48, 0
4, 68340, Note_on_c, 2, 57, 90
4, 68399, Note_on_c, 2, 57, 0
4, 68400, Note_on_c, 2, 47, 90
4, 68459, Note_on_c, 2, 47, 0
4, 68460, Note_on_c, 2, 55, 90
4, 68519, Note_on_c, 2, 55, 0
4, 68520, Note_on_c, 2, 47, 90
4, 68579, Note_on_c, 2, 47, 0
4, 68580, Note_on_c, 2, 55, 90
4, 68639, Note_on_c, 2, 55, 0
4, 68640, Note_on_c, 2, 45, 90
4, 68699, Note_on_c, 2, 45, 0
4, 68700, Note_on_c, 2, 54, 90
4, 68759, Note_on_c, 2, 54, 0
4, 68760, Note_on_c, 2, 45, 90
4, 68819, Note_on_c, 2, 45, 0
4, 68820, Note_on_c, 2, 54, 90
4, 68879, Note_on_c, 2, 54, 0
4, 68880, Note_on_c, 2, 43, 90
4, 68939, Note_on_c, 2, 43, 0
4, 68940, Note_on_c, 2, 55, 90
4, 68999, Note_on_c, 2, 55, 0
4, 69000, Note_on_c, 2, 43, 90
4, 69059, Note_on_c, 2, 43, 0
4, 69060, Note_on_c, 2, 55, 90
4, 69119, Note_on_c, 2, 55, 0
4, 69120, Note_on_c, 2, 48, 90
4, 69179, Note_on_c, 2, 48, 0
4, 69180, Note_on_c, 2, 56, 90
4, 69239, Note_on_c, 2, 56, 0
4, 69240, Note_on_c, 2, 47, 90
4, 69299, Note_on_c, 2, 47, 0
4, 69300, Note_on_c, 2, 56, 90
4, 69359, Note_on_c, 2, 56, 0
4, 69360, Note_on_c, 2, 57, 90
4, 69419, Note_on_c, 2, 57, 0
4, 69420, Note_on_c, 2, 52, 90
4, 69479, Note_on_c, 2, 52, 0
4, 69480, Note_on_c, 2, 64, 90
4, 69539, Note_on_c, 2, 64, 0
4, 69540, Note_on_c, 2, 50, 90
4, 69599, Note_on_c, 2, 50, 0
4, 69600, Note_on_c, 2, 49, 90
4, 69659, Note_on_c, 2, 49, 0
4, 69660, Note_on_c, 2, 58, 90
4, 69719, Note_on_c, 2, 58, 0
4, 69720, Note_on_c, 2, 55, 90
4, 69779, Note_on_c, 2, 55, 0
4, 69780, Note_on_c, 2, 52, 90
4, 69839, Note_on_c, 2, 52, 0
4, 69840, Note_on_c, 2, 55, 90
4, 69899, Note_on_c, 2, 55, 0
4, 69900, Note_on_c, 2, 49, 90
4, 69959, Note_on_c, 2, 49, 0
4, 69960, Note_on_c, 2, 54, 90
4, 70019, Note_on_c, 2, 54, 0
4, 70020, Note_on_c, 2, 42, 90
4, 70079, Note_on_c, 2, 42, 0
4, 70080, Note_on_c, 2, 47, 90
4, 70559, Note_on_c, 2, 47, 0
4, 71640, Note_on_c, 2, 43, 100
4, 71700, Note_on_c, 2, 43, 0
4, 71700, Note_on_c, 2, 45, 100
4, 71760, Note_on_c, 2, 45, 0
4, 71760, Note_on_c, 2, 47, 100
4, 71880, Note_on_c, 2, 47, 0
4, 71880, Note_on_c, 2, 48, 100
4, 72000, Note_on_c, 2, 48, 0
4, 72000, Note_on_c, 2, 55, 100
4, 72060, Note_on_c, 2, 55, 0
4, 72060, Note_on_c, 2, 54, 100
4, 72120, Note_on_c, 2, 54, 0
4, 72120, Note_on_c, 2, 55, 100
4, 72180, Note_on_c, 2, 55, 0
4, 72180, Note_on_c, 2, 57, 100
4, 72240, Note_on_c, 2, 57, 0
4, 72240, Note_on_c, 2, 59, 100
4, 72300, Note_on_c, 2, 59, 0
4, 72300, Note_on_c, 2, 57, 100
4, 72360, Note_on_c, 2, 57, 0
4, 72360, Note_on_c, 2, 55, 100
4, 72420, Note_on_c, 2, 55, 0
4, 72420, Note_on_c, 2, 54, 100
4, 72480, Note_on_c, 2, 54, 0
4, 72480, Note_on_c, 2, 52, 100
4, 72720, Note_on_c, 2, 52, 0
4, 72840, Note_on_c, 2, 48, 100
4, 72960, Note_on_c, 2, 48, 0
4, 72960, Note_on_c, 2, 42, 100
4, 73080, Note_on_c, 2, 42, 0
4, 73080, Note_on_c, 2, 54, 100
4, 73140, Note_on_c, 2, 54, 0
4, 73140, Note_on_c, 2, 55, 100
4, 73200, Note_on_c, 2, 55, 0
4, 73200, Note_on_c, 2, 57, 100
4, 73260, Note_on_c, 2, 57, 0
4, 73260, Note_on_c, 2, 55, 100
4, 73320, Note_on_c, 2, 55, 0
4, 73320, Note_on_c, 2, 54, 100
4, 73380, Note_on_c, 2, 54, 0
4, 73380, Note_on_c, 2, 52, 100
4, 73440, Note_on_c, 2, 52, 0
4, 73440, Note_on_c, 2, 50, 100
4, 73680, Note_on_c, 2, 50, 0
4, 73800, Note_on_c, 2, 47, 100
4, 73920, Note_on_c, 2, 47, 0
4, 73920, Note_on_c, 2, 40, 90
4, 74039, Note_on_c, 2, 40, 0
4, 74040, Note_on_c, 2, 52, 90
4, 74099, Note_on_c, 2, 52, 0
4, 74100, Note_on_c, 2, 54, 90
4, 74159, Note_on_c, 2, 54, 0
4, 74160, Note_on_c, 2, 55, 90
4, 74219, Note_on_c, 2, 55, 0
4, 74220, Note_on_c, 2, 54, 90
4, 74279, Note_on_c, 2, 54, 0
4, 74280, Note_on_c, 2, 52, 90
4, 74339, Note_on_c, 2, 52, 0
4, 74340, Note_on_c, 2, 50, 90
4, 74399, Note_on_c, 2, 50, 0
4, 74400, Note_on_c, 2, 49, 90
4, 74519, Note_on_c, 2, 49, 0
4, 74520, Note_on_c, 2, 50, 90
4, 74639, Note_on_c, 2, 50, 0
4, 74640, Note_on_c, 2, 55, 90
4, 74759, Note_on_c, 2, 55, 0
4, 74760, Note_on_c, 2, 49, 90
4, 74879, Note_on_c, 2, 49, 0
4, 74880, Note_on_c, 2, 54, 100
4, 75000, Note_on_c, 2, 54, 0
4, 75000, Note_on_c, 2, 47, 90
4, 75119, Note_on_c, 2, 47, 0
4, 75120, Note_on_c, 2, 52, 90
4, 75239, Note_on_c, 2, 52, 0
4, 75240, Note_on_c, 2, 45, 90
4, 75359, Note_on_c, 2, 45, 0
4, 75360, Note_on_c, 2, 50, 90
4, 75479, Note_on_c, 2, 50, 0
4, 75480, Note_on_c, 2, 45, 90
4, 75539, Note_on_c, 2, 45, 0
4, 75540, Note_on_c, 2, 43, 90
4, 75599, Note_on_c, 2, 43, 0
4, 75600, Note_on_c, 2, 42, 90
4, 75659, Note_on_c, 2, 42, 0
4, 75660, Note_on_c, 2, 43, 90
4, 75719, Note_on_c, 2, 43, 0
4, 75720, Note_on_c, 2, 42, 90
4, 75779, Note_on_c, 2, 42, 0
4, 75780, Note_on_c, 2, 40, 90
4, 75839, Note_on_c, 2, 40, 0
4, 75840, Note_on_c, 2, 38, 90
4, 76079, Note_on_c, 2, 38, 0
4, 76200, Note_on_c, 2, 42, 90
4, 76319, Note_on_c, 2, 42, 0
4, 76320, Note_on_c, 2, 43, 90
4, 76379, Note_on_c, 2, 43, 0
4, 76380, Note_on_c, 2, 42, 90
4, 76439, Note_on_c, 2, 42, 0
4, 76440, Note_on_c, 2, 43, 90
4, 76499, Note_on_c, 2, 43, 0
4, 76500, Note_on_c, 2, 45, 90
4, 76559, Note_on_c, 2, 45, 0
4, 76560, Note_on_c, 2, 47, 90
4, 76679, Note_on_c, 2, 47, 0
4, 76680, Note_on_c, 2, 43, 90
4, 76799, Note_on_c, 2, 43, 0
4, 76800, Note_on_c, 2, 45, 90
4, 77039, Note_on_c, 2, 45, 0
4, 77160, Note_on_c, 2, 49, 90
4, 77279, Note_on_c, 2, 49, 0
4, 77280, Note_on_c, 2, 50, 90
4, 77339, Note_on_c, 2, 50, 0
4, 77340, Note_on_c, 2, 52, 90
4, 77399, Note_on_c, 2, 52, 0
4, 77400, Note_on_c, 2, 54, 90
4, 77459, Note_on_c, 2, 54, 0
4, 77460, Note_on_c, 2, 55, 90
4, 77519, Note_on_c, 2, 55, 0
4, 77520, Note_on_c, 2, 57, 90
4, 77579, Note_on_c, 2, 57, 0
4, 77580, Note_on_c, 2, 59, 90
4, 77639, Note_on_c, 2, 59, 0
4, 77640, Note_on_c, 2, 57, 90
4, 77699, Note_on_c, 2, 57, 0
4, 77700, Note_on_c, 2, 55, 90
4, 77759, Note_on_c, 2, 55, 0
4, 77760, Note_on_c, 2, 54, 90
4, 77819, Note_on_c, 2, 54, 0
4, 77820, Note_on_c, 2, 55, 90
4, 77879, Note_on_c, 2, 55, 0
4, 77880, Note_on_c, 2, 54, 90
4, 77939, Note_on_c, 2, 54, 0
4, 77940, Note_on_c, 2, 52, 90
4, 77999, Note_on_c, 2, 52, 0
4, 78000, Note_on_c, 2, 50, 90
4, 78059, Note_on_c, 2, 50, 0
4, 78060, Note_on_c, 2, 49, 90
4, 78119, Note_on_c, 2, 49, 0
4, 78120, Note_on_c, 2, 47, 90
4, 78179, Note_on_c, 2, 47, 0
4, 78180, Note_on_c, 2, 45, 90
4, 78239, Note_on_c, 2, 45, 0
4, 78240, Note_on_c, 2, 43, 90
4, 78359, Note_on_c, 2, 43, 0
4, 78360, Note_on_c, 2, 52, 90
4, 78479, Note_on_c, 2, 52, 0
4, 78480, Note_on_c, 2, 42, 90
4, 78599, Note_on_c, 2, 42, 0
4, 78600, Note_on_c, 2, 50, 90
4, 78719, Note_on_c, 2, 50, 0
4, 78720, Note_on_c, 2, 40, 90
4, 78839, Note_on_c, 2, 40, 0
4, 78840, Note_on_c, 2, 48, 90
4, 78959, Note_on_c, 2, 48, 0
4, 78960, Note_on_c, 2, 38, 90
4, 79079, Note_on_c, 2, 38, 0
4, 79080, Note_on_c, 2, 50, 90
4, 79139, Note_on_c, 2, 50, 0
4, 79140, Note_on_c, 2, 48, 90
4, 79199, Note_on_c, 2, 48, 0
4, 79200, Note_on_c, 2, 47, 90
4, 79319, Note_on_c, 2, 47, 0
4, 79320, Note_on_c, 2, 43, 90
4, 79439, Note_on_c, 2, 43, 0
4, 79440, Note_on_c, 2, 55, 90
4, 79559, Note_on_c, 2, 55, 0
4, 79560, Note_on_c, 2, 50, 90
4, 79679, Note_on_c, 2, 50, 0
4, 79680, Note_on_c, 2, 47, 90
4, 79799, Note_on_c, 2, 47, 0
4, 79800, Note_on_c, 2, 45, 90
4, 79859, Note_on_c, 2, 45, 0
4, 79860, Note_on_c, 2, 43, 90
4, 79919, Note_on_c, 2, 43, 0
4, 79920, Note_on_c, 2, 50, 90
4, 80039, Note_on_c, 2, 50, 0
4, 80040, Note_on_c, 2, 50, 90
4, 80159, Note_on_c, 2, 50, 0
4, 80160, Note_on_c, 2, 50, 90
4, 80279, Note_on_c, 2, 50, 0
4, 80280, Note_on_c, 2, 48, 90
4, 80339, Note_on_c, 2, 48, 0
4, 80340, Note_on_c, 2, 47, 90
4, 80399, Note_on_c, 2, 47, 0
4, 80400, Note_on_c, 2, 48, 90
4, 80459, Note_on_c, 2, 48, 0
4, 80460, Note_on_c, 2, 50, 90
4, 80519, Note_on_c, 2, 50, 0
4, 80520, Note_on_c, 2, 52, 90
4, 80639, Note_on_c, 2, 52, 0
4, 80640, Note_on_c, 2, 52, 90
4, 80759, Note_on_c, 2, 52, 0
4, 80760, Note_on_c, 2, 45, 90
4, 80879, Note_on_c, 2, 45, 0
4, 80880, Note_on_c, 2, 45, 90
4, 80999, Note_on_c, 2, 45, 0
4, 81000, Note_on_c, 2, 48, 90
4, 81239, Note_on_c, 2, 48, 0
4, 81240, Note_on_c, 2, 47, 90
4, 81299, Note_on_c, 2, 47, 0
4, 81300, Note_on_c, 2, 45, 90
4, 81359, Note_on_c, 2, 45, 0
4, 81360, Note_on_c, 2, 47, 90
4, 81419, Note_on_c, 2, 47, 0
4, 81420, Note_on_c, 2, 48, 90
4, 81479, Note_on_c, 2, 48, 0
4, 81480, Note_on_c, 2, 50, 90
4, 81599, Note_on_c, 2, 50, 0
4, 81600, Note_on_c, 2, 50, 90
4, 81719, Note_on_c, 2, 50, 0
4, 81720, Note_on_c, 2, 43, 90
4, 81839, Note_on_c, 2, 43, 0
4, 81840, Note_on_c, 2, 43, 90
4, 81959, Note_on_c, 2, 43, 0
4, 81960, Note_on_c, 2, 55, 90
4, 82199, Note_on_c, 2, 55, 0
4, 82200, Note_on_c, 2, 54, 90
4, 82439, Note_on_c, 2, 54, 0
4, 82440, Note_on_c, 2, 52, 90
4, 82679, Note_on_c, 2, 52, 0
4, 82680, Note_on_c, 2, 50, 90
4, 82739, Note_on_c, 2, 50, 0
4, 82740, Note_on_c, 2, 49, 90
4, 82799, Note_on_c, 2, 49, 0
4, 82800, Note_on_c, 2, 47, 90
4, 82859, Note_on_c, 2, 47, 0
4, 82860, Note_on_c, 2, 45, 90
4, 82919, Note_on_c, 2, 45, 0
4, 82920, Note_on_c, 2, 47, 90
4, 82979, Note_on_c, 2, 47, 0
4, 82980, Note_on_c, 2, 49, 90
4, 83039, Note_on_c, 2, 49, 0
4, 83040, Note_on_c, 2, 50, 90
4, 83099, Note_on_c, 2, 50, 0
4, 83100, Note_on_c, 2, 52, 90
4, 83159, Note_on_c, 2, 52, 0
4, 83160, Note_on_c, 2, 54, 90
4, 83219, Note_on_c, 2, 54, 0
4, 83220, Note_on_c, 2, 55, 90
4, 83279, Note_on_c, 2, 55, 0
4, 83280, Note_on_c, 2, 57, 90
4, 83399, Note_on_c, 2, 57, 0
4, 83400, Note_on_c, 2, 45, 90
4, 83519, Note_on_c, 2, 45, 0
4, 83520, Note_on_c, 2, 50, 90
4, 83759, Note_on_c, 2, 50, 0
4, 84000, Note_on_c, 2, 50, 90
4, 84239, Note_on_c, 2, 50, 0
4, 84480, Note_on_c, 2, 51, 90
4, 84719, Note_on_c, 2, 51, 0
4, 85080, Note_on_c, 2, 59, 90
4, 85199, Note_on_c, 2, 59, 0
4, 85200, Note_on_c, 2, 51, 90
4, 85319, Note_on_c, 2, 51, 0
4, 85320, Note_on_c, 2, 47, 90
4, 85439, Note_on_c, 2, 47, 0
4, 85440, Note_on_c, 2, 52, 90
4, 85679, Note_on_c, 2, 52, 0
4, 85920, Note_on_c, 2, 56, 90
4, 86159, Note_on_c, 2, 56, 0
4, 86400, Note_on_c, 2, 59, 90
4, 86639, Note_on_c, 2, 59, 0
4, 87000, Note_on_c, 2, 64, 90
4, 87119, Note_on_c, 2, 64, 0
4, 87120, Note_on_c, 2, 56, 90
4, 87239, Note_on_c, 2, 56, 0
4, 87240, Note_on_c, 2, 52, 90
4, 87359, Note_on_c, 2, 52, 0
4, 87360, Note_on_c, 2, 57, 90
4, 87479, Note_on_c, 2, 57, 0
4, 87480, Note_on_c, 2, 45, 90
4, 87599, Note_on_c, 2, 45, 0
4, 87600, Note_on_c, 2, 48, 90
4, 87719, Note_on_c, 2, 48, 0
4, 87720, Note_on_c, 2, 45, 90
4, 87839, Note_on_c, 2, 45, 0
4, 87960, Note_on_c, 2, 52, 90
4, 88079, Note_on_c, 2, 52, 0
4, 88080, Note_on_c, 2, 56, 90
4, 88199, Note_on_c, 2, 56, 0
4, 88200, Note_on_c, 2, 52, 90
4, 88319, Note_on_c, 2, 52, 0
4, 88440, Note_on_c, 2, 57, 90
4, 88559, Note_on_c, 2, 57, 0
4, 88560, Note_on_c, 2, 60, 90
4, 88679, Note_on_c, 2, 60, 0
4, 88680, Note_on_c, 2, 57, 90
4, 88799, Note_on_c, 2, 57, 0
4, 88800, Note_on_c, 2, 64, 90
4, 88979, Note_on_c, 2, 64, 0
4, 88980, Note_on_c, 2, 62, 90
4, 89039, Note_on_c, 2, 62, 0
4, 89040, Note_on_c, 2, 60, 90
4, 89099, Note_on_c, 2, 60, 0
4, 89100, Note_on_c, 2, 59, 90
4, 89159, Note_on_c, 2, 59, 0
4, 89160, Note_on_c, 2, 57, 90
4, 89219, Note_on_c, 2, 57, 0
4, 89220, Note_on_c, 2, 56, 90
4, 89279, Note_on_c, 2, 56, 0
4, 89280, Note_on_c, 2, 57, 90
4, 89399, Note_on_c, 2, 57, 0
4, 89400, Note_on_c, 2, 59, 90
4, 89519, Note_on_c, 2, 59, 0
4, 89520, Note_on_c, 2, 60, 90
4, 89639, Note_on_c, 2, 60, 0
4, 89640, Note_on_c, 2, 57, 90
4, 89759, Note_on_c, 2, 57, 0
4, 89760, Note_on_c, 2, 56, 90
4, 89879, Note_on_c, 2, 56, 0
4, 89880, Note_on_c, 2, 54, 90
4, 89999, Note_on_c, 2, 54, 0
4, 90000, Note_on_c, 2, 52, 90
4, 90119, Note_on_c, 2, 52, 0
4, 90120, Note_on_c, 2, 56, 90
4, 90239, Note_on_c, 2, 56, 0
4, 90240, Note_on_c, 2, 54, 90
4, 90359, Note_on_c, 2, 54, 0
4, 90360, Note_on_c, 2, 57, 90
4, 90479, Note_on_c, 2, 57, 0
4, 90480, Note_on_c, 2, 59, 90
4, 90599, Note_on_c, 2, 59, 0
4, 90600, Note_on_c, 2, 47, 90
4, 90719, Note_on_c, 2, 47, 0
4, 90720, Note_on_c, 2, 52, 90
4, 90960, Note_on_c, 2, 52, 0
4, 91080, Note_on_c, 2, 40, 90
4, 91199, Note_on_c, 2, 40, 0
4, 91200, Note_on_c, 2, 45, 90
4, 91319, Note_on_c, 2, 45, 0
4, 91320, Note_on_c, 2, 48, 90
4, 91379, Note_on_c, 2, 48, 0
4, 91380, Note_on_c, 2, 47, 90
4, 91439, Note_on_c, 2, 47, 0
4, 91440, Note_on_c, 2, 45, 90
4, 91559, Note_on_c, 2, 45, 0
4, 91560, Note_on_c, 2, 48, 90
4, 91619, Note_on_c, 2, 48, 0
4, 91620, Note_on_c, 2, 47, 90
4, 91679, Note_on_c, 2, 47, 0
4, 91680, Note_on_c, 2, 45, 90
4, 91799, Note_on_c, 2, 45, 0
4, 91800, Note_on_c, 2, 48, 90
4, 91859, Note_on_c, 2, 48, 0
4, 91860, Note_on_c, 2, 47, 90
4, 91919, Note_on_c, 2, 47, 0
4, 91920, Note_on_c, 2, 45, 90
4, 91979, Note_on_c, 2, 45, 0
4, 91980, Note_on_c, 2, 47, 90
4, 92039, Note_on_c, 2, 47, 0
4, 92040, Note_on_c, 2, 48, 90
4, 92099, Note_on_c, 2, 48, 0
4, 92100, Note_on_c, 2, 45, 90
4, 92159, Note_on_c, 2, 45, 0
4, 92160, Note_on_c, 2, 50, 90
4, 92399, Note_on_c, 2, 50, 0
4, 92520, Note_on_c, 2, 38, 90
4, 92639, Note_on_c, 2, 38, 0
4, 92640, Note_on_c, 2, 43, 90
4, 92879, Note_on_c, 2, 43, 0
4, 93000, Note_on_c, 2, 47, 90
4, 93119, Note_on_c, 2, 47, 0
4, 93120, Note_on_c, 2, 48, 90
4, 93359, Note_on_c, 2, 48, 0
4, 93480, Note_on_c, 2, 36, 90
4, 93599, Note_on_c, 2, 36, 0
4, 93600, Note_on_c, 2, 41, 90
4, 93839, Note_on_c, 2, 41, 0
4, 93900, Note_on_c, 2, 50, 90
4, 93959, Note_on_c, 2, 50, 0
4, 93960, Note_on_c, 2, 48, 90
4, 94019, Note_on_c, 2, 48, 0
4, 94020, Note_on_c, 2, 47, 90
4, 94079, Note_on_c, 2, 47, 0
4, 94080, Note_on_c, 2, 45, 90
4, 94199, Note_on_c, 2, 45, 0
4, 94200, Note_on_c, 2, 50, 90
4, 94319, Note_on_c, 2, 50, 0
4, 94320, Note_on_c, 2, 52, 90
4, 94439, Note_on_c, 2, 52, 0
4, 94440, Note_on_c, 2, 40, 90
4, 94559, Note_on_c, 2, 40, 0
4, 94560, Note_on_c, 2, 45, 90
4, 94619, Note_on_c, 2, 45, 0
4, 94620, Note_on_c, 2, 47, 90
4, 94679, Note_on_c, 2, 47, 0
4, 94680, Note_on_c, 2, 48, 90
4, 94739, Note_on_c, 2, 48, 0
4, 94740, Note_on_c, 2, 50, 90
4, 94799, Note_on_c, 2, 50, 0
4, 94800, Note_on_c, 2, 52, 90
4, 94859, Note_on_c, 2, 52, 0
4, 94860, Note_on_c, 2, 47, 90
4, 94919, Note_on_c, 2, 47, 0
4, 94920, Note_on_c, 2, 52, 90
4, 94979, Note_on_c, 2, 52, 0
4, 94980, Note_on_c, 2, 50, 90
4, 95039, Note_on_c, 2, 50, 0
4, 95040, Note_on_c, 2, 48, 90
4, 95099, Note_on_c, 2, 48, 0
4, 95100, Note_on_c, 2, 47, 90
4, 95159, Note_on_c, 2, 47, 0
4, 95160, Note_on_c, 2, 48, 90
4, 95219, Note_on_c, 2, 48, 0
4, 95220, Note_on_c, 2, 45, 90
4, 95279, Note_on_c, 2, 45, 0
4, 95280, Note_on_c, 2, 47, 90
4, 95339, Note_on_c, 2, 47, 0
4, 95340, Note_on_c, 2, 49, 90
4, 95399, Note_on_c, 2, 49, 0
4, 95400, Note_on_c, 2, 51, 90
4, 95459, Note_on_c, 2, 51, 0
4, 95460, Note_on_c, 2, 47, 90
4, 95519, Note_on_c, 2, 47, 0
4, 95520, Note_on_c, 2, 52, 90
4, 95579, Note_on_c, 2, 52, 0
4, 95580, Note_on_c, 2, 54, 90
4, 95639, Note_on_c, 2, 54, 0
4, 95640, Note_on_c, 2, 55, 90
4, 95699, Note_on_c, 2, 55, 0
4, 95700, Note_on_c, 2, 57, 90
4, 95759, Note_on_c, 2, 57, 0
4, 95760, Note_on_c, 2, 59, 90
4, 95819, Note_on_c, 2, 59, 0
4, 95820, Note_on_c, 2, 54, 90
4, 95879, Note_on_c, 2, 54, 0
4, 95880, Note_on_c, 2, 59, 90
4, 95939, Note_on_c, 2, 59, 0
4, 95940, Note_on_c, 2, 57, 90
4, 95999, Note_on_c, 2, 57, 0
4, 96000, Note_on_c, 2, 55, 90
4, 96059, Note_on_c, 2, 55, 0
4, 96060, Note_on_c, 2, 54, 90
4, 96119, Note_on_c, 2, 54, 0
4, 96120, Note_on_c, 2, 55, 90
4, 96179, Note_on_c, 2, 55, 0
4, 96180, Note_on_c, 2, 52, 90
4, 96239, Note_on_c, 2, 52, 0
4, 96240, Note_on_c, 2, 54, 90
4, 96299, Note_on_c, 2, 54, 0
4, 96300, Note_on_c, 2, 56, 90
4, 96359, Note_on_c, 2, 56, 0
4, 96360, Note_on_c, 2, 58, 90
4, 96419, Note_on_c, 2, 58, 0
4, 96420, Note_on_c, 2, 54, 90
4, 96479, Note_on_c, 2, 54, 0
4, 96480, Note_on_c, 2, 47, 90
4, 96539, Note_on_c, 2, 47, 0
4, 96540, Note_on_c, 2, 49, 90
4, 96599, Note_on_c, 2, 49, 0
4, 96600, Note_on_c, 2, 50, 90
4, 96659, Note_on_c, 2, 50, 0
4, 96660, Note_on_c, 2, 52, 90
4, 96719, Note_on_c, 2, 52, 0
4, 96720, Note_on_c, 2, 54, 90
4, 96779, Note_on_c, 2, 54, 0
4, 96780, Note_on_c, 2, 49, 90
4, 96839, Note_on_c, 2, 49, 0
4, 96840, Note_on_c, 2, 54, 90
4, 96899, Note_on_c, 2, 54, 0
4, 96900, Note_on_c, 2, 52, 90
4, 96959, Note_on_c, 2, 52, 0
4, 96960, Note_on_c, 2, 50, 90
4, 97019, Note_on_c, 2, 50, 0
4, 97020, Note_on_c, 2, 49, 90
4, 97079, Note_on_c, 2, 49, 0
4, 97080, Note_on_c, 2, 50, 90
4, 97139, Note_on_c, 2, 50, 0
4, 97140, Note_on_c, 2, 47, 90
4, 97199, Note_on_c, 2, 47, 0
4, 97200, Note_on_c, 2, 49, 90
4, 97259, Note_on_c, 2, 49, 0
4, 97260, Note_on_c, 2, 51, 90
4, 97319, Note_on_c, 2, 51, 0
4, 97320, Note_on_c, 2, 53, 90
4, 97379, Note_on_c, 2, 53, 0
4, 97380, Note_on_c, 2, 49, 90
4, 97439, Note_on_c, 2, 49, 0
4, 97440, Note_on_c, 2, 54, 90
4, 97499, Note_on_c, 2, 54, 0
4, 97500, Note_on_c, 2, 56, 90
4, 97559, Note_on_c, 2, 56, 0
4, 97560, Note_on_c, 2, 57, 90
4, 97619, Note_on_c, 2, 57, 0
4, 97620, Note_on_c, 2, 59, 90
4, 97679, Note_on_c, 2, 59, 0
4, 97680, Note_on_c, 2, 61, 90
4, 97739, Note_on_c, 2, 61, 0
4, 97740, Note_on_c, 2, 62, 90
4, 97799, Note_on_c, 2, 62, 0
4, 97800, Note_on_c, 2, 61, 90
4, 97859, Note_on_c, 2, 61, 0
4, 97860, Note_on_c, 2, 59, 90
4, 97919, Note_on_c, 2, 59, 0
4, 97920, Note_on_c, 2, 58, 90
4, 97979, Note_on_c, 2, 58, 0
4, 97980, Note_on_c, 2, 54, 90
4, 98039, Note_on_c, 2, 54, 0
4, 98040, Note_on_c, 2, 59, 90
4, 98099, Note_on_c, 2, 59, 0
4, 98100, Note_on_c, 2, 57, 90
4, 98159, Note_on_c, 2, 57, 0
4, 98160, Note_on_c, 2, 56, 90
4, 98219, Note_on_c, 2, 56, 0
4, 98220, Note_on_c, 2, 54, 90
4, 98279, Note_on_c, 2, 54, 0
4, 98280, Note_on_c, 2, 56, 90
4, 98339, Note_on_c, 2, 56, 0
4, 98340, Note_on_c, 2, 58, 90
4, 98399, Note_on_c, 2, 58, 0
4, 98400, Note_on_c, 2, 59, 90
4, 98459, Note_on_c, 2, 59, 0
4, 98460, Note_on_c, 2, 57, 90
4, 98519, Note_on_c, 2, 57, 0
4, 98520, Note_on_c, 2, 55, 90
4, 98579, Note_on_c, 2, 55, 0
4, 98580, Note_on_c, 2, 54, 90
4, 98639, Note_on_c, 2, 54, 0
4, 98640, Note_on_c, 2, 52, 90
4, 98699, Note_on_c, 2, 52, 0
4, 98700, Note_on_c, 2, 54, 90
4, 98759, Note_on_c, 2, 54, 0
4, 98760, Note_on_c, 2, 55, 90
4, 98819, Note_on_c, 2, 55, 0
4, 98820, Note_on_c, 2, 52, 90
4, 98879, Note_on_c, 2, 52, 0
4, 98880, Note_on_c, 2, 54, 90
4, 98999, Note_on_c, 2, 54, 0
4, 99000, Note_on_c, 2, 52, 90
4, 99119, Note_on_c, 2, 52, 0
4, 99120, Note_on_c, 2, 50, 90
4, 99239, Note_on_c, 2, 50, 0
4, 99240, Note_on_c, 2, 49, 90
4, 99359, Note_on_c, 2, 49, 0
4, 99360, Note_on_c, 2, 47, 90
4, 99479, Note_on_c, 2, 47, 0
4, 99480, Note_on_c, 2, 50, 90
4, 99539, Note_on_c, 2, 50, 0
4, 99540, Note_on_c, 2, 49, 90
4, 99599, Note_on_c, 2, 49, 0
4, 99600, Note_on_c, 2, 47, 90
4, 99719, Note_on_c, 2, 47, 0
4, 99720, Note_on_c, 2, 50, 90
4, 99779, Note_on_c, 2, 50, 0
4, 99780, Note_on_c, 2, 49, 90
4, 99839, Note_on_c, 2, 49, 0
4, 99840, Note_on_c, 2, 47, 90
4, 99959, Note_on_c, 2, 47, 0
4, 99960, Note_on_c, 2, 50, 90
4, 100019, Note_on_c, 2, 50, 0
4, 100020, Note_on_c, 2, 49, 90
4, 100079, Note_on_c, 2, 49, 0
4, 100080, Note_on_c, 2, 47, 90
4, 100139, Note_on_c, 2, 47, 0
4, 100140, Note_on_c, 2, 49, 90
4, 100199, Note_on_c, 2, 49, 0
4, 100200, Note_on_c, 2, 50, 90
4, 100259, Note_on_c, 2, 50, 0
4, 100260, Note_on_c, 2, 47, 90
4, 100319, Note_on_c, 2, 47, 0
4, 100320, Note_on_c, 2, 52, 90
4, 100559, Note_on_c, 2, 52, 0
4, 100680, Note_on_c, 2, 40, 90
4, 100799, Note_on_c, 2, 40, 0
4, 100800, Note_on_c, 2, 45, 90
4, 101039, Note_on_c, 2, 45, 0
4, 101160, Note_on_c, 2, 45, 90
4, 101279, Note_on_c, 2, 45, 0
4, 101280, Note_on_c, 2, 50, 90
4, 101519, Note_on_c, 2, 50, 0
4, 101640, Note_on_c, 2, 50, 90
4, 101759, Note_on_c, 2, 50, 0
4, 101760, Note_on_c, 2, 55, 90
4, 101879, Note_on_c, 2, 55, 0
4, 101880, Note_on_c, 2, 54, 90
4, 101939, Note_on_c, 2, 54, 0
4, 101940, Note_on_c, 2, 52, 90
4, 101999, Note_on_c, 2, 52, 0
4, 102000, Note_on_c, 2, 50, 90
4, 102119, Note_on_c, 2, 50, 0
4, 102120, Note_on_c, 2, 49, 90
4, 102239, Note_on_c, 2, 49, 0
4, 102240, Note_on_c, 2, 47, 90
4, 102359, Note_on_c, 2, 47, 0
4, 102360, Note_on_c, 2, 52, 90
4, 102479, Note_on_c, 2, 52, 0
4, 102480, Note_on_c, 2, 54, 90
4, 102599, Note_on_c, 2, 54, 0
4, 102600, Note_on_c, 2, 42, 90
4, 102719, Note_on_c, 2, 42, 0
4, 102720, Note_on_c, 2, 47, 90
4, 102779, Note_on_c, 2, 47, 0
4, 102780, Note_on_c, 2, 50, 90
4, 102839, Note_on_c, 2, 50, 0
4, 102840, Note_on_c, 2, 49, 90
4, 102899, Note_on_c, 2, 49, 0
4, 102900, Note_on_c, 2, 47, 90
4, 102959, Note_on_c, 2, 47, 0
4, 102960, Note_on_c, 2, 54, 90
4, 103019, Note_on_c, 2, 54, 0
4, 103020, Note_on_c, 2, 52, 90
4, 103079, Note_on_c, 2, 52, 0
4, 103080, Note_on_c, 2, 50, 90
4, 103139, Note_on_c, 2, 50, 0
4, 103140, Note_on_c, 2, 49, 90
4, 103199, Note_on_c, 2, 49, 0
4, 103200, Note_on_c, 2, 47, 90
4, 103259, Note_on_c, 2, 47, 0
4, 103260, Note_on_c, 2, 54, 90
4, 103319, Note_on_c, 2, 54, 0
4, 103320, Note_on_c, 2, 52, 90
4, 103379, Note_on_c, 2, 52, 0
4, 103380, Note_on_c, 2, 51, 90
4, 103439, Note_on_c, 2, 51, 0
4, 103440, Note_on_c, 2, 57, 90
4, 103499, Note_on_c, 2, 57, 0
4, 103500, Note_on_c, 2, 55, 90
4, 103559, Note_on_c, 2, 55, 0
4, 103560, Note_on_c, 2, 54, 90
4, 103619, Note_on_c, 2, 54, 0
4, 103620, Note_on_c, 2, 52, 90
4, 103679, Note_on_c, 2, 52, 0
4, 103680, Note_on_c, 2, 51, 90
4, 103739, Note_on_c, 2, 51, 0
4, 103740, Note_on_c, 2, 57, 90
4, 103799, Note_on_c, 2, 57, 0
4, 103800, Note_on_c, 2, 55, 90
4, 103859, Note_on_c, 2, 55, 0
4, 103860, Note_on_c, 2, 54, 90
4, 103919, Note_on_c, 2, 54, 0
4, 103920, Note_on_c, 2, 60, 90
4, 103979, Note_on_c, 2, 60, 0
4, 103980, Note_on_c, 2, 59, 90
4, 104039, Note_on_c, 2, 59, 0
4, 104040, Note_on_c, 2, 57, 90
4, 104099, Note_on_c, 2, 57, 0
4, 104100, Note_on_c, 2, 55, 90
4, 104159, Note_on_c, 2, 55, 0
4, 104160, Note_on_c, 2, 54, 90
4, 104219, Note_on_c, 2, 54, 0
4, 104220, Note_on_c, 2, 52, 90
4, 104279, Note_on_c, 2, 52, 0
4, 104280, Note_on_c, 2, 51, 90
4, 104339, Note_on_c, 2, 51, 0
4, 104340, Note_on_c, 2, 49, 90
4, 104399, Note_on_c, 2, 49, 0
4, 104400, Note_on_c, 2, 47, 90
4, 104459, Note_on_c, 2, 47, 0
4, 104460, Note_on_c, 2, 45, 90
4, 104519, Note_on_c, 2, 45, 0
4, 104520, Note_on_c, 2, 43, 90
4, 104579, Note_on_c, 2, 43, 0
4, 104580, Note_on_c, 2, 42, 90
4, 104639, Note_on_c, 2, 42, 0
4, 104640, Note_on_c, 2, 40, 90
4, 104699, Note_on_c, 2, 40, 0
4, 104700, Note_on_c, 2, 55, 90
4, 104759, Note_on_c, 2, 55, 0
4, 104760, Note_on_c, 2, 54, 90
4, 104819, Note_on_c, 2, 54, 0
4, 104820, Note_on_c, 2, 52, 90
4, 104879, Note_on_c, 2, 52, 0
4, 104880, Note_on_c, 2, 59, 90
4, 104939, Note_on_c, 2, 59, 0
4, 104940, Note_on_c, 2, 57, 90
4, 104999, Note_on_c, 2, 57, 0
4, 105000, Note_on_c, 2, 55, 90
4, 105059, Note_on_c, 2, 55, 0
4, 105060, Note_on_c, 2, 54, 90
4, 105119, Note_on_c, 2, 54, 0
4, 105120, Note_on_c, 2, 52, 90
4, 105179, Note_on_c, 2, 52, 0
4, 105180, Note_on_c, 2, 59, 90
4, 105239, Note_on_c, 2, 59, 0
4, 105240, Note_on_c, 2, 57, 90
4, 105299, Note_on_c, 2, 57, 0
4, 105300, Note_on_c, 2, 56, 90
4, 105359, Note_on_c, 2, 56, 0
4, 105360, Note_on_c, 2, 62, 90
4, 105419, Note_on_c, 2, 62, 0
4, 105420, Note_on_c, 2, 60, 90
4, 105479, Note_on_c, 2, 60, 0
4, 105480, Note_on_c, 2, 59, 90
4, 105539, Note_on_c, 2, 59, 0
4, 105540, Note_on_c, 2, 57, 90
4, 105599, Note_on_c, 2, 57, 0
4, 105600, Note_on_c, 2, 56, 90
4, 105659, Note_on_c, 2, 56, 0
4, 105660, Note_on_c, 2, 62, 90
4, 105719, Note_on_c, 2, 62, 0
4, 105720, Note_on_c, 2, 60, 90
4, 105779, Note_on_c, 2, 60, 0
4, 105780, Note_on_c, 2, 59, 90
4, 105839, Note_on_c, 2, 59, 0
4, 105840, Note_on_c, 2, 65, 90
4, 105899, Note_on_c, 2, 65, 0
4, 105900, Note_on_c, 2, 64, 90
4, 105959, Note_on_c, 2, 64, 0
4, 105960, Note_on_c, 2, 62, 90
4, 106019, Note_on_c, 2, 62, 0
4, 106020, Note_on_c, 2, 60, 90
4, 106079, Note_on_c, 2, 60, 0
4, 106080, Note_on_c, 2, 59, 90
4, 106139, Note_on_c, 2, 59, 0
4, 106140, Note_on_c, 2, 57, 90
4, 106199, Note_on_c, 2, 57, 0
4, 106200, Note_on_c, 2, 56, 90
4, 106259, Note_on_c, 2, 56, 0
4, 106260, Note_on_c, 2, 54, 90
4, 106319, Note_on_c, 2, 54, 0
4, 106320, Note_on_c, 2, 52, 90
4, 106379, Note_on_c, 2, 52, 0
4, 106380, Note_on_c, 2, 50, 90
4, 106439, Note_on_c, 2, 50, 0
4, 106440, Note_on_c, 2, 48, 90
4, 106499, Note_on_c, 2, 48, 0
4, 106500, Note_on_c, 2, 47, 90
4, 106559, Note_on_c, 2, 47, 0
4, 106560, Note_on_c, 2, 45, 90
4, 106619, Note_on_c, 2, 45, 0
4, 106620, Note_on_c, 2, 49, 90
4, 106679, Note_on_c, 2, 49, 0
4, 106680, Note_on_c, 2, 47, 90
4, 106739, Note_on_c, 2, 47, 0
4, 106740, Note_on_c, 2, 45, 90
4, 106799, Note_on_c, 2, 45, 0
4, 106800, Note_on_c, 2, 52, 90
4, 106859, Note_on_c, 2, 52, 0
4, 106860, Note_on_c, 2, 50, 90
4, 106919, Note_on_c, 2, 50, 0
4, 106920, Note_on_c, 2, 49, 90
4, 106979, Note_on_c, 2, 49, 0
4, 106980, Note_on_c, 2, 47, 90
4, 107039, Note_on_c, 2, 47, 0
4, 107040, Note_on_c, 2, 45, 90
4, 107099, Note_on_c, 2, 45, 0
4, 107100, Note_on_c, 2, 52, 90
4, 107159, Note_on_c, 2, 52, 0
4, 107160, Note_on_c, 2, 50, 90
4, 107219, Note_on_c, 2, 50, 0
4, 107220, Note_on_c, 2, 49, 90
4, 107279, Note_on_c, 2, 49, 0
4, 107280, Note_on_c, 2, 55, 90
4, 107339, Note_on_c, 2, 55, 0
4, 107340, Note_on_c, 2, 54, 90
4, 107399, Note_on_c, 2, 54, 0
4, 107400, Note_on_c, 2, 52, 90
4, 107459, Note_on_c, 2, 52, 0
4, 107460, Note_on_c, 2, 50, 90
4, 107519, Note_on_c, 2, 50, 0
4, 107520, Note_on_c, 2, 49, 90
4, 107579, Note_on_c, 2, 49, 0
4, 107580, Note_on_c, 2, 55, 90
4, 107639, Note_on_c, 2, 55, 0
4, 107640, Note_on_c, 2, 54, 90
4, 107699, Note_on_c, 2, 54, 0
4, 107700, Note_on_c, 2, 52, 90
4, 107759, Note_on_c, 2, 52, 0
4, 107760, Note_on_c, 2, 58, 90
4, 107819, Note_on_c, 2, 58, 0
4, 107820, Note_on_c, 2, 57, 90
4, 107879, Note_on_c, 2, 57, 0
4, 107880, Note_on_c, 2, 55, 90
4, 107939, Note_on_c, 2, 55, 0
4, 107940, Note_on_c, 2, 54, 90
4, 107999, Note_on_c, 2, 54, 0
4, 108000, Note_on_c, 2, 52, 90
4, 108059, Note_on_c, 2, 52, 0
4, 108060, Note_on_c, 2, 50, 90
4, 108119, Note_on_c, 2, 50, 0
4, 108120, Note_on_c, 2, 49, 90
4, 108179, Note_on_c, 2, 49, 0
4, 108180, Note_on_c, 2, 47, 90
4, 108239, Note_on_c, 2, 47, 0
4, 108240, Note_on_c, 2, 45, 90
4, 108299, Note_on_c, 2, 45, 0
4, 108300, Note_on_c, 2, 43, 90
4, 108359, Note_on_c, 2, 43, 0
4, 108360, Note_on_c, 2, 42, 90
4, 108419, Note_on_c, 2, 42, 0
4, 108420, Note_on_c, 2, 40, 90
4, 108479, Note_on_c, 2, 40, 0
4, 108480, Note_on_c, 2, 38, 90
4, 108539, Note_on_c, 2, 38, 0
4, 108540, Note_on_c, 2, 54, 90
4, 108599, Note_on_c, 2, 54, 0
4, 108600, Note_on_c, 2, 52, 90
4, 108659, Note_on_c, 2, 52, 0
4, 108660, Note_on_c, 2, 50, 90
4, 108719, Note_on_c, 2, 50, 0
4, 108720, Note_on_c, 2, 57, 90
4, 108779, Note_on_c, 2, 57, 0
4, 108780, Note_on_c, 2, 55, 90
4, 108839, Note_on_c, 2, 55, 0
4, 108840, Note_on_c, 2, 54, 90
4, 108899, Note_on_c, 2, 54, 0
4, 108900, Note_on_c, 2, 52, 90
4, 108959, Note_on_c, 2, 52, 0
4, 108960, Note_on_c, 2, 50, 90
4, 109019, Note_on_c, 2, 50, 0
4, 109020, Note_on_c, 2, 57, 90
4, 109079, Note_on_c, 2, 57, 0
4, 109080, Note_on_c, 2, 55, 90
4, 109139, Note_on_c, 2, 55, 0
4, 109140, Note_on_c, 2, 54, 90
4, 109199, Note_on_c, 2, 54, 0
4, 109200, Note_on_c, 2, 60, 90
4, 109259, Note_on_c, 2, 60, 0
4, 109260, Note_on_c, 2, 59, 90
4, 109319, Note_on_c, 2, 59, 0
4, 109320, Note_on_c, 2, 57, 90
4, 109379, Note_on_c, 2, 57, 0
4, 109380, Note_on_c, 2, 55, 90
4, 109439, Note_on_c, 2, 55, 0
4, 109440, Note_on_c, 2, 54, 90
4, 109499, Note_on_c, 2, 54, 0
4, 109500, Note_on_c, 2, 60, 90
4, 109559, Note_on_c, 2, 60, 0
4, 109560, Note_on_c, 2, 59, 90
4, 109619, Note_on_c, 2, 59, 0
4, 109620, Note_on_c, 2, 57, 90
4, 109679, Note_on_c, 2, 57, 0
4, 109680, Note_on_c, 2, 63, 90
4, 109739, Note_on_c, 2, 63, 0
4, 109740, Note_on_c, 2, 62, 90
4, 109799, Note_on_c, 2, 62, 0
4, 109800, Note_on_c, 2, 60, 90
4, 109859, Note_on_c, 2, 60, 0
4, 109860, Note_on_c, 2, 59, 90
4, 109919, Note_on_c, 2, 59, 0
4, 109920, Note_on_c, 2, 57, 90
4, 109979, Note_on_c, 2, 57, 0
4, 109980, Note_on_c, 2, 55, 90
4, 110039, Note_on_c, 2, 55, 0
4, 110040, Note_on_c, 2, 54, 90
4, 110099, Note_on_c, 2, 54, 0
4, 110100, Note_on_c, 2, 52, 90
4, 110159, Note_on_c, 2, 52, 0
4, 110160, Note_on_c, 2, 50, 90
4, 110219, Note_on_c, 2, 50, 0
4, 110220, Note_on_c, 2, 48, 90
4, 110279, Note_on_c, 2, 48, 0
4, 110280, Note_on_c, 2, 47, 90
4, 110339, Note_on_c, 2, 47, 0
4, 110340, Note_on_c, 2, 45, 90
4, 110399, Note_on_c, 2, 45, 0
4, 110400, Note_on_c, 2, 43, 90
4, 110519, Note_on_c, 2, 43, 0
4, 110520, Note_on_c, 2, 55, 90
4, 110579, Note_on_c, 2, 55, 0
4, 110580, Note_on_c, 2, 57, 90
4, 110639, Note_on_c, 2, 57, 0
4, 110640, Note_on_c, 2, 59, 90
4, 110759, Note_on_c, 2, 59, 0
4, 110760, Note_on_c, 2, 55, 90
4, 110879, Note_on_c, 2, 55, 0
4, 111000, Note_on_c, 2, 43, 90
4, 111059, Note_on_c, 2, 43, 0
4, 111060, Note_on_c, 2, 45, 90
4, 111119, Note_on_c, 2, 45, 0
4, 111120, Note_on_c, 2, 47, 90
4, 111179, Note_on_c, 2, 47, 0
4, 111180, Note_on_c, 2, 48, 90
4, 111239, Note_on_c, 2, 48, 0
4, 111240, Note_on_c, 2, 50, 90
4, 111299, Note_on_c, 2, 50, 0
4, 111300, Note_on_c, 2, 47, 90
4, 111359, Note_on_c, 2, 47, 0
4, 111360, Note_on_c, 2, 48, 90
4, 111479, Note_on_c, 2, 48, 0
4, 111480, Note_on_c, 2, 43, 90
4, 111599, Note_on_c, 2, 43, 0
4, 111600, Note_on_c, 2, 45, 90
4, 111719, Note_on_c, 2, 45, 0
4, 111720, Note_on_c, 2, 48, 90
4, 111839, Note_on_c, 2, 48, 0
4, 111840, Note_on_c, 2, 50, 90
4, 112079, Note_on_c, 2, 50, 0
4, 112200, Note_on_c, 2, 42, 90
4, 112319, Note_on_c, 2, 42, 0
4, 112320, Note_on_c, 2, 43, 90
4, 112379, Note_on_c, 2, 43, 0
4, 112380, Note_on_c, 2, 45, 90
4, 112439, Note_on_c, 2, 45, 0
4, 112440, Note_on_c, 2, 47, 90
4, 112499, Note_on_c, 2, 47, 0
4, 112500, Note_on_c, 2, 48, 90
4, 112559, Note_on_c, 2, 48, 0
4, 112560, Note_on_c, 2, 50, 90
4, 112619, Note_on_c, 2, 50, 0
4, 112620, Note_on_c, 2, 52, 90
4, 112679, Note_on_c, 2, 52, 0
4, 112680, Note_on_c, 2, 50, 90
4, 112739, Note_on_c, 2, 50, 0
4, 112740, Note_on_c, 2, 48, 90
4, 112799, Note_on_c, 2, 48, 0
4, 112800, Note_on_c, 2, 47, 90
4, 112859, Note_on_c, 2, 47, 0
4, 112860, Note_on_c, 2, 48, 90
4, 112919, Note_on_c, 2, 48, 0
4, 112920, Note_on_c, 2, 47, 90
4, 112979, Note_on_c, 2, 47, 0
4, 112980, Note_on_c, 2, 45, 90
4, 113039, Note_on_c, 2, 45, 0
4, 113040, Note_on_c, 2, 43, 90
4, 113099, Note_on_c, 2, 43, 0
4, 113100, Note_on_c, 2, 41, 90
4, 113159, Note_on_c, 2, 41, 0
4, 113160, Note_on_c, 2, 40, 90
4, 113219, Note_on_c, 2, 40, 0
4, 113220, Note_on_c, 2, 38, 90
4, 113279, Note_on_c, 2, 38, 0
4, 113280, Note_on_c, 2, 36, 90
4, 113339, Note_on_c, 2, 36, 0
4, 113340, Note_on_c, 2, 48, 90
4, 113399, Note_on_c, 2, 48, 0
4, 113400, Note_on_c, 2, 50, 90
4, 113459, Note_on_c, 2, 50, 0
4, 113460, Note_on_c, 2, 52, 90
4, 113519, Note_on_c, 2, 52, 0
4, 113520, Note_on_c, 2, 53, 90
4, 113579, Note_on_c, 2, 53, 0
4, 113580, Note_on_c, 2, 52, 90
4, 113639, Note_on_c, 2, 52, 0
4, 113640, Note_on_c, 2, 53, 90
4, 113699, Note_on_c, 2, 53, 0
4, 113700, Note_on_c, 2, 55, 90
4, 113759, Note_on_c, 2, 55, 0
4, 113760, Note_on_c, 2, 57, 90
4, 113879, Note_on_c, 2, 57, 0
4, 113880, Note_on_c, 2, 52, 90
4, 113999, Note_on_c, 2, 52, 0
4, 114000, Note_on_c, 2, 53, 90
4, 114119, Note_on_c, 2, 53, 0
4, 114120, Note_on_c, 2, 55, 90
4, 114239, Note_on_c, 2, 55, 0
4, 114240, Note_on_c, 2, 48, 90
4, 114359, Note_on_c, 2, 48, 0
4, 114360, Note_on_c, 2, 47, 90
4, 114419, Note_on_c, 2, 47, 0
4, 114420, Note_on_c, 2, 45, 90
4, 114479, Note_on_c, 2, 45, 0
4, 114480, Note_on_c, 2, 43, 90
4, 114539, Note_on_c, 2, 43, 0
4, 114540, Note_on_c, 2, 41, 90
4, 114599, Note_on_c, 2, 41, 0
4, 114600, Note_on_c, 2, 40, 90
4, 114659, Note_on_c, 2, 40, 0
4, 114660, Note_on_c, 2, 38, 90
4, 114719, Note_on_c, 2, 38, 0
4, 114720, Note_on_c, 2, 36, 90
4, 114959, Note_on_c, 2, 36, 0
4, 115080, Note_on_c, 2, 40, 90
4, 115199, Note_on_c, 2, 40, 0
4, 115200, Note_on_c, 2, 41, 90
4, 115259, Note_on_c, 2, 41, 0
4, 115260, Note_on_c, 2, 40, 90
4, 115319, Note_on_c, 2, 40, 0
4, 115320, Note_on_c, 2, 41, 90
4, 115379, Note_on_c, 2, 41, 0
4, 115380, Note_on_c, 2, 43, 90
4, 115439, Note_on_c, 2, 43, 0
4, 115440, Note_on_c, 2, 45, 90
4, 115559, Note_on_c, 2, 45, 0
4, 115560, Note_on_c, 2, 41, 90
4, 115679, Note_on_c, 2, 41, 0
4, 115680, Note_on_c, 2, 43, 90
4, 115919, Note_on_c, 2, 43, 0
4, 116040, Note_on_c, 2, 47, 90
4, 116159, Note_on_c, 2, 47, 0
4, 116160, Note_on_c, 2, 48, 90
4, 116219, Note_on_c, 2, 48, 0
4, 116220, Note_on_c, 2, 50, 90
4, 116279, Note_on_c, 2, 50, 0
4, 116280, Note_on_c, 2, 52, 90
4, 116339, Note_on_c, 2, 52, 0
4, 116340, Note_on_c, 2, 53, 90
4, 116399, Note_on_c, 2, 53, 0
4, 116400, Note_on_c, 2, 55, 90
4, 116459, Note_on_c, 2, 55, 0
4, 116460, Note_on_c, 2, 57, 90
4, 116519, Note_on_c, 2, 57, 0
4, 116520, Note_on_c, 2, 55, 90
4, 116579, Note_on_c, 2, 55, 0
4, 116580, Note_on_c, 2, 53, 90
4, 116639, Note_on_c, 2, 53, 0
4, 116640, Note_on_c, 2, 52, 90
4, 116699, Note_on_c, 2, 52, 0
4, 116700, Note_on_c, 2, 53, 90
4, 116759, Note_on_c, 2, 53, 0
4, 116760, Note_on_c, 2, 52, 90
4, 116819, Note_on_c, 2, 52, 0
4, 116820, Note_on_c, 2, 50, 90
4, 116879, Note_on_c, 2, 50, 0
4, 116880, Note_on_c, 2, 48, 90
4, 116939, Note_on_c, 2, 48, 0
4, 116940, Note_on_c, 2, 47, 90
4, 116999, Note_on_c, 2, 47, 0
4, 117000, Note_on_c, 2, 45, 90
4, 117059, Note_on_c, 2, 45, 0
4, 117060, Note_on_c, 2, 43, 90
4, 117119, Note_on_c, 2, 43, 0
4, 117120, Note_on_c, 2, 42, 90
4, 117239, Note_on_c, 2, 42, 0
4, 117240, Note_on_c, 2, 50, 90
4, 117359, Note_on_c, 2, 50, 0
4, 117360, Note_on_c, 2, 40, 90
4, 117479, Note_on_c, 2, 40, 0
4, 117480, Note_on_c, 2, 48, 90
4, 117599, Note_on_c, 2, 48, 0
4, 117600, Note_on_c, 2, 38, 90
4, 117719, Note_on_c, 2, 38, 0
4, 117720, Note_on_c, 2, 47, 90
4, 117839, Note_on_c, 2, 47, 0
4, 117840, Note_on_c, 2, 36, 90
4, 117959, Note_on_c, 2, 36, 0
4, 117960, Note_on_c, 2, 48, 90
4, 118079, Note_on_c, 2, 48, 0
4, 118080, Note_on_c, 2, 47, 90
4, 118199, Note_on_c, 2, 47, 0
4, 118200, Note_on_c, 2, 43, 90
4, 118319, Note_on_c, 2, 43, 0
4, 118320, Note_on_c, 2, 55, 90
4, 118439, Note_on_c, 2, 55, 0
4, 118440, Note_on_c, 2, 50, 90
4, 118559, Note_on_c, 2, 50, 0
4, 118560, Note_on_c, 2, 47, 90
4, 118679, Note_on_c, 2, 47, 0
4, 118680, Note_on_c, 2, 45, 90
4, 118739, Note_on_c, 2, 45, 0
4, 118740, Note_on_c, 2, 43, 90
4, 118799, Note_on_c, 2, 43, 0
4, 118800, Note_on_c, 2, 50, 90
4, 118919, Note_on_c, 2, 50, 0
4, 118920, Note_on_c, 2, 50, 90
4, 119039, Note_on_c, 2, 50, 0
4, 119040, Note_on_c, 2, 50, 90
4, 119159, Note_on_c, 2, 50, 0
4, 119160, Note_on_c, 2, 48, 90
4, 119219, Note_on_c, 2, 48, 0
4, 119220, Note_on_c, 2, 47, 90
4, 119279, Note_on_c, 2, 47, 0
4, 119280, Note_on_c, 2, 48, 90
4, 119339, Note_on_c, 2, 48, 0
4, 119340, Note_on_c, 2, 50, 90
4, 119399, Note_on_c, 2, 50, 0
4, 119400, Note_on_c, 2, 52, 90
4, 119519, Note_on_c, 2, 52, 0
4, 119520, Note_on_c, 2, 52, 90
4, 119639, Note_on_c, 2, 52, 0
4, 119640, Note_on_c, 2, 45, 90
4, 119759, Note_on_c, 2, 45, 0
4, 119760, Note_on_c, 2, 45, 90
4, 119879, Note_on_c, 2, 45, 0
4, 119880, Note_on_c, 2, 48, 90
4, 120119, Note_on_c, 2, 48, 0
4, 120120, Note_on_c, 2, 47, 90
4, 120179, Note_on_c, 2, 47, 0
4, 120180, Note_on_c, 2, 45, 90
4, 120239, Note_on_c, 2, 45, 0
4, 120240, Note_on_c, 2, 47, 90
4, 120299, Note_on_c, 2, 47, 0
4, 120300, Note_on_c, 2, 48, 90
4, 120359, Note_on_c, 2, 48, 0
4, 120360, Note_on_c, 2, 50, 90
4, 120479, Note_on_c, 2, 50, 0
4, 120480, Note_on_c, 2, 50, 90
4, 120599, Note_on_c, 2, 50, 0
4, 120600, Note_on_c, 2, 43, 90
4, 120719, Note_on_c, 2, 43, 0
4, 120720, Note_on_c, 2, 43, 90
4, 120839, Note_on_c, 2, 43, 0
4, 120840, Note_on_c, 2, 55, 90
4, 121079, Note_on_c, 2, 55, 0
4, 121080, Note_on_c, 2, 54, 90
4, 121319, Note_on_c, 2, 54, 0
4, 121320, Note_on_c, 2, 52, 90
4, 121559, Note_on_c, 2, 52, 0
4, 121560, Note_on_c, 2, 50, 90
4, 121619, Note_on_c, 2, 50, 0
4, 121620, Note_on_c, 2, 49, 90
4, 121679, Note_on_c, 2, 49, 0
4, 121680, Note_on_c, 2, 47, 90
4, 121739, Note_on_c, 2, 47, 0
4, 121740, Note_on_c, 2, 45, 90
4, 121799, Note_on_c, 2, 45, 0
4, 121800, Note_on_c, 2, 47, 90
4, 121859, Note_on_c, 2, 47, 0
4, 121860, Note_on_c, 2, 49, 90
4, 121919, Note_on_c, 2, 49, 0
4, 121920, Note_on_c, 2, 50, 90
4, 121979, Note_on_c, 2, 50, 0
4, 121980, Note_on_c, 2, 52, 90
4, 122039, Note_on_c, 2, 52, 0
4, 122040, Note_on_c, 2, 54, 90
4, 122099, Note_on_c, 2, 54, 0
4, 122100, Note_on_c, 2, 55, 90
4, 122159, Note_on_c, 2, 55, 0
4, 122160, Note_on_c, 2, 57, 90
4, 122279, Note_on_c, 2, 57, 0
4, 122280, Note_on_c, 2, 45, 90
4, 122399, Note_on_c, 2, 45, 0
4, 122400, Note_on_c, 2, 50, 90
4, 122639, Note_on_c, 2, 50, 0
4, 122880, Note_on_c, 2, 54, 90
4, 123119, Note_on_c, 2, 54, 0
4, 123360, Note_on_c, 2, 57, 90
4, 123599, Note_on_c, 2, 57, 0
4, 123960, Note_on_c, 2, 62, 90
4, 124079, Note_on_c, 2, 62, 0
4, 124080, Note_on_c, 2, 54, 90
4, 124199, Note_on_c, 2, 54, 0
4, 124200, Note_on_c, 2, 50, 90
4, 124319, Note_on_c, 2, 50, 0
4, 124320, Note_on_c, 2, 55, 90
4, 124559, Note_on_c, 2, 55, 0
4, 124800, Note_on_c, 2, 43, 90
4, 125039, Note_on_c, 2, 43, 0
4, 125280, Note_on_c, 2, 44, 90
4, 125519, Note_on_c, 2, 44, 0
4, 125880, Note_on_c, 2, 52, 90
4, 125999, Note_on_c, 2, 52, 0
4, 126000, Note_on_c, 2, 44, 90
4, 126119, Note_on_c, 2, 44, 0
4, 126120, Note_on_c, 2, 40, 90
4, 126239, Note_on_c, 2, 40, 0
4, 126240, Note_on_c, 2, 45, 90
4, 126299, Note_on_c, 2, 45, 0
4, 126300, Note_on_c, 2, 52, 90
4, 126359, Note_on_c, 2, 52, 0
4, 126360, Note_on_c, 2, 57, 90
4, 126419, Note_on_c, 2, 57, 0
4, 126420, Note_on_c, 2, 55, 90
4, 126479, Note_on_c, 2, 55, 0
4, 126480, Note_on_c, 2, 54, 90
4, 126539, Note_on_c, 2, 54, 0
4, 126540, Note_on_c, 2, 50, 90
4, 126599, Note_on_c, 2, 50, 0
4, 126600, Note_on_c, 2, 55, 90
4, 126659, Note_on_c, 2, 55, 0
4, 126660, Note_on_c, 2, 54, 90
4, 126719, Note_on_c, 2, 54, 0
4, 126720, Note_on_c, 2, 52, 90
4, 126779, Note_on_c, 2, 52, 0
4, 126780, Note_on_c, 2, 50, 90
4, 126839, Note_on_c, 2, 50, 0
4, 126840, Note_on_c, 2, 52, 90
4, 126899, Note_on_c, 2, 52, 0
4, 126900, Note_on_c, 2, 48, 90
4, 126959, Note_on_c, 2, 48, 0
4, 126960, Note_on_c, 2, 50, 90
4, 127019, Note_on_c, 2, 50, 0
4, 127020, Note_on_c, 2, 52, 90
4, 127079, Note_on_c, 2, 52, 0
4, 127080, Note_on_c, 2, 54, 90
4, 127139, Note_on_c, 2, 54, 0
4, 127140, Note_on_c, 2, 50, 90
4, 127199, Note_on_c, 2, 50, 0
4, 127200, Note_on_c, 2, 55, 90
4, 127259, Note_on_c, 2, 55, 0
4, 127260, Note_on_c, 2, 57, 90
4, 127319, Note_on_c, 2, 57, 0
4, 127320, Note_on_c, 2, 59, 90
4, 127379, Note_on_c, 2, 59, 0
4, 127380, Note_on_c, 2, 60, 90
4, 127439, Note_on_c, 2, 60, 0
4, 127440, Note_on_c, 2, 62, 90
4, 127499, Note_on_c, 2, 62, 0
4, 127500, Note_on_c, 2, 57, 90
4, 127559, Note_on_c, 2, 57, 0
4, 127560, Note_on_c, 2, 62, 90
4, 127619, Note_on_c, 2, 62, 0
4, 127620, Note_on_c, 2, 61, 90
4, 127679, Note_on_c, 2, 61, 0
4, 127680, Note_on_c, 2, 59, 90
4, 127739, Note_on_c, 2, 59, 0
4, 127740, Note_on_c, 2, 57, 90
4, 127799, Note_on_c, 2, 57, 0
4, 127800, Note_on_c, 2, 59, 90
4, 127859, Note_on_c, 2, 59, 0
4, 127860, Note_on_c, 2, 55, 90
4, 127919, Note_on_c, 2, 55, 0
4, 127920, Note_on_c, 2, 57, 90
4, 127979, Note_on_c, 2, 57, 0
4, 127980, Note_on_c, 2, 59, 90
4, 128039, Note_on_c, 2, 59, 0
4, 128040, Note_on_c, 2, 61, 90
4, 128099, Note_on_c, 2, 61, 0
4, 128100, Note_on_c, 2, 57, 90
4, 128159, Note_on_c, 2, 57, 0
4, 128160, Note_on_c, 2, 50, 90
4, 128219, Note_on_c, 2, 50, 0
4, 128220, Note_on_c, 2, 52, 90
4, 128279, Note_on_c, 2, 52, 0
4, 128280, Note_on_c, 2, 54, 90
4, 128339, Note_on_c, 2, 54, 0
4, 128340, Note_on_c, 2, 55, 90
4, 128399, Note_on_c, 2, 55, 0
4, 128400, Note_on_c, 2, 57, 90
4, 128459, Note_on_c, 2, 57, 0
4, 128460, Note_on_c, 2, 52, 90
4, 128519, Note_on_c, 2, 52, 0
4, 128520, Note_on_c, 2, 57, 90
4, 128579, Note_on_c, 2, 57, 0
4, 128580, Note_on_c, 2, 55, 90
4, 128639, Note_on_c, 2, 55, 0
4, 128640, Note_on_c, 2, 53, 90
4, 128699, Note_on_c, 2, 53, 0
4, 128700, Note_on_c, 2, 52, 90
4, 128759, Note_on_c, 2, 52, 0
4, 128760, Note_on_c, 2, 53, 90
4, 128819, Note_on_c, 2, 53, 0
4, 128820, Note_on_c, 2, 50, 90
4, 128879, Note_on_c, 2, 50, 0
4, 128880, Note_on_c, 2, 52, 90
4, 128939, Note_on_c, 2, 52, 0
4, 128940, Note_on_c, 2, 54, 90
4, 128999, Note_on_c, 2, 54, 0
4, 129000, Note_on_c, 2, 56, 90
4, 129059, Note_on_c, 2, 56, 0
4, 129060, Note_on_c, 2, 52, 90
4, 129119, Note_on_c, 2, 52, 0
4, 129120, Note_on_c, 2, 57, 90
4, 129179, Note_on_c, 2, 57, 0
4, 129180, Note_on_c, 2, 59, 90
4, 129239, Note_on_c, 2, 59, 0
4, 129240, Note_on_c, 2, 60, 90
4, 129299, Note_on_c, 2, 60, 0
4, 129300, Note_on_c, 2, 62, 90
4, 129359, Note_on_c, 2, 62, 0
4, 129360, Note_on_c, 2, 64, 90
4, 129419, Note_on_c, 2, 64, 0
4, 129420, Note_on_c, 2, 59, 90
4, 129479, Note_on_c, 2, 59, 0
4, 129480, Note_on_c, 2, 64, 90
4, 129539, Note_on_c, 2, 64, 0
4, 129540, Note_on_c, 2, 62, 90
4, 129599, Note_on_c, 2, 62, 0
4, 129600, Note_on_c, 2, 60, 90
4, 129659, Note_on_c, 2, 60, 0
4, 129660, Note_on_c, 2, 59, 90
4, 129719, Note_on_c, 2, 59, 0
4, 129720, Note_on_c, 2, 60, 90
4, 129779, Note_on_c, 2, 60, 0
4, 129780, Note_on_c, 2, 57, 90
4, 129839, Note_on_c, 2, 57, 0
4, 129840, Note_on_c, 2, 59, 90
4, 129899, Note_on_c, 2, 59, 0
4, 129900, Note_on_c, 2, 61, 90
4, 129959, Note_on_c, 2, 61, 0
4, 129960, Note_on_c, 2, 63, 90
4, 130019, Note_on_c, 2, 63, 0
4, 130020, Note_on_c, 2, 59, 90
4, 130079, Note_on_c, 2, 59, 0
4, 130080, Note_on_c, 2, 52, 90
4, 130139, Note_on_c, 2, 52, 0
4, 130140, Note_on_c, 2, 54, 90
4, 130199, Note_on_c, 2, 54, 0
4, 130200, Note_on_c, 2, 55, 90
4, 130259, Note_on_c, 2, 55, 0
4, 130260, Note_on_c, 2, 57, 90
4, 130319, Note_on_c, 2, 57, 0
4, 130320, Note_on_c, 2, 59, 90
4, 130379, Note_on_c, 2, 59, 0
4, 130380, Note_on_c, 2, 54, 90
4, 130439, Note_on_c, 2, 54, 0
4, 130440, Note_on_c, 2, 59, 90
4, 130499, Note_on_c, 2, 59, 0
4, 130500, Note_on_c, 2, 57, 90
4, 130559, Note_on_c, 2, 57, 0
4, 130560, Note_on_c, 2, 56, 90
4, 130619, Note_on_c, 2, 56, 0
4, 130620, Note_on_c, 2, 52, 90
4, 130679, Note_on_c, 2, 52, 0
4, 130680, Note_on_c, 2, 57, 90
4, 130739, Note_on_c, 2, 57, 0
4, 130740, Note_on_c, 2, 55, 90
4, 130799, Note_on_c, 2, 55, 0
4, 130800, Note_on_c, 2, 54, 90
4, 130859, Note_on_c, 2, 54, 0
4, 130860, Note_on_c, 2, 50, 90
4, 130919, Note_on_c, 2, 50, 0
4, 130920, Note_on_c, 2, 55, 90
4, 130979, Note_on_c, 2, 55, 0
4, 130980, Note_on_c, 2, 54, 90
4, 131039, Note_on_c, 2, 54, 0
4, 131040, Note_on_c, 2, 52, 90
4, 131159, Note_on_c, 2, 52, 0
4, 131160, Note_on_c, 2, 50, 90
4, 131279, Note_on_c, 2, 50, 0
4, 131280, Note_on_c, 2, 52, 90
4, 131399, Note_on_c, 2, 52, 0
4, 131400, Note_on_c, 2, 48, 90
4, 131519, Note_on_c, 2, 48, 0
4, 131520, Note_on_c, 2, 50, 90
4, 131639, Note_on_c, 2, 50, 0
4, 131640, Note_on_c, 2, 48, 90
4, 131759, Note_on_c, 2, 48, 0
4, 131760, Note_on_c, 2, 47, 90
4, 131879, Note_on_c, 2, 47, 0
4, 131880, Note_on_c, 2, 45, 90
4, 131999, Note_on_c, 2, 45, 0
4, 132000, Note_on_c, 2, 43, 90
4, 132119, Note_on_c, 2, 43, 0
4, 132120, Note_on_c, 2, 47, 90
4, 132239, Note_on_c, 2, 47, 0
4, 132240, Note_on_c, 2, 50, 90
4, 132359, Note_on_c, 2, 50, 0
4, 132360, Note_on_c, 2, 55, 90
4, 132479, Note_on_c, 2, 55, 0
4, 132480, Note_on_c, 2, 54, 90
4, 132599, Note_on_c, 2, 54, 0
4, 132600, Note_on_c, 2, 52, 90
4, 132719, Note_on_c, 2, 52, 0
4, 132720, Note_on_c, 2, 50, 90
4, 132839, Note_on_c, 2, 50, 0
4, 132840, Note_on_c, 2, 48, 90
4, 132959, Note_on_c, 2, 48, 0
4, 132960, Note_on_c, 2, 47, 90
4, 133079, Note_on_c, 2, 47, 0
4, 133080, Note_on_c, 2, 50, 90
4, 133199, Note_on_c, 2, 50, 0
4, 133200, Note_on_c, 2, 55, 90
4, 133319, Note_on_c, 2, 55, 0
4, 133320, Note_on_c, 2, 43, 90
4, 133439, Note_on_c, 2, 43, 0
4, 133440, Note_on_c, 2, 50, 90
4, 133499, Note_on_c, 2, 50, 0
4, 133500, Note_on_c, 2, 52, 90
4, 133559, Note_on_c, 2, 52, 0
4, 133560, Note_on_c, 2, 50, 90
4, 133619, Note_on_c, 2, 50, 0
4, 133620, Note_on_c, 2, 48, 90
4, 133679, Note_on_c, 2, 48, 0
4, 133680, Note_on_c, 2, 47, 90
4, 133739, Note_on_c, 2, 47, 0
4, 133740, Note_on_c, 2, 45, 90
4, 133799, Note_on_c, 2, 45, 0
4, 133800, Note_on_c, 2, 43, 90
4, 133859, Note_on_c, 2, 43, 0
4, 133860, Note_on_c, 2, 42, 90
4, 133919, Note_on_c, 2, 42, 0
4, 133920, Note_on_c, 2, 43, 90
4, 134039, Note_on_c, 2, 43, 0
4, 134040, Note_on_c, 2, 47, 90
4, 134159, Note_on_c, 2, 47, 0
4, 134160, Note_on_c, 2, 40, 90
4, 134279, Note_on_c, 2, 40, 0
4, 134280, Note_on_c, 2, 43, 90
4, 134399, Note_on_c, 2, 43, 0
4, 134400, Note_on_c, 2, 42, 90
4, 134519, Note_on_c, 2, 42, 0
4, 134520, Note_on_c, 2, 45, 90
4, 134639, Note_on_c, 2, 45, 0
4, 134640, Note_on_c, 2, 38, 90
4, 134759, Note_on_c, 2, 38, 0
4, 134760, Note_on_c, 2, 42, 90
4, 134879, Note_on_c, 2, 42, 0
4, 134880, Note_on_c, 2, 40, 90
4, 134999, Note_on_c, 2, 40, 0
4, 135000, Note_on_c, 2, 43, 90
4, 135119, Note_on_c, 2, 43, 0
4, 135120, Note_on_c, 2, 45, 90
4, 135239, Note_on_c, 2, 45, 0
4, 135240, Note_on_c, 2, 33, 90
4, 135359, Note_on_c, 2, 33, 0
4, 135360, Note_on_c, 2, 38, 90
4, 135479, Note_on_c, 2, 38, 0
4, 135480, Note_on_c, 2, 50, 90
4, 135539, Note_on_c, 2, 50, 0
4, 135540, Note_on_c, 2, 48, 90
4, 135599, Note_on_c, 2, 48, 0
4, 135600, Note_on_c, 2, 50, 90
4, 135719, Note_on_c, 2, 50, 0
4, 135720, Note_on_c, 2, 38, 90
4, 135839, Note_on_c, 2, 38, 0
4, 135840, Note_on_c, 2, 43, 90
4, 135959, Note_on_c, 2, 43, 0
4, 135960, Note_on_c, 2, 47, 90
4, 136019, Note_on_c, 2, 47, 0
4, 136020, Note_on_c, 2, 45, 90
4, 136079, Note_on_c, 2, 45, 0
4, 136080, Note_on_c, 2, 43, 90
4, 136199, Note_on_c, 2, 43, 0
4, 136200, Note_on_c, 2, 47, 90
4, 136259, Note_on_c, 2, 47, 0
4, 136260, Note_on_c, 2, 45, 90
4, 136319, Note_on_c, 2, 45, 0
4, 136320, Note_on_c, 2, 43, 90
4, 136439, Note_on_c, 2, 43, 0
4, 136440, Note_on_c, 2, 47, 90
4, 136499, Note_on_c, 2, 47, 0
4, 136500, Note_on_c, 2, 45, 90
4, 136559, Note_on_c, 2, 45, 0
4, 136560, Note_on_c, 2, 43, 90
4, 136619, Note_on_c, 2, 43, 0
4, 136620, Note_on_c, 2, 45, 90
4, 136679, Note_on_c, 2, 45, 0
4, 136680, Note_on_c, 2, 47, 90
4, 136739, Note_on_c, 2, 47, 0
4, 136740, Note_on_c, 2, 43, 90
4, 136799, Note_on_c, 2, 43, 0
4, 136800, Note_on_c, 2, 48, 90
4, 137039, Note_on_c, 2, 48, 0
4, 137160, Note_on_c, 2, 45, 90
4, 137279, Note_on_c, 2, 45, 0
4, 137280, Note_on_c, 2, 42, 90
4, 137519, Note_on_c, 2, 42, 0
4, 137640, Note_on_c, 2, 45, 90
4, 137759, Note_on_c, 2, 45, 0
4, 137760, Note_on_c, 2, 47, 90
4, 137999, Note_on_c, 2, 47, 0
4, 138120, Note_on_c, 2, 43, 90
4, 138239, Note_on_c, 2, 43, 0
4, 138240, Note_on_c, 2, 40, 90
4, 138479, Note_on_c, 2, 40, 0
4, 138540, Note_on_c, 2, 48, 90
4, 138599, Note_on_c, 2, 48, 0
4, 138600, Note_on_c, 2, 47, 90
4, 138659, Note_on_c, 2, 47, 0
4, 138660, Note_on_c, 2, 45, 90
4, 138719, Note_on_c, 2, 45, 0
4, 138720, Note_on_c, 2, 43, 90
4, 138779, Note_on_c, 2, 43, 0
4, 138780, Note_on_c, 2, 45, 90
4, 138839, Note_on_c, 2, 45, 0
4, 138840, Note_on_c, 2, 47, 90
4, 138899, Note_on_c, 2, 47, 0
4, 138900, Note_on_c, 2, 48, 90
4, 138959, Note_on_c, 2, 48, 0
4, 138960, Note_on_c, 2, 50, 90
4, 139079, Note_on_c, 2, 50, 0
4, 139080, Note_on_c, 2, 38, 90
4, 139199, Note_on_c, 2, 38, 0
4, 139200, Note_on_c, 2, 43, 90
4, 139559, Note_on_c, 2, 43, 0
4, 139559, End_track
5, 0, Start_track
5, 0, MIDI_port, 0
5, 0, Title_t, "J.S.BACH"
5, 0, End_track
6, 0, Start_track
6, 0, MIDI_port, 0
6, 0, Title_t, "BWV 1027"
6, 0, End_track
7, 0, Start_track
7, 0, MIDI_port, 0
7, 0, Title_t, "SONATA FOR VIOLA DA GAMBA"
7, 0, End_track
8, 0, Start_track
8, 0, MIDI_port, 0
8, 0, Title_t, "AND HARPSICHORD"
8, 0, End_track
9, 0, Start_track
9, 0, MIDI_port, 0
9, 0, Title_t, "N1 IN G MAJOR"
9, 0, End_track
10, 0, Start_track
10, 0, MIDI_port, 0
10, 0, Title_t, "SECUENCED BY"
10, 0, End_track
11, 0, Start_track
11, 0, MIDI_port, 0
11, 0, Title_t, "MARCELO COPIA M"
11, 0, End_track
12, 0, Start_track
12, 0, MIDI_port, 0
12, 0, Title_t, "mcopia@entelchile.net"
12, 0, End_track
0, 0, End_of_file
