0, 0, Header, 1, 12, 240
1, 0, Start_track
1, 0, Title_t, "untitled"
1, 0, SMPTE_offset, 96, 0, 3, 0, 0
1, 0, Time_signature, 3, 2, 24, 8
1, 0, Key_signature, 0, "major"
1, 0, Tempo, 606061
1, 98880, Tempo, 697674
1, 99120, Tempo, 821918
1, 99120, End_track
2, 0, Start_track
2, 0, MIDI_port, 0
2, 0, Title_t, "Trumpets"
2, 0, Program_c, 0, 63
2, 0, Control_c, 0, 7, 99
2, 0, Control_c, 0, 10, 64
2, 0, Note_on_c, 0, 66, 107
2, 0, Note_on_c, 0, 69, 107
2, 0, Note_on_c, 0, 74, 107
2, 96, Note_on_c, 0, 74, 0
2, 96, Note_on_c, 0, 69, 0
2, 96, Note_on_c, 0, 66, 0
2, 480, Note_on_c, 0, 74, 107
2, 480, Note_on_c, 0, 69, 107
2, 480, Note_on_c, 0, 66, 107
2, 576, Note_on_c, 0, 66, 0
2, 576, Note_on_c, 0, 69, 0
2, 576, Note_on_c, 0, 74, 0
2, 720, Note_on_c, 0, 78, 107
2, 720, Note_on_c, 0, 74, 107
2, 720, Note_on_c, 0, 69, 107
2, 816, Note_on_c, 0, 69, 0
2, 816, Note_on_c, 0, 74, 0
2, 816, Note_on_c, 0, 78, 0
2, 1200, Note_on_c, 0, 78, 107
2, 1200, Note_on_c, 0, 74, 107
2, 1200, Note_on_c, 0, 69, 107
2, 1296, Note_on_c, 0, 69, 0
2, 1296, Note_on_c, 0, 74, 0
2, 1296, Note_on_c, 0, 78, 0
2, 1440, Note_on_c, 0, 74, 107
2, 1440, Note_on_c, 0, 78, 107
2, 1440, Note_on_c, 0, 81, 107
2, 1536, Note_on_c, 0, 81, 0
2, 1536, Note_on_c, 0, 78, 0
2, 1536, Note_on_c, 0, 74, 0
2, 2280, Note_on_c, 0, 74, 107
2, 2328, Note_on_c, 0, 74, 0
2, 2340, Note_on_c, 0, 74, 107
2, 2388, Note_on_c, 0, 74, 0
2, 2400, Note_on_c, 0, 74, 107
2, 2496, Note_on_c, 0, 74, 0
2, 2520, Note_on_c, 0, 69, 107
2, 2616, Note_on_c, 0, 69, 0
2, 2640, Note_on_c, 0, 66, 107
2, 2736, Note_on_c, 0, 66, 0
2, 2760, Note_on_c, 0, 69, 107
2, 2856, Note_on_c, 0, 69, 0
2, 2880, Note_on_c, 0, 62, 107
2, 2976, Note_on_c, 0, 62, 0
2, 3720, Note_on_c, 0, 62, 107
2, 3768, Note_on_c, 0, 62, 0
2, 3780, Note_on_c, 0, 62, 107
2, 3828, Note_on_c, 0, 62, 0
2, 3840, Note_on_c, 0, 66, 107
2, 3936, Note_on_c, 0, 66, 0
2, 3960, Note_on_c, 0, 62, 107
2, 4056, Note_on_c, 0, 62, 0
2, 4080, Note_on_c, 0, 66, 107
2, 4176, Note_on_c, 0, 66, 0
2, 4200, Note_on_c, 0, 69, 107
2, 4296, Note_on_c, 0, 69, 0
2, 4320, Note_on_c, 0, 69, 107
2, 4320, Note_on_c, 0, 74, 107
2, 4320, Note_on_c, 0, 66, 107
2, 4416, Note_on_c, 0, 66, 0
2, 4416, Note_on_c, 0, 74, 0
2, 4416, Note_on_c, 0, 69, 0
2, 4560, Note_on_c, 0, 62, 107
2, 4560, Note_on_c, 0, 66, 107
2, 4560, Note_on_c, 0, 69, 107
2, 4656, Note_on_c, 0, 69, 0
2, 4656, Note_on_c, 0, 66, 0
2, 4656, Note_on_c, 0, 62, 0
2, 5040, Note_on_c, 0, 74, 107
2, 5040, Note_on_c, 0, 69, 107
2, 5040, Note_on_c, 0, 78, 107
2, 5136, Note_on_c, 0, 78, 0
2, 5136, Note_on_c, 0, 69, 0
2, 5136, Note_on_c, 0, 74, 0
2, 5280, Note_on_c, 0, 66, 107
2, 5280, Note_on_c, 0, 69, 107
2, 5280, Note_on_c, 0, 74, 107
2, 5376, Note_on_c, 0, 74, 0
2, 5376, Note_on_c, 0, 69, 0
2, 5376, Note_on_c, 0, 66, 0
2, 5760, Note_on_c, 0, 74, 107
2, 5760, Note_on_c, 0, 78, 107
2, 5760, Note_on_c, 0, 81, 107
2, 5856, Note_on_c, 0, 81, 0
2, 5856, Note_on_c, 0, 78, 0
2, 5856, Note_on_c, 0, 74, 0
2, 6000, Note_on_c, 0, 69, 107
2, 6000, Note_on_c, 0, 78, 107
2, 6000, Note_on_c, 0, 74, 107
2, 6096, Note_on_c, 0, 74, 0
2, 6096, Note_on_c, 0, 78, 0
2, 6096, Note_on_c, 0, 69, 0
2, 7200, Note_on_c, 0, 74, 107
2, 7200, Note_on_c, 0, 78, 107
2, 7200, Note_on_c, 0, 69, 107
2, 7296, Note_on_c, 0, 69, 0
2, 7296, Note_on_c, 0, 78, 0
2, 7296, Note_on_c, 0, 74, 0
2, 7440, Note_on_c, 0, 69, 107
2, 7440, Note_on_c, 0, 74, 107
2, 7440, Note_on_c, 0, 66, 107
2, 7536, Note_on_c, 0, 66, 0
2, 7536, Note_on_c, 0, 74, 0
2, 7536, Note_on_c, 0, 69, 0
2, 11760, Note_on_c, 0, 66, 107
2, 11760, Note_on_c, 0, 69, 107
2, 11760, Note_on_c, 0, 74, 107
2, 11856, Note_on_c, 0, 74, 0
2, 11856, Note_on_c, 0, 69, 0
2, 11856, Note_on_c, 0, 66, 0
2, 12000, Note_on_c, 0, 69, 107
2, 12000, Note_on_c, 0, 62, 107
2, 12000, Note_on_c, 0, 66, 107
2, 12096, Note_on_c, 0, 66, 0
2, 12096, Note_on_c, 0, 62, 0
2, 12096, Note_on_c, 0, 69, 0
2, 12480, Note_on_c, 0, 74, 107
2, 12480, Note_on_c, 0, 69, 107
2, 12480, Note_on_c, 0, 78, 107
2, 12576, Note_on_c, 0, 78, 0
2, 12576, Note_on_c, 0, 69, 0
2, 12576, Note_on_c, 0, 74, 0
2, 12720, Note_on_c, 0, 74, 107
2, 12720, Note_on_c, 0, 69, 107
2, 12720, Note_on_c, 0, 66, 107
2, 12816, Note_on_c, 0, 66, 0
2, 12816, Note_on_c, 0, 69, 0
2, 12816, Note_on_c, 0, 74, 0
2, 12960, Note_on_c, 0, 81, 107
2, 12960, Note_on_c, 0, 74, 107
2, 12960, Note_on_c, 0, 78, 107
2, 13056, Note_on_c, 0, 78, 0
2, 13056, Note_on_c, 0, 74, 0
2, 13056, Note_on_c, 0, 81, 0
2, 20160, Note_on_c, 0, 78, 107
2, 20160, Note_on_c, 0, 74, 107
2, 20160, Note_on_c, 0, 81, 107
2, 20256, Note_on_c, 0, 81, 0
2, 20256, Note_on_c, 0, 74, 0
2, 20256, Note_on_c, 0, 78, 0
2, 20400, Note_on_c, 0, 74, 107
2, 20400, Note_on_c, 0, 69, 107
2, 20400, Note_on_c, 0, 78, 107
2, 20496, Note_on_c, 0, 78, 0
2, 20496, Note_on_c, 0, 69, 0
2, 20496, Note_on_c, 0, 74, 0
2, 20880, Note_on_c, 0, 74, 107
2, 20880, Note_on_c, 0, 78, 107
2, 20880, Note_on_c, 0, 69, 107
2, 20976, Note_on_c, 0, 69, 0
2, 20976, Note_on_c, 0, 78, 0
2, 20976, Note_on_c, 0, 74, 0
2, 21120, Note_on_c, 0, 66, 107
2, 21120, Note_on_c, 0, 74, 107
2, 21120, Note_on_c, 0, 69, 107
2, 21216, Note_on_c, 0, 69, 0
2, 21216, Note_on_c, 0, 74, 0
2, 21216, Note_on_c, 0, 66, 0
2, 21600, Note_on_c, 0, 66, 107
2, 21600, Note_on_c, 0, 74, 107
2, 21600, Note_on_c, 0, 69, 107
2, 21696, Note_on_c, 0, 69, 0
2, 21696, Note_on_c, 0, 74, 0
2, 21696, Note_on_c, 0, 66, 0
2, 21840, Note_on_c, 0, 62, 107
2, 21840, Note_on_c, 0, 66, 107
2, 21840, Note_on_c, 0, 69, 107
2, 21936, Note_on_c, 0, 69, 0
2, 21936, Note_on_c, 0, 66, 0
2, 21936, Note_on_c, 0, 62, 0
2, 22320, Note_on_c, 0, 66, 107
2, 22320, Note_on_c, 0, 57, 107
2, 22320, Note_on_c, 0, 62, 107
2, 22416, Note_on_c, 0, 62, 0
2, 22416, Note_on_c, 0, 57, 0
2, 22416, Note_on_c, 0, 66, 0
2, 22560, Note_on_c, 0, 62, 107
2, 22560, Note_on_c, 0, 54, 107
2, 22560, Note_on_c, 0, 57, 107
2, 22656, Note_on_c, 0, 57, 0
2, 22656, Note_on_c, 0, 54, 0
2, 22656, Note_on_c, 0, 62, 0
2, 36240, Note_on_c, 0, 74, 107
2, 36240, Note_on_c, 0, 83, 107
2, 36240, Note_on_c, 0, 66, 107
2, 36336, Note_on_c, 0, 66, 0
2, 36336, Note_on_c, 0, 83, 0
2, 36336, Note_on_c, 0, 74, 0
2, 36480, Note_on_c, 0, 66, 107
2, 36480, Note_on_c, 0, 78, 107
2, 36480, Note_on_c, 0, 74, 107
2, 36576, Note_on_c, 0, 74, 0
2, 36576, Note_on_c, 0, 78, 0
2, 36576, Note_on_c, 0, 66, 0
2, 36960, Note_on_c, 0, 83, 107
2, 36960, Note_on_c, 0, 78, 107
2, 36960, Note_on_c, 0, 66, 107
2, 37056, Note_on_c, 0, 66, 0
2, 37056, Note_on_c, 0, 78, 0
2, 37056, Note_on_c, 0, 83, 0
2, 37200, Note_on_c, 0, 74, 107
2, 37200, Note_on_c, 0, 66, 107
2, 37200, Note_on_c, 0, 78, 107
2, 37296, Note_on_c, 0, 78, 0
2, 37296, Note_on_c, 0, 66, 0
2, 37296, Note_on_c, 0, 74, 0
2, 39120, Note_on_c, 0, 81, 107
2, 39120, Note_on_c, 0, 85, 107
2, 39120, Note_on_c, 0, 69, 107
2, 39216, Note_on_c, 0, 69, 0
2, 39216, Note_on_c, 0, 85, 0
2, 39216, Note_on_c, 0, 81, 0
2, 39360, Note_on_c, 0, 76, 107
2, 39360, Note_on_c, 0, 69, 107
2, 39360, Note_on_c, 0, 81, 107
2, 39456, Note_on_c, 0, 81, 0
2, 39456, Note_on_c, 0, 69, 0
2, 39456, Note_on_c, 0, 76, 0
2, 39840, Note_on_c, 0, 76, 107
2, 39840, Note_on_c, 0, 81, 107
2, 39840, Note_on_c, 0, 69, 107
2, 39936, Note_on_c, 0, 69, 0
2, 39936, Note_on_c, 0, 81, 0
2, 39936, Note_on_c, 0, 76, 0
2, 40080, Note_on_c, 0, 85, 107
2, 40080, Note_on_c, 0, 69, 107
2, 40080, Note_on_c, 0, 76, 107
2, 40176, Note_on_c, 0, 76, 0
2, 40176, Note_on_c, 0, 69, 0
2, 40176, Note_on_c, 0, 85, 0
2, 41760, Note_on_c, 0, 86, 107
2, 41760, Note_on_c, 0, 90, 107
2, 41760, Note_on_c, 0, 83, 107
2, 41856, Note_on_c, 0, 83, 0
2, 41856, Note_on_c, 0, 90, 0
2, 41856, Note_on_c, 0, 86, 0
2, 42000, Note_on_c, 0, 74, 107
2, 42000, Note_on_c, 0, 83, 107
2, 42000, Note_on_c, 0, 79, 107
2, 42096, Note_on_c, 0, 79, 0
2, 42096, Note_on_c, 0, 83, 0
2, 42096, Note_on_c, 0, 74, 0
2, 43200, Note_on_c, 0, 79, 107
2, 43200, Note_on_c, 0, 83, 107
2, 43200, Note_on_c, 0, 74, 107
2, 43296, Note_on_c, 0, 74, 0
2, 43296, Note_on_c, 0, 83, 0
2, 43296, Note_on_c, 0, 79, 0
2, 43440, Note_on_c, 0, 79, 107
2, 43440, Note_on_c, 0, 74, 107
2, 43440, Note_on_c, 0, 62, 107
2, 43536, Note_on_c, 0, 62, 0
2, 43536, Note_on_c, 0, 74, 0
2, 43536, Note_on_c, 0, 79, 0
2, 47760, Note_on_c, 0, 79, 107
2, 47760, Note_on_c, 0, 74, 107
2, 47760, Note_on_c, 0, 83, 107
2, 47856, Note_on_c, 0, 83, 0
2, 47856, Note_on_c, 0, 74, 0
2, 47856, Note_on_c, 0, 79, 0
2, 48000, Note_on_c, 0, 74, 107
2, 48000, Note_on_c, 0, 79, 107
2, 48000, Note_on_c, 0, 62, 107
2, 48096, Note_on_c, 0, 62, 0
2, 48096, Note_on_c, 0, 79, 0
2, 48096, Note_on_c, 0, 74, 0
2, 48480, Note_on_c, 0, 79, 107
2, 48480, Note_on_c, 0, 83, 107
2, 48480, Note_on_c, 0, 74, 107
2, 48576, Note_on_c, 0, 74, 0
2, 48576, Note_on_c, 0, 83, 0
2, 48576, Note_on_c, 0, 79, 0
2, 48720, Note_on_c, 0, 74, 107
2, 48720, Note_on_c, 0, 79, 107
2, 48720, Note_on_c, 0, 62, 107
2, 48816, Note_on_c, 0, 62, 0
2, 48816, Note_on_c, 0, 79, 0
2, 48816, Note_on_c, 0, 74, 0
2, 48960, Note_on_c, 0, 83, 107
2, 48960, Note_on_c, 0, 79, 107
2, 48960, Note_on_c, 0, 86, 107
2, 49056, Note_on_c, 0, 86, 0
2, 49056, Note_on_c, 0, 79, 0
2, 49056, Note_on_c, 0, 83, 0
2, 56160, Note_on_c, 0, 83, 107
2, 56160, Note_on_c, 0, 86, 107
2, 56160, Note_on_c, 0, 79, 107
2, 56256, Note_on_c, 0, 79, 0
2, 56256, Note_on_c, 0, 86, 0
2, 56256, Note_on_c, 0, 83, 0
2, 56400, Note_on_c, 0, 79, 107
2, 56400, Note_on_c, 0, 83, 107
2, 56400, Note_on_c, 0, 74, 107
2, 56496, Note_on_c, 0, 74, 0
2, 56496, Note_on_c, 0, 83, 0
2, 56496, Note_on_c, 0, 79, 0
2, 56880, Note_on_c, 0, 74, 107
2, 56880, Note_on_c, 0, 83, 107
2, 56880, Note_on_c, 0, 79, 107
2, 56976, Note_on_c, 0, 79, 0
2, 56976, Note_on_c, 0, 83, 0
2, 56976, Note_on_c, 0, 74, 0
2, 57120, Note_on_c, 0, 74, 107
2, 57120, Note_on_c, 0, 62, 107
2, 57120, Note_on_c, 0, 79, 107
2, 57216, Note_on_c, 0, 79, 0
2, 57216, Note_on_c, 0, 62, 0
2, 57216, Note_on_c, 0, 74, 0
2, 57600, Note_on_c, 0, 74, 107
2, 57600, Note_on_c, 0, 62, 107
2, 57600, Note_on_c, 0, 79, 107
2, 57696, Note_on_c, 0, 79, 0
2, 57696, Note_on_c, 0, 62, 0
2, 57696, Note_on_c, 0, 74, 0
2, 57840, Note_on_c, 0, 83, 107
2, 57840, Note_on_c, 0, 79, 107
2, 57840, Note_on_c, 0, 74, 107
2, 57936, Note_on_c, 0, 74, 0
2, 57936, Note_on_c, 0, 79, 0
2, 57936, Note_on_c, 0, 83, 0
2, 58320, Note_on_c, 0, 74, 107
2, 58320, Note_on_c, 0, 83, 107
2, 58416, Note_on_c, 0, 83, 0
2, 58416, Note_on_c, 0, 74, 0
2, 58560, Note_on_c, 0, 86, 107
2, 58560, Note_on_c, 0, 83, 107
2, 58656, Note_on_c, 0, 83, 0
2, 58656, Note_on_c, 0, 86, 0
2, 80760, Note_on_c, 0, 76, 107
2, 80760, Note_on_c, 0, 81, 107
2, 80760, Note_on_c, 0, 69, 107
2, 80856, Note_on_c, 0, 69, 0
2, 80856, Note_on_c, 0, 81, 0
2, 80856, Note_on_c, 0, 76, 0
2, 80880, Note_on_c, 0, 69, 107
2, 80880, Note_on_c, 0, 81, 107
2, 80880, Note_on_c, 0, 76, 107
2, 80976, Note_on_c, 0, 76, 0
2, 80976, Note_on_c, 0, 81, 0
2, 80976, Note_on_c, 0, 69, 0
2, 81000, Note_on_c, 0, 76, 107
2, 81000, Note_on_c, 0, 69, 107
2, 81000, Note_on_c, 0, 81, 107
2, 81096, Note_on_c, 0, 81, 0
2, 81096, Note_on_c, 0, 69, 0
2, 81096, Note_on_c, 0, 76, 0
2, 81120, Note_on_c, 0, 81, 107
2, 81120, Note_on_c, 0, 69, 107
2, 81120, Note_on_c, 0, 76, 107
2, 81216, Note_on_c, 0, 76, 0
2, 81216, Note_on_c, 0, 69, 0
2, 81216, Note_on_c, 0, 81, 0
2, 81240, Note_on_c, 0, 81, 107
2, 81240, Note_on_c, 0, 76, 107
2, 81240, Note_on_c, 0, 69, 107
2, 81336, Note_on_c, 0, 69, 0
2, 81336, Note_on_c, 0, 76, 0
2, 81336, Note_on_c, 0, 81, 0
2, 81360, Note_on_c, 0, 78, 107
2, 81360, Note_on_c, 0, 81, 107
2, 81360, Note_on_c, 0, 74, 107
2, 81552, Note_on_c, 0, 74, 0
2, 81552, Note_on_c, 0, 81, 0
2, 81552, Note_on_c, 0, 78, 0
2, 82200, Note_on_c, 0, 74, 107
2, 82200, Note_on_c, 0, 79, 107
2, 82200, Note_on_c, 0, 83, 107
2, 82296, Note_on_c, 0, 83, 0
2, 82296, Note_on_c, 0, 79, 0
2, 82296, Note_on_c, 0, 74, 0
2, 82320, Note_on_c, 0, 83, 107
2, 82320, Note_on_c, 0, 74, 107
2, 82320, Note_on_c, 0, 79, 107
2, 82416, Note_on_c, 0, 79, 0
2, 82416, Note_on_c, 0, 74, 0
2, 82416, Note_on_c, 0, 83, 0
2, 82440, Note_on_c, 0, 83, 107
2, 82440, Note_on_c, 0, 79, 107
2, 82440, Note_on_c, 0, 74, 107
2, 82536, Note_on_c, 0, 74, 0
2, 82536, Note_on_c, 0, 79, 0
2, 82536, Note_on_c, 0, 83, 0
2, 82560, Note_on_c, 0, 74, 107
2, 82560, Note_on_c, 0, 79, 107
2, 82560, Note_on_c, 0, 83, 107
2, 82656, Note_on_c, 0, 83, 0
2, 82656, Note_on_c, 0, 79, 0
2, 82656, Note_on_c, 0, 74, 0
2, 82680, Note_on_c, 0, 74, 107
2, 82680, Note_on_c, 0, 79, 107
2, 82680, Note_on_c, 0, 83, 107
2, 82776, Note_on_c, 0, 83, 0
2, 82776, Note_on_c, 0, 79, 0
2, 82776, Note_on_c, 0, 74, 0
2, 82800, Note_on_c, 0, 79, 107
2, 82800, Note_on_c, 0, 76, 107
2, 82800, Note_on_c, 0, 83, 107
2, 82992, Note_on_c, 0, 83, 0
2, 82992, Note_on_c, 0, 76, 0
2, 82992, Note_on_c, 0, 79, 0
2, 83640, Note_on_c, 0, 81, 107
2, 83640, Note_on_c, 0, 85, 107
2, 83640, Note_on_c, 0, 69, 107
2, 83736, Note_on_c, 0, 69, 0
2, 83736, Note_on_c, 0, 85, 0
2, 83736, Note_on_c, 0, 81, 0
2, 83760, Note_on_c, 0, 69, 107
2, 83760, Note_on_c, 0, 81, 107
2, 83760, Note_on_c, 0, 85, 107
2, 83856, Note_on_c, 0, 85, 0
2, 83856, Note_on_c, 0, 81, 0
2, 83856, Note_on_c, 0, 69, 0
2, 83880, Note_on_c, 0, 81, 107
2, 83880, Note_on_c, 0, 69, 107
2, 83880, Note_on_c, 0, 85, 107
2, 83976, Note_on_c, 0, 85, 0
2, 83976, Note_on_c, 0, 69, 0
2, 83976, Note_on_c, 0, 81, 0
2, 84000, Note_on_c, 0, 69, 107
2, 84000, Note_on_c, 0, 81, 107
2, 84000, Note_on_c, 0, 85, 107
2, 84096, Note_on_c, 0, 85, 0
2, 84096, Note_on_c, 0, 81, 0
2, 84096, Note_on_c, 0, 69, 0
2, 84120, Note_on_c, 0, 79, 107
2, 84120, Note_on_c, 0, 69, 107
2, 84120, Note_on_c, 0, 85, 107
2, 84216, Note_on_c, 0, 85, 0
2, 84216, Note_on_c, 0, 69, 0
2, 84216, Note_on_c, 0, 79, 0
2, 84240, Note_on_c, 0, 69, 107
2, 84240, Note_on_c, 0, 86, 107
2, 84240, Note_on_c, 0, 78, 107
2, 84432, Note_on_c, 0, 78, 0
2, 84432, Note_on_c, 0, 86, 0
2, 84432, Note_on_c, 0, 69, 0
2, 85920, Note_on_c, 0, 76, 107
2, 85920, Note_on_c, 0, 81, 107
2, 86016, Note_on_c, 0, 81, 0
2, 86016, Note_on_c, 0, 76, 0
2, 86160, Note_on_c, 0, 76, 107
2, 86160, Note_on_c, 0, 69, 107
2, 86256, Note_on_c, 0, 69, 0
2, 86256, Note_on_c, 0, 76, 0
2, 86640, Note_on_c, 0, 78, 107
2, 86640, Note_on_c, 0, 69, 107
2, 86640, Note_on_c, 0, 74, 107
2, 86736, Note_on_c, 0, 74, 0
2, 86736, Note_on_c, 0, 69, 0
2, 86736, Note_on_c, 0, 78, 0
2, 86880, Note_on_c, 0, 66, 107
2, 86880, Note_on_c, 0, 74, 107
2, 86880, Note_on_c, 0, 69, 107
2, 86976, Note_on_c, 0, 69, 0
2, 86976, Note_on_c, 0, 74, 0
2, 86976, Note_on_c, 0, 66, 0
2, 87360, Note_on_c, 0, 80, 107
2, 87360, Note_on_c, 0, 74, 107
2, 87360, Note_on_c, 0, 83, 107
2, 87456, Note_on_c, 0, 83, 0
2, 87456, Note_on_c, 0, 74, 0
2, 87456, Note_on_c, 0, 80, 0
2, 87600, Note_on_c, 0, 74, 107
2, 87600, Note_on_c, 0, 80, 107
2, 87600, Note_on_c, 0, 76, 107
2, 87696, Note_on_c, 0, 76, 0
2, 87696, Note_on_c, 0, 80, 0
2, 87696, Note_on_c, 0, 74, 0
2, 87840, Note_on_c, 0, 81, 107
2, 87840, Note_on_c, 0, 69, 107
2, 87840, Note_on_c, 0, 76, 107
2, 87936, Note_on_c, 0, 76, 0
2, 87936, Note_on_c, 0, 69, 0
2, 87936, Note_on_c, 0, 81, 0
2, 88560, Note_on_c, 0, 76, 107
2, 88560, Note_on_c, 0, 85, 107
2, 88560, Note_on_c, 0, 81, 107
2, 88656, Note_on_c, 0, 81, 0
2, 88656, Note_on_c, 0, 85, 0
2, 88656, Note_on_c, 0, 76, 0
2, 89280, Note_on_c, 0, 86, 107
2, 89280, Note_on_c, 0, 74, 107
2, 89280, Note_on_c, 0, 81, 107
2, 89376, Note_on_c, 0, 81, 0
2, 89376, Note_on_c, 0, 74, 0
2, 89376, Note_on_c, 0, 86, 0
2, 90000, Note_on_c, 0, 81, 107
2, 90000, Note_on_c, 0, 76, 107
2, 90000, Note_on_c, 0, 85, 107
2, 90096, Note_on_c, 0, 85, 0
2, 90096, Note_on_c, 0, 76, 0
2, 90096, Note_on_c, 0, 81, 0
2, 90240, Note_on_c, 0, 81, 107
2, 90240, Note_on_c, 0, 69, 107
2, 90240, Note_on_c, 0, 76, 107
2, 90336, Note_on_c, 0, 76, 0
2, 90336, Note_on_c, 0, 69, 0
2, 90336, Note_on_c, 0, 81, 0
2, 90720, Note_on_c, 0, 74, 107
2, 90720, Note_on_c, 0, 81, 107
2, 90720, Note_on_c, 0, 62, 107
2, 90816, Note_on_c, 0, 62, 0
2, 90816, Note_on_c, 0, 81, 0
2, 90816, Note_on_c, 0, 74, 0
2, 90960, Note_on_c, 0, 78, 107
2, 90960, Note_on_c, 0, 69, 107
2, 91056, Note_on_c, 0, 69, 0
2, 91056, Note_on_c, 0, 78, 0
2, 92160, Note_on_c, 0, 78, 107
2, 92256, Note_on_c, 0, 78, 0
2, 92280, Note_on_c, 0, 74, 107
2, 92328, Note_on_c, 0, 74, 0
2, 92340, Note_on_c, 0, 78, 107
2, 92388, Note_on_c, 0, 78, 0
2, 92400, Note_on_c, 0, 81, 107
2, 92496, Note_on_c, 0, 81, 0
2, 92520, Note_on_c, 0, 74, 107
2, 92616, Note_on_c, 0, 74, 0
2, 92640, Note_on_c, 0, 78, 107
2, 92736, Note_on_c, 0, 78, 0
2, 92760, Note_on_c, 0, 76, 107
2, 92856, Note_on_c, 0, 76, 0
2, 92880, Note_on_c, 0, 74, 107
2, 92976, Note_on_c, 0, 74, 0
2, 93000, Note_on_c, 0, 78, 107
2, 93096, Note_on_c, 0, 78, 0
2, 93120, Note_on_c, 0, 81, 107
2, 93696, Note_on_c, 0, 81, 0
2, 93720, Note_on_c, 0, 79, 107
2, 93768, Note_on_c, 0, 79, 0
2, 93780, Note_on_c, 0, 78, 107
2, 93828, Note_on_c, 0, 78, 0
2, 93840, Note_on_c, 0, 79, 107
2, 94416, Note_on_c, 0, 79, 0
2, 94440, Note_on_c, 0, 78, 107
2, 94488, Note_on_c, 0, 78, 0
2, 94500, Note_on_c, 0, 76, 107
2, 94548, Note_on_c, 0, 76, 0
2, 94560, Note_on_c, 0, 78, 107
2, 94848, Note_on_c, 0, 78, 0
2, 94920, Note_on_c, 0, 74, 107
2, 95016, Note_on_c, 0, 74, 0
2, 95040, Note_on_c, 0, 67, 107
2, 95040, Note_on_c, 0, 73, 107
2, 95040, Note_on_c, 0, 69, 107
2, 95136, Note_on_c, 0, 69, 0
2, 95136, Note_on_c, 0, 73, 0
2, 95136, Note_on_c, 0, 67, 0
2, 95280, Note_on_c, 0, 73, 107
2, 95280, Note_on_c, 0, 69, 107
2, 95280, Note_on_c, 0, 76, 107
2, 95376, Note_on_c, 0, 76, 0
2, 95376, Note_on_c, 0, 69, 0
2, 95376, Note_on_c, 0, 73, 0
2, 95520, Note_on_c, 0, 79, 107
2, 95520, Note_on_c, 0, 69, 107
2, 95520, Note_on_c, 0, 76, 107
2, 95616, Note_on_c, 0, 76, 0
2, 95616, Note_on_c, 0, 69, 0
2, 95616, Note_on_c, 0, 79, 0
2, 95760, Note_on_c, 0, 73, 107
2, 96048, Note_on_c, 0, 79, 64
2, 96048, Note_on_c, 0, 79, 0
2, 96048, Note_on_c, 0, 76, 64
2, 96048, Note_on_c, 0, 76, 0
2, 96120, Note_on_c, 0, 78, 107
2, 96120, Note_on_c, 0, 81, 107
2, 96144, Note_on_c, 0, 73, 0
2, 96216, Note_on_c, 0, 81, 0
2, 96216, Note_on_c, 0, 78, 0
2, 96240, Note_on_c, 0, 74, 107
2, 96240, Note_on_c, 0, 78, 107
2, 96480, Note_on_c, 0, 71, 107
2, 96624, Note_on_c, 0, 78, 0
2, 96624, Note_on_c, 0, 74, 0
2, 96660, Note_on_c, 0, 76, 107
2, 96672, Note_on_c, 0, 71, 0
2, 96708, Note_on_c, 0, 76, 0
2, 96720, Note_on_c, 0, 69, 107
2, 96720, Note_on_c, 0, 76, 107
2, 96720, Note_on_c, 0, 73, 107
2, 96816, Note_on_c, 0, 73, 0
2, 96816, Note_on_c, 0, 69, 0
2, 96840, Note_on_c, 0, 69, 107
2, 96888, Note_on_c, 0, 69, 0
2, 96900, Note_on_c, 0, 69, 107
2, 96912, Note_on_c, 0, 76, 0
2, 96948, Note_on_c, 0, 69, 0
2, 96960, Note_on_c, 0, 74, 107
2, 96960, Note_on_c, 0, 69, 107
2, 97056, Note_on_c, 0, 69, 0
2, 97056, Note_on_c, 0, 74, 0
2, 97080, Note_on_c, 0, 69, 107
2, 97176, Note_on_c, 0, 69, 0
2, 97200, Note_on_c, 0, 74, 107
2, 97200, Note_on_c, 0, 62, 107
2, 97200, Note_on_c, 0, 69, 107
2, 97296, Note_on_c, 0, 69, 0
2, 97296, Note_on_c, 0, 62, 0
2, 97296, Note_on_c, 0, 74, 0
2, 97440, Note_on_c, 0, 62, 107
2, 97440, Note_on_c, 0, 69, 107
2, 97440, Note_on_c, 0, 74, 107
2, 97536, Note_on_c, 0, 74, 0
2, 97536, Note_on_c, 0, 69, 0
2, 97536, Note_on_c, 0, 62, 0
2, 97680, Note_on_c, 0, 78, 107
2, 97680, Note_on_c, 0, 69, 107
2, 97680, Note_on_c, 0, 74, 107
2, 97776, Note_on_c, 0, 74, 0
2, 97776, Note_on_c, 0, 69, 0
2, 97776, Note_on_c, 0, 78, 0
2, 97920, Note_on_c, 0, 78, 107
2, 97920, Note_on_c, 0, 74, 107
2, 97920, Note_on_c, 0, 81, 107
2, 98016, Note_on_c, 0, 81, 0
2, 98016, Note_on_c, 0, 74, 0
2, 98016, Note_on_c, 0, 78, 0
2, 98160, Note_on_c, 0, 74, 107
2, 98160, Note_on_c, 0, 78, 107
2, 98160, Note_on_c, 0, 69, 107
2, 98256, Note_on_c, 0, 69, 0
2, 98256, Note_on_c, 0, 78, 0
2, 98256, Note_on_c, 0, 74, 0
2, 98400, Note_on_c, 0, 74, 107
2, 98400, Note_on_c, 0, 78, 107
2, 98400, Note_on_c, 0, 81, 107
2, 98496, Note_on_c, 0, 81, 0
2, 98496, Note_on_c, 0, 78, 0
2, 98496, Note_on_c, 0, 74, 0
2, 98640, Note_on_c, 0, 86, 107
2, 98640, Note_on_c, 0, 78, 107
2, 98640, Note_on_c, 0, 81, 107
2, 99216, Note_on_c, 0, 81, 0
2, 99216, Note_on_c, 0, 78, 0
2, 99216, Note_on_c, 0, 86, 0
2, 99216, End_track
3, 0, Start_track
3, 0, MIDI_port, 0
3, 0, Title_t, "Oboes"
3, 0, Program_c, 1, 68
3, 0, Control_c, 1, 7, 74
3, 0, Control_c, 1, 10, 64
3, 0, Note_on_c, 1, 81, 107
3, 0, Note_on_c, 1, 78, 107
3, 96, Note_on_c, 1, 78, 0
3, 96, Note_on_c, 1, 81, 0
3, 240, Note_on_c, 1, 74, 107
3, 240, Note_on_c, 1, 78, 107
3, 336, Note_on_c, 1, 78, 0
3, 336, Note_on_c, 1, 74, 0
3, 4800, Note_on_c, 1, 67, 107
3, 4800, Note_on_c, 1, 73, 107
3, 4896, Note_on_c, 1, 73, 0
3, 4896, Note_on_c, 1, 67, 0
3, 5040, Note_on_c, 1, 74, 107
3, 5040, Note_on_c, 1, 66, 107
3, 5136, Note_on_c, 1, 66, 0
3, 5136, Note_on_c, 1, 74, 0
3, 5520, Note_on_c, 1, 76, 107
3, 5520, Note_on_c, 1, 67, 107
3, 5616, Note_on_c, 1, 67, 0
3, 5616, Note_on_c, 1, 76, 0
3, 5760, Note_on_c, 1, 69, 107
3, 5760, Note_on_c, 1, 78, 107
3, 5873, Note_on_c, 1, 78, 0
3, 5873, Note_on_c, 1, 69, 0
3, 11520, Note_on_c, 1, 74, 107
3, 11520, Note_on_c, 1, 69, 107
3, 11616, Note_on_c, 1, 69, 0
3, 11616, Note_on_c, 1, 74, 0
3, 12240, Note_on_c, 1, 74, 107
3, 12240, Note_on_c, 1, 78, 107
3, 12336, Note_on_c, 1, 78, 0
3, 12336, Note_on_c, 1, 74, 0
3, 12960, Note_on_c, 1, 69, 107
3, 13056, Note_on_c, 1, 69, 0
3, 13680, Note_on_c, 1, 79, 107
3, 13680, Note_on_c, 1, 74, 107
3, 13776, Note_on_c, 1, 74, 0
3, 13776, Note_on_c, 1, 79, 0
3, 14400, Note_on_c, 1, 79, 107
3, 14400, Note_on_c, 1, 74, 107
3, 14496, Note_on_c, 1, 74, 0
3, 14496, Note_on_c, 1, 79, 0
3, 15120, Note_on_c, 1, 74, 107
3, 15120, Note_on_c, 1, 69, 107
3, 15120, Note_on_c, 1, 78, 107
3, 15216, Note_on_c, 1, 78, 0
3, 15216, Note_on_c, 1, 69, 0
3, 15216, Note_on_c, 1, 74, 0
3, 15840, Note_on_c, 1, 74, 107
3, 15840, Note_on_c, 1, 78, 107
3, 15936, Note_on_c, 1, 78, 0
3, 15936, Note_on_c, 1, 74, 0
3, 16560, Note_on_c, 1, 73, 107
3, 16560, Note_on_c, 1, 76, 107
3, 16656, Note_on_c, 1, 76, 0
3, 16656, Note_on_c, 1, 73, 0
3, 17280, Note_on_c, 1, 76, 107
3, 17280, Note_on_c, 1, 73, 107
3, 17376, Note_on_c, 1, 73, 0
3, 17376, Note_on_c, 1, 76, 0
3, 18000, Note_on_c, 1, 69, 107
3, 18000, Note_on_c, 1, 74, 107
3, 18096, Note_on_c, 1, 74, 0
3, 18096, Note_on_c, 1, 69, 0
3, 18720, Note_on_c, 1, 67, 107
3, 18720, Note_on_c, 1, 74, 107
3, 18816, Note_on_c, 1, 74, 0
3, 18816, Note_on_c, 1, 67, 0
3, 19440, Note_on_c, 1, 67, 107
3, 19440, Note_on_c, 1, 73, 107
3, 19536, Note_on_c, 1, 73, 0
3, 19536, Note_on_c, 1, 67, 0
3, 20160, Note_on_c, 1, 81, 107
3, 20160, Note_on_c, 1, 78, 107
3, 20256, Note_on_c, 1, 78, 0
3, 20256, Note_on_c, 1, 81, 0
3, 20400, Note_on_c, 1, 74, 107
3, 20400, Note_on_c, 1, 78, 107
3, 20496, Note_on_c, 1, 78, 0
3, 20496, Note_on_c, 1, 74, 0
3, 20880, Note_on_c, 1, 78, 107
3, 20880, Note_on_c, 1, 74, 107
3, 20976, Note_on_c, 1, 74, 0
3, 20976, Note_on_c, 1, 78, 0
3, 21120, Note_on_c, 1, 74, 107
3, 21120, Note_on_c, 1, 69, 107
3, 21216, Note_on_c, 1, 69, 0
3, 21216, Note_on_c, 1, 74, 0
3, 21600, Note_on_c, 1, 74, 107
3, 21600, Note_on_c, 1, 69, 107
3, 21696, Note_on_c, 1, 69, 0
3, 21696, Note_on_c, 1, 74, 0
3, 21840, Note_on_c, 1, 69, 107
3, 21840, Note_on_c, 1, 66, 107
3, 21936, Note_on_c, 1, 66, 0
3, 21936, Note_on_c, 1, 69, 0
3, 22320, Note_on_c, 1, 66, 107
3, 22320, Note_on_c, 1, 62, 107
3, 22416, Note_on_c, 1, 62, 0
3, 22416, Note_on_c, 1, 66, 0
3, 22560, Note_on_c, 1, 62, 107
3, 22560, Note_on_c, 1, 57, 107
3, 22656, Note_on_c, 1, 57, 0
3, 22656, Note_on_c, 1, 62, 0
3, 27480, Note_on_c, 1, 61, 107
3, 27480, Note_on_c, 1, 66, 107
3, 27576, Note_on_c, 1, 66, 0
3, 27576, Note_on_c, 1, 61, 0
3, 27600, Note_on_c, 1, 66, 107
3, 27600, Note_on_c, 1, 70, 107
3, 27696, Note_on_c, 1, 70, 0
3, 27696, Note_on_c, 1, 66, 0
3, 27720, Note_on_c, 1, 70, 107
3, 27720, Note_on_c, 1, 73, 107
3, 27816, Note_on_c, 1, 73, 0
3, 27816, Note_on_c, 1, 70, 0
3, 27840, Note_on_c, 1, 78, 107
3, 27840, Note_on_c, 1, 73, 107
3, 27936, Note_on_c, 1, 73, 0
3, 27936, Note_on_c, 1, 78, 0
3, 28200, Note_on_c, 1, 66, 107
3, 28200, Note_on_c, 1, 61, 107
3, 28296, Note_on_c, 1, 61, 0
3, 28296, Note_on_c, 1, 66, 0
3, 28320, Note_on_c, 1, 70, 107
3, 28320, Note_on_c, 1, 66, 107
3, 28416, Note_on_c, 1, 66, 0
3, 28416, Note_on_c, 1, 70, 0
3, 28440, Note_on_c, 1, 73, 107
3, 28440, Note_on_c, 1, 70, 107
3, 28536, Note_on_c, 1, 70, 0
3, 28536, Note_on_c, 1, 73, 0
3, 28560, Note_on_c, 1, 76, 107
3, 28560, Note_on_c, 1, 73, 107
3, 28656, Note_on_c, 1, 73, 0
3, 28656, Note_on_c, 1, 76, 0
3, 28920, Note_on_c, 1, 70, 107
3, 28920, Note_on_c, 1, 61, 107
3, 29016, Note_on_c, 1, 61, 0
3, 29016, Note_on_c, 1, 70, 0
3, 29040, Note_on_c, 1, 62, 107
3, 29040, Note_on_c, 1, 71, 107
3, 29136, Note_on_c, 1, 71, 0
3, 29136, Note_on_c, 1, 62, 0
3, 29160, Note_on_c, 1, 70, 107
3, 29160, Note_on_c, 1, 61, 107
3, 29256, Note_on_c, 1, 61, 0
3, 29256, Note_on_c, 1, 70, 0
3, 29280, Note_on_c, 1, 71, 107
3, 29280, Note_on_c, 1, 62, 107
3, 29376, Note_on_c, 1, 62, 0
3, 29376, Note_on_c, 1, 71, 0
3, 29400, Note_on_c, 1, 67, 107
3, 29400, Note_on_c, 1, 59, 107
3, 29496, Note_on_c, 1, 59, 0
3, 29496, Note_on_c, 1, 67, 0
3, 29520, Note_on_c, 1, 66, 107
3, 30432, Note_on_c, 1, 66, 0
3, 30480, Note_on_c, 1, 70, 107
3, 30480, Note_on_c, 1, 76, 107
3, 30672, Note_on_c, 1, 76, 0
3, 30672, Note_on_c, 1, 70, 0
3, 30840, Note_on_c, 1, 73, 107
3, 30840, Note_on_c, 1, 70, 107
3, 30936, Note_on_c, 1, 70, 0
3, 30936, Note_on_c, 1, 73, 0
3, 30960, Note_on_c, 1, 71, 107
3, 30960, Note_on_c, 1, 74, 107
3, 31152, Note_on_c, 1, 74, 0
3, 31152, Note_on_c, 1, 71, 0
3, 31200, Note_on_c, 1, 66, 107
3, 31200, Note_on_c, 1, 71, 107
3, 31392, Note_on_c, 1, 71, 0
3, 31392, Note_on_c, 1, 66, 0
3, 31560, Note_on_c, 1, 59, 107
3, 31560, Note_on_c, 1, 65, 107
3, 31656, Note_on_c, 1, 65, 0
3, 31656, Note_on_c, 1, 59, 0
3, 31680, Note_on_c, 1, 61, 107
3, 31680, Note_on_c, 1, 66, 107
3, 31872, Note_on_c, 1, 66, 0
3, 31872, Note_on_c, 1, 61, 0
3, 31920, Note_on_c, 1, 70, 107
3, 31920, Note_on_c, 1, 76, 107
3, 32112, Note_on_c, 1, 76, 0
3, 32112, Note_on_c, 1, 70, 0
3, 32280, Note_on_c, 1, 73, 107
3, 32280, Note_on_c, 1, 70, 107
3, 32376, Note_on_c, 1, 70, 0
3, 32376, Note_on_c, 1, 73, 0
3, 32400, Note_on_c, 1, 71, 107
3, 32400, Note_on_c, 1, 74, 107
3, 32592, Note_on_c, 1, 74, 0
3, 32592, Note_on_c, 1, 71, 0
3, 32640, Note_on_c, 1, 66, 107
3, 32640, Note_on_c, 1, 71, 107
3, 32832, Note_on_c, 1, 71, 0
3, 32832, Note_on_c, 1, 66, 0
3, 33000, Note_on_c, 1, 66, 107
3, 33096, Note_on_c, 1, 66, 0
3, 33120, Note_on_c, 1, 65, 107
3, 33120, Note_on_c, 1, 71, 107
3, 33216, Note_on_c, 1, 71, 0
3, 33216, Note_on_c, 1, 65, 0
3, 33240, Note_on_c, 1, 71, 107
3, 33240, Note_on_c, 1, 74, 107
3, 33336, Note_on_c, 1, 74, 0
3, 33336, Note_on_c, 1, 71, 0
3, 33360, Note_on_c, 1, 74, 107
3, 33360, Note_on_c, 1, 71, 107
3, 33456, Note_on_c, 1, 71, 0
3, 33456, Note_on_c, 1, 74, 0
3, 33480, Note_on_c, 1, 71, 107
3, 33480, Note_on_c, 1, 74, 107
3, 33576, Note_on_c, 1, 74, 0
3, 33576, Note_on_c, 1, 71, 0
3, 33600, Note_on_c, 1, 74, 107
3, 33600, Note_on_c, 1, 71, 107
3, 33696, Note_on_c, 1, 71, 0
3, 33696, Note_on_c, 1, 74, 0
3, 33720, Note_on_c, 1, 71, 107
3, 33720, Note_on_c, 1, 74, 107
3, 33816, Note_on_c, 1, 74, 0
3, 33816, Note_on_c, 1, 71, 0
3, 33960, Note_on_c, 1, 74, 107
3, 33960, Note_on_c, 1, 71, 107
3, 34056, Note_on_c, 1, 71, 0
3, 34056, Note_on_c, 1, 74, 0
3, 34080, Note_on_c, 1, 74, 107
3, 34080, Note_on_c, 1, 71, 107
3, 34176, Note_on_c, 1, 71, 0
3, 34176, Note_on_c, 1, 74, 0
3, 34200, Note_on_c, 1, 71, 107
3, 34200, Note_on_c, 1, 74, 107
3, 34296, Note_on_c, 1, 74, 0
3, 34296, Note_on_c, 1, 71, 0
3, 34320, Note_on_c, 1, 71, 107
3, 34320, Note_on_c, 1, 74, 107
3, 34416, Note_on_c, 1, 74, 0
3, 34416, Note_on_c, 1, 71, 0
3, 34440, Note_on_c, 1, 74, 107
3, 34440, Note_on_c, 1, 71, 107
3, 34536, Note_on_c, 1, 71, 0
3, 34536, Note_on_c, 1, 74, 0
3, 34680, Note_on_c, 1, 73, 107
3, 34680, Note_on_c, 1, 71, 107
3, 34776, Note_on_c, 1, 71, 0
3, 34776, Note_on_c, 1, 73, 0
3, 34800, Note_on_c, 1, 73, 107
3, 34800, Note_on_c, 1, 71, 107
3, 34896, Note_on_c, 1, 71, 0
3, 34896, Note_on_c, 1, 73, 0
3, 34920, Note_on_c, 1, 71, 107
3, 34920, Note_on_c, 1, 73, 107
3, 35016, Note_on_c, 1, 73, 0
3, 35016, Note_on_c, 1, 71, 0
3, 35040, Note_on_c, 1, 71, 107
3, 35040, Note_on_c, 1, 73, 107
3, 35136, Note_on_c, 1, 73, 0
3, 35136, Note_on_c, 1, 71, 0
3, 35160, Note_on_c, 1, 73, 107
3, 35160, Note_on_c, 1, 71, 107
3, 35256, Note_on_c, 1, 71, 0
3, 35256, Note_on_c, 1, 73, 0
3, 35400, Note_on_c, 1, 73, 107
3, 35400, Note_on_c, 1, 70, 107
3, 35496, Note_on_c, 1, 70, 0
3, 35496, Note_on_c, 1, 73, 0
3, 35520, Note_on_c, 1, 73, 107
3, 35520, Note_on_c, 1, 70, 107
3, 35616, Note_on_c, 1, 70, 0
3, 35616, Note_on_c, 1, 73, 0
3, 35640, Note_on_c, 1, 70, 107
3, 35640, Note_on_c, 1, 73, 107
3, 35736, Note_on_c, 1, 73, 0
3, 35736, Note_on_c, 1, 70, 0
3, 35760, Note_on_c, 1, 70, 107
3, 35760, Note_on_c, 1, 73, 107
3, 35856, Note_on_c, 1, 73, 0
3, 35856, Note_on_c, 1, 70, 0
3, 35880, Note_on_c, 1, 73, 107
3, 35880, Note_on_c, 1, 70, 107
3, 35976, Note_on_c, 1, 70, 0
3, 35976, Note_on_c, 1, 73, 0
3, 36000, Note_on_c, 1, 71, 107
3, 36000, Note_on_c, 1, 66, 107
3, 36192, Note_on_c, 1, 66, 0
3, 36192, Note_on_c, 1, 71, 0
3, 36720, Note_on_c, 1, 71, 107
3, 36720, Note_on_c, 1, 74, 107
3, 36912, Note_on_c, 1, 74, 0
3, 36912, Note_on_c, 1, 71, 0
3, 37560, Note_on_c, 1, 64, 107
3, 37560, Note_on_c, 1, 59, 107
3, 37656, Note_on_c, 1, 59, 0
3, 37656, Note_on_c, 1, 64, 0
3, 37680, Note_on_c, 1, 68, 107
3, 37680, Note_on_c, 1, 64, 107
3, 37776, Note_on_c, 1, 64, 0
3, 37776, Note_on_c, 1, 68, 0
3, 37800, Note_on_c, 1, 71, 107
3, 37800, Note_on_c, 1, 68, 107
3, 37896, Note_on_c, 1, 68, 0
3, 37896, Note_on_c, 1, 71, 0
3, 37920, Note_on_c, 1, 74, 107
3, 37920, Note_on_c, 1, 71, 107
3, 38145, Note_on_c, 1, 71, 0
3, 38145, Note_on_c, 1, 74, 0
3, 38280, Note_on_c, 1, 68, 107
3, 38280, Note_on_c, 1, 59, 107
3, 38376, Note_on_c, 1, 59, 0
3, 38376, Note_on_c, 1, 68, 0
3, 38400, Note_on_c, 1, 68, 107
3, 38400, Note_on_c, 1, 64, 107
3, 38496, Note_on_c, 1, 64, 0
3, 38496, Note_on_c, 1, 68, 0
3, 38520, Note_on_c, 1, 71, 107
3, 38520, Note_on_c, 1, 68, 107
3, 38616, Note_on_c, 1, 68, 0
3, 38616, Note_on_c, 1, 71, 0
3, 38640, Note_on_c, 1, 71, 107
3, 38640, Note_on_c, 1, 74, 107
3, 38736, Note_on_c, 1, 74, 0
3, 38736, Note_on_c, 1, 71, 0
3, 38760, Note_on_c, 1, 71, 107
3, 38856, Note_on_c, 1, 71, 0
3, 38880, Note_on_c, 1, 69, 107
3, 38880, Note_on_c, 1, 73, 107
3, 39072, Note_on_c, 1, 73, 0
3, 39072, Note_on_c, 1, 69, 0
3, 39600, Note_on_c, 1, 76, 107
3, 39600, Note_on_c, 1, 73, 107
3, 39792, Note_on_c, 1, 73, 0
3, 39792, Note_on_c, 1, 76, 0
3, 40440, Note_on_c, 1, 74, 107
3, 40440, Note_on_c, 1, 69, 107
3, 40536, Note_on_c, 1, 69, 0
3, 40536, Note_on_c, 1, 74, 0
3, 40560, Note_on_c, 1, 74, 107
3, 40560, Note_on_c, 1, 78, 107
3, 40656, Note_on_c, 1, 78, 0
3, 40656, Note_on_c, 1, 74, 0
3, 40680, Note_on_c, 1, 81, 107
3, 40680, Note_on_c, 1, 78, 107
3, 40776, Note_on_c, 1, 78, 0
3, 40776, Note_on_c, 1, 81, 0
3, 40800, Note_on_c, 1, 84, 107
3, 40800, Note_on_c, 1, 81, 107
3, 41025, Note_on_c, 1, 81, 0
3, 41025, Note_on_c, 1, 84, 0
3, 41160, Note_on_c, 1, 62, 107
3, 41160, Note_on_c, 1, 57, 107
3, 41256, Note_on_c, 1, 57, 0
3, 41256, Note_on_c, 1, 62, 0
3, 41280, Note_on_c, 1, 66, 107
3, 41280, Note_on_c, 1, 62, 107
3, 41376, Note_on_c, 1, 62, 0
3, 41376, Note_on_c, 1, 66, 0
3, 41400, Note_on_c, 1, 66, 107
3, 41400, Note_on_c, 1, 69, 107
3, 41496, Note_on_c, 1, 69, 0
3, 41496, Note_on_c, 1, 66, 0
3, 41520, Note_on_c, 1, 72, 107
3, 41520, Note_on_c, 1, 69, 107
3, 41616, Note_on_c, 1, 69, 0
3, 41616, Note_on_c, 1, 72, 0
3, 41640, Note_on_c, 1, 69, 107
3, 41736, Note_on_c, 1, 69, 0
3, 41760, Note_on_c, 1, 78, 107
3, 41760, Note_on_c, 1, 74, 107
3, 41856, Note_on_c, 1, 74, 0
3, 41856, Note_on_c, 1, 78, 0
3, 42000, Note_on_c, 1, 67, 107
3, 42000, Note_on_c, 1, 71, 107
3, 42096, Note_on_c, 1, 71, 0
3, 42096, Note_on_c, 1, 67, 0
3, 43200, Note_on_c, 1, 83, 107
3, 43200, Note_on_c, 1, 79, 107
3, 43296, Note_on_c, 1, 79, 0
3, 43296, Note_on_c, 1, 83, 0
3, 43440, Note_on_c, 1, 79, 107
3, 43440, Note_on_c, 1, 74, 107
3, 43536, Note_on_c, 1, 74, 0
3, 43536, Note_on_c, 1, 79, 0
3, 47520, Note_on_c, 1, 67, 107
3, 47520, Note_on_c, 1, 62, 107
3, 47616, Note_on_c, 1, 62, 0
3, 47616, Note_on_c, 1, 67, 0
3, 48240, Note_on_c, 1, 71, 107
3, 48240, Note_on_c, 1, 67, 107
3, 48336, Note_on_c, 1, 67, 0
3, 48336, Note_on_c, 1, 71, 0
3, 48960, Note_on_c, 1, 74, 107
3, 48960, Note_on_c, 1, 71, 107
3, 49056, Note_on_c, 1, 71, 0
3, 49056, Note_on_c, 1, 74, 0
3, 56160, Note_on_c, 1, 67, 107
3, 56160, Note_on_c, 1, 71, 107
3, 56256, Note_on_c, 1, 71, 0
3, 56256, Note_on_c, 1, 67, 0
3, 56400, Note_on_c, 1, 71, 107
3, 56400, Note_on_c, 1, 74, 107
3, 56496, Note_on_c, 1, 74, 0
3, 56496, Note_on_c, 1, 71, 0
3, 56880, Note_on_c, 1, 67, 107
3, 56880, Note_on_c, 1, 71, 107
3, 56976, Note_on_c, 1, 71, 0
3, 56976, Note_on_c, 1, 67, 0
3, 57120, Note_on_c, 1, 74, 107
3, 57120, Note_on_c, 1, 79, 107
3, 57216, Note_on_c, 1, 79, 0
3, 57216, Note_on_c, 1, 74, 0
3, 57600, Note_on_c, 1, 74, 107
3, 57600, Note_on_c, 1, 81, 107
3, 57696, Note_on_c, 1, 81, 0
3, 57696, Note_on_c, 1, 74, 0
3, 57840, Note_on_c, 1, 71, 107
3, 57840, Note_on_c, 1, 67, 107
3, 57936, Note_on_c, 1, 67, 0
3, 57936, Note_on_c, 1, 71, 0
3, 58320, Note_on_c, 1, 71, 107
3, 58320, Note_on_c, 1, 74, 107
3, 58416, Note_on_c, 1, 74, 0
3, 58416, Note_on_c, 1, 71, 0
3, 58560, Note_on_c, 1, 71, 107
3, 58560, Note_on_c, 1, 74, 107
3, 58656, Note_on_c, 1, 74, 0
3, 58656, Note_on_c, 1, 71, 0
3, 66960, Note_on_c, 1, 79, 107
3, 66960, Note_on_c, 1, 76, 107
3, 67056, Note_on_c, 1, 76, 0
3, 67056, Note_on_c, 1, 79, 0
3, 67200, Note_on_c, 1, 76, 107
3, 67200, Note_on_c, 1, 79, 107
3, 67296, Note_on_c, 1, 79, 0
3, 67296, Note_on_c, 1, 76, 0
3, 67440, Note_on_c, 1, 75, 107
3, 67440, Note_on_c, 1, 78, 107
3, 67536, Note_on_c, 1, 78, 0
3, 67536, Note_on_c, 1, 75, 0
3, 67680, Note_on_c, 1, 72, 107
3, 67680, Note_on_c, 1, 76, 107
3, 67776, Note_on_c, 1, 76, 0
3, 67776, Note_on_c, 1, 72, 0
3, 67920, Note_on_c, 1, 72, 107
3, 67920, Note_on_c, 1, 76, 107
3, 68016, Note_on_c, 1, 76, 0
3, 68016, Note_on_c, 1, 72, 0
3, 68160, Note_on_c, 1, 74, 107
3, 68160, Note_on_c, 1, 71, 107
3, 68256, Note_on_c, 1, 71, 0
3, 68256, Note_on_c, 1, 74, 0
3, 68400, Note_on_c, 1, 69, 107
3, 68400, Note_on_c, 1, 72, 107
3, 68496, Note_on_c, 1, 72, 0
3, 68496, Note_on_c, 1, 69, 0
3, 68640, Note_on_c, 1, 72, 107
3, 68640, Note_on_c, 1, 69, 107
3, 68736, Note_on_c, 1, 69, 0
3, 68736, Note_on_c, 1, 72, 0
3, 68880, Note_on_c, 1, 71, 107
3, 68880, Note_on_c, 1, 67, 107
3, 68976, Note_on_c, 1, 67, 0
3, 68976, Note_on_c, 1, 71, 0
3, 69120, Note_on_c, 1, 69, 107
3, 69216, Note_on_c, 1, 69, 0
3, 69360, Note_on_c, 1, 66, 107
3, 69360, Note_on_c, 1, 69, 107
3, 69456, Note_on_c, 1, 69, 0
3, 69456, Note_on_c, 1, 66, 0
3, 69600, Note_on_c, 1, 69, 107
3, 69600, Note_on_c, 1, 64, 107
3, 69696, Note_on_c, 1, 64, 0
3, 69696, Note_on_c, 1, 69, 0
3, 69840, Note_on_c, 1, 63, 107
3, 69840, Note_on_c, 1, 69, 107
3, 69936, Note_on_c, 1, 69, 0
3, 69936, Note_on_c, 1, 63, 0
3, 70080, Note_on_c, 1, 66, 107
3, 70176, Note_on_c, 1, 66, 0
3, 70320, Note_on_c, 1, 63, 107
3, 70320, Note_on_c, 1, 71, 107
3, 70416, Note_on_c, 1, 71, 0
3, 70416, Note_on_c, 1, 63, 0
3, 70560, Note_on_c, 1, 67, 107
3, 70560, Note_on_c, 1, 64, 107
3, 70752, Note_on_c, 1, 64, 0
3, 70752, Note_on_c, 1, 67, 0
3, 70800, Note_on_c, 1, 71, 107
3, 70800, Note_on_c, 1, 76, 107
3, 70992, Note_on_c, 1, 76, 0
3, 70992, Note_on_c, 1, 71, 0
3, 71280, Note_on_c, 1, 66, 107
3, 71280, Note_on_c, 1, 69, 107
3, 71472, Note_on_c, 1, 69, 0
3, 71472, Note_on_c, 1, 66, 0
3, 71520, Note_on_c, 1, 69, 107
3, 71520, Note_on_c, 1, 78, 107
3, 71712, Note_on_c, 1, 78, 0
3, 71712, Note_on_c, 1, 69, 0
3, 72000, Note_on_c, 1, 67, 107
3, 72192, Note_on_c, 1, 67, 0
3, 72240, Note_on_c, 1, 71, 107
3, 72240, Note_on_c, 1, 76, 107
3, 72432, Note_on_c, 1, 76, 0
3, 72432, Note_on_c, 1, 71, 0
3, 72840, Note_on_c, 1, 71, 107
3, 72840, Note_on_c, 1, 66, 107
3, 72936, Note_on_c, 1, 66, 0
3, 72936, Note_on_c, 1, 71, 0
3, 72960, Note_on_c, 1, 71, 107
3, 72960, Note_on_c, 1, 75, 107
3, 73056, Note_on_c, 1, 75, 0
3, 73056, Note_on_c, 1, 71, 0
3, 73080, Note_on_c, 1, 75, 107
3, 73080, Note_on_c, 1, 78, 107
3, 73176, Note_on_c, 1, 78, 0
3, 73176, Note_on_c, 1, 75, 0
3, 73200, Note_on_c, 1, 78, 107
3, 73200, Note_on_c, 1, 83, 107
3, 73296, Note_on_c, 1, 83, 0
3, 73296, Note_on_c, 1, 78, 0
3, 73560, Note_on_c, 1, 71, 107
3, 73560, Note_on_c, 1, 66, 107
3, 73656, Note_on_c, 1, 66, 0
3, 73656, Note_on_c, 1, 71, 0
3, 73680, Note_on_c, 1, 75, 107
3, 73680, Note_on_c, 1, 71, 107
3, 73776, Note_on_c, 1, 71, 0
3, 73776, Note_on_c, 1, 75, 0
3, 73800, Note_on_c, 1, 78, 107
3, 73800, Note_on_c, 1, 75, 107
3, 73896, Note_on_c, 1, 75, 0
3, 73896, Note_on_c, 1, 78, 0
3, 73920, Note_on_c, 1, 78, 107
3, 73920, Note_on_c, 1, 81, 107
3, 74016, Note_on_c, 1, 81, 0
3, 74016, Note_on_c, 1, 78, 0
3, 74280, Note_on_c, 1, 75, 107
3, 74280, Note_on_c, 1, 66, 107
3, 74376, Note_on_c, 1, 66, 0
3, 74376, Note_on_c, 1, 75, 0
3, 74400, Note_on_c, 1, 76, 107
3, 74400, Note_on_c, 1, 67, 107
3, 74496, Note_on_c, 1, 67, 0
3, 74496, Note_on_c, 1, 76, 0
3, 74520, Note_on_c, 1, 75, 107
3, 74520, Note_on_c, 1, 66, 107
3, 74616, Note_on_c, 1, 66, 0
3, 74616, Note_on_c, 1, 75, 0
3, 74640, Note_on_c, 1, 76, 107
3, 74640, Note_on_c, 1, 67, 107
3, 74736, Note_on_c, 1, 67, 0
3, 74736, Note_on_c, 1, 76, 0
3, 74760, Note_on_c, 1, 64, 107
3, 74760, Note_on_c, 1, 72, 107
3, 74856, Note_on_c, 1, 72, 0
3, 74856, Note_on_c, 1, 64, 0
3, 76320, Note_on_c, 1, 72, 107
3, 76320, Note_on_c, 1, 65, 107
3, 76512, Note_on_c, 1, 65, 0
3, 76512, Note_on_c, 1, 72, 0
3, 76560, Note_on_c, 1, 81, 107
3, 76560, Note_on_c, 1, 78, 107
3, 76752, Note_on_c, 1, 78, 0
3, 76752, Note_on_c, 1, 81, 0
3, 76920, Note_on_c, 1, 79, 107
3, 76968, Note_on_c, 1, 79, 0
3, 76980, Note_on_c, 1, 78, 107
3, 77028, Note_on_c, 1, 78, 0
3, 77040, Note_on_c, 1, 71, 107
3, 77040, Note_on_c, 1, 76, 107
3, 77136, Note_on_c, 1, 76, 0
3, 77136, Note_on_c, 1, 71, 0
3, 77160, Note_on_c, 1, 69, 107
3, 77160, Note_on_c, 1, 72, 107
3, 77256, Note_on_c, 1, 72, 0
3, 77256, Note_on_c, 1, 69, 0
3, 77280, Note_on_c, 1, 71, 107
3, 77280, Note_on_c, 1, 67, 107
3, 77376, Note_on_c, 1, 67, 0
3, 77376, Note_on_c, 1, 71, 0
3, 77400, Note_on_c, 1, 69, 107
3, 77400, Note_on_c, 1, 66, 107
3, 77496, Note_on_c, 1, 66, 0
3, 77496, Note_on_c, 1, 69, 0
3, 77520, Note_on_c, 1, 67, 107
3, 77520, Note_on_c, 1, 64, 107
3, 77616, Note_on_c, 1, 64, 0
3, 77616, Note_on_c, 1, 67, 0
3, 77640, Note_on_c, 1, 63, 107
3, 77640, Note_on_c, 1, 66, 107
3, 77736, Note_on_c, 1, 66, 0
3, 77736, Note_on_c, 1, 63, 0
3, 77760, Note_on_c, 1, 67, 107
3, 77760, Note_on_c, 1, 64, 107
3, 77856, Note_on_c, 1, 64, 0
3, 77856, Note_on_c, 1, 67, 0
3, 80760, Note_on_c, 1, 76, 107
3, 80760, Note_on_c, 1, 81, 107
3, 80856, Note_on_c, 1, 81, 0
3, 80856, Note_on_c, 1, 76, 0
3, 80880, Note_on_c, 1, 81, 107
3, 80880, Note_on_c, 1, 76, 107
3, 80976, Note_on_c, 1, 76, 0
3, 80976, Note_on_c, 1, 81, 0
3, 81000, Note_on_c, 1, 76, 107
3, 81000, Note_on_c, 1, 81, 107
3, 81096, Note_on_c, 1, 81, 0
3, 81096, Note_on_c, 1, 76, 0
3, 81120, Note_on_c, 1, 76, 107
3, 81120, Note_on_c, 1, 81, 107
3, 81216, Note_on_c, 1, 81, 0
3, 81216, Note_on_c, 1, 76, 0
3, 81240, Note_on_c, 1, 76, 107
3, 81240, Note_on_c, 1, 81, 107
3, 81336, Note_on_c, 1, 81, 0
3, 81336, Note_on_c, 1, 76, 0
3, 81360, Note_on_c, 1, 81, 107
3, 81360, Note_on_c, 1, 78, 107
3, 81552, Note_on_c, 1, 78, 0
3, 81552, Note_on_c, 1, 81, 0
3, 82200, Note_on_c, 1, 79, 107
3, 82200, Note_on_c, 1, 83, 107
3, 82296, Note_on_c, 1, 83, 0
3, 82296, Note_on_c, 1, 79, 0
3, 82320, Note_on_c, 1, 79, 107
3, 82320, Note_on_c, 1, 83, 107
3, 82416, Note_on_c, 1, 83, 0
3, 82416, Note_on_c, 1, 79, 0
3, 82440, Note_on_c, 1, 79, 107
3, 82440, Note_on_c, 1, 83, 107
3, 82536, Note_on_c, 1, 83, 0
3, 82536, Note_on_c, 1, 79, 0
3, 82560, Note_on_c, 1, 83, 107
3, 82560, Note_on_c, 1, 79, 107
3, 82656, Note_on_c, 1, 79, 0
3, 82656, Note_on_c, 1, 83, 0
3, 82680, Note_on_c, 1, 79, 107
3, 82680, Note_on_c, 1, 83, 107
3, 82776, Note_on_c, 1, 83, 0
3, 82776, Note_on_c, 1, 79, 0
3, 82800, Note_on_c, 1, 83, 107
3, 82800, Note_on_c, 1, 79, 107
3, 82992, Note_on_c, 1, 79, 0
3, 82992, Note_on_c, 1, 83, 0
3, 83640, Note_on_c, 1, 81, 107
3, 83640, Note_on_c, 1, 85, 107
3, 83736, Note_on_c, 1, 85, 0
3, 83736, Note_on_c, 1, 81, 0
3, 83760, Note_on_c, 1, 81, 107
3, 83760, Note_on_c, 1, 85, 107
3, 83856, Note_on_c, 1, 85, 0
3, 83856, Note_on_c, 1, 81, 0
3, 83880, Note_on_c, 1, 85, 107
3, 83880, Note_on_c, 1, 81, 107
3, 83976, Note_on_c, 1, 81, 0
3, 83976, Note_on_c, 1, 85, 0
3, 84000, Note_on_c, 1, 85, 107
3, 84000, Note_on_c, 1, 81, 107
3, 84096, Note_on_c, 1, 81, 0
3, 84096, Note_on_c, 1, 85, 0
3, 84120, Note_on_c, 1, 79, 107
3, 84120, Note_on_c, 1, 85, 107
3, 84216, Note_on_c, 1, 85, 0
3, 84216, Note_on_c, 1, 79, 0
3, 84240, Note_on_c, 1, 86, 107
3, 84240, Note_on_c, 1, 78, 107
3, 84432, Note_on_c, 1, 78, 0
3, 84432, Note_on_c, 1, 86, 0
3, 86640, Note_on_c, 1, 74, 107
3, 86640, Note_on_c, 1, 78, 107
3, 86736, Note_on_c, 1, 78, 0
3, 86736, Note_on_c, 1, 74, 0
3, 86880, Note_on_c, 1, 69, 107
3, 86880, Note_on_c, 1, 74, 107
3, 86976, Note_on_c, 1, 74, 0
3, 86976, Note_on_c, 1, 69, 0
3, 87360, Note_on_c, 1, 80, 107
3, 87360, Note_on_c, 1, 83, 107
3, 87456, Note_on_c, 1, 83, 0
3, 87456, Note_on_c, 1, 80, 0
3, 87600, Note_on_c, 1, 80, 107
3, 87600, Note_on_c, 1, 76, 107
3, 87696, Note_on_c, 1, 76, 0
3, 87696, Note_on_c, 1, 80, 0
3, 87840, Note_on_c, 1, 81, 107
3, 87840, Note_on_c, 1, 76, 107
3, 87936, Note_on_c, 1, 76, 0
3, 87936, Note_on_c, 1, 81, 0
3, 88560, Note_on_c, 1, 81, 107
3, 88560, Note_on_c, 1, 85, 107
3, 88656, Note_on_c, 1, 85, 0
3, 88656, Note_on_c, 1, 81, 0
3, 89280, Note_on_c, 1, 86, 107
3, 89280, Note_on_c, 1, 81, 107
3, 89376, Note_on_c, 1, 81, 0
3, 89376, Note_on_c, 1, 86, 0
3, 90000, Note_on_c, 1, 85, 107
3, 90000, Note_on_c, 1, 81, 107
3, 90096, Note_on_c, 1, 81, 0
3, 90096, Note_on_c, 1, 85, 0
3, 90240, Note_on_c, 1, 81, 107
3, 90240, Note_on_c, 1, 76, 107
3, 90336, Note_on_c, 1, 76, 0
3, 90336, Note_on_c, 1, 81, 0
3, 90720, Note_on_c, 1, 74, 107
3, 90720, Note_on_c, 1, 81, 107
3, 90816, Note_on_c, 1, 81, 0
3, 90816, Note_on_c, 1, 74, 0
3, 90960, Note_on_c, 1, 69, 107
3, 90960, Note_on_c, 1, 78, 107
3, 91056, Note_on_c, 1, 78, 0
3, 91056, Note_on_c, 1, 69, 0
3, 92160, Note_on_c, 1, 78, 107
3, 92256, Note_on_c, 1, 78, 0
3, 92280, Note_on_c, 1, 74, 107
3, 92328, Note_on_c, 1, 74, 0
3, 92340, Note_on_c, 1, 78, 107
3, 92388, Note_on_c, 1, 78, 0
3, 92400, Note_on_c, 1, 81, 107
3, 92496, Note_on_c, 1, 81, 0
3, 92520, Note_on_c, 1, 74, 107
3, 92616, Note_on_c, 1, 74, 0
3, 92640, Note_on_c, 1, 78, 107
3, 92736, Note_on_c, 1, 78, 0
3, 92760, Note_on_c, 1, 76, 107
3, 92856, Note_on_c, 1, 76, 0
3, 92880, Note_on_c, 1, 74, 107
3, 92976, Note_on_c, 1, 74, 0
3, 93000, Note_on_c, 1, 78, 107
3, 93096, Note_on_c, 1, 78, 0
3, 93120, Note_on_c, 1, 81, 107
3, 93696, Note_on_c, 1, 81, 0
3, 93720, Note_on_c, 1, 79, 107
3, 93768, Note_on_c, 1, 79, 0
3, 93780, Note_on_c, 1, 78, 107
3, 93828, Note_on_c, 1, 78, 0
3, 93840, Note_on_c, 1, 79, 107
3, 94416, Note_on_c, 1, 79, 0
3, 94440, Note_on_c, 1, 78, 107
3, 94488, Note_on_c, 1, 78, 0
3, 94500, Note_on_c, 1, 76, 107
3, 94548, Note_on_c, 1, 76, 0
3, 94560, Note_on_c, 1, 78, 107
3, 94848, Note_on_c, 1, 78, 0
3, 94920, Note_on_c, 1, 74, 107
3, 95016, Note_on_c, 1, 74, 0
3, 95040, Note_on_c, 1, 69, 107
3, 95040, Note_on_c, 1, 73, 107
3, 95040, Note_on_c, 1, 67, 107
3, 95136, Note_on_c, 1, 67, 0
3, 95136, Note_on_c, 1, 73, 0
3, 95136, Note_on_c, 1, 69, 0
3, 95280, Note_on_c, 1, 69, 107
3, 95280, Note_on_c, 1, 73, 107
3, 95280, Note_on_c, 1, 76, 107
3, 95376, Note_on_c, 1, 76, 0
3, 95376, Note_on_c, 1, 73, 0
3, 95376, Note_on_c, 1, 69, 0
3, 95520, Note_on_c, 1, 69, 107
3, 95520, Note_on_c, 1, 76, 107
3, 95520, Note_on_c, 1, 79, 107
3, 95616, Note_on_c, 1, 79, 0
3, 95616, Note_on_c, 1, 76, 0
3, 95616, Note_on_c, 1, 69, 0
3, 96048, Note_on_c, 1, 79, 64
3, 96048, Note_on_c, 1, 79, 0
3, 96048, Note_on_c, 1, 76, 64
3, 96048, Note_on_c, 1, 76, 0
3, 96120, Note_on_c, 1, 78, 107
3, 96120, Note_on_c, 1, 81, 107
3, 96216, Note_on_c, 1, 81, 0
3, 96216, Note_on_c, 1, 78, 0
3, 96240, Note_on_c, 1, 78, 107
3, 96240, Note_on_c, 1, 74, 107
3, 96432, Note_on_c, 1, 74, 0
3, 96432, Note_on_c, 1, 78, 0
3, 96480, Note_on_c, 1, 71, 107
3, 96480, Note_on_c, 1, 78, 107
3, 96624, Note_on_c, 1, 78, 0
3, 96660, Note_on_c, 1, 76, 107
3, 96672, Note_on_c, 1, 71, 0
3, 96708, Note_on_c, 1, 76, 0
3, 96720, Note_on_c, 1, 69, 107
3, 96720, Note_on_c, 1, 73, 107
3, 96816, Note_on_c, 1, 73, 0
3, 96840, Note_on_c, 1, 69, 107
3, 96888, Note_on_c, 1, 69, 0
3, 96900, Note_on_c, 1, 69, 107
3, 96912, Note_on_c, 1, 69, 0
3, 96948, Note_on_c, 1, 69, 0
3, 96960, Note_on_c, 1, 69, 107
3, 96960, Note_on_c, 1, 67, 107
3, 97056, Note_on_c, 1, 69, 0
3, 97080, Note_on_c, 1, 69, 107
3, 97152, Note_on_c, 1, 67, 0
3, 97176, Note_on_c, 1, 69, 0
3, 97200, Note_on_c, 1, 74, 107
3, 97200, Note_on_c, 1, 69, 107
3, 97296, Note_on_c, 1, 69, 0
3, 97296, Note_on_c, 1, 74, 0
3, 97440, Note_on_c, 1, 74, 107
3, 97440, Note_on_c, 1, 69, 107
3, 97536, Note_on_c, 1, 69, 0
3, 97536, Note_on_c, 1, 74, 0
3, 97680, Note_on_c, 1, 74, 107
3, 97680, Note_on_c, 1, 78, 107
3, 97776, Note_on_c, 1, 78, 0
3, 97776, Note_on_c, 1, 74, 0
3, 97920, Note_on_c, 1, 78, 107
3, 97920, Note_on_c, 1, 81, 107
3, 98016, Note_on_c, 1, 81, 0
3, 98016, Note_on_c, 1, 78, 0
3, 98160, Note_on_c, 1, 74, 107
3, 98160, Note_on_c, 1, 78, 107
3, 98256, Note_on_c, 1, 78, 0
3, 98256, Note_on_c, 1, 74, 0
3, 98400, Note_on_c, 1, 81, 107
3, 98400, Note_on_c, 1, 78, 107
3, 98496, Note_on_c, 1, 78, 0
3, 98496, Note_on_c, 1, 81, 0
3, 98640, Note_on_c, 1, 86, 107
3, 98640, Note_on_c, 1, 81, 107
3, 99216, Note_on_c, 1, 81, 0
3, 99216, Note_on_c, 1, 86, 0
3, 99216, End_track
4, 0, Start_track
4, 0, MIDI_port, 0
4, 0, Title_t, "Strings 1"
4, 0, Program_c, 2, 48
4, 0, Control_c, 2, 7, 94
4, 0, Control_c, 2, 10, 64
4, 0, Note_on_c, 2, 81, 107
4, 0, Note_on_c, 2, 78, 107
4, 96, Note_on_c, 2, 78, 0
4, 96, Note_on_c, 2, 81, 0
4, 240, Note_on_c, 2, 74, 107
4, 240, Note_on_c, 2, 78, 107
4, 336, Note_on_c, 2, 78, 0
4, 336, Note_on_c, 2, 74, 0
4, 4800, Note_on_c, 2, 73, 107
4, 4800, Note_on_c, 2, 67, 107
4, 4800, Note_on_c, 2, 64, 107
4, 4896, Note_on_c, 2, 64, 0
4, 4896, Note_on_c, 2, 67, 0
4, 4896, Note_on_c, 2, 73, 0
4, 5040, Note_on_c, 2, 74, 107
4, 5040, Note_on_c, 2, 66, 107
4, 5136, Note_on_c, 2, 66, 0
4, 5136, Note_on_c, 2, 74, 0
4, 5520, Note_on_c, 2, 76, 107
4, 5520, Note_on_c, 2, 67, 107
4, 5616, Note_on_c, 2, 67, 0
4, 5616, Note_on_c, 2, 76, 0
4, 5760, Note_on_c, 2, 69, 107
4, 5760, Note_on_c, 2, 78, 107
4, 5856, Note_on_c, 2, 78, 0
4, 5856, Note_on_c, 2, 69, 0
4, 5880, Note_on_c, 2, 69, 107
4, 5976, Note_on_c, 2, 69, 0
4, 6000, Note_on_c, 2, 81, 107
4, 6096, Note_on_c, 2, 81, 0
4, 6120, Note_on_c, 2, 83, 107
4, 6216, Note_on_c, 2, 83, 0
4, 6240, Note_on_c, 2, 81, 107
4, 6336, Note_on_c, 2, 81, 0
4, 6360, Note_on_c, 2, 79, 107
4, 6456, Note_on_c, 2, 79, 0
4, 6480, Note_on_c, 2, 78, 107
4, 6576, Note_on_c, 2, 78, 0
4, 9480, Note_on_c, 2, 74, 107
4, 9576, Note_on_c, 2, 74, 0
4, 9600, Note_on_c, 2, 73, 107
4, 9696, Note_on_c, 2, 73, 0
4, 9720, Note_on_c, 2, 74, 107
4, 9816, Note_on_c, 2, 74, 0
4, 9840, Note_on_c, 2, 76, 107
4, 9936, Note_on_c, 2, 76, 0
4, 9960, Note_on_c, 2, 73, 107
4, 10056, Note_on_c, 2, 73, 0
4, 10080, Note_on_c, 2, 74, 107
4, 10176, Note_on_c, 2, 74, 0
4, 10200, Note_on_c, 2, 66, 107
4, 10296, Note_on_c, 2, 66, 0
4, 10320, Note_on_c, 2, 64, 107
4, 10416, Note_on_c, 2, 64, 0
4, 10440, Note_on_c, 2, 66, 107
4, 10536, Note_on_c, 2, 66, 0
4, 10560, Note_on_c, 2, 67, 107
4, 10656, Note_on_c, 2, 67, 0
4, 10680, Note_on_c, 2, 64, 107
4, 10776, Note_on_c, 2, 64, 0
4, 10800, Note_on_c, 2, 66, 107
4, 10896, Note_on_c, 2, 66, 0
4, 11520, Note_on_c, 2, 69, 107
4, 11520, Note_on_c, 2, 74, 107
4, 11616, Note_on_c, 2, 74, 0
4, 11616, Note_on_c, 2, 69, 0
4, 12240, Note_on_c, 2, 78, 107
4, 12240, Note_on_c, 2, 74, 107
4, 12336, Note_on_c, 2, 74, 0
4, 12336, Note_on_c, 2, 78, 0
4, 12960, Note_on_c, 2, 69, 107
4, 13056, Note_on_c, 2, 69, 0
4, 13680, Note_on_c, 2, 74, 107
4, 13680, Note_on_c, 2, 79, 107
4, 13776, Note_on_c, 2, 79, 0
4, 13776, Note_on_c, 2, 74, 0
4, 14400, Note_on_c, 2, 79, 107
4, 14400, Note_on_c, 2, 74, 107
4, 14496, Note_on_c, 2, 74, 0
4, 14496, Note_on_c, 2, 79, 0
4, 15120, Note_on_c, 2, 78, 107
4, 15120, Note_on_c, 2, 74, 107
4, 15216, Note_on_c, 2, 74, 0
4, 15216, Note_on_c, 2, 78, 0
4, 15840, Note_on_c, 2, 74, 107
4, 15840, Note_on_c, 2, 78, 107
4, 15936, Note_on_c, 2, 78, 0
4, 15936, Note_on_c, 2, 74, 0
4, 16560, Note_on_c, 2, 73, 107
4, 16560, Note_on_c, 2, 76, 107
4, 16656, Note_on_c, 2, 76, 0
4, 16656, Note_on_c, 2, 73, 0
4, 17280, Note_on_c, 2, 76, 107
4, 17280, Note_on_c, 2, 73, 107
4, 17376, Note_on_c, 2, 73, 0
4, 17376, Note_on_c, 2, 76, 0
4, 18000, Note_on_c, 2, 69, 107
4, 18000, Note_on_c, 2, 74, 107
4, 18096, Note_on_c, 2, 74, 0
4, 18096, Note_on_c, 2, 69, 0
4, 18720, Note_on_c, 2, 67, 107
4, 18720, Note_on_c, 2, 74, 107
4, 18816, Note_on_c, 2, 74, 0
4, 18816, Note_on_c, 2, 67, 0
4, 19440, Note_on_c, 2, 73, 107
4, 19440, Note_on_c, 2, 67, 107
4, 19536, Note_on_c, 2, 67, 0
4, 19536, Note_on_c, 2, 73, 0
4, 20160, Note_on_c, 2, 74, 107
4, 20160, Note_on_c, 2, 66, 107
4, 20280, Note_on_c, 2, 66, 0
4, 20280, Note_on_c, 2, 74, 0
4, 20280, Note_on_c, 2, 62, 107
4, 20280, Note_on_c, 2, 57, 107
4, 20400, Note_on_c, 2, 57, 0
4, 20400, Note_on_c, 2, 62, 0
4, 20400, Note_on_c, 2, 57, 107
4, 20400, Note_on_c, 2, 62, 107
4, 20520, Note_on_c, 2, 62, 0
4, 20520, Note_on_c, 2, 57, 0
4, 20520, Note_on_c, 2, 62, 107
4, 20520, Note_on_c, 2, 57, 107
4, 20640, Note_on_c, 2, 57, 0
4, 20640, Note_on_c, 2, 62, 0
4, 20640, Note_on_c, 2, 57, 107
4, 20640, Note_on_c, 2, 62, 107
4, 20760, Note_on_c, 2, 62, 0
4, 20760, Note_on_c, 2, 57, 0
4, 20760, Note_on_c, 2, 57, 107
4, 20760, Note_on_c, 2, 62, 107
4, 20856, Note_on_c, 2, 62, 0
4, 20856, Note_on_c, 2, 57, 0
4, 21000, Note_on_c, 2, 62, 107
4, 21000, Note_on_c, 2, 66, 107
4, 21120, Note_on_c, 2, 66, 0
4, 21120, Note_on_c, 2, 62, 0
4, 21120, Note_on_c, 2, 66, 107
4, 21120, Note_on_c, 2, 62, 107
4, 21240, Note_on_c, 2, 62, 0
4, 21240, Note_on_c, 2, 66, 0
4, 21240, Note_on_c, 2, 66, 107
4, 21240, Note_on_c, 2, 62, 107
4, 21360, Note_on_c, 2, 62, 0
4, 21360, Note_on_c, 2, 66, 0
4, 21360, Note_on_c, 2, 62, 107
4, 21360, Note_on_c, 2, 66, 107
4, 21480, Note_on_c, 2, 66, 0
4, 21480, Note_on_c, 2, 62, 0
4, 21480, Note_on_c, 2, 66, 107
4, 21480, Note_on_c, 2, 62, 107
4, 21576, Note_on_c, 2, 62, 0
4, 21576, Note_on_c, 2, 66, 0
4, 21720, Note_on_c, 2, 66, 107
4, 21720, Note_on_c, 2, 69, 107
4, 21840, Note_on_c, 2, 69, 0
4, 21840, Note_on_c, 2, 66, 0
4, 21840, Note_on_c, 2, 69, 107
4, 21840, Note_on_c, 2, 66, 107
4, 21960, Note_on_c, 2, 66, 0
4, 21960, Note_on_c, 2, 69, 0
4, 21960, Note_on_c, 2, 66, 107
4, 21960, Note_on_c, 2, 69, 107
4, 22080, Note_on_c, 2, 69, 0
4, 22080, Note_on_c, 2, 66, 0
4, 22080, Note_on_c, 2, 66, 107
4, 22080, Note_on_c, 2, 69, 107
4, 22200, Note_on_c, 2, 69, 0
4, 22200, Note_on_c, 2, 66, 0
4, 22200, Note_on_c, 2, 66, 107
4, 22200, Note_on_c, 2, 69, 107
4, 22296, Note_on_c, 2, 69, 0
4, 22296, Note_on_c, 2, 66, 0
4, 22440, Note_on_c, 2, 69, 107
4, 22440, Note_on_c, 2, 72, 107
4, 22560, Note_on_c, 2, 72, 0
4, 22560, Note_on_c, 2, 69, 0
4, 22560, Note_on_c, 2, 72, 107
4, 22560, Note_on_c, 2, 69, 107
4, 22680, Note_on_c, 2, 69, 0
4, 22680, Note_on_c, 2, 72, 0
4, 22680, Note_on_c, 2, 69, 107
4, 22680, Note_on_c, 2, 72, 107
4, 22800, Note_on_c, 2, 72, 0
4, 22800, Note_on_c, 2, 69, 0
4, 22800, Note_on_c, 2, 72, 107
4, 22800, Note_on_c, 2, 69, 107
4, 22920, Note_on_c, 2, 69, 0
4, 22920, Note_on_c, 2, 72, 0
4, 22920, Note_on_c, 2, 69, 107
4, 22920, Note_on_c, 2, 72, 107
4, 23016, Note_on_c, 2, 72, 0
4, 23016, Note_on_c, 2, 69, 0
4, 23040, Note_on_c, 2, 71, 107
4, 23040, Note_on_c, 2, 69, 107
4, 25776, Note_on_c, 2, 69, 0
4, 25920, Note_on_c, 2, 67, 107
4, 26112, Note_on_c, 2, 67, 0
4, 26112, Note_on_c, 2, 71, 0
4, 26160, Note_on_c, 2, 79, 107
4, 26160, Note_on_c, 2, 70, 107
4, 26352, Note_on_c, 2, 70, 0
4, 26352, Note_on_c, 2, 79, 0
4, 26640, Note_on_c, 2, 78, 107
4, 26832, Note_on_c, 2, 78, 0
4, 26832, Note_on_c, 2, 74, 64
4, 26832, Note_on_c, 2, 74, 0
4, 26880, Note_on_c, 2, 78, 107
4, 26880, Note_on_c, 2, 83, 107
4, 27072, Note_on_c, 2, 83, 0
4, 27072, Note_on_c, 2, 78, 0
4, 27480, Note_on_c, 2, 66, 107
4, 27480, Note_on_c, 2, 61, 107
4, 27576, Note_on_c, 2, 61, 0
4, 27576, Note_on_c, 2, 66, 0
4, 27600, Note_on_c, 2, 66, 107
4, 27600, Note_on_c, 2, 70, 107
4, 27696, Note_on_c, 2, 70, 0
4, 27696, Note_on_c, 2, 66, 0
4, 27720, Note_on_c, 2, 70, 107
4, 27720, Note_on_c, 2, 73, 107
4, 27816, Note_on_c, 2, 73, 0
4, 27816, Note_on_c, 2, 70, 0
4, 27840, Note_on_c, 2, 73, 107
4, 27840, Note_on_c, 2, 78, 107
4, 27936, Note_on_c, 2, 78, 0
4, 27936, Note_on_c, 2, 73, 0
4, 28200, Note_on_c, 2, 61, 107
4, 28200, Note_on_c, 2, 66, 107
4, 28296, Note_on_c, 2, 66, 0
4, 28296, Note_on_c, 2, 61, 0
4, 28320, Note_on_c, 2, 70, 107
4, 28320, Note_on_c, 2, 66, 107
4, 28416, Note_on_c, 2, 66, 0
4, 28416, Note_on_c, 2, 70, 0
4, 28440, Note_on_c, 2, 73, 107
4, 28440, Note_on_c, 2, 70, 107
4, 28536, Note_on_c, 2, 70, 0
4, 28536, Note_on_c, 2, 73, 0
4, 28560, Note_on_c, 2, 73, 107
4, 28560, Note_on_c, 2, 76, 107
4, 28656, Note_on_c, 2, 76, 0
4, 28656, Note_on_c, 2, 73, 0
4, 28920, Note_on_c, 2, 70, 107
4, 28920, Note_on_c, 2, 61, 107
4, 29016, Note_on_c, 2, 61, 0
4, 29016, Note_on_c, 2, 70, 0
4, 29040, Note_on_c, 2, 62, 107
4, 29040, Note_on_c, 2, 71, 107
4, 29136, Note_on_c, 2, 71, 0
4, 29136, Note_on_c, 2, 62, 0
4, 29160, Note_on_c, 2, 70, 107
4, 29160, Note_on_c, 2, 61, 107
4, 29256, Note_on_c, 2, 61, 0
4, 29256, Note_on_c, 2, 70, 0
4, 29280, Note_on_c, 2, 71, 107
4, 29280, Note_on_c, 2, 62, 107
4, 29376, Note_on_c, 2, 62, 0
4, 29376, Note_on_c, 2, 71, 0
4, 29400, Note_on_c, 2, 59, 107
4, 29400, Note_on_c, 2, 67, 107
4, 29496, Note_on_c, 2, 67, 0
4, 29496, Note_on_c, 2, 59, 0
4, 29520, Note_on_c, 2, 66, 107
4, 29520, Note_on_c, 2, 61, 107
4, 29616, Note_on_c, 2, 61, 0
4, 29640, Note_on_c, 2, 62, 107
4, 29736, Note_on_c, 2, 62, 0
4, 29760, Note_on_c, 2, 64, 107
4, 29856, Note_on_c, 2, 64, 0
4, 29880, Note_on_c, 2, 62, 107
4, 29976, Note_on_c, 2, 62, 0
4, 30000, Note_on_c, 2, 61, 107
4, 30096, Note_on_c, 2, 61, 0
4, 30120, Note_on_c, 2, 59, 107
4, 30216, Note_on_c, 2, 59, 0
4, 30240, Note_on_c, 2, 61, 107
4, 30432, Note_on_c, 2, 61, 0
4, 30432, Note_on_c, 2, 66, 0
4, 30480, Note_on_c, 2, 76, 107
4, 30480, Note_on_c, 2, 70, 107
4, 30672, Note_on_c, 2, 70, 0
4, 30672, Note_on_c, 2, 76, 0
4, 30840, Note_on_c, 2, 73, 107
4, 30840, Note_on_c, 2, 70, 107
4, 30936, Note_on_c, 2, 70, 0
4, 30936, Note_on_c, 2, 73, 0
4, 30960, Note_on_c, 2, 74, 107
4, 30960, Note_on_c, 2, 71, 107
4, 31152, Note_on_c, 2, 71, 0
4, 31152, Note_on_c, 2, 74, 0
4, 31200, Note_on_c, 2, 66, 107
4, 31200, Note_on_c, 2, 71, 107
4, 31392, Note_on_c, 2, 71, 0
4, 31392, Note_on_c, 2, 66, 0
4, 31560, Note_on_c, 2, 65, 107
4, 31560, Note_on_c, 2, 59, 107
4, 31656, Note_on_c, 2, 59, 0
4, 31656, Note_on_c, 2, 65, 0
4, 31680, Note_on_c, 2, 61, 107
4, 31680, Note_on_c, 2, 66, 107
4, 31872, Note_on_c, 2, 66, 0
4, 31872, Note_on_c, 2, 61, 0
4, 31920, Note_on_c, 2, 76, 107
4, 31920, Note_on_c, 2, 70, 107
4, 32112, Note_on_c, 2, 70, 0
4, 32112, Note_on_c, 2, 76, 0
4, 32280, Note_on_c, 2, 73, 107
4, 32280, Note_on_c, 2, 70, 107
4, 32376, Note_on_c, 2, 70, 0
4, 32376, Note_on_c, 2, 73, 0
4, 32400, Note_on_c, 2, 74, 107
4, 32400, Note_on_c, 2, 71, 107
4, 32592, Note_on_c, 2, 71, 0
4, 32592, Note_on_c, 2, 74, 0
4, 32640, Note_on_c, 2, 66, 107
4, 32640, Note_on_c, 2, 71, 107
4, 32832, Note_on_c, 2, 71, 0
4, 32832, Note_on_c, 2, 66, 0
4, 33000, Note_on_c, 2, 66, 107
4, 33096, Note_on_c, 2, 66, 0
4, 33120, Note_on_c, 2, 71, 107
4, 33120, Note_on_c, 2, 65, 107
4, 33216, Note_on_c, 2, 65, 0
4, 33216, Note_on_c, 2, 71, 0
4, 33240, Note_on_c, 2, 71, 107
4, 33240, Note_on_c, 2, 74, 107
4, 33336, Note_on_c, 2, 74, 0
4, 33336, Note_on_c, 2, 71, 0
4, 33360, Note_on_c, 2, 71, 107
4, 33360, Note_on_c, 2, 74, 107
4, 33456, Note_on_c, 2, 74, 0
4, 33456, Note_on_c, 2, 71, 0
4, 33480, Note_on_c, 2, 74, 107
4, 33480, Note_on_c, 2, 71, 107
4, 33576, Note_on_c, 2, 71, 0
4, 33576, Note_on_c, 2, 74, 0
4, 33600, Note_on_c, 2, 74, 107
4, 33600, Note_on_c, 2, 71, 107
4, 33696, Note_on_c, 2, 71, 0
4, 33696, Note_on_c, 2, 74, 0
4, 33720, Note_on_c, 2, 74, 107
4, 33720, Note_on_c, 2, 71, 107
4, 33816, Note_on_c, 2, 71, 0
4, 33816, Note_on_c, 2, 74, 0
4, 33960, Note_on_c, 2, 74, 107
4, 33960, Note_on_c, 2, 71, 107
4, 34056, Note_on_c, 2, 71, 0
4, 34056, Note_on_c, 2, 74, 0
4, 34080, Note_on_c, 2, 74, 107
4, 34080, Note_on_c, 2, 71, 107
4, 34176, Note_on_c, 2, 71, 0
4, 34176, Note_on_c, 2, 74, 0
4, 34200, Note_on_c, 2, 74, 107
4, 34200, Note_on_c, 2, 71, 107
4, 34296, Note_on_c, 2, 71, 0
4, 34296, Note_on_c, 2, 74, 0
4, 34320, Note_on_c, 2, 71, 107
4, 34320, Note_on_c, 2, 74, 107
4, 34416, Note_on_c, 2, 74, 0
4, 34416, Note_on_c, 2, 71, 0
4, 34440, Note_on_c, 2, 71, 107
4, 34440, Note_on_c, 2, 74, 107
4, 34536, Note_on_c, 2, 74, 0
4, 34536, Note_on_c, 2, 71, 0
4, 34680, Note_on_c, 2, 73, 107
4, 34680, Note_on_c, 2, 71, 107
4, 34776, Note_on_c, 2, 71, 0
4, 34776, Note_on_c, 2, 73, 0
4, 34800, Note_on_c, 2, 73, 107
4, 34800, Note_on_c, 2, 71, 107
4, 34896, Note_on_c, 2, 71, 0
4, 34896, Note_on_c, 2, 73, 0
4, 34920, Note_on_c, 2, 71, 107
4, 34920, Note_on_c, 2, 73, 107
4, 35016, Note_on_c, 2, 73, 0
4, 35016, Note_on_c, 2, 71, 0
4, 35040, Note_on_c, 2, 71, 107
4, 35040, Note_on_c, 2, 73, 107
4, 35136, Note_on_c, 2, 73, 0
4, 35136, Note_on_c, 2, 71, 0
4, 35160, Note_on_c, 2, 71, 107
4, 35160, Note_on_c, 2, 73, 107
4, 35256, Note_on_c, 2, 73, 0
4, 35256, Note_on_c, 2, 71, 0
4, 35400, Note_on_c, 2, 73, 107
4, 35400, Note_on_c, 2, 70, 107
4, 35496, Note_on_c, 2, 70, 0
4, 35496, Note_on_c, 2, 73, 0
4, 35520, Note_on_c, 2, 73, 107
4, 35520, Note_on_c, 2, 70, 107
4, 35616, Note_on_c, 2, 70, 0
4, 35616, Note_on_c, 2, 73, 0
4, 35640, Note_on_c, 2, 70, 107
4, 35640, Note_on_c, 2, 73, 107
4, 35736, Note_on_c, 2, 73, 0
4, 35736, Note_on_c, 2, 70, 0
4, 35760, Note_on_c, 2, 70, 107
4, 35760, Note_on_c, 2, 73, 107
4, 35856, Note_on_c, 2, 73, 0
4, 35856, Note_on_c, 2, 70, 0
4, 35880, Note_on_c, 2, 70, 107
4, 35880, Note_on_c, 2, 73, 107
4, 35976, Note_on_c, 2, 73, 0
4, 35976, Note_on_c, 2, 70, 0
4, 36000, Note_on_c, 2, 71, 107
4, 36000, Note_on_c, 2, 66, 107
4, 36192, Note_on_c, 2, 66, 0
4, 36192, Note_on_c, 2, 71, 0
4, 36720, Note_on_c, 2, 74, 107
4, 36720, Note_on_c, 2, 71, 107
4, 36912, Note_on_c, 2, 71, 0
4, 36912, Note_on_c, 2, 74, 0
4, 37560, Note_on_c, 2, 59, 107
4, 37560, Note_on_c, 2, 64, 107
4, 37656, Note_on_c, 2, 64, 0
4, 37656, Note_on_c, 2, 59, 0
4, 37680, Note_on_c, 2, 64, 107
4, 37680, Note_on_c, 2, 68, 107
4, 37776, Note_on_c, 2, 68, 0
4, 37776, Note_on_c, 2, 64, 0
4, 37800, Note_on_c, 2, 68, 107
4, 37800, Note_on_c, 2, 71, 107
4, 37896, Note_on_c, 2, 71, 0
4, 37896, Note_on_c, 2, 68, 0
4, 37920, Note_on_c, 2, 71, 107
4, 37920, Note_on_c, 2, 74, 107
4, 38145, Note_on_c, 2, 74, 0
4, 38145, Note_on_c, 2, 71, 0
4, 38280, Note_on_c, 2, 68, 107
4, 38280, Note_on_c, 2, 59, 107
4, 38376, Note_on_c, 2, 59, 0
4, 38376, Note_on_c, 2, 68, 0
4, 38400, Note_on_c, 2, 68, 107
4, 38400, Note_on_c, 2, 64, 107
4, 38496, Note_on_c, 2, 64, 0
4, 38496, Note_on_c, 2, 68, 0
4, 38520, Note_on_c, 2, 71, 107
4, 38520, Note_on_c, 2, 68, 107
4, 38616, Note_on_c, 2, 68, 0
4, 38616, Note_on_c, 2, 71, 0
4, 38640, Note_on_c, 2, 74, 107
4, 38640, Note_on_c, 2, 71, 107
4, 38736, Note_on_c, 2, 71, 0
4, 38736, Note_on_c, 2, 74, 0
4, 38760, Note_on_c, 2, 71, 107
4, 38856, Note_on_c, 2, 71, 0
4, 38880, Note_on_c, 2, 73, 107
4, 38880, Note_on_c, 2, 69, 107
4, 39072, Note_on_c, 2, 69, 0
4, 39072, Note_on_c, 2, 73, 0
4, 39600, Note_on_c, 2, 76, 107
4, 39600, Note_on_c, 2, 73, 107
4, 39792, Note_on_c, 2, 73, 0
4, 39792, Note_on_c, 2, 76, 0
4, 40440, Note_on_c, 2, 74, 107
4, 40440, Note_on_c, 2, 69, 107
4, 40536, Note_on_c, 2, 69, 0
4, 40536, Note_on_c, 2, 74, 0
4, 40560, Note_on_c, 2, 74, 107
4, 40560, Note_on_c, 2, 78, 107
4, 40656, Note_on_c, 2, 78, 0
4, 40656, Note_on_c, 2, 74, 0
4, 40680, Note_on_c, 2, 78, 107
4, 40680, Note_on_c, 2, 81, 107
4, 40776, Note_on_c, 2, 81, 0
4, 40776, Note_on_c, 2, 78, 0
4, 40800, Note_on_c, 2, 81, 107
4, 40800, Note_on_c, 2, 84, 107
4, 41025, Note_on_c, 2, 84, 0
4, 41025, Note_on_c, 2, 81, 0
4, 41160, Note_on_c, 2, 57, 107
4, 41160, Note_on_c, 2, 62, 107
4, 41256, Note_on_c, 2, 62, 0
4, 41256, Note_on_c, 2, 57, 0
4, 41280, Note_on_c, 2, 62, 107
4, 41280, Note_on_c, 2, 66, 107
4, 41376, Note_on_c, 2, 66, 0
4, 41376, Note_on_c, 2, 62, 0
4, 41400, Note_on_c, 2, 69, 107
4, 41400, Note_on_c, 2, 66, 107
4, 41496, Note_on_c, 2, 66, 0
4, 41496, Note_on_c, 2, 69, 0
4, 41520, Note_on_c, 2, 72, 107
4, 41520, Note_on_c, 2, 69, 107
4, 41616, Note_on_c, 2, 69, 0
4, 41616, Note_on_c, 2, 72, 0
4, 41640, Note_on_c, 2, 69, 107
4, 41736, Note_on_c, 2, 69, 0
4, 41760, Note_on_c, 2, 71, 107
4, 41856, Note_on_c, 2, 71, 0
4, 41880, Note_on_c, 2, 62, 107
4, 41976, Note_on_c, 2, 62, 0
4, 42000, Note_on_c, 2, 74, 107
4, 42096, Note_on_c, 2, 74, 0
4, 42120, Note_on_c, 2, 76, 107
4, 42216, Note_on_c, 2, 76, 0
4, 42240, Note_on_c, 2, 74, 107
4, 42336, Note_on_c, 2, 74, 0
4, 42360, Note_on_c, 2, 72, 107
4, 42456, Note_on_c, 2, 72, 0
4, 42480, Note_on_c, 2, 71, 107
4, 42576, Note_on_c, 2, 71, 0
4, 45480, Note_on_c, 2, 67, 107
4, 45576, Note_on_c, 2, 67, 0
4, 45600, Note_on_c, 2, 66, 107
4, 45696, Note_on_c, 2, 66, 0
4, 45720, Note_on_c, 2, 67, 107
4, 45816, Note_on_c, 2, 67, 0
4, 45840, Note_on_c, 2, 69, 107
4, 45936, Note_on_c, 2, 69, 0
4, 45960, Note_on_c, 2, 66, 107
4, 46056, Note_on_c, 2, 66, 0
4, 46080, Note_on_c, 2, 67, 107
4, 46176, Note_on_c, 2, 67, 0
4, 47520, Note_on_c, 2, 62, 107
4, 47520, Note_on_c, 2, 67, 107
4, 47616, Note_on_c, 2, 67, 0
4, 47616, Note_on_c, 2, 62, 0
4, 48240, Note_on_c, 2, 71, 107
4, 48240, Note_on_c, 2, 67, 107
4, 48336, Note_on_c, 2, 67, 0
4, 48336, Note_on_c, 2, 71, 0
4, 48960, Note_on_c, 2, 71, 107
4, 48960, Note_on_c, 2, 74, 107
4, 49056, Note_on_c, 2, 74, 0
4, 49056, Note_on_c, 2, 71, 0
4, 49680, Note_on_c, 2, 67, 107
4, 49680, Note_on_c, 2, 72, 107
4, 49776, Note_on_c, 2, 72, 0
4, 49776, Note_on_c, 2, 67, 0
4, 50400, Note_on_c, 2, 67, 107
4, 50400, Note_on_c, 2, 72, 107
4, 50496, Note_on_c, 2, 72, 0
4, 50496, Note_on_c, 2, 67, 0
4, 51120, Note_on_c, 2, 67, 107
4, 51120, Note_on_c, 2, 71, 107
4, 51216, Note_on_c, 2, 71, 0
4, 51216, Note_on_c, 2, 67, 0
4, 51840, Note_on_c, 2, 71, 107
4, 51840, Note_on_c, 2, 67, 107
4, 51936, Note_on_c, 2, 67, 0
4, 51936, Note_on_c, 2, 71, 0
4, 52560, Note_on_c, 2, 69, 107
4, 52560, Note_on_c, 2, 66, 107
4, 52656, Note_on_c, 2, 66, 0
4, 52656, Note_on_c, 2, 69, 0
4, 53280, Note_on_c, 2, 69, 107
4, 53280, Note_on_c, 2, 62, 107
4, 53376, Note_on_c, 2, 62, 0
4, 53376, Note_on_c, 2, 69, 0
4, 54000, Note_on_c, 2, 62, 107
4, 54000, Note_on_c, 2, 67, 107
4, 54096, Note_on_c, 2, 67, 0
4, 54096, Note_on_c, 2, 62, 0
4, 54720, Note_on_c, 2, 67, 107
4, 54720, Note_on_c, 2, 60, 107
4, 54816, Note_on_c, 2, 60, 0
4, 54816, Note_on_c, 2, 67, 0
4, 55440, Note_on_c, 2, 60, 107
4, 55440, Note_on_c, 2, 66, 107
4, 55536, Note_on_c, 2, 66, 0
4, 55536, Note_on_c, 2, 60, 0
4, 56160, Note_on_c, 2, 67, 107
4, 56160, Note_on_c, 2, 62, 107
4, 56280, Note_on_c, 2, 62, 0
4, 56280, Note_on_c, 2, 67, 0
4, 56280, Note_on_c, 2, 59, 107
4, 56280, Note_on_c, 2, 62, 107
4, 56400, Note_on_c, 2, 62, 0
4, 56400, Note_on_c, 2, 59, 0
4, 56400, Note_on_c, 2, 59, 107
4, 56400, Note_on_c, 2, 62, 107
4, 56520, Note_on_c, 2, 62, 0
4, 56520, Note_on_c, 2, 59, 0
4, 56520, Note_on_c, 2, 62, 107
4, 56520, Note_on_c, 2, 59, 107
4, 56640, Note_on_c, 2, 59, 0
4, 56640, Note_on_c, 2, 62, 0
4, 56640, Note_on_c, 2, 62, 107
4, 56640, Note_on_c, 2, 59, 107
4, 56760, Note_on_c, 2, 59, 0
4, 56760, Note_on_c, 2, 62, 0
4, 56760, Note_on_c, 2, 62, 107
4, 56760, Note_on_c, 2, 59, 107
4, 56856, Note_on_c, 2, 59, 0
4, 56856, Note_on_c, 2, 62, 0
4, 57000, Note_on_c, 2, 62, 107
4, 57000, Note_on_c, 2, 67, 107
4, 57120, Note_on_c, 2, 67, 0
4, 57120, Note_on_c, 2, 62, 0
4, 57120, Note_on_c, 2, 62, 107
4, 57120, Note_on_c, 2, 67, 107
4, 57240, Note_on_c, 2, 67, 0
4, 57240, Note_on_c, 2, 62, 0
4, 57240, Note_on_c, 2, 62, 107
4, 57240, Note_on_c, 2, 67, 107
4, 57360, Note_on_c, 2, 67, 0
4, 57360, Note_on_c, 2, 62, 0
4, 57360, Note_on_c, 2, 67, 107
4, 57360, Note_on_c, 2, 62, 107
4, 57480, Note_on_c, 2, 62, 0
4, 57480, Note_on_c, 2, 67, 0
4, 57480, Note_on_c, 2, 67, 107
4, 57480, Note_on_c, 2, 62, 107
4, 57576, Note_on_c, 2, 62, 0
4, 57576, Note_on_c, 2, 67, 0
4, 57720, Note_on_c, 2, 65, 107
4, 57720, Note_on_c, 2, 71, 107
4, 57840, Note_on_c, 2, 71, 0
4, 57840, Note_on_c, 2, 65, 0
4, 57840, Note_on_c, 2, 65, 107
4, 57840, Note_on_c, 2, 71, 107
4, 57960, Note_on_c, 2, 71, 0
4, 57960, Note_on_c, 2, 65, 0
4, 57960, Note_on_c, 2, 71, 107
4, 57960, Note_on_c, 2, 65, 107
4, 58080, Note_on_c, 2, 65, 0
4, 58080, Note_on_c, 2, 71, 0
4, 58080, Note_on_c, 2, 71, 107
4, 58080, Note_on_c, 2, 65, 107
4, 58200, Note_on_c, 2, 65, 0
4, 58200, Note_on_c, 2, 71, 0
4, 58200, Note_on_c, 2, 71, 107
4, 58200, Note_on_c, 2, 65, 107
4, 58296, Note_on_c, 2, 65, 0
4, 58296, Note_on_c, 2, 71, 0
4, 58440, Note_on_c, 2, 64, 107
4, 58440, Note_on_c, 2, 74, 107
4, 58560, Note_on_c, 2, 74, 0
4, 58560, Note_on_c, 2, 64, 0
4, 58560, Note_on_c, 2, 74, 107
4, 58560, Note_on_c, 2, 64, 107
4, 58680, Note_on_c, 2, 64, 0
4, 58680, Note_on_c, 2, 74, 0
4, 58680, Note_on_c, 2, 64, 107
4, 58680, Note_on_c, 2, 74, 107
4, 58800, Note_on_c, 2, 74, 0
4, 58800, Note_on_c, 2, 64, 0
4, 58800, Note_on_c, 2, 74, 107
4, 58800, Note_on_c, 2, 64, 107
4, 58920, Note_on_c, 2, 64, 0
4, 58920, Note_on_c, 2, 74, 0
4, 58920, Note_on_c, 2, 74, 107
4, 58920, Note_on_c, 2, 64, 107
4, 59016, Note_on_c, 2, 64, 0
4, 59016, Note_on_c, 2, 74, 0
4, 59160, Note_on_c, 2, 64, 107
4, 59160, Note_on_c, 2, 72, 107
4, 59280, Note_on_c, 2, 72, 0
4, 59280, Note_on_c, 2, 64, 0
4, 59280, Note_on_c, 2, 64, 107
4, 59280, Note_on_c, 2, 72, 107
4, 59400, Note_on_c, 2, 72, 0
4, 59400, Note_on_c, 2, 64, 0
4, 59400, Note_on_c, 2, 72, 107
4, 59400, Note_on_c, 2, 64, 107
4, 59520, Note_on_c, 2, 64, 0
4, 59520, Note_on_c, 2, 72, 0
4, 59520, Note_on_c, 2, 64, 107
4, 59520, Note_on_c, 2, 72, 107
4, 59640, Note_on_c, 2, 72, 0
4, 59640, Note_on_c, 2, 64, 0
4, 59640, Note_on_c, 2, 64, 107
4, 59640, Note_on_c, 2, 72, 107
4, 59736, Note_on_c, 2, 72, 0
4, 59736, Note_on_c, 2, 64, 0
4, 59880, Note_on_c, 2, 64, 107
4, 59880, Note_on_c, 2, 69, 107
4, 60000, Note_on_c, 2, 69, 0
4, 60000, Note_on_c, 2, 64, 0
4, 60000, Note_on_c, 2, 64, 107
4, 60000, Note_on_c, 2, 69, 107
4, 60120, Note_on_c, 2, 69, 0
4, 60120, Note_on_c, 2, 64, 0
4, 60120, Note_on_c, 2, 69, 107
4, 60120, Note_on_c, 2, 64, 107
4, 60240, Note_on_c, 2, 64, 0
4, 60240, Note_on_c, 2, 69, 0
4, 60240, Note_on_c, 2, 64, 107
4, 60240, Note_on_c, 2, 69, 107
4, 60360, Note_on_c, 2, 69, 0
4, 60360, Note_on_c, 2, 64, 0
4, 60360, Note_on_c, 2, 64, 107
4, 60360, Note_on_c, 2, 69, 107
4, 60456, Note_on_c, 2, 69, 0
4, 60456, Note_on_c, 2, 64, 0
4, 60600, Note_on_c, 2, 67, 107
4, 60600, Note_on_c, 2, 64, 107
4, 60720, Note_on_c, 2, 64, 0
4, 60720, Note_on_c, 2, 67, 0
4, 60720, Note_on_c, 2, 64, 107
4, 60720, Note_on_c, 2, 67, 107
4, 60840, Note_on_c, 2, 67, 0
4, 60840, Note_on_c, 2, 64, 0
4, 60840, Note_on_c, 2, 67, 107
4, 60840, Note_on_c, 2, 64, 107
4, 60960, Note_on_c, 2, 64, 0
4, 60960, Note_on_c, 2, 67, 0
4, 60960, Note_on_c, 2, 67, 107
4, 60960, Note_on_c, 2, 64, 107
4, 61080, Note_on_c, 2, 64, 0
4, 61080, Note_on_c, 2, 67, 0
4, 61080, Note_on_c, 2, 67, 107
4, 61080, Note_on_c, 2, 64, 107
4, 61176, Note_on_c, 2, 64, 0
4, 61176, Note_on_c, 2, 67, 0
4, 61320, Note_on_c, 2, 66, 107
4, 61320, Note_on_c, 2, 64, 107
4, 61440, Note_on_c, 2, 64, 0
4, 61440, Note_on_c, 2, 66, 0
4, 61440, Note_on_c, 2, 66, 107
4, 61440, Note_on_c, 2, 64, 107
4, 61560, Note_on_c, 2, 64, 0
4, 61560, Note_on_c, 2, 66, 0
4, 61560, Note_on_c, 2, 66, 107
4, 61560, Note_on_c, 2, 64, 107
4, 61680, Note_on_c, 2, 64, 0
4, 61680, Note_on_c, 2, 66, 0
4, 61680, Note_on_c, 2, 66, 107
4, 61680, Note_on_c, 2, 64, 107
4, 61800, Note_on_c, 2, 64, 0
4, 61800, Note_on_c, 2, 66, 0
4, 61800, Note_on_c, 2, 64, 107
4, 61800, Note_on_c, 2, 66, 107
4, 61896, Note_on_c, 2, 66, 0
4, 61896, Note_on_c, 2, 64, 0
4, 62040, Note_on_c, 2, 78, 107
4, 62040, Note_on_c, 2, 63, 107
4, 62160, Note_on_c, 2, 63, 0
4, 62160, Note_on_c, 2, 78, 0
4, 62160, Note_on_c, 2, 78, 107
4, 62160, Note_on_c, 2, 63, 107
4, 62280, Note_on_c, 2, 63, 0
4, 62280, Note_on_c, 2, 78, 0
4, 62280, Note_on_c, 2, 63, 107
4, 62280, Note_on_c, 2, 78, 107
4, 62400, Note_on_c, 2, 78, 0
4, 62400, Note_on_c, 2, 63, 0
4, 62400, Note_on_c, 2, 78, 107
4, 62400, Note_on_c, 2, 63, 107
4, 62520, Note_on_c, 2, 63, 0
4, 62520, Note_on_c, 2, 78, 0
4, 62520, Note_on_c, 2, 78, 107
4, 62520, Note_on_c, 2, 63, 107
4, 62616, Note_on_c, 2, 63, 0
4, 62616, Note_on_c, 2, 78, 0
4, 62760, Note_on_c, 2, 79, 107
4, 62760, Note_on_c, 2, 71, 107
4, 62880, Note_on_c, 2, 71, 0
4, 62880, Note_on_c, 2, 79, 0
4, 62880, Note_on_c, 2, 71, 107
4, 62880, Note_on_c, 2, 79, 107
4, 63000, Note_on_c, 2, 79, 0
4, 63000, Note_on_c, 2, 71, 0
4, 63000, Note_on_c, 2, 79, 107
4, 63000, Note_on_c, 2, 71, 107
4, 63120, Note_on_c, 2, 71, 0
4, 63120, Note_on_c, 2, 79, 0
4, 63120, Note_on_c, 2, 71, 107
4, 63120, Note_on_c, 2, 79, 107
4, 63240, Note_on_c, 2, 79, 0
4, 63240, Note_on_c, 2, 71, 0
4, 63240, Note_on_c, 2, 71, 107
4, 63240, Note_on_c, 2, 79, 107
4, 63336, Note_on_c, 2, 79, 0
4, 63336, Note_on_c, 2, 71, 0
4, 63480, Note_on_c, 2, 81, 107
4, 63480, Note_on_c, 2, 76, 107
4, 63600, Note_on_c, 2, 76, 0
4, 63600, Note_on_c, 2, 81, 0
4, 63600, Note_on_c, 2, 81, 107
4, 63600, Note_on_c, 2, 76, 107
4, 63720, Note_on_c, 2, 76, 0
4, 63720, Note_on_c, 2, 81, 0
4, 63720, Note_on_c, 2, 76, 107
4, 63720, Note_on_c, 2, 81, 107
4, 63840, Note_on_c, 2, 81, 0
4, 63840, Note_on_c, 2, 76, 0
4, 63840, Note_on_c, 2, 76, 107
4, 63840, Note_on_c, 2, 81, 107
4, 63960, Note_on_c, 2, 81, 0
4, 63960, Note_on_c, 2, 76, 0
4, 63960, Note_on_c, 2, 81, 107
4, 63960, Note_on_c, 2, 76, 107
4, 64056, Note_on_c, 2, 76, 0
4, 64056, Note_on_c, 2, 81, 0
4, 64080, Note_on_c, 2, 75, 107
4, 64080, Note_on_c, 2, 81, 107
4, 65376, Note_on_c, 2, 75, 0
4, 65520, Note_on_c, 2, 78, 107
4, 66096, Note_on_c, 2, 78, 0
4, 66240, Note_on_c, 2, 75, 107
4, 66816, Note_on_c, 2, 75, 0
4, 66816, Note_on_c, 2, 81, 0
4, 66960, Note_on_c, 2, 76, 107
4, 66960, Note_on_c, 2, 79, 107
4, 67056, Note_on_c, 2, 79, 0
4, 67056, Note_on_c, 2, 76, 0
4, 67200, Note_on_c, 2, 79, 107
4, 67200, Note_on_c, 2, 76, 107
4, 67296, Note_on_c, 2, 76, 0
4, 67296, Note_on_c, 2, 79, 0
4, 67440, Note_on_c, 2, 75, 107
4, 67440, Note_on_c, 2, 78, 107
4, 67536, Note_on_c, 2, 78, 0
4, 67536, Note_on_c, 2, 75, 0
4, 67680, Note_on_c, 2, 76, 107
4, 67776, Note_on_c, 2, 76, 0
4, 67920, Note_on_c, 2, 72, 107
4, 67920, Note_on_c, 2, 76, 107
4, 68016, Note_on_c, 2, 76, 0
4, 68016, Note_on_c, 2, 72, 0
4, 68160, Note_on_c, 2, 74, 107
4, 68160, Note_on_c, 2, 71, 107
4, 68256, Note_on_c, 2, 71, 0
4, 68256, Note_on_c, 2, 74, 0
4, 68400, Note_on_c, 2, 72, 107
4, 68496, Note_on_c, 2, 72, 0
4, 68640, Note_on_c, 2, 72, 107
4, 68640, Note_on_c, 2, 69, 107
4, 68736, Note_on_c, 2, 69, 0
4, 68736, Note_on_c, 2, 72, 0
4, 68880, Note_on_c, 2, 71, 107
4, 68880, Note_on_c, 2, 67, 107
4, 68976, Note_on_c, 2, 67, 0
4, 68976, Note_on_c, 2, 71, 0
4, 69120, Note_on_c, 2, 69, 107
4, 69216, Note_on_c, 2, 69, 0
4, 69360, Note_on_c, 2, 69, 107
4, 69360, Note_on_c, 2, 66, 107
4, 69456, Note_on_c, 2, 66, 0
4, 69456, Note_on_c, 2, 69, 0
4, 69600, Note_on_c, 2, 69, 107
4, 69600, Note_on_c, 2, 64, 107
4, 69696, Note_on_c, 2, 64, 0
4, 69696, Note_on_c, 2, 69, 0
4, 69840, Note_on_c, 2, 69, 107
4, 69840, Note_on_c, 2, 63, 107
4, 69936, Note_on_c, 2, 63, 0
4, 69936, Note_on_c, 2, 69, 0
4, 70080, Note_on_c, 2, 66, 107
4, 70176, Note_on_c, 2, 66, 0
4, 70320, Note_on_c, 2, 63, 107
4, 70320, Note_on_c, 2, 71, 107
4, 70416, Note_on_c, 2, 71, 0
4, 70416, Note_on_c, 2, 63, 0
4, 70560, Note_on_c, 2, 64, 107
4, 70560, Note_on_c, 2, 67, 107
4, 70752, Note_on_c, 2, 67, 0
4, 70752, Note_on_c, 2, 64, 0
4, 70800, Note_on_c, 2, 71, 107
4, 70800, Note_on_c, 2, 76, 107
4, 70992, Note_on_c, 2, 76, 0
4, 70992, Note_on_c, 2, 71, 0
4, 71280, Note_on_c, 2, 66, 107
4, 71280, Note_on_c, 2, 69, 107
4, 71472, Note_on_c, 2, 69, 0
4, 71472, Note_on_c, 2, 66, 0
4, 71520, Note_on_c, 2, 78, 107
4, 71520, Note_on_c, 2, 69, 107
4, 71712, Note_on_c, 2, 69, 0
4, 71712, Note_on_c, 2, 78, 0
4, 72000, Note_on_c, 2, 67, 107
4, 72192, Note_on_c, 2, 67, 0
4, 72240, Note_on_c, 2, 76, 107
4, 72240, Note_on_c, 2, 71, 107
4, 72432, Note_on_c, 2, 71, 0
4, 72432, Note_on_c, 2, 76, 0
4, 72840, Note_on_c, 2, 66, 107
4, 72840, Note_on_c, 2, 71, 107
4, 72936, Note_on_c, 2, 71, 0
4, 72936, Note_on_c, 2, 66, 0
4, 72960, Note_on_c, 2, 71, 107
4, 72960, Note_on_c, 2, 75, 107
4, 73056, Note_on_c, 2, 75, 0
4, 73056, Note_on_c, 2, 71, 0
4, 73080, Note_on_c, 2, 78, 107
4, 73080, Note_on_c, 2, 75, 107
4, 73176, Note_on_c, 2, 75, 0
4, 73176, Note_on_c, 2, 78, 0
4, 73200, Note_on_c, 2, 78, 107
4, 73200, Note_on_c, 2, 83, 107
4, 73296, Note_on_c, 2, 83, 0
4, 73296, Note_on_c, 2, 78, 0
4, 73560, Note_on_c, 2, 66, 107
4, 73560, Note_on_c, 2, 71, 107
4, 73656, Note_on_c, 2, 71, 0
4, 73656, Note_on_c, 2, 66, 0
4, 73680, Note_on_c, 2, 71, 107
4, 73680, Note_on_c, 2, 75, 107
4, 73776, Note_on_c, 2, 75, 0
4, 73776, Note_on_c, 2, 71, 0
4, 73800, Note_on_c, 2, 75, 107
4, 73800, Note_on_c, 2, 78, 107
4, 73896, Note_on_c, 2, 78, 0
4, 73896, Note_on_c, 2, 75, 0
4, 73920, Note_on_c, 2, 78, 107
4, 73920, Note_on_c, 2, 81, 107
4, 74016, Note_on_c, 2, 81, 0
4, 74016, Note_on_c, 2, 78, 0
4, 74280, Note_on_c, 2, 75, 107
4, 74280, Note_on_c, 2, 66, 107
4, 74376, Note_on_c, 2, 66, 0
4, 74376, Note_on_c, 2, 75, 0
4, 74400, Note_on_c, 2, 76, 107
4, 74400, Note_on_c, 2, 67, 107
4, 74496, Note_on_c, 2, 67, 0
4, 74496, Note_on_c, 2, 76, 0
4, 74520, Note_on_c, 2, 66, 107
4, 74520, Note_on_c, 2, 75, 107
4, 74616, Note_on_c, 2, 75, 0
4, 74616, Note_on_c, 2, 66, 0
4, 74640, Note_on_c, 2, 76, 107
4, 74640, Note_on_c, 2, 67, 107
4, 74736, Note_on_c, 2, 67, 0
4, 74736, Note_on_c, 2, 76, 0
4, 74760, Note_on_c, 2, 72, 107
4, 74760, Note_on_c, 2, 64, 107
4, 74856, Note_on_c, 2, 64, 0
4, 74856, Note_on_c, 2, 72, 0
4, 74880, Note_on_c, 2, 66, 107
4, 74880, Note_on_c, 2, 71, 107
4, 75456, Note_on_c, 2, 66, 0
4, 75600, Note_on_c, 2, 67, 107
4, 76176, Note_on_c, 2, 67, 0
4, 76176, Note_on_c, 2, 71, 0
4, 76320, Note_on_c, 2, 65, 107
4, 76320, Note_on_c, 2, 72, 107
4, 76512, Note_on_c, 2, 72, 0
4, 76512, Note_on_c, 2, 65, 0
4, 76560, Note_on_c, 2, 81, 107
4, 76560, Note_on_c, 2, 78, 107
4, 76752, Note_on_c, 2, 78, 0
4, 76752, Note_on_c, 2, 81, 0
4, 76920, Note_on_c, 2, 79, 107
4, 76968, Note_on_c, 2, 79, 0
4, 76980, Note_on_c, 2, 78, 107
4, 77028, Note_on_c, 2, 78, 0
4, 77040, Note_on_c, 2, 71, 107
4, 77040, Note_on_c, 2, 76, 107
4, 77136, Note_on_c, 2, 76, 0
4, 77136, Note_on_c, 2, 71, 0
4, 77160, Note_on_c, 2, 69, 107
4, 77160, Note_on_c, 2, 72, 107
4, 77256, Note_on_c, 2, 72, 0
4, 77256, Note_on_c, 2, 69, 0
4, 77280, Note_on_c, 2, 71, 107
4, 77280, Note_on_c, 2, 67, 107
4, 77376, Note_on_c, 2, 67, 0
4, 77376, Note_on_c, 2, 71, 0
4, 77400, Note_on_c, 2, 66, 107
4, 77400, Note_on_c, 2, 69, 107
4, 77496, Note_on_c, 2, 69, 0
4, 77496, Note_on_c, 2, 66, 0
4, 77520, Note_on_c, 2, 67, 107
4, 77520, Note_on_c, 2, 64, 107
4, 77616, Note_on_c, 2, 64, 0
4, 77616, Note_on_c, 2, 67, 0
4, 77640, Note_on_c, 2, 66, 107
4, 77640, Note_on_c, 2, 63, 107
4, 77736, Note_on_c, 2, 63, 0
4, 77736, Note_on_c, 2, 66, 0
4, 77760, Note_on_c, 2, 64, 107
4, 77760, Note_on_c, 2, 67, 107
4, 79056, Note_on_c, 2, 67, 0
4, 79056, Note_on_c, 2, 64, 0
4, 79200, Note_on_c, 2, 66, 107
4, 79200, Note_on_c, 2, 62, 107
4, 79776, Note_on_c, 2, 62, 0
4, 79776, Note_on_c, 2, 66, 0
4, 79920, Note_on_c, 2, 68, 107
4, 79920, Note_on_c, 2, 59, 107
4, 80496, Note_on_c, 2, 59, 0
4, 80496, Note_on_c, 2, 68, 0
4, 80640, Note_on_c, 2, 61, 107
4, 80640, Note_on_c, 2, 69, 107
4, 80736, Note_on_c, 2, 69, 0
4, 80736, Note_on_c, 2, 61, 0
4, 81480, Note_on_c, 2, 67, 107
4, 81576, Note_on_c, 2, 67, 0
4, 81600, Note_on_c, 2, 66, 107
4, 81696, Note_on_c, 2, 66, 0
4, 81720, Note_on_c, 2, 64, 107
4, 81816, Note_on_c, 2, 64, 0
4, 81840, Note_on_c, 2, 62, 107
4, 81936, Note_on_c, 2, 62, 0
4, 81960, Note_on_c, 2, 60, 107
4, 82056, Note_on_c, 2, 60, 0
4, 82080, Note_on_c, 2, 59, 107
4, 82272, Note_on_c, 2, 59, 0
4, 82920, Note_on_c, 2, 66, 107
4, 83016, Note_on_c, 2, 66, 0
4, 83040, Note_on_c, 2, 64, 107
4, 83136, Note_on_c, 2, 64, 0
4, 83160, Note_on_c, 2, 62, 107
4, 83256, Note_on_c, 2, 62, 0
4, 83280, Note_on_c, 2, 61, 107
4, 83376, Note_on_c, 2, 61, 0
4, 83400, Note_on_c, 2, 59, 107
4, 83496, Note_on_c, 2, 59, 0
4, 83520, Note_on_c, 2, 57, 107
4, 83712, Note_on_c, 2, 57, 0
4, 84360, Note_on_c, 2, 64, 107
4, 84456, Note_on_c, 2, 64, 0
4, 84480, Note_on_c, 2, 62, 107
4, 84576, Note_on_c, 2, 62, 0
4, 84600, Note_on_c, 2, 60, 107
4, 84696, Note_on_c, 2, 60, 0
4, 84720, Note_on_c, 2, 59, 107
4, 84816, Note_on_c, 2, 59, 0
4, 84840, Note_on_c, 2, 57, 107
4, 84936, Note_on_c, 2, 57, 0
4, 84960, Note_on_c, 2, 55, 107
4, 85152, Note_on_c, 2, 55, 0
4, 85200, Note_on_c, 2, 67, 107
4, 85200, Note_on_c, 2, 71, 107
4, 85584, Note_on_c, 2, 71, 0
4, 85584, Note_on_c, 2, 67, 0
4, 85680, Note_on_c, 2, 67, 107
4, 85680, Note_on_c, 2, 73, 107
4, 86064, Note_on_c, 2, 67, 0
4, 86400, Note_on_c, 2, 66, 107
4, 86784, Note_on_c, 2, 66, 0
4, 86784, Note_on_c, 2, 73, 0
4, 87120, Note_on_c, 2, 74, 107
4, 87120, Note_on_c, 2, 68, 107
4, 87504, Note_on_c, 2, 68, 0
4, 87504, Note_on_c, 2, 74, 0
4, 87840, Note_on_c, 2, 64, 107
4, 87840, Note_on_c, 2, 73, 107
4, 87936, Note_on_c, 2, 73, 0
4, 87960, Note_on_c, 2, 76, 107
4, 88008, Note_on_c, 2, 76, 0
4, 88020, Note_on_c, 2, 74, 107
4, 88032, Note_on_c, 2, 64, 0
4, 88068, Note_on_c, 2, 74, 0
4, 88080, Note_on_c, 2, 73, 107
4, 88176, Note_on_c, 2, 73, 0
4, 88200, Note_on_c, 2, 76, 107
4, 88296, Note_on_c, 2, 76, 0
4, 88320, Note_on_c, 2, 69, 107
4, 88416, Note_on_c, 2, 69, 0
4, 88440, Note_on_c, 2, 73, 107
4, 88536, Note_on_c, 2, 73, 0
4, 88560, Note_on_c, 2, 64, 107
4, 88656, Note_on_c, 2, 64, 0
4, 88680, Note_on_c, 2, 76, 107
4, 88728, Note_on_c, 2, 76, 0
4, 88740, Note_on_c, 2, 74, 107
4, 88788, Note_on_c, 2, 74, 0
4, 88800, Note_on_c, 2, 73, 107
4, 88896, Note_on_c, 2, 73, 0
4, 88920, Note_on_c, 2, 69, 107
4, 89016, Note_on_c, 2, 69, 0
4, 89040, Note_on_c, 2, 64, 107
4, 89136, Note_on_c, 2, 64, 0
4, 89160, Note_on_c, 2, 67, 107
4, 89256, Note_on_c, 2, 67, 0
4, 89280, Note_on_c, 2, 66, 107
4, 89376, Note_on_c, 2, 66, 0
4, 89400, Note_on_c, 2, 69, 107
4, 89448, Note_on_c, 2, 69, 0
4, 89460, Note_on_c, 2, 67, 107
4, 89508, Note_on_c, 2, 67, 0
4, 89520, Note_on_c, 2, 66, 107
4, 89616, Note_on_c, 2, 66, 0
4, 89640, Note_on_c, 2, 69, 107
4, 89736, Note_on_c, 2, 69, 0
4, 89760, Note_on_c, 2, 62, 107
4, 89856, Note_on_c, 2, 62, 0
4, 89880, Note_on_c, 2, 66, 107
4, 89976, Note_on_c, 2, 66, 0
4, 90120, Note_on_c, 2, 79, 107
4, 90120, Note_on_c, 2, 76, 107
4, 90168, Note_on_c, 2, 76, 0
4, 90168, Note_on_c, 2, 79, 0
4, 90180, Note_on_c, 2, 78, 107
4, 90180, Note_on_c, 2, 74, 107
4, 90228, Note_on_c, 2, 74, 0
4, 90228, Note_on_c, 2, 78, 0
4, 90240, Note_on_c, 2, 79, 107
4, 90240, Note_on_c, 2, 76, 107
4, 90336, Note_on_c, 2, 76, 0
4, 90336, Note_on_c, 2, 79, 0
4, 90360, Note_on_c, 2, 73, 107
4, 90360, Note_on_c, 2, 76, 107
4, 90456, Note_on_c, 2, 76, 0
4, 90456, Note_on_c, 2, 73, 0
4, 90480, Note_on_c, 2, 73, 107
4, 90480, Note_on_c, 2, 69, 107
4, 90576, Note_on_c, 2, 69, 0
4, 90576, Note_on_c, 2, 73, 0
4, 90600, Note_on_c, 2, 64, 107
4, 90600, Note_on_c, 2, 76, 107
4, 90696, Note_on_c, 2, 76, 0
4, 90696, Note_on_c, 2, 64, 0
4, 90720, Note_on_c, 2, 69, 107
4, 90720, Note_on_c, 2, 66, 107
4, 90816, Note_on_c, 2, 66, 0
4, 90816, Note_on_c, 2, 69, 0
4, 90840, Note_on_c, 2, 71, 107
4, 90840, Note_on_c, 2, 67, 107
4, 90936, Note_on_c, 2, 67, 0
4, 90936, Note_on_c, 2, 71, 0
4, 90960, Note_on_c, 2, 69, 107
4, 90960, Note_on_c, 2, 73, 107
4, 91056, Note_on_c, 2, 73, 0
4, 91056, Note_on_c, 2, 69, 0
4, 91080, Note_on_c, 2, 71, 107
4, 91080, Note_on_c, 2, 74, 107
4, 91176, Note_on_c, 2, 74, 0
4, 91176, Note_on_c, 2, 71, 0
4, 91200, Note_on_c, 2, 73, 107
4, 91200, Note_on_c, 2, 76, 107
4, 91296, Note_on_c, 2, 76, 0
4, 91296, Note_on_c, 2, 73, 0
4, 91320, Note_on_c, 2, 74, 107
4, 91320, Note_on_c, 2, 78, 107
4, 91416, Note_on_c, 2, 78, 0
4, 91416, Note_on_c, 2, 74, 0
4, 91440, Note_on_c, 2, 79, 107
4, 91440, Note_on_c, 2, 76, 107
4, 91968, Note_on_c, 2, 76, 0
4, 91968, Note_on_c, 2, 79, 0
4, 91980, Note_on_c, 2, 78, 107
4, 91980, Note_on_c, 2, 74, 107
4, 92028, Note_on_c, 2, 74, 0
4, 92028, Note_on_c, 2, 78, 0
4, 92040, Note_on_c, 2, 79, 107
4, 92040, Note_on_c, 2, 76, 107
4, 92088, Note_on_c, 2, 76, 0
4, 92088, Note_on_c, 2, 79, 0
4, 92100, Note_on_c, 2, 73, 107
4, 92100, Note_on_c, 2, 76, 107
4, 92148, Note_on_c, 2, 76, 0
4, 92148, Note_on_c, 2, 73, 0
4, 92160, Note_on_c, 2, 78, 107
4, 92160, Note_on_c, 2, 74, 107
4, 92352, Note_on_c, 2, 74, 0
4, 92352, Note_on_c, 2, 78, 0
4, 92520, Note_on_c, 2, 71, 107
4, 92616, Note_on_c, 2, 71, 0
4, 92640, Note_on_c, 2, 74, 107
4, 92736, Note_on_c, 2, 74, 0
4, 92760, Note_on_c, 2, 69, 107
4, 92856, Note_on_c, 2, 69, 0
4, 92880, Note_on_c, 2, 69, 107
4, 93168, Note_on_c, 2, 69, 0
4, 93240, Note_on_c, 2, 71, 107
4, 93336, Note_on_c, 2, 71, 0
4, 93360, Note_on_c, 2, 72, 107
4, 93456, Note_on_c, 2, 72, 0
4, 93480, Note_on_c, 2, 69, 107
4, 93576, Note_on_c, 2, 69, 0
4, 93600, Note_on_c, 2, 71, 107
4, 93888, Note_on_c, 2, 71, 0
4, 93960, Note_on_c, 2, 69, 107
4, 94056, Note_on_c, 2, 69, 0
4, 94080, Note_on_c, 2, 71, 107
4, 94176, Note_on_c, 2, 71, 0
4, 94200, Note_on_c, 2, 67, 107
4, 94296, Note_on_c, 2, 67, 0
4, 94320, Note_on_c, 2, 69, 107
4, 94608, Note_on_c, 2, 69, 0
4, 94680, Note_on_c, 2, 67, 107
4, 94776, Note_on_c, 2, 67, 0
4, 94800, Note_on_c, 2, 69, 107
4, 94896, Note_on_c, 2, 69, 0
4, 94920, Note_on_c, 2, 69, 107
4, 95016, Note_on_c, 2, 69, 0
4, 95040, Note_on_c, 2, 81, 107
4, 95064, Note_on_c, 2, 81, 0
4, 95070, Note_on_c, 2, 79, 107
4, 95094, Note_on_c, 2, 79, 0
4, 95100, Note_on_c, 2, 81, 107
4, 95124, Note_on_c, 2, 81, 0
4, 95130, Note_on_c, 2, 79, 107
4, 95154, Note_on_c, 2, 79, 0
4, 95160, Note_on_c, 2, 81, 107
4, 95184, Note_on_c, 2, 81, 0
4, 95190, Note_on_c, 2, 79, 107
4, 95214, Note_on_c, 2, 79, 0
4, 95220, Note_on_c, 2, 81, 107
4, 95244, Note_on_c, 2, 81, 0
4, 95250, Note_on_c, 2, 79, 107
4, 95274, Note_on_c, 2, 79, 0
4, 95280, Note_on_c, 2, 81, 107
4, 95304, Note_on_c, 2, 81, 0
4, 95310, Note_on_c, 2, 79, 107
4, 95334, Note_on_c, 2, 79, 0
4, 95340, Note_on_c, 2, 81, 107
4, 95364, Note_on_c, 2, 81, 0
4, 95370, Note_on_c, 2, 79, 107
4, 95394, Note_on_c, 2, 79, 0
4, 95400, Note_on_c, 2, 81, 107
4, 95424, Note_on_c, 2, 81, 0
4, 95430, Note_on_c, 2, 79, 107
4, 95454, Note_on_c, 2, 79, 0
4, 95460, Note_on_c, 2, 81, 107
4, 95484, Note_on_c, 2, 81, 0
4, 95490, Note_on_c, 2, 79, 107
4, 95514, Note_on_c, 2, 79, 0
4, 95520, Note_on_c, 2, 81, 107
4, 95544, Note_on_c, 2, 81, 0
4, 95550, Note_on_c, 2, 79, 107
4, 95574, Note_on_c, 2, 79, 0
4, 95580, Note_on_c, 2, 81, 107
4, 95604, Note_on_c, 2, 81, 0
4, 95610, Note_on_c, 2, 79, 107
4, 96048, Note_on_c, 2, 79, 0
4, 96120, Note_on_c, 2, 81, 107
4, 96216, Note_on_c, 2, 81, 0
4, 96240, Note_on_c, 2, 78, 107
4, 96432, Note_on_c, 2, 78, 0
4, 96480, Note_on_c, 2, 78, 107
4, 96480, Note_on_c, 2, 74, 107
4, 96624, Note_on_c, 2, 74, 0
4, 96624, Note_on_c, 2, 78, 0
4, 96660, Note_on_c, 2, 76, 107
4, 96708, Note_on_c, 2, 76, 0
4, 96720, Note_on_c, 2, 73, 107
4, 96912, Note_on_c, 2, 73, 0
4, 96960, Note_on_c, 2, 74, 107
4, 96960, Note_on_c, 2, 69, 107
4, 97056, Note_on_c, 2, 69, 0
4, 97056, Note_on_c, 2, 74, 0
4, 97200, Note_on_c, 2, 69, 107
4, 97200, Note_on_c, 2, 66, 107
4, 97296, Note_on_c, 2, 66, 0
4, 97296, Note_on_c, 2, 69, 0
4, 97320, Note_on_c, 2, 81, 107
4, 97368, Note_on_c, 2, 81, 0
4, 97380, Note_on_c, 2, 79, 107
4, 97428, Note_on_c, 2, 79, 0
4, 97440, Note_on_c, 2, 78, 107
4, 97536, Note_on_c, 2, 78, 0
4, 97560, Note_on_c, 2, 76, 107
4, 97656, Note_on_c, 2, 76, 0
4, 97680, Note_on_c, 2, 74, 107
4, 97776, Note_on_c, 2, 74, 0
4, 97800, Note_on_c, 2, 73, 107
4, 97896, Note_on_c, 2, 73, 0
4, 97920, Note_on_c, 2, 74, 107
4, 98016, Note_on_c, 2, 74, 0
4, 98040, Note_on_c, 2, 69, 107
4, 98088, Note_on_c, 2, 69, 0
4, 98100, Note_on_c, 2, 67, 107
4, 98148, Note_on_c, 2, 67, 0
4, 98160, Note_on_c, 2, 66, 107
4, 98273, Note_on_c, 2, 66, 0
4, 98280, Note_on_c, 2, 64, 107
4, 98393, Note_on_c, 2, 64, 0
4, 98400, Note_on_c, 2, 62, 107
4, 98513, Note_on_c, 2, 62, 0
4, 98520, Note_on_c, 2, 61, 107
4, 98633, Note_on_c, 2, 61, 0
4, 98640, Note_on_c, 2, 74, 107
4, 99216, Note_on_c, 2, 74, 0
4, 99216, End_track
5, 0, Start_track
5, 0, MIDI_port, 0
5, 0, Title_t, "Strings 2"
5, 0, Program_c, 3, 48
5, 0, Control_c, 3, 7, 94
5, 0, Control_c, 3, 10, 64
5, 0, Note_on_c, 3, 74, 107
5, 96, Note_on_c, 3, 74, 0
5, 240, Note_on_c, 3, 69, 107
5, 336, Note_on_c, 3, 69, 0
5, 960, Note_on_c, 3, 74, 107
5, 1056, Note_on_c, 3, 74, 0
5, 1080, Note_on_c, 3, 69, 107
5, 1176, Note_on_c, 3, 69, 0
5, 1200, Note_on_c, 3, 66, 107
5, 1296, Note_on_c, 3, 66, 0
5, 1320, Note_on_c, 3, 69, 107
5, 1416, Note_on_c, 3, 69, 0
5, 4800, Note_on_c, 3, 64, 107
5, 4896, Note_on_c, 3, 64, 0
5, 5040, Note_on_c, 3, 57, 107
5, 5136, Note_on_c, 3, 57, 0
5, 5520, Note_on_c, 3, 57, 107
5, 5616, Note_on_c, 3, 57, 0
5, 5760, Note_on_c, 3, 62, 107
5, 5856, Note_on_c, 3, 62, 0
5, 7320, Note_on_c, 3, 57, 107
5, 7416, Note_on_c, 3, 57, 0
5, 7440, Note_on_c, 3, 69, 107
5, 7536, Note_on_c, 3, 69, 0
5, 7560, Note_on_c, 3, 71, 107
5, 7656, Note_on_c, 3, 71, 0
5, 7680, Note_on_c, 3, 69, 107
5, 7776, Note_on_c, 3, 69, 0
5, 7800, Note_on_c, 3, 67, 107
5, 7896, Note_on_c, 3, 67, 0
5, 7920, Note_on_c, 3, 66, 107
5, 8016, Note_on_c, 3, 66, 0
5, 10920, Note_on_c, 3, 62, 107
5, 11016, Note_on_c, 3, 62, 0
5, 11040, Note_on_c, 3, 61, 107
5, 11136, Note_on_c, 3, 61, 0
5, 11160, Note_on_c, 3, 62, 107
5, 11256, Note_on_c, 3, 62, 0
5, 11280, Note_on_c, 3, 64, 107
5, 11376, Note_on_c, 3, 64, 0
5, 11400, Note_on_c, 3, 61, 107
5, 11496, Note_on_c, 3, 61, 0
5, 11520, Note_on_c, 3, 69, 107
5, 11616, Note_on_c, 3, 69, 0
5, 12240, Note_on_c, 3, 69, 107
5, 12336, Note_on_c, 3, 69, 0
5, 12960, Note_on_c, 3, 69, 107
5, 13056, Note_on_c, 3, 69, 0
5, 13680, Note_on_c, 3, 71, 107
5, 13776, Note_on_c, 3, 71, 0
5, 14400, Note_on_c, 3, 69, 107
5, 14496, Note_on_c, 3, 69, 0
5, 15120, Note_on_c, 3, 69, 107
5, 15216, Note_on_c, 3, 69, 0
5, 15840, Note_on_c, 3, 67, 107
5, 15936, Note_on_c, 3, 67, 0
5, 16560, Note_on_c, 3, 67, 107
5, 16656, Note_on_c, 3, 67, 0
5, 17280, Note_on_c, 3, 66, 107
5, 17376, Note_on_c, 3, 66, 0
5, 18000, Note_on_c, 3, 66, 107
5, 18096, Note_on_c, 3, 66, 0
5, 18720, Note_on_c, 3, 64, 107
5, 18816, Note_on_c, 3, 64, 0
5, 19440, Note_on_c, 3, 64, 107
5, 19536, Note_on_c, 3, 64, 0
5, 20160, Note_on_c, 3, 57, 107
5, 20280, Note_on_c, 3, 57, 0
5, 20280, Note_on_c, 3, 54, 107
5, 20400, Note_on_c, 3, 54, 0
5, 20400, Note_on_c, 3, 54, 107
5, 20520, Note_on_c, 3, 54, 0
5, 20520, Note_on_c, 3, 54, 107
5, 20640, Note_on_c, 3, 54, 0
5, 20640, Note_on_c, 3, 54, 107
5, 20760, Note_on_c, 3, 54, 0
5, 20760, Note_on_c, 3, 54, 107
5, 20856, Note_on_c, 3, 54, 0
5, 21000, Note_on_c, 3, 57, 107
5, 21120, Note_on_c, 3, 57, 0
5, 21120, Note_on_c, 3, 57, 107
5, 21240, Note_on_c, 3, 57, 0
5, 21240, Note_on_c, 3, 57, 107
5, 21360, Note_on_c, 3, 57, 0
5, 21360, Note_on_c, 3, 57, 107
5, 21480, Note_on_c, 3, 57, 0
5, 21480, Note_on_c, 3, 57, 107
5, 21576, Note_on_c, 3, 57, 0
5, 21720, Note_on_c, 3, 62, 107
5, 21840, Note_on_c, 3, 62, 0
5, 21840, Note_on_c, 3, 62, 107
5, 21960, Note_on_c, 3, 62, 0
5, 21960, Note_on_c, 3, 62, 107
5, 22080, Note_on_c, 3, 62, 0
5, 22080, Note_on_c, 3, 62, 107
5, 22200, Note_on_c, 3, 62, 0
5, 22200, Note_on_c, 3, 62, 107
5, 22296, Note_on_c, 3, 62, 0
5, 22440, Note_on_c, 3, 66, 107
5, 22560, Note_on_c, 3, 66, 0
5, 22560, Note_on_c, 3, 66, 107
5, 22680, Note_on_c, 3, 66, 0
5, 22680, Note_on_c, 3, 66, 107
5, 22800, Note_on_c, 3, 66, 0
5, 22800, Note_on_c, 3, 66, 107
5, 22920, Note_on_c, 3, 66, 0
5, 22920, Note_on_c, 3, 66, 107
5, 23016, Note_on_c, 3, 66, 0
5, 23040, Note_on_c, 3, 66, 107
5, 23616, Note_on_c, 3, 66, 0
5, 23760, Note_on_c, 3, 63, 107
5, 24336, Note_on_c, 3, 63, 0
5, 24480, Note_on_c, 3, 59, 107
5, 25056, Note_on_c, 3, 59, 0
5, 25200, Note_on_c, 3, 63, 107
5, 25776, Note_on_c, 3, 63, 0
5, 25920, Note_on_c, 3, 64, 107
5, 26112, Note_on_c, 3, 64, 0
5, 26160, Note_on_c, 3, 61, 107
5, 26352, Note_on_c, 3, 61, 0
5, 26640, Note_on_c, 3, 66, 107
5, 26832, Note_on_c, 3, 66, 0
5, 26880, Note_on_c, 3, 62, 107
5, 27072, Note_on_c, 3, 62, 0
5, 27480, Note_on_c, 3, 58, 107
5, 27576, Note_on_c, 3, 58, 0
5, 27600, Note_on_c, 3, 61, 107
5, 27696, Note_on_c, 3, 61, 0
5, 27720, Note_on_c, 3, 66, 107
5, 27816, Note_on_c, 3, 66, 0
5, 27840, Note_on_c, 3, 70, 107
5, 27936, Note_on_c, 3, 70, 0
5, 28200, Note_on_c, 3, 58, 107
5, 28296, Note_on_c, 3, 58, 0
5, 28320, Note_on_c, 3, 61, 107
5, 28416, Note_on_c, 3, 61, 0
5, 28440, Note_on_c, 3, 66, 107
5, 28536, Note_on_c, 3, 66, 0
5, 28560, Note_on_c, 3, 70, 107
5, 28656, Note_on_c, 3, 70, 0
5, 29520, Note_on_c, 3, 61, 107
5, 29616, Note_on_c, 3, 61, 0
5, 29640, Note_on_c, 3, 59, 107
5, 29736, Note_on_c, 3, 59, 0
5, 29760, Note_on_c, 3, 61, 107
5, 29856, Note_on_c, 3, 61, 0
5, 29880, Note_on_c, 3, 59, 107
5, 29976, Note_on_c, 3, 59, 0
5, 30000, Note_on_c, 3, 58, 107
5, 30096, Note_on_c, 3, 58, 0
5, 30120, Note_on_c, 3, 56, 107
5, 30216, Note_on_c, 3, 56, 0
5, 30240, Note_on_c, 3, 58, 107
5, 30432, Note_on_c, 3, 58, 0
5, 30480, Note_on_c, 3, 61, 107
5, 30672, Note_on_c, 3, 61, 0
5, 30840, Note_on_c, 3, 66, 107
5, 30936, Note_on_c, 3, 66, 0
5, 30960, Note_on_c, 3, 66, 107
5, 31152, Note_on_c, 3, 66, 0
5, 31200, Note_on_c, 3, 62, 107
5, 31392, Note_on_c, 3, 62, 0
5, 31560, Note_on_c, 3, 56, 107
5, 31656, Note_on_c, 3, 56, 0
5, 31680, Note_on_c, 3, 58, 107
5, 31872, Note_on_c, 3, 58, 0
5, 31920, Note_on_c, 3, 61, 107
5, 32112, Note_on_c, 3, 61, 0
5, 32280, Note_on_c, 3, 66, 107
5, 32376, Note_on_c, 3, 66, 0
5, 32400, Note_on_c, 3, 66, 107
5, 32592, Note_on_c, 3, 66, 0
5, 32640, Note_on_c, 3, 62, 107
5, 32832, Note_on_c, 3, 62, 0
5, 33000, Note_on_c, 3, 71, 107
5, 33000, Note_on_c, 3, 59, 107
5, 33096, Note_on_c, 3, 59, 0
5, 33096, Note_on_c, 3, 71, 0
5, 33120, Note_on_c, 3, 56, 107
5, 33216, Note_on_c, 3, 56, 0
5, 33240, Note_on_c, 3, 65, 107
5, 33336, Note_on_c, 3, 65, 0
5, 33360, Note_on_c, 3, 65, 107
5, 33456, Note_on_c, 3, 65, 0
5, 33480, Note_on_c, 3, 65, 107
5, 33576, Note_on_c, 3, 65, 0
5, 33600, Note_on_c, 3, 65, 107
5, 33696, Note_on_c, 3, 65, 0
5, 33720, Note_on_c, 3, 65, 107
5, 33816, Note_on_c, 3, 65, 0
5, 33960, Note_on_c, 3, 65, 107
5, 34056, Note_on_c, 3, 65, 0
5, 34080, Note_on_c, 3, 65, 107
5, 34176, Note_on_c, 3, 65, 0
5, 34200, Note_on_c, 3, 65, 107
5, 34296, Note_on_c, 3, 65, 0
5, 34320, Note_on_c, 3, 65, 107
5, 34416, Note_on_c, 3, 65, 0
5, 34440, Note_on_c, 3, 65, 107
5, 34536, Note_on_c, 3, 65, 0
5, 34680, Note_on_c, 3, 66, 107
5, 34776, Note_on_c, 3, 66, 0
5, 34800, Note_on_c, 3, 66, 107
5, 34896, Note_on_c, 3, 66, 0
5, 34920, Note_on_c, 3, 66, 107
5, 35016, Note_on_c, 3, 66, 0
5, 35040, Note_on_c, 3, 66, 107
5, 35136, Note_on_c, 3, 66, 0
5, 35160, Note_on_c, 3, 66, 107
5, 35256, Note_on_c, 3, 66, 0
5, 35400, Note_on_c, 3, 64, 107
5, 35496, Note_on_c, 3, 64, 0
5, 35520, Note_on_c, 3, 64, 107
5, 35616, Note_on_c, 3, 64, 0
5, 35640, Note_on_c, 3, 64, 107
5, 35736, Note_on_c, 3, 64, 0
5, 35760, Note_on_c, 3, 64, 107
5, 35856, Note_on_c, 3, 64, 0
5, 35880, Note_on_c, 3, 64, 107
5, 35976, Note_on_c, 3, 64, 0
5, 36000, Note_on_c, 3, 62, 107
5, 36192, Note_on_c, 3, 62, 0
5, 36720, Note_on_c, 3, 66, 107
5, 36912, Note_on_c, 3, 66, 0
5, 37560, Note_on_c, 3, 56, 107
5, 37656, Note_on_c, 3, 56, 0
5, 37680, Note_on_c, 3, 59, 107
5, 37776, Note_on_c, 3, 59, 0
5, 37800, Note_on_c, 3, 64, 107
5, 37896, Note_on_c, 3, 64, 0
5, 37920, Note_on_c, 3, 68, 107
5, 38145, Note_on_c, 3, 68, 0
5, 38280, Note_on_c, 3, 56, 107
5, 38376, Note_on_c, 3, 56, 0
5, 38400, Note_on_c, 3, 59, 107
5, 38496, Note_on_c, 3, 59, 0
5, 38520, Note_on_c, 3, 64, 107
5, 38616, Note_on_c, 3, 64, 0
5, 38640, Note_on_c, 3, 68, 107
5, 38736, Note_on_c, 3, 68, 0
5, 38760, Note_on_c, 3, 68, 107
5, 38856, Note_on_c, 3, 68, 0
5, 38880, Note_on_c, 3, 64, 107
5, 39072, Note_on_c, 3, 64, 0
5, 39600, Note_on_c, 3, 69, 107
5, 39792, Note_on_c, 3, 69, 0
5, 40440, Note_on_c, 3, 66, 107
5, 40536, Note_on_c, 3, 66, 0
5, 40560, Note_on_c, 3, 69, 107
5, 40656, Note_on_c, 3, 69, 0
5, 40680, Note_on_c, 3, 74, 107
5, 40776, Note_on_c, 3, 74, 0
5, 40800, Note_on_c, 3, 66, 107
5, 41025, Note_on_c, 3, 66, 0
5, 41160, Note_on_c, 3, 54, 107
5, 41256, Note_on_c, 3, 54, 0
5, 41280, Note_on_c, 3, 57, 107
5, 41376, Note_on_c, 3, 57, 0
5, 41400, Note_on_c, 3, 62, 107
5, 41496, Note_on_c, 3, 62, 0
5, 41520, Note_on_c, 3, 66, 107
5, 41616, Note_on_c, 3, 66, 0
5, 41640, Note_on_c, 3, 66, 107
5, 41736, Note_on_c, 3, 66, 0
5, 41760, Note_on_c, 3, 71, 107
5, 41856, Note_on_c, 3, 71, 0
5, 41880, Note_on_c, 3, 62, 107
5, 41976, Note_on_c, 3, 62, 0
5, 42000, Note_on_c, 3, 74, 107
5, 42096, Note_on_c, 3, 74, 0
5, 42120, Note_on_c, 3, 76, 107
5, 42216, Note_on_c, 3, 76, 0
5, 42240, Note_on_c, 3, 74, 107
5, 42336, Note_on_c, 3, 74, 0
5, 42360, Note_on_c, 3, 72, 107
5, 42456, Note_on_c, 3, 72, 0
5, 42480, Note_on_c, 3, 71, 107
5, 42576, Note_on_c, 3, 71, 0
5, 43320, Note_on_c, 3, 66, 107
5, 43416, Note_on_c, 3, 66, 0
5, 43440, Note_on_c, 3, 67, 107
5, 43536, Note_on_c, 3, 67, 0
5, 43560, Note_on_c, 3, 64, 107
5, 43656, Note_on_c, 3, 64, 0
5, 43680, Note_on_c, 3, 62, 107
5, 43776, Note_on_c, 3, 62, 0
5, 43800, Note_on_c, 3, 60, 107
5, 43896, Note_on_c, 3, 60, 0
5, 43920, Note_on_c, 3, 59, 107
5, 44016, Note_on_c, 3, 59, 0
5, 46200, Note_on_c, 3, 59, 107
5, 46296, Note_on_c, 3, 59, 0
5, 46320, Note_on_c, 3, 57, 107
5, 46416, Note_on_c, 3, 57, 0
5, 46440, Note_on_c, 3, 59, 107
5, 46536, Note_on_c, 3, 59, 0
5, 46560, Note_on_c, 3, 60, 107
5, 46656, Note_on_c, 3, 60, 0
5, 46680, Note_on_c, 3, 57, 107
5, 46776, Note_on_c, 3, 57, 0
5, 46800, Note_on_c, 3, 59, 107
5, 46896, Note_on_c, 3, 59, 0
5, 46920, Note_on_c, 3, 55, 107
5, 47016, Note_on_c, 3, 55, 0
5, 47040, Note_on_c, 3, 54, 107
5, 47136, Note_on_c, 3, 54, 0
5, 47160, Note_on_c, 3, 55, 107
5, 47256, Note_on_c, 3, 55, 0
5, 47280, Note_on_c, 3, 57, 107
5, 47376, Note_on_c, 3, 57, 0
5, 47400, Note_on_c, 3, 54, 107
5, 47496, Note_on_c, 3, 54, 0
5, 47520, Note_on_c, 3, 55, 107
5, 47616, Note_on_c, 3, 55, 0
5, 48240, Note_on_c, 3, 62, 107
5, 48336, Note_on_c, 3, 62, 0
5, 48960, Note_on_c, 3, 62, 107
5, 49056, Note_on_c, 3, 62, 0
5, 49680, Note_on_c, 3, 64, 107
5, 49776, Note_on_c, 3, 64, 0
5, 50400, Note_on_c, 3, 62, 107
5, 50496, Note_on_c, 3, 62, 0
5, 51120, Note_on_c, 3, 62, 107
5, 51216, Note_on_c, 3, 62, 0
5, 51840, Note_on_c, 3, 60, 107
5, 51936, Note_on_c, 3, 60, 0
5, 52560, Note_on_c, 3, 60, 107
5, 52656, Note_on_c, 3, 60, 0
5, 53280, Note_on_c, 3, 59, 107
5, 53376, Note_on_c, 3, 59, 0
5, 54000, Note_on_c, 3, 59, 107
5, 54096, Note_on_c, 3, 59, 0
5, 54720, Note_on_c, 3, 57, 107
5, 54816, Note_on_c, 3, 57, 0
5, 55440, Note_on_c, 3, 57, 107
5, 55536, Note_on_c, 3, 57, 0
5, 56160, Note_on_c, 3, 59, 107
5, 56280, Note_on_c, 3, 59, 0
5, 56280, Note_on_c, 3, 55, 107
5, 56400, Note_on_c, 3, 55, 0
5, 56400, Note_on_c, 3, 55, 107
5, 56520, Note_on_c, 3, 55, 0
5, 56520, Note_on_c, 3, 55, 107
5, 56640, Note_on_c, 3, 55, 0
5, 56640, Note_on_c, 3, 55, 107
5, 56760, Note_on_c, 3, 55, 0
5, 56760, Note_on_c, 3, 55, 107
5, 56856, Note_on_c, 3, 55, 0
5, 57000, Note_on_c, 3, 59, 107
5, 57120, Note_on_c, 3, 59, 0
5, 57120, Note_on_c, 3, 59, 107
5, 57240, Note_on_c, 3, 59, 0
5, 57240, Note_on_c, 3, 59, 107
5, 57360, Note_on_c, 3, 59, 0
5, 57360, Note_on_c, 3, 59, 107
5, 57480, Note_on_c, 3, 59, 0
5, 57480, Note_on_c, 3, 59, 107
5, 57576, Note_on_c, 3, 59, 0
5, 57720, Note_on_c, 3, 62, 107
5, 57840, Note_on_c, 3, 62, 0
5, 57840, Note_on_c, 3, 62, 107
5, 57960, Note_on_c, 3, 62, 0
5, 57960, Note_on_c, 3, 62, 107
5, 58080, Note_on_c, 3, 62, 0
5, 58080, Note_on_c, 3, 62, 107
5, 58200, Note_on_c, 3, 62, 0
5, 58200, Note_on_c, 3, 62, 107
5, 58296, Note_on_c, 3, 62, 0
5, 58440, Note_on_c, 3, 59, 107
5, 58560, Note_on_c, 3, 59, 0
5, 58560, Note_on_c, 3, 59, 107
5, 58680, Note_on_c, 3, 59, 0
5, 58680, Note_on_c, 3, 59, 107
5, 58800, Note_on_c, 3, 59, 0
5, 58800, Note_on_c, 3, 59, 107
5, 58920, Note_on_c, 3, 59, 0
5, 58920, Note_on_c, 3, 59, 107
5, 59016, Note_on_c, 3, 59, 0
5, 59160, Note_on_c, 3, 57, 107
5, 59280, Note_on_c, 3, 57, 0
5, 59280, Note_on_c, 3, 57, 107
5, 59400, Note_on_c, 3, 57, 0
5, 59400, Note_on_c, 3, 57, 107
5, 59520, Note_on_c, 3, 57, 0
5, 59520, Note_on_c, 3, 57, 107
5, 59640, Note_on_c, 3, 57, 0
5, 59640, Note_on_c, 3, 57, 107
5, 59736, Note_on_c, 3, 57, 0
5, 59880, Note_on_c, 3, 60, 107
5, 60000, Note_on_c, 3, 60, 0
5, 60000, Note_on_c, 3, 60, 107
5, 60120, Note_on_c, 3, 60, 0
5, 60120, Note_on_c, 3, 60, 107
5, 60240, Note_on_c, 3, 60, 0
5, 60240, Note_on_c, 3, 60, 107
5, 60360, Note_on_c, 3, 60, 0
5, 60360, Note_on_c, 3, 60, 107
5, 60456, Note_on_c, 3, 60, 0
5, 60600, Note_on_c, 3, 61, 107
5, 60720, Note_on_c, 3, 61, 0
5, 60720, Note_on_c, 3, 61, 107
5, 60840, Note_on_c, 3, 61, 0
5, 60840, Note_on_c, 3, 61, 107
5, 60960, Note_on_c, 3, 61, 0
5, 60960, Note_on_c, 3, 61, 107
5, 61080, Note_on_c, 3, 61, 0
5, 61080, Note_on_c, 3, 61, 107
5, 61176, Note_on_c, 3, 61, 0
5, 61320, Note_on_c, 3, 61, 107
5, 61440, Note_on_c, 3, 61, 0
5, 61440, Note_on_c, 3, 61, 107
5, 61560, Note_on_c, 3, 61, 0
5, 61560, Note_on_c, 3, 61, 107
5, 61680, Note_on_c, 3, 61, 0
5, 61680, Note_on_c, 3, 61, 107
5, 61800, Note_on_c, 3, 61, 0
5, 61800, Note_on_c, 3, 61, 107
5, 61896, Note_on_c, 3, 61, 0
5, 62040, Note_on_c, 3, 59, 107
5, 62160, Note_on_c, 3, 59, 0
5, 62160, Note_on_c, 3, 59, 107
5, 62280, Note_on_c, 3, 59, 0
5, 62280, Note_on_c, 3, 59, 107
5, 62400, Note_on_c, 3, 59, 0
5, 62400, Note_on_c, 3, 59, 107
5, 62520, Note_on_c, 3, 59, 0
5, 62520, Note_on_c, 3, 59, 107
5, 62616, Note_on_c, 3, 59, 0
5, 62760, Note_on_c, 3, 64, 107
5, 62880, Note_on_c, 3, 64, 0
5, 62880, Note_on_c, 3, 64, 107
5, 63000, Note_on_c, 3, 64, 0
5, 63000, Note_on_c, 3, 64, 107
5, 63120, Note_on_c, 3, 64, 0
5, 63120, Note_on_c, 3, 64, 107
5, 63240, Note_on_c, 3, 64, 0
5, 63240, Note_on_c, 3, 64, 107
5, 63336, Note_on_c, 3, 64, 0
5, 63480, Note_on_c, 3, 72, 107
5, 63600, Note_on_c, 3, 72, 0
5, 63600, Note_on_c, 3, 72, 107
5, 63720, Note_on_c, 3, 72, 0
5, 63720, Note_on_c, 3, 72, 107
5, 63840, Note_on_c, 3, 72, 0
5, 63840, Note_on_c, 3, 72, 107
5, 63960, Note_on_c, 3, 72, 0
5, 63960, Note_on_c, 3, 72, 107
5, 64056, Note_on_c, 3, 72, 0
5, 64080, Note_on_c, 3, 66, 107
5, 66690, Note_on_c, 3, 66, 0
5, 66720, Note_on_c, 3, 71, 107
5, 66912, Note_on_c, 3, 71, 0
5, 66960, Note_on_c, 3, 71, 107
5, 67056, Note_on_c, 3, 71, 0
5, 67200, Note_on_c, 3, 69, 107
5, 67296, Note_on_c, 3, 69, 0
5, 67440, Note_on_c, 3, 71, 107
5, 67536, Note_on_c, 3, 71, 0
5, 67680, Note_on_c, 3, 72, 107
5, 67776, Note_on_c, 3, 72, 0
5, 67920, Note_on_c, 3, 66, 107
5, 68016, Note_on_c, 3, 66, 0
5, 68160, Note_on_c, 3, 68, 107
5, 68256, Note_on_c, 3, 68, 0
5, 68400, Note_on_c, 3, 69, 107
5, 68496, Note_on_c, 3, 69, 0
5, 68640, Note_on_c, 3, 63, 107
5, 68736, Note_on_c, 3, 63, 0
5, 68880, Note_on_c, 3, 64, 107
5, 68976, Note_on_c, 3, 64, 0
5, 71280, Note_on_c, 3, 63, 107
5, 71472, Note_on_c, 3, 63, 0
5, 71520, Note_on_c, 3, 59, 107
5, 71712, Note_on_c, 3, 59, 0
5, 72000, Note_on_c, 3, 59, 107
5, 72192, Note_on_c, 3, 59, 0
5, 72240, Note_on_c, 3, 67, 107
5, 72432, Note_on_c, 3, 67, 0
5, 72840, Note_on_c, 3, 63, 107
5, 72936, Note_on_c, 3, 63, 0
5, 72960, Note_on_c, 3, 66, 107
5, 73056, Note_on_c, 3, 66, 0
5, 73080, Note_on_c, 3, 71, 107
5, 73176, Note_on_c, 3, 71, 0
5, 73200, Note_on_c, 3, 75, 107
5, 73296, Note_on_c, 3, 75, 0
5, 73560, Note_on_c, 3, 63, 107
5, 73656, Note_on_c, 3, 63, 0
5, 73680, Note_on_c, 3, 66, 107
5, 73776, Note_on_c, 3, 66, 0
5, 73800, Note_on_c, 3, 71, 107
5, 73896, Note_on_c, 3, 71, 0
5, 73920, Note_on_c, 3, 75, 107
5, 74016, Note_on_c, 3, 75, 0
5, 74880, Note_on_c, 3, 63, 107
5, 75456, Note_on_c, 3, 63, 0
5, 75600, Note_on_c, 3, 59, 107
5, 75792, Note_on_c, 3, 59, 0
5, 75840, Note_on_c, 3, 64, 107
5, 76224, Note_on_c, 3, 64, 0
5, 76320, Note_on_c, 3, 60, 107
5, 76512, Note_on_c, 3, 60, 0
5, 76560, Note_on_c, 3, 59, 107
5, 76752, Note_on_c, 3, 59, 0
5, 76920, Note_on_c, 3, 64, 107
5, 76920, Note_on_c, 3, 71, 107
5, 77016, Note_on_c, 3, 71, 0
5, 77016, Note_on_c, 3, 64, 0
5, 77040, Note_on_c, 3, 64, 107
5, 77136, Note_on_c, 3, 64, 0
5, 77160, Note_on_c, 3, 63, 107
5, 77256, Note_on_c, 3, 63, 0
5, 77280, Note_on_c, 3, 64, 107
5, 77376, Note_on_c, 3, 64, 0
5, 77400, Note_on_c, 3, 60, 107
5, 77496, Note_on_c, 3, 60, 0
5, 77520, Note_on_c, 3, 59, 107
5, 77616, Note_on_c, 3, 59, 0
5, 77640, Note_on_c, 3, 59, 107
5, 77736, Note_on_c, 3, 59, 0
5, 77760, Note_on_c, 3, 59, 107
5, 78336, Note_on_c, 3, 59, 0
5, 78480, Note_on_c, 3, 61, 107
5, 79056, Note_on_c, 3, 61, 0
5, 79200, Note_on_c, 3, 57, 107
5, 79584, Note_on_c, 3, 57, 0
5, 79680, Note_on_c, 3, 59, 107
5, 79872, Note_on_c, 3, 59, 0
5, 79920, Note_on_c, 3, 64, 107
5, 80496, Note_on_c, 3, 64, 0
5, 80640, Note_on_c, 3, 64, 107
5, 80736, Note_on_c, 3, 64, 0
5, 81480, Note_on_c, 3, 67, 107
5, 81576, Note_on_c, 3, 67, 0
5, 81600, Note_on_c, 3, 66, 107
5, 81696, Note_on_c, 3, 66, 0
5, 81720, Note_on_c, 3, 64, 107
5, 81816, Note_on_c, 3, 64, 0
5, 81840, Note_on_c, 3, 62, 107
5, 81936, Note_on_c, 3, 62, 0
5, 81960, Note_on_c, 3, 60, 107
5, 82056, Note_on_c, 3, 60, 0
5, 82080, Note_on_c, 3, 59, 107
5, 82272, Note_on_c, 3, 59, 0
5, 82920, Note_on_c, 3, 66, 107
5, 83016, Note_on_c, 3, 66, 0
5, 83040, Note_on_c, 3, 64, 107
5, 83136, Note_on_c, 3, 64, 0
5, 83160, Note_on_c, 3, 62, 107
5, 83256, Note_on_c, 3, 62, 0
5, 83280, Note_on_c, 3, 61, 107
5, 83376, Note_on_c, 3, 61, 0
5, 83400, Note_on_c, 3, 59, 107
5, 83496, Note_on_c, 3, 59, 0
5, 83520, Note_on_c, 3, 57, 107
5, 83712, Note_on_c, 3, 57, 0
5, 84360, Note_on_c, 3, 64, 107
5, 84456, Note_on_c, 3, 64, 0
5, 84480, Note_on_c, 3, 62, 107
5, 84576, Note_on_c, 3, 62, 0
5, 84600, Note_on_c, 3, 60, 107
5, 84696, Note_on_c, 3, 60, 0
5, 84720, Note_on_c, 3, 59, 107
5, 84816, Note_on_c, 3, 59, 0
5, 84840, Note_on_c, 3, 57, 107
5, 84936, Note_on_c, 3, 57, 0
5, 84960, Note_on_c, 3, 55, 107
5, 85152, Note_on_c, 3, 55, 0
5, 85680, Note_on_c, 3, 57, 107
5, 86064, Note_on_c, 3, 57, 0
5, 86400, Note_on_c, 3, 57, 107
5, 87504, Note_on_c, 3, 57, 0
5, 87840, Note_on_c, 3, 57, 107
5, 87953, Note_on_c, 3, 57, 0
5, 88560, Note_on_c, 3, 64, 107
5, 88673, Note_on_c, 3, 64, 0
5, 89280, Note_on_c, 3, 66, 107
5, 89393, Note_on_c, 3, 66, 0
5, 90000, Note_on_c, 3, 61, 107
5, 90113, Note_on_c, 3, 61, 0
5, 90120, Note_on_c, 3, 57, 107
5, 90233, Note_on_c, 3, 57, 0
5, 90240, Note_on_c, 3, 61, 107
5, 90336, Note_on_c, 3, 61, 0
5, 90360, Note_on_c, 3, 76, 107
5, 90456, Note_on_c, 3, 76, 0
5, 90480, Note_on_c, 3, 67, 107
5, 90576, Note_on_c, 3, 67, 0
5, 90600, Note_on_c, 3, 61, 107
5, 90696, Note_on_c, 3, 61, 0
5, 90720, Note_on_c, 3, 62, 107
5, 90816, Note_on_c, 3, 62, 0
5, 90840, Note_on_c, 3, 62, 107
5, 90936, Note_on_c, 3, 62, 0
5, 90960, Note_on_c, 3, 64, 107
5, 91056, Note_on_c, 3, 64, 0
5, 91080, Note_on_c, 3, 66, 107
5, 91176, Note_on_c, 3, 66, 0
5, 91200, Note_on_c, 3, 67, 107
5, 91296, Note_on_c, 3, 67, 0
5, 91320, Note_on_c, 3, 69, 107
5, 91416, Note_on_c, 3, 69, 0
5, 91440, Note_on_c, 3, 61, 107
5, 92016, Note_on_c, 3, 61, 0
5, 92040, Note_on_c, 3, 61, 107
5, 92136, Note_on_c, 3, 61, 0
5, 92160, Note_on_c, 3, 57, 107
5, 92352, Note_on_c, 3, 57, 0
5, 92520, Note_on_c, 3, 64, 107
5, 92616, Note_on_c, 3, 64, 0
5, 92640, Note_on_c, 3, 69, 107
5, 92736, Note_on_c, 3, 69, 0
5, 92760, Note_on_c, 3, 67, 107
5, 92856, Note_on_c, 3, 67, 0
5, 92880, Note_on_c, 3, 66, 107
5, 93168, Note_on_c, 3, 66, 0
5, 93240, Note_on_c, 3, 71, 107
5, 93336, Note_on_c, 3, 71, 0
5, 93360, Note_on_c, 3, 72, 107
5, 93456, Note_on_c, 3, 72, 0
5, 93480, Note_on_c, 3, 69, 107
5, 93576, Note_on_c, 3, 69, 0
5, 93600, Note_on_c, 3, 62, 107
5, 93888, Note_on_c, 3, 62, 0
5, 93960, Note_on_c, 3, 69, 107
5, 94056, Note_on_c, 3, 69, 0
5, 94080, Note_on_c, 3, 71, 107
5, 94176, Note_on_c, 3, 71, 0
5, 94200, Note_on_c, 3, 67, 107
5, 94296, Note_on_c, 3, 67, 0
5, 94320, Note_on_c, 3, 62, 107
5, 94608, Note_on_c, 3, 62, 0
5, 94680, Note_on_c, 3, 67, 107
5, 94776, Note_on_c, 3, 67, 0
5, 94800, Note_on_c, 3, 69, 107
5, 94896, Note_on_c, 3, 69, 0
5, 94920, Note_on_c, 3, 66, 107
5, 95016, Note_on_c, 3, 66, 0
5, 95040, Note_on_c, 3, 78, 107
5, 95064, Note_on_c, 3, 78, 0
5, 95070, Note_on_c, 3, 76, 107
5, 95094, Note_on_c, 3, 76, 0
5, 95100, Note_on_c, 3, 78, 107
5, 95124, Note_on_c, 3, 78, 0
5, 95130, Note_on_c, 3, 76, 107
5, 95154, Note_on_c, 3, 76, 0
5, 95160, Note_on_c, 3, 78, 107
5, 95184, Note_on_c, 3, 78, 0
5, 95190, Note_on_c, 3, 76, 107
5, 95214, Note_on_c, 3, 76, 0
5, 95220, Note_on_c, 3, 78, 107
5, 95244, Note_on_c, 3, 78, 0
5, 95250, Note_on_c, 3, 76, 107
5, 95274, Note_on_c, 3, 76, 0
5, 95280, Note_on_c, 3, 78, 107
5, 95304, Note_on_c, 3, 78, 0
5, 95310, Note_on_c, 3, 76, 107
5, 95334, Note_on_c, 3, 76, 0
5, 95340, Note_on_c, 3, 78, 107
5, 95364, Note_on_c, 3, 78, 0
5, 95370, Note_on_c, 3, 76, 107
5, 95394, Note_on_c, 3, 76, 0
5, 95400, Note_on_c, 3, 78, 107
5, 95424, Note_on_c, 3, 78, 0
5, 95430, Note_on_c, 3, 76, 107
5, 95454, Note_on_c, 3, 76, 0
5, 95460, Note_on_c, 3, 78, 107
5, 95484, Note_on_c, 3, 78, 0
5, 95490, Note_on_c, 3, 76, 107
5, 95514, Note_on_c, 3, 76, 0
5, 95520, Note_on_c, 3, 78, 107
5, 95544, Note_on_c, 3, 78, 0
5, 95550, Note_on_c, 3, 76, 107
5, 95574, Note_on_c, 3, 76, 0
5, 95580, Note_on_c, 3, 78, 107
5, 95604, Note_on_c, 3, 78, 0
5, 95610, Note_on_c, 3, 76, 107
5, 96048, Note_on_c, 3, 76, 0
5, 96120, Note_on_c, 3, 61, 107
5, 96216, Note_on_c, 3, 61, 0
5, 96240, Note_on_c, 3, 57, 107
5, 96336, Note_on_c, 3, 57, 0
5, 96360, Note_on_c, 3, 69, 107
5, 96456, Note_on_c, 3, 69, 0
5, 96480, Note_on_c, 3, 71, 107
5, 96672, Note_on_c, 3, 71, 0
5, 96720, Note_on_c, 3, 69, 107
5, 96912, Note_on_c, 3, 69, 0
5, 96960, Note_on_c, 3, 67, 107
5, 97152, Note_on_c, 3, 67, 0
5, 97200, Note_on_c, 3, 66, 107
5, 97296, Note_on_c, 3, 66, 0
5, 97320, Note_on_c, 3, 81, 107
5, 97368, Note_on_c, 3, 81, 0
5, 97380, Note_on_c, 3, 79, 107
5, 97428, Note_on_c, 3, 79, 0
5, 97440, Note_on_c, 3, 78, 107
5, 97536, Note_on_c, 3, 78, 0
5, 97560, Note_on_c, 3, 76, 107
5, 97656, Note_on_c, 3, 76, 0
5, 97680, Note_on_c, 3, 74, 107
5, 97776, Note_on_c, 3, 74, 0
5, 97800, Note_on_c, 3, 73, 107
5, 97896, Note_on_c, 3, 73, 0
5, 97920, Note_on_c, 3, 74, 107
5, 98016, Note_on_c, 3, 74, 0
5, 98040, Note_on_c, 3, 69, 107
5, 98088, Note_on_c, 3, 69, 0
5, 98100, Note_on_c, 3, 67, 107
5, 98148, Note_on_c, 3, 67, 0
5, 98160, Note_on_c, 3, 66, 107
5, 98273, Note_on_c, 3, 66, 0
5, 98280, Note_on_c, 3, 64, 107
5, 98393, Note_on_c, 3, 64, 0
5, 98400, Note_on_c, 3, 62, 107
5, 98513, Note_on_c, 3, 62, 0
5, 98520, Note_on_c, 3, 61, 107
5, 98633, Note_on_c, 3, 61, 0
5, 98640, Note_on_c, 3, 62, 107
5, 99216, Note_on_c, 3, 62, 0
5, 99216, End_track
6, 0, Start_track
6, 0, MIDI_port, 0
6, 0, Title_t, "Cello"
6, 0, Program_c, 4, 42
6, 0, Control_c, 4, 7, 79
6, 0, Control_c, 4, 10, 64
6, 0, Note_on_c, 4, 62, 107
6, 96, Note_on_c, 4, 62, 0
6, 240, Note_on_c, 4, 50, 107
6, 336, Note_on_c, 4, 50, 0
6, 840, Note_on_c, 4, 50, 107
6, 888, Note_on_c, 4, 50, 0
6, 900, Note_on_c, 4, 49, 107
6, 948, Note_on_c, 4, 49, 0
6, 960, Note_on_c, 4, 50, 107
6, 1056, Note_on_c, 4, 50, 0
6, 1080, Note_on_c, 4, 45, 107
6, 1176, Note_on_c, 4, 45, 0
6, 1200, Note_on_c, 4, 42, 107
6, 1296, Note_on_c, 4, 42, 0
6, 1320, Note_on_c, 4, 45, 107
6, 1416, Note_on_c, 4, 45, 0
6, 1440, Note_on_c, 4, 38, 107
6, 1536, Note_on_c, 4, 38, 0
6, 2460, Note_on_c, 4, 62, 107
6, 2508, Note_on_c, 4, 62, 0
6, 2520, Note_on_c, 4, 61, 107
6, 2568, Note_on_c, 4, 61, 0
6, 2580, Note_on_c, 4, 59, 107
6, 2628, Note_on_c, 4, 59, 0
6, 2640, Note_on_c, 4, 57, 107
6, 2688, Note_on_c, 4, 57, 0
6, 2700, Note_on_c, 4, 55, 107
6, 2748, Note_on_c, 4, 55, 0
6, 2760, Note_on_c, 4, 54, 107
6, 2808, Note_on_c, 4, 54, 0
6, 2820, Note_on_c, 4, 52, 107
6, 2868, Note_on_c, 4, 52, 0
6, 2880, Note_on_c, 4, 50, 107
6, 2976, Note_on_c, 4, 50, 0
6, 3900, Note_on_c, 4, 50, 107
6, 3948, Note_on_c, 4, 50, 0
6, 3960, Note_on_c, 4, 49, 107
6, 4008, Note_on_c, 4, 49, 0
6, 4020, Note_on_c, 4, 47, 107
6, 4068, Note_on_c, 4, 47, 0
6, 4080, Note_on_c, 4, 45, 107
6, 4128, Note_on_c, 4, 45, 0
6, 4140, Note_on_c, 4, 43, 107
6, 4188, Note_on_c, 4, 43, 0
6, 4200, Note_on_c, 4, 42, 107
6, 4248, Note_on_c, 4, 42, 0
6, 4260, Note_on_c, 4, 40, 107
6, 4308, Note_on_c, 4, 40, 0
6, 4320, Note_on_c, 4, 38, 107
6, 4416, Note_on_c, 4, 38, 0
6, 5040, Note_on_c, 4, 38, 107
6, 5136, Note_on_c, 4, 38, 0
6, 5760, Note_on_c, 4, 38, 107
6, 5856, Note_on_c, 4, 38, 0
6, 6600, Note_on_c, 4, 50, 107
6, 6648, Note_on_c, 4, 50, 0
6, 6660, Note_on_c, 4, 52, 107
6, 6708, Note_on_c, 4, 52, 0
6, 6720, Note_on_c, 4, 54, 107
6, 6816, Note_on_c, 4, 54, 0
6, 6840, Note_on_c, 4, 55, 107
6, 6936, Note_on_c, 4, 55, 0
6, 6960, Note_on_c, 4, 54, 107
6, 7056, Note_on_c, 4, 54, 0
6, 7080, Note_on_c, 4, 52, 107
6, 7176, Note_on_c, 4, 52, 0
6, 7200, Note_on_c, 4, 50, 107
6, 7296, Note_on_c, 4, 50, 0
6, 8040, Note_on_c, 4, 38, 107
6, 8088, Note_on_c, 4, 38, 0
6, 8100, Note_on_c, 4, 40, 107
6, 8148, Note_on_c, 4, 40, 0
6, 8160, Note_on_c, 4, 42, 107
6, 8256, Note_on_c, 4, 42, 0
6, 8280, Note_on_c, 4, 43, 107
6, 8376, Note_on_c, 4, 43, 0
6, 8400, Note_on_c, 4, 42, 107
6, 8496, Note_on_c, 4, 42, 0
6, 8520, Note_on_c, 4, 40, 107
6, 8616, Note_on_c, 4, 40, 0
6, 8640, Note_on_c, 4, 38, 107
6, 8865, Note_on_c, 4, 38, 0
6, 10080, Note_on_c, 4, 38, 107
6, 10305, Note_on_c, 4, 38, 0
6, 11640, Note_on_c, 4, 50, 107
6, 11753, Note_on_c, 4, 50, 0
6, 11760, Note_on_c, 4, 50, 107
6, 11873, Note_on_c, 4, 50, 0
6, 11880, Note_on_c, 4, 50, 107
6, 11993, Note_on_c, 4, 50, 0
6, 12000, Note_on_c, 4, 50, 107
6, 12113, Note_on_c, 4, 50, 0
6, 12120, Note_on_c, 4, 50, 107
6, 12233, Note_on_c, 4, 50, 0
6, 12360, Note_on_c, 4, 50, 107
6, 12480, Note_on_c, 4, 50, 0
6, 12480, Note_on_c, 4, 50, 107
6, 12600, Note_on_c, 4, 50, 0
6, 12600, Note_on_c, 4, 50, 107
6, 12720, Note_on_c, 4, 50, 0
6, 12720, Note_on_c, 4, 50, 107
6, 12840, Note_on_c, 4, 50, 0
6, 12840, Note_on_c, 4, 50, 107
6, 12960, Note_on_c, 4, 50, 0
6, 13080, Note_on_c, 4, 50, 107
6, 13200, Note_on_c, 4, 50, 0
6, 13200, Note_on_c, 4, 50, 107
6, 13320, Note_on_c, 4, 50, 0
6, 13320, Note_on_c, 4, 50, 107
6, 13440, Note_on_c, 4, 50, 0
6, 13440, Note_on_c, 4, 50, 107
6, 13560, Note_on_c, 4, 50, 0
6, 13560, Note_on_c, 4, 50, 107
6, 13680, Note_on_c, 4, 50, 0
6, 13800, Note_on_c, 4, 50, 107
6, 13920, Note_on_c, 4, 50, 0
6, 13920, Note_on_c, 4, 50, 107
6, 14040, Note_on_c, 4, 50, 0
6, 14040, Note_on_c, 4, 50, 107
6, 14160, Note_on_c, 4, 50, 0
6, 14160, Note_on_c, 4, 50, 107
6, 14280, Note_on_c, 4, 50, 0
6, 14280, Note_on_c, 4, 50, 107
6, 14400, Note_on_c, 4, 50, 0
6, 14520, Note_on_c, 4, 50, 107
6, 14640, Note_on_c, 4, 50, 0
6, 14640, Note_on_c, 4, 50, 107
6, 14760, Note_on_c, 4, 50, 0
6, 14760, Note_on_c, 4, 50, 107
6, 14880, Note_on_c, 4, 50, 0
6, 14880, Note_on_c, 4, 50, 107
6, 15000, Note_on_c, 4, 50, 0
6, 15000, Note_on_c, 4, 50, 107
6, 15120, Note_on_c, 4, 50, 0
6, 15240, Note_on_c, 4, 50, 107
6, 15360, Note_on_c, 4, 50, 0
6, 15360, Note_on_c, 4, 50, 107
6, 15480, Note_on_c, 4, 50, 0
6, 15480, Note_on_c, 4, 50, 107
6, 15600, Note_on_c, 4, 50, 0
6, 15600, Note_on_c, 4, 50, 107
6, 15720, Note_on_c, 4, 50, 0
6, 15720, Note_on_c, 4, 50, 107
6, 15840, Note_on_c, 4, 50, 0
6, 15960, Note_on_c, 4, 50, 107
6, 16080, Note_on_c, 4, 50, 0
6, 16080, Note_on_c, 4, 50, 107
6, 16200, Note_on_c, 4, 50, 0
6, 16200, Note_on_c, 4, 50, 107
6, 16320, Note_on_c, 4, 50, 0
6, 16320, Note_on_c, 4, 50, 107
6, 16440, Note_on_c, 4, 50, 0
6, 16440, Note_on_c, 4, 50, 107
6, 16560, Note_on_c, 4, 50, 0
6, 16680, Note_on_c, 4, 50, 107
6, 16800, Note_on_c, 4, 50, 0
6, 16800, Note_on_c, 4, 50, 107
6, 16920, Note_on_c, 4, 50, 0
6, 16920, Note_on_c, 4, 50, 107
6, 17040, Note_on_c, 4, 50, 0
6, 17040, Note_on_c, 4, 50, 107
6, 17160, Note_on_c, 4, 50, 0
6, 17160, Note_on_c, 4, 50, 107
6, 17280, Note_on_c, 4, 50, 0
6, 17400, Note_on_c, 4, 50, 107
6, 17520, Note_on_c, 4, 50, 0
6, 17520, Note_on_c, 4, 50, 107
6, 17640, Note_on_c, 4, 50, 0
6, 17640, Note_on_c, 4, 50, 107
6, 17760, Note_on_c, 4, 50, 0
6, 17760, Note_on_c, 4, 50, 107
6, 17880, Note_on_c, 4, 50, 0
6, 17880, Note_on_c, 4, 50, 107
6, 18000, Note_on_c, 4, 50, 0
6, 18120, Note_on_c, 4, 50, 107
6, 18240, Note_on_c, 4, 50, 0
6, 18240, Note_on_c, 4, 50, 107
6, 18360, Note_on_c, 4, 50, 0
6, 18360, Note_on_c, 4, 50, 107
6, 18480, Note_on_c, 4, 50, 0
6, 18480, Note_on_c, 4, 50, 107
6, 18600, Note_on_c, 4, 50, 0
6, 18600, Note_on_c, 4, 50, 107
6, 18720, Note_on_c, 4, 50, 0
6, 18840, Note_on_c, 4, 50, 107
6, 18960, Note_on_c, 4, 50, 0
6, 18960, Note_on_c, 4, 50, 107
6, 19080, Note_on_c, 4, 50, 0
6, 19080, Note_on_c, 4, 50, 107
6, 19200, Note_on_c, 4, 50, 0
6, 19200, Note_on_c, 4, 50, 107
6, 19320, Note_on_c, 4, 50, 0
6, 19320, Note_on_c, 4, 50, 107
6, 19440, Note_on_c, 4, 50, 0
6, 19560, Note_on_c, 4, 50, 107
6, 19680, Note_on_c, 4, 50, 0
6, 19680, Note_on_c, 4, 50, 107
6, 19800, Note_on_c, 4, 50, 0
6, 19800, Note_on_c, 4, 50, 107
6, 19920, Note_on_c, 4, 50, 0
6, 19920, Note_on_c, 4, 50, 107
6, 20040, Note_on_c, 4, 50, 0
6, 20040, Note_on_c, 4, 50, 107
6, 20160, Note_on_c, 4, 50, 0
6, 20160, Note_on_c, 4, 38, 107
6, 20352, Note_on_c, 4, 38, 0
6, 20880, Note_on_c, 4, 50, 107
6, 21072, Note_on_c, 4, 50, 0
6, 21600, Note_on_c, 4, 38, 107
6, 21792, Note_on_c, 4, 38, 0
6, 22320, Note_on_c, 4, 50, 107
6, 22512, Note_on_c, 4, 50, 0
6, 23040, Note_on_c, 4, 51, 107
6, 23153, Note_on_c, 4, 51, 0
6, 23160, Note_on_c, 4, 59, 107
6, 23280, Note_on_c, 4, 59, 0
6, 23280, Note_on_c, 4, 59, 107
6, 23400, Note_on_c, 4, 59, 0
6, 23400, Note_on_c, 4, 59, 107
6, 23520, Note_on_c, 4, 59, 0
6, 23520, Note_on_c, 4, 59, 107
6, 23640, Note_on_c, 4, 59, 0
6, 23640, Note_on_c, 4, 59, 107
6, 23760, Note_on_c, 4, 59, 0
6, 23880, Note_on_c, 4, 54, 107
6, 24000, Note_on_c, 4, 54, 0
6, 24000, Note_on_c, 4, 54, 107
6, 24120, Note_on_c, 4, 54, 0
6, 24120, Note_on_c, 4, 54, 107
6, 24240, Note_on_c, 4, 54, 0
6, 24240, Note_on_c, 4, 54, 107
6, 24360, Note_on_c, 4, 54, 0
6, 24360, Note_on_c, 4, 54, 107
6, 24480, Note_on_c, 4, 54, 0
6, 24600, Note_on_c, 4, 51, 107
6, 24720, Note_on_c, 4, 51, 0
6, 24720, Note_on_c, 4, 51, 107
6, 24840, Note_on_c, 4, 51, 0
6, 24840, Note_on_c, 4, 51, 107
6, 24960, Note_on_c, 4, 51, 0
6, 24960, Note_on_c, 4, 51, 107
6, 25080, Note_on_c, 4, 51, 0
6, 25080, Note_on_c, 4, 51, 107
6, 25200, Note_on_c, 4, 51, 0
6, 25320, Note_on_c, 4, 47, 107
6, 25440, Note_on_c, 4, 47, 0
6, 25440, Note_on_c, 4, 47, 107
6, 25560, Note_on_c, 4, 47, 0
6, 25560, Note_on_c, 4, 47, 107
6, 25680, Note_on_c, 4, 47, 0
6, 25680, Note_on_c, 4, 47, 107
6, 25800, Note_on_c, 4, 47, 0
6, 25800, Note_on_c, 4, 47, 107
6, 25920, Note_on_c, 4, 47, 0
6, 25920, Note_on_c, 4, 40, 107
6, 26112, Note_on_c, 4, 40, 0
6, 26280, Note_on_c, 4, 52, 107
6, 26376, Note_on_c, 4, 52, 0
6, 26400, Note_on_c, 4, 54, 107
6, 26496, Note_on_c, 4, 54, 0
6, 26520, Note_on_c, 4, 46, 107
6, 26616, Note_on_c, 4, 46, 0
6, 26640, Note_on_c, 4, 47, 107
6, 26832, Note_on_c, 4, 47, 0
6, 27000, Note_on_c, 4, 50, 107
6, 27096, Note_on_c, 4, 50, 0
6, 27120, Note_on_c, 4, 47, 107
6, 27216, Note_on_c, 4, 47, 0
6, 27240, Note_on_c, 4, 50, 107
6, 27336, Note_on_c, 4, 50, 0
6, 27360, Note_on_c, 4, 54, 107
6, 30096, Note_on_c, 4, 54, 0
6, 30360, Note_on_c, 4, 42, 107
6, 30480, Note_on_c, 4, 42, 0
6, 30480, Note_on_c, 4, 42, 107
6, 30600, Note_on_c, 4, 42, 0
6, 30600, Note_on_c, 4, 42, 107
6, 30720, Note_on_c, 4, 42, 0
6, 30720, Note_on_c, 4, 42, 107
6, 30840, Note_on_c, 4, 42, 0
6, 30840, Note_on_c, 4, 42, 107
6, 30960, Note_on_c, 4, 42, 0
6, 31080, Note_on_c, 4, 42, 107
6, 31200, Note_on_c, 4, 42, 0
6, 31200, Note_on_c, 4, 42, 107
6, 31320, Note_on_c, 4, 42, 0
6, 31320, Note_on_c, 4, 42, 107
6, 31440, Note_on_c, 4, 42, 0
6, 31440, Note_on_c, 4, 42, 107
6, 31560, Note_on_c, 4, 42, 0
6, 31560, Note_on_c, 4, 42, 107
6, 31680, Note_on_c, 4, 42, 0
6, 31800, Note_on_c, 4, 42, 107
6, 31920, Note_on_c, 4, 42, 0
6, 31920, Note_on_c, 4, 42, 107
6, 32040, Note_on_c, 4, 42, 0
6, 32040, Note_on_c, 4, 42, 107
6, 32160, Note_on_c, 4, 42, 0
6, 32160, Note_on_c, 4, 42, 107
6, 32280, Note_on_c, 4, 42, 0
6, 32280, Note_on_c, 4, 42, 107
6, 32400, Note_on_c, 4, 42, 0
6, 32520, Note_on_c, 4, 42, 107
6, 32640, Note_on_c, 4, 42, 0
6, 32640, Note_on_c, 4, 42, 107
6, 32760, Note_on_c, 4, 42, 0
6, 32760, Note_on_c, 4, 42, 107
6, 32880, Note_on_c, 4, 42, 0
6, 32880, Note_on_c, 4, 42, 107
6, 33000, Note_on_c, 4, 42, 0
6, 33000, Note_on_c, 4, 42, 107
6, 33120, Note_on_c, 4, 42, 0
6, 33120, Note_on_c, 4, 42, 107
6, 33312, Note_on_c, 4, 42, 0
6, 33360, Note_on_c, 4, 54, 107
6, 33552, Note_on_c, 4, 54, 0
6, 33720, Note_on_c, 4, 42, 107
6, 33816, Note_on_c, 4, 42, 0
6, 33840, Note_on_c, 4, 42, 107
6, 34032, Note_on_c, 4, 42, 0
6, 34080, Note_on_c, 4, 54, 107
6, 34272, Note_on_c, 4, 54, 0
6, 34440, Note_on_c, 4, 42, 107
6, 34536, Note_on_c, 4, 42, 0
6, 34560, Note_on_c, 4, 42, 107
6, 34752, Note_on_c, 4, 42, 0
6, 34800, Note_on_c, 4, 54, 107
6, 34992, Note_on_c, 4, 54, 0
6, 35160, Note_on_c, 4, 42, 107
6, 35256, Note_on_c, 4, 42, 0
6, 35280, Note_on_c, 4, 42, 107
6, 35472, Note_on_c, 4, 42, 0
6, 35520, Note_on_c, 4, 54, 107
6, 35712, Note_on_c, 4, 54, 0
6, 35880, Note_on_c, 4, 42, 107
6, 35976, Note_on_c, 4, 42, 0
6, 36000, Note_on_c, 4, 47, 107
6, 36096, Note_on_c, 4, 47, 0
6, 36120, Note_on_c, 4, 47, 107
6, 36216, Note_on_c, 4, 47, 0
6, 36240, Note_on_c, 4, 50, 107
6, 36336, Note_on_c, 4, 50, 0
6, 36360, Note_on_c, 4, 54, 107
6, 36456, Note_on_c, 4, 54, 0
6, 36480, Note_on_c, 4, 59, 107
6, 36672, Note_on_c, 4, 59, 0
6, 36840, Note_on_c, 4, 47, 107
6, 36936, Note_on_c, 4, 47, 0
6, 36960, Note_on_c, 4, 50, 107
6, 37056, Note_on_c, 4, 50, 0
6, 37080, Note_on_c, 4, 54, 107
6, 37176, Note_on_c, 4, 54, 0
6, 37200, Note_on_c, 4, 59, 107
6, 37296, Note_on_c, 4, 59, 0
6, 37320, Note_on_c, 4, 47, 107
6, 37416, Note_on_c, 4, 47, 0
6, 37440, Note_on_c, 4, 52, 107
6, 37632, Note_on_c, 4, 52, 0
6, 38160, Note_on_c, 4, 40, 107
6, 38352, Note_on_c, 4, 40, 0
6, 39000, Note_on_c, 4, 45, 107
6, 39096, Note_on_c, 4, 45, 0
6, 39120, Note_on_c, 4, 49, 107
6, 39216, Note_on_c, 4, 49, 0
6, 39240, Note_on_c, 4, 52, 107
6, 39336, Note_on_c, 4, 52, 0
6, 39360, Note_on_c, 4, 57, 107
6, 39552, Note_on_c, 4, 57, 0
6, 39720, Note_on_c, 4, 45, 107
6, 39816, Note_on_c, 4, 45, 0
6, 39840, Note_on_c, 4, 49, 107
6, 39936, Note_on_c, 4, 49, 0
6, 39960, Note_on_c, 4, 52, 107
6, 40056, Note_on_c, 4, 52, 0
6, 40080, Note_on_c, 4, 57, 107
6, 40176, Note_on_c, 4, 57, 0
6, 40200, Note_on_c, 4, 45, 107
6, 40296, Note_on_c, 4, 45, 0
6, 40320, Note_on_c, 4, 50, 107
6, 40512, Note_on_c, 4, 50, 0
6, 41040, Note_on_c, 4, 38, 107
6, 41232, Note_on_c, 4, 38, 0
6, 41760, Note_on_c, 4, 43, 107
6, 41952, Note_on_c, 4, 43, 0
6, 42600, Note_on_c, 4, 55, 107
6, 42648, Note_on_c, 4, 55, 0
6, 42660, Note_on_c, 4, 57, 107
6, 42708, Note_on_c, 4, 57, 0
6, 42720, Note_on_c, 4, 59, 107
6, 42816, Note_on_c, 4, 59, 0
6, 42840, Note_on_c, 4, 60, 107
6, 42936, Note_on_c, 4, 60, 0
6, 42960, Note_on_c, 4, 59, 107
6, 43056, Note_on_c, 4, 59, 0
6, 43080, Note_on_c, 4, 57, 107
6, 43176, Note_on_c, 4, 57, 0
6, 44040, Note_on_c, 4, 43, 107
6, 44088, Note_on_c, 4, 43, 0
6, 44100, Note_on_c, 4, 45, 107
6, 44148, Note_on_c, 4, 45, 0
6, 44160, Note_on_c, 4, 47, 107
6, 44256, Note_on_c, 4, 47, 0
6, 44280, Note_on_c, 4, 48, 107
6, 44376, Note_on_c, 4, 48, 0
6, 44400, Note_on_c, 4, 47, 107
6, 44496, Note_on_c, 4, 47, 0
6, 44520, Note_on_c, 4, 45, 107
6, 44616, Note_on_c, 4, 45, 0
6, 44640, Note_on_c, 4, 43, 107
6, 44865, Note_on_c, 4, 43, 0
6, 47640, Note_on_c, 4, 43, 107
6, 47760, Note_on_c, 4, 43, 0
6, 47760, Note_on_c, 4, 43, 107
6, 47880, Note_on_c, 4, 43, 0
6, 47880, Note_on_c, 4, 43, 107
6, 48000, Note_on_c, 4, 43, 0
6, 48000, Note_on_c, 4, 43, 107
6, 48120, Note_on_c, 4, 43, 0
6, 48120, Note_on_c, 4, 43, 107
6, 48240, Note_on_c, 4, 43, 0
6, 48360, Note_on_c, 4, 43, 107
6, 48480, Note_on_c, 4, 43, 0
6, 48480, Note_on_c, 4, 43, 107
6, 48600, Note_on_c, 4, 43, 0
6, 48600, Note_on_c, 4, 43, 107
6, 48720, Note_on_c, 4, 43, 0
6, 48720, Note_on_c, 4, 43, 107
6, 48840, Note_on_c, 4, 43, 0
6, 48840, Note_on_c, 4, 43, 107
6, 48960, Note_on_c, 4, 43, 0
6, 49080, Note_on_c, 4, 43, 107
6, 49200, Note_on_c, 4, 43, 0
6, 49200, Note_on_c, 4, 43, 107
6, 49320, Note_on_c, 4, 43, 0
6, 49320, Note_on_c, 4, 43, 107
6, 49440, Note_on_c, 4, 43, 0
6, 49440, Note_on_c, 4, 43, 107
6, 49560, Note_on_c, 4, 43, 0
6, 49560, Note_on_c, 4, 43, 107
6, 49680, Note_on_c, 4, 43, 0
6, 49800, Note_on_c, 4, 43, 107
6, 49920, Note_on_c, 4, 43, 0
6, 49920, Note_on_c, 4, 43, 107
6, 50040, Note_on_c, 4, 43, 0
6, 50040, Note_on_c, 4, 43, 107
6, 50160, Note_on_c, 4, 43, 0
6, 50160, Note_on_c, 4, 43, 107
6, 50280, Note_on_c, 4, 43, 0
6, 50280, Note_on_c, 4, 43, 107
6, 50400, Note_on_c, 4, 43, 0
6, 50520, Note_on_c, 4, 43, 107
6, 50640, Note_on_c, 4, 43, 0
6, 50640, Note_on_c, 4, 43, 107
6, 50760, Note_on_c, 4, 43, 0
6, 50760, Note_on_c, 4, 43, 107
6, 50880, Note_on_c, 4, 43, 0
6, 50880, Note_on_c, 4, 43, 107
6, 51000, Note_on_c, 4, 43, 0
6, 51000, Note_on_c, 4, 43, 107
6, 51120, Note_on_c, 4, 43, 0
6, 51240, Note_on_c, 4, 43, 107
6, 51360, Note_on_c, 4, 43, 0
6, 51360, Note_on_c, 4, 43, 107
6, 51480, Note_on_c, 4, 43, 0
6, 51480, Note_on_c, 4, 43, 107
6, 51600, Note_on_c, 4, 43, 0
6, 51600, Note_on_c, 4, 43, 107
6, 51720, Note_on_c, 4, 43, 0
6, 51720, Note_on_c, 4, 43, 107
6, 51840, Note_on_c, 4, 43, 0
6, 51960, Note_on_c, 4, 43, 107
6, 52080, Note_on_c, 4, 43, 0
6, 52080, Note_on_c, 4, 43, 107
6, 52200, Note_on_c, 4, 43, 0
6, 52200, Note_on_c, 4, 43, 107
6, 52320, Note_on_c, 4, 43, 0
6, 52320, Note_on_c, 4, 43, 107
6, 52440, Note_on_c, 4, 43, 0
6, 52440, Note_on_c, 4, 43, 107
6, 52560, Note_on_c, 4, 43, 0
6, 52680, Note_on_c, 4, 43, 107
6, 52800, Note_on_c, 4, 43, 0
6, 52800, Note_on_c, 4, 43, 107
6, 52920, Note_on_c, 4, 43, 0
6, 52920, Note_on_c, 4, 43, 107
6, 53040, Note_on_c, 4, 43, 0
6, 53040, Note_on_c, 4, 43, 107
6, 53160, Note_on_c, 4, 43, 0
6, 53160, Note_on_c, 4, 43, 107
6, 53280, Note_on_c, 4, 43, 0
6, 53400, Note_on_c, 4, 43, 107
6, 53520, Note_on_c, 4, 43, 0
6, 53520, Note_on_c, 4, 43, 107
6, 53640, Note_on_c, 4, 43, 0
6, 53640, Note_on_c, 4, 43, 107
6, 53760, Note_on_c, 4, 43, 0
6, 53760, Note_on_c, 4, 43, 107
6, 53880, Note_on_c, 4, 43, 0
6, 53880, Note_on_c, 4, 43, 107
6, 54000, Note_on_c, 4, 43, 0
6, 54120, Note_on_c, 4, 43, 107
6, 54240, Note_on_c, 4, 43, 0
6, 54240, Note_on_c, 4, 43, 107
6, 54360, Note_on_c, 4, 43, 0
6, 54360, Note_on_c, 4, 43, 107
6, 54480, Note_on_c, 4, 43, 0
6, 54480, Note_on_c, 4, 43, 107
6, 54600, Note_on_c, 4, 43, 0
6, 54600, Note_on_c, 4, 43, 107
6, 54720, Note_on_c, 4, 43, 0
6, 54840, Note_on_c, 4, 43, 107
6, 54960, Note_on_c, 4, 43, 0
6, 54960, Note_on_c, 4, 43, 107
6, 55080, Note_on_c, 4, 43, 0
6, 55080, Note_on_c, 4, 43, 107
6, 55200, Note_on_c, 4, 43, 0
6, 55200, Note_on_c, 4, 43, 107
6, 55320, Note_on_c, 4, 43, 0
6, 55320, Note_on_c, 4, 43, 107
6, 55440, Note_on_c, 4, 43, 0
6, 55560, Note_on_c, 4, 43, 107
6, 55680, Note_on_c, 4, 43, 0
6, 55680, Note_on_c, 4, 43, 107
6, 55800, Note_on_c, 4, 43, 0
6, 55800, Note_on_c, 4, 43, 107
6, 55920, Note_on_c, 4, 43, 0
6, 55920, Note_on_c, 4, 43, 107
6, 56040, Note_on_c, 4, 43, 0
6, 56040, Note_on_c, 4, 43, 107
6, 56160, Note_on_c, 4, 43, 0
6, 56160, Note_on_c, 4, 43, 107
6, 56352, Note_on_c, 4, 43, 0
6, 56880, Note_on_c, 4, 55, 107
6, 57072, Note_on_c, 4, 55, 0
6, 57600, Note_on_c, 4, 43, 107
6, 57792, Note_on_c, 4, 43, 0
6, 58320, Note_on_c, 4, 44, 107
6, 58512, Note_on_c, 4, 44, 0
6, 59040, Note_on_c, 4, 45, 107
6, 59232, Note_on_c, 4, 45, 0
6, 59760, Note_on_c, 4, 57, 107
6, 59952, Note_on_c, 4, 57, 0
6, 60480, Note_on_c, 4, 45, 107
6, 60672, Note_on_c, 4, 45, 0
6, 61200, Note_on_c, 4, 46, 107
6, 61392, Note_on_c, 4, 46, 0
6, 61920, Note_on_c, 4, 47, 107
6, 62112, Note_on_c, 4, 47, 0
6, 62640, Note_on_c, 4, 52, 107
6, 62832, Note_on_c, 4, 52, 0
6, 63360, Note_on_c, 4, 57, 107
6, 63552, Note_on_c, 4, 57, 0
6, 64200, Note_on_c, 4, 59, 107
6, 64320, Note_on_c, 4, 59, 0
6, 64320, Note_on_c, 4, 59, 107
6, 64440, Note_on_c, 4, 59, 0
6, 64440, Note_on_c, 4, 59, 107
6, 64560, Note_on_c, 4, 59, 0
6, 64560, Note_on_c, 4, 59, 107
6, 64680, Note_on_c, 4, 59, 0
6, 64680, Note_on_c, 4, 59, 107
6, 64800, Note_on_c, 4, 59, 0
6, 64920, Note_on_c, 4, 54, 107
6, 65040, Note_on_c, 4, 54, 0
6, 65040, Note_on_c, 4, 54, 107
6, 65160, Note_on_c, 4, 54, 0
6, 65160, Note_on_c, 4, 54, 107
6, 65280, Note_on_c, 4, 54, 0
6, 65280, Note_on_c, 4, 54, 107
6, 65400, Note_on_c, 4, 54, 0
6, 65400, Note_on_c, 4, 54, 107
6, 65520, Note_on_c, 4, 54, 0
6, 65640, Note_on_c, 4, 51, 107
6, 65760, Note_on_c, 4, 51, 0
6, 65760, Note_on_c, 4, 51, 107
6, 65880, Note_on_c, 4, 51, 0
6, 65880, Note_on_c, 4, 51, 107
6, 66000, Note_on_c, 4, 51, 0
6, 66000, Note_on_c, 4, 51, 107
6, 66120, Note_on_c, 4, 51, 0
6, 66120, Note_on_c, 4, 51, 107
6, 66240, Note_on_c, 4, 51, 0
6, 66360, Note_on_c, 4, 47, 107
6, 66480, Note_on_c, 4, 47, 0
6, 66480, Note_on_c, 4, 47, 107
6, 66600, Note_on_c, 4, 47, 0
6, 66600, Note_on_c, 4, 47, 107
6, 66720, Note_on_c, 4, 47, 0
6, 66720, Note_on_c, 4, 47, 107
6, 66840, Note_on_c, 4, 47, 0
6, 66840, Note_on_c, 4, 47, 107
6, 66960, Note_on_c, 4, 47, 0
6, 66960, Note_on_c, 4, 52, 107
6, 67152, Note_on_c, 4, 52, 0
6, 69120, Note_on_c, 4, 66, 107
6, 69216, Note_on_c, 4, 66, 0
6, 69360, Note_on_c, 4, 57, 107
6, 69456, Note_on_c, 4, 57, 0
6, 69600, Note_on_c, 4, 60, 107
6, 69696, Note_on_c, 4, 60, 0
6, 69840, Note_on_c, 4, 59, 107
6, 69936, Note_on_c, 4, 59, 0
6, 70080, Note_on_c, 4, 63, 107
6, 70176, Note_on_c, 4, 63, 0
6, 70320, Note_on_c, 4, 59, 107
6, 70416, Note_on_c, 4, 59, 0
6, 70560, Note_on_c, 4, 47, 107
6, 70752, Note_on_c, 4, 47, 0
6, 70920, Note_on_c, 4, 43, 107
6, 71016, Note_on_c, 4, 43, 0
6, 71040, Note_on_c, 4, 40, 107
6, 71136, Note_on_c, 4, 40, 0
6, 71160, Note_on_c, 4, 43, 107
6, 71256, Note_on_c, 4, 43, 0
6, 71280, Note_on_c, 4, 47, 107
6, 71472, Note_on_c, 4, 47, 0
6, 71640, Note_on_c, 4, 51, 107
6, 71736, Note_on_c, 4, 51, 0
6, 71760, Note_on_c, 4, 47, 107
6, 71856, Note_on_c, 4, 47, 0
6, 71880, Note_on_c, 4, 51, 107
6, 71976, Note_on_c, 4, 51, 0
6, 72000, Note_on_c, 4, 52, 107
6, 72192, Note_on_c, 4, 52, 0
6, 72360, Note_on_c, 4, 55, 107
6, 72456, Note_on_c, 4, 55, 0
6, 72480, Note_on_c, 4, 52, 107
6, 72576, Note_on_c, 4, 52, 0
6, 72600, Note_on_c, 4, 55, 107
6, 72696, Note_on_c, 4, 55, 0
6, 72720, Note_on_c, 4, 59, 107
6, 74736, Note_on_c, 4, 59, 0
6, 74880, Note_on_c, 4, 59, 107
6, 74976, Note_on_c, 4, 59, 0
6, 75000, Note_on_c, 4, 66, 107
6, 75096, Note_on_c, 4, 66, 0
6, 75120, Note_on_c, 4, 63, 107
6, 75216, Note_on_c, 4, 63, 0
6, 75240, Note_on_c, 4, 64, 107
6, 75336, Note_on_c, 4, 64, 0
6, 75360, Note_on_c, 4, 66, 107
6, 75456, Note_on_c, 4, 66, 0
6, 75480, Note_on_c, 4, 63, 107
6, 75576, Note_on_c, 4, 63, 0
6, 75600, Note_on_c, 4, 64, 107
6, 75696, Note_on_c, 4, 64, 0
6, 75720, Note_on_c, 4, 55, 107
6, 75816, Note_on_c, 4, 55, 0
6, 75840, Note_on_c, 4, 52, 107
6, 75936, Note_on_c, 4, 52, 0
6, 75960, Note_on_c, 4, 54, 107
6, 76056, Note_on_c, 4, 54, 0
6, 76080, Note_on_c, 4, 55, 107
6, 76176, Note_on_c, 4, 55, 0
6, 76200, Note_on_c, 4, 52, 107
6, 76296, Note_on_c, 4, 52, 0
6, 76320, Note_on_c, 4, 57, 107
6, 76416, Note_on_c, 4, 57, 0
6, 76440, Note_on_c, 4, 45, 107
6, 76536, Note_on_c, 4, 45, 0
6, 76560, Note_on_c, 4, 47, 107
6, 76656, Note_on_c, 4, 47, 0
6, 76680, Note_on_c, 4, 51, 107
6, 76776, Note_on_c, 4, 51, 0
6, 76800, Note_on_c, 4, 52, 107
6, 76896, Note_on_c, 4, 52, 0
6, 76920, Note_on_c, 4, 50, 107
6, 77016, Note_on_c, 4, 50, 0
6, 77040, Note_on_c, 4, 48, 107
6, 77136, Note_on_c, 4, 48, 0
6, 77160, Note_on_c, 4, 42, 107
6, 77256, Note_on_c, 4, 42, 0
6, 77280, Note_on_c, 4, 43, 107
6, 77376, Note_on_c, 4, 43, 0
6, 77400, Note_on_c, 4, 45, 107
6, 77496, Note_on_c, 4, 45, 0
6, 77520, Note_on_c, 4, 47, 107
6, 77616, Note_on_c, 4, 47, 0
6, 77640, Note_on_c, 4, 47, 107
6, 77736, Note_on_c, 4, 47, 0
6, 77760, Note_on_c, 4, 40, 107
6, 77952, Note_on_c, 4, 40, 0
6, 78000, Note_on_c, 4, 52, 107
6, 78192, Note_on_c, 4, 52, 0
6, 78360, Note_on_c, 4, 52, 107
6, 78456, Note_on_c, 4, 52, 0
6, 78480, Note_on_c, 4, 57, 107
6, 78672, Note_on_c, 4, 57, 0
6, 78720, Note_on_c, 4, 45, 107
6, 78912, Note_on_c, 4, 45, 0
6, 79080, Note_on_c, 4, 45, 107
6, 79176, Note_on_c, 4, 45, 0
6, 79200, Note_on_c, 4, 50, 107
6, 79392, Note_on_c, 4, 50, 0
6, 79440, Note_on_c, 4, 62, 107
6, 79632, Note_on_c, 4, 62, 0
6, 79800, Note_on_c, 4, 59, 107
6, 79896, Note_on_c, 4, 59, 0
6, 79920, Note_on_c, 4, 64, 107
6, 80112, Note_on_c, 4, 64, 0
6, 80160, Note_on_c, 4, 52, 107
6, 80352, Note_on_c, 4, 52, 0
6, 80520, Note_on_c, 4, 52, 107
6, 80616, Note_on_c, 4, 52, 0
6, 80640, Note_on_c, 4, 57, 107
6, 80736, Note_on_c, 4, 57, 0
6, 80760, Note_on_c, 4, 45, 107
6, 80808, Note_on_c, 4, 45, 0
6, 80820, Note_on_c, 4, 47, 107
6, 80868, Note_on_c, 4, 47, 0
6, 80880, Note_on_c, 4, 49, 107
6, 80976, Note_on_c, 4, 49, 0
6, 81000, Note_on_c, 4, 52, 107
6, 81096, Note_on_c, 4, 52, 0
6, 81120, Note_on_c, 4, 57, 107
6, 81216, Note_on_c, 4, 57, 0
6, 81240, Note_on_c, 4, 55, 107
6, 81336, Note_on_c, 4, 55, 0
6, 81360, Note_on_c, 4, 50, 107
6, 81552, Note_on_c, 4, 50, 0
6, 81600, Note_on_c, 4, 62, 107
6, 81792, Note_on_c, 4, 62, 0
6, 81960, Note_on_c, 4, 54, 107
6, 82056, Note_on_c, 4, 54, 0
6, 82080, Note_on_c, 4, 55, 107
6, 82176, Note_on_c, 4, 55, 0
6, 82200, Note_on_c, 4, 43, 107
6, 82248, Note_on_c, 4, 43, 0
6, 82260, Note_on_c, 4, 45, 107
6, 82308, Note_on_c, 4, 45, 0
6, 82320, Note_on_c, 4, 47, 107
6, 82416, Note_on_c, 4, 47, 0
6, 82440, Note_on_c, 4, 50, 107
6, 82536, Note_on_c, 4, 50, 0
6, 82560, Note_on_c, 4, 55, 107
6, 82656, Note_on_c, 4, 55, 0
6, 82680, Note_on_c, 4, 54, 107
6, 82776, Note_on_c, 4, 54, 0
6, 82800, Note_on_c, 4, 52, 107
6, 82992, Note_on_c, 4, 52, 0
6, 83040, Note_on_c, 4, 61, 107
6, 83232, Note_on_c, 4, 61, 0
6, 83400, Note_on_c, 4, 52, 107
6, 83496, Note_on_c, 4, 52, 0
6, 83520, Note_on_c, 4, 54, 107
6, 83616, Note_on_c, 4, 54, 0
6, 83640, Note_on_c, 4, 42, 107
6, 83688, Note_on_c, 4, 42, 0
6, 83700, Note_on_c, 4, 43, 107
6, 83748, Note_on_c, 4, 43, 0
6, 83760, Note_on_c, 4, 45, 107
6, 83856, Note_on_c, 4, 45, 0
6, 83880, Note_on_c, 4, 49, 107
6, 83976, Note_on_c, 4, 49, 0
6, 84000, Note_on_c, 4, 54, 107
6, 84096, Note_on_c, 4, 54, 0
6, 84120, Note_on_c, 4, 52, 107
6, 84216, Note_on_c, 4, 52, 0
6, 84240, Note_on_c, 4, 50, 107
6, 84336, Note_on_c, 4, 50, 0
6, 84360, Note_on_c, 4, 52, 107
6, 84456, Note_on_c, 4, 52, 0
6, 84480, Note_on_c, 4, 50, 107
6, 84576, Note_on_c, 4, 50, 0
6, 84600, Note_on_c, 4, 48, 107
6, 84696, Note_on_c, 4, 48, 0
6, 84720, Note_on_c, 4, 47, 107
6, 84816, Note_on_c, 4, 47, 0
6, 84840, Note_on_c, 4, 45, 107
6, 84936, Note_on_c, 4, 45, 0
6, 84960, Note_on_c, 4, 43, 107
6, 85152, Note_on_c, 4, 43, 0
6, 85320, Note_on_c, 4, 47, 107
6, 85416, Note_on_c, 4, 47, 0
6, 85440, Note_on_c, 4, 52, 107
6, 85536, Note_on_c, 4, 52, 0
6, 85560, Note_on_c, 4, 55, 107
6, 85656, Note_on_c, 4, 55, 0
6, 85680, Note_on_c, 4, 45, 107
6, 85872, Note_on_c, 4, 45, 0
6, 86040, Note_on_c, 4, 49, 107
6, 86136, Note_on_c, 4, 49, 0
6, 86160, Note_on_c, 4, 52, 107
6, 86256, Note_on_c, 4, 52, 0
6, 86280, Note_on_c, 4, 57, 107
6, 86376, Note_on_c, 4, 57, 0
6, 86400, Note_on_c, 4, 45, 107
6, 86592, Note_on_c, 4, 45, 0
6, 86760, Note_on_c, 4, 50, 107
6, 86856, Note_on_c, 4, 50, 0
6, 86880, Note_on_c, 4, 54, 107
6, 86976, Note_on_c, 4, 54, 0
6, 87000, Note_on_c, 4, 57, 107
6, 87096, Note_on_c, 4, 57, 0
6, 87120, Note_on_c, 4, 45, 107
6, 87216, Note_on_c, 4, 45, 0
6, 87240, Note_on_c, 4, 45, 107
6, 87336, Note_on_c, 4, 45, 0
6, 87360, Note_on_c, 4, 45, 107
6, 87456, Note_on_c, 4, 45, 0
6, 87480, Note_on_c, 4, 45, 107
6, 87576, Note_on_c, 4, 45, 0
6, 87600, Note_on_c, 4, 45, 107
6, 87696, Note_on_c, 4, 45, 0
6, 87720, Note_on_c, 4, 45, 107
6, 87816, Note_on_c, 4, 45, 0
6, 87840, Note_on_c, 4, 45, 107
6, 88032, Note_on_c, 4, 45, 0
6, 88560, Note_on_c, 4, 45, 107
6, 88752, Note_on_c, 4, 45, 0
6, 89280, Note_on_c, 4, 45, 107
6, 89472, Note_on_c, 4, 45, 0
6, 90000, Note_on_c, 4, 45, 107
6, 90192, Note_on_c, 4, 45, 0
6, 90720, Note_on_c, 4, 45, 107
6, 90912, Note_on_c, 4, 45, 0
6, 91560, Note_on_c, 4, 57, 107
6, 91608, Note_on_c, 4, 57, 0
6, 91620, Note_on_c, 4, 55, 107
6, 91668, Note_on_c, 4, 55, 0
6, 91680, Note_on_c, 4, 57, 107
6, 91776, Note_on_c, 4, 57, 0
6, 91800, Note_on_c, 4, 52, 107
6, 91896, Note_on_c, 4, 52, 0
6, 91920, Note_on_c, 4, 49, 107
6, 92016, Note_on_c, 4, 49, 0
6, 92040, Note_on_c, 4, 45, 107
6, 92136, Note_on_c, 4, 45, 0
6, 92160, Note_on_c, 4, 50, 107
6, 92256, Note_on_c, 4, 50, 0
6, 92280, Note_on_c, 4, 47, 107
6, 92376, Note_on_c, 4, 47, 0
6, 92400, Note_on_c, 4, 42, 107
6, 92496, Note_on_c, 4, 42, 0
6, 92520, Note_on_c, 4, 43, 107
6, 92616, Note_on_c, 4, 43, 0
6, 92640, Note_on_c, 4, 45, 107
6, 92736, Note_on_c, 4, 45, 0
6, 92760, Note_on_c, 4, 45, 107
6, 92856, Note_on_c, 4, 45, 0
6, 92880, Note_on_c, 4, 38, 107
6, 94896, Note_on_c, 4, 38, 0
6, 94920, Note_on_c, 4, 54, 107
6, 95016, Note_on_c, 4, 54, 0
6, 95040, Note_on_c, 4, 52, 107
6, 95136, Note_on_c, 4, 52, 0
6, 95160, Note_on_c, 4, 55, 107
6, 95208, Note_on_c, 4, 55, 0
6, 95220, Note_on_c, 4, 54, 107
6, 95268, Note_on_c, 4, 54, 0
6, 95280, Note_on_c, 4, 55, 107
6, 95376, Note_on_c, 4, 55, 0
6, 95400, Note_on_c, 4, 52, 107
6, 95496, Note_on_c, 4, 52, 0
6, 95520, Note_on_c, 4, 49, 107
6, 95616, Note_on_c, 4, 49, 0
6, 95640, Note_on_c, 4, 52, 107
6, 95736, Note_on_c, 4, 52, 0
6, 95760, Note_on_c, 4, 45, 107
6, 96144, Note_on_c, 4, 45, 0
6, 96240, Note_on_c, 4, 50, 107
6, 96240, Note_on_c, 4, 38, 107
6, 96432, Note_on_c, 4, 38, 0
6, 96432, Note_on_c, 4, 50, 0
6, 96480, Note_on_c, 4, 43, 107
6, 96480, Note_on_c, 4, 55, 107
6, 96672, Note_on_c, 4, 55, 0
6, 96672, Note_on_c, 4, 43, 0
6, 96720, Note_on_c, 4, 45, 107
6, 96720, Note_on_c, 4, 57, 107
6, 96912, Note_on_c, 4, 57, 0
6, 96912, Note_on_c, 4, 45, 0
6, 96960, Note_on_c, 4, 45, 107
6, 97152, Note_on_c, 4, 45, 0
6, 97200, Note_on_c, 4, 38, 107
6, 97200, Note_on_c, 4, 50, 107
6, 97392, Note_on_c, 4, 50, 0
6, 97392, Note_on_c, 4, 38, 0
6, 98040, Note_on_c, 4, 38, 107
6, 98136, Note_on_c, 4, 38, 0
6, 98160, Note_on_c, 4, 38, 107
6, 98256, Note_on_c, 4, 38, 0
6, 98280, Note_on_c, 4, 38, 107
6, 98376, Note_on_c, 4, 38, 0
6, 98400, Note_on_c, 4, 38, 107
6, 98496, Note_on_c, 4, 38, 0
6, 98520, Note_on_c, 4, 38, 107
6, 98616, Note_on_c, 4, 38, 0
6, 98640, Note_on_c, 4, 50, 107
6, 98640, Note_on_c, 4, 38, 107
6, 99216, Note_on_c, 4, 38, 0
6, 99216, Note_on_c, 4, 50, 0
6, 99216, End_track
7, 0, Start_track
7, 0, MIDI_port, 0
7, 0, Title_t, "Cembalo"
7, 0, Program_c, 5, 6
7, 0, Control_c, 5, 7, 89
7, 0, Control_c, 5, 10, 64
7, 0, Note_on_c, 5, 74, 107
7, 0, Note_on_c, 5, 78, 107
7, 0, Note_on_c, 5, 81, 107
7, 96, Note_on_c, 5, 81, 0
7, 96, Note_on_c, 5, 78, 0
7, 96, Note_on_c, 5, 74, 0
7, 240, Note_on_c, 5, 78, 107
7, 240, Note_on_c, 5, 74, 107
7, 240, Note_on_c, 5, 69, 107
7, 336, Note_on_c, 5, 69, 0
7, 336, Note_on_c, 5, 74, 0
7, 336, Note_on_c, 5, 78, 0
7, 960, Note_on_c, 5, 74, 107
7, 1056, Note_on_c, 5, 74, 0
7, 1080, Note_on_c, 5, 69, 107
7, 1176, Note_on_c, 5, 69, 0
7, 1200, Note_on_c, 5, 66, 107
7, 1296, Note_on_c, 5, 66, 0
7, 1320, Note_on_c, 5, 69, 107
7, 1416, Note_on_c, 5, 69, 0
7, 4800, Note_on_c, 5, 73, 107
7, 4800, Note_on_c, 5, 64, 107
7, 4800, Note_on_c, 5, 67, 107
7, 4896, Note_on_c, 5, 67, 0
7, 4896, Note_on_c, 5, 64, 0
7, 4896, Note_on_c, 5, 73, 0
7, 5040, Note_on_c, 5, 66, 107
7, 5040, Note_on_c, 5, 74, 107
7, 5136, Note_on_c, 5, 74, 0
7, 5136, Note_on_c, 5, 66, 0
7, 5520, Note_on_c, 5, 76, 107
7, 5520, Note_on_c, 5, 67, 107
7, 5616, Note_on_c, 5, 67, 0
7, 5616, Note_on_c, 5, 76, 0
7, 5760, Note_on_c, 5, 78, 107
7, 5760, Note_on_c, 5, 69, 107
7, 5856, Note_on_c, 5, 69, 0
7, 5856, Note_on_c, 5, 78, 0
7, 5880, Note_on_c, 5, 69, 107
7, 5976, Note_on_c, 5, 69, 0
7, 6000, Note_on_c, 5, 81, 107
7, 6096, Note_on_c, 5, 81, 0
7, 6120, Note_on_c, 5, 83, 107
7, 6216, Note_on_c, 5, 83, 0
7, 6240, Note_on_c, 5, 81, 107
7, 6336, Note_on_c, 5, 81, 0
7, 6360, Note_on_c, 5, 79, 107
7, 6456, Note_on_c, 5, 79, 0
7, 6480, Note_on_c, 5, 78, 107
7, 6576, Note_on_c, 5, 78, 0
7, 7320, Note_on_c, 5, 57, 107
7, 7416, Note_on_c, 5, 57, 0
7, 7440, Note_on_c, 5, 69, 107
7, 7536, Note_on_c, 5, 69, 0
7, 7560, Note_on_c, 5, 71, 107
7, 7656, Note_on_c, 5, 71, 0
7, 7680, Note_on_c, 5, 69, 107
7, 7776, Note_on_c, 5, 69, 0
7, 7800, Note_on_c, 5, 67, 107
7, 7896, Note_on_c, 5, 67, 0
7, 7920, Note_on_c, 5, 66, 107
7, 8016, Note_on_c, 5, 66, 0
7, 9480, Note_on_c, 5, 74, 107
7, 9576, Note_on_c, 5, 74, 0
7, 9600, Note_on_c, 5, 73, 107
7, 9696, Note_on_c, 5, 73, 0
7, 9720, Note_on_c, 5, 74, 107
7, 9816, Note_on_c, 5, 74, 0
7, 9840, Note_on_c, 5, 76, 107
7, 9936, Note_on_c, 5, 76, 0
7, 9960, Note_on_c, 5, 73, 107
7, 10056, Note_on_c, 5, 73, 0
7, 10080, Note_on_c, 5, 74, 107
7, 10176, Note_on_c, 5, 74, 0
7, 10200, Note_on_c, 5, 66, 107
7, 10296, Note_on_c, 5, 66, 0
7, 10320, Note_on_c, 5, 64, 107
7, 10416, Note_on_c, 5, 64, 0
7, 10440, Note_on_c, 5, 66, 107
7, 10536, Note_on_c, 5, 66, 0
7, 10560, Note_on_c, 5, 67, 107
7, 10656, Note_on_c, 5, 67, 0
7, 10680, Note_on_c, 5, 64, 107
7, 10776, Note_on_c, 5, 64, 0
7, 10800, Note_on_c, 5, 66, 107
7, 10920, Note_on_c, 5, 66, 0
7, 10920, Note_on_c, 5, 62, 107
7, 11016, Note_on_c, 5, 62, 0
7, 11040, Note_on_c, 5, 61, 107
7, 11136, Note_on_c, 5, 61, 0
7, 11160, Note_on_c, 5, 62, 107
7, 11256, Note_on_c, 5, 62, 0
7, 11280, Note_on_c, 5, 64, 107
7, 11376, Note_on_c, 5, 64, 0
7, 11400, Note_on_c, 5, 61, 107
7, 11496, Note_on_c, 5, 61, 0
7, 11520, Note_on_c, 5, 74, 107
7, 11520, Note_on_c, 5, 69, 107
7, 11616, Note_on_c, 5, 69, 0
7, 11616, Note_on_c, 5, 74, 0
7, 12240, Note_on_c, 5, 69, 107
7, 12240, Note_on_c, 5, 78, 107
7, 12240, Note_on_c, 5, 74, 107
7, 12336, Note_on_c, 5, 74, 0
7, 12336, Note_on_c, 5, 78, 0
7, 12336, Note_on_c, 5, 69, 0
7, 12960, Note_on_c, 5, 69, 107
7, 13056, Note_on_c, 5, 69, 0
7, 13680, Note_on_c, 5, 74, 107
7, 13680, Note_on_c, 5, 79, 107
7, 13680, Note_on_c, 5, 71, 107
7, 13776, Note_on_c, 5, 71, 0
7, 13776, Note_on_c, 5, 79, 0
7, 13776, Note_on_c, 5, 74, 0
7, 14400, Note_on_c, 5, 74, 107
7, 14400, Note_on_c, 5, 69, 107
7, 14400, Note_on_c, 5, 79, 107
7, 14496, Note_on_c, 5, 79, 0
7, 14496, Note_on_c, 5, 69, 0
7, 14496, Note_on_c, 5, 74, 0
7, 15120, Note_on_c, 5, 74, 107
7, 15120, Note_on_c, 5, 69, 107
7, 15120, Note_on_c, 5, 78, 107
7, 15216, Note_on_c, 5, 78, 0
7, 15216, Note_on_c, 5, 69, 0
7, 15216, Note_on_c, 5, 74, 0
7, 15840, Note_on_c, 5, 78, 107
7, 15840, Note_on_c, 5, 67, 107
7, 15840, Note_on_c, 5, 74, 107
7, 15936, Note_on_c, 5, 74, 0
7, 15936, Note_on_c, 5, 67, 0
7, 15936, Note_on_c, 5, 78, 0
7, 16560, Note_on_c, 5, 76, 107
7, 16560, Note_on_c, 5, 67, 107
7, 16560, Note_on_c, 5, 73, 107
7, 16656, Note_on_c, 5, 73, 0
7, 16656, Note_on_c, 5, 67, 0
7, 16656, Note_on_c, 5, 76, 0
7, 17280, Note_on_c, 5, 73, 107
7, 17280, Note_on_c, 5, 66, 107
7, 17280, Note_on_c, 5, 76, 107
7, 17376, Note_on_c, 5, 76, 0
7, 17376, Note_on_c, 5, 66, 0
7, 17376, Note_on_c, 5, 73, 0
7, 18000, Note_on_c, 5, 74, 107
7, 18000, Note_on_c, 5, 66, 107
7, 18000, Note_on_c, 5, 69, 107
7, 18096, Note_on_c, 5, 69, 0
7, 18096, Note_on_c, 5, 66, 0
7, 18096, Note_on_c, 5, 74, 0
7, 18720, Note_on_c, 5, 74, 107
7, 18720, Note_on_c, 5, 64, 107
7, 18720, Note_on_c, 5, 67, 107
7, 18816, Note_on_c, 5, 67, 0
7, 18816, Note_on_c, 5, 64, 0
7, 18816, Note_on_c, 5, 74, 0
7, 19440, Note_on_c, 5, 67, 107
7, 19440, Note_on_c, 5, 64, 107
7, 19440, Note_on_c, 5, 73, 107
7, 19536, Note_on_c, 5, 73, 0
7, 19536, Note_on_c, 5, 64, 0
7, 19536, Note_on_c, 5, 67, 0
7, 20160, Note_on_c, 5, 66, 107
7, 20160, Note_on_c, 5, 74, 107
7, 20280, Note_on_c, 5, 74, 0
7, 20280, Note_on_c, 5, 66, 0
7, 20280, Note_on_c, 5, 57, 107
7, 20280, Note_on_c, 5, 62, 107
7, 20400, Note_on_c, 5, 62, 0
7, 20400, Note_on_c, 5, 57, 0
7, 20400, Note_on_c, 5, 57, 107
7, 20400, Note_on_c, 5, 62, 107
7, 20520, Note_on_c, 5, 62, 0
7, 20520, Note_on_c, 5, 57, 0
7, 20520, Note_on_c, 5, 57, 107
7, 20520, Note_on_c, 5, 62, 107
7, 20640, Note_on_c, 5, 62, 0
7, 20640, Note_on_c, 5, 57, 0
7, 20640, Note_on_c, 5, 62, 107
7, 20640, Note_on_c, 5, 57, 107
7, 20760, Note_on_c, 5, 57, 0
7, 20760, Note_on_c, 5, 62, 0
7, 20760, Note_on_c, 5, 57, 107
7, 20760, Note_on_c, 5, 62, 107
7, 20856, Note_on_c, 5, 62, 0
7, 20856, Note_on_c, 5, 57, 0
7, 21000, Note_on_c, 5, 66, 107
7, 21000, Note_on_c, 5, 62, 107
7, 21120, Note_on_c, 5, 62, 0
7, 21120, Note_on_c, 5, 66, 0
7, 21120, Note_on_c, 5, 66, 107
7, 21120, Note_on_c, 5, 62, 107
7, 21240, Note_on_c, 5, 62, 0
7, 21240, Note_on_c, 5, 66, 0
7, 21240, Note_on_c, 5, 62, 107
7, 21240, Note_on_c, 5, 66, 107
7, 21360, Note_on_c, 5, 66, 0
7, 21360, Note_on_c, 5, 62, 0
7, 21360, Note_on_c, 5, 66, 107
7, 21360, Note_on_c, 5, 62, 107
7, 21480, Note_on_c, 5, 62, 0
7, 21480, Note_on_c, 5, 66, 0
7, 21480, Note_on_c, 5, 66, 107
7, 21480, Note_on_c, 5, 62, 107
7, 21576, Note_on_c, 5, 62, 0
7, 21576, Note_on_c, 5, 66, 0
7, 21720, Note_on_c, 5, 66, 107
7, 21720, Note_on_c, 5, 69, 107
7, 21840, Note_on_c, 5, 69, 0
7, 21840, Note_on_c, 5, 66, 0
7, 21840, Note_on_c, 5, 69, 107
7, 21840, Note_on_c, 5, 66, 107
7, 21960, Note_on_c, 5, 66, 0
7, 21960, Note_on_c, 5, 69, 0
7, 21960, Note_on_c, 5, 66, 107
7, 21960, Note_on_c, 5, 69, 107
7, 22080, Note_on_c, 5, 69, 0
7, 22080, Note_on_c, 5, 66, 0
7, 22080, Note_on_c, 5, 69, 107
7, 22080, Note_on_c, 5, 66, 107
7, 22200, Note_on_c, 5, 66, 0
7, 22200, Note_on_c, 5, 69, 0
7, 22200, Note_on_c, 5, 66, 107
7, 22200, Note_on_c, 5, 69, 107
7, 22296, Note_on_c, 5, 69, 0
7, 22296, Note_on_c, 5, 66, 0
7, 22440, Note_on_c, 5, 72, 107
7, 22440, Note_on_c, 5, 69, 107
7, 22560, Note_on_c, 5, 69, 0
7, 22560, Note_on_c, 5, 72, 0
7, 22560, Note_on_c, 5, 69, 107
7, 22560, Note_on_c, 5, 72, 107
7, 22680, Note_on_c, 5, 72, 0
7, 22680, Note_on_c, 5, 69, 0
7, 22680, Note_on_c, 5, 72, 107
7, 22680, Note_on_c, 5, 69, 107
7, 22800, Note_on_c, 5, 69, 0
7, 22800, Note_on_c, 5, 72, 0
7, 22800, Note_on_c, 5, 72, 107
7, 22800, Note_on_c, 5, 69, 107
7, 22920, Note_on_c, 5, 69, 0
7, 22920, Note_on_c, 5, 72, 0
7, 22920, Note_on_c, 5, 69, 107
7, 22920, Note_on_c, 5, 72, 107
7, 23016, Note_on_c, 5, 72, 0
7, 23016, Note_on_c, 5, 69, 0
7, 23040, Note_on_c, 5, 66, 107
7, 23040, Note_on_c, 5, 69, 107
7, 23040, Note_on_c, 5, 71, 107
7, 23616, Note_on_c, 5, 71, 0
7, 23616, Note_on_c, 5, 69, 0
7, 23616, Note_on_c, 5, 66, 0
7, 23760, Note_on_c, 5, 71, 107
7, 23760, Note_on_c, 5, 69, 107
7, 23760, Note_on_c, 5, 63, 107
7, 24336, Note_on_c, 5, 63, 0
7, 24336, Note_on_c, 5, 69, 0
7, 24336, Note_on_c, 5, 71, 0
7, 24480, Note_on_c, 5, 71, 107
7, 24480, Note_on_c, 5, 69, 107
7, 24480, Note_on_c, 5, 59, 107
7, 25056, Note_on_c, 5, 59, 0
7, 25056, Note_on_c, 5, 69, 0
7, 25056, Note_on_c, 5, 71, 0
7, 25200, Note_on_c, 5, 71, 107
7, 25200, Note_on_c, 5, 69, 107
7, 25200, Note_on_c, 5, 63, 107
7, 25776, Note_on_c, 5, 63, 0
7, 25776, Note_on_c, 5, 69, 0
7, 25776, Note_on_c, 5, 71, 0
7, 25920, Note_on_c, 5, 67, 107
7, 25920, Note_on_c, 5, 64, 107
7, 26112, Note_on_c, 5, 64, 0
7, 26112, Note_on_c, 5, 67, 0
7, 26112, Note_on_c, 5, 71, 64
7, 26112, Note_on_c, 5, 71, 0
7, 26160, Note_on_c, 5, 79, 107
7, 26160, Note_on_c, 5, 70, 107
7, 26160, Note_on_c, 5, 73, 107
7, 26352, Note_on_c, 5, 73, 0
7, 26352, Note_on_c, 5, 70, 0
7, 26352, Note_on_c, 5, 79, 0
7, 26640, Note_on_c, 5, 78, 107
7, 26640, Note_on_c, 5, 67, 107
7, 26832, Note_on_c, 5, 67, 0
7, 26832, Note_on_c, 5, 78, 0
7, 26832, Note_on_c, 5, 74, 64
7, 26832, Note_on_c, 5, 74, 0
7, 26880, Note_on_c, 5, 78, 107
7, 26880, Note_on_c, 5, 83, 107
7, 26880, Note_on_c, 5, 74, 107
7, 27072, Note_on_c, 5, 74, 0
7, 27072, Note_on_c, 5, 83, 0
7, 27072, Note_on_c, 5, 78, 0
7, 27480, Note_on_c, 5, 61, 107
7, 27480, Note_on_c, 5, 66, 107
7, 27576, Note_on_c, 5, 66, 0
7, 27576, Note_on_c, 5, 61, 0
7, 27600, Note_on_c, 5, 70, 107
7, 27600, Note_on_c, 5, 66, 107
7, 27696, Note_on_c, 5, 66, 0
7, 27696, Note_on_c, 5, 70, 0
7, 27720, Note_on_c, 5, 73, 107
7, 27720, Note_on_c, 5, 70, 107
7, 27816, Note_on_c, 5, 70, 0
7, 27816, Note_on_c, 5, 73, 0
7, 27840, Note_on_c, 5, 73, 107
7, 27840, Note_on_c, 5, 78, 107
7, 27936, Note_on_c, 5, 78, 0
7, 27936, Note_on_c, 5, 73, 0
7, 28200, Note_on_c, 5, 66, 107
7, 28200, Note_on_c, 5, 61, 107
7, 28296, Note_on_c, 5, 61, 0
7, 28296, Note_on_c, 5, 66, 0
7, 28320, Note_on_c, 5, 66, 107
7, 28320, Note_on_c, 5, 70, 107
7, 28416, Note_on_c, 5, 70, 0
7, 28416, Note_on_c, 5, 66, 0
7, 28440, Note_on_c, 5, 70, 107
7, 28440, Note_on_c, 5, 73, 107
7, 28536, Note_on_c, 5, 73, 0
7, 28536, Note_on_c, 5, 70, 0
7, 28560, Note_on_c, 5, 73, 107
7, 28560, Note_on_c, 5, 76, 107
7, 28656, Note_on_c, 5, 76, 0
7, 28656, Note_on_c, 5, 73, 0
7, 28920, Note_on_c, 5, 70, 107
7, 28920, Note_on_c, 5, 61, 107
7, 29016, Note_on_c, 5, 61, 0
7, 29016, Note_on_c, 5, 70, 0
7, 29040, Note_on_c, 5, 71, 107
7, 29040, Note_on_c, 5, 62, 107
7, 29136, Note_on_c, 5, 62, 0
7, 29136, Note_on_c, 5, 71, 0
7, 29160, Note_on_c, 5, 70, 107
7, 29160, Note_on_c, 5, 61, 107
7, 29256, Note_on_c, 5, 61, 0
7, 29256, Note_on_c, 5, 70, 0
7, 29280, Note_on_c, 5, 62, 107
7, 29280, Note_on_c, 5, 71, 107
7, 29376, Note_on_c, 5, 71, 0
7, 29376, Note_on_c, 5, 62, 0
7, 29400, Note_on_c, 5, 67, 107
7, 29400, Note_on_c, 5, 59, 107
7, 29496, Note_on_c, 5, 59, 0
7, 29496, Note_on_c, 5, 67, 0
7, 29520, Note_on_c, 5, 61, 107
7, 29616, Note_on_c, 5, 61, 0
7, 29640, Note_on_c, 5, 62, 107
7, 29736, Note_on_c, 5, 62, 0
7, 29760, Note_on_c, 5, 64, 107
7, 29856, Note_on_c, 5, 64, 0
7, 29880, Note_on_c, 5, 62, 107
7, 29976, Note_on_c, 5, 62, 0
7, 30000, Note_on_c, 5, 61, 107
7, 30096, Note_on_c, 5, 61, 0
7, 30120, Note_on_c, 5, 59, 107
7, 30216, Note_on_c, 5, 59, 0
7, 30240, Note_on_c, 5, 61, 107
7, 30240, Note_on_c, 5, 66, 107
7, 30432, Note_on_c, 5, 66, 0
7, 30432, Note_on_c, 5, 61, 0
7, 30480, Note_on_c, 5, 76, 107
7, 30480, Note_on_c, 5, 61, 107
7, 30480, Note_on_c, 5, 70, 107
7, 30672, Note_on_c, 5, 70, 0
7, 30672, Note_on_c, 5, 61, 0
7, 30672, Note_on_c, 5, 76, 0
7, 30840, Note_on_c, 5, 70, 107
7, 30840, Note_on_c, 5, 66, 107
7, 30840, Note_on_c, 5, 73, 107
7, 30936, Note_on_c, 5, 73, 0
7, 30936, Note_on_c, 5, 66, 0
7, 30936, Note_on_c, 5, 70, 0
7, 30960, Note_on_c, 5, 71, 107
7, 30960, Note_on_c, 5, 66, 107
7, 30960, Note_on_c, 5, 74, 107
7, 31152, Note_on_c, 5, 74, 0
7, 31152, Note_on_c, 5, 66, 0
7, 31152, Note_on_c, 5, 71, 0
7, 31200, Note_on_c, 5, 62, 107
7, 31200, Note_on_c, 5, 71, 107
7, 31200, Note_on_c, 5, 66, 107
7, 31392, Note_on_c, 5, 66, 0
7, 31392, Note_on_c, 5, 71, 0
7, 31392, Note_on_c, 5, 62, 0
7, 31560, Note_on_c, 5, 59, 107
7, 31560, Note_on_c, 5, 65, 107
7, 31560, Note_on_c, 5, 56, 107
7, 31656, Note_on_c, 5, 56, 0
7, 31656, Note_on_c, 5, 65, 0
7, 31656, Note_on_c, 5, 59, 0
7, 31680, Note_on_c, 5, 66, 107
7, 31680, Note_on_c, 5, 58, 107
7, 31680, Note_on_c, 5, 61, 107
7, 31872, Note_on_c, 5, 61, 0
7, 31872, Note_on_c, 5, 58, 0
7, 31872, Note_on_c, 5, 66, 0
7, 31920, Note_on_c, 5, 76, 107
7, 31920, Note_on_c, 5, 61, 107
7, 31920, Note_on_c, 5, 70, 107
7, 32112, Note_on_c, 5, 70, 0
7, 32112, Note_on_c, 5, 61, 0
7, 32112, Note_on_c, 5, 76, 0
7, 32280, Note_on_c, 5, 70, 107
7, 32280, Note_on_c, 5, 66, 107
7, 32280, Note_on_c, 5, 73, 107
7, 32376, Note_on_c, 5, 73, 0
7, 32376, Note_on_c, 5, 66, 0
7, 32376, Note_on_c, 5, 70, 0
7, 32400, Note_on_c, 5, 74, 107
7, 32400, Note_on_c, 5, 66, 107
7, 32400, Note_on_c, 5, 71, 107
7, 32592, Note_on_c, 5, 71, 0
7, 32592, Note_on_c, 5, 66, 0
7, 32592, Note_on_c, 5, 74, 0
7, 32640, Note_on_c, 5, 66, 107
7, 32640, Note_on_c, 5, 62, 107
7, 32640, Note_on_c, 5, 71, 107
7, 32832, Note_on_c, 5, 71, 0
7, 32832, Note_on_c, 5, 62, 0
7, 32832, Note_on_c, 5, 66, 0
7, 33000, Note_on_c, 5, 66, 107
7, 33000, Note_on_c, 5, 59, 107
7, 33096, Note_on_c, 5, 59, 0
7, 33096, Note_on_c, 5, 66, 0
7, 33120, Note_on_c, 5, 71, 107
7, 33120, Note_on_c, 5, 65, 107
7, 33216, Note_on_c, 5, 65, 0
7, 33216, Note_on_c, 5, 71, 0
7, 33240, Note_on_c, 5, 71, 107
7, 33240, Note_on_c, 5, 74, 107
7, 33336, Note_on_c, 5, 74, 0
7, 33336, Note_on_c, 5, 71, 0
7, 33360, Note_on_c, 5, 71, 107
7, 33360, Note_on_c, 5, 74, 107
7, 33456, Note_on_c, 5, 74, 0
7, 33456, Note_on_c, 5, 71, 0
7, 33480, Note_on_c, 5, 74, 107
7, 33480, Note_on_c, 5, 71, 107
7, 33576, Note_on_c, 5, 71, 0
7, 33576, Note_on_c, 5, 74, 0
7, 33600, Note_on_c, 5, 71, 107
7, 33600, Note_on_c, 5, 74, 107
7, 33696, Note_on_c, 5, 74, 0
7, 33696, Note_on_c, 5, 71, 0
7, 33720, Note_on_c, 5, 74, 107
7, 33720, Note_on_c, 5, 71, 107
7, 33816, Note_on_c, 5, 71, 0
7, 33816, Note_on_c, 5, 74, 0
7, 33960, Note_on_c, 5, 74, 107
7, 33960, Note_on_c, 5, 71, 107
7, 34056, Note_on_c, 5, 71, 0
7, 34056, Note_on_c, 5, 74, 0
7, 34080, Note_on_c, 5, 74, 107
7, 34080, Note_on_c, 5, 71, 107
7, 34176, Note_on_c, 5, 71, 0
7, 34176, Note_on_c, 5, 74, 0
7, 34200, Note_on_c, 5, 74, 107
7, 34200, Note_on_c, 5, 71, 107
7, 34296, Note_on_c, 5, 71, 0
7, 34296, Note_on_c, 5, 74, 0
7, 34320, Note_on_c, 5, 71, 107
7, 34320, Note_on_c, 5, 74, 107
7, 34416, Note_on_c, 5, 74, 0
7, 34416, Note_on_c, 5, 71, 0
7, 34440, Note_on_c, 5, 71, 107
7, 34440, Note_on_c, 5, 74, 107
7, 34536, Note_on_c, 5, 74, 0
7, 34536, Note_on_c, 5, 71, 0
7, 34680, Note_on_c, 5, 71, 107
7, 34680, Note_on_c, 5, 73, 107
7, 34776, Note_on_c, 5, 73, 0
7, 34776, Note_on_c, 5, 71, 0
7, 34800, Note_on_c, 5, 73, 107
7, 34800, Note_on_c, 5, 71, 107
7, 34896, Note_on_c, 5, 71, 0
7, 34896, Note_on_c, 5, 73, 0
7, 34920, Note_on_c, 5, 71, 107
7, 34920, Note_on_c, 5, 73, 107
7, 35016, Note_on_c, 5, 73, 0
7, 35016, Note_on_c, 5, 71, 0
7, 35040, Note_on_c, 5, 73, 107
7, 35040, Note_on_c, 5, 71, 107
7, 35136, Note_on_c, 5, 71, 0
7, 35136, Note_on_c, 5, 73, 0
7, 35160, Note_on_c, 5, 71, 107
7, 35160, Note_on_c, 5, 73, 107
7, 35256, Note_on_c, 5, 73, 0
7, 35256, Note_on_c, 5, 71, 0
7, 35400, Note_on_c, 5, 70, 107
7, 35400, Note_on_c, 5, 73, 107
7, 35496, Note_on_c, 5, 73, 0
7, 35496, Note_on_c, 5, 70, 0
7, 35520, Note_on_c, 5, 73, 107
7, 35520, Note_on_c, 5, 70, 107
7, 35616, Note_on_c, 5, 70, 0
7, 35616, Note_on_c, 5, 73, 0
7, 35640, Note_on_c, 5, 70, 107
7, 35640, Note_on_c, 5, 73, 107
7, 35736, Note_on_c, 5, 73, 0
7, 35736, Note_on_c, 5, 70, 0
7, 35760, Note_on_c, 5, 73, 107
7, 35760, Note_on_c, 5, 70, 107
7, 35856, Note_on_c, 5, 70, 0
7, 35856, Note_on_c, 5, 73, 0
7, 35880, Note_on_c, 5, 70, 107
7, 35880, Note_on_c, 5, 73, 107
7, 35976, Note_on_c, 5, 73, 0
7, 35976, Note_on_c, 5, 70, 0
7, 36000, Note_on_c, 5, 71, 107
7, 36000, Note_on_c, 5, 66, 107
7, 36000, Note_on_c, 5, 62, 107
7, 36192, Note_on_c, 5, 62, 0
7, 36192, Note_on_c, 5, 66, 0
7, 36192, Note_on_c, 5, 71, 0
7, 36720, Note_on_c, 5, 74, 107
7, 36720, Note_on_c, 5, 66, 107
7, 36720, Note_on_c, 5, 71, 107
7, 36912, Note_on_c, 5, 71, 0
7, 36912, Note_on_c, 5, 66, 0
7, 36912, Note_on_c, 5, 74, 0
7, 37560, Note_on_c, 5, 59, 107
7, 37560, Note_on_c, 5, 64, 107
7, 37656, Note_on_c, 5, 64, 0
7, 37656, Note_on_c, 5, 59, 0
7, 37680, Note_on_c, 5, 68, 107
7, 37680, Note_on_c, 5, 64, 107
7, 37776, Note_on_c, 5, 64, 0
7, 37776, Note_on_c, 5, 68, 0
7, 37800, Note_on_c, 5, 68, 107
7, 37800, Note_on_c, 5, 71, 107
7, 37896, Note_on_c, 5, 71, 0
7, 37896, Note_on_c, 5, 68, 0
7, 37920, Note_on_c, 5, 71, 107
7, 37920, Note_on_c, 5, 74, 107
7, 38145, Note_on_c, 5, 74, 0
7, 38145, Note_on_c, 5, 71, 0
7, 38280, Note_on_c, 5, 68, 107
7, 38280, Note_on_c, 5, 59, 107
7, 38376, Note_on_c, 5, 59, 0
7, 38376, Note_on_c, 5, 68, 0
7, 38400, Note_on_c, 5, 68, 107
7, 38400, Note_on_c, 5, 64, 107
7, 38496, Note_on_c, 5, 64, 0
7, 38496, Note_on_c, 5, 68, 0
7, 38520, Note_on_c, 5, 71, 107
7, 38520, Note_on_c, 5, 68, 107
7, 38616, Note_on_c, 5, 68, 0
7, 38616, Note_on_c, 5, 71, 0
7, 38640, Note_on_c, 5, 71, 107
7, 38640, Note_on_c, 5, 74, 107
7, 38736, Note_on_c, 5, 74, 0
7, 38736, Note_on_c, 5, 71, 0
7, 38760, Note_on_c, 5, 71, 107
7, 38856, Note_on_c, 5, 71, 0
7, 38880, Note_on_c, 5, 73, 107
7, 38880, Note_on_c, 5, 69, 107
7, 39072, Note_on_c, 5, 69, 0
7, 39072, Note_on_c, 5, 73, 0
7, 39600, Note_on_c, 5, 76, 107
7, 39600, Note_on_c, 5, 73, 107
7, 39792, Note_on_c, 5, 73, 0
7, 39792, Note_on_c, 5, 76, 0
7, 40440, Note_on_c, 5, 66, 107
7, 40440, Note_on_c, 5, 69, 107
7, 40440, Note_on_c, 5, 74, 107
7, 40536, Note_on_c, 5, 74, 0
7, 40536, Note_on_c, 5, 69, 0
7, 40536, Note_on_c, 5, 66, 0
7, 40560, Note_on_c, 5, 74, 107
7, 40560, Note_on_c, 5, 78, 107
7, 40560, Note_on_c, 5, 69, 107
7, 40656, Note_on_c, 5, 69, 0
7, 40656, Note_on_c, 5, 78, 0
7, 40656, Note_on_c, 5, 74, 0
7, 40680, Note_on_c, 5, 81, 107
7, 40680, Note_on_c, 5, 74, 107
7, 40680, Note_on_c, 5, 78, 107
7, 40776, Note_on_c, 5, 78, 0
7, 40776, Note_on_c, 5, 74, 0
7, 40776, Note_on_c, 5, 81, 0
7, 40800, Note_on_c, 5, 81, 107
7, 40800, Note_on_c, 5, 84, 107
7, 40800, Note_on_c, 5, 78, 107
7, 41025, Note_on_c, 5, 78, 0
7, 41025, Note_on_c, 5, 84, 0
7, 41025, Note_on_c, 5, 81, 0
7, 41160, Note_on_c, 5, 54, 107
7, 41160, Note_on_c, 5, 62, 107
7, 41160, Note_on_c, 5, 57, 107
7, 41256, Note_on_c, 5, 57, 0
7, 41256, Note_on_c, 5, 62, 0
7, 41256, Note_on_c, 5, 54, 0
7, 41280, Note_on_c, 5, 57, 107
7, 41280, Note_on_c, 5, 62, 107
7, 41280, Note_on_c, 5, 66, 107
7, 41376, Note_on_c, 5, 66, 0
7, 41376, Note_on_c, 5, 62, 0
7, 41376, Note_on_c, 5, 57, 0
7, 41400, Note_on_c, 5, 69, 107
7, 41400, Note_on_c, 5, 66, 107
7, 41400, Note_on_c, 5, 62, 107
7, 41496, Note_on_c, 5, 62, 0
7, 41496, Note_on_c, 5, 66, 0
7, 41496, Note_on_c, 5, 69, 0
7, 41520, Note_on_c, 5, 66, 107
7, 41520, Note_on_c, 5, 72, 107
7, 41520, Note_on_c, 5, 69, 107
7, 41616, Note_on_c, 5, 69, 0
7, 41616, Note_on_c, 5, 72, 0
7, 41616, Note_on_c, 5, 66, 0
7, 41640, Note_on_c, 5, 69, 107
7, 41640, Note_on_c, 5, 66, 107
7, 41736, Note_on_c, 5, 66, 0
7, 41736, Note_on_c, 5, 69, 0
7, 41760, Note_on_c, 5, 71, 107
7, 41856, Note_on_c, 5, 71, 0
7, 41880, Note_on_c, 5, 62, 107
7, 41976, Note_on_c, 5, 62, 0
7, 42000, Note_on_c, 5, 74, 107
7, 42096, Note_on_c, 5, 74, 0
7, 42120, Note_on_c, 5, 76, 107
7, 42216, Note_on_c, 5, 76, 0
7, 42240, Note_on_c, 5, 74, 107
7, 42336, Note_on_c, 5, 74, 0
7, 42360, Note_on_c, 5, 72, 107
7, 42456, Note_on_c, 5, 72, 0
7, 42480, Note_on_c, 5, 71, 107
7, 42576, Note_on_c, 5, 71, 0
7, 43320, Note_on_c, 5, 66, 107
7, 43416, Note_on_c, 5, 66, 0
7, 43440, Note_on_c, 5, 67, 107
7, 43536, Note_on_c, 5, 67, 0
7, 43560, Note_on_c, 5, 64, 107
7, 43656, Note_on_c, 5, 64, 0
7, 43680, Note_on_c, 5, 62, 107
7, 43776, Note_on_c, 5, 62, 0
7, 43800, Note_on_c, 5, 60, 107
7, 43896, Note_on_c, 5, 60, 0
7, 43920, Note_on_c, 5, 59, 107
7, 44016, Note_on_c, 5, 59, 0
7, 45480, Note_on_c, 5, 67, 107
7, 45576, Note_on_c, 5, 67, 0
7, 45600, Note_on_c, 5, 66, 107
7, 45696, Note_on_c, 5, 66, 0
7, 45720, Note_on_c, 5, 67, 107
7, 45816, Note_on_c, 5, 67, 0
7, 45840, Note_on_c, 5, 69, 107
7, 45936, Note_on_c, 5, 69, 0
7, 45960, Note_on_c, 5, 66, 107
7, 46056, Note_on_c, 5, 66, 0
7, 46080, Note_on_c, 5, 67, 107
7, 46176, Note_on_c, 5, 67, 0
7, 47520, Note_on_c, 5, 62, 107
7, 47520, Note_on_c, 5, 67, 107
7, 47616, Note_on_c, 5, 67, 0
7, 47616, Note_on_c, 5, 62, 0
7, 48240, Note_on_c, 5, 67, 107
7, 48240, Note_on_c, 5, 71, 107
7, 48336, Note_on_c, 5, 71, 0
7, 48336, Note_on_c, 5, 67, 0
7, 48960, Note_on_c, 5, 74, 107
7, 48960, Note_on_c, 5, 62, 107
7, 48960, Note_on_c, 5, 71, 107
7, 49056, Note_on_c, 5, 71, 0
7, 49056, Note_on_c, 5, 62, 0
7, 49056, Note_on_c, 5, 74, 0
7, 49680, Note_on_c, 5, 67, 107
7, 49680, Note_on_c, 5, 64, 107
7, 49680, Note_on_c, 5, 72, 107
7, 49776, Note_on_c, 5, 72, 0
7, 49776, Note_on_c, 5, 64, 0
7, 49776, Note_on_c, 5, 67, 0
7, 50400, Note_on_c, 5, 67, 107
7, 50400, Note_on_c, 5, 62, 107
7, 50400, Note_on_c, 5, 72, 107
7, 50496, Note_on_c, 5, 72, 0
7, 50496, Note_on_c, 5, 62, 0
7, 50496, Note_on_c, 5, 67, 0
7, 51120, Note_on_c, 5, 67, 107
7, 51120, Note_on_c, 5, 62, 107
7, 51120, Note_on_c, 5, 71, 107
7, 51216, Note_on_c, 5, 71, 0
7, 51216, Note_on_c, 5, 62, 0
7, 51216, Note_on_c, 5, 67, 0
7, 51840, Note_on_c, 5, 67, 107
7, 51840, Note_on_c, 5, 60, 107
7, 51840, Note_on_c, 5, 71, 107
7, 51936, Note_on_c, 5, 71, 0
7, 51936, Note_on_c, 5, 60, 0
7, 51936, Note_on_c, 5, 67, 0
7, 52560, Note_on_c, 5, 66, 107
7, 52560, Note_on_c, 5, 60, 107
7, 52560, Note_on_c, 5, 69, 107
7, 52656, Note_on_c, 5, 69, 0
7, 52656, Note_on_c, 5, 60, 0
7, 52656, Note_on_c, 5, 66, 0
7, 53280, Note_on_c, 5, 69, 107
7, 53280, Note_on_c, 5, 59, 107
7, 53280, Note_on_c, 5, 62, 107
7, 53376, Note_on_c, 5, 62, 0
7, 53376, Note_on_c, 5, 59, 0
7, 53376, Note_on_c, 5, 69, 0
7, 54000, Note_on_c, 5, 62, 107
7, 54000, Note_on_c, 5, 59, 107
7, 54000, Note_on_c, 5, 67, 107
7, 54096, Note_on_c, 5, 67, 0
7, 54096, Note_on_c, 5, 59, 0
7, 54096, Note_on_c, 5, 62, 0
7, 54720, Note_on_c, 5, 67, 107
7, 54720, Note_on_c, 5, 60, 107
7, 54720, Note_on_c, 5, 57, 107
7, 54816, Note_on_c, 5, 57, 0
7, 54816, Note_on_c, 5, 60, 0
7, 54816, Note_on_c, 5, 67, 0
7, 55440, Note_on_c, 5, 57, 107
7, 55440, Note_on_c, 5, 66, 107
7, 55440, Note_on_c, 5, 60, 107
7, 55536, Note_on_c, 5, 60, 0
7, 55536, Note_on_c, 5, 66, 0
7, 55536, Note_on_c, 5, 57, 0
7, 56160, Note_on_c, 5, 62, 107
7, 56160, Note_on_c, 5, 67, 107
7, 56280, Note_on_c, 5, 67, 0
7, 56280, Note_on_c, 5, 62, 0
7, 56280, Note_on_c, 5, 59, 107
7, 56280, Note_on_c, 5, 62, 107
7, 56400, Note_on_c, 5, 62, 0
7, 56400, Note_on_c, 5, 59, 0
7, 56400, Note_on_c, 5, 59, 107
7, 56400, Note_on_c, 5, 62, 107
7, 56520, Note_on_c, 5, 62, 0
7, 56520, Note_on_c, 5, 59, 0
7, 56520, Note_on_c, 5, 62, 107
7, 56520, Note_on_c, 5, 59, 107
7, 56640, Note_on_c, 5, 59, 0
7, 56640, Note_on_c, 5, 62, 0
7, 56640, Note_on_c, 5, 59, 107
7, 56640, Note_on_c, 5, 62, 107
7, 56760, Note_on_c, 5, 62, 0
7, 56760, Note_on_c, 5, 59, 0
7, 56760, Note_on_c, 5, 59, 107
7, 56760, Note_on_c, 5, 62, 107
7, 56856, Note_on_c, 5, 62, 0
7, 56856, Note_on_c, 5, 59, 0
7, 57000, Note_on_c, 5, 62, 107
7, 57000, Note_on_c, 5, 67, 107
7, 57120, Note_on_c, 5, 67, 0
7, 57120, Note_on_c, 5, 62, 0
7, 57120, Note_on_c, 5, 62, 107
7, 57120, Note_on_c, 5, 67, 107
7, 57240, Note_on_c, 5, 67, 0
7, 57240, Note_on_c, 5, 62, 0
7, 57240, Note_on_c, 5, 67, 107
7, 57240, Note_on_c, 5, 62, 107
7, 57360, Note_on_c, 5, 62, 0
7, 57360, Note_on_c, 5, 67, 0
7, 57360, Note_on_c, 5, 67, 107
7, 57360, Note_on_c, 5, 62, 107
7, 57480, Note_on_c, 5, 62, 0
7, 57480, Note_on_c, 5, 67, 0
7, 57480, Note_on_c, 5, 62, 107
7, 57480, Note_on_c, 5, 67, 107
7, 57576, Note_on_c, 5, 67, 0
7, 57576, Note_on_c, 5, 62, 0
7, 57720, Note_on_c, 5, 65, 107
7, 57720, Note_on_c, 5, 71, 107
7, 57840, Note_on_c, 5, 71, 0
7, 57840, Note_on_c, 5, 65, 0
7, 57840, Note_on_c, 5, 65, 107
7, 57840, Note_on_c, 5, 71, 107
7, 57960, Note_on_c, 5, 71, 0
7, 57960, Note_on_c, 5, 65, 0
7, 57960, Note_on_c, 5, 71, 107
7, 57960, Note_on_c, 5, 65, 107
7, 58080, Note_on_c, 5, 65, 0
7, 58080, Note_on_c, 5, 71, 0
7, 58080, Note_on_c, 5, 65, 107
7, 58080, Note_on_c, 5, 71, 107
7, 58200, Note_on_c, 5, 71, 0
7, 58200, Note_on_c, 5, 65, 0
7, 58200, Note_on_c, 5, 71, 107
7, 58200, Note_on_c, 5, 65, 107
7, 58296, Note_on_c, 5, 65, 0
7, 58296, Note_on_c, 5, 71, 0
7, 58440, Note_on_c, 5, 74, 107
7, 58440, Note_on_c, 5, 64, 107
7, 58560, Note_on_c, 5, 64, 0
7, 58560, Note_on_c, 5, 74, 0
7, 58560, Note_on_c, 5, 74, 107
7, 58560, Note_on_c, 5, 64, 107
7, 58680, Note_on_c, 5, 64, 0
7, 58680, Note_on_c, 5, 74, 0
7, 58680, Note_on_c, 5, 74, 107
7, 58680, Note_on_c, 5, 64, 107
7, 58800, Note_on_c, 5, 64, 0
7, 58800, Note_on_c, 5, 74, 0
7, 58800, Note_on_c, 5, 74, 107
7, 58800, Note_on_c, 5, 64, 107
7, 58920, Note_on_c, 5, 64, 0
7, 58920, Note_on_c, 5, 74, 0
7, 58920, Note_on_c, 5, 74, 107
7, 58920, Note_on_c, 5, 64, 107
7, 59016, Note_on_c, 5, 64, 0
7, 59016, Note_on_c, 5, 74, 0
7, 59160, Note_on_c, 5, 72, 107
7, 59160, Note_on_c, 5, 64, 107
7, 59280, Note_on_c, 5, 64, 0
7, 59280, Note_on_c, 5, 72, 0
7, 59280, Note_on_c, 5, 64, 107
7, 59280, Note_on_c, 5, 72, 107
7, 59400, Note_on_c, 5, 72, 0
7, 59400, Note_on_c, 5, 64, 0
7, 59400, Note_on_c, 5, 72, 107
7, 59400, Note_on_c, 5, 64, 107
7, 59520, Note_on_c, 5, 64, 0
7, 59520, Note_on_c, 5, 72, 0
7, 59520, Note_on_c, 5, 64, 107
7, 59520, Note_on_c, 5, 72, 107
7, 59640, Note_on_c, 5, 72, 0
7, 59640, Note_on_c, 5, 64, 0
7, 59640, Note_on_c, 5, 64, 107
7, 59640, Note_on_c, 5, 72, 107
7, 59736, Note_on_c, 5, 72, 0
7, 59736, Note_on_c, 5, 64, 0
7, 59880, Note_on_c, 5, 69, 107
7, 59880, Note_on_c, 5, 64, 107
7, 60000, Note_on_c, 5, 64, 0
7, 60000, Note_on_c, 5, 69, 0
7, 60000, Note_on_c, 5, 64, 107
7, 60000, Note_on_c, 5, 69, 107
7, 60120, Note_on_c, 5, 69, 0
7, 60120, Note_on_c, 5, 64, 0
7, 60120, Note_on_c, 5, 69, 107
7, 60120, Note_on_c, 5, 64, 107
7, 60240, Note_on_c, 5, 64, 0
7, 60240, Note_on_c, 5, 69, 0
7, 60240, Note_on_c, 5, 64, 107
7, 60240, Note_on_c, 5, 69, 107
7, 60360, Note_on_c, 5, 69, 0
7, 60360, Note_on_c, 5, 64, 0
7, 60360, Note_on_c, 5, 64, 107
7, 60360, Note_on_c, 5, 69, 107
7, 60456, Note_on_c, 5, 69, 0
7, 60456, Note_on_c, 5, 64, 0
7, 60600, Note_on_c, 5, 67, 107
7, 60600, Note_on_c, 5, 64, 107
7, 60720, Note_on_c, 5, 64, 0
7, 60720, Note_on_c, 5, 67, 0
7, 60720, Note_on_c, 5, 64, 107
7, 60720, Note_on_c, 5, 67, 107
7, 60840, Note_on_c, 5, 67, 0
7, 60840, Note_on_c, 5, 64, 0
7, 60840, Note_on_c, 5, 67, 107
7, 60840, Note_on_c, 5, 64, 107
7, 60960, Note_on_c, 5, 64, 0
7, 60960, Note_on_c, 5, 67, 0
7, 60960, Note_on_c, 5, 67, 107
7, 60960, Note_on_c, 5, 64, 107
7, 61080, Note_on_c, 5, 64, 0
7, 61080, Note_on_c, 5, 67, 0
7, 61080, Note_on_c, 5, 64, 107
7, 61080, Note_on_c, 5, 67, 107
7, 61176, Note_on_c, 5, 67, 0
7, 61176, Note_on_c, 5, 64, 0
7, 61320, Note_on_c, 5, 66, 107
7, 61320, Note_on_c, 5, 64, 107
7, 61440, Note_on_c, 5, 64, 0
7, 61440, Note_on_c, 5, 66, 0
7, 61440, Note_on_c, 5, 66, 107
7, 61440, Note_on_c, 5, 64, 107
7, 61560, Note_on_c, 5, 64, 0
7, 61560, Note_on_c, 5, 66, 0
7, 61560, Note_on_c, 5, 66, 107
7, 61560, Note_on_c, 5, 64, 107
7, 61680, Note_on_c, 5, 64, 0
7, 61680, Note_on_c, 5, 66, 0
7, 61680, Note_on_c, 5, 64, 107
7, 61680, Note_on_c, 5, 66, 107
7, 61800, Note_on_c, 5, 66, 0
7, 61800, Note_on_c, 5, 64, 0
7, 61800, Note_on_c, 5, 66, 107
7, 61800, Note_on_c, 5, 64, 107
7, 61896, Note_on_c, 5, 64, 0
7, 61896, Note_on_c, 5, 66, 0
7, 62040, Note_on_c, 5, 78, 107
7, 62160, Note_on_c, 5, 78, 0
7, 62160, Note_on_c, 5, 78, 107
7, 62280, Note_on_c, 5, 78, 0
7, 62280, Note_on_c, 5, 78, 107
7, 62400, Note_on_c, 5, 78, 0
7, 62400, Note_on_c, 5, 78, 107
7, 62520, Note_on_c, 5, 78, 0
7, 62520, Note_on_c, 5, 78, 107
7, 62616, Note_on_c, 5, 78, 0
7, 62760, Note_on_c, 5, 79, 107
7, 62760, Note_on_c, 5, 71, 107
7, 62880, Note_on_c, 5, 71, 0
7, 62880, Note_on_c, 5, 79, 0
7, 62880, Note_on_c, 5, 79, 107
7, 62880, Note_on_c, 5, 71, 107
7, 63000, Note_on_c, 5, 71, 0
7, 63000, Note_on_c, 5, 79, 0
7, 63000, Note_on_c, 5, 71, 107
7, 63000, Note_on_c, 5, 79, 107
7, 63120, Note_on_c, 5, 79, 0
7, 63120, Note_on_c, 5, 71, 0
7, 63120, Note_on_c, 5, 71, 107
7, 63120, Note_on_c, 5, 79, 107
7, 63240, Note_on_c, 5, 79, 0
7, 63240, Note_on_c, 5, 71, 0
7, 63240, Note_on_c, 5, 79, 107
7, 63240, Note_on_c, 5, 71, 107
7, 63336, Note_on_c, 5, 71, 0
7, 63336, Note_on_c, 5, 79, 0
7, 63480, Note_on_c, 5, 72, 107
7, 63480, Note_on_c, 5, 81, 107
7, 63480, Note_on_c, 5, 76, 107
7, 63600, Note_on_c, 5, 76, 0
7, 63600, Note_on_c, 5, 81, 0
7, 63600, Note_on_c, 5, 72, 0
7, 63600, Note_on_c, 5, 76, 107
7, 63600, Note_on_c, 5, 72, 107
7, 63600, Note_on_c, 5, 81, 107
7, 63720, Note_on_c, 5, 81, 0
7, 63720, Note_on_c, 5, 72, 0
7, 63720, Note_on_c, 5, 76, 0
7, 63720, Note_on_c, 5, 81, 107
7, 63720, Note_on_c, 5, 72, 107
7, 63720, Note_on_c, 5, 76, 107
7, 63840, Note_on_c, 5, 76, 0
7, 63840, Note_on_c, 5, 72, 0
7, 63840, Note_on_c, 5, 81, 0
7, 63840, Note_on_c, 5, 81, 107
7, 63840, Note_on_c, 5, 76, 107
7, 63840, Note_on_c, 5, 72, 107
7, 63960, Note_on_c, 5, 72, 0
7, 63960, Note_on_c, 5, 76, 0
7, 63960, Note_on_c, 5, 81, 0
7, 63960, Note_on_c, 5, 81, 107
7, 63960, Note_on_c, 5, 76, 107
7, 63960, Note_on_c, 5, 72, 107
7, 64056, Note_on_c, 5, 72, 0
7, 64056, Note_on_c, 5, 76, 0
7, 64056, Note_on_c, 5, 81, 0
7, 64080, Note_on_c, 5, 75, 107
7, 64080, Note_on_c, 5, 81, 107
7, 64080, Note_on_c, 5, 66, 107
7, 64656, Note_on_c, 5, 66, 0
7, 64656, Note_on_c, 5, 81, 0
7, 64656, Note_on_c, 5, 75, 0
7, 64800, Note_on_c, 5, 75, 107
7, 64800, Note_on_c, 5, 81, 107
7, 64800, Note_on_c, 5, 66, 107
7, 65376, Note_on_c, 5, 66, 0
7, 65376, Note_on_c, 5, 81, 0
7, 65376, Note_on_c, 5, 75, 0
7, 65520, Note_on_c, 5, 78, 107
7, 65520, Note_on_c, 5, 81, 107
7, 65520, Note_on_c, 5, 66, 107
7, 66096, Note_on_c, 5, 66, 0
7, 66096, Note_on_c, 5, 81, 0
7, 66096, Note_on_c, 5, 78, 0
7, 66240, Note_on_c, 5, 75, 107
7, 66240, Note_on_c, 5, 81, 107
7, 66240, Note_on_c, 5, 66, 107
7, 66816, Note_on_c, 5, 66, 0
7, 66816, Note_on_c, 5, 81, 0
7, 66816, Note_on_c, 5, 75, 0
7, 70560, Note_on_c, 5, 64, 107
7, 70560, Note_on_c, 5, 67, 107
7, 70752, Note_on_c, 5, 67, 0
7, 70752, Note_on_c, 5, 64, 0
7, 70800, Note_on_c, 5, 76, 107
7, 70800, Note_on_c, 5, 71, 107
7, 70992, Note_on_c, 5, 71, 0
7, 70992, Note_on_c, 5, 76, 0
7, 71280, Note_on_c, 5, 66, 107
7, 71280, Note_on_c, 5, 69, 107
7, 71472, Note_on_c, 5, 69, 0
7, 71472, Note_on_c, 5, 66, 0
7, 71520, Note_on_c, 5, 69, 107
7, 71520, Note_on_c, 5, 78, 107
7, 71712, Note_on_c, 5, 78, 0
7, 71712, Note_on_c, 5, 69, 0
7, 72000, Note_on_c, 5, 67, 107
7, 72192, Note_on_c, 5, 67, 0
7, 72240, Note_on_c, 5, 76, 107
7, 72240, Note_on_c, 5, 71, 107
7, 72432, Note_on_c, 5, 71, 0
7, 72432, Note_on_c, 5, 76, 0
7, 72840, Note_on_c, 5, 71, 107
7, 72840, Note_on_c, 5, 66, 107
7, 72936, Note_on_c, 5, 66, 0
7, 72936, Note_on_c, 5, 71, 0
7, 72960, Note_on_c, 5, 71, 107
7, 72960, Note_on_c, 5, 75, 107
7, 73056, Note_on_c, 5, 75, 0
7, 73056, Note_on_c, 5, 71, 0
7, 73080, Note_on_c, 5, 75, 107
7, 73080, Note_on_c, 5, 78, 107
7, 73176, Note_on_c, 5, 78, 0
7, 73176, Note_on_c, 5, 75, 0
7, 73200, Note_on_c, 5, 78, 107
7, 73200, Note_on_c, 5, 83, 107
7, 73296, Note_on_c, 5, 83, 0
7, 73296, Note_on_c, 5, 78, 0
7, 73560, Note_on_c, 5, 71, 107
7, 73560, Note_on_c, 5, 66, 107
7, 73656, Note_on_c, 5, 66, 0
7, 73656, Note_on_c, 5, 71, 0
7, 73680, Note_on_c, 5, 71, 107
7, 73680, Note_on_c, 5, 75, 107
7, 73776, Note_on_c, 5, 75, 0
7, 73776, Note_on_c, 5, 71, 0
7, 73800, Note_on_c, 5, 78, 107
7, 73800, Note_on_c, 5, 75, 107
7, 73896, Note_on_c, 5, 75, 0
7, 73896, Note_on_c, 5, 78, 0
7, 73920, Note_on_c, 5, 78, 107
7, 73920, Note_on_c, 5, 81, 107
7, 74016, Note_on_c, 5, 81, 0
7, 74016, Note_on_c, 5, 78, 0
7, 74280, Note_on_c, 5, 75, 107
7, 74280, Note_on_c, 5, 66, 107
7, 74376, Note_on_c, 5, 66, 0
7, 74376, Note_on_c, 5, 75, 0
7, 74400, Note_on_c, 5, 67, 107
7, 74400, Note_on_c, 5, 76, 107
7, 74496, Note_on_c, 5, 76, 0
7, 74496, Note_on_c, 5, 67, 0
7, 74520, Note_on_c, 5, 66, 107
7, 74520, Note_on_c, 5, 75, 107
7, 74616, Note_on_c, 5, 75, 0
7, 74616, Note_on_c, 5, 66, 0
7, 74640, Note_on_c, 5, 76, 107
7, 74640, Note_on_c, 5, 67, 107
7, 74736, Note_on_c, 5, 67, 0
7, 74736, Note_on_c, 5, 76, 0
7, 74760, Note_on_c, 5, 72, 107
7, 74760, Note_on_c, 5, 64, 107
7, 74856, Note_on_c, 5, 64, 0
7, 74856, Note_on_c, 5, 72, 0
7, 74880, Note_on_c, 5, 71, 107
7, 74880, Note_on_c, 5, 66, 107
7, 75456, Note_on_c, 5, 66, 0
7, 75456, Note_on_c, 5, 71, 0
7, 75600, Note_on_c, 5, 67, 107
7, 75600, Note_on_c, 5, 71, 107
7, 76176, Note_on_c, 5, 71, 0
7, 76176, Note_on_c, 5, 67, 0
7, 76320, Note_on_c, 5, 65, 107
7, 76320, Note_on_c, 5, 72, 107
7, 76512, Note_on_c, 5, 72, 0
7, 76512, Note_on_c, 5, 65, 0
7, 76560, Note_on_c, 5, 81, 107
7, 76560, Note_on_c, 5, 78, 107
7, 76752, Note_on_c, 5, 78, 0
7, 76752, Note_on_c, 5, 81, 0
7, 76920, Note_on_c, 5, 79, 107
7, 76968, Note_on_c, 5, 79, 0
7, 76980, Note_on_c, 5, 78, 107
7, 77028, Note_on_c, 5, 78, 0
7, 77040, Note_on_c, 5, 71, 107
7, 77040, Note_on_c, 5, 76, 107
7, 77136, Note_on_c, 5, 76, 0
7, 77136, Note_on_c, 5, 71, 0
7, 77160, Note_on_c, 5, 69, 107
7, 77160, Note_on_c, 5, 72, 107
7, 77256, Note_on_c, 5, 72, 0
7, 77256, Note_on_c, 5, 69, 0
7, 77280, Note_on_c, 5, 71, 107
7, 77280, Note_on_c, 5, 67, 107
7, 77376, Note_on_c, 5, 67, 0
7, 77376, Note_on_c, 5, 71, 0
7, 77400, Note_on_c, 5, 69, 107
7, 77400, Note_on_c, 5, 66, 107
7, 77496, Note_on_c, 5, 66, 0
7, 77496, Note_on_c, 5, 69, 0
7, 77520, Note_on_c, 5, 67, 107
7, 77520, Note_on_c, 5, 64, 107
7, 77616, Note_on_c, 5, 64, 0
7, 77616, Note_on_c, 5, 67, 0
7, 77640, Note_on_c, 5, 63, 107
7, 77640, Note_on_c, 5, 66, 107
7, 77736, Note_on_c, 5, 66, 0
7, 77736, Note_on_c, 5, 63, 0
7, 77760, Note_on_c, 5, 64, 107
7, 77760, Note_on_c, 5, 67, 107
7, 78336, Note_on_c, 5, 67, 0
7, 78336, Note_on_c, 5, 64, 0
7, 78480, Note_on_c, 5, 64, 107
7, 78480, Note_on_c, 5, 67, 107
7, 79056, Note_on_c, 5, 67, 0
7, 79056, Note_on_c, 5, 64, 0
7, 79200, Note_on_c, 5, 62, 107
7, 79200, Note_on_c, 5, 66, 107
7, 79776, Note_on_c, 5, 66, 0
7, 79776, Note_on_c, 5, 62, 0
7, 79920, Note_on_c, 5, 59, 107
7, 79920, Note_on_c, 5, 68, 107
7, 80496, Note_on_c, 5, 68, 0
7, 80496, Note_on_c, 5, 59, 0
7, 80640, Note_on_c, 5, 69, 107
7, 80640, Note_on_c, 5, 61, 107
7, 80736, Note_on_c, 5, 61, 0
7, 80736, Note_on_c, 5, 69, 0
7, 81480, Note_on_c, 5, 67, 107
7, 81576, Note_on_c, 5, 67, 0
7, 81600, Note_on_c, 5, 66, 107
7, 81696, Note_on_c, 5, 66, 0
7, 81720, Note_on_c, 5, 64, 107
7, 81816, Note_on_c, 5, 64, 0
7, 81840, Note_on_c, 5, 62, 107
7, 81936, Note_on_c, 5, 62, 0
7, 81960, Note_on_c, 5, 60, 107
7, 82056, Note_on_c, 5, 60, 0
7, 82080, Note_on_c, 5, 59, 107
7, 82272, Note_on_c, 5, 59, 0
7, 82920, Note_on_c, 5, 66, 107
7, 83016, Note_on_c, 5, 66, 0
7, 83040, Note_on_c, 5, 64, 107
7, 83136, Note_on_c, 5, 64, 0
7, 83160, Note_on_c, 5, 62, 107
7, 83256, Note_on_c, 5, 62, 0
7, 83280, Note_on_c, 5, 61, 107
7, 83376, Note_on_c, 5, 61, 0
7, 83400, Note_on_c, 5, 59, 107
7, 83496, Note_on_c, 5, 59, 0
7, 83520, Note_on_c, 5, 57, 107
7, 83712, Note_on_c, 5, 57, 0
7, 84360, Note_on_c, 5, 64, 107
7, 84456, Note_on_c, 5, 64, 0
7, 84480, Note_on_c, 5, 62, 107
7, 84576, Note_on_c, 5, 62, 0
7, 84600, Note_on_c, 5, 60, 107
7, 84696, Note_on_c, 5, 60, 0
7, 84720, Note_on_c, 5, 59, 107
7, 84816, Note_on_c, 5, 59, 0
7, 84840, Note_on_c, 5, 57, 107
7, 84936, Note_on_c, 5, 57, 0
7, 84960, Note_on_c, 5, 55, 107
7, 85152, Note_on_c, 5, 55, 0
7, 85200, Note_on_c, 5, 67, 107
7, 85200, Note_on_c, 5, 71, 107
7, 85584, Note_on_c, 5, 71, 0
7, 85584, Note_on_c, 5, 67, 0
7, 85680, Note_on_c, 5, 67, 107
7, 85680, Note_on_c, 5, 73, 107
7, 86064, Note_on_c, 5, 73, 0
7, 86064, Note_on_c, 5, 67, 0
7, 86400, Note_on_c, 5, 66, 107
7, 86784, Note_on_c, 5, 66, 0
7, 86784, Note_on_c, 5, 73, 64
7, 86784, Note_on_c, 5, 73, 0
7, 87120, Note_on_c, 5, 68, 107
7, 87120, Note_on_c, 5, 74, 107
7, 87504, Note_on_c, 5, 74, 0
7, 87504, Note_on_c, 5, 68, 0
7, 87840, Note_on_c, 5, 64, 107
7, 87840, Note_on_c, 5, 73, 107
7, 87953, Note_on_c, 5, 73, 0
7, 87953, Note_on_c, 5, 64, 0
7, 88560, Note_on_c, 5, 64, 107
7, 88752, Note_on_c, 5, 64, 0
7, 89280, Note_on_c, 5, 66, 107
7, 89376, Note_on_c, 5, 66, 0
7, 89400, Note_on_c, 5, 69, 107
7, 89448, Note_on_c, 5, 69, 0
7, 89460, Note_on_c, 5, 67, 107
7, 89508, Note_on_c, 5, 67, 0
7, 89520, Note_on_c, 5, 66, 107
7, 89616, Note_on_c, 5, 66, 0
7, 89640, Note_on_c, 5, 69, 107
7, 89736, Note_on_c, 5, 69, 0
7, 89760, Note_on_c, 5, 62, 107
7, 89856, Note_on_c, 5, 62, 0
7, 89880, Note_on_c, 5, 66, 107
7, 89976, Note_on_c, 5, 66, 0
7, 90120, Note_on_c, 5, 79, 107
7, 90120, Note_on_c, 5, 76, 107
7, 90168, Note_on_c, 5, 76, 0
7, 90168, Note_on_c, 5, 79, 0
7, 90180, Note_on_c, 5, 74, 107
7, 90180, Note_on_c, 5, 78, 107
7, 90228, Note_on_c, 5, 78, 0
7, 90228, Note_on_c, 5, 74, 0
7, 90240, Note_on_c, 5, 79, 107
7, 90240, Note_on_c, 5, 76, 107
7, 90336, Note_on_c, 5, 76, 0
7, 90336, Note_on_c, 5, 79, 0
7, 90360, Note_on_c, 5, 76, 107
7, 90360, Note_on_c, 5, 73, 107
7, 90456, Note_on_c, 5, 73, 0
7, 90456, Note_on_c, 5, 76, 0
7, 90480, Note_on_c, 5, 73, 107
7, 90480, Note_on_c, 5, 69, 107
7, 90576, Note_on_c, 5, 69, 0
7, 90576, Note_on_c, 5, 73, 0
7, 90600, Note_on_c, 5, 76, 107
7, 90600, Note_on_c, 5, 64, 107
7, 90696, Note_on_c, 5, 64, 0
7, 90696, Note_on_c, 5, 76, 0
7, 90720, Note_on_c, 5, 69, 107
7, 90720, Note_on_c, 5, 66, 107
7, 90816, Note_on_c, 5, 66, 0
7, 90816, Note_on_c, 5, 69, 0
7, 90840, Note_on_c, 5, 71, 107
7, 90840, Note_on_c, 5, 67, 107
7, 90936, Note_on_c, 5, 67, 0
7, 90936, Note_on_c, 5, 71, 0
7, 90960, Note_on_c, 5, 73, 107
7, 90960, Note_on_c, 5, 69, 107
7, 91056, Note_on_c, 5, 69, 0
7, 91056, Note_on_c, 5, 73, 0
7, 91080, Note_on_c, 5, 74, 107
7, 91080, Note_on_c, 5, 71, 107
7, 91176, Note_on_c, 5, 71, 0
7, 91176, Note_on_c, 5, 74, 0
7, 91200, Note_on_c, 5, 73, 107
7, 91200, Note_on_c, 5, 76, 107
7, 91296, Note_on_c, 5, 76, 0
7, 91296, Note_on_c, 5, 73, 0
7, 91320, Note_on_c, 5, 74, 107
7, 91320, Note_on_c, 5, 78, 107
7, 91416, Note_on_c, 5, 78, 0
7, 91416, Note_on_c, 5, 74, 0
7, 91440, Note_on_c, 5, 76, 107
7, 91440, Note_on_c, 5, 79, 107
7, 91968, Note_on_c, 5, 79, 0
7, 91968, Note_on_c, 5, 76, 0
7, 92160, Note_on_c, 5, 74, 107
7, 92160, Note_on_c, 5, 78, 107
7, 92352, Note_on_c, 5, 78, 0
7, 92352, Note_on_c, 5, 74, 0
7, 92880, Note_on_c, 5, 69, 107
7, 93168, Note_on_c, 5, 69, 0
7, 93600, Note_on_c, 5, 71, 107
7, 93888, Note_on_c, 5, 71, 0
7, 94320, Note_on_c, 5, 69, 107
7, 94608, Note_on_c, 5, 69, 0
7, 95040, Note_on_c, 5, 69, 107
7, 95040, Note_on_c, 5, 67, 107
7, 95040, Note_on_c, 5, 73, 107
7, 95136, Note_on_c, 5, 73, 0
7, 95136, Note_on_c, 5, 67, 0
7, 95136, Note_on_c, 5, 69, 0
7, 95280, Note_on_c, 5, 76, 107
7, 95280, Note_on_c, 5, 69, 107
7, 95280, Note_on_c, 5, 73, 107
7, 95376, Note_on_c, 5, 73, 0
7, 95376, Note_on_c, 5, 69, 0
7, 95376, Note_on_c, 5, 76, 0
7, 95520, Note_on_c, 5, 79, 107
7, 95520, Note_on_c, 5, 76, 107
7, 95520, Note_on_c, 5, 69, 107
7, 95616, Note_on_c, 5, 69, 0
7, 95616, Note_on_c, 5, 76, 0
7, 95616, Note_on_c, 5, 79, 0
7, 95760, Note_on_c, 5, 73, 107
7, 96000, Note_on_c, 5, 81, 107
7, 96000, Note_on_c, 5, 78, 107
7, 96048, Note_on_c, 5, 76, 64
7, 96048, Note_on_c, 5, 76, 0
7, 96048, Note_on_c, 5, 79, 64
7, 96048, Note_on_c, 5, 79, 0
7, 96096, Note_on_c, 5, 78, 0
7, 96096, Note_on_c, 5, 81, 0
7, 96120, Note_on_c, 5, 74, 107
7, 96120, Note_on_c, 5, 78, 107
7, 96144, Note_on_c, 5, 73, 0
7, 96480, Note_on_c, 5, 71, 107
7, 96624, Note_on_c, 5, 78, 0
7, 96624, Note_on_c, 5, 74, 0
7, 96660, Note_on_c, 5, 76, 107
7, 96672, Note_on_c, 5, 71, 0
7, 96708, Note_on_c, 5, 76, 0
7, 96720, Note_on_c, 5, 73, 107
7, 96720, Note_on_c, 5, 76, 107
7, 96720, Note_on_c, 5, 69, 107
7, 96833, Note_on_c, 5, 69, 0
7, 96833, Note_on_c, 5, 76, 0
7, 96833, Note_on_c, 5, 73, 0
7, 96840, Note_on_c, 5, 69, 107
7, 96888, Note_on_c, 5, 69, 0
7, 96900, Note_on_c, 5, 69, 107
7, 96948, Note_on_c, 5, 69, 0
7, 96960, Note_on_c, 5, 69, 107
7, 96960, Note_on_c, 5, 74, 107
7, 97056, Note_on_c, 5, 74, 0
7, 97056, Note_on_c, 5, 69, 0
7, 97080, Note_on_c, 5, 69, 107
7, 97176, Note_on_c, 5, 69, 0
7, 97200, Note_on_c, 5, 62, 107
7, 97200, Note_on_c, 5, 74, 107
7, 97200, Note_on_c, 5, 69, 107
7, 97296, Note_on_c, 5, 69, 0
7, 97296, Note_on_c, 5, 74, 0
7, 97296, Note_on_c, 5, 62, 0
7, 97440, Note_on_c, 5, 62, 107
7, 97440, Note_on_c, 5, 69, 107
7, 97440, Note_on_c, 5, 74, 107
7, 97536, Note_on_c, 5, 74, 0
7, 97536, Note_on_c, 5, 69, 0
7, 97536, Note_on_c, 5, 62, 0
7, 97680, Note_on_c, 5, 69, 107
7, 97680, Note_on_c, 5, 74, 107
7, 97680, Note_on_c, 5, 78, 107
7, 97776, Note_on_c, 5, 78, 0
7, 97776, Note_on_c, 5, 74, 0
7, 97776, Note_on_c, 5, 69, 0
7, 97920, Note_on_c, 5, 81, 107
7, 97920, Note_on_c, 5, 78, 107
7, 97920, Note_on_c, 5, 74, 107
7, 98016, Note_on_c, 5, 74, 0
7, 98016, Note_on_c, 5, 78, 0
7, 98016, Note_on_c, 5, 81, 0
7, 98160, Note_on_c, 5, 69, 107
7, 98160, Note_on_c, 5, 78, 107
7, 98160, Note_on_c, 5, 74, 107
7, 98256, Note_on_c, 5, 74, 0
7, 98256, Note_on_c, 5, 78, 0
7, 98256, Note_on_c, 5, 69, 0
7, 98400, Note_on_c, 5, 74, 107
7, 98400, Note_on_c, 5, 81, 107
7, 98400, Note_on_c, 5, 78, 107
7, 98496, Note_on_c, 5, 78, 0
7, 98496, Note_on_c, 5, 81, 0
7, 98496, Note_on_c, 5, 74, 0
7, 98640, Note_on_c, 5, 78, 107
7, 98640, Note_on_c, 5, 86, 107
7, 98640, Note_on_c, 5, 81, 107
7, 99216, Note_on_c, 5, 81, 0
7, 99216, Note_on_c, 5, 86, 0
7, 99216, Note_on_c, 5, 78, 0
7, 99216, End_track
8, 0, Start_track
8, 0, MIDI_port, 0
8, 0, Title_t, "Sinfonia to Cantata 29, BWV 29"
8, 0, Program_c, 6, 6
8, 0, Control_c, 6, 7, 79
8, 0, Control_c, 6, 10, 64
8, 0, Note_on_c, 6, 62, 107
8, 96, Note_on_c, 6, 62, 0
8, 240, Note_on_c, 6, 50, 107
8, 336, Note_on_c, 6, 50, 0
8, 840, Note_on_c, 6, 50, 107
8, 888, Note_on_c, 6, 50, 0
8, 900, Note_on_c, 6, 49, 107
8, 948, Note_on_c, 6, 49, 0
8, 960, Note_on_c, 6, 50, 107
8, 1056, Note_on_c, 6, 50, 0
8, 1080, Note_on_c, 6, 45, 107
8, 1176, Note_on_c, 6, 45, 0
8, 1200, Note_on_c, 6, 42, 107
8, 1296, Note_on_c, 6, 42, 0
8, 1320, Note_on_c, 6, 45, 107
8, 1416, Note_on_c, 6, 45, 0
8, 1440, Note_on_c, 6, 38, 107
8, 1536, Note_on_c, 6, 38, 0
8, 2460, Note_on_c, 6, 62, 107
8, 2508, Note_on_c, 6, 62, 0
8, 2520, Note_on_c, 6, 61, 107
8, 2568, Note_on_c, 6, 61, 0
8, 2580, Note_on_c, 6, 59, 107
8, 2628, Note_on_c, 6, 59, 0
8, 2640, Note_on_c, 6, 57, 107
8, 2688, Note_on_c, 6, 57, 0
8, 2700, Note_on_c, 6, 55, 107
8, 2748, Note_on_c, 6, 55, 0
8, 2760, Note_on_c, 6, 54, 107
8, 2808, Note_on_c, 6, 54, 0
8, 2820, Note_on_c, 6, 52, 107
8, 2868, Note_on_c, 6, 52, 0
8, 2880, Note_on_c, 6, 50, 107
8, 2976, Note_on_c, 6, 50, 0
8, 3900, Note_on_c, 6, 50, 107
8, 3948, Note_on_c, 6, 50, 0
8, 3960, Note_on_c, 6, 49, 107
8, 4008, Note_on_c, 6, 49, 0
8, 4020, Note_on_c, 6, 47, 107
8, 4068, Note_on_c, 6, 47, 0
8, 4080, Note_on_c, 6, 45, 107
8, 4128, Note_on_c, 6, 45, 0
8, 4140, Note_on_c, 6, 43, 107
8, 4188, Note_on_c, 6, 43, 0
8, 4200, Note_on_c, 6, 42, 107
8, 4248, Note_on_c, 6, 42, 0
8, 4260, Note_on_c, 6, 40, 107
8, 4308, Note_on_c, 6, 40, 0
8, 4320, Note_on_c, 6, 38, 107
8, 4416, Note_on_c, 6, 38, 0
8, 5040, Note_on_c, 6, 38, 107
8, 5136, Note_on_c, 6, 38, 0
8, 5760, Note_on_c, 6, 38, 107
8, 5856, Note_on_c, 6, 38, 0
8, 6600, Note_on_c, 6, 50, 107
8, 6648, Note_on_c, 6, 50, 0
8, 6660, Note_on_c, 6, 52, 107
8, 6708, Note_on_c, 6, 52, 0
8, 6720, Note_on_c, 6, 54, 107
8, 6816, Note_on_c, 6, 54, 0
8, 6840, Note_on_c, 6, 55, 107
8, 6936, Note_on_c, 6, 55, 0
8, 6960, Note_on_c, 6, 54, 107
8, 7056, Note_on_c, 6, 54, 0
8, 7080, Note_on_c, 6, 52, 107
8, 7176, Note_on_c, 6, 52, 0
8, 7200, Note_on_c, 6, 50, 107
8, 7296, Note_on_c, 6, 50, 0
8, 8040, Note_on_c, 6, 38, 107
8, 8088, Note_on_c, 6, 38, 0
8, 8100, Note_on_c, 6, 40, 107
8, 8148, Note_on_c, 6, 40, 0
8, 8160, Note_on_c, 6, 42, 107
8, 8256, Note_on_c, 6, 42, 0
8, 8280, Note_on_c, 6, 43, 107
8, 8376, Note_on_c, 6, 43, 0
8, 8400, Note_on_c, 6, 42, 107
8, 8496, Note_on_c, 6, 42, 0
8, 8520, Note_on_c, 6, 40, 107
8, 8616, Note_on_c, 6, 40, 0
8, 8640, Note_on_c, 6, 38, 107
8, 8865, Note_on_c, 6, 38, 0
8, 10080, Note_on_c, 6, 38, 107
8, 10305, Note_on_c, 6, 38, 0
8, 11640, Note_on_c, 6, 50, 107
8, 11753, Note_on_c, 6, 50, 0
8, 11760, Note_on_c, 6, 50, 107
8, 11873, Note_on_c, 6, 50, 0
8, 11880, Note_on_c, 6, 50, 107
8, 11993, Note_on_c, 6, 50, 0
8, 12000, Note_on_c, 6, 50, 107
8, 12113, Note_on_c, 6, 50, 0
8, 12120, Note_on_c, 6, 50, 107
8, 12233, Note_on_c, 6, 50, 0
8, 12360, Note_on_c, 6, 50, 107
8, 12480, Note_on_c, 6, 50, 0
8, 12480, Note_on_c, 6, 50, 107
8, 12600, Note_on_c, 6, 50, 0
8, 12600, Note_on_c, 6, 50, 107
8, 12720, Note_on_c, 6, 50, 0
8, 12720, Note_on_c, 6, 50, 107
8, 12840, Note_on_c, 6, 50, 0
8, 12840, Note_on_c, 6, 50, 107
8, 12960, Note_on_c, 6, 50, 0
8, 13080, Note_on_c, 6, 50, 107
8, 13200, Note_on_c, 6, 50, 0
8, 13200, Note_on_c, 6, 50, 107
8, 13320, Note_on_c, 6, 50, 0
8, 13320, Note_on_c, 6, 50, 107
8, 13440, Note_on_c, 6, 50, 0
8, 13440, Note_on_c, 6, 50, 107
8, 13560, Note_on_c, 6, 50, 0
8, 13560, Note_on_c, 6, 50, 107
8, 13680, Note_on_c, 6, 50, 0
8, 13800, Note_on_c, 6, 50, 107
8, 13920, Note_on_c, 6, 50, 0
8, 13920, Note_on_c, 6, 50, 107
8, 14040, Note_on_c, 6, 50, 0
8, 14040, Note_on_c, 6, 50, 107
8, 14160, Note_on_c, 6, 50, 0
8, 14160, Note_on_c, 6, 50, 107
8, 14280, Note_on_c, 6, 50, 0
8, 14280, Note_on_c, 6, 50, 107
8, 14400, Note_on_c, 6, 50, 0
8, 14520, Note_on_c, 6, 50, 107
8, 14640, Note_on_c, 6, 50, 0
8, 14640, Note_on_c, 6, 50, 107
8, 14760, Note_on_c, 6, 50, 0
8, 14760, Note_on_c, 6, 50, 107
8, 14880, Note_on_c, 6, 50, 0
8, 14880, Note_on_c, 6, 50, 107
8, 15000, Note_on_c, 6, 50, 0
8, 15000, Note_on_c, 6, 50, 107
8, 15120, Note_on_c, 6, 50, 0
8, 15240, Note_on_c, 6, 50, 107
8, 15360, Note_on_c, 6, 50, 0
8, 15360, Note_on_c, 6, 50, 107
8, 15480, Note_on_c, 6, 50, 0
8, 15480, Note_on_c, 6, 50, 107
8, 15600, Note_on_c, 6, 50, 0
8, 15600, Note_on_c, 6, 50, 107
8, 15720, Note_on_c, 6, 50, 0
8, 15720, Note_on_c, 6, 50, 107
8, 15840, Note_on_c, 6, 50, 0
8, 15960, Note_on_c, 6, 50, 107
8, 16080, Note_on_c, 6, 50, 0
8, 16080, Note_on_c, 6, 50, 107
8, 16200, Note_on_c, 6, 50, 0
8, 16200, Note_on_c, 6, 50, 107
8, 16320, Note_on_c, 6, 50, 0
8, 16320, Note_on_c, 6, 50, 107
8, 16440, Note_on_c, 6, 50, 0
8, 16440, Note_on_c, 6, 50, 107
8, 16560, Note_on_c, 6, 50, 0
8, 16680, Note_on_c, 6, 50, 107
8, 16800, Note_on_c, 6, 50, 0
8, 16800, Note_on_c, 6, 50, 107
8, 16920, Note_on_c, 6, 50, 0
8, 16920, Note_on_c, 6, 50, 107
8, 17040, Note_on_c, 6, 50, 0
8, 17040, Note_on_c, 6, 50, 107
8, 17160, Note_on_c, 6, 50, 0
8, 17160, Note_on_c, 6, 50, 107
8, 17280, Note_on_c, 6, 50, 0
8, 17400, Note_on_c, 6, 50, 107
8, 17520, Note_on_c, 6, 50, 0
8, 17520, Note_on_c, 6, 50, 107
8, 17640, Note_on_c, 6, 50, 0
8, 17640, Note_on_c, 6, 50, 107
8, 17760, Note_on_c, 6, 50, 0
8, 17760, Note_on_c, 6, 50, 107
8, 17880, Note_on_c, 6, 50, 0
8, 17880, Note_on_c, 6, 50, 107
8, 18000, Note_on_c, 6, 50, 0
8, 18120, Note_on_c, 6, 50, 107
8, 18240, Note_on_c, 6, 50, 0
8, 18240, Note_on_c, 6, 50, 107
8, 18360, Note_on_c, 6, 50, 0
8, 18360, Note_on_c, 6, 50, 107
8, 18480, Note_on_c, 6, 50, 0
8, 18480, Note_on_c, 6, 50, 107
8, 18600, Note_on_c, 6, 50, 0
8, 18600, Note_on_c, 6, 50, 107
8, 18720, Note_on_c, 6, 50, 0
8, 18840, Note_on_c, 6, 50, 107
8, 18960, Note_on_c, 6, 50, 0
8, 18960, Note_on_c, 6, 50, 107
8, 19080, Note_on_c, 6, 50, 0
8, 19080, Note_on_c, 6, 50, 107
8, 19200, Note_on_c, 6, 50, 0
8, 19200, Note_on_c, 6, 50, 107
8, 19320, Note_on_c, 6, 50, 0
8, 19320, Note_on_c, 6, 50, 107
8, 19440, Note_on_c, 6, 50, 0
8, 19560, Note_on_c, 6, 50, 107
8, 19680, Note_on_c, 6, 50, 0
8, 19680, Note_on_c, 6, 50, 107
8, 19800, Note_on_c, 6, 50, 0
8, 19800, Note_on_c, 6, 50, 107
8, 19920, Note_on_c, 6, 50, 0
8, 19920, Note_on_c, 6, 50, 107
8, 20040, Note_on_c, 6, 50, 0
8, 20040, Note_on_c, 6, 50, 107
8, 20160, Note_on_c, 6, 50, 0
8, 20160, Note_on_c, 6, 57, 107
8, 20280, Note_on_c, 6, 57, 0
8, 20280, Note_on_c, 6, 54, 107
8, 20400, Note_on_c, 6, 54, 0
8, 20400, Note_on_c, 6, 54, 107
8, 20520, Note_on_c, 6, 54, 0
8, 20520, Note_on_c, 6, 54, 107
8, 20640, Note_on_c, 6, 54, 0
8, 20640, Note_on_c, 6, 54, 107
8, 20760, Note_on_c, 6, 54, 0
8, 20760, Note_on_c, 6, 54, 107
8, 20856, Note_on_c, 6, 54, 0
8, 21000, Note_on_c, 6, 57, 107
8, 21120, Note_on_c, 6, 57, 0
8, 21120, Note_on_c, 6, 57, 107
8, 21240, Note_on_c, 6, 57, 0
8, 21240, Note_on_c, 6, 57, 107
8, 21360, Note_on_c, 6, 57, 0
8, 21360, Note_on_c, 6, 57, 107
8, 21480, Note_on_c, 6, 57, 0
8, 21480, Note_on_c, 6, 57, 107
8, 21576, Note_on_c, 6, 57, 0
8, 21720, Note_on_c, 6, 62, 107
8, 21840, Note_on_c, 6, 62, 0
8, 21840, Note_on_c, 6, 62, 107
8, 21960, Note_on_c, 6, 62, 0
8, 21960, Note_on_c, 6, 62, 107
8, 22080, Note_on_c, 6, 62, 0
8, 22080, Note_on_c, 6, 62, 107
8, 22200, Note_on_c, 6, 62, 0
8, 22200, Note_on_c, 6, 62, 107
8, 22296, Note_on_c, 6, 62, 0
8, 22440, Note_on_c, 6, 66, 107
8, 22560, Note_on_c, 6, 66, 0
8, 22560, Note_on_c, 6, 66, 107
8, 22680, Note_on_c, 6, 66, 0
8, 22680, Note_on_c, 6, 66, 107
8, 22800, Note_on_c, 6, 66, 0
8, 22800, Note_on_c, 6, 66, 107
8, 22920, Note_on_c, 6, 66, 0
8, 22920, Note_on_c, 6, 66, 107
8, 23016, Note_on_c, 6, 66, 0
8, 23040, Note_on_c, 6, 51, 107
8, 23153, Note_on_c, 6, 51, 0
8, 23160, Note_on_c, 6, 59, 107
8, 23280, Note_on_c, 6, 59, 0
8, 23280, Note_on_c, 6, 59, 107
8, 23400, Note_on_c, 6, 59, 0
8, 23400, Note_on_c, 6, 59, 107
8, 23520, Note_on_c, 6, 59, 0
8, 23520, Note_on_c, 6, 59, 107
8, 23640, Note_on_c, 6, 59, 0
8, 23640, Note_on_c, 6, 59, 107
8, 23760, Note_on_c, 6, 59, 0
8, 23880, Note_on_c, 6, 54, 107
8, 24000, Note_on_c, 6, 54, 0
8, 24000, Note_on_c, 6, 54, 107
8, 24120, Note_on_c, 6, 54, 0
8, 24120, Note_on_c, 6, 54, 107
8, 24240, Note_on_c, 6, 54, 0
8, 24240, Note_on_c, 6, 54, 107
8, 24360, Note_on_c, 6, 54, 0
8, 24360, Note_on_c, 6, 54, 107
8, 24480, Note_on_c, 6, 54, 0
8, 24600, Note_on_c, 6, 51, 107
8, 24720, Note_on_c, 6, 51, 0
8, 24720, Note_on_c, 6, 51, 107
8, 24840, Note_on_c, 6, 51, 0
8, 24840, Note_on_c, 6, 51, 107
8, 24960, Note_on_c, 6, 51, 0
8, 24960, Note_on_c, 6, 51, 107
8, 25080, Note_on_c, 6, 51, 0
8, 25080, Note_on_c, 6, 51, 107
8, 25200, Note_on_c, 6, 51, 0
8, 25320, Note_on_c, 6, 47, 107
8, 25440, Note_on_c, 6, 47, 0
8, 25440, Note_on_c, 6, 47, 107
8, 25560, Note_on_c, 6, 47, 0
8, 25560, Note_on_c, 6, 47, 107
8, 25680, Note_on_c, 6, 47, 0
8, 25680, Note_on_c, 6, 47, 107
8, 25800, Note_on_c, 6, 47, 0
8, 25800, Note_on_c, 6, 47, 107
8, 25920, Note_on_c, 6, 47, 0
8, 25920, Note_on_c, 6, 40, 107
8, 26112, Note_on_c, 6, 40, 0
8, 26280, Note_on_c, 6, 52, 107
8, 26376, Note_on_c, 6, 52, 0
8, 26400, Note_on_c, 6, 54, 107
8, 26496, Note_on_c, 6, 54, 0
8, 26520, Note_on_c, 6, 46, 107
8, 26616, Note_on_c, 6, 46, 0
8, 26640, Note_on_c, 6, 47, 107
8, 26832, Note_on_c, 6, 47, 0
8, 27000, Note_on_c, 6, 50, 107
8, 27096, Note_on_c, 6, 50, 0
8, 27120, Note_on_c, 6, 47, 107
8, 27216, Note_on_c, 6, 47, 0
8, 27240, Note_on_c, 6, 50, 107
8, 27336, Note_on_c, 6, 50, 0
8, 27480, Note_on_c, 6, 58, 107
8, 27576, Note_on_c, 6, 58, 0
8, 27600, Note_on_c, 6, 61, 107
8, 27696, Note_on_c, 6, 61, 0
8, 27720, Note_on_c, 6, 66, 107
8, 27816, Note_on_c, 6, 66, 0
8, 27840, Note_on_c, 6, 70, 107
8, 27936, Note_on_c, 6, 70, 0
8, 28200, Note_on_c, 6, 58, 107
8, 28296, Note_on_c, 6, 58, 0
8, 28320, Note_on_c, 6, 61, 107
8, 28416, Note_on_c, 6, 61, 0
8, 28440, Note_on_c, 6, 66, 107
8, 28536, Note_on_c, 6, 66, 0
8, 28560, Note_on_c, 6, 70, 107
8, 28656, Note_on_c, 6, 70, 0
8, 29520, Note_on_c, 6, 61, 107
8, 29616, Note_on_c, 6, 61, 0
8, 29640, Note_on_c, 6, 59, 107
8, 29736, Note_on_c, 6, 59, 0
8, 29760, Note_on_c, 6, 61, 107
8, 29856, Note_on_c, 6, 61, 0
8, 29880, Note_on_c, 6, 59, 107
8, 29976, Note_on_c, 6, 59, 0
8, 30000, Note_on_c, 6, 58, 107
8, 30096, Note_on_c, 6, 58, 0
8, 30120, Note_on_c, 6, 56, 107
8, 30216, Note_on_c, 6, 56, 0
8, 30240, Note_on_c, 6, 58, 107
8, 30336, Note_on_c, 6, 58, 0
8, 30360, Note_on_c, 6, 42, 107
8, 30480, Note_on_c, 6, 42, 0
8, 30480, Note_on_c, 6, 42, 107
8, 30600, Note_on_c, 6, 42, 0
8, 30600, Note_on_c, 6, 42, 107
8, 30720, Note_on_c, 6, 42, 0
8, 30720, Note_on_c, 6, 42, 107
8, 30840, Note_on_c, 6, 42, 0
8, 30840, Note_on_c, 6, 42, 107
8, 30960, Note_on_c, 6, 42, 0
8, 31080, Note_on_c, 6, 42, 107
8, 31200, Note_on_c, 6, 42, 0
8, 31200, Note_on_c, 6, 42, 107
8, 31320, Note_on_c, 6, 42, 0
8, 31320, Note_on_c, 6, 42, 107
8, 31440, Note_on_c, 6, 42, 0
8, 31440, Note_on_c, 6, 42, 107
8, 31560, Note_on_c, 6, 42, 0
8, 31560, Note_on_c, 6, 42, 107
8, 31680, Note_on_c, 6, 42, 0
8, 31800, Note_on_c, 6, 42, 107
8, 31920, Note_on_c, 6, 42, 0
8, 31920, Note_on_c, 6, 42, 107
8, 32040, Note_on_c, 6, 42, 0
8, 32040, Note_on_c, 6, 42, 107
8, 32160, Note_on_c, 6, 42, 0
8, 32160, Note_on_c, 6, 42, 107
8, 32280, Note_on_c, 6, 42, 0
8, 32280, Note_on_c, 6, 42, 107
8, 32400, Note_on_c, 6, 42, 0
8, 32520, Note_on_c, 6, 42, 107
8, 32640, Note_on_c, 6, 42, 0
8, 32640, Note_on_c, 6, 42, 107
8, 32760, Note_on_c, 6, 42, 0
8, 32760, Note_on_c, 6, 42, 107
8, 32880, Note_on_c, 6, 42, 0
8, 32880, Note_on_c, 6, 42, 107
8, 33000, Note_on_c, 6, 42, 0
8, 33000, Note_on_c, 6, 42, 107
8, 33120, Note_on_c, 6, 42, 0
8, 33120, Note_on_c, 6, 56, 107
8, 33216, Note_on_c, 6, 56, 0
8, 33240, Note_on_c, 6, 65, 107
8, 33336, Note_on_c, 6, 65, 0
8, 33360, Note_on_c, 6, 65, 107
8, 33456, Note_on_c, 6, 65, 0
8, 33480, Note_on_c, 6, 65, 107
8, 33576, Note_on_c, 6, 65, 0
8, 33600, Note_on_c, 6, 65, 107
8, 33696, Note_on_c, 6, 65, 0
8, 33720, Note_on_c, 6, 65, 107
8, 33816, Note_on_c, 6, 65, 0
8, 33960, Note_on_c, 6, 65, 107
8, 34056, Note_on_c, 6, 65, 0
8, 34080, Note_on_c, 6, 65, 107
8, 34176, Note_on_c, 6, 65, 0
8, 34200, Note_on_c, 6, 65, 107
8, 34296, Note_on_c, 6, 65, 0
8, 34320, Note_on_c, 6, 65, 107
8, 34416, Note_on_c, 6, 65, 0
8, 34440, Note_on_c, 6, 65, 107
8, 34536, Note_on_c, 6, 65, 0
8, 34680, Note_on_c, 6, 66, 107
8, 34776, Note_on_c, 6, 66, 0
8, 34800, Note_on_c, 6, 66, 107
8, 34896, Note_on_c, 6, 66, 0
8, 34920, Note_on_c, 6, 66, 107
8, 35016, Note_on_c, 6, 66, 0
8, 35040, Note_on_c, 6, 66, 107
8, 35136, Note_on_c, 6, 66, 0
8, 35160, Note_on_c, 6, 66, 107
8, 35256, Note_on_c, 6, 66, 0
8, 35400, Note_on_c, 6, 64, 107
8, 35496, Note_on_c, 6, 64, 0
8, 35520, Note_on_c, 6, 64, 107
8, 35616, Note_on_c, 6, 64, 0
8, 35640, Note_on_c, 6, 64, 107
8, 35736, Note_on_c, 6, 64, 0
8, 35760, Note_on_c, 6, 64, 107
8, 35856, Note_on_c, 6, 64, 0
8, 35880, Note_on_c, 6, 64, 107
8, 35976, Note_on_c, 6, 64, 0
8, 36000, Note_on_c, 6, 47, 107
8, 36096, Note_on_c, 6, 47, 0
8, 36120, Note_on_c, 6, 47, 107
8, 36216, Note_on_c, 6, 47, 0
8, 36240, Note_on_c, 6, 50, 107
8, 36336, Note_on_c, 6, 50, 0
8, 36360, Note_on_c, 6, 54, 107
8, 36456, Note_on_c, 6, 54, 0
8, 36480, Note_on_c, 6, 59, 107
8, 36672, Note_on_c, 6, 59, 0
8, 36840, Note_on_c, 6, 47, 107
8, 36936, Note_on_c, 6, 47, 0
8, 36960, Note_on_c, 6, 50, 107
8, 37056, Note_on_c, 6, 50, 0
8, 37080, Note_on_c, 6, 54, 107
8, 37176, Note_on_c, 6, 54, 0
8, 37200, Note_on_c, 6, 59, 107
8, 37296, Note_on_c, 6, 59, 0
8, 37320, Note_on_c, 6, 47, 107
8, 37416, Note_on_c, 6, 47, 0
8, 37440, Note_on_c, 6, 52, 107
8, 37560, Note_on_c, 6, 52, 0
8, 37560, Note_on_c, 6, 56, 107
8, 37656, Note_on_c, 6, 56, 0
8, 37680, Note_on_c, 6, 59, 107
8, 37776, Note_on_c, 6, 59, 0
8, 37800, Note_on_c, 6, 64, 107
8, 37896, Note_on_c, 6, 64, 0
8, 37920, Note_on_c, 6, 68, 107
8, 38145, Note_on_c, 6, 68, 0
8, 38160, Note_on_c, 6, 52, 107
8, 38280, Note_on_c, 6, 52, 0
8, 38280, Note_on_c, 6, 56, 107
8, 38376, Note_on_c, 6, 56, 0
8, 38400, Note_on_c, 6, 59, 107
8, 38496, Note_on_c, 6, 59, 0
8, 38520, Note_on_c, 6, 64, 107
8, 38616, Note_on_c, 6, 64, 0
8, 38640, Note_on_c, 6, 68, 107
8, 38736, Note_on_c, 6, 68, 0
8, 38760, Note_on_c, 6, 68, 107
8, 38856, Note_on_c, 6, 68, 0
8, 38880, Note_on_c, 6, 64, 107
8, 39072, Note_on_c, 6, 64, 0
8, 39600, Note_on_c, 6, 57, 107
8, 39792, Note_on_c, 6, 57, 0
8, 40320, Note_on_c, 6, 50, 107
8, 40512, Note_on_c, 6, 50, 0
8, 41040, Note_on_c, 6, 38, 107
8, 41232, Note_on_c, 6, 38, 0
8, 41760, Note_on_c, 6, 43, 107
8, 41952, Note_on_c, 6, 43, 0
8, 42600, Note_on_c, 6, 55, 107
8, 42648, Note_on_c, 6, 55, 0
8, 42660, Note_on_c, 6, 57, 107
8, 42708, Note_on_c, 6, 57, 0
8, 42720, Note_on_c, 6, 59, 107
8, 42816, Note_on_c, 6, 59, 0
8, 42840, Note_on_c, 6, 60, 107
8, 42936, Note_on_c, 6, 60, 0
8, 42960, Note_on_c, 6, 59, 107
8, 43056, Note_on_c, 6, 59, 0
8, 43080, Note_on_c, 6, 57, 107
8, 43176, Note_on_c, 6, 57, 0
8, 44040, Note_on_c, 6, 43, 107
8, 44088, Note_on_c, 6, 43, 0
8, 44100, Note_on_c, 6, 45, 107
8, 44148, Note_on_c, 6, 45, 0
8, 44160, Note_on_c, 6, 47, 107
8, 44256, Note_on_c, 6, 47, 0
8, 44280, Note_on_c, 6, 48, 107
8, 44376, Note_on_c, 6, 48, 0
8, 44400, Note_on_c, 6, 47, 107
8, 44496, Note_on_c, 6, 47, 0
8, 44520, Note_on_c, 6, 45, 107
8, 44616, Note_on_c, 6, 45, 0
8, 44640, Note_on_c, 6, 43, 107
8, 44865, Note_on_c, 6, 43, 0
8, 46200, Note_on_c, 6, 59, 107
8, 46296, Note_on_c, 6, 59, 0
8, 46320, Note_on_c, 6, 57, 107
8, 46416, Note_on_c, 6, 57, 0
8, 46440, Note_on_c, 6, 59, 107
8, 46536, Note_on_c, 6, 59, 0
8, 46560, Note_on_c, 6, 60, 107
8, 46656, Note_on_c, 6, 60, 0
8, 46680, Note_on_c, 6, 57, 107
8, 46776, Note_on_c, 6, 57, 0
8, 46800, Note_on_c, 6, 59, 107
8, 46896, Note_on_c, 6, 59, 0
8, 46920, Note_on_c, 6, 55, 107
8, 47016, Note_on_c, 6, 55, 0
8, 47040, Note_on_c, 6, 54, 107
8, 47136, Note_on_c, 6, 54, 0
8, 47160, Note_on_c, 6, 55, 107
8, 47256, Note_on_c, 6, 55, 0
8, 47280, Note_on_c, 6, 57, 107
8, 47376, Note_on_c, 6, 57, 0
8, 47400, Note_on_c, 6, 54, 107
8, 47496, Note_on_c, 6, 54, 0
8, 47520, Note_on_c, 6, 55, 107
8, 47616, Note_on_c, 6, 55, 0
8, 47640, Note_on_c, 6, 43, 107
8, 47760, Note_on_c, 6, 43, 0
8, 47760, Note_on_c, 6, 43, 107
8, 47880, Note_on_c, 6, 43, 0
8, 47880, Note_on_c, 6, 43, 107
8, 48000, Note_on_c, 6, 43, 0
8, 48000, Note_on_c, 6, 43, 107
8, 48120, Note_on_c, 6, 43, 0
8, 48120, Note_on_c, 6, 43, 107
8, 48240, Note_on_c, 6, 43, 0
8, 48240, Note_on_c, 6, 62, 107
8, 48336, Note_on_c, 6, 62, 0
8, 48360, Note_on_c, 6, 43, 107
8, 48480, Note_on_c, 6, 43, 0
8, 48480, Note_on_c, 6, 43, 107
8, 48600, Note_on_c, 6, 43, 0
8, 48600, Note_on_c, 6, 43, 107
8, 48720, Note_on_c, 6, 43, 0
8, 48720, Note_on_c, 6, 43, 107
8, 48840, Note_on_c, 6, 43, 0
8, 48840, Note_on_c, 6, 43, 107
8, 48960, Note_on_c, 6, 43, 0
8, 49080, Note_on_c, 6, 43, 107
8, 49200, Note_on_c, 6, 43, 0
8, 49200, Note_on_c, 6, 43, 107
8, 49320, Note_on_c, 6, 43, 0
8, 49320, Note_on_c, 6, 43, 107
8, 49440, Note_on_c, 6, 43, 0
8, 49440, Note_on_c, 6, 43, 107
8, 49560, Note_on_c, 6, 43, 0
8, 49560, Note_on_c, 6, 43, 107
8, 49680, Note_on_c, 6, 43, 0
8, 49800, Note_on_c, 6, 43, 107
8, 49920, Note_on_c, 6, 43, 0
8, 49920, Note_on_c, 6, 43, 107
8, 50040, Note_on_c, 6, 43, 0
8, 50040, Note_on_c, 6, 43, 107
8, 50160, Note_on_c, 6, 43, 0
8, 50160, Note_on_c, 6, 43, 107
8, 50280, Note_on_c, 6, 43, 0
8, 50280, Note_on_c, 6, 43, 107
8, 50400, Note_on_c, 6, 43, 0
8, 50520, Note_on_c, 6, 43, 107
8, 50640, Note_on_c, 6, 43, 0
8, 50640, Note_on_c, 6, 43, 107
8, 50760, Note_on_c, 6, 43, 0
8, 50760, Note_on_c, 6, 43, 107
8, 50880, Note_on_c, 6, 43, 0
8, 50880, Note_on_c, 6, 43, 107
8, 51000, Note_on_c, 6, 43, 0
8, 51000, Note_on_c, 6, 43, 107
8, 51120, Note_on_c, 6, 43, 0
8, 51240, Note_on_c, 6, 43, 107
8, 51360, Note_on_c, 6, 43, 0
8, 51360, Note_on_c, 6, 43, 107
8, 51480, Note_on_c, 6, 43, 0
8, 51480, Note_on_c, 6, 43, 107
8, 51600, Note_on_c, 6, 43, 0
8, 51600, Note_on_c, 6, 43, 107
8, 51720, Note_on_c, 6, 43, 0
8, 51720, Note_on_c, 6, 43, 107
8, 51840, Note_on_c, 6, 43, 0
8, 51960, Note_on_c, 6, 43, 107
8, 52080, Note_on_c, 6, 43, 0
8, 52080, Note_on_c, 6, 43, 107
8, 52200, Note_on_c, 6, 43, 0
8, 52200, Note_on_c, 6, 43, 107
8, 52320, Note_on_c, 6, 43, 0
8, 52320, Note_on_c, 6, 43, 107
8, 52440, Note_on_c, 6, 43, 0
8, 52440, Note_on_c, 6, 43, 107
8, 52560, Note_on_c, 6, 43, 0
8, 52680, Note_on_c, 6, 43, 107
8, 52800, Note_on_c, 6, 43, 0
8, 52800, Note_on_c, 6, 43, 107
8, 52920, Note_on_c, 6, 43, 0
8, 52920, Note_on_c, 6, 43, 107
8, 53040, Note_on_c, 6, 43, 0
8, 53040, Note_on_c, 6, 43, 107
8, 53160, Note_on_c, 6, 43, 0
8, 53160, Note_on_c, 6, 43, 107
8, 53280, Note_on_c, 6, 43, 0
8, 53400, Note_on_c, 6, 43, 107
8, 53520, Note_on_c, 6, 43, 0
8, 53520, Note_on_c, 6, 43, 107
8, 53640, Note_on_c, 6, 43, 0
8, 53640, Note_on_c, 6, 43, 107
8, 53760, Note_on_c, 6, 43, 0
8, 53760, Note_on_c, 6, 43, 107
8, 53880, Note_on_c, 6, 43, 0
8, 53880, Note_on_c, 6, 43, 107
8, 54000, Note_on_c, 6, 43, 0
8, 54120, Note_on_c, 6, 43, 107
8, 54240, Note_on_c, 6, 43, 0
8, 54240, Note_on_c, 6, 43, 107
8, 54360, Note_on_c, 6, 43, 0
8, 54360, Note_on_c, 6, 43, 107
8, 54480, Note_on_c, 6, 43, 0
8, 54480, Note_on_c, 6, 43, 107
8, 54600, Note_on_c, 6, 43, 0
8, 54600, Note_on_c, 6, 43, 107
8, 54720, Note_on_c, 6, 43, 0
8, 54840, Note_on_c, 6, 43, 107
8, 54960, Note_on_c, 6, 43, 0
8, 54960, Note_on_c, 6, 43, 107
8, 55080, Note_on_c, 6, 43, 0
8, 55080, Note_on_c, 6, 43, 107
8, 55200, Note_on_c, 6, 43, 0
8, 55200, Note_on_c, 6, 43, 107
8, 55320, Note_on_c, 6, 43, 0
8, 55320, Note_on_c, 6, 43, 107
8, 55440, Note_on_c, 6, 43, 0
8, 55560, Note_on_c, 6, 43, 107
8, 55680, Note_on_c, 6, 43, 0
8, 55680, Note_on_c, 6, 43, 107
8, 55800, Note_on_c, 6, 43, 0
8, 55800, Note_on_c, 6, 43, 107
8, 55920, Note_on_c, 6, 43, 0
8, 55920, Note_on_c, 6, 43, 107
8, 56040, Note_on_c, 6, 43, 0
8, 56040, Note_on_c, 6, 43, 107
8, 56160, Note_on_c, 6, 43, 0
8, 56160, Note_on_c, 6, 59, 107
8, 56280, Note_on_c, 6, 59, 0
8, 56280, Note_on_c, 6, 55, 107
8, 56400, Note_on_c, 6, 55, 0
8, 56400, Note_on_c, 6, 55, 107
8, 56520, Note_on_c, 6, 55, 0
8, 56520, Note_on_c, 6, 55, 107
8, 56640, Note_on_c, 6, 55, 0
8, 56640, Note_on_c, 6, 55, 107
8, 56760, Note_on_c, 6, 55, 0
8, 56760, Note_on_c, 6, 55, 107
8, 56856, Note_on_c, 6, 55, 0
8, 57000, Note_on_c, 6, 59, 107
8, 57120, Note_on_c, 6, 59, 0
8, 57120, Note_on_c, 6, 59, 107
8, 57240, Note_on_c, 6, 59, 0
8, 57240, Note_on_c, 6, 59, 107
8, 57360, Note_on_c, 6, 59, 0
8, 57360, Note_on_c, 6, 59, 107
8, 57480, Note_on_c, 6, 59, 0
8, 57480, Note_on_c, 6, 59, 107
8, 57576, Note_on_c, 6, 59, 0
8, 57720, Note_on_c, 6, 62, 107
8, 57840, Note_on_c, 6, 62, 0
8, 57840, Note_on_c, 6, 62, 107
8, 57960, Note_on_c, 6, 62, 0
8, 57960, Note_on_c, 6, 62, 107
8, 58080, Note_on_c, 6, 62, 0
8, 58080, Note_on_c, 6, 62, 107
8, 58200, Note_on_c, 6, 62, 0
8, 58200, Note_on_c, 6, 62, 107
8, 58296, Note_on_c, 6, 62, 0
8, 58440, Note_on_c, 6, 59, 107
8, 58560, Note_on_c, 6, 59, 0
8, 58560, Note_on_c, 6, 59, 107
8, 58680, Note_on_c, 6, 59, 0
8, 58680, Note_on_c, 6, 59, 107
8, 58800, Note_on_c, 6, 59, 0
8, 58800, Note_on_c, 6, 59, 107
8, 58920, Note_on_c, 6, 59, 0
8, 58920, Note_on_c, 6, 59, 107
8, 59016, Note_on_c, 6, 59, 0
8, 59160, Note_on_c, 6, 57, 107
8, 59280, Note_on_c, 6, 57, 0
8, 59280, Note_on_c, 6, 57, 107
8, 59400, Note_on_c, 6, 57, 0
8, 59400, Note_on_c, 6, 57, 107
8, 59520, Note_on_c, 6, 57, 0
8, 59520, Note_on_c, 6, 57, 107
8, 59640, Note_on_c, 6, 57, 0
8, 59640, Note_on_c, 6, 57, 107
8, 59736, Note_on_c, 6, 57, 0
8, 59880, Note_on_c, 6, 60, 107
8, 60000, Note_on_c, 6, 60, 0
8, 60000, Note_on_c, 6, 60, 107
8, 60120, Note_on_c, 6, 60, 0
8, 60120, Note_on_c, 6, 60, 107
8, 60240, Note_on_c, 6, 60, 0
8, 60240, Note_on_c, 6, 60, 107
8, 60360, Note_on_c, 6, 60, 0
8, 60360, Note_on_c, 6, 60, 107
8, 60456, Note_on_c, 6, 60, 0
8, 60480, Note_on_c, 6, 45, 107
8, 60600, Note_on_c, 6, 45, 0
8, 60600, Note_on_c, 6, 61, 107
8, 60696, Note_on_c, 6, 61, 0
8, 60720, Note_on_c, 6, 61, 107
8, 60816, Note_on_c, 6, 61, 0
8, 60840, Note_on_c, 6, 61, 107
8, 60936, Note_on_c, 6, 61, 0
8, 60960, Note_on_c, 6, 61, 107
8, 61056, Note_on_c, 6, 61, 0
8, 61080, Note_on_c, 6, 61, 107
8, 61176, Note_on_c, 6, 61, 0
8, 61200, Note_on_c, 6, 46, 107
8, 61320, Note_on_c, 6, 46, 0
8, 61320, Note_on_c, 6, 61, 107
8, 61416, Note_on_c, 6, 61, 0
8, 61440, Note_on_c, 6, 61, 107
8, 61536, Note_on_c, 6, 61, 0
8, 61560, Note_on_c, 6, 61, 107
8, 61656, Note_on_c, 6, 61, 0
8, 61680, Note_on_c, 6, 61, 107
8, 61776, Note_on_c, 6, 61, 0
8, 61800, Note_on_c, 6, 61, 107
8, 61896, Note_on_c, 6, 61, 0
8, 61920, Note_on_c, 6, 47, 107
8, 62040, Note_on_c, 6, 47, 0
8, 62040, Note_on_c, 6, 59, 107
8, 62040, Note_on_c, 6, 63, 107
8, 62136, Note_on_c, 6, 63, 0
8, 62136, Note_on_c, 6, 59, 0
8, 62160, Note_on_c, 6, 63, 107
8, 62160, Note_on_c, 6, 59, 107
8, 62256, Note_on_c, 6, 59, 0
8, 62256, Note_on_c, 6, 63, 0
8, 62280, Note_on_c, 6, 59, 107
8, 62280, Note_on_c, 6, 63, 107
8, 62376, Note_on_c, 6, 63, 0
8, 62376, Note_on_c, 6, 59, 0
8, 62400, Note_on_c, 6, 63, 107
8, 62400, Note_on_c, 6, 59, 107
8, 62496, Note_on_c, 6, 59, 0
8, 62496, Note_on_c, 6, 63, 0
8, 62520, Note_on_c, 6, 59, 107
8, 62520, Note_on_c, 6, 63, 107
8, 62616, Note_on_c, 6, 63, 0
8, 62616, Note_on_c, 6, 59, 0
8, 62640, Note_on_c, 6, 52, 107
8, 62760, Note_on_c, 6, 52, 0
8, 62760, Note_on_c, 6, 64, 107
8, 62856, Note_on_c, 6, 64, 0
8, 62880, Note_on_c, 6, 64, 107
8, 62976, Note_on_c, 6, 64, 0
8, 63000, Note_on_c, 6, 64, 107
8, 63096, Note_on_c, 6, 64, 0
8, 63120, Note_on_c, 6, 64, 107
8, 63216, Note_on_c, 6, 64, 0
8, 63240, Note_on_c, 6, 64, 107
8, 63336, Note_on_c, 6, 64, 0
8, 64200, Note_on_c, 6, 59, 107
8, 64320, Note_on_c, 6, 59, 0
8, 64320, Note_on_c, 6, 59, 107
8, 64440, Note_on_c, 6, 59, 0
8, 64440, Note_on_c, 6, 59, 107
8, 64560, Note_on_c, 6, 59, 0
8, 64560, Note_on_c, 6, 59, 107
8, 64680, Note_on_c, 6, 59, 0
8, 64680, Note_on_c, 6, 59, 107
8, 64800, Note_on_c, 6, 59, 0
8, 64920, Note_on_c, 6, 54, 107
8, 65040, Note_on_c, 6, 54, 0
8, 65040, Note_on_c, 6, 54, 107
8, 65160, Note_on_c, 6, 54, 0
8, 65160, Note_on_c, 6, 54, 107
8, 65280, Note_on_c, 6, 54, 0
8, 65280, Note_on_c, 6, 54, 107
8, 65400, Note_on_c, 6, 54, 0
8, 65400, Note_on_c, 6, 54, 107
8, 65520, Note_on_c, 6, 54, 0
8, 65640, Note_on_c, 6, 51, 107
8, 65760, Note_on_c, 6, 51, 0
8, 65760, Note_on_c, 6, 51, 107
8, 65880, Note_on_c, 6, 51, 0
8, 65880, Note_on_c, 6, 51, 107
8, 66000, Note_on_c, 6, 51, 0
8, 66000, Note_on_c, 6, 51, 107
8, 66120, Note_on_c, 6, 51, 0
8, 66120, Note_on_c, 6, 51, 107
8, 66240, Note_on_c, 6, 51, 0
8, 66360, Note_on_c, 6, 47, 107
8, 66480, Note_on_c, 6, 47, 0
8, 66480, Note_on_c, 6, 47, 107
8, 66600, Note_on_c, 6, 47, 0
8, 66600, Note_on_c, 6, 47, 107
8, 66720, Note_on_c, 6, 47, 0
8, 66720, Note_on_c, 6, 47, 107
8, 66840, Note_on_c, 6, 47, 0
8, 66840, Note_on_c, 6, 47, 107
8, 66960, Note_on_c, 6, 47, 0
8, 70560, Note_on_c, 6, 47, 107
8, 70752, Note_on_c, 6, 47, 0
8, 70920, Note_on_c, 6, 43, 107
8, 71016, Note_on_c, 6, 43, 0
8, 71040, Note_on_c, 6, 40, 107
8, 71136, Note_on_c, 6, 40, 0
8, 71160, Note_on_c, 6, 43, 107
8, 71256, Note_on_c, 6, 43, 0
8, 71280, Note_on_c, 6, 47, 107
8, 71472, Note_on_c, 6, 47, 0
8, 71640, Note_on_c, 6, 51, 107
8, 71736, Note_on_c, 6, 51, 0
8, 71760, Note_on_c, 6, 47, 107
8, 71856, Note_on_c, 6, 47, 0
8, 71880, Note_on_c, 6, 51, 107
8, 71976, Note_on_c, 6, 51, 0
8, 72000, Note_on_c, 6, 52, 107
8, 72192, Note_on_c, 6, 52, 0
8, 72360, Note_on_c, 6, 55, 107
8, 72456, Note_on_c, 6, 55, 0
8, 72480, Note_on_c, 6, 52, 107
8, 72576, Note_on_c, 6, 52, 0
8, 72600, Note_on_c, 6, 55, 107
8, 72696, Note_on_c, 6, 55, 0
8, 72840, Note_on_c, 6, 63, 107
8, 72936, Note_on_c, 6, 63, 0
8, 72960, Note_on_c, 6, 66, 107
8, 73056, Note_on_c, 6, 66, 0
8, 73080, Note_on_c, 6, 71, 107
8, 73176, Note_on_c, 6, 71, 0
8, 73200, Note_on_c, 6, 75, 107
8, 73296, Note_on_c, 6, 75, 0
8, 73560, Note_on_c, 6, 63, 107
8, 73656, Note_on_c, 6, 63, 0
8, 73680, Note_on_c, 6, 66, 107
8, 73776, Note_on_c, 6, 66, 0
8, 73800, Note_on_c, 6, 71, 107
8, 73896, Note_on_c, 6, 71, 0
8, 73920, Note_on_c, 6, 75, 107
8, 74016, Note_on_c, 6, 75, 0
8, 74736, Note_on_c, 6, 59, 64
8, 74736, Note_on_c, 6, 59, 0
8, 74880, Note_on_c, 6, 63, 107
8, 75456, Note_on_c, 6, 63, 0
8, 75600, Note_on_c, 6, 59, 107
8, 75792, Note_on_c, 6, 59, 0
8, 75840, Note_on_c, 6, 64, 107
8, 76224, Note_on_c, 6, 64, 0
8, 76320, Note_on_c, 6, 60, 107
8, 76512, Note_on_c, 6, 60, 0
8, 76560, Note_on_c, 6, 59, 107
8, 76752, Note_on_c, 6, 59, 0
8, 76920, Note_on_c, 6, 64, 107
8, 76920, Note_on_c, 6, 59, 107
8, 77016, Note_on_c, 6, 59, 0
8, 77016, Note_on_c, 6, 64, 0
8, 77040, Note_on_c, 6, 64, 107
8, 77136, Note_on_c, 6, 64, 0
8, 77160, Note_on_c, 6, 63, 107
8, 77256, Note_on_c, 6, 63, 0
8, 77280, Note_on_c, 6, 64, 107
8, 77376, Note_on_c, 6, 64, 0
8, 77400, Note_on_c, 6, 60, 107
8, 77496, Note_on_c, 6, 60, 0
8, 77520, Note_on_c, 6, 59, 107
8, 77616, Note_on_c, 6, 59, 0
8, 77640, Note_on_c, 6, 59, 107
8, 77736, Note_on_c, 6, 59, 0
8, 77760, Note_on_c, 6, 59, 107
8, 78336, Note_on_c, 6, 59, 0
8, 78480, Note_on_c, 6, 61, 107
8, 79056, Note_on_c, 6, 61, 0
8, 79200, Note_on_c, 6, 57, 107
8, 79584, Note_on_c, 6, 57, 0
8, 79680, Note_on_c, 6, 59, 107
8, 79872, Note_on_c, 6, 59, 0
8, 79920, Note_on_c, 6, 52, 107
8, 80496, Note_on_c, 6, 52, 0
8, 80640, Note_on_c, 6, 57, 107
8, 80736, Note_on_c, 6, 57, 0
8, 80760, Note_on_c, 6, 45, 107
8, 80808, Note_on_c, 6, 45, 0
8, 80820, Note_on_c, 6, 47, 107
8, 80868, Note_on_c, 6, 47, 0
8, 80880, Note_on_c, 6, 49, 107
8, 80976, Note_on_c, 6, 49, 0
8, 81000, Note_on_c, 6, 52, 107
8, 81096, Note_on_c, 6, 52, 0
8, 81120, Note_on_c, 6, 57, 107
8, 81216, Note_on_c, 6, 57, 0
8, 81240, Note_on_c, 6, 55, 107
8, 81336, Note_on_c, 6, 55, 0
8, 81360, Note_on_c, 6, 50, 107
8, 81552, Note_on_c, 6, 50, 0
8, 81600, Note_on_c, 6, 62, 107
8, 81792, Note_on_c, 6, 62, 0
8, 81960, Note_on_c, 6, 54, 107
8, 82056, Note_on_c, 6, 54, 0
8, 82080, Note_on_c, 6, 55, 107
8, 82176, Note_on_c, 6, 55, 0
8, 82200, Note_on_c, 6, 43, 107
8, 82248, Note_on_c, 6, 43, 0
8, 82260, Note_on_c, 6, 45, 107
8, 82308, Note_on_c, 6, 45, 0
8, 82320, Note_on_c, 6, 47, 107
8, 82416, Note_on_c, 6, 47, 0
8, 82440, Note_on_c, 6, 50, 107
8, 82536, Note_on_c, 6, 50, 0
8, 82560, Note_on_c, 6, 55, 107
8, 82656, Note_on_c, 6, 55, 0
8, 82680, Note_on_c, 6, 54, 107
8, 82776, Note_on_c, 6, 54, 0
8, 82800, Note_on_c, 6, 52, 107
8, 82992, Note_on_c, 6, 52, 0
8, 83040, Note_on_c, 6, 61, 107
8, 83232, Note_on_c, 6, 61, 0
8, 83400, Note_on_c, 6, 52, 107
8, 83496, Note_on_c, 6, 52, 0
8, 83520, Note_on_c, 6, 54, 107
8, 83616, Note_on_c, 6, 54, 0
8, 83640, Note_on_c, 6, 42, 107
8, 83688, Note_on_c, 6, 42, 0
8, 83700, Note_on_c, 6, 43, 107
8, 83748, Note_on_c, 6, 43, 0
8, 83760, Note_on_c, 6, 45, 107
8, 83856, Note_on_c, 6, 45, 0
8, 83880, Note_on_c, 6, 49, 107
8, 83976, Note_on_c, 6, 49, 0
8, 84000, Note_on_c, 6, 54, 107
8, 84096, Note_on_c, 6, 54, 0
8, 84120, Note_on_c, 6, 52, 107
8, 84216, Note_on_c, 6, 52, 0
8, 84240, Note_on_c, 6, 50, 107
8, 84336, Note_on_c, 6, 50, 0
8, 84360, Note_on_c, 6, 52, 107
8, 84456, Note_on_c, 6, 52, 0
8, 84480, Note_on_c, 6, 50, 107
8, 84576, Note_on_c, 6, 50, 0
8, 84600, Note_on_c, 6, 48, 107
8, 84696, Note_on_c, 6, 48, 0
8, 84720, Note_on_c, 6, 47, 107
8, 84816, Note_on_c, 6, 47, 0
8, 84840, Note_on_c, 6, 45, 107
8, 84936, Note_on_c, 6, 45, 0
8, 84960, Note_on_c, 6, 43, 107
8, 85152, Note_on_c, 6, 43, 0
8, 85320, Note_on_c, 6, 47, 107
8, 85416, Note_on_c, 6, 47, 0
8, 85440, Note_on_c, 6, 52, 107
8, 85536, Note_on_c, 6, 52, 0
8, 85560, Note_on_c, 6, 55, 107
8, 85656, Note_on_c, 6, 55, 0
8, 85680, Note_on_c, 6, 57, 107
8, 85872, Note_on_c, 6, 57, 0
8, 86040, Note_on_c, 6, 49, 107
8, 86136, Note_on_c, 6, 49, 0
8, 86160, Note_on_c, 6, 52, 107
8, 86256, Note_on_c, 6, 52, 0
8, 86280, Note_on_c, 6, 57, 107
8, 86376, Note_on_c, 6, 57, 0
8, 86400, Note_on_c, 6, 57, 107
8, 86784, Note_on_c, 6, 57, 0
8, 87120, Note_on_c, 6, 57, 107
8, 87504, Note_on_c, 6, 57, 0
8, 87840, Note_on_c, 6, 45, 107
8, 87953, Note_on_c, 6, 45, 0
8, 88560, Note_on_c, 6, 45, 107
8, 88673, Note_on_c, 6, 45, 0
8, 89280, Note_on_c, 6, 62, 107
8, 89393, Note_on_c, 6, 62, 0
8, 90000, Note_on_c, 6, 61, 107
8, 90113, Note_on_c, 6, 61, 0
8, 90120, Note_on_c, 6, 57, 107
8, 90233, Note_on_c, 6, 57, 0
8, 90240, Note_on_c, 6, 61, 107
8, 90336, Note_on_c, 6, 61, 0
8, 90480, Note_on_c, 6, 67, 107
8, 90576, Note_on_c, 6, 67, 0
8, 90600, Note_on_c, 6, 61, 107
8, 90696, Note_on_c, 6, 61, 0
8, 90720, Note_on_c, 6, 62, 107
8, 90816, Note_on_c, 6, 62, 0
8, 90840, Note_on_c, 6, 62, 107
8, 90936, Note_on_c, 6, 62, 0
8, 90960, Note_on_c, 6, 64, 107
8, 91056, Note_on_c, 6, 64, 0
8, 91080, Note_on_c, 6, 66, 107
8, 91176, Note_on_c, 6, 66, 0
8, 91200, Note_on_c, 6, 67, 107
8, 91296, Note_on_c, 6, 67, 0
8, 91320, Note_on_c, 6, 69, 107
8, 91416, Note_on_c, 6, 69, 0
8, 91440, Note_on_c, 6, 61, 107
8, 92016, Note_on_c, 6, 61, 0
8, 92160, Note_on_c, 6, 57, 107
8, 92352, Note_on_c, 6, 57, 0
8, 92880, Note_on_c, 6, 66, 107
8, 93168, Note_on_c, 6, 66, 0
8, 93600, Note_on_c, 6, 62, 107
8, 93888, Note_on_c, 6, 62, 0
8, 94320, Note_on_c, 6, 62, 107
8, 94608, Note_on_c, 6, 62, 0
8, 95040, Note_on_c, 6, 52, 107
8, 95136, Note_on_c, 6, 52, 0
8, 95160, Note_on_c, 6, 55, 107
8, 95208, Note_on_c, 6, 55, 0
8, 95220, Note_on_c, 6, 54, 107
8, 95268, Note_on_c, 6, 54, 0
8, 95280, Note_on_c, 6, 55, 107
8, 95376, Note_on_c, 6, 55, 0
8, 95400, Note_on_c, 6, 52, 107
8, 95496, Note_on_c, 6, 52, 0
8, 95520, Note_on_c, 6, 49, 107
8, 95616, Note_on_c, 6, 49, 0
8, 95640, Note_on_c, 6, 52, 107
8, 95736, Note_on_c, 6, 52, 0
8, 95760, Note_on_c, 6, 45, 107
8, 96144, Note_on_c, 6, 45, 0
8, 96240, Note_on_c, 6, 38, 107
8, 96240, Note_on_c, 6, 50, 107
8, 96432, Note_on_c, 6, 50, 0
8, 96432, Note_on_c, 6, 38, 0
8, 96480, Note_on_c, 6, 43, 107
8, 96480, Note_on_c, 6, 55, 107
8, 96672, Note_on_c, 6, 55, 0
8, 96672, Note_on_c, 6, 43, 0
8, 96720, Note_on_c, 6, 45, 107
8, 96720, Note_on_c, 6, 57, 107
8, 96912, Note_on_c, 6, 57, 0
8, 96912, Note_on_c, 6, 45, 0
8, 96960, Note_on_c, 6, 45, 107
8, 97152, Note_on_c, 6, 45, 0
8, 97200, Note_on_c, 6, 38, 107
8, 97200, Note_on_c, 6, 50, 107
8, 97392, Note_on_c, 6, 50, 0
8, 97392, Note_on_c, 6, 38, 0
8, 98040, Note_on_c, 6, 38, 107
8, 98136, Note_on_c, 6, 38, 0
8, 98160, Note_on_c, 6, 38, 107
8, 98256, Note_on_c, 6, 38, 0
8, 98280, Note_on_c, 6, 38, 107
8, 98376, Note_on_c, 6, 38, 0
8, 98400, Note_on_c, 6, 38, 107
8, 98496, Note_on_c, 6, 38, 0
8, 98520, Note_on_c, 6, 38, 107
8, 98616, Note_on_c, 6, 38, 0
8, 98640, Note_on_c, 6, 38, 107
8, 98640, Note_on_c, 6, 50, 107
8, 99216, Note_on_c, 6, 50, 0
8, 99216, Note_on_c, 6, 38, 0
8, 99216, End_track
9, 0, Start_track
9, 0, MIDI_port, 0
9, 0, Title_t, "J.S.Bach, Edition Breitkopf"
9, 0, Program_c, 7, 19
9, 0, Control_c, 7, 7, 105
9, 0, Control_c, 7, 10, 64
9, 120, Note_on_c, 7, 86, 107
9, 168, Note_on_c, 7, 86, 0
9, 180, Note_on_c, 7, 85, 107
9, 228, Note_on_c, 7, 85, 0
9, 240, Note_on_c, 7, 86, 107
9, 336, Note_on_c, 7, 86, 0
9, 360, Note_on_c, 7, 81, 107
9, 456, Note_on_c, 7, 81, 0
9, 480, Note_on_c, 7, 78, 107
9, 576, Note_on_c, 7, 78, 0
9, 600, Note_on_c, 7, 81, 107
9, 696, Note_on_c, 7, 81, 0
9, 720, Note_on_c, 7, 74, 107
9, 768, Note_on_c, 7, 74, 0
9, 780, Note_on_c, 7, 76, 107
9, 828, Note_on_c, 7, 76, 0
9, 840, Note_on_c, 7, 74, 107
9, 888, Note_on_c, 7, 74, 0
9, 900, Note_on_c, 7, 73, 107
9, 948, Note_on_c, 7, 73, 0
9, 960, Note_on_c, 7, 74, 107
9, 1056, Note_on_c, 7, 74, 0
9, 1080, Note_on_c, 7, 69, 107
9, 1176, Note_on_c, 7, 69, 0
9, 1200, Note_on_c, 7, 66, 107
9, 1296, Note_on_c, 7, 66, 0
9, 1320, Note_on_c, 7, 69, 107
9, 1416, Note_on_c, 7, 69, 0
9, 1440, Note_on_c, 7, 62, 107
9, 1488, Note_on_c, 7, 62, 0
9, 1500, Note_on_c, 7, 69, 107
9, 1548, Note_on_c, 7, 69, 0
9, 1560, Note_on_c, 7, 64, 107
9, 1608, Note_on_c, 7, 64, 0
9, 1620, Note_on_c, 7, 69, 107
9, 1668, Note_on_c, 7, 69, 0
9, 1680, Note_on_c, 7, 66, 107
9, 1728, Note_on_c, 7, 66, 0
9, 1740, Note_on_c, 7, 69, 107
9, 1788, Note_on_c, 7, 69, 0
9, 1800, Note_on_c, 7, 67, 107
9, 1848, Note_on_c, 7, 67, 0
9, 1860, Note_on_c, 7, 69, 107
9, 1908, Note_on_c, 7, 69, 0
9, 1920, Note_on_c, 7, 66, 107
9, 1968, Note_on_c, 7, 66, 0
9, 1980, Note_on_c, 7, 69, 107
9, 2028, Note_on_c, 7, 69, 0
9, 2040, Note_on_c, 7, 64, 107
9, 2088, Note_on_c, 7, 64, 0
9, 2100, Note_on_c, 7, 69, 107
9, 2148, Note_on_c, 7, 69, 0
9, 2160, Note_on_c, 7, 62, 107
9, 2208, Note_on_c, 7, 62, 0
9, 2220, Note_on_c, 7, 74, 107
9, 2268, Note_on_c, 7, 74, 0
9, 2280, Note_on_c, 7, 73, 107
9, 2328, Note_on_c, 7, 73, 0
9, 2340, Note_on_c, 7, 71, 107
9, 2388, Note_on_c, 7, 71, 0
9, 2400, Note_on_c, 7, 69, 107
9, 2448, Note_on_c, 7, 69, 0
9, 2460, Note_on_c, 7, 74, 107
9, 2508, Note_on_c, 7, 74, 0
9, 2520, Note_on_c, 7, 73, 107
9, 2568, Note_on_c, 7, 73, 0
9, 2580, Note_on_c, 7, 71, 107
9, 2628, Note_on_c, 7, 71, 0
9, 2640, Note_on_c, 7, 69, 107
9, 2688, Note_on_c, 7, 69, 0
9, 2700, Note_on_c, 7, 67, 107
9, 2748, Note_on_c, 7, 67, 0
9, 2760, Note_on_c, 7, 66, 107
9, 2808, Note_on_c, 7, 66, 0
9, 2820, Note_on_c, 7, 64, 107
9, 2868, Note_on_c, 7, 64, 0
9, 2880, Note_on_c, 7, 62, 107
9, 2928, Note_on_c, 7, 62, 0
9, 2940, Note_on_c, 7, 69, 107
9, 2988, Note_on_c, 7, 69, 0
9, 3000, Note_on_c, 7, 64, 107
9, 3048, Note_on_c, 7, 64, 0
9, 3060, Note_on_c, 7, 69, 107
9, 3108, Note_on_c, 7, 69, 0
9, 3120, Note_on_c, 7, 66, 107
9, 3168, Note_on_c, 7, 66, 0
9, 3180, Note_on_c, 7, 69, 107
9, 3228, Note_on_c, 7, 69, 0
9, 3240, Note_on_c, 7, 67, 107
9, 3288, Note_on_c, 7, 67, 0
9, 3300, Note_on_c, 7, 69, 107
9, 3348, Note_on_c, 7, 69, 0
9, 3360, Note_on_c, 7, 66, 107
9, 3408, Note_on_c, 7, 66, 0
9, 3420, Note_on_c, 7, 69, 107
9, 3468, Note_on_c, 7, 69, 0
9, 3480, Note_on_c, 7, 64, 107
9, 3528, Note_on_c, 7, 64, 0
9, 3540, Note_on_c, 7, 69, 107
9, 3588, Note_on_c, 7, 69, 0
9, 3600, Note_on_c, 7, 62, 107
9, 3648, Note_on_c, 7, 62, 0
9, 3660, Note_on_c, 7, 74, 107
9, 3708, Note_on_c, 7, 74, 0
9, 3720, Note_on_c, 7, 73, 107
9, 3768, Note_on_c, 7, 73, 0
9, 3780, Note_on_c, 7, 71, 107
9, 3828, Note_on_c, 7, 71, 0
9, 3840, Note_on_c, 7, 69, 107
9, 3888, Note_on_c, 7, 69, 0
9, 3900, Note_on_c, 7, 74, 107
9, 3948, Note_on_c, 7, 74, 0
9, 3960, Note_on_c, 7, 73, 107
9, 4008, Note_on_c, 7, 73, 0
9, 4020, Note_on_c, 7, 71, 107
9, 4068, Note_on_c, 7, 71, 0
9, 4080, Note_on_c, 7, 69, 107
9, 4128, Note_on_c, 7, 69, 0
9, 4140, Note_on_c, 7, 67, 107
9, 4188, Note_on_c, 7, 67, 0
9, 4200, Note_on_c, 7, 66, 107
9, 4248, Note_on_c, 7, 66, 0
9, 4260, Note_on_c, 7, 64, 107
9, 4308, Note_on_c, 7, 64, 0
9, 4320, Note_on_c, 7, 62, 107
9, 4368, Note_on_c, 7, 62, 0
9, 4380, Note_on_c, 7, 64, 107
9, 4428, Note_on_c, 7, 64, 0
9, 4440, Note_on_c, 7, 66, 107
9, 4488, Note_on_c, 7, 66, 0
9, 4500, Note_on_c, 7, 67, 107
9, 4548, Note_on_c, 7, 67, 0
9, 4560, Note_on_c, 7, 69, 107
9, 4608, Note_on_c, 7, 69, 0
9, 4620, Note_on_c, 7, 71, 107
9, 4668, Note_on_c, 7, 71, 0
9, 4680, Note_on_c, 7, 73, 107
9, 4728, Note_on_c, 7, 73, 0
9, 4740, Note_on_c, 7, 74, 107
9, 4788, Note_on_c, 7, 74, 0
9, 4800, Note_on_c, 7, 76, 107
9, 4848, Note_on_c, 7, 76, 0
9, 4860, Note_on_c, 7, 78, 107
9, 4908, Note_on_c, 7, 78, 0
9, 4920, Note_on_c, 7, 79, 107
9, 4968, Note_on_c, 7, 79, 0
9, 4980, Note_on_c, 7, 76, 107
9, 5028, Note_on_c, 7, 76, 0
9, 5040, Note_on_c, 7, 78, 107
9, 5088, Note_on_c, 7, 78, 0
9, 5100, Note_on_c, 7, 81, 107
9, 5148, Note_on_c, 7, 81, 0
9, 5160, Note_on_c, 7, 74, 107
9, 5208, Note_on_c, 7, 74, 0
9, 5220, Note_on_c, 7, 76, 107
9, 5268, Note_on_c, 7, 76, 0
9, 5280, Note_on_c, 7, 78, 107
9, 5328, Note_on_c, 7, 78, 0
9, 5340, Note_on_c, 7, 79, 107
9, 5388, Note_on_c, 7, 79, 0
9, 5400, Note_on_c, 7, 81, 107
9, 5448, Note_on_c, 7, 81, 0
9, 5460, Note_on_c, 7, 83, 107
9, 5508, Note_on_c, 7, 83, 0
9, 5520, Note_on_c, 7, 85, 107
9, 5568, Note_on_c, 7, 85, 0
9, 5580, Note_on_c, 7, 86, 107
9, 5628, Note_on_c, 7, 86, 0
9, 5640, Note_on_c, 7, 83, 107
9, 5688, Note_on_c, 7, 83, 0
9, 5700, Note_on_c, 7, 85, 107
9, 5748, Note_on_c, 7, 85, 0
9, 5760, Note_on_c, 7, 86, 107
9, 5808, Note_on_c, 7, 86, 0
9, 5820, Note_on_c, 7, 81, 107
9, 5868, Note_on_c, 7, 81, 0
9, 5880, Note_on_c, 7, 79, 107
9, 5928, Note_on_c, 7, 79, 0
9, 5940, Note_on_c, 7, 81, 107
9, 5988, Note_on_c, 7, 81, 0
9, 6000, Note_on_c, 7, 78, 107
9, 6048, Note_on_c, 7, 78, 0
9, 6060, Note_on_c, 7, 81, 107
9, 6108, Note_on_c, 7, 81, 0
9, 6120, Note_on_c, 7, 79, 107
9, 6168, Note_on_c, 7, 79, 0
9, 6180, Note_on_c, 7, 81, 107
9, 6228, Note_on_c, 7, 81, 0
9, 6240, Note_on_c, 7, 78, 107
9, 6288, Note_on_c, 7, 78, 0
9, 6300, Note_on_c, 7, 81, 107
9, 6348, Note_on_c, 7, 81, 0
9, 6360, Note_on_c, 7, 76, 107
9, 6408, Note_on_c, 7, 76, 0
9, 6420, Note_on_c, 7, 81, 107
9, 6468, Note_on_c, 7, 81, 0
9, 6480, Note_on_c, 7, 74, 107
9, 6528, Note_on_c, 7, 74, 0
9, 6540, Note_on_c, 7, 86, 107
9, 6588, Note_on_c, 7, 86, 0
9, 6600, Note_on_c, 7, 85, 107
9, 6648, Note_on_c, 7, 85, 0
9, 6660, Note_on_c, 7, 83, 107
9, 6708, Note_on_c, 7, 83, 0
9, 6720, Note_on_c, 7, 81, 107
9, 6768, Note_on_c, 7, 81, 0
9, 6780, Note_on_c, 7, 74, 107
9, 6828, Note_on_c, 7, 74, 0
9, 6840, Note_on_c, 7, 83, 107
9, 6888, Note_on_c, 7, 83, 0
9, 6900, Note_on_c, 7, 74, 107
9, 6948, Note_on_c, 7, 74, 0
9, 6960, Note_on_c, 7, 81, 107
9, 7008, Note_on_c, 7, 81, 0
9, 7020, Note_on_c, 7, 74, 107
9, 7068, Note_on_c, 7, 74, 0
9, 7080, Note_on_c, 7, 79, 107
9, 7128, Note_on_c, 7, 79, 0
9, 7140, Note_on_c, 7, 74, 107
9, 7188, Note_on_c, 7, 74, 0
9, 7200, Note_on_c, 7, 78, 107
9, 7248, Note_on_c, 7, 78, 0
9, 7260, Note_on_c, 7, 81, 107
9, 7308, Note_on_c, 7, 81, 0
9, 7320, Note_on_c, 7, 76, 107
9, 7368, Note_on_c, 7, 76, 0
9, 7380, Note_on_c, 7, 81, 107
9, 7428, Note_on_c, 7, 81, 0
9, 7440, Note_on_c, 7, 78, 107
9, 7488, Note_on_c, 7, 78, 0
9, 7500, Note_on_c, 7, 81, 107
9, 7548, Note_on_c, 7, 81, 0
9, 7560, Note_on_c, 7, 79, 107
9, 7608, Note_on_c, 7, 79, 0
9, 7620, Note_on_c, 7, 81, 107
9, 7668, Note_on_c, 7, 81, 0
9, 7680, Note_on_c, 7, 78, 107
9, 7728, Note_on_c, 7, 78, 0
9, 7740, Note_on_c, 7, 81, 107
9, 7788, Note_on_c, 7, 81, 0
9, 7800, Note_on_c, 7, 76, 107
9, 7848, Note_on_c, 7, 76, 0
9, 7860, Note_on_c, 7, 81, 107
9, 7908, Note_on_c, 7, 81, 0
9, 7920, Note_on_c, 7, 74, 107
9, 7968, Note_on_c, 7, 74, 0
9, 7980, Note_on_c, 7, 86, 107
9, 8028, Note_on_c, 7, 86, 0
9, 8040, Note_on_c, 7, 85, 107
9, 8088, Note_on_c, 7, 85, 0
9, 8100, Note_on_c, 7, 83, 107
9, 8148, Note_on_c, 7, 83, 0
9, 8160, Note_on_c, 7, 81, 107
9, 8208, Note_on_c, 7, 81, 0
9, 8220, Note_on_c, 7, 74, 107
9, 8268, Note_on_c, 7, 74, 0
9, 8280, Note_on_c, 7, 83, 107
9, 8328, Note_on_c, 7, 83, 0
9, 8340, Note_on_c, 7, 74, 107
9, 8388, Note_on_c, 7, 74, 0
9, 8400, Note_on_c, 7, 81, 107
9, 8448, Note_on_c, 7, 81, 0
9, 8460, Note_on_c, 7, 74, 107
9, 8508, Note_on_c, 7, 74, 0
9, 8520, Note_on_c, 7, 79, 107
9, 8568, Note_on_c, 7, 79, 0
9, 8580, Note_on_c, 7, 74, 107
9, 8628, Note_on_c, 7, 74, 0
9, 8640, Note_on_c, 7, 78, 107
9, 8688, Note_on_c, 7, 78, 0
9, 8700, Note_on_c, 7, 74, 107
9, 8748, Note_on_c, 7, 74, 0
9, 8760, Note_on_c, 7, 74, 107
9, 8808, Note_on_c, 7, 74, 0
9, 8820, Note_on_c, 7, 74, 107
9, 8868, Note_on_c, 7, 74, 0
9, 8880, Note_on_c, 7, 73, 107
9, 8928, Note_on_c, 7, 73, 0
9, 8940, Note_on_c, 7, 74, 107
9, 8988, Note_on_c, 7, 74, 0
9, 9000, Note_on_c, 7, 74, 107
9, 9048, Note_on_c, 7, 74, 0
9, 9060, Note_on_c, 7, 74, 107
9, 9108, Note_on_c, 7, 74, 0
9, 9120, Note_on_c, 7, 76, 107
9, 9168, Note_on_c, 7, 76, 0
9, 9180, Note_on_c, 7, 74, 107
9, 9228, Note_on_c, 7, 74, 0
9, 9240, Note_on_c, 7, 73, 107
9, 9288, Note_on_c, 7, 73, 0
9, 9300, Note_on_c, 7, 74, 107
9, 9348, Note_on_c, 7, 74, 0
9, 9360, Note_on_c, 7, 74, 107
9, 9408, Note_on_c, 7, 74, 0
9, 9420, Note_on_c, 7, 74, 107
9, 9468, Note_on_c, 7, 74, 0
9, 9480, Note_on_c, 7, 78, 107
9, 9528, Note_on_c, 7, 78, 0
9, 9540, Note_on_c, 7, 74, 107
9, 9588, Note_on_c, 7, 74, 0
9, 9600, Note_on_c, 7, 76, 107
9, 9648, Note_on_c, 7, 76, 0
9, 9660, Note_on_c, 7, 74, 107
9, 9708, Note_on_c, 7, 74, 0
9, 9720, Note_on_c, 7, 78, 107
9, 9768, Note_on_c, 7, 78, 0
9, 9780, Note_on_c, 7, 74, 107
9, 9828, Note_on_c, 7, 74, 0
9, 9840, Note_on_c, 7, 79, 107
9, 9888, Note_on_c, 7, 79, 0
9, 9900, Note_on_c, 7, 74, 107
9, 9948, Note_on_c, 7, 74, 0
9, 9960, Note_on_c, 7, 76, 107
9, 10008, Note_on_c, 7, 76, 0
9, 10020, Note_on_c, 7, 74, 107
9, 10068, Note_on_c, 7, 74, 0
9, 10080, Note_on_c, 7, 78, 107
9, 10140, Note_on_c, 7, 74, 107
9, 10176, Note_on_c, 7, 78, 0
9, 10188, Note_on_c, 7, 74, 0
9, 10200, Note_on_c, 7, 74, 107
9, 10248, Note_on_c, 7, 74, 0
9, 10260, Note_on_c, 7, 74, 107
9, 10308, Note_on_c, 7, 74, 0
9, 10320, Note_on_c, 7, 73, 107
9, 10368, Note_on_c, 7, 73, 0
9, 10380, Note_on_c, 7, 74, 107
9, 10428, Note_on_c, 7, 74, 0
9, 10440, Note_on_c, 7, 74, 107
9, 10488, Note_on_c, 7, 74, 0
9, 10500, Note_on_c, 7, 74, 107
9, 10548, Note_on_c, 7, 74, 0
9, 10560, Note_on_c, 7, 76, 107
9, 10608, Note_on_c, 7, 76, 0
9, 10620, Note_on_c, 7, 74, 107
9, 10668, Note_on_c, 7, 74, 0
9, 10680, Note_on_c, 7, 73, 107
9, 10728, Note_on_c, 7, 73, 0
9, 10740, Note_on_c, 7, 74, 107
9, 10788, Note_on_c, 7, 74, 0
9, 10800, Note_on_c, 7, 74, 107
9, 10860, Note_on_c, 7, 74, 107
9, 10896, Note_on_c, 7, 74, 0
9, 10908, Note_on_c, 7, 74, 0
9, 10920, Note_on_c, 7, 78, 107
9, 10968, Note_on_c, 7, 78, 0
9, 10980, Note_on_c, 7, 74, 107
9, 11028, Note_on_c, 7, 74, 0
9, 11040, Note_on_c, 7, 76, 107
9, 11088, Note_on_c, 7, 76, 0
9, 11100, Note_on_c, 7, 74, 107
9, 11148, Note_on_c, 7, 74, 0
9, 11160, Note_on_c, 7, 78, 107
9, 11208, Note_on_c, 7, 78, 0
9, 11220, Note_on_c, 7, 74, 107
9, 11268, Note_on_c, 7, 74, 0
9, 11280, Note_on_c, 7, 79, 107
9, 11328, Note_on_c, 7, 79, 0
9, 11340, Note_on_c, 7, 74, 107
9, 11388, Note_on_c, 7, 74, 0
9, 11400, Note_on_c, 7, 76, 107
9, 11448, Note_on_c, 7, 76, 0
9, 11460, Note_on_c, 7, 74, 107
9, 11508, Note_on_c, 7, 74, 0
9, 11520, Note_on_c, 7, 78, 107
9, 11568, Note_on_c, 7, 78, 0
9, 11580, Note_on_c, 7, 74, 107
9, 11628, Note_on_c, 7, 74, 0
9, 11640, Note_on_c, 7, 73, 107
9, 11688, Note_on_c, 7, 73, 0
9, 11700, Note_on_c, 7, 74, 107
9, 11748, Note_on_c, 7, 74, 0
9, 11760, Note_on_c, 7, 69, 107
9, 11808, Note_on_c, 7, 69, 0
9, 11820, Note_on_c, 7, 74, 107
9, 11868, Note_on_c, 7, 74, 0
9, 11880, Note_on_c, 7, 73, 107
9, 11928, Note_on_c, 7, 73, 0
9, 11940, Note_on_c, 7, 74, 107
9, 11988, Note_on_c, 7, 74, 0
9, 12000, Note_on_c, 7, 78, 107
9, 12048, Note_on_c, 7, 78, 0
9, 12060, Note_on_c, 7, 74, 107
9, 12108, Note_on_c, 7, 74, 0
9, 12120, Note_on_c, 7, 73, 107
9, 12168, Note_on_c, 7, 73, 0
9, 12180, Note_on_c, 7, 74, 107
9, 12228, Note_on_c, 7, 74, 0
9, 12240, Note_on_c, 7, 81, 107
9, 12288, Note_on_c, 7, 81, 0
9, 12300, Note_on_c, 7, 78, 107
9, 12348, Note_on_c, 7, 78, 0
9, 12360, Note_on_c, 7, 76, 107
9, 12408, Note_on_c, 7, 76, 0
9, 12420, Note_on_c, 7, 78, 107
9, 12468, Note_on_c, 7, 78, 0
9, 12480, Note_on_c, 7, 74, 107
9, 12528, Note_on_c, 7, 74, 0
9, 12540, Note_on_c, 7, 78, 107
9, 12588, Note_on_c, 7, 78, 0
9, 12600, Note_on_c, 7, 76, 107
9, 12648, Note_on_c, 7, 76, 0
9, 12660, Note_on_c, 7, 78, 107
9, 12708, Note_on_c, 7, 78, 0
9, 12720, Note_on_c, 7, 81, 107
9, 12768, Note_on_c, 7, 81, 0
9, 12780, Note_on_c, 7, 78, 107
9, 12828, Note_on_c, 7, 78, 0
9, 12840, Note_on_c, 7, 76, 107
9, 12888, Note_on_c, 7, 76, 0
9, 12900, Note_on_c, 7, 78, 107
9, 12948, Note_on_c, 7, 78, 0
9, 12960, Note_on_c, 7, 86, 107
9, 13008, Note_on_c, 7, 86, 0
9, 13020, Note_on_c, 7, 81, 107
9, 13068, Note_on_c, 7, 81, 0
9, 13080, Note_on_c, 7, 79, 107
9, 13128, Note_on_c, 7, 79, 0
9, 13140, Note_on_c, 7, 81, 107
9, 13188, Note_on_c, 7, 81, 0
9, 13200, Note_on_c, 7, 78, 107
9, 13248, Note_on_c, 7, 78, 0
9, 13260, Note_on_c, 7, 81, 107
9, 13308, Note_on_c, 7, 81, 0
9, 13320, Note_on_c, 7, 76, 107
9, 13368, Note_on_c, 7, 76, 0
9, 13380, Note_on_c, 7, 81, 107
9, 13428, Note_on_c, 7, 81, 0
9, 13440, Note_on_c, 7, 74, 107
9, 13488, Note_on_c, 7, 74, 0
9, 13500, Note_on_c, 7, 81, 107
9, 13548, Note_on_c, 7, 81, 0
9, 13560, Note_on_c, 7, 72, 107
9, 13608, Note_on_c, 7, 72, 0
9, 13620, Note_on_c, 7, 81, 107
9, 13668, Note_on_c, 7, 81, 0
9, 13680, Note_on_c, 7, 71, 107
9, 13728, Note_on_c, 7, 71, 0
9, 13740, Note_on_c, 7, 79, 107
9, 13788, Note_on_c, 7, 79, 0
9, 13800, Note_on_c, 7, 74, 107
9, 13848, Note_on_c, 7, 74, 0
9, 13860, Note_on_c, 7, 79, 107
9, 13908, Note_on_c, 7, 79, 0
9, 13920, Note_on_c, 7, 71, 107
9, 13968, Note_on_c, 7, 71, 0
9, 13980, Note_on_c, 7, 79, 107
9, 14028, Note_on_c, 7, 79, 0
9, 14040, Note_on_c, 7, 74, 107
9, 14088, Note_on_c, 7, 74, 0
9, 14100, Note_on_c, 7, 79, 107
9, 14148, Note_on_c, 7, 79, 0
9, 14160, Note_on_c, 7, 71, 107
9, 14208, Note_on_c, 7, 71, 0
9, 14220, Note_on_c, 7, 79, 107
9, 14268, Note_on_c, 7, 79, 0
9, 14280, Note_on_c, 7, 74, 107
9, 14328, Note_on_c, 7, 74, 0
9, 14340, Note_on_c, 7, 79, 107
9, 14388, Note_on_c, 7, 79, 0
9, 14400, Note_on_c, 7, 69, 107
9, 14448, Note_on_c, 7, 69, 0
9, 14460, Note_on_c, 7, 79, 107
9, 14508, Note_on_c, 7, 79, 0
9, 14520, Note_on_c, 7, 74, 107
9, 14568, Note_on_c, 7, 74, 0
9, 14580, Note_on_c, 7, 79, 107
9, 14628, Note_on_c, 7, 79, 0
9, 14640, Note_on_c, 7, 69, 107
9, 14688, Note_on_c, 7, 69, 0
9, 14700, Note_on_c, 7, 79, 107
9, 14748, Note_on_c, 7, 79, 0
9, 14760, Note_on_c, 7, 74, 107
9, 14808, Note_on_c, 7, 74, 0
9, 14820, Note_on_c, 7, 79, 107
9, 14868, Note_on_c, 7, 79, 0
9, 14880, Note_on_c, 7, 69, 107
9, 14928, Note_on_c, 7, 69, 0
9, 14940, Note_on_c, 7, 79, 107
9, 14988, Note_on_c, 7, 79, 0
9, 15000, Note_on_c, 7, 74, 107
9, 15048, Note_on_c, 7, 74, 0
9, 15060, Note_on_c, 7, 79, 107
9, 15108, Note_on_c, 7, 79, 0
9, 15120, Note_on_c, 7, 69, 107
9, 15168, Note_on_c, 7, 69, 0
9, 15180, Note_on_c, 7, 78, 107
9, 15228, Note_on_c, 7, 78, 0
9, 15240, Note_on_c, 7, 74, 107
9, 15288, Note_on_c, 7, 74, 0
9, 15300, Note_on_c, 7, 78, 107
9, 15348, Note_on_c, 7, 78, 0
9, 15360, Note_on_c, 7, 69, 107
9, 15408, Note_on_c, 7, 69, 0
9, 15420, Note_on_c, 7, 78, 107
9, 15468, Note_on_c, 7, 78, 0
9, 15480, Note_on_c, 7, 74, 107
9, 15528, Note_on_c, 7, 74, 0
9, 15540, Note_on_c, 7, 78, 107
9, 15588, Note_on_c, 7, 78, 0
9, 15600, Note_on_c, 7, 69, 107
9, 15648, Note_on_c, 7, 69, 0
9, 15660, Note_on_c, 7, 78, 107
9, 15708, Note_on_c, 7, 78, 0
9, 15720, Note_on_c, 7, 74, 107
9, 15768, Note_on_c, 7, 74, 0
9, 15780, Note_on_c, 7, 78, 107
9, 15828, Note_on_c, 7, 78, 0
9, 15840, Note_on_c, 7, 67, 107
9, 15888, Note_on_c, 7, 67, 0
9, 15900, Note_on_c, 7, 78, 107
9, 15948, Note_on_c, 7, 78, 0
9, 15960, Note_on_c, 7, 74, 107
9, 16008, Note_on_c, 7, 74, 0
9, 16020, Note_on_c, 7, 78, 107
9, 16068, Note_on_c, 7, 78, 0
9, 16080, Note_on_c, 7, 67, 107
9, 16128, Note_on_c, 7, 67, 0
9, 16140, Note_on_c, 7, 78, 107
9, 16188, Note_on_c, 7, 78, 0
9, 16200, Note_on_c, 7, 74, 107
9, 16248, Note_on_c, 7, 74, 0
9, 16260, Note_on_c, 7, 78, 107
9, 16308, Note_on_c, 7, 78, 0
9, 16320, Note_on_c, 7, 67, 107
9, 16368, Note_on_c, 7, 67, 0
9, 16380, Note_on_c, 7, 78, 107
9, 16428, Note_on_c, 7, 78, 0
9, 16440, Note_on_c, 7, 74, 107
9, 16488, Note_on_c, 7, 74, 0
9, 16500, Note_on_c, 7, 78, 107
9, 16548, Note_on_c, 7, 78, 0
9, 16560, Note_on_c, 7, 67, 107
9, 16608, Note_on_c, 7, 67, 0
9, 16620, Note_on_c, 7, 76, 107
9, 16668, Note_on_c, 7, 76, 0
9, 16680, Note_on_c, 7, 73, 107
9, 16728, Note_on_c, 7, 73, 0
9, 16740, Note_on_c, 7, 76, 107
9, 16788, Note_on_c, 7, 76, 0
9, 16800, Note_on_c, 7, 67, 107
9, 16848, Note_on_c, 7, 67, 0
9, 16860, Note_on_c, 7, 76, 107
9, 16908, Note_on_c, 7, 76, 0
9, 16920, Note_on_c, 7, 73, 107
9, 16968, Note_on_c, 7, 73, 0
9, 16980, Note_on_c, 7, 76, 107
9, 17028, Note_on_c, 7, 76, 0
9, 17040, Note_on_c, 7, 67, 107
9, 17088, Note_on_c, 7, 67, 0
9, 17100, Note_on_c, 7, 76, 107
9, 17148, Note_on_c, 7, 76, 0
9, 17160, Note_on_c, 7, 73, 107
9, 17208, Note_on_c, 7, 73, 0
9, 17220, Note_on_c, 7, 76, 107
9, 17268, Note_on_c, 7, 76, 0
9, 17280, Note_on_c, 7, 66, 107
9, 17328, Note_on_c, 7, 66, 0
9, 17340, Note_on_c, 7, 76, 107
9, 17388, Note_on_c, 7, 76, 0
9, 17400, Note_on_c, 7, 69, 107
9, 17448, Note_on_c, 7, 69, 0
9, 17460, Note_on_c, 7, 76, 107
9, 17508, Note_on_c, 7, 76, 0
9, 17520, Note_on_c, 7, 66, 107
9, 17568, Note_on_c, 7, 66, 0
9, 17580, Note_on_c, 7, 76, 107
9, 17628, Note_on_c, 7, 76, 0
9, 17640, Note_on_c, 7, 69, 107
9, 17688, Note_on_c, 7, 69, 0
9, 17700, Note_on_c, 7, 76, 107
9, 17748, Note_on_c, 7, 76, 0
9, 17760, Note_on_c, 7, 66, 107
9, 17808, Note_on_c, 7, 66, 0
9, 17820, Note_on_c, 7, 76, 107
9, 17868, Note_on_c, 7, 76, 0
9, 17880, Note_on_c, 7, 69, 107
9, 17928, Note_on_c, 7, 69, 0
9, 17940, Note_on_c, 7, 76, 107
9, 17988, Note_on_c, 7, 76, 0
9, 18000, Note_on_c, 7, 66, 107
9, 18048, Note_on_c, 7, 66, 0
9, 18060, Note_on_c, 7, 74, 107
9, 18108, Note_on_c, 7, 74, 0
9, 18120, Note_on_c, 7, 69, 107
9, 18168, Note_on_c, 7, 69, 0
9, 18180, Note_on_c, 7, 74, 107
9, 18228, Note_on_c, 7, 74, 0
9, 18240, Note_on_c, 7, 66, 107
9, 18288, Note_on_c, 7, 66, 0
9, 18300, Note_on_c, 7, 74, 107
9, 18348, Note_on_c, 7, 74, 0
9, 18360, Note_on_c, 7, 69, 107
9, 18408, Note_on_c, 7, 69, 0
9, 18420, Note_on_c, 7, 74, 107
9, 18468, Note_on_c, 7, 74, 0
9, 18480, Note_on_c, 7, 66, 107
9, 18528, Note_on_c, 7, 66, 0
9, 18540, Note_on_c, 7, 74, 107
9, 18588, Note_on_c, 7, 74, 0
9, 18600, Note_on_c, 7, 69, 107
9, 18648, Note_on_c, 7, 69, 0
9, 18660, Note_on_c, 7, 74, 107
9, 18708, Note_on_c, 7, 74, 0
9, 18720, Note_on_c, 7, 64, 107
9, 18768, Note_on_c, 7, 64, 0
9, 18780, Note_on_c, 7, 74, 107
9, 18828, Note_on_c, 7, 74, 0
9, 18840, Note_on_c, 7, 67, 107
9, 18888, Note_on_c, 7, 67, 0
9, 18900, Note_on_c, 7, 74, 107
9, 18948, Note_on_c, 7, 74, 0
9, 18960, Note_on_c, 7, 64, 107
9, 19008, Note_on_c, 7, 64, 0
9, 19020, Note_on_c, 7, 74, 107
9, 19068, Note_on_c, 7, 74, 0
9, 19080, Note_on_c, 7, 67, 107
9, 19128, Note_on_c, 7, 67, 0
9, 19140, Note_on_c, 7, 74, 107
9, 19188, Note_on_c, 7, 74, 0
9, 19200, Note_on_c, 7, 64, 107
9, 19248, Note_on_c, 7, 64, 0
9, 19260, Note_on_c, 7, 74, 107
9, 19308, Note_on_c, 7, 74, 0
9, 19320, Note_on_c, 7, 67, 107
9, 19368, Note_on_c, 7, 67, 0
9, 19380, Note_on_c, 7, 74, 107
9, 19428, Note_on_c, 7, 74, 0
9, 19440, Note_on_c, 7, 64, 107
9, 19488, Note_on_c, 7, 64, 0
9, 19500, Note_on_c, 7, 73, 107
9, 19548, Note_on_c, 7, 73, 0
9, 19560, Note_on_c, 7, 67, 107
9, 19608, Note_on_c, 7, 67, 0
9, 19620, Note_on_c, 7, 73, 107
9, 19668, Note_on_c, 7, 73, 0
9, 19680, Note_on_c, 7, 64, 107
9, 19728, Note_on_c, 7, 64, 0
9, 19740, Note_on_c, 7, 73, 107
9, 19788, Note_on_c, 7, 73, 0
9, 19800, Note_on_c, 7, 67, 107
9, 19848, Note_on_c, 7, 67, 0
9, 19860, Note_on_c, 7, 73, 107
9, 19908, Note_on_c, 7, 73, 0
9, 19920, Note_on_c, 7, 64, 107
9, 19968, Note_on_c, 7, 64, 0
9, 19980, Note_on_c, 7, 73, 107
9, 20028, Note_on_c, 7, 73, 0
9, 20040, Note_on_c, 7, 67, 107
9, 20088, Note_on_c, 7, 67, 0
9, 20100, Note_on_c, 7, 73, 107
9, 20148, Note_on_c, 7, 73, 0
9, 20160, Note_on_c, 7, 62, 107
9, 20208, Note_on_c, 7, 62, 0
9, 20220, Note_on_c, 7, 64, 107
9, 20268, Note_on_c, 7, 64, 0
9, 20280, Note_on_c, 7, 62, 107
9, 20328, Note_on_c, 7, 62, 0
9, 20340, Note_on_c, 7, 64, 107
9, 20388, Note_on_c, 7, 64, 0
9, 20400, Note_on_c, 7, 66, 107
9, 20448, Note_on_c, 7, 66, 0
9, 20460, Note_on_c, 7, 69, 107
9, 20508, Note_on_c, 7, 69, 0
9, 20520, Note_on_c, 7, 62, 107
9, 20568, Note_on_c, 7, 62, 0
9, 20580, Note_on_c, 7, 64, 107
9, 20628, Note_on_c, 7, 64, 0
9, 20640, Note_on_c, 7, 66, 107
9, 20688, Note_on_c, 7, 66, 0
9, 20700, Note_on_c, 7, 69, 107
9, 20748, Note_on_c, 7, 69, 0
9, 20760, Note_on_c, 7, 62, 107
9, 20808, Note_on_c, 7, 62, 0
9, 20820, Note_on_c, 7, 64, 107
9, 20868, Note_on_c, 7, 64, 0
9, 20880, Note_on_c, 7, 66, 107
9, 20928, Note_on_c, 7, 66, 0
9, 20940, Note_on_c, 7, 67, 107
9, 20988, Note_on_c, 7, 67, 0
9, 21000, Note_on_c, 7, 66, 107
9, 21048, Note_on_c, 7, 66, 0
9, 21060, Note_on_c, 7, 67, 107
9, 21108, Note_on_c, 7, 67, 0
9, 21120, Note_on_c, 7, 69, 107
9, 21168, Note_on_c, 7, 69, 0
9, 21180, Note_on_c, 7, 74, 107
9, 21228, Note_on_c, 7, 74, 0
9, 21240, Note_on_c, 7, 66, 107
9, 21288, Note_on_c, 7, 66, 0
9, 21300, Note_on_c, 7, 67, 107
9, 21348, Note_on_c, 7, 67, 0
9, 21360, Note_on_c, 7, 69, 107
9, 21408, Note_on_c, 7, 69, 0
9, 21420, Note_on_c, 7, 74, 107
9, 21468, Note_on_c, 7, 74, 0
9, 21480, Note_on_c, 7, 66, 107
9, 21528, Note_on_c, 7, 66, 0
9, 21540, Note_on_c, 7, 67, 107
9, 21588, Note_on_c, 7, 67, 0
9, 21600, Note_on_c, 7, 69, 107
9, 21648, Note_on_c, 7, 69, 0
9, 21660, Note_on_c, 7, 71, 107
9, 21708, Note_on_c, 7, 71, 0
9, 21720, Note_on_c, 7, 69, 107
9, 21768, Note_on_c, 7, 69, 0
9, 21780, Note_on_c, 7, 71, 107
9, 21828, Note_on_c, 7, 71, 0
9, 21840, Note_on_c, 7, 72, 107
9, 21888, Note_on_c, 7, 72, 0
9, 21900, Note_on_c, 7, 78, 107
9, 21948, Note_on_c, 7, 78, 0
9, 21960, Note_on_c, 7, 69, 107
9, 22008, Note_on_c, 7, 69, 0
9, 22020, Note_on_c, 7, 71, 107
9, 22068, Note_on_c, 7, 71, 0
9, 22080, Note_on_c, 7, 72, 107
9, 22128, Note_on_c, 7, 72, 0
9, 22140, Note_on_c, 7, 78, 107
9, 22188, Note_on_c, 7, 78, 0
9, 22200, Note_on_c, 7, 69, 107
9, 22248, Note_on_c, 7, 69, 0
9, 22260, Note_on_c, 7, 71, 107
9, 22308, Note_on_c, 7, 71, 0
9, 22320, Note_on_c, 7, 72, 107
9, 22368, Note_on_c, 7, 72, 0
9, 22380, Note_on_c, 7, 81, 107
9, 22428, Note_on_c, 7, 81, 0
9, 22440, Note_on_c, 7, 78, 107
9, 22488, Note_on_c, 7, 78, 0
9, 22500, Note_on_c, 7, 74, 107
9, 22548, Note_on_c, 7, 74, 0
9, 22560, Note_on_c, 7, 72, 107
9, 22608, Note_on_c, 7, 72, 0
9, 22620, Note_on_c, 7, 69, 107
9, 22668, Note_on_c, 7, 69, 0
9, 22680, Note_on_c, 7, 66, 107
9, 22728, Note_on_c, 7, 66, 0
9, 22740, Note_on_c, 7, 62, 107
9, 22788, Note_on_c, 7, 62, 0
9, 22800, Note_on_c, 7, 60, 107
9, 22848, Note_on_c, 7, 60, 0
9, 22860, Note_on_c, 7, 59, 107
9, 22908, Note_on_c, 7, 59, 0
9, 22920, Note_on_c, 7, 60, 107
9, 22968, Note_on_c, 7, 60, 0
9, 22980, Note_on_c, 7, 57, 107
9, 23028, Note_on_c, 7, 57, 0
9, 23040, Note_on_c, 7, 59, 107
9, 23088, Note_on_c, 7, 59, 0
9, 23100, Note_on_c, 7, 61, 107
9, 23148, Note_on_c, 7, 61, 0
9, 23160, Note_on_c, 7, 59, 107
9, 23208, Note_on_c, 7, 59, 0
9, 23220, Note_on_c, 7, 61, 107
9, 23268, Note_on_c, 7, 61, 0
9, 23280, Note_on_c, 7, 63, 107
9, 23328, Note_on_c, 7, 63, 0
9, 23340, Note_on_c, 7, 66, 107
9, 23388, Note_on_c, 7, 66, 0
9, 23400, Note_on_c, 7, 59, 107
9, 23448, Note_on_c, 7, 59, 0
9, 23460, Note_on_c, 7, 61, 107
9, 23508, Note_on_c, 7, 61, 0
9, 23520, Note_on_c, 7, 63, 107
9, 23568, Note_on_c, 7, 63, 0
9, 23580, Note_on_c, 7, 66, 107
9, 23628, Note_on_c, 7, 66, 0
9, 23640, Note_on_c, 7, 59, 107
9, 23688, Note_on_c, 7, 59, 0
9, 23700, Note_on_c, 7, 61, 107
9, 23748, Note_on_c, 7, 61, 0
9, 23760, Note_on_c, 7, 63, 107
9, 23808, Note_on_c, 7, 63, 0
9, 23820, Note_on_c, 7, 64, 107
9, 23868, Note_on_c, 7, 64, 0
9, 23880, Note_on_c, 7, 63, 107
9, 23928, Note_on_c, 7, 63, 0
9, 23940, Note_on_c, 7, 64, 107
9, 23988, Note_on_c, 7, 64, 0
9, 24000, Note_on_c, 7, 66, 107
9, 24048, Note_on_c, 7, 66, 0
9, 24060, Note_on_c, 7, 71, 107
9, 24108, Note_on_c, 7, 71, 0
9, 24120, Note_on_c, 7, 63, 107
9, 24168, Note_on_c, 7, 63, 0
9, 24180, Note_on_c, 7, 64, 107
9, 24228, Note_on_c, 7, 64, 0
9, 24240, Note_on_c, 7, 66, 107
9, 24288, Note_on_c, 7, 66, 0
9, 24300, Note_on_c, 7, 71, 107
9, 24348, Note_on_c, 7, 71, 0
9, 24360, Note_on_c, 7, 63, 107
9, 24408, Note_on_c, 7, 63, 0
9, 24420, Note_on_c, 7, 64, 107
9, 24468, Note_on_c, 7, 64, 0
9, 24480, Note_on_c, 7, 66, 107
9, 24528, Note_on_c, 7, 66, 0
9, 24540, Note_on_c, 7, 67, 107
9, 24588, Note_on_c, 7, 67, 0
9, 24600, Note_on_c, 7, 66, 107
9, 24648, Note_on_c, 7, 66, 0
9, 24660, Note_on_c, 7, 67, 107
9, 24708, Note_on_c, 7, 67, 0
9, 24720, Note_on_c, 7, 69, 107
9, 24768, Note_on_c, 7, 69, 0
9, 24780, Note_on_c, 7, 75, 107
9, 24828, Note_on_c, 7, 75, 0
9, 24840, Note_on_c, 7, 66, 107
9, 24888, Note_on_c, 7, 66, 0
9, 24900, Note_on_c, 7, 67, 107
9, 24948, Note_on_c, 7, 67, 0
9, 24960, Note_on_c, 7, 69, 107
9, 25008, Note_on_c, 7, 69, 0
9, 25020, Note_on_c, 7, 75, 107
9, 25068, Note_on_c, 7, 75, 0
9, 25080, Note_on_c, 7, 66, 107
9, 25128, Note_on_c, 7, 66, 0
9, 25140, Note_on_c, 7, 67, 107
9, 25188, Note_on_c, 7, 67, 0
9, 25200, Note_on_c, 7, 69, 107
9, 25248, Note_on_c, 7, 69, 0
9, 25260, Note_on_c, 7, 78, 107
9, 25308, Note_on_c, 7, 78, 0
9, 25320, Note_on_c, 7, 75, 107
9, 25368, Note_on_c, 7, 75, 0
9, 25380, Note_on_c, 7, 71, 107
9, 25428, Note_on_c, 7, 71, 0
9, 25440, Note_on_c, 7, 81, 107
9, 25488, Note_on_c, 7, 81, 0
9, 25500, Note_on_c, 7, 78, 107
9, 25548, Note_on_c, 7, 78, 0
9, 25560, Note_on_c, 7, 79, 107
9, 25608, Note_on_c, 7, 79, 0
9, 25620, Note_on_c, 7, 76, 107
9, 25668, Note_on_c, 7, 76, 0
9, 25680, Note_on_c, 7, 75, 107
9, 25728, Note_on_c, 7, 75, 0
9, 25740, Note_on_c, 7, 78, 107
9, 25788, Note_on_c, 7, 78, 0
9, 25800, Note_on_c, 7, 71, 107
9, 25848, Note_on_c, 7, 71, 0
9, 25860, Note_on_c, 7, 69, 107
9, 25908, Note_on_c, 7, 69, 0
9, 25920, Note_on_c, 7, 67, 107
9, 25968, Note_on_c, 7, 67, 0
9, 25980, Note_on_c, 7, 71, 107
9, 26028, Note_on_c, 7, 71, 0
9, 26040, Note_on_c, 7, 67, 107
9, 26088, Note_on_c, 7, 67, 0
9, 26100, Note_on_c, 7, 64, 107
9, 26148, Note_on_c, 7, 64, 0
9, 26160, Note_on_c, 7, 76, 107
9, 26208, Note_on_c, 7, 76, 0
9, 26220, Note_on_c, 7, 73, 107
9, 26268, Note_on_c, 7, 73, 0
9, 26280, Note_on_c, 7, 74, 107
9, 26328, Note_on_c, 7, 74, 0
9, 26340, Note_on_c, 7, 71, 107
9, 26388, Note_on_c, 7, 71, 0
9, 26400, Note_on_c, 7, 70, 107
9, 26448, Note_on_c, 7, 70, 0
9, 26460, Note_on_c, 7, 73, 107
9, 26508, Note_on_c, 7, 73, 0
9, 26520, Note_on_c, 7, 66, 107
9, 26568, Note_on_c, 7, 66, 0
9, 26580, Note_on_c, 7, 64, 107
9, 26628, Note_on_c, 7, 64, 0
9, 26640, Note_on_c, 7, 62, 107
9, 26688, Note_on_c, 7, 62, 0
9, 26700, Note_on_c, 7, 66, 107
9, 26748, Note_on_c, 7, 66, 0
9, 26760, Note_on_c, 7, 62, 107
9, 26808, Note_on_c, 7, 62, 0
9, 26820, Note_on_c, 7, 59, 107
9, 26868, Note_on_c, 7, 59, 0
9, 26880, Note_on_c, 7, 62, 107
9, 26928, Note_on_c, 7, 62, 0
9, 26940, Note_on_c, 7, 66, 107
9, 26988, Note_on_c, 7, 66, 0
9, 27000, Note_on_c, 7, 71, 107
9, 27048, Note_on_c, 7, 71, 0
9, 27060, Note_on_c, 7, 66, 107
9, 27108, Note_on_c, 7, 66, 0
9, 27120, Note_on_c, 7, 74, 107
9, 27168, Note_on_c, 7, 74, 0
9, 27180, Note_on_c, 7, 71, 107
9, 27228, Note_on_c, 7, 71, 0
9, 27240, Note_on_c, 7, 78, 107
9, 27288, Note_on_c, 7, 78, 0
9, 27300, Note_on_c, 7, 71, 107
9, 27348, Note_on_c, 7, 71, 0
9, 27360, Note_on_c, 7, 70, 107
9, 27408, Note_on_c, 7, 70, 0
9, 27420, Note_on_c, 7, 73, 107
9, 27468, Note_on_c, 7, 73, 0
9, 27480, Note_on_c, 7, 70, 107
9, 27528, Note_on_c, 7, 70, 0
9, 27540, Note_on_c, 7, 66, 107
9, 27588, Note_on_c, 7, 66, 0
9, 27600, Note_on_c, 7, 78, 107
9, 27648, Note_on_c, 7, 78, 0
9, 27660, Note_on_c, 7, 77, 107
9, 27708, Note_on_c, 7, 77, 0
9, 27720, Note_on_c, 7, 78, 107
9, 27768, Note_on_c, 7, 78, 0
9, 27780, Note_on_c, 7, 77, 107
9, 27828, Note_on_c, 7, 77, 0
9, 27840, Note_on_c, 7, 78, 107
9, 27888, Note_on_c, 7, 78, 0
9, 27900, Note_on_c, 7, 73, 107
9, 27948, Note_on_c, 7, 73, 0
9, 27960, Note_on_c, 7, 74, 107
9, 28008, Note_on_c, 7, 74, 0
9, 28020, Note_on_c, 7, 71, 107
9, 28068, Note_on_c, 7, 71, 0
9, 28080, Note_on_c, 7, 70, 107
9, 28128, Note_on_c, 7, 70, 0
9, 28140, Note_on_c, 7, 73, 107
9, 28188, Note_on_c, 7, 73, 0
9, 28200, Note_on_c, 7, 70, 107
9, 28248, Note_on_c, 7, 70, 0
9, 28260, Note_on_c, 7, 66, 107
9, 28308, Note_on_c, 7, 66, 0
9, 28320, Note_on_c, 7, 76, 107
9, 28368, Note_on_c, 7, 76, 0
9, 28380, Note_on_c, 7, 75, 107
9, 28428, Note_on_c, 7, 75, 0
9, 28440, Note_on_c, 7, 76, 107
9, 28488, Note_on_c, 7, 76, 0
9, 28500, Note_on_c, 7, 75, 107
9, 28548, Note_on_c, 7, 75, 0
9, 28560, Note_on_c, 7, 76, 107
9, 28608, Note_on_c, 7, 76, 0
9, 28620, Note_on_c, 7, 73, 107
9, 28668, Note_on_c, 7, 73, 0
9, 28680, Note_on_c, 7, 74, 107
9, 28728, Note_on_c, 7, 74, 0
9, 28740, Note_on_c, 7, 71, 107
9, 28788, Note_on_c, 7, 71, 0
9, 28800, Note_on_c, 7, 70, 107
9, 28848, Note_on_c, 7, 70, 0
9, 28860, Note_on_c, 7, 73, 107
9, 28908, Note_on_c, 7, 73, 0
9, 28920, Note_on_c, 7, 70, 107
9, 28968, Note_on_c, 7, 70, 0
9, 28980, Note_on_c, 7, 66, 107
9, 29028, Note_on_c, 7, 66, 0
9, 29040, Note_on_c, 7, 67, 107
9, 29088, Note_on_c, 7, 67, 0
9, 29100, Note_on_c, 7, 66, 107
9, 29148, Note_on_c, 7, 66, 0
9, 29160, Note_on_c, 7, 67, 107
9, 29208, Note_on_c, 7, 67, 0
9, 29220, Note_on_c, 7, 66, 107
9, 29268, Note_on_c, 7, 66, 0
9, 29280, Note_on_c, 7, 67, 107
9, 29328, Note_on_c, 7, 67, 0
9, 29340, Note_on_c, 7, 61, 107
9, 29388, Note_on_c, 7, 61, 0
9, 29400, Note_on_c, 7, 62, 107
9, 29448, Note_on_c, 7, 62, 0
9, 29460, Note_on_c, 7, 59, 107
9, 29508, Note_on_c, 7, 59, 0
9, 29520, Note_on_c, 7, 58, 107
9, 29568, Note_on_c, 7, 58, 0
9, 29580, Note_on_c, 7, 64, 107
9, 29628, Note_on_c, 7, 64, 0
9, 29640, Note_on_c, 7, 59, 107
9, 29688, Note_on_c, 7, 59, 0
9, 29700, Note_on_c, 7, 64, 107
9, 29748, Note_on_c, 7, 64, 0
9, 29760, Note_on_c, 7, 61, 107
9, 29808, Note_on_c, 7, 61, 0
9, 29820, Note_on_c, 7, 64, 107
9, 29868, Note_on_c, 7, 64, 0
9, 29880, Note_on_c, 7, 59, 107
9, 29928, Note_on_c, 7, 59, 0
9, 29940, Note_on_c, 7, 64, 107
9, 29988, Note_on_c, 7, 64, 0
9, 30000, Note_on_c, 7, 58, 107
9, 30048, Note_on_c, 7, 58, 0
9, 30060, Note_on_c, 7, 64, 107
9, 30108, Note_on_c, 7, 64, 0
9, 30120, Note_on_c, 7, 61, 107
9, 30168, Note_on_c, 7, 61, 0
9, 30180, Note_on_c, 7, 64, 107
9, 30228, Note_on_c, 7, 64, 0
9, 30240, Note_on_c, 7, 54, 107
9, 30288, Note_on_c, 7, 54, 0
9, 30300, Note_on_c, 7, 64, 107
9, 30348, Note_on_c, 7, 64, 0
9, 30360, Note_on_c, 7, 73, 107
9, 30408, Note_on_c, 7, 73, 0
9, 30420, Note_on_c, 7, 64, 107
9, 30468, Note_on_c, 7, 64, 0
9, 30480, Note_on_c, 7, 70, 107
9, 30528, Note_on_c, 7, 70, 0
9, 30540, Note_on_c, 7, 64, 107
9, 30588, Note_on_c, 7, 64, 0
9, 30600, Note_on_c, 7, 73, 107
9, 30648, Note_on_c, 7, 73, 0
9, 30660, Note_on_c, 7, 64, 107
9, 30708, Note_on_c, 7, 64, 0
9, 30720, Note_on_c, 7, 70, 107
9, 30768, Note_on_c, 7, 70, 0
9, 30780, Note_on_c, 7, 64, 107
9, 30828, Note_on_c, 7, 64, 0
9, 30840, Note_on_c, 7, 73, 107
9, 30888, Note_on_c, 7, 73, 0
9, 30900, Note_on_c, 7, 64, 107
9, 30948, Note_on_c, 7, 64, 0
9, 30960, Note_on_c, 7, 54, 107
9, 31008, Note_on_c, 7, 54, 0
9, 31020, Note_on_c, 7, 62, 107
9, 31068, Note_on_c, 7, 62, 0
9, 31080, Note_on_c, 7, 71, 107
9, 31128, Note_on_c, 7, 71, 0
9, 31140, Note_on_c, 7, 62, 107
9, 31188, Note_on_c, 7, 62, 0
9, 31200, Note_on_c, 7, 74, 107
9, 31248, Note_on_c, 7, 74, 0
9, 31260, Note_on_c, 7, 62, 107
9, 31308, Note_on_c, 7, 62, 0
9, 31320, Note_on_c, 7, 71, 107
9, 31368, Note_on_c, 7, 71, 0
9, 31380, Note_on_c, 7, 62, 107
9, 31428, Note_on_c, 7, 62, 0
9, 31440, Note_on_c, 7, 74, 107
9, 31488, Note_on_c, 7, 74, 0
9, 31500, Note_on_c, 7, 62, 107
9, 31548, Note_on_c, 7, 62, 0
9, 31560, Note_on_c, 7, 71, 107
9, 31608, Note_on_c, 7, 71, 0
9, 31620, Note_on_c, 7, 62, 107
9, 31668, Note_on_c, 7, 62, 0
9, 31680, Note_on_c, 7, 54, 107
9, 31728, Note_on_c, 7, 54, 0
9, 31740, Note_on_c, 7, 64, 107
9, 31788, Note_on_c, 7, 64, 0
9, 31800, Note_on_c, 7, 73, 107
9, 31848, Note_on_c, 7, 73, 0
9, 31860, Note_on_c, 7, 64, 107
9, 31908, Note_on_c, 7, 64, 0
9, 31920, Note_on_c, 7, 70, 107
9, 31968, Note_on_c, 7, 70, 0
9, 31980, Note_on_c, 7, 64, 107
9, 32028, Note_on_c, 7, 64, 0
9, 32040, Note_on_c, 7, 73, 107
9, 32088, Note_on_c, 7, 73, 0
9, 32100, Note_on_c, 7, 64, 107
9, 32148, Note_on_c, 7, 64, 0
9, 32160, Note_on_c, 7, 70, 107
9, 32208, Note_on_c, 7, 70, 0
9, 32220, Note_on_c, 7, 64, 107
9, 32268, Note_on_c, 7, 64, 0
9, 32280, Note_on_c, 7, 73, 107
9, 32328, Note_on_c, 7, 73, 0
9, 32340, Note_on_c, 7, 64, 107
9, 32388, Note_on_c, 7, 64, 0
9, 32400, Note_on_c, 7, 54, 107
9, 32448, Note_on_c, 7, 54, 0
9, 32460, Note_on_c, 7, 62, 107
9, 32508, Note_on_c, 7, 62, 0
9, 32520, Note_on_c, 7, 71, 107
9, 32568, Note_on_c, 7, 71, 0
9, 32580, Note_on_c, 7, 62, 107
9, 32628, Note_on_c, 7, 62, 0
9, 32640, Note_on_c, 7, 74, 107
9, 32688, Note_on_c, 7, 74, 0
9, 32700, Note_on_c, 7, 62, 107
9, 32748, Note_on_c, 7, 62, 0
9, 32760, Note_on_c, 7, 71, 107
9, 32808, Note_on_c, 7, 71, 0
9, 32820, Note_on_c, 7, 62, 107
9, 32868, Note_on_c, 7, 62, 0
9, 32880, Note_on_c, 7, 74, 107
9, 32928, Note_on_c, 7, 74, 0
9, 32940, Note_on_c, 7, 62, 107
9, 32988, Note_on_c, 7, 62, 0
9, 33000, Note_on_c, 7, 71, 107
9, 33048, Note_on_c, 7, 71, 0
9, 33060, Note_on_c, 7, 62, 107
9, 33108, Note_on_c, 7, 62, 0
9, 33120, Note_on_c, 7, 54, 107
9, 33168, Note_on_c, 7, 54, 0
9, 33180, Note_on_c, 7, 65, 107
9, 33228, Note_on_c, 7, 65, 0
9, 33240, Note_on_c, 7, 71, 107
9, 33288, Note_on_c, 7, 71, 0
9, 33300, Note_on_c, 7, 65, 107
9, 33348, Note_on_c, 7, 65, 0
9, 33360, Note_on_c, 7, 74, 107
9, 33408, Note_on_c, 7, 74, 0
9, 33420, Note_on_c, 7, 65, 107
9, 33468, Note_on_c, 7, 65, 0
9, 33480, Note_on_c, 7, 71, 107
9, 33528, Note_on_c, 7, 71, 0
9, 33540, Note_on_c, 7, 65, 107
9, 33588, Note_on_c, 7, 65, 0
9, 33600, Note_on_c, 7, 74, 107
9, 33648, Note_on_c, 7, 74, 0
9, 33660, Note_on_c, 7, 65, 107
9, 33708, Note_on_c, 7, 65, 0
9, 33720, Note_on_c, 7, 71, 107
9, 33768, Note_on_c, 7, 71, 0
9, 33780, Note_on_c, 7, 65, 107
9, 33828, Note_on_c, 7, 65, 0
9, 33840, Note_on_c, 7, 54, 107
9, 33888, Note_on_c, 7, 54, 0
9, 33900, Note_on_c, 7, 65, 107
9, 33948, Note_on_c, 7, 65, 0
9, 33960, Note_on_c, 7, 71, 107
9, 34008, Note_on_c, 7, 71, 0
9, 34020, Note_on_c, 7, 65, 107
9, 34068, Note_on_c, 7, 65, 0
9, 34080, Note_on_c, 7, 74, 107
9, 34128, Note_on_c, 7, 74, 0
9, 34140, Note_on_c, 7, 65, 107
9, 34188, Note_on_c, 7, 65, 0
9, 34200, Note_on_c, 7, 71, 107
9, 34248, Note_on_c, 7, 71, 0
9, 34260, Note_on_c, 7, 65, 107
9, 34308, Note_on_c, 7, 65, 0
9, 34320, Note_on_c, 7, 74, 107
9, 34368, Note_on_c, 7, 74, 0
9, 34380, Note_on_c, 7, 65, 107
9, 34428, Note_on_c, 7, 65, 0
9, 34440, Note_on_c, 7, 71, 107
9, 34488, Note_on_c, 7, 71, 0
9, 34500, Note_on_c, 7, 65, 107
9, 34548, Note_on_c, 7, 65, 0
9, 34560, Note_on_c, 7, 54, 107
9, 34608, Note_on_c, 7, 54, 0
9, 34620, Note_on_c, 7, 66, 107
9, 34668, Note_on_c, 7, 66, 0
9, 34680, Note_on_c, 7, 71, 107
9, 34728, Note_on_c, 7, 71, 0
9, 34740, Note_on_c, 7, 66, 107
9, 34788, Note_on_c, 7, 66, 0
9, 34800, Note_on_c, 7, 73, 107
9, 34848, Note_on_c, 7, 73, 0
9, 34860, Note_on_c, 7, 66, 107
9, 34908, Note_on_c, 7, 66, 0
9, 34920, Note_on_c, 7, 71, 107
9, 34968, Note_on_c, 7, 71, 0
9, 34980, Note_on_c, 7, 66, 107
9, 35028, Note_on_c, 7, 66, 0
9, 35040, Note_on_c, 7, 73, 107
9, 35088, Note_on_c, 7, 73, 0
9, 35100, Note_on_c, 7, 66, 107
9, 35148, Note_on_c, 7, 66, 0
9, 35160, Note_on_c, 7, 71, 107
9, 35208, Note_on_c, 7, 71, 0
9, 35220, Note_on_c, 7, 66, 107
9, 35268, Note_on_c, 7, 66, 0
9, 35280, Note_on_c, 7, 54, 107
9, 35328, Note_on_c, 7, 54, 0
9, 35340, Note_on_c, 7, 64, 107
9, 35388, Note_on_c, 7, 64, 0
9, 35400, Note_on_c, 7, 70, 107
9, 35448, Note_on_c, 7, 70, 0
9, 35460, Note_on_c, 7, 64, 107
9, 35508, Note_on_c, 7, 64, 0
9, 35520, Note_on_c, 7, 73, 107
9, 35568, Note_on_c, 7, 73, 0
9, 35580, Note_on_c, 7, 64, 107
9, 35628, Note_on_c, 7, 64, 0
9, 35640, Note_on_c, 7, 70, 107
9, 35688, Note_on_c, 7, 70, 0
9, 35700, Note_on_c, 7, 64, 107
9, 35748, Note_on_c, 7, 64, 0
9, 35760, Note_on_c, 7, 73, 107
9, 35808, Note_on_c, 7, 73, 0
9, 35820, Note_on_c, 7, 64, 107
9, 35868, Note_on_c, 7, 64, 0
9, 35880, Note_on_c, 7, 70, 107
9, 35928, Note_on_c, 7, 70, 0
9, 35940, Note_on_c, 7, 64, 107
9, 35988, Note_on_c, 7, 64, 0
9, 36000, Note_on_c, 7, 62, 107
9, 36048, Note_on_c, 7, 62, 0
9, 36060, Note_on_c, 7, 71, 107
9, 36108, Note_on_c, 7, 71, 0
9, 36120, Note_on_c, 7, 69, 107
9, 36168, Note_on_c, 7, 69, 0
9, 36180, Note_on_c, 7, 67, 107
9, 36228, Note_on_c, 7, 67, 0
9, 36240, Note_on_c, 7, 66, 107
9, 36288, Note_on_c, 7, 66, 0
9, 36300, Note_on_c, 7, 71, 107
9, 36348, Note_on_c, 7, 71, 0
9, 36360, Note_on_c, 7, 66, 107
9, 36408, Note_on_c, 7, 66, 0
9, 36420, Note_on_c, 7, 64, 107
9, 36468, Note_on_c, 7, 64, 0
9, 36480, Note_on_c, 7, 62, 107
9, 36528, Note_on_c, 7, 62, 0
9, 36540, Note_on_c, 7, 66, 107
9, 36588, Note_on_c, 7, 66, 0
9, 36600, Note_on_c, 7, 62, 107
9, 36648, Note_on_c, 7, 62, 0
9, 36660, Note_on_c, 7, 61, 107
9, 36708, Note_on_c, 7, 61, 0
9, 36720, Note_on_c, 7, 59, 107
9, 36768, Note_on_c, 7, 59, 0
9, 36780, Note_on_c, 7, 71, 107
9, 36828, Note_on_c, 7, 71, 0
9, 36840, Note_on_c, 7, 66, 107
9, 36888, Note_on_c, 7, 66, 0
9, 36900, Note_on_c, 7, 64, 107
9, 36948, Note_on_c, 7, 64, 0
9, 36960, Note_on_c, 7, 62, 107
9, 37008, Note_on_c, 7, 62, 0
9, 37020, Note_on_c, 7, 66, 107
9, 37068, Note_on_c, 7, 66, 0
9, 37080, Note_on_c, 7, 62, 107
9, 37128, Note_on_c, 7, 62, 0
9, 37140, Note_on_c, 7, 61, 107
9, 37188, Note_on_c, 7, 61, 0
9, 37200, Note_on_c, 7, 59, 107
9, 37248, Note_on_c, 7, 59, 0
9, 37260, Note_on_c, 7, 62, 107
9, 37308, Note_on_c, 7, 62, 0
9, 37320, Note_on_c, 7, 59, 107
9, 37368, Note_on_c, 7, 59, 0
9, 37380, Note_on_c, 7, 57, 107
9, 37428, Note_on_c, 7, 57, 0
9, 37440, Note_on_c, 7, 56, 107
9, 37488, Note_on_c, 7, 56, 0
9, 37500, Note_on_c, 7, 64, 107
9, 37548, Note_on_c, 7, 64, 0
9, 37560, Note_on_c, 7, 71, 107
9, 37608, Note_on_c, 7, 71, 0
9, 37620, Note_on_c, 7, 64, 107
9, 37668, Note_on_c, 7, 64, 0
9, 37680, Note_on_c, 7, 74, 107
9, 37728, Note_on_c, 7, 74, 0
9, 37740, Note_on_c, 7, 64, 107
9, 37788, Note_on_c, 7, 64, 0
9, 37800, Note_on_c, 7, 71, 107
9, 37848, Note_on_c, 7, 71, 0
9, 37860, Note_on_c, 7, 64, 107
9, 37908, Note_on_c, 7, 64, 0
9, 37920, Note_on_c, 7, 74, 107
9, 37968, Note_on_c, 7, 74, 0
9, 37980, Note_on_c, 7, 64, 107
9, 38028, Note_on_c, 7, 64, 0
9, 38040, Note_on_c, 7, 71, 107
9, 38088, Note_on_c, 7, 71, 0
9, 38100, Note_on_c, 7, 64, 107
9, 38148, Note_on_c, 7, 64, 0
9, 38160, Note_on_c, 7, 56, 107
9, 38208, Note_on_c, 7, 56, 0
9, 38220, Note_on_c, 7, 64, 107
9, 38268, Note_on_c, 7, 64, 0
9, 38280, Note_on_c, 7, 71, 107
9, 38328, Note_on_c, 7, 71, 0
9, 38340, Note_on_c, 7, 64, 107
9, 38388, Note_on_c, 7, 64, 0
9, 38400, Note_on_c, 7, 74, 107
9, 38448, Note_on_c, 7, 74, 0
9, 38460, Note_on_c, 7, 64, 107
9, 38508, Note_on_c, 7, 64, 0
9, 38520, Note_on_c, 7, 71, 107
9, 38568, Note_on_c, 7, 71, 0
9, 38580, Note_on_c, 7, 64, 107
9, 38628, Note_on_c, 7, 64, 0
9, 38640, Note_on_c, 7, 74, 107
9, 38688, Note_on_c, 7, 74, 0
9, 38700, Note_on_c, 7, 64, 107
9, 38748, Note_on_c, 7, 64, 0
9, 38760, Note_on_c, 7, 71, 107
9, 38808, Note_on_c, 7, 71, 0
9, 38820, Note_on_c, 7, 64, 107
9, 38868, Note_on_c, 7, 64, 0
9, 38880, Note_on_c, 7, 57, 107
9, 38928, Note_on_c, 7, 57, 0
9, 38940, Note_on_c, 7, 81, 107
9, 38988, Note_on_c, 7, 81, 0
9, 39000, Note_on_c, 7, 80, 107
9, 39048, Note_on_c, 7, 80, 0
9, 39060, Note_on_c, 7, 78, 107
9, 39108, Note_on_c, 7, 78, 0
9, 39120, Note_on_c, 7, 76, 107
9, 39168, Note_on_c, 7, 76, 0
9, 39180, Note_on_c, 7, 81, 107
9, 39228, Note_on_c, 7, 81, 0
9, 39240, Note_on_c, 7, 76, 107
9, 39288, Note_on_c, 7, 76, 0
9, 39300, Note_on_c, 7, 74, 107
9, 39348, Note_on_c, 7, 74, 0
9, 39360, Note_on_c, 7, 73, 107
9, 39408, Note_on_c, 7, 73, 0
9, 39420, Note_on_c, 7, 76, 107
9, 39468, Note_on_c, 7, 76, 0
9, 39480, Note_on_c, 7, 73, 107
9, 39528, Note_on_c, 7, 73, 0
9, 39540, Note_on_c, 7, 71, 107
9, 39588, Note_on_c, 7, 71, 0
9, 39600, Note_on_c, 7, 69, 107
9, 39648, Note_on_c, 7, 69, 0
9, 39660, Note_on_c, 7, 81, 107
9, 39708, Note_on_c, 7, 81, 0
9, 39720, Note_on_c, 7, 76, 107
9, 39768, Note_on_c, 7, 76, 0
9, 39780, Note_on_c, 7, 74, 107
9, 39828, Note_on_c, 7, 74, 0
9, 39840, Note_on_c, 7, 73, 107
9, 39888, Note_on_c, 7, 73, 0
9, 39900, Note_on_c, 7, 76, 107
9, 39948, Note_on_c, 7, 76, 0
9, 39960, Note_on_c, 7, 73, 107
9, 40008, Note_on_c, 7, 73, 0
9, 40020, Note_on_c, 7, 71, 107
9, 40068, Note_on_c, 7, 71, 0
9, 40080, Note_on_c, 7, 69, 107
9, 40128, Note_on_c, 7, 69, 0
9, 40140, Note_on_c, 7, 73, 107
9, 40188, Note_on_c, 7, 73, 0
9, 40200, Note_on_c, 7, 69, 107
9, 40248, Note_on_c, 7, 69, 0
9, 40260, Note_on_c, 7, 67, 107
9, 40308, Note_on_c, 7, 67, 0
9, 40320, Note_on_c, 7, 66, 107
9, 40368, Note_on_c, 7, 66, 0
9, 40380, Note_on_c, 7, 72, 107
9, 40428, Note_on_c, 7, 72, 0
9, 40440, Note_on_c, 7, 71, 107
9, 40488, Note_on_c, 7, 71, 0
9, 40500, Note_on_c, 7, 72, 107
9, 40548, Note_on_c, 7, 72, 0
9, 40560, Note_on_c, 7, 78, 107
9, 40608, Note_on_c, 7, 78, 0
9, 40620, Note_on_c, 7, 72, 107
9, 40668, Note_on_c, 7, 72, 0
9, 40680, Note_on_c, 7, 81, 107
9, 40728, Note_on_c, 7, 81, 0
9, 40740, Note_on_c, 7, 72, 107
9, 40788, Note_on_c, 7, 72, 0
9, 40800, Note_on_c, 7, 78, 107
9, 40848, Note_on_c, 7, 78, 0
9, 40860, Note_on_c, 7, 72, 107
9, 40908, Note_on_c, 7, 72, 0
9, 40920, Note_on_c, 7, 74, 107
9, 40968, Note_on_c, 7, 74, 0
9, 40980, Note_on_c, 7, 72, 107
9, 41028, Note_on_c, 7, 72, 0
9, 41040, Note_on_c, 7, 66, 107
9, 41088, Note_on_c, 7, 66, 0
9, 41100, Note_on_c, 7, 72, 107
9, 41148, Note_on_c, 7, 72, 0
9, 41160, Note_on_c, 7, 74, 107
9, 41208, Note_on_c, 7, 74, 0
9, 41220, Note_on_c, 7, 72, 107
9, 41268, Note_on_c, 7, 72, 0
9, 41280, Note_on_c, 7, 66, 107
9, 41328, Note_on_c, 7, 66, 0
9, 41340, Note_on_c, 7, 72, 107
9, 41388, Note_on_c, 7, 72, 0
9, 41400, Note_on_c, 7, 64, 107
9, 41448, Note_on_c, 7, 64, 0
9, 41460, Note_on_c, 7, 72, 107
9, 41508, Note_on_c, 7, 72, 0
9, 41520, Note_on_c, 7, 66, 107
9, 41568, Note_on_c, 7, 66, 0
9, 41580, Note_on_c, 7, 72, 107
9, 41628, Note_on_c, 7, 72, 0
9, 41640, Note_on_c, 7, 62, 107
9, 41688, Note_on_c, 7, 62, 0
9, 41700, Note_on_c, 7, 72, 107
9, 41748, Note_on_c, 7, 72, 0
9, 41760, Note_on_c, 7, 71, 107
9, 41808, Note_on_c, 7, 71, 0
9, 41820, Note_on_c, 7, 74, 107
9, 41868, Note_on_c, 7, 74, 0
9, 41880, Note_on_c, 7, 79, 107
9, 41928, Note_on_c, 7, 79, 0
9, 41940, Note_on_c, 7, 78, 107
9, 41988, Note_on_c, 7, 78, 0
9, 42000, Note_on_c, 7, 79, 107
9, 42048, Note_on_c, 7, 79, 0
9, 42060, Note_on_c, 7, 74, 107
9, 42108, Note_on_c, 7, 74, 0
9, 42120, Note_on_c, 7, 72, 107
9, 42168, Note_on_c, 7, 72, 0
9, 42180, Note_on_c, 7, 74, 107
9, 42228, Note_on_c, 7, 74, 0
9, 42240, Note_on_c, 7, 71, 107
9, 42288, Note_on_c, 7, 71, 0
9, 42300, Note_on_c, 7, 74, 107
9, 42348, Note_on_c, 7, 74, 0
9, 42360, Note_on_c, 7, 69, 107
9, 42408, Note_on_c, 7, 69, 0
9, 42420, Note_on_c, 7, 74, 107
9, 42468, Note_on_c, 7, 74, 0
9, 42480, Note_on_c, 7, 67, 107
9, 42528, Note_on_c, 7, 67, 0
9, 42540, Note_on_c, 7, 79, 107
9, 42588, Note_on_c, 7, 79, 0
9, 42600, Note_on_c, 7, 78, 107
9, 42648, Note_on_c, 7, 78, 0
9, 42660, Note_on_c, 7, 76, 107
9, 42708, Note_on_c, 7, 76, 0
9, 42720, Note_on_c, 7, 74, 107
9, 42768, Note_on_c, 7, 74, 0
9, 42780, Note_on_c, 7, 67, 107
9, 42828, Note_on_c, 7, 67, 0
9, 42840, Note_on_c, 7, 76, 107
9, 42888, Note_on_c, 7, 76, 0
9, 42900, Note_on_c, 7, 67, 107
9, 42948, Note_on_c, 7, 67, 0
9, 42960, Note_on_c, 7, 74, 107
9, 43008, Note_on_c, 7, 74, 0
9, 43020, Note_on_c, 7, 67, 107
9, 43068, Note_on_c, 7, 67, 0
9, 43080, Note_on_c, 7, 72, 107
9, 43128, Note_on_c, 7, 72, 0
9, 43140, Note_on_c, 7, 67, 107
9, 43188, Note_on_c, 7, 67, 0
9, 43200, Note_on_c, 7, 71, 107
9, 43248, Note_on_c, 7, 71, 0
9, 43260, Note_on_c, 7, 74, 107
9, 43308, Note_on_c, 7, 74, 0
9, 43320, Note_on_c, 7, 69, 107
9, 43368, Note_on_c, 7, 69, 0
9, 43380, Note_on_c, 7, 74, 107
9, 43428, Note_on_c, 7, 74, 0
9, 43440, Note_on_c, 7, 71, 107
9, 43488, Note_on_c, 7, 71, 0
9, 43500, Note_on_c, 7, 74, 107
9, 43548, Note_on_c, 7, 74, 0
9, 43560, Note_on_c, 7, 72, 107
9, 43608, Note_on_c, 7, 72, 0
9, 43620, Note_on_c, 7, 74, 107
9, 43668, Note_on_c, 7, 74, 0
9, 43680, Note_on_c, 7, 71, 107
9, 43728, Note_on_c, 7, 71, 0
9, 43740, Note_on_c, 7, 74, 107
9, 43788, Note_on_c, 7, 74, 0
9, 43800, Note_on_c, 7, 69, 107
9, 43848, Note_on_c, 7, 69, 0
9, 43860, Note_on_c, 7, 74, 107
9, 43908, Note_on_c, 7, 74, 0
9, 43920, Note_on_c, 7, 67, 107
9, 43968, Note_on_c, 7, 67, 0
9, 43980, Note_on_c, 7, 79, 107
9, 44028, Note_on_c, 7, 79, 0
9, 44040, Note_on_c, 7, 78, 107
9, 44088, Note_on_c, 7, 78, 0
9, 44100, Note_on_c, 7, 76, 107
9, 44148, Note_on_c, 7, 76, 0
9, 44160, Note_on_c, 7, 74, 107
9, 44208, Note_on_c, 7, 74, 0
9, 44220, Note_on_c, 7, 67, 107
9, 44268, Note_on_c, 7, 67, 0
9, 44280, Note_on_c, 7, 76, 107
9, 44328, Note_on_c, 7, 76, 0
9, 44340, Note_on_c, 7, 67, 107
9, 44388, Note_on_c, 7, 67, 0
9, 44400, Note_on_c, 7, 74, 107
9, 44448, Note_on_c, 7, 74, 0
9, 44460, Note_on_c, 7, 67, 107
9, 44508, Note_on_c, 7, 67, 0
9, 44520, Note_on_c, 7, 72, 107
9, 44568, Note_on_c, 7, 72, 0
9, 44580, Note_on_c, 7, 67, 107
9, 44628, Note_on_c, 7, 67, 0
9, 44640, Note_on_c, 7, 71, 107
9, 44688, Note_on_c, 7, 71, 0
9, 44700, Note_on_c, 7, 67, 107
9, 44748, Note_on_c, 7, 67, 0
9, 44760, Note_on_c, 7, 67, 107
9, 44808, Note_on_c, 7, 67, 0
9, 44820, Note_on_c, 7, 67, 107
9, 44868, Note_on_c, 7, 67, 0
9, 44880, Note_on_c, 7, 66, 107
9, 44928, Note_on_c, 7, 66, 0
9, 44940, Note_on_c, 7, 67, 107
9, 44988, Note_on_c, 7, 67, 0
9, 45000, Note_on_c, 7, 67, 107
9, 45048, Note_on_c, 7, 67, 0
9, 45060, Note_on_c, 7, 67, 107
9, 45108, Note_on_c, 7, 67, 0
9, 45120, Note_on_c, 7, 69, 107
9, 45168, Note_on_c, 7, 69, 0
9, 45180, Note_on_c, 7, 67, 107
9, 45228, Note_on_c, 7, 67, 0
9, 45240, Note_on_c, 7, 66, 107
9, 45288, Note_on_c, 7, 66, 0
9, 45300, Note_on_c, 7, 67, 107
9, 45348, Note_on_c, 7, 67, 0
9, 45360, Note_on_c, 7, 67, 107
9, 45408, Note_on_c, 7, 67, 0
9, 45420, Note_on_c, 7, 67, 107
9, 45468, Note_on_c, 7, 67, 0
9, 45480, Note_on_c, 7, 71, 107
9, 45528, Note_on_c, 7, 71, 0
9, 45540, Note_on_c, 7, 67, 107
9, 45588, Note_on_c, 7, 67, 0
9, 45600, Note_on_c, 7, 69, 107
9, 45648, Note_on_c, 7, 69, 0
9, 45660, Note_on_c, 7, 67, 107
9, 45708, Note_on_c, 7, 67, 0
9, 45720, Note_on_c, 7, 71, 107
9, 45768, Note_on_c, 7, 71, 0
9, 45780, Note_on_c, 7, 67, 107
9, 45828, Note_on_c, 7, 67, 0
9, 45840, Note_on_c, 7, 72, 107
9, 45888, Note_on_c, 7, 72, 0
9, 45900, Note_on_c, 7, 67, 107
9, 45948, Note_on_c, 7, 67, 0
9, 45960, Note_on_c, 7, 69, 107
9, 46008, Note_on_c, 7, 69, 0
9, 46020, Note_on_c, 7, 67, 107
9, 46068, Note_on_c, 7, 67, 0
9, 46080, Note_on_c, 7, 71, 107
9, 46128, Note_on_c, 7, 71, 0
9, 46140, Note_on_c, 7, 67, 107
9, 46188, Note_on_c, 7, 67, 0
9, 46200, Note_on_c, 7, 67, 107
9, 46248, Note_on_c, 7, 67, 0
9, 46260, Note_on_c, 7, 67, 107
9, 46308, Note_on_c, 7, 67, 0
9, 46320, Note_on_c, 7, 66, 107
9, 46368, Note_on_c, 7, 66, 0
9, 46380, Note_on_c, 7, 67, 107
9, 46428, Note_on_c, 7, 67, 0
9, 46440, Note_on_c, 7, 67, 107
9, 46488, Note_on_c, 7, 67, 0
9, 46500, Note_on_c, 7, 67, 107
9, 46548, Note_on_c, 7, 67, 0
9, 46560, Note_on_c, 7, 69, 107
9, 46608, Note_on_c, 7, 69, 0
9, 46620, Note_on_c, 7, 67, 107
9, 46668, Note_on_c, 7, 67, 0
9, 46680, Note_on_c, 7, 66, 107
9, 46728, Note_on_c, 7, 66, 0
9, 46740, Note_on_c, 7, 67, 107
9, 46788, Note_on_c, 7, 67, 0
9, 46800, Note_on_c, 7, 67, 107
9, 46848, Note_on_c, 7, 67, 0
9, 46860, Note_on_c, 7, 67, 107
9, 46908, Note_on_c, 7, 67, 0
9, 46920, Note_on_c, 7, 71, 107
9, 46968, Note_on_c, 7, 71, 0
9, 46980, Note_on_c, 7, 67, 107
9, 47028, Note_on_c, 7, 67, 0
9, 47040, Note_on_c, 7, 69, 107
9, 47088, Note_on_c, 7, 69, 0
9, 47100, Note_on_c, 7, 67, 107
9, 47148, Note_on_c, 7, 67, 0
9, 47160, Note_on_c, 7, 71, 107
9, 47208, Note_on_c, 7, 71, 0
9, 47220, Note_on_c, 7, 67, 107
9, 47268, Note_on_c, 7, 67, 0
9, 47280, Note_on_c, 7, 72, 107
9, 47328, Note_on_c, 7, 72, 0
9, 47340, Note_on_c, 7, 67, 107
9, 47388, Note_on_c, 7, 67, 0
9, 47400, Note_on_c, 7, 69, 107
9, 47448, Note_on_c, 7, 69, 0
9, 47460, Note_on_c, 7, 67, 107
9, 47508, Note_on_c, 7, 67, 0
9, 47520, Note_on_c, 7, 71, 107
9, 47568, Note_on_c, 7, 71, 0
9, 47580, Note_on_c, 7, 67, 107
9, 47628, Note_on_c, 7, 67, 0
9, 47640, Note_on_c, 7, 66, 107
9, 47688, Note_on_c, 7, 66, 0
9, 47700, Note_on_c, 7, 67, 107
9, 47748, Note_on_c, 7, 67, 0
9, 47760, Note_on_c, 7, 62, 107
9, 47808, Note_on_c, 7, 62, 0
9, 47820, Note_on_c, 7, 67, 107
9, 47868, Note_on_c, 7, 67, 0
9, 47880, Note_on_c, 7, 66, 107
9, 47928, Note_on_c, 7, 66, 0
9, 47940, Note_on_c, 7, 67, 107
9, 47988, Note_on_c, 7, 67, 0
9, 48000, Note_on_c, 7, 71, 107
9, 48048, Note_on_c, 7, 71, 0
9, 48060, Note_on_c, 7, 67, 107
9, 48108, Note_on_c, 7, 67, 0
9, 48120, Note_on_c, 7, 66, 107
9, 48168, Note_on_c, 7, 66, 0
9, 48180, Note_on_c, 7, 67, 107
9, 48228, Note_on_c, 7, 67, 0
9, 48240, Note_on_c, 7, 74, 107
9, 48288, Note_on_c, 7, 74, 0
9, 48300, Note_on_c, 7, 71, 107
9, 48348, Note_on_c, 7, 71, 0
9, 48360, Note_on_c, 7, 69, 107
9, 48408, Note_on_c, 7, 69, 0
9, 48420, Note_on_c, 7, 71, 107
9, 48468, Note_on_c, 7, 71, 0
9, 48480, Note_on_c, 7, 67, 107
9, 48528, Note_on_c, 7, 67, 0
9, 48540, Note_on_c, 7, 71, 107
9, 48588, Note_on_c, 7, 71, 0
9, 48600, Note_on_c, 7, 69, 107
9, 48648, Note_on_c, 7, 69, 0
9, 48660, Note_on_c, 7, 71, 107
9, 48708, Note_on_c, 7, 71, 0
9, 48720, Note_on_c, 7, 74, 107
9, 48768, Note_on_c, 7, 74, 0
9, 48780, Note_on_c, 7, 71, 107
9, 48828, Note_on_c, 7, 71, 0
9, 48840, Note_on_c, 7, 69, 107
9, 48888, Note_on_c, 7, 69, 0
9, 48900, Note_on_c, 7, 71, 107
9, 48948, Note_on_c, 7, 71, 0
9, 48960, Note_on_c, 7, 79, 107
9, 49008, Note_on_c, 7, 79, 0
9, 49020, Note_on_c, 7, 74, 107
9, 49068, Note_on_c, 7, 74, 0
9, 49080, Note_on_c, 7, 72, 107
9, 49128, Note_on_c, 7, 72, 0
9, 49140, Note_on_c, 7, 74, 107
9, 49188, Note_on_c, 7, 74, 0
9, 49200, Note_on_c, 7, 71, 107
9, 49248, Note_on_c, 7, 71, 0
9, 49260, Note_on_c, 7, 74, 107
9, 49308, Note_on_c, 7, 74, 0
9, 49320, Note_on_c, 7, 69, 107
9, 49368, Note_on_c, 7, 69, 0
9, 49380, Note_on_c, 7, 74, 107
9, 49428, Note_on_c, 7, 74, 0
9, 49440, Note_on_c, 7, 67, 107
9, 49488, Note_on_c, 7, 67, 0
9, 49500, Note_on_c, 7, 74, 107
9, 49548, Note_on_c, 7, 74, 0
9, 49560, Note_on_c, 7, 65, 107
9, 49608, Note_on_c, 7, 65, 0
9, 49620, Note_on_c, 7, 74, 107
9, 49668, Note_on_c, 7, 74, 0
9, 49680, Note_on_c, 7, 64, 107
9, 49728, Note_on_c, 7, 64, 0
9, 49740, Note_on_c, 7, 72, 107
9, 49788, Note_on_c, 7, 72, 0
9, 49800, Note_on_c, 7, 67, 107
9, 49848, Note_on_c, 7, 67, 0
9, 49860, Note_on_c, 7, 72, 107
9, 49908, Note_on_c, 7, 72, 0
9, 49920, Note_on_c, 7, 64, 107
9, 49968, Note_on_c, 7, 64, 0
9, 49980, Note_on_c, 7, 72, 107
9, 50028, Note_on_c, 7, 72, 0
9, 50040, Note_on_c, 7, 67, 107
9, 50088, Note_on_c, 7, 67, 0
9, 50100, Note_on_c, 7, 72, 107
9, 50148, Note_on_c, 7, 72, 0
9, 50160, Note_on_c, 7, 64, 107
9, 50208, Note_on_c, 7, 64, 0
9, 50220, Note_on_c, 7, 72, 107
9, 50268, Note_on_c, 7, 72, 0
9, 50280, Note_on_c, 7, 67, 107
9, 50328, Note_on_c, 7, 67, 0
9, 50340, Note_on_c, 7, 72, 107
9, 50388, Note_on_c, 7, 72, 0
9, 50400, Note_on_c, 7, 62, 107
9, 50448, Note_on_c, 7, 62, 0
9, 50460, Note_on_c, 7, 72, 107
9, 50508, Note_on_c, 7, 72, 0
9, 50520, Note_on_c, 7, 67, 107
9, 50568, Note_on_c, 7, 67, 0
9, 50580, Note_on_c, 7, 72, 107
9, 50628, Note_on_c, 7, 72, 0
9, 50640, Note_on_c, 7, 62, 107
9, 50688, Note_on_c, 7, 62, 0
9, 50700, Note_on_c, 7, 72, 107
9, 50748, Note_on_c, 7, 72, 0
9, 50760, Note_on_c, 7, 67, 107
9, 50808, Note_on_c, 7, 67, 0
9, 50820, Note_on_c, 7, 72, 107
9, 50868, Note_on_c, 7, 72, 0
9, 50880, Note_on_c, 7, 62, 107
9, 50928, Note_on_c, 7, 62, 0
9, 50940, Note_on_c, 7, 72, 107
9, 50988, Note_on_c, 7, 72, 0
9, 51000, Note_on_c, 7, 67, 107
9, 51048, Note_on_c, 7, 67, 0
9, 51060, Note_on_c, 7, 72, 107
9, 51108, Note_on_c, 7, 72, 0
9, 51120, Note_on_c, 7, 62, 107
9, 51168, Note_on_c, 7, 62, 0
9, 51180, Note_on_c, 7, 71, 107
9, 51228, Note_on_c, 7, 71, 0
9, 51240, Note_on_c, 7, 67, 107
9, 51288, Note_on_c, 7, 67, 0
9, 51300, Note_on_c, 7, 71, 107
9, 51348, Note_on_c, 7, 71, 0
9, 51360, Note_on_c, 7, 62, 107
9, 51408, Note_on_c, 7, 62, 0
9, 51420, Note_on_c, 7, 71, 107
9, 51468, Note_on_c, 7, 71, 0
9, 51480, Note_on_c, 7, 67, 107
9, 51528, Note_on_c, 7, 67, 0
9, 51540, Note_on_c, 7, 71, 107
9, 51588, Note_on_c, 7, 71, 0
9, 51600, Note_on_c, 7, 62, 107
9, 51648, Note_on_c, 7, 62, 0
9, 51660, Note_on_c, 7, 71, 107
9, 51708, Note_on_c, 7, 71, 0
9, 51720, Note_on_c, 7, 67, 107
9, 51768, Note_on_c, 7, 67, 0
9, 51780, Note_on_c, 7, 71, 107
9, 51828, Note_on_c, 7, 71, 0
9, 51840, Note_on_c, 7, 60, 107
9, 51888, Note_on_c, 7, 60, 0
9, 51900, Note_on_c, 7, 71, 107
9, 51948, Note_on_c, 7, 71, 0
9, 51960, Note_on_c, 7, 67, 107
9, 52008, Note_on_c, 7, 67, 0
9, 52020, Note_on_c, 7, 71, 107
9, 52068, Note_on_c, 7, 71, 0
9, 52080, Note_on_c, 7, 60, 107
9, 52128, Note_on_c, 7, 60, 0
9, 52140, Note_on_c, 7, 71, 107
9, 52188, Note_on_c, 7, 71, 0
9, 52200, Note_on_c, 7, 67, 107
9, 52248, Note_on_c, 7, 67, 0
9, 52260, Note_on_c, 7, 71, 107
9, 52308, Note_on_c, 7, 71, 0
9, 52320, Note_on_c, 7, 60, 107
9, 52368, Note_on_c, 7, 60, 0
9, 52380, Note_on_c, 7, 71, 107
9, 52428, Note_on_c, 7, 71, 0
9, 52440, Note_on_c, 7, 67, 107
9, 52488, Note_on_c, 7, 67, 0
9, 52500, Note_on_c, 7, 71, 107
9, 52548, Note_on_c, 7, 71, 0
9, 52560, Note_on_c, 7, 60, 107
9, 52608, Note_on_c, 7, 60, 0
9, 52620, Note_on_c, 7, 69, 107
9, 52668, Note_on_c, 7, 69, 0
9, 52680, Note_on_c, 7, 66, 107
9, 52728, Note_on_c, 7, 66, 0
9, 52740, Note_on_c, 7, 69, 107
9, 52788, Note_on_c, 7, 69, 0
9, 52800, Note_on_c, 7, 60, 107
9, 52848, Note_on_c, 7, 60, 0
9, 52860, Note_on_c, 7, 69, 107
9, 52908, Note_on_c, 7, 69, 0
9, 52920, Note_on_c, 7, 66, 107
9, 52968, Note_on_c, 7, 66, 0
9, 52980, Note_on_c, 7, 69, 107
9, 53028, Note_on_c, 7, 69, 0
9, 53040, Note_on_c, 7, 60, 107
9, 53088, Note_on_c, 7, 60, 0
9, 53100, Note_on_c, 7, 69, 107
9, 53148, Note_on_c, 7, 69, 0
9, 53160, Note_on_c, 7, 66, 107
9, 53208, Note_on_c, 7, 66, 0
9, 53220, Note_on_c, 7, 69, 107
9, 53268, Note_on_c, 7, 69, 0
9, 53280, Note_on_c, 7, 59, 107
9, 53328, Note_on_c, 7, 59, 0
9, 53340, Note_on_c, 7, 69, 107
9, 53388, Note_on_c, 7, 69, 0
9, 53400, Note_on_c, 7, 62, 107
9, 53448, Note_on_c, 7, 62, 0
9, 53460, Note_on_c, 7, 69, 107
9, 53508, Note_on_c, 7, 69, 0
9, 53520, Note_on_c, 7, 59, 107
9, 53568, Note_on_c, 7, 59, 0
9, 53580, Note_on_c, 7, 69, 107
9, 53628, Note_on_c, 7, 69, 0
9, 53640, Note_on_c, 7, 62, 107
9, 53688, Note_on_c, 7, 62, 0
9, 53700, Note_on_c, 7, 69, 107
9, 53748, Note_on_c, 7, 69, 0
9, 53760, Note_on_c, 7, 59, 107
9, 53808, Note_on_c, 7, 59, 0
9, 53820, Note_on_c, 7, 69, 107
9, 53868, Note_on_c, 7, 69, 0
9, 53880, Note_on_c, 7, 62, 107
9, 53928, Note_on_c, 7, 62, 0
9, 53940, Note_on_c, 7, 69, 107
9, 53988, Note_on_c, 7, 69, 0
9, 54000, Note_on_c, 7, 59, 107
9, 54048, Note_on_c, 7, 59, 0
9, 54060, Note_on_c, 7, 67, 107
9, 54108, Note_on_c, 7, 67, 0
9, 54120, Note_on_c, 7, 62, 107
9, 54168, Note_on_c, 7, 62, 0
9, 54180, Note_on_c, 7, 67, 107
9, 54228, Note_on_c, 7, 67, 0
9, 54240, Note_on_c, 7, 59, 107
9, 54288, Note_on_c, 7, 59, 0
9, 54300, Note_on_c, 7, 67, 107
9, 54348, Note_on_c, 7, 67, 0
9, 54360, Note_on_c, 7, 62, 107
9, 54408, Note_on_c, 7, 62, 0
9, 54420, Note_on_c, 7, 67, 107
9, 54468, Note_on_c, 7, 67, 0
9, 54480, Note_on_c, 7, 59, 107
9, 54528, Note_on_c, 7, 59, 0
9, 54540, Note_on_c, 7, 67, 107
9, 54588, Note_on_c, 7, 67, 0
9, 54600, Note_on_c, 7, 62, 107
9, 54648, Note_on_c, 7, 62, 0
9, 54660, Note_on_c, 7, 67, 107
9, 54708, Note_on_c, 7, 67, 0
9, 54720, Note_on_c, 7, 57, 107
9, 54768, Note_on_c, 7, 57, 0
9, 54780, Note_on_c, 7, 67, 107
9, 54828, Note_on_c, 7, 67, 0
9, 54840, Note_on_c, 7, 60, 107
9, 54888, Note_on_c, 7, 60, 0
9, 54900, Note_on_c, 7, 67, 107
9, 54948, Note_on_c, 7, 67, 0
9, 54960, Note_on_c, 7, 57, 107
9, 55008, Note_on_c, 7, 57, 0
9, 55020, Note_on_c, 7, 67, 107
9, 55068, Note_on_c, 7, 67, 0
9, 55080, Note_on_c, 7, 60, 107
9, 55128, Note_on_c, 7, 60, 0
9, 55140, Note_on_c, 7, 67, 107
9, 55188, Note_on_c, 7, 67, 0
9, 55200, Note_on_c, 7, 57, 107
9, 55248, Note_on_c, 7, 57, 0
9, 55260, Note_on_c, 7, 67, 107
9, 55308, Note_on_c, 7, 67, 0
9, 55320, Note_on_c, 7, 60, 107
9, 55368, Note_on_c, 7, 60, 0
9, 55380, Note_on_c, 7, 67, 107
9, 55428, Note_on_c, 7, 67, 0
9, 55440, Note_on_c, 7, 57, 107
9, 55488, Note_on_c, 7, 57, 0
9, 55500, Note_on_c, 7, 66, 107
9, 55548, Note_on_c, 7, 66, 0
9, 55560, Note_on_c, 7, 60, 107
9, 55608, Note_on_c, 7, 60, 0
9, 55620, Note_on_c, 7, 66, 107
9, 55668, Note_on_c, 7, 66, 0
9, 55680, Note_on_c, 7, 57, 107
9, 55728, Note_on_c, 7, 57, 0
9, 55740, Note_on_c, 7, 66, 107
9, 55788, Note_on_c, 7, 66, 0
9, 55800, Note_on_c, 7, 60, 107
9, 55848, Note_on_c, 7, 60, 0
9, 55860, Note_on_c, 7, 66, 107
9, 55908, Note_on_c, 7, 66, 0
9, 55920, Note_on_c, 7, 57, 107
9, 55968, Note_on_c, 7, 57, 0
9, 55980, Note_on_c, 7, 66, 107
9, 56028, Note_on_c, 7, 66, 0
9, 56040, Note_on_c, 7, 60, 107
9, 56088, Note_on_c, 7, 60, 0
9, 56100, Note_on_c, 7, 66, 107
9, 56148, Note_on_c, 7, 66, 0
9, 56160, Note_on_c, 7, 55, 107
9, 56208, Note_on_c, 7, 55, 0
9, 56220, Note_on_c, 7, 57, 107
9, 56268, Note_on_c, 7, 57, 0
9, 56280, Note_on_c, 7, 55, 107
9, 56328, Note_on_c, 7, 55, 0
9, 56340, Note_on_c, 7, 57, 107
9, 56388, Note_on_c, 7, 57, 0
9, 56400, Note_on_c, 7, 59, 107
9, 56448, Note_on_c, 7, 59, 0
9, 56460, Note_on_c, 7, 62, 107
9, 56508, Note_on_c, 7, 62, 0
9, 56520, Note_on_c, 7, 55, 107
9, 56568, Note_on_c, 7, 55, 0
9, 56580, Note_on_c, 7, 57, 107
9, 56628, Note_on_c, 7, 57, 0
9, 56640, Note_on_c, 7, 59, 107
9, 56688, Note_on_c, 7, 59, 0
9, 56700, Note_on_c, 7, 62, 107
9, 56748, Note_on_c, 7, 62, 0
9, 56760, Note_on_c, 7, 55, 107
9, 56808, Note_on_c, 7, 55, 0
9, 56820, Note_on_c, 7, 57, 107
9, 56868, Note_on_c, 7, 57, 0
9, 56880, Note_on_c, 7, 59, 107
9, 56928, Note_on_c, 7, 59, 0
9, 56940, Note_on_c, 7, 60, 107
9, 56988, Note_on_c, 7, 60, 0
9, 57000, Note_on_c, 7, 59, 107
9, 57048, Note_on_c, 7, 59, 0
9, 57060, Note_on_c, 7, 60, 107
9, 57108, Note_on_c, 7, 60, 0
9, 57120, Note_on_c, 7, 62, 107
9, 57168, Note_on_c, 7, 62, 0
9, 57180, Note_on_c, 7, 67, 107
9, 57228, Note_on_c, 7, 67, 0
9, 57240, Note_on_c, 7, 59, 107
9, 57288, Note_on_c, 7, 59, 0
9, 57300, Note_on_c, 7, 60, 107
9, 57348, Note_on_c, 7, 60, 0
9, 57360, Note_on_c, 7, 62, 107
9, 57408, Note_on_c, 7, 62, 0
9, 57420, Note_on_c, 7, 67, 107
9, 57468, Note_on_c, 7, 67, 0
9, 57480, Note_on_c, 7, 59, 107
9, 57528, Note_on_c, 7, 59, 0
9, 57540, Note_on_c, 7, 60, 107
9, 57588, Note_on_c, 7, 60, 0
9, 57600, Note_on_c, 7, 62, 107
9, 57648, Note_on_c, 7, 62, 0
9, 57660, Note_on_c, 7, 64, 107
9, 57708, Note_on_c, 7, 64, 0
9, 57720, Note_on_c, 7, 62, 107
9, 57768, Note_on_c, 7, 62, 0
9, 57780, Note_on_c, 7, 64, 107
9, 57828, Note_on_c, 7, 64, 0
9, 57840, Note_on_c, 7, 65, 107
9, 57888, Note_on_c, 7, 65, 0
9, 57900, Note_on_c, 7, 71, 107
9, 57948, Note_on_c, 7, 71, 0
9, 57960, Note_on_c, 7, 62, 107
9, 58008, Note_on_c, 7, 62, 0
9, 58020, Note_on_c, 7, 64, 107
9, 58068, Note_on_c, 7, 64, 0
9, 58080, Note_on_c, 7, 65, 107
9, 58128, Note_on_c, 7, 65, 0
9, 58140, Note_on_c, 7, 71, 107
9, 58188, Note_on_c, 7, 71, 0
9, 58200, Note_on_c, 7, 62, 107
9, 58248, Note_on_c, 7, 62, 0
9, 58260, Note_on_c, 7, 64, 107
9, 58308, Note_on_c, 7, 64, 0
9, 58320, Note_on_c, 7, 65, 107
9, 58368, Note_on_c, 7, 65, 0
9, 58380, Note_on_c, 7, 74, 107
9, 58428, Note_on_c, 7, 74, 0
9, 58440, Note_on_c, 7, 71, 107
9, 58488, Note_on_c, 7, 71, 0
9, 58500, Note_on_c, 7, 72, 107
9, 58548, Note_on_c, 7, 72, 0
9, 58560, Note_on_c, 7, 74, 107
9, 58608, Note_on_c, 7, 74, 0
9, 58620, Note_on_c, 7, 71, 107
9, 58668, Note_on_c, 7, 71, 0
9, 58680, Note_on_c, 7, 68, 107
9, 58728, Note_on_c, 7, 68, 0
9, 58740, Note_on_c, 7, 69, 107
9, 58788, Note_on_c, 7, 69, 0
9, 58800, Note_on_c, 7, 71, 107
9, 58848, Note_on_c, 7, 71, 0
9, 58860, Note_on_c, 7, 68, 107
9, 58908, Note_on_c, 7, 68, 0
9, 58920, Note_on_c, 7, 64, 107
9, 58968, Note_on_c, 7, 64, 0
9, 58980, Note_on_c, 7, 62, 107
9, 59028, Note_on_c, 7, 62, 0
9, 59040, Note_on_c, 7, 60, 107
9, 59088, Note_on_c, 7, 60, 0
9, 59100, Note_on_c, 7, 59, 107
9, 59148, Note_on_c, 7, 59, 0
9, 59160, Note_on_c, 7, 57, 107
9, 59208, Note_on_c, 7, 57, 0
9, 59220, Note_on_c, 7, 59, 107
9, 59268, Note_on_c, 7, 59, 0
9, 59280, Note_on_c, 7, 60, 107
9, 59328, Note_on_c, 7, 60, 0
9, 59340, Note_on_c, 7, 64, 107
9, 59388, Note_on_c, 7, 64, 0
9, 59400, Note_on_c, 7, 57, 107
9, 59448, Note_on_c, 7, 57, 0
9, 59460, Note_on_c, 7, 59, 107
9, 59508, Note_on_c, 7, 59, 0
9, 59520, Note_on_c, 7, 60, 107
9, 59568, Note_on_c, 7, 60, 0
9, 59580, Note_on_c, 7, 64, 107
9, 59628, Note_on_c, 7, 64, 0
9, 59640, Note_on_c, 7, 57, 107
9, 59688, Note_on_c, 7, 57, 0
9, 59700, Note_on_c, 7, 59, 107
9, 59748, Note_on_c, 7, 59, 0
9, 59760, Note_on_c, 7, 60, 107
9, 59808, Note_on_c, 7, 60, 0
9, 59820, Note_on_c, 7, 62, 107
9, 59868, Note_on_c, 7, 62, 0
9, 59880, Note_on_c, 7, 60, 107
9, 59928, Note_on_c, 7, 60, 0
9, 59940, Note_on_c, 7, 62, 107
9, 59988, Note_on_c, 7, 62, 0
9, 60000, Note_on_c, 7, 64, 107
9, 60048, Note_on_c, 7, 64, 0
9, 60060, Note_on_c, 7, 69, 107
9, 60108, Note_on_c, 7, 69, 0
9, 60120, Note_on_c, 7, 60, 107
9, 60168, Note_on_c, 7, 60, 0
9, 60180, Note_on_c, 7, 62, 107
9, 60228, Note_on_c, 7, 62, 0
9, 60240, Note_on_c, 7, 64, 107
9, 60288, Note_on_c, 7, 64, 0
9, 60300, Note_on_c, 7, 69, 107
9, 60348, Note_on_c, 7, 69, 0
9, 60360, Note_on_c, 7, 60, 107
9, 60408, Note_on_c, 7, 60, 0
9, 60420, Note_on_c, 7, 62, 107
9, 60468, Note_on_c, 7, 62, 0
9, 60480, Note_on_c, 7, 64, 107
9, 60528, Note_on_c, 7, 64, 0
9, 60540, Note_on_c, 7, 66, 107
9, 60588, Note_on_c, 7, 66, 0
9, 60600, Note_on_c, 7, 64, 107
9, 60648, Note_on_c, 7, 64, 0
9, 60660, Note_on_c, 7, 66, 107
9, 60708, Note_on_c, 7, 66, 0
9, 60720, Note_on_c, 7, 67, 107
9, 60768, Note_on_c, 7, 67, 0
9, 60780, Note_on_c, 7, 73, 107
9, 60828, Note_on_c, 7, 73, 0
9, 60840, Note_on_c, 7, 64, 107
9, 60888, Note_on_c, 7, 64, 0
9, 60900, Note_on_c, 7, 66, 107
9, 60948, Note_on_c, 7, 66, 0
9, 60960, Note_on_c, 7, 67, 107
9, 61008, Note_on_c, 7, 67, 0
9, 61020, Note_on_c, 7, 73, 107
9, 61068, Note_on_c, 7, 73, 0
9, 61080, Note_on_c, 7, 64, 107
9, 61128, Note_on_c, 7, 64, 0
9, 61140, Note_on_c, 7, 66, 107
9, 61188, Note_on_c, 7, 66, 0
9, 61200, Note_on_c, 7, 67, 107
9, 61248, Note_on_c, 7, 67, 0
9, 61260, Note_on_c, 7, 76, 107
9, 61308, Note_on_c, 7, 76, 0
9, 61320, Note_on_c, 7, 73, 107
9, 61368, Note_on_c, 7, 73, 0
9, 61380, Note_on_c, 7, 74, 107
9, 61428, Note_on_c, 7, 74, 0
9, 61440, Note_on_c, 7, 76, 107
9, 61488, Note_on_c, 7, 76, 0
9, 61500, Note_on_c, 7, 73, 107
9, 61548, Note_on_c, 7, 73, 0
9, 61560, Note_on_c, 7, 70, 107
9, 61608, Note_on_c, 7, 70, 0
9, 61620, Note_on_c, 7, 71, 107
9, 61668, Note_on_c, 7, 71, 0
9, 61680, Note_on_c, 7, 73, 107
9, 61728, Note_on_c, 7, 73, 0
9, 61740, Note_on_c, 7, 70, 107
9, 61788, Note_on_c, 7, 70, 0
9, 61800, Note_on_c, 7, 66, 107
9, 61848, Note_on_c, 7, 66, 0
9, 61860, Note_on_c, 7, 64, 107
9, 61908, Note_on_c, 7, 64, 0
9, 61920, Note_on_c, 7, 63, 107
9, 61968, Note_on_c, 7, 63, 0
9, 61980, Note_on_c, 7, 81, 107
9, 62028, Note_on_c, 7, 81, 0
9, 62040, Note_on_c, 7, 78, 107
9, 62088, Note_on_c, 7, 78, 0
9, 62100, Note_on_c, 7, 79, 107
9, 62148, Note_on_c, 7, 79, 0
9, 62160, Note_on_c, 7, 81, 107
9, 62208, Note_on_c, 7, 81, 0
9, 62220, Note_on_c, 7, 78, 107
9, 62268, Note_on_c, 7, 78, 0
9, 62280, Note_on_c, 7, 75, 107
9, 62328, Note_on_c, 7, 75, 0
9, 62340, Note_on_c, 7, 76, 107
9, 62388, Note_on_c, 7, 76, 0
9, 62400, Note_on_c, 7, 78, 107
9, 62448, Note_on_c, 7, 78, 0
9, 62460, Note_on_c, 7, 75, 107
9, 62508, Note_on_c, 7, 75, 0
9, 62520, Note_on_c, 7, 71, 107
9, 62568, Note_on_c, 7, 71, 0
9, 62580, Note_on_c, 7, 69, 107
9, 62628, Note_on_c, 7, 69, 0
9, 62640, Note_on_c, 7, 67, 107
9, 62688, Note_on_c, 7, 67, 0
9, 62700, Note_on_c, 7, 83, 107
9, 62748, Note_on_c, 7, 83, 0
9, 62760, Note_on_c, 7, 79, 107
9, 62808, Note_on_c, 7, 79, 0
9, 62820, Note_on_c, 7, 81, 107
9, 62868, Note_on_c, 7, 81, 0
9, 62880, Note_on_c, 7, 83, 107
9, 62928, Note_on_c, 7, 83, 0
9, 62940, Note_on_c, 7, 79, 107
9, 62988, Note_on_c, 7, 79, 0
9, 63000, Note_on_c, 7, 76, 107
9, 63048, Note_on_c, 7, 76, 0
9, 63060, Note_on_c, 7, 78, 107
9, 63108, Note_on_c, 7, 78, 0
9, 63120, Note_on_c, 7, 79, 107
9, 63168, Note_on_c, 7, 79, 0
9, 63180, Note_on_c, 7, 76, 107
9, 63228, Note_on_c, 7, 76, 0
9, 63240, Note_on_c, 7, 72, 107
9, 63288, Note_on_c, 7, 72, 0
9, 63300, Note_on_c, 7, 71, 107
9, 63348, Note_on_c, 7, 71, 0
9, 63360, Note_on_c, 7, 69, 107
9, 63408, Note_on_c, 7, 69, 0
9, 63420, Note_on_c, 7, 84, 107
9, 63468, Note_on_c, 7, 84, 0
9, 63480, Note_on_c, 7, 81, 107
9, 63528, Note_on_c, 7, 81, 0
9, 63540, Note_on_c, 7, 83, 107
9, 63588, Note_on_c, 7, 83, 0
9, 63600, Note_on_c, 7, 84, 107
9, 63648, Note_on_c, 7, 84, 0
9, 63660, Note_on_c, 7, 81, 107
9, 63708, Note_on_c, 7, 81, 0
9, 63720, Note_on_c, 7, 78, 107
9, 63768, Note_on_c, 7, 78, 0
9, 63780, Note_on_c, 7, 79, 107
9, 63828, Note_on_c, 7, 79, 0
9, 63840, Note_on_c, 7, 81, 107
9, 63888, Note_on_c, 7, 81, 0
9, 63900, Note_on_c, 7, 78, 107
9, 63948, Note_on_c, 7, 78, 0
9, 63960, Note_on_c, 7, 75, 107
9, 64008, Note_on_c, 7, 75, 0
9, 64020, Note_on_c, 7, 78, 107
9, 64068, Note_on_c, 7, 78, 0
9, 64080, Note_on_c, 7, 71, 107
9, 64128, Note_on_c, 7, 71, 0
9, 64140, Note_on_c, 7, 73, 107
9, 64188, Note_on_c, 7, 73, 0
9, 64200, Note_on_c, 7, 71, 107
9, 64248, Note_on_c, 7, 71, 0
9, 64260, Note_on_c, 7, 73, 107
9, 64308, Note_on_c, 7, 73, 0
9, 64320, Note_on_c, 7, 75, 107
9, 64368, Note_on_c, 7, 75, 0
9, 64380, Note_on_c, 7, 78, 107
9, 64428, Note_on_c, 7, 78, 0
9, 64440, Note_on_c, 7, 71, 107
9, 64488, Note_on_c, 7, 71, 0
9, 64500, Note_on_c, 7, 73, 107
9, 64548, Note_on_c, 7, 73, 0
9, 64560, Note_on_c, 7, 75, 107
9, 64608, Note_on_c, 7, 75, 0
9, 64620, Note_on_c, 7, 78, 107
9, 64668, Note_on_c, 7, 78, 0
9, 64680, Note_on_c, 7, 71, 107
9, 64728, Note_on_c, 7, 71, 0
9, 64740, Note_on_c, 7, 73, 107
9, 64788, Note_on_c, 7, 73, 0
9, 64800, Note_on_c, 7, 75, 107
9, 64848, Note_on_c, 7, 75, 0
9, 64860, Note_on_c, 7, 76, 107
9, 64908, Note_on_c, 7, 76, 0
9, 64920, Note_on_c, 7, 75, 107
9, 64968, Note_on_c, 7, 75, 0
9, 64980, Note_on_c, 7, 76, 107
9, 65028, Note_on_c, 7, 76, 0
9, 65040, Note_on_c, 7, 78, 107
9, 65088, Note_on_c, 7, 78, 0
9, 65100, Note_on_c, 7, 81, 107
9, 65148, Note_on_c, 7, 81, 0
9, 65160, Note_on_c, 7, 75, 107
9, 65208, Note_on_c, 7, 75, 0
9, 65220, Note_on_c, 7, 76, 107
9, 65268, Note_on_c, 7, 76, 0
9, 65280, Note_on_c, 7, 78, 107
9, 65328, Note_on_c, 7, 78, 0
9, 65340, Note_on_c, 7, 81, 107
9, 65388, Note_on_c, 7, 81, 0
9, 65400, Note_on_c, 7, 75, 107
9, 65448, Note_on_c, 7, 75, 0
9, 65460, Note_on_c, 7, 76, 107
9, 65508, Note_on_c, 7, 76, 0
9, 65520, Note_on_c, 7, 78, 107
9, 65568, Note_on_c, 7, 78, 0
9, 65580, Note_on_c, 7, 79, 107
9, 65628, Note_on_c, 7, 79, 0
9, 65640, Note_on_c, 7, 78, 107
9, 65688, Note_on_c, 7, 78, 0
9, 65700, Note_on_c, 7, 79, 107
9, 65748, Note_on_c, 7, 79, 0
9, 65760, Note_on_c, 7, 81, 107
9, 65808, Note_on_c, 7, 81, 0
9, 65820, Note_on_c, 7, 84, 107
9, 65868, Note_on_c, 7, 84, 0
9, 65880, Note_on_c, 7, 78, 107
9, 65928, Note_on_c, 7, 78, 0
9, 65940, Note_on_c, 7, 79, 107
9, 65988, Note_on_c, 7, 79, 0
9, 66000, Note_on_c, 7, 81, 107
9, 66048, Note_on_c, 7, 81, 0
9, 66060, Note_on_c, 7, 84, 107
9, 66108, Note_on_c, 7, 84, 0
9, 66120, Note_on_c, 7, 78, 107
9, 66168, Note_on_c, 7, 78, 0
9, 66180, Note_on_c, 7, 79, 107
9, 66228, Note_on_c, 7, 79, 0
9, 66240, Note_on_c, 7, 81, 107
9, 66288, Note_on_c, 7, 81, 0
9, 66300, Note_on_c, 7, 84, 107
9, 66348, Note_on_c, 7, 84, 0
9, 66360, Note_on_c, 7, 81, 107
9, 66408, Note_on_c, 7, 81, 0
9, 66420, Note_on_c, 7, 78, 107
9, 66468, Note_on_c, 7, 78, 0
9, 66480, Note_on_c, 7, 75, 107
9, 66528, Note_on_c, 7, 75, 0
9, 66540, Note_on_c, 7, 81, 107
9, 66588, Note_on_c, 7, 81, 0
9, 66600, Note_on_c, 7, 78, 107
9, 66648, Note_on_c, 7, 78, 0
9, 66660, Note_on_c, 7, 75, 107
9, 66708, Note_on_c, 7, 75, 0
9, 66720, Note_on_c, 7, 71, 107
9, 66768, Note_on_c, 7, 71, 0
9, 66780, Note_on_c, 7, 81, 107
9, 66828, Note_on_c, 7, 81, 0
9, 66840, Note_on_c, 7, 79, 107
9, 66888, Note_on_c, 7, 79, 0
9, 66900, Note_on_c, 7, 78, 107
9, 66948, Note_on_c, 7, 78, 0
9, 66960, Note_on_c, 7, 76, 107
9, 67008, Note_on_c, 7, 76, 0
9, 67020, Note_on_c, 7, 78, 107
9, 67068, Note_on_c, 7, 78, 0
9, 67080, Note_on_c, 7, 79, 107
9, 67128, Note_on_c, 7, 79, 0
9, 67140, Note_on_c, 7, 76, 107
9, 67188, Note_on_c, 7, 76, 0
9, 67200, Note_on_c, 7, 69, 107
9, 67248, Note_on_c, 7, 69, 0
9, 67260, Note_on_c, 7, 79, 107
9, 67308, Note_on_c, 7, 79, 0
9, 67320, Note_on_c, 7, 78, 107
9, 67368, Note_on_c, 7, 78, 0
9, 67380, Note_on_c, 7, 76, 107
9, 67428, Note_on_c, 7, 76, 0
9, 67440, Note_on_c, 7, 71, 107
9, 67488, Note_on_c, 7, 71, 0
9, 67500, Note_on_c, 7, 78, 107
9, 67548, Note_on_c, 7, 78, 0
9, 67560, Note_on_c, 7, 76, 107
9, 67608, Note_on_c, 7, 76, 0
9, 67620, Note_on_c, 7, 75, 107
9, 67668, Note_on_c, 7, 75, 0
9, 67680, Note_on_c, 7, 72, 107
9, 67728, Note_on_c, 7, 72, 0
9, 67740, Note_on_c, 7, 74, 107
9, 67788, Note_on_c, 7, 74, 0
9, 67800, Note_on_c, 7, 76, 107
9, 67848, Note_on_c, 7, 76, 0
9, 67860, Note_on_c, 7, 72, 107
9, 67908, Note_on_c, 7, 72, 0
9, 67920, Note_on_c, 7, 66, 107
9, 67968, Note_on_c, 7, 66, 0
9, 67980, Note_on_c, 7, 76, 107
9, 68028, Note_on_c, 7, 76, 0
9, 68040, Note_on_c, 7, 74, 107
9, 68088, Note_on_c, 7, 74, 0
9, 68100, Note_on_c, 7, 72, 107
9, 68148, Note_on_c, 7, 72, 0
9, 68160, Note_on_c, 7, 68, 107
9, 68208, Note_on_c, 7, 68, 0
9, 68220, Note_on_c, 7, 74, 107
9, 68268, Note_on_c, 7, 74, 0
9, 68280, Note_on_c, 7, 72, 107
9, 68328, Note_on_c, 7, 72, 0
9, 68340, Note_on_c, 7, 71, 107
9, 68388, Note_on_c, 7, 71, 0
9, 68400, Note_on_c, 7, 69, 107
9, 68448, Note_on_c, 7, 69, 0
9, 68460, Note_on_c, 7, 71, 107
9, 68508, Note_on_c, 7, 71, 0
9, 68520, Note_on_c, 7, 72, 107
9, 68568, Note_on_c, 7, 72, 0
9, 68580, Note_on_c, 7, 69, 107
9, 68628, Note_on_c, 7, 69, 0
9, 68640, Note_on_c, 7, 63, 107
9, 68688, Note_on_c, 7, 63, 0
9, 68700, Note_on_c, 7, 72, 107
9, 68748, Note_on_c, 7, 72, 0
9, 68760, Note_on_c, 7, 71, 107
9, 68808, Note_on_c, 7, 71, 0
9, 68820, Note_on_c, 7, 69, 107
9, 68868, Note_on_c, 7, 69, 0
9, 68880, Note_on_c, 7, 64, 107
9, 68928, Note_on_c, 7, 64, 0
9, 68940, Note_on_c, 7, 71, 107
9, 68988, Note_on_c, 7, 71, 0
9, 69000, Note_on_c, 7, 69, 107
9, 69048, Note_on_c, 7, 69, 0
9, 69060, Note_on_c, 7, 67, 107
9, 69108, Note_on_c, 7, 67, 0
9, 69120, Note_on_c, 7, 66, 107
9, 69168, Note_on_c, 7, 66, 0
9, 69180, Note_on_c, 7, 67, 107
9, 69228, Note_on_c, 7, 67, 0
9, 69240, Note_on_c, 7, 69, 107
9, 69288, Note_on_c, 7, 69, 0
9, 69300, Note_on_c, 7, 67, 107
9, 69348, Note_on_c, 7, 67, 0
9, 69360, Note_on_c, 7, 66, 107
9, 69408, Note_on_c, 7, 66, 0
9, 69420, Note_on_c, 7, 69, 107
9, 69468, Note_on_c, 7, 69, 0
9, 69480, Note_on_c, 7, 67, 107
9, 69528, Note_on_c, 7, 67, 0
9, 69540, Note_on_c, 7, 69, 107
9, 69588, Note_on_c, 7, 69, 0
9, 69600, Note_on_c, 7, 66, 107
9, 69648, Note_on_c, 7, 66, 0
9, 69660, Note_on_c, 7, 69, 107
9, 69708, Note_on_c, 7, 69, 0
9, 69720, Note_on_c, 7, 64, 107
9, 69768, Note_on_c, 7, 64, 0
9, 69780, Note_on_c, 7, 69, 107
9, 69828, Note_on_c, 7, 69, 0
9, 69840, Note_on_c, 7, 63, 107
9, 69888, Note_on_c, 7, 63, 0
9, 69900, Note_on_c, 7, 64, 107
9, 69948, Note_on_c, 7, 64, 0
9, 69960, Note_on_c, 7, 66, 107
9, 70008, Note_on_c, 7, 66, 0
9, 70020, Note_on_c, 7, 67, 107
9, 70068, Note_on_c, 7, 67, 0
9, 70080, Note_on_c, 7, 69, 107
9, 70128, Note_on_c, 7, 69, 0
9, 70140, Note_on_c, 7, 63, 107
9, 70188, Note_on_c, 7, 63, 0
9, 70200, Note_on_c, 7, 72, 107
9, 70248, Note_on_c, 7, 72, 0
9, 70260, Note_on_c, 7, 63, 107
9, 70308, Note_on_c, 7, 63, 0
9, 70320, Note_on_c, 7, 71, 107
9, 70368, Note_on_c, 7, 71, 0
9, 70380, Note_on_c, 7, 63, 107
9, 70428, Note_on_c, 7, 63, 0
9, 70440, Note_on_c, 7, 69, 107
9, 70488, Note_on_c, 7, 69, 0
9, 70500, Note_on_c, 7, 63, 107
9, 70548, Note_on_c, 7, 63, 0
9, 70560, Note_on_c, 7, 64, 107
9, 70608, Note_on_c, 7, 64, 0
9, 70620, Note_on_c, 7, 67, 107
9, 70668, Note_on_c, 7, 67, 0
9, 70680, Note_on_c, 7, 64, 107
9, 70728, Note_on_c, 7, 64, 0
9, 70740, Note_on_c, 7, 59, 107
9, 70788, Note_on_c, 7, 59, 0
9, 70800, Note_on_c, 7, 55, 107
9, 70848, Note_on_c, 7, 55, 0
9, 70860, Note_on_c, 7, 59, 107
9, 70908, Note_on_c, 7, 59, 0
9, 70920, Note_on_c, 7, 64, 107
9, 70968, Note_on_c, 7, 64, 0
9, 70980, Note_on_c, 7, 59, 107
9, 71028, Note_on_c, 7, 59, 0
9, 71040, Note_on_c, 7, 67, 107
9, 71088, Note_on_c, 7, 67, 0
9, 71100, Note_on_c, 7, 59, 107
9, 71148, Note_on_c, 7, 59, 0
9, 71160, Note_on_c, 7, 64, 107
9, 71208, Note_on_c, 7, 64, 0
9, 71220, Note_on_c, 7, 59, 107
9, 71268, Note_on_c, 7, 59, 0
9, 71280, Note_on_c, 7, 63, 107
9, 71328, Note_on_c, 7, 63, 0
9, 71340, Note_on_c, 7, 66, 107
9, 71388, Note_on_c, 7, 66, 0
9, 71400, Note_on_c, 7, 63, 107
9, 71448, Note_on_c, 7, 63, 0
9, 71460, Note_on_c, 7, 59, 107
9, 71508, Note_on_c, 7, 59, 0
9, 71520, Note_on_c, 7, 63, 107
9, 71568, Note_on_c, 7, 63, 0
9, 71580, Note_on_c, 7, 66, 107
9, 71628, Note_on_c, 7, 66, 0
9, 71640, Note_on_c, 7, 71, 107
9, 71688, Note_on_c, 7, 71, 0
9, 71700, Note_on_c, 7, 66, 107
9, 71748, Note_on_c, 7, 66, 0
9, 71760, Note_on_c, 7, 75, 107
9, 71808, Note_on_c, 7, 75, 0
9, 71820, Note_on_c, 7, 71, 107
9, 71868, Note_on_c, 7, 71, 0
9, 71880, Note_on_c, 7, 78, 107
9, 71928, Note_on_c, 7, 78, 0
9, 71940, Note_on_c, 7, 69, 107
9, 71988, Note_on_c, 7, 69, 0
9, 72000, Note_on_c, 7, 67, 107
9, 72048, Note_on_c, 7, 67, 0
9, 72060, Note_on_c, 7, 71, 107
9, 72108, Note_on_c, 7, 71, 0
9, 72120, Note_on_c, 7, 67, 107
9, 72168, Note_on_c, 7, 67, 0
9, 72180, Note_on_c, 7, 64, 107
9, 72228, Note_on_c, 7, 64, 0
9, 72240, Note_on_c, 7, 67, 107
9, 72288, Note_on_c, 7, 67, 0
9, 72300, Note_on_c, 7, 71, 107
9, 72348, Note_on_c, 7, 71, 0
9, 72360, Note_on_c, 7, 76, 107
9, 72408, Note_on_c, 7, 76, 0
9, 72420, Note_on_c, 7, 71, 107
9, 72468, Note_on_c, 7, 71, 0
9, 72480, Note_on_c, 7, 79, 107
9, 72528, Note_on_c, 7, 79, 0
9, 72540, Note_on_c, 7, 76, 107
9, 72588, Note_on_c, 7, 76, 0
9, 72600, Note_on_c, 7, 83, 107
9, 72648, Note_on_c, 7, 83, 0
9, 72660, Note_on_c, 7, 79, 107
9, 72708, Note_on_c, 7, 79, 0
9, 72720, Note_on_c, 7, 75, 107
9, 72768, Note_on_c, 7, 75, 0
9, 72780, Note_on_c, 7, 78, 107
9, 72828, Note_on_c, 7, 78, 0
9, 72840, Note_on_c, 7, 75, 107
9, 72888, Note_on_c, 7, 75, 0
9, 72900, Note_on_c, 7, 71, 107
9, 72948, Note_on_c, 7, 71, 0
9, 72960, Note_on_c, 7, 83, 107
9, 73008, Note_on_c, 7, 83, 0
9, 73020, Note_on_c, 7, 82, 107
9, 73068, Note_on_c, 7, 82, 0
9, 73080, Note_on_c, 7, 83, 107
9, 73128, Note_on_c, 7, 83, 0
9, 73140, Note_on_c, 7, 82, 107
9, 73188, Note_on_c, 7, 82, 0
9, 73200, Note_on_c, 7, 83, 107
9, 73248, Note_on_c, 7, 83, 0
9, 73260, Note_on_c, 7, 78, 107
9, 73308, Note_on_c, 7, 78, 0
9, 73320, Note_on_c, 7, 79, 107
9, 73368, Note_on_c, 7, 79, 0
9, 73380, Note_on_c, 7, 76, 107
9, 73428, Note_on_c, 7, 76, 0
9, 73440, Note_on_c, 7, 75, 107
9, 73488, Note_on_c, 7, 75, 0
9, 73500, Note_on_c, 7, 78, 107
9, 73548, Note_on_c, 7, 78, 0
9, 73560, Note_on_c, 7, 75, 107
9, 73608, Note_on_c, 7, 75, 0
9, 73620, Note_on_c, 7, 71, 107
9, 73668, Note_on_c, 7, 71, 0
9, 73680, Note_on_c, 7, 81, 107
9, 73728, Note_on_c, 7, 81, 0
9, 73740, Note_on_c, 7, 80, 107
9, 73788, Note_on_c, 7, 80, 0
9, 73800, Note_on_c, 7, 81, 107
9, 73848, Note_on_c, 7, 81, 0
9, 73860, Note_on_c, 7, 80, 107
9, 73908, Note_on_c, 7, 80, 0
9, 73920, Note_on_c, 7, 81, 107
9, 73968, Note_on_c, 7, 81, 0
9, 73980, Note_on_c, 7, 78, 107
9, 74028, Note_on_c, 7, 78, 0
9, 74040, Note_on_c, 7, 79, 107
9, 74088, Note_on_c, 7, 79, 0
9, 74100, Note_on_c, 7, 76, 107
9, 74148, Note_on_c, 7, 76, 0
9, 74160, Note_on_c, 7, 75, 107
9, 74208, Note_on_c, 7, 75, 0
9, 74220, Note_on_c, 7, 78, 107
9, 74268, Note_on_c, 7, 78, 0
9, 74280, Note_on_c, 7, 75, 107
9, 74328, Note_on_c, 7, 75, 0
9, 74340, Note_on_c, 7, 71, 107
9, 74388, Note_on_c, 7, 71, 0
9, 74400, Note_on_c, 7, 72, 107
9, 74448, Note_on_c, 7, 72, 0
9, 74460, Note_on_c, 7, 71, 107
9, 74508, Note_on_c, 7, 71, 0
9, 74520, Note_on_c, 7, 72, 107
9, 74568, Note_on_c, 7, 72, 0
9, 74580, Note_on_c, 7, 71, 107
9, 74628, Note_on_c, 7, 71, 0
9, 74640, Note_on_c, 7, 72, 107
9, 74688, Note_on_c, 7, 72, 0
9, 74700, Note_on_c, 7, 66, 107
9, 74748, Note_on_c, 7, 66, 0
9, 74760, Note_on_c, 7, 67, 107
9, 74808, Note_on_c, 7, 67, 0
9, 74820, Note_on_c, 7, 64, 107
9, 74868, Note_on_c, 7, 64, 0
9, 74880, Note_on_c, 7, 63, 107
9, 74928, Note_on_c, 7, 63, 0
9, 74940, Note_on_c, 7, 66, 107
9, 74988, Note_on_c, 7, 66, 0
9, 75000, Note_on_c, 7, 71, 107
9, 75048, Note_on_c, 7, 71, 0
9, 75060, Note_on_c, 7, 81, 107
9, 75108, Note_on_c, 7, 81, 0
9, 75120, Note_on_c, 7, 81, 107
9, 75168, Note_on_c, 7, 81, 0
9, 75180, Note_on_c, 7, 78, 107
9, 75228, Note_on_c, 7, 78, 0
9, 75240, Note_on_c, 7, 79, 107
9, 75288, Note_on_c, 7, 79, 0
9, 75300, Note_on_c, 7, 76, 107
9, 75348, Note_on_c, 7, 76, 0
9, 75360, Note_on_c, 7, 75, 107
9, 75408, Note_on_c, 7, 75, 0
9, 75420, Note_on_c, 7, 78, 107
9, 75468, Note_on_c, 7, 78, 0
9, 75480, Note_on_c, 7, 71, 107
9, 75528, Note_on_c, 7, 71, 0
9, 75540, Note_on_c, 7, 69, 107
9, 75588, Note_on_c, 7, 69, 0
9, 75600, Note_on_c, 7, 67, 107
9, 75648, Note_on_c, 7, 67, 0
9, 75660, Note_on_c, 7, 71, 107
9, 75708, Note_on_c, 7, 71, 0
9, 75720, Note_on_c, 7, 76, 107
9, 75768, Note_on_c, 7, 76, 0
9, 75780, Note_on_c, 7, 83, 107
9, 75828, Note_on_c, 7, 83, 0
9, 75840, Note_on_c, 7, 83, 107
9, 75888, Note_on_c, 7, 83, 0
9, 75900, Note_on_c, 7, 79, 107
9, 75948, Note_on_c, 7, 79, 0
9, 75960, Note_on_c, 7, 81, 107
9, 76008, Note_on_c, 7, 81, 0
9, 76020, Note_on_c, 7, 78, 107
9, 76068, Note_on_c, 7, 78, 0
9, 76080, Note_on_c, 7, 76, 107
9, 76128, Note_on_c, 7, 76, 0
9, 76140, Note_on_c, 7, 79, 107
9, 76188, Note_on_c, 7, 79, 0
9, 76200, Note_on_c, 7, 72, 107
9, 76248, Note_on_c, 7, 72, 0
9, 76260, Note_on_c, 7, 71, 107
9, 76308, Note_on_c, 7, 71, 0
9, 76320, Note_on_c, 7, 69, 107
9, 76368, Note_on_c, 7, 69, 0
9, 76380, Note_on_c, 7, 72, 107
9, 76428, Note_on_c, 7, 72, 0
9, 76440, Note_on_c, 7, 65, 107
9, 76488, Note_on_c, 7, 65, 0
9, 76500, Note_on_c, 7, 64, 107
9, 76548, Note_on_c, 7, 64, 0
9, 76560, Note_on_c, 7, 63, 107
9, 76608, Note_on_c, 7, 63, 0
9, 76620, Note_on_c, 7, 66, 107
9, 76668, Note_on_c, 7, 66, 0
9, 76680, Note_on_c, 7, 59, 107
9, 76728, Note_on_c, 7, 59, 0
9, 76740, Note_on_c, 7, 57, 107
9, 76788, Note_on_c, 7, 57, 0
9, 76800, Note_on_c, 7, 55, 107
9, 76848, Note_on_c, 7, 55, 0
9, 76860, Note_on_c, 7, 59, 107
9, 76908, Note_on_c, 7, 59, 0
9, 76920, Note_on_c, 7, 64, 107
9, 76968, Note_on_c, 7, 64, 0
9, 76980, Note_on_c, 7, 66, 107
9, 77028, Note_on_c, 7, 66, 0
9, 77040, Note_on_c, 7, 67, 107
9, 77088, Note_on_c, 7, 67, 0
9, 77100, Note_on_c, 7, 64, 107
9, 77148, Note_on_c, 7, 64, 0
9, 77160, Note_on_c, 7, 69, 107
9, 77208, Note_on_c, 7, 69, 0
9, 77220, Note_on_c, 7, 64, 107
9, 77268, Note_on_c, 7, 64, 0
9, 77280, Note_on_c, 7, 71, 107
9, 77328, Note_on_c, 7, 71, 0
9, 77340, Note_on_c, 7, 64, 107
9, 77388, Note_on_c, 7, 64, 0
9, 77400, Note_on_c, 7, 72, 107
9, 77448, Note_on_c, 7, 72, 0
9, 77460, Note_on_c, 7, 64, 107
9, 77508, Note_on_c, 7, 64, 0
9, 77520, Note_on_c, 7, 59, 107
9, 77568, Note_on_c, 7, 59, 0
9, 77580, Note_on_c, 7, 64, 107
9, 77628, Note_on_c, 7, 64, 0
9, 77640, Note_on_c, 7, 66, 107
9, 77688, Note_on_c, 7, 66, 0
9, 77700, Note_on_c, 7, 63, 107
9, 77748, Note_on_c, 7, 63, 0
9, 77760, Note_on_c, 7, 64, 107
9, 77808, Note_on_c, 7, 64, 0
9, 77820, Note_on_c, 7, 67, 107
9, 77868, Note_on_c, 7, 67, 0
9, 77880, Note_on_c, 7, 66, 107
9, 77928, Note_on_c, 7, 66, 0
9, 77940, Note_on_c, 7, 67, 107
9, 77988, Note_on_c, 7, 67, 0
9, 78000, Note_on_c, 7, 64, 107
9, 78048, Note_on_c, 7, 64, 0
9, 78060, Note_on_c, 7, 67, 107
9, 78108, Note_on_c, 7, 67, 0
9, 78120, Note_on_c, 7, 62, 107
9, 78168, Note_on_c, 7, 62, 0
9, 78180, Note_on_c, 7, 67, 107
9, 78228, Note_on_c, 7, 67, 0
9, 78240, Note_on_c, 7, 61, 107
9, 78288, Note_on_c, 7, 61, 0
9, 78300, Note_on_c, 7, 67, 107
9, 78348, Note_on_c, 7, 67, 0
9, 78360, Note_on_c, 7, 59, 107
9, 78408, Note_on_c, 7, 59, 0
9, 78420, Note_on_c, 7, 67, 107
9, 78468, Note_on_c, 7, 67, 0
9, 78480, Note_on_c, 7, 61, 107
9, 78528, Note_on_c, 7, 61, 0
9, 78540, Note_on_c, 7, 67, 107
9, 78588, Note_on_c, 7, 67, 0
9, 78600, Note_on_c, 7, 62, 107
9, 78648, Note_on_c, 7, 62, 0
9, 78660, Note_on_c, 7, 67, 107
9, 78708, Note_on_c, 7, 67, 0
9, 78720, Note_on_c, 7, 64, 107
9, 78768, Note_on_c, 7, 64, 0
9, 78780, Note_on_c, 7, 67, 107
9, 78828, Note_on_c, 7, 67, 0
9, 78840, Note_on_c, 7, 66, 107
9, 78888, Note_on_c, 7, 66, 0
9, 78900, Note_on_c, 7, 69, 107
9, 78948, Note_on_c, 7, 69, 0
9, 78960, Note_on_c, 7, 67, 107
9, 79008, Note_on_c, 7, 67, 0
9, 79020, Note_on_c, 7, 66, 107
9, 79068, Note_on_c, 7, 66, 0
9, 79080, Note_on_c, 7, 64, 107
9, 79128, Note_on_c, 7, 64, 0
9, 79140, Note_on_c, 7, 67, 107
9, 79188, Note_on_c, 7, 67, 0
9, 79200, Note_on_c, 7, 66, 107
9, 79248, Note_on_c, 7, 66, 0
9, 79260, Note_on_c, 7, 67, 107
9, 79308, Note_on_c, 7, 67, 0
9, 79320, Note_on_c, 7, 66, 107
9, 79368, Note_on_c, 7, 66, 0
9, 79380, Note_on_c, 7, 64, 107
9, 79428, Note_on_c, 7, 64, 0
9, 79440, Note_on_c, 7, 62, 107
9, 79488, Note_on_c, 7, 62, 0
9, 79500, Note_on_c, 7, 74, 107
9, 79548, Note_on_c, 7, 74, 0
9, 79560, Note_on_c, 7, 73, 107
9, 79608, Note_on_c, 7, 73, 0
9, 79620, Note_on_c, 7, 74, 107
9, 79668, Note_on_c, 7, 74, 0
9, 79680, Note_on_c, 7, 71, 107
9, 79728, Note_on_c, 7, 71, 0
9, 79740, Note_on_c, 7, 74, 107
9, 79788, Note_on_c, 7, 74, 0
9, 79800, Note_on_c, 7, 69, 107
9, 79848, Note_on_c, 7, 69, 0
9, 79860, Note_on_c, 7, 74, 107
9, 79908, Note_on_c, 7, 74, 0
9, 79920, Note_on_c, 7, 68, 107
9, 79968, Note_on_c, 7, 68, 0
9, 79980, Note_on_c, 7, 74, 107
9, 80028, Note_on_c, 7, 74, 0
9, 80040, Note_on_c, 7, 69, 107
9, 80088, Note_on_c, 7, 69, 0
9, 80100, Note_on_c, 7, 74, 107
9, 80148, Note_on_c, 7, 74, 0
9, 80160, Note_on_c, 7, 71, 107
9, 80208, Note_on_c, 7, 71, 0
9, 80220, Note_on_c, 7, 74, 107
9, 80268, Note_on_c, 7, 74, 0
9, 80280, Note_on_c, 7, 73, 107
9, 80328, Note_on_c, 7, 73, 0
9, 80340, Note_on_c, 7, 76, 107
9, 80388, Note_on_c, 7, 76, 0
9, 80400, Note_on_c, 7, 74, 107
9, 80448, Note_on_c, 7, 74, 0
9, 80460, Note_on_c, 7, 73, 107
9, 80508, Note_on_c, 7, 73, 0
9, 80520, Note_on_c, 7, 71, 107
9, 80568, Note_on_c, 7, 71, 0
9, 80580, Note_on_c, 7, 74, 107
9, 80628, Note_on_c, 7, 74, 0
9, 80640, Note_on_c, 7, 73, 107
9, 80688, Note_on_c, 7, 73, 0
9, 80700, Note_on_c, 7, 74, 107
9, 80748, Note_on_c, 7, 74, 0
9, 80760, Note_on_c, 7, 73, 107
9, 80808, Note_on_c, 7, 73, 0
9, 80820, Note_on_c, 7, 71, 107
9, 80868, Note_on_c, 7, 71, 0
9, 80880, Note_on_c, 7, 69, 107
9, 80928, Note_on_c, 7, 69, 0
9, 80940, Note_on_c, 7, 71, 107
9, 80988, Note_on_c, 7, 71, 0
9, 81000, Note_on_c, 7, 73, 107
9, 81048, Note_on_c, 7, 73, 0
9, 81060, Note_on_c, 7, 74, 107
9, 81108, Note_on_c, 7, 74, 0
9, 81120, Note_on_c, 7, 76, 107
9, 81168, Note_on_c, 7, 76, 0
9, 81180, Note_on_c, 7, 78, 107
9, 81228, Note_on_c, 7, 78, 0
9, 81240, Note_on_c, 7, 79, 107
9, 81288, Note_on_c, 7, 79, 0
9, 81300, Note_on_c, 7, 76, 107
9, 81348, Note_on_c, 7, 76, 0
9, 81360, Note_on_c, 7, 81, 107
9, 81408, Note_on_c, 7, 81, 0
9, 81420, Note_on_c, 7, 69, 107
9, 81468, Note_on_c, 7, 69, 0
9, 81480, Note_on_c, 7, 67, 107
9, 81528, Note_on_c, 7, 67, 0
9, 81540, Note_on_c, 7, 69, 107
9, 81588, Note_on_c, 7, 69, 0
9, 81600, Note_on_c, 7, 66, 107
9, 81648, Note_on_c, 7, 66, 0
9, 81660, Note_on_c, 7, 69, 107
9, 81708, Note_on_c, 7, 69, 0
9, 81720, Note_on_c, 7, 64, 107
9, 81768, Note_on_c, 7, 64, 0
9, 81780, Note_on_c, 7, 69, 107
9, 81828, Note_on_c, 7, 69, 0
9, 81840, Note_on_c, 7, 62, 107
9, 81888, Note_on_c, 7, 62, 0
9, 81900, Note_on_c, 7, 69, 107
9, 81948, Note_on_c, 7, 69, 0
9, 81960, Note_on_c, 7, 60, 107
9, 82008, Note_on_c, 7, 60, 0
9, 82020, Note_on_c, 7, 69, 107
9, 82068, Note_on_c, 7, 69, 0
9, 82080, Note_on_c, 7, 59, 107
9, 82128, Note_on_c, 7, 59, 0
9, 82140, Note_on_c, 7, 62, 107
9, 82188, Note_on_c, 7, 62, 0
9, 82200, Note_on_c, 7, 64, 107
9, 82248, Note_on_c, 7, 64, 0
9, 82260, Note_on_c, 7, 66, 107
9, 82308, Note_on_c, 7, 66, 0
9, 82320, Note_on_c, 7, 67, 107
9, 82368, Note_on_c, 7, 67, 0
9, 82380, Note_on_c, 7, 69, 107
9, 82428, Note_on_c, 7, 69, 0
9, 82440, Note_on_c, 7, 71, 107
9, 82488, Note_on_c, 7, 71, 0
9, 82500, Note_on_c, 7, 72, 107
9, 82548, Note_on_c, 7, 72, 0
9, 82560, Note_on_c, 7, 74, 107
9, 82608, Note_on_c, 7, 74, 0
9, 82620, Note_on_c, 7, 76, 107
9, 82668, Note_on_c, 7, 76, 0
9, 82680, Note_on_c, 7, 78, 107
9, 82728, Note_on_c, 7, 78, 0
9, 82740, Note_on_c, 7, 74, 107
9, 82788, Note_on_c, 7, 74, 0
9, 82800, Note_on_c, 7, 79, 107
9, 82848, Note_on_c, 7, 79, 0
9, 82860, Note_on_c, 7, 67, 107
9, 82908, Note_on_c, 7, 67, 0
9, 82920, Note_on_c, 7, 66, 107
9, 82968, Note_on_c, 7, 66, 0
9, 82980, Note_on_c, 7, 67, 107
9, 83028, Note_on_c, 7, 67, 0
9, 83040, Note_on_c, 7, 64, 107
9, 83088, Note_on_c, 7, 64, 0
9, 83100, Note_on_c, 7, 67, 107
9, 83148, Note_on_c, 7, 67, 0
9, 83160, Note_on_c, 7, 62, 107
9, 83208, Note_on_c, 7, 62, 0
9, 83220, Note_on_c, 7, 67, 107
9, 83268, Note_on_c, 7, 67, 0
9, 83280, Note_on_c, 7, 61, 107
9, 83328, Note_on_c, 7, 61, 0
9, 83340, Note_on_c, 7, 67, 107
9, 83388, Note_on_c, 7, 67, 0
9, 83400, Note_on_c, 7, 59, 107
9, 83448, Note_on_c, 7, 59, 0
9, 83460, Note_on_c, 7, 67, 107
9, 83508, Note_on_c, 7, 67, 0
9, 83520, Note_on_c, 7, 57, 107
9, 83568, Note_on_c, 7, 57, 0
9, 83580, Note_on_c, 7, 61, 107
9, 83628, Note_on_c, 7, 61, 0
9, 83640, Note_on_c, 7, 62, 107
9, 83688, Note_on_c, 7, 62, 0
9, 83700, Note_on_c, 7, 64, 107
9, 83748, Note_on_c, 7, 64, 0
9, 83760, Note_on_c, 7, 66, 107
9, 83808, Note_on_c, 7, 66, 0
9, 83820, Note_on_c, 7, 67, 107
9, 83868, Note_on_c, 7, 67, 0
9, 83880, Note_on_c, 7, 69, 107
9, 83928, Note_on_c, 7, 69, 0
9, 83940, Note_on_c, 7, 71, 107
9, 83988, Note_on_c, 7, 71, 0
9, 84000, Note_on_c, 7, 73, 107
9, 84048, Note_on_c, 7, 73, 0
9, 84060, Note_on_c, 7, 74, 107
9, 84108, Note_on_c, 7, 74, 0
9, 84120, Note_on_c, 7, 76, 107
9, 84168, Note_on_c, 7, 76, 0
9, 84180, Note_on_c, 7, 73, 107
9, 84228, Note_on_c, 7, 73, 0
9, 84240, Note_on_c, 7, 78, 107
9, 84288, Note_on_c, 7, 78, 0
9, 84300, Note_on_c, 7, 66, 107
9, 84348, Note_on_c, 7, 66, 0
9, 84360, Note_on_c, 7, 64, 107
9, 84408, Note_on_c, 7, 64, 0
9, 84420, Note_on_c, 7, 66, 107
9, 84468, Note_on_c, 7, 66, 0
9, 84480, Note_on_c, 7, 62, 107
9, 84528, Note_on_c, 7, 62, 0
9, 84540, Note_on_c, 7, 66, 107
9, 84588, Note_on_c, 7, 66, 0
9, 84600, Note_on_c, 7, 60, 107
9, 84648, Note_on_c, 7, 60, 0
9, 84660, Note_on_c, 7, 66, 107
9, 84708, Note_on_c, 7, 66, 0
9, 84720, Note_on_c, 7, 59, 107
9, 84768, Note_on_c, 7, 59, 0
9, 84780, Note_on_c, 7, 66, 107
9, 84828, Note_on_c, 7, 66, 0
9, 84840, Note_on_c, 7, 57, 107
9, 84888, Note_on_c, 7, 57, 0
9, 84900, Note_on_c, 7, 66, 107
9, 84948, Note_on_c, 7, 66, 0
9, 84960, Note_on_c, 7, 55, 107
9, 85008, Note_on_c, 7, 55, 0
9, 85020, Note_on_c, 7, 66, 107
9, 85068, Note_on_c, 7, 66, 0
9, 85080, Note_on_c, 7, 71, 107
9, 85128, Note_on_c, 7, 71, 0
9, 85140, Note_on_c, 7, 69, 107
9, 85188, Note_on_c, 7, 69, 0
9, 85200, Note_on_c, 7, 71, 107
9, 85248, Note_on_c, 7, 71, 0
9, 85260, Note_on_c, 7, 74, 107
9, 85308, Note_on_c, 7, 74, 0
9, 85320, Note_on_c, 7, 79, 107
9, 85368, Note_on_c, 7, 79, 0
9, 85380, Note_on_c, 7, 78, 107
9, 85428, Note_on_c, 7, 78, 0
9, 85440, Note_on_c, 7, 79, 107
9, 85488, Note_on_c, 7, 79, 0
9, 85500, Note_on_c, 7, 76, 107
9, 85548, Note_on_c, 7, 76, 0
9, 85560, Note_on_c, 7, 71, 107
9, 85608, Note_on_c, 7, 71, 0
9, 85620, Note_on_c, 7, 74, 107
9, 85668, Note_on_c, 7, 74, 0
9, 85680, Note_on_c, 7, 57, 107
9, 85728, Note_on_c, 7, 57, 0
9, 85740, Note_on_c, 7, 64, 107
9, 85788, Note_on_c, 7, 64, 0
9, 85800, Note_on_c, 7, 73, 107
9, 85848, Note_on_c, 7, 73, 0
9, 85860, Note_on_c, 7, 71, 107
9, 85908, Note_on_c, 7, 71, 0
9, 85920, Note_on_c, 7, 73, 107
9, 85968, Note_on_c, 7, 73, 0
9, 85980, Note_on_c, 7, 76, 107
9, 86028, Note_on_c, 7, 76, 0
9, 86040, Note_on_c, 7, 79, 107
9, 86088, Note_on_c, 7, 79, 0
9, 86100, Note_on_c, 7, 78, 107
9, 86148, Note_on_c, 7, 78, 0
9, 86160, Note_on_c, 7, 79, 107
9, 86208, Note_on_c, 7, 79, 0
9, 86220, Note_on_c, 7, 76, 107
9, 86268, Note_on_c, 7, 76, 0
9, 86280, Note_on_c, 7, 73, 107
9, 86328, Note_on_c, 7, 73, 0
9, 86340, Note_on_c, 7, 76, 107
9, 86388, Note_on_c, 7, 76, 0
9, 86400, Note_on_c, 7, 57, 107
9, 86448, Note_on_c, 7, 57, 0
9, 86460, Note_on_c, 7, 66, 107
9, 86508, Note_on_c, 7, 66, 0
9, 86520, Note_on_c, 7, 69, 107
9, 86568, Note_on_c, 7, 69, 0
9, 86580, Note_on_c, 7, 67, 107
9, 86628, Note_on_c, 7, 67, 0
9, 86640, Note_on_c, 7, 69, 107
9, 86688, Note_on_c, 7, 69, 0
9, 86700, Note_on_c, 7, 74, 107
9, 86748, Note_on_c, 7, 74, 0
9, 86760, Note_on_c, 7, 78, 107
9, 86808, Note_on_c, 7, 78, 0
9, 86820, Note_on_c, 7, 76, 107
9, 86868, Note_on_c, 7, 76, 0
9, 86880, Note_on_c, 7, 78, 107
9, 86928, Note_on_c, 7, 78, 0
9, 86940, Note_on_c, 7, 74, 107
9, 86988, Note_on_c, 7, 74, 0
9, 87000, Note_on_c, 7, 71, 107
9, 87048, Note_on_c, 7, 71, 0
9, 87060, Note_on_c, 7, 74, 107
9, 87108, Note_on_c, 7, 74, 0
9, 87120, Note_on_c, 7, 57, 107
9, 87168, Note_on_c, 7, 57, 0
9, 87180, Note_on_c, 7, 68, 107
9, 87228, Note_on_c, 7, 68, 0
9, 87240, Note_on_c, 7, 71, 107
9, 87288, Note_on_c, 7, 71, 0
9, 87300, Note_on_c, 7, 69, 107
9, 87348, Note_on_c, 7, 69, 0
9, 87360, Note_on_c, 7, 71, 107
9, 87408, Note_on_c, 7, 71, 0
9, 87420, Note_on_c, 7, 74, 107
9, 87468, Note_on_c, 7, 74, 0
9, 87480, Note_on_c, 7, 80, 107
9, 87528, Note_on_c, 7, 80, 0
9, 87540, Note_on_c, 7, 78, 107
9, 87588, Note_on_c, 7, 78, 0
9, 87600, Note_on_c, 7, 80, 107
9, 87648, Note_on_c, 7, 80, 0
9, 87660, Note_on_c, 7, 74, 107
9, 87708, Note_on_c, 7, 74, 0
9, 87720, Note_on_c, 7, 71, 107
9, 87768, Note_on_c, 7, 71, 0
9, 87780, Note_on_c, 7, 74, 107
9, 87828, Note_on_c, 7, 74, 0
9, 87840, Note_on_c, 7, 73, 107
9, 87888, Note_on_c, 7, 73, 0
9, 87900, Note_on_c, 7, 81, 107
9, 87948, Note_on_c, 7, 81, 0
9, 87960, Note_on_c, 7, 80, 107
9, 88008, Note_on_c, 7, 80, 0
9, 88020, Note_on_c, 7, 78, 107
9, 88068, Note_on_c, 7, 78, 0
9, 88080, Note_on_c, 7, 76, 107
9, 88128, Note_on_c, 7, 76, 0
9, 88140, Note_on_c, 7, 81, 107
9, 88188, Note_on_c, 7, 81, 0
9, 88200, Note_on_c, 7, 76, 107
9, 88248, Note_on_c, 7, 76, 0
9, 88260, Note_on_c, 7, 74, 107
9, 88308, Note_on_c, 7, 74, 0
9, 88320, Note_on_c, 7, 73, 107
9, 88368, Note_on_c, 7, 73, 0
9, 88380, Note_on_c, 7, 76, 107
9, 88428, Note_on_c, 7, 76, 0
9, 88440, Note_on_c, 7, 73, 107
9, 88488, Note_on_c, 7, 73, 0
9, 88500, Note_on_c, 7, 71, 107
9, 88548, Note_on_c, 7, 71, 0
9, 88560, Note_on_c, 7, 69, 107
9, 88608, Note_on_c, 7, 69, 0
9, 88620, Note_on_c, 7, 81, 107
9, 88668, Note_on_c, 7, 81, 0
9, 88680, Note_on_c, 7, 79, 107
9, 88728, Note_on_c, 7, 79, 0
9, 88740, Note_on_c, 7, 78, 107
9, 88788, Note_on_c, 7, 78, 0
9, 88800, Note_on_c, 7, 76, 107
9, 88848, Note_on_c, 7, 76, 0
9, 88860, Note_on_c, 7, 79, 107
9, 88908, Note_on_c, 7, 79, 0
9, 88920, Note_on_c, 7, 76, 107
9, 88968, Note_on_c, 7, 76, 0
9, 88980, Note_on_c, 7, 74, 107
9, 89028, Note_on_c, 7, 74, 0
9, 89040, Note_on_c, 7, 73, 107
9, 89088, Note_on_c, 7, 73, 0
9, 89100, Note_on_c, 7, 76, 107
9, 89148, Note_on_c, 7, 76, 0
9, 89160, Note_on_c, 7, 73, 107
9, 89208, Note_on_c, 7, 73, 0
9, 89220, Note_on_c, 7, 71, 107
9, 89268, Note_on_c, 7, 71, 0
9, 89280, Note_on_c, 7, 69, 107
9, 89328, Note_on_c, 7, 69, 0
9, 89340, Note_on_c, 7, 79, 107
9, 89388, Note_on_c, 7, 79, 0
9, 89400, Note_on_c, 7, 78, 107
9, 89448, Note_on_c, 7, 78, 0
9, 89460, Note_on_c, 7, 76, 107
9, 89508, Note_on_c, 7, 76, 0
9, 89520, Note_on_c, 7, 74, 107
9, 89568, Note_on_c, 7, 74, 0
9, 89580, Note_on_c, 7, 78, 107
9, 89628, Note_on_c, 7, 78, 0
9, 89640, Note_on_c, 7, 74, 107
9, 89688, Note_on_c, 7, 74, 0
9, 89700, Note_on_c, 7, 73, 107
9, 89748, Note_on_c, 7, 73, 0
9, 89760, Note_on_c, 7, 71, 107
9, 89808, Note_on_c, 7, 71, 0
9, 89820, Note_on_c, 7, 74, 107
9, 89868, Note_on_c, 7, 74, 0
9, 89880, Note_on_c, 7, 71, 107
9, 89928, Note_on_c, 7, 71, 0
9, 89940, Note_on_c, 7, 69, 107
9, 89988, Note_on_c, 7, 69, 0
9, 90000, Note_on_c, 7, 67, 107
9, 90048, Note_on_c, 7, 67, 0
9, 90060, Note_on_c, 7, 78, 107
9, 90108, Note_on_c, 7, 78, 0
9, 90120, Note_on_c, 7, 76, 107
9, 90168, Note_on_c, 7, 76, 0
9, 90180, Note_on_c, 7, 74, 107
9, 90228, Note_on_c, 7, 74, 0
9, 90240, Note_on_c, 7, 73, 107
9, 90288, Note_on_c, 7, 73, 0
9, 90300, Note_on_c, 7, 76, 107
9, 90348, Note_on_c, 7, 76, 0
9, 90360, Note_on_c, 7, 73, 107
9, 90408, Note_on_c, 7, 73, 0
9, 90420, Note_on_c, 7, 71, 107
9, 90468, Note_on_c, 7, 71, 0
9, 90480, Note_on_c, 7, 69, 107
9, 90528, Note_on_c, 7, 69, 0
9, 90540, Note_on_c, 7, 73, 107
9, 90588, Note_on_c, 7, 73, 0
9, 90600, Note_on_c, 7, 69, 107
9, 90648, Note_on_c, 7, 69, 0
9, 90660, Note_on_c, 7, 67, 107
9, 90708, Note_on_c, 7, 67, 0
9, 90720, Note_on_c, 7, 66, 107
9, 90768, Note_on_c, 7, 66, 0
9, 90780, Note_on_c, 7, 74, 107
9, 90828, Note_on_c, 7, 74, 0
9, 90840, Note_on_c, 7, 71, 107
9, 90888, Note_on_c, 7, 71, 0
9, 90900, Note_on_c, 7, 69, 107
9, 90948, Note_on_c, 7, 69, 0
9, 90960, Note_on_c, 7, 67, 107
9, 91008, Note_on_c, 7, 67, 0
9, 91020, Note_on_c, 7, 71, 107
9, 91068, Note_on_c, 7, 71, 0
9, 91080, Note_on_c, 7, 67, 107
9, 91128, Note_on_c, 7, 67, 0
9, 91140, Note_on_c, 7, 66, 107
9, 91188, Note_on_c, 7, 66, 0
9, 91200, Note_on_c, 7, 64, 107
9, 91248, Note_on_c, 7, 64, 0
9, 91260, Note_on_c, 7, 67, 107
9, 91308, Note_on_c, 7, 67, 0
9, 91320, Note_on_c, 7, 64, 107
9, 91368, Note_on_c, 7, 64, 0
9, 91380, Note_on_c, 7, 62, 107
9, 91428, Note_on_c, 7, 62, 0
9, 91440, Note_on_c, 7, 61, 107
9, 91488, Note_on_c, 7, 61, 0
9, 91500, Note_on_c, 7, 64, 107
9, 91548, Note_on_c, 7, 64, 0
9, 91560, Note_on_c, 7, 67, 107
9, 91608, Note_on_c, 7, 67, 0
9, 91620, Note_on_c, 7, 71, 107
9, 91668, Note_on_c, 7, 71, 0
9, 91680, Note_on_c, 7, 69, 107
9, 91728, Note_on_c, 7, 69, 0
9, 91740, Note_on_c, 7, 73, 107
9, 91788, Note_on_c, 7, 73, 0
9, 91800, Note_on_c, 7, 76, 107
9, 91848, Note_on_c, 7, 76, 0
9, 91860, Note_on_c, 7, 79, 107
9, 91908, Note_on_c, 7, 79, 0
9, 91920, Note_on_c, 7, 79, 107
9, 91968, Note_on_c, 7, 79, 0
9, 91980, Note_on_c, 7, 78, 107
9, 92028, Note_on_c, 7, 78, 0
9, 92040, Note_on_c, 7, 79, 107
9, 92088, Note_on_c, 7, 79, 0
9, 92100, Note_on_c, 7, 76, 107
9, 92148, Note_on_c, 7, 76, 0
9, 92160, Note_on_c, 7, 78, 107
9, 92208, Note_on_c, 7, 78, 0
9, 92220, Note_on_c, 7, 74, 107
9, 92268, Note_on_c, 7, 74, 0
9, 92280, Note_on_c, 7, 78, 107
9, 92328, Note_on_c, 7, 78, 0
9, 92340, Note_on_c, 7, 81, 107
9, 92388, Note_on_c, 7, 81, 0
9, 92400, Note_on_c, 7, 86, 107
9, 92448, Note_on_c, 7, 86, 0
9, 92460, Note_on_c, 7, 81, 107
9, 92508, Note_on_c, 7, 81, 0
9, 92520, Note_on_c, 7, 78, 107
9, 92568, Note_on_c, 7, 78, 0
9, 92580, Note_on_c, 7, 74, 107
9, 92628, Note_on_c, 7, 74, 0
9, 92640, Note_on_c, 7, 69, 107
9, 92688, Note_on_c, 7, 69, 0
9, 92700, Note_on_c, 7, 76, 107
9, 92748, Note_on_c, 7, 76, 0
9, 92760, Note_on_c, 7, 86, 107
9, 92808, Note_on_c, 7, 86, 0
9, 92820, Note_on_c, 7, 85, 107
9, 92868, Note_on_c, 7, 85, 0
9, 92880, Note_on_c, 7, 86, 107
9, 92928, Note_on_c, 7, 86, 0
9, 92940, Note_on_c, 7, 81, 107
9, 92988, Note_on_c, 7, 81, 0
9, 93000, Note_on_c, 7, 78, 107
9, 93048, Note_on_c, 7, 78, 0
9, 93060, Note_on_c, 7, 74, 107
9, 93108, Note_on_c, 7, 74, 0
9, 93120, Note_on_c, 7, 72, 107
9, 93168, Note_on_c, 7, 72, 0
9, 93180, Note_on_c, 7, 74, 107
9, 93228, Note_on_c, 7, 74, 0
9, 93240, Note_on_c, 7, 71, 107
9, 93288, Note_on_c, 7, 71, 0
9, 93300, Note_on_c, 7, 74, 107
9, 93348, Note_on_c, 7, 74, 0
9, 93360, Note_on_c, 7, 72, 107
9, 93408, Note_on_c, 7, 72, 0
9, 93420, Note_on_c, 7, 74, 107
9, 93468, Note_on_c, 7, 74, 0
9, 93480, Note_on_c, 7, 69, 107
9, 93528, Note_on_c, 7, 69, 0
9, 93540, Note_on_c, 7, 74, 107
9, 93588, Note_on_c, 7, 74, 0
9, 93600, Note_on_c, 7, 71, 107
9, 93648, Note_on_c, 7, 71, 0
9, 93660, Note_on_c, 7, 74, 107
9, 93708, Note_on_c, 7, 74, 0
9, 93720, Note_on_c, 7, 79, 107
9, 93768, Note_on_c, 7, 79, 0
9, 93780, Note_on_c, 7, 74, 107
9, 93828, Note_on_c, 7, 74, 0
9, 93840, Note_on_c, 7, 71, 107
9, 93888, Note_on_c, 7, 71, 0
9, 93900, Note_on_c, 7, 74, 107
9, 93948, Note_on_c, 7, 74, 0
9, 93960, Note_on_c, 7, 69, 107
9, 94008, Note_on_c, 7, 69, 0
9, 94020, Note_on_c, 7, 74, 107
9, 94068, Note_on_c, 7, 74, 0
9, 94080, Note_on_c, 7, 71, 107
9, 94128, Note_on_c, 7, 71, 0
9, 94140, Note_on_c, 7, 74, 107
9, 94188, Note_on_c, 7, 74, 0
9, 94200, Note_on_c, 7, 67, 107
9, 94248, Note_on_c, 7, 67, 0
9, 94260, Note_on_c, 7, 74, 107
9, 94308, Note_on_c, 7, 74, 0
9, 94320, Note_on_c, 7, 69, 107
9, 94368, Note_on_c, 7, 69, 0
9, 94380, Note_on_c, 7, 74, 107
9, 94428, Note_on_c, 7, 74, 0
9, 94440, Note_on_c, 7, 78, 107
9, 94488, Note_on_c, 7, 78, 0
9, 94500, Note_on_c, 7, 74, 107
9, 94548, Note_on_c, 7, 74, 0
9, 94560, Note_on_c, 7, 69, 107
9, 94608, Note_on_c, 7, 69, 0
9, 94620, Note_on_c, 7, 74, 107
9, 94668, Note_on_c, 7, 74, 0
9, 94680, Note_on_c, 7, 67, 107
9, 94728, Note_on_c, 7, 67, 0
9, 94740, Note_on_c, 7, 74, 107
9, 94788, Note_on_c, 7, 74, 0
9, 94800, Note_on_c, 7, 69, 107
9, 94848, Note_on_c, 7, 69, 0
9, 94860, Note_on_c, 7, 74, 107
9, 94908, Note_on_c, 7, 74, 0
9, 94920, Note_on_c, 7, 66, 107
9, 94968, Note_on_c, 7, 66, 0
9, 94980, Note_on_c, 7, 74, 107
9, 95028, Note_on_c, 7, 74, 0
9, 95040, Note_on_c, 7, 67, 107
9, 95088, Note_on_c, 7, 67, 0
9, 95100, Note_on_c, 7, 74, 107
9, 95148, Note_on_c, 7, 74, 0
9, 95160, Note_on_c, 7, 76, 107
9, 95208, Note_on_c, 7, 76, 0
9, 95220, Note_on_c, 7, 74, 107
9, 95268, Note_on_c, 7, 74, 0
9, 95280, Note_on_c, 7, 73, 107
9, 95328, Note_on_c, 7, 73, 0
9, 95340, Note_on_c, 7, 69, 107
9, 95388, Note_on_c, 7, 69, 0
9, 95400, Note_on_c, 7, 73, 107
9, 95448, Note_on_c, 7, 73, 0
9, 95460, Note_on_c, 7, 74, 107
9, 95508, Note_on_c, 7, 74, 0
9, 95520, Note_on_c, 7, 76, 107
9, 95568, Note_on_c, 7, 76, 0
9, 95580, Note_on_c, 7, 69, 107
9, 95628, Note_on_c, 7, 69, 0
9, 95640, Note_on_c, 7, 76, 107
9, 95688, Note_on_c, 7, 76, 0
9, 95700, Note_on_c, 7, 78, 107
9, 95748, Note_on_c, 7, 78, 0
9, 95760, Note_on_c, 7, 79, 107
9, 95760, Note_on_c, 7, 73, 107
9, 95760, Note_on_c, 7, 76, 107
9, 96048, Note_on_c, 7, 76, 0
9, 96048, Note_on_c, 7, 73, 0
9, 96048, Note_on_c, 7, 79, 0
9, 96120, Note_on_c, 7, 78, 107
9, 96120, Note_on_c, 7, 73, 107
9, 96120, Note_on_c, 7, 81, 107
9, 96216, Note_on_c, 7, 81, 0
9, 96216, Note_on_c, 7, 73, 0
9, 96216, Note_on_c, 7, 78, 0
9, 96240, Note_on_c, 7, 74, 107
9, 96240, Note_on_c, 7, 69, 107
9, 96240, Note_on_c, 7, 78, 107
9, 96432, Note_on_c, 7, 69, 0
9, 96528, Note_on_c, 7, 78, 0
9, 96528, Note_on_c, 7, 74, 0
9, 96540, Note_on_c, 7, 79, 107
9, 96588, Note_on_c, 7, 79, 0
9, 96600, Note_on_c, 7, 78, 107
9, 96648, Note_on_c, 7, 78, 0
9, 96660, Note_on_c, 7, 79, 107
9, 96684, Note_on_c, 7, 79, 0
9, 96690, Note_on_c, 7, 76, 107
9, 96714, Note_on_c, 7, 76, 0
9, 96720, Note_on_c, 7, 73, 107
9, 96720, Note_on_c, 7, 78, 107
9, 96720, Note_on_c, 7, 69, 107
9, 96744, Note_on_c, 7, 78, 0
9, 96750, Note_on_c, 7, 76, 107
9, 96774, Note_on_c, 7, 76, 0
9, 96780, Note_on_c, 7, 78, 107
9, 96804, Note_on_c, 7, 78, 0
9, 96810, Note_on_c, 7, 76, 107
9, 96834, Note_on_c, 7, 76, 0
9, 96840, Note_on_c, 7, 78, 107
9, 96864, Note_on_c, 7, 78, 0
9, 96870, Note_on_c, 7, 76, 107
9, 96894, Note_on_c, 7, 76, 0
9, 96900, Note_on_c, 7, 78, 107
9, 96924, Note_on_c, 7, 78, 0
9, 96930, Note_on_c, 7, 76, 107
9, 96954, Note_on_c, 7, 76, 0
9, 96960, Note_on_c, 7, 78, 107
9, 96984, Note_on_c, 7, 78, 0
9, 96990, Note_on_c, 7, 76, 107
9, 97008, Note_on_c, 7, 69, 0
9, 97008, Note_on_c, 7, 73, 0
9, 97038, Note_on_c, 7, 76, 0
9, 97080, Note_on_c, 7, 74, 107
9, 97176, Note_on_c, 7, 74, 0
9, 97200, Note_on_c, 7, 74, 107
9, 97248, Note_on_c, 7, 74, 0
9, 97260, Note_on_c, 7, 86, 107
9, 97308, Note_on_c, 7, 86, 0
9, 97320, Note_on_c, 7, 85, 107
9, 97368, Note_on_c, 7, 85, 0
9, 97380, Note_on_c, 7, 83, 107
9, 97428, Note_on_c, 7, 83, 0
9, 97440, Note_on_c, 7, 81, 107
9, 97488, Note_on_c, 7, 81, 0
9, 97500, Note_on_c, 7, 86, 107
9, 97548, Note_on_c, 7, 86, 0
9, 97560, Note_on_c, 7, 79, 107
9, 97608, Note_on_c, 7, 79, 0
9, 97620, Note_on_c, 7, 86, 107
9, 97668, Note_on_c, 7, 86, 0
9, 97680, Note_on_c, 7, 78, 107
9, 97728, Note_on_c, 7, 78, 0
9, 97740, Note_on_c, 7, 86, 107
9, 97788, Note_on_c, 7, 86, 0
9, 97800, Note_on_c, 7, 76, 107
9, 97848, Note_on_c, 7, 76, 0
9, 97860, Note_on_c, 7, 86, 107
9, 97908, Note_on_c, 7, 86, 0
9, 97920, Note_on_c, 7, 74, 107
9, 97968, Note_on_c, 7, 74, 0
9, 97980, Note_on_c, 7, 74, 107
9, 98028, Note_on_c, 7, 74, 0
9, 98040, Note_on_c, 7, 73, 107
9, 98088, Note_on_c, 7, 73, 0
9, 98100, Note_on_c, 7, 71, 107
9, 98148, Note_on_c, 7, 71, 0
9, 98160, Note_on_c, 7, 69, 107
9, 98208, Note_on_c, 7, 69, 0
9, 98220, Note_on_c, 7, 74, 107
9, 98268, Note_on_c, 7, 74, 0
9, 98280, Note_on_c, 7, 67, 107
9, 98328, Note_on_c, 7, 67, 0
9, 98340, Note_on_c, 7, 74, 107
9, 98388, Note_on_c, 7, 74, 0
9, 98400, Note_on_c, 7, 66, 107
9, 98448, Note_on_c, 7, 66, 0
9, 98460, Note_on_c, 7, 74, 107
9, 98508, Note_on_c, 7, 74, 0
9, 98520, Note_on_c, 7, 64, 107
9, 98568, Note_on_c, 7, 64, 0
9, 98580, Note_on_c, 7, 74, 107
9, 98628, Note_on_c, 7, 74, 0
9, 98640, Note_on_c, 7, 62, 107
9, 98688, Note_on_c, 7, 62, 0
9, 98700, Note_on_c, 7, 66, 107
9, 98748, Note_on_c, 7, 66, 0
9, 98760, Note_on_c, 7, 69, 107
9, 98808, Note_on_c, 7, 69, 0
9, 98820, Note_on_c, 7, 73, 107
9, 98868, Note_on_c, 7, 73, 0
9, 98880, Note_on_c, 7, 74, 107
9, 98928, Note_on_c, 7, 74, 0
9, 98940, Note_on_c, 7, 78, 107
9, 98988, Note_on_c, 7, 78, 0
9, 99000, Note_on_c, 7, 81, 107
9, 99048, Note_on_c, 7, 81, 0
9, 99060, Note_on_c, 7, 85, 107
9, 99108, Note_on_c, 7, 85, 0
9, 99120, Note_on_c, 7, 86, 107
9, 99312, Note_on_c, 7, 86, 0
9, 99312, End_track
10, 0, Start_track
10, 0, MIDI_port, 0
10, 0, Title_t, "Arr. Gary Bricault, (c) 1997"
10, 0, Program_c, 8, 47
10, 0, Control_c, 8, 7, 89
10, 0, Control_c, 8, 10, 64
10, 0, Note_on_c, 8, 50, 107
10, 225, Note_on_c, 8, 50, 0
10, 480, Note_on_c, 8, 50, 107
10, 576, Note_on_c, 8, 50, 0
10, 720, Note_on_c, 8, 50, 107
10, 945, Note_on_c, 8, 50, 0
10, 1200, Note_on_c, 8, 50, 107
10, 1296, Note_on_c, 8, 50, 0
10, 1440, Note_on_c, 8, 50, 107
10, 1665, Note_on_c, 8, 50, 0
10, 2280, Note_on_c, 8, 50, 107
10, 2328, Note_on_c, 8, 50, 0
10, 2340, Note_on_c, 8, 50, 107
10, 2388, Note_on_c, 8, 50, 0
10, 2400, Note_on_c, 8, 50, 107
10, 2496, Note_on_c, 8, 50, 0
10, 2520, Note_on_c, 8, 50, 107
10, 2616, Note_on_c, 8, 50, 0
10, 2640, Note_on_c, 8, 50, 107
10, 2736, Note_on_c, 8, 50, 0
10, 2760, Note_on_c, 8, 50, 107
10, 2856, Note_on_c, 8, 50, 0
10, 2880, Note_on_c, 8, 50, 107
10, 3105, Note_on_c, 8, 50, 0
10, 3720, Note_on_c, 8, 50, 107
10, 3768, Note_on_c, 8, 50, 0
10, 3780, Note_on_c, 8, 50, 107
10, 3828, Note_on_c, 8, 50, 0
10, 3840, Note_on_c, 8, 50, 107
10, 3936, Note_on_c, 8, 50, 0
10, 3960, Note_on_c, 8, 50, 107
10, 4056, Note_on_c, 8, 50, 0
10, 4080, Note_on_c, 8, 50, 107
10, 4176, Note_on_c, 8, 50, 0
10, 4200, Note_on_c, 8, 50, 107
10, 4296, Note_on_c, 8, 50, 0
10, 4320, Note_on_c, 8, 50, 107
10, 4545, Note_on_c, 8, 50, 0
10, 5040, Note_on_c, 8, 50, 107
10, 5265, Note_on_c, 8, 50, 0
10, 5760, Note_on_c, 8, 50, 107
10, 5985, Note_on_c, 8, 50, 0
10, 7200, Note_on_c, 8, 50, 107
10, 7425, Note_on_c, 8, 50, 0
10, 20160, Note_on_c, 8, 50, 107
10, 20352, Note_on_c, 8, 50, 0
10, 20880, Note_on_c, 8, 50, 107
10, 21072, Note_on_c, 8, 50, 0
10, 21600, Note_on_c, 8, 50, 107
10, 21792, Note_on_c, 8, 50, 0
10, 22320, Note_on_c, 8, 50, 107
10, 22512, Note_on_c, 8, 50, 0
10, 36000, Note_on_c, 8, 43, 107
10, 36192, Note_on_c, 8, 43, 0
10, 36720, Note_on_c, 8, 43, 107
10, 36912, Note_on_c, 8, 43, 0
10, 38880, Note_on_c, 8, 45, 107
10, 39072, Note_on_c, 8, 45, 0
10, 39600, Note_on_c, 8, 45, 107
10, 39792, Note_on_c, 8, 45, 0
10, 41760, Note_on_c, 8, 43, 107
10, 41952, Note_on_c, 8, 43, 0
10, 43200, Note_on_c, 8, 50, 107
10, 43392, Note_on_c, 8, 50, 0
10, 47520, Note_on_c, 8, 50, 107
10, 47712, Note_on_c, 8, 50, 0
10, 48240, Note_on_c, 8, 50, 107
10, 48432, Note_on_c, 8, 50, 0
10, 48960, Note_on_c, 8, 50, 107
10, 49152, Note_on_c, 8, 50, 0
10, 56160, Note_on_c, 8, 43, 107
10, 56352, Note_on_c, 8, 43, 0
10, 56880, Note_on_c, 8, 43, 107
10, 57072, Note_on_c, 8, 43, 0
10, 57600, Note_on_c, 8, 43, 107
10, 57792, Note_on_c, 8, 43, 0
10, 80640, Note_on_c, 8, 50, 107
10, 80865, Note_on_c, 8, 50, 0
10, 81360, Note_on_c, 8, 50, 107
10, 81585, Note_on_c, 8, 50, 0
10, 82080, Note_on_c, 8, 50, 107
10, 82305, Note_on_c, 8, 50, 0
10, 83520, Note_on_c, 8, 50, 107
10, 83745, Note_on_c, 8, 50, 0
10, 84240, Note_on_c, 8, 50, 107
10, 84465, Note_on_c, 8, 50, 0
10, 85680, Note_on_c, 8, 50, 107
10, 85905, Note_on_c, 8, 50, 0
10, 86400, Note_on_c, 8, 50, 107
10, 86625, Note_on_c, 8, 50, 0
10, 87120, Note_on_c, 8, 50, 107
10, 87345, Note_on_c, 8, 50, 0
10, 87840, Note_on_c, 8, 50, 107
10, 88065, Note_on_c, 8, 50, 0
10, 88560, Note_on_c, 8, 50, 107
10, 88785, Note_on_c, 8, 50, 0
10, 89280, Note_on_c, 8, 50, 107
10, 89505, Note_on_c, 8, 50, 0
10, 90000, Note_on_c, 8, 50, 107
10, 90225, Note_on_c, 8, 50, 0
10, 90720, Note_on_c, 8, 50, 107
10, 90945, Note_on_c, 8, 50, 0
10, 92280, Note_on_c, 8, 50, 107
10, 92376, Note_on_c, 8, 50, 0
10, 92400, Note_on_c, 8, 50, 107
10, 92496, Note_on_c, 8, 50, 0
10, 92520, Note_on_c, 8, 50, 107
10, 92616, Note_on_c, 8, 50, 0
10, 92640, Note_on_c, 8, 50, 107
10, 92736, Note_on_c, 8, 50, 0
10, 92760, Note_on_c, 8, 50, 107
10, 92856, Note_on_c, 8, 50, 0
10, 95760, Note_on_c, 8, 50, 107
10, 95985, Note_on_c, 8, 50, 0
10, 96120, Note_on_c, 8, 50, 107
10, 96216, Note_on_c, 8, 50, 0
10, 96240, Note_on_c, 8, 43, 107
10, 96465, Note_on_c, 8, 43, 0
10, 96840, Note_on_c, 8, 45, 107
10, 96888, Note_on_c, 8, 45, 0
10, 96900, Note_on_c, 8, 45, 107
10, 96948, Note_on_c, 8, 45, 0
10, 96960, Note_on_c, 8, 45, 107
10, 97056, Note_on_c, 8, 45, 0
10, 97080, Note_on_c, 8, 45, 107
10, 97176, Note_on_c, 8, 45, 0
10, 97200, Note_on_c, 8, 50, 107
10, 97425, Note_on_c, 8, 50, 0
10, 98040, Note_on_c, 8, 50, 107
10, 98136, Note_on_c, 8, 50, 0
10, 98160, Note_on_c, 8, 50, 107
10, 98256, Note_on_c, 8, 50, 0
10, 98280, Note_on_c, 8, 50, 107
10, 98376, Note_on_c, 8, 50, 0
10, 98400, Note_on_c, 8, 50, 107
10, 98496, Note_on_c, 8, 50, 0
10, 98520, Note_on_c, 8, 50, 107
10, 98616, Note_on_c, 8, 50, 0
10, 98640, Note_on_c, 8, 50, 107
10, 99216, Note_on_c, 8, 50, 0
10, 99216, End_track
11, 0, Start_track
11, 0, MIDI_port, 0
11, 0, Title_t, "Courtesy of Dave's J.S. Bach Page"
11, 0, End_track
12, 0, Start_track
12, 0, MIDI_port, 0
12, 0, Title_t, "http://www.unpronounceable.com/bach"
12, 0, End_track
0, 0, End_of_file
