0, 0, Header, 1, 6, 240
1, 0, Start_track
1, 0, Time_signature, 4, 1, 48, 8
1, 0, Tempo, 472441
1, 67680, Tempo, 487805
1, 68160, Tempo, 500000
1, 68640, Tempo, 526316
1, 69120, Time_signature, 6, 2, 24, 8
1, 69120, Tempo, 355030
1, 132720, Tempo, 392157
1, 132960, Tempo, 425532
1, 133200, Tempo, 480000
1, 133440, Tempo, 535714
1, 133680, Tempo, 625000
1, 133920, Time_signature, 12, 3, 36, 8
1, 133920, Tempo, 612245
1, 183240, Tempo, 666667
1, 183600, Tempo, 722892
1, 183960, Tempo, 800000
1, 184320, Tempo, 882353
1, 184680, Tempo, 1000000
1, 185040, Tempo, 1132075
1, 185400, Tempo, 1333333
1, 185400, End_track
2, 0, Start_track
2, 0, Program_c, 0, 19
2, 0, Control_c, 0, 7, 127
2, 11520, Note_on_c, 0, 70, 110
2, 12480, Note_on_c, 0, 67, 110
2, 12524, Note_off_c, 0, 70, 64
2, 12960, Note_on_c, 0, 72, 110
2, 12965, Note_off_c, 0, 67, 64
2, 13440, Note_on_c, 0, 70, 110
2, 13463, Note_off_c, 0, 72, 64
2, 13920, Note_on_c, 0, 75, 110
2, 13936, Note_off_c, 0, 70, 64
2, 14877, Note_off_c, 0, 75, 64
2, 14880, Note_on_c, 0, 74, 110
2, 15360, Note_on_c, 0, 75, 110
2, 15418, Note_off_c, 0, 74, 64
2, 15820, Note_off_c, 0, 75, 64
2, 15840, Note_on_c, 0, 70, 110
2, 16560, Note_on_c, 0, 68, 110
2, 16582, Note_off_c, 0, 70, 64
2, 16800, Note_on_c, 0, 67, 110
2, 16822, Note_off_c, 0, 68, 64
2, 17040, Note_on_c, 0, 68, 110
2, 17057, Note_off_c, 0, 67, 64
2, 17280, Note_on_c, 0, 70, 110
2, 17307, Note_off_c, 0, 68, 64
2, 17520, Note_on_c, 0, 72, 110
2, 17538, Note_off_c, 0, 70, 64
2, 17760, Note_on_c, 0, 74, 110
2, 17766, Note_off_c, 0, 72, 64
2, 18240, Note_on_c, 0, 72, 110
2, 18258, Note_off_c, 0, 74, 64
2, 19200, Note_on_c, 0, 70, 110
2, 19237, Note_off_c, 0, 72, 64
2, 19434, Note_off_c, 0, 70, 64
2, 19440, Note_on_c, 0, 72, 110
2, 19680, Note_on_c, 0, 74, 110
2, 19684, Note_off_c, 0, 72, 64
2, 19920, Note_on_c, 0, 75, 110
2, 19950, Note_off_c, 0, 74, 64
2, 20160, Note_on_c, 0, 77, 110
2, 20179, Note_off_c, 0, 75, 64
2, 20640, Note_on_c, 0, 72, 110
2, 20648, Note_off_c, 0, 77, 64
2, 20880, Note_on_c, 0, 74, 110
2, 20897, Note_off_c, 0, 72, 64
2, 21120, Note_on_c, 0, 75, 110
2, 21143, Note_off_c, 0, 74, 64
2, 21360, Note_on_c, 0, 77, 110
2, 21375, Note_off_c, 0, 75, 64
2, 21600, Note_on_c, 0, 79, 110
2, 21623, Note_off_c, 0, 77, 64
2, 22752, Note_off_c, 0, 79, 64
2, 22800, Note_on_c, 0, 77, 110
2, 23040, Note_on_c, 0, 75, 110
2, 23057, Note_off_c, 0, 77, 64
2, 23280, Note_on_c, 0, 72, 110
2, 23293, Note_off_c, 0, 75, 64
2, 23520, Note_on_c, 0, 77, 110
2, 23537, Note_off_c, 0, 72, 64
2, 23760, Note_on_c, 0, 75, 110
2, 23774, Note_off_c, 0, 77, 64
2, 24000, Note_on_c, 0, 74, 110
2, 24010, Note_off_c, 0, 75, 64
2, 24240, Note_on_c, 0, 70, 110
2, 24243, Note_off_c, 0, 74, 64
2, 24480, Note_on_c, 0, 75, 110
2, 24512, Note_off_c, 0, 70, 64
2, 25432, Note_off_c, 0, 75, 64
2, 25440, Note_on_c, 0, 74, 110
2, 25920, Note_on_c, 0, 75, 110
2, 25943, Note_off_c, 0, 74, 64
2, 26904, Note_off_c, 0, 75, 64
2, 27120, Note_on_c, 0, 82, 110
2, 27360, Note_on_c, 0, 80, 110
2, 27378, Note_off_c, 0, 82, 64
2, 27600, Note_on_c, 0, 79, 110
2, 27610, Note_off_c, 0, 80, 64
2, 27840, Note_on_c, 0, 80, 110
2, 27861, Note_off_c, 0, 79, 64
2, 28078, Note_off_c, 0, 80, 64
2, 28080, Note_on_c, 0, 77, 110
2, 28320, Note_on_c, 0, 82, 110
2, 28327, Note_off_c, 0, 77, 64
2, 28560, Note_on_c, 0, 80, 110
2, 28582, Note_off_c, 0, 82, 64
2, 28800, Note_on_c, 0, 79, 110
2, 28802, Note_off_c, 0, 80, 64
2, 29280, Note_on_c, 0, 80, 110
2, 29289, Note_off_c, 0, 79, 64
2, 30240, Note_on_c, 0, 79, 110
2, 30259, Note_off_c, 0, 80, 64
2, 31200, Note_on_c, 0, 77, 110
2, 31210, Note_off_c, 0, 79, 64
2, 31920, Note_on_c, 0, 80, 110
2, 31943, Note_off_c, 0, 77, 64
2, 32160, Note_on_c, 0, 79, 110
2, 32187, Note_off_c, 0, 80, 64
2, 32400, Note_on_c, 0, 77, 110
2, 32422, Note_off_c, 0, 79, 64
2, 32640, Note_on_c, 0, 75, 110
2, 32667, Note_off_c, 0, 77, 64
2, 34080, Note_off_c, 0, 75, 64
2, 34080, Note_on_c, 0, 74, 110
2, 35038, Note_off_c, 0, 74, 64
2, 35040, Note_on_c, 0, 75, 110
2, 35520, Note_on_c, 0, 77, 110
2, 35580, Note_off_c, 0, 75, 64
2, 36717, Note_off_c, 0, 77, 64
2, 36720, Note_on_c, 0, 81, 110
2, 36960, Note_on_c, 0, 82, 110
2, 36989, Note_off_c, 0, 81, 64
2, 37200, Note_on_c, 0, 75, 110
2, 37241, Note_off_c, 0, 82, 64
2, 37430, Note_off_c, 0, 75, 64
2, 37440, Note_on_c, 0, 74, 110
2, 37920, Note_on_c, 0, 72, 110
2, 37938, Note_off_c, 0, 74, 64
2, 38400, Note_on_c, 0, 70, 110
2, 38443, Note_off_c, 0, 72, 64
2, 38837, Note_off_c, 0, 70, 64
2, 39840, Note_on_c, 0, 75, 110
2, 40320, Note_on_c, 0, 74, 110
2, 40335, Note_off_c, 0, 75, 64
2, 40785, Note_off_c, 0, 74, 64
2, 40800, Note_on_c, 0, 79, 110
2, 41280, Note_on_c, 0, 77, 110
2, 41313, Note_off_c, 0, 79, 64
2, 41664, Note_off_c, 0, 77, 64
2, 41760, Note_on_c, 0, 82, 110
2, 42720, Note_on_c, 0, 80, 110
2, 42755, Note_off_c, 0, 82, 64
2, 43680, Note_on_c, 0, 79, 110
2, 43686, Note_off_c, 0, 80, 64
2, 44160, Note_on_c, 0, 77, 110
2, 44170, Note_off_c, 0, 79, 64
2, 45312, Note_off_c, 0, 77, 64
2, 45360, Note_on_c, 0, 75, 110
2, 45600, Note_on_c, 0, 74, 110
2, 45652, Note_off_c, 0, 75, 64
2, 45840, Note_on_c, 0, 72, 110
2, 45855, Note_off_c, 0, 74, 64
2, 46080, Note_on_c, 0, 74, 110
2, 46096, Note_off_c, 0, 72, 64
2, 46297, Note_off_c, 0, 74, 64
2, 46320, Note_on_c, 0, 70, 110
2, 46560, Note_on_c, 0, 75, 110
2, 46576, Note_off_c, 0, 70, 64
2, 46800, Note_on_c, 0, 74, 110
2, 46811, Note_off_c, 0, 75, 64
2, 47040, Note_on_c, 0, 72, 110
2, 47051, Note_off_c, 0, 74, 64
2, 48000, Note_on_c, 0, 70, 110
2, 48037, Note_off_c, 0, 72, 64
2, 48960, Note_on_c, 0, 68, 110
2, 49001, Note_off_c, 0, 70, 64
2, 49901, Note_off_c, 0, 68, 64
2, 49920, Note_on_c, 0, 67, 110
2, 50400, Note_on_c, 0, 72, 110
2, 50413, Note_off_c, 0, 67, 64
2, 50880, Note_on_c, 0, 70, 110
2, 50889, Note_off_c, 0, 72, 64
2, 51360, Note_on_c, 0, 75, 110
2, 51399, Note_off_c, 0, 70, 64
2, 52320, Note_on_c, 0, 74, 110
2, 52334, Note_off_c, 0, 75, 64
2, 52800, Note_on_c, 0, 76, 110
2, 52824, Note_off_c, 0, 74, 64
2, 53280, Note_on_c, 0, 77, 110
2, 53283, Note_off_c, 0, 76, 64
2, 54240, Note_on_c, 0, 75, 110
2, 54266, Note_off_c, 0, 77, 64
2, 55200, Note_on_c, 0, 74, 110
2, 55235, Note_off_c, 0, 75, 64
2, 55653, Note_off_c, 0, 74, 64
2, 55680, Note_on_c, 0, 72, 110
2, 56448, Note_off_c, 0, 72, 64
2, 56640, Note_on_c, 0, 70, 110
2, 57740, Note_off_c, 0, 70, 64
2, 57840, Note_on_c, 0, 70, 110
2, 58080, Note_on_c, 0, 72, 110
2, 58103, Note_off_c, 0, 70, 64
2, 58320, Note_on_c, 0, 74, 110
2, 58346, Note_off_c, 0, 72, 64
2, 58560, Note_on_c, 0, 75, 110
2, 58584, Note_off_c, 0, 74, 64
2, 58800, Note_on_c, 0, 74, 110
2, 58804, Note_off_c, 0, 75, 64
2, 59040, Note_on_c, 0, 75, 110
2, 59049, Note_off_c, 0, 74, 64
2, 59280, Note_on_c, 0, 77, 110
2, 59300, Note_off_c, 0, 75, 64
2, 59520, Note_on_c, 0, 79, 110
2, 59541, Note_off_c, 0, 77, 64
2, 59749, Note_off_c, 0, 79, 64
2, 59760, Note_on_c, 0, 77, 110
2, 60000, Note_on_c, 0, 79, 110
2, 60016, Note_off_c, 0, 77, 64
2, 60240, Note_on_c, 0, 80, 110
2, 60250, Note_off_c, 0, 79, 64
2, 60480, Note_on_c, 0, 82, 110
2, 60507, Note_off_c, 0, 80, 64
2, 60720, Note_on_c, 0, 84, 110
2, 60741, Note_off_c, 0, 82, 64
2, 60960, Note_on_c, 0, 82, 110
2, 60976, Note_off_c, 0, 84, 64
2, 61200, Note_off_c, 0, 82, 64
2, 61200, Note_on_c, 0, 80, 110
2, 61440, Note_on_c, 0, 79, 110
2, 61449, Note_off_c, 0, 80, 64
2, 61680, Note_on_c, 0, 75, 110
2, 61682, Note_off_c, 0, 79, 64
2, 61920, Note_on_c, 0, 80, 110
2, 61947, Note_off_c, 0, 75, 64
2, 62880, Note_on_c, 0, 79, 110
2, 62886, Note_off_c, 0, 80, 64
2, 63840, Note_on_c, 0, 77, 110
2, 63862, Note_off_c, 0, 79, 64
2, 64800, Note_on_c, 0, 75, 110
2, 64835, Note_off_c, 0, 77, 64
2, 65760, Note_on_c, 0, 73, 110
2, 65787, Note_off_c, 0, 75, 64
2, 66715, Note_off_c, 0, 73, 64
2, 66720, Note_on_c, 0, 72, 110
2, 66960, Note_on_c, 0, 77, 110
2, 66993, Note_off_c, 0, 72, 64
2, 67198, Note_off_c, 0, 77, 64
2, 67200, Note_on_c, 0, 74, 110
2, 67440, Note_on_c, 0, 70, 110
2, 67452, Note_off_c, 0, 74, 64
2, 67680, Note_on_c, 0, 75, 110
2, 67688, Note_off_c, 0, 70, 64
2, 68640, Note_on_c, 0, 74, 110
2, 68674, Note_off_c, 0, 75, 64
2, 69120, Note_on_c, 0, 75, 110
2, 69153, Note_off_c, 0, 74, 64
2, 69345, Note_off_c, 0, 75, 64
2, 80880, Note_on_c, 0, 70, 96
2, 80976, Note_off_c, 0, 70, 64
2, 81000, Note_on_c, 0, 69, 96
2, 81096, Note_off_c, 0, 69, 64
2, 81120, Note_on_c, 0, 70, 96
2, 81216, Note_off_c, 0, 70, 64
2, 81240, Note_on_c, 0, 72, 96
2, 81336, Note_off_c, 0, 72, 64
2, 81360, Note_on_c, 0, 74, 96
2, 81456, Note_off_c, 0, 74, 64
2, 81480, Note_on_c, 0, 72, 96
2, 81576, Note_off_c, 0, 72, 64
2, 81600, Note_on_c, 0, 74, 96
2, 81696, Note_off_c, 0, 74, 64
2, 81720, Note_on_c, 0, 75, 96
2, 81816, Note_off_c, 0, 75, 64
2, 81840, Note_on_c, 0, 74, 96
2, 81936, Note_off_c, 0, 74, 64
2, 81960, Note_on_c, 0, 75, 96
2, 82056, Note_off_c, 0, 75, 64
2, 82080, Note_on_c, 0, 72, 96
2, 82176, Note_off_c, 0, 72, 64
2, 82200, Note_on_c, 0, 70, 96
2, 82296, Note_off_c, 0, 70, 64
2, 82320, Note_on_c, 0, 72, 96
2, 82416, Note_off_c, 0, 72, 64
2, 82440, Note_on_c, 0, 74, 96
2, 82536, Note_off_c, 0, 74, 64
2, 82560, Note_on_c, 0, 72, 96
2, 82656, Note_off_c, 0, 72, 64
2, 82680, Note_on_c, 0, 74, 96
2, 82776, Note_off_c, 0, 74, 64
2, 82800, Note_on_c, 0, 75, 96
2, 82896, Note_off_c, 0, 75, 64
2, 82920, Note_on_c, 0, 74, 96
2, 83016, Note_off_c, 0, 74, 64
2, 83040, Note_on_c, 0, 75, 96
2, 83136, Note_off_c, 0, 75, 64
2, 83160, Note_on_c, 0, 77, 96
2, 83256, Note_off_c, 0, 77, 64
2, 83280, Note_on_c, 0, 75, 96
2, 83376, Note_off_c, 0, 75, 64
2, 83400, Note_on_c, 0, 77, 96
2, 83496, Note_off_c, 0, 77, 64
2, 83520, Note_on_c, 0, 74, 96
2, 83616, Note_off_c, 0, 74, 64
2, 83640, Note_on_c, 0, 72, 96
2, 83736, Note_off_c, 0, 72, 64
2, 83760, Note_on_c, 0, 74, 96
2, 83856, Note_off_c, 0, 74, 64
2, 83880, Note_on_c, 0, 75, 96
2, 83976, Note_off_c, 0, 75, 64
2, 84000, Note_on_c, 0, 77, 96
2, 84096, Note_off_c, 0, 77, 64
2, 84120, Note_on_c, 0, 74, 96
2, 84216, Note_off_c, 0, 74, 64
2, 84240, Note_on_c, 0, 75, 96
2, 84432, Note_off_c, 0, 75, 64
2, 84480, Note_on_c, 0, 82, 96
2, 84672, Note_off_c, 0, 82, 64
2, 84720, Note_on_c, 0, 73, 96
2, 85152, Note_off_c, 0, 73, 64
2, 85200, Note_on_c, 0, 72, 96
2, 85296, Note_off_c, 0, 72, 64
2, 85320, Note_on_c, 0, 71, 96
2, 85416, Note_off_c, 0, 71, 64
2, 85440, Note_on_c, 0, 72, 96
2, 85536, Note_off_c, 0, 72, 64
2, 85560, Note_on_c, 0, 75, 96
2, 85656, Note_off_c, 0, 75, 64
2, 85680, Note_on_c, 0, 74, 96
2, 85872, Note_off_c, 0, 74, 64
2, 85920, Note_on_c, 0, 80, 96
2, 86112, Note_off_c, 0, 80, 64
2, 86160, Note_on_c, 0, 72, 96
2, 86592, Note_off_c, 0, 72, 64
2, 86640, Note_on_c, 0, 70, 96
2, 86736, Note_off_c, 0, 70, 64
2, 86760, Note_on_c, 0, 74, 96
2, 86856, Note_off_c, 0, 74, 64
2, 86880, Note_on_c, 0, 72, 96
2, 86976, Note_off_c, 0, 72, 64
2, 87000, Note_on_c, 0, 70, 96
2, 87096, Note_off_c, 0, 70, 64
2, 87120, Note_on_c, 0, 75, 96
2, 88032, Note_off_c, 0, 75, 64
2, 88080, Note_on_c, 0, 77, 96
2, 88272, Note_off_c, 0, 77, 64
2, 88320, Note_on_c, 0, 75, 96
2, 88512, Note_off_c, 0, 75, 64
2, 88560, Note_on_c, 0, 74, 96
2, 89376, Note_off_c, 0, 74, 64
2, 89400, Note_on_c, 0, 67, 96
2, 89496, Note_off_c, 0, 67, 64
2, 89520, Note_on_c, 0, 72, 96
2, 89712, Note_off_c, 0, 72, 64
2, 89760, Note_on_c, 0, 71, 96
2, 89952, Note_off_c, 0, 71, 64
2, 90000, Note_on_c, 0, 72, 96
2, 90192, Note_off_c, 0, 72, 64
2, 90240, Note_on_c, 0, 74, 96
2, 90432, Note_off_c, 0, 74, 64
2, 90480, Note_on_c, 0, 72, 96
2, 90672, Note_off_c, 0, 72, 64
2, 90720, Note_on_c, 0, 70, 96
2, 91632, Note_off_c, 0, 70, 64
2, 91680, Note_on_c, 0, 72, 96
2, 91872, Note_off_c, 0, 72, 64
2, 91920, Note_on_c, 0, 70, 96
2, 92112, Note_off_c, 0, 70, 64
2, 92160, Note_on_c, 0, 68, 96
2, 92544, Note_off_c, 0, 68, 64
2, 92640, Note_on_c, 0, 70, 96
2, 92832, Note_off_c, 0, 70, 64
2, 92880, Note_on_c, 0, 72, 96
2, 93264, Note_off_c, 0, 72, 64
2, 93360, Note_on_c, 0, 74, 96
2, 93552, Note_off_c, 0, 74, 64
2, 93600, Note_on_c, 0, 75, 96
2, 94176, Note_off_c, 0, 75, 64
2, 94320, Note_on_c, 0, 74, 96
2, 94512, Note_off_c, 0, 74, 64
2, 94560, Note_on_c, 0, 79, 96
2, 94944, Note_off_c, 0, 79, 64
2, 95040, Note_on_c, 0, 77, 96
2, 96576, Note_off_c, 0, 77, 64
2, 96600, Note_on_c, 0, 75, 96
2, 96696, Note_off_c, 0, 75, 64
2, 96720, Note_on_c, 0, 77, 96
2, 96816, Note_off_c, 0, 77, 64
2, 96840, Note_on_c, 0, 79, 96
2, 96936, Note_off_c, 0, 79, 64
2, 96960, Note_on_c, 0, 77, 96
2, 97056, Note_off_c, 0, 77, 64
2, 97080, Note_on_c, 0, 79, 96
2, 97176, Note_off_c, 0, 79, 64
2, 97200, Note_on_c, 0, 80, 96
2, 97296, Note_off_c, 0, 80, 64
2, 97320, Note_on_c, 0, 79, 96
2, 97416, Note_off_c, 0, 79, 64
2, 97440, Note_on_c, 0, 80, 96
2, 97536, Note_off_c, 0, 80, 64
2, 97560, Note_on_c, 0, 82, 96
2, 97656, Note_off_c, 0, 82, 64
2, 97680, Note_on_c, 0, 80, 96
2, 97776, Note_off_c, 0, 80, 64
2, 97800, Note_on_c, 0, 82, 96
2, 97896, Note_off_c, 0, 82, 64
2, 97920, Note_on_c, 0, 79, 96
2, 98016, Note_off_c, 0, 79, 64
2, 98040, Note_on_c, 0, 77, 96
2, 98136, Note_off_c, 0, 77, 64
2, 98160, Note_on_c, 0, 79, 96
2, 98256, Note_off_c, 0, 79, 64
2, 98280, Note_on_c, 0, 81, 96
2, 98376, Note_off_c, 0, 81, 64
2, 98400, Note_on_c, 0, 79, 96
2, 98496, Note_off_c, 0, 79, 64
2, 98520, Note_on_c, 0, 81, 96
2, 98616, Note_off_c, 0, 81, 64
2, 98640, Note_on_c, 0, 82, 96
2, 98736, Note_off_c, 0, 82, 64
2, 98760, Note_on_c, 0, 81, 96
2, 98856, Note_off_c, 0, 81, 64
2, 98880, Note_on_c, 0, 82, 96
2, 98976, Note_off_c, 0, 82, 64
2, 99000, Note_on_c, 0, 84, 96
2, 99096, Note_off_c, 0, 84, 64
2, 99120, Note_on_c, 0, 82, 96
2, 99216, Note_off_c, 0, 82, 64
2, 99240, Note_on_c, 0, 84, 96
2, 99336, Note_off_c, 0, 84, 64
2, 99360, Note_on_c, 0, 81, 96
2, 99744, Note_off_c, 0, 81, 64
2, 99840, Note_on_c, 0, 82, 96
2, 100224, Note_off_c, 0, 82, 64
2, 100320, Note_on_c, 0, 82, 96
2, 100368, Note_off_c, 0, 82, 64
2, 100380, Note_on_c, 0, 81, 96
2, 100428, Note_off_c, 0, 81, 64
2, 100440, Note_on_c, 0, 82, 96
2, 100488, Note_off_c, 0, 82, 64
2, 100500, Note_on_c, 0, 81, 96
2, 100548, Note_off_c, 0, 81, 64
2, 100560, Note_on_c, 0, 82, 96
2, 100608, Note_off_c, 0, 82, 64
2, 100620, Note_on_c, 0, 81, 96
2, 100668, Note_off_c, 0, 81, 64
2, 100680, Note_on_c, 0, 82, 96
2, 100728, Note_off_c, 0, 82, 64
2, 100740, Note_on_c, 0, 81, 96
2, 100788, Note_off_c, 0, 81, 64
2, 100800, Note_on_c, 0, 81, 96
2, 100848, Note_off_c, 0, 81, 64
2, 100860, Note_on_c, 0, 82, 96
2, 100860, Note_on_c, 0, 82, 96
2, 101436, Note_off_c, 0, 82, 64
2, 101436, Note_off_c, 0, 82, 64
2, 113280, Note_on_c, 0, 65, 96
2, 113376, Note_off_c, 0, 65, 64
2, 113400, Note_on_c, 0, 64, 96
2, 113496, Note_off_c, 0, 64, 64
2, 113520, Note_on_c, 0, 65, 96
2, 113616, Note_off_c, 0, 65, 64
2, 113640, Note_on_c, 0, 67, 96
2, 113736, Note_off_c, 0, 67, 64
2, 113760, Note_on_c, 0, 68, 96
2, 113856, Note_off_c, 0, 68, 64
2, 113880, Note_on_c, 0, 67, 96
2, 113976, Note_off_c, 0, 67, 64
2, 114000, Note_on_c, 0, 68, 96
2, 114096, Note_off_c, 0, 68, 64
2, 114120, Note_on_c, 0, 70, 96
2, 114216, Note_off_c, 0, 70, 64
2, 114240, Note_on_c, 0, 68, 96
2, 114336, Note_off_c, 0, 68, 64
2, 114360, Note_on_c, 0, 70, 96
2, 114456, Note_off_c, 0, 70, 64
2, 114480, Note_on_c, 0, 72, 96
2, 114576, Note_off_c, 0, 72, 64
2, 114600, Note_on_c, 0, 70, 96
2, 114696, Note_off_c, 0, 70, 64
2, 114720, Note_on_c, 0, 72, 96
2, 114816, Note_off_c, 0, 72, 64
2, 114840, Note_on_c, 0, 73, 96
2, 114936, Note_off_c, 0, 73, 64
2, 114960, Note_on_c, 0, 72, 96
2, 115056, Note_off_c, 0, 72, 64
2, 115080, Note_on_c, 0, 70, 96
2, 115176, Note_off_c, 0, 70, 64
2, 115200, Note_on_c, 0, 68, 96
2, 115296, Note_off_c, 0, 68, 64
2, 115320, Note_on_c, 0, 67, 96
2, 115416, Note_off_c, 0, 67, 64
2, 115440, Note_on_c, 0, 68, 96
2, 115536, Note_off_c, 0, 68, 64
2, 115560, Note_on_c, 0, 70, 96
2, 115656, Note_off_c, 0, 70, 64
2, 115680, Note_on_c, 0, 68, 96
2, 115776, Note_off_c, 0, 68, 64
2, 115800, Note_on_c, 0, 70, 96
2, 115896, Note_off_c, 0, 70, 64
2, 115920, Note_on_c, 0, 72, 96
2, 116016, Note_off_c, 0, 72, 64
2, 116040, Note_on_c, 0, 70, 96
2, 116136, Note_off_c, 0, 70, 64
2, 116160, Note_on_c, 0, 72, 96
2, 116256, Note_off_c, 0, 72, 64
2, 116280, Note_on_c, 0, 74, 96
2, 116376, Note_off_c, 0, 74, 64
2, 116400, Note_on_c, 0, 72, 96
2, 116496, Note_off_c, 0, 72, 64
2, 116520, Note_on_c, 0, 74, 96
2, 116616, Note_off_c, 0, 74, 64
2, 116640, Note_on_c, 0, 75, 96
2, 116736, Note_off_c, 0, 75, 64
2, 116760, Note_on_c, 0, 74, 96
2, 116856, Note_off_c, 0, 74, 64
2, 116880, Note_on_c, 0, 75, 96
2, 116976, Note_off_c, 0, 75, 64
2, 117000, Note_on_c, 0, 77, 96
2, 117096, Note_off_c, 0, 77, 64
2, 117120, Note_on_c, 0, 75, 96
2, 117216, Note_off_c, 0, 75, 64
2, 117240, Note_on_c, 0, 77, 96
2, 117336, Note_off_c, 0, 77, 64
2, 117360, Note_on_c, 0, 79, 96
2, 117456, Note_off_c, 0, 79, 64
2, 117480, Note_on_c, 0, 77, 96
2, 117576, Note_off_c, 0, 77, 64
2, 117600, Note_on_c, 0, 79, 96
2, 117696, Note_off_c, 0, 79, 64
2, 117720, Note_on_c, 0, 80, 96
2, 117816, Note_off_c, 0, 80, 64
2, 117840, Note_on_c, 0, 79, 96
2, 117936, Note_off_c, 0, 79, 64
2, 117960, Note_on_c, 0, 77, 96
2, 118056, Note_off_c, 0, 77, 64
2, 118080, Note_on_c, 0, 75, 96
2, 118176, Note_off_c, 0, 75, 64
2, 118200, Note_on_c, 0, 74, 96
2, 118296, Note_off_c, 0, 74, 64
2, 118320, Note_on_c, 0, 75, 96
2, 118416, Note_off_c, 0, 75, 64
2, 118440, Note_on_c, 0, 77, 96
2, 118536, Note_off_c, 0, 77, 64
2, 118560, Note_on_c, 0, 79, 96
2, 118944, Note_off_c, 0, 79, 64
2, 119040, Note_on_c, 0, 77, 96
2, 119232, Note_off_c, 0, 77, 64
2, 119280, Note_on_c, 0, 75, 96
2, 119616, Note_off_c, 0, 75, 64
2, 119640, Note_on_c, 0, 72, 96
2, 119736, Note_off_c, 0, 72, 64
2, 119760, Note_on_c, 0, 74, 96
2, 119856, Note_off_c, 0, 74, 64
2, 119880, Note_on_c, 0, 75, 96
2, 119976, Note_off_c, 0, 75, 64
2, 120000, Note_on_c, 0, 77, 96
2, 120384, Note_off_c, 0, 77, 64
2, 120480, Note_on_c, 0, 75, 96
2, 120672, Note_off_c, 0, 75, 64
2, 120720, Note_on_c, 0, 80, 96
2, 121152, Note_off_c, 0, 80, 64
2, 121200, Note_on_c, 0, 79, 96
2, 121392, Note_off_c, 0, 79, 64
2, 121440, Note_on_c, 0, 78, 96
2, 121632, Note_off_c, 0, 78, 64
2, 121680, Note_on_c, 0, 79, 96
2, 121776, Note_off_c, 0, 79, 64
2, 121800, Note_on_c, 0, 77, 96
2, 121896, Note_off_c, 0, 77, 64
2, 121920, Note_on_c, 0, 79, 96
2, 122016, Note_off_c, 0, 79, 64
2, 122040, Note_on_c, 0, 80, 96
2, 122136, Note_off_c, 0, 80, 64
2, 122160, Note_on_c, 0, 79, 96
2, 122256, Note_off_c, 0, 79, 64
2, 122280, Note_on_c, 0, 77, 96
2, 122376, Note_off_c, 0, 77, 64
2, 122400, Note_on_c, 0, 75, 96
2, 122496, Note_off_c, 0, 75, 64
2, 122520, Note_on_c, 0, 77, 96
2, 122616, Note_off_c, 0, 77, 64
2, 122640, Note_on_c, 0, 75, 96
2, 122736, Note_off_c, 0, 75, 64
2, 122760, Note_on_c, 0, 74, 96
2, 122856, Note_off_c, 0, 74, 64
2, 122880, Note_on_c, 0, 75, 96
2, 122976, Note_off_c, 0, 75, 64
2, 123000, Note_on_c, 0, 74, 96
2, 123096, Note_off_c, 0, 74, 64
2, 123120, Note_on_c, 0, 72, 96
2, 123216, Note_off_c, 0, 72, 64
2, 123240, Note_on_c, 0, 70, 96
2, 123336, Note_off_c, 0, 70, 64
2, 123360, Note_on_c, 0, 72, 96
2, 123456, Note_off_c, 0, 72, 64
2, 123480, Note_on_c, 0, 75, 96
2, 123576, Note_off_c, 0, 75, 64
2, 123600, Note_on_c, 0, 74, 96
2, 123696, Note_off_c, 0, 74, 64
2, 123720, Note_on_c, 0, 72, 96
2, 123816, Note_off_c, 0, 72, 64
2, 123840, Note_on_c, 0, 70, 96
2, 124224, Note_off_c, 0, 70, 64
2, 124320, Note_on_c, 0, 70, 96
2, 124512, Note_off_c, 0, 70, 64
2, 124560, Note_on_c, 0, 75, 96
2, 124944, Note_off_c, 0, 75, 64
2, 125040, Note_on_c, 0, 76, 96
2, 125232, Note_off_c, 0, 76, 64
2, 125280, Note_on_c, 0, 77, 96
2, 125664, Note_off_c, 0, 77, 64
2, 125760, Note_on_c, 0, 72, 96
2, 125952, Note_off_c, 0, 72, 64
2, 126000, Note_on_c, 0, 77, 96
2, 126384, Note_off_c, 0, 77, 64
2, 126480, Note_on_c, 0, 78, 96
2, 126672, Note_off_c, 0, 78, 64
2, 126720, Note_on_c, 0, 79, 96
2, 127632, Note_off_c, 0, 79, 64
2, 127680, Note_on_c, 0, 84, 96
2, 128064, Note_off_c, 0, 84, 64
2, 128160, Note_on_c, 0, 82, 96
2, 128352, Note_off_c, 0, 82, 64
2, 128400, Note_on_c, 0, 80, 96
2, 129072, Note_off_c, 0, 80, 64
2, 129120, Note_on_c, 0, 79, 96
2, 129792, Note_off_c, 0, 79, 64
2, 129840, Note_on_c, 0, 80, 96
2, 130032, Note_off_c, 0, 80, 64
2, 130080, Note_on_c, 0, 79, 96
2, 130464, Note_off_c, 0, 79, 64
2, 130560, Note_on_c, 0, 77, 96
2, 130752, Note_off_c, 0, 77, 64
2, 130800, Note_on_c, 0, 75, 96
2, 131232, Note_off_c, 0, 75, 64
2, 131280, Note_on_c, 0, 74, 96
2, 131472, Note_off_c, 0, 74, 64
2, 131520, Note_on_c, 0, 72, 96
2, 131712, Note_off_c, 0, 72, 64
2, 131760, Note_on_c, 0, 77, 96
2, 132576, Note_off_c, 0, 77, 64
2, 132600, Note_on_c, 0, 77, 96
2, 132696, Note_off_c, 0, 77, 64
2, 132720, Note_on_c, 0, 75, 96
2, 132816, Note_off_c, 0, 75, 64
2, 132840, Note_on_c, 0, 74, 96
2, 132936, Note_off_c, 0, 74, 64
2, 132960, Note_on_c, 0, 75, 96
2, 133248, Note_off_c, 0, 75, 64
2, 133320, Note_on_c, 0, 77, 96
2, 133416, Note_off_c, 0, 77, 64
2, 133440, Note_on_c, 0, 74, 96
2, 133728, Note_off_c, 0, 74, 64
2, 133800, Note_on_c, 0, 72, 96
2, 133896, Note_off_c, 0, 72, 64
2, 133920, Note_on_c, 0, 72, 96
2, 134208, Note_off_c, 0, 72, 64
2, 142200, Note_on_c, 0, 79, 110
2, 142320, Note_on_c, 0, 77, 110
2, 142335, Note_off_c, 0, 79, 64
2, 142440, Note_on_c, 0, 79, 110
2, 142449, Note_off_c, 0, 77, 64
2, 142560, Note_on_c, 0, 72, 110
2, 142563, Note_off_c, 0, 79, 64
2, 142680, Note_on_c, 0, 76, 110
2, 142683, Note_off_c, 0, 72, 64
2, 142740, Note_on_c, 0, 74, 110
2, 142744, Note_off_c, 0, 76, 64
2, 142800, Note_on_c, 0, 76, 110
2, 142810, Note_off_c, 0, 74, 64
2, 142856, Note_off_c, 0, 76, 64
2, 142860, Note_on_c, 0, 72, 110
2, 142920, Note_on_c, 0, 77, 110
2, 142939, Note_off_c, 0, 72, 64
2, 143040, Note_on_c, 0, 75, 110
2, 143045, Note_off_c, 0, 77, 64
2, 143160, Note_on_c, 0, 77, 110
2, 143173, Note_off_c, 0, 75, 64
2, 143280, Note_on_c, 0, 70, 110
2, 143290, Note_off_c, 0, 77, 64
2, 143400, Note_on_c, 0, 74, 110
2, 143411, Note_off_c, 0, 70, 64
2, 143457, Note_off_c, 0, 74, 64
2, 143460, Note_on_c, 0, 72, 110
2, 143520, Note_on_c, 0, 74, 110
2, 143526, Note_off_c, 0, 72, 64
2, 143576, Note_off_c, 0, 74, 64
2, 143580, Note_on_c, 0, 70, 110
2, 143628, Note_off_c, 0, 70, 64
2, 143640, Note_on_c, 0, 75, 110
2, 144355, Note_off_c, 0, 75, 64
2, 144360, Note_on_c, 0, 74, 110
2, 144648, Note_off_c, 0, 74, 64
2, 144720, Note_on_c, 0, 79, 110
2, 145440, Note_on_c, 0, 77, 110
2, 145451, Note_off_c, 0, 79, 64
2, 145800, Note_off_c, 0, 77, 64
2, 145800, Note_on_c, 0, 82, 110
2, 146515, Note_off_c, 0, 82, 64
2, 146520, Note_on_c, 0, 81, 110
2, 146880, Note_on_c, 0, 82, 110
2, 146908, Note_off_c, 0, 81, 64
2, 146996, Note_off_c, 0, 82, 64
2, 147240, Note_on_c, 0, 82, 110
2, 147360, Note_on_c, 0, 80, 110
2, 147375, Note_off_c, 0, 82, 64
2, 147463, Note_off_c, 0, 80, 64
2, 147480, Note_on_c, 0, 82, 110
2, 147600, Note_on_c, 0, 75, 110
2, 147618, Note_off_c, 0, 82, 64
2, 147720, Note_on_c, 0, 79, 110
2, 147725, Note_off_c, 0, 75, 64
2, 147776, Note_off_c, 0, 79, 64
2, 147780, Note_on_c, 0, 77, 110
2, 147840, Note_on_c, 0, 79, 110
2, 147844, Note_off_c, 0, 77, 64
2, 147888, Note_off_c, 0, 79, 64
2, 147900, Note_on_c, 0, 75, 110
2, 147960, Note_on_c, 0, 80, 110
2, 147979, Note_off_c, 0, 75, 64
2, 148080, Note_on_c, 0, 79, 110
2, 148081, Note_off_c, 0, 80, 64
2, 148197, Note_off_c, 0, 79, 64
2, 148200, Note_on_c, 0, 80, 110
2, 148320, Note_off_c, 0, 80, 64
2, 148320, Note_on_c, 0, 74, 110
2, 148440, Note_on_c, 0, 77, 110
2, 148449, Note_off_c, 0, 74, 64
2, 148499, Note_off_c, 0, 77, 64
2, 148500, Note_on_c, 0, 75, 110
2, 148557, Note_off_c, 0, 75, 64
2, 148560, Note_on_c, 0, 77, 110
2, 148617, Note_off_c, 0, 77, 64
2, 148620, Note_on_c, 0, 74, 110
2, 148669, Note_off_c, 0, 74, 64
2, 148680, Note_on_c, 0, 79, 110
2, 149395, Note_off_c, 0, 79, 64
2, 149400, Note_on_c, 0, 77, 110
2, 149640, Note_on_c, 0, 75, 110
2, 149675, Note_off_c, 0, 77, 64
2, 149760, Note_on_c, 0, 74, 110
2, 149763, Note_off_c, 0, 75, 64
2, 150115, Note_off_c, 0, 74, 64
2, 150480, Note_on_c, 0, 77, 110
2, 151056, Note_off_c, 0, 77, 64
2, 151200, Note_on_c, 0, 75, 110
2, 151656, Note_off_c, 0, 75, 64
2, 151680, Note_on_c, 0, 73, 110
2, 151798, Note_off_c, 0, 73, 64
2, 151800, Note_on_c, 0, 75, 110
2, 151920, Note_on_c, 0, 68, 110
2, 151928, Note_off_c, 0, 75, 64
2, 152040, Note_on_c, 0, 72, 110
2, 152048, Note_off_c, 0, 68, 64
2, 152100, Note_on_c, 0, 70, 110
2, 152102, Note_off_c, 0, 72, 64
2, 152160, Note_on_c, 0, 72, 110
2, 152164, Note_off_c, 0, 70, 64
2, 152217, Note_off_c, 0, 72, 64
2, 152220, Note_on_c, 0, 68, 110
2, 152280, Note_on_c, 0, 73, 110
2, 152284, Note_off_c, 0, 68, 64
2, 152400, Note_on_c, 0, 72, 110
2, 152405, Note_off_c, 0, 73, 64
2, 152520, Note_on_c, 0, 73, 110
2, 152522, Note_off_c, 0, 72, 64
2, 152633, Note_off_c, 0, 73, 64
2, 153000, Note_on_c, 0, 75, 110
2, 153288, Note_off_c, 0, 75, 64
2, 153360, Note_on_c, 0, 73, 110
2, 154200, Note_on_c, 0, 72, 110
2, 154205, Note_off_c, 0, 73, 64
2, 154300, Note_off_c, 0, 72, 64
2, 154800, Note_on_c, 0, 77, 110
2, 154860, Note_on_c, 0, 75, 110
2, 154861, Note_off_c, 0, 77, 64
2, 154920, Note_on_c, 0, 77, 110
2, 154930, Note_off_c, 0, 75, 64
2, 154980, Note_on_c, 0, 79, 110
2, 154984, Note_off_c, 0, 77, 64
2, 155040, Note_on_c, 0, 80, 110
2, 155048, Note_off_c, 0, 79, 64
2, 155086, Note_off_c, 0, 80, 64
2, 155100, Note_on_c, 0, 77, 110
2, 155149, Note_off_c, 0, 77, 64
2, 155160, Note_on_c, 0, 82, 110
2, 155220, Note_on_c, 0, 84, 110
2, 155221, Note_off_c, 0, 82, 64
2, 155280, Note_on_c, 0, 82, 110
2, 155295, Note_off_c, 0, 84, 64
2, 155340, Note_on_c, 0, 80, 110
2, 155342, Note_off_c, 0, 82, 64
2, 155400, Note_on_c, 0, 79, 110
2, 155410, Note_off_c, 0, 80, 64
2, 155460, Note_on_c, 0, 77, 110
2, 155464, Note_off_c, 0, 79, 64
2, 155520, Note_on_c, 0, 76, 110
2, 155521, Note_off_c, 0, 77, 64
2, 155575, Note_off_c, 0, 76, 64
2, 155580, Note_on_c, 0, 79, 110
2, 155640, Note_on_c, 0, 77, 110
2, 155661, Note_off_c, 0, 79, 64
2, 155688, Note_off_c, 0, 77, 64
2, 155700, Note_on_c, 0, 76, 110
2, 155760, Note_on_c, 0, 74, 110
2, 155768, Note_off_c, 0, 76, 64
2, 155816, Note_off_c, 0, 74, 64
2, 155820, Note_on_c, 0, 72, 110
2, 155864, Note_off_c, 0, 72, 64
2, 155880, Note_on_c, 0, 77, 110
2, 156600, Note_on_c, 0, 76, 110
2, 156603, Note_off_c, 0, 77, 64
2, 156960, Note_on_c, 0, 77, 110
2, 156980, Note_off_c, 0, 76, 64
2, 157248, Note_off_c, 0, 77, 64
2, 158040, Note_on_c, 0, 75, 110
2, 158760, Note_on_c, 0, 73, 110
2, 158781, Note_off_c, 0, 75, 64
2, 159480, Note_on_c, 0, 72, 110
2, 159489, Note_off_c, 0, 73, 64
2, 159840, Note_on_c, 0, 70, 110
2, 159858, Note_off_c, 0, 72, 64
2, 159960, Note_on_c, 0, 72, 110
2, 159962, Note_off_c, 0, 70, 64
2, 160012, Note_off_c, 0, 72, 64
2, 160020, Note_on_c, 0, 74, 110
2, 160065, Note_off_c, 0, 74, 64
2, 160080, Note_on_c, 0, 75, 110
2, 160125, Note_off_c, 0, 75, 64
2, 160140, Note_on_c, 0, 77, 110
2, 160167, Note_off_c, 0, 77, 64
2, 160200, Note_on_c, 0, 79, 110
2, 160211, Note_off_c, 0, 79, 64
2, 160260, Note_on_c, 0, 80, 110
2, 160289, Note_off_c, 0, 80, 64
2, 160320, Note_on_c, 0, 79, 110
2, 160361, Note_off_c, 0, 79, 64
2, 160380, Note_on_c, 0, 77, 110
2, 160440, Note_on_c, 0, 75, 110
2, 160446, Note_off_c, 0, 77, 64
2, 160500, Note_off_c, 0, 75, 64
2, 160500, Note_on_c, 0, 74, 110
2, 160523, Note_off_c, 0, 74, 64
2, 160560, Note_on_c, 0, 72, 110
2, 160680, Note_on_c, 0, 74, 110
2, 160688, Note_off_c, 0, 72, 64
2, 160740, Note_on_c, 0, 75, 110
2, 160741, Note_off_c, 0, 74, 64
2, 160797, Note_off_c, 0, 75, 64
2, 160800, Note_on_c, 0, 77, 110
2, 160858, Note_off_c, 0, 77, 64
2, 160860, Note_on_c, 0, 79, 110
2, 160891, Note_off_c, 0, 79, 64
2, 160920, Note_on_c, 0, 80, 110
2, 160958, Note_off_c, 0, 80, 64
2, 160980, Note_on_c, 0, 79, 110
2, 161025, Note_off_c, 0, 79, 64
2, 161040, Note_on_c, 0, 77, 110
2, 161100, Note_on_c, 0, 75, 110
2, 161104, Note_off_c, 0, 77, 64
2, 161153, Note_off_c, 0, 75, 64
2, 161160, Note_on_c, 0, 74, 110
2, 161216, Note_off_c, 0, 74, 64
2, 161220, Note_on_c, 0, 72, 110
2, 161268, Note_off_c, 0, 72, 64
2, 161280, Note_on_c, 0, 71, 110
2, 161340, Note_on_c, 0, 74, 110
2, 161342, Note_off_c, 0, 71, 64
2, 161400, Note_on_c, 0, 72, 110
2, 161411, Note_off_c, 0, 74, 64
2, 161450, Note_off_c, 0, 72, 64
2, 161460, Note_on_c, 0, 71, 110
2, 161520, Note_on_c, 0, 69, 110
2, 161522, Note_off_c, 0, 71, 64
2, 161575, Note_off_c, 0, 69, 64
2, 161580, Note_on_c, 0, 67, 110
2, 161632, Note_off_c, 0, 67, 64
2, 161640, Note_on_c, 0, 75, 110
2, 161928, Note_off_c, 0, 75, 64
2, 162000, Note_on_c, 0, 74, 110
2, 163080, Note_on_c, 0, 72, 110
2, 163103, Note_off_c, 0, 74, 64
2, 163136, Note_off_c, 0, 72, 64
2, 163140, Note_on_c, 0, 67, 110
2, 163200, Note_on_c, 0, 69, 110
2, 163206, Note_off_c, 0, 67, 64
2, 163260, Note_on_c, 0, 71, 110
2, 163269, Note_off_c, 0, 69, 64
2, 163320, Note_on_c, 0, 72, 110
2, 163326, Note_off_c, 0, 71, 64
2, 163380, Note_on_c, 0, 74, 110
2, 163383, Note_off_c, 0, 72, 64
2, 163416, Note_off_c, 0, 74, 64
2, 163440, Note_on_c, 0, 75, 110
2, 163920, Note_on_c, 0, 74, 110
2, 163930, Note_off_c, 0, 75, 64
2, 164016, Note_off_c, 0, 74, 64
2, 164040, Note_on_c, 0, 75, 110
2, 164160, Note_on_c, 0, 69, 110
2, 164169, Note_off_c, 0, 75, 64
2, 164280, Note_on_c, 0, 72, 110
2, 164287, Note_off_c, 0, 69, 64
2, 164340, Note_on_c, 0, 70, 110
2, 164344, Note_off_c, 0, 72, 64
2, 164399, Note_off_c, 0, 70, 64
2, 164400, Note_on_c, 0, 72, 110
2, 164447, Note_off_c, 0, 72, 64
2, 164460, Note_on_c, 0, 69, 110
2, 164520, Note_on_c, 0, 74, 110
2, 164531, Note_off_c, 0, 69, 64
2, 164577, Note_off_c, 0, 74, 64
2, 164580, Note_on_c, 0, 72, 110
2, 164640, Note_on_c, 0, 74, 110
2, 164654, Note_off_c, 0, 72, 64
2, 164697, Note_off_c, 0, 74, 64
2, 164700, Note_on_c, 0, 75, 110
2, 164760, Note_on_c, 0, 74, 110
2, 164769, Note_off_c, 0, 75, 64
2, 164811, Note_off_c, 0, 74, 64
2, 164820, Note_on_c, 0, 72, 110
2, 164880, Note_on_c, 0, 70, 110
2, 164886, Note_off_c, 0, 72, 64
2, 165231, Note_off_c, 0, 70, 64
2, 165300, Note_on_c, 0, 70, 110
2, 165353, Note_off_c, 0, 70, 64
2, 165360, Note_on_c, 0, 72, 110
2, 165398, Note_off_c, 0, 72, 64
2, 165420, Note_on_c, 0, 74, 110
2, 165429, Note_off_c, 0, 74, 64
2, 165480, Note_on_c, 0, 75, 110
2, 165529, Note_off_c, 0, 75, 64
2, 165540, Note_on_c, 0, 77, 110
2, 165568, Note_off_c, 0, 77, 64
2, 165600, Note_on_c, 0, 79, 110
2, 166008, Note_off_c, 0, 79, 64
2, 166020, Note_on_c, 0, 82, 110
2, 166080, Note_on_c, 0, 80, 110
2, 166084, Note_off_c, 0, 82, 64
2, 166139, Note_off_c, 0, 80, 64
2, 166140, Note_on_c, 0, 79, 110
2, 166193, Note_off_c, 0, 79, 64
2, 166200, Note_on_c, 0, 77, 110
2, 166260, Note_on_c, 0, 75, 110
2, 166262, Note_off_c, 0, 77, 64
2, 166320, Note_on_c, 0, 74, 110
2, 166326, Note_off_c, 0, 75, 64
2, 166380, Note_on_c, 0, 72, 110
2, 166386, Note_off_c, 0, 74, 64
2, 166439, Note_off_c, 0, 72, 64
2, 166440, Note_on_c, 0, 74, 110
2, 166498, Note_off_c, 0, 74, 64
2, 166500, Note_on_c, 0, 77, 110
2, 166560, Note_on_c, 0, 75, 110
2, 166568, Note_off_c, 0, 77, 64
2, 166613, Note_off_c, 0, 75, 64
2, 166620, Note_on_c, 0, 74, 110
2, 166680, Note_on_c, 0, 75, 110
2, 166687, Note_off_c, 0, 74, 64
2, 166735, Note_off_c, 0, 75, 64
2, 166740, Note_on_c, 0, 74, 110
2, 166800, Note_on_c, 0, 75, 110
2, 166801, Note_off_c, 0, 74, 64
2, 166842, Note_off_c, 0, 75, 64
2, 166860, Note_on_c, 0, 79, 110
2, 166913, Note_off_c, 0, 79, 64
2, 166920, Note_on_c, 0, 77, 110
2, 166977, Note_off_c, 0, 77, 64
2, 166980, Note_on_c, 0, 75, 110
2, 167035, Note_off_c, 0, 75, 64
2, 167040, Note_on_c, 0, 80, 110
2, 167721, Note_off_c, 0, 80, 64
2, 167760, Note_on_c, 0, 79, 110
2, 167807, Note_off_c, 0, 79, 64
2, 167820, Note_on_c, 0, 80, 110
2, 167880, Note_off_c, 0, 80, 64
2, 167880, Note_on_c, 0, 82, 110
2, 167940, Note_on_c, 0, 80, 110
2, 167944, Note_off_c, 0, 82, 64
2, 167994, Note_off_c, 0, 80, 64
2, 168000, Note_on_c, 0, 82, 110
2, 168052, Note_off_c, 0, 82, 64
2, 168060, Note_on_c, 0, 79, 110
2, 168102, Note_off_c, 0, 79, 64
2, 168120, Note_on_c, 0, 84, 110
2, 168840, Note_on_c, 0, 82, 110
2, 168872, Note_off_c, 0, 84, 64
2, 169560, Note_on_c, 0, 80, 110
2, 169565, Note_off_c, 0, 82, 64
2, 170274, Note_off_c, 0, 80, 64
2, 170280, Note_on_c, 0, 79, 110
2, 170400, Note_on_c, 0, 77, 110
2, 170412, Note_off_c, 0, 79, 64
2, 170520, Note_on_c, 0, 79, 110
2, 170536, Note_off_c, 0, 77, 64
2, 170640, Note_on_c, 0, 72, 110
2, 170643, Note_off_c, 0, 79, 64
2, 170757, Note_off_c, 0, 72, 64
2, 170760, Note_on_c, 0, 75, 110
2, 170820, Note_on_c, 0, 74, 110
2, 170824, Note_off_c, 0, 75, 64
2, 170880, Note_on_c, 0, 75, 110
2, 170899, Note_off_c, 0, 74, 64
2, 170940, Note_on_c, 0, 72, 110
2, 170942, Note_off_c, 0, 75, 64
2, 171000, Note_on_c, 0, 77, 110
2, 171005, Note_off_c, 0, 72, 64
2, 171120, Note_on_c, 0, 75, 110
2, 171130, Note_off_c, 0, 77, 64
2, 171240, Note_on_c, 0, 77, 110
2, 171260, Note_off_c, 0, 75, 64
2, 171360, Note_on_c, 0, 70, 110
2, 171364, Note_off_c, 0, 77, 64
2, 171480, Note_on_c, 0, 74, 110
2, 171485, Note_off_c, 0, 70, 64
2, 171538, Note_off_c, 0, 74, 64
2, 171540, Note_on_c, 0, 72, 110
2, 171600, Note_on_c, 0, 74, 110
2, 171616, Note_off_c, 0, 72, 64
2, 171658, Note_off_c, 0, 74, 64
2, 171660, Note_on_c, 0, 70, 110
2, 171720, Note_on_c, 0, 75, 110
2, 171722, Note_off_c, 0, 70, 64
2, 171816, Note_off_c, 0, 75, 64
2, 172440, Note_on_c, 0, 75, 110
2, 173160, Note_on_c, 0, 74, 110
2, 173168, Note_off_c, 0, 75, 64
2, 173448, Note_off_c, 0, 74, 64
2, 173520, Note_on_c, 0, 79, 110
2, 174239, Note_off_c, 0, 79, 64
2, 174240, Note_on_c, 0, 77, 110
2, 174600, Note_on_c, 0, 82, 110
2, 174605, Note_off_c, 0, 77, 64
2, 175320, Note_on_c, 0, 81, 110
2, 175340, Note_off_c, 0, 82, 64
2, 175680, Note_on_c, 0, 82, 110
2, 175686, Note_off_c, 0, 81, 64
2, 176688, Note_off_c, 0, 82, 64
2, 176760, Note_on_c, 0, 80, 110
2, 177480, Note_on_c, 0, 79, 110
2, 177492, Note_off_c, 0, 80, 64
2, 177768, Note_off_c, 0, 79, 64
2, 177840, Note_on_c, 0, 80, 110
2, 178416, Note_off_c, 0, 80, 64
2, 178560, Note_on_c, 0, 79, 110
2, 178968, Note_off_c, 0, 79, 64
2, 178980, Note_on_c, 0, 82, 110
2, 179040, Note_on_c, 0, 80, 110
2, 179054, Note_off_c, 0, 82, 64
2, 179100, Note_on_c, 0, 79, 110
2, 179110, Note_off_c, 0, 80, 64
2, 179160, Note_on_c, 0, 77, 110
2, 179169, Note_off_c, 0, 79, 64
2, 179220, Note_on_c, 0, 75, 110
2, 179230, Note_off_c, 0, 77, 64
2, 179278, Note_off_c, 0, 75, 64
2, 179280, Note_on_c, 0, 74, 110
2, 179340, Note_on_c, 0, 75, 110
2, 179351, Note_off_c, 0, 74, 64
2, 179400, Note_on_c, 0, 77, 110
2, 179405, Note_off_c, 0, 75, 64
2, 179460, Note_on_c, 0, 75, 110
2, 179467, Note_off_c, 0, 77, 64
2, 179502, Note_off_c, 0, 75, 64
2, 179520, Note_on_c, 0, 77, 110
2, 179572, Note_off_c, 0, 77, 64
2, 179580, Note_on_c, 0, 74, 110
2, 179639, Note_off_c, 0, 74, 64
2, 179640, Note_on_c, 0, 79, 110
2, 179698, Note_off_c, 0, 79, 64
2, 179700, Note_on_c, 0, 80, 110
2, 179760, Note_on_c, 0, 79, 110
2, 179773, Note_off_c, 0, 80, 64
2, 179816, Note_off_c, 0, 79, 64
2, 179820, Note_on_c, 0, 77, 110
2, 179880, Note_on_c, 0, 75, 110
2, 179887, Note_off_c, 0, 77, 64
2, 179934, Note_off_c, 0, 75, 64
2, 179940, Note_on_c, 0, 74, 110
2, 179973, Note_off_c, 0, 74, 64
2, 180000, Note_on_c, 0, 72, 110
2, 180060, Note_on_c, 0, 74, 110
2, 180063, Note_off_c, 0, 72, 64
2, 180120, Note_on_c, 0, 75, 110
2, 180124, Note_off_c, 0, 74, 64
2, 180180, Note_on_c, 0, 74, 110
2, 180182, Note_off_c, 0, 75, 64
2, 180240, Note_on_c, 0, 75, 110
2, 180242, Note_off_c, 0, 74, 64
2, 180300, Note_off_c, 0, 75, 64
2, 180300, Note_on_c, 0, 72, 110
2, 180355, Note_off_c, 0, 72, 64
2, 180360, Note_on_c, 0, 77, 110
2, 180420, Note_on_c, 0, 79, 110
2, 180424, Note_off_c, 0, 77, 64
2, 180480, Note_on_c, 0, 77, 110
2, 180484, Note_off_c, 0, 79, 64
2, 180529, Note_off_c, 0, 77, 64
2, 180540, Note_on_c, 0, 75, 110
2, 180600, Note_on_c, 0, 74, 110
2, 180608, Note_off_c, 0, 75, 64
2, 180658, Note_off_c, 0, 74, 64
2, 180660, Note_on_c, 0, 72, 110
2, 180720, Note_on_c, 0, 70, 110
2, 180742, Note_off_c, 0, 72, 64
2, 180776, Note_off_c, 0, 70, 64
2, 180780, Note_on_c, 0, 72, 110
2, 180834, Note_off_c, 0, 72, 64
2, 180840, Note_on_c, 0, 74, 110
2, 180898, Note_off_c, 0, 74, 64
2, 180900, Note_on_c, 0, 72, 110
2, 180958, Note_off_c, 0, 72, 64
2, 180960, Note_on_c, 0, 74, 110
2, 181020, Note_on_c, 0, 70, 110
2, 181024, Note_off_c, 0, 74, 64
2, 181080, Note_on_c, 0, 75, 110
2, 181081, Note_off_c, 0, 70, 64
2, 182160, Note_on_c, 0, 77, 110
2, 182169, Note_off_c, 0, 75, 64
2, 182520, Note_on_c, 0, 75, 110
2, 182524, Note_off_c, 0, 77, 64
2, 182880, Note_on_c, 0, 80, 110
2, 182885, Note_off_c, 0, 75, 64
2, 183696, Note_off_c, 0, 80, 64
2, 183720, Note_on_c, 0, 79, 110
2, 183816, Note_off_c, 0, 79, 64
2, 183840, Note_on_c, 0, 77, 110
2, 184056, Note_off_c, 0, 77, 64
2, 184080, Note_on_c, 0, 75, 110
2, 184176, Note_off_c, 0, 75, 64
2, 184200, Note_on_c, 0, 77, 110
2, 184296, Note_off_c, 0, 77, 64
2, 184320, Note_on_c, 0, 70, 110
2, 184344, Note_off_c, 0, 70, 64
2, 184350, Note_on_c, 0, 72, 110
2, 184374, Note_off_c, 0, 72, 64
2, 184380, Note_on_c, 0, 70, 110
2, 184665, Note_off_c, 0, 70, 64
2, 184680, Note_on_c, 0, 75, 110
2, 184704, Note_off_c, 0, 75, 64
2, 184710, Note_on_c, 0, 74, 110
2, 184734, Note_off_c, 0, 74, 64
2, 184740, Note_on_c, 0, 72, 110
2, 184764, Note_off_c, 0, 72, 64
2, 184770, Note_on_c, 0, 74, 110
2, 184794, Note_off_c, 0, 74, 64
2, 184800, Note_on_c, 0, 75, 110
2, 184815, Note_off_c, 0, 75, 64
2, 184815, Note_on_c, 0, 74, 110
2, 184830, Note_off_c, 0, 74, 64
2, 184830, Note_on_c, 0, 75, 110
2, 184842, Note_off_c, 0, 75, 64
2, 184845, Note_on_c, 0, 74, 110
2, 184857, Note_off_c, 0, 74, 64
2, 184860, Note_on_c, 0, 75, 110
2, 184875, Note_off_c, 0, 75, 64
2, 184875, Note_on_c, 0, 74, 110
2, 184890, Note_off_c, 0, 74, 64
2, 184890, Note_on_c, 0, 75, 110
2, 184902, Note_off_c, 0, 75, 64
2, 184905, Note_on_c, 0, 74, 110
2, 184917, Note_off_c, 0, 74, 64
2, 184920, Note_on_c, 0, 75, 110
2, 184935, Note_off_c, 0, 75, 64
2, 184935, Note_on_c, 0, 74, 110
2, 184950, Note_off_c, 0, 74, 64
2, 184950, Note_on_c, 0, 75, 110
2, 184962, Note_off_c, 0, 75, 64
2, 184965, Note_on_c, 0, 74, 110
2, 184977, Note_off_c, 0, 74, 64
2, 184980, Note_on_c, 0, 72, 110
2, 185004, Note_off_c, 0, 72, 64
2, 185010, Note_on_c, 0, 74, 110
2, 185034, Note_off_c, 0, 74, 64
2, 185040, Note_on_c, 0, 75, 110
2, 185677, Note_off_c, 0, 75, 64
2, 185677, End_track
3, 0, Start_track
3, 0, Title_t, "Fugue in E-Flat Major, BWV552"
3, 0, Program_c, 1, 19
3, 0, Control_c, 1, 7, 127
3, 15360, Note_on_c, 1, 63, 110
3, 16320, Note_on_c, 1, 62, 110
3, 16324, Note_off_c, 1, 63, 64
3, 16800, Note_on_c, 1, 67, 110
3, 16880, Note_off_c, 1, 62, 64
3, 17280, Note_on_c, 1, 63, 110
3, 17288, Note_off_c, 1, 67, 64
3, 17760, Note_on_c, 1, 70, 110
3, 17783, Note_off_c, 1, 63, 64
3, 18706, Note_off_c, 1, 70, 64
3, 18720, Note_on_c, 1, 69, 110
3, 19200, Note_on_c, 1, 70, 110
3, 19248, Note_off_c, 1, 69, 64
3, 20640, Note_off_c, 1, 70, 64
3, 20640, Note_on_c, 1, 68, 110
3, 21600, Note_on_c, 1, 67, 110
3, 21622, Note_off_c, 1, 68, 64
3, 21840, Note_on_c, 1, 68, 110
3, 21843, Note_off_c, 1, 67, 64
3, 22080, Note_on_c, 1, 70, 110
3, 22102, Note_off_c, 1, 68, 64
3, 22320, Note_on_c, 1, 72, 110
3, 22348, Note_off_c, 1, 70, 64
3, 22560, Note_on_c, 1, 74, 110
3, 22565, Note_off_c, 1, 72, 64
3, 23040, Note_on_c, 1, 67, 110
3, 23055, Note_off_c, 1, 74, 64
3, 23520, Note_on_c, 1, 65, 110
3, 23564, Note_off_c, 1, 67, 64
3, 24480, Note_on_c, 1, 67, 110
3, 24522, Note_off_c, 1, 65, 64
3, 24937, Note_off_c, 1, 67, 64
3, 25029, Note_off_c, 1, 65, 64
3, 25200, Note_on_c, 1, 63, 110
3, 25440, Note_on_c, 1, 65, 110
3, 25455, Note_off_c, 1, 63, 64
3, 25900, Note_off_c, 1, 65, 64
3, 25920, Note_on_c, 1, 67, 110
3, 26400, Note_on_c, 1, 65, 110
3, 26409, Note_off_c, 1, 67, 64
3, 26640, Note_on_c, 1, 63, 110
3, 26648, Note_off_c, 1, 65, 64
3, 26880, Note_on_c, 1, 62, 110
3, 26926, Note_off_c, 1, 63, 64
3, 27360, Note_on_c, 1, 63, 110
3, 27383, Note_off_c, 1, 62, 64
3, 27840, Note_on_c, 1, 65, 110
3, 27852, Note_off_c, 1, 63, 64
3, 28777, Note_off_c, 1, 65, 64
3, 28800, Note_on_c, 1, 63, 110
3, 29040, Note_on_c, 1, 75, 110
3, 29068, Note_off_c, 1, 63, 64
3, 29280, Note_on_c, 1, 74, 110
3, 29288, Note_off_c, 1, 75, 64
3, 29520, Note_on_c, 1, 72, 110
3, 29526, Note_off_c, 1, 74, 64
3, 29760, Note_on_c, 1, 74, 110
3, 29778, Note_off_c, 1, 72, 64
3, 30000, Note_on_c, 1, 70, 110
3, 30004, Note_off_c, 1, 74, 64
3, 30240, Note_on_c, 1, 75, 110
3, 30261, Note_off_c, 1, 70, 64
3, 30480, Note_on_c, 1, 74, 110
3, 30483, Note_off_c, 1, 75, 64
3, 30720, Note_on_c, 1, 72, 110
3, 30732, Note_off_c, 1, 74, 64
3, 31488, Note_off_c, 1, 72, 64
3, 31680, Note_on_c, 1, 74, 110
3, 33118, Note_off_c, 1, 74, 64
3, 33120, Note_on_c, 1, 72, 110
3, 33360, Note_on_c, 1, 70, 110
3, 33361, Note_off_c, 1, 72, 64
3, 33600, Note_on_c, 1, 72, 110
3, 33617, Note_off_c, 1, 70, 64
3, 34560, Note_on_c, 1, 70, 110
3, 34585, Note_off_c, 1, 72, 64
3, 35027, Note_off_c, 1, 70, 64
3, 35040, Note_on_c, 1, 72, 110
3, 35760, Note_on_c, 1, 75, 110
3, 35789, Note_off_c, 1, 72, 64
3, 36000, Note_on_c, 1, 74, 110
3, 36003, Note_off_c, 1, 75, 64
3, 36240, Note_on_c, 1, 72, 110
3, 36248, Note_off_c, 1, 74, 64
3, 36480, Note_on_c, 1, 74, 110
3, 36500, Note_off_c, 1, 72, 64
3, 37200, Note_on_c, 1, 72, 110
3, 37218, Note_off_c, 1, 74, 64
3, 37650, Note_off_c, 1, 72, 64
3, 37680, Note_on_c, 1, 70, 110
3, 38130, Note_off_c, 1, 70, 64
3, 38160, Note_on_c, 1, 69, 110
3, 38400, Note_on_c, 1, 70, 110
3, 38406, Note_off_c, 1, 69, 64
3, 38776, Note_off_c, 1, 70, 64
3, 38880, Note_on_c, 1, 70, 110
3, 39360, Note_on_c, 1, 67, 110
3, 39363, Note_off_c, 1, 70, 64
3, 39834, Note_off_c, 1, 67, 64
3, 39840, Note_on_c, 1, 72, 110
3, 40301, Note_off_c, 1, 72, 64
3, 40320, Note_on_c, 1, 70, 110
3, 40704, Note_off_c, 1, 70, 64
3, 40800, Note_on_c, 1, 75, 110
3, 41760, Note_on_c, 1, 74, 110
3, 41804, Note_off_c, 1, 75, 64
3, 42240, Note_on_c, 1, 75, 110
3, 42273, Note_off_c, 1, 74, 64
3, 42456, Note_off_c, 1, 75, 64
3, 42480, Note_on_c, 1, 79, 110
3, 42712, Note_off_c, 1, 79, 64
3, 42720, Note_on_c, 1, 77, 110
3, 42960, Note_on_c, 1, 75, 110
3, 42970, Note_off_c, 1, 77, 64
3, 43192, Note_off_c, 1, 75, 64
3, 43200, Note_on_c, 1, 77, 110
3, 43440, Note_on_c, 1, 74, 110
3, 43458, Note_off_c, 1, 77, 64
3, 43680, Note_on_c, 1, 75, 110
3, 43686, Note_off_c, 1, 74, 64
3, 44160, Note_on_c, 1, 72, 110
3, 44197, Note_off_c, 1, 75, 64
3, 44640, Note_on_c, 1, 70, 110
3, 44648, Note_off_c, 1, 72, 64
3, 45600, Note_on_c, 1, 68, 110
3, 45636, Note_off_c, 1, 70, 64
3, 46560, Note_on_c, 1, 67, 110
3, 46574, Note_off_c, 1, 68, 64
3, 47232, Note_off_c, 1, 67, 64
3, 47280, Note_on_c, 1, 67, 110
3, 47520, Note_on_c, 1, 65, 110
3, 47533, Note_off_c, 1, 67, 64
3, 47757, Note_off_c, 1, 65, 64
3, 47760, Note_on_c, 1, 63, 110
3, 48000, Note_on_c, 1, 65, 110
3, 48012, Note_off_c, 1, 63, 64
3, 48211, Note_off_c, 1, 65, 64
3, 48240, Note_on_c, 1, 62, 110
3, 48480, Note_on_c, 1, 67, 110
3, 48484, Note_off_c, 1, 62, 64
3, 48702, Note_off_c, 1, 67, 64
3, 48720, Note_on_c, 1, 65, 110
3, 48960, Note_on_c, 1, 63, 110
3, 48981, Note_off_c, 1, 65, 64
3, 49440, Note_on_c, 1, 65, 110
3, 49462, Note_off_c, 1, 63, 64
3, 50400, Note_on_c, 1, 63, 110
3, 50438, Note_off_c, 1, 65, 64
3, 50880, Note_on_c, 1, 62, 110
3, 50913, Note_off_c, 1, 63, 64
3, 51360, Note_on_c, 1, 67, 110
3, 51382, Note_off_c, 1, 62, 64
3, 51832, Note_off_c, 1, 67, 64
3, 51840, Note_on_c, 1, 65, 110
3, 52320, Note_on_c, 1, 70, 110
3, 52334, Note_off_c, 1, 65, 64
3, 53280, Note_on_c, 1, 68, 110
3, 53292, Note_off_c, 1, 70, 64
3, 53760, Note_on_c, 1, 67, 110
3, 53763, Note_off_c, 1, 68, 64
3, 54720, Note_on_c, 1, 65, 110
3, 54745, Note_off_c, 1, 67, 64
3, 56832, Note_off_c, 1, 65, 64
3, 56880, Note_on_c, 1, 62, 110
3, 57120, Note_on_c, 1, 63, 110
3, 57137, Note_off_c, 1, 62, 64
3, 57360, Note_on_c, 1, 65, 110
3, 57373, Note_off_c, 1, 63, 64
3, 57600, Note_on_c, 1, 67, 110
3, 57627, Note_off_c, 1, 65, 64
3, 58070, Note_off_c, 1, 67, 64
3, 58080, Note_on_c, 1, 65, 110
3, 58560, Note_on_c, 1, 63, 110
3, 58573, Note_off_c, 1, 65, 64
3, 58800, Note_on_c, 1, 65, 110
3, 58807, Note_off_c, 1, 63, 64
3, 59040, Note_on_c, 1, 67, 110
3, 59069, Note_off_c, 1, 65, 64
3, 59280, Note_on_c, 1, 68, 110
3, 59288, Note_off_c, 1, 67, 64
3, 59520, Note_on_c, 1, 70, 110
3, 59528, Note_off_c, 1, 68, 64
3, 59737, Note_off_c, 1, 70, 64
3, 59760, Note_on_c, 1, 68, 110
3, 60000, Note_on_c, 1, 70, 110
3, 60011, Note_off_c, 1, 68, 64
3, 60240, Note_on_c, 1, 72, 110
3, 60255, Note_off_c, 1, 70, 64
3, 60480, Note_on_c, 1, 74, 110
3, 60492, Note_off_c, 1, 72, 64
3, 60717, Note_off_c, 1, 74, 64
3, 60720, Note_on_c, 1, 75, 110
3, 60960, Note_on_c, 1, 77, 110
3, 60987, Note_off_c, 1, 75, 64
3, 61440, Note_on_c, 1, 75, 110
3, 61460, Note_off_c, 1, 77, 64
3, 62400, Note_on_c, 1, 77, 110
3, 62417, Note_off_c, 1, 75, 64
3, 62784, Note_off_c, 1, 77, 64
3, 62880, Note_on_c, 1, 75, 110
3, 63744, Note_off_c, 1, 75, 64
3, 63840, Note_on_c, 1, 70, 110
3, 64416, Note_off_c, 1, 70, 64
3, 64560, Note_on_c, 1, 74, 110
3, 64752, Note_off_c, 1, 74, 64
3, 64800, Note_on_c, 1, 75, 110
3, 64992, Note_off_c, 1, 75, 64
3, 65040, Note_on_c, 1, 70, 110
3, 65232, Note_off_c, 1, 70, 64
3, 65280, Note_on_c, 1, 72, 110
3, 65757, Note_off_c, 1, 72, 64
3, 65760, Note_on_c, 1, 70, 110
3, 66720, Note_on_c, 1, 68, 110
3, 66727, Note_off_c, 1, 70, 64
3, 66945, Note_off_c, 1, 68, 64
3, 66960, Note_on_c, 1, 72, 110
3, 67152, Note_off_c, 1, 72, 64
3, 67200, Note_on_c, 1, 70, 110
3, 67680, Note_off_c, 1, 70, 64
3, 67680, Note_on_c, 1, 70, 110
3, 68064, Note_off_c, 1, 70, 64
3, 68160, Note_on_c, 1, 70, 110
3, 69060, Note_off_c, 1, 70, 64
3, 69120, Note_on_c, 1, 70, 110
3, 69345, Note_off_c, 1, 70, 64
3, 78000, Note_on_c, 1, 63, 96
3, 78096, Note_off_c, 1, 63, 64
3, 78120, Note_on_c, 1, 62, 96
3, 78216, Note_off_c, 1, 62, 64
3, 78240, Note_on_c, 1, 63, 96
3, 78336, Note_off_c, 1, 63, 64
3, 78360, Note_on_c, 1, 65, 96
3, 78456, Note_off_c, 1, 65, 64
3, 78480, Note_on_c, 1, 67, 96
3, 78576, Note_off_c, 1, 67, 64
3, 78600, Note_on_c, 1, 65, 96
3, 78696, Note_off_c, 1, 65, 64
3, 78720, Note_on_c, 1, 67, 96
3, 78816, Note_off_c, 1, 67, 64
3, 78840, Note_on_c, 1, 68, 96
3, 78936, Note_off_c, 1, 68, 64
3, 78960, Note_on_c, 1, 67, 96
3, 79056, Note_off_c, 1, 67, 64
3, 79080, Note_on_c, 1, 68, 96
3, 79176, Note_off_c, 1, 68, 64
3, 79200, Note_on_c, 1, 65, 96
3, 79296, Note_off_c, 1, 65, 64
3, 79320, Note_on_c, 1, 63, 96
3, 79416, Note_off_c, 1, 63, 64
3, 79440, Note_on_c, 1, 65, 96
3, 79536, Note_off_c, 1, 65, 64
3, 79560, Note_on_c, 1, 67, 96
3, 79656, Note_off_c, 1, 67, 64
3, 79680, Note_on_c, 1, 65, 96
3, 79776, Note_off_c, 1, 65, 64
3, 79800, Note_on_c, 1, 67, 96
3, 79896, Note_off_c, 1, 67, 64
3, 79920, Note_on_c, 1, 68, 96
3, 80016, Note_off_c, 1, 68, 64
3, 80040, Note_on_c, 1, 67, 96
3, 80136, Note_off_c, 1, 67, 64
3, 80160, Note_on_c, 1, 68, 96
3, 80256, Note_off_c, 1, 68, 64
3, 80280, Note_on_c, 1, 70, 96
3, 80376, Note_off_c, 1, 70, 64
3, 80400, Note_on_c, 1, 68, 96
3, 80496, Note_off_c, 1, 68, 64
3, 80520, Note_on_c, 1, 70, 96
3, 80616, Note_off_c, 1, 70, 64
3, 80640, Note_on_c, 1, 67, 96
3, 80832, Note_off_c, 1, 67, 64
3, 80880, Note_on_c, 1, 67, 96
3, 81264, Note_off_c, 1, 67, 64
3, 81360, Note_on_c, 1, 65, 96
3, 81552, Note_off_c, 1, 65, 64
3, 81600, Note_on_c, 1, 70, 96
3, 81792, Note_off_c, 1, 70, 64
3, 81840, Note_on_c, 1, 69, 96
3, 82032, Note_off_c, 1, 69, 64
3, 82080, Note_on_c, 1, 67, 96
3, 82992, Note_off_c, 1, 67, 64
3, 83040, Note_on_c, 1, 65, 96
3, 83712, Note_off_c, 1, 65, 64
3, 83760, Note_on_c, 1, 70, 96
3, 83856, Note_off_c, 1, 70, 64
3, 83880, Note_on_c, 1, 72, 96
3, 83976, Note_off_c, 1, 72, 64
3, 84000, Note_on_c, 1, 70, 96
3, 84096, Note_off_c, 1, 70, 64
3, 84120, Note_on_c, 1, 68, 96
3, 84216, Note_off_c, 1, 68, 64
3, 84240, Note_on_c, 1, 67, 96
3, 84336, Note_off_c, 1, 67, 64
3, 84360, Note_on_c, 1, 68, 96
3, 84456, Note_off_c, 1, 68, 64
3, 84480, Note_on_c, 1, 67, 96
3, 84576, Note_off_c, 1, 67, 64
3, 84600, Note_on_c, 1, 65, 96
3, 84696, Note_off_c, 1, 65, 64
3, 84720, Note_on_c, 1, 67, 96
3, 84816, Note_off_c, 1, 67, 64
3, 84840, Note_on_c, 1, 63, 96
3, 84936, Note_off_c, 1, 63, 64
3, 84960, Note_on_c, 1, 68, 96
3, 85056, Note_off_c, 1, 68, 64
3, 85080, Note_on_c, 1, 70, 96
3, 85176, Note_off_c, 1, 70, 64
3, 85200, Note_on_c, 1, 68, 96
3, 85296, Note_off_c, 1, 68, 64
3, 85320, Note_on_c, 1, 67, 96
3, 85416, Note_off_c, 1, 67, 64
3, 85440, Note_on_c, 1, 68, 96
3, 85536, Note_off_c, 1, 68, 64
3, 85560, Note_on_c, 1, 67, 96
3, 85656, Note_off_c, 1, 67, 64
3, 85680, Note_on_c, 1, 65, 96
3, 85776, Note_off_c, 1, 65, 64
3, 85800, Note_on_c, 1, 67, 96
3, 85896, Note_off_c, 1, 67, 64
3, 85920, Note_on_c, 1, 65, 96
3, 86016, Note_off_c, 1, 65, 64
3, 86040, Note_on_c, 1, 63, 96
3, 86136, Note_off_c, 1, 63, 64
3, 86160, Note_on_c, 1, 65, 96
3, 86256, Note_off_c, 1, 65, 64
3, 86280, Note_on_c, 1, 62, 96
3, 86376, Note_off_c, 1, 62, 64
3, 86400, Note_on_c, 1, 67, 96
3, 86496, Note_off_c, 1, 67, 64
3, 86520, Note_on_c, 1, 68, 96
3, 86616, Note_off_c, 1, 68, 64
3, 86640, Note_on_c, 1, 67, 96
3, 87024, Note_off_c, 1, 67, 64
3, 87120, Note_on_c, 1, 67, 96
3, 87312, Note_off_c, 1, 67, 64
3, 87360, Note_on_c, 1, 68, 96
3, 87552, Note_off_c, 1, 68, 64
3, 87600, Note_on_c, 1, 67, 96
3, 87792, Note_off_c, 1, 67, 64
3, 87840, Note_on_c, 1, 65, 96
3, 88416, Note_off_c, 1, 65, 64
3, 88560, Note_on_c, 1, 65, 96
3, 88752, Note_off_c, 1, 65, 64
3, 88800, Note_on_c, 1, 67, 96
3, 88992, Note_off_c, 1, 67, 64
3, 89040, Note_on_c, 1, 65, 96
3, 89232, Note_off_c, 1, 65, 64
3, 89280, Note_on_c, 1, 63, 96
3, 89472, Note_off_c, 1, 63, 64
3, 89520, Note_on_c, 1, 65, 96
3, 89712, Note_off_c, 1, 65, 64
3, 89760, Note_on_c, 1, 67, 96
3, 89952, Note_off_c, 1, 67, 64
3, 90000, Note_on_c, 1, 68, 96
3, 90576, Note_off_c, 1, 68, 64
3, 90720, Note_on_c, 1, 67, 96
3, 92256, Note_off_c, 1, 67, 64
3, 92280, Note_on_c, 1, 67, 96
3, 92376, Note_off_c, 1, 67, 64
3, 92400, Note_on_c, 1, 65, 96
3, 92496, Note_off_c, 1, 65, 64
3, 92520, Note_on_c, 1, 64, 96
3, 92616, Note_off_c, 1, 64, 64
3, 92640, Note_on_c, 1, 65, 96
3, 92736, Note_off_c, 1, 65, 64
3, 92760, Note_on_c, 1, 67, 96
3, 92856, Note_off_c, 1, 67, 64
3, 92880, Note_on_c, 1, 68, 96
3, 92976, Note_off_c, 1, 68, 64
3, 93000, Note_on_c, 1, 67, 96
3, 93096, Note_off_c, 1, 67, 64
3, 93120, Note_on_c, 1, 68, 96
3, 93216, Note_off_c, 1, 68, 64
3, 93240, Note_on_c, 1, 70, 96
3, 93336, Note_off_c, 1, 70, 64
3, 93360, Note_on_c, 1, 68, 96
3, 93456, Note_off_c, 1, 68, 64
3, 93480, Note_on_c, 1, 70, 96
3, 93576, Note_off_c, 1, 70, 64
3, 93600, Note_on_c, 1, 67, 96
3, 93696, Note_off_c, 1, 67, 64
3, 93720, Note_on_c, 1, 65, 96
3, 93816, Note_off_c, 1, 65, 64
3, 93840, Note_on_c, 1, 67, 96
3, 93936, Note_off_c, 1, 67, 64
3, 93960, Note_on_c, 1, 69, 96
3, 94056, Note_off_c, 1, 69, 64
3, 94080, Note_on_c, 1, 67, 96
3, 94176, Note_off_c, 1, 67, 64
3, 94200, Note_on_c, 1, 69, 96
3, 94296, Note_off_c, 1, 69, 64
3, 94320, Note_on_c, 1, 70, 96
3, 94704, Note_off_c, 1, 70, 64
3, 94800, Note_on_c, 1, 75, 96
3, 95232, Note_off_c, 1, 75, 64
3, 95280, Note_on_c, 1, 65, 96
3, 95472, Note_off_c, 1, 65, 64
3, 95520, Note_on_c, 1, 69, 96
3, 95712, Note_off_c, 1, 69, 64
3, 95760, Note_on_c, 1, 72, 96
3, 95856, Note_off_c, 1, 72, 64
3, 95880, Note_on_c, 1, 70, 96
3, 95976, Note_off_c, 1, 70, 64
3, 96000, Note_on_c, 1, 72, 96
3, 96096, Note_off_c, 1, 72, 64
3, 96120, Note_on_c, 1, 74, 96
3, 96216, Note_off_c, 1, 74, 64
3, 96240, Note_on_c, 1, 72, 96
3, 96336, Note_off_c, 1, 72, 64
3, 96360, Note_on_c, 1, 74, 96
3, 96456, Note_off_c, 1, 74, 64
3, 96480, Note_on_c, 1, 70, 96
3, 96864, Note_off_c, 1, 70, 64
3, 97440, Note_on_c, 1, 77, 96
3, 97824, Note_off_c, 1, 77, 64
3, 97920, Note_on_c, 1, 75, 96
3, 98112, Note_off_c, 1, 75, 64
3, 98880, Note_on_c, 1, 79, 96
3, 99456, Note_off_c, 1, 79, 64
3, 99480, Note_on_c, 1, 79, 96
3, 99576, Note_off_c, 1, 79, 64
3, 99600, Note_on_c, 1, 77, 96
3, 99696, Note_off_c, 1, 77, 64
3, 99720, Note_on_c, 1, 75, 96
3, 99816, Note_off_c, 1, 75, 64
3, 99840, Note_on_c, 1, 74, 96
3, 99936, Note_off_c, 1, 74, 64
3, 99960, Note_on_c, 1, 72, 96
3, 100056, Note_off_c, 1, 72, 64
3, 100080, Note_on_c, 1, 74, 96
3, 100176, Note_off_c, 1, 74, 64
3, 100200, Note_on_c, 1, 75, 96
3, 100296, Note_off_c, 1, 75, 64
3, 100320, Note_on_c, 1, 72, 96
3, 100704, Note_off_c, 1, 72, 64
3, 100800, Note_on_c, 1, 74, 96
3, 101376, Note_off_c, 1, 74, 64
3, 105360, Note_on_c, 1, 63, 96
3, 105744, Note_off_c, 1, 63, 64
3, 105840, Note_on_c, 1, 62, 96
3, 106032, Note_off_c, 1, 62, 64
3, 106080, Note_on_c, 1, 67, 96
3, 106464, Note_off_c, 1, 67, 64
3, 106560, Note_on_c, 1, 65, 96
3, 106752, Note_off_c, 1, 65, 64
3, 106800, Note_on_c, 1, 70, 96
3, 107472, Note_off_c, 1, 70, 64
3, 107520, Note_on_c, 1, 69, 96
3, 107904, Note_off_c, 1, 69, 64
3, 108000, Note_on_c, 1, 70, 96
3, 108384, Note_off_c, 1, 70, 64
3, 108720, Note_on_c, 1, 70, 96
3, 109104, Note_off_c, 1, 70, 64
3, 109200, Note_on_c, 1, 68, 96
3, 109392, Note_off_c, 1, 68, 64
3, 109440, Note_on_c, 1, 67, 96
3, 109824, Note_off_c, 1, 67, 64
3, 110160, Note_on_c, 1, 72, 96
3, 110544, Note_off_c, 1, 72, 64
3, 110640, Note_on_c, 1, 70, 96
3, 111072, Note_off_c, 1, 70, 64
3, 111120, Note_on_c, 1, 68, 96
3, 111312, Note_off_c, 1, 68, 64
3, 111360, Note_on_c, 1, 67, 96
3, 111552, Note_off_c, 1, 67, 64
3, 111600, Note_on_c, 1, 65, 96
3, 112512, Note_off_c, 1, 65, 64
3, 112560, Note_on_c, 1, 64, 96
3, 112752, Note_off_c, 1, 64, 64
3, 112800, Note_on_c, 1, 67, 96
3, 112992, Note_off_c, 1, 67, 64
3, 113040, Note_on_c, 1, 60, 96
3, 113424, Note_off_c, 1, 60, 64
3, 113520, Note_on_c, 1, 58, 96
3, 113712, Note_off_c, 1, 58, 64
3, 113760, Note_on_c, 1, 60, 96
3, 114144, Note_off_c, 1, 60, 64
3, 114240, Note_on_c, 1, 65, 96
3, 114432, Note_off_c, 1, 65, 64
3, 114480, Note_on_c, 1, 67, 96
3, 115392, Note_off_c, 1, 67, 64
3, 115440, Note_on_c, 1, 65, 96
3, 115824, Note_off_c, 1, 65, 64
3, 115920, Note_on_c, 1, 63, 96
3, 116112, Note_off_c, 1, 63, 64
3, 116160, Note_on_c, 1, 68, 96
3, 116544, Note_off_c, 1, 68, 64
3, 116640, Note_on_c, 1, 67, 96
3, 116832, Note_off_c, 1, 67, 64
3, 116880, Note_on_c, 1, 72, 96
3, 117456, Note_off_c, 1, 72, 64
3, 117600, Note_on_c, 1, 71, 96
3, 117984, Note_off_c, 1, 71, 64
3, 118080, Note_on_c, 1, 72, 96
3, 118272, Note_off_c, 1, 72, 64
3, 118320, Note_on_c, 1, 72, 96
3, 118416, Note_off_c, 1, 72, 64
3, 118440, Note_on_c, 1, 74, 96
3, 118536, Note_off_c, 1, 74, 64
3, 118560, Note_on_c, 1, 72, 96
3, 118656, Note_off_c, 1, 72, 64
3, 118680, Note_on_c, 1, 70, 96
3, 118776, Note_off_c, 1, 70, 64
3, 118800, Note_on_c, 1, 68, 96
3, 118896, Note_off_c, 1, 68, 64
3, 118920, Note_on_c, 1, 70, 96
3, 119016, Note_off_c, 1, 70, 64
3, 119040, Note_on_c, 1, 68, 96
3, 119136, Note_off_c, 1, 68, 64
3, 119160, Note_on_c, 1, 67, 96
3, 119256, Note_off_c, 1, 67, 64
3, 119280, Note_on_c, 1, 68, 96
3, 119376, Note_off_c, 1, 68, 64
3, 119400, Note_on_c, 1, 67, 96
3, 119496, Note_off_c, 1, 67, 64
3, 119520, Note_on_c, 1, 65, 96
3, 119712, Note_off_c, 1, 65, 64
3, 119760, Note_on_c, 1, 70, 96
3, 119856, Note_off_c, 1, 70, 64
3, 119880, Note_on_c, 1, 72, 96
3, 119976, Note_off_c, 1, 72, 64
3, 120000, Note_on_c, 1, 70, 96
3, 120096, Note_off_c, 1, 70, 64
3, 120120, Note_on_c, 1, 68, 96
3, 120216, Note_off_c, 1, 68, 64
3, 120240, Note_on_c, 1, 67, 96
3, 120336, Note_off_c, 1, 67, 64
3, 120360, Note_on_c, 1, 68, 96
3, 120456, Note_off_c, 1, 68, 64
3, 120480, Note_on_c, 1, 67, 96
3, 120576, Note_off_c, 1, 67, 64
3, 120600, Note_on_c, 1, 65, 96
3, 120696, Note_off_c, 1, 65, 64
3, 120720, Note_on_c, 1, 67, 96
3, 120816, Note_off_c, 1, 67, 64
3, 120840, Note_on_c, 1, 65, 96
3, 120936, Note_off_c, 1, 65, 64
3, 120960, Note_on_c, 1, 63, 96
3, 121056, Note_off_c, 1, 63, 64
3, 121080, Note_on_c, 1, 65, 96
3, 121176, Note_off_c, 1, 65, 64
3, 121200, Note_on_c, 1, 63, 96
3, 121296, Note_off_c, 1, 63, 64
3, 121320, Note_on_c, 1, 62, 96
3, 121416, Note_off_c, 1, 62, 64
3, 121440, Note_on_c, 1, 63, 96
3, 121536, Note_off_c, 1, 63, 64
3, 121560, Note_on_c, 1, 60, 96
3, 121656, Note_off_c, 1, 60, 64
3, 121680, Note_on_c, 1, 62, 96
3, 121872, Note_off_c, 1, 62, 64
3, 122160, Note_on_c, 1, 67, 96
3, 122352, Note_off_c, 1, 67, 64
3, 122400, Note_on_c, 1, 72, 96
3, 122784, Note_off_c, 1, 72, 64
3, 122880, Note_on_c, 1, 70, 96
3, 123072, Note_off_c, 1, 70, 64
3, 123120, Note_on_c, 1, 69, 96
3, 124032, Note_off_c, 1, 69, 64
3, 124080, Note_on_c, 1, 67, 96
3, 124656, Note_off_c, 1, 67, 64
3, 124800, Note_on_c, 1, 72, 96
3, 125472, Note_off_c, 1, 72, 64
3, 125520, Note_on_c, 1, 69, 96
3, 126096, Note_off_c, 1, 69, 64
3, 126240, Note_on_c, 1, 74, 96
3, 126624, Note_off_c, 1, 74, 64
3, 126720, Note_on_c, 1, 74, 96
3, 126816, Note_off_c, 1, 74, 64
3, 126840, Note_on_c, 1, 72, 96
3, 126936, Note_off_c, 1, 72, 64
3, 126960, Note_on_c, 1, 74, 96
3, 127056, Note_off_c, 1, 74, 64
3, 127080, Note_on_c, 1, 75, 96
3, 127176, Note_off_c, 1, 75, 64
3, 127200, Note_on_c, 1, 72, 96
3, 127296, Note_off_c, 1, 72, 64
3, 127320, Note_on_c, 1, 74, 96
3, 127416, Note_off_c, 1, 74, 64
3, 127440, Note_on_c, 1, 75, 96
3, 127536, Note_off_c, 1, 75, 64
3, 127560, Note_on_c, 1, 74, 96
3, 127656, Note_off_c, 1, 74, 64
3, 127680, Note_on_c, 1, 75, 96
3, 127776, Note_off_c, 1, 75, 64
3, 127800, Note_on_c, 1, 77, 96
3, 127896, Note_off_c, 1, 77, 64
3, 127920, Note_on_c, 1, 75, 96
3, 128016, Note_off_c, 1, 75, 64
3, 128040, Note_on_c, 1, 77, 96
3, 128136, Note_off_c, 1, 77, 64
3, 128160, Note_on_c, 1, 79, 96
3, 128448, Note_off_c, 1, 79, 64
3, 128520, Note_on_c, 1, 72, 96
3, 128616, Note_off_c, 1, 72, 64
3, 128640, Note_on_c, 1, 77, 96
3, 128736, Note_off_c, 1, 77, 64
3, 128760, Note_on_c, 1, 75, 96
3, 128856, Note_off_c, 1, 75, 64
3, 128880, Note_on_c, 1, 74, 96
3, 129168, Note_off_c, 1, 74, 64
3, 129240, Note_on_c, 1, 77, 96
3, 129336, Note_off_c, 1, 77, 64
3, 129360, Note_on_c, 1, 75, 96
3, 129456, Note_off_c, 1, 75, 64
3, 129480, Note_on_c, 1, 74, 96
3, 129576, Note_off_c, 1, 74, 64
3, 129600, Note_on_c, 1, 72, 96
3, 131232, Note_off_c, 1, 72, 64
3, 131280, Note_on_c, 1, 71, 96
3, 131472, Note_off_c, 1, 71, 64
3, 131520, Note_on_c, 1, 72, 96
3, 131904, Note_off_c, 1, 72, 64
3, 132000, Note_on_c, 1, 71, 96
3, 132192, Note_off_c, 1, 71, 64
3, 132240, Note_on_c, 1, 74, 96
3, 132432, Note_off_c, 1, 74, 64
3, 132480, Note_on_c, 1, 67, 96
3, 132672, Note_off_c, 1, 67, 64
3, 132720, Note_on_c, 1, 71, 96
3, 132912, Note_off_c, 1, 71, 64
3, 132960, Note_on_c, 1, 72, 96
3, 133344, Note_off_c, 1, 72, 64
3, 133440, Note_on_c, 1, 71, 96
3, 133824, Note_off_c, 1, 71, 64
3, 133920, Note_on_c, 1, 67, 96
3, 134208, Note_off_c, 1, 67, 64
3, 138600, Note_on_c, 1, 72, 110
3, 138720, Note_on_c, 1, 70, 110
3, 138737, Note_off_c, 1, 72, 64
3, 138834, Note_off_c, 1, 70, 64
3, 138840, Note_on_c, 1, 72, 110
3, 138960, Note_on_c, 1, 65, 110
3, 138971, Note_off_c, 1, 72, 64
3, 139079, Note_off_c, 1, 65, 64
3, 139080, Note_on_c, 1, 68, 110
3, 139140, Note_on_c, 1, 67, 110
3, 139146, Note_off_c, 1, 68, 64
3, 139200, Note_on_c, 1, 68, 110
3, 139205, Note_off_c, 1, 67, 64
3, 139246, Note_off_c, 1, 68, 64
3, 139260, Note_on_c, 1, 65, 110
3, 139320, Note_on_c, 1, 70, 110
3, 139324, Note_off_c, 1, 65, 64
3, 139440, Note_on_c, 1, 68, 110
3, 139454, Note_off_c, 1, 70, 64
3, 139558, Note_off_c, 1, 68, 64
3, 139560, Note_on_c, 1, 70, 110
3, 139680, Note_on_c, 1, 63, 110
3, 139682, Note_off_c, 1, 70, 64
3, 139800, Note_on_c, 1, 67, 110
3, 139816, Note_off_c, 1, 63, 64
3, 139860, Note_on_c, 1, 65, 110
3, 139861, Note_off_c, 1, 67, 64
3, 139919, Note_off_c, 1, 65, 64
3, 139920, Note_on_c, 1, 67, 110
3, 139965, Note_off_c, 1, 67, 64
3, 139980, Note_on_c, 1, 63, 110
3, 140037, Note_off_c, 1, 63, 64
3, 140040, Note_on_c, 1, 68, 110
3, 140760, Note_on_c, 1, 67, 110
3, 140770, Note_off_c, 1, 68, 64
3, 141408, Note_off_c, 1, 67, 64
3, 141480, Note_on_c, 1, 66, 110
3, 141768, Note_off_c, 1, 66, 64
3, 141840, Note_on_c, 1, 67, 110
3, 142128, Note_off_c, 1, 67, 64
3, 144780, Note_on_c, 1, 67, 110
3, 144828, Note_off_c, 1, 67, 64
3, 144840, Note_on_c, 1, 68, 110
3, 144888, Note_off_c, 1, 68, 64
3, 144900, Note_on_c, 1, 70, 110
3, 144948, Note_off_c, 1, 70, 64
3, 144960, Note_on_c, 1, 72, 110
3, 145008, Note_off_c, 1, 72, 64
3, 145020, Note_on_c, 1, 74, 110
3, 145068, Note_off_c, 1, 74, 64
3, 145080, Note_on_c, 1, 75, 110
3, 145800, Note_off_c, 1, 75, 64
3, 145800, Note_on_c, 1, 74, 110
3, 145920, Note_on_c, 1, 75, 110
3, 145936, Note_off_c, 1, 74, 64
3, 146034, Note_off_c, 1, 75, 64
3, 146040, Note_on_c, 1, 74, 110
3, 146256, Note_off_c, 1, 74, 64
3, 146280, Note_on_c, 1, 75, 110
3, 146400, Note_on_c, 1, 72, 110
3, 146409, Note_off_c, 1, 75, 64
3, 146616, Note_off_c, 1, 72, 64
3, 146640, Note_on_c, 1, 70, 110
3, 146748, Note_off_c, 1, 70, 64
3, 146760, Note_on_c, 1, 72, 110
3, 146880, Note_on_c, 1, 65, 110
3, 146889, Note_off_c, 1, 72, 64
3, 147000, Note_off_c, 1, 65, 64
3, 147000, Note_on_c, 1, 67, 110
3, 147060, Note_on_c, 1, 69, 110
3, 147062, Note_off_c, 1, 67, 64
3, 147111, Note_off_c, 1, 69, 64
3, 147120, Note_on_c, 1, 70, 110
3, 147180, Note_on_c, 1, 72, 110
3, 147182, Note_off_c, 1, 70, 64
3, 147207, Note_off_c, 1, 72, 64
3, 147240, Note_on_c, 1, 74, 110
3, 147528, Note_off_c, 1, 74, 64
3, 147600, Note_on_c, 1, 72, 110
3, 148320, Note_on_c, 1, 70, 110
3, 148327, Note_off_c, 1, 72, 64
3, 148680, Note_on_c, 1, 75, 110
3, 148687, Note_off_c, 1, 70, 64
3, 149400, Note_on_c, 1, 72, 110
3, 149403, Note_off_c, 1, 75, 64
3, 149688, Note_off_c, 1, 72, 64
3, 149760, Note_on_c, 1, 70, 110
3, 150036, Note_off_c, 1, 70, 64
3, 150120, Note_on_c, 1, 72, 110
3, 150177, Note_off_c, 1, 72, 64
3, 150180, Note_on_c, 1, 74, 110
3, 150237, Note_off_c, 1, 74, 64
3, 150240, Note_on_c, 1, 75, 110
3, 150300, Note_on_c, 1, 74, 110
3, 150307, Note_off_c, 1, 75, 64
3, 150360, Note_on_c, 1, 72, 110
3, 150365, Note_off_c, 1, 74, 64
3, 150420, Note_on_c, 1, 70, 110
3, 150426, Note_off_c, 1, 72, 64
3, 150480, Note_on_c, 1, 69, 110
3, 150481, Note_off_c, 1, 70, 64
3, 150540, Note_on_c, 1, 70, 110
3, 150550, Note_off_c, 1, 69, 64
3, 150599, Note_off_c, 1, 70, 64
3, 150600, Note_on_c, 1, 72, 110
3, 150654, Note_off_c, 1, 72, 64
3, 150660, Note_on_c, 1, 70, 110
3, 150714, Note_off_c, 1, 70, 64
3, 150720, Note_on_c, 1, 72, 110
3, 150780, Note_on_c, 1, 69, 110
3, 150783, Note_off_c, 1, 72, 64
3, 150840, Note_on_c, 1, 70, 110
3, 150847, Note_off_c, 1, 69, 64
3, 150900, Note_on_c, 1, 72, 110
3, 150902, Note_off_c, 1, 70, 64
3, 150953, Note_off_c, 1, 72, 64
3, 150960, Note_on_c, 1, 73, 110
3, 151020, Note_on_c, 1, 72, 110
3, 151034, Note_off_c, 1, 73, 64
3, 151080, Note_on_c, 1, 70, 110
3, 151081, Note_off_c, 1, 72, 64
3, 151140, Note_on_c, 1, 68, 110
3, 151148, Note_off_c, 1, 70, 64
3, 151177, Note_off_c, 1, 68, 64
3, 151200, Note_on_c, 1, 67, 110
3, 151260, Note_on_c, 1, 68, 110
3, 151268, Note_off_c, 1, 67, 64
3, 151320, Note_on_c, 1, 70, 110
3, 151324, Note_off_c, 1, 68, 64
3, 151371, Note_off_c, 1, 70, 64
3, 151380, Note_on_c, 1, 68, 110
3, 151440, Note_on_c, 1, 70, 110
3, 151451, Note_off_c, 1, 68, 64
3, 151500, Note_on_c, 1, 67, 110
3, 151503, Note_off_c, 1, 70, 64
3, 151540, Note_off_c, 1, 67, 64
3, 151560, Note_on_c, 1, 68, 110
3, 151673, Note_off_c, 1, 68, 64
3, 152640, Note_on_c, 1, 67, 110
3, 152760, Note_on_c, 1, 70, 110
3, 152766, Note_off_c, 1, 67, 64
3, 152815, Note_off_c, 1, 70, 64
3, 152820, Note_on_c, 1, 68, 110
3, 152880, Note_on_c, 1, 70, 110
3, 152884, Note_off_c, 1, 68, 64
3, 152938, Note_off_c, 1, 70, 64
3, 152940, Note_on_c, 1, 67, 110
3, 152992, Note_off_c, 1, 67, 64
3, 153000, Note_on_c, 1, 72, 110
3, 153120, Note_on_c, 1, 70, 110
3, 153125, Note_off_c, 1, 72, 64
3, 153240, Note_on_c, 1, 72, 110
3, 153246, Note_off_c, 1, 70, 64
3, 153355, Note_off_c, 1, 72, 64
3, 153360, Note_on_c, 1, 65, 110
3, 153480, Note_on_c, 1, 68, 110
3, 153491, Note_off_c, 1, 65, 64
3, 153526, Note_off_c, 1, 68, 64
3, 153540, Note_on_c, 1, 67, 110
3, 153600, Note_on_c, 1, 68, 110
3, 153608, Note_off_c, 1, 67, 64
3, 153648, Note_off_c, 1, 68, 64
3, 153660, Note_on_c, 1, 65, 110
3, 153720, Note_on_c, 1, 70, 110
3, 153736, Note_off_c, 1, 65, 64
3, 153840, Note_on_c, 1, 68, 110
3, 153850, Note_off_c, 1, 70, 64
3, 153957, Note_off_c, 1, 68, 64
3, 153960, Note_on_c, 1, 70, 110
3, 154070, Note_off_c, 1, 70, 64
3, 154080, Note_on_c, 1, 63, 110
3, 154169, Note_off_c, 1, 63, 64
3, 154200, Note_on_c, 1, 65, 110
3, 154248, Note_off_c, 1, 65, 64
3, 154260, Note_on_c, 1, 67, 110
3, 154308, Note_off_c, 1, 67, 64
3, 154320, Note_on_c, 1, 68, 110
3, 154368, Note_off_c, 1, 68, 64
3, 154380, Note_on_c, 1, 70, 110
3, 154428, Note_off_c, 1, 70, 64
3, 154440, Note_on_c, 1, 72, 110
3, 154488, Note_off_c, 1, 72, 64
3, 154500, Note_on_c, 1, 68, 110
3, 154548, Note_off_c, 1, 68, 64
3, 154560, Note_on_c, 1, 70, 110
3, 154608, Note_off_c, 1, 70, 64
3, 154620, Note_on_c, 1, 72, 110
3, 154668, Note_off_c, 1, 72, 64
3, 154680, Note_on_c, 1, 74, 110
3, 154728, Note_off_c, 1, 74, 64
3, 154740, Note_on_c, 1, 76, 110
3, 154788, Note_off_c, 1, 76, 64
3, 155160, Note_on_c, 1, 70, 110
3, 155880, Note_on_c, 1, 68, 110
3, 155903, Note_off_c, 1, 70, 64
3, 156168, Note_off_c, 1, 68, 64
3, 156240, Note_on_c, 1, 67, 110
3, 156816, Note_off_c, 1, 67, 64
3, 156960, Note_on_c, 1, 68, 110
3, 157320, Note_on_c, 1, 73, 110
3, 157322, Note_off_c, 1, 68, 64
3, 158040, Note_on_c, 1, 72, 110
3, 158062, Note_off_c, 1, 73, 64
3, 158760, Note_on_c, 1, 70, 110
3, 158800, Note_off_c, 1, 72, 64
3, 159480, Note_on_c, 1, 68, 110
3, 159485, Note_off_c, 1, 70, 64
3, 160200, Note_on_c, 1, 67, 110
3, 160223, Note_off_c, 1, 68, 64
3, 160920, Note_on_c, 1, 65, 110
3, 160929, Note_off_c, 1, 67, 64
3, 161640, Note_on_c, 1, 63, 110
3, 161654, Note_off_c, 1, 65, 64
3, 161928, Note_off_c, 1, 63, 64
3, 162000, Note_on_c, 1, 65, 110
3, 162120, Note_on_c, 1, 68, 110
3, 162158, Note_off_c, 1, 65, 64
3, 162180, Note_on_c, 1, 67, 110
3, 162186, Note_off_c, 1, 68, 64
3, 162227, Note_off_c, 1, 67, 64
3, 162240, Note_on_c, 1, 68, 110
3, 162295, Note_off_c, 1, 68, 64
3, 162300, Note_on_c, 1, 65, 110
3, 162338, Note_off_c, 1, 65, 64
3, 162360, Note_on_c, 1, 62, 110
3, 162480, Note_on_c, 1, 67, 110
3, 162525, Note_off_c, 1, 62, 64
3, 163008, Note_off_c, 1, 67, 64
3, 164520, Note_on_c, 1, 69, 110
3, 165096, Note_off_c, 1, 69, 64
3, 165240, Note_on_c, 1, 67, 110
3, 165528, Note_off_c, 1, 67, 64
3, 165600, Note_on_c, 1, 72, 110
3, 166320, Note_on_c, 1, 70, 110
3, 166328, Note_off_c, 1, 72, 64
3, 166680, Note_on_c, 1, 75, 110
3, 166682, Note_off_c, 1, 70, 64
3, 167400, Note_on_c, 1, 74, 110
3, 167401, Note_off_c, 1, 75, 64
3, 167688, Note_off_c, 1, 74, 64
3, 167760, Note_on_c, 1, 75, 110
3, 168177, Note_off_c, 1, 75, 64
3, 168180, Note_on_c, 1, 74, 110
3, 168240, Note_on_c, 1, 75, 110
3, 168246, Note_off_c, 1, 74, 64
3, 168296, Note_off_c, 1, 75, 64
3, 168300, Note_on_c, 1, 77, 110
3, 168360, Note_on_c, 1, 74, 110
3, 168381, Note_off_c, 1, 77, 64
3, 168420, Note_on_c, 1, 75, 110
3, 168421, Note_off_c, 1, 74, 64
3, 168466, Note_off_c, 1, 75, 64
3, 168480, Note_on_c, 1, 77, 110
3, 168888, Note_off_c, 1, 77, 64
3, 168900, Note_on_c, 1, 75, 110
3, 168957, Note_off_c, 1, 75, 64
3, 168960, Note_on_c, 1, 77, 110
3, 169011, Note_off_c, 1, 77, 64
3, 169020, Note_on_c, 1, 79, 110
3, 169080, Note_off_c, 1, 79, 64
3, 169080, Note_on_c, 1, 77, 110
3, 169131, Note_off_c, 1, 77, 64
3, 169140, Note_on_c, 1, 79, 110
3, 169200, Note_on_c, 1, 75, 110
3, 169202, Note_off_c, 1, 79, 64
3, 169620, Note_on_c, 1, 74, 110
3, 169622, Note_off_c, 1, 75, 64
3, 169668, Note_off_c, 1, 74, 64
3, 169680, Note_on_c, 1, 75, 110
3, 169737, Note_off_c, 1, 75, 64
3, 169740, Note_on_c, 1, 77, 110
3, 169800, Note_on_c, 1, 75, 110
3, 169805, Note_off_c, 1, 77, 64
3, 169846, Note_off_c, 1, 75, 64
3, 169860, Note_on_c, 1, 77, 110
3, 169914, Note_off_c, 1, 77, 64
3, 169920, Note_on_c, 1, 74, 110
3, 169980, Note_on_c, 1, 75, 110
3, 169984, Note_off_c, 1, 74, 64
3, 170039, Note_off_c, 1, 75, 64
3, 170040, Note_on_c, 1, 77, 110
3, 170100, Note_on_c, 1, 75, 110
3, 170106, Note_off_c, 1, 77, 64
3, 170160, Note_on_c, 1, 74, 110
3, 170162, Note_off_c, 1, 75, 64
3, 170218, Note_off_c, 1, 74, 64
3, 170220, Note_on_c, 1, 72, 110
3, 170271, Note_off_c, 1, 72, 64
3, 170280, Note_on_c, 1, 70, 110
3, 170400, Note_on_c, 1, 68, 110
3, 170404, Note_off_c, 1, 70, 64
3, 170515, Note_off_c, 1, 68, 64
3, 170520, Note_on_c, 1, 70, 110
3, 170640, Note_on_c, 1, 67, 110
3, 170647, Note_off_c, 1, 70, 64
3, 171000, Note_on_c, 1, 68, 110
3, 171010, Note_off_c, 1, 67, 64
3, 171120, Note_on_c, 1, 67, 110
3, 171132, Note_off_c, 1, 68, 64
3, 171240, Note_on_c, 1, 68, 110
3, 171260, Note_off_c, 1, 67, 64
3, 171360, Note_on_c, 1, 65, 110
3, 171369, Note_off_c, 1, 68, 64
3, 171720, Note_on_c, 1, 70, 110
3, 171739, Note_off_c, 1, 65, 64
3, 172137, Note_off_c, 1, 70, 64
3, 172140, Note_on_c, 1, 73, 110
3, 172200, Note_on_c, 1, 72, 110
3, 172209, Note_off_c, 1, 73, 64
3, 172260, Note_on_c, 1, 70, 110
3, 172264, Note_off_c, 1, 72, 64
3, 172320, Note_on_c, 1, 68, 110
3, 172326, Note_off_c, 1, 70, 64
3, 172380, Note_on_c, 1, 67, 110
3, 172386, Note_off_c, 1, 68, 64
3, 172440, Note_on_c, 1, 68, 110
3, 172449, Note_off_c, 1, 67, 64
3, 172775, Note_off_c, 1, 68, 64
3, 172800, Note_on_c, 1, 68, 110
3, 173520, Note_off_c, 1, 68, 64
3, 173580, Note_on_c, 1, 77, 110
3, 173628, Note_off_c, 1, 77, 64
3, 173640, Note_on_c, 1, 75, 110
3, 173688, Note_off_c, 1, 75, 64
3, 173700, Note_on_c, 1, 73, 110
3, 173748, Note_off_c, 1, 73, 64
3, 173760, Note_on_c, 1, 72, 110
3, 173808, Note_off_c, 1, 72, 64
3, 173820, Note_on_c, 1, 70, 110
3, 173868, Note_off_c, 1, 70, 64
3, 173940, Note_on_c, 1, 70, 110
3, 173988, Note_off_c, 1, 70, 64
3, 174000, Note_on_c, 1, 68, 110
3, 174048, Note_off_c, 1, 68, 64
3, 174060, Note_on_c, 1, 67, 110
3, 174108, Note_off_c, 1, 67, 64
3, 174120, Note_on_c, 1, 65, 110
3, 174168, Note_off_c, 1, 65, 64
3, 174180, Note_on_c, 1, 63, 110
3, 174228, Note_off_c, 1, 63, 64
3, 174240, Note_on_c, 1, 74, 110
3, 174528, Note_off_c, 1, 74, 64
3, 174660, Note_on_c, 1, 80, 110
3, 174708, Note_off_c, 1, 80, 64
3, 174720, Note_on_c, 1, 79, 110
3, 174768, Note_off_c, 1, 79, 64
3, 174780, Note_on_c, 1, 77, 110
3, 174828, Note_off_c, 1, 77, 64
3, 174840, Note_on_c, 1, 75, 110
3, 174888, Note_off_c, 1, 75, 64
3, 174900, Note_on_c, 1, 74, 110
3, 174948, Note_off_c, 1, 74, 64
3, 174960, Note_on_c, 1, 75, 110
3, 175536, Note_off_c, 1, 75, 64
3, 175680, Note_on_c, 1, 74, 110
3, 175720, Note_off_c, 1, 74, 64
3, 175740, Note_on_c, 1, 70, 110
3, 175799, Note_off_c, 1, 70, 64
3, 175800, Note_on_c, 1, 72, 110
3, 175851, Note_off_c, 1, 72, 64
3, 175860, Note_on_c, 1, 74, 110
3, 175900, Note_off_c, 1, 74, 64
3, 175920, Note_on_c, 1, 75, 110
3, 175977, Note_off_c, 1, 75, 64
3, 175980, Note_on_c, 1, 77, 110
3, 176012, Note_off_c, 1, 77, 64
3, 176040, Note_on_c, 1, 79, 110
3, 176154, Note_off_c, 1, 79, 64
3, 176160, Note_on_c, 1, 77, 110
3, 176280, Note_on_c, 1, 79, 110
3, 176284, Note_off_c, 1, 77, 64
3, 176388, Note_off_c, 1, 79, 64
3, 176400, Note_on_c, 1, 72, 110
3, 176511, Note_off_c, 1, 72, 64
3, 176520, Note_on_c, 1, 75, 110
3, 176572, Note_off_c, 1, 75, 64
3, 176580, Note_on_c, 1, 74, 110
3, 176640, Note_on_c, 1, 75, 110
3, 176649, Note_off_c, 1, 74, 64
3, 176694, Note_off_c, 1, 75, 64
3, 176700, Note_on_c, 1, 72, 110
3, 176752, Note_off_c, 1, 72, 64
3, 176760, Note_on_c, 1, 77, 110
3, 176880, Note_on_c, 1, 75, 110
3, 176885, Note_off_c, 1, 77, 64
3, 177000, Note_on_c, 1, 77, 110
3, 177001, Note_off_c, 1, 75, 64
3, 177120, Note_on_c, 1, 70, 110
3, 177122, Note_off_c, 1, 77, 64
3, 177232, Note_off_c, 1, 70, 64
3, 177240, Note_on_c, 1, 74, 110
3, 177297, Note_off_c, 1, 74, 64
3, 177300, Note_on_c, 1, 72, 110
3, 177360, Note_on_c, 1, 74, 110
3, 177370, Note_off_c, 1, 72, 64
3, 177420, Note_on_c, 1, 70, 110
3, 177426, Note_off_c, 1, 74, 64
3, 177466, Note_off_c, 1, 70, 64
3, 177480, Note_on_c, 1, 75, 110
3, 178191, Note_off_c, 1, 75, 64
3, 178200, Note_on_c, 1, 74, 110
3, 178560, Note_on_c, 1, 75, 110
3, 178562, Note_off_c, 1, 74, 64
3, 178607, Note_off_c, 1, 75, 64
3, 178620, Note_on_c, 1, 77, 110
3, 178677, Note_off_c, 1, 77, 64
3, 178680, Note_on_c, 1, 75, 110
3, 178738, Note_off_c, 1, 75, 64
3, 178740, Note_on_c, 1, 74, 110
3, 178800, Note_on_c, 1, 75, 110
3, 178805, Note_off_c, 1, 74, 64
3, 178857, Note_off_c, 1, 75, 64
3, 178860, Note_on_c, 1, 79, 110
3, 178902, Note_off_c, 1, 79, 64
3, 178920, Note_on_c, 1, 72, 110
3, 179208, Note_off_c, 1, 72, 64
3, 179280, Note_on_c, 1, 70, 110
3, 180000, Note_on_c, 1, 72, 110
3, 180001, Note_off_c, 1, 70, 64
3, 180720, Note_on_c, 1, 65, 110
3, 180733, Note_off_c, 1, 72, 64
3, 180845, Note_off_c, 1, 65, 64
3, 181080, Note_on_c, 1, 70, 110
3, 181800, Note_on_c, 1, 68, 110
3, 181816, Note_off_c, 1, 70, 64
3, 182520, Note_on_c, 1, 67, 110
3, 182523, Note_off_c, 1, 68, 64
3, 182788, Note_off_c, 1, 67, 64
3, 182880, Note_on_c, 1, 77, 110
3, 183713, Note_off_c, 1, 77, 64
3, 183720, Note_on_c, 1, 75, 110
3, 183839, Note_off_c, 1, 75, 64
3, 183840, Note_on_c, 1, 74, 110
3, 184056, Note_off_c, 1, 74, 64
3, 184080, Note_on_c, 1, 75, 110
3, 184200, Note_on_c, 1, 72, 110
3, 184216, Note_off_c, 1, 75, 64
3, 184320, Note_on_c, 1, 67, 110
3, 184326, Note_off_c, 1, 72, 64
3, 184674, Note_off_c, 1, 67, 64
3, 184680, Note_on_c, 1, 68, 110
3, 184968, Note_off_c, 1, 68, 64
3, 185040, Note_on_c, 1, 67, 110
3, 185669, Note_off_c, 1, 67, 64
3, 185669, End_track
4, 0, Start_track
4, 0, Title_t, """St. Anne's Fugue"""
4, 0, Program_c, 2, 19
4, 0, Control_c, 2, 7, 127
4, 0, Control_c, 2, 91, 127
4, 0, Note_on_c, 2, 58, 127
4, 768, Note_off_c, 2, 58, 64
4, 960, Note_on_c, 2, 55, 110
4, 1440, Note_on_c, 2, 60, 110
4, 1464, Note_off_c, 2, 55, 64
4, 1920, Note_on_c, 2, 58, 110
4, 1933, Note_off_c, 2, 60, 64
4, 2398, Note_off_c, 2, 58, 64
4, 2400, Note_on_c, 2, 63, 110
4, 3360, Note_on_c, 2, 62, 110
4, 3385, Note_off_c, 2, 63, 64
4, 3833, Note_off_c, 2, 62, 64
4, 3840, Note_on_c, 2, 63, 110
4, 4061, Note_off_c, 2, 63, 64
4, 4080, Note_on_c, 2, 65, 110
4, 4320, Note_on_c, 2, 67, 110
4, 4325, Note_off_c, 2, 65, 64
4, 4560, Note_on_c, 2, 68, 110
4, 4565, Note_off_c, 2, 67, 64
4, 4800, Note_on_c, 2, 70, 110
4, 4811, Note_off_c, 2, 68, 64
4, 5032, Note_off_c, 2, 70, 64
4, 5040, Note_on_c, 2, 58, 110
4, 5280, Note_on_c, 2, 63, 110
4, 5284, Note_off_c, 2, 58, 64
4, 5520, Note_on_c, 2, 65, 110
4, 5532, Note_off_c, 2, 63, 64
4, 5760, Note_on_c, 2, 67, 110
4, 5779, Note_off_c, 2, 65, 64
4, 5999, Note_off_c, 2, 67, 64
4, 6000, Note_on_c, 2, 65, 110
4, 6240, Note_on_c, 2, 63, 110
4, 6274, Note_off_c, 2, 65, 64
4, 6480, Note_on_c, 2, 62, 110
4, 6497, Note_off_c, 2, 63, 64
4, 6720, Note_on_c, 2, 63, 110
4, 6732, Note_off_c, 2, 62, 64
4, 6960, Note_on_c, 2, 60, 110
4, 6968, Note_off_c, 2, 63, 64
4, 7200, Note_on_c, 2, 65, 110
4, 7223, Note_off_c, 2, 60, 64
4, 7440, Note_on_c, 2, 63, 110
4, 7461, Note_off_c, 2, 65, 64
4, 7680, Note_on_c, 2, 62, 110
4, 7684, Note_off_c, 2, 63, 64
4, 8086, Note_off_c, 2, 62, 64
4, 8160, Note_on_c, 2, 70, 110
4, 9120, Note_on_c, 2, 68, 110
4, 9138, Note_off_c, 2, 70, 64
4, 10080, Note_on_c, 2, 67, 110
4, 10090, Note_off_c, 2, 68, 64
4, 10800, Note_on_c, 2, 60, 110
4, 10804, Note_off_c, 2, 67, 64
4, 11040, Note_on_c, 2, 65, 110
4, 11061, Note_off_c, 2, 60, 64
4, 11280, Note_on_c, 2, 63, 110
4, 11310, Note_off_c, 2, 65, 64
4, 11515, Note_off_c, 2, 63, 64
4, 11520, Note_on_c, 2, 62, 110
4, 11753, Note_off_c, 2, 62, 64
4, 11760, Note_on_c, 2, 58, 110
4, 11967, Note_off_c, 2, 58, 64
4, 12000, Note_on_c, 2, 60, 110
4, 12240, Note_on_c, 2, 62, 110
4, 12251, Note_off_c, 2, 60, 64
4, 12480, Note_on_c, 2, 63, 110
4, 12511, Note_off_c, 2, 62, 64
4, 12960, Note_on_c, 2, 68, 110
4, 12977, Note_off_c, 2, 63, 64
4, 13440, Note_on_c, 2, 67, 110
4, 13462, Note_off_c, 2, 68, 64
4, 14400, Note_on_c, 2, 65, 110
4, 14448, Note_off_c, 2, 67, 64
4, 15356, Note_off_c, 2, 65, 64
4, 15360, Note_on_c, 2, 58, 110
4, 15564, Note_off_c, 2, 58, 64
4, 15600, Note_on_c, 2, 56, 110
4, 15840, Note_on_c, 2, 58, 110
4, 15857, Note_off_c, 2, 56, 64
4, 16080, Note_on_c, 2, 60, 110
4, 16102, Note_off_c, 2, 58, 64
4, 16320, Note_on_c, 2, 62, 110
4, 16368, Note_off_c, 2, 60, 64
4, 16800, Note_on_c, 2, 58, 110
4, 16834, Note_off_c, 2, 62, 64
4, 17280, Note_on_c, 2, 58, 110
4, 17520, Note_on_c, 2, 56, 110
4, 17537, Note_off_c, 2, 58, 64
4, 17760, Note_on_c, 2, 55, 110
4, 17796, Note_off_c, 2, 56, 64
4, 18000, Note_on_c, 2, 53, 110
4, 18016, Note_off_c, 2, 55, 64
4, 18240, Note_on_c, 2, 55, 110
4, 18254, Note_off_c, 2, 53, 64
4, 18720, Note_on_c, 2, 53, 110
4, 18745, Note_off_c, 2, 55, 64
4, 20352, Note_off_c, 2, 53, 64
4, 20400, Note_on_c, 2, 55, 110
4, 20640, Note_on_c, 2, 56, 110
4, 20672, Note_off_c, 2, 55, 64
4, 20880, Note_on_c, 2, 58, 110
4, 20891, Note_off_c, 2, 56, 64
4, 21120, Note_on_c, 2, 60, 110
4, 21124, Note_off_c, 2, 58, 64
4, 21596, Note_off_c, 2, 60, 64
4, 21600, Note_on_c, 2, 58, 110
4, 22080, Note_off_c, 2, 58, 64
4, 22080, Note_on_c, 2, 63, 110
4, 22560, Note_on_c, 2, 62, 110
4, 22586, Note_off_c, 2, 63, 64
4, 23039, Note_off_c, 2, 62, 64
4, 23040, Note_on_c, 2, 60, 110
4, 23999, Note_off_c, 2, 60, 64
4, 24000, Note_on_c, 2, 58, 110
4, 26400, Note_off_c, 2, 58, 64
4, 26400, Note_on_c, 2, 60, 110
4, 26878, Note_off_c, 2, 60, 64
4, 26880, Note_on_c, 2, 58, 110
4, 27839, Note_off_c, 2, 58, 64
4, 27840, Note_on_c, 2, 60, 110
4, 28315, Note_off_c, 2, 60, 64
4, 28320, Note_on_c, 2, 58, 110
4, 29019, Note_off_c, 2, 58, 64
4, 30960, Note_on_c, 2, 70, 110
4, 31200, Note_on_c, 2, 68, 110
4, 31204, Note_off_c, 2, 70, 64
4, 31436, Note_off_c, 2, 68, 64
4, 31440, Note_on_c, 2, 67, 110
4, 31680, Note_on_c, 2, 68, 110
4, 31695, Note_off_c, 2, 67, 64
4, 31916, Note_off_c, 2, 68, 64
4, 31920, Note_on_c, 2, 65, 110
4, 32160, Note_on_c, 2, 70, 110
4, 32186, Note_off_c, 2, 65, 64
4, 32398, Note_off_c, 2, 70, 64
4, 32400, Note_on_c, 2, 68, 110
4, 32640, Note_on_c, 2, 67, 110
4, 32659, Note_off_c, 2, 68, 64
4, 33600, Note_on_c, 2, 65, 110
4, 33608, Note_off_c, 2, 67, 64
4, 34560, Note_on_c, 2, 67, 110
4, 34562, Note_off_c, 2, 65, 64
4, 35520, Note_on_c, 2, 65, 110
4, 35539, Note_off_c, 2, 67, 64
4, 36000, Note_on_c, 2, 69, 110
4, 36015, Note_off_c, 2, 65, 64
4, 36480, Note_on_c, 2, 70, 110
4, 36493, Note_off_c, 2, 69, 64
4, 36720, Note_on_c, 2, 69, 110
4, 36722, Note_off_c, 2, 70, 64
4, 36960, Note_on_c, 2, 67, 110
4, 36991, Note_off_c, 2, 69, 64
4, 37440, Note_on_c, 2, 65, 110
4, 37447, Note_off_c, 2, 67, 64
4, 38636, Note_off_c, 2, 65, 64
4, 38640, Note_on_c, 2, 58, 110
4, 38867, Note_off_c, 2, 58, 64
4, 38880, Note_on_c, 2, 60, 110
4, 39120, Note_on_c, 2, 62, 110
4, 39141, Note_off_c, 2, 60, 64
4, 39360, Note_on_c, 2, 63, 110
4, 39370, Note_off_c, 2, 62, 64
4, 39600, Note_on_c, 2, 62, 110
4, 39605, Note_off_c, 2, 63, 64
4, 39840, Note_on_c, 2, 63, 110
4, 39863, Note_off_c, 2, 62, 64
4, 40080, Note_on_c, 2, 65, 110
4, 40103, Note_off_c, 2, 63, 64
4, 40320, Note_on_c, 2, 67, 110
4, 40364, Note_off_c, 2, 65, 64
4, 40535, Note_off_c, 2, 67, 64
4, 40560, Note_on_c, 2, 65, 110
4, 40800, Note_on_c, 2, 67, 110
4, 40803, Note_off_c, 2, 65, 64
4, 41040, Note_on_c, 2, 68, 110
4, 41061, Note_off_c, 2, 67, 64
4, 41280, Note_on_c, 2, 70, 110
4, 41312, Note_off_c, 2, 68, 64
4, 41472, Note_off_c, 2, 70, 64
4, 41520, Note_on_c, 2, 65, 110
4, 41970, Note_off_c, 2, 65, 64
4, 42000, Note_on_c, 2, 62, 110
4, 42240, Note_on_c, 2, 58, 110
4, 42273, Note_off_c, 2, 62, 64
4, 42646, Note_off_c, 2, 58, 64
4, 42720, Note_on_c, 2, 63, 110
4, 43200, Note_on_c, 2, 62, 110
4, 43248, Note_off_c, 2, 63, 64
4, 43673, Note_off_c, 2, 62, 64
4, 43920, Note_on_c, 2, 70, 110
4, 44143, Note_off_c, 2, 70, 64
4, 44160, Note_on_c, 2, 68, 110
4, 44392, Note_off_c, 2, 68, 64
4, 44400, Note_on_c, 2, 67, 110
4, 44640, Note_on_c, 2, 68, 110
4, 44667, Note_off_c, 2, 67, 64
4, 44880, Note_on_c, 2, 65, 110
4, 44924, Note_off_c, 2, 68, 64
4, 45120, Note_on_c, 2, 67, 110
4, 45125, Note_off_c, 2, 65, 64
4, 45600, Note_on_c, 2, 65, 110
4, 45621, Note_off_c, 2, 67, 64
4, 46560, Note_on_c, 2, 63, 110
4, 46599, Note_off_c, 2, 65, 64
4, 47232, Note_off_c, 2, 63, 64
4, 47280, Note_on_c, 2, 63, 110
4, 47520, Note_on_c, 2, 62, 110
4, 47562, Note_off_c, 2, 63, 64
4, 47760, Note_on_c, 2, 60, 110
4, 47765, Note_off_c, 2, 62, 64
4, 48000, Note_on_c, 2, 62, 110
4, 48021, Note_off_c, 2, 60, 64
4, 48240, Note_on_c, 2, 58, 110
4, 48268, Note_off_c, 2, 62, 64
4, 48477, Note_off_c, 2, 58, 64
4, 48480, Note_on_c, 2, 63, 110
4, 48720, Note_on_c, 2, 62, 110
4, 48740, Note_off_c, 2, 63, 64
4, 48960, Note_on_c, 2, 60, 110
4, 48975, Note_off_c, 2, 62, 64
4, 49440, Note_on_c, 2, 62, 110
4, 49467, Note_off_c, 2, 60, 64
4, 50160, Note_on_c, 2, 53, 110
4, 50183, Note_off_c, 2, 62, 64
4, 50352, Note_off_c, 2, 53, 64
4, 50400, Note_on_c, 2, 55, 110
4, 50640, Note_on_c, 2, 56, 110
4, 50651, Note_off_c, 2, 55, 64
4, 50880, Note_on_c, 2, 58, 110
4, 50906, Note_off_c, 2, 56, 64
4, 51115, Note_off_c, 2, 58, 64
4, 51120, Note_on_c, 2, 56, 110
4, 51360, Note_on_c, 2, 58, 110
4, 51373, Note_off_c, 2, 56, 64
4, 51600, Note_on_c, 2, 60, 110
4, 51639, Note_off_c, 2, 58, 64
4, 51840, Note_on_c, 2, 62, 110
4, 51846, Note_off_c, 2, 60, 64
4, 52080, Note_on_c, 2, 63, 110
4, 52107, Note_off_c, 2, 62, 64
4, 52320, Note_on_c, 2, 65, 110
4, 52350, Note_off_c, 2, 63, 64
4, 52800, Note_on_c, 2, 67, 110
4, 52837, Note_off_c, 2, 65, 64
4, 53039, Note_off_c, 2, 67, 64
4, 53040, Note_on_c, 2, 55, 110
4, 53280, Note_on_c, 2, 56, 110
4, 53292, Note_off_c, 2, 55, 64
4, 53520, Note_on_c, 2, 58, 110
4, 53526, Note_off_c, 2, 56, 64
4, 53760, Note_on_c, 2, 60, 110
4, 53777, Note_off_c, 2, 58, 64
4, 53988, Note_off_c, 2, 60, 64
4, 54000, Note_on_c, 2, 55, 110
4, 54240, Note_on_c, 2, 60, 110
4, 54254, Note_off_c, 2, 55, 64
4, 54480, Note_on_c, 2, 58, 110
4, 54522, Note_off_c, 2, 60, 64
4, 54720, Note_on_c, 2, 57, 110
4, 54735, Note_off_c, 2, 58, 64
4, 55200, Note_on_c, 2, 58, 110
4, 55221, Note_off_c, 2, 57, 64
4, 56160, Note_on_c, 2, 56, 110
4, 56173, Note_off_c, 2, 58, 64
4, 57028, Note_off_c, 2, 56, 64
4, 57120, Note_on_c, 2, 55, 110
4, 57360, Note_on_c, 2, 56, 110
4, 57371, Note_off_c, 2, 55, 64
4, 57600, Note_on_c, 2, 58, 110
4, 57636, Note_off_c, 2, 56, 64
4, 59040, Note_off_c, 2, 58, 64
4, 59040, Note_on_c, 2, 63, 110
4, 59520, Note_on_c, 2, 62, 110
4, 59534, Note_off_c, 2, 63, 64
4, 60000, Note_on_c, 2, 67, 110
4, 60021, Note_off_c, 2, 62, 64
4, 60480, Note_on_c, 2, 65, 110
4, 60502, Note_off_c, 2, 67, 64
4, 60960, Note_on_c, 2, 70, 110
4, 60974, Note_off_c, 2, 65, 64
4, 61440, Note_on_c, 2, 70, 110
4, 61457, Note_off_c, 2, 70, 64
4, 61920, Note_on_c, 2, 72, 110
4, 61960, Note_off_c, 2, 70, 64
4, 62400, Note_on_c, 2, 70, 110
4, 62413, Note_off_c, 2, 72, 64
4, 63360, Note_on_c, 2, 68, 110
4, 63385, Note_off_c, 2, 70, 64
4, 64320, Note_on_c, 2, 67, 110
4, 64330, Note_off_c, 2, 68, 64
4, 65280, Note_on_c, 2, 65, 110
4, 65312, Note_off_c, 2, 67, 64
4, 66240, Note_on_c, 2, 63, 110
4, 66257, Note_off_c, 2, 65, 64
4, 66960, Note_on_c, 2, 68, 110
4, 66977, Note_off_c, 2, 63, 64
4, 67200, Note_on_c, 2, 65, 110
4, 67210, Note_off_c, 2, 68, 64
4, 67680, Note_on_c, 2, 67, 110
4, 67694, Note_off_c, 2, 65, 64
4, 68160, Note_on_c, 2, 65, 110
4, 68210, Note_off_c, 2, 67, 64
4, 69093, Note_off_c, 2, 65, 64
4, 69120, Note_on_c, 2, 63, 110
4, 69345, Note_off_c, 2, 63, 64
4, 72240, Note_on_c, 2, 58, 96
4, 72336, Note_off_c, 2, 58, 64
4, 72360, Note_on_c, 2, 57, 96
4, 72456, Note_off_c, 2, 57, 64
4, 72480, Note_on_c, 2, 58, 96
4, 72576, Note_off_c, 2, 58, 64
4, 72600, Note_on_c, 2, 60, 96
4, 72696, Note_off_c, 2, 60, 64
4, 72720, Note_on_c, 2, 62, 96
4, 72816, Note_off_c, 2, 62, 64
4, 72840, Note_on_c, 2, 60, 96
4, 72936, Note_off_c, 2, 60, 64
4, 72960, Note_on_c, 2, 62, 96
4, 73056, Note_off_c, 2, 62, 64
4, 73080, Note_on_c, 2, 63, 96
4, 73176, Note_off_c, 2, 63, 64
4, 73200, Note_on_c, 2, 62, 96
4, 73296, Note_off_c, 2, 62, 64
4, 73320, Note_on_c, 2, 63, 96
4, 73416, Note_off_c, 2, 63, 64
4, 73440, Note_on_c, 2, 60, 96
4, 73536, Note_off_c, 2, 60, 64
4, 73560, Note_on_c, 2, 58, 96
4, 73656, Note_off_c, 2, 58, 64
4, 73680, Note_on_c, 2, 60, 96
4, 73776, Note_off_c, 2, 60, 64
4, 73800, Note_on_c, 2, 62, 96
4, 73896, Note_off_c, 2, 62, 64
4, 73920, Note_on_c, 2, 60, 96
4, 74016, Note_off_c, 2, 60, 64
4, 74040, Note_on_c, 2, 62, 96
4, 74136, Note_off_c, 2, 62, 64
4, 74160, Note_on_c, 2, 63, 96
4, 74256, Note_off_c, 2, 63, 64
4, 74280, Note_on_c, 2, 62, 96
4, 74376, Note_off_c, 2, 62, 64
4, 74400, Note_on_c, 2, 63, 96
4, 74496, Note_off_c, 2, 63, 64
4, 74520, Note_on_c, 2, 65, 96
4, 74616, Note_off_c, 2, 65, 64
4, 74640, Note_on_c, 2, 63, 96
4, 74736, Note_off_c, 2, 63, 64
4, 74760, Note_on_c, 2, 65, 96
4, 74856, Note_off_c, 2, 65, 64
4, 74880, Note_on_c, 2, 62, 96
4, 74976, Note_off_c, 2, 62, 64
4, 75000, Note_on_c, 2, 63, 96
4, 75096, Note_off_c, 2, 63, 64
4, 75120, Note_on_c, 2, 62, 96
4, 75216, Note_off_c, 2, 62, 64
4, 75240, Note_on_c, 2, 60, 96
4, 75336, Note_off_c, 2, 60, 64
4, 75360, Note_on_c, 2, 62, 96
4, 75456, Note_off_c, 2, 62, 64
4, 75480, Note_on_c, 2, 58, 96
4, 75576, Note_off_c, 2, 58, 64
4, 75600, Note_on_c, 2, 60, 96
4, 75696, Note_off_c, 2, 60, 64
4, 75720, Note_on_c, 2, 58, 96
4, 75816, Note_off_c, 2, 58, 64
4, 75840, Note_on_c, 2, 60, 96
4, 75936, Note_off_c, 2, 60, 64
4, 75960, Note_on_c, 2, 62, 96
4, 76056, Note_off_c, 2, 62, 64
4, 76080, Note_on_c, 2, 60, 96
4, 76176, Note_off_c, 2, 60, 64
4, 76200, Note_on_c, 2, 62, 96
4, 76296, Note_off_c, 2, 62, 64
4, 76320, Note_on_c, 2, 58, 96
4, 76416, Note_off_c, 2, 58, 64
4, 76440, Note_on_c, 2, 60, 96
4, 76536, Note_off_c, 2, 60, 64
4, 76560, Note_on_c, 2, 58, 96
4, 76656, Note_off_c, 2, 58, 64
4, 76680, Note_on_c, 2, 56, 96
4, 76776, Note_off_c, 2, 56, 64
4, 76800, Note_on_c, 2, 58, 96
4, 76896, Note_off_c, 2, 58, 64
4, 76920, Note_on_c, 2, 55, 96
4, 77016, Note_off_c, 2, 55, 64
4, 77040, Note_on_c, 2, 56, 96
4, 77136, Note_off_c, 2, 56, 64
4, 77160, Note_on_c, 2, 55, 96
4, 77256, Note_off_c, 2, 55, 64
4, 77280, Note_on_c, 2, 56, 96
4, 77376, Note_off_c, 2, 56, 64
4, 77400, Note_on_c, 2, 58, 96
4, 77496, Note_off_c, 2, 58, 64
4, 77520, Note_on_c, 2, 56, 96
4, 77616, Note_off_c, 2, 56, 64
4, 77640, Note_on_c, 2, 58, 96
4, 77736, Note_off_c, 2, 58, 64
4, 77760, Note_on_c, 2, 55, 96
4, 77856, Note_off_c, 2, 55, 64
4, 77880, Note_on_c, 2, 53, 96
4, 77976, Note_off_c, 2, 53, 64
4, 78000, Note_on_c, 2, 55, 96
4, 78096, Note_off_c, 2, 55, 64
4, 78120, Note_on_c, 2, 56, 96
4, 78216, Note_off_c, 2, 56, 64
4, 78240, Note_on_c, 2, 55, 96
4, 78336, Note_off_c, 2, 55, 64
4, 78360, Note_on_c, 2, 53, 96
4, 78456, Note_off_c, 2, 53, 64
4, 78480, Note_on_c, 2, 51, 96
4, 78672, Note_off_c, 2, 51, 64
4, 78720, Note_on_c, 2, 63, 96
4, 80112, Note_off_c, 2, 63, 64
4, 80160, Note_on_c, 2, 62, 96
4, 80544, Note_off_c, 2, 62, 64
4, 80640, Note_on_c, 2, 63, 96
4, 80832, Note_off_c, 2, 63, 64
4, 80880, Note_on_c, 2, 63, 96
4, 81264, Note_off_c, 2, 63, 64
4, 81360, Note_on_c, 2, 62, 96
4, 81552, Note_off_c, 2, 62, 64
4, 81600, Note_on_c, 2, 67, 96
4, 81792, Note_off_c, 2, 67, 64
4, 81840, Note_on_c, 2, 65, 96
4, 82032, Note_off_c, 2, 65, 64
4, 82080, Note_on_c, 2, 63, 96
4, 82176, Note_off_c, 2, 63, 64
4, 82200, Note_on_c, 2, 62, 96
4, 82296, Note_off_c, 2, 62, 64
4, 82320, Note_on_c, 2, 63, 96
4, 82416, Note_off_c, 2, 63, 64
4, 82440, Note_on_c, 2, 65, 96
4, 82536, Note_off_c, 2, 65, 64
4, 82560, Note_on_c, 2, 63, 96
4, 82656, Note_off_c, 2, 63, 64
4, 82680, Note_on_c, 2, 62, 96
4, 82776, Note_off_c, 2, 62, 64
4, 82800, Note_on_c, 2, 60, 96
4, 83376, Note_off_c, 2, 60, 64
4, 83520, Note_on_c, 2, 58, 96
4, 83712, Note_off_c, 2, 58, 64
4, 86640, Note_on_c, 2, 63, 96
4, 86736, Note_off_c, 2, 63, 64
4, 86760, Note_on_c, 2, 65, 96
4, 86856, Note_off_c, 2, 65, 64
4, 86880, Note_on_c, 2, 63, 96
4, 86976, Note_off_c, 2, 63, 64
4, 87000, Note_on_c, 2, 62, 96
4, 87096, Note_off_c, 2, 62, 64
4, 87120, Note_on_c, 2, 60, 96
4, 87216, Note_off_c, 2, 60, 64
4, 87240, Note_on_c, 2, 62, 96
4, 87336, Note_off_c, 2, 62, 64
4, 87360, Note_on_c, 2, 60, 96
4, 87456, Note_off_c, 2, 60, 64
4, 87480, Note_on_c, 2, 59, 96
4, 87576, Note_off_c, 2, 59, 64
4, 87600, Note_on_c, 2, 60, 96
4, 87696, Note_off_c, 2, 60, 64
4, 87720, Note_on_c, 2, 57, 96
4, 87816, Note_off_c, 2, 57, 64
4, 87840, Note_on_c, 2, 62, 96
4, 87936, Note_off_c, 2, 62, 64
4, 87960, Note_on_c, 2, 63, 96
4, 88056, Note_off_c, 2, 63, 64
4, 88080, Note_on_c, 2, 62, 96
4, 88176, Note_off_c, 2, 62, 64
4, 88200, Note_on_c, 2, 60, 96
4, 88296, Note_off_c, 2, 60, 64
4, 88320, Note_on_c, 2, 62, 96
4, 88416, Note_off_c, 2, 62, 64
4, 88440, Note_on_c, 2, 60, 96
4, 88536, Note_off_c, 2, 60, 64
4, 88560, Note_on_c, 2, 59, 96
4, 88656, Note_off_c, 2, 59, 64
4, 88680, Note_on_c, 2, 60, 96
4, 88776, Note_off_c, 2, 60, 64
4, 88800, Note_on_c, 2, 59, 96
4, 88896, Note_off_c, 2, 59, 64
4, 88920, Note_on_c, 2, 57, 96
4, 89016, Note_off_c, 2, 57, 64
4, 89040, Note_on_c, 2, 59, 96
4, 89136, Note_off_c, 2, 59, 64
4, 89160, Note_on_c, 2, 55, 96
4, 89256, Note_off_c, 2, 55, 64
4, 89280, Note_on_c, 2, 60, 96
4, 89472, Note_off_c, 2, 60, 64
4, 89520, Note_on_c, 2, 62, 96
4, 89712, Note_off_c, 2, 62, 64
4, 89760, Note_on_c, 2, 63, 96
4, 89952, Note_off_c, 2, 63, 64
4, 90000, Note_on_c, 2, 56, 96
4, 90192, Note_off_c, 2, 56, 64
4, 90240, Note_on_c, 2, 65, 96
4, 90912, Note_off_c, 2, 65, 64
4, 90960, Note_on_c, 2, 63, 96
4, 91152, Note_off_c, 2, 63, 64
4, 91200, Note_on_c, 2, 62, 96
4, 91392, Note_off_c, 2, 62, 64
4, 91440, Note_on_c, 2, 60, 96
4, 92610, Note_off_c, 2, 60, 64
4, 92640, Note_on_c, 2, 61, 96
4, 92832, Note_off_c, 2, 61, 64
4, 92880, Note_on_c, 2, 60, 96
4, 93072, Note_off_c, 2, 60, 64
4, 93120, Note_on_c, 2, 65, 96
4, 93504, Note_off_c, 2, 65, 64
4, 93600, Note_on_c, 2, 58, 96
4, 93696, Note_off_c, 2, 58, 64
4, 93720, Note_on_c, 2, 57, 96
4, 93816, Note_off_c, 2, 57, 64
4, 93840, Note_on_c, 2, 58, 96
4, 93936, Note_off_c, 2, 58, 64
4, 93960, Note_on_c, 2, 60, 96
4, 94056, Note_off_c, 2, 60, 64
4, 94080, Note_on_c, 2, 58, 96
4, 94176, Note_off_c, 2, 58, 64
4, 94200, Note_on_c, 2, 60, 96
4, 94296, Note_off_c, 2, 60, 64
4, 94320, Note_on_c, 2, 62, 96
4, 94416, Note_off_c, 2, 62, 64
4, 94440, Note_on_c, 2, 60, 96
4, 94536, Note_off_c, 2, 60, 64
4, 94560, Note_on_c, 2, 62, 96
4, 94656, Note_off_c, 2, 62, 64
4, 94680, Note_on_c, 2, 63, 96
4, 94776, Note_off_c, 2, 63, 64
4, 94800, Note_on_c, 2, 62, 96
4, 94896, Note_off_c, 2, 62, 64
4, 94920, Note_on_c, 2, 63, 96
4, 95016, Note_off_c, 2, 63, 64
4, 95040, Note_on_c, 2, 60, 96
4, 95136, Note_off_c, 2, 60, 64
4, 95160, Note_on_c, 2, 58, 96
4, 95256, Note_off_c, 2, 58, 64
4, 95280, Note_on_c, 2, 60, 96
4, 95376, Note_off_c, 2, 60, 64
4, 95400, Note_on_c, 2, 62, 96
4, 95496, Note_off_c, 2, 62, 64
4, 95520, Note_on_c, 2, 60, 96
4, 95616, Note_off_c, 2, 60, 64
4, 95640, Note_on_c, 2, 62, 96
4, 95736, Note_off_c, 2, 62, 64
4, 95760, Note_on_c, 2, 63, 96
4, 95856, Note_off_c, 2, 63, 64
4, 95880, Note_on_c, 2, 62, 96
4, 95976, Note_off_c, 2, 62, 64
4, 96000, Note_on_c, 2, 63, 96
4, 96096, Note_off_c, 2, 63, 64
4, 96120, Note_on_c, 2, 65, 96
4, 96216, Note_off_c, 2, 65, 64
4, 96240, Note_on_c, 2, 63, 96
4, 96336, Note_off_c, 2, 63, 64
4, 96360, Note_on_c, 2, 65, 96
4, 96456, Note_off_c, 2, 65, 64
4, 96480, Note_on_c, 2, 62, 96
4, 96576, Note_off_c, 2, 62, 64
4, 96600, Note_on_c, 2, 60, 96
4, 96696, Note_off_c, 2, 60, 64
4, 96720, Note_on_c, 2, 62, 96
4, 96816, Note_off_c, 2, 62, 64
4, 96840, Note_on_c, 2, 63, 96
4, 96936, Note_off_c, 2, 63, 64
4, 96960, Note_on_c, 2, 62, 96
4, 97056, Note_off_c, 2, 62, 64
4, 97080, Note_on_c, 2, 63, 96
4, 97176, Note_off_c, 2, 63, 64
4, 97200, Note_on_c, 2, 65, 96
4, 97392, Note_off_c, 2, 65, 64
4, 97440, Note_on_c, 2, 58, 96
4, 98112, Note_off_c, 2, 58, 64
4, 98160, Note_on_c, 2, 63, 96
4, 98256, Note_off_c, 2, 63, 64
4, 98280, Note_on_c, 2, 65, 96
4, 98376, Note_off_c, 2, 65, 64
4, 98400, Note_on_c, 2, 63, 96
4, 98496, Note_off_c, 2, 63, 64
4, 98520, Note_on_c, 2, 65, 96
4, 98616, Note_off_c, 2, 65, 64
4, 98640, Note_on_c, 2, 67, 96
4, 98832, Note_off_c, 2, 67, 64
4, 98880, Note_on_c, 2, 60, 96
4, 99744, Note_off_c, 2, 60, 64
4, 99840, Note_on_c, 2, 58, 96
4, 100032, Note_off_c, 2, 58, 64
4, 100080, Note_on_c, 2, 55, 96
4, 100272, Note_off_c, 2, 55, 64
4, 100440, Note_on_c, 2, 57, 96
4, 100536, Note_off_c, 2, 57, 64
4, 100560, Note_on_c, 2, 60, 96
4, 100656, Note_off_c, 2, 60, 64
4, 100680, Note_on_c, 2, 65, 96
4, 100992, Note_off_c, 2, 65, 64
4, 101760, Note_on_c, 2, 58, 96
4, 102144, Note_off_c, 2, 58, 64
4, 102240, Note_on_c, 2, 55, 96
4, 102432, Note_off_c, 2, 55, 64
4, 102480, Note_on_c, 2, 60, 96
4, 102864, Note_off_c, 2, 60, 64
4, 102960, Note_on_c, 2, 58, 96
4, 103152, Note_off_c, 2, 58, 64
4, 103200, Note_on_c, 2, 63, 96
4, 103872, Note_off_c, 2, 63, 64
4, 103920, Note_on_c, 2, 63, 96
4, 103968, Note_off_c, 2, 63, 64
4, 103980, Note_on_c, 2, 62, 96
4, 104028, Note_off_c, 2, 62, 64
4, 104040, Note_on_c, 2, 63, 96
4, 104088, Note_off_c, 2, 63, 64
4, 104100, Note_on_c, 2, 62, 96
4, 104148, Note_off_c, 2, 62, 64
4, 104160, Note_on_c, 2, 63, 96
4, 104208, Note_off_c, 2, 63, 64
4, 104220, Note_on_c, 2, 62, 96
4, 104268, Note_off_c, 2, 62, 64
4, 104280, Note_on_c, 2, 63, 96
4, 104328, Note_off_c, 2, 63, 64
4, 104340, Note_on_c, 2, 62, 96
4, 104388, Note_off_c, 2, 62, 64
4, 104400, Note_on_c, 2, 63, 96
4, 104592, Note_off_c, 2, 63, 64
4, 104640, Note_on_c, 2, 58, 96
4, 104832, Note_off_c, 2, 58, 64
4, 104880, Note_on_c, 2, 55, 96
4, 105072, Note_off_c, 2, 55, 64
4, 105120, Note_on_c, 2, 55, 96
4, 105216, Note_off_c, 2, 55, 64
4, 105240, Note_on_c, 2, 53, 96
4, 105336, Note_off_c, 2, 53, 64
4, 105360, Note_on_c, 2, 55, 96
4, 105456, Note_off_c, 2, 55, 64
4, 105480, Note_on_c, 2, 57, 96
4, 105576, Note_off_c, 2, 57, 64
4, 105600, Note_on_c, 2, 55, 96
4, 105696, Note_off_c, 2, 55, 64
4, 105720, Note_on_c, 2, 57, 96
4, 105816, Note_off_c, 2, 57, 64
4, 105840, Note_on_c, 2, 58, 96
4, 105936, Note_off_c, 2, 58, 64
4, 105960, Note_on_c, 2, 57, 96
4, 106056, Note_off_c, 2, 57, 64
4, 106080, Note_on_c, 2, 58, 96
4, 106176, Note_off_c, 2, 58, 64
4, 106200, Note_on_c, 2, 60, 96
4, 106296, Note_off_c, 2, 60, 64
4, 106320, Note_on_c, 2, 58, 96
4, 106416, Note_off_c, 2, 58, 64
4, 106440, Note_on_c, 2, 60, 96
4, 106536, Note_off_c, 2, 60, 64
4, 106560, Note_on_c, 2, 62, 96
4, 106656, Note_off_c, 2, 62, 64
4, 106680, Note_on_c, 2, 60, 96
4, 106776, Note_off_c, 2, 60, 64
4, 106800, Note_on_c, 2, 62, 96
4, 106896, Note_off_c, 2, 62, 64
4, 106920, Note_on_c, 2, 63, 96
4, 107016, Note_off_c, 2, 63, 64
4, 107040, Note_on_c, 2, 62, 96
4, 107136, Note_off_c, 2, 62, 64
4, 107160, Note_on_c, 2, 63, 96
4, 107256, Note_off_c, 2, 63, 64
4, 107280, Note_on_c, 2, 65, 96
4, 107376, Note_off_c, 2, 65, 64
4, 107400, Note_on_c, 2, 63, 96
4, 107496, Note_off_c, 2, 63, 64
4, 107520, Note_on_c, 2, 65, 96
4, 107616, Note_off_c, 2, 65, 64
4, 107640, Note_on_c, 2, 67, 96
4, 107736, Note_off_c, 2, 67, 64
4, 107760, Note_on_c, 2, 65, 96
4, 107856, Note_off_c, 2, 65, 64
4, 107880, Note_on_c, 2, 63, 96
4, 107976, Note_off_c, 2, 63, 64
4, 108000, Note_on_c, 2, 62, 96
4, 108096, Note_off_c, 2, 62, 64
4, 108120, Note_on_c, 2, 60, 96
4, 108216, Note_off_c, 2, 60, 64
4, 108240, Note_on_c, 2, 62, 96
4, 108336, Note_off_c, 2, 62, 64
4, 108360, Note_on_c, 2, 63, 96
4, 108456, Note_off_c, 2, 63, 64
4, 108480, Note_on_c, 2, 65, 96
4, 108864, Note_off_c, 2, 65, 64
4, 108960, Note_on_c, 2, 63, 96
4, 109152, Note_off_c, 2, 63, 64
4, 109200, Note_on_c, 2, 62, 96
4, 109392, Note_off_c, 2, 62, 64
4, 109440, Note_on_c, 2, 63, 96
4, 109536, Note_off_c, 2, 63, 64
4, 109560, Note_on_c, 2, 62, 96
4, 109656, Note_off_c, 2, 62, 64
4, 109680, Note_on_c, 2, 63, 96
4, 109776, Note_off_c, 2, 63, 64
4, 109800, Note_on_c, 2, 65, 96
4, 109896, Note_off_c, 2, 65, 64
4, 109920, Note_on_c, 2, 67, 96
4, 110304, Note_off_c, 2, 67, 64
4, 110400, Note_on_c, 2, 65, 96
4, 110592, Note_off_c, 2, 65, 64
4, 110640, Note_on_c, 2, 64, 96
4, 110832, Note_off_c, 2, 64, 64
4, 110880, Note_on_c, 2, 65, 96
4, 111072, Note_off_c, 2, 65, 64
4, 111120, Note_on_c, 2, 60, 96
4, 111792, Note_off_c, 2, 60, 64
4, 111840, Note_on_c, 2, 58, 96
4, 112032, Note_off_c, 2, 58, 64
4, 112080, Note_on_c, 2, 56, 96
4, 112272, Note_off_c, 2, 56, 64
4, 112320, Note_on_c, 2, 55, 96
4, 113232, Note_off_c, 2, 55, 64
4, 113280, Note_on_c, 2, 53, 96
4, 113664, Note_off_c, 2, 53, 64
4, 113760, Note_on_c, 2, 52, 96
4, 113952, Note_off_c, 2, 52, 64
4, 114000, Note_on_c, 2, 53, 96
4, 114192, Note_off_c, 2, 53, 64
4, 114240, Note_on_c, 2, 61, 96
4, 114432, Note_off_c, 2, 61, 64
4, 114480, Note_on_c, 2, 55, 96
4, 114864, Note_off_c, 2, 55, 64
4, 114960, Note_on_c, 2, 60, 96
4, 115392, Note_off_c, 2, 60, 64
4, 121200, Note_on_c, 2, 60, 96
4, 121584, Note_off_c, 2, 60, 64
4, 121680, Note_on_c, 2, 59, 96
4, 121872, Note_off_c, 2, 59, 64
4, 121920, Note_on_c, 2, 63, 96
4, 122304, Note_off_c, 2, 63, 64
4, 122400, Note_on_c, 2, 60, 96
4, 122592, Note_off_c, 2, 60, 64
4, 122640, Note_on_c, 2, 67, 96
4, 123312, Note_off_c, 2, 67, 64
4, 123360, Note_on_c, 2, 66, 96
4, 123744, Note_off_c, 2, 66, 64
4, 123840, Note_on_c, 2, 67, 96
4, 123936, Note_off_c, 2, 67, 64
4, 123960, Note_on_c, 2, 65, 96
4, 124056, Note_off_c, 2, 65, 64
4, 124080, Note_on_c, 2, 63, 96
4, 124176, Note_off_c, 2, 63, 64
4, 124200, Note_on_c, 2, 65, 96
4, 124296, Note_off_c, 2, 65, 64
4, 124320, Note_on_c, 2, 63, 96
4, 124416, Note_off_c, 2, 63, 64
4, 124440, Note_on_c, 2, 62, 96
4, 124536, Note_off_c, 2, 62, 64
4, 124560, Note_on_c, 2, 60, 96
4, 124656, Note_off_c, 2, 60, 64
4, 124680, Note_on_c, 2, 62, 96
4, 124776, Note_off_c, 2, 62, 64
4, 124800, Note_on_c, 2, 60, 96
4, 124896, Note_off_c, 2, 60, 64
4, 124920, Note_on_c, 2, 58, 96
4, 125016, Note_off_c, 2, 58, 64
4, 125040, Note_on_c, 2, 60, 96
4, 125136, Note_off_c, 2, 60, 64
4, 125160, Note_on_c, 2, 58, 96
4, 125256, Note_off_c, 2, 58, 64
4, 125280, Note_on_c, 2, 57, 96
4, 125376, Note_off_c, 2, 57, 64
4, 125400, Note_on_c, 2, 60, 96
4, 125496, Note_off_c, 2, 60, 64
4, 125520, Note_on_c, 2, 65, 96
4, 125616, Note_off_c, 2, 65, 64
4, 125640, Note_on_c, 2, 67, 96
4, 125736, Note_off_c, 2, 67, 64
4, 125760, Note_on_c, 2, 65, 96
4, 125856, Note_off_c, 2, 65, 64
4, 125880, Note_on_c, 2, 63, 96
4, 125976, Note_off_c, 2, 63, 64
4, 126000, Note_on_c, 2, 62, 96
4, 126096, Note_off_c, 2, 62, 64
4, 126120, Note_on_c, 2, 63, 96
4, 126216, Note_off_c, 2, 63, 64
4, 126240, Note_on_c, 2, 62, 96
4, 126336, Note_off_c, 2, 62, 64
4, 126360, Note_on_c, 2, 60, 96
4, 126456, Note_off_c, 2, 60, 64
4, 126480, Note_on_c, 2, 62, 96
4, 126576, Note_off_c, 2, 62, 64
4, 126600, Note_on_c, 2, 60, 96
4, 126696, Note_off_c, 2, 60, 64
4, 126720, Note_on_c, 2, 59, 96
4, 126816, Note_off_c, 2, 59, 64
4, 126840, Note_on_c, 2, 57, 96
4, 126936, Note_off_c, 2, 57, 64
4, 126960, Note_on_c, 2, 59, 96
4, 127056, Note_off_c, 2, 59, 64
4, 127080, Note_on_c, 2, 60, 96
4, 127176, Note_off_c, 2, 60, 64
4, 127200, Note_on_c, 2, 57, 96
4, 127296, Note_off_c, 2, 57, 64
4, 127320, Note_on_c, 2, 59, 96
4, 127416, Note_off_c, 2, 59, 64
4, 127440, Note_on_c, 2, 60, 96
4, 127536, Note_off_c, 2, 60, 64
4, 127560, Note_on_c, 2, 59, 96
4, 127656, Note_off_c, 2, 59, 64
4, 127680, Note_on_c, 2, 60, 96
4, 127776, Note_off_c, 2, 60, 64
4, 127800, Note_on_c, 2, 62, 96
4, 127896, Note_off_c, 2, 62, 64
4, 127920, Note_on_c, 2, 60, 96
4, 128016, Note_off_c, 2, 60, 64
4, 128040, Note_on_c, 2, 62, 96
4, 128136, Note_off_c, 2, 62, 64
4, 128160, Note_on_c, 2, 63, 96
4, 128256, Note_off_c, 2, 63, 64
4, 128280, Note_on_c, 2, 62, 96
4, 128376, Note_off_c, 2, 62, 64
4, 128400, Note_on_c, 2, 63, 96
4, 128496, Note_off_c, 2, 63, 64
4, 128520, Note_on_c, 2, 65, 96
4, 128616, Note_off_c, 2, 65, 64
4, 128640, Note_on_c, 2, 63, 96
4, 128736, Note_off_c, 2, 63, 64
4, 128760, Note_on_c, 2, 65, 96
4, 128856, Note_off_c, 2, 65, 64
4, 128880, Note_on_c, 2, 67, 96
4, 128976, Note_off_c, 2, 67, 64
4, 129000, Note_on_c, 2, 65, 96
4, 129096, Note_off_c, 2, 65, 64
4, 129120, Note_on_c, 2, 67, 96
4, 129216, Note_off_c, 2, 67, 64
4, 129240, Note_on_c, 2, 68, 96
4, 129336, Note_off_c, 2, 68, 64
4, 129360, Note_on_c, 2, 67, 96
4, 129456, Note_off_c, 2, 67, 64
4, 129480, Note_on_c, 2, 65, 96
4, 129576, Note_off_c, 2, 65, 64
4, 129600, Note_on_c, 2, 63, 96
4, 129696, Note_off_c, 2, 63, 64
4, 129720, Note_on_c, 2, 65, 96
4, 129816, Note_off_c, 2, 65, 64
4, 129840, Note_on_c, 2, 63, 96
4, 129936, Note_off_c, 2, 63, 64
4, 129960, Note_on_c, 2, 62, 96
4, 130056, Note_off_c, 2, 62, 64
4, 130080, Note_on_c, 2, 63, 96
4, 130176, Note_off_c, 2, 63, 64
4, 130200, Note_on_c, 2, 62, 96
4, 130296, Note_off_c, 2, 62, 64
4, 130320, Note_on_c, 2, 60, 96
4, 130416, Note_off_c, 2, 60, 64
4, 130440, Note_on_c, 2, 61, 96
4, 130536, Note_off_c, 2, 61, 64
4, 130560, Note_on_c, 2, 60, 96
4, 130656, Note_off_c, 2, 60, 64
4, 130680, Note_on_c, 2, 58, 96
4, 130776, Note_off_c, 2, 58, 64
4, 130800, Note_on_c, 2, 60, 96
4, 130896, Note_off_c, 2, 60, 64
4, 130920, Note_on_c, 2, 58, 96
4, 131016, Note_off_c, 2, 58, 64
4, 131040, Note_on_c, 2, 56, 96
4, 131136, Note_off_c, 2, 56, 64
4, 131160, Note_on_c, 2, 58, 96
4, 131256, Note_off_c, 2, 58, 64
4, 131280, Note_on_c, 2, 56, 96
4, 131376, Note_off_c, 2, 56, 64
4, 131400, Note_on_c, 2, 55, 96
4, 131496, Note_off_c, 2, 55, 64
4, 131520, Note_on_c, 2, 56, 96
4, 131616, Note_off_c, 2, 56, 64
4, 131640, Note_on_c, 2, 55, 96
4, 131736, Note_off_c, 2, 55, 64
4, 131760, Note_on_c, 2, 53, 96
4, 131856, Note_off_c, 2, 53, 64
4, 131880, Note_on_c, 2, 55, 96
4, 131976, Note_off_c, 2, 55, 64
4, 132000, Note_on_c, 2, 53, 96
4, 132096, Note_off_c, 2, 53, 64
4, 132120, Note_on_c, 2, 51, 96
4, 132216, Note_off_c, 2, 51, 64
4, 132240, Note_on_c, 2, 53, 96
4, 132336, Note_off_c, 2, 53, 64
4, 132360, Note_on_c, 2, 51, 96
4, 132456, Note_off_c, 2, 51, 64
4, 132480, Note_on_c, 2, 50, 96
4, 132672, Note_off_c, 2, 50, 64
4, 132720, Note_on_c, 2, 55, 96
4, 133104, Note_off_c, 2, 55, 64
4, 133200, Note_on_c, 2, 56, 96
4, 133392, Note_off_c, 2, 56, 64
4, 133560, Note_on_c, 2, 59, 96
4, 133656, Note_off_c, 2, 59, 64
4, 133680, Note_on_c, 2, 62, 96
4, 133776, Note_off_c, 2, 62, 64
4, 133800, Note_on_c, 2, 65, 96
4, 133896, Note_off_c, 2, 65, 64
4, 133920, Note_on_c, 2, 63, 96
4, 134208, Note_off_c, 2, 63, 64
4, 135720, Note_on_c, 2, 67, 110
4, 135840, Note_on_c, 2, 65, 110
4, 135846, Note_off_c, 2, 67, 64
4, 135960, Note_on_c, 2, 67, 110
4, 135962, Note_off_c, 2, 65, 64
4, 136080, Note_on_c, 2, 60, 110
4, 136084, Note_off_c, 2, 67, 64
4, 136200, Note_on_c, 2, 63, 110
4, 136204, Note_off_c, 2, 60, 64
4, 136257, Note_off_c, 2, 63, 64
4, 136260, Note_on_c, 2, 62, 110
4, 136320, Note_on_c, 2, 63, 110
4, 136325, Note_off_c, 2, 62, 64
4, 136375, Note_off_c, 2, 63, 64
4, 136380, Note_on_c, 2, 60, 110
4, 136431, Note_off_c, 2, 60, 64
4, 136440, Note_on_c, 2, 65, 110
4, 136560, Note_on_c, 2, 63, 110
4, 136574, Note_off_c, 2, 65, 64
4, 136680, Note_on_c, 2, 65, 110
4, 136693, Note_off_c, 2, 63, 64
4, 136800, Note_on_c, 2, 58, 110
4, 136816, Note_off_c, 2, 65, 64
4, 136917, Note_off_c, 2, 58, 64
4, 136920, Note_on_c, 2, 62, 110
4, 136975, Note_off_c, 2, 62, 64
4, 136980, Note_on_c, 2, 60, 110
4, 137040, Note_on_c, 2, 62, 110
4, 137042, Note_off_c, 2, 60, 64
4, 137097, Note_off_c, 2, 62, 64
4, 137100, Note_on_c, 2, 58, 110
4, 137148, Note_off_c, 2, 58, 64
4, 137160, Note_on_c, 2, 63, 110
4, 137273, Note_off_c, 2, 63, 64
4, 137520, Note_on_c, 2, 62, 110
4, 137580, Note_on_c, 2, 60, 110
4, 137585, Note_off_c, 2, 62, 64
4, 137640, Note_on_c, 2, 58, 110
4, 137641, Note_off_c, 2, 60, 64
4, 137695, Note_off_c, 2, 58, 64
4, 137700, Note_on_c, 2, 60, 110
4, 137746, Note_off_c, 2, 60, 64
4, 137760, Note_on_c, 2, 62, 110
4, 137806, Note_off_c, 2, 62, 64
4, 137820, Note_on_c, 2, 63, 110
4, 137863, Note_off_c, 2, 63, 64
4, 137880, Note_on_c, 2, 65, 110
4, 137954, Note_off_c, 2, 65, 64
4, 138240, Note_on_c, 2, 63, 110
4, 138290, Note_off_c, 2, 63, 64
4, 138300, Note_on_c, 2, 65, 110
4, 138348, Note_off_c, 2, 65, 64
4, 138360, Note_on_c, 2, 67, 110
4, 138420, Note_on_c, 2, 65, 110
4, 138426, Note_off_c, 2, 67, 64
4, 138480, Note_on_c, 2, 63, 110
4, 138490, Note_off_c, 2, 65, 64
4, 138540, Note_on_c, 2, 62, 110
4, 138550, Note_off_c, 2, 63, 64
4, 138575, Note_off_c, 2, 62, 64
4, 138600, Note_on_c, 2, 60, 110
4, 138709, Note_off_c, 2, 60, 64
4, 138720, Note_on_c, 2, 61, 110
4, 138840, Note_on_c, 2, 63, 110
4, 138857, Note_off_c, 2, 61, 64
4, 138918, Note_off_c, 2, 63, 64
4, 138960, Note_on_c, 2, 61, 110
4, 139440, Note_on_c, 2, 60, 110
4, 139455, Note_off_c, 2, 61, 64
4, 139519, Note_off_c, 2, 60, 64
4, 139560, Note_on_c, 2, 58, 110
4, 139656, Note_off_c, 2, 58, 64
4, 139680, Note_on_c, 2, 60, 110
4, 140130, Note_off_c, 2, 60, 64
4, 140400, Note_on_c, 2, 62, 110
4, 140520, Note_on_c, 2, 65, 110
4, 140524, Note_off_c, 2, 62, 64
4, 140580, Note_on_c, 2, 63, 110
4, 140594, Note_off_c, 2, 65, 64
4, 140632, Note_off_c, 2, 63, 64
4, 140640, Note_on_c, 2, 65, 110
4, 140700, Note_on_c, 2, 62, 110
4, 140708, Note_off_c, 2, 65, 64
4, 140744, Note_off_c, 2, 62, 64
4, 140760, Note_on_c, 2, 58, 110
4, 141092, Note_off_c, 2, 58, 64
4, 141120, Note_on_c, 2, 60, 110
4, 141240, Note_on_c, 2, 63, 110
4, 141242, Note_off_c, 2, 60, 64
4, 141298, Note_off_c, 2, 63, 64
4, 141300, Note_on_c, 2, 62, 110
4, 141360, Note_on_c, 2, 63, 110
4, 141381, Note_off_c, 2, 62, 64
4, 141408, Note_off_c, 2, 63, 64
4, 141420, Note_on_c, 2, 60, 110
4, 141480, Note_off_c, 2, 60, 64
4, 141480, Note_on_c, 2, 57, 110
4, 141705, Note_off_c, 2, 57, 64
4, 141720, Note_on_c, 2, 60, 110
4, 141936, Note_off_c, 2, 60, 64
4, 141960, Note_on_c, 2, 58, 110
4, 142056, Note_off_c, 2, 58, 64
4, 142080, Note_on_c, 2, 57, 110
4, 142176, Note_off_c, 2, 57, 64
4, 142200, Note_on_c, 2, 58, 110
4, 142656, Note_off_c, 2, 58, 64
4, 142680, Note_on_c, 2, 56, 110
4, 142776, Note_off_c, 2, 56, 64
4, 142800, Note_on_c, 2, 55, 110
4, 142896, Note_off_c, 2, 55, 64
4, 142920, Note_on_c, 2, 56, 110
4, 143376, Note_off_c, 2, 56, 64
4, 143400, Note_on_c, 2, 55, 110
4, 143496, Note_off_c, 2, 55, 64
4, 143520, Note_on_c, 2, 53, 110
4, 143616, Note_off_c, 2, 53, 64
4, 143640, Note_on_c, 2, 55, 110
4, 143688, Note_off_c, 2, 55, 64
4, 143700, Note_on_c, 2, 53, 110
4, 143748, Note_off_c, 2, 53, 64
4, 143760, Note_on_c, 2, 51, 110
4, 143808, Note_off_c, 2, 51, 64
4, 143820, Note_on_c, 2, 53, 110
4, 143868, Note_off_c, 2, 53, 64
4, 143880, Note_on_c, 2, 55, 110
4, 143928, Note_off_c, 2, 55, 64
4, 143940, Note_on_c, 2, 56, 110
4, 143988, Note_off_c, 2, 56, 64
4, 144000, Note_on_c, 2, 58, 110
4, 144048, Note_off_c, 2, 58, 64
4, 144060, Note_on_c, 2, 56, 110
4, 144108, Note_off_c, 2, 56, 64
4, 144120, Note_on_c, 2, 58, 110
4, 144168, Note_off_c, 2, 58, 64
4, 144180, Note_on_c, 2, 60, 110
4, 144228, Note_off_c, 2, 60, 64
4, 144240, Note_on_c, 2, 62, 110
4, 144288, Note_off_c, 2, 62, 64
4, 144300, Note_on_c, 2, 63, 110
4, 144348, Note_off_c, 2, 63, 64
4, 144360, Note_on_c, 2, 65, 110
4, 144408, Note_off_c, 2, 65, 64
4, 144420, Note_on_c, 2, 63, 110
4, 144468, Note_off_c, 2, 63, 64
4, 144480, Note_on_c, 2, 65, 110
4, 144528, Note_off_c, 2, 65, 64
4, 144540, Note_on_c, 2, 67, 110
4, 144588, Note_off_c, 2, 67, 64
4, 144600, Note_on_c, 2, 68, 110
4, 144648, Note_off_c, 2, 68, 64
4, 144660, Note_on_c, 2, 70, 110
4, 144708, Note_off_c, 2, 70, 64
4, 144720, Note_on_c, 2, 63, 110
4, 145008, Note_off_c, 2, 63, 64
4, 146520, Note_on_c, 2, 63, 110
4, 147240, Note_on_c, 2, 62, 110
4, 147249, Note_off_c, 2, 63, 64
4, 147528, Note_off_c, 2, 62, 64
4, 147600, Note_on_c, 2, 67, 110
4, 148320, Note_on_c, 2, 65, 110
4, 148340, Note_off_c, 2, 67, 64
4, 148680, Note_on_c, 2, 70, 110
4, 148681, Note_off_c, 2, 65, 64
4, 149400, Note_on_c, 2, 68, 110
4, 149430, Note_off_c, 2, 70, 64
4, 150071, Note_off_c, 2, 68, 64
4, 150120, Note_on_c, 2, 67, 110
4, 150240, Note_on_c, 2, 65, 110
4, 150241, Note_off_c, 2, 67, 64
4, 150360, Note_on_c, 2, 67, 110
4, 150362, Note_off_c, 2, 65, 64
4, 150480, Note_on_c, 2, 60, 110
4, 150491, Note_off_c, 2, 67, 64
4, 150600, Note_on_c, 2, 63, 110
4, 150610, Note_off_c, 2, 60, 64
4, 150660, Note_on_c, 2, 62, 110
4, 150663, Note_off_c, 2, 63, 64
4, 150720, Note_on_c, 2, 63, 110
4, 150731, Note_off_c, 2, 62, 64
4, 150775, Note_off_c, 2, 63, 64
4, 150780, Note_on_c, 2, 60, 110
4, 150831, Note_off_c, 2, 60, 64
4, 150840, Note_on_c, 2, 65, 110
4, 150960, Note_on_c, 2, 63, 110
4, 150979, Note_off_c, 2, 65, 64
4, 151080, Note_on_c, 2, 65, 110
4, 151087, Note_off_c, 2, 63, 64
4, 151200, Note_on_c, 2, 58, 110
4, 151206, Note_off_c, 2, 65, 64
4, 151549, Note_off_c, 2, 58, 64
4, 151560, Note_on_c, 2, 63, 110
4, 151608, Note_off_c, 2, 63, 64
4, 151620, Note_on_c, 2, 51, 110
4, 151647, Note_off_c, 2, 51, 64
4, 151680, Note_on_c, 2, 53, 110
4, 151737, Note_off_c, 2, 53, 64
4, 151740, Note_on_c, 2, 55, 110
4, 151800, Note_on_c, 2, 56, 110
4, 151802, Note_off_c, 2, 55, 64
4, 151860, Note_off_c, 2, 56, 64
4, 151860, Note_on_c, 2, 58, 110
4, 151901, Note_off_c, 2, 58, 64
4, 151920, Note_on_c, 2, 60, 110
4, 152328, Note_off_c, 2, 60, 64
4, 152340, Note_on_c, 2, 49, 110
4, 152395, Note_off_c, 2, 49, 64
4, 152400, Note_on_c, 2, 51, 110
4, 152457, Note_off_c, 2, 51, 64
4, 152460, Note_on_c, 2, 53, 110
4, 152520, Note_on_c, 2, 55, 110
4, 152530, Note_off_c, 2, 53, 64
4, 152580, Note_on_c, 2, 56, 110
4, 152597, Note_off_c, 2, 55, 64
4, 152607, Note_off_c, 2, 56, 64
4, 152640, Note_on_c, 2, 58, 110
4, 152700, Note_on_c, 2, 60, 110
4, 152702, Note_off_c, 2, 58, 64
4, 152759, Note_off_c, 2, 60, 64
4, 152760, Note_on_c, 2, 61, 110
4, 152811, Note_off_c, 2, 61, 64
4, 152820, Note_on_c, 2, 60, 110
4, 152870, Note_off_c, 2, 60, 64
4, 152880, Note_on_c, 2, 61, 110
4, 152940, Note_off_c, 2, 61, 64
4, 152940, Note_on_c, 2, 58, 110
4, 153000, Note_on_c, 2, 60, 110
4, 153006, Note_off_c, 2, 58, 64
4, 153060, Note_on_c, 2, 61, 110
4, 153062, Note_off_c, 2, 60, 64
4, 153120, Note_on_c, 2, 63, 110
4, 153128, Note_off_c, 2, 61, 64
4, 153180, Note_on_c, 2, 61, 110
4, 153184, Note_off_c, 2, 63, 64
4, 153240, Note_on_c, 2, 63, 110
4, 153244, Note_off_c, 2, 61, 64
4, 153300, Note_on_c, 2, 60, 110
4, 153304, Note_off_c, 2, 63, 64
4, 153360, Note_on_c, 2, 58, 110
4, 153365, Note_off_c, 2, 60, 64
4, 154080, Note_on_c, 2, 56, 110
4, 154096, Note_off_c, 2, 58, 64
4, 154913, Note_off_c, 2, 56, 64
4, 154920, Note_on_c, 2, 60, 110
4, 155040, Note_on_c, 2, 65, 110
4, 155044, Note_off_c, 2, 60, 64
4, 155256, Note_off_c, 2, 65, 64
4, 155280, Note_on_c, 2, 64, 110
4, 155400, Note_on_c, 2, 65, 110
4, 155413, Note_off_c, 2, 64, 64
4, 155520, Note_on_c, 2, 67, 110
4, 155534, Note_off_c, 2, 65, 64
4, 155880, Note_on_c, 2, 65, 110
4, 155887, Note_off_c, 2, 67, 64
4, 156168, Note_off_c, 2, 65, 64
4, 156240, Note_on_c, 2, 72, 110
4, 156528, Note_off_c, 2, 72, 64
4, 156600, Note_on_c, 2, 70, 110
4, 156888, Note_off_c, 2, 70, 64
4, 156960, Note_on_c, 2, 68, 110
4, 157676, Note_off_c, 2, 68, 64
4, 157680, Note_on_c, 2, 67, 110
4, 158400, Note_on_c, 2, 65, 110
4, 158434, Note_off_c, 2, 67, 64
4, 159109, Note_off_c, 2, 65, 64
4, 159120, Note_on_c, 2, 63, 110
4, 159408, Note_off_c, 2, 63, 64
4, 162780, Note_on_c, 2, 55, 110
4, 162840, Note_on_c, 2, 57, 110
4, 162842, Note_off_c, 2, 55, 64
4, 162900, Note_on_c, 2, 59, 110
4, 162916, Note_off_c, 2, 57, 64
4, 162960, Note_off_c, 2, 59, 64
4, 162960, Note_on_c, 2, 60, 110
4, 163020, Note_on_c, 2, 62, 110
4, 163035, Note_off_c, 2, 60, 64
4, 163054, Note_off_c, 2, 62, 64
4, 163080, Note_on_c, 2, 63, 110
4, 163137, Note_off_c, 2, 63, 64
4, 163140, Note_on_c, 2, 62, 110
4, 163197, Note_off_c, 2, 62, 64
4, 163200, Note_on_c, 2, 60, 110
4, 163257, Note_off_c, 2, 60, 64
4, 163260, Note_on_c, 2, 62, 110
4, 163317, Note_off_c, 2, 62, 64
4, 163320, Note_on_c, 2, 63, 110
4, 163377, Note_off_c, 2, 63, 64
4, 163380, Note_on_c, 2, 65, 110
4, 163437, Note_off_c, 2, 65, 64
4, 163440, Note_on_c, 2, 67, 110
4, 163497, Note_off_c, 2, 67, 64
4, 163500, Note_on_c, 2, 68, 110
4, 163557, Note_off_c, 2, 68, 64
4, 163560, Note_on_c, 2, 67, 110
4, 163617, Note_off_c, 2, 67, 64
4, 163620, Note_on_c, 2, 65, 110
4, 163668, Note_off_c, 2, 65, 64
4, 163680, Note_on_c, 2, 63, 110
4, 163737, Note_off_c, 2, 63, 64
4, 163740, Note_on_c, 2, 62, 110
4, 163797, Note_off_c, 2, 62, 64
4, 163800, Note_on_c, 2, 60, 110
4, 163857, Note_off_c, 2, 60, 64
4, 163860, Note_on_c, 2, 62, 110
4, 163917, Note_off_c, 2, 62, 64
4, 163920, Note_on_c, 2, 60, 110
4, 163977, Note_off_c, 2, 60, 64
4, 163980, Note_on_c, 2, 58, 110
4, 164037, Note_off_c, 2, 58, 64
4, 164040, Note_on_c, 2, 57, 110
4, 164097, Note_off_c, 2, 57, 64
4, 164100, Note_on_c, 2, 58, 110
4, 164157, Note_off_c, 2, 58, 64
4, 164160, Note_on_c, 2, 60, 110
4, 164279, Note_off_c, 2, 60, 64
4, 164280, Note_on_c, 2, 62, 110
4, 164400, Note_on_c, 2, 63, 110
4, 164413, Note_off_c, 2, 62, 64
4, 164520, Note_on_c, 2, 57, 110
4, 164541, Note_off_c, 2, 63, 64
4, 164808, Note_off_c, 2, 57, 64
4, 164880, Note_on_c, 2, 58, 110
4, 164928, Note_off_c, 2, 58, 64
4, 164940, Note_on_c, 2, 55, 110
4, 164988, Note_off_c, 2, 55, 64
4, 165000, Note_on_c, 2, 57, 110
4, 165048, Note_off_c, 2, 57, 64
4, 165060, Note_on_c, 2, 58, 110
4, 165108, Note_off_c, 2, 58, 64
4, 165120, Note_on_c, 2, 60, 110
4, 165168, Note_off_c, 2, 60, 64
4, 165180, Note_on_c, 2, 62, 110
4, 165228, Note_off_c, 2, 62, 64
4, 165240, Note_on_c, 2, 63, 110
4, 165657, Note_off_c, 2, 63, 64
4, 165660, Note_on_c, 2, 60, 110
4, 165717, Note_off_c, 2, 60, 64
4, 165720, Note_on_c, 2, 62, 110
4, 165777, Note_off_c, 2, 62, 64
4, 165780, Note_on_c, 2, 63, 110
4, 165828, Note_off_c, 2, 63, 64
4, 165840, Note_on_c, 2, 65, 110
4, 165897, Note_off_c, 2, 65, 64
4, 165900, Note_on_c, 2, 67, 110
4, 165957, Note_off_c, 2, 67, 64
4, 165960, Note_on_c, 2, 68, 110
4, 166680, Note_off_c, 2, 68, 64
4, 166680, Note_on_c, 2, 67, 110
4, 167040, Note_on_c, 2, 65, 110
4, 167052, Note_off_c, 2, 67, 64
4, 167760, Note_on_c, 2, 63, 110
4, 167771, Note_off_c, 2, 65, 64
4, 168480, Note_on_c, 2, 62, 110
4, 168483, Note_off_c, 2, 63, 64
4, 169200, Note_on_c, 2, 60, 110
4, 169201, Note_off_c, 2, 62, 64
4, 169920, Note_on_c, 2, 58, 110
4, 169940, Note_off_c, 2, 60, 64
4, 170157, Note_off_c, 2, 58, 64
4, 170160, Note_on_c, 2, 60, 110
4, 170280, Note_on_c, 2, 62, 110
4, 170288, Note_off_c, 2, 60, 64
4, 170520, Note_off_c, 2, 62, 64
4, 170640, Note_on_c, 2, 63, 110
4, 171000, Note_on_c, 2, 60, 110
4, 171002, Note_off_c, 2, 63, 64
4, 171360, Note_on_c, 2, 62, 110
4, 171371, Note_off_c, 2, 60, 64
4, 171724, Note_off_c, 2, 62, 64
4, 172800, Note_on_c, 2, 65, 110
4, 173376, Note_off_c, 2, 65, 64
4, 173520, Note_on_c, 2, 58, 110
4, 173808, Note_off_c, 2, 58, 64
4, 173880, Note_on_c, 2, 72, 110
4, 174168, Note_off_c, 2, 72, 64
4, 174240, Note_on_c, 2, 70, 110
4, 174528, Note_off_c, 2, 70, 64
4, 175020, Note_on_c, 2, 74, 110
4, 175068, Note_off_c, 2, 74, 64
4, 175080, Note_on_c, 2, 72, 110
4, 175128, Note_off_c, 2, 72, 64
4, 175140, Note_on_c, 2, 70, 110
4, 175188, Note_off_c, 2, 70, 64
4, 175200, Note_on_c, 2, 69, 110
4, 175248, Note_off_c, 2, 69, 64
4, 175260, Note_on_c, 2, 67, 110
4, 175308, Note_off_c, 2, 67, 64
4, 175320, Note_on_c, 2, 72, 110
4, 175608, Note_off_c, 2, 72, 64
4, 175680, Note_on_c, 2, 65, 110
4, 175805, Note_off_c, 2, 65, 64
4, 177480, Note_on_c, 2, 72, 110
4, 177600, Note_on_c, 2, 70, 110
4, 177603, Note_off_c, 2, 72, 64
4, 177715, Note_off_c, 2, 70, 64
4, 177720, Note_on_c, 2, 72, 110
4, 177837, Note_off_c, 2, 72, 64
4, 177840, Note_on_c, 2, 65, 110
4, 177960, Note_on_c, 2, 68, 110
4, 177973, Note_off_c, 2, 65, 64
4, 178013, Note_off_c, 2, 68, 64
4, 178020, Note_on_c, 2, 67, 110
4, 178080, Note_on_c, 2, 68, 110
4, 178090, Note_off_c, 2, 67, 64
4, 178132, Note_off_c, 2, 68, 64
4, 178140, Note_on_c, 2, 65, 110
4, 178200, Note_on_c, 2, 70, 110
4, 178203, Note_off_c, 2, 65, 64
4, 178320, Note_on_c, 2, 68, 110
4, 178324, Note_off_c, 2, 70, 64
4, 178440, Note_on_c, 2, 70, 110
4, 178441, Note_off_c, 2, 68, 64
4, 178555, Note_off_c, 2, 70, 64
4, 178560, Note_on_c, 2, 63, 110
4, 178680, Note_on_c, 2, 67, 110
4, 178697, Note_off_c, 2, 63, 64
4, 178740, Note_on_c, 2, 65, 110
4, 178751, Note_off_c, 2, 67, 64
4, 178800, Note_on_c, 2, 67, 110
4, 178806, Note_off_c, 2, 65, 64
4, 178857, Note_off_c, 2, 67, 64
4, 178860, Note_on_c, 2, 63, 110
4, 178920, Note_on_c, 2, 68, 110
4, 178928, Note_off_c, 2, 63, 64
4, 179639, Note_off_c, 2, 68, 64
4, 179640, Note_on_c, 2, 67, 110
4, 180360, Note_on_c, 2, 65, 110
4, 180381, Note_off_c, 2, 67, 64
4, 180600, Note_on_c, 2, 63, 110
4, 180601, Note_off_c, 2, 65, 64
4, 180720, Note_on_c, 2, 62, 110
4, 180731, Note_off_c, 2, 63, 64
4, 180768, Note_off_c, 2, 62, 64
4, 180780, Note_on_c, 2, 63, 110
4, 180828, Note_off_c, 2, 63, 64
4, 180840, Note_on_c, 2, 65, 110
4, 180888, Note_off_c, 2, 65, 64
4, 180900, Note_on_c, 2, 63, 110
4, 180948, Note_off_c, 2, 63, 64
4, 180960, Note_on_c, 2, 65, 110
4, 181008, Note_off_c, 2, 65, 64
4, 181020, Note_on_c, 2, 62, 110
4, 181068, Note_off_c, 2, 62, 64
4, 181080, Note_on_c, 2, 67, 110
4, 181728, Note_off_c, 2, 67, 64
4, 181800, Note_on_c, 2, 65, 110
4, 182040, Note_on_c, 2, 63, 110
4, 182073, Note_off_c, 2, 65, 64
4, 182160, Note_on_c, 2, 70, 110
4, 182183, Note_off_c, 2, 63, 64
4, 182868, Note_off_c, 2, 70, 64
4, 182880, Note_on_c, 2, 68, 110
4, 183240, Note_on_c, 2, 70, 110
4, 183241, Note_off_c, 2, 68, 64
4, 183657, Note_off_c, 2, 70, 64
4, 183660, Note_on_c, 2, 62, 110
4, 183720, Note_on_c, 2, 63, 110
4, 183732, Note_off_c, 2, 62, 64
4, 183780, Note_on_c, 2, 65, 110
4, 183783, Note_off_c, 2, 63, 64
4, 183840, Note_on_c, 2, 67, 110
4, 183848, Note_off_c, 2, 65, 64
4, 183900, Note_on_c, 2, 68, 110
4, 183908, Note_off_c, 2, 67, 64
4, 183960, Note_on_c, 2, 70, 110
4, 183968, Note_off_c, 2, 68, 64
4, 184195, Note_off_c, 2, 70, 64
4, 184200, Note_on_c, 2, 68, 110
4, 184320, Note_on_c, 2, 63, 110
4, 184330, Note_off_c, 2, 68, 64
4, 184680, Note_on_c, 2, 65, 110
4, 184691, Note_off_c, 2, 63, 64
4, 184968, Note_off_c, 2, 65, 64
4, 185040, Note_on_c, 2, 63, 110
4, 185668, Note_off_c, 2, 63, 64
4, 185668, End_track
5, 0, Start_track
5, 0, Title_t, "J.S. Bach, Edition Peters"
5, 0, Program_c, 3, 19
5, 0, Control_c, 3, 7, 127
5, 3840, Note_on_c, 3, 51, 110
5, 4790, Note_off_c, 3, 51, 64
5, 4800, Note_on_c, 3, 50, 110
5, 5280, Note_on_c, 3, 55, 110
5, 5309, Note_off_c, 3, 50, 64
5, 5760, Note_on_c, 3, 51, 110
5, 5803, Note_off_c, 3, 55, 64
5, 6240, Note_on_c, 3, 58, 110
5, 6242, Note_off_c, 3, 51, 64
5, 7200, Note_on_c, 3, 57, 110
5, 7213, Note_off_c, 3, 58, 64
5, 7680, Note_on_c, 3, 58, 110
5, 7724, Note_off_c, 3, 57, 64
5, 7920, Note_on_c, 3, 60, 110
5, 7942, Note_off_c, 3, 58, 64
5, 8160, Note_on_c, 3, 62, 110
5, 8170, Note_off_c, 3, 60, 64
5, 8400, Note_on_c, 3, 63, 110
5, 8418, Note_off_c, 3, 62, 64
5, 8640, Note_on_c, 3, 65, 110
5, 8667, Note_off_c, 3, 63, 64
5, 8880, Note_on_c, 3, 53, 110
5, 8911, Note_off_c, 3, 65, 64
5, 9120, Note_on_c, 3, 60, 110
5, 9146, Note_off_c, 3, 53, 64
5, 9360, Note_on_c, 3, 62, 110
5, 9374, Note_off_c, 3, 60, 64
5, 9600, Note_on_c, 3, 63, 110
5, 9602, Note_off_c, 3, 62, 64
5, 9840, Note_on_c, 3, 51, 110
5, 9845, Note_off_c, 3, 63, 64
5, 10080, Note_on_c, 3, 53, 110
5, 10099, Note_off_c, 3, 51, 64
5, 10320, Note_on_c, 3, 55, 110
5, 10332, Note_off_c, 3, 53, 64
5, 10560, Note_on_c, 3, 56, 110
5, 10600, Note_off_c, 3, 55, 64
5, 11760, Note_on_c, 3, 55, 110
5, 11776, Note_off_c, 3, 56, 64
5, 12000, Note_on_c, 3, 56, 110
5, 12018, Note_off_c, 3, 55, 64
5, 12236, Note_off_c, 3, 56, 64
5, 12240, Note_on_c, 3, 58, 110
5, 12480, Note_on_c, 3, 60, 110
5, 12481, Note_off_c, 3, 58, 64
5, 12720, Note_on_c, 3, 58, 110
5, 12729, Note_off_c, 3, 60, 64
5, 12960, Note_on_c, 3, 60, 110
5, 12973, Note_off_c, 3, 58, 64
5, 13200, Note_on_c, 3, 62, 110
5, 13227, Note_off_c, 3, 60, 64
5, 13440, Note_on_c, 3, 63, 110
5, 13444, Note_off_c, 3, 62, 64
5, 13657, Note_off_c, 3, 63, 64
5, 13680, Note_on_c, 3, 62, 110
5, 13920, Note_on_c, 3, 60, 110
5, 13938, Note_off_c, 3, 62, 64
5, 14160, Note_on_c, 3, 58, 110
5, 14184, Note_off_c, 3, 60, 64
5, 14400, Note_on_c, 3, 56, 110
5, 14417, Note_off_c, 3, 58, 64
5, 14640, Note_on_c, 3, 53, 110
5, 14662, Note_off_c, 3, 56, 64
5, 14880, Note_on_c, 3, 58, 110
5, 14905, Note_off_c, 3, 53, 64
5, 15120, Note_on_c, 3, 56, 110
5, 15122, Note_off_c, 3, 58, 64
5, 15360, Note_on_c, 3, 55, 110
5, 15382, Note_off_c, 3, 56, 64
5, 15600, Note_on_c, 3, 53, 110
5, 15609, Note_off_c, 3, 55, 64
5, 15839, Note_off_c, 3, 53, 64
5, 15840, Note_on_c, 3, 55, 110
5, 16069, Note_off_c, 3, 55, 64
5, 16080, Note_on_c, 3, 56, 110
5, 16320, Note_on_c, 3, 58, 110
5, 16337, Note_off_c, 3, 56, 64
5, 16567, Note_off_c, 3, 58, 64
5, 16800, Note_on_c, 3, 51, 110
5, 17040, Note_on_c, 3, 53, 110
5, 17045, Note_off_c, 3, 51, 64
5, 17280, Note_on_c, 3, 55, 110
5, 17317, Note_off_c, 3, 53, 64
5, 17520, Note_on_c, 3, 53, 110
5, 17529, Note_off_c, 3, 55, 64
5, 17760, Note_on_c, 3, 51, 110
5, 17783, Note_off_c, 3, 53, 64
5, 18000, Note_on_c, 3, 50, 110
5, 18016, Note_off_c, 3, 51, 64
5, 18240, Note_on_c, 3, 51, 110
5, 18259, Note_off_c, 3, 50, 64
5, 18472, Note_off_c, 3, 51, 64
5, 18480, Note_on_c, 3, 48, 110
5, 18718, Note_off_c, 3, 48, 64
5, 18720, Note_on_c, 3, 53, 110
5, 18960, Note_on_c, 3, 51, 110
5, 19010, Note_off_c, 3, 53, 64
5, 19200, Note_on_c, 3, 50, 110
5, 19225, Note_off_c, 3, 51, 64
5, 19440, Note_on_c, 3, 48, 110
5, 19458, Note_off_c, 3, 50, 64
5, 19680, Note_on_c, 3, 46, 110
5, 19713, Note_off_c, 3, 48, 64
5, 19872, Note_off_c, 3, 46, 64
5, 19920, Note_on_c, 3, 48, 110
5, 20160, Note_on_c, 3, 50, 110
5, 20177, Note_off_c, 3, 48, 64
5, 20400, Note_on_c, 3, 51, 110
5, 20419, Note_off_c, 3, 50, 64
5, 20640, Note_on_c, 3, 53, 110
5, 20648, Note_off_c, 3, 51, 64
5, 20998, Note_off_c, 3, 53, 64
5, 21120, Note_on_c, 3, 48, 110
5, 21360, Note_on_c, 3, 50, 110
5, 21361, Note_off_c, 3, 48, 64
5, 21600, Note_on_c, 3, 51, 110
5, 21612, Note_off_c, 3, 50, 64
5, 21838, Note_off_c, 3, 51, 64
5, 21840, Note_on_c, 3, 53, 110
5, 22080, Note_on_c, 3, 55, 110
5, 22119, Note_off_c, 3, 53, 64
5, 22320, Note_on_c, 3, 56, 110
5, 22345, Note_off_c, 3, 55, 64
5, 22560, Note_on_c, 3, 58, 110
5, 22582, Note_off_c, 3, 56, 64
5, 23520, Note_on_c, 3, 56, 110
5, 23550, Note_off_c, 3, 58, 64
5, 24463, Note_off_c, 3, 56, 64
5, 24480, Note_on_c, 3, 55, 110
5, 24720, Note_on_c, 3, 51, 110
5, 24726, Note_off_c, 3, 55, 64
5, 24960, Note_on_c, 3, 53, 110
5, 24974, Note_off_c, 3, 51, 64
5, 25536, Note_off_c, 3, 53, 64
5, 25680, Note_on_c, 3, 46, 110
5, 25872, Note_off_c, 3, 46, 64
5, 25920, Note_on_c, 3, 51, 110
5, 26160, Note_on_c, 3, 53, 110
5, 26183, Note_off_c, 3, 51, 64
5, 26400, Note_on_c, 3, 55, 110
5, 26435, Note_off_c, 3, 53, 64
5, 26640, Note_on_c, 3, 57, 110
5, 26672, Note_off_c, 3, 55, 64
5, 26880, Note_on_c, 3, 53, 110
5, 26898, Note_off_c, 3, 57, 64
5, 27163, Note_off_c, 3, 53, 64
5, 34800, Note_on_c, 3, 65, 110
5, 35040, Note_on_c, 3, 63, 110
5, 35061, Note_off_c, 3, 65, 64
5, 35257, Note_off_c, 3, 63, 64
5, 35280, Note_on_c, 3, 62, 110
5, 35520, Note_on_c, 3, 63, 110
5, 35532, Note_off_c, 3, 62, 64
5, 35760, Note_on_c, 3, 60, 110
5, 35761, Note_off_c, 3, 63, 64
5, 36000, Note_on_c, 3, 65, 110
5, 36019, Note_off_c, 3, 60, 64
5, 36240, Note_on_c, 3, 63, 110
5, 36248, Note_off_c, 3, 65, 64
5, 36474, Note_off_c, 3, 63, 64
5, 36480, Note_on_c, 3, 62, 110
5, 37200, Note_on_c, 3, 55, 110
5, 37217, Note_off_c, 3, 62, 64
5, 37440, Note_on_c, 3, 57, 110
5, 37441, Note_off_c, 3, 55, 64
5, 37677, Note_off_c, 3, 57, 64
5, 37680, Note_on_c, 3, 58, 110
5, 37920, Note_on_c, 3, 60, 110
5, 37946, Note_off_c, 3, 58, 64
5, 38400, Note_on_c, 3, 62, 110
5, 38432, Note_off_c, 3, 60, 64
5, 38878, Note_off_c, 3, 62, 64
5, 41280, Note_on_c, 3, 58, 110
5, 42048, Note_off_c, 3, 58, 64
5, 42240, Note_on_c, 3, 55, 110
5, 42624, Note_off_c, 3, 55, 64
5, 42720, Note_on_c, 3, 60, 110
5, 43200, Note_on_c, 3, 58, 110
5, 43202, Note_off_c, 3, 60, 64
5, 43680, Note_on_c, 3, 63, 110
5, 43728, Note_off_c, 3, 58, 64
5, 44640, Note_on_c, 3, 62, 110
5, 44654, Note_off_c, 3, 63, 64
5, 45120, Note_on_c, 3, 63, 110
5, 45161, Note_off_c, 3, 62, 64
5, 45600, Note_on_c, 3, 65, 110
5, 45631, Note_off_c, 3, 63, 64
5, 46063, Note_off_c, 3, 65, 64
5, 46080, Note_on_c, 3, 58, 110
5, 46560, Note_on_c, 3, 60, 110
5, 46577, Note_off_c, 3, 58, 64
5, 46800, Note_on_c, 3, 58, 110
5, 46819, Note_off_c, 3, 60, 64
5, 47040, Note_on_c, 3, 56, 110
5, 47067, Note_off_c, 3, 58, 64
5, 48480, Note_on_c, 3, 55, 110
5, 48514, Note_off_c, 3, 56, 64
5, 49181, Note_off_c, 3, 55, 64
5, 49200, Note_on_c, 3, 53, 110
5, 49440, Note_on_c, 3, 51, 110
5, 49483, Note_off_c, 3, 53, 64
5, 49680, Note_on_c, 3, 50, 110
5, 49704, Note_off_c, 3, 51, 64
5, 49920, Note_on_c, 3, 51, 110
5, 49959, Note_off_c, 3, 50, 64
5, 50612, Note_off_c, 3, 51, 64
5, 50640, Note_on_c, 3, 53, 110
5, 50880, Note_on_c, 3, 55, 110
5, 50933, Note_off_c, 3, 53, 64
5, 51588, Note_off_c, 3, 55, 64
5, 51600, Note_on_c, 3, 56, 110
5, 51840, Note_on_c, 3, 58, 110
5, 51857, Note_off_c, 3, 56, 64
5, 52560, Note_on_c, 3, 56, 110
5, 52610, Note_off_c, 3, 58, 64
5, 52800, Note_on_c, 3, 55, 110
5, 52812, Note_off_c, 3, 56, 64
5, 53266, Note_off_c, 3, 55, 64
5, 53280, Note_on_c, 3, 53, 110
5, 53753, Note_off_c, 3, 53, 64
5, 53760, Note_on_c, 3, 48, 110
5, 54720, Note_on_c, 3, 50, 110
5, 54729, Note_off_c, 3, 48, 64
5, 54960, Note_on_c, 3, 48, 110
5, 54982, Note_off_c, 3, 50, 64
5, 55200, Note_on_c, 3, 50, 110
5, 55203, Note_off_c, 3, 48, 64
5, 55440, Note_on_c, 3, 51, 110
5, 55461, Note_off_c, 3, 50, 64
5, 55680, Note_on_c, 3, 53, 110
5, 55694, Note_off_c, 3, 51, 64
5, 55908, Note_off_c, 3, 53, 64
5, 55920, Note_on_c, 3, 48, 110
5, 56148, Note_off_c, 3, 48, 64
5, 56160, Note_on_c, 3, 53, 110
5, 56400, Note_on_c, 3, 51, 110
5, 56424, Note_off_c, 3, 53, 64
5, 56639, Note_off_c, 3, 51, 64
5, 56640, Note_on_c, 3, 50, 110
5, 56865, Note_off_c, 3, 50, 64
5, 56880, Note_on_c, 3, 46, 110
5, 57072, Note_off_c, 3, 46, 64
5, 57120, Note_on_c, 3, 51, 110
5, 57840, Note_on_c, 3, 50, 110
5, 57862, Note_off_c, 3, 51, 64
5, 58080, Note_on_c, 3, 51, 110
5, 58091, Note_off_c, 3, 50, 64
5, 58317, Note_off_c, 3, 51, 64
5, 58320, Note_on_c, 3, 53, 110
5, 58560, Note_on_c, 3, 55, 110
5, 58603, Note_off_c, 3, 53, 64
5, 59040, Note_on_c, 3, 51, 110
5, 59054, Note_off_c, 3, 55, 64
5, 59520, Note_on_c, 3, 58, 110
5, 59562, Note_off_c, 3, 51, 64
5, 61380, Note_off_c, 3, 58, 64
5, 61440, Note_on_c, 3, 63, 110
5, 62160, Note_on_c, 3, 56, 110
5, 62195, Note_off_c, 3, 63, 64
5, 62400, Note_on_c, 3, 53, 110
5, 62423, Note_off_c, 3, 56, 64
5, 62880, Note_on_c, 3, 55, 110
5, 62884, Note_off_c, 3, 53, 64
5, 63360, Note_on_c, 3, 60, 110
5, 63367, Note_off_c, 3, 55, 64
5, 63720, Note_off_c, 3, 60, 64
5, 64080, Note_on_c, 3, 53, 110
5, 64318, Note_off_c, 3, 53, 64
5, 64320, Note_on_c, 3, 55, 110
5, 64560, Note_on_c, 3, 56, 110
5, 64590, Note_off_c, 3, 55, 64
5, 64800, Note_on_c, 3, 58, 110
5, 64802, Note_off_c, 3, 56, 64
5, 65040, Note_on_c, 3, 63, 110
5, 65082, Note_off_c, 3, 58, 64
5, 65280, Note_on_c, 3, 60, 110
5, 65282, Note_off_c, 3, 63, 64
5, 65520, Note_on_c, 3, 56, 110
5, 65539, Note_off_c, 3, 60, 64
5, 65760, Note_on_c, 3, 61, 110
5, 65767, Note_off_c, 3, 56, 64
5, 65992, Note_off_c, 3, 61, 64
5, 66000, Note_on_c, 3, 60, 110
5, 66240, Note_on_c, 3, 58, 110
5, 66257, Note_off_c, 3, 60, 64
5, 66480, Note_on_c, 3, 55, 110
5, 66517, Note_off_c, 3, 58, 64
5, 66720, Note_on_c, 3, 60, 110
5, 66744, Note_off_c, 3, 55, 64
5, 66960, Note_on_c, 3, 56, 110
5, 66985, Note_off_c, 3, 60, 64
5, 67200, Note_on_c, 3, 58, 110
5, 67218, Note_off_c, 3, 56, 64
5, 68352, Note_off_c, 3, 58, 64
5, 68400, Note_on_c, 3, 60, 110
5, 68640, Note_on_c, 3, 58, 110
5, 68667, Note_off_c, 3, 60, 64
5, 68880, Note_on_c, 3, 56, 110
5, 68891, Note_off_c, 3, 58, 64
5, 69100, Note_off_c, 3, 56, 64
5, 69120, Note_on_c, 3, 55, 110
5, 69345, Note_off_c, 3, 55, 64
5, 69360, Note_on_c, 3, 51, 96
5, 69456, Note_off_c, 3, 51, 64
5, 69480, Note_on_c, 3, 50, 96
5, 69576, Note_off_c, 3, 50, 64
5, 69600, Note_on_c, 3, 51, 96
5, 69696, Note_off_c, 3, 51, 64
5, 69720, Note_on_c, 3, 53, 96
5, 69816, Note_off_c, 3, 53, 64
5, 69840, Note_on_c, 3, 55, 96
5, 69936, Note_off_c, 3, 55, 64
5, 69960, Note_on_c, 3, 53, 96
5, 70056, Note_off_c, 3, 53, 64
5, 70080, Note_on_c, 3, 55, 96
5, 70176, Note_off_c, 3, 55, 64
5, 70200, Note_on_c, 3, 56, 96
5, 70296, Note_off_c, 3, 56, 64
5, 70320, Note_on_c, 3, 55, 96
5, 70416, Note_off_c, 3, 55, 64
5, 70440, Note_on_c, 3, 56, 96
5, 70536, Note_off_c, 3, 56, 64
5, 70560, Note_on_c, 3, 53, 96
5, 70656, Note_off_c, 3, 53, 64
5, 70680, Note_on_c, 3, 51, 96
5, 70776, Note_off_c, 3, 51, 64
5, 70800, Note_on_c, 3, 53, 96
5, 70896, Note_off_c, 3, 53, 64
5, 70920, Note_on_c, 3, 55, 96
5, 71016, Note_off_c, 3, 55, 64
5, 71040, Note_on_c, 3, 53, 96
5, 71136, Note_off_c, 3, 53, 64
5, 71160, Note_on_c, 3, 55, 96
5, 71256, Note_off_c, 3, 55, 64
5, 71280, Note_on_c, 3, 56, 96
5, 71376, Note_off_c, 3, 56, 64
5, 71400, Note_on_c, 3, 55, 96
5, 71496, Note_off_c, 3, 55, 64
5, 71520, Note_on_c, 3, 56, 96
5, 71616, Note_off_c, 3, 56, 64
5, 71640, Note_on_c, 3, 58, 96
5, 71736, Note_off_c, 3, 58, 64
5, 71760, Note_on_c, 3, 56, 96
5, 71856, Note_off_c, 3, 56, 64
5, 71880, Note_on_c, 3, 58, 96
5, 71976, Note_off_c, 3, 58, 64
5, 72000, Note_on_c, 3, 55, 96
5, 72096, Note_off_c, 3, 55, 64
5, 72120, Note_on_c, 3, 53, 96
5, 72216, Note_off_c, 3, 53, 64
5, 72240, Note_on_c, 3, 51, 96
5, 72336, Note_off_c, 3, 51, 64
5, 72360, Note_on_c, 3, 53, 96
5, 72456, Note_off_c, 3, 53, 64
5, 72480, Note_on_c, 3, 55, 96
5, 72576, Note_off_c, 3, 55, 64
5, 72600, Note_on_c, 3, 57, 96
5, 72696, Note_off_c, 3, 57, 64
5, 72720, Note_on_c, 3, 58, 96
5, 72912, Note_off_c, 3, 58, 64
5, 72960, Note_on_c, 3, 53, 96
5, 73152, Note_off_c, 3, 53, 64
5, 73200, Note_on_c, 3, 58, 116
5, 73632, Note_off_c, 3, 58, 64
5, 73680, Note_on_c, 3, 57, 96
5, 73776, Note_off_c, 3, 57, 64
5, 73800, Note_on_c, 3, 55, 96
5, 73896, Note_off_c, 3, 55, 64
5, 73920, Note_on_c, 3, 57, 96
5, 74016, Note_off_c, 3, 57, 64
5, 74040, Note_on_c, 3, 58, 96
5, 74136, Note_off_c, 3, 58, 64
5, 74160, Note_on_c, 3, 60, 96
5, 74352, Note_off_c, 3, 60, 64
5, 74400, Note_on_c, 3, 55, 96
5, 74592, Note_off_c, 3, 55, 64
5, 74640, Note_on_c, 3, 57, 96
5, 74832, Note_off_c, 3, 57, 64
5, 74880, Note_on_c, 3, 58, 96
5, 75072, Note_off_c, 3, 58, 64
5, 75120, Note_on_c, 3, 53, 96
5, 75216, Note_off_c, 3, 53, 64
5, 75240, Note_on_c, 3, 51, 96
5, 75336, Note_off_c, 3, 51, 64
5, 75360, Note_on_c, 3, 53, 96
5, 75456, Note_off_c, 3, 53, 64
5, 75480, Note_on_c, 3, 55, 96
5, 75576, Note_off_c, 3, 55, 64
5, 75600, Note_on_c, 3, 56, 96
5, 75792, Note_off_c, 3, 56, 64
5, 75840, Note_on_c, 3, 51, 96
5, 76032, Note_off_c, 3, 51, 64
5, 76080, Note_on_c, 3, 53, 96
5, 76272, Note_off_c, 3, 53, 64
5, 76320, Note_on_c, 3, 55, 96
5, 76512, Note_off_c, 3, 55, 64
5, 76560, Note_on_c, 3, 50, 96
5, 76656, Note_off_c, 3, 50, 64
5, 76680, Note_on_c, 3, 48, 96
5, 76776, Note_off_c, 3, 48, 64
5, 76800, Note_on_c, 3, 50, 96
5, 76896, Note_off_c, 3, 50, 64
5, 76920, Note_on_c, 3, 51, 96
5, 77016, Note_off_c, 3, 51, 64
5, 77040, Note_on_c, 3, 53, 96
5, 77232, Note_off_c, 3, 53, 64
5, 77280, Note_on_c, 3, 48, 96
5, 77472, Note_off_c, 3, 48, 64
5, 77520, Note_on_c, 3, 50, 96
5, 77712, Note_off_c, 3, 50, 64
5, 77760, Note_on_c, 3, 51, 96
5, 78144, Note_off_c, 3, 51, 64
5, 78240, Note_on_c, 3, 50, 96
5, 78432, Note_off_c, 3, 50, 64
5, 78480, Note_on_c, 3, 48, 96
5, 78672, Note_off_c, 3, 48, 64
5, 78720, Note_on_c, 3, 60, 96
5, 78912, Note_off_c, 3, 60, 64
5, 78960, Note_on_c, 3, 58, 96
5, 79152, Note_off_c, 3, 58, 64
5, 79200, Note_on_c, 3, 56, 96
5, 79392, Note_off_c, 3, 56, 64
5, 79440, Note_on_c, 3, 55, 96
5, 79632, Note_off_c, 3, 55, 64
5, 79680, Note_on_c, 3, 56, 96
5, 79872, Note_off_c, 3, 56, 64
5, 79920, Note_on_c, 3, 53, 96
5, 80112, Note_off_c, 3, 53, 64
5, 80160, Note_on_c, 3, 58, 96
5, 80352, Note_off_c, 3, 58, 64
5, 80400, Note_on_c, 3, 46, 96
5, 80592, Note_off_c, 3, 46, 64
5, 80640, Note_on_c, 3, 51, 96
5, 80753, Note_off_c, 3, 51, 64
5, 80760, Note_on_c, 3, 50, 96
5, 80873, Note_off_c, 3, 50, 64
5, 80880, Note_on_c, 3, 51, 96
5, 80993, Note_off_c, 3, 51, 64
5, 81000, Note_on_c, 3, 53, 96
5, 81113, Note_off_c, 3, 53, 64
5, 81120, Note_on_c, 3, 55, 96
5, 81233, Note_off_c, 3, 55, 64
5, 81240, Note_on_c, 3, 57, 96
5, 81353, Note_off_c, 3, 57, 64
5, 81360, Note_on_c, 3, 58, 96
5, 82656, Note_off_c, 3, 58, 64
5, 82800, Note_on_c, 3, 58, 96
5, 82992, Note_off_c, 3, 58, 64
5, 83040, Note_on_c, 3, 57, 96
5, 83424, Note_off_c, 3, 57, 64
5, 83520, Note_on_c, 3, 58, 96
5, 83712, Note_off_c, 3, 58, 64
5, 89520, Note_on_c, 3, 56, 96
5, 89616, Note_off_c, 3, 56, 64
5, 89640, Note_on_c, 3, 58, 96
5, 89736, Note_off_c, 3, 58, 64
5, 89760, Note_on_c, 3, 56, 96
5, 89856, Note_off_c, 3, 56, 64
5, 89880, Note_on_c, 3, 55, 96
5, 89976, Note_off_c, 3, 55, 64
5, 90000, Note_on_c, 3, 53, 96
5, 90096, Note_off_c, 3, 53, 64
5, 90120, Note_on_c, 3, 55, 96
5, 90216, Note_off_c, 3, 55, 64
5, 90240, Note_on_c, 3, 53, 96
5, 90336, Note_off_c, 3, 53, 64
5, 90360, Note_on_c, 3, 51, 96
5, 90456, Note_off_c, 3, 51, 64
5, 90480, Note_on_c, 3, 53, 96
5, 90576, Note_off_c, 3, 53, 64
5, 90600, Note_on_c, 3, 50, 96
5, 90696, Note_off_c, 3, 50, 64
5, 90720, Note_on_c, 3, 55, 96
5, 90816, Note_off_c, 3, 55, 64
5, 90840, Note_on_c, 3, 56, 96
5, 90936, Note_off_c, 3, 56, 64
5, 90960, Note_on_c, 3, 55, 96
5, 91056, Note_off_c, 3, 55, 64
5, 91080, Note_on_c, 3, 53, 96
5, 91176, Note_off_c, 3, 53, 64
5, 91200, Note_on_c, 3, 55, 96
5, 91296, Note_off_c, 3, 55, 64
5, 91320, Note_on_c, 3, 53, 96
5, 91416, Note_off_c, 3, 53, 64
5, 91440, Note_on_c, 3, 52, 96
5, 91536, Note_off_c, 3, 52, 64
5, 91560, Note_on_c, 3, 53, 96
5, 91656, Note_off_c, 3, 53, 64
5, 91680, Note_on_c, 3, 52, 96
5, 91776, Note_off_c, 3, 52, 64
5, 91800, Note_on_c, 3, 50, 96
5, 91896, Note_off_c, 3, 50, 64
5, 91920, Note_on_c, 3, 52, 96
5, 92016, Note_off_c, 3, 52, 64
5, 92040, Note_on_c, 3, 48, 96
5, 92136, Note_off_c, 3, 48, 64
5, 92160, Note_on_c, 3, 53, 96
5, 93264, Note_off_c, 3, 53, 64
5, 93360, Note_on_c, 3, 53, 96
5, 93552, Note_off_c, 3, 53, 64
5, 93600, Note_on_c, 3, 55, 96
5, 94368, Note_off_c, 3, 55, 64
5, 95040, Note_on_c, 3, 57, 96
5, 95808, Note_off_c, 3, 57, 64
5, 96480, Note_on_c, 3, 58, 96
5, 97056, Note_off_c, 3, 58, 64
5, 97440, Note_on_c, 3, 50, 96
5, 97632, Note_off_c, 3, 50, 64
5, 97680, Note_on_c, 3, 46, 96
5, 97872, Note_off_c, 3, 46, 64
5, 97920, Note_on_c, 3, 51, 96
5, 98112, Note_off_c, 3, 51, 64
5, 98880, Note_on_c, 3, 52, 96
5, 99072, Note_off_c, 3, 52, 64
5, 99120, Note_on_c, 3, 48, 96
5, 99312, Note_off_c, 3, 48, 64
5, 99360, Note_on_c, 3, 53, 96
5, 99552, Note_off_c, 3, 53, 64
5, 99600, Note_on_c, 3, 50, 96
5, 99792, Note_off_c, 3, 50, 64
5, 99840, Note_on_c, 3, 55, 96
5, 100032, Note_off_c, 3, 55, 64
5, 100080, Note_on_c, 3, 51, 96
5, 100272, Note_off_c, 3, 51, 64
5, 100320, Note_on_c, 3, 53, 96
5, 100770, Note_off_c, 3, 53, 64
5, 100800, Note_on_c, 3, 58, 96
5, 100992, Note_off_c, 3, 58, 64
5, 101040, Note_on_c, 3, 46, 96
5, 101136, Note_off_c, 3, 46, 64
5, 101160, Note_on_c, 3, 45, 96
5, 101256, Note_off_c, 3, 45, 64
5, 101280, Note_on_c, 3, 46, 96
5, 101376, Note_off_c, 3, 46, 64
5, 101400, Note_on_c, 3, 48, 96
5, 101496, Note_off_c, 3, 48, 64
5, 101520, Note_on_c, 3, 50, 96
5, 101616, Note_off_c, 3, 50, 64
5, 101640, Note_on_c, 3, 48, 96
5, 101736, Note_off_c, 3, 48, 64
5, 101760, Note_on_c, 3, 50, 96
5, 101856, Note_off_c, 3, 50, 64
5, 101880, Note_on_c, 3, 51, 96
5, 101976, Note_off_c, 3, 51, 64
5, 102000, Note_on_c, 3, 48, 96
5, 102096, Note_off_c, 3, 48, 64
5, 102120, Note_on_c, 3, 50, 96
5, 102216, Note_off_c, 3, 50, 64
5, 102240, Note_on_c, 3, 51, 96
5, 102336, Note_off_c, 3, 51, 64
5, 102360, Note_on_c, 3, 50, 96
5, 102456, Note_off_c, 3, 50, 64
5, 102480, Note_on_c, 3, 51, 96
5, 102576, Note_off_c, 3, 51, 64
5, 102600, Note_on_c, 3, 53, 96
5, 102696, Note_off_c, 3, 53, 64
5, 102720, Note_on_c, 3, 51, 96
5, 102816, Note_off_c, 3, 51, 64
5, 102840, Note_on_c, 3, 53, 96
5, 102936, Note_off_c, 3, 53, 64
5, 102960, Note_on_c, 3, 55, 96
5, 103056, Note_off_c, 3, 55, 64
5, 103080, Note_on_c, 3, 53, 96
5, 103176, Note_off_c, 3, 53, 64
5, 103200, Note_on_c, 3, 55, 96
5, 103296, Note_off_c, 3, 55, 64
5, 103320, Note_on_c, 3, 56, 96
5, 103416, Note_off_c, 3, 56, 64
5, 103440, Note_on_c, 3, 55, 96
5, 103536, Note_off_c, 3, 55, 64
5, 103560, Note_on_c, 3, 56, 96
5, 103656, Note_off_c, 3, 56, 64
5, 103680, Note_on_c, 3, 58, 96
5, 103776, Note_off_c, 3, 58, 64
5, 103800, Note_on_c, 3, 56, 96
5, 103896, Note_off_c, 3, 56, 64
5, 103920, Note_on_c, 3, 58, 96
5, 104016, Note_off_c, 3, 58, 64
5, 104040, Note_on_c, 3, 60, 96
5, 104136, Note_off_c, 3, 60, 64
5, 104160, Note_on_c, 3, 58, 96
5, 104256, Note_off_c, 3, 58, 64
5, 104280, Note_on_c, 3, 56, 96
5, 104376, Note_off_c, 3, 56, 64
5, 104400, Note_on_c, 3, 55, 96
5, 104496, Note_off_c, 3, 55, 64
5, 104520, Note_on_c, 3, 56, 96
5, 104616, Note_off_c, 3, 56, 64
5, 104640, Note_on_c, 3, 51, 96
5, 104736, Note_off_c, 3, 51, 64
5, 104760, Note_on_c, 3, 50, 96
5, 104856, Note_off_c, 3, 50, 64
5, 104880, Note_on_c, 3, 51, 96
5, 104976, Note_off_c, 3, 51, 64
5, 105000, Note_on_c, 3, 53, 96
5, 105096, Note_off_c, 3, 53, 64
5, 105120, Note_on_c, 3, 51, 96
5, 105312, Note_off_c, 3, 51, 64
5, 105600, Note_on_c, 3, 48, 96
5, 105792, Note_off_c, 3, 48, 64
5, 105840, Note_on_c, 3, 55, 96
5, 106032, Note_off_c, 3, 55, 64
5, 106320, Note_on_c, 3, 51, 96
5, 106512, Note_off_c, 3, 51, 64
5, 106560, Note_on_c, 3, 58, 96
5, 106752, Note_off_c, 3, 58, 64
5, 107040, Note_on_c, 3, 55, 96
5, 107232, Note_off_c, 3, 55, 64
5, 107280, Note_on_c, 3, 50, 96
5, 107472, Note_off_c, 3, 50, 64
5, 107520, Note_on_c, 3, 51, 96
5, 107712, Note_off_c, 3, 51, 64
5, 107760, Note_on_c, 3, 53, 96
5, 107952, Note_off_c, 3, 53, 64
5, 108000, Note_on_c, 3, 46, 96
5, 108192, Note_off_c, 3, 46, 64
5, 108240, Note_on_c, 3, 58, 96
5, 108336, Note_off_c, 3, 58, 64
5, 108360, Note_on_c, 3, 60, 96
5, 108456, Note_off_c, 3, 60, 64
5, 108480, Note_on_c, 3, 58, 96
5, 108576, Note_off_c, 3, 58, 64
5, 108600, Note_on_c, 3, 56, 96
5, 108696, Note_off_c, 3, 56, 64
5, 108720, Note_on_c, 3, 55, 96
5, 108816, Note_off_c, 3, 55, 64
5, 108840, Note_on_c, 3, 56, 96
5, 108936, Note_off_c, 3, 56, 64
5, 108960, Note_on_c, 3, 55, 96
5, 109056, Note_off_c, 3, 55, 64
5, 109080, Note_on_c, 3, 53, 96
5, 109176, Note_off_c, 3, 53, 64
5, 109200, Note_on_c, 3, 55, 96
5, 109296, Note_off_c, 3, 55, 64
5, 109320, Note_on_c, 3, 53, 96
5, 109416, Note_off_c, 3, 53, 64
5, 109440, Note_on_c, 3, 51, 96
5, 109536, Note_off_c, 3, 51, 64
5, 109560, Note_on_c, 3, 55, 96
5, 109656, Note_off_c, 3, 55, 64
5, 109680, Note_on_c, 3, 60, 96
5, 109776, Note_off_c, 3, 60, 64
5, 109800, Note_on_c, 3, 61, 96
5, 109896, Note_off_c, 3, 61, 64
5, 109920, Note_on_c, 3, 60, 96
5, 110016, Note_off_c, 3, 60, 64
5, 110040, Note_on_c, 3, 58, 96
5, 110136, Note_off_c, 3, 58, 64
5, 110160, Note_on_c, 3, 56, 96
5, 110256, Note_off_c, 3, 56, 64
5, 110280, Note_on_c, 3, 58, 96
5, 110376, Note_off_c, 3, 58, 64
5, 110400, Note_on_c, 3, 56, 96
5, 110496, Note_off_c, 3, 56, 64
5, 110520, Note_on_c, 3, 55, 96
5, 110616, Note_off_c, 3, 55, 64
5, 110640, Note_on_c, 3, 56, 96
5, 110736, Note_off_c, 3, 56, 64
5, 110760, Note_on_c, 3, 55, 96
5, 110856, Note_off_c, 3, 55, 64
5, 110880, Note_on_c, 3, 53, 96
5, 110976, Note_off_c, 3, 53, 64
5, 111000, Note_on_c, 3, 55, 96
5, 111096, Note_off_c, 3, 55, 64
5, 111120, Note_on_c, 3, 53, 96
5, 111216, Note_off_c, 3, 53, 64
5, 111240, Note_on_c, 3, 51, 96
5, 111336, Note_off_c, 3, 51, 64
5, 111360, Note_on_c, 3, 53, 96
5, 111456, Note_off_c, 3, 53, 64
5, 111480, Note_on_c, 3, 51, 96
5, 111576, Note_off_c, 3, 51, 64
5, 111600, Note_on_c, 3, 49, 96
5, 111696, Note_off_c, 3, 49, 64
5, 111720, Note_on_c, 3, 51, 96
5, 111816, Note_off_c, 3, 51, 64
5, 111840, Note_on_c, 3, 49, 96
5, 111936, Note_off_c, 3, 49, 64
5, 111960, Note_on_c, 3, 48, 96
5, 112056, Note_off_c, 3, 48, 64
5, 112080, Note_on_c, 3, 49, 96
5, 112176, Note_off_c, 3, 49, 64
5, 112200, Note_on_c, 3, 48, 96
5, 112296, Note_off_c, 3, 48, 64
5, 112320, Note_on_c, 3, 46, 96
5, 112416, Note_off_c, 3, 46, 64
5, 112440, Note_on_c, 3, 44, 96
5, 112536, Note_off_c, 3, 44, 64
5, 112560, Note_on_c, 3, 46, 96
5, 112656, Note_off_c, 3, 46, 64
5, 112680, Note_on_c, 3, 49, 96
5, 112776, Note_off_c, 3, 49, 64
5, 112800, Note_on_c, 3, 48, 96
5, 112896, Note_off_c, 3, 48, 64
5, 112920, Note_on_c, 3, 46, 96
5, 113016, Note_off_c, 3, 46, 64
5, 113040, Note_on_c, 3, 44, 96
5, 113232, Note_off_c, 3, 44, 64
5, 113280, Note_on_c, 3, 50, 96
5, 113664, Note_off_c, 3, 50, 64
5, 113760, Note_on_c, 3, 48, 96
5, 113952, Note_off_c, 3, 48, 64
5, 114000, Note_on_c, 3, 53, 96
5, 114576, Note_off_c, 3, 53, 64
5, 114720, Note_on_c, 3, 52, 96
5, 115104, Note_off_c, 3, 52, 64
5, 115200, Note_on_c, 3, 53, 96
5, 115584, Note_off_c, 3, 53, 64
5, 115680, Note_on_c, 3, 55, 96
5, 115872, Note_off_c, 3, 55, 64
5, 115920, Note_on_c, 3, 56, 96
5, 116112, Note_off_c, 3, 56, 64
5, 116400, Note_on_c, 3, 53, 96
5, 116592, Note_off_c, 3, 53, 64
5, 116640, Note_on_c, 3, 60, 96
5, 116832, Note_off_c, 3, 60, 64
5, 117120, Note_on_c, 3, 56, 96
5, 117312, Note_off_c, 3, 56, 64
5, 117360, Note_on_c, 3, 51, 96
5, 117552, Note_off_c, 3, 51, 64
5, 117600, Note_on_c, 3, 53, 96
5, 117792, Note_off_c, 3, 53, 64
5, 117840, Note_on_c, 3, 55, 96
5, 118032, Note_off_c, 3, 55, 64
5, 118080, Note_on_c, 3, 48, 96
5, 118272, Note_off_c, 3, 48, 64
5, 126960, Note_on_c, 3, 55, 96
5, 127344, Note_off_c, 3, 55, 64
5, 127440, Note_on_c, 3, 51, 96
5, 127632, Note_off_c, 3, 51, 64
5, 127680, Note_on_c, 3, 56, 96
5, 128064, Note_off_c, 3, 56, 64
5, 128160, Note_on_c, 3, 55, 96
5, 128352, Note_off_c, 3, 55, 64
5, 128400, Note_on_c, 3, 60, 96
5, 128976, Note_off_c, 3, 60, 64
5, 129120, Note_on_c, 3, 59, 96
5, 129504, Note_off_c, 3, 59, 64
5, 129600, Note_on_c, 3, 60, 96
5, 129984, Note_off_c, 3, 60, 64
5, 130080, Note_on_c, 3, 58, 96
5, 130272, Note_off_c, 3, 58, 64
5, 130320, Note_on_c, 3, 56, 96
5, 130704, Note_off_c, 3, 56, 64
5, 130800, Note_on_c, 3, 55, 96
5, 130992, Note_off_c, 3, 55, 64
5, 131040, Note_on_c, 3, 53, 96
5, 131424, Note_off_c, 3, 53, 64
5, 131520, Note_on_c, 3, 51, 96
5, 131712, Note_off_c, 3, 51, 64
5, 131760, Note_on_c, 3, 50, 96
5, 132144, Note_off_c, 3, 50, 64
5, 132240, Note_on_c, 3, 48, 96
5, 132432, Note_off_c, 3, 48, 64
5, 132480, Note_on_c, 3, 47, 96
5, 132672, Note_off_c, 3, 47, 64
5, 132720, Note_on_c, 3, 43, 96
5, 132912, Note_off_c, 3, 43, 64
5, 132960, Note_on_c, 3, 48, 96
5, 133152, Note_off_c, 3, 48, 64
5, 133200, Note_on_c, 3, 53, 96
5, 133392, Note_off_c, 3, 53, 64
5, 133440, Note_on_c, 3, 55, 96
5, 133824, Note_off_c, 3, 55, 64
5, 133920, Note_on_c, 3, 48, 110
5, 134029, Note_off_c, 3, 48, 64
5, 134040, Note_on_c, 3, 51, 110
5, 134160, Note_on_c, 3, 55, 110
5, 134165, Note_off_c, 3, 51, 64
5, 134280, Note_on_c, 3, 60, 110
5, 134281, Note_off_c, 3, 55, 64
5, 134400, Note_on_c, 3, 58, 110
5, 134412, Note_off_c, 3, 60, 64
5, 134520, Note_on_c, 3, 60, 110
5, 134523, Note_off_c, 3, 58, 64
5, 134640, Note_on_c, 3, 53, 110
5, 134657, Note_off_c, 3, 60, 64
5, 134757, Note_off_c, 3, 53, 64
5, 134760, Note_on_c, 3, 56, 110
5, 134815, Note_off_c, 3, 56, 64
5, 134820, Note_on_c, 3, 55, 110
5, 134880, Note_on_c, 3, 56, 110
5, 134881, Note_off_c, 3, 55, 64
5, 134940, Note_on_c, 3, 53, 110
5, 134947, Note_off_c, 3, 56, 64
5, 135000, Note_on_c, 3, 58, 110
5, 135007, Note_off_c, 3, 53, 64
5, 135120, Note_on_c, 3, 56, 110
5, 135122, Note_off_c, 3, 58, 64
5, 135240, Note_on_c, 3, 58, 110
5, 135244, Note_off_c, 3, 56, 64
5, 135359, Note_off_c, 3, 58, 64
5, 135360, Note_on_c, 3, 51, 110
5, 135480, Note_on_c, 3, 55, 110
5, 135488, Note_off_c, 3, 51, 64
5, 135540, Note_on_c, 3, 53, 110
5, 135550, Note_off_c, 3, 55, 64
5, 135600, Note_on_c, 3, 55, 110
5, 135620, Note_off_c, 3, 53, 64
5, 135660, Note_on_c, 3, 51, 110
5, 135663, Note_off_c, 3, 55, 64
5, 135720, Note_on_c, 3, 58, 110
5, 135736, Note_off_c, 3, 51, 64
5, 136440, Note_on_c, 3, 56, 110
5, 136461, Note_off_c, 3, 58, 64
5, 137160, Note_on_c, 3, 55, 110
5, 137174, Note_off_c, 3, 56, 64
5, 137220, Note_on_c, 3, 53, 110
5, 137228, Note_off_c, 3, 55, 64
5, 137280, Note_on_c, 3, 51, 110
5, 137287, Note_off_c, 3, 53, 64
5, 137330, Note_off_c, 3, 51, 64
5, 137340, Note_on_c, 3, 53, 110
5, 137400, Note_on_c, 3, 55, 110
5, 137415, Note_off_c, 3, 53, 64
5, 137460, Note_on_c, 3, 56, 110
5, 137466, Note_off_c, 3, 55, 64
5, 137520, Note_on_c, 3, 58, 110
5, 137524, Note_off_c, 3, 56, 64
5, 137633, Note_off_c, 3, 58, 64
5, 137880, Note_on_c, 3, 56, 110
5, 137940, Note_off_c, 3, 56, 64
5, 137940, Note_on_c, 3, 55, 110
5, 138000, Note_on_c, 3, 53, 110
5, 138008, Note_off_c, 3, 55, 64
5, 138060, Note_on_c, 3, 55, 110
5, 138064, Note_off_c, 3, 53, 64
5, 138120, Note_on_c, 3, 56, 110
5, 138123, Note_off_c, 3, 55, 64
5, 138180, Note_on_c, 3, 58, 110
5, 138193, Note_off_c, 3, 56, 64
5, 138240, Note_on_c, 3, 60, 110
5, 138245, Note_off_c, 3, 58, 64
5, 138480, Note_on_c, 3, 58, 110
5, 138494, Note_off_c, 3, 60, 64
5, 138600, Note_on_c, 3, 56, 110
5, 138614, Note_off_c, 3, 58, 64
5, 139080, Note_on_c, 3, 55, 110
5, 139086, Note_off_c, 3, 56, 64
5, 139200, Note_on_c, 3, 53, 110
5, 139214, Note_off_c, 3, 55, 64
5, 139319, Note_off_c, 3, 53, 64
5, 139320, Note_on_c, 3, 55, 110
5, 139800, Note_on_c, 3, 53, 110
5, 139809, Note_off_c, 3, 55, 64
5, 139920, Note_on_c, 3, 51, 110
5, 139934, Note_off_c, 3, 53, 64
5, 140040, Note_on_c, 3, 53, 110
5, 140045, Note_off_c, 3, 51, 64
5, 140160, Note_on_c, 3, 51, 110
5, 140173, Note_off_c, 3, 53, 64
5, 140280, Note_on_c, 3, 53, 110
5, 140283, Note_off_c, 3, 51, 64
5, 140400, Note_on_c, 3, 46, 110
5, 140408, Note_off_c, 3, 53, 64
5, 140520, Note_on_c, 3, 50, 110
5, 140526, Note_off_c, 3, 46, 64
5, 140573, Note_off_c, 3, 50, 64
5, 140580, Note_on_c, 3, 48, 110
5, 140640, Note_on_c, 3, 50, 110
5, 140641, Note_off_c, 3, 48, 64
5, 140696, Note_off_c, 3, 50, 64
5, 140700, Note_on_c, 3, 46, 110
5, 140760, Note_on_c, 3, 51, 110
5, 140767, Note_off_c, 3, 46, 64
5, 140880, Note_on_c, 3, 50, 110
5, 140890, Note_off_c, 3, 51, 64
5, 141000, Note_on_c, 3, 51, 110
5, 141002, Note_off_c, 3, 50, 64
5, 141120, Note_on_c, 3, 45, 110
5, 141121, Note_off_c, 3, 51, 64
5, 141240, Note_on_c, 3, 48, 110
5, 141250, Note_off_c, 3, 45, 64
5, 141300, Note_on_c, 3, 46, 110
5, 141302, Note_off_c, 3, 48, 64
5, 141360, Note_on_c, 3, 48, 110
5, 141381, Note_off_c, 3, 46, 64
5, 141420, Note_on_c, 3, 45, 110
5, 141421, Note_off_c, 3, 48, 64
5, 141480, Note_on_c, 3, 50, 110
5, 141488, Note_off_c, 3, 45, 64
5, 141600, Note_on_c, 3, 48, 110
5, 141606, Note_off_c, 3, 50, 64
5, 141720, Note_on_c, 3, 50, 110
5, 141731, Note_off_c, 3, 48, 64
5, 141840, Note_on_c, 3, 43, 110
5, 141843, Note_off_c, 3, 50, 64
5, 142065, Note_off_c, 3, 43, 64
5, 145140, Note_on_c, 3, 65, 110
5, 145200, Note_on_c, 3, 63, 110
5, 145210, Note_off_c, 3, 65, 64
5, 145260, Note_on_c, 3, 62, 110
5, 145283, Note_off_c, 3, 63, 64
5, 145320, Note_on_c, 3, 60, 110
5, 145321, Note_off_c, 3, 62, 64
5, 145377, Note_off_c, 3, 60, 64
5, 145380, Note_on_c, 3, 58, 110
5, 145428, Note_off_c, 3, 58, 64
5, 145440, Note_on_c, 3, 57, 110
5, 145488, Note_off_c, 3, 57, 64
5, 145500, Note_on_c, 3, 53, 110
5, 145548, Note_off_c, 3, 53, 64
5, 145560, Note_on_c, 3, 55, 110
5, 145608, Note_off_c, 3, 55, 64
5, 145620, Note_on_c, 3, 57, 110
5, 145668, Note_off_c, 3, 57, 64
5, 145680, Note_on_c, 3, 58, 110
5, 145728, Note_off_c, 3, 58, 64
5, 145740, Note_on_c, 3, 60, 110
5, 145788, Note_off_c, 3, 60, 64
5, 145800, Note_on_c, 3, 62, 110
5, 145848, Note_off_c, 3, 62, 64
5, 145860, Note_on_c, 3, 58, 110
5, 145908, Note_off_c, 3, 58, 64
5, 145920, Note_on_c, 3, 60, 110
5, 145968, Note_off_c, 3, 60, 64
5, 145980, Note_on_c, 3, 62, 110
5, 146028, Note_off_c, 3, 62, 64
5, 146040, Note_on_c, 3, 63, 110
5, 146088, Note_off_c, 3, 63, 64
5, 146100, Note_on_c, 3, 65, 110
5, 146148, Note_off_c, 3, 65, 64
5, 146160, Note_on_c, 3, 67, 110
5, 146208, Note_off_c, 3, 67, 64
5, 146220, Note_on_c, 3, 68, 110
5, 146268, Note_off_c, 3, 68, 64
5, 146280, Note_on_c, 3, 67, 110
5, 146328, Note_off_c, 3, 67, 64
5, 146340, Note_on_c, 3, 65, 110
5, 146388, Note_off_c, 3, 65, 64
5, 146400, Note_on_c, 3, 63, 110
5, 146448, Note_off_c, 3, 63, 64
5, 146460, Note_on_c, 3, 62, 110
5, 146508, Note_off_c, 3, 62, 64
5, 146520, Note_on_c, 3, 60, 110
5, 146808, Note_off_c, 3, 60, 64
5, 146880, Note_on_c, 3, 58, 110
5, 147888, Note_off_c, 3, 58, 64
5, 147960, Note_on_c, 3, 56, 110
5, 148680, Note_on_c, 3, 55, 110
5, 148687, Note_off_c, 3, 56, 64
5, 148800, Note_on_c, 3, 56, 110
5, 148818, Note_off_c, 3, 55, 64
5, 148920, Note_on_c, 3, 58, 110
5, 148923, Note_off_c, 3, 56, 64
5, 149040, Note_on_c, 3, 60, 110
5, 149051, Note_off_c, 3, 58, 64
5, 149280, Note_on_c, 3, 55, 110
5, 149284, Note_off_c, 3, 60, 64
5, 149400, Note_on_c, 3, 56, 110
5, 149412, Note_off_c, 3, 55, 64
5, 149520, Note_on_c, 3, 55, 110
5, 149529, Note_off_c, 3, 56, 64
5, 149640, Note_off_c, 3, 55, 64
5, 149640, Note_on_c, 3, 56, 110
5, 149760, Note_on_c, 3, 58, 110
5, 149763, Note_off_c, 3, 56, 64
5, 150048, Note_off_c, 3, 58, 64
5, 155880, Note_on_c, 3, 62, 110
5, 156000, Note_on_c, 3, 60, 110
5, 156015, Note_off_c, 3, 62, 64
5, 156120, Note_on_c, 3, 62, 110
5, 156129, Note_off_c, 3, 60, 64
5, 156240, Note_on_c, 3, 55, 110
5, 156246, Note_off_c, 3, 62, 64
5, 156360, Note_on_c, 3, 58, 110
5, 156368, Note_off_c, 3, 55, 64
5, 156420, Note_on_c, 3, 56, 110
5, 156421, Note_off_c, 3, 58, 64
5, 156480, Note_on_c, 3, 58, 110
5, 156481, Note_off_c, 3, 56, 64
5, 156539, Note_off_c, 3, 58, 64
5, 156540, Note_on_c, 3, 55, 110
5, 156600, Note_on_c, 3, 60, 110
5, 156612, Note_off_c, 3, 55, 64
5, 156714, Note_off_c, 3, 60, 64
5, 156720, Note_on_c, 3, 58, 110
5, 156840, Note_on_c, 3, 60, 110
5, 156844, Note_off_c, 3, 58, 64
5, 156960, Note_on_c, 3, 53, 110
5, 156961, Note_off_c, 3, 60, 64
5, 157080, Note_on_c, 3, 56, 110
5, 157090, Note_off_c, 3, 53, 64
5, 157140, Note_on_c, 3, 55, 110
5, 157142, Note_off_c, 3, 56, 64
5, 157200, Note_on_c, 3, 56, 110
5, 157211, Note_off_c, 3, 55, 64
5, 157257, Note_off_c, 3, 56, 64
5, 157260, Note_on_c, 3, 53, 110
5, 157320, Note_on_c, 3, 58, 110
5, 157329, Note_off_c, 3, 53, 64
5, 157440, Note_on_c, 3, 56, 110
5, 157449, Note_off_c, 3, 58, 64
5, 157560, Note_on_c, 3, 58, 110
5, 157561, Note_off_c, 3, 56, 64
5, 157680, Note_on_c, 3, 51, 110
5, 157689, Note_off_c, 3, 58, 64
5, 157800, Note_on_c, 3, 55, 110
5, 157811, Note_off_c, 3, 51, 64
5, 157860, Note_on_c, 3, 53, 110
5, 157865, Note_off_c, 3, 55, 64
5, 157920, Note_on_c, 3, 55, 110
5, 157928, Note_off_c, 3, 53, 64
5, 157980, Note_on_c, 3, 51, 110
5, 157982, Note_off_c, 3, 55, 64
5, 158040, Note_on_c, 3, 56, 110
5, 158051, Note_off_c, 3, 51, 64
5, 158160, Note_on_c, 3, 55, 110
5, 158172, Note_off_c, 3, 56, 64
5, 158280, Note_on_c, 3, 56, 110
5, 158285, Note_off_c, 3, 55, 64
5, 158400, Note_on_c, 3, 49, 110
5, 158404, Note_off_c, 3, 56, 64
5, 158518, Note_off_c, 3, 49, 64
5, 158520, Note_on_c, 3, 51, 110
5, 158580, Note_on_c, 3, 53, 110
5, 158584, Note_off_c, 3, 51, 64
5, 158640, Note_on_c, 3, 55, 110
5, 158644, Note_off_c, 3, 53, 64
5, 158700, Note_on_c, 3, 57, 110
5, 158703, Note_off_c, 3, 55, 64
5, 158760, Note_on_c, 3, 58, 110
5, 158774, Note_off_c, 3, 57, 64
5, 158820, Note_on_c, 3, 60, 110
5, 158828, Note_off_c, 3, 58, 64
5, 158880, Note_on_c, 3, 58, 110
5, 158895, Note_off_c, 3, 60, 64
5, 158937, Note_off_c, 3, 58, 64
5, 158940, Note_on_c, 3, 56, 110
5, 159000, Note_on_c, 3, 55, 110
5, 159011, Note_off_c, 3, 56, 64
5, 159054, Note_off_c, 3, 55, 64
5, 159060, Note_on_c, 3, 53, 110
5, 159120, Note_on_c, 3, 55, 110
5, 159125, Note_off_c, 3, 53, 64
5, 159167, Note_off_c, 3, 55, 64
5, 159180, Note_on_c, 3, 51, 110
5, 159213, Note_off_c, 3, 51, 64
5, 159240, Note_on_c, 3, 53, 110
5, 159300, Note_on_c, 3, 55, 110
5, 159307, Note_off_c, 3, 53, 64
5, 159360, Note_on_c, 3, 56, 110
5, 159366, Note_off_c, 3, 55, 64
5, 159420, Note_on_c, 3, 58, 110
5, 159425, Note_off_c, 3, 56, 64
5, 159446, Note_off_c, 3, 58, 64
5, 159480, Note_on_c, 3, 60, 110
5, 159540, Note_on_c, 3, 58, 110
5, 159542, Note_off_c, 3, 60, 64
5, 159600, Note_off_c, 3, 58, 64
5, 159600, Note_on_c, 3, 56, 110
5, 159660, Note_on_c, 3, 58, 110
5, 159662, Note_off_c, 3, 56, 64
5, 159720, Note_on_c, 3, 60, 110
5, 159727, Note_off_c, 3, 58, 64
5, 159780, Note_on_c, 3, 61, 110
5, 159787, Note_off_c, 3, 60, 64
5, 159840, Note_on_c, 3, 63, 110
5, 159843, Note_off_c, 3, 61, 64
5, 160560, Note_on_c, 3, 56, 110
5, 160585, Note_off_c, 3, 63, 64
5, 161280, Note_off_c, 3, 56, 64
5, 161280, Note_on_c, 3, 55, 110
5, 161620, Note_off_c, 3, 55, 64
5, 161640, Note_on_c, 3, 56, 110
5, 161760, Note_on_c, 3, 55, 110
5, 161761, Note_off_c, 3, 56, 64
5, 161880, Note_on_c, 3, 56, 110
5, 161883, Note_off_c, 3, 55, 64
5, 162000, Note_on_c, 3, 50, 110
5, 162008, Note_off_c, 3, 56, 64
5, 162120, Note_off_c, 3, 50, 64
5, 162120, Note_on_c, 3, 53, 110
5, 162180, Note_off_c, 3, 53, 64
5, 162180, Note_on_c, 3, 51, 110
5, 162240, Note_on_c, 3, 53, 110
5, 162251, Note_off_c, 3, 51, 64
5, 162300, Note_on_c, 3, 50, 110
5, 162305, Note_off_c, 3, 53, 64
5, 162360, Note_on_c, 3, 55, 110
5, 162374, Note_off_c, 3, 50, 64
5, 162480, Note_on_c, 3, 53, 110
5, 162484, Note_off_c, 3, 55, 64
5, 162596, Note_off_c, 3, 53, 64
5, 162600, Note_on_c, 3, 55, 110
5, 162720, Note_on_c, 3, 48, 110
5, 162726, Note_off_c, 3, 55, 64
5, 162858, Note_off_c, 3, 48, 64
5, 168120, Note_on_c, 3, 60, 110
5, 168240, Note_on_c, 3, 58, 110
5, 168248, Note_off_c, 3, 60, 64
5, 168360, Note_off_c, 3, 58, 64
5, 168360, Note_on_c, 3, 60, 110
5, 168480, Note_on_c, 3, 53, 110
5, 168488, Note_off_c, 3, 60, 64
5, 168600, Note_on_c, 3, 56, 110
5, 168607, Note_off_c, 3, 53, 64
5, 168655, Note_off_c, 3, 56, 64
5, 168660, Note_on_c, 3, 55, 110
5, 168720, Note_on_c, 3, 56, 110
5, 168722, Note_off_c, 3, 55, 64
5, 168772, Note_off_c, 3, 56, 64
5, 168780, Note_on_c, 3, 53, 110
5, 168840, Note_on_c, 3, 58, 110
5, 168855, Note_off_c, 3, 53, 64
5, 168960, Note_on_c, 3, 56, 110
5, 168965, Note_off_c, 3, 58, 64
5, 169080, Note_on_c, 3, 58, 110
5, 169096, Note_off_c, 3, 56, 64
5, 169200, Note_off_c, 3, 58, 64
5, 169200, Note_on_c, 3, 51, 110
5, 169320, Note_on_c, 3, 55, 110
5, 169331, Note_off_c, 3, 51, 64
5, 169380, Note_on_c, 3, 53, 110
5, 169384, Note_off_c, 3, 55, 64
5, 169440, Note_on_c, 3, 55, 110
5, 169457, Note_off_c, 3, 53, 64
5, 169496, Note_off_c, 3, 55, 64
5, 169500, Note_on_c, 3, 51, 110
5, 169560, Note_on_c, 3, 56, 110
5, 169567, Note_off_c, 3, 51, 64
5, 169680, Note_on_c, 3, 55, 110
5, 169684, Note_off_c, 3, 56, 64
5, 169800, Note_on_c, 3, 56, 110
5, 169807, Note_off_c, 3, 55, 64
5, 169920, Note_on_c, 3, 53, 110
5, 169923, Note_off_c, 3, 56, 64
5, 170040, Note_on_c, 3, 55, 110
5, 170055, Note_off_c, 3, 53, 64
5, 170160, Note_on_c, 3, 56, 110
5, 170165, Note_off_c, 3, 55, 64
5, 170280, Note_on_c, 3, 58, 110
5, 170281, Note_off_c, 3, 56, 64
5, 171000, Note_on_c, 3, 56, 110
5, 171018, Note_off_c, 3, 58, 64
5, 171694, Note_off_c, 3, 56, 64
5, 171720, Note_on_c, 3, 55, 110
5, 171780, Note_on_c, 3, 51, 110
5, 171781, Note_off_c, 3, 55, 64
5, 171840, Note_on_c, 3, 53, 110
5, 171847, Note_off_c, 3, 51, 64
5, 171900, Note_on_c, 3, 55, 110
5, 171901, Note_off_c, 3, 53, 64
5, 171960, Note_on_c, 3, 56, 110
5, 171961, Note_off_c, 3, 55, 64
5, 172019, Note_off_c, 3, 56, 64
5, 172020, Note_on_c, 3, 58, 110
5, 172054, Note_off_c, 3, 58, 64
5, 172080, Note_on_c, 3, 60, 110
5, 172497, Note_off_c, 3, 60, 64
5, 172500, Note_on_c, 3, 61, 110
5, 172557, Note_off_c, 3, 61, 64
5, 172560, Note_on_c, 3, 60, 110
5, 172617, Note_off_c, 3, 60, 64
5, 172620, Note_on_c, 3, 58, 110
5, 172677, Note_off_c, 3, 58, 64
5, 172680, Note_on_c, 3, 56, 110
5, 172737, Note_off_c, 3, 56, 64
5, 172740, Note_on_c, 3, 55, 110
5, 172788, Note_off_c, 3, 55, 64
5, 172800, Note_on_c, 3, 56, 110
5, 172857, Note_off_c, 3, 56, 64
5, 172860, Note_on_c, 3, 58, 110
5, 172917, Note_off_c, 3, 58, 64
5, 172920, Note_on_c, 3, 56, 110
5, 172977, Note_off_c, 3, 56, 64
5, 172980, Note_on_c, 3, 55, 110
5, 173037, Note_off_c, 3, 55, 64
5, 173040, Note_on_c, 3, 53, 110
5, 173097, Note_off_c, 3, 53, 64
5, 173100, Note_on_c, 3, 51, 110
5, 173157, Note_off_c, 3, 51, 64
5, 173160, Note_on_c, 3, 53, 110
5, 173217, Note_off_c, 3, 53, 64
5, 173220, Note_on_c, 3, 56, 110
5, 173277, Note_off_c, 3, 56, 64
5, 173280, Note_on_c, 3, 55, 110
5, 173337, Note_off_c, 3, 55, 64
5, 173340, Note_on_c, 3, 53, 110
5, 173397, Note_off_c, 3, 53, 64
5, 173400, Note_on_c, 3, 51, 110
5, 173457, Note_off_c, 3, 51, 64
5, 173460, Note_on_c, 3, 50, 110
5, 173508, Note_off_c, 3, 50, 64
5, 173520, Note_on_c, 3, 51, 110
5, 173808, Note_off_c, 3, 51, 64
5, 174300, Note_on_c, 3, 67, 110
5, 174360, Note_on_c, 3, 65, 110
5, 174370, Note_off_c, 3, 67, 64
5, 174420, Note_on_c, 3, 63, 110
5, 174424, Note_off_c, 3, 65, 64
5, 174480, Note_on_c, 3, 62, 110
5, 174482, Note_off_c, 3, 63, 64
5, 174540, Note_on_c, 3, 60, 110
5, 174543, Note_off_c, 3, 62, 64
5, 174600, Note_on_c, 3, 58, 110
5, 174610, Note_off_c, 3, 60, 64
5, 174825, Note_off_c, 3, 58, 64
5, 175380, Note_on_c, 3, 67, 110
5, 175440, Note_on_c, 3, 65, 110
5, 175454, Note_off_c, 3, 67, 64
5, 175500, Note_on_c, 3, 63, 110
5, 175506, Note_off_c, 3, 65, 64
5, 175560, Note_on_c, 3, 62, 110
5, 175565, Note_off_c, 3, 63, 64
5, 175620, Note_on_c, 3, 60, 110
5, 175623, Note_off_c, 3, 62, 64
5, 175667, Note_off_c, 3, 60, 64
5, 175680, Note_on_c, 3, 62, 110
5, 175793, Note_off_c, 3, 62, 64
5, 178920, Note_on_c, 3, 65, 110
5, 179040, Note_on_c, 3, 63, 110
5, 179050, Note_off_c, 3, 65, 64
5, 179160, Note_on_c, 3, 65, 110
5, 179165, Note_off_c, 3, 63, 64
5, 179280, Note_on_c, 3, 58, 110
5, 179294, Note_off_c, 3, 65, 64
5, 179400, Note_on_c, 3, 62, 110
5, 179409, Note_off_c, 3, 58, 64
5, 179460, Note_on_c, 3, 60, 110
5, 179461, Note_off_c, 3, 62, 64
5, 179520, Note_on_c, 3, 62, 110
5, 179529, Note_off_c, 3, 60, 64
5, 179576, Note_off_c, 3, 62, 64
5, 179580, Note_on_c, 3, 58, 110
5, 179640, Note_on_c, 3, 63, 110
5, 179648, Note_off_c, 3, 58, 64
5, 179760, Note_on_c, 3, 62, 110
5, 179778, Note_off_c, 3, 63, 64
5, 179876, Note_off_c, 3, 62, 64
5, 179880, Note_on_c, 3, 63, 110
5, 180000, Note_on_c, 3, 56, 110
5, 180004, Note_off_c, 3, 63, 64
5, 180714, Note_off_c, 3, 56, 64
5, 180720, Note_on_c, 3, 58, 110
5, 181063, Note_off_c, 3, 58, 64
5, 181080, Note_on_c, 3, 58, 110
5, 181200, Note_on_c, 3, 56, 110
5, 181213, Note_off_c, 3, 58, 64
5, 181314, Note_off_c, 3, 56, 64
5, 181320, Note_on_c, 3, 58, 110
5, 181440, Note_off_c, 3, 58, 64
5, 181440, Note_on_c, 3, 51, 110
5, 181560, Note_on_c, 3, 55, 110
5, 181569, Note_off_c, 3, 51, 64
5, 181620, Note_on_c, 3, 53, 110
5, 181624, Note_off_c, 3, 55, 64
5, 181680, Note_on_c, 3, 55, 110
5, 181689, Note_off_c, 3, 53, 64
5, 181738, Note_off_c, 3, 55, 64
5, 181740, Note_on_c, 3, 51, 110
5, 181800, Note_on_c, 3, 56, 110
5, 181810, Note_off_c, 3, 51, 64
5, 181920, Note_on_c, 3, 55, 110
5, 181928, Note_off_c, 3, 56, 64
5, 182034, Note_off_c, 3, 55, 64
5, 182040, Note_on_c, 3, 56, 110
5, 182146, Note_off_c, 3, 56, 64
5, 182160, Note_on_c, 3, 50, 110
5, 182216, Note_off_c, 3, 50, 64
5, 182220, Note_on_c, 3, 46, 110
5, 182248, Note_off_c, 3, 46, 64
5, 182280, Note_on_c, 3, 48, 110
5, 182331, Note_off_c, 3, 48, 64
5, 182340, Note_on_c, 3, 50, 110
5, 182393, Note_off_c, 3, 50, 64
5, 182400, Note_on_c, 3, 51, 110
5, 182460, Note_on_c, 3, 53, 110
5, 182465, Note_off_c, 3, 51, 64
5, 182520, Note_on_c, 3, 55, 110
5, 182539, Note_off_c, 3, 53, 64
5, 182555, Note_off_c, 3, 55, 64
5, 182580, Note_on_c, 3, 51, 110
5, 182639, Note_off_c, 3, 51, 64
5, 182640, Note_on_c, 3, 53, 110
5, 182700, Note_on_c, 3, 55, 110
5, 182714, Note_off_c, 3, 53, 64
5, 182760, Note_on_c, 3, 56, 110
5, 182768, Note_off_c, 3, 55, 64
5, 182820, Note_on_c, 3, 58, 110
5, 182834, Note_off_c, 3, 56, 64
5, 182850, Note_off_c, 3, 58, 64
5, 182880, Note_on_c, 3, 60, 110
5, 182914, Note_off_c, 3, 60, 64
5, 182940, Note_on_c, 3, 56, 110
5, 183000, Note_on_c, 3, 58, 110
5, 183004, Note_off_c, 3, 56, 64
5, 183060, Note_on_c, 3, 60, 110
5, 183062, Note_off_c, 3, 58, 64
5, 183120, Note_on_c, 3, 62, 110
5, 183145, Note_off_c, 3, 60, 64
5, 183164, Note_off_c, 3, 62, 64
5, 183180, Note_on_c, 3, 63, 110
5, 183198, Note_off_c, 3, 63, 64
5, 183240, Note_on_c, 3, 65, 110
5, 183300, Note_on_c, 3, 67, 110
5, 183308, Note_off_c, 3, 65, 64
5, 183360, Note_on_c, 3, 65, 110
5, 183368, Note_off_c, 3, 67, 64
5, 183420, Note_on_c, 3, 63, 110
5, 183423, Note_off_c, 3, 65, 64
5, 183480, Note_on_c, 3, 62, 110
5, 183490, Note_off_c, 3, 63, 64
5, 183539, Note_off_c, 3, 62, 64
5, 183540, Note_on_c, 3, 60, 110
5, 183600, Note_on_c, 3, 58, 110
5, 183616, Note_off_c, 3, 60, 64
5, 184056, Note_off_c, 3, 58, 64
5, 184080, Note_on_c, 3, 63, 110
5, 184440, Note_on_c, 3, 55, 110
5, 184464, Note_off_c, 3, 63, 64
5, 184560, Note_on_c, 3, 56, 110
5, 184572, Note_off_c, 3, 55, 64
5, 184680, Note_on_c, 3, 58, 110
5, 184683, Note_off_c, 3, 56, 64
5, 184968, Note_off_c, 3, 58, 64
5, 185040, Note_on_c, 3, 58, 110
5, 185722, Note_off_c, 3, 58, 64
5, 185722, End_track
6, 0, Start_track
6, 0, Title_t, "Arr. Gary Bricault, (c) 1997"
6, 0, Program_c, 4, 19
6, 0, Control_c, 4, 7, 127
6, 24960, Note_on_c, 4, 46, 110
6, 25885, Note_off_c, 4, 46, 64
6, 25920, Note_on_c, 4, 43, 110
6, 26400, Note_on_c, 4, 48, 110
6, 26428, Note_off_c, 4, 43, 64
6, 26880, Note_on_c, 4, 46, 110
6, 26902, Note_off_c, 4, 48, 64
6, 27360, Note_on_c, 4, 51, 110
6, 27376, Note_off_c, 4, 46, 64
6, 28320, Note_on_c, 4, 50, 110
6, 28359, Note_off_c, 4, 51, 64
6, 28800, Note_on_c, 4, 51, 110
6, 28809, Note_off_c, 4, 50, 64
6, 29280, Note_on_c, 4, 53, 110
6, 29284, Note_off_c, 4, 51, 64
6, 29760, Note_on_c, 4, 46, 110
6, 29792, Note_off_c, 4, 53, 64
6, 30240, Note_on_c, 4, 48, 110
6, 30264, Note_off_c, 4, 46, 64
6, 30693, Note_off_c, 4, 48, 64
6, 30720, Note_on_c, 4, 44, 110
6, 31680, Note_on_c, 4, 46, 110
6, 31695, Note_off_c, 4, 44, 64
6, 32518, Note_off_c, 4, 46, 64
6, 32640, Note_on_c, 4, 48, 110
6, 32880, Note_on_c, 4, 58, 110
6, 32923, Note_off_c, 4, 48, 64
6, 33120, Note_on_c, 4, 57, 110
6, 33264, Note_off_c, 4, 58, 64
6, 33347, Note_off_c, 4, 57, 64
6, 33360, Note_on_c, 4, 55, 110
6, 33600, Note_on_c, 4, 57, 110
6, 33610, Note_off_c, 4, 55, 64
6, 33840, Note_on_c, 4, 53, 110
6, 33846, Note_off_c, 4, 57, 64
6, 34080, Note_on_c, 4, 58, 110
6, 34093, Note_off_c, 4, 53, 64
6, 34320, Note_on_c, 4, 57, 110
6, 34322, Note_off_c, 4, 58, 64
6, 34560, Note_on_c, 4, 55, 110
6, 34563, Note_off_c, 4, 57, 64
6, 35040, Note_on_c, 4, 60, 110
6, 35059, Note_off_c, 4, 55, 64
6, 35520, Note_on_c, 4, 57, 110
6, 35532, Note_off_c, 4, 60, 64
6, 36000, Note_on_c, 4, 53, 110
6, 36005, Note_off_c, 4, 57, 64
6, 36480, Note_on_c, 4, 58, 110
6, 36510, Note_off_c, 4, 53, 64
6, 36714, Note_off_c, 4, 58, 64
6, 36720, Note_on_c, 4, 53, 110
6, 36960, Note_on_c, 4, 55, 110
6, 36972, Note_off_c, 4, 53, 64
6, 37200, Note_on_c, 4, 51, 110
6, 37210, Note_off_c, 4, 55, 64
6, 37440, Note_on_c, 4, 53, 110
6, 37461, Note_off_c, 4, 51, 64
6, 37920, Note_on_c, 4, 41, 110
6, 37954, Note_off_c, 4, 53, 64
6, 38400, Note_on_c, 4, 46, 110
6, 38433, Note_off_c, 4, 41, 64
6, 38870, Note_off_c, 4, 46, 64
6, 57600, Note_on_c, 4, 46, 110
6, 58560, Note_off_c, 4, 46, 64
6, 58560, Note_on_c, 4, 43, 110
6, 59040, Note_on_c, 4, 48, 110
6, 59042, Note_off_c, 4, 43, 64
6, 59520, Note_on_c, 4, 46, 110
6, 59564, Note_off_c, 4, 48, 64
6, 60000, Note_on_c, 4, 51, 110
6, 60012, Note_off_c, 4, 46, 64
6, 60960, Note_on_c, 4, 49, 110
6, 60974, Note_off_c, 4, 51, 64
6, 61680, Note_on_c, 4, 51, 110
6, 61704, Note_off_c, 4, 49, 64
6, 61920, Note_on_c, 4, 49, 110
6, 61935, Note_off_c, 4, 51, 64
6, 62160, Note_on_c, 4, 48, 110
6, 62171, Note_off_c, 4, 49, 64
6, 62400, Note_on_c, 4, 49, 110
6, 62421, Note_off_c, 4, 48, 64
6, 62640, Note_on_c, 4, 46, 110
6, 62644, Note_off_c, 4, 49, 64
6, 62880, Note_on_c, 4, 51, 110
6, 62885, Note_off_c, 4, 46, 64
6, 63120, Note_on_c, 4, 49, 110
6, 63151, Note_off_c, 4, 51, 64
6, 63360, Note_off_c, 4, 49, 64
6, 63360, Note_on_c, 4, 48, 110
6, 63588, Note_off_c, 4, 48, 64
6, 63600, Note_on_c, 4, 46, 110
6, 63840, Note_on_c, 4, 48, 110
6, 63853, Note_off_c, 4, 46, 64
6, 64080, Note_on_c, 4, 50, 110
6, 64094, Note_off_c, 4, 48, 64
6, 64320, Note_on_c, 4, 51, 110
6, 64354, Note_off_c, 4, 50, 64
6, 64560, Note_on_c, 4, 53, 110
6, 64596, Note_off_c, 4, 51, 64
6, 64800, Note_off_c, 4, 53, 64
6, 64800, Note_on_c, 4, 55, 110
6, 65040, Note_on_c, 4, 51, 110
6, 65052, Note_off_c, 4, 55, 64
6, 65280, Note_on_c, 4, 56, 110
6, 65301, Note_off_c, 4, 51, 64
6, 65520, Note_on_c, 4, 53, 110
6, 65531, Note_off_c, 4, 56, 64
6, 65760, Note_on_c, 4, 58, 110
6, 65764, Note_off_c, 4, 53, 64
6, 66000, Note_on_c, 4, 56, 110
6, 66019, Note_off_c, 4, 58, 64
6, 66240, Note_on_c, 4, 55, 110
6, 66245, Note_off_c, 4, 56, 64
6, 66480, Note_on_c, 4, 51, 110
6, 66506, Note_off_c, 4, 55, 64
6, 66719, Note_off_c, 4, 51, 64
6, 66720, Note_on_c, 4, 56, 110
6, 67680, Note_on_c, 4, 55, 110
6, 67685, Note_off_c, 4, 56, 64
6, 67920, Note_on_c, 4, 51, 110
6, 67949, Note_off_c, 4, 55, 64
6, 68160, Note_on_c, 4, 58, 110
6, 68195, Note_off_c, 4, 51, 64
6, 68640, Note_on_c, 4, 46, 110
6, 68664, Note_off_c, 4, 58, 64
6, 69120, Note_on_c, 4, 39, 110
6, 69136, Note_off_c, 4, 46, 64
6, 69345, Note_off_c, 4, 39, 64
6, 148680, Note_on_c, 4, 55, 110
6, 148800, Note_on_c, 4, 53, 110
6, 148804, Note_off_c, 4, 55, 64
6, 148920, Note_on_c, 4, 55, 110
6, 148925, Note_off_c, 4, 53, 64
6, 149040, Note_on_c, 4, 48, 110
6, 149048, Note_off_c, 4, 55, 64
6, 149160, Note_on_c, 4, 51, 110
6, 149164, Note_off_c, 4, 48, 64
6, 149219, Note_off_c, 4, 51, 64
6, 149220, Note_on_c, 4, 50, 110
6, 149280, Note_on_c, 4, 51, 110
6, 149286, Note_off_c, 4, 50, 64
6, 149330, Note_off_c, 4, 51, 64
6, 149340, Note_on_c, 4, 48, 110
6, 149400, Note_on_c, 4, 53, 110
6, 149404, Note_off_c, 4, 48, 64
6, 149520, Note_on_c, 4, 51, 110
6, 149528, Note_off_c, 4, 53, 64
6, 149640, Note_on_c, 4, 53, 110
6, 149648, Note_off_c, 4, 51, 64
6, 149760, Note_on_c, 4, 46, 110
6, 149768, Note_off_c, 4, 53, 64
6, 149880, Note_on_c, 4, 50, 110
6, 149883, Note_off_c, 4, 46, 64
6, 149935, Note_off_c, 4, 50, 64
6, 149940, Note_on_c, 4, 48, 110
6, 150000, Note_on_c, 4, 50, 110
6, 150006, Note_off_c, 4, 48, 64
6, 150047, Note_off_c, 4, 50, 64
6, 150060, Note_on_c, 4, 46, 110
6, 150120, Note_on_c, 4, 51, 110
6, 150132, Note_off_c, 4, 46, 64
6, 150840, Note_on_c, 4, 49, 110
6, 150846, Note_off_c, 4, 51, 64
6, 151560, Note_off_c, 4, 49, 64
6, 151560, Note_on_c, 4, 48, 110
6, 151848, Note_off_c, 4, 48, 64
6, 151920, Note_on_c, 4, 53, 110
6, 152640, Note_on_c, 4, 51, 110
6, 152648, Note_off_c, 4, 53, 64
6, 153000, Note_on_c, 4, 56, 110
6, 153009, Note_off_c, 4, 51, 64
6, 153719, Note_off_c, 4, 56, 64
6, 153720, Note_on_c, 4, 55, 110
6, 154080, Note_on_c, 4, 56, 110
6, 154099, Note_off_c, 4, 55, 64
6, 154430, Note_off_c, 4, 56, 64
6, 154440, Note_on_c, 4, 53, 110
6, 154728, Note_off_c, 4, 53, 64
6, 154800, Note_on_c, 4, 49, 110
6, 155520, Note_on_c, 4, 48, 110
6, 155532, Note_off_c, 4, 49, 64
6, 156072, Note_off_c, 4, 48, 64
6, 156120, Note_on_c, 4, 47, 110
6, 156240, Note_on_c, 4, 48, 110
6, 156252, Note_off_c, 4, 47, 64
6, 156600, Note_on_c, 4, 36, 110
6, 156615, Note_off_c, 4, 48, 64
6, 156960, Note_on_c, 4, 41, 110
6, 156961, Note_off_c, 4, 36, 64
6, 157248, Note_off_c, 4, 41, 64
6, 161640, Note_on_c, 4, 48, 110
6, 162340, Note_off_c, 4, 48, 64
6, 162360, Note_on_c, 4, 47, 110
6, 162720, Note_on_c, 4, 51, 110
6, 162734, Note_off_c, 4, 47, 64
6, 163440, Note_on_c, 4, 48, 110
6, 163449, Note_off_c, 4, 51, 64
6, 163785, Note_off_c, 4, 48, 64
6, 163800, Note_on_c, 4, 55, 110
6, 164520, Note_on_c, 4, 54, 110
6, 164527, Note_off_c, 4, 55, 64
6, 164808, Note_off_c, 4, 54, 64
6, 164880, Note_on_c, 4, 55, 110
6, 165230, Note_off_c, 4, 55, 64
6, 166680, Note_on_c, 4, 60, 110
6, 166800, Note_on_c, 4, 58, 110
6, 166810, Note_off_c, 4, 60, 64
6, 166920, Note_on_c, 4, 60, 110
6, 166926, Note_off_c, 4, 58, 64
6, 167040, Note_on_c, 4, 53, 110
6, 167046, Note_off_c, 4, 60, 64
6, 167160, Note_on_c, 4, 56, 110
6, 167171, Note_off_c, 4, 53, 64
6, 167218, Note_off_c, 4, 56, 64
6, 167220, Note_on_c, 4, 55, 110
6, 167280, Note_on_c, 4, 56, 110
6, 167287, Note_off_c, 4, 55, 64
6, 167333, Note_off_c, 4, 56, 64
6, 167340, Note_on_c, 4, 53, 110
6, 167400, Note_on_c, 4, 58, 110
6, 167406, Note_off_c, 4, 53, 64
6, 167520, Note_on_c, 4, 56, 110
6, 167530, Note_off_c, 4, 58, 64
6, 167640, Note_on_c, 4, 58, 110
6, 167646, Note_off_c, 4, 56, 64
6, 167756, Note_off_c, 4, 58, 64
6, 167760, Note_on_c, 4, 51, 110
6, 167880, Note_on_c, 4, 55, 110
6, 167897, Note_off_c, 4, 51, 64
6, 167939, Note_off_c, 4, 55, 64
6, 167940, Note_on_c, 4, 53, 110
6, 168000, Note_on_c, 4, 55, 110
6, 168009, Note_off_c, 4, 53, 64
6, 168055, Note_off_c, 4, 55, 64
6, 168060, Note_on_c, 4, 51, 110
6, 168120, Note_on_c, 4, 56, 110
6, 168131, Note_off_c, 4, 51, 64
6, 168240, Note_on_c, 4, 55, 110
6, 168243, Note_off_c, 4, 56, 64
6, 168360, Note_on_c, 4, 56, 110
6, 168366, Note_off_c, 4, 55, 64
6, 168477, Note_off_c, 4, 56, 64
6, 168480, Note_on_c, 4, 50, 110
6, 168600, Note_on_c, 4, 53, 110
6, 168615, Note_off_c, 4, 50, 64
6, 168655, Note_off_c, 4, 53, 64
6, 168660, Note_on_c, 4, 51, 110
6, 168720, Note_on_c, 4, 53, 110
6, 168729, Note_off_c, 4, 51, 64
6, 168780, Note_on_c, 4, 50, 110
6, 168783, Note_off_c, 4, 53, 64
6, 168840, Note_on_c, 4, 55, 110
6, 168852, Note_off_c, 4, 50, 64
6, 168960, Note_on_c, 4, 53, 110
6, 168969, Note_off_c, 4, 55, 64
6, 169080, Note_on_c, 4, 55, 110
6, 169084, Note_off_c, 4, 53, 64
6, 169200, Note_on_c, 4, 48, 110
6, 169206, Note_off_c, 4, 55, 64
6, 169320, Note_on_c, 4, 51, 110
6, 169330, Note_off_c, 4, 48, 64
6, 169380, Note_on_c, 4, 50, 110
6, 169385, Note_off_c, 4, 51, 64
6, 169440, Note_on_c, 4, 51, 110
6, 169447, Note_off_c, 4, 50, 64
6, 169497, Note_off_c, 4, 51, 64
6, 169500, Note_on_c, 4, 48, 110
6, 169560, Note_on_c, 4, 53, 110
6, 169567, Note_off_c, 4, 48, 64
6, 169680, Note_on_c, 4, 51, 110
6, 169687, Note_off_c, 4, 53, 64
6, 169800, Note_on_c, 4, 53, 110
6, 169804, Note_off_c, 4, 51, 64
6, 169920, Note_on_c, 4, 46, 110
6, 169923, Note_off_c, 4, 53, 64
6, 170208, Note_off_c, 4, 46, 64
6, 171720, Note_on_c, 4, 51, 110
6, 172440, Note_on_c, 4, 48, 110
6, 172443, Note_off_c, 4, 51, 64
6, 172800, Note_on_c, 4, 53, 110
6, 172801, Note_off_c, 4, 48, 64
6, 173520, Note_on_c, 4, 51, 110
6, 173525, Note_off_c, 4, 53, 64
6, 173880, Note_on_c, 4, 56, 110
6, 173897, Note_off_c, 4, 51, 64
6, 174600, Note_off_c, 4, 56, 64
6, 174600, Note_on_c, 4, 55, 110
6, 174888, Note_off_c, 4, 55, 64
6, 174960, Note_on_c, 4, 60, 110
6, 175680, Note_on_c, 4, 58, 110
6, 175710, Note_off_c, 4, 60, 64
6, 175968, Note_off_c, 4, 58, 64
6, 180360, Note_on_c, 4, 44, 110
6, 181079, Note_off_c, 4, 44, 64
6, 181080, Note_on_c, 4, 43, 110
6, 181440, Note_on_c, 4, 48, 110
6, 181447, Note_off_c, 4, 43, 64
6, 182160, Note_on_c, 4, 46, 110
6, 182170, Note_off_c, 4, 48, 64
6, 182520, Note_on_c, 4, 51, 110
6, 182521, Note_off_c, 4, 46, 64
6, 183240, Note_on_c, 4, 50, 110
6, 183249, Note_off_c, 4, 51, 64
6, 183528, Note_off_c, 4, 50, 64
6, 183600, Note_on_c, 4, 51, 110
6, 183836, Note_off_c, 4, 51, 64
6, 183840, Note_on_c, 4, 53, 110
6, 183960, Note_on_c, 4, 55, 110
6, 183969, Note_off_c, 4, 53, 64
6, 184200, Note_on_c, 4, 56, 110
6, 184212, Note_off_c, 4, 55, 64
6, 184320, Note_on_c, 4, 58, 110
6, 184328, Note_off_c, 4, 56, 64
6, 184680, Note_on_c, 4, 46, 110
6, 184700, Note_off_c, 4, 58, 64
6, 184968, Note_off_c, 4, 46, 64
6, 185040, Note_on_c, 4, 39, 110
6, 185719, Note_off_c, 4, 39, 64
6, 185719, End_track
0, 0, End_of_file
