0, 0, Header, 1, 4, 240
1, 0, Start_track
1, 0, Time_signature, 1, 3, 12, 8
1, 0, Tempo, 1200000
1, 120, Time_signature, 12, 3, 12, 8
1, 15960, Time_signature, 11, 3, 12, 8
1, 17280, Time_signature, 1, 3, 12, 8
1, 17400, Time_signature, 12, 3, 12, 8
1, 33240, Time_signature, 11, 3, 12, 8
1, 34560, Time_signature, 1, 3, 12, 8
1, 34680, Time_signature, 12, 3, 12, 8
1, 57720, Time_signature, 1, 3, 12, 8
1, 57840, Time_signature, 12, 3, 12, 8
1, 57840, End_track
2, 0, Start_track
2, 0, Title_t, "Trio Sonata 5, Adagio"
2, 0, Program_c, 0, 19
2, 0, Control_c, 0, 7, 127
2, 0, Note_on_c, 0, 79, 100
2, 96, Note_off_c, 0, 79, 64
2, 120, Note_on_c, 0, 72, 100
2, 312, Note_off_c, 0, 72, 64
2, 360, Note_on_c, 0, 75, 100
2, 456, Note_off_c, 0, 75, 64
2, 480, Note_on_c, 0, 74, 100
2, 672, Note_off_c, 0, 74, 64
2, 720, Note_on_c, 0, 67, 100
2, 816, Note_off_c, 0, 67, 64
2, 840, Note_on_c, 0, 72, 100
2, 984, Note_off_c, 0, 72, 64
2, 1020, Note_on_c, 0, 71, 100
2, 1068, Note_off_c, 0, 71, 64
2, 1080, Note_on_c, 0, 72, 100
2, 1176, Note_off_c, 0, 72, 64
2, 1200, Note_on_c, 0, 60, 100
2, 1392, Note_off_c, 0, 60, 64
2, 1440, Note_on_c, 0, 72, 100
2, 1608, Note_off_c, 0, 72, 64
2, 1620, Note_on_c, 0, 75, 100
2, 1668, Note_off_c, 0, 75, 64
2, 1680, Note_on_c, 0, 74, 100
2, 1728, Note_off_c, 0, 74, 64
2, 1740, Note_on_c, 0, 77, 100
2, 1788, Note_off_c, 0, 77, 64
2, 1800, Note_on_c, 0, 80, 100
2, 1848, Note_off_c, 0, 80, 64
2, 1860, Note_on_c, 0, 72, 100
2, 1908, Note_off_c, 0, 72, 64
2, 1920, Note_on_c, 0, 71, 100
2, 1968, Note_off_c, 0, 71, 64
2, 1980, Note_on_c, 0, 74, 100
2, 2028, Note_off_c, 0, 74, 64
2, 2040, Note_on_c, 0, 68, 100
2, 2088, Note_off_c, 0, 68, 64
2, 2100, Note_on_c, 0, 67, 100
2, 2148, Note_off_c, 0, 67, 64
2, 2160, Note_on_c, 0, 77, 100
2, 2328, Note_off_c, 0, 77, 64
2, 2340, Note_on_c, 0, 74, 100
2, 2388, Note_off_c, 0, 74, 64
2, 2400, Note_on_c, 0, 75, 100
2, 2448, Note_off_c, 0, 75, 64
2, 2460, Note_on_c, 0, 79, 100
2, 2508, Note_off_c, 0, 79, 64
2, 2520, Note_on_c, 0, 84, 100
2, 2568, Note_off_c, 0, 84, 64
2, 2580, Note_on_c, 0, 79, 100
2, 2628, Note_off_c, 0, 79, 64
2, 2640, Note_on_c, 0, 78, 100
2, 2688, Note_off_c, 0, 78, 64
2, 2700, Note_on_c, 0, 81, 100
2, 2748, Note_off_c, 0, 81, 64
2, 2760, Note_on_c, 0, 75, 100
2, 2808, Note_off_c, 0, 75, 64
2, 2820, Note_on_c, 0, 74, 100
2, 2868, Note_off_c, 0, 74, 64
2, 2880, Note_on_c, 0, 84, 100
2, 3048, Note_off_c, 0, 84, 64
2, 3060, Note_on_c, 0, 81, 100
2, 3108, Note_off_c, 0, 81, 64
2, 3120, Note_on_c, 0, 82, 100
2, 3168, Note_off_c, 0, 82, 64
2, 3180, Note_on_c, 0, 79, 100
2, 3228, Note_off_c, 0, 79, 64
2, 3240, Note_on_c, 0, 75, 100
2, 3408, Note_off_c, 0, 75, 64
2, 3420, Note_on_c, 0, 72, 100
2, 3468, Note_off_c, 0, 72, 64
2, 3480, Note_on_c, 0, 74, 100
2, 3528, Note_off_c, 0, 74, 64
2, 3540, Note_on_c, 0, 77, 100
2, 3588, Note_off_c, 0, 77, 64
2, 3600, Note_on_c, 0, 82, 100
2, 3768, Note_off_c, 0, 82, 64
2, 3780, Note_on_c, 0, 79, 100
2, 3828, Note_off_c, 0, 79, 64
2, 3840, Note_on_c, 0, 72, 100
2, 3888, Note_off_c, 0, 72, 64
2, 3900, Note_on_c, 0, 75, 100
2, 3948, Note_off_c, 0, 75, 64
2, 3960, Note_on_c, 0, 74, 100
2, 4008, Note_off_c, 0, 74, 64
2, 4020, Note_on_c, 0, 72, 100
2, 4068, Note_off_c, 0, 72, 64
2, 4080, Note_on_c, 0, 74, 100
2, 4128, Note_off_c, 0, 74, 64
2, 4140, Note_on_c, 0, 70, 100
2, 4188, Note_off_c, 0, 70, 64
2, 4200, Note_on_c, 0, 67, 100
2, 4248, Note_off_c, 0, 67, 64
2, 4260, Note_on_c, 0, 70, 100
2, 4308, Note_off_c, 0, 70, 64
2, 4320, Note_on_c, 0, 74, 100
2, 4368, Note_off_c, 0, 74, 64
2, 4380, Note_on_c, 0, 75, 100
2, 4428, Note_off_c, 0, 75, 64
2, 4440, Note_on_c, 0, 69, 100
2, 4488, Note_off_c, 0, 69, 64
2, 4500, Note_on_c, 0, 67, 100
2, 4548, Note_off_c, 0, 67, 64
2, 4560, Note_on_c, 0, 66, 100
2, 4608, Note_off_c, 0, 66, 64
2, 4620, Note_on_c, 0, 69, 100
2, 4668, Note_off_c, 0, 69, 64
2, 4680, Note_on_c, 0, 72, 100
2, 4913, Note_off_c, 0, 72, 64
2, 4920, Note_on_c, 0, 79, 100
2, 5033, Note_off_c, 0, 79, 64
2, 5040, Note_on_c, 0, 78, 100
2, 5153, Note_off_c, 0, 78, 64
2, 5160, Note_on_c, 0, 79, 100
2, 5385, Note_off_c, 0, 79, 64
2, 5760, Note_on_c, 0, 79, 100
2, 5928, Note_off_c, 0, 79, 64
2, 5940, Note_on_c, 0, 67, 100
2, 5988, Note_off_c, 0, 67, 64
2, 6000, Note_on_c, 0, 72, 100
2, 6048, Note_off_c, 0, 72, 64
2, 6060, Note_on_c, 0, 75, 100
2, 6108, Note_off_c, 0, 75, 64
2, 6120, Note_on_c, 0, 77, 100
2, 6168, Note_off_c, 0, 77, 64
2, 6180, Note_on_c, 0, 74, 100
2, 6228, Note_off_c, 0, 74, 64
2, 6240, Note_on_c, 0, 72, 100
2, 6288, Note_off_c, 0, 72, 64
2, 6300, Note_on_c, 0, 70, 100
2, 6348, Note_off_c, 0, 70, 64
2, 6360, Note_on_c, 0, 74, 100
2, 6408, Note_off_c, 0, 74, 64
2, 6420, Note_on_c, 0, 77, 100
2, 6468, Note_off_c, 0, 77, 64
2, 6480, Note_on_c, 0, 80, 100
2, 6528, Note_off_c, 0, 80, 64
2, 6540, Note_on_c, 0, 77, 100
2, 6588, Note_off_c, 0, 77, 64
2, 6600, Note_on_c, 0, 79, 100
2, 6792, Note_off_c, 0, 79, 64
2, 7200, Note_on_c, 0, 75, 100
2, 7368, Note_off_c, 0, 75, 64
2, 7380, Note_on_c, 0, 63, 100
2, 7428, Note_off_c, 0, 63, 64
2, 7440, Note_on_c, 0, 65, 100
2, 7488, Note_off_c, 0, 65, 64
2, 7500, Note_on_c, 0, 71, 100
2, 7548, Note_off_c, 0, 71, 64
2, 7560, Note_on_c, 0, 74, 100
2, 7608, Note_off_c, 0, 74, 64
2, 7620, Note_on_c, 0, 71, 100
2, 7668, Note_off_c, 0, 71, 64
2, 7680, Note_on_c, 0, 68, 100
2, 7728, Note_off_c, 0, 68, 64
2, 7740, Note_on_c, 0, 67, 100
2, 7788, Note_off_c, 0, 67, 64
2, 7800, Note_on_c, 0, 71, 100
2, 7848, Note_off_c, 0, 71, 64
2, 7860, Note_on_c, 0, 74, 100
2, 7908, Note_off_c, 0, 74, 64
2, 7920, Note_on_c, 0, 77, 100
2, 7968, Note_off_c, 0, 77, 64
2, 7980, Note_on_c, 0, 74, 100
2, 8028, Note_off_c, 0, 74, 64
2, 8040, Note_on_c, 0, 75, 100
2, 8088, Note_off_c, 0, 75, 64
2, 8100, Note_on_c, 0, 70, 100
2, 8148, Note_off_c, 0, 70, 64
2, 8160, Note_on_c, 0, 72, 100
2, 8256, Note_off_c, 0, 72, 64
2, 8400, Note_on_c, 0, 71, 100
2, 8448, Note_off_c, 0, 71, 64
2, 8460, Note_on_c, 0, 74, 100
2, 8508, Note_off_c, 0, 74, 64
2, 8520, Note_on_c, 0, 65, 100
2, 8568, Note_off_c, 0, 65, 64
2, 8580, Note_on_c, 0, 71, 100
2, 8628, Note_off_c, 0, 71, 64
2, 8640, Note_on_c, 0, 74, 100
2, 8808, Note_off_c, 0, 74, 64
2, 8820, Note_on_c, 0, 62, 100
2, 8868, Note_off_c, 0, 62, 64
2, 8880, Note_on_c, 0, 63, 100
2, 8928, Note_off_c, 0, 63, 64
2, 8940, Note_on_c, 0, 67, 100
2, 8988, Note_off_c, 0, 67, 64
2, 9000, Note_on_c, 0, 68, 100
2, 9048, Note_off_c, 0, 68, 64
2, 9060, Note_on_c, 0, 65, 100
2, 9108, Note_off_c, 0, 65, 64
2, 9120, Note_on_c, 0, 67, 100
2, 9168, Note_off_c, 0, 67, 64
2, 9180, Note_on_c, 0, 71, 100
2, 9228, Note_off_c, 0, 71, 64
2, 9240, Note_on_c, 0, 72, 100
2, 9288, Note_off_c, 0, 72, 64
2, 9300, Note_on_c, 0, 75, 100
2, 9348, Note_off_c, 0, 75, 64
2, 9360, Note_on_c, 0, 77, 100
2, 9528, Note_off_c, 0, 77, 64
2, 9540, Note_on_c, 0, 65, 100
2, 9588, Note_off_c, 0, 65, 64
2, 9600, Note_on_c, 0, 67, 100
2, 9648, Note_off_c, 0, 67, 64
2, 9660, Note_on_c, 0, 70, 100
2, 9708, Note_off_c, 0, 70, 64
2, 9720, Note_on_c, 0, 75, 100
2, 9768, Note_off_c, 0, 75, 64
2, 9780, Note_on_c, 0, 72, 100
2, 9828, Note_off_c, 0, 72, 64
2, 9840, Note_on_c, 0, 70, 100
2, 9888, Note_off_c, 0, 70, 64
2, 9900, Note_on_c, 0, 68, 100
2, 9948, Note_off_c, 0, 68, 64
2, 9960, Note_on_c, 0, 74, 100
2, 10008, Note_off_c, 0, 74, 64
2, 10020, Note_on_c, 0, 77, 100
2, 10068, Note_off_c, 0, 77, 64
2, 10080, Note_on_c, 0, 80, 100
2, 10128, Note_off_c, 0, 80, 64
2, 10140, Note_on_c, 0, 77, 100
2, 10188, Note_off_c, 0, 77, 64
2, 10200, Note_on_c, 0, 79, 100
2, 10248, Note_off_c, 0, 79, 64
2, 10260, Note_on_c, 0, 80, 100
2, 10308, Note_off_c, 0, 80, 64
2, 10320, Note_on_c, 0, 82, 100
2, 10416, Note_off_c, 0, 82, 64
2, 10440, Note_on_c, 0, 80, 100
2, 10536, Note_off_c, 0, 80, 64
2, 10560, Note_on_c, 0, 79, 100
2, 10656, Note_off_c, 0, 79, 64
2, 10680, Note_on_c, 0, 84, 100
2, 10824, Note_off_c, 0, 84, 64
2, 10860, Note_on_c, 0, 82, 100
2, 10908, Note_off_c, 0, 82, 64
2, 10920, Note_on_c, 0, 80, 100
2, 10968, Note_off_c, 0, 80, 64
2, 10980, Note_on_c, 0, 76, 100
2, 11028, Note_off_c, 0, 76, 64
2, 11040, Note_on_c, 0, 77, 100
2, 11136, Note_off_c, 0, 77, 64
2, 11280, Note_on_c, 0, 76, 100
2, 11328, Note_off_c, 0, 76, 64
2, 11340, Note_on_c, 0, 79, 100
2, 11388, Note_off_c, 0, 79, 64
2, 11400, Note_on_c, 0, 70, 100
2, 11448, Note_off_c, 0, 70, 64
2, 11460, Note_on_c, 0, 76, 100
2, 11508, Note_off_c, 0, 76, 64
2, 11520, Note_on_c, 0, 79, 100
2, 11688, Note_off_c, 0, 79, 64
2, 11700, Note_on_c, 0, 67, 100
2, 11748, Note_off_c, 0, 67, 64
2, 11760, Note_on_c, 0, 68, 100
2, 11808, Note_off_c, 0, 68, 64
2, 11820, Note_on_c, 0, 72, 100
2, 11868, Note_off_c, 0, 72, 64
2, 11880, Note_on_c, 0, 73, 100
2, 11928, Note_off_c, 0, 73, 64
2, 11940, Note_on_c, 0, 70, 100
2, 11988, Note_off_c, 0, 70, 64
2, 12000, Note_on_c, 0, 72, 100
2, 12048, Note_off_c, 0, 72, 64
2, 12060, Note_on_c, 0, 76, 100
2, 12108, Note_off_c, 0, 76, 64
2, 12120, Note_on_c, 0, 77, 100
2, 12168, Note_off_c, 0, 77, 64
2, 12180, Note_on_c, 0, 80, 100
2, 12228, Note_off_c, 0, 80, 64
2, 12240, Note_on_c, 0, 79, 100
2, 12288, Note_off_c, 0, 79, 64
2, 12300, Note_on_c, 0, 77, 100
2, 12348, Note_off_c, 0, 77, 64
2, 12360, Note_on_c, 0, 75, 100
2, 12408, Note_off_c, 0, 75, 64
2, 12420, Note_on_c, 0, 74, 100
2, 12468, Note_off_c, 0, 74, 64
2, 12480, Note_on_c, 0, 75, 100
2, 12528, Note_off_c, 0, 75, 64
2, 12540, Note_on_c, 0, 79, 100
2, 12588, Note_off_c, 0, 79, 64
2, 12600, Note_on_c, 0, 84, 100
2, 12648, Note_off_c, 0, 84, 64
2, 12660, Note_on_c, 0, 79, 100
2, 12708, Note_off_c, 0, 79, 64
2, 12720, Note_on_c, 0, 77, 100
2, 12768, Note_off_c, 0, 77, 64
2, 12780, Note_on_c, 0, 75, 100
2, 12828, Note_off_c, 0, 75, 64
2, 12840, Note_on_c, 0, 74, 100
2, 12888, Note_off_c, 0, 74, 64
2, 12900, Note_on_c, 0, 72, 100
2, 12948, Note_off_c, 0, 72, 64
2, 12960, Note_on_c, 0, 71, 100
2, 13008, Note_off_c, 0, 71, 64
2, 13020, Note_on_c, 0, 72, 100
2, 13068, Note_off_c, 0, 72, 64
2, 13080, Note_on_c, 0, 71, 100
2, 13272, Note_off_c, 0, 71, 64
2, 13680, Note_on_c, 0, 74, 100
2, 13848, Note_off_c, 0, 74, 64
2, 13860, Note_on_c, 0, 71, 100
2, 13908, Note_off_c, 0, 71, 64
2, 13920, Note_on_c, 0, 72, 100
2, 13968, Note_off_c, 0, 72, 64
2, 13980, Note_on_c, 0, 75, 100
2, 14028, Note_off_c, 0, 75, 64
2, 14040, Note_on_c, 0, 81, 100
2, 14208, Note_off_c, 0, 81, 64
2, 14220, Note_on_c, 0, 84, 100
2, 14268, Note_off_c, 0, 84, 64
2, 14280, Note_on_c, 0, 82, 100
2, 14328, Note_off_c, 0, 82, 64
2, 14340, Note_on_c, 0, 81, 100
2, 14388, Note_off_c, 0, 81, 64
2, 14400, Note_on_c, 0, 82, 100
2, 14448, Note_off_c, 0, 82, 64
2, 14460, Note_on_c, 0, 79, 100
2, 14508, Note_off_c, 0, 79, 64
2, 14520, Note_on_c, 0, 78, 100
2, 14568, Note_off_c, 0, 78, 64
2, 14580, Note_on_c, 0, 82, 100
2, 14628, Note_off_c, 0, 82, 64
2, 14640, Note_on_c, 0, 81, 100
2, 14736, Note_off_c, 0, 81, 64
2, 14880, Note_on_c, 0, 75, 100
2, 14928, Note_off_c, 0, 75, 64
2, 14940, Note_on_c, 0, 74, 100
2, 14988, Note_off_c, 0, 74, 64
2, 15000, Note_on_c, 0, 78, 100
2, 15113, Note_off_c, 0, 78, 64
2, 15240, Note_on_c, 0, 79, 100
2, 15288, Note_off_c, 0, 79, 64
2, 15300, Note_on_c, 0, 74, 100
2, 15348, Note_off_c, 0, 74, 64
2, 15360, Note_on_c, 0, 72, 100
2, 15408, Note_off_c, 0, 72, 64
2, 15420, Note_on_c, 0, 70, 100
2, 15468, Note_off_c, 0, 70, 64
2, 15480, Note_on_c, 0, 72, 100
2, 15528, Note_off_c, 0, 72, 64
2, 15540, Note_on_c, 0, 75, 100
2, 15588, Note_off_c, 0, 75, 64
2, 15600, Note_on_c, 0, 70, 100
2, 15648, Note_off_c, 0, 70, 64
2, 15660, Note_on_c, 0, 69, 100
2, 15708, Note_off_c, 0, 69, 64
2, 15720, Note_on_c, 0, 72, 100
2, 15768, Note_off_c, 0, 72, 64
2, 15780, Note_on_c, 0, 70, 100
2, 15828, Note_off_c, 0, 70, 64
2, 15840, Note_on_c, 0, 69, 100
2, 15888, Note_off_c, 0, 69, 64
2, 15900, Note_on_c, 0, 70, 100
2, 15948, Note_off_c, 0, 70, 64
2, 15960, Note_on_c, 0, 67, 100
2, 16008, Note_off_c, 0, 67, 64
2, 16020, Note_on_c, 0, 70, 100
2, 16068, Note_off_c, 0, 70, 64
2, 16080, Note_on_c, 0, 69, 100
2, 16128, Note_off_c, 0, 69, 64
2, 16140, Note_on_c, 0, 67, 100
2, 16188, Note_off_c, 0, 67, 64
2, 16200, Note_on_c, 0, 69, 100
2, 16248, Note_off_c, 0, 69, 64
2, 16260, Note_on_c, 0, 66, 100
2, 16308, Note_off_c, 0, 66, 64
2, 16320, Note_on_c, 0, 62, 100
2, 16416, Note_off_c, 0, 62, 64
2, 16440, Note_on_c, 0, 67, 100
2, 16536, Note_off_c, 0, 67, 64
2, 16560, Note_on_c, 0, 66, 100
2, 16656, Note_off_c, 0, 66, 64
2, 16680, Note_on_c, 0, 67, 100
2, 17232, Note_off_c, 0, 67, 64
2, 17280, Note_on_c, 0, 79, 100
2, 17376, Note_off_c, 0, 79, 64
2, 17400, Note_on_c, 0, 72, 100
2, 17592, Note_off_c, 0, 72, 64
2, 17640, Note_on_c, 0, 75, 100
2, 17736, Note_off_c, 0, 75, 64
2, 17760, Note_on_c, 0, 74, 100
2, 17952, Note_off_c, 0, 74, 64
2, 18000, Note_on_c, 0, 67, 100
2, 18096, Note_off_c, 0, 67, 64
2, 18120, Note_on_c, 0, 72, 100
2, 18264, Note_off_c, 0, 72, 64
2, 18300, Note_on_c, 0, 71, 100
2, 18348, Note_off_c, 0, 71, 64
2, 18360, Note_on_c, 0, 72, 100
2, 18456, Note_off_c, 0, 72, 64
2, 18480, Note_on_c, 0, 60, 100
2, 18672, Note_off_c, 0, 60, 64
2, 18720, Note_on_c, 0, 72, 100
2, 18888, Note_off_c, 0, 72, 64
2, 18900, Note_on_c, 0, 75, 100
2, 18948, Note_off_c, 0, 75, 64
2, 18960, Note_on_c, 0, 74, 100
2, 19008, Note_off_c, 0, 74, 64
2, 19020, Note_on_c, 0, 77, 100
2, 19068, Note_off_c, 0, 77, 64
2, 19080, Note_on_c, 0, 80, 100
2, 19128, Note_off_c, 0, 80, 64
2, 19140, Note_on_c, 0, 72, 100
2, 19188, Note_off_c, 0, 72, 64
2, 19200, Note_on_c, 0, 71, 100
2, 19248, Note_off_c, 0, 71, 64
2, 19260, Note_on_c, 0, 74, 100
2, 19308, Note_off_c, 0, 74, 64
2, 19320, Note_on_c, 0, 68, 100
2, 19368, Note_off_c, 0, 68, 64
2, 19380, Note_on_c, 0, 67, 100
2, 19428, Note_off_c, 0, 67, 64
2, 19440, Note_on_c, 0, 77, 100
2, 19608, Note_off_c, 0, 77, 64
2, 19620, Note_on_c, 0, 74, 100
2, 19668, Note_off_c, 0, 74, 64
2, 19680, Note_on_c, 0, 75, 100
2, 19728, Note_off_c, 0, 75, 64
2, 19740, Note_on_c, 0, 79, 100
2, 19788, Note_off_c, 0, 79, 64
2, 19800, Note_on_c, 0, 84, 100
2, 19848, Note_off_c, 0, 84, 64
2, 19860, Note_on_c, 0, 79, 100
2, 19908, Note_off_c, 0, 79, 64
2, 19920, Note_on_c, 0, 78, 100
2, 19968, Note_off_c, 0, 78, 64
2, 19980, Note_on_c, 0, 81, 100
2, 20028, Note_off_c, 0, 81, 64
2, 20040, Note_on_c, 0, 75, 100
2, 20088, Note_off_c, 0, 75, 64
2, 20100, Note_on_c, 0, 74, 100
2, 20148, Note_off_c, 0, 74, 64
2, 20160, Note_on_c, 0, 84, 100
2, 20328, Note_off_c, 0, 84, 64
2, 20340, Note_on_c, 0, 81, 100
2, 20388, Note_off_c, 0, 81, 64
2, 20400, Note_on_c, 0, 82, 100
2, 20448, Note_off_c, 0, 82, 64
2, 20460, Note_on_c, 0, 79, 100
2, 20508, Note_off_c, 0, 79, 64
2, 20520, Note_on_c, 0, 75, 100
2, 20688, Note_off_c, 0, 75, 64
2, 20700, Note_on_c, 0, 72, 100
2, 20748, Note_off_c, 0, 72, 64
2, 20760, Note_on_c, 0, 74, 100
2, 20808, Note_off_c, 0, 74, 64
2, 20820, Note_on_c, 0, 77, 100
2, 20868, Note_off_c, 0, 77, 64
2, 20880, Note_on_c, 0, 82, 100
2, 21048, Note_off_c, 0, 82, 64
2, 21060, Note_on_c, 0, 79, 100
2, 21108, Note_off_c, 0, 79, 64
2, 21120, Note_on_c, 0, 72, 100
2, 21168, Note_off_c, 0, 72, 64
2, 21180, Note_on_c, 0, 75, 100
2, 21228, Note_off_c, 0, 75, 64
2, 21240, Note_on_c, 0, 74, 100
2, 21288, Note_off_c, 0, 74, 64
2, 21300, Note_on_c, 0, 72, 100
2, 21348, Note_off_c, 0, 72, 64
2, 21360, Note_on_c, 0, 74, 100
2, 21408, Note_off_c, 0, 74, 64
2, 21420, Note_on_c, 0, 70, 100
2, 21468, Note_off_c, 0, 70, 64
2, 21480, Note_on_c, 0, 67, 100
2, 21528, Note_off_c, 0, 67, 64
2, 21540, Note_on_c, 0, 70, 100
2, 21588, Note_off_c, 0, 70, 64
2, 21600, Note_on_c, 0, 74, 100
2, 21648, Note_off_c, 0, 74, 64
2, 21660, Note_on_c, 0, 75, 100
2, 21708, Note_off_c, 0, 75, 64
2, 21720, Note_on_c, 0, 69, 100
2, 21768, Note_off_c, 0, 69, 64
2, 21780, Note_on_c, 0, 67, 100
2, 21828, Note_off_c, 0, 67, 64
2, 21840, Note_on_c, 0, 66, 100
2, 21888, Note_off_c, 0, 66, 64
2, 21900, Note_on_c, 0, 69, 100
2, 21948, Note_off_c, 0, 69, 64
2, 21960, Note_on_c, 0, 72, 100
2, 22193, Note_off_c, 0, 72, 64
2, 22200, Note_on_c, 0, 79, 100
2, 22313, Note_off_c, 0, 79, 64
2, 22320, Note_on_c, 0, 78, 100
2, 22433, Note_off_c, 0, 78, 64
2, 22440, Note_on_c, 0, 79, 100
2, 22665, Note_off_c, 0, 79, 64
2, 23040, Note_on_c, 0, 79, 100
2, 23208, Note_off_c, 0, 79, 64
2, 23220, Note_on_c, 0, 67, 100
2, 23268, Note_off_c, 0, 67, 64
2, 23280, Note_on_c, 0, 72, 100
2, 23328, Note_off_c, 0, 72, 64
2, 23340, Note_on_c, 0, 75, 100
2, 23388, Note_off_c, 0, 75, 64
2, 23400, Note_on_c, 0, 77, 100
2, 23448, Note_off_c, 0, 77, 64
2, 23460, Note_on_c, 0, 74, 100
2, 23508, Note_off_c, 0, 74, 64
2, 23520, Note_on_c, 0, 72, 100
2, 23568, Note_off_c, 0, 72, 64
2, 23580, Note_on_c, 0, 70, 100
2, 23628, Note_off_c, 0, 70, 64
2, 23640, Note_on_c, 0, 74, 100
2, 23688, Note_off_c, 0, 74, 64
2, 23700, Note_on_c, 0, 77, 100
2, 23748, Note_off_c, 0, 77, 64
2, 23760, Note_on_c, 0, 80, 100
2, 23808, Note_off_c, 0, 80, 64
2, 23820, Note_on_c, 0, 77, 100
2, 23868, Note_off_c, 0, 77, 64
2, 23880, Note_on_c, 0, 79, 100
2, 24072, Note_off_c, 0, 79, 64
2, 24480, Note_on_c, 0, 75, 100
2, 24648, Note_off_c, 0, 75, 64
2, 24660, Note_on_c, 0, 63, 100
2, 24708, Note_off_c, 0, 63, 64
2, 24720, Note_on_c, 0, 65, 100
2, 24768, Note_off_c, 0, 65, 64
2, 24780, Note_on_c, 0, 71, 100
2, 24828, Note_off_c, 0, 71, 64
2, 24840, Note_on_c, 0, 74, 100
2, 24888, Note_off_c, 0, 74, 64
2, 24900, Note_on_c, 0, 71, 100
2, 24948, Note_off_c, 0, 71, 64
2, 24960, Note_on_c, 0, 68, 100
2, 25008, Note_off_c, 0, 68, 64
2, 25020, Note_on_c, 0, 67, 100
2, 25068, Note_off_c, 0, 67, 64
2, 25080, Note_on_c, 0, 71, 100
2, 25128, Note_off_c, 0, 71, 64
2, 25140, Note_on_c, 0, 74, 100
2, 25188, Note_off_c, 0, 74, 64
2, 25200, Note_on_c, 0, 77, 100
2, 25248, Note_off_c, 0, 77, 64
2, 25260, Note_on_c, 0, 74, 100
2, 25308, Note_off_c, 0, 74, 64
2, 25320, Note_on_c, 0, 75, 100
2, 25368, Note_off_c, 0, 75, 64
2, 25380, Note_on_c, 0, 70, 100
2, 25428, Note_off_c, 0, 70, 64
2, 25440, Note_on_c, 0, 72, 100
2, 25536, Note_off_c, 0, 72, 64
2, 25680, Note_on_c, 0, 71, 100
2, 25728, Note_off_c, 0, 71, 64
2, 25740, Note_on_c, 0, 74, 100
2, 25788, Note_off_c, 0, 74, 64
2, 25800, Note_on_c, 0, 65, 100
2, 25848, Note_off_c, 0, 65, 64
2, 25860, Note_on_c, 0, 71, 100
2, 25908, Note_off_c, 0, 71, 64
2, 25920, Note_on_c, 0, 74, 100
2, 26088, Note_off_c, 0, 74, 64
2, 26100, Note_on_c, 0, 62, 100
2, 26148, Note_off_c, 0, 62, 64
2, 26160, Note_on_c, 0, 63, 100
2, 26208, Note_off_c, 0, 63, 64
2, 26220, Note_on_c, 0, 67, 100
2, 26268, Note_off_c, 0, 67, 64
2, 26280, Note_on_c, 0, 68, 100
2, 26328, Note_off_c, 0, 68, 64
2, 26340, Note_on_c, 0, 65, 100
2, 26388, Note_off_c, 0, 65, 64
2, 26400, Note_on_c, 0, 67, 100
2, 26448, Note_off_c, 0, 67, 64
2, 26460, Note_on_c, 0, 71, 100
2, 26508, Note_off_c, 0, 71, 64
2, 26520, Note_on_c, 0, 72, 100
2, 26568, Note_off_c, 0, 72, 64
2, 26580, Note_on_c, 0, 75, 100
2, 26628, Note_off_c, 0, 75, 64
2, 26640, Note_on_c, 0, 77, 100
2, 26808, Note_off_c, 0, 77, 64
2, 26820, Note_on_c, 0, 65, 100
2, 26868, Note_off_c, 0, 65, 64
2, 26880, Note_on_c, 0, 67, 100
2, 26928, Note_off_c, 0, 67, 64
2, 26940, Note_on_c, 0, 70, 100
2, 26988, Note_off_c, 0, 70, 64
2, 27000, Note_on_c, 0, 75, 100
2, 27048, Note_off_c, 0, 75, 64
2, 27060, Note_on_c, 0, 72, 100
2, 27108, Note_off_c, 0, 72, 64
2, 27120, Note_on_c, 0, 70, 100
2, 27168, Note_off_c, 0, 70, 64
2, 27180, Note_on_c, 0, 68, 100
2, 27228, Note_off_c, 0, 68, 64
2, 27240, Note_on_c, 0, 74, 100
2, 27288, Note_off_c, 0, 74, 64
2, 27300, Note_on_c, 0, 77, 100
2, 27348, Note_off_c, 0, 77, 64
2, 27360, Note_on_c, 0, 80, 100
2, 27408, Note_off_c, 0, 80, 64
2, 27420, Note_on_c, 0, 77, 100
2, 27468, Note_off_c, 0, 77, 64
2, 27480, Note_on_c, 0, 79, 100
2, 27528, Note_off_c, 0, 79, 64
2, 27540, Note_on_c, 0, 80, 100
2, 27588, Note_off_c, 0, 80, 64
2, 27600, Note_on_c, 0, 82, 100
2, 27696, Note_off_c, 0, 82, 64
2, 27720, Note_on_c, 0, 80, 100
2, 27816, Note_off_c, 0, 80, 64
2, 27840, Note_on_c, 0, 79, 100
2, 27936, Note_off_c, 0, 79, 64
2, 27960, Note_on_c, 0, 84, 100
2, 28104, Note_off_c, 0, 84, 64
2, 28140, Note_on_c, 0, 82, 100
2, 28188, Note_off_c, 0, 82, 64
2, 28200, Note_on_c, 0, 80, 100
2, 28248, Note_off_c, 0, 80, 64
2, 28260, Note_on_c, 0, 76, 100
2, 28308, Note_off_c, 0, 76, 64
2, 28320, Note_on_c, 0, 77, 100
2, 28416, Note_off_c, 0, 77, 64
2, 28560, Note_on_c, 0, 76, 100
2, 28608, Note_off_c, 0, 76, 64
2, 28620, Note_on_c, 0, 79, 100
2, 28668, Note_off_c, 0, 79, 64
2, 28680, Note_on_c, 0, 70, 100
2, 28728, Note_off_c, 0, 70, 64
2, 28740, Note_on_c, 0, 76, 100
2, 28788, Note_off_c, 0, 76, 64
2, 28800, Note_on_c, 0, 79, 100
2, 28968, Note_off_c, 0, 79, 64
2, 28980, Note_on_c, 0, 67, 100
2, 29028, Note_off_c, 0, 67, 64
2, 29040, Note_on_c, 0, 68, 100
2, 29088, Note_off_c, 0, 68, 64
2, 29100, Note_on_c, 0, 72, 100
2, 29148, Note_off_c, 0, 72, 64
2, 29160, Note_on_c, 0, 73, 100
2, 29208, Note_off_c, 0, 73, 64
2, 29220, Note_on_c, 0, 70, 100
2, 29268, Note_off_c, 0, 70, 64
2, 29280, Note_on_c, 0, 72, 100
2, 29328, Note_off_c, 0, 72, 64
2, 29340, Note_on_c, 0, 76, 100
2, 29388, Note_off_c, 0, 76, 64
2, 29400, Note_on_c, 0, 77, 100
2, 29448, Note_off_c, 0, 77, 64
2, 29460, Note_on_c, 0, 80, 100
2, 29508, Note_off_c, 0, 80, 64
2, 29520, Note_on_c, 0, 79, 100
2, 29568, Note_off_c, 0, 79, 64
2, 29580, Note_on_c, 0, 77, 100
2, 29628, Note_off_c, 0, 77, 64
2, 29640, Note_on_c, 0, 75, 100
2, 29688, Note_off_c, 0, 75, 64
2, 29700, Note_on_c, 0, 74, 100
2, 29748, Note_off_c, 0, 74, 64
2, 29760, Note_on_c, 0, 75, 100
2, 29808, Note_off_c, 0, 75, 64
2, 29820, Note_on_c, 0, 79, 100
2, 29868, Note_off_c, 0, 79, 64
2, 29880, Note_on_c, 0, 84, 100
2, 29928, Note_off_c, 0, 84, 64
2, 29940, Note_on_c, 0, 79, 100
2, 29988, Note_off_c, 0, 79, 64
2, 30000, Note_on_c, 0, 77, 100
2, 30048, Note_off_c, 0, 77, 64
2, 30060, Note_on_c, 0, 75, 100
2, 30108, Note_off_c, 0, 75, 64
2, 30120, Note_on_c, 0, 74, 100
2, 30168, Note_off_c, 0, 74, 64
2, 30180, Note_on_c, 0, 72, 100
2, 30228, Note_off_c, 0, 72, 64
2, 30240, Note_on_c, 0, 71, 100
2, 30288, Note_off_c, 0, 71, 64
2, 30300, Note_on_c, 0, 72, 100
2, 30348, Note_off_c, 0, 72, 64
2, 30360, Note_on_c, 0, 71, 100
2, 30552, Note_off_c, 0, 71, 64
2, 30960, Note_on_c, 0, 74, 100
2, 31128, Note_off_c, 0, 74, 64
2, 31140, Note_on_c, 0, 71, 100
2, 31188, Note_off_c, 0, 71, 64
2, 31200, Note_on_c, 0, 72, 100
2, 31248, Note_off_c, 0, 72, 64
2, 31260, Note_on_c, 0, 75, 100
2, 31308, Note_off_c, 0, 75, 64
2, 31320, Note_on_c, 0, 81, 100
2, 31488, Note_off_c, 0, 81, 64
2, 31500, Note_on_c, 0, 84, 100
2, 31548, Note_off_c, 0, 84, 64
2, 31560, Note_on_c, 0, 82, 100
2, 31608, Note_off_c, 0, 82, 64
2, 31620, Note_on_c, 0, 81, 100
2, 31668, Note_off_c, 0, 81, 64
2, 31680, Note_on_c, 0, 82, 100
2, 31728, Note_off_c, 0, 82, 64
2, 31740, Note_on_c, 0, 79, 100
2, 31788, Note_off_c, 0, 79, 64
2, 31800, Note_on_c, 0, 78, 100
2, 31848, Note_off_c, 0, 78, 64
2, 31860, Note_on_c, 0, 82, 100
2, 31908, Note_off_c, 0, 82, 64
2, 31920, Note_on_c, 0, 81, 100
2, 32016, Note_off_c, 0, 81, 64
2, 32160, Note_on_c, 0, 75, 100
2, 32208, Note_off_c, 0, 75, 64
2, 32220, Note_on_c, 0, 74, 100
2, 32268, Note_off_c, 0, 74, 64
2, 32280, Note_on_c, 0, 78, 100
2, 32393, Note_off_c, 0, 78, 64
2, 32520, Note_on_c, 0, 79, 100
2, 32568, Note_off_c, 0, 79, 64
2, 32580, Note_on_c, 0, 74, 100
2, 32628, Note_off_c, 0, 74, 64
2, 32640, Note_on_c, 0, 72, 100
2, 32688, Note_off_c, 0, 72, 64
2, 32700, Note_on_c, 0, 70, 100
2, 32748, Note_off_c, 0, 70, 64
2, 32760, Note_on_c, 0, 72, 100
2, 32808, Note_off_c, 0, 72, 64
2, 32820, Note_on_c, 0, 75, 100
2, 32868, Note_off_c, 0, 75, 64
2, 32880, Note_on_c, 0, 70, 100
2, 32928, Note_off_c, 0, 70, 64
2, 32940, Note_on_c, 0, 69, 100
2, 32988, Note_off_c, 0, 69, 64
2, 33000, Note_on_c, 0, 72, 100
2, 33048, Note_off_c, 0, 72, 64
2, 33060, Note_on_c, 0, 70, 100
2, 33108, Note_off_c, 0, 70, 64
2, 33120, Note_on_c, 0, 69, 100
2, 33168, Note_off_c, 0, 69, 64
2, 33180, Note_on_c, 0, 70, 100
2, 33228, Note_off_c, 0, 70, 64
2, 33240, Note_on_c, 0, 67, 100
2, 33288, Note_off_c, 0, 67, 64
2, 33300, Note_on_c, 0, 70, 100
2, 33348, Note_off_c, 0, 70, 64
2, 33360, Note_on_c, 0, 69, 100
2, 33408, Note_off_c, 0, 69, 64
2, 33420, Note_on_c, 0, 67, 100
2, 33468, Note_off_c, 0, 67, 64
2, 33480, Note_on_c, 0, 69, 100
2, 33528, Note_off_c, 0, 69, 64
2, 33540, Note_on_c, 0, 66, 100
2, 33588, Note_off_c, 0, 66, 64
2, 33600, Note_on_c, 0, 62, 100
2, 33696, Note_off_c, 0, 62, 64
2, 33720, Note_on_c, 0, 67, 100
2, 33816, Note_off_c, 0, 67, 64
2, 33840, Note_on_c, 0, 66, 100
2, 33936, Note_off_c, 0, 66, 64
2, 33960, Note_on_c, 0, 67, 100
2, 34512, Note_off_c, 0, 67, 64
2, 36000, Note_on_c, 0, 67, 100
2, 36096, Note_off_c, 0, 67, 64
2, 36120, Note_on_c, 0, 72, 100
2, 36312, Note_off_c, 0, 72, 64
2, 36360, Note_on_c, 0, 68, 100
2, 36456, Note_off_c, 0, 68, 64
2, 36480, Note_on_c, 0, 70, 100
2, 36672, Note_off_c, 0, 70, 64
2, 36720, Note_on_c, 0, 75, 100
2, 36816, Note_off_c, 0, 75, 64
2, 36840, Note_on_c, 0, 68, 100
2, 36984, Note_off_c, 0, 68, 64
2, 37020, Note_on_c, 0, 70, 100
2, 37068, Note_off_c, 0, 70, 64
2, 37080, Note_on_c, 0, 68, 100
2, 37176, Note_off_c, 0, 68, 64
2, 37200, Note_on_c, 0, 80, 100
2, 37248, Note_off_c, 0, 80, 64
2, 37260, Note_on_c, 0, 75, 100
2, 37308, Note_off_c, 0, 75, 64
2, 37320, Note_on_c, 0, 73, 100
2, 37368, Note_off_c, 0, 73, 64
2, 37380, Note_on_c, 0, 72, 100
2, 37428, Note_off_c, 0, 72, 64
2, 37440, Note_on_c, 0, 78, 100
2, 37536, Note_off_c, 0, 78, 64
2, 37620, Note_on_c, 0, 77, 100
2, 37668, Note_off_c, 0, 77, 64
2, 37680, Note_on_c, 0, 75, 100
2, 37728, Note_off_c, 0, 75, 64
2, 37740, Note_on_c, 0, 73, 100
2, 37788, Note_off_c, 0, 73, 64
2, 37800, Note_on_c, 0, 80, 100
2, 37848, Note_off_c, 0, 80, 64
2, 37860, Note_on_c, 0, 79, 100
2, 37908, Note_off_c, 0, 79, 64
2, 37920, Note_on_c, 0, 80, 100
2, 38328, Note_off_c, 0, 80, 64
2, 38340, Note_on_c, 0, 79, 100
2, 38388, Note_off_c, 0, 79, 64
2, 38400, Note_on_c, 0, 77, 100
2, 38448, Note_off_c, 0, 77, 64
2, 38460, Note_on_c, 0, 75, 100
2, 38508, Note_off_c, 0, 75, 64
2, 38520, Note_on_c, 0, 82, 100
2, 38568, Note_off_c, 0, 82, 64
2, 38580, Note_on_c, 0, 81, 100
2, 38628, Note_off_c, 0, 81, 64
2, 38640, Note_on_c, 0, 82, 100
2, 39048, Note_off_c, 0, 82, 64
2, 39060, Note_on_c, 0, 80, 100
2, 39108, Note_off_c, 0, 80, 64
2, 39120, Note_on_c, 0, 79, 100
2, 39168, Note_off_c, 0, 79, 64
2, 39180, Note_on_c, 0, 77, 100
2, 39228, Note_off_c, 0, 77, 64
2, 39240, Note_on_c, 0, 80, 100
2, 39288, Note_off_c, 0, 80, 64
2, 39300, Note_on_c, 0, 77, 100
2, 39348, Note_off_c, 0, 77, 64
2, 39360, Note_on_c, 0, 80, 100
2, 39408, Note_off_c, 0, 80, 64
2, 39420, Note_on_c, 0, 78, 100
2, 39468, Note_off_c, 0, 78, 64
2, 39480, Note_on_c, 0, 77, 100
2, 39528, Note_off_c, 0, 77, 64
2, 39540, Note_on_c, 0, 75, 100
2, 39588, Note_off_c, 0, 75, 64
2, 39600, Note_on_c, 0, 78, 100
2, 39648, Note_off_c, 0, 78, 64
2, 39660, Note_on_c, 0, 75, 100
2, 39708, Note_off_c, 0, 75, 64
2, 39720, Note_on_c, 0, 77, 100
2, 39768, Note_off_c, 0, 77, 64
2, 39780, Note_on_c, 0, 75, 100
2, 39828, Note_off_c, 0, 75, 64
2, 39840, Note_on_c, 0, 73, 100
2, 39888, Note_off_c, 0, 73, 64
2, 39900, Note_on_c, 0, 72, 100
2, 39948, Note_off_c, 0, 72, 64
2, 39960, Note_on_c, 0, 70, 100
2, 40008, Note_off_c, 0, 70, 64
2, 40020, Note_on_c, 0, 69, 100
2, 40068, Note_off_c, 0, 69, 64
2, 40080, Note_on_c, 0, 70, 100
2, 40488, Note_off_c, 0, 70, 64
2, 40500, Note_on_c, 0, 68, 100
2, 40548, Note_off_c, 0, 68, 64
2, 40560, Note_on_c, 0, 67, 100
2, 40608, Note_off_c, 0, 67, 64
2, 40620, Note_on_c, 0, 65, 100
2, 40668, Note_off_c, 0, 65, 64
2, 40680, Note_on_c, 0, 64, 100
2, 40728, Note_off_c, 0, 64, 64
2, 40740, Note_on_c, 0, 67, 100
2, 40788, Note_off_c, 0, 67, 64
2, 40800, Note_on_c, 0, 60, 100
2, 40992, Note_off_c, 0, 60, 64
2, 41220, Note_on_c, 0, 67, 100
2, 41268, Note_off_c, 0, 67, 64
2, 41280, Note_on_c, 0, 68, 100
2, 41328, Note_off_c, 0, 68, 64
2, 41340, Note_on_c, 0, 72, 100
2, 41388, Note_off_c, 0, 72, 64
2, 41400, Note_on_c, 0, 77, 100
2, 41448, Note_off_c, 0, 77, 64
2, 41460, Note_on_c, 0, 73, 100
2, 41508, Note_off_c, 0, 73, 64
2, 41520, Note_on_c, 0, 72, 100
2, 41568, Note_off_c, 0, 72, 64
2, 41580, Note_on_c, 0, 70, 100
2, 41628, Note_off_c, 0, 70, 64
2, 41640, Note_on_c, 0, 76, 100
2, 41688, Note_off_c, 0, 76, 64
2, 41700, Note_on_c, 0, 79, 100
2, 41748, Note_off_c, 0, 79, 64
2, 41760, Note_on_c, 0, 82, 100
2, 41808, Note_off_c, 0, 82, 64
2, 41820, Note_on_c, 0, 79, 100
2, 41868, Note_off_c, 0, 79, 64
2, 41880, Note_on_c, 0, 80, 100
2, 41928, Note_off_c, 0, 80, 64
2, 41940, Note_on_c, 0, 82, 100
2, 41988, Note_off_c, 0, 82, 64
2, 42000, Note_on_c, 0, 84, 100
2, 42096, Note_off_c, 0, 84, 64
2, 42120, Note_on_c, 0, 82, 100
2, 42216, Note_off_c, 0, 82, 64
2, 42240, Note_on_c, 0, 80, 100
2, 42336, Note_off_c, 0, 80, 64
2, 42360, Note_on_c, 0, 73, 100
2, 42504, Note_off_c, 0, 73, 64
2, 42540, Note_on_c, 0, 70, 100
2, 42588, Note_off_c, 0, 70, 64
2, 42600, Note_on_c, 0, 72, 100
2, 42648, Note_off_c, 0, 72, 64
2, 42660, Note_on_c, 0, 67, 100
2, 42708, Note_off_c, 0, 67, 64
2, 42720, Note_on_c, 0, 68, 100
2, 42816, Note_off_c, 0, 68, 64
2, 42960, Note_on_c, 0, 67, 100
2, 43008, Note_off_c, 0, 67, 64
2, 43020, Note_on_c, 0, 70, 100
2, 43068, Note_off_c, 0, 70, 64
2, 43080, Note_on_c, 0, 61, 100
2, 43128, Note_off_c, 0, 61, 64
2, 43140, Note_on_c, 0, 67, 100
2, 43188, Note_off_c, 0, 67, 64
2, 43200, Note_on_c, 0, 70, 100
2, 43368, Note_off_c, 0, 70, 64
2, 43380, Note_on_c, 0, 58, 100
2, 43428, Note_off_c, 0, 58, 64
2, 43440, Note_on_c, 0, 60, 100
2, 43488, Note_off_c, 0, 60, 64
2, 43500, Note_on_c, 0, 63, 100
2, 43548, Note_off_c, 0, 63, 64
2, 43560, Note_on_c, 0, 65, 100
2, 43608, Note_off_c, 0, 65, 64
2, 43620, Note_on_c, 0, 61, 100
2, 43668, Note_off_c, 0, 61, 64
2, 43680, Note_on_c, 0, 63, 100
2, 43728, Note_off_c, 0, 63, 64
2, 43740, Note_on_c, 0, 67, 100
2, 43788, Note_off_c, 0, 67, 64
2, 43800, Note_on_c, 0, 68, 100
2, 43848, Note_off_c, 0, 68, 64
2, 43860, Note_on_c, 0, 70, 100
2, 43908, Note_off_c, 0, 70, 64
2, 43920, Note_on_c, 0, 72, 100
2, 44088, Note_off_c, 0, 72, 64
2, 44100, Note_on_c, 0, 60, 100
2, 44148, Note_off_c, 0, 60, 64
2, 44160, Note_on_c, 0, 61, 100
2, 44208, Note_off_c, 0, 61, 64
2, 44220, Note_on_c, 0, 65, 100
2, 44268, Note_off_c, 0, 65, 64
2, 44280, Note_on_c, 0, 70, 100
2, 44328, Note_off_c, 0, 70, 64
2, 44340, Note_on_c, 0, 66, 100
2, 44388, Note_off_c, 0, 66, 64
2, 44400, Note_on_c, 0, 65, 100
2, 44448, Note_off_c, 0, 65, 64
2, 44460, Note_on_c, 0, 63, 100
2, 44508, Note_off_c, 0, 63, 64
2, 44520, Note_on_c, 0, 69, 100
2, 44568, Note_off_c, 0, 69, 64
2, 44580, Note_on_c, 0, 72, 100
2, 44628, Note_off_c, 0, 72, 64
2, 44640, Note_on_c, 0, 75, 100
2, 44688, Note_off_c, 0, 75, 64
2, 44700, Note_on_c, 0, 72, 100
2, 44748, Note_off_c, 0, 72, 64
2, 44760, Note_on_c, 0, 73, 100
2, 44808, Note_off_c, 0, 73, 64
2, 44820, Note_on_c, 0, 75, 100
2, 44868, Note_off_c, 0, 75, 64
2, 44880, Note_on_c, 0, 77, 100
2, 44976, Note_off_c, 0, 77, 64
2, 45000, Note_on_c, 0, 75, 100
2, 45096, Note_off_c, 0, 75, 64
2, 45120, Note_on_c, 0, 73, 100
2, 45216, Note_off_c, 0, 73, 64
2, 45240, Note_on_c, 0, 67, 100
2, 45576, Note_off_c, 0, 67, 64
2, 45600, Note_on_c, 0, 72, 100
2, 45696, Note_off_c, 0, 72, 64
2, 45720, Note_on_c, 0, 68, 100
2, 45816, Note_off_c, 0, 68, 64
2, 45840, Note_on_c, 0, 65, 100
2, 45936, Note_off_c, 0, 65, 64
2, 45960, Note_on_c, 0, 71, 100
2, 46056, Note_off_c, 0, 71, 64
2, 46080, Note_on_c, 0, 72, 100
2, 46248, Note_off_c, 0, 72, 64
2, 46260, Note_on_c, 0, 62, 100
2, 46308, Note_off_c, 0, 62, 64
2, 46320, Note_on_c, 0, 64, 100
2, 46368, Note_off_c, 0, 64, 64
2, 46380, Note_on_c, 0, 67, 100
2, 46428, Note_off_c, 0, 67, 64
2, 46440, Note_on_c, 0, 70, 100
2, 46608, Note_off_c, 0, 70, 64
2, 46620, Note_on_c, 0, 72, 100
2, 46668, Note_off_c, 0, 72, 64
2, 46680, Note_on_c, 0, 70, 100
2, 46728, Note_off_c, 0, 70, 64
2, 46740, Note_on_c, 0, 68, 100
2, 46788, Note_off_c, 0, 68, 64
2, 46800, Note_on_c, 0, 70, 100
2, 46848, Note_off_c, 0, 70, 64
2, 46860, Note_on_c, 0, 67, 100
2, 46908, Note_off_c, 0, 67, 64
2, 46920, Note_on_c, 0, 68, 100
2, 46968, Note_off_c, 0, 68, 64
2, 46980, Note_on_c, 0, 64, 100
2, 47028, Note_off_c, 0, 64, 64
2, 47040, Note_on_c, 0, 65, 100
2, 47088, Note_off_c, 0, 65, 64
2, 47100, Note_on_c, 0, 68, 100
2, 47148, Note_off_c, 0, 68, 64
2, 47160, Note_on_c, 0, 73, 100
2, 47328, Note_off_c, 0, 73, 64
2, 47340, Note_on_c, 0, 71, 100
2, 47388, Note_off_c, 0, 71, 64
2, 47400, Note_on_c, 0, 72, 100
2, 47448, Note_off_c, 0, 72, 64
2, 47460, Note_on_c, 0, 75, 100
2, 47508, Note_off_c, 0, 75, 64
2, 47520, Note_on_c, 0, 80, 100
2, 47688, Note_off_c, 0, 80, 64
2, 47700, Note_on_c, 0, 79, 100
2, 47748, Note_off_c, 0, 79, 64
2, 47760, Note_on_c, 0, 77, 100
2, 47808, Note_off_c, 0, 77, 64
2, 47820, Note_on_c, 0, 79, 100
2, 47868, Note_off_c, 0, 79, 64
2, 47880, Note_on_c, 0, 80, 100
2, 47928, Note_off_c, 0, 80, 64
2, 47940, Note_on_c, 0, 77, 100
2, 47988, Note_off_c, 0, 77, 64
2, 48000, Note_on_c, 0, 74, 100
2, 48192, Note_off_c, 0, 74, 64
2, 48240, Note_on_c, 0, 79, 100
2, 48336, Note_off_c, 0, 79, 64
2, 48360, Note_on_c, 0, 72, 100
2, 48552, Note_off_c, 0, 72, 64
2, 48600, Note_on_c, 0, 75, 100
2, 48696, Note_off_c, 0, 75, 64
2, 48720, Note_on_c, 0, 74, 100
2, 48912, Note_off_c, 0, 74, 64
2, 48960, Note_on_c, 0, 67, 100
2, 49056, Note_off_c, 0, 67, 64
2, 49080, Note_on_c, 0, 72, 100
2, 49224, Note_off_c, 0, 72, 64
2, 49260, Note_on_c, 0, 71, 100
2, 49308, Note_off_c, 0, 71, 64
2, 49320, Note_on_c, 0, 72, 100
2, 49416, Note_off_c, 0, 72, 64
2, 49440, Note_on_c, 0, 62, 100
2, 49632, Note_off_c, 0, 62, 64
2, 49680, Note_on_c, 0, 72, 100
2, 49848, Note_off_c, 0, 72, 64
2, 49860, Note_on_c, 0, 69, 100
2, 49908, Note_off_c, 0, 69, 64
2, 49920, Note_on_c, 0, 71, 100
2, 49968, Note_off_c, 0, 71, 64
2, 49980, Note_on_c, 0, 74, 100
2, 50028, Note_off_c, 0, 74, 64
2, 50040, Note_on_c, 0, 79, 100
2, 50088, Note_off_c, 0, 79, 64
2, 50100, Note_on_c, 0, 76, 100
2, 50148, Note_off_c, 0, 76, 64
2, 50160, Note_on_c, 0, 73, 100
2, 50208, Note_off_c, 0, 73, 64
2, 50220, Note_on_c, 0, 72, 100
2, 50268, Note_off_c, 0, 72, 64
2, 50280, Note_on_c, 0, 76, 100
2, 50328, Note_off_c, 0, 76, 64
2, 50340, Note_on_c, 0, 79, 100
2, 50388, Note_off_c, 0, 79, 64
2, 50400, Note_on_c, 0, 82, 100
2, 50448, Note_off_c, 0, 82, 64
2, 50460, Note_on_c, 0, 79, 100
2, 50508, Note_off_c, 0, 79, 64
2, 50520, Note_on_c, 0, 80, 100
2, 50712, Note_off_c, 0, 80, 64
2, 51120, Note_on_c, 0, 77, 100
2, 51288, Note_off_c, 0, 77, 64
2, 51300, Note_on_c, 0, 65, 100
2, 51348, Note_off_c, 0, 65, 64
2, 51360, Note_on_c, 0, 67, 100
2, 51408, Note_off_c, 0, 67, 64
2, 51420, Note_on_c, 0, 70, 100
2, 51468, Note_off_c, 0, 70, 64
2, 51480, Note_on_c, 0, 75, 100
2, 51528, Note_off_c, 0, 75, 64
2, 51540, Note_on_c, 0, 72, 100
2, 51588, Note_off_c, 0, 72, 64
2, 51600, Note_on_c, 0, 70, 100
2, 51648, Note_off_c, 0, 70, 64
2, 51660, Note_on_c, 0, 68, 100
2, 51708, Note_off_c, 0, 68, 64
2, 51720, Note_on_c, 0, 72, 100
2, 51768, Note_off_c, 0, 72, 64
2, 51780, Note_on_c, 0, 75, 100
2, 51828, Note_off_c, 0, 75, 64
2, 51840, Note_on_c, 0, 79, 100
2, 51888, Note_off_c, 0, 79, 64
2, 51900, Note_on_c, 0, 75, 100
2, 51948, Note_off_c, 0, 75, 64
2, 51960, Note_on_c, 0, 77, 100
2, 52152, Note_off_c, 0, 77, 64
2, 52560, Note_on_c, 0, 74, 100
2, 52728, Note_off_c, 0, 74, 64
2, 52740, Note_on_c, 0, 62, 100
2, 52788, Note_off_c, 0, 62, 64
2, 52800, Note_on_c, 0, 63, 100
2, 52848, Note_off_c, 0, 63, 64
2, 52860, Note_on_c, 0, 67, 100
2, 52908, Note_off_c, 0, 67, 64
2, 52920, Note_on_c, 0, 72, 100
2, 52968, Note_off_c, 0, 72, 64
2, 52980, Note_on_c, 0, 68, 100
2, 53028, Note_off_c, 0, 68, 64
2, 53040, Note_on_c, 0, 67, 100
2, 53088, Note_off_c, 0, 67, 64
2, 53100, Note_on_c, 0, 65, 100
2, 53148, Note_off_c, 0, 65, 64
2, 53160, Note_on_c, 0, 71, 100
2, 53208, Note_off_c, 0, 71, 64
2, 53220, Note_on_c, 0, 74, 100
2, 53268, Note_off_c, 0, 74, 64
2, 53280, Note_on_c, 0, 77, 100
2, 53328, Note_off_c, 0, 77, 64
2, 53340, Note_on_c, 0, 74, 100
2, 53388, Note_off_c, 0, 74, 64
2, 53400, Note_on_c, 0, 75, 100
2, 53448, Note_off_c, 0, 75, 64
2, 53460, Note_on_c, 0, 77, 100
2, 53508, Note_off_c, 0, 77, 64
2, 53520, Note_on_c, 0, 79, 100
2, 53616, Note_off_c, 0, 79, 64
2, 53640, Note_on_c, 0, 77, 100
2, 53736, Note_off_c, 0, 77, 64
2, 53760, Note_on_c, 0, 75, 100
2, 53808, Note_off_c, 0, 75, 64
2, 53820, Note_on_c, 0, 74, 100
2, 53868, Note_off_c, 0, 74, 64
2, 53880, Note_on_c, 0, 72, 100
2, 53928, Note_off_c, 0, 72, 64
2, 53940, Note_on_c, 0, 70, 100
2, 53988, Note_off_c, 0, 70, 64
2, 54000, Note_on_c, 0, 68, 100
2, 54048, Note_off_c, 0, 68, 64
2, 54060, Note_on_c, 0, 67, 100
2, 54108, Note_off_c, 0, 67, 64
2, 54120, Note_on_c, 0, 66, 100
2, 54168, Note_off_c, 0, 66, 64
2, 54180, Note_on_c, 0, 67, 100
2, 54228, Note_off_c, 0, 67, 64
2, 54240, Note_on_c, 0, 69, 100
2, 54336, Note_off_c, 0, 69, 64
2, 54720, Note_on_c, 0, 69, 100
2, 54888, Note_off_c, 0, 69, 64
2, 54900, Note_on_c, 0, 67, 100
2, 54948, Note_off_c, 0, 67, 64
2, 54960, Note_on_c, 0, 71, 100
2, 55008, Note_off_c, 0, 71, 64
2, 55020, Note_on_c, 0, 74, 100
2, 55068, Note_off_c, 0, 74, 64
2, 55080, Note_on_c, 0, 77, 100
2, 55248, Note_off_c, 0, 77, 64
2, 55260, Note_on_c, 0, 79, 100
2, 55308, Note_off_c, 0, 79, 64
2, 55320, Note_on_c, 0, 77, 100
2, 55368, Note_off_c, 0, 77, 64
2, 55380, Note_on_c, 0, 75, 100
2, 55428, Note_off_c, 0, 75, 64
2, 55440, Note_on_c, 0, 77, 100
2, 55488, Note_off_c, 0, 77, 64
2, 55500, Note_on_c, 0, 74, 100
2, 55548, Note_off_c, 0, 74, 64
2, 55560, Note_on_c, 0, 75, 100
2, 55656, Note_off_c, 0, 75, 64
2, 55680, Note_on_c, 0, 74, 100
2, 55728, Note_off_c, 0, 74, 64
2, 55740, Note_on_c, 0, 72, 100
2, 55788, Note_off_c, 0, 72, 64
2, 55800, Note_on_c, 0, 84, 100
2, 55896, Note_off_c, 0, 84, 64
2, 56040, Note_on_c, 0, 80, 100
2, 56088, Note_off_c, 0, 80, 64
2, 56100, Note_on_c, 0, 79, 100
2, 56148, Note_off_c, 0, 79, 64
2, 56160, Note_on_c, 0, 83, 100
2, 56256, Note_off_c, 0, 83, 64
2, 56280, Note_on_c, 0, 84, 100
2, 56328, Note_off_c, 0, 84, 64
2, 56340, Note_on_c, 0, 79, 100
2, 56388, Note_off_c, 0, 79, 64
2, 56400, Note_on_c, 0, 77, 100
2, 56448, Note_off_c, 0, 77, 64
2, 56460, Note_on_c, 0, 75, 100
2, 56508, Note_off_c, 0, 75, 64
2, 56520, Note_on_c, 0, 77, 100
2, 56568, Note_off_c, 0, 77, 64
2, 56580, Note_on_c, 0, 80, 100
2, 56628, Note_off_c, 0, 80, 64
2, 56640, Note_on_c, 0, 75, 100
2, 56688, Note_off_c, 0, 75, 64
2, 56700, Note_on_c, 0, 74, 100
2, 56748, Note_off_c, 0, 74, 64
2, 56760, Note_on_c, 0, 77, 100
2, 56808, Note_off_c, 0, 77, 64
2, 56820, Note_on_c, 0, 75, 100
2, 56868, Note_off_c, 0, 75, 64
2, 56880, Note_on_c, 0, 74, 100
2, 56928, Note_off_c, 0, 74, 64
2, 56940, Note_on_c, 0, 75, 100
2, 56988, Note_off_c, 0, 75, 64
2, 57000, Note_on_c, 0, 72, 100
2, 57552, Note_off_c, 0, 72, 64
2, 59160, Note_on_c, 0, 67, 100
2, 59256, Note_off_c, 0, 67, 64
2, 59280, Note_on_c, 0, 72, 100
2, 59472, Note_off_c, 0, 72, 64
2, 59520, Note_on_c, 0, 68, 100
2, 59616, Note_off_c, 0, 68, 64
2, 59640, Note_on_c, 0, 70, 100
2, 59832, Note_off_c, 0, 70, 64
2, 59880, Note_on_c, 0, 75, 100
2, 59976, Note_off_c, 0, 75, 64
2, 60000, Note_on_c, 0, 68, 100
2, 60144, Note_off_c, 0, 68, 64
2, 60180, Note_on_c, 0, 70, 100
2, 60228, Note_off_c, 0, 70, 64
2, 60240, Note_on_c, 0, 68, 100
2, 60336, Note_off_c, 0, 68, 64
2, 60360, Note_on_c, 0, 80, 100
2, 60408, Note_off_c, 0, 80, 64
2, 60420, Note_on_c, 0, 75, 100
2, 60468, Note_off_c, 0, 75, 64
2, 60480, Note_on_c, 0, 73, 100
2, 60528, Note_off_c, 0, 73, 64
2, 60540, Note_on_c, 0, 72, 100
2, 60588, Note_off_c, 0, 72, 64
2, 60600, Note_on_c, 0, 78, 100
2, 60696, Note_off_c, 0, 78, 64
2, 60780, Note_on_c, 0, 77, 100
2, 60828, Note_off_c, 0, 77, 64
2, 60840, Note_on_c, 0, 75, 100
2, 60888, Note_off_c, 0, 75, 64
2, 60900, Note_on_c, 0, 73, 100
2, 60948, Note_off_c, 0, 73, 64
2, 60960, Note_on_c, 0, 80, 100
2, 61008, Note_off_c, 0, 80, 64
2, 61020, Note_on_c, 0, 79, 100
2, 61068, Note_off_c, 0, 79, 64
2, 61080, Note_on_c, 0, 80, 100
2, 61488, Note_off_c, 0, 80, 64
2, 61500, Note_on_c, 0, 79, 100
2, 61548, Note_off_c, 0, 79, 64
2, 61560, Note_on_c, 0, 77, 100
2, 61608, Note_off_c, 0, 77, 64
2, 61620, Note_on_c, 0, 75, 100
2, 61668, Note_off_c, 0, 75, 64
2, 61680, Note_on_c, 0, 82, 100
2, 61728, Note_off_c, 0, 82, 64
2, 61740, Note_on_c, 0, 81, 100
2, 61788, Note_off_c, 0, 81, 64
2, 61800, Note_on_c, 0, 82, 100
2, 62208, Note_off_c, 0, 82, 64
2, 62220, Note_on_c, 0, 80, 100
2, 62268, Note_off_c, 0, 80, 64
2, 62280, Note_on_c, 0, 79, 100
2, 62328, Note_off_c, 0, 79, 64
2, 62340, Note_on_c, 0, 77, 100
2, 62388, Note_off_c, 0, 77, 64
2, 62400, Note_on_c, 0, 80, 100
2, 62448, Note_off_c, 0, 80, 64
2, 62460, Note_on_c, 0, 77, 100
2, 62508, Note_off_c, 0, 77, 64
2, 62520, Note_on_c, 0, 80, 100
2, 62568, Note_off_c, 0, 80, 64
2, 62580, Note_on_c, 0, 78, 100
2, 62628, Note_off_c, 0, 78, 64
2, 62640, Note_on_c, 0, 77, 100
2, 62688, Note_off_c, 0, 77, 64
2, 62700, Note_on_c, 0, 75, 100
2, 62748, Note_off_c, 0, 75, 64
2, 62760, Note_on_c, 0, 78, 100
2, 62808, Note_off_c, 0, 78, 64
2, 62820, Note_on_c, 0, 75, 100
2, 62868, Note_off_c, 0, 75, 64
2, 62880, Note_on_c, 0, 77, 100
2, 62928, Note_off_c, 0, 77, 64
2, 62940, Note_on_c, 0, 75, 100
2, 62988, Note_off_c, 0, 75, 64
2, 63000, Note_on_c, 0, 73, 100
2, 63048, Note_off_c, 0, 73, 64
2, 63060, Note_on_c, 0, 72, 100
2, 63108, Note_off_c, 0, 72, 64
2, 63120, Note_on_c, 0, 70, 100
2, 63168, Note_off_c, 0, 70, 64
2, 63180, Note_on_c, 0, 69, 100
2, 63228, Note_off_c, 0, 69, 64
2, 63240, Note_on_c, 0, 70, 100
2, 63648, Note_off_c, 0, 70, 64
2, 63660, Note_on_c, 0, 68, 100
2, 63708, Note_off_c, 0, 68, 64
2, 63720, Note_on_c, 0, 67, 100
2, 63768, Note_off_c, 0, 67, 64
2, 63780, Note_on_c, 0, 65, 100
2, 63828, Note_off_c, 0, 65, 64
2, 63840, Note_on_c, 0, 64, 100
2, 63888, Note_off_c, 0, 64, 64
2, 63900, Note_on_c, 0, 67, 100
2, 63948, Note_off_c, 0, 67, 64
2, 63960, Note_on_c, 0, 60, 100
2, 64152, Note_off_c, 0, 60, 64
2, 64380, Note_on_c, 0, 67, 100
2, 64428, Note_off_c, 0, 67, 64
2, 64440, Note_on_c, 0, 68, 100
2, 64488, Note_off_c, 0, 68, 64
2, 64500, Note_on_c, 0, 72, 100
2, 64548, Note_off_c, 0, 72, 64
2, 64560, Note_on_c, 0, 77, 100
2, 64608, Note_off_c, 0, 77, 64
2, 64620, Note_on_c, 0, 73, 100
2, 64668, Note_off_c, 0, 73, 64
2, 64680, Note_on_c, 0, 72, 100
2, 64728, Note_off_c, 0, 72, 64
2, 64740, Note_on_c, 0, 70, 100
2, 64788, Note_off_c, 0, 70, 64
2, 64800, Note_on_c, 0, 76, 100
2, 64848, Note_off_c, 0, 76, 64
2, 64860, Note_on_c, 0, 79, 100
2, 64908, Note_off_c, 0, 79, 64
2, 64920, Note_on_c, 0, 82, 100
2, 64968, Note_off_c, 0, 82, 64
2, 64980, Note_on_c, 0, 79, 100
2, 65028, Note_off_c, 0, 79, 64
2, 65040, Note_on_c, 0, 80, 100
2, 65088, Note_off_c, 0, 80, 64
2, 65100, Note_on_c, 0, 82, 100
2, 65148, Note_off_c, 0, 82, 64
2, 65160, Note_on_c, 0, 84, 100
2, 65256, Note_off_c, 0, 84, 64
2, 65280, Note_on_c, 0, 82, 100
2, 65376, Note_off_c, 0, 82, 64
2, 65400, Note_on_c, 0, 80, 100
2, 65496, Note_off_c, 0, 80, 64
2, 65520, Note_on_c, 0, 73, 100
2, 65664, Note_off_c, 0, 73, 64
2, 65700, Note_on_c, 0, 70, 100
2, 65748, Note_off_c, 0, 70, 64
2, 65760, Note_on_c, 0, 72, 100
2, 65808, Note_off_c, 0, 72, 64
2, 65820, Note_on_c, 0, 67, 100
2, 65868, Note_off_c, 0, 67, 64
2, 65880, Note_on_c, 0, 68, 100
2, 65976, Note_off_c, 0, 68, 64
2, 66120, Note_on_c, 0, 67, 100
2, 66168, Note_off_c, 0, 67, 64
2, 66180, Note_on_c, 0, 70, 100
2, 66228, Note_off_c, 0, 70, 64
2, 66240, Note_on_c, 0, 61, 100
2, 66288, Note_off_c, 0, 61, 64
2, 66300, Note_on_c, 0, 67, 100
2, 66348, Note_off_c, 0, 67, 64
2, 66360, Note_on_c, 0, 70, 100
2, 66528, Note_off_c, 0, 70, 64
2, 66540, Note_on_c, 0, 58, 100
2, 66588, Note_off_c, 0, 58, 64
2, 66600, Note_on_c, 0, 60, 100
2, 66648, Note_off_c, 0, 60, 64
2, 66660, Note_on_c, 0, 63, 100
2, 66708, Note_off_c, 0, 63, 64
2, 66720, Note_on_c, 0, 65, 100
2, 66768, Note_off_c, 0, 65, 64
2, 66780, Note_on_c, 0, 61, 100
2, 66828, Note_off_c, 0, 61, 64
2, 66840, Note_on_c, 0, 63, 100
2, 66888, Note_off_c, 0, 63, 64
2, 66900, Note_on_c, 0, 67, 100
2, 66948, Note_off_c, 0, 67, 64
2, 66960, Note_on_c, 0, 68, 100
2, 67008, Note_off_c, 0, 68, 64
2, 67020, Note_on_c, 0, 70, 100
2, 67068, Note_off_c, 0, 70, 64
2, 67080, Note_on_c, 0, 72, 100
2, 67248, Note_off_c, 0, 72, 64
2, 67260, Note_on_c, 0, 60, 100
2, 67308, Note_off_c, 0, 60, 64
2, 67320, Note_on_c, 0, 61, 100
2, 67368, Note_off_c, 0, 61, 64
2, 67380, Note_on_c, 0, 65, 100
2, 67428, Note_off_c, 0, 65, 64
2, 67440, Note_on_c, 0, 70, 100
2, 67488, Note_off_c, 0, 70, 64
2, 67500, Note_on_c, 0, 66, 100
2, 67548, Note_off_c, 0, 66, 64
2, 67560, Note_on_c, 0, 65, 100
2, 67608, Note_off_c, 0, 65, 64
2, 67620, Note_on_c, 0, 63, 100
2, 67668, Note_off_c, 0, 63, 64
2, 67680, Note_on_c, 0, 69, 100
2, 67728, Note_off_c, 0, 69, 64
2, 67740, Note_on_c, 0, 72, 100
2, 67788, Note_off_c, 0, 72, 64
2, 67800, Note_on_c, 0, 75, 100
2, 67848, Note_off_c, 0, 75, 64
2, 67860, Note_on_c, 0, 72, 100
2, 67908, Note_off_c, 0, 72, 64
2, 67920, Note_on_c, 0, 73, 100
2, 67968, Note_off_c, 0, 73, 64
2, 67980, Note_on_c, 0, 75, 100
2, 68028, Note_off_c, 0, 75, 64
2, 68040, Note_on_c, 0, 77, 100
2, 68136, Note_off_c, 0, 77, 64
2, 68160, Note_on_c, 0, 75, 100
2, 68256, Note_off_c, 0, 75, 64
2, 68280, Note_on_c, 0, 73, 100
2, 68376, Note_off_c, 0, 73, 64
2, 68400, Note_on_c, 0, 67, 100
2, 68736, Note_off_c, 0, 67, 64
2, 68760, Note_on_c, 0, 72, 100
2, 68856, Note_off_c, 0, 72, 64
2, 68880, Note_on_c, 0, 68, 100
2, 68976, Note_off_c, 0, 68, 64
2, 69000, Note_on_c, 0, 65, 100
2, 69096, Note_off_c, 0, 65, 64
2, 69120, Note_on_c, 0, 71, 100
2, 69216, Note_off_c, 0, 71, 64
2, 69240, Note_on_c, 0, 72, 100
2, 69408, Note_off_c, 0, 72, 64
2, 69420, Note_on_c, 0, 62, 100
2, 69468, Note_off_c, 0, 62, 64
2, 69480, Note_on_c, 0, 64, 100
2, 69528, Note_off_c, 0, 64, 64
2, 69540, Note_on_c, 0, 67, 100
2, 69588, Note_off_c, 0, 67, 64
2, 69600, Note_on_c, 0, 70, 100
2, 69768, Note_off_c, 0, 70, 64
2, 69780, Note_on_c, 0, 72, 100
2, 69828, Note_off_c, 0, 72, 64
2, 69840, Note_on_c, 0, 70, 100
2, 69888, Note_off_c, 0, 70, 64
2, 69900, Note_on_c, 0, 68, 100
2, 69948, Note_off_c, 0, 68, 64
2, 69960, Note_on_c, 0, 70, 100
2, 70008, Note_off_c, 0, 70, 64
2, 70020, Note_on_c, 0, 67, 100
2, 70068, Note_off_c, 0, 67, 64
2, 70080, Note_on_c, 0, 68, 100
2, 70128, Note_off_c, 0, 68, 64
2, 70140, Note_on_c, 0, 64, 100
2, 70188, Note_off_c, 0, 64, 64
2, 70200, Note_on_c, 0, 65, 100
2, 70248, Note_off_c, 0, 65, 64
2, 70260, Note_on_c, 0, 68, 100
2, 70308, Note_off_c, 0, 68, 64
2, 70320, Note_on_c, 0, 73, 100
2, 70488, Note_off_c, 0, 73, 64
2, 70500, Note_on_c, 0, 71, 100
2, 70548, Note_off_c, 0, 71, 64
2, 70560, Note_on_c, 0, 72, 100
2, 70608, Note_off_c, 0, 72, 64
2, 70620, Note_on_c, 0, 75, 100
2, 70668, Note_off_c, 0, 75, 64
2, 70680, Note_on_c, 0, 80, 100
2, 70848, Note_off_c, 0, 80, 64
2, 70860, Note_on_c, 0, 79, 100
2, 70908, Note_off_c, 0, 79, 64
2, 70920, Note_on_c, 0, 77, 100
2, 70968, Note_off_c, 0, 77, 64
2, 70980, Note_on_c, 0, 79, 100
2, 71028, Note_off_c, 0, 79, 64
2, 71040, Note_on_c, 0, 80, 100
2, 71088, Note_off_c, 0, 80, 64
2, 71100, Note_on_c, 0, 77, 100
2, 71148, Note_off_c, 0, 77, 64
2, 71160, Note_on_c, 0, 74, 100
2, 71352, Note_off_c, 0, 74, 64
2, 71400, Note_on_c, 0, 79, 100
2, 71496, Note_off_c, 0, 79, 64
2, 71520, Note_on_c, 0, 72, 100
2, 71712, Note_off_c, 0, 72, 64
2, 71760, Note_on_c, 0, 75, 100
2, 71856, Note_off_c, 0, 75, 64
2, 71880, Note_on_c, 0, 74, 100
2, 72072, Note_off_c, 0, 74, 64
2, 72120, Note_on_c, 0, 67, 100
2, 72216, Note_off_c, 0, 67, 64
2, 72240, Note_on_c, 0, 72, 100
2, 72384, Note_off_c, 0, 72, 64
2, 72420, Note_on_c, 0, 71, 100
2, 72468, Note_off_c, 0, 71, 64
2, 72480, Note_on_c, 0, 72, 100
2, 72576, Note_off_c, 0, 72, 64
2, 72600, Note_on_c, 0, 62, 100
2, 72792, Note_off_c, 0, 62, 64
2, 72840, Note_on_c, 0, 72, 100
2, 73008, Note_off_c, 0, 72, 64
2, 73020, Note_on_c, 0, 69, 100
2, 73068, Note_off_c, 0, 69, 64
2, 73080, Note_on_c, 0, 71, 100
2, 73128, Note_off_c, 0, 71, 64
2, 73140, Note_on_c, 0, 74, 100
2, 73188, Note_off_c, 0, 74, 64
2, 73200, Note_on_c, 0, 79, 100
2, 73248, Note_off_c, 0, 79, 64
2, 73260, Note_on_c, 0, 76, 100
2, 73308, Note_off_c, 0, 76, 64
2, 73320, Note_on_c, 0, 73, 100
2, 73368, Note_off_c, 0, 73, 64
2, 73380, Note_on_c, 0, 72, 100
2, 73428, Note_off_c, 0, 72, 64
2, 73440, Note_on_c, 0, 76, 100
2, 73488, Note_off_c, 0, 76, 64
2, 73500, Note_on_c, 0, 79, 100
2, 73548, Note_off_c, 0, 79, 64
2, 73560, Note_on_c, 0, 82, 100
2, 73608, Note_off_c, 0, 82, 64
2, 73620, Note_on_c, 0, 79, 100
2, 73668, Note_off_c, 0, 79, 64
2, 73680, Note_on_c, 0, 80, 100
2, 73872, Note_off_c, 0, 80, 64
2, 74280, Note_on_c, 0, 77, 100
2, 74448, Note_off_c, 0, 77, 64
2, 74460, Note_on_c, 0, 65, 100
2, 74508, Note_off_c, 0, 65, 64
2, 74520, Note_on_c, 0, 67, 100
2, 74568, Note_off_c, 0, 67, 64
2, 74580, Note_on_c, 0, 70, 100
2, 74628, Note_off_c, 0, 70, 64
2, 74640, Note_on_c, 0, 75, 100
2, 74688, Note_off_c, 0, 75, 64
2, 74700, Note_on_c, 0, 72, 100
2, 74748, Note_off_c, 0, 72, 64
2, 74760, Note_on_c, 0, 70, 100
2, 74808, Note_off_c, 0, 70, 64
2, 74820, Note_on_c, 0, 68, 100
2, 74868, Note_off_c, 0, 68, 64
2, 74880, Note_on_c, 0, 72, 100
2, 74928, Note_off_c, 0, 72, 64
2, 74940, Note_on_c, 0, 75, 100
2, 74988, Note_off_c, 0, 75, 64
2, 75000, Note_on_c, 0, 79, 100
2, 75048, Note_off_c, 0, 79, 64
2, 75060, Note_on_c, 0, 75, 100
2, 75108, Note_off_c, 0, 75, 64
2, 75120, Note_on_c, 0, 77, 100
2, 75312, Note_off_c, 0, 77, 64
2, 75720, Note_on_c, 0, 74, 100
2, 75888, Note_off_c, 0, 74, 64
2, 75900, Note_on_c, 0, 62, 100
2, 75948, Note_off_c, 0, 62, 64
2, 75960, Note_on_c, 0, 63, 100
2, 76008, Note_off_c, 0, 63, 64
2, 76020, Note_on_c, 0, 67, 100
2, 76068, Note_off_c, 0, 67, 64
2, 76080, Note_on_c, 0, 72, 100
2, 76128, Note_off_c, 0, 72, 64
2, 76140, Note_on_c, 0, 68, 100
2, 76188, Note_off_c, 0, 68, 64
2, 76200, Note_on_c, 0, 67, 100
2, 76248, Note_off_c, 0, 67, 64
2, 76260, Note_on_c, 0, 65, 100
2, 76308, Note_off_c, 0, 65, 64
2, 76320, Note_on_c, 0, 71, 100
2, 76368, Note_off_c, 0, 71, 64
2, 76380, Note_on_c, 0, 74, 100
2, 76428, Note_off_c, 0, 74, 64
2, 76440, Note_on_c, 0, 77, 100
2, 76488, Note_off_c, 0, 77, 64
2, 76500, Note_on_c, 0, 74, 100
2, 76548, Note_off_c, 0, 74, 64
2, 76560, Note_on_c, 0, 75, 100
2, 76608, Note_off_c, 0, 75, 64
2, 76620, Note_on_c, 0, 77, 100
2, 76668, Note_off_c, 0, 77, 64
2, 76680, Note_on_c, 0, 79, 100
2, 76776, Note_off_c, 0, 79, 64
2, 76800, Note_on_c, 0, 77, 100
2, 76896, Note_off_c, 0, 77, 64
2, 76920, Note_on_c, 0, 75, 100
2, 76968, Note_off_c, 0, 75, 64
2, 76980, Note_on_c, 0, 74, 100
2, 77028, Note_off_c, 0, 74, 64
2, 77040, Note_on_c, 0, 72, 100
2, 77088, Note_off_c, 0, 72, 64
2, 77100, Note_on_c, 0, 70, 100
2, 77148, Note_off_c, 0, 70, 64
2, 77160, Note_on_c, 0, 68, 100
2, 77208, Note_off_c, 0, 68, 64
2, 77220, Note_on_c, 0, 67, 100
2, 77268, Note_off_c, 0, 67, 64
2, 77280, Note_on_c, 0, 66, 100
2, 77328, Note_off_c, 0, 66, 64
2, 77340, Note_on_c, 0, 67, 100
2, 77388, Note_off_c, 0, 67, 64
2, 77400, Note_on_c, 0, 69, 100
2, 77496, Note_off_c, 0, 69, 64
2, 77880, Note_on_c, 0, 69, 100
2, 78048, Note_off_c, 0, 69, 64
2, 78060, Note_on_c, 0, 67, 100
2, 78108, Note_off_c, 0, 67, 64
2, 78120, Note_on_c, 0, 71, 100
2, 78168, Note_off_c, 0, 71, 64
2, 78180, Note_on_c, 0, 74, 100
2, 78228, Note_off_c, 0, 74, 64
2, 78240, Note_on_c, 0, 77, 100
2, 78408, Note_off_c, 0, 77, 64
2, 78420, Note_on_c, 0, 79, 100
2, 78468, Note_off_c, 0, 79, 64
2, 78480, Note_on_c, 0, 77, 100
2, 78528, Note_off_c, 0, 77, 64
2, 78540, Note_on_c, 0, 75, 100
2, 78588, Note_off_c, 0, 75, 64
2, 78600, Note_on_c, 0, 77, 100
2, 78648, Note_off_c, 0, 77, 64
2, 78660, Note_on_c, 0, 74, 100
2, 78708, Note_off_c, 0, 74, 64
2, 78720, Note_on_c, 0, 75, 100
2, 78816, Note_off_c, 0, 75, 64
2, 78840, Note_on_c, 0, 74, 100
2, 78888, Note_off_c, 0, 74, 64
2, 78900, Note_on_c, 0, 72, 100
2, 78948, Note_off_c, 0, 72, 64
2, 78960, Note_on_c, 0, 84, 100
2, 79056, Note_off_c, 0, 84, 64
2, 79200, Note_on_c, 0, 80, 100
2, 79248, Note_off_c, 0, 80, 64
2, 79260, Note_on_c, 0, 79, 100
2, 79308, Note_off_c, 0, 79, 64
2, 79320, Note_on_c, 0, 83, 100
2, 79416, Note_off_c, 0, 83, 64
2, 79440, Note_on_c, 0, 84, 100
2, 79488, Note_off_c, 0, 84, 64
2, 79500, Note_on_c, 0, 79, 100
2, 79548, Note_off_c, 0, 79, 64
2, 79560, Note_on_c, 0, 77, 100
2, 79608, Note_off_c, 0, 77, 64
2, 79620, Note_on_c, 0, 75, 100
2, 79668, Note_off_c, 0, 75, 64
2, 79680, Note_on_c, 0, 77, 100
2, 79728, Note_off_c, 0, 77, 64
2, 79740, Note_on_c, 0, 80, 100
2, 79788, Note_off_c, 0, 80, 64
2, 79800, Note_on_c, 0, 75, 100
2, 79848, Note_off_c, 0, 75, 64
2, 79860, Note_on_c, 0, 74, 100
2, 79908, Note_off_c, 0, 74, 64
2, 79920, Note_on_c, 0, 77, 100
2, 79968, Note_off_c, 0, 77, 64
2, 79980, Note_on_c, 0, 75, 100
2, 80028, Note_off_c, 0, 75, 64
2, 80040, Note_on_c, 0, 74, 100
2, 80088, Note_off_c, 0, 74, 64
2, 80100, Note_on_c, 0, 75, 100
2, 80148, Note_off_c, 0, 75, 64
2, 80160, Note_on_c, 0, 72, 100
2, 80712, Note_off_c, 0, 72, 64
2, 80712, End_track
3, 0, Start_track
3, 0, Title_t, "J.S. Bach, Edition Peters"
3, 0, Program_c, 1, 19
3, 0, Control_c, 1, 7, 127
3, 2880, Note_on_c, 1, 74, 100
3, 2976, Note_off_c, 1, 74, 64
3, 3000, Note_on_c, 1, 67, 100
3, 3192, Note_off_c, 1, 67, 64
3, 3240, Note_on_c, 1, 70, 100
3, 3336, Note_off_c, 1, 70, 64
3, 3360, Note_on_c, 1, 69, 100
3, 3552, Note_off_c, 1, 69, 64
3, 3600, Note_on_c, 1, 62, 100
3, 3696, Note_off_c, 1, 62, 64
3, 3720, Note_on_c, 1, 67, 100
3, 3864, Note_off_c, 1, 67, 64
3, 3900, Note_on_c, 1, 66, 100
3, 3948, Note_off_c, 1, 66, 64
3, 3960, Note_on_c, 1, 67, 100
3, 4056, Note_off_c, 1, 67, 64
3, 4080, Note_on_c, 1, 55, 100
3, 4272, Note_off_c, 1, 55, 64
3, 4320, Note_on_c, 1, 67, 100
3, 4488, Note_off_c, 1, 67, 64
3, 4500, Note_on_c, 1, 70, 100
3, 4548, Note_off_c, 1, 70, 64
3, 4560, Note_on_c, 1, 69, 100
3, 4608, Note_off_c, 1, 69, 64
3, 4620, Note_on_c, 1, 72, 100
3, 4668, Note_off_c, 1, 72, 64
3, 4680, Note_on_c, 1, 75, 100
3, 4728, Note_off_c, 1, 75, 64
3, 4740, Note_on_c, 1, 67, 100
3, 4788, Note_off_c, 1, 67, 64
3, 4800, Note_on_c, 1, 66, 100
3, 4848, Note_off_c, 1, 66, 64
3, 4860, Note_on_c, 1, 69, 100
3, 4908, Note_off_c, 1, 69, 64
3, 4920, Note_on_c, 1, 63, 100
3, 4968, Note_off_c, 1, 63, 64
3, 4980, Note_on_c, 1, 62, 100
3, 5028, Note_off_c, 1, 62, 64
3, 5040, Note_on_c, 1, 72, 100
3, 5208, Note_off_c, 1, 72, 64
3, 5220, Note_on_c, 1, 69, 100
3, 5268, Note_off_c, 1, 69, 64
3, 5280, Note_on_c, 1, 70, 100
3, 5328, Note_off_c, 1, 70, 64
3, 5340, Note_on_c, 1, 74, 100
3, 5388, Note_off_c, 1, 74, 64
3, 5400, Note_on_c, 1, 79, 100
3, 5448, Note_off_c, 1, 79, 64
3, 5460, Note_on_c, 1, 76, 100
3, 5508, Note_off_c, 1, 76, 64
3, 5520, Note_on_c, 1, 73, 100
3, 5568, Note_off_c, 1, 73, 64
3, 5580, Note_on_c, 1, 72, 100
3, 5628, Note_off_c, 1, 72, 64
3, 5640, Note_on_c, 1, 76, 100
3, 5688, Note_off_c, 1, 76, 64
3, 5700, Note_on_c, 1, 79, 100
3, 5748, Note_off_c, 1, 79, 64
3, 5760, Note_on_c, 1, 82, 100
3, 5808, Note_off_c, 1, 82, 64
3, 5820, Note_on_c, 1, 79, 100
3, 5868, Note_off_c, 1, 79, 64
3, 5880, Note_on_c, 1, 80, 100
3, 6072, Note_off_c, 1, 80, 64
3, 6480, Note_on_c, 1, 77, 100
3, 6648, Note_off_c, 1, 77, 64
3, 6660, Note_on_c, 1, 65, 100
3, 6708, Note_off_c, 1, 65, 64
3, 6720, Note_on_c, 1, 67, 100
3, 6768, Note_off_c, 1, 67, 64
3, 6780, Note_on_c, 1, 70, 100
3, 6828, Note_off_c, 1, 70, 64
3, 6840, Note_on_c, 1, 75, 100
3, 6888, Note_off_c, 1, 75, 64
3, 6900, Note_on_c, 1, 72, 100
3, 6948, Note_off_c, 1, 72, 64
3, 6960, Note_on_c, 1, 70, 100
3, 7008, Note_off_c, 1, 70, 64
3, 7020, Note_on_c, 1, 68, 100
3, 7068, Note_off_c, 1, 68, 64
3, 7080, Note_on_c, 1, 72, 100
3, 7128, Note_off_c, 1, 72, 64
3, 7140, Note_on_c, 1, 75, 100
3, 7188, Note_off_c, 1, 75, 64
3, 7200, Note_on_c, 1, 79, 100
3, 7248, Note_off_c, 1, 79, 64
3, 7260, Note_on_c, 1, 75, 100
3, 7308, Note_off_c, 1, 75, 64
3, 7320, Note_on_c, 1, 77, 100
3, 7512, Note_off_c, 1, 77, 64
3, 7920, Note_on_c, 1, 74, 100
3, 8088, Note_off_c, 1, 74, 64
3, 8100, Note_on_c, 1, 62, 100
3, 8148, Note_off_c, 1, 62, 64
3, 8160, Note_on_c, 1, 63, 100
3, 8208, Note_off_c, 1, 63, 64
3, 8220, Note_on_c, 1, 67, 100
3, 8268, Note_off_c, 1, 67, 64
3, 8280, Note_on_c, 1, 72, 100
3, 8328, Note_off_c, 1, 72, 64
3, 8340, Note_on_c, 1, 68, 100
3, 8388, Note_off_c, 1, 68, 64
3, 8400, Note_on_c, 1, 67, 100
3, 8448, Note_off_c, 1, 67, 64
3, 8460, Note_on_c, 1, 65, 100
3, 8508, Note_off_c, 1, 65, 64
3, 8520, Note_on_c, 1, 71, 100
3, 8568, Note_off_c, 1, 71, 64
3, 8580, Note_on_c, 1, 74, 100
3, 8628, Note_off_c, 1, 74, 64
3, 8640, Note_on_c, 1, 77, 100
3, 8688, Note_off_c, 1, 77, 64
3, 8700, Note_on_c, 1, 74, 100
3, 8748, Note_off_c, 1, 74, 64
3, 8760, Note_on_c, 1, 75, 100
3, 8808, Note_off_c, 1, 75, 64
3, 8820, Note_on_c, 1, 77, 100
3, 8868, Note_off_c, 1, 77, 64
3, 8880, Note_on_c, 1, 79, 100
3, 8976, Note_off_c, 1, 79, 64
3, 9000, Note_on_c, 1, 77, 100
3, 9096, Note_off_c, 1, 77, 64
3, 9120, Note_on_c, 1, 75, 100
3, 9216, Note_off_c, 1, 75, 64
3, 9240, Note_on_c, 1, 80, 100
3, 9384, Note_off_c, 1, 80, 64
3, 9420, Note_on_c, 1, 77, 100
3, 9468, Note_off_c, 1, 77, 64
3, 9480, Note_on_c, 1, 79, 100
3, 9528, Note_off_c, 1, 79, 64
3, 9540, Note_on_c, 1, 74, 100
3, 9588, Note_off_c, 1, 74, 64
3, 9600, Note_on_c, 1, 75, 100
3, 9696, Note_off_c, 1, 75, 64
3, 9840, Note_on_c, 1, 74, 100
3, 9888, Note_off_c, 1, 74, 64
3, 9900, Note_on_c, 1, 77, 100
3, 9948, Note_off_c, 1, 77, 64
3, 9960, Note_on_c, 1, 68, 100
3, 10008, Note_off_c, 1, 68, 64
3, 10020, Note_on_c, 1, 74, 100
3, 10068, Note_off_c, 1, 74, 64
3, 10080, Note_on_c, 1, 77, 100
3, 10248, Note_off_c, 1, 77, 64
3, 10260, Note_on_c, 1, 65, 100
3, 10308, Note_off_c, 1, 65, 64
3, 10320, Note_on_c, 1, 67, 100
3, 10368, Note_off_c, 1, 67, 64
3, 10380, Note_on_c, 1, 70, 100
3, 10428, Note_off_c, 1, 70, 64
3, 10440, Note_on_c, 1, 72, 100
3, 10488, Note_off_c, 1, 72, 64
3, 10500, Note_on_c, 1, 68, 100
3, 10548, Note_off_c, 1, 68, 64
3, 10560, Note_on_c, 1, 70, 100
3, 10608, Note_off_c, 1, 70, 64
3, 10620, Note_on_c, 1, 74, 100
3, 10668, Note_off_c, 1, 74, 64
3, 10680, Note_on_c, 1, 75, 100
3, 10728, Note_off_c, 1, 75, 64
3, 10740, Note_on_c, 1, 77, 100
3, 10788, Note_off_c, 1, 77, 64
3, 10800, Note_on_c, 1, 79, 100
3, 10968, Note_off_c, 1, 79, 64
3, 10980, Note_on_c, 1, 67, 100
3, 11028, Note_off_c, 1, 67, 64
3, 11040, Note_on_c, 1, 68, 100
3, 11088, Note_off_c, 1, 68, 64
3, 11100, Note_on_c, 1, 72, 100
3, 11148, Note_off_c, 1, 72, 64
3, 11160, Note_on_c, 1, 77, 100
3, 11208, Note_off_c, 1, 77, 64
3, 11220, Note_on_c, 1, 73, 100
3, 11268, Note_off_c, 1, 73, 64
3, 11280, Note_on_c, 1, 72, 100
3, 11328, Note_off_c, 1, 72, 64
3, 11340, Note_on_c, 1, 70, 100
3, 11388, Note_off_c, 1, 70, 64
3, 11400, Note_on_c, 1, 76, 100
3, 11448, Note_off_c, 1, 76, 64
3, 11460, Note_on_c, 1, 79, 100
3, 11508, Note_off_c, 1, 79, 64
3, 11520, Note_on_c, 1, 82, 100
3, 11568, Note_off_c, 1, 82, 64
3, 11580, Note_on_c, 1, 79, 100
3, 11628, Note_off_c, 1, 79, 64
3, 11640, Note_on_c, 1, 80, 100
3, 11688, Note_off_c, 1, 80, 64
3, 11700, Note_on_c, 1, 82, 100
3, 11748, Note_off_c, 1, 82, 64
3, 11760, Note_on_c, 1, 84, 100
3, 11873, Note_off_c, 1, 84, 64
3, 11880, Note_on_c, 1, 82, 100
3, 11993, Note_off_c, 1, 82, 64
3, 12000, Note_on_c, 1, 80, 100
3, 12113, Note_off_c, 1, 80, 64
3, 12120, Note_on_c, 1, 74, 100
3, 12456, Note_off_c, 1, 74, 64
3, 12480, Note_on_c, 1, 79, 100
3, 12576, Note_off_c, 1, 79, 64
3, 12600, Note_on_c, 1, 75, 100
3, 12696, Note_off_c, 1, 75, 64
3, 12720, Note_on_c, 1, 72, 100
3, 12816, Note_off_c, 1, 72, 64
3, 12840, Note_on_c, 1, 78, 100
3, 12936, Note_off_c, 1, 78, 64
3, 12960, Note_on_c, 1, 79, 100
3, 13056, Note_off_c, 1, 79, 64
3, 13080, Note_on_c, 1, 79, 80
3, 13092, Note_off_c, 1, 79, 64
3, 13095, Note_on_c, 1, 80, 80
3, 13107, Note_off_c, 1, 80, 64
3, 13110, Note_on_c, 1, 79, 80
3, 13134, Note_off_c, 1, 79, 64
3, 13140, Note_on_c, 1, 69, 100
3, 13188, Note_off_c, 1, 69, 64
3, 13200, Note_on_c, 1, 71, 100
3, 13248, Note_off_c, 1, 71, 64
3, 13260, Note_on_c, 1, 74, 100
3, 13308, Note_off_c, 1, 74, 64
3, 13320, Note_on_c, 1, 77, 100
3, 13488, Note_off_c, 1, 77, 64
3, 13500, Note_on_c, 1, 79, 100
3, 13548, Note_off_c, 1, 79, 64
3, 13560, Note_on_c, 1, 77, 100
3, 13608, Note_off_c, 1, 77, 64
3, 13620, Note_on_c, 1, 75, 100
3, 13668, Note_off_c, 1, 75, 64
3, 13680, Note_on_c, 1, 77, 100
3, 13728, Note_off_c, 1, 77, 64
3, 13740, Note_on_c, 1, 74, 100
3, 13788, Note_off_c, 1, 74, 64
3, 13800, Note_on_c, 1, 75, 100
3, 13992, Note_off_c, 1, 75, 64
3, 14400, Note_on_c, 1, 63, 100
3, 14568, Note_off_c, 1, 63, 64
3, 14580, Note_on_c, 1, 62, 100
3, 14628, Note_off_c, 1, 62, 64
3, 14640, Note_on_c, 1, 66, 100
3, 14688, Note_off_c, 1, 66, 64
3, 14700, Note_on_c, 1, 69, 100
3, 14748, Note_off_c, 1, 69, 64
3, 14760, Note_on_c, 1, 72, 100
3, 14928, Note_off_c, 1, 72, 64
3, 14940, Note_on_c, 1, 74, 100
3, 14988, Note_off_c, 1, 74, 64
3, 15000, Note_on_c, 1, 72, 100
3, 15048, Note_off_c, 1, 72, 64
3, 15060, Note_on_c, 1, 70, 100
3, 15108, Note_off_c, 1, 70, 64
3, 15120, Note_on_c, 1, 72, 100
3, 15168, Note_off_c, 1, 72, 64
3, 15180, Note_on_c, 1, 69, 100
3, 15228, Note_off_c, 1, 69, 64
3, 15240, Note_on_c, 1, 70, 100
3, 15336, Note_off_c, 1, 70, 64
3, 15360, Note_on_c, 1, 69, 100
3, 15408, Note_off_c, 1, 69, 64
3, 15420, Note_on_c, 1, 67, 100
3, 15468, Note_off_c, 1, 67, 64
3, 15480, Note_on_c, 1, 79, 100
3, 15576, Note_off_c, 1, 79, 64
3, 15720, Note_on_c, 1, 75, 100
3, 15768, Note_off_c, 1, 75, 64
3, 15780, Note_on_c, 1, 74, 100
3, 15828, Note_off_c, 1, 74, 64
3, 15840, Note_on_c, 1, 78, 100
3, 15936, Note_off_c, 1, 78, 64
3, 15960, Note_on_c, 1, 79, 100
3, 16008, Note_off_c, 1, 79, 64
3, 16020, Note_on_c, 1, 74, 100
3, 16068, Note_off_c, 1, 74, 64
3, 16080, Note_on_c, 1, 72, 100
3, 16128, Note_off_c, 1, 72, 64
3, 16140, Note_on_c, 1, 70, 100
3, 16188, Note_off_c, 1, 70, 64
3, 16200, Note_on_c, 1, 72, 100
3, 16248, Note_off_c, 1, 72, 64
3, 16260, Note_on_c, 1, 75, 100
3, 16308, Note_off_c, 1, 75, 64
3, 16320, Note_on_c, 1, 70, 100
3, 16368, Note_off_c, 1, 70, 64
3, 16380, Note_on_c, 1, 69, 100
3, 16428, Note_off_c, 1, 69, 64
3, 16440, Note_on_c, 1, 72, 100
3, 16488, Note_off_c, 1, 72, 64
3, 16500, Note_on_c, 1, 70, 100
3, 16548, Note_off_c, 1, 70, 64
3, 16560, Note_on_c, 1, 69, 100
3, 16608, Note_off_c, 1, 69, 64
3, 16620, Note_on_c, 1, 70, 100
3, 16668, Note_off_c, 1, 70, 64
3, 16680, Note_on_c, 1, 67, 100
3, 17232, Note_off_c, 1, 67, 64
3, 20160, Note_on_c, 1, 74, 100
3, 20256, Note_off_c, 1, 74, 64
3, 20280, Note_on_c, 1, 67, 100
3, 20472, Note_off_c, 1, 67, 64
3, 20520, Note_on_c, 1, 70, 100
3, 20616, Note_off_c, 1, 70, 64
3, 20640, Note_on_c, 1, 69, 100
3, 20832, Note_off_c, 1, 69, 64
3, 20880, Note_on_c, 1, 62, 100
3, 20976, Note_off_c, 1, 62, 64
3, 21000, Note_on_c, 1, 67, 100
3, 21144, Note_off_c, 1, 67, 64
3, 21180, Note_on_c, 1, 66, 100
3, 21228, Note_off_c, 1, 66, 64
3, 21240, Note_on_c, 1, 67, 100
3, 21336, Note_off_c, 1, 67, 64
3, 21360, Note_on_c, 1, 55, 100
3, 21552, Note_off_c, 1, 55, 64
3, 21600, Note_on_c, 1, 67, 100
3, 21768, Note_off_c, 1, 67, 64
3, 21780, Note_on_c, 1, 70, 100
3, 21828, Note_off_c, 1, 70, 64
3, 21840, Note_on_c, 1, 69, 100
3, 21888, Note_off_c, 1, 69, 64
3, 21900, Note_on_c, 1, 72, 100
3, 21948, Note_off_c, 1, 72, 64
3, 21960, Note_on_c, 1, 75, 100
3, 22008, Note_off_c, 1, 75, 64
3, 22020, Note_on_c, 1, 67, 100
3, 22068, Note_off_c, 1, 67, 64
3, 22080, Note_on_c, 1, 66, 100
3, 22128, Note_off_c, 1, 66, 64
3, 22140, Note_on_c, 1, 69, 100
3, 22188, Note_off_c, 1, 69, 64
3, 22200, Note_on_c, 1, 63, 100
3, 22248, Note_off_c, 1, 63, 64
3, 22260, Note_on_c, 1, 62, 100
3, 22308, Note_off_c, 1, 62, 64
3, 22320, Note_on_c, 1, 72, 100
3, 22488, Note_off_c, 1, 72, 64
3, 22500, Note_on_c, 1, 69, 100
3, 22548, Note_off_c, 1, 69, 64
3, 22560, Note_on_c, 1, 70, 100
3, 22608, Note_off_c, 1, 70, 64
3, 22620, Note_on_c, 1, 74, 100
3, 22668, Note_off_c, 1, 74, 64
3, 22680, Note_on_c, 1, 79, 100
3, 22728, Note_off_c, 1, 79, 64
3, 22740, Note_on_c, 1, 76, 100
3, 22788, Note_off_c, 1, 76, 64
3, 22800, Note_on_c, 1, 73, 100
3, 22848, Note_off_c, 1, 73, 64
3, 22860, Note_on_c, 1, 72, 100
3, 22908, Note_off_c, 1, 72, 64
3, 22920, Note_on_c, 1, 76, 100
3, 22968, Note_off_c, 1, 76, 64
3, 22980, Note_on_c, 1, 79, 100
3, 23028, Note_off_c, 1, 79, 64
3, 23040, Note_on_c, 1, 82, 100
3, 23088, Note_off_c, 1, 82, 64
3, 23100, Note_on_c, 1, 79, 100
3, 23148, Note_off_c, 1, 79, 64
3, 23160, Note_on_c, 1, 80, 100
3, 23352, Note_off_c, 1, 80, 64
3, 23760, Note_on_c, 1, 77, 100
3, 23928, Note_off_c, 1, 77, 64
3, 23940, Note_on_c, 1, 65, 100
3, 23988, Note_off_c, 1, 65, 64
3, 24000, Note_on_c, 1, 67, 100
3, 24048, Note_off_c, 1, 67, 64
3, 24060, Note_on_c, 1, 70, 100
3, 24108, Note_off_c, 1, 70, 64
3, 24120, Note_on_c, 1, 75, 100
3, 24168, Note_off_c, 1, 75, 64
3, 24180, Note_on_c, 1, 72, 100
3, 24228, Note_off_c, 1, 72, 64
3, 24240, Note_on_c, 1, 70, 100
3, 24288, Note_off_c, 1, 70, 64
3, 24300, Note_on_c, 1, 68, 100
3, 24348, Note_off_c, 1, 68, 64
3, 24360, Note_on_c, 1, 72, 100
3, 24408, Note_off_c, 1, 72, 64
3, 24420, Note_on_c, 1, 75, 100
3, 24468, Note_off_c, 1, 75, 64
3, 24480, Note_on_c, 1, 79, 100
3, 24528, Note_off_c, 1, 79, 64
3, 24540, Note_on_c, 1, 75, 100
3, 24588, Note_off_c, 1, 75, 64
3, 24600, Note_on_c, 1, 77, 100
3, 24792, Note_off_c, 1, 77, 64
3, 25200, Note_on_c, 1, 74, 100
3, 25368, Note_off_c, 1, 74, 64
3, 25380, Note_on_c, 1, 62, 100
3, 25428, Note_off_c, 1, 62, 64
3, 25440, Note_on_c, 1, 63, 100
3, 25488, Note_off_c, 1, 63, 64
3, 25500, Note_on_c, 1, 67, 100
3, 25548, Note_off_c, 1, 67, 64
3, 25560, Note_on_c, 1, 72, 100
3, 25608, Note_off_c, 1, 72, 64
3, 25620, Note_on_c, 1, 68, 100
3, 25668, Note_off_c, 1, 68, 64
3, 25680, Note_on_c, 1, 67, 100
3, 25728, Note_off_c, 1, 67, 64
3, 25740, Note_on_c, 1, 65, 100
3, 25788, Note_off_c, 1, 65, 64
3, 25800, Note_on_c, 1, 71, 100
3, 25848, Note_off_c, 1, 71, 64
3, 25860, Note_on_c, 1, 74, 100
3, 25908, Note_off_c, 1, 74, 64
3, 25920, Note_on_c, 1, 77, 100
3, 25968, Note_off_c, 1, 77, 64
3, 25980, Note_on_c, 1, 74, 100
3, 26028, Note_off_c, 1, 74, 64
3, 26040, Note_on_c, 1, 75, 100
3, 26088, Note_off_c, 1, 75, 64
3, 26100, Note_on_c, 1, 77, 100
3, 26148, Note_off_c, 1, 77, 64
3, 26160, Note_on_c, 1, 79, 100
3, 26256, Note_off_c, 1, 79, 64
3, 26280, Note_on_c, 1, 77, 100
3, 26376, Note_off_c, 1, 77, 64
3, 26400, Note_on_c, 1, 75, 100
3, 26496, Note_off_c, 1, 75, 64
3, 26520, Note_on_c, 1, 80, 100
3, 26664, Note_off_c, 1, 80, 64
3, 26700, Note_on_c, 1, 77, 100
3, 26748, Note_off_c, 1, 77, 64
3, 26760, Note_on_c, 1, 79, 100
3, 26808, Note_off_c, 1, 79, 64
3, 26820, Note_on_c, 1, 74, 100
3, 26868, Note_off_c, 1, 74, 64
3, 26880, Note_on_c, 1, 75, 100
3, 26976, Note_off_c, 1, 75, 64
3, 27120, Note_on_c, 1, 74, 100
3, 27168, Note_off_c, 1, 74, 64
3, 27180, Note_on_c, 1, 77, 100
3, 27228, Note_off_c, 1, 77, 64
3, 27240, Note_on_c, 1, 68, 100
3, 27288, Note_off_c, 1, 68, 64
3, 27300, Note_on_c, 1, 74, 100
3, 27348, Note_off_c, 1, 74, 64
3, 27360, Note_on_c, 1, 77, 100
3, 27528, Note_off_c, 1, 77, 64
3, 27540, Note_on_c, 1, 65, 100
3, 27588, Note_off_c, 1, 65, 64
3, 27600, Note_on_c, 1, 67, 100
3, 27648, Note_off_c, 1, 67, 64
3, 27660, Note_on_c, 1, 70, 100
3, 27708, Note_off_c, 1, 70, 64
3, 27720, Note_on_c, 1, 72, 100
3, 27768, Note_off_c, 1, 72, 64
3, 27780, Note_on_c, 1, 68, 100
3, 27828, Note_off_c, 1, 68, 64
3, 27840, Note_on_c, 1, 70, 100
3, 27888, Note_off_c, 1, 70, 64
3, 27900, Note_on_c, 1, 74, 100
3, 27948, Note_off_c, 1, 74, 64
3, 27960, Note_on_c, 1, 75, 100
3, 28008, Note_off_c, 1, 75, 64
3, 28020, Note_on_c, 1, 77, 100
3, 28068, Note_off_c, 1, 77, 64
3, 28080, Note_on_c, 1, 79, 100
3, 28248, Note_off_c, 1, 79, 64
3, 28260, Note_on_c, 1, 67, 100
3, 28308, Note_off_c, 1, 67, 64
3, 28320, Note_on_c, 1, 68, 100
3, 28368, Note_off_c, 1, 68, 64
3, 28380, Note_on_c, 1, 72, 100
3, 28428, Note_off_c, 1, 72, 64
3, 28440, Note_on_c, 1, 77, 100
3, 28488, Note_off_c, 1, 77, 64
3, 28500, Note_on_c, 1, 73, 100
3, 28548, Note_off_c, 1, 73, 64
3, 28560, Note_on_c, 1, 72, 100
3, 28608, Note_off_c, 1, 72, 64
3, 28620, Note_on_c, 1, 70, 100
3, 28668, Note_off_c, 1, 70, 64
3, 28680, Note_on_c, 1, 76, 100
3, 28728, Note_off_c, 1, 76, 64
3, 28740, Note_on_c, 1, 79, 100
3, 28788, Note_off_c, 1, 79, 64
3, 28800, Note_on_c, 1, 82, 100
3, 28848, Note_off_c, 1, 82, 64
3, 28860, Note_on_c, 1, 79, 100
3, 28908, Note_off_c, 1, 79, 64
3, 28920, Note_on_c, 1, 80, 100
3, 28968, Note_off_c, 1, 80, 64
3, 28980, Note_on_c, 1, 82, 100
3, 29028, Note_off_c, 1, 82, 64
3, 29040, Note_on_c, 1, 84, 100
3, 29153, Note_off_c, 1, 84, 64
3, 29160, Note_on_c, 1, 82, 100
3, 29273, Note_off_c, 1, 82, 64
3, 29280, Note_on_c, 1, 80, 100
3, 29393, Note_off_c, 1, 80, 64
3, 29400, Note_on_c, 1, 74, 100
3, 29736, Note_off_c, 1, 74, 64
3, 29760, Note_on_c, 1, 79, 100
3, 29856, Note_off_c, 1, 79, 64
3, 29880, Note_on_c, 1, 75, 100
3, 29976, Note_off_c, 1, 75, 64
3, 30000, Note_on_c, 1, 72, 100
3, 30096, Note_off_c, 1, 72, 64
3, 30120, Note_on_c, 1, 78, 100
3, 30216, Note_off_c, 1, 78, 64
3, 30240, Note_on_c, 1, 79, 100
3, 30336, Note_off_c, 1, 79, 64
3, 30360, Note_on_c, 1, 79, 80
3, 30372, Note_off_c, 1, 79, 64
3, 30375, Note_on_c, 1, 80, 80
3, 30387, Note_off_c, 1, 80, 64
3, 30390, Note_on_c, 1, 79, 80
3, 30414, Note_off_c, 1, 79, 64
3, 30420, Note_on_c, 1, 69, 100
3, 30468, Note_off_c, 1, 69, 64
3, 30480, Note_on_c, 1, 71, 100
3, 30528, Note_off_c, 1, 71, 64
3, 30540, Note_on_c, 1, 74, 100
3, 30588, Note_off_c, 1, 74, 64
3, 30600, Note_on_c, 1, 77, 100
3, 30768, Note_off_c, 1, 77, 64
3, 30780, Note_on_c, 1, 79, 100
3, 30828, Note_off_c, 1, 79, 64
3, 30840, Note_on_c, 1, 77, 100
3, 30888, Note_off_c, 1, 77, 64
3, 30900, Note_on_c, 1, 75, 100
3, 30948, Note_off_c, 1, 75, 64
3, 30960, Note_on_c, 1, 77, 100
3, 31008, Note_off_c, 1, 77, 64
3, 31020, Note_on_c, 1, 74, 100
3, 31068, Note_off_c, 1, 74, 64
3, 31080, Note_on_c, 1, 75, 100
3, 31272, Note_off_c, 1, 75, 64
3, 31680, Note_on_c, 1, 63, 100
3, 31848, Note_off_c, 1, 63, 64
3, 31860, Note_on_c, 1, 62, 100
3, 31908, Note_off_c, 1, 62, 64
3, 31920, Note_on_c, 1, 66, 100
3, 31968, Note_off_c, 1, 66, 64
3, 31980, Note_on_c, 1, 69, 100
3, 32028, Note_off_c, 1, 69, 64
3, 32040, Note_on_c, 1, 72, 100
3, 32208, Note_off_c, 1, 72, 64
3, 32220, Note_on_c, 1, 74, 100
3, 32268, Note_off_c, 1, 74, 64
3, 32280, Note_on_c, 1, 72, 100
3, 32328, Note_off_c, 1, 72, 64
3, 32340, Note_on_c, 1, 70, 100
3, 32388, Note_off_c, 1, 70, 64
3, 32400, Note_on_c, 1, 72, 100
3, 32448, Note_off_c, 1, 72, 64
3, 32460, Note_on_c, 1, 69, 100
3, 32508, Note_off_c, 1, 69, 64
3, 32520, Note_on_c, 1, 70, 100
3, 32616, Note_off_c, 1, 70, 64
3, 32640, Note_on_c, 1, 69, 100
3, 32688, Note_off_c, 1, 69, 64
3, 32700, Note_on_c, 1, 67, 100
3, 32748, Note_off_c, 1, 67, 64
3, 32760, Note_on_c, 1, 79, 100
3, 32856, Note_off_c, 1, 79, 64
3, 33000, Note_on_c, 1, 75, 100
3, 33048, Note_off_c, 1, 75, 64
3, 33060, Note_on_c, 1, 74, 100
3, 33108, Note_off_c, 1, 74, 64
3, 33120, Note_on_c, 1, 78, 100
3, 33216, Note_off_c, 1, 78, 64
3, 33240, Note_on_c, 1, 79, 100
3, 33288, Note_off_c, 1, 79, 64
3, 33300, Note_on_c, 1, 74, 100
3, 33348, Note_off_c, 1, 74, 64
3, 33360, Note_on_c, 1, 72, 100
3, 33408, Note_off_c, 1, 72, 64
3, 33420, Note_on_c, 1, 70, 100
3, 33468, Note_off_c, 1, 70, 64
3, 33480, Note_on_c, 1, 72, 100
3, 33528, Note_off_c, 1, 72, 64
3, 33540, Note_on_c, 1, 75, 100
3, 33588, Note_off_c, 1, 75, 64
3, 33600, Note_on_c, 1, 70, 100
3, 33648, Note_off_c, 1, 70, 64
3, 33660, Note_on_c, 1, 69, 100
3, 33708, Note_off_c, 1, 69, 64
3, 33720, Note_on_c, 1, 72, 100
3, 33768, Note_off_c, 1, 72, 64
3, 33780, Note_on_c, 1, 70, 100
3, 33828, Note_off_c, 1, 70, 64
3, 33840, Note_on_c, 1, 69, 100
3, 33888, Note_off_c, 1, 69, 64
3, 33900, Note_on_c, 1, 70, 100
3, 33948, Note_off_c, 1, 70, 64
3, 33960, Note_on_c, 1, 67, 100
3, 34512, Note_off_c, 1, 67, 64
3, 34560, Note_on_c, 1, 62, 100
3, 34656, Note_off_c, 1, 62, 64
3, 34680, Note_on_c, 1, 67, 100
3, 34872, Note_off_c, 1, 67, 64
3, 34920, Note_on_c, 1, 63, 100
3, 35016, Note_off_c, 1, 63, 64
3, 35040, Note_on_c, 1, 65, 100
3, 35232, Note_off_c, 1, 65, 64
3, 35280, Note_on_c, 1, 70, 100
3, 35376, Note_off_c, 1, 70, 64
3, 35400, Note_on_c, 1, 63, 100
3, 35544, Note_off_c, 1, 63, 64
3, 35580, Note_on_c, 1, 65, 100
3, 35628, Note_off_c, 1, 65, 64
3, 35640, Note_on_c, 1, 63, 100
3, 35736, Note_off_c, 1, 63, 64
3, 35760, Note_on_c, 1, 75, 100
3, 35808, Note_off_c, 1, 75, 64
3, 35820, Note_on_c, 1, 70, 100
3, 35868, Note_off_c, 1, 70, 64
3, 35880, Note_on_c, 1, 68, 100
3, 35928, Note_off_c, 1, 68, 64
3, 35940, Note_on_c, 1, 67, 100
3, 35988, Note_off_c, 1, 67, 64
3, 36000, Note_on_c, 1, 73, 100
3, 36096, Note_off_c, 1, 73, 64
3, 36180, Note_on_c, 1, 72, 100
3, 36228, Note_off_c, 1, 72, 64
3, 36240, Note_on_c, 1, 70, 100
3, 36288, Note_off_c, 1, 70, 64
3, 36300, Note_on_c, 1, 68, 100
3, 36348, Note_off_c, 1, 68, 64
3, 36360, Note_on_c, 1, 75, 100
3, 36408, Note_off_c, 1, 75, 64
3, 36420, Note_on_c, 1, 74, 100
3, 36468, Note_off_c, 1, 74, 64
3, 36480, Note_on_c, 1, 75, 100
3, 36888, Note_off_c, 1, 75, 64
3, 36900, Note_on_c, 1, 73, 100
3, 36948, Note_off_c, 1, 73, 64
3, 36960, Note_on_c, 1, 72, 100
3, 37008, Note_off_c, 1, 72, 64
3, 37020, Note_on_c, 1, 70, 100
3, 37068, Note_off_c, 1, 70, 64
3, 37080, Note_on_c, 1, 72, 100
3, 37128, Note_off_c, 1, 72, 64
3, 37140, Note_on_c, 1, 68, 100
3, 37188, Note_off_c, 1, 68, 64
3, 37200, Note_on_c, 1, 73, 100
3, 37296, Note_off_c, 1, 73, 64
3, 37320, Note_on_c, 1, 78, 100
3, 37416, Note_off_c, 1, 78, 64
3, 37440, Note_on_c, 1, 72, 100
3, 37536, Note_off_c, 1, 72, 64
3, 37560, Note_on_c, 1, 77, 100
3, 37968, Note_off_c, 1, 77, 64
3, 37980, Note_on_c, 1, 79, 100
3, 38028, Note_off_c, 1, 79, 64
3, 38040, Note_on_c, 1, 77, 100
3, 38088, Note_off_c, 1, 77, 64
3, 38100, Note_on_c, 1, 75, 100
3, 38148, Note_off_c, 1, 75, 64
3, 38160, Note_on_c, 1, 77, 100
3, 38208, Note_off_c, 1, 77, 64
3, 38220, Note_on_c, 1, 74, 100
3, 38268, Note_off_c, 1, 74, 64
3, 38280, Note_on_c, 1, 70, 100
3, 38424, Note_off_c, 1, 70, 64
3, 38460, Note_on_c, 1, 72, 100
3, 38508, Note_off_c, 1, 72, 64
3, 38520, Note_on_c, 1, 73, 100
3, 38616, Note_off_c, 1, 73, 64
3, 38640, Note_on_c, 1, 67, 100
3, 38688, Note_off_c, 1, 67, 64
3, 38700, Note_on_c, 1, 68, 100
3, 38748, Note_off_c, 1, 68, 64
3, 38760, Note_on_c, 1, 67, 100
3, 38808, Note_off_c, 1, 67, 64
3, 38820, Note_on_c, 1, 65, 100
3, 38868, Note_off_c, 1, 65, 64
3, 38880, Note_on_c, 1, 67, 100
3, 38928, Note_off_c, 1, 67, 64
3, 38940, Note_on_c, 1, 64, 100
3, 38988, Note_off_c, 1, 64, 64
3, 39000, Note_on_c, 1, 60, 127
3, 39192, Note_off_c, 1, 60, 64
3, 39240, Note_on_c, 1, 65, 127
3, 39336, Note_off_c, 1, 65, 64
3, 39360, Note_on_c, 1, 58, 127
3, 39456, Note_off_c, 1, 58, 64
3, 39480, Note_on_c, 1, 61, 127
3, 39576, Note_off_c, 1, 61, 64
3, 39600, Note_on_c, 1, 60, 127
3, 39696, Note_off_c, 1, 60, 64
3, 39720, Note_on_c, 1, 60, 127
3, 39816, Note_off_c, 1, 60, 64
3, 39840, Note_on_c, 1, 65, 127
3, 40128, Note_off_c, 1, 65, 64
3, 40140, Note_on_c, 1, 68, 127
3, 40188, Note_off_c, 1, 68, 64
3, 40200, Note_on_c, 1, 67, 127
3, 40248, Note_off_c, 1, 67, 64
3, 40260, Note_on_c, 1, 65, 127
3, 40308, Note_off_c, 1, 65, 64
3, 40320, Note_on_c, 1, 64, 127
3, 40368, Note_off_c, 1, 64, 64
3, 40380, Note_on_c, 1, 65, 127
3, 40428, Note_off_c, 1, 65, 64
3, 40440, Note_on_c, 1, 64, 127
3, 40632, Note_off_c, 1, 64, 64
3, 40860, Note_on_c, 1, 60, 127
3, 40908, Note_off_c, 1, 60, 64
3, 40920, Note_on_c, 1, 63, 127
3, 40968, Note_off_c, 1, 63, 64
3, 40980, Note_on_c, 1, 67, 127
3, 41028, Note_off_c, 1, 67, 64
3, 41040, Note_on_c, 1, 70, 127
3, 41088, Note_off_c, 1, 70, 64
3, 41100, Note_on_c, 1, 67, 127
3, 41148, Note_off_c, 1, 67, 64
3, 41160, Note_on_c, 1, 68, 127
3, 41208, Note_off_c, 1, 68, 64
3, 41220, Note_on_c, 1, 63, 127
3, 41268, Note_off_c, 1, 63, 64
3, 41280, Note_on_c, 1, 65, 127
3, 41376, Note_off_c, 1, 65, 64
3, 41520, Note_on_c, 1, 63, 127
3, 41568, Note_off_c, 1, 63, 64
3, 41580, Note_on_c, 1, 67, 127
3, 41628, Note_off_c, 1, 67, 64
3, 41640, Note_on_c, 1, 58, 127
3, 41688, Note_off_c, 1, 58, 64
3, 41700, Note_on_c, 1, 63, 127
3, 41748, Note_off_c, 1, 63, 64
3, 41760, Note_on_c, 1, 67, 127
3, 41928, Note_off_c, 1, 67, 64
3, 41940, Note_on_c, 1, 55, 127
3, 41988, Note_off_c, 1, 55, 64
3, 42000, Note_on_c, 1, 56, 127
3, 42048, Note_off_c, 1, 56, 64
3, 42060, Note_on_c, 1, 60, 127
3, 42108, Note_off_c, 1, 60, 64
3, 42120, Note_on_c, 1, 61, 127
3, 42168, Note_off_c, 1, 61, 64
3, 42180, Note_on_c, 1, 58, 127
3, 42228, Note_off_c, 1, 58, 64
3, 42240, Note_on_c, 1, 60, 127
3, 42288, Note_off_c, 1, 60, 64
3, 42300, Note_on_c, 1, 64, 127
3, 42348, Note_off_c, 1, 64, 64
3, 42360, Note_on_c, 1, 65, 127
3, 42408, Note_off_c, 1, 65, 64
3, 42420, Note_on_c, 1, 68, 127
3, 42468, Note_off_c, 1, 68, 64
3, 42480, Note_on_c, 1, 70, 127
3, 42648, Note_off_c, 1, 70, 64
3, 42660, Note_on_c, 1, 58, 127
3, 42708, Note_off_c, 1, 58, 64
3, 42720, Note_on_c, 1, 60, 127
3, 42768, Note_off_c, 1, 60, 64
3, 42780, Note_on_c, 1, 63, 127
3, 42828, Note_off_c, 1, 63, 64
3, 42840, Note_on_c, 1, 68, 127
3, 42888, Note_off_c, 1, 68, 64
3, 42900, Note_on_c, 1, 65, 127
3, 42948, Note_off_c, 1, 65, 64
3, 42960, Note_on_c, 1, 63, 127
3, 43008, Note_off_c, 1, 63, 64
3, 43020, Note_on_c, 1, 61, 127
3, 43068, Note_off_c, 1, 61, 64
3, 43080, Note_on_c, 1, 67, 127
3, 43128, Note_off_c, 1, 67, 64
3, 43140, Note_on_c, 1, 70, 127
3, 43188, Note_off_c, 1, 70, 64
3, 43200, Note_on_c, 1, 73, 127
3, 43248, Note_off_c, 1, 73, 64
3, 43260, Note_on_c, 1, 70, 127
3, 43308, Note_off_c, 1, 70, 64
3, 43320, Note_on_c, 1, 72, 127
3, 43368, Note_off_c, 1, 72, 64
3, 43380, Note_on_c, 1, 73, 127
3, 43428, Note_off_c, 1, 73, 64
3, 43440, Note_on_c, 1, 75, 127
3, 43536, Note_off_c, 1, 75, 64
3, 43560, Note_on_c, 1, 73, 127
3, 43656, Note_off_c, 1, 73, 64
3, 43680, Note_on_c, 1, 72, 127
3, 43776, Note_off_c, 1, 72, 64
3, 43800, Note_on_c, 1, 77, 127
3, 43944, Note_off_c, 1, 77, 64
3, 43980, Note_on_c, 1, 75, 127
3, 44028, Note_off_c, 1, 75, 64
3, 44040, Note_on_c, 1, 73, 127
3, 44088, Note_off_c, 1, 73, 64
3, 44100, Note_on_c, 1, 69, 127
3, 44148, Note_off_c, 1, 69, 64
3, 44160, Note_on_c, 1, 70, 127
3, 44256, Note_off_c, 1, 70, 64
3, 44400, Note_on_c, 1, 69, 127
3, 44448, Note_off_c, 1, 69, 64
3, 44460, Note_on_c, 1, 72, 127
3, 44508, Note_off_c, 1, 72, 64
3, 44520, Note_on_c, 1, 63, 127
3, 44568, Note_off_c, 1, 63, 64
3, 44580, Note_on_c, 1, 69, 127
3, 44628, Note_off_c, 1, 69, 64
3, 44640, Note_on_c, 1, 72, 127
3, 44808, Note_off_c, 1, 72, 64
3, 44820, Note_on_c, 1, 60, 127
3, 44868, Note_off_c, 1, 60, 64
3, 44880, Note_on_c, 1, 61, 127
3, 44928, Note_off_c, 1, 61, 64
3, 44940, Note_on_c, 1, 65, 127
3, 44988, Note_off_c, 1, 65, 64
3, 45000, Note_on_c, 1, 66, 127
3, 45048, Note_off_c, 1, 66, 64
3, 45060, Note_on_c, 1, 63, 127
3, 45108, Note_off_c, 1, 63, 64
3, 45120, Note_on_c, 1, 65, 127
3, 45168, Note_off_c, 1, 65, 64
3, 45180, Note_on_c, 1, 69, 127
3, 45228, Note_off_c, 1, 69, 64
3, 45240, Note_on_c, 1, 70, 127
3, 45288, Note_off_c, 1, 70, 64
3, 45300, Note_on_c, 1, 73, 127
3, 45348, Note_off_c, 1, 73, 64
3, 45360, Note_on_c, 1, 72, 127
3, 45408, Note_off_c, 1, 72, 64
3, 45420, Note_on_c, 1, 70, 127
3, 45468, Note_off_c, 1, 70, 64
3, 45480, Note_on_c, 1, 68, 127
3, 45528, Note_off_c, 1, 68, 64
3, 45540, Note_on_c, 1, 67, 127
3, 45588, Note_off_c, 1, 67, 64
3, 45600, Note_on_c, 1, 68, 127
3, 45648, Note_off_c, 1, 68, 64
3, 45660, Note_on_c, 1, 72, 127
3, 45708, Note_off_c, 1, 72, 64
3, 45720, Note_on_c, 1, 77, 127
3, 45768, Note_off_c, 1, 77, 64
3, 45780, Note_on_c, 1, 72, 127
3, 45828, Note_off_c, 1, 72, 64
3, 45840, Note_on_c, 1, 70, 127
3, 45888, Note_off_c, 1, 70, 64
3, 45900, Note_on_c, 1, 68, 127
3, 45948, Note_off_c, 1, 68, 64
3, 45960, Note_on_c, 1, 67, 127
3, 46008, Note_off_c, 1, 67, 64
3, 46020, Note_on_c, 1, 65, 127
3, 46068, Note_off_c, 1, 65, 64
3, 46080, Note_on_c, 1, 64, 127
3, 46128, Note_off_c, 1, 64, 64
3, 46140, Note_on_c, 1, 65, 127
3, 46188, Note_off_c, 1, 65, 64
3, 46200, Note_on_c, 1, 64, 127
3, 46392, Note_off_c, 1, 64, 64
3, 46800, Note_on_c, 1, 72, 127
3, 46896, Note_off_c, 1, 72, 64
3, 46920, Note_on_c, 1, 65, 127
3, 47112, Note_off_c, 1, 65, 64
3, 47160, Note_on_c, 1, 68, 127
3, 47256, Note_off_c, 1, 68, 64
3, 47280, Note_on_c, 1, 67, 127
3, 47472, Note_off_c, 1, 67, 64
3, 47520, Note_on_c, 1, 60, 127
3, 47616, Note_off_c, 1, 60, 64
3, 47640, Note_on_c, 1, 65, 127
3, 47784, Note_off_c, 1, 65, 64
3, 47820, Note_on_c, 1, 64, 127
3, 47868, Note_off_c, 1, 64, 64
3, 47880, Note_on_c, 1, 65, 127
3, 47976, Note_off_c, 1, 65, 64
3, 48000, Note_on_c, 1, 55, 127
3, 48048, Note_off_c, 1, 55, 64
3, 48060, Note_on_c, 1, 67, 127
3, 48108, Note_off_c, 1, 67, 64
3, 48120, Note_on_c, 1, 65, 127
3, 48168, Note_off_c, 1, 65, 64
3, 48180, Note_on_c, 1, 63, 127
3, 48228, Note_off_c, 1, 63, 64
3, 48240, Note_on_c, 1, 65, 127
3, 48288, Note_off_c, 1, 65, 64
3, 48300, Note_on_c, 1, 62, 127
3, 48348, Note_off_c, 1, 62, 64
3, 48360, Note_on_c, 1, 63, 127
3, 48408, Note_off_c, 1, 63, 64
3, 48420, Note_on_c, 1, 59, 127
3, 48468, Note_off_c, 1, 59, 64
3, 48480, Note_on_c, 1, 60, 127
3, 48528, Note_off_c, 1, 60, 64
3, 48540, Note_on_c, 1, 63, 127
3, 48588, Note_off_c, 1, 63, 64
3, 48600, Note_on_c, 1, 68, 127
3, 48768, Note_off_c, 1, 68, 64
3, 48780, Note_on_c, 1, 66, 127
3, 48828, Note_off_c, 1, 66, 64
3, 48840, Note_on_c, 1, 67, 127
3, 48888, Note_off_c, 1, 67, 64
3, 48900, Note_on_c, 1, 70, 127
3, 48948, Note_off_c, 1, 70, 64
3, 48960, Note_on_c, 1, 75, 127
3, 49128, Note_off_c, 1, 75, 64
3, 49140, Note_on_c, 1, 74, 127
3, 49188, Note_off_c, 1, 74, 64
3, 49200, Note_on_c, 1, 72, 127
3, 49248, Note_off_c, 1, 72, 64
3, 49260, Note_on_c, 1, 74, 127
3, 49308, Note_off_c, 1, 74, 64
3, 49320, Note_on_c, 1, 75, 127
3, 49368, Note_off_c, 1, 75, 64
3, 49380, Note_on_c, 1, 72, 127
3, 49428, Note_off_c, 1, 72, 64
3, 49440, Note_on_c, 1, 81, 127
3, 49488, Note_off_c, 1, 81, 64
3, 49500, Note_on_c, 1, 79, 127
3, 49548, Note_off_c, 1, 79, 64
3, 49560, Note_on_c, 1, 78, 127
3, 49608, Note_off_c, 1, 78, 64
3, 49620, Note_on_c, 1, 79, 127
3, 49668, Note_off_c, 1, 79, 64
3, 49680, Note_on_c, 1, 81, 127
3, 49728, Note_off_c, 1, 81, 64
3, 49740, Note_on_c, 1, 74, 127
3, 49788, Note_off_c, 1, 74, 64
3, 49800, Note_on_c, 1, 75, 127
3, 49848, Note_off_c, 1, 75, 64
3, 49860, Note_on_c, 1, 72, 127
3, 49908, Note_off_c, 1, 72, 64
3, 49920, Note_on_c, 1, 74, 127
3, 50016, Note_off_c, 1, 74, 64
3, 50400, Note_on_c, 1, 79, 127
3, 50568, Note_off_c, 1, 79, 64
3, 50580, Note_on_c, 1, 67, 127
3, 50628, Note_off_c, 1, 67, 64
3, 50640, Note_on_c, 1, 68, 127
3, 50688, Note_off_c, 1, 68, 64
3, 50700, Note_on_c, 1, 72, 127
3, 50748, Note_off_c, 1, 72, 64
3, 50760, Note_on_c, 1, 77, 127
3, 50808, Note_off_c, 1, 77, 64
3, 50820, Note_on_c, 1, 74, 127
3, 50868, Note_off_c, 1, 74, 64
3, 50880, Note_on_c, 1, 72, 127
3, 50928, Note_off_c, 1, 72, 64
3, 50940, Note_on_c, 1, 70, 127
3, 50988, Note_off_c, 1, 70, 64
3, 51000, Note_on_c, 1, 74, 127
3, 51048, Note_off_c, 1, 74, 64
3, 51060, Note_on_c, 1, 77, 127
3, 51108, Note_off_c, 1, 77, 64
3, 51120, Note_on_c, 1, 80, 127
3, 51168, Note_off_c, 1, 80, 64
3, 51180, Note_on_c, 1, 77, 127
3, 51228, Note_off_c, 1, 77, 64
3, 51240, Note_on_c, 1, 79, 127
3, 51432, Note_off_c, 1, 79, 64
3, 51840, Note_on_c, 1, 75, 127
3, 52008, Note_off_c, 1, 75, 64
3, 52020, Note_on_c, 1, 63, 127
3, 52068, Note_off_c, 1, 63, 64
3, 52080, Note_on_c, 1, 65, 127
3, 52128, Note_off_c, 1, 65, 64
3, 52140, Note_on_c, 1, 71, 127
3, 52188, Note_off_c, 1, 71, 64
3, 52200, Note_on_c, 1, 74, 127
3, 52248, Note_off_c, 1, 74, 64
3, 52260, Note_on_c, 1, 71, 127
3, 52308, Note_off_c, 1, 71, 64
3, 52320, Note_on_c, 1, 68, 127
3, 52368, Note_off_c, 1, 68, 64
3, 52380, Note_on_c, 1, 67, 127
3, 52428, Note_off_c, 1, 67, 64
3, 52440, Note_on_c, 1, 71, 127
3, 52488, Note_off_c, 1, 71, 64
3, 52500, Note_on_c, 1, 74, 127
3, 52548, Note_off_c, 1, 74, 64
3, 52560, Note_on_c, 1, 77, 127
3, 52608, Note_off_c, 1, 77, 64
3, 52620, Note_on_c, 1, 74, 127
3, 52668, Note_off_c, 1, 74, 64
3, 52680, Note_on_c, 1, 75, 127
3, 52728, Note_off_c, 1, 75, 64
3, 52740, Note_on_c, 1, 71, 127
3, 52788, Note_off_c, 1, 71, 64
3, 52800, Note_on_c, 1, 72, 127
3, 52896, Note_off_c, 1, 72, 64
3, 53040, Note_on_c, 1, 71, 127
3, 53088, Note_off_c, 1, 71, 64
3, 53100, Note_on_c, 1, 74, 127
3, 53148, Note_off_c, 1, 74, 64
3, 53160, Note_on_c, 1, 65, 127
3, 53208, Note_off_c, 1, 65, 64
3, 53220, Note_on_c, 1, 71, 127
3, 53268, Note_off_c, 1, 71, 64
3, 53280, Note_on_c, 1, 74, 127
3, 53448, Note_off_c, 1, 74, 64
3, 53460, Note_on_c, 1, 62, 127
3, 53508, Note_off_c, 1, 62, 64
3, 53520, Note_on_c, 1, 63, 127
3, 53568, Note_off_c, 1, 63, 64
3, 53580, Note_on_c, 1, 67, 127
3, 53628, Note_off_c, 1, 67, 64
3, 53640, Note_on_c, 1, 68, 127
3, 53688, Note_off_c, 1, 68, 64
3, 53700, Note_on_c, 1, 65, 127
3, 53748, Note_off_c, 1, 65, 64
3, 53760, Note_on_c, 1, 67, 127
3, 53808, Note_off_c, 1, 67, 64
3, 53820, Note_on_c, 1, 71, 127
3, 53868, Note_off_c, 1, 71, 64
3, 53880, Note_on_c, 1, 72, 127
3, 53928, Note_off_c, 1, 72, 64
3, 53940, Note_on_c, 1, 74, 127
3, 53988, Note_off_c, 1, 74, 64
3, 54000, Note_on_c, 1, 75, 127
3, 54168, Note_off_c, 1, 75, 64
3, 54180, Note_on_c, 1, 67, 127
3, 54228, Note_off_c, 1, 67, 64
3, 54240, Note_on_c, 1, 66, 127
3, 54288, Note_off_c, 1, 66, 64
3, 54300, Note_on_c, 1, 69, 127
3, 54348, Note_off_c, 1, 69, 64
3, 54360, Note_on_c, 1, 72, 127
3, 54528, Note_off_c, 1, 72, 64
3, 54540, Note_on_c, 1, 74, 127
3, 54588, Note_off_c, 1, 74, 64
3, 54600, Note_on_c, 1, 72, 127
3, 54648, Note_off_c, 1, 72, 64
3, 54660, Note_on_c, 1, 71, 127
3, 54708, Note_off_c, 1, 71, 64
3, 54720, Note_on_c, 1, 72, 127
3, 54768, Note_off_c, 1, 72, 64
3, 54780, Note_on_c, 1, 69, 127
3, 54828, Note_off_c, 1, 69, 64
3, 54840, Note_on_c, 1, 71, 127
3, 54888, Note_off_c, 1, 71, 64
3, 54900, Note_on_c, 1, 75, 127
3, 54948, Note_off_c, 1, 75, 64
3, 54960, Note_on_c, 1, 74, 127
3, 55056, Note_off_c, 1, 74, 64
3, 55200, Note_on_c, 1, 68, 127
3, 55248, Note_off_c, 1, 68, 64
3, 55260, Note_on_c, 1, 67, 127
3, 55308, Note_off_c, 1, 67, 64
3, 55320, Note_on_c, 1, 71, 127
3, 55416, Note_off_c, 1, 71, 64
3, 55560, Note_on_c, 1, 72, 127
3, 55608, Note_off_c, 1, 72, 64
3, 55620, Note_on_c, 1, 67, 127
3, 55668, Note_off_c, 1, 67, 64
3, 55680, Note_on_c, 1, 65, 127
3, 55728, Note_off_c, 1, 65, 64
3, 55740, Note_on_c, 1, 63, 127
3, 55788, Note_off_c, 1, 63, 64
3, 55800, Note_on_c, 1, 65, 127
3, 55848, Note_off_c, 1, 65, 64
3, 55860, Note_on_c, 1, 68, 127
3, 55908, Note_off_c, 1, 68, 64
3, 55920, Note_on_c, 1, 63, 127
3, 55968, Note_off_c, 1, 63, 64
3, 55980, Note_on_c, 1, 62, 127
3, 56028, Note_off_c, 1, 62, 64
3, 56040, Note_on_c, 1, 65, 127
3, 56088, Note_off_c, 1, 65, 64
3, 56100, Note_on_c, 1, 63, 127
3, 56148, Note_off_c, 1, 63, 64
3, 56160, Note_on_c, 1, 62, 127
3, 56208, Note_off_c, 1, 62, 64
3, 56220, Note_on_c, 1, 63, 127
3, 56268, Note_off_c, 1, 63, 64
3, 56280, Note_on_c, 1, 60, 127
3, 56328, Note_off_c, 1, 60, 64
3, 56340, Note_on_c, 1, 63, 127
3, 56388, Note_off_c, 1, 63, 64
3, 56400, Note_on_c, 1, 62, 127
3, 56448, Note_off_c, 1, 62, 64
3, 56460, Note_on_c, 1, 60, 127
3, 56508, Note_off_c, 1, 60, 64
3, 56520, Note_on_c, 1, 62, 127
3, 56568, Note_off_c, 1, 62, 64
3, 56580, Note_on_c, 1, 59, 127
3, 56628, Note_off_c, 1, 59, 64
3, 56640, Note_on_c, 1, 55, 127
3, 56736, Note_off_c, 1, 55, 64
3, 56760, Note_on_c, 1, 60, 127
3, 56856, Note_off_c, 1, 60, 64
3, 56880, Note_on_c, 1, 59, 127
3, 56976, Note_off_c, 1, 59, 64
3, 57000, Note_on_c, 1, 60, 127
3, 57552, Note_off_c, 1, 60, 64
3, 57720, Note_on_c, 1, 62, 100
3, 57816, Note_off_c, 1, 62, 64
3, 57840, Note_on_c, 1, 67, 100
3, 58032, Note_off_c, 1, 67, 64
3, 58080, Note_on_c, 1, 63, 100
3, 58176, Note_off_c, 1, 63, 64
3, 58200, Note_on_c, 1, 65, 100
3, 58392, Note_off_c, 1, 65, 64
3, 58440, Note_on_c, 1, 70, 100
3, 58536, Note_off_c, 1, 70, 64
3, 58560, Note_on_c, 1, 63, 100
3, 58704, Note_off_c, 1, 63, 64
3, 58740, Note_on_c, 1, 65, 100
3, 58788, Note_off_c, 1, 65, 64
3, 58800, Note_on_c, 1, 63, 100
3, 58896, Note_off_c, 1, 63, 64
3, 58920, Note_on_c, 1, 75, 100
3, 58968, Note_off_c, 1, 75, 64
3, 58980, Note_on_c, 1, 70, 100
3, 59028, Note_off_c, 1, 70, 64
3, 59040, Note_on_c, 1, 68, 100
3, 59088, Note_off_c, 1, 68, 64
3, 59100, Note_on_c, 1, 67, 100
3, 59148, Note_off_c, 1, 67, 64
3, 59160, Note_on_c, 1, 73, 100
3, 59256, Note_off_c, 1, 73, 64
3, 59340, Note_on_c, 1, 72, 100
3, 59388, Note_off_c, 1, 72, 64
3, 59400, Note_on_c, 1, 70, 100
3, 59448, Note_off_c, 1, 70, 64
3, 59460, Note_on_c, 1, 68, 100
3, 59508, Note_off_c, 1, 68, 64
3, 59520, Note_on_c, 1, 75, 100
3, 59568, Note_off_c, 1, 75, 64
3, 59580, Note_on_c, 1, 74, 100
3, 59628, Note_off_c, 1, 74, 64
3, 59640, Note_on_c, 1, 75, 100
3, 60048, Note_off_c, 1, 75, 64
3, 60060, Note_on_c, 1, 73, 100
3, 60108, Note_off_c, 1, 73, 64
3, 60120, Note_on_c, 1, 72, 100
3, 60168, Note_off_c, 1, 72, 64
3, 60180, Note_on_c, 1, 70, 100
3, 60228, Note_off_c, 1, 70, 64
3, 60240, Note_on_c, 1, 72, 100
3, 60288, Note_off_c, 1, 72, 64
3, 60300, Note_on_c, 1, 68, 100
3, 60348, Note_off_c, 1, 68, 64
3, 60360, Note_on_c, 1, 73, 100
3, 60456, Note_off_c, 1, 73, 64
3, 60480, Note_on_c, 1, 78, 100
3, 60576, Note_off_c, 1, 78, 64
3, 60600, Note_on_c, 1, 72, 100
3, 60696, Note_off_c, 1, 72, 64
3, 60720, Note_on_c, 1, 77, 100
3, 61128, Note_off_c, 1, 77, 64
3, 61140, Note_on_c, 1, 79, 100
3, 61188, Note_off_c, 1, 79, 64
3, 61200, Note_on_c, 1, 77, 100
3, 61248, Note_off_c, 1, 77, 64
3, 61260, Note_on_c, 1, 75, 100
3, 61308, Note_off_c, 1, 75, 64
3, 61320, Note_on_c, 1, 77, 100
3, 61368, Note_off_c, 1, 77, 64
3, 61380, Note_on_c, 1, 74, 100
3, 61428, Note_off_c, 1, 74, 64
3, 61440, Note_on_c, 1, 70, 100
3, 61584, Note_off_c, 1, 70, 64
3, 61620, Note_on_c, 1, 72, 100
3, 61668, Note_off_c, 1, 72, 64
3, 61680, Note_on_c, 1, 73, 100
3, 61776, Note_off_c, 1, 73, 64
3, 61800, Note_on_c, 1, 67, 100
3, 61848, Note_off_c, 1, 67, 64
3, 61860, Note_on_c, 1, 68, 100
3, 61908, Note_off_c, 1, 68, 64
3, 61920, Note_on_c, 1, 67, 100
3, 61968, Note_off_c, 1, 67, 64
3, 61980, Note_on_c, 1, 65, 100
3, 62028, Note_off_c, 1, 65, 64
3, 62040, Note_on_c, 1, 67, 100
3, 62088, Note_off_c, 1, 67, 64
3, 62100, Note_on_c, 1, 64, 100
3, 62148, Note_off_c, 1, 64, 64
3, 62160, Note_on_c, 1, 60, 127
3, 62352, Note_off_c, 1, 60, 64
3, 62400, Note_on_c, 1, 65, 127
3, 62496, Note_off_c, 1, 65, 64
3, 62520, Note_on_c, 1, 58, 127
3, 62616, Note_off_c, 1, 58, 64
3, 62640, Note_on_c, 1, 61, 127
3, 62736, Note_off_c, 1, 61, 64
3, 62760, Note_on_c, 1, 60, 127
3, 62856, Note_off_c, 1, 60, 64
3, 62880, Note_on_c, 1, 60, 127
3, 62976, Note_off_c, 1, 60, 64
3, 63000, Note_on_c, 1, 65, 127
3, 63288, Note_off_c, 1, 65, 64
3, 63300, Note_on_c, 1, 68, 127
3, 63348, Note_off_c, 1, 68, 64
3, 63360, Note_on_c, 1, 67, 127
3, 63408, Note_off_c, 1, 67, 64
3, 63420, Note_on_c, 1, 65, 127
3, 63468, Note_off_c, 1, 65, 64
3, 63480, Note_on_c, 1, 64, 127
3, 63528, Note_off_c, 1, 64, 64
3, 63540, Note_on_c, 1, 65, 127
3, 63588, Note_off_c, 1, 65, 64
3, 63600, Note_on_c, 1, 64, 127
3, 63792, Note_off_c, 1, 64, 64
3, 64020, Note_on_c, 1, 60, 127
3, 64068, Note_off_c, 1, 60, 64
3, 64080, Note_on_c, 1, 63, 127
3, 64128, Note_off_c, 1, 63, 64
3, 64140, Note_on_c, 1, 67, 127
3, 64188, Note_off_c, 1, 67, 64
3, 64200, Note_on_c, 1, 70, 127
3, 64248, Note_off_c, 1, 70, 64
3, 64260, Note_on_c, 1, 67, 127
3, 64308, Note_off_c, 1, 67, 64
3, 64320, Note_on_c, 1, 68, 127
3, 64368, Note_off_c, 1, 68, 64
3, 64380, Note_on_c, 1, 63, 127
3, 64428, Note_off_c, 1, 63, 64
3, 64440, Note_on_c, 1, 65, 127
3, 64536, Note_off_c, 1, 65, 64
3, 64680, Note_on_c, 1, 63, 127
3, 64728, Note_off_c, 1, 63, 64
3, 64740, Note_on_c, 1, 67, 127
3, 64788, Note_off_c, 1, 67, 64
3, 64800, Note_on_c, 1, 58, 127
3, 64848, Note_off_c, 1, 58, 64
3, 64860, Note_on_c, 1, 63, 127
3, 64908, Note_off_c, 1, 63, 64
3, 64920, Note_on_c, 1, 67, 127
3, 65088, Note_off_c, 1, 67, 64
3, 65100, Note_on_c, 1, 55, 127
3, 65148, Note_off_c, 1, 55, 64
3, 65160, Note_on_c, 1, 56, 127
3, 65208, Note_off_c, 1, 56, 64
3, 65220, Note_on_c, 1, 60, 127
3, 65268, Note_off_c, 1, 60, 64
3, 65280, Note_on_c, 1, 61, 127
3, 65328, Note_off_c, 1, 61, 64
3, 65340, Note_on_c, 1, 58, 127
3, 65388, Note_off_c, 1, 58, 64
3, 65400, Note_on_c, 1, 60, 127
3, 65448, Note_off_c, 1, 60, 64
3, 65460, Note_on_c, 1, 64, 127
3, 65508, Note_off_c, 1, 64, 64
3, 65520, Note_on_c, 1, 65, 127
3, 65568, Note_off_c, 1, 65, 64
3, 65580, Note_on_c, 1, 68, 127
3, 65628, Note_off_c, 1, 68, 64
3, 65640, Note_on_c, 1, 70, 127
3, 65808, Note_off_c, 1, 70, 64
3, 65820, Note_on_c, 1, 58, 127
3, 65868, Note_off_c, 1, 58, 64
3, 65880, Note_on_c, 1, 60, 127
3, 65928, Note_off_c, 1, 60, 64
3, 65940, Note_on_c, 1, 63, 127
3, 65988, Note_off_c, 1, 63, 64
3, 66000, Note_on_c, 1, 68, 127
3, 66048, Note_off_c, 1, 68, 64
3, 66060, Note_on_c, 1, 65, 127
3, 66108, Note_off_c, 1, 65, 64
3, 66120, Note_on_c, 1, 63, 127
3, 66168, Note_off_c, 1, 63, 64
3, 66180, Note_on_c, 1, 61, 127
3, 66228, Note_off_c, 1, 61, 64
3, 66240, Note_on_c, 1, 67, 127
3, 66288, Note_off_c, 1, 67, 64
3, 66300, Note_on_c, 1, 70, 127
3, 66348, Note_off_c, 1, 70, 64
3, 66360, Note_on_c, 1, 73, 127
3, 66408, Note_off_c, 1, 73, 64
3, 66420, Note_on_c, 1, 70, 127
3, 66468, Note_off_c, 1, 70, 64
3, 66480, Note_on_c, 1, 72, 127
3, 66528, Note_off_c, 1, 72, 64
3, 66540, Note_on_c, 1, 73, 127
3, 66588, Note_off_c, 1, 73, 64
3, 66600, Note_on_c, 1, 75, 127
3, 66696, Note_off_c, 1, 75, 64
3, 66720, Note_on_c, 1, 73, 127
3, 66816, Note_off_c, 1, 73, 64
3, 66840, Note_on_c, 1, 72, 127
3, 66936, Note_off_c, 1, 72, 64
3, 66960, Note_on_c, 1, 77, 127
3, 67104, Note_off_c, 1, 77, 64
3, 67140, Note_on_c, 1, 75, 127
3, 67188, Note_off_c, 1, 75, 64
3, 67200, Note_on_c, 1, 73, 127
3, 67248, Note_off_c, 1, 73, 64
3, 67260, Note_on_c, 1, 69, 127
3, 67308, Note_off_c, 1, 69, 64
3, 67320, Note_on_c, 1, 70, 127
3, 67416, Note_off_c, 1, 70, 64
3, 67560, Note_on_c, 1, 69, 127
3, 67608, Note_off_c, 1, 69, 64
3, 67620, Note_on_c, 1, 72, 127
3, 67668, Note_off_c, 1, 72, 64
3, 67680, Note_on_c, 1, 63, 127
3, 67728, Note_off_c, 1, 63, 64
3, 67740, Note_on_c, 1, 69, 127
3, 67788, Note_off_c, 1, 69, 64
3, 67800, Note_on_c, 1, 72, 127
3, 67968, Note_off_c, 1, 72, 64
3, 67980, Note_on_c, 1, 60, 127
3, 68028, Note_off_c, 1, 60, 64
3, 68040, Note_on_c, 1, 61, 127
3, 68088, Note_off_c, 1, 61, 64
3, 68100, Note_on_c, 1, 65, 127
3, 68148, Note_off_c, 1, 65, 64
3, 68160, Note_on_c, 1, 66, 127
3, 68208, Note_off_c, 1, 66, 64
3, 68220, Note_on_c, 1, 63, 127
3, 68268, Note_off_c, 1, 63, 64
3, 68280, Note_on_c, 1, 65, 127
3, 68328, Note_off_c, 1, 65, 64
3, 68340, Note_on_c, 1, 69, 127
3, 68388, Note_off_c, 1, 69, 64
3, 68400, Note_on_c, 1, 70, 127
3, 68448, Note_off_c, 1, 70, 64
3, 68460, Note_on_c, 1, 73, 127
3, 68508, Note_off_c, 1, 73, 64
3, 68520, Note_on_c, 1, 72, 127
3, 68568, Note_off_c, 1, 72, 64
3, 68580, Note_on_c, 1, 70, 127
3, 68628, Note_off_c, 1, 70, 64
3, 68640, Note_on_c, 1, 68, 127
3, 68688, Note_off_c, 1, 68, 64
3, 68700, Note_on_c, 1, 67, 127
3, 68748, Note_off_c, 1, 67, 64
3, 68760, Note_on_c, 1, 68, 127
3, 68808, Note_off_c, 1, 68, 64
3, 68820, Note_on_c, 1, 72, 127
3, 68868, Note_off_c, 1, 72, 64
3, 68880, Note_on_c, 1, 77, 127
3, 68928, Note_off_c, 1, 77, 64
3, 68940, Note_on_c, 1, 72, 127
3, 68988, Note_off_c, 1, 72, 64
3, 69000, Note_on_c, 1, 70, 127
3, 69048, Note_off_c, 1, 70, 64
3, 69060, Note_on_c, 1, 68, 127
3, 69108, Note_off_c, 1, 68, 64
3, 69120, Note_on_c, 1, 67, 127
3, 69168, Note_off_c, 1, 67, 64
3, 69180, Note_on_c, 1, 65, 127
3, 69228, Note_off_c, 1, 65, 64
3, 69240, Note_on_c, 1, 64, 127
3, 69288, Note_off_c, 1, 64, 64
3, 69300, Note_on_c, 1, 65, 127
3, 69348, Note_off_c, 1, 65, 64
3, 69360, Note_on_c, 1, 64, 127
3, 69552, Note_off_c, 1, 64, 64
3, 69960, Note_on_c, 1, 72, 127
3, 70056, Note_off_c, 1, 72, 64
3, 70080, Note_on_c, 1, 65, 127
3, 70272, Note_off_c, 1, 65, 64
3, 70320, Note_on_c, 1, 68, 127
3, 70416, Note_off_c, 1, 68, 64
3, 70440, Note_on_c, 1, 67, 127
3, 70632, Note_off_c, 1, 67, 64
3, 70680, Note_on_c, 1, 60, 127
3, 70776, Note_off_c, 1, 60, 64
3, 70800, Note_on_c, 1, 65, 127
3, 70944, Note_off_c, 1, 65, 64
3, 70980, Note_on_c, 1, 64, 127
3, 71028, Note_off_c, 1, 64, 64
3, 71040, Note_on_c, 1, 65, 127
3, 71136, Note_off_c, 1, 65, 64
3, 71160, Note_on_c, 1, 55, 127
3, 71208, Note_off_c, 1, 55, 64
3, 71220, Note_on_c, 1, 67, 127
3, 71268, Note_off_c, 1, 67, 64
3, 71280, Note_on_c, 1, 65, 127
3, 71328, Note_off_c, 1, 65, 64
3, 71340, Note_on_c, 1, 63, 127
3, 71388, Note_off_c, 1, 63, 64
3, 71400, Note_on_c, 1, 65, 127
3, 71448, Note_off_c, 1, 65, 64
3, 71460, Note_on_c, 1, 62, 127
3, 71508, Note_off_c, 1, 62, 64
3, 71520, Note_on_c, 1, 63, 127
3, 71568, Note_off_c, 1, 63, 64
3, 71580, Note_on_c, 1, 59, 127
3, 71628, Note_off_c, 1, 59, 64
3, 71640, Note_on_c, 1, 60, 127
3, 71688, Note_off_c, 1, 60, 64
3, 71700, Note_on_c, 1, 63, 127
3, 71748, Note_off_c, 1, 63, 64
3, 71760, Note_on_c, 1, 68, 127
3, 71928, Note_off_c, 1, 68, 64
3, 71940, Note_on_c, 1, 66, 127
3, 71988, Note_off_c, 1, 66, 64
3, 72000, Note_on_c, 1, 67, 127
3, 72048, Note_off_c, 1, 67, 64
3, 72060, Note_on_c, 1, 70, 127
3, 72108, Note_off_c, 1, 70, 64
3, 72120, Note_on_c, 1, 75, 127
3, 72288, Note_off_c, 1, 75, 64
3, 72300, Note_on_c, 1, 74, 127
3, 72348, Note_off_c, 1, 74, 64
3, 72360, Note_on_c, 1, 72, 127
3, 72408, Note_off_c, 1, 72, 64
3, 72420, Note_on_c, 1, 74, 127
3, 72468, Note_off_c, 1, 74, 64
3, 72480, Note_on_c, 1, 75, 127
3, 72528, Note_off_c, 1, 75, 64
3, 72540, Note_on_c, 1, 72, 127
3, 72588, Note_off_c, 1, 72, 64
3, 72600, Note_on_c, 1, 81, 127
3, 72648, Note_off_c, 1, 81, 64
3, 72660, Note_on_c, 1, 79, 127
3, 72708, Note_off_c, 1, 79, 64
3, 72720, Note_on_c, 1, 78, 127
3, 72768, Note_off_c, 1, 78, 64
3, 72780, Note_on_c, 1, 79, 127
3, 72828, Note_off_c, 1, 79, 64
3, 72840, Note_on_c, 1, 81, 127
3, 72888, Note_off_c, 1, 81, 64
3, 72900, Note_on_c, 1, 74, 127
3, 72948, Note_off_c, 1, 74, 64
3, 72960, Note_on_c, 1, 75, 127
3, 73008, Note_off_c, 1, 75, 64
3, 73020, Note_on_c, 1, 72, 127
3, 73068, Note_off_c, 1, 72, 64
3, 73080, Note_on_c, 1, 74, 127
3, 73176, Note_off_c, 1, 74, 64
3, 73560, Note_on_c, 1, 79, 127
3, 73728, Note_off_c, 1, 79, 64
3, 73740, Note_on_c, 1, 67, 127
3, 73788, Note_off_c, 1, 67, 64
3, 73800, Note_on_c, 1, 68, 127
3, 73848, Note_off_c, 1, 68, 64
3, 73860, Note_on_c, 1, 72, 127
3, 73908, Note_off_c, 1, 72, 64
3, 73920, Note_on_c, 1, 77, 127
3, 73968, Note_off_c, 1, 77, 64
3, 73980, Note_on_c, 1, 74, 127
3, 74028, Note_off_c, 1, 74, 64
3, 74040, Note_on_c, 1, 72, 127
3, 74088, Note_off_c, 1, 72, 64
3, 74100, Note_on_c, 1, 70, 127
3, 74148, Note_off_c, 1, 70, 64
3, 74160, Note_on_c, 1, 74, 127
3, 74208, Note_off_c, 1, 74, 64
3, 74220, Note_on_c, 1, 77, 127
3, 74268, Note_off_c, 1, 77, 64
3, 74280, Note_on_c, 1, 80, 127
3, 74328, Note_off_c, 1, 80, 64
3, 74340, Note_on_c, 1, 77, 127
3, 74388, Note_off_c, 1, 77, 64
3, 74400, Note_on_c, 1, 79, 127
3, 74592, Note_off_c, 1, 79, 64
3, 75000, Note_on_c, 1, 75, 127
3, 75168, Note_off_c, 1, 75, 64
3, 75180, Note_on_c, 1, 63, 127
3, 75228, Note_off_c, 1, 63, 64
3, 75240, Note_on_c, 1, 65, 127
3, 75288, Note_off_c, 1, 65, 64
3, 75300, Note_on_c, 1, 71, 127
3, 75348, Note_off_c, 1, 71, 64
3, 75360, Note_on_c, 1, 74, 127
3, 75408, Note_off_c, 1, 74, 64
3, 75420, Note_on_c, 1, 71, 127
3, 75468, Note_off_c, 1, 71, 64
3, 75480, Note_on_c, 1, 68, 127
3, 75528, Note_off_c, 1, 68, 64
3, 75540, Note_on_c, 1, 67, 127
3, 75588, Note_off_c, 1, 67, 64
3, 75600, Note_on_c, 1, 71, 127
3, 75648, Note_off_c, 1, 71, 64
3, 75660, Note_on_c, 1, 74, 127
3, 75708, Note_off_c, 1, 74, 64
3, 75720, Note_on_c, 1, 77, 127
3, 75768, Note_off_c, 1, 77, 64
3, 75780, Note_on_c, 1, 74, 127
3, 75828, Note_off_c, 1, 74, 64
3, 75840, Note_on_c, 1, 75, 127
3, 75888, Note_off_c, 1, 75, 64
3, 75900, Note_on_c, 1, 71, 127
3, 75948, Note_off_c, 1, 71, 64
3, 75960, Note_on_c, 1, 72, 127
3, 76056, Note_off_c, 1, 72, 64
3, 76200, Note_on_c, 1, 71, 127
3, 76248, Note_off_c, 1, 71, 64
3, 76260, Note_on_c, 1, 74, 127
3, 76308, Note_off_c, 1, 74, 64
3, 76320, Note_on_c, 1, 65, 127
3, 76368, Note_off_c, 1, 65, 64
3, 76380, Note_on_c, 1, 71, 127
3, 76428, Note_off_c, 1, 71, 64
3, 76440, Note_on_c, 1, 74, 127
3, 76608, Note_off_c, 1, 74, 64
3, 76620, Note_on_c, 1, 62, 127
3, 76668, Note_off_c, 1, 62, 64
3, 76680, Note_on_c, 1, 63, 127
3, 76728, Note_off_c, 1, 63, 64
3, 76740, Note_on_c, 1, 67, 127
3, 76788, Note_off_c, 1, 67, 64
3, 76800, Note_on_c, 1, 68, 127
3, 76848, Note_off_c, 1, 68, 64
3, 76860, Note_on_c, 1, 65, 127
3, 76908, Note_off_c, 1, 65, 64
3, 76920, Note_on_c, 1, 67, 127
3, 76968, Note_off_c, 1, 67, 64
3, 76980, Note_on_c, 1, 71, 127
3, 77028, Note_off_c, 1, 71, 64
3, 77040, Note_on_c, 1, 72, 127
3, 77088, Note_off_c, 1, 72, 64
3, 77100, Note_on_c, 1, 74, 127
3, 77148, Note_off_c, 1, 74, 64
3, 77160, Note_on_c, 1, 75, 127
3, 77328, Note_off_c, 1, 75, 64
3, 77340, Note_on_c, 1, 67, 127
3, 77388, Note_off_c, 1, 67, 64
3, 77400, Note_on_c, 1, 66, 127
3, 77448, Note_off_c, 1, 66, 64
3, 77460, Note_on_c, 1, 69, 127
3, 77508, Note_off_c, 1, 69, 64
3, 77520, Note_on_c, 1, 72, 127
3, 77688, Note_off_c, 1, 72, 64
3, 77700, Note_on_c, 1, 74, 127
3, 77748, Note_off_c, 1, 74, 64
3, 77760, Note_on_c, 1, 72, 127
3, 77808, Note_off_c, 1, 72, 64
3, 77820, Note_on_c, 1, 71, 127
3, 77868, Note_off_c, 1, 71, 64
3, 77880, Note_on_c, 1, 72, 127
3, 77928, Note_off_c, 1, 72, 64
3, 77940, Note_on_c, 1, 69, 127
3, 77988, Note_off_c, 1, 69, 64
3, 78000, Note_on_c, 1, 71, 127
3, 78048, Note_off_c, 1, 71, 64
3, 78060, Note_on_c, 1, 75, 127
3, 78108, Note_off_c, 1, 75, 64
3, 78120, Note_on_c, 1, 74, 127
3, 78216, Note_off_c, 1, 74, 64
3, 78360, Note_on_c, 1, 68, 127
3, 78408, Note_off_c, 1, 68, 64
3, 78420, Note_on_c, 1, 67, 127
3, 78468, Note_off_c, 1, 67, 64
3, 78480, Note_on_c, 1, 71, 127
3, 78576, Note_off_c, 1, 71, 64
3, 78720, Note_on_c, 1, 72, 127
3, 78768, Note_off_c, 1, 72, 64
3, 78780, Note_on_c, 1, 67, 127
3, 78828, Note_off_c, 1, 67, 64
3, 78840, Note_on_c, 1, 65, 127
3, 78888, Note_off_c, 1, 65, 64
3, 78900, Note_on_c, 1, 63, 127
3, 78948, Note_off_c, 1, 63, 64
3, 78960, Note_on_c, 1, 65, 127
3, 79008, Note_off_c, 1, 65, 64
3, 79020, Note_on_c, 1, 68, 127
3, 79068, Note_off_c, 1, 68, 64
3, 79080, Note_on_c, 1, 63, 127
3, 79128, Note_off_c, 1, 63, 64
3, 79140, Note_on_c, 1, 62, 127
3, 79188, Note_off_c, 1, 62, 64
3, 79200, Note_on_c, 1, 65, 127
3, 79248, Note_off_c, 1, 65, 64
3, 79260, Note_on_c, 1, 63, 127
3, 79308, Note_off_c, 1, 63, 64
3, 79320, Note_on_c, 1, 62, 127
3, 79368, Note_off_c, 1, 62, 64
3, 79380, Note_on_c, 1, 63, 127
3, 79428, Note_off_c, 1, 63, 64
3, 79440, Note_on_c, 1, 60, 127
3, 79488, Note_off_c, 1, 60, 64
3, 79500, Note_on_c, 1, 63, 127
3, 79548, Note_off_c, 1, 63, 64
3, 79560, Note_on_c, 1, 62, 127
3, 79608, Note_off_c, 1, 62, 64
3, 79620, Note_on_c, 1, 60, 127
3, 79668, Note_off_c, 1, 60, 64
3, 79680, Note_on_c, 1, 62, 127
3, 79728, Note_off_c, 1, 62, 64
3, 79740, Note_on_c, 1, 59, 127
3, 79788, Note_off_c, 1, 59, 64
3, 79800, Note_on_c, 1, 55, 127
3, 79896, Note_off_c, 1, 55, 64
3, 79920, Note_on_c, 1, 60, 127
3, 80016, Note_off_c, 1, 60, 64
3, 80040, Note_on_c, 1, 59, 127
3, 80136, Note_off_c, 1, 59, 64
3, 80160, Note_on_c, 1, 60, 127
3, 80712, Note_off_c, 1, 60, 64
3, 80712, End_track
4, 0, Start_track
4, 0, Title_t, "Arr. Gary Bricault, (c) 1997"
4, 0, Program_c, 2, 19
4, 0, Control_c, 2, 7, 127
4, 120, Note_on_c, 2, 60, 100
4, 312, Note_off_c, 2, 60, 64
4, 480, Note_on_c, 2, 58, 100
4, 672, Note_off_c, 2, 58, 64
4, 840, Note_on_c, 2, 56, 100
4, 1032, Note_off_c, 2, 56, 64
4, 1200, Note_on_c, 2, 51, 100
4, 1392, Note_off_c, 2, 51, 64
4, 1560, Note_on_c, 2, 53, 100
4, 1752, Note_off_c, 2, 53, 64
4, 1920, Note_on_c, 2, 55, 100
4, 2112, Note_off_c, 2, 55, 64
4, 2280, Note_on_c, 2, 48, 100
4, 2472, Note_off_c, 2, 48, 64
4, 2520, Note_on_c, 2, 46, 100
4, 2616, Note_off_c, 2, 46, 64
4, 2640, Note_on_c, 2, 45, 100
4, 2736, Note_off_c, 2, 45, 64
4, 2760, Note_on_c, 2, 43, 100
4, 2856, Note_off_c, 2, 43, 64
4, 2880, Note_on_c, 2, 42, 100
4, 2976, Note_off_c, 2, 42, 64
4, 3000, Note_on_c, 2, 43, 100
4, 3192, Note_off_c, 2, 43, 64
4, 3360, Note_on_c, 2, 41, 100
4, 3552, Note_off_c, 2, 41, 64
4, 3720, Note_on_c, 2, 39, 100
4, 3912, Note_off_c, 2, 39, 64
4, 4080, Note_on_c, 2, 46, 100
4, 4272, Note_off_c, 2, 46, 64
4, 4440, Note_on_c, 2, 48, 100
4, 4632, Note_off_c, 2, 48, 64
4, 4800, Note_on_c, 2, 50, 100
4, 4992, Note_off_c, 2, 50, 64
4, 5160, Note_on_c, 2, 43, 100
4, 5256, Note_off_c, 2, 43, 64
4, 5280, Note_on_c, 2, 55, 100
4, 5376, Note_off_c, 2, 55, 64
4, 5400, Note_on_c, 2, 53, 100
4, 5496, Note_off_c, 2, 53, 64
4, 5520, Note_on_c, 2, 52, 100
4, 5616, Note_off_c, 2, 52, 64
4, 5640, Note_on_c, 2, 50, 100
4, 5736, Note_off_c, 2, 50, 64
4, 5760, Note_on_c, 2, 48, 100
4, 5856, Note_off_c, 2, 48, 64
4, 5880, Note_on_c, 2, 41, 100
4, 5976, Note_off_c, 2, 41, 64
4, 6000, Note_on_c, 2, 53, 100
4, 6096, Note_off_c, 2, 53, 64
4, 6120, Note_on_c, 2, 51, 100
4, 6216, Note_off_c, 2, 51, 64
4, 6240, Note_on_c, 2, 50, 100
4, 6336, Note_off_c, 2, 50, 64
4, 6360, Note_on_c, 2, 48, 100
4, 6456, Note_off_c, 2, 48, 64
4, 6480, Note_on_c, 2, 46, 100
4, 6576, Note_off_c, 2, 46, 64
4, 6600, Note_on_c, 2, 39, 100
4, 6696, Note_off_c, 2, 39, 64
4, 6720, Note_on_c, 2, 51, 100
4, 6816, Note_off_c, 2, 51, 64
4, 6840, Note_on_c, 2, 50, 100
4, 6936, Note_off_c, 2, 50, 64
4, 6960, Note_on_c, 2, 48, 100
4, 7056, Note_off_c, 2, 48, 64
4, 7080, Note_on_c, 2, 46, 100
4, 7176, Note_off_c, 2, 46, 64
4, 7200, Note_on_c, 2, 44, 100
4, 7296, Note_off_c, 2, 44, 64
4, 7320, Note_on_c, 2, 38, 100
4, 7416, Note_off_c, 2, 38, 64
4, 7440, Note_on_c, 2, 50, 100
4, 7536, Note_off_c, 2, 50, 64
4, 7560, Note_on_c, 2, 48, 100
4, 7656, Note_off_c, 2, 48, 64
4, 7680, Note_on_c, 2, 47, 100
4, 7776, Note_off_c, 2, 47, 64
4, 7800, Note_on_c, 2, 45, 100
4, 7896, Note_off_c, 2, 45, 64
4, 7920, Note_on_c, 2, 43, 100
4, 8016, Note_off_c, 2, 43, 64
4, 8040, Note_on_c, 2, 48, 100
4, 8232, Note_off_c, 2, 48, 64
4, 8280, Note_on_c, 2, 51, 100
4, 8376, Note_off_c, 2, 51, 64
4, 8400, Note_on_c, 2, 50, 100
4, 8592, Note_off_c, 2, 50, 64
4, 8640, Note_on_c, 2, 43, 100
4, 8736, Note_off_c, 2, 43, 64
4, 8760, Note_on_c, 2, 48, 100
4, 8904, Note_off_c, 2, 48, 64
4, 8940, Note_on_c, 2, 47, 100
4, 8988, Note_off_c, 2, 47, 64
4, 9000, Note_on_c, 2, 48, 100
4, 9096, Note_off_c, 2, 48, 64
4, 9120, Note_on_c, 2, 36, 100
4, 9312, Note_off_c, 2, 36, 64
4, 9360, Note_on_c, 2, 50, 100
4, 9456, Note_off_c, 2, 50, 64
4, 9480, Note_on_c, 2, 51, 100
4, 9672, Note_off_c, 2, 51, 64
4, 9720, Note_on_c, 2, 55, 100
4, 9816, Note_off_c, 2, 55, 64
4, 9840, Note_on_c, 2, 53, 100
4, 10032, Note_off_c, 2, 53, 64
4, 10080, Note_on_c, 2, 46, 100
4, 10176, Note_off_c, 2, 46, 64
4, 10200, Note_on_c, 2, 51, 100
4, 10344, Note_off_c, 2, 51, 64
4, 10380, Note_on_c, 2, 50, 100
4, 10428, Note_off_c, 2, 50, 64
4, 10440, Note_on_c, 2, 51, 100
4, 10536, Note_off_c, 2, 51, 64
4, 10560, Note_on_c, 2, 39, 100
4, 10752, Note_off_c, 2, 39, 64
4, 10800, Note_on_c, 2, 52, 100
4, 10896, Note_off_c, 2, 52, 64
4, 10920, Note_on_c, 2, 53, 100
4, 11112, Note_off_c, 2, 53, 64
4, 11160, Note_on_c, 2, 56, 100
4, 11256, Note_off_c, 2, 56, 64
4, 11280, Note_on_c, 2, 55, 100
4, 11472, Note_off_c, 2, 55, 64
4, 11520, Note_on_c, 2, 48, 100
4, 11616, Note_off_c, 2, 48, 64
4, 11640, Note_on_c, 2, 53, 100
4, 11784, Note_off_c, 2, 53, 64
4, 11820, Note_on_c, 2, 52, 100
4, 11868, Note_off_c, 2, 52, 64
4, 11880, Note_on_c, 2, 53, 100
4, 11976, Note_off_c, 2, 53, 64
4, 12000, Note_on_c, 2, 41, 100
4, 12192, Note_off_c, 2, 41, 64
4, 12240, Note_on_c, 2, 47, 100
4, 12336, Note_off_c, 2, 47, 64
4, 12360, Note_on_c, 2, 48, 100
4, 12552, Note_off_c, 2, 48, 64
4, 12600, Note_on_c, 2, 46, 100
4, 12696, Note_off_c, 2, 46, 64
4, 12720, Note_on_c, 2, 44, 100
4, 13008, Note_off_c, 2, 44, 64
4, 13080, Note_on_c, 2, 43, 100
4, 13272, Note_off_c, 2, 43, 64
4, 13320, Note_on_c, 2, 45, 100
4, 13416, Note_off_c, 2, 45, 64
4, 13440, Note_on_c, 2, 47, 100
4, 13536, Note_off_c, 2, 47, 64
4, 13560, Note_on_c, 2, 50, 100
4, 13656, Note_off_c, 2, 50, 64
4, 13680, Note_on_c, 2, 43, 100
4, 13776, Note_off_c, 2, 43, 64
4, 13800, Note_on_c, 2, 48, 100
4, 13992, Note_off_c, 2, 48, 64
4, 14040, Note_on_c, 2, 50, 100
4, 14136, Note_off_c, 2, 50, 64
4, 14160, Note_on_c, 2, 51, 100
4, 14256, Note_off_c, 2, 51, 64
4, 14280, Note_on_c, 2, 55, 100
4, 14376, Note_off_c, 2, 55, 64
4, 14400, Note_on_c, 2, 48, 100
4, 14496, Note_off_c, 2, 48, 64
4, 14520, Note_on_c, 2, 50, 100
4, 14712, Note_off_c, 2, 50, 64
4, 14760, Note_on_c, 2, 52, 100
4, 14856, Note_off_c, 2, 52, 64
4, 14880, Note_on_c, 2, 54, 100
4, 14976, Note_off_c, 2, 54, 64
4, 15000, Note_on_c, 2, 57, 100
4, 15096, Note_off_c, 2, 57, 64
4, 15120, Note_on_c, 2, 50, 100
4, 15216, Note_off_c, 2, 50, 64
4, 15240, Note_on_c, 2, 55, 100
4, 15432, Note_off_c, 2, 55, 64
4, 15480, Note_on_c, 2, 51, 100
4, 15576, Note_off_c, 2, 51, 64
4, 15600, Note_on_c, 2, 48, 100
4, 15792, Note_off_c, 2, 48, 64
4, 15840, Note_on_c, 2, 50, 100
4, 15936, Note_off_c, 2, 50, 64
4, 15960, Note_on_c, 2, 51, 100
4, 16152, Note_off_c, 2, 51, 64
4, 16200, Note_on_c, 2, 48, 100
4, 16296, Note_off_c, 2, 48, 64
4, 16320, Note_on_c, 2, 50, 100
4, 16512, Note_off_c, 2, 50, 64
4, 16560, Note_on_c, 2, 38, 100
4, 16656, Note_off_c, 2, 38, 64
4, 16680, Note_on_c, 2, 43, 100
4, 17232, Note_off_c, 2, 43, 64
4, 17400, Note_on_c, 2, 60, 100
4, 17592, Note_off_c, 2, 60, 64
4, 17760, Note_on_c, 2, 58, 100
4, 17952, Note_off_c, 2, 58, 64
4, 18120, Note_on_c, 2, 56, 100
4, 18312, Note_off_c, 2, 56, 64
4, 18480, Note_on_c, 2, 51, 100
4, 18672, Note_off_c, 2, 51, 64
4, 18840, Note_on_c, 2, 53, 100
4, 19032, Note_off_c, 2, 53, 64
4, 19200, Note_on_c, 2, 55, 100
4, 19392, Note_off_c, 2, 55, 64
4, 19560, Note_on_c, 2, 48, 100
4, 19752, Note_off_c, 2, 48, 64
4, 19800, Note_on_c, 2, 46, 100
4, 19896, Note_off_c, 2, 46, 64
4, 19920, Note_on_c, 2, 45, 100
4, 20016, Note_off_c, 2, 45, 64
4, 20040, Note_on_c, 2, 43, 100
4, 20136, Note_off_c, 2, 43, 64
4, 20160, Note_on_c, 2, 42, 100
4, 20256, Note_off_c, 2, 42, 64
4, 20280, Note_on_c, 2, 43, 100
4, 20472, Note_off_c, 2, 43, 64
4, 20640, Note_on_c, 2, 41, 100
4, 20832, Note_off_c, 2, 41, 64
4, 21000, Note_on_c, 2, 39, 100
4, 21192, Note_off_c, 2, 39, 64
4, 21360, Note_on_c, 2, 46, 100
4, 21552, Note_off_c, 2, 46, 64
4, 21720, Note_on_c, 2, 48, 100
4, 21912, Note_off_c, 2, 48, 64
4, 22080, Note_on_c, 2, 50, 100
4, 22272, Note_off_c, 2, 50, 64
4, 22440, Note_on_c, 2, 43, 100
4, 22536, Note_off_c, 2, 43, 64
4, 22560, Note_on_c, 2, 55, 100
4, 22656, Note_off_c, 2, 55, 64
4, 22680, Note_on_c, 2, 53, 100
4, 22776, Note_off_c, 2, 53, 64
4, 22800, Note_on_c, 2, 52, 100
4, 22896, Note_off_c, 2, 52, 64
4, 22920, Note_on_c, 2, 50, 100
4, 23016, Note_off_c, 2, 50, 64
4, 23040, Note_on_c, 2, 48, 100
4, 23136, Note_off_c, 2, 48, 64
4, 23160, Note_on_c, 2, 41, 100
4, 23256, Note_off_c, 2, 41, 64
4, 23280, Note_on_c, 2, 53, 100
4, 23376, Note_off_c, 2, 53, 64
4, 23400, Note_on_c, 2, 51, 100
4, 23496, Note_off_c, 2, 51, 64
4, 23520, Note_on_c, 2, 50, 100
4, 23616, Note_off_c, 2, 50, 64
4, 23640, Note_on_c, 2, 48, 100
4, 23736, Note_off_c, 2, 48, 64
4, 23760, Note_on_c, 2, 46, 100
4, 23856, Note_off_c, 2, 46, 64
4, 23880, Note_on_c, 2, 39, 100
4, 23976, Note_off_c, 2, 39, 64
4, 24000, Note_on_c, 2, 51, 100
4, 24096, Note_off_c, 2, 51, 64
4, 24120, Note_on_c, 2, 50, 100
4, 24216, Note_off_c, 2, 50, 64
4, 24240, Note_on_c, 2, 48, 100
4, 24336, Note_off_c, 2, 48, 64
4, 24360, Note_on_c, 2, 46, 100
4, 24456, Note_off_c, 2, 46, 64
4, 24480, Note_on_c, 2, 44, 100
4, 24576, Note_off_c, 2, 44, 64
4, 24600, Note_on_c, 2, 38, 100
4, 24696, Note_off_c, 2, 38, 64
4, 24720, Note_on_c, 2, 50, 100
4, 24816, Note_off_c, 2, 50, 64
4, 24840, Note_on_c, 2, 48, 100
4, 24936, Note_off_c, 2, 48, 64
4, 24960, Note_on_c, 2, 47, 100
4, 25056, Note_off_c, 2, 47, 64
4, 25080, Note_on_c, 2, 45, 100
4, 25176, Note_off_c, 2, 45, 64
4, 25200, Note_on_c, 2, 43, 100
4, 25296, Note_off_c, 2, 43, 64
4, 25320, Note_on_c, 2, 48, 100
4, 25512, Note_off_c, 2, 48, 64
4, 25560, Note_on_c, 2, 51, 100
4, 25656, Note_off_c, 2, 51, 64
4, 25680, Note_on_c, 2, 50, 100
4, 25872, Note_off_c, 2, 50, 64
4, 25920, Note_on_c, 2, 43, 100
4, 26016, Note_off_c, 2, 43, 64
4, 26040, Note_on_c, 2, 48, 100
4, 26184, Note_off_c, 2, 48, 64
4, 26220, Note_on_c, 2, 47, 100
4, 26268, Note_off_c, 2, 47, 64
4, 26280, Note_on_c, 2, 48, 100
4, 26376, Note_off_c, 2, 48, 64
4, 26400, Note_on_c, 2, 36, 100
4, 26592, Note_off_c, 2, 36, 64
4, 26640, Note_on_c, 2, 50, 100
4, 26736, Note_off_c, 2, 50, 64
4, 26760, Note_on_c, 2, 51, 100
4, 26952, Note_off_c, 2, 51, 64
4, 27000, Note_on_c, 2, 55, 100
4, 27096, Note_off_c, 2, 55, 64
4, 27120, Note_on_c, 2, 53, 100
4, 27312, Note_off_c, 2, 53, 64
4, 27360, Note_on_c, 2, 46, 100
4, 27456, Note_off_c, 2, 46, 64
4, 27480, Note_on_c, 2, 51, 100
4, 27624, Note_off_c, 2, 51, 64
4, 27660, Note_on_c, 2, 50, 100
4, 27708, Note_off_c, 2, 50, 64
4, 27720, Note_on_c, 2, 51, 100
4, 27816, Note_off_c, 2, 51, 64
4, 27840, Note_on_c, 2, 39, 100
4, 28032, Note_off_c, 2, 39, 64
4, 28080, Note_on_c, 2, 52, 100
4, 28176, Note_off_c, 2, 52, 64
4, 28200, Note_on_c, 2, 53, 100
4, 28392, Note_off_c, 2, 53, 64
4, 28440, Note_on_c, 2, 56, 100
4, 28536, Note_off_c, 2, 56, 64
4, 28560, Note_on_c, 2, 55, 100
4, 28752, Note_off_c, 2, 55, 64
4, 28800, Note_on_c, 2, 48, 100
4, 28896, Note_off_c, 2, 48, 64
4, 28920, Note_on_c, 2, 53, 100
4, 29064, Note_off_c, 2, 53, 64
4, 29100, Note_on_c, 2, 52, 100
4, 29148, Note_off_c, 2, 52, 64
4, 29160, Note_on_c, 2, 53, 100
4, 29256, Note_off_c, 2, 53, 64
4, 29280, Note_on_c, 2, 41, 100
4, 29472, Note_off_c, 2, 41, 64
4, 29520, Note_on_c, 2, 47, 100
4, 29616, Note_off_c, 2, 47, 64
4, 29640, Note_on_c, 2, 48, 100
4, 29832, Note_off_c, 2, 48, 64
4, 29880, Note_on_c, 2, 46, 100
4, 29976, Note_off_c, 2, 46, 64
4, 30000, Note_on_c, 2, 44, 100
4, 30288, Note_off_c, 2, 44, 64
4, 30360, Note_on_c, 2, 43, 100
4, 30552, Note_off_c, 2, 43, 64
4, 30600, Note_on_c, 2, 45, 100
4, 30696, Note_off_c, 2, 45, 64
4, 30720, Note_on_c, 2, 47, 100
4, 30816, Note_off_c, 2, 47, 64
4, 30840, Note_on_c, 2, 50, 100
4, 30936, Note_off_c, 2, 50, 64
4, 30960, Note_on_c, 2, 43, 100
4, 31056, Note_off_c, 2, 43, 64
4, 31080, Note_on_c, 2, 48, 100
4, 31272, Note_off_c, 2, 48, 64
4, 31320, Note_on_c, 2, 50, 100
4, 31416, Note_off_c, 2, 50, 64
4, 31440, Note_on_c, 2, 51, 100
4, 31536, Note_off_c, 2, 51, 64
4, 31560, Note_on_c, 2, 55, 100
4, 31656, Note_off_c, 2, 55, 64
4, 31680, Note_on_c, 2, 48, 100
4, 31776, Note_off_c, 2, 48, 64
4, 31800, Note_on_c, 2, 50, 100
4, 31992, Note_off_c, 2, 50, 64
4, 32040, Note_on_c, 2, 52, 100
4, 32136, Note_off_c, 2, 52, 64
4, 32160, Note_on_c, 2, 54, 100
4, 32256, Note_off_c, 2, 54, 64
4, 32280, Note_on_c, 2, 57, 100
4, 32376, Note_off_c, 2, 57, 64
4, 32400, Note_on_c, 2, 50, 100
4, 32496, Note_off_c, 2, 50, 64
4, 32520, Note_on_c, 2, 55, 100
4, 32712, Note_off_c, 2, 55, 64
4, 32760, Note_on_c, 2, 51, 100
4, 32856, Note_off_c, 2, 51, 64
4, 32880, Note_on_c, 2, 48, 100
4, 33072, Note_off_c, 2, 48, 64
4, 33120, Note_on_c, 2, 50, 100
4, 33216, Note_off_c, 2, 50, 64
4, 33240, Note_on_c, 2, 51, 100
4, 33432, Note_off_c, 2, 51, 64
4, 33480, Note_on_c, 2, 48, 100
4, 33576, Note_off_c, 2, 48, 64
4, 33600, Note_on_c, 2, 50, 100
4, 33792, Note_off_c, 2, 50, 64
4, 33840, Note_on_c, 2, 38, 100
4, 33936, Note_off_c, 2, 38, 64
4, 33960, Note_on_c, 2, 43, 100
4, 34512, Note_off_c, 2, 43, 64
4, 34920, Note_on_c, 2, 48, 127
4, 35016, Note_off_c, 2, 48, 64
4, 35040, Note_on_c, 2, 50, 127
4, 35232, Note_off_c, 2, 50, 64
4, 35280, Note_on_c, 2, 43, 127
4, 35376, Note_off_c, 2, 43, 64
4, 35400, Note_on_c, 2, 48, 127
4, 35856, Note_off_c, 2, 48, 64
4, 35880, Note_on_c, 2, 60, 127
4, 35976, Note_off_c, 2, 60, 64
4, 36000, Note_on_c, 2, 58, 127
4, 36096, Note_off_c, 2, 58, 64
4, 36120, Note_on_c, 2, 56, 127
4, 36312, Note_off_c, 2, 56, 64
4, 36360, Note_on_c, 2, 53, 127
4, 36456, Note_off_c, 2, 53, 64
4, 36480, Note_on_c, 2, 55, 127
4, 36672, Note_off_c, 2, 55, 64
4, 36720, Note_on_c, 2, 48, 127
4, 36816, Note_off_c, 2, 48, 64
4, 36840, Note_on_c, 2, 53, 127
4, 37296, Note_off_c, 2, 53, 64
4, 37320, Note_on_c, 2, 51, 127
4, 37416, Note_off_c, 2, 51, 64
4, 37440, Note_on_c, 2, 56, 127
4, 37536, Note_off_c, 2, 56, 64
4, 37560, Note_on_c, 2, 49, 127
4, 37656, Note_off_c, 2, 49, 64
4, 37680, Note_on_c, 2, 53, 127
4, 37776, Note_off_c, 2, 53, 64
4, 37800, Note_on_c, 2, 51, 127
4, 37896, Note_off_c, 2, 51, 64
4, 37920, Note_on_c, 2, 50, 127
4, 38016, Note_off_c, 2, 50, 64
4, 38040, Note_on_c, 2, 48, 127
4, 38136, Note_off_c, 2, 48, 64
4, 38160, Note_on_c, 2, 46, 127
4, 38256, Note_off_c, 2, 46, 64
4, 38280, Note_on_c, 2, 51, 127
4, 38376, Note_off_c, 2, 51, 64
4, 38400, Note_on_c, 2, 55, 127
4, 38496, Note_off_c, 2, 55, 64
4, 38520, Note_on_c, 2, 53, 127
4, 38616, Note_off_c, 2, 53, 64
4, 38640, Note_on_c, 2, 52, 127
4, 38736, Note_off_c, 2, 52, 64
4, 38760, Note_on_c, 2, 50, 127
4, 38856, Note_off_c, 2, 50, 64
4, 38880, Note_on_c, 2, 48, 127
4, 38976, Note_off_c, 2, 48, 64
4, 39000, Note_on_c, 2, 53, 127
4, 39192, Note_off_c, 2, 53, 64
4, 39240, Note_on_c, 2, 50, 127
4, 39336, Note_off_c, 2, 50, 64
4, 39360, Note_on_c, 2, 51, 127
4, 39552, Note_off_c, 2, 51, 64
4, 39600, Note_on_c, 2, 56, 127
4, 39696, Note_off_c, 2, 56, 64
4, 39720, Note_on_c, 2, 49, 127
4, 39864, Note_off_c, 2, 49, 64
4, 39900, Note_on_c, 2, 51, 127
4, 39948, Note_off_c, 2, 51, 64
4, 39960, Note_on_c, 2, 49, 127
4, 40056, Note_off_c, 2, 49, 64
4, 40080, Note_on_c, 2, 61, 127
4, 40272, Note_off_c, 2, 61, 64
4, 40320, Note_on_c, 2, 55, 127
4, 40416, Note_off_c, 2, 55, 64
4, 40440, Note_on_c, 2, 60, 127
4, 40632, Note_off_c, 2, 60, 64
4, 40680, Note_on_c, 2, 58, 127
4, 40776, Note_off_c, 2, 58, 64
4, 40800, Note_on_c, 2, 56, 127
4, 40992, Note_off_c, 2, 56, 64
4, 41040, Note_on_c, 2, 55, 127
4, 41136, Note_off_c, 2, 55, 64
4, 41160, Note_on_c, 2, 53, 127
4, 41352, Note_off_c, 2, 53, 64
4, 41400, Note_on_c, 2, 56, 127
4, 41496, Note_off_c, 2, 56, 64
4, 41520, Note_on_c, 2, 55, 127
4, 41712, Note_off_c, 2, 55, 64
4, 41760, Note_on_c, 2, 48, 127
4, 41856, Note_off_c, 2, 48, 64
4, 41880, Note_on_c, 2, 53, 127
4, 42024, Note_off_c, 2, 53, 64
4, 42060, Note_on_c, 2, 52, 127
4, 42108, Note_off_c, 2, 52, 64
4, 42120, Note_on_c, 2, 53, 127
4, 42216, Note_off_c, 2, 53, 64
4, 42240, Note_on_c, 2, 41, 127
4, 42432, Note_off_c, 2, 41, 64
4, 42480, Note_on_c, 2, 55, 127
4, 42576, Note_off_c, 2, 55, 64
4, 42600, Note_on_c, 2, 56, 127
4, 42792, Note_off_c, 2, 56, 64
4, 42840, Note_on_c, 2, 60, 127
4, 42936, Note_off_c, 2, 60, 64
4, 42960, Note_on_c, 2, 58, 127
4, 43152, Note_off_c, 2, 58, 64
4, 43200, Note_on_c, 2, 51, 127
4, 43296, Note_off_c, 2, 51, 64
4, 43320, Note_on_c, 2, 56, 127
4, 43464, Note_off_c, 2, 56, 64
4, 43500, Note_on_c, 2, 55, 127
4, 43548, Note_off_c, 2, 55, 64
4, 43560, Note_on_c, 2, 56, 127
4, 43656, Note_off_c, 2, 56, 64
4, 43680, Note_on_c, 2, 44, 127
4, 43872, Note_off_c, 2, 44, 64
4, 43920, Note_on_c, 2, 57, 127
4, 44016, Note_off_c, 2, 57, 64
4, 44040, Note_on_c, 2, 58, 127
4, 44232, Note_off_c, 2, 58, 64
4, 44280, Note_on_c, 2, 61, 127
4, 44376, Note_off_c, 2, 61, 64
4, 44400, Note_on_c, 2, 60, 127
4, 44592, Note_off_c, 2, 60, 64
4, 44640, Note_on_c, 2, 53, 127
4, 44736, Note_off_c, 2, 53, 64
4, 44760, Note_on_c, 2, 58, 127
4, 44904, Note_off_c, 2, 58, 64
4, 44940, Note_on_c, 2, 57, 127
4, 44988, Note_off_c, 2, 57, 64
4, 45000, Note_on_c, 2, 58, 127
4, 45096, Note_off_c, 2, 58, 64
4, 45120, Note_on_c, 2, 46, 127
4, 45312, Note_off_c, 2, 46, 64
4, 45360, Note_on_c, 2, 52, 127
4, 45456, Note_off_c, 2, 52, 64
4, 45480, Note_on_c, 2, 53, 127
4, 45672, Note_off_c, 2, 53, 64
4, 45720, Note_on_c, 2, 51, 127
4, 45816, Note_off_c, 2, 51, 64
4, 45840, Note_on_c, 2, 49, 127
4, 46128, Note_off_c, 2, 49, 64
4, 46200, Note_on_c, 2, 48, 127
4, 46392, Note_off_c, 2, 48, 64
4, 46440, Note_on_c, 2, 50, 127
4, 46536, Note_off_c, 2, 50, 64
4, 46560, Note_on_c, 2, 52, 127
4, 46656, Note_off_c, 2, 52, 64
4, 46680, Note_on_c, 2, 55, 127
4, 46776, Note_off_c, 2, 55, 64
4, 46800, Note_on_c, 2, 52, 127
4, 46896, Note_off_c, 2, 52, 64
4, 46920, Note_on_c, 2, 53, 127
4, 47112, Note_off_c, 2, 53, 64
4, 47160, Note_on_c, 2, 41, 127
4, 47256, Note_off_c, 2, 41, 64
4, 47280, Note_on_c, 2, 39, 127
4, 47472, Note_off_c, 2, 39, 64
4, 47520, Note_on_c, 2, 51, 127
4, 47616, Note_off_c, 2, 51, 64
4, 47640, Note_on_c, 2, 50, 127
4, 47832, Note_off_c, 2, 50, 64
4, 47880, Note_on_c, 2, 48, 127
4, 47976, Note_off_c, 2, 48, 64
4, 48000, Note_on_c, 2, 47, 127
4, 48096, Note_off_c, 2, 47, 64
4, 48120, Note_on_c, 2, 43, 127
4, 48216, Note_off_c, 2, 43, 64
4, 48240, Note_on_c, 2, 47, 127
4, 48336, Note_off_c, 2, 47, 64
4, 48360, Note_on_c, 2, 48, 127
4, 48552, Note_off_c, 2, 48, 64
4, 48600, Note_on_c, 2, 60, 127
4, 48696, Note_off_c, 2, 60, 64
4, 48720, Note_on_c, 2, 58, 127
4, 48912, Note_off_c, 2, 58, 64
4, 48960, Note_on_c, 2, 46, 127
4, 49056, Note_off_c, 2, 46, 64
4, 49080, Note_on_c, 2, 44, 127
4, 49272, Note_off_c, 2, 44, 64
4, 49320, Note_on_c, 2, 43, 127
4, 49416, Note_off_c, 2, 43, 64
4, 49440, Note_on_c, 2, 42, 127
4, 49536, Note_off_c, 2, 42, 64
4, 49560, Note_on_c, 2, 38, 127
4, 49656, Note_off_c, 2, 38, 64
4, 49680, Note_on_c, 2, 42, 127
4, 49776, Note_off_c, 2, 42, 64
4, 49800, Note_on_c, 2, 43, 127
4, 49896, Note_off_c, 2, 43, 64
4, 49920, Note_on_c, 2, 55, 127
4, 50016, Note_off_c, 2, 55, 64
4, 50040, Note_on_c, 2, 53, 127
4, 50136, Note_off_c, 2, 53, 64
4, 50160, Note_on_c, 2, 52, 127
4, 50256, Note_off_c, 2, 52, 64
4, 50280, Note_on_c, 2, 50, 127
4, 50376, Note_off_c, 2, 50, 64
4, 50400, Note_on_c, 2, 48, 127
4, 50496, Note_off_c, 2, 48, 64
4, 50520, Note_on_c, 2, 41, 127
4, 50616, Note_off_c, 2, 41, 64
4, 50640, Note_on_c, 2, 53, 127
4, 50736, Note_off_c, 2, 53, 64
4, 50760, Note_on_c, 2, 51, 127
4, 50856, Note_off_c, 2, 51, 64
4, 50880, Note_on_c, 2, 50, 127
4, 50976, Note_off_c, 2, 50, 64
4, 51000, Note_on_c, 2, 48, 127
4, 51096, Note_off_c, 2, 48, 64
4, 51120, Note_on_c, 2, 46, 127
4, 51216, Note_off_c, 2, 46, 64
4, 51240, Note_on_c, 2, 39, 127
4, 51336, Note_off_c, 2, 39, 64
4, 51360, Note_on_c, 2, 51, 127
4, 51456, Note_off_c, 2, 51, 64
4, 51480, Note_on_c, 2, 50, 127
4, 51576, Note_off_c, 2, 50, 64
4, 51600, Note_on_c, 2, 48, 127
4, 51696, Note_off_c, 2, 48, 64
4, 51720, Note_on_c, 2, 46, 127
4, 51816, Note_off_c, 2, 46, 64
4, 51840, Note_on_c, 2, 44, 127
4, 51936, Note_off_c, 2, 44, 64
4, 51960, Note_on_c, 2, 38, 127
4, 52056, Note_off_c, 2, 38, 64
4, 52080, Note_on_c, 2, 50, 127
4, 52176, Note_off_c, 2, 50, 64
4, 52200, Note_on_c, 2, 48, 127
4, 52296, Note_off_c, 2, 48, 64
4, 52320, Note_on_c, 2, 47, 127
4, 52416, Note_off_c, 2, 47, 64
4, 52440, Note_on_c, 2, 45, 127
4, 52536, Note_off_c, 2, 45, 64
4, 52560, Note_on_c, 2, 43, 127
4, 52656, Note_off_c, 2, 43, 64
4, 52680, Note_on_c, 2, 48, 127
4, 52872, Note_off_c, 2, 48, 64
4, 52920, Note_on_c, 2, 51, 127
4, 53016, Note_off_c, 2, 51, 64
4, 53040, Note_on_c, 2, 50, 127
4, 53232, Note_off_c, 2, 50, 64
4, 53280, Note_on_c, 2, 43, 127
4, 53376, Note_off_c, 2, 43, 64
4, 53400, Note_on_c, 2, 48, 127
4, 53544, Note_off_c, 2, 48, 64
4, 53580, Note_on_c, 2, 47, 127
4, 53628, Note_off_c, 2, 47, 64
4, 53640, Note_on_c, 2, 48, 127
4, 53736, Note_off_c, 2, 48, 64
4, 53760, Note_on_c, 2, 36, 127
4, 53952, Note_off_c, 2, 36, 64
4, 54000, Note_on_c, 2, 48, 127
4, 54096, Note_off_c, 2, 48, 64
4, 54120, Note_on_c, 2, 50, 127
4, 54312, Note_off_c, 2, 50, 64
4, 54360, Note_on_c, 2, 52, 127
4, 54456, Note_off_c, 2, 52, 64
4, 54480, Note_on_c, 2, 54, 127
4, 54576, Note_off_c, 2, 54, 64
4, 54600, Note_on_c, 2, 57, 127
4, 54696, Note_off_c, 2, 57, 64
4, 54720, Note_on_c, 2, 50, 127
4, 54816, Note_off_c, 2, 50, 64
4, 54840, Note_on_c, 2, 55, 127
4, 55032, Note_off_c, 2, 55, 64
4, 55080, Note_on_c, 2, 57, 127
4, 55176, Note_off_c, 2, 57, 64
4, 55200, Note_on_c, 2, 59, 127
4, 55296, Note_off_c, 2, 59, 64
4, 55320, Note_on_c, 2, 62, 127
4, 55416, Note_off_c, 2, 62, 64
4, 55440, Note_on_c, 2, 55, 127
4, 55536, Note_off_c, 2, 55, 64
4, 55560, Note_on_c, 2, 60, 127
4, 55752, Note_off_c, 2, 60, 64
4, 55800, Note_on_c, 2, 56, 127
4, 55896, Note_off_c, 2, 56, 64
4, 55920, Note_on_c, 2, 53, 127
4, 56112, Note_off_c, 2, 53, 64
4, 56160, Note_on_c, 2, 55, 127
4, 56256, Note_off_c, 2, 55, 64
4, 56280, Note_on_c, 2, 56, 127
4, 56472, Note_off_c, 2, 56, 64
4, 56520, Note_on_c, 2, 53, 127
4, 56616, Note_off_c, 2, 53, 64
4, 56640, Note_on_c, 2, 55, 127
4, 56832, Note_off_c, 2, 55, 64
4, 56880, Note_on_c, 2, 43, 127
4, 56976, Note_off_c, 2, 43, 64
4, 57000, Note_on_c, 2, 48, 127
4, 57552, Note_off_c, 2, 48, 64
4, 58080, Note_on_c, 2, 48, 127
4, 58176, Note_off_c, 2, 48, 64
4, 58200, Note_on_c, 2, 50, 127
4, 58392, Note_off_c, 2, 50, 64
4, 58440, Note_on_c, 2, 43, 127
4, 58536, Note_off_c, 2, 43, 64
4, 58560, Note_on_c, 2, 48, 127
4, 59016, Note_off_c, 2, 48, 64
4, 59040, Note_on_c, 2, 60, 127
4, 59136, Note_off_c, 2, 60, 64
4, 59160, Note_on_c, 2, 58, 127
4, 59256, Note_off_c, 2, 58, 64
4, 59280, Note_on_c, 2, 56, 127
4, 59472, Note_off_c, 2, 56, 64
4, 59520, Note_on_c, 2, 53, 127
4, 59616, Note_off_c, 2, 53, 64
4, 59640, Note_on_c, 2, 55, 127
4, 59832, Note_off_c, 2, 55, 64
4, 59880, Note_on_c, 2, 48, 127
4, 59976, Note_off_c, 2, 48, 64
4, 60000, Note_on_c, 2, 53, 127
4, 60456, Note_off_c, 2, 53, 64
4, 60480, Note_on_c, 2, 51, 127
4, 60576, Note_off_c, 2, 51, 64
4, 60600, Note_on_c, 2, 56, 127
4, 60696, Note_off_c, 2, 56, 64
4, 60720, Note_on_c, 2, 49, 127
4, 60816, Note_off_c, 2, 49, 64
4, 60840, Note_on_c, 2, 53, 127
4, 60936, Note_off_c, 2, 53, 64
4, 60960, Note_on_c, 2, 51, 127
4, 61056, Note_off_c, 2, 51, 64
4, 61080, Note_on_c, 2, 50, 127
4, 61176, Note_off_c, 2, 50, 64
4, 61200, Note_on_c, 2, 48, 127
4, 61296, Note_off_c, 2, 48, 64
4, 61320, Note_on_c, 2, 46, 127
4, 61416, Note_off_c, 2, 46, 64
4, 61440, Note_on_c, 2, 51, 127
4, 61536, Note_off_c, 2, 51, 64
4, 61560, Note_on_c, 2, 55, 127
4, 61656, Note_off_c, 2, 55, 64
4, 61680, Note_on_c, 2, 53, 127
4, 61776, Note_off_c, 2, 53, 64
4, 61800, Note_on_c, 2, 52, 127
4, 61896, Note_off_c, 2, 52, 64
4, 61920, Note_on_c, 2, 50, 127
4, 62016, Note_off_c, 2, 50, 64
4, 62040, Note_on_c, 2, 48, 127
4, 62136, Note_off_c, 2, 48, 64
4, 62160, Note_on_c, 2, 53, 127
4, 62352, Note_off_c, 2, 53, 64
4, 62400, Note_on_c, 2, 50, 127
4, 62496, Note_off_c, 2, 50, 64
4, 62520, Note_on_c, 2, 51, 127
4, 62712, Note_off_c, 2, 51, 64
4, 62760, Note_on_c, 2, 56, 127
4, 62856, Note_off_c, 2, 56, 64
4, 62880, Note_on_c, 2, 49, 127
4, 63024, Note_off_c, 2, 49, 64
4, 63060, Note_on_c, 2, 51, 127
4, 63108, Note_off_c, 2, 51, 64
4, 63120, Note_on_c, 2, 49, 127
4, 63216, Note_off_c, 2, 49, 64
4, 63240, Note_on_c, 2, 61, 127
4, 63432, Note_off_c, 2, 61, 64
4, 63480, Note_on_c, 2, 55, 127
4, 63576, Note_off_c, 2, 55, 64
4, 63600, Note_on_c, 2, 60, 127
4, 63792, Note_off_c, 2, 60, 64
4, 63840, Note_on_c, 2, 58, 127
4, 63936, Note_off_c, 2, 58, 64
4, 63960, Note_on_c, 2, 56, 127
4, 64152, Note_off_c, 2, 56, 64
4, 64200, Note_on_c, 2, 55, 127
4, 64296, Note_off_c, 2, 55, 64
4, 64320, Note_on_c, 2, 53, 127
4, 64512, Note_off_c, 2, 53, 64
4, 64560, Note_on_c, 2, 56, 127
4, 64656, Note_off_c, 2, 56, 64
4, 64680, Note_on_c, 2, 55, 127
4, 64872, Note_off_c, 2, 55, 64
4, 64920, Note_on_c, 2, 48, 127
4, 65016, Note_off_c, 2, 48, 64
4, 65040, Note_on_c, 2, 53, 127
4, 65184, Note_off_c, 2, 53, 64
4, 65220, Note_on_c, 2, 52, 127
4, 65268, Note_off_c, 2, 52, 64
4, 65280, Note_on_c, 2, 53, 127
4, 65376, Note_off_c, 2, 53, 64
4, 65400, Note_on_c, 2, 41, 127
4, 65592, Note_off_c, 2, 41, 64
4, 65640, Note_on_c, 2, 55, 127
4, 65736, Note_off_c, 2, 55, 64
4, 65760, Note_on_c, 2, 56, 127
4, 65952, Note_off_c, 2, 56, 64
4, 66000, Note_on_c, 2, 60, 127
4, 66096, Note_off_c, 2, 60, 64
4, 66120, Note_on_c, 2, 58, 127
4, 66312, Note_off_c, 2, 58, 64
4, 66360, Note_on_c, 2, 51, 127
4, 66456, Note_off_c, 2, 51, 64
4, 66480, Note_on_c, 2, 56, 127
4, 66624, Note_off_c, 2, 56, 64
4, 66660, Note_on_c, 2, 55, 127
4, 66708, Note_off_c, 2, 55, 64
4, 66720, Note_on_c, 2, 56, 127
4, 66816, Note_off_c, 2, 56, 64
4, 66840, Note_on_c, 2, 44, 127
4, 67032, Note_off_c, 2, 44, 64
4, 67080, Note_on_c, 2, 57, 127
4, 67176, Note_off_c, 2, 57, 64
4, 67200, Note_on_c, 2, 58, 127
4, 67392, Note_off_c, 2, 58, 64
4, 67440, Note_on_c, 2, 61, 127
4, 67536, Note_off_c, 2, 61, 64
4, 67560, Note_on_c, 2, 60, 127
4, 67752, Note_off_c, 2, 60, 64
4, 67800, Note_on_c, 2, 53, 127
4, 67896, Note_off_c, 2, 53, 64
4, 67920, Note_on_c, 2, 58, 127
4, 68064, Note_off_c, 2, 58, 64
4, 68100, Note_on_c, 2, 57, 127
4, 68148, Note_off_c, 2, 57, 64
4, 68160, Note_on_c, 2, 58, 127
4, 68256, Note_off_c, 2, 58, 64
4, 68280, Note_on_c, 2, 46, 127
4, 68472, Note_off_c, 2, 46, 64
4, 68520, Note_on_c, 2, 52, 127
4, 68616, Note_off_c, 2, 52, 64
4, 68640, Note_on_c, 2, 53, 127
4, 68832, Note_off_c, 2, 53, 64
4, 68880, Note_on_c, 2, 51, 127
4, 68976, Note_off_c, 2, 51, 64
4, 69000, Note_on_c, 2, 49, 127
4, 69288, Note_off_c, 2, 49, 64
4, 69360, Note_on_c, 2, 48, 127
4, 69552, Note_off_c, 2, 48, 64
4, 69600, Note_on_c, 2, 50, 127
4, 69696, Note_off_c, 2, 50, 64
4, 69720, Note_on_c, 2, 52, 127
4, 69816, Note_off_c, 2, 52, 64
4, 69840, Note_on_c, 2, 55, 127
4, 69936, Note_off_c, 2, 55, 64
4, 69960, Note_on_c, 2, 52, 127
4, 70056, Note_off_c, 2, 52, 64
4, 70080, Note_on_c, 2, 53, 127
4, 70272, Note_off_c, 2, 53, 64
4, 70320, Note_on_c, 2, 41, 127
4, 70416, Note_off_c, 2, 41, 64
4, 70440, Note_on_c, 2, 39, 127
4, 70632, Note_off_c, 2, 39, 64
4, 70680, Note_on_c, 2, 51, 127
4, 70776, Note_off_c, 2, 51, 64
4, 70800, Note_on_c, 2, 50, 127
4, 70992, Note_off_c, 2, 50, 64
4, 71040, Note_on_c, 2, 48, 127
4, 71136, Note_off_c, 2, 48, 64
4, 71160, Note_on_c, 2, 47, 127
4, 71256, Note_off_c, 2, 47, 64
4, 71280, Note_on_c, 2, 43, 127
4, 71376, Note_off_c, 2, 43, 64
4, 71400, Note_on_c, 2, 47, 127
4, 71496, Note_off_c, 2, 47, 64
4, 71520, Note_on_c, 2, 48, 127
4, 71712, Note_off_c, 2, 48, 64
4, 71760, Note_on_c, 2, 60, 127
4, 71856, Note_off_c, 2, 60, 64
4, 71880, Note_on_c, 2, 58, 127
4, 72072, Note_off_c, 2, 58, 64
4, 72120, Note_on_c, 2, 46, 127
4, 72216, Note_off_c, 2, 46, 64
4, 72240, Note_on_c, 2, 44, 127
4, 72432, Note_off_c, 2, 44, 64
4, 72480, Note_on_c, 2, 43, 127
4, 72576, Note_off_c, 2, 43, 64
4, 72600, Note_on_c, 2, 42, 127
4, 72696, Note_off_c, 2, 42, 64
4, 72720, Note_on_c, 2, 38, 127
4, 72816, Note_off_c, 2, 38, 64
4, 72840, Note_on_c, 2, 42, 127
4, 72936, Note_off_c, 2, 42, 64
4, 72960, Note_on_c, 2, 43, 127
4, 73056, Note_off_c, 2, 43, 64
4, 73080, Note_on_c, 2, 55, 127
4, 73176, Note_off_c, 2, 55, 64
4, 73200, Note_on_c, 2, 53, 127
4, 73296, Note_off_c, 2, 53, 64
4, 73320, Note_on_c, 2, 52, 127
4, 73416, Note_off_c, 2, 52, 64
4, 73440, Note_on_c, 2, 50, 127
4, 73536, Note_off_c, 2, 50, 64
4, 73560, Note_on_c, 2, 48, 127
4, 73656, Note_off_c, 2, 48, 64
4, 73680, Note_on_c, 2, 41, 127
4, 73776, Note_off_c, 2, 41, 64
4, 73800, Note_on_c, 2, 53, 127
4, 73896, Note_off_c, 2, 53, 64
4, 73920, Note_on_c, 2, 51, 127
4, 74016, Note_off_c, 2, 51, 64
4, 74040, Note_on_c, 2, 50, 127
4, 74136, Note_off_c, 2, 50, 64
4, 74160, Note_on_c, 2, 48, 127
4, 74256, Note_off_c, 2, 48, 64
4, 74280, Note_on_c, 2, 46, 127
4, 74376, Note_off_c, 2, 46, 64
4, 74400, Note_on_c, 2, 39, 127
4, 74496, Note_off_c, 2, 39, 64
4, 74520, Note_on_c, 2, 51, 127
4, 74616, Note_off_c, 2, 51, 64
4, 74640, Note_on_c, 2, 50, 127
4, 74736, Note_off_c, 2, 50, 64
4, 74760, Note_on_c, 2, 48, 127
4, 74856, Note_off_c, 2, 48, 64
4, 74880, Note_on_c, 2, 46, 127
4, 74976, Note_off_c, 2, 46, 64
4, 75000, Note_on_c, 2, 44, 127
4, 75096, Note_off_c, 2, 44, 64
4, 75120, Note_on_c, 2, 38, 127
4, 75216, Note_off_c, 2, 38, 64
4, 75240, Note_on_c, 2, 50, 127
4, 75336, Note_off_c, 2, 50, 64
4, 75360, Note_on_c, 2, 48, 127
4, 75456, Note_off_c, 2, 48, 64
4, 75480, Note_on_c, 2, 47, 127
4, 75576, Note_off_c, 2, 47, 64
4, 75600, Note_on_c, 2, 45, 127
4, 75696, Note_off_c, 2, 45, 64
4, 75720, Note_on_c, 2, 43, 127
4, 75816, Note_off_c, 2, 43, 64
4, 75840, Note_on_c, 2, 48, 127
4, 76032, Note_off_c, 2, 48, 64
4, 76080, Note_on_c, 2, 51, 127
4, 76176, Note_off_c, 2, 51, 64
4, 76200, Note_on_c, 2, 50, 127
4, 76392, Note_off_c, 2, 50, 64
4, 76440, Note_on_c, 2, 43, 127
4, 76536, Note_off_c, 2, 43, 64
4, 76560, Note_on_c, 2, 48, 127
4, 76704, Note_off_c, 2, 48, 64
4, 76740, Note_on_c, 2, 47, 127
4, 76788, Note_off_c, 2, 47, 64
4, 76800, Note_on_c, 2, 48, 127
4, 76896, Note_off_c, 2, 48, 64
4, 76920, Note_on_c, 2, 36, 127
4, 77112, Note_off_c, 2, 36, 64
4, 77160, Note_on_c, 2, 48, 127
4, 77256, Note_off_c, 2, 48, 64
4, 77280, Note_on_c, 2, 50, 127
4, 77472, Note_off_c, 2, 50, 64
4, 77520, Note_on_c, 2, 52, 127
4, 77616, Note_off_c, 2, 52, 64
4, 77640, Note_on_c, 2, 54, 127
4, 77736, Note_off_c, 2, 54, 64
4, 77760, Note_on_c, 2, 57, 127
4, 77856, Note_off_c, 2, 57, 64
4, 77880, Note_on_c, 2, 50, 127
4, 77976, Note_off_c, 2, 50, 64
4, 78000, Note_on_c, 2, 55, 127
4, 78192, Note_off_c, 2, 55, 64
4, 78240, Note_on_c, 2, 57, 127
4, 78336, Note_off_c, 2, 57, 64
4, 78360, Note_on_c, 2, 59, 127
4, 78456, Note_off_c, 2, 59, 64
4, 78480, Note_on_c, 2, 62, 127
4, 78576, Note_off_c, 2, 62, 64
4, 78600, Note_on_c, 2, 55, 127
4, 78696, Note_off_c, 2, 55, 64
4, 78720, Note_on_c, 2, 60, 127
4, 78912, Note_off_c, 2, 60, 64
4, 78960, Note_on_c, 2, 56, 127
4, 79056, Note_off_c, 2, 56, 64
4, 79080, Note_on_c, 2, 53, 127
4, 79272, Note_off_c, 2, 53, 64
4, 79320, Note_on_c, 2, 55, 127
4, 79416, Note_off_c, 2, 55, 64
4, 79440, Note_on_c, 2, 56, 127
4, 79632, Note_off_c, 2, 56, 64
4, 79680, Note_on_c, 2, 53, 127
4, 79776, Note_off_c, 2, 53, 64
4, 79800, Note_on_c, 2, 55, 127
4, 79992, Note_off_c, 2, 55, 64
4, 80040, Note_on_c, 2, 43, 127
4, 80136, Note_off_c, 2, 43, 64
4, 80160, Note_on_c, 2, 48, 127
4, 80712, Note_off_c, 2, 48, 64
4, 80712, End_track
0, 0, End_of_file
