0, 0, Header, 1, 4, 240
1, 0, Start_track
1, 0, Time_signature, 3, 2, 24, 8
1, 0, Tempo, 631579
1, 110400, Tempo, 705882
1, 110640, Tempo, 789474
1, 110880, Tempo, 1578947
1, 110880, End_track
2, 0, Start_track
2, 0, Title_t, "Trio Sonata 5, 1st Mov. BWV 529"
2, 0, Program_c, 0, 19
2, 60, Note_on_c, 0, 72, 107
2, 108, Note_off_c, 0, 72, 64
2, 120, Note_on_c, 0, 71, 107
2, 168, Note_off_c, 0, 71, 64
2, 180, Note_on_c, 0, 72, 107
2, 228, Note_off_c, 0, 72, 64
2, 240, Note_on_c, 0, 76, 107
2, 288, Note_off_c, 0, 76, 64
2, 300, Note_on_c, 0, 72, 107
2, 348, Note_off_c, 0, 72, 64
2, 360, Note_on_c, 0, 71, 107
2, 408, Note_off_c, 0, 71, 64
2, 420, Note_on_c, 0, 72, 107
2, 468, Note_off_c, 0, 72, 64
2, 480, Note_on_c, 0, 67, 107
2, 528, Note_off_c, 0, 67, 64
2, 540, Note_on_c, 0, 72, 107
2, 588, Note_off_c, 0, 72, 64
2, 600, Note_on_c, 0, 64, 107
2, 648, Note_off_c, 0, 64, 64
2, 660, Note_on_c, 0, 67, 107
2, 708, Note_off_c, 0, 67, 64
2, 720, Note_on_c, 0, 60, 107
2, 816, Note_off_c, 0, 60, 64
2, 840, Note_on_c, 0, 79, 107
2, 936, Note_off_c, 0, 79, 64
2, 960, Note_on_c, 0, 76, 107
2, 1056, Note_off_c, 0, 76, 64
2, 1080, Note_on_c, 0, 79, 107
2, 1176, Note_off_c, 0, 79, 64
2, 1200, Note_on_c, 0, 81, 107
2, 1296, Note_off_c, 0, 81, 64
2, 1320, Note_on_c, 0, 79, 107
2, 1368, Note_off_c, 0, 79, 64
2, 1380, Note_on_c, 0, 77, 107
2, 1428, Note_off_c, 0, 77, 64
2, 1440, Note_on_c, 0, 79, 107
2, 1632, Note_off_c, 0, 79, 64
2, 2280, Note_on_c, 0, 76, 107
2, 2376, Note_off_c, 0, 76, 64
2, 2400, Note_on_c, 0, 72, 107
2, 2496, Note_off_c, 0, 72, 64
2, 2520, Note_on_c, 0, 76, 107
2, 2616, Note_off_c, 0, 76, 64
2, 2640, Note_on_c, 0, 77, 107
2, 2736, Note_off_c, 0, 77, 64
2, 2760, Note_on_c, 0, 76, 107
2, 2808, Note_off_c, 0, 76, 64
2, 2820, Note_on_c, 0, 74, 107
2, 2868, Note_off_c, 0, 74, 64
2, 2880, Note_on_c, 0, 76, 107
2, 2976, Note_off_c, 0, 76, 64
2, 3000, Note_on_c, 0, 79, 107
2, 3096, Note_off_c, 0, 79, 64
2, 3120, Note_on_c, 0, 72, 107
2, 3216, Note_off_c, 0, 72, 64
2, 3240, Note_on_c, 0, 76, 107
2, 3336, Note_off_c, 0, 76, 64
2, 3360, Note_on_c, 0, 69, 107
2, 3408, Note_off_c, 0, 69, 64
2, 3420, Note_on_c, 0, 72, 107
2, 3468, Note_off_c, 0, 72, 64
2, 3480, Note_on_c, 0, 74, 107
2, 3528, Note_off_c, 0, 74, 64
2, 3540, Note_on_c, 0, 76, 107
2, 3588, Note_off_c, 0, 76, 64
2, 3600, Note_on_c, 0, 77, 107
2, 3696, Note_off_c, 0, 77, 64
2, 3720, Note_on_c, 0, 81, 107
2, 3816, Note_off_c, 0, 81, 64
2, 3840, Note_on_c, 0, 74, 107
2, 3936, Note_off_c, 0, 74, 64
2, 3960, Note_on_c, 0, 77, 107
2, 4056, Note_off_c, 0, 77, 64
2, 4080, Note_on_c, 0, 71, 107
2, 4128, Note_off_c, 0, 71, 64
2, 4140, Note_on_c, 0, 74, 107
2, 4188, Note_off_c, 0, 74, 64
2, 4200, Note_on_c, 0, 76, 107
2, 4248, Note_off_c, 0, 76, 64
2, 4260, Note_on_c, 0, 77, 107
2, 4308, Note_off_c, 0, 77, 64
2, 4320, Note_on_c, 0, 79, 107
2, 4416, Note_off_c, 0, 79, 64
2, 4440, Note_on_c, 0, 84, 107
2, 4488, Note_off_c, 0, 84, 64
2, 4500, Note_on_c, 0, 79, 107
2, 4548, Note_off_c, 0, 79, 64
2, 4560, Note_on_c, 0, 76, 107
2, 4656, Note_off_c, 0, 76, 64
2, 4680, Note_on_c, 0, 79, 107
2, 4728, Note_off_c, 0, 79, 64
2, 4740, Note_on_c, 0, 76, 107
2, 4788, Note_off_c, 0, 76, 64
2, 4800, Note_on_c, 0, 72, 107
2, 4848, Note_off_c, 0, 72, 64
2, 4860, Note_on_c, 0, 76, 107
2, 4908, Note_off_c, 0, 76, 64
2, 4920, Note_on_c, 0, 77, 107
2, 4968, Note_off_c, 0, 77, 64
2, 4980, Note_on_c, 0, 79, 107
2, 5028, Note_off_c, 0, 79, 64
2, 5040, Note_on_c, 0, 81, 107
2, 5088, Note_off_c, 0, 81, 64
2, 5100, Note_on_c, 0, 79, 107
2, 5148, Note_off_c, 0, 79, 64
2, 5160, Note_on_c, 0, 81, 107
2, 5208, Note_off_c, 0, 81, 64
2, 5220, Note_on_c, 0, 82, 107
2, 5268, Note_off_c, 0, 82, 64
2, 5280, Note_on_c, 0, 81, 107
2, 5328, Note_off_c, 0, 81, 64
2, 5340, Note_on_c, 0, 79, 107
2, 5388, Note_off_c, 0, 79, 64
2, 5400, Note_on_c, 0, 77, 107
2, 5448, Note_off_c, 0, 77, 64
2, 5460, Note_on_c, 0, 76, 107
2, 5508, Note_off_c, 0, 76, 64
2, 5520, Note_on_c, 0, 74, 107
2, 5568, Note_off_c, 0, 74, 64
2, 5580, Note_on_c, 0, 72, 107
2, 5628, Note_off_c, 0, 72, 64
2, 5640, Note_on_c, 0, 71, 107
2, 5688, Note_off_c, 0, 71, 64
2, 5700, Note_on_c, 0, 69, 107
2, 5748, Note_off_c, 0, 69, 64
2, 5760, Note_on_c, 0, 71, 107
2, 5808, Note_off_c, 0, 71, 64
2, 5820, Note_on_c, 0, 72, 107
2, 5868, Note_off_c, 0, 72, 64
2, 5880, Note_on_c, 0, 71, 107
2, 5928, Note_off_c, 0, 71, 64
2, 5940, Note_on_c, 0, 67, 107
2, 5988, Note_off_c, 0, 67, 64
2, 6000, Note_on_c, 0, 74, 107
2, 6048, Note_off_c, 0, 74, 64
2, 6060, Note_on_c, 0, 76, 107
2, 6108, Note_off_c, 0, 76, 64
2, 6120, Note_on_c, 0, 74, 107
2, 6168, Note_off_c, 0, 74, 64
2, 6180, Note_on_c, 0, 71, 107
2, 6228, Note_off_c, 0, 71, 64
2, 6240, Note_on_c, 0, 77, 107
2, 6288, Note_off_c, 0, 77, 64
2, 6300, Note_on_c, 0, 79, 107
2, 6348, Note_off_c, 0, 79, 64
2, 6360, Note_on_c, 0, 77, 107
2, 6408, Note_off_c, 0, 77, 64
2, 6420, Note_on_c, 0, 74, 107
2, 6468, Note_off_c, 0, 74, 64
2, 6480, Note_on_c, 0, 75, 107
2, 6576, Note_off_c, 0, 75, 64
2, 6600, Note_on_c, 0, 72, 107
2, 6696, Note_off_c, 0, 72, 64
2, 6720, Note_on_c, 0, 79, 107
2, 6816, Note_off_c, 0, 79, 64
2, 6840, Note_on_c, 0, 75, 107
2, 6936, Note_off_c, 0, 75, 64
2, 6960, Note_on_c, 0, 84, 107
2, 7248, Note_off_c, 0, 84, 64
2, 7260, Note_on_c, 0, 82, 107
2, 7308, Note_off_c, 0, 82, 64
2, 7320, Note_on_c, 0, 81, 107
2, 7368, Note_off_c, 0, 81, 64
2, 7380, Note_on_c, 0, 79, 107
2, 7428, Note_off_c, 0, 79, 64
2, 7440, Note_on_c, 0, 78, 107
2, 7488, Note_off_c, 0, 78, 64
2, 7500, Note_on_c, 0, 81, 107
2, 7548, Note_off_c, 0, 81, 64
2, 7560, Note_on_c, 0, 75, 107
2, 7608, Note_off_c, 0, 75, 64
2, 7620, Note_on_c, 0, 74, 107
2, 7668, Note_off_c, 0, 74, 64
2, 7680, Note_on_c, 0, 75, 107
2, 7728, Note_off_c, 0, 75, 64
2, 7740, Note_on_c, 0, 72, 107
2, 7788, Note_off_c, 0, 72, 64
2, 7800, Note_on_c, 0, 79, 107
2, 7848, Note_off_c, 0, 79, 64
2, 7860, Note_on_c, 0, 78, 107
2, 7908, Note_off_c, 0, 78, 64
2, 7920, Note_on_c, 0, 79, 107
2, 7968, Note_off_c, 0, 79, 64
2, 7980, Note_on_c, 0, 74, 107
2, 8028, Note_off_c, 0, 74, 64
2, 8040, Note_on_c, 0, 72, 107
2, 8088, Note_off_c, 0, 72, 64
2, 8100, Note_on_c, 0, 74, 107
2, 8148, Note_off_c, 0, 74, 64
2, 8160, Note_on_c, 0, 83, 107
2, 8688, Note_off_c, 0, 83, 64
2, 8700, Note_on_c, 0, 72, 107
2, 8748, Note_off_c, 0, 72, 64
2, 8760, Note_on_c, 0, 71, 107
2, 8808, Note_off_c, 0, 71, 64
2, 8820, Note_on_c, 0, 72, 107
2, 8868, Note_off_c, 0, 72, 64
2, 8880, Note_on_c, 0, 81, 107
2, 9408, Note_off_c, 0, 81, 64
2, 9420, Note_on_c, 0, 71, 107
2, 9468, Note_off_c, 0, 71, 64
2, 9480, Note_on_c, 0, 69, 107
2, 9528, Note_off_c, 0, 69, 64
2, 9540, Note_on_c, 0, 71, 107
2, 9588, Note_off_c, 0, 71, 64
2, 9600, Note_on_c, 0, 79, 107
2, 10128, Note_off_c, 0, 79, 64
2, 10140, Note_on_c, 0, 78, 107
2, 10188, Note_off_c, 0, 78, 64
2, 10200, Note_on_c, 0, 76, 107
2, 10248, Note_off_c, 0, 76, 64
2, 10260, Note_on_c, 0, 74, 107
2, 10308, Note_off_c, 0, 74, 64
2, 10320, Note_on_c, 0, 72, 107
2, 10368, Note_off_c, 0, 72, 64
2, 10380, Note_on_c, 0, 71, 107
2, 10428, Note_off_c, 0, 71, 64
2, 10440, Note_on_c, 0, 69, 107
2, 10488, Note_off_c, 0, 69, 64
2, 10500, Note_on_c, 0, 67, 107
2, 10548, Note_off_c, 0, 67, 64
2, 10560, Note_on_c, 0, 66, 107
2, 10608, Note_off_c, 0, 66, 64
2, 10620, Note_on_c, 0, 64, 107
2, 10668, Note_off_c, 0, 64, 64
2, 10680, Note_on_c, 0, 62, 107
2, 10728, Note_off_c, 0, 62, 64
2, 10740, Note_on_c, 0, 60, 107
2, 10788, Note_off_c, 0, 60, 64
2, 10800, Note_on_c, 0, 62, 107
2, 10896, Note_off_c, 0, 62, 64
2, 10920, Note_on_c, 0, 72, 107
2, 11016, Note_off_c, 0, 72, 64
2, 11040, Note_on_c, 0, 71, 107
2, 11136, Note_off_c, 0, 71, 64
2, 11160, Note_on_c, 0, 76, 107
2, 11208, Note_off_c, 0, 76, 64
2, 11220, Note_on_c, 0, 74, 107
2, 11268, Note_off_c, 0, 74, 64
2, 11280, Note_on_c, 0, 72, 107
2, 11328, Note_off_c, 0, 72, 64
2, 11340, Note_on_c, 0, 71, 107
2, 11388, Note_off_c, 0, 71, 64
2, 11400, Note_on_c, 0, 69, 107
2, 11448, Note_off_c, 0, 69, 64
2, 11460, Note_on_c, 0, 67, 107
2, 11508, Note_off_c, 0, 67, 64
2, 11520, Note_on_c, 0, 67, 107
2, 11712, Note_off_c, 0, 67, 64
2, 12360, Note_on_c, 0, 83, 107
2, 12456, Note_off_c, 0, 83, 64
2, 12480, Note_on_c, 0, 79, 107
2, 12576, Note_off_c, 0, 79, 64
2, 12600, Note_on_c, 0, 83, 107
2, 12696, Note_off_c, 0, 83, 64
2, 12720, Note_on_c, 0, 84, 107
2, 12816, Note_off_c, 0, 84, 64
2, 12840, Note_on_c, 0, 83, 107
2, 12888, Note_off_c, 0, 83, 64
2, 12900, Note_on_c, 0, 81, 107
2, 12948, Note_off_c, 0, 81, 64
2, 12960, Note_on_c, 0, 83, 107
2, 13008, Note_off_c, 0, 83, 64
2, 13020, Note_on_c, 0, 79, 107
2, 13068, Note_off_c, 0, 79, 64
2, 13080, Note_on_c, 0, 78, 107
2, 13128, Note_off_c, 0, 78, 64
2, 13140, Note_on_c, 0, 79, 107
2, 13188, Note_off_c, 0, 79, 64
2, 13200, Note_on_c, 0, 83, 107
2, 13248, Note_off_c, 0, 83, 64
2, 13260, Note_on_c, 0, 79, 107
2, 13308, Note_off_c, 0, 79, 64
2, 13320, Note_on_c, 0, 78, 107
2, 13368, Note_off_c, 0, 78, 64
2, 13380, Note_on_c, 0, 79, 107
2, 13428, Note_off_c, 0, 79, 64
2, 13440, Note_on_c, 0, 74, 107
2, 13488, Note_off_c, 0, 74, 64
2, 13500, Note_on_c, 0, 79, 107
2, 13548, Note_off_c, 0, 79, 64
2, 13560, Note_on_c, 0, 71, 107
2, 13608, Note_off_c, 0, 71, 64
2, 13620, Note_on_c, 0, 74, 107
2, 13668, Note_off_c, 0, 74, 64
2, 13680, Note_on_c, 0, 67, 107
2, 13776, Note_off_c, 0, 67, 64
2, 13800, Note_on_c, 0, 74, 107
2, 13896, Note_off_c, 0, 74, 64
2, 13920, Note_on_c, 0, 71, 107
2, 14016, Note_off_c, 0, 71, 64
2, 14040, Note_on_c, 0, 74, 107
2, 14136, Note_off_c, 0, 74, 64
2, 14160, Note_on_c, 0, 76, 107
2, 14256, Note_off_c, 0, 76, 64
2, 14280, Note_on_c, 0, 74, 107
2, 14328, Note_off_c, 0, 74, 64
2, 14340, Note_on_c, 0, 72, 107
2, 14388, Note_off_c, 0, 72, 64
2, 14400, Note_on_c, 0, 74, 107
2, 14448, Note_off_c, 0, 74, 64
2, 14460, Note_on_c, 0, 71, 107
2, 14508, Note_off_c, 0, 71, 64
2, 14520, Note_on_c, 0, 67, 107
2, 14568, Note_off_c, 0, 67, 64
2, 14580, Note_on_c, 0, 71, 107
2, 14628, Note_off_c, 0, 71, 64
2, 14640, Note_on_c, 0, 76, 107
2, 14688, Note_off_c, 0, 76, 64
2, 14700, Note_on_c, 0, 71, 107
2, 14748, Note_off_c, 0, 71, 64
2, 14760, Note_on_c, 0, 67, 107
2, 14808, Note_off_c, 0, 67, 64
2, 14820, Note_on_c, 0, 71, 107
2, 14868, Note_off_c, 0, 71, 64
2, 14880, Note_on_c, 0, 79, 107
2, 15168, Note_off_c, 0, 79, 64
2, 15180, Note_on_c, 0, 72, 107
2, 15228, Note_off_c, 0, 72, 64
2, 15240, Note_on_c, 0, 69, 107
2, 15288, Note_off_c, 0, 69, 64
2, 15300, Note_on_c, 0, 72, 107
2, 15348, Note_off_c, 0, 72, 64
2, 15360, Note_on_c, 0, 78, 107
2, 15408, Note_off_c, 0, 78, 64
2, 15420, Note_on_c, 0, 72, 107
2, 15468, Note_off_c, 0, 72, 64
2, 15480, Note_on_c, 0, 69, 107
2, 15528, Note_off_c, 0, 69, 64
2, 15540, Note_on_c, 0, 72, 107
2, 15588, Note_off_c, 0, 72, 64
2, 15600, Note_on_c, 0, 81, 107
2, 15888, Note_off_c, 0, 81, 64
2, 15900, Note_on_c, 0, 74, 107
2, 15948, Note_off_c, 0, 74, 64
2, 15960, Note_on_c, 0, 71, 107
2, 16008, Note_off_c, 0, 71, 64
2, 16020, Note_on_c, 0, 74, 107
2, 16068, Note_off_c, 0, 74, 64
2, 16080, Note_on_c, 0, 79, 107
2, 16128, Note_off_c, 0, 79, 64
2, 16140, Note_on_c, 0, 74, 107
2, 16188, Note_off_c, 0, 74, 64
2, 16200, Note_on_c, 0, 71, 107
2, 16248, Note_off_c, 0, 71, 64
2, 16260, Note_on_c, 0, 74, 107
2, 16308, Note_off_c, 0, 74, 64
2, 16320, Note_on_c, 0, 83, 107
2, 16656, Note_off_c, 0, 83, 64
2, 16680, Note_on_c, 0, 81, 107
2, 16728, Note_off_c, 0, 81, 64
2, 16740, Note_on_c, 0, 80, 107
2, 16788, Note_off_c, 0, 80, 64
2, 16800, Note_on_c, 0, 81, 107
2, 16896, Note_off_c, 0, 81, 64
2, 16920, Note_on_c, 0, 76, 107
2, 17016, Note_off_c, 0, 76, 64
2, 17040, Note_on_c, 0, 84, 107
2, 17376, Note_off_c, 0, 84, 64
2, 17400, Note_on_c, 0, 81, 107
2, 17496, Note_off_c, 0, 81, 64
2, 17520, Note_on_c, 0, 78, 107
2, 17616, Note_off_c, 0, 78, 64
2, 17640, Note_on_c, 0, 81, 107
2, 17736, Note_off_c, 0, 81, 64
2, 17760, Note_on_c, 0, 74, 107
2, 17856, Note_off_c, 0, 74, 64
2, 17880, Note_on_c, 0, 78, 107
2, 17976, Note_off_c, 0, 78, 64
2, 18000, Note_on_c, 0, 79, 107
2, 18048, Note_off_c, 0, 79, 64
2, 18060, Note_on_c, 0, 81, 107
2, 18108, Note_off_c, 0, 81, 64
2, 18120, Note_on_c, 0, 82, 107
2, 18168, Note_off_c, 0, 82, 64
2, 18180, Note_on_c, 0, 84, 107
2, 18228, Note_off_c, 0, 84, 64
2, 18240, Note_on_c, 0, 82, 107
2, 18288, Note_off_c, 0, 82, 64
2, 18300, Note_on_c, 0, 81, 107
2, 18348, Note_off_c, 0, 81, 64
2, 18360, Note_on_c, 0, 79, 107
2, 18408, Note_off_c, 0, 79, 64
2, 18420, Note_on_c, 0, 77, 107
2, 18468, Note_off_c, 0, 77, 64
2, 18480, Note_on_c, 0, 76, 107
2, 18528, Note_off_c, 0, 76, 64
2, 18540, Note_on_c, 0, 74, 107
2, 18588, Note_off_c, 0, 74, 64
2, 18600, Note_on_c, 0, 73, 107
2, 18648, Note_off_c, 0, 73, 64
2, 18660, Note_on_c, 0, 71, 107
2, 18708, Note_off_c, 0, 71, 64
2, 18720, Note_on_c, 0, 73, 107
2, 18816, Note_off_c, 0, 73, 64
2, 18840, Note_on_c, 0, 67, 107
2, 18936, Note_off_c, 0, 67, 64
2, 18960, Note_on_c, 0, 76, 107
2, 19056, Note_off_c, 0, 76, 64
2, 19080, Note_on_c, 0, 73, 107
2, 19176, Note_off_c, 0, 73, 64
2, 19200, Note_on_c, 0, 79, 107
2, 19488, Note_off_c, 0, 79, 64
2, 19500, Note_on_c, 0, 78, 107
2, 19548, Note_off_c, 0, 78, 64
2, 19560, Note_on_c, 0, 76, 107
2, 19608, Note_off_c, 0, 76, 64
2, 19620, Note_on_c, 0, 74, 107
2, 19668, Note_off_c, 0, 74, 64
2, 19680, Note_on_c, 0, 83, 107
2, 19968, Note_off_c, 0, 83, 64
2, 19980, Note_on_c, 0, 84, 107
2, 20028, Note_off_c, 0, 84, 64
2, 20040, Note_on_c, 0, 83, 107
2, 20088, Note_off_c, 0, 83, 64
2, 20100, Note_on_c, 0, 81, 107
2, 20148, Note_off_c, 0, 81, 64
2, 20160, Note_on_c, 0, 79, 107
2, 20496, Note_off_c, 0, 79, 64
2, 20520, Note_on_c, 0, 78, 107
2, 20568, Note_off_c, 0, 78, 64
2, 20580, Note_on_c, 0, 76, 107
2, 20628, Note_off_c, 0, 76, 64
2, 20640, Note_on_c, 0, 74, 107
2, 20688, Note_off_c, 0, 74, 64
2, 20700, Note_on_c, 0, 72, 107
2, 20748, Note_off_c, 0, 72, 64
2, 20760, Note_on_c, 0, 71, 107
2, 20808, Note_off_c, 0, 71, 64
2, 20820, Note_on_c, 0, 69, 107
2, 20868, Note_off_c, 0, 69, 64
2, 20880, Note_on_c, 0, 67, 107
2, 21168, Note_off_c, 0, 67, 64
2, 21180, Note_on_c, 0, 76, 107
2, 21228, Note_off_c, 0, 76, 64
2, 21240, Note_on_c, 0, 74, 107
2, 21288, Note_off_c, 0, 74, 64
2, 21300, Note_on_c, 0, 72, 107
2, 21348, Note_off_c, 0, 72, 64
2, 21360, Note_on_c, 0, 79, 107
2, 21648, Note_off_c, 0, 79, 64
2, 21660, Note_on_c, 0, 76, 107
2, 21708, Note_off_c, 0, 76, 64
2, 21720, Note_on_c, 0, 81, 107
2, 21768, Note_off_c, 0, 81, 64
2, 21780, Note_on_c, 0, 79, 107
2, 21828, Note_off_c, 0, 79, 64
2, 21840, Note_on_c, 0, 77, 107
2, 21888, Note_off_c, 0, 77, 64
2, 21900, Note_on_c, 0, 76, 107
2, 21948, Note_off_c, 0, 76, 64
2, 21960, Note_on_c, 0, 74, 107
2, 22008, Note_off_c, 0, 74, 64
2, 22020, Note_on_c, 0, 72, 107
2, 22068, Note_off_c, 0, 72, 64
2, 22080, Note_on_c, 0, 71, 107
2, 22176, Note_off_c, 0, 71, 64
2, 22200, Note_on_c, 0, 77, 107
2, 22368, Note_off_c, 0, 77, 64
2, 22380, Note_on_c, 0, 76, 107
2, 22428, Note_off_c, 0, 76, 64
2, 22440, Note_on_c, 0, 74, 107
2, 22488, Note_off_c, 0, 74, 64
2, 22500, Note_on_c, 0, 76, 107
2, 22548, Note_off_c, 0, 76, 64
2, 22560, Note_on_c, 0, 79, 107
2, 22608, Note_off_c, 0, 79, 64
2, 22620, Note_on_c, 0, 76, 107
2, 22668, Note_off_c, 0, 76, 64
2, 22680, Note_on_c, 0, 74, 107
2, 22728, Note_off_c, 0, 74, 64
2, 22740, Note_on_c, 0, 76, 107
2, 22788, Note_off_c, 0, 76, 64
2, 22800, Note_on_c, 0, 72, 107
2, 22848, Note_off_c, 0, 72, 64
2, 22860, Note_on_c, 0, 76, 107
2, 22908, Note_off_c, 0, 76, 64
2, 22920, Note_on_c, 0, 69, 107
2, 22968, Note_off_c, 0, 69, 64
2, 22980, Note_on_c, 0, 72, 107
2, 23028, Note_off_c, 0, 72, 64
2, 23040, Note_on_c, 0, 65, 107
2, 23136, Note_off_c, 0, 65, 64
2, 23160, Note_on_c, 0, 81, 107
2, 23256, Note_off_c, 0, 81, 64
2, 23280, Note_on_c, 0, 77, 107
2, 23376, Note_off_c, 0, 77, 64
2, 23400, Note_on_c, 0, 81, 107
2, 23496, Note_off_c, 0, 81, 64
2, 23520, Note_on_c, 0, 82, 107
2, 23808, Note_off_c, 0, 82, 64
2, 23820, Note_on_c, 0, 79, 107
2, 23868, Note_off_c, 0, 79, 64
2, 23880, Note_on_c, 0, 77, 107
2, 23928, Note_off_c, 0, 77, 64
2, 23940, Note_on_c, 0, 79, 107
2, 23988, Note_off_c, 0, 79, 64
2, 24000, Note_on_c, 0, 82, 107
2, 24048, Note_off_c, 0, 82, 64
2, 24060, Note_on_c, 0, 79, 107
2, 24108, Note_off_c, 0, 79, 64
2, 24120, Note_on_c, 0, 77, 107
2, 24168, Note_off_c, 0, 77, 64
2, 24180, Note_on_c, 0, 79, 107
2, 24228, Note_off_c, 0, 79, 64
2, 24240, Note_on_c, 0, 76, 107
2, 24288, Note_off_c, 0, 76, 64
2, 24300, Note_on_c, 0, 79, 107
2, 24348, Note_off_c, 0, 79, 64
2, 24360, Note_on_c, 0, 72, 107
2, 24408, Note_off_c, 0, 72, 64
2, 24420, Note_on_c, 0, 76, 107
2, 24468, Note_off_c, 0, 76, 64
2, 24480, Note_on_c, 0, 69, 107
2, 24528, Note_off_c, 0, 69, 64
2, 24540, Note_on_c, 0, 81, 107
2, 24588, Note_off_c, 0, 81, 64
2, 24600, Note_on_c, 0, 79, 107
2, 24648, Note_off_c, 0, 79, 64
2, 24660, Note_on_c, 0, 81, 107
2, 24708, Note_off_c, 0, 81, 64
2, 24720, Note_on_c, 0, 84, 107
2, 24768, Note_off_c, 0, 84, 64
2, 24780, Note_on_c, 0, 81, 107
2, 24828, Note_off_c, 0, 81, 64
2, 24840, Note_on_c, 0, 79, 107
2, 24888, Note_off_c, 0, 79, 64
2, 24900, Note_on_c, 0, 81, 107
2, 24948, Note_off_c, 0, 81, 64
2, 24960, Note_on_c, 0, 77, 107
2, 25008, Note_off_c, 0, 77, 64
2, 25020, Note_on_c, 0, 81, 107
2, 25068, Note_off_c, 0, 81, 64
2, 25080, Note_on_c, 0, 84, 107
2, 25248, Note_off_c, 0, 84, 64
2, 25260, Note_on_c, 0, 82, 107
2, 25308, Note_off_c, 0, 82, 64
2, 25320, Note_on_c, 0, 81, 107
2, 25368, Note_off_c, 0, 81, 64
2, 25380, Note_on_c, 0, 82, 107
2, 25428, Note_off_c, 0, 82, 64
2, 25440, Note_on_c, 0, 84, 107
2, 25488, Note_off_c, 0, 84, 64
2, 25500, Note_on_c, 0, 82, 107
2, 25548, Note_off_c, 0, 82, 64
2, 25560, Note_on_c, 0, 81, 107
2, 25608, Note_off_c, 0, 81, 64
2, 25620, Note_on_c, 0, 82, 107
2, 25668, Note_off_c, 0, 82, 64
2, 25680, Note_on_c, 0, 77, 107
2, 25728, Note_off_c, 0, 77, 64
2, 25740, Note_on_c, 0, 81, 107
2, 25788, Note_off_c, 0, 81, 64
2, 25800, Note_on_c, 0, 82, 107
2, 25968, Note_off_c, 0, 82, 64
2, 25980, Note_on_c, 0, 81, 107
2, 26028, Note_off_c, 0, 81, 64
2, 26040, Note_on_c, 0, 79, 107
2, 26088, Note_off_c, 0, 79, 64
2, 26100, Note_on_c, 0, 81, 107
2, 26148, Note_off_c, 0, 81, 64
2, 26160, Note_on_c, 0, 82, 107
2, 26208, Note_off_c, 0, 82, 64
2, 26220, Note_on_c, 0, 81, 107
2, 26268, Note_off_c, 0, 81, 64
2, 26280, Note_on_c, 0, 79, 107
2, 26328, Note_off_c, 0, 79, 64
2, 26340, Note_on_c, 0, 81, 107
2, 26388, Note_off_c, 0, 81, 64
2, 26400, Note_on_c, 0, 77, 107
2, 26448, Note_off_c, 0, 77, 64
2, 26460, Note_on_c, 0, 79, 107
2, 26508, Note_off_c, 0, 79, 64
2, 26520, Note_on_c, 0, 81, 107
2, 26688, Note_off_c, 0, 81, 64
2, 26700, Note_on_c, 0, 79, 107
2, 26748, Note_off_c, 0, 79, 64
2, 26760, Note_on_c, 0, 77, 107
2, 26808, Note_off_c, 0, 77, 64
2, 26820, Note_on_c, 0, 79, 107
2, 26868, Note_off_c, 0, 79, 64
2, 26880, Note_on_c, 0, 82, 107
2, 26928, Note_off_c, 0, 82, 64
2, 26940, Note_on_c, 0, 79, 107
2, 26988, Note_off_c, 0, 79, 64
2, 27000, Note_on_c, 0, 77, 107
2, 27048, Note_off_c, 0, 77, 64
2, 27060, Note_on_c, 0, 79, 107
2, 27108, Note_off_c, 0, 79, 64
2, 27120, Note_on_c, 0, 76, 107
2, 27168, Note_off_c, 0, 76, 64
2, 27180, Note_on_c, 0, 77, 107
2, 27228, Note_off_c, 0, 77, 64
2, 27240, Note_on_c, 0, 79, 107
2, 27456, Note_off_c, 0, 79, 64
2, 27480, Note_on_c, 0, 72, 107
2, 27576, Note_off_c, 0, 72, 64
2, 27600, Note_on_c, 0, 77, 107
2, 27696, Note_off_c, 0, 77, 64
2, 27720, Note_on_c, 0, 81, 107
2, 27936, Note_off_c, 0, 81, 64
2, 27960, Note_on_c, 0, 74, 107
2, 28176, Note_off_c, 0, 74, 64
2, 28200, Note_on_c, 0, 71, 107
2, 28296, Note_off_c, 0, 71, 64
2, 28320, Note_on_c, 0, 76, 107
2, 28416, Note_off_c, 0, 76, 64
2, 28440, Note_on_c, 0, 79, 107
2, 28656, Note_off_c, 0, 79, 64
2, 28680, Note_on_c, 0, 72, 107
2, 28896, Note_off_c, 0, 72, 64
2, 28920, Note_on_c, 0, 69, 107
2, 29016, Note_off_c, 0, 69, 64
2, 29040, Note_on_c, 0, 74, 107
2, 29136, Note_off_c, 0, 74, 64
2, 29160, Note_on_c, 0, 77, 107
2, 29376, Note_off_c, 0, 77, 64
2, 29400, Note_on_c, 0, 71, 107
2, 29496, Note_off_c, 0, 71, 64
2, 29640, Note_on_c, 0, 72, 107
2, 29736, Note_off_c, 0, 72, 64
2, 29760, Note_on_c, 0, 76, 107
2, 29856, Note_off_c, 0, 76, 64
2, 29880, Note_on_c, 0, 79, 107
2, 29976, Note_off_c, 0, 79, 64
2, 30000, Note_on_c, 0, 82, 107
2, 30096, Note_off_c, 0, 82, 64
2, 30120, Note_on_c, 0, 81, 107
2, 30168, Note_off_c, 0, 81, 64
2, 30180, Note_on_c, 0, 79, 107
2, 30228, Note_off_c, 0, 79, 64
2, 30240, Note_on_c, 0, 81, 107
2, 30336, Note_off_c, 0, 81, 64
2, 30360, Note_on_c, 0, 77, 107
2, 30456, Note_off_c, 0, 77, 64
2, 30480, Note_on_c, 0, 72, 107
2, 30576, Note_off_c, 0, 72, 64
2, 30600, Note_on_c, 0, 77, 107
2, 30696, Note_off_c, 0, 77, 64
2, 30720, Note_on_c, 0, 81, 107
2, 30816, Note_off_c, 0, 81, 64
2, 30840, Note_on_c, 0, 79, 107
2, 30888, Note_off_c, 0, 79, 64
2, 30900, Note_on_c, 0, 77, 107
2, 30948, Note_off_c, 0, 77, 64
2, 30960, Note_on_c, 0, 79, 107
2, 31056, Note_off_c, 0, 79, 64
2, 31080, Note_on_c, 0, 76, 107
2, 31176, Note_off_c, 0, 76, 64
2, 31200, Note_on_c, 0, 72, 107
2, 31296, Note_off_c, 0, 72, 64
2, 31320, Note_on_c, 0, 76, 107
2, 31416, Note_off_c, 0, 76, 64
2, 31440, Note_on_c, 0, 79, 107
2, 31536, Note_off_c, 0, 79, 64
2, 31560, Note_on_c, 0, 77, 107
2, 31608, Note_off_c, 0, 77, 64
2, 31620, Note_on_c, 0, 76, 107
2, 31668, Note_off_c, 0, 76, 64
2, 31680, Note_on_c, 0, 77, 107
2, 31776, Note_off_c, 0, 77, 64
2, 31800, Note_on_c, 0, 74, 107
2, 31896, Note_off_c, 0, 74, 64
2, 31920, Note_on_c, 0, 71, 107
2, 32016, Note_off_c, 0, 71, 64
2, 32040, Note_on_c, 0, 74, 107
2, 32136, Note_off_c, 0, 74, 64
2, 32160, Note_on_c, 0, 77, 107
2, 32208, Note_off_c, 0, 77, 64
2, 32220, Note_on_c, 0, 76, 107
2, 32268, Note_off_c, 0, 76, 64
2, 32280, Note_on_c, 0, 74, 107
2, 32328, Note_off_c, 0, 74, 64
2, 32340, Note_on_c, 0, 76, 107
2, 32388, Note_off_c, 0, 76, 64
2, 32400, Note_on_c, 0, 77, 107
2, 32448, Note_off_c, 0, 77, 64
2, 32460, Note_on_c, 0, 76, 107
2, 32508, Note_off_c, 0, 76, 64
2, 32520, Note_on_c, 0, 74, 107
2, 32568, Note_off_c, 0, 74, 64
2, 32580, Note_on_c, 0, 76, 107
2, 32628, Note_off_c, 0, 76, 64
2, 32640, Note_on_c, 0, 72, 107
2, 32688, Note_off_c, 0, 72, 64
2, 32700, Note_on_c, 0, 81, 107
2, 32748, Note_off_c, 0, 81, 64
2, 32760, Note_on_c, 0, 79, 107
2, 32808, Note_off_c, 0, 79, 64
2, 32820, Note_on_c, 0, 77, 107
2, 32868, Note_off_c, 0, 77, 64
2, 32880, Note_on_c, 0, 76, 107
2, 32928, Note_off_c, 0, 76, 64
2, 32940, Note_on_c, 0, 74, 107
2, 32988, Note_off_c, 0, 74, 64
2, 33000, Note_on_c, 0, 72, 107
2, 33048, Note_off_c, 0, 72, 64
2, 33060, Note_on_c, 0, 70, 107
2, 33108, Note_off_c, 0, 70, 64
2, 33120, Note_on_c, 0, 69, 107
2, 33168, Note_off_c, 0, 69, 64
2, 33180, Note_on_c, 0, 70, 107
2, 33228, Note_off_c, 0, 70, 64
2, 33240, Note_on_c, 0, 67, 107
2, 33288, Note_off_c, 0, 67, 64
2, 33300, Note_on_c, 0, 69, 107
2, 33348, Note_off_c, 0, 69, 64
2, 33360, Note_on_c, 0, 65, 107
2, 33408, Note_off_c, 0, 65, 64
2, 33420, Note_on_c, 0, 79, 107
2, 33468, Note_off_c, 0, 79, 64
2, 33480, Note_on_c, 0, 77, 107
2, 33528, Note_off_c, 0, 77, 64
2, 33540, Note_on_c, 0, 76, 107
2, 33588, Note_off_c, 0, 76, 64
2, 33600, Note_on_c, 0, 74, 107
2, 33648, Note_off_c, 0, 74, 64
2, 33660, Note_on_c, 0, 72, 107
2, 33708, Note_off_c, 0, 72, 64
2, 33720, Note_on_c, 0, 71, 107
2, 33768, Note_off_c, 0, 71, 64
2, 33780, Note_on_c, 0, 69, 107
2, 33828, Note_off_c, 0, 69, 64
2, 33840, Note_on_c, 0, 67, 107
2, 33888, Note_off_c, 0, 67, 64
2, 33900, Note_on_c, 0, 69, 107
2, 33948, Note_off_c, 0, 69, 64
2, 33960, Note_on_c, 0, 65, 107
2, 34008, Note_off_c, 0, 65, 64
2, 34020, Note_on_c, 0, 67, 107
2, 34068, Note_off_c, 0, 67, 64
2, 34080, Note_on_c, 0, 64, 107
2, 34128, Note_off_c, 0, 64, 64
2, 34140, Note_on_c, 0, 77, 107
2, 34188, Note_off_c, 0, 77, 64
2, 34200, Note_on_c, 0, 76, 107
2, 34248, Note_off_c, 0, 76, 64
2, 34260, Note_on_c, 0, 74, 107
2, 34308, Note_off_c, 0, 74, 64
2, 34320, Note_on_c, 0, 72, 107
2, 34368, Note_off_c, 0, 72, 64
2, 34380, Note_on_c, 0, 71, 107
2, 34428, Note_off_c, 0, 71, 64
2, 34440, Note_on_c, 0, 69, 107
2, 34488, Note_off_c, 0, 69, 64
2, 34500, Note_on_c, 0, 67, 107
2, 34548, Note_off_c, 0, 67, 64
2, 34560, Note_on_c, 0, 65, 107
2, 34656, Note_off_c, 0, 65, 64
2, 34680, Note_on_c, 0, 69, 107
2, 34872, Note_off_c, 0, 69, 64
2, 34920, Note_on_c, 0, 74, 107
2, 35112, Note_off_c, 0, 74, 64
2, 35160, Note_on_c, 0, 77, 107
2, 35328, Note_off_c, 0, 77, 64
2, 35340, Note_on_c, 0, 72, 107
2, 35388, Note_off_c, 0, 72, 64
2, 35400, Note_on_c, 0, 74, 107
2, 35448, Note_off_c, 0, 74, 64
2, 35460, Note_on_c, 0, 71, 107
2, 35508, Note_off_c, 0, 71, 64
2, 35520, Note_on_c, 0, 72, 107
2, 35616, Note_off_c, 0, 72, 64
2, 35640, Note_on_c, 0, 74, 107
2, 35736, Note_off_c, 0, 74, 64
2, 35760, Note_on_c, 0, 67, 107
2, 35856, Note_off_c, 0, 67, 64
2, 35880, Note_on_c, 0, 71, 107
2, 35976, Note_off_c, 0, 71, 64
2, 36000, Note_on_c, 0, 72, 107
2, 36048, Note_off_c, 0, 72, 64
2, 36060, Note_on_c, 0, 67, 107
2, 36108, Note_off_c, 0, 67, 64
2, 36120, Note_on_c, 0, 69, 107
2, 36168, Note_off_c, 0, 69, 64
2, 36180, Note_on_c, 0, 71, 107
2, 36228, Note_off_c, 0, 71, 64
2, 36240, Note_on_c, 0, 72, 107
2, 36288, Note_off_c, 0, 72, 64
2, 36300, Note_on_c, 0, 71, 107
2, 36348, Note_off_c, 0, 71, 64
2, 36360, Note_on_c, 0, 72, 107
2, 36408, Note_off_c, 0, 72, 64
2, 36420, Note_on_c, 0, 76, 107
2, 36468, Note_off_c, 0, 76, 64
2, 36480, Note_on_c, 0, 74, 107
2, 36528, Note_off_c, 0, 74, 64
2, 36540, Note_on_c, 0, 72, 107
2, 36588, Note_off_c, 0, 72, 64
2, 36600, Note_on_c, 0, 71, 107
2, 36648, Note_off_c, 0, 71, 64
2, 36660, Note_on_c, 0, 69, 107
2, 36708, Note_off_c, 0, 69, 64
2, 36720, Note_on_c, 0, 67, 107
2, 36768, Note_off_c, 0, 67, 64
2, 36780, Note_on_c, 0, 69, 107
2, 36828, Note_off_c, 0, 69, 64
2, 36840, Note_on_c, 0, 71, 107
2, 36888, Note_off_c, 0, 71, 64
2, 36900, Note_on_c, 0, 72, 107
2, 36948, Note_off_c, 0, 72, 64
2, 36960, Note_on_c, 0, 74, 107
2, 37008, Note_off_c, 0, 74, 64
2, 37020, Note_on_c, 0, 77, 107
2, 37068, Note_off_c, 0, 77, 64
2, 37080, Note_on_c, 0, 76, 107
2, 37128, Note_off_c, 0, 76, 64
2, 37140, Note_on_c, 0, 74, 107
2, 37188, Note_off_c, 0, 74, 64
2, 37200, Note_on_c, 0, 79, 107
2, 37248, Note_off_c, 0, 79, 64
2, 37260, Note_on_c, 0, 77, 107
2, 37308, Note_off_c, 0, 77, 64
2, 37320, Note_on_c, 0, 76, 107
2, 37368, Note_off_c, 0, 76, 64
2, 37380, Note_on_c, 0, 74, 107
2, 37428, Note_off_c, 0, 74, 64
2, 37440, Note_on_c, 0, 76, 107
2, 37536, Note_off_c, 0, 76, 64
2, 37560, Note_on_c, 0, 79, 107
2, 37656, Note_off_c, 0, 79, 64
2, 37680, Note_on_c, 0, 74, 107
2, 37776, Note_off_c, 0, 74, 64
2, 37800, Note_on_c, 0, 79, 107
2, 37896, Note_off_c, 0, 79, 64
2, 37920, Note_on_c, 0, 72, 107
2, 38016, Note_off_c, 0, 72, 64
2, 38040, Note_on_c, 0, 84, 107
2, 38208, Note_off_c, 0, 84, 64
2, 38220, Note_on_c, 0, 83, 107
2, 38268, Note_off_c, 0, 83, 64
2, 38280, Note_on_c, 0, 81, 107
2, 38328, Note_off_c, 0, 81, 64
2, 38340, Note_on_c, 0, 79, 107
2, 38388, Note_off_c, 0, 79, 64
2, 38400, Note_on_c, 0, 78, 107
2, 38448, Note_off_c, 0, 78, 64
2, 38460, Note_on_c, 0, 76, 107
2, 38508, Note_off_c, 0, 76, 64
2, 38520, Note_on_c, 0, 74, 107
2, 38568, Note_off_c, 0, 74, 64
2, 38580, Note_on_c, 0, 72, 107
2, 38628, Note_off_c, 0, 72, 64
2, 38640, Note_on_c, 0, 71, 107
2, 38688, Note_off_c, 0, 71, 64
2, 38700, Note_on_c, 0, 69, 107
2, 38748, Note_off_c, 0, 69, 64
2, 38760, Note_on_c, 0, 67, 107
2, 38808, Note_off_c, 0, 67, 64
2, 38820, Note_on_c, 0, 66, 107
2, 38868, Note_off_c, 0, 66, 64
2, 38880, Note_on_c, 0, 67, 107
2, 39072, Note_off_c, 0, 67, 64
2, 39240, Note_on_c, 0, 67, 107
2, 39336, Note_off_c, 0, 67, 64
2, 39360, Note_on_c, 0, 72, 107
2, 39408, Note_off_c, 0, 72, 64
2, 39420, Note_on_c, 0, 71, 107
2, 39468, Note_off_c, 0, 71, 64
2, 39480, Note_on_c, 0, 72, 107
2, 39528, Note_off_c, 0, 72, 64
2, 39540, Note_on_c, 0, 74, 107
2, 39588, Note_off_c, 0, 74, 64
2, 39600, Note_on_c, 0, 76, 107
2, 39648, Note_off_c, 0, 76, 64
2, 39660, Note_on_c, 0, 72, 107
2, 39708, Note_off_c, 0, 72, 64
2, 39720, Note_on_c, 0, 71, 107
2, 39768, Note_off_c, 0, 71, 64
2, 39780, Note_on_c, 0, 69, 107
2, 39828, Note_off_c, 0, 69, 64
2, 39840, Note_on_c, 0, 67, 107
2, 39888, Note_off_c, 0, 67, 64
2, 39900, Note_on_c, 0, 65, 107
2, 39948, Note_off_c, 0, 65, 64
2, 39960, Note_on_c, 0, 64, 107
2, 40008, Note_off_c, 0, 64, 64
2, 40020, Note_on_c, 0, 62, 107
2, 40068, Note_off_c, 0, 62, 64
2, 40080, Note_on_c, 0, 60, 107
2, 40512, Note_off_c, 0, 60, 64
2, 40680, Note_on_c, 0, 69, 107
2, 40776, Note_off_c, 0, 69, 64
2, 40800, Note_on_c, 0, 74, 107
2, 40848, Note_off_c, 0, 74, 64
2, 40860, Note_on_c, 0, 73, 107
2, 40908, Note_off_c, 0, 73, 64
2, 40920, Note_on_c, 0, 74, 107
2, 40968, Note_off_c, 0, 74, 64
2, 40980, Note_on_c, 0, 76, 107
2, 41028, Note_off_c, 0, 76, 64
2, 41040, Note_on_c, 0, 77, 107
2, 41088, Note_off_c, 0, 77, 64
2, 41100, Note_on_c, 0, 74, 107
2, 41148, Note_off_c, 0, 74, 64
2, 41160, Note_on_c, 0, 72, 107
2, 41208, Note_off_c, 0, 72, 64
2, 41220, Note_on_c, 0, 70, 107
2, 41268, Note_off_c, 0, 70, 64
2, 41280, Note_on_c, 0, 69, 107
2, 41328, Note_off_c, 0, 69, 64
2, 41340, Note_on_c, 0, 67, 107
2, 41388, Note_off_c, 0, 67, 64
2, 41400, Note_on_c, 0, 65, 107
2, 41448, Note_off_c, 0, 65, 64
2, 41460, Note_on_c, 0, 64, 107
2, 41508, Note_off_c, 0, 64, 64
2, 41520, Note_on_c, 0, 62, 107
2, 41808, Note_off_c, 0, 62, 64
2, 41820, Note_on_c, 0, 71, 107
2, 41868, Note_off_c, 0, 71, 64
2, 41880, Note_on_c, 0, 62, 107
2, 41928, Note_off_c, 0, 62, 64
2, 41940, Note_on_c, 0, 71, 107
2, 41988, Note_off_c, 0, 71, 64
2, 42000, Note_on_c, 0, 60, 107
2, 42048, Note_off_c, 0, 60, 64
2, 42060, Note_on_c, 0, 69, 107
2, 42108, Note_off_c, 0, 69, 64
2, 42120, Note_on_c, 0, 60, 107
2, 42168, Note_off_c, 0, 60, 64
2, 42180, Note_on_c, 0, 69, 107
2, 42228, Note_off_c, 0, 69, 64
2, 42240, Note_on_c, 0, 59, 107
2, 42288, Note_off_c, 0, 59, 64
2, 42300, Note_on_c, 0, 69, 107
2, 42348, Note_off_c, 0, 69, 64
2, 42360, Note_on_c, 0, 57, 107
2, 42408, Note_off_c, 0, 57, 64
2, 42420, Note_on_c, 0, 69, 107
2, 42468, Note_off_c, 0, 69, 64
2, 42480, Note_on_c, 0, 68, 107
2, 42528, Note_off_c, 0, 68, 64
2, 42540, Note_on_c, 0, 64, 107
2, 42588, Note_off_c, 0, 64, 64
2, 42600, Note_on_c, 0, 66, 107
2, 42648, Note_off_c, 0, 66, 64
2, 42660, Note_on_c, 0, 68, 107
2, 42708, Note_off_c, 0, 68, 64
2, 42720, Note_on_c, 0, 69, 107
2, 42768, Note_off_c, 0, 69, 64
2, 42780, Note_on_c, 0, 68, 107
2, 42828, Note_off_c, 0, 68, 64
2, 42840, Note_on_c, 0, 69, 107
2, 42888, Note_off_c, 0, 69, 64
2, 42900, Note_on_c, 0, 72, 107
2, 42948, Note_off_c, 0, 72, 64
2, 42960, Note_on_c, 0, 71, 107
2, 43008, Note_off_c, 0, 71, 64
2, 43020, Note_on_c, 0, 69, 107
2, 43068, Note_off_c, 0, 69, 64
2, 43080, Note_on_c, 0, 68, 107
2, 43128, Note_off_c, 0, 68, 64
2, 43140, Note_on_c, 0, 66, 107
2, 43188, Note_off_c, 0, 66, 64
2, 43200, Note_on_c, 0, 64, 107
2, 43248, Note_off_c, 0, 64, 64
2, 43260, Note_on_c, 0, 66, 107
2, 43308, Note_off_c, 0, 66, 64
2, 43320, Note_on_c, 0, 67, 107
2, 43368, Note_off_c, 0, 67, 64
2, 43380, Note_on_c, 0, 69, 107
2, 43428, Note_off_c, 0, 69, 64
2, 43440, Note_on_c, 0, 71, 107
2, 43488, Note_off_c, 0, 71, 64
2, 43500, Note_on_c, 0, 74, 107
2, 43548, Note_off_c, 0, 74, 64
2, 43560, Note_on_c, 0, 72, 107
2, 43608, Note_off_c, 0, 72, 64
2, 43620, Note_on_c, 0, 71, 107
2, 43668, Note_off_c, 0, 71, 64
2, 43680, Note_on_c, 0, 76, 107
2, 43728, Note_off_c, 0, 76, 64
2, 43740, Note_on_c, 0, 74, 107
2, 43788, Note_off_c, 0, 74, 64
2, 43800, Note_on_c, 0, 72, 107
2, 43848, Note_off_c, 0, 72, 64
2, 43860, Note_on_c, 0, 71, 107
2, 43908, Note_off_c, 0, 71, 64
2, 43920, Note_on_c, 0, 72, 107
2, 45408, Note_off_c, 0, 72, 64
2, 45420, Note_on_c, 0, 69, 107
2, 45468, Note_off_c, 0, 69, 64
2, 45480, Note_on_c, 0, 71, 107
2, 45528, Note_off_c, 0, 71, 64
2, 45540, Note_on_c, 0, 73, 107
2, 45588, Note_off_c, 0, 73, 64
2, 45600, Note_on_c, 0, 74, 107
2, 45648, Note_off_c, 0, 74, 64
2, 45660, Note_on_c, 0, 73, 107
2, 45708, Note_off_c, 0, 73, 64
2, 45720, Note_on_c, 0, 74, 107
2, 45768, Note_off_c, 0, 74, 64
2, 45780, Note_on_c, 0, 77, 107
2, 45828, Note_off_c, 0, 77, 64
2, 45840, Note_on_c, 0, 76, 107
2, 45888, Note_off_c, 0, 76, 64
2, 45900, Note_on_c, 0, 74, 107
2, 45948, Note_off_c, 0, 74, 64
2, 45960, Note_on_c, 0, 73, 107
2, 46008, Note_off_c, 0, 73, 64
2, 46020, Note_on_c, 0, 71, 107
2, 46068, Note_off_c, 0, 71, 64
2, 46080, Note_on_c, 0, 69, 107
2, 46128, Note_off_c, 0, 69, 64
2, 46140, Note_on_c, 0, 71, 107
2, 46188, Note_off_c, 0, 71, 64
2, 46200, Note_on_c, 0, 72, 107
2, 46248, Note_off_c, 0, 72, 64
2, 46260, Note_on_c, 0, 74, 107
2, 46308, Note_off_c, 0, 74, 64
2, 46320, Note_on_c, 0, 76, 107
2, 46368, Note_off_c, 0, 76, 64
2, 46380, Note_on_c, 0, 79, 107
2, 46428, Note_off_c, 0, 79, 64
2, 46440, Note_on_c, 0, 77, 107
2, 46488, Note_off_c, 0, 77, 64
2, 46500, Note_on_c, 0, 76, 107
2, 46548, Note_off_c, 0, 76, 64
2, 46560, Note_on_c, 0, 81, 107
2, 46608, Note_off_c, 0, 81, 64
2, 46620, Note_on_c, 0, 79, 107
2, 46668, Note_off_c, 0, 79, 64
2, 46680, Note_on_c, 0, 77, 107
2, 46728, Note_off_c, 0, 77, 64
2, 46740, Note_on_c, 0, 76, 107
2, 46788, Note_off_c, 0, 76, 64
2, 46800, Note_on_c, 0, 77, 107
2, 46848, Note_off_c, 0, 77, 64
2, 46860, Note_on_c, 0, 76, 107
2, 46908, Note_off_c, 0, 76, 64
2, 46920, Note_on_c, 0, 74, 107
2, 46968, Note_off_c, 0, 74, 64
2, 46980, Note_on_c, 0, 76, 107
2, 47028, Note_off_c, 0, 76, 64
2, 47040, Note_on_c, 0, 77, 107
2, 47088, Note_off_c, 0, 77, 64
2, 47100, Note_on_c, 0, 76, 107
2, 47148, Note_off_c, 0, 76, 64
2, 47160, Note_on_c, 0, 77, 107
2, 47208, Note_off_c, 0, 77, 64
2, 47220, Note_on_c, 0, 81, 107
2, 47268, Note_off_c, 0, 81, 64
2, 47280, Note_on_c, 0, 79, 107
2, 47328, Note_off_c, 0, 79, 64
2, 47340, Note_on_c, 0, 77, 107
2, 47388, Note_off_c, 0, 77, 64
2, 47400, Note_on_c, 0, 76, 107
2, 47448, Note_off_c, 0, 76, 64
2, 47460, Note_on_c, 0, 74, 107
2, 47508, Note_off_c, 0, 74, 64
2, 47520, Note_on_c, 0, 76, 107
2, 47616, Note_off_c, 0, 76, 64
2, 47640, Note_on_c, 0, 69, 107
2, 47736, Note_off_c, 0, 69, 64
2, 48300, Note_on_c, 0, 74, 107
2, 48348, Note_off_c, 0, 74, 64
2, 48360, Note_on_c, 0, 73, 107
2, 48408, Note_off_c, 0, 73, 64
2, 48420, Note_on_c, 0, 74, 107
2, 48468, Note_off_c, 0, 74, 64
2, 48480, Note_on_c, 0, 77, 107
2, 48528, Note_off_c, 0, 77, 64
2, 48540, Note_on_c, 0, 74, 107
2, 48588, Note_off_c, 0, 74, 64
2, 48600, Note_on_c, 0, 73, 107
2, 48648, Note_off_c, 0, 73, 64
2, 48660, Note_on_c, 0, 74, 107
2, 48708, Note_off_c, 0, 74, 64
2, 48720, Note_on_c, 0, 69, 107
2, 48768, Note_off_c, 0, 69, 64
2, 48780, Note_on_c, 0, 74, 107
2, 48828, Note_off_c, 0, 74, 64
2, 48840, Note_on_c, 0, 65, 107
2, 48888, Note_off_c, 0, 65, 64
2, 48900, Note_on_c, 0, 69, 107
2, 48948, Note_off_c, 0, 69, 64
2, 48960, Note_on_c, 0, 62, 107
2, 49056, Note_off_c, 0, 62, 64
2, 49740, Note_on_c, 0, 72, 107
2, 49788, Note_off_c, 0, 72, 64
2, 49800, Note_on_c, 0, 71, 107
2, 49848, Note_off_c, 0, 71, 64
2, 49860, Note_on_c, 0, 72, 107
2, 49908, Note_off_c, 0, 72, 64
2, 49920, Note_on_c, 0, 76, 107
2, 49968, Note_off_c, 0, 76, 64
2, 49980, Note_on_c, 0, 72, 107
2, 50028, Note_off_c, 0, 72, 64
2, 50040, Note_on_c, 0, 71, 107
2, 50088, Note_off_c, 0, 71, 64
2, 50100, Note_on_c, 0, 72, 107
2, 50148, Note_off_c, 0, 72, 64
2, 50160, Note_on_c, 0, 67, 107
2, 50208, Note_off_c, 0, 67, 64
2, 50220, Note_on_c, 0, 72, 107
2, 50268, Note_off_c, 0, 72, 64
2, 50280, Note_on_c, 0, 64, 107
2, 50328, Note_off_c, 0, 64, 64
2, 50340, Note_on_c, 0, 67, 107
2, 50388, Note_off_c, 0, 67, 64
2, 50400, Note_on_c, 0, 60, 107
2, 50496, Note_off_c, 0, 60, 64
2, 51180, Note_on_c, 0, 77, 107
2, 51228, Note_off_c, 0, 77, 64
2, 51240, Note_on_c, 0, 76, 107
2, 51288, Note_off_c, 0, 76, 64
2, 51300, Note_on_c, 0, 77, 107
2, 51348, Note_off_c, 0, 77, 64
2, 51360, Note_on_c, 0, 81, 107
2, 51408, Note_off_c, 0, 81, 64
2, 51420, Note_on_c, 0, 77, 107
2, 51468, Note_off_c, 0, 77, 64
2, 51480, Note_on_c, 0, 76, 107
2, 51528, Note_off_c, 0, 76, 64
2, 51540, Note_on_c, 0, 77, 107
2, 51588, Note_off_c, 0, 77, 64
2, 51600, Note_on_c, 0, 72, 107
2, 51648, Note_off_c, 0, 72, 64
2, 51660, Note_on_c, 0, 77, 107
2, 51708, Note_off_c, 0, 77, 64
2, 51720, Note_on_c, 0, 69, 107
2, 51768, Note_off_c, 0, 69, 64
2, 51780, Note_on_c, 0, 72, 107
2, 51828, Note_off_c, 0, 72, 64
2, 51840, Note_on_c, 0, 65, 107
2, 51936, Note_off_c, 0, 65, 64
2, 51960, Note_on_c, 0, 81, 107
2, 52056, Note_off_c, 0, 81, 64
2, 52080, Note_on_c, 0, 77, 107
2, 52176, Note_off_c, 0, 77, 64
2, 52200, Note_on_c, 0, 81, 107
2, 52296, Note_off_c, 0, 81, 64
2, 52320, Note_on_c, 0, 82, 107
2, 52416, Note_off_c, 0, 82, 64
2, 52440, Note_on_c, 0, 81, 107
2, 52488, Note_off_c, 0, 81, 64
2, 52500, Note_on_c, 0, 79, 107
2, 52548, Note_off_c, 0, 79, 64
2, 52560, Note_on_c, 0, 81, 107
2, 52752, Note_off_c, 0, 81, 64
2, 53400, Note_on_c, 0, 72, 107
2, 53496, Note_off_c, 0, 72, 64
2, 53520, Note_on_c, 0, 69, 107
2, 53616, Note_off_c, 0, 69, 64
2, 53640, Note_on_c, 0, 72, 107
2, 53736, Note_off_c, 0, 72, 64
2, 53760, Note_on_c, 0, 74, 107
2, 53856, Note_off_c, 0, 74, 64
2, 53880, Note_on_c, 0, 72, 107
2, 53928, Note_off_c, 0, 72, 64
2, 53940, Note_on_c, 0, 70, 107
2, 53988, Note_off_c, 0, 70, 64
2, 54000, Note_on_c, 0, 72, 107
2, 54096, Note_off_c, 0, 72, 64
2, 54120, Note_on_c, 0, 65, 107
2, 54168, Note_off_c, 0, 65, 64
2, 54180, Note_on_c, 0, 67, 107
2, 54228, Note_off_c, 0, 67, 64
2, 54240, Note_on_c, 0, 69, 107
2, 54336, Note_off_c, 0, 69, 64
2, 54360, Note_on_c, 0, 60, 107
2, 54456, Note_off_c, 0, 60, 64
2, 54480, Note_on_c, 0, 62, 107
2, 54576, Note_off_c, 0, 62, 64
2, 54600, Note_on_c, 0, 71, 107
2, 54696, Note_off_c, 0, 71, 64
2, 54720, Note_on_c, 0, 72, 107
2, 54768, Note_off_c, 0, 72, 64
2, 54780, Note_on_c, 0, 67, 107
2, 54828, Note_off_c, 0, 67, 64
2, 54840, Note_on_c, 0, 69, 107
2, 54888, Note_off_c, 0, 69, 64
2, 54900, Note_on_c, 0, 71, 107
2, 54948, Note_off_c, 0, 71, 64
2, 54960, Note_on_c, 0, 72, 107
2, 55008, Note_off_c, 0, 72, 64
2, 55020, Note_on_c, 0, 71, 107
2, 55068, Note_off_c, 0, 71, 64
2, 55080, Note_on_c, 0, 72, 107
2, 55128, Note_off_c, 0, 72, 64
2, 55140, Note_on_c, 0, 76, 107
2, 55188, Note_off_c, 0, 76, 64
2, 55200, Note_on_c, 0, 74, 107
2, 55248, Note_off_c, 0, 74, 64
2, 55260, Note_on_c, 0, 72, 107
2, 55308, Note_off_c, 0, 72, 64
2, 55320, Note_on_c, 0, 71, 107
2, 55368, Note_off_c, 0, 71, 64
2, 55380, Note_on_c, 0, 69, 107
2, 55428, Note_off_c, 0, 69, 64
2, 55440, Note_on_c, 0, 71, 107
2, 55536, Note_off_c, 0, 71, 64
2, 55560, Note_on_c, 0, 67, 107
2, 55608, Note_off_c, 0, 67, 64
2, 55620, Note_on_c, 0, 69, 107
2, 55668, Note_off_c, 0, 69, 64
2, 55680, Note_on_c, 0, 71, 107
2, 55776, Note_off_c, 0, 71, 64
2, 55800, Note_on_c, 0, 62, 107
2, 55896, Note_off_c, 0, 62, 64
2, 55920, Note_on_c, 0, 64, 107
2, 56016, Note_off_c, 0, 64, 64
2, 56040, Note_on_c, 0, 73, 107
2, 56136, Note_off_c, 0, 73, 64
2, 56160, Note_on_c, 0, 74, 107
2, 56208, Note_off_c, 0, 74, 64
2, 56220, Note_on_c, 0, 69, 107
2, 56268, Note_off_c, 0, 69, 64
2, 56280, Note_on_c, 0, 71, 107
2, 56328, Note_off_c, 0, 71, 64
2, 56340, Note_on_c, 0, 72, 107
2, 56388, Note_off_c, 0, 72, 64
2, 56400, Note_on_c, 0, 74, 107
2, 56448, Note_off_c, 0, 74, 64
2, 56460, Note_on_c, 0, 72, 107
2, 56508, Note_off_c, 0, 72, 64
2, 56520, Note_on_c, 0, 74, 107
2, 56568, Note_off_c, 0, 74, 64
2, 56580, Note_on_c, 0, 77, 107
2, 56628, Note_off_c, 0, 77, 64
2, 56640, Note_on_c, 0, 76, 107
2, 56688, Note_off_c, 0, 76, 64
2, 56700, Note_on_c, 0, 74, 107
2, 56748, Note_off_c, 0, 74, 64
2, 56760, Note_on_c, 0, 72, 107
2, 56808, Note_off_c, 0, 72, 64
2, 56820, Note_on_c, 0, 71, 107
2, 56868, Note_off_c, 0, 71, 64
2, 56880, Note_on_c, 0, 72, 107
2, 57072, Note_off_c, 0, 72, 64
2, 57720, Note_on_c, 0, 76, 107
2, 57816, Note_off_c, 0, 76, 64
2, 57840, Note_on_c, 0, 72, 107
2, 57936, Note_off_c, 0, 72, 64
2, 57960, Note_on_c, 0, 76, 107
2, 58056, Note_off_c, 0, 76, 64
2, 58080, Note_on_c, 0, 77, 107
2, 58176, Note_off_c, 0, 77, 64
2, 58200, Note_on_c, 0, 76, 107
2, 58248, Note_off_c, 0, 76, 64
2, 58260, Note_on_c, 0, 74, 107
2, 58308, Note_off_c, 0, 74, 64
2, 58320, Note_on_c, 0, 76, 107
2, 58368, Note_off_c, 0, 76, 64
2, 58380, Note_on_c, 0, 81, 107
2, 58428, Note_off_c, 0, 81, 64
2, 58440, Note_on_c, 0, 80, 107
2, 58488, Note_off_c, 0, 80, 64
2, 58500, Note_on_c, 0, 81, 107
2, 58548, Note_off_c, 0, 81, 64
2, 58560, Note_on_c, 0, 84, 107
2, 58608, Note_off_c, 0, 84, 64
2, 58620, Note_on_c, 0, 81, 107
2, 58668, Note_off_c, 0, 81, 64
2, 58680, Note_on_c, 0, 80, 107
2, 58728, Note_off_c, 0, 80, 64
2, 58740, Note_on_c, 0, 81, 107
2, 58788, Note_off_c, 0, 81, 64
2, 58800, Note_on_c, 0, 76, 107
2, 58848, Note_off_c, 0, 76, 64
2, 58860, Note_on_c, 0, 81, 107
2, 58908, Note_off_c, 0, 81, 64
2, 58920, Note_on_c, 0, 72, 107
2, 58968, Note_off_c, 0, 72, 64
2, 58980, Note_on_c, 0, 76, 107
2, 59028, Note_off_c, 0, 76, 64
2, 59040, Note_on_c, 0, 69, 107
2, 59136, Note_off_c, 0, 69, 64
2, 59160, Note_on_c, 0, 72, 107
2, 59256, Note_off_c, 0, 72, 64
2, 59280, Note_on_c, 0, 69, 107
2, 59376, Note_off_c, 0, 69, 64
2, 59400, Note_on_c, 0, 72, 107
2, 59496, Note_off_c, 0, 72, 64
2, 59520, Note_on_c, 0, 74, 107
2, 59616, Note_off_c, 0, 74, 64
2, 59640, Note_on_c, 0, 72, 107
2, 59688, Note_off_c, 0, 72, 64
2, 59700, Note_on_c, 0, 71, 107
2, 59748, Note_off_c, 0, 71, 64
2, 59760, Note_on_c, 0, 72, 107
2, 59952, Note_off_c, 0, 72, 64
2, 61260, Note_on_c, 0, 69, 107
2, 61308, Note_off_c, 0, 69, 64
2, 61320, Note_on_c, 0, 71, 107
2, 61368, Note_off_c, 0, 71, 64
2, 61380, Note_on_c, 0, 73, 107
2, 61428, Note_off_c, 0, 73, 64
2, 61440, Note_on_c, 0, 74, 107
2, 61488, Note_off_c, 0, 74, 64
2, 61500, Note_on_c, 0, 73, 107
2, 61548, Note_off_c, 0, 73, 64
2, 61560, Note_on_c, 0, 74, 107
2, 61608, Note_off_c, 0, 74, 64
2, 61620, Note_on_c, 0, 77, 107
2, 61668, Note_off_c, 0, 77, 64
2, 61680, Note_on_c, 0, 76, 107
2, 61728, Note_off_c, 0, 76, 64
2, 61740, Note_on_c, 0, 74, 107
2, 61788, Note_off_c, 0, 74, 64
2, 61800, Note_on_c, 0, 73, 107
2, 61848, Note_off_c, 0, 73, 64
2, 61860, Note_on_c, 0, 71, 107
2, 61908, Note_off_c, 0, 71, 64
2, 61920, Note_on_c, 0, 69, 107
2, 61968, Note_off_c, 0, 69, 64
2, 61980, Note_on_c, 0, 71, 107
2, 62028, Note_off_c, 0, 71, 64
2, 62040, Note_on_c, 0, 73, 107
2, 62088, Note_off_c, 0, 73, 64
2, 62100, Note_on_c, 0, 74, 107
2, 62148, Note_off_c, 0, 74, 64
2, 62160, Note_on_c, 0, 76, 107
2, 62208, Note_off_c, 0, 76, 64
2, 62220, Note_on_c, 0, 79, 107
2, 62268, Note_off_c, 0, 79, 64
2, 62280, Note_on_c, 0, 77, 107
2, 62328, Note_off_c, 0, 77, 64
2, 62340, Note_on_c, 0, 76, 107
2, 62388, Note_off_c, 0, 76, 64
2, 62400, Note_on_c, 0, 81, 107
2, 62448, Note_off_c, 0, 81, 64
2, 62460, Note_on_c, 0, 79, 107
2, 62508, Note_off_c, 0, 79, 64
2, 62520, Note_on_c, 0, 77, 107
2, 62568, Note_off_c, 0, 77, 64
2, 62580, Note_on_c, 0, 76, 107
2, 62628, Note_off_c, 0, 76, 64
2, 62640, Note_on_c, 0, 77, 107
2, 62688, Note_off_c, 0, 77, 64
2, 62700, Note_on_c, 0, 74, 107
2, 62748, Note_off_c, 0, 74, 64
2, 62760, Note_on_c, 0, 73, 107
2, 62808, Note_off_c, 0, 73, 64
2, 62820, Note_on_c, 0, 71, 107
2, 62868, Note_off_c, 0, 71, 64
2, 62880, Note_on_c, 0, 69, 107
2, 62928, Note_off_c, 0, 69, 64
2, 62940, Note_on_c, 0, 67, 107
2, 62988, Note_off_c, 0, 67, 64
2, 63000, Note_on_c, 0, 65, 107
2, 63048, Note_off_c, 0, 65, 64
2, 63060, Note_on_c, 0, 64, 107
2, 63108, Note_off_c, 0, 64, 64
2, 63120, Note_on_c, 0, 62, 107
2, 63552, Note_off_c, 0, 62, 64
2, 63720, Note_on_c, 0, 67, 107
2, 63816, Note_off_c, 0, 67, 64
2, 63840, Note_on_c, 0, 72, 107
2, 63888, Note_off_c, 0, 72, 64
2, 63900, Note_on_c, 0, 71, 107
2, 63948, Note_off_c, 0, 71, 64
2, 63960, Note_on_c, 0, 72, 107
2, 64008, Note_off_c, 0, 72, 64
2, 64020, Note_on_c, 0, 74, 107
2, 64068, Note_off_c, 0, 74, 64
2, 64080, Note_on_c, 0, 76, 107
2, 64128, Note_off_c, 0, 76, 64
2, 64140, Note_on_c, 0, 76, 107
2, 64188, Note_off_c, 0, 76, 64
2, 64200, Note_on_c, 0, 74, 107
2, 64248, Note_off_c, 0, 74, 64
2, 64260, Note_on_c, 0, 72, 107
2, 64308, Note_off_c, 0, 72, 64
2, 64320, Note_on_c, 0, 71, 107
2, 64368, Note_off_c, 0, 71, 64
2, 64380, Note_on_c, 0, 69, 107
2, 64428, Note_off_c, 0, 69, 64
2, 64440, Note_on_c, 0, 68, 107
2, 64488, Note_off_c, 0, 68, 64
2, 64500, Note_on_c, 0, 66, 107
2, 64548, Note_off_c, 0, 66, 64
2, 64560, Note_on_c, 0, 64, 107
2, 64992, Note_off_c, 0, 64, 64
2, 65160, Note_on_c, 0, 69, 107
2, 65256, Note_off_c, 0, 69, 64
2, 65280, Note_on_c, 0, 75, 107
2, 65328, Note_off_c, 0, 75, 64
2, 65340, Note_on_c, 0, 73, 107
2, 65388, Note_off_c, 0, 73, 64
2, 65400, Note_on_c, 0, 75, 107
2, 65448, Note_off_c, 0, 75, 64
2, 65460, Note_on_c, 0, 76, 107
2, 65508, Note_off_c, 0, 76, 64
2, 65520, Note_on_c, 0, 78, 107
2, 65616, Note_off_c, 0, 78, 64
2, 65640, Note_on_c, 0, 71, 107
2, 65856, Note_off_c, 0, 71, 64
2, 65880, Note_on_c, 0, 76, 107
2, 66072, Note_off_c, 0, 76, 64
2, 66120, Note_on_c, 0, 69, 107
2, 66216, Note_off_c, 0, 69, 64
2, 66240, Note_on_c, 0, 71, 107
2, 67728, Note_off_c, 0, 71, 64
2, 67740, Note_on_c, 0, 67, 107
2, 67788, Note_off_c, 0, 67, 64
2, 67800, Note_on_c, 0, 69, 107
2, 67848, Note_off_c, 0, 69, 64
2, 67860, Note_on_c, 0, 71, 107
2, 67908, Note_off_c, 0, 71, 64
2, 67920, Note_on_c, 0, 72, 107
2, 67968, Note_off_c, 0, 72, 64
2, 67980, Note_on_c, 0, 71, 107
2, 68028, Note_off_c, 0, 71, 64
2, 68040, Note_on_c, 0, 72, 107
2, 68088, Note_off_c, 0, 72, 64
2, 68100, Note_on_c, 0, 76, 107
2, 68148, Note_off_c, 0, 76, 64
2, 68160, Note_on_c, 0, 74, 107
2, 68208, Note_off_c, 0, 74, 64
2, 68220, Note_on_c, 0, 72, 107
2, 68268, Note_off_c, 0, 72, 64
2, 68280, Note_on_c, 0, 71, 107
2, 68328, Note_off_c, 0, 71, 64
2, 68340, Note_on_c, 0, 69, 107
2, 68388, Note_off_c, 0, 69, 64
2, 68400, Note_on_c, 0, 67, 107
2, 68448, Note_off_c, 0, 67, 64
2, 68460, Note_on_c, 0, 69, 107
2, 68508, Note_off_c, 0, 69, 64
2, 68520, Note_on_c, 0, 71, 107
2, 68568, Note_off_c, 0, 71, 64
2, 68580, Note_on_c, 0, 72, 107
2, 68628, Note_off_c, 0, 72, 64
2, 68640, Note_on_c, 0, 74, 107
2, 68688, Note_off_c, 0, 74, 64
2, 68700, Note_on_c, 0, 77, 107
2, 68748, Note_off_c, 0, 77, 64
2, 68760, Note_on_c, 0, 76, 107
2, 68808, Note_off_c, 0, 76, 64
2, 68820, Note_on_c, 0, 74, 107
2, 68868, Note_off_c, 0, 74, 64
2, 68880, Note_on_c, 0, 79, 107
2, 68928, Note_off_c, 0, 79, 64
2, 68940, Note_on_c, 0, 77, 107
2, 68988, Note_off_c, 0, 77, 64
2, 69000, Note_on_c, 0, 76, 107
2, 69048, Note_off_c, 0, 76, 64
2, 69060, Note_on_c, 0, 74, 107
2, 69108, Note_off_c, 0, 74, 64
2, 69120, Note_on_c, 0, 76, 107
2, 70608, Note_off_c, 0, 76, 64
2, 70620, Note_on_c, 0, 64, 107
2, 70668, Note_off_c, 0, 64, 64
2, 70680, Note_on_c, 0, 66, 107
2, 70728, Note_off_c, 0, 66, 64
2, 70740, Note_on_c, 0, 68, 107
2, 70788, Note_off_c, 0, 68, 64
2, 70800, Note_on_c, 0, 69, 107
2, 70848, Note_off_c, 0, 69, 64
2, 70860, Note_on_c, 0, 68, 107
2, 70908, Note_off_c, 0, 68, 64
2, 70920, Note_on_c, 0, 69, 107
2, 70968, Note_off_c, 0, 69, 64
2, 70980, Note_on_c, 0, 72, 107
2, 71028, Note_off_c, 0, 72, 64
2, 71040, Note_on_c, 0, 71, 107
2, 71088, Note_off_c, 0, 71, 64
2, 71100, Note_on_c, 0, 69, 107
2, 71148, Note_off_c, 0, 69, 64
2, 71160, Note_on_c, 0, 68, 107
2, 71208, Note_off_c, 0, 68, 64
2, 71220, Note_on_c, 0, 66, 107
2, 71268, Note_off_c, 0, 66, 64
2, 71280, Note_on_c, 0, 64, 107
2, 71328, Note_off_c, 0, 64, 64
2, 71340, Note_on_c, 0, 66, 107
2, 71388, Note_off_c, 0, 66, 64
2, 71400, Note_on_c, 0, 68, 107
2, 71448, Note_off_c, 0, 68, 64
2, 71460, Note_on_c, 0, 69, 107
2, 71508, Note_off_c, 0, 69, 64
2, 71520, Note_on_c, 0, 71, 107
2, 71568, Note_off_c, 0, 71, 64
2, 71580, Note_on_c, 0, 74, 107
2, 71628, Note_off_c, 0, 74, 64
2, 71640, Note_on_c, 0, 72, 107
2, 71688, Note_off_c, 0, 72, 64
2, 71700, Note_on_c, 0, 71, 107
2, 71748, Note_off_c, 0, 71, 64
2, 71760, Note_on_c, 0, 76, 107
2, 71808, Note_off_c, 0, 76, 64
2, 71820, Note_on_c, 0, 74, 107
2, 71868, Note_off_c, 0, 74, 64
2, 71880, Note_on_c, 0, 72, 107
2, 71928, Note_off_c, 0, 72, 64
2, 71940, Note_on_c, 0, 71, 107
2, 71988, Note_off_c, 0, 71, 64
2, 72000, Note_on_c, 0, 72, 107
2, 72768, Note_off_c, 0, 72, 64
2, 72780, Note_on_c, 0, 71, 107
2, 72828, Note_off_c, 0, 71, 64
2, 72840, Note_on_c, 0, 69, 107
2, 72888, Note_off_c, 0, 69, 64
2, 72900, Note_on_c, 0, 71, 107
2, 72948, Note_off_c, 0, 71, 64
2, 72960, Note_on_c, 0, 72, 107
2, 73008, Note_off_c, 0, 72, 64
2, 73020, Note_on_c, 0, 76, 107
2, 73068, Note_off_c, 0, 76, 64
2, 73080, Note_on_c, 0, 74, 107
2, 73128, Note_off_c, 0, 74, 64
2, 73140, Note_on_c, 0, 72, 107
2, 73188, Note_off_c, 0, 72, 64
2, 73200, Note_on_c, 0, 77, 107
2, 73248, Note_off_c, 0, 77, 64
2, 73260, Note_on_c, 0, 76, 107
2, 73308, Note_off_c, 0, 76, 64
2, 73320, Note_on_c, 0, 74, 107
2, 73368, Note_off_c, 0, 74, 64
2, 73380, Note_on_c, 0, 72, 107
2, 73428, Note_off_c, 0, 72, 64
2, 73440, Note_on_c, 0, 74, 107
2, 74208, Note_off_c, 0, 74, 64
2, 74220, Note_on_c, 0, 72, 107
2, 74268, Note_off_c, 0, 72, 64
2, 74280, Note_on_c, 0, 71, 107
2, 74328, Note_off_c, 0, 71, 64
2, 74340, Note_on_c, 0, 72, 107
2, 74388, Note_off_c, 0, 72, 64
2, 74400, Note_on_c, 0, 74, 107
2, 74448, Note_off_c, 0, 74, 64
2, 74460, Note_on_c, 0, 77, 107
2, 74508, Note_off_c, 0, 77, 64
2, 74520, Note_on_c, 0, 76, 107
2, 74568, Note_off_c, 0, 76, 64
2, 74580, Note_on_c, 0, 74, 107
2, 74628, Note_off_c, 0, 74, 64
2, 74640, Note_on_c, 0, 79, 107
2, 74688, Note_off_c, 0, 79, 64
2, 74700, Note_on_c, 0, 77, 107
2, 74748, Note_off_c, 0, 77, 64
2, 74760, Note_on_c, 0, 76, 107
2, 74808, Note_off_c, 0, 76, 64
2, 74820, Note_on_c, 0, 74, 107
2, 74868, Note_off_c, 0, 74, 64
2, 74880, Note_on_c, 0, 76, 107
2, 74928, Note_off_c, 0, 76, 64
2, 74940, Note_on_c, 0, 72, 107
2, 74988, Note_off_c, 0, 72, 64
2, 75000, Note_on_c, 0, 71, 107
2, 75048, Note_off_c, 0, 71, 64
2, 75060, Note_on_c, 0, 72, 107
2, 75108, Note_off_c, 0, 72, 64
2, 75120, Note_on_c, 0, 76, 107
2, 75168, Note_off_c, 0, 76, 64
2, 75180, Note_on_c, 0, 72, 107
2, 75228, Note_off_c, 0, 72, 64
2, 75240, Note_on_c, 0, 71, 107
2, 75288, Note_off_c, 0, 71, 64
2, 75300, Note_on_c, 0, 72, 107
2, 75348, Note_off_c, 0, 72, 64
2, 75360, Note_on_c, 0, 67, 107
2, 75408, Note_off_c, 0, 67, 64
2, 75420, Note_on_c, 0, 72, 107
2, 75468, Note_off_c, 0, 72, 64
2, 75480, Note_on_c, 0, 64, 107
2, 75528, Note_off_c, 0, 64, 64
2, 75540, Note_on_c, 0, 67, 107
2, 75588, Note_off_c, 0, 67, 64
2, 75600, Note_on_c, 0, 60, 107
2, 75696, Note_off_c, 0, 60, 64
2, 75720, Note_on_c, 0, 79, 107
2, 75816, Note_off_c, 0, 79, 64
2, 75840, Note_on_c, 0, 76, 107
2, 75936, Note_off_c, 0, 76, 64
2, 75960, Note_on_c, 0, 79, 107
2, 76056, Note_off_c, 0, 79, 64
2, 76080, Note_on_c, 0, 81, 107
2, 76176, Note_off_c, 0, 81, 64
2, 76200, Note_on_c, 0, 79, 107
2, 76248, Note_off_c, 0, 79, 64
2, 76260, Note_on_c, 0, 77, 107
2, 76308, Note_off_c, 0, 77, 64
2, 76320, Note_on_c, 0, 79, 107
2, 76512, Note_off_c, 0, 79, 64
2, 77160, Note_on_c, 0, 76, 107
2, 77256, Note_off_c, 0, 76, 64
2, 77280, Note_on_c, 0, 72, 107
2, 77376, Note_off_c, 0, 72, 64
2, 77400, Note_on_c, 0, 76, 107
2, 77496, Note_off_c, 0, 76, 64
2, 77520, Note_on_c, 0, 77, 107
2, 77616, Note_off_c, 0, 77, 64
2, 77640, Note_on_c, 0, 76, 107
2, 77688, Note_off_c, 0, 76, 64
2, 77700, Note_on_c, 0, 74, 107
2, 77748, Note_off_c, 0, 74, 64
2, 77760, Note_on_c, 0, 76, 107
2, 77856, Note_off_c, 0, 76, 64
2, 77880, Note_on_c, 0, 79, 107
2, 77976, Note_off_c, 0, 79, 64
2, 78000, Note_on_c, 0, 72, 107
2, 78096, Note_off_c, 0, 72, 64
2, 78120, Note_on_c, 0, 76, 107
2, 78216, Note_off_c, 0, 76, 64
2, 78240, Note_on_c, 0, 69, 107
2, 78288, Note_off_c, 0, 69, 64
2, 78300, Note_on_c, 0, 72, 107
2, 78348, Note_off_c, 0, 72, 64
2, 78360, Note_on_c, 0, 74, 107
2, 78408, Note_off_c, 0, 74, 64
2, 78420, Note_on_c, 0, 76, 107
2, 78468, Note_off_c, 0, 76, 64
2, 78480, Note_on_c, 0, 77, 107
2, 78576, Note_off_c, 0, 77, 64
2, 78600, Note_on_c, 0, 81, 107
2, 78696, Note_off_c, 0, 81, 64
2, 78720, Note_on_c, 0, 74, 107
2, 78816, Note_off_c, 0, 74, 64
2, 78840, Note_on_c, 0, 77, 107
2, 78936, Note_off_c, 0, 77, 64
2, 78960, Note_on_c, 0, 71, 107
2, 79008, Note_off_c, 0, 71, 64
2, 79020, Note_on_c, 0, 74, 107
2, 79068, Note_off_c, 0, 74, 64
2, 79080, Note_on_c, 0, 76, 107
2, 79128, Note_off_c, 0, 76, 64
2, 79140, Note_on_c, 0, 77, 107
2, 79188, Note_off_c, 0, 77, 64
2, 79200, Note_on_c, 0, 79, 107
2, 79296, Note_off_c, 0, 79, 64
2, 79320, Note_on_c, 0, 84, 107
2, 79368, Note_off_c, 0, 84, 64
2, 79380, Note_on_c, 0, 79, 107
2, 79428, Note_off_c, 0, 79, 64
2, 79440, Note_on_c, 0, 76, 107
2, 79536, Note_off_c, 0, 76, 64
2, 79560, Note_on_c, 0, 79, 107
2, 79608, Note_off_c, 0, 79, 64
2, 79620, Note_on_c, 0, 76, 107
2, 79668, Note_off_c, 0, 76, 64
2, 79680, Note_on_c, 0, 72, 107
2, 79728, Note_off_c, 0, 72, 64
2, 79740, Note_on_c, 0, 76, 107
2, 79788, Note_off_c, 0, 76, 64
2, 79800, Note_on_c, 0, 77, 107
2, 79848, Note_off_c, 0, 77, 64
2, 79860, Note_on_c, 0, 79, 107
2, 79908, Note_off_c, 0, 79, 64
2, 79920, Note_on_c, 0, 81, 107
2, 79968, Note_off_c, 0, 81, 64
2, 79980, Note_on_c, 0, 79, 107
2, 80028, Note_off_c, 0, 79, 64
2, 80040, Note_on_c, 0, 81, 107
2, 80088, Note_off_c, 0, 81, 64
2, 80100, Note_on_c, 0, 82, 107
2, 80148, Note_off_c, 0, 82, 64
2, 80160, Note_on_c, 0, 81, 107
2, 80208, Note_off_c, 0, 81, 64
2, 80220, Note_on_c, 0, 79, 107
2, 80268, Note_off_c, 0, 79, 64
2, 80280, Note_on_c, 0, 77, 107
2, 80328, Note_off_c, 0, 77, 64
2, 80340, Note_on_c, 0, 76, 107
2, 80388, Note_off_c, 0, 76, 64
2, 80400, Note_on_c, 0, 74, 107
2, 80448, Note_off_c, 0, 74, 64
2, 80460, Note_on_c, 0, 72, 107
2, 80508, Note_off_c, 0, 72, 64
2, 80520, Note_on_c, 0, 71, 107
2, 80568, Note_off_c, 0, 71, 64
2, 80580, Note_on_c, 0, 69, 107
2, 80628, Note_off_c, 0, 69, 64
2, 80640, Note_on_c, 0, 71, 107
2, 80688, Note_off_c, 0, 71, 64
2, 80700, Note_on_c, 0, 72, 107
2, 80748, Note_off_c, 0, 72, 64
2, 80760, Note_on_c, 0, 71, 107
2, 80808, Note_off_c, 0, 71, 64
2, 80820, Note_on_c, 0, 67, 107
2, 80868, Note_off_c, 0, 67, 64
2, 80880, Note_on_c, 0, 74, 107
2, 80928, Note_off_c, 0, 74, 64
2, 80940, Note_on_c, 0, 77, 107
2, 80988, Note_off_c, 0, 77, 64
2, 81000, Note_on_c, 0, 74, 107
2, 81048, Note_off_c, 0, 74, 64
2, 81060, Note_on_c, 0, 71, 107
2, 81108, Note_off_c, 0, 71, 64
2, 81120, Note_on_c, 0, 77, 107
2, 81168, Note_off_c, 0, 77, 64
2, 81180, Note_on_c, 0, 79, 107
2, 81228, Note_off_c, 0, 79, 64
2, 81240, Note_on_c, 0, 77, 107
2, 81288, Note_off_c, 0, 77, 64
2, 81300, Note_on_c, 0, 74, 107
2, 81348, Note_off_c, 0, 74, 64
2, 81360, Note_on_c, 0, 75, 110
2, 81456, Note_off_c, 0, 75, 64
2, 81480, Note_on_c, 0, 72, 110
2, 81576, Note_off_c, 0, 72, 64
2, 81600, Note_on_c, 0, 79, 110
2, 81696, Note_off_c, 0, 79, 64
2, 81720, Note_on_c, 0, 75, 110
2, 81816, Note_off_c, 0, 75, 64
2, 81840, Note_on_c, 0, 84, 110
2, 82128, Note_off_c, 0, 84, 64
2, 82140, Note_on_c, 0, 82, 110
2, 82188, Note_off_c, 0, 82, 64
2, 82200, Note_on_c, 0, 81, 110
2, 82248, Note_off_c, 0, 81, 64
2, 82260, Note_on_c, 0, 79, 110
2, 82308, Note_off_c, 0, 79, 64
2, 82320, Note_on_c, 0, 78, 110
2, 82368, Note_off_c, 0, 78, 64
2, 82380, Note_on_c, 0, 81, 110
2, 82428, Note_off_c, 0, 81, 64
2, 82440, Note_on_c, 0, 75, 110
2, 82488, Note_off_c, 0, 75, 64
2, 82500, Note_on_c, 0, 74, 110
2, 82548, Note_off_c, 0, 74, 64
2, 82560, Note_on_c, 0, 75, 110
2, 82608, Note_off_c, 0, 75, 64
2, 82620, Note_on_c, 0, 72, 110
2, 82668, Note_off_c, 0, 72, 64
2, 82680, Note_on_c, 0, 79, 110
2, 82728, Note_off_c, 0, 79, 64
2, 82740, Note_on_c, 0, 78, 110
2, 82788, Note_off_c, 0, 78, 64
2, 82800, Note_on_c, 0, 79, 110
2, 82848, Note_off_c, 0, 79, 64
2, 82860, Note_on_c, 0, 74, 110
2, 82908, Note_off_c, 0, 74, 64
2, 82920, Note_on_c, 0, 72, 110
2, 82968, Note_off_c, 0, 72, 64
2, 82980, Note_on_c, 0, 74, 110
2, 83028, Note_off_c, 0, 74, 64
2, 83040, Note_on_c, 0, 83, 110
2, 83568, Note_off_c, 0, 83, 64
2, 83580, Note_on_c, 0, 72, 110
2, 83628, Note_off_c, 0, 72, 64
2, 83640, Note_on_c, 0, 71, 110
2, 83688, Note_off_c, 0, 71, 64
2, 83700, Note_on_c, 0, 72, 110
2, 83748, Note_off_c, 0, 72, 64
2, 83760, Note_on_c, 0, 81, 110
2, 84288, Note_off_c, 0, 81, 64
2, 84300, Note_on_c, 0, 71, 110
2, 84348, Note_off_c, 0, 71, 64
2, 84360, Note_on_c, 0, 69, 110
2, 84408, Note_off_c, 0, 69, 64
2, 84420, Note_on_c, 0, 71, 110
2, 84468, Note_off_c, 0, 71, 64
2, 84480, Note_on_c, 0, 79, 110
2, 85008, Note_off_c, 0, 79, 64
2, 85020, Note_on_c, 0, 78, 110
2, 85068, Note_off_c, 0, 78, 64
2, 85080, Note_on_c, 0, 76, 110
2, 85128, Note_off_c, 0, 76, 64
2, 85140, Note_on_c, 0, 74, 110
2, 85188, Note_off_c, 0, 74, 64
2, 85200, Note_on_c, 0, 72, 110
2, 85248, Note_off_c, 0, 72, 64
2, 85260, Note_on_c, 0, 71, 110
2, 85308, Note_off_c, 0, 71, 64
2, 85320, Note_on_c, 0, 69, 110
2, 85368, Note_off_c, 0, 69, 64
2, 85380, Note_on_c, 0, 67, 110
2, 85428, Note_off_c, 0, 67, 64
2, 85440, Note_on_c, 0, 66, 110
2, 85488, Note_off_c, 0, 66, 64
2, 85500, Note_on_c, 0, 64, 110
2, 85548, Note_off_c, 0, 64, 64
2, 85560, Note_on_c, 0, 62, 110
2, 85608, Note_off_c, 0, 62, 64
2, 85620, Note_on_c, 0, 60, 110
2, 85668, Note_off_c, 0, 60, 64
2, 85680, Note_on_c, 0, 62, 110
2, 85776, Note_off_c, 0, 62, 64
2, 85800, Note_on_c, 0, 74, 110
2, 85896, Note_off_c, 0, 74, 64
2, 85920, Note_on_c, 0, 71, 110
2, 86016, Note_off_c, 0, 71, 64
2, 86040, Note_on_c, 0, 76, 110
2, 86088, Note_off_c, 0, 76, 64
2, 86100, Note_on_c, 0, 74, 110
2, 86148, Note_off_c, 0, 74, 64
2, 86160, Note_on_c, 0, 72, 110
2, 86208, Note_off_c, 0, 72, 64
2, 86220, Note_on_c, 0, 71, 110
2, 86268, Note_off_c, 0, 71, 64
2, 86280, Note_on_c, 0, 69, 110
2, 86328, Note_off_c, 0, 69, 64
2, 86340, Note_on_c, 0, 67, 110
2, 86388, Note_off_c, 0, 67, 64
2, 86400, Note_on_c, 0, 67, 110
2, 86592, Note_off_c, 0, 67, 64
2, 87240, Note_on_c, 0, 83, 110
2, 87336, Note_off_c, 0, 83, 64
2, 87360, Note_on_c, 0, 79, 110
2, 87456, Note_off_c, 0, 79, 64
2, 87480, Note_on_c, 0, 83, 110
2, 87576, Note_off_c, 0, 83, 64
2, 87600, Note_on_c, 0, 84, 110
2, 87696, Note_off_c, 0, 84, 64
2, 87720, Note_on_c, 0, 83, 110
2, 87768, Note_off_c, 0, 83, 64
2, 87780, Note_on_c, 0, 81, 110
2, 87828, Note_off_c, 0, 81, 64
2, 87840, Note_on_c, 0, 83, 110
2, 87888, Note_off_c, 0, 83, 64
2, 87900, Note_on_c, 0, 79, 110
2, 87948, Note_off_c, 0, 79, 64
2, 87960, Note_on_c, 0, 78, 110
2, 88008, Note_off_c, 0, 78, 64
2, 88020, Note_on_c, 0, 79, 110
2, 88068, Note_off_c, 0, 79, 64
2, 88080, Note_on_c, 0, 83, 110
2, 88128, Note_off_c, 0, 83, 64
2, 88140, Note_on_c, 0, 79, 110
2, 88188, Note_off_c, 0, 79, 64
2, 88200, Note_on_c, 0, 78, 110
2, 88248, Note_off_c, 0, 78, 64
2, 88260, Note_on_c, 0, 79, 110
2, 88308, Note_off_c, 0, 79, 64
2, 88320, Note_on_c, 0, 74, 110
2, 88368, Note_off_c, 0, 74, 64
2, 88380, Note_on_c, 0, 79, 110
2, 88428, Note_off_c, 0, 79, 64
2, 88440, Note_on_c, 0, 71, 110
2, 88488, Note_off_c, 0, 71, 64
2, 88500, Note_on_c, 0, 74, 110
2, 88548, Note_off_c, 0, 74, 64
2, 88560, Note_on_c, 0, 67, 110
2, 88656, Note_off_c, 0, 67, 64
2, 88680, Note_on_c, 0, 74, 110
2, 88776, Note_off_c, 0, 74, 64
2, 88800, Note_on_c, 0, 71, 110
2, 88896, Note_off_c, 0, 71, 64
2, 88920, Note_on_c, 0, 74, 110
2, 89016, Note_off_c, 0, 74, 64
2, 89040, Note_on_c, 0, 76, 110
2, 89136, Note_off_c, 0, 76, 64
2, 89160, Note_on_c, 0, 74, 110
2, 89208, Note_off_c, 0, 74, 64
2, 89220, Note_on_c, 0, 72, 110
2, 89268, Note_off_c, 0, 72, 64
2, 89280, Note_on_c, 0, 74, 110
2, 89328, Note_off_c, 0, 74, 64
2, 89340, Note_on_c, 0, 71, 110
2, 89388, Note_off_c, 0, 71, 64
2, 89400, Note_on_c, 0, 67, 110
2, 89448, Note_off_c, 0, 67, 64
2, 89460, Note_on_c, 0, 71, 110
2, 89508, Note_off_c, 0, 71, 64
2, 89520, Note_on_c, 0, 76, 110
2, 89568, Note_off_c, 0, 76, 64
2, 89580, Note_on_c, 0, 71, 110
2, 89628, Note_off_c, 0, 71, 64
2, 89640, Note_on_c, 0, 67, 110
2, 89688, Note_off_c, 0, 67, 64
2, 89700, Note_on_c, 0, 71, 110
2, 89748, Note_off_c, 0, 71, 64
2, 89760, Note_on_c, 0, 79, 110
2, 90048, Note_off_c, 0, 79, 64
2, 90060, Note_on_c, 0, 72, 110
2, 90108, Note_off_c, 0, 72, 64
2, 90120, Note_on_c, 0, 69, 110
2, 90168, Note_off_c, 0, 69, 64
2, 90180, Note_on_c, 0, 72, 110
2, 90228, Note_off_c, 0, 72, 64
2, 90240, Note_on_c, 0, 78, 110
2, 90288, Note_off_c, 0, 78, 64
2, 90300, Note_on_c, 0, 72, 110
2, 90348, Note_off_c, 0, 72, 64
2, 90360, Note_on_c, 0, 69, 110
2, 90408, Note_off_c, 0, 69, 64
2, 90420, Note_on_c, 0, 72, 110
2, 90468, Note_off_c, 0, 72, 64
2, 90480, Note_on_c, 0, 81, 110
2, 90768, Note_off_c, 0, 81, 64
2, 90780, Note_on_c, 0, 74, 110
2, 90828, Note_off_c, 0, 74, 64
2, 90840, Note_on_c, 0, 71, 110
2, 90888, Note_off_c, 0, 71, 64
2, 90900, Note_on_c, 0, 74, 110
2, 90948, Note_off_c, 0, 74, 64
2, 90960, Note_on_c, 0, 79, 110
2, 91008, Note_off_c, 0, 79, 64
2, 91020, Note_on_c, 0, 74, 110
2, 91068, Note_off_c, 0, 74, 64
2, 91080, Note_on_c, 0, 71, 110
2, 91128, Note_off_c, 0, 71, 64
2, 91140, Note_on_c, 0, 74, 110
2, 91188, Note_off_c, 0, 74, 64
2, 91200, Note_on_c, 0, 83, 110
2, 91536, Note_off_c, 0, 83, 64
2, 91560, Note_on_c, 0, 81, 110
2, 91608, Note_off_c, 0, 81, 64
2, 91620, Note_on_c, 0, 80, 110
2, 91668, Note_off_c, 0, 80, 64
2, 91680, Note_on_c, 0, 81, 110
2, 91776, Note_off_c, 0, 81, 64
2, 91800, Note_on_c, 0, 76, 110
2, 91896, Note_off_c, 0, 76, 64
2, 91920, Note_on_c, 0, 84, 110
2, 92256, Note_off_c, 0, 84, 64
2, 92280, Note_on_c, 0, 81, 110
2, 92376, Note_off_c, 0, 81, 64
2, 92400, Note_on_c, 0, 78, 110
2, 92496, Note_off_c, 0, 78, 64
2, 92520, Note_on_c, 0, 81, 110
2, 92616, Note_off_c, 0, 81, 64
2, 92640, Note_on_c, 0, 74, 110
2, 92736, Note_off_c, 0, 74, 64
2, 92760, Note_on_c, 0, 78, 110
2, 92856, Note_off_c, 0, 78, 64
2, 92880, Note_on_c, 0, 79, 110
2, 92928, Note_off_c, 0, 79, 64
2, 92940, Note_on_c, 0, 81, 110
2, 92988, Note_off_c, 0, 81, 64
2, 93000, Note_on_c, 0, 82, 110
2, 93048, Note_off_c, 0, 82, 64
2, 93060, Note_on_c, 0, 84, 110
2, 93108, Note_off_c, 0, 84, 64
2, 93120, Note_on_c, 0, 82, 110
2, 93168, Note_off_c, 0, 82, 64
2, 93180, Note_on_c, 0, 81, 110
2, 93228, Note_off_c, 0, 81, 64
2, 93240, Note_on_c, 0, 79, 110
2, 93288, Note_off_c, 0, 79, 64
2, 93300, Note_on_c, 0, 77, 110
2, 93348, Note_off_c, 0, 77, 64
2, 93360, Note_on_c, 0, 76, 110
2, 93408, Note_off_c, 0, 76, 64
2, 93420, Note_on_c, 0, 74, 110
2, 93468, Note_off_c, 0, 74, 64
2, 93480, Note_on_c, 0, 73, 110
2, 93528, Note_off_c, 0, 73, 64
2, 93540, Note_on_c, 0, 71, 110
2, 93588, Note_off_c, 0, 71, 64
2, 93600, Note_on_c, 0, 73, 110
2, 93696, Note_off_c, 0, 73, 64
2, 93720, Note_on_c, 0, 67, 110
2, 93816, Note_off_c, 0, 67, 64
2, 93840, Note_on_c, 0, 76, 110
2, 93936, Note_off_c, 0, 76, 64
2, 93960, Note_on_c, 0, 73, 110
2, 94056, Note_off_c, 0, 73, 64
2, 94080, Note_on_c, 0, 79, 110
2, 94368, Note_off_c, 0, 79, 64
2, 94380, Note_on_c, 0, 78, 110
2, 94428, Note_off_c, 0, 78, 64
2, 94440, Note_on_c, 0, 76, 110
2, 94488, Note_off_c, 0, 76, 64
2, 94500, Note_on_c, 0, 74, 110
2, 94548, Note_off_c, 0, 74, 64
2, 94560, Note_on_c, 0, 83, 110
2, 94848, Note_off_c, 0, 83, 64
2, 94860, Note_on_c, 0, 84, 110
2, 94908, Note_off_c, 0, 84, 64
2, 94920, Note_on_c, 0, 83, 110
2, 94968, Note_off_c, 0, 83, 64
2, 94980, Note_on_c, 0, 81, 110
2, 95028, Note_off_c, 0, 81, 64
2, 95040, Note_on_c, 0, 79, 110
2, 95376, Note_off_c, 0, 79, 64
2, 95400, Note_on_c, 0, 78, 110
2, 95448, Note_off_c, 0, 78, 64
2, 95460, Note_on_c, 0, 76, 110
2, 95508, Note_off_c, 0, 76, 64
2, 95520, Note_on_c, 0, 74, 110
2, 95568, Note_off_c, 0, 74, 64
2, 95580, Note_on_c, 0, 72, 110
2, 95628, Note_off_c, 0, 72, 64
2, 95640, Note_on_c, 0, 71, 110
2, 95688, Note_off_c, 0, 71, 64
2, 95700, Note_on_c, 0, 69, 110
2, 95748, Note_off_c, 0, 69, 64
2, 95760, Note_on_c, 0, 67, 110
2, 96048, Note_off_c, 0, 67, 64
2, 96060, Note_on_c, 0, 76, 110
2, 96108, Note_off_c, 0, 76, 64
2, 96120, Note_on_c, 0, 74, 110
2, 96168, Note_off_c, 0, 74, 64
2, 96180, Note_on_c, 0, 72, 110
2, 96228, Note_off_c, 0, 72, 64
2, 96240, Note_on_c, 0, 79, 110
2, 96528, Note_off_c, 0, 79, 64
2, 96540, Note_on_c, 0, 76, 110
2, 96588, Note_off_c, 0, 76, 64
2, 96600, Note_on_c, 0, 81, 110
2, 96648, Note_off_c, 0, 81, 64
2, 96660, Note_on_c, 0, 79, 110
2, 96708, Note_off_c, 0, 79, 64
2, 96720, Note_on_c, 0, 77, 110
2, 96768, Note_off_c, 0, 77, 64
2, 96780, Note_on_c, 0, 76, 110
2, 96828, Note_off_c, 0, 76, 64
2, 96840, Note_on_c, 0, 74, 110
2, 96888, Note_off_c, 0, 74, 64
2, 96900, Note_on_c, 0, 72, 110
2, 96948, Note_off_c, 0, 72, 64
2, 96960, Note_on_c, 0, 71, 110
2, 97056, Note_off_c, 0, 71, 64
2, 97080, Note_on_c, 0, 77, 110
2, 97248, Note_off_c, 0, 77, 64
2, 97260, Note_on_c, 0, 76, 110
2, 97308, Note_off_c, 0, 76, 64
2, 97320, Note_on_c, 0, 74, 110
2, 97368, Note_off_c, 0, 74, 64
2, 97380, Note_on_c, 0, 76, 110
2, 97428, Note_off_c, 0, 76, 64
2, 97440, Note_on_c, 0, 79, 110
2, 97488, Note_off_c, 0, 79, 64
2, 97500, Note_on_c, 0, 76, 110
2, 97548, Note_off_c, 0, 76, 64
2, 97560, Note_on_c, 0, 74, 110
2, 97608, Note_off_c, 0, 74, 64
2, 97620, Note_on_c, 0, 76, 110
2, 97668, Note_off_c, 0, 76, 64
2, 97680, Note_on_c, 0, 72, 110
2, 97728, Note_off_c, 0, 72, 64
2, 97740, Note_on_c, 0, 76, 110
2, 97788, Note_off_c, 0, 76, 64
2, 97800, Note_on_c, 0, 69, 110
2, 97848, Note_off_c, 0, 69, 64
2, 97860, Note_on_c, 0, 72, 110
2, 97908, Note_off_c, 0, 72, 64
2, 97920, Note_on_c, 0, 69, 110
2, 98016, Note_off_c, 0, 69, 64
2, 98040, Note_on_c, 0, 81, 110
2, 98136, Note_off_c, 0, 81, 64
2, 98160, Note_on_c, 0, 77, 110
2, 98256, Note_off_c, 0, 77, 64
2, 98280, Note_on_c, 0, 81, 110
2, 98376, Note_off_c, 0, 81, 64
2, 98400, Note_on_c, 0, 82, 110
2, 98688, Note_off_c, 0, 82, 64
2, 98700, Note_on_c, 0, 79, 110
2, 98748, Note_off_c, 0, 79, 64
2, 98760, Note_on_c, 0, 77, 110
2, 98808, Note_off_c, 0, 77, 64
2, 98820, Note_on_c, 0, 79, 110
2, 98868, Note_off_c, 0, 79, 64
2, 98880, Note_on_c, 0, 82, 110
2, 98928, Note_off_c, 0, 82, 64
2, 98940, Note_on_c, 0, 79, 110
2, 98988, Note_off_c, 0, 79, 64
2, 99000, Note_on_c, 0, 77, 110
2, 99048, Note_off_c, 0, 77, 64
2, 99060, Note_on_c, 0, 79, 110
2, 99108, Note_off_c, 0, 79, 64
2, 99120, Note_on_c, 0, 76, 110
2, 99168, Note_off_c, 0, 76, 64
2, 99180, Note_on_c, 0, 79, 110
2, 99228, Note_off_c, 0, 79, 64
2, 99240, Note_on_c, 0, 72, 110
2, 99288, Note_off_c, 0, 72, 64
2, 99300, Note_on_c, 0, 76, 110
2, 99348, Note_off_c, 0, 76, 64
2, 99360, Note_on_c, 0, 69, 110
2, 99408, Note_off_c, 0, 69, 64
2, 99420, Note_on_c, 0, 81, 110
2, 99468, Note_off_c, 0, 81, 64
2, 99480, Note_on_c, 0, 79, 110
2, 99528, Note_off_c, 0, 79, 64
2, 99540, Note_on_c, 0, 81, 110
2, 99588, Note_off_c, 0, 81, 64
2, 99600, Note_on_c, 0, 84, 110
2, 99648, Note_off_c, 0, 84, 64
2, 99660, Note_on_c, 0, 81, 110
2, 99708, Note_off_c, 0, 81, 64
2, 99720, Note_on_c, 0, 79, 110
2, 99768, Note_off_c, 0, 79, 64
2, 99780, Note_on_c, 0, 81, 110
2, 99828, Note_off_c, 0, 81, 64
2, 99840, Note_on_c, 0, 77, 110
2, 99888, Note_off_c, 0, 77, 64
2, 99900, Note_on_c, 0, 81, 110
2, 99948, Note_off_c, 0, 81, 64
2, 99960, Note_on_c, 0, 84, 110
2, 100128, Note_off_c, 0, 84, 64
2, 100140, Note_on_c, 0, 82, 110
2, 100188, Note_off_c, 0, 82, 64
2, 100200, Note_on_c, 0, 81, 110
2, 100248, Note_off_c, 0, 81, 64
2, 100260, Note_on_c, 0, 82, 110
2, 100308, Note_off_c, 0, 82, 64
2, 100320, Note_on_c, 0, 84, 110
2, 100368, Note_off_c, 0, 84, 64
2, 100380, Note_on_c, 0, 82, 110
2, 100428, Note_off_c, 0, 82, 64
2, 100440, Note_on_c, 0, 81, 110
2, 100488, Note_off_c, 0, 81, 64
2, 100500, Note_on_c, 0, 82, 110
2, 100548, Note_off_c, 0, 82, 64
2, 100560, Note_on_c, 0, 77, 110
2, 100608, Note_off_c, 0, 77, 64
2, 100620, Note_on_c, 0, 81, 110
2, 100668, Note_off_c, 0, 81, 64
2, 100680, Note_on_c, 0, 82, 110
2, 100848, Note_off_c, 0, 82, 64
2, 100860, Note_on_c, 0, 81, 110
2, 100908, Note_off_c, 0, 81, 64
2, 100920, Note_on_c, 0, 79, 110
2, 100968, Note_off_c, 0, 79, 64
2, 100980, Note_on_c, 0, 81, 110
2, 101028, Note_off_c, 0, 81, 64
2, 101040, Note_on_c, 0, 82, 110
2, 101088, Note_off_c, 0, 82, 64
2, 101100, Note_on_c, 0, 81, 110
2, 101148, Note_off_c, 0, 81, 64
2, 101160, Note_on_c, 0, 79, 110
2, 101208, Note_off_c, 0, 79, 64
2, 101220, Note_on_c, 0, 81, 110
2, 101268, Note_off_c, 0, 81, 64
2, 101280, Note_on_c, 0, 77, 110
2, 101328, Note_off_c, 0, 77, 64
2, 101340, Note_on_c, 0, 79, 110
2, 101388, Note_off_c, 0, 79, 64
2, 101400, Note_on_c, 0, 81, 110
2, 101568, Note_off_c, 0, 81, 64
2, 101580, Note_on_c, 0, 79, 110
2, 101628, Note_off_c, 0, 79, 64
2, 101640, Note_on_c, 0, 77, 110
2, 101688, Note_off_c, 0, 77, 64
2, 101700, Note_on_c, 0, 79, 110
2, 101748, Note_off_c, 0, 79, 64
2, 101760, Note_on_c, 0, 82, 110
2, 101808, Note_off_c, 0, 82, 64
2, 101820, Note_on_c, 0, 79, 110
2, 101868, Note_off_c, 0, 79, 64
2, 101880, Note_on_c, 0, 77, 110
2, 101928, Note_off_c, 0, 77, 64
2, 101940, Note_on_c, 0, 79, 110
2, 101988, Note_off_c, 0, 79, 64
2, 102000, Note_on_c, 0, 76, 110
2, 102048, Note_off_c, 0, 76, 64
2, 102060, Note_on_c, 0, 77, 110
2, 102108, Note_off_c, 0, 77, 64
2, 102120, Note_on_c, 0, 79, 110
2, 102336, Note_off_c, 0, 79, 64
2, 102360, Note_on_c, 0, 72, 110
2, 102456, Note_off_c, 0, 72, 64
2, 102480, Note_on_c, 0, 77, 110
2, 102576, Note_off_c, 0, 77, 64
2, 102600, Note_on_c, 0, 81, 110
2, 102816, Note_off_c, 0, 81, 64
2, 102840, Note_on_c, 0, 74, 110
2, 103056, Note_off_c, 0, 74, 64
2, 103080, Note_on_c, 0, 71, 110
2, 103176, Note_off_c, 0, 71, 64
2, 103200, Note_on_c, 0, 76, 110
2, 103296, Note_off_c, 0, 76, 64
2, 103320, Note_on_c, 0, 79, 110
2, 103536, Note_off_c, 0, 79, 64
2, 103560, Note_on_c, 0, 72, 110
2, 103776, Note_off_c, 0, 72, 64
2, 103800, Note_on_c, 0, 69, 105
2, 103896, Note_off_c, 0, 69, 64
2, 103920, Note_on_c, 0, 74, 110
2, 104016, Note_off_c, 0, 74, 64
2, 104040, Note_on_c, 0, 77, 110
2, 104256, Note_off_c, 0, 77, 64
2, 104280, Note_on_c, 0, 71, 110
2, 104376, Note_off_c, 0, 71, 64
2, 104520, Note_on_c, 0, 72, 110
2, 104616, Note_off_c, 0, 72, 64
2, 104640, Note_on_c, 0, 76, 110
2, 104736, Note_off_c, 0, 76, 64
2, 104760, Note_on_c, 0, 79, 110
2, 104856, Note_off_c, 0, 79, 64
2, 104880, Note_on_c, 0, 82, 110
2, 104976, Note_off_c, 0, 82, 64
2, 105000, Note_on_c, 0, 81, 110
2, 105048, Note_off_c, 0, 81, 64
2, 105060, Note_on_c, 0, 79, 110
2, 105108, Note_off_c, 0, 79, 64
2, 105120, Note_on_c, 0, 81, 110
2, 105216, Note_off_c, 0, 81, 64
2, 105240, Note_on_c, 0, 77, 110
2, 105336, Note_off_c, 0, 77, 64
2, 105360, Note_on_c, 0, 72, 110
2, 105456, Note_off_c, 0, 72, 64
2, 105480, Note_on_c, 0, 77, 110
2, 105576, Note_off_c, 0, 77, 64
2, 105600, Note_on_c, 0, 81, 110
2, 105696, Note_off_c, 0, 81, 64
2, 105720, Note_on_c, 0, 79, 110
2, 105768, Note_off_c, 0, 79, 64
2, 105780, Note_on_c, 0, 77, 110
2, 105828, Note_off_c, 0, 77, 64
2, 105840, Note_on_c, 0, 79, 110
2, 105936, Note_off_c, 0, 79, 64
2, 105960, Note_on_c, 0, 76, 110
2, 106056, Note_off_c, 0, 76, 64
2, 106080, Note_on_c, 0, 72, 110
2, 106176, Note_off_c, 0, 72, 64
2, 106200, Note_on_c, 0, 76, 110
2, 106296, Note_off_c, 0, 76, 64
2, 106320, Note_on_c, 0, 79, 110
2, 106416, Note_off_c, 0, 79, 64
2, 106440, Note_on_c, 0, 77, 110
2, 106488, Note_off_c, 0, 77, 64
2, 106500, Note_on_c, 0, 76, 110
2, 106548, Note_off_c, 0, 76, 64
2, 106560, Note_on_c, 0, 77, 110
2, 106656, Note_off_c, 0, 77, 64
2, 106680, Note_on_c, 0, 74, 110
2, 106776, Note_off_c, 0, 74, 64
2, 106800, Note_on_c, 0, 71, 110
2, 106896, Note_off_c, 0, 71, 64
2, 106920, Note_on_c, 0, 74, 110
2, 107016, Note_off_c, 0, 74, 64
2, 107040, Note_on_c, 0, 77, 110
2, 107088, Note_off_c, 0, 77, 64
2, 107100, Note_on_c, 0, 76, 110
2, 107148, Note_off_c, 0, 76, 64
2, 107160, Note_on_c, 0, 74, 110
2, 107208, Note_off_c, 0, 74, 64
2, 107220, Note_on_c, 0, 76, 110
2, 107268, Note_off_c, 0, 76, 64
2, 107280, Note_on_c, 0, 77, 110
2, 107328, Note_off_c, 0, 77, 64
2, 107340, Note_on_c, 0, 76, 110
2, 107388, Note_off_c, 0, 76, 64
2, 107400, Note_on_c, 0, 74, 110
2, 107448, Note_off_c, 0, 74, 64
2, 107460, Note_on_c, 0, 76, 110
2, 107508, Note_off_c, 0, 76, 64
2, 107520, Note_on_c, 0, 72, 110
2, 107568, Note_off_c, 0, 72, 64
2, 107580, Note_on_c, 0, 81, 110
2, 107628, Note_off_c, 0, 81, 64
2, 107640, Note_on_c, 0, 79, 105
2, 107688, Note_off_c, 0, 79, 64
2, 107700, Note_on_c, 0, 77, 110
2, 107748, Note_off_c, 0, 77, 64
2, 107760, Note_on_c, 0, 76, 110
2, 107808, Note_off_c, 0, 76, 64
2, 107820, Note_on_c, 0, 74, 110
2, 107868, Note_off_c, 0, 74, 64
2, 107880, Note_on_c, 0, 72, 110
2, 107928, Note_off_c, 0, 72, 64
2, 107940, Note_on_c, 0, 70, 110
2, 107988, Note_off_c, 0, 70, 64
2, 108000, Note_on_c, 0, 69, 105
2, 108048, Note_off_c, 0, 69, 64
2, 108060, Note_on_c, 0, 70, 110
2, 108108, Note_off_c, 0, 70, 64
2, 108120, Note_on_c, 0, 67, 110
2, 108168, Note_off_c, 0, 67, 64
2, 108180, Note_on_c, 0, 69, 110
2, 108228, Note_off_c, 0, 69, 64
2, 108240, Note_on_c, 0, 65, 110
2, 108288, Note_off_c, 0, 65, 64
2, 108300, Note_on_c, 0, 79, 110
2, 108348, Note_off_c, 0, 79, 64
2, 108360, Note_on_c, 0, 77, 110
2, 108408, Note_off_c, 0, 77, 64
2, 108420, Note_on_c, 0, 76, 110
2, 108468, Note_off_c, 0, 76, 64
2, 108480, Note_on_c, 0, 74, 110
2, 108528, Note_off_c, 0, 74, 64
2, 108540, Note_on_c, 0, 72, 110
2, 108588, Note_off_c, 0, 72, 64
2, 108600, Note_on_c, 0, 71, 110
2, 108648, Note_off_c, 0, 71, 64
2, 108660, Note_on_c, 0, 69, 110
2, 108708, Note_off_c, 0, 69, 64
2, 108720, Note_on_c, 0, 67, 105
2, 108768, Note_off_c, 0, 67, 64
2, 108780, Note_on_c, 0, 69, 110
2, 108837, Note_off_c, 0, 69, 64
2, 108840, Note_on_c, 0, 65, 110
2, 108897, Note_off_c, 0, 65, 64
2, 108900, Note_on_c, 0, 67, 110
2, 108957, Note_off_c, 0, 67, 64
2, 108960, Note_on_c, 0, 64, 110
2, 109008, Note_off_c, 0, 64, 64
2, 109020, Note_on_c, 0, 77, 110
2, 109068, Note_off_c, 0, 77, 64
2, 109080, Note_on_c, 0, 76, 110
2, 109128, Note_off_c, 0, 76, 64
2, 109140, Note_on_c, 0, 74, 110
2, 109188, Note_off_c, 0, 74, 64
2, 109200, Note_on_c, 0, 72, 110
2, 109248, Note_off_c, 0, 72, 64
2, 109260, Note_on_c, 0, 71, 110
2, 109308, Note_off_c, 0, 71, 64
2, 109320, Note_on_c, 0, 69, 110
2, 109368, Note_off_c, 0, 69, 64
2, 109380, Note_on_c, 0, 67, 110
2, 109428, Note_off_c, 0, 67, 64
2, 109440, Note_on_c, 0, 65, 110
2, 109536, Note_off_c, 0, 65, 64
2, 109560, Note_on_c, 0, 69, 110
2, 109752, Note_off_c, 0, 69, 64
2, 109800, Note_on_c, 0, 74, 110
2, 109992, Note_off_c, 0, 74, 64
2, 110040, Note_on_c, 0, 77, 110
2, 110208, Note_off_c, 0, 77, 64
2, 110220, Note_on_c, 0, 72, 110
2, 110268, Note_off_c, 0, 72, 64
2, 110280, Note_on_c, 0, 74, 110
2, 110328, Note_off_c, 0, 74, 64
2, 110340, Note_on_c, 0, 71, 110
2, 110388, Note_off_c, 0, 71, 64
2, 110400, Note_on_c, 0, 72, 110
2, 110496, Note_off_c, 0, 72, 64
2, 110520, Note_on_c, 0, 74, 110
2, 110616, Note_off_c, 0, 74, 64
2, 110640, Note_on_c, 0, 67, 110
2, 110736, Note_off_c, 0, 67, 64
2, 110760, Note_on_c, 0, 71, 110
2, 110856, Note_off_c, 0, 71, 64
2, 110880, Note_on_c, 0, 72, 110
2, 111072, Note_off_c, 0, 72, 64
2, 111072, End_track
3, 0, Start_track
3, 0, Title_t, "J.S. Bach, Edition Peters"
3, 0, Program_c, 1, 19
3, 840, Note_on_c, 1, 64, 107
3, 936, Note_off_c, 1, 64, 64
3, 960, Note_on_c, 1, 60, 107
3, 1056, Note_off_c, 1, 60, 64
3, 1080, Note_on_c, 1, 64, 107
3, 1176, Note_off_c, 1, 64, 64
3, 1200, Note_on_c, 1, 65, 107
3, 1296, Note_off_c, 1, 65, 64
3, 1320, Note_on_c, 1, 64, 107
3, 1368, Note_off_c, 1, 64, 64
3, 1380, Note_on_c, 1, 62, 107
3, 1428, Note_off_c, 1, 62, 64
3, 1440, Note_on_c, 1, 64, 107
3, 1488, Note_off_c, 1, 64, 64
3, 1500, Note_on_c, 1, 60, 107
3, 1548, Note_off_c, 1, 60, 64
3, 1560, Note_on_c, 1, 59, 107
3, 1608, Note_off_c, 1, 59, 64
3, 1620, Note_on_c, 1, 60, 107
3, 1668, Note_off_c, 1, 60, 64
3, 1680, Note_on_c, 1, 64, 107
3, 1728, Note_off_c, 1, 64, 64
3, 1740, Note_on_c, 1, 60, 107
3, 1788, Note_off_c, 1, 60, 64
3, 1800, Note_on_c, 1, 59, 107
3, 1848, Note_off_c, 1, 59, 64
3, 1860, Note_on_c, 1, 60, 107
3, 1908, Note_off_c, 1, 60, 64
3, 1920, Note_on_c, 1, 55, 107
3, 1968, Note_off_c, 1, 55, 64
3, 1980, Note_on_c, 1, 60, 107
3, 2028, Note_off_c, 1, 60, 64
3, 2040, Note_on_c, 1, 52, 107
3, 2088, Note_off_c, 1, 52, 64
3, 2100, Note_on_c, 1, 55, 107
3, 2148, Note_off_c, 1, 55, 64
3, 2160, Note_on_c, 1, 48, 107
3, 2256, Note_off_c, 1, 48, 64
3, 2280, Note_on_c, 1, 67, 107
3, 2376, Note_off_c, 1, 67, 64
3, 2400, Note_on_c, 1, 64, 107
3, 2496, Note_off_c, 1, 64, 64
3, 2520, Note_on_c, 1, 67, 107
3, 2616, Note_off_c, 1, 67, 64
3, 2640, Note_on_c, 1, 69, 107
3, 2736, Note_off_c, 1, 69, 64
3, 2760, Note_on_c, 1, 67, 107
3, 2808, Note_off_c, 1, 67, 64
3, 2820, Note_on_c, 1, 65, 107
3, 2868, Note_off_c, 1, 65, 64
3, 2880, Note_on_c, 1, 67, 107
3, 2928, Note_off_c, 1, 67, 64
3, 2940, Note_on_c, 1, 64, 107
3, 2988, Note_off_c, 1, 64, 64
3, 3000, Note_on_c, 1, 60, 107
3, 3048, Note_off_c, 1, 60, 64
3, 3060, Note_on_c, 1, 64, 107
3, 3108, Note_off_c, 1, 64, 64
3, 3120, Note_on_c, 1, 69, 107
3, 3168, Note_off_c, 1, 69, 64
3, 3180, Note_on_c, 1, 64, 107
3, 3228, Note_off_c, 1, 64, 64
3, 3240, Note_on_c, 1, 60, 107
3, 3288, Note_off_c, 1, 60, 64
3, 3300, Note_on_c, 1, 64, 107
3, 3348, Note_off_c, 1, 64, 64
3, 3360, Note_on_c, 1, 72, 107
3, 3648, Note_off_c, 1, 72, 64
3, 3660, Note_on_c, 1, 65, 107
3, 3708, Note_off_c, 1, 65, 64
3, 3720, Note_on_c, 1, 62, 107
3, 3768, Note_off_c, 1, 62, 64
3, 3780, Note_on_c, 1, 65, 107
3, 3828, Note_off_c, 1, 65, 64
3, 3840, Note_on_c, 1, 71, 107
3, 3888, Note_off_c, 1, 71, 64
3, 3900, Note_on_c, 1, 65, 107
3, 3948, Note_off_c, 1, 65, 64
3, 3960, Note_on_c, 1, 62, 107
3, 4008, Note_off_c, 1, 62, 64
3, 4020, Note_on_c, 1, 65, 107
3, 4068, Note_off_c, 1, 65, 64
3, 4080, Note_on_c, 1, 74, 107
3, 4368, Note_off_c, 1, 74, 64
3, 4380, Note_on_c, 1, 67, 107
3, 4428, Note_off_c, 1, 67, 64
3, 4440, Note_on_c, 1, 64, 107
3, 4488, Note_off_c, 1, 64, 64
3, 4500, Note_on_c, 1, 67, 107
3, 4548, Note_off_c, 1, 67, 64
3, 4560, Note_on_c, 1, 72, 107
3, 4608, Note_off_c, 1, 72, 64
3, 4620, Note_on_c, 1, 67, 107
3, 4668, Note_off_c, 1, 67, 64
3, 4680, Note_on_c, 1, 64, 107
3, 4728, Note_off_c, 1, 64, 64
3, 4740, Note_on_c, 1, 67, 107
3, 4788, Note_off_c, 1, 67, 64
3, 4800, Note_on_c, 1, 76, 107
3, 5136, Note_off_c, 1, 76, 64
3, 5160, Note_on_c, 1, 74, 107
3, 5208, Note_off_c, 1, 74, 64
3, 5220, Note_on_c, 1, 72, 107
3, 5268, Note_off_c, 1, 72, 64
3, 5280, Note_on_c, 1, 74, 107
3, 5376, Note_off_c, 1, 74, 64
3, 5400, Note_on_c, 1, 69, 107
3, 5496, Note_off_c, 1, 69, 64
3, 5520, Note_on_c, 1, 77, 107
3, 5856, Note_off_c, 1, 77, 64
3, 5880, Note_on_c, 1, 74, 107
3, 5976, Note_off_c, 1, 74, 64
3, 6000, Note_on_c, 1, 71, 107
3, 6096, Note_off_c, 1, 71, 64
3, 6120, Note_on_c, 1, 74, 107
3, 6216, Note_off_c, 1, 74, 64
3, 6240, Note_on_c, 1, 67, 107
3, 6336, Note_off_c, 1, 67, 64
3, 6360, Note_on_c, 1, 71, 107
3, 6456, Note_off_c, 1, 71, 64
3, 6480, Note_on_c, 1, 72, 107
3, 6528, Note_off_c, 1, 72, 64
3, 6540, Note_on_c, 1, 74, 107
3, 6588, Note_off_c, 1, 74, 64
3, 6600, Note_on_c, 1, 75, 107
3, 6648, Note_off_c, 1, 75, 64
3, 6660, Note_on_c, 1, 77, 107
3, 6708, Note_off_c, 1, 77, 64
3, 6720, Note_on_c, 1, 75, 107
3, 6768, Note_off_c, 1, 75, 64
3, 6780, Note_on_c, 1, 74, 107
3, 6828, Note_off_c, 1, 74, 64
3, 6840, Note_on_c, 1, 72, 107
3, 6888, Note_off_c, 1, 72, 64
3, 6900, Note_on_c, 1, 70, 107
3, 6948, Note_off_c, 1, 70, 64
3, 6960, Note_on_c, 1, 69, 107
3, 7008, Note_off_c, 1, 69, 64
3, 7020, Note_on_c, 1, 67, 107
3, 7068, Note_off_c, 1, 67, 64
3, 7080, Note_on_c, 1, 66, 107
3, 7128, Note_off_c, 1, 66, 64
3, 7140, Note_on_c, 1, 64, 107
3, 7188, Note_off_c, 1, 64, 64
3, 7200, Note_on_c, 1, 66, 107
3, 7296, Note_off_c, 1, 66, 64
3, 7320, Note_on_c, 1, 60, 107
3, 7416, Note_off_c, 1, 60, 64
3, 7440, Note_on_c, 1, 69, 107
3, 7536, Note_off_c, 1, 69, 64
3, 7560, Note_on_c, 1, 66, 107
3, 7656, Note_off_c, 1, 66, 64
3, 7680, Note_on_c, 1, 72, 107
3, 7968, Note_off_c, 1, 72, 64
3, 7980, Note_on_c, 1, 71, 107
3, 8028, Note_off_c, 1, 71, 64
3, 8040, Note_on_c, 1, 69, 107
3, 8088, Note_off_c, 1, 69, 64
3, 8100, Note_on_c, 1, 71, 107
3, 8148, Note_off_c, 1, 71, 64
3, 8160, Note_on_c, 1, 67, 107
3, 8208, Note_off_c, 1, 67, 64
3, 8220, Note_on_c, 1, 76, 107
3, 8268, Note_off_c, 1, 76, 64
3, 8280, Note_on_c, 1, 74, 107
3, 8328, Note_off_c, 1, 74, 64
3, 8340, Note_on_c, 1, 72, 107
3, 8388, Note_off_c, 1, 72, 64
3, 8400, Note_on_c, 1, 71, 107
3, 8448, Note_off_c, 1, 71, 64
3, 8460, Note_on_c, 1, 69, 107
3, 8508, Note_off_c, 1, 69, 64
3, 8520, Note_on_c, 1, 67, 107
3, 8568, Note_off_c, 1, 67, 64
3, 8580, Note_on_c, 1, 66, 107
3, 8628, Note_off_c, 1, 66, 64
3, 8640, Note_on_c, 1, 64, 107
3, 8688, Note_off_c, 1, 64, 64
3, 8700, Note_on_c, 1, 66, 107
3, 8748, Note_off_c, 1, 66, 64
3, 8760, Note_on_c, 1, 62, 107
3, 8808, Note_off_c, 1, 62, 64
3, 8820, Note_on_c, 1, 64, 107
3, 8868, Note_off_c, 1, 64, 64
3, 8880, Note_on_c, 1, 60, 107
3, 8928, Note_off_c, 1, 60, 64
3, 8940, Note_on_c, 1, 74, 107
3, 8988, Note_off_c, 1, 74, 64
3, 9000, Note_on_c, 1, 72, 107
3, 9048, Note_off_c, 1, 72, 64
3, 9060, Note_on_c, 1, 71, 107
3, 9108, Note_off_c, 1, 71, 64
3, 9120, Note_on_c, 1, 69, 107
3, 9168, Note_off_c, 1, 69, 64
3, 9180, Note_on_c, 1, 67, 107
3, 9228, Note_off_c, 1, 67, 64
3, 9240, Note_on_c, 1, 66, 107
3, 9288, Note_off_c, 1, 66, 64
3, 9300, Note_on_c, 1, 64, 107
3, 9348, Note_off_c, 1, 64, 64
3, 9360, Note_on_c, 1, 62, 107
3, 9408, Note_off_c, 1, 62, 64
3, 9420, Note_on_c, 1, 64, 107
3, 9468, Note_off_c, 1, 64, 64
3, 9480, Note_on_c, 1, 60, 107
3, 9528, Note_off_c, 1, 60, 64
3, 9540, Note_on_c, 1, 62, 107
3, 9588, Note_off_c, 1, 62, 64
3, 9600, Note_on_c, 1, 59, 107
3, 9648, Note_off_c, 1, 59, 64
3, 9660, Note_on_c, 1, 72, 107
3, 9708, Note_off_c, 1, 72, 64
3, 9720, Note_on_c, 1, 71, 107
3, 9768, Note_off_c, 1, 71, 64
3, 9780, Note_on_c, 1, 69, 107
3, 9828, Note_off_c, 1, 69, 64
3, 9840, Note_on_c, 1, 67, 107
3, 9888, Note_off_c, 1, 67, 64
3, 9900, Note_on_c, 1, 66, 107
3, 9948, Note_off_c, 1, 66, 64
3, 9960, Note_on_c, 1, 64, 107
3, 10008, Note_off_c, 1, 64, 64
3, 10020, Note_on_c, 1, 62, 107
3, 10068, Note_off_c, 1, 62, 64
3, 10080, Note_on_c, 1, 60, 107
3, 10176, Note_off_c, 1, 60, 64
3, 10200, Note_on_c, 1, 64, 107
3, 10392, Note_off_c, 1, 64, 64
3, 10440, Note_on_c, 1, 69, 107
3, 10632, Note_off_c, 1, 69, 64
3, 10680, Note_on_c, 1, 72, 107
3, 10848, Note_off_c, 1, 72, 64
3, 10860, Note_on_c, 1, 67, 107
3, 10908, Note_off_c, 1, 67, 64
3, 10920, Note_on_c, 1, 69, 107
3, 10968, Note_off_c, 1, 69, 64
3, 10980, Note_on_c, 1, 66, 107
3, 11028, Note_off_c, 1, 66, 64
3, 11040, Note_on_c, 1, 67, 107
3, 11136, Note_off_c, 1, 67, 64
3, 11160, Note_on_c, 1, 69, 107
3, 11256, Note_off_c, 1, 69, 64
3, 11280, Note_on_c, 1, 62, 107
3, 11376, Note_off_c, 1, 62, 64
3, 11400, Note_on_c, 1, 66, 107
3, 11496, Note_off_c, 1, 66, 64
3, 11580, Note_on_c, 1, 67, 107
3, 11628, Note_off_c, 1, 67, 64
3, 11640, Note_on_c, 1, 66, 107
3, 11688, Note_off_c, 1, 66, 64
3, 11700, Note_on_c, 1, 67, 107
3, 11748, Note_off_c, 1, 67, 64
3, 11760, Note_on_c, 1, 71, 107
3, 11808, Note_off_c, 1, 71, 64
3, 11820, Note_on_c, 1, 67, 107
3, 11868, Note_off_c, 1, 67, 64
3, 11880, Note_on_c, 1, 66, 107
3, 11928, Note_off_c, 1, 66, 64
3, 11940, Note_on_c, 1, 67, 107
3, 11988, Note_off_c, 1, 67, 64
3, 12000, Note_on_c, 1, 62, 107
3, 12048, Note_off_c, 1, 62, 64
3, 12060, Note_on_c, 1, 67, 107
3, 12108, Note_off_c, 1, 67, 64
3, 12120, Note_on_c, 1, 59, 107
3, 12168, Note_off_c, 1, 59, 64
3, 12180, Note_on_c, 1, 62, 107
3, 12228, Note_off_c, 1, 62, 64
3, 12240, Note_on_c, 1, 55, 107
3, 12336, Note_off_c, 1, 55, 64
3, 12360, Note_on_c, 1, 74, 107
3, 12456, Note_off_c, 1, 74, 64
3, 12480, Note_on_c, 1, 71, 107
3, 12576, Note_off_c, 1, 71, 64
3, 12600, Note_on_c, 1, 74, 107
3, 12696, Note_off_c, 1, 74, 64
3, 12720, Note_on_c, 1, 76, 107
3, 12816, Note_off_c, 1, 76, 64
3, 12840, Note_on_c, 1, 74, 107
3, 12888, Note_off_c, 1, 74, 64
3, 12900, Note_on_c, 1, 72, 107
3, 12948, Note_off_c, 1, 72, 64
3, 12960, Note_on_c, 1, 74, 107
3, 13152, Note_off_c, 1, 74, 64
3, 13800, Note_on_c, 1, 59, 107
3, 13896, Note_off_c, 1, 59, 64
3, 13920, Note_on_c, 1, 55, 107
3, 14016, Note_off_c, 1, 55, 64
3, 14040, Note_on_c, 1, 59, 107
3, 14136, Note_off_c, 1, 59, 64
3, 14160, Note_on_c, 1, 60, 107
3, 14256, Note_off_c, 1, 60, 64
3, 14280, Note_on_c, 1, 59, 107
3, 14328, Note_off_c, 1, 59, 64
3, 14340, Note_on_c, 1, 57, 107
3, 14388, Note_off_c, 1, 57, 64
3, 14400, Note_on_c, 1, 59, 107
3, 14496, Note_off_c, 1, 59, 64
3, 14520, Note_on_c, 1, 62, 107
3, 14616, Note_off_c, 1, 62, 64
3, 14640, Note_on_c, 1, 55, 107
3, 14736, Note_off_c, 1, 55, 64
3, 14760, Note_on_c, 1, 59, 107
3, 14856, Note_off_c, 1, 59, 64
3, 14880, Note_on_c, 1, 52, 107
3, 14928, Note_off_c, 1, 52, 64
3, 14940, Note_on_c, 1, 55, 107
3, 14988, Note_off_c, 1, 55, 64
3, 15000, Note_on_c, 1, 57, 107
3, 15048, Note_off_c, 1, 57, 64
3, 15060, Note_on_c, 1, 59, 107
3, 15108, Note_off_c, 1, 59, 64
3, 15120, Note_on_c, 1, 60, 107
3, 15216, Note_off_c, 1, 60, 64
3, 15240, Note_on_c, 1, 64, 107
3, 15336, Note_off_c, 1, 64, 64
3, 15360, Note_on_c, 1, 57, 107
3, 15456, Note_off_c, 1, 57, 64
3, 15480, Note_on_c, 1, 60, 107
3, 15576, Note_off_c, 1, 60, 64
3, 15600, Note_on_c, 1, 54, 107
3, 15648, Note_off_c, 1, 54, 64
3, 15660, Note_on_c, 1, 57, 107
3, 15708, Note_off_c, 1, 57, 64
3, 15720, Note_on_c, 1, 59, 107
3, 15768, Note_off_c, 1, 59, 64
3, 15780, Note_on_c, 1, 60, 107
3, 15828, Note_off_c, 1, 60, 64
3, 15840, Note_on_c, 1, 62, 107
3, 15936, Note_off_c, 1, 62, 64
3, 15960, Note_on_c, 1, 67, 107
3, 16008, Note_off_c, 1, 67, 64
3, 16020, Note_on_c, 1, 62, 107
3, 16068, Note_off_c, 1, 62, 64
3, 16080, Note_on_c, 1, 59, 107
3, 16176, Note_off_c, 1, 59, 64
3, 16200, Note_on_c, 1, 62, 107
3, 16248, Note_off_c, 1, 62, 64
3, 16260, Note_on_c, 1, 59, 107
3, 16308, Note_off_c, 1, 59, 64
3, 16320, Note_on_c, 1, 55, 107
3, 16368, Note_off_c, 1, 55, 64
3, 16380, Note_on_c, 1, 59, 107
3, 16428, Note_off_c, 1, 59, 64
3, 16440, Note_on_c, 1, 60, 107
3, 16488, Note_off_c, 1, 60, 64
3, 16500, Note_on_c, 1, 62, 107
3, 16548, Note_off_c, 1, 62, 64
3, 16560, Note_on_c, 1, 64, 107
3, 16608, Note_off_c, 1, 64, 64
3, 16620, Note_on_c, 1, 62, 107
3, 16668, Note_off_c, 1, 62, 64
3, 16680, Note_on_c, 1, 64, 107
3, 16728, Note_off_c, 1, 64, 64
3, 16740, Note_on_c, 1, 65, 107
3, 16788, Note_off_c, 1, 65, 64
3, 16800, Note_on_c, 1, 64, 107
3, 16848, Note_off_c, 1, 64, 64
3, 16860, Note_on_c, 1, 62, 107
3, 16908, Note_off_c, 1, 62, 64
3, 16920, Note_on_c, 1, 60, 107
3, 16968, Note_off_c, 1, 60, 64
3, 16980, Note_on_c, 1, 59, 107
3, 17028, Note_off_c, 1, 59, 64
3, 17040, Note_on_c, 1, 57, 107
3, 17088, Note_off_c, 1, 57, 64
3, 17100, Note_on_c, 1, 55, 107
3, 17148, Note_off_c, 1, 55, 64
3, 17160, Note_on_c, 1, 54, 107
3, 17208, Note_off_c, 1, 54, 64
3, 17220, Note_on_c, 1, 52, 107
3, 17268, Note_off_c, 1, 52, 64
3, 17280, Note_on_c, 1, 54, 107
3, 17328, Note_off_c, 1, 54, 64
3, 17340, Note_on_c, 1, 55, 107
3, 17388, Note_off_c, 1, 55, 64
3, 17400, Note_on_c, 1, 54, 107
3, 17448, Note_off_c, 1, 54, 64
3, 17460, Note_on_c, 1, 50, 107
3, 17508, Note_off_c, 1, 50, 64
3, 17520, Note_on_c, 1, 57, 107
3, 17568, Note_off_c, 1, 57, 64
3, 17580, Note_on_c, 1, 59, 107
3, 17628, Note_off_c, 1, 59, 64
3, 17640, Note_on_c, 1, 57, 107
3, 17688, Note_off_c, 1, 57, 64
3, 17700, Note_on_c, 1, 54, 107
3, 17748, Note_off_c, 1, 54, 64
3, 17760, Note_on_c, 1, 60, 107
3, 17808, Note_off_c, 1, 60, 64
3, 17820, Note_on_c, 1, 62, 107
3, 17868, Note_off_c, 1, 62, 64
3, 17880, Note_on_c, 1, 60, 107
3, 17928, Note_off_c, 1, 60, 64
3, 17940, Note_on_c, 1, 57, 107
3, 17988, Note_off_c, 1, 57, 64
3, 18000, Note_on_c, 1, 58, 107
3, 18096, Note_off_c, 1, 58, 64
3, 18120, Note_on_c, 1, 55, 107
3, 18216, Note_off_c, 1, 55, 64
3, 18240, Note_on_c, 1, 62, 107
3, 18336, Note_off_c, 1, 62, 64
3, 18360, Note_on_c, 1, 58, 107
3, 18456, Note_off_c, 1, 58, 64
3, 18480, Note_on_c, 1, 67, 107
3, 18768, Note_off_c, 1, 67, 64
3, 18780, Note_on_c, 1, 65, 107
3, 18828, Note_off_c, 1, 65, 64
3, 18840, Note_on_c, 1, 64, 107
3, 18888, Note_off_c, 1, 64, 64
3, 18900, Note_on_c, 1, 62, 107
3, 18948, Note_off_c, 1, 62, 64
3, 18960, Note_on_c, 1, 61, 107
3, 19008, Note_off_c, 1, 61, 64
3, 19020, Note_on_c, 1, 64, 107
3, 19068, Note_off_c, 1, 64, 64
3, 19080, Note_on_c, 1, 58, 107
3, 19128, Note_off_c, 1, 58, 64
3, 19140, Note_on_c, 1, 57, 107
3, 19188, Note_off_c, 1, 57, 64
3, 19200, Note_on_c, 1, 58, 107
3, 19248, Note_off_c, 1, 58, 64
3, 19260, Note_on_c, 1, 55, 107
3, 19308, Note_off_c, 1, 55, 64
3, 19320, Note_on_c, 1, 62, 107
3, 19368, Note_off_c, 1, 62, 64
3, 19380, Note_on_c, 1, 61, 107
3, 19428, Note_off_c, 1, 61, 64
3, 19440, Note_on_c, 1, 62, 107
3, 19728, Note_off_c, 1, 62, 64
3, 19740, Note_on_c, 1, 71, 107
3, 19788, Note_off_c, 1, 71, 64
3, 19800, Note_on_c, 1, 69, 107
3, 19848, Note_off_c, 1, 69, 64
3, 19860, Note_on_c, 1, 67, 107
3, 19908, Note_off_c, 1, 67, 64
3, 19920, Note_on_c, 1, 74, 107
3, 20208, Note_off_c, 1, 74, 64
3, 20220, Note_on_c, 1, 71, 107
3, 20268, Note_off_c, 1, 71, 64
3, 20280, Note_on_c, 1, 76, 107
3, 20328, Note_off_c, 1, 76, 64
3, 20340, Note_on_c, 1, 74, 107
3, 20388, Note_off_c, 1, 74, 64
3, 20400, Note_on_c, 1, 72, 107
3, 20448, Note_off_c, 1, 72, 64
3, 20460, Note_on_c, 1, 71, 107
3, 20508, Note_off_c, 1, 71, 64
3, 20520, Note_on_c, 1, 69, 107
3, 20568, Note_off_c, 1, 69, 64
3, 20580, Note_on_c, 1, 67, 107
3, 20628, Note_off_c, 1, 67, 64
3, 20640, Note_on_c, 1, 66, 107
3, 20736, Note_off_c, 1, 66, 64
3, 20760, Note_on_c, 1, 72, 107
3, 20928, Note_off_c, 1, 72, 64
3, 20940, Note_on_c, 1, 71, 107
3, 20988, Note_off_c, 1, 71, 64
3, 21000, Note_on_c, 1, 69, 107
3, 21048, Note_off_c, 1, 69, 64
3, 21060, Note_on_c, 1, 67, 107
3, 21108, Note_off_c, 1, 67, 64
3, 21120, Note_on_c, 1, 76, 107
3, 21408, Note_off_c, 1, 76, 64
3, 21420, Note_on_c, 1, 77, 107
3, 21468, Note_off_c, 1, 77, 64
3, 21480, Note_on_c, 1, 76, 107
3, 21528, Note_off_c, 1, 76, 64
3, 21540, Note_on_c, 1, 74, 107
3, 21588, Note_off_c, 1, 74, 64
3, 21600, Note_on_c, 1, 72, 107
3, 21888, Note_off_c, 1, 72, 64
3, 21960, Note_on_c, 1, 71, 107
3, 22008, Note_off_c, 1, 71, 64
3, 22020, Note_on_c, 1, 69, 107
3, 22068, Note_off_c, 1, 69, 64
3, 22080, Note_on_c, 1, 67, 107
3, 22128, Note_off_c, 1, 67, 64
3, 22140, Note_on_c, 1, 65, 107
3, 22188, Note_off_c, 1, 65, 64
3, 22200, Note_on_c, 1, 64, 107
3, 22248, Note_off_c, 1, 64, 64
3, 22260, Note_on_c, 1, 62, 107
3, 22308, Note_off_c, 1, 62, 64
3, 22320, Note_on_c, 1, 60, 107
3, 22416, Note_off_c, 1, 60, 64
3, 22440, Note_on_c, 1, 67, 107
3, 22536, Note_off_c, 1, 67, 64
3, 22560, Note_on_c, 1, 64, 107
3, 22656, Note_off_c, 1, 64, 64
3, 22680, Note_on_c, 1, 67, 107
3, 22776, Note_off_c, 1, 67, 64
3, 22800, Note_on_c, 1, 69, 107
3, 23088, Note_off_c, 1, 69, 64
3, 23100, Note_on_c, 1, 65, 107
3, 23148, Note_off_c, 1, 65, 64
3, 23160, Note_on_c, 1, 64, 107
3, 23208, Note_off_c, 1, 64, 64
3, 23220, Note_on_c, 1, 65, 107
3, 23268, Note_off_c, 1, 65, 64
3, 23280, Note_on_c, 1, 69, 107
3, 23328, Note_off_c, 1, 69, 64
3, 23340, Note_on_c, 1, 65, 107
3, 23388, Note_off_c, 1, 65, 64
3, 23400, Note_on_c, 1, 64, 107
3, 23448, Note_off_c, 1, 64, 64
3, 23460, Note_on_c, 1, 65, 107
3, 23508, Note_off_c, 1, 65, 64
3, 23520, Note_on_c, 1, 62, 107
3, 23568, Note_off_c, 1, 62, 64
3, 23580, Note_on_c, 1, 65, 107
3, 23628, Note_off_c, 1, 65, 64
3, 23640, Note_on_c, 1, 58, 107
3, 23688, Note_off_c, 1, 58, 64
3, 23700, Note_on_c, 1, 62, 107
3, 23748, Note_off_c, 1, 62, 64
3, 23760, Note_on_c, 1, 55, 107
3, 23856, Note_off_c, 1, 55, 64
3, 23880, Note_on_c, 1, 70, 107
3, 23976, Note_off_c, 1, 70, 64
3, 24000, Note_on_c, 1, 67, 107
3, 24096, Note_off_c, 1, 67, 64
3, 24120, Note_on_c, 1, 70, 107
3, 24216, Note_off_c, 1, 70, 64
3, 24240, Note_on_c, 1, 72, 107
3, 24576, Note_off_c, 1, 72, 64
3, 24600, Note_on_c, 1, 65, 107
3, 24696, Note_off_c, 1, 65, 64
3, 24720, Note_on_c, 1, 69, 107
3, 24816, Note_off_c, 1, 69, 64
3, 24840, Note_on_c, 1, 72, 107
3, 24936, Note_off_c, 1, 72, 64
3, 24960, Note_on_c, 1, 75, 107
3, 25056, Note_off_c, 1, 75, 64
3, 25080, Note_on_c, 1, 74, 107
3, 25128, Note_off_c, 1, 74, 64
3, 25140, Note_on_c, 1, 72, 107
3, 25188, Note_off_c, 1, 72, 64
3, 25200, Note_on_c, 1, 74, 107
3, 25296, Note_off_c, 1, 74, 64
3, 25320, Note_on_c, 1, 70, 107
3, 25416, Note_off_c, 1, 70, 64
3, 25440, Note_on_c, 1, 65, 107
3, 25536, Note_off_c, 1, 65, 64
3, 25560, Note_on_c, 1, 70, 107
3, 25656, Note_off_c, 1, 70, 64
3, 25680, Note_on_c, 1, 74, 107
3, 25776, Note_off_c, 1, 74, 64
3, 25800, Note_on_c, 1, 72, 107
3, 25848, Note_off_c, 1, 72, 64
3, 25860, Note_on_c, 1, 70, 107
3, 25908, Note_off_c, 1, 70, 64
3, 25920, Note_on_c, 1, 72, 107
3, 26016, Note_off_c, 1, 72, 64
3, 26040, Note_on_c, 1, 69, 107
3, 26136, Note_off_c, 1, 69, 64
3, 26160, Note_on_c, 1, 65, 107
3, 26256, Note_off_c, 1, 65, 64
3, 26280, Note_on_c, 1, 69, 107
3, 26376, Note_off_c, 1, 69, 64
3, 26400, Note_on_c, 1, 72, 107
3, 26496, Note_off_c, 1, 72, 64
3, 26520, Note_on_c, 1, 70, 107
3, 26568, Note_off_c, 1, 70, 64
3, 26580, Note_on_c, 1, 69, 107
3, 26628, Note_off_c, 1, 69, 64
3, 26640, Note_on_c, 1, 70, 107
3, 26736, Note_off_c, 1, 70, 64
3, 26760, Note_on_c, 1, 67, 107
3, 26856, Note_off_c, 1, 67, 64
3, 26880, Note_on_c, 1, 64, 107
3, 26976, Note_off_c, 1, 64, 64
3, 27000, Note_on_c, 1, 67, 107
3, 27096, Note_off_c, 1, 67, 64
3, 27120, Note_on_c, 1, 70, 107
3, 27216, Note_off_c, 1, 70, 64
3, 27240, Note_on_c, 1, 69, 107
3, 27288, Note_off_c, 1, 69, 64
3, 27300, Note_on_c, 1, 67, 107
3, 27348, Note_off_c, 1, 67, 64
3, 27360, Note_on_c, 1, 69, 107
3, 27408, Note_off_c, 1, 69, 64
3, 27420, Note_on_c, 1, 65, 107
3, 27468, Note_off_c, 1, 65, 64
3, 27480, Note_on_c, 1, 64, 107
3, 27528, Note_off_c, 1, 64, 64
3, 27540, Note_on_c, 1, 65, 107
3, 27588, Note_off_c, 1, 65, 64
3, 27600, Note_on_c, 1, 69, 107
3, 27648, Note_off_c, 1, 69, 64
3, 27660, Note_on_c, 1, 65, 107
3, 27708, Note_off_c, 1, 65, 64
3, 27720, Note_on_c, 1, 64, 107
3, 27768, Note_off_c, 1, 64, 64
3, 27780, Note_on_c, 1, 65, 107
3, 27828, Note_off_c, 1, 65, 64
3, 27840, Note_on_c, 1, 62, 107
3, 27888, Note_off_c, 1, 62, 64
3, 27900, Note_on_c, 1, 65, 107
3, 27948, Note_off_c, 1, 65, 64
3, 27960, Note_on_c, 1, 59, 107
3, 28008, Note_off_c, 1, 59, 64
3, 28020, Note_on_c, 1, 62, 107
3, 28068, Note_off_c, 1, 62, 64
3, 28080, Note_on_c, 1, 55, 107
3, 28128, Note_off_c, 1, 55, 64
3, 28140, Note_on_c, 1, 64, 107
3, 28188, Note_off_c, 1, 64, 64
3, 28200, Note_on_c, 1, 62, 107
3, 28248, Note_off_c, 1, 62, 64
3, 28260, Note_on_c, 1, 64, 107
3, 28308, Note_off_c, 1, 64, 64
3, 28320, Note_on_c, 1, 67, 107
3, 28368, Note_off_c, 1, 67, 64
3, 28380, Note_on_c, 1, 64, 107
3, 28428, Note_off_c, 1, 64, 64
3, 28440, Note_on_c, 1, 62, 107
3, 28488, Note_off_c, 1, 62, 64
3, 28500, Note_on_c, 1, 64, 107
3, 28548, Note_off_c, 1, 64, 64
3, 28560, Note_on_c, 1, 60, 107
3, 28608, Note_off_c, 1, 60, 64
3, 28620, Note_on_c, 1, 64, 107
3, 28668, Note_off_c, 1, 64, 64
3, 28680, Note_on_c, 1, 57, 107
3, 28728, Note_off_c, 1, 57, 64
3, 28740, Note_on_c, 1, 60, 107
3, 28788, Note_off_c, 1, 60, 64
3, 28800, Note_on_c, 1, 53, 107
3, 28848, Note_off_c, 1, 53, 64
3, 28860, Note_on_c, 1, 62, 107
3, 28908, Note_off_c, 1, 62, 64
3, 28920, Note_on_c, 1, 60, 107
3, 28968, Note_off_c, 1, 60, 64
3, 28980, Note_on_c, 1, 62, 107
3, 29028, Note_off_c, 1, 62, 64
3, 29040, Note_on_c, 1, 65, 107
3, 29088, Note_off_c, 1, 65, 64
3, 29100, Note_on_c, 1, 62, 107
3, 29148, Note_off_c, 1, 62, 64
3, 29160, Note_on_c, 1, 60, 107
3, 29208, Note_off_c, 1, 60, 64
3, 29220, Note_on_c, 1, 62, 107
3, 29268, Note_off_c, 1, 62, 64
3, 29280, Note_on_c, 1, 59, 107
3, 29328, Note_off_c, 1, 59, 64
3, 29340, Note_on_c, 1, 62, 107
3, 29388, Note_off_c, 1, 62, 64
3, 29400, Note_on_c, 1, 55, 107
3, 29448, Note_off_c, 1, 55, 64
3, 29460, Note_on_c, 1, 59, 107
3, 29508, Note_off_c, 1, 59, 64
3, 29520, Note_on_c, 1, 52, 107
3, 29568, Note_off_c, 1, 52, 64
3, 29580, Note_on_c, 1, 64, 107
3, 29628, Note_off_c, 1, 64, 64
3, 29640, Note_on_c, 1, 62, 107
3, 29688, Note_off_c, 1, 62, 64
3, 29700, Note_on_c, 1, 64, 107
3, 29748, Note_off_c, 1, 64, 64
3, 29760, Note_on_c, 1, 67, 107
3, 29808, Note_off_c, 1, 67, 64
3, 29820, Note_on_c, 1, 64, 107
3, 29868, Note_off_c, 1, 64, 64
3, 29880, Note_on_c, 1, 62, 107
3, 29928, Note_off_c, 1, 62, 64
3, 29940, Note_on_c, 1, 64, 107
3, 29988, Note_off_c, 1, 64, 64
3, 30000, Note_on_c, 1, 60, 107
3, 30048, Note_off_c, 1, 60, 64
3, 30060, Note_on_c, 1, 64, 107
3, 30108, Note_off_c, 1, 64, 64
3, 30120, Note_on_c, 1, 67, 107
3, 30288, Note_off_c, 1, 67, 64
3, 30300, Note_on_c, 1, 65, 107
3, 30348, Note_off_c, 1, 65, 64
3, 30360, Note_on_c, 1, 64, 107
3, 30408, Note_off_c, 1, 64, 64
3, 30420, Note_on_c, 1, 65, 107
3, 30468, Note_off_c, 1, 65, 64
3, 30480, Note_on_c, 1, 67, 107
3, 30528, Note_off_c, 1, 67, 64
3, 30540, Note_on_c, 1, 65, 107
3, 30588, Note_off_c, 1, 65, 64
3, 30600, Note_on_c, 1, 64, 107
3, 30648, Note_off_c, 1, 64, 64
3, 30660, Note_on_c, 1, 65, 107
3, 30708, Note_off_c, 1, 65, 64
3, 30720, Note_on_c, 1, 60, 107
3, 30768, Note_off_c, 1, 60, 64
3, 30780, Note_on_c, 1, 64, 107
3, 30828, Note_off_c, 1, 64, 64
3, 30840, Note_on_c, 1, 65, 107
3, 31008, Note_off_c, 1, 65, 64
3, 31020, Note_on_c, 1, 64, 107
3, 31068, Note_off_c, 1, 64, 64
3, 31080, Note_on_c, 1, 62, 107
3, 31128, Note_off_c, 1, 62, 64
3, 31140, Note_on_c, 1, 64, 107
3, 31188, Note_off_c, 1, 64, 64
3, 31200, Note_on_c, 1, 65, 107
3, 31248, Note_off_c, 1, 65, 64
3, 31260, Note_on_c, 1, 64, 107
3, 31308, Note_off_c, 1, 64, 64
3, 31320, Note_on_c, 1, 62, 107
3, 31368, Note_off_c, 1, 62, 64
3, 31380, Note_on_c, 1, 64, 107
3, 31428, Note_off_c, 1, 64, 64
3, 31440, Note_on_c, 1, 60, 107
3, 31488, Note_off_c, 1, 60, 64
3, 31500, Note_on_c, 1, 62, 107
3, 31548, Note_off_c, 1, 62, 64
3, 31560, Note_on_c, 1, 64, 107
3, 31728, Note_off_c, 1, 64, 64
3, 31740, Note_on_c, 1, 62, 107
3, 31788, Note_off_c, 1, 62, 64
3, 31800, Note_on_c, 1, 60, 107
3, 31848, Note_off_c, 1, 60, 64
3, 31860, Note_on_c, 1, 62, 107
3, 31908, Note_off_c, 1, 62, 64
3, 31920, Note_on_c, 1, 65, 107
3, 31968, Note_off_c, 1, 65, 64
3, 31980, Note_on_c, 1, 62, 107
3, 32028, Note_off_c, 1, 62, 64
3, 32040, Note_on_c, 1, 60, 107
3, 32088, Note_off_c, 1, 60, 64
3, 32100, Note_on_c, 1, 62, 107
3, 32148, Note_off_c, 1, 62, 64
3, 32160, Note_on_c, 1, 59, 107
3, 32256, Note_off_c, 1, 59, 64
3, 32280, Note_on_c, 1, 71, 107
3, 32376, Note_off_c, 1, 71, 64
3, 32400, Note_on_c, 1, 72, 107
3, 32448, Note_off_c, 1, 72, 64
3, 32460, Note_on_c, 1, 67, 107
3, 32508, Note_off_c, 1, 67, 64
3, 32520, Note_on_c, 1, 65, 107
3, 32568, Note_off_c, 1, 65, 64
3, 32580, Note_on_c, 1, 67, 107
3, 32628, Note_off_c, 1, 67, 64
3, 32640, Note_on_c, 1, 76, 107
3, 33168, Note_off_c, 1, 76, 64
3, 33180, Note_on_c, 1, 65, 107
3, 33228, Note_off_c, 1, 65, 64
3, 33240, Note_on_c, 1, 64, 107
3, 33288, Note_off_c, 1, 64, 64
3, 33300, Note_on_c, 1, 65, 107
3, 33348, Note_off_c, 1, 65, 64
3, 33360, Note_on_c, 1, 74, 107
3, 33888, Note_off_c, 1, 74, 64
3, 33900, Note_on_c, 1, 64, 107
3, 33948, Note_off_c, 1, 64, 64
3, 33960, Note_on_c, 1, 62, 107
3, 34008, Note_off_c, 1, 62, 64
3, 34020, Note_on_c, 1, 64, 107
3, 34068, Note_off_c, 1, 64, 64
3, 34080, Note_on_c, 1, 72, 107
3, 34608, Note_off_c, 1, 72, 64
3, 34620, Note_on_c, 1, 71, 107
3, 34668, Note_off_c, 1, 71, 64
3, 34680, Note_on_c, 1, 69, 107
3, 34728, Note_off_c, 1, 69, 64
3, 34740, Note_on_c, 1, 67, 107
3, 34788, Note_off_c, 1, 67, 64
3, 34800, Note_on_c, 1, 65, 107
3, 34848, Note_off_c, 1, 65, 64
3, 34860, Note_on_c, 1, 64, 107
3, 34908, Note_off_c, 1, 64, 64
3, 34920, Note_on_c, 1, 62, 107
3, 34968, Note_off_c, 1, 62, 64
3, 34980, Note_on_c, 1, 60, 107
3, 35028, Note_off_c, 1, 60, 64
3, 35040, Note_on_c, 1, 59, 107
3, 35088, Note_off_c, 1, 59, 64
3, 35100, Note_on_c, 1, 57, 107
3, 35148, Note_off_c, 1, 57, 64
3, 35160, Note_on_c, 1, 55, 107
3, 35208, Note_off_c, 1, 55, 64
3, 35220, Note_on_c, 1, 53, 107
3, 35268, Note_off_c, 1, 53, 64
3, 35280, Note_on_c, 1, 55, 107
3, 35376, Note_off_c, 1, 55, 64
3, 35400, Note_on_c, 1, 65, 107
3, 35496, Note_off_c, 1, 65, 64
3, 35520, Note_on_c, 1, 64, 107
3, 35616, Note_off_c, 1, 64, 64
3, 35640, Note_on_c, 1, 69, 107
3, 35688, Note_off_c, 1, 69, 64
3, 35700, Note_on_c, 1, 67, 107
3, 35748, Note_off_c, 1, 67, 64
3, 35760, Note_on_c, 1, 65, 107
3, 35808, Note_off_c, 1, 65, 64
3, 35820, Note_on_c, 1, 64, 107
3, 35868, Note_off_c, 1, 64, 64
3, 35880, Note_on_c, 1, 62, 107
3, 35928, Note_off_c, 1, 62, 64
3, 35940, Note_on_c, 1, 60, 107
3, 35988, Note_off_c, 1, 60, 64
3, 36000, Note_on_c, 1, 60, 107
3, 36192, Note_off_c, 1, 60, 64
3, 37500, Note_on_c, 1, 60, 107
3, 37548, Note_off_c, 1, 60, 64
3, 37560, Note_on_c, 1, 64, 107
3, 37608, Note_off_c, 1, 64, 64
3, 37620, Note_on_c, 1, 66, 107
3, 37668, Note_off_c, 1, 66, 64
3, 37680, Note_on_c, 1, 67, 107
3, 37728, Note_off_c, 1, 67, 64
3, 37740, Note_on_c, 1, 66, 107
3, 37788, Note_off_c, 1, 66, 64
3, 37800, Note_on_c, 1, 67, 107
3, 37848, Note_off_c, 1, 67, 64
3, 37860, Note_on_c, 1, 71, 107
3, 37908, Note_off_c, 1, 71, 64
3, 37920, Note_on_c, 1, 69, 107
3, 37968, Note_off_c, 1, 69, 64
3, 37980, Note_on_c, 1, 67, 107
3, 38028, Note_off_c, 1, 67, 64
3, 38040, Note_on_c, 1, 66, 107
3, 38088, Note_off_c, 1, 66, 64
3, 38100, Note_on_c, 1, 64, 107
3, 38148, Note_off_c, 1, 64, 64
3, 38160, Note_on_c, 1, 62, 107
3, 38208, Note_off_c, 1, 62, 64
3, 38220, Note_on_c, 1, 64, 107
3, 38268, Note_off_c, 1, 64, 64
3, 38280, Note_on_c, 1, 66, 107
3, 38328, Note_off_c, 1, 66, 64
3, 38340, Note_on_c, 1, 67, 107
3, 38388, Note_off_c, 1, 67, 64
3, 38400, Note_on_c, 1, 69, 107
3, 38448, Note_off_c, 1, 69, 64
3, 38460, Note_on_c, 1, 72, 107
3, 38508, Note_off_c, 1, 72, 64
3, 38520, Note_on_c, 1, 71, 107
3, 38568, Note_off_c, 1, 71, 64
3, 38580, Note_on_c, 1, 69, 107
3, 38628, Note_off_c, 1, 69, 64
3, 38640, Note_on_c, 1, 74, 107
3, 38688, Note_off_c, 1, 74, 64
3, 38700, Note_on_c, 1, 72, 107
3, 38748, Note_off_c, 1, 72, 64
3, 38760, Note_on_c, 1, 71, 107
3, 38808, Note_off_c, 1, 71, 64
3, 38820, Note_on_c, 1, 69, 107
3, 38868, Note_off_c, 1, 69, 64
3, 38880, Note_on_c, 1, 71, 107
3, 38928, Note_off_c, 1, 71, 64
3, 38940, Note_on_c, 1, 67, 107
3, 38988, Note_off_c, 1, 67, 64
3, 39000, Note_on_c, 1, 65, 107
3, 39048, Note_off_c, 1, 65, 64
3, 39060, Note_on_c, 1, 64, 107
3, 39108, Note_off_c, 1, 64, 64
3, 39120, Note_on_c, 1, 62, 107
3, 39168, Note_off_c, 1, 62, 64
3, 39180, Note_on_c, 1, 60, 107
3, 39228, Note_off_c, 1, 60, 64
3, 39240, Note_on_c, 1, 59, 107
3, 39288, Note_off_c, 1, 59, 64
3, 39300, Note_on_c, 1, 57, 107
3, 39348, Note_off_c, 1, 57, 64
3, 39360, Note_on_c, 1, 55, 107
3, 39792, Note_off_c, 1, 55, 64
3, 39960, Note_on_c, 1, 60, 107
3, 40056, Note_off_c, 1, 60, 64
3, 40080, Note_on_c, 1, 65, 107
3, 40128, Note_off_c, 1, 65, 64
3, 40140, Note_on_c, 1, 64, 107
3, 40188, Note_off_c, 1, 64, 64
3, 40200, Note_on_c, 1, 65, 107
3, 40248, Note_off_c, 1, 65, 64
3, 40260, Note_on_c, 1, 67, 107
3, 40308, Note_off_c, 1, 67, 64
3, 40320, Note_on_c, 1, 69, 107
3, 40368, Note_off_c, 1, 69, 64
3, 40380, Note_on_c, 1, 69, 107
3, 40380, Note_on_c, 1, 69, 107
3, 40428, Note_off_c, 1, 69, 64
3, 40428, Note_off_c, 1, 69, 64
3, 40440, Note_on_c, 1, 67, 107
3, 40488, Note_off_c, 1, 67, 64
3, 40500, Note_on_c, 1, 65, 107
3, 40548, Note_off_c, 1, 65, 64
3, 40560, Note_on_c, 1, 64, 107
3, 40608, Note_off_c, 1, 64, 64
3, 40620, Note_on_c, 1, 62, 107
3, 40668, Note_off_c, 1, 62, 64
3, 40680, Note_on_c, 1, 61, 107
3, 40728, Note_off_c, 1, 61, 64
3, 40740, Note_on_c, 1, 59, 107
3, 40788, Note_off_c, 1, 59, 64
3, 40800, Note_on_c, 1, 57, 107
3, 41232, Note_off_c, 1, 57, 64
3, 41400, Note_on_c, 1, 62, 107
3, 41496, Note_off_c, 1, 62, 64
3, 41520, Note_on_c, 1, 68, 107
3, 41568, Note_off_c, 1, 68, 64
3, 41580, Note_on_c, 1, 66, 107
3, 41628, Note_off_c, 1, 66, 64
3, 41640, Note_on_c, 1, 68, 107
3, 41688, Note_off_c, 1, 68, 64
3, 41700, Note_on_c, 1, 69, 107
3, 41748, Note_off_c, 1, 69, 64
3, 41760, Note_on_c, 1, 71, 107
3, 41856, Note_off_c, 1, 71, 64
3, 41880, Note_on_c, 1, 64, 107
3, 42072, Note_off_c, 1, 64, 64
3, 42120, Note_on_c, 1, 69, 107
3, 42336, Note_off_c, 1, 69, 64
3, 42360, Note_on_c, 1, 62, 107
3, 42456, Note_off_c, 1, 62, 64
3, 42480, Note_on_c, 1, 64, 107
3, 43968, Note_off_c, 1, 64, 64
3, 43980, Note_on_c, 1, 60, 107
3, 44028, Note_off_c, 1, 60, 64
3, 44040, Note_on_c, 1, 62, 107
3, 44088, Note_off_c, 1, 62, 64
3, 44100, Note_on_c, 1, 64, 107
3, 44148, Note_off_c, 1, 64, 64
3, 44160, Note_on_c, 1, 65, 107
3, 44208, Note_off_c, 1, 65, 64
3, 44220, Note_on_c, 1, 64, 107
3, 44268, Note_off_c, 1, 64, 64
3, 44280, Note_on_c, 1, 65, 107
3, 44328, Note_off_c, 1, 65, 64
3, 44340, Note_on_c, 1, 69, 107
3, 44388, Note_off_c, 1, 69, 64
3, 44400, Note_on_c, 1, 67, 107
3, 44448, Note_off_c, 1, 67, 64
3, 44460, Note_on_c, 1, 65, 107
3, 44508, Note_off_c, 1, 65, 64
3, 44520, Note_on_c, 1, 64, 107
3, 44568, Note_off_c, 1, 64, 64
3, 44580, Note_on_c, 1, 62, 107
3, 44628, Note_off_c, 1, 62, 64
3, 44640, Note_on_c, 1, 60, 107
3, 44688, Note_off_c, 1, 60, 64
3, 44700, Note_on_c, 1, 62, 107
3, 44748, Note_off_c, 1, 62, 64
3, 44760, Note_on_c, 1, 64, 107
3, 44808, Note_off_c, 1, 64, 64
3, 44820, Note_on_c, 1, 65, 107
3, 44868, Note_off_c, 1, 65, 64
3, 44880, Note_on_c, 1, 67, 107
3, 44928, Note_off_c, 1, 67, 64
3, 44940, Note_on_c, 1, 70, 107
3, 44988, Note_off_c, 1, 70, 64
3, 45000, Note_on_c, 1, 69, 107
3, 45048, Note_off_c, 1, 69, 64
3, 45060, Note_on_c, 1, 67, 107
3, 45108, Note_off_c, 1, 67, 64
3, 45120, Note_on_c, 1, 72, 107
3, 45168, Note_off_c, 1, 72, 64
3, 45180, Note_on_c, 1, 70, 107
3, 45228, Note_off_c, 1, 70, 64
3, 45240, Note_on_c, 1, 69, 107
3, 45288, Note_off_c, 1, 69, 64
3, 45300, Note_on_c, 1, 67, 107
3, 45348, Note_off_c, 1, 67, 64
3, 45360, Note_on_c, 1, 69, 107
3, 46848, Note_off_c, 1, 69, 64
3, 46860, Note_on_c, 1, 57, 107
3, 46908, Note_off_c, 1, 57, 64
3, 46920, Note_on_c, 1, 59, 107
3, 46968, Note_off_c, 1, 59, 64
3, 46980, Note_on_c, 1, 61, 107
3, 47028, Note_off_c, 1, 61, 64
3, 47040, Note_on_c, 1, 62, 107
3, 47088, Note_off_c, 1, 62, 64
3, 47100, Note_on_c, 1, 61, 107
3, 47148, Note_off_c, 1, 61, 64
3, 47160, Note_on_c, 1, 62, 107
3, 47208, Note_off_c, 1, 62, 64
3, 47220, Note_on_c, 1, 65, 107
3, 47268, Note_off_c, 1, 65, 64
3, 47280, Note_on_c, 1, 64, 107
3, 47328, Note_off_c, 1, 64, 64
3, 47340, Note_on_c, 1, 62, 107
3, 47388, Note_off_c, 1, 62, 64
3, 47400, Note_on_c, 1, 61, 107
3, 47448, Note_off_c, 1, 61, 64
3, 47460, Note_on_c, 1, 59, 107
3, 47508, Note_off_c, 1, 59, 64
3, 47520, Note_on_c, 1, 57, 107
3, 47568, Note_off_c, 1, 57, 64
3, 47580, Note_on_c, 1, 59, 107
3, 47628, Note_off_c, 1, 59, 64
3, 47640, Note_on_c, 1, 61, 107
3, 47688, Note_off_c, 1, 61, 64
3, 47700, Note_on_c, 1, 62, 107
3, 47748, Note_off_c, 1, 62, 64
3, 47760, Note_on_c, 1, 64, 107
3, 47808, Note_off_c, 1, 64, 64
3, 47820, Note_on_c, 1, 67, 107
3, 47868, Note_off_c, 1, 67, 64
3, 47880, Note_on_c, 1, 65, 107
3, 47928, Note_off_c, 1, 65, 64
3, 47940, Note_on_c, 1, 64, 107
3, 47988, Note_off_c, 1, 64, 64
3, 48000, Note_on_c, 1, 69, 107
3, 48048, Note_off_c, 1, 69, 64
3, 48060, Note_on_c, 1, 67, 107
3, 48108, Note_off_c, 1, 67, 64
3, 48120, Note_on_c, 1, 65, 107
3, 48168, Note_off_c, 1, 65, 64
3, 48180, Note_on_c, 1, 64, 107
3, 48228, Note_off_c, 1, 64, 64
3, 48240, Note_on_c, 1, 65, 107
3, 49008, Note_off_c, 1, 65, 64
3, 49020, Note_on_c, 1, 64, 107
3, 49068, Note_off_c, 1, 64, 64
3, 49080, Note_on_c, 1, 62, 107
3, 49128, Note_off_c, 1, 62, 64
3, 49140, Note_on_c, 1, 64, 107
3, 49188, Note_off_c, 1, 64, 64
3, 49200, Note_on_c, 1, 65, 107
3, 49248, Note_off_c, 1, 65, 64
3, 49260, Note_on_c, 1, 69, 107
3, 49308, Note_off_c, 1, 69, 64
3, 49320, Note_on_c, 1, 67, 107
3, 49368, Note_off_c, 1, 67, 64
3, 49380, Note_on_c, 1, 65, 107
3, 49428, Note_off_c, 1, 65, 64
3, 49440, Note_on_c, 1, 70, 107
3, 49488, Note_off_c, 1, 70, 64
3, 49500, Note_on_c, 1, 69, 107
3, 49548, Note_off_c, 1, 69, 64
3, 49560, Note_on_c, 1, 67, 107
3, 49608, Note_off_c, 1, 67, 64
3, 49620, Note_on_c, 1, 65, 107
3, 49668, Note_off_c, 1, 65, 64
3, 49680, Note_on_c, 1, 67, 107
3, 50448, Note_off_c, 1, 67, 64
3, 50460, Note_on_c, 1, 65, 107
3, 50508, Note_off_c, 1, 65, 64
3, 50520, Note_on_c, 1, 64, 107
3, 50568, Note_off_c, 1, 64, 64
3, 50580, Note_on_c, 1, 65, 107
3, 50628, Note_off_c, 1, 65, 64
3, 50640, Note_on_c, 1, 67, 107
3, 50688, Note_off_c, 1, 67, 64
3, 50700, Note_on_c, 1, 70, 107
3, 50748, Note_off_c, 1, 70, 64
3, 50760, Note_on_c, 1, 69, 107
3, 50808, Note_off_c, 1, 69, 64
3, 50820, Note_on_c, 1, 67, 107
3, 50868, Note_off_c, 1, 67, 64
3, 50880, Note_on_c, 1, 72, 107
3, 50928, Note_off_c, 1, 72, 64
3, 50940, Note_on_c, 1, 70, 107
3, 50988, Note_off_c, 1, 70, 64
3, 51000, Note_on_c, 1, 69, 107
3, 51048, Note_off_c, 1, 69, 64
3, 51060, Note_on_c, 1, 67, 107
3, 51108, Note_off_c, 1, 67, 64
3, 51120, Note_on_c, 1, 69, 107
3, 51312, Note_off_c, 1, 69, 64
3, 51960, Note_on_c, 1, 60, 107
3, 52056, Note_off_c, 1, 60, 64
3, 52080, Note_on_c, 1, 57, 107
3, 52176, Note_off_c, 1, 57, 64
3, 52200, Note_on_c, 1, 60, 107
3, 52296, Note_off_c, 1, 60, 64
3, 52320, Note_on_c, 1, 62, 107
3, 52416, Note_off_c, 1, 62, 64
3, 52440, Note_on_c, 1, 60, 107
3, 52488, Note_off_c, 1, 60, 64
3, 52500, Note_on_c, 1, 58, 107
3, 52548, Note_off_c, 1, 58, 64
3, 52560, Note_on_c, 1, 60, 107
3, 52608, Note_off_c, 1, 60, 64
3, 52620, Note_on_c, 1, 65, 107
3, 52668, Note_off_c, 1, 65, 64
3, 52680, Note_on_c, 1, 64, 107
3, 52728, Note_off_c, 1, 64, 64
3, 52740, Note_on_c, 1, 65, 107
3, 52788, Note_off_c, 1, 65, 64
3, 52800, Note_on_c, 1, 69, 107
3, 52848, Note_off_c, 1, 69, 64
3, 52860, Note_on_c, 1, 65, 107
3, 52908, Note_off_c, 1, 65, 64
3, 52920, Note_on_c, 1, 64, 107
3, 52968, Note_off_c, 1, 64, 64
3, 52980, Note_on_c, 1, 65, 107
3, 53028, Note_off_c, 1, 65, 64
3, 53040, Note_on_c, 1, 60, 107
3, 53088, Note_off_c, 1, 60, 64
3, 53100, Note_on_c, 1, 65, 107
3, 53148, Note_off_c, 1, 65, 64
3, 53160, Note_on_c, 1, 57, 107
3, 53208, Note_off_c, 1, 57, 64
3, 53220, Note_on_c, 1, 60, 107
3, 53268, Note_off_c, 1, 60, 64
3, 53280, Note_on_c, 1, 53, 107
3, 53376, Note_off_c, 1, 53, 64
3, 53400, Note_on_c, 1, 69, 107
3, 53496, Note_off_c, 1, 69, 64
3, 53520, Note_on_c, 1, 65, 107
3, 53616, Note_off_c, 1, 65, 64
3, 53640, Note_on_c, 1, 69, 107
3, 53736, Note_off_c, 1, 69, 64
3, 53760, Note_on_c, 1, 70, 107
3, 53856, Note_off_c, 1, 70, 64
3, 53880, Note_on_c, 1, 69, 107
3, 53928, Note_off_c, 1, 69, 64
3, 53940, Note_on_c, 1, 67, 107
3, 53988, Note_off_c, 1, 67, 64
3, 54000, Note_on_c, 1, 69, 107
3, 54048, Note_off_c, 1, 69, 64
3, 54060, Note_on_c, 1, 60, 107
3, 54108, Note_off_c, 1, 60, 64
3, 54120, Note_on_c, 1, 62, 107
3, 54168, Note_off_c, 1, 62, 64
3, 54180, Note_on_c, 1, 64, 107
3, 54228, Note_off_c, 1, 64, 64
3, 54240, Note_on_c, 1, 65, 107
3, 54288, Note_off_c, 1, 65, 64
3, 54300, Note_on_c, 1, 64, 107
3, 54348, Note_off_c, 1, 64, 64
3, 54360, Note_on_c, 1, 65, 107
3, 54408, Note_off_c, 1, 65, 64
3, 54420, Note_on_c, 1, 69, 107
3, 54468, Note_off_c, 1, 69, 64
3, 54480, Note_on_c, 1, 67, 107
3, 54528, Note_off_c, 1, 67, 64
3, 54540, Note_on_c, 1, 65, 107
3, 54588, Note_off_c, 1, 65, 64
3, 54600, Note_on_c, 1, 64, 107
3, 54648, Note_off_c, 1, 64, 64
3, 54660, Note_on_c, 1, 62, 107
3, 54708, Note_off_c, 1, 62, 64
3, 54720, Note_on_c, 1, 64, 107
3, 54816, Note_off_c, 1, 64, 64
3, 54840, Note_on_c, 1, 60, 107
3, 54888, Note_off_c, 1, 60, 64
3, 54900, Note_on_c, 1, 62, 107
3, 54948, Note_off_c, 1, 62, 64
3, 54960, Note_on_c, 1, 64, 107
3, 55056, Note_off_c, 1, 64, 64
3, 55080, Note_on_c, 1, 55, 107
3, 55176, Note_off_c, 1, 55, 64
3, 55200, Note_on_c, 1, 57, 107
3, 55296, Note_off_c, 1, 57, 64
3, 55320, Note_on_c, 1, 66, 107
3, 55416, Note_off_c, 1, 66, 64
3, 55440, Note_on_c, 1, 67, 107
3, 55488, Note_off_c, 1, 67, 64
3, 55500, Note_on_c, 1, 62, 107
3, 55548, Note_off_c, 1, 62, 64
3, 55560, Note_on_c, 1, 64, 107
3, 55608, Note_off_c, 1, 64, 64
3, 55620, Note_on_c, 1, 65, 107
3, 55668, Note_off_c, 1, 65, 64
3, 55680, Note_on_c, 1, 67, 107
3, 55728, Note_off_c, 1, 67, 64
3, 55740, Note_on_c, 1, 65, 107
3, 55788, Note_off_c, 1, 65, 64
3, 55800, Note_on_c, 1, 67, 107
3, 55848, Note_off_c, 1, 67, 64
3, 55860, Note_on_c, 1, 70, 107
3, 55908, Note_off_c, 1, 70, 64
3, 55920, Note_on_c, 1, 69, 107
3, 55968, Note_off_c, 1, 69, 64
3, 55980, Note_on_c, 1, 67, 107
3, 56028, Note_off_c, 1, 67, 64
3, 56040, Note_on_c, 1, 65, 107
3, 56088, Note_off_c, 1, 65, 64
3, 56100, Note_on_c, 1, 64, 107
3, 56148, Note_off_c, 1, 64, 64
3, 56160, Note_on_c, 1, 65, 107
3, 56256, Note_off_c, 1, 65, 64
3, 56280, Note_on_c, 1, 62, 107
3, 56328, Note_off_c, 1, 62, 64
3, 56340, Note_on_c, 1, 64, 107
3, 56388, Note_off_c, 1, 64, 64
3, 56400, Note_on_c, 1, 66, 107
3, 56496, Note_off_c, 1, 66, 64
3, 56520, Note_on_c, 1, 57, 107
3, 56616, Note_off_c, 1, 57, 64
3, 56640, Note_on_c, 1, 59, 107
3, 56736, Note_off_c, 1, 59, 64
3, 56760, Note_on_c, 1, 68, 107
3, 56856, Note_off_c, 1, 68, 64
3, 56940, Note_on_c, 1, 69, 107
3, 56988, Note_off_c, 1, 69, 64
3, 57000, Note_on_c, 1, 68, 107
3, 57048, Note_off_c, 1, 68, 64
3, 57060, Note_on_c, 1, 69, 107
3, 57108, Note_off_c, 1, 69, 64
3, 57120, Note_on_c, 1, 72, 107
3, 57168, Note_off_c, 1, 72, 64
3, 57180, Note_on_c, 1, 69, 107
3, 57228, Note_off_c, 1, 69, 64
3, 57240, Note_on_c, 1, 68, 107
3, 57288, Note_off_c, 1, 68, 64
3, 57300, Note_on_c, 1, 69, 107
3, 57348, Note_off_c, 1, 69, 64
3, 57360, Note_on_c, 1, 64, 107
3, 57408, Note_off_c, 1, 64, 64
3, 57420, Note_on_c, 1, 69, 107
3, 57468, Note_off_c, 1, 69, 64
3, 57480, Note_on_c, 1, 60, 107
3, 57528, Note_off_c, 1, 60, 64
3, 57540, Note_on_c, 1, 64, 107
3, 57588, Note_off_c, 1, 64, 64
3, 57600, Note_on_c, 1, 57, 107
3, 57696, Note_off_c, 1, 57, 64
3, 57720, Note_on_c, 1, 72, 107
3, 57816, Note_off_c, 1, 72, 64
3, 57840, Note_on_c, 1, 69, 107
3, 57936, Note_off_c, 1, 69, 64
3, 57960, Note_on_c, 1, 72, 107
3, 58056, Note_off_c, 1, 72, 64
3, 58080, Note_on_c, 1, 74, 107
3, 58176, Note_off_c, 1, 74, 64
3, 58200, Note_on_c, 1, 72, 107
3, 58248, Note_off_c, 1, 72, 64
3, 58260, Note_on_c, 1, 71, 107
3, 58308, Note_off_c, 1, 71, 64
3, 58320, Note_on_c, 1, 72, 107
3, 58512, Note_off_c, 1, 72, 64
3, 59160, Note_on_c, 1, 64, 107
3, 59256, Note_off_c, 1, 64, 64
3, 59280, Note_on_c, 1, 60, 107
3, 59376, Note_off_c, 1, 60, 64
3, 59400, Note_on_c, 1, 64, 107
3, 59496, Note_off_c, 1, 64, 64
3, 59520, Note_on_c, 1, 65, 107
3, 59616, Note_off_c, 1, 65, 64
3, 59640, Note_on_c, 1, 64, 107
3, 59688, Note_off_c, 1, 64, 64
3, 59700, Note_on_c, 1, 62, 107
3, 59748, Note_off_c, 1, 62, 64
3, 59760, Note_on_c, 1, 64, 107
3, 59808, Note_off_c, 1, 64, 64
3, 59820, Note_on_c, 1, 52, 107
3, 59868, Note_off_c, 1, 52, 64
3, 59880, Note_on_c, 1, 54, 107
3, 59928, Note_off_c, 1, 54, 64
3, 59940, Note_on_c, 1, 56, 107
3, 59988, Note_off_c, 1, 56, 64
3, 60000, Note_on_c, 1, 57, 107
3, 60048, Note_off_c, 1, 57, 64
3, 60060, Note_on_c, 1, 56, 107
3, 60108, Note_off_c, 1, 56, 64
3, 60120, Note_on_c, 1, 57, 107
3, 60168, Note_off_c, 1, 57, 64
3, 60180, Note_on_c, 1, 60, 107
3, 60228, Note_off_c, 1, 60, 64
3, 60240, Note_on_c, 1, 59, 107
3, 60288, Note_off_c, 1, 59, 64
3, 60300, Note_on_c, 1, 57, 107
3, 60348, Note_off_c, 1, 57, 64
3, 60360, Note_on_c, 1, 56, 107
3, 60408, Note_off_c, 1, 56, 64
3, 60420, Note_on_c, 1, 54, 107
3, 60468, Note_off_c, 1, 54, 64
3, 60480, Note_on_c, 1, 52, 107
3, 60528, Note_off_c, 1, 52, 64
3, 60540, Note_on_c, 1, 54, 107
3, 60588, Note_off_c, 1, 54, 64
3, 60600, Note_on_c, 1, 56, 107
3, 60648, Note_off_c, 1, 56, 64
3, 60660, Note_on_c, 1, 57, 107
3, 60708, Note_off_c, 1, 57, 64
3, 60720, Note_on_c, 1, 59, 107
3, 60768, Note_off_c, 1, 59, 64
3, 60780, Note_on_c, 1, 62, 107
3, 60828, Note_off_c, 1, 62, 64
3, 60840, Note_on_c, 1, 60, 107
3, 60888, Note_off_c, 1, 60, 64
3, 60900, Note_on_c, 1, 59, 107
3, 60948, Note_off_c, 1, 59, 64
3, 60960, Note_on_c, 1, 64, 107
3, 61008, Note_off_c, 1, 64, 64
3, 61020, Note_on_c, 1, 62, 107
3, 61068, Note_off_c, 1, 62, 64
3, 61080, Note_on_c, 1, 61, 107
3, 61128, Note_off_c, 1, 61, 64
3, 61140, Note_on_c, 1, 59, 107
3, 61188, Note_off_c, 1, 59, 64
3, 61200, Note_on_c, 1, 61, 107
3, 61296, Note_off_c, 1, 61, 64
3, 61320, Note_on_c, 1, 64, 107
3, 61416, Note_off_c, 1, 64, 64
3, 61440, Note_on_c, 1, 57, 107
3, 61536, Note_off_c, 1, 57, 64
3, 61560, Note_on_c, 1, 62, 107
3, 61656, Note_off_c, 1, 62, 64
3, 61680, Note_on_c, 1, 55, 107
3, 61776, Note_off_c, 1, 55, 64
3, 61800, Note_on_c, 1, 67, 107
3, 61968, Note_off_c, 1, 67, 64
3, 61980, Note_on_c, 1, 65, 107
3, 62028, Note_off_c, 1, 65, 64
3, 62040, Note_on_c, 1, 64, 107
3, 62088, Note_off_c, 1, 64, 64
3, 62100, Note_on_c, 1, 62, 107
3, 62148, Note_off_c, 1, 62, 64
3, 62160, Note_on_c, 1, 61, 107
3, 62208, Note_off_c, 1, 61, 64
3, 62220, Note_on_c, 1, 59, 107
3, 62268, Note_off_c, 1, 59, 64
3, 62280, Note_on_c, 1, 57, 107
3, 62328, Note_off_c, 1, 57, 64
3, 62340, Note_on_c, 1, 55, 107
3, 62388, Note_off_c, 1, 55, 64
3, 62400, Note_on_c, 1, 53, 107
3, 62448, Note_off_c, 1, 53, 64
3, 62460, Note_on_c, 1, 52, 107
3, 62508, Note_off_c, 1, 52, 64
3, 62520, Note_on_c, 1, 50, 107
3, 62568, Note_off_c, 1, 50, 64
3, 62580, Note_on_c, 1, 49, 107
3, 62628, Note_off_c, 1, 49, 64
3, 62640, Note_on_c, 1, 50, 107
3, 62832, Note_off_c, 1, 50, 64
3, 63000, Note_on_c, 1, 62, 107
3, 63096, Note_off_c, 1, 62, 64
3, 63120, Note_on_c, 1, 67, 107
3, 63168, Note_off_c, 1, 67, 64
3, 63180, Note_on_c, 1, 66, 107
3, 63228, Note_off_c, 1, 66, 64
3, 63240, Note_on_c, 1, 67, 107
3, 63288, Note_off_c, 1, 67, 64
3, 63300, Note_on_c, 1, 69, 107
3, 63348, Note_off_c, 1, 69, 64
3, 63360, Note_on_c, 1, 71, 107
3, 63408, Note_off_c, 1, 71, 64
3, 63420, Note_on_c, 1, 67, 107
3, 63468, Note_off_c, 1, 67, 64
3, 63480, Note_on_c, 1, 66, 107
3, 63528, Note_off_c, 1, 66, 64
3, 63540, Note_on_c, 1, 64, 107
3, 63588, Note_off_c, 1, 64, 64
3, 63600, Note_on_c, 1, 62, 107
3, 63648, Note_off_c, 1, 62, 64
3, 63660, Note_on_c, 1, 60, 107
3, 63708, Note_off_c, 1, 60, 64
3, 63720, Note_on_c, 1, 59, 107
3, 63768, Note_off_c, 1, 59, 64
3, 63780, Note_on_c, 1, 57, 107
3, 63828, Note_off_c, 1, 57, 64
3, 63840, Note_on_c, 1, 55, 107
3, 64272, Note_off_c, 1, 55, 64
3, 64440, Note_on_c, 1, 64, 107
3, 64536, Note_off_c, 1, 64, 64
3, 64560, Note_on_c, 1, 69, 107
3, 64608, Note_off_c, 1, 69, 64
3, 64620, Note_on_c, 1, 68, 107
3, 64668, Note_off_c, 1, 68, 64
3, 64680, Note_on_c, 1, 69, 107
3, 64728, Note_off_c, 1, 69, 64
3, 64740, Note_on_c, 1, 71, 107
3, 64788, Note_off_c, 1, 71, 64
3, 64800, Note_on_c, 1, 72, 107
3, 64848, Note_off_c, 1, 72, 64
3, 64860, Note_on_c, 1, 69, 107
3, 64908, Note_off_c, 1, 69, 64
3, 64920, Note_on_c, 1, 67, 107
3, 64968, Note_off_c, 1, 67, 64
3, 64980, Note_on_c, 1, 65, 107
3, 65028, Note_off_c, 1, 65, 64
3, 65040, Note_on_c, 1, 64, 107
3, 65088, Note_off_c, 1, 64, 64
3, 65100, Note_on_c, 1, 62, 107
3, 65148, Note_off_c, 1, 62, 64
3, 65160, Note_on_c, 1, 60, 107
3, 65208, Note_off_c, 1, 60, 64
3, 65220, Note_on_c, 1, 59, 107
3, 65268, Note_off_c, 1, 59, 64
3, 65280, Note_on_c, 1, 57, 107
3, 65568, Note_off_c, 1, 57, 64
3, 65580, Note_on_c, 1, 66, 107
3, 65628, Note_off_c, 1, 66, 64
3, 65640, Note_on_c, 1, 57, 107
3, 65688, Note_off_c, 1, 57, 64
3, 65700, Note_on_c, 1, 66, 107
3, 65748, Note_off_c, 1, 66, 64
3, 65760, Note_on_c, 1, 55, 107
3, 65808, Note_off_c, 1, 55, 64
3, 65820, Note_on_c, 1, 64, 107
3, 65868, Note_off_c, 1, 64, 64
3, 65880, Note_on_c, 1, 55, 107
3, 65928, Note_off_c, 1, 55, 64
3, 65940, Note_on_c, 1, 64, 107
3, 65988, Note_off_c, 1, 64, 64
3, 66000, Note_on_c, 1, 54, 107
3, 66048, Note_off_c, 1, 54, 64
3, 66060, Note_on_c, 1, 64, 107
3, 66108, Note_off_c, 1, 64, 64
3, 66120, Note_on_c, 1, 52, 107
3, 66168, Note_off_c, 1, 52, 64
3, 66180, Note_on_c, 1, 64, 107
3, 66228, Note_off_c, 1, 64, 64
3, 66240, Note_on_c, 1, 63, 107
3, 66288, Note_off_c, 1, 63, 64
3, 66300, Note_on_c, 1, 59, 107
3, 66348, Note_off_c, 1, 59, 64
3, 66360, Note_on_c, 1, 61, 107
3, 66408, Note_off_c, 1, 61, 64
3, 66420, Note_on_c, 1, 63, 107
3, 66468, Note_off_c, 1, 63, 64
3, 66480, Note_on_c, 1, 64, 107
3, 66528, Note_off_c, 1, 64, 64
3, 66540, Note_on_c, 1, 63, 107
3, 66588, Note_off_c, 1, 63, 64
3, 66600, Note_on_c, 1, 64, 107
3, 66648, Note_off_c, 1, 64, 64
3, 66660, Note_on_c, 1, 67, 107
3, 66708, Note_off_c, 1, 67, 64
3, 66720, Note_on_c, 1, 66, 107
3, 66768, Note_off_c, 1, 66, 64
3, 66780, Note_on_c, 1, 64, 107
3, 66828, Note_off_c, 1, 64, 64
3, 66840, Note_on_c, 1, 63, 107
3, 66888, Note_off_c, 1, 63, 64
3, 66900, Note_on_c, 1, 61, 107
3, 66948, Note_off_c, 1, 61, 64
3, 66960, Note_on_c, 1, 59, 107
3, 67008, Note_off_c, 1, 59, 64
3, 67020, Note_on_c, 1, 61, 107
3, 67068, Note_off_c, 1, 61, 64
3, 67080, Note_on_c, 1, 62, 107
3, 67128, Note_off_c, 1, 62, 64
3, 67140, Note_on_c, 1, 64, 107
3, 67188, Note_off_c, 1, 64, 64
3, 67200, Note_on_c, 1, 66, 107
3, 67248, Note_off_c, 1, 66, 64
3, 67260, Note_on_c, 1, 69, 107
3, 67308, Note_off_c, 1, 69, 64
3, 67320, Note_on_c, 1, 67, 107
3, 67368, Note_off_c, 1, 67, 64
3, 67380, Note_on_c, 1, 66, 107
3, 67428, Note_off_c, 1, 66, 64
3, 67440, Note_on_c, 1, 71, 107
3, 67488, Note_off_c, 1, 71, 64
3, 67500, Note_on_c, 1, 69, 107
3, 67548, Note_off_c, 1, 69, 64
3, 67560, Note_on_c, 1, 67, 107
3, 67608, Note_off_c, 1, 67, 64
3, 67620, Note_on_c, 1, 66, 107
3, 67668, Note_off_c, 1, 66, 64
3, 67680, Note_on_c, 1, 67, 107
3, 69168, Note_off_c, 1, 67, 64
3, 69180, Note_on_c, 1, 64, 107
3, 69228, Note_off_c, 1, 64, 64
3, 69240, Note_on_c, 1, 66, 107
3, 69288, Note_off_c, 1, 66, 64
3, 69300, Note_on_c, 1, 68, 107
3, 69348, Note_off_c, 1, 68, 64
3, 69360, Note_on_c, 1, 69, 107
3, 69408, Note_off_c, 1, 69, 64
3, 69420, Note_on_c, 1, 68, 107
3, 69468, Note_off_c, 1, 68, 64
3, 69480, Note_on_c, 1, 69, 107
3, 69528, Note_off_c, 1, 69, 64
3, 69540, Note_on_c, 1, 72, 107
3, 69588, Note_off_c, 1, 72, 64
3, 69600, Note_on_c, 1, 71, 107
3, 69648, Note_off_c, 1, 71, 64
3, 69660, Note_on_c, 1, 69, 107
3, 69708, Note_off_c, 1, 69, 64
3, 69720, Note_on_c, 1, 68, 107
3, 69768, Note_off_c, 1, 68, 64
3, 69780, Note_on_c, 1, 66, 107
3, 69828, Note_off_c, 1, 66, 64
3, 69840, Note_on_c, 1, 64, 107
3, 69888, Note_off_c, 1, 64, 64
3, 69900, Note_on_c, 1, 66, 107
3, 69948, Note_off_c, 1, 66, 64
3, 69960, Note_on_c, 1, 67, 107
3, 70008, Note_off_c, 1, 67, 64
3, 70020, Note_on_c, 1, 69, 107
3, 70068, Note_off_c, 1, 69, 64
3, 70080, Note_on_c, 1, 71, 107
3, 70128, Note_off_c, 1, 71, 64
3, 70140, Note_on_c, 1, 74, 107
3, 70188, Note_off_c, 1, 74, 64
3, 70200, Note_on_c, 1, 72, 107
3, 70248, Note_off_c, 1, 72, 64
3, 70260, Note_on_c, 1, 71, 107
3, 70308, Note_off_c, 1, 71, 64
3, 70320, Note_on_c, 1, 76, 107
3, 70368, Note_off_c, 1, 76, 64
3, 70380, Note_on_c, 1, 74, 107
3, 70428, Note_off_c, 1, 74, 64
3, 70440, Note_on_c, 1, 72, 107
3, 70488, Note_off_c, 1, 72, 64
3, 70500, Note_on_c, 1, 71, 107
3, 70548, Note_off_c, 1, 71, 64
3, 70560, Note_on_c, 1, 72, 107
3, 70608, Note_off_c, 1, 72, 64
3, 70620, Note_on_c, 1, 71, 107
3, 70668, Note_off_c, 1, 71, 64
3, 70680, Note_on_c, 1, 69, 107
3, 70728, Note_off_c, 1, 69, 64
3, 70740, Note_on_c, 1, 71, 107
3, 70788, Note_off_c, 1, 71, 64
3, 70800, Note_on_c, 1, 72, 107
3, 70848, Note_off_c, 1, 72, 64
3, 70860, Note_on_c, 1, 71, 107
3, 70908, Note_off_c, 1, 71, 64
3, 70920, Note_on_c, 1, 72, 107
3, 70968, Note_off_c, 1, 72, 64
3, 70980, Note_on_c, 1, 76, 107
3, 71028, Note_off_c, 1, 76, 64
3, 71040, Note_on_c, 1, 74, 107
3, 71088, Note_off_c, 1, 74, 64
3, 71100, Note_on_c, 1, 72, 107
3, 71148, Note_off_c, 1, 72, 64
3, 71160, Note_on_c, 1, 71, 107
3, 71208, Note_off_c, 1, 71, 64
3, 71220, Note_on_c, 1, 69, 107
3, 71268, Note_off_c, 1, 69, 64
3, 71280, Note_on_c, 1, 71, 107
3, 71376, Note_off_c, 1, 71, 64
3, 71400, Note_on_c, 1, 64, 107
3, 71496, Note_off_c, 1, 64, 64
3, 72060, Note_on_c, 1, 69, 107
3, 72108, Note_off_c, 1, 69, 64
3, 72120, Note_on_c, 1, 68, 107
3, 72168, Note_off_c, 1, 68, 64
3, 72180, Note_on_c, 1, 69, 107
3, 72228, Note_off_c, 1, 69, 64
3, 72240, Note_on_c, 1, 72, 107
3, 72288, Note_off_c, 1, 72, 64
3, 72300, Note_on_c, 1, 69, 107
3, 72348, Note_off_c, 1, 69, 64
3, 72360, Note_on_c, 1, 68, 107
3, 72408, Note_off_c, 1, 68, 64
3, 72420, Note_on_c, 1, 69, 107
3, 72468, Note_off_c, 1, 69, 64
3, 72480, Note_on_c, 1, 64, 107
3, 72528, Note_off_c, 1, 64, 64
3, 72540, Note_on_c, 1, 69, 107
3, 72588, Note_off_c, 1, 69, 64
3, 72600, Note_on_c, 1, 60, 107
3, 72648, Note_off_c, 1, 60, 64
3, 72660, Note_on_c, 1, 64, 107
3, 72708, Note_off_c, 1, 64, 64
3, 72720, Note_on_c, 1, 57, 107
3, 72816, Note_off_c, 1, 57, 64
3, 73500, Note_on_c, 1, 67, 107
3, 73548, Note_off_c, 1, 67, 64
3, 73560, Note_on_c, 1, 66, 107
3, 73608, Note_off_c, 1, 66, 64
3, 73620, Note_on_c, 1, 67, 107
3, 73668, Note_off_c, 1, 67, 64
3, 73680, Note_on_c, 1, 71, 107
3, 73728, Note_off_c, 1, 71, 64
3, 73740, Note_on_c, 1, 67, 107
3, 73788, Note_off_c, 1, 67, 64
3, 73800, Note_on_c, 1, 66, 107
3, 73848, Note_off_c, 1, 66, 64
3, 73860, Note_on_c, 1, 67, 107
3, 73908, Note_off_c, 1, 67, 64
3, 73920, Note_on_c, 1, 62, 107
3, 73968, Note_off_c, 1, 62, 64
3, 73980, Note_on_c, 1, 67, 107
3, 74028, Note_off_c, 1, 67, 64
3, 74040, Note_on_c, 1, 59, 107
3, 74088, Note_off_c, 1, 59, 64
3, 74100, Note_on_c, 1, 62, 107
3, 74148, Note_off_c, 1, 62, 64
3, 74160, Note_on_c, 1, 55, 107
3, 74256, Note_off_c, 1, 55, 64
3, 75720, Note_on_c, 1, 64, 107
3, 75816, Note_off_c, 1, 64, 64
3, 75840, Note_on_c, 1, 60, 107
3, 75936, Note_off_c, 1, 60, 64
3, 75960, Note_on_c, 1, 64, 107
3, 76056, Note_off_c, 1, 64, 64
3, 76080, Note_on_c, 1, 65, 107
3, 76176, Note_off_c, 1, 65, 64
3, 76200, Note_on_c, 1, 64, 107
3, 76248, Note_off_c, 1, 64, 64
3, 76260, Note_on_c, 1, 62, 107
3, 76308, Note_off_c, 1, 62, 64
3, 76320, Note_on_c, 1, 64, 107
3, 76368, Note_off_c, 1, 64, 64
3, 76380, Note_on_c, 1, 60, 107
3, 76428, Note_off_c, 1, 60, 64
3, 76440, Note_on_c, 1, 59, 107
3, 76488, Note_off_c, 1, 59, 64
3, 76500, Note_on_c, 1, 60, 107
3, 76548, Note_off_c, 1, 60, 64
3, 76560, Note_on_c, 1, 64, 107
3, 76608, Note_off_c, 1, 64, 64
3, 76620, Note_on_c, 1, 60, 107
3, 76668, Note_off_c, 1, 60, 64
3, 76680, Note_on_c, 1, 59, 107
3, 76728, Note_off_c, 1, 59, 64
3, 76740, Note_on_c, 1, 60, 107
3, 76788, Note_off_c, 1, 60, 64
3, 76800, Note_on_c, 1, 55, 107
3, 76848, Note_off_c, 1, 55, 64
3, 76860, Note_on_c, 1, 60, 107
3, 76908, Note_off_c, 1, 60, 64
3, 76920, Note_on_c, 1, 52, 107
3, 76968, Note_off_c, 1, 52, 64
3, 76980, Note_on_c, 1, 55, 107
3, 77028, Note_off_c, 1, 55, 64
3, 77040, Note_on_c, 1, 48, 107
3, 77136, Note_off_c, 1, 48, 64
3, 77160, Note_on_c, 1, 67, 107
3, 77256, Note_off_c, 1, 67, 64
3, 77280, Note_on_c, 1, 64, 107
3, 77376, Note_off_c, 1, 64, 64
3, 77400, Note_on_c, 1, 67, 107
3, 77496, Note_off_c, 1, 67, 64
3, 77520, Note_on_c, 1, 69, 107
3, 77616, Note_off_c, 1, 69, 64
3, 77640, Note_on_c, 1, 67, 107
3, 77688, Note_off_c, 1, 67, 64
3, 77700, Note_on_c, 1, 65, 107
3, 77748, Note_off_c, 1, 65, 64
3, 77760, Note_on_c, 1, 67, 107
3, 77808, Note_off_c, 1, 67, 64
3, 77820, Note_on_c, 1, 64, 107
3, 77868, Note_off_c, 1, 64, 64
3, 77880, Note_on_c, 1, 60, 107
3, 77928, Note_off_c, 1, 60, 64
3, 77940, Note_on_c, 1, 64, 107
3, 77988, Note_off_c, 1, 64, 64
3, 78000, Note_on_c, 1, 69, 107
3, 78048, Note_off_c, 1, 69, 64
3, 78060, Note_on_c, 1, 64, 107
3, 78108, Note_off_c, 1, 64, 64
3, 78120, Note_on_c, 1, 60, 107
3, 78168, Note_off_c, 1, 60, 64
3, 78180, Note_on_c, 1, 64, 107
3, 78228, Note_off_c, 1, 64, 64
3, 78240, Note_on_c, 1, 72, 107
3, 78528, Note_off_c, 1, 72, 64
3, 78540, Note_on_c, 1, 65, 107
3, 78588, Note_off_c, 1, 65, 64
3, 78600, Note_on_c, 1, 62, 107
3, 78648, Note_off_c, 1, 62, 64
3, 78660, Note_on_c, 1, 65, 107
3, 78708, Note_off_c, 1, 65, 64
3, 78720, Note_on_c, 1, 71, 107
3, 78768, Note_off_c, 1, 71, 64
3, 78780, Note_on_c, 1, 65, 107
3, 78828, Note_off_c, 1, 65, 64
3, 78840, Note_on_c, 1, 62, 107
3, 78888, Note_off_c, 1, 62, 64
3, 78900, Note_on_c, 1, 65, 107
3, 78948, Note_off_c, 1, 65, 64
3, 78960, Note_on_c, 1, 74, 107
3, 79248, Note_off_c, 1, 74, 64
3, 79260, Note_on_c, 1, 67, 107
3, 79308, Note_off_c, 1, 67, 64
3, 79320, Note_on_c, 1, 64, 107
3, 79368, Note_off_c, 1, 64, 64
3, 79380, Note_on_c, 1, 67, 107
3, 79428, Note_off_c, 1, 67, 64
3, 79440, Note_on_c, 1, 72, 107
3, 79488, Note_off_c, 1, 72, 64
3, 79500, Note_on_c, 1, 67, 107
3, 79548, Note_off_c, 1, 67, 64
3, 79560, Note_on_c, 1, 64, 107
3, 79608, Note_off_c, 1, 64, 64
3, 79620, Note_on_c, 1, 67, 107
3, 79668, Note_off_c, 1, 67, 64
3, 79680, Note_on_c, 1, 76, 107
3, 80016, Note_off_c, 1, 76, 64
3, 80040, Note_on_c, 1, 74, 107
3, 80088, Note_off_c, 1, 74, 64
3, 80100, Note_on_c, 1, 72, 107
3, 80148, Note_off_c, 1, 72, 64
3, 80160, Note_on_c, 1, 74, 107
3, 80256, Note_off_c, 1, 74, 64
3, 80280, Note_on_c, 1, 69, 107
3, 80376, Note_off_c, 1, 69, 64
3, 80400, Note_on_c, 1, 77, 107
3, 80736, Note_off_c, 1, 77, 64
3, 80760, Note_on_c, 1, 74, 107
3, 80856, Note_off_c, 1, 74, 64
3, 80880, Note_on_c, 1, 71, 107
3, 80976, Note_off_c, 1, 71, 64
3, 81000, Note_on_c, 1, 74, 107
3, 81096, Note_off_c, 1, 74, 64
3, 81120, Note_on_c, 1, 67, 107
3, 81216, Note_off_c, 1, 67, 64
3, 81240, Note_on_c, 1, 71, 107
3, 81336, Note_off_c, 1, 71, 64
3, 81360, Note_on_c, 1, 72, 110
3, 81408, Note_off_c, 1, 72, 64
3, 81420, Note_on_c, 1, 74, 110
3, 81468, Note_off_c, 1, 74, 64
3, 81480, Note_on_c, 1, 75, 110
3, 81528, Note_off_c, 1, 75, 64
3, 81540, Note_on_c, 1, 77, 110
3, 81588, Note_off_c, 1, 77, 64
3, 81600, Note_on_c, 1, 75, 110
3, 81648, Note_off_c, 1, 75, 64
3, 81660, Note_on_c, 1, 74, 110
3, 81708, Note_off_c, 1, 74, 64
3, 81720, Note_on_c, 1, 72, 110
3, 81768, Note_off_c, 1, 72, 64
3, 81780, Note_on_c, 1, 70, 110
3, 81828, Note_off_c, 1, 70, 64
3, 81840, Note_on_c, 1, 69, 110
3, 81888, Note_off_c, 1, 69, 64
3, 81900, Note_on_c, 1, 67, 110
3, 81948, Note_off_c, 1, 67, 64
3, 81960, Note_on_c, 1, 66, 110
3, 82008, Note_off_c, 1, 66, 64
3, 82020, Note_on_c, 1, 64, 110
3, 82068, Note_off_c, 1, 64, 64
3, 82080, Note_on_c, 1, 66, 110
3, 82176, Note_off_c, 1, 66, 64
3, 82200, Note_on_c, 1, 60, 110
3, 82296, Note_off_c, 1, 60, 64
3, 82320, Note_on_c, 1, 69, 110
3, 82416, Note_off_c, 1, 69, 64
3, 82440, Note_on_c, 1, 66, 110
3, 82536, Note_off_c, 1, 66, 64
3, 82560, Note_on_c, 1, 72, 110
3, 82848, Note_off_c, 1, 72, 64
3, 82860, Note_on_c, 1, 71, 110
3, 82908, Note_off_c, 1, 71, 64
3, 82920, Note_on_c, 1, 69, 110
3, 82968, Note_off_c, 1, 69, 64
3, 82980, Note_on_c, 1, 71, 110
3, 83028, Note_off_c, 1, 71, 64
3, 83040, Note_on_c, 1, 67, 110
3, 83088, Note_off_c, 1, 67, 64
3, 83100, Note_on_c, 1, 76, 110
3, 83148, Note_off_c, 1, 76, 64
3, 83160, Note_on_c, 1, 74, 110
3, 83208, Note_off_c, 1, 74, 64
3, 83220, Note_on_c, 1, 72, 110
3, 83268, Note_off_c, 1, 72, 64
3, 83280, Note_on_c, 1, 71, 110
3, 83328, Note_off_c, 1, 71, 64
3, 83340, Note_on_c, 1, 69, 110
3, 83388, Note_off_c, 1, 69, 64
3, 83400, Note_on_c, 1, 67, 110
3, 83448, Note_off_c, 1, 67, 64
3, 83460, Note_on_c, 1, 66, 110
3, 83508, Note_off_c, 1, 66, 64
3, 83520, Note_on_c, 1, 64, 110
3, 83568, Note_off_c, 1, 64, 64
3, 83580, Note_on_c, 1, 66, 110
3, 83628, Note_off_c, 1, 66, 64
3, 83640, Note_on_c, 1, 62, 110
3, 83688, Note_off_c, 1, 62, 64
3, 83700, Note_on_c, 1, 64, 110
3, 83748, Note_off_c, 1, 64, 64
3, 83760, Note_on_c, 1, 60, 110
3, 83808, Note_off_c, 1, 60, 64
3, 83820, Note_on_c, 1, 74, 110
3, 83868, Note_off_c, 1, 74, 64
3, 83880, Note_on_c, 1, 72, 110
3, 83928, Note_off_c, 1, 72, 64
3, 83940, Note_on_c, 1, 71, 110
3, 83988, Note_off_c, 1, 71, 64
3, 84000, Note_on_c, 1, 69, 110
3, 84048, Note_off_c, 1, 69, 64
3, 84060, Note_on_c, 1, 67, 110
3, 84108, Note_off_c, 1, 67, 64
3, 84120, Note_on_c, 1, 66, 110
3, 84168, Note_off_c, 1, 66, 64
3, 84180, Note_on_c, 1, 64, 110
3, 84228, Note_off_c, 1, 64, 64
3, 84240, Note_on_c, 1, 62, 110
3, 84288, Note_off_c, 1, 62, 64
3, 84300, Note_on_c, 1, 64, 110
3, 84348, Note_off_c, 1, 64, 64
3, 84360, Note_on_c, 1, 60, 110
3, 84408, Note_off_c, 1, 60, 64
3, 84420, Note_on_c, 1, 62, 110
3, 84468, Note_off_c, 1, 62, 64
3, 84480, Note_on_c, 1, 59, 110
3, 84528, Note_off_c, 1, 59, 64
3, 84540, Note_on_c, 1, 72, 110
3, 84588, Note_off_c, 1, 72, 64
3, 84600, Note_on_c, 1, 71, 110
3, 84648, Note_off_c, 1, 71, 64
3, 84660, Note_on_c, 1, 69, 110
3, 84708, Note_off_c, 1, 69, 64
3, 84720, Note_on_c, 1, 67, 110
3, 84768, Note_off_c, 1, 67, 64
3, 84780, Note_on_c, 1, 66, 110
3, 84828, Note_off_c, 1, 66, 64
3, 84840, Note_on_c, 1, 64, 110
3, 84888, Note_off_c, 1, 64, 64
3, 84900, Note_on_c, 1, 62, 110
3, 84948, Note_off_c, 1, 62, 64
3, 84960, Note_on_c, 1, 60, 110
3, 85056, Note_off_c, 1, 60, 64
3, 85080, Note_on_c, 1, 64, 110
3, 85272, Note_off_c, 1, 64, 64
3, 85320, Note_on_c, 1, 69, 110
3, 85512, Note_off_c, 1, 69, 64
3, 85560, Note_on_c, 1, 72, 110
3, 85728, Note_off_c, 1, 72, 64
3, 85740, Note_on_c, 1, 67, 110
3, 85788, Note_off_c, 1, 67, 64
3, 85800, Note_on_c, 1, 69, 110
3, 85848, Note_off_c, 1, 69, 64
3, 85860, Note_on_c, 1, 66, 110
3, 85908, Note_off_c, 1, 66, 64
3, 85920, Note_on_c, 1, 67, 110
3, 86016, Note_off_c, 1, 67, 64
3, 86040, Note_on_c, 1, 69, 110
3, 86136, Note_off_c, 1, 69, 64
3, 86160, Note_on_c, 1, 62, 110
3, 86256, Note_off_c, 1, 62, 64
3, 86280, Note_on_c, 1, 66, 110
3, 86376, Note_off_c, 1, 66, 64
3, 86460, Note_on_c, 1, 67, 110
3, 86508, Note_off_c, 1, 67, 64
3, 86520, Note_on_c, 1, 66, 110
3, 86568, Note_off_c, 1, 66, 64
3, 86580, Note_on_c, 1, 67, 110
3, 86628, Note_off_c, 1, 67, 64
3, 86640, Note_on_c, 1, 71, 110
3, 86688, Note_off_c, 1, 71, 64
3, 86700, Note_on_c, 1, 67, 110
3, 86748, Note_off_c, 1, 67, 64
3, 86760, Note_on_c, 1, 66, 110
3, 86808, Note_off_c, 1, 66, 64
3, 86820, Note_on_c, 1, 67, 110
3, 86868, Note_off_c, 1, 67, 64
3, 86880, Note_on_c, 1, 62, 110
3, 86928, Note_off_c, 1, 62, 64
3, 86940, Note_on_c, 1, 67, 110
3, 86988, Note_off_c, 1, 67, 64
3, 87000, Note_on_c, 1, 59, 110
3, 87048, Note_off_c, 1, 59, 64
3, 87060, Note_on_c, 1, 62, 110
3, 87108, Note_off_c, 1, 62, 64
3, 87120, Note_on_c, 1, 55, 110
3, 87216, Note_off_c, 1, 55, 64
3, 87240, Note_on_c, 1, 74, 110
3, 87336, Note_off_c, 1, 74, 64
3, 87360, Note_on_c, 1, 71, 110
3, 87456, Note_off_c, 1, 71, 64
3, 87480, Note_on_c, 1, 74, 110
3, 87576, Note_off_c, 1, 74, 64
3, 87600, Note_on_c, 1, 76, 110
3, 87696, Note_off_c, 1, 76, 64
3, 87720, Note_on_c, 1, 74, 110
3, 87768, Note_off_c, 1, 74, 64
3, 87780, Note_on_c, 1, 72, 110
3, 87828, Note_off_c, 1, 72, 64
3, 87840, Note_on_c, 1, 74, 110
3, 88032, Note_off_c, 1, 74, 64
3, 88680, Note_on_c, 1, 59, 110
3, 88776, Note_off_c, 1, 59, 64
3, 88800, Note_on_c, 1, 55, 110
3, 88896, Note_off_c, 1, 55, 64
3, 88920, Note_on_c, 1, 59, 110
3, 89016, Note_off_c, 1, 59, 64
3, 89040, Note_on_c, 1, 60, 110
3, 89136, Note_off_c, 1, 60, 64
3, 89160, Note_on_c, 1, 59, 110
3, 89208, Note_off_c, 1, 59, 64
3, 89220, Note_on_c, 1, 57, 110
3, 89268, Note_off_c, 1, 57, 64
3, 89280, Note_on_c, 1, 59, 110
3, 89376, Note_off_c, 1, 59, 64
3, 89400, Note_on_c, 1, 62, 110
3, 89496, Note_off_c, 1, 62, 64
3, 89520, Note_on_c, 1, 55, 110
3, 89616, Note_off_c, 1, 55, 64
3, 89640, Note_on_c, 1, 59, 110
3, 89736, Note_off_c, 1, 59, 64
3, 89760, Note_on_c, 1, 52, 110
3, 89808, Note_off_c, 1, 52, 64
3, 89820, Note_on_c, 1, 55, 110
3, 89868, Note_off_c, 1, 55, 64
3, 89880, Note_on_c, 1, 57, 110
3, 89928, Note_off_c, 1, 57, 64
3, 89940, Note_on_c, 1, 59, 110
3, 89988, Note_off_c, 1, 59, 64
3, 90000, Note_on_c, 1, 60, 110
3, 90096, Note_off_c, 1, 60, 64
3, 90120, Note_on_c, 1, 64, 110
3, 90216, Note_off_c, 1, 64, 64
3, 90240, Note_on_c, 1, 57, 110
3, 90336, Note_off_c, 1, 57, 64
3, 90360, Note_on_c, 1, 60, 110
3, 90456, Note_off_c, 1, 60, 64
3, 90480, Note_on_c, 1, 54, 110
3, 90528, Note_off_c, 1, 54, 64
3, 90540, Note_on_c, 1, 57, 110
3, 90588, Note_off_c, 1, 57, 64
3, 90600, Note_on_c, 1, 59, 110
3, 90648, Note_off_c, 1, 59, 64
3, 90660, Note_on_c, 1, 60, 110
3, 90708, Note_off_c, 1, 60, 64
3, 90720, Note_on_c, 1, 62, 110
3, 90816, Note_off_c, 1, 62, 64
3, 90840, Note_on_c, 1, 67, 110
3, 90888, Note_off_c, 1, 67, 64
3, 90900, Note_on_c, 1, 62, 110
3, 90948, Note_off_c, 1, 62, 64
3, 90960, Note_on_c, 1, 59, 110
3, 91056, Note_off_c, 1, 59, 64
3, 91080, Note_on_c, 1, 62, 110
3, 91128, Note_off_c, 1, 62, 64
3, 91140, Note_on_c, 1, 59, 110
3, 91188, Note_off_c, 1, 59, 64
3, 91200, Note_on_c, 1, 55, 110
3, 91248, Note_off_c, 1, 55, 64
3, 91260, Note_on_c, 1, 59, 110
3, 91308, Note_off_c, 1, 59, 64
3, 91320, Note_on_c, 1, 60, 110
3, 91368, Note_off_c, 1, 60, 64
3, 91380, Note_on_c, 1, 62, 110
3, 91428, Note_off_c, 1, 62, 64
3, 91440, Note_on_c, 1, 64, 110
3, 91488, Note_off_c, 1, 64, 64
3, 91500, Note_on_c, 1, 62, 110
3, 91548, Note_off_c, 1, 62, 64
3, 91560, Note_on_c, 1, 64, 110
3, 91608, Note_off_c, 1, 64, 64
3, 91620, Note_on_c, 1, 65, 110
3, 91668, Note_off_c, 1, 65, 64
3, 91680, Note_on_c, 1, 64, 110
3, 91728, Note_off_c, 1, 64, 64
3, 91740, Note_on_c, 1, 62, 110
3, 91788, Note_off_c, 1, 62, 64
3, 91800, Note_on_c, 1, 60, 110
3, 91848, Note_off_c, 1, 60, 64
3, 91860, Note_on_c, 1, 59, 110
3, 91908, Note_off_c, 1, 59, 64
3, 91920, Note_on_c, 1, 57, 110
3, 91968, Note_off_c, 1, 57, 64
3, 91980, Note_on_c, 1, 55, 110
3, 92028, Note_off_c, 1, 55, 64
3, 92040, Note_on_c, 1, 54, 110
3, 92088, Note_off_c, 1, 54, 64
3, 92100, Note_on_c, 1, 52, 110
3, 92148, Note_off_c, 1, 52, 64
3, 92160, Note_on_c, 1, 54, 110
3, 92208, Note_off_c, 1, 54, 64
3, 92220, Note_on_c, 1, 55, 110
3, 92268, Note_off_c, 1, 55, 64
3, 92280, Note_on_c, 1, 54, 110
3, 92328, Note_off_c, 1, 54, 64
3, 92340, Note_on_c, 1, 50, 110
3, 92388, Note_off_c, 1, 50, 64
3, 92400, Note_on_c, 1, 57, 110
3, 92448, Note_off_c, 1, 57, 64
3, 92460, Note_on_c, 1, 59, 110
3, 92508, Note_off_c, 1, 59, 64
3, 92520, Note_on_c, 1, 57, 110
3, 92568, Note_off_c, 1, 57, 64
3, 92580, Note_on_c, 1, 54, 110
3, 92628, Note_off_c, 1, 54, 64
3, 92640, Note_on_c, 1, 60, 110
3, 92688, Note_off_c, 1, 60, 64
3, 92700, Note_on_c, 1, 62, 110
3, 92748, Note_off_c, 1, 62, 64
3, 92760, Note_on_c, 1, 60, 110
3, 92808, Note_off_c, 1, 60, 64
3, 92820, Note_on_c, 1, 57, 110
3, 92868, Note_off_c, 1, 57, 64
3, 92880, Note_on_c, 1, 58, 110
3, 92976, Note_off_c, 1, 58, 64
3, 93000, Note_on_c, 1, 55, 110
3, 93096, Note_off_c, 1, 55, 64
3, 93120, Note_on_c, 1, 62, 110
3, 93216, Note_off_c, 1, 62, 64
3, 93240, Note_on_c, 1, 58, 110
3, 93336, Note_off_c, 1, 58, 64
3, 93360, Note_on_c, 1, 67, 110
3, 93648, Note_off_c, 1, 67, 64
3, 93660, Note_on_c, 1, 65, 110
3, 93708, Note_off_c, 1, 65, 64
3, 93720, Note_on_c, 1, 64, 110
3, 93768, Note_off_c, 1, 64, 64
3, 93780, Note_on_c, 1, 62, 110
3, 93828, Note_off_c, 1, 62, 64
3, 93840, Note_on_c, 1, 61, 110
3, 93888, Note_off_c, 1, 61, 64
3, 93900, Note_on_c, 1, 64, 110
3, 93948, Note_off_c, 1, 64, 64
3, 93960, Note_on_c, 1, 58, 110
3, 94008, Note_off_c, 1, 58, 64
3, 94020, Note_on_c, 1, 57, 110
3, 94068, Note_off_c, 1, 57, 64
3, 94080, Note_on_c, 1, 58, 110
3, 94128, Note_off_c, 1, 58, 64
3, 94140, Note_on_c, 1, 55, 110
3, 94188, Note_off_c, 1, 55, 64
3, 94200, Note_on_c, 1, 62, 110
3, 94248, Note_off_c, 1, 62, 64
3, 94260, Note_on_c, 1, 61, 110
3, 94308, Note_off_c, 1, 61, 64
3, 94320, Note_on_c, 1, 62, 110
3, 94608, Note_off_c, 1, 62, 64
3, 94620, Note_on_c, 1, 71, 110
3, 94668, Note_off_c, 1, 71, 64
3, 94680, Note_on_c, 1, 69, 110
3, 94728, Note_off_c, 1, 69, 64
3, 94740, Note_on_c, 1, 67, 110
3, 94788, Note_off_c, 1, 67, 64
3, 94800, Note_on_c, 1, 74, 110
3, 95088, Note_off_c, 1, 74, 64
3, 95100, Note_on_c, 1, 71, 110
3, 95148, Note_off_c, 1, 71, 64
3, 95160, Note_on_c, 1, 76, 110
3, 95208, Note_off_c, 1, 76, 64
3, 95220, Note_on_c, 1, 74, 110
3, 95268, Note_off_c, 1, 74, 64
3, 95280, Note_on_c, 1, 72, 110
3, 95328, Note_off_c, 1, 72, 64
3, 95340, Note_on_c, 1, 71, 110
3, 95388, Note_off_c, 1, 71, 64
3, 95400, Note_on_c, 1, 69, 110
3, 95448, Note_off_c, 1, 69, 64
3, 95460, Note_on_c, 1, 67, 110
3, 95508, Note_off_c, 1, 67, 64
3, 95520, Note_on_c, 1, 66, 110
3, 95616, Note_off_c, 1, 66, 64
3, 95640, Note_on_c, 1, 72, 110
3, 95808, Note_off_c, 1, 72, 64
3, 95820, Note_on_c, 1, 71, 110
3, 95868, Note_off_c, 1, 71, 64
3, 95880, Note_on_c, 1, 69, 110
3, 95928, Note_off_c, 1, 69, 64
3, 95940, Note_on_c, 1, 67, 110
3, 95988, Note_off_c, 1, 67, 64
3, 96000, Note_on_c, 1, 76, 110
3, 96288, Note_off_c, 1, 76, 64
3, 96300, Note_on_c, 1, 77, 110
3, 96348, Note_off_c, 1, 77, 64
3, 96360, Note_on_c, 1, 76, 110
3, 96408, Note_off_c, 1, 76, 64
3, 96420, Note_on_c, 1, 74, 110
3, 96468, Note_off_c, 1, 74, 64
3, 96480, Note_on_c, 1, 72, 110
3, 96768, Note_off_c, 1, 72, 64
3, 96840, Note_on_c, 1, 71, 110
3, 96888, Note_off_c, 1, 71, 64
3, 96900, Note_on_c, 1, 69, 110
3, 96948, Note_off_c, 1, 69, 64
3, 96960, Note_on_c, 1, 67, 110
3, 97008, Note_off_c, 1, 67, 64
3, 97020, Note_on_c, 1, 65, 110
3, 97068, Note_off_c, 1, 65, 64
3, 97080, Note_on_c, 1, 64, 110
3, 97128, Note_off_c, 1, 64, 64
3, 97140, Note_on_c, 1, 62, 110
3, 97188, Note_off_c, 1, 62, 64
3, 97200, Note_on_c, 1, 60, 110
3, 97296, Note_off_c, 1, 60, 64
3, 97320, Note_on_c, 1, 67, 110
3, 97416, Note_off_c, 1, 67, 64
3, 97440, Note_on_c, 1, 64, 110
3, 97536, Note_off_c, 1, 64, 64
3, 97560, Note_on_c, 1, 67, 110
3, 97656, Note_off_c, 1, 67, 64
3, 97680, Note_on_c, 1, 69, 110
3, 97872, Note_off_c, 1, 69, 64
3, 97920, Note_on_c, 1, 69, 110
3, 97968, Note_off_c, 1, 69, 64
3, 97980, Note_on_c, 1, 65, 110
3, 98028, Note_off_c, 1, 65, 64
3, 98040, Note_on_c, 1, 64, 110
3, 98088, Note_off_c, 1, 64, 64
3, 98100, Note_on_c, 1, 65, 110
3, 98148, Note_off_c, 1, 65, 64
3, 98160, Note_on_c, 1, 69, 110
3, 98208, Note_off_c, 1, 69, 64
3, 98220, Note_on_c, 1, 65, 110
3, 98268, Note_off_c, 1, 65, 64
3, 98280, Note_on_c, 1, 64, 110
3, 98328, Note_off_c, 1, 64, 64
3, 98340, Note_on_c, 1, 65, 110
3, 98388, Note_off_c, 1, 65, 64
3, 98400, Note_on_c, 1, 62, 110
3, 98448, Note_off_c, 1, 62, 64
3, 98460, Note_on_c, 1, 65, 110
3, 98508, Note_off_c, 1, 65, 64
3, 98520, Note_on_c, 1, 58, 110
3, 98568, Note_off_c, 1, 58, 64
3, 98580, Note_on_c, 1, 62, 110
3, 98628, Note_off_c, 1, 62, 64
3, 98640, Note_on_c, 1, 55, 110
3, 98736, Note_off_c, 1, 55, 64
3, 98760, Note_on_c, 1, 70, 110
3, 98856, Note_off_c, 1, 70, 64
3, 98880, Note_on_c, 1, 67, 110
3, 98976, Note_off_c, 1, 67, 64
3, 99000, Note_on_c, 1, 70, 110
3, 99096, Note_off_c, 1, 70, 64
3, 99120, Note_on_c, 1, 72, 110
3, 99456, Note_off_c, 1, 72, 64
3, 99480, Note_on_c, 1, 65, 110
3, 99576, Note_off_c, 1, 65, 64
3, 99600, Note_on_c, 1, 69, 110
3, 99696, Note_off_c, 1, 69, 64
3, 99720, Note_on_c, 1, 72, 110
3, 99816, Note_off_c, 1, 72, 64
3, 99840, Note_on_c, 1, 75, 110
3, 99936, Note_off_c, 1, 75, 64
3, 99960, Note_on_c, 1, 74, 110
3, 100008, Note_off_c, 1, 74, 64
3, 100020, Note_on_c, 1, 72, 110
3, 100068, Note_off_c, 1, 72, 64
3, 100080, Note_on_c, 1, 74, 110
3, 100176, Note_off_c, 1, 74, 64
3, 100200, Note_on_c, 1, 70, 110
3, 100296, Note_off_c, 1, 70, 64
3, 100320, Note_on_c, 1, 65, 110
3, 100416, Note_off_c, 1, 65, 64
3, 100440, Note_on_c, 1, 70, 110
3, 100536, Note_off_c, 1, 70, 64
3, 100560, Note_on_c, 1, 74, 110
3, 100656, Note_off_c, 1, 74, 64
3, 100680, Note_on_c, 1, 72, 110
3, 100728, Note_off_c, 1, 72, 64
3, 100740, Note_on_c, 1, 70, 110
3, 100788, Note_off_c, 1, 70, 64
3, 100800, Note_on_c, 1, 72, 110
3, 100896, Note_off_c, 1, 72, 64
3, 100920, Note_on_c, 1, 69, 110
3, 101016, Note_off_c, 1, 69, 64
3, 101040, Note_on_c, 1, 65, 110
3, 101136, Note_off_c, 1, 65, 64
3, 101160, Note_on_c, 1, 69, 110
3, 101256, Note_off_c, 1, 69, 64
3, 101280, Note_on_c, 1, 72, 110
3, 101376, Note_off_c, 1, 72, 64
3, 101400, Note_on_c, 1, 70, 110
3, 101448, Note_off_c, 1, 70, 64
3, 101460, Note_on_c, 1, 69, 110
3, 101508, Note_off_c, 1, 69, 64
3, 101520, Note_on_c, 1, 70, 110
3, 101616, Note_off_c, 1, 70, 64
3, 101640, Note_on_c, 1, 67, 110
3, 101736, Note_off_c, 1, 67, 64
3, 101760, Note_on_c, 1, 64, 110
3, 101856, Note_off_c, 1, 64, 64
3, 101880, Note_on_c, 1, 67, 110
3, 101976, Note_off_c, 1, 67, 64
3, 102000, Note_on_c, 1, 70, 110
3, 102096, Note_off_c, 1, 70, 64
3, 102120, Note_on_c, 1, 69, 110
3, 102168, Note_off_c, 1, 69, 64
3, 102180, Note_on_c, 1, 67, 110
3, 102228, Note_off_c, 1, 67, 64
3, 102240, Note_on_c, 1, 69, 110
3, 102288, Note_off_c, 1, 69, 64
3, 102300, Note_on_c, 1, 65, 110
3, 102348, Note_off_c, 1, 65, 64
3, 102360, Note_on_c, 1, 64, 110
3, 102408, Note_off_c, 1, 64, 64
3, 102420, Note_on_c, 1, 65, 110
3, 102468, Note_off_c, 1, 65, 64
3, 102480, Note_on_c, 1, 69, 110
3, 102528, Note_off_c, 1, 69, 64
3, 102540, Note_on_c, 1, 65, 110
3, 102588, Note_off_c, 1, 65, 64
3, 102600, Note_on_c, 1, 64, 110
3, 102648, Note_off_c, 1, 64, 64
3, 102660, Note_on_c, 1, 65, 110
3, 102708, Note_off_c, 1, 65, 64
3, 102720, Note_on_c, 1, 62, 110
3, 102768, Note_off_c, 1, 62, 64
3, 102780, Note_on_c, 1, 65, 110
3, 102828, Note_off_c, 1, 65, 64
3, 102840, Note_on_c, 1, 59, 110
3, 102888, Note_off_c, 1, 59, 64
3, 102900, Note_on_c, 1, 62, 110
3, 102948, Note_off_c, 1, 62, 64
3, 102960, Note_on_c, 1, 55, 110
3, 103008, Note_off_c, 1, 55, 64
3, 103020, Note_on_c, 1, 64, 110
3, 103068, Note_off_c, 1, 64, 64
3, 103080, Note_on_c, 1, 62, 110
3, 103128, Note_off_c, 1, 62, 64
3, 103140, Note_on_c, 1, 64, 110
3, 103188, Note_off_c, 1, 64, 64
3, 103200, Note_on_c, 1, 67, 110
3, 103248, Note_off_c, 1, 67, 64
3, 103260, Note_on_c, 1, 64, 110
3, 103308, Note_off_c, 1, 64, 64
3, 103320, Note_on_c, 1, 62, 110
3, 103368, Note_off_c, 1, 62, 64
3, 103380, Note_on_c, 1, 64, 110
3, 103428, Note_off_c, 1, 64, 64
3, 103440, Note_on_c, 1, 60, 110
3, 103488, Note_off_c, 1, 60, 64
3, 103500, Note_on_c, 1, 64, 110
3, 103548, Note_off_c, 1, 64, 64
3, 103560, Note_on_c, 1, 57, 110
3, 103608, Note_off_c, 1, 57, 64
3, 103620, Note_on_c, 1, 60, 110
3, 103668, Note_off_c, 1, 60, 64
3, 103680, Note_on_c, 1, 53, 110
3, 103728, Note_off_c, 1, 53, 64
3, 103740, Note_on_c, 1, 62, 110
3, 103788, Note_off_c, 1, 62, 64
3, 103800, Note_on_c, 1, 60, 110
3, 103848, Note_off_c, 1, 60, 64
3, 103860, Note_on_c, 1, 62, 110
3, 103908, Note_off_c, 1, 62, 64
3, 103920, Note_on_c, 1, 65, 110
3, 103968, Note_off_c, 1, 65, 64
3, 103980, Note_on_c, 1, 62, 110
3, 104028, Note_off_c, 1, 62, 64
3, 104040, Note_on_c, 1, 60, 110
3, 104088, Note_off_c, 1, 60, 64
3, 104100, Note_on_c, 1, 62, 110
3, 104148, Note_off_c, 1, 62, 64
3, 104160, Note_on_c, 1, 59, 110
3, 104208, Note_off_c, 1, 59, 64
3, 104220, Note_on_c, 1, 62, 110
3, 104268, Note_off_c, 1, 62, 64
3, 104280, Note_on_c, 1, 55, 110
3, 104328, Note_off_c, 1, 55, 64
3, 104340, Note_on_c, 1, 59, 110
3, 104388, Note_off_c, 1, 59, 64
3, 104400, Note_on_c, 1, 52, 110
3, 104448, Note_off_c, 1, 52, 64
3, 104460, Note_on_c, 1, 64, 110
3, 104508, Note_off_c, 1, 64, 64
3, 104520, Note_on_c, 1, 62, 110
3, 104568, Note_off_c, 1, 62, 64
3, 104580, Note_on_c, 1, 64, 110
3, 104628, Note_off_c, 1, 64, 64
3, 104640, Note_on_c, 1, 67, 110
3, 104688, Note_off_c, 1, 67, 64
3, 104700, Note_on_c, 1, 64, 110
3, 104748, Note_off_c, 1, 64, 64
3, 104760, Note_on_c, 1, 62, 110
3, 104808, Note_off_c, 1, 62, 64
3, 104820, Note_on_c, 1, 64, 110
3, 104868, Note_off_c, 1, 64, 64
3, 104880, Note_on_c, 1, 60, 110
3, 104928, Note_off_c, 1, 60, 64
3, 104940, Note_on_c, 1, 64, 110
3, 104988, Note_off_c, 1, 64, 64
3, 105000, Note_on_c, 1, 67, 110
3, 105168, Note_off_c, 1, 67, 64
3, 105180, Note_on_c, 1, 65, 110
3, 105228, Note_off_c, 1, 65, 64
3, 105240, Note_on_c, 1, 64, 110
3, 105288, Note_off_c, 1, 64, 64
3, 105300, Note_on_c, 1, 65, 110
3, 105348, Note_off_c, 1, 65, 64
3, 105360, Note_on_c, 1, 67, 110
3, 105408, Note_off_c, 1, 67, 64
3, 105420, Note_on_c, 1, 65, 110
3, 105468, Note_off_c, 1, 65, 64
3, 105480, Note_on_c, 1, 64, 110
3, 105528, Note_off_c, 1, 64, 64
3, 105540, Note_on_c, 1, 65, 110
3, 105588, Note_off_c, 1, 65, 64
3, 105600, Note_on_c, 1, 60, 110
3, 105648, Note_off_c, 1, 60, 64
3, 105660, Note_on_c, 1, 64, 110
3, 105708, Note_off_c, 1, 64, 64
3, 105720, Note_on_c, 1, 65, 110
3, 105888, Note_off_c, 1, 65, 64
3, 105900, Note_on_c, 1, 64, 110
3, 105948, Note_off_c, 1, 64, 64
3, 105960, Note_on_c, 1, 62, 110
3, 106008, Note_off_c, 1, 62, 64
3, 106020, Note_on_c, 1, 64, 110
3, 106068, Note_off_c, 1, 64, 64
3, 106080, Note_on_c, 1, 65, 110
3, 106128, Note_off_c, 1, 65, 64
3, 106140, Note_on_c, 1, 64, 110
3, 106188, Note_off_c, 1, 64, 64
3, 106200, Note_on_c, 1, 62, 110
3, 106248, Note_off_c, 1, 62, 64
3, 106260, Note_on_c, 1, 64, 110
3, 106308, Note_off_c, 1, 64, 64
3, 106320, Note_on_c, 1, 60, 110
3, 106368, Note_off_c, 1, 60, 64
3, 106380, Note_on_c, 1, 62, 110
3, 106428, Note_off_c, 1, 62, 64
3, 106440, Note_on_c, 1, 64, 110
3, 106608, Note_off_c, 1, 64, 64
3, 106620, Note_on_c, 1, 62, 110
3, 106668, Note_off_c, 1, 62, 64
3, 106680, Note_on_c, 1, 60, 110
3, 106728, Note_off_c, 1, 60, 64
3, 106740, Note_on_c, 1, 62, 110
3, 106788, Note_off_c, 1, 62, 64
3, 106800, Note_on_c, 1, 65, 110
3, 106848, Note_off_c, 1, 65, 64
3, 106860, Note_on_c, 1, 62, 110
3, 106908, Note_off_c, 1, 62, 64
3, 106920, Note_on_c, 1, 60, 110
3, 106968, Note_off_c, 1, 60, 64
3, 106980, Note_on_c, 1, 62, 110
3, 107028, Note_off_c, 1, 62, 64
3, 107040, Note_on_c, 1, 59, 110
3, 107136, Note_off_c, 1, 59, 64
3, 107160, Note_on_c, 1, 71, 110
3, 107256, Note_off_c, 1, 71, 64
3, 107280, Note_on_c, 1, 72, 110
3, 107328, Note_off_c, 1, 72, 64
3, 107340, Note_on_c, 1, 67, 110
3, 107388, Note_off_c, 1, 67, 64
3, 107400, Note_on_c, 1, 65, 110
3, 107448, Note_off_c, 1, 65, 64
3, 107460, Note_on_c, 1, 67, 110
3, 107508, Note_off_c, 1, 67, 64
3, 107520, Note_on_c, 1, 76, 110
3, 108048, Note_off_c, 1, 76, 64
3, 108060, Note_on_c, 1, 65, 110
3, 108108, Note_off_c, 1, 65, 64
3, 108120, Note_on_c, 1, 64, 110
3, 108168, Note_off_c, 1, 64, 64
3, 108180, Note_on_c, 1, 65, 110
3, 108228, Note_off_c, 1, 65, 64
3, 108240, Note_on_c, 1, 74, 110
3, 108768, Note_off_c, 1, 74, 64
3, 108780, Note_on_c, 1, 64, 110
3, 108828, Note_off_c, 1, 64, 64
3, 108840, Note_on_c, 1, 62, 110
3, 108888, Note_off_c, 1, 62, 64
3, 108900, Note_on_c, 1, 64, 110
3, 108948, Note_off_c, 1, 64, 64
3, 108960, Note_on_c, 1, 72, 110
3, 109488, Note_off_c, 1, 72, 64
3, 109500, Note_on_c, 1, 71, 110
3, 109548, Note_off_c, 1, 71, 64
3, 109560, Note_on_c, 1, 69, 110
3, 109608, Note_off_c, 1, 69, 64
3, 109620, Note_on_c, 1, 67, 110
3, 109668, Note_off_c, 1, 67, 64
3, 109680, Note_on_c, 1, 65, 110
3, 109728, Note_off_c, 1, 65, 64
3, 109740, Note_on_c, 1, 64, 110
3, 109788, Note_off_c, 1, 64, 64
3, 109800, Note_on_c, 1, 62, 110
3, 109848, Note_off_c, 1, 62, 64
3, 109860, Note_on_c, 1, 60, 110
3, 109908, Note_off_c, 1, 60, 64
3, 109920, Note_on_c, 1, 59, 110
3, 109968, Note_off_c, 1, 59, 64
3, 109980, Note_on_c, 1, 57, 110
3, 110028, Note_off_c, 1, 57, 64
3, 110040, Note_on_c, 1, 55, 110
3, 110088, Note_off_c, 1, 55, 64
3, 110100, Note_on_c, 1, 53, 110
3, 110148, Note_off_c, 1, 53, 64
3, 110160, Note_on_c, 1, 55, 110
3, 110256, Note_off_c, 1, 55, 64
3, 110280, Note_on_c, 1, 65, 110
3, 110376, Note_off_c, 1, 65, 64
3, 110400, Note_on_c, 1, 64, 110
3, 110496, Note_off_c, 1, 64, 64
3, 110520, Note_on_c, 1, 69, 110
3, 110568, Note_off_c, 1, 69, 64
3, 110580, Note_on_c, 1, 67, 110
3, 110628, Note_off_c, 1, 67, 64
3, 110640, Note_on_c, 1, 65, 110
3, 110688, Note_off_c, 1, 65, 64
3, 110700, Note_on_c, 1, 64, 110
3, 110748, Note_off_c, 1, 64, 64
3, 110760, Note_on_c, 1, 62, 110
3, 110808, Note_off_c, 1, 62, 64
3, 110820, Note_on_c, 1, 60, 110
3, 110868, Note_off_c, 1, 60, 64
3, 110880, Note_on_c, 1, 60, 110
3, 111072, Note_off_c, 1, 60, 64
3, 111072, End_track
4, 0, Start_track
4, 0, Title_t, "Arr. Gary Bricault, (c) 1997"
4, 0, Program_c, 2, 19
4, 0, Note_on_c, 2, 48, 107
4, 192, Note_off_c, 2, 48, 64
4, 840, Note_on_c, 2, 60, 107
4, 936, Note_off_c, 2, 60, 64
4, 960, Note_on_c, 2, 48, 107
4, 1056, Note_off_c, 2, 48, 64
4, 1080, Note_on_c, 2, 60, 107
4, 1176, Note_off_c, 2, 60, 64
4, 1200, Note_on_c, 2, 48, 107
4, 1296, Note_off_c, 2, 48, 64
4, 1320, Note_on_c, 2, 60, 107
4, 1416, Note_off_c, 2, 60, 64
4, 1440, Note_on_c, 2, 48, 107
4, 1632, Note_off_c, 2, 48, 64
4, 2280, Note_on_c, 2, 60, 107
4, 2376, Note_off_c, 2, 60, 64
4, 2400, Note_on_c, 2, 48, 107
4, 2496, Note_off_c, 2, 48, 64
4, 2520, Note_on_c, 2, 60, 107
4, 2616, Note_off_c, 2, 60, 64
4, 2640, Note_on_c, 2, 48, 107
4, 2736, Note_off_c, 2, 48, 64
4, 2760, Note_on_c, 2, 60, 107
4, 2856, Note_off_c, 2, 60, 64
4, 2880, Note_on_c, 2, 36, 107
4, 3072, Note_off_c, 2, 36, 64
4, 3120, Note_on_c, 2, 48, 107
4, 3312, Note_off_c, 2, 48, 64
4, 3480, Note_on_c, 2, 36, 107
4, 3576, Note_off_c, 2, 36, 64
4, 3600, Note_on_c, 2, 38, 107
4, 3792, Note_off_c, 2, 38, 64
4, 3840, Note_on_c, 2, 50, 107
4, 4032, Note_off_c, 2, 50, 64
4, 4200, Note_on_c, 2, 38, 107
4, 4296, Note_off_c, 2, 38, 64
4, 4320, Note_on_c, 2, 40, 107
4, 4512, Note_off_c, 2, 40, 64
4, 4560, Note_on_c, 2, 52, 107
4, 4752, Note_off_c, 2, 52, 64
4, 4920, Note_on_c, 2, 40, 107
4, 5016, Note_off_c, 2, 40, 64
4, 5040, Note_on_c, 2, 41, 107
4, 5232, Note_off_c, 2, 41, 64
4, 5280, Note_on_c, 2, 53, 107
4, 5472, Note_off_c, 2, 53, 64
4, 5640, Note_on_c, 2, 50, 107
4, 5736, Note_off_c, 2, 50, 64
4, 5760, Note_on_c, 2, 55, 107
4, 5952, Note_off_c, 2, 55, 64
4, 6000, Note_on_c, 2, 43, 107
4, 8016, Note_off_c, 2, 43, 64
4, 8040, Note_on_c, 2, 50, 107
4, 8136, Note_off_c, 2, 50, 64
4, 8160, Note_on_c, 2, 52, 107
4, 8256, Note_off_c, 2, 52, 64
4, 8280, Note_on_c, 2, 54, 107
4, 8376, Note_off_c, 2, 54, 64
4, 8400, Note_on_c, 2, 55, 107
4, 8496, Note_off_c, 2, 55, 64
4, 8520, Note_on_c, 2, 47, 107
4, 8616, Note_off_c, 2, 47, 64
4, 8640, Note_on_c, 2, 48, 107
4, 8736, Note_off_c, 2, 48, 64
4, 8760, Note_on_c, 2, 52, 107
4, 8856, Note_off_c, 2, 52, 64
4, 8880, Note_on_c, 2, 54, 107
4, 8976, Note_off_c, 2, 54, 64
4, 9000, Note_on_c, 2, 55, 107
4, 9096, Note_off_c, 2, 55, 64
4, 9120, Note_on_c, 2, 57, 107
4, 9216, Note_off_c, 2, 57, 64
4, 9240, Note_on_c, 2, 48, 107
4, 9336, Note_off_c, 2, 48, 64
4, 9360, Note_on_c, 2, 50, 107
4, 9456, Note_off_c, 2, 50, 64
4, 9480, Note_on_c, 2, 54, 107
4, 9576, Note_off_c, 2, 54, 64
4, 9600, Note_on_c, 2, 55, 107
4, 9696, Note_off_c, 2, 55, 64
4, 9720, Note_on_c, 2, 57, 107
4, 9816, Note_off_c, 2, 57, 64
4, 9840, Note_on_c, 2, 59, 107
4, 9936, Note_off_c, 2, 59, 64
4, 9960, Note_on_c, 2, 50, 107
4, 10056, Note_off_c, 2, 50, 64
4, 10080, Note_on_c, 2, 52, 107
4, 10176, Note_off_c, 2, 52, 64
4, 10200, Note_on_c, 2, 55, 107
4, 10296, Note_off_c, 2, 55, 64
4, 10320, Note_on_c, 2, 57, 107
4, 10416, Note_off_c, 2, 57, 64
4, 10440, Note_on_c, 2, 59, 107
4, 10536, Note_off_c, 2, 59, 64
4, 10560, Note_on_c, 2, 60, 107
4, 10656, Note_off_c, 2, 60, 64
4, 10680, Note_on_c, 2, 52, 107
4, 10776, Note_off_c, 2, 52, 64
4, 10800, Note_on_c, 2, 54, 107
4, 10896, Note_off_c, 2, 54, 64
4, 10920, Note_on_c, 2, 50, 107
4, 11016, Note_off_c, 2, 50, 64
4, 11040, Note_on_c, 2, 55, 107
4, 11136, Note_off_c, 2, 55, 64
4, 11160, Note_on_c, 2, 52, 107
4, 11256, Note_off_c, 2, 52, 64
4, 11280, Note_on_c, 2, 50, 107
4, 11376, Note_off_c, 2, 50, 64
4, 11400, Note_on_c, 2, 38, 107
4, 11496, Note_off_c, 2, 38, 64
4, 11520, Note_on_c, 2, 43, 107
4, 11712, Note_off_c, 2, 43, 64
4, 12360, Note_on_c, 2, 55, 107
4, 12456, Note_off_c, 2, 55, 64
4, 12480, Note_on_c, 2, 43, 107
4, 12576, Note_off_c, 2, 43, 64
4, 12600, Note_on_c, 2, 55, 107
4, 12696, Note_off_c, 2, 55, 64
4, 12720, Note_on_c, 2, 43, 107
4, 12816, Note_off_c, 2, 43, 64
4, 12840, Note_on_c, 2, 55, 107
4, 12936, Note_off_c, 2, 55, 64
4, 12960, Note_on_c, 2, 43, 107
4, 13152, Note_off_c, 2, 43, 64
4, 13800, Note_on_c, 2, 55, 107
4, 13896, Note_off_c, 2, 55, 64
4, 13920, Note_on_c, 2, 43, 107
4, 14016, Note_off_c, 2, 43, 64
4, 14040, Note_on_c, 2, 55, 107
4, 14136, Note_off_c, 2, 55, 64
4, 14160, Note_on_c, 2, 43, 107
4, 14256, Note_off_c, 2, 43, 64
4, 14280, Note_on_c, 2, 55, 107
4, 14376, Note_off_c, 2, 55, 64
4, 14400, Note_on_c, 2, 43, 107
4, 14592, Note_off_c, 2, 43, 64
4, 14640, Note_on_c, 2, 55, 107
4, 14832, Note_off_c, 2, 55, 64
4, 15000, Note_on_c, 2, 43, 107
4, 15096, Note_off_c, 2, 43, 64
4, 15120, Note_on_c, 2, 45, 107
4, 15312, Note_off_c, 2, 45, 64
4, 15360, Note_on_c, 2, 57, 107
4, 15552, Note_off_c, 2, 57, 64
4, 15720, Note_on_c, 2, 45, 107
4, 15816, Note_off_c, 2, 45, 64
4, 15840, Note_on_c, 2, 47, 107
4, 16032, Note_off_c, 2, 47, 64
4, 16080, Note_on_c, 2, 59, 107
4, 16272, Note_off_c, 2, 59, 64
4, 16440, Note_on_c, 2, 47, 107
4, 16536, Note_off_c, 2, 47, 64
4, 16560, Note_on_c, 2, 48, 107
4, 16752, Note_off_c, 2, 48, 64
4, 16800, Note_on_c, 2, 60, 107
4, 16992, Note_off_c, 2, 60, 64
4, 17160, Note_on_c, 2, 57, 107
4, 17256, Note_off_c, 2, 57, 64
4, 17280, Note_on_c, 2, 62, 107
4, 17472, Note_off_c, 2, 62, 64
4, 17520, Note_on_c, 2, 50, 107
4, 19536, Note_off_c, 2, 50, 64
4, 19560, Note_on_c, 2, 54, 107
4, 19656, Note_off_c, 2, 54, 64
4, 19680, Note_on_c, 2, 55, 107
4, 19776, Note_off_c, 2, 55, 64
4, 19800, Note_on_c, 2, 57, 107
4, 19896, Note_off_c, 2, 57, 64
4, 19920, Note_on_c, 2, 59, 107
4, 20016, Note_off_c, 2, 59, 64
4, 20040, Note_on_c, 2, 50, 107
4, 20136, Note_off_c, 2, 50, 64
4, 20160, Note_on_c, 2, 52, 107
4, 20256, Note_off_c, 2, 52, 64
4, 20280, Note_on_c, 2, 55, 107
4, 20376, Note_off_c, 2, 55, 64
4, 20400, Note_on_c, 2, 57, 107
4, 20496, Note_off_c, 2, 57, 64
4, 20520, Note_on_c, 2, 59, 107
4, 20616, Note_off_c, 2, 59, 64
4, 20640, Note_on_c, 2, 60, 107
4, 20736, Note_off_c, 2, 60, 64
4, 20760, Note_on_c, 2, 54, 107
4, 20856, Note_off_c, 2, 54, 64
4, 20880, Note_on_c, 2, 55, 107
4, 20976, Note_off_c, 2, 55, 64
4, 21000, Note_on_c, 2, 47, 107
4, 21096, Note_off_c, 2, 47, 64
4, 21120, Note_on_c, 2, 48, 107
4, 21216, Note_off_c, 2, 48, 64
4, 21240, Note_on_c, 2, 50, 107
4, 21336, Note_off_c, 2, 50, 64
4, 21360, Note_on_c, 2, 52, 107
4, 21456, Note_off_c, 2, 52, 64
4, 21480, Note_on_c, 2, 43, 107
4, 21576, Note_off_c, 2, 43, 64
4, 21600, Note_on_c, 2, 45, 107
4, 21696, Note_off_c, 2, 45, 64
4, 21720, Note_on_c, 2, 48, 107
4, 21816, Note_off_c, 2, 48, 64
4, 21840, Note_on_c, 2, 50, 107
4, 21936, Note_off_c, 2, 50, 64
4, 21960, Note_on_c, 2, 52, 107
4, 22056, Note_off_c, 2, 52, 64
4, 22080, Note_on_c, 2, 53, 107
4, 22176, Note_off_c, 2, 53, 64
4, 22200, Note_on_c, 2, 47, 107
4, 22296, Note_off_c, 2, 47, 64
4, 22320, Note_on_c, 2, 48, 107
4, 22416, Note_off_c, 2, 48, 64
4, 22440, Note_on_c, 2, 48, 107
4, 22536, Note_off_c, 2, 48, 64
4, 22560, Note_on_c, 2, 36, 107
4, 22656, Note_off_c, 2, 36, 64
4, 22680, Note_on_c, 2, 48, 107
4, 22776, Note_off_c, 2, 48, 64
4, 22800, Note_on_c, 2, 36, 107
4, 22896, Note_off_c, 2, 36, 64
4, 22920, Note_on_c, 2, 48, 107
4, 23016, Note_off_c, 2, 48, 64
4, 23040, Note_on_c, 2, 38, 107
4, 23136, Note_off_c, 2, 38, 64
4, 23160, Note_on_c, 2, 50, 107
4, 23256, Note_off_c, 2, 50, 64
4, 23280, Note_on_c, 2, 38, 107
4, 23376, Note_off_c, 2, 38, 64
4, 23400, Note_on_c, 2, 50, 107
4, 23496, Note_off_c, 2, 50, 64
4, 23520, Note_on_c, 2, 38, 107
4, 23616, Note_off_c, 2, 38, 64
4, 23640, Note_on_c, 2, 50, 107
4, 23736, Note_off_c, 2, 50, 64
4, 23760, Note_on_c, 2, 40, 107
4, 23856, Note_off_c, 2, 40, 64
4, 23880, Note_on_c, 2, 52, 107
4, 23976, Note_off_c, 2, 52, 64
4, 24000, Note_on_c, 2, 40, 107
4, 24096, Note_off_c, 2, 40, 64
4, 24120, Note_on_c, 2, 52, 107
4, 24216, Note_off_c, 2, 52, 64
4, 24240, Note_on_c, 2, 40, 107
4, 24336, Note_off_c, 2, 40, 64
4, 24360, Note_on_c, 2, 52, 107
4, 24456, Note_off_c, 2, 52, 64
4, 24480, Note_on_c, 2, 41, 107
4, 27456, Note_off_c, 2, 41, 64
4, 27480, Note_on_c, 2, 53, 107
4, 27576, Note_off_c, 2, 53, 64
4, 27600, Note_on_c, 2, 50, 107
4, 27696, Note_off_c, 2, 50, 64
4, 27720, Note_on_c, 2, 53, 107
4, 27816, Note_off_c, 2, 53, 64
4, 27840, Note_on_c, 2, 47, 107
4, 27936, Note_off_c, 2, 47, 64
4, 27960, Note_on_c, 2, 50, 107
4, 28056, Note_off_c, 2, 50, 64
4, 28080, Note_on_c, 2, 40, 107
4, 28176, Note_off_c, 2, 40, 64
4, 28200, Note_on_c, 2, 52, 107
4, 28296, Note_off_c, 2, 52, 64
4, 28320, Note_on_c, 2, 48, 107
4, 28416, Note_off_c, 2, 48, 64
4, 28440, Note_on_c, 2, 52, 107
4, 28536, Note_off_c, 2, 52, 64
4, 28560, Note_on_c, 2, 45, 107
4, 28656, Note_off_c, 2, 45, 64
4, 28680, Note_on_c, 2, 48, 107
4, 28776, Note_off_c, 2, 48, 64
4, 28800, Note_on_c, 2, 38, 107
4, 28896, Note_off_c, 2, 38, 64
4, 28920, Note_on_c, 2, 50, 107
4, 29016, Note_off_c, 2, 50, 64
4, 29040, Note_on_c, 2, 47, 107
4, 29136, Note_off_c, 2, 47, 64
4, 29160, Note_on_c, 2, 50, 107
4, 29256, Note_off_c, 2, 50, 64
4, 29280, Note_on_c, 2, 43, 107
4, 29376, Note_off_c, 2, 43, 64
4, 29400, Note_on_c, 2, 47, 107
4, 29496, Note_off_c, 2, 47, 64
4, 29520, Note_on_c, 2, 36, 107
4, 32496, Note_off_c, 2, 36, 64
4, 32520, Note_on_c, 2, 43, 107
4, 32616, Note_off_c, 2, 43, 64
4, 32640, Note_on_c, 2, 45, 107
4, 32736, Note_off_c, 2, 45, 64
4, 32760, Note_on_c, 2, 47, 107
4, 32856, Note_off_c, 2, 47, 64
4, 32880, Note_on_c, 2, 48, 107
4, 32976, Note_off_c, 2, 48, 64
4, 33000, Note_on_c, 2, 40, 107
4, 33096, Note_off_c, 2, 40, 64
4, 33120, Note_on_c, 2, 41, 107
4, 33216, Note_off_c, 2, 41, 64
4, 33240, Note_on_c, 2, 45, 107
4, 33336, Note_off_c, 2, 45, 64
4, 33360, Note_on_c, 2, 47, 107
4, 33456, Note_off_c, 2, 47, 64
4, 33480, Note_on_c, 2, 48, 107
4, 33576, Note_off_c, 2, 48, 64
4, 33600, Note_on_c, 2, 50, 107
4, 33696, Note_off_c, 2, 50, 64
4, 33720, Note_on_c, 2, 41, 107
4, 33816, Note_off_c, 2, 41, 64
4, 33840, Note_on_c, 2, 43, 107
4, 33936, Note_off_c, 2, 43, 64
4, 33960, Note_on_c, 2, 47, 107
4, 34056, Note_off_c, 2, 47, 64
4, 34080, Note_on_c, 2, 48, 107
4, 34176, Note_off_c, 2, 48, 64
4, 34200, Note_on_c, 2, 50, 107
4, 34296, Note_off_c, 2, 50, 64
4, 34320, Note_on_c, 2, 52, 107
4, 34416, Note_off_c, 2, 52, 64
4, 34440, Note_on_c, 2, 43, 107
4, 34536, Note_off_c, 2, 43, 64
4, 34560, Note_on_c, 2, 45, 107
4, 34656, Note_off_c, 2, 45, 64
4, 34680, Note_on_c, 2, 48, 107
4, 34776, Note_off_c, 2, 48, 64
4, 34800, Note_on_c, 2, 50, 107
4, 34896, Note_off_c, 2, 50, 64
4, 34920, Note_on_c, 2, 52, 107
4, 35016, Note_off_c, 2, 52, 64
4, 35040, Note_on_c, 2, 53, 107
4, 35136, Note_off_c, 2, 53, 64
4, 35160, Note_on_c, 2, 45, 107
4, 35256, Note_off_c, 2, 45, 64
4, 35280, Note_on_c, 2, 47, 107
4, 35376, Note_off_c, 2, 47, 64
4, 35400, Note_on_c, 2, 43, 107
4, 35496, Note_off_c, 2, 43, 64
4, 35520, Note_on_c, 2, 48, 107
4, 35616, Note_off_c, 2, 48, 64
4, 35640, Note_on_c, 2, 53, 107
4, 35736, Note_off_c, 2, 53, 64
4, 35760, Note_on_c, 2, 55, 107
4, 35856, Note_off_c, 2, 55, 64
4, 35880, Note_on_c, 2, 43, 107
4, 35976, Note_off_c, 2, 43, 64
4, 36000, Note_on_c, 2, 48, 107
4, 36096, Note_off_c, 2, 48, 64
4, 36240, Note_on_c, 2, 52, 107
4, 36336, Note_off_c, 2, 52, 64
4, 36480, Note_on_c, 2, 53, 107
4, 36576, Note_off_c, 2, 53, 64
4, 36720, Note_on_c, 2, 47, 107
4, 36816, Note_off_c, 2, 47, 64
4, 36960, Note_on_c, 2, 43, 107
4, 37056, Note_off_c, 2, 43, 64
4, 37200, Note_on_c, 2, 47, 107
4, 37296, Note_off_c, 2, 47, 64
4, 37440, Note_on_c, 2, 48, 107
4, 37536, Note_off_c, 2, 48, 64
4, 37680, Note_on_c, 2, 47, 107
4, 37776, Note_off_c, 2, 47, 64
4, 37920, Note_on_c, 2, 48, 107
4, 38016, Note_off_c, 2, 48, 64
4, 38160, Note_on_c, 2, 42, 107
4, 38256, Note_off_c, 2, 42, 64
4, 38400, Note_on_c, 2, 38, 107
4, 38496, Note_off_c, 2, 38, 64
4, 38640, Note_on_c, 2, 50, 107
4, 38736, Note_off_c, 2, 50, 64
4, 38880, Note_on_c, 2, 43, 107
4, 38976, Note_off_c, 2, 43, 64
4, 39000, Note_on_c, 2, 55, 107
4, 39192, Note_off_c, 2, 55, 64
4, 39240, Note_on_c, 2, 53, 107
4, 39336, Note_off_c, 2, 53, 64
4, 39360, Note_on_c, 2, 52, 107
4, 39456, Note_off_c, 2, 52, 64
4, 39480, Note_on_c, 2, 50, 107
4, 39576, Note_off_c, 2, 50, 64
4, 39600, Note_on_c, 2, 48, 107
4, 39655, Note_off_c, 2, 48, 64
4, 39720, Note_on_c, 2, 60, 107
4, 39960, Note_on_c, 2, 58, 107
4, 39964, Note_off_c, 2, 60, 64
4, 40080, Note_on_c, 2, 57, 107
4, 40084, Note_off_c, 2, 58, 64
4, 40200, Note_on_c, 2, 55, 107
4, 40206, Note_off_c, 2, 57, 64
4, 40312, Note_off_c, 2, 55, 64
4, 40320, Note_on_c, 2, 53, 107
4, 40387, Note_off_c, 2, 53, 64
4, 40440, Note_on_c, 2, 57, 107
4, 40680, Note_on_c, 2, 55, 107
4, 40694, Note_off_c, 2, 57, 64
4, 40800, Note_on_c, 2, 53, 107
4, 40802, Note_off_c, 2, 55, 64
4, 40920, Note_on_c, 2, 52, 107
4, 40937, Note_off_c, 2, 53, 64
4, 40977, Note_off_c, 2, 52, 64
4, 41040, Note_on_c, 2, 50, 107
4, 41110, Note_off_c, 2, 50, 64
4, 41160, Note_on_c, 2, 62, 107
4, 41398, Note_off_c, 2, 62, 64
4, 41400, Note_on_c, 2, 60, 107
4, 41520, Note_on_c, 2, 59, 107
4, 41529, Note_off_c, 2, 60, 64
4, 41636, Note_off_c, 2, 59, 64
4, 41640, Note_on_c, 2, 57, 107
4, 41687, Note_off_c, 2, 57, 64
4, 41760, Note_on_c, 2, 56, 107
4, 41873, Note_off_c, 2, 56, 64
4, 42000, Note_on_c, 2, 57, 107
4, 42113, Note_off_c, 2, 57, 64
4, 42240, Note_on_c, 2, 53, 107
4, 42353, Note_off_c, 2, 53, 64
4, 42480, Note_on_c, 2, 52, 107
4, 42593, Note_off_c, 2, 52, 64
4, 42720, Note_on_c, 2, 53, 107
4, 42833, Note_off_c, 2, 53, 64
4, 42960, Note_on_c, 2, 54, 107
4, 43073, Note_off_c, 2, 54, 64
4, 43200, Note_on_c, 2, 55, 107
4, 43313, Note_off_c, 2, 55, 64
4, 43440, Note_on_c, 2, 56, 107
4, 43553, Note_off_c, 2, 56, 64
4, 43680, Note_on_c, 2, 52, 107
4, 43793, Note_off_c, 2, 52, 64
4, 43920, Note_on_c, 2, 57, 107
4, 44033, Note_off_c, 2, 57, 64
4, 44160, Note_on_c, 2, 45, 107
4, 44273, Note_off_c, 2, 45, 64
4, 44400, Note_on_c, 2, 48, 107
4, 44513, Note_off_c, 2, 48, 64
4, 44640, Note_on_c, 2, 52, 107
4, 44753, Note_off_c, 2, 52, 64
4, 44880, Note_on_c, 2, 48, 107
4, 44993, Note_off_c, 2, 48, 64
4, 45120, Note_on_c, 2, 52, 107
4, 45233, Note_off_c, 2, 52, 64
4, 45360, Note_on_c, 2, 53, 107
4, 45473, Note_off_c, 2, 53, 64
4, 45600, Note_on_c, 2, 46, 107
4, 45713, Note_off_c, 2, 46, 64
4, 45840, Note_on_c, 2, 47, 107
4, 45953, Note_off_c, 2, 47, 64
4, 46080, Note_on_c, 2, 48, 107
4, 46193, Note_off_c, 2, 48, 64
4, 46320, Note_on_c, 2, 49, 107
4, 46433, Note_off_c, 2, 49, 64
4, 46560, Note_on_c, 2, 45, 107
4, 46673, Note_off_c, 2, 45, 64
4, 46800, Note_on_c, 2, 50, 107
4, 46913, Note_off_c, 2, 50, 64
4, 47040, Note_on_c, 2, 38, 107
4, 47153, Note_off_c, 2, 38, 64
4, 47280, Note_on_c, 2, 50, 107
4, 47393, Note_off_c, 2, 50, 64
4, 47520, Note_on_c, 2, 50, 107
4, 47747, Note_off_c, 2, 50, 64
4, 47760, Note_on_c, 2, 49, 107
4, 47854, Note_off_c, 2, 49, 64
4, 47880, Note_on_c, 2, 45, 107
4, 48000, Note_on_c, 2, 47, 107
4, 48008, Note_off_c, 2, 45, 64
4, 48105, Note_off_c, 2, 47, 64
4, 48120, Note_on_c, 2, 49, 107
4, 48214, Note_off_c, 2, 49, 64
4, 48240, Note_on_c, 2, 50, 107
4, 48350, Note_off_c, 2, 50, 64
4, 48600, Note_on_c, 2, 52, 107
4, 48720, Note_on_c, 2, 53, 107
4, 48721, Note_off_c, 2, 52, 64
4, 48834, Note_off_c, 2, 53, 64
4, 48840, Note_on_c, 2, 50, 107
4, 48940, Note_off_c, 2, 50, 64
4, 48960, Note_on_c, 2, 58, 107
4, 49073, Note_off_c, 2, 58, 64
4, 49200, Note_on_c, 2, 46, 107
4, 49313, Note_off_c, 2, 46, 64
4, 49440, Note_on_c, 2, 50, 107
4, 49553, Note_off_c, 2, 50, 64
4, 49680, Note_on_c, 2, 52, 107
4, 49856, Note_off_c, 2, 52, 64
4, 50040, Note_on_c, 2, 50, 107
4, 50158, Note_off_c, 2, 50, 64
4, 50160, Note_on_c, 2, 52, 107
4, 50255, Note_off_c, 2, 52, 64
4, 50280, Note_on_c, 2, 48, 107
4, 50337, Note_off_c, 2, 48, 64
4, 50400, Note_on_c, 2, 57, 107
4, 50513, Note_off_c, 2, 57, 64
4, 50640, Note_on_c, 2, 58, 107
4, 50753, Note_off_c, 2, 58, 64
4, 50880, Note_on_c, 2, 52, 107
4, 50993, Note_off_c, 2, 52, 64
4, 51120, Note_on_c, 2, 53, 107
4, 51312, Note_off_c, 2, 53, 64
4, 51360, Note_on_c, 2, 41, 107
4, 51552, Note_off_c, 2, 41, 64
4, 51960, Note_on_c, 2, 53, 107
4, 52056, Note_off_c, 2, 53, 64
4, 52080, Note_on_c, 2, 41, 107
4, 52176, Note_off_c, 2, 41, 64
4, 52200, Note_on_c, 2, 53, 107
4, 52296, Note_off_c, 2, 53, 64
4, 52320, Note_on_c, 2, 41, 107
4, 52416, Note_off_c, 2, 41, 64
4, 52440, Note_on_c, 2, 53, 107
4, 52536, Note_off_c, 2, 53, 64
4, 52560, Note_on_c, 2, 41, 107
4, 52752, Note_off_c, 2, 41, 64
4, 53400, Note_on_c, 2, 53, 107
4, 53496, Note_off_c, 2, 53, 64
4, 53520, Note_on_c, 2, 41, 107
4, 53616, Note_off_c, 2, 41, 64
4, 53640, Note_on_c, 2, 53, 107
4, 53736, Note_off_c, 2, 53, 64
4, 53760, Note_on_c, 2, 41, 107
4, 53856, Note_off_c, 2, 41, 64
4, 53880, Note_on_c, 2, 53, 107
4, 53976, Note_off_c, 2, 53, 64
4, 54000, Note_on_c, 2, 41, 107
4, 54096, Note_off_c, 2, 41, 64
4, 54240, Note_on_c, 2, 40, 107
4, 54336, Note_off_c, 2, 40, 64
4, 54480, Note_on_c, 2, 38, 107
4, 54576, Note_off_c, 2, 38, 64
4, 54720, Note_on_c, 2, 36, 107
4, 54816, Note_off_c, 2, 36, 64
4, 54960, Note_on_c, 2, 47, 107
4, 55056, Note_off_c, 2, 47, 64
4, 55200, Note_on_c, 2, 45, 107
4, 55296, Note_off_c, 2, 45, 64
4, 55440, Note_on_c, 2, 43, 107
4, 55536, Note_off_c, 2, 43, 64
4, 55680, Note_on_c, 2, 41, 107
4, 55776, Note_off_c, 2, 41, 64
4, 55920, Note_on_c, 2, 40, 107
4, 56016, Note_off_c, 2, 40, 64
4, 56160, Note_on_c, 2, 38, 107
4, 56256, Note_off_c, 2, 38, 64
4, 56400, Note_on_c, 2, 48, 107
4, 56496, Note_off_c, 2, 48, 64
4, 56640, Note_on_c, 2, 47, 107
4, 56736, Note_off_c, 2, 47, 64
4, 56880, Note_on_c, 2, 45, 107
4, 57072, Note_off_c, 2, 45, 64
4, 57720, Note_on_c, 2, 57, 107
4, 57816, Note_off_c, 2, 57, 64
4, 57840, Note_on_c, 2, 45, 107
4, 57936, Note_off_c, 2, 45, 64
4, 57960, Note_on_c, 2, 57, 107
4, 58056, Note_off_c, 2, 57, 64
4, 58080, Note_on_c, 2, 45, 107
4, 58176, Note_off_c, 2, 45, 64
4, 58200, Note_on_c, 2, 57, 107
4, 58296, Note_off_c, 2, 57, 64
4, 58320, Note_on_c, 2, 45, 107
4, 58512, Note_off_c, 2, 45, 64
4, 59160, Note_on_c, 2, 57, 107
4, 59256, Note_off_c, 2, 57, 64
4, 59280, Note_on_c, 2, 45, 107
4, 59376, Note_off_c, 2, 45, 64
4, 59400, Note_on_c, 2, 57, 107
4, 59496, Note_off_c, 2, 57, 64
4, 59520, Note_on_c, 2, 45, 107
4, 59616, Note_off_c, 2, 45, 64
4, 59640, Note_on_c, 2, 57, 107
4, 59736, Note_off_c, 2, 57, 64
4, 59760, Note_on_c, 2, 45, 107
4, 59856, Note_off_c, 2, 45, 64
4, 60000, Note_on_c, 2, 48, 107
4, 60096, Note_off_c, 2, 48, 64
4, 60240, Note_on_c, 2, 50, 107
4, 60336, Note_off_c, 2, 50, 64
4, 60480, Note_on_c, 2, 44, 107
4, 60576, Note_off_c, 2, 44, 64
4, 60720, Note_on_c, 2, 40, 107
4, 60816, Note_off_c, 2, 40, 64
4, 60960, Note_on_c, 2, 43, 107
4, 61392, Note_off_c, 2, 43, 64
4, 61440, Note_on_c, 2, 41, 107
4, 61536, Note_off_c, 2, 41, 64
4, 61680, Note_on_c, 2, 43, 107
4, 61776, Note_off_c, 2, 43, 64
4, 61920, Note_on_c, 2, 45, 110
4, 62016, Note_off_c, 2, 45, 64
4, 62040, Note_on_c, 2, 57, 110
4, 62136, Note_off_c, 2, 57, 64
4, 62160, Note_on_c, 2, 45, 110
4, 62256, Note_off_c, 2, 45, 64
4, 62280, Note_on_c, 2, 57, 110
4, 62376, Note_off_c, 2, 57, 64
4, 62400, Note_on_c, 2, 45, 110
4, 62496, Note_off_c, 2, 45, 64
4, 62520, Note_on_c, 2, 57, 110
4, 62616, Note_off_c, 2, 57, 64
4, 62640, Note_on_c, 2, 38, 110
4, 62736, Note_off_c, 2, 38, 64
4, 62760, Note_on_c, 2, 50, 110
4, 62952, Note_off_c, 2, 50, 64
4, 63000, Note_on_c, 2, 48, 110
4, 63096, Note_off_c, 2, 48, 64
4, 63120, Note_on_c, 2, 47, 110
4, 63216, Note_off_c, 2, 47, 64
4, 63240, Note_on_c, 2, 45, 110
4, 63336, Note_off_c, 2, 45, 64
4, 63360, Note_on_c, 2, 43, 110
4, 63456, Note_off_c, 2, 43, 64
4, 63480, Note_on_c, 2, 55, 110
4, 63672, Note_off_c, 2, 55, 64
4, 63720, Note_on_c, 2, 53, 110
4, 63816, Note_off_c, 2, 53, 64
4, 63840, Note_on_c, 2, 52, 110
4, 63936, Note_off_c, 2, 52, 64
4, 63960, Note_on_c, 2, 50, 110
4, 64056, Note_off_c, 2, 50, 64
4, 64080, Note_on_c, 2, 48, 110
4, 64176, Note_off_c, 2, 48, 64
4, 64200, Note_on_c, 2, 52, 110
4, 64392, Note_off_c, 2, 52, 64
4, 64440, Note_on_c, 2, 50, 110
4, 64536, Note_off_c, 2, 50, 64
4, 64560, Note_on_c, 2, 48, 110
4, 64656, Note_off_c, 2, 48, 64
4, 64680, Note_on_c, 2, 47, 110
4, 64776, Note_off_c, 2, 47, 64
4, 64800, Note_on_c, 2, 45, 110
4, 64896, Note_off_c, 2, 45, 64
4, 64920, Note_on_c, 2, 57, 110
4, 65112, Note_off_c, 2, 57, 64
4, 65160, Note_on_c, 2, 55, 110
4, 65256, Note_off_c, 2, 55, 64
4, 65280, Note_on_c, 2, 54, 110
4, 65376, Note_off_c, 2, 54, 64
4, 65400, Note_on_c, 2, 52, 110
4, 65496, Note_off_c, 2, 52, 64
4, 65520, Note_on_c, 2, 51, 110
4, 65616, Note_off_c, 2, 51, 64
4, 65760, Note_on_c, 2, 52, 110
4, 65856, Note_off_c, 2, 52, 64
4, 66000, Note_on_c, 2, 48, 110
4, 66096, Note_off_c, 2, 48, 64
4, 66240, Note_on_c, 2, 47, 110
4, 66336, Note_off_c, 2, 47, 64
4, 66480, Note_on_c, 2, 48, 110
4, 66576, Note_off_c, 2, 48, 64
4, 66720, Note_on_c, 2, 49, 110
4, 66816, Note_off_c, 2, 49, 64
4, 66960, Note_on_c, 2, 50, 110
4, 67056, Note_off_c, 2, 50, 64
4, 67200, Note_on_c, 2, 51, 110
4, 67296, Note_off_c, 2, 51, 64
4, 67440, Note_on_c, 2, 47, 110
4, 67536, Note_off_c, 2, 47, 64
4, 67680, Note_on_c, 2, 52, 110
4, 67776, Note_off_c, 2, 52, 64
4, 67920, Note_on_c, 2, 40, 110
4, 68016, Note_off_c, 2, 40, 64
4, 68160, Note_on_c, 2, 43, 105
4, 68256, Note_off_c, 2, 43, 64
4, 68400, Note_on_c, 2, 47, 110
4, 68496, Note_off_c, 2, 47, 64
4, 68640, Note_on_c, 2, 43, 110
4, 68736, Note_off_c, 2, 43, 64
4, 68880, Note_on_c, 2, 47, 110
4, 68976, Note_off_c, 2, 47, 64
4, 69120, Note_on_c, 2, 48, 110
4, 69216, Note_off_c, 2, 48, 64
4, 69360, Note_on_c, 2, 53, 110
4, 69456, Note_off_c, 2, 53, 64
4, 69600, Note_on_c, 2, 54, 110
4, 69696, Note_off_c, 2, 54, 64
4, 69840, Note_on_c, 2, 55, 110
4, 69936, Note_off_c, 2, 55, 64
4, 70080, Note_on_c, 2, 56, 110
4, 70176, Note_off_c, 2, 56, 64
4, 70320, Note_on_c, 2, 52, 110
4, 70416, Note_off_c, 2, 52, 64
4, 70560, Note_on_c, 2, 57, 110
4, 70656, Note_off_c, 2, 57, 64
4, 70800, Note_on_c, 2, 45, 110
4, 70896, Note_off_c, 2, 45, 64
4, 71040, Note_on_c, 2, 57, 110
4, 71232, Note_off_c, 2, 57, 64
4, 71280, Note_on_c, 2, 57, 110
4, 71472, Note_off_c, 2, 57, 64
4, 71520, Note_on_c, 2, 56, 110
4, 71616, Note_off_c, 2, 56, 64
4, 71640, Note_on_c, 2, 52, 110
4, 71736, Note_off_c, 2, 52, 64
4, 71760, Note_on_c, 2, 54, 110
4, 71856, Note_off_c, 2, 54, 64
4, 71880, Note_on_c, 2, 56, 110
4, 71976, Note_off_c, 2, 56, 64
4, 72000, Note_on_c, 2, 57, 110
4, 72192, Note_off_c, 2, 57, 64
4, 72360, Note_on_c, 2, 47, 110
4, 72456, Note_off_c, 2, 47, 64
4, 72480, Note_on_c, 2, 48, 110
4, 72576, Note_off_c, 2, 48, 64
4, 72600, Note_on_c, 2, 47, 110
4, 72696, Note_off_c, 2, 47, 64
4, 72720, Note_on_c, 2, 53, 110
4, 72816, Note_off_c, 2, 53, 64
4, 72960, Note_on_c, 2, 41, 110
4, 73056, Note_off_c, 2, 41, 64
4, 73200, Note_on_c, 2, 45, 110
4, 73296, Note_off_c, 2, 45, 64
4, 73440, Note_on_c, 2, 47, 110
4, 73632, Note_off_c, 2, 47, 64
4, 73800, Note_on_c, 2, 45, 110
4, 73896, Note_off_c, 2, 45, 64
4, 73920, Note_on_c, 2, 47, 110
4, 74016, Note_off_c, 2, 47, 64
4, 74040, Note_on_c, 2, 43, 110
4, 74136, Note_off_c, 2, 43, 64
4, 74160, Note_on_c, 2, 52, 110
4, 74256, Note_off_c, 2, 52, 64
4, 74400, Note_on_c, 2, 53, 110
4, 74496, Note_off_c, 2, 53, 64
4, 74640, Note_on_c, 2, 47, 110
4, 74736, Note_off_c, 2, 47, 64
4, 74880, Note_on_c, 2, 48, 110
4, 75072, Note_off_c, 2, 48, 64
4, 75720, Note_on_c, 2, 60, 110
4, 75816, Note_off_c, 2, 60, 64
4, 75840, Note_on_c, 2, 48, 110
4, 75936, Note_off_c, 2, 48, 64
4, 75960, Note_on_c, 2, 60, 110
4, 76056, Note_off_c, 2, 60, 64
4, 76080, Note_on_c, 2, 48, 110
4, 76176, Note_off_c, 2, 48, 64
4, 76200, Note_on_c, 2, 60, 110
4, 76296, Note_off_c, 2, 60, 64
4, 76320, Note_on_c, 2, 48, 110
4, 76512, Note_off_c, 2, 48, 64
4, 77160, Note_on_c, 2, 48, 110
4, 77256, Note_off_c, 2, 48, 64
4, 77280, Note_on_c, 2, 36, 110
4, 77376, Note_off_c, 2, 36, 64
4, 77400, Note_on_c, 2, 48, 110
4, 77496, Note_off_c, 2, 48, 64
4, 77520, Note_on_c, 2, 36, 110
4, 77616, Note_off_c, 2, 36, 64
4, 77640, Note_on_c, 2, 48, 110
4, 77736, Note_off_c, 2, 48, 64
4, 77760, Note_on_c, 2, 36, 110
4, 77952, Note_off_c, 2, 36, 64
4, 78000, Note_on_c, 2, 48, 110
4, 78192, Note_off_c, 2, 48, 64
4, 78360, Note_on_c, 2, 36, 110
4, 78456, Note_off_c, 2, 36, 64
4, 78480, Note_on_c, 2, 38, 110
4, 78672, Note_off_c, 2, 38, 64
4, 78720, Note_on_c, 2, 50, 110
4, 78912, Note_off_c, 2, 50, 64
4, 79080, Note_on_c, 2, 38, 110
4, 79176, Note_off_c, 2, 38, 64
4, 79200, Note_on_c, 2, 40, 110
4, 79425, Note_off_c, 2, 40, 64
4, 79440, Note_on_c, 2, 52, 110
4, 79665, Note_off_c, 2, 52, 64
4, 79800, Note_on_c, 2, 40, 110
4, 79896, Note_off_c, 2, 40, 64
4, 79920, Note_on_c, 2, 41, 110
4, 80145, Note_off_c, 2, 41, 64
4, 80160, Note_on_c, 2, 53, 110
4, 80385, Note_off_c, 2, 53, 64
4, 80520, Note_on_c, 2, 50, 105
4, 80616, Note_off_c, 2, 50, 64
4, 80640, Note_on_c, 2, 55, 110
4, 80832, Note_off_c, 2, 55, 64
4, 80880, Note_on_c, 2, 43, 110
4, 82896, Note_off_c, 2, 43, 64
4, 82920, Note_on_c, 2, 50, 110
4, 83016, Note_off_c, 2, 50, 64
4, 83040, Note_on_c, 2, 52, 110
4, 83136, Note_off_c, 2, 52, 64
4, 83160, Note_on_c, 2, 54, 110
4, 83256, Note_off_c, 2, 54, 64
4, 83280, Note_on_c, 2, 55, 110
4, 83376, Note_off_c, 2, 55, 64
4, 83400, Note_on_c, 2, 47, 110
4, 83496, Note_off_c, 2, 47, 64
4, 83520, Note_on_c, 2, 48, 110
4, 83616, Note_off_c, 2, 48, 64
4, 83640, Note_on_c, 2, 52, 110
4, 83736, Note_off_c, 2, 52, 64
4, 83760, Note_on_c, 2, 54, 110
4, 83856, Note_off_c, 2, 54, 64
4, 83880, Note_on_c, 2, 55, 110
4, 83976, Note_off_c, 2, 55, 64
4, 84000, Note_on_c, 2, 57, 110
4, 84096, Note_off_c, 2, 57, 64
4, 84120, Note_on_c, 2, 48, 110
4, 84216, Note_off_c, 2, 48, 64
4, 84240, Note_on_c, 2, 50, 110
4, 84336, Note_off_c, 2, 50, 64
4, 84360, Note_on_c, 2, 54, 110
4, 84456, Note_off_c, 2, 54, 64
4, 84480, Note_on_c, 2, 55, 110
4, 84576, Note_off_c, 2, 55, 64
4, 84600, Note_on_c, 2, 57, 110
4, 84696, Note_off_c, 2, 57, 64
4, 84720, Note_on_c, 2, 59, 110
4, 84816, Note_off_c, 2, 59, 64
4, 84840, Note_on_c, 2, 50, 110
4, 84936, Note_off_c, 2, 50, 64
4, 84960, Note_on_c, 2, 52, 110
4, 85056, Note_off_c, 2, 52, 64
4, 85080, Note_on_c, 2, 55, 110
4, 85176, Note_off_c, 2, 55, 64
4, 85200, Note_on_c, 2, 57, 110
4, 85296, Note_off_c, 2, 57, 64
4, 85320, Note_on_c, 2, 59, 110
4, 85416, Note_off_c, 2, 59, 64
4, 85440, Note_on_c, 2, 60, 110
4, 85536, Note_off_c, 2, 60, 64
4, 85560, Note_on_c, 2, 52, 110
4, 85656, Note_off_c, 2, 52, 64
4, 85680, Note_on_c, 2, 54, 110
4, 85776, Note_off_c, 2, 54, 64
4, 85800, Note_on_c, 2, 50, 110
4, 85896, Note_off_c, 2, 50, 64
4, 85920, Note_on_c, 2, 55, 110
4, 86016, Note_off_c, 2, 55, 64
4, 86040, Note_on_c, 2, 48, 110
4, 86136, Note_off_c, 2, 48, 64
4, 86160, Note_on_c, 2, 50, 110
4, 86256, Note_off_c, 2, 50, 64
4, 86280, Note_on_c, 2, 38, 110
4, 86376, Note_off_c, 2, 38, 64
4, 86400, Note_on_c, 2, 43, 110
4, 86592, Note_off_c, 2, 43, 64
4, 87240, Note_on_c, 2, 55, 110
4, 87336, Note_off_c, 2, 55, 64
4, 87360, Note_on_c, 2, 43, 110
4, 87456, Note_off_c, 2, 43, 64
4, 87480, Note_on_c, 2, 55, 110
4, 87576, Note_off_c, 2, 55, 64
4, 87600, Note_on_c, 2, 43, 110
4, 87696, Note_off_c, 2, 43, 64
4, 87720, Note_on_c, 2, 55, 110
4, 87816, Note_off_c, 2, 55, 64
4, 87840, Note_on_c, 2, 43, 110
4, 88032, Note_off_c, 2, 43, 64
4, 88680, Note_on_c, 2, 55, 110
4, 88776, Note_off_c, 2, 55, 64
4, 88800, Note_on_c, 2, 43, 110
4, 88896, Note_off_c, 2, 43, 64
4, 88920, Note_on_c, 2, 55, 110
4, 89016, Note_off_c, 2, 55, 64
4, 89040, Note_on_c, 2, 43, 110
4, 89136, Note_off_c, 2, 43, 64
4, 89160, Note_on_c, 2, 55, 110
4, 89256, Note_off_c, 2, 55, 64
4, 89280, Note_on_c, 2, 43, 110
4, 89472, Note_off_c, 2, 43, 64
4, 89520, Note_on_c, 2, 55, 110
4, 89712, Note_off_c, 2, 55, 64
4, 89880, Note_on_c, 2, 43, 110
4, 89976, Note_off_c, 2, 43, 64
4, 90000, Note_on_c, 2, 45, 110
4, 90192, Note_off_c, 2, 45, 64
4, 90240, Note_on_c, 2, 57, 110
4, 90432, Note_off_c, 2, 57, 64
4, 90600, Note_on_c, 2, 45, 110
4, 90696, Note_off_c, 2, 45, 64
4, 90720, Note_on_c, 2, 47, 110
4, 90945, Note_off_c, 2, 47, 64
4, 90960, Note_on_c, 2, 59, 110
4, 91185, Note_off_c, 2, 59, 64
4, 91320, Note_on_c, 2, 47, 110
4, 91416, Note_off_c, 2, 47, 64
4, 91440, Note_on_c, 2, 48, 110
4, 91632, Note_off_c, 2, 48, 64
4, 91680, Note_on_c, 2, 60, 110
4, 91872, Note_off_c, 2, 60, 64
4, 92040, Note_on_c, 2, 57, 110
4, 92136, Note_off_c, 2, 57, 64
4, 92160, Note_on_c, 2, 62, 110
4, 92352, Note_off_c, 2, 62, 64
4, 92400, Note_on_c, 2, 50, 110
4, 94416, Note_off_c, 2, 50, 64
4, 94440, Note_on_c, 2, 54, 110
4, 94536, Note_off_c, 2, 54, 64
4, 94560, Note_on_c, 2, 55, 110
4, 94656, Note_off_c, 2, 55, 64
4, 94680, Note_on_c, 2, 57, 110
4, 94776, Note_off_c, 2, 57, 64
4, 94800, Note_on_c, 2, 59, 110
4, 94896, Note_off_c, 2, 59, 64
4, 94920, Note_on_c, 2, 50, 110
4, 95016, Note_off_c, 2, 50, 64
4, 95040, Note_on_c, 2, 52, 110
4, 95136, Note_off_c, 2, 52, 64
4, 95160, Note_on_c, 2, 55, 110
4, 95256, Note_off_c, 2, 55, 64
4, 95280, Note_on_c, 2, 57, 110
4, 95376, Note_off_c, 2, 57, 64
4, 95400, Note_on_c, 2, 59, 110
4, 95496, Note_off_c, 2, 59, 64
4, 95520, Note_on_c, 2, 60, 110
4, 95616, Note_off_c, 2, 60, 64
4, 95640, Note_on_c, 2, 54, 110
4, 95736, Note_off_c, 2, 54, 64
4, 95760, Note_on_c, 2, 55, 110
4, 95856, Note_off_c, 2, 55, 64
4, 95880, Note_on_c, 2, 47, 110
4, 95976, Note_off_c, 2, 47, 64
4, 96000, Note_on_c, 2, 48, 110
4, 96096, Note_off_c, 2, 48, 64
4, 96120, Note_on_c, 2, 50, 110
4, 96216, Note_off_c, 2, 50, 64
4, 96240, Note_on_c, 2, 52, 110
4, 96336, Note_off_c, 2, 52, 64
4, 96360, Note_on_c, 2, 43, 110
4, 96456, Note_off_c, 2, 43, 64
4, 96480, Note_on_c, 2, 45, 110
4, 96576, Note_off_c, 2, 45, 64
4, 96600, Note_on_c, 2, 48, 110
4, 96696, Note_off_c, 2, 48, 64
4, 96720, Note_on_c, 2, 50, 110
4, 96816, Note_off_c, 2, 50, 64
4, 96840, Note_on_c, 2, 52, 110
4, 96936, Note_off_c, 2, 52, 64
4, 96960, Note_on_c, 2, 53, 110
4, 97056, Note_off_c, 2, 53, 64
4, 97080, Note_on_c, 2, 47, 110
4, 97176, Note_off_c, 2, 47, 64
4, 97200, Note_on_c, 2, 48, 110
4, 97296, Note_off_c, 2, 48, 64
4, 97320, Note_on_c, 2, 48, 110
4, 97416, Note_off_c, 2, 48, 64
4, 97440, Note_on_c, 2, 36, 110
4, 97536, Note_off_c, 2, 36, 64
4, 97560, Note_on_c, 2, 48, 110
4, 97656, Note_off_c, 2, 48, 64
4, 97680, Note_on_c, 2, 36, 110
4, 97776, Note_off_c, 2, 36, 64
4, 97800, Note_on_c, 2, 48, 110
4, 97896, Note_off_c, 2, 48, 64
4, 97920, Note_on_c, 2, 38, 110
4, 98016, Note_off_c, 2, 38, 64
4, 98040, Note_on_c, 2, 50, 110
4, 98136, Note_off_c, 2, 50, 64
4, 98160, Note_on_c, 2, 38, 110
4, 98256, Note_off_c, 2, 38, 64
4, 98280, Note_on_c, 2, 50, 110
4, 98376, Note_off_c, 2, 50, 64
4, 98400, Note_on_c, 2, 38, 110
4, 98496, Note_off_c, 2, 38, 64
4, 98520, Note_on_c, 2, 50, 110
4, 98616, Note_off_c, 2, 50, 64
4, 98640, Note_on_c, 2, 40, 110
4, 98736, Note_off_c, 2, 40, 64
4, 98760, Note_on_c, 2, 52, 110
4, 98856, Note_off_c, 2, 52, 64
4, 98880, Note_on_c, 2, 40, 110
4, 98976, Note_off_c, 2, 40, 64
4, 99000, Note_on_c, 2, 52, 110
4, 99096, Note_off_c, 2, 52, 64
4, 99120, Note_on_c, 2, 40, 110
4, 99216, Note_off_c, 2, 40, 64
4, 99240, Note_on_c, 2, 52, 110
4, 99336, Note_off_c, 2, 52, 64
4, 99360, Note_on_c, 2, 41, 110
4, 102336, Note_off_c, 2, 41, 64
4, 102360, Note_on_c, 2, 53, 110
4, 102456, Note_off_c, 2, 53, 64
4, 102480, Note_on_c, 2, 50, 110
4, 102576, Note_off_c, 2, 50, 64
4, 102600, Note_on_c, 2, 53, 110
4, 102696, Note_off_c, 2, 53, 64
4, 102720, Note_on_c, 2, 47, 110
4, 102816, Note_off_c, 2, 47, 64
4, 102840, Note_on_c, 2, 50, 110
4, 102936, Note_off_c, 2, 50, 64
4, 102960, Note_on_c, 2, 40, 110
4, 103056, Note_off_c, 2, 40, 64
4, 103080, Note_on_c, 2, 52, 110
4, 103176, Note_off_c, 2, 52, 64
4, 103200, Note_on_c, 2, 48, 110
4, 103296, Note_off_c, 2, 48, 64
4, 103320, Note_on_c, 2, 52, 110
4, 103416, Note_off_c, 2, 52, 64
4, 103440, Note_on_c, 2, 45, 110
4, 103536, Note_off_c, 2, 45, 64
4, 103560, Note_on_c, 2, 48, 110
4, 103656, Note_off_c, 2, 48, 64
4, 103680, Note_on_c, 2, 38, 110
4, 103776, Note_off_c, 2, 38, 64
4, 103800, Note_on_c, 2, 50, 110
4, 103896, Note_off_c, 2, 50, 64
4, 103920, Note_on_c, 2, 47, 110
4, 104016, Note_off_c, 2, 47, 64
4, 104040, Note_on_c, 2, 50, 110
4, 104136, Note_off_c, 2, 50, 64
4, 104160, Note_on_c, 2, 43, 110
4, 104256, Note_off_c, 2, 43, 64
4, 104280, Note_on_c, 2, 47, 110
4, 104376, Note_off_c, 2, 47, 64
4, 104400, Note_on_c, 2, 36, 110
4, 107376, Note_off_c, 2, 36, 64
4, 107400, Note_on_c, 2, 43, 110
4, 107496, Note_off_c, 2, 43, 64
4, 107520, Note_on_c, 2, 45, 110
4, 107616, Note_off_c, 2, 45, 64
4, 107640, Note_on_c, 2, 47, 110
4, 107736, Note_off_c, 2, 47, 64
4, 107760, Note_on_c, 2, 48, 110
4, 107856, Note_off_c, 2, 48, 64
4, 107880, Note_on_c, 2, 40, 110
4, 107976, Note_off_c, 2, 40, 64
4, 108000, Note_on_c, 2, 41, 110
4, 108096, Note_off_c, 2, 41, 64
4, 108120, Note_on_c, 2, 45, 110
4, 108216, Note_off_c, 2, 45, 64
4, 108240, Note_on_c, 2, 47, 110
4, 108336, Note_off_c, 2, 47, 64
4, 108360, Note_on_c, 2, 48, 110
4, 108456, Note_off_c, 2, 48, 64
4, 108480, Note_on_c, 2, 50, 110
4, 108576, Note_off_c, 2, 50, 64
4, 108600, Note_on_c, 2, 41, 110
4, 108696, Note_off_c, 2, 41, 64
4, 108720, Note_on_c, 2, 43, 110
4, 108816, Note_off_c, 2, 43, 64
4, 108840, Note_on_c, 2, 47, 110
4, 108936, Note_off_c, 2, 47, 64
4, 108960, Note_on_c, 2, 48, 110
4, 109056, Note_off_c, 2, 48, 64
4, 109080, Note_on_c, 2, 50, 110
4, 109176, Note_off_c, 2, 50, 64
4, 109200, Note_on_c, 2, 52, 110
4, 109296, Note_off_c, 2, 52, 64
4, 109320, Note_on_c, 2, 43, 110
4, 109416, Note_off_c, 2, 43, 64
4, 109440, Note_on_c, 2, 45, 110
4, 109536, Note_off_c, 2, 45, 64
4, 109560, Note_on_c, 2, 48, 110
4, 109656, Note_off_c, 2, 48, 64
4, 109680, Note_on_c, 2, 50, 110
4, 109776, Note_off_c, 2, 50, 64
4, 109800, Note_on_c, 2, 52, 110
4, 109896, Note_off_c, 2, 52, 64
4, 109920, Note_on_c, 2, 53, 110
4, 110016, Note_off_c, 2, 53, 64
4, 110040, Note_on_c, 2, 45, 110
4, 110136, Note_off_c, 2, 45, 64
4, 110160, Note_on_c, 2, 47, 110
4, 110256, Note_off_c, 2, 47, 64
4, 110280, Note_on_c, 2, 43, 110
4, 110376, Note_off_c, 2, 43, 64
4, 110400, Note_on_c, 2, 48, 110
4, 110496, Note_off_c, 2, 48, 64
4, 110520, Note_on_c, 2, 53, 110
4, 110616, Note_off_c, 2, 53, 64
4, 110640, Note_on_c, 2, 55, 110
4, 110736, Note_off_c, 2, 55, 64
4, 110760, Note_on_c, 2, 43, 110
4, 110856, Note_off_c, 2, 43, 64
4, 110880, Note_on_c, 2, 48, 110
4, 111072, Note_off_c, 2, 48, 64
4, 111072, End_track
0, 0, End_of_file
