0, 0, Header, 1, 4, 240
1, 0, Start_track
1, 0, Time_signature, 2, 2, 24, 8
1, 0, Tempo, 666667
1, 77520, Tempo, 857143
1, 77760, Tempo, 1200000
1, 78000, Tempo, 2000000
1, 78000, End_track
2, 0, Start_track
2, 0, Title_t, "Trio Sonata 5, 3rd Mov. BWV 529"
2, 0, Program_c, 0, 19
2, 120, Note_on_c, 0, 79, 107
2, 216, Note_off_c, 0, 79, 64
2, 240, Note_on_c, 0, 76, 107
2, 336, Note_off_c, 0, 76, 64
2, 360, Note_on_c, 0, 81, 107
2, 456, Note_off_c, 0, 81, 64
2, 480, Note_on_c, 0, 77, 107
2, 576, Note_off_c, 0, 77, 64
2, 600, Note_on_c, 0, 74, 107
2, 696, Note_off_c, 0, 74, 64
2, 720, Note_on_c, 0, 79, 107
2, 1008, Note_off_c, 0, 79, 64
2, 1020, Note_on_c, 0, 72, 107
2, 1068, Note_off_c, 0, 72, 64
2, 1080, Note_on_c, 0, 74, 107
2, 1128, Note_off_c, 0, 74, 64
2, 1140, Note_on_c, 0, 76, 107
2, 1188, Note_off_c, 0, 76, 64
2, 1200, Note_on_c, 0, 77, 107
2, 1296, Note_off_c, 0, 77, 64
2, 1320, Note_on_c, 0, 69, 107
2, 1416, Note_off_c, 0, 69, 64
2, 1440, Note_on_c, 0, 67, 107
2, 1536, Note_off_c, 0, 67, 64
2, 1560, Note_on_c, 0, 77, 107
2, 1656, Note_off_c, 0, 77, 64
2, 1680, Note_on_c, 0, 77, 107
2, 1695, Note_off_c, 0, 77, 64
2, 1695, Note_on_c, 0, 76, 107
2, 1710, Note_off_c, 0, 76, 64
2, 1710, Note_on_c, 0, 77, 107
2, 1725, Note_off_c, 0, 77, 64
2, 1725, Note_on_c, 0, 76, 107
2, 1740, Note_off_c, 0, 76, 64
2, 1740, Note_on_c, 0, 74, 107
2, 1788, Note_off_c, 0, 74, 64
2, 1800, Note_on_c, 0, 76, 107
2, 1848, Note_off_c, 0, 76, 64
2, 1860, Note_on_c, 0, 77, 107
2, 1908, Note_off_c, 0, 77, 64
2, 1920, Note_on_c, 0, 74, 107
2, 2016, Note_off_c, 0, 74, 64
2, 2040, Note_on_c, 0, 76, 107
2, 2088, Note_off_c, 0, 76, 64
2, 2100, Note_on_c, 0, 78, 107
2, 2148, Note_off_c, 0, 78, 64
2, 2160, Note_on_c, 0, 79, 107
2, 2208, Note_off_c, 0, 79, 64
2, 2220, Note_on_c, 0, 81, 107
2, 2268, Note_off_c, 0, 81, 64
2, 2280, Note_on_c, 0, 83, 107
2, 2328, Note_off_c, 0, 83, 64
2, 2340, Note_on_c, 0, 79, 107
2, 2388, Note_off_c, 0, 79, 64
2, 2400, Note_on_c, 0, 81, 107
2, 2448, Note_off_c, 0, 81, 64
2, 2460, Note_on_c, 0, 79, 107
2, 2508, Note_off_c, 0, 79, 64
2, 2520, Note_on_c, 0, 81, 107
2, 2568, Note_off_c, 0, 81, 64
2, 2580, Note_on_c, 0, 83, 107
2, 2628, Note_off_c, 0, 83, 64
2, 2640, Note_on_c, 0, 81, 107
2, 2688, Note_off_c, 0, 81, 64
2, 2700, Note_on_c, 0, 84, 107
2, 2748, Note_off_c, 0, 84, 64
2, 2760, Note_on_c, 0, 83, 107
2, 2808, Note_off_c, 0, 83, 64
2, 2820, Note_on_c, 0, 81, 107
2, 2868, Note_off_c, 0, 81, 64
2, 2880, Note_on_c, 0, 79, 107
2, 3168, Note_off_c, 0, 79, 64
2, 3180, Note_on_c, 0, 76, 107
2, 3228, Note_off_c, 0, 76, 64
2, 3240, Note_on_c, 0, 74, 107
2, 3288, Note_off_c, 0, 74, 64
2, 3300, Note_on_c, 0, 72, 107
2, 3348, Note_off_c, 0, 72, 64
2, 3360, Note_on_c, 0, 81, 107
2, 3408, Note_off_c, 0, 81, 64
2, 3420, Note_on_c, 0, 79, 107
2, 3468, Note_off_c, 0, 79, 64
2, 3480, Note_on_c, 0, 78, 107
2, 3528, Note_off_c, 0, 78, 64
2, 3540, Note_on_c, 0, 76, 107
2, 3588, Note_off_c, 0, 76, 64
2, 3600, Note_on_c, 0, 74, 107
2, 3696, Note_off_c, 0, 74, 64
2, 3720, Note_on_c, 0, 79, 107
2, 3888, Note_off_c, 0, 79, 64
2, 3900, Note_on_c, 0, 78, 107
2, 3948, Note_off_c, 0, 78, 64
2, 3960, Note_on_c, 0, 79, 107
2, 4008, Note_off_c, 0, 79, 64
2, 4020, Note_on_c, 0, 76, 107
2, 4068, Note_off_c, 0, 76, 64
2, 4080, Note_on_c, 0, 78, 107
2, 4176, Note_off_c, 0, 78, 64
2, 4200, Note_on_c, 0, 83, 107
2, 4296, Note_off_c, 0, 83, 64
2, 4320, Note_on_c, 0, 79, 107
2, 4416, Note_off_c, 0, 79, 64
2, 4440, Note_on_c, 0, 76, 107
2, 4536, Note_off_c, 0, 76, 64
2, 4560, Note_on_c, 0, 81, 107
2, 4848, Note_off_c, 0, 81, 64
2, 4860, Note_on_c, 0, 74, 107
2, 4908, Note_off_c, 0, 74, 64
2, 4920, Note_on_c, 0, 76, 107
2, 4968, Note_off_c, 0, 76, 64
2, 4980, Note_on_c, 0, 78, 107
2, 5028, Note_off_c, 0, 78, 64
2, 5040, Note_on_c, 0, 79, 107
2, 5472, Note_off_c, 0, 79, 64
2, 5520, Note_on_c, 0, 79, 107
2, 5535, Note_off_c, 0, 79, 64
2, 5535, Note_on_c, 0, 78, 107
2, 5547, Note_off_c, 0, 78, 64
2, 5550, Note_on_c, 0, 79, 107
2, 5562, Note_off_c, 0, 79, 64
2, 5565, Note_on_c, 0, 78, 107
2, 5577, Note_off_c, 0, 78, 64
2, 5580, Note_on_c, 0, 79, 107
2, 5592, Note_off_c, 0, 79, 64
2, 5595, Note_on_c, 0, 78, 107
2, 5607, Note_off_c, 0, 78, 64
2, 5610, Note_on_c, 0, 79, 107
2, 5622, Note_off_c, 0, 79, 64
2, 5625, Note_on_c, 0, 78, 107
2, 5637, Note_off_c, 0, 78, 64
2, 5640, Note_on_c, 0, 79, 107
2, 5652, Note_off_c, 0, 79, 64
2, 5655, Note_on_c, 0, 78, 107
2, 5667, Note_off_c, 0, 78, 64
2, 5670, Note_on_c, 0, 79, 107
2, 5682, Note_off_c, 0, 79, 64
2, 5685, Note_on_c, 0, 78, 107
2, 5697, Note_off_c, 0, 78, 64
2, 5700, Note_on_c, 0, 76, 107
2, 5724, Note_off_c, 0, 76, 64
2, 5730, Note_on_c, 0, 78, 107
2, 5754, Note_off_c, 0, 78, 64
2, 5760, Note_on_c, 0, 79, 107
2, 5952, Note_off_c, 0, 79, 64
2, 6060, Note_on_c, 0, 79, 107
2, 6108, Note_off_c, 0, 79, 64
2, 6120, Note_on_c, 0, 74, 107
2, 6168, Note_off_c, 0, 74, 64
2, 6180, Note_on_c, 0, 77, 107
2, 6228, Note_off_c, 0, 77, 64
2, 6240, Note_on_c, 0, 76, 107
2, 6288, Note_off_c, 0, 76, 64
2, 6300, Note_on_c, 0, 79, 107
2, 6348, Note_off_c, 0, 79, 64
2, 6360, Note_on_c, 0, 71, 107
2, 6408, Note_off_c, 0, 71, 64
2, 6420, Note_on_c, 0, 74, 107
2, 6468, Note_off_c, 0, 74, 64
2, 6480, Note_on_c, 0, 72, 107
2, 6528, Note_off_c, 0, 72, 64
2, 6540, Note_on_c, 0, 76, 107
2, 6588, Note_off_c, 0, 76, 64
2, 6600, Note_on_c, 0, 74, 107
2, 6648, Note_off_c, 0, 74, 64
2, 6660, Note_on_c, 0, 72, 107
2, 6708, Note_off_c, 0, 72, 64
2, 6720, Note_on_c, 0, 71, 107
2, 6768, Note_off_c, 0, 71, 64
2, 6780, Note_on_c, 0, 67, 107
2, 6828, Note_off_c, 0, 67, 64
2, 6840, Note_on_c, 0, 71, 107
2, 6888, Note_off_c, 0, 71, 64
2, 6900, Note_on_c, 0, 74, 107
2, 6948, Note_off_c, 0, 74, 64
2, 6960, Note_on_c, 0, 79, 107
2, 7872, Note_off_c, 0, 79, 64
2, 7980, Note_on_c, 0, 76, 107
2, 8028, Note_off_c, 0, 76, 64
2, 8040, Note_on_c, 0, 71, 107
2, 8088, Note_off_c, 0, 71, 64
2, 8100, Note_on_c, 0, 74, 107
2, 8148, Note_off_c, 0, 74, 64
2, 8160, Note_on_c, 0, 72, 107
2, 8256, Note_off_c, 0, 72, 64
2, 8280, Note_on_c, 0, 81, 107
2, 8376, Note_off_c, 0, 81, 64
2, 8460, Note_on_c, 0, 74, 107
2, 8508, Note_off_c, 0, 74, 64
2, 8520, Note_on_c, 0, 69, 107
2, 8568, Note_off_c, 0, 69, 64
2, 8580, Note_on_c, 0, 72, 107
2, 8628, Note_off_c, 0, 72, 64
2, 8640, Note_on_c, 0, 71, 107
2, 8736, Note_off_c, 0, 71, 64
2, 8760, Note_on_c, 0, 79, 107
2, 8856, Note_off_c, 0, 79, 64
2, 8940, Note_on_c, 0, 72, 107
2, 8988, Note_off_c, 0, 72, 64
2, 9000, Note_on_c, 0, 67, 107
2, 9048, Note_off_c, 0, 67, 64
2, 9060, Note_on_c, 0, 70, 107
2, 9108, Note_off_c, 0, 70, 64
2, 9120, Note_on_c, 0, 69, 107
2, 9216, Note_off_c, 0, 69, 64
2, 9240, Note_on_c, 0, 81, 107
2, 9288, Note_off_c, 0, 81, 64
2, 9300, Note_on_c, 0, 79, 107
2, 9348, Note_off_c, 0, 79, 64
2, 9360, Note_on_c, 0, 77, 107
2, 9408, Note_off_c, 0, 77, 64
2, 9420, Note_on_c, 0, 76, 107
2, 9468, Note_off_c, 0, 76, 64
2, 9480, Note_on_c, 0, 74, 107
2, 9528, Note_off_c, 0, 74, 64
2, 9540, Note_on_c, 0, 72, 107
2, 9588, Note_off_c, 0, 72, 64
2, 9600, Note_on_c, 0, 71, 107
2, 9696, Note_off_c, 0, 71, 64
2, 9720, Note_on_c, 0, 67, 107
2, 9816, Note_off_c, 0, 67, 64
2, 9900, Note_on_c, 0, 79, 107
2, 9948, Note_off_c, 0, 79, 64
2, 9960, Note_on_c, 0, 76, 107
2, 10008, Note_off_c, 0, 76, 64
2, 10020, Note_on_c, 0, 72, 107
2, 10068, Note_off_c, 0, 72, 64
2, 10080, Note_on_c, 0, 74, 107
2, 10128, Note_off_c, 0, 74, 64
2, 10140, Note_on_c, 0, 72, 107
2, 10188, Note_off_c, 0, 72, 64
2, 10200, Note_on_c, 0, 74, 107
2, 10248, Note_off_c, 0, 74, 64
2, 10260, Note_on_c, 0, 76, 107
2, 10308, Note_off_c, 0, 76, 64
2, 10320, Note_on_c, 0, 74, 107
2, 10368, Note_off_c, 0, 74, 64
2, 10380, Note_on_c, 0, 79, 107
2, 10428, Note_off_c, 0, 79, 64
2, 10440, Note_on_c, 0, 74, 107
2, 10488, Note_off_c, 0, 74, 64
2, 10500, Note_on_c, 0, 71, 107
2, 10548, Note_off_c, 0, 71, 64
2, 10560, Note_on_c, 0, 72, 107
2, 10608, Note_off_c, 0, 72, 64
2, 10620, Note_on_c, 0, 71, 107
2, 10668, Note_off_c, 0, 71, 64
2, 10680, Note_on_c, 0, 72, 107
2, 10728, Note_off_c, 0, 72, 64
2, 10740, Note_on_c, 0, 74, 107
2, 10788, Note_off_c, 0, 74, 64
2, 10800, Note_on_c, 0, 72, 107
2, 10848, Note_off_c, 0, 72, 64
2, 10860, Note_on_c, 0, 76, 107
2, 10908, Note_off_c, 0, 76, 64
2, 10920, Note_on_c, 0, 72, 107
2, 10968, Note_off_c, 0, 72, 64
2, 10980, Note_on_c, 0, 69, 107
2, 11028, Note_off_c, 0, 69, 64
2, 11040, Note_on_c, 0, 71, 107
2, 11088, Note_off_c, 0, 71, 64
2, 11100, Note_on_c, 0, 69, 107
2, 11148, Note_off_c, 0, 69, 64
2, 11160, Note_on_c, 0, 71, 107
2, 11208, Note_off_c, 0, 71, 64
2, 11220, Note_on_c, 0, 72, 107
2, 11268, Note_off_c, 0, 72, 64
2, 11280, Note_on_c, 0, 71, 107
2, 11328, Note_off_c, 0, 71, 64
2, 11340, Note_on_c, 0, 76, 107
2, 11388, Note_off_c, 0, 76, 64
2, 11400, Note_on_c, 0, 71, 107
2, 11448, Note_off_c, 0, 71, 64
2, 11460, Note_on_c, 0, 67, 107
2, 11508, Note_off_c, 0, 67, 64
2, 11520, Note_on_c, 0, 69, 107
2, 11568, Note_off_c, 0, 69, 64
2, 11580, Note_on_c, 0, 67, 107
2, 11628, Note_off_c, 0, 67, 64
2, 11640, Note_on_c, 0, 69, 107
2, 11688, Note_off_c, 0, 69, 64
2, 11700, Note_on_c, 0, 71, 107
2, 11748, Note_off_c, 0, 71, 64
2, 11760, Note_on_c, 0, 69, 107
2, 11808, Note_off_c, 0, 69, 64
2, 11820, Note_on_c, 0, 72, 107
2, 11868, Note_off_c, 0, 72, 64
2, 11880, Note_on_c, 0, 69, 107
2, 11928, Note_off_c, 0, 69, 64
2, 11940, Note_on_c, 0, 65, 107
2, 11988, Note_off_c, 0, 65, 64
2, 12000, Note_on_c, 0, 67, 107
2, 12288, Note_off_c, 0, 67, 64
2, 12300, Note_on_c, 0, 76, 107
2, 12348, Note_off_c, 0, 76, 64
2, 12360, Note_on_c, 0, 72, 107
2, 12408, Note_off_c, 0, 72, 64
2, 12420, Note_on_c, 0, 69, 107
2, 12468, Note_off_c, 0, 69, 64
2, 12480, Note_on_c, 0, 65, 107
2, 12576, Note_off_c, 0, 65, 64
2, 12600, Note_on_c, 0, 69, 107
2, 12816, Note_off_c, 0, 69, 64
2, 12840, Note_on_c, 0, 67, 107
2, 12888, Note_off_c, 0, 67, 64
2, 12900, Note_on_c, 0, 65, 107
2, 12948, Note_off_c, 0, 65, 64
2, 12960, Note_on_c, 0, 64, 107
2, 13056, Note_off_c, 0, 64, 64
2, 13080, Note_on_c, 0, 72, 107
2, 13176, Note_off_c, 0, 72, 64
2, 13200, Note_on_c, 0, 62, 107
2, 13296, Note_off_c, 0, 62, 64
2, 13320, Note_on_c, 0, 71, 107
2, 13416, Note_off_c, 0, 71, 64
2, 13440, Note_on_c, 0, 60, 107
2, 13488, Note_off_c, 0, 60, 64
2, 13500, Note_on_c, 0, 62, 107
2, 13548, Note_off_c, 0, 62, 64
2, 13560, Note_on_c, 0, 60, 107
2, 13608, Note_off_c, 0, 60, 64
2, 13620, Note_on_c, 0, 62, 107
2, 13668, Note_off_c, 0, 62, 64
2, 13680, Note_on_c, 0, 64, 107
2, 13728, Note_off_c, 0, 64, 64
2, 13740, Note_on_c, 0, 65, 107
2, 13788, Note_off_c, 0, 65, 64
2, 13800, Note_on_c, 0, 64, 107
2, 13848, Note_off_c, 0, 64, 64
2, 13860, Note_on_c, 0, 65, 107
2, 13908, Note_off_c, 0, 65, 64
2, 13920, Note_on_c, 0, 62, 107
2, 13968, Note_off_c, 0, 62, 64
2, 13980, Note_on_c, 0, 64, 107
2, 14028, Note_off_c, 0, 64, 64
2, 14040, Note_on_c, 0, 62, 107
2, 14088, Note_off_c, 0, 62, 64
2, 14100, Note_on_c, 0, 64, 107
2, 14148, Note_off_c, 0, 64, 64
2, 14160, Note_on_c, 0, 65, 107
2, 14208, Note_off_c, 0, 65, 64
2, 14220, Note_on_c, 0, 67, 107
2, 14268, Note_off_c, 0, 67, 64
2, 14280, Note_on_c, 0, 65, 107
2, 14328, Note_off_c, 0, 65, 64
2, 14340, Note_on_c, 0, 67, 107
2, 14388, Note_off_c, 0, 67, 64
2, 14400, Note_on_c, 0, 64, 107
2, 14496, Note_off_c, 0, 64, 64
2, 14520, Note_on_c, 0, 72, 107
2, 14616, Note_off_c, 0, 72, 64
2, 14640, Note_on_c, 0, 60, 107
2, 14736, Note_off_c, 0, 60, 64
2, 14760, Note_on_c, 0, 72, 107
2, 14856, Note_off_c, 0, 72, 64
2, 14880, Note_on_c, 0, 65, 107
2, 14976, Note_off_c, 0, 65, 64
2, 15000, Note_on_c, 0, 72, 107
2, 15096, Note_off_c, 0, 72, 64
2, 15120, Note_on_c, 0, 62, 107
2, 15216, Note_off_c, 0, 62, 64
2, 15240, Note_on_c, 0, 71, 107
2, 15336, Note_off_c, 0, 71, 64
2, 15360, Note_on_c, 0, 72, 107
2, 15456, Note_off_c, 0, 72, 64
2, 15600, Note_on_c, 0, 79, 107
2, 15696, Note_off_c, 0, 79, 64
2, 15840, Note_on_c, 0, 81, 107
2, 15936, Note_off_c, 0, 81, 64
2, 16080, Note_on_c, 0, 83, 107
2, 16176, Note_off_c, 0, 83, 64
2, 16440, Note_on_c, 0, 84, 107
2, 16488, Note_off_c, 0, 84, 64
2, 16500, Note_on_c, 0, 83, 107
2, 16548, Note_off_c, 0, 83, 64
2, 16560, Note_on_c, 0, 81, 107
2, 16608, Note_off_c, 0, 81, 64
2, 16620, Note_on_c, 0, 79, 107
2, 16668, Note_off_c, 0, 79, 64
2, 16680, Note_on_c, 0, 77, 107
2, 16728, Note_off_c, 0, 77, 64
2, 16740, Note_on_c, 0, 76, 107
2, 16788, Note_off_c, 0, 76, 64
2, 16800, Note_on_c, 0, 74, 107
2, 16848, Note_off_c, 0, 74, 64
2, 16860, Note_on_c, 0, 76, 107
2, 16908, Note_off_c, 0, 76, 64
2, 16920, Note_on_c, 0, 74, 107
2, 16968, Note_off_c, 0, 74, 64
2, 16980, Note_on_c, 0, 76, 107
2, 17028, Note_off_c, 0, 76, 64
2, 17040, Note_on_c, 0, 77, 107
2, 17088, Note_off_c, 0, 77, 64
2, 17100, Note_on_c, 0, 79, 107
2, 17148, Note_off_c, 0, 79, 64
2, 17160, Note_on_c, 0, 77, 107
2, 17208, Note_off_c, 0, 77, 64
2, 17220, Note_on_c, 0, 79, 107
2, 17268, Note_off_c, 0, 79, 64
2, 17280, Note_on_c, 0, 72, 107
2, 17328, Note_off_c, 0, 72, 64
2, 17340, Note_on_c, 0, 74, 107
2, 17388, Note_off_c, 0, 74, 64
2, 17400, Note_on_c, 0, 72, 107
2, 17448, Note_off_c, 0, 72, 64
2, 17460, Note_on_c, 0, 74, 107
2, 17508, Note_off_c, 0, 74, 64
2, 17520, Note_on_c, 0, 76, 107
2, 17568, Note_off_c, 0, 76, 64
2, 17580, Note_on_c, 0, 77, 107
2, 17628, Note_off_c, 0, 77, 64
2, 17640, Note_on_c, 0, 76, 107
2, 17688, Note_off_c, 0, 76, 64
2, 17700, Note_on_c, 0, 77, 107
2, 17748, Note_off_c, 0, 77, 64
2, 17760, Note_on_c, 0, 71, 107
2, 17808, Note_off_c, 0, 71, 64
2, 17820, Note_on_c, 0, 72, 107
2, 17868, Note_off_c, 0, 72, 64
2, 17880, Note_on_c, 0, 71, 107
2, 17928, Note_off_c, 0, 71, 64
2, 17940, Note_on_c, 0, 72, 107
2, 17988, Note_off_c, 0, 72, 64
2, 18000, Note_on_c, 0, 74, 107
2, 18048, Note_off_c, 0, 74, 64
2, 18060, Note_on_c, 0, 76, 107
2, 18108, Note_off_c, 0, 76, 64
2, 18120, Note_on_c, 0, 74, 107
2, 18168, Note_off_c, 0, 74, 64
2, 18180, Note_on_c, 0, 76, 107
2, 18228, Note_off_c, 0, 76, 64
2, 18240, Note_on_c, 0, 72, 107
2, 18336, Note_off_c, 0, 72, 64
2, 18360, Note_on_c, 0, 76, 107
2, 18456, Note_off_c, 0, 76, 64
2, 18480, Note_on_c, 0, 69, 107
2, 18576, Note_off_c, 0, 69, 64
2, 18600, Note_on_c, 0, 81, 107
2, 18696, Note_off_c, 0, 81, 64
2, 18720, Note_on_c, 0, 77, 107
2, 18816, Note_off_c, 0, 77, 64
2, 18840, Note_on_c, 0, 81, 107
2, 18936, Note_off_c, 0, 81, 64
2, 18960, Note_on_c, 0, 71, 107
2, 19056, Note_off_c, 0, 71, 64
2, 19080, Note_on_c, 0, 80, 107
2, 19176, Note_off_c, 0, 80, 64
2, 19200, Note_on_c, 0, 69, 107
2, 19248, Note_off_c, 0, 69, 64
2, 19260, Note_on_c, 0, 71, 107
2, 19308, Note_off_c, 0, 71, 64
2, 19320, Note_on_c, 0, 69, 107
2, 19368, Note_off_c, 0, 69, 64
2, 19380, Note_on_c, 0, 71, 107
2, 19428, Note_off_c, 0, 71, 64
2, 19440, Note_on_c, 0, 72, 107
2, 19488, Note_off_c, 0, 72, 64
2, 19500, Note_on_c, 0, 74, 107
2, 19548, Note_off_c, 0, 74, 64
2, 19560, Note_on_c, 0, 72, 107
2, 19608, Note_off_c, 0, 72, 64
2, 19620, Note_on_c, 0, 74, 107
2, 19668, Note_off_c, 0, 74, 64
2, 19680, Note_on_c, 0, 71, 107
2, 19728, Note_off_c, 0, 71, 64
2, 19740, Note_on_c, 0, 72, 107
2, 19788, Note_off_c, 0, 72, 64
2, 19800, Note_on_c, 0, 71, 107
2, 19848, Note_off_c, 0, 71, 64
2, 19860, Note_on_c, 0, 72, 107
2, 19908, Note_off_c, 0, 72, 64
2, 19920, Note_on_c, 0, 74, 107
2, 19968, Note_off_c, 0, 74, 64
2, 19980, Note_on_c, 0, 76, 107
2, 20028, Note_off_c, 0, 76, 64
2, 20040, Note_on_c, 0, 74, 107
2, 20088, Note_off_c, 0, 74, 64
2, 20100, Note_on_c, 0, 76, 107
2, 20148, Note_off_c, 0, 76, 64
2, 20160, Note_on_c, 0, 72, 107
2, 20208, Note_off_c, 0, 72, 64
2, 20220, Note_on_c, 0, 71, 107
2, 20268, Note_off_c, 0, 71, 64
2, 20280, Note_on_c, 0, 72, 107
2, 20328, Note_off_c, 0, 72, 64
2, 20340, Note_on_c, 0, 76, 107
2, 20388, Note_off_c, 0, 76, 64
2, 20400, Note_on_c, 0, 81, 107
2, 20736, Note_off_c, 0, 81, 64
2, 20760, Note_on_c, 0, 79, 107
2, 20808, Note_off_c, 0, 79, 64
2, 20820, Note_on_c, 0, 77, 107
2, 20868, Note_off_c, 0, 77, 64
2, 20880, Note_on_c, 0, 79, 107
2, 20928, Note_off_c, 0, 79, 64
2, 20940, Note_on_c, 0, 76, 107
2, 20988, Note_off_c, 0, 76, 64
2, 21000, Note_on_c, 0, 69, 107
2, 21048, Note_off_c, 0, 69, 64
2, 21060, Note_on_c, 0, 79, 107
2, 21108, Note_off_c, 0, 79, 64
2, 21120, Note_on_c, 0, 77, 107
2, 21408, Note_off_c, 0, 77, 64
2, 21420, Note_on_c, 0, 74, 107
2, 21468, Note_off_c, 0, 74, 64
2, 21480, Note_on_c, 0, 71, 107
2, 21528, Note_off_c, 0, 71, 64
2, 21540, Note_on_c, 0, 74, 107
2, 21588, Note_off_c, 0, 74, 64
2, 21600, Note_on_c, 0, 68, 107
2, 21648, Note_off_c, 0, 68, 64
2, 21660, Note_on_c, 0, 69, 107
2, 21708, Note_off_c, 0, 69, 64
2, 21720, Note_on_c, 0, 71, 107
2, 21768, Note_off_c, 0, 71, 64
2, 21780, Note_on_c, 0, 68, 107
2, 21828, Note_off_c, 0, 68, 64
2, 21840, Note_on_c, 0, 64, 107
2, 21936, Note_off_c, 0, 64, 64
2, 21960, Note_on_c, 0, 81, 107
2, 22128, Note_off_c, 0, 81, 64
2, 22140, Note_on_c, 0, 79, 107
2, 22188, Note_off_c, 0, 79, 64
2, 22200, Note_on_c, 0, 81, 107
2, 22248, Note_off_c, 0, 81, 64
2, 22260, Note_on_c, 0, 78, 107
2, 22308, Note_off_c, 0, 78, 64
2, 22320, Note_on_c, 0, 79, 107
2, 22416, Note_off_c, 0, 79, 64
2, 22440, Note_on_c, 0, 84, 107
2, 22536, Note_off_c, 0, 84, 64
2, 22560, Note_on_c, 0, 81, 107
2, 22656, Note_off_c, 0, 81, 64
2, 22680, Note_on_c, 0, 78, 107
2, 22776, Note_off_c, 0, 78, 64
2, 22800, Note_on_c, 0, 83, 107
2, 23088, Note_off_c, 0, 83, 64
2, 23100, Note_on_c, 0, 76, 107
2, 23148, Note_off_c, 0, 76, 64
2, 23160, Note_on_c, 0, 78, 107
2, 23208, Note_off_c, 0, 78, 64
2, 23220, Note_on_c, 0, 79, 107
2, 23268, Note_off_c, 0, 79, 64
2, 23280, Note_on_c, 0, 81, 107
2, 23376, Note_off_c, 0, 81, 64
2, 23400, Note_on_c, 0, 72, 107
2, 23496, Note_off_c, 0, 72, 64
2, 23520, Note_on_c, 0, 71, 107
2, 23616, Note_off_c, 0, 71, 64
2, 23640, Note_on_c, 0, 81, 107
2, 23736, Note_off_c, 0, 81, 64
2, 23760, Note_on_c, 0, 79, 107
2, 23808, Note_off_c, 0, 79, 64
2, 23820, Note_on_c, 0, 78, 107
2, 23868, Note_off_c, 0, 78, 64
2, 23880, Note_on_c, 0, 79, 107
2, 23928, Note_off_c, 0, 79, 64
2, 23940, Note_on_c, 0, 81, 107
2, 23988, Note_off_c, 0, 81, 64
2, 24000, Note_on_c, 0, 78, 107
2, 24192, Note_off_c, 0, 78, 64
2, 24300, Note_on_c, 0, 83, 107
2, 24348, Note_off_c, 0, 83, 64
2, 24360, Note_on_c, 0, 81, 107
2, 24408, Note_off_c, 0, 81, 64
2, 24420, Note_on_c, 0, 79, 107
2, 24468, Note_off_c, 0, 79, 64
2, 24480, Note_on_c, 0, 78, 107
2, 24528, Note_off_c, 0, 78, 64
2, 24540, Note_on_c, 0, 79, 107
2, 24588, Note_off_c, 0, 79, 64
2, 24600, Note_on_c, 0, 78, 107
2, 24648, Note_off_c, 0, 78, 64
2, 24660, Note_on_c, 0, 79, 107
2, 24708, Note_off_c, 0, 79, 64
2, 24720, Note_on_c, 0, 81, 107
2, 24768, Note_off_c, 0, 81, 64
2, 24780, Note_on_c, 0, 83, 107
2, 24828, Note_off_c, 0, 83, 64
2, 24840, Note_on_c, 0, 81, 107
2, 24888, Note_off_c, 0, 81, 64
2, 24900, Note_on_c, 0, 83, 107
2, 24948, Note_off_c, 0, 83, 64
2, 24960, Note_on_c, 0, 81, 107
2, 25008, Note_off_c, 0, 81, 64
2, 25020, Note_on_c, 0, 80, 107
2, 25068, Note_off_c, 0, 80, 64
2, 25080, Note_on_c, 0, 78, 107
2, 25128, Note_off_c, 0, 78, 64
2, 25140, Note_on_c, 0, 76, 107
2, 25188, Note_off_c, 0, 76, 64
2, 25200, Note_on_c, 0, 81, 107
2, 25632, Note_off_c, 0, 81, 64
2, 25680, Note_on_c, 0, 79, 107
2, 26112, Note_off_c, 0, 79, 64
2, 26220, Note_on_c, 0, 81, 107
2, 26268, Note_off_c, 0, 81, 64
2, 26280, Note_on_c, 0, 79, 107
2, 26328, Note_off_c, 0, 79, 64
2, 26340, Note_on_c, 0, 77, 107
2, 26388, Note_off_c, 0, 77, 64
2, 26400, Note_on_c, 0, 76, 107
2, 26448, Note_off_c, 0, 76, 64
2, 26460, Note_on_c, 0, 77, 107
2, 26508, Note_off_c, 0, 77, 64
2, 26520, Note_on_c, 0, 76, 107
2, 26568, Note_off_c, 0, 76, 64
2, 26580, Note_on_c, 0, 77, 107
2, 26628, Note_off_c, 0, 77, 64
2, 26640, Note_on_c, 0, 79, 107
2, 26688, Note_off_c, 0, 79, 64
2, 26700, Note_on_c, 0, 81, 107
2, 26748, Note_off_c, 0, 81, 64
2, 26760, Note_on_c, 0, 79, 107
2, 26808, Note_off_c, 0, 79, 64
2, 26820, Note_on_c, 0, 81, 107
2, 26868, Note_off_c, 0, 81, 64
2, 26880, Note_on_c, 0, 79, 107
2, 26928, Note_off_c, 0, 79, 64
2, 26940, Note_on_c, 0, 78, 107
2, 26988, Note_off_c, 0, 78, 64
2, 27000, Note_on_c, 0, 76, 107
2, 27048, Note_off_c, 0, 76, 64
2, 27060, Note_on_c, 0, 74, 107
2, 27108, Note_off_c, 0, 74, 64
2, 27120, Note_on_c, 0, 79, 107
2, 27552, Note_off_c, 0, 79, 64
2, 27600, Note_on_c, 0, 78, 107
2, 27792, Note_off_c, 0, 78, 64
2, 27840, Note_on_c, 0, 79, 107
2, 27936, Note_off_c, 0, 79, 64
2, 27960, Note_on_c, 0, 74, 107
2, 28056, Note_off_c, 0, 74, 64
2, 28080, Note_on_c, 0, 71, 107
2, 28176, Note_off_c, 0, 71, 64
2, 28200, Note_on_c, 0, 76, 107
2, 28296, Note_off_c, 0, 76, 64
2, 28320, Note_on_c, 0, 72, 107
2, 28416, Note_off_c, 0, 72, 64
2, 28440, Note_on_c, 0, 69, 107
2, 28536, Note_off_c, 0, 69, 64
2, 28560, Note_on_c, 0, 74, 107
2, 28848, Note_off_c, 0, 74, 64
2, 28860, Note_on_c, 0, 67, 107
2, 28908, Note_off_c, 0, 67, 64
2, 28920, Note_on_c, 0, 69, 107
2, 28968, Note_off_c, 0, 69, 64
2, 28980, Note_on_c, 0, 71, 107
2, 29028, Note_off_c, 0, 71, 64
2, 29040, Note_on_c, 0, 72, 107
2, 29328, Note_off_c, 0, 72, 64
2, 29340, Note_on_c, 0, 66, 107
2, 29388, Note_off_c, 0, 66, 64
2, 29400, Note_on_c, 0, 67, 107
2, 29448, Note_off_c, 0, 67, 64
2, 29460, Note_on_c, 0, 69, 107
2, 29508, Note_off_c, 0, 69, 64
2, 29520, Note_on_c, 0, 71, 107
2, 29568, Note_off_c, 0, 71, 64
2, 29580, Note_on_c, 0, 69, 107
2, 29628, Note_off_c, 0, 69, 64
2, 29640, Note_on_c, 0, 71, 107
2, 29688, Note_off_c, 0, 71, 64
2, 29700, Note_on_c, 0, 72, 107
2, 29748, Note_off_c, 0, 72, 64
2, 29760, Note_on_c, 0, 69, 107
2, 29808, Note_off_c, 0, 69, 64
2, 29820, Note_on_c, 0, 62, 107
2, 29868, Note_off_c, 0, 62, 64
2, 29880, Note_on_c, 0, 66, 107
2, 29928, Note_off_c, 0, 66, 64
2, 29940, Note_on_c, 0, 69, 107
2, 29988, Note_off_c, 0, 69, 64
2, 30000, Note_on_c, 0, 74, 107
2, 30912, Note_off_c, 0, 74, 64
2, 31020, Note_on_c, 0, 74, 107
2, 31068, Note_off_c, 0, 74, 64
2, 31080, Note_on_c, 0, 69, 107
2, 31128, Note_off_c, 0, 69, 64
2, 31140, Note_on_c, 0, 72, 107
2, 31188, Note_off_c, 0, 72, 64
2, 31200, Note_on_c, 0, 71, 107
2, 31248, Note_off_c, 0, 71, 64
2, 31260, Note_on_c, 0, 74, 107
2, 31308, Note_off_c, 0, 74, 64
2, 31320, Note_on_c, 0, 66, 107
2, 31368, Note_off_c, 0, 66, 64
2, 31380, Note_on_c, 0, 69, 107
2, 31428, Note_off_c, 0, 69, 64
2, 31440, Note_on_c, 0, 67, 107
2, 31488, Note_off_c, 0, 67, 64
2, 31500, Note_on_c, 0, 71, 107
2, 31548, Note_off_c, 0, 71, 64
2, 31560, Note_on_c, 0, 69, 107
2, 31608, Note_off_c, 0, 69, 64
2, 31620, Note_on_c, 0, 67, 107
2, 31668, Note_off_c, 0, 67, 64
2, 31680, Note_on_c, 0, 66, 107
2, 31728, Note_off_c, 0, 66, 64
2, 31740, Note_on_c, 0, 62, 107
2, 31788, Note_off_c, 0, 62, 64
2, 31800, Note_on_c, 0, 66, 107
2, 31848, Note_off_c, 0, 66, 64
2, 31860, Note_on_c, 0, 69, 107
2, 31908, Note_off_c, 0, 69, 64
2, 31920, Note_on_c, 0, 74, 107
2, 32208, Note_off_c, 0, 74, 64
2, 32220, Note_on_c, 0, 72, 107
2, 32268, Note_off_c, 0, 72, 64
2, 32280, Note_on_c, 0, 71, 107
2, 32328, Note_off_c, 0, 71, 64
2, 32340, Note_on_c, 0, 74, 107
2, 32388, Note_off_c, 0, 74, 64
2, 32400, Note_on_c, 0, 72, 107
2, 32688, Note_off_c, 0, 72, 64
2, 32700, Note_on_c, 0, 62, 107
2, 32748, Note_off_c, 0, 62, 64
2, 32760, Note_on_c, 0, 66, 107
2, 32808, Note_off_c, 0, 66, 64
2, 32820, Note_on_c, 0, 69, 107
2, 32868, Note_off_c, 0, 69, 64
2, 32880, Note_on_c, 0, 71, 107
2, 33168, Note_off_c, 0, 71, 64
2, 33180, Note_on_c, 0, 69, 107
2, 33228, Note_off_c, 0, 69, 64
2, 33240, Note_on_c, 0, 67, 107
2, 33288, Note_off_c, 0, 67, 64
2, 33300, Note_on_c, 0, 71, 107
2, 33348, Note_off_c, 0, 71, 64
2, 33360, Note_on_c, 0, 69, 107
2, 33648, Note_off_c, 0, 69, 64
2, 33660, Note_on_c, 0, 67, 107
2, 33708, Note_off_c, 0, 67, 64
2, 33720, Note_on_c, 0, 66, 107
2, 33768, Note_off_c, 0, 66, 64
2, 33780, Note_on_c, 0, 69, 107
2, 33828, Note_off_c, 0, 69, 64
2, 33840, Note_on_c, 0, 67, 107
2, 34272, Note_off_c, 0, 67, 64
2, 34320, Note_on_c, 0, 67, 107
2, 34332, Note_off_c, 0, 67, 64
2, 34335, Note_on_c, 0, 66, 107
2, 34347, Note_off_c, 0, 66, 64
2, 34350, Note_on_c, 0, 64, 107
2, 34362, Note_off_c, 0, 64, 64
2, 34365, Note_on_c, 0, 66, 107
2, 34377, Note_off_c, 0, 66, 64
2, 34380, Note_on_c, 0, 67, 107
2, 34392, Note_off_c, 0, 67, 64
2, 34395, Note_on_c, 0, 66, 107
2, 34407, Note_off_c, 0, 66, 64
2, 34410, Note_on_c, 0, 67, 107
2, 34422, Note_off_c, 0, 67, 64
2, 34425, Note_on_c, 0, 66, 107
2, 34437, Note_off_c, 0, 66, 64
2, 34440, Note_on_c, 0, 67, 107
2, 34452, Note_off_c, 0, 67, 64
2, 34455, Note_on_c, 0, 66, 107
2, 34467, Note_off_c, 0, 66, 64
2, 34470, Note_on_c, 0, 67, 107
2, 34482, Note_off_c, 0, 67, 64
2, 34485, Note_on_c, 0, 66, 107
2, 34497, Note_off_c, 0, 66, 64
2, 34500, Note_on_c, 0, 67, 107
2, 34512, Note_off_c, 0, 67, 64
2, 34515, Note_on_c, 0, 66, 107
2, 34527, Note_off_c, 0, 66, 64
2, 34530, Note_on_c, 0, 67, 107
2, 34542, Note_off_c, 0, 67, 64
2, 34545, Note_on_c, 0, 66, 107
2, 34557, Note_off_c, 0, 66, 64
2, 34560, Note_on_c, 0, 67, 107
2, 34656, Note_off_c, 0, 67, 64
2, 34680, Note_on_c, 0, 74, 107
2, 34776, Note_off_c, 0, 74, 64
2, 34800, Note_on_c, 0, 71, 107
2, 34896, Note_off_c, 0, 71, 64
2, 34920, Note_on_c, 0, 76, 107
2, 35016, Note_off_c, 0, 76, 64
2, 35040, Note_on_c, 0, 73, 107
2, 35136, Note_off_c, 0, 73, 64
2, 35160, Note_on_c, 0, 69, 107
2, 35256, Note_off_c, 0, 69, 64
2, 35280, Note_on_c, 0, 74, 107
2, 35568, Note_off_c, 0, 74, 64
2, 35580, Note_on_c, 0, 79, 107
2, 35628, Note_off_c, 0, 79, 64
2, 35640, Note_on_c, 0, 81, 107
2, 35688, Note_off_c, 0, 81, 64
2, 35700, Note_on_c, 0, 82, 107
2, 35748, Note_off_c, 0, 82, 64
2, 35760, Note_on_c, 0, 73, 107
2, 35808, Note_off_c, 0, 73, 64
2, 35820, Note_on_c, 0, 82, 107
2, 35868, Note_off_c, 0, 82, 64
2, 35880, Note_on_c, 0, 81, 107
2, 35928, Note_off_c, 0, 81, 64
2, 35940, Note_on_c, 0, 79, 107
2, 35988, Note_off_c, 0, 79, 64
2, 36000, Note_on_c, 0, 77, 107
2, 36048, Note_off_c, 0, 77, 64
2, 36060, Note_on_c, 0, 79, 107
2, 36108, Note_off_c, 0, 79, 64
2, 36120, Note_on_c, 0, 77, 107
2, 36168, Note_off_c, 0, 77, 64
2, 36180, Note_on_c, 0, 76, 107
2, 36228, Note_off_c, 0, 76, 64
2, 36240, Note_on_c, 0, 74, 107
2, 36288, Note_off_c, 0, 74, 64
2, 36300, Note_on_c, 0, 76, 107
2, 36348, Note_off_c, 0, 76, 64
2, 36360, Note_on_c, 0, 77, 107
2, 36408, Note_off_c, 0, 77, 64
2, 36420, Note_on_c, 0, 74, 107
2, 36468, Note_off_c, 0, 74, 64
2, 36480, Note_on_c, 0, 76, 107
2, 36528, Note_off_c, 0, 76, 64
2, 36540, Note_on_c, 0, 77, 107
2, 36588, Note_off_c, 0, 77, 64
2, 36600, Note_on_c, 0, 76, 107
2, 36648, Note_off_c, 0, 76, 64
2, 36660, Note_on_c, 0, 74, 107
2, 36708, Note_off_c, 0, 74, 64
2, 36720, Note_on_c, 0, 72, 107
2, 36768, Note_off_c, 0, 72, 64
2, 36780, Note_on_c, 0, 74, 107
2, 36828, Note_off_c, 0, 74, 64
2, 36840, Note_on_c, 0, 76, 107
2, 36888, Note_off_c, 0, 76, 64
2, 36900, Note_on_c, 0, 72, 107
2, 36948, Note_off_c, 0, 72, 64
2, 36960, Note_on_c, 0, 74, 107
2, 37056, Note_off_c, 0, 74, 64
2, 37080, Note_on_c, 0, 71, 107
2, 37176, Note_off_c, 0, 71, 64
2, 37200, Note_on_c, 0, 83, 107
2, 37536, Note_off_c, 0, 83, 64
2, 37560, Note_on_c, 0, 81, 107
2, 37608, Note_off_c, 0, 81, 64
2, 37620, Note_on_c, 0, 80, 107
2, 37668, Note_off_c, 0, 80, 64
2, 37680, Note_on_c, 0, 81, 107
2, 38016, Note_off_c, 0, 81, 64
2, 38040, Note_on_c, 0, 79, 107
2, 38088, Note_off_c, 0, 79, 64
2, 38100, Note_on_c, 0, 78, 107
2, 38148, Note_off_c, 0, 78, 64
2, 38160, Note_on_c, 0, 79, 107
2, 38208, Note_off_c, 0, 79, 64
2, 38220, Note_on_c, 0, 78, 107
2, 38268, Note_off_c, 0, 78, 64
2, 38280, Note_on_c, 0, 76, 107
2, 38328, Note_off_c, 0, 76, 64
2, 38340, Note_on_c, 0, 74, 107
2, 38388, Note_off_c, 0, 74, 64
2, 38400, Note_on_c, 0, 72, 107
2, 38448, Note_off_c, 0, 72, 64
2, 38460, Note_on_c, 0, 71, 107
2, 38508, Note_off_c, 0, 71, 64
2, 38520, Note_on_c, 0, 69, 107
2, 38568, Note_off_c, 0, 69, 64
2, 38580, Note_on_c, 0, 67, 107
2, 38628, Note_off_c, 0, 67, 64
2, 38640, Note_on_c, 0, 66, 107
2, 38688, Note_off_c, 0, 66, 64
2, 38700, Note_on_c, 0, 64, 107
2, 38748, Note_off_c, 0, 64, 64
2, 38760, Note_on_c, 0, 63, 107
2, 38808, Note_off_c, 0, 63, 64
2, 38820, Note_on_c, 0, 61, 107
2, 38868, Note_off_c, 0, 61, 64
2, 38880, Note_on_c, 0, 59, 107
2, 38976, Note_off_c, 0, 59, 64
2, 39480, Note_on_c, 0, 78, 107
2, 39576, Note_off_c, 0, 78, 64
2, 39600, Note_on_c, 0, 74, 107
2, 39696, Note_off_c, 0, 74, 64
2, 39720, Note_on_c, 0, 79, 107
2, 39816, Note_off_c, 0, 79, 64
2, 39840, Note_on_c, 0, 76, 107
2, 39936, Note_off_c, 0, 76, 64
2, 39960, Note_on_c, 0, 73, 107
2, 40056, Note_off_c, 0, 73, 64
2, 40080, Note_on_c, 0, 78, 107
2, 40176, Note_off_c, 0, 78, 64
2, 40200, Note_on_c, 0, 81, 107
2, 40296, Note_off_c, 0, 81, 64
2, 40320, Note_on_c, 0, 75, 107
2, 40416, Note_off_c, 0, 75, 64
2, 40440, Note_on_c, 0, 71, 107
2, 40536, Note_off_c, 0, 71, 64
2, 40560, Note_on_c, 0, 76, 107
2, 40896, Note_off_c, 0, 76, 64
2, 40920, Note_on_c, 0, 74, 107
2, 40968, Note_off_c, 0, 74, 64
2, 40980, Note_on_c, 0, 72, 107
2, 41028, Note_off_c, 0, 72, 64
2, 41040, Note_on_c, 0, 74, 107
2, 41328, Note_off_c, 0, 74, 64
2, 41340, Note_on_c, 0, 71, 107
2, 41388, Note_off_c, 0, 71, 64
2, 41400, Note_on_c, 0, 68, 107
2, 41448, Note_off_c, 0, 68, 64
2, 41460, Note_on_c, 0, 71, 107
2, 41508, Note_off_c, 0, 71, 64
2, 41520, Note_on_c, 0, 72, 107
2, 41568, Note_off_c, 0, 72, 64
2, 41580, Note_on_c, 0, 76, 107
2, 41628, Note_off_c, 0, 76, 64
2, 41640, Note_on_c, 0, 69, 107
2, 41688, Note_off_c, 0, 69, 64
2, 41700, Note_on_c, 0, 72, 107
2, 41748, Note_off_c, 0, 72, 64
2, 41760, Note_on_c, 0, 77, 107
2, 41808, Note_off_c, 0, 77, 64
2, 41820, Note_on_c, 0, 74, 107
2, 41868, Note_off_c, 0, 74, 64
2, 41880, Note_on_c, 0, 76, 107
2, 41928, Note_off_c, 0, 76, 64
2, 41940, Note_on_c, 0, 77, 107
2, 41988, Note_off_c, 0, 77, 64
2, 42000, Note_on_c, 0, 76, 107
2, 42048, Note_off_c, 0, 76, 64
2, 42060, Note_on_c, 0, 74, 107
2, 42108, Note_off_c, 0, 74, 64
2, 42120, Note_on_c, 0, 73, 107
2, 42168, Note_off_c, 0, 73, 64
2, 42180, Note_on_c, 0, 71, 107
2, 42228, Note_off_c, 0, 71, 64
2, 42240, Note_on_c, 0, 69, 107
2, 42336, Note_off_c, 0, 69, 64
2, 42360, Note_on_c, 0, 81, 107
2, 42456, Note_off_c, 0, 81, 64
2, 42480, Note_on_c, 0, 77, 107
2, 42576, Note_off_c, 0, 77, 64
2, 42600, Note_on_c, 0, 82, 107
2, 42696, Note_off_c, 0, 82, 64
2, 42720, Note_on_c, 0, 79, 107
2, 42816, Note_off_c, 0, 79, 64
2, 42840, Note_on_c, 0, 76, 107
2, 42936, Note_off_c, 0, 76, 64
2, 42960, Note_on_c, 0, 81, 107
2, 43248, Note_off_c, 0, 81, 64
2, 43260, Note_on_c, 0, 74, 107
2, 43308, Note_off_c, 0, 74, 64
2, 43320, Note_on_c, 0, 76, 107
2, 43368, Note_off_c, 0, 76, 64
2, 43380, Note_on_c, 0, 77, 107
2, 43428, Note_off_c, 0, 77, 64
2, 43440, Note_on_c, 0, 79, 107
2, 43536, Note_off_c, 0, 79, 64
2, 43560, Note_on_c, 0, 70, 107
2, 43656, Note_off_c, 0, 70, 64
2, 43680, Note_on_c, 0, 69, 107
2, 43776, Note_off_c, 0, 69, 64
2, 43800, Note_on_c, 0, 79, 107
2, 43896, Note_off_c, 0, 79, 64
2, 43920, Note_on_c, 0, 77, 107
2, 43968, Note_off_c, 0, 77, 64
2, 43980, Note_on_c, 0, 76, 107
2, 44028, Note_off_c, 0, 76, 64
2, 44040, Note_on_c, 0, 77, 107
2, 44088, Note_off_c, 0, 77, 64
2, 44100, Note_on_c, 0, 79, 107
2, 44148, Note_off_c, 0, 79, 64
2, 44160, Note_on_c, 0, 76, 107
2, 44208, Note_off_c, 0, 76, 64
2, 44220, Note_on_c, 0, 74, 107
2, 44268, Note_off_c, 0, 74, 64
2, 44280, Note_on_c, 0, 76, 107
2, 44328, Note_off_c, 0, 76, 64
2, 44340, Note_on_c, 0, 77, 107
2, 44388, Note_off_c, 0, 77, 64
2, 44400, Note_on_c, 0, 76, 107
2, 44448, Note_off_c, 0, 76, 64
2, 44460, Note_on_c, 0, 74, 107
2, 44508, Note_off_c, 0, 74, 64
2, 44520, Note_on_c, 0, 73, 107
2, 44568, Note_off_c, 0, 73, 64
2, 44580, Note_on_c, 0, 74, 107
2, 44628, Note_off_c, 0, 74, 64
2, 44640, Note_on_c, 0, 82, 107
2, 44688, Note_off_c, 0, 82, 64
2, 44700, Note_on_c, 0, 73, 107
2, 44748, Note_off_c, 0, 73, 64
2, 44760, Note_on_c, 0, 74, 107
2, 44808, Note_off_c, 0, 74, 64
2, 44820, Note_on_c, 0, 76, 107
2, 44868, Note_off_c, 0, 76, 64
2, 44880, Note_on_c, 0, 74, 107
2, 44928, Note_off_c, 0, 74, 64
2, 44940, Note_on_c, 0, 73, 107
2, 44988, Note_off_c, 0, 73, 64
2, 45000, Note_on_c, 0, 71, 107
2, 45048, Note_off_c, 0, 71, 64
2, 45060, Note_on_c, 0, 73, 107
2, 45108, Note_off_c, 0, 73, 64
2, 45120, Note_on_c, 0, 74, 107
2, 45168, Note_off_c, 0, 74, 64
2, 45180, Note_on_c, 0, 72, 107
2, 45228, Note_off_c, 0, 72, 64
2, 45240, Note_on_c, 0, 70, 107
2, 45288, Note_off_c, 0, 70, 64
2, 45300, Note_on_c, 0, 69, 107
2, 45348, Note_off_c, 0, 69, 64
2, 45360, Note_on_c, 0, 70, 107
2, 45408, Note_off_c, 0, 70, 64
2, 45420, Note_on_c, 0, 74, 107
2, 45468, Note_off_c, 0, 74, 64
2, 45480, Note_on_c, 0, 79, 107
2, 45528, Note_off_c, 0, 79, 64
2, 45540, Note_on_c, 0, 76, 107
2, 45588, Note_off_c, 0, 76, 64
2, 45600, Note_on_c, 0, 74, 107
2, 45648, Note_off_c, 0, 74, 64
2, 45660, Note_on_c, 0, 73, 107
2, 45708, Note_off_c, 0, 73, 64
2, 45720, Note_on_c, 0, 71, 107
2, 45768, Note_off_c, 0, 71, 64
2, 45780, Note_on_c, 0, 69, 107
2, 45828, Note_off_c, 0, 69, 64
2, 45840, Note_on_c, 0, 81, 107
2, 45936, Note_off_c, 0, 81, 64
2, 45960, Note_on_c, 0, 74, 107
2, 46128, Note_off_c, 0, 74, 64
2, 46140, Note_on_c, 0, 73, 107
2, 46188, Note_off_c, 0, 73, 64
2, 46200, Note_on_c, 0, 71, 107
2, 46248, Note_off_c, 0, 71, 64
2, 46260, Note_on_c, 0, 73, 107
2, 46308, Note_off_c, 0, 73, 64
2, 46320, Note_on_c, 0, 74, 107
2, 46368, Note_off_c, 0, 74, 64
2, 46380, Note_on_c, 0, 69, 107
2, 46428, Note_off_c, 0, 69, 64
2, 46440, Note_on_c, 0, 74, 107
2, 46656, Note_off_c, 0, 74, 64
2, 46680, Note_on_c, 0, 72, 107
2, 46728, Note_off_c, 0, 72, 64
2, 46740, Note_on_c, 0, 71, 107
2, 46788, Note_off_c, 0, 71, 64
2, 46800, Note_on_c, 0, 72, 107
2, 47232, Note_off_c, 0, 72, 64
2, 47280, Note_on_c, 0, 70, 107
2, 47616, Note_off_c, 0, 70, 64
2, 47640, Note_on_c, 0, 69, 107
2, 47688, Note_off_c, 0, 69, 64
2, 47700, Note_on_c, 0, 67, 107
2, 47748, Note_off_c, 0, 67, 64
2, 47760, Note_on_c, 0, 69, 107
2, 48192, Note_off_c, 0, 69, 64
2, 48240, Note_on_c, 0, 67, 107
2, 48528, Note_off_c, 0, 67, 64
2, 48540, Note_on_c, 0, 64, 107
2, 48588, Note_off_c, 0, 64, 64
2, 48600, Note_on_c, 0, 65, 107
2, 48648, Note_off_c, 0, 65, 64
2, 48660, Note_on_c, 0, 67, 107
2, 48708, Note_off_c, 0, 67, 64
2, 48720, Note_on_c, 0, 65, 107
2, 48768, Note_off_c, 0, 65, 64
2, 48780, Note_on_c, 0, 69, 107
2, 48828, Note_off_c, 0, 69, 64
2, 48840, Note_on_c, 0, 65, 107
2, 48888, Note_off_c, 0, 65, 64
2, 48900, Note_on_c, 0, 62, 107
2, 48948, Note_off_c, 0, 62, 64
2, 48960, Note_on_c, 0, 64, 107
2, 49008, Note_off_c, 0, 64, 64
2, 49020, Note_on_c, 0, 62, 107
2, 49068, Note_off_c, 0, 62, 64
2, 49080, Note_on_c, 0, 64, 107
2, 49128, Note_off_c, 0, 64, 64
2, 49140, Note_on_c, 0, 65, 107
2, 49188, Note_off_c, 0, 65, 64
2, 49200, Note_on_c, 0, 64, 107
2, 49248, Note_off_c, 0, 64, 64
2, 49260, Note_on_c, 0, 67, 107
2, 49308, Note_off_c, 0, 67, 64
2, 49320, Note_on_c, 0, 64, 107
2, 49368, Note_off_c, 0, 64, 64
2, 49380, Note_on_c, 0, 61, 107
2, 49428, Note_off_c, 0, 61, 64
2, 49440, Note_on_c, 0, 69, 107
2, 49536, Note_off_c, 0, 69, 64
2, 49560, Note_on_c, 0, 67, 107
2, 49608, Note_off_c, 0, 67, 64
2, 49620, Note_on_c, 0, 65, 107
2, 49668, Note_off_c, 0, 65, 64
2, 49680, Note_on_c, 0, 67, 107
2, 49728, Note_off_c, 0, 67, 64
2, 49740, Note_on_c, 0, 65, 107
2, 49788, Note_off_c, 0, 65, 64
2, 49800, Note_on_c, 0, 64, 107
2, 49848, Note_off_c, 0, 64, 64
2, 49860, Note_on_c, 0, 67, 107
2, 49908, Note_off_c, 0, 67, 64
2, 49920, Note_on_c, 0, 65, 107
2, 49968, Note_off_c, 0, 65, 64
2, 49980, Note_on_c, 0, 62, 107
2, 50028, Note_off_c, 0, 62, 64
2, 50040, Note_on_c, 0, 65, 107
2, 50088, Note_off_c, 0, 65, 64
2, 50100, Note_on_c, 0, 69, 107
2, 50148, Note_off_c, 0, 69, 64
2, 50160, Note_on_c, 0, 74, 107
2, 50448, Note_off_c, 0, 74, 64
2, 50460, Note_on_c, 0, 70, 107
2, 50508, Note_off_c, 0, 70, 64
2, 50520, Note_on_c, 0, 74, 107
2, 50568, Note_off_c, 0, 74, 64
2, 50580, Note_on_c, 0, 79, 107
2, 50628, Note_off_c, 0, 79, 64
2, 50640, Note_on_c, 0, 67, 107
2, 50688, Note_off_c, 0, 67, 64
2, 50700, Note_on_c, 0, 74, 107
2, 50748, Note_off_c, 0, 74, 64
2, 50760, Note_on_c, 0, 70, 107
2, 50808, Note_off_c, 0, 70, 64
2, 50820, Note_on_c, 0, 67, 107
2, 50868, Note_off_c, 0, 67, 64
2, 50880, Note_on_c, 0, 76, 107
2, 50928, Note_off_c, 0, 76, 64
2, 50940, Note_on_c, 0, 60, 107
2, 50988, Note_off_c, 0, 60, 64
2, 51000, Note_on_c, 0, 64, 107
2, 51048, Note_off_c, 0, 64, 64
2, 51060, Note_on_c, 0, 67, 107
2, 51108, Note_off_c, 0, 67, 64
2, 51120, Note_on_c, 0, 72, 107
2, 51408, Note_off_c, 0, 72, 64
2, 51420, Note_on_c, 0, 69, 107
2, 51468, Note_off_c, 0, 69, 64
2, 51480, Note_on_c, 0, 72, 107
2, 51528, Note_off_c, 0, 72, 64
2, 51540, Note_on_c, 0, 77, 107
2, 51588, Note_off_c, 0, 77, 64
2, 51600, Note_on_c, 0, 65, 107
2, 51648, Note_off_c, 0, 65, 64
2, 51660, Note_on_c, 0, 72, 107
2, 51708, Note_off_c, 0, 72, 64
2, 51720, Note_on_c, 0, 69, 107
2, 51768, Note_off_c, 0, 69, 64
2, 51780, Note_on_c, 0, 65, 107
2, 51828, Note_off_c, 0, 65, 64
2, 51840, Note_on_c, 0, 74, 107
2, 51888, Note_off_c, 0, 74, 64
2, 51900, Note_on_c, 0, 70, 107
2, 51948, Note_off_c, 0, 70, 64
2, 51960, Note_on_c, 0, 74, 107
2, 52008, Note_off_c, 0, 74, 64
2, 52020, Note_on_c, 0, 77, 107
2, 52068, Note_off_c, 0, 77, 64
2, 52080, Note_on_c, 0, 82, 107
2, 52368, Note_off_c, 0, 82, 64
2, 52380, Note_on_c, 0, 79, 107
2, 52428, Note_off_c, 0, 79, 64
2, 52440, Note_on_c, 0, 76, 107
2, 52488, Note_off_c, 0, 76, 64
2, 52500, Note_on_c, 0, 72, 107
2, 52548, Note_off_c, 0, 72, 64
2, 52560, Note_on_c, 0, 81, 107
2, 52704, Note_off_c, 0, 81, 64
2, 52740, Note_on_c, 0, 77, 107
2, 52788, Note_off_c, 0, 77, 64
2, 52800, Note_on_c, 0, 70, 107
2, 52848, Note_off_c, 0, 70, 64
2, 52860, Note_on_c, 0, 74, 107
2, 52908, Note_off_c, 0, 74, 64
2, 52920, Note_on_c, 0, 72, 107
2, 52968, Note_off_c, 0, 72, 64
2, 52980, Note_on_c, 0, 70, 107
2, 53028, Note_off_c, 0, 70, 64
2, 53040, Note_on_c, 0, 69, 107
2, 53136, Note_off_c, 0, 69, 64
2, 53160, Note_on_c, 0, 74, 107
2, 53256, Note_off_c, 0, 74, 64
2, 53280, Note_on_c, 0, 70, 107
2, 53376, Note_off_c, 0, 70, 64
2, 53400, Note_on_c, 0, 67, 107
2, 53496, Note_off_c, 0, 67, 64
2, 53520, Note_on_c, 0, 72, 107
2, 53808, Note_off_c, 0, 72, 64
2, 53820, Note_on_c, 0, 65, 107
2, 53868, Note_off_c, 0, 65, 64
2, 53880, Note_on_c, 0, 67, 107
2, 53928, Note_off_c, 0, 67, 64
2, 53940, Note_on_c, 0, 69, 107
2, 53988, Note_off_c, 0, 69, 64
2, 54000, Note_on_c, 0, 70, 107
2, 54096, Note_off_c, 0, 70, 64
2, 54120, Note_on_c, 0, 62, 107
2, 54216, Note_off_c, 0, 62, 64
2, 54240, Note_on_c, 0, 60, 107
2, 54336, Note_off_c, 0, 60, 64
2, 54360, Note_on_c, 0, 70, 107
2, 54456, Note_off_c, 0, 70, 64
2, 54480, Note_on_c, 0, 69, 107
2, 54528, Note_off_c, 0, 69, 64
2, 54540, Note_on_c, 0, 67, 107
2, 54588, Note_off_c, 0, 67, 64
2, 54600, Note_on_c, 0, 69, 107
2, 54648, Note_off_c, 0, 69, 64
2, 54660, Note_on_c, 0, 70, 107
2, 54708, Note_off_c, 0, 70, 64
2, 54720, Note_on_c, 0, 67, 107
2, 54816, Note_off_c, 0, 67, 64
2, 54840, Note_on_c, 0, 69, 107
2, 54888, Note_off_c, 0, 69, 64
2, 54900, Note_on_c, 0, 70, 107
2, 54948, Note_off_c, 0, 70, 64
2, 54960, Note_on_c, 0, 72, 107
2, 55008, Note_off_c, 0, 72, 64
2, 55020, Note_on_c, 0, 74, 107
2, 55068, Note_off_c, 0, 74, 64
2, 55080, Note_on_c, 0, 76, 107
2, 55128, Note_off_c, 0, 76, 64
2, 55140, Note_on_c, 0, 72, 107
2, 55188, Note_off_c, 0, 72, 64
2, 55200, Note_on_c, 0, 74, 107
2, 55248, Note_off_c, 0, 74, 64
2, 55260, Note_on_c, 0, 72, 107
2, 55308, Note_off_c, 0, 72, 64
2, 55320, Note_on_c, 0, 74, 107
2, 55368, Note_off_c, 0, 74, 64
2, 55380, Note_on_c, 0, 76, 107
2, 55428, Note_off_c, 0, 76, 64
2, 55440, Note_on_c, 0, 74, 107
2, 55488, Note_off_c, 0, 74, 64
2, 55500, Note_on_c, 0, 77, 107
2, 55548, Note_off_c, 0, 77, 64
2, 55560, Note_on_c, 0, 76, 107
2, 55608, Note_off_c, 0, 76, 64
2, 55620, Note_on_c, 0, 74, 107
2, 55668, Note_off_c, 0, 74, 64
2, 55680, Note_on_c, 0, 72, 107
2, 55968, Note_off_c, 0, 72, 64
2, 55980, Note_on_c, 0, 69, 107
2, 56028, Note_off_c, 0, 69, 64
2, 56040, Note_on_c, 0, 67, 107
2, 56088, Note_off_c, 0, 67, 64
2, 56100, Note_on_c, 0, 65, 107
2, 56148, Note_off_c, 0, 65, 64
2, 56160, Note_on_c, 0, 74, 107
2, 56208, Note_off_c, 0, 74, 64
2, 56220, Note_on_c, 0, 72, 107
2, 56268, Note_off_c, 0, 72, 64
2, 56280, Note_on_c, 0, 70, 107
2, 56328, Note_off_c, 0, 70, 64
2, 56340, Note_on_c, 0, 69, 107
2, 56388, Note_off_c, 0, 69, 64
2, 56400, Note_on_c, 0, 67, 107
2, 56448, Note_off_c, 0, 67, 64
2, 56460, Note_on_c, 0, 72, 107
2, 56508, Note_off_c, 0, 72, 64
2, 56520, Note_on_c, 0, 70, 107
2, 56568, Note_off_c, 0, 70, 64
2, 56580, Note_on_c, 0, 72, 107
2, 56628, Note_off_c, 0, 72, 64
2, 56640, Note_on_c, 0, 69, 107
2, 56753, Note_off_c, 0, 69, 64
2, 56760, Note_on_c, 0, 77, 107
2, 56873, Note_off_c, 0, 77, 64
2, 56880, Note_on_c, 0, 65, 107
2, 56993, Note_off_c, 0, 65, 64
2, 57000, Note_on_c, 0, 77, 107
2, 57113, Note_off_c, 0, 77, 64
2, 57120, Note_on_c, 0, 70, 107
2, 57233, Note_off_c, 0, 70, 64
2, 57240, Note_on_c, 0, 77, 107
2, 57353, Note_off_c, 0, 77, 64
2, 57360, Note_on_c, 0, 67, 107
2, 57473, Note_off_c, 0, 67, 64
2, 57480, Note_on_c, 0, 76, 107
2, 57593, Note_off_c, 0, 76, 64
2, 57600, Note_on_c, 0, 77, 107
2, 57648, Note_off_c, 0, 77, 64
2, 57660, Note_on_c, 0, 79, 107
2, 57708, Note_off_c, 0, 79, 64
2, 57720, Note_on_c, 0, 77, 107
2, 57768, Note_off_c, 0, 77, 64
2, 57780, Note_on_c, 0, 79, 107
2, 57828, Note_off_c, 0, 79, 64
2, 57840, Note_on_c, 0, 81, 107
2, 57888, Note_off_c, 0, 81, 64
2, 57900, Note_on_c, 0, 82, 107
2, 57948, Note_off_c, 0, 82, 64
2, 57960, Note_on_c, 0, 81, 107
2, 58008, Note_off_c, 0, 81, 64
2, 58020, Note_on_c, 0, 82, 107
2, 58068, Note_off_c, 0, 82, 64
2, 58080, Note_on_c, 0, 79, 107
2, 58128, Note_off_c, 0, 79, 64
2, 58140, Note_on_c, 0, 81, 107
2, 58188, Note_off_c, 0, 81, 64
2, 58200, Note_on_c, 0, 79, 107
2, 58248, Note_off_c, 0, 79, 64
2, 58260, Note_on_c, 0, 81, 107
2, 58308, Note_off_c, 0, 81, 64
2, 58320, Note_on_c, 0, 82, 107
2, 58368, Note_off_c, 0, 82, 64
2, 58380, Note_on_c, 0, 84, 107
2, 58428, Note_off_c, 0, 84, 64
2, 58440, Note_on_c, 0, 82, 107
2, 58488, Note_off_c, 0, 82, 64
2, 58500, Note_on_c, 0, 84, 107
2, 58548, Note_off_c, 0, 84, 64
2, 58560, Note_on_c, 0, 81, 107
2, 58656, Note_off_c, 0, 81, 64
2, 58680, Note_on_c, 0, 77, 107
2, 58776, Note_off_c, 0, 77, 64
2, 58800, Note_on_c, 0, 65, 107
2, 58896, Note_off_c, 0, 65, 64
2, 58920, Note_on_c, 0, 77, 107
2, 59016, Note_off_c, 0, 77, 64
2, 59040, Note_on_c, 0, 70, 107
2, 59136, Note_off_c, 0, 70, 64
2, 59160, Note_on_c, 0, 77, 107
2, 59256, Note_off_c, 0, 77, 64
2, 59280, Note_on_c, 0, 67, 107
2, 59376, Note_off_c, 0, 67, 64
2, 59400, Note_on_c, 0, 76, 107
2, 59496, Note_off_c, 0, 76, 64
2, 59520, Note_on_c, 0, 77, 107
2, 59616, Note_off_c, 0, 77, 64
2, 59640, Note_on_c, 0, 72, 107
2, 59736, Note_off_c, 0, 72, 64
2, 59760, Note_on_c, 0, 77, 107
2, 60192, Note_off_c, 0, 77, 64
2, 60240, Note_on_c, 0, 76, 107
2, 60672, Note_off_c, 0, 76, 64
2, 60720, Note_on_c, 0, 74, 107
2, 61152, Note_off_c, 0, 74, 64
2, 61200, Note_on_c, 0, 73, 107
2, 61313, Note_off_c, 0, 73, 64
2, 61320, Note_on_c, 0, 81, 107
2, 61433, Note_off_c, 0, 81, 64
2, 61440, Note_on_c, 0, 74, 107
2, 61488, Note_off_c, 0, 74, 64
2, 61500, Note_on_c, 0, 76, 107
2, 61548, Note_off_c, 0, 76, 64
2, 61560, Note_on_c, 0, 74, 107
2, 61608, Note_off_c, 0, 74, 64
2, 61620, Note_on_c, 0, 76, 107
2, 61668, Note_off_c, 0, 76, 64
2, 61680, Note_on_c, 0, 77, 107
2, 61728, Note_off_c, 0, 77, 64
2, 61740, Note_on_c, 0, 79, 107
2, 61788, Note_off_c, 0, 79, 64
2, 61800, Note_on_c, 0, 77, 107
2, 61848, Note_off_c, 0, 77, 64
2, 61860, Note_on_c, 0, 79, 107
2, 61908, Note_off_c, 0, 79, 64
2, 61920, Note_on_c, 0, 76, 107
2, 61968, Note_off_c, 0, 76, 64
2, 61980, Note_on_c, 0, 77, 107
2, 62028, Note_off_c, 0, 77, 64
2, 62040, Note_on_c, 0, 76, 107
2, 62088, Note_off_c, 0, 76, 64
2, 62100, Note_on_c, 0, 77, 107
2, 62148, Note_off_c, 0, 77, 64
2, 62160, Note_on_c, 0, 79, 107
2, 62208, Note_off_c, 0, 79, 64
2, 62220, Note_on_c, 0, 81, 107
2, 62268, Note_off_c, 0, 81, 64
2, 62280, Note_on_c, 0, 79, 107
2, 62328, Note_off_c, 0, 79, 64
2, 62340, Note_on_c, 0, 81, 107
2, 62388, Note_off_c, 0, 81, 64
2, 62400, Note_on_c, 0, 77, 107
2, 62448, Note_off_c, 0, 77, 64
2, 62460, Note_on_c, 0, 79, 107
2, 62508, Note_off_c, 0, 79, 64
2, 62520, Note_on_c, 0, 77, 107
2, 62568, Note_off_c, 0, 77, 64
2, 62580, Note_on_c, 0, 79, 107
2, 62628, Note_off_c, 0, 79, 64
2, 62640, Note_on_c, 0, 81, 107
2, 62688, Note_off_c, 0, 81, 64
2, 62700, Note_on_c, 0, 82, 107
2, 62748, Note_off_c, 0, 82, 64
2, 62760, Note_on_c, 0, 81, 107
2, 62808, Note_off_c, 0, 81, 64
2, 62820, Note_on_c, 0, 82, 107
2, 62868, Note_off_c, 0, 82, 64
2, 62880, Note_on_c, 0, 79, 107
2, 62928, Note_off_c, 0, 79, 64
2, 62940, Note_on_c, 0, 81, 107
2, 62988, Note_off_c, 0, 81, 64
2, 63000, Note_on_c, 0, 79, 107
2, 63048, Note_off_c, 0, 79, 64
2, 63060, Note_on_c, 0, 77, 107
2, 63108, Note_off_c, 0, 77, 64
2, 63120, Note_on_c, 0, 76, 107
2, 63456, Note_off_c, 0, 76, 64
2, 63480, Note_on_c, 0, 81, 107
2, 63576, Note_off_c, 0, 81, 64
2, 63600, Note_on_c, 0, 77, 107
2, 63696, Note_off_c, 0, 77, 64
2, 63720, Note_on_c, 0, 82, 107
2, 63816, Note_off_c, 0, 82, 64
2, 63840, Note_on_c, 0, 79, 107
2, 63936, Note_off_c, 0, 79, 64
2, 63960, Note_on_c, 0, 76, 107
2, 64056, Note_off_c, 0, 76, 64
2, 64080, Note_on_c, 0, 81, 107
2, 64368, Note_off_c, 0, 81, 64
2, 64380, Note_on_c, 0, 74, 107
2, 64428, Note_off_c, 0, 74, 64
2, 64440, Note_on_c, 0, 76, 107
2, 64488, Note_off_c, 0, 76, 64
2, 64500, Note_on_c, 0, 77, 107
2, 64548, Note_off_c, 0, 77, 64
2, 64560, Note_on_c, 0, 79, 107
2, 64656, Note_off_c, 0, 79, 64
2, 64680, Note_on_c, 0, 70, 107
2, 64776, Note_off_c, 0, 70, 64
2, 64800, Note_on_c, 0, 69, 107
2, 64896, Note_off_c, 0, 69, 64
2, 64920, Note_on_c, 0, 79, 107
2, 65016, Note_off_c, 0, 79, 64
2, 65040, Note_on_c, 0, 79, 107
2, 65055, Note_off_c, 0, 79, 64
2, 65055, Note_on_c, 0, 77, 107
2, 65067, Note_off_c, 0, 77, 64
2, 65070, Note_on_c, 0, 79, 107
2, 65082, Note_off_c, 0, 79, 64
2, 65085, Note_on_c, 0, 77, 107
2, 65097, Note_off_c, 0, 77, 64
2, 65100, Note_on_c, 0, 76, 107
2, 65148, Note_off_c, 0, 76, 64
2, 65160, Note_on_c, 0, 77, 107
2, 65208, Note_off_c, 0, 77, 64
2, 65220, Note_on_c, 0, 79, 107
2, 65268, Note_off_c, 0, 79, 64
2, 65280, Note_on_c, 0, 76, 107
2, 65376, Note_off_c, 0, 76, 64
2, 65400, Note_on_c, 0, 78, 107
2, 65448, Note_off_c, 0, 78, 64
2, 65460, Note_on_c, 0, 80, 107
2, 65508, Note_off_c, 0, 80, 64
2, 65520, Note_on_c, 0, 81, 107
2, 65568, Note_off_c, 0, 81, 64
2, 65580, Note_on_c, 0, 83, 107
2, 65628, Note_off_c, 0, 83, 64
2, 65640, Note_on_c, 0, 84, 107
2, 65688, Note_off_c, 0, 84, 64
2, 65700, Note_on_c, 0, 81, 107
2, 65748, Note_off_c, 0, 81, 64
2, 65760, Note_on_c, 0, 83, 107
2, 65808, Note_off_c, 0, 83, 64
2, 65820, Note_on_c, 0, 81, 107
2, 65868, Note_off_c, 0, 81, 64
2, 65880, Note_on_c, 0, 83, 107
2, 65928, Note_off_c, 0, 83, 64
2, 65940, Note_on_c, 0, 84, 107
2, 65988, Note_off_c, 0, 84, 64
2, 66000, Note_on_c, 0, 83, 107
2, 66048, Note_off_c, 0, 83, 64
2, 66060, Note_on_c, 0, 76, 107
2, 66108, Note_off_c, 0, 76, 64
2, 66120, Note_on_c, 0, 78, 107
2, 66168, Note_off_c, 0, 78, 64
2, 66180, Note_on_c, 0, 80, 107
2, 66228, Note_off_c, 0, 80, 64
2, 66240, Note_on_c, 0, 81, 107
2, 66528, Note_off_c, 0, 81, 64
2, 66540, Note_on_c, 0, 77, 107
2, 66588, Note_off_c, 0, 77, 64
2, 66600, Note_on_c, 0, 76, 107
2, 66648, Note_off_c, 0, 76, 64
2, 66660, Note_on_c, 0, 74, 107
2, 66708, Note_off_c, 0, 74, 64
2, 66720, Note_on_c, 0, 83, 107
2, 66768, Note_off_c, 0, 83, 64
2, 66780, Note_on_c, 0, 81, 107
2, 66828, Note_off_c, 0, 81, 64
2, 66840, Note_on_c, 0, 80, 107
2, 66888, Note_off_c, 0, 80, 64
2, 66900, Note_on_c, 0, 78, 107
2, 66948, Note_off_c, 0, 78, 64
2, 66960, Note_on_c, 0, 76, 107
2, 67056, Note_off_c, 0, 76, 64
2, 67080, Note_on_c, 0, 81, 107
2, 67248, Note_off_c, 0, 81, 64
2, 67260, Note_on_c, 0, 80, 107
2, 67308, Note_off_c, 0, 80, 64
2, 67320, Note_on_c, 0, 78, 107
2, 67368, Note_off_c, 0, 78, 64
2, 67380, Note_on_c, 0, 80, 107
2, 67428, Note_off_c, 0, 80, 64
2, 67440, Note_on_c, 0, 81, 107
2, 67872, Note_off_c, 0, 81, 64
2, 67920, Note_on_c, 0, 79, 107
2, 68352, Note_off_c, 0, 79, 64
2, 68460, Note_on_c, 0, 81, 107
2, 68508, Note_off_c, 0, 81, 64
2, 68520, Note_on_c, 0, 79, 107
2, 68568, Note_off_c, 0, 79, 64
2, 68580, Note_on_c, 0, 77, 107
2, 68628, Note_off_c, 0, 77, 64
2, 68640, Note_on_c, 0, 76, 107
2, 68688, Note_off_c, 0, 76, 64
2, 68700, Note_on_c, 0, 77, 107
2, 68748, Note_off_c, 0, 77, 64
2, 68760, Note_on_c, 0, 76, 107
2, 68808, Note_off_c, 0, 76, 64
2, 68820, Note_on_c, 0, 77, 107
2, 68868, Note_off_c, 0, 77, 64
2, 68880, Note_on_c, 0, 79, 107
2, 68928, Note_off_c, 0, 79, 64
2, 68940, Note_on_c, 0, 81, 107
2, 68988, Note_off_c, 0, 81, 64
2, 69000, Note_on_c, 0, 79, 107
2, 69048, Note_off_c, 0, 79, 64
2, 69060, Note_on_c, 0, 81, 107
2, 69108, Note_off_c, 0, 81, 64
2, 69120, Note_on_c, 0, 79, 107
2, 69168, Note_off_c, 0, 79, 64
2, 69180, Note_on_c, 0, 78, 107
2, 69228, Note_off_c, 0, 78, 64
2, 69240, Note_on_c, 0, 76, 107
2, 69288, Note_off_c, 0, 76, 64
2, 69300, Note_on_c, 0, 74, 107
2, 69348, Note_off_c, 0, 74, 64
2, 69360, Note_on_c, 0, 79, 107
2, 69792, Note_off_c, 0, 79, 64
2, 69840, Note_on_c, 0, 77, 107
2, 70272, Note_off_c, 0, 77, 64
2, 70380, Note_on_c, 0, 79, 107
2, 70428, Note_off_c, 0, 79, 64
2, 70440, Note_on_c, 0, 77, 107
2, 70488, Note_off_c, 0, 77, 64
2, 70500, Note_on_c, 0, 76, 107
2, 70548, Note_off_c, 0, 76, 64
2, 70560, Note_on_c, 0, 74, 107
2, 70608, Note_off_c, 0, 74, 64
2, 70620, Note_on_c, 0, 76, 107
2, 70668, Note_off_c, 0, 76, 64
2, 70680, Note_on_c, 0, 74, 107
2, 70728, Note_off_c, 0, 74, 64
2, 70740, Note_on_c, 0, 76, 107
2, 70788, Note_off_c, 0, 76, 64
2, 70800, Note_on_c, 0, 77, 107
2, 70848, Note_off_c, 0, 77, 64
2, 70860, Note_on_c, 0, 79, 107
2, 70908, Note_off_c, 0, 79, 64
2, 70920, Note_on_c, 0, 77, 107
2, 70968, Note_off_c, 0, 77, 64
2, 70980, Note_on_c, 0, 79, 107
2, 71028, Note_off_c, 0, 79, 64
2, 71040, Note_on_c, 0, 76, 107
2, 71232, Note_off_c, 0, 76, 64
2, 71400, Note_on_c, 0, 72, 107
2, 71496, Note_off_c, 0, 72, 64
2, 71520, Note_on_c, 0, 69, 107
2, 71616, Note_off_c, 0, 69, 64
2, 71640, Note_on_c, 0, 74, 107
2, 71736, Note_off_c, 0, 74, 64
2, 71760, Note_on_c, 0, 71, 107
2, 71856, Note_off_c, 0, 71, 64
2, 71880, Note_on_c, 0, 67, 107
2, 71976, Note_off_c, 0, 67, 64
2, 72000, Note_on_c, 0, 72, 107
2, 72288, Note_off_c, 0, 72, 64
2, 72300, Note_on_c, 0, 77, 107
2, 72348, Note_off_c, 0, 77, 64
2, 72360, Note_on_c, 0, 79, 107
2, 72408, Note_off_c, 0, 79, 64
2, 72420, Note_on_c, 0, 81, 107
2, 72468, Note_off_c, 0, 81, 64
2, 72480, Note_on_c, 0, 71, 107
2, 72528, Note_off_c, 0, 71, 64
2, 72540, Note_on_c, 0, 74, 107
2, 72588, Note_off_c, 0, 74, 64
2, 72600, Note_on_c, 0, 76, 107
2, 72648, Note_off_c, 0, 76, 64
2, 72660, Note_on_c, 0, 77, 107
2, 72708, Note_off_c, 0, 77, 64
2, 72720, Note_on_c, 0, 67, 107
2, 72768, Note_off_c, 0, 67, 64
2, 72780, Note_on_c, 0, 71, 107
2, 72828, Note_off_c, 0, 71, 64
2, 72840, Note_on_c, 0, 72, 107
2, 72888, Note_off_c, 0, 72, 64
2, 72900, Note_on_c, 0, 74, 107
2, 72948, Note_off_c, 0, 74, 64
2, 72960, Note_on_c, 0, 71, 107
2, 73152, Note_off_c, 0, 71, 64
2, 73260, Note_on_c, 0, 79, 107
2, 73308, Note_off_c, 0, 79, 64
2, 73320, Note_on_c, 0, 74, 107
2, 73368, Note_off_c, 0, 74, 64
2, 73380, Note_on_c, 0, 77, 107
2, 73428, Note_off_c, 0, 77, 64
2, 73440, Note_on_c, 0, 76, 107
2, 73488, Note_off_c, 0, 76, 64
2, 73500, Note_on_c, 0, 79, 107
2, 73548, Note_off_c, 0, 79, 64
2, 73560, Note_on_c, 0, 71, 107
2, 73608, Note_off_c, 0, 71, 64
2, 73620, Note_on_c, 0, 74, 107
2, 73668, Note_off_c, 0, 74, 64
2, 73680, Note_on_c, 0, 72, 107
2, 73728, Note_off_c, 0, 72, 64
2, 73740, Note_on_c, 0, 76, 107
2, 73788, Note_off_c, 0, 76, 64
2, 73800, Note_on_c, 0, 74, 107
2, 73848, Note_off_c, 0, 74, 64
2, 73860, Note_on_c, 0, 72, 107
2, 73908, Note_off_c, 0, 72, 64
2, 73920, Note_on_c, 0, 71, 107
2, 73968, Note_off_c, 0, 71, 64
2, 73980, Note_on_c, 0, 67, 107
2, 74028, Note_off_c, 0, 67, 64
2, 74040, Note_on_c, 0, 71, 107
2, 74088, Note_off_c, 0, 71, 64
2, 74100, Note_on_c, 0, 74, 107
2, 74148, Note_off_c, 0, 74, 64
2, 74160, Note_on_c, 0, 79, 107
2, 75072, Note_off_c, 0, 79, 64
2, 75180, Note_on_c, 0, 76, 107
2, 75228, Note_off_c, 0, 76, 64
2, 75240, Note_on_c, 0, 71, 107
2, 75288, Note_off_c, 0, 71, 64
2, 75300, Note_on_c, 0, 74, 107
2, 75348, Note_off_c, 0, 74, 64
2, 75360, Note_on_c, 0, 72, 107
2, 75456, Note_off_c, 0, 72, 64
2, 75480, Note_on_c, 0, 81, 107
2, 75576, Note_off_c, 0, 81, 64
2, 75660, Note_on_c, 0, 74, 107
2, 75708, Note_off_c, 0, 74, 64
2, 75720, Note_on_c, 0, 69, 107
2, 75768, Note_off_c, 0, 69, 64
2, 75780, Note_on_c, 0, 72, 107
2, 75828, Note_off_c, 0, 72, 64
2, 75840, Note_on_c, 0, 71, 107
2, 75936, Note_off_c, 0, 71, 64
2, 75960, Note_on_c, 0, 79, 107
2, 76056, Note_off_c, 0, 79, 64
2, 76140, Note_on_c, 0, 72, 107
2, 76188, Note_off_c, 0, 72, 64
2, 76200, Note_on_c, 0, 67, 107
2, 76248, Note_off_c, 0, 67, 64
2, 76260, Note_on_c, 0, 70, 107
2, 76308, Note_off_c, 0, 70, 64
2, 76320, Note_on_c, 0, 69, 107
2, 76416, Note_off_c, 0, 69, 64
2, 76440, Note_on_c, 0, 81, 107
2, 76488, Note_off_c, 0, 81, 64
2, 76500, Note_on_c, 0, 79, 107
2, 76548, Note_off_c, 0, 79, 64
2, 76560, Note_on_c, 0, 77, 107
2, 76608, Note_off_c, 0, 77, 64
2, 76620, Note_on_c, 0, 76, 107
2, 76668, Note_off_c, 0, 76, 64
2, 76680, Note_on_c, 0, 74, 107
2, 76728, Note_off_c, 0, 74, 64
2, 76740, Note_on_c, 0, 72, 107
2, 76788, Note_off_c, 0, 72, 64
2, 76800, Note_on_c, 0, 71, 107
2, 76896, Note_off_c, 0, 71, 64
2, 76920, Note_on_c, 0, 67, 107
2, 77016, Note_off_c, 0, 67, 64
2, 77040, Note_on_c, 0, 72, 107
2, 77472, Note_off_c, 0, 72, 64
2, 77520, Note_on_c, 0, 71, 107
2, 77712, Note_off_c, 0, 71, 64
2, 77760, Note_on_c, 0, 72, 107
2, 78144, Note_off_c, 0, 72, 64
2, 78144, End_track
3, 0, Start_track
3, 0, Title_t, "J.S. Bach, Edition Peters"
3, 0, Program_c, 1, 19
3, 2040, Note_on_c, 1, 72, 107
3, 2160, Note_on_c, 1, 71, 107
3, 2169, Note_off_c, 1, 72, 64
3, 2280, Note_on_c, 1, 76, 107
3, 2293, Note_off_c, 1, 71, 64
3, 2396, Note_off_c, 1, 76, 64
3, 2400, Note_on_c, 1, 72, 107
3, 2520, Note_on_c, 1, 69, 107
3, 2531, Note_off_c, 1, 72, 64
3, 2638, Note_off_c, 1, 69, 64
3, 2640, Note_on_c, 1, 74, 107
3, 2940, Note_on_c, 1, 67, 107
3, 2953, Note_off_c, 1, 74, 64
3, 2997, Note_off_c, 1, 67, 64
3, 3000, Note_on_c, 1, 69, 107
3, 3060, Note_on_c, 1, 71, 107
3, 3069, Note_off_c, 1, 69, 64
3, 3116, Note_off_c, 1, 71, 64
3, 3120, Note_on_c, 1, 72, 107
3, 3240, Note_on_c, 1, 64, 107
3, 3242, Note_off_c, 1, 72, 64
3, 3316, Note_off_c, 1, 64, 64
3, 3360, Note_on_c, 1, 62, 107
3, 3475, Note_off_c, 1, 62, 64
3, 3480, Note_on_c, 1, 72, 107
3, 3600, Note_on_c, 1, 72, 107
3, 3615, Note_off_c, 1, 72, 64
3, 3615, Note_on_c, 1, 71, 107
3, 3616, Note_off_c, 1, 72, 64
3, 3630, Note_off_c, 1, 71, 64
3, 3630, Note_on_c, 1, 72, 107
3, 3645, Note_off_c, 1, 72, 64
3, 3645, Note_on_c, 1, 71, 107
3, 3660, Note_off_c, 1, 71, 64
3, 3660, Note_on_c, 1, 69, 107
3, 3720, Note_on_c, 1, 71, 107
3, 3728, Note_off_c, 1, 69, 64
3, 3777, Note_off_c, 1, 71, 64
3, 3780, Note_on_c, 1, 72, 107
3, 3828, Note_off_c, 1, 72, 64
3, 3840, Note_on_c, 1, 69, 107
3, 3936, Note_off_c, 1, 69, 64
3, 3960, Note_on_c, 1, 71, 107
3, 4008, Note_off_c, 1, 71, 64
3, 4020, Note_on_c, 1, 72, 107
3, 4068, Note_off_c, 1, 72, 64
3, 4080, Note_on_c, 1, 74, 107
3, 4128, Note_off_c, 1, 74, 64
3, 4140, Note_on_c, 1, 76, 107
3, 4188, Note_off_c, 1, 76, 64
3, 4200, Note_on_c, 1, 78, 107
3, 4248, Note_off_c, 1, 78, 64
3, 4260, Note_on_c, 1, 74, 107
3, 4308, Note_off_c, 1, 74, 64
3, 4320, Note_on_c, 1, 76, 107
3, 4368, Note_off_c, 1, 76, 64
3, 4380, Note_on_c, 1, 74, 107
3, 4428, Note_off_c, 1, 74, 64
3, 4440, Note_on_c, 1, 76, 107
3, 4488, Note_off_c, 1, 76, 64
3, 4500, Note_on_c, 1, 78, 107
3, 4548, Note_off_c, 1, 78, 64
3, 4560, Note_on_c, 1, 76, 107
3, 4608, Note_off_c, 1, 76, 64
3, 4620, Note_on_c, 1, 79, 107
3, 4668, Note_off_c, 1, 79, 64
3, 4680, Note_on_c, 1, 78, 107
3, 4728, Note_off_c, 1, 78, 64
3, 4740, Note_on_c, 1, 76, 107
3, 4788, Note_off_c, 1, 76, 64
3, 4800, Note_on_c, 1, 74, 107
3, 5088, Note_off_c, 1, 74, 64
3, 5100, Note_on_c, 1, 71, 107
3, 5148, Note_off_c, 1, 71, 64
3, 5160, Note_on_c, 1, 69, 107
3, 5208, Note_off_c, 1, 69, 64
3, 5220, Note_on_c, 1, 67, 107
3, 5268, Note_off_c, 1, 67, 64
3, 5280, Note_on_c, 1, 76, 107
3, 5340, Note_on_c, 1, 74, 107
3, 5348, Note_off_c, 1, 76, 64
3, 5400, Note_on_c, 1, 72, 107
3, 5403, Note_off_c, 1, 74, 64
3, 5451, Note_off_c, 1, 72, 64
3, 5460, Note_on_c, 1, 71, 107
3, 5520, Note_on_c, 1, 69, 107
3, 5529, Note_off_c, 1, 71, 64
3, 5637, Note_off_c, 1, 69, 64
3, 5640, Note_on_c, 1, 74, 107
3, 5760, Note_on_c, 1, 71, 107
3, 5780, Note_off_c, 1, 74, 64
3, 5820, Note_off_c, 1, 71, 64
3, 5820, Note_on_c, 1, 67, 107
3, 5880, Note_on_c, 1, 71, 107
3, 5887, Note_off_c, 1, 67, 64
3, 5935, Note_off_c, 1, 71, 64
3, 5940, Note_on_c, 1, 74, 107
3, 5983, Note_off_c, 1, 74, 64
3, 6000, Note_on_c, 1, 79, 107
3, 6912, Note_off_c, 1, 79, 64
3, 7020, Note_on_c, 1, 79, 107
3, 7068, Note_off_c, 1, 79, 64
3, 7080, Note_on_c, 1, 74, 107
3, 7128, Note_off_c, 1, 74, 64
3, 7140, Note_on_c, 1, 77, 107
3, 7188, Note_off_c, 1, 77, 64
3, 7200, Note_on_c, 1, 76, 107
3, 7255, Note_off_c, 1, 76, 64
3, 7260, Note_on_c, 1, 79, 107
3, 7320, Note_on_c, 1, 71, 107
3, 7321, Note_off_c, 1, 79, 64
3, 7365, Note_off_c, 1, 71, 64
3, 7380, Note_on_c, 1, 74, 107
3, 7439, Note_off_c, 1, 74, 64
3, 7440, Note_on_c, 1, 72, 107
3, 7492, Note_off_c, 1, 72, 64
3, 7500, Note_on_c, 1, 76, 107
3, 7560, Note_on_c, 1, 74, 107
3, 7574, Note_off_c, 1, 76, 64
3, 7617, Note_off_c, 1, 74, 64
3, 7620, Note_on_c, 1, 72, 107
3, 7668, Note_off_c, 1, 72, 64
3, 7680, Note_on_c, 1, 71, 107
3, 7689, Note_off_c, 1, 71, 64
3, 7740, Note_on_c, 1, 67, 107
3, 7794, Note_off_c, 1, 67, 64
3, 7800, Note_on_c, 1, 71, 107
3, 7845, Note_off_c, 1, 71, 64
3, 7860, Note_on_c, 1, 74, 107
3, 7906, Note_off_c, 1, 74, 64
3, 7920, Note_on_c, 1, 79, 107
3, 8220, Note_on_c, 1, 77, 107
3, 8228, Note_off_c, 1, 79, 64
3, 8280, Note_on_c, 1, 76, 107
3, 8285, Note_off_c, 1, 77, 64
3, 8333, Note_off_c, 1, 76, 64
3, 8340, Note_on_c, 1, 79, 107
3, 8400, Note_on_c, 1, 77, 107
3, 8413, Note_off_c, 1, 79, 64
3, 8688, Note_off_c, 1, 77, 64
3, 8700, Note_on_c, 1, 67, 107
3, 8760, Note_on_c, 1, 71, 107
3, 8764, Note_off_c, 1, 67, 64
3, 8820, Note_on_c, 1, 74, 107
3, 8823, Note_off_c, 1, 71, 64
3, 8880, Note_on_c, 1, 76, 107
3, 8881, Note_off_c, 1, 74, 64
3, 9177, Note_off_c, 1, 76, 64
3, 9180, Note_on_c, 1, 74, 107
3, 9237, Note_off_c, 1, 74, 64
3, 9240, Note_on_c, 1, 72, 107
3, 9288, Note_off_c, 1, 72, 64
3, 9300, Note_on_c, 1, 76, 107
3, 9357, Note_off_c, 1, 76, 64
3, 9360, Note_on_c, 1, 74, 107
3, 9660, Note_on_c, 1, 72, 107
3, 9676, Note_off_c, 1, 74, 64
3, 9720, Note_on_c, 1, 71, 107
3, 9732, Note_off_c, 1, 72, 64
3, 9780, Note_on_c, 1, 74, 107
3, 9782, Note_off_c, 1, 71, 64
3, 9840, Note_on_c, 1, 72, 107
3, 9844, Note_off_c, 1, 74, 64
3, 10200, Note_on_c, 1, 71, 107
3, 10214, Note_off_c, 1, 72, 64
3, 10258, Note_off_c, 1, 71, 64
3, 10260, Note_on_c, 1, 69, 107
3, 10318, Note_off_c, 1, 69, 64
3, 10320, Note_on_c, 1, 71, 107
3, 10800, Note_on_c, 1, 69, 107
3, 10806, Note_off_c, 1, 71, 64
3, 11160, Note_on_c, 1, 67, 107
3, 11190, Note_off_c, 1, 69, 64
3, 11220, Note_on_c, 1, 65, 107
3, 11222, Note_off_c, 1, 67, 64
3, 11274, Note_off_c, 1, 65, 64
3, 11280, Note_on_c, 1, 67, 107
3, 11760, Note_on_c, 1, 65, 107
3, 11778, Note_off_c, 1, 67, 64
3, 12060, Note_on_c, 1, 62, 107
3, 12064, Note_off_c, 1, 65, 64
3, 12120, Note_on_c, 1, 64, 107
3, 12121, Note_off_c, 1, 62, 64
3, 12174, Note_off_c, 1, 64, 64
3, 12180, Note_on_c, 1, 65, 107
3, 12240, Note_on_c, 1, 64, 107
3, 12256, Note_off_c, 1, 65, 64
3, 12296, Note_off_c, 1, 64, 64
3, 12300, Note_on_c, 1, 67, 107
3, 12360, Note_on_c, 1, 64, 107
3, 12369, Note_off_c, 1, 67, 64
3, 12420, Note_on_c, 1, 60, 107
3, 12424, Note_off_c, 1, 64, 64
3, 12472, Note_off_c, 1, 60, 64
3, 12480, Note_on_c, 1, 62, 107
3, 12540, Note_on_c, 1, 60, 107
3, 12541, Note_off_c, 1, 62, 64
3, 12600, Note_on_c, 1, 62, 107
3, 12604, Note_off_c, 1, 60, 64
3, 12659, Note_off_c, 1, 62, 64
3, 12660, Note_on_c, 1, 64, 107
3, 12720, Note_off_c, 1, 64, 64
3, 12720, Note_on_c, 1, 62, 107
3, 12775, Note_off_c, 1, 62, 64
3, 12780, Note_on_c, 1, 65, 107
3, 12840, Note_on_c, 1, 62, 107
3, 12851, Note_off_c, 1, 65, 64
3, 12896, Note_off_c, 1, 62, 64
3, 12900, Note_on_c, 1, 59, 107
3, 12948, Note_off_c, 1, 59, 64
3, 12960, Note_on_c, 1, 67, 107
3, 13064, Note_off_c, 1, 67, 64
3, 13080, Note_on_c, 1, 67, 107
3, 13140, Note_on_c, 1, 64, 107
3, 13144, Note_off_c, 1, 67, 64
3, 13200, Note_off_c, 1, 64, 64
3, 13200, Note_on_c, 1, 65, 107
3, 13260, Note_off_c, 1, 65, 64
3, 13260, Note_on_c, 1, 64, 107
3, 13317, Note_off_c, 1, 64, 64
3, 13320, Note_on_c, 1, 62, 107
3, 13380, Note_on_c, 1, 64, 107
3, 13386, Note_off_c, 1, 62, 64
3, 13413, Note_off_c, 1, 64, 64
3, 13440, Note_on_c, 1, 60, 107
3, 13566, Note_off_c, 1, 60, 64
3, 14400, Note_on_c, 1, 60, 107
3, 14451, Note_off_c, 1, 60, 64
3, 14460, Note_on_c, 1, 62, 107
3, 14516, Note_off_c, 1, 62, 64
3, 14520, Note_on_c, 1, 60, 107
3, 14580, Note_on_c, 1, 62, 107
3, 14586, Note_off_c, 1, 60, 64
3, 14640, Note_on_c, 1, 64, 107
3, 14645, Note_off_c, 1, 62, 64
3, 14700, Note_on_c, 1, 65, 107
3, 14705, Note_off_c, 1, 64, 64
3, 14760, Note_on_c, 1, 64, 107
3, 14762, Note_off_c, 1, 65, 64
3, 14811, Note_off_c, 1, 64, 64
3, 14820, Note_on_c, 1, 65, 107
3, 14880, Note_on_c, 1, 62, 107
3, 14895, Note_off_c, 1, 65, 64
3, 14940, Note_on_c, 1, 64, 107
3, 14945, Note_off_c, 1, 62, 64
3, 14999, Note_off_c, 1, 64, 64
3, 15000, Note_on_c, 1, 62, 107
3, 15060, Note_on_c, 1, 64, 107
3, 15062, Note_off_c, 1, 62, 64
3, 15120, Note_off_c, 1, 64, 64
3, 15120, Note_on_c, 1, 65, 107
3, 15176, Note_off_c, 1, 65, 64
3, 15180, Note_on_c, 1, 67, 107
3, 15240, Note_on_c, 1, 65, 107
3, 15247, Note_off_c, 1, 67, 64
3, 15300, Note_on_c, 1, 67, 107
3, 15311, Note_off_c, 1, 65, 64
3, 15345, Note_off_c, 1, 67, 64
3, 15360, Note_on_c, 1, 64, 107
3, 15480, Note_on_c, 1, 72, 107
3, 15482, Note_off_c, 1, 64, 64
3, 15595, Note_off_c, 1, 72, 64
3, 15600, Note_on_c, 1, 60, 107
3, 15720, Note_on_c, 1, 72, 107
3, 15722, Note_off_c, 1, 60, 64
3, 15840, Note_on_c, 1, 65, 107
3, 15850, Note_off_c, 1, 72, 64
3, 15959, Note_off_c, 1, 65, 64
3, 15960, Note_on_c, 1, 72, 107
3, 16080, Note_on_c, 1, 62, 107
3, 16090, Note_off_c, 1, 72, 64
3, 16196, Note_off_c, 1, 62, 64
3, 16200, Note_on_c, 1, 71, 107
3, 16320, Note_on_c, 1, 72, 107
3, 16327, Note_off_c, 1, 71, 64
3, 16440, Note_off_c, 1, 72, 64
3, 16440, Note_on_c, 1, 67, 107
3, 16452, Note_off_c, 1, 67, 64
3, 16560, Note_on_c, 1, 72, 107
3, 17040, Note_on_c, 1, 71, 107
3, 17050, Note_off_c, 1, 72, 64
3, 17520, Note_on_c, 1, 69, 107
3, 17529, Note_off_c, 1, 71, 64
3, 18000, Note_on_c, 1, 68, 107
3, 18005, Note_off_c, 1, 69, 64
3, 18120, Note_on_c, 1, 64, 107
3, 18123, Note_off_c, 1, 68, 64
3, 18240, Note_on_c, 1, 69, 107
3, 18244, Note_off_c, 1, 64, 64
3, 18300, Note_on_c, 1, 71, 107
3, 18310, Note_off_c, 1, 69, 64
3, 18357, Note_off_c, 1, 71, 64
3, 18360, Note_on_c, 1, 69, 107
3, 18420, Note_on_c, 1, 71, 107
3, 18424, Note_off_c, 1, 69, 64
3, 18480, Note_on_c, 1, 72, 107
3, 18482, Note_off_c, 1, 71, 64
3, 18540, Note_off_c, 1, 72, 64
3, 18540, Note_on_c, 1, 74, 107
3, 18600, Note_on_c, 1, 72, 107
3, 18604, Note_off_c, 1, 74, 64
3, 18660, Note_on_c, 1, 74, 107
3, 18664, Note_off_c, 1, 72, 64
3, 18720, Note_on_c, 1, 71, 107
3, 18722, Note_off_c, 1, 74, 64
3, 18775, Note_off_c, 1, 71, 64
3, 18780, Note_on_c, 1, 72, 107
3, 18840, Note_on_c, 1, 71, 107
3, 18842, Note_off_c, 1, 72, 64
3, 18900, Note_on_c, 1, 72, 107
3, 18908, Note_off_c, 1, 71, 64
3, 18958, Note_off_c, 1, 72, 64
3, 18960, Note_on_c, 1, 74, 107
3, 19020, Note_on_c, 1, 76, 107
3, 19025, Note_off_c, 1, 74, 64
3, 19080, Note_on_c, 1, 74, 107
3, 19095, Note_off_c, 1, 76, 64
3, 19140, Note_on_c, 1, 76, 107
3, 19146, Note_off_c, 1, 74, 64
3, 19194, Note_off_c, 1, 76, 64
3, 19200, Note_on_c, 1, 72, 107
3, 19260, Note_on_c, 1, 74, 107
3, 19262, Note_off_c, 1, 72, 64
3, 19319, Note_off_c, 1, 74, 64
3, 19320, Note_on_c, 1, 72, 107
3, 19380, Note_on_c, 1, 74, 107
3, 19384, Note_off_c, 1, 72, 64
3, 19430, Note_off_c, 1, 74, 64
3, 19440, Note_on_c, 1, 76, 107
3, 19491, Note_off_c, 1, 76, 64
3, 19500, Note_on_c, 1, 77, 107
3, 19560, Note_on_c, 1, 76, 107
3, 19567, Note_off_c, 1, 77, 64
3, 19608, Note_off_c, 1, 76, 64
3, 19620, Note_on_c, 1, 77, 107
3, 19680, Note_on_c, 1, 74, 107
3, 19683, Note_off_c, 1, 77, 64
3, 19738, Note_off_c, 1, 74, 64
3, 19740, Note_on_c, 1, 76, 107
3, 19800, Note_on_c, 1, 74, 107
3, 19807, Note_off_c, 1, 76, 64
3, 19860, Note_on_c, 1, 72, 107
3, 19865, Note_off_c, 1, 74, 64
3, 19920, Note_on_c, 1, 71, 107
3, 19943, Note_off_c, 1, 72, 64
3, 20272, Note_off_c, 1, 71, 64
3, 20280, Note_on_c, 1, 76, 107
3, 20400, Note_on_c, 1, 72, 107
3, 20408, Note_off_c, 1, 76, 64
3, 20520, Note_on_c, 1, 77, 107
3, 20524, Note_off_c, 1, 72, 64
3, 20640, Note_on_c, 1, 74, 107
3, 20653, Note_off_c, 1, 77, 64
3, 20759, Note_off_c, 1, 74, 64
3, 20760, Note_on_c, 1, 71, 107
3, 20878, Note_off_c, 1, 71, 64
3, 20880, Note_on_c, 1, 76, 107
3, 21180, Note_on_c, 1, 69, 107
3, 21184, Note_off_c, 1, 76, 64
3, 21240, Note_off_c, 1, 69, 64
3, 21240, Note_on_c, 1, 71, 107
3, 21300, Note_on_c, 1, 72, 107
3, 21301, Note_off_c, 1, 71, 64
3, 21360, Note_on_c, 1, 74, 107
3, 21363, Note_off_c, 1, 72, 64
3, 21469, Note_off_c, 1, 74, 64
3, 21480, Note_on_c, 1, 65, 107
3, 21564, Note_off_c, 1, 65, 64
3, 21600, Note_on_c, 1, 64, 107
3, 21720, Note_on_c, 1, 74, 107
3, 21729, Note_off_c, 1, 64, 64
3, 21840, Note_on_c, 1, 74, 107
3, 21849, Note_off_c, 1, 74, 64
3, 21855, Note_off_c, 1, 74, 64
3, 21855, Note_on_c, 1, 72, 105
3, 21870, Note_off_c, 1, 72, 64
3, 21870, Note_on_c, 1, 74, 105
3, 21882, Note_off_c, 1, 74, 64
3, 21885, Note_on_c, 1, 72, 105
3, 21897, Note_off_c, 1, 72, 64
3, 21900, Note_on_c, 1, 71, 107
3, 21960, Note_on_c, 1, 72, 107
3, 21977, Note_off_c, 1, 71, 64
3, 22017, Note_off_c, 1, 72, 64
3, 22020, Note_on_c, 1, 74, 107
3, 22068, Note_off_c, 1, 74, 64
3, 22080, Note_on_c, 1, 71, 107
3, 22193, Note_off_c, 1, 71, 64
3, 22200, Note_on_c, 1, 73, 107
3, 22259, Note_off_c, 1, 73, 64
3, 22260, Note_on_c, 1, 75, 107
3, 22320, Note_on_c, 1, 76, 107
3, 22321, Note_off_c, 1, 75, 64
3, 22380, Note_on_c, 1, 78, 107
3, 22386, Note_off_c, 1, 76, 64
3, 22431, Note_off_c, 1, 78, 64
3, 22440, Note_on_c, 1, 79, 107
3, 22485, Note_off_c, 1, 79, 64
3, 22500, Note_on_c, 1, 76, 107
3, 22547, Note_off_c, 1, 76, 64
3, 22560, Note_on_c, 1, 78, 107
3, 22615, Note_off_c, 1, 78, 64
3, 22620, Note_on_c, 1, 76, 107
3, 22680, Note_on_c, 1, 78, 107
3, 22685, Note_off_c, 1, 76, 64
3, 22730, Note_off_c, 1, 78, 64
3, 22740, Note_on_c, 1, 79, 107
3, 22786, Note_off_c, 1, 79, 64
3, 22800, Note_on_c, 1, 78, 107
3, 22855, Note_off_c, 1, 78, 64
3, 22860, Note_on_c, 1, 81, 107
3, 22920, Note_on_c, 1, 79, 107
3, 22923, Note_off_c, 1, 81, 64
3, 22971, Note_off_c, 1, 79, 64
3, 22980, Note_on_c, 1, 78, 107
3, 23038, Note_off_c, 1, 78, 64
3, 23040, Note_on_c, 1, 76, 107
3, 23328, Note_off_c, 1, 76, 64
3, 23340, Note_on_c, 1, 72, 107
3, 23400, Note_on_c, 1, 71, 107
3, 23404, Note_off_c, 1, 72, 64
3, 23447, Note_off_c, 1, 71, 64
3, 23460, Note_on_c, 1, 69, 107
3, 23513, Note_off_c, 1, 69, 64
3, 23520, Note_on_c, 1, 78, 107
3, 23576, Note_off_c, 1, 78, 64
3, 23580, Note_on_c, 1, 76, 107
3, 23640, Note_off_c, 1, 76, 64
3, 23640, Note_on_c, 1, 75, 107
3, 23685, Note_off_c, 1, 75, 64
3, 23700, Note_on_c, 1, 73, 107
3, 23737, Note_off_c, 1, 73, 64
3, 23760, Note_on_c, 1, 71, 107
3, 23870, Note_off_c, 1, 71, 64
3, 23880, Note_on_c, 1, 76, 107
3, 24060, Note_on_c, 1, 75, 107
3, 24082, Note_off_c, 1, 76, 64
3, 24119, Note_off_c, 1, 75, 64
3, 24120, Note_on_c, 1, 73, 107
3, 24180, Note_on_c, 1, 75, 107
3, 24185, Note_off_c, 1, 73, 64
3, 24229, Note_off_c, 1, 75, 64
3, 24240, Note_on_c, 1, 76, 107
3, 24720, Note_on_c, 1, 74, 107
3, 24732, Note_off_c, 1, 76, 64
3, 25211, Note_off_c, 1, 74, 64
3, 25260, Note_on_c, 1, 76, 107
3, 25295, Note_off_c, 1, 76, 64
3, 25320, Note_on_c, 1, 74, 107
3, 25371, Note_off_c, 1, 74, 64
3, 25380, Note_on_c, 1, 72, 107
3, 25432, Note_off_c, 1, 72, 64
3, 25440, Note_on_c, 1, 71, 107
3, 25495, Note_off_c, 1, 71, 64
3, 25500, Note_on_c, 1, 72, 107
3, 25559, Note_off_c, 1, 72, 64
3, 25560, Note_on_c, 1, 71, 107
3, 25620, Note_on_c, 1, 72, 107
3, 25624, Note_off_c, 1, 71, 64
3, 25675, Note_off_c, 1, 72, 64
3, 25680, Note_on_c, 1, 74, 107
3, 25729, Note_off_c, 1, 74, 64
3, 25740, Note_on_c, 1, 76, 107
3, 25800, Note_on_c, 1, 74, 107
3, 25802, Note_off_c, 1, 76, 64
3, 25857, Note_off_c, 1, 74, 64
3, 25860, Note_on_c, 1, 76, 107
3, 25908, Note_off_c, 1, 76, 64
3, 25920, Note_on_c, 1, 74, 107
3, 25980, Note_on_c, 1, 73, 107
3, 25985, Note_off_c, 1, 74, 64
3, 26040, Note_on_c, 1, 71, 107
3, 26046, Note_off_c, 1, 73, 64
3, 26084, Note_off_c, 1, 71, 64
3, 26100, Note_on_c, 1, 69, 107
3, 26145, Note_off_c, 1, 69, 64
3, 26160, Note_on_c, 1, 74, 107
3, 26640, Note_on_c, 1, 72, 107
3, 26642, Note_off_c, 1, 74, 64
3, 27137, Note_off_c, 1, 72, 64
3, 27180, Note_on_c, 1, 74, 107
3, 27222, Note_off_c, 1, 74, 64
3, 27240, Note_on_c, 1, 72, 107
3, 27287, Note_off_c, 1, 72, 64
3, 27300, Note_on_c, 1, 71, 107
3, 27358, Note_off_c, 1, 71, 64
3, 27360, Note_on_c, 1, 69, 107
3, 27413, Note_off_c, 1, 69, 64
3, 27420, Note_on_c, 1, 71, 107
3, 27473, Note_off_c, 1, 71, 64
3, 27480, Note_on_c, 1, 69, 107
3, 27536, Note_off_c, 1, 69, 64
3, 27540, Note_on_c, 1, 71, 107
3, 27599, Note_off_c, 1, 71, 64
3, 27600, Note_on_c, 1, 72, 107
3, 27660, Note_off_c, 1, 72, 64
3, 27660, Note_on_c, 1, 74, 107
3, 27720, Note_on_c, 1, 72, 107
3, 27724, Note_off_c, 1, 74, 64
3, 27777, Note_off_c, 1, 72, 64
3, 27780, Note_on_c, 1, 74, 107
3, 27828, Note_off_c, 1, 74, 64
3, 27840, Note_on_c, 1, 71, 107
3, 28032, Note_off_c, 1, 71, 64
3, 28200, Note_on_c, 1, 67, 107
3, 28315, Note_off_c, 1, 67, 64
3, 28320, Note_on_c, 1, 64, 107
3, 28440, Note_on_c, 1, 69, 107
3, 28448, Note_off_c, 1, 64, 64
3, 28559, Note_off_c, 1, 69, 64
3, 28560, Note_on_c, 1, 66, 107
3, 28680, Note_on_c, 1, 62, 107
3, 28681, Note_off_c, 1, 66, 64
3, 28800, Note_on_c, 1, 67, 107
3, 28807, Note_off_c, 1, 62, 64
3, 29088, Note_off_c, 1, 67, 64
3, 29100, Note_on_c, 1, 72, 107
3, 29156, Note_off_c, 1, 72, 64
3, 29160, Note_on_c, 1, 74, 107
3, 29214, Note_off_c, 1, 74, 64
3, 29220, Note_on_c, 1, 76, 107
3, 29244, Note_off_c, 1, 76, 64
3, 29280, Note_on_c, 1, 66, 107
3, 29333, Note_off_c, 1, 66, 64
3, 29340, Note_on_c, 1, 69, 107
3, 29400, Note_on_c, 1, 71, 107
3, 29404, Note_off_c, 1, 69, 64
3, 29450, Note_off_c, 1, 71, 64
3, 29460, Note_on_c, 1, 72, 107
3, 29494, Note_off_c, 1, 72, 64
3, 29520, Note_on_c, 1, 62, 107
3, 29562, Note_off_c, 1, 62, 64
3, 29580, Note_on_c, 1, 66, 107
3, 29604, Note_off_c, 1, 66, 64
3, 29640, Note_on_c, 1, 67, 107
3, 29667, Note_off_c, 1, 67, 64
3, 29700, Note_on_c, 1, 69, 107
3, 29714, Note_off_c, 1, 69, 64
3, 29760, Note_on_c, 1, 66, 107
3, 29992, Note_off_c, 1, 66, 64
3, 30060, Note_on_c, 1, 74, 107
3, 30097, Note_off_c, 1, 74, 64
3, 30120, Note_on_c, 1, 69, 107
3, 30157, Note_off_c, 1, 69, 64
3, 30180, Note_on_c, 1, 72, 107
3, 30218, Note_off_c, 1, 72, 64
3, 30240, Note_on_c, 1, 71, 107
3, 30289, Note_off_c, 1, 71, 64
3, 30300, Note_on_c, 1, 74, 107
3, 30352, Note_off_c, 1, 74, 64
3, 30360, Note_on_c, 1, 66, 107
3, 30368, Note_off_c, 1, 66, 64
3, 30420, Note_on_c, 1, 69, 107
3, 30458, Note_off_c, 1, 69, 64
3, 30480, Note_on_c, 1, 67, 107
3, 30518, Note_off_c, 1, 67, 64
3, 30540, Note_on_c, 1, 71, 107
3, 30593, Note_off_c, 1, 71, 64
3, 30600, Note_on_c, 1, 69, 107
3, 30647, Note_off_c, 1, 69, 64
3, 30660, Note_on_c, 1, 67, 107
3, 30682, Note_off_c, 1, 67, 64
3, 30720, Note_on_c, 1, 66, 107
3, 30772, Note_off_c, 1, 66, 64
3, 30780, Note_on_c, 1, 62, 107
3, 30840, Note_on_c, 1, 66, 107
3, 30855, Note_off_c, 1, 62, 64
3, 30900, Note_on_c, 1, 69, 107
3, 30905, Note_off_c, 1, 66, 64
3, 30959, Note_off_c, 1, 69, 64
3, 30960, Note_on_c, 1, 74, 107
3, 31933, Note_off_c, 1, 74, 64
3, 31980, Note_on_c, 1, 71, 107
3, 32028, Note_off_c, 1, 71, 64
3, 32040, Note_on_c, 1, 66, 107
3, 32091, Note_off_c, 1, 66, 64
3, 32100, Note_on_c, 1, 69, 107
3, 32153, Note_off_c, 1, 69, 64
3, 32160, Note_on_c, 1, 67, 107
3, 32252, Note_off_c, 1, 67, 64
3, 32280, Note_on_c, 1, 76, 107
3, 32378, Note_off_c, 1, 76, 64
3, 32460, Note_on_c, 1, 69, 107
3, 32508, Note_off_c, 1, 69, 64
3, 32520, Note_on_c, 1, 64, 107
3, 32568, Note_off_c, 1, 64, 64
3, 32580, Note_on_c, 1, 67, 107
3, 32628, Note_off_c, 1, 67, 64
3, 32640, Note_on_c, 1, 66, 107
3, 32741, Note_off_c, 1, 66, 64
3, 32760, Note_on_c, 1, 74, 107
3, 32839, Note_off_c, 1, 74, 64
3, 32940, Note_on_c, 1, 67, 107
3, 32980, Note_off_c, 1, 67, 64
3, 33000, Note_on_c, 1, 62, 107
3, 33036, Note_off_c, 1, 62, 64
3, 33060, Note_on_c, 1, 65, 107
3, 33100, Note_off_c, 1, 65, 64
3, 33120, Note_on_c, 1, 64, 107
3, 33204, Note_off_c, 1, 64, 64
3, 33240, Note_on_c, 1, 76, 107
3, 33274, Note_off_c, 1, 76, 64
3, 33300, Note_on_c, 1, 74, 107
3, 33359, Note_off_c, 1, 74, 64
3, 33360, Note_on_c, 1, 72, 107
3, 33416, Note_off_c, 1, 72, 64
3, 33420, Note_on_c, 1, 71, 107
3, 33480, Note_on_c, 1, 69, 107
3, 33483, Note_off_c, 1, 71, 64
3, 33540, Note_on_c, 1, 67, 107
3, 33553, Note_off_c, 1, 69, 64
3, 33564, Note_off_c, 1, 67, 64
3, 33600, Note_on_c, 1, 66, 107
3, 33720, Note_off_c, 1, 66, 64
3, 33720, Note_on_c, 1, 62, 107
3, 33805, Note_off_c, 1, 62, 64
3, 33900, Note_on_c, 1, 62, 107
3, 33957, Note_off_c, 1, 62, 64
3, 33960, Note_on_c, 1, 60, 107
3, 34004, Note_off_c, 1, 60, 64
3, 34020, Note_on_c, 1, 59, 107
3, 34069, Note_off_c, 1, 59, 64
3, 34080, Note_on_c, 1, 64, 107
3, 34128, Note_off_c, 1, 64, 64
3, 34140, Note_on_c, 1, 62, 107
3, 34200, Note_on_c, 1, 60, 107
3, 34201, Note_off_c, 1, 62, 64
3, 34260, Note_on_c, 1, 59, 107
3, 34265, Note_off_c, 1, 60, 64
3, 34293, Note_off_c, 1, 59, 64
3, 34320, Note_on_c, 1, 57, 107
3, 34372, Note_off_c, 1, 57, 64
3, 34380, Note_on_c, 1, 59, 107
3, 34440, Note_on_c, 1, 60, 107
3, 34442, Note_off_c, 1, 59, 64
3, 34496, Note_off_c, 1, 60, 64
3, 34500, Note_on_c, 1, 57, 107
3, 34539, Note_off_c, 1, 57, 64
3, 34560, Note_on_c, 1, 59, 107
3, 34744, Note_off_c, 1, 59, 64
3, 36120, Note_on_c, 1, 69, 107
3, 36232, Note_off_c, 1, 69, 64
3, 36240, Note_on_c, 1, 65, 107
3, 36350, Note_off_c, 1, 65, 64
3, 36360, Note_on_c, 1, 70, 107
3, 36479, Note_off_c, 1, 70, 64
3, 36480, Note_on_c, 1, 68, 107
3, 36600, Note_on_c, 1, 64, 107
3, 36609, Note_off_c, 1, 68, 64
3, 36715, Note_off_c, 1, 64, 64
3, 36720, Note_on_c, 1, 69, 107
3, 37008, Note_off_c, 1, 69, 64
3, 37020, Note_on_c, 1, 74, 107
3, 37080, Note_on_c, 1, 76, 107
3, 37086, Note_off_c, 1, 74, 64
3, 37132, Note_off_c, 1, 76, 64
3, 37140, Note_on_c, 1, 77, 107
3, 37168, Note_off_c, 1, 77, 64
3, 37200, Note_on_c, 1, 68, 107
3, 37255, Note_off_c, 1, 68, 64
3, 37260, Note_on_c, 1, 77, 107
3, 37313, Note_off_c, 1, 77, 64
3, 37320, Note_on_c, 1, 76, 107
3, 37378, Note_off_c, 1, 76, 64
3, 37380, Note_on_c, 1, 74, 107
3, 37426, Note_off_c, 1, 74, 64
3, 37440, Note_on_c, 1, 72, 107
3, 37493, Note_off_c, 1, 72, 64
3, 37500, Note_on_c, 1, 74, 107
3, 37560, Note_on_c, 1, 72, 107
3, 37576, Note_off_c, 1, 74, 64
3, 37620, Note_on_c, 1, 71, 107
3, 37623, Note_off_c, 1, 72, 64
3, 37680, Note_on_c, 1, 69, 107
3, 37688, Note_off_c, 1, 71, 64
3, 37740, Note_on_c, 1, 71, 107
3, 37748, Note_off_c, 1, 69, 64
3, 37794, Note_off_c, 1, 71, 64
3, 37800, Note_on_c, 1, 72, 107
3, 37849, Note_off_c, 1, 72, 64
3, 37860, Note_on_c, 1, 69, 107
3, 37909, Note_off_c, 1, 69, 64
3, 37920, Note_on_c, 1, 71, 107
3, 37975, Note_off_c, 1, 71, 64
3, 37980, Note_on_c, 1, 72, 107
3, 38040, Note_on_c, 1, 71, 107
3, 38044, Note_off_c, 1, 72, 64
3, 38100, Note_on_c, 1, 69, 107
3, 38102, Note_off_c, 1, 71, 64
3, 38160, Note_on_c, 1, 67, 107
3, 38166, Note_off_c, 1, 69, 64
3, 38216, Note_off_c, 1, 67, 64
3, 38220, Note_on_c, 1, 69, 107
3, 38271, Note_off_c, 1, 69, 64
3, 38280, Note_on_c, 1, 71, 107
3, 38337, Note_off_c, 1, 71, 64
3, 38340, Note_on_c, 1, 67, 107
3, 38388, Note_off_c, 1, 67, 64
3, 38400, Note_on_c, 1, 69, 107
3, 38501, Note_off_c, 1, 69, 64
3, 38520, Note_on_c, 1, 66, 107
3, 38555, Note_off_c, 1, 66, 64
3, 38640, Note_on_c, 1, 78, 107
3, 39000, Note_on_c, 1, 76, 107
3, 39007, Note_off_c, 1, 78, 64
3, 39055, Note_off_c, 1, 76, 64
3, 39060, Note_on_c, 1, 75, 107
3, 39118, Note_off_c, 1, 75, 64
3, 39120, Note_on_c, 1, 76, 107
3, 39480, Note_on_c, 1, 74, 107
3, 39498, Note_off_c, 1, 76, 64
3, 39536, Note_off_c, 1, 74, 64
3, 39540, Note_on_c, 1, 73, 107
3, 39594, Note_off_c, 1, 73, 64
3, 39600, Note_on_c, 1, 74, 107
3, 39656, Note_off_c, 1, 74, 64
3, 39660, Note_on_c, 1, 72, 107
3, 39681, Note_off_c, 1, 72, 64
3, 39720, Note_on_c, 1, 71, 107
3, 39777, Note_off_c, 1, 71, 64
3, 39780, Note_on_c, 1, 69, 107
3, 39828, Note_off_c, 1, 69, 64
3, 39840, Note_on_c, 1, 67, 107
3, 39888, Note_off_c, 1, 67, 64
3, 39900, Note_on_c, 1, 66, 107
3, 39948, Note_off_c, 1, 66, 64
3, 39960, Note_on_c, 1, 64, 107
3, 40008, Note_off_c, 1, 64, 64
3, 40020, Note_on_c, 1, 62, 107
3, 40068, Note_off_c, 1, 62, 64
3, 40080, Note_on_c, 1, 60, 107
3, 40128, Note_off_c, 1, 60, 64
3, 40140, Note_on_c, 1, 59, 107
3, 40188, Note_off_c, 1, 59, 64
3, 40200, Note_on_c, 1, 57, 107
3, 40248, Note_off_c, 1, 57, 64
3, 40260, Note_on_c, 1, 55, 107
3, 40308, Note_off_c, 1, 55, 64
3, 40320, Note_on_c, 1, 54, 107
3, 40416, Note_off_c, 1, 54, 64
3, 40440, Note_on_c, 1, 71, 107
3, 40536, Note_off_c, 1, 71, 64
3, 40560, Note_on_c, 1, 67, 107
3, 40656, Note_off_c, 1, 67, 64
3, 40680, Note_on_c, 1, 72, 107
3, 40776, Note_off_c, 1, 72, 64
3, 40800, Note_on_c, 1, 69, 107
3, 40896, Note_off_c, 1, 69, 64
3, 40920, Note_on_c, 1, 66, 107
3, 41016, Note_off_c, 1, 66, 64
3, 41040, Note_on_c, 1, 71, 107
3, 41136, Note_off_c, 1, 71, 64
3, 41160, Note_on_c, 1, 74, 107
3, 41256, Note_off_c, 1, 74, 64
3, 41280, Note_on_c, 1, 68, 107
3, 41376, Note_off_c, 1, 68, 64
3, 41400, Note_on_c, 1, 64, 107
3, 41496, Note_off_c, 1, 64, 64
3, 41520, Note_on_c, 1, 69, 107
3, 41856, Note_off_c, 1, 69, 64
3, 41880, Note_on_c, 1, 67, 107
3, 41928, Note_off_c, 1, 67, 64
3, 41940, Note_on_c, 1, 65, 107
3, 41988, Note_off_c, 1, 65, 64
3, 42000, Note_on_c, 1, 67, 107
3, 42288, Note_off_c, 1, 67, 64
3, 42300, Note_on_c, 1, 64, 107
3, 42348, Note_off_c, 1, 64, 64
3, 42360, Note_on_c, 1, 61, 107
3, 42408, Note_off_c, 1, 61, 64
3, 42420, Note_on_c, 1, 64, 107
3, 42468, Note_off_c, 1, 64, 64
3, 42480, Note_on_c, 1, 65, 107
3, 42528, Note_off_c, 1, 65, 64
3, 42540, Note_on_c, 1, 69, 107
3, 42588, Note_off_c, 1, 69, 64
3, 42600, Note_on_c, 1, 62, 107
3, 42648, Note_off_c, 1, 62, 64
3, 42660, Note_on_c, 1, 65, 107
3, 42708, Note_off_c, 1, 65, 64
3, 42720, Note_on_c, 1, 70, 107
3, 42768, Note_off_c, 1, 70, 64
3, 42780, Note_on_c, 1, 67, 107
3, 42828, Note_off_c, 1, 67, 64
3, 42840, Note_on_c, 1, 69, 107
3, 42888, Note_off_c, 1, 69, 64
3, 42900, Note_on_c, 1, 70, 107
3, 42948, Note_off_c, 1, 70, 64
3, 42960, Note_on_c, 1, 64, 107
3, 43008, Note_off_c, 1, 64, 64
3, 43020, Note_on_c, 1, 67, 107
3, 43068, Note_off_c, 1, 67, 64
3, 43080, Note_on_c, 1, 65, 107
3, 43128, Note_off_c, 1, 65, 64
3, 43140, Note_on_c, 1, 64, 107
3, 43188, Note_off_c, 1, 64, 64
3, 43200, Note_on_c, 1, 62, 107
3, 43392, Note_off_c, 1, 62, 64
3, 44280, Note_on_c, 1, 69, 107
3, 44376, Note_off_c, 1, 69, 64
3, 44400, Note_on_c, 1, 65, 107
3, 44496, Note_off_c, 1, 65, 64
3, 44520, Note_on_c, 1, 70, 107
3, 44616, Note_off_c, 1, 70, 64
3, 44640, Note_on_c, 1, 67, 107
3, 44736, Note_off_c, 1, 67, 64
3, 44760, Note_on_c, 1, 64, 107
3, 44856, Note_off_c, 1, 64, 64
3, 44880, Note_on_c, 1, 69, 107
3, 45168, Note_off_c, 1, 69, 64
3, 45180, Note_on_c, 1, 62, 107
3, 45228, Note_off_c, 1, 62, 64
3, 45240, Note_on_c, 1, 64, 107
3, 45288, Note_off_c, 1, 64, 64
3, 45300, Note_on_c, 1, 65, 107
3, 45348, Note_off_c, 1, 65, 64
3, 45360, Note_on_c, 1, 67, 107
3, 45456, Note_off_c, 1, 67, 64
3, 45480, Note_on_c, 1, 58, 107
3, 45576, Note_off_c, 1, 58, 64
3, 45600, Note_on_c, 1, 57, 107
3, 45696, Note_off_c, 1, 57, 64
3, 45720, Note_on_c, 1, 67, 107
3, 45816, Note_off_c, 1, 67, 64
3, 45840, Note_on_c, 1, 67, 107
3, 45855, Note_off_c, 1, 67, 64
3, 45855, Note_on_c, 1, 65, 107
3, 45867, Note_off_c, 1, 65, 64
3, 45870, Note_on_c, 1, 67, 107
3, 45882, Note_off_c, 1, 67, 64
3, 45885, Note_on_c, 1, 65, 107
3, 45897, Note_off_c, 1, 65, 64
3, 45900, Note_on_c, 1, 64, 107
3, 45948, Note_off_c, 1, 64, 64
3, 45960, Note_on_c, 1, 65, 107
3, 46008, Note_off_c, 1, 65, 64
3, 46020, Note_on_c, 1, 67, 107
3, 46068, Note_off_c, 1, 67, 64
3, 46080, Note_on_c, 1, 64, 107
3, 46272, Note_off_c, 1, 64, 64
3, 46380, Note_on_c, 1, 69, 107
3, 46428, Note_off_c, 1, 69, 64
3, 46440, Note_on_c, 1, 65, 107
3, 46488, Note_off_c, 1, 65, 64
3, 46500, Note_on_c, 1, 62, 107
3, 46548, Note_off_c, 1, 62, 64
3, 46560, Note_on_c, 1, 64, 107
3, 46608, Note_off_c, 1, 64, 64
3, 46620, Note_on_c, 1, 62, 107
3, 46668, Note_off_c, 1, 62, 64
3, 46680, Note_on_c, 1, 64, 107
3, 46728, Note_off_c, 1, 64, 64
3, 46740, Note_on_c, 1, 65, 107
3, 46788, Note_off_c, 1, 65, 64
3, 46800, Note_on_c, 1, 64, 107
3, 46848, Note_off_c, 1, 64, 64
3, 46860, Note_on_c, 1, 69, 107
3, 46908, Note_off_c, 1, 69, 64
3, 46920, Note_on_c, 1, 64, 107
3, 46968, Note_off_c, 1, 64, 64
3, 46980, Note_on_c, 1, 60, 107
3, 47028, Note_off_c, 1, 60, 64
3, 47040, Note_on_c, 1, 62, 107
3, 47088, Note_off_c, 1, 62, 64
3, 47100, Note_on_c, 1, 60, 107
3, 47148, Note_off_c, 1, 60, 64
3, 47160, Note_on_c, 1, 62, 107
3, 47208, Note_off_c, 1, 62, 64
3, 47220, Note_on_c, 1, 64, 107
3, 47268, Note_off_c, 1, 64, 64
3, 47280, Note_on_c, 1, 62, 107
3, 47328, Note_off_c, 1, 62, 64
3, 47340, Note_on_c, 1, 65, 107
3, 47388, Note_off_c, 1, 65, 64
3, 47400, Note_on_c, 1, 62, 107
3, 47448, Note_off_c, 1, 62, 64
3, 47460, Note_on_c, 1, 58, 107
3, 47508, Note_off_c, 1, 58, 64
3, 47520, Note_on_c, 1, 60, 107
3, 47568, Note_off_c, 1, 60, 64
3, 47580, Note_on_c, 1, 58, 107
3, 47628, Note_off_c, 1, 58, 64
3, 47640, Note_on_c, 1, 60, 107
3, 47688, Note_off_c, 1, 60, 64
3, 47700, Note_on_c, 1, 62, 107
3, 47748, Note_off_c, 1, 62, 64
3, 47760, Note_on_c, 1, 60, 107
3, 47808, Note_off_c, 1, 60, 64
3, 47820, Note_on_c, 1, 65, 107
3, 47868, Note_off_c, 1, 65, 64
3, 47880, Note_on_c, 1, 60, 107
3, 47928, Note_off_c, 1, 60, 64
3, 47940, Note_on_c, 1, 57, 107
3, 47988, Note_off_c, 1, 57, 64
3, 48000, Note_on_c, 1, 58, 107
3, 48048, Note_off_c, 1, 58, 64
3, 48060, Note_on_c, 1, 57, 107
3, 48108, Note_off_c, 1, 57, 64
3, 48120, Note_on_c, 1, 58, 107
3, 48168, Note_off_c, 1, 58, 64
3, 48180, Note_on_c, 1, 60, 107
3, 48228, Note_off_c, 1, 60, 64
3, 48240, Note_on_c, 1, 58, 107
3, 48288, Note_off_c, 1, 58, 64
3, 48300, Note_on_c, 1, 62, 107
3, 48348, Note_off_c, 1, 62, 64
3, 48360, Note_on_c, 1, 60, 107
3, 48408, Note_off_c, 1, 60, 64
3, 48420, Note_on_c, 1, 58, 107
3, 48468, Note_off_c, 1, 58, 64
3, 48480, Note_on_c, 1, 57, 107
3, 48768, Note_off_c, 1, 57, 64
3, 48780, Note_on_c, 1, 65, 107
3, 48828, Note_off_c, 1, 65, 64
3, 48840, Note_on_c, 1, 62, 107
3, 48888, Note_off_c, 1, 62, 64
3, 48900, Note_on_c, 1, 58, 107
3, 48948, Note_off_c, 1, 58, 64
3, 48960, Note_on_c, 1, 67, 107
3, 49056, Note_off_c, 1, 67, 64
3, 49080, Note_on_c, 1, 58, 107
3, 49296, Note_off_c, 1, 58, 64
3, 49320, Note_on_c, 1, 57, 107
3, 49368, Note_off_c, 1, 57, 64
3, 49380, Note_on_c, 1, 55, 107
3, 49428, Note_off_c, 1, 55, 64
3, 49440, Note_on_c, 1, 53, 107
3, 49536, Note_off_c, 1, 53, 64
3, 49560, Note_on_c, 1, 62, 107
3, 49656, Note_off_c, 1, 62, 64
3, 49680, Note_on_c, 1, 52, 107
3, 49776, Note_off_c, 1, 52, 64
3, 49800, Note_on_c, 1, 61, 107
3, 49896, Note_off_c, 1, 61, 64
3, 49920, Note_on_c, 1, 62, 107
3, 50112, Note_off_c, 1, 62, 64
3, 50220, Note_on_c, 1, 57, 107
3, 50268, Note_off_c, 1, 57, 64
3, 50280, Note_on_c, 1, 53, 107
3, 50328, Note_off_c, 1, 53, 64
3, 50340, Note_on_c, 1, 50, 107
3, 50388, Note_off_c, 1, 50, 64
3, 50400, Note_on_c, 1, 58, 107
3, 50448, Note_off_c, 1, 58, 64
3, 50460, Note_on_c, 1, 55, 107
3, 50508, Note_off_c, 1, 55, 64
3, 50520, Note_on_c, 1, 58, 107
3, 50568, Note_off_c, 1, 58, 64
3, 50580, Note_on_c, 1, 62, 107
3, 50628, Note_off_c, 1, 62, 64
3, 50640, Note_on_c, 1, 67, 107
3, 50928, Note_off_c, 1, 67, 64
3, 50940, Note_on_c, 1, 64, 107
3, 50988, Note_off_c, 1, 64, 64
3, 51000, Note_on_c, 1, 67, 107
3, 51048, Note_off_c, 1, 67, 64
3, 51060, Note_on_c, 1, 72, 107
3, 51108, Note_off_c, 1, 72, 64
3, 51120, Note_on_c, 1, 60, 107
3, 51168, Note_off_c, 1, 60, 64
3, 51180, Note_on_c, 1, 67, 107
3, 51228, Note_off_c, 1, 67, 64
3, 51240, Note_on_c, 1, 64, 107
3, 51288, Note_off_c, 1, 64, 64
3, 51300, Note_on_c, 1, 60, 107
3, 51348, Note_off_c, 1, 60, 64
3, 51360, Note_on_c, 1, 69, 107
3, 51408, Note_off_c, 1, 69, 64
3, 51420, Note_on_c, 1, 53, 107
3, 51468, Note_off_c, 1, 53, 64
3, 51480, Note_on_c, 1, 57, 107
3, 51528, Note_off_c, 1, 57, 64
3, 51540, Note_on_c, 1, 60, 107
3, 51588, Note_off_c, 1, 60, 64
3, 51600, Note_on_c, 1, 65, 107
3, 51888, Note_off_c, 1, 65, 64
3, 51900, Note_on_c, 1, 62, 107
3, 51948, Note_off_c, 1, 62, 64
3, 51960, Note_on_c, 1, 65, 107
3, 52008, Note_off_c, 1, 65, 64
3, 52020, Note_on_c, 1, 70, 107
3, 52068, Note_off_c, 1, 70, 64
3, 52080, Note_on_c, 1, 58, 107
3, 52128, Note_off_c, 1, 58, 64
3, 52140, Note_on_c, 1, 65, 107
3, 52188, Note_off_c, 1, 65, 64
3, 52200, Note_on_c, 1, 62, 107
3, 52248, Note_off_c, 1, 62, 64
3, 52260, Note_on_c, 1, 58, 107
3, 52308, Note_off_c, 1, 58, 64
3, 52320, Note_on_c, 1, 67, 107
3, 52608, Note_off_c, 1, 67, 64
3, 52620, Note_on_c, 1, 64, 107
3, 52668, Note_off_c, 1, 64, 64
3, 52680, Note_on_c, 1, 65, 107
3, 52848, Note_off_c, 1, 65, 64
3, 52860, Note_on_c, 1, 58, 107
3, 52908, Note_off_c, 1, 58, 64
3, 52920, Note_on_c, 1, 57, 107
3, 52968, Note_off_c, 1, 57, 64
3, 52980, Note_on_c, 1, 55, 107
3, 53028, Note_off_c, 1, 55, 64
3, 53040, Note_on_c, 1, 53, 107
3, 53088, Note_off_c, 1, 53, 64
3, 53100, Note_on_c, 1, 62, 107
3, 53148, Note_off_c, 1, 62, 64
3, 53160, Note_on_c, 1, 64, 107
3, 53208, Note_off_c, 1, 64, 64
3, 53220, Note_on_c, 1, 65, 107
3, 53268, Note_off_c, 1, 65, 64
3, 53280, Note_on_c, 1, 67, 107
3, 53328, Note_off_c, 1, 67, 64
3, 53340, Note_on_c, 1, 65, 107
3, 53388, Note_off_c, 1, 65, 64
3, 53400, Note_on_c, 1, 67, 107
3, 53448, Note_off_c, 1, 67, 64
3, 53460, Note_on_c, 1, 69, 107
3, 53508, Note_off_c, 1, 69, 64
3, 53520, Note_on_c, 1, 67, 107
3, 53568, Note_off_c, 1, 67, 64
3, 53580, Note_on_c, 1, 70, 107
3, 53628, Note_off_c, 1, 70, 64
3, 53640, Note_on_c, 1, 69, 107
3, 53688, Note_off_c, 1, 69, 64
3, 53700, Note_on_c, 1, 67, 107
3, 53748, Note_off_c, 1, 67, 64
3, 53760, Note_on_c, 1, 65, 107
3, 54048, Note_off_c, 1, 65, 64
3, 54060, Note_on_c, 1, 62, 107
3, 54108, Note_off_c, 1, 62, 64
3, 54120, Note_on_c, 1, 60, 107
3, 54168, Note_off_c, 1, 60, 64
3, 54180, Note_on_c, 1, 58, 107
3, 54228, Note_off_c, 1, 58, 64
3, 54240, Note_on_c, 1, 67, 107
3, 54288, Note_off_c, 1, 67, 64
3, 54300, Note_on_c, 1, 65, 107
3, 54348, Note_off_c, 1, 65, 64
3, 54360, Note_on_c, 1, 64, 107
3, 54408, Note_off_c, 1, 64, 64
3, 54420, Note_on_c, 1, 62, 107
3, 54468, Note_off_c, 1, 62, 64
3, 54480, Note_on_c, 1, 60, 107
3, 54576, Note_off_c, 1, 60, 64
3, 54600, Note_on_c, 1, 65, 107
3, 54768, Note_off_c, 1, 65, 64
3, 54780, Note_on_c, 1, 64, 107
3, 54828, Note_off_c, 1, 64, 64
3, 54840, Note_on_c, 1, 65, 107
3, 54888, Note_off_c, 1, 65, 64
3, 54900, Note_on_c, 1, 62, 107
3, 54948, Note_off_c, 1, 62, 64
3, 54960, Note_on_c, 1, 64, 107
3, 55056, Note_off_c, 1, 64, 64
3, 55080, Note_on_c, 1, 69, 107
3, 55176, Note_off_c, 1, 69, 64
3, 55200, Note_on_c, 1, 65, 107
3, 55296, Note_off_c, 1, 65, 64
3, 55320, Note_on_c, 1, 62, 107
3, 55416, Note_off_c, 1, 62, 64
3, 55440, Note_on_c, 1, 67, 107
3, 55728, Note_off_c, 1, 67, 64
3, 55740, Note_on_c, 1, 60, 107
3, 55788, Note_off_c, 1, 60, 64
3, 55800, Note_on_c, 1, 62, 107
3, 55848, Note_off_c, 1, 62, 64
3, 55860, Note_on_c, 1, 64, 107
3, 55908, Note_off_c, 1, 64, 64
3, 55920, Note_on_c, 1, 65, 107
3, 56352, Note_off_c, 1, 65, 64
3, 56400, Note_on_c, 1, 65, 107
3, 56415, Note_off_c, 1, 65, 64
3, 56415, Note_on_c, 1, 64, 107
3, 56427, Note_off_c, 1, 64, 64
3, 56430, Note_on_c, 1, 65, 107
3, 56442, Note_off_c, 1, 65, 64
3, 56445, Note_on_c, 1, 64, 107
3, 56457, Note_off_c, 1, 64, 64
3, 56460, Note_on_c, 1, 65, 107
3, 56472, Note_off_c, 1, 65, 64
3, 56475, Note_on_c, 1, 64, 107
3, 56487, Note_off_c, 1, 64, 64
3, 56490, Note_on_c, 1, 65, 107
3, 56502, Note_off_c, 1, 65, 64
3, 56505, Note_on_c, 1, 64, 107
3, 56517, Note_off_c, 1, 64, 64
3, 56520, Note_on_c, 1, 65, 107
3, 56532, Note_off_c, 1, 65, 64
3, 56535, Note_on_c, 1, 64, 107
3, 56547, Note_off_c, 1, 64, 64
3, 56550, Note_on_c, 1, 65, 107
3, 56562, Note_off_c, 1, 65, 64
3, 56565, Note_on_c, 1, 64, 107
3, 56580, Note_off_c, 1, 64, 64
3, 56580, Note_on_c, 1, 62, 107
3, 56580, Note_on_c, 1, 64, 107
3, 56604, Note_off_c, 1, 64, 64
3, 56604, Note_off_c, 1, 62, 64
3, 56610, Note_on_c, 1, 64, 107
3, 56634, Note_off_c, 1, 64, 64
3, 56640, Note_on_c, 1, 65, 107
3, 56688, Note_off_c, 1, 65, 64
3, 56700, Note_on_c, 1, 67, 107
3, 56748, Note_off_c, 1, 67, 64
3, 56760, Note_on_c, 1, 65, 107
3, 56808, Note_off_c, 1, 65, 64
3, 56820, Note_on_c, 1, 67, 107
3, 56868, Note_off_c, 1, 67, 64
3, 56880, Note_on_c, 1, 69, 107
3, 56928, Note_off_c, 1, 69, 64
3, 56940, Note_on_c, 1, 70, 107
3, 56988, Note_off_c, 1, 70, 64
3, 57000, Note_on_c, 1, 69, 107
3, 57048, Note_off_c, 1, 69, 64
3, 57060, Note_on_c, 1, 70, 107
3, 57108, Note_off_c, 1, 70, 64
3, 57120, Note_on_c, 1, 67, 107
3, 57168, Note_off_c, 1, 67, 64
3, 57180, Note_on_c, 1, 69, 107
3, 57228, Note_off_c, 1, 69, 64
3, 57240, Note_on_c, 1, 67, 107
3, 57288, Note_off_c, 1, 67, 64
3, 57300, Note_on_c, 1, 69, 107
3, 57348, Note_off_c, 1, 69, 64
3, 57360, Note_on_c, 1, 70, 107
3, 57408, Note_off_c, 1, 70, 64
3, 57420, Note_on_c, 1, 72, 107
3, 57468, Note_off_c, 1, 72, 64
3, 57480, Note_on_c, 1, 70, 107
3, 57528, Note_off_c, 1, 70, 64
3, 57540, Note_on_c, 1, 72, 107
3, 57588, Note_off_c, 1, 72, 64
3, 57600, Note_on_c, 1, 69, 107
3, 57696, Note_off_c, 1, 69, 64
3, 57720, Note_on_c, 1, 65, 107
3, 57816, Note_off_c, 1, 65, 64
3, 57840, Note_on_c, 1, 53, 107
3, 57936, Note_off_c, 1, 53, 64
3, 57960, Note_on_c, 1, 65, 107
3, 58056, Note_off_c, 1, 65, 64
3, 58080, Note_on_c, 1, 58, 107
3, 58176, Note_off_c, 1, 58, 64
3, 58200, Note_on_c, 1, 65, 107
3, 58296, Note_off_c, 1, 65, 64
3, 58320, Note_on_c, 1, 55, 107
3, 58416, Note_off_c, 1, 55, 64
3, 58440, Note_on_c, 1, 64, 107
3, 58536, Note_off_c, 1, 64, 64
3, 58560, Note_on_c, 1, 65, 107
3, 58656, Note_off_c, 1, 65, 64
3, 58800, Note_on_c, 1, 72, 107
3, 58896, Note_off_c, 1, 72, 64
3, 59040, Note_on_c, 1, 74, 107
3, 59136, Note_off_c, 1, 74, 64
3, 59280, Note_on_c, 1, 76, 107
3, 59376, Note_off_c, 1, 76, 64
3, 59640, Note_on_c, 1, 77, 107
3, 59688, Note_off_c, 1, 77, 64
3, 59700, Note_on_c, 1, 76, 107
3, 59748, Note_off_c, 1, 76, 64
3, 59760, Note_on_c, 1, 74, 107
3, 59808, Note_off_c, 1, 74, 64
3, 59820, Note_on_c, 1, 72, 107
3, 59868, Note_off_c, 1, 72, 64
3, 59880, Note_on_c, 1, 70, 107
3, 59928, Note_off_c, 1, 70, 64
3, 59940, Note_on_c, 1, 69, 107
3, 59988, Note_off_c, 1, 69, 64
3, 60000, Note_on_c, 1, 67, 107
3, 60048, Note_off_c, 1, 67, 64
3, 60060, Note_on_c, 1, 69, 107
3, 60108, Note_off_c, 1, 69, 64
3, 60120, Note_on_c, 1, 67, 107
3, 60168, Note_off_c, 1, 67, 64
3, 60180, Note_on_c, 1, 69, 107
3, 60228, Note_off_c, 1, 69, 64
3, 60240, Note_on_c, 1, 70, 107
3, 60288, Note_off_c, 1, 70, 64
3, 60300, Note_on_c, 1, 72, 107
3, 60348, Note_off_c, 1, 72, 64
3, 60360, Note_on_c, 1, 70, 107
3, 60408, Note_off_c, 1, 70, 64
3, 60420, Note_on_c, 1, 72, 107
3, 60468, Note_off_c, 1, 72, 64
3, 60480, Note_on_c, 1, 65, 107
3, 60528, Note_off_c, 1, 65, 64
3, 60540, Note_on_c, 1, 67, 107
3, 60588, Note_off_c, 1, 67, 64
3, 60600, Note_on_c, 1, 65, 107
3, 60648, Note_off_c, 1, 65, 64
3, 60660, Note_on_c, 1, 67, 107
3, 60708, Note_off_c, 1, 67, 64
3, 60720, Note_on_c, 1, 69, 107
3, 60768, Note_off_c, 1, 69, 64
3, 60780, Note_on_c, 1, 70, 107
3, 60828, Note_off_c, 1, 70, 64
3, 60840, Note_on_c, 1, 69, 107
3, 60888, Note_off_c, 1, 69, 64
3, 60900, Note_on_c, 1, 70, 107
3, 60948, Note_off_c, 1, 70, 64
3, 60960, Note_on_c, 1, 64, 107
3, 61008, Note_off_c, 1, 64, 64
3, 61020, Note_on_c, 1, 65, 107
3, 61068, Note_off_c, 1, 65, 64
3, 61080, Note_on_c, 1, 64, 107
3, 61128, Note_off_c, 1, 64, 64
3, 61140, Note_on_c, 1, 65, 107
3, 61188, Note_off_c, 1, 65, 64
3, 61200, Note_on_c, 1, 67, 107
3, 61248, Note_off_c, 1, 67, 64
3, 61260, Note_on_c, 1, 69, 107
3, 61308, Note_off_c, 1, 69, 64
3, 61320, Note_on_c, 1, 67, 107
3, 61368, Note_off_c, 1, 67, 64
3, 61380, Note_on_c, 1, 69, 107
3, 61428, Note_off_c, 1, 69, 64
3, 61440, Note_on_c, 1, 65, 107
3, 61536, Note_off_c, 1, 65, 64
3, 61560, Note_on_c, 1, 69, 107
3, 61656, Note_off_c, 1, 69, 64
3, 61680, Note_on_c, 1, 62, 107
3, 61776, Note_off_c, 1, 62, 64
3, 61800, Note_on_c, 1, 74, 107
3, 61896, Note_off_c, 1, 74, 64
3, 61920, Note_on_c, 1, 70, 107
3, 62016, Note_off_c, 1, 70, 64
3, 62040, Note_on_c, 1, 74, 107
3, 62136, Note_off_c, 1, 74, 64
3, 62160, Note_on_c, 1, 64, 107
3, 62256, Note_off_c, 1, 64, 64
3, 62280, Note_on_c, 1, 73, 107
3, 62376, Note_off_c, 1, 73, 64
3, 62400, Note_on_c, 1, 62, 107
3, 62448, Note_off_c, 1, 62, 64
3, 62460, Note_on_c, 1, 64, 107
3, 62508, Note_off_c, 1, 64, 64
3, 62520, Note_on_c, 1, 62, 107
3, 62568, Note_off_c, 1, 62, 64
3, 62580, Note_on_c, 1, 64, 107
3, 62628, Note_off_c, 1, 64, 64
3, 62640, Note_on_c, 1, 65, 107
3, 62688, Note_off_c, 1, 65, 64
3, 62700, Note_on_c, 1, 67, 107
3, 62748, Note_off_c, 1, 67, 64
3, 62760, Note_on_c, 1, 65, 107
3, 62808, Note_off_c, 1, 65, 64
3, 62820, Note_on_c, 1, 67, 107
3, 62868, Note_off_c, 1, 67, 64
3, 62880, Note_on_c, 1, 64, 107
3, 62928, Note_off_c, 1, 64, 64
3, 62940, Note_on_c, 1, 65, 107
3, 62988, Note_off_c, 1, 65, 64
3, 63000, Note_on_c, 1, 64, 107
3, 63048, Note_off_c, 1, 64, 64
3, 63060, Note_on_c, 1, 65, 107
3, 63108, Note_off_c, 1, 65, 64
3, 63120, Note_on_c, 1, 67, 107
3, 63168, Note_off_c, 1, 67, 64
3, 63180, Note_on_c, 1, 69, 107
3, 63228, Note_off_c, 1, 69, 64
3, 63240, Note_on_c, 1, 67, 107
3, 63288, Note_off_c, 1, 67, 64
3, 63300, Note_on_c, 1, 69, 107
3, 63348, Note_off_c, 1, 69, 64
3, 63360, Note_on_c, 1, 65, 107
3, 63408, Note_off_c, 1, 65, 64
3, 63420, Note_on_c, 1, 64, 107
3, 63468, Note_off_c, 1, 64, 64
3, 63480, Note_on_c, 1, 65, 107
3, 63528, Note_off_c, 1, 65, 64
3, 63540, Note_on_c, 1, 69, 107
3, 63588, Note_off_c, 1, 69, 64
3, 63600, Note_on_c, 1, 74, 107
3, 63936, Note_off_c, 1, 74, 64
3, 63960, Note_on_c, 1, 72, 107
3, 64008, Note_off_c, 1, 72, 64
3, 64020, Note_on_c, 1, 70, 107
3, 64068, Note_off_c, 1, 70, 64
3, 64080, Note_on_c, 1, 72, 107
3, 64128, Note_off_c, 1, 72, 64
3, 64140, Note_on_c, 1, 69, 107
3, 64188, Note_off_c, 1, 69, 64
3, 64200, Note_on_c, 1, 62, 107
3, 64248, Note_off_c, 1, 62, 64
3, 64260, Note_on_c, 1, 72, 107
3, 64308, Note_off_c, 1, 72, 64
3, 64320, Note_on_c, 1, 70, 107
3, 64608, Note_off_c, 1, 70, 64
3, 64620, Note_on_c, 1, 67, 107
3, 64668, Note_off_c, 1, 67, 64
3, 64680, Note_on_c, 1, 64, 107
3, 64728, Note_off_c, 1, 64, 64
3, 64740, Note_on_c, 1, 67, 107
3, 64788, Note_off_c, 1, 67, 64
3, 64800, Note_on_c, 1, 61, 107
3, 64848, Note_off_c, 1, 61, 64
3, 64860, Note_on_c, 1, 62, 107
3, 64908, Note_off_c, 1, 62, 64
3, 64920, Note_on_c, 1, 64, 107
3, 64968, Note_off_c, 1, 64, 64
3, 64980, Note_on_c, 1, 61, 107
3, 65028, Note_off_c, 1, 61, 64
3, 65040, Note_on_c, 1, 57, 107
3, 65136, Note_off_c, 1, 57, 64
3, 65160, Note_on_c, 1, 74, 107
3, 65328, Note_off_c, 1, 74, 64
3, 65340, Note_on_c, 1, 72, 107
3, 65388, Note_off_c, 1, 72, 64
3, 65400, Note_on_c, 1, 74, 107
3, 65448, Note_off_c, 1, 74, 64
3, 65460, Note_on_c, 1, 71, 107
3, 65508, Note_off_c, 1, 71, 64
3, 65520, Note_on_c, 1, 72, 107
3, 65616, Note_off_c, 1, 72, 64
3, 65640, Note_on_c, 1, 77, 107
3, 65736, Note_off_c, 1, 77, 64
3, 65760, Note_on_c, 1, 74, 107
3, 65856, Note_off_c, 1, 74, 64
3, 65880, Note_on_c, 1, 71, 107
3, 65976, Note_off_c, 1, 71, 64
3, 66000, Note_on_c, 1, 76, 107
3, 66288, Note_off_c, 1, 76, 64
3, 66300, Note_on_c, 1, 69, 107
3, 66348, Note_off_c, 1, 69, 64
3, 66360, Note_on_c, 1, 71, 107
3, 66408, Note_off_c, 1, 71, 64
3, 66420, Note_on_c, 1, 72, 107
3, 66468, Note_off_c, 1, 72, 64
3, 66480, Note_on_c, 1, 74, 107
3, 66576, Note_off_c, 1, 74, 64
3, 66600, Note_on_c, 1, 65, 107
3, 66696, Note_off_c, 1, 65, 64
3, 66720, Note_on_c, 1, 64, 107
3, 66816, Note_off_c, 1, 64, 64
3, 66840, Note_on_c, 1, 74, 107
3, 66936, Note_off_c, 1, 74, 64
3, 66960, Note_on_c, 1, 72, 107
3, 67008, Note_off_c, 1, 72, 64
3, 67020, Note_on_c, 1, 71, 107
3, 67068, Note_off_c, 1, 71, 64
3, 67080, Note_on_c, 1, 72, 107
3, 67128, Note_off_c, 1, 72, 64
3, 67140, Note_on_c, 1, 74, 107
3, 67188, Note_off_c, 1, 74, 64
3, 67200, Note_on_c, 1, 71, 107
3, 67392, Note_off_c, 1, 71, 64
3, 67500, Note_on_c, 1, 74, 107
3, 67548, Note_off_c, 1, 74, 64
3, 67560, Note_on_c, 1, 72, 107
3, 67608, Note_off_c, 1, 72, 64
3, 67620, Note_on_c, 1, 71, 107
3, 67668, Note_off_c, 1, 71, 64
3, 67680, Note_on_c, 1, 71, 107
3, 67728, Note_off_c, 1, 71, 64
3, 67740, Note_on_c, 1, 72, 107
3, 67788, Note_off_c, 1, 72, 64
3, 67800, Note_on_c, 1, 71, 107
3, 67848, Note_off_c, 1, 71, 64
3, 67860, Note_on_c, 1, 72, 107
3, 67908, Note_off_c, 1, 72, 64
3, 67920, Note_on_c, 1, 74, 107
3, 67968, Note_off_c, 1, 74, 64
3, 67980, Note_on_c, 1, 76, 107
3, 68028, Note_off_c, 1, 76, 64
3, 68040, Note_on_c, 1, 74, 107
3, 68088, Note_off_c, 1, 74, 64
3, 68100, Note_on_c, 1, 76, 107
3, 68148, Note_off_c, 1, 76, 64
3, 68160, Note_on_c, 1, 74, 107
3, 68208, Note_off_c, 1, 74, 64
3, 68220, Note_on_c, 1, 73, 107
3, 68268, Note_off_c, 1, 73, 64
3, 68280, Note_on_c, 1, 71, 107
3, 68328, Note_off_c, 1, 71, 64
3, 68340, Note_on_c, 1, 69, 107
3, 68388, Note_off_c, 1, 69, 64
3, 68400, Note_on_c, 1, 74, 107
3, 68832, Note_off_c, 1, 74, 64
3, 68880, Note_on_c, 1, 72, 107
3, 69312, Note_off_c, 1, 72, 64
3, 69420, Note_on_c, 1, 74, 107
3, 69468, Note_off_c, 1, 74, 64
3, 69480, Note_on_c, 1, 72, 107
3, 69528, Note_off_c, 1, 72, 64
3, 69540, Note_on_c, 1, 71, 107
3, 69588, Note_off_c, 1, 71, 64
3, 69600, Note_on_c, 1, 69, 107
3, 69648, Note_off_c, 1, 69, 64
3, 69660, Note_on_c, 1, 71, 107
3, 69708, Note_off_c, 1, 71, 64
3, 69720, Note_on_c, 1, 69, 107
3, 69768, Note_off_c, 1, 69, 64
3, 69780, Note_on_c, 1, 71, 107
3, 69828, Note_off_c, 1, 71, 64
3, 69840, Note_on_c, 1, 72, 107
3, 69888, Note_off_c, 1, 72, 64
3, 69900, Note_on_c, 1, 74, 107
3, 69948, Note_off_c, 1, 74, 64
3, 69960, Note_on_c, 1, 72, 107
3, 70008, Note_off_c, 1, 72, 64
3, 70020, Note_on_c, 1, 74, 107
3, 70068, Note_off_c, 1, 74, 64
3, 70080, Note_on_c, 1, 72, 107
3, 70128, Note_off_c, 1, 72, 64
3, 70140, Note_on_c, 1, 71, 107
3, 70188, Note_off_c, 1, 71, 64
3, 70200, Note_on_c, 1, 69, 107
3, 70248, Note_off_c, 1, 69, 64
3, 70260, Note_on_c, 1, 67, 107
3, 70308, Note_off_c, 1, 67, 64
3, 70320, Note_on_c, 1, 72, 107
3, 70752, Note_off_c, 1, 72, 64
3, 70800, Note_on_c, 1, 71, 107
3, 70992, Note_off_c, 1, 71, 64
3, 71040, Note_on_c, 1, 72, 107
3, 71136, Note_off_c, 1, 72, 64
3, 71160, Note_on_c, 1, 67, 107
3, 71256, Note_off_c, 1, 67, 64
3, 71280, Note_on_c, 1, 64, 107
3, 71376, Note_off_c, 1, 64, 64
3, 71400, Note_on_c, 1, 69, 107
3, 71496, Note_off_c, 1, 69, 64
3, 71520, Note_on_c, 1, 65, 107
3, 71616, Note_off_c, 1, 65, 64
3, 71640, Note_on_c, 1, 62, 107
3, 71736, Note_off_c, 1, 62, 64
3, 71760, Note_on_c, 1, 67, 107
3, 72048, Note_off_c, 1, 67, 64
3, 72060, Note_on_c, 1, 60, 107
3, 72108, Note_off_c, 1, 60, 64
3, 72120, Note_on_c, 1, 62, 107
3, 72168, Note_off_c, 1, 62, 64
3, 72180, Note_on_c, 1, 64, 107
3, 72228, Note_off_c, 1, 64, 64
3, 72240, Note_on_c, 1, 65, 107
3, 72528, Note_off_c, 1, 65, 64
3, 72540, Note_on_c, 1, 59, 107
3, 72588, Note_off_c, 1, 59, 64
3, 72600, Note_on_c, 1, 60, 107
3, 72648, Note_off_c, 1, 60, 64
3, 72660, Note_on_c, 1, 62, 107
3, 72708, Note_off_c, 1, 62, 64
3, 72720, Note_on_c, 1, 64, 107
3, 72768, Note_off_c, 1, 64, 64
3, 72780, Note_on_c, 1, 62, 107
3, 72828, Note_off_c, 1, 62, 64
3, 72840, Note_on_c, 1, 64, 107
3, 72888, Note_off_c, 1, 64, 64
3, 72900, Note_on_c, 1, 65, 107
3, 72948, Note_off_c, 1, 65, 64
3, 72960, Note_on_c, 1, 62, 107
3, 73008, Note_off_c, 1, 62, 64
3, 73020, Note_on_c, 1, 55, 107
3, 73068, Note_off_c, 1, 55, 64
3, 73080, Note_on_c, 1, 59, 107
3, 73128, Note_off_c, 1, 59, 64
3, 73140, Note_on_c, 1, 62, 107
3, 73188, Note_off_c, 1, 62, 64
3, 73200, Note_on_c, 1, 67, 107
3, 74112, Note_off_c, 1, 67, 64
3, 74220, Note_on_c, 1, 67, 107
3, 74268, Note_off_c, 1, 67, 64
3, 74280, Note_on_c, 1, 62, 107
3, 74328, Note_off_c, 1, 62, 64
3, 74340, Note_on_c, 1, 65, 107
3, 74388, Note_off_c, 1, 65, 64
3, 74400, Note_on_c, 1, 64, 107
3, 74448, Note_off_c, 1, 64, 64
3, 74460, Note_on_c, 1, 67, 107
3, 74508, Note_off_c, 1, 67, 64
3, 74520, Note_on_c, 1, 59, 107
3, 74568, Note_off_c, 1, 59, 64
3, 74580, Note_on_c, 1, 62, 107
3, 74628, Note_off_c, 1, 62, 64
3, 74640, Note_on_c, 1, 60, 107
3, 74688, Note_off_c, 1, 60, 64
3, 74700, Note_on_c, 1, 64, 107
3, 74748, Note_off_c, 1, 64, 64
3, 74760, Note_on_c, 1, 62, 107
3, 74808, Note_off_c, 1, 62, 64
3, 74820, Note_on_c, 1, 60, 107
3, 74868, Note_off_c, 1, 60, 64
3, 74880, Note_on_c, 1, 59, 107
3, 74928, Note_off_c, 1, 59, 64
3, 74940, Note_on_c, 1, 55, 107
3, 74988, Note_off_c, 1, 55, 64
3, 75000, Note_on_c, 1, 59, 107
3, 75048, Note_off_c, 1, 59, 64
3, 75060, Note_on_c, 1, 62, 107
3, 75108, Note_off_c, 1, 62, 64
3, 75120, Note_on_c, 1, 67, 107
3, 75408, Note_off_c, 1, 67, 64
3, 75420, Note_on_c, 1, 65, 107
3, 75468, Note_off_c, 1, 65, 64
3, 75480, Note_on_c, 1, 64, 107
3, 75528, Note_off_c, 1, 64, 64
3, 75540, Note_on_c, 1, 67, 107
3, 75588, Note_off_c, 1, 67, 64
3, 75600, Note_on_c, 1, 65, 107
3, 75888, Note_off_c, 1, 65, 64
3, 75900, Note_on_c, 1, 55, 107
3, 75948, Note_off_c, 1, 55, 64
3, 75960, Note_on_c, 1, 59, 107
3, 76008, Note_off_c, 1, 59, 64
3, 76020, Note_on_c, 1, 62, 107
3, 76068, Note_off_c, 1, 62, 64
3, 76080, Note_on_c, 1, 64, 107
3, 76368, Note_off_c, 1, 64, 64
3, 76380, Note_on_c, 1, 62, 107
3, 76428, Note_off_c, 1, 62, 64
3, 76440, Note_on_c, 1, 60, 107
3, 76488, Note_off_c, 1, 60, 64
3, 76500, Note_on_c, 1, 64, 107
3, 76548, Note_off_c, 1, 64, 64
3, 76560, Note_on_c, 1, 62, 107
3, 76848, Note_off_c, 1, 62, 64
3, 76860, Note_on_c, 1, 72, 107
3, 76908, Note_off_c, 1, 72, 64
3, 76920, Note_on_c, 1, 71, 107
3, 76968, Note_off_c, 1, 71, 64
3, 76980, Note_on_c, 1, 69, 107
3, 77028, Note_off_c, 1, 69, 64
3, 77040, Note_on_c, 1, 67, 107
3, 77088, Note_off_c, 1, 67, 64
3, 77100, Note_on_c, 1, 65, 107
3, 77148, Note_off_c, 1, 65, 64
3, 77160, Note_on_c, 1, 64, 107
3, 77208, Note_off_c, 1, 64, 64
3, 77220, Note_on_c, 1, 65, 107
3, 77268, Note_off_c, 1, 65, 64
3, 77280, Note_on_c, 1, 64, 107
3, 77328, Note_off_c, 1, 64, 64
3, 77340, Note_on_c, 1, 62, 107
3, 77388, Note_off_c, 1, 62, 64
3, 77400, Note_on_c, 1, 69, 107
3, 77448, Note_off_c, 1, 69, 64
3, 77460, Note_on_c, 1, 67, 107
3, 77508, Note_off_c, 1, 67, 64
3, 77520, Note_on_c, 1, 65, 107
3, 77568, Note_off_c, 1, 65, 64
3, 77580, Note_on_c, 1, 64, 107
3, 77628, Note_off_c, 1, 64, 64
3, 77640, Note_on_c, 1, 62, 107
3, 77688, Note_off_c, 1, 62, 64
3, 77700, Note_on_c, 1, 65, 107
3, 77748, Note_off_c, 1, 65, 64
3, 77760, Note_on_c, 1, 64, 107
3, 78144, Note_off_c, 1, 64, 64
3, 78144, End_track
4, 0, Start_track
4, 0, Title_t, "Arr. Gary Bricault, (c) 1997"
4, 0, Program_c, 2, 19
4, 0, Note_on_c, 2, 48, 107
4, 224, Note_off_c, 2, 48, 64
4, 240, Note_on_c, 2, 60, 107
4, 600, Note_on_c, 2, 59, 107
4, 613, Note_off_c, 2, 60, 64
4, 660, Note_off_c, 2, 59, 64
4, 660, Note_on_c, 2, 57, 107
4, 718, Note_off_c, 2, 57, 64
4, 720, Note_on_c, 2, 59, 107
4, 840, Note_on_c, 2, 55, 107
4, 841, Note_off_c, 2, 59, 64
4, 960, Note_on_c, 2, 57, 107
4, 964, Note_off_c, 2, 55, 64
4, 1185, Note_off_c, 2, 57, 64
4, 1320, Note_on_c, 2, 62, 107
4, 1440, Note_on_c, 2, 59, 107
4, 1447, Note_off_c, 2, 62, 64
4, 1558, Note_off_c, 2, 59, 64
4, 1560, Note_on_c, 2, 55, 107
4, 1680, Note_on_c, 2, 60, 107
4, 1681, Note_off_c, 2, 55, 64
4, 1793, Note_off_c, 2, 60, 64
4, 1800, Note_on_c, 2, 48, 107
4, 1905, Note_off_c, 2, 48, 64
4, 1920, Note_on_c, 2, 55, 107
4, 2520, Note_on_c, 2, 54, 107
4, 2525, Note_off_c, 2, 55, 64
4, 2580, Note_on_c, 2, 52, 107
4, 2591, Note_off_c, 2, 54, 64
4, 2640, Note_on_c, 2, 54, 107
4, 2647, Note_off_c, 2, 52, 64
4, 2760, Note_on_c, 2, 50, 107
4, 2761, Note_off_c, 2, 54, 64
4, 2878, Note_off_c, 2, 50, 64
4, 2880, Note_on_c, 2, 52, 107
4, 3088, Note_off_c, 2, 52, 64
4, 3240, Note_on_c, 2, 57, 107
4, 3335, Note_off_c, 2, 57, 64
4, 3360, Note_on_c, 2, 54, 107
4, 3478, Note_off_c, 2, 54, 64
4, 3480, Note_on_c, 2, 50, 107
4, 3600, Note_on_c, 2, 55, 107
4, 3609, Note_off_c, 2, 50, 64
4, 3720, Note_on_c, 2, 43, 107
4, 3733, Note_off_c, 2, 55, 64
4, 3802, Note_off_c, 2, 43, 64
4, 3840, Note_on_c, 2, 50, 107
4, 4440, Note_on_c, 2, 48, 107
4, 4459, Note_off_c, 2, 50, 64
4, 4499, Note_off_c, 2, 48, 64
4, 4500, Note_on_c, 2, 47, 107
4, 4560, Note_on_c, 2, 48, 107
4, 4566, Note_off_c, 2, 47, 64
4, 4680, Note_on_c, 2, 45, 107
4, 4681, Note_off_c, 2, 48, 64
4, 4800, Note_on_c, 2, 47, 107
4, 4811, Note_off_c, 2, 45, 64
4, 4960, Note_off_c, 2, 47, 64
4, 5160, Note_on_c, 2, 52, 107
4, 5280, Note_on_c, 2, 48, 107
4, 5285, Note_off_c, 2, 52, 64
4, 5396, Note_off_c, 2, 48, 64
4, 5400, Note_on_c, 2, 45, 107
4, 5520, Note_on_c, 2, 50, 107
4, 5524, Note_off_c, 2, 45, 64
4, 5639, Note_off_c, 2, 50, 64
4, 5640, Note_on_c, 2, 38, 107
4, 5750, Note_off_c, 2, 38, 64
4, 5760, Note_on_c, 2, 43, 107
4, 6025, Note_off_c, 2, 43, 64
4, 6120, Note_on_c, 2, 47, 107
4, 6223, Note_off_c, 2, 47, 64
4, 6240, Note_on_c, 2, 48, 107
4, 6351, Note_off_c, 2, 48, 64
4, 6360, Note_on_c, 2, 50, 107
4, 6480, Note_on_c, 2, 52, 107
4, 6486, Note_off_c, 2, 50, 64
4, 6600, Note_on_c, 2, 53, 107
4, 6619, Note_off_c, 2, 52, 64
4, 6720, Note_on_c, 2, 55, 107
4, 6727, Note_off_c, 2, 53, 64
4, 6840, Note_on_c, 2, 57, 107
4, 6852, Note_off_c, 2, 55, 64
4, 6952, Note_off_c, 2, 57, 64
4, 6960, Note_on_c, 2, 59, 107
4, 7080, Note_on_c, 2, 55, 107
4, 7091, Note_off_c, 2, 59, 64
4, 7200, Note_on_c, 2, 60, 107
4, 7207, Note_off_c, 2, 55, 64
4, 7320, Note_on_c, 2, 55, 107
4, 7324, Note_off_c, 2, 60, 64
4, 7440, Note_on_c, 2, 52, 107
4, 7445, Note_off_c, 2, 55, 64
4, 7558, Note_off_c, 2, 52, 64
4, 7560, Note_on_c, 2, 48, 107
4, 7676, Note_off_c, 2, 48, 64
4, 7680, Note_on_c, 2, 55, 107
4, 7905, Note_off_c, 2, 55, 64
4, 8040, Note_on_c, 2, 52, 107
4, 8151, Note_off_c, 2, 52, 64
4, 8160, Note_on_c, 2, 57, 107
4, 8280, Note_off_c, 2, 57, 64
4, 8280, Note_on_c, 2, 48, 107
4, 8394, Note_off_c, 2, 48, 64
4, 8400, Note_on_c, 2, 50, 107
4, 8520, Note_on_c, 2, 53, 107
4, 8524, Note_off_c, 2, 50, 64
4, 8640, Note_on_c, 2, 55, 107
4, 8653, Note_off_c, 2, 53, 64
4, 8740, Note_off_c, 2, 55, 64
4, 8760, Note_on_c, 2, 43, 107
4, 8880, Note_off_c, 2, 43, 64
4, 8880, Note_on_c, 2, 48, 107
4, 9000, Note_off_c, 2, 48, 64
4, 9000, Note_on_c, 2, 52, 107
4, 9120, Note_on_c, 2, 53, 107
4, 9138, Note_off_c, 2, 52, 64
4, 9703, Note_off_c, 2, 53, 64
4, 9720, Note_on_c, 2, 55, 107
4, 9840, Note_on_c, 2, 52, 107
4, 9846, Note_off_c, 2, 55, 64
4, 9960, Note_on_c, 2, 57, 107
4, 9962, Note_off_c, 2, 52, 64
4, 10080, Note_on_c, 2, 53, 107
4, 10081, Note_off_c, 2, 57, 64
4, 10193, Note_off_c, 2, 53, 64
4, 10200, Note_on_c, 2, 50, 107
4, 10319, Note_off_c, 2, 50, 64
4, 10320, Note_on_c, 2, 55, 107
4, 10599, Note_off_c, 2, 55, 64
4, 10680, Note_on_c, 2, 52, 107
4, 10798, Note_off_c, 2, 52, 64
4, 10800, Note_on_c, 2, 48, 107
4, 10913, Note_off_c, 2, 48, 64
4, 10920, Note_on_c, 2, 53, 107
4, 11038, Note_off_c, 2, 53, 64
4, 11040, Note_on_c, 2, 50, 107
4, 11157, Note_off_c, 2, 50, 64
4, 11160, Note_on_c, 2, 47, 107
4, 11272, Note_off_c, 2, 47, 64
4, 11280, Note_on_c, 2, 52, 107
4, 11539, Note_off_c, 2, 52, 64
4, 11640, Note_on_c, 2, 48, 107
4, 11760, Note_on_c, 2, 45, 107
4, 11765, Note_off_c, 2, 48, 64
4, 11878, Note_off_c, 2, 45, 64
4, 11880, Note_on_c, 2, 50, 107
4, 12000, Note_on_c, 2, 47, 107
4, 12008, Note_off_c, 2, 50, 64
4, 12120, Note_off_c, 2, 47, 64
4, 12120, Note_on_c, 2, 43, 107
4, 12240, Note_on_c, 2, 48, 107
4, 12246, Note_off_c, 2, 43, 64
4, 12715, Note_off_c, 2, 48, 64
4, 12720, Note_on_c, 2, 47, 107
4, 12960, Note_on_c, 2, 48, 107
4, 12970, Note_off_c, 2, 47, 64
4, 13080, Note_on_c, 2, 45, 107
4, 13098, Note_off_c, 2, 48, 64
4, 13194, Note_off_c, 2, 45, 64
4, 13200, Note_on_c, 2, 41, 107
4, 13320, Note_on_c, 2, 43, 107
4, 13334, Note_off_c, 2, 41, 64
4, 13402, Note_off_c, 2, 43, 64
4, 13440, Note_on_c, 2, 48, 107
4, 13553, Note_off_c, 2, 48, 64
4, 13680, Note_on_c, 2, 45, 107
4, 13793, Note_off_c, 2, 45, 64
4, 13920, Note_on_c, 2, 41, 107
4, 14033, Note_off_c, 2, 41, 64
4, 14160, Note_on_c, 2, 43, 107
4, 14273, Note_off_c, 2, 43, 64
4, 14400, Note_on_c, 2, 36, 107
4, 14513, Note_off_c, 2, 36, 64
4, 15360, Note_on_c, 2, 48, 107
4, 15410, Note_off_c, 2, 48, 64
4, 15420, Note_on_c, 2, 50, 107
4, 15471, Note_off_c, 2, 50, 64
4, 15480, Note_on_c, 2, 48, 107
4, 15537, Note_off_c, 2, 48, 64
4, 15540, Note_on_c, 2, 50, 107
4, 15598, Note_off_c, 2, 50, 64
4, 15600, Note_on_c, 2, 52, 107
4, 15660, Note_on_c, 2, 53, 107
4, 15663, Note_off_c, 2, 52, 64
4, 15717, Note_off_c, 2, 53, 64
4, 15720, Note_on_c, 2, 52, 107
4, 15779, Note_off_c, 2, 52, 64
4, 15780, Note_on_c, 2, 53, 107
4, 15840, Note_on_c, 2, 50, 107
4, 15841, Note_off_c, 2, 53, 64
4, 15881, Note_off_c, 2, 50, 64
4, 15900, Note_on_c, 2, 52, 107
4, 15958, Note_off_c, 2, 52, 64
4, 15960, Note_on_c, 2, 50, 107
4, 16020, Note_on_c, 2, 52, 107
4, 16021, Note_off_c, 2, 50, 64
4, 16080, Note_on_c, 2, 53, 107
4, 16082, Note_off_c, 2, 52, 64
4, 16140, Note_on_c, 2, 55, 107
4, 16143, Note_off_c, 2, 53, 64
4, 16200, Note_on_c, 2, 53, 107
4, 16205, Note_off_c, 2, 55, 64
4, 16259, Note_off_c, 2, 53, 64
4, 16260, Note_on_c, 2, 55, 107
4, 16312, Note_off_c, 2, 55, 64
4, 16320, Note_on_c, 2, 52, 107
4, 16433, Note_off_c, 2, 52, 64
4, 16440, Note_on_c, 2, 60, 107
4, 16553, Note_off_c, 2, 60, 64
4, 16560, Note_on_c, 2, 48, 107
4, 16673, Note_off_c, 2, 48, 64
4, 16680, Note_on_c, 2, 60, 107
4, 16793, Note_off_c, 2, 60, 64
4, 16800, Note_on_c, 2, 53, 107
4, 16906, Note_off_c, 2, 53, 64
4, 16920, Note_on_c, 2, 60, 107
4, 17022, Note_off_c, 2, 60, 64
4, 17040, Note_on_c, 2, 50, 107
4, 17160, Note_on_c, 2, 59, 107
4, 17165, Note_off_c, 2, 50, 64
4, 17280, Note_on_c, 2, 52, 107
4, 17284, Note_off_c, 2, 59, 64
4, 17388, Note_off_c, 2, 52, 64
4, 17400, Note_on_c, 2, 59, 107
4, 17512, Note_off_c, 2, 59, 64
4, 17520, Note_on_c, 2, 48, 107
4, 17640, Note_off_c, 2, 48, 64
4, 17640, Note_on_c, 2, 57, 107
4, 17760, Note_on_c, 2, 50, 107
4, 17764, Note_off_c, 2, 57, 64
4, 17877, Note_off_c, 2, 50, 64
4, 17880, Note_on_c, 2, 57, 107
4, 17990, Note_off_c, 2, 57, 64
4, 18000, Note_on_c, 2, 47, 107
4, 18117, Note_off_c, 2, 47, 64
4, 18120, Note_on_c, 2, 56, 107
4, 18228, Note_off_c, 2, 56, 64
4, 18240, Note_on_c, 2, 45, 107
4, 18353, Note_off_c, 2, 45, 64
4, 18480, Note_on_c, 2, 41, 107
4, 18593, Note_off_c, 2, 41, 64
4, 18720, Note_on_c, 2, 38, 107
4, 18833, Note_off_c, 2, 38, 64
4, 18960, Note_on_c, 2, 40, 107
4, 19073, Note_off_c, 2, 40, 64
4, 19200, Note_on_c, 2, 45, 107
4, 19278, Note_off_c, 2, 45, 64
4, 19320, Note_on_c, 2, 52, 107
4, 19397, Note_off_c, 2, 52, 64
4, 19440, Note_on_c, 2, 57, 107
4, 19920, Note_on_c, 2, 56, 107
4, 19940, Note_off_c, 2, 57, 64
4, 20160, Note_on_c, 2, 57, 107
4, 20164, Note_off_c, 2, 56, 64
4, 20377, Note_off_c, 2, 57, 64
4, 20460, Note_on_c, 2, 50, 107
4, 20514, Note_off_c, 2, 50, 64
4, 20520, Note_on_c, 2, 48, 107
4, 20573, Note_off_c, 2, 48, 64
4, 20580, Note_on_c, 2, 50, 107
4, 20640, Note_on_c, 2, 47, 107
4, 20649, Note_off_c, 2, 50, 64
4, 20850, Note_off_c, 2, 47, 64
4, 21000, Note_on_c, 2, 49, 107
4, 21114, Note_off_c, 2, 49, 64
4, 21120, Note_on_c, 2, 50, 107
4, 21243, Note_off_c, 2, 50, 64
4, 21480, Note_on_c, 2, 62, 107
4, 21676, Note_off_c, 2, 62, 64
4, 21720, Note_on_c, 2, 56, 107
4, 21840, Note_on_c, 2, 57, 107
4, 21867, Note_off_c, 2, 56, 64
4, 21948, Note_off_c, 2, 57, 64
4, 21960, Note_on_c, 2, 51, 107
4, 22062, Note_off_c, 2, 51, 64
4, 22080, Note_on_c, 2, 52, 107
4, 22680, Note_on_c, 2, 50, 107
4, 22691, Note_off_c, 2, 52, 64
4, 22738, Note_off_c, 2, 50, 64
4, 22740, Note_on_c, 2, 48, 107
4, 22798, Note_off_c, 2, 48, 64
4, 22800, Note_on_c, 2, 50, 107
4, 22912, Note_off_c, 2, 50, 64
4, 22920, Note_on_c, 2, 47, 107
4, 23040, Note_on_c, 2, 48, 107
4, 23047, Note_off_c, 2, 47, 64
4, 23262, Note_off_c, 2, 48, 64
4, 23400, Note_on_c, 2, 54, 107
4, 23517, Note_off_c, 2, 54, 64
4, 23520, Note_on_c, 2, 51, 107
4, 23638, Note_off_c, 2, 51, 64
4, 23640, Note_on_c, 2, 47, 107
4, 23750, Note_off_c, 2, 47, 64
4, 23760, Note_on_c, 2, 52, 107
4, 23870, Note_off_c, 2, 52, 64
4, 23880, Note_on_c, 2, 40, 107
4, 23992, Note_off_c, 2, 40, 64
4, 24000, Note_on_c, 2, 47, 107
4, 24100, Note_off_c, 2, 47, 64
4, 24120, Note_on_c, 2, 59, 107
4, 24230, Note_off_c, 2, 59, 64
4, 24240, Note_on_c, 2, 55, 107
4, 24360, Note_off_c, 2, 55, 64
4, 24360, Note_on_c, 2, 60, 107
4, 24468, Note_off_c, 2, 60, 64
4, 24480, Note_on_c, 2, 57, 107
4, 24598, Note_off_c, 2, 57, 64
4, 24600, Note_on_c, 2, 54, 107
4, 24720, Note_on_c, 2, 59, 107
4, 24728, Note_off_c, 2, 54, 64
4, 24955, Note_off_c, 2, 59, 64
4, 25080, Note_on_c, 2, 52, 107
4, 25200, Note_on_c, 2, 48, 107
4, 25210, Note_off_c, 2, 52, 64
4, 25320, Note_on_c, 2, 53, 107
4, 25321, Note_off_c, 2, 48, 64
4, 25434, Note_off_c, 2, 53, 64
4, 25440, Note_on_c, 2, 50, 107
4, 25560, Note_on_c, 2, 47, 107
4, 25566, Note_off_c, 2, 50, 64
4, 25680, Note_on_c, 2, 52, 107
4, 25685, Note_off_c, 2, 47, 64
4, 25892, Note_off_c, 2, 52, 64
4, 26040, Note_on_c, 2, 57, 107
4, 26158, Note_off_c, 2, 57, 64
4, 26160, Note_on_c, 2, 53, 107
4, 26280, Note_on_c, 2, 58, 107
4, 26288, Note_off_c, 2, 53, 64
4, 26396, Note_off_c, 2, 58, 64
4, 26400, Note_on_c, 2, 55, 107
4, 26520, Note_on_c, 2, 52, 107
4, 26521, Note_off_c, 2, 55, 64
4, 26640, Note_on_c, 2, 57, 107
4, 26642, Note_off_c, 2, 52, 64
4, 26901, Note_off_c, 2, 57, 64
4, 27000, Note_on_c, 2, 50, 107
4, 27120, Note_on_c, 2, 47, 107
4, 27136, Note_off_c, 2, 50, 64
4, 27228, Note_off_c, 2, 47, 64
4, 27240, Note_on_c, 2, 52, 107
4, 27317, Note_off_c, 2, 52, 64
4, 27360, Note_on_c, 2, 48, 107
4, 27480, Note_on_c, 2, 45, 107
4, 27481, Note_off_c, 2, 48, 64
4, 27600, Note_on_c, 2, 50, 107
4, 27602, Note_off_c, 2, 45, 64
4, 27840, Note_on_c, 2, 43, 107
4, 27851, Note_off_c, 2, 50, 64
4, 28049, Note_off_c, 2, 43, 64
4, 28680, Note_on_c, 2, 50, 107
4, 28800, Note_on_c, 2, 47, 107
4, 28805, Note_off_c, 2, 50, 64
4, 28909, Note_off_c, 2, 47, 64
4, 28920, Note_on_c, 2, 52, 107
4, 29040, Note_on_c, 2, 48, 107
4, 29041, Note_off_c, 2, 52, 64
4, 29160, Note_on_c, 2, 45, 107
4, 29164, Note_off_c, 2, 48, 64
4, 29280, Note_off_c, 2, 45, 64
4, 29280, Note_on_c, 2, 50, 107
4, 29398, Note_off_c, 2, 50, 64
4, 29400, Note_on_c, 2, 42, 107
4, 29494, Note_off_c, 2, 42, 64
4, 29520, Note_on_c, 2, 43, 107
4, 29583, Note_off_c, 2, 43, 64
4, 29640, Note_on_c, 2, 36, 107
4, 29727, Note_off_c, 2, 36, 64
4, 29760, Note_on_c, 2, 38, 107
4, 30011, Note_off_c, 2, 38, 64
4, 30120, Note_on_c, 2, 42, 107
4, 30238, Note_off_c, 2, 42, 64
4, 30240, Note_on_c, 2, 43, 107
4, 30356, Note_off_c, 2, 43, 64
4, 30360, Note_on_c, 2, 45, 107
4, 30480, Note_on_c, 2, 47, 107
4, 30494, Note_off_c, 2, 45, 64
4, 30600, Note_on_c, 2, 48, 107
4, 30606, Note_off_c, 2, 47, 64
4, 30717, Note_off_c, 2, 48, 64
4, 30720, Note_on_c, 2, 50, 107
4, 30840, Note_on_c, 2, 52, 107
4, 30865, Note_off_c, 2, 50, 64
4, 30953, Note_off_c, 2, 52, 64
4, 30960, Note_on_c, 2, 54, 107
4, 31080, Note_on_c, 2, 50, 107
4, 31098, Note_off_c, 2, 54, 64
4, 31197, Note_off_c, 2, 50, 64
4, 31200, Note_on_c, 2, 55, 107
4, 31320, Note_on_c, 2, 50, 107
4, 31321, Note_off_c, 2, 55, 64
4, 31440, Note_on_c, 2, 47, 107
4, 31455, Note_off_c, 2, 50, 64
4, 31560, Note_on_c, 2, 43, 107
4, 31575, Note_off_c, 2, 47, 64
4, 31680, Note_on_c, 2, 50, 107
4, 31694, Note_off_c, 2, 43, 64
4, 31933, Note_off_c, 2, 50, 64
4, 32040, Note_on_c, 2, 47, 107
4, 32158, Note_off_c, 2, 47, 64
4, 32160, Note_on_c, 2, 52, 107
4, 32275, Note_off_c, 2, 52, 64
4, 32280, Note_on_c, 2, 43, 107
4, 32400, Note_on_c, 2, 45, 107
4, 32402, Note_off_c, 2, 43, 64
4, 32520, Note_on_c, 2, 48, 107
4, 32531, Note_off_c, 2, 45, 64
4, 32640, Note_on_c, 2, 50, 107
4, 32660, Note_off_c, 2, 48, 64
4, 32760, Note_on_c, 2, 38, 107
4, 32771, Note_off_c, 2, 50, 64
4, 32867, Note_off_c, 2, 38, 64
4, 32880, Note_on_c, 2, 43, 107
4, 33000, Note_on_c, 2, 47, 107
4, 33003, Note_off_c, 2, 43, 64
4, 33120, Note_on_c, 2, 48, 107
4, 33134, Note_off_c, 2, 47, 64
4, 33696, Note_off_c, 2, 48, 64
4, 33720, Note_on_c, 2, 50, 107
4, 33816, Note_off_c, 2, 50, 64
4, 33840, Note_on_c, 2, 47, 107
4, 33936, Note_off_c, 2, 47, 64
4, 33960, Note_on_c, 2, 52, 107
4, 34056, Note_off_c, 2, 52, 64
4, 34080, Note_on_c, 2, 48, 107
4, 34200, Note_off_c, 2, 48, 64
4, 34200, Note_on_c, 2, 45, 107
4, 34319, Note_off_c, 2, 45, 64
4, 34320, Note_on_c, 2, 50, 107
4, 34440, Note_on_c, 2, 38, 107
4, 34473, Note_off_c, 2, 50, 64
4, 34524, Note_off_c, 2, 38, 64
4, 34560, Note_on_c, 2, 43, 107
4, 34770, Note_off_c, 2, 43, 64
4, 34800, Note_on_c, 2, 55, 107
4, 35160, Note_on_c, 2, 53, 107
4, 35165, Note_off_c, 2, 55, 64
4, 35215, Note_off_c, 2, 53, 64
4, 35220, Note_on_c, 2, 52, 107
4, 35280, Note_on_c, 2, 53, 107
4, 35285, Note_off_c, 2, 52, 64
4, 35400, Note_on_c, 2, 58, 107
4, 35411, Note_off_c, 2, 53, 64
4, 35508, Note_off_c, 2, 58, 64
4, 35520, Note_on_c, 2, 55, 107
4, 35633, Note_off_c, 2, 55, 64
4, 35640, Note_on_c, 2, 52, 107
4, 35753, Note_off_c, 2, 52, 64
4, 35760, Note_on_c, 2, 57, 107
4, 35880, Note_on_c, 2, 45, 107
4, 35882, Note_off_c, 2, 57, 64
4, 36000, Note_on_c, 2, 50, 107
4, 36011, Note_off_c, 2, 45, 64
4, 36592, Note_off_c, 2, 50, 64
4, 36600, Note_on_c, 2, 48, 107
4, 36720, Note_on_c, 2, 53, 107
4, 36746, Note_off_c, 2, 48, 64
4, 36840, Note_on_c, 2, 45, 107
4, 36844, Note_off_c, 2, 53, 64
4, 36960, Note_off_c, 2, 45, 64
4, 36960, Note_on_c, 2, 47, 107
4, 37073, Note_off_c, 2, 47, 64
4, 37080, Note_on_c, 2, 50, 107
4, 37193, Note_off_c, 2, 50, 64
4, 37200, Note_on_c, 2, 52, 107
4, 37313, Note_off_c, 2, 52, 64
4, 37320, Note_on_c, 2, 40, 107
4, 37433, Note_off_c, 2, 40, 64
4, 37440, Note_on_c, 2, 45, 107
4, 37560, Note_on_c, 2, 52, 107
4, 37564, Note_off_c, 2, 45, 64
4, 37680, Note_on_c, 2, 48, 107
4, 37682, Note_off_c, 2, 52, 64
4, 37800, Note_on_c, 2, 53, 107
4, 37802, Note_off_c, 2, 48, 64
4, 37920, Note_on_c, 2, 51, 107
4, 37937, Note_off_c, 2, 53, 64
4, 38033, Note_off_c, 2, 51, 64
4, 38040, Note_on_c, 2, 47, 107
4, 38160, Note_on_c, 2, 52, 107
4, 38167, Note_off_c, 2, 47, 64
4, 38625, Note_off_c, 2, 52, 64
4, 38640, Note_on_c, 2, 51, 107
4, 38753, Note_off_c, 2, 51, 64
4, 38760, Note_on_c, 2, 59, 107
4, 38873, Note_off_c, 2, 59, 64
4, 38880, Note_on_c, 2, 55, 107
4, 39000, Note_on_c, 2, 60, 107
4, 39003, Note_off_c, 2, 55, 64
4, 39119, Note_off_c, 2, 60, 64
4, 39120, Note_on_c, 2, 57, 107
4, 39240, Note_on_c, 2, 54, 107
4, 39247, Note_off_c, 2, 57, 64
4, 39360, Note_on_c, 2, 59, 107
4, 39362, Note_off_c, 2, 54, 64
4, 40080, Note_on_c, 2, 57, 107
4, 40096, Note_off_c, 2, 59, 64
4, 40380, Note_on_c, 2, 54, 107
4, 40395, Note_off_c, 2, 57, 64
4, 40440, Note_on_c, 2, 55, 107
4, 40446, Note_off_c, 2, 54, 64
4, 40490, Note_off_c, 2, 55, 64
4, 40500, Note_on_c, 2, 52, 107
4, 40560, Note_off_c, 2, 52, 64
4, 40560, Note_on_c, 2, 60, 107
4, 40620, Note_on_c, 2, 55, 107
4, 40625, Note_off_c, 2, 60, 64
4, 40678, Note_off_c, 2, 55, 64
4, 40680, Note_on_c, 2, 57, 107
4, 40736, Note_off_c, 2, 57, 64
4, 40740, Note_on_c, 2, 52, 107
4, 40800, Note_on_c, 2, 54, 107
4, 40804, Note_off_c, 2, 52, 64
4, 40850, Note_off_c, 2, 54, 64
4, 40860, Note_on_c, 2, 52, 107
4, 40920, Note_on_c, 2, 54, 107
4, 40925, Note_off_c, 2, 52, 64
4, 40970, Note_off_c, 2, 54, 64
4, 40980, Note_on_c, 2, 52, 107
4, 41040, Note_on_c, 2, 53, 107
4, 41044, Note_off_c, 2, 52, 64
4, 41097, Note_off_c, 2, 53, 64
4, 41100, Note_on_c, 2, 52, 107
4, 41160, Note_off_c, 2, 52, 64
4, 41160, Note_on_c, 2, 53, 107
4, 41220, Note_on_c, 2, 50, 107
4, 41232, Note_off_c, 2, 53, 64
4, 41280, Note_on_c, 2, 52, 107
4, 41284, Note_off_c, 2, 50, 64
4, 41382, Note_off_c, 2, 52, 64
4, 41400, Note_on_c, 2, 52, 107
4, 41503, Note_off_c, 2, 52, 64
4, 41520, Note_on_c, 2, 48, 107
4, 41634, Note_off_c, 2, 48, 64
4, 41640, Note_on_c, 2, 53, 107
4, 41760, Note_on_c, 2, 50, 107
4, 41776, Note_off_c, 2, 53, 64
4, 41880, Note_on_c, 2, 47, 107
4, 41892, Note_off_c, 2, 50, 64
4, 41997, Note_off_c, 2, 47, 64
4, 42000, Note_on_c, 2, 52, 107
4, 42120, Note_on_c, 2, 55, 107
4, 42134, Note_off_c, 2, 52, 64
4, 42240, Note_off_c, 2, 55, 64
4, 42240, Note_on_c, 2, 49, 107
4, 42360, Note_on_c, 2, 45, 107
4, 42363, Note_off_c, 2, 49, 64
4, 42480, Note_off_c, 2, 45, 64
4, 42480, Note_on_c, 2, 50, 107
4, 42840, Note_on_c, 2, 48, 107
4, 42845, Note_off_c, 2, 50, 64
4, 42900, Note_on_c, 2, 46, 107
4, 42909, Note_off_c, 2, 48, 64
4, 42952, Note_off_c, 2, 46, 64
4, 42960, Note_on_c, 2, 48, 107
4, 43080, Note_on_c, 2, 45, 107
4, 43084, Note_off_c, 2, 48, 64
4, 43200, Note_on_c, 2, 46, 107
4, 43212, Note_off_c, 2, 45, 64
4, 43404, Note_off_c, 2, 46, 64
4, 43500, Note_on_c, 2, 52, 107
4, 43554, Note_off_c, 2, 52, 64
4, 43560, Note_on_c, 2, 50, 107
4, 43608, Note_off_c, 2, 50, 64
4, 43620, Note_on_c, 2, 52, 107
4, 43674, Note_off_c, 2, 52, 64
4, 43680, Note_on_c, 2, 49, 107
4, 43697, Note_off_c, 2, 49, 64
4, 43740, Note_on_c, 2, 52, 107
4, 43796, Note_off_c, 2, 52, 64
4, 43800, Note_on_c, 2, 45, 107
4, 43850, Note_off_c, 2, 45, 64
4, 43860, Note_on_c, 2, 49, 107
4, 43880, Note_off_c, 2, 49, 64
4, 43920, Note_on_c, 2, 41, 107
4, 44040, Note_on_c, 2, 50, 107
4, 44044, Note_off_c, 2, 41, 64
4, 44278, Note_off_c, 2, 50, 64
4, 44280, Note_on_c, 2, 49, 107
4, 44393, Note_off_c, 2, 49, 64
4, 44400, Note_on_c, 2, 50, 107
4, 44520, Note_off_c, 2, 50, 64
4, 44520, Note_on_c, 2, 55, 107
4, 44632, Note_off_c, 2, 55, 64
4, 44640, Note_on_c, 2, 52, 107
4, 44758, Note_off_c, 2, 52, 64
4, 44760, Note_on_c, 2, 58, 107
4, 44868, Note_off_c, 2, 58, 64
4, 44880, Note_on_c, 2, 57, 107
4, 44998, Note_off_c, 2, 57, 64
4, 45000, Note_on_c, 2, 55, 107
4, 45120, Note_on_c, 2, 53, 107
4, 45139, Note_off_c, 2, 55, 64
4, 45240, Note_on_c, 2, 50, 107
4, 45261, Note_off_c, 2, 53, 64
4, 45315, Note_off_c, 2, 50, 64
4, 46200, Note_on_c, 2, 57, 107
4, 46315, Note_off_c, 2, 57, 64
4, 46320, Note_on_c, 2, 53, 107
4, 46440, Note_on_c, 2, 58, 107
4, 46443, Note_off_c, 2, 53, 64
4, 46559, Note_off_c, 2, 58, 64
4, 46560, Note_on_c, 2, 55, 107
4, 46680, Note_on_c, 2, 52, 107
4, 46689, Note_off_c, 2, 55, 64
4, 46800, Note_on_c, 2, 57, 107
4, 46808, Note_off_c, 2, 52, 64
4, 47059, Note_off_c, 2, 57, 64
4, 47160, Note_on_c, 2, 53, 107
4, 47280, Note_on_c, 2, 50, 107
4, 47291, Note_off_c, 2, 53, 64
4, 47400, Note_on_c, 2, 55, 107
4, 47413, Note_off_c, 2, 50, 64
4, 47520, Note_on_c, 2, 52, 107
4, 47526, Note_off_c, 2, 55, 64
4, 47640, Note_on_c, 2, 48, 107
4, 47647, Note_off_c, 2, 52, 64
4, 47760, Note_off_c, 2, 48, 64
4, 47760, Note_on_c, 2, 53, 107
4, 47999, Note_off_c, 2, 53, 64
4, 48120, Note_on_c, 2, 50, 107
4, 48240, Note_on_c, 2, 52, 107
4, 48245, Note_off_c, 2, 50, 64
4, 48355, Note_off_c, 2, 52, 64
4, 48360, Note_on_c, 2, 55, 107
4, 48480, Note_on_c, 2, 49, 107
4, 48490, Note_off_c, 2, 55, 64
4, 48600, Note_on_c, 2, 45, 107
4, 48606, Note_off_c, 2, 49, 64
4, 48712, Note_off_c, 2, 45, 64
4, 48720, Note_on_c, 2, 50, 107
4, 49200, Note_on_c, 2, 49, 107
4, 49211, Note_off_c, 2, 50, 64
4, 49440, Note_on_c, 2, 50, 107
4, 49457, Note_off_c, 2, 49, 64
4, 49560, Note_on_c, 2, 46, 107
4, 49582, Note_off_c, 2, 50, 64
4, 49672, Note_off_c, 2, 46, 64
4, 49680, Note_on_c, 2, 43, 107
4, 49793, Note_off_c, 2, 43, 64
4, 49800, Note_on_c, 2, 45, 107
4, 49902, Note_off_c, 2, 45, 64
4, 49920, Note_on_c, 2, 38, 107
4, 50040, Note_on_c, 2, 50, 107
4, 50041, Note_off_c, 2, 38, 64
4, 50160, Note_on_c, 2, 53, 107
4, 50169, Note_off_c, 2, 50, 64
4, 50269, Note_off_c, 2, 53, 64
4, 50280, Note_on_c, 2, 50, 107
4, 50378, Note_off_c, 2, 50, 64
4, 50520, Note_on_c, 2, 55, 107
4, 50632, Note_off_c, 2, 55, 64
4, 50640, Note_on_c, 2, 58, 107
4, 50760, Note_on_c, 2, 55, 107
4, 50762, Note_off_c, 2, 58, 64
4, 50853, Note_off_c, 2, 55, 64
4, 51000, Note_on_c, 2, 48, 107
4, 51114, Note_off_c, 2, 48, 64
4, 51120, Note_on_c, 2, 52, 107
4, 51240, Note_on_c, 2, 48, 107
4, 51248, Note_off_c, 2, 52, 64
4, 51319, Note_off_c, 2, 48, 64
4, 51480, Note_on_c, 2, 53, 107
4, 51598, Note_off_c, 2, 53, 64
4, 51600, Note_on_c, 2, 57, 107
4, 51720, Note_on_c, 2, 53, 107
4, 51726, Note_off_c, 2, 57, 64
4, 51792, Note_off_c, 2, 53, 64
4, 51960, Note_on_c, 2, 46, 107
4, 52080, Note_on_c, 2, 50, 107
4, 52086, Note_off_c, 2, 46, 64
4, 52193, Note_off_c, 2, 50, 64
4, 52200, Note_on_c, 2, 46, 107
4, 52313, Note_off_c, 2, 46, 64
4, 52320, Note_on_c, 2, 52, 107
4, 52434, Note_off_c, 2, 52, 64
4, 52440, Note_on_c, 2, 48, 107
4, 52554, Note_off_c, 2, 48, 64
4, 52560, Note_on_c, 2, 53, 107
4, 52680, Note_on_c, 2, 57, 107
4, 52698, Note_off_c, 2, 53, 64
4, 52799, Note_off_c, 2, 57, 64
4, 52800, Note_on_c, 2, 50, 107
4, 52920, Note_on_c, 2, 52, 107
4, 52924, Note_off_c, 2, 50, 64
4, 53040, Note_on_c, 2, 53, 107
4, 53046, Note_off_c, 2, 52, 64
4, 53400, Note_on_c, 2, 52, 107
4, 53414, Note_off_c, 2, 53, 64
4, 53460, Note_on_c, 2, 50, 107
4, 53462, Note_off_c, 2, 52, 64
4, 53520, Note_on_c, 2, 52, 107
4, 53529, Note_off_c, 2, 50, 64
4, 53637, Note_off_c, 2, 52, 64
4, 53640, Note_on_c, 2, 48, 107
4, 53760, Note_on_c, 2, 50, 107
4, 53765, Note_off_c, 2, 48, 64
4, 53985, Note_off_c, 2, 50, 64
4, 54120, Note_on_c, 2, 55, 107
4, 54235, Note_off_c, 2, 55, 64
4, 54240, Note_on_c, 2, 52, 107
4, 54355, Note_off_c, 2, 52, 64
4, 54360, Note_on_c, 2, 48, 107
4, 54479, Note_off_c, 2, 48, 64
4, 54480, Note_on_c, 2, 53, 107
4, 54598, Note_off_c, 2, 53, 64
4, 54600, Note_on_c, 2, 41, 107
4, 54720, Note_on_c, 2, 48, 107
4, 54730, Note_off_c, 2, 41, 64
4, 55320, Note_on_c, 2, 58, 107
4, 55334, Note_off_c, 2, 48, 64
4, 55380, Note_off_c, 2, 58, 64
4, 55380, Note_on_c, 2, 57, 107
4, 55436, Note_off_c, 2, 57, 64
4, 55440, Note_on_c, 2, 58, 107
4, 55547, Note_off_c, 2, 58, 64
4, 55560, Note_on_c, 2, 55, 107
4, 55680, Note_on_c, 2, 57, 107
4, 55690, Note_off_c, 2, 55, 64
4, 55945, Note_off_c, 2, 57, 64
4, 56040, Note_on_c, 2, 62, 107
4, 56154, Note_off_c, 2, 62, 64
4, 56160, Note_on_c, 2, 58, 107
4, 56268, Note_off_c, 2, 58, 64
4, 56280, Note_on_c, 2, 55, 107
4, 56399, Note_off_c, 2, 55, 64
4, 56400, Note_on_c, 2, 60, 107
4, 56520, Note_on_c, 2, 48, 107
4, 56527, Note_off_c, 2, 60, 64
4, 56623, Note_off_c, 2, 48, 64
4, 56640, Note_on_c, 2, 53, 107
4, 56753, Note_off_c, 2, 53, 64
4, 56880, Note_on_c, 2, 50, 107
4, 56993, Note_off_c, 2, 50, 64
4, 57120, Note_on_c, 2, 55, 107
4, 57233, Note_off_c, 2, 55, 64
4, 57360, Note_on_c, 2, 48, 107
4, 57473, Note_off_c, 2, 48, 64
4, 57600, Note_on_c, 2, 53, 107
4, 57713, Note_off_c, 2, 53, 64
4, 58560, Note_on_c, 2, 53, 107
4, 58620, Note_on_c, 2, 55, 107
4, 58621, Note_off_c, 2, 53, 64
4, 58680, Note_on_c, 2, 53, 107
4, 58684, Note_off_c, 2, 55, 64
4, 58740, Note_on_c, 2, 55, 107
4, 58744, Note_off_c, 2, 53, 64
4, 58800, Note_on_c, 2, 57, 107
4, 58808, Note_off_c, 2, 55, 64
4, 58855, Note_off_c, 2, 57, 64
4, 58860, Note_on_c, 2, 58, 107
4, 58920, Note_on_c, 2, 57, 107
4, 58928, Note_off_c, 2, 58, 64
4, 58977, Note_off_c, 2, 57, 64
4, 58980, Note_on_c, 2, 58, 107
4, 59028, Note_off_c, 2, 58, 64
4, 59040, Note_on_c, 2, 55, 107
4, 59098, Note_off_c, 2, 55, 64
4, 59100, Note_on_c, 2, 57, 107
4, 59160, Note_on_c, 2, 55, 107
4, 59164, Note_off_c, 2, 57, 64
4, 59213, Note_off_c, 2, 55, 64
4, 59220, Note_on_c, 2, 57, 107
4, 59274, Note_off_c, 2, 57, 64
4, 59280, Note_on_c, 2, 58, 107
4, 59340, Note_on_c, 2, 60, 107
4, 59341, Note_off_c, 2, 58, 64
4, 59400, Note_on_c, 2, 58, 107
4, 59410, Note_off_c, 2, 60, 64
4, 59454, Note_off_c, 2, 58, 64
4, 59460, Note_on_c, 2, 60, 107
4, 59518, Note_off_c, 2, 60, 64
4, 59520, Note_on_c, 2, 57, 107
4, 59640, Note_on_c, 2, 53, 107
4, 59653, Note_off_c, 2, 57, 64
4, 59760, Note_on_c, 2, 55, 107
4, 59761, Note_off_c, 2, 53, 64
4, 59880, Note_on_c, 2, 57, 107
4, 59885, Note_off_c, 2, 55, 64
4, 60000, Note_on_c, 2, 58, 107
4, 60014, Note_off_c, 2, 57, 64
4, 60120, Note_on_c, 2, 50, 107
4, 60124, Note_off_c, 2, 58, 64
4, 60238, Note_off_c, 2, 50, 64
4, 60240, Note_on_c, 2, 55, 107
4, 60353, Note_off_c, 2, 55, 64
4, 60360, Note_on_c, 2, 52, 107
4, 60480, Note_on_c, 2, 57, 107
4, 60498, Note_off_c, 2, 52, 64
4, 60595, Note_off_c, 2, 57, 64
4, 60600, Note_on_c, 2, 48, 107
4, 60714, Note_off_c, 2, 48, 64
4, 60720, Note_on_c, 2, 53, 107
4, 60840, Note_on_c, 2, 50, 107
4, 60843, Note_off_c, 2, 53, 64
4, 60960, Note_on_c, 2, 55, 107
4, 60973, Note_off_c, 2, 50, 64
4, 61080, Note_on_c, 2, 47, 107
4, 61083, Note_off_c, 2, 55, 64
4, 61196, Note_off_c, 2, 47, 64
4, 61200, Note_on_c, 2, 52, 107
4, 61317, Note_off_c, 2, 52, 64
4, 61320, Note_on_c, 2, 49, 107
4, 61423, Note_off_c, 2, 49, 64
4, 61440, Note_on_c, 2, 50, 107
4, 61553, Note_off_c, 2, 50, 64
4, 61680, Note_on_c, 2, 46, 107
4, 61793, Note_off_c, 2, 46, 64
4, 61920, Note_on_c, 2, 43, 107
4, 62033, Note_off_c, 2, 43, 64
4, 62160, Note_on_c, 2, 45, 107
4, 62273, Note_off_c, 2, 45, 64
4, 62400, Note_on_c, 2, 38, 107
4, 62513, Note_off_c, 2, 38, 64
4, 62520, Note_on_c, 2, 45, 107
4, 62640, Note_on_c, 2, 50, 107
4, 62644, Note_off_c, 2, 45, 64
4, 63120, Note_on_c, 2, 49, 107
4, 63140, Note_off_c, 2, 50, 64
4, 63360, Note_on_c, 2, 50, 107
4, 63373, Note_off_c, 2, 49, 64
4, 63612, Note_off_c, 2, 50, 64
4, 63660, Note_on_c, 2, 55, 107
4, 63700, Note_off_c, 2, 55, 64
4, 63720, Note_on_c, 2, 53, 107
4, 63771, Note_off_c, 2, 53, 64
4, 63780, Note_on_c, 2, 55, 107
4, 63840, Note_on_c, 2, 52, 107
4, 63844, Note_off_c, 2, 55, 64
4, 64062, Note_off_c, 2, 52, 64
4, 64200, Note_on_c, 2, 54, 107
4, 64314, Note_off_c, 2, 54, 64
4, 64320, Note_on_c, 2, 55, 107
4, 64557, Note_off_c, 2, 55, 64
4, 64680, Note_on_c, 2, 55, 107
4, 64908, Note_off_c, 2, 55, 64
4, 64920, Note_on_c, 2, 49, 107
4, 65040, Note_on_c, 2, 50, 107
4, 65054, Note_off_c, 2, 49, 64
4, 65153, Note_off_c, 2, 50, 64
4, 65160, Note_on_c, 2, 44, 107
4, 65277, Note_off_c, 2, 44, 64
4, 65280, Note_on_c, 2, 45, 107
4, 65856, Note_off_c, 2, 45, 64
4, 65880, Note_on_c, 2, 55, 107
4, 65940, Note_on_c, 2, 53, 107
4, 65946, Note_off_c, 2, 55, 64
4, 66000, Note_on_c, 2, 55, 107
4, 66007, Note_off_c, 2, 53, 64
4, 66093, Note_off_c, 2, 55, 64
4, 66120, Note_on_c, 2, 52, 107
4, 66217, Note_off_c, 2, 52, 64
4, 66240, Note_on_c, 2, 53, 107
4, 66403, Note_off_c, 2, 53, 64
4, 66600, Note_on_c, 2, 59, 107
4, 66709, Note_off_c, 2, 59, 64
4, 66720, Note_on_c, 2, 56, 107
4, 66830, Note_off_c, 2, 56, 64
4, 66840, Note_on_c, 2, 52, 107
4, 66958, Note_off_c, 2, 52, 64
4, 66960, Note_on_c, 2, 57, 107
4, 67080, Note_off_c, 2, 57, 64
4, 67080, Note_on_c, 2, 45, 107
4, 67200, Note_on_c, 2, 40, 107
4, 67201, Note_off_c, 2, 45, 64
4, 67306, Note_off_c, 2, 40, 64
4, 67320, Note_on_c, 2, 52, 107
4, 67437, Note_off_c, 2, 52, 64
4, 67440, Note_on_c, 2, 48, 107
4, 67560, Note_off_c, 2, 48, 64
4, 67560, Note_on_c, 2, 53, 107
4, 67680, Note_on_c, 2, 50, 107
4, 67683, Note_off_c, 2, 53, 64
4, 67800, Note_on_c, 2, 47, 107
4, 67804, Note_off_c, 2, 50, 64
4, 67920, Note_on_c, 2, 52, 107
4, 67924, Note_off_c, 2, 47, 64
4, 68180, Note_off_c, 2, 52, 64
4, 68280, Note_on_c, 2, 57, 107
4, 68399, Note_off_c, 2, 57, 64
4, 68400, Note_on_c, 2, 53, 107
4, 68520, Note_on_c, 2, 58, 107
4, 68537, Note_off_c, 2, 53, 64
4, 68640, Note_on_c, 2, 55, 107
4, 68641, Note_off_c, 2, 58, 64
4, 68759, Note_off_c, 2, 55, 64
4, 68760, Note_on_c, 2, 52, 107
4, 68880, Note_on_c, 2, 57, 107
4, 68887, Note_off_c, 2, 52, 64
4, 69105, Note_off_c, 2, 57, 64
4, 69240, Note_on_c, 2, 50, 107
4, 69360, Note_on_c, 2, 47, 107
4, 69364, Note_off_c, 2, 50, 64
4, 69480, Note_on_c, 2, 52, 107
4, 69482, Note_off_c, 2, 47, 64
4, 69595, Note_off_c, 2, 52, 64
4, 69600, Note_on_c, 2, 48, 107
4, 69718, Note_off_c, 2, 48, 64
4, 69720, Note_on_c, 2, 45, 107
4, 69840, Note_on_c, 2, 50, 107
4, 69841, Note_off_c, 2, 45, 64
4, 70072, Note_off_c, 2, 50, 64
4, 70200, Note_on_c, 2, 55, 107
4, 70318, Note_off_c, 2, 55, 64
4, 70320, Note_on_c, 2, 52, 107
4, 70440, Note_on_c, 2, 57, 107
4, 70448, Note_off_c, 2, 52, 64
4, 70554, Note_off_c, 2, 57, 64
4, 70560, Note_on_c, 2, 53, 107
4, 70680, Note_on_c, 2, 50, 107
4, 70686, Note_off_c, 2, 53, 64
4, 70800, Note_on_c, 2, 55, 107
4, 70808, Note_off_c, 2, 50, 64
4, 70920, Note_off_c, 2, 55, 64
4, 70920, Note_on_c, 2, 43, 107
4, 71040, Note_on_c, 2, 48, 107
4, 71046, Note_off_c, 2, 43, 64
4, 71277, Note_off_c, 2, 48, 64
4, 71880, Note_on_c, 2, 55, 107
4, 72000, Note_on_c, 2, 52, 107
4, 72009, Note_off_c, 2, 55, 64
4, 72119, Note_off_c, 2, 52, 64
4, 72120, Note_on_c, 2, 57, 107
4, 72236, Note_off_c, 2, 57, 64
4, 72240, Note_on_c, 2, 53, 107
4, 72360, Note_on_c, 2, 50, 107
4, 72373, Note_off_c, 2, 53, 64
4, 72480, Note_on_c, 2, 55, 107
4, 72489, Note_off_c, 2, 50, 64
4, 72600, Note_on_c, 2, 47, 107
4, 72606, Note_off_c, 2, 55, 64
4, 72710, Note_off_c, 2, 47, 64
4, 72720, Note_on_c, 2, 48, 107
4, 72838, Note_off_c, 2, 48, 64
4, 72840, Note_on_c, 2, 42, 107
4, 72960, Note_on_c, 2, 43, 107
4, 72989, Note_off_c, 2, 42, 64
4, 73201, Note_off_c, 2, 43, 64
4, 73320, Note_on_c, 2, 47, 107
4, 73435, Note_off_c, 2, 47, 64
4, 73440, Note_on_c, 2, 48, 107
4, 73557, Note_off_c, 2, 48, 64
4, 73560, Note_on_c, 2, 50, 107
4, 73674, Note_off_c, 2, 50, 64
4, 73680, Note_on_c, 2, 52, 107
4, 73800, Note_off_c, 2, 52, 64
4, 73800, Note_on_c, 2, 53, 107
4, 73920, Note_on_c, 2, 55, 107
4, 73932, Note_off_c, 2, 53, 64
4, 74040, Note_on_c, 2, 57, 107
4, 74043, Note_off_c, 2, 55, 64
4, 74160, Note_on_c, 2, 59, 107
4, 74164, Note_off_c, 2, 57, 64
4, 74280, Note_off_c, 2, 59, 64
4, 74280, Note_on_c, 2, 55, 107
4, 74400, Note_on_c, 2, 60, 107
4, 74403, Note_off_c, 2, 55, 64
4, 74520, Note_on_c, 2, 55, 107
4, 74534, Note_off_c, 2, 60, 64
4, 74640, Note_on_c, 2, 52, 107
4, 74645, Note_off_c, 2, 55, 64
4, 74760, Note_on_c, 2, 48, 107
4, 74769, Note_off_c, 2, 52, 64
4, 74880, Note_on_c, 2, 55, 107
4, 74882, Note_off_c, 2, 48, 64
4, 75150, Note_off_c, 2, 55, 64
4, 75240, Note_on_c, 2, 52, 107
4, 75353, Note_off_c, 2, 52, 64
4, 75360, Note_on_c, 2, 57, 107
4, 75480, Note_on_c, 2, 48, 107
4, 75549, Note_off_c, 2, 57, 64
4, 75595, Note_off_c, 2, 48, 64
4, 75600, Note_on_c, 2, 50, 107
4, 75720, Note_on_c, 2, 53, 107
4, 75728, Note_off_c, 2, 50, 64
4, 75840, Note_on_c, 2, 55, 107
4, 75842, Note_off_c, 2, 53, 64
4, 75960, Note_on_c, 2, 47, 107
4, 75968, Note_off_c, 2, 55, 64
4, 76076, Note_off_c, 2, 47, 64
4, 76080, Note_on_c, 2, 48, 107
4, 76200, Note_on_c, 2, 52, 107
4, 76207, Note_off_c, 2, 48, 64
4, 76320, Note_on_c, 2, 53, 107
4, 76329, Note_off_c, 2, 52, 64
4, 76920, Note_on_c, 2, 55, 107
4, 76924, Note_off_c, 2, 53, 64
4, 77040, Note_on_c, 2, 52, 107
4, 77057, Note_off_c, 2, 55, 64
4, 77160, Note_off_c, 2, 52, 64
4, 77160, Note_on_c, 2, 57, 107
4, 77280, Note_on_c, 2, 53, 107
4, 77285, Note_off_c, 2, 57, 64
4, 77400, Note_on_c, 2, 50, 107
4, 77410, Note_off_c, 2, 53, 64
4, 77520, Note_on_c, 2, 55, 107
4, 77528, Note_off_c, 2, 50, 64
4, 77640, Note_on_c, 2, 43, 107
4, 77652, Note_off_c, 2, 55, 64
4, 77760, Note_on_c, 2, 48, 107
4, 77760, Note_on_c, 2, 36, 107
4, 77781, Note_off_c, 2, 43, 64
4, 78210, Note_off_c, 2, 36, 64
4, 78210, Note_off_c, 2, 48, 64
4, 78210, End_track
0, 0, End_of_file
