0, 0, Header, 1, 7, 240
1, 0, Start_track
1, 0, Title_t, "Fantasia in G major, BWV 572, by J.S. Bach"
1, 0, Copyright_t, "Sequence Copyright @ by Dean Lampe, All Rights Reserved"
1, 0, Text_t, "J.S. Bach\012"
1, 0, Text_t, "Sequenced by Dean Lampe, May, 1997\012"
1, 0, Text_t, "Using Cakewalk Pro Audio [6]\012"
1, 0, Text_t, "Track 2 should be used to echo Track 1 in the first (Tres Vitement) section\012"
1, 0, SMPTE_offset, 96, 0, 3, 0, 0
1, 0, Time_signature, 12, 3, 12, 8
1, 0, Key_signature, 0, "major"
1, 0, Tempo, 454545
1, 0, Marker_t, "Fantasia in G major, BWV 572, J.S. Bach"
1, 360, Tempo, 441176
1, 600, Tempo, 483871
1, 720, Tempo, 454545
1, 1080, Tempo, 441176
1, 1320, Tempo, 483871
1, 1440, Tempo, 454545
1, 1800, Tempo, 441176
1, 2040, Tempo, 483871
1, 2160, Tempo, 454545
1, 2520, Tempo, 441176
1, 2760, Tempo, 483871
1, 2880, Tempo, 454545
1, 3240, Tempo, 441176
1, 3480, Tempo, 483871
1, 3600, Tempo, 454545
1, 3960, Tempo, 441176
1, 4200, Tempo, 483871
1, 4320, Tempo, 454545
1, 4680, Tempo, 441176
1, 4920, Tempo, 483871
1, 5040, Tempo, 454545
1, 5400, Tempo, 441176
1, 5640, Tempo, 483871
1, 5760, Tempo, 454545
1, 6120, Tempo, 441176
1, 6360, Tempo, 483871
1, 6480, Tempo, 454545
1, 6840, Tempo, 441176
1, 7080, Tempo, 483871
1, 7200, Tempo, 454545
1, 7560, Tempo, 441176
1, 7800, Tempo, 483871
1, 7920, Tempo, 454545
1, 8280, Tempo, 441176
1, 8520, Tempo, 483871
1, 8640, Tempo, 454545
1, 9000, Tempo, 441176
1, 9240, Tempo, 483871
1, 9360, Tempo, 454545
1, 9720, Tempo, 441176
1, 9960, Tempo, 483871
1, 10080, Tempo, 454545
1, 10440, Tempo, 441176
1, 10680, Tempo, 483871
1, 10800, Tempo, 454545
1, 11160, Tempo, 441176
1, 11400, Tempo, 483871
1, 11520, Tempo, 454545
1, 11880, Tempo, 441176
1, 12120, Tempo, 483871
1, 12240, Tempo, 454545
1, 12600, Tempo, 441176
1, 12840, Tempo, 483871
1, 12960, Tempo, 454545
1, 13320, Tempo, 441176
1, 13560, Tempo, 483871
1, 13680, Tempo, 454545
1, 14040, Tempo, 441176
1, 14280, Tempo, 483871
1, 14400, Tempo, 454545
1, 14760, Tempo, 441176
1, 15000, Tempo, 483871
1, 15120, Tempo, 454545
1, 15480, Tempo, 441176
1, 15720, Tempo, 483871
1, 15840, Tempo, 454545
1, 16200, Tempo, 441176
1, 16440, Tempo, 483871
1, 16560, Tempo, 454545
1, 16920, Tempo, 441176
1, 17160, Tempo, 483871
1, 17280, Tempo, 454545
1, 17640, Tempo, 441176
1, 17880, Tempo, 483871
1, 18000, Tempo, 454545
1, 18360, Tempo, 441176
1, 18600, Tempo, 483871
1, 18720, Tempo, 454545
1, 19080, Tempo, 441176
1, 19320, Tempo, 483871
1, 19440, Tempo, 454545
1, 19800, Tempo, 441176
1, 20040, Tempo, 483871
1, 20160, Tempo, 454545
1, 20520, Tempo, 441176
1, 20760, Tempo, 483871
1, 20880, Tempo, 454545
1, 21240, Tempo, 441176
1, 21480, Tempo, 483871
1, 21600, Tempo, 454545
1, 21960, Tempo, 441176
1, 22200, Tempo, 483871
1, 22320, Tempo, 454545
1, 22680, Tempo, 441176
1, 22920, Tempo, 483871
1, 23040, Tempo, 454545
1, 23400, Tempo, 441176
1, 23640, Tempo, 483871
1, 23760, Tempo, 454545
1, 24120, Tempo, 441176
1, 24360, Tempo, 483871
1, 24480, Tempo, 454545
1, 24840, Tempo, 441176
1, 25080, Tempo, 483871
1, 25200, Tempo, 454545
1, 25560, Tempo, 441176
1, 25800, Tempo, 483871
1, 25920, Tempo, 454545
1, 26280, Tempo, 441176
1, 26520, Tempo, 483871
1, 26640, Tempo, 454545
1, 27000, Tempo, 441176
1, 27240, Tempo, 483871
1, 27360, Tempo, 454545
1, 27360, Marker_t, "Copyright @ by Dean Lampe, All Rights Reserved"
1, 27720, Tempo, 441176
1, 27960, Tempo, 483871
1, 28080, Tempo, 454545
1, 28440, Tempo, 441176
1, 28680, Tempo, 483871
1, 28800, Tempo, 454545
1, 29160, Tempo, 441176
1, 29400, Tempo, 483871
1, 29520, Tempo, 454545
1, 29880, Tempo, 441176
1, 30120, Tempo, 483871
1, 30240, Tempo, 454545
1, 30600, Tempo, 441176
1, 30840, Tempo, 483871
1, 30960, Tempo, 454545
1, 31320, Tempo, 441176
1, 31560, Tempo, 483871
1, 31680, Tempo, 454545
1, 32040, Tempo, 441176
1, 32280, Tempo, 483871
1, 32400, Tempo, 454545
1, 32760, Tempo, 441176
1, 33000, Tempo, 483871
1, 33120, Tempo, 454545
1, 33480, Tempo, 441176
1, 33720, Tempo, 483871
1, 33840, Tempo, 454545
1, 34200, Tempo, 441176
1, 34440, Tempo, 483871
1, 34560, Tempo, 454545
1, 34920, Tempo, 441176
1, 35160, Tempo, 483871
1, 35280, Tempo, 454545
1, 35640, Tempo, 441176
1, 35880, Tempo, 483871
1, 36000, Tempo, 454545
1, 36360, Tempo, 441176
1, 36600, Tempo, 483871
1, 36720, Tempo, 454545
1, 37080, Tempo, 441176
1, 37320, Tempo, 483871
1, 37440, Tempo, 454545
1, 37800, Tempo, 441176
1, 38040, Tempo, 483871
1, 38160, Tempo, 454545
1, 38520, Tempo, 441176
1, 38760, Tempo, 483871
1, 39120, Tempo, 504202
1, 39480, Tempo, 535714
1, 39720, Tempo, 594059
1, 40080, Tempo, 631579
1, 40138, Tempo, 759494
1, 40200, Tempo, 895522
1, 40252, Tempo, 1016949
1, 40320, Time_signature, 4, 2, 24, 8
1, 40320, Tempo, 476190
1, 40560, Tempo, 454545
1, 40800, Tempo, 476190
1, 41040, Tempo, 454545
1, 41280, Tempo, 476190
1, 41520, Tempo, 454545
1, 41760, Tempo, 476190
1, 42000, Tempo, 454545
1, 42240, Tempo, 476190
1, 42480, Tempo, 454545
1, 42720, Tempo, 476190
1, 42960, Tempo, 454545
1, 43200, Tempo, 476190
1, 43440, Tempo, 454545
1, 43680, Tempo, 476190
1, 43920, Tempo, 454545
1, 44160, Tempo, 476190
1, 44400, Tempo, 454545
1, 44640, Tempo, 476190
1, 44880, Tempo, 454545
1, 45120, Tempo, 476190
1, 45360, Tempo, 454545
1, 45600, Tempo, 476190
1, 45840, Tempo, 454545
1, 46080, Tempo, 476190
1, 46320, Tempo, 454545
1, 46560, Tempo, 476190
1, 46800, Tempo, 454545
1, 47040, Tempo, 476190
1, 47280, Tempo, 454545
1, 47520, Tempo, 476190
1, 47760, Tempo, 454545
1, 48000, Tempo, 476190
1, 48240, Tempo, 454545
1, 48480, Tempo, 476190
1, 48720, Tempo, 454545
1, 48960, Tempo, 476190
1, 49200, Tempo, 454545
1, 49440, Tempo, 476190
1, 49680, Tempo, 454545
1, 49920, Tempo, 476190
1, 50160, Tempo, 454545
1, 50400, Tempo, 476190
1, 50640, Tempo, 454545
1, 50880, Tempo, 476190
1, 51120, Tempo, 454545
1, 51360, Tempo, 476190
1, 51600, Tempo, 454545
1, 51840, Tempo, 476190
1, 52080, Tempo, 454545
1, 52320, Tempo, 476190
1, 52560, Tempo, 454545
1, 52800, Tempo, 476190
1, 53040, Tempo, 454545
1, 53280, Tempo, 476190
1, 53520, Tempo, 454545
1, 53760, Tempo, 476190
1, 54000, Tempo, 454545
1, 54240, Tempo, 476190
1, 54480, Tempo, 454545
1, 54720, Tempo, 476190
1, 54960, Tempo, 454545
1, 55200, Tempo, 476190
1, 55440, Tempo, 454545
1, 55680, Tempo, 476190
1, 55920, Tempo, 454545
1, 56160, Tempo, 476190
1, 56400, Tempo, 454545
1, 56640, Tempo, 476190
1, 56880, Tempo, 454545
1, 57120, Tempo, 476190
1, 57360, Tempo, 454545
1, 57600, Tempo, 476190
1, 57840, Tempo, 454545
1, 58080, Tempo, 476190
1, 58320, Tempo, 454545
1, 58560, Tempo, 476190
1, 58800, Tempo, 454545
1, 59040, Tempo, 476190
1, 59280, Tempo, 454545
1, 59520, Tempo, 476190
1, 59760, Tempo, 454545
1, 60000, Tempo, 476190
1, 60240, Tempo, 454545
1, 60480, Tempo, 476190
1, 60720, Tempo, 454545
1, 60960, Tempo, 476190
1, 61200, Tempo, 454545
1, 61440, Tempo, 476190
1, 61680, Tempo, 454545
1, 61920, Tempo, 476190
1, 62160, Tempo, 454545
1, 62400, Tempo, 476190
1, 62640, Tempo, 454545
1, 62880, Tempo, 476190
1, 63120, Tempo, 454545
1, 63360, Tempo, 476190
1, 63600, Tempo, 454545
1, 63840, Tempo, 476190
1, 64080, Tempo, 454545
1, 64320, Tempo, 476190
1, 64560, Tempo, 454545
1, 64800, Tempo, 476190
1, 65040, Tempo, 454545
1, 65280, Tempo, 476190
1, 65520, Tempo, 454545
1, 65760, Tempo, 476190
1, 66000, Tempo, 454545
1, 66240, Tempo, 476190
1, 66480, Tempo, 454545
1, 66720, Tempo, 476190
1, 66960, Tempo, 454545
1, 67200, Tempo, 476190
1, 67440, Tempo, 454545
1, 67680, Tempo, 476190
1, 67920, Tempo, 454545
1, 68160, Tempo, 476190
1, 68400, Tempo, 454545
1, 68640, Tempo, 476190
1, 68880, Tempo, 454545
1, 69120, Tempo, 476190
1, 69360, Tempo, 454545
1, 69600, Tempo, 476190
1, 69840, Tempo, 454545
1, 70080, Tempo, 476190
1, 70320, Tempo, 454545
1, 70560, Tempo, 476190
1, 70800, Tempo, 454545
1, 71040, Tempo, 476190
1, 71280, Tempo, 454545
1, 71520, Tempo, 476190
1, 71760, Tempo, 454545
1, 72000, Tempo, 476190
1, 72240, Tempo, 454545
1, 72480, Tempo, 476190
1, 72720, Tempo, 454545
1, 72960, Tempo, 476190
1, 73200, Tempo, 454545
1, 73440, Tempo, 476190
1, 73680, Tempo, 454545
1, 73920, Tempo, 476190
1, 74160, Tempo, 454545
1, 74400, Tempo, 476190
1, 74640, Tempo, 454545
1, 74880, Tempo, 476190
1, 75120, Tempo, 454545
1, 75360, Tempo, 476190
1, 75600, Tempo, 454545
1, 75840, Tempo, 476190
1, 76080, Tempo, 454545
1, 76320, Tempo, 476190
1, 76560, Tempo, 454545
1, 76800, Tempo, 476190
1, 77040, Tempo, 454545
1, 77280, Tempo, 476190
1, 77520, Tempo, 454545
1, 77760, Tempo, 476190
1, 78000, Tempo, 454545
1, 78240, Tempo, 476190
1, 78480, Tempo, 454545
1, 78720, Tempo, 476190
1, 78960, Tempo, 454545
1, 79200, Tempo, 476190
1, 79440, Tempo, 454545
1, 79680, Tempo, 476190
1, 79920, Tempo, 454545
1, 80160, Tempo, 476190
1, 80400, Tempo, 454545
1, 80640, Tempo, 476190
1, 80880, Tempo, 454545
1, 81120, Tempo, 476190
1, 81360, Tempo, 454545
1, 81600, Tempo, 476190
1, 81840, Tempo, 454545
1, 82080, Tempo, 476190
1, 82320, Tempo, 454545
1, 82560, Tempo, 476190
1, 82800, Tempo, 454545
1, 83040, Tempo, 476190
1, 83280, Tempo, 454545
1, 83520, Tempo, 476190
1, 83760, Tempo, 454545
1, 84000, Tempo, 476190
1, 84240, Tempo, 454545
1, 84480, Tempo, 476190
1, 84720, Tempo, 454545
1, 84960, Tempo, 476190
1, 85200, Tempo, 454545
1, 85440, Tempo, 476190
1, 85680, Tempo, 454545
1, 85920, Tempo, 476190
1, 86160, Tempo, 454545
1, 86400, Tempo, 476190
1, 86640, Tempo, 454545
1, 86880, Tempo, 476190
1, 87120, Tempo, 454545
1, 87360, Tempo, 476190
1, 87600, Tempo, 454545
1, 87840, Tempo, 476190
1, 88080, Tempo, 454545
1, 88320, Tempo, 476190
1, 88560, Tempo, 454545
1, 88800, Tempo, 476190
1, 89040, Tempo, 454545
1, 89280, Tempo, 476190
1, 89520, Tempo, 454545
1, 89760, Tempo, 476190
1, 90000, Tempo, 454545
1, 90240, Tempo, 476190
1, 90480, Tempo, 454545
1, 90720, Tempo, 476190
1, 90960, Tempo, 454545
1, 91200, Tempo, 476190
1, 91440, Tempo, 454545
1, 91680, Tempo, 476190
1, 91920, Tempo, 454545
1, 92160, Tempo, 476190
1, 92400, Tempo, 454545
1, 92640, Tempo, 476190
1, 92880, Tempo, 454545
1, 93120, Tempo, 476190
1, 93360, Tempo, 454545
1, 93600, Tempo, 476190
1, 93840, Tempo, 454545
1, 94080, Tempo, 476190
1, 94320, Tempo, 454545
1, 94560, Tempo, 476190
1, 94800, Tempo, 454545
1, 95040, Tempo, 476190
1, 95280, Tempo, 454545
1, 95520, Tempo, 476190
1, 95760, Tempo, 454545
1, 96000, Tempo, 476190
1, 96240, Tempo, 454545
1, 96480, Tempo, 476190
1, 96720, Tempo, 454545
1, 96960, Tempo, 476190
1, 97200, Tempo, 454545
1, 97440, Tempo, 476190
1, 97680, Tempo, 454545
1, 97920, Tempo, 476190
1, 98160, Tempo, 454545
1, 98400, Tempo, 476190
1, 98640, Tempo, 454545
1, 98880, Tempo, 476190
1, 99120, Tempo, 454545
1, 99360, Tempo, 476190
1, 99600, Tempo, 454545
1, 99840, Tempo, 476190
1, 100080, Tempo, 454545
1, 100320, Tempo, 476190
1, 100560, Tempo, 454545
1, 100800, Tempo, 476190
1, 101040, Tempo, 454545
1, 101280, Tempo, 476190
1, 101520, Tempo, 454545
1, 101760, Tempo, 476190
1, 102000, Tempo, 454545
1, 102240, Tempo, 476190
1, 102480, Tempo, 454545
1, 102720, Tempo, 476190
1, 102960, Tempo, 454545
1, 103200, Tempo, 476190
1, 103440, Tempo, 454545
1, 103680, Tempo, 476190
1, 103920, Tempo, 454545
1, 104160, Tempo, 476190
1, 104400, Tempo, 454545
1, 104640, Tempo, 476190
1, 104880, Tempo, 454545
1, 105120, Tempo, 476190
1, 105360, Tempo, 454545
1, 105600, Tempo, 476190
1, 105840, Tempo, 454545
1, 106080, Tempo, 476190
1, 106320, Tempo, 454545
1, 106560, Tempo, 476190
1, 106800, Tempo, 454545
1, 107040, Tempo, 476190
1, 107280, Tempo, 454545
1, 107520, Tempo, 476190
1, 107760, Tempo, 454545
1, 108000, Tempo, 476190
1, 108240, Tempo, 454545
1, 108480, Tempo, 476190
1, 108720, Tempo, 454545
1, 108960, Tempo, 476190
1, 109200, Tempo, 454545
1, 109440, Tempo, 476190
1, 109680, Tempo, 454545
1, 109920, Tempo, 476190
1, 110160, Tempo, 454545
1, 110400, Tempo, 476190
1, 110640, Tempo, 454545
1, 110880, Tempo, 476190
1, 111120, Tempo, 454545
1, 111360, Tempo, 476190
1, 111600, Tempo, 454545
1, 111840, Tempo, 476190
1, 112080, Tempo, 454545
1, 112320, Tempo, 476190
1, 112560, Tempo, 454545
1, 112800, Tempo, 476190
1, 113040, Tempo, 454545
1, 113280, Tempo, 476190
1, 113520, Tempo, 454545
1, 113760, Tempo, 476190
1, 114000, Tempo, 454545
1, 114240, Tempo, 476190
1, 114480, Tempo, 454545
1, 114720, Tempo, 476190
1, 114960, Tempo, 454545
1, 115200, Tempo, 476190
1, 115440, Tempo, 454545
1, 115680, Tempo, 476190
1, 115920, Tempo, 454545
1, 116160, Tempo, 476190
1, 116400, Tempo, 454545
1, 116640, Tempo, 476190
1, 116880, Tempo, 454545
1, 117120, Tempo, 476190
1, 117360, Tempo, 454545
1, 117600, Tempo, 476190
1, 117840, Tempo, 454545
1, 118080, Tempo, 476190
1, 118320, Tempo, 454545
1, 118560, Tempo, 476190
1, 118800, Tempo, 454545
1, 119040, Tempo, 476190
1, 119280, Tempo, 454545
1, 119520, Tempo, 476190
1, 119760, Tempo, 454545
1, 120000, Tempo, 476190
1, 120240, Tempo, 454545
1, 120480, Tempo, 476190
1, 120720, Tempo, 454545
1, 120960, Tempo, 476190
1, 121200, Tempo, 454545
1, 121440, Tempo, 476190
1, 121680, Tempo, 454545
1, 121920, Tempo, 476190
1, 122160, Tempo, 454545
1, 122400, Tempo, 476190
1, 122640, Tempo, 454545
1, 122880, Tempo, 476190
1, 123120, Tempo, 454545
1, 123360, Tempo, 476190
1, 123600, Tempo, 454545
1, 123840, Tempo, 476190
1, 124080, Tempo, 454545
1, 124320, Tempo, 476190
1, 124560, Tempo, 454545
1, 124800, Tempo, 476190
1, 125040, Tempo, 454545
1, 125280, Tempo, 476190
1, 125520, Tempo, 454545
1, 125760, Tempo, 476190
1, 126000, Tempo, 454545
1, 126240, Tempo, 476190
1, 126480, Tempo, 454545
1, 126720, Tempo, 476190
1, 126960, Tempo, 454545
1, 127200, Tempo, 476190
1, 127440, Tempo, 454545
1, 127680, Tempo, 476190
1, 127920, Tempo, 454545
1, 128160, Tempo, 476190
1, 128400, Tempo, 454545
1, 128640, Tempo, 476190
1, 128880, Tempo, 454545
1, 129120, Tempo, 476190
1, 129360, Tempo, 454545
1, 129600, Tempo, 476190
1, 129840, Tempo, 454545
1, 130080, Tempo, 476190
1, 130320, Tempo, 454545
1, 130560, Tempo, 476190
1, 130800, Tempo, 454545
1, 131040, Tempo, 476190
1, 131280, Tempo, 454545
1, 131520, Tempo, 476190
1, 131760, Tempo, 454545
1, 132000, Tempo, 476190
1, 132240, Tempo, 454545
1, 132480, Tempo, 476190
1, 132720, Tempo, 454545
1, 132960, Tempo, 476190
1, 133200, Tempo, 454545
1, 133440, Tempo, 476190
1, 133680, Tempo, 454545
1, 133920, Tempo, 476190
1, 134160, Tempo, 454545
1, 134400, Tempo, 476190
1, 134640, Tempo, 454545
1, 134880, Tempo, 476190
1, 135120, Tempo, 454545
1, 135360, Tempo, 476190
1, 135600, Tempo, 454545
1, 135840, Tempo, 476190
1, 136080, Tempo, 454545
1, 136320, Tempo, 476190
1, 136560, Tempo, 454545
1, 136800, Tempo, 476190
1, 137040, Tempo, 454545
1, 137280, Tempo, 476190
1, 137520, Tempo, 454545
1, 137760, Tempo, 476190
1, 138000, Tempo, 454545
1, 138240, Tempo, 476190
1, 138480, Tempo, 454545
1, 138720, Tempo, 476190
1, 138960, Tempo, 454545
1, 139200, Tempo, 476190
1, 139440, Tempo, 454545
1, 139680, Tempo, 476190
1, 139920, Tempo, 454545
1, 140160, Tempo, 476190
1, 140400, Tempo, 454545
1, 140640, Tempo, 476190
1, 140880, Tempo, 454545
1, 141120, Tempo, 476190
1, 141360, Tempo, 454545
1, 141600, Tempo, 476190
1, 141840, Tempo, 454545
1, 142080, Tempo, 476190
1, 142320, Tempo, 454545
1, 142560, Tempo, 476190
1, 142800, Tempo, 454545
1, 143040, Tempo, 476190
1, 143280, Tempo, 454545
1, 143520, Tempo, 476190
1, 143760, Tempo, 454545
1, 144000, Tempo, 476190
1, 144240, Tempo, 454545
1, 144480, Tempo, 476190
1, 144720, Tempo, 454545
1, 144960, Tempo, 476190
1, 145200, Tempo, 454545
1, 145440, Tempo, 476190
1, 145680, Tempo, 454545
1, 145920, Tempo, 476190
1, 146160, Tempo, 454545
1, 146400, Tempo, 476190
1, 146640, Tempo, 454545
1, 146880, Tempo, 476190
1, 147120, Tempo, 454545
1, 147360, Tempo, 476190
1, 147600, Tempo, 454545
1, 147840, Tempo, 476190
1, 148080, Tempo, 454545
1, 148320, Tempo, 476190
1, 148560, Tempo, 454545
1, 148800, Tempo, 476190
1, 149040, Tempo, 454545
1, 149280, Tempo, 476190
1, 149520, Tempo, 454545
1, 149760, Tempo, 476190
1, 150000, Tempo, 454545
1, 150240, Tempo, 476190
1, 150480, Tempo, 454545
1, 150720, Tempo, 476190
1, 150960, Tempo, 454545
1, 151200, Tempo, 476190
1, 151440, Tempo, 454545
1, 151680, Tempo, 476190
1, 151920, Tempo, 454545
1, 152160, Tempo, 476190
1, 152400, Tempo, 454545
1, 152640, Tempo, 476190
1, 152880, Tempo, 454545
1, 153120, Tempo, 476190
1, 153360, Tempo, 454545
1, 153600, Tempo, 476190
1, 153840, Tempo, 454545
1, 154080, Tempo, 476190
1, 154320, Tempo, 454545
1, 154560, Tempo, 476190
1, 154800, Tempo, 454545
1, 155040, Tempo, 476190
1, 155280, Tempo, 454545
1, 155520, Tempo, 476190
1, 155760, Tempo, 454545
1, 156000, Tempo, 476190
1, 156240, Tempo, 454545
1, 156480, Tempo, 476190
1, 156720, Tempo, 454545
1, 156960, Tempo, 476190
1, 157200, Tempo, 454545
1, 157440, Tempo, 476190
1, 157680, Tempo, 454545
1, 157920, Tempo, 476190
1, 158160, Tempo, 454545
1, 158400, Tempo, 476190
1, 158640, Tempo, 454545
1, 158880, Tempo, 476190
1, 159120, Tempo, 454545
1, 159360, Tempo, 476190
1, 159600, Tempo, 454545
1, 159840, Tempo, 476190
1, 160080, Tempo, 454545
1, 160320, Tempo, 476190
1, 160560, Tempo, 454545
1, 160800, Tempo, 476190
1, 161040, Tempo, 454545
1, 161280, Tempo, 476190
1, 161520, Tempo, 454545
1, 161760, Tempo, 476190
1, 162000, Tempo, 454545
1, 162240, Tempo, 476190
1, 162480, Tempo, 454545
1, 162720, Tempo, 476190
1, 162960, Tempo, 454545
1, 163200, Tempo, 476190
1, 163440, Tempo, 454545
1, 163680, Tempo, 476190
1, 163920, Tempo, 454545
1, 164160, Tempo, 476190
1, 164400, Tempo, 454545
1, 164640, Tempo, 476190
1, 164880, Tempo, 454545
1, 165120, Tempo, 476190
1, 165360, Tempo, 454545
1, 165600, Tempo, 476190
1, 165840, Tempo, 454545
1, 166080, Tempo, 476190
1, 166320, Tempo, 454545
1, 166560, Tempo, 476190
1, 166800, Tempo, 454545
1, 167040, Tempo, 476190
1, 167280, Tempo, 454545
1, 167520, Tempo, 476190
1, 167760, Tempo, 454545
1, 168000, Tempo, 476190
1, 168240, Tempo, 454545
1, 168480, Tempo, 476190
1, 168720, Tempo, 454545
1, 168960, Tempo, 476190
1, 169200, Tempo, 454545
1, 169440, Tempo, 476190
1, 169680, Tempo, 454545
1, 169920, Tempo, 476190
1, 170160, Tempo, 454545
1, 170400, Tempo, 476190
1, 170640, Tempo, 454545
1, 170880, Tempo, 476190
1, 171120, Tempo, 454545
1, 171360, Tempo, 476190
1, 171600, Tempo, 454545
1, 171840, Tempo, 476190
1, 172080, Tempo, 454545
1, 172320, Tempo, 476190
1, 172560, Tempo, 454545
1, 172800, Tempo, 476190
1, 173040, Tempo, 454545
1, 173280, Tempo, 476190
1, 173520, Tempo, 454545
1, 173760, Tempo, 476190
1, 174000, Tempo, 454545
1, 174240, Tempo, 476190
1, 174480, Tempo, 454545
1, 174720, Tempo, 476190
1, 174960, Tempo, 454545
1, 175200, Tempo, 476190
1, 175440, Tempo, 454545
1, 175680, Tempo, 476190
1, 175920, Tempo, 454545
1, 176160, Tempo, 476190
1, 176400, Tempo, 454545
1, 176640, Tempo, 476190
1, 176880, Tempo, 454545
1, 177120, Tempo, 476190
1, 177360, Tempo, 454545
1, 177600, Tempo, 476190
1, 177840, Tempo, 454545
1, 178080, Tempo, 476190
1, 178320, Tempo, 454545
1, 178560, Tempo, 476190
1, 178800, Tempo, 454545
1, 179040, Tempo, 476190
1, 179280, Tempo, 454545
1, 179520, Tempo, 476190
1, 179760, Tempo, 454545
1, 180000, Tempo, 476190
1, 180240, Tempo, 454545
1, 180480, Tempo, 476190
1, 180720, Tempo, 454545
1, 180960, Tempo, 476190
1, 181200, Tempo, 454545
1, 181440, Tempo, 476190
1, 181680, Tempo, 454545
1, 181920, Tempo, 476190
1, 182160, Tempo, 454545
1, 182400, Tempo, 476190
1, 182640, Tempo, 454545
1, 182880, Tempo, 476190
1, 183120, Tempo, 454545
1, 183360, Tempo, 476190
1, 183600, Tempo, 454545
1, 183840, Tempo, 476190
1, 184080, Tempo, 454545
1, 184320, Tempo, 476190
1, 184560, Tempo, 454545
1, 184800, Tempo, 476190
1, 185040, Tempo, 454545
1, 185280, Tempo, 476190
1, 185520, Tempo, 454545
1, 185760, Tempo, 476190
1, 186000, Tempo, 454545
1, 186240, Tempo, 476190
1, 186480, Tempo, 454545
1, 186720, Tempo, 476190
1, 186960, Tempo, 454545
1, 187200, Tempo, 476190
1, 187440, Tempo, 454545
1, 187680, Tempo, 476190
1, 187918, Tempo, 495868
1, 188160, Tempo, 526316
1, 188640, Tempo, 600000
1, 189120, Tempo, 674157
1, 189600, Tempo, 810811
1, 189704, Tempo, 1016949
1, 190080, Tempo, 1333333
1, 190322, Tempo, 759494
1, 191040, Tempo, 1250000
1, 191280, Tempo, 1153846
1, 191520, Tempo, 1250000
1, 191760, Tempo, 1153846
1, 192000, Tempo, 1250000
1, 192240, Tempo, 1153846
1, 192480, Tempo, 1250000
1, 192720, Tempo, 1153846
1, 192960, Tempo, 1250000
1, 193200, Tempo, 1153846
1, 193440, Tempo, 1250000
1, 193680, Tempo, 1153846
1, 193920, Tempo, 1250000
1, 194160, Tempo, 1153846
1, 194400, Tempo, 1250000
1, 194640, Tempo, 1153846
1, 194880, Tempo, 1250000
1, 195120, Tempo, 1153846
1, 195360, Tempo, 1250000
1, 195600, Tempo, 1153846
1, 195840, Tempo, 1250000
1, 196080, Tempo, 1153846
1, 196320, Tempo, 1250000
1, 196560, Tempo, 1153846
1, 196800, Tempo, 1250000
1, 197040, Tempo, 1153846
1, 197280, Tempo, 1250000
1, 197520, Tempo, 1153846
1, 197760, Tempo, 1250000
1, 198000, Tempo, 1153846
1, 198240, Tempo, 1250000
1, 198480, Tempo, 1153846
1, 198720, Tempo, 1250000
1, 198960, Tempo, 1153846
1, 199200, Tempo, 1250000
1, 199440, Tempo, 1153846
1, 199680, Tempo, 1250000
1, 199920, Tempo, 1153846
1, 200160, Tempo, 1250000
1, 200400, Tempo, 1153846
1, 200640, Tempo, 1250000
1, 200880, Tempo, 1153846
1, 201120, Tempo, 1250000
1, 201360, Tempo, 1153846
1, 201600, Tempo, 1250000
1, 201840, Tempo, 1153846
1, 202080, Tempo, 1250000
1, 202320, Tempo, 1153846
1, 202560, Tempo, 1250000
1, 202800, Tempo, 1153846
1, 203040, Tempo, 1250000
1, 203280, Tempo, 1153846
1, 203520, Tempo, 1250000
1, 203760, Tempo, 1153846
1, 204000, Tempo, 1250000
1, 204240, Tempo, 1153846
1, 204480, Tempo, 1250000
1, 204720, Tempo, 1395349
1, 204834, Tempo, 1578947
1, 204958, Tempo, 1666667
1, 205000, Tempo, 2000000
1, 205058, Tempo, 1538462
1, 205090, Tempo, 1304348
1, 205150, Tempo, 1176471
1, 205200, Tempo, 1071429
1, 205340, Tempo, 952381
1, 205724, Tempo, 1071429
1, 205770, Tempo, 1200000
1, 205822, Tempo, 1395349
1, 205850, Tempo, 1176471
1, 205920, Tempo, 967742
1, 206240, Tempo, 1034483
1, 206280, Tempo, 1132075
1, 206302, Tempo, 1363636
1, 206322, Tempo, 1875000
1, 206348, Tempo, 2500000
1, 206370, Tempo, 3750000
1, 206436, Tempo, 722892
1, 383040, Tempo, 1250000
1, 384000, Tempo, 1250000
1, 384960, Tempo, 1250000
1, 385920, Tempo, 1250000
1, 386880, Tempo, 1250000
1, 387840, Tempo, 1250000
1, 388800, Tempo, 1250000
1, 389760, Tempo, 1250000
1, 390720, Tempo, 1250000
1, 391680, Tempo, 1250000
1, 392640, Tempo, 1250000
1, 393600, Tempo, 1250000
1, 394560, Tempo, 1250000
1, 395520, Tempo, 1250000
1, 395520, End_track
2, 0, Start_track
2, 0, MIDI_port, 0
2, 0, Title_t, "Soprano"
2, 0, Program_c, 0, 19
2, 0, Control_c, 0, 7, 100
2, 0, Control_c, 0, 10, 44
2, 0, Note_on_c, 0, 91, 100
2, 57, Note_on_c, 0, 91, 0
2, 60, Note_on_c, 0, 86, 100
2, 117, Note_on_c, 0, 86, 0
2, 120, Note_on_c, 0, 83, 100
2, 175, Note_on_c, 0, 83, 0
2, 180, Note_on_c, 0, 86, 100
2, 240, Note_on_c, 0, 91, 100
2, 241, Note_on_c, 0, 86, 0
2, 316, Note_on_c, 0, 91, 0
2, 360, Note_on_c, 0, 91, 100
2, 415, Note_on_c, 0, 91, 0
2, 420, Note_on_c, 0, 88, 100
2, 478, Note_on_c, 0, 88, 0
2, 480, Note_on_c, 0, 84, 100
2, 538, Note_on_c, 0, 84, 0
2, 540, Note_on_c, 0, 88, 100
2, 600, Note_on_c, 0, 91, 100
2, 603, Note_on_c, 0, 88, 0
2, 678, Note_on_c, 0, 91, 0
2, 720, Note_on_c, 0, 91, 100
2, 780, Note_on_c, 0, 91, 0
2, 780, Note_on_c, 0, 86, 100
2, 840, Note_on_c, 0, 83, 100
2, 843, Note_on_c, 0, 86, 0
2, 897, Note_on_c, 0, 83, 0
2, 900, Note_on_c, 0, 86, 100
2, 956, Note_on_c, 0, 86, 0
2, 960, Note_on_c, 0, 91, 100
2, 1035, Note_on_c, 0, 91, 0
2, 1080, Note_on_c, 0, 91, 100
2, 1136, Note_on_c, 0, 91, 0
2, 1140, Note_on_c, 0, 84, 100
2, 1195, Note_on_c, 0, 84, 0
2, 1200, Note_on_c, 0, 81, 100
2, 1260, Note_on_c, 0, 81, 0
2, 1260, Note_on_c, 0, 84, 100
2, 1318, Note_on_c, 0, 84, 0
2, 1320, Note_on_c, 0, 91, 100
2, 1399, Note_on_c, 0, 91, 0
2, 2880, Note_on_c, 0, 91, 100
2, 2940, Note_on_c, 0, 91, 0
2, 2940, Note_on_c, 0, 90, 100
2, 2999, Note_on_c, 0, 90, 0
2, 3000, Note_on_c, 0, 91, 100
2, 3056, Note_on_c, 0, 91, 0
2, 3060, Note_on_c, 0, 86, 100
2, 3117, Note_on_c, 0, 86, 0
2, 3120, Note_on_c, 0, 83, 100
2, 3180, Note_on_c, 0, 86, 100
2, 3183, Note_on_c, 0, 83, 0
2, 3228, Note_on_c, 0, 86, 0
2, 3240, Note_on_c, 0, 79, 100
2, 3295, Note_on_c, 0, 79, 0
2, 3300, Note_on_c, 0, 81, 100
2, 3359, Note_on_c, 0, 81, 0
2, 3360, Note_on_c, 0, 83, 100
2, 3417, Note_on_c, 0, 83, 0
2, 3420, Note_on_c, 0, 84, 100
2, 3475, Note_on_c, 0, 84, 0
2, 3480, Note_on_c, 0, 86, 100
2, 3537, Note_on_c, 0, 86, 0
2, 3540, Note_on_c, 0, 88, 100
2, 3589, Note_on_c, 0, 88, 0
2, 3600, Note_on_c, 0, 90, 100
2, 3655, Note_on_c, 0, 90, 0
2, 3660, Note_on_c, 0, 88, 100
2, 3715, Note_on_c, 0, 88, 0
2, 3720, Note_on_c, 0, 90, 100
2, 3778, Note_on_c, 0, 90, 0
2, 3780, Note_on_c, 0, 84, 100
2, 3835, Note_on_c, 0, 84, 0
2, 3840, Note_on_c, 0, 81, 100
2, 3899, Note_on_c, 0, 81, 0
2, 3900, Note_on_c, 0, 84, 100
2, 3949, Note_on_c, 0, 84, 0
2, 3960, Note_on_c, 0, 79, 100
2, 4015, Note_on_c, 0, 79, 0
2, 4020, Note_on_c, 0, 81, 100
2, 4077, Note_on_c, 0, 81, 0
2, 4080, Note_on_c, 0, 83, 100
2, 4137, Note_on_c, 0, 83, 0
2, 4140, Note_on_c, 0, 84, 100
2, 4195, Note_on_c, 0, 84, 0
2, 4200, Note_on_c, 0, 86, 100
2, 4260, Note_on_c, 0, 86, 0
2, 4260, Note_on_c, 0, 88, 100
2, 4288, Note_on_c, 0, 88, 0
2, 4290, Note_on_c, 0, 90, 100
2, 4320, Note_on_c, 0, 90, 0
2, 4320, Note_on_c, 0, 91, 100
2, 4378, Note_on_c, 0, 91, 0
2, 5760, Note_on_c, 0, 91, 100
2, 5820, Note_on_c, 0, 91, 0
2, 5820, Note_on_c, 0, 86, 100
2, 5880, Note_on_c, 0, 83, 100
2, 5882, Note_on_c, 0, 86, 0
2, 5940, Note_on_c, 0, 86, 100
2, 5941, Note_on_c, 0, 83, 0
2, 6000, Note_on_c, 0, 91, 100
2, 6001, Note_on_c, 0, 86, 0
2, 6079, Note_on_c, 0, 91, 0
2, 6120, Note_on_c, 0, 91, 100
2, 6180, Note_on_c, 0, 88, 100
2, 6181, Note_on_c, 0, 91, 0
2, 6240, Note_on_c, 0, 84, 100
2, 6241, Note_on_c, 0, 88, 0
2, 6299, Note_on_c, 0, 84, 0
2, 6300, Note_on_c, 0, 88, 100
2, 6358, Note_on_c, 0, 88, 0
2, 6360, Note_on_c, 0, 91, 100
2, 6433, Note_on_c, 0, 91, 0
2, 6480, Note_on_c, 0, 91, 100
2, 6540, Note_on_c, 0, 91, 0
2, 6540, Note_on_c, 0, 86, 100
2, 6600, Note_on_c, 0, 83, 100
2, 6601, Note_on_c, 0, 86, 0
2, 6660, Note_on_c, 0, 86, 100
2, 6661, Note_on_c, 0, 83, 0
2, 6718, Note_on_c, 0, 86, 0
2, 6720, Note_on_c, 0, 91, 100
2, 6800, Note_on_c, 0, 91, 0
2, 6840, Note_on_c, 0, 91, 100
2, 6900, Note_on_c, 0, 91, 0
2, 6900, Note_on_c, 0, 84, 100
2, 6958, Note_on_c, 0, 84, 0
2, 6960, Note_on_c, 0, 81, 100
2, 7020, Note_on_c, 0, 84, 100
2, 7021, Note_on_c, 0, 81, 0
2, 7080, Note_on_c, 0, 91, 100
2, 7081, Note_on_c, 0, 84, 0
2, 7157, Note_on_c, 0, 91, 0
2, 8640, Note_on_c, 0, 91, 100
2, 8700, Note_on_c, 0, 90, 100
2, 8702, Note_on_c, 0, 91, 0
2, 8760, Note_on_c, 0, 91, 100
2, 8763, Note_on_c, 0, 90, 0
2, 8820, Note_on_c, 0, 86, 100
2, 8821, Note_on_c, 0, 91, 0
2, 8875, Note_on_c, 0, 86, 0
2, 8880, Note_on_c, 0, 83, 100
2, 8936, Note_on_c, 0, 83, 0
2, 8940, Note_on_c, 0, 86, 100
2, 8995, Note_on_c, 0, 86, 0
2, 9000, Note_on_c, 0, 79, 100
2, 9060, Note_on_c, 0, 81, 100
2, 9061, Note_on_c, 0, 79, 0
2, 9117, Note_on_c, 0, 81, 0
2, 9120, Note_on_c, 0, 83, 100
2, 9180, Note_on_c, 0, 83, 0
2, 9180, Note_on_c, 0, 84, 100
2, 9237, Note_on_c, 0, 84, 0
2, 9240, Note_on_c, 0, 86, 100
2, 9298, Note_on_c, 0, 86, 0
2, 9300, Note_on_c, 0, 88, 100
2, 9348, Note_on_c, 0, 88, 0
2, 9360, Note_on_c, 0, 89, 100
2, 9415, Note_on_c, 0, 89, 0
2, 9420, Note_on_c, 0, 88, 100
2, 9480, Note_on_c, 0, 89, 100
2, 9481, Note_on_c, 0, 88, 0
2, 9538, Note_on_c, 0, 89, 0
2, 9540, Note_on_c, 0, 86, 100
2, 9600, Note_on_c, 0, 83, 100
2, 9601, Note_on_c, 0, 86, 0
2, 9659, Note_on_c, 0, 83, 0
2, 9660, Note_on_c, 0, 86, 100
2, 9716, Note_on_c, 0, 86, 0
2, 9720, Note_on_c, 0, 79, 100
2, 9780, Note_on_c, 0, 81, 100
2, 9782, Note_on_c, 0, 79, 0
2, 9835, Note_on_c, 0, 81, 0
2, 9840, Note_on_c, 0, 83, 100
2, 9895, Note_on_c, 0, 83, 0
2, 9900, Note_on_c, 0, 84, 100
2, 9958, Note_on_c, 0, 84, 0
2, 9960, Note_on_c, 0, 86, 100
2, 10015, Note_on_c, 0, 86, 0
2, 10020, Note_on_c, 0, 88, 100
2, 10050, Note_on_c, 0, 88, 0
2, 10050, Note_on_c, 0, 89, 100
2, 10074, Note_on_c, 0, 89, 0
2, 10080, Note_on_c, 0, 91, 100
2, 10142, Note_on_c, 0, 91, 0
2, 11520, Note_on_c, 0, 88, 100
2, 11580, Note_on_c, 0, 86, 100
2, 11582, Note_on_c, 0, 88, 0
2, 11637, Note_on_c, 0, 86, 0
2, 11640, Note_on_c, 0, 88, 100
2, 11699, Note_on_c, 0, 88, 0
2, 11700, Note_on_c, 0, 84, 100
2, 11757, Note_on_c, 0, 84, 0
2, 11760, Note_on_c, 0, 83, 100
2, 11819, Note_on_c, 0, 83, 0
2, 11820, Note_on_c, 0, 84, 100
2, 11873, Note_on_c, 0, 84, 0
2, 11880, Note_on_c, 0, 79, 100
2, 11940, Note_on_c, 0, 81, 100
2, 11943, Note_on_c, 0, 79, 0
2, 11999, Note_on_c, 0, 81, 0
2, 12000, Note_on_c, 0, 83, 100
2, 12060, Note_on_c, 0, 83, 0
2, 12060, Note_on_c, 0, 84, 100
2, 12120, Note_on_c, 0, 86, 100
2, 12122, Note_on_c, 0, 84, 0
2, 12177, Note_on_c, 0, 86, 0
2, 12180, Note_on_c, 0, 88, 100
2, 12230, Note_on_c, 0, 88, 0
2, 12240, Note_on_c, 0, 86, 100
2, 12300, Note_on_c, 0, 84, 100
2, 12302, Note_on_c, 0, 86, 0
2, 12360, Note_on_c, 0, 86, 100
2, 12362, Note_on_c, 0, 84, 0
2, 12420, Note_on_c, 0, 86, 0
2, 12420, Note_on_c, 0, 83, 100
2, 12480, Note_on_c, 0, 83, 0
2, 12480, Note_on_c, 0, 81, 100
2, 12539, Note_on_c, 0, 81, 0
2, 12540, Note_on_c, 0, 83, 100
2, 12594, Note_on_c, 0, 83, 0
2, 12600, Note_on_c, 0, 79, 100
2, 12659, Note_on_c, 0, 79, 0
2, 12660, Note_on_c, 0, 81, 100
2, 12719, Note_on_c, 0, 81, 0
2, 12720, Note_on_c, 0, 83, 100
2, 12780, Note_on_c, 0, 84, 100
2, 12781, Note_on_c, 0, 83, 0
2, 12838, Note_on_c, 0, 84, 0
2, 12840, Note_on_c, 0, 86, 100
2, 12900, Note_on_c, 0, 86, 0
2, 12900, Note_on_c, 0, 88, 100
2, 12922, Note_on_c, 0, 88, 0
2, 12930, Note_on_c, 0, 89, 100
2, 12954, Note_on_c, 0, 89, 0
2, 12960, Note_on_c, 0, 88, 100
2, 13020, Note_on_c, 0, 88, 0
2, 14400, Note_on_c, 0, 84, 100
2, 14455, Note_on_c, 0, 84, 0
2, 14460, Note_on_c, 0, 83, 100
2, 14519, Note_on_c, 0, 83, 0
2, 14520, Note_on_c, 0, 84, 100
2, 14580, Note_on_c, 0, 81, 100
2, 14582, Note_on_c, 0, 84, 0
2, 14637, Note_on_c, 0, 81, 0
2, 14640, Note_on_c, 0, 78, 100
2, 14697, Note_on_c, 0, 78, 0
2, 14700, Note_on_c, 0, 81, 100
2, 14751, Note_on_c, 0, 81, 0
2, 14760, Note_on_c, 0, 74, 100
2, 14820, Note_on_c, 0, 76, 100
2, 14823, Note_on_c, 0, 74, 0
2, 14878, Note_on_c, 0, 76, 0
2, 14880, Note_on_c, 0, 78, 100
2, 14937, Note_on_c, 0, 78, 0
2, 14940, Note_on_c, 0, 79, 100
2, 14998, Note_on_c, 0, 79, 0
2, 15000, Note_on_c, 0, 81, 100
2, 15060, Note_on_c, 0, 83, 100
2, 15062, Note_on_c, 0, 81, 0
2, 15082, Note_on_c, 0, 83, 0
2, 15090, Note_on_c, 0, 84, 100
2, 15119, Note_on_c, 0, 84, 0
2, 15120, Note_on_c, 0, 83, 100
2, 15175, Note_on_c, 0, 83, 0
2, 15180, Note_on_c, 0, 81, 100
2, 15240, Note_on_c, 0, 83, 100
2, 15242, Note_on_c, 0, 81, 0
2, 15300, Note_on_c, 0, 83, 0
2, 15300, Note_on_c, 0, 79, 100
2, 15357, Note_on_c, 0, 79, 0
2, 15360, Note_on_c, 0, 78, 100
2, 15419, Note_on_c, 0, 78, 0
2, 15420, Note_on_c, 0, 79, 100
2, 15469, Note_on_c, 0, 79, 0
2, 15480, Note_on_c, 0, 74, 100
2, 15537, Note_on_c, 0, 74, 0
2, 15540, Note_on_c, 0, 76, 100
2, 15599, Note_on_c, 0, 76, 0
2, 15600, Note_on_c, 0, 78, 100
2, 15655, Note_on_c, 0, 78, 0
2, 15660, Note_on_c, 0, 79, 100
2, 15715, Note_on_c, 0, 79, 0
2, 15720, Note_on_c, 0, 81, 100
2, 15780, Note_on_c, 0, 83, 100
2, 15781, Note_on_c, 0, 81, 0
2, 15833, Note_on_c, 0, 83, 0
2, 15840, Note_on_c, 0, 84, 100
2, 15900, Note_on_c, 0, 84, 0
2, 17280, Note_on_c, 0, 81, 100
2, 17337, Note_on_c, 0, 81, 0
2, 17340, Note_on_c, 0, 79, 100
2, 17400, Note_on_c, 0, 81, 100
2, 17403, Note_on_c, 0, 79, 0
2, 17460, Note_on_c, 0, 78, 100
2, 17461, Note_on_c, 0, 81, 0
2, 17516, Note_on_c, 0, 78, 0
2, 17520, Note_on_c, 0, 72, 100
2, 17578, Note_on_c, 0, 72, 0
2, 17580, Note_on_c, 0, 78, 100
2, 17635, Note_on_c, 0, 78, 0
2, 17640, Note_on_c, 0, 69, 100
2, 17695, Note_on_c, 0, 69, 0
2, 17700, Note_on_c, 0, 71, 100
2, 17760, Note_on_c, 0, 71, 0
2, 17760, Note_on_c, 0, 72, 100
2, 17820, Note_on_c, 0, 74, 100
2, 17823, Note_on_c, 0, 72, 0
2, 17875, Note_on_c, 0, 74, 0
2, 17880, Note_on_c, 0, 76, 100
2, 17940, Note_on_c, 0, 78, 100
2, 17942, Note_on_c, 0, 76, 0
2, 17995, Note_on_c, 0, 78, 0
2, 18000, Note_on_c, 0, 79, 100
2, 18059, Note_on_c, 0, 79, 0
2, 18060, Note_on_c, 0, 78, 100
2, 18120, Note_on_c, 0, 78, 0
2, 18120, Note_on_c, 0, 79, 100
2, 18180, Note_on_c, 0, 74, 100
2, 18183, Note_on_c, 0, 79, 0
2, 18236, Note_on_c, 0, 74, 0
2, 18240, Note_on_c, 0, 72, 100
2, 18300, Note_on_c, 0, 74, 100
2, 18301, Note_on_c, 0, 72, 0
2, 18348, Note_on_c, 0, 74, 0
2, 18360, Note_on_c, 0, 71, 100
2, 18420, Note_on_c, 0, 72, 100
2, 18422, Note_on_c, 0, 71, 0
2, 18475, Note_on_c, 0, 72, 0
2, 18480, Note_on_c, 0, 74, 100
2, 18538, Note_on_c, 0, 74, 0
2, 18540, Note_on_c, 0, 76, 100
2, 18600, Note_on_c, 0, 78, 100
2, 18602, Note_on_c, 0, 76, 0
2, 18657, Note_on_c, 0, 78, 0
2, 18660, Note_on_c, 0, 79, 100
2, 18715, Note_on_c, 0, 79, 0
2, 18720, Note_on_c, 0, 81, 100
2, 18775, Note_on_c, 0, 81, 0
2, 20160, Note_on_c, 0, 78, 100
2, 20220, Note_on_c, 0, 76, 100
2, 20222, Note_on_c, 0, 78, 0
2, 20280, Note_on_c, 0, 78, 100
2, 20281, Note_on_c, 0, 76, 0
2, 20340, Note_on_c, 0, 72, 100
2, 20341, Note_on_c, 0, 78, 0
2, 20400, Note_on_c, 0, 69, 100
2, 20401, Note_on_c, 0, 72, 0
2, 20458, Note_on_c, 0, 69, 0
2, 20460, Note_on_c, 0, 72, 100
2, 20516, Note_on_c, 0, 72, 0
2, 20520, Note_on_c, 0, 67, 100
2, 20580, Note_on_c, 0, 69, 100
2, 20582, Note_on_c, 0, 67, 0
2, 20638, Note_on_c, 0, 69, 0
2, 20640, Note_on_c, 0, 71, 100
2, 20696, Note_on_c, 0, 71, 0
2, 20700, Note_on_c, 0, 72, 100
2, 20756, Note_on_c, 0, 72, 0
2, 20760, Note_on_c, 0, 74, 100
2, 20820, Note_on_c, 0, 74, 0
2, 20820, Note_on_c, 0, 76, 100
2, 20845, Note_on_c, 0, 76, 0
2, 20850, Note_on_c, 0, 78, 100
2, 20873, Note_on_c, 0, 78, 0
2, 20880, Note_on_c, 0, 79, 100
2, 20938, Note_on_c, 0, 79, 0
2, 20940, Note_on_c, 0, 78, 100
2, 20997, Note_on_c, 0, 78, 0
2, 21000, Note_on_c, 0, 79, 100
2, 21060, Note_on_c, 0, 79, 0
2, 21060, Note_on_c, 0, 74, 100
2, 21120, Note_on_c, 0, 74, 0
2, 21120, Note_on_c, 0, 71, 100
2, 21180, Note_on_c, 0, 74, 100
2, 21181, Note_on_c, 0, 71, 0
2, 21236, Note_on_c, 0, 74, 0
2, 21240, Note_on_c, 0, 67, 100
2, 21300, Note_on_c, 0, 69, 100
2, 21301, Note_on_c, 0, 67, 0
2, 21355, Note_on_c, 0, 69, 0
2, 21360, Note_on_c, 0, 71, 100
2, 21420, Note_on_c, 0, 71, 0
2, 21420, Note_on_c, 0, 72, 100
2, 21477, Note_on_c, 0, 72, 0
2, 21480, Note_on_c, 0, 74, 100
2, 21540, Note_on_c, 0, 74, 0
2, 21540, Note_on_c, 0, 76, 100
2, 21596, Note_on_c, 0, 76, 0
2, 21600, Note_on_c, 0, 78, 100
2, 21658, Note_on_c, 0, 78, 0
2, 23040, Note_on_c, 0, 79, 100
2, 23100, Note_on_c, 0, 79, 0
2, 23100, Note_on_c, 0, 76, 100
2, 23159, Note_on_c, 0, 76, 0
2, 23160, Note_on_c, 0, 67, 100
2, 23215, Note_on_c, 0, 67, 0
2, 23220, Note_on_c, 0, 76, 100
2, 23276, Note_on_c, 0, 76, 0
2, 23280, Note_on_c, 0, 79, 100
2, 23353, Note_on_c, 0, 79, 0
2, 23400, Note_on_c, 0, 77, 100
2, 23456, Note_on_c, 0, 77, 0
2, 23460, Note_on_c, 0, 74, 100
2, 23519, Note_on_c, 0, 74, 0
2, 23520, Note_on_c, 0, 67, 100
2, 23580, Note_on_c, 0, 74, 100
2, 23581, Note_on_c, 0, 67, 0
2, 23640, Note_on_c, 0, 77, 100
2, 23642, Note_on_c, 0, 74, 0
2, 23719, Note_on_c, 0, 77, 0
2, 23760, Note_on_c, 0, 76, 100
2, 23817, Note_on_c, 0, 76, 0
2, 23820, Note_on_c, 0, 72, 100
2, 23880, Note_on_c, 0, 67, 100
2, 23881, Note_on_c, 0, 72, 0
2, 23940, Note_on_c, 0, 67, 0
2, 23940, Note_on_c, 0, 72, 100
2, 23997, Note_on_c, 0, 72, 0
2, 24000, Note_on_c, 0, 76, 100
2, 24079, Note_on_c, 0, 76, 0
2, 24120, Note_on_c, 0, 74, 100
2, 24180, Note_on_c, 0, 71, 100
2, 24182, Note_on_c, 0, 74, 0
2, 24240, Note_on_c, 0, 67, 100
2, 24243, Note_on_c, 0, 71, 0
2, 24298, Note_on_c, 0, 67, 0
2, 24300, Note_on_c, 0, 71, 100
2, 24357, Note_on_c, 0, 71, 0
2, 24360, Note_on_c, 0, 74, 100
2, 24439, Note_on_c, 0, 74, 0
2, 25920, Note_on_c, 0, 72, 100
2, 25980, Note_on_c, 0, 71, 100
2, 25982, Note_on_c, 0, 72, 0
2, 26040, Note_on_c, 0, 71, 0
2, 26040, Note_on_c, 0, 72, 100
2, 26100, Note_on_c, 0, 69, 100
2, 26102, Note_on_c, 0, 72, 0
2, 26160, Note_on_c, 0, 69, 0
2, 26160, Note_on_c, 0, 67, 100
2, 26218, Note_on_c, 0, 67, 0
2, 26220, Note_on_c, 0, 69, 100
2, 26271, Note_on_c, 0, 69, 0
2, 26640, Note_on_c, 0, 72, 100
2, 26700, Note_on_c, 0, 71, 100
2, 26702, Note_on_c, 0, 72, 0
2, 26760, Note_on_c, 0, 72, 100
2, 26762, Note_on_c, 0, 71, 0
2, 26820, Note_on_c, 0, 69, 100
2, 26821, Note_on_c, 0, 72, 0
2, 26876, Note_on_c, 0, 69, 0
2, 26880, Note_on_c, 0, 66, 100
2, 26940, Note_on_c, 0, 69, 100
2, 26942, Note_on_c, 0, 66, 0
2, 26995, Note_on_c, 0, 69, 0
2, 27360, Note_on_c, 0, 71, 100
2, 27418, Note_on_c, 0, 71, 0
2, 27420, Note_on_c, 0, 69, 100
2, 27477, Note_on_c, 0, 69, 0
2, 27480, Note_on_c, 0, 71, 100
2, 27539, Note_on_c, 0, 71, 0
2, 27540, Note_on_c, 0, 69, 100
2, 27597, Note_on_c, 0, 69, 0
2, 27600, Note_on_c, 0, 67, 100
2, 27660, Note_on_c, 0, 69, 100
2, 27662, Note_on_c, 0, 67, 0
2, 27710, Note_on_c, 0, 69, 0
2, 27720, Note_on_c, 0, 71, 100
2, 27776, Note_on_c, 0, 71, 0
2, 27780, Note_on_c, 0, 69, 100
2, 27840, Note_on_c, 0, 71, 100
2, 27843, Note_on_c, 0, 69, 0
2, 27900, Note_on_c, 0, 67, 100
2, 27902, Note_on_c, 0, 71, 0
2, 27955, Note_on_c, 0, 67, 0
2, 27960, Note_on_c, 0, 66, 100
2, 28018, Note_on_c, 0, 66, 0
2, 28020, Note_on_c, 0, 67, 100
2, 28076, Note_on_c, 0, 67, 0
2, 28080, Note_on_c, 0, 71, 100
2, 28140, Note_on_c, 0, 69, 100
2, 28143, Note_on_c, 0, 71, 0
2, 28199, Note_on_c, 0, 69, 0
2, 28200, Note_on_c, 0, 71, 100
2, 28260, Note_on_c, 0, 67, 100
2, 28262, Note_on_c, 0, 71, 0
2, 28318, Note_on_c, 0, 67, 0
2, 28320, Note_on_c, 0, 64, 100
2, 28378, Note_on_c, 0, 64, 0
2, 28380, Note_on_c, 0, 67, 100
2, 28432, Note_on_c, 0, 67, 0
2, 28440, Note_on_c, 0, 71, 100
2, 28500, Note_on_c, 0, 71, 0
2, 28500, Note_on_c, 0, 69, 100
2, 28556, Note_on_c, 0, 69, 0
2, 28560, Note_on_c, 0, 71, 100
2, 28620, Note_on_c, 0, 67, 100
2, 28621, Note_on_c, 0, 71, 0
2, 28678, Note_on_c, 0, 67, 0
2, 28680, Note_on_c, 0, 62, 100
2, 28736, Note_on_c, 0, 62, 0
2, 28740, Note_on_c, 0, 67, 100
2, 28792, Note_on_c, 0, 67, 0
2, 28800, Note_on_c, 0, 70, 100
2, 28855, Note_on_c, 0, 70, 0
2, 28860, Note_on_c, 0, 69, 100
2, 28919, Note_on_c, 0, 69, 0
2, 28920, Note_on_c, 0, 70, 100
2, 28980, Note_on_c, 0, 67, 100
2, 28981, Note_on_c, 0, 70, 0
2, 29040, Note_on_c, 0, 61, 100
2, 29042, Note_on_c, 0, 67, 0
2, 29098, Note_on_c, 0, 61, 0
2, 29100, Note_on_c, 0, 67, 100
2, 29152, Note_on_c, 0, 67, 0
2, 29160, Note_on_c, 0, 76, 100
2, 29216, Note_on_c, 0, 76, 0
2, 29220, Note_on_c, 0, 74, 100
2, 29275, Note_on_c, 0, 74, 0
2, 29280, Note_on_c, 0, 76, 100
2, 29339, Note_on_c, 0, 76, 0
2, 29340, Note_on_c, 0, 67, 100
2, 29400, Note_on_c, 0, 61, 100
2, 29402, Note_on_c, 0, 67, 0
2, 29457, Note_on_c, 0, 61, 0
2, 29460, Note_on_c, 0, 67, 100
2, 29509, Note_on_c, 0, 67, 0
2, 29520, Note_on_c, 0, 69, 100
2, 29575, Note_on_c, 0, 69, 0
2, 29580, Note_on_c, 0, 67, 100
2, 29640, Note_on_c, 0, 69, 100
2, 29642, Note_on_c, 0, 67, 0
2, 29698, Note_on_c, 0, 69, 0
2, 29700, Note_on_c, 0, 67, 100
2, 29757, Note_on_c, 0, 67, 0
2, 29760, Note_on_c, 0, 61, 100
2, 29820, Note_on_c, 0, 67, 100
2, 29822, Note_on_c, 0, 61, 0
2, 29872, Note_on_c, 0, 67, 0
2, 29880, Note_on_c, 0, 70, 100
2, 29940, Note_on_c, 0, 69, 100
2, 29943, Note_on_c, 0, 70, 0
2, 30000, Note_on_c, 0, 70, 100
2, 30001, Note_on_c, 0, 69, 0
2, 30057, Note_on_c, 0, 70, 0
2, 30060, Note_on_c, 0, 67, 100
2, 30119, Note_on_c, 0, 67, 0
2, 30120, Note_on_c, 0, 61, 100
2, 30180, Note_on_c, 0, 67, 100
2, 30182, Note_on_c, 0, 61, 0
2, 30235, Note_on_c, 0, 67, 0
2, 30240, Note_on_c, 0, 66, 100
2, 30299, Note_on_c, 0, 66, 0
2, 30300, Note_on_c, 0, 64, 100
2, 30358, Note_on_c, 0, 64, 0
2, 30360, Note_on_c, 0, 66, 100
2, 30419, Note_on_c, 0, 66, 0
2, 30420, Note_on_c, 0, 62, 100
2, 30480, Note_on_c, 0, 62, 0
2, 30480, Note_on_c, 0, 60, 100
2, 30538, Note_on_c, 0, 60, 0
2, 30540, Note_on_c, 0, 62, 100
2, 30589, Note_on_c, 0, 62, 0
2, 30600, Note_on_c, 0, 67, 100
2, 30657, Note_on_c, 0, 67, 0
2, 30660, Note_on_c, 0, 66, 100
2, 30717, Note_on_c, 0, 66, 0
2, 30720, Note_on_c, 0, 67, 100
2, 30780, Note_on_c, 0, 67, 0
2, 30780, Note_on_c, 0, 62, 100
2, 30840, Note_on_c, 0, 59, 100
2, 30842, Note_on_c, 0, 62, 0
2, 30900, Note_on_c, 0, 59, 0
2, 30900, Note_on_c, 0, 62, 100
2, 30951, Note_on_c, 0, 62, 0
2, 30960, Note_on_c, 0, 69, 100
2, 31018, Note_on_c, 0, 69, 0
2, 31020, Note_on_c, 0, 67, 100
2, 31077, Note_on_c, 0, 67, 0
2, 31080, Note_on_c, 0, 69, 100
2, 31140, Note_on_c, 0, 64, 100
2, 31141, Note_on_c, 0, 69, 0
2, 31200, Note_on_c, 0, 60, 100
2, 31201, Note_on_c, 0, 64, 0
2, 31260, Note_on_c, 0, 64, 100
2, 31261, Note_on_c, 0, 60, 0
2, 31315, Note_on_c, 0, 64, 0
2, 31320, Note_on_c, 0, 71, 100
2, 31375, Note_on_c, 0, 71, 0
2, 31380, Note_on_c, 0, 69, 100
2, 31437, Note_on_c, 0, 69, 0
2, 31440, Note_on_c, 0, 71, 100
2, 31495, Note_on_c, 0, 71, 0
2, 31500, Note_on_c, 0, 66, 100
2, 31560, Note_on_c, 0, 62, 100
2, 31561, Note_on_c, 0, 66, 0
2, 31617, Note_on_c, 0, 62, 0
2, 31620, Note_on_c, 0, 66, 100
2, 31671, Note_on_c, 0, 66, 0
2, 31680, Note_on_c, 0, 72, 100
2, 31736, Note_on_c, 0, 72, 0
2, 31740, Note_on_c, 0, 71, 100
2, 31799, Note_on_c, 0, 71, 0
2, 31800, Note_on_c, 0, 72, 100
2, 31859, Note_on_c, 0, 72, 0
2, 31860, Note_on_c, 0, 67, 100
2, 31920, Note_on_c, 0, 64, 100
2, 31921, Note_on_c, 0, 67, 0
2, 31979, Note_on_c, 0, 64, 0
2, 31980, Note_on_c, 0, 67, 100
2, 32029, Note_on_c, 0, 67, 0
2, 32040, Note_on_c, 0, 74, 100
2, 32099, Note_on_c, 0, 74, 0
2, 32100, Note_on_c, 0, 72, 100
2, 32160, Note_on_c, 0, 74, 100
2, 32163, Note_on_c, 0, 72, 0
2, 32219, Note_on_c, 0, 74, 0
2, 32220, Note_on_c, 0, 69, 100
2, 32278, Note_on_c, 0, 69, 0
2, 32280, Note_on_c, 0, 66, 100
2, 32339, Note_on_c, 0, 66, 0
2, 32340, Note_on_c, 0, 69, 100
2, 32388, Note_on_c, 0, 69, 0
2, 32400, Note_on_c, 0, 76, 100
2, 32458, Note_on_c, 0, 76, 0
2, 32460, Note_on_c, 0, 74, 100
2, 32516, Note_on_c, 0, 74, 0
2, 32520, Note_on_c, 0, 76, 100
2, 32578, Note_on_c, 0, 76, 0
2, 32580, Note_on_c, 0, 71, 100
2, 32639, Note_on_c, 0, 71, 0
2, 32640, Note_on_c, 0, 67, 100
2, 32696, Note_on_c, 0, 67, 0
2, 32700, Note_on_c, 0, 71, 100
2, 32749, Note_on_c, 0, 71, 0
2, 32760, Note_on_c, 0, 78, 100
2, 32818, Note_on_c, 0, 78, 0
2, 32820, Note_on_c, 0, 76, 100
2, 32878, Note_on_c, 0, 76, 0
2, 32880, Note_on_c, 0, 78, 100
2, 32940, Note_on_c, 0, 78, 0
2, 32940, Note_on_c, 0, 72, 100
2, 32998, Note_on_c, 0, 72, 0
2, 33000, Note_on_c, 0, 69, 100
2, 33060, Note_on_c, 0, 72, 100
2, 33061, Note_on_c, 0, 69, 0
2, 33116, Note_on_c, 0, 72, 0
2, 33120, Note_on_c, 0, 79, 100
2, 33177, Note_on_c, 0, 79, 0
2, 33180, Note_on_c, 0, 74, 100
2, 33237, Note_on_c, 0, 74, 0
2, 33240, Note_on_c, 0, 71, 100
2, 33299, Note_on_c, 0, 71, 0
2, 33300, Note_on_c, 0, 67, 100
2, 33358, Note_on_c, 0, 67, 0
2, 33360, Note_on_c, 0, 71, 100
2, 33420, Note_on_c, 0, 74, 100
2, 33423, Note_on_c, 0, 71, 0
2, 33468, Note_on_c, 0, 74, 0
2, 33480, Note_on_c, 0, 79, 100
2, 33540, Note_on_c, 0, 79, 0
2, 33540, Note_on_c, 0, 76, 100
2, 33599, Note_on_c, 0, 76, 0
2, 33600, Note_on_c, 0, 72, 100
2, 33657, Note_on_c, 0, 72, 0
2, 33660, Note_on_c, 0, 67, 100
2, 33717, Note_on_c, 0, 67, 0
2, 33720, Note_on_c, 0, 72, 100
2, 33780, Note_on_c, 0, 76, 100
2, 33781, Note_on_c, 0, 72, 0
2, 33824, Note_on_c, 0, 76, 0
2, 33840, Note_on_c, 0, 79, 100
2, 33896, Note_on_c, 0, 79, 0
2, 33900, Note_on_c, 0, 74, 100
2, 33960, Note_on_c, 0, 74, 0
2, 33960, Note_on_c, 0, 71, 100
2, 34020, Note_on_c, 0, 67, 100
2, 34021, Note_on_c, 0, 71, 0
2, 34078, Note_on_c, 0, 67, 0
2, 34080, Note_on_c, 0, 71, 100
2, 34137, Note_on_c, 0, 71, 0
2, 34140, Note_on_c, 0, 74, 100
2, 34188, Note_on_c, 0, 74, 0
2, 34200, Note_on_c, 0, 78, 100
2, 34260, Note_on_c, 0, 78, 0
2, 34260, Note_on_c, 0, 72, 100
2, 34315, Note_on_c, 0, 72, 0
2, 34320, Note_on_c, 0, 69, 100
2, 34376, Note_on_c, 0, 69, 0
2, 34380, Note_on_c, 0, 67, 100
2, 34440, Note_on_c, 0, 69, 100
2, 34442, Note_on_c, 0, 67, 0
2, 34500, Note_on_c, 0, 69, 0
2, 34500, Note_on_c, 0, 72, 100
2, 34541, Note_on_c, 0, 72, 0
2, 34560, Note_on_c, 0, 79, 100
2, 34616, Note_on_c, 0, 79, 0
2, 34620, Note_on_c, 0, 67, 100
2, 34680, Note_on_c, 0, 71, 100
2, 34683, Note_on_c, 0, 67, 0
2, 34740, Note_on_c, 0, 71, 0
2, 34740, Note_on_c, 0, 74, 100
2, 34800, Note_on_c, 0, 79, 100
2, 34802, Note_on_c, 0, 74, 0
2, 34857, Note_on_c, 0, 79, 0
2, 34860, Note_on_c, 0, 81, 100
2, 34909, Note_on_c, 0, 81, 0
2, 34920, Note_on_c, 0, 83, 100
2, 34979, Note_on_c, 0, 83, 0
2, 34980, Note_on_c, 0, 71, 100
2, 35040, Note_on_c, 0, 74, 100
2, 35042, Note_on_c, 0, 71, 0
2, 35100, Note_on_c, 0, 79, 100
2, 35103, Note_on_c, 0, 74, 0
2, 35160, Note_on_c, 0, 83, 100
2, 35161, Note_on_c, 0, 79, 0
2, 35220, Note_on_c, 0, 84, 100
2, 35222, Note_on_c, 0, 83, 0
2, 35271, Note_on_c, 0, 84, 0
2, 35280, Note_on_c, 0, 86, 100
2, 35337, Note_on_c, 0, 86, 0
2, 35340, Note_on_c, 0, 74, 100
2, 35397, Note_on_c, 0, 74, 0
2, 35400, Note_on_c, 0, 79, 100
2, 35460, Note_on_c, 0, 79, 0
2, 35460, Note_on_c, 0, 83, 100
2, 35520, Note_on_c, 0, 86, 100
2, 35521, Note_on_c, 0, 83, 0
2, 35579, Note_on_c, 0, 86, 0
2, 35580, Note_on_c, 0, 90, 100
2, 35636, Note_on_c, 0, 90, 0
2, 35640, Note_on_c, 0, 91, 100
2, 35700, Note_on_c, 0, 90, 100
2, 35701, Note_on_c, 0, 91, 0
2, 35759, Note_on_c, 0, 90, 0
2, 35760, Note_on_c, 0, 91, 100
2, 35818, Note_on_c, 0, 91, 0
2, 35820, Note_on_c, 0, 86, 100
2, 35876, Note_on_c, 0, 86, 0
2, 35880, Note_on_c, 0, 83, 100
2, 35940, Note_on_c, 0, 86, 100
2, 35942, Note_on_c, 0, 83, 0
2, 35994, Note_on_c, 0, 86, 0
2, 36000, Note_on_c, 0, 79, 100
2, 36055, Note_on_c, 0, 79, 0
2, 36060, Note_on_c, 0, 78, 100
2, 36120, Note_on_c, 0, 79, 100
2, 36121, Note_on_c, 0, 78, 0
2, 36178, Note_on_c, 0, 79, 0
2, 36180, Note_on_c, 0, 67, 100
2, 36240, Note_on_c, 0, 71, 100
2, 36243, Note_on_c, 0, 67, 0
2, 36299, Note_on_c, 0, 71, 0
2, 36300, Note_on_c, 0, 74, 100
2, 36354, Note_on_c, 0, 74, 0
2, 36360, Note_on_c, 0, 79, 100
2, 36420, Note_on_c, 0, 79, 0
2, 36420, Note_on_c, 0, 78, 100
2, 36480, Note_on_c, 0, 79, 100
2, 36483, Note_on_c, 0, 78, 0
2, 36540, Note_on_c, 0, 74, 100
2, 36543, Note_on_c, 0, 79, 0
2, 36600, Note_on_c, 0, 71, 100
2, 36602, Note_on_c, 0, 74, 0
2, 36655, Note_on_c, 0, 71, 0
2, 36660, Note_on_c, 0, 74, 100
2, 36715, Note_on_c, 0, 74, 0
2, 36720, Note_on_c, 0, 67, 100
2, 36776, Note_on_c, 0, 67, 0
2, 36780, Note_on_c, 0, 66, 100
2, 36839, Note_on_c, 0, 66, 0
2, 36840, Note_on_c, 0, 67, 100
2, 36900, Note_on_c, 0, 55, 100
2, 36901, Note_on_c, 0, 67, 0
2, 36960, Note_on_c, 0, 59, 100
2, 36962, Note_on_c, 0, 55, 0
2, 37015, Note_on_c, 0, 59, 0
2, 37020, Note_on_c, 0, 62, 100
2, 37076, Note_on_c, 0, 62, 0
2, 37080, Note_on_c, 0, 67, 100
2, 37140, Note_on_c, 0, 67, 0
2, 37140, Note_on_c, 0, 66, 100
2, 37199, Note_on_c, 0, 66, 0
2, 37200, Note_on_c, 0, 67, 100
2, 37255, Note_on_c, 0, 67, 0
2, 37260, Note_on_c, 0, 62, 100
2, 37320, Note_on_c, 0, 62, 0
2, 37320, Note_on_c, 0, 59, 100
2, 37379, Note_on_c, 0, 59, 0
2, 37380, Note_on_c, 0, 62, 100
2, 37433, Note_on_c, 0, 62, 0
2, 37440, Note_on_c, 0, 55, 100
2, 37498, Note_on_c, 0, 55, 0
2, 37500, Note_on_c, 0, 57, 100
2, 37558, Note_on_c, 0, 57, 0
2, 37560, Note_on_c, 0, 59, 100
2, 37620, Note_on_c, 0, 60, 100
2, 37622, Note_on_c, 0, 59, 0
2, 37680, Note_on_c, 0, 62, 100
2, 37681, Note_on_c, 0, 60, 0
2, 37740, Note_on_c, 0, 64, 100
2, 37741, Note_on_c, 0, 62, 0
2, 37790, Note_on_c, 0, 64, 0
2, 37800, Note_on_c, 0, 66, 100
2, 37857, Note_on_c, 0, 66, 0
2, 37860, Note_on_c, 0, 64, 100
2, 37920, Note_on_c, 0, 62, 100
2, 37923, Note_on_c, 0, 64, 0
2, 37979, Note_on_c, 0, 62, 0
2, 37980, Note_on_c, 0, 64, 100
2, 38038, Note_on_c, 0, 64, 0
2, 38040, Note_on_c, 0, 66, 100
2, 38100, Note_on_c, 0, 67, 100
2, 38103, Note_on_c, 0, 66, 0
2, 38151, Note_on_c, 0, 67, 0
2, 38160, Note_on_c, 0, 69, 100
2, 38220, Note_on_c, 0, 67, 100
2, 38221, Note_on_c, 0, 69, 0
2, 38278, Note_on_c, 0, 67, 0
2, 38280, Note_on_c, 0, 66, 100
2, 38336, Note_on_c, 0, 66, 0
2, 38340, Note_on_c, 0, 67, 100
2, 38400, Note_on_c, 0, 67, 0
2, 38400, Note_on_c, 0, 69, 100
2, 38456, Note_on_c, 0, 69, 0
2, 38460, Note_on_c, 0, 71, 100
2, 38508, Note_on_c, 0, 71, 0
2, 38520, Note_on_c, 0, 72, 100
2, 38580, Note_on_c, 0, 67, 100
2, 38581, Note_on_c, 0, 72, 0
2, 38640, Note_on_c, 0, 67, 0
2, 38640, Note_on_c, 0, 69, 100
2, 38700, Note_on_c, 0, 69, 0
2, 38700, Note_on_c, 0, 72, 100
2, 38760, Note_on_c, 0, 72, 0
2, 38760, Note_on_c, 0, 74, 100
2, 38816, Note_on_c, 0, 74, 0
2, 38820, Note_on_c, 0, 78, 100
2, 38869, Note_on_c, 0, 78, 0
2, 38880, Note_on_c, 0, 67, 100
2, 38936, Note_on_c, 0, 67, 0
2, 38940, Note_on_c, 0, 69, 100
2, 38998, Note_on_c, 0, 69, 0
2, 39000, Note_on_c, 0, 71, 100
2, 39057, Note_on_c, 0, 71, 0
2, 39060, Note_on_c, 0, 72, 100
2, 39120, Note_on_c, 0, 74, 100
2, 39121, Note_on_c, 0, 72, 0
2, 39175, Note_on_c, 0, 74, 0
2, 39180, Note_on_c, 0, 76, 100
2, 39232, Note_on_c, 0, 76, 0
2, 39240, Note_on_c, 0, 78, 100
2, 39299, Note_on_c, 0, 78, 0
2, 39300, Note_on_c, 0, 76, 100
2, 39358, Note_on_c, 0, 76, 0
2, 39360, Note_on_c, 0, 74, 100
2, 39418, Note_on_c, 0, 74, 0
2, 39420, Note_on_c, 0, 76, 100
2, 39478, Note_on_c, 0, 76, 0
2, 39480, Note_on_c, 0, 78, 100
2, 39540, Note_on_c, 0, 79, 100
2, 39541, Note_on_c, 0, 78, 0
2, 39594, Note_on_c, 0, 79, 0
2, 39600, Note_on_c, 0, 81, 100
2, 39657, Note_on_c, 0, 81, 0
2, 39660, Note_on_c, 0, 79, 100
2, 39720, Note_on_c, 0, 78, 100
2, 39723, Note_on_c, 0, 79, 0
2, 39780, Note_on_c, 0, 79, 100
2, 39783, Note_on_c, 0, 78, 0
2, 39838, Note_on_c, 0, 79, 0
2, 39840, Note_on_c, 0, 81, 100
2, 39897, Note_on_c, 0, 81, 0
2, 39900, Note_on_c, 0, 83, 100
2, 39951, Note_on_c, 0, 83, 0
2, 39960, Note_on_c, 0, 84, 100
2, 40017, Note_on_c, 0, 84, 0
2, 40020, Note_on_c, 0, 79, 100
2, 40077, Note_on_c, 0, 79, 0
2, 40080, Note_on_c, 0, 81, 100
2, 40140, Note_on_c, 0, 84, 100
2, 40141, Note_on_c, 0, 81, 0
2, 40196, Note_on_c, 0, 84, 0
2, 40200, Note_on_c, 0, 86, 100
2, 40260, Note_on_c, 0, 86, 0
2, 40260, Note_on_c, 0, 90, 100
2, 40316, Note_on_c, 0, 90, 0
2, 40800, Note_on_c, 0, 91, 100
2, 41451, Note_on_c, 0, 91, 0
2, 41520, Note_on_c, 0, 91, 100
2, 41753, Note_on_c, 0, 91, 0
2, 41760, Note_on_c, 0, 90, 100
2, 41997, Note_on_c, 0, 90, 0
2, 42000, Note_on_c, 0, 88, 100
2, 42238, Note_on_c, 0, 88, 0
2, 42240, Note_on_c, 0, 86, 100
2, 43376, Note_on_c, 0, 86, 0
2, 43440, Note_on_c, 0, 86, 100
2, 43679, Note_on_c, 0, 86, 0
2, 43680, Note_on_c, 0, 84, 100
2, 44333, Note_on_c, 0, 84, 0
2, 44400, Note_on_c, 0, 84, 100
2, 44637, Note_on_c, 0, 84, 0
2, 44640, Note_on_c, 0, 83, 100
2, 45106, Note_on_c, 0, 83, 0
2, 45120, Note_on_c, 0, 81, 100
2, 46060, Note_on_c, 0, 81, 0
2, 46080, Note_on_c, 0, 79, 100
2, 47024, Note_on_c, 0, 79, 0
2, 47040, Note_on_c, 0, 81, 100
2, 47511, Note_on_c, 0, 81, 0
2, 47520, Note_on_c, 0, 83, 100
2, 47621, Note_on_c, 0, 83, 0
2, 47640, Note_on_c, 0, 84, 100
2, 47759, Note_on_c, 0, 84, 0
2, 47760, Note_on_c, 0, 81, 100
2, 47874, Note_on_c, 0, 81, 0
2, 47880, Note_on_c, 0, 83, 100
2, 48000, Note_on_c, 0, 84, 100
2, 48002, Note_on_c, 0, 83, 0
2, 49137, Note_on_c, 0, 84, 0
2, 49200, Note_on_c, 0, 84, 100
2, 49438, Note_on_c, 0, 84, 0
2, 49440, Note_on_c, 0, 83, 100
2, 49907, Note_on_c, 0, 83, 0
2, 49910, Note_on_c, 0, 85, 100
2, 49970, Note_on_c, 0, 85, 0
2, 49970, Note_on_c, 0, 86, 100
2, 50030, Note_on_c, 0, 86, 0
2, 50030, Note_on_c, 0, 86, 100
2, 50080, Note_on_c, 0, 86, 0
2, 50080, Note_on_c, 0, 85, 100
2, 50130, Note_on_c, 0, 85, 0
2, 50130, Note_on_c, 0, 86, 100
2, 50160, Note_on_c, 0, 83, 100
2, 50180, Note_on_c, 0, 86, 0
2, 50180, Note_on_c, 0, 85, 100
2, 50230, Note_on_c, 0, 85, 0
2, 50280, Note_on_c, 0, 83, 0
2, 50280, Note_on_c, 0, 81, 100
2, 50396, Note_on_c, 0, 81, 0
2, 50400, Note_on_c, 0, 86, 100
2, 51234, Note_on_c, 0, 86, 0
2, 51360, Note_on_c, 0, 85, 100
2, 51830, Note_on_c, 0, 85, 0
2, 51840, Note_on_c, 0, 86, 100
2, 52784, Note_on_c, 0, 86, 0
2, 52800, Note_on_c, 0, 88, 100
2, 53737, Note_on_c, 0, 88, 0
2, 53760, Note_on_c, 0, 81, 100
2, 54896, Note_on_c, 0, 81, 0
2, 54960, Note_on_c, 0, 81, 100
2, 55194, Note_on_c, 0, 81, 0
2, 55200, Note_on_c, 0, 79, 100
2, 55858, Note_on_c, 0, 79, 0
2, 55920, Note_on_c, 0, 79, 100
2, 56153, Note_on_c, 0, 79, 0
2, 56160, Note_on_c, 0, 78, 100
2, 56391, Note_on_c, 0, 78, 0
2, 56400, Note_on_c, 0, 79, 100
2, 56638, Note_on_c, 0, 79, 0
2, 56640, Note_on_c, 0, 81, 100
2, 57345, Note_on_c, 0, 81, 0
2, 57360, Note_on_c, 0, 83, 100
2, 57594, Note_on_c, 0, 83, 0
2, 57600, Note_on_c, 0, 85, 100
2, 57836, Note_on_c, 0, 85, 0
2, 57840, Note_on_c, 0, 83, 100
2, 57960, Note_on_c, 0, 81, 100
2, 57961, Note_on_c, 0, 83, 0
2, 58079, Note_on_c, 0, 81, 0
2, 58080, Note_on_c, 0, 86, 100
2, 58922, Note_on_c, 0, 86, 0
2, 59040, Note_on_c, 0, 85, 100
2, 59507, Note_on_c, 0, 85, 0
2, 59520, Note_on_c, 0, 86, 100
2, 60000, Note_on_c, 0, 90, 100
2, 60087, Note_on_c, 0, 86, 0
2, 60653, Note_on_c, 0, 90, 0
2, 60720, Note_on_c, 0, 90, 100
2, 60955, Note_on_c, 0, 90, 0
2, 60960, Note_on_c, 0, 88, 100
2, 61615, Note_on_c, 0, 88, 0
2, 61680, Note_on_c, 0, 88, 100
2, 61915, Note_on_c, 0, 88, 0
2, 61920, Note_on_c, 0, 86, 100
2, 62155, Note_on_c, 0, 86, 0
2, 62160, Note_on_c, 0, 85, 100
2, 62395, Note_on_c, 0, 85, 0
2, 62400, Note_on_c, 0, 83, 100
2, 63337, Note_on_c, 0, 83, 0
2, 63360, Note_on_c, 0, 82, 100
2, 63599, Note_on_c, 0, 82, 0
2, 63600, Note_on_c, 0, 80, 100
2, 63715, Note_on_c, 0, 80, 0
2, 63840, Note_on_c, 0, 83, 100
2, 64075, Note_on_c, 0, 83, 0
2, 64080, Note_on_c, 0, 85, 100
2, 64197, Note_on_c, 0, 85, 0
2, 64200, Note_on_c, 0, 86, 100
2, 64320, Note_on_c, 0, 88, 100
2, 64322, Note_on_c, 0, 86, 0
2, 65302, Note_on_c, 0, 88, 0
2, 65520, Note_on_c, 0, 88, 100
2, 65751, Note_on_c, 0, 88, 0
2, 65760, Note_on_c, 0, 86, 100
2, 66415, Note_on_c, 0, 86, 0
2, 66480, Note_on_c, 0, 86, 100
2, 66718, Note_on_c, 0, 86, 0
2, 66720, Note_on_c, 0, 85, 100
2, 66959, Note_on_c, 0, 85, 0
2, 66960, Note_on_c, 0, 83, 100
2, 67197, Note_on_c, 0, 83, 0
2, 67200, Note_on_c, 0, 84, 100
2, 67431, Note_on_c, 0, 84, 0
2, 67440, Note_on_c, 0, 82, 100
2, 67679, Note_on_c, 0, 82, 0
2, 67680, Note_on_c, 0, 83, 100
2, 68331, Note_on_c, 0, 83, 0
2, 68400, Note_on_c, 0, 83, 100
2, 68631, Note_on_c, 0, 83, 0
2, 68640, Note_on_c, 0, 82, 100
2, 69110, Note_on_c, 0, 82, 0
2, 69120, Note_on_c, 0, 83, 100
2, 69592, Note_on_c, 0, 83, 0
2, 69600, Note_on_c, 0, 86, 100
2, 70254, Note_on_c, 0, 86, 0
2, 70320, Note_on_c, 0, 86, 100
2, 70558, Note_on_c, 0, 86, 0
2, 70560, Note_on_c, 0, 84, 100
2, 71215, Note_on_c, 0, 84, 0
2, 71280, Note_on_c, 0, 84, 100
2, 71515, Note_on_c, 0, 84, 0
2, 71520, Note_on_c, 0, 83, 100
2, 71753, Note_on_c, 0, 83, 0
2, 71760, Note_on_c, 0, 81, 100
2, 71993, Note_on_c, 0, 81, 0
2, 72000, Note_on_c, 0, 79, 100
2, 72466, Note_on_c, 0, 79, 0
2, 72480, Note_on_c, 0, 81, 100
2, 72715, Note_on_c, 0, 81, 0
2, 72720, Note_on_c, 0, 83, 100
2, 72954, Note_on_c, 0, 83, 0
2, 72960, Note_on_c, 0, 84, 100
2, 74097, Note_on_c, 0, 84, 0
2, 74160, Note_on_c, 0, 84, 100
2, 74391, Note_on_c, 0, 84, 0
2, 74400, Note_on_c, 0, 83, 100
2, 75052, Note_on_c, 0, 83, 0
2, 75120, Note_on_c, 0, 83, 100
2, 75358, Note_on_c, 0, 83, 0
2, 75360, Note_on_c, 0, 81, 100
2, 75594, Note_on_c, 0, 81, 0
2, 75600, Note_on_c, 0, 79, 100
2, 75835, Note_on_c, 0, 79, 0
2, 75840, Note_on_c, 0, 78, 100
2, 76310, Note_on_c, 0, 78, 0
2, 76320, Note_on_c, 0, 79, 100
2, 76553, Note_on_c, 0, 79, 0
2, 76560, Note_on_c, 0, 81, 100
2, 76797, Note_on_c, 0, 81, 0
2, 76800, Note_on_c, 0, 83, 100
2, 77266, Note_on_c, 0, 83, 0
2, 77280, Note_on_c, 0, 81, 100
2, 77752, Note_on_c, 0, 81, 0
2, 77760, Note_on_c, 0, 79, 100
2, 78701, Note_on_c, 0, 79, 0
2, 78720, Note_on_c, 0, 81, 100
2, 79662, Note_on_c, 0, 81, 0
2, 79680, Note_on_c, 0, 83, 100
2, 80150, Note_on_c, 0, 83, 0
2, 80160, Note_on_c, 0, 84, 100
2, 80277, Note_on_c, 0, 84, 0
2, 80280, Note_on_c, 0, 86, 100
2, 80396, Note_on_c, 0, 86, 0
2, 80400, Note_on_c, 0, 83, 100
2, 80519, Note_on_c, 0, 83, 0
2, 80520, Note_on_c, 0, 84, 100
2, 80622, Note_on_c, 0, 84, 0
2, 80640, Note_on_c, 0, 86, 100
2, 81771, Note_on_c, 0, 86, 0
2, 81840, Note_on_c, 0, 86, 100
2, 82078, Note_on_c, 0, 86, 0
2, 82080, Note_on_c, 0, 84, 100
2, 82733, Note_on_c, 0, 84, 0
2, 82800, Note_on_c, 0, 84, 100
2, 83036, Note_on_c, 0, 84, 0
2, 83040, Note_on_c, 0, 83, 100
2, 83275, Note_on_c, 0, 83, 0
2, 83280, Note_on_c, 0, 81, 100
2, 83518, Note_on_c, 0, 81, 0
2, 83520, Note_on_c, 0, 81, 100
2, 83570, Note_on_c, 0, 81, 0
2, 83570, Note_on_c, 0, 80, 100
2, 83620, Note_on_c, 0, 80, 0
2, 83620, Note_on_c, 0, 81, 100
2, 83670, Note_on_c, 0, 81, 0
2, 83670, Note_on_c, 0, 80, 100
2, 83720, Note_on_c, 0, 80, 0
2, 83720, Note_on_c, 0, 81, 100
2, 83760, Note_on_c, 0, 78, 100
2, 83770, Note_on_c, 0, 81, 0
2, 83770, Note_on_c, 0, 80, 100
2, 83820, Note_on_c, 0, 80, 0
2, 83875, Note_on_c, 0, 78, 0
2, 83880, Note_on_c, 0, 76, 100
2, 84000, Note_on_c, 0, 81, 100
2, 84002, Note_on_c, 0, 76, 0
2, 84949, Note_on_c, 0, 81, 0
2, 84960, Note_on_c, 0, 80, 100
2, 85427, Note_on_c, 0, 80, 0
2, 85440, Note_on_c, 0, 81, 100
2, 85803, Note_on_c, 0, 81, 0
2, 85920, Note_on_c, 0, 84, 100
2, 86508, Note_on_c, 0, 84, 0
2, 86640, Note_on_c, 0, 84, 100
2, 86873, Note_on_c, 0, 84, 0
2, 86880, Note_on_c, 0, 83, 100
2, 87534, Note_on_c, 0, 83, 0
2, 87600, Note_on_c, 0, 83, 100
2, 87839, Note_on_c, 0, 83, 0
2, 87840, Note_on_c, 0, 81, 100
2, 88075, Note_on_c, 0, 81, 0
2, 88080, Note_on_c, 0, 79, 100
2, 88311, Note_on_c, 0, 79, 0
2, 88320, Note_on_c, 0, 78, 100
2, 88790, Note_on_c, 0, 78, 0
2, 88800, Note_on_c, 0, 86, 100
2, 89458, Note_on_c, 0, 86, 0
2, 89520, Note_on_c, 0, 86, 100
2, 89756, Note_on_c, 0, 86, 0
2, 89760, Note_on_c, 0, 84, 100
2, 89996, Note_on_c, 0, 84, 0
2, 90000, Note_on_c, 0, 83, 100
2, 90233, Note_on_c, 0, 83, 0
2, 90240, Note_on_c, 0, 81, 100
2, 90712, Note_on_c, 0, 81, 0
2, 90720, Note_on_c, 0, 93, 100
2, 91373, Note_on_c, 0, 93, 0
2, 91440, Note_on_c, 0, 93, 100
2, 91679, Note_on_c, 0, 93, 0
2, 91680, Note_on_c, 0, 91, 100
2, 91912, Note_on_c, 0, 91, 0
2, 91920, Note_on_c, 0, 89, 100
2, 92156, Note_on_c, 0, 89, 0
2, 92160, Note_on_c, 0, 88, 100
2, 92398, Note_on_c, 0, 88, 0
2, 92400, Note_on_c, 0, 90, 100
2, 92635, Note_on_c, 0, 90, 0
2, 92640, Note_on_c, 0, 91, 100
2, 93593, Note_on_c, 0, 91, 0
2, 93600, Note_on_c, 0, 90, 100
2, 94259, Note_on_c, 0, 90, 0
2, 94320, Note_on_c, 0, 90, 100
2, 94555, Note_on_c, 0, 90, 0
2, 94560, Note_on_c, 0, 88, 100
2, 95027, Note_on_c, 0, 88, 0
2, 95040, Note_on_c, 0, 88, 100
2, 95273, Note_on_c, 0, 88, 0
2, 95280, Note_on_c, 0, 84, 100
2, 95519, Note_on_c, 0, 84, 0
2, 95520, Note_on_c, 0, 87, 100
2, 95986, Note_on_c, 0, 87, 0
2, 96000, Note_on_c, 0, 88, 100
2, 96703, Note_on_c, 0, 88, 0
2, 96720, Note_on_c, 0, 86, 100
2, 96951, Note_on_c, 0, 86, 0
2, 96960, Note_on_c, 0, 84, 100
2, 98099, Note_on_c, 0, 84, 0
2, 98160, Note_on_c, 0, 84, 100
2, 98399, Note_on_c, 0, 84, 0
2, 98400, Note_on_c, 0, 83, 100
2, 99058, Note_on_c, 0, 83, 0
2, 99120, Note_on_c, 0, 83, 100
2, 99359, Note_on_c, 0, 83, 0
2, 99360, Note_on_c, 0, 81, 100
2, 100014, Note_on_c, 0, 81, 0
2, 100080, Note_on_c, 0, 81, 100
2, 100313, Note_on_c, 0, 81, 0
2, 100320, Note_on_c, 0, 79, 100
2, 100975, Note_on_c, 0, 79, 0
2, 101040, Note_on_c, 0, 79, 100
2, 101275, Note_on_c, 0, 79, 0
2, 101280, Note_on_c, 0, 78, 100
2, 101514, Note_on_c, 0, 78, 0
2, 101520, Note_on_c, 0, 76, 100
2, 101754, Note_on_c, 0, 76, 0
2, 101760, Note_on_c, 0, 75, 100
2, 102229, Note_on_c, 0, 75, 0
2, 102240, Note_on_c, 0, 76, 100
2, 103188, Note_on_c, 0, 76, 0
2, 103200, Note_on_c, 0, 75, 100
2, 103672, Note_on_c, 0, 75, 0
2, 103680, Note_on_c, 0, 76, 100
2, 104624, Note_on_c, 0, 76, 0
2, 104640, Note_on_c, 0, 78, 100
2, 105582, Note_on_c, 0, 78, 0
2, 105600, Note_on_c, 0, 79, 100
2, 106540, Note_on_c, 0, 79, 0
2, 106560, Note_on_c, 0, 81, 100
2, 107608, Note_on_c, 0, 81, 0
2, 107640, Note_on_c, 0, 83, 100
2, 107760, Note_on_c, 0, 83, 0
2, 107760, Note_on_c, 0, 81, 100
2, 107874, Note_on_c, 0, 81, 0
2, 107880, Note_on_c, 0, 79, 100
2, 107989, Note_on_c, 0, 79, 0
2, 108000, Note_on_c, 0, 91, 100
2, 108655, Note_on_c, 0, 91, 0
2, 108720, Note_on_c, 0, 91, 100
2, 108955, Note_on_c, 0, 91, 0
2, 108960, Note_on_c, 0, 90, 100
2, 109565, Note_on_c, 0, 90, 0
2, 109680, Note_on_c, 0, 90, 100
2, 109913, Note_on_c, 0, 90, 0
2, 109920, Note_on_c, 0, 88, 100
2, 110574, Note_on_c, 0, 88, 0
2, 110640, Note_on_c, 0, 88, 100
2, 110874, Note_on_c, 0, 88, 0
2, 110880, Note_on_c, 0, 86, 100
2, 111116, Note_on_c, 0, 86, 0
2, 111120, Note_on_c, 0, 84, 100
2, 111358, Note_on_c, 0, 84, 0
2, 111360, Note_on_c, 0, 84, 100
2, 111420, Note_on_c, 0, 84, 0
2, 111420, Note_on_c, 0, 83, 100
2, 111480, Note_on_c, 0, 83, 0
2, 111480, Note_on_c, 0, 84, 100
2, 111540, Note_on_c, 0, 84, 0
2, 111540, Note_on_c, 0, 83, 100
2, 111600, Note_on_c, 0, 83, 0
2, 111600, Note_on_c, 0, 84, 100
2, 111660, Note_on_c, 0, 84, 0
2, 111660, Note_on_c, 0, 83, 100
2, 111720, Note_on_c, 0, 83, 0
2, 111720, Note_on_c, 0, 84, 100
2, 111780, Note_on_c, 0, 84, 0
2, 111780, Note_on_c, 0, 83, 100
2, 111840, Note_on_c, 0, 83, 0
2, 111840, Note_on_c, 0, 84, 100
2, 112791, Note_on_c, 0, 84, 0
2, 112800, Note_on_c, 0, 83, 100
2, 113268, Note_on_c, 0, 83, 0
2, 113280, Note_on_c, 0, 84, 100
2, 113754, Note_on_c, 0, 84, 0
2, 113760, Note_on_c, 0, 88, 100
2, 114418, Note_on_c, 0, 88, 0
2, 114480, Note_on_c, 0, 88, 100
2, 114718, Note_on_c, 0, 88, 0
2, 114720, Note_on_c, 0, 86, 100
2, 114952, Note_on_c, 0, 86, 0
2, 114960, Note_on_c, 0, 84, 100
2, 115192, Note_on_c, 0, 84, 0
2, 115200, Note_on_c, 0, 83, 100
2, 115546, Note_on_c, 0, 83, 0
2, 115680, Note_on_c, 0, 83, 100
2, 116333, Note_on_c, 0, 83, 0
2, 116400, Note_on_c, 0, 83, 100
2, 116631, Note_on_c, 0, 83, 0
2, 116640, Note_on_c, 0, 81, 100
2, 116871, Note_on_c, 0, 81, 0
2, 116880, Note_on_c, 0, 79, 100
2, 117118, Note_on_c, 0, 79, 0
2, 117120, Note_on_c, 0, 78, 100
2, 117586, Note_on_c, 0, 78, 0
2, 117600, Note_on_c, 0, 89, 100
2, 118256, Note_on_c, 0, 89, 0
2, 118320, Note_on_c, 0, 89, 100
2, 118557, Note_on_c, 0, 89, 0
2, 118560, Note_on_c, 0, 88, 100
2, 118791, Note_on_c, 0, 88, 0
2, 118800, Note_on_c, 0, 86, 100
2, 119033, Note_on_c, 0, 86, 0
2, 119040, Note_on_c, 0, 84, 100
2, 119390, Note_on_c, 0, 84, 0
2, 119520, Note_on_c, 0, 84, 100
2, 120176, Note_on_c, 0, 84, 0
2, 120240, Note_on_c, 0, 84, 100
2, 120476, Note_on_c, 0, 84, 0
2, 120480, Note_on_c, 0, 83, 100
2, 120714, Note_on_c, 0, 83, 0
2, 120720, Note_on_c, 0, 81, 100
2, 120952, Note_on_c, 0, 81, 0
2, 120960, Note_on_c, 0, 80, 100
2, 121432, Note_on_c, 0, 80, 0
2, 121440, Note_on_c, 0, 81, 100
2, 121671, Note_on_c, 0, 81, 0
2, 121680, Note_on_c, 0, 83, 100
2, 121914, Note_on_c, 0, 83, 0
2, 121920, Note_on_c, 0, 84, 100
2, 122108, Note_on_c, 0, 84, 0
2, 122160, Note_on_c, 0, 85, 100
2, 122399, Note_on_c, 0, 85, 0
2, 122400, Note_on_c, 0, 86, 100
2, 122634, Note_on_c, 0, 86, 0
2, 122640, Note_on_c, 0, 88, 100
2, 122878, Note_on_c, 0, 88, 0
2, 122880, Note_on_c, 0, 89, 100
2, 123081, Note_on_c, 0, 89, 0
2, 123120, Note_on_c, 0, 90, 100
2, 123358, Note_on_c, 0, 90, 0
2, 123360, Note_on_c, 0, 92, 100
2, 123593, Note_on_c, 0, 92, 0
2, 123600, Note_on_c, 0, 93, 100
2, 123790, Note_on_c, 0, 93, 0
2, 123840, Note_on_c, 0, 86, 100
2, 124310, Note_on_c, 0, 86, 0
2, 124320, Note_on_c, 0, 84, 100
2, 124555, Note_on_c, 0, 84, 0
2, 124560, Note_on_c, 0, 83, 100
2, 124797, Note_on_c, 0, 83, 0
2, 124800, Note_on_c, 0, 84, 100
2, 125266, Note_on_c, 0, 84, 0
2, 125280, Note_on_c, 0, 83, 100
2, 125749, Note_on_c, 0, 83, 0
2, 125760, Note_on_c, 0, 81, 100
2, 126112, Note_on_c, 0, 81, 0
2, 126240, Note_on_c, 0, 93, 100
2, 126891, Note_on_c, 0, 93, 0
2, 126960, Note_on_c, 0, 93, 100
2, 127197, Note_on_c, 0, 93, 0
2, 127200, Note_on_c, 0, 91, 100
2, 127435, Note_on_c, 0, 91, 0
2, 127440, Note_on_c, 0, 89, 100
2, 127678, Note_on_c, 0, 89, 0
2, 127680, Note_on_c, 0, 88, 100
2, 128646, Note_on_c, 0, 88, 0
2, 128880, Note_on_c, 0, 88, 100
2, 129117, Note_on_c, 0, 88, 0
2, 129120, Note_on_c, 0, 86, 100
2, 129604, Note_on_c, 0, 86, 0
2, 129840, Note_on_c, 0, 86, 100
2, 130078, Note_on_c, 0, 86, 0
2, 130080, Note_on_c, 0, 84, 100
2, 130546, Note_on_c, 0, 84, 0
2, 130560, Note_on_c, 0, 83, 100
2, 131270, Note_on_c, 0, 83, 0
2, 131280, Note_on_c, 0, 83, 100
2, 131517, Note_on_c, 0, 83, 0
2, 131520, Note_on_c, 0, 81, 100
2, 132472, Note_on_c, 0, 81, 0
2, 132480, Note_on_c, 0, 83, 100
2, 133424, Note_on_c, 0, 83, 0
2, 133440, Note_on_c, 0, 81, 100
2, 133969, Note_on_c, 0, 81, 0
2, 134160, Note_on_c, 0, 81, 100
2, 134394, Note_on_c, 0, 81, 0
2, 134400, Note_on_c, 0, 83, 100
2, 134638, Note_on_c, 0, 83, 0
2, 134640, Note_on_c, 0, 85, 100
2, 134877, Note_on_c, 0, 85, 0
2, 134880, Note_on_c, 0, 86, 100
2, 135539, Note_on_c, 0, 86, 0
2, 135600, Note_on_c, 0, 86, 100
2, 135835, Note_on_c, 0, 86, 0
2, 135840, Note_on_c, 0, 88, 100
2, 136076, Note_on_c, 0, 88, 0
2, 136080, Note_on_c, 0, 90, 100
2, 136318, Note_on_c, 0, 90, 0
2, 136320, Note_on_c, 0, 91, 100
2, 136555, Note_on_c, 0, 91, 0
2, 136560, Note_on_c, 0, 85, 100
2, 136797, Note_on_c, 0, 85, 0
2, 136800, Note_on_c, 0, 86, 100
2, 137752, Note_on_c, 0, 86, 0
2, 137760, Note_on_c, 0, 85, 100
2, 138226, Note_on_c, 0, 85, 0
2, 138240, Note_on_c, 0, 86, 100
2, 139184, Note_on_c, 0, 86, 0
2, 139200, Note_on_c, 0, 88, 100
2, 140137, Note_on_c, 0, 88, 0
2, 140160, Note_on_c, 0, 90, 100
2, 141102, Note_on_c, 0, 90, 0
2, 141120, Note_on_c, 0, 91, 100
2, 142062, Note_on_c, 0, 91, 0
2, 142080, Note_on_c, 0, 93, 100
2, 143978, Note_on_c, 0, 93, 0
2, 144000, Note_on_c, 0, 94, 100
2, 144703, Note_on_c, 0, 94, 0
2, 144720, Note_on_c, 0, 93, 100
2, 144954, Note_on_c, 0, 93, 0
2, 144960, Note_on_c, 0, 91, 100
2, 145662, Note_on_c, 0, 91, 0
2, 145680, Note_on_c, 0, 89, 100
2, 145919, Note_on_c, 0, 89, 0
2, 145920, Note_on_c, 0, 87, 100
2, 146628, Note_on_c, 0, 87, 0
2, 146640, Note_on_c, 0, 86, 100
2, 146876, Note_on_c, 0, 86, 0
2, 146880, Note_on_c, 0, 85, 100
2, 147350, Note_on_c, 0, 85, 0
2, 147360, Note_on_c, 0, 86, 100
2, 147645, Note_on_c, 0, 86, 0
2, 147840, Note_on_c, 0, 86, 100
2, 148314, Note_on_c, 0, 86, 0
2, 148320, Note_on_c, 0, 85, 100
2, 148789, Note_on_c, 0, 85, 0
2, 148800, Note_on_c, 0, 86, 100
2, 149147, Note_on_c, 0, 86, 0
2, 149280, Note_on_c, 0, 86, 100
2, 149794, Note_on_c, 0, 86, 0
2, 150000, Note_on_c, 0, 86, 100
2, 150232, Note_on_c, 0, 86, 0
2, 150240, Note_on_c, 0, 84, 100
2, 150893, Note_on_c, 0, 84, 0
2, 150960, Note_on_c, 0, 84, 100
2, 151198, Note_on_c, 0, 84, 0
2, 151200, Note_on_c, 0, 83, 100
2, 151435, Note_on_c, 0, 83, 0
2, 151440, Note_on_c, 0, 81, 100
2, 151918, Note_on_c, 0, 81, 0
2, 151920, Note_on_c, 0, 79, 100
2, 152035, Note_on_c, 0, 79, 0
2, 152040, Note_on_c, 0, 78, 100
2, 152160, Note_on_c, 0, 79, 100
2, 152162, Note_on_c, 0, 78, 0
2, 152634, Note_on_c, 0, 79, 0
2, 155040, Note_on_c, 0, 91, 100
2, 155618, Note_on_c, 0, 91, 0
2, 155760, Note_on_c, 0, 91, 100
2, 155992, Note_on_c, 0, 91, 0
2, 156000, Note_on_c, 0, 89, 100
2, 156658, Note_on_c, 0, 89, 0
2, 156720, Note_on_c, 0, 89, 100
2, 156953, Note_on_c, 0, 89, 0
2, 156960, Note_on_c, 0, 88, 100
2, 157199, Note_on_c, 0, 88, 0
2, 157200, Note_on_c, 0, 86, 100
2, 157435, Note_on_c, 0, 86, 0
2, 157440, Note_on_c, 0, 88, 100
2, 158377, Note_on_c, 0, 88, 0
2, 158400, Note_on_c, 0, 86, 100
2, 159341, Note_on_c, 0, 86, 0
2, 159360, Note_on_c, 0, 84, 100
2, 160498, Note_on_c, 0, 84, 0
2, 160560, Note_on_c, 0, 84, 100
2, 160797, Note_on_c, 0, 84, 0
2, 160800, Note_on_c, 0, 83, 100
2, 161452, Note_on_c, 0, 83, 0
2, 161520, Note_on_c, 0, 83, 100
2, 161758, Note_on_c, 0, 83, 0
2, 161760, Note_on_c, 0, 81, 100
2, 161997, Note_on_c, 0, 81, 0
2, 162000, Note_on_c, 0, 79, 100
2, 162235, Note_on_c, 0, 79, 0
2, 162240, Note_on_c, 0, 78, 100
2, 162710, Note_on_c, 0, 78, 0
2, 162720, Note_on_c, 0, 79, 100
2, 163666, Note_on_c, 0, 79, 0
2, 163680, Note_on_c, 0, 78, 100
2, 164151, Note_on_c, 0, 78, 0
2, 164160, Note_on_c, 0, 79, 100
2, 165097, Note_on_c, 0, 79, 0
2, 165120, Note_on_c, 0, 81, 100
2, 166163, Note_on_c, 0, 81, 0
2, 166320, Note_on_c, 0, 79, 100
2, 166437, Note_on_c, 0, 79, 0
2, 166440, Note_on_c, 0, 78, 100
2, 166555, Note_on_c, 0, 78, 0
2, 166560, Note_on_c, 0, 79, 100
2, 167151, Note_on_c, 0, 79, 0
2, 167280, Note_on_c, 0, 79, 100
2, 167513, Note_on_c, 0, 79, 0
2, 167520, Note_on_c, 0, 77, 100
2, 168172, Note_on_c, 0, 77, 0
2, 168240, Note_on_c, 0, 77, 100
2, 168472, Note_on_c, 0, 77, 0
2, 168480, Note_on_c, 0, 76, 100
2, 168712, Note_on_c, 0, 76, 0
2, 168720, Note_on_c, 0, 74, 100
2, 168959, Note_on_c, 0, 74, 0
2, 168960, Note_on_c, 0, 76, 100
2, 169428, Note_on_c, 0, 76, 0
2, 169440, Note_on_c, 0, 88, 100
2, 170096, Note_on_c, 0, 88, 0
2, 170160, Note_on_c, 0, 88, 100
2, 170393, Note_on_c, 0, 88, 0
2, 170400, Note_on_c, 0, 86, 100
2, 171115, Note_on_c, 0, 86, 0
2, 171120, Note_on_c, 0, 86, 100
2, 171357, Note_on_c, 0, 86, 0
2, 171360, Note_on_c, 0, 84, 100
2, 171591, Note_on_c, 0, 84, 0
2, 171600, Note_on_c, 0, 83, 100
2, 171831, Note_on_c, 0, 83, 0
2, 171840, Note_on_c, 0, 81, 100
2, 172311, Note_on_c, 0, 81, 0
2, 172320, Note_on_c, 0, 93, 100
2, 173039, Note_on_c, 0, 93, 0
2, 173040, Note_on_c, 0, 93, 100
2, 173278, Note_on_c, 0, 93, 0
2, 173280, Note_on_c, 0, 91, 100
2, 173933, Note_on_c, 0, 91, 0
2, 174000, Note_on_c, 0, 91, 100
2, 174236, Note_on_c, 0, 91, 0
2, 174240, Note_on_c, 0, 90, 100
2, 174473, Note_on_c, 0, 90, 0
2, 174480, Note_on_c, 0, 88, 100
2, 174714, Note_on_c, 0, 88, 0
2, 174720, Note_on_c, 0, 86, 100
2, 175854, Note_on_c, 0, 86, 0
2, 175920, Note_on_c, 0, 86, 100
2, 176152, Note_on_c, 0, 86, 0
2, 176160, Note_on_c, 0, 84, 100
2, 176811, Note_on_c, 0, 84, 0
2, 176880, Note_on_c, 0, 84, 100
2, 177116, Note_on_c, 0, 84, 0
2, 177120, Note_on_c, 0, 83, 100
2, 177358, Note_on_c, 0, 83, 0
2, 177360, Note_on_c, 0, 81, 100
2, 177598, Note_on_c, 0, 81, 0
2, 177600, Note_on_c, 0, 79, 100
2, 178308, Note_on_c, 0, 79, 0
2, 178320, Note_on_c, 0, 79, 100
2, 178551, Note_on_c, 0, 79, 0
2, 178560, Note_on_c, 0, 81, 100
2, 178799, Note_on_c, 0, 81, 0
2, 178800, Note_on_c, 0, 83, 100
2, 179033, Note_on_c, 0, 83, 0
2, 179040, Note_on_c, 0, 84, 100
2, 179697, Note_on_c, 0, 84, 0
2, 179760, Note_on_c, 0, 84, 100
2, 179998, Note_on_c, 0, 84, 0
2, 180000, Note_on_c, 0, 83, 100
2, 180657, Note_on_c, 0, 83, 0
2, 180720, Note_on_c, 0, 83, 100
2, 180953, Note_on_c, 0, 83, 0
2, 180960, Note_on_c, 0, 81, 100
2, 181198, Note_on_c, 0, 81, 0
2, 181200, Note_on_c, 0, 79, 100
2, 181436, Note_on_c, 0, 79, 0
2, 181440, Note_on_c, 0, 78, 100
2, 181672, Note_on_c, 0, 78, 0
2, 181680, Note_on_c, 0, 76, 100
2, 181797, Note_on_c, 0, 76, 0
2, 181800, Note_on_c, 0, 74, 100
2, 181915, Note_on_c, 0, 74, 0
2, 181920, Note_on_c, 0, 86, 100
2, 182578, Note_on_c, 0, 86, 0
2, 182640, Note_on_c, 0, 86, 100
2, 182872, Note_on_c, 0, 86, 0
2, 182880, Note_on_c, 0, 84, 100
2, 183118, Note_on_c, 0, 84, 0
2, 183120, Note_on_c, 0, 83, 100
2, 183355, Note_on_c, 0, 83, 0
2, 183360, Note_on_c, 0, 81, 100
2, 183711, Note_on_c, 0, 81, 0
2, 183840, Note_on_c, 0, 93, 100
2, 184499, Note_on_c, 0, 93, 0
2, 184560, Note_on_c, 0, 93, 100
2, 184798, Note_on_c, 0, 93, 0
2, 184800, Note_on_c, 0, 91, 100
2, 185452, Note_on_c, 0, 91, 0
2, 185520, Note_on_c, 0, 91, 100
2, 185754, Note_on_c, 0, 91, 0
2, 185760, Note_on_c, 0, 90, 100
2, 185999, Note_on_c, 0, 90, 0
2, 186000, Note_on_c, 0, 88, 100
2, 186237, Note_on_c, 0, 88, 0
2, 186240, Note_on_c, 0, 86, 100
2, 186713, Note_on_c, 0, 86, 0
2, 186720, Note_on_c, 0, 95, 100
2, 187379, Note_on_c, 0, 95, 0
2, 187440, Note_on_c, 0, 95, 100
2, 187679, Note_on_c, 0, 95, 0
2, 187680, Note_on_c, 0, 93, 100
2, 187917, Note_on_c, 0, 93, 0
2, 187920, Note_on_c, 0, 91, 100
2, 188156, Note_on_c, 0, 91, 0
2, 188160, Note_on_c, 0, 90, 100
2, 188626, Note_on_c, 0, 90, 0
2, 188640, Note_on_c, 0, 91, 100
2, 189297, Note_on_c, 0, 91, 0
2, 189360, Note_on_c, 0, 91, 100
2, 189593, Note_on_c, 0, 91, 0
2, 189600, Note_on_c, 0, 90, 100
2, 190072, Note_on_c, 0, 90, 0
2, 190080, Note_on_c, 0, 91, 100
2, 190311, Note_on_c, 0, 91, 0
2, 191040, Note_on_c, 0, 76, 100
2, 191060, Note_on_c, 0, 76, 0
2, 191060, Note_on_c, 0, 78, 100
2, 191080, Note_on_c, 0, 79, 100
2, 191083, Note_on_c, 0, 78, 0
2, 191100, Note_on_c, 0, 81, 100
2, 191103, Note_on_c, 0, 79, 0
2, 191119, Note_on_c, 0, 81, 0
2, 191120, Note_on_c, 0, 82, 100
2, 191140, Note_on_c, 0, 91, 100
2, 191142, Note_on_c, 0, 82, 0
2, 191158, Note_on_c, 0, 91, 0
2, 191160, Note_on_c, 0, 76, 100
2, 191180, Note_on_c, 0, 78, 100
2, 191181, Note_on_c, 0, 76, 0
2, 191197, Note_on_c, 0, 78, 0
2, 191200, Note_on_c, 0, 79, 100
2, 191219, Note_on_c, 0, 79, 0
2, 191220, Note_on_c, 0, 81, 100
2, 191236, Note_on_c, 0, 81, 0
2, 191240, Note_on_c, 0, 82, 100
2, 191257, Note_on_c, 0, 82, 0
2, 191260, Note_on_c, 0, 91, 100
2, 191277, Note_on_c, 0, 91, 0
2, 191280, Note_on_c, 0, 76, 100
2, 191297, Note_on_c, 0, 76, 0
2, 191300, Note_on_c, 0, 78, 100
2, 191316, Note_on_c, 0, 78, 0
2, 191320, Note_on_c, 0, 79, 100
2, 191337, Note_on_c, 0, 79, 0
2, 191340, Note_on_c, 0, 81, 100
2, 191356, Note_on_c, 0, 81, 0
2, 191360, Note_on_c, 0, 82, 100
2, 191376, Note_on_c, 0, 82, 0
2, 191380, Note_on_c, 0, 91, 100
2, 191393, Note_on_c, 0, 91, 0
2, 191400, Note_on_c, 0, 76, 100
2, 191420, Note_on_c, 0, 78, 100
2, 191424, Note_on_c, 0, 76, 0
2, 191438, Note_on_c, 0, 78, 0
2, 191440, Note_on_c, 0, 79, 100
2, 191459, Note_on_c, 0, 79, 0
2, 191460, Note_on_c, 0, 81, 100
2, 191480, Note_on_c, 0, 82, 100
2, 191481, Note_on_c, 0, 81, 0
2, 191500, Note_on_c, 0, 91, 100
2, 191501, Note_on_c, 0, 82, 0
2, 191518, Note_on_c, 0, 91, 0
2, 191520, Note_on_c, 0, 78, 100
2, 191540, Note_on_c, 0, 81, 100
2, 191544, Note_on_c, 0, 78, 0
2, 191558, Note_on_c, 0, 81, 0
2, 191560, Note_on_c, 0, 83, 100
2, 191580, Note_on_c, 0, 85, 100
2, 191583, Note_on_c, 0, 83, 0
2, 191600, Note_on_c, 0, 86, 100
2, 191602, Note_on_c, 0, 85, 0
2, 191617, Note_on_c, 0, 86, 0
2, 191620, Note_on_c, 0, 93, 100
2, 191631, Note_on_c, 0, 93, 0
2, 191640, Note_on_c, 0, 78, 100
2, 191660, Note_on_c, 0, 81, 100
2, 191663, Note_on_c, 0, 78, 0
2, 191680, Note_on_c, 0, 81, 0
2, 191680, Note_on_c, 0, 83, 100
2, 191699, Note_on_c, 0, 83, 0
2, 191700, Note_on_c, 0, 85, 100
2, 191719, Note_on_c, 0, 85, 0
2, 191720, Note_on_c, 0, 86, 100
2, 191736, Note_on_c, 0, 86, 0
2, 191740, Note_on_c, 0, 93, 100
2, 191759, Note_on_c, 0, 93, 0
2, 191760, Note_on_c, 0, 78, 100
2, 191780, Note_on_c, 0, 81, 100
2, 191784, Note_on_c, 0, 78, 0
2, 191796, Note_on_c, 0, 81, 0
2, 191800, Note_on_c, 0, 83, 100
2, 191820, Note_on_c, 0, 85, 100
2, 191821, Note_on_c, 0, 83, 0
2, 191840, Note_on_c, 0, 86, 100
2, 191841, Note_on_c, 0, 85, 0
2, 191858, Note_on_c, 0, 86, 0
2, 191860, Note_on_c, 0, 93, 100
2, 191878, Note_on_c, 0, 93, 0
2, 191880, Note_on_c, 0, 78, 100
2, 191900, Note_on_c, 0, 81, 100
2, 191901, Note_on_c, 0, 78, 0
2, 191920, Note_on_c, 0, 83, 100
2, 191922, Note_on_c, 0, 81, 0
2, 191937, Note_on_c, 0, 83, 0
2, 191940, Note_on_c, 0, 85, 100
2, 191960, Note_on_c, 0, 86, 100
2, 191964, Note_on_c, 0, 85, 0
2, 191980, Note_on_c, 0, 93, 100
2, 191983, Note_on_c, 0, 86, 0
2, 191994, Note_on_c, 0, 93, 0
2, 192000, Note_on_c, 0, 78, 100
2, 192016, Note_on_c, 0, 78, 0
2, 192020, Note_on_c, 0, 82, 100
2, 192039, Note_on_c, 0, 82, 0
2, 192040, Note_on_c, 0, 83, 100
2, 192060, Note_on_c, 0, 85, 100
2, 192061, Note_on_c, 0, 83, 0
2, 192077, Note_on_c, 0, 85, 0
2, 192080, Note_on_c, 0, 87, 100
2, 192098, Note_on_c, 0, 87, 0
2, 192100, Note_on_c, 0, 93, 100
2, 192118, Note_on_c, 0, 93, 0
2, 192120, Note_on_c, 0, 78, 100
2, 192138, Note_on_c, 0, 78, 0
2, 192140, Note_on_c, 0, 82, 100
2, 192158, Note_on_c, 0, 82, 0
2, 192160, Note_on_c, 0, 83, 100
2, 192177, Note_on_c, 0, 83, 0
2, 192180, Note_on_c, 0, 85, 100
2, 192197, Note_on_c, 0, 85, 0
2, 192200, Note_on_c, 0, 87, 100
2, 192220, Note_on_c, 0, 93, 100
2, 192224, Note_on_c, 0, 87, 0
2, 192239, Note_on_c, 0, 93, 0
2, 192240, Note_on_c, 0, 78, 100
2, 192260, Note_on_c, 0, 82, 100
2, 192264, Note_on_c, 0, 78, 0
2, 192280, Note_on_c, 0, 83, 100
2, 192283, Note_on_c, 0, 82, 0
2, 192297, Note_on_c, 0, 83, 0
2, 192300, Note_on_c, 0, 85, 100
2, 192317, Note_on_c, 0, 85, 0
2, 192320, Note_on_c, 0, 87, 100
2, 192340, Note_on_c, 0, 93, 100
2, 192342, Note_on_c, 0, 87, 0
2, 192353, Note_on_c, 0, 93, 0
2, 192360, Note_on_c, 0, 78, 100
2, 192378, Note_on_c, 0, 78, 0
2, 192380, Note_on_c, 0, 82, 100
2, 192400, Note_on_c, 0, 83, 100
2, 192402, Note_on_c, 0, 82, 0
2, 192417, Note_on_c, 0, 83, 0
2, 192420, Note_on_c, 0, 85, 100
2, 192440, Note_on_c, 0, 85, 0
2, 192440, Note_on_c, 0, 87, 100
2, 192460, Note_on_c, 0, 93, 100
2, 192462, Note_on_c, 0, 87, 0
2, 192479, Note_on_c, 0, 93, 0
2, 192480, Note_on_c, 0, 79, 100
2, 192500, Note_on_c, 0, 83, 100
2, 192503, Note_on_c, 0, 79, 0
2, 192517, Note_on_c, 0, 83, 0
2, 192520, Note_on_c, 0, 84, 100
2, 192540, Note_on_c, 0, 86, 100
2, 192543, Note_on_c, 0, 84, 0
2, 192560, Note_on_c, 0, 88, 100
2, 192564, Note_on_c, 0, 86, 0
2, 192577, Note_on_c, 0, 88, 0
2, 192580, Note_on_c, 0, 91, 100
2, 192594, Note_on_c, 0, 91, 0
2, 192600, Note_on_c, 0, 79, 100
2, 192620, Note_on_c, 0, 83, 100
2, 192623, Note_on_c, 0, 79, 0
2, 192639, Note_on_c, 0, 83, 0
2, 192640, Note_on_c, 0, 84, 100
2, 192660, Note_on_c, 0, 86, 100
2, 192664, Note_on_c, 0, 84, 0
2, 192680, Note_on_c, 0, 88, 100
2, 192681, Note_on_c, 0, 86, 0
2, 192698, Note_on_c, 0, 88, 0
2, 192700, Note_on_c, 0, 91, 100
2, 192713, Note_on_c, 0, 91, 0
2, 192720, Note_on_c, 0, 79, 100
2, 192739, Note_on_c, 0, 79, 0
2, 192740, Note_on_c, 0, 83, 100
2, 192757, Note_on_c, 0, 83, 0
2, 192760, Note_on_c, 0, 84, 100
2, 192780, Note_on_c, 0, 86, 100
2, 192782, Note_on_c, 0, 84, 0
2, 192800, Note_on_c, 0, 88, 100
2, 192804, Note_on_c, 0, 86, 0
2, 192820, Note_on_c, 0, 91, 100
2, 192824, Note_on_c, 0, 88, 0
2, 192835, Note_on_c, 0, 91, 0
2, 192840, Note_on_c, 0, 79, 100
2, 192860, Note_on_c, 0, 79, 0
2, 192860, Note_on_c, 0, 83, 100
2, 192880, Note_on_c, 0, 83, 0
2, 192880, Note_on_c, 0, 84, 100
2, 192900, Note_on_c, 0, 86, 100
2, 192903, Note_on_c, 0, 84, 0
2, 192918, Note_on_c, 0, 86, 0
2, 192920, Note_on_c, 0, 88, 100
2, 192940, Note_on_c, 0, 91, 100
2, 192942, Note_on_c, 0, 88, 0
2, 192954, Note_on_c, 0, 91, 0
2, 192960, Note_on_c, 0, 81, 100
2, 192980, Note_on_c, 0, 83, 100
2, 192982, Note_on_c, 0, 81, 0
2, 192998, Note_on_c, 0, 83, 0
2, 193000, Note_on_c, 0, 84, 100
2, 193017, Note_on_c, 0, 84, 0
2, 193020, Note_on_c, 0, 86, 100
2, 193036, Note_on_c, 0, 86, 0
2, 193040, Note_on_c, 0, 88, 100
2, 193058, Note_on_c, 0, 88, 0
2, 193060, Note_on_c, 0, 96, 100
2, 193076, Note_on_c, 0, 96, 0
2, 193080, Note_on_c, 0, 81, 100
2, 193099, Note_on_c, 0, 81, 0
2, 193100, Note_on_c, 0, 83, 100
2, 193116, Note_on_c, 0, 83, 0
2, 193120, Note_on_c, 0, 84, 100
2, 193139, Note_on_c, 0, 84, 0
2, 193140, Note_on_c, 0, 86, 100
2, 193160, Note_on_c, 0, 86, 0
2, 193160, Note_on_c, 0, 88, 100
2, 193179, Note_on_c, 0, 88, 0
2, 193180, Note_on_c, 0, 96, 100
2, 193196, Note_on_c, 0, 96, 0
2, 193200, Note_on_c, 0, 79, 100
2, 193220, Note_on_c, 0, 83, 100
2, 193223, Note_on_c, 0, 79, 0
2, 193240, Note_on_c, 0, 84, 100
2, 193244, Note_on_c, 0, 83, 0
2, 193260, Note_on_c, 0, 86, 100
2, 193262, Note_on_c, 0, 84, 0
2, 193276, Note_on_c, 0, 86, 0
2, 193280, Note_on_c, 0, 88, 100
2, 193300, Note_on_c, 0, 96, 100
2, 193304, Note_on_c, 0, 88, 0
2, 193315, Note_on_c, 0, 96, 0
2, 193320, Note_on_c, 0, 79, 100
2, 193340, Note_on_c, 0, 83, 100
2, 193342, Note_on_c, 0, 79, 0
2, 193358, Note_on_c, 0, 83, 0
2, 193360, Note_on_c, 0, 84, 100
2, 193377, Note_on_c, 0, 84, 0
2, 193380, Note_on_c, 0, 86, 100
2, 193400, Note_on_c, 0, 88, 100
2, 193401, Note_on_c, 0, 86, 0
2, 193418, Note_on_c, 0, 88, 0
2, 193420, Note_on_c, 0, 96, 100
2, 193438, Note_on_c, 0, 96, 0
2, 193440, Note_on_c, 0, 78, 100
2, 193459, Note_on_c, 0, 78, 0
2, 193460, Note_on_c, 0, 82, 100
2, 193480, Note_on_c, 0, 83, 100
2, 193481, Note_on_c, 0, 82, 0
2, 193497, Note_on_c, 0, 83, 0
2, 193500, Note_on_c, 0, 85, 100
2, 193520, Note_on_c, 0, 87, 100
2, 193523, Note_on_c, 0, 85, 0
2, 193540, Note_on_c, 0, 95, 100
2, 193544, Note_on_c, 0, 87, 0
2, 193558, Note_on_c, 0, 95, 0
2, 193560, Note_on_c, 0, 78, 100
2, 193580, Note_on_c, 0, 82, 100
2, 193583, Note_on_c, 0, 78, 0
2, 193596, Note_on_c, 0, 82, 0
2, 193600, Note_on_c, 0, 83, 100
2, 193620, Note_on_c, 0, 83, 0
2, 193620, Note_on_c, 0, 85, 100
2, 193637, Note_on_c, 0, 85, 0
2, 193640, Note_on_c, 0, 87, 100
2, 193657, Note_on_c, 0, 87, 0
2, 193660, Note_on_c, 0, 95, 100
2, 193674, Note_on_c, 0, 95, 0
2, 193680, Note_on_c, 0, 78, 100
2, 193700, Note_on_c, 0, 82, 100
2, 193703, Note_on_c, 0, 78, 0
2, 193719, Note_on_c, 0, 82, 0
2, 193720, Note_on_c, 0, 83, 100
2, 193740, Note_on_c, 0, 85, 100
2, 193741, Note_on_c, 0, 83, 0
2, 193760, Note_on_c, 0, 87, 100
2, 193762, Note_on_c, 0, 85, 0
2, 193780, Note_on_c, 0, 87, 0
2, 193780, Note_on_c, 0, 95, 100
2, 193796, Note_on_c, 0, 95, 0
2, 193800, Note_on_c, 0, 78, 100
2, 193816, Note_on_c, 0, 78, 0
2, 193820, Note_on_c, 0, 82, 100
2, 193837, Note_on_c, 0, 82, 0
2, 193840, Note_on_c, 0, 83, 100
2, 193860, Note_on_c, 0, 85, 100
2, 193864, Note_on_c, 0, 83, 0
2, 193880, Note_on_c, 0, 87, 100
2, 193882, Note_on_c, 0, 85, 0
2, 193897, Note_on_c, 0, 87, 0
2, 193900, Note_on_c, 0, 95, 100
2, 193917, Note_on_c, 0, 95, 0
2, 193920, Note_on_c, 0, 77, 100
2, 193938, Note_on_c, 0, 77, 0
2, 193940, Note_on_c, 0, 82, 100
2, 193958, Note_on_c, 0, 82, 0
2, 193960, Note_on_c, 0, 83, 100
2, 193977, Note_on_c, 0, 83, 0
2, 193980, Note_on_c, 0, 85, 100
2, 193996, Note_on_c, 0, 85, 0
2, 194000, Note_on_c, 0, 86, 100
2, 194017, Note_on_c, 0, 86, 0
2, 194020, Note_on_c, 0, 95, 100
2, 194036, Note_on_c, 0, 95, 0
2, 194040, Note_on_c, 0, 77, 100
2, 194060, Note_on_c, 0, 77, 0
2, 194060, Note_on_c, 0, 82, 100
2, 194080, Note_on_c, 0, 83, 100
2, 194082, Note_on_c, 0, 82, 0
2, 194097, Note_on_c, 0, 83, 0
2, 194100, Note_on_c, 0, 85, 100
2, 194120, Note_on_c, 0, 86, 100
2, 194123, Note_on_c, 0, 85, 0
2, 194140, Note_on_c, 0, 95, 100
2, 194142, Note_on_c, 0, 86, 0
2, 194155, Note_on_c, 0, 95, 0
2, 194160, Note_on_c, 0, 77, 100
2, 194176, Note_on_c, 0, 77, 0
2, 194180, Note_on_c, 0, 82, 100
2, 194200, Note_on_c, 0, 83, 100
2, 194201, Note_on_c, 0, 82, 0
2, 194217, Note_on_c, 0, 83, 0
2, 194220, Note_on_c, 0, 85, 100
2, 194237, Note_on_c, 0, 85, 0
2, 194240, Note_on_c, 0, 86, 100
2, 194258, Note_on_c, 0, 86, 0
2, 194260, Note_on_c, 0, 95, 100
2, 194272, Note_on_c, 0, 95, 0
2, 194280, Note_on_c, 0, 77, 100
2, 194296, Note_on_c, 0, 77, 0
2, 194300, Note_on_c, 0, 82, 100
2, 194320, Note_on_c, 0, 83, 100
2, 194323, Note_on_c, 0, 82, 0
2, 194336, Note_on_c, 0, 83, 0
2, 194340, Note_on_c, 0, 85, 100
2, 194359, Note_on_c, 0, 85, 0
2, 194360, Note_on_c, 0, 86, 100
2, 194376, Note_on_c, 0, 86, 0
2, 194380, Note_on_c, 0, 95, 100
2, 194391, Note_on_c, 0, 95, 0
2, 194400, Note_on_c, 0, 76, 100
2, 194420, Note_on_c, 0, 76, 0
2, 194420, Note_on_c, 0, 80, 100
2, 194440, Note_on_c, 0, 81, 100
2, 194442, Note_on_c, 0, 80, 0
2, 194460, Note_on_c, 0, 83, 100
2, 194461, Note_on_c, 0, 81, 0
2, 194477, Note_on_c, 0, 83, 0
2, 194480, Note_on_c, 0, 85, 100
2, 194499, Note_on_c, 0, 85, 0
2, 194500, Note_on_c, 0, 93, 100
2, 194518, Note_on_c, 0, 93, 0
2, 194520, Note_on_c, 0, 76, 100
2, 194536, Note_on_c, 0, 76, 0
2, 194540, Note_on_c, 0, 80, 100
2, 194559, Note_on_c, 0, 80, 0
2, 194560, Note_on_c, 0, 81, 100
2, 194580, Note_on_c, 0, 83, 100
2, 194583, Note_on_c, 0, 81, 0
2, 194598, Note_on_c, 0, 83, 0
2, 194600, Note_on_c, 0, 85, 100
2, 194620, Note_on_c, 0, 93, 100
2, 194623, Note_on_c, 0, 85, 0
2, 194636, Note_on_c, 0, 93, 0
2, 194640, Note_on_c, 0, 76, 100
2, 194660, Note_on_c, 0, 80, 100
2, 194661, Note_on_c, 0, 76, 0
2, 194680, Note_on_c, 0, 81, 100
2, 194683, Note_on_c, 0, 80, 0
2, 194699, Note_on_c, 0, 81, 0
2, 194700, Note_on_c, 0, 83, 100
2, 194716, Note_on_c, 0, 83, 0
2, 194720, Note_on_c, 0, 85, 100
2, 194739, Note_on_c, 0, 85, 0
2, 194740, Note_on_c, 0, 93, 100
2, 194759, Note_on_c, 0, 93, 0
2, 194760, Note_on_c, 0, 76, 100
2, 194777, Note_on_c, 0, 76, 0
2, 194780, Note_on_c, 0, 80, 100
2, 194797, Note_on_c, 0, 80, 0
2, 194800, Note_on_c, 0, 81, 100
2, 194819, Note_on_c, 0, 81, 0
2, 194820, Note_on_c, 0, 83, 100
2, 194840, Note_on_c, 0, 85, 100
2, 194841, Note_on_c, 0, 83, 0
2, 194857, Note_on_c, 0, 85, 0
2, 194860, Note_on_c, 0, 93, 100
2, 194871, Note_on_c, 0, 93, 0
2, 194880, Note_on_c, 0, 75, 100
2, 194900, Note_on_c, 0, 80, 100
2, 194903, Note_on_c, 0, 75, 0
2, 194920, Note_on_c, 0, 81, 100
2, 194922, Note_on_c, 0, 80, 0
2, 194940, Note_on_c, 0, 83, 100
2, 194941, Note_on_c, 0, 81, 0
2, 194957, Note_on_c, 0, 83, 0
2, 194960, Note_on_c, 0, 84, 100
2, 194980, Note_on_c, 0, 93, 100
2, 194983, Note_on_c, 0, 84, 0
2, 194998, Note_on_c, 0, 93, 0
2, 195000, Note_on_c, 0, 75, 100
2, 195020, Note_on_c, 0, 75, 0
2, 195020, Note_on_c, 0, 80, 100
2, 195036, Note_on_c, 0, 80, 0
2, 195040, Note_on_c, 0, 81, 100
2, 195060, Note_on_c, 0, 83, 100
2, 195061, Note_on_c, 0, 81, 0
2, 195078, Note_on_c, 0, 83, 0
2, 195080, Note_on_c, 0, 84, 100
2, 195098, Note_on_c, 0, 84, 0
2, 195100, Note_on_c, 0, 93, 100
2, 195116, Note_on_c, 0, 93, 0
2, 195120, Note_on_c, 0, 75, 100
2, 195140, Note_on_c, 0, 75, 0
2, 195140, Note_on_c, 0, 80, 100
2, 195157, Note_on_c, 0, 80, 0
2, 195160, Note_on_c, 0, 81, 100
2, 195180, Note_on_c, 0, 83, 100
2, 195184, Note_on_c, 0, 81, 0
2, 195197, Note_on_c, 0, 83, 0
2, 195200, Note_on_c, 0, 84, 100
2, 195219, Note_on_c, 0, 84, 0
2, 195220, Note_on_c, 0, 93, 100
2, 195239, Note_on_c, 0, 93, 0
2, 195240, Note_on_c, 0, 75, 100
2, 195259, Note_on_c, 0, 75, 0
2, 195260, Note_on_c, 0, 80, 100
2, 195278, Note_on_c, 0, 80, 0
2, 195280, Note_on_c, 0, 81, 100
2, 195300, Note_on_c, 0, 83, 100
2, 195304, Note_on_c, 0, 81, 0
2, 195316, Note_on_c, 0, 83, 0
2, 195320, Note_on_c, 0, 84, 100
2, 195336, Note_on_c, 0, 84, 0
2, 195340, Note_on_c, 0, 93, 100
2, 195351, Note_on_c, 0, 93, 0
2, 195360, Note_on_c, 0, 74, 100
2, 195380, Note_on_c, 0, 74, 0
2, 195380, Note_on_c, 0, 78, 100
2, 195400, Note_on_c, 0, 79, 100
2, 195404, Note_on_c, 0, 78, 0
2, 195420, Note_on_c, 0, 79, 0
2, 195420, Note_on_c, 0, 81, 100
2, 195440, Note_on_c, 0, 81, 0
2, 195440, Note_on_c, 0, 83, 100
2, 195459, Note_on_c, 0, 83, 0
2, 195460, Note_on_c, 0, 91, 100
2, 195475, Note_on_c, 0, 91, 0
2, 195480, Note_on_c, 0, 74, 100
2, 195500, Note_on_c, 0, 78, 100
2, 195502, Note_on_c, 0, 74, 0
2, 195520, Note_on_c, 0, 79, 100
2, 195521, Note_on_c, 0, 78, 0
2, 195540, Note_on_c, 0, 81, 100
2, 195543, Note_on_c, 0, 79, 0
2, 195559, Note_on_c, 0, 81, 0
2, 195560, Note_on_c, 0, 83, 100
2, 195576, Note_on_c, 0, 83, 0
2, 195580, Note_on_c, 0, 91, 100
2, 195594, Note_on_c, 0, 91, 0
2, 195600, Note_on_c, 0, 74, 100
2, 195616, Note_on_c, 0, 74, 0
2, 195620, Note_on_c, 0, 78, 100
2, 195640, Note_on_c, 0, 79, 100
2, 195641, Note_on_c, 0, 78, 0
2, 195660, Note_on_c, 0, 81, 100
2, 195663, Note_on_c, 0, 79, 0
2, 195680, Note_on_c, 0, 83, 100
2, 195681, Note_on_c, 0, 81, 0
2, 195697, Note_on_c, 0, 83, 0
2, 195700, Note_on_c, 0, 91, 100
2, 195718, Note_on_c, 0, 91, 0
2, 195720, Note_on_c, 0, 74, 100
2, 195736, Note_on_c, 0, 74, 0
2, 195740, Note_on_c, 0, 78, 100
2, 195759, Note_on_c, 0, 78, 0
2, 195760, Note_on_c, 0, 79, 100
2, 195780, Note_on_c, 0, 81, 100
2, 195782, Note_on_c, 0, 79, 0
2, 195799, Note_on_c, 0, 81, 0
2, 195800, Note_on_c, 0, 83, 100
2, 195820, Note_on_c, 0, 83, 0
2, 195820, Note_on_c, 0, 91, 100
2, 195831, Note_on_c, 0, 91, 0
2, 195840, Note_on_c, 0, 73, 100
2, 195860, Note_on_c, 0, 78, 100
2, 195863, Note_on_c, 0, 73, 0
2, 195877, Note_on_c, 0, 78, 0
2, 195880, Note_on_c, 0, 79, 100
2, 195897, Note_on_c, 0, 79, 0
2, 195900, Note_on_c, 0, 81, 100
2, 195919, Note_on_c, 0, 81, 0
2, 195920, Note_on_c, 0, 82, 100
2, 195937, Note_on_c, 0, 82, 0
2, 195940, Note_on_c, 0, 91, 100
2, 195956, Note_on_c, 0, 91, 0
2, 195960, Note_on_c, 0, 73, 100
2, 195978, Note_on_c, 0, 73, 0
2, 195980, Note_on_c, 0, 78, 100
2, 196000, Note_on_c, 0, 79, 100
2, 196001, Note_on_c, 0, 78, 0
2, 196019, Note_on_c, 0, 79, 0
2, 196020, Note_on_c, 0, 81, 100
2, 196038, Note_on_c, 0, 81, 0
2, 196040, Note_on_c, 0, 82, 100
2, 196060, Note_on_c, 0, 91, 100
2, 196064, Note_on_c, 0, 82, 0
2, 196072, Note_on_c, 0, 91, 0
2, 196080, Note_on_c, 0, 73, 100
2, 196100, Note_on_c, 0, 78, 100
2, 196103, Note_on_c, 0, 73, 0
2, 196120, Note_on_c, 0, 79, 100
2, 196123, Note_on_c, 0, 78, 0
2, 196140, Note_on_c, 0, 81, 100
2, 196141, Note_on_c, 0, 79, 0
2, 196157, Note_on_c, 0, 81, 0
2, 196160, Note_on_c, 0, 82, 100
2, 196178, Note_on_c, 0, 82, 0
2, 196180, Note_on_c, 0, 91, 100
2, 196195, Note_on_c, 0, 91, 0
2, 196200, Note_on_c, 0, 73, 100
2, 196218, Note_on_c, 0, 73, 0
2, 196220, Note_on_c, 0, 78, 100
2, 196239, Note_on_c, 0, 78, 0
2, 196240, Note_on_c, 0, 79, 100
2, 196257, Note_on_c, 0, 79, 0
2, 196260, Note_on_c, 0, 81, 100
2, 196280, Note_on_c, 0, 82, 100
2, 196283, Note_on_c, 0, 81, 0
2, 196300, Note_on_c, 0, 91, 100
2, 196301, Note_on_c, 0, 82, 0
2, 196318, Note_on_c, 0, 91, 0
2, 196320, Note_on_c, 0, 72, 100
2, 196337, Note_on_c, 0, 72, 0
2, 196340, Note_on_c, 0, 80, 100
2, 196359, Note_on_c, 0, 80, 0
2, 196360, Note_on_c, 0, 81, 100
2, 196380, Note_on_c, 0, 81, 0
2, 196380, Note_on_c, 0, 83, 100
2, 196399, Note_on_c, 0, 83, 0
2, 196400, Note_on_c, 0, 84, 100
2, 196420, Note_on_c, 0, 90, 100
2, 196421, Note_on_c, 0, 84, 0
2, 196439, Note_on_c, 0, 90, 0
2, 196440, Note_on_c, 0, 72, 100
2, 196460, Note_on_c, 0, 72, 0
2, 196460, Note_on_c, 0, 80, 100
2, 196479, Note_on_c, 0, 80, 0
2, 196480, Note_on_c, 0, 81, 100
2, 196500, Note_on_c, 0, 83, 100
2, 196504, Note_on_c, 0, 81, 0
2, 196518, Note_on_c, 0, 83, 0
2, 196520, Note_on_c, 0, 84, 100
2, 196540, Note_on_c, 0, 90, 100
2, 196544, Note_on_c, 0, 84, 0
2, 196556, Note_on_c, 0, 90, 0
2, 196560, Note_on_c, 0, 72, 100
2, 196580, Note_on_c, 0, 80, 100
2, 196582, Note_on_c, 0, 72, 0
2, 196600, Note_on_c, 0, 81, 100
2, 196604, Note_on_c, 0, 80, 0
2, 196620, Note_on_c, 0, 83, 100
2, 196623, Note_on_c, 0, 81, 0
2, 196636, Note_on_c, 0, 83, 0
2, 196640, Note_on_c, 0, 84, 100
2, 196660, Note_on_c, 0, 84, 0
2, 196660, Note_on_c, 0, 90, 100
2, 196675, Note_on_c, 0, 90, 0
2, 196680, Note_on_c, 0, 72, 100
2, 196697, Note_on_c, 0, 72, 0
2, 196700, Note_on_c, 0, 80, 100
2, 196717, Note_on_c, 0, 80, 0
2, 196720, Note_on_c, 0, 81, 100
2, 196738, Note_on_c, 0, 81, 0
2, 196740, Note_on_c, 0, 83, 100
2, 196760, Note_on_c, 0, 84, 100
2, 196764, Note_on_c, 0, 83, 0
2, 196777, Note_on_c, 0, 84, 0
2, 196780, Note_on_c, 0, 90, 100
2, 196798, Note_on_c, 0, 90, 0
2, 196800, Note_on_c, 0, 74, 100
2, 196820, Note_on_c, 0, 81, 100
2, 196822, Note_on_c, 0, 74, 0
2, 196837, Note_on_c, 0, 81, 0
2, 196840, Note_on_c, 0, 83, 100
2, 196860, Note_on_c, 0, 84, 100
2, 196864, Note_on_c, 0, 83, 0
2, 196877, Note_on_c, 0, 84, 0
2, 196880, Note_on_c, 0, 86, 100
2, 196897, Note_on_c, 0, 86, 0
2, 196900, Note_on_c, 0, 91, 100
2, 196919, Note_on_c, 0, 91, 0
2, 196920, Note_on_c, 0, 74, 100
2, 196939, Note_on_c, 0, 74, 0
2, 196940, Note_on_c, 0, 81, 100
2, 196960, Note_on_c, 0, 83, 100
2, 196963, Note_on_c, 0, 81, 0
2, 196980, Note_on_c, 0, 84, 100
2, 196982, Note_on_c, 0, 83, 0
2, 196999, Note_on_c, 0, 84, 0
2, 197000, Note_on_c, 0, 86, 100
2, 197020, Note_on_c, 0, 91, 100
2, 197022, Note_on_c, 0, 86, 0
2, 197036, Note_on_c, 0, 91, 0
2, 197040, Note_on_c, 0, 74, 100
2, 197056, Note_on_c, 0, 74, 0
2, 197060, Note_on_c, 0, 81, 100
2, 197080, Note_on_c, 0, 83, 100
2, 197084, Note_on_c, 0, 81, 0
2, 197100, Note_on_c, 0, 84, 100
2, 197103, Note_on_c, 0, 83, 0
2, 197119, Note_on_c, 0, 84, 0
2, 197120, Note_on_c, 0, 86, 100
2, 197137, Note_on_c, 0, 86, 0
2, 197140, Note_on_c, 0, 91, 100
2, 197157, Note_on_c, 0, 91, 0
2, 197160, Note_on_c, 0, 74, 100
2, 197180, Note_on_c, 0, 81, 100
2, 197183, Note_on_c, 0, 74, 0
2, 197200, Note_on_c, 0, 83, 100
2, 197203, Note_on_c, 0, 81, 0
2, 197216, Note_on_c, 0, 83, 0
2, 197220, Note_on_c, 0, 84, 100
2, 197240, Note_on_c, 0, 86, 100
2, 197242, Note_on_c, 0, 84, 0
2, 197260, Note_on_c, 0, 91, 100
2, 197261, Note_on_c, 0, 86, 0
2, 197272, Note_on_c, 0, 91, 0
2, 197280, Note_on_c, 0, 76, 100
2, 197298, Note_on_c, 0, 76, 0
2, 197300, Note_on_c, 0, 83, 100
2, 197319, Note_on_c, 0, 83, 0
2, 197320, Note_on_c, 0, 85, 100
2, 197340, Note_on_c, 0, 86, 100
2, 197341, Note_on_c, 0, 85, 0
2, 197360, Note_on_c, 0, 88, 100
2, 197362, Note_on_c, 0, 86, 0
2, 197378, Note_on_c, 0, 88, 0
2, 197380, Note_on_c, 0, 91, 100
2, 197398, Note_on_c, 0, 91, 0
2, 197400, Note_on_c, 0, 76, 100
2, 197419, Note_on_c, 0, 76, 0
2, 197420, Note_on_c, 0, 83, 100
2, 197440, Note_on_c, 0, 85, 100
2, 197443, Note_on_c, 0, 83, 0
2, 197460, Note_on_c, 0, 86, 100
2, 197463, Note_on_c, 0, 85, 0
2, 197476, Note_on_c, 0, 86, 0
2, 197480, Note_on_c, 0, 88, 100
2, 197497, Note_on_c, 0, 88, 0
2, 197500, Note_on_c, 0, 91, 100
2, 197516, Note_on_c, 0, 91, 0
2, 197520, Note_on_c, 0, 76, 100
2, 197539, Note_on_c, 0, 76, 0
2, 197540, Note_on_c, 0, 83, 100
2, 197557, Note_on_c, 0, 83, 0
2, 197560, Note_on_c, 0, 85, 100
2, 197578, Note_on_c, 0, 85, 0
2, 197580, Note_on_c, 0, 86, 100
2, 197600, Note_on_c, 0, 88, 100
2, 197603, Note_on_c, 0, 86, 0
2, 197620, Note_on_c, 0, 91, 100
2, 197621, Note_on_c, 0, 88, 0
2, 197632, Note_on_c, 0, 91, 0
2, 197640, Note_on_c, 0, 76, 100
2, 197660, Note_on_c, 0, 83, 100
2, 197664, Note_on_c, 0, 76, 0
2, 197678, Note_on_c, 0, 83, 0
2, 197680, Note_on_c, 0, 85, 100
2, 197700, Note_on_c, 0, 86, 100
2, 197702, Note_on_c, 0, 85, 0
2, 197718, Note_on_c, 0, 86, 0
2, 197720, Note_on_c, 0, 88, 100
2, 197740, Note_on_c, 0, 91, 100
2, 197742, Note_on_c, 0, 88, 0
2, 197754, Note_on_c, 0, 91, 0
2, 197760, Note_on_c, 0, 74, 100
2, 197776, Note_on_c, 0, 74, 0
2, 197780, Note_on_c, 0, 81, 100
2, 197800, Note_on_c, 0, 83, 100
2, 197804, Note_on_c, 0, 81, 0
2, 197820, Note_on_c, 0, 85, 100
2, 197822, Note_on_c, 0, 83, 0
2, 197840, Note_on_c, 0, 86, 100
2, 197843, Note_on_c, 0, 85, 0
2, 197860, Note_on_c, 0, 90, 100
2, 197861, Note_on_c, 0, 86, 0
2, 197872, Note_on_c, 0, 90, 0
2, 197880, Note_on_c, 0, 76, 100
2, 197900, Note_on_c, 0, 81, 100
2, 197904, Note_on_c, 0, 76, 0
2, 197919, Note_on_c, 0, 81, 0
2, 197920, Note_on_c, 0, 83, 100
2, 197937, Note_on_c, 0, 83, 0
2, 197940, Note_on_c, 0, 85, 100
2, 197959, Note_on_c, 0, 85, 0
2, 197960, Note_on_c, 0, 86, 100
2, 197980, Note_on_c, 0, 91, 100
2, 197984, Note_on_c, 0, 86, 0
2, 197992, Note_on_c, 0, 91, 0
2, 198000, Note_on_c, 0, 78, 100
2, 198020, Note_on_c, 0, 81, 100
2, 198024, Note_on_c, 0, 78, 0
2, 198040, Note_on_c, 0, 81, 0
2, 198040, Note_on_c, 0, 83, 100
2, 198056, Note_on_c, 0, 83, 0
2, 198060, Note_on_c, 0, 85, 100
2, 198080, Note_on_c, 0, 86, 100
2, 198081, Note_on_c, 0, 85, 0
2, 198100, Note_on_c, 0, 93, 100
2, 198104, Note_on_c, 0, 86, 0
2, 198111, Note_on_c, 0, 93, 0
2, 198120, Note_on_c, 0, 79, 100
2, 198140, Note_on_c, 0, 81, 100
2, 198144, Note_on_c, 0, 79, 0
2, 198156, Note_on_c, 0, 81, 0
2, 198160, Note_on_c, 0, 83, 100
2, 198176, Note_on_c, 0, 83, 0
2, 198180, Note_on_c, 0, 85, 100
2, 198196, Note_on_c, 0, 85, 0
2, 198200, Note_on_c, 0, 86, 100
2, 198220, Note_on_c, 0, 95, 100
2, 198223, Note_on_c, 0, 86, 0
2, 198237, Note_on_c, 0, 95, 0
2, 198240, Note_on_c, 0, 74, 100
2, 198260, Note_on_c, 0, 81, 100
2, 198262, Note_on_c, 0, 74, 0
2, 198280, Note_on_c, 0, 81, 0
2, 198280, Note_on_c, 0, 83, 100
2, 198300, Note_on_c, 0, 83, 0
2, 198300, Note_on_c, 0, 85, 100
2, 198319, Note_on_c, 0, 85, 0
2, 198320, Note_on_c, 0, 86, 100
2, 198338, Note_on_c, 0, 86, 0
2, 198340, Note_on_c, 0, 90, 100
2, 198357, Note_on_c, 0, 90, 0
2, 198360, Note_on_c, 0, 76, 100
2, 198376, Note_on_c, 0, 76, 0
2, 198380, Note_on_c, 0, 81, 100
2, 198399, Note_on_c, 0, 81, 0
2, 198400, Note_on_c, 0, 83, 100
2, 198416, Note_on_c, 0, 83, 0
2, 198420, Note_on_c, 0, 85, 100
2, 198438, Note_on_c, 0, 85, 0
2, 198440, Note_on_c, 0, 86, 100
2, 198460, Note_on_c, 0, 91, 100
2, 198464, Note_on_c, 0, 86, 0
2, 198473, Note_on_c, 0, 91, 0
2, 198480, Note_on_c, 0, 78, 100
2, 198500, Note_on_c, 0, 81, 100
2, 198503, Note_on_c, 0, 78, 0
2, 198520, Note_on_c, 0, 81, 0
2, 198520, Note_on_c, 0, 83, 100
2, 198540, Note_on_c, 0, 85, 100
2, 198544, Note_on_c, 0, 83, 0
2, 198560, Note_on_c, 0, 85, 0
2, 198560, Note_on_c, 0, 86, 100
2, 198578, Note_on_c, 0, 86, 0
2, 198580, Note_on_c, 0, 93, 100
2, 198597, Note_on_c, 0, 93, 0
2, 198600, Note_on_c, 0, 79, 100
2, 198617, Note_on_c, 0, 79, 0
2, 198620, Note_on_c, 0, 81, 100
2, 198640, Note_on_c, 0, 83, 100
2, 198644, Note_on_c, 0, 81, 0
2, 198660, Note_on_c, 0, 85, 100
2, 198664, Note_on_c, 0, 83, 0
2, 198680, Note_on_c, 0, 85, 0
2, 198680, Note_on_c, 0, 86, 100
2, 198699, Note_on_c, 0, 86, 0
2, 198700, Note_on_c, 0, 95, 100
2, 198713, Note_on_c, 0, 95, 0
2, 198720, Note_on_c, 0, 74, 100
2, 198738, Note_on_c, 0, 74, 0
2, 198740, Note_on_c, 0, 76, 100
2, 198757, Note_on_c, 0, 76, 0
2, 198760, Note_on_c, 0, 78, 100
2, 198780, Note_on_c, 0, 79, 100
2, 198784, Note_on_c, 0, 78, 0
2, 198798, Note_on_c, 0, 79, 0
2, 198800, Note_on_c, 0, 81, 100
2, 198816, Note_on_c, 0, 81, 0
2, 198820, Note_on_c, 0, 86, 100
2, 198835, Note_on_c, 0, 86, 0
2, 198840, Note_on_c, 0, 76, 100
2, 198860, Note_on_c, 0, 78, 100
2, 198861, Note_on_c, 0, 76, 0
2, 198880, Note_on_c, 0, 79, 100
2, 198883, Note_on_c, 0, 78, 0
2, 198900, Note_on_c, 0, 81, 100
2, 198901, Note_on_c, 0, 79, 0
2, 198920, Note_on_c, 0, 83, 100
2, 198921, Note_on_c, 0, 81, 0
2, 198940, Note_on_c, 0, 86, 100
2, 198941, Note_on_c, 0, 83, 0
2, 198958, Note_on_c, 0, 86, 0
2, 198960, Note_on_c, 0, 78, 100
2, 198976, Note_on_c, 0, 78, 0
2, 198980, Note_on_c, 0, 79, 100
2, 198996, Note_on_c, 0, 79, 0
2, 199000, Note_on_c, 0, 81, 100
2, 199020, Note_on_c, 0, 83, 100
2, 199022, Note_on_c, 0, 81, 0
2, 199040, Note_on_c, 0, 84, 100
2, 199043, Note_on_c, 0, 83, 0
2, 199059, Note_on_c, 0, 84, 0
2, 199060, Note_on_c, 0, 86, 100
2, 199078, Note_on_c, 0, 86, 0
2, 199080, Note_on_c, 0, 79, 100
2, 199100, Note_on_c, 0, 81, 100
2, 199103, Note_on_c, 0, 79, 0
2, 199119, Note_on_c, 0, 81, 0
2, 199120, Note_on_c, 0, 83, 100
2, 199140, Note_on_c, 0, 84, 100
2, 199141, Note_on_c, 0, 83, 0
2, 199157, Note_on_c, 0, 84, 0
2, 199160, Note_on_c, 0, 86, 100
2, 199176, Note_on_c, 0, 86, 0
2, 199180, Note_on_c, 0, 88, 100
2, 199192, Note_on_c, 0, 88, 0
2, 199200, Note_on_c, 0, 74, 100
2, 199220, Note_on_c, 0, 76, 100
2, 199224, Note_on_c, 0, 74, 0
2, 199236, Note_on_c, 0, 76, 0
2, 199240, Note_on_c, 0, 78, 100
2, 199258, Note_on_c, 0, 78, 0
2, 199260, Note_on_c, 0, 79, 100
2, 199276, Note_on_c, 0, 79, 0
2, 199280, Note_on_c, 0, 81, 100
2, 199300, Note_on_c, 0, 86, 100
2, 199304, Note_on_c, 0, 81, 0
2, 199312, Note_on_c, 0, 86, 0
2, 199320, Note_on_c, 0, 76, 100
2, 199337, Note_on_c, 0, 76, 0
2, 199340, Note_on_c, 0, 78, 100
2, 199357, Note_on_c, 0, 78, 0
2, 199360, Note_on_c, 0, 79, 100
2, 199380, Note_on_c, 0, 79, 0
2, 199380, Note_on_c, 0, 81, 100
2, 199400, Note_on_c, 0, 83, 100
2, 199403, Note_on_c, 0, 81, 0
2, 199416, Note_on_c, 0, 83, 0
2, 199420, Note_on_c, 0, 86, 100
2, 199436, Note_on_c, 0, 86, 0
2, 199440, Note_on_c, 0, 78, 100
2, 199459, Note_on_c, 0, 78, 0
2, 199460, Note_on_c, 0, 79, 100
2, 199480, Note_on_c, 0, 81, 100
2, 199484, Note_on_c, 0, 79, 0
2, 199500, Note_on_c, 0, 81, 0
2, 199500, Note_on_c, 0, 83, 100
2, 199519, Note_on_c, 0, 83, 0
2, 199520, Note_on_c, 0, 84, 100
2, 199537, Note_on_c, 0, 84, 0
2, 199540, Note_on_c, 0, 86, 100
2, 199557, Note_on_c, 0, 86, 0
2, 199560, Note_on_c, 0, 79, 100
2, 199578, Note_on_c, 0, 79, 0
2, 199580, Note_on_c, 0, 81, 100
2, 199600, Note_on_c, 0, 83, 100
2, 199603, Note_on_c, 0, 81, 0
2, 199620, Note_on_c, 0, 84, 100
2, 199621, Note_on_c, 0, 83, 0
2, 199638, Note_on_c, 0, 84, 0
2, 199640, Note_on_c, 0, 86, 100
2, 199660, Note_on_c, 0, 88, 100
2, 199662, Note_on_c, 0, 86, 0
2, 199673, Note_on_c, 0, 88, 0
2, 199680, Note_on_c, 0, 72, 100
2, 199700, Note_on_c, 0, 72, 0
2, 199700, Note_on_c, 0, 76, 100
2, 199717, Note_on_c, 0, 76, 0
2, 199720, Note_on_c, 0, 78, 100
2, 199740, Note_on_c, 0, 79, 100
2, 199744, Note_on_c, 0, 78, 0
2, 199760, Note_on_c, 0, 79, 0
2, 199760, Note_on_c, 0, 81, 100
2, 199780, Note_on_c, 0, 86, 100
2, 199781, Note_on_c, 0, 81, 0
2, 199794, Note_on_c, 0, 86, 0
2, 199800, Note_on_c, 0, 71, 100
2, 199820, Note_on_c, 0, 78, 100
2, 199824, Note_on_c, 0, 71, 0
2, 199836, Note_on_c, 0, 78, 0
2, 199840, Note_on_c, 0, 79, 100
2, 199857, Note_on_c, 0, 79, 0
2, 199860, Note_on_c, 0, 81, 100
2, 199880, Note_on_c, 0, 83, 100
2, 199882, Note_on_c, 0, 81, 0
2, 199900, Note_on_c, 0, 83, 0
2, 199900, Note_on_c, 0, 86, 100
2, 199914, Note_on_c, 0, 86, 0
2, 199920, Note_on_c, 0, 71, 100
2, 199940, Note_on_c, 0, 74, 100
2, 199942, Note_on_c, 0, 71, 0
2, 199960, Note_on_c, 0, 76, 100
2, 199964, Note_on_c, 0, 74, 0
2, 199979, Note_on_c, 0, 76, 0
2, 199980, Note_on_c, 0, 78, 100
2, 200000, Note_on_c, 0, 79, 100
2, 200002, Note_on_c, 0, 78, 0
2, 200019, Note_on_c, 0, 79, 0
2, 200020, Note_on_c, 0, 84, 100
2, 200039, Note_on_c, 0, 84, 0
2, 200040, Note_on_c, 0, 69, 100
2, 200060, Note_on_c, 0, 69, 0
2, 200060, Note_on_c, 0, 76, 100
2, 200077, Note_on_c, 0, 76, 0
2, 200080, Note_on_c, 0, 78, 100
2, 200100, Note_on_c, 0, 79, 100
2, 200102, Note_on_c, 0, 78, 0
2, 200118, Note_on_c, 0, 79, 0
2, 200120, Note_on_c, 0, 81, 100
2, 200136, Note_on_c, 0, 81, 0
2, 200140, Note_on_c, 0, 84, 100
2, 200157, Note_on_c, 0, 84, 0
2, 200160, Note_on_c, 0, 69, 100
2, 200180, Note_on_c, 0, 72, 100
2, 200182, Note_on_c, 0, 69, 0
2, 200200, Note_on_c, 0, 74, 100
2, 200202, Note_on_c, 0, 72, 0
2, 200220, Note_on_c, 0, 76, 100
2, 200223, Note_on_c, 0, 74, 0
2, 200240, Note_on_c, 0, 78, 100
2, 200241, Note_on_c, 0, 76, 0
2, 200260, Note_on_c, 0, 83, 100
2, 200264, Note_on_c, 0, 78, 0
2, 200276, Note_on_c, 0, 83, 0
2, 200280, Note_on_c, 0, 67, 100
2, 200298, Note_on_c, 0, 67, 0
2, 200300, Note_on_c, 0, 74, 100
2, 200320, Note_on_c, 0, 76, 100
2, 200322, Note_on_c, 0, 74, 0
2, 200338, Note_on_c, 0, 76, 0
2, 200340, Note_on_c, 0, 78, 100
2, 200357, Note_on_c, 0, 78, 0
2, 200360, Note_on_c, 0, 79, 100
2, 200380, Note_on_c, 0, 83, 100
2, 200384, Note_on_c, 0, 79, 0
2, 200399, Note_on_c, 0, 83, 0
2, 200400, Note_on_c, 0, 67, 100
2, 200417, Note_on_c, 0, 67, 0
2, 200420, Note_on_c, 0, 71, 100
2, 200437, Note_on_c, 0, 71, 0
2, 200440, Note_on_c, 0, 73, 100
2, 200458, Note_on_c, 0, 73, 0
2, 200460, Note_on_c, 0, 74, 100
2, 200477, Note_on_c, 0, 74, 0
2, 200480, Note_on_c, 0, 76, 100
2, 200500, Note_on_c, 0, 81, 100
2, 200503, Note_on_c, 0, 76, 0
2, 200516, Note_on_c, 0, 81, 0
2, 200520, Note_on_c, 0, 66, 100
2, 200538, Note_on_c, 0, 66, 0
2, 200540, Note_on_c, 0, 73, 100
2, 200560, Note_on_c, 0, 74, 100
2, 200564, Note_on_c, 0, 73, 0
2, 200580, Note_on_c, 0, 76, 100
2, 200582, Note_on_c, 0, 74, 0
2, 200600, Note_on_c, 0, 78, 100
2, 200601, Note_on_c, 0, 76, 0
2, 200617, Note_on_c, 0, 78, 0
2, 200620, Note_on_c, 0, 81, 100
2, 200632, Note_on_c, 0, 81, 0
2, 200640, Note_on_c, 0, 65, 100
2, 200659, Note_on_c, 0, 65, 0
2, 200660, Note_on_c, 0, 69, 100
2, 200680, Note_on_c, 0, 69, 0
2, 200680, Note_on_c, 0, 71, 100
2, 200700, Note_on_c, 0, 73, 100
2, 200701, Note_on_c, 0, 71, 0
2, 200720, Note_on_c, 0, 74, 100
2, 200724, Note_on_c, 0, 73, 0
2, 200740, Note_on_c, 0, 79, 100
2, 200743, Note_on_c, 0, 74, 0
2, 200756, Note_on_c, 0, 79, 0
2, 200760, Note_on_c, 0, 65, 100
2, 200780, Note_on_c, 0, 69, 100
2, 200783, Note_on_c, 0, 65, 0
2, 200800, Note_on_c, 0, 71, 100
2, 200803, Note_on_c, 0, 69, 0
2, 200820, Note_on_c, 0, 73, 100
2, 200823, Note_on_c, 0, 71, 0
2, 200839, Note_on_c, 0, 73, 0
2, 200840, Note_on_c, 0, 74, 100
2, 200860, Note_on_c, 0, 79, 100
2, 200862, Note_on_c, 0, 74, 0
2, 200873, Note_on_c, 0, 79, 0
2, 200880, Note_on_c, 0, 64, 100
2, 200900, Note_on_c, 0, 71, 100
2, 200902, Note_on_c, 0, 64, 0
2, 200920, Note_on_c, 0, 73, 100
2, 200924, Note_on_c, 0, 71, 0
2, 200940, Note_on_c, 0, 74, 100
2, 200944, Note_on_c, 0, 73, 0
2, 200960, Note_on_c, 0, 76, 100
2, 200963, Note_on_c, 0, 74, 0
2, 200980, Note_on_c, 0, 79, 100
2, 200984, Note_on_c, 0, 76, 0
2, 200991, Note_on_c, 0, 79, 0
2, 201000, Note_on_c, 0, 64, 100
2, 201020, Note_on_c, 0, 71, 100
2, 201023, Note_on_c, 0, 64, 0
2, 201040, Note_on_c, 0, 71, 0
2, 201040, Note_on_c, 0, 73, 100
2, 201060, Note_on_c, 0, 74, 100
2, 201063, Note_on_c, 0, 73, 0
2, 201080, Note_on_c, 0, 76, 100
2, 201083, Note_on_c, 0, 74, 0
2, 201096, Note_on_c, 0, 76, 0
2, 201100, Note_on_c, 0, 79, 100
2, 201118, Note_on_c, 0, 79, 0
2, 201120, Note_on_c, 0, 62, 100
2, 201140, Note_on_c, 0, 73, 100
2, 201144, Note_on_c, 0, 62, 0
2, 201160, Note_on_c, 0, 74, 100
2, 201162, Note_on_c, 0, 73, 0
2, 201180, Note_on_c, 0, 76, 100
2, 201184, Note_on_c, 0, 74, 0
2, 201199, Note_on_c, 0, 76, 0
2, 201200, Note_on_c, 0, 78, 100
2, 201217, Note_on_c, 0, 78, 0
2, 201220, Note_on_c, 0, 79, 100
2, 201239, Note_on_c, 0, 79, 0
2, 201240, Note_on_c, 0, 62, 100
2, 201259, Note_on_c, 0, 62, 0
2, 201260, Note_on_c, 0, 69, 100
2, 201277, Note_on_c, 0, 69, 0
2, 201280, Note_on_c, 0, 71, 100
2, 201296, Note_on_c, 0, 71, 0
2, 201300, Note_on_c, 0, 73, 100
2, 201320, Note_on_c, 0, 73, 0
2, 201320, Note_on_c, 0, 74, 100
2, 201340, Note_on_c, 0, 79, 100
2, 201341, Note_on_c, 0, 74, 0
2, 201353, Note_on_c, 0, 79, 0
2, 201360, Note_on_c, 0, 62, 100
2, 201380, Note_on_c, 0, 62, 0
2, 201380, Note_on_c, 0, 66, 100
2, 201397, Note_on_c, 0, 66, 0
2, 201400, Note_on_c, 0, 67, 100
2, 201420, Note_on_c, 0, 69, 100
2, 201421, Note_on_c, 0, 67, 0
2, 201436, Note_on_c, 0, 69, 0
2, 201440, Note_on_c, 0, 70, 100
2, 201460, Note_on_c, 0, 73, 100
2, 201462, Note_on_c, 0, 70, 0
2, 201479, Note_on_c, 0, 73, 0
2, 201480, Note_on_c, 0, 62, 100
2, 201500, Note_on_c, 0, 62, 0
2, 201500, Note_on_c, 0, 66, 100
2, 201516, Note_on_c, 0, 66, 0
2, 201520, Note_on_c, 0, 67, 100
2, 201540, Note_on_c, 0, 69, 100
2, 201542, Note_on_c, 0, 67, 0
2, 201556, Note_on_c, 0, 69, 0
2, 201560, Note_on_c, 0, 70, 100
2, 201580, Note_on_c, 0, 73, 100
2, 201583, Note_on_c, 0, 70, 0
2, 201591, Note_on_c, 0, 73, 0
2, 201600, Note_on_c, 0, 62, 100
2, 201619, Note_on_c, 0, 62, 0
2, 201620, Note_on_c, 0, 64, 100
2, 201637, Note_on_c, 0, 64, 0
2, 201640, Note_on_c, 0, 66, 100
2, 201660, Note_on_c, 0, 66, 0
2, 201660, Note_on_c, 0, 67, 100
2, 201677, Note_on_c, 0, 67, 0
2, 201680, Note_on_c, 0, 69, 100
2, 201696, Note_on_c, 0, 69, 0
2, 201700, Note_on_c, 0, 74, 100
2, 201713, Note_on_c, 0, 74, 0
2, 201720, Note_on_c, 0, 62, 100
2, 201737, Note_on_c, 0, 62, 0
2, 201740, Note_on_c, 0, 69, 100
2, 201758, Note_on_c, 0, 69, 0
2, 201760, Note_on_c, 0, 71, 100
2, 201780, Note_on_c, 0, 71, 0
2, 201780, Note_on_c, 0, 72, 100
2, 201800, Note_on_c, 0, 74, 100
2, 201801, Note_on_c, 0, 72, 0
2, 201818, Note_on_c, 0, 74, 0
2, 201820, Note_on_c, 0, 79, 100
2, 201832, Note_on_c, 0, 79, 0
2, 201840, Note_on_c, 0, 62, 100
2, 201860, Note_on_c, 0, 67, 100
2, 201861, Note_on_c, 0, 62, 0
2, 201880, Note_on_c, 0, 69, 100
2, 201882, Note_on_c, 0, 67, 0
2, 201900, Note_on_c, 0, 71, 100
2, 201902, Note_on_c, 0, 69, 0
2, 201916, Note_on_c, 0, 71, 0
2, 201920, Note_on_c, 0, 72, 100
2, 201940, Note_on_c, 0, 78, 100
2, 201942, Note_on_c, 0, 72, 0
2, 201958, Note_on_c, 0, 78, 0
2, 201960, Note_on_c, 0, 62, 100
2, 201978, Note_on_c, 0, 62, 0
2, 201980, Note_on_c, 0, 66, 100
2, 202000, Note_on_c, 0, 67, 100
2, 202001, Note_on_c, 0, 66, 0
2, 202018, Note_on_c, 0, 67, 0
2, 202020, Note_on_c, 0, 69, 100
2, 202040, Note_on_c, 0, 71, 100
2, 202042, Note_on_c, 0, 69, 0
2, 202057, Note_on_c, 0, 71, 0
2, 202060, Note_on_c, 0, 76, 100
2, 202071, Note_on_c, 0, 76, 0
2, 202080, Note_on_c, 0, 62, 100
2, 202100, Note_on_c, 0, 64, 100
2, 202102, Note_on_c, 0, 62, 0
2, 202120, Note_on_c, 0, 66, 100
2, 202124, Note_on_c, 0, 64, 0
2, 202136, Note_on_c, 0, 66, 0
2, 202140, Note_on_c, 0, 67, 100
2, 202157, Note_on_c, 0, 67, 0
2, 202160, Note_on_c, 0, 69, 100
2, 202177, Note_on_c, 0, 69, 0
2, 202180, Note_on_c, 0, 74, 100
2, 202191, Note_on_c, 0, 74, 0
2, 202200, Note_on_c, 0, 62, 100
2, 202220, Note_on_c, 0, 69, 100
2, 202224, Note_on_c, 0, 62, 0
2, 202240, Note_on_c, 0, 71, 100
2, 202241, Note_on_c, 0, 69, 0
2, 202259, Note_on_c, 0, 71, 0
2, 202260, Note_on_c, 0, 72, 100
2, 202277, Note_on_c, 0, 72, 0
2, 202280, Note_on_c, 0, 74, 100
2, 202296, Note_on_c, 0, 74, 0
2, 202300, Note_on_c, 0, 79, 100
2, 202318, Note_on_c, 0, 79, 0
2, 202320, Note_on_c, 0, 62, 100
2, 202340, Note_on_c, 0, 67, 100
2, 202343, Note_on_c, 0, 62, 0
2, 202360, Note_on_c, 0, 67, 0
2, 202360, Note_on_c, 0, 69, 100
2, 202377, Note_on_c, 0, 69, 0
2, 202380, Note_on_c, 0, 71, 100
2, 202398, Note_on_c, 0, 71, 0
2, 202400, Note_on_c, 0, 72, 100
2, 202420, Note_on_c, 0, 78, 100
2, 202423, Note_on_c, 0, 72, 0
2, 202436, Note_on_c, 0, 78, 0
2, 202440, Note_on_c, 0, 62, 100
2, 202456, Note_on_c, 0, 62, 0
2, 202460, Note_on_c, 0, 66, 100
2, 202480, Note_on_c, 0, 67, 100
2, 202482, Note_on_c, 0, 66, 0
2, 202496, Note_on_c, 0, 67, 0
2, 202500, Note_on_c, 0, 69, 100
2, 202516, Note_on_c, 0, 69, 0
2, 202520, Note_on_c, 0, 71, 100
2, 202539, Note_on_c, 0, 71, 0
2, 202540, Note_on_c, 0, 76, 100
2, 202552, Note_on_c, 0, 76, 0
2, 202560, Note_on_c, 0, 62, 100
2, 202576, Note_on_c, 0, 62, 0
2, 202580, Note_on_c, 0, 64, 100
2, 202596, Note_on_c, 0, 64, 0
2, 202600, Note_on_c, 0, 66, 100
2, 202618, Note_on_c, 0, 66, 0
2, 202620, Note_on_c, 0, 67, 100
2, 202640, Note_on_c, 0, 69, 100
2, 202642, Note_on_c, 0, 67, 0
2, 202658, Note_on_c, 0, 69, 0
2, 202660, Note_on_c, 0, 74, 100
2, 202678, Note_on_c, 0, 74, 0
2, 202680, Note_on_c, 0, 64, 100
2, 202700, Note_on_c, 0, 66, 100
2, 202701, Note_on_c, 0, 64, 0
2, 202720, Note_on_c, 0, 67, 100
2, 202723, Note_on_c, 0, 66, 0
2, 202740, Note_on_c, 0, 69, 100
2, 202744, Note_on_c, 0, 67, 0
2, 202756, Note_on_c, 0, 69, 0
2, 202760, Note_on_c, 0, 71, 100
2, 202776, Note_on_c, 0, 71, 0
2, 202780, Note_on_c, 0, 74, 100
2, 202791, Note_on_c, 0, 74, 0
2, 202800, Note_on_c, 0, 66, 100
2, 202820, Note_on_c, 0, 67, 100
2, 202822, Note_on_c, 0, 66, 0
2, 202840, Note_on_c, 0, 67, 0
2, 202840, Note_on_c, 0, 69, 100
2, 202856, Note_on_c, 0, 69, 0
2, 202860, Note_on_c, 0, 71, 100
2, 202878, Note_on_c, 0, 71, 0
2, 202880, Note_on_c, 0, 72, 100
2, 202900, Note_on_c, 0, 74, 100
2, 202903, Note_on_c, 0, 72, 0
2, 202912, Note_on_c, 0, 74, 0
2, 202920, Note_on_c, 0, 67, 100
2, 202940, Note_on_c, 0, 69, 100
2, 202943, Note_on_c, 0, 67, 0
2, 202960, Note_on_c, 0, 71, 100
2, 202963, Note_on_c, 0, 69, 0
2, 202980, Note_on_c, 0, 72, 100
2, 202981, Note_on_c, 0, 71, 0
2, 203000, Note_on_c, 0, 74, 100
2, 203001, Note_on_c, 0, 72, 0
2, 203016, Note_on_c, 0, 74, 0
2, 203020, Note_on_c, 0, 76, 100
2, 203035, Note_on_c, 0, 76, 0
2, 203040, Note_on_c, 0, 62, 100
2, 203060, Note_on_c, 0, 64, 100
2, 203062, Note_on_c, 0, 62, 0
2, 203080, Note_on_c, 0, 66, 100
2, 203083, Note_on_c, 0, 64, 0
2, 203099, Note_on_c, 0, 66, 0
2, 203100, Note_on_c, 0, 67, 100
2, 203120, Note_on_c, 0, 67, 0
2, 203120, Note_on_c, 0, 69, 100
2, 203140, Note_on_c, 0, 74, 100
2, 203143, Note_on_c, 0, 69, 0
2, 203151, Note_on_c, 0, 74, 0
2, 203160, Note_on_c, 0, 64, 100
2, 203179, Note_on_c, 0, 64, 0
2, 203180, Note_on_c, 0, 66, 100
2, 203198, Note_on_c, 0, 66, 0
2, 203200, Note_on_c, 0, 67, 100
2, 203220, Note_on_c, 0, 69, 100
2, 203221, Note_on_c, 0, 67, 0
2, 203239, Note_on_c, 0, 69, 0
2, 203240, Note_on_c, 0, 71, 100
2, 203260, Note_on_c, 0, 74, 100
2, 203261, Note_on_c, 0, 71, 0
2, 203273, Note_on_c, 0, 74, 0
2, 203280, Note_on_c, 0, 66, 100
2, 203298, Note_on_c, 0, 66, 0
2, 203300, Note_on_c, 0, 67, 100
2, 203316, Note_on_c, 0, 67, 0
2, 203320, Note_on_c, 0, 69, 100
2, 203338, Note_on_c, 0, 69, 0
2, 203340, Note_on_c, 0, 71, 100
2, 203356, Note_on_c, 0, 71, 0
2, 203360, Note_on_c, 0, 72, 100
2, 203380, Note_on_c, 0, 72, 0
2, 203380, Note_on_c, 0, 74, 100
2, 203395, Note_on_c, 0, 74, 0
2, 203400, Note_on_c, 0, 67, 100
2, 203420, Note_on_c, 0, 69, 100
2, 203423, Note_on_c, 0, 67, 0
2, 203440, Note_on_c, 0, 71, 100
2, 203442, Note_on_c, 0, 69, 0
2, 203460, Note_on_c, 0, 71, 0
2, 203460, Note_on_c, 0, 72, 100
2, 203478, Note_on_c, 0, 72, 0
2, 203480, Note_on_c, 0, 74, 100
2, 203499, Note_on_c, 0, 74, 0
2, 203500, Note_on_c, 0, 76, 100
2, 203514, Note_on_c, 0, 76, 0
2, 203520, Note_on_c, 0, 60, 100
2, 203538, Note_on_c, 0, 60, 0
2, 203540, Note_on_c, 0, 64, 100
2, 203557, Note_on_c, 0, 64, 0
2, 203560, Note_on_c, 0, 66, 100
2, 203580, Note_on_c, 0, 66, 0
2, 203580, Note_on_c, 0, 67, 100
2, 203600, Note_on_c, 0, 69, 100
2, 203603, Note_on_c, 0, 67, 0
2, 203616, Note_on_c, 0, 69, 0
2, 203620, Note_on_c, 0, 74, 100
2, 203634, Note_on_c, 0, 74, 0
2, 203640, Note_on_c, 0, 59, 100
2, 203660, Note_on_c, 0, 59, 0
2, 203660, Note_on_c, 0, 66, 100
2, 203676, Note_on_c, 0, 66, 0
2, 203680, Note_on_c, 0, 67, 100
2, 203700, Note_on_c, 0, 69, 100
2, 203701, Note_on_c, 0, 67, 0
2, 203718, Note_on_c, 0, 69, 0
2, 203720, Note_on_c, 0, 71, 100
2, 203739, Note_on_c, 0, 71, 0
2, 203740, Note_on_c, 0, 74, 100
2, 203755, Note_on_c, 0, 74, 0
2, 203760, Note_on_c, 0, 58, 100
2, 203780, Note_on_c, 0, 66, 100
2, 203784, Note_on_c, 0, 58, 0
2, 203800, Note_on_c, 0, 67, 100
2, 203801, Note_on_c, 0, 66, 0
2, 203817, Note_on_c, 0, 67, 0
2, 203820, Note_on_c, 0, 69, 100
2, 203840, Note_on_c, 0, 70, 100
2, 203843, Note_on_c, 0, 69, 0
2, 203857, Note_on_c, 0, 70, 0
2, 203860, Note_on_c, 0, 76, 100
2, 203873, Note_on_c, 0, 76, 0
2, 203880, Note_on_c, 0, 57, 100
2, 203897, Note_on_c, 0, 57, 0
2, 203900, Note_on_c, 0, 67, 100
2, 203920, Note_on_c, 0, 67, 0
2, 203920, Note_on_c, 0, 69, 100
2, 203938, Note_on_c, 0, 69, 0
2, 203940, Note_on_c, 0, 71, 100
2, 203960, Note_on_c, 0, 72, 100
2, 203961, Note_on_c, 0, 71, 0
2, 203979, Note_on_c, 0, 72, 0
2, 203980, Note_on_c, 0, 78, 100
2, 203998, Note_on_c, 0, 78, 0
2, 204000, Note_on_c, 0, 55, 100
2, 204019, Note_on_c, 0, 55, 0
2, 204020, Note_on_c, 0, 57, 100
2, 204040, Note_on_c, 0, 57, 0
2, 204040, Note_on_c, 0, 59, 100
2, 204059, Note_on_c, 0, 59, 0
2, 204060, Note_on_c, 0, 60, 100
2, 204080, Note_on_c, 0, 62, 100
2, 204083, Note_on_c, 0, 60, 0
2, 204100, Note_on_c, 0, 67, 100
2, 204104, Note_on_c, 0, 62, 0
2, 204112, Note_on_c, 0, 67, 0
2, 204120, Note_on_c, 0, 59, 100
2, 204140, Note_on_c, 0, 59, 0
2, 204140, Note_on_c, 0, 62, 100
2, 204160, Note_on_c, 0, 64, 100
2, 204161, Note_on_c, 0, 62, 0
2, 204178, Note_on_c, 0, 64, 0
2, 204180, Note_on_c, 0, 66, 100
2, 204196, Note_on_c, 0, 66, 0
2, 204200, Note_on_c, 0, 67, 100
2, 204220, Note_on_c, 0, 67, 0
2, 204220, Note_on_c, 0, 71, 100
2, 204232, Note_on_c, 0, 71, 0
2, 204240, Note_on_c, 0, 62, 100
2, 204260, Note_on_c, 0, 62, 0
2, 204260, Note_on_c, 0, 66, 100
2, 204280, Note_on_c, 0, 67, 100
2, 204281, Note_on_c, 0, 66, 0
2, 204298, Note_on_c, 0, 67, 0
2, 204300, Note_on_c, 0, 69, 100
2, 204320, Note_on_c, 0, 71, 100
2, 204324, Note_on_c, 0, 69, 0
2, 204336, Note_on_c, 0, 71, 0
2, 204340, Note_on_c, 0, 74, 100
2, 204359, Note_on_c, 0, 74, 0
2, 204360, Note_on_c, 0, 67, 100
2, 204377, Note_on_c, 0, 67, 0
2, 204380, Note_on_c, 0, 69, 100
2, 204400, Note_on_c, 0, 71, 100
2, 204401, Note_on_c, 0, 69, 0
2, 204418, Note_on_c, 0, 71, 0
2, 204420, Note_on_c, 0, 72, 100
2, 204440, Note_on_c, 0, 74, 100
2, 204441, Note_on_c, 0, 72, 0
2, 204456, Note_on_c, 0, 74, 0
2, 204460, Note_on_c, 0, 79, 100
2, 204473, Note_on_c, 0, 79, 0
2, 204480, Note_on_c, 0, 71, 100
2, 204498, Note_on_c, 0, 71, 0
2, 204500, Note_on_c, 0, 74, 100
2, 204518, Note_on_c, 0, 74, 0
2, 204520, Note_on_c, 0, 76, 100
2, 204537, Note_on_c, 0, 76, 0
2, 204540, Note_on_c, 0, 78, 100
2, 204560, Note_on_c, 0, 79, 100
2, 204563, Note_on_c, 0, 78, 0
2, 204580, Note_on_c, 0, 83, 100
2, 204582, Note_on_c, 0, 79, 0
2, 204594, Note_on_c, 0, 83, 0
2, 204600, Note_on_c, 0, 74, 100
2, 204618, Note_on_c, 0, 74, 0
2, 204620, Note_on_c, 0, 78, 100
2, 204636, Note_on_c, 0, 78, 0
2, 204640, Note_on_c, 0, 79, 100
2, 204660, Note_on_c, 0, 79, 0
2, 204660, Note_on_c, 0, 81, 100
2, 204680, Note_on_c, 0, 83, 100
2, 204682, Note_on_c, 0, 81, 0
2, 204698, Note_on_c, 0, 83, 0
2, 204700, Note_on_c, 0, 86, 100
2, 204715, Note_on_c, 0, 86, 0
2, 204720, Note_on_c, 0, 79, 100
2, 204740, Note_on_c, 0, 81, 100
2, 204744, Note_on_c, 0, 79, 0
2, 204760, Note_on_c, 0, 83, 100
2, 204762, Note_on_c, 0, 81, 0
2, 204777, Note_on_c, 0, 83, 0
2, 204780, Note_on_c, 0, 84, 100
2, 204800, Note_on_c, 0, 84, 0
2, 204800, Note_on_c, 0, 86, 100
2, 204819, Note_on_c, 0, 86, 0
2, 204820, Note_on_c, 0, 91, 100
2, 204833, Note_on_c, 0, 91, 0
2, 204840, Note_on_c, 0, 85, 100
2, 204860, Note_on_c, 0, 86, 100
2, 204861, Note_on_c, 0, 85, 0
2, 204880, Note_on_c, 0, 88, 100
2, 204884, Note_on_c, 0, 86, 0
2, 204900, Note_on_c, 0, 90, 100
2, 204901, Note_on_c, 0, 88, 0
2, 204920, Note_on_c, 0, 91, 100
2, 204921, Note_on_c, 0, 90, 0
2, 204937, Note_on_c, 0, 91, 0
2, 204940, Note_on_c, 0, 94, 100
2, 204958, Note_on_c, 0, 94, 0
2, 204990, Note_on_c, 0, 62, 100
2, 205018, Note_on_c, 0, 62, 0
2, 205020, Note_on_c, 0, 64, 100
2, 205050, Note_on_c, 0, 66, 100
2, 205054, Note_on_c, 0, 64, 0
2, 205079, Note_on_c, 0, 66, 0
2, 205080, Note_on_c, 0, 67, 100
2, 205100, Note_on_c, 0, 67, 0
2, 205110, Note_on_c, 0, 66, 100
2, 205140, Note_on_c, 0, 67, 100
2, 205141, Note_on_c, 0, 66, 0
2, 205168, Note_on_c, 0, 67, 0
2, 205170, Note_on_c, 0, 69, 100
2, 205200, Note_on_c, 0, 71, 100
2, 205204, Note_on_c, 0, 69, 0
2, 205228, Note_on_c, 0, 71, 0
2, 205230, Note_on_c, 0, 67, 100
2, 205258, Note_on_c, 0, 67, 0
2, 205260, Note_on_c, 0, 69, 100
2, 205290, Note_on_c, 0, 69, 0
2, 205290, Note_on_c, 0, 71, 100
2, 205316, Note_on_c, 0, 71, 0
2, 205320, Note_on_c, 0, 72, 100
2, 205350, Note_on_c, 0, 72, 0
2, 205350, Note_on_c, 0, 74, 100
2, 205377, Note_on_c, 0, 74, 0
2, 205380, Note_on_c, 0, 76, 100
2, 205408, Note_on_c, 0, 76, 0
2, 205410, Note_on_c, 0, 78, 100
2, 205428, Note_on_c, 0, 78, 0
2, 205440, Note_on_c, 0, 79, 100
2, 205470, Note_on_c, 0, 74, 100
2, 205473, Note_on_c, 0, 79, 0
2, 205499, Note_on_c, 0, 74, 0
2, 205500, Note_on_c, 0, 76, 100
2, 205526, Note_on_c, 0, 76, 0
2, 205530, Note_on_c, 0, 78, 100
2, 205560, Note_on_c, 0, 79, 100
2, 205564, Note_on_c, 0, 78, 0
2, 205588, Note_on_c, 0, 79, 0
2, 205590, Note_on_c, 0, 78, 100
2, 205616, Note_on_c, 0, 78, 0
2, 205620, Note_on_c, 0, 79, 100
2, 205648, Note_on_c, 0, 79, 0
2, 205650, Note_on_c, 0, 81, 100
2, 205673, Note_on_c, 0, 81, 0
2, 205680, Note_on_c, 0, 83, 100
2, 205710, Note_on_c, 0, 81, 100
2, 205711, Note_on_c, 0, 83, 0
2, 205740, Note_on_c, 0, 83, 100
2, 205744, Note_on_c, 0, 81, 0
2, 205766, Note_on_c, 0, 83, 0
2, 205770, Note_on_c, 0, 84, 100
2, 205800, Note_on_c, 0, 86, 100
2, 205804, Note_on_c, 0, 84, 0
2, 205828, Note_on_c, 0, 86, 0
2, 205830, Note_on_c, 0, 84, 100
2, 205858, Note_on_c, 0, 84, 0
2, 205860, Note_on_c, 0, 86, 100
2, 205889, Note_on_c, 0, 86, 0
2, 205890, Note_on_c, 0, 88, 100
2, 205916, Note_on_c, 0, 88, 0
2, 205920, Note_on_c, 0, 79, 100
2, 205950, Note_on_c, 0, 79, 0
2, 205950, Note_on_c, 0, 78, 100
2, 205980, Note_on_c, 0, 78, 0
2, 205980, Note_on_c, 0, 79, 100
2, 206010, Note_on_c, 0, 79, 0
2, 206010, Note_on_c, 0, 78, 100
2, 206040, Note_on_c, 0, 78, 0
2, 206040, Note_on_c, 0, 79, 100
2, 206070, Note_on_c, 0, 79, 0
2, 206070, Note_on_c, 0, 78, 100
2, 206100, Note_on_c, 0, 78, 0
2, 206100, Note_on_c, 0, 79, 100
2, 206130, Note_on_c, 0, 79, 0
2, 206130, Note_on_c, 0, 78, 100
2, 206160, Note_on_c, 0, 78, 0
2, 206160, Note_on_c, 0, 79, 100
2, 206190, Note_on_c, 0, 79, 0
2, 206190, Note_on_c, 0, 78, 100
2, 206220, Note_on_c, 0, 78, 0
2, 206220, Note_on_c, 0, 79, 100
2, 206250, Note_on_c, 0, 79, 0
2, 206250, Note_on_c, 0, 78, 100
2, 206280, Note_on_c, 0, 78, 0
2, 206280, Note_on_c, 0, 79, 100
2, 206399, Note_on_c, 0, 79, 0
2, 206400, Note_on_c, 0, 79, 100
2, 207345, Note_on_c, 0, 79, 0
2, 207345, End_track
3, 0, Start_track
3, 0, MIDI_port, 0
3, 0, Title_t, "Alto (used to echo in T.Vitement"
3, 0, Program_c, 1, 19
3, 0, Control_c, 1, 7, 100
3, 0, Control_c, 1, 10, 54
3, 1440, Note_on_c, 1, 91, 100
3, 1500, Note_on_c, 1, 91, 0
3, 1500, Note_on_c, 1, 90, 100
3, 1559, Note_on_c, 1, 90, 0
3, 1560, Note_on_c, 1, 91, 100
3, 1620, Note_on_c, 1, 86, 100
3, 1621, Note_on_c, 1, 91, 0
3, 1680, Note_on_c, 1, 83, 100
3, 1683, Note_on_c, 1, 86, 0
3, 1735, Note_on_c, 1, 83, 0
3, 1740, Note_on_c, 1, 86, 100
3, 1794, Note_on_c, 1, 86, 0
3, 1800, Note_on_c, 1, 91, 100
3, 1858, Note_on_c, 1, 91, 0
3, 1860, Note_on_c, 1, 90, 100
3, 1916, Note_on_c, 1, 90, 0
3, 1920, Note_on_c, 1, 91, 100
3, 1979, Note_on_c, 1, 91, 0
3, 1980, Note_on_c, 1, 88, 100
3, 2035, Note_on_c, 1, 88, 0
3, 2040, Note_on_c, 1, 84, 100
3, 2095, Note_on_c, 1, 84, 0
3, 2100, Note_on_c, 1, 88, 100
3, 2148, Note_on_c, 1, 88, 0
3, 2160, Note_on_c, 1, 91, 100
3, 2216, Note_on_c, 1, 91, 0
3, 2220, Note_on_c, 1, 90, 100
3, 2280, Note_on_c, 1, 91, 100
3, 2281, Note_on_c, 1, 90, 0
3, 2340, Note_on_c, 1, 86, 100
3, 2343, Note_on_c, 1, 91, 0
3, 2400, Note_on_c, 1, 83, 100
3, 2401, Note_on_c, 1, 86, 0
3, 2455, Note_on_c, 1, 83, 0
3, 2460, Note_on_c, 1, 86, 100
3, 2511, Note_on_c, 1, 86, 0
3, 2520, Note_on_c, 1, 91, 100
3, 2580, Note_on_c, 1, 91, 0
3, 2580, Note_on_c, 1, 90, 100
3, 2635, Note_on_c, 1, 90, 0
3, 2640, Note_on_c, 1, 91, 100
3, 2700, Note_on_c, 1, 84, 100
3, 2702, Note_on_c, 1, 91, 0
3, 2760, Note_on_c, 1, 81, 100
3, 2761, Note_on_c, 1, 84, 0
3, 2817, Note_on_c, 1, 81, 0
3, 2820, Note_on_c, 1, 84, 100
3, 2868, Note_on_c, 1, 84, 0
3, 4320, Note_on_c, 1, 91, 100
3, 4379, Note_on_c, 1, 91, 0
3, 4380, Note_on_c, 1, 90, 100
3, 4438, Note_on_c, 1, 90, 0
3, 4440, Note_on_c, 1, 91, 100
3, 4496, Note_on_c, 1, 91, 0
3, 4500, Note_on_c, 1, 86, 100
3, 4560, Note_on_c, 1, 83, 100
3, 4563, Note_on_c, 1, 86, 0
3, 4618, Note_on_c, 1, 83, 0
3, 4620, Note_on_c, 1, 86, 100
3, 4671, Note_on_c, 1, 86, 0
3, 4680, Note_on_c, 1, 79, 100
3, 4735, Note_on_c, 1, 79, 0
3, 4740, Note_on_c, 1, 81, 100
3, 4800, Note_on_c, 1, 81, 0
3, 4800, Note_on_c, 1, 83, 100
3, 4859, Note_on_c, 1, 83, 0
3, 4860, Note_on_c, 1, 84, 100
3, 4918, Note_on_c, 1, 84, 0
3, 4920, Note_on_c, 1, 86, 100
3, 4979, Note_on_c, 1, 86, 0
3, 4980, Note_on_c, 1, 88, 100
3, 5033, Note_on_c, 1, 88, 0
3, 5040, Note_on_c, 1, 90, 100
3, 5096, Note_on_c, 1, 90, 0
3, 5100, Note_on_c, 1, 88, 100
3, 5160, Note_on_c, 1, 90, 100
3, 5163, Note_on_c, 1, 88, 0
3, 5216, Note_on_c, 1, 90, 0
3, 5220, Note_on_c, 1, 84, 100
3, 5280, Note_on_c, 1, 81, 100
3, 5281, Note_on_c, 1, 84, 0
3, 5340, Note_on_c, 1, 84, 100
3, 5343, Note_on_c, 1, 81, 0
3, 5396, Note_on_c, 1, 84, 0
3, 5400, Note_on_c, 1, 79, 100
3, 5456, Note_on_c, 1, 79, 0
3, 5460, Note_on_c, 1, 81, 100
3, 5519, Note_on_c, 1, 81, 0
3, 5520, Note_on_c, 1, 83, 100
3, 5580, Note_on_c, 1, 84, 100
3, 5582, Note_on_c, 1, 83, 0
3, 5639, Note_on_c, 1, 84, 0
3, 5640, Note_on_c, 1, 86, 100
3, 5700, Note_on_c, 1, 88, 100
3, 5702, Note_on_c, 1, 86, 0
3, 5723, Note_on_c, 1, 88, 0
3, 5730, Note_on_c, 1, 90, 100
3, 5756, Note_on_c, 1, 90, 0
3, 7200, Note_on_c, 1, 91, 100
3, 7260, Note_on_c, 1, 91, 0
3, 7260, Note_on_c, 1, 90, 100
3, 7320, Note_on_c, 1, 91, 100
3, 7323, Note_on_c, 1, 90, 0
3, 7380, Note_on_c, 1, 86, 100
3, 7381, Note_on_c, 1, 91, 0
3, 7440, Note_on_c, 1, 83, 100
3, 7443, Note_on_c, 1, 86, 0
3, 7498, Note_on_c, 1, 83, 0
3, 7500, Note_on_c, 1, 86, 100
3, 7552, Note_on_c, 1, 86, 0
3, 7560, Note_on_c, 1, 91, 100
3, 7620, Note_on_c, 1, 91, 0
3, 7620, Note_on_c, 1, 90, 100
3, 7679, Note_on_c, 1, 90, 0
3, 7680, Note_on_c, 1, 91, 100
3, 7740, Note_on_c, 1, 91, 0
3, 7740, Note_on_c, 1, 88, 100
3, 7800, Note_on_c, 1, 84, 100
3, 7802, Note_on_c, 1, 88, 0
3, 7856, Note_on_c, 1, 84, 0
3, 7860, Note_on_c, 1, 88, 100
3, 7916, Note_on_c, 1, 88, 0
3, 7920, Note_on_c, 1, 91, 100
3, 7976, Note_on_c, 1, 91, 0
3, 7980, Note_on_c, 1, 90, 100
3, 8040, Note_on_c, 1, 91, 100
3, 8042, Note_on_c, 1, 90, 0
3, 8096, Note_on_c, 1, 91, 0
3, 8100, Note_on_c, 1, 86, 100
3, 8156, Note_on_c, 1, 86, 0
3, 8160, Note_on_c, 1, 83, 100
3, 8217, Note_on_c, 1, 83, 0
3, 8220, Note_on_c, 1, 86, 100
3, 8269, Note_on_c, 1, 86, 0
3, 8280, Note_on_c, 1, 91, 100
3, 8335, Note_on_c, 1, 91, 0
3, 8340, Note_on_c, 1, 90, 100
3, 8400, Note_on_c, 1, 90, 0
3, 8400, Note_on_c, 1, 91, 100
3, 8460, Note_on_c, 1, 84, 100
3, 8461, Note_on_c, 1, 91, 0
3, 8519, Note_on_c, 1, 84, 0
3, 8520, Note_on_c, 1, 81, 100
3, 8580, Note_on_c, 1, 84, 100
3, 8583, Note_on_c, 1, 81, 0
3, 8631, Note_on_c, 1, 84, 0
3, 10080, Note_on_c, 1, 91, 100
3, 10140, Note_on_c, 1, 91, 0
3, 10140, Note_on_c, 1, 89, 100
3, 10197, Note_on_c, 1, 89, 0
3, 10200, Note_on_c, 1, 91, 100
3, 10256, Note_on_c, 1, 91, 0
3, 10260, Note_on_c, 1, 88, 100
3, 10320, Note_on_c, 1, 84, 100
3, 10322, Note_on_c, 1, 88, 0
3, 10380, Note_on_c, 1, 84, 0
3, 10380, Note_on_c, 1, 88, 100
3, 10431, Note_on_c, 1, 88, 0
3, 10440, Note_on_c, 1, 79, 100
3, 10495, Note_on_c, 1, 79, 0
3, 10500, Note_on_c, 1, 81, 100
3, 10557, Note_on_c, 1, 81, 0
3, 10560, Note_on_c, 1, 83, 100
3, 10615, Note_on_c, 1, 83, 0
3, 10620, Note_on_c, 1, 84, 100
3, 10678, Note_on_c, 1, 84, 0
3, 10680, Note_on_c, 1, 86, 100
3, 10737, Note_on_c, 1, 86, 0
3, 10740, Note_on_c, 1, 88, 100
3, 10793, Note_on_c, 1, 88, 0
3, 10800, Note_on_c, 1, 89, 100
3, 10858, Note_on_c, 1, 89, 0
3, 10860, Note_on_c, 1, 88, 100
3, 10920, Note_on_c, 1, 89, 100
3, 10922, Note_on_c, 1, 88, 0
3, 10980, Note_on_c, 1, 86, 100
3, 10982, Note_on_c, 1, 89, 0
3, 11039, Note_on_c, 1, 86, 0
3, 11040, Note_on_c, 1, 83, 100
3, 11100, Note_on_c, 1, 86, 100
3, 11103, Note_on_c, 1, 83, 0
3, 11153, Note_on_c, 1, 86, 0
3, 11160, Note_on_c, 1, 79, 100
3, 11218, Note_on_c, 1, 79, 0
3, 11220, Note_on_c, 1, 81, 100
3, 11280, Note_on_c, 1, 83, 100
3, 11283, Note_on_c, 1, 81, 0
3, 11337, Note_on_c, 1, 83, 0
3, 11340, Note_on_c, 1, 84, 100
3, 11400, Note_on_c, 1, 84, 0
3, 11400, Note_on_c, 1, 86, 100
3, 11460, Note_on_c, 1, 88, 100
3, 11463, Note_on_c, 1, 86, 0
3, 11487, Note_on_c, 1, 88, 0
3, 11490, Note_on_c, 1, 89, 100
3, 11516, Note_on_c, 1, 89, 0
3, 12960, Note_on_c, 1, 88, 100
3, 13019, Note_on_c, 1, 88, 0
3, 13020, Note_on_c, 1, 86, 100
3, 13080, Note_on_c, 1, 88, 100
3, 13083, Note_on_c, 1, 86, 0
3, 13136, Note_on_c, 1, 88, 0
3, 13140, Note_on_c, 1, 84, 100
3, 13200, Note_on_c, 1, 83, 100
3, 13202, Note_on_c, 1, 84, 0
3, 13258, Note_on_c, 1, 83, 0
3, 13260, Note_on_c, 1, 84, 100
3, 13316, Note_on_c, 1, 84, 0
3, 13320, Note_on_c, 1, 79, 100
3, 13380, Note_on_c, 1, 81, 100
3, 13381, Note_on_c, 1, 79, 0
3, 13439, Note_on_c, 1, 81, 0
3, 13440, Note_on_c, 1, 83, 100
3, 13500, Note_on_c, 1, 84, 100
3, 13503, Note_on_c, 1, 83, 0
3, 13560, Note_on_c, 1, 86, 100
3, 13562, Note_on_c, 1, 84, 0
3, 13620, Note_on_c, 1, 88, 100
3, 13623, Note_on_c, 1, 86, 0
3, 13674, Note_on_c, 1, 88, 0
3, 13680, Note_on_c, 1, 86, 100
3, 13740, Note_on_c, 1, 84, 100
3, 13743, Note_on_c, 1, 86, 0
3, 13800, Note_on_c, 1, 84, 0
3, 13800, Note_on_c, 1, 86, 100
3, 13859, Note_on_c, 1, 86, 0
3, 13860, Note_on_c, 1, 83, 100
3, 13920, Note_on_c, 1, 81, 100
3, 13921, Note_on_c, 1, 83, 0
3, 13976, Note_on_c, 1, 81, 0
3, 13980, Note_on_c, 1, 83, 100
3, 14028, Note_on_c, 1, 83, 0
3, 14040, Note_on_c, 1, 79, 100
3, 14097, Note_on_c, 1, 79, 0
3, 14100, Note_on_c, 1, 81, 100
3, 14159, Note_on_c, 1, 81, 0
3, 14160, Note_on_c, 1, 83, 100
3, 14217, Note_on_c, 1, 83, 0
3, 14220, Note_on_c, 1, 84, 100
3, 14280, Note_on_c, 1, 86, 100
3, 14282, Note_on_c, 1, 84, 0
3, 14340, Note_on_c, 1, 83, 100
3, 14343, Note_on_c, 1, 86, 0
3, 14394, Note_on_c, 1, 83, 0
3, 15840, Note_on_c, 1, 84, 100
3, 15897, Note_on_c, 1, 84, 0
3, 15900, Note_on_c, 1, 83, 100
3, 15955, Note_on_c, 1, 83, 0
3, 15960, Note_on_c, 1, 84, 100
3, 16016, Note_on_c, 1, 84, 0
3, 16020, Note_on_c, 1, 81, 100
3, 16080, Note_on_c, 1, 78, 100
3, 16083, Note_on_c, 1, 81, 0
3, 16140, Note_on_c, 1, 78, 0
3, 16140, Note_on_c, 1, 81, 100
3, 16194, Note_on_c, 1, 81, 0
3, 16200, Note_on_c, 1, 74, 100
3, 16260, Note_on_c, 1, 76, 100
3, 16263, Note_on_c, 1, 74, 0
3, 16317, Note_on_c, 1, 76, 0
3, 16320, Note_on_c, 1, 78, 100
3, 16380, Note_on_c, 1, 79, 100
3, 16381, Note_on_c, 1, 78, 0
3, 16440, Note_on_c, 1, 79, 0
3, 16440, Note_on_c, 1, 81, 100
3, 16500, Note_on_c, 1, 83, 100
3, 16502, Note_on_c, 1, 81, 0
3, 16524, Note_on_c, 1, 83, 0
3, 16530, Note_on_c, 1, 84, 100
3, 16553, Note_on_c, 1, 84, 0
3, 16560, Note_on_c, 1, 83, 100
3, 16617, Note_on_c, 1, 83, 0
3, 16620, Note_on_c, 1, 81, 100
3, 16676, Note_on_c, 1, 81, 0
3, 16680, Note_on_c, 1, 83, 100
3, 16738, Note_on_c, 1, 83, 0
3, 16740, Note_on_c, 1, 79, 100
3, 16795, Note_on_c, 1, 79, 0
3, 16800, Note_on_c, 1, 78, 100
3, 16856, Note_on_c, 1, 78, 0
3, 16860, Note_on_c, 1, 79, 100
3, 16910, Note_on_c, 1, 79, 0
3, 16920, Note_on_c, 1, 74, 100
3, 16978, Note_on_c, 1, 74, 0
3, 16980, Note_on_c, 1, 76, 100
3, 17036, Note_on_c, 1, 76, 0
3, 17040, Note_on_c, 1, 78, 100
3, 17095, Note_on_c, 1, 78, 0
3, 17100, Note_on_c, 1, 79, 100
3, 17159, Note_on_c, 1, 79, 0
3, 17160, Note_on_c, 1, 81, 100
3, 17220, Note_on_c, 1, 83, 100
3, 17221, Note_on_c, 1, 81, 0
3, 17270, Note_on_c, 1, 83, 0
3, 18720, Note_on_c, 1, 81, 100
3, 18776, Note_on_c, 1, 81, 0
3, 18780, Note_on_c, 1, 79, 100
3, 18840, Note_on_c, 1, 81, 100
3, 18841, Note_on_c, 1, 79, 0
3, 18899, Note_on_c, 1, 81, 0
3, 18900, Note_on_c, 1, 78, 100
3, 18960, Note_on_c, 1, 72, 100
3, 18961, Note_on_c, 1, 78, 0
3, 19016, Note_on_c, 1, 72, 0
3, 19020, Note_on_c, 1, 78, 100
3, 19072, Note_on_c, 1, 78, 0
3, 19080, Note_on_c, 1, 69, 100
3, 19138, Note_on_c, 1, 69, 0
3, 19140, Note_on_c, 1, 71, 100
3, 19200, Note_on_c, 1, 72, 100
3, 19202, Note_on_c, 1, 71, 0
3, 19256, Note_on_c, 1, 72, 0
3, 19260, Note_on_c, 1, 74, 100
3, 19316, Note_on_c, 1, 74, 0
3, 19320, Note_on_c, 1, 76, 100
3, 19377, Note_on_c, 1, 76, 0
3, 19380, Note_on_c, 1, 78, 100
3, 19431, Note_on_c, 1, 78, 0
3, 19440, Note_on_c, 1, 79, 100
3, 19498, Note_on_c, 1, 79, 0
3, 19500, Note_on_c, 1, 78, 100
3, 19560, Note_on_c, 1, 79, 100
3, 19561, Note_on_c, 1, 78, 0
3, 19620, Note_on_c, 1, 74, 100
3, 19622, Note_on_c, 1, 79, 0
3, 19675, Note_on_c, 1, 74, 0
3, 19680, Note_on_c, 1, 72, 100
3, 19735, Note_on_c, 1, 72, 0
3, 19740, Note_on_c, 1, 74, 100
3, 19793, Note_on_c, 1, 74, 0
3, 19800, Note_on_c, 1, 71, 100
3, 19858, Note_on_c, 1, 71, 0
3, 19860, Note_on_c, 1, 72, 100
3, 19918, Note_on_c, 1, 72, 0
3, 19920, Note_on_c, 1, 74, 100
3, 19977, Note_on_c, 1, 74, 0
3, 19980, Note_on_c, 1, 76, 100
3, 20040, Note_on_c, 1, 78, 100
3, 20042, Note_on_c, 1, 76, 0
3, 20100, Note_on_c, 1, 78, 0
3, 20100, Note_on_c, 1, 79, 100
3, 20156, Note_on_c, 1, 79, 0
3, 21600, Note_on_c, 1, 78, 100
3, 21659, Note_on_c, 1, 78, 0
3, 21660, Note_on_c, 1, 76, 100
3, 21720, Note_on_c, 1, 78, 100
3, 21721, Note_on_c, 1, 76, 0
3, 21778, Note_on_c, 1, 78, 0
3, 21780, Note_on_c, 1, 72, 100
3, 21840, Note_on_c, 1, 69, 100
3, 21842, Note_on_c, 1, 72, 0
3, 21900, Note_on_c, 1, 72, 100
3, 21902, Note_on_c, 1, 69, 0
3, 21955, Note_on_c, 1, 72, 0
3, 21960, Note_on_c, 1, 67, 100
3, 22020, Note_on_c, 1, 69, 100
3, 22022, Note_on_c, 1, 67, 0
3, 22080, Note_on_c, 1, 71, 100
3, 22082, Note_on_c, 1, 69, 0
3, 22140, Note_on_c, 1, 72, 100
3, 22143, Note_on_c, 1, 71, 0
3, 22200, Note_on_c, 1, 74, 100
3, 22202, Note_on_c, 1, 72, 0
3, 22257, Note_on_c, 1, 74, 0
3, 22260, Note_on_c, 1, 76, 100
3, 22289, Note_on_c, 1, 76, 0
3, 22290, Note_on_c, 1, 78, 100
3, 22317, Note_on_c, 1, 78, 0
3, 22320, Note_on_c, 1, 79, 100
3, 22377, Note_on_c, 1, 79, 0
3, 22380, Note_on_c, 1, 78, 100
3, 22438, Note_on_c, 1, 78, 0
3, 22440, Note_on_c, 1, 79, 100
3, 22500, Note_on_c, 1, 74, 100
3, 22501, Note_on_c, 1, 79, 0
3, 22559, Note_on_c, 1, 74, 0
3, 22560, Note_on_c, 1, 71, 100
3, 22618, Note_on_c, 1, 71, 0
3, 22620, Note_on_c, 1, 74, 100
3, 22671, Note_on_c, 1, 74, 0
3, 22680, Note_on_c, 1, 67, 100
3, 22740, Note_on_c, 1, 67, 0
3, 22740, Note_on_c, 1, 69, 100
3, 22796, Note_on_c, 1, 69, 0
3, 22800, Note_on_c, 1, 71, 100
3, 22858, Note_on_c, 1, 71, 0
3, 22860, Note_on_c, 1, 72, 100
3, 22920, Note_on_c, 1, 74, 100
3, 22922, Note_on_c, 1, 72, 0
3, 22980, Note_on_c, 1, 76, 100
3, 22982, Note_on_c, 1, 74, 0
3, 23005, Note_on_c, 1, 76, 0
3, 23010, Note_on_c, 1, 77, 100
3, 23039, Note_on_c, 1, 77, 0
3, 24480, Note_on_c, 1, 79, 100
3, 24536, Note_on_c, 1, 79, 0
3, 24540, Note_on_c, 1, 77, 100
3, 24600, Note_on_c, 1, 79, 100
3, 24602, Note_on_c, 1, 77, 0
3, 24655, Note_on_c, 1, 79, 0
3, 24660, Note_on_c, 1, 76, 100
3, 24719, Note_on_c, 1, 76, 0
3, 24720, Note_on_c, 1, 67, 100
3, 24780, Note_on_c, 1, 76, 100
3, 24783, Note_on_c, 1, 67, 0
3, 24828, Note_on_c, 1, 76, 0
3, 24840, Note_on_c, 1, 77, 100
3, 24899, Note_on_c, 1, 77, 0
3, 24900, Note_on_c, 1, 76, 100
3, 24960, Note_on_c, 1, 77, 100
3, 24962, Note_on_c, 1, 76, 0
3, 25018, Note_on_c, 1, 77, 0
3, 25020, Note_on_c, 1, 74, 100
3, 25078, Note_on_c, 1, 74, 0
3, 25080, Note_on_c, 1, 67, 100
3, 25136, Note_on_c, 1, 67, 0
3, 25140, Note_on_c, 1, 74, 100
3, 25188, Note_on_c, 1, 74, 0
3, 25200, Note_on_c, 1, 76, 100
3, 25260, Note_on_c, 1, 74, 100
3, 25261, Note_on_c, 1, 76, 0
3, 25320, Note_on_c, 1, 76, 100
3, 25321, Note_on_c, 1, 74, 0
3, 25375, Note_on_c, 1, 76, 0
3, 25380, Note_on_c, 1, 72, 100
3, 25440, Note_on_c, 1, 72, 0
3, 25440, Note_on_c, 1, 67, 100
3, 25499, Note_on_c, 1, 67, 0
3, 25500, Note_on_c, 1, 72, 100
3, 25552, Note_on_c, 1, 72, 0
3, 25560, Note_on_c, 1, 74, 100
3, 25616, Note_on_c, 1, 74, 0
3, 25620, Note_on_c, 1, 72, 100
3, 25675, Note_on_c, 1, 72, 0
3, 25680, Note_on_c, 1, 74, 100
3, 25740, Note_on_c, 1, 71, 100
3, 25741, Note_on_c, 1, 74, 0
3, 25800, Note_on_c, 1, 67, 100
3, 25802, Note_on_c, 1, 71, 0
3, 25860, Note_on_c, 1, 71, 100
3, 25861, Note_on_c, 1, 67, 0
3, 25908, Note_on_c, 1, 71, 0
3, 26280, Note_on_c, 1, 72, 100
3, 26340, Note_on_c, 1, 71, 100
3, 26341, Note_on_c, 1, 72, 0
3, 26400, Note_on_c, 1, 72, 100
3, 26403, Note_on_c, 1, 71, 0
3, 26459, Note_on_c, 1, 72, 0
3, 26460, Note_on_c, 1, 69, 100
3, 26520, Note_on_c, 1, 67, 100
3, 26521, Note_on_c, 1, 69, 0
3, 26576, Note_on_c, 1, 67, 0
3, 26580, Note_on_c, 1, 69, 100
3, 26629, Note_on_c, 1, 69, 0
3, 27000, Note_on_c, 1, 72, 100
3, 27056, Note_on_c, 1, 72, 0
3, 27060, Note_on_c, 1, 71, 100
3, 27120, Note_on_c, 1, 71, 0
3, 27120, Note_on_c, 1, 72, 100
3, 27180, Note_on_c, 1, 69, 100
3, 27181, Note_on_c, 1, 72, 0
3, 27238, Note_on_c, 1, 69, 0
3, 27240, Note_on_c, 1, 66, 100
3, 27300, Note_on_c, 1, 69, 100
3, 27302, Note_on_c, 1, 66, 0
3, 27353, Note_on_c, 1, 69, 0
3, 40800, Note_on_c, 1, 86, 100
3, 41274, Note_on_c, 1, 86, 0
3, 41280, Note_on_c, 1, 84, 100
3, 42415, Note_on_c, 1, 84, 0
3, 42480, Note_on_c, 1, 84, 100
3, 42716, Note_on_c, 1, 84, 0
3, 42720, Note_on_c, 1, 83, 100
3, 43375, Note_on_c, 1, 83, 0
3, 43440, Note_on_c, 1, 83, 100
3, 43671, Note_on_c, 1, 83, 0
3, 43680, Note_on_c, 1, 81, 100
3, 43918, Note_on_c, 1, 81, 0
3, 43920, Note_on_c, 1, 79, 100
3, 44158, Note_on_c, 1, 79, 0
3, 44160, Note_on_c, 1, 78, 100
3, 44626, Note_on_c, 1, 78, 0
3, 44640, Note_on_c, 1, 79, 100
3, 45299, Note_on_c, 1, 79, 0
3, 45360, Note_on_c, 1, 79, 100
3, 45595, Note_on_c, 1, 79, 0
3, 45600, Note_on_c, 1, 78, 100
3, 46251, Note_on_c, 1, 78, 0
3, 46320, Note_on_c, 1, 78, 100
3, 46554, Note_on_c, 1, 78, 0
3, 46560, Note_on_c, 1, 76, 100
3, 47027, Note_on_c, 1, 76, 0
3, 47040, Note_on_c, 1, 74, 100
3, 47980, Note_on_c, 1, 74, 0
3, 48000, Note_on_c, 1, 76, 100
3, 48469, Note_on_c, 1, 76, 0
3, 48480, Note_on_c, 1, 81, 100
3, 49133, Note_on_c, 1, 81, 0
3, 49200, Note_on_c, 1, 81, 100
3, 49432, Note_on_c, 1, 81, 0
3, 49440, Note_on_c, 1, 79, 100
3, 49674, Note_on_c, 1, 79, 0
3, 49680, Note_on_c, 1, 78, 100
3, 49914, Note_on_c, 1, 78, 0
3, 49920, Note_on_c, 1, 76, 100
3, 50390, Note_on_c, 1, 76, 0
3, 50400, Note_on_c, 1, 81, 100
3, 51405, Note_on_c, 1, 81, 0
3, 51600, Note_on_c, 1, 79, 100
3, 51838, Note_on_c, 1, 79, 0
3, 51840, Note_on_c, 1, 78, 100
3, 52308, Note_on_c, 1, 78, 0
3, 52320, Note_on_c, 1, 83, 100
3, 52975, Note_on_c, 1, 83, 0
3, 53040, Note_on_c, 1, 83, 100
3, 53277, Note_on_c, 1, 83, 0
3, 53280, Note_on_c, 1, 81, 100
3, 53519, Note_on_c, 1, 81, 0
3, 53520, Note_on_c, 1, 79, 100
3, 53751, Note_on_c, 1, 79, 0
3, 53760, Note_on_c, 1, 78, 100
3, 54469, Note_on_c, 1, 78, 0
3, 54480, Note_on_c, 1, 76, 100
3, 54716, Note_on_c, 1, 76, 0
3, 54720, Note_on_c, 1, 74, 100
3, 55082, Note_on_c, 1, 74, 0
3, 55200, Note_on_c, 1, 76, 100
3, 55851, Note_on_c, 1, 76, 0
3, 55920, Note_on_c, 1, 76, 100
3, 56159, Note_on_c, 1, 76, 0
3, 56160, Note_on_c, 1, 74, 100
3, 57109, Note_on_c, 1, 74, 0
3, 57360, Note_on_c, 1, 74, 100
3, 57599, Note_on_c, 1, 74, 0
3, 57600, Note_on_c, 1, 79, 100
3, 58067, Note_on_c, 1, 79, 0
3, 58080, Note_on_c, 1, 78, 100
3, 58318, Note_on_c, 1, 78, 0
3, 58320, Note_on_c, 1, 81, 100
3, 58793, Note_on_c, 1, 81, 0
3, 58800, Note_on_c, 1, 83, 100
3, 59038, Note_on_c, 1, 83, 0
3, 59040, Note_on_c, 1, 81, 100
3, 59275, Note_on_c, 1, 81, 0
3, 59280, Note_on_c, 1, 79, 100
3, 59754, Note_on_c, 1, 79, 0
3, 59760, Note_on_c, 1, 78, 100
3, 59993, Note_on_c, 1, 78, 0
3, 60000, Note_on_c, 1, 86, 100
3, 60652, Note_on_c, 1, 86, 0
3, 60720, Note_on_c, 1, 86, 100
3, 60952, Note_on_c, 1, 86, 0
3, 60960, Note_on_c, 1, 85, 100
3, 61194, Note_on_c, 1, 85, 0
3, 61200, Note_on_c, 1, 83, 100
3, 61439, Note_on_c, 1, 83, 0
3, 61440, Note_on_c, 1, 82, 100
3, 62385, Note_on_c, 1, 82, 0
3, 62640, Note_on_c, 1, 81, 100
3, 62877, Note_on_c, 1, 81, 0
3, 62880, Note_on_c, 1, 79, 100
3, 63348, Note_on_c, 1, 79, 0
3, 63360, Note_on_c, 1, 78, 100
3, 64304, Note_on_c, 1, 78, 0
3, 64320, Note_on_c, 1, 80, 100
3, 64787, Note_on_c, 1, 80, 0
3, 64800, Note_on_c, 1, 82, 100
3, 65036, Note_on_c, 1, 82, 0
3, 65040, Note_on_c, 1, 83, 100
3, 65271, Note_on_c, 1, 83, 0
3, 65280, Note_on_c, 1, 85, 100
3, 65753, Note_on_c, 1, 85, 0
3, 65760, Note_on_c, 1, 83, 100
3, 65995, Note_on_c, 1, 83, 0
3, 66000, Note_on_c, 1, 81, 100
3, 66236, Note_on_c, 1, 81, 0
3, 66240, Note_on_c, 1, 79, 100
3, 68339, Note_on_c, 1, 79, 0
3, 68400, Note_on_c, 1, 79, 100
3, 68635, Note_on_c, 1, 79, 0
3, 68640, Note_on_c, 1, 78, 100
3, 68879, Note_on_c, 1, 78, 0
3, 68880, Note_on_c, 1, 76, 100
3, 69352, Note_on_c, 1, 76, 0
3, 69360, Note_on_c, 1, 74, 100
3, 69591, Note_on_c, 1, 74, 0
3, 69600, Note_on_c, 1, 83, 100
3, 70259, Note_on_c, 1, 83, 0
3, 70320, Note_on_c, 1, 83, 100
3, 70555, Note_on_c, 1, 83, 0
3, 70560, Note_on_c, 1, 81, 100
3, 70795, Note_on_c, 1, 81, 0
3, 70800, Note_on_c, 1, 79, 100
3, 71035, Note_on_c, 1, 79, 0
3, 71040, Note_on_c, 1, 78, 100
3, 71983, Note_on_c, 1, 78, 0
3, 72000, Note_on_c, 1, 76, 100
3, 72467, Note_on_c, 1, 76, 0
3, 72480, Note_on_c, 1, 78, 100
3, 72715, Note_on_c, 1, 78, 0
3, 72720, Note_on_c, 1, 79, 100
3, 72953, Note_on_c, 1, 79, 0
3, 72960, Note_on_c, 1, 81, 100
3, 74097, Note_on_c, 1, 81, 0
3, 74160, Note_on_c, 1, 81, 100
3, 74397, Note_on_c, 1, 81, 0
3, 74400, Note_on_c, 1, 79, 100
3, 74637, Note_on_c, 1, 79, 0
3, 74640, Note_on_c, 1, 78, 100
3, 74876, Note_on_c, 1, 78, 0
3, 74880, Note_on_c, 1, 76, 100
3, 75927, Note_on_c, 1, 76, 0
3, 75960, Note_on_c, 1, 76, 100
3, 76075, Note_on_c, 1, 76, 0
3, 76080, Note_on_c, 1, 74, 100
3, 76319, Note_on_c, 1, 74, 0
3, 76320, Note_on_c, 1, 76, 100
3, 76553, Note_on_c, 1, 76, 0
3, 76560, Note_on_c, 1, 79, 100
3, 77503, Note_on_c, 1, 79, 0
3, 77520, Note_on_c, 1, 78, 100
3, 77756, Note_on_c, 1, 78, 0
3, 78480, Note_on_c, 1, 77, 100
3, 78712, Note_on_c, 1, 77, 0
3, 78720, Note_on_c, 1, 76, 100
3, 79188, Note_on_c, 1, 76, 0
3, 79200, Note_on_c, 1, 77, 100
3, 79671, Note_on_c, 1, 77, 0
3, 79680, Note_on_c, 1, 76, 100
3, 80617, Note_on_c, 1, 76, 0
3, 80640, Note_on_c, 1, 78, 100
3, 81107, Note_on_c, 1, 78, 0
3, 81120, Note_on_c, 1, 80, 100
3, 81353, Note_on_c, 1, 80, 0
3, 81360, Note_on_c, 1, 81, 100
3, 81591, Note_on_c, 1, 81, 0
3, 81600, Note_on_c, 1, 83, 100
3, 82071, Note_on_c, 1, 83, 0
3, 82080, Note_on_c, 1, 81, 100
3, 82317, Note_on_c, 1, 81, 0
3, 82320, Note_on_c, 1, 79, 100
3, 82559, Note_on_c, 1, 79, 0
3, 82560, Note_on_c, 1, 78, 100
3, 83501, Note_on_c, 1, 78, 0
3, 83520, Note_on_c, 1, 76, 100
3, 84714, Note_on_c, 1, 76, 0
3, 84720, Note_on_c, 1, 77, 100
3, 84956, Note_on_c, 1, 77, 0
3, 84960, Note_on_c, 1, 76, 100
3, 85191, Note_on_c, 1, 76, 0
3, 85200, Note_on_c, 1, 74, 100
3, 85676, Note_on_c, 1, 74, 0
3, 85680, Note_on_c, 1, 72, 100
3, 85919, Note_on_c, 1, 72, 0
3, 85920, Note_on_c, 1, 81, 100
3, 86633, Note_on_c, 1, 81, 0
3, 86640, Note_on_c, 1, 81, 100
3, 86872, Note_on_c, 1, 81, 0
3, 86880, Note_on_c, 1, 79, 100
3, 87111, Note_on_c, 1, 79, 0
3, 87120, Note_on_c, 1, 78, 100
3, 87354, Note_on_c, 1, 78, 0
3, 87360, Note_on_c, 1, 76, 100
3, 88305, Note_on_c, 1, 76, 0
3, 88320, Note_on_c, 1, 74, 100
3, 88793, Note_on_c, 1, 74, 0
3, 88800, Note_on_c, 1, 78, 100
3, 89455, Note_on_c, 1, 78, 0
3, 89520, Note_on_c, 1, 78, 100
3, 89757, Note_on_c, 1, 78, 0
3, 89760, Note_on_c, 1, 76, 100
3, 90416, Note_on_c, 1, 76, 0
3, 90480, Note_on_c, 1, 76, 100
3, 90718, Note_on_c, 1, 76, 0
3, 90720, Note_on_c, 1, 74, 100
3, 90958, Note_on_c, 1, 74, 0
3, 90960, Note_on_c, 1, 72, 100
3, 91191, Note_on_c, 1, 72, 0
3, 91200, Note_on_c, 1, 86, 100
3, 91431, Note_on_c, 1, 86, 0
3, 91440, Note_on_c, 1, 84, 100
3, 91676, Note_on_c, 1, 84, 0
3, 91680, Note_on_c, 1, 86, 100
3, 92150, Note_on_c, 1, 86, 0
3, 92160, Note_on_c, 1, 84, 100
3, 92397, Note_on_c, 1, 84, 0
3, 92400, Note_on_c, 1, 83, 100
3, 92639, Note_on_c, 1, 83, 0
3, 92640, Note_on_c, 1, 81, 100
3, 92873, Note_on_c, 1, 81, 0
3, 92880, Note_on_c, 1, 79, 100
3, 93116, Note_on_c, 1, 79, 0
3, 93120, Note_on_c, 1, 81, 100
3, 93357, Note_on_c, 1, 81, 0
3, 93360, Note_on_c, 1, 88, 100
3, 93593, Note_on_c, 1, 88, 0
3, 93600, Note_on_c, 1, 86, 100
3, 93838, Note_on_c, 1, 86, 0
3, 93840, Note_on_c, 1, 84, 100
3, 94078, Note_on_c, 1, 84, 0
3, 94080, Note_on_c, 1, 83, 100
3, 95045, Note_on_c, 1, 83, 0
3, 95280, Note_on_c, 1, 84, 100
3, 95515, Note_on_c, 1, 84, 0
3, 95520, Note_on_c, 1, 83, 100
3, 95751, Note_on_c, 1, 83, 0
3, 95760, Note_on_c, 1, 81, 100
3, 96115, Note_on_c, 1, 81, 0
3, 96240, Note_on_c, 1, 79, 100
3, 96359, Note_on_c, 1, 79, 0
3, 96360, Note_on_c, 1, 81, 100
3, 96477, Note_on_c, 1, 81, 0
3, 96480, Note_on_c, 1, 83, 100
3, 97137, Note_on_c, 1, 83, 0
3, 97200, Note_on_c, 1, 83, 100
3, 97435, Note_on_c, 1, 83, 0
3, 97440, Note_on_c, 1, 81, 100
3, 98094, Note_on_c, 1, 81, 0
3, 98160, Note_on_c, 1, 81, 100
3, 98395, Note_on_c, 1, 81, 0
3, 98400, Note_on_c, 1, 79, 100
3, 98635, Note_on_c, 1, 79, 0
3, 98640, Note_on_c, 1, 78, 100
3, 98878, Note_on_c, 1, 78, 0
3, 98880, Note_on_c, 1, 76, 100
3, 99586, Note_on_c, 1, 76, 0
3, 99600, Note_on_c, 1, 79, 100
3, 99838, Note_on_c, 1, 79, 0
3, 99840, Note_on_c, 1, 78, 100
3, 100309, Note_on_c, 1, 78, 0
3, 100320, Note_on_c, 1, 76, 100
3, 100551, Note_on_c, 1, 76, 0
3, 100560, Note_on_c, 1, 75, 100
3, 100798, Note_on_c, 1, 75, 0
3, 100800, Note_on_c, 1, 76, 100
3, 101153, Note_on_c, 1, 76, 0
3, 101160, Note_on_c, 1, 74, 100
3, 101277, Note_on_c, 1, 74, 0
3, 101280, Note_on_c, 1, 72, 100
3, 101752, Note_on_c, 1, 72, 0
3, 101760, Note_on_c, 1, 71, 100
3, 102952, Note_on_c, 1, 71, 0
3, 102960, Note_on_c, 1, 72, 100
3, 103193, Note_on_c, 1, 72, 0
3, 103200, Note_on_c, 1, 71, 100
3, 103434, Note_on_c, 1, 71, 0
3, 103440, Note_on_c, 1, 69, 100
3, 103859, Note_on_c, 1, 69, 0
3, 103920, Note_on_c, 1, 67, 100
3, 104039, Note_on_c, 1, 67, 0
3, 104040, Note_on_c, 1, 66, 100
3, 104158, Note_on_c, 1, 66, 0
3, 104160, Note_on_c, 1, 67, 100
3, 104633, Note_on_c, 1, 67, 0
3, 104640, Note_on_c, 1, 72, 100
3, 105208, Note_on_c, 1, 72, 0
3, 105240, Note_on_c, 1, 72, 100
3, 105355, Note_on_c, 1, 72, 0
3, 105360, Note_on_c, 1, 71, 100
3, 105772, Note_on_c, 1, 71, 0
3, 105840, Note_on_c, 1, 76, 100
3, 105960, Note_on_c, 1, 76, 0
3, 105960, Note_on_c, 1, 75, 100
3, 106074, Note_on_c, 1, 75, 0
3, 106080, Note_on_c, 1, 76, 100
3, 106906, Note_on_c, 1, 76, 0
3, 107040, Note_on_c, 1, 74, 100
3, 107159, Note_on_c, 1, 74, 0
3, 107160, Note_on_c, 1, 76, 100
3, 107279, Note_on_c, 1, 76, 0
3, 107280, Note_on_c, 1, 74, 100
3, 107987, Note_on_c, 1, 74, 0
3, 108000, Note_on_c, 1, 86, 100
3, 108471, Note_on_c, 1, 86, 0
3, 108480, Note_on_c, 1, 84, 100
3, 109423, Note_on_c, 1, 84, 0
3, 109440, Note_on_c, 1, 86, 100
3, 109912, Note_on_c, 1, 86, 0
3, 109920, Note_on_c, 1, 84, 100
3, 110158, Note_on_c, 1, 84, 0
3, 110160, Note_on_c, 1, 82, 100
3, 110396, Note_on_c, 1, 82, 0
3, 110400, Note_on_c, 1, 81, 100
3, 111337, Note_on_c, 1, 81, 0
3, 111360, Note_on_c, 1, 79, 100
3, 112556, Note_on_c, 1, 79, 0
3, 112560, Note_on_c, 1, 81, 100
3, 112791, Note_on_c, 1, 81, 0
3, 112800, Note_on_c, 1, 79, 100
3, 113034, Note_on_c, 1, 79, 0
3, 113040, Note_on_c, 1, 77, 100
3, 113279, Note_on_c, 1, 77, 0
3, 113280, Note_on_c, 1, 76, 100
3, 113749, Note_on_c, 1, 76, 0
3, 113760, Note_on_c, 1, 84, 100
3, 114416, Note_on_c, 1, 84, 0
3, 114480, Note_on_c, 1, 83, 100
3, 114715, Note_on_c, 1, 83, 0
3, 114720, Note_on_c, 1, 81, 100
3, 115438, Note_on_c, 1, 81, 0
3, 115440, Note_on_c, 1, 79, 100
3, 115560, Note_on_c, 1, 78, 100
3, 115561, Note_on_c, 1, 79, 0
3, 115679, Note_on_c, 1, 78, 0
3, 115680, Note_on_c, 1, 79, 100
3, 116392, Note_on_c, 1, 79, 0
3, 116400, Note_on_c, 1, 77, 100
3, 116632, Note_on_c, 1, 77, 0
3, 116640, Note_on_c, 1, 76, 100
3, 117108, Note_on_c, 1, 76, 0
3, 117120, Note_on_c, 1, 74, 100
3, 117592, Note_on_c, 1, 74, 0
3, 117600, Note_on_c, 1, 86, 100
3, 118549, Note_on_c, 1, 86, 0
3, 118560, Note_on_c, 1, 83, 100
3, 119275, Note_on_c, 1, 83, 0
3, 119280, Note_on_c, 1, 81, 100
3, 119395, Note_on_c, 1, 81, 0
3, 119400, Note_on_c, 1, 80, 100
3, 119520, Note_on_c, 1, 81, 100
3, 119521, Note_on_c, 1, 80, 0
3, 120235, Note_on_c, 1, 81, 0
3, 120240, Note_on_c, 1, 79, 100
3, 120471, Note_on_c, 1, 79, 0
3, 120480, Note_on_c, 1, 77, 100
3, 120954, Note_on_c, 1, 77, 0
3, 120960, Note_on_c, 1, 76, 100
3, 121431, Note_on_c, 1, 76, 0
3, 121440, Note_on_c, 1, 78, 100
3, 121677, Note_on_c, 1, 78, 0
3, 121680, Note_on_c, 1, 80, 100
3, 121913, Note_on_c, 1, 80, 0
3, 121920, Note_on_c, 1, 81, 100
3, 122154, Note_on_c, 1, 81, 0
3, 122160, Note_on_c, 1, 81, 100
3, 122399, Note_on_c, 1, 81, 0
3, 122400, Note_on_c, 1, 83, 100
3, 122634, Note_on_c, 1, 83, 0
3, 122640, Note_on_c, 1, 85, 100
3, 122873, Note_on_c, 1, 85, 0
3, 122880, Note_on_c, 1, 86, 100
3, 123117, Note_on_c, 1, 86, 0
3, 123120, Note_on_c, 1, 86, 100
3, 123355, Note_on_c, 1, 86, 0
3, 123360, Note_on_c, 1, 86, 100
3, 123599, Note_on_c, 1, 86, 0
3, 123600, Note_on_c, 1, 88, 100
3, 123837, Note_on_c, 1, 88, 0
3, 123840, Note_on_c, 1, 83, 100
3, 124308, Note_on_c, 1, 83, 0
3, 124320, Note_on_c, 1, 81, 100
3, 125269, Note_on_c, 1, 81, 0
3, 125280, Note_on_c, 1, 80, 100
3, 125753, Note_on_c, 1, 80, 0
3, 126240, Note_on_c, 1, 88, 100
3, 126714, Note_on_c, 1, 88, 0
3, 126720, Note_on_c, 1, 86, 100
3, 127851, Note_on_c, 1, 86, 0
3, 127920, Note_on_c, 1, 86, 100
3, 128159, Note_on_c, 1, 86, 0
3, 128160, Note_on_c, 1, 84, 100
3, 128872, Note_on_c, 1, 84, 0
3, 128880, Note_on_c, 1, 84, 100
3, 129115, Note_on_c, 1, 84, 0
3, 129120, Note_on_c, 1, 83, 100
3, 129359, Note_on_c, 1, 83, 0
3, 129360, Note_on_c, 1, 81, 100
3, 129596, Note_on_c, 1, 81, 0
3, 129600, Note_on_c, 1, 80, 100
3, 130074, Note_on_c, 1, 80, 0
3, 130080, Note_on_c, 1, 81, 100
3, 130672, Note_on_c, 1, 81, 0
3, 130800, Note_on_c, 1, 81, 100
3, 131037, Note_on_c, 1, 81, 0
3, 131040, Note_on_c, 1, 80, 100
3, 131512, Note_on_c, 1, 80, 0
3, 132240, Note_on_c, 1, 79, 100
3, 132473, Note_on_c, 1, 79, 0
3, 132480, Note_on_c, 1, 77, 100
3, 132711, Note_on_c, 1, 77, 0
3, 132720, Note_on_c, 1, 76, 100
3, 134144, Note_on_c, 1, 76, 0
3, 134160, Note_on_c, 1, 74, 100
3, 134634, Note_on_c, 1, 74, 0
3, 134640, Note_on_c, 1, 79, 100
3, 134875, Note_on_c, 1, 79, 0
3, 134880, Note_on_c, 1, 81, 100
3, 135593, Note_on_c, 1, 81, 0
3, 135600, Note_on_c, 1, 79, 100
3, 136070, Note_on_c, 1, 79, 0
3, 136080, Note_on_c, 1, 81, 100
3, 136315, Note_on_c, 1, 81, 0
3, 136320, Note_on_c, 1, 79, 100
3, 136792, Note_on_c, 1, 79, 0
3, 136800, Note_on_c, 1, 81, 100
3, 137512, Note_on_c, 1, 81, 0
3, 137520, Note_on_c, 1, 82, 100
3, 137751, Note_on_c, 1, 82, 0
3, 137760, Note_on_c, 1, 81, 100
3, 137992, Note_on_c, 1, 81, 0
3, 138000, Note_on_c, 1, 79, 100
3, 138368, Note_on_c, 1, 79, 0
3, 138480, Note_on_c, 1, 78, 100
3, 138595, Note_on_c, 1, 78, 0
3, 138600, Note_on_c, 1, 76, 100
3, 138720, Note_on_c, 1, 76, 0
3, 138720, Note_on_c, 1, 78, 100
3, 138956, Note_on_c, 1, 78, 0
3, 138960, Note_on_c, 1, 79, 100
3, 139077, Note_on_c, 1, 79, 0
3, 139080, Note_on_c, 1, 81, 100
3, 139171, Note_on_c, 1, 81, 0
3, 139200, Note_on_c, 1, 82, 100
3, 139431, Note_on_c, 1, 82, 0
3, 139440, Note_on_c, 1, 81, 100
3, 139560, Note_on_c, 1, 82, 100
3, 139561, Note_on_c, 1, 81, 0
3, 139661, Note_on_c, 1, 82, 0
3, 139680, Note_on_c, 1, 84, 100
3, 139915, Note_on_c, 1, 84, 0
3, 139920, Note_on_c, 1, 82, 100
3, 140040, Note_on_c, 1, 84, 100
3, 140042, Note_on_c, 1, 82, 0
3, 140143, Note_on_c, 1, 84, 0
3, 140160, Note_on_c, 1, 86, 100
3, 140864, Note_on_c, 1, 86, 0
3, 140880, Note_on_c, 1, 87, 100
3, 141116, Note_on_c, 1, 87, 0
3, 141120, Note_on_c, 1, 86, 100
3, 141356, Note_on_c, 1, 86, 0
3, 141360, Note_on_c, 1, 84, 100
3, 141592, Note_on_c, 1, 84, 0
3, 141600, Note_on_c, 1, 82, 100
3, 142072, Note_on_c, 1, 82, 0
3, 142080, Note_on_c, 1, 81, 100
3, 142551, Note_on_c, 1, 81, 0
3, 142560, Note_on_c, 1, 83, 100
3, 142799, Note_on_c, 1, 83, 0
3, 142800, Note_on_c, 1, 85, 100
3, 143032, Note_on_c, 1, 85, 0
3, 143040, Note_on_c, 1, 86, 100
3, 143506, Note_on_c, 1, 86, 0
3, 143520, Note_on_c, 1, 84, 100
3, 143990, Note_on_c, 1, 84, 0
3, 144000, Note_on_c, 1, 82, 100
3, 144706, Note_on_c, 1, 82, 0
3, 144720, Note_on_c, 1, 84, 100
3, 144954, Note_on_c, 1, 84, 0
3, 144960, Note_on_c, 1, 86, 100
3, 145664, Note_on_c, 1, 86, 0
3, 145680, Note_on_c, 1, 86, 100
3, 145799, Note_on_c, 1, 86, 0
3, 145800, Note_on_c, 1, 84, 100
3, 145914, Note_on_c, 1, 84, 0
3, 145920, Note_on_c, 1, 82, 100
3, 146626, Note_on_c, 1, 82, 0
3, 146640, Note_on_c, 1, 81, 100
3, 146872, Note_on_c, 1, 81, 0
3, 146880, Note_on_c, 1, 79, 100
3, 147353, Note_on_c, 1, 79, 0
3, 147360, Note_on_c, 1, 81, 100
3, 147744, Note_on_c, 1, 81, 0
3, 147840, Note_on_c, 1, 81, 100
3, 148078, Note_on_c, 1, 81, 0
3, 148080, Note_on_c, 1, 82, 100
3, 148314, Note_on_c, 1, 82, 0
3, 148320, Note_on_c, 1, 81, 100
3, 148554, Note_on_c, 1, 81, 0
3, 148560, Note_on_c, 1, 79, 100
3, 149039, Note_on_c, 1, 79, 0
3, 149040, Note_on_c, 1, 77, 100
3, 149156, Note_on_c, 1, 77, 0
3, 149160, Note_on_c, 1, 76, 100
3, 149280, Note_on_c, 1, 77, 100
3, 149281, Note_on_c, 1, 76, 0
3, 149887, Note_on_c, 1, 77, 0
3, 150000, Note_on_c, 1, 77, 100
3, 150239, Note_on_c, 1, 77, 0
3, 150240, Note_on_c, 1, 76, 100
3, 150707, Note_on_c, 1, 76, 0
3, 150720, Note_on_c, 1, 74, 100
3, 151192, Note_on_c, 1, 74, 0
3, 151200, Note_on_c, 1, 81, 100
3, 151673, Note_on_c, 1, 81, 0
3, 151680, Note_on_c, 1, 83, 100
3, 152622, Note_on_c, 1, 83, 0
3, 152640, Note_on_c, 1, 81, 100
3, 153578, Note_on_c, 1, 81, 0
3, 153600, Note_on_c, 1, 83, 100
3, 154545, Note_on_c, 1, 83, 0
3, 154560, Note_on_c, 1, 84, 100
3, 154797, Note_on_c, 1, 84, 0
3, 154800, Note_on_c, 1, 86, 100
3, 155038, Note_on_c, 1, 86, 0
3, 155040, Note_on_c, 1, 84, 100
3, 155276, Note_on_c, 1, 84, 0
3, 155280, Note_on_c, 1, 82, 100
3, 155517, Note_on_c, 1, 82, 0
3, 155520, Note_on_c, 1, 81, 100
3, 156458, Note_on_c, 1, 81, 0
3, 156480, Note_on_c, 1, 79, 100
3, 156715, Note_on_c, 1, 79, 0
3, 156720, Note_on_c, 1, 81, 100
3, 156951, Note_on_c, 1, 81, 0
3, 156960, Note_on_c, 1, 83, 100
3, 157592, Note_on_c, 1, 83, 0
3, 157680, Note_on_c, 1, 83, 100
3, 157914, Note_on_c, 1, 83, 0
3, 157920, Note_on_c, 1, 81, 100
3, 158153, Note_on_c, 1, 81, 0
3, 158160, Note_on_c, 1, 79, 100
3, 158391, Note_on_c, 1, 79, 0
3, 158400, Note_on_c, 1, 81, 100
3, 158869, Note_on_c, 1, 81, 0
3, 158880, Note_on_c, 1, 83, 100
3, 159119, Note_on_c, 1, 83, 0
3, 159120, Note_on_c, 1, 81, 100
3, 159357, Note_on_c, 1, 81, 0
3, 159360, Note_on_c, 1, 79, 100
3, 159826, Note_on_c, 1, 79, 0
3, 159840, Note_on_c, 1, 78, 100
3, 160076, Note_on_c, 1, 78, 0
3, 160080, Note_on_c, 1, 79, 100
3, 160315, Note_on_c, 1, 79, 0
3, 160320, Note_on_c, 1, 81, 100
3, 160788, Note_on_c, 1, 81, 0
3, 160800, Note_on_c, 1, 79, 100
3, 161033, Note_on_c, 1, 79, 0
3, 161040, Note_on_c, 1, 77, 100
3, 161271, Note_on_c, 1, 77, 0
3, 161280, Note_on_c, 1, 76, 100
3, 162222, Note_on_c, 1, 76, 0
3, 162240, Note_on_c, 1, 74, 100
3, 164335, Note_on_c, 1, 74, 0
3, 164400, Note_on_c, 1, 74, 100
3, 164636, Note_on_c, 1, 74, 0
3, 164640, Note_on_c, 1, 72, 100
3, 165293, Note_on_c, 1, 72, 0
3, 165360, Note_on_c, 1, 72, 100
3, 165597, Note_on_c, 1, 72, 0
3, 165600, Note_on_c, 1, 71, 100
3, 165839, Note_on_c, 1, 71, 0
3, 165840, Note_on_c, 1, 69, 100
3, 166075, Note_on_c, 1, 69, 0
3, 166080, Note_on_c, 1, 71, 100
3, 166605, Note_on_c, 1, 71, 0
3, 166800, Note_on_c, 1, 71, 100
3, 167039, Note_on_c, 1, 71, 0
3, 167040, Note_on_c, 1, 72, 100
3, 167977, Note_on_c, 1, 72, 0
3, 168000, Note_on_c, 1, 74, 100
3, 169138, Note_on_c, 1, 74, 0
3, 169200, Note_on_c, 1, 74, 100
3, 169436, Note_on_c, 1, 74, 0
3, 169440, Note_on_c, 1, 72, 100
3, 169672, Note_on_c, 1, 72, 0
3, 169680, Note_on_c, 1, 71, 100
3, 169918, Note_on_c, 1, 71, 0
3, 169920, Note_on_c, 1, 69, 100
3, 170128, Note_on_c, 1, 69, 0
3, 170160, Note_on_c, 1, 84, 100
3, 170397, Note_on_c, 1, 84, 0
3, 170400, Note_on_c, 1, 83, 100
3, 170632, Note_on_c, 1, 83, 0
3, 170640, Note_on_c, 1, 81, 100
3, 170877, Note_on_c, 1, 81, 0
3, 170880, Note_on_c, 1, 79, 100
3, 172016, Note_on_c, 1, 79, 0
3, 172080, Note_on_c, 1, 79, 100
3, 172319, Note_on_c, 1, 79, 0
3, 172320, Note_on_c, 1, 78, 100
3, 172557, Note_on_c, 1, 78, 0
3, 172560, Note_on_c, 1, 76, 100
3, 172792, Note_on_c, 1, 76, 0
3, 172800, Note_on_c, 1, 74, 100
3, 173014, Note_on_c, 1, 74, 0
3, 173040, Note_on_c, 1, 90, 100
3, 173279, Note_on_c, 1, 90, 0
3, 173280, Note_on_c, 1, 88, 100
3, 173513, Note_on_c, 1, 88, 0
3, 173520, Note_on_c, 1, 86, 100
3, 173756, Note_on_c, 1, 86, 0
3, 173760, Note_on_c, 1, 84, 100
3, 174897, Note_on_c, 1, 84, 0
3, 174960, Note_on_c, 1, 84, 100
3, 175197, Note_on_c, 1, 84, 0
3, 175200, Note_on_c, 1, 83, 100
3, 175854, Note_on_c, 1, 83, 0
3, 175920, Note_on_c, 1, 83, 100
3, 176152, Note_on_c, 1, 83, 0
3, 176160, Note_on_c, 1, 81, 100
3, 176877, Note_on_c, 1, 81, 0
3, 176880, Note_on_c, 1, 79, 100
3, 177118, Note_on_c, 1, 79, 0
3, 177120, Note_on_c, 1, 78, 100
3, 177775, Note_on_c, 1, 78, 0
3, 177840, Note_on_c, 1, 78, 100
3, 178071, Note_on_c, 1, 78, 0
3, 178080, Note_on_c, 1, 76, 100
3, 178553, Note_on_c, 1, 76, 0
3, 178560, Note_on_c, 1, 74, 100
3, 178793, Note_on_c, 1, 74, 0
3, 178800, Note_on_c, 1, 79, 100
3, 179128, Note_on_c, 1, 79, 0
3, 179160, Note_on_c, 1, 78, 100
3, 179216, Note_on_c, 1, 78, 0
3, 179220, Note_on_c, 1, 79, 100
3, 179265, Note_on_c, 1, 79, 0
3, 179280, Note_on_c, 1, 81, 100
3, 179340, Note_on_c, 1, 81, 0
3, 179340, Note_on_c, 1, 79, 100
3, 179400, Note_on_c, 1, 78, 100
3, 179401, Note_on_c, 1, 79, 0
3, 179455, Note_on_c, 1, 78, 0
3, 179460, Note_on_c, 1, 79, 100
3, 179503, Note_on_c, 1, 79, 0
3, 179520, Note_on_c, 1, 81, 100
3, 180224, Note_on_c, 1, 81, 0
3, 180240, Note_on_c, 1, 79, 100
3, 180355, Note_on_c, 1, 79, 0
3, 180360, Note_on_c, 1, 78, 100
3, 180474, Note_on_c, 1, 78, 0
3, 180480, Note_on_c, 1, 79, 100
3, 180711, Note_on_c, 1, 79, 0
3, 180720, Note_on_c, 1, 78, 100
3, 180955, Note_on_c, 1, 78, 0
3, 180960, Note_on_c, 1, 76, 100
3, 181426, Note_on_c, 1, 76, 0
3, 181440, Note_on_c, 1, 74, 100
3, 181913, Note_on_c, 1, 74, 0
3, 181920, Note_on_c, 1, 78, 100
3, 182579, Note_on_c, 1, 78, 0
3, 182640, Note_on_c, 1, 78, 100
3, 182875, Note_on_c, 1, 78, 0
3, 182880, Note_on_c, 1, 79, 100
3, 183536, Note_on_c, 1, 79, 0
3, 183600, Note_on_c, 1, 79, 100
3, 183838, Note_on_c, 1, 79, 0
3, 183840, Note_on_c, 1, 78, 100
3, 184077, Note_on_c, 1, 78, 0
3, 184080, Note_on_c, 1, 76, 100
3, 184318, Note_on_c, 1, 76, 0
3, 184320, Note_on_c, 1, 74, 100
3, 184909, Note_on_c, 1, 74, 0
3, 185040, Note_on_c, 1, 86, 100
3, 185272, Note_on_c, 1, 86, 0
3, 185280, Note_on_c, 1, 84, 100
3, 186366, Note_on_c, 1, 84, 0
3, 186480, Note_on_c, 1, 84, 100
3, 186711, Note_on_c, 1, 84, 0
3, 186720, Note_on_c, 1, 83, 100
3, 186951, Note_on_c, 1, 83, 0
3, 186960, Note_on_c, 1, 81, 100
3, 187198, Note_on_c, 1, 81, 0
3, 187200, Note_on_c, 1, 79, 100
3, 187432, Note_on_c, 1, 79, 0
3, 187440, Note_on_c, 1, 83, 100
3, 187672, Note_on_c, 1, 83, 0
3, 187680, Note_on_c, 1, 88, 100
3, 188146, Note_on_c, 1, 88, 0
3, 188160, Note_on_c, 1, 86, 100
3, 189823, Note_on_c, 1, 86, 0
3, 189840, Note_on_c, 1, 84, 100
3, 190071, Note_on_c, 1, 84, 0
3, 190080, Note_on_c, 1, 82, 100
3, 190315, Note_on_c, 1, 82, 0
3, 205920, Note_on_c, 1, 74, 100
3, 205920, Note_on_c, 1, 72, 100
3, 206388, Note_on_c, 1, 72, 0
3, 206393, Note_on_c, 1, 74, 0
3, 206400, Note_on_c, 1, 71, 100
3, 206400, Note_on_c, 1, 74, 100
3, 207341, Note_on_c, 1, 74, 0
3, 207344, Note_on_c, 1, 71, 0
3, 207344, End_track
4, 0, Start_track
4, 0, MIDI_port, 0
4, 0, Title_t, "Tenor"
4, 0, Program_c, 2, 19
4, 0, Control_c, 2, 7, 100
4, 0, Control_c, 2, 10, 64
4, 40800, Note_on_c, 2, 83, 100
4, 41457, Note_on_c, 2, 83, 0
4, 41520, Note_on_c, 2, 83, 100
4, 41759, Note_on_c, 2, 83, 0
4, 41760, Note_on_c, 2, 81, 100
4, 42418, Note_on_c, 2, 81, 0
4, 42480, Note_on_c, 2, 81, 100
4, 42719, Note_on_c, 2, 81, 0
4, 42720, Note_on_c, 2, 79, 100
4, 42952, Note_on_c, 2, 79, 0
4, 42960, Note_on_c, 2, 78, 100
4, 43197, Note_on_c, 2, 78, 0
4, 43200, Note_on_c, 2, 76, 100
4, 44139, Note_on_c, 2, 76, 0
4, 44160, Note_on_c, 2, 74, 100
4, 46252, Note_on_c, 2, 74, 0
4, 46320, Note_on_c, 2, 74, 100
4, 46559, Note_on_c, 2, 74, 0
4, 46560, Note_on_c, 2, 72, 100
4, 46792, Note_on_c, 2, 72, 0
4, 46800, Note_on_c, 2, 71, 100
4, 47034, Note_on_c, 2, 71, 0
4, 47040, Note_on_c, 2, 69, 100
4, 47506, Note_on_c, 2, 69, 0
4, 48000, Note_on_c, 2, 72, 100
4, 48939, Note_on_c, 2, 72, 0
4, 48960, Note_on_c, 2, 74, 100
4, 49900, Note_on_c, 2, 74, 0
4, 50400, Note_on_c, 2, 78, 100
4, 51230, Note_on_c, 2, 78, 0
4, 51360, Note_on_c, 2, 76, 100
4, 51828, Note_on_c, 2, 76, 0
4, 51840, Note_on_c, 2, 74, 100
4, 52311, Note_on_c, 2, 74, 0
4, 52320, Note_on_c, 2, 79, 100
4, 52790, Note_on_c, 2, 79, 0
4, 52800, Note_on_c, 2, 79, 100
4, 53034, Note_on_c, 2, 79, 0
4, 53040, Note_on_c, 2, 78, 100
4, 53271, Note_on_c, 2, 78, 0
4, 53280, Note_on_c, 2, 76, 100
4, 53936, Note_on_c, 2, 76, 0
4, 54000, Note_on_c, 2, 76, 100
4, 54237, Note_on_c, 2, 76, 0
4, 54240, Note_on_c, 2, 74, 100
4, 54472, Note_on_c, 2, 74, 0
4, 54480, Note_on_c, 2, 72, 100
4, 54716, Note_on_c, 2, 72, 0
4, 54720, Note_on_c, 2, 71, 100
4, 55663, Note_on_c, 2, 71, 0
4, 55680, Note_on_c, 2, 69, 100
4, 56815, Note_on_c, 2, 69, 0
4, 56880, Note_on_c, 2, 71, 100
4, 57116, Note_on_c, 2, 71, 0
4, 57120, Note_on_c, 2, 73, 100
4, 57591, Note_on_c, 2, 73, 0
4, 57600, Note_on_c, 2, 76, 100
4, 58068, Note_on_c, 2, 76, 0
4, 58080, Note_on_c, 2, 74, 100
4, 58317, Note_on_c, 2, 74, 0
4, 58320, Note_on_c, 2, 78, 100
4, 58552, Note_on_c, 2, 78, 0
4, 58560, Note_on_c, 2, 76, 100
4, 59497, Note_on_c, 2, 76, 0
4, 59520, Note_on_c, 2, 74, 100
4, 59990, Note_on_c, 2, 74, 0
4, 60000, Note_on_c, 2, 81, 100
4, 60474, Note_on_c, 2, 81, 0
4, 60480, Note_on_c, 2, 79, 100
4, 61420, Note_on_c, 2, 79, 0
4, 61440, Note_on_c, 2, 78, 100
4, 62575, Note_on_c, 2, 78, 0
4, 62640, Note_on_c, 2, 78, 100
4, 62872, Note_on_c, 2, 78, 0
4, 62880, Note_on_c, 2, 76, 100
4, 63117, Note_on_c, 2, 76, 0
4, 63120, Note_on_c, 2, 74, 100
4, 63351, Note_on_c, 2, 74, 0
4, 63360, Note_on_c, 2, 73, 100
4, 63826, Note_on_c, 2, 73, 0
4, 63840, Note_on_c, 2, 71, 100
4, 64559, Note_on_c, 2, 71, 0
4, 64560, Note_on_c, 2, 76, 100
4, 64793, Note_on_c, 2, 76, 0
4, 64800, Note_on_c, 2, 78, 100
4, 65032, Note_on_c, 2, 78, 0
4, 65040, Note_on_c, 2, 79, 100
4, 65271, Note_on_c, 2, 79, 0
4, 65280, Note_on_c, 2, 78, 100
4, 66417, Note_on_c, 2, 78, 0
4, 66480, Note_on_c, 2, 78, 100
4, 66719, Note_on_c, 2, 78, 0
4, 66720, Note_on_c, 2, 76, 100
4, 67907, Note_on_c, 2, 76, 0
4, 67920, Note_on_c, 2, 74, 100
4, 68152, Note_on_c, 2, 74, 0
4, 68160, Note_on_c, 2, 73, 100
4, 69100, Note_on_c, 2, 73, 0
4, 69120, Note_on_c, 2, 71, 100
4, 69591, Note_on_c, 2, 71, 0
4, 69600, Note_on_c, 2, 79, 100
4, 69837, Note_on_c, 2, 79, 0
4, 69840, Note_on_c, 2, 78, 100
4, 70073, Note_on_c, 2, 78, 0
4, 70080, Note_on_c, 2, 76, 100
4, 71211, Note_on_c, 2, 76, 0
4, 71280, Note_on_c, 2, 76, 100
4, 71516, Note_on_c, 2, 76, 0
4, 71520, Note_on_c, 2, 74, 100
4, 71992, Note_on_c, 2, 74, 0
4, 72000, Note_on_c, 2, 76, 100
4, 72470, Note_on_c, 2, 76, 0
4, 72480, Note_on_c, 2, 74, 100
4, 72947, Note_on_c, 2, 74, 0
4, 72960, Note_on_c, 2, 72, 100
4, 73905, Note_on_c, 2, 72, 0
4, 73920, Note_on_c, 2, 74, 100
4, 75057, Note_on_c, 2, 74, 0
4, 75120, Note_on_c, 2, 74, 100
4, 75359, Note_on_c, 2, 74, 0
4, 75360, Note_on_c, 2, 72, 100
4, 76311, Note_on_c, 2, 72, 0
4, 76320, Note_on_c, 2, 74, 100
4, 76554, Note_on_c, 2, 74, 0
4, 76560, Note_on_c, 2, 76, 100
4, 76797, Note_on_c, 2, 76, 0
4, 76800, Note_on_c, 2, 74, 100
4, 77271, Note_on_c, 2, 74, 0
4, 77280, Note_on_c, 2, 72, 100
4, 77746, Note_on_c, 2, 72, 0
4, 77760, Note_on_c, 2, 72, 100
4, 77995, Note_on_c, 2, 72, 0
4, 78000, Note_on_c, 2, 71, 100
4, 78232, Note_on_c, 2, 71, 0
4, 78240, Note_on_c, 2, 76, 100
4, 78477, Note_on_c, 2, 76, 0
4, 78480, Note_on_c, 2, 74, 100
4, 78715, Note_on_c, 2, 74, 0
4, 78720, Note_on_c, 2, 72, 100
4, 79192, Note_on_c, 2, 72, 0
4, 79200, Note_on_c, 2, 74, 100
4, 79433, Note_on_c, 2, 74, 0
4, 79440, Note_on_c, 2, 72, 100
4, 79671, Note_on_c, 2, 72, 0
4, 79680, Note_on_c, 2, 71, 100
4, 80151, Note_on_c, 2, 71, 0
4, 80640, Note_on_c, 2, 74, 100
4, 81108, Note_on_c, 2, 74, 0
4, 81120, Note_on_c, 2, 76, 100
4, 81355, Note_on_c, 2, 76, 0
4, 81360, Note_on_c, 2, 77, 100
4, 81597, Note_on_c, 2, 77, 0
4, 81600, Note_on_c, 2, 76, 100
4, 82739, Note_on_c, 2, 76, 0
4, 82800, Note_on_c, 2, 76, 100
4, 83036, Note_on_c, 2, 76, 0
4, 83040, Note_on_c, 2, 74, 100
4, 83277, Note_on_c, 2, 74, 0
4, 83280, Note_on_c, 2, 72, 100
4, 83519, Note_on_c, 2, 72, 0
4, 83520, Note_on_c, 2, 71, 100
4, 83994, Note_on_c, 2, 71, 0
4, 84000, Note_on_c, 2, 72, 100
4, 84474, Note_on_c, 2, 72, 0
4, 84480, Note_on_c, 2, 71, 100
4, 85422, Note_on_c, 2, 71, 0
4, 85440, Note_on_c, 2, 69, 100
4, 85911, Note_on_c, 2, 69, 0
4, 85920, Note_on_c, 2, 76, 100
4, 86393, Note_on_c, 2, 76, 0
4, 86400, Note_on_c, 2, 74, 100
4, 87341, Note_on_c, 2, 74, 0
4, 87360, Note_on_c, 2, 74, 100
4, 87594, Note_on_c, 2, 74, 0
4, 87600, Note_on_c, 2, 74, 100
4, 87833, Note_on_c, 2, 74, 0
4, 87840, Note_on_c, 2, 72, 100
4, 88499, Note_on_c, 2, 72, 0
4, 88560, Note_on_c, 2, 72, 100
4, 88796, Note_on_c, 2, 72, 0
4, 88800, Note_on_c, 2, 71, 100
4, 89037, Note_on_c, 2, 71, 0
4, 89040, Note_on_c, 2, 69, 100
4, 89279, Note_on_c, 2, 69, 0
4, 89280, Note_on_c, 2, 67, 100
4, 89749, Note_on_c, 2, 67, 0
4, 89760, Note_on_c, 2, 72, 100
4, 90340, Note_on_c, 2, 72, 0
4, 90480, Note_on_c, 2, 71, 100
4, 90713, Note_on_c, 2, 71, 0
4, 90720, Note_on_c, 2, 69, 100
4, 91187, Note_on_c, 2, 69, 0
4, 91200, Note_on_c, 2, 71, 100
4, 91670, Note_on_c, 2, 71, 0
4, 91680, Note_on_c, 2, 83, 100
4, 91913, Note_on_c, 2, 83, 0
4, 91920, Note_on_c, 2, 81, 100
4, 92154, Note_on_c, 2, 81, 0
4, 92160, Note_on_c, 2, 79, 100
4, 92393, Note_on_c, 2, 79, 0
4, 92400, Note_on_c, 2, 78, 100
4, 92639, Note_on_c, 2, 78, 0
4, 92640, Note_on_c, 2, 76, 100
4, 93358, Note_on_c, 2, 76, 0
4, 93360, Note_on_c, 2, 84, 100
4, 93596, Note_on_c, 2, 84, 0
4, 93600, Note_on_c, 2, 81, 100
4, 94213, Note_on_c, 2, 81, 0
4, 94320, Note_on_c, 2, 81, 100
4, 94556, Note_on_c, 2, 81, 0
4, 94560, Note_on_c, 2, 79, 100
4, 95030, Note_on_c, 2, 79, 0
4, 95040, Note_on_c, 2, 78, 100
4, 95982, Note_on_c, 2, 78, 0
4, 96000, Note_on_c, 2, 76, 100
4, 96356, Note_on_c, 2, 76, 0
4, 96360, Note_on_c, 2, 78, 100
4, 96475, Note_on_c, 2, 78, 0
4, 96480, Note_on_c, 2, 79, 100
4, 97137, Note_on_c, 2, 79, 0
4, 97200, Note_on_c, 2, 79, 100
4, 97439, Note_on_c, 2, 79, 0
4, 97440, Note_on_c, 2, 78, 100
4, 97679, Note_on_c, 2, 78, 0
4, 97680, Note_on_c, 2, 76, 100
4, 97918, Note_on_c, 2, 76, 0
4, 97920, Note_on_c, 2, 75, 100
4, 98864, Note_on_c, 2, 75, 0
4, 99120, Note_on_c, 2, 74, 100
4, 99357, Note_on_c, 2, 74, 0
4, 99360, Note_on_c, 2, 72, 100
4, 99571, Note_on_c, 2, 72, 0
4, 99600, Note_on_c, 2, 76, 100
4, 99837, Note_on_c, 2, 76, 0
4, 99840, Note_on_c, 2, 74, 100
4, 100073, Note_on_c, 2, 74, 0
4, 100080, Note_on_c, 2, 72, 100
4, 100313, Note_on_c, 2, 72, 0
4, 100320, Note_on_c, 2, 71, 100
4, 100892, Note_on_c, 2, 71, 0
4, 100920, Note_on_c, 2, 74, 100
4, 101039, Note_on_c, 2, 74, 0
4, 101040, Note_on_c, 2, 72, 100
4, 101160, Note_on_c, 2, 72, 0
4, 101160, Note_on_c, 2, 71, 100
4, 101280, Note_on_c, 2, 69, 100
4, 101282, Note_on_c, 2, 71, 0
4, 101518, Note_on_c, 2, 69, 0
4, 101520, Note_on_c, 2, 67, 100
4, 101751, Note_on_c, 2, 67, 0
4, 101760, Note_on_c, 2, 66, 100
4, 102227, Note_on_c, 2, 66, 0
4, 102240, Note_on_c, 2, 67, 100
4, 102714, Note_on_c, 2, 67, 0
4, 102720, Note_on_c, 2, 66, 100
4, 103659, Note_on_c, 2, 66, 0
4, 103680, Note_on_c, 2, 64, 100
4, 104620, Note_on_c, 2, 64, 0
4, 104640, Note_on_c, 2, 69, 100
4, 105387, Note_on_c, 2, 69, 0
4, 105480, Note_on_c, 2, 69, 100
4, 105594, Note_on_c, 2, 69, 0
4, 105600, Note_on_c, 2, 67, 100
4, 106074, Note_on_c, 2, 67, 0
4, 106080, Note_on_c, 2, 71, 100
4, 106553, Note_on_c, 2, 71, 0
4, 106560, Note_on_c, 2, 72, 100
4, 107300, Note_on_c, 2, 72, 0
4, 107400, Note_on_c, 2, 72, 100
4, 107518, Note_on_c, 2, 72, 0
4, 107520, Note_on_c, 2, 71, 100
4, 107990, Note_on_c, 2, 71, 0
4, 108000, Note_on_c, 2, 83, 100
4, 108652, Note_on_c, 2, 83, 0
4, 108720, Note_on_c, 2, 83, 100
4, 108955, Note_on_c, 2, 83, 0
4, 108960, Note_on_c, 2, 81, 100
4, 109426, Note_on_c, 2, 81, 0
4, 109440, Note_on_c, 2, 79, 100
4, 110572, Note_on_c, 2, 79, 0
4, 110640, Note_on_c, 2, 79, 100
4, 110878, Note_on_c, 2, 79, 0
4, 110880, Note_on_c, 2, 77, 100
4, 111118, Note_on_c, 2, 77, 0
4, 111120, Note_on_c, 2, 76, 100
4, 111358, Note_on_c, 2, 76, 0
4, 111360, Note_on_c, 2, 74, 100
4, 111828, Note_on_c, 2, 74, 0
4, 111840, Note_on_c, 2, 72, 100
4, 112079, Note_on_c, 2, 72, 0
4, 112080, Note_on_c, 2, 76, 100
4, 112194, Note_on_c, 2, 76, 0
4, 112200, Note_on_c, 2, 74, 100
4, 112291, Note_on_c, 2, 74, 0
4, 112320, Note_on_c, 2, 76, 100
4, 112786, Note_on_c, 2, 76, 0
4, 112800, Note_on_c, 2, 74, 100
4, 113272, Note_on_c, 2, 74, 0
4, 113280, Note_on_c, 2, 72, 100
4, 113749, Note_on_c, 2, 72, 0
4, 114000, Note_on_c, 2, 76, 100
4, 114231, Note_on_c, 2, 76, 0
4, 114240, Note_on_c, 2, 81, 100
4, 114476, Note_on_c, 2, 81, 0
4, 114480, Note_on_c, 2, 79, 100
4, 114715, Note_on_c, 2, 79, 0
4, 114720, Note_on_c, 2, 78, 100
4, 114958, Note_on_c, 2, 78, 0
4, 114960, Note_on_c, 2, 76, 100
4, 115196, Note_on_c, 2, 76, 0
4, 115200, Note_on_c, 2, 74, 100
4, 115674, Note_on_c, 2, 74, 0
4, 115680, Note_on_c, 2, 76, 100
4, 116277, Note_on_c, 2, 76, 0
4, 116400, Note_on_c, 2, 74, 100
4, 116635, Note_on_c, 2, 74, 0
4, 116640, Note_on_c, 2, 72, 100
4, 116877, Note_on_c, 2, 72, 0
4, 116880, Note_on_c, 2, 71, 100
4, 117111, Note_on_c, 2, 71, 0
4, 117120, Note_on_c, 2, 69, 100
4, 117354, Note_on_c, 2, 69, 0
4, 117360, Note_on_c, 2, 81, 100
4, 117594, Note_on_c, 2, 81, 0
4, 117600, Note_on_c, 2, 80, 100
4, 117835, Note_on_c, 2, 80, 0
4, 117840, Note_on_c, 2, 81, 100
4, 118073, Note_on_c, 2, 81, 0
4, 118080, Note_on_c, 2, 83, 100
4, 118547, Note_on_c, 2, 83, 0
4, 118560, Note_on_c, 2, 76, 100
4, 119513, Note_on_c, 2, 76, 0
4, 119520, Note_on_c, 2, 81, 100
4, 119756, Note_on_c, 2, 81, 0
4, 119760, Note_on_c, 2, 79, 100
4, 119997, Note_on_c, 2, 79, 0
4, 120000, Note_on_c, 2, 77, 100
4, 120236, Note_on_c, 2, 77, 0
4, 120240, Note_on_c, 2, 76, 100
4, 120472, Note_on_c, 2, 76, 0
4, 120480, Note_on_c, 2, 74, 100
4, 120711, Note_on_c, 2, 74, 0
4, 120720, Note_on_c, 2, 72, 100
4, 120951, Note_on_c, 2, 72, 0
4, 120960, Note_on_c, 2, 71, 100
4, 121434, Note_on_c, 2, 71, 0
4, 121440, Note_on_c, 2, 72, 100
4, 121677, Note_on_c, 2, 72, 0
4, 121680, Note_on_c, 2, 74, 100
4, 121915, Note_on_c, 2, 74, 0
4, 121920, Note_on_c, 2, 76, 100
4, 122128, Note_on_c, 2, 76, 0
4, 122160, Note_on_c, 2, 76, 100
4, 122394, Note_on_c, 2, 76, 0
4, 122400, Note_on_c, 2, 77, 100
4, 122631, Note_on_c, 2, 77, 0
4, 122640, Note_on_c, 2, 79, 100
4, 122875, Note_on_c, 2, 79, 0
4, 122880, Note_on_c, 2, 81, 100
4, 123096, Note_on_c, 2, 81, 0
4, 123120, Note_on_c, 2, 81, 100
4, 123351, Note_on_c, 2, 81, 0
4, 123360, Note_on_c, 2, 83, 100
4, 123598, Note_on_c, 2, 83, 0
4, 123600, Note_on_c, 2, 84, 100
4, 123838, Note_on_c, 2, 84, 0
4, 123840, Note_on_c, 2, 83, 100
4, 124073, Note_on_c, 2, 83, 0
4, 124080, Note_on_c, 2, 80, 100
4, 124313, Note_on_c, 2, 80, 0
4, 124320, Note_on_c, 2, 76, 100
4, 124551, Note_on_c, 2, 76, 0
4, 124560, Note_on_c, 2, 74, 100
4, 124792, Note_on_c, 2, 74, 0
4, 124800, Note_on_c, 2, 72, 100
4, 125032, Note_on_c, 2, 72, 0
4, 125040, Note_on_c, 2, 74, 100
4, 125271, Note_on_c, 2, 74, 0
4, 125280, Note_on_c, 2, 76, 100
4, 125516, Note_on_c, 2, 76, 0
4, 125520, Note_on_c, 2, 74, 100
4, 125759, Note_on_c, 2, 74, 0
4, 125760, Note_on_c, 2, 72, 100
4, 126232, Note_on_c, 2, 72, 0
4, 126240, Note_on_c, 2, 84, 100
4, 126713, Note_on_c, 2, 84, 0
4, 126720, Note_on_c, 2, 84, 100
4, 126937, Note_on_c, 2, 84, 0
4, 126960, Note_on_c, 2, 84, 100
4, 127191, Note_on_c, 2, 84, 0
4, 127200, Note_on_c, 2, 83, 100
4, 127670, Note_on_c, 2, 83, 0
4, 127680, Note_on_c, 2, 83, 100
4, 127899, Note_on_c, 2, 83, 0
4, 127920, Note_on_c, 2, 83, 100
4, 128156, Note_on_c, 2, 83, 0
4, 128160, Note_on_c, 2, 81, 100
4, 128397, Note_on_c, 2, 81, 0
4, 128400, Note_on_c, 2, 79, 100
4, 128633, Note_on_c, 2, 79, 0
4, 128640, Note_on_c, 2, 78, 100
4, 129111, Note_on_c, 2, 78, 0
4, 129120, Note_on_c, 2, 77, 100
4, 129586, Note_on_c, 2, 77, 0
4, 129600, Note_on_c, 2, 76, 100
4, 131691, Note_on_c, 2, 76, 0
4, 131760, Note_on_c, 2, 76, 100
4, 131996, Note_on_c, 2, 76, 0
4, 132000, Note_on_c, 2, 74, 100
4, 133422, Note_on_c, 2, 74, 0
4, 133440, Note_on_c, 2, 72, 100
4, 134144, Note_on_c, 2, 72, 0
4, 134280, Note_on_c, 2, 72, 100
4, 134400, Note_on_c, 2, 72, 0
4, 134400, Note_on_c, 2, 71, 100
4, 134636, Note_on_c, 2, 71, 0
4, 134640, Note_on_c, 2, 76, 100
4, 134878, Note_on_c, 2, 76, 0
4, 134880, Note_on_c, 2, 74, 100
4, 135119, Note_on_c, 2, 74, 0
4, 135120, Note_on_c, 2, 77, 100
4, 135831, Note_on_c, 2, 77, 0
4, 135840, Note_on_c, 2, 76, 100
4, 136075, Note_on_c, 2, 76, 0
4, 136080, Note_on_c, 2, 75, 100
4, 136315, Note_on_c, 2, 75, 0
4, 136320, Note_on_c, 2, 74, 100
4, 136555, Note_on_c, 2, 74, 0
4, 136560, Note_on_c, 2, 76, 100
4, 136794, Note_on_c, 2, 76, 0
4, 136800, Note_on_c, 2, 74, 100
4, 137032, Note_on_c, 2, 74, 0
4, 137040, Note_on_c, 2, 77, 100
4, 137279, Note_on_c, 2, 77, 0
4, 137280, Note_on_c, 2, 76, 100
4, 138222, Note_on_c, 2, 76, 0
4, 138240, Note_on_c, 2, 74, 100
4, 138943, Note_on_c, 2, 74, 0
4, 138960, Note_on_c, 2, 76, 100
4, 139079, Note_on_c, 2, 76, 0
4, 139080, Note_on_c, 2, 78, 100
4, 139169, Note_on_c, 2, 78, 0
4, 139200, Note_on_c, 2, 79, 100
4, 139432, Note_on_c, 2, 79, 0
4, 139440, Note_on_c, 2, 78, 100
4, 139560, Note_on_c, 2, 78, 0
4, 139560, Note_on_c, 2, 79, 100
4, 139668, Note_on_c, 2, 79, 0
4, 139680, Note_on_c, 2, 81, 100
4, 139918, Note_on_c, 2, 81, 0
4, 139920, Note_on_c, 2, 79, 100
4, 140025, Note_on_c, 2, 79, 0
4, 140040, Note_on_c, 2, 81, 100
4, 140155, Note_on_c, 2, 81, 0
4, 140160, Note_on_c, 2, 74, 100
4, 140862, Note_on_c, 2, 74, 0
4, 140880, Note_on_c, 2, 72, 100
4, 141114, Note_on_c, 2, 72, 0
4, 141120, Note_on_c, 2, 74, 100
4, 141357, Note_on_c, 2, 74, 0
4, 141360, Note_on_c, 2, 76, 100
4, 141478, Note_on_c, 2, 76, 0
4, 141480, Note_on_c, 2, 78, 100
4, 141596, Note_on_c, 2, 78, 0
4, 141600, Note_on_c, 2, 79, 100
4, 141838, Note_on_c, 2, 79, 0
4, 141840, Note_on_c, 2, 77, 100
4, 142075, Note_on_c, 2, 77, 0
4, 142080, Note_on_c, 2, 76, 100
4, 142550, Note_on_c, 2, 76, 0
4, 142560, Note_on_c, 2, 77, 100
4, 142795, Note_on_c, 2, 77, 0
4, 142800, Note_on_c, 2, 79, 100
4, 143032, Note_on_c, 2, 79, 0
4, 143040, Note_on_c, 2, 81, 100
4, 143509, Note_on_c, 2, 81, 0
4, 143520, Note_on_c, 2, 76, 100
4, 143757, Note_on_c, 2, 76, 0
4, 143760, Note_on_c, 2, 78, 100
4, 143994, Note_on_c, 2, 78, 0
4, 144000, Note_on_c, 2, 79, 100
4, 144707, Note_on_c, 2, 79, 0
4, 144720, Note_on_c, 2, 78, 100
4, 144957, Note_on_c, 2, 78, 0
4, 144960, Note_on_c, 2, 79, 100
4, 145193, Note_on_c, 2, 79, 0
4, 145200, Note_on_c, 2, 81, 100
4, 145434, Note_on_c, 2, 81, 0
4, 145440, Note_on_c, 2, 82, 100
4, 145677, Note_on_c, 2, 82, 0
4, 145680, Note_on_c, 2, 81, 100
4, 145920, Note_on_c, 2, 79, 100
4, 146153, Note_on_c, 2, 81, 0
4, 146630, Note_on_c, 2, 79, 0
4, 146640, Note_on_c, 2, 77, 100
4, 146875, Note_on_c, 2, 77, 0
4, 146880, Note_on_c, 2, 76, 100
4, 147354, Note_on_c, 2, 76, 0
4, 147360, Note_on_c, 2, 77, 100
4, 147834, Note_on_c, 2, 77, 0
4, 147840, Note_on_c, 2, 76, 100
4, 148784, Note_on_c, 2, 76, 0
4, 148800, Note_on_c, 2, 74, 100
4, 149502, Note_on_c, 2, 74, 0
4, 149520, Note_on_c, 2, 72, 100
4, 149756, Note_on_c, 2, 72, 0
4, 149760, Note_on_c, 2, 71, 100
4, 150231, Note_on_c, 2, 71, 0
4, 150240, Note_on_c, 2, 72, 100
4, 150475, Note_on_c, 2, 72, 0
4, 150480, Note_on_c, 2, 71, 100
4, 150715, Note_on_c, 2, 71, 0
4, 151200, Note_on_c, 2, 74, 100
4, 152147, Note_on_c, 2, 74, 0
4, 152160, Note_on_c, 2, 79, 100
4, 152396, Note_on_c, 2, 79, 0
4, 152400, Note_on_c, 2, 77, 100
4, 152638, Note_on_c, 2, 77, 0
4, 152640, Note_on_c, 2, 76, 100
4, 153108, Note_on_c, 2, 76, 0
4, 153120, Note_on_c, 2, 74, 100
4, 153351, Note_on_c, 2, 74, 0
4, 153360, Note_on_c, 2, 72, 100
4, 153591, Note_on_c, 2, 72, 0
4, 153600, Note_on_c, 2, 74, 100
4, 154543, Note_on_c, 2, 74, 0
4, 154560, Note_on_c, 2, 79, 100
4, 155269, Note_on_c, 2, 79, 0
4, 155280, Note_on_c, 2, 77, 100
4, 155516, Note_on_c, 2, 77, 0
4, 155520, Note_on_c, 2, 76, 100
4, 155990, Note_on_c, 2, 76, 0
4, 156000, Note_on_c, 2, 74, 100
4, 156238, Note_on_c, 2, 74, 0
4, 156240, Note_on_c, 2, 72, 100
4, 156479, Note_on_c, 2, 72, 0
4, 156720, Note_on_c, 2, 74, 100
4, 156956, Note_on_c, 2, 74, 0
4, 156960, Note_on_c, 2, 79, 100
4, 157604, Note_on_c, 2, 79, 0
4, 157680, Note_on_c, 2, 77, 100
4, 157913, Note_on_c, 2, 77, 0
4, 157920, Note_on_c, 2, 76, 100
4, 158387, Note_on_c, 2, 76, 0
4, 158400, Note_on_c, 2, 78, 100
4, 158868, Note_on_c, 2, 78, 0
4, 158880, Note_on_c, 2, 79, 100
4, 159116, Note_on_c, 2, 79, 0
4, 159120, Note_on_c, 2, 78, 100
4, 159358, Note_on_c, 2, 78, 0
4, 159360, Note_on_c, 2, 76, 100
4, 159599, Note_on_c, 2, 76, 0
4, 159600, Note_on_c, 2, 74, 100
4, 159839, Note_on_c, 2, 74, 0
4, 159840, Note_on_c, 2, 72, 100
4, 160076, Note_on_c, 2, 72, 0
4, 160080, Note_on_c, 2, 76, 100
4, 160312, Note_on_c, 2, 76, 0
4, 160320, Note_on_c, 2, 74, 100
4, 161456, Note_on_c, 2, 74, 0
4, 161520, Note_on_c, 2, 74, 100
4, 161757, Note_on_c, 2, 74, 0
4, 161760, Note_on_c, 2, 72, 100
4, 161993, Note_on_c, 2, 72, 0
4, 162000, Note_on_c, 2, 71, 100
4, 162239, Note_on_c, 2, 71, 0
4, 162240, Note_on_c, 2, 69, 100
4, 162710, Note_on_c, 2, 69, 0
4, 162720, Note_on_c, 2, 71, 100
4, 163192, Note_on_c, 2, 71, 0
4, 163200, Note_on_c, 2, 69, 100
4, 164143, Note_on_c, 2, 69, 0
4, 164160, Note_on_c, 2, 67, 100
4, 165098, Note_on_c, 2, 67, 0
4, 165120, Note_on_c, 2, 62, 100
4, 166062, Note_on_c, 2, 62, 0
4, 166080, Note_on_c, 2, 67, 100
4, 166785, Note_on_c, 2, 67, 0
4, 166800, Note_on_c, 2, 65, 100
4, 167038, Note_on_c, 2, 65, 0
4, 167040, Note_on_c, 2, 64, 100
4, 167510, Note_on_c, 2, 64, 0
4, 167520, Note_on_c, 2, 69, 100
4, 167988, Note_on_c, 2, 69, 0
4, 168000, Note_on_c, 2, 67, 100
4, 169194, Note_on_c, 2, 67, 0
4, 169200, Note_on_c, 2, 71, 100
4, 169436, Note_on_c, 2, 71, 0
4, 169680, Note_on_c, 2, 67, 100
4, 169919, Note_on_c, 2, 67, 0
4, 169920, Note_on_c, 2, 69, 100
4, 170157, Note_on_c, 2, 69, 0
4, 170160, Note_on_c, 2, 69, 100
4, 170395, Note_on_c, 2, 69, 0
4, 170400, Note_on_c, 2, 78, 100
4, 170992, Note_on_c, 2, 78, 0
4, 171120, Note_on_c, 2, 78, 100
4, 171356, Note_on_c, 2, 78, 0
4, 171360, Note_on_c, 2, 76, 100
4, 172014, Note_on_c, 2, 76, 0
4, 172080, Note_on_c, 2, 76, 100
4, 172314, Note_on_c, 2, 76, 0
4, 172320, Note_on_c, 2, 74, 100
4, 172553, Note_on_c, 2, 74, 0
4, 172560, Note_on_c, 2, 72, 100
4, 172797, Note_on_c, 2, 72, 0
4, 172800, Note_on_c, 2, 71, 100
4, 173268, Note_on_c, 2, 71, 0
4, 173280, Note_on_c, 2, 83, 100
4, 173935, Note_on_c, 2, 83, 0
4, 174000, Note_on_c, 2, 83, 100
4, 174239, Note_on_c, 2, 83, 0
4, 174240, Note_on_c, 2, 81, 100
4, 174896, Note_on_c, 2, 81, 0
4, 174960, Note_on_c, 2, 81, 100
4, 175192, Note_on_c, 2, 81, 0
4, 175200, Note_on_c, 2, 79, 100
4, 175437, Note_on_c, 2, 79, 0
4, 175440, Note_on_c, 2, 78, 100
4, 175671, Note_on_c, 2, 78, 0
4, 175680, Note_on_c, 2, 76, 100
4, 176621, Note_on_c, 2, 76, 0
4, 176640, Note_on_c, 2, 74, 100
4, 177778, Note_on_c, 2, 74, 0
4, 177840, Note_on_c, 2, 74, 100
4, 178074, Note_on_c, 2, 74, 0
4, 178080, Note_on_c, 2, 72, 100
4, 178316, Note_on_c, 2, 72, 0
4, 178320, Note_on_c, 2, 71, 100
4, 178557, Note_on_c, 2, 71, 0
4, 178560, Note_on_c, 2, 69, 100
4, 178794, Note_on_c, 2, 69, 0
4, 178800, Note_on_c, 2, 74, 100
4, 179034, Note_on_c, 2, 74, 0
4, 179040, Note_on_c, 2, 72, 100
4, 179509, Note_on_c, 2, 72, 0
4, 179520, Note_on_c, 2, 74, 100
4, 180459, Note_on_c, 2, 74, 0
4, 180480, Note_on_c, 2, 72, 100
4, 181616, Note_on_c, 2, 72, 0
4, 181680, Note_on_c, 2, 72, 100
4, 181912, Note_on_c, 2, 72, 0
4, 181920, Note_on_c, 2, 71, 100
4, 182159, Note_on_c, 2, 71, 0
4, 182160, Note_on_c, 2, 69, 100
4, 182398, Note_on_c, 2, 69, 0
4, 182400, Note_on_c, 2, 79, 100
4, 182866, Note_on_c, 2, 79, 0
4, 182880, Note_on_c, 2, 76, 100
4, 183478, Note_on_c, 2, 76, 0
4, 183600, Note_on_c, 2, 76, 100
4, 183834, Note_on_c, 2, 76, 0
4, 183840, Note_on_c, 2, 74, 100
4, 184073, Note_on_c, 2, 74, 0
4, 184080, Note_on_c, 2, 72, 100
4, 184319, Note_on_c, 2, 72, 0
4, 185040, Note_on_c, 2, 83, 100
4, 185453, Note_on_c, 2, 83, 0
4, 185520, Note_on_c, 2, 83, 100
4, 185757, Note_on_c, 2, 83, 0
4, 185760, Note_on_c, 2, 81, 100
4, 185994, Note_on_c, 2, 81, 0
4, 186000, Note_on_c, 2, 79, 100
4, 186237, Note_on_c, 2, 79, 0
4, 186240, Note_on_c, 2, 78, 100
4, 186708, Note_on_c, 2, 78, 0
4, 186720, Note_on_c, 2, 79, 100
4, 186957, Note_on_c, 2, 79, 0
4, 186960, Note_on_c, 2, 78, 100
4, 187196, Note_on_c, 2, 78, 0
4, 187440, Note_on_c, 2, 79, 100
4, 187676, Note_on_c, 2, 79, 0
4, 187680, Note_on_c, 2, 84, 100
4, 188032, Note_on_c, 2, 84, 0
4, 188160, Note_on_c, 2, 84, 100
4, 188160, Note_on_c, 2, 74, 100
4, 188392, Note_on_c, 2, 84, 0
4, 188400, Note_on_c, 2, 83, 100
4, 188635, Note_on_c, 2, 83, 0
4, 188640, Note_on_c, 2, 81, 100
4, 188875, Note_on_c, 2, 81, 0
4, 188880, Note_on_c, 2, 79, 100
4, 189112, Note_on_c, 2, 79, 0
4, 189120, Note_on_c, 2, 81, 100
4, 190060, Note_on_c, 2, 74, 0
4, 190061, Note_on_c, 2, 81, 0
4, 190080, Note_on_c, 2, 79, 100
4, 190080, Note_on_c, 2, 76, 100
4, 190316, Note_on_c, 2, 76, 0
4, 190316, Note_on_c, 2, 79, 0
4, 205920, Note_on_c, 2, 69, 100
4, 206389, Note_on_c, 2, 69, 0
4, 206400, Note_on_c, 2, 67, 100
4, 207345, Note_on_c, 2, 67, 0
4, 207345, End_track
5, 0, Start_track
5, 0, MIDI_port, 0
5, 0, Title_t, "Bass"
5, 0, Program_c, 3, 19
5, 0, Control_c, 3, 7, 100
5, 0, Control_c, 3, 10, 74
5, 40800, Note_on_c, 3, 67, 100
5, 41036, Note_on_c, 3, 67, 0
5, 41040, Note_on_c, 3, 66, 100
5, 41277, Note_on_c, 3, 66, 0
5, 41280, Note_on_c, 3, 64, 100
5, 41751, Note_on_c, 3, 64, 0
5, 41760, Note_on_c, 3, 69, 100
5, 41991, Note_on_c, 3, 69, 0
5, 42000, Note_on_c, 3, 67, 100
5, 42234, Note_on_c, 3, 67, 0
5, 42240, Note_on_c, 3, 66, 100
5, 42710, Note_on_c, 3, 66, 0
5, 42720, Note_on_c, 3, 67, 100
5, 43105, Note_on_c, 3, 67, 0
5, 43200, Note_on_c, 3, 67, 100
5, 43666, Note_on_c, 3, 67, 0
5, 43680, Note_on_c, 3, 69, 100
5, 44336, Note_on_c, 3, 69, 0
5, 44400, Note_on_c, 3, 69, 100
5, 44637, Note_on_c, 3, 69, 0
5, 44640, Note_on_c, 3, 71, 100
5, 44877, Note_on_c, 3, 71, 0
5, 44880, Note_on_c, 3, 72, 100
5, 45114, Note_on_c, 3, 72, 0
5, 45120, Note_on_c, 3, 74, 100
5, 45822, Note_on_c, 3, 74, 0
5, 45840, Note_on_c, 3, 72, 100
5, 46077, Note_on_c, 3, 72, 0
5, 46080, Note_on_c, 3, 71, 100
5, 46311, Note_on_c, 3, 71, 0
5, 46320, Note_on_c, 3, 69, 100
5, 46554, Note_on_c, 3, 69, 0
5, 46560, Note_on_c, 3, 67, 100
5, 47029, Note_on_c, 3, 67, 0
5, 47040, Note_on_c, 3, 66, 100
5, 47274, Note_on_c, 3, 66, 0
5, 47280, Note_on_c, 3, 64, 100
5, 47399, Note_on_c, 3, 64, 0
5, 47400, Note_on_c, 3, 62, 100
5, 47518, Note_on_c, 3, 62, 0
5, 47520, Note_on_c, 3, 67, 100
5, 48172, Note_on_c, 3, 67, 0
5, 48240, Note_on_c, 3, 67, 100
5, 48476, Note_on_c, 3, 67, 0
5, 48480, Note_on_c, 3, 66, 100
5, 48715, Note_on_c, 3, 66, 0
5, 48720, Note_on_c, 3, 64, 100
5, 48957, Note_on_c, 3, 64, 0
5, 48960, Note_on_c, 3, 62, 100
5, 49899, Note_on_c, 3, 62, 0
5, 49920, Note_on_c, 3, 69, 100
5, 50389, Note_on_c, 3, 69, 0
5, 50400, Note_on_c, 3, 62, 100
5, 50633, Note_on_c, 3, 62, 0
5, 50640, Note_on_c, 3, 64, 100
5, 50878, Note_on_c, 3, 64, 0
5, 50880, Note_on_c, 3, 66, 100
5, 51115, Note_on_c, 3, 66, 0
5, 51120, Note_on_c, 3, 67, 100
5, 51353, Note_on_c, 3, 67, 0
5, 51360, Note_on_c, 3, 69, 100
5, 52012, Note_on_c, 3, 69, 0
5, 52080, Note_on_c, 3, 69, 100
5, 52319, Note_on_c, 3, 69, 0
5, 52320, Note_on_c, 3, 67, 100
5, 52556, Note_on_c, 3, 67, 0
5, 52560, Note_on_c, 3, 66, 100
5, 52794, Note_on_c, 3, 66, 0
5, 52800, Note_on_c, 3, 64, 100
5, 53273, Note_on_c, 3, 64, 0
5, 53280, Note_on_c, 3, 69, 100
5, 53939, Note_on_c, 3, 69, 0
5, 54000, Note_on_c, 3, 67, 100
5, 54235, Note_on_c, 3, 67, 0
5, 54240, Note_on_c, 3, 66, 100
5, 54896, Note_on_c, 3, 66, 0
5, 54960, Note_on_c, 3, 66, 100
5, 55199, Note_on_c, 3, 66, 0
5, 55200, Note_on_c, 3, 64, 100
5, 55435, Note_on_c, 3, 64, 0
5, 55440, Note_on_c, 3, 62, 100
5, 55679, Note_on_c, 3, 62, 0
5, 55680, Note_on_c, 3, 61, 100
5, 56151, Note_on_c, 3, 61, 0
5, 56160, Note_on_c, 3, 62, 100
5, 56397, Note_on_c, 3, 62, 0
5, 56400, Note_on_c, 3, 64, 100
5, 56633, Note_on_c, 3, 64, 0
5, 56640, Note_on_c, 3, 66, 100
5, 56877, Note_on_c, 3, 66, 0
5, 56880, Note_on_c, 3, 67, 100
5, 57115, Note_on_c, 3, 67, 0
5, 57120, Note_on_c, 3, 69, 100
5, 59878, Note_on_c, 3, 69, 0
5, 60000, Note_on_c, 3, 74, 100
5, 60237, Note_on_c, 3, 74, 0
5, 60240, Note_on_c, 3, 73, 100
5, 60479, Note_on_c, 3, 73, 0
5, 60480, Note_on_c, 3, 71, 100
5, 60953, Note_on_c, 3, 71, 0
5, 60960, Note_on_c, 3, 76, 100
5, 61194, Note_on_c, 3, 76, 0
5, 61200, Note_on_c, 3, 74, 100
5, 61433, Note_on_c, 3, 74, 0
5, 61440, Note_on_c, 3, 73, 100
5, 61912, Note_on_c, 3, 73, 0
5, 61920, Note_on_c, 3, 74, 100
5, 62152, Note_on_c, 3, 74, 0
5, 62160, Note_on_c, 3, 76, 100
5, 62393, Note_on_c, 3, 76, 0
5, 62400, Note_on_c, 3, 74, 100
5, 62632, Note_on_c, 3, 74, 0
5, 62640, Note_on_c, 3, 73, 100
5, 62879, Note_on_c, 3, 73, 0
5, 62880, Note_on_c, 3, 71, 100
5, 63351, Note_on_c, 3, 71, 0
5, 63360, Note_on_c, 3, 66, 100
5, 64304, Note_on_c, 3, 66, 0
5, 64320, Note_on_c, 3, 64, 100
5, 65023, Note_on_c, 3, 64, 0
5, 65040, Note_on_c, 3, 62, 100
5, 65279, Note_on_c, 3, 62, 0
5, 65280, Note_on_c, 3, 61, 100
5, 65753, Note_on_c, 3, 61, 0
5, 65760, Note_on_c, 3, 62, 100
5, 66229, Note_on_c, 3, 62, 0
5, 66240, Note_on_c, 3, 64, 100
5, 66475, Note_on_c, 3, 64, 0
5, 66480, Note_on_c, 3, 66, 100
5, 66716, Note_on_c, 3, 66, 0
5, 66720, Note_on_c, 3, 67, 100
5, 67435, Note_on_c, 3, 67, 0
5, 67440, Note_on_c, 3, 66, 100
5, 67672, Note_on_c, 3, 66, 0
5, 67680, Note_on_c, 3, 71, 100
5, 68148, Note_on_c, 3, 71, 0
5, 68160, Note_on_c, 3, 66, 100
5, 69591, Note_on_c, 3, 66, 0
5, 69600, Note_on_c, 3, 67, 100
5, 70546, Note_on_c, 3, 67, 0
5, 70560, Note_on_c, 3, 69, 100
5, 71507, Note_on_c, 3, 69, 0
5, 71520, Note_on_c, 3, 71, 100
5, 72474, Note_on_c, 3, 71, 0
5, 72480, Note_on_c, 3, 69, 100
5, 72716, Note_on_c, 3, 69, 0
5, 72720, Note_on_c, 3, 67, 100
5, 72959, Note_on_c, 3, 67, 0
5, 72960, Note_on_c, 3, 66, 100
5, 73171, Note_on_c, 3, 66, 0
5, 73200, Note_on_c, 3, 67, 100
5, 73436, Note_on_c, 3, 67, 0
5, 73440, Note_on_c, 3, 66, 100
5, 73676, Note_on_c, 3, 66, 0
5, 73680, Note_on_c, 3, 64, 100
5, 73918, Note_on_c, 3, 64, 0
5, 73920, Note_on_c, 3, 62, 100
5, 74861, Note_on_c, 3, 62, 0
5, 74880, Note_on_c, 3, 64, 100
5, 75822, Note_on_c, 3, 64, 0
5, 75840, Note_on_c, 3, 69, 100
5, 76311, Note_on_c, 3, 69, 0
5, 76320, Note_on_c, 3, 67, 100
5, 76556, Note_on_c, 3, 67, 0
5, 76560, Note_on_c, 3, 72, 100
5, 76791, Note_on_c, 3, 72, 0
5, 76800, Note_on_c, 3, 71, 100
5, 76909, Note_on_c, 3, 71, 0
5, 76920, Note_on_c, 3, 66, 100
5, 77037, Note_on_c, 3, 66, 0
5, 77040, Note_on_c, 3, 67, 100
5, 77148, Note_on_c, 3, 67, 0
5, 77160, Note_on_c, 3, 61, 100
5, 77276, Note_on_c, 3, 61, 0
5, 77280, Note_on_c, 3, 62, 100
5, 78144, Note_on_c, 3, 62, 0
5, 78240, Note_on_c, 3, 71, 100
5, 78710, Note_on_c, 3, 71, 0
5, 78720, Note_on_c, 3, 69, 100
5, 79663, Note_on_c, 3, 69, 0
5, 79680, Note_on_c, 3, 68, 100
5, 79915, Note_on_c, 3, 68, 0
5, 79920, Note_on_c, 3, 66, 100
5, 80034, Note_on_c, 3, 66, 0
5, 80040, Note_on_c, 3, 64, 100
5, 80154, Note_on_c, 3, 64, 0
5, 80160, Note_on_c, 3, 69, 100
5, 80875, Note_on_c, 3, 69, 0
5, 80880, Note_on_c, 3, 62, 100
5, 81353, Note_on_c, 3, 62, 0
5, 81360, Note_on_c, 3, 60, 100
5, 81593, Note_on_c, 3, 60, 0
5, 81600, Note_on_c, 3, 59, 100
5, 82068, Note_on_c, 3, 59, 0
5, 82080, Note_on_c, 3, 60, 100
5, 82548, Note_on_c, 3, 60, 0
5, 82560, Note_on_c, 3, 62, 100
5, 83499, Note_on_c, 3, 62, 0
5, 83520, Note_on_c, 3, 64, 100
5, 86147, Note_on_c, 3, 64, 0
5, 86160, Note_on_c, 3, 69, 100
5, 86280, Note_on_c, 3, 67, 100
5, 86282, Note_on_c, 3, 69, 0
5, 86398, Note_on_c, 3, 67, 0
5, 86400, Note_on_c, 3, 66, 100
5, 86635, Note_on_c, 3, 66, 0
5, 86640, Note_on_c, 3, 64, 100
5, 86760, Note_on_c, 3, 64, 0
5, 86760, Note_on_c, 3, 62, 100
5, 86877, Note_on_c, 3, 62, 0
5, 86880, Note_on_c, 3, 67, 100
5, 87827, Note_on_c, 3, 67, 0
5, 87840, Note_on_c, 3, 69, 100
5, 88555, Note_on_c, 3, 69, 0
5, 88560, Note_on_c, 3, 67, 100
5, 88796, Note_on_c, 3, 67, 0
5, 88800, Note_on_c, 3, 66, 100
5, 89267, Note_on_c, 3, 66, 0
5, 89280, Note_on_c, 3, 64, 100
5, 89754, Note_on_c, 3, 64, 0
5, 89760, Note_on_c, 3, 67, 100
5, 90229, Note_on_c, 3, 67, 0
5, 90240, Note_on_c, 3, 69, 100
5, 91185, Note_on_c, 3, 69, 0
5, 91200, Note_on_c, 3, 71, 100
5, 91438, Note_on_c, 3, 71, 0
5, 91440, Note_on_c, 3, 72, 100
5, 91671, Note_on_c, 3, 72, 0
5, 91680, Note_on_c, 3, 74, 100
5, 92338, Note_on_c, 3, 74, 0
5, 92400, Note_on_c, 3, 74, 100
5, 92634, Note_on_c, 3, 74, 0
5, 92640, Note_on_c, 3, 72, 100
5, 92874, Note_on_c, 3, 72, 0
5, 92880, Note_on_c, 3, 71, 100
5, 93117, Note_on_c, 3, 71, 0
5, 93120, Note_on_c, 3, 69, 100
5, 94059, Note_on_c, 3, 69, 0
5, 94080, Note_on_c, 3, 71, 100
5, 94314, Note_on_c, 3, 71, 0
5, 94320, Note_on_c, 3, 75, 100
5, 94554, Note_on_c, 3, 75, 0
5, 94560, Note_on_c, 3, 76, 100
5, 95031, Note_on_c, 3, 76, 0
5, 95040, Note_on_c, 3, 71, 100
5, 96473, Note_on_c, 3, 71, 0
5, 96480, Note_on_c, 3, 64, 100
5, 97428, Note_on_c, 3, 64, 0
5, 97440, Note_on_c, 3, 66, 100
5, 98394, Note_on_c, 3, 66, 0
5, 98400, Note_on_c, 3, 67, 100
5, 98868, Note_on_c, 3, 67, 0
5, 98880, Note_on_c, 3, 67, 100
5, 99116, Note_on_c, 3, 67, 0
5, 99120, Note_on_c, 3, 68, 100
5, 99357, Note_on_c, 3, 68, 0
5, 99360, Note_on_c, 3, 69, 100
5, 99596, Note_on_c, 3, 69, 0
5, 99600, Note_on_c, 3, 64, 100
5, 99831, Note_on_c, 3, 64, 0
5, 99840, Note_on_c, 3, 66, 100
5, 100312, Note_on_c, 3, 66, 0
5, 100320, Note_on_c, 3, 67, 100
5, 100553, Note_on_c, 3, 67, 0
5, 100560, Note_on_c, 3, 66, 100
5, 100794, Note_on_c, 3, 66, 0
5, 100800, Note_on_c, 3, 64, 100
5, 101740, Note_on_c, 3, 64, 0
5, 101760, Note_on_c, 3, 59, 100
5, 104150, Note_on_c, 3, 59, 0
5, 104160, Note_on_c, 3, 64, 100
5, 104815, Note_on_c, 3, 64, 0
5, 104880, Note_on_c, 3, 64, 100
5, 105119, Note_on_c, 3, 64, 0
5, 105120, Note_on_c, 3, 63, 100
5, 105592, Note_on_c, 3, 63, 0
5, 105600, Note_on_c, 3, 64, 100
5, 106073, Note_on_c, 3, 64, 0
5, 106080, Note_on_c, 3, 67, 100
5, 106731, Note_on_c, 3, 67, 0
5, 106800, Note_on_c, 3, 67, 100
5, 107036, Note_on_c, 3, 67, 0
5, 107040, Note_on_c, 3, 66, 100
5, 107512, Note_on_c, 3, 66, 0
5, 107520, Note_on_c, 3, 67, 100
5, 108090, Note_on_c, 3, 67, 0
5, 108120, Note_on_c, 3, 69, 100
5, 108237, Note_on_c, 3, 69, 0
5, 108240, Note_on_c, 3, 67, 100
5, 108360, Note_on_c, 3, 65, 100
5, 108361, Note_on_c, 3, 67, 0
5, 108452, Note_on_c, 3, 65, 0
5, 108480, Note_on_c, 3, 64, 100
5, 108600, Note_on_c, 3, 65, 100
5, 108602, Note_on_c, 3, 64, 0
5, 108715, Note_on_c, 3, 65, 0
5, 108720, Note_on_c, 3, 64, 100
5, 108840, Note_on_c, 3, 62, 100
5, 108841, Note_on_c, 3, 64, 0
5, 108925, Note_on_c, 3, 62, 0
5, 108960, Note_on_c, 3, 60, 100
5, 109074, Note_on_c, 3, 60, 0
5, 109080, Note_on_c, 3, 64, 100
5, 109199, Note_on_c, 3, 64, 0
5, 109200, Note_on_c, 3, 62, 100
5, 109318, Note_on_c, 3, 62, 0
5, 109320, Note_on_c, 3, 60, 100
5, 109406, Note_on_c, 3, 60, 0
5, 109440, Note_on_c, 3, 67, 100
5, 109906, Note_on_c, 3, 67, 0
5, 109920, Note_on_c, 3, 60, 100
5, 110390, Note_on_c, 3, 60, 0
5, 110400, Note_on_c, 3, 60, 100
5, 110639, Note_on_c, 3, 60, 0
5, 110640, Note_on_c, 3, 62, 100
5, 110760, Note_on_c, 3, 64, 100
5, 110761, Note_on_c, 3, 62, 0
5, 110879, Note_on_c, 3, 64, 0
5, 110880, Note_on_c, 3, 65, 100
5, 111353, Note_on_c, 3, 65, 0
5, 111360, Note_on_c, 3, 67, 100
5, 113675, Note_on_c, 3, 67, 0
5, 113760, Note_on_c, 3, 69, 100
5, 115102, Note_on_c, 3, 69, 0
5, 115200, Note_on_c, 3, 71, 100
5, 115434, Note_on_c, 3, 71, 0
5, 115440, Note_on_c, 3, 69, 100
5, 115677, Note_on_c, 3, 69, 0
5, 115680, Note_on_c, 3, 67, 100
5, 115917, Note_on_c, 3, 67, 0
5, 115920, Note_on_c, 3, 66, 100
5, 116156, Note_on_c, 3, 66, 0
5, 116160, Note_on_c, 3, 64, 100
5, 116632, Note_on_c, 3, 64, 0
5, 116640, Note_on_c, 3, 69, 100
5, 117112, Note_on_c, 3, 69, 0
5, 117120, Note_on_c, 3, 62, 100
5, 117829, Note_on_c, 3, 62, 0
5, 117840, Note_on_c, 3, 60, 100
5, 118072, Note_on_c, 3, 60, 0
5, 118080, Note_on_c, 3, 59, 100
5, 118546, Note_on_c, 3, 59, 0
5, 118560, Note_on_c, 3, 71, 100
5, 119026, Note_on_c, 3, 71, 0
5, 119040, Note_on_c, 3, 72, 100
5, 119274, Note_on_c, 3, 72, 0
5, 119280, Note_on_c, 3, 71, 100
5, 119518, Note_on_c, 3, 71, 0
5, 119520, Note_on_c, 3, 69, 100
5, 120470, Note_on_c, 3, 69, 0
5, 120480, Note_on_c, 3, 71, 100
5, 120950, Note_on_c, 3, 71, 0
5, 120960, Note_on_c, 3, 64, 100
5, 121667, Note_on_c, 3, 64, 0
5, 121680, Note_on_c, 3, 62, 100
5, 121912, Note_on_c, 3, 62, 0
5, 121920, Note_on_c, 3, 69, 100
5, 122628, Note_on_c, 3, 69, 0
5, 122640, Note_on_c, 3, 67, 100
5, 122877, Note_on_c, 3, 67, 0
5, 122880, Note_on_c, 3, 74, 100
5, 123117, Note_on_c, 3, 74, 0
5, 123120, Note_on_c, 3, 69, 100
5, 123356, Note_on_c, 3, 69, 0
5, 123360, Note_on_c, 3, 64, 100
5, 123700, Note_on_c, 3, 64, 0
5, 123840, Note_on_c, 3, 64, 100
5, 124548, Note_on_c, 3, 64, 0
5, 124560, Note_on_c, 3, 65, 100
5, 124797, Note_on_c, 3, 65, 0
5, 124800, Note_on_c, 3, 64, 100
5, 125877, Note_on_c, 3, 64, 0
5, 125880, Note_on_c, 3, 69, 100
5, 125994, Note_on_c, 3, 69, 0
5, 126000, Note_on_c, 3, 67, 100
5, 126119, Note_on_c, 3, 67, 0
5, 126120, Note_on_c, 3, 65, 100
5, 126211, Note_on_c, 3, 65, 0
5, 126240, Note_on_c, 3, 64, 100
5, 126354, Note_on_c, 3, 64, 0
5, 126360, Note_on_c, 3, 62, 100
5, 126477, Note_on_c, 3, 62, 0
5, 126480, Note_on_c, 3, 64, 100
5, 126594, Note_on_c, 3, 64, 0
5, 126600, Note_on_c, 3, 60, 100
5, 126714, Note_on_c, 3, 60, 0
5, 126720, Note_on_c, 3, 62, 100
5, 126958, Note_on_c, 3, 62, 0
5, 126960, Note_on_c, 3, 64, 100
5, 127077, Note_on_c, 3, 64, 0
5, 127080, Note_on_c, 3, 65, 100
5, 127183, Note_on_c, 3, 65, 0
5, 127200, Note_on_c, 3, 67, 100
5, 127799, Note_on_c, 3, 67, 0
5, 127800, Note_on_c, 3, 64, 100
5, 127915, Note_on_c, 3, 64, 0
5, 127920, Note_on_c, 3, 69, 100
5, 128034, Note_on_c, 3, 69, 0
5, 128040, Note_on_c, 3, 68, 100
5, 128154, Note_on_c, 3, 68, 0
5, 128160, Note_on_c, 3, 69, 100
5, 128725, Note_on_c, 3, 69, 0
5, 128760, Note_on_c, 3, 69, 100
5, 128880, Note_on_c, 3, 69, 0
5, 128880, Note_on_c, 3, 71, 100
5, 128996, Note_on_c, 3, 71, 0
5, 129000, Note_on_c, 3, 72, 100
5, 129116, Note_on_c, 3, 72, 0
5, 129120, Note_on_c, 3, 74, 100
5, 129237, Note_on_c, 3, 74, 0
5, 129240, Note_on_c, 3, 72, 100
5, 129360, Note_on_c, 3, 72, 0
5, 129360, Note_on_c, 3, 71, 100
5, 129480, Note_on_c, 3, 71, 0
5, 129480, Note_on_c, 3, 72, 100
5, 129594, Note_on_c, 3, 72, 0
5, 129600, Note_on_c, 3, 72, 100
5, 129650, Note_on_c, 3, 72, 0
5, 129650, Note_on_c, 3, 71, 100
5, 129700, Note_on_c, 3, 71, 0
5, 129700, Note_on_c, 3, 72, 100
5, 129750, Note_on_c, 3, 72, 0
5, 129750, Note_on_c, 3, 71, 100
5, 129800, Note_on_c, 3, 71, 0
5, 129800, Note_on_c, 3, 72, 100
5, 129850, Note_on_c, 3, 72, 0
5, 129850, Note_on_c, 3, 71, 100
5, 129900, Note_on_c, 3, 71, 0
5, 129900, Note_on_c, 3, 72, 100
5, 129950, Note_on_c, 3, 72, 0
5, 129950, Note_on_c, 3, 71, 100
5, 129960, Note_on_c, 3, 69, 100
5, 130000, Note_on_c, 3, 71, 0
5, 130020, Note_on_c, 3, 71, 100
5, 130023, Note_on_c, 3, 69, 0
5, 130080, Note_on_c, 3, 72, 100
5, 130083, Note_on_c, 3, 71, 0
5, 130313, Note_on_c, 3, 72, 0
5, 130320, Note_on_c, 3, 74, 100
5, 130558, Note_on_c, 3, 74, 0
5, 130560, Note_on_c, 3, 76, 100
5, 130792, Note_on_c, 3, 76, 0
5, 130800, Note_on_c, 3, 71, 100
5, 130920, Note_on_c, 3, 74, 100
5, 130922, Note_on_c, 3, 71, 0
5, 130975, Note_on_c, 3, 74, 0
5, 130980, Note_on_c, 3, 72, 100
5, 131035, Note_on_c, 3, 72, 0
5, 131040, Note_on_c, 3, 74, 100
5, 131507, Note_on_c, 3, 74, 0
5, 131520, Note_on_c, 3, 72, 100
5, 131752, Note_on_c, 3, 72, 0
5, 131760, Note_on_c, 3, 71, 100
5, 131992, Note_on_c, 3, 71, 0
5, 132000, Note_on_c, 3, 69, 100
5, 132469, Note_on_c, 3, 69, 0
5, 132480, Note_on_c, 3, 68, 100
5, 132946, Note_on_c, 3, 68, 0
5, 132960, Note_on_c, 3, 68, 100
5, 133199, Note_on_c, 3, 68, 0
5, 133200, Note_on_c, 3, 66, 100
5, 133316, Note_on_c, 3, 66, 0
5, 133320, Note_on_c, 3, 64, 100
5, 133435, Note_on_c, 3, 64, 0
5, 133440, Note_on_c, 3, 69, 100
5, 134377, Note_on_c, 3, 69, 0
5, 134400, Note_on_c, 3, 67, 100
5, 134638, Note_on_c, 3, 67, 0
5, 134640, Note_on_c, 3, 69, 100
5, 134754, Note_on_c, 3, 69, 0
5, 134760, Note_on_c, 3, 70, 100
5, 134879, Note_on_c, 3, 70, 0
5, 134880, Note_on_c, 3, 69, 100
5, 135353, Note_on_c, 3, 69, 0
5, 135360, Note_on_c, 3, 74, 100
5, 135830, Note_on_c, 3, 74, 0
5, 135840, Note_on_c, 3, 72, 100
5, 136307, Note_on_c, 3, 72, 0
5, 136320, Note_on_c, 3, 70, 100
5, 136791, Note_on_c, 3, 70, 0
5, 136800, Note_on_c, 3, 69, 100
5, 138595, Note_on_c, 3, 69, 0
5, 138720, Note_on_c, 3, 74, 100
5, 139371, Note_on_c, 3, 74, 0
5, 139440, Note_on_c, 3, 74, 100
5, 139673, Note_on_c, 3, 74, 0
5, 139680, Note_on_c, 3, 72, 100
5, 140332, Note_on_c, 3, 72, 0
5, 140400, Note_on_c, 3, 72, 100
5, 140638, Note_on_c, 3, 72, 0
5, 140640, Note_on_c, 3, 70, 100
5, 140877, Note_on_c, 3, 70, 0
5, 140880, Note_on_c, 3, 69, 100
5, 141119, Note_on_c, 3, 69, 0
5, 141120, Note_on_c, 3, 70, 100
5, 141354, Note_on_c, 3, 70, 0
5, 141360, Note_on_c, 3, 72, 100
5, 141598, Note_on_c, 3, 72, 0
5, 141600, Note_on_c, 3, 74, 100
5, 142066, Note_on_c, 3, 74, 0
5, 142080, Note_on_c, 3, 73, 100
5, 142547, Note_on_c, 3, 73, 0
5, 142560, Note_on_c, 3, 74, 100
5, 142792, Note_on_c, 3, 74, 0
5, 142800, Note_on_c, 3, 76, 100
5, 143032, Note_on_c, 3, 76, 0
5, 143040, Note_on_c, 3, 69, 100
5, 143274, Note_on_c, 3, 69, 0
5, 143280, Note_on_c, 3, 71, 100
5, 143518, Note_on_c, 3, 71, 0
5, 143520, Note_on_c, 3, 72, 100
5, 143988, Note_on_c, 3, 72, 0
5, 144000, Note_on_c, 3, 74, 100
5, 145199, Note_on_c, 3, 74, 0
5, 145200, Note_on_c, 3, 76, 100
5, 145437, Note_on_c, 3, 76, 0
5, 145440, Note_on_c, 3, 77, 100
5, 145908, Note_on_c, 3, 77, 0
5, 146640, Note_on_c, 3, 74, 100
5, 146876, Note_on_c, 3, 74, 0
5, 147360, Note_on_c, 3, 74, 100
5, 147826, Note_on_c, 3, 74, 0
5, 148320, Note_on_c, 3, 69, 100
5, 149740, Note_on_c, 3, 69, 0
5, 149760, Note_on_c, 3, 67, 100
5, 150701, Note_on_c, 3, 67, 0
5, 150720, Note_on_c, 3, 69, 100
5, 151657, Note_on_c, 3, 69, 0
5, 151680, Note_on_c, 3, 67, 100
5, 151913, Note_on_c, 3, 67, 0
5, 151920, Note_on_c, 3, 71, 100
5, 152159, Note_on_c, 3, 71, 0
5, 152160, Note_on_c, 3, 76, 100
5, 152393, Note_on_c, 3, 76, 0
5, 152400, Note_on_c, 3, 74, 100
5, 152633, Note_on_c, 3, 74, 0
5, 152640, Note_on_c, 3, 72, 100
5, 152879, Note_on_c, 3, 72, 0
5, 152880, Note_on_c, 3, 71, 100
5, 153111, Note_on_c, 3, 71, 0
5, 153120, Note_on_c, 3, 69, 100
5, 153592, Note_on_c, 3, 69, 0
5, 153600, Note_on_c, 3, 67, 100
5, 155498, Note_on_c, 3, 67, 0
5, 155520, Note_on_c, 3, 69, 100
5, 156461, Note_on_c, 3, 69, 0
5, 156480, Note_on_c, 3, 71, 100
5, 157420, Note_on_c, 3, 71, 0
5, 157440, Note_on_c, 3, 72, 100
5, 158149, Note_on_c, 3, 72, 0
5, 158160, Note_on_c, 3, 71, 100
5, 158393, Note_on_c, 3, 71, 0
5, 158400, Note_on_c, 3, 69, 100
5, 158873, Note_on_c, 3, 69, 0
5, 158880, Note_on_c, 3, 67, 100
5, 159832, Note_on_c, 3, 67, 0
5, 159840, Note_on_c, 3, 60, 100
5, 160079, Note_on_c, 3, 60, 0
5, 160080, Note_on_c, 3, 59, 100
5, 160313, Note_on_c, 3, 59, 0
5, 160320, Note_on_c, 3, 57, 100
5, 160555, Note_on_c, 3, 57, 0
5, 160560, Note_on_c, 3, 62, 100
5, 161027, Note_on_c, 3, 62, 0
5, 161040, Note_on_c, 3, 67, 100
5, 161458, Note_on_c, 3, 67, 0
5, 161520, Note_on_c, 3, 67, 100
5, 161753, Note_on_c, 3, 67, 0
5, 161760, Note_on_c, 3, 69, 100
5, 162228, Note_on_c, 3, 69, 0
5, 162240, Note_on_c, 3, 62, 100
5, 163435, Note_on_c, 3, 62, 0
5, 163440, Note_on_c, 3, 64, 100
5, 163671, Note_on_c, 3, 64, 0
5, 163680, Note_on_c, 3, 62, 100
5, 163918, Note_on_c, 3, 62, 0
5, 163920, Note_on_c, 3, 60, 100
5, 164158, Note_on_c, 3, 60, 0
5, 164160, Note_on_c, 3, 59, 100
5, 164628, Note_on_c, 3, 59, 0
5, 164640, Note_on_c, 3, 60, 100
5, 164875, Note_on_c, 3, 60, 0
5, 164880, Note_on_c, 3, 59, 100
5, 165119, Note_on_c, 3, 59, 0
5, 165120, Note_on_c, 3, 57, 100
5, 166065, Note_on_c, 3, 57, 0
5, 166080, Note_on_c, 3, 62, 100
5, 166553, Note_on_c, 3, 62, 0
5, 166560, Note_on_c, 3, 64, 100
5, 166793, Note_on_c, 3, 64, 0
5, 166800, Note_on_c, 3, 62, 100
5, 167034, Note_on_c, 3, 62, 0
5, 167040, Note_on_c, 3, 60, 100
5, 167511, Note_on_c, 3, 60, 0
5, 167520, Note_on_c, 3, 65, 100
5, 167752, Note_on_c, 3, 65, 0
5, 167760, Note_on_c, 3, 64, 100
5, 167995, Note_on_c, 3, 64, 0
5, 168000, Note_on_c, 3, 62, 100
5, 168938, Note_on_c, 3, 62, 0
5, 168960, Note_on_c, 3, 60, 100
5, 169198, Note_on_c, 3, 60, 0
5, 169200, Note_on_c, 3, 67, 100
5, 169431, Note_on_c, 3, 67, 0
5, 169440, Note_on_c, 3, 69, 100
5, 170094, Note_on_c, 3, 69, 0
5, 170160, Note_on_c, 3, 69, 100
5, 170391, Note_on_c, 3, 69, 0
5, 170400, Note_on_c, 3, 71, 100
5, 171008, Note_on_c, 3, 71, 0
5, 171120, Note_on_c, 3, 71, 100
5, 171354, Note_on_c, 3, 71, 0
5, 171360, Note_on_c, 3, 72, 100
5, 172013, Note_on_c, 3, 72, 0
5, 172080, Note_on_c, 3, 72, 100
5, 172319, Note_on_c, 3, 72, 0
5, 172320, Note_on_c, 3, 74, 100
5, 172933, Note_on_c, 3, 74, 0
5, 173040, Note_on_c, 3, 74, 100
5, 173275, Note_on_c, 3, 74, 0
5, 173280, Note_on_c, 3, 76, 100
5, 173938, Note_on_c, 3, 76, 0
5, 174000, Note_on_c, 3, 76, 100
5, 174234, Note_on_c, 3, 76, 0
5, 174240, Note_on_c, 3, 78, 100
5, 174891, Note_on_c, 3, 78, 0
5, 174960, Note_on_c, 3, 78, 100
5, 175192, Note_on_c, 3, 78, 0
5, 175200, Note_on_c, 3, 79, 100
5, 176150, Note_on_c, 3, 79, 0
5, 176160, Note_on_c, 3, 81, 100
5, 176399, Note_on_c, 3, 81, 0
5, 176400, Note_on_c, 3, 79, 100
5, 176632, Note_on_c, 3, 79, 0
5, 176640, Note_on_c, 3, 78, 100
5, 176876, Note_on_c, 3, 78, 0
5, 176880, Note_on_c, 3, 76, 100
5, 177111, Note_on_c, 3, 76, 0
5, 177120, Note_on_c, 3, 74, 100
5, 177356, Note_on_c, 3, 74, 0
5, 177360, Note_on_c, 3, 72, 100
5, 177593, Note_on_c, 3, 72, 0
5, 177600, Note_on_c, 3, 71, 100
5, 177835, Note_on_c, 3, 71, 0
5, 177840, Note_on_c, 3, 69, 100
5, 178071, Note_on_c, 3, 69, 0
5, 178080, Note_on_c, 3, 67, 100
5, 178549, Note_on_c, 3, 67, 0
5, 178560, Note_on_c, 3, 66, 100
5, 178795, Note_on_c, 3, 66, 0
5, 178800, Note_on_c, 3, 67, 100
5, 179037, Note_on_c, 3, 67, 0
5, 179040, Note_on_c, 3, 69, 100
5, 179510, Note_on_c, 3, 69, 0
5, 179520, Note_on_c, 3, 62, 100
5, 179987, Note_on_c, 3, 62, 0
5, 180000, Note_on_c, 3, 67, 100
5, 180466, Note_on_c, 3, 67, 0
5, 180480, Note_on_c, 3, 60, 100
5, 181183, Note_on_c, 3, 60, 0
5, 181200, Note_on_c, 3, 59, 100
5, 181435, Note_on_c, 3, 59, 0
5, 181440, Note_on_c, 3, 57, 100
5, 181908, Note_on_c, 3, 57, 0
5, 181920, Note_on_c, 3, 62, 100
5, 182390, Note_on_c, 3, 62, 0
5, 182400, Note_on_c, 3, 67, 100
5, 182400, Note_on_c, 3, 64, 100
5, 183344, Note_on_c, 3, 67, 0
5, 183345, Note_on_c, 3, 64, 0
5, 183360, Note_on_c, 3, 66, 100
5, 183360, Note_on_c, 3, 69, 100
5, 184298, Note_on_c, 3, 69, 0
5, 184303, Note_on_c, 3, 66, 0
5, 184320, Note_on_c, 3, 67, 100
5, 184320, Note_on_c, 3, 71, 100
5, 185261, Note_on_c, 3, 67, 0
5, 185262, Note_on_c, 3, 71, 0
5, 185280, Note_on_c, 3, 72, 100
5, 185280, Note_on_c, 3, 69, 100
5, 186221, Note_on_c, 3, 69, 0
5, 186222, Note_on_c, 3, 72, 0
5, 186240, Note_on_c, 3, 74, 100
5, 186240, Note_on_c, 3, 71, 100
5, 187181, Note_on_c, 3, 74, 0
5, 187182, Note_on_c, 3, 71, 0
5, 187200, Note_on_c, 3, 72, 100
5, 187200, Note_on_c, 3, 76, 100
5, 187902, Note_on_c, 3, 72, 0
5, 187906, Note_on_c, 3, 76, 0
5, 187920, Note_on_c, 3, 71, 100
5, 187920, Note_on_c, 3, 78, 100
5, 188040, Note_on_c, 3, 79, 100
5, 188041, Note_on_c, 3, 78, 0
5, 188154, Note_on_c, 3, 71, 0
5, 188157, Note_on_c, 3, 79, 0
5, 188160, Note_on_c, 3, 69, 100
5, 188626, Note_on_c, 3, 69, 0
5, 188640, Note_on_c, 3, 71, 100
5, 189113, Note_on_c, 3, 71, 0
5, 189120, Note_on_c, 3, 69, 100
5, 189588, Note_on_c, 3, 69, 0
5, 189600, Note_on_c, 3, 62, 100
5, 190074, Note_on_c, 3, 62, 0
5, 190080, Note_on_c, 3, 67, 100
5, 190311, Note_on_c, 3, 67, 0
5, 205920, Note_on_c, 3, 62, 100
5, 206387, Note_on_c, 3, 62, 0
5, 206400, Note_on_c, 3, 62, 100
5, 207341, Note_on_c, 3, 62, 0
5, 207341, End_track
6, 0, Start_track
6, 0, MIDI_port, 0
6, 0, Title_t, "Pedal"
6, 0, Program_c, 4, 19
6, 0, Control_c, 4, 7, 100
6, 0, Control_c, 4, 10, 84
6, 40320, Note_on_c, 4, 43, 100
6, 41257, Note_on_c, 4, 43, 0
6, 41280, Note_on_c, 4, 45, 100
6, 42217, Note_on_c, 4, 45, 0
6, 42240, Note_on_c, 4, 47, 100
6, 43183, Note_on_c, 4, 47, 0
6, 43200, Note_on_c, 4, 48, 100
6, 44137, Note_on_c, 4, 48, 0
6, 44160, Note_on_c, 4, 50, 100
6, 46062, Note_on_c, 4, 50, 0
6, 46080, Note_on_c, 4, 52, 100
6, 46740, Note_on_c, 4, 52, 0
6, 46800, Note_on_c, 4, 50, 100
6, 47011, Note_on_c, 4, 50, 0
6, 47040, Note_on_c, 4, 48, 100
6, 47513, Note_on_c, 4, 48, 0
6, 47520, Note_on_c, 4, 47, 100
6, 47988, Note_on_c, 4, 47, 0
6, 48000, Note_on_c, 4, 45, 100
6, 48707, Note_on_c, 4, 45, 0
6, 48720, Note_on_c, 4, 43, 100
6, 48951, Note_on_c, 4, 43, 0
6, 48960, Note_on_c, 4, 42, 100
6, 49428, Note_on_c, 4, 42, 0
6, 49440, Note_on_c, 4, 43, 100
6, 50271, Note_on_c, 4, 43, 0
6, 50400, Note_on_c, 4, 42, 100
6, 50637, Note_on_c, 4, 42, 0
6, 50640, Note_on_c, 4, 43, 100
6, 50879, Note_on_c, 4, 43, 0
6, 50880, Note_on_c, 4, 45, 100
6, 51825, Note_on_c, 4, 45, 0
6, 51840, Note_on_c, 4, 47, 100
6, 52779, Note_on_c, 4, 47, 0
6, 52800, Note_on_c, 4, 49, 100
6, 53745, Note_on_c, 4, 49, 0
6, 53760, Note_on_c, 4, 50, 100
6, 54705, Note_on_c, 4, 50, 0
6, 54720, Note_on_c, 4, 43, 100
6, 55657, Note_on_c, 4, 43, 0
6, 55680, Note_on_c, 4, 45, 100
6, 57058, Note_on_c, 4, 45, 0
6, 57120, Note_on_c, 4, 57, 100
6, 57358, Note_on_c, 4, 57, 0
6, 57360, Note_on_c, 4, 55, 100
6, 57599, Note_on_c, 4, 55, 0
6, 57600, Note_on_c, 4, 54, 100
6, 57839, Note_on_c, 4, 54, 0
6, 57840, Note_on_c, 4, 52, 100
6, 58075, Note_on_c, 4, 52, 0
6, 58080, Note_on_c, 4, 54, 100
6, 58315, Note_on_c, 4, 54, 0
6, 58320, Note_on_c, 4, 50, 100
6, 58518, Note_on_c, 4, 50, 0
6, 58560, Note_on_c, 4, 57, 100
6, 59001, Note_on_c, 4, 57, 0
6, 59040, Note_on_c, 4, 45, 100
6, 59492, Note_on_c, 4, 45, 0
6, 59520, Note_on_c, 4, 50, 100
6, 60460, Note_on_c, 4, 50, 0
6, 60480, Note_on_c, 4, 52, 100
6, 61422, Note_on_c, 4, 52, 0
6, 61440, Note_on_c, 4, 54, 100
6, 62377, Note_on_c, 4, 54, 0
6, 62400, Note_on_c, 4, 55, 100
6, 62983, Note_on_c, 4, 55, 0
6, 63120, Note_on_c, 4, 54, 100
6, 63352, Note_on_c, 4, 54, 0
6, 63360, Note_on_c, 4, 52, 100
6, 63827, Note_on_c, 4, 52, 0
6, 63840, Note_on_c, 4, 50, 100
6, 64491, Note_on_c, 4, 50, 0
6, 64560, Note_on_c, 4, 50, 100
6, 64794, Note_on_c, 4, 50, 0
6, 64800, Note_on_c, 4, 49, 100
6, 65038, Note_on_c, 4, 49, 0
6, 65040, Note_on_c, 4, 47, 100
6, 65278, Note_on_c, 4, 47, 0
6, 65280, Note_on_c, 4, 46, 100
6, 65748, Note_on_c, 4, 46, 0
6, 65760, Note_on_c, 4, 47, 100
6, 66234, Note_on_c, 4, 47, 0
6, 66240, Note_on_c, 4, 40, 100
6, 66706, Note_on_c, 4, 40, 0
6, 66720, Note_on_c, 4, 52, 100
6, 67433, Note_on_c, 4, 52, 0
6, 67440, Note_on_c, 4, 54, 100
6, 67671, Note_on_c, 4, 54, 0
6, 67680, Note_on_c, 4, 55, 100
6, 67912, Note_on_c, 4, 55, 0
6, 67920, Note_on_c, 4, 52, 100
6, 68131, Note_on_c, 4, 52, 0
6, 68160, Note_on_c, 4, 54, 100
6, 68609, Note_on_c, 4, 54, 0
6, 68640, Note_on_c, 4, 42, 100
6, 69094, Note_on_c, 4, 42, 0
6, 69120, Note_on_c, 4, 47, 100
6, 70060, Note_on_c, 4, 47, 0
6, 70080, Note_on_c, 4, 48, 100
6, 71021, Note_on_c, 4, 48, 0
6, 71040, Note_on_c, 4, 50, 100
6, 72175, Note_on_c, 4, 50, 0
6, 72240, Note_on_c, 4, 50, 100
6, 72472, Note_on_c, 4, 50, 0
6, 72480, Note_on_c, 4, 48, 100
6, 72713, Note_on_c, 4, 48, 0
6, 72720, Note_on_c, 4, 47, 100
6, 72954, Note_on_c, 4, 47, 0
6, 72960, Note_on_c, 4, 45, 100
6, 73164, Note_on_c, 4, 45, 0
6, 73200, Note_on_c, 4, 47, 100
6, 73437, Note_on_c, 4, 47, 0
6, 73440, Note_on_c, 4, 45, 100
6, 73672, Note_on_c, 4, 45, 0
6, 73680, Note_on_c, 4, 43, 100
6, 73914, Note_on_c, 4, 43, 0
6, 73920, Note_on_c, 4, 42, 100
6, 74391, Note_on_c, 4, 42, 0
6, 74400, Note_on_c, 4, 43, 100
6, 74871, Note_on_c, 4, 43, 0
6, 74880, Note_on_c, 4, 48, 100
6, 75587, Note_on_c, 4, 48, 0
6, 75600, Note_on_c, 4, 47, 100
6, 75835, Note_on_c, 4, 47, 0
6, 75840, Note_on_c, 4, 45, 100
6, 76313, Note_on_c, 4, 45, 0
6, 76320, Note_on_c, 4, 47, 100
6, 76554, Note_on_c, 4, 47, 0
6, 76560, Note_on_c, 4, 48, 100
6, 76792, Note_on_c, 4, 48, 0
6, 76800, Note_on_c, 4, 50, 100
6, 77424, Note_on_c, 4, 50, 0
6, 77520, Note_on_c, 4, 38, 100
6, 77753, Note_on_c, 4, 38, 0
6, 77760, Note_on_c, 4, 43, 100
6, 78227, Note_on_c, 4, 43, 0
6, 78240, Note_on_c, 4, 55, 100
6, 78891, Note_on_c, 4, 55, 0
6, 78960, Note_on_c, 4, 55, 100
6, 79199, Note_on_c, 4, 55, 0
6, 79200, Note_on_c, 4, 53, 100
6, 79435, Note_on_c, 4, 53, 0
6, 79440, Note_on_c, 4, 52, 100
6, 79677, Note_on_c, 4, 52, 0
6, 79680, Note_on_c, 4, 50, 100
6, 80150, Note_on_c, 4, 50, 0
6, 80160, Note_on_c, 4, 48, 100
6, 80819, Note_on_c, 4, 48, 0
6, 80880, Note_on_c, 4, 48, 100
6, 81117, Note_on_c, 4, 48, 0
6, 81120, Note_on_c, 4, 47, 100
6, 81351, Note_on_c, 4, 47, 0
6, 81360, Note_on_c, 4, 45, 100
6, 81595, Note_on_c, 4, 45, 0
6, 81600, Note_on_c, 4, 44, 100
6, 82067, Note_on_c, 4, 44, 0
6, 82080, Note_on_c, 4, 45, 100
6, 82552, Note_on_c, 4, 45, 0
6, 82560, Note_on_c, 4, 38, 100
6, 83032, Note_on_c, 4, 38, 0
6, 83040, Note_on_c, 4, 50, 100
6, 83696, Note_on_c, 4, 50, 0
6, 83760, Note_on_c, 4, 50, 100
6, 83991, Note_on_c, 4, 50, 0
6, 84000, Note_on_c, 4, 48, 100
6, 84236, Note_on_c, 4, 48, 0
6, 84240, Note_on_c, 4, 50, 100
6, 84477, Note_on_c, 4, 50, 0
6, 84480, Note_on_c, 4, 52, 100
6, 84899, Note_on_c, 4, 52, 0
6, 84960, Note_on_c, 4, 40, 100
6, 85434, Note_on_c, 4, 40, 0
6, 85440, Note_on_c, 4, 45, 100
6, 86377, Note_on_c, 4, 45, 0
6, 86400, Note_on_c, 4, 47, 100
6, 87338, Note_on_c, 4, 47, 0
6, 87360, Note_on_c, 4, 48, 100
6, 88297, Note_on_c, 4, 48, 0
6, 88320, Note_on_c, 4, 50, 100
6, 89260, Note_on_c, 4, 50, 0
6, 89280, Note_on_c, 4, 52, 100
6, 90219, Note_on_c, 4, 52, 0
6, 90240, Note_on_c, 4, 54, 100
6, 91182, Note_on_c, 4, 54, 0
6, 91200, Note_on_c, 4, 55, 100
6, 92141, Note_on_c, 4, 55, 0
6, 92160, Note_on_c, 4, 48, 100
6, 92392, Note_on_c, 4, 48, 0
6, 92400, Note_on_c, 4, 50, 100
6, 92639, Note_on_c, 4, 50, 0
6, 92640, Note_on_c, 4, 52, 100
6, 92879, Note_on_c, 4, 52, 0
6, 92880, Note_on_c, 4, 50, 100
6, 93112, Note_on_c, 4, 50, 0
6, 93120, Note_on_c, 4, 48, 100
6, 93353, Note_on_c, 4, 48, 0
6, 93360, Note_on_c, 4, 47, 100
6, 93480, Note_on_c, 4, 45, 100
6, 93482, Note_on_c, 4, 47, 0
6, 93599, Note_on_c, 4, 45, 0
6, 93600, Note_on_c, 4, 50, 100
6, 94070, Note_on_c, 4, 50, 0
6, 94080, Note_on_c, 4, 55, 100
6, 94670, Note_on_c, 4, 55, 0
6, 94800, Note_on_c, 4, 57, 100
6, 95005, Note_on_c, 4, 57, 0
6, 95040, Note_on_c, 4, 59, 100
6, 95478, Note_on_c, 4, 59, 0
6, 95520, Note_on_c, 4, 47, 100
6, 95861, Note_on_c, 4, 47, 0
6, 96000, Note_on_c, 4, 52, 100
6, 96471, Note_on_c, 4, 52, 0
6, 96480, Note_on_c, 4, 40, 100
6, 96834, Note_on_c, 4, 40, 0
6, 96960, Note_on_c, 4, 45, 100
6, 97900, Note_on_c, 4, 45, 0
6, 97920, Note_on_c, 4, 47, 100
6, 98860, Note_on_c, 4, 47, 0
6, 98880, Note_on_c, 4, 48, 100
6, 99590, Note_on_c, 4, 48, 0
6, 99600, Note_on_c, 4, 49, 100
6, 99839, Note_on_c, 4, 49, 0
6, 99840, Note_on_c, 4, 50, 100
6, 100077, Note_on_c, 4, 50, 0
6, 100080, Note_on_c, 4, 51, 100
6, 100312, Note_on_c, 4, 51, 0
6, 100320, Note_on_c, 4, 52, 100
6, 100498, Note_on_c, 4, 52, 0
6, 100560, Note_on_c, 4, 43, 100
6, 100760, Note_on_c, 4, 43, 0
6, 100800, Note_on_c, 4, 48, 100
6, 101031, Note_on_c, 4, 48, 0
6, 101040, Note_on_c, 4, 47, 100
6, 101272, Note_on_c, 4, 47, 0
6, 101280, Note_on_c, 4, 48, 100
6, 101511, Note_on_c, 4, 48, 0
6, 101520, Note_on_c, 4, 45, 100
6, 101931, Note_on_c, 4, 45, 0
6, 102000, Note_on_c, 4, 45, 100
6, 102231, Note_on_c, 4, 45, 0
6, 102240, Note_on_c, 4, 43, 100
6, 102479, Note_on_c, 4, 43, 0
6, 102480, Note_on_c, 4, 45, 100
6, 102719, Note_on_c, 4, 45, 0
6, 102720, Note_on_c, 4, 47, 100
6, 103127, Note_on_c, 4, 47, 0
6, 103200, Note_on_c, 4, 35, 100
6, 103563, Note_on_c, 4, 35, 0
6, 103680, Note_on_c, 4, 40, 100
6, 103911, Note_on_c, 4, 40, 0
6, 103920, Note_on_c, 4, 43, 100
6, 104152, Note_on_c, 4, 43, 0
6, 104160, Note_on_c, 4, 48, 100
6, 104398, Note_on_c, 4, 48, 0
6, 104400, Note_on_c, 4, 47, 100
6, 104634, Note_on_c, 4, 47, 0
6, 104640, Note_on_c, 4, 45, 100
6, 104874, Note_on_c, 4, 45, 0
6, 104880, Note_on_c, 4, 42, 100
6, 105119, Note_on_c, 4, 42, 0
6, 105120, Note_on_c, 4, 47, 100
6, 105537, Note_on_c, 4, 47, 0
6, 105600, Note_on_c, 4, 40, 100
6, 105833, Note_on_c, 4, 40, 0
6, 105840, Note_on_c, 4, 47, 100
6, 106073, Note_on_c, 4, 47, 0
6, 106080, Note_on_c, 4, 52, 100
6, 106312, Note_on_c, 4, 52, 0
6, 106320, Note_on_c, 4, 50, 100
6, 106558, Note_on_c, 4, 50, 0
6, 106560, Note_on_c, 4, 48, 100
6, 106791, Note_on_c, 4, 48, 0
6, 106800, Note_on_c, 4, 45, 100
6, 107038, Note_on_c, 4, 45, 0
6, 107040, Note_on_c, 4, 50, 100
6, 107446, Note_on_c, 4, 50, 0
6, 107520, Note_on_c, 4, 43, 100
6, 108463, Note_on_c, 4, 43, 0
6, 108480, Note_on_c, 4, 45, 100
6, 109422, Note_on_c, 4, 45, 0
6, 109440, Note_on_c, 4, 47, 100
6, 109909, Note_on_c, 4, 47, 0
6, 109920, Note_on_c, 4, 48, 100
6, 110390, Note_on_c, 4, 48, 0
6, 110400, Note_on_c, 4, 41, 100
6, 110871, Note_on_c, 4, 41, 0
6, 110880, Note_on_c, 4, 53, 100
6, 111471, Note_on_c, 4, 53, 0
6, 111600, Note_on_c, 4, 53, 100
6, 111837, Note_on_c, 4, 53, 0
6, 111840, Note_on_c, 4, 52, 100
6, 112077, Note_on_c, 4, 52, 0
6, 112080, Note_on_c, 4, 53, 100
6, 112255, Note_on_c, 4, 53, 0
6, 112320, Note_on_c, 4, 55, 100
6, 112786, Note_on_c, 4, 55, 0
6, 112800, Note_on_c, 4, 43, 100
6, 113154, Note_on_c, 4, 43, 0
6, 113280, Note_on_c, 4, 48, 100
6, 113514, Note_on_c, 4, 48, 0
6, 113520, Note_on_c, 4, 47, 100
6, 113754, Note_on_c, 4, 47, 0
6, 113760, Note_on_c, 4, 45, 100
6, 113991, Note_on_c, 4, 45, 0
6, 114000, Note_on_c, 4, 43, 100
6, 114189, Note_on_c, 4, 43, 0
6, 114240, Note_on_c, 4, 42, 100
6, 114712, Note_on_c, 4, 42, 0
6, 114720, Note_on_c, 4, 54, 100
6, 114964, Note_on_c, 4, 54, 0
6, 115200, Note_on_c, 4, 55, 100
6, 115432, Note_on_c, 4, 55, 0
6, 115440, Note_on_c, 4, 54, 100
6, 115671, Note_on_c, 4, 54, 0
6, 115680, Note_on_c, 4, 52, 100
6, 115918, Note_on_c, 4, 52, 0
6, 115920, Note_on_c, 4, 50, 100
6, 116159, Note_on_c, 4, 50, 0
6, 116160, Note_on_c, 4, 48, 100
6, 117121, Note_on_c, 4, 48, 0
6, 117360, Note_on_c, 4, 48, 100
6, 117594, Note_on_c, 4, 48, 0
6, 117600, Note_on_c, 4, 47, 100
6, 117837, Note_on_c, 4, 47, 0
6, 117840, Note_on_c, 4, 45, 100
6, 118075, Note_on_c, 4, 45, 0
6, 118080, Note_on_c, 4, 44, 100
6, 118547, Note_on_c, 4, 44, 0
6, 118560, Note_on_c, 4, 56, 100
6, 118965, Note_on_c, 4, 56, 0
6, 119040, Note_on_c, 4, 57, 100
6, 119271, Note_on_c, 4, 57, 0
6, 119280, Note_on_c, 4, 55, 100
6, 119514, Note_on_c, 4, 55, 0
6, 119520, Note_on_c, 4, 53, 100
6, 119755, Note_on_c, 4, 53, 0
6, 119760, Note_on_c, 4, 52, 100
6, 119991, Note_on_c, 4, 52, 0
6, 120000, Note_on_c, 4, 50, 100
6, 121071, Note_on_c, 4, 50, 0
6, 121200, Note_on_c, 4, 50, 100
6, 121439, Note_on_c, 4, 50, 0
6, 121440, Note_on_c, 4, 48, 100
6, 121679, Note_on_c, 4, 48, 0
6, 121680, Note_on_c, 4, 47, 100
6, 121911, Note_on_c, 4, 47, 0
6, 121920, Note_on_c, 4, 45, 100
6, 122131, Note_on_c, 4, 45, 0
6, 122160, Note_on_c, 4, 55, 100
6, 122394, Note_on_c, 4, 55, 0
6, 122400, Note_on_c, 4, 53, 100
6, 122635, Note_on_c, 4, 53, 0
6, 122640, Note_on_c, 4, 52, 100
6, 122854, Note_on_c, 4, 52, 0
6, 122880, Note_on_c, 4, 50, 100
6, 123117, Note_on_c, 4, 50, 0
6, 123120, Note_on_c, 4, 48, 100
6, 123355, Note_on_c, 4, 48, 0
6, 123360, Note_on_c, 4, 47, 100
6, 123597, Note_on_c, 4, 47, 0
6, 123600, Note_on_c, 4, 45, 100
6, 123835, Note_on_c, 4, 45, 0
6, 123840, Note_on_c, 4, 44, 100
6, 124071, Note_on_c, 4, 44, 0
6, 124080, Note_on_c, 4, 40, 100
6, 124314, Note_on_c, 4, 40, 0
6, 124320, Note_on_c, 4, 45, 100
6, 124556, Note_on_c, 4, 45, 0
6, 124560, Note_on_c, 4, 50, 100
6, 124749, Note_on_c, 4, 50, 0
6, 124800, Note_on_c, 4, 52, 100
6, 125160, Note_on_c, 4, 52, 0
6, 125280, Note_on_c, 4, 40, 100
6, 125624, Note_on_c, 4, 40, 0
6, 125760, Note_on_c, 4, 45, 100
6, 126596, Note_on_c, 4, 45, 0
6, 126720, Note_on_c, 4, 47, 100
6, 127662, Note_on_c, 4, 47, 0
6, 127680, Note_on_c, 4, 48, 100
6, 128622, Note_on_c, 4, 48, 0
6, 128640, Note_on_c, 4, 50, 100
6, 129577, Note_on_c, 4, 50, 0
6, 129600, Note_on_c, 4, 52, 100
6, 131427, Note_on_c, 4, 52, 0
6, 131520, Note_on_c, 4, 54, 100
6, 132457, Note_on_c, 4, 54, 0
6, 132480, Note_on_c, 4, 56, 100
6, 132948, Note_on_c, 4, 56, 0
6, 132960, Note_on_c, 4, 48, 100
6, 133560, Note_on_c, 4, 48, 0
6, 133680, Note_on_c, 4, 47, 100
6, 133796, Note_on_c, 4, 47, 0
6, 133800, Note_on_c, 4, 45, 100
6, 133916, Note_on_c, 4, 45, 0
6, 133920, Note_on_c, 4, 53, 100
6, 134633, Note_on_c, 4, 53, 0
6, 134640, Note_on_c, 4, 52, 100
6, 134875, Note_on_c, 4, 52, 0
6, 134880, Note_on_c, 4, 53, 100
6, 135116, Note_on_c, 4, 53, 0
6, 135120, Note_on_c, 4, 52, 100
6, 135237, Note_on_c, 4, 52, 0
6, 135240, Note_on_c, 4, 50, 100
6, 135324, Note_on_c, 4, 50, 0
6, 135360, Note_on_c, 4, 58, 100
6, 136065, Note_on_c, 4, 58, 0
6, 136080, Note_on_c, 4, 57, 100
6, 136314, Note_on_c, 4, 57, 0
6, 136320, Note_on_c, 4, 58, 100
6, 136554, Note_on_c, 4, 58, 0
6, 136560, Note_on_c, 4, 52, 100
6, 136799, Note_on_c, 4, 52, 0
6, 136800, Note_on_c, 4, 53, 100
6, 137039, Note_on_c, 4, 53, 0
6, 137040, Note_on_c, 4, 52, 100
6, 137156, Note_on_c, 4, 52, 0
6, 137160, Note_on_c, 4, 50, 100
6, 137246, Note_on_c, 4, 50, 0
6, 137280, Note_on_c, 4, 57, 100
6, 137710, Note_on_c, 4, 57, 0
6, 137760, Note_on_c, 4, 45, 100
6, 138145, Note_on_c, 4, 45, 0
6, 138240, Note_on_c, 4, 50, 100
6, 138709, Note_on_c, 4, 50, 0
6, 141600, Note_on_c, 4, 55, 100
6, 142088, Note_on_c, 4, 55, 0
6, 142320, Note_on_c, 4, 55, 100
6, 142554, Note_on_c, 4, 55, 0
6, 142560, Note_on_c, 4, 53, 100
6, 142798, Note_on_c, 4, 53, 0
6, 142800, Note_on_c, 4, 52, 100
6, 143032, Note_on_c, 4, 52, 0
6, 143040, Note_on_c, 4, 54, 100
6, 143275, Note_on_c, 4, 54, 0
6, 143280, Note_on_c, 4, 55, 100
6, 143515, Note_on_c, 4, 55, 0
6, 143520, Note_on_c, 4, 57, 100
6, 144235, Note_on_c, 4, 57, 0
6, 144240, Note_on_c, 4, 55, 100
6, 144355, Note_on_c, 4, 55, 0
6, 144360, Note_on_c, 4, 54, 100
6, 144474, Note_on_c, 4, 54, 0
6, 144480, Note_on_c, 4, 55, 100
6, 144711, Note_on_c, 4, 55, 0
6, 144720, Note_on_c, 4, 57, 100
6, 144953, Note_on_c, 4, 57, 0
6, 144960, Note_on_c, 4, 59, 100
6, 145197, Note_on_c, 4, 59, 0
6, 145200, Note_on_c, 4, 61, 100
6, 145432, Note_on_c, 4, 61, 0
6, 145440, Note_on_c, 4, 62, 100
6, 145908, Note_on_c, 4, 62, 0
6, 145920, Note_on_c, 4, 55, 100
6, 146156, Note_on_c, 4, 55, 0
6, 146160, Note_on_c, 4, 57, 100
6, 146396, Note_on_c, 4, 57, 0
6, 146400, Note_on_c, 4, 58, 100
6, 147004, Note_on_c, 4, 58, 0
6, 147120, Note_on_c, 4, 57, 100
6, 147240, Note_on_c, 4, 55, 100
6, 147241, Note_on_c, 4, 57, 0
6, 147359, Note_on_c, 4, 55, 0
6, 147360, Note_on_c, 4, 53, 100
6, 147592, Note_on_c, 4, 53, 0
6, 147600, Note_on_c, 4, 52, 100
6, 147719, Note_on_c, 4, 52, 0
6, 147720, Note_on_c, 4, 50, 100
6, 147836, Note_on_c, 4, 50, 0
6, 147840, Note_on_c, 4, 57, 100
6, 148202, Note_on_c, 4, 57, 0
6, 148320, Note_on_c, 4, 45, 100
6, 148706, Note_on_c, 4, 45, 0
6, 148800, Note_on_c, 4, 50, 100
6, 149741, Note_on_c, 4, 50, 0
6, 149760, Note_on_c, 4, 52, 100
6, 150702, Note_on_c, 4, 52, 0
6, 150720, Note_on_c, 4, 54, 100
6, 151663, Note_on_c, 4, 54, 0
6, 151680, Note_on_c, 4, 55, 100
6, 152086, Note_on_c, 4, 55, 0
6, 152160, Note_on_c, 4, 55, 100
6, 152751, Note_on_c, 4, 55, 0
6, 152880, Note_on_c, 4, 55, 100
6, 153114, Note_on_c, 4, 55, 0
6, 153120, Note_on_c, 4, 53, 100
6, 153709, Note_on_c, 4, 53, 0
6, 153840, Note_on_c, 4, 53, 100
6, 154077, Note_on_c, 4, 53, 0
6, 154080, Note_on_c, 4, 52, 100
6, 154316, Note_on_c, 4, 52, 0
6, 154320, Note_on_c, 4, 50, 100
6, 154551, Note_on_c, 4, 50, 0
6, 154560, Note_on_c, 4, 52, 100
6, 155262, Note_on_c, 4, 52, 0
6, 155280, Note_on_c, 4, 50, 100
6, 155516, Note_on_c, 4, 50, 0
6, 155520, Note_on_c, 4, 49, 100
6, 155991, Note_on_c, 4, 49, 0
6, 156000, Note_on_c, 4, 50, 100
6, 156472, Note_on_c, 4, 50, 0
6, 156480, Note_on_c, 4, 55, 100
6, 157420, Note_on_c, 4, 55, 0
6, 157920, Note_on_c, 4, 48, 100
6, 158576, Note_on_c, 4, 48, 0
6, 158640, Note_on_c, 4, 48, 100
6, 158872, Note_on_c, 4, 48, 0
6, 158880, Note_on_c, 4, 47, 100
6, 159493, Note_on_c, 4, 47, 0
6, 159600, Note_on_c, 4, 47, 100
6, 159836, Note_on_c, 4, 47, 0
6, 159840, Note_on_c, 4, 45, 100
6, 160076, Note_on_c, 4, 45, 0
6, 160080, Note_on_c, 4, 43, 100
6, 160311, Note_on_c, 4, 43, 0
6, 160320, Note_on_c, 4, 42, 100
6, 160791, Note_on_c, 4, 42, 0
6, 160800, Note_on_c, 4, 43, 100
6, 161270, Note_on_c, 4, 43, 0
6, 161280, Note_on_c, 4, 48, 100
6, 162416, Note_on_c, 4, 48, 0
6, 162480, Note_on_c, 4, 48, 100
6, 162714, Note_on_c, 4, 48, 0
6, 162720, Note_on_c, 4, 47, 100
6, 162956, Note_on_c, 4, 47, 0
6, 162960, Note_on_c, 4, 48, 100
6, 163198, Note_on_c, 4, 48, 0
6, 163200, Note_on_c, 4, 50, 100
6, 163596, Note_on_c, 4, 50, 0
6, 163680, Note_on_c, 4, 38, 100
6, 164064, Note_on_c, 4, 38, 0
6, 164160, Note_on_c, 4, 40, 100
6, 165101, Note_on_c, 4, 40, 0
6, 165120, Note_on_c, 4, 42, 100
6, 166058, Note_on_c, 4, 42, 0
6, 166080, Note_on_c, 4, 43, 100
6, 167024, Note_on_c, 4, 43, 0
6, 167040, Note_on_c, 4, 45, 100
6, 167977, Note_on_c, 4, 45, 0
6, 168000, Note_on_c, 4, 47, 100
6, 168945, Note_on_c, 4, 47, 0
6, 168960, Note_on_c, 4, 48, 100
6, 169904, Note_on_c, 4, 48, 0
6, 169920, Note_on_c, 4, 50, 100
6, 170860, Note_on_c, 4, 50, 0
6, 170880, Note_on_c, 4, 52, 100
6, 171823, Note_on_c, 4, 52, 0
6, 171840, Note_on_c, 4, 54, 100
6, 172784, Note_on_c, 4, 54, 0
6, 172800, Note_on_c, 4, 55, 100
6, 173745, Note_on_c, 4, 55, 0
6, 173760, Note_on_c, 4, 57, 100
6, 174699, Note_on_c, 4, 57, 0
6, 174720, Note_on_c, 4, 59, 100
6, 175664, Note_on_c, 4, 59, 0
6, 175680, Note_on_c, 4, 60, 100
6, 176619, Note_on_c, 4, 60, 0
6, 176640, Note_on_c, 4, 62, 100
6, 177114, Note_on_c, 4, 62, 0
6, 177120, Note_on_c, 4, 50, 100
6, 177587, Note_on_c, 4, 50, 0
6, 177600, Note_on_c, 4, 52, 100
6, 178178, Note_on_c, 4, 52, 0
6, 178320, Note_on_c, 4, 50, 100
6, 178557, Note_on_c, 4, 50, 0
6, 178560, Note_on_c, 4, 48, 100
6, 178791, Note_on_c, 4, 48, 0
6, 178800, Note_on_c, 4, 47, 100
6, 179033, Note_on_c, 4, 47, 0
6, 179040, Note_on_c, 4, 45, 100
6, 179277, Note_on_c, 4, 45, 0
6, 179280, Note_on_c, 4, 43, 100
6, 179511, Note_on_c, 4, 43, 0
6, 179520, Note_on_c, 4, 42, 100
6, 179986, Note_on_c, 4, 42, 0
6, 180000, Note_on_c, 4, 43, 100
6, 180231, Note_on_c, 4, 43, 0
6, 180240, Note_on_c, 4, 41, 100
6, 180476, Note_on_c, 4, 41, 0
6, 180480, Note_on_c, 4, 40, 100
6, 180717, Note_on_c, 4, 40, 0
6, 180720, Note_on_c, 4, 38, 100
6, 180952, Note_on_c, 4, 38, 0
6, 180960, Note_on_c, 4, 36, 100
6, 181429, Note_on_c, 4, 36, 0
6, 181440, Note_on_c, 4, 38, 100
6, 189592, Note_on_c, 4, 38, 0
6, 189600, Note_on_c, 4, 50, 100
6, 190074, Note_on_c, 4, 50, 0
6, 190080, Note_on_c, 4, 49, 100
6, 190315, Note_on_c, 4, 49, 0
6, 191040, Note_on_c, 4, 49, 100
6, 191275, Note_on_c, 4, 49, 0
6, 191400, Note_on_c, 4, 49, 100
6, 191496, Note_on_c, 4, 49, 0
6, 191520, Note_on_c, 4, 48, 100
6, 191756, Note_on_c, 4, 48, 0
6, 191880, Note_on_c, 4, 48, 100
6, 191969, Note_on_c, 4, 48, 0
6, 192000, Note_on_c, 4, 47, 100
6, 192235, Note_on_c, 4, 47, 0
6, 192360, Note_on_c, 4, 47, 100
6, 192444, Note_on_c, 4, 47, 0
6, 192480, Note_on_c, 4, 46, 100
6, 192714, Note_on_c, 4, 46, 0
6, 192840, Note_on_c, 4, 46, 100
6, 192932, Note_on_c, 4, 46, 0
6, 192960, Note_on_c, 4, 45, 100
6, 193197, Note_on_c, 4, 45, 0
6, 193320, Note_on_c, 4, 45, 100
6, 193412, Note_on_c, 4, 45, 0
6, 193440, Note_on_c, 4, 45, 100
6, 193674, Note_on_c, 4, 45, 0
6, 193800, Note_on_c, 4, 45, 100
6, 193887, Note_on_c, 4, 45, 0
6, 193920, Note_on_c, 4, 44, 100
6, 194151, Note_on_c, 4, 44, 0
6, 194280, Note_on_c, 4, 44, 100
6, 194371, Note_on_c, 4, 44, 0
6, 194400, Note_on_c, 4, 43, 100
6, 194637, Note_on_c, 4, 43, 0
6, 194760, Note_on_c, 4, 43, 100
6, 194849, Note_on_c, 4, 43, 0
6, 194880, Note_on_c, 4, 42, 100
6, 195119, Note_on_c, 4, 42, 0
6, 195240, Note_on_c, 4, 42, 100
6, 195324, Note_on_c, 4, 42, 0
6, 195360, Note_on_c, 4, 41, 100
6, 195591, Note_on_c, 4, 41, 0
6, 195720, Note_on_c, 4, 41, 100
6, 195812, Note_on_c, 4, 41, 0
6, 195840, Note_on_c, 4, 40, 100
6, 196078, Note_on_c, 4, 40, 0
6, 196200, Note_on_c, 4, 40, 100
6, 196284, Note_on_c, 4, 40, 0
6, 196320, Note_on_c, 4, 39, 100
6, 196554, Note_on_c, 4, 39, 0
6, 196680, Note_on_c, 4, 39, 100
6, 196768, Note_on_c, 4, 39, 0
6, 196800, Note_on_c, 4, 38, 100
6, 197036, Note_on_c, 4, 38, 0
6, 197160, Note_on_c, 4, 38, 100
6, 197245, Note_on_c, 4, 38, 0
6, 197280, Note_on_c, 4, 38, 100
6, 197518, Note_on_c, 4, 38, 0
6, 197640, Note_on_c, 4, 38, 100
6, 197728, Note_on_c, 4, 38, 0
6, 197760, Note_on_c, 4, 38, 100
6, 197992, Note_on_c, 4, 38, 0
6, 198120, Note_on_c, 4, 38, 100
6, 198204, Note_on_c, 4, 38, 0
6, 198240, Note_on_c, 4, 38, 100
6, 198473, Note_on_c, 4, 38, 0
6, 198600, Note_on_c, 4, 38, 100
6, 198684, Note_on_c, 4, 38, 0
6, 198720, Note_on_c, 4, 38, 100
6, 198957, Note_on_c, 4, 38, 0
6, 199080, Note_on_c, 4, 38, 100
6, 199166, Note_on_c, 4, 38, 0
6, 199200, Note_on_c, 4, 38, 100
6, 199438, Note_on_c, 4, 38, 0
6, 199560, Note_on_c, 4, 38, 100
6, 199649, Note_on_c, 4, 38, 0
6, 199680, Note_on_c, 4, 38, 100
6, 199916, Note_on_c, 4, 38, 0
6, 200040, Note_on_c, 4, 38, 100
6, 200127, Note_on_c, 4, 38, 0
6, 200160, Note_on_c, 4, 38, 100
6, 200395, Note_on_c, 4, 38, 0
6, 200520, Note_on_c, 4, 38, 100
6, 200612, Note_on_c, 4, 38, 0
6, 200640, Note_on_c, 4, 38, 100
6, 200879, Note_on_c, 4, 38, 0
6, 201000, Note_on_c, 4, 38, 100
6, 201090, Note_on_c, 4, 38, 0
6, 201120, Note_on_c, 4, 38, 100
6, 201355, Note_on_c, 4, 38, 0
6, 201480, Note_on_c, 4, 38, 100
6, 201568, Note_on_c, 4, 38, 0
6, 201600, Note_on_c, 4, 38, 100
6, 201835, Note_on_c, 4, 38, 0
6, 201960, Note_on_c, 4, 38, 100
6, 202047, Note_on_c, 4, 38, 0
6, 202080, Note_on_c, 4, 38, 100
6, 202313, Note_on_c, 4, 38, 0
6, 202440, Note_on_c, 4, 38, 100
6, 202525, Note_on_c, 4, 38, 0
6, 202560, Note_on_c, 4, 38, 100
6, 202793, Note_on_c, 4, 38, 0
6, 202920, Note_on_c, 4, 38, 100
6, 203004, Note_on_c, 4, 38, 0
6, 203040, Note_on_c, 4, 38, 100
6, 203272, Note_on_c, 4, 38, 0
6, 203400, Note_on_c, 4, 38, 100
6, 203489, Note_on_c, 4, 38, 0
6, 203520, Note_on_c, 4, 38, 100
6, 203752, Note_on_c, 4, 38, 0
6, 203880, Note_on_c, 4, 38, 100
6, 204000, Note_on_c, 4, 38, 0
6, 204000, Note_on_c, 4, 38, 100
6, 204239, Note_on_c, 4, 38, 0
6, 204960, Note_on_c, 4, 38, 100
6, 206394, Note_on_c, 4, 38, 0
6, 206400, Note_on_c, 4, 43, 100
6, 207337, Note_on_c, 4, 43, 0
6, 207337, End_track
7, 0, Start_track
7, 0, MIDI_port, 0
7, 0, End_track
0, 0, End_of_file
