0, 0, Header, 1, 4, 240
1, 0, Start_track
1, 0, Time_signature, 4, 2, 24, 8
1, 0, Tempo, 666667
1, 54960, Tempo, 750000
1, 55200, Tempo, 857143
1, 55440, Tempo, 1000000
1, 55440, End_track
2, 0, Start_track
2, 0, Title_t, "Trio Sonata 5, Allegro mod"
2, 0, Program_c, 0, 19
2, 0, Control_c, 0, 7, 127
2, 1920, Note_on_c, 0, 70, 127
2, 2016, Note_off_c, 0, 70, 64
2, 2040, Note_on_c, 0, 74, 127
2, 2136, Note_off_c, 0, 74, 64
2, 2160, Note_on_c, 0, 77, 127
2, 2352, Note_off_c, 0, 77, 64
2, 2400, Note_on_c, 0, 70, 127
2, 2496, Note_off_c, 0, 70, 64
2, 2520, Note_on_c, 0, 75, 127
2, 2616, Note_off_c, 0, 75, 64
2, 2640, Note_on_c, 0, 79, 127
2, 2928, Note_off_c, 0, 79, 64
2, 2940, Note_on_c, 0, 82, 127
2, 2988, Note_off_c, 0, 82, 64
2, 3000, Note_on_c, 0, 81, 127
2, 3048, Note_off_c, 0, 81, 64
2, 3060, Note_on_c, 0, 79, 127
2, 3108, Note_off_c, 0, 79, 64
2, 3120, Note_on_c, 0, 77, 127
2, 3216, Note_off_c, 0, 77, 64
2, 3240, Note_on_c, 0, 77, 127
2, 3264, Note_off_c, 0, 77, 64
2, 3270, Note_on_c, 0, 75, 127
2, 3294, Note_off_c, 0, 75, 64
2, 3300, Note_on_c, 0, 77, 127
2, 3324, Note_off_c, 0, 77, 64
2, 3330, Note_on_c, 0, 75, 127
2, 3354, Note_off_c, 0, 75, 64
2, 3360, Note_on_c, 0, 74, 127
2, 3456, Note_off_c, 0, 74, 64
2, 3480, Note_on_c, 0, 72, 127
2, 3528, Note_off_c, 0, 72, 64
2, 3540, Note_on_c, 0, 74, 127
2, 3588, Note_off_c, 0, 74, 64
2, 3600, Note_on_c, 0, 75, 127
2, 3648, Note_off_c, 0, 75, 64
2, 3660, Note_on_c, 0, 74, 127
2, 3708, Note_off_c, 0, 74, 64
2, 3720, Note_on_c, 0, 72, 127
2, 3768, Note_off_c, 0, 72, 64
2, 3780, Note_on_c, 0, 70, 127
2, 3828, Note_off_c, 0, 70, 64
2, 3840, Note_on_c, 0, 72, 127
2, 3936, Note_off_c, 0, 72, 64
2, 3960, Note_on_c, 0, 72, 127
2, 4056, Note_off_c, 0, 72, 64
2, 4080, Note_on_c, 0, 77, 127
2, 4368, Note_off_c, 0, 77, 64
2, 4380, Note_on_c, 0, 75, 127
2, 4428, Note_off_c, 0, 75, 64
2, 4440, Note_on_c, 0, 74, 127
2, 4488, Note_off_c, 0, 74, 64
2, 4500, Note_on_c, 0, 75, 127
2, 4548, Note_off_c, 0, 75, 64
2, 4560, Note_on_c, 0, 77, 127
2, 4608, Note_off_c, 0, 77, 64
2, 4620, Note_on_c, 0, 75, 127
2, 4668, Note_off_c, 0, 75, 64
2, 4680, Note_on_c, 0, 74, 127
2, 4728, Note_off_c, 0, 74, 64
2, 4740, Note_on_c, 0, 72, 127
2, 4788, Note_off_c, 0, 72, 64
2, 4800, Note_on_c, 0, 74, 127
2, 4896, Note_off_c, 0, 74, 64
2, 4920, Note_on_c, 0, 74, 127
2, 5016, Note_off_c, 0, 74, 64
2, 5040, Note_on_c, 0, 79, 127
2, 5376, Note_off_c, 0, 79, 64
2, 5400, Note_on_c, 0, 72, 127
2, 5496, Note_off_c, 0, 72, 64
2, 5520, Note_on_c, 0, 74, 127
2, 5568, Note_off_c, 0, 74, 64
2, 5580, Note_on_c, 0, 75, 127
2, 5628, Note_off_c, 0, 75, 64
2, 5640, Note_on_c, 0, 77, 127
2, 5856, Note_off_c, 0, 77, 64
2, 5880, Note_on_c, 0, 70, 127
2, 5976, Note_off_c, 0, 70, 64
2, 6000, Note_on_c, 0, 72, 127
2, 6048, Note_off_c, 0, 72, 64
2, 6060, Note_on_c, 0, 74, 127
2, 6108, Note_off_c, 0, 74, 64
2, 6120, Note_on_c, 0, 75, 127
2, 6288, Note_off_c, 0, 75, 64
2, 6300, Note_on_c, 0, 67, 127
2, 6348, Note_off_c, 0, 67, 64
2, 6360, Note_on_c, 0, 68, 127
2, 6408, Note_off_c, 0, 68, 64
2, 6420, Note_on_c, 0, 72, 127
2, 6468, Note_off_c, 0, 72, 64
2, 6480, Note_on_c, 0, 70, 127
2, 6528, Note_off_c, 0, 70, 64
2, 6540, Note_on_c, 0, 68, 127
2, 6588, Note_off_c, 0, 68, 64
2, 6600, Note_on_c, 0, 67, 127
2, 6648, Note_off_c, 0, 67, 64
2, 6660, Note_on_c, 0, 65, 127
2, 6708, Note_off_c, 0, 65, 64
2, 6720, Note_on_c, 0, 77, 127
2, 6816, Note_off_c, 0, 77, 64
2, 6840, Note_on_c, 0, 74, 127
2, 6936, Note_off_c, 0, 74, 64
2, 6960, Note_on_c, 0, 75, 127
2, 7248, Note_off_c, 0, 75, 64
2, 7260, Note_on_c, 0, 79, 127
2, 7308, Note_off_c, 0, 79, 64
2, 7320, Note_on_c, 0, 77, 127
2, 7368, Note_off_c, 0, 77, 64
2, 7380, Note_on_c, 0, 75, 127
2, 7428, Note_off_c, 0, 75, 64
2, 7440, Note_on_c, 0, 74, 127
2, 7488, Note_off_c, 0, 74, 64
2, 7500, Note_on_c, 0, 72, 127
2, 7548, Note_off_c, 0, 72, 64
2, 7560, Note_on_c, 0, 70, 127
2, 7608, Note_off_c, 0, 70, 64
2, 7620, Note_on_c, 0, 72, 127
2, 7668, Note_off_c, 0, 72, 64
2, 7680, Note_on_c, 0, 73, 127
2, 7728, Note_off_c, 0, 73, 64
2, 7740, Note_on_c, 0, 68, 127
2, 7788, Note_off_c, 0, 68, 64
2, 7800, Note_on_c, 0, 67, 127
2, 7848, Note_off_c, 0, 67, 64
2, 7860, Note_on_c, 0, 65, 127
2, 7908, Note_off_c, 0, 65, 64
2, 7920, Note_on_c, 0, 63, 127
2, 7968, Note_off_c, 0, 63, 64
2, 7980, Note_on_c, 0, 67, 127
2, 8028, Note_off_c, 0, 67, 64
2, 8040, Note_on_c, 0, 68, 127
2, 8088, Note_off_c, 0, 68, 64
2, 8100, Note_on_c, 0, 70, 127
2, 8148, Note_off_c, 0, 70, 64
2, 8160, Note_on_c, 0, 72, 127
2, 8208, Note_off_c, 0, 72, 64
2, 8220, Note_on_c, 0, 70, 127
2, 8268, Note_off_c, 0, 70, 64
2, 8280, Note_on_c, 0, 68, 127
2, 8328, Note_off_c, 0, 68, 64
2, 8340, Note_on_c, 0, 67, 127
2, 8388, Note_off_c, 0, 67, 64
2, 8400, Note_on_c, 0, 65, 127
2, 8448, Note_off_c, 0, 65, 64
2, 8460, Note_on_c, 0, 70, 127
2, 8508, Note_off_c, 0, 70, 64
2, 8520, Note_on_c, 0, 72, 127
2, 8568, Note_off_c, 0, 72, 64
2, 8580, Note_on_c, 0, 74, 127
2, 8628, Note_off_c, 0, 74, 64
2, 8640, Note_on_c, 0, 75, 127
2, 8688, Note_off_c, 0, 75, 64
2, 8700, Note_on_c, 0, 72, 127
2, 8748, Note_off_c, 0, 72, 64
2, 8760, Note_on_c, 0, 70, 127
2, 8808, Note_off_c, 0, 70, 64
2, 8820, Note_on_c, 0, 68, 127
2, 8868, Note_off_c, 0, 68, 64
2, 8880, Note_on_c, 0, 67, 127
2, 8928, Note_off_c, 0, 67, 64
2, 8940, Note_on_c, 0, 74, 127
2, 8988, Note_off_c, 0, 74, 64
2, 9000, Note_on_c, 0, 75, 127
2, 9048, Note_off_c, 0, 75, 64
2, 9060, Note_on_c, 0, 77, 127
2, 9108, Note_off_c, 0, 77, 64
2, 9120, Note_on_c, 0, 70, 127
2, 9168, Note_off_c, 0, 70, 64
2, 9180, Note_on_c, 0, 75, 127
2, 9228, Note_off_c, 0, 75, 64
2, 9240, Note_on_c, 0, 77, 127
2, 9288, Note_off_c, 0, 77, 64
2, 9300, Note_on_c, 0, 79, 127
2, 9348, Note_off_c, 0, 79, 64
2, 9360, Note_on_c, 0, 72, 127
2, 9408, Note_off_c, 0, 72, 64
2, 9420, Note_on_c, 0, 77, 127
2, 9468, Note_off_c, 0, 77, 64
2, 9480, Note_on_c, 0, 70, 127
2, 9528, Note_off_c, 0, 70, 64
2, 9540, Note_on_c, 0, 68, 127
2, 9588, Note_off_c, 0, 68, 64
2, 9600, Note_on_c, 0, 67, 127
2, 9825, Note_off_c, 0, 67, 64
2, 9960, Note_on_c, 0, 67, 127
2, 10056, Note_off_c, 0, 67, 64
2, 10080, Note_on_c, 0, 65, 127
2, 10128, Note_off_c, 0, 65, 64
2, 10140, Note_on_c, 0, 68, 127
2, 10188, Note_off_c, 0, 68, 64
2, 10200, Note_on_c, 0, 74, 127
2, 10248, Note_off_c, 0, 74, 64
2, 10260, Note_on_c, 0, 72, 127
2, 10308, Note_off_c, 0, 72, 64
2, 10320, Note_on_c, 0, 74, 127
2, 10368, Note_off_c, 0, 74, 64
2, 10380, Note_on_c, 0, 68, 127
2, 10428, Note_off_c, 0, 68, 64
2, 10440, Note_on_c, 0, 65, 127
2, 10488, Note_off_c, 0, 65, 64
2, 10500, Note_on_c, 0, 68, 127
2, 10548, Note_off_c, 0, 68, 64
2, 10560, Note_on_c, 0, 67, 127
2, 10608, Note_off_c, 0, 67, 64
2, 10620, Note_on_c, 0, 70, 127
2, 10668, Note_off_c, 0, 70, 64
2, 10680, Note_on_c, 0, 75, 127
2, 10728, Note_off_c, 0, 75, 64
2, 10740, Note_on_c, 0, 70, 127
2, 10788, Note_off_c, 0, 70, 64
2, 10800, Note_on_c, 0, 67, 127
2, 10848, Note_off_c, 0, 67, 64
2, 10860, Note_on_c, 0, 70, 127
2, 10908, Note_off_c, 0, 70, 64
2, 10920, Note_on_c, 0, 63, 127
2, 10968, Note_off_c, 0, 63, 64
2, 10980, Note_on_c, 0, 67, 127
2, 11028, Note_off_c, 0, 67, 64
2, 11040, Note_on_c, 0, 62, 127
2, 11136, Note_off_c, 0, 62, 64
2, 11160, Note_on_c, 0, 65, 127
2, 11256, Note_off_c, 0, 65, 64
2, 11280, Note_on_c, 0, 70, 127
2, 11472, Note_off_c, 0, 70, 64
2, 11520, Note_on_c, 0, 63, 127
2, 11616, Note_off_c, 0, 63, 64
2, 11640, Note_on_c, 0, 67, 127
2, 11736, Note_off_c, 0, 67, 64
2, 11760, Note_on_c, 0, 70, 127
2, 12048, Note_off_c, 0, 70, 64
2, 12060, Note_on_c, 0, 72, 127
2, 12108, Note_off_c, 0, 72, 64
2, 12120, Note_on_c, 0, 76, 127
2, 12168, Note_off_c, 0, 76, 64
2, 12180, Note_on_c, 0, 74, 127
2, 12228, Note_off_c, 0, 74, 64
2, 12240, Note_on_c, 0, 76, 127
2, 12288, Note_off_c, 0, 76, 64
2, 12300, Note_on_c, 0, 70, 127
2, 12348, Note_off_c, 0, 70, 64
2, 12360, Note_on_c, 0, 67, 127
2, 12408, Note_off_c, 0, 67, 64
2, 12420, Note_on_c, 0, 70, 127
2, 12468, Note_off_c, 0, 70, 64
2, 12480, Note_on_c, 0, 69, 127
2, 12528, Note_off_c, 0, 69, 64
2, 12540, Note_on_c, 0, 72, 127
2, 12588, Note_off_c, 0, 72, 64
2, 12600, Note_on_c, 0, 77, 127
2, 12648, Note_off_c, 0, 77, 64
2, 12660, Note_on_c, 0, 72, 127
2, 12708, Note_off_c, 0, 72, 64
2, 12720, Note_on_c, 0, 69, 127
2, 12768, Note_off_c, 0, 69, 64
2, 12780, Note_on_c, 0, 72, 127
2, 12828, Note_off_c, 0, 72, 64
2, 12840, Note_on_c, 0, 65, 127
2, 12888, Note_off_c, 0, 65, 64
2, 12900, Note_on_c, 0, 69, 127
2, 12948, Note_off_c, 0, 69, 64
2, 12960, Note_on_c, 0, 64, 127
2, 13056, Note_off_c, 0, 64, 64
2, 13080, Note_on_c, 0, 67, 127
2, 13176, Note_off_c, 0, 67, 64
2, 13200, Note_on_c, 0, 72, 127
2, 13392, Note_off_c, 0, 72, 64
2, 13440, Note_on_c, 0, 65, 127
2, 13536, Note_off_c, 0, 65, 64
2, 13560, Note_on_c, 0, 69, 127
2, 13656, Note_off_c, 0, 69, 64
2, 13680, Note_on_c, 0, 72, 127
2, 13968, Note_off_c, 0, 72, 64
2, 13980, Note_on_c, 0, 74, 127
2, 14028, Note_off_c, 0, 74, 64
2, 14040, Note_on_c, 0, 78, 127
2, 14088, Note_off_c, 0, 78, 64
2, 14100, Note_on_c, 0, 76, 127
2, 14148, Note_off_c, 0, 76, 64
2, 14160, Note_on_c, 0, 78, 127
2, 14208, Note_off_c, 0, 78, 64
2, 14220, Note_on_c, 0, 72, 127
2, 14268, Note_off_c, 0, 72, 64
2, 14280, Note_on_c, 0, 69, 127
2, 14328, Note_off_c, 0, 69, 64
2, 14340, Note_on_c, 0, 72, 127
2, 14388, Note_off_c, 0, 72, 64
2, 14400, Note_on_c, 0, 70, 127
2, 14448, Note_off_c, 0, 70, 64
2, 14460, Note_on_c, 0, 74, 127
2, 14508, Note_off_c, 0, 74, 64
2, 14520, Note_on_c, 0, 79, 127
2, 14568, Note_off_c, 0, 79, 64
2, 14580, Note_on_c, 0, 74, 127
2, 14628, Note_off_c, 0, 74, 64
2, 14640, Note_on_c, 0, 70, 127
2, 14688, Note_off_c, 0, 70, 64
2, 14700, Note_on_c, 0, 74, 127
2, 14748, Note_off_c, 0, 74, 64
2, 14760, Note_on_c, 0, 67, 127
2, 14808, Note_off_c, 0, 67, 64
2, 14820, Note_on_c, 0, 70, 127
2, 14868, Note_off_c, 0, 70, 64
2, 14880, Note_on_c, 0, 72, 127
2, 14976, Note_off_c, 0, 72, 64
2, 15000, Note_on_c, 0, 65, 127
2, 15096, Note_off_c, 0, 65, 64
2, 15120, Note_on_c, 0, 77, 127
2, 15216, Note_off_c, 0, 77, 64
2, 15240, Note_on_c, 0, 75, 127
2, 15288, Note_off_c, 0, 75, 64
2, 15300, Note_on_c, 0, 74, 127
2, 15348, Note_off_c, 0, 74, 64
2, 15360, Note_on_c, 0, 72, 127
2, 15408, Note_off_c, 0, 72, 64
2, 15420, Note_on_c, 0, 65, 127
2, 15468, Note_off_c, 0, 65, 64
2, 15480, Note_on_c, 0, 67, 127
2, 15528, Note_off_c, 0, 67, 64
2, 15540, Note_on_c, 0, 69, 127
2, 15588, Note_off_c, 0, 69, 64
2, 15600, Note_on_c, 0, 70, 127
2, 15648, Note_off_c, 0, 70, 64
2, 15660, Note_on_c, 0, 72, 127
2, 15708, Note_off_c, 0, 72, 64
2, 15720, Note_on_c, 0, 74, 127
2, 15768, Note_off_c, 0, 74, 64
2, 15780, Note_on_c, 0, 75, 127
2, 15828, Note_off_c, 0, 75, 64
2, 15840, Note_on_c, 0, 77, 127
2, 15936, Note_off_c, 0, 77, 64
2, 15960, Note_on_c, 0, 74, 127
2, 16056, Note_off_c, 0, 74, 64
2, 16080, Note_on_c, 0, 70, 127
2, 16272, Note_off_c, 0, 70, 64
2, 16320, Note_on_c, 0, 77, 127
2, 16416, Note_off_c, 0, 77, 64
2, 16440, Note_on_c, 0, 74, 127
2, 16536, Note_off_c, 0, 74, 64
2, 16560, Note_on_c, 0, 68, 127
2, 16752, Note_off_c, 0, 68, 64
2, 16800, Note_on_c, 0, 77, 127
2, 16896, Note_off_c, 0, 77, 64
2, 16920, Note_on_c, 0, 74, 127
2, 17016, Note_off_c, 0, 74, 64
2, 17040, Note_on_c, 0, 67, 127
2, 17136, Note_off_c, 0, 67, 64
2, 17160, Note_on_c, 0, 77, 127
2, 17256, Note_off_c, 0, 77, 64
2, 17280, Note_on_c, 0, 75, 127
2, 17376, Note_off_c, 0, 75, 64
2, 17400, Note_on_c, 0, 72, 127
2, 17496, Note_off_c, 0, 72, 64
2, 17520, Note_on_c, 0, 67, 127
2, 17616, Note_off_c, 0, 67, 64
2, 17640, Note_on_c, 0, 72, 127
2, 17688, Note_off_c, 0, 72, 64
2, 17700, Note_on_c, 0, 74, 127
2, 17748, Note_off_c, 0, 74, 64
2, 17760, Note_on_c, 0, 75, 127
2, 17856, Note_off_c, 0, 75, 64
2, 17880, Note_on_c, 0, 72, 127
2, 17976, Note_off_c, 0, 72, 64
2, 18000, Note_on_c, 0, 65, 127
2, 18096, Note_off_c, 0, 65, 64
2, 18120, Note_on_c, 0, 75, 127
2, 18216, Note_off_c, 0, 75, 64
2, 18240, Note_on_c, 0, 74, 127
2, 18336, Note_off_c, 0, 74, 64
2, 18360, Note_on_c, 0, 70, 127
2, 18456, Note_off_c, 0, 70, 64
2, 18480, Note_on_c, 0, 65, 127
2, 18576, Note_off_c, 0, 65, 64
2, 18600, Note_on_c, 0, 70, 127
2, 18648, Note_off_c, 0, 70, 64
2, 18660, Note_on_c, 0, 72, 127
2, 18708, Note_off_c, 0, 72, 64
2, 18720, Note_on_c, 0, 73, 127
2, 18816, Note_off_c, 0, 73, 64
2, 18840, Note_on_c, 0, 70, 127
2, 18936, Note_off_c, 0, 70, 64
2, 18960, Note_on_c, 0, 64, 127
2, 19056, Note_off_c, 0, 64, 64
2, 19080, Note_on_c, 0, 73, 127
2, 19176, Note_off_c, 0, 73, 64
2, 19200, Note_on_c, 0, 72, 127
2, 19248, Note_off_c, 0, 72, 64
2, 19260, Note_on_c, 0, 70, 127
2, 19308, Note_off_c, 0, 70, 64
2, 19320, Note_on_c, 0, 69, 127
2, 19368, Note_off_c, 0, 69, 64
2, 19380, Note_on_c, 0, 67, 127
2, 19428, Note_off_c, 0, 67, 64
2, 19440, Note_on_c, 0, 65, 127
2, 19488, Note_off_c, 0, 65, 64
2, 19500, Note_on_c, 0, 63, 127
2, 19548, Note_off_c, 0, 63, 64
2, 19560, Note_on_c, 0, 62, 127
2, 19608, Note_off_c, 0, 62, 64
2, 19620, Note_on_c, 0, 60, 127
2, 19668, Note_off_c, 0, 60, 64
2, 19680, Note_on_c, 0, 62, 127
2, 19776, Note_off_c, 0, 62, 64
2, 19800, Note_on_c, 0, 70, 127
2, 19896, Note_off_c, 0, 70, 64
2, 19920, Note_on_c, 0, 60, 127
2, 20016, Note_off_c, 0, 60, 64
2, 20040, Note_on_c, 0, 69, 127
2, 20136, Note_off_c, 0, 69, 64
2, 20160, Note_on_c, 0, 70, 127
2, 20256, Note_off_c, 0, 70, 64
2, 20280, Note_on_c, 0, 74, 127
2, 20376, Note_off_c, 0, 74, 64
2, 20400, Note_on_c, 0, 77, 127
2, 20592, Note_off_c, 0, 77, 64
2, 20640, Note_on_c, 0, 70, 127
2, 20736, Note_off_c, 0, 70, 64
2, 20760, Note_on_c, 0, 75, 127
2, 20856, Note_off_c, 0, 75, 64
2, 20880, Note_on_c, 0, 79, 127
2, 21168, Note_off_c, 0, 79, 64
2, 21180, Note_on_c, 0, 82, 127
2, 21228, Note_off_c, 0, 82, 64
2, 21240, Note_on_c, 0, 81, 127
2, 21288, Note_off_c, 0, 81, 64
2, 21300, Note_on_c, 0, 79, 127
2, 21348, Note_off_c, 0, 79, 64
2, 21360, Note_on_c, 0, 77, 127
2, 21456, Note_off_c, 0, 77, 64
2, 21480, Note_on_c, 0, 75, 127
2, 21576, Note_off_c, 0, 75, 64
2, 21600, Note_on_c, 0, 74, 127
2, 21696, Note_off_c, 0, 74, 64
2, 21720, Note_on_c, 0, 72, 127
2, 21768, Note_off_c, 0, 72, 64
2, 21780, Note_on_c, 0, 74, 127
2, 21828, Note_off_c, 0, 74, 64
2, 21840, Note_on_c, 0, 75, 127
2, 21888, Note_off_c, 0, 75, 64
2, 21900, Note_on_c, 0, 74, 127
2, 21948, Note_off_c, 0, 74, 64
2, 21960, Note_on_c, 0, 72, 127
2, 22008, Note_off_c, 0, 72, 64
2, 22020, Note_on_c, 0, 70, 127
2, 22068, Note_off_c, 0, 70, 64
2, 22080, Note_on_c, 0, 75, 127
2, 22128, Note_off_c, 0, 75, 64
2, 22140, Note_on_c, 0, 68, 127
2, 22188, Note_off_c, 0, 68, 64
2, 22200, Note_on_c, 0, 67, 127
2, 22248, Note_off_c, 0, 67, 64
2, 22260, Note_on_c, 0, 65, 127
2, 22308, Note_off_c, 0, 65, 64
2, 22320, Note_on_c, 0, 63, 127
2, 22368, Note_off_c, 0, 63, 64
2, 22380, Note_on_c, 0, 67, 127
2, 22428, Note_off_c, 0, 67, 64
2, 22440, Note_on_c, 0, 68, 127
2, 22488, Note_off_c, 0, 68, 64
2, 22500, Note_on_c, 0, 70, 127
2, 22548, Note_off_c, 0, 70, 64
2, 22560, Note_on_c, 0, 72, 127
2, 22608, Note_off_c, 0, 72, 64
2, 22620, Note_on_c, 0, 70, 127
2, 22668, Note_off_c, 0, 70, 64
2, 22680, Note_on_c, 0, 68, 127
2, 22728, Note_off_c, 0, 68, 64
2, 22740, Note_on_c, 0, 67, 127
2, 22788, Note_off_c, 0, 67, 64
2, 22800, Note_on_c, 0, 65, 127
2, 22848, Note_off_c, 0, 65, 64
2, 22860, Note_on_c, 0, 70, 127
2, 22908, Note_off_c, 0, 70, 64
2, 22920, Note_on_c, 0, 72, 127
2, 22968, Note_off_c, 0, 72, 64
2, 22980, Note_on_c, 0, 74, 127
2, 23028, Note_off_c, 0, 74, 64
2, 23040, Note_on_c, 0, 75, 127
2, 23184, Note_off_c, 0, 75, 64
2, 23220, Note_on_c, 0, 77, 127
2, 23268, Note_off_c, 0, 77, 64
2, 23280, Note_on_c, 0, 74, 127
2, 23424, Note_off_c, 0, 74, 64
2, 23460, Note_on_c, 0, 75, 127
2, 23508, Note_off_c, 0, 75, 64
2, 23520, Note_on_c, 0, 75, 127
2, 23616, Note_off_c, 0, 75, 64
2, 23640, Note_on_c, 0, 70, 127
2, 23736, Note_off_c, 0, 70, 64
2, 23760, Note_on_c, 0, 75, 127
2, 24048, Note_off_c, 0, 75, 64
2, 24060, Note_on_c, 0, 74, 127
2, 24108, Note_off_c, 0, 74, 64
2, 24120, Note_on_c, 0, 72, 127
2, 24168, Note_off_c, 0, 72, 64
2, 24180, Note_on_c, 0, 74, 127
2, 24228, Note_off_c, 0, 74, 64
2, 24240, Note_on_c, 0, 75, 127
2, 24288, Note_off_c, 0, 75, 64
2, 24300, Note_on_c, 0, 74, 127
2, 24348, Note_off_c, 0, 74, 64
2, 24360, Note_on_c, 0, 72, 127
2, 24408, Note_off_c, 0, 72, 64
2, 24420, Note_on_c, 0, 70, 127
2, 24468, Note_off_c, 0, 70, 64
2, 24480, Note_on_c, 0, 72, 127
2, 24576, Note_off_c, 0, 72, 64
2, 24600, Note_on_c, 0, 72, 127
2, 24696, Note_off_c, 0, 72, 64
2, 24720, Note_on_c, 0, 77, 127
2, 25008, Note_off_c, 0, 77, 64
2, 25020, Note_on_c, 0, 75, 127
2, 25068, Note_off_c, 0, 75, 64
2, 25080, Note_on_c, 0, 74, 127
2, 25128, Note_off_c, 0, 74, 64
2, 25140, Note_on_c, 0, 75, 127
2, 25188, Note_off_c, 0, 75, 64
2, 25200, Note_on_c, 0, 77, 127
2, 25248, Note_off_c, 0, 77, 64
2, 25260, Note_on_c, 0, 75, 127
2, 25308, Note_off_c, 0, 75, 64
2, 25320, Note_on_c, 0, 74, 127
2, 25368, Note_off_c, 0, 74, 64
2, 25380, Note_on_c, 0, 72, 127
2, 25428, Note_off_c, 0, 72, 64
2, 25440, Note_on_c, 0, 73, 127
2, 25488, Note_off_c, 0, 73, 64
2, 25500, Note_on_c, 0, 72, 127
2, 25548, Note_off_c, 0, 72, 64
2, 25560, Note_on_c, 0, 73, 127
2, 25608, Note_off_c, 0, 73, 64
2, 25620, Note_on_c, 0, 77, 127
2, 25668, Note_off_c, 0, 77, 64
2, 25680, Note_on_c, 0, 75, 127
2, 25728, Note_off_c, 0, 75, 64
2, 25740, Note_on_c, 0, 73, 127
2, 25788, Note_off_c, 0, 73, 64
2, 25800, Note_on_c, 0, 72, 127
2, 25848, Note_off_c, 0, 72, 64
2, 25860, Note_on_c, 0, 70, 127
2, 25908, Note_off_c, 0, 70, 64
2, 25920, Note_on_c, 0, 72, 127
2, 25968, Note_off_c, 0, 72, 64
2, 25980, Note_on_c, 0, 70, 127
2, 26028, Note_off_c, 0, 70, 64
2, 26040, Note_on_c, 0, 72, 127
2, 26088, Note_off_c, 0, 72, 64
2, 26100, Note_on_c, 0, 75, 127
2, 26148, Note_off_c, 0, 75, 64
2, 26160, Note_on_c, 0, 73, 127
2, 26208, Note_off_c, 0, 73, 64
2, 26220, Note_on_c, 0, 72, 127
2, 26268, Note_off_c, 0, 72, 64
2, 26280, Note_on_c, 0, 70, 127
2, 26328, Note_off_c, 0, 70, 64
2, 26340, Note_on_c, 0, 68, 127
2, 26388, Note_off_c, 0, 68, 64
2, 26400, Note_on_c, 0, 70, 127
2, 26448, Note_off_c, 0, 70, 64
2, 26460, Note_on_c, 0, 68, 127
2, 26508, Note_off_c, 0, 68, 64
2, 26520, Note_on_c, 0, 70, 127
2, 26568, Note_off_c, 0, 70, 64
2, 26580, Note_on_c, 0, 73, 127
2, 26628, Note_off_c, 0, 73, 64
2, 26640, Note_on_c, 0, 72, 127
2, 26688, Note_off_c, 0, 72, 64
2, 26700, Note_on_c, 0, 70, 127
2, 26748, Note_off_c, 0, 70, 64
2, 26760, Note_on_c, 0, 68, 127
2, 26808, Note_off_c, 0, 68, 64
2, 26820, Note_on_c, 0, 67, 127
2, 26868, Note_off_c, 0, 67, 64
2, 26880, Note_on_c, 0, 68, 127
2, 26928, Note_off_c, 0, 68, 64
2, 26940, Note_on_c, 0, 67, 127
2, 26988, Note_off_c, 0, 67, 64
2, 27000, Note_on_c, 0, 68, 127
2, 27048, Note_off_c, 0, 68, 64
2, 27060, Note_on_c, 0, 72, 127
2, 27108, Note_off_c, 0, 72, 64
2, 27120, Note_on_c, 0, 70, 127
2, 27168, Note_off_c, 0, 70, 64
2, 27180, Note_on_c, 0, 68, 127
2, 27228, Note_off_c, 0, 68, 64
2, 27240, Note_on_c, 0, 67, 127
2, 27288, Note_off_c, 0, 67, 64
2, 27300, Note_on_c, 0, 65, 127
2, 27348, Note_off_c, 0, 65, 64
2, 27360, Note_on_c, 0, 73, 127
2, 27888, Note_off_c, 0, 73, 64
2, 27900, Note_on_c, 0, 70, 127
2, 27948, Note_off_c, 0, 70, 64
2, 27960, Note_on_c, 0, 72, 127
2, 28008, Note_off_c, 0, 72, 64
2, 28020, Note_on_c, 0, 73, 127
2, 28068, Note_off_c, 0, 73, 64
2, 28080, Note_on_c, 0, 72, 127
2, 28128, Note_off_c, 0, 72, 64
2, 28140, Note_on_c, 0, 70, 127
2, 28188, Note_off_c, 0, 70, 64
2, 28200, Note_on_c, 0, 68, 127
2, 28248, Note_off_c, 0, 68, 64
2, 28260, Note_on_c, 0, 67, 127
2, 28308, Note_off_c, 0, 67, 64
2, 28320, Note_on_c, 0, 65, 127
2, 28416, Note_off_c, 0, 65, 64
2, 28440, Note_on_c, 0, 72, 127
2, 28536, Note_off_c, 0, 72, 64
2, 28560, Note_on_c, 0, 77, 127
2, 28848, Note_off_c, 0, 77, 64
2, 28860, Note_on_c, 0, 69, 127
2, 28908, Note_off_c, 0, 69, 64
2, 28920, Note_on_c, 0, 70, 127
2, 28968, Note_off_c, 0, 70, 64
2, 28980, Note_on_c, 0, 72, 127
2, 29028, Note_off_c, 0, 72, 64
2, 29040, Note_on_c, 0, 70, 127
2, 29088, Note_off_c, 0, 70, 64
2, 29100, Note_on_c, 0, 69, 127
2, 29148, Note_off_c, 0, 69, 64
2, 29160, Note_on_c, 0, 67, 127
2, 29208, Note_off_c, 0, 67, 64
2, 29220, Note_on_c, 0, 65, 127
2, 29268, Note_off_c, 0, 65, 64
2, 29280, Note_on_c, 0, 70, 127
2, 29328, Note_off_c, 0, 70, 64
2, 29340, Note_on_c, 0, 69, 127
2, 29388, Note_off_c, 0, 69, 64
2, 29400, Note_on_c, 0, 70, 127
2, 29448, Note_off_c, 0, 70, 64
2, 29460, Note_on_c, 0, 73, 127
2, 29508, Note_off_c, 0, 73, 64
2, 29520, Note_on_c, 0, 72, 127
2, 29568, Note_off_c, 0, 72, 64
2, 29580, Note_on_c, 0, 70, 127
2, 29628, Note_off_c, 0, 70, 64
2, 29640, Note_on_c, 0, 68, 127
2, 29688, Note_off_c, 0, 68, 64
2, 29700, Note_on_c, 0, 67, 127
2, 29748, Note_off_c, 0, 67, 64
2, 29760, Note_on_c, 0, 68, 127
2, 29808, Note_off_c, 0, 68, 64
2, 29820, Note_on_c, 0, 67, 127
2, 29868, Note_off_c, 0, 67, 64
2, 29880, Note_on_c, 0, 68, 127
2, 29928, Note_off_c, 0, 68, 64
2, 29940, Note_on_c, 0, 72, 127
2, 29988, Note_off_c, 0, 72, 64
2, 30000, Note_on_c, 0, 70, 127
2, 30048, Note_off_c, 0, 70, 64
2, 30060, Note_on_c, 0, 68, 127
2, 30108, Note_off_c, 0, 68, 64
2, 30120, Note_on_c, 0, 67, 127
2, 30168, Note_off_c, 0, 67, 64
2, 30180, Note_on_c, 0, 65, 127
2, 30228, Note_off_c, 0, 65, 64
2, 30240, Note_on_c, 0, 67, 127
2, 30288, Note_off_c, 0, 67, 64
2, 30300, Note_on_c, 0, 65, 127
2, 30348, Note_off_c, 0, 65, 64
2, 30360, Note_on_c, 0, 67, 127
2, 30408, Note_off_c, 0, 67, 64
2, 30420, Note_on_c, 0, 70, 127
2, 30468, Note_off_c, 0, 70, 64
2, 30480, Note_on_c, 0, 68, 127
2, 30528, Note_off_c, 0, 68, 64
2, 30540, Note_on_c, 0, 67, 127
2, 30588, Note_off_c, 0, 67, 64
2, 30600, Note_on_c, 0, 65, 127
2, 30648, Note_off_c, 0, 65, 64
2, 30660, Note_on_c, 0, 64, 127
2, 30708, Note_off_c, 0, 64, 64
2, 30720, Note_on_c, 0, 65, 127
2, 30768, Note_off_c, 0, 65, 64
2, 30780, Note_on_c, 0, 64, 127
2, 30828, Note_off_c, 0, 64, 64
2, 30840, Note_on_c, 0, 62, 127
2, 30888, Note_off_c, 0, 62, 64
2, 30900, Note_on_c, 0, 60, 127
2, 30948, Note_off_c, 0, 60, 64
2, 30960, Note_on_c, 0, 72, 127
2, 31056, Note_off_c, 0, 72, 64
2, 31080, Note_on_c, 0, 70, 127
2, 31176, Note_off_c, 0, 70, 64
2, 31200, Note_on_c, 0, 68, 127
2, 31392, Note_off_c, 0, 68, 64
2, 31440, Note_on_c, 0, 67, 127
2, 31632, Note_off_c, 0, 67, 64
2, 31680, Note_on_c, 0, 65, 127
2, 31776, Note_off_c, 0, 65, 64
2, 31800, Note_on_c, 0, 69, 127
2, 31896, Note_off_c, 0, 69, 64
2, 31920, Note_on_c, 0, 72, 127
2, 32112, Note_off_c, 0, 72, 64
2, 32160, Note_on_c, 0, 65, 127
2, 32256, Note_off_c, 0, 65, 64
2, 32280, Note_on_c, 0, 70, 127
2, 32376, Note_off_c, 0, 70, 64
2, 32400, Note_on_c, 0, 73, 127
2, 32688, Note_off_c, 0, 73, 64
2, 32700, Note_on_c, 0, 77, 127
2, 32748, Note_off_c, 0, 77, 64
2, 32760, Note_on_c, 0, 76, 127
2, 32808, Note_off_c, 0, 76, 64
2, 32820, Note_on_c, 0, 79, 127
2, 32868, Note_off_c, 0, 79, 64
2, 32880, Note_on_c, 0, 72, 127
2, 32976, Note_off_c, 0, 72, 64
2, 33000, Note_on_c, 0, 70, 127
2, 33096, Note_off_c, 0, 70, 64
2, 33120, Note_on_c, 0, 68, 127
2, 33216, Note_off_c, 0, 68, 64
2, 33240, Note_on_c, 0, 77, 127
2, 33336, Note_off_c, 0, 77, 64
2, 33360, Note_on_c, 0, 67, 127
2, 33456, Note_off_c, 0, 67, 64
2, 33480, Note_on_c, 0, 76, 127
2, 33576, Note_off_c, 0, 76, 64
2, 33600, Note_on_c, 0, 77, 127
2, 33792, Note_off_c, 0, 77, 64
2, 33960, Note_on_c, 0, 77, 127
2, 34056, Note_off_c, 0, 77, 64
2, 34080, Note_on_c, 0, 76, 127
2, 34176, Note_off_c, 0, 76, 64
2, 34200, Note_on_c, 0, 79, 127
2, 34296, Note_off_c, 0, 79, 64
2, 34320, Note_on_c, 0, 84, 127
2, 34512, Note_off_c, 0, 84, 64
2, 34560, Note_on_c, 0, 77, 127
2, 34656, Note_off_c, 0, 77, 64
2, 34680, Note_on_c, 0, 80, 127
2, 34776, Note_off_c, 0, 80, 64
2, 34800, Note_on_c, 0, 84, 127
2, 34992, Note_off_c, 0, 84, 64
2, 35040, Note_on_c, 0, 76, 127
2, 35136, Note_off_c, 0, 76, 64
2, 35160, Note_on_c, 0, 79, 127
2, 35256, Note_off_c, 0, 79, 64
2, 35280, Note_on_c, 0, 84, 127
2, 35568, Note_off_c, 0, 84, 64
2, 35580, Note_on_c, 0, 82, 127
2, 35628, Note_off_c, 0, 82, 64
2, 35640, Note_on_c, 0, 80, 127
2, 35688, Note_off_c, 0, 80, 64
2, 35700, Note_on_c, 0, 79, 127
2, 35748, Note_off_c, 0, 79, 64
2, 35760, Note_on_c, 0, 77, 127
2, 35808, Note_off_c, 0, 77, 64
2, 35820, Note_on_c, 0, 75, 127
2, 35868, Note_off_c, 0, 75, 64
2, 35880, Note_on_c, 0, 73, 127
2, 35928, Note_off_c, 0, 73, 64
2, 35940, Note_on_c, 0, 72, 127
2, 35988, Note_off_c, 0, 72, 64
2, 36000, Note_on_c, 0, 73, 127
2, 36048, Note_off_c, 0, 73, 64
2, 36060, Note_on_c, 0, 75, 127
2, 36108, Note_off_c, 0, 75, 64
2, 36120, Note_on_c, 0, 79, 127
2, 36168, Note_off_c, 0, 79, 64
2, 36180, Note_on_c, 0, 77, 127
2, 36228, Note_off_c, 0, 77, 64
2, 36240, Note_on_c, 0, 79, 127
2, 36288, Note_off_c, 0, 79, 64
2, 36300, Note_on_c, 0, 75, 127
2, 36348, Note_off_c, 0, 75, 64
2, 36360, Note_on_c, 0, 73, 127
2, 36408, Note_off_c, 0, 73, 64
2, 36420, Note_on_c, 0, 75, 127
2, 36468, Note_off_c, 0, 75, 64
2, 36480, Note_on_c, 0, 72, 127
2, 36528, Note_off_c, 0, 72, 64
2, 36540, Note_on_c, 0, 75, 127
2, 36588, Note_off_c, 0, 75, 64
2, 36600, Note_on_c, 0, 80, 127
2, 36648, Note_off_c, 0, 80, 64
2, 36660, Note_on_c, 0, 79, 127
2, 36708, Note_off_c, 0, 79, 64
2, 36720, Note_on_c, 0, 80, 127
2, 36768, Note_off_c, 0, 80, 64
2, 36780, Note_on_c, 0, 75, 127
2, 36828, Note_off_c, 0, 75, 64
2, 36840, Note_on_c, 0, 72, 127
2, 36888, Note_off_c, 0, 72, 64
2, 36900, Note_on_c, 0, 75, 127
2, 36948, Note_off_c, 0, 75, 64
2, 36960, Note_on_c, 0, 70, 127
2, 37008, Note_off_c, 0, 70, 64
2, 37020, Note_on_c, 0, 73, 127
2, 37068, Note_off_c, 0, 73, 64
2, 37080, Note_on_c, 0, 79, 127
2, 37128, Note_off_c, 0, 79, 64
2, 37140, Note_on_c, 0, 77, 127
2, 37188, Note_off_c, 0, 77, 64
2, 37200, Note_on_c, 0, 79, 127
2, 37248, Note_off_c, 0, 79, 64
2, 37260, Note_on_c, 0, 73, 127
2, 37308, Note_off_c, 0, 73, 64
2, 37320, Note_on_c, 0, 70, 127
2, 37368, Note_off_c, 0, 70, 64
2, 37380, Note_on_c, 0, 73, 127
2, 37428, Note_off_c, 0, 73, 64
2, 37440, Note_on_c, 0, 72, 127
2, 37632, Note_off_c, 0, 72, 64
2, 37800, Note_on_c, 0, 68, 127
2, 37896, Note_off_c, 0, 68, 64
2, 37920, Note_on_c, 0, 67, 127
2, 38016, Note_off_c, 0, 67, 64
2, 38040, Note_on_c, 0, 70, 127
2, 38136, Note_off_c, 0, 70, 64
2, 38160, Note_on_c, 0, 75, 127
2, 38352, Note_off_c, 0, 75, 64
2, 38400, Note_on_c, 0, 68, 127
2, 38496, Note_off_c, 0, 68, 64
2, 38520, Note_on_c, 0, 72, 127
2, 38616, Note_off_c, 0, 72, 64
2, 38640, Note_on_c, 0, 75, 127
2, 38832, Note_off_c, 0, 75, 64
2, 38880, Note_on_c, 0, 70, 127
2, 38928, Note_off_c, 0, 70, 64
2, 38940, Note_on_c, 0, 73, 127
2, 38988, Note_off_c, 0, 73, 64
2, 39000, Note_on_c, 0, 79, 127
2, 39048, Note_off_c, 0, 79, 64
2, 39060, Note_on_c, 0, 77, 127
2, 39108, Note_off_c, 0, 77, 64
2, 39120, Note_on_c, 0, 79, 127
2, 39168, Note_off_c, 0, 79, 64
2, 39180, Note_on_c, 0, 73, 127
2, 39228, Note_off_c, 0, 73, 64
2, 39240, Note_on_c, 0, 70, 127
2, 39288, Note_off_c, 0, 70, 64
2, 39300, Note_on_c, 0, 73, 127
2, 39348, Note_off_c, 0, 73, 64
2, 39360, Note_on_c, 0, 72, 127
2, 39408, Note_off_c, 0, 72, 64
2, 39420, Note_on_c, 0, 75, 127
2, 39468, Note_off_c, 0, 75, 64
2, 39480, Note_on_c, 0, 80, 127
2, 39528, Note_off_c, 0, 80, 64
2, 39540, Note_on_c, 0, 75, 127
2, 39588, Note_off_c, 0, 75, 64
2, 39600, Note_on_c, 0, 72, 127
2, 39648, Note_off_c, 0, 72, 64
2, 39660, Note_on_c, 0, 75, 127
2, 39708, Note_off_c, 0, 75, 64
2, 39720, Note_on_c, 0, 68, 127
2, 39768, Note_off_c, 0, 68, 64
2, 39780, Note_on_c, 0, 67, 127
2, 39828, Note_off_c, 0, 67, 64
2, 39840, Note_on_c, 0, 69, 127
2, 39936, Note_off_c, 0, 69, 64
2, 39960, Note_on_c, 0, 72, 127
2, 40056, Note_off_c, 0, 72, 64
2, 40080, Note_on_c, 0, 77, 127
2, 40272, Note_off_c, 0, 77, 64
2, 40320, Note_on_c, 0, 70, 127
2, 40416, Note_off_c, 0, 70, 64
2, 40440, Note_on_c, 0, 74, 127
2, 40536, Note_off_c, 0, 74, 64
2, 40560, Note_on_c, 0, 77, 127
2, 40752, Note_off_c, 0, 77, 64
2, 40800, Note_on_c, 0, 72, 127
2, 40848, Note_off_c, 0, 72, 64
2, 40860, Note_on_c, 0, 75, 127
2, 40908, Note_off_c, 0, 75, 64
2, 40920, Note_on_c, 0, 81, 127
2, 40968, Note_off_c, 0, 81, 64
2, 40980, Note_on_c, 0, 79, 127
2, 41028, Note_off_c, 0, 79, 64
2, 41040, Note_on_c, 0, 81, 127
2, 41088, Note_off_c, 0, 81, 64
2, 41100, Note_on_c, 0, 75, 127
2, 41148, Note_off_c, 0, 75, 64
2, 41160, Note_on_c, 0, 72, 127
2, 41208, Note_off_c, 0, 72, 64
2, 41220, Note_on_c, 0, 75, 127
2, 41268, Note_off_c, 0, 75, 64
2, 41280, Note_on_c, 0, 74, 127
2, 41328, Note_off_c, 0, 74, 64
2, 41340, Note_on_c, 0, 77, 127
2, 41388, Note_off_c, 0, 77, 64
2, 41400, Note_on_c, 0, 82, 127
2, 41448, Note_off_c, 0, 82, 64
2, 41460, Note_on_c, 0, 77, 127
2, 41508, Note_off_c, 0, 77, 64
2, 41520, Note_on_c, 0, 74, 127
2, 41568, Note_off_c, 0, 74, 64
2, 41580, Note_on_c, 0, 77, 127
2, 41628, Note_off_c, 0, 77, 64
2, 41640, Note_on_c, 0, 70, 127
2, 41688, Note_off_c, 0, 70, 64
2, 41700, Note_on_c, 0, 69, 127
2, 41748, Note_off_c, 0, 69, 64
2, 41760, Note_on_c, 0, 71, 127
2, 41856, Note_off_c, 0, 71, 64
2, 41880, Note_on_c, 0, 74, 127
2, 41976, Note_off_c, 0, 74, 64
2, 42000, Note_on_c, 0, 79, 127
2, 42192, Note_off_c, 0, 79, 64
2, 42240, Note_on_c, 0, 72, 127
2, 42336, Note_off_c, 0, 72, 64
2, 42360, Note_on_c, 0, 75, 127
2, 42456, Note_off_c, 0, 75, 64
2, 42480, Note_on_c, 0, 80, 127
2, 42768, Note_off_c, 0, 80, 64
2, 42780, Note_on_c, 0, 79, 127
2, 42828, Note_off_c, 0, 79, 64
2, 42840, Note_on_c, 0, 77, 127
2, 42888, Note_off_c, 0, 77, 64
2, 42900, Note_on_c, 0, 79, 127
2, 42948, Note_off_c, 0, 79, 64
2, 42960, Note_on_c, 0, 80, 127
2, 43008, Note_off_c, 0, 80, 64
2, 43020, Note_on_c, 0, 79, 127
2, 43068, Note_off_c, 0, 79, 64
2, 43080, Note_on_c, 0, 77, 127
2, 43128, Note_off_c, 0, 77, 64
2, 43140, Note_on_c, 0, 75, 127
2, 43188, Note_off_c, 0, 75, 64
2, 43200, Note_on_c, 0, 74, 127
2, 43392, Note_off_c, 0, 74, 64
2, 43500, Note_on_c, 0, 74, 127
2, 43548, Note_off_c, 0, 74, 64
2, 43560, Note_on_c, 0, 75, 127
2, 43608, Note_off_c, 0, 75, 64
2, 43620, Note_on_c, 0, 77, 127
2, 43668, Note_off_c, 0, 77, 64
2, 43680, Note_on_c, 0, 75, 127
2, 43728, Note_off_c, 0, 75, 64
2, 43740, Note_on_c, 0, 79, 127
2, 43788, Note_off_c, 0, 79, 64
2, 43800, Note_on_c, 0, 82, 127
2, 43848, Note_off_c, 0, 82, 64
2, 43860, Note_on_c, 0, 80, 127
2, 43908, Note_off_c, 0, 80, 64
2, 43920, Note_on_c, 0, 82, 127
2, 43968, Note_off_c, 0, 82, 64
2, 43980, Note_on_c, 0, 79, 127
2, 44028, Note_off_c, 0, 79, 64
2, 44040, Note_on_c, 0, 75, 127
2, 44088, Note_off_c, 0, 75, 64
2, 44100, Note_on_c, 0, 79, 127
2, 44148, Note_off_c, 0, 79, 64
2, 44160, Note_on_c, 0, 73, 127
2, 44208, Note_off_c, 0, 73, 64
2, 44220, Note_on_c, 0, 79, 127
2, 44268, Note_off_c, 0, 79, 64
2, 44280, Note_on_c, 0, 82, 127
2, 44328, Note_off_c, 0, 82, 64
2, 44340, Note_on_c, 0, 80, 127
2, 44388, Note_off_c, 0, 80, 64
2, 44400, Note_on_c, 0, 82, 127
2, 44448, Note_off_c, 0, 82, 64
2, 44460, Note_on_c, 0, 79, 127
2, 44508, Note_off_c, 0, 79, 64
2, 44520, Note_on_c, 0, 73, 127
2, 44568, Note_off_c, 0, 73, 64
2, 44580, Note_on_c, 0, 79, 127
2, 44628, Note_off_c, 0, 79, 64
2, 44640, Note_on_c, 0, 72, 127
2, 44688, Note_off_c, 0, 72, 64
2, 44700, Note_on_c, 0, 79, 127
2, 44748, Note_off_c, 0, 79, 64
2, 44760, Note_on_c, 0, 82, 127
2, 44808, Note_off_c, 0, 82, 64
2, 44820, Note_on_c, 0, 80, 127
2, 44868, Note_off_c, 0, 80, 64
2, 44880, Note_on_c, 0, 82, 127
2, 44928, Note_off_c, 0, 82, 64
2, 44940, Note_on_c, 0, 79, 127
2, 44988, Note_off_c, 0, 79, 64
2, 45000, Note_on_c, 0, 72, 127
2, 45048, Note_off_c, 0, 72, 64
2, 45060, Note_on_c, 0, 79, 127
2, 45108, Note_off_c, 0, 79, 64
2, 45120, Note_on_c, 0, 72, 127
2, 45168, Note_off_c, 0, 72, 64
2, 45180, Note_on_c, 0, 77, 127
2, 45228, Note_off_c, 0, 77, 64
2, 45240, Note_on_c, 0, 80, 127
2, 45288, Note_off_c, 0, 80, 64
2, 45300, Note_on_c, 0, 79, 127
2, 45348, Note_off_c, 0, 79, 64
2, 45360, Note_on_c, 0, 80, 127
2, 45408, Note_off_c, 0, 80, 64
2, 45420, Note_on_c, 0, 77, 127
2, 45468, Note_off_c, 0, 77, 64
2, 45480, Note_on_c, 0, 72, 127
2, 45528, Note_off_c, 0, 72, 64
2, 45540, Note_on_c, 0, 77, 127
2, 45588, Note_off_c, 0, 77, 64
2, 45600, Note_on_c, 0, 70, 127
2, 45648, Note_off_c, 0, 70, 64
2, 45660, Note_on_c, 0, 77, 127
2, 45708, Note_off_c, 0, 77, 64
2, 45720, Note_on_c, 0, 80, 127
2, 45768, Note_off_c, 0, 80, 64
2, 45780, Note_on_c, 0, 79, 127
2, 45828, Note_off_c, 0, 79, 64
2, 45840, Note_on_c, 0, 80, 127
2, 45888, Note_off_c, 0, 80, 64
2, 45900, Note_on_c, 0, 77, 127
2, 45948, Note_off_c, 0, 77, 64
2, 45960, Note_on_c, 0, 70, 127
2, 46008, Note_off_c, 0, 70, 64
2, 46020, Note_on_c, 0, 77, 127
2, 46068, Note_off_c, 0, 77, 64
2, 46080, Note_on_c, 0, 70, 127
2, 46128, Note_off_c, 0, 70, 64
2, 46140, Note_on_c, 0, 75, 127
2, 46188, Note_off_c, 0, 75, 64
2, 46200, Note_on_c, 0, 79, 127
2, 46248, Note_off_c, 0, 79, 64
2, 46260, Note_on_c, 0, 77, 127
2, 46308, Note_off_c, 0, 77, 64
2, 46320, Note_on_c, 0, 79, 127
2, 46368, Note_off_c, 0, 79, 64
2, 46380, Note_on_c, 0, 75, 127
2, 46428, Note_off_c, 0, 75, 64
2, 46440, Note_on_c, 0, 70, 127
2, 46488, Note_off_c, 0, 70, 64
2, 46500, Note_on_c, 0, 75, 127
2, 46548, Note_off_c, 0, 75, 64
2, 46560, Note_on_c, 0, 69, 127
2, 46608, Note_off_c, 0, 69, 64
2, 46620, Note_on_c, 0, 75, 127
2, 46668, Note_off_c, 0, 75, 64
2, 46680, Note_on_c, 0, 78, 127
2, 46728, Note_off_c, 0, 78, 64
2, 46740, Note_on_c, 0, 77, 127
2, 46788, Note_off_c, 0, 77, 64
2, 46800, Note_on_c, 0, 78, 127
2, 46848, Note_off_c, 0, 78, 64
2, 46860, Note_on_c, 0, 75, 127
2, 46908, Note_off_c, 0, 75, 64
2, 46920, Note_on_c, 0, 69, 127
2, 46968, Note_off_c, 0, 69, 64
2, 46980, Note_on_c, 0, 75, 127
2, 47028, Note_off_c, 0, 75, 64
2, 47040, Note_on_c, 0, 70, 127
2, 47088, Note_off_c, 0, 70, 64
2, 47100, Note_on_c, 0, 72, 127
2, 47148, Note_off_c, 0, 72, 64
2, 47160, Note_on_c, 0, 74, 127
2, 47208, Note_off_c, 0, 74, 64
2, 47220, Note_on_c, 0, 75, 127
2, 47268, Note_off_c, 0, 75, 64
2, 47280, Note_on_c, 0, 77, 127
2, 47568, Note_off_c, 0, 77, 64
2, 47580, Note_on_c, 0, 70, 127
2, 47628, Note_off_c, 0, 70, 64
2, 47640, Note_on_c, 0, 67, 127
2, 47688, Note_off_c, 0, 67, 64
2, 47700, Note_on_c, 0, 70, 127
2, 47748, Note_off_c, 0, 70, 64
2, 47760, Note_on_c, 0, 72, 127
2, 47808, Note_off_c, 0, 72, 64
2, 47820, Note_on_c, 0, 68, 127
2, 47868, Note_off_c, 0, 68, 64
2, 47880, Note_on_c, 0, 65, 127
2, 47928, Note_off_c, 0, 65, 64
2, 47940, Note_on_c, 0, 68, 127
2, 47988, Note_off_c, 0, 68, 64
2, 48000, Note_on_c, 0, 67, 127
2, 48096, Note_off_c, 0, 67, 64
2, 48120, Note_on_c, 0, 63, 127
2, 48216, Note_off_c, 0, 63, 64
2, 48360, Note_on_c, 0, 67, 127
2, 48528, Note_off_c, 0, 67, 64
2, 48540, Note_on_c, 0, 65, 127
2, 48588, Note_off_c, 0, 65, 64
2, 48600, Note_on_c, 0, 67, 127
2, 48648, Note_off_c, 0, 67, 64
2, 48660, Note_on_c, 0, 70, 127
2, 48708, Note_off_c, 0, 70, 64
2, 48720, Note_on_c, 0, 68, 127
2, 48768, Note_off_c, 0, 68, 64
2, 48780, Note_on_c, 0, 67, 127
2, 48828, Note_off_c, 0, 67, 64
2, 48840, Note_on_c, 0, 65, 127
2, 48888, Note_off_c, 0, 65, 64
2, 48900, Note_on_c, 0, 63, 127
2, 48948, Note_off_c, 0, 63, 64
2, 48960, Note_on_c, 0, 62, 127
2, 49056, Note_off_c, 0, 62, 64
2, 49080, Note_on_c, 0, 65, 127
2, 49176, Note_off_c, 0, 65, 64
2, 49200, Note_on_c, 0, 68, 127
2, 49488, Note_off_c, 0, 68, 64
2, 49500, Note_on_c, 0, 65, 127
2, 49548, Note_off_c, 0, 65, 64
2, 49560, Note_on_c, 0, 67, 127
2, 49608, Note_off_c, 0, 67, 64
2, 49620, Note_on_c, 0, 70, 127
2, 49668, Note_off_c, 0, 70, 64
2, 49680, Note_on_c, 0, 68, 127
2, 49728, Note_off_c, 0, 68, 64
2, 49740, Note_on_c, 0, 67, 127
2, 49788, Note_off_c, 0, 67, 64
2, 49800, Note_on_c, 0, 65, 127
2, 49848, Note_off_c, 0, 65, 64
2, 49860, Note_on_c, 0, 63, 127
2, 49908, Note_off_c, 0, 63, 64
2, 49920, Note_on_c, 0, 75, 127
2, 50496, Note_off_c, 0, 75, 64
2, 50520, Note_on_c, 0, 72, 127
2, 50616, Note_off_c, 0, 72, 64
2, 50640, Note_on_c, 0, 74, 127
2, 50688, Note_off_c, 0, 74, 64
2, 50700, Note_on_c, 0, 75, 127
2, 50748, Note_off_c, 0, 75, 64
2, 50760, Note_on_c, 0, 77, 127
2, 50976, Note_off_c, 0, 77, 64
2, 51000, Note_on_c, 0, 70, 127
2, 51096, Note_off_c, 0, 70, 64
2, 51120, Note_on_c, 0, 72, 127
2, 51168, Note_off_c, 0, 72, 64
2, 51180, Note_on_c, 0, 74, 127
2, 51228, Note_off_c, 0, 74, 64
2, 51240, Note_on_c, 0, 75, 127
2, 51408, Note_off_c, 0, 75, 64
2, 51420, Note_on_c, 0, 67, 127
2, 51468, Note_off_c, 0, 67, 64
2, 51480, Note_on_c, 0, 68, 127
2, 51528, Note_off_c, 0, 68, 64
2, 51540, Note_on_c, 0, 72, 127
2, 51588, Note_off_c, 0, 72, 64
2, 51600, Note_on_c, 0, 70, 127
2, 51648, Note_off_c, 0, 70, 64
2, 51660, Note_on_c, 0, 68, 127
2, 51708, Note_off_c, 0, 68, 64
2, 51720, Note_on_c, 0, 67, 127
2, 51768, Note_off_c, 0, 67, 64
2, 51780, Note_on_c, 0, 65, 127
2, 51828, Note_off_c, 0, 65, 64
2, 51840, Note_on_c, 0, 77, 127
2, 51936, Note_off_c, 0, 77, 64
2, 51960, Note_on_c, 0, 74, 127
2, 52056, Note_off_c, 0, 74, 64
2, 52080, Note_on_c, 0, 75, 127
2, 52368, Note_off_c, 0, 75, 64
2, 52380, Note_on_c, 0, 79, 127
2, 52428, Note_off_c, 0, 79, 64
2, 52440, Note_on_c, 0, 77, 127
2, 52488, Note_off_c, 0, 77, 64
2, 52500, Note_on_c, 0, 75, 127
2, 52548, Note_off_c, 0, 75, 64
2, 52560, Note_on_c, 0, 74, 127
2, 52608, Note_off_c, 0, 74, 64
2, 52620, Note_on_c, 0, 72, 127
2, 52668, Note_off_c, 0, 72, 64
2, 52680, Note_on_c, 0, 70, 127
2, 52728, Note_off_c, 0, 70, 64
2, 52740, Note_on_c, 0, 72, 127
2, 52788, Note_off_c, 0, 72, 64
2, 52800, Note_on_c, 0, 73, 127
2, 52848, Note_off_c, 0, 73, 64
2, 52860, Note_on_c, 0, 68, 127
2, 52908, Note_off_c, 0, 68, 64
2, 52920, Note_on_c, 0, 67, 127
2, 52968, Note_off_c, 0, 67, 64
2, 52980, Note_on_c, 0, 65, 127
2, 53028, Note_off_c, 0, 65, 64
2, 53040, Note_on_c, 0, 63, 127
2, 53088, Note_off_c, 0, 63, 64
2, 53100, Note_on_c, 0, 67, 127
2, 53148, Note_off_c, 0, 67, 64
2, 53160, Note_on_c, 0, 68, 127
2, 53208, Note_off_c, 0, 68, 64
2, 53220, Note_on_c, 0, 70, 127
2, 53268, Note_off_c, 0, 70, 64
2, 53280, Note_on_c, 0, 72, 127
2, 53328, Note_off_c, 0, 72, 64
2, 53340, Note_on_c, 0, 70, 127
2, 53388, Note_off_c, 0, 70, 64
2, 53400, Note_on_c, 0, 68, 127
2, 53448, Note_off_c, 0, 68, 64
2, 53460, Note_on_c, 0, 67, 127
2, 53508, Note_off_c, 0, 67, 64
2, 53520, Note_on_c, 0, 65, 127
2, 53568, Note_off_c, 0, 65, 64
2, 53580, Note_on_c, 0, 70, 127
2, 53628, Note_off_c, 0, 70, 64
2, 53640, Note_on_c, 0, 72, 127
2, 53688, Note_off_c, 0, 72, 64
2, 53700, Note_on_c, 0, 74, 127
2, 53748, Note_off_c, 0, 74, 64
2, 53760, Note_on_c, 0, 75, 127
2, 53808, Note_off_c, 0, 75, 64
2, 53820, Note_on_c, 0, 72, 127
2, 53868, Note_off_c, 0, 72, 64
2, 53880, Note_on_c, 0, 70, 127
2, 53928, Note_off_c, 0, 70, 64
2, 53940, Note_on_c, 0, 68, 127
2, 53988, Note_off_c, 0, 68, 64
2, 54000, Note_on_c, 0, 67, 127
2, 54048, Note_off_c, 0, 67, 64
2, 54060, Note_on_c, 0, 74, 127
2, 54108, Note_off_c, 0, 74, 64
2, 54120, Note_on_c, 0, 75, 127
2, 54168, Note_off_c, 0, 75, 64
2, 54180, Note_on_c, 0, 77, 127
2, 54228, Note_off_c, 0, 77, 64
2, 54240, Note_on_c, 0, 70, 127
2, 54288, Note_off_c, 0, 70, 64
2, 54300, Note_on_c, 0, 75, 127
2, 54348, Note_off_c, 0, 75, 64
2, 54360, Note_on_c, 0, 77, 127
2, 54408, Note_off_c, 0, 77, 64
2, 54420, Note_on_c, 0, 79, 127
2, 54468, Note_off_c, 0, 79, 64
2, 54480, Note_on_c, 0, 72, 127
2, 54528, Note_off_c, 0, 72, 64
2, 54540, Note_on_c, 0, 77, 127
2, 54588, Note_off_c, 0, 77, 64
2, 54600, Note_on_c, 0, 70, 127
2, 54648, Note_off_c, 0, 70, 64
2, 54660, Note_on_c, 0, 68, 127
2, 54708, Note_off_c, 0, 68, 64
2, 54720, Note_on_c, 0, 67, 127
2, 54816, Note_off_c, 0, 67, 64
2, 54840, Note_on_c, 0, 75, 127
2, 54936, Note_off_c, 0, 75, 64
2, 54960, Note_on_c, 0, 65, 127
2, 55056, Note_off_c, 0, 65, 64
2, 55080, Note_on_c, 0, 74, 127
2, 55176, Note_off_c, 0, 74, 64
2, 55200, Note_on_c, 0, 74, 127
2, 55296, Note_off_c, 0, 74, 64
2, 55320, Note_on_c, 0, 75, 127
2, 55680, Note_off_c, 0, 75, 64
2, 55680, End_track
3, 0, Start_track
3, 0, Title_t, "J.S. Bach, Edition Peters"
3, 0, Program_c, 0, 19
3, 0, Control_c, 0, 7, 127
3, 0, Note_on_c, 0, 63, 127
3, 96, Note_off_c, 0, 63, 64
3, 120, Note_on_c, 0, 67, 127
3, 216, Note_off_c, 0, 67, 64
3, 240, Note_on_c, 0, 70, 127
3, 432, Note_off_c, 0, 70, 64
3, 480, Note_on_c, 0, 63, 127
3, 576, Note_off_c, 0, 63, 64
3, 600, Note_on_c, 0, 68, 127
3, 696, Note_off_c, 0, 68, 64
3, 720, Note_on_c, 0, 72, 127
3, 1008, Note_off_c, 0, 72, 64
3, 1020, Note_on_c, 0, 75, 127
3, 1068, Note_off_c, 0, 75, 64
3, 1080, Note_on_c, 0, 74, 127
3, 1128, Note_off_c, 0, 74, 64
3, 1140, Note_on_c, 0, 72, 127
3, 1188, Note_off_c, 0, 72, 64
3, 1200, Note_on_c, 0, 70, 127
3, 1296, Note_off_c, 0, 70, 64
3, 1320, Note_on_c, 0, 70, 127
3, 1344, Note_off_c, 0, 70, 64
3, 1350, Note_on_c, 0, 68, 127
3, 1374, Note_off_c, 0, 68, 64
3, 1380, Note_on_c, 0, 70, 127
3, 1404, Note_off_c, 0, 70, 64
3, 1410, Note_on_c, 0, 68, 127
3, 1434, Note_off_c, 0, 68, 64
3, 1440, Note_on_c, 0, 67, 127
3, 1536, Note_off_c, 0, 67, 64
3, 1560, Note_on_c, 0, 65, 127
3, 1608, Note_off_c, 0, 65, 64
3, 1620, Note_on_c, 0, 67, 127
3, 1668, Note_off_c, 0, 67, 64
3, 1680, Note_on_c, 0, 68, 127
3, 1728, Note_off_c, 0, 68, 64
3, 1740, Note_on_c, 0, 67, 127
3, 1788, Note_off_c, 0, 67, 64
3, 1800, Note_on_c, 0, 65, 127
3, 1848, Note_off_c, 0, 65, 64
3, 1860, Note_on_c, 0, 63, 127
3, 1908, Note_off_c, 0, 63, 64
3, 1920, Note_on_c, 0, 65, 127
3, 1968, Note_off_c, 0, 65, 64
3, 1980, Note_on_c, 0, 63, 127
3, 2028, Note_off_c, 0, 63, 64
3, 2040, Note_on_c, 0, 62, 127
3, 2088, Note_off_c, 0, 62, 64
3, 2100, Note_on_c, 0, 60, 127
3, 2148, Note_off_c, 0, 60, 64
3, 2160, Note_on_c, 0, 58, 127
3, 2208, Note_off_c, 0, 58, 64
3, 2220, Note_on_c, 0, 62, 127
3, 2268, Note_off_c, 0, 62, 64
3, 2280, Note_on_c, 0, 63, 127
3, 2328, Note_off_c, 0, 63, 64
3, 2340, Note_on_c, 0, 65, 127
3, 2388, Note_off_c, 0, 65, 64
3, 2400, Note_on_c, 0, 67, 127
3, 2448, Note_off_c, 0, 67, 64
3, 2460, Note_on_c, 0, 65, 127
3, 2508, Note_off_c, 0, 65, 64
3, 2520, Note_on_c, 0, 63, 127
3, 2568, Note_off_c, 0, 63, 64
3, 2580, Note_on_c, 0, 62, 127
3, 2628, Note_off_c, 0, 62, 64
3, 2640, Note_on_c, 0, 60, 127
3, 2688, Note_off_c, 0, 60, 64
3, 2700, Note_on_c, 0, 65, 127
3, 2748, Note_off_c, 0, 65, 64
3, 2760, Note_on_c, 0, 67, 127
3, 2808, Note_off_c, 0, 67, 64
3, 2820, Note_on_c, 0, 69, 127
3, 2868, Note_off_c, 0, 69, 64
3, 2880, Note_on_c, 0, 70, 127
3, 2976, Note_off_c, 0, 70, 64
3, 3060, Note_on_c, 0, 72, 127
3, 3108, Note_off_c, 0, 72, 64
3, 3120, Note_on_c, 0, 69, 127
3, 3264, Note_off_c, 0, 69, 64
3, 3300, Note_on_c, 0, 70, 127
3, 3348, Note_off_c, 0, 70, 64
3, 3360, Note_on_c, 0, 70, 127
3, 3456, Note_off_c, 0, 70, 64
3, 3480, Note_on_c, 0, 65, 127
3, 3576, Note_off_c, 0, 65, 64
3, 3600, Note_on_c, 0, 70, 127
3, 3888, Note_off_c, 0, 70, 64
3, 3900, Note_on_c, 0, 68, 127
3, 3948, Note_off_c, 0, 68, 64
3, 3960, Note_on_c, 0, 67, 127
3, 4008, Note_off_c, 0, 67, 64
3, 4020, Note_on_c, 0, 68, 127
3, 4068, Note_off_c, 0, 68, 64
3, 4080, Note_on_c, 0, 70, 127
3, 4128, Note_off_c, 0, 70, 64
3, 4140, Note_on_c, 0, 68, 127
3, 4188, Note_off_c, 0, 68, 64
3, 4200, Note_on_c, 0, 67, 127
3, 4248, Note_off_c, 0, 67, 64
3, 4260, Note_on_c, 0, 65, 127
3, 4308, Note_off_c, 0, 65, 64
3, 4320, Note_on_c, 0, 67, 127
3, 4416, Note_off_c, 0, 67, 64
3, 4440, Note_on_c, 0, 67, 127
3, 4536, Note_off_c, 0, 67, 64
3, 4560, Note_on_c, 0, 72, 127
3, 4848, Note_off_c, 0, 72, 64
3, 4860, Note_on_c, 0, 70, 127
3, 4908, Note_off_c, 0, 70, 64
3, 4920, Note_on_c, 0, 69, 127
3, 4968, Note_off_c, 0, 69, 64
3, 4980, Note_on_c, 0, 70, 127
3, 5028, Note_off_c, 0, 70, 64
3, 5040, Note_on_c, 0, 72, 127
3, 5088, Note_off_c, 0, 72, 64
3, 5100, Note_on_c, 0, 70, 127
3, 5148, Note_off_c, 0, 70, 64
3, 5160, Note_on_c, 0, 68, 127
3, 5208, Note_off_c, 0, 68, 64
3, 5220, Note_on_c, 0, 67, 127
3, 5268, Note_off_c, 0, 67, 64
3, 5280, Note_on_c, 0, 68, 127
3, 5328, Note_off_c, 0, 68, 64
3, 5340, Note_on_c, 0, 67, 127
3, 5388, Note_off_c, 0, 67, 64
3, 5400, Note_on_c, 0, 68, 127
3, 5448, Note_off_c, 0, 68, 64
3, 5460, Note_on_c, 0, 72, 127
3, 5508, Note_off_c, 0, 72, 64
3, 5520, Note_on_c, 0, 70, 127
3, 5568, Note_off_c, 0, 70, 64
3, 5580, Note_on_c, 0, 68, 127
3, 5628, Note_off_c, 0, 68, 64
3, 5640, Note_on_c, 0, 67, 127
3, 5688, Note_off_c, 0, 67, 64
3, 5700, Note_on_c, 0, 65, 127
3, 5748, Note_off_c, 0, 65, 64
3, 5760, Note_on_c, 0, 67, 127
3, 5808, Note_off_c, 0, 67, 64
3, 5820, Note_on_c, 0, 65, 127
3, 5868, Note_off_c, 0, 65, 64
3, 5880, Note_on_c, 0, 67, 127
3, 5928, Note_off_c, 0, 67, 64
3, 5940, Note_on_c, 0, 70, 127
3, 5988, Note_off_c, 0, 70, 64
3, 6000, Note_on_c, 0, 68, 127
3, 6048, Note_off_c, 0, 68, 64
3, 6060, Note_on_c, 0, 67, 127
3, 6108, Note_off_c, 0, 67, 64
3, 6120, Note_on_c, 0, 65, 127
3, 6168, Note_off_c, 0, 65, 64
3, 6180, Note_on_c, 0, 63, 127
3, 6228, Note_off_c, 0, 63, 64
3, 6240, Note_on_c, 0, 65, 127
3, 6288, Note_off_c, 0, 65, 64
3, 6300, Note_on_c, 0, 63, 127
3, 6348, Note_off_c, 0, 63, 64
3, 6360, Note_on_c, 0, 65, 127
3, 6408, Note_off_c, 0, 65, 64
3, 6420, Note_on_c, 0, 68, 127
3, 6468, Note_off_c, 0, 68, 64
3, 6480, Note_on_c, 0, 67, 127
3, 6528, Note_off_c, 0, 67, 64
3, 6540, Note_on_c, 0, 65, 127
3, 6588, Note_off_c, 0, 65, 64
3, 6600, Note_on_c, 0, 63, 127
3, 6648, Note_off_c, 0, 63, 64
3, 6660, Note_on_c, 0, 62, 127
3, 6708, Note_off_c, 0, 62, 64
3, 6720, Note_on_c, 0, 63, 127
3, 6768, Note_off_c, 0, 63, 64
3, 6780, Note_on_c, 0, 62, 127
3, 6828, Note_off_c, 0, 62, 64
3, 6840, Note_on_c, 0, 60, 127
3, 6888, Note_off_c, 0, 60, 64
3, 6900, Note_on_c, 0, 58, 127
3, 6948, Note_off_c, 0, 58, 64
3, 6960, Note_on_c, 0, 70, 127
3, 7073, Note_off_c, 0, 70, 64
3, 7080, Note_on_c, 0, 68, 127
3, 7193, Note_off_c, 0, 68, 64
3, 7200, Note_on_c, 0, 68, 127
3, 7224, Note_off_c, 0, 68, 64
3, 7230, Note_on_c, 0, 67, 127
3, 7254, Note_off_c, 0, 67, 64
3, 7260, Note_on_c, 0, 68, 127
3, 7284, Note_off_c, 0, 68, 64
3, 7290, Note_on_c, 0, 67, 127
3, 7314, Note_off_c, 0, 67, 64
3, 7320, Note_on_c, 0, 68, 127
3, 7344, Note_off_c, 0, 68, 64
3, 7350, Note_on_c, 0, 67, 127
3, 7374, Note_off_c, 0, 67, 64
3, 7380, Note_on_c, 0, 68, 127
3, 7404, Note_off_c, 0, 68, 64
3, 7410, Note_on_c, 0, 67, 127
3, 7434, Note_off_c, 0, 67, 64
3, 7440, Note_on_c, 0, 67, 127
3, 7464, Note_off_c, 0, 67, 64
3, 7470, Note_on_c, 0, 65, 127
3, 7494, Note_off_c, 0, 65, 64
3, 7500, Note_on_c, 0, 67, 127
3, 7524, Note_off_c, 0, 67, 64
3, 7530, Note_on_c, 0, 65, 127
3, 7554, Note_off_c, 0, 65, 64
3, 7560, Note_on_c, 0, 67, 127
3, 7584, Note_off_c, 0, 67, 64
3, 7590, Note_on_c, 0, 65, 127
3, 7614, Note_off_c, 0, 65, 64
3, 7620, Note_on_c, 0, 67, 127
3, 7644, Note_off_c, 0, 67, 64
3, 7650, Note_on_c, 0, 65, 127
3, 7674, Note_off_c, 0, 65, 64
3, 7680, Note_on_c, 0, 63, 127
3, 7776, Note_off_c, 0, 63, 64
3, 7800, Note_on_c, 0, 67, 127
3, 7896, Note_off_c, 0, 67, 64
3, 7920, Note_on_c, 0, 70, 127
3, 8112, Note_off_c, 0, 70, 64
3, 8160, Note_on_c, 0, 63, 127
3, 8256, Note_off_c, 0, 63, 64
3, 8280, Note_on_c, 0, 68, 127
3, 8376, Note_off_c, 0, 68, 64
3, 8400, Note_on_c, 0, 72, 127
3, 8688, Note_off_c, 0, 72, 64
3, 8700, Note_on_c, 0, 75, 127
3, 8748, Note_off_c, 0, 75, 64
3, 8760, Note_on_c, 0, 74, 127
3, 8808, Note_off_c, 0, 74, 64
3, 8820, Note_on_c, 0, 72, 127
3, 8868, Note_off_c, 0, 72, 64
3, 8880, Note_on_c, 0, 70, 127
3, 8976, Note_off_c, 0, 70, 64
3, 9000, Note_on_c, 0, 70, 80
3, 9024, Note_off_c, 0, 70, 64
3, 9030, Note_on_c, 0, 68, 80
3, 9054, Note_off_c, 0, 68, 64
3, 9060, Note_on_c, 0, 70, 80
3, 9084, Note_off_c, 0, 70, 64
3, 9090, Note_on_c, 0, 68, 80
3, 9114, Note_off_c, 0, 68, 64
3, 9120, Note_on_c, 0, 67, 127
3, 9216, Note_off_c, 0, 67, 64
3, 9240, Note_on_c, 0, 75, 127
3, 9336, Note_off_c, 0, 75, 64
3, 9360, Note_on_c, 0, 65, 127
3, 9456, Note_off_c, 0, 65, 64
3, 9480, Note_on_c, 0, 74, 127
3, 9576, Note_off_c, 0, 74, 64
3, 9600, Note_on_c, 0, 63, 127
3, 9792, Note_off_c, 0, 63, 64
3, 9960, Note_on_c, 0, 63, 127
3, 10056, Note_off_c, 0, 63, 64
3, 10080, Note_on_c, 0, 62, 127
3, 10176, Note_off_c, 0, 62, 64
3, 10200, Note_on_c, 0, 65, 127
3, 10296, Note_off_c, 0, 65, 64
3, 10320, Note_on_c, 0, 70, 127
3, 10512, Note_off_c, 0, 70, 64
3, 10560, Note_on_c, 0, 63, 127
3, 10656, Note_off_c, 0, 63, 64
3, 10680, Note_on_c, 0, 67, 127
3, 10776, Note_off_c, 0, 67, 64
3, 10800, Note_on_c, 0, 70, 127
3, 10992, Note_off_c, 0, 70, 64
3, 11040, Note_on_c, 0, 65, 127
3, 11088, Note_off_c, 0, 65, 64
3, 11100, Note_on_c, 0, 68, 127
3, 11148, Note_off_c, 0, 68, 64
3, 11160, Note_on_c, 0, 74, 127
3, 11208, Note_off_c, 0, 74, 64
3, 11220, Note_on_c, 0, 72, 127
3, 11268, Note_off_c, 0, 72, 64
3, 11280, Note_on_c, 0, 74, 127
3, 11328, Note_off_c, 0, 74, 64
3, 11340, Note_on_c, 0, 68, 127
3, 11388, Note_off_c, 0, 68, 64
3, 11400, Note_on_c, 0, 65, 127
3, 11448, Note_off_c, 0, 65, 64
3, 11460, Note_on_c, 0, 68, 127
3, 11508, Note_off_c, 0, 68, 64
3, 11520, Note_on_c, 0, 67, 127
3, 11568, Note_off_c, 0, 67, 64
3, 11580, Note_on_c, 0, 70, 127
3, 11628, Note_off_c, 0, 70, 64
3, 11640, Note_on_c, 0, 75, 127
3, 11688, Note_off_c, 0, 75, 64
3, 11700, Note_on_c, 0, 70, 127
3, 11748, Note_off_c, 0, 70, 64
3, 11760, Note_on_c, 0, 67, 127
3, 11808, Note_off_c, 0, 67, 64
3, 11820, Note_on_c, 0, 70, 127
3, 11868, Note_off_c, 0, 70, 64
3, 11880, Note_on_c, 0, 63, 127
3, 11928, Note_off_c, 0, 63, 64
3, 11940, Note_on_c, 0, 62, 127
3, 11988, Note_off_c, 0, 62, 64
3, 12000, Note_on_c, 0, 64, 127
3, 12096, Note_off_c, 0, 64, 64
3, 12120, Note_on_c, 0, 67, 127
3, 12216, Note_off_c, 0, 67, 64
3, 12240, Note_on_c, 0, 72, 127
3, 12432, Note_off_c, 0, 72, 64
3, 12480, Note_on_c, 0, 65, 127
3, 12576, Note_off_c, 0, 65, 64
3, 12600, Note_on_c, 0, 69, 127
3, 12696, Note_off_c, 0, 69, 64
3, 12720, Note_on_c, 0, 72, 127
3, 12912, Note_off_c, 0, 72, 64
3, 12960, Note_on_c, 0, 67, 127
3, 13008, Note_off_c, 0, 67, 64
3, 13020, Note_on_c, 0, 70, 127
3, 13068, Note_off_c, 0, 70, 64
3, 13080, Note_on_c, 0, 76, 127
3, 13128, Note_off_c, 0, 76, 64
3, 13140, Note_on_c, 0, 74, 127
3, 13188, Note_off_c, 0, 74, 64
3, 13200, Note_on_c, 0, 76, 127
3, 13248, Note_off_c, 0, 76, 64
3, 13260, Note_on_c, 0, 70, 127
3, 13308, Note_off_c, 0, 70, 64
3, 13320, Note_on_c, 0, 67, 127
3, 13368, Note_off_c, 0, 67, 64
3, 13380, Note_on_c, 0, 70, 127
3, 13428, Note_off_c, 0, 70, 64
3, 13440, Note_on_c, 0, 69, 127
3, 13488, Note_off_c, 0, 69, 64
3, 13500, Note_on_c, 0, 72, 127
3, 13548, Note_off_c, 0, 72, 64
3, 13560, Note_on_c, 0, 77, 127
3, 13608, Note_off_c, 0, 77, 64
3, 13620, Note_on_c, 0, 72, 127
3, 13668, Note_off_c, 0, 72, 64
3, 13680, Note_on_c, 0, 69, 127
3, 13728, Note_off_c, 0, 69, 64
3, 13740, Note_on_c, 0, 72, 127
3, 13788, Note_off_c, 0, 72, 64
3, 13800, Note_on_c, 0, 65, 127
3, 13848, Note_off_c, 0, 65, 64
3, 13860, Note_on_c, 0, 64, 127
3, 13908, Note_off_c, 0, 64, 64
3, 13920, Note_on_c, 0, 66, 127
3, 14016, Note_off_c, 0, 66, 64
3, 14040, Note_on_c, 0, 69, 127
3, 14136, Note_off_c, 0, 69, 64
3, 14160, Note_on_c, 0, 74, 127
3, 14352, Note_off_c, 0, 74, 64
3, 14400, Note_on_c, 0, 67, 127
3, 14496, Note_off_c, 0, 67, 64
3, 14520, Note_on_c, 0, 70, 127
3, 14616, Note_off_c, 0, 70, 64
3, 14640, Note_on_c, 0, 75, 127
3, 14928, Note_off_c, 0, 75, 64
3, 14940, Note_on_c, 0, 74, 127
3, 14988, Note_off_c, 0, 74, 64
3, 15000, Note_on_c, 0, 72, 127
3, 15048, Note_off_c, 0, 72, 64
3, 15060, Note_on_c, 0, 74, 127
3, 15108, Note_off_c, 0, 74, 64
3, 15120, Note_on_c, 0, 75, 127
3, 15168, Note_off_c, 0, 75, 64
3, 15180, Note_on_c, 0, 74, 127
3, 15228, Note_off_c, 0, 74, 64
3, 15240, Note_on_c, 0, 72, 127
3, 15288, Note_off_c, 0, 72, 64
3, 15300, Note_on_c, 0, 70, 127
3, 15348, Note_off_c, 0, 70, 64
3, 15360, Note_on_c, 0, 69, 127
3, 15552, Note_off_c, 0, 69, 64
3, 15660, Note_on_c, 0, 68, 127
3, 15708, Note_off_c, 0, 68, 64
3, 15720, Note_on_c, 0, 70, 127
3, 15768, Note_off_c, 0, 70, 64
3, 15780, Note_on_c, 0, 72, 127
3, 15828, Note_off_c, 0, 72, 64
3, 15840, Note_on_c, 0, 70, 127
3, 15888, Note_off_c, 0, 70, 64
3, 15900, Note_on_c, 0, 74, 127
3, 15948, Note_off_c, 0, 74, 64
3, 15960, Note_on_c, 0, 77, 127
3, 16008, Note_off_c, 0, 77, 64
3, 16020, Note_on_c, 0, 75, 127
3, 16068, Note_off_c, 0, 75, 64
3, 16080, Note_on_c, 0, 77, 127
3, 16128, Note_off_c, 0, 77, 64
3, 16140, Note_on_c, 0, 74, 127
3, 16188, Note_off_c, 0, 74, 64
3, 16200, Note_on_c, 0, 70, 127
3, 16248, Note_off_c, 0, 70, 64
3, 16260, Note_on_c, 0, 74, 127
3, 16308, Note_off_c, 0, 74, 64
3, 16320, Note_on_c, 0, 68, 127
3, 16368, Note_off_c, 0, 68, 64
3, 16380, Note_on_c, 0, 74, 127
3, 16428, Note_off_c, 0, 74, 64
3, 16440, Note_on_c, 0, 77, 127
3, 16488, Note_off_c, 0, 77, 64
3, 16500, Note_on_c, 0, 75, 127
3, 16548, Note_off_c, 0, 75, 64
3, 16560, Note_on_c, 0, 77, 127
3, 16608, Note_off_c, 0, 77, 64
3, 16620, Note_on_c, 0, 74, 127
3, 16668, Note_off_c, 0, 74, 64
3, 16680, Note_on_c, 0, 68, 127
3, 16728, Note_off_c, 0, 68, 64
3, 16740, Note_on_c, 0, 74, 127
3, 16788, Note_off_c, 0, 74, 64
3, 16800, Note_on_c, 0, 67, 127
3, 16848, Note_off_c, 0, 67, 64
3, 16860, Note_on_c, 0, 74, 127
3, 16908, Note_off_c, 0, 74, 64
3, 16920, Note_on_c, 0, 77, 127
3, 16968, Note_off_c, 0, 77, 64
3, 16980, Note_on_c, 0, 75, 127
3, 17028, Note_off_c, 0, 75, 64
3, 17040, Note_on_c, 0, 77, 127
3, 17088, Note_off_c, 0, 77, 64
3, 17100, Note_on_c, 0, 74, 127
3, 17148, Note_off_c, 0, 74, 64
3, 17160, Note_on_c, 0, 67, 127
3, 17208, Note_off_c, 0, 67, 64
3, 17220, Note_on_c, 0, 74, 127
3, 17268, Note_off_c, 0, 74, 64
3, 17280, Note_on_c, 0, 67, 127
3, 17328, Note_off_c, 0, 67, 64
3, 17340, Note_on_c, 0, 72, 127
3, 17388, Note_off_c, 0, 72, 64
3, 17400, Note_on_c, 0, 75, 127
3, 17448, Note_off_c, 0, 75, 64
3, 17460, Note_on_c, 0, 74, 127
3, 17508, Note_off_c, 0, 74, 64
3, 17520, Note_on_c, 0, 75, 127
3, 17568, Note_off_c, 0, 75, 64
3, 17580, Note_on_c, 0, 72, 127
3, 17628, Note_off_c, 0, 72, 64
3, 17640, Note_on_c, 0, 67, 127
3, 17688, Note_off_c, 0, 67, 64
3, 17700, Note_on_c, 0, 72, 127
3, 17748, Note_off_c, 0, 72, 64
3, 17760, Note_on_c, 0, 65, 127
3, 17808, Note_off_c, 0, 65, 64
3, 17820, Note_on_c, 0, 72, 127
3, 17868, Note_off_c, 0, 72, 64
3, 17880, Note_on_c, 0, 75, 127
3, 17928, Note_off_c, 0, 75, 64
3, 17940, Note_on_c, 0, 74, 127
3, 17988, Note_off_c, 0, 74, 64
3, 18000, Note_on_c, 0, 75, 127
3, 18048, Note_off_c, 0, 75, 64
3, 18060, Note_on_c, 0, 72, 127
3, 18108, Note_off_c, 0, 72, 64
3, 18120, Note_on_c, 0, 65, 127
3, 18168, Note_off_c, 0, 65, 64
3, 18180, Note_on_c, 0, 72, 127
3, 18228, Note_off_c, 0, 72, 64
3, 18240, Note_on_c, 0, 65, 127
3, 18288, Note_off_c, 0, 65, 64
3, 18300, Note_on_c, 0, 70, 127
3, 18348, Note_off_c, 0, 70, 64
3, 18360, Note_on_c, 0, 74, 127
3, 18408, Note_off_c, 0, 74, 64
3, 18420, Note_on_c, 0, 72, 127
3, 18468, Note_off_c, 0, 72, 64
3, 18480, Note_on_c, 0, 74, 127
3, 18528, Note_off_c, 0, 74, 64
3, 18540, Note_on_c, 0, 70, 127
3, 18588, Note_off_c, 0, 70, 64
3, 18600, Note_on_c, 0, 65, 127
3, 18648, Note_off_c, 0, 65, 64
3, 18660, Note_on_c, 0, 70, 127
3, 18708, Note_off_c, 0, 70, 64
3, 18720, Note_on_c, 0, 64, 127
3, 18768, Note_off_c, 0, 64, 64
3, 18780, Note_on_c, 0, 70, 127
3, 18828, Note_off_c, 0, 70, 64
3, 18840, Note_on_c, 0, 73, 127
3, 18888, Note_off_c, 0, 73, 64
3, 18900, Note_on_c, 0, 72, 127
3, 18948, Note_off_c, 0, 72, 64
3, 18960, Note_on_c, 0, 73, 127
3, 19008, Note_off_c, 0, 73, 64
3, 19020, Note_on_c, 0, 70, 127
3, 19068, Note_off_c, 0, 70, 64
3, 19080, Note_on_c, 0, 64, 127
3, 19128, Note_off_c, 0, 64, 64
3, 19140, Note_on_c, 0, 70, 127
3, 19188, Note_off_c, 0, 70, 64
3, 19200, Note_on_c, 0, 65, 127
3, 19248, Note_off_c, 0, 65, 64
3, 19260, Note_on_c, 0, 67, 127
3, 19308, Note_off_c, 0, 67, 64
3, 19320, Note_on_c, 0, 69, 127
3, 19368, Note_off_c, 0, 69, 64
3, 19380, Note_on_c, 0, 70, 127
3, 19428, Note_off_c, 0, 70, 64
3, 19440, Note_on_c, 0, 72, 127
3, 19728, Note_off_c, 0, 72, 64
3, 19740, Note_on_c, 0, 65, 127
3, 19788, Note_off_c, 0, 65, 64
3, 19800, Note_on_c, 0, 62, 127
3, 19848, Note_off_c, 0, 62, 64
3, 19860, Note_on_c, 0, 65, 127
3, 19908, Note_off_c, 0, 65, 64
3, 19920, Note_on_c, 0, 67, 127
3, 19968, Note_off_c, 0, 67, 64
3, 19980, Note_on_c, 0, 63, 127
3, 20028, Note_off_c, 0, 63, 64
3, 20040, Note_on_c, 0, 60, 127
3, 20088, Note_off_c, 0, 60, 64
3, 20100, Note_on_c, 0, 63, 127
3, 20148, Note_off_c, 0, 63, 64
3, 20160, Note_on_c, 0, 62, 127
3, 20352, Note_off_c, 0, 62, 64
3, 22080, Note_on_c, 0, 63, 127
3, 22176, Note_off_c, 0, 63, 64
3, 22200, Note_on_c, 0, 67, 127
3, 22296, Note_off_c, 0, 67, 64
3, 22320, Note_on_c, 0, 70, 127
3, 22512, Note_off_c, 0, 70, 64
3, 22560, Note_on_c, 0, 63, 127
3, 22656, Note_off_c, 0, 63, 64
3, 22680, Note_on_c, 0, 68, 127
3, 22776, Note_off_c, 0, 68, 64
3, 22800, Note_on_c, 0, 72, 127
3, 23088, Note_off_c, 0, 72, 64
3, 23100, Note_on_c, 0, 75, 127
3, 23148, Note_off_c, 0, 75, 64
3, 23160, Note_on_c, 0, 74, 127
3, 23208, Note_off_c, 0, 74, 64
3, 23220, Note_on_c, 0, 72, 127
3, 23268, Note_off_c, 0, 72, 64
3, 23280, Note_on_c, 0, 70, 127
3, 23376, Note_off_c, 0, 70, 64
3, 23400, Note_on_c, 0, 68, 127
3, 23496, Note_off_c, 0, 68, 64
3, 23520, Note_on_c, 0, 67, 127
3, 23616, Note_off_c, 0, 67, 64
3, 23640, Note_on_c, 0, 65, 127
3, 23688, Note_off_c, 0, 65, 64
3, 23700, Note_on_c, 0, 67, 127
3, 23748, Note_off_c, 0, 67, 64
3, 23760, Note_on_c, 0, 68, 127
3, 23808, Note_off_c, 0, 68, 64
3, 23820, Note_on_c, 0, 67, 127
3, 23868, Note_off_c, 0, 67, 64
3, 23880, Note_on_c, 0, 65, 127
3, 23928, Note_off_c, 0, 65, 64
3, 23940, Note_on_c, 0, 63, 127
3, 23988, Note_off_c, 0, 63, 64
3, 24000, Note_on_c, 0, 65, 127
3, 24096, Note_off_c, 0, 65, 64
3, 24120, Note_on_c, 0, 65, 127
3, 24216, Note_off_c, 0, 65, 64
3, 24240, Note_on_c, 0, 70, 127
3, 24528, Note_off_c, 0, 70, 64
3, 24540, Note_on_c, 0, 68, 127
3, 24588, Note_off_c, 0, 68, 64
3, 24600, Note_on_c, 0, 67, 127
3, 24648, Note_off_c, 0, 67, 64
3, 24660, Note_on_c, 0, 68, 127
3, 24708, Note_off_c, 0, 68, 64
3, 24720, Note_on_c, 0, 70, 127
3, 24768, Note_off_c, 0, 70, 64
3, 24780, Note_on_c, 0, 68, 127
3, 24828, Note_off_c, 0, 68, 64
3, 24840, Note_on_c, 0, 67, 127
3, 24888, Note_off_c, 0, 67, 64
3, 24900, Note_on_c, 0, 65, 127
3, 24948, Note_off_c, 0, 65, 64
3, 24960, Note_on_c, 0, 67, 127
3, 25056, Note_off_c, 0, 67, 64
3, 25080, Note_on_c, 0, 67, 127
3, 25176, Note_off_c, 0, 67, 64
3, 25200, Note_on_c, 0, 72, 127
3, 25536, Note_off_c, 0, 72, 64
3, 25560, Note_on_c, 0, 65, 127
3, 25656, Note_off_c, 0, 65, 64
3, 25680, Note_on_c, 0, 67, 127
3, 25728, Note_off_c, 0, 67, 64
3, 25740, Note_on_c, 0, 68, 127
3, 25788, Note_off_c, 0, 68, 64
3, 25800, Note_on_c, 0, 70, 127
3, 26016, Note_off_c, 0, 70, 64
3, 26040, Note_on_c, 0, 63, 127
3, 26136, Note_off_c, 0, 63, 64
3, 26160, Note_on_c, 0, 65, 127
3, 26208, Note_off_c, 0, 65, 64
3, 26220, Note_on_c, 0, 67, 127
3, 26268, Note_off_c, 0, 67, 64
3, 26280, Note_on_c, 0, 68, 127
3, 26496, Note_off_c, 0, 68, 64
3, 26520, Note_on_c, 0, 67, 127
3, 26568, Note_off_c, 0, 67, 64
3, 26580, Note_on_c, 0, 65, 127
3, 26628, Note_off_c, 0, 65, 64
3, 26640, Note_on_c, 0, 63, 127
3, 26688, Note_off_c, 0, 63, 64
3, 26700, Note_on_c, 0, 65, 127
3, 26748, Note_off_c, 0, 65, 64
3, 26760, Note_on_c, 0, 67, 127
3, 26976, Note_off_c, 0, 67, 64
3, 27000, Note_on_c, 0, 65, 127
3, 27096, Note_off_c, 0, 65, 64
3, 27240, Note_on_c, 0, 68, 127
3, 27408, Note_off_c, 0, 68, 64
3, 27420, Note_on_c, 0, 67, 127
3, 27468, Note_off_c, 0, 67, 64
3, 27480, Note_on_c, 0, 68, 127
3, 27528, Note_off_c, 0, 68, 64
3, 27540, Note_on_c, 0, 72, 127
3, 27588, Note_off_c, 0, 72, 64
3, 27600, Note_on_c, 0, 70, 127
3, 27648, Note_off_c, 0, 70, 64
3, 27660, Note_on_c, 0, 68, 127
3, 27708, Note_off_c, 0, 68, 64
3, 27720, Note_on_c, 0, 67, 127
3, 27768, Note_off_c, 0, 67, 64
3, 27780, Note_on_c, 0, 65, 127
3, 27828, Note_off_c, 0, 65, 64
3, 27840, Note_on_c, 0, 64, 127
3, 27936, Note_off_c, 0, 64, 64
3, 27960, Note_on_c, 0, 67, 127
3, 28056, Note_off_c, 0, 67, 64
3, 28080, Note_on_c, 0, 70, 127
3, 28368, Note_off_c, 0, 70, 64
3, 28380, Note_on_c, 0, 67, 127
3, 28428, Note_off_c, 0, 67, 64
3, 28440, Note_on_c, 0, 68, 127
3, 28488, Note_off_c, 0, 68, 64
3, 28500, Note_on_c, 0, 72, 127
3, 28548, Note_off_c, 0, 72, 64
3, 28560, Note_on_c, 0, 70, 127
3, 28608, Note_off_c, 0, 70, 64
3, 28620, Note_on_c, 0, 68, 127
3, 28668, Note_off_c, 0, 68, 64
3, 28680, Note_on_c, 0, 67, 127
3, 28728, Note_off_c, 0, 67, 64
3, 28740, Note_on_c, 0, 65, 127
3, 28788, Note_off_c, 0, 65, 64
3, 28800, Note_on_c, 0, 77, 127
3, 29376, Note_off_c, 0, 77, 64
3, 29400, Note_on_c, 0, 73, 127
3, 29496, Note_off_c, 0, 73, 64
3, 29520, Note_on_c, 0, 64, 127
3, 29568, Note_off_c, 0, 64, 64
3, 29580, Note_on_c, 0, 65, 127
3, 29628, Note_off_c, 0, 65, 64
3, 29640, Note_on_c, 0, 67, 127
3, 29856, Note_off_c, 0, 67, 64
3, 29880, Note_on_c, 0, 60, 127
3, 29976, Note_off_c, 0, 60, 64
3, 30000, Note_on_c, 0, 62, 127
3, 30048, Note_off_c, 0, 62, 64
3, 30060, Note_on_c, 0, 64, 127
3, 30108, Note_off_c, 0, 64, 64
3, 30120, Note_on_c, 0, 65, 127
3, 30288, Note_off_c, 0, 65, 64
3, 30300, Note_on_c, 0, 69, 127
3, 30348, Note_off_c, 0, 69, 64
3, 30360, Note_on_c, 0, 70, 127
3, 30408, Note_off_c, 0, 70, 64
3, 30420, Note_on_c, 0, 73, 127
3, 30468, Note_off_c, 0, 73, 64
3, 30480, Note_on_c, 0, 72, 127
3, 30528, Note_off_c, 0, 72, 64
3, 30540, Note_on_c, 0, 70, 127
3, 30588, Note_off_c, 0, 70, 64
3, 30600, Note_on_c, 0, 68, 127
3, 30648, Note_off_c, 0, 68, 64
3, 30660, Note_on_c, 0, 67, 127
3, 30708, Note_off_c, 0, 67, 64
3, 30720, Note_on_c, 0, 67, 127
3, 30816, Note_off_c, 0, 67, 64
3, 30840, Note_on_c, 0, 64, 127
3, 30936, Note_off_c, 0, 64, 64
3, 30960, Note_on_c, 0, 65, 127
3, 31248, Note_off_c, 0, 65, 64
3, 31260, Note_on_c, 0, 68, 127
3, 31308, Note_off_c, 0, 68, 64
3, 31320, Note_on_c, 0, 67, 127
3, 31368, Note_off_c, 0, 67, 64
3, 31380, Note_on_c, 0, 65, 127
3, 31428, Note_off_c, 0, 65, 64
3, 31440, Note_on_c, 0, 64, 127
3, 31488, Note_off_c, 0, 64, 64
3, 31500, Note_on_c, 0, 62, 127
3, 31548, Note_off_c, 0, 62, 64
3, 31560, Note_on_c, 0, 60, 127
3, 31608, Note_off_c, 0, 60, 64
3, 31620, Note_on_c, 0, 62, 127
3, 31668, Note_off_c, 0, 62, 64
3, 31680, Note_on_c, 0, 63, 127
3, 31728, Note_off_c, 0, 63, 64
3, 31740, Note_on_c, 0, 70, 127
3, 31788, Note_off_c, 0, 70, 64
3, 31800, Note_on_c, 0, 69, 127
3, 31848, Note_off_c, 0, 69, 64
3, 31860, Note_on_c, 0, 67, 127
3, 31908, Note_off_c, 0, 67, 64
3, 31920, Note_on_c, 0, 65, 127
3, 31968, Note_off_c, 0, 65, 64
3, 31980, Note_on_c, 0, 69, 127
3, 32028, Note_off_c, 0, 69, 64
3, 32040, Note_on_c, 0, 70, 127
3, 32088, Note_off_c, 0, 70, 64
3, 32100, Note_on_c, 0, 72, 127
3, 32148, Note_off_c, 0, 72, 64
3, 32160, Note_on_c, 0, 73, 127
3, 32208, Note_off_c, 0, 73, 64
3, 32220, Note_on_c, 0, 72, 127
3, 32268, Note_off_c, 0, 72, 64
3, 32280, Note_on_c, 0, 70, 127
3, 32328, Note_off_c, 0, 70, 64
3, 32340, Note_on_c, 0, 68, 127
3, 32388, Note_off_c, 0, 68, 64
3, 32400, Note_on_c, 0, 67, 127
3, 32448, Note_off_c, 0, 67, 64
3, 32460, Note_on_c, 0, 76, 127
3, 32508, Note_off_c, 0, 76, 64
3, 32520, Note_on_c, 0, 77, 127
3, 32568, Note_off_c, 0, 77, 64
3, 32580, Note_on_c, 0, 79, 127
3, 32628, Note_off_c, 0, 79, 64
3, 32640, Note_on_c, 0, 77, 127
3, 32688, Note_off_c, 0, 77, 64
3, 32700, Note_on_c, 0, 73, 127
3, 32748, Note_off_c, 0, 73, 64
3, 32760, Note_on_c, 0, 72, 127
3, 32808, Note_off_c, 0, 72, 64
3, 32820, Note_on_c, 0, 70, 127
3, 32868, Note_off_c, 0, 70, 64
3, 32880, Note_on_c, 0, 68, 127
3, 32928, Note_off_c, 0, 68, 64
3, 32940, Note_on_c, 0, 70, 127
3, 32988, Note_off_c, 0, 70, 64
3, 33000, Note_on_c, 0, 72, 127
3, 33048, Note_off_c, 0, 72, 64
3, 33060, Note_on_c, 0, 67, 127
3, 33108, Note_off_c, 0, 67, 64
3, 33120, Note_on_c, 0, 65, 127
3, 33168, Note_off_c, 0, 65, 64
3, 33180, Note_on_c, 0, 67, 127
3, 33228, Note_off_c, 0, 67, 64
3, 33240, Note_on_c, 0, 68, 127
3, 33288, Note_off_c, 0, 68, 64
3, 33300, Note_on_c, 0, 63, 127
3, 33348, Note_off_c, 0, 63, 64
3, 33360, Note_on_c, 0, 61, 127
3, 33408, Note_off_c, 0, 61, 64
3, 33420, Note_on_c, 0, 67, 127
3, 33468, Note_off_c, 0, 67, 64
3, 33480, Note_on_c, 0, 60, 127
3, 33528, Note_off_c, 0, 60, 64
3, 33540, Note_on_c, 0, 70, 127
3, 33588, Note_off_c, 0, 70, 64
3, 33600, Note_on_c, 0, 68, 127
3, 33648, Note_off_c, 0, 68, 64
3, 33660, Note_on_c, 0, 72, 127
3, 33708, Note_off_c, 0, 72, 64
3, 33720, Note_on_c, 0, 77, 127
3, 33768, Note_off_c, 0, 77, 64
3, 33780, Note_on_c, 0, 76, 127
3, 33828, Note_off_c, 0, 76, 64
3, 33840, Note_on_c, 0, 77, 127
3, 33888, Note_off_c, 0, 77, 64
3, 33900, Note_on_c, 0, 72, 127
3, 33948, Note_off_c, 0, 72, 64
3, 33960, Note_on_c, 0, 68, 127
3, 34008, Note_off_c, 0, 68, 64
3, 34020, Note_on_c, 0, 72, 127
3, 34068, Note_off_c, 0, 72, 64
3, 34080, Note_on_c, 0, 67, 127
3, 34128, Note_off_c, 0, 67, 64
3, 34140, Note_on_c, 0, 70, 127
3, 34188, Note_off_c, 0, 70, 64
3, 34200, Note_on_c, 0, 76, 127
3, 34248, Note_off_c, 0, 76, 64
3, 34260, Note_on_c, 0, 74, 127
3, 34308, Note_off_c, 0, 74, 64
3, 34320, Note_on_c, 0, 76, 127
3, 34368, Note_off_c, 0, 76, 64
3, 34380, Note_on_c, 0, 70, 127
3, 34428, Note_off_c, 0, 70, 64
3, 34440, Note_on_c, 0, 67, 127
3, 34488, Note_off_c, 0, 67, 64
3, 34500, Note_on_c, 0, 70, 127
3, 34548, Note_off_c, 0, 70, 64
3, 34560, Note_on_c, 0, 68, 127
3, 34608, Note_off_c, 0, 68, 64
3, 34620, Note_on_c, 0, 72, 127
3, 34668, Note_off_c, 0, 72, 64
3, 34680, Note_on_c, 0, 77, 127
3, 34728, Note_off_c, 0, 77, 64
3, 34740, Note_on_c, 0, 76, 127
3, 34788, Note_off_c, 0, 76, 64
3, 34800, Note_on_c, 0, 77, 127
3, 34848, Note_off_c, 0, 77, 64
3, 34860, Note_on_c, 0, 72, 127
3, 34908, Note_off_c, 0, 72, 64
3, 34920, Note_on_c, 0, 68, 127
3, 34968, Note_off_c, 0, 68, 64
3, 34980, Note_on_c, 0, 72, 127
3, 35028, Note_off_c, 0, 72, 64
3, 35040, Note_on_c, 0, 67, 127
3, 35088, Note_off_c, 0, 67, 64
3, 35100, Note_on_c, 0, 70, 127
3, 35148, Note_off_c, 0, 70, 64
3, 35160, Note_on_c, 0, 76, 127
3, 35208, Note_off_c, 0, 76, 64
3, 35220, Note_on_c, 0, 74, 127
3, 35268, Note_off_c, 0, 74, 64
3, 35280, Note_on_c, 0, 76, 127
3, 35328, Note_off_c, 0, 76, 64
3, 35340, Note_on_c, 0, 70, 127
3, 35388, Note_off_c, 0, 70, 64
3, 35400, Note_on_c, 0, 67, 127
3, 35448, Note_off_c, 0, 67, 64
3, 35460, Note_on_c, 0, 70, 127
3, 35508, Note_off_c, 0, 70, 64
3, 35520, Note_on_c, 0, 68, 127
3, 35712, Note_off_c, 0, 68, 64
3, 35880, Note_on_c, 0, 68, 127
3, 35976, Note_off_c, 0, 68, 64
3, 36000, Note_on_c, 0, 67, 127
3, 36096, Note_off_c, 0, 67, 64
3, 36120, Note_on_c, 0, 70, 127
3, 36216, Note_off_c, 0, 70, 64
3, 36240, Note_on_c, 0, 75, 127
3, 36432, Note_off_c, 0, 75, 64
3, 36480, Note_on_c, 0, 68, 127
3, 36576, Note_off_c, 0, 68, 64
3, 36600, Note_on_c, 0, 72, 127
3, 36696, Note_off_c, 0, 72, 64
3, 36720, Note_on_c, 0, 75, 127
3, 36912, Note_off_c, 0, 75, 64
3, 36960, Note_on_c, 0, 67, 127
3, 37056, Note_off_c, 0, 67, 64
3, 37080, Note_on_c, 0, 70, 127
3, 37176, Note_off_c, 0, 70, 64
3, 37200, Note_on_c, 0, 75, 127
3, 37488, Note_off_c, 0, 75, 64
3, 37500, Note_on_c, 0, 73, 127
3, 37548, Note_off_c, 0, 73, 64
3, 37560, Note_on_c, 0, 72, 127
3, 37608, Note_off_c, 0, 72, 64
3, 37620, Note_on_c, 0, 70, 127
3, 37668, Note_off_c, 0, 70, 64
3, 37680, Note_on_c, 0, 68, 127
3, 37728, Note_off_c, 0, 68, 64
3, 37740, Note_on_c, 0, 67, 127
3, 37788, Note_off_c, 0, 67, 64
3, 37800, Note_on_c, 0, 65, 127
3, 37848, Note_off_c, 0, 65, 64
3, 37860, Note_on_c, 0, 63, 127
3, 37908, Note_off_c, 0, 63, 64
3, 37920, Note_on_c, 0, 61, 127
3, 37968, Note_off_c, 0, 61, 64
3, 37980, Note_on_c, 0, 63, 127
3, 38028, Note_off_c, 0, 63, 64
3, 38040, Note_on_c, 0, 67, 127
3, 38088, Note_off_c, 0, 67, 64
3, 38100, Note_on_c, 0, 65, 127
3, 38148, Note_off_c, 0, 65, 64
3, 38160, Note_on_c, 0, 67, 127
3, 38208, Note_off_c, 0, 67, 64
3, 38220, Note_on_c, 0, 73, 127
3, 38268, Note_off_c, 0, 73, 64
3, 38280, Note_on_c, 0, 70, 127
3, 38328, Note_off_c, 0, 70, 64
3, 38340, Note_on_c, 0, 73, 127
3, 38388, Note_off_c, 0, 73, 64
3, 38400, Note_on_c, 0, 72, 127
3, 38448, Note_off_c, 0, 72, 64
3, 38460, Note_on_c, 0, 75, 127
3, 38508, Note_off_c, 0, 75, 64
3, 38520, Note_on_c, 0, 80, 127
3, 38568, Note_off_c, 0, 80, 64
3, 38580, Note_on_c, 0, 75, 127
3, 38628, Note_off_c, 0, 75, 64
3, 38640, Note_on_c, 0, 72, 127
3, 38688, Note_off_c, 0, 72, 64
3, 38700, Note_on_c, 0, 75, 127
3, 38748, Note_off_c, 0, 75, 64
3, 38760, Note_on_c, 0, 68, 127
3, 38808, Note_off_c, 0, 68, 64
3, 38820, Note_on_c, 0, 72, 127
3, 38868, Note_off_c, 0, 72, 64
3, 38880, Note_on_c, 0, 67, 127
3, 38976, Note_off_c, 0, 67, 64
3, 39000, Note_on_c, 0, 70, 127
3, 39096, Note_off_c, 0, 70, 64
3, 39120, Note_on_c, 0, 75, 127
3, 39312, Note_off_c, 0, 75, 64
3, 39360, Note_on_c, 0, 68, 127
3, 39456, Note_off_c, 0, 68, 64
3, 39480, Note_on_c, 0, 72, 127
3, 39576, Note_off_c, 0, 72, 64
3, 39600, Note_on_c, 0, 63, 127
3, 39888, Note_off_c, 0, 63, 64
3, 39900, Note_on_c, 0, 65, 127
3, 39948, Note_off_c, 0, 65, 64
3, 39960, Note_on_c, 0, 69, 127
3, 40008, Note_off_c, 0, 69, 64
3, 40020, Note_on_c, 0, 67, 127
3, 40068, Note_off_c, 0, 67, 64
3, 40080, Note_on_c, 0, 69, 127
3, 40128, Note_off_c, 0, 69, 64
3, 40140, Note_on_c, 0, 63, 127
3, 40188, Note_off_c, 0, 63, 64
3, 40200, Note_on_c, 0, 60, 127
3, 40248, Note_off_c, 0, 60, 64
3, 40260, Note_on_c, 0, 63, 127
3, 40308, Note_off_c, 0, 63, 64
3, 40320, Note_on_c, 0, 62, 127
3, 40368, Note_off_c, 0, 62, 64
3, 40380, Note_on_c, 0, 65, 127
3, 40428, Note_off_c, 0, 65, 64
3, 40440, Note_on_c, 0, 70, 127
3, 40488, Note_off_c, 0, 70, 64
3, 40500, Note_on_c, 0, 65, 127
3, 40548, Note_off_c, 0, 65, 64
3, 40560, Note_on_c, 0, 62, 127
3, 40608, Note_off_c, 0, 62, 64
3, 40620, Note_on_c, 0, 65, 127
3, 40668, Note_off_c, 0, 65, 64
3, 40680, Note_on_c, 0, 58, 127
3, 40728, Note_off_c, 0, 58, 64
3, 40740, Note_on_c, 0, 62, 127
3, 40788, Note_off_c, 0, 62, 64
3, 40800, Note_on_c, 0, 69, 127
3, 40896, Note_off_c, 0, 69, 64
3, 40920, Note_on_c, 0, 72, 127
3, 41016, Note_off_c, 0, 72, 64
3, 41040, Note_on_c, 0, 77, 127
3, 41232, Note_off_c, 0, 77, 64
3, 41280, Note_on_c, 0, 70, 127
3, 41376, Note_off_c, 0, 70, 64
3, 41400, Note_on_c, 0, 74, 127
3, 41496, Note_off_c, 0, 74, 64
3, 41520, Note_on_c, 0, 65, 127
3, 41808, Note_off_c, 0, 65, 64
3, 41820, Note_on_c, 0, 67, 127
3, 41868, Note_off_c, 0, 67, 64
3, 41880, Note_on_c, 0, 71, 127
3, 41928, Note_off_c, 0, 71, 64
3, 41940, Note_on_c, 0, 69, 127
3, 41988, Note_off_c, 0, 69, 64
3, 42000, Note_on_c, 0, 71, 127
3, 42048, Note_off_c, 0, 71, 64
3, 42060, Note_on_c, 0, 65, 127
3, 42108, Note_off_c, 0, 65, 64
3, 42120, Note_on_c, 0, 62, 127
3, 42168, Note_off_c, 0, 62, 64
3, 42180, Note_on_c, 0, 65, 127
3, 42228, Note_off_c, 0, 65, 64
3, 42240, Note_on_c, 0, 63, 127
3, 42288, Note_off_c, 0, 63, 64
3, 42300, Note_on_c, 0, 67, 127
3, 42348, Note_off_c, 0, 67, 64
3, 42360, Note_on_c, 0, 72, 127
3, 42408, Note_off_c, 0, 72, 64
3, 42420, Note_on_c, 0, 67, 127
3, 42468, Note_off_c, 0, 67, 64
3, 42480, Note_on_c, 0, 63, 127
3, 42528, Note_off_c, 0, 63, 64
3, 42540, Note_on_c, 0, 67, 127
3, 42588, Note_off_c, 0, 67, 64
3, 42600, Note_on_c, 0, 60, 127
3, 42648, Note_off_c, 0, 60, 64
3, 42660, Note_on_c, 0, 63, 127
3, 42708, Note_off_c, 0, 63, 64
3, 42720, Note_on_c, 0, 65, 127
3, 42816, Note_off_c, 0, 65, 64
3, 42840, Note_on_c, 0, 70, 127
3, 42936, Note_off_c, 0, 70, 64
3, 42960, Note_on_c, 0, 70, 127
3, 43056, Note_off_c, 0, 70, 64
3, 43080, Note_on_c, 0, 68, 127
3, 43128, Note_off_c, 0, 68, 64
3, 43140, Note_on_c, 0, 67, 127
3, 43188, Note_off_c, 0, 67, 64
3, 43200, Note_on_c, 0, 65, 127
3, 43248, Note_off_c, 0, 65, 64
3, 43260, Note_on_c, 0, 58, 127
3, 43308, Note_off_c, 0, 58, 64
3, 43320, Note_on_c, 0, 60, 127
3, 43368, Note_off_c, 0, 60, 64
3, 43380, Note_on_c, 0, 62, 127
3, 43428, Note_off_c, 0, 62, 64
3, 43440, Note_on_c, 0, 63, 127
3, 43488, Note_off_c, 0, 63, 64
3, 43500, Note_on_c, 0, 65, 127
3, 43548, Note_off_c, 0, 65, 64
3, 43560, Note_on_c, 0, 67, 127
3, 43608, Note_off_c, 0, 67, 64
3, 43620, Note_on_c, 0, 68, 127
3, 43668, Note_off_c, 0, 68, 64
3, 43680, Note_on_c, 0, 70, 127
3, 43776, Note_off_c, 0, 70, 64
3, 43800, Note_on_c, 0, 67, 127
3, 43896, Note_off_c, 0, 67, 64
3, 43920, Note_on_c, 0, 63, 127
3, 44112, Note_off_c, 0, 63, 64
3, 44160, Note_on_c, 0, 70, 127
3, 44256, Note_off_c, 0, 70, 64
3, 44280, Note_on_c, 0, 67, 127
3, 44376, Note_off_c, 0, 67, 64
3, 44400, Note_on_c, 0, 61, 127
3, 44625, Note_off_c, 0, 61, 64
3, 44640, Note_on_c, 0, 70, 127
3, 44736, Note_off_c, 0, 70, 64
3, 44760, Note_on_c, 0, 67, 127
3, 44856, Note_off_c, 0, 67, 64
3, 44880, Note_on_c, 0, 60, 127
3, 44976, Note_off_c, 0, 60, 64
3, 45000, Note_on_c, 0, 70, 127
3, 45096, Note_off_c, 0, 70, 64
3, 45120, Note_on_c, 0, 68, 127
3, 45216, Note_off_c, 0, 68, 64
3, 45240, Note_on_c, 0, 65, 127
3, 45336, Note_off_c, 0, 65, 64
3, 45360, Note_on_c, 0, 60, 127
3, 45456, Note_off_c, 0, 60, 64
3, 45480, Note_on_c, 0, 65, 127
3, 45528, Note_off_c, 0, 65, 64
3, 45540, Note_on_c, 0, 67, 127
3, 45588, Note_off_c, 0, 67, 64
3, 45600, Note_on_c, 0, 68, 127
3, 45696, Note_off_c, 0, 68, 64
3, 45720, Note_on_c, 0, 65, 127
3, 45816, Note_off_c, 0, 65, 64
3, 45840, Note_on_c, 0, 58, 127
3, 45936, Note_off_c, 0, 58, 64
3, 45960, Note_on_c, 0, 68, 127
3, 46056, Note_off_c, 0, 68, 64
3, 46080, Note_on_c, 0, 67, 127
3, 46176, Note_off_c, 0, 67, 64
3, 46200, Note_on_c, 0, 63, 127
3, 46296, Note_off_c, 0, 63, 64
3, 46320, Note_on_c, 0, 58, 127
3, 46416, Note_off_c, 0, 58, 64
3, 46440, Note_on_c, 0, 63, 127
3, 46488, Note_off_c, 0, 63, 64
3, 46500, Note_on_c, 0, 65, 127
3, 46548, Note_off_c, 0, 65, 64
3, 46560, Note_on_c, 0, 66, 127
3, 46656, Note_off_c, 0, 66, 64
3, 46680, Note_on_c, 0, 63, 127
3, 46776, Note_off_c, 0, 63, 64
3, 46800, Note_on_c, 0, 69, 127
3, 46896, Note_off_c, 0, 69, 64
3, 46920, Note_on_c, 0, 66, 127
3, 47016, Note_off_c, 0, 66, 64
3, 47040, Note_on_c, 0, 77, 127
3, 47088, Note_off_c, 0, 77, 64
3, 47100, Note_on_c, 0, 75, 127
3, 47148, Note_off_c, 0, 75, 64
3, 47160, Note_on_c, 0, 74, 127
3, 47208, Note_off_c, 0, 74, 64
3, 47220, Note_on_c, 0, 72, 127
3, 47268, Note_off_c, 0, 72, 64
3, 47280, Note_on_c, 0, 70, 127
3, 47328, Note_off_c, 0, 70, 64
3, 47340, Note_on_c, 0, 68, 127
3, 47388, Note_off_c, 0, 68, 64
3, 47400, Note_on_c, 0, 67, 127
3, 47448, Note_off_c, 0, 67, 64
3, 47460, Note_on_c, 0, 65, 127
3, 47508, Note_off_c, 0, 65, 64
3, 47520, Note_on_c, 0, 67, 127
3, 47616, Note_off_c, 0, 67, 64
3, 47640, Note_on_c, 0, 63, 127
3, 47736, Note_off_c, 0, 63, 64
3, 47760, Note_on_c, 0, 65, 127
3, 47856, Note_off_c, 0, 65, 64
3, 47880, Note_on_c, 0, 70, 127
3, 48048, Note_off_c, 0, 70, 64
3, 48060, Note_on_c, 0, 68, 127
3, 48108, Note_off_c, 0, 68, 64
3, 48120, Note_on_c, 0, 67, 127
3, 48168, Note_off_c, 0, 67, 64
3, 48180, Note_on_c, 0, 70, 127
3, 48228, Note_off_c, 0, 70, 64
3, 48240, Note_on_c, 0, 68, 127
3, 48288, Note_off_c, 0, 68, 64
3, 48300, Note_on_c, 0, 67, 127
3, 48348, Note_off_c, 0, 67, 64
3, 48360, Note_on_c, 0, 65, 127
3, 48408, Note_off_c, 0, 65, 64
3, 48420, Note_on_c, 0, 63, 127
3, 48468, Note_off_c, 0, 63, 64
3, 48480, Note_on_c, 0, 72, 127
3, 49008, Note_off_c, 0, 72, 64
3, 49020, Note_on_c, 0, 68, 127
3, 49068, Note_off_c, 0, 68, 64
3, 49080, Note_on_c, 0, 70, 127
3, 49128, Note_off_c, 0, 70, 64
3, 49140, Note_on_c, 0, 72, 127
3, 49188, Note_off_c, 0, 72, 64
3, 49200, Note_on_c, 0, 70, 127
3, 49248, Note_off_c, 0, 70, 64
3, 49260, Note_on_c, 0, 68, 127
3, 49308, Note_off_c, 0, 68, 64
3, 49320, Note_on_c, 0, 67, 127
3, 49368, Note_off_c, 0, 67, 64
3, 49380, Note_on_c, 0, 65, 127
3, 49428, Note_off_c, 0, 65, 64
3, 49440, Note_on_c, 0, 63, 127
3, 49536, Note_off_c, 0, 63, 64
3, 49560, Note_on_c, 0, 70, 127
3, 49656, Note_off_c, 0, 70, 64
3, 49680, Note_on_c, 0, 75, 127
3, 49968, Note_off_c, 0, 75, 64
3, 49980, Note_on_c, 0, 67, 127
3, 50028, Note_off_c, 0, 67, 64
3, 50040, Note_on_c, 0, 68, 127
3, 50088, Note_off_c, 0, 68, 64
3, 50100, Note_on_c, 0, 70, 127
3, 50148, Note_off_c, 0, 70, 64
3, 50160, Note_on_c, 0, 68, 127
3, 50208, Note_off_c, 0, 68, 64
3, 50220, Note_on_c, 0, 67, 127
3, 50268, Note_off_c, 0, 67, 64
3, 50280, Note_on_c, 0, 65, 127
3, 50328, Note_off_c, 0, 65, 64
3, 50340, Note_on_c, 0, 63, 127
3, 50388, Note_off_c, 0, 63, 64
3, 50400, Note_on_c, 0, 68, 127
3, 50448, Note_off_c, 0, 68, 64
3, 50460, Note_on_c, 0, 67, 127
3, 50508, Note_off_c, 0, 67, 64
3, 50520, Note_on_c, 0, 68, 127
3, 50568, Note_off_c, 0, 68, 64
3, 50580, Note_on_c, 0, 72, 127
3, 50628, Note_off_c, 0, 72, 64
3, 50640, Note_on_c, 0, 70, 127
3, 50688, Note_off_c, 0, 70, 64
3, 50700, Note_on_c, 0, 68, 127
3, 50748, Note_off_c, 0, 68, 64
3, 50760, Note_on_c, 0, 67, 127
3, 50808, Note_off_c, 0, 67, 64
3, 50820, Note_on_c, 0, 65, 127
3, 50868, Note_off_c, 0, 65, 64
3, 50880, Note_on_c, 0, 67, 127
3, 50928, Note_off_c, 0, 67, 64
3, 50940, Note_on_c, 0, 65, 127
3, 50988, Note_off_c, 0, 65, 64
3, 51000, Note_on_c, 0, 67, 127
3, 51048, Note_off_c, 0, 67, 64
3, 51060, Note_on_c, 0, 70, 127
3, 51108, Note_off_c, 0, 70, 64
3, 51120, Note_on_c, 0, 68, 127
3, 51168, Note_off_c, 0, 68, 64
3, 51180, Note_on_c, 0, 67, 127
3, 51228, Note_off_c, 0, 67, 64
3, 51240, Note_on_c, 0, 65, 127
3, 51288, Note_off_c, 0, 65, 64
3, 51300, Note_on_c, 0, 63, 127
3, 51348, Note_off_c, 0, 63, 64
3, 51360, Note_on_c, 0, 65, 127
3, 51408, Note_off_c, 0, 65, 64
3, 51420, Note_on_c, 0, 63, 127
3, 51468, Note_off_c, 0, 63, 64
3, 51480, Note_on_c, 0, 65, 127
3, 51528, Note_off_c, 0, 65, 64
3, 51540, Note_on_c, 0, 68, 127
3, 51588, Note_off_c, 0, 68, 64
3, 51600, Note_on_c, 0, 67, 127
3, 51648, Note_off_c, 0, 67, 64
3, 51660, Note_on_c, 0, 65, 127
3, 51708, Note_off_c, 0, 65, 64
3, 51720, Note_on_c, 0, 63, 127
3, 51768, Note_off_c, 0, 63, 64
3, 51780, Note_on_c, 0, 62, 127
3, 51828, Note_off_c, 0, 62, 64
3, 51840, Note_on_c, 0, 63, 127
3, 51888, Note_off_c, 0, 63, 64
3, 51900, Note_on_c, 0, 62, 127
3, 51948, Note_off_c, 0, 62, 64
3, 51960, Note_on_c, 0, 60, 127
3, 52008, Note_off_c, 0, 60, 64
3, 52020, Note_on_c, 0, 58, 127
3, 52068, Note_off_c, 0, 58, 64
3, 52080, Note_on_c, 0, 70, 127
3, 52176, Note_off_c, 0, 70, 64
3, 52200, Note_on_c, 0, 68, 127
3, 52296, Note_off_c, 0, 68, 64
3, 52320, Note_on_c, 0, 67, 127
3, 52344, Note_off_c, 0, 67, 64
3, 52350, Note_on_c, 0, 65, 127
3, 52374, Note_off_c, 0, 65, 64
3, 52380, Note_on_c, 0, 67, 127
3, 52404, Note_off_c, 0, 67, 64
3, 52410, Note_on_c, 0, 65, 127
3, 52434, Note_off_c, 0, 65, 64
3, 52440, Note_on_c, 0, 67, 127
3, 52464, Note_off_c, 0, 67, 64
3, 52470, Note_on_c, 0, 65, 127
3, 52494, Note_off_c, 0, 65, 64
3, 52500, Note_on_c, 0, 67, 127
3, 52524, Note_off_c, 0, 67, 64
3, 52530, Note_on_c, 0, 65, 127
3, 52554, Note_off_c, 0, 65, 64
3, 52560, Note_on_c, 0, 65, 127
3, 52584, Note_off_c, 0, 65, 64
3, 52590, Note_on_c, 0, 63, 127
3, 52614, Note_off_c, 0, 63, 64
3, 52620, Note_on_c, 0, 65, 127
3, 52644, Note_off_c, 0, 65, 64
3, 52650, Note_on_c, 0, 63, 127
3, 52674, Note_off_c, 0, 63, 64
3, 52680, Note_on_c, 0, 65, 127
3, 52704, Note_off_c, 0, 65, 64
3, 52710, Note_on_c, 0, 63, 127
3, 52734, Note_off_c, 0, 63, 64
3, 52740, Note_on_c, 0, 65, 127
3, 52764, Note_off_c, 0, 65, 64
3, 52770, Note_on_c, 0, 63, 127
3, 52794, Note_off_c, 0, 63, 64
3, 52800, Note_on_c, 0, 63, 127
3, 52896, Note_off_c, 0, 63, 64
3, 52920, Note_on_c, 0, 67, 127
3, 53016, Note_off_c, 0, 67, 64
3, 53040, Note_on_c, 0, 70, 127
3, 53232, Note_off_c, 0, 70, 64
3, 53280, Note_on_c, 0, 63, 127
3, 53393, Note_off_c, 0, 63, 64
3, 53400, Note_on_c, 0, 68, 127
3, 53513, Note_off_c, 0, 68, 64
3, 53520, Note_on_c, 0, 72, 127
3, 53808, Note_off_c, 0, 72, 64
3, 53820, Note_on_c, 0, 75, 127
3, 53868, Note_off_c, 0, 75, 64
3, 53880, Note_on_c, 0, 74, 127
3, 53928, Note_off_c, 0, 74, 64
3, 53940, Note_on_c, 0, 72, 127
3, 53988, Note_off_c, 0, 72, 64
3, 54000, Note_on_c, 0, 70, 127
3, 54096, Note_off_c, 0, 70, 64
3, 54120, Note_on_c, 0, 68, 127
3, 54216, Note_off_c, 0, 68, 64
3, 54240, Note_on_c, 0, 67, 127
3, 54336, Note_off_c, 0, 67, 64
3, 54360, Note_on_c, 0, 75, 127
3, 54552, Note_off_c, 0, 75, 64
3, 54600, Note_on_c, 0, 74, 127
3, 54696, Note_off_c, 0, 74, 64
3, 54720, Note_on_c, 0, 75, 127
3, 54768, Note_off_c, 0, 75, 64
3, 54780, Note_on_c, 0, 74, 127
3, 54828, Note_off_c, 0, 74, 64
3, 54840, Note_on_c, 0, 72, 127
3, 54888, Note_off_c, 0, 72, 64
3, 54900, Note_on_c, 0, 70, 127
3, 54948, Note_off_c, 0, 70, 64
3, 54960, Note_on_c, 0, 68, 127
3, 55008, Note_off_c, 0, 68, 64
3, 55020, Note_on_c, 0, 67, 127
3, 55068, Note_off_c, 0, 67, 64
3, 55080, Note_on_c, 0, 65, 127
3, 55128, Note_off_c, 0, 65, 64
3, 55140, Note_on_c, 0, 70, 127
3, 55188, Note_off_c, 0, 70, 64
3, 55200, Note_on_c, 0, 68, 127
3, 55296, Note_off_c, 0, 68, 64
3, 55320, Note_on_c, 0, 67, 127
3, 55680, Note_off_c, 0, 67, 64
3, 55680, End_track
4, 0, Start_track
4, 0, Title_t, "Arr. Gary Bricault, (c) 1997"
4, 0, Program_c, 0, 19
4, 0, Control_c, 0, 7, 127
4, 0, Note_on_c, 0, 51, 127
4, 192, Note_off_c, 0, 51, 64
4, 300, Note_on_c, 0, 55, 127
4, 348, Note_off_c, 0, 55, 64
4, 360, Note_on_c, 0, 53, 127
4, 408, Note_off_c, 0, 53, 64
4, 420, Note_on_c, 0, 55, 127
4, 468, Note_off_c, 0, 55, 64
4, 480, Note_on_c, 0, 48, 127
4, 672, Note_off_c, 0, 48, 64
4, 780, Note_on_c, 0, 51, 127
4, 828, Note_off_c, 0, 51, 64
4, 840, Note_on_c, 0, 50, 127
4, 888, Note_off_c, 0, 50, 64
4, 900, Note_on_c, 0, 51, 127
4, 948, Note_off_c, 0, 51, 64
4, 960, Note_on_c, 0, 44, 127
4, 1152, Note_off_c, 0, 44, 64
4, 1200, Note_on_c, 0, 46, 127
4, 1392, Note_off_c, 0, 46, 64
4, 1440, Note_on_c, 0, 39, 127
4, 1536, Note_off_c, 0, 39, 64
4, 1560, Note_on_c, 0, 51, 127
4, 1656, Note_off_c, 0, 51, 64
4, 1680, Note_on_c, 0, 50, 127
4, 1776, Note_off_c, 0, 50, 64
4, 1800, Note_on_c, 0, 48, 127
4, 1896, Note_off_c, 0, 48, 64
4, 1920, Note_on_c, 0, 50, 127
4, 2016, Note_off_c, 0, 50, 64
4, 2040, Note_on_c, 0, 53, 127
4, 2136, Note_off_c, 0, 53, 64
4, 2160, Note_on_c, 0, 50, 127
4, 2256, Note_off_c, 0, 50, 64
4, 2280, Note_on_c, 0, 46, 127
4, 2376, Note_off_c, 0, 46, 64
4, 2400, Note_on_c, 0, 51, 127
4, 2496, Note_off_c, 0, 51, 64
4, 2520, Note_on_c, 0, 55, 127
4, 2616, Note_off_c, 0, 55, 64
4, 2640, Note_on_c, 0, 51, 127
4, 2736, Note_off_c, 0, 51, 64
4, 2760, Note_on_c, 0, 48, 127
4, 2856, Note_off_c, 0, 48, 64
4, 2880, Note_on_c, 0, 50, 127
4, 2976, Note_off_c, 0, 50, 64
4, 3000, Note_on_c, 0, 51, 127
4, 3096, Note_off_c, 0, 51, 64
4, 3120, Note_on_c, 0, 53, 127
4, 3216, Note_off_c, 0, 53, 64
4, 3240, Note_on_c, 0, 41, 127
4, 3336, Note_off_c, 0, 41, 64
4, 3360, Note_on_c, 0, 46, 127
4, 3552, Note_off_c, 0, 46, 64
4, 3720, Note_on_c, 0, 50, 127
4, 3816, Note_off_c, 0, 50, 64
4, 3840, Note_on_c, 0, 53, 127
4, 4032, Note_off_c, 0, 53, 64
4, 4200, Note_on_c, 0, 56, 127
4, 4296, Note_off_c, 0, 56, 64
4, 4320, Note_on_c, 0, 48, 127
4, 4512, Note_off_c, 0, 48, 64
4, 4680, Note_on_c, 0, 51, 127
4, 4776, Note_off_c, 0, 51, 64
4, 4800, Note_on_c, 0, 55, 127
4, 4992, Note_off_c, 0, 55, 64
4, 5160, Note_on_c, 0, 58, 127
4, 5256, Note_off_c, 0, 58, 64
4, 5280, Note_on_c, 0, 48, 127
4, 5376, Note_off_c, 0, 48, 64
4, 5400, Note_on_c, 0, 51, 127
4, 5496, Note_off_c, 0, 51, 64
4, 5520, Note_on_c, 0, 56, 127
4, 5712, Note_off_c, 0, 56, 64
4, 5760, Note_on_c, 0, 46, 127
4, 5856, Note_off_c, 0, 46, 64
4, 5880, Note_on_c, 0, 50, 127
4, 5976, Note_off_c, 0, 50, 64
4, 6000, Note_on_c, 0, 55, 127
4, 6192, Note_off_c, 0, 55, 64
4, 6240, Note_on_c, 0, 44, 127
4, 6336, Note_off_c, 0, 44, 64
4, 6360, Note_on_c, 0, 48, 127
4, 6456, Note_off_c, 0, 48, 64
4, 6480, Note_on_c, 0, 53, 127
4, 6576, Note_off_c, 0, 53, 64
4, 6600, Note_on_c, 0, 56, 127
4, 6816, Note_off_c, 0, 56, 64
4, 6840, Note_on_c, 0, 44, 127
4, 6936, Note_off_c, 0, 44, 64
4, 6960, Note_on_c, 0, 43, 127
4, 7056, Note_off_c, 0, 43, 64
4, 7080, Note_on_c, 0, 48, 127
4, 7176, Note_off_c, 0, 48, 64
4, 7200, Note_on_c, 0, 46, 127
4, 7296, Note_off_c, 0, 46, 64
4, 7320, Note_on_c, 0, 58, 127
4, 7512, Note_off_c, 0, 58, 64
4, 7560, Note_on_c, 0, 56, 127
4, 7656, Note_off_c, 0, 56, 64
4, 7680, Note_on_c, 0, 55, 127
4, 7776, Note_off_c, 0, 55, 64
4, 7800, Note_on_c, 0, 58, 127
4, 7896, Note_off_c, 0, 58, 64
4, 7920, Note_on_c, 0, 55, 127
4, 8016, Note_off_c, 0, 55, 64
4, 8040, Note_on_c, 0, 51, 127
4, 8136, Note_off_c, 0, 51, 64
4, 8160, Note_on_c, 0, 56, 127
4, 8256, Note_off_c, 0, 56, 64
4, 8280, Note_on_c, 0, 60, 127
4, 8376, Note_off_c, 0, 60, 64
4, 8400, Note_on_c, 0, 56, 127
4, 8496, Note_off_c, 0, 56, 64
4, 8520, Note_on_c, 0, 53, 127
4, 8616, Note_off_c, 0, 53, 64
4, 8640, Note_on_c, 0, 55, 127
4, 8736, Note_off_c, 0, 55, 64
4, 8760, Note_on_c, 0, 56, 127
4, 8856, Note_off_c, 0, 56, 64
4, 8880, Note_on_c, 0, 58, 127
4, 8976, Note_off_c, 0, 58, 64
4, 9000, Note_on_c, 0, 50, 127
4, 9096, Note_off_c, 0, 50, 64
4, 9120, Note_on_c, 0, 51, 127
4, 9216, Note_off_c, 0, 51, 64
4, 9240, Note_on_c, 0, 48, 127
4, 9336, Note_off_c, 0, 48, 64
4, 9360, Note_on_c, 0, 44, 127
4, 9456, Note_off_c, 0, 44, 64
4, 9480, Note_on_c, 0, 46, 127
4, 9576, Note_off_c, 0, 46, 64
4, 9600, Note_on_c, 0, 39, 127
4, 9696, Note_off_c, 0, 39, 64
4, 9720, Note_on_c, 0, 41, 127
4, 9816, Note_off_c, 0, 41, 64
4, 9840, Note_on_c, 0, 43, 127
4, 9936, Note_off_c, 0, 43, 64
4, 9960, Note_on_c, 0, 39, 127
4, 10056, Note_off_c, 0, 39, 64
4, 10080, Note_on_c, 0, 46, 127
4, 10272, Note_off_c, 0, 46, 64
4, 10440, Note_on_c, 0, 50, 127
4, 10536, Note_off_c, 0, 50, 64
4, 10560, Note_on_c, 0, 51, 127
4, 10752, Note_off_c, 0, 51, 64
4, 10920, Note_on_c, 0, 43, 127
4, 11016, Note_off_c, 0, 43, 64
4, 11040, Note_on_c, 0, 46, 127
4, 11265, Note_off_c, 0, 46, 64
4, 11400, Note_on_c, 0, 50, 127
4, 11496, Note_off_c, 0, 50, 64
4, 11520, Note_on_c, 0, 51, 127
4, 11712, Note_off_c, 0, 51, 64
4, 11880, Note_on_c, 0, 55, 127
4, 11976, Note_off_c, 0, 55, 64
4, 12000, Note_on_c, 0, 48, 127
4, 12192, Note_off_c, 0, 48, 64
4, 12360, Note_on_c, 0, 52, 127
4, 12456, Note_off_c, 0, 52, 64
4, 12480, Note_on_c, 0, 53, 127
4, 12672, Note_off_c, 0, 53, 64
4, 12840, Note_on_c, 0, 45, 127
4, 12936, Note_off_c, 0, 45, 64
4, 12960, Note_on_c, 0, 48, 127
4, 13152, Note_off_c, 0, 48, 64
4, 13320, Note_on_c, 0, 52, 127
4, 13416, Note_off_c, 0, 52, 64
4, 13440, Note_on_c, 0, 53, 127
4, 13632, Note_off_c, 0, 53, 64
4, 13800, Note_on_c, 0, 57, 127
4, 13896, Note_off_c, 0, 57, 64
4, 13920, Note_on_c, 0, 50, 127
4, 14112, Note_off_c, 0, 50, 64
4, 14280, Note_on_c, 0, 54, 127
4, 14376, Note_off_c, 0, 54, 64
4, 14400, Note_on_c, 0, 55, 127
4, 14592, Note_off_c, 0, 55, 64
4, 14760, Note_on_c, 0, 60, 127
4, 14856, Note_off_c, 0, 60, 64
4, 14880, Note_on_c, 0, 58, 127
4, 14976, Note_off_c, 0, 58, 64
4, 15000, Note_on_c, 0, 57, 127
4, 15096, Note_off_c, 0, 57, 64
4, 15120, Note_on_c, 0, 58, 127
4, 15216, Note_off_c, 0, 58, 64
4, 15240, Note_on_c, 0, 51, 127
4, 15336, Note_off_c, 0, 51, 64
4, 15360, Note_on_c, 0, 53, 127
4, 15456, Note_off_c, 0, 53, 64
4, 15480, Note_on_c, 0, 41, 127
4, 15576, Note_off_c, 0, 41, 64
4, 15600, Note_on_c, 0, 53, 127
4, 15696, Note_off_c, 0, 53, 64
4, 15720, Note_on_c, 0, 51, 127
4, 15816, Note_off_c, 0, 51, 64
4, 15840, Note_on_c, 0, 50, 127
4, 16032, Note_off_c, 0, 50, 64
4, 16200, Note_on_c, 0, 62, 127
4, 16296, Note_off_c, 0, 62, 64
4, 16320, Note_on_c, 0, 60, 127
4, 16545, Note_off_c, 0, 60, 64
4, 16680, Note_on_c, 0, 48, 127
4, 16793, Note_off_c, 0, 48, 64
4, 16800, Note_on_c, 0, 47, 127
4, 17025, Note_off_c, 0, 47, 64
4, 17160, Note_on_c, 0, 59, 127
4, 17256, Note_off_c, 0, 59, 64
4, 17280, Note_on_c, 0, 60, 127
4, 17472, Note_off_c, 0, 60, 64
4, 17640, Note_on_c, 0, 46, 127
4, 17736, Note_off_c, 0, 46, 64
4, 17760, Note_on_c, 0, 45, 127
4, 17952, Note_off_c, 0, 45, 64
4, 18120, Note_on_c, 0, 57, 127
4, 18216, Note_off_c, 0, 57, 64
4, 18240, Note_on_c, 0, 58, 127
4, 18432, Note_off_c, 0, 58, 64
4, 18600, Note_on_c, 0, 56, 127
4, 18696, Note_off_c, 0, 56, 64
4, 18720, Note_on_c, 0, 55, 127
4, 18945, Note_off_c, 0, 55, 64
4, 19080, Note_on_c, 0, 43, 127
4, 19193, Note_off_c, 0, 43, 64
4, 19200, Note_on_c, 0, 45, 127
4, 19296, Note_off_c, 0, 45, 64
4, 19320, Note_on_c, 0, 48, 127
4, 19416, Note_off_c, 0, 48, 64
4, 19440, Note_on_c, 0, 45, 127
4, 19536, Note_off_c, 0, 45, 64
4, 19560, Note_on_c, 0, 41, 127
4, 19656, Note_off_c, 0, 41, 64
4, 19680, Note_on_c, 0, 46, 127
4, 19776, Note_off_c, 0, 46, 64
4, 19800, Note_on_c, 0, 50, 127
4, 19896, Note_off_c, 0, 50, 64
4, 19920, Note_on_c, 0, 51, 127
4, 20016, Note_off_c, 0, 51, 64
4, 20040, Note_on_c, 0, 53, 127
4, 20136, Note_off_c, 0, 53, 64
4, 20160, Note_on_c, 0, 46, 127
4, 20352, Note_off_c, 0, 46, 64
4, 20460, Note_on_c, 0, 50, 127
4, 20508, Note_off_c, 0, 50, 64
4, 20520, Note_on_c, 0, 48, 127
4, 20568, Note_off_c, 0, 48, 64
4, 20580, Note_on_c, 0, 50, 127
4, 20628, Note_off_c, 0, 50, 64
4, 20640, Note_on_c, 0, 43, 127
4, 20832, Note_off_c, 0, 43, 64
4, 20940, Note_on_c, 0, 46, 127
4, 20988, Note_off_c, 0, 46, 64
4, 21000, Note_on_c, 0, 45, 127
4, 21048, Note_off_c, 0, 45, 64
4, 21060, Note_on_c, 0, 46, 127
4, 21108, Note_off_c, 0, 46, 64
4, 21120, Note_on_c, 0, 39, 127
4, 21312, Note_off_c, 0, 39, 64
4, 21360, Note_on_c, 0, 41, 127
4, 21552, Note_off_c, 0, 41, 64
4, 21600, Note_on_c, 0, 46, 127
4, 21696, Note_off_c, 0, 46, 64
4, 21720, Note_on_c, 0, 58, 127
4, 21912, Note_off_c, 0, 58, 64
4, 21960, Note_on_c, 0, 56, 127
4, 22056, Note_off_c, 0, 56, 64
4, 22080, Note_on_c, 0, 55, 127
4, 22176, Note_off_c, 0, 55, 64
4, 22200, Note_on_c, 0, 58, 127
4, 22296, Note_off_c, 0, 58, 64
4, 22320, Note_on_c, 0, 55, 127
4, 22416, Note_off_c, 0, 55, 64
4, 22440, Note_on_c, 0, 51, 127
4, 22536, Note_off_c, 0, 51, 64
4, 22560, Note_on_c, 0, 56, 127
4, 22656, Note_off_c, 0, 56, 64
4, 22680, Note_on_c, 0, 60, 127
4, 22776, Note_off_c, 0, 60, 64
4, 22800, Note_on_c, 0, 56, 127
4, 22896, Note_off_c, 0, 56, 64
4, 22920, Note_on_c, 0, 53, 127
4, 23016, Note_off_c, 0, 53, 64
4, 23040, Note_on_c, 0, 55, 127
4, 23136, Note_off_c, 0, 55, 64
4, 23160, Note_on_c, 0, 56, 127
4, 23256, Note_off_c, 0, 56, 64
4, 23280, Note_on_c, 0, 58, 127
4, 23376, Note_off_c, 0, 58, 64
4, 23400, Note_on_c, 0, 46, 127
4, 23496, Note_off_c, 0, 46, 64
4, 23520, Note_on_c, 0, 51, 127
4, 23712, Note_off_c, 0, 51, 64
4, 23880, Note_on_c, 0, 55, 127
4, 23976, Note_off_c, 0, 55, 64
4, 24000, Note_on_c, 0, 58, 127
4, 24192, Note_off_c, 0, 58, 64
4, 24360, Note_on_c, 0, 50, 127
4, 24456, Note_off_c, 0, 50, 64
4, 24480, Note_on_c, 0, 53, 127
4, 24672, Note_off_c, 0, 53, 64
4, 24840, Note_on_c, 0, 56, 127
4, 24936, Note_off_c, 0, 56, 64
4, 24960, Note_on_c, 0, 60, 127
4, 25152, Note_off_c, 0, 60, 64
4, 25320, Note_on_c, 0, 51, 127
4, 25416, Note_off_c, 0, 51, 64
4, 25440, Note_on_c, 0, 53, 127
4, 25632, Note_off_c, 0, 53, 64
4, 25800, Note_on_c, 0, 55, 127
4, 25896, Note_off_c, 0, 55, 64
4, 25920, Note_on_c, 0, 56, 127
4, 26112, Note_off_c, 0, 56, 64
4, 26280, Note_on_c, 0, 48, 127
4, 26376, Note_off_c, 0, 48, 64
4, 26400, Note_on_c, 0, 50, 127
4, 26592, Note_off_c, 0, 50, 64
4, 26760, Note_on_c, 0, 52, 127
4, 26856, Note_off_c, 0, 52, 64
4, 26880, Note_on_c, 0, 41, 127
4, 26976, Note_off_c, 0, 41, 64
4, 27000, Note_on_c, 0, 45, 127
4, 27096, Note_off_c, 0, 45, 64
4, 27120, Note_on_c, 0, 48, 127
4, 27312, Note_off_c, 0, 48, 64
4, 27360, Note_on_c, 0, 41, 127
4, 27456, Note_off_c, 0, 41, 64
4, 27480, Note_on_c, 0, 46, 127
4, 27576, Note_off_c, 0, 46, 64
4, 27600, Note_on_c, 0, 49, 127
4, 27792, Note_off_c, 0, 49, 64
4, 27840, Note_on_c, 0, 43, 127
4, 27936, Note_off_c, 0, 43, 64
4, 27960, Note_on_c, 0, 46, 127
4, 28056, Note_off_c, 0, 46, 64
4, 28080, Note_on_c, 0, 52, 127
4, 28176, Note_off_c, 0, 52, 64
4, 28200, Note_on_c, 0, 48, 127
4, 28296, Note_off_c, 0, 48, 64
4, 28320, Note_on_c, 0, 53, 127
4, 28512, Note_off_c, 0, 53, 64
4, 28680, Note_on_c, 0, 41, 127
4, 28776, Note_off_c, 0, 41, 64
4, 28800, Note_on_c, 0, 39, 127
4, 28992, Note_off_c, 0, 39, 64
4, 29160, Note_on_c, 0, 51, 127
4, 29256, Note_off_c, 0, 51, 64
4, 29280, Note_on_c, 0, 49, 127
4, 29376, Note_off_c, 0, 49, 64
4, 29400, Note_on_c, 0, 53, 127
4, 29496, Note_off_c, 0, 53, 64
4, 29520, Note_on_c, 0, 58, 127
4, 29712, Note_off_c, 0, 58, 64
4, 29760, Note_on_c, 0, 48, 127
4, 29856, Note_off_c, 0, 48, 64
4, 29880, Note_on_c, 0, 53, 127
4, 29976, Note_off_c, 0, 53, 64
4, 30000, Note_on_c, 0, 56, 127
4, 30192, Note_off_c, 0, 56, 64
4, 30240, Note_on_c, 0, 46, 127
4, 30336, Note_off_c, 0, 46, 64
4, 30360, Note_on_c, 0, 49, 127
4, 30456, Note_off_c, 0, 49, 64
4, 30480, Note_on_c, 0, 55, 127
4, 30576, Note_off_c, 0, 55, 64
4, 30600, Note_on_c, 0, 58, 127
4, 30816, Note_off_c, 0, 58, 64
4, 30840, Note_on_c, 0, 46, 127
4, 30936, Note_off_c, 0, 46, 64
4, 30960, Note_on_c, 0, 44, 127
4, 31056, Note_off_c, 0, 44, 64
4, 31080, Note_on_c, 0, 49, 127
4, 31176, Note_off_c, 0, 49, 64
4, 31200, Note_on_c, 0, 48, 127
4, 31296, Note_off_c, 0, 48, 64
4, 31320, Note_on_c, 0, 60, 127
4, 31512, Note_off_c, 0, 60, 64
4, 31560, Note_on_c, 0, 58, 127
4, 31656, Note_off_c, 0, 58, 64
4, 31680, Note_on_c, 0, 57, 127
4, 31776, Note_off_c, 0, 57, 64
4, 31800, Note_on_c, 0, 60, 127
4, 31896, Note_off_c, 0, 60, 64
4, 31920, Note_on_c, 0, 57, 127
4, 32016, Note_off_c, 0, 57, 64
4, 32040, Note_on_c, 0, 53, 127
4, 32136, Note_off_c, 0, 53, 64
4, 32160, Note_on_c, 0, 58, 127
4, 32256, Note_off_c, 0, 58, 64
4, 32280, Note_on_c, 0, 61, 127
4, 32376, Note_off_c, 0, 61, 64
4, 32400, Note_on_c, 0, 58, 127
4, 32496, Note_off_c, 0, 58, 64
4, 32520, Note_on_c, 0, 55, 127
4, 32616, Note_off_c, 0, 55, 64
4, 32640, Note_on_c, 0, 56, 127
4, 32736, Note_off_c, 0, 56, 64
4, 32760, Note_on_c, 0, 58, 127
4, 32856, Note_off_c, 0, 58, 64
4, 32880, Note_on_c, 0, 60, 127
4, 32976, Note_off_c, 0, 60, 64
4, 33000, Note_on_c, 0, 52, 127
4, 33096, Note_off_c, 0, 52, 64
4, 33120, Note_on_c, 0, 53, 127
4, 33216, Note_off_c, 0, 53, 64
4, 33240, Note_on_c, 0, 49, 127
4, 33336, Note_off_c, 0, 49, 64
4, 33360, Note_on_c, 0, 46, 127
4, 33456, Note_off_c, 0, 46, 64
4, 33480, Note_on_c, 0, 48, 127
4, 33576, Note_off_c, 0, 48, 64
4, 33600, Note_on_c, 0, 41, 127
4, 33696, Note_off_c, 0, 41, 64
4, 33720, Note_on_c, 0, 43, 127
4, 33816, Note_off_c, 0, 43, 64
4, 33840, Note_on_c, 0, 44, 127
4, 33936, Note_off_c, 0, 44, 64
4, 33960, Note_on_c, 0, 41, 127
4, 34056, Note_off_c, 0, 41, 64
4, 34080, Note_on_c, 0, 48, 127
4, 34272, Note_off_c, 0, 48, 64
4, 34440, Note_on_c, 0, 52, 127
4, 34536, Note_off_c, 0, 52, 64
4, 34560, Note_on_c, 0, 53, 127
4, 34752, Note_off_c, 0, 53, 64
4, 34920, Note_on_c, 0, 56, 127
4, 35016, Note_off_c, 0, 56, 64
4, 35040, Note_on_c, 0, 60, 127
4, 35232, Note_off_c, 0, 60, 64
4, 35400, Note_on_c, 0, 48, 127
4, 35496, Note_off_c, 0, 48, 64
4, 35520, Note_on_c, 0, 53, 127
4, 35616, Note_off_c, 0, 53, 64
4, 35640, Note_on_c, 0, 55, 127
4, 35736, Note_off_c, 0, 55, 64
4, 35760, Note_on_c, 0, 56, 127
4, 35856, Note_off_c, 0, 56, 64
4, 35880, Note_on_c, 0, 53, 127
4, 35976, Note_off_c, 0, 53, 64
4, 36000, Note_on_c, 0, 58, 127
4, 36192, Note_off_c, 0, 58, 64
4, 36360, Note_on_c, 0, 55, 127
4, 36456, Note_off_c, 0, 55, 64
4, 36480, Note_on_c, 0, 56, 127
4, 36672, Note_off_c, 0, 56, 64
4, 36840, Note_on_c, 0, 44, 127
4, 36936, Note_off_c, 0, 44, 64
4, 36960, Note_on_c, 0, 51, 127
4, 37152, Note_off_c, 0, 51, 64
4, 37320, Note_on_c, 0, 39, 127
4, 37416, Note_off_c, 0, 39, 64
4, 37440, Note_on_c, 0, 44, 127
4, 37536, Note_off_c, 0, 44, 64
4, 37560, Note_on_c, 0, 46, 127
4, 37656, Note_off_c, 0, 46, 64
4, 37680, Note_on_c, 0, 48, 127
4, 37776, Note_off_c, 0, 48, 64
4, 37800, Note_on_c, 0, 49, 127
4, 37896, Note_off_c, 0, 49, 64
4, 37920, Note_on_c, 0, 51, 127
4, 38112, Note_off_c, 0, 51, 64
4, 38280, Note_on_c, 0, 43, 127
4, 38376, Note_off_c, 0, 43, 64
4, 38400, Note_on_c, 0, 44, 127
4, 38592, Note_off_c, 0, 44, 64
4, 38760, Note_on_c, 0, 48, 127
4, 38856, Note_off_c, 0, 48, 64
4, 38880, Note_on_c, 0, 51, 127
4, 39072, Note_off_c, 0, 51, 64
4, 39240, Note_on_c, 0, 43, 127
4, 39336, Note_off_c, 0, 43, 64
4, 39360, Note_on_c, 0, 44, 127
4, 39552, Note_off_c, 0, 44, 64
4, 39720, Note_on_c, 0, 48, 127
4, 39816, Note_off_c, 0, 48, 64
4, 39840, Note_on_c, 0, 53, 127
4, 40032, Note_off_c, 0, 53, 64
4, 40200, Note_on_c, 0, 45, 127
4, 40296, Note_off_c, 0, 45, 64
4, 40320, Note_on_c, 0, 46, 127
4, 40512, Note_off_c, 0, 46, 64
4, 40680, Note_on_c, 0, 50, 127
4, 40776, Note_off_c, 0, 50, 64
4, 40800, Note_on_c, 0, 53, 127
4, 40992, Note_off_c, 0, 53, 64
4, 41160, Note_on_c, 0, 45, 127
4, 41256, Note_off_c, 0, 45, 64
4, 41280, Note_on_c, 0, 46, 127
4, 41472, Note_off_c, 0, 46, 64
4, 41640, Note_on_c, 0, 50, 127
4, 41736, Note_off_c, 0, 50, 64
4, 41760, Note_on_c, 0, 55, 127
4, 41952, Note_off_c, 0, 55, 64
4, 42120, Note_on_c, 0, 47, 127
4, 42216, Note_off_c, 0, 47, 64
4, 42240, Note_on_c, 0, 48, 127
4, 42432, Note_off_c, 0, 48, 64
4, 42600, Note_on_c, 0, 53, 127
4, 42696, Note_off_c, 0, 53, 64
4, 42720, Note_on_c, 0, 51, 127
4, 42816, Note_off_c, 0, 51, 64
4, 42840, Note_on_c, 0, 50, 127
4, 42936, Note_off_c, 0, 50, 64
4, 42960, Note_on_c, 0, 51, 127
4, 43056, Note_off_c, 0, 51, 64
4, 43080, Note_on_c, 0, 44, 127
4, 43176, Note_off_c, 0, 44, 64
4, 43200, Note_on_c, 0, 46, 127
4, 43296, Note_off_c, 0, 46, 64
4, 43320, Note_on_c, 0, 58, 127
4, 43512, Note_off_c, 0, 58, 64
4, 43560, Note_on_c, 0, 56, 127
4, 43656, Note_off_c, 0, 56, 64
4, 43680, Note_on_c, 0, 55, 127
4, 43872, Note_off_c, 0, 55, 64
4, 44040, Note_on_c, 0, 43, 127
4, 44136, Note_off_c, 0, 43, 64
4, 44160, Note_on_c, 0, 41, 127
4, 44352, Note_off_c, 0, 41, 64
4, 44520, Note_on_c, 0, 53, 127
4, 44616, Note_off_c, 0, 53, 64
4, 44640, Note_on_c, 0, 52, 127
4, 44832, Note_off_c, 0, 52, 64
4, 45000, Note_on_c, 0, 40, 127
4, 45096, Note_off_c, 0, 40, 64
4, 45120, Note_on_c, 0, 41, 127
4, 45312, Note_off_c, 0, 41, 64
4, 45480, Note_on_c, 0, 51, 127
4, 45576, Note_off_c, 0, 51, 64
4, 45600, Note_on_c, 0, 50, 127
4, 45792, Note_off_c, 0, 50, 64
4, 45960, Note_on_c, 0, 38, 127
4, 46056, Note_off_c, 0, 38, 64
4, 46080, Note_on_c, 0, 39, 127
4, 46272, Note_off_c, 0, 39, 64
4, 46440, Note_on_c, 0, 49, 127
4, 46536, Note_off_c, 0, 49, 64
4, 46560, Note_on_c, 0, 48, 127
4, 46752, Note_off_c, 0, 48, 64
4, 46920, Note_on_c, 0, 36, 127
4, 47016, Note_off_c, 0, 36, 64
4, 47040, Note_on_c, 0, 38, 127
4, 47136, Note_off_c, 0, 38, 64
4, 47160, Note_on_c, 0, 53, 127
4, 47256, Note_off_c, 0, 53, 64
4, 47280, Note_on_c, 0, 50, 127
4, 47376, Note_off_c, 0, 50, 64
4, 47400, Note_on_c, 0, 46, 127
4, 47496, Note_off_c, 0, 46, 64
4, 47520, Note_on_c, 0, 51, 127
4, 47616, Note_off_c, 0, 51, 64
4, 47640, Note_on_c, 0, 43, 127
4, 47736, Note_off_c, 0, 43, 64
4, 47760, Note_on_c, 0, 44, 127
4, 47856, Note_off_c, 0, 44, 64
4, 47880, Note_on_c, 0, 46, 127
4, 47976, Note_off_c, 0, 46, 64
4, 48000, Note_on_c, 0, 39, 127
4, 48096, Note_off_c, 0, 39, 64
4, 48120, Note_on_c, 0, 43, 127
4, 48216, Note_off_c, 0, 43, 64
4, 48240, Note_on_c, 0, 46, 127
4, 48432, Note_off_c, 0, 46, 64
4, 48480, Note_on_c, 0, 39, 127
4, 48576, Note_off_c, 0, 39, 64
4, 48600, Note_on_c, 0, 44, 127
4, 48696, Note_off_c, 0, 44, 64
4, 48720, Note_on_c, 0, 48, 127
4, 48912, Note_off_c, 0, 48, 64
4, 48960, Note_on_c, 0, 41, 127
4, 49056, Note_off_c, 0, 41, 64
4, 49080, Note_on_c, 0, 44, 127
4, 49176, Note_off_c, 0, 44, 64
4, 49200, Note_on_c, 0, 50, 127
4, 49296, Note_off_c, 0, 50, 64
4, 49320, Note_on_c, 0, 46, 127
4, 49416, Note_off_c, 0, 46, 64
4, 49440, Note_on_c, 0, 51, 127
4, 49632, Note_off_c, 0, 51, 64
4, 49800, Note_on_c, 0, 60, 127
4, 49896, Note_off_c, 0, 60, 64
4, 49920, Note_on_c, 0, 49, 127
4, 50112, Note_off_c, 0, 49, 64
4, 50280, Note_on_c, 0, 58, 127
4, 50376, Note_off_c, 0, 58, 64
4, 50400, Note_on_c, 0, 48, 127
4, 50496, Note_off_c, 0, 48, 64
4, 50520, Note_on_c, 0, 51, 127
4, 50616, Note_off_c, 0, 51, 64
4, 50640, Note_on_c, 0, 56, 127
4, 50832, Note_off_c, 0, 56, 64
4, 50880, Note_on_c, 0, 46, 127
4, 50976, Note_off_c, 0, 46, 64
4, 51000, Note_on_c, 0, 50, 127
4, 51096, Note_off_c, 0, 50, 64
4, 51120, Note_on_c, 0, 55, 127
4, 51312, Note_off_c, 0, 55, 64
4, 51360, Note_on_c, 0, 44, 127
4, 51456, Note_off_c, 0, 44, 64
4, 51480, Note_on_c, 0, 48, 127
4, 51576, Note_off_c, 0, 48, 64
4, 51600, Note_on_c, 0, 53, 127
4, 51696, Note_off_c, 0, 53, 64
4, 51720, Note_on_c, 0, 56, 127
4, 51936, Note_off_c, 0, 56, 64
4, 51960, Note_on_c, 0, 44, 127
4, 52056, Note_off_c, 0, 44, 64
4, 52080, Note_on_c, 0, 43, 127
4, 52176, Note_off_c, 0, 43, 64
4, 52200, Note_on_c, 0, 48, 127
4, 52296, Note_off_c, 0, 48, 64
4, 52320, Note_on_c, 0, 46, 127
4, 52416, Note_off_c, 0, 46, 64
4, 52440, Note_on_c, 0, 58, 127
4, 52632, Note_off_c, 0, 58, 64
4, 52680, Note_on_c, 0, 56, 127
4, 52776, Note_off_c, 0, 56, 64
4, 52800, Note_on_c, 0, 55, 127
4, 52896, Note_off_c, 0, 55, 64
4, 52920, Note_on_c, 0, 58, 127
4, 53016, Note_off_c, 0, 58, 64
4, 53040, Note_on_c, 0, 55, 127
4, 53136, Note_off_c, 0, 55, 64
4, 53160, Note_on_c, 0, 51, 127
4, 53256, Note_off_c, 0, 51, 64
4, 53280, Note_on_c, 0, 56, 127
4, 53376, Note_off_c, 0, 56, 64
4, 53400, Note_on_c, 0, 60, 127
4, 53496, Note_off_c, 0, 60, 64
4, 53520, Note_on_c, 0, 56, 127
4, 53616, Note_off_c, 0, 56, 64
4, 53640, Note_on_c, 0, 53, 127
4, 53736, Note_off_c, 0, 53, 64
4, 53760, Note_on_c, 0, 55, 127
4, 53856, Note_off_c, 0, 55, 64
4, 53880, Note_on_c, 0, 56, 127
4, 53976, Note_off_c, 0, 56, 64
4, 54000, Note_on_c, 0, 58, 127
4, 54096, Note_off_c, 0, 58, 64
4, 54120, Note_on_c, 0, 50, 127
4, 54216, Note_off_c, 0, 50, 64
4, 54240, Note_on_c, 0, 51, 127
4, 54336, Note_off_c, 0, 51, 64
4, 54360, Note_on_c, 0, 48, 127
4, 54456, Note_off_c, 0, 48, 64
4, 54480, Note_on_c, 0, 44, 127
4, 54576, Note_off_c, 0, 44, 64
4, 54600, Note_on_c, 0, 46, 127
4, 54696, Note_off_c, 0, 46, 64
4, 54720, Note_on_c, 0, 39, 127
4, 54816, Note_off_c, 0, 39, 64
4, 54840, Note_on_c, 0, 43, 127
4, 54936, Note_off_c, 0, 43, 64
4, 54960, Note_on_c, 0, 46, 127
4, 55152, Note_off_c, 0, 46, 64
4, 55200, Note_on_c, 0, 39, 127
4, 55584, Note_off_c, 0, 39, 64
4, 55584, End_track
0, 0, End_of_file
