0, 0, Header, 1, 5, 240
1, 0, Start_track
1, 0, Time_signature, 4, 2, 24, 8
1, 0, Tempo, 600000
1, 28800, Tempo, 631579
1, 29040, Tempo, 638298
1, 29280, Tempo, 652174
1, 29520, Tempo, 659341
1, 29760, Tempo, 666667
1, 38400, Tempo, 631579
1, 47280, Tempo, 638298
1, 47520, Tempo, 652174
1, 47760, Tempo, 659341
1, 48000, Tempo, 600000
1, 93360, Tempo, 606061
1, 93600, Tempo, 618557
1, 93840, Tempo, 625000
1, 94080, Tempo, 600000
1, 105600, Tempo, 666667
1, 113520, Tempo, 659341
1, 113760, Tempo, 645161
1, 114000, Tempo, 638298
1, 114240, Tempo, 631579
1, 123120, Tempo, 638298
1, 123360, Tempo, 652174
1, 123600, Tempo, 659341
1, 123840, Tempo, 631579
1, 167040, Tempo, 600000
1, 195120, Tempo, 625000
1, 195360, Tempo, 652174
1, 195600, Tempo, 674157
1, 195840, Tempo, 1000000
1, 195840, End_track
2, 0, Start_track
2, 0, Title_t, "Prelude in E-Flat Major - BWV 552"
2, 0, Program_c, 0, 19
2, 0, Control_c, 0, 7, 127
2, 0, Note_on_c, 0, 70, 127
2, 0, Note_on_c, 0, 63, 127
2, 288, Note_off_c, 0, 70, 64
2, 300, Note_on_c, 0, 68, 110
2, 348, Note_off_c, 0, 68, 64
2, 360, Note_on_c, 0, 67, 110
2, 384, Note_off_c, 0, 63, 64
2, 408, Note_off_c, 0, 67, 64
2, 420, Note_on_c, 0, 65, 110
2, 468, Note_off_c, 0, 65, 64
2, 480, Note_on_c, 0, 63, 110
2, 768, Note_off_c, 0, 63, 64
2, 840, Note_on_c, 0, 75, 110
2, 840, Note_on_c, 0, 70, 110
2, 936, Note_off_c, 0, 70, 64
2, 936, Note_off_c, 0, 75, 64
2, 960, Note_on_c, 0, 68, 110
2, 960, Note_on_c, 0, 75, 110
2, 1344, Note_off_c, 0, 75, 64
2, 1440, Note_on_c, 0, 74, 110
2, 1824, Note_off_c, 0, 74, 64
2, 1920, Note_on_c, 0, 77, 110
2, 2064, Note_off_c, 0, 77, 64
2, 2100, Note_on_c, 0, 75, 110
2, 2148, Note_off_c, 0, 75, 64
2, 2160, Note_on_c, 0, 74, 110
2, 2304, Note_off_c, 0, 74, 64
2, 2304, Note_off_c, 0, 68, 64
2, 2340, Note_on_c, 0, 72, 110
2, 2388, Note_off_c, 0, 72, 64
2, 2400, Note_on_c, 0, 70, 110
2, 2688, Note_off_c, 0, 70, 64
2, 2760, Note_on_c, 0, 68, 110
2, 2760, Note_on_c, 0, 65, 110
2, 2856, Note_off_c, 0, 65, 64
2, 2856, Note_off_c, 0, 68, 64
2, 2880, Note_on_c, 0, 62, 110
2, 2880, Note_on_c, 0, 68, 110
2, 2880, Note_on_c, 0, 65, 110
2, 3264, Note_off_c, 0, 65, 64
2, 3264, Note_off_c, 0, 68, 64
2, 3264, Note_off_c, 0, 62, 64
2, 3360, Note_on_c, 0, 67, 110
2, 3360, Note_on_c, 0, 63, 110
2, 3744, Note_off_c, 0, 63, 64
2, 3744, Note_off_c, 0, 67, 64
2, 3840, Note_on_c, 0, 79, 110
2, 3984, Note_off_c, 0, 79, 64
2, 4020, Note_on_c, 0, 80, 110
2, 4068, Note_off_c, 0, 80, 64
2, 4080, Note_on_c, 0, 79, 110
2, 4224, Note_off_c, 0, 79, 64
2, 4260, Note_on_c, 0, 77, 110
2, 4308, Note_off_c, 0, 77, 64
2, 4320, Note_on_c, 0, 79, 110
2, 4464, Note_off_c, 0, 79, 64
2, 4500, Note_on_c, 0, 75, 110
2, 4548, Note_off_c, 0, 75, 64
2, 4560, Note_on_c, 0, 74, 110
2, 4704, Note_off_c, 0, 74, 64
2, 4740, Note_on_c, 0, 72, 110
2, 4788, Note_off_c, 0, 72, 64
2, 4800, Note_on_c, 0, 77, 110
2, 4944, Note_off_c, 0, 77, 64
2, 4980, Note_on_c, 0, 79, 110
2, 5028, Note_off_c, 0, 79, 64
2, 5040, Note_on_c, 0, 77, 110
2, 5184, Note_off_c, 0, 77, 64
2, 5220, Note_on_c, 0, 75, 110
2, 5268, Note_off_c, 0, 75, 64
2, 5280, Note_on_c, 0, 77, 110
2, 5424, Note_off_c, 0, 77, 64
2, 5460, Note_on_c, 0, 74, 110
2, 5508, Note_off_c, 0, 74, 64
2, 5520, Note_on_c, 0, 72, 110
2, 5664, Note_off_c, 0, 72, 64
2, 5700, Note_on_c, 0, 70, 110
2, 5748, Note_off_c, 0, 70, 64
2, 5760, Note_on_c, 0, 75, 110
2, 5904, Note_off_c, 0, 75, 64
2, 5940, Note_on_c, 0, 77, 110
2, 5988, Note_off_c, 0, 77, 64
2, 6000, Note_on_c, 0, 75, 110
2, 6144, Note_off_c, 0, 75, 64
2, 6180, Note_on_c, 0, 74, 110
2, 6228, Note_off_c, 0, 74, 64
2, 6240, Note_on_c, 0, 75, 110
2, 6420, Note_on_c, 0, 72, 110
2, 6468, Note_off_c, 0, 72, 64
2, 6480, Note_on_c, 0, 70, 110
2, 6624, Note_off_c, 0, 70, 64
2, 6660, Note_on_c, 0, 69, 110
2, 6708, Note_off_c, 0, 69, 64
2, 6720, Note_on_c, 0, 67, 110
2, 6864, Note_off_c, 0, 75, 64
2, 6900, Note_on_c, 0, 77, 110
2, 6948, Note_off_c, 0, 77, 64
2, 6960, Note_on_c, 0, 75, 110
2, 7104, Note_off_c, 0, 75, 64
2, 7140, Note_on_c, 0, 74, 110
2, 7188, Note_off_c, 0, 74, 64
2, 7200, Note_on_c, 0, 75, 110
2, 7344, Note_off_c, 0, 67, 64
2, 7380, Note_on_c, 0, 70, 110
2, 7428, Note_off_c, 0, 70, 64
2, 7440, Note_on_c, 0, 69, 110
2, 7584, Note_off_c, 0, 69, 64
2, 7620, Note_on_c, 0, 67, 110
2, 7668, Note_off_c, 0, 67, 64
2, 7680, Note_on_c, 0, 65, 110
2, 7824, Note_off_c, 0, 75, 64
2, 7860, Note_on_c, 0, 77, 110
2, 7908, Note_off_c, 0, 77, 64
2, 7920, Note_on_c, 0, 75, 110
2, 8064, Note_off_c, 0, 75, 64
2, 8100, Note_on_c, 0, 74, 110
2, 8148, Note_off_c, 0, 74, 64
2, 8160, Note_on_c, 0, 75, 110
2, 8304, Note_off_c, 0, 65, 64
2, 8340, Note_on_c, 0, 67, 110
2, 8388, Note_off_c, 0, 67, 64
2, 8400, Note_on_c, 0, 69, 110
2, 8544, Note_off_c, 0, 69, 64
2, 8580, Note_on_c, 0, 70, 110
2, 8628, Note_off_c, 0, 70, 64
2, 8640, Note_on_c, 0, 69, 110
2, 8784, Note_off_c, 0, 75, 64
2, 8820, Note_on_c, 0, 77, 110
2, 8868, Note_off_c, 0, 77, 64
2, 8880, Note_on_c, 0, 75, 110
2, 9024, Note_off_c, 0, 75, 64
2, 9060, Note_on_c, 0, 74, 110
2, 9108, Note_off_c, 0, 74, 64
2, 9120, Note_on_c, 0, 75, 110
2, 9264, Note_off_c, 0, 69, 64
2, 9300, Note_on_c, 0, 69, 110
2, 9348, Note_off_c, 0, 69, 64
2, 9360, Note_on_c, 0, 70, 110
2, 9504, Note_off_c, 0, 70, 64
2, 9540, Note_on_c, 0, 72, 110
2, 9588, Note_off_c, 0, 72, 64
2, 9600, Note_on_c, 0, 65, 110
2, 9744, Note_off_c, 0, 75, 64
2, 9780, Note_on_c, 0, 75, 110
2, 9828, Note_off_c, 0, 75, 64
2, 9840, Note_on_c, 0, 74, 110
2, 9984, Note_off_c, 0, 74, 64
2, 10020, Note_on_c, 0, 72, 110
2, 10068, Note_off_c, 0, 72, 64
2, 10080, Note_on_c, 0, 74, 110
2, 10848, Note_off_c, 0, 65, 64
2, 10944, Note_off_c, 0, 74, 64
2, 10980, Note_on_c, 0, 65, 110
2, 11028, Note_off_c, 0, 65, 64
2, 11040, Note_on_c, 0, 72, 110
2, 11040, Note_on_c, 0, 63, 110
2, 11328, Note_off_c, 0, 63, 64
2, 11460, Note_on_c, 0, 62, 110
2, 11508, Note_off_c, 0, 62, 64
2, 11520, Note_on_c, 0, 60, 110
2, 11664, Note_off_c, 0, 72, 64
2, 11700, Note_on_c, 0, 72, 110
2, 11712, Note_off_c, 0, 60, 64
2, 11748, Note_off_c, 0, 72, 64
2, 11760, Note_on_c, 0, 74, 110
2, 11904, Note_off_c, 0, 74, 64
2, 11940, Note_on_c, 0, 75, 110
2, 11988, Note_off_c, 0, 75, 64
2, 12000, Note_on_c, 0, 77, 110
2, 12180, Note_on_c, 0, 65, 110
2, 12228, Note_off_c, 0, 65, 64
2, 12240, Note_on_c, 0, 67, 110
2, 12384, Note_off_c, 0, 67, 64
2, 12420, Note_on_c, 0, 69, 110
2, 12468, Note_off_c, 0, 69, 64
2, 12480, Note_on_c, 0, 70, 110
2, 12660, Note_on_c, 0, 62, 110
2, 12708, Note_off_c, 0, 62, 64
2, 12720, Note_on_c, 0, 63, 110
2, 12864, Note_off_c, 0, 63, 64
2, 12864, Note_off_c, 0, 77, 64
2, 12900, Note_on_c, 0, 65, 110
2, 12948, Note_off_c, 0, 65, 64
2, 12960, Note_on_c, 0, 67, 110
2, 12960, Note_on_c, 0, 75, 110
2, 13104, Note_off_c, 0, 70, 64
2, 13140, Note_on_c, 0, 70, 110
2, 13188, Note_off_c, 0, 70, 64
2, 13200, Note_on_c, 0, 72, 110
2, 13344, Note_off_c, 0, 72, 64
2, 13344, Note_off_c, 0, 67, 64
2, 13380, Note_on_c, 0, 74, 110
2, 13428, Note_off_c, 0, 74, 64
2, 13440, Note_on_c, 0, 72, 110
2, 13620, Note_on_c, 0, 65, 110
2, 13668, Note_off_c, 0, 65, 64
2, 13680, Note_on_c, 0, 67, 110
2, 13824, Note_off_c, 0, 67, 64
2, 13824, Note_off_c, 0, 75, 64
2, 13824, Note_off_c, 0, 72, 64
2, 13860, Note_on_c, 0, 69, 110
2, 13908, Note_off_c, 0, 69, 64
2, 13920, Note_on_c, 0, 70, 110
2, 14100, Note_on_c, 0, 72, 110
2, 14148, Note_off_c, 0, 72, 64
2, 14160, Note_on_c, 0, 74, 110
2, 14304, Note_off_c, 0, 74, 64
2, 14340, Note_on_c, 0, 75, 110
2, 14388, Note_off_c, 0, 75, 64
2, 14400, Note_on_c, 0, 72, 110
2, 14580, Note_on_c, 0, 74, 110
2, 14628, Note_off_c, 0, 74, 64
2, 14640, Note_on_c, 0, 75, 110
2, 14784, Note_off_c, 0, 75, 64
2, 14784, Note_off_c, 0, 70, 64
2, 14820, Note_on_c, 0, 79, 110
2, 14868, Note_off_c, 0, 79, 64
2, 14880, Note_on_c, 0, 77, 110
2, 14880, Note_on_c, 0, 69, 110
2, 15024, Note_off_c, 0, 77, 64
2, 15060, Note_on_c, 0, 75, 110
2, 15108, Note_off_c, 0, 75, 64
2, 15120, Note_on_c, 0, 74, 110
2, 15168, Note_off_c, 0, 72, 64
2, 15264, Note_off_c, 0, 74, 64
2, 15264, Note_off_c, 0, 69, 64
2, 15300, Note_on_c, 0, 75, 110
2, 15348, Note_off_c, 0, 75, 64
2, 15360, Note_on_c, 0, 65, 110
2, 15360, Note_on_c, 0, 74, 110
2, 15360, Note_on_c, 0, 70, 110
2, 15744, Note_off_c, 0, 70, 64
2, 15744, Note_off_c, 0, 74, 64
2, 15744, Note_off_c, 0, 65, 64
2, 16200, Note_on_c, 0, 65, 110
2, 16200, Note_on_c, 0, 74, 110
2, 16200, Note_on_c, 0, 77, 110
2, 16296, Note_off_c, 0, 74, 64
2, 16296, Note_off_c, 0, 65, 64
2, 16320, Note_on_c, 0, 65, 110
2, 16320, Note_on_c, 0, 74, 110
2, 16704, Note_off_c, 0, 65, 64
2, 16800, Note_on_c, 0, 67, 110
2, 17088, Note_off_c, 0, 74, 64
2, 17220, Note_on_c, 0, 72, 110
2, 17268, Note_off_c, 0, 72, 64
2, 17280, Note_on_c, 0, 71, 110
2, 17664, Note_off_c, 0, 71, 64
2, 17664, Note_off_c, 0, 67, 64
2, 17664, Note_off_c, 0, 77, 64
2, 18120, Note_on_c, 0, 67, 110
2, 18120, Note_on_c, 0, 62, 110
2, 18120, Note_on_c, 0, 74, 110
2, 18216, Note_off_c, 0, 62, 64
2, 18216, Note_off_c, 0, 67, 64
2, 18240, Note_on_c, 0, 67, 110
2, 18624, Note_off_c, 0, 74, 64
2, 18720, Note_on_c, 0, 72, 110
2, 19008, Note_off_c, 0, 67, 64
2, 19200, Note_on_c, 0, 68, 110
2, 19344, Note_off_c, 0, 68, 64
2, 19380, Note_on_c, 0, 70, 110
2, 19428, Note_off_c, 0, 70, 64
2, 19440, Note_on_c, 0, 68, 110
2, 19584, Note_off_c, 0, 68, 64
2, 19584, Note_off_c, 0, 72, 64
2, 19620, Note_on_c, 0, 67, 110
2, 19668, Note_off_c, 0, 67, 64
2, 19680, Note_on_c, 0, 70, 110
2, 19680, Note_on_c, 0, 68, 110
2, 19824, Note_off_c, 0, 68, 64
2, 19860, Note_on_c, 0, 65, 110
2, 19908, Note_off_c, 0, 65, 64
2, 19920, Note_on_c, 0, 63, 110
2, 20064, Note_off_c, 0, 63, 64
2, 20100, Note_on_c, 0, 62, 110
2, 20148, Note_off_c, 0, 62, 64
2, 20160, Note_on_c, 0, 67, 110
2, 21408, Note_off_c, 0, 70, 64
2, 21408, Note_off_c, 0, 67, 64
2, 21540, Note_on_c, 0, 67, 110
2, 21540, Note_on_c, 0, 70, 105
2, 21588, Note_off_c, 0, 70, 64
2, 21588, Note_off_c, 0, 67, 64
2, 21600, Note_on_c, 0, 65, 110
2, 21600, Note_on_c, 0, 68, 110
2, 21888, Note_off_c, 0, 68, 64
2, 21888, Note_off_c, 0, 65, 64
2, 22020, Note_on_c, 0, 63, 110
2, 22020, Note_on_c, 0, 67, 110
2, 22068, Note_off_c, 0, 67, 64
2, 22068, Note_off_c, 0, 63, 64
2, 22080, Note_on_c, 0, 67, 110
2, 22080, Note_on_c, 0, 63, 110
2, 22464, Note_off_c, 0, 63, 64
2, 22464, Note_off_c, 0, 67, 64
2, 22560, Note_on_c, 0, 62, 110
2, 22560, Note_on_c, 0, 65, 110
2, 22848, Note_off_c, 0, 65, 64
2, 22944, Note_off_c, 0, 62, 64
2, 22980, Note_on_c, 0, 67, 110
2, 23028, Note_off_c, 0, 67, 64
2, 23040, Note_on_c, 0, 68, 110
2, 23184, Note_off_c, 0, 68, 64
2, 23220, Note_on_c, 0, 70, 110
2, 23268, Note_off_c, 0, 70, 64
2, 23280, Note_on_c, 0, 68, 110
2, 23424, Note_off_c, 0, 68, 64
2, 23460, Note_on_c, 0, 67, 110
2, 23508, Note_off_c, 0, 67, 64
2, 23520, Note_on_c, 0, 68, 110
2, 23664, Note_off_c, 0, 68, 64
2, 23700, Note_on_c, 0, 77, 110
2, 23748, Note_off_c, 0, 77, 64
2, 23760, Note_on_c, 0, 70, 110
2, 23904, Note_off_c, 0, 70, 64
2, 23940, Note_on_c, 0, 68, 110
2, 23988, Note_off_c, 0, 68, 64
2, 24000, Note_on_c, 0, 67, 110
2, 24144, Note_off_c, 0, 67, 64
2, 24180, Note_on_c, 0, 68, 110
2, 24228, Note_off_c, 0, 68, 64
2, 24240, Note_on_c, 0, 67, 110
2, 24384, Note_off_c, 0, 67, 64
2, 24420, Note_on_c, 0, 65, 110
2, 24468, Note_off_c, 0, 65, 64
2, 24480, Note_on_c, 0, 67, 110
2, 24624, Note_off_c, 0, 67, 64
2, 24660, Note_on_c, 0, 75, 110
2, 24708, Note_off_c, 0, 75, 64
2, 24720, Note_on_c, 0, 67, 110
2, 24864, Note_off_c, 0, 67, 64
2, 24900, Note_on_c, 0, 65, 110
2, 24948, Note_off_c, 0, 65, 64
2, 24960, Note_on_c, 0, 63, 110
2, 25104, Note_off_c, 0, 63, 64
2, 25140, Note_on_c, 0, 65, 110
2, 25188, Note_off_c, 0, 65, 64
2, 25200, Note_on_c, 0, 63, 110
2, 25344, Note_off_c, 0, 63, 64
2, 25380, Note_on_c, 0, 62, 110
2, 25428, Note_off_c, 0, 62, 64
2, 25440, Note_on_c, 0, 63, 110
2, 25584, Note_off_c, 0, 63, 64
2, 25620, Note_on_c, 0, 72, 110
2, 25668, Note_off_c, 0, 72, 64
2, 25680, Note_on_c, 0, 65, 110
2, 25824, Note_off_c, 0, 65, 64
2, 25860, Note_on_c, 0, 63, 110
2, 25908, Note_off_c, 0, 63, 64
2, 25920, Note_on_c, 0, 62, 110
2, 26064, Note_off_c, 0, 62, 64
2, 26100, Note_on_c, 0, 63, 110
2, 26148, Note_off_c, 0, 63, 64
2, 26160, Note_on_c, 0, 62, 110
2, 26304, Note_off_c, 0, 62, 64
2, 26340, Note_on_c, 0, 60, 110
2, 26388, Note_off_c, 0, 60, 64
2, 26400, Note_on_c, 0, 62, 110
2, 26544, Note_off_c, 0, 62, 64
2, 26580, Note_on_c, 0, 58, 110
2, 26628, Note_off_c, 0, 58, 64
2, 26640, Note_on_c, 0, 62, 110
2, 26784, Note_off_c, 0, 62, 64
2, 26820, Note_on_c, 0, 65, 110
2, 26868, Note_off_c, 0, 65, 64
2, 26880, Note_on_c, 0, 70, 110
2, 27024, Note_off_c, 0, 70, 64
2, 27060, Note_on_c, 0, 72, 110
2, 27108, Note_off_c, 0, 72, 64
2, 27120, Note_on_c, 0, 70, 110
2, 27264, Note_off_c, 0, 70, 64
2, 27300, Note_on_c, 0, 68, 110
2, 27348, Note_off_c, 0, 68, 64
2, 27360, Note_on_c, 0, 70, 110
2, 27473, Note_off_c, 0, 70, 64
2, 27540, Note_on_c, 0, 63, 110
2, 27588, Note_off_c, 0, 63, 64
2, 27600, Note_on_c, 0, 67, 110
2, 27744, Note_off_c, 0, 67, 64
2, 27780, Note_on_c, 0, 70, 110
2, 27828, Note_off_c, 0, 70, 64
2, 27840, Note_on_c, 0, 75, 110
2, 28020, Note_on_c, 0, 60, 110
2, 28068, Note_off_c, 0, 60, 64
2, 28080, Note_on_c, 0, 62, 110
2, 28137, Note_off_c, 0, 75, 64
2, 28140, Note_on_c, 0, 74, 110
2, 28197, Note_off_c, 0, 74, 64
2, 28200, Note_on_c, 0, 72, 110
2, 28224, Note_off_c, 0, 62, 64
2, 28257, Note_off_c, 0, 72, 64
2, 28260, Note_on_c, 0, 63, 110
2, 28260, Note_on_c, 0, 70, 110
2, 28308, Note_off_c, 0, 63, 64
2, 28317, Note_off_c, 0, 70, 64
2, 28320, Note_on_c, 0, 68, 110
2, 28320, Note_on_c, 0, 65, 110
2, 28464, Note_off_c, 0, 68, 64
2, 28500, Note_on_c, 0, 77, 110
2, 28548, Note_off_c, 0, 77, 64
2, 28560, Note_on_c, 0, 70, 110
2, 28704, Note_off_c, 0, 70, 64
2, 28740, Note_on_c, 0, 68, 110
2, 28788, Note_off_c, 0, 68, 64
2, 28800, Note_on_c, 0, 67, 110
2, 28944, Note_off_c, 0, 67, 64
2, 28980, Note_on_c, 0, 68, 110
2, 28992, Note_off_c, 0, 65, 64
2, 29028, Note_off_c, 0, 68, 64
2, 29040, Note_on_c, 0, 70, 110
2, 29040, Note_on_c, 0, 63, 110
2, 29184, Note_off_c, 0, 70, 64
2, 29220, Note_on_c, 0, 63, 110
2, 29232, Note_off_c, 0, 63, 64
2, 29268, Note_off_c, 0, 63, 64
2, 29280, Note_on_c, 0, 60, 110
2, 29280, Note_on_c, 0, 67, 110
2, 29424, Note_off_c, 0, 67, 64
2, 29460, Note_on_c, 0, 65, 110
2, 29472, Note_off_c, 0, 60, 64
2, 29508, Note_off_c, 0, 65, 64
2, 29520, Note_on_c, 0, 63, 110
2, 29520, Note_on_c, 0, 58, 110
2, 29664, Note_off_c, 0, 63, 64
2, 29700, Note_on_c, 0, 62, 110
2, 29712, Note_off_c, 0, 58, 64
2, 29748, Note_off_c, 0, 62, 64
2, 29760, Note_on_c, 0, 62, 110
2, 29760, Note_on_c, 0, 58, 110
2, 30144, Note_off_c, 0, 62, 64
2, 30240, Note_on_c, 0, 63, 110
2, 30528, Note_off_c, 0, 63, 64
2, 30528, Note_off_c, 0, 58, 64
2, 30540, Note_on_c, 0, 67, 110
2, 30588, Note_off_c, 0, 67, 64
2, 30600, Note_on_c, 0, 65, 110
2, 30648, Note_off_c, 0, 65, 64
2, 30660, Note_on_c, 0, 63, 110
2, 30708, Note_off_c, 0, 63, 64
2, 30720, Note_on_c, 0, 70, 110
2, 30900, Note_off_c, 0, 70, 64
2, 30960, Note_on_c, 0, 72, 110
2, 30960, Note_on_c, 0, 63, 110
2, 31140, Note_off_c, 0, 63, 64
2, 31140, Note_off_c, 0, 72, 64
2, 31200, Note_on_c, 0, 68, 110
2, 31200, Note_on_c, 0, 62, 110
2, 31380, Note_off_c, 0, 62, 64
2, 31392, Note_off_c, 0, 68, 64
2, 31440, Note_on_c, 0, 67, 110
2, 31440, Note_on_c, 0, 63, 110
2, 31620, Note_off_c, 0, 63, 64
2, 31620, Note_off_c, 0, 67, 64
2, 32400, Note_on_c, 0, 68, 76
2, 32448, Note_off_c, 0, 68, 64
2, 32460, Note_on_c, 0, 67, 76
2, 32508, Note_off_c, 0, 67, 64
2, 32520, Note_on_c, 0, 65, 76
2, 32568, Note_off_c, 0, 65, 64
2, 32580, Note_on_c, 0, 63, 76
2, 32628, Note_off_c, 0, 63, 64
2, 32640, Note_on_c, 0, 70, 76
2, 32820, Note_off_c, 0, 70, 64
2, 32880, Note_on_c, 0, 63, 76
2, 32880, Note_on_c, 0, 72, 76
2, 33060, Note_off_c, 0, 72, 64
2, 33060, Note_off_c, 0, 63, 64
2, 33120, Note_on_c, 0, 68, 76
2, 33120, Note_on_c, 0, 62, 76
2, 33300, Note_off_c, 0, 62, 64
2, 33312, Note_off_c, 0, 68, 64
2, 33360, Note_on_c, 0, 63, 76
2, 33360, Note_on_c, 0, 67, 76
2, 33540, Note_off_c, 0, 67, 64
2, 33540, Note_off_c, 0, 63, 64
2, 34320, Note_on_c, 0, 75, 76
2, 34368, Note_off_c, 0, 75, 64
2, 34380, Note_on_c, 0, 74, 110
2, 34428, Note_off_c, 0, 74, 64
2, 34440, Note_on_c, 0, 72, 110
2, 34488, Note_off_c, 0, 72, 64
2, 34500, Note_on_c, 0, 70, 110
2, 34548, Note_off_c, 0, 70, 64
2, 34560, Note_on_c, 0, 77, 110
2, 34752, Note_off_c, 0, 77, 64
2, 34800, Note_on_c, 0, 70, 110
2, 34800, Note_on_c, 0, 79, 110
2, 34980, Note_off_c, 0, 79, 64
2, 34980, Note_off_c, 0, 70, 64
2, 35040, Note_on_c, 0, 69, 110
2, 35040, Note_on_c, 0, 75, 110
2, 35220, Note_off_c, 0, 69, 64
2, 35232, Note_off_c, 0, 75, 64
2, 35280, Note_on_c, 0, 74, 110
2, 35280, Note_on_c, 0, 70, 110
2, 35460, Note_off_c, 0, 70, 64
2, 35460, Note_off_c, 0, 74, 64
2, 35520, Note_on_c, 0, 63, 110
2, 35712, Note_off_c, 0, 63, 64
2, 35760, Note_on_c, 0, 62, 110
2, 35940, Note_off_c, 0, 62, 64
2, 36240, Note_on_c, 0, 75, 76
2, 36288, Note_off_c, 0, 75, 64
2, 36300, Note_on_c, 0, 74, 76
2, 36348, Note_off_c, 0, 74, 64
2, 36360, Note_on_c, 0, 72, 76
2, 36408, Note_off_c, 0, 72, 64
2, 36420, Note_on_c, 0, 70, 76
2, 36468, Note_off_c, 0, 70, 64
2, 36480, Note_on_c, 0, 77, 76
2, 36660, Note_off_c, 0, 77, 64
2, 36720, Note_on_c, 0, 79, 76
2, 36720, Note_on_c, 0, 70, 76
2, 36900, Note_off_c, 0, 70, 64
2, 36900, Note_off_c, 0, 79, 64
2, 36960, Note_on_c, 0, 75, 76
2, 36960, Note_on_c, 0, 69, 76
2, 37140, Note_off_c, 0, 69, 64
2, 37152, Note_off_c, 0, 75, 64
2, 37200, Note_on_c, 0, 74, 76
2, 37200, Note_on_c, 0, 70, 76
2, 37380, Note_off_c, 0, 70, 64
2, 37380, Note_off_c, 0, 74, 64
2, 37440, Note_on_c, 0, 63, 76
2, 37620, Note_off_c, 0, 63, 64
2, 37680, Note_on_c, 0, 62, 76
2, 37860, Note_off_c, 0, 62, 64
2, 38160, Note_on_c, 0, 62, 96
2, 38280, Note_on_c, 0, 74, 96
2, 38352, Note_off_c, 0, 62, 64
2, 38400, Note_on_c, 0, 67, 96
2, 38496, Note_off_c, 0, 74, 64
2, 38520, Note_on_c, 0, 71, 96
2, 38592, Note_off_c, 0, 67, 64
2, 38640, Note_on_c, 0, 65, 96
2, 38712, Note_off_c, 0, 71, 64
2, 38760, Note_on_c, 0, 72, 96
2, 38832, Note_off_c, 0, 65, 64
2, 38880, Note_on_c, 0, 67, 96
2, 38928, Note_off_c, 0, 72, 64
2, 38940, Note_on_c, 0, 75, 96
2, 38988, Note_off_c, 0, 75, 64
2, 39000, Note_on_c, 0, 77, 96
2, 39048, Note_off_c, 0, 77, 64
2, 39060, Note_on_c, 0, 79, 96
2, 39072, Note_off_c, 0, 67, 64
2, 39108, Note_off_c, 0, 79, 64
2, 39120, Note_on_c, 0, 77, 96
2, 39168, Note_off_c, 0, 77, 64
2, 39180, Note_on_c, 0, 75, 96
2, 39228, Note_off_c, 0, 75, 64
2, 39240, Note_on_c, 0, 74, 96
2, 39288, Note_off_c, 0, 74, 64
2, 39300, Note_on_c, 0, 72, 96
2, 39360, Note_on_c, 0, 65, 96
2, 39456, Note_off_c, 0, 72, 64
2, 39480, Note_on_c, 0, 69, 96
2, 39552, Note_off_c, 0, 65, 64
2, 39600, Note_on_c, 0, 63, 96
2, 39672, Note_off_c, 0, 69, 64
2, 39720, Note_on_c, 0, 70, 96
2, 39792, Note_off_c, 0, 63, 64
2, 39840, Note_on_c, 0, 65, 96
2, 39888, Note_off_c, 0, 70, 64
2, 39900, Note_on_c, 0, 74, 96
2, 39948, Note_off_c, 0, 74, 64
2, 39960, Note_on_c, 0, 75, 96
2, 40008, Note_off_c, 0, 75, 64
2, 40020, Note_on_c, 0, 77, 96
2, 40032, Note_off_c, 0, 65, 64
2, 40068, Note_off_c, 0, 77, 64
2, 40080, Note_on_c, 0, 75, 96
2, 40128, Note_off_c, 0, 75, 64
2, 40140, Note_on_c, 0, 74, 96
2, 40188, Note_off_c, 0, 74, 64
2, 40200, Note_on_c, 0, 72, 96
2, 40248, Note_off_c, 0, 72, 64
2, 40260, Note_on_c, 0, 70, 96
2, 40320, Note_on_c, 0, 63, 96
2, 40416, Note_off_c, 0, 70, 64
2, 40440, Note_on_c, 0, 67, 96
2, 40512, Note_off_c, 0, 63, 64
2, 40560, Note_on_c, 0, 62, 96
2, 40632, Note_off_c, 0, 67, 64
2, 40680, Note_on_c, 0, 69, 96
2, 40752, Note_off_c, 0, 62, 64
2, 40800, Note_on_c, 0, 63, 96
2, 40848, Note_off_c, 0, 69, 64
2, 40860, Note_on_c, 0, 70, 96
2, 40908, Note_off_c, 0, 70, 64
2, 40920, Note_on_c, 0, 72, 96
2, 40968, Note_off_c, 0, 72, 64
2, 40980, Note_on_c, 0, 74, 96
2, 40992, Note_off_c, 0, 63, 64
2, 41028, Note_off_c, 0, 74, 64
2, 41040, Note_on_c, 0, 72, 96
2, 41088, Note_off_c, 0, 72, 64
2, 41100, Note_on_c, 0, 70, 96
2, 41148, Note_off_c, 0, 70, 64
2, 41160, Note_on_c, 0, 69, 96
2, 41208, Note_off_c, 0, 69, 64
2, 41220, Note_on_c, 0, 67, 96
2, 41280, Note_on_c, 0, 60, 96
2, 41376, Note_off_c, 0, 67, 64
2, 41400, Note_on_c, 0, 64, 96
2, 41472, Note_off_c, 0, 60, 64
2, 41520, Note_on_c, 0, 58, 96
2, 41592, Note_off_c, 0, 64, 64
2, 41640, Note_on_c, 0, 65, 96
2, 41712, Note_off_c, 0, 58, 64
2, 41760, Note_on_c, 0, 60, 96
2, 41856, Note_off_c, 0, 65, 64
2, 41880, Note_on_c, 0, 75, 96
2, 41952, Note_off_c, 0, 60, 64
2, 42000, Note_on_c, 0, 57, 96
2, 42072, Note_off_c, 0, 75, 64
2, 42120, Note_on_c, 0, 73, 96
2, 42192, Note_off_c, 0, 57, 64
2, 42240, Note_on_c, 0, 58, 96
2, 42288, Note_off_c, 0, 73, 64
2, 42300, Note_on_c, 0, 70, 96
2, 42348, Note_off_c, 0, 70, 64
2, 42360, Note_on_c, 0, 69, 96
2, 42408, Note_off_c, 0, 69, 64
2, 42420, Note_on_c, 0, 70, 96
2, 42432, Note_off_c, 0, 58, 64
2, 42468, Note_off_c, 0, 70, 64
2, 42480, Note_on_c, 0, 70, 96
2, 42510, Note_off_c, 0, 70, 64
2, 42600, Note_on_c, 0, 77, 96
2, 42816, Note_off_c, 0, 77, 64
2, 42840, Note_on_c, 0, 76, 96
2, 42888, Note_off_c, 0, 76, 64
2, 42900, Note_on_c, 0, 77, 96
2, 42948, Note_off_c, 0, 77, 64
2, 42960, Note_on_c, 0, 78, 96
2, 42960, Note_on_c, 0, 58, 96
2, 43008, Note_off_c, 0, 78, 64
2, 43020, Note_on_c, 0, 77, 96
2, 43068, Note_off_c, 0, 77, 64
2, 43080, Note_on_c, 0, 75, 96
2, 43128, Note_off_c, 0, 75, 64
2, 43140, Note_on_c, 0, 77, 96
2, 43188, Note_off_c, 0, 77, 64
2, 43200, Note_off_c, 0, 58, 64
2, 43200, Note_on_c, 0, 70, 96
2, 43200, Note_on_c, 0, 60, 96
2, 43296, Note_off_c, 0, 70, 64
2, 43320, Note_on_c, 0, 69, 96
2, 43392, Note_off_c, 0, 60, 64
2, 43488, Note_off_c, 0, 69, 64
2, 43500, Note_on_c, 0, 70, 96
2, 43548, Note_off_c, 0, 70, 64
2, 43560, Note_on_c, 0, 72, 96
2, 43608, Note_off_c, 0, 72, 64
2, 43620, Note_on_c, 0, 69, 96
2, 43668, Note_off_c, 0, 69, 64
2, 43680, Note_on_c, 0, 65, 96
2, 43776, Note_off_c, 0, 65, 64
2, 43800, Note_on_c, 0, 75, 96
2, 43920, Note_on_c, 0, 65, 96
2, 43992, Note_off_c, 0, 75, 64
2, 44040, Note_on_c, 0, 73, 96
2, 44112, Note_off_c, 0, 65, 64
2, 44160, Note_on_c, 0, 65, 96
2, 44208, Note_off_c, 0, 73, 64
2, 44220, Note_on_c, 0, 70, 96
2, 44268, Note_off_c, 0, 70, 64
2, 44280, Note_on_c, 0, 69, 96
2, 44328, Note_off_c, 0, 69, 64
2, 44340, Note_on_c, 0, 70, 96
2, 44352, Note_off_c, 0, 65, 64
2, 44388, Note_off_c, 0, 70, 64
2, 44400, Note_on_c, 0, 70, 96
2, 44496, Note_off_c, 0, 70, 64
2, 44520, Note_on_c, 0, 77, 96
2, 44736, Note_off_c, 0, 77, 64
2, 44760, Note_on_c, 0, 76, 96
2, 44808, Note_off_c, 0, 76, 64
2, 44820, Note_on_c, 0, 77, 96
2, 44868, Note_off_c, 0, 77, 64
2, 44880, Note_on_c, 0, 78, 96
2, 44880, Note_on_c, 0, 61, 96
2, 44928, Note_off_c, 0, 78, 64
2, 44940, Note_on_c, 0, 77, 96
2, 44988, Note_off_c, 0, 77, 64
2, 45000, Note_on_c, 0, 76, 96
2, 45048, Note_off_c, 0, 76, 64
2, 45060, Note_on_c, 0, 77, 96
2, 45072, Note_off_c, 0, 61, 64
2, 45108, Note_off_c, 0, 77, 64
2, 45120, Note_on_c, 0, 70, 96
2, 45120, Note_on_c, 0, 63, 96
2, 45216, Note_off_c, 0, 70, 64
2, 45240, Note_on_c, 0, 69, 96
2, 45312, Note_off_c, 0, 63, 64
2, 45360, Note_on_c, 0, 61, 96
2, 45408, Note_off_c, 0, 69, 64
2, 45420, Note_on_c, 0, 70, 96
2, 45468, Note_off_c, 0, 70, 64
2, 45480, Note_on_c, 0, 72, 96
2, 45528, Note_off_c, 0, 72, 64
2, 45540, Note_on_c, 0, 69, 96
2, 45552, Note_off_c, 0, 61, 64
2, 45588, Note_off_c, 0, 69, 64
2, 45600, Note_on_c, 0, 65, 96
2, 45600, Note_on_c, 0, 60, 96
2, 45696, Note_off_c, 0, 65, 64
2, 45720, Note_on_c, 0, 75, 96
2, 45792, Note_off_c, 0, 60, 64
2, 45840, Note_on_c, 0, 57, 96
2, 45912, Note_off_c, 0, 75, 64
2, 45960, Note_on_c, 0, 73, 96
2, 46032, Note_off_c, 0, 57, 64
2, 46080, Note_on_c, 0, 65, 96
2, 46176, Note_off_c, 0, 73, 64
2, 46200, Note_on_c, 0, 72, 96
2, 46248, Note_off_c, 0, 72, 64
2, 46260, Note_on_c, 0, 70, 96
2, 46272, Note_off_c, 0, 65, 64
2, 46308, Note_off_c, 0, 70, 64
2, 46320, Note_on_c, 0, 72, 96
2, 46320, Note_on_c, 0, 63, 96
2, 46416, Note_off_c, 0, 72, 64
2, 46440, Note_on_c, 0, 67, 96
2, 46512, Note_off_c, 0, 63, 64
2, 46536, Note_off_c, 0, 67, 64
2, 46560, Note_on_c, 0, 70, 96
2, 46560, Note_on_c, 0, 61, 96
2, 46752, Note_off_c, 0, 61, 64
2, 46752, Note_off_c, 0, 70, 64
2, 46800, Note_on_c, 0, 60, 96
2, 46800, Note_on_c, 0, 69, 96
2, 46944, Note_off_c, 0, 69, 64
2, 46980, Note_on_c, 0, 70, 96
2, 46992, Note_off_c, 0, 60, 64
2, 47028, Note_off_c, 0, 70, 64
2, 47040, Note_on_c, 0, 70, 96
2, 47220, Note_on_c, 0, 67, 96
2, 47268, Note_off_c, 0, 67, 64
2, 47280, Note_on_c, 0, 65, 96
2, 47424, Note_off_c, 0, 65, 64
2, 47460, Note_on_c, 0, 63, 96
2, 47508, Note_off_c, 0, 63, 64
2, 47520, Note_on_c, 0, 65, 96
2, 47664, Note_off_c, 0, 65, 64
2, 47700, Note_on_c, 0, 63, 96
2, 47748, Note_off_c, 0, 63, 64
2, 47760, Note_on_c, 0, 62, 96
2, 47904, Note_off_c, 0, 62, 64
2, 47940, Note_on_c, 0, 60, 96
2, 47988, Note_off_c, 0, 60, 64
2, 48000, Note_on_c, 0, 58, 96
2, 48384, Note_off_c, 0, 70, 64
2, 48384, Note_off_c, 0, 58, 64
2, 48840, Note_on_c, 0, 62, 96
2, 48936, Note_off_c, 0, 62, 64
2, 48960, Note_on_c, 0, 63, 96
2, 48960, Note_on_c, 0, 79, 96
2, 49104, Note_off_c, 0, 79, 64
2, 49140, Note_on_c, 0, 77, 96
2, 49188, Note_off_c, 0, 77, 64
2, 49200, Note_on_c, 0, 75, 96
2, 49344, Note_off_c, 0, 75, 64
2, 49380, Note_on_c, 0, 74, 96
2, 49428, Note_off_c, 0, 74, 64
2, 49440, Note_on_c, 0, 72, 96
2, 49728, Note_off_c, 0, 72, 64
2, 49860, Note_on_c, 0, 77, 96
2, 49860, Note_on_c, 0, 84, 96
2, 49860, Note_on_c, 0, 72, 96
2, 49908, Note_off_c, 0, 72, 64
2, 49908, Note_off_c, 0, 84, 64
2, 49908, Note_off_c, 0, 77, 64
2, 49920, Note_on_c, 0, 72, 96
2, 49920, Note_on_c, 0, 82, 96
2, 49920, Note_on_c, 0, 77, 96
2, 50304, Note_off_c, 0, 63, 64
2, 50304, Note_off_c, 0, 82, 64
2, 50400, Note_on_c, 0, 81, 96
2, 50688, Note_off_c, 0, 77, 64
2, 50688, Note_off_c, 0, 72, 64
2, 50784, Note_off_c, 0, 81, 64
2, 50880, Note_on_c, 0, 70, 96
2, 50880, Note_on_c, 0, 82, 96
2, 50880, Note_on_c, 0, 77, 96
2, 50976, Note_off_c, 0, 77, 64
2, 50976, Note_off_c, 0, 82, 64
2, 50976, Note_off_c, 0, 70, 64
2, 51000, Note_on_c, 0, 81, 96
2, 51048, Note_off_c, 0, 81, 64
2, 51060, Note_on_c, 0, 79, 96
2, 51108, Note_off_c, 0, 79, 64
2, 51120, Note_on_c, 0, 77, 96
2, 51168, Note_off_c, 0, 77, 64
2, 51180, Note_on_c, 0, 75, 96
2, 51228, Note_off_c, 0, 75, 64
2, 51240, Note_on_c, 0, 74, 96
2, 51288, Note_off_c, 0, 74, 64
2, 51300, Note_on_c, 0, 72, 96
2, 51348, Note_off_c, 0, 72, 64
2, 51360, Note_on_c, 0, 70, 96
2, 51456, Note_off_c, 0, 70, 64
2, 51480, Note_on_c, 0, 69, 96
2, 51528, Note_off_c, 0, 69, 64
2, 51540, Note_on_c, 0, 67, 96
2, 51588, Note_off_c, 0, 67, 64
2, 51600, Note_on_c, 0, 65, 96
2, 51648, Note_off_c, 0, 65, 64
2, 51660, Note_on_c, 0, 63, 96
2, 51708, Note_off_c, 0, 63, 64
2, 51720, Note_on_c, 0, 62, 96
2, 51768, Note_off_c, 0, 62, 64
2, 51780, Note_on_c, 0, 60, 96
2, 51828, Note_off_c, 0, 60, 64
2, 51840, Note_on_c, 0, 58, 96
2, 52032, Note_off_c, 0, 58, 64
2, 52560, Note_on_c, 0, 70, 96
2, 52560, Note_on_c, 0, 74, 96
2, 52560, Note_on_c, 0, 77, 96
2, 52752, Note_off_c, 0, 77, 64
2, 52752, Note_off_c, 0, 74, 64
2, 52752, Note_off_c, 0, 70, 64
2, 52800, Note_on_c, 0, 77, 96
2, 52800, Note_on_c, 0, 70, 96
2, 52800, Note_on_c, 0, 74, 96
2, 52992, Note_off_c, 0, 74, 64
2, 52992, Note_off_c, 0, 70, 64
2, 52992, Note_off_c, 0, 77, 64
2, 53040, Note_on_c, 0, 75, 96
2, 53040, Note_on_c, 0, 67, 96
2, 53040, Note_on_c, 0, 70, 96
2, 53232, Note_off_c, 0, 70, 64
2, 53232, Note_off_c, 0, 67, 64
2, 53232, Note_off_c, 0, 75, 64
2, 53340, Note_on_c, 0, 75, 96
2, 53388, Note_off_c, 0, 75, 64
2, 53400, Note_on_c, 0, 74, 96
2, 53448, Note_off_c, 0, 74, 64
2, 53460, Note_on_c, 0, 72, 96
2, 53508, Note_off_c, 0, 72, 64
2, 53520, Note_on_c, 0, 70, 96
2, 53568, Note_off_c, 0, 70, 64
2, 53580, Note_on_c, 0, 68, 96
2, 53628, Note_off_c, 0, 68, 64
2, 53640, Note_on_c, 0, 67, 96
2, 53688, Note_off_c, 0, 67, 64
2, 53700, Note_on_c, 0, 65, 96
2, 53748, Note_off_c, 0, 65, 64
2, 53760, Note_on_c, 0, 63, 96
2, 53952, Note_off_c, 0, 63, 64
2, 54480, Note_on_c, 0, 79, 96
2, 54480, Note_on_c, 0, 82, 96
2, 54480, Note_on_c, 0, 75, 96
2, 54672, Note_off_c, 0, 75, 64
2, 54672, Note_off_c, 0, 82, 64
2, 54672, Note_off_c, 0, 79, 64
2, 54720, Note_on_c, 0, 79, 96
2, 54720, Note_on_c, 0, 75, 96
2, 54720, Note_on_c, 0, 82, 96
2, 54912, Note_off_c, 0, 82, 64
2, 54912, Note_off_c, 0, 75, 64
2, 54912, Note_off_c, 0, 79, 64
2, 54960, Note_on_c, 0, 75, 96
2, 54960, Note_on_c, 0, 72, 96
2, 54960, Note_on_c, 0, 80, 96
2, 55152, Note_off_c, 0, 80, 64
2, 55152, Note_off_c, 0, 72, 64
2, 55152, Note_off_c, 0, 75, 64
2, 55440, Note_on_c, 0, 63, 96
2, 55440, Note_on_c, 0, 75, 96
2, 55440, Note_on_c, 0, 70, 96
2, 55632, Note_off_c, 0, 70, 64
2, 55632, Note_off_c, 0, 63, 64
2, 55680, Note_on_c, 0, 68, 96
2, 55680, Note_on_c, 0, 65, 96
2, 55824, Note_off_c, 0, 68, 64
2, 55860, Note_on_c, 0, 70, 96
2, 55908, Note_off_c, 0, 70, 64
2, 55920, Note_on_c, 0, 68, 96
2, 55968, Note_off_c, 0, 75, 64
2, 56064, Note_off_c, 0, 68, 64
2, 56064, Note_off_c, 0, 65, 64
2, 56100, Note_on_c, 0, 67, 96
2, 56100, Note_on_c, 0, 75, 96
2, 56148, Note_off_c, 0, 75, 64
2, 56148, Note_off_c, 0, 67, 64
2, 56160, Note_on_c, 0, 74, 96
2, 56160, Note_on_c, 0, 68, 96
2, 56304, Note_off_c, 0, 68, 64
2, 56340, Note_on_c, 0, 65, 96
2, 56388, Note_off_c, 0, 65, 64
2, 56400, Note_on_c, 0, 63, 96
2, 56544, Note_off_c, 0, 63, 64
2, 56580, Note_on_c, 0, 62, 96
2, 56628, Note_off_c, 0, 62, 64
2, 56640, Note_on_c, 0, 67, 96
2, 56784, Note_off_c, 0, 67, 64
2, 56820, Note_on_c, 0, 68, 96
2, 56868, Note_off_c, 0, 68, 64
2, 56880, Note_on_c, 0, 67, 96
2, 56928, Note_off_c, 0, 74, 64
2, 57024, Note_off_c, 0, 67, 64
2, 57060, Note_on_c, 0, 74, 96
2, 57060, Note_on_c, 0, 65, 96
2, 57108, Note_off_c, 0, 65, 64
2, 57108, Note_off_c, 0, 74, 64
2, 57120, Note_on_c, 0, 67, 96
2, 57120, Note_on_c, 0, 72, 96
2, 57264, Note_off_c, 0, 67, 64
2, 57300, Note_on_c, 0, 63, 96
2, 57348, Note_off_c, 0, 63, 64
2, 57360, Note_on_c, 0, 62, 96
2, 57504, Note_off_c, 0, 62, 64
2, 57540, Note_on_c, 0, 60, 96
2, 57588, Note_off_c, 0, 60, 64
2, 57600, Note_on_c, 0, 65, 96
2, 57744, Note_off_c, 0, 65, 64
2, 57780, Note_on_c, 0, 67, 96
2, 57828, Note_off_c, 0, 67, 64
2, 57840, Note_on_c, 0, 65, 96
2, 57984, Note_off_c, 0, 65, 64
2, 58020, Note_on_c, 0, 63, 96
2, 58068, Note_off_c, 0, 63, 64
2, 58080, Note_on_c, 0, 65, 96
2, 58224, Note_off_c, 0, 72, 64
2, 58260, Note_on_c, 0, 71, 96
2, 58308, Note_off_c, 0, 71, 64
2, 58320, Note_on_c, 0, 69, 96
2, 58464, Note_off_c, 0, 69, 64
2, 58500, Note_on_c, 0, 67, 96
2, 58548, Note_off_c, 0, 67, 64
2, 58560, Note_on_c, 0, 72, 96
2, 58704, Note_off_c, 0, 65, 64
2, 58740, Note_on_c, 0, 67, 96
2, 58788, Note_off_c, 0, 67, 64
2, 58800, Note_on_c, 0, 65, 96
2, 58944, Note_off_c, 0, 65, 64
2, 58980, Note_on_c, 0, 63, 96
2, 59028, Note_off_c, 0, 63, 64
2, 59040, Note_on_c, 0, 65, 96
2, 59184, Note_off_c, 0, 72, 64
2, 59220, Note_on_c, 0, 75, 96
2, 59268, Note_off_c, 0, 75, 64
2, 59280, Note_on_c, 0, 74, 96
2, 59424, Note_off_c, 0, 74, 64
2, 59460, Note_on_c, 0, 72, 96
2, 59508, Note_off_c, 0, 72, 64
2, 59520, Note_on_c, 0, 74, 96
2, 59664, Note_off_c, 0, 65, 64
2, 59700, Note_on_c, 0, 67, 96
2, 59748, Note_off_c, 0, 67, 64
2, 59760, Note_on_c, 0, 65, 96
2, 59904, Note_off_c, 0, 65, 64
2, 59940, Note_on_c, 0, 63, 96
2, 59988, Note_off_c, 0, 63, 64
2, 60000, Note_on_c, 0, 65, 96
2, 60144, Note_off_c, 0, 74, 64
2, 60180, Note_on_c, 0, 72, 96
2, 60228, Note_off_c, 0, 72, 64
2, 60240, Note_on_c, 0, 71, 96
2, 60384, Note_off_c, 0, 71, 64
2, 60420, Note_on_c, 0, 69, 96
2, 60468, Note_off_c, 0, 69, 64
2, 60480, Note_on_c, 0, 71, 96
2, 60624, Note_off_c, 0, 65, 64
2, 60660, Note_on_c, 0, 67, 96
2, 60708, Note_off_c, 0, 67, 64
2, 60720, Note_on_c, 0, 65, 96
2, 60864, Note_off_c, 0, 65, 64
2, 60900, Note_on_c, 0, 63, 96
2, 60948, Note_off_c, 0, 63, 64
2, 60960, Note_on_c, 0, 65, 96
2, 61104, Note_off_c, 0, 71, 64
2, 61140, Note_on_c, 0, 71, 96
2, 61188, Note_off_c, 0, 71, 64
2, 61200, Note_on_c, 0, 72, 96
2, 61344, Note_off_c, 0, 72, 64
2, 61380, Note_on_c, 0, 74, 96
2, 61428, Note_off_c, 0, 74, 64
2, 61440, Note_on_c, 0, 67, 96
2, 61584, Note_off_c, 0, 65, 64
2, 61620, Note_on_c, 0, 65, 96
2, 61668, Note_off_c, 0, 65, 64
2, 61680, Note_on_c, 0, 63, 96
2, 61824, Note_off_c, 0, 63, 64
2, 61860, Note_on_c, 0, 62, 96
2, 61908, Note_off_c, 0, 62, 64
2, 61920, Note_on_c, 0, 63, 96
2, 62064, Note_off_c, 0, 67, 64
2, 62100, Note_on_c, 0, 67, 96
2, 62148, Note_off_c, 0, 67, 64
2, 62160, Note_on_c, 0, 65, 96
2, 62304, Note_off_c, 0, 65, 64
2, 62340, Note_on_c, 0, 67, 96
2, 62388, Note_off_c, 0, 67, 64
2, 62400, Note_on_c, 0, 69, 96
2, 62784, Note_off_c, 0, 63, 64
2, 62880, Note_on_c, 0, 62, 96
2, 63024, Note_off_c, 0, 69, 64
2, 63060, Note_on_c, 0, 69, 96
2, 63108, Note_off_c, 0, 69, 64
2, 63120, Note_on_c, 0, 67, 96
2, 63264, Note_off_c, 0, 67, 64
2, 63300, Note_on_c, 0, 69, 96
2, 63348, Note_off_c, 0, 69, 64
2, 63360, Note_on_c, 0, 71, 96
2, 63504, Note_off_c, 0, 62, 64
2, 63540, Note_on_c, 0, 62, 96
2, 63588, Note_off_c, 0, 62, 64
2, 63600, Note_on_c, 0, 63, 96
2, 63713, Note_off_c, 0, 63, 64
2, 63780, Note_on_c, 0, 65, 96
2, 63837, Note_off_c, 0, 65, 64
2, 63840, Note_on_c, 0, 67, 96
2, 63984, Note_off_c, 0, 71, 64
2, 64020, Note_on_c, 0, 71, 96
2, 64068, Note_off_c, 0, 71, 64
2, 64080, Note_on_c, 0, 72, 96
2, 64224, Note_off_c, 0, 72, 64
2, 64260, Note_on_c, 0, 74, 96
2, 64308, Note_off_c, 0, 74, 64
2, 64320, Note_on_c, 0, 72, 96
2, 64704, Note_off_c, 0, 67, 64
2, 64800, Note_on_c, 0, 65, 96
2, 64944, Note_off_c, 0, 72, 64
2, 64980, Note_on_c, 0, 72, 96
2, 65028, Note_off_c, 0, 72, 64
2, 65040, Note_on_c, 0, 74, 96
2, 65184, Note_off_c, 0, 74, 64
2, 65220, Note_on_c, 0, 75, 96
2, 65268, Note_off_c, 0, 75, 64
2, 65280, Note_on_c, 0, 74, 96
2, 65664, Note_off_c, 0, 65, 64
2, 65760, Note_on_c, 0, 63, 96
2, 65904, Note_off_c, 0, 74, 64
2, 65940, Note_on_c, 0, 71, 96
2, 65988, Note_off_c, 0, 71, 64
2, 66000, Note_on_c, 0, 72, 96
2, 66144, Note_off_c, 0, 63, 64
2, 66240, Note_on_c, 0, 62, 96
2, 66384, Note_off_c, 0, 62, 64
2, 66420, Note_on_c, 0, 63, 96
2, 66468, Note_off_c, 0, 63, 64
2, 66480, Note_on_c, 0, 65, 96
2, 66624, Note_off_c, 0, 65, 64
2, 66624, Note_off_c, 0, 72, 64
2, 66660, Note_on_c, 0, 68, 96
2, 66708, Note_off_c, 0, 68, 64
2, 66720, Note_on_c, 0, 71, 96
2, 66720, Note_on_c, 0, 67, 96
2, 66864, Note_off_c, 0, 67, 64
2, 66900, Note_on_c, 0, 65, 96
2, 66948, Note_off_c, 0, 65, 64
2, 66960, Note_on_c, 0, 63, 96
2, 67104, Note_off_c, 0, 63, 64
2, 67104, Note_off_c, 0, 71, 64
2, 67140, Note_on_c, 0, 62, 96
2, 67188, Note_off_c, 0, 62, 64
2, 67200, Note_on_c, 0, 63, 96
2, 67200, Note_on_c, 0, 72, 96
2, 67296, Note_off_c, 0, 72, 64
2, 67296, Note_off_c, 0, 63, 64
2, 67320, Note_on_c, 0, 72, 96
2, 67512, Note_off_c, 0, 72, 64
2, 67560, Note_on_c, 0, 72, 96
2, 67728, Note_off_c, 0, 72, 64
2, 67740, Note_on_c, 0, 70, 96
2, 67788, Note_off_c, 0, 70, 64
2, 67800, Note_on_c, 0, 68, 96
2, 67848, Note_off_c, 0, 68, 64
2, 67860, Note_on_c, 0, 67, 96
2, 67908, Note_off_c, 0, 67, 64
2, 67920, Note_on_c, 0, 65, 96
2, 67968, Note_off_c, 0, 65, 64
2, 67980, Note_on_c, 0, 63, 96
2, 68028, Note_off_c, 0, 63, 64
2, 68040, Note_on_c, 0, 62, 96
2, 68088, Note_off_c, 0, 62, 64
2, 68100, Note_on_c, 0, 60, 96
2, 68148, Note_off_c, 0, 60, 64
2, 68160, Note_on_c, 0, 59, 96
2, 68208, Note_off_c, 0, 59, 64
2, 68220, Note_on_c, 0, 62, 96
2, 68268, Note_off_c, 0, 62, 64
2, 68280, Note_on_c, 0, 59, 96
2, 68328, Note_off_c, 0, 59, 64
2, 68340, Note_on_c, 0, 62, 96
2, 68388, Note_off_c, 0, 62, 64
2, 68400, Note_on_c, 0, 60, 96
2, 68448, Note_off_c, 0, 60, 64
2, 68460, Note_on_c, 0, 63, 96
2, 68508, Note_off_c, 0, 63, 64
2, 68520, Note_on_c, 0, 60, 96
2, 68568, Note_off_c, 0, 60, 64
2, 68580, Note_on_c, 0, 63, 96
2, 68628, Note_off_c, 0, 63, 64
2, 68640, Note_on_c, 0, 60, 96
2, 68688, Note_off_c, 0, 60, 64
2, 68700, Note_on_c, 0, 65, 96
2, 68748, Note_off_c, 0, 65, 64
2, 68760, Note_on_c, 0, 60, 96
2, 68808, Note_off_c, 0, 60, 64
2, 68820, Note_on_c, 0, 65, 96
2, 68868, Note_off_c, 0, 65, 64
2, 68880, Note_on_c, 0, 59, 96
2, 68928, Note_off_c, 0, 59, 64
2, 68940, Note_on_c, 0, 65, 96
2, 68988, Note_off_c, 0, 65, 64
2, 69000, Note_on_c, 0, 59, 96
2, 69048, Note_off_c, 0, 59, 64
2, 69060, Note_on_c, 0, 65, 96
2, 69108, Note_off_c, 0, 65, 64
2, 69120, Note_on_c, 0, 63, 96
2, 69240, Note_on_c, 0, 79, 96
2, 69312, Note_off_c, 0, 63, 64
2, 69360, Note_on_c, 0, 62, 96
2, 69432, Note_off_c, 0, 79, 64
2, 69480, Note_on_c, 0, 79, 96
2, 69552, Note_off_c, 0, 62, 64
2, 69600, Note_on_c, 0, 60, 96
2, 69648, Note_off_c, 0, 79, 64
2, 69660, Note_on_c, 0, 77, 96
2, 69708, Note_off_c, 0, 77, 64
2, 69720, Note_on_c, 0, 75, 96
2, 69768, Note_off_c, 0, 75, 64
2, 69780, Note_on_c, 0, 74, 96
2, 69792, Note_off_c, 0, 60, 64
2, 69828, Note_off_c, 0, 74, 64
2, 69840, Note_on_c, 0, 62, 96
2, 69840, Note_on_c, 0, 72, 96
2, 69888, Note_off_c, 0, 72, 64
2, 69900, Note_on_c, 0, 70, 96
2, 69948, Note_off_c, 0, 70, 64
2, 69960, Note_on_c, 0, 69, 96
2, 70008, Note_off_c, 0, 69, 64
2, 70020, Note_on_c, 0, 67, 96
2, 70032, Note_off_c, 0, 62, 64
2, 70068, Note_off_c, 0, 67, 64
2, 70080, Note_on_c, 0, 63, 96
2, 70080, Note_on_c, 0, 66, 96
2, 70128, Note_off_c, 0, 66, 64
2, 70140, Note_on_c, 0, 69, 96
2, 70188, Note_off_c, 0, 69, 64
2, 70200, Note_on_c, 0, 66, 96
2, 70248, Note_off_c, 0, 66, 64
2, 70260, Note_on_c, 0, 69, 96
2, 70272, Note_off_c, 0, 63, 64
2, 70308, Note_off_c, 0, 69, 64
2, 70320, Note_on_c, 0, 62, 96
2, 70320, Note_on_c, 0, 67, 96
2, 70368, Note_off_c, 0, 67, 64
2, 70380, Note_on_c, 0, 70, 96
2, 70428, Note_off_c, 0, 70, 64
2, 70440, Note_on_c, 0, 67, 96
2, 70488, Note_off_c, 0, 67, 64
2, 70500, Note_on_c, 0, 70, 96
2, 70512, Note_off_c, 0, 62, 64
2, 70548, Note_off_c, 0, 70, 64
2, 70560, Note_on_c, 0, 60, 96
2, 70560, Note_on_c, 0, 67, 96
2, 70608, Note_off_c, 0, 67, 64
2, 70620, Note_on_c, 0, 72, 96
2, 70668, Note_off_c, 0, 72, 64
2, 70680, Note_on_c, 0, 67, 96
2, 70728, Note_off_c, 0, 67, 64
2, 70740, Note_on_c, 0, 72, 96
2, 70752, Note_off_c, 0, 60, 64
2, 70788, Note_off_c, 0, 72, 64
2, 70800, Note_on_c, 0, 62, 96
2, 70800, Note_on_c, 0, 66, 96
2, 70848, Note_off_c, 0, 66, 64
2, 70860, Note_on_c, 0, 72, 96
2, 70908, Note_off_c, 0, 72, 64
2, 70920, Note_on_c, 0, 66, 96
2, 70968, Note_off_c, 0, 66, 64
2, 70980, Note_on_c, 0, 72, 96
2, 71028, Note_off_c, 0, 72, 64
2, 71040, Note_on_c, 0, 70, 96
2, 71088, Note_off_c, 0, 70, 64
2, 71100, Note_on_c, 0, 69, 96
2, 71148, Note_off_c, 0, 69, 64
2, 71160, Note_on_c, 0, 67, 96
2, 71208, Note_off_c, 0, 67, 64
2, 71220, Note_on_c, 0, 66, 96
2, 71268, Note_off_c, 0, 66, 64
2, 71280, Note_on_c, 0, 67, 96
2, 71328, Note_off_c, 0, 67, 64
2, 71340, Note_on_c, 0, 70, 96
2, 71388, Note_off_c, 0, 70, 64
2, 71400, Note_on_c, 0, 67, 96
2, 71448, Note_off_c, 0, 67, 64
2, 71460, Note_on_c, 0, 70, 96
2, 71508, Note_off_c, 0, 70, 64
2, 71520, Note_on_c, 0, 75, 96
2, 71568, Note_off_c, 0, 62, 64
2, 71580, Note_on_c, 0, 62, 96
2, 71628, Note_off_c, 0, 62, 64
2, 71640, Note_on_c, 0, 60, 96
2, 71688, Note_off_c, 0, 60, 64
2, 71700, Note_on_c, 0, 59, 96
2, 71748, Note_off_c, 0, 59, 64
2, 71760, Note_on_c, 0, 60, 96
2, 71808, Note_off_c, 0, 60, 64
2, 71820, Note_on_c, 0, 58, 96
2, 71868, Note_off_c, 0, 58, 64
2, 71880, Note_on_c, 0, 57, 96
2, 71928, Note_off_c, 0, 57, 64
2, 71940, Note_on_c, 0, 55, 96
2, 71988, Note_off_c, 0, 55, 64
2, 72000, Note_on_c, 0, 57, 96
2, 72048, Note_off_c, 0, 75, 64
2, 72060, Note_on_c, 0, 70, 96
2, 72108, Note_off_c, 0, 70, 64
2, 72120, Note_on_c, 0, 69, 96
2, 72168, Note_off_c, 0, 69, 64
2, 72180, Note_on_c, 0, 67, 96
2, 72192, Note_off_c, 0, 57, 64
2, 72228, Note_off_c, 0, 67, 64
2, 72240, Note_on_c, 0, 69, 96
2, 72240, Note_on_c, 0, 60, 96
2, 72288, Note_off_c, 0, 69, 64
2, 72300, Note_on_c, 0, 72, 96
2, 72348, Note_off_c, 0, 72, 64
2, 72360, Note_on_c, 0, 69, 96
2, 72408, Note_off_c, 0, 69, 64
2, 72420, Note_on_c, 0, 72, 96
2, 72468, Note_off_c, 0, 72, 64
2, 72480, Note_on_c, 0, 77, 96
2, 72528, Note_off_c, 0, 60, 64
2, 72540, Note_on_c, 0, 63, 96
2, 72588, Note_off_c, 0, 63, 64
2, 72600, Note_on_c, 0, 62, 96
2, 72648, Note_off_c, 0, 62, 64
2, 72660, Note_on_c, 0, 60, 96
2, 72708, Note_off_c, 0, 60, 64
2, 72720, Note_on_c, 0, 62, 96
2, 72768, Note_off_c, 0, 62, 64
2, 72780, Note_on_c, 0, 60, 96
2, 72828, Note_off_c, 0, 60, 64
2, 72840, Note_on_c, 0, 59, 96
2, 72888, Note_off_c, 0, 59, 64
2, 72900, Note_on_c, 0, 57, 96
2, 72948, Note_off_c, 0, 57, 64
2, 72960, Note_on_c, 0, 59, 96
2, 73008, Note_off_c, 0, 77, 64
2, 73020, Note_on_c, 0, 80, 96
2, 73056, Note_off_c, 0, 59, 64
2, 73068, Note_off_c, 0, 80, 64
2, 73080, Note_on_c, 0, 60, 96
2, 73080, Note_on_c, 0, 79, 96
2, 73128, Note_off_c, 0, 79, 64
2, 73140, Note_on_c, 0, 77, 96
2, 73176, Note_off_c, 0, 60, 64
2, 73188, Note_off_c, 0, 77, 64
2, 73200, Note_on_c, 0, 62, 96
2, 73200, Note_on_c, 0, 79, 96
2, 73248, Note_off_c, 0, 79, 64
2, 73260, Note_on_c, 0, 77, 96
2, 73296, Note_off_c, 0, 62, 64
2, 73308, Note_off_c, 0, 77, 64
2, 73320, Note_on_c, 0, 75, 96
2, 73320, Note_on_c, 0, 59, 96
2, 73368, Note_off_c, 0, 75, 64
2, 73380, Note_on_c, 0, 74, 96
2, 73416, Note_off_c, 0, 59, 64
2, 73428, Note_off_c, 0, 74, 64
2, 73440, Note_on_c, 0, 75, 96
2, 73440, Note_on_c, 0, 60, 96
2, 73488, Note_off_c, 0, 60, 64
2, 73488, Note_off_c, 0, 75, 64
2, 73500, Note_on_c, 0, 68, 96
2, 73500, Note_on_c, 0, 77, 96
2, 73548, Note_off_c, 0, 77, 64
2, 73548, Note_off_c, 0, 68, 64
2, 73560, Note_on_c, 0, 75, 96
2, 73560, Note_on_c, 0, 67, 96
2, 73608, Note_off_c, 0, 67, 64
2, 73608, Note_off_c, 0, 75, 64
2, 73620, Note_on_c, 0, 65, 96
2, 73620, Note_on_c, 0, 74, 96
2, 73668, Note_off_c, 0, 74, 64
2, 73668, Note_off_c, 0, 65, 64
2, 73680, Note_on_c, 0, 75, 96
2, 73680, Note_on_c, 0, 67, 96
2, 73728, Note_off_c, 0, 67, 64
2, 73728, Note_off_c, 0, 75, 64
2, 73740, Note_on_c, 0, 74, 96
2, 73740, Note_on_c, 0, 65, 96
2, 73788, Note_off_c, 0, 65, 64
2, 73788, Note_off_c, 0, 74, 64
2, 73800, Note_on_c, 0, 63, 96
2, 73800, Note_on_c, 0, 72, 96
2, 73848, Note_off_c, 0, 72, 64
2, 73848, Note_off_c, 0, 63, 64
2, 73860, Note_on_c, 0, 71, 96
2, 73860, Note_on_c, 0, 62, 96
2, 73908, Note_off_c, 0, 62, 64
2, 73908, Note_off_c, 0, 71, 64
2, 73920, Note_on_c, 0, 63, 96
2, 73920, Note_on_c, 0, 72, 96
2, 74112, Note_off_c, 0, 72, 64
2, 74112, Note_off_c, 0, 63, 64
2, 74160, Note_on_c, 0, 74, 96
2, 74160, Note_on_c, 0, 65, 96
2, 74352, Note_off_c, 0, 65, 64
2, 74352, Note_off_c, 0, 74, 64
2, 74400, Note_on_c, 0, 75, 96
2, 74400, Note_on_c, 0, 67, 96
2, 74592, Note_off_c, 0, 67, 64
2, 74592, Note_off_c, 0, 75, 64
2, 74640, Note_on_c, 0, 68, 96
2, 74640, Note_on_c, 0, 77, 96
2, 74832, Note_off_c, 0, 68, 64
2, 74880, Note_on_c, 0, 67, 96
2, 75072, Note_off_c, 0, 77, 64
2, 75120, Note_on_c, 0, 75, 96
2, 75264, Note_off_c, 0, 67, 64
2, 75312, Note_off_c, 0, 75, 64
2, 75360, Note_on_c, 0, 68, 96
2, 75360, Note_on_c, 0, 74, 96
2, 75552, Note_off_c, 0, 74, 64
2, 75552, Note_off_c, 0, 68, 64
2, 75600, Note_on_c, 0, 79, 96
2, 75600, Note_on_c, 0, 67, 96
2, 75696, Note_off_c, 0, 79, 64
2, 75720, Note_on_c, 0, 74, 96
2, 75792, Note_off_c, 0, 67, 64
2, 75816, Note_off_c, 0, 74, 64
2, 75840, Note_on_c, 0, 67, 96
2, 75840, Note_on_c, 0, 75, 96
2, 76032, Note_off_c, 0, 67, 64
2, 76080, Note_on_c, 0, 72, 96
2, 76176, Note_off_c, 0, 72, 64
2, 76200, Note_on_c, 0, 67, 96
2, 76296, Note_off_c, 0, 67, 64
2, 76320, Note_on_c, 0, 68, 96
2, 76416, Note_off_c, 0, 75, 64
2, 76440, Note_on_c, 0, 75, 96
2, 76536, Note_off_c, 0, 75, 64
2, 76560, Note_on_c, 0, 72, 96
2, 76656, Note_off_c, 0, 72, 64
2, 76680, Note_on_c, 0, 77, 96
2, 76776, Note_off_c, 0, 77, 64
2, 76800, Note_on_c, 0, 74, 96
2, 76896, Note_off_c, 0, 68, 64
2, 76920, Note_on_c, 0, 68, 96
2, 77016, Note_off_c, 0, 68, 64
2, 77040, Note_on_c, 0, 65, 96
2, 77136, Note_off_c, 0, 65, 64
2, 77160, Note_on_c, 0, 70, 96
2, 77256, Note_off_c, 0, 70, 64
2, 77280, Note_on_c, 0, 67, 96
2, 77376, Note_off_c, 0, 74, 64
2, 77520, Note_on_c, 0, 73, 96
2, 77664, Note_off_c, 0, 67, 64
2, 77712, Note_off_c, 0, 73, 64
2, 77760, Note_on_c, 0, 67, 96
2, 77760, Note_on_c, 0, 72, 96
2, 77808, Note_off_c, 0, 67, 64
2, 77820, Note_on_c, 0, 70, 96
2, 77868, Note_off_c, 0, 70, 64
2, 77880, Note_on_c, 0, 68, 96
2, 77928, Note_off_c, 0, 68, 64
2, 77940, Note_on_c, 0, 67, 96
2, 77988, Note_off_c, 0, 67, 64
2, 78000, Note_on_c, 0, 68, 96
2, 78048, Note_off_c, 0, 68, 64
2, 78060, Note_on_c, 0, 67, 96
2, 78108, Note_off_c, 0, 67, 64
2, 78120, Note_on_c, 0, 65, 96
2, 78168, Note_off_c, 0, 65, 64
2, 78180, Note_on_c, 0, 63, 96
2, 78228, Note_off_c, 0, 63, 64
2, 78240, Note_on_c, 0, 62, 96
2, 78288, Note_off_c, 0, 72, 64
2, 78300, Note_on_c, 0, 72, 96
2, 78348, Note_off_c, 0, 72, 64
2, 78360, Note_on_c, 0, 70, 96
2, 78408, Note_off_c, 0, 70, 64
2, 78420, Note_on_c, 0, 68, 96
2, 78432, Note_off_c, 0, 62, 64
2, 78468, Note_off_c, 0, 68, 64
2, 78480, Note_on_c, 0, 70, 96
2, 78528, Note_off_c, 0, 70, 64
2, 78540, Note_on_c, 0, 68, 96
2, 78588, Note_off_c, 0, 68, 64
2, 78600, Note_on_c, 0, 67, 96
2, 78648, Note_off_c, 0, 67, 64
2, 78660, Note_on_c, 0, 65, 96
2, 78708, Note_off_c, 0, 65, 64
2, 78720, Note_on_c, 0, 63, 96
2, 78768, Note_off_c, 0, 63, 64
2, 78780, Note_on_c, 0, 67, 96
2, 78828, Note_off_c, 0, 67, 64
2, 78840, Note_on_c, 0, 65, 96
2, 78888, Note_off_c, 0, 65, 64
2, 78900, Note_on_c, 0, 63, 96
2, 78948, Note_off_c, 0, 63, 64
2, 78960, Note_on_c, 0, 72, 96
2, 79248, Note_off_c, 0, 72, 64
2, 79260, Note_on_c, 0, 75, 96
2, 79308, Note_off_c, 0, 75, 64
2, 79320, Note_on_c, 0, 74, 96
2, 79368, Note_off_c, 0, 74, 64
2, 79380, Note_on_c, 0, 72, 96
2, 79428, Note_off_c, 0, 72, 64
2, 79440, Note_on_c, 0, 77, 96
2, 79536, Note_off_c, 0, 77, 64
2, 79560, Note_on_c, 0, 68, 96
2, 79656, Note_off_c, 0, 68, 64
2, 79680, Note_on_c, 0, 67, 96
2, 79800, Note_on_c, 0, 75, 96
2, 79872, Note_off_c, 0, 67, 64
2, 79920, Note_on_c, 0, 68, 96
2, 79992, Note_off_c, 0, 75, 64
2, 80040, Note_on_c, 0, 75, 96
2, 80112, Note_off_c, 0, 68, 64
2, 80160, Note_on_c, 0, 70, 96
2, 80208, Note_off_c, 0, 75, 64
2, 80220, Note_on_c, 0, 74, 96
2, 80268, Note_off_c, 0, 74, 64
2, 80280, Note_on_c, 0, 72, 96
2, 80328, Note_off_c, 0, 72, 64
2, 80340, Note_on_c, 0, 70, 96
2, 80352, Note_off_c, 0, 70, 64
2, 80388, Note_off_c, 0, 70, 64
2, 80400, Note_on_c, 0, 72, 96
2, 80400, Note_on_c, 0, 68, 96
2, 80448, Note_off_c, 0, 68, 64
2, 80460, Note_on_c, 0, 67, 96
2, 80508, Note_off_c, 0, 67, 64
2, 80520, Note_on_c, 0, 65, 96
2, 80568, Note_off_c, 0, 65, 64
2, 80580, Note_on_c, 0, 63, 96
2, 80592, Note_off_c, 0, 72, 64
2, 80628, Note_off_c, 0, 63, 64
2, 80640, Note_on_c, 0, 70, 96
2, 80640, Note_on_c, 0, 62, 96
2, 80688, Note_off_c, 0, 62, 64
2, 80700, Note_on_c, 0, 65, 96
2, 80748, Note_off_c, 0, 65, 64
2, 80760, Note_on_c, 0, 62, 96
2, 80808, Note_off_c, 0, 62, 64
2, 80820, Note_on_c, 0, 65, 96
2, 80868, Note_off_c, 0, 65, 64
2, 80880, Note_on_c, 0, 63, 96
2, 80928, Note_off_c, 0, 63, 64
2, 80940, Note_on_c, 0, 67, 96
2, 80988, Note_off_c, 0, 67, 64
2, 81000, Note_on_c, 0, 63, 96
2, 81024, Note_off_c, 0, 70, 64
2, 81048, Note_off_c, 0, 63, 64
2, 81060, Note_on_c, 0, 67, 96
2, 81108, Note_off_c, 0, 67, 64
2, 81120, Note_on_c, 0, 72, 96
2, 81120, Note_on_c, 0, 63, 96
2, 81168, Note_off_c, 0, 63, 64
2, 81180, Note_on_c, 0, 68, 96
2, 81228, Note_off_c, 0, 68, 64
2, 81240, Note_on_c, 0, 63, 96
2, 81288, Note_off_c, 0, 63, 64
2, 81300, Note_on_c, 0, 68, 96
2, 81312, Note_off_c, 0, 72, 64
2, 81348, Note_off_c, 0, 68, 64
2, 81360, Note_on_c, 0, 62, 96
2, 81360, Note_on_c, 0, 70, 96
2, 81408, Note_off_c, 0, 62, 64
2, 81420, Note_on_c, 0, 68, 96
2, 81468, Note_off_c, 0, 68, 64
2, 81480, Note_on_c, 0, 62, 96
2, 81528, Note_off_c, 0, 62, 64
2, 81540, Note_on_c, 0, 68, 96
2, 81588, Note_off_c, 0, 68, 64
2, 81600, Note_on_c, 0, 67, 96
2, 81648, Note_off_c, 0, 67, 64
2, 81660, Note_on_c, 0, 68, 96
2, 81708, Note_off_c, 0, 68, 64
2, 81720, Note_on_c, 0, 67, 96
2, 81768, Note_off_c, 0, 67, 64
2, 81780, Note_on_c, 0, 65, 96
2, 81792, Note_off_c, 0, 70, 64
2, 81828, Note_off_c, 0, 65, 64
2, 81840, Note_on_c, 0, 67, 96
2, 81888, Note_off_c, 0, 67, 64
2, 81900, Note_on_c, 0, 70, 96
2, 81948, Note_off_c, 0, 70, 64
2, 81960, Note_on_c, 0, 67, 96
2, 82008, Note_off_c, 0, 67, 64
2, 82020, Note_on_c, 0, 70, 96
2, 82068, Note_off_c, 0, 70, 64
2, 82080, Note_on_c, 0, 63, 96
2, 82128, Note_off_c, 0, 63, 64
2, 82140, Note_on_c, 0, 74, 96
2, 82188, Note_off_c, 0, 74, 64
2, 82200, Note_on_c, 0, 72, 96
2, 82248, Note_off_c, 0, 72, 64
2, 82260, Note_on_c, 0, 70, 96
2, 82308, Note_off_c, 0, 70, 64
2, 82320, Note_on_c, 0, 72, 96
2, 82368, Note_off_c, 0, 72, 64
2, 82380, Note_on_c, 0, 75, 96
2, 82428, Note_off_c, 0, 75, 64
2, 82440, Note_on_c, 0, 72, 96
2, 82488, Note_off_c, 0, 72, 64
2, 82500, Note_on_c, 0, 75, 96
2, 82548, Note_off_c, 0, 75, 64
2, 82560, Note_on_c, 0, 69, 96
2, 82608, Note_off_c, 0, 69, 64
2, 82620, Note_on_c, 0, 70, 96
2, 82668, Note_off_c, 0, 70, 64
2, 82680, Note_on_c, 0, 69, 96
2, 82728, Note_off_c, 0, 69, 64
2, 82740, Note_on_c, 0, 67, 96
2, 82788, Note_off_c, 0, 67, 64
2, 82800, Note_on_c, 0, 69, 96
2, 82848, Note_off_c, 0, 69, 64
2, 82860, Note_on_c, 0, 72, 96
2, 82908, Note_off_c, 0, 72, 64
2, 82920, Note_on_c, 0, 69, 96
2, 82968, Note_off_c, 0, 69, 64
2, 82980, Note_on_c, 0, 72, 96
2, 83028, Note_off_c, 0, 72, 64
2, 83040, Note_on_c, 0, 65, 96
2, 83088, Note_off_c, 0, 65, 64
2, 83100, Note_on_c, 0, 75, 96
2, 83148, Note_off_c, 0, 75, 64
2, 83160, Note_on_c, 0, 74, 96
2, 83208, Note_off_c, 0, 74, 64
2, 83220, Note_on_c, 0, 72, 96
2, 83268, Note_off_c, 0, 72, 64
2, 83280, Note_on_c, 0, 74, 96
2, 83328, Note_off_c, 0, 74, 64
2, 83340, Note_on_c, 0, 77, 96
2, 83388, Note_off_c, 0, 77, 64
2, 83400, Note_on_c, 0, 74, 96
2, 83448, Note_off_c, 0, 74, 64
2, 83460, Note_on_c, 0, 77, 96
2, 83508, Note_off_c, 0, 77, 64
2, 83520, Note_on_c, 0, 70, 96
2, 83640, Note_on_c, 0, 82, 96
2, 83712, Note_off_c, 0, 70, 64
2, 83760, Note_on_c, 0, 72, 96
2, 83832, Note_off_c, 0, 82, 64
2, 83880, Note_on_c, 0, 82, 96
2, 83952, Note_off_c, 0, 72, 64
2, 84000, Note_on_c, 0, 74, 96
2, 84048, Note_off_c, 0, 82, 64
2, 84060, Note_on_c, 0, 81, 96
2, 84108, Note_off_c, 0, 81, 64
2, 84120, Note_on_c, 0, 79, 96
2, 84168, Note_off_c, 0, 79, 64
2, 84180, Note_on_c, 0, 77, 96
2, 84192, Note_off_c, 0, 74, 64
2, 84228, Note_off_c, 0, 77, 64
2, 84240, Note_on_c, 0, 75, 96
2, 84240, Note_on_c, 0, 75, 96
2, 84288, Note_off_c, 0, 75, 64
2, 84300, Note_on_c, 0, 74, 96
2, 84348, Note_off_c, 0, 74, 64
2, 84360, Note_on_c, 0, 72, 96
2, 84408, Note_off_c, 0, 72, 64
2, 84420, Note_on_c, 0, 70, 96
2, 84468, Note_off_c, 0, 70, 64
2, 84480, Note_on_c, 0, 69, 96
2, 84528, Note_off_c, 0, 69, 64
2, 84540, Note_on_c, 0, 72, 96
2, 84588, Note_off_c, 0, 72, 64
2, 84600, Note_on_c, 0, 69, 96
2, 84648, Note_off_c, 0, 69, 64
2, 84660, Note_on_c, 0, 72, 96
2, 84672, Note_off_c, 0, 75, 64
2, 84708, Note_off_c, 0, 72, 64
2, 84720, Note_on_c, 0, 70, 96
2, 84768, Note_off_c, 0, 70, 64
2, 84780, Note_on_c, 0, 74, 96
2, 84828, Note_off_c, 0, 74, 64
2, 84840, Note_on_c, 0, 70, 96
2, 84840, Note_on_c, 0, 65, 96
2, 84888, Note_off_c, 0, 70, 64
2, 84900, Note_on_c, 0, 74, 96
2, 84936, Note_off_c, 0, 65, 64
2, 84948, Note_off_c, 0, 74, 64
2, 84960, Note_on_c, 0, 70, 96
2, 84960, Note_on_c, 0, 67, 96
2, 85008, Note_off_c, 0, 70, 64
2, 85020, Note_on_c, 0, 75, 96
2, 85068, Note_off_c, 0, 75, 64
2, 85080, Note_on_c, 0, 70, 96
2, 85128, Note_off_c, 0, 70, 64
2, 85140, Note_on_c, 0, 75, 96
2, 85152, Note_off_c, 0, 67, 64
2, 85188, Note_off_c, 0, 75, 64
2, 85200, Note_on_c, 0, 65, 96
2, 85200, Note_on_c, 0, 69, 96
2, 85248, Note_off_c, 0, 69, 64
2, 85260, Note_on_c, 0, 75, 96
2, 85296, Note_off_c, 0, 65, 64
2, 85308, Note_off_c, 0, 75, 64
2, 85320, Note_on_c, 0, 63, 96
2, 85320, Note_on_c, 0, 69, 96
2, 85368, Note_off_c, 0, 69, 64
2, 85380, Note_on_c, 0, 75, 96
2, 85416, Note_off_c, 0, 63, 64
2, 85428, Note_off_c, 0, 75, 64
2, 85440, Note_on_c, 0, 65, 96
2, 85440, Note_on_c, 0, 74, 96
2, 85488, Note_off_c, 0, 74, 64
2, 85500, Note_on_c, 0, 72, 96
2, 85548, Note_off_c, 0, 72, 64
2, 85560, Note_on_c, 0, 70, 96
2, 85608, Note_off_c, 0, 70, 64
2, 85620, Note_on_c, 0, 69, 96
2, 85668, Note_off_c, 0, 69, 64
2, 85680, Note_on_c, 0, 70, 96
2, 85728, Note_off_c, 0, 70, 64
2, 85740, Note_on_c, 0, 74, 96
2, 85788, Note_off_c, 0, 74, 64
2, 85800, Note_on_c, 0, 72, 96
2, 85848, Note_off_c, 0, 72, 64
2, 85860, Note_on_c, 0, 70, 96
2, 85908, Note_off_c, 0, 70, 64
2, 85920, Note_on_c, 0, 79, 96
2, 85968, Note_off_c, 0, 79, 64
2, 85980, Note_on_c, 0, 80, 96
2, 86028, Note_off_c, 0, 80, 64
2, 86040, Note_on_c, 0, 79, 96
2, 86088, Note_off_c, 0, 79, 64
2, 86100, Note_on_c, 0, 77, 96
2, 86112, Note_off_c, 0, 65, 64
2, 86148, Note_off_c, 0, 77, 64
2, 86160, Note_on_c, 0, 63, 96
2, 86160, Note_on_c, 0, 79, 96
2, 86208, Note_off_c, 0, 79, 64
2, 86220, Note_on_c, 0, 77, 96
2, 86268, Note_off_c, 0, 77, 64
2, 86280, Note_on_c, 0, 75, 96
2, 86328, Note_off_c, 0, 75, 64
2, 86340, Note_on_c, 0, 74, 96
2, 86388, Note_off_c, 0, 74, 64
2, 86400, Note_on_c, 0, 72, 96
2, 86448, Note_off_c, 0, 72, 64
2, 86460, Note_on_c, 0, 74, 96
2, 86508, Note_off_c, 0, 74, 64
2, 86520, Note_on_c, 0, 72, 96
2, 86568, Note_off_c, 0, 72, 64
2, 86580, Note_on_c, 0, 70, 96
2, 86628, Note_off_c, 0, 70, 64
2, 86640, Note_on_c, 0, 72, 96
2, 86688, Note_off_c, 0, 72, 64
2, 86700, Note_on_c, 0, 75, 96
2, 86748, Note_off_c, 0, 75, 64
2, 86760, Note_on_c, 0, 74, 96
2, 86784, Note_off_c, 0, 63, 64
2, 86808, Note_off_c, 0, 74, 64
2, 86820, Note_on_c, 0, 72, 96
2, 86868, Note_off_c, 0, 72, 64
2, 86880, Note_on_c, 0, 62, 96
2, 86880, Note_on_c, 0, 81, 96
2, 86928, Note_off_c, 0, 81, 64
2, 86940, Note_on_c, 0, 82, 96
2, 86988, Note_off_c, 0, 82, 64
2, 87000, Note_on_c, 0, 81, 96
2, 87048, Note_off_c, 0, 81, 64
2, 87060, Note_on_c, 0, 79, 96
2, 87108, Note_off_c, 0, 79, 64
2, 87120, Note_on_c, 0, 78, 96
2, 87168, Note_off_c, 0, 78, 64
2, 87180, Note_on_c, 0, 76, 96
2, 87228, Note_off_c, 0, 76, 64
2, 87240, Note_on_c, 0, 74, 96
2, 87288, Note_off_c, 0, 74, 64
2, 87300, Note_on_c, 0, 72, 96
2, 87348, Note_off_c, 0, 72, 64
2, 87360, Note_on_c, 0, 70, 96
2, 87408, Note_off_c, 0, 70, 64
2, 87420, Note_on_c, 0, 74, 96
2, 87468, Note_off_c, 0, 74, 64
2, 87480, Note_on_c, 0, 70, 96
2, 87528, Note_off_c, 0, 70, 64
2, 87540, Note_on_c, 0, 74, 96
2, 87552, Note_off_c, 0, 62, 64
2, 87588, Note_off_c, 0, 74, 64
2, 87600, Note_on_c, 0, 69, 96
2, 87600, Note_on_c, 0, 72, 96
2, 87648, Note_off_c, 0, 72, 64
2, 87660, Note_on_c, 0, 75, 96
2, 87708, Note_off_c, 0, 75, 64
2, 87720, Note_on_c, 0, 72, 96
2, 87768, Note_off_c, 0, 72, 64
2, 87780, Note_on_c, 0, 75, 96
2, 87792, Note_off_c, 0, 69, 64
2, 87828, Note_off_c, 0, 75, 64
2, 87840, Note_on_c, 0, 74, 96
2, 87840, Note_on_c, 0, 70, 96
2, 88032, Note_off_c, 0, 70, 64
2, 88032, Note_off_c, 0, 74, 64
2, 88080, Note_on_c, 0, 75, 96
2, 88080, Note_on_c, 0, 72, 96
2, 88272, Note_off_c, 0, 75, 64
2, 88320, Note_on_c, 0, 74, 96
2, 88512, Note_off_c, 0, 72, 64
2, 88560, Note_on_c, 0, 70, 96
2, 88704, Note_off_c, 0, 74, 64
2, 88752, Note_off_c, 0, 70, 64
2, 88800, Note_on_c, 0, 69, 96
2, 88800, Note_on_c, 0, 75, 96
2, 88992, Note_off_c, 0, 75, 64
2, 89040, Note_on_c, 0, 74, 96
2, 89184, Note_off_c, 0, 69, 64
2, 89280, Note_on_c, 0, 70, 96
2, 89328, Note_off_c, 0, 70, 64
2, 89340, Note_on_c, 0, 69, 96
2, 89388, Note_off_c, 0, 69, 64
2, 89400, Note_on_c, 0, 67, 96
2, 89448, Note_off_c, 0, 67, 64
2, 89460, Note_on_c, 0, 66, 96
2, 89508, Note_off_c, 0, 66, 64
2, 89520, Note_on_c, 0, 67, 96
2, 89568, Note_off_c, 0, 67, 64
2, 89580, Note_on_c, 0, 70, 96
2, 89628, Note_off_c, 0, 70, 64
2, 89640, Note_on_c, 0, 67, 96
2, 89688, Note_off_c, 0, 67, 64
2, 89700, Note_on_c, 0, 70, 96
2, 89748, Note_off_c, 0, 70, 64
2, 89760, Note_on_c, 0, 63, 96
2, 89808, Note_off_c, 0, 74, 64
2, 89820, Note_on_c, 0, 77, 96
2, 89856, Note_off_c, 0, 63, 64
2, 89868, Note_off_c, 0, 77, 64
2, 89880, Note_on_c, 0, 75, 96
2, 89928, Note_off_c, 0, 75, 64
2, 89940, Note_on_c, 0, 74, 96
2, 89988, Note_off_c, 0, 74, 64
2, 90000, Note_on_c, 0, 75, 96
2, 90048, Note_off_c, 0, 75, 64
2, 90060, Note_on_c, 0, 79, 96
2, 90108, Note_off_c, 0, 79, 64
2, 90120, Note_on_c, 0, 75, 96
2, 90168, Note_off_c, 0, 75, 64
2, 90180, Note_on_c, 0, 79, 96
2, 90228, Note_off_c, 0, 79, 64
2, 90240, Note_on_c, 0, 80, 96
2, 90300, Note_on_c, 0, 79, 96
2, 90348, Note_off_c, 0, 79, 64
2, 90360, Note_on_c, 0, 77, 96
2, 90408, Note_off_c, 0, 77, 64
2, 90420, Note_on_c, 0, 75, 96
2, 90468, Note_off_c, 0, 75, 64
2, 90480, Note_on_c, 0, 77, 96
2, 90768, Note_off_c, 0, 77, 64
2, 90780, Note_on_c, 0, 75, 96
2, 90828, Note_off_c, 0, 75, 64
2, 90840, Note_on_c, 0, 74, 96
2, 90888, Note_off_c, 0, 74, 64
2, 90900, Note_on_c, 0, 72, 96
2, 90948, Note_off_c, 0, 72, 64
2, 90960, Note_on_c, 0, 74, 96
2, 91140, Note_off_c, 0, 80, 64
2, 91200, Note_on_c, 0, 79, 96
2, 91248, Note_off_c, 0, 74, 64
2, 91260, Note_on_c, 0, 77, 96
2, 91308, Note_off_c, 0, 77, 64
2, 91320, Note_on_c, 0, 75, 96
2, 91368, Note_off_c, 0, 75, 64
2, 91380, Note_on_c, 0, 74, 96
2, 91428, Note_off_c, 0, 74, 64
2, 91440, Note_on_c, 0, 75, 96
2, 91728, Note_off_c, 0, 75, 64
2, 91740, Note_on_c, 0, 74, 96
2, 91788, Note_off_c, 0, 74, 64
2, 91800, Note_on_c, 0, 72, 96
2, 91848, Note_off_c, 0, 72, 64
2, 91860, Note_on_c, 0, 71, 96
2, 91908, Note_off_c, 0, 71, 64
2, 91920, Note_on_c, 0, 72, 96
2, 92100, Note_off_c, 0, 79, 64
2, 92160, Note_on_c, 0, 77, 96
2, 92208, Note_off_c, 0, 72, 64
2, 92220, Note_on_c, 0, 75, 96
2, 92268, Note_off_c, 0, 75, 64
2, 92280, Note_on_c, 0, 73, 96
2, 92328, Note_off_c, 0, 73, 64
2, 92340, Note_on_c, 0, 72, 96
2, 92388, Note_off_c, 0, 72, 64
2, 92400, Note_on_c, 0, 73, 96
2, 92688, Note_off_c, 0, 73, 64
2, 92700, Note_on_c, 0, 72, 96
2, 92748, Note_off_c, 0, 72, 64
2, 92760, Note_on_c, 0, 70, 96
2, 92808, Note_off_c, 0, 70, 64
2, 92820, Note_on_c, 0, 68, 96
2, 92868, Note_off_c, 0, 68, 64
2, 92880, Note_on_c, 0, 70, 96
2, 93060, Note_off_c, 0, 77, 64
2, 93120, Note_on_c, 0, 76, 96
2, 93168, Note_off_c, 0, 70, 64
2, 93180, Note_on_c, 0, 72, 96
2, 93228, Note_off_c, 0, 72, 64
2, 93240, Note_on_c, 0, 70, 96
2, 93288, Note_off_c, 0, 70, 64
2, 93300, Note_on_c, 0, 68, 96
2, 93348, Note_off_c, 0, 68, 64
2, 93360, Note_on_c, 0, 67, 96
2, 93408, Note_off_c, 0, 67, 64
2, 93420, Note_on_c, 0, 65, 96
2, 93468, Note_off_c, 0, 65, 64
2, 93480, Note_on_c, 0, 64, 96
2, 93504, Note_off_c, 0, 76, 64
2, 93528, Note_off_c, 0, 64, 64
2, 93540, Note_on_c, 0, 62, 96
2, 93588, Note_off_c, 0, 62, 64
2, 93600, Note_on_c, 0, 60, 96
2, 93888, Note_off_c, 0, 60, 64
2, 93960, Note_on_c, 0, 67, 105
2, 93960, Note_on_c, 0, 72, 105
2, 93960, Note_on_c, 0, 79, 110
2, 94056, Note_off_c, 0, 79, 64
2, 94080, Note_off_c, 0, 72, 64
2, 94080, Note_off_c, 0, 67, 64
2, 94080, Note_on_c, 0, 79, 110
2, 94080, Note_on_c, 0, 72, 110
2, 94464, Note_off_c, 0, 79, 64
2, 94560, Note_on_c, 0, 77, 110
2, 94848, Note_off_c, 0, 72, 64
2, 94944, Note_off_c, 0, 77, 64
2, 95040, Note_on_c, 0, 77, 110
2, 95040, Note_on_c, 0, 73, 110
2, 95184, Note_off_c, 0, 73, 64
2, 95220, Note_on_c, 0, 75, 110
2, 95268, Note_off_c, 0, 75, 64
2, 95280, Note_on_c, 0, 73, 110
2, 95424, Note_off_c, 0, 73, 64
2, 95424, Note_off_c, 0, 77, 64
2, 95460, Note_on_c, 0, 72, 110
2, 95508, Note_off_c, 0, 72, 64
2, 95520, Note_on_c, 0, 73, 110
2, 95520, Note_on_c, 0, 75, 110
2, 95664, Note_off_c, 0, 73, 64
2, 95700, Note_on_c, 0, 70, 110
2, 95748, Note_off_c, 0, 70, 64
2, 95760, Note_on_c, 0, 68, 110
2, 95904, Note_off_c, 0, 68, 64
2, 95940, Note_on_c, 0, 67, 110
2, 95988, Note_off_c, 0, 67, 64
2, 96000, Note_on_c, 0, 72, 110
2, 96000, Note_on_c, 0, 60, 110
2, 96144, Note_off_c, 0, 60, 64
2, 96180, Note_on_c, 0, 70, 110
2, 96228, Note_off_c, 0, 70, 64
2, 96240, Note_on_c, 0, 68, 110
2, 96384, Note_off_c, 0, 68, 64
2, 96420, Note_on_c, 0, 67, 110
2, 96468, Note_off_c, 0, 67, 64
2, 96480, Note_on_c, 0, 68, 110
2, 96624, Note_off_c, 0, 68, 64
2, 96660, Note_on_c, 0, 63, 110
2, 96708, Note_off_c, 0, 63, 64
2, 96720, Note_on_c, 0, 61, 110
2, 96864, Note_off_c, 0, 61, 64
2, 96900, Note_on_c, 0, 60, 110
2, 96948, Note_off_c, 0, 60, 64
2, 96960, Note_on_c, 0, 65, 110
2, 97248, Note_off_c, 0, 72, 64
2, 97248, Note_off_c, 0, 75, 64
2, 97344, Note_off_c, 0, 65, 64
2, 97380, Note_on_c, 0, 72, 110
2, 97380, Note_on_c, 0, 75, 110
2, 97428, Note_off_c, 0, 75, 64
2, 97428, Note_off_c, 0, 72, 64
2, 97440, Note_on_c, 0, 73, 110
2, 97440, Note_on_c, 0, 65, 110
2, 97440, Note_on_c, 0, 70, 110
2, 97728, Note_off_c, 0, 70, 64
2, 97728, Note_off_c, 0, 65, 64
2, 97728, Note_off_c, 0, 73, 64
2, 97860, Note_on_c, 0, 68, 110
2, 97860, Note_on_c, 0, 72, 110
2, 97860, Note_on_c, 0, 65, 110
2, 97908, Note_off_c, 0, 65, 64
2, 97908, Note_off_c, 0, 72, 64
2, 97908, Note_off_c, 0, 68, 64
2, 97920, Note_on_c, 0, 68, 110
2, 97920, Note_on_c, 0, 63, 110
2, 97920, Note_on_c, 0, 72, 110
2, 98208, Note_off_c, 0, 63, 64
2, 98304, Note_off_c, 0, 72, 64
2, 98304, Note_off_c, 0, 68, 64
2, 98340, Note_on_c, 0, 65, 110
2, 98388, Note_off_c, 0, 65, 64
2, 98400, Note_on_c, 0, 67, 110
2, 98400, Note_on_c, 0, 67, 110
2, 98400, Note_on_c, 0, 70, 110
2, 98688, Note_off_c, 0, 70, 64
2, 98784, Note_off_c, 0, 67, 64
2, 98784, Note_off_c, 0, 67, 64
2, 98820, Note_on_c, 0, 75, 110
2, 98868, Note_off_c, 0, 75, 64
2, 98880, Note_on_c, 0, 75, 110
2, 99060, Note_on_c, 0, 72, 110
2, 99108, Note_off_c, 0, 72, 64
2, 99120, Note_on_c, 0, 70, 110
2, 99264, Note_off_c, 0, 70, 64
2, 99300, Note_on_c, 0, 68, 110
2, 99348, Note_off_c, 0, 68, 64
2, 99360, Note_on_c, 0, 70, 110
2, 99456, Note_off_c, 0, 70, 64
2, 100020, Note_on_c, 0, 70, 110
2, 100068, Note_off_c, 0, 70, 64
2, 100080, Note_on_c, 0, 68, 110
2, 100224, Note_off_c, 0, 68, 64
2, 100260, Note_on_c, 0, 67, 110
2, 100308, Note_off_c, 0, 67, 64
2, 100320, Note_on_c, 0, 68, 110
2, 100416, Note_off_c, 0, 68, 64
2, 100980, Note_on_c, 0, 61, 110
2, 101028, Note_off_c, 0, 61, 64
2, 101040, Note_on_c, 0, 60, 110
2, 101184, Note_off_c, 0, 60, 64
2, 101220, Note_on_c, 0, 58, 110
2, 101268, Note_off_c, 0, 58, 64
2, 101280, Note_on_c, 0, 60, 110
2, 101376, Note_off_c, 0, 60, 64
2, 101424, Note_off_c, 0, 75, 64
2, 101460, Note_on_c, 0, 74, 110
2, 101508, Note_off_c, 0, 74, 64
2, 101520, Note_on_c, 0, 75, 110
2, 101664, Note_off_c, 0, 75, 64
2, 101700, Note_on_c, 0, 77, 110
2, 101748, Note_off_c, 0, 77, 64
2, 101760, Note_on_c, 0, 70, 110
2, 101940, Note_on_c, 0, 65, 110
2, 101988, Note_off_c, 0, 65, 64
2, 102000, Note_on_c, 0, 63, 110
2, 102144, Note_off_c, 0, 63, 64
2, 102180, Note_on_c, 0, 62, 110
2, 102228, Note_off_c, 0, 62, 64
2, 102240, Note_on_c, 0, 63, 110
2, 102432, Note_off_c, 0, 63, 64
2, 103008, Note_off_c, 0, 70, 64
2, 103140, Note_on_c, 0, 70, 110
2, 103188, Note_off_c, 0, 70, 64
2, 103200, Note_on_c, 0, 68, 110
2, 103488, Note_off_c, 0, 68, 64
2, 103620, Note_on_c, 0, 72, 110
2, 103668, Note_off_c, 0, 72, 64
2, 103680, Note_on_c, 0, 68, 110
2, 103680, Note_on_c, 0, 73, 110
2, 103860, Note_on_c, 0, 77, 110
2, 103908, Note_off_c, 0, 77, 64
2, 103920, Note_on_c, 0, 79, 110
2, 103968, Note_off_c, 0, 68, 64
2, 103980, Note_on_c, 0, 67, 110
2, 104028, Note_off_c, 0, 67, 64
2, 104040, Note_on_c, 0, 65, 110
2, 104064, Note_off_c, 0, 79, 64
2, 104064, Note_off_c, 0, 73, 64
2, 104088, Note_off_c, 0, 65, 64
2, 104100, Note_on_c, 0, 63, 110
2, 104100, Note_on_c, 0, 80, 110
2, 104148, Note_off_c, 0, 80, 64
2, 104148, Note_off_c, 0, 63, 64
2, 104160, Note_on_c, 0, 61, 110
2, 104160, Note_on_c, 0, 82, 110
2, 104304, Note_off_c, 0, 61, 64
2, 104340, Note_on_c, 0, 70, 110
2, 104388, Note_off_c, 0, 70, 64
2, 104400, Note_on_c, 0, 63, 110
2, 104544, Note_off_c, 0, 63, 64
2, 104580, Note_on_c, 0, 61, 110
2, 104628, Note_off_c, 0, 61, 64
2, 104832, Note_off_c, 0, 82, 64
2, 104880, Note_on_c, 0, 75, 110
2, 104880, Note_on_c, 0, 80, 110
2, 105072, Note_off_c, 0, 80, 64
2, 105120, Note_on_c, 0, 77, 110
2, 105264, Note_off_c, 0, 75, 64
2, 105300, Note_on_c, 0, 73, 110
2, 105348, Note_off_c, 0, 73, 64
2, 105360, Note_on_c, 0, 72, 110
2, 105408, Note_off_c, 0, 77, 64
2, 105504, Note_off_c, 0, 72, 64
2, 105540, Note_on_c, 0, 75, 110
2, 105540, Note_on_c, 0, 70, 110
2, 105588, Note_off_c, 0, 70, 64
2, 105588, Note_off_c, 0, 75, 64
2, 105600, Note_on_c, 0, 70, 110
2, 105600, Note_on_c, 0, 73, 110
2, 105984, Note_off_c, 0, 73, 64
2, 105984, Note_off_c, 0, 70, 64
2, 106080, Note_on_c, 0, 68, 110
2, 106080, Note_on_c, 0, 72, 110
2, 106272, Note_off_c, 0, 68, 64
2, 106368, Note_off_c, 0, 72, 64
2, 106380, Note_on_c, 0, 72, 110
2, 106428, Note_off_c, 0, 72, 64
2, 106440, Note_on_c, 0, 70, 110
2, 106488, Note_off_c, 0, 70, 64
2, 106500, Note_on_c, 0, 68, 110
2, 106548, Note_off_c, 0, 68, 64
2, 106560, Note_on_c, 0, 75, 110
2, 106740, Note_off_c, 0, 75, 64
2, 106800, Note_on_c, 0, 77, 110
2, 106800, Note_on_c, 0, 68, 110
2, 106980, Note_off_c, 0, 68, 64
2, 106980, Note_off_c, 0, 77, 64
2, 107040, Note_on_c, 0, 67, 110
2, 107040, Note_on_c, 0, 73, 110
2, 107220, Note_off_c, 0, 67, 64
2, 107232, Note_off_c, 0, 73, 64
2, 107280, Note_on_c, 0, 68, 110
2, 107280, Note_on_c, 0, 72, 110
2, 107460, Note_off_c, 0, 72, 64
2, 107460, Note_off_c, 0, 68, 64
2, 107520, Note_on_c, 0, 61, 110
2, 107712, Note_off_c, 0, 61, 64
2, 107760, Note_on_c, 0, 60, 110
2, 107940, Note_off_c, 0, 60, 64
2, 108240, Note_on_c, 0, 73, 110
2, 108288, Note_off_c, 0, 73, 64
2, 108300, Note_on_c, 0, 72, 76
2, 108348, Note_off_c, 0, 72, 64
2, 108360, Note_on_c, 0, 70, 76
2, 108408, Note_off_c, 0, 70, 64
2, 108420, Note_on_c, 0, 68, 76
2, 108468, Note_off_c, 0, 68, 64
2, 108480, Note_on_c, 0, 75, 76
2, 108660, Note_off_c, 0, 75, 64
2, 108720, Note_on_c, 0, 68, 76
2, 108720, Note_on_c, 0, 77, 76
2, 108900, Note_off_c, 0, 77, 64
2, 108900, Note_off_c, 0, 68, 64
2, 108960, Note_on_c, 0, 73, 76
2, 108960, Note_on_c, 0, 67, 76
2, 109140, Note_off_c, 0, 67, 64
2, 109185, Note_off_c, 0, 73, 64
2, 109200, Note_on_c, 0, 72, 76
2, 109200, Note_on_c, 0, 68, 76
2, 109380, Note_off_c, 0, 68, 64
2, 109380, Note_off_c, 0, 72, 64
2, 109440, Note_on_c, 0, 61, 110
2, 109632, Note_off_c, 0, 61, 64
2, 109680, Note_on_c, 0, 60, 110
2, 109860, Note_off_c, 0, 60, 64
2, 110160, Note_on_c, 0, 68, 110
2, 110208, Note_off_c, 0, 68, 64
2, 110220, Note_on_c, 0, 67, 110
2, 110268, Note_off_c, 0, 67, 64
2, 110280, Note_on_c, 0, 65, 110
2, 110328, Note_off_c, 0, 65, 64
2, 110340, Note_on_c, 0, 63, 110
2, 110388, Note_off_c, 0, 63, 64
2, 110400, Note_on_c, 0, 70, 110
2, 110580, Note_off_c, 0, 70, 64
2, 110640, Note_on_c, 0, 75, 110
2, 110640, Note_on_c, 0, 72, 110
2, 110820, Note_off_c, 0, 72, 64
2, 110820, Note_off_c, 0, 75, 64
2, 110880, Note_on_c, 0, 68, 110
2, 110880, Note_on_c, 0, 74, 110
2, 111060, Note_off_c, 0, 74, 64
2, 111072, Note_off_c, 0, 68, 64
2, 111120, Note_on_c, 0, 75, 110
2, 111120, Note_on_c, 0, 67, 110
2, 111300, Note_off_c, 0, 67, 64
2, 111300, Note_off_c, 0, 75, 64
2, 111360, Note_on_c, 0, 56, 76
2, 111552, Note_off_c, 0, 56, 64
2, 111600, Note_on_c, 0, 55, 76
2, 111780, Note_off_c, 0, 55, 64
2, 112080, Note_on_c, 0, 68, 76
2, 112128, Note_off_c, 0, 68, 64
2, 112140, Note_on_c, 0, 67, 76
2, 112188, Note_off_c, 0, 67, 64
2, 112200, Note_on_c, 0, 65, 76
2, 112248, Note_off_c, 0, 65, 64
2, 112260, Note_on_c, 0, 63, 76
2, 112308, Note_off_c, 0, 63, 64
2, 112320, Note_on_c, 0, 70, 76
2, 112500, Note_off_c, 0, 70, 64
2, 112560, Note_on_c, 0, 72, 76
2, 112560, Note_on_c, 0, 75, 76
2, 112740, Note_off_c, 0, 75, 64
2, 112740, Note_off_c, 0, 72, 64
2, 112800, Note_on_c, 0, 74, 76
2, 112800, Note_on_c, 0, 68, 76
2, 112980, Note_off_c, 0, 74, 64
2, 112992, Note_off_c, 0, 68, 64
2, 113040, Note_on_c, 0, 67, 76
2, 113040, Note_on_c, 0, 75, 76
2, 113220, Note_off_c, 0, 75, 64
2, 113220, Note_off_c, 0, 67, 64
2, 113280, Note_on_c, 0, 56, 76
2, 113520, Note_off_c, 0, 56, 64
2, 113520, Note_on_c, 0, 55, 76
2, 113700, Note_off_c, 0, 55, 64
2, 114000, Note_on_c, 0, 70, 110
2, 114000, Note_on_c, 0, 63, 110
2, 114120, Note_on_c, 0, 79, 105
2, 114192, Note_off_c, 0, 63, 64
2, 114192, Note_off_c, 0, 70, 64
2, 114240, Note_on_c, 0, 72, 110
2, 114240, Note_on_c, 0, 68, 110
2, 114360, Note_off_c, 0, 79, 64
2, 114360, Note_on_c, 0, 76, 110
2, 114432, Note_off_c, 0, 68, 64
2, 114432, Note_off_c, 0, 72, 64
2, 114480, Note_on_c, 0, 70, 110
2, 114480, Note_on_c, 0, 67, 110
2, 114552, Note_off_c, 0, 76, 64
2, 114600, Note_on_c, 0, 77, 110
2, 114672, Note_off_c, 0, 67, 64
2, 114672, Note_off_c, 0, 70, 64
2, 114720, Note_on_c, 0, 72, 110
2, 114720, Note_on_c, 0, 68, 110
2, 114768, Note_off_c, 0, 77, 64
2, 114780, Note_on_c, 0, 80, 110
2, 114828, Note_off_c, 0, 80, 64
2, 114840, Note_on_c, 0, 82, 110
2, 114888, Note_off_c, 0, 82, 64
2, 114900, Note_on_c, 0, 84, 110
2, 114912, Note_off_c, 0, 68, 64
2, 114912, Note_off_c, 0, 72, 64
2, 114948, Note_off_c, 0, 84, 64
2, 114960, Note_on_c, 0, 82, 110
2, 114960, Note_on_c, 0, 65, 110
2, 115008, Note_off_c, 0, 82, 64
2, 115020, Note_on_c, 0, 80, 110
2, 115068, Note_off_c, 0, 80, 64
2, 115080, Note_on_c, 0, 79, 110
2, 115128, Note_off_c, 0, 79, 64
2, 115140, Note_on_c, 0, 77, 110
2, 115152, Note_off_c, 0, 65, 64
2, 115200, Note_on_c, 0, 67, 110
2, 115200, Note_on_c, 0, 70, 110
2, 115296, Note_off_c, 0, 77, 64
2, 115320, Note_on_c, 0, 74, 110
2, 115392, Note_off_c, 0, 70, 64
2, 115392, Note_off_c, 0, 67, 64
2, 115440, Note_on_c, 0, 68, 110
2, 115440, Note_on_c, 0, 65, 110
2, 115512, Note_off_c, 0, 74, 64
2, 115560, Note_on_c, 0, 75, 110
2, 115632, Note_off_c, 0, 65, 64
2, 115632, Note_off_c, 0, 68, 64
2, 115680, Note_on_c, 0, 70, 110
2, 115680, Note_on_c, 0, 67, 110
2, 115728, Note_off_c, 0, 75, 64
2, 115740, Note_on_c, 0, 79, 110
2, 115788, Note_off_c, 0, 79, 64
2, 115800, Note_on_c, 0, 80, 110
2, 115848, Note_off_c, 0, 80, 64
2, 115860, Note_on_c, 0, 82, 110
2, 115872, Note_off_c, 0, 67, 64
2, 115872, Note_off_c, 0, 70, 64
2, 115908, Note_off_c, 0, 82, 64
2, 115920, Note_on_c, 0, 80, 110
2, 115920, Note_on_c, 0, 63, 110
2, 115968, Note_off_c, 0, 80, 64
2, 115980, Note_on_c, 0, 79, 110
2, 116028, Note_off_c, 0, 79, 64
2, 116040, Note_on_c, 0, 77, 110
2, 116088, Note_off_c, 0, 77, 64
2, 116100, Note_on_c, 0, 75, 110
2, 116112, Note_off_c, 0, 63, 64
2, 116160, Note_on_c, 0, 65, 110
2, 116160, Note_on_c, 0, 68, 110
2, 116256, Note_off_c, 0, 75, 64
2, 116280, Note_on_c, 0, 72, 110
2, 116352, Note_off_c, 0, 68, 64
2, 116352, Note_off_c, 0, 65, 64
2, 116400, Note_on_c, 0, 67, 110
2, 116400, Note_on_c, 0, 63, 110
2, 116472, Note_off_c, 0, 72, 64
2, 116520, Note_on_c, 0, 74, 110
2, 116592, Note_off_c, 0, 63, 64
2, 116592, Note_off_c, 0, 67, 64
2, 116640, Note_on_c, 0, 65, 110
2, 116688, Note_off_c, 0, 74, 64
2, 116700, Note_on_c, 0, 75, 110
2, 116748, Note_off_c, 0, 75, 64
2, 116760, Note_on_c, 0, 77, 110
2, 116808, Note_off_c, 0, 77, 64
2, 116820, Note_on_c, 0, 79, 110
2, 116832, Note_off_c, 0, 65, 64
2, 116868, Note_off_c, 0, 79, 64
2, 116880, Note_on_c, 0, 77, 110
2, 116880, Note_on_c, 0, 60, 110
2, 116928, Note_off_c, 0, 77, 64
2, 116940, Note_on_c, 0, 75, 110
2, 116988, Note_off_c, 0, 75, 64
2, 117000, Note_on_c, 0, 74, 110
2, 117048, Note_off_c, 0, 74, 64
2, 117060, Note_on_c, 0, 72, 110
2, 117072, Note_off_c, 0, 60, 64
2, 117120, Note_on_c, 0, 62, 110
2, 117120, Note_on_c, 0, 65, 110
2, 117216, Note_off_c, 0, 72, 64
2, 117240, Note_on_c, 0, 69, 110
2, 117312, Note_off_c, 0, 65, 64
2, 117312, Note_off_c, 0, 62, 64
2, 117360, Note_on_c, 0, 60, 110
2, 117360, Note_on_c, 0, 63, 110
2, 117432, Note_off_c, 0, 69, 64
2, 117480, Note_on_c, 0, 70, 110
2, 117552, Note_off_c, 0, 63, 64
2, 117552, Note_off_c, 0, 60, 64
2, 117600, Note_on_c, 0, 65, 110
2, 117600, Note_on_c, 0, 62, 110
2, 117696, Note_off_c, 0, 70, 64
2, 117720, Note_on_c, 0, 80, 110
2, 117792, Note_off_c, 0, 62, 64
2, 117792, Note_off_c, 0, 65, 64
2, 117840, Note_on_c, 0, 58, 110
2, 117840, Note_on_c, 0, 62, 110
2, 117912, Note_off_c, 0, 80, 64
2, 117960, Note_on_c, 0, 78, 110
2, 118032, Note_off_c, 0, 62, 64
2, 118032, Note_off_c, 0, 58, 64
2, 118128, Note_off_c, 0, 78, 64
2, 118140, Note_on_c, 0, 75, 110
2, 118188, Note_off_c, 0, 75, 64
2, 118200, Note_on_c, 0, 74, 110
2, 118248, Note_off_c, 0, 74, 64
2, 118260, Note_on_c, 0, 75, 110
2, 118308, Note_off_c, 0, 75, 64
2, 118320, Note_on_c, 0, 82, 110
2, 118656, Note_off_c, 0, 82, 64
2, 118680, Note_on_c, 0, 81, 110
2, 118728, Note_off_c, 0, 81, 64
2, 118740, Note_on_c, 0, 82, 110
2, 118788, Note_off_c, 0, 82, 64
2, 118800, Note_on_c, 0, 83, 110
2, 118848, Note_off_c, 0, 83, 64
2, 118860, Note_on_c, 0, 82, 110
2, 118908, Note_off_c, 0, 82, 64
2, 118920, Note_on_c, 0, 81, 110
2, 118968, Note_off_c, 0, 81, 64
2, 118980, Note_on_c, 0, 82, 110
2, 119028, Note_off_c, 0, 82, 64
2, 119040, Note_on_c, 0, 75, 110
2, 119136, Note_off_c, 0, 75, 64
2, 119160, Note_on_c, 0, 74, 110
2, 119328, Note_off_c, 0, 74, 64
2, 119340, Note_on_c, 0, 75, 110
2, 119388, Note_off_c, 0, 75, 64
2, 119400, Note_on_c, 0, 77, 110
2, 119448, Note_off_c, 0, 77, 64
2, 119460, Note_on_c, 0, 74, 110
2, 119508, Note_off_c, 0, 74, 64
2, 119520, Note_on_c, 0, 70, 110
2, 119616, Note_off_c, 0, 70, 64
2, 119640, Note_on_c, 0, 80, 110
2, 119832, Note_off_c, 0, 80, 64
2, 119880, Note_on_c, 0, 78, 110
2, 120000, Note_on_c, 0, 63, 110
2, 120000, Note_on_c, 0, 70, 110
2, 120057, Note_off_c, 0, 78, 64
2, 120060, Note_on_c, 0, 75, 110
2, 120108, Note_off_c, 0, 75, 64
2, 120120, Note_on_c, 0, 74, 110
2, 120168, Note_off_c, 0, 74, 64
2, 120180, Note_on_c, 0, 75, 110
2, 120192, Note_off_c, 0, 70, 64
2, 120192, Note_off_c, 0, 63, 64
2, 120228, Note_off_c, 0, 75, 64
2, 120240, Note_on_c, 0, 82, 110
2, 120240, Note_on_c, 0, 65, 110
2, 120432, Note_off_c, 0, 65, 64
2, 120480, Note_on_c, 0, 66, 110
2, 120576, Note_off_c, 0, 82, 64
2, 120600, Note_on_c, 0, 81, 110
2, 120648, Note_off_c, 0, 81, 64
2, 120660, Note_on_c, 0, 82, 110
2, 120672, Note_off_c, 0, 66, 64
2, 120708, Note_off_c, 0, 82, 64
2, 120720, Note_on_c, 0, 83, 110
2, 120720, Note_on_c, 0, 63, 110
2, 120720, Note_on_c, 0, 66, 110
2, 120768, Note_off_c, 0, 83, 64
2, 120780, Note_on_c, 0, 82, 110
2, 120828, Note_off_c, 0, 82, 64
2, 120840, Note_on_c, 0, 81, 110
2, 120888, Note_off_c, 0, 81, 64
2, 120900, Note_on_c, 0, 82, 110
2, 120912, Note_off_c, 0, 66, 64
2, 120912, Note_off_c, 0, 63, 64
2, 120948, Note_off_c, 0, 82, 64
2, 120960, Note_on_c, 0, 65, 110
2, 120960, Note_on_c, 0, 75, 110
2, 120960, Note_on_c, 0, 68, 110
2, 121056, Note_off_c, 0, 75, 64
2, 121080, Note_on_c, 0, 74, 110
2, 121152, Note_off_c, 0, 68, 64
2, 121152, Note_off_c, 0, 65, 64
2, 121200, Note_on_c, 0, 66, 110
2, 121200, Note_on_c, 0, 63, 110
2, 121248, Note_off_c, 0, 74, 64
2, 121260, Note_on_c, 0, 75, 110
2, 121308, Note_off_c, 0, 75, 64
2, 121320, Note_on_c, 0, 77, 110
2, 121368, Note_off_c, 0, 77, 64
2, 121380, Note_on_c, 0, 74, 110
2, 121392, Note_off_c, 0, 63, 64
2, 121392, Note_off_c, 0, 66, 64
2, 121428, Note_off_c, 0, 74, 64
2, 121440, Note_on_c, 0, 62, 110
2, 121440, Note_on_c, 0, 70, 110
2, 121440, Note_on_c, 0, 65, 110
2, 121536, Note_off_c, 0, 70, 64
2, 121560, Note_on_c, 0, 80, 110
2, 121632, Note_off_c, 0, 65, 64
2, 121632, Note_off_c, 0, 62, 64
2, 121680, Note_on_c, 0, 62, 110
2, 121680, Note_on_c, 0, 58, 110
2, 121752, Note_off_c, 0, 80, 64
2, 121800, Note_on_c, 0, 78, 110
2, 121872, Note_off_c, 0, 58, 64
2, 121872, Note_off_c, 0, 62, 64
2, 121920, Note_on_c, 0, 63, 110
2, 121920, Note_on_c, 0, 70, 110
2, 122016, Note_off_c, 0, 78, 64
2, 122040, Note_on_c, 0, 77, 110
2, 122088, Note_off_c, 0, 77, 64
2, 122100, Note_on_c, 0, 75, 110
2, 122112, Note_off_c, 0, 70, 64
2, 122112, Note_off_c, 0, 63, 64
2, 122148, Note_off_c, 0, 75, 64
2, 122160, Note_on_c, 0, 77, 110
2, 122160, Note_on_c, 0, 68, 110
2, 122160, Note_on_c, 0, 56, 110
2, 122256, Note_off_c, 0, 77, 64
2, 122280, Note_on_c, 0, 72, 110
2, 122352, Note_off_c, 0, 56, 64
2, 122352, Note_off_c, 0, 68, 64
2, 122376, Note_off_c, 0, 72, 64
2, 122400, Note_on_c, 0, 66, 110
2, 122400, Note_on_c, 0, 75, 110
2, 122400, Note_on_c, 0, 58, 110
2, 122592, Note_off_c, 0, 75, 64
2, 122592, Note_off_c, 0, 66, 64
2, 122640, Note_on_c, 0, 74, 110
2, 122640, Note_on_c, 0, 65, 110
2, 122784, Note_off_c, 0, 74, 64
2, 122784, Note_off_c, 0, 58, 64
2, 122820, Note_on_c, 0, 75, 110
2, 122832, Note_off_c, 0, 65, 64
2, 122868, Note_off_c, 0, 75, 64
2, 122880, Note_on_c, 0, 75, 110
2, 123060, Note_on_c, 0, 72, 110
2, 123060, Note_on_c, 0, 68, 110
2, 123108, Note_off_c, 0, 68, 64
2, 123108, Note_off_c, 0, 72, 64
2, 123120, Note_on_c, 0, 70, 110
2, 123120, Note_on_c, 0, 67, 110
2, 123264, Note_off_c, 0, 67, 64
2, 123264, Note_off_c, 0, 70, 64
2, 123300, Note_on_c, 0, 65, 110
2, 123300, Note_on_c, 0, 68, 110
2, 123348, Note_off_c, 0, 68, 64
2, 123348, Note_off_c, 0, 65, 64
2, 123360, Note_on_c, 0, 67, 110
2, 123360, Note_on_c, 0, 70, 110
2, 123504, Note_off_c, 0, 70, 64
2, 123504, Note_off_c, 0, 67, 64
2, 123540, Note_on_c, 0, 68, 110
2, 123540, Note_on_c, 0, 65, 110
2, 123588, Note_off_c, 0, 65, 64
2, 123588, Note_off_c, 0, 68, 64
2, 123600, Note_on_c, 0, 67, 110
2, 123600, Note_on_c, 0, 63, 110
2, 123744, Note_off_c, 0, 63, 64
2, 123744, Note_off_c, 0, 67, 64
2, 123780, Note_on_c, 0, 65, 110
2, 123780, Note_on_c, 0, 62, 110
2, 123828, Note_off_c, 0, 62, 64
2, 123828, Note_off_c, 0, 65, 64
2, 123840, Note_on_c, 0, 67, 110
2, 123840, Note_on_c, 0, 63, 110
2, 123936, Note_off_c, 0, 63, 64
2, 124032, Note_off_c, 0, 75, 64
2, 124032, Note_off_c, 0, 67, 64
2, 125880, Note_on_c, 0, 70, 96
2, 126072, Note_off_c, 0, 70, 64
2, 126120, Note_on_c, 0, 70, 96
2, 126288, Note_off_c, 0, 70, 64
2, 126300, Note_on_c, 0, 69, 96
2, 126348, Note_off_c, 0, 69, 64
2, 126360, Note_on_c, 0, 67, 96
2, 126408, Note_off_c, 0, 67, 64
2, 126420, Note_on_c, 0, 65, 96
2, 126468, Note_off_c, 0, 65, 64
2, 126480, Note_on_c, 0, 63, 96
2, 126528, Note_off_c, 0, 63, 64
2, 126540, Note_on_c, 0, 62, 96
2, 126588, Note_off_c, 0, 62, 64
2, 126600, Note_on_c, 0, 60, 96
2, 126648, Note_off_c, 0, 60, 64
2, 126660, Note_on_c, 0, 58, 96
2, 126708, Note_off_c, 0, 58, 64
2, 126720, Note_on_c, 0, 57, 96
2, 126768, Note_off_c, 0, 57, 64
2, 126780, Note_on_c, 0, 60, 96
2, 126828, Note_off_c, 0, 60, 64
2, 126840, Note_on_c, 0, 57, 96
2, 126888, Note_off_c, 0, 57, 64
2, 126900, Note_on_c, 0, 60, 96
2, 126948, Note_off_c, 0, 60, 64
2, 126960, Note_on_c, 0, 58, 96
2, 127008, Note_off_c, 0, 58, 64
2, 127020, Note_on_c, 0, 62, 96
2, 127068, Note_off_c, 0, 62, 64
2, 127080, Note_on_c, 0, 58, 96
2, 127128, Note_off_c, 0, 58, 64
2, 127140, Note_on_c, 0, 62, 96
2, 127188, Note_off_c, 0, 62, 64
2, 127200, Note_on_c, 0, 58, 96
2, 127248, Note_off_c, 0, 58, 64
2, 127260, Note_on_c, 0, 63, 96
2, 127308, Note_off_c, 0, 63, 64
2, 127320, Note_on_c, 0, 58, 96
2, 127368, Note_off_c, 0, 58, 64
2, 127380, Note_on_c, 0, 63, 96
2, 127428, Note_off_c, 0, 63, 64
2, 127440, Note_on_c, 0, 57, 96
2, 127488, Note_off_c, 0, 57, 64
2, 127500, Note_on_c, 0, 63, 96
2, 127548, Note_off_c, 0, 63, 64
2, 127560, Note_on_c, 0, 57, 96
2, 127608, Note_off_c, 0, 57, 64
2, 127620, Note_on_c, 0, 63, 96
2, 127668, Note_off_c, 0, 63, 64
2, 127680, Note_on_c, 0, 62, 96
2, 127728, Note_off_c, 0, 62, 64
2, 127740, Note_on_c, 0, 60, 96
2, 127788, Note_off_c, 0, 60, 64
2, 127800, Note_on_c, 0, 58, 96
2, 127848, Note_off_c, 0, 58, 64
2, 127860, Note_on_c, 0, 57, 96
2, 127908, Note_off_c, 0, 57, 64
2, 127920, Note_on_c, 0, 58, 96
2, 127968, Note_off_c, 0, 58, 64
2, 127980, Note_on_c, 0, 62, 96
2, 128028, Note_off_c, 0, 62, 64
2, 128040, Note_on_c, 0, 58, 96
2, 128088, Note_off_c, 0, 58, 64
2, 128100, Note_on_c, 0, 62, 96
2, 128148, Note_off_c, 0, 62, 64
2, 128160, Note_on_c, 0, 67, 96
2, 128688, Note_off_c, 0, 67, 64
2, 128700, Note_on_c, 0, 67, 96
2, 128748, Note_off_c, 0, 67, 64
2, 128760, Note_on_c, 0, 65, 96
2, 128808, Note_off_c, 0, 65, 64
2, 128820, Note_on_c, 0, 64, 96
2, 128868, Note_off_c, 0, 64, 64
2, 128880, Note_on_c, 0, 65, 96
2, 128928, Note_off_c, 0, 65, 64
2, 128940, Note_on_c, 0, 68, 96
2, 128988, Note_off_c, 0, 68, 64
2, 129000, Note_on_c, 0, 65, 96
2, 129048, Note_off_c, 0, 65, 64
2, 129060, Note_on_c, 0, 68, 96
2, 129108, Note_off_c, 0, 68, 64
2, 129120, Note_on_c, 0, 62, 96
2, 129168, Note_off_c, 0, 62, 64
2, 129180, Note_on_c, 0, 65, 96
2, 129228, Note_off_c, 0, 65, 64
2, 129240, Note_on_c, 0, 63, 96
2, 129288, Note_off_c, 0, 63, 64
2, 129300, Note_on_c, 0, 62, 96
2, 129348, Note_off_c, 0, 62, 64
2, 129360, Note_on_c, 0, 63, 96
2, 129408, Note_off_c, 0, 63, 64
2, 129420, Note_on_c, 0, 67, 96
2, 129468, Note_off_c, 0, 67, 64
2, 129480, Note_on_c, 0, 63, 96
2, 129528, Note_off_c, 0, 63, 64
2, 129540, Note_on_c, 0, 67, 96
2, 129588, Note_off_c, 0, 67, 64
2, 129600, Note_on_c, 0, 60, 96
2, 129720, Note_on_c, 0, 75, 96
2, 129792, Note_off_c, 0, 60, 64
2, 129840, Note_on_c, 0, 68, 96
2, 129912, Note_off_c, 0, 75, 64
2, 129960, Note_on_c, 0, 75, 96
2, 130032, Note_off_c, 0, 68, 64
2, 130080, Note_on_c, 0, 67, 96
2, 130128, Note_off_c, 0, 75, 64
2, 130140, Note_on_c, 0, 74, 96
2, 130188, Note_off_c, 0, 74, 64
2, 130200, Note_on_c, 0, 72, 96
2, 130248, Note_off_c, 0, 72, 64
2, 130260, Note_on_c, 0, 70, 96
2, 130272, Note_off_c, 0, 67, 64
2, 130308, Note_off_c, 0, 70, 64
2, 130320, Note_on_c, 0, 65, 96
2, 130320, Note_on_c, 0, 68, 96
2, 130368, Note_off_c, 0, 68, 64
2, 130368, Note_off_c, 0, 65, 64
2, 130380, Note_on_c, 0, 67, 96
2, 130380, Note_on_c, 0, 63, 96
2, 130428, Note_off_c, 0, 63, 64
2, 130428, Note_off_c, 0, 67, 64
2, 130440, Note_on_c, 0, 65, 96
2, 130440, Note_on_c, 0, 62, 96
2, 130488, Note_off_c, 0, 62, 64
2, 130488, Note_off_c, 0, 65, 64
2, 130500, Note_on_c, 0, 60, 96
2, 130500, Note_on_c, 0, 63, 96
2, 130548, Note_off_c, 0, 63, 64
2, 130548, Note_off_c, 0, 60, 64
2, 130560, Note_on_c, 0, 62, 96
2, 130608, Note_off_c, 0, 62, 64
2, 130620, Note_on_c, 0, 65, 96
2, 130668, Note_off_c, 0, 65, 64
2, 130680, Note_on_c, 0, 62, 96
2, 130728, Note_off_c, 0, 62, 64
2, 130740, Note_on_c, 0, 65, 96
2, 130788, Note_off_c, 0, 65, 64
2, 130800, Note_on_c, 0, 63, 96
2, 130848, Note_off_c, 0, 63, 64
2, 130860, Note_on_c, 0, 67, 96
2, 130908, Note_off_c, 0, 67, 64
2, 130920, Note_on_c, 0, 63, 96
2, 130968, Note_off_c, 0, 63, 64
2, 130980, Note_on_c, 0, 67, 96
2, 131028, Note_off_c, 0, 67, 64
2, 131040, Note_on_c, 0, 63, 96
2, 131088, Note_off_c, 0, 63, 64
2, 131100, Note_on_c, 0, 68, 96
2, 131148, Note_off_c, 0, 68, 64
2, 131160, Note_on_c, 0, 63, 96
2, 131208, Note_off_c, 0, 63, 64
2, 131220, Note_on_c, 0, 68, 96
2, 131268, Note_off_c, 0, 68, 64
2, 131280, Note_on_c, 0, 62, 96
2, 131328, Note_off_c, 0, 62, 64
2, 131340, Note_on_c, 0, 68, 96
2, 131388, Note_off_c, 0, 68, 64
2, 131400, Note_on_c, 0, 62, 96
2, 131448, Note_off_c, 0, 62, 64
2, 131460, Note_on_c, 0, 68, 96
2, 131508, Note_off_c, 0, 68, 64
2, 131520, Note_on_c, 0, 67, 96
2, 131568, Note_off_c, 0, 67, 64
2, 131580, Note_on_c, 0, 65, 96
2, 131628, Note_off_c, 0, 65, 64
2, 131640, Note_on_c, 0, 63, 96
2, 131688, Note_off_c, 0, 63, 64
2, 131700, Note_on_c, 0, 62, 96
2, 131748, Note_off_c, 0, 62, 64
2, 131760, Note_on_c, 0, 63, 96
2, 131808, Note_off_c, 0, 63, 64
2, 131820, Note_on_c, 0, 67, 96
2, 131868, Note_off_c, 0, 67, 64
2, 131880, Note_on_c, 0, 63, 96
2, 131928, Note_off_c, 0, 63, 64
2, 131940, Note_on_c, 0, 67, 96
2, 131988, Note_off_c, 0, 67, 64
2, 132000, Note_on_c, 0, 72, 96
2, 132528, Note_off_c, 0, 72, 64
2, 132540, Note_on_c, 0, 63, 96
2, 132588, Note_off_c, 0, 63, 64
2, 132600, Note_on_c, 0, 62, 96
2, 132648, Note_off_c, 0, 62, 64
2, 132660, Note_on_c, 0, 60, 96
2, 132708, Note_off_c, 0, 60, 64
2, 132720, Note_on_c, 0, 62, 96
2, 132768, Note_off_c, 0, 62, 64
2, 132780, Note_on_c, 0, 65, 96
2, 132828, Note_off_c, 0, 65, 64
2, 132840, Note_on_c, 0, 62, 96
2, 132888, Note_off_c, 0, 62, 64
2, 132900, Note_on_c, 0, 65, 96
2, 132948, Note_off_c, 0, 65, 64
2, 132960, Note_on_c, 0, 70, 96
2, 133488, Note_off_c, 0, 70, 64
2, 133500, Note_on_c, 0, 62, 96
2, 133548, Note_off_c, 0, 62, 64
2, 133560, Note_on_c, 0, 60, 96
2, 133608, Note_off_c, 0, 60, 64
2, 133620, Note_on_c, 0, 58, 96
2, 133668, Note_off_c, 0, 58, 64
2, 133680, Note_on_c, 0, 60, 96
2, 133728, Note_off_c, 0, 60, 64
2, 133740, Note_on_c, 0, 63, 96
2, 133788, Note_off_c, 0, 63, 64
2, 133800, Note_on_c, 0, 60, 96
2, 133848, Note_off_c, 0, 60, 64
2, 133860, Note_on_c, 0, 63, 96
2, 133908, Note_off_c, 0, 63, 64
2, 133920, Note_on_c, 0, 69, 96
2, 133968, Note_off_c, 0, 69, 64
2, 133980, Note_on_c, 0, 70, 96
2, 134028, Note_off_c, 0, 70, 64
2, 134040, Note_on_c, 0, 69, 96
2, 134088, Note_off_c, 0, 69, 64
2, 134100, Note_on_c, 0, 67, 96
2, 134148, Note_off_c, 0, 67, 64
2, 134160, Note_on_c, 0, 69, 96
2, 134208, Note_off_c, 0, 69, 64
2, 134220, Note_on_c, 0, 72, 96
2, 134268, Note_off_c, 0, 72, 64
2, 134280, Note_on_c, 0, 69, 96
2, 134328, Note_off_c, 0, 69, 64
2, 134340, Note_on_c, 0, 72, 96
2, 134388, Note_off_c, 0, 72, 64
2, 134400, Note_on_c, 0, 74, 96
2, 134448, Note_off_c, 0, 74, 64
2, 134460, Note_on_c, 0, 75, 96
2, 134508, Note_off_c, 0, 75, 64
2, 134520, Note_on_c, 0, 74, 96
2, 134568, Note_off_c, 0, 74, 64
2, 134580, Note_on_c, 0, 72, 96
2, 134628, Note_off_c, 0, 72, 64
2, 134640, Note_on_c, 0, 74, 96
2, 134688, Note_off_c, 0, 74, 64
2, 134700, Note_on_c, 0, 77, 96
2, 134748, Note_off_c, 0, 77, 64
2, 134760, Note_on_c, 0, 74, 96
2, 134808, Note_off_c, 0, 74, 64
2, 134820, Note_on_c, 0, 77, 96
2, 134868, Note_off_c, 0, 77, 64
2, 134880, Note_on_c, 0, 82, 96
2, 134928, Note_off_c, 0, 82, 64
2, 134940, Note_on_c, 0, 81, 96
2, 134988, Note_off_c, 0, 81, 64
2, 135000, Note_on_c, 0, 79, 96
2, 135048, Note_off_c, 0, 79, 64
2, 135060, Note_on_c, 0, 77, 96
2, 135108, Note_off_c, 0, 77, 64
2, 135120, Note_on_c, 0, 75, 96
2, 135168, Note_off_c, 0, 75, 64
2, 135180, Note_on_c, 0, 74, 96
2, 135228, Note_off_c, 0, 74, 64
2, 135240, Note_on_c, 0, 72, 96
2, 135288, Note_off_c, 0, 72, 64
2, 135300, Note_on_c, 0, 70, 96
2, 135348, Note_off_c, 0, 70, 64
2, 135360, Note_on_c, 0, 69, 96
2, 135408, Note_off_c, 0, 69, 64
2, 135420, Note_on_c, 0, 72, 96
2, 135468, Note_off_c, 0, 72, 64
2, 135480, Note_on_c, 0, 69, 96
2, 135528, Note_off_c, 0, 69, 64
2, 135540, Note_on_c, 0, 72, 96
2, 135588, Note_off_c, 0, 72, 64
2, 135600, Note_on_c, 0, 70, 96
2, 135648, Note_off_c, 0, 70, 64
2, 135660, Note_on_c, 0, 74, 96
2, 135708, Note_off_c, 0, 74, 64
2, 135720, Note_on_c, 0, 70, 96
2, 135768, Note_off_c, 0, 70, 64
2, 135780, Note_on_c, 0, 74, 96
2, 135828, Note_off_c, 0, 74, 64
2, 135840, Note_on_c, 0, 70, 96
2, 135888, Note_off_c, 0, 70, 64
2, 135900, Note_on_c, 0, 75, 96
2, 135948, Note_off_c, 0, 75, 64
2, 135960, Note_on_c, 0, 70, 96
2, 136008, Note_off_c, 0, 70, 64
2, 136020, Note_on_c, 0, 75, 96
2, 136068, Note_off_c, 0, 75, 64
2, 136080, Note_on_c, 0, 69, 96
2, 136128, Note_off_c, 0, 69, 64
2, 136140, Note_on_c, 0, 75, 96
2, 136188, Note_off_c, 0, 75, 64
2, 136200, Note_on_c, 0, 69, 96
2, 136248, Note_off_c, 0, 69, 64
2, 136260, Note_on_c, 0, 75, 96
2, 136308, Note_off_c, 0, 75, 64
2, 136320, Note_on_c, 0, 74, 96
2, 136368, Note_off_c, 0, 74, 64
2, 136380, Note_on_c, 0, 75, 96
2, 136428, Note_off_c, 0, 75, 64
2, 136440, Note_on_c, 0, 74, 96
2, 136488, Note_off_c, 0, 74, 64
2, 136500, Note_on_c, 0, 72, 96
2, 136548, Note_off_c, 0, 72, 64
2, 136560, Note_on_c, 0, 74, 96
2, 136608, Note_off_c, 0, 74, 64
2, 136620, Note_on_c, 0, 72, 96
2, 136668, Note_off_c, 0, 72, 64
2, 136680, Note_on_c, 0, 70, 96
2, 136728, Note_off_c, 0, 70, 64
2, 136740, Note_on_c, 0, 69, 96
2, 136788, Note_off_c, 0, 69, 64
2, 136800, Note_on_c, 0, 70, 96
2, 136848, Note_off_c, 0, 70, 64
2, 136860, Note_on_c, 0, 72, 96
2, 136908, Note_off_c, 0, 72, 64
2, 136920, Note_on_c, 0, 70, 96
2, 136968, Note_off_c, 0, 70, 64
2, 136980, Note_on_c, 0, 69, 96
2, 137028, Note_off_c, 0, 69, 64
2, 137040, Note_on_c, 0, 70, 96
2, 137088, Note_off_c, 0, 70, 64
2, 137100, Note_on_c, 0, 68, 96
2, 137148, Note_off_c, 0, 68, 64
2, 137160, Note_on_c, 0, 67, 96
2, 137208, Note_off_c, 0, 67, 64
2, 137220, Note_on_c, 0, 65, 96
2, 137268, Note_off_c, 0, 65, 64
2, 137280, Note_on_c, 0, 67, 96
2, 137376, Note_off_c, 0, 67, 64
2, 138720, Note_on_c, 0, 80, 110
2, 138960, Note_on_c, 0, 77, 110
2, 139104, Note_off_c, 0, 80, 64
2, 139200, Note_on_c, 0, 62, 110
2, 139200, Note_on_c, 0, 79, 110
2, 139392, Note_off_c, 0, 77, 64
2, 139392, Note_off_c, 0, 62, 64
2, 139440, Note_on_c, 0, 63, 110
2, 139440, Note_on_c, 0, 75, 110
2, 139584, Note_off_c, 0, 79, 64
2, 139632, Note_off_c, 0, 75, 64
2, 139632, Note_off_c, 0, 63, 64
2, 139680, Note_on_c, 0, 65, 110
2, 139680, Note_on_c, 0, 77, 110
2, 139680, Note_on_c, 0, 74, 110
2, 139872, Note_off_c, 0, 65, 64
2, 139920, Note_on_c, 0, 67, 110
2, 140064, Note_off_c, 0, 74, 64
2, 140064, Note_off_c, 0, 77, 64
2, 140160, Note_on_c, 0, 72, 110
2, 140160, Note_on_c, 0, 75, 110
2, 140160, Note_on_c, 0, 60, 110
2, 140208, Note_off_c, 0, 75, 64
2, 140220, Note_on_c, 0, 77, 110
2, 140256, Note_off_c, 0, 67, 64
2, 140256, Note_off_c, 0, 60, 64
2, 140256, Note_off_c, 0, 72, 64
2, 140268, Note_off_c, 0, 77, 64
2, 140280, Note_on_c, 0, 59, 110
2, 140280, Note_on_c, 0, 75, 110
2, 140328, Note_off_c, 0, 75, 64
2, 140340, Note_on_c, 0, 74, 110
2, 140376, Note_off_c, 0, 59, 64
2, 140388, Note_off_c, 0, 74, 64
2, 140400, Note_on_c, 0, 75, 110
2, 140400, Note_on_c, 0, 60, 110
2, 140448, Note_off_c, 0, 75, 64
2, 140460, Note_on_c, 0, 74, 110
2, 140496, Note_off_c, 0, 60, 64
2, 140508, Note_off_c, 0, 74, 64
2, 140520, Note_on_c, 0, 72, 110
2, 140520, Note_on_c, 0, 62, 110
2, 140568, Note_off_c, 0, 72, 64
2, 140580, Note_on_c, 0, 71, 110
2, 140616, Note_off_c, 0, 62, 64
2, 140628, Note_off_c, 0, 71, 64
2, 140640, Note_on_c, 0, 63, 110
2, 140640, Note_on_c, 0, 72, 110
2, 140688, Note_off_c, 0, 72, 64
2, 140700, Note_on_c, 0, 74, 110
2, 140736, Note_off_c, 0, 63, 64
2, 140748, Note_off_c, 0, 74, 64
2, 140760, Note_on_c, 0, 72, 110
2, 140760, Note_on_c, 0, 60, 110
2, 140808, Note_off_c, 0, 72, 64
2, 140820, Note_on_c, 0, 71, 110
2, 140856, Note_off_c, 0, 60, 64
2, 140868, Note_off_c, 0, 71, 64
2, 140880, Note_on_c, 0, 72, 110
2, 140880, Note_on_c, 0, 62, 110
2, 140928, Note_off_c, 0, 72, 64
2, 140940, Note_on_c, 0, 70, 110
2, 140976, Note_off_c, 0, 62, 64
2, 140988, Note_off_c, 0, 70, 64
2, 141000, Note_on_c, 0, 69, 110
2, 141000, Note_on_c, 0, 64, 110
2, 141048, Note_off_c, 0, 69, 64
2, 141060, Note_on_c, 0, 67, 110
2, 141096, Note_off_c, 0, 64, 64
2, 141108, Note_off_c, 0, 67, 64
2, 141120, Note_on_c, 0, 69, 110
2, 141120, Note_on_c, 0, 65, 110
2, 141168, Note_off_c, 0, 65, 64
2, 141180, Note_on_c, 0, 70, 110
2, 141216, Note_off_c, 0, 69, 64
2, 141228, Note_off_c, 0, 70, 64
2, 141240, Note_on_c, 0, 69, 110
2, 141288, Note_off_c, 0, 69, 64
2, 141300, Note_on_c, 0, 67, 110
2, 141348, Note_off_c, 0, 67, 64
2, 141360, Note_on_c, 0, 69, 110
2, 141408, Note_off_c, 0, 69, 64
2, 141420, Note_on_c, 0, 67, 110
2, 141468, Note_off_c, 0, 67, 64
2, 141480, Note_on_c, 0, 65, 110
2, 141528, Note_off_c, 0, 65, 64
2, 141540, Note_on_c, 0, 64, 110
2, 141588, Note_off_c, 0, 64, 64
2, 141600, Note_on_c, 0, 65, 110
2, 141648, Note_off_c, 0, 65, 64
2, 141660, Note_on_c, 0, 67, 110
2, 141708, Note_off_c, 0, 67, 64
2, 141720, Note_on_c, 0, 65, 110
2, 141768, Note_off_c, 0, 65, 64
2, 141780, Note_on_c, 0, 64, 110
2, 141828, Note_off_c, 0, 64, 64
2, 141840, Note_on_c, 0, 65, 110
2, 141888, Note_off_c, 0, 65, 64
2, 141900, Note_on_c, 0, 63, 110
2, 141948, Note_off_c, 0, 63, 64
2, 141960, Note_on_c, 0, 62, 110
2, 142008, Note_off_c, 0, 62, 64
2, 142020, Note_on_c, 0, 60, 110
2, 142068, Note_off_c, 0, 60, 64
2, 142080, Note_on_c, 0, 62, 110
2, 142560, Note_on_c, 0, 79, 110
2, 142656, Note_off_c, 0, 62, 64
2, 142680, Note_on_c, 0, 65, 110
2, 142776, Note_off_c, 0, 65, 64
2, 142800, Note_on_c, 0, 63, 110
2, 142800, Note_on_c, 0, 75, 110
2, 142896, Note_off_c, 0, 63, 64
2, 142920, Note_on_c, 0, 62, 110
2, 142944, Note_off_c, 0, 79, 64
2, 143016, Note_off_c, 0, 62, 64
2, 143040, Note_on_c, 0, 60, 110
2, 143040, Note_on_c, 0, 77, 110
2, 143232, Note_off_c, 0, 75, 64
2, 143232, Note_off_c, 0, 60, 64
2, 143280, Note_on_c, 0, 62, 110
2, 143280, Note_on_c, 0, 74, 110
2, 143424, Note_off_c, 0, 77, 64
2, 143472, Note_off_c, 0, 74, 64
2, 143472, Note_off_c, 0, 62, 64
2, 143520, Note_on_c, 0, 75, 110
2, 143520, Note_on_c, 0, 72, 110
2, 143520, Note_on_c, 0, 63, 110
2, 143712, Note_off_c, 0, 63, 64
2, 143760, Note_on_c, 0, 65, 110
2, 143904, Note_off_c, 0, 72, 64
2, 143904, Note_off_c, 0, 75, 64
2, 144000, Note_on_c, 0, 70, 110
2, 144000, Note_on_c, 0, 74, 110
2, 144048, Note_off_c, 0, 65, 64
2, 144060, Note_on_c, 0, 67, 110
2, 144108, Note_off_c, 0, 67, 64
2, 144120, Note_on_c, 0, 65, 110
2, 144168, Note_off_c, 0, 65, 64
2, 144180, Note_on_c, 0, 64, 110
2, 144192, Note_off_c, 0, 74, 64
2, 144192, Note_off_c, 0, 70, 64
2, 144228, Note_off_c, 0, 64, 64
2, 144240, Note_on_c, 0, 82, 110
2, 144240, Note_on_c, 0, 73, 110
2, 144240, Note_on_c, 0, 79, 110
2, 144432, Note_off_c, 0, 79, 64
2, 144432, Note_off_c, 0, 73, 64
2, 144432, Note_off_c, 0, 82, 64
2, 144480, Note_on_c, 0, 80, 110
2, 144480, Note_on_c, 0, 79, 110
2, 144480, Note_on_c, 0, 72, 110
2, 144576, Note_off_c, 0, 79, 64
2, 144600, Note_on_c, 0, 77, 110
2, 144696, Note_off_c, 0, 77, 64
2, 144720, Note_on_c, 0, 73, 110
2, 144768, Note_off_c, 0, 72, 64
2, 144840, Note_on_c, 0, 70, 110
2, 144864, Note_off_c, 0, 80, 64
2, 144960, Note_on_c, 0, 79, 110
2, 145056, Note_off_c, 0, 73, 64
2, 145080, Note_on_c, 0, 72, 110
2, 145152, Note_off_c, 0, 70, 64
2, 145152, Note_off_c, 0, 79, 64
2, 145200, Note_on_c, 0, 68, 110
2, 145296, Note_off_c, 0, 72, 64
2, 145320, Note_on_c, 0, 72, 110
2, 145392, Note_off_c, 0, 68, 64
2, 145416, Note_off_c, 0, 72, 64
2, 145440, Note_on_c, 0, 73, 110
2, 145560, Note_on_c, 0, 70, 110
2, 145656, Note_off_c, 0, 70, 64
2, 145665, Note_off_c, 0, 73, 64
2, 145680, Note_on_c, 0, 67, 110
2, 145800, Note_on_c, 0, 72, 110
2, 145872, Note_off_c, 0, 67, 64
2, 145920, Note_on_c, 0, 65, 110
2, 146400, Note_on_c, 0, 77, 110
2, 146496, Note_off_c, 0, 72, 64
2, 146496, Note_off_c, 0, 65, 64
2, 146520, Note_on_c, 0, 65, 110
2, 146520, Note_on_c, 0, 75, 110
2, 146616, Note_off_c, 0, 75, 64
2, 146616, Note_off_c, 0, 65, 64
2, 146640, Note_on_c, 0, 67, 110
2, 146640, Note_on_c, 0, 73, 110
2, 146736, Note_off_c, 0, 73, 64
2, 146736, Note_off_c, 0, 67, 64
2, 146760, Note_on_c, 0, 72, 110
2, 146760, Note_on_c, 0, 68, 110
2, 146784, Note_off_c, 0, 77, 64
2, 146856, Note_off_c, 0, 68, 64
2, 146856, Note_off_c, 0, 72, 64
2, 146880, Note_on_c, 0, 70, 110
2, 146880, Note_on_c, 0, 75, 110
2, 146880, Note_on_c, 0, 70, 110
2, 147072, Note_off_c, 0, 70, 64
2, 147072, Note_off_c, 0, 70, 64
2, 147120, Note_on_c, 0, 63, 110
2, 147120, Note_on_c, 0, 68, 110
2, 147264, Note_off_c, 0, 75, 64
2, 147312, Note_off_c, 0, 68, 64
2, 147312, Note_off_c, 0, 63, 64
2, 147360, Note_on_c, 0, 70, 110
2, 147360, Note_on_c, 0, 65, 110
2, 147360, Note_on_c, 0, 73, 110
2, 147552, Note_off_c, 0, 65, 64
2, 147600, Note_on_c, 0, 63, 110
2, 147744, Note_off_c, 0, 73, 64
2, 147840, Note_on_c, 0, 72, 120
2, 147888, Note_off_c, 0, 70, 64
2, 147900, Note_on_c, 0, 70, 120
2, 147948, Note_off_c, 0, 70, 64
2, 147960, Note_on_c, 0, 68, 120
2, 148008, Note_off_c, 0, 68, 64
2, 148020, Note_on_c, 0, 67, 120
2, 148032, Note_off_c, 0, 63, 64
2, 148068, Note_off_c, 0, 67, 64
2, 148080, Note_on_c, 0, 60, 120
2, 148080, Note_on_c, 0, 65, 120
2, 148128, Note_off_c, 0, 65, 64
2, 148140, Note_on_c, 0, 68, 120
2, 148188, Note_off_c, 0, 68, 64
2, 148200, Note_on_c, 0, 65, 120
2, 148224, Note_off_c, 0, 72, 64
2, 148248, Note_off_c, 0, 65, 64
2, 148260, Note_on_c, 0, 68, 120
2, 148272, Note_off_c, 0, 60, 64
2, 148308, Note_off_c, 0, 68, 64
2, 148320, Note_on_c, 0, 74, 120
2, 148320, Note_on_c, 0, 58, 120
2, 148320, Note_on_c, 0, 62, 120
2, 148368, Note_off_c, 0, 58, 64
2, 148416, Note_off_c, 0, 62, 64
2, 148440, Note_on_c, 0, 65, 120
2, 148536, Note_off_c, 0, 65, 64
2, 148560, Note_on_c, 0, 70, 120
2, 148704, Note_off_c, 0, 74, 64
2, 148800, Note_on_c, 0, 75, 120
2, 148848, Note_off_c, 0, 70, 64
2, 148860, Note_on_c, 0, 73, 120
2, 148908, Note_off_c, 0, 73, 64
2, 148920, Note_on_c, 0, 72, 120
2, 148968, Note_off_c, 0, 72, 64
2, 148980, Note_on_c, 0, 70, 120
2, 149028, Note_off_c, 0, 70, 64
2, 149040, Note_on_c, 0, 68, 120
2, 149088, Note_off_c, 0, 68, 64
2, 149100, Note_on_c, 0, 72, 120
2, 149148, Note_off_c, 0, 72, 64
2, 149160, Note_on_c, 0, 68, 120
2, 149184, Note_off_c, 0, 75, 64
2, 149208, Note_off_c, 0, 68, 64
2, 149220, Note_on_c, 0, 72, 120
2, 149268, Note_off_c, 0, 72, 64
2, 149280, Note_on_c, 0, 65, 120
2, 149280, Note_on_c, 0, 77, 120
2, 149376, Note_off_c, 0, 65, 64
2, 149400, Note_on_c, 0, 67, 120
2, 149496, Note_off_c, 0, 67, 64
2, 149520, Note_on_c, 0, 68, 120
2, 149712, Note_off_c, 0, 68, 64
2, 149760, Note_on_c, 0, 67, 120
2, 149808, Note_off_c, 0, 77, 64
2, 149820, Note_on_c, 0, 70, 120
2, 149868, Note_off_c, 0, 70, 64
2, 149880, Note_on_c, 0, 75, 120
2, 149904, Note_off_c, 0, 67, 64
2, 149940, Note_on_c, 0, 68, 120
2, 149988, Note_off_c, 0, 68, 64
2, 150000, Note_on_c, 0, 70, 120
2, 150048, Note_off_c, 0, 75, 64
2, 150060, Note_on_c, 0, 74, 120
2, 150108, Note_off_c, 0, 74, 64
2, 150120, Note_on_c, 0, 75, 120
2, 150144, Note_off_c, 0, 70, 64
2, 150180, Note_on_c, 0, 58, 120
2, 150228, Note_off_c, 0, 58, 64
2, 150240, Note_on_c, 0, 60, 120
2, 150288, Note_off_c, 0, 75, 64
2, 150300, Note_on_c, 0, 74, 120
2, 150348, Note_off_c, 0, 74, 64
2, 150360, Note_on_c, 0, 72, 120
2, 150408, Note_off_c, 0, 72, 64
2, 150420, Note_on_c, 0, 70, 120
2, 150468, Note_off_c, 0, 70, 64
2, 150480, Note_on_c, 0, 68, 120
2, 150528, Note_off_c, 0, 68, 64
2, 150540, Note_on_c, 0, 67, 120
2, 150588, Note_off_c, 0, 67, 64
2, 150600, Note_on_c, 0, 65, 120
2, 150624, Note_off_c, 0, 60, 64
2, 150648, Note_off_c, 0, 65, 64
2, 150660, Note_on_c, 0, 63, 120
2, 150708, Note_off_c, 0, 63, 64
2, 150720, Note_on_c, 0, 62, 120
2, 150720, Note_on_c, 0, 58, 120
2, 150768, Note_off_c, 0, 62, 64
2, 150780, Note_on_c, 0, 65, 120
2, 150828, Note_off_c, 0, 65, 64
2, 150840, Note_on_c, 0, 62, 120
2, 150888, Note_off_c, 0, 62, 64
2, 150900, Note_on_c, 0, 65, 120
2, 150912, Note_off_c, 0, 58, 64
2, 150948, Note_off_c, 0, 65, 64
2, 150960, Note_on_c, 0, 63, 120
2, 150960, Note_on_c, 0, 55, 120
2, 151008, Note_off_c, 0, 63, 64
2, 151020, Note_on_c, 0, 67, 120
2, 151068, Note_off_c, 0, 67, 64
2, 151080, Note_on_c, 0, 63, 120
2, 151128, Note_off_c, 0, 63, 64
2, 151140, Note_on_c, 0, 67, 120
2, 151152, Note_off_c, 0, 55, 64
2, 151188, Note_off_c, 0, 67, 64
2, 151200, Note_on_c, 0, 60, 120
2, 151200, Note_on_c, 0, 63, 120
2, 151248, Note_off_c, 0, 63, 64
2, 151260, Note_on_c, 0, 68, 120
2, 151308, Note_off_c, 0, 68, 64
2, 151320, Note_on_c, 0, 63, 120
2, 151368, Note_off_c, 0, 63, 64
2, 151380, Note_on_c, 0, 68, 120
2, 151392, Note_off_c, 0, 60, 64
2, 151428, Note_off_c, 0, 68, 64
2, 151440, Note_on_c, 0, 58, 120
2, 151440, Note_on_c, 0, 62, 120
2, 151488, Note_off_c, 0, 62, 64
2, 151500, Note_on_c, 0, 68, 120
2, 151548, Note_off_c, 0, 68, 64
2, 151560, Note_on_c, 0, 62, 120
2, 151608, Note_off_c, 0, 62, 64
2, 151620, Note_on_c, 0, 68, 110
2, 151668, Note_off_c, 0, 68, 64
2, 151680, Note_on_c, 0, 67, 110
2, 151728, Note_off_c, 0, 58, 64
2, 151740, Note_on_c, 0, 65, 110
2, 151788, Note_off_c, 0, 65, 64
2, 151800, Note_on_c, 0, 63, 110
2, 151848, Note_off_c, 0, 63, 64
2, 151860, Note_on_c, 0, 62, 110
2, 151908, Note_off_c, 0, 62, 64
2, 151920, Note_on_c, 0, 63, 110
2, 151968, Note_off_c, 0, 63, 64
2, 151980, Note_on_c, 0, 62, 110
2, 152028, Note_off_c, 0, 62, 64
2, 152040, Note_on_c, 0, 60, 110
2, 152088, Note_off_c, 0, 60, 64
2, 152100, Note_on_c, 0, 58, 110
2, 152148, Note_off_c, 0, 58, 64
2, 152160, Note_on_c, 0, 56, 110
2, 152208, Note_off_c, 0, 67, 64
2, 152220, Note_on_c, 0, 67, 110
2, 152268, Note_off_c, 0, 67, 64
2, 152280, Note_on_c, 0, 65, 110
2, 152328, Note_off_c, 0, 65, 64
2, 152340, Note_on_c, 0, 63, 110
2, 152352, Note_off_c, 0, 56, 64
2, 152388, Note_off_c, 0, 63, 64
2, 152400, Note_on_c, 0, 65, 110
2, 152448, Note_off_c, 0, 65, 64
2, 152460, Note_on_c, 0, 63, 110
2, 152508, Note_off_c, 0, 63, 64
2, 152520, Note_on_c, 0, 62, 110
2, 152568, Note_off_c, 0, 62, 64
2, 152580, Note_on_c, 0, 60, 110
2, 152628, Note_off_c, 0, 60, 64
2, 152640, Note_on_c, 0, 58, 110
2, 152688, Note_off_c, 0, 58, 64
2, 152700, Note_on_c, 0, 62, 110
2, 152748, Note_off_c, 0, 62, 64
2, 152760, Note_on_c, 0, 60, 110
2, 152808, Note_off_c, 0, 60, 64
2, 152820, Note_on_c, 0, 58, 110
2, 152868, Note_off_c, 0, 58, 64
2, 152880, Note_on_c, 0, 67, 110
2, 153168, Note_off_c, 0, 67, 64
2, 153180, Note_on_c, 0, 70, 110
2, 153228, Note_off_c, 0, 70, 64
2, 153240, Note_on_c, 0, 69, 110
2, 153288, Note_off_c, 0, 69, 64
2, 153300, Note_on_c, 0, 67, 110
2, 153348, Note_off_c, 0, 67, 64
2, 153360, Note_on_c, 0, 72, 110
2, 153456, Note_off_c, 0, 72, 64
2, 153480, Note_on_c, 0, 63, 110
2, 153576, Note_off_c, 0, 63, 64
2, 153600, Note_on_c, 0, 61, 110
2, 153720, Note_on_c, 0, 70, 110
2, 153792, Note_off_c, 0, 61, 64
2, 153840, Note_on_c, 0, 63, 110
2, 153912, Note_off_c, 0, 70, 64
2, 153960, Note_on_c, 0, 70, 110
2, 154032, Note_off_c, 0, 63, 64
2, 154080, Note_on_c, 0, 65, 110
2, 154128, Note_off_c, 0, 70, 64
2, 154140, Note_on_c, 0, 68, 110
2, 154188, Note_off_c, 0, 68, 64
2, 154200, Note_on_c, 0, 66, 110
2, 154248, Note_off_c, 0, 66, 64
2, 154260, Note_on_c, 0, 65, 110
2, 154272, Note_off_c, 0, 65, 64
2, 154308, Note_off_c, 0, 65, 64
2, 154320, Note_on_c, 0, 66, 110
2, 154320, Note_on_c, 0, 63, 110
2, 154368, Note_off_c, 0, 63, 64
2, 154380, Note_on_c, 0, 61, 110
2, 154428, Note_off_c, 0, 61, 64
2, 154440, Note_on_c, 0, 60, 110
2, 154488, Note_off_c, 0, 60, 64
2, 154500, Note_on_c, 0, 58, 110
2, 154512, Note_off_c, 0, 66, 64
2, 154548, Note_off_c, 0, 58, 64
2, 154560, Note_on_c, 0, 65, 110
2, 154560, Note_on_c, 0, 57, 110
2, 154608, Note_off_c, 0, 57, 64
2, 154620, Note_on_c, 0, 60, 110
2, 154668, Note_off_c, 0, 60, 64
2, 154680, Note_on_c, 0, 57, 110
2, 154728, Note_off_c, 0, 57, 64
2, 154740, Note_on_c, 0, 60, 110
2, 154788, Note_off_c, 0, 60, 64
2, 154800, Note_on_c, 0, 58, 110
2, 154848, Note_off_c, 0, 58, 64
2, 154860, Note_on_c, 0, 61, 110
2, 154908, Note_off_c, 0, 61, 64
2, 154920, Note_on_c, 0, 58, 110
2, 154944, Note_off_c, 0, 65, 64
2, 154968, Note_off_c, 0, 58, 64
2, 154980, Note_on_c, 0, 61, 110
2, 155028, Note_off_c, 0, 61, 64
2, 155040, Note_on_c, 0, 58, 110
2, 155040, Note_on_c, 0, 66, 110
2, 155088, Note_off_c, 0, 58, 64
2, 155100, Note_on_c, 0, 63, 110
2, 155148, Note_off_c, 0, 63, 64
2, 155160, Note_on_c, 0, 58, 110
2, 155208, Note_off_c, 0, 58, 64
2, 155220, Note_on_c, 0, 63, 110
2, 155232, Note_off_c, 0, 66, 64
2, 155268, Note_off_c, 0, 63, 64
2, 155280, Note_on_c, 0, 65, 110
2, 155280, Note_on_c, 0, 57, 110
2, 155328, Note_off_c, 0, 57, 64
2, 155340, Note_on_c, 0, 63, 110
2, 155388, Note_off_c, 0, 63, 64
2, 155400, Note_on_c, 0, 57, 110
2, 155448, Note_off_c, 0, 57, 64
2, 155460, Note_on_c, 0, 63, 110
2, 155508, Note_off_c, 0, 63, 64
2, 155520, Note_on_c, 0, 61, 110
2, 155568, Note_off_c, 0, 61, 64
2, 155580, Note_on_c, 0, 63, 110
2, 155628, Note_off_c, 0, 63, 64
2, 155640, Note_on_c, 0, 61, 110
2, 155688, Note_off_c, 0, 61, 64
2, 155700, Note_on_c, 0, 60, 110
2, 155712, Note_off_c, 0, 65, 64
2, 155748, Note_off_c, 0, 60, 64
2, 155760, Note_on_c, 0, 61, 110
2, 155808, Note_off_c, 0, 61, 64
2, 155820, Note_on_c, 0, 65, 110
2, 155868, Note_off_c, 0, 65, 64
2, 155880, Note_on_c, 0, 61, 110
2, 155928, Note_off_c, 0, 61, 64
2, 155940, Note_on_c, 0, 65, 110
2, 155988, Note_off_c, 0, 65, 64
2, 156000, Note_on_c, 0, 58, 110
2, 156048, Note_off_c, 0, 58, 64
2, 156060, Note_on_c, 0, 68, 110
2, 156108, Note_off_c, 0, 68, 64
2, 156120, Note_on_c, 0, 67, 110
2, 156168, Note_off_c, 0, 67, 64
2, 156180, Note_on_c, 0, 65, 110
2, 156228, Note_off_c, 0, 65, 64
2, 156240, Note_on_c, 0, 67, 110
2, 156288, Note_off_c, 0, 67, 64
2, 156300, Note_on_c, 0, 70, 110
2, 156348, Note_off_c, 0, 70, 64
2, 156360, Note_on_c, 0, 67, 110
2, 156408, Note_off_c, 0, 67, 64
2, 156420, Note_on_c, 0, 70, 110
2, 156468, Note_off_c, 0, 70, 64
2, 156480, Note_on_c, 0, 64, 110
2, 156528, Note_off_c, 0, 64, 64
2, 156540, Note_on_c, 0, 65, 110
2, 156588, Note_off_c, 0, 65, 64
2, 156600, Note_on_c, 0, 64, 110
2, 156648, Note_off_c, 0, 64, 64
2, 156660, Note_on_c, 0, 62, 110
2, 156708, Note_off_c, 0, 62, 64
2, 156720, Note_on_c, 0, 64, 110
2, 156768, Note_off_c, 0, 64, 64
2, 156780, Note_on_c, 0, 67, 110
2, 156828, Note_off_c, 0, 67, 64
2, 156840, Note_on_c, 0, 64, 110
2, 156888, Note_off_c, 0, 64, 64
2, 156900, Note_on_c, 0, 67, 110
2, 156948, Note_off_c, 0, 67, 64
2, 156960, Note_on_c, 0, 60, 110
2, 157008, Note_off_c, 0, 60, 64
2, 157020, Note_on_c, 0, 70, 110
2, 157068, Note_off_c, 0, 70, 64
2, 157080, Note_on_c, 0, 68, 110
2, 157128, Note_off_c, 0, 68, 64
2, 157140, Note_on_c, 0, 67, 110
2, 157188, Note_off_c, 0, 67, 64
2, 157200, Note_on_c, 0, 68, 110
2, 157248, Note_off_c, 0, 68, 64
2, 157260, Note_on_c, 0, 72, 110
2, 157308, Note_off_c, 0, 72, 64
2, 157320, Note_on_c, 0, 68, 110
2, 157368, Note_off_c, 0, 68, 64
2, 157380, Note_on_c, 0, 72, 110
2, 157428, Note_off_c, 0, 72, 64
2, 157440, Note_on_c, 0, 65, 110
2, 157560, Note_on_c, 0, 77, 110
2, 157632, Note_off_c, 0, 65, 64
2, 157680, Note_on_c, 0, 67, 110
2, 157752, Note_off_c, 0, 77, 64
2, 157800, Note_on_c, 0, 77, 110
2, 157872, Note_off_c, 0, 67, 64
2, 157920, Note_on_c, 0, 68, 110
2, 157968, Note_off_c, 0, 77, 64
2, 157980, Note_on_c, 0, 75, 110
2, 158028, Note_off_c, 0, 75, 64
2, 158040, Note_on_c, 0, 73, 110
2, 158088, Note_off_c, 0, 73, 64
2, 158100, Note_on_c, 0, 72, 110
2, 158112, Note_off_c, 0, 68, 64
2, 158148, Note_off_c, 0, 72, 64
2, 158160, Note_on_c, 0, 70, 110
2, 158160, Note_on_c, 0, 70, 110
2, 158208, Note_off_c, 0, 70, 64
2, 158220, Note_on_c, 0, 68, 110
2, 158268, Note_off_c, 0, 68, 64
2, 158280, Note_on_c, 0, 67, 110
2, 158328, Note_off_c, 0, 67, 64
2, 158340, Note_on_c, 0, 65, 110
2, 158388, Note_off_c, 0, 65, 64
2, 158400, Note_on_c, 0, 64, 110
2, 158448, Note_off_c, 0, 64, 64
2, 158460, Note_on_c, 0, 67, 110
2, 158508, Note_off_c, 0, 67, 64
2, 158520, Note_on_c, 0, 64, 110
2, 158568, Note_off_c, 0, 64, 64
2, 158580, Note_on_c, 0, 67, 110
2, 158592, Note_off_c, 0, 70, 64
2, 158628, Note_off_c, 0, 67, 64
2, 158640, Note_on_c, 0, 65, 110
2, 158640, Note_on_c, 0, 60, 110
2, 158688, Note_off_c, 0, 65, 64
2, 158700, Note_on_c, 0, 68, 110
2, 158748, Note_off_c, 0, 68, 64
2, 158760, Note_on_c, 0, 65, 110
2, 158808, Note_off_c, 0, 65, 64
2, 158820, Note_on_c, 0, 68, 110
2, 158832, Note_off_c, 0, 60, 64
2, 158868, Note_off_c, 0, 68, 64
2, 158880, Note_on_c, 0, 65, 110
2, 158880, Note_on_c, 0, 61, 110
2, 158928, Note_off_c, 0, 65, 64
2, 158940, Note_on_c, 0, 70, 110
2, 158988, Note_off_c, 0, 70, 64
2, 159000, Note_on_c, 0, 65, 110
2, 159048, Note_off_c, 0, 65, 64
2, 159060, Note_on_c, 0, 70, 110
2, 159072, Note_off_c, 0, 61, 64
2, 159108, Note_off_c, 0, 70, 64
2, 159120, Note_on_c, 0, 60, 110
2, 159120, Note_on_c, 0, 64, 110
2, 159168, Note_off_c, 0, 64, 64
2, 159180, Note_on_c, 0, 70, 110
2, 159216, Note_off_c, 0, 60, 64
2, 159228, Note_off_c, 0, 70, 64
2, 159240, Note_on_c, 0, 64, 110
2, 159240, Note_on_c, 0, 58, 110
2, 159288, Note_off_c, 0, 64, 64
2, 159300, Note_on_c, 0, 70, 110
2, 159336, Note_off_c, 0, 58, 64
2, 159348, Note_off_c, 0, 70, 64
2, 159360, Note_on_c, 0, 60, 110
2, 159360, Note_on_c, 0, 68, 110
2, 159408, Note_off_c, 0, 68, 64
2, 159420, Note_on_c, 0, 67, 110
2, 159468, Note_off_c, 0, 67, 64
2, 159480, Note_on_c, 0, 65, 110
2, 159528, Note_off_c, 0, 65, 64
2, 159540, Note_on_c, 0, 64, 110
2, 159588, Note_off_c, 0, 64, 64
2, 159600, Note_on_c, 0, 65, 110
2, 159648, Note_off_c, 0, 65, 64
2, 159660, Note_on_c, 0, 68, 110
2, 159708, Note_off_c, 0, 68, 64
2, 159720, Note_on_c, 0, 67, 110
2, 159744, Note_off_c, 0, 60, 64
2, 159768, Note_off_c, 0, 67, 64
2, 159780, Note_on_c, 0, 65, 110
2, 159828, Note_off_c, 0, 65, 64
2, 159840, Note_on_c, 0, 74, 110
2, 159840, Note_on_c, 0, 58, 110
2, 159888, Note_off_c, 0, 74, 64
2, 159900, Note_on_c, 0, 75, 110
2, 159948, Note_off_c, 0, 75, 64
2, 159960, Note_on_c, 0, 74, 110
2, 160008, Note_off_c, 0, 74, 64
2, 160020, Note_on_c, 0, 72, 110
2, 160068, Note_off_c, 0, 72, 64
2, 160080, Note_on_c, 0, 74, 110
2, 160128, Note_off_c, 0, 74, 64
2, 160140, Note_on_c, 0, 72, 110
2, 160188, Note_off_c, 0, 72, 64
2, 160200, Note_on_c, 0, 70, 110
2, 160224, Note_off_c, 0, 58, 64
2, 160248, Note_off_c, 0, 70, 64
2, 160260, Note_on_c, 0, 68, 110
2, 160308, Note_off_c, 0, 68, 64
2, 160320, Note_on_c, 0, 67, 110
2, 160368, Note_off_c, 0, 67, 64
2, 160380, Note_on_c, 0, 68, 110
2, 160428, Note_off_c, 0, 68, 64
2, 160440, Note_on_c, 0, 67, 110
2, 160488, Note_off_c, 0, 67, 64
2, 160500, Note_on_c, 0, 65, 110
2, 160548, Note_off_c, 0, 65, 64
2, 160560, Note_on_c, 0, 67, 110
2, 160608, Note_off_c, 0, 67, 64
2, 160620, Note_on_c, 0, 69, 110
2, 160668, Note_off_c, 0, 69, 64
2, 160680, Note_on_c, 0, 71, 110
2, 160728, Note_off_c, 0, 71, 64
2, 160740, Note_on_c, 0, 72, 110
2, 160788, Note_off_c, 0, 72, 64
2, 160800, Note_on_c, 0, 71, 110
2, 160848, Note_off_c, 0, 71, 64
2, 160860, Note_on_c, 0, 72, 110
2, 160908, Note_off_c, 0, 72, 64
2, 160920, Note_on_c, 0, 74, 110
2, 160968, Note_off_c, 0, 74, 64
2, 160980, Note_on_c, 0, 75, 110
2, 161028, Note_off_c, 0, 75, 64
2, 161040, Note_on_c, 0, 77, 110
2, 161088, Note_off_c, 0, 77, 64
2, 161100, Note_on_c, 0, 80, 110
2, 161148, Note_off_c, 0, 80, 64
2, 161160, Note_on_c, 0, 79, 110
2, 161208, Note_off_c, 0, 79, 64
2, 161220, Note_on_c, 0, 77, 110
2, 161268, Note_off_c, 0, 77, 64
2, 161280, Note_on_c, 0, 72, 110
2, 161280, Note_on_c, 0, 75, 110
2, 161328, Note_off_c, 0, 75, 64
2, 161340, Note_on_c, 0, 79, 110
2, 161388, Note_off_c, 0, 79, 64
2, 161400, Note_on_c, 0, 75, 110
2, 161448, Note_off_c, 0, 75, 64
2, 161460, Note_on_c, 0, 79, 110
2, 161472, Note_off_c, 0, 72, 64
2, 161508, Note_off_c, 0, 79, 64
2, 161520, Note_on_c, 0, 77, 110
2, 161520, Note_on_c, 0, 74, 110
2, 161568, Note_off_c, 0, 77, 64
2, 161580, Note_on_c, 0, 80, 110
2, 161628, Note_off_c, 0, 80, 64
2, 161640, Note_on_c, 0, 77, 110
2, 161688, Note_off_c, 0, 77, 64
2, 161700, Note_on_c, 0, 80, 110
2, 161712, Note_off_c, 0, 74, 64
2, 161748, Note_off_c, 0, 80, 64
2, 161760, Note_on_c, 0, 79, 110
2, 161760, Note_on_c, 0, 75, 110
2, 161952, Note_off_c, 0, 75, 64
2, 161952, Note_off_c, 0, 79, 64
2, 162000, Note_on_c, 0, 80, 110
2, 162000, Note_on_c, 0, 77, 110
2, 162192, Note_off_c, 0, 77, 64
2, 162192, Note_off_c, 0, 80, 64
2, 162240, Note_on_c, 0, 77, 110
2, 162240, Note_on_c, 0, 79, 110
2, 162432, Note_off_c, 0, 77, 64
2, 162480, Note_on_c, 0, 75, 110
2, 162624, Note_off_c, 0, 79, 64
2, 162672, Note_off_c, 0, 75, 64
2, 162720, Note_on_c, 0, 80, 110
2, 162720, Note_on_c, 0, 74, 110
2, 162912, Note_off_c, 0, 80, 64
2, 162960, Note_on_c, 0, 79, 110
2, 163056, Note_off_c, 0, 79, 64
2, 163080, Note_on_c, 0, 77, 110
2, 163176, Note_off_c, 0, 77, 64
2, 163200, Note_on_c, 0, 75, 110
2, 163248, Note_off_c, 0, 74, 64
2, 163260, Note_on_c, 0, 74, 110
2, 163308, Note_off_c, 0, 74, 64
2, 163320, Note_on_c, 0, 72, 110
2, 163368, Note_off_c, 0, 72, 64
2, 163380, Note_on_c, 0, 71, 110
2, 163428, Note_off_c, 0, 71, 64
2, 163440, Note_on_c, 0, 72, 110
2, 163728, Note_off_c, 0, 72, 64
2, 163740, Note_on_c, 0, 70, 110
2, 163788, Note_off_c, 0, 70, 64
2, 163800, Note_on_c, 0, 68, 110
2, 163848, Note_off_c, 0, 68, 64
2, 163860, Note_on_c, 0, 67, 110
2, 163908, Note_off_c, 0, 67, 64
2, 163920, Note_on_c, 0, 68, 110
2, 163968, Note_off_c, 0, 75, 64
2, 164160, Note_on_c, 0, 73, 110
2, 164208, Note_off_c, 0, 68, 64
2, 164220, Note_on_c, 0, 72, 110
2, 164268, Note_off_c, 0, 72, 64
2, 164280, Note_on_c, 0, 70, 110
2, 164328, Note_off_c, 0, 70, 64
2, 164340, Note_on_c, 0, 68, 110
2, 164388, Note_off_c, 0, 68, 64
2, 164400, Note_on_c, 0, 70, 110
2, 164688, Note_off_c, 0, 70, 64
2, 164700, Note_on_c, 0, 68, 110
2, 164748, Note_off_c, 0, 68, 64
2, 164760, Note_on_c, 0, 67, 110
2, 164808, Note_off_c, 0, 67, 64
2, 164820, Note_on_c, 0, 65, 110
2, 164868, Note_off_c, 0, 65, 64
2, 164880, Note_on_c, 0, 67, 110
2, 164928, Note_off_c, 0, 73, 64
2, 165120, Note_on_c, 0, 72, 110
2, 165168, Note_off_c, 0, 67, 64
2, 165180, Note_on_c, 0, 70, 110
2, 165228, Note_off_c, 0, 70, 64
2, 165240, Note_on_c, 0, 68, 110
2, 165288, Note_off_c, 0, 68, 64
2, 165300, Note_on_c, 0, 67, 110
2, 165348, Note_off_c, 0, 67, 64
2, 165360, Note_on_c, 0, 68, 110
2, 165648, Note_off_c, 0, 68, 64
2, 165660, Note_on_c, 0, 67, 110
2, 165708, Note_off_c, 0, 67, 64
2, 165720, Note_on_c, 0, 65, 110
2, 165768, Note_off_c, 0, 65, 64
2, 165780, Note_on_c, 0, 63, 110
2, 165828, Note_off_c, 0, 63, 64
2, 165840, Note_on_c, 0, 65, 110
2, 165888, Note_off_c, 0, 72, 64
2, 166080, Note_on_c, 0, 71, 110
2, 166128, Note_off_c, 0, 65, 64
2, 166140, Note_on_c, 0, 67, 110
2, 166188, Note_off_c, 0, 67, 64
2, 166200, Note_on_c, 0, 65, 110
2, 166248, Note_off_c, 0, 65, 64
2, 166260, Note_on_c, 0, 63, 110
2, 166308, Note_off_c, 0, 63, 64
2, 166320, Note_on_c, 0, 62, 110
2, 166368, Note_off_c, 0, 62, 64
2, 166380, Note_on_c, 0, 60, 110
2, 166428, Note_off_c, 0, 60, 64
2, 166440, Note_on_c, 0, 59, 110
2, 166464, Note_off_c, 0, 71, 64
2, 166488, Note_off_c, 0, 59, 64
2, 166500, Note_on_c, 0, 57, 110
2, 166548, Note_off_c, 0, 57, 64
2, 166560, Note_on_c, 0, 55, 110
2, 166848, Note_off_c, 0, 55, 64
2, 166920, Note_on_c, 0, 67, 110
2, 166920, Note_on_c, 0, 74, 110
2, 166920, Note_on_c, 0, 65, 110
2, 167016, Note_off_c, 0, 74, 64
2, 167016, Note_off_c, 0, 67, 64
2, 167033, Note_off_c, 0, 65, 64
2, 167040, Note_on_c, 0, 74, 110
2, 167040, Note_on_c, 0, 67, 110
2, 167040, Note_on_c, 0, 71, 110
2, 167424, Note_off_c, 0, 71, 64
2, 167424, Note_off_c, 0, 67, 64
2, 167424, Note_off_c, 0, 74, 64
2, 167520, Note_on_c, 0, 72, 110
2, 167520, Note_on_c, 0, 72, 110
2, 167520, Note_on_c, 0, 72, 110
2, 167904, Note_off_c, 0, 72, 64
2, 167904, Note_off_c, 0, 72, 64
2, 167904, Note_off_c, 0, 72, 64
2, 168000, Note_on_c, 0, 65, 110
2, 168000, Note_on_c, 0, 70, 110
2, 168000, Note_on_c, 0, 77, 110
2, 168144, Note_off_c, 0, 77, 64
2, 168180, Note_on_c, 0, 75, 110
2, 168228, Note_off_c, 0, 75, 64
2, 168240, Note_on_c, 0, 74, 110
2, 168384, Note_off_c, 0, 74, 64
2, 168384, Note_off_c, 0, 70, 64
2, 168384, Note_off_c, 0, 65, 64
2, 168420, Note_on_c, 0, 72, 110
2, 168468, Note_off_c, 0, 72, 64
2, 168480, Note_on_c, 0, 70, 110
2, 168768, Note_off_c, 0, 70, 64
2, 168840, Note_on_c, 0, 65, 110
2, 168840, Note_on_c, 0, 62, 110
2, 168840, Note_on_c, 0, 68, 110
2, 168936, Note_off_c, 0, 68, 64
2, 168936, Note_off_c, 0, 62, 64
2, 168936, Note_off_c, 0, 65, 64
2, 168960, Note_on_c, 0, 68, 110
2, 168960, Note_on_c, 0, 65, 110
2, 168960, Note_on_c, 0, 62, 110
2, 169344, Note_off_c, 0, 62, 64
2, 169344, Note_off_c, 0, 65, 64
2, 169344, Note_off_c, 0, 68, 64
2, 169440, Note_on_c, 0, 67, 110
2, 169440, Note_on_c, 0, 63, 110
2, 169824, Note_off_c, 0, 63, 64
2, 169824, Note_off_c, 0, 67, 64
2, 169920, Note_on_c, 0, 79, 110
2, 170064, Note_off_c, 0, 79, 64
2, 170100, Note_on_c, 0, 80, 110
2, 170148, Note_off_c, 0, 80, 64
2, 170160, Note_on_c, 0, 79, 110
2, 170304, Note_off_c, 0, 79, 64
2, 170340, Note_on_c, 0, 77, 110
2, 170388, Note_off_c, 0, 77, 64
2, 170400, Note_on_c, 0, 79, 110
2, 170544, Note_off_c, 0, 79, 64
2, 170580, Note_on_c, 0, 75, 110
2, 170628, Note_off_c, 0, 75, 64
2, 170640, Note_on_c, 0, 74, 110
2, 170784, Note_off_c, 0, 74, 64
2, 170820, Note_on_c, 0, 72, 110
2, 170868, Note_off_c, 0, 72, 64
2, 170880, Note_on_c, 0, 77, 110
2, 171024, Note_off_c, 0, 77, 64
2, 171060, Note_on_c, 0, 79, 110
2, 171108, Note_off_c, 0, 79, 64
2, 171120, Note_on_c, 0, 77, 110
2, 171264, Note_off_c, 0, 77, 64
2, 171300, Note_on_c, 0, 75, 110
2, 171348, Note_off_c, 0, 75, 64
2, 171360, Note_on_c, 0, 77, 110
2, 171504, Note_off_c, 0, 77, 64
2, 171540, Note_on_c, 0, 74, 110
2, 171588, Note_off_c, 0, 74, 64
2, 171600, Note_on_c, 0, 72, 110
2, 171744, Note_off_c, 0, 72, 64
2, 171780, Note_on_c, 0, 70, 110
2, 171828, Note_off_c, 0, 70, 64
2, 171840, Note_on_c, 0, 75, 110
2, 171984, Note_off_c, 0, 75, 64
2, 172020, Note_on_c, 0, 77, 110
2, 172068, Note_off_c, 0, 77, 64
2, 172080, Note_on_c, 0, 75, 110
2, 172224, Note_off_c, 0, 75, 64
2, 172260, Note_on_c, 0, 74, 110
2, 172308, Note_off_c, 0, 74, 64
2, 172320, Note_on_c, 0, 75, 110
2, 172500, Note_on_c, 0, 72, 110
2, 172548, Note_off_c, 0, 72, 64
2, 172560, Note_on_c, 0, 70, 110
2, 172704, Note_off_c, 0, 70, 64
2, 172740, Note_on_c, 0, 69, 110
2, 172788, Note_off_c, 0, 69, 64
2, 172800, Note_on_c, 0, 67, 110
2, 172944, Note_off_c, 0, 75, 64
2, 172980, Note_on_c, 0, 77, 110
2, 173028, Note_off_c, 0, 77, 64
2, 173040, Note_on_c, 0, 75, 110
2, 173184, Note_off_c, 0, 75, 64
2, 173220, Note_on_c, 0, 74, 110
2, 173268, Note_off_c, 0, 74, 64
2, 173280, Note_on_c, 0, 75, 110
2, 173424, Note_off_c, 0, 67, 64
2, 173460, Note_on_c, 0, 70, 110
2, 173508, Note_off_c, 0, 70, 64
2, 173520, Note_on_c, 0, 69, 110
2, 173664, Note_off_c, 0, 69, 64
2, 173700, Note_on_c, 0, 67, 110
2, 173748, Note_off_c, 0, 67, 64
2, 173760, Note_on_c, 0, 65, 110
2, 173904, Note_off_c, 0, 75, 64
2, 173940, Note_on_c, 0, 77, 110
2, 173988, Note_off_c, 0, 77, 64
2, 174000, Note_on_c, 0, 75, 110
2, 174144, Note_off_c, 0, 75, 64
2, 174180, Note_on_c, 0, 74, 110
2, 174228, Note_off_c, 0, 74, 64
2, 174240, Note_on_c, 0, 75, 110
2, 174384, Note_off_c, 0, 65, 64
2, 174420, Note_on_c, 0, 67, 110
2, 174468, Note_off_c, 0, 67, 64
2, 174480, Note_on_c, 0, 69, 110
2, 174624, Note_off_c, 0, 69, 64
2, 174660, Note_on_c, 0, 70, 110
2, 174708, Note_off_c, 0, 70, 64
2, 174720, Note_on_c, 0, 69, 110
2, 174864, Note_off_c, 0, 75, 64
2, 174900, Note_on_c, 0, 77, 110
2, 174948, Note_off_c, 0, 77, 64
2, 174960, Note_on_c, 0, 75, 110
2, 175104, Note_off_c, 0, 75, 64
2, 175140, Note_on_c, 0, 74, 110
2, 175188, Note_off_c, 0, 74, 64
2, 175200, Note_on_c, 0, 75, 110
2, 175344, Note_off_c, 0, 69, 64
2, 175380, Note_on_c, 0, 69, 110
2, 175428, Note_off_c, 0, 69, 64
2, 175440, Note_on_c, 0, 70, 110
2, 175584, Note_off_c, 0, 70, 64
2, 175620, Note_on_c, 0, 72, 110
2, 175668, Note_off_c, 0, 72, 64
2, 175680, Note_on_c, 0, 65, 110
2, 175824, Note_off_c, 0, 75, 64
2, 175860, Note_on_c, 0, 75, 110
2, 175908, Note_off_c, 0, 75, 64
2, 175920, Note_on_c, 0, 74, 110
2, 176064, Note_off_c, 0, 74, 64
2, 176100, Note_on_c, 0, 72, 110
2, 176148, Note_off_c, 0, 72, 64
2, 176160, Note_on_c, 0, 74, 110
2, 176928, Note_off_c, 0, 65, 64
2, 177024, Note_off_c, 0, 74, 64
2, 177060, Note_on_c, 0, 65, 110
2, 177108, Note_off_c, 0, 65, 64
2, 177120, Note_on_c, 0, 63, 110
2, 177120, Note_on_c, 0, 72, 110
2, 177408, Note_off_c, 0, 63, 64
2, 177540, Note_on_c, 0, 62, 110
2, 177588, Note_off_c, 0, 62, 64
2, 177600, Note_on_c, 0, 60, 110
2, 177744, Note_off_c, 0, 72, 64
2, 177780, Note_on_c, 0, 72, 110
2, 177792, Note_off_c, 0, 60, 64
2, 177828, Note_off_c, 0, 72, 64
2, 177840, Note_on_c, 0, 74, 110
2, 177984, Note_off_c, 0, 74, 64
2, 178020, Note_on_c, 0, 75, 110
2, 178068, Note_off_c, 0, 75, 64
2, 178080, Note_on_c, 0, 77, 110
2, 178260, Note_on_c, 0, 65, 110
2, 178308, Note_off_c, 0, 65, 64
2, 178320, Note_on_c, 0, 67, 110
2, 178464, Note_off_c, 0, 67, 64
2, 178500, Note_on_c, 0, 69, 110
2, 178548, Note_off_c, 0, 69, 64
2, 178560, Note_on_c, 0, 70, 110
2, 178740, Note_on_c, 0, 62, 110
2, 178788, Note_off_c, 0, 62, 64
2, 178800, Note_on_c, 0, 63, 110
2, 178944, Note_off_c, 0, 63, 64
2, 178944, Note_off_c, 0, 77, 64
2, 178980, Note_on_c, 0, 65, 110
2, 179028, Note_off_c, 0, 65, 64
2, 179040, Note_on_c, 0, 75, 110
2, 179040, Note_on_c, 0, 67, 110
2, 179184, Note_off_c, 0, 70, 64
2, 179220, Note_on_c, 0, 70, 110
2, 179268, Note_off_c, 0, 70, 64
2, 179280, Note_on_c, 0, 72, 110
2, 179424, Note_off_c, 0, 72, 64
2, 179424, Note_off_c, 0, 67, 64
2, 179460, Note_on_c, 0, 74, 110
2, 179508, Note_off_c, 0, 74, 64
2, 179520, Note_on_c, 0, 72, 110
2, 179700, Note_on_c, 0, 65, 110
2, 179748, Note_off_c, 0, 65, 64
2, 179760, Note_on_c, 0, 67, 110
2, 179904, Note_off_c, 0, 67, 64
2, 179904, Note_off_c, 0, 72, 64
2, 179904, Note_off_c, 0, 75, 64
2, 179940, Note_on_c, 0, 69, 110
2, 179988, Note_off_c, 0, 69, 64
2, 180000, Note_on_c, 0, 70, 110
2, 180180, Note_on_c, 0, 72, 110
2, 180228, Note_off_c, 0, 72, 64
2, 180240, Note_on_c, 0, 74, 110
2, 180384, Note_off_c, 0, 74, 64
2, 180420, Note_on_c, 0, 75, 110
2, 180468, Note_off_c, 0, 75, 64
2, 180480, Note_on_c, 0, 72, 110
2, 180660, Note_on_c, 0, 74, 110
2, 180708, Note_off_c, 0, 74, 64
2, 180720, Note_on_c, 0, 75, 110
2, 180864, Note_off_c, 0, 75, 64
2, 180864, Note_off_c, 0, 70, 64
2, 180900, Note_on_c, 0, 79, 110
2, 180948, Note_off_c, 0, 79, 64
2, 180960, Note_on_c, 0, 77, 110
2, 180960, Note_on_c, 0, 69, 110
2, 181104, Note_off_c, 0, 77, 64
2, 181140, Note_on_c, 0, 75, 110
2, 181188, Note_off_c, 0, 75, 64
2, 181200, Note_on_c, 0, 74, 110
2, 181248, Note_off_c, 0, 72, 64
2, 181344, Note_off_c, 0, 74, 64
2, 181344, Note_off_c, 0, 69, 64
2, 181380, Note_on_c, 0, 75, 110
2, 181428, Note_off_c, 0, 75, 64
2, 181440, Note_on_c, 0, 74, 110
2, 181440, Note_on_c, 0, 65, 110
2, 181440, Note_on_c, 0, 70, 110
2, 181824, Note_off_c, 0, 70, 64
2, 181824, Note_off_c, 0, 65, 64
2, 181824, Note_off_c, 0, 74, 64
2, 182280, Note_on_c, 0, 65, 110
2, 182280, Note_on_c, 0, 74, 110
2, 182280, Note_on_c, 0, 77, 110
2, 182376, Note_off_c, 0, 74, 64
2, 182376, Note_off_c, 0, 65, 64
2, 182400, Note_on_c, 0, 65, 110
2, 182400, Note_on_c, 0, 74, 110
2, 182784, Note_off_c, 0, 65, 64
2, 182880, Note_on_c, 0, 67, 110
2, 183168, Note_off_c, 0, 74, 64
2, 183300, Note_on_c, 0, 72, 110
2, 183348, Note_off_c, 0, 72, 64
2, 183360, Note_on_c, 0, 71, 110
2, 183744, Note_off_c, 0, 71, 64
2, 183744, Note_off_c, 0, 77, 64
2, 183744, Note_off_c, 0, 67, 64
2, 184200, Note_on_c, 0, 74, 110
2, 184200, Note_on_c, 0, 67, 110
2, 184200, Note_on_c, 0, 62, 110
2, 184296, Note_off_c, 0, 62, 64
2, 184296, Note_off_c, 0, 67, 64
2, 184320, Note_on_c, 0, 67, 110
2, 184704, Note_off_c, 0, 74, 64
2, 184800, Note_on_c, 0, 72, 110
2, 185088, Note_off_c, 0, 67, 64
2, 185280, Note_on_c, 0, 68, 110
2, 185424, Note_off_c, 0, 68, 64
2, 185460, Note_on_c, 0, 70, 110
2, 185508, Note_off_c, 0, 70, 64
2, 185520, Note_on_c, 0, 68, 110
2, 185664, Note_off_c, 0, 68, 64
2, 185664, Note_off_c, 0, 72, 64
2, 185700, Note_on_c, 0, 67, 110
2, 185748, Note_off_c, 0, 67, 64
2, 185760, Note_on_c, 0, 70, 110
2, 185760, Note_on_c, 0, 68, 110
2, 185904, Note_off_c, 0, 68, 64
2, 185940, Note_on_c, 0, 65, 110
2, 185988, Note_off_c, 0, 65, 64
2, 186000, Note_on_c, 0, 63, 110
2, 186144, Note_off_c, 0, 63, 64
2, 186180, Note_on_c, 0, 62, 110
2, 186228, Note_off_c, 0, 62, 64
2, 186240, Note_on_c, 0, 67, 110
2, 187488, Note_off_c, 0, 67, 64
2, 187488, Note_off_c, 0, 70, 64
2, 187620, Note_on_c, 0, 70, 105
2, 187620, Note_on_c, 0, 67, 110
2, 187668, Note_off_c, 0, 67, 64
2, 187668, Note_off_c, 0, 70, 64
2, 187680, Note_on_c, 0, 68, 110
2, 187680, Note_on_c, 0, 65, 110
2, 187968, Note_off_c, 0, 65, 64
2, 187968, Note_off_c, 0, 68, 64
2, 188100, Note_on_c, 0, 63, 110
2, 188100, Note_on_c, 0, 67, 110
2, 188148, Note_off_c, 0, 67, 64
2, 188148, Note_off_c, 0, 63, 64
2, 188160, Note_on_c, 0, 67, 110
2, 188160, Note_on_c, 0, 63, 110
2, 188544, Note_off_c, 0, 63, 64
2, 188544, Note_off_c, 0, 67, 64
2, 188640, Note_on_c, 0, 62, 110
2, 188640, Note_on_c, 0, 65, 110
2, 188928, Note_off_c, 0, 65, 64
2, 189024, Note_off_c, 0, 62, 64
2, 189060, Note_on_c, 0, 67, 110
2, 189108, Note_off_c, 0, 67, 64
2, 189120, Note_on_c, 0, 68, 110
2, 189264, Note_off_c, 0, 68, 64
2, 189300, Note_on_c, 0, 70, 110
2, 189348, Note_off_c, 0, 70, 64
2, 189360, Note_on_c, 0, 68, 110
2, 189504, Note_off_c, 0, 68, 64
2, 189540, Note_on_c, 0, 67, 110
2, 189588, Note_off_c, 0, 67, 64
2, 189600, Note_on_c, 0, 68, 110
2, 189744, Note_off_c, 0, 68, 64
2, 189780, Note_on_c, 0, 77, 110
2, 189828, Note_off_c, 0, 77, 64
2, 189840, Note_on_c, 0, 70, 110
2, 189984, Note_off_c, 0, 70, 64
2, 190020, Note_on_c, 0, 68, 110
2, 190068, Note_off_c, 0, 68, 64
2, 190080, Note_on_c, 0, 67, 110
2, 190224, Note_off_c, 0, 67, 64
2, 190260, Note_on_c, 0, 68, 110
2, 190308, Note_off_c, 0, 68, 64
2, 190320, Note_on_c, 0, 67, 110
2, 190464, Note_off_c, 0, 67, 64
2, 190500, Note_on_c, 0, 65, 110
2, 190548, Note_off_c, 0, 65, 64
2, 190560, Note_on_c, 0, 67, 110
2, 190704, Note_off_c, 0, 67, 64
2, 190740, Note_on_c, 0, 75, 110
2, 190788, Note_off_c, 0, 75, 64
2, 190800, Note_on_c, 0, 67, 110
2, 190944, Note_off_c, 0, 67, 64
2, 190980, Note_on_c, 0, 65, 110
2, 191028, Note_off_c, 0, 65, 64
2, 191040, Note_on_c, 0, 63, 110
2, 191184, Note_off_c, 0, 63, 64
2, 191220, Note_on_c, 0, 65, 110
2, 191268, Note_off_c, 0, 65, 64
2, 191280, Note_on_c, 0, 63, 110
2, 191424, Note_off_c, 0, 63, 64
2, 191460, Note_on_c, 0, 62, 110
2, 191508, Note_off_c, 0, 62, 64
2, 191520, Note_on_c, 0, 63, 110
2, 191664, Note_off_c, 0, 63, 64
2, 191700, Note_on_c, 0, 72, 110
2, 191748, Note_off_c, 0, 72, 64
2, 191760, Note_on_c, 0, 65, 110
2, 191904, Note_off_c, 0, 65, 64
2, 191940, Note_on_c, 0, 63, 110
2, 191988, Note_off_c, 0, 63, 64
2, 192000, Note_on_c, 0, 62, 110
2, 192144, Note_off_c, 0, 62, 64
2, 192180, Note_on_c, 0, 63, 110
2, 192228, Note_off_c, 0, 63, 64
2, 192240, Note_on_c, 0, 62, 110
2, 192384, Note_off_c, 0, 62, 64
2, 192420, Note_on_c, 0, 60, 110
2, 192468, Note_off_c, 0, 60, 64
2, 192480, Note_on_c, 0, 62, 110
2, 192624, Note_off_c, 0, 62, 64
2, 192660, Note_on_c, 0, 58, 110
2, 192708, Note_off_c, 0, 58, 64
2, 192720, Note_on_c, 0, 62, 110
2, 192864, Note_off_c, 0, 62, 64
2, 192900, Note_on_c, 0, 65, 110
2, 192948, Note_off_c, 0, 65, 64
2, 192960, Note_on_c, 0, 70, 110
2, 193104, Note_off_c, 0, 70, 64
2, 193140, Note_on_c, 0, 72, 110
2, 193188, Note_off_c, 0, 72, 64
2, 193200, Note_on_c, 0, 70, 110
2, 193344, Note_off_c, 0, 70, 64
2, 193380, Note_on_c, 0, 68, 110
2, 193428, Note_off_c, 0, 68, 64
2, 193440, Note_on_c, 0, 70, 110
2, 193553, Note_off_c, 0, 70, 64
2, 193620, Note_on_c, 0, 63, 110
2, 193668, Note_off_c, 0, 63, 64
2, 193680, Note_on_c, 0, 67, 110
2, 193824, Note_off_c, 0, 67, 64
2, 193860, Note_on_c, 0, 70, 110
2, 193908, Note_off_c, 0, 70, 64
2, 193920, Note_on_c, 0, 75, 110
2, 194100, Note_on_c, 0, 60, 110
2, 194148, Note_off_c, 0, 60, 64
2, 194160, Note_on_c, 0, 62, 110
2, 194217, Note_off_c, 0, 75, 64
2, 194220, Note_on_c, 0, 74, 110
2, 194277, Note_off_c, 0, 74, 64
2, 194280, Note_on_c, 0, 72, 110
2, 194304, Note_off_c, 0, 62, 64
2, 194337, Note_off_c, 0, 72, 64
2, 194340, Note_on_c, 0, 63, 110
2, 194340, Note_on_c, 0, 70, 110
2, 194388, Note_off_c, 0, 63, 64
2, 194397, Note_off_c, 0, 70, 64
2, 194400, Note_on_c, 0, 65, 110
2, 194400, Note_on_c, 0, 68, 110
2, 194544, Note_off_c, 0, 68, 64
2, 194580, Note_on_c, 0, 77, 110
2, 194628, Note_off_c, 0, 77, 64
2, 194640, Note_on_c, 0, 70, 110
2, 194784, Note_off_c, 0, 70, 64
2, 194820, Note_on_c, 0, 68, 110
2, 194868, Note_off_c, 0, 68, 64
2, 194880, Note_on_c, 0, 67, 110
2, 195024, Note_off_c, 0, 67, 64
2, 195060, Note_on_c, 0, 68, 110
2, 195072, Note_off_c, 0, 65, 64
2, 195108, Note_off_c, 0, 68, 64
2, 195120, Note_on_c, 0, 70, 110
2, 195120, Note_on_c, 0, 63, 110
2, 195264, Note_off_c, 0, 70, 64
2, 195300, Note_on_c, 0, 63, 110
2, 195312, Note_off_c, 0, 63, 64
2, 195348, Note_off_c, 0, 63, 64
2, 195360, Note_on_c, 0, 67, 110
2, 195360, Note_on_c, 0, 60, 110
2, 195504, Note_off_c, 0, 67, 64
2, 195540, Note_on_c, 0, 65, 110
2, 195552, Note_off_c, 0, 60, 64
2, 195588, Note_off_c, 0, 65, 64
2, 195600, Note_on_c, 0, 63, 110
2, 195600, Note_on_c, 0, 58, 110
2, 195744, Note_off_c, 0, 63, 64
2, 195780, Note_on_c, 0, 62, 110
2, 195792, Note_off_c, 0, 58, 64
2, 195828, Note_off_c, 0, 62, 64
2, 195840, Note_on_c, 0, 58, 110
2, 195840, Note_on_c, 0, 62, 110
2, 196224, Note_off_c, 0, 62, 64
2, 196320, Note_on_c, 0, 63, 110
2, 196608, Note_off_c, 0, 58, 64
2, 196770, Note_off_c, 0, 63, 64
2, 196770, End_track
3, 0, Start_track
3, 0, Title_t, "J.S.Bach/Arr. G. Bricault"
3, 0, Program_c, 0, 19
3, 0, Control_c, 0, 7, 127
3, 0, Note_on_c, 0, 70, 96
3, 29, Note_off_c, 0, 70, 64
3, 30, Note_on_c, 0, 68, 96
3, 59, Note_off_c, 0, 68, 64
3, 60, Note_on_c, 0, 70, 96
3, 288, Note_off_c, 0, 70, 64
3, 300, Note_on_c, 0, 68, 96
3, 348, Note_off_c, 0, 68, 64
3, 360, Note_on_c, 0, 67, 96
3, 408, Note_off_c, 0, 67, 64
3, 420, Note_on_c, 0, 65, 96
3, 468, Note_off_c, 0, 65, 64
3, 480, Note_on_c, 0, 63, 96
3, 768, Note_off_c, 0, 63, 64
3, 3360, Note_on_c, 0, 63, 96
3, 3384, Note_off_c, 0, 63, 64
3, 3390, Note_on_c, 0, 62, 96
3, 3414, Note_off_c, 0, 62, 64
3, 3420, Note_on_c, 0, 63, 96
3, 3564, Note_off_c, 0, 63, 64
3, 3840, Note_on_c, 0, 79, 96
3, 3864, Note_off_c, 0, 79, 64
3, 3870, Note_on_c, 0, 77, 96
3, 3894, Note_off_c, 0, 77, 64
3, 3900, Note_on_c, 0, 79, 96
3, 3996, Note_off_c, 0, 79, 64
3, 4020, Note_on_c, 0, 80, 96
3, 4068, Note_off_c, 0, 80, 64
3, 4080, Note_on_c, 0, 79, 96
3, 4224, Note_off_c, 0, 79, 64
3, 4260, Note_on_c, 0, 77, 96
3, 4308, Note_off_c, 0, 77, 64
3, 4320, Note_on_c, 0, 79, 96
3, 4464, Note_off_c, 0, 79, 64
3, 4500, Note_on_c, 0, 75, 96
3, 4548, Note_off_c, 0, 75, 64
3, 4560, Note_on_c, 0, 75, 96
3, 4575, Note_off_c, 0, 75, 64
3, 4575, Note_on_c, 0, 74, 96
3, 4590, Note_off_c, 0, 74, 64
3, 4590, Note_on_c, 0, 75, 96
3, 4605, Note_off_c, 0, 75, 64
3, 4605, Note_on_c, 0, 74, 96
3, 4620, Note_off_c, 0, 74, 64
3, 4620, Note_on_c, 0, 75, 96
3, 4632, Note_off_c, 0, 75, 64
3, 4635, Note_on_c, 0, 74, 96
3, 4647, Note_off_c, 0, 74, 64
3, 4650, Note_on_c, 0, 75, 96
3, 4662, Note_off_c, 0, 75, 64
3, 4665, Note_on_c, 0, 74, 96
3, 4728, Note_off_c, 0, 74, 64
3, 4740, Note_on_c, 0, 72, 96
3, 4788, Note_off_c, 0, 72, 64
3, 4800, Note_on_c, 0, 77, 96
3, 4824, Note_off_c, 0, 77, 64
3, 4830, Note_on_c, 0, 75, 96
3, 4854, Note_off_c, 0, 75, 64
3, 4860, Note_on_c, 0, 77, 96
3, 4956, Note_off_c, 0, 77, 64
3, 4980, Note_on_c, 0, 79, 96
3, 5028, Note_off_c, 0, 79, 64
3, 5040, Note_on_c, 0, 77, 96
3, 5184, Note_off_c, 0, 77, 64
3, 5220, Note_on_c, 0, 75, 96
3, 5268, Note_off_c, 0, 75, 64
3, 5280, Note_on_c, 0, 77, 96
3, 5424, Note_off_c, 0, 77, 64
3, 5460, Note_on_c, 0, 74, 96
3, 5508, Note_off_c, 0, 74, 64
3, 5520, Note_on_c, 0, 74, 96
3, 5532, Note_off_c, 0, 74, 64
3, 5535, Note_on_c, 0, 72, 96
3, 5547, Note_off_c, 0, 72, 64
3, 5550, Note_on_c, 0, 74, 96
3, 5562, Note_off_c, 0, 74, 64
3, 5565, Note_on_c, 0, 72, 96
3, 5577, Note_off_c, 0, 72, 64
3, 5580, Note_on_c, 0, 74, 96
3, 5592, Note_off_c, 0, 74, 64
3, 5595, Note_on_c, 0, 72, 96
3, 5610, Note_off_c, 0, 72, 64
3, 5610, Note_on_c, 0, 74, 96
3, 5622, Note_off_c, 0, 74, 64
3, 5625, Note_on_c, 0, 72, 96
3, 5688, Note_off_c, 0, 72, 64
3, 5700, Note_on_c, 0, 70, 96
3, 5748, Note_off_c, 0, 70, 64
3, 11040, Note_on_c, 0, 65, 96
3, 11052, Note_off_c, 0, 65, 64
3, 11055, Note_on_c, 0, 63, 96
3, 11067, Note_off_c, 0, 63, 64
3, 11070, Note_on_c, 0, 65, 96
3, 11082, Note_off_c, 0, 65, 64
3, 11085, Note_on_c, 0, 63, 96
3, 11097, Note_off_c, 0, 63, 64
3, 11100, Note_on_c, 0, 65, 96
3, 11112, Note_off_c, 0, 65, 64
3, 11115, Note_on_c, 0, 63, 96
3, 11127, Note_off_c, 0, 63, 64
3, 11130, Note_on_c, 0, 65, 96
3, 11142, Note_off_c, 0, 65, 64
3, 11145, Note_on_c, 0, 63, 96
3, 11352, Note_off_c, 0, 63, 64
3, 17280, Note_on_c, 0, 71, 96
3, 17304, Note_off_c, 0, 71, 64
3, 17310, Note_on_c, 0, 69, 96
3, 17334, Note_off_c, 0, 69, 64
3, 17340, Note_on_c, 0, 71, 96
3, 17712, Note_off_c, 0, 71, 64
3, 21600, Note_on_c, 0, 70, 96
3, 21612, Note_off_c, 0, 70, 64
3, 21615, Note_on_c, 0, 68, 96
3, 21627, Note_off_c, 0, 68, 64
3, 21630, Note_on_c, 0, 70, 96
3, 21642, Note_off_c, 0, 70, 64
3, 21645, Note_on_c, 0, 68, 96
3, 21657, Note_off_c, 0, 68, 64
3, 21660, Note_on_c, 0, 70, 96
3, 21672, Note_off_c, 0, 70, 64
3, 21675, Note_on_c, 0, 68, 96
3, 21687, Note_off_c, 0, 68, 64
3, 21690, Note_on_c, 0, 70, 96
3, 21702, Note_off_c, 0, 70, 64
3, 21705, Note_on_c, 0, 68, 96
3, 21912, Note_off_c, 0, 68, 64
3, 23040, Note_on_c, 0, 58, 96
3, 23052, Note_off_c, 0, 58, 64
3, 23055, Note_on_c, 0, 56, 96
3, 23067, Note_off_c, 0, 56, 64
3, 23070, Note_on_c, 0, 58, 96
3, 23082, Note_off_c, 0, 58, 64
3, 23085, Note_on_c, 0, 56, 96
3, 23097, Note_off_c, 0, 56, 64
3, 23100, Note_on_c, 0, 58, 96
3, 23112, Note_off_c, 0, 58, 64
3, 23115, Note_on_c, 0, 56, 96
3, 23127, Note_off_c, 0, 56, 64
3, 23130, Note_on_c, 0, 58, 96
3, 23142, Note_off_c, 0, 58, 64
3, 23145, Note_on_c, 0, 56, 96
3, 23157, Note_off_c, 0, 56, 64
3, 23160, Note_on_c, 0, 58, 96
3, 23172, Note_off_c, 0, 58, 64
3, 23175, Note_on_c, 0, 56, 96
3, 23187, Note_off_c, 0, 56, 64
3, 23190, Note_on_c, 0, 58, 96
3, 23202, Note_off_c, 0, 58, 64
3, 23205, Note_on_c, 0, 56, 96
3, 23217, Note_off_c, 0, 56, 64
3, 23220, Note_on_c, 0, 58, 96
3, 23232, Note_off_c, 0, 58, 64
3, 23235, Note_on_c, 0, 56, 96
3, 23247, Note_off_c, 0, 56, 64
3, 23250, Note_on_c, 0, 58, 96
3, 23262, Note_off_c, 0, 58, 64
3, 23265, Note_on_c, 0, 56, 96
3, 23277, Note_off_c, 0, 56, 64
3, 23280, Note_on_c, 0, 58, 96
3, 23292, Note_off_c, 0, 58, 64
3, 23295, Note_on_c, 0, 56, 96
3, 23307, Note_off_c, 0, 56, 64
3, 23310, Note_on_c, 0, 58, 96
3, 23322, Note_off_c, 0, 58, 64
3, 23325, Note_on_c, 0, 56, 96
3, 23337, Note_off_c, 0, 56, 64
3, 23340, Note_on_c, 0, 58, 96
3, 23352, Note_off_c, 0, 58, 64
3, 23355, Note_on_c, 0, 56, 96
3, 23367, Note_off_c, 0, 56, 64
3, 23370, Note_on_c, 0, 58, 96
3, 23382, Note_off_c, 0, 58, 64
3, 23385, Note_on_c, 0, 56, 96
3, 23397, Note_off_c, 0, 56, 64
3, 23400, Note_on_c, 0, 58, 96
3, 23412, Note_off_c, 0, 58, 64
3, 23415, Note_on_c, 0, 56, 96
3, 23427, Note_off_c, 0, 56, 64
3, 23430, Note_on_c, 0, 58, 96
3, 23442, Note_off_c, 0, 58, 64
3, 23445, Note_on_c, 0, 56, 96
3, 23457, Note_off_c, 0, 56, 64
3, 23460, Note_on_c, 0, 58, 96
3, 23472, Note_off_c, 0, 58, 64
3, 23475, Note_on_c, 0, 56, 96
3, 23487, Note_off_c, 0, 56, 64
3, 23490, Note_on_c, 0, 58, 96
3, 23502, Note_off_c, 0, 58, 64
3, 23505, Note_on_c, 0, 56, 96
3, 23517, Note_off_c, 0, 56, 64
3, 25440, Note_on_c, 0, 55, 96
3, 25584, Note_off_c, 0, 55, 64
3, 25620, Note_on_c, 0, 51, 96
3, 25668, Note_off_c, 0, 51, 64
3, 25680, Note_on_c, 0, 51, 96
3, 25692, Note_off_c, 0, 51, 64
3, 25695, Note_on_c, 0, 50, 96
3, 25707, Note_off_c, 0, 50, 64
3, 25710, Note_on_c, 0, 51, 96
3, 25722, Note_off_c, 0, 51, 64
3, 25725, Note_on_c, 0, 50, 96
3, 25737, Note_off_c, 0, 50, 64
3, 25740, Note_on_c, 0, 51, 96
3, 25752, Note_off_c, 0, 51, 64
3, 25755, Note_on_c, 0, 50, 96
3, 25767, Note_off_c, 0, 50, 64
3, 25770, Note_on_c, 0, 51, 96
3, 25782, Note_off_c, 0, 51, 64
3, 25785, Note_on_c, 0, 50, 96
3, 25848, Note_off_c, 0, 50, 64
3, 25860, Note_on_c, 0, 48, 96
3, 25908, Note_off_c, 0, 48, 64
3, 29280, Note_on_c, 0, 67, 96
3, 29424, Note_off_c, 0, 67, 64
3, 29460, Note_on_c, 0, 65, 96
3, 29508, Note_off_c, 0, 65, 64
3, 29520, Note_on_c, 0, 65, 96
3, 29532, Note_off_c, 0, 65, 64
3, 29535, Note_on_c, 0, 63, 96
3, 29547, Note_off_c, 0, 63, 64
3, 29550, Note_on_c, 0, 65, 96
3, 29562, Note_off_c, 0, 65, 64
3, 29565, Note_on_c, 0, 63, 96
3, 29577, Note_off_c, 0, 63, 64
3, 29580, Note_on_c, 0, 65, 96
3, 29592, Note_off_c, 0, 65, 64
3, 29595, Note_on_c, 0, 63, 96
3, 29607, Note_off_c, 0, 63, 64
3, 29610, Note_on_c, 0, 65, 96
3, 29622, Note_off_c, 0, 65, 64
3, 29625, Note_on_c, 0, 63, 96
3, 29688, Note_off_c, 0, 63, 64
3, 29700, Note_on_c, 0, 62, 96
3, 29748, Note_off_c, 0, 62, 64
3, 31200, Note_on_c, 0, 70, 96
3, 31212, Note_off_c, 0, 70, 64
3, 31215, Note_on_c, 0, 68, 96
3, 31227, Note_off_c, 0, 68, 64
3, 31230, Note_on_c, 0, 70, 96
3, 31242, Note_off_c, 0, 70, 64
3, 31245, Note_on_c, 0, 68, 96
3, 31257, Note_off_c, 0, 68, 64
3, 31260, Note_on_c, 0, 70, 96
3, 31272, Note_off_c, 0, 70, 64
3, 31275, Note_on_c, 0, 68, 96
3, 31287, Note_off_c, 0, 68, 64
3, 31290, Note_on_c, 0, 70, 96
3, 31302, Note_off_c, 0, 70, 64
3, 31305, Note_on_c, 0, 68, 96
3, 31433, Note_off_c, 0, 68, 64
3, 31440, Note_on_c, 0, 67, 96
3, 31632, Note_off_c, 0, 67, 64
3, 31680, Note_on_c, 0, 58, 96
3, 31692, Note_off_c, 0, 58, 64
3, 31695, Note_on_c, 0, 56, 96
3, 31707, Note_off_c, 0, 56, 64
3, 31710, Note_on_c, 0, 58, 96
3, 31722, Note_off_c, 0, 58, 64
3, 31725, Note_on_c, 0, 56, 96
3, 31737, Note_off_c, 0, 56, 64
3, 31740, Note_on_c, 0, 58, 96
3, 31752, Note_off_c, 0, 58, 64
3, 31755, Note_on_c, 0, 56, 96
3, 31767, Note_off_c, 0, 56, 64
3, 31770, Note_on_c, 0, 58, 96
3, 31782, Note_off_c, 0, 58, 64
3, 31785, Note_on_c, 0, 56, 96
3, 31896, Note_off_c, 0, 56, 64
3, 33120, Note_on_c, 0, 70, 76
3, 33132, Note_off_c, 0, 70, 64
3, 33135, Note_on_c, 0, 68, 76
3, 33147, Note_off_c, 0, 68, 64
3, 33150, Note_on_c, 0, 70, 76
3, 33162, Note_off_c, 0, 70, 64
3, 33165, Note_on_c, 0, 68, 76
3, 33177, Note_off_c, 0, 68, 64
3, 33180, Note_on_c, 0, 70, 76
3, 33192, Note_off_c, 0, 70, 64
3, 33195, Note_on_c, 0, 68, 76
3, 33207, Note_off_c, 0, 68, 64
3, 33210, Note_on_c, 0, 70, 76
3, 33222, Note_off_c, 0, 70, 64
3, 33225, Note_on_c, 0, 68, 76
3, 33336, Note_off_c, 0, 68, 64
3, 33360, Note_on_c, 0, 67, 76
3, 33552, Note_off_c, 0, 67, 64
3, 33600, Note_on_c, 0, 58, 76
3, 33612, Note_off_c, 0, 58, 64
3, 33615, Note_on_c, 0, 56, 76
3, 33627, Note_off_c, 0, 56, 64
3, 33630, Note_on_c, 0, 58, 76
3, 33630, Note_on_c, 0, 58, 76
3, 33630, Note_on_c, 0, 56, 76
3, 33642, Note_off_c, 0, 56, 64
3, 33642, Note_off_c, 0, 58, 64
3, 33642, Note_off_c, 0, 58, 64
3, 33645, Note_on_c, 0, 56, 76
3, 33657, Note_off_c, 0, 56, 64
3, 33660, Note_on_c, 0, 58, 76
3, 33672, Note_off_c, 0, 58, 64
3, 33675, Note_on_c, 0, 56, 76
3, 33786, Note_off_c, 0, 56, 64
3, 35040, Note_on_c, 0, 77, 76
3, 35052, Note_off_c, 0, 77, 64
3, 35055, Note_on_c, 0, 75, 76
3, 35067, Note_off_c, 0, 75, 64
3, 35070, Note_on_c, 0, 77, 76
3, 35082, Note_off_c, 0, 77, 64
3, 35085, Note_on_c, 0, 75, 76
3, 35097, Note_off_c, 0, 75, 64
3, 35100, Note_on_c, 0, 77, 76
3, 35112, Note_off_c, 0, 77, 64
3, 35115, Note_on_c, 0, 75, 76
3, 35127, Note_off_c, 0, 75, 64
3, 35130, Note_on_c, 0, 77, 76
3, 35142, Note_off_c, 0, 77, 64
3, 35145, Note_on_c, 0, 75, 76
3, 35256, Note_off_c, 0, 75, 64
3, 35280, Note_on_c, 0, 74, 76
3, 35472, Note_off_c, 0, 74, 64
3, 35520, Note_on_c, 0, 65, 76
3, 35532, Note_off_c, 0, 65, 64
3, 35535, Note_on_c, 0, 63, 76
3, 35547, Note_off_c, 0, 63, 64
3, 35550, Note_on_c, 0, 65, 76
3, 35562, Note_off_c, 0, 65, 64
3, 35565, Note_on_c, 0, 63, 76
3, 35577, Note_off_c, 0, 63, 64
3, 35580, Note_on_c, 0, 65, 76
3, 35592, Note_off_c, 0, 65, 64
3, 35595, Note_on_c, 0, 63, 76
3, 35607, Note_off_c, 0, 63, 64
3, 35610, Note_on_c, 0, 65, 76
3, 35622, Note_off_c, 0, 65, 64
3, 35625, Note_on_c, 0, 63, 76
3, 35736, Note_off_c, 0, 63, 64
3, 35760, Note_on_c, 0, 62, 76
3, 35952, Note_off_c, 0, 62, 64
3, 36960, Note_on_c, 0, 77, 76
3, 36972, Note_off_c, 0, 77, 64
3, 36975, Note_on_c, 0, 75, 76
3, 36987, Note_off_c, 0, 75, 64
3, 36990, Note_on_c, 0, 77, 76
3, 37002, Note_off_c, 0, 77, 64
3, 37005, Note_on_c, 0, 75, 76
3, 37017, Note_off_c, 0, 75, 64
3, 37020, Note_on_c, 0, 77, 76
3, 37032, Note_off_c, 0, 77, 64
3, 37035, Note_on_c, 0, 75, 76
3, 37047, Note_off_c, 0, 75, 64
3, 37050, Note_on_c, 0, 77, 76
3, 37062, Note_off_c, 0, 77, 64
3, 37065, Note_on_c, 0, 75, 76
3, 37176, Note_off_c, 0, 75, 64
3, 37200, Note_on_c, 0, 74, 76
3, 37392, Note_off_c, 0, 74, 64
3, 37440, Note_on_c, 0, 65, 76
3, 37452, Note_off_c, 0, 65, 64
3, 37455, Note_on_c, 0, 63, 76
3, 37467, Note_off_c, 0, 63, 64
3, 37470, Note_on_c, 0, 65, 76
3, 37482, Note_off_c, 0, 65, 64
3, 37485, Note_on_c, 0, 63, 76
3, 37497, Note_off_c, 0, 63, 64
3, 37500, Note_on_c, 0, 65, 76
3, 37512, Note_off_c, 0, 65, 64
3, 37515, Note_on_c, 0, 63, 76
3, 37527, Note_off_c, 0, 63, 64
3, 37530, Note_on_c, 0, 65, 76
3, 37542, Note_off_c, 0, 65, 64
3, 37545, Note_on_c, 0, 63, 76
3, 37656, Note_off_c, 0, 63, 64
3, 37680, Note_on_c, 0, 62, 76
3, 37872, Note_off_c, 0, 62, 64
3, 46800, Note_on_c, 0, 70, 96
3, 46812, Note_off_c, 0, 70, 64
3, 46815, Note_on_c, 0, 69, 96
3, 46827, Note_off_c, 0, 69, 64
3, 46830, Note_on_c, 0, 70, 96
3, 46842, Note_off_c, 0, 70, 64
3, 46845, Note_on_c, 0, 69, 96
3, 46857, Note_off_c, 0, 69, 64
3, 46860, Note_on_c, 0, 70, 96
3, 46872, Note_off_c, 0, 70, 64
3, 46875, Note_on_c, 0, 69, 96
3, 46887, Note_off_c, 0, 69, 64
3, 46890, Note_on_c, 0, 70, 96
3, 46902, Note_off_c, 0, 70, 64
3, 46905, Note_on_c, 0, 69, 96
3, 46968, Note_off_c, 0, 69, 64
3, 46980, Note_on_c, 0, 70, 96
3, 47028, Note_off_c, 0, 70, 64
3, 49440, Note_on_c, 0, 58, 96
3, 49452, Note_off_c, 0, 58, 64
3, 49455, Note_on_c, 0, 57, 96
3, 49467, Note_off_c, 0, 57, 64
3, 49470, Note_on_c, 0, 58, 96
3, 49482, Note_off_c, 0, 58, 64
3, 49485, Note_on_c, 0, 57, 96
3, 49497, Note_off_c, 0, 57, 64
3, 49500, Note_on_c, 0, 58, 96
3, 49512, Note_off_c, 0, 58, 64
3, 49515, Note_on_c, 0, 57, 96
3, 49527, Note_off_c, 0, 57, 64
3, 49530, Note_on_c, 0, 58, 96
3, 49542, Note_off_c, 0, 58, 64
3, 49545, Note_on_c, 0, 57, 96
3, 49848, Note_off_c, 0, 57, 64
3, 51360, Note_on_c, 0, 51, 96
3, 51372, Note_off_c, 0, 51, 64
3, 51375, Note_on_c, 0, 50, 96
3, 51387, Note_off_c, 0, 50, 64
3, 51390, Note_on_c, 0, 51, 96
3, 51402, Note_off_c, 0, 51, 64
3, 51405, Note_on_c, 0, 50, 96
3, 51417, Note_off_c, 0, 50, 64
3, 51420, Note_on_c, 0, 51, 96
3, 51432, Note_off_c, 0, 51, 64
3, 51435, Note_on_c, 0, 50, 96
3, 51447, Note_off_c, 0, 50, 64
3, 51450, Note_on_c, 0, 51, 96
3, 51462, Note_off_c, 0, 51, 64
3, 51465, Note_on_c, 0, 50, 96
3, 51768, Note_off_c, 0, 50, 64
3, 98880, Note_on_c, 0, 77, 96
3, 98892, Note_off_c, 0, 77, 64
3, 98895, Note_on_c, 0, 75, 96
3, 98907, Note_off_c, 0, 75, 64
3, 98910, Note_on_c, 0, 77, 96
3, 98922, Note_off_c, 0, 77, 64
3, 98925, Note_on_c, 0, 75, 96
3, 98937, Note_off_c, 0, 75, 64
3, 98940, Note_on_c, 0, 77, 96
3, 98952, Note_off_c, 0, 77, 64
3, 98955, Note_on_c, 0, 75, 96
3, 98967, Note_off_c, 0, 75, 64
3, 98970, Note_on_c, 0, 77, 96
3, 98982, Note_off_c, 0, 77, 64
3, 98985, Note_on_c, 0, 75, 96
3, 98997, Note_off_c, 0, 75, 64
3, 99000, Note_on_c, 0, 77, 96
3, 99012, Note_off_c, 0, 77, 64
3, 99015, Note_on_c, 0, 75, 96
3, 99027, Note_off_c, 0, 75, 64
3, 99030, Note_on_c, 0, 77, 96
3, 99042, Note_off_c, 0, 77, 64
3, 99045, Note_on_c, 0, 75, 96
3, 99057, Note_off_c, 0, 75, 64
3, 99060, Note_on_c, 0, 77, 96
3, 99072, Note_off_c, 0, 77, 64
3, 99075, Note_on_c, 0, 75, 96
3, 99087, Note_off_c, 0, 75, 64
3, 99090, Note_on_c, 0, 77, 96
3, 99102, Note_off_c, 0, 77, 64
3, 99105, Note_on_c, 0, 75, 96
3, 99117, Note_off_c, 0, 75, 64
3, 99120, Note_on_c, 0, 77, 96
3, 99132, Note_off_c, 0, 77, 64
3, 99135, Note_on_c, 0, 75, 96
3, 99147, Note_off_c, 0, 75, 64
3, 99150, Note_on_c, 0, 77, 96
3, 99162, Note_off_c, 0, 77, 64
3, 99165, Note_on_c, 0, 75, 96
3, 99177, Note_off_c, 0, 75, 64
3, 99180, Note_on_c, 0, 77, 96
3, 99192, Note_off_c, 0, 77, 64
3, 99195, Note_on_c, 0, 75, 96
3, 99207, Note_off_c, 0, 75, 64
3, 99210, Note_on_c, 0, 77, 96
3, 99222, Note_off_c, 0, 77, 64
3, 99225, Note_on_c, 0, 75, 96
3, 99237, Note_off_c, 0, 75, 64
3, 99240, Note_on_c, 0, 77, 96
3, 99252, Note_off_c, 0, 77, 64
3, 99255, Note_on_c, 0, 75, 96
3, 99267, Note_off_c, 0, 75, 64
3, 99270, Note_on_c, 0, 77, 96
3, 99282, Note_off_c, 0, 77, 64
3, 99285, Note_on_c, 0, 75, 96
3, 99297, Note_off_c, 0, 75, 64
3, 99300, Note_on_c, 0, 77, 96
3, 99312, Note_off_c, 0, 77, 64
3, 99315, Note_on_c, 0, 75, 96
3, 99327, Note_off_c, 0, 75, 64
3, 99330, Note_on_c, 0, 77, 96
3, 99342, Note_off_c, 0, 77, 64
3, 99345, Note_on_c, 0, 75, 96
3, 99357, Note_off_c, 0, 75, 64
3, 107040, Note_on_c, 0, 75, 96
3, 107052, Note_off_c, 0, 75, 64
3, 107055, Note_on_c, 0, 73, 96
3, 107067, Note_off_c, 0, 73, 64
3, 107070, Note_on_c, 0, 75, 96
3, 107082, Note_off_c, 0, 75, 64
3, 107085, Note_on_c, 0, 73, 96
3, 107097, Note_off_c, 0, 73, 64
3, 107100, Note_on_c, 0, 75, 96
3, 107112, Note_off_c, 0, 75, 64
3, 107115, Note_on_c, 0, 73, 96
3, 107127, Note_off_c, 0, 73, 64
3, 107130, Note_on_c, 0, 75, 96
3, 107142, Note_off_c, 0, 75, 64
3, 107145, Note_on_c, 0, 73, 96
3, 107256, Note_off_c, 0, 73, 64
3, 107280, Note_on_c, 0, 72, 96
3, 107472, Note_off_c, 0, 72, 64
3, 107520, Note_on_c, 0, 63, 96
3, 107532, Note_off_c, 0, 63, 64
3, 107535, Note_on_c, 0, 61, 96
3, 107547, Note_off_c, 0, 61, 64
3, 107550, Note_on_c, 0, 63, 96
3, 107562, Note_off_c, 0, 63, 64
3, 107565, Note_on_c, 0, 61, 96
3, 107577, Note_off_c, 0, 61, 64
3, 107580, Note_on_c, 0, 63, 96
3, 107592, Note_off_c, 0, 63, 64
3, 107595, Note_on_c, 0, 61, 96
3, 107607, Note_off_c, 0, 61, 64
3, 107610, Note_on_c, 0, 63, 96
3, 107622, Note_off_c, 0, 63, 64
3, 107625, Note_on_c, 0, 61, 96
3, 107736, Note_off_c, 0, 61, 64
3, 107760, Note_on_c, 0, 60, 96
3, 107952, Note_off_c, 0, 60, 64
3, 108960, Note_on_c, 0, 75, 76
3, 108972, Note_off_c, 0, 75, 64
3, 108975, Note_on_c, 0, 73, 76
3, 108987, Note_off_c, 0, 73, 64
3, 108990, Note_on_c, 0, 75, 76
3, 109002, Note_off_c, 0, 75, 64
3, 109005, Note_on_c, 0, 73, 76
3, 109017, Note_off_c, 0, 73, 64
3, 109020, Note_on_c, 0, 75, 76
3, 109032, Note_off_c, 0, 75, 64
3, 109035, Note_on_c, 0, 73, 76
3, 109047, Note_off_c, 0, 73, 64
3, 109050, Note_on_c, 0, 75, 76
3, 109062, Note_off_c, 0, 75, 64
3, 109065, Note_on_c, 0, 73, 76
3, 109176, Note_off_c, 0, 73, 64
3, 109200, Note_on_c, 0, 72, 76
3, 109392, Note_off_c, 0, 72, 64
3, 109440, Note_on_c, 0, 63, 76
3, 109452, Note_off_c, 0, 63, 64
3, 109455, Note_on_c, 0, 61, 76
3, 109467, Note_off_c, 0, 61, 64
3, 109470, Note_on_c, 0, 63, 76
3, 109482, Note_off_c, 0, 63, 64
3, 109485, Note_on_c, 0, 61, 76
3, 109497, Note_off_c, 0, 61, 64
3, 109500, Note_on_c, 0, 63, 76
3, 109512, Note_off_c, 0, 63, 64
3, 109515, Note_on_c, 0, 61, 76
3, 109527, Note_off_c, 0, 61, 64
3, 109530, Note_on_c, 0, 63, 76
3, 109542, Note_off_c, 0, 63, 64
3, 109545, Note_on_c, 0, 61, 76
3, 109656, Note_off_c, 0, 61, 64
3, 109680, Note_on_c, 0, 60, 76
3, 109872, Note_off_c, 0, 60, 64
3, 110880, Note_on_c, 0, 70, 96
3, 110892, Note_off_c, 0, 70, 64
3, 110895, Note_on_c, 0, 68, 96
3, 110907, Note_off_c, 0, 68, 64
3, 110910, Note_on_c, 0, 70, 96
3, 110922, Note_off_c, 0, 70, 64
3, 110925, Note_on_c, 0, 68, 96
3, 110937, Note_off_c, 0, 68, 64
3, 110940, Note_on_c, 0, 70, 96
3, 110952, Note_off_c, 0, 70, 64
3, 110955, Note_on_c, 0, 68, 96
3, 110967, Note_off_c, 0, 68, 64
3, 110970, Note_on_c, 0, 70, 96
3, 110982, Note_off_c, 0, 70, 64
3, 110985, Note_on_c, 0, 68, 96
3, 111096, Note_off_c, 0, 68, 64
3, 111360, Note_on_c, 0, 58, 96
3, 111372, Note_off_c, 0, 58, 64
3, 111375, Note_on_c, 0, 56, 96
3, 111387, Note_off_c, 0, 56, 64
3, 111390, Note_on_c, 0, 58, 96
3, 111402, Note_off_c, 0, 58, 64
3, 111405, Note_on_c, 0, 56, 96
3, 111417, Note_off_c, 0, 56, 64
3, 111420, Note_on_c, 0, 58, 96
3, 111432, Note_off_c, 0, 58, 64
3, 111435, Note_on_c, 0, 56, 96
3, 111447, Note_off_c, 0, 56, 64
3, 111450, Note_on_c, 0, 58, 96
3, 111462, Note_off_c, 0, 58, 64
3, 111465, Note_on_c, 0, 56, 96
3, 111576, Note_off_c, 0, 56, 64
3, 112800, Note_on_c, 0, 70, 76
3, 112812, Note_off_c, 0, 70, 64
3, 112815, Note_on_c, 0, 68, 76
3, 112827, Note_off_c, 0, 68, 64
3, 112830, Note_on_c, 0, 70, 76
3, 112842, Note_off_c, 0, 70, 64
3, 112845, Note_on_c, 0, 68, 76
3, 112857, Note_off_c, 0, 68, 64
3, 112860, Note_on_c, 0, 70, 76
3, 112872, Note_off_c, 0, 70, 64
3, 112875, Note_on_c, 0, 68, 76
3, 112887, Note_off_c, 0, 68, 64
3, 112890, Note_on_c, 0, 70, 76
3, 112902, Note_off_c, 0, 70, 64
3, 112905, Note_on_c, 0, 68, 76
3, 113016, Note_off_c, 0, 68, 64
3, 113280, Note_on_c, 0, 58, 76
3, 113292, Note_off_c, 0, 58, 64
3, 113295, Note_on_c, 0, 56, 76
3, 113307, Note_off_c, 0, 56, 64
3, 113310, Note_on_c, 0, 58, 76
3, 113322, Note_off_c, 0, 58, 64
3, 113325, Note_on_c, 0, 56, 76
3, 113337, Note_off_c, 0, 56, 64
3, 113340, Note_on_c, 0, 58, 76
3, 113352, Note_off_c, 0, 58, 64
3, 113355, Note_on_c, 0, 56, 76
3, 113367, Note_off_c, 0, 56, 64
3, 113370, Note_on_c, 0, 58, 76
3, 113382, Note_off_c, 0, 58, 64
3, 113385, Note_on_c, 0, 56, 76
3, 113496, Note_off_c, 0, 56, 64
3, 122640, Note_on_c, 0, 75, 76
3, 122652, Note_off_c, 0, 75, 64
3, 122655, Note_on_c, 0, 74, 76
3, 122667, Note_off_c, 0, 74, 64
3, 122670, Note_on_c, 0, 75, 76
3, 122682, Note_off_c, 0, 75, 64
3, 122685, Note_on_c, 0, 74, 76
3, 122697, Note_off_c, 0, 74, 64
3, 122700, Note_on_c, 0, 75, 76
3, 122712, Note_off_c, 0, 75, 64
3, 122715, Note_on_c, 0, 74, 76
3, 122727, Note_off_c, 0, 74, 64
3, 122730, Note_on_c, 0, 75, 76
3, 122742, Note_off_c, 0, 75, 64
3, 122745, Note_on_c, 0, 74, 76
3, 122808, Note_off_c, 0, 74, 64
3, 122820, Note_on_c, 0, 75, 76
3, 122868, Note_off_c, 0, 75, 64
3, 169440, Note_on_c, 0, 63, 96
3, 169464, Note_off_c, 0, 63, 64
3, 169470, Note_on_c, 0, 62, 96
3, 169494, Note_off_c, 0, 62, 64
3, 169500, Note_on_c, 0, 63, 96
3, 169644, Note_off_c, 0, 63, 64
3, 170640, Note_on_c, 0, 75, 96
3, 170655, Note_off_c, 0, 75, 64
3, 170655, Note_on_c, 0, 74, 96
3, 170670, Note_off_c, 0, 74, 64
3, 170670, Note_on_c, 0, 75, 96
3, 170685, Note_off_c, 0, 75, 64
3, 170685, Note_on_c, 0, 74, 96
3, 170700, Note_off_c, 0, 74, 64
3, 170700, Note_on_c, 0, 75, 96
3, 170712, Note_off_c, 0, 75, 64
3, 170715, Note_on_c, 0, 74, 96
3, 170727, Note_off_c, 0, 74, 64
3, 170730, Note_on_c, 0, 75, 96
3, 170742, Note_off_c, 0, 75, 64
3, 170745, Note_on_c, 0, 74, 96
3, 170808, Note_off_c, 0, 74, 64
3, 170820, Note_on_c, 0, 72, 96
3, 170868, Note_off_c, 0, 72, 64
3, 171600, Note_on_c, 0, 74, 96
3, 171612, Note_off_c, 0, 74, 64
3, 171615, Note_on_c, 0, 72, 96
3, 171627, Note_off_c, 0, 72, 64
3, 171630, Note_on_c, 0, 74, 96
3, 171642, Note_off_c, 0, 74, 64
3, 171645, Note_on_c, 0, 72, 96
3, 171657, Note_off_c, 0, 72, 64
3, 171660, Note_on_c, 0, 74, 96
3, 171672, Note_off_c, 0, 74, 64
3, 171675, Note_on_c, 0, 72, 96
3, 171690, Note_off_c, 0, 72, 64
3, 171690, Note_on_c, 0, 74, 96
3, 171702, Note_off_c, 0, 74, 64
3, 171705, Note_on_c, 0, 72, 96
3, 171768, Note_off_c, 0, 72, 64
3, 171780, Note_on_c, 0, 70, 96
3, 171828, Note_off_c, 0, 70, 64
3, 177120, Note_on_c, 0, 65, 96
3, 177132, Note_off_c, 0, 65, 64
3, 177135, Note_on_c, 0, 63, 96
3, 177147, Note_off_c, 0, 63, 64
3, 177150, Note_on_c, 0, 65, 96
3, 177162, Note_off_c, 0, 65, 64
3, 177165, Note_on_c, 0, 63, 96
3, 177177, Note_off_c, 0, 63, 64
3, 177180, Note_on_c, 0, 65, 96
3, 177192, Note_off_c, 0, 65, 64
3, 177195, Note_on_c, 0, 63, 96
3, 177207, Note_off_c, 0, 63, 64
3, 177210, Note_on_c, 0, 65, 96
3, 177222, Note_off_c, 0, 65, 64
3, 177225, Note_on_c, 0, 63, 96
3, 177432, Note_off_c, 0, 63, 64
3, 183360, Note_on_c, 0, 71, 96
3, 183384, Note_off_c, 0, 71, 64
3, 183390, Note_on_c, 0, 69, 96
3, 183414, Note_off_c, 0, 69, 64
3, 183420, Note_on_c, 0, 71, 96
3, 183792, Note_off_c, 0, 71, 64
3, 187680, Note_on_c, 0, 70, 96
3, 187692, Note_off_c, 0, 70, 64
3, 187695, Note_on_c, 0, 68, 96
3, 187707, Note_off_c, 0, 68, 64
3, 187710, Note_on_c, 0, 70, 96
3, 187722, Note_off_c, 0, 70, 64
3, 187725, Note_on_c, 0, 68, 96
3, 187737, Note_off_c, 0, 68, 64
3, 187740, Note_on_c, 0, 70, 96
3, 187752, Note_off_c, 0, 70, 64
3, 187755, Note_on_c, 0, 68, 96
3, 187767, Note_off_c, 0, 68, 64
3, 187770, Note_on_c, 0, 70, 96
3, 187782, Note_off_c, 0, 70, 64
3, 187785, Note_on_c, 0, 68, 96
3, 187992, Note_off_c, 0, 68, 64
3, 189120, Note_on_c, 0, 58, 96
3, 189132, Note_off_c, 0, 58, 64
3, 189135, Note_on_c, 0, 56, 96
3, 189147, Note_off_c, 0, 56, 64
3, 189150, Note_on_c, 0, 58, 96
3, 189162, Note_off_c, 0, 58, 64
3, 189165, Note_on_c, 0, 56, 96
3, 189177, Note_off_c, 0, 56, 64
3, 189180, Note_on_c, 0, 58, 96
3, 189192, Note_off_c, 0, 58, 64
3, 189195, Note_on_c, 0, 56, 96
3, 189207, Note_off_c, 0, 56, 64
3, 189210, Note_on_c, 0, 58, 96
3, 189222, Note_off_c, 0, 58, 64
3, 189225, Note_on_c, 0, 56, 96
3, 189237, Note_off_c, 0, 56, 64
3, 189240, Note_on_c, 0, 58, 96
3, 189252, Note_off_c, 0, 58, 64
3, 189255, Note_on_c, 0, 56, 96
3, 189267, Note_off_c, 0, 56, 64
3, 189270, Note_on_c, 0, 58, 96
3, 189282, Note_off_c, 0, 58, 64
3, 189285, Note_on_c, 0, 56, 96
3, 189297, Note_off_c, 0, 56, 64
3, 189300, Note_on_c, 0, 58, 96
3, 189312, Note_off_c, 0, 58, 64
3, 189315, Note_on_c, 0, 56, 96
3, 189327, Note_off_c, 0, 56, 64
3, 189330, Note_on_c, 0, 58, 96
3, 189342, Note_off_c, 0, 58, 64
3, 189345, Note_on_c, 0, 56, 96
3, 189357, Note_off_c, 0, 56, 64
3, 189360, Note_on_c, 0, 58, 96
3, 189372, Note_off_c, 0, 58, 64
3, 189375, Note_on_c, 0, 56, 96
3, 189387, Note_off_c, 0, 56, 64
3, 189390, Note_on_c, 0, 58, 96
3, 189402, Note_off_c, 0, 58, 64
3, 189405, Note_on_c, 0, 56, 96
3, 189417, Note_off_c, 0, 56, 64
3, 189420, Note_on_c, 0, 58, 96
3, 189432, Note_off_c, 0, 58, 64
3, 189435, Note_on_c, 0, 56, 96
3, 189447, Note_off_c, 0, 56, 64
3, 189450, Note_on_c, 0, 58, 96
3, 189462, Note_off_c, 0, 58, 64
3, 189465, Note_on_c, 0, 56, 96
3, 189477, Note_off_c, 0, 56, 64
3, 189480, Note_on_c, 0, 58, 96
3, 189492, Note_off_c, 0, 58, 64
3, 189495, Note_on_c, 0, 56, 96
3, 189507, Note_off_c, 0, 56, 64
3, 189510, Note_on_c, 0, 58, 96
3, 189522, Note_off_c, 0, 58, 64
3, 189525, Note_on_c, 0, 56, 96
3, 189537, Note_off_c, 0, 56, 64
3, 189540, Note_on_c, 0, 58, 96
3, 189552, Note_off_c, 0, 58, 64
3, 189555, Note_on_c, 0, 56, 96
3, 189567, Note_off_c, 0, 56, 64
3, 189570, Note_on_c, 0, 58, 96
3, 189582, Note_off_c, 0, 58, 64
3, 189585, Note_on_c, 0, 56, 96
3, 189597, Note_off_c, 0, 56, 64
3, 191520, Note_on_c, 0, 55, 96
3, 191664, Note_off_c, 0, 55, 64
3, 191700, Note_on_c, 0, 51, 96
3, 191748, Note_off_c, 0, 51, 64
3, 191760, Note_on_c, 0, 51, 96
3, 191772, Note_off_c, 0, 51, 64
3, 191775, Note_on_c, 0, 50, 96
3, 191787, Note_off_c, 0, 50, 64
3, 191790, Note_on_c, 0, 51, 96
3, 191802, Note_off_c, 0, 51, 64
3, 191805, Note_on_c, 0, 50, 96
3, 191817, Note_off_c, 0, 50, 64
3, 191820, Note_on_c, 0, 51, 96
3, 191832, Note_off_c, 0, 51, 64
3, 191835, Note_on_c, 0, 50, 96
3, 191847, Note_off_c, 0, 50, 64
3, 191850, Note_on_c, 0, 51, 96
3, 191862, Note_off_c, 0, 51, 64
3, 191865, Note_on_c, 0, 50, 96
3, 191928, Note_off_c, 0, 50, 64
3, 191940, Note_on_c, 0, 48, 96
3, 191988, Note_off_c, 0, 48, 64
3, 195360, Note_on_c, 0, 67, 96
3, 195504, Note_off_c, 0, 67, 64
3, 195540, Note_on_c, 0, 65, 96
3, 195588, Note_off_c, 0, 65, 64
3, 195600, Note_on_c, 0, 65, 96
3, 195612, Note_off_c, 0, 65, 64
3, 195615, Note_on_c, 0, 63, 96
3, 195627, Note_off_c, 0, 63, 64
3, 195630, Note_on_c, 0, 65, 96
3, 195642, Note_off_c, 0, 65, 64
3, 195645, Note_on_c, 0, 63, 96
3, 195657, Note_off_c, 0, 63, 64
3, 195660, Note_on_c, 0, 65, 96
3, 195672, Note_off_c, 0, 65, 64
3, 195675, Note_on_c, 0, 63, 96
3, 195687, Note_off_c, 0, 63, 64
3, 195690, Note_on_c, 0, 65, 96
3, 195702, Note_off_c, 0, 65, 64
3, 195705, Note_on_c, 0, 63, 96
3, 195768, Note_off_c, 0, 63, 64
3, 195780, Note_on_c, 0, 62, 96
3, 195828, Note_off_c, 0, 62, 64
3, 195828, End_track
4, 0, Start_track
4, 0, Title_t, "Copyright 1998(c), G. Bricault"
4, 0, Program_c, 0, 19
4, 0, Control_c, 0, 7, 127
4, 0, Note_on_c, 0, 58, 127
4, 0, Note_on_c, 0, 55, 110
4, 384, Note_off_c, 0, 55, 64
4, 384, Note_off_c, 0, 58, 64
4, 840, Note_on_c, 0, 58, 110
4, 840, Note_on_c, 0, 63, 110
4, 936, Note_off_c, 0, 63, 64
4, 936, Note_off_c, 0, 58, 64
4, 960, Note_on_c, 0, 65, 110
4, 960, Note_on_c, 0, 58, 110
4, 2304, Note_off_c, 0, 65, 64
4, 2304, Note_off_c, 0, 58, 64
4, 2760, Note_on_c, 0, 53, 110
4, 2760, Note_on_c, 0, 62, 110
4, 2856, Note_off_c, 0, 62, 64
4, 2856, Note_off_c, 0, 53, 64
4, 2880, Note_on_c, 0, 58, 110
4, 2880, Note_on_c, 0, 51, 110
4, 3648, Note_off_c, 0, 51, 64
4, 3648, Note_off_c, 0, 58, 64
4, 4260, Note_on_c, 0, 55, 110
4, 4308, Note_off_c, 0, 55, 64
4, 4320, Note_on_c, 0, 60, 110
4, 4740, Note_on_c, 0, 55, 110
4, 4788, Note_off_c, 0, 55, 64
4, 4800, Note_on_c, 0, 53, 110
4, 5088, Note_off_c, 0, 60, 64
4, 5184, Note_off_c, 0, 53, 64
4, 5220, Note_on_c, 0, 60, 110
4, 5268, Note_off_c, 0, 60, 64
4, 5280, Note_on_c, 0, 58, 110
4, 5700, Note_on_c, 0, 53, 110
4, 5748, Note_off_c, 0, 53, 64
4, 5760, Note_on_c, 0, 55, 110
4, 6048, Note_off_c, 0, 55, 64
4, 6180, Note_on_c, 0, 53, 110
4, 6228, Note_off_c, 0, 53, 64
4, 6240, Note_on_c, 0, 55, 110
4, 6384, Note_off_c, 0, 58, 64
4, 6420, Note_on_c, 0, 57, 110
4, 6432, Note_off_c, 0, 55, 64
4, 6468, Note_off_c, 0, 57, 64
4, 6480, Note_on_c, 0, 55, 110
4, 6624, Note_off_c, 0, 55, 64
4, 6660, Note_on_c, 0, 53, 110
4, 6708, Note_off_c, 0, 53, 64
4, 6720, Note_on_c, 0, 58, 110
4, 7140, Note_on_c, 0, 53, 110
4, 7188, Note_off_c, 0, 53, 64
4, 7200, Note_on_c, 0, 55, 110
4, 7344, Note_off_c, 0, 58, 64
4, 7380, Note_on_c, 0, 62, 110
4, 7392, Note_off_c, 0, 55, 64
4, 7428, Note_off_c, 0, 62, 64
4, 7440, Note_on_c, 0, 60, 110
4, 7584, Note_off_c, 0, 60, 64
4, 7620, Note_on_c, 0, 58, 110
4, 7668, Note_off_c, 0, 58, 64
4, 7680, Note_on_c, 0, 60, 110
4, 8100, Note_on_c, 0, 53, 110
4, 8148, Note_off_c, 0, 53, 64
4, 8160, Note_on_c, 0, 48, 110
4, 8304, Note_off_c, 0, 60, 64
4, 8340, Note_on_c, 0, 58, 110
4, 8352, Note_off_c, 0, 48, 64
4, 8388, Note_off_c, 0, 58, 64
4, 8400, Note_on_c, 0, 57, 110
4, 8544, Note_off_c, 0, 57, 64
4, 8580, Note_on_c, 0, 55, 110
4, 8628, Note_off_c, 0, 55, 64
4, 8640, Note_on_c, 0, 53, 110
4, 9060, Note_on_c, 0, 44, 110
4, 9108, Note_off_c, 0, 44, 64
4, 9120, Note_on_c, 0, 53, 110
4, 9264, Note_off_c, 0, 53, 64
4, 9300, Note_on_c, 0, 51, 110
4, 9345, Note_off_c, 0, 53, 64
4, 9348, Note_off_c, 0, 51, 64
4, 9360, Note_on_c, 0, 50, 110
4, 9504, Note_off_c, 0, 50, 64
4, 9540, Note_on_c, 0, 53, 110
4, 9540, Note_on_c, 0, 48, 110
4, 9588, Note_off_c, 0, 48, 64
4, 9588, Note_off_c, 0, 53, 64
4, 9600, Note_on_c, 0, 53, 110
4, 9600, Note_on_c, 0, 46, 110
4, 9984, Note_off_c, 0, 46, 64
4, 9984, Note_off_c, 0, 53, 64
4, 10260, Note_on_c, 0, 53, 110
4, 10308, Note_off_c, 0, 53, 64
4, 10320, Note_on_c, 0, 51, 110
4, 10464, Note_off_c, 0, 51, 64
4, 10500, Note_on_c, 0, 53, 110
4, 10548, Note_off_c, 0, 53, 64
4, 10560, Note_on_c, 0, 55, 110
4, 10740, Note_on_c, 0, 46, 110
4, 10788, Note_off_c, 0, 46, 64
4, 10800, Note_on_c, 0, 48, 110
4, 10944, Note_off_c, 0, 48, 64
4, 10980, Note_on_c, 0, 50, 110
4, 11028, Note_off_c, 0, 50, 64
4, 11040, Note_on_c, 0, 51, 110
4, 11184, Note_off_c, 0, 55, 64
4, 11220, Note_on_c, 0, 55, 110
4, 11268, Note_off_c, 0, 55, 64
4, 11280, Note_on_c, 0, 53, 110
4, 11424, Note_off_c, 0, 53, 64
4, 11424, Note_off_c, 0, 51, 64
4, 11460, Note_on_c, 0, 55, 110
4, 11508, Note_off_c, 0, 55, 64
4, 11520, Note_on_c, 0, 51, 110
4, 11520, Note_on_c, 0, 57, 110
4, 11904, Note_off_c, 0, 57, 64
4, 11904, Note_off_c, 0, 51, 64
4, 12000, Note_on_c, 0, 50, 110
4, 12480, Note_on_c, 0, 50, 110
4, 12672, Note_off_c, 0, 50, 64
4, 12672, Note_off_c, 0, 50, 64
4, 13140, Note_on_c, 0, 55, 110
4, 13140, Note_on_c, 0, 55, 110
4, 13188, Note_off_c, 0, 55, 64
4, 13188, Note_off_c, 0, 55, 64
4, 13200, Note_on_c, 0, 57, 110
4, 13200, Note_on_c, 0, 57, 110
4, 13344, Note_off_c, 0, 57, 64
4, 13344, Note_off_c, 0, 57, 64
4, 13380, Note_on_c, 0, 58, 110
4, 13380, Note_on_c, 0, 58, 110
4, 13428, Note_off_c, 0, 58, 64
4, 13428, Note_off_c, 0, 58, 64
4, 13440, Note_on_c, 0, 60, 110
4, 13824, Note_off_c, 0, 60, 64
4, 13920, Note_on_c, 0, 65, 110
4, 15168, Note_off_c, 0, 65, 64
4, 15360, Note_on_c, 0, 53, 110
4, 15648, Note_off_c, 0, 53, 64
4, 15660, Note_on_c, 0, 51, 110
4, 15708, Note_off_c, 0, 51, 64
4, 15720, Note_on_c, 0, 50, 110
4, 15768, Note_off_c, 0, 50, 64
4, 15780, Note_on_c, 0, 48, 110
4, 15828, Note_off_c, 0, 48, 64
4, 15840, Note_on_c, 0, 46, 110
4, 16128, Note_off_c, 0, 46, 64
4, 16200, Note_on_c, 0, 56, 110
4, 16296, Note_off_c, 0, 56, 64
4, 16320, Note_on_c, 0, 56, 110
4, 16704, Note_off_c, 0, 56, 64
4, 16800, Note_on_c, 0, 55, 110
4, 17184, Note_off_c, 0, 55, 64
4, 17280, Note_on_c, 0, 62, 110
4, 17568, Note_off_c, 0, 62, 64
4, 17580, Note_on_c, 0, 60, 110
4, 17628, Note_off_c, 0, 60, 64
4, 17640, Note_on_c, 0, 59, 110
4, 17688, Note_off_c, 0, 59, 64
4, 17700, Note_on_c, 0, 57, 110
4, 17748, Note_off_c, 0, 57, 64
4, 17760, Note_on_c, 0, 55, 110
4, 18048, Note_off_c, 0, 55, 64
4, 18120, Note_on_c, 0, 53, 110
4, 18216, Note_off_c, 0, 53, 64
4, 18240, Note_on_c, 0, 53, 110
4, 18240, Note_on_c, 0, 55, 110
4, 18624, Note_off_c, 0, 53, 64
4, 18720, Note_on_c, 0, 51, 110
4, 19008, Note_off_c, 0, 55, 64
4, 19200, Note_on_c, 0, 53, 110
4, 19488, Note_off_c, 0, 51, 64
4, 19584, Note_off_c, 0, 53, 64
4, 19620, Note_on_c, 0, 51, 110
4, 19668, Note_off_c, 0, 51, 64
4, 19680, Note_on_c, 0, 50, 110
4, 20064, Note_off_c, 0, 50, 64
4, 20100, Note_on_c, 0, 53, 110
4, 20148, Note_off_c, 0, 53, 64
4, 20160, Note_on_c, 0, 55, 110
4, 20160, Note_on_c, 0, 51, 110
4, 20304, Note_off_c, 0, 55, 64
4, 20340, Note_on_c, 0, 68, 110
4, 20388, Note_off_c, 0, 68, 64
4, 20400, Note_on_c, 0, 67, 110
4, 20544, Note_off_c, 0, 67, 64
4, 20544, Note_off_c, 0, 51, 64
4, 20580, Note_on_c, 0, 65, 110
4, 20628, Note_off_c, 0, 65, 64
4, 20640, Note_on_c, 0, 67, 110
4, 20784, Note_off_c, 0, 67, 64
4, 20820, Note_on_c, 0, 58, 110
4, 20868, Note_off_c, 0, 58, 64
4, 20880, Note_on_c, 0, 56, 110
4, 21024, Note_off_c, 0, 56, 64
4, 21060, Note_on_c, 0, 55, 110
4, 21108, Note_off_c, 0, 55, 64
4, 21120, Note_on_c, 0, 60, 110
4, 21300, Note_on_c, 0, 55, 110
4, 21348, Note_off_c, 0, 55, 64
4, 21360, Note_on_c, 0, 53, 110
4, 21504, Note_off_c, 0, 53, 64
4, 21540, Note_on_c, 0, 51, 110
4, 21588, Note_off_c, 0, 51, 64
4, 21600, Note_on_c, 0, 53, 110
4, 21744, Note_off_c, 0, 53, 64
4, 21780, Note_on_c, 0, 48, 110
4, 21828, Note_off_c, 0, 48, 64
4, 21840, Note_on_c, 0, 50, 110
4, 21888, Note_off_c, 0, 60, 64
4, 21984, Note_off_c, 0, 50, 64
4, 22020, Note_on_c, 0, 51, 110
4, 22020, Note_on_c, 0, 60, 110
4, 22068, Note_off_c, 0, 60, 64
4, 22068, Note_off_c, 0, 51, 64
4, 22080, Note_on_c, 0, 46, 110
4, 22080, Note_on_c, 0, 58, 110
4, 22224, Note_off_c, 0, 46, 64
4, 22260, Note_on_c, 0, 51, 110
4, 22308, Note_off_c, 0, 51, 64
4, 22320, Note_on_c, 0, 55, 110
4, 22368, Note_off_c, 0, 58, 64
4, 22464, Note_off_c, 0, 55, 64
4, 22500, Note_on_c, 0, 60, 110
4, 22500, Note_on_c, 0, 57, 110
4, 22548, Note_off_c, 0, 57, 64
4, 22548, Note_off_c, 0, 60, 64
4, 22560, Note_on_c, 0, 62, 110
4, 22560, Note_on_c, 0, 58, 110
4, 22848, Note_off_c, 0, 58, 64
4, 22944, Note_off_c, 0, 62, 64
4, 22980, Note_on_c, 0, 58, 110
4, 23028, Note_off_c, 0, 58, 64
4, 23040, Note_on_c, 0, 58, 110
4, 25104, Note_off_c, 0, 58, 64
4, 25140, Note_on_c, 0, 56, 110
4, 25188, Note_off_c, 0, 56, 64
4, 25200, Note_on_c, 0, 55, 110
4, 25344, Note_off_c, 0, 55, 64
4, 25380, Note_on_c, 0, 53, 110
4, 25428, Note_off_c, 0, 53, 64
4, 25440, Note_on_c, 0, 55, 110
4, 25584, Note_off_c, 0, 55, 64
4, 25620, Note_on_c, 0, 51, 110
4, 25668, Note_off_c, 0, 51, 64
4, 25680, Note_on_c, 0, 50, 110
4, 25824, Note_off_c, 0, 50, 64
4, 25860, Note_on_c, 0, 48, 110
4, 25908, Note_off_c, 0, 48, 64
4, 25920, Note_on_c, 0, 46, 110
4, 26064, Note_off_c, 0, 46, 64
4, 26100, Note_on_c, 0, 55, 110
4, 26148, Note_off_c, 0, 55, 64
4, 26160, Note_on_c, 0, 53, 110
4, 26304, Note_off_c, 0, 53, 64
4, 26340, Note_on_c, 0, 51, 110
4, 26388, Note_off_c, 0, 51, 64
4, 26400, Note_on_c, 0, 53, 110
4, 27168, Note_off_c, 0, 53, 64
4, 27300, Note_on_c, 0, 53, 110
4, 27348, Note_off_c, 0, 53, 64
4, 27360, Note_on_c, 0, 51, 110
4, 27648, Note_off_c, 0, 51, 64
4, 27780, Note_on_c, 0, 55, 110
4, 27828, Note_off_c, 0, 55, 64
4, 27840, Note_on_c, 0, 56, 110
4, 28224, Note_off_c, 0, 56, 64
4, 28740, Note_on_c, 0, 53, 110
4, 28740, Note_on_c, 0, 58, 110
4, 28788, Note_off_c, 0, 58, 64
4, 28788, Note_off_c, 0, 53, 64
4, 28800, Note_on_c, 0, 55, 110
4, 28800, Note_on_c, 0, 58, 110
4, 28992, Note_off_c, 0, 58, 64
4, 28992, Note_off_c, 0, 55, 64
4, 29040, Note_on_c, 0, 58, 110
4, 29040, Note_on_c, 0, 55, 110
4, 29232, Note_off_c, 0, 55, 64
4, 29232, Note_off_c, 0, 58, 64
4, 29280, Note_on_c, 0, 51, 110
4, 29280, Note_on_c, 0, 56, 110
4, 29472, Note_off_c, 0, 56, 64
4, 29472, Note_off_c, 0, 51, 64
4, 29520, Note_on_c, 0, 46, 110
4, 29520, Note_on_c, 0, 56, 110
4, 29712, Note_off_c, 0, 56, 64
4, 29712, Note_off_c, 0, 46, 64
4, 29760, Note_on_c, 0, 56, 110
4, 29760, Note_on_c, 0, 46, 110
4, 30144, Note_off_c, 0, 56, 64
4, 30240, Note_on_c, 0, 55, 110
4, 30528, Note_off_c, 0, 46, 64
4, 30624, Note_off_c, 0, 55, 64
4, 30960, Note_on_c, 0, 56, 110
4, 31140, Note_off_c, 0, 56, 64
4, 31200, Note_on_c, 0, 53, 110
4, 31380, Note_off_c, 0, 53, 64
4, 31440, Note_on_c, 0, 51, 110
4, 31620, Note_off_c, 0, 51, 64
4, 31680, Note_on_c, 0, 50, 110
4, 31680, Note_on_c, 0, 56, 110
4, 31860, Note_off_c, 0, 50, 64
4, 31872, Note_off_c, 0, 56, 64
4, 31920, Note_on_c, 0, 55, 110
4, 31920, Note_on_c, 0, 51, 110
4, 32100, Note_off_c, 0, 51, 64
4, 32100, Note_off_c, 0, 55, 64
4, 32880, Note_on_c, 0, 56, 76
4, 33060, Note_off_c, 0, 56, 64
4, 33120, Note_on_c, 0, 53, 76
4, 33300, Note_off_c, 0, 53, 64
4, 33360, Note_on_c, 0, 51, 76
4, 33540, Note_off_c, 0, 51, 64
4, 33600, Note_on_c, 0, 56, 76
4, 33600, Note_on_c, 0, 50, 76
4, 33780, Note_off_c, 0, 50, 64
4, 33792, Note_off_c, 0, 56, 64
4, 33840, Note_on_c, 0, 51, 76
4, 33840, Note_on_c, 0, 55, 76
4, 34020, Note_off_c, 0, 55, 64
4, 34020, Note_off_c, 0, 51, 64
4, 34800, Note_on_c, 0, 63, 110
4, 34980, Note_off_c, 0, 63, 64
4, 35040, Note_on_c, 0, 60, 110
4, 35220, Note_off_c, 0, 60, 64
4, 35280, Note_on_c, 0, 58, 110
4, 35460, Note_off_c, 0, 58, 64
4, 35520, Note_on_c, 0, 57, 110
4, 35712, Note_off_c, 0, 57, 64
4, 35760, Note_on_c, 0, 58, 110
4, 35940, Note_off_c, 0, 58, 64
4, 36720, Note_on_c, 0, 63, 76
4, 36900, Note_off_c, 0, 63, 64
4, 36960, Note_on_c, 0, 60, 76
4, 37140, Note_off_c, 0, 60, 64
4, 37200, Note_on_c, 0, 58, 76
4, 37380, Note_off_c, 0, 58, 64
4, 37440, Note_on_c, 0, 57, 96
4, 37620, Note_off_c, 0, 57, 64
4, 37680, Note_on_c, 0, 58, 96
4, 37860, Note_off_c, 0, 58, 64
4, 38160, Note_on_c, 0, 58, 96
4, 38352, Note_off_c, 0, 58, 64
4, 38400, Note_on_c, 0, 63, 96
4, 38592, Note_off_c, 0, 63, 64
4, 38640, Note_on_c, 0, 62, 96
4, 38832, Note_off_c, 0, 62, 64
4, 38880, Note_on_c, 0, 63, 96
4, 39072, Note_off_c, 0, 63, 64
4, 39120, Note_on_c, 0, 60, 96
4, 39312, Note_off_c, 0, 60, 64
4, 39360, Note_on_c, 0, 62, 96
4, 39552, Note_off_c, 0, 62, 64
4, 39600, Note_on_c, 0, 60, 96
4, 39792, Note_off_c, 0, 60, 64
4, 39840, Note_on_c, 0, 62, 96
4, 40032, Note_off_c, 0, 62, 64
4, 40080, Note_on_c, 0, 58, 96
4, 40272, Note_off_c, 0, 58, 64
4, 40320, Note_on_c, 0, 60, 96
4, 40512, Note_off_c, 0, 60, 64
4, 40560, Note_on_c, 0, 58, 96
4, 40752, Note_off_c, 0, 58, 64
4, 40800, Note_on_c, 0, 60, 96
4, 40992, Note_off_c, 0, 60, 64
4, 41040, Note_on_c, 0, 55, 96
4, 41232, Note_off_c, 0, 55, 64
4, 41280, Note_on_c, 0, 57, 96
4, 41472, Note_off_c, 0, 57, 64
4, 41520, Note_on_c, 0, 55, 96
4, 41712, Note_off_c, 0, 55, 64
4, 41760, Note_on_c, 0, 57, 96
4, 41952, Note_off_c, 0, 57, 64
4, 42000, Note_on_c, 0, 53, 96
4, 42192, Note_off_c, 0, 53, 64
4, 42240, Note_on_c, 0, 46, 96
4, 42432, Note_off_c, 0, 46, 64
4, 42480, Note_on_c, 0, 48, 96
4, 42672, Note_off_c, 0, 48, 64
4, 42720, Note_on_c, 0, 49, 96
4, 42912, Note_off_c, 0, 49, 64
4, 42960, Note_on_c, 0, 46, 96
4, 43152, Note_off_c, 0, 46, 64
4, 43200, Note_on_c, 0, 53, 96
4, 43392, Note_off_c, 0, 53, 64
4, 43440, Note_on_c, 0, 55, 96
4, 43632, Note_off_c, 0, 55, 64
4, 43680, Note_on_c, 0, 57, 96
4, 43872, Note_off_c, 0, 57, 64
4, 43920, Note_on_c, 0, 53, 96
4, 44112, Note_off_c, 0, 53, 64
4, 44160, Note_on_c, 0, 58, 96
4, 44352, Note_off_c, 0, 58, 64
4, 44400, Note_on_c, 0, 60, 96
4, 44592, Note_off_c, 0, 60, 64
4, 44640, Note_on_c, 0, 61, 96
4, 44832, Note_off_c, 0, 61, 64
4, 44880, Note_on_c, 0, 58, 96
4, 45072, Note_off_c, 0, 58, 64
4, 45120, Note_on_c, 0, 60, 96
4, 45312, Note_off_c, 0, 60, 64
4, 45360, Note_on_c, 0, 58, 96
4, 45552, Note_off_c, 0, 58, 64
4, 45600, Note_on_c, 0, 57, 96
4, 45792, Note_off_c, 0, 57, 64
4, 45840, Note_on_c, 0, 53, 96
4, 46032, Note_off_c, 0, 53, 64
4, 46080, Note_on_c, 0, 58, 96
4, 46272, Note_off_c, 0, 58, 64
4, 46320, Note_on_c, 0, 51, 96
4, 46512, Note_off_c, 0, 51, 64
4, 46560, Note_on_c, 0, 53, 96
4, 46944, Note_off_c, 0, 53, 64
4, 47040, Note_on_c, 0, 46, 96
4, 47040, Note_on_c, 0, 58, 96
4, 47220, Note_on_c, 0, 63, 96
4, 47268, Note_off_c, 0, 63, 64
4, 47280, Note_on_c, 0, 62, 96
4, 47424, Note_off_c, 0, 62, 64
4, 47424, Note_off_c, 0, 46, 64
4, 47460, Note_on_c, 0, 60, 96
4, 47508, Note_off_c, 0, 60, 64
4, 47520, Note_on_c, 0, 62, 96
4, 47664, Note_off_c, 0, 62, 64
4, 47664, Note_off_c, 0, 58, 64
4, 47700, Note_on_c, 0, 60, 96
4, 47700, Note_on_c, 0, 55, 96
4, 47748, Note_off_c, 0, 55, 64
4, 47748, Note_off_c, 0, 60, 64
4, 47760, Note_on_c, 0, 58, 96
4, 47760, Note_on_c, 0, 53, 96
4, 47904, Note_off_c, 0, 53, 64
4, 47904, Note_off_c, 0, 58, 64
4, 47940, Note_on_c, 0, 51, 96
4, 47940, Note_on_c, 0, 57, 96
4, 47988, Note_off_c, 0, 57, 64
4, 47988, Note_off_c, 0, 51, 64
4, 48000, Note_on_c, 0, 58, 110
4, 48000, Note_on_c, 0, 53, 110
4, 48288, Note_off_c, 0, 53, 64
4, 48300, Note_on_c, 0, 51, 110
4, 48348, Note_off_c, 0, 51, 64
4, 48360, Note_on_c, 0, 50, 110
4, 48384, Note_off_c, 0, 58, 64
4, 48408, Note_off_c, 0, 50, 64
4, 48420, Note_on_c, 0, 48, 110
4, 48468, Note_off_c, 0, 48, 64
4, 48480, Note_on_c, 0, 46, 110
4, 48768, Note_off_c, 0, 46, 64
4, 48840, Note_on_c, 0, 58, 110
4, 48936, Note_off_c, 0, 58, 64
4, 48960, Note_on_c, 0, 58, 110
4, 49344, Note_off_c, 0, 58, 64
4, 49440, Note_on_c, 0, 57, 110
4, 49824, Note_off_c, 0, 57, 64
4, 49920, Note_on_c, 0, 60, 110
4, 50064, Note_off_c, 0, 60, 64
4, 50100, Note_on_c, 0, 58, 110
4, 50148, Note_off_c, 0, 58, 64
4, 50160, Note_on_c, 0, 57, 110
4, 50304, Note_off_c, 0, 57, 64
4, 50340, Note_on_c, 0, 55, 110
4, 50388, Note_off_c, 0, 55, 64
4, 50400, Note_on_c, 0, 53, 110
4, 50688, Note_off_c, 0, 53, 64
4, 50760, Note_on_c, 0, 51, 110
4, 50856, Note_off_c, 0, 51, 64
4, 50880, Note_on_c, 0, 51, 110
4, 51264, Note_off_c, 0, 51, 64
4, 51360, Note_on_c, 0, 50, 110
4, 51744, Note_off_c, 0, 50, 64
4, 51960, Note_on_c, 0, 46, 110
4, 52008, Note_off_c, 0, 46, 64
4, 52020, Note_on_c, 0, 48, 110
4, 52068, Note_off_c, 0, 48, 64
4, 52080, Note_on_c, 0, 50, 110
4, 52128, Note_off_c, 0, 50, 64
4, 52140, Note_on_c, 0, 51, 110
4, 52188, Note_off_c, 0, 51, 64
4, 52200, Note_on_c, 0, 53, 110
4, 52248, Note_off_c, 0, 53, 64
4, 52260, Note_on_c, 0, 55, 110
4, 52308, Note_off_c, 0, 55, 64
4, 52320, Note_on_c, 0, 56, 110
4, 52896, Note_off_c, 0, 56, 64
4, 52920, Note_on_c, 0, 55, 110
4, 52968, Note_off_c, 0, 55, 64
4, 52980, Note_on_c, 0, 56, 110
4, 53028, Note_off_c, 0, 56, 64
4, 53040, Note_on_c, 0, 58, 110
4, 53088, Note_off_c, 0, 58, 64
4, 53100, Note_on_c, 0, 56, 110
4, 53148, Note_off_c, 0, 56, 64
4, 53160, Note_on_c, 0, 55, 110
4, 53208, Note_off_c, 0, 55, 64
4, 53220, Note_on_c, 0, 53, 110
4, 53268, Note_off_c, 0, 53, 64
4, 53280, Note_on_c, 0, 55, 110
4, 53472, Note_off_c, 0, 55, 64
4, 53880, Note_on_c, 0, 51, 110
4, 53928, Note_off_c, 0, 51, 64
4, 53940, Note_on_c, 0, 53, 110
4, 53988, Note_off_c, 0, 53, 64
4, 54000, Note_on_c, 0, 55, 110
4, 54048, Note_off_c, 0, 55, 64
4, 54060, Note_on_c, 0, 56, 110
4, 54108, Note_off_c, 0, 56, 64
4, 54120, Note_on_c, 0, 58, 110
4, 54168, Note_off_c, 0, 58, 64
4, 54180, Note_on_c, 0, 60, 110
4, 54228, Note_off_c, 0, 60, 64
4, 54240, Note_on_c, 0, 61, 110
4, 54816, Note_off_c, 0, 61, 64
4, 54840, Note_on_c, 0, 60, 110
4, 54888, Note_off_c, 0, 60, 64
4, 54900, Note_on_c, 0, 61, 110
4, 54948, Note_off_c, 0, 61, 64
4, 54960, Note_on_c, 0, 63, 110
4, 55008, Note_off_c, 0, 63, 64
4, 55020, Note_on_c, 0, 61, 110
4, 55068, Note_off_c, 0, 61, 64
4, 55080, Note_on_c, 0, 60, 110
4, 55128, Note_off_c, 0, 60, 64
4, 55140, Note_on_c, 0, 58, 110
4, 55188, Note_off_c, 0, 58, 64
4, 55200, Note_on_c, 0, 60, 110
4, 55344, Note_off_c, 0, 60, 64
4, 55380, Note_on_c, 0, 62, 110
4, 55428, Note_off_c, 0, 62, 64
4, 55440, Note_on_c, 0, 58, 110
4, 55632, Note_off_c, 0, 58, 64
4, 55680, Note_on_c, 0, 60, 110
4, 55680, Note_on_c, 0, 60, 110
4, 56064, Note_off_c, 0, 60, 64
4, 56064, Note_off_c, 0, 60, 64
4, 56580, Note_on_c, 0, 56, 110
4, 56580, Note_on_c, 0, 59, 110
4, 56628, Note_off_c, 0, 59, 64
4, 56628, Note_off_c, 0, 56, 64
4, 56640, Note_on_c, 0, 55, 110
4, 56640, Note_on_c, 0, 59, 110
4, 57024, Note_off_c, 0, 59, 64
4, 57024, Note_off_c, 0, 55, 64
4, 57540, Note_on_c, 0, 60, 110
4, 57540, Note_on_c, 0, 55, 110
4, 57588, Note_off_c, 0, 55, 64
4, 57588, Note_off_c, 0, 60, 64
4, 57600, Note_on_c, 0, 62, 110
4, 57600, Note_on_c, 0, 53, 110
4, 57984, Note_off_c, 0, 53, 64
4, 58224, Note_off_c, 0, 62, 64
4, 58260, Note_on_c, 0, 62, 110
4, 58308, Note_off_c, 0, 62, 64
4, 58320, Note_on_c, 0, 60, 110
4, 58464, Note_off_c, 0, 60, 64
4, 58500, Note_on_c, 0, 59, 110
4, 58500, Note_on_c, 0, 55, 110
4, 58548, Note_off_c, 0, 55, 64
4, 58548, Note_off_c, 0, 59, 64
4, 58560, Note_on_c, 0, 60, 110
4, 58560, Note_on_c, 0, 56, 110
4, 58848, Note_off_c, 0, 56, 64
4, 58944, Note_off_c, 0, 60, 64
4, 58980, Note_on_c, 0, 55, 110
4, 59028, Note_off_c, 0, 55, 64
4, 59040, Note_on_c, 0, 56, 110
4, 59220, Note_on_c, 0, 60, 110
4, 59268, Note_off_c, 0, 60, 64
4, 59280, Note_on_c, 0, 62, 110
4, 59424, Note_off_c, 0, 62, 64
4, 59460, Note_on_c, 0, 63, 110
4, 59508, Note_off_c, 0, 63, 64
4, 59520, Note_on_c, 0, 62, 110
4, 59808, Note_off_c, 0, 56, 64
4, 59940, Note_on_c, 0, 55, 110
4, 59988, Note_off_c, 0, 55, 64
4, 60000, Note_on_c, 0, 56, 110
4, 60288, Note_off_c, 0, 56, 64
4, 60420, Note_on_c, 0, 53, 110
4, 60468, Note_off_c, 0, 53, 64
4, 60480, Note_on_c, 0, 55, 110
4, 60624, Note_off_c, 0, 62, 64
4, 60660, Note_on_c, 0, 63, 110
4, 60708, Note_off_c, 0, 63, 64
4, 60720, Note_on_c, 0, 62, 110
4, 60864, Note_off_c, 0, 62, 64
4, 60864, Note_off_c, 0, 55, 64
4, 60900, Note_on_c, 0, 60, 110
4, 60948, Note_off_c, 0, 60, 64
4, 60960, Note_on_c, 0, 62, 110
4, 61248, Note_off_c, 0, 62, 64
4, 61380, Note_on_c, 0, 50, 110
4, 61380, Note_on_c, 0, 55, 110
4, 61428, Note_off_c, 0, 55, 64
4, 61428, Note_off_c, 0, 50, 64
4, 61440, Note_on_c, 0, 55, 110
4, 61440, Note_on_c, 0, 51, 110
4, 61824, Note_off_c, 0, 51, 64
4, 62580, Note_on_c, 0, 48, 110
4, 62628, Note_off_c, 0, 48, 64
4, 62640, Note_on_c, 0, 50, 110
4, 62784, Note_off_c, 0, 50, 64
4, 62784, Note_off_c, 0, 55, 64
4, 62820, Note_on_c, 0, 51, 110
4, 62868, Note_off_c, 0, 51, 64
4, 62880, Note_on_c, 0, 53, 110
4, 62880, Note_on_c, 0, 53, 110
4, 63168, Note_off_c, 0, 53, 64
4, 63300, Note_on_c, 0, 51, 110
4, 63348, Note_off_c, 0, 51, 64
4, 63360, Note_on_c, 0, 50, 110
4, 63744, Note_off_c, 0, 50, 64
4, 63744, Note_off_c, 0, 53, 64
4, 63840, Note_on_c, 0, 51, 110
4, 64020, Note_on_c, 0, 55, 110
4, 64068, Note_off_c, 0, 55, 64
4, 64080, Note_on_c, 0, 57, 110
4, 64224, Note_off_c, 0, 57, 64
4, 64224, Note_off_c, 0, 51, 64
4, 64260, Note_on_c, 0, 59, 110
4, 64308, Note_off_c, 0, 59, 64
4, 64320, Note_on_c, 0, 60, 110
4, 64320, Note_on_c, 0, 51, 110
4, 64433, Note_off_c, 0, 51, 64
4, 64500, Note_on_c, 0, 51, 110
4, 64548, Note_off_c, 0, 51, 64
4, 64560, Note_on_c, 0, 53, 110
4, 64704, Note_off_c, 0, 53, 64
4, 64740, Note_on_c, 0, 55, 110
4, 64788, Note_off_c, 0, 55, 64
4, 64800, Note_on_c, 0, 60, 110
4, 64944, Note_off_c, 0, 60, 64
4, 64980, Note_on_c, 0, 63, 110
4, 64992, Note_off_c, 0, 60, 64
4, 65028, Note_off_c, 0, 63, 64
4, 65040, Note_on_c, 0, 62, 110
4, 65184, Note_off_c, 0, 62, 64
4, 65220, Note_on_c, 0, 60, 110
4, 65268, Note_off_c, 0, 60, 64
4, 65280, Note_on_c, 0, 67, 110
4, 65424, Note_off_c, 0, 67, 64
4, 65460, Note_on_c, 0, 59, 110
4, 65460, Note_on_c, 0, 55, 110
4, 65508, Note_off_c, 0, 55, 64
4, 65508, Note_off_c, 0, 59, 64
4, 65520, Note_on_c, 0, 57, 110
4, 65520, Note_on_c, 0, 60, 110
4, 65664, Note_off_c, 0, 60, 64
4, 65664, Note_off_c, 0, 57, 64
4, 65700, Note_on_c, 0, 62, 110
4, 65700, Note_on_c, 0, 59, 110
4, 65748, Note_off_c, 0, 59, 64
4, 65748, Note_off_c, 0, 62, 64
4, 65760, Note_on_c, 0, 60, 110
4, 65760, Note_on_c, 0, 55, 110
4, 66144, Note_off_c, 0, 60, 64
4, 66240, Note_on_c, 0, 62, 110
4, 67008, Note_off_c, 0, 62, 64
4, 67200, Note_on_c, 0, 60, 96
4, 67392, Note_off_c, 0, 55, 64
4, 67425, Note_off_c, 0, 60, 64
4, 67440, Note_on_c, 0, 50, 96
4, 67632, Note_off_c, 0, 50, 64
4, 67680, Note_on_c, 0, 51, 96
4, 67872, Note_off_c, 0, 51, 64
4, 67920, Note_on_c, 0, 53, 96
4, 68352, Note_off_c, 0, 53, 64
4, 68400, Note_on_c, 0, 51, 96
4, 68592, Note_off_c, 0, 51, 64
4, 68640, Note_on_c, 0, 50, 96
4, 68832, Note_off_c, 0, 50, 64
4, 68880, Note_on_c, 0, 55, 96
4, 69072, Note_off_c, 0, 55, 64
4, 69120, Note_on_c, 0, 60, 96
4, 69312, Note_off_c, 0, 60, 64
4, 69360, Note_on_c, 0, 58, 96
4, 69552, Note_off_c, 0, 58, 64
4, 69600, Note_on_c, 0, 57, 96
4, 69792, Note_off_c, 0, 57, 64
4, 69840, Note_on_c, 0, 58, 96
4, 70032, Note_off_c, 0, 58, 64
4, 70080, Note_on_c, 0, 60, 96
4, 70272, Note_off_c, 0, 60, 64
4, 70320, Note_on_c, 0, 58, 96
4, 70512, Note_off_c, 0, 58, 64
4, 70560, Note_on_c, 0, 57, 96
4, 70752, Note_off_c, 0, 57, 64
4, 70800, Note_on_c, 0, 50, 96
4, 70992, Note_off_c, 0, 50, 64
4, 71040, Note_on_c, 0, 55, 96
4, 71232, Note_off_c, 0, 55, 64
4, 71280, Note_on_c, 0, 58, 96
4, 71472, Note_off_c, 0, 58, 64
4, 71520, Note_on_c, 0, 48, 96
4, 71712, Note_off_c, 0, 48, 64
4, 72000, Note_on_c, 0, 53, 96
4, 72192, Note_off_c, 0, 53, 64
4, 72240, Note_on_c, 0, 51, 96
4, 72432, Note_off_c, 0, 51, 64
4, 72480, Note_on_c, 0, 50, 96
4, 72672, Note_off_c, 0, 50, 64
4, 72960, Note_on_c, 0, 55, 96
4, 73536, Note_off_c, 0, 55, 64
4, 74040, Note_on_c, 0, 60, 96
4, 74232, Note_off_c, 0, 60, 64
4, 74280, Note_on_c, 0, 60, 96
4, 74448, Note_off_c, 0, 60, 64
4, 74460, Note_on_c, 0, 58, 96
4, 74508, Note_off_c, 0, 58, 64
4, 74520, Note_on_c, 0, 56, 96
4, 74568, Note_off_c, 0, 56, 64
4, 74580, Note_on_c, 0, 55, 96
4, 74628, Note_off_c, 0, 55, 64
4, 74640, Note_on_c, 0, 53, 96
4, 74688, Note_off_c, 0, 53, 64
4, 74700, Note_on_c, 0, 51, 96
4, 74748, Note_off_c, 0, 51, 64
4, 74760, Note_on_c, 0, 50, 96
4, 74808, Note_off_c, 0, 50, 64
4, 74820, Note_on_c, 0, 48, 96
4, 74868, Note_off_c, 0, 48, 64
4, 74880, Note_on_c, 0, 47, 96
4, 74928, Note_off_c, 0, 47, 64
4, 74940, Note_on_c, 0, 50, 96
4, 74988, Note_off_c, 0, 50, 64
4, 75000, Note_on_c, 0, 47, 96
4, 75048, Note_off_c, 0, 47, 64
4, 75060, Note_on_c, 0, 50, 96
4, 75108, Note_off_c, 0, 50, 64
4, 75120, Note_on_c, 0, 48, 96
4, 75168, Note_off_c, 0, 48, 64
4, 75180, Note_on_c, 0, 51, 96
4, 75228, Note_off_c, 0, 51, 64
4, 75240, Note_on_c, 0, 48, 96
4, 75288, Note_off_c, 0, 48, 64
4, 75300, Note_on_c, 0, 51, 96
4, 75348, Note_off_c, 0, 51, 64
4, 75360, Note_on_c, 0, 48, 96
4, 75408, Note_off_c, 0, 48, 64
4, 75420, Note_on_c, 0, 53, 96
4, 75468, Note_off_c, 0, 53, 64
4, 75480, Note_on_c, 0, 48, 96
4, 75528, Note_off_c, 0, 48, 64
4, 75540, Note_on_c, 0, 53, 96
4, 75588, Note_off_c, 0, 53, 64
4, 75600, Note_on_c, 0, 47, 96
4, 75648, Note_off_c, 0, 47, 64
4, 75660, Note_on_c, 0, 53, 96
4, 75708, Note_off_c, 0, 53, 64
4, 75720, Note_on_c, 0, 47, 96
4, 75768, Note_off_c, 0, 47, 64
4, 75780, Note_on_c, 0, 53, 96
4, 75828, Note_off_c, 0, 53, 64
4, 75840, Note_on_c, 0, 48, 96
4, 75888, Note_off_c, 0, 48, 64
4, 75900, Note_on_c, 0, 53, 96
4, 75948, Note_off_c, 0, 53, 64
4, 75960, Note_on_c, 0, 51, 96
4, 76008, Note_off_c, 0, 51, 64
4, 76020, Note_on_c, 0, 50, 96
4, 76068, Note_off_c, 0, 50, 64
4, 76080, Note_on_c, 0, 51, 96
4, 76128, Note_off_c, 0, 51, 64
4, 76140, Note_on_c, 0, 55, 96
4, 76188, Note_off_c, 0, 55, 64
4, 76200, Note_on_c, 0, 51, 96
4, 76248, Note_off_c, 0, 51, 64
4, 76260, Note_on_c, 0, 55, 96
4, 76308, Note_off_c, 0, 55, 64
4, 76320, Note_on_c, 0, 41, 96
4, 76368, Note_off_c, 0, 41, 64
4, 76380, Note_on_c, 0, 55, 96
4, 76428, Note_off_c, 0, 55, 64
4, 76440, Note_on_c, 0, 53, 96
4, 76488, Note_off_c, 0, 53, 64
4, 76500, Note_on_c, 0, 51, 96
4, 76548, Note_off_c, 0, 51, 64
4, 76560, Note_on_c, 0, 53, 96
4, 76608, Note_off_c, 0, 53, 64
4, 76620, Note_on_c, 0, 56, 96
4, 76668, Note_off_c, 0, 56, 64
4, 76680, Note_on_c, 0, 53, 96
4, 76728, Note_off_c, 0, 53, 64
4, 76740, Note_on_c, 0, 56, 96
4, 76788, Note_off_c, 0, 56, 64
4, 76800, Note_on_c, 0, 46, 96
4, 76848, Note_off_c, 0, 46, 64
4, 76860, Note_on_c, 0, 51, 96
4, 76908, Note_off_c, 0, 51, 64
4, 76920, Note_on_c, 0, 50, 96
4, 76968, Note_off_c, 0, 50, 64
4, 76980, Note_on_c, 0, 48, 96
4, 77028, Note_off_c, 0, 48, 64
4, 77040, Note_on_c, 0, 50, 96
4, 77088, Note_off_c, 0, 50, 64
4, 77100, Note_on_c, 0, 53, 96
4, 77148, Note_off_c, 0, 53, 64
4, 77160, Note_on_c, 0, 50, 96
4, 77208, Note_off_c, 0, 50, 64
4, 77220, Note_on_c, 0, 53, 96
4, 77268, Note_off_c, 0, 53, 64
4, 77280, Note_on_c, 0, 39, 96
4, 77328, Note_off_c, 0, 39, 64
4, 77340, Note_on_c, 0, 53, 96
4, 77388, Note_off_c, 0, 53, 64
4, 77400, Note_on_c, 0, 51, 96
4, 77448, Note_off_c, 0, 51, 64
4, 77460, Note_on_c, 0, 50, 96
4, 77508, Note_off_c, 0, 50, 64
4, 77520, Note_on_c, 0, 51, 96
4, 77568, Note_off_c, 0, 51, 64
4, 77580, Note_on_c, 0, 55, 96
4, 77628, Note_off_c, 0, 55, 64
4, 77640, Note_on_c, 0, 51, 96
4, 77688, Note_off_c, 0, 51, 64
4, 77700, Note_on_c, 0, 55, 96
4, 77748, Note_off_c, 0, 55, 64
4, 77760, Note_on_c, 0, 44, 96
4, 77808, Note_off_c, 0, 44, 64
4, 77820, Note_on_c, 0, 55, 96
4, 77868, Note_off_c, 0, 55, 64
4, 77880, Note_on_c, 0, 53, 96
4, 77928, Note_off_c, 0, 53, 64
4, 77940, Note_on_c, 0, 51, 96
4, 77988, Note_off_c, 0, 51, 64
4, 78000, Note_on_c, 0, 53, 96
4, 78048, Note_off_c, 0, 53, 64
4, 78060, Note_on_c, 0, 51, 96
4, 78108, Note_off_c, 0, 51, 64
4, 78120, Note_on_c, 0, 50, 96
4, 78168, Note_off_c, 0, 50, 64
4, 78180, Note_on_c, 0, 48, 96
4, 78228, Note_off_c, 0, 48, 64
4, 78240, Note_on_c, 0, 46, 96
4, 78288, Note_off_c, 0, 46, 64
4, 78300, Note_on_c, 0, 56, 96
4, 78348, Note_off_c, 0, 56, 64
4, 78360, Note_on_c, 0, 55, 96
4, 78408, Note_off_c, 0, 55, 64
4, 78420, Note_on_c, 0, 53, 96
4, 78468, Note_off_c, 0, 53, 64
4, 78480, Note_on_c, 0, 55, 96
4, 78528, Note_off_c, 0, 55, 64
4, 78540, Note_on_c, 0, 53, 96
4, 78588, Note_off_c, 0, 53, 64
4, 78600, Note_on_c, 0, 51, 96
4, 78648, Note_off_c, 0, 51, 64
4, 78660, Note_on_c, 0, 50, 96
4, 78708, Note_off_c, 0, 50, 64
4, 78720, Note_on_c, 0, 48, 96
4, 78768, Note_off_c, 0, 48, 64
4, 78780, Note_on_c, 0, 58, 96
4, 78828, Note_off_c, 0, 58, 64
4, 78840, Note_on_c, 0, 56, 96
4, 78888, Note_off_c, 0, 56, 64
4, 78900, Note_on_c, 0, 55, 96
4, 78948, Note_off_c, 0, 55, 64
4, 78960, Note_on_c, 0, 56, 96
4, 79008, Note_off_c, 0, 56, 64
4, 79020, Note_on_c, 0, 55, 96
4, 79068, Note_off_c, 0, 55, 64
4, 79080, Note_on_c, 0, 53, 96
4, 79128, Note_off_c, 0, 53, 64
4, 79140, Note_on_c, 0, 51, 96
4, 79188, Note_off_c, 0, 51, 64
4, 79200, Note_on_c, 0, 50, 96
4, 79248, Note_off_c, 0, 50, 64
4, 79260, Note_on_c, 0, 60, 96
4, 79308, Note_off_c, 0, 60, 64
4, 79320, Note_on_c, 0, 58, 96
4, 79368, Note_off_c, 0, 58, 64
4, 79380, Note_on_c, 0, 56, 96
4, 79428, Note_off_c, 0, 56, 64
4, 79440, Note_on_c, 0, 58, 96
4, 79488, Note_off_c, 0, 58, 64
4, 79500, Note_on_c, 0, 56, 96
4, 79548, Note_off_c, 0, 56, 64
4, 79560, Note_on_c, 0, 55, 96
4, 79608, Note_off_c, 0, 55, 64
4, 79620, Note_on_c, 0, 53, 96
4, 79668, Note_off_c, 0, 53, 64
4, 79680, Note_on_c, 0, 51, 96
4, 79872, Note_off_c, 0, 51, 64
4, 79920, Note_on_c, 0, 53, 96
4, 80112, Note_off_c, 0, 53, 64
4, 80160, Note_on_c, 0, 55, 96
4, 80352, Note_off_c, 0, 55, 64
4, 80400, Note_on_c, 0, 56, 96
4, 80832, Note_off_c, 0, 56, 64
4, 80880, Note_on_c, 0, 55, 96
4, 81072, Note_off_c, 0, 55, 64
4, 81120, Note_on_c, 0, 53, 96
4, 81312, Note_off_c, 0, 53, 64
4, 81360, Note_on_c, 0, 58, 96
4, 81552, Note_off_c, 0, 58, 64
4, 81600, Note_on_c, 0, 51, 96
4, 81696, Note_off_c, 0, 51, 64
4, 81720, Note_on_c, 0, 58, 96
4, 81816, Note_off_c, 0, 58, 64
4, 81840, Note_on_c, 0, 63, 96
4, 81936, Note_off_c, 0, 63, 64
4, 81960, Note_on_c, 0, 62, 96
4, 82056, Note_off_c, 0, 62, 64
4, 82080, Note_on_c, 0, 60, 96
4, 82176, Note_off_c, 0, 60, 64
4, 82200, Note_on_c, 0, 63, 96
4, 82296, Note_off_c, 0, 63, 64
4, 82320, Note_on_c, 0, 57, 96
4, 82416, Note_off_c, 0, 57, 64
4, 82440, Note_on_c, 0, 60, 96
4, 82536, Note_off_c, 0, 60, 64
4, 82560, Note_on_c, 0, 53, 96
4, 82656, Note_off_c, 0, 53, 64
4, 82680, Note_on_c, 0, 60, 96
4, 82776, Note_off_c, 0, 60, 64
4, 82800, Note_on_c, 0, 65, 96
4, 82896, Note_off_c, 0, 65, 64
4, 82920, Note_on_c, 0, 63, 96
4, 83016, Note_off_c, 0, 63, 64
4, 83040, Note_on_c, 0, 62, 96
4, 83136, Note_off_c, 0, 62, 64
4, 83160, Note_on_c, 0, 65, 96
4, 83256, Note_off_c, 0, 65, 64
4, 83280, Note_on_c, 0, 58, 96
4, 83376, Note_off_c, 0, 58, 64
4, 83400, Note_on_c, 0, 62, 96
4, 83496, Note_off_c, 0, 62, 64
4, 83520, Note_on_c, 0, 55, 96
4, 83712, Note_off_c, 0, 55, 64
4, 83760, Note_on_c, 0, 51, 96
4, 83952, Note_off_c, 0, 51, 64
4, 84000, Note_on_c, 0, 53, 96
4, 84192, Note_off_c, 0, 53, 64
4, 84240, Note_on_c, 0, 55, 96
4, 84432, Note_off_c, 0, 55, 64
4, 84480, Note_on_c, 0, 53, 96
4, 84576, Note_off_c, 0, 53, 64
4, 84600, Note_on_c, 0, 46, 96
4, 84696, Note_off_c, 0, 46, 64
4, 84720, Note_on_c, 0, 62, 96
4, 85104, Note_off_c, 0, 62, 64
4, 85200, Note_on_c, 0, 60, 96
4, 85392, Note_off_c, 0, 60, 64
4, 85440, Note_on_c, 0, 58, 96
4, 85632, Note_off_c, 0, 58, 64
4, 85800, Note_on_c, 0, 62, 96
4, 85896, Note_off_c, 0, 62, 64
4, 85920, Note_on_c, 0, 63, 96
4, 86016, Note_off_c, 0, 63, 64
4, 86040, Note_on_c, 0, 62, 96
4, 86136, Note_off_c, 0, 62, 64
4, 86160, Note_on_c, 0, 60, 96
4, 86256, Note_off_c, 0, 60, 64
4, 86280, Note_on_c, 0, 58, 96
4, 86376, Note_off_c, 0, 58, 64
4, 86400, Note_on_c, 0, 57, 96
4, 86496, Note_off_c, 0, 57, 64
4, 86520, Note_on_c, 0, 58, 96
4, 86616, Note_off_c, 0, 58, 64
4, 86640, Note_on_c, 0, 57, 96
4, 86736, Note_off_c, 0, 57, 64
4, 86760, Note_on_c, 0, 55, 96
4, 86856, Note_off_c, 0, 55, 64
4, 86880, Note_on_c, 0, 54, 96
4, 86976, Note_off_c, 0, 54, 64
4, 87000, Note_on_c, 0, 50, 96
4, 87096, Note_off_c, 0, 50, 64
4, 87120, Note_on_c, 0, 52, 96
4, 87216, Note_off_c, 0, 52, 64
4, 87240, Note_on_c, 0, 54, 96
4, 87336, Note_off_c, 0, 54, 64
4, 87360, Note_on_c, 0, 55, 96
4, 87456, Note_off_c, 0, 55, 64
4, 87480, Note_on_c, 0, 67, 96
4, 87672, Note_off_c, 0, 67, 64
4, 87720, Note_on_c, 0, 67, 96
4, 87888, Note_off_c, 0, 67, 64
4, 87900, Note_on_c, 0, 65, 96
4, 87948, Note_off_c, 0, 65, 64
4, 87960, Note_on_c, 0, 63, 96
4, 88008, Note_off_c, 0, 63, 64
4, 88020, Note_on_c, 0, 62, 96
4, 88068, Note_off_c, 0, 62, 64
4, 88080, Note_on_c, 0, 60, 96
4, 88128, Note_off_c, 0, 60, 64
4, 88140, Note_on_c, 0, 58, 96
4, 88188, Note_off_c, 0, 58, 64
4, 88200, Note_on_c, 0, 57, 96
4, 88248, Note_off_c, 0, 57, 64
4, 88260, Note_on_c, 0, 55, 96
4, 88308, Note_off_c, 0, 55, 64
4, 88320, Note_on_c, 0, 54, 96
4, 88368, Note_off_c, 0, 54, 64
4, 88380, Note_on_c, 0, 57, 96
4, 88428, Note_off_c, 0, 57, 64
4, 88440, Note_on_c, 0, 54, 96
4, 88488, Note_off_c, 0, 54, 64
4, 88500, Note_on_c, 0, 57, 96
4, 88548, Note_off_c, 0, 57, 64
4, 88560, Note_on_c, 0, 55, 96
4, 88608, Note_off_c, 0, 55, 64
4, 88620, Note_on_c, 0, 58, 96
4, 88668, Note_off_c, 0, 58, 64
4, 88680, Note_on_c, 0, 55, 96
4, 88728, Note_off_c, 0, 55, 64
4, 88740, Note_on_c, 0, 58, 96
4, 88788, Note_off_c, 0, 58, 64
4, 88800, Note_on_c, 0, 55, 96
4, 88848, Note_off_c, 0, 55, 64
4, 88860, Note_on_c, 0, 60, 96
4, 88908, Note_off_c, 0, 60, 64
4, 88920, Note_on_c, 0, 55, 96
4, 88968, Note_off_c, 0, 55, 64
4, 88980, Note_on_c, 0, 60, 96
4, 89028, Note_off_c, 0, 60, 64
4, 89040, Note_on_c, 0, 54, 96
4, 89088, Note_off_c, 0, 54, 64
4, 89100, Note_on_c, 0, 60, 96
4, 89148, Note_off_c, 0, 60, 64
4, 89160, Note_on_c, 0, 54, 96
4, 89208, Note_off_c, 0, 54, 64
4, 89220, Note_on_c, 0, 60, 96
4, 89268, Note_off_c, 0, 60, 64
4, 89280, Note_on_c, 0, 55, 96
4, 89328, Note_off_c, 0, 55, 64
4, 89340, Note_on_c, 0, 60, 96
4, 89388, Note_off_c, 0, 60, 64
4, 89400, Note_on_c, 0, 58, 96
4, 89448, Note_off_c, 0, 58, 64
4, 89460, Note_on_c, 0, 57, 96
4, 89508, Note_off_c, 0, 57, 64
4, 89520, Note_on_c, 0, 58, 96
4, 89568, Note_off_c, 0, 58, 64
4, 89580, Note_on_c, 0, 62, 96
4, 89628, Note_off_c, 0, 62, 64
4, 89640, Note_on_c, 0, 58, 96
4, 89688, Note_off_c, 0, 58, 64
4, 89700, Note_on_c, 0, 62, 96
4, 89748, Note_off_c, 0, 62, 64
4, 89760, Note_on_c, 0, 48, 96
4, 89808, Note_off_c, 0, 48, 64
4, 89820, Note_on_c, 0, 62, 96
4, 89868, Note_off_c, 0, 62, 64
4, 89880, Note_on_c, 0, 60, 96
4, 89928, Note_off_c, 0, 60, 64
4, 89940, Note_on_c, 0, 58, 96
4, 89988, Note_off_c, 0, 58, 64
4, 90000, Note_on_c, 0, 60, 96
4, 90048, Note_off_c, 0, 60, 64
4, 90060, Note_on_c, 0, 63, 96
4, 90108, Note_off_c, 0, 63, 64
4, 90120, Note_on_c, 0, 60, 96
4, 90168, Note_off_c, 0, 60, 64
4, 90180, Note_on_c, 0, 63, 96
4, 90228, Note_off_c, 0, 63, 64
4, 90240, Note_on_c, 0, 53, 96
4, 90288, Note_off_c, 0, 53, 64
4, 90300, Note_on_c, 0, 58, 96
4, 90348, Note_off_c, 0, 58, 64
4, 90360, Note_on_c, 0, 56, 96
4, 90408, Note_off_c, 0, 56, 64
4, 90420, Note_on_c, 0, 55, 96
4, 90468, Note_off_c, 0, 55, 64
4, 90480, Note_on_c, 0, 56, 96
4, 90528, Note_off_c, 0, 56, 64
4, 90540, Note_on_c, 0, 60, 96
4, 90588, Note_off_c, 0, 60, 64
4, 90600, Note_on_c, 0, 56, 96
4, 90648, Note_off_c, 0, 56, 64
4, 90660, Note_on_c, 0, 60, 96
4, 90708, Note_off_c, 0, 60, 64
4, 90720, Note_on_c, 0, 46, 96
4, 90768, Note_off_c, 0, 46, 64
4, 90780, Note_on_c, 0, 60, 96
4, 90828, Note_off_c, 0, 60, 64
4, 90840, Note_on_c, 0, 58, 96
4, 90888, Note_off_c, 0, 58, 64
4, 90900, Note_on_c, 0, 56, 96
4, 90948, Note_off_c, 0, 56, 64
4, 90960, Note_on_c, 0, 58, 96
4, 91008, Note_off_c, 0, 58, 64
4, 91020, Note_on_c, 0, 62, 96
4, 91068, Note_off_c, 0, 62, 64
4, 91080, Note_on_c, 0, 58, 96
4, 91128, Note_off_c, 0, 58, 64
4, 91140, Note_on_c, 0, 62, 96
4, 91188, Note_off_c, 0, 62, 64
4, 91200, Note_on_c, 0, 51, 96
4, 91248, Note_off_c, 0, 51, 64
4, 91260, Note_on_c, 0, 56, 96
4, 91308, Note_off_c, 0, 56, 64
4, 91320, Note_on_c, 0, 55, 96
4, 91368, Note_off_c, 0, 55, 64
4, 91380, Note_on_c, 0, 53, 96
4, 91428, Note_off_c, 0, 53, 64
4, 91440, Note_on_c, 0, 55, 96
4, 91488, Note_off_c, 0, 55, 64
4, 91500, Note_on_c, 0, 58, 96
4, 91548, Note_off_c, 0, 58, 64
4, 91560, Note_on_c, 0, 55, 96
4, 91608, Note_off_c, 0, 55, 64
4, 91620, Note_on_c, 0, 58, 96
4, 91668, Note_off_c, 0, 58, 64
4, 91680, Note_on_c, 0, 44, 96
4, 91728, Note_off_c, 0, 44, 64
4, 91740, Note_on_c, 0, 58, 96
4, 91788, Note_off_c, 0, 58, 64
4, 91800, Note_on_c, 0, 56, 96
4, 91848, Note_off_c, 0, 56, 64
4, 91860, Note_on_c, 0, 55, 96
4, 91908, Note_off_c, 0, 55, 64
4, 91920, Note_on_c, 0, 56, 96
4, 91968, Note_off_c, 0, 56, 64
4, 91980, Note_on_c, 0, 60, 96
4, 92028, Note_off_c, 0, 60, 64
4, 92040, Note_on_c, 0, 56, 96
4, 92088, Note_off_c, 0, 56, 64
4, 92100, Note_on_c, 0, 60, 96
4, 92148, Note_off_c, 0, 60, 64
4, 92160, Note_on_c, 0, 49, 96
4, 92208, Note_off_c, 0, 49, 64
4, 92220, Note_on_c, 0, 55, 96
4, 92268, Note_off_c, 0, 55, 64
4, 92280, Note_on_c, 0, 53, 96
4, 92328, Note_off_c, 0, 53, 64
4, 92340, Note_on_c, 0, 52, 96
4, 92388, Note_off_c, 0, 52, 64
4, 92400, Note_on_c, 0, 53, 96
4, 92448, Note_off_c, 0, 53, 64
4, 92460, Note_on_c, 0, 56, 96
4, 92508, Note_off_c, 0, 56, 64
4, 92520, Note_on_c, 0, 53, 96
4, 92568, Note_off_c, 0, 53, 64
4, 92580, Note_on_c, 0, 56, 96
4, 92628, Note_off_c, 0, 56, 64
4, 92640, Note_on_c, 0, 43, 96
4, 92688, Note_off_c, 0, 43, 64
4, 92700, Note_on_c, 0, 56, 96
4, 92748, Note_off_c, 0, 56, 64
4, 92760, Note_on_c, 0, 55, 96
4, 92808, Note_off_c, 0, 55, 64
4, 92820, Note_on_c, 0, 53, 96
4, 92868, Note_off_c, 0, 53, 64
4, 92880, Note_on_c, 0, 55, 96
4, 92928, Note_off_c, 0, 55, 64
4, 92940, Note_on_c, 0, 58, 96
4, 92988, Note_off_c, 0, 58, 64
4, 93000, Note_on_c, 0, 55, 96
4, 93048, Note_off_c, 0, 55, 64
4, 93060, Note_on_c, 0, 58, 96
4, 93108, Note_off_c, 0, 58, 64
4, 93120, Note_on_c, 0, 48, 110
4, 93312, Note_off_c, 0, 48, 64
4, 93960, Note_on_c, 0, 46, 110
4, 94056, Note_off_c, 0, 46, 64
4, 94080, Note_on_c, 0, 60, 110
4, 94080, Note_on_c, 0, 58, 110
4, 94464, Note_off_c, 0, 58, 64
4, 94560, Note_on_c, 0, 56, 110
4, 94848, Note_off_c, 0, 60, 64
4, 95040, Note_on_c, 0, 58, 110
4, 95232, Note_off_c, 0, 56, 64
4, 95424, Note_off_c, 0, 58, 64
4, 95460, Note_on_c, 0, 56, 110
4, 95508, Note_off_c, 0, 56, 64
4, 95520, Note_on_c, 0, 55, 110
4, 95904, Note_off_c, 0, 55, 64
4, 95940, Note_on_c, 0, 58, 110
4, 95988, Note_off_c, 0, 58, 64
4, 96000, Note_on_c, 0, 56, 110
4, 96384, Note_off_c, 0, 56, 64
4, 97140, Note_on_c, 0, 60, 110
4, 97188, Note_off_c, 0, 60, 64
4, 97200, Note_on_c, 0, 58, 110
4, 97344, Note_off_c, 0, 58, 64
4, 97380, Note_on_c, 0, 56, 110
4, 97428, Note_off_c, 0, 56, 64
4, 97440, Note_on_c, 0, 58, 110
4, 97584, Note_off_c, 0, 58, 64
4, 97620, Note_on_c, 0, 53, 110
4, 97668, Note_off_c, 0, 53, 64
4, 97680, Note_on_c, 0, 55, 110
4, 97824, Note_off_c, 0, 55, 64
4, 97860, Note_on_c, 0, 56, 110
4, 97908, Note_off_c, 0, 56, 64
4, 97920, Note_on_c, 0, 51, 110
4, 98064, Note_off_c, 0, 51, 64
4, 98100, Note_on_c, 0, 56, 110
4, 98148, Note_off_c, 0, 56, 64
4, 98160, Note_on_c, 0, 60, 110
4, 98304, Note_off_c, 0, 60, 64
4, 98340, Note_on_c, 0, 62, 110
4, 98388, Note_off_c, 0, 62, 64
4, 98400, Note_on_c, 0, 63, 110
4, 98688, Note_off_c, 0, 63, 64
4, 98820, Note_on_c, 0, 60, 110
4, 98868, Note_off_c, 0, 60, 64
4, 98880, Note_on_c, 0, 61, 110
4, 99024, Note_off_c, 0, 61, 64
4, 99060, Note_on_c, 0, 63, 110
4, 99108, Note_off_c, 0, 63, 64
4, 99120, Note_on_c, 0, 61, 110
4, 99264, Note_off_c, 0, 61, 64
4, 99300, Note_on_c, 0, 60, 110
4, 99348, Note_off_c, 0, 60, 64
4, 99360, Note_on_c, 0, 61, 110
4, 99504, Note_off_c, 0, 61, 64
4, 99540, Note_on_c, 0, 70, 110
4, 99588, Note_off_c, 0, 70, 64
4, 99600, Note_on_c, 0, 63, 110
4, 99744, Note_off_c, 0, 63, 64
4, 99780, Note_on_c, 0, 61, 110
4, 99828, Note_off_c, 0, 61, 64
4, 99840, Note_on_c, 0, 60, 110
4, 99984, Note_off_c, 0, 60, 64
4, 100020, Note_on_c, 0, 61, 110
4, 100068, Note_off_c, 0, 61, 64
4, 100080, Note_on_c, 0, 60, 110
4, 100224, Note_off_c, 0, 60, 64
4, 100260, Note_on_c, 0, 58, 110
4, 100308, Note_off_c, 0, 58, 64
4, 100320, Note_on_c, 0, 60, 110
4, 100464, Note_off_c, 0, 60, 64
4, 100500, Note_on_c, 0, 68, 110
4, 100548, Note_off_c, 0, 68, 64
4, 100560, Note_on_c, 0, 60, 110
4, 100704, Note_off_c, 0, 60, 64
4, 100740, Note_on_c, 0, 58, 110
4, 100788, Note_off_c, 0, 58, 64
4, 100800, Note_on_c, 0, 56, 110
4, 100944, Note_off_c, 0, 56, 64
4, 100980, Note_on_c, 0, 58, 110
4, 101028, Note_off_c, 0, 58, 64
4, 101040, Note_on_c, 0, 56, 110
4, 101184, Note_off_c, 0, 56, 64
4, 101220, Note_on_c, 0, 55, 110
4, 101268, Note_off_c, 0, 55, 64
4, 101280, Note_on_c, 0, 56, 110
4, 101424, Note_off_c, 0, 56, 64
4, 101460, Note_on_c, 0, 65, 110
4, 101508, Note_off_c, 0, 65, 64
4, 101520, Note_on_c, 0, 58, 110
4, 101664, Note_off_c, 0, 58, 64
4, 101700, Note_on_c, 0, 56, 110
4, 101748, Note_off_c, 0, 56, 64
4, 101760, Note_on_c, 0, 55, 110
4, 101904, Note_off_c, 0, 55, 64
4, 101940, Note_on_c, 0, 56, 110
4, 101988, Note_off_c, 0, 56, 64
4, 102000, Note_on_c, 0, 55, 110
4, 102144, Note_off_c, 0, 55, 64
4, 102180, Note_on_c, 0, 53, 110
4, 102228, Note_off_c, 0, 53, 64
4, 102240, Note_on_c, 0, 55, 110
4, 102384, Note_off_c, 0, 55, 64
4, 102420, Note_on_c, 0, 51, 110
4, 102468, Note_off_c, 0, 51, 64
4, 102480, Note_on_c, 0, 55, 110
4, 102624, Note_off_c, 0, 55, 64
4, 102660, Note_on_c, 0, 58, 110
4, 102708, Note_off_c, 0, 58, 64
4, 102720, Note_on_c, 0, 63, 110
4, 102864, Note_off_c, 0, 63, 64
4, 102900, Note_on_c, 0, 65, 110
4, 102948, Note_off_c, 0, 65, 64
4, 102960, Note_on_c, 0, 63, 110
4, 103104, Note_off_c, 0, 63, 64
4, 103140, Note_on_c, 0, 61, 110
4, 103188, Note_off_c, 0, 61, 64
4, 103200, Note_on_c, 0, 63, 110
4, 103344, Note_off_c, 0, 63, 64
4, 103380, Note_on_c, 0, 56, 110
4, 103428, Note_off_c, 0, 56, 64
4, 103440, Note_on_c, 0, 60, 110
4, 103584, Note_off_c, 0, 60, 64
4, 103620, Note_on_c, 0, 63, 110
4, 103668, Note_off_c, 0, 63, 64
4, 104640, Note_on_c, 0, 60, 110
4, 104784, Note_off_c, 0, 60, 64
4, 104820, Note_on_c, 0, 61, 110
4, 104868, Note_off_c, 0, 61, 64
4, 104880, Note_on_c, 0, 63, 110
4, 105024, Note_off_c, 0, 63, 64
4, 105060, Note_on_c, 0, 56, 110
4, 105108, Note_off_c, 0, 56, 64
4, 105120, Note_on_c, 0, 60, 110
4, 105264, Note_off_c, 0, 60, 64
4, 105300, Note_on_c, 0, 58, 110
4, 105348, Note_off_c, 0, 58, 64
4, 105360, Note_on_c, 0, 56, 110
4, 105504, Note_off_c, 0, 56, 64
4, 105540, Note_on_c, 0, 63, 110
4, 105540, Note_on_c, 0, 55, 110
4, 105588, Note_off_c, 0, 55, 64
4, 105588, Note_off_c, 0, 63, 64
4, 105600, Note_on_c, 0, 55, 110
4, 105600, Note_on_c, 0, 63, 110
4, 105984, Note_off_c, 0, 55, 64
4, 106080, Note_on_c, 0, 56, 110
4, 106368, Note_off_c, 0, 63, 64
4, 106464, Note_off_c, 0, 56, 64
4, 106800, Note_on_c, 0, 61, 110
4, 106980, Note_off_c, 0, 61, 64
4, 107040, Note_on_c, 0, 58, 110
4, 107220, Note_off_c, 0, 58, 64
4, 107280, Note_on_c, 0, 56, 110
4, 107460, Note_off_c, 0, 56, 64
4, 107520, Note_on_c, 0, 55, 110
4, 107700, Note_off_c, 0, 55, 64
4, 107760, Note_on_c, 0, 56, 110
4, 107940, Note_off_c, 0, 56, 64
4, 108720, Note_on_c, 0, 61, 76
4, 108900, Note_off_c, 0, 61, 64
4, 108960, Note_on_c, 0, 58, 76
4, 109140, Note_off_c, 0, 58, 64
4, 109200, Note_on_c, 0, 56, 76
4, 109380, Note_off_c, 0, 56, 64
4, 109440, Note_on_c, 0, 55, 76
4, 109620, Note_off_c, 0, 55, 64
4, 109680, Note_on_c, 0, 56, 76
4, 109860, Note_off_c, 0, 56, 64
4, 110640, Note_on_c, 0, 56, 110
4, 110820, Note_off_c, 0, 56, 64
4, 110880, Note_on_c, 0, 53, 110
4, 111060, Note_off_c, 0, 53, 64
4, 111120, Note_on_c, 0, 51, 110
4, 111300, Note_off_c, 0, 51, 64
4, 111360, Note_on_c, 0, 50, 110
4, 111540, Note_off_c, 0, 50, 64
4, 111600, Note_on_c, 0, 51, 110
4, 111780, Note_off_c, 0, 51, 64
4, 112560, Note_on_c, 0, 56, 76
4, 112740, Note_off_c, 0, 56, 64
4, 112800, Note_on_c, 0, 53, 76
4, 112980, Note_off_c, 0, 53, 64
4, 113040, Note_on_c, 0, 51, 76
4, 113220, Note_off_c, 0, 51, 64
4, 113280, Note_on_c, 0, 50, 76
4, 113460, Note_off_c, 0, 50, 64
4, 113520, Note_on_c, 0, 51, 76
4, 113700, Note_off_c, 0, 51, 64
4, 118080, Note_on_c, 0, 51, 76
4, 118272, Note_off_c, 0, 51, 64
4, 118320, Note_on_c, 0, 53, 76
4, 118512, Note_off_c, 0, 53, 64
4, 118560, Note_on_c, 0, 54, 76
4, 118752, Note_off_c, 0, 54, 64
4, 118800, Note_on_c, 0, 51, 76
4, 118992, Note_off_c, 0, 51, 64
4, 119040, Note_on_c, 0, 58, 76
4, 119232, Note_off_c, 0, 58, 64
4, 119280, Note_on_c, 0, 60, 76
4, 119472, Note_off_c, 0, 60, 64
4, 119520, Note_on_c, 0, 62, 76
4, 119712, Note_off_c, 0, 62, 64
4, 119760, Note_on_c, 0, 58, 76
4, 119952, Note_off_c, 0, 58, 64
4, 122880, Note_on_c, 0, 63, 76
4, 123504, Note_off_c, 0, 63, 64
4, 123540, Note_on_c, 0, 60, 76
4, 123588, Note_off_c, 0, 60, 64
4, 123600, Note_on_c, 0, 58, 76
4, 123744, Note_off_c, 0, 58, 64
4, 123780, Note_on_c, 0, 56, 76
4, 123828, Note_off_c, 0, 56, 64
4, 123840, Note_on_c, 0, 58, 76
4, 123936, Note_off_c, 0, 58, 64
4, 123960, Note_on_c, 0, 63, 96
4, 124152, Note_off_c, 0, 63, 64
4, 124200, Note_on_c, 0, 63, 96
4, 124368, Note_off_c, 0, 63, 64
4, 124380, Note_on_c, 0, 62, 96
4, 124428, Note_off_c, 0, 62, 64
4, 124440, Note_on_c, 0, 60, 96
4, 124488, Note_off_c, 0, 60, 64
4, 124500, Note_on_c, 0, 58, 96
4, 124548, Note_off_c, 0, 58, 64
4, 124560, Note_on_c, 0, 56, 96
4, 124608, Note_off_c, 0, 56, 64
4, 124620, Note_on_c, 0, 55, 96
4, 124668, Note_off_c, 0, 55, 64
4, 124680, Note_on_c, 0, 53, 96
4, 124728, Note_off_c, 0, 53, 64
4, 124740, Note_on_c, 0, 51, 96
4, 124788, Note_off_c, 0, 51, 64
4, 124800, Note_on_c, 0, 50, 96
4, 124848, Note_off_c, 0, 50, 64
4, 124860, Note_on_c, 0, 53, 96
4, 124908, Note_off_c, 0, 53, 64
4, 124920, Note_on_c, 0, 50, 96
4, 124968, Note_off_c, 0, 50, 64
4, 124980, Note_on_c, 0, 53, 96
4, 125028, Note_off_c, 0, 53, 64
4, 125040, Note_on_c, 0, 51, 96
4, 125088, Note_off_c, 0, 51, 64
4, 125100, Note_on_c, 0, 55, 96
4, 125148, Note_off_c, 0, 55, 64
4, 125160, Note_on_c, 0, 51, 96
4, 125208, Note_off_c, 0, 51, 64
4, 125220, Note_on_c, 0, 55, 96
4, 125268, Note_off_c, 0, 55, 64
4, 125280, Note_on_c, 0, 51, 96
4, 125328, Note_off_c, 0, 51, 64
4, 125340, Note_on_c, 0, 56, 96
4, 125388, Note_off_c, 0, 56, 64
4, 125400, Note_on_c, 0, 51, 96
4, 125448, Note_off_c, 0, 51, 64
4, 125460, Note_on_c, 0, 56, 96
4, 125508, Note_off_c, 0, 56, 64
4, 125520, Note_on_c, 0, 50, 96
4, 125568, Note_off_c, 0, 50, 64
4, 125580, Note_on_c, 0, 56, 96
4, 125628, Note_off_c, 0, 56, 64
4, 125640, Note_on_c, 0, 50, 96
4, 125688, Note_off_c, 0, 50, 64
4, 125700, Note_on_c, 0, 56, 96
4, 125748, Note_off_c, 0, 56, 64
4, 125760, Note_on_c, 0, 55, 96
4, 125952, Note_off_c, 0, 55, 64
4, 126000, Note_on_c, 0, 53, 96
4, 126192, Note_off_c, 0, 53, 64
4, 126240, Note_on_c, 0, 51, 96
4, 126912, Note_off_c, 0, 51, 64
4, 126960, Note_on_c, 0, 50, 96
4, 127152, Note_off_c, 0, 50, 64
4, 127200, Note_on_c, 0, 48, 96
4, 127584, Note_off_c, 0, 48, 64
4, 127680, Note_on_c, 0, 46, 96
4, 127872, Note_off_c, 0, 46, 64
4, 127920, Note_on_c, 0, 53, 96
4, 128217, Note_off_c, 0, 53, 64
4, 128220, Note_on_c, 0, 53, 96
4, 128277, Note_off_c, 0, 53, 64
4, 128280, Note_on_c, 0, 51, 96
4, 128337, Note_off_c, 0, 51, 64
4, 128340, Note_on_c, 0, 50, 96
4, 128397, Note_off_c, 0, 50, 64
4, 128400, Note_on_c, 0, 51, 96
4, 128448, Note_off_c, 0, 51, 64
4, 128460, Note_on_c, 0, 55, 96
4, 128508, Note_off_c, 0, 55, 64
4, 128520, Note_on_c, 0, 51, 96
4, 128568, Note_off_c, 0, 51, 64
4, 128580, Note_on_c, 0, 55, 96
4, 128628, Note_off_c, 0, 55, 64
4, 128640, Note_on_c, 0, 60, 96
4, 129024, Note_off_c, 0, 60, 64
4, 129120, Note_on_c, 0, 58, 96
4, 129504, Note_off_c, 0, 58, 64
4, 129600, Note_on_c, 0, 56, 96
4, 129984, Note_off_c, 0, 56, 64
4, 130080, Note_on_c, 0, 58, 96
4, 130272, Note_off_c, 0, 58, 64
4, 130320, Note_on_c, 0, 60, 96
4, 130512, Note_off_c, 0, 60, 64
4, 130560, Note_on_c, 0, 53, 96
4, 130560, Note_on_c, 0, 58, 96
4, 130752, Note_off_c, 0, 53, 64
4, 130800, Note_on_c, 0, 55, 96
4, 130944, Note_off_c, 0, 58, 64
4, 130992, Note_off_c, 0, 55, 64
4, 131040, Note_on_c, 0, 56, 96
4, 131040, Note_on_c, 0, 60, 96
4, 131232, Note_off_c, 0, 60, 64
4, 131232, Note_off_c, 0, 56, 64
4, 131280, Note_on_c, 0, 53, 96
4, 131280, Note_on_c, 0, 58, 96
4, 131472, Note_off_c, 0, 58, 64
4, 131472, Note_off_c, 0, 53, 64
4, 131520, Note_on_c, 0, 51, 96
4, 131520, Note_on_c, 0, 58, 96
4, 132048, Note_off_c, 0, 58, 64
4, 132060, Note_on_c, 0, 58, 96
4, 132108, Note_off_c, 0, 58, 64
4, 132120, Note_on_c, 0, 56, 96
4, 132168, Note_off_c, 0, 56, 64
4, 132180, Note_on_c, 0, 55, 96
4, 132228, Note_off_c, 0, 55, 64
4, 132240, Note_on_c, 0, 56, 96
4, 132288, Note_off_c, 0, 56, 64
4, 132288, Note_off_c, 0, 51, 64
4, 132300, Note_on_c, 0, 60, 96
4, 132348, Note_off_c, 0, 60, 64
4, 132360, Note_on_c, 0, 56, 96
4, 132408, Note_off_c, 0, 56, 64
4, 132420, Note_on_c, 0, 60, 96
4, 132468, Note_off_c, 0, 60, 64
4, 132480, Note_on_c, 0, 53, 96
4, 132480, Note_on_c, 0, 50, 96
4, 133008, Note_off_c, 0, 53, 64
4, 133020, Note_on_c, 0, 56, 96
4, 133068, Note_off_c, 0, 56, 64
4, 133080, Note_on_c, 0, 55, 96
4, 133128, Note_off_c, 0, 55, 64
4, 133140, Note_on_c, 0, 53, 96
4, 133188, Note_off_c, 0, 53, 64
4, 133200, Note_on_c, 0, 55, 96
4, 133248, Note_off_c, 0, 55, 64
4, 133248, Note_off_c, 0, 50, 64
4, 133260, Note_on_c, 0, 58, 96
4, 133308, Note_off_c, 0, 58, 64
4, 133320, Note_on_c, 0, 55, 96
4, 133368, Note_off_c, 0, 55, 64
4, 133380, Note_on_c, 0, 58, 96
4, 133428, Note_off_c, 0, 58, 64
4, 133440, Note_on_c, 0, 48, 96
4, 133440, Note_on_c, 0, 51, 96
4, 133968, Note_off_c, 0, 51, 64
4, 133980, Note_on_c, 0, 55, 96
4, 134016, Note_off_c, 0, 48, 64
4, 134028, Note_off_c, 0, 55, 64
4, 134040, Note_on_c, 0, 53, 96
4, 134088, Note_off_c, 0, 53, 64
4, 134100, Note_on_c, 0, 51, 96
4, 134148, Note_off_c, 0, 51, 64
4, 134160, Note_on_c, 0, 53, 96
4, 134208, Note_off_c, 0, 53, 64
4, 134220, Note_on_c, 0, 57, 96
4, 134268, Note_off_c, 0, 57, 64
4, 134280, Note_on_c, 0, 53, 96
4, 134280, Note_on_c, 0, 53, 96
4, 134328, Note_off_c, 0, 53, 64
4, 134340, Note_on_c, 0, 57, 96
4, 134388, Note_off_c, 0, 57, 64
4, 134400, Note_on_c, 0, 58, 96
4, 134448, Note_off_c, 0, 58, 64
4, 134460, Note_on_c, 0, 60, 96
4, 134508, Note_off_c, 0, 60, 64
4, 134520, Note_on_c, 0, 58, 96
4, 134568, Note_off_c, 0, 58, 64
4, 134580, Note_on_c, 0, 57, 96
4, 134628, Note_off_c, 0, 57, 64
4, 134640, Note_on_c, 0, 58, 96
4, 134688, Note_off_c, 0, 58, 64
4, 134700, Note_on_c, 0, 62, 96
4, 134748, Note_off_c, 0, 62, 64
4, 134760, Note_on_c, 0, 58, 96
4, 134784, Note_off_c, 0, 53, 64
4, 134808, Note_off_c, 0, 58, 64
4, 134820, Note_on_c, 0, 62, 96
4, 134868, Note_off_c, 0, 62, 64
4, 134880, Note_on_c, 0, 63, 96
4, 135120, Note_on_c, 0, 55, 96
4, 135312, Note_off_c, 0, 55, 64
4, 135360, Note_on_c, 0, 53, 96
4, 135552, Note_off_c, 0, 53, 64
4, 135552, Note_off_c, 0, 63, 64
4, 135600, Note_on_c, 0, 58, 96
4, 135600, Note_on_c, 0, 62, 96
4, 135792, Note_off_c, 0, 62, 64
4, 135792, Note_off_c, 0, 58, 64
4, 135840, Note_on_c, 0, 60, 96
4, 135840, Note_on_c, 0, 55, 96
4, 136032, Note_off_c, 0, 55, 64
4, 136080, Note_on_c, 0, 53, 96
4, 136224, Note_off_c, 0, 60, 64
4, 136320, Note_on_c, 0, 58, 96
4, 136416, Note_off_c, 0, 53, 64
4, 136416, Note_off_c, 0, 58, 64
4, 136440, Note_on_c, 0, 45, 96
4, 136536, Note_off_c, 0, 45, 64
4, 136560, Note_on_c, 0, 46, 96
4, 136656, Note_off_c, 0, 46, 64
4, 136680, Note_on_c, 0, 51, 96
4, 136680, Note_on_c, 0, 48, 96
4, 136776, Note_off_c, 0, 48, 64
4, 136776, Note_off_c, 0, 51, 64
4, 136800, Note_on_c, 0, 50, 96
4, 136800, Note_on_c, 0, 53, 96
4, 136896, Note_off_c, 0, 53, 64
4, 136896, Note_off_c, 0, 50, 64
4, 136920, Note_on_c, 0, 46, 96
4, 137016, Note_off_c, 0, 46, 64
4, 137040, Note_on_c, 0, 48, 96
4, 137136, Note_off_c, 0, 48, 64
4, 137160, Note_on_c, 0, 50, 96
4, 137160, Note_on_c, 0, 58, 96
4, 137256, Note_off_c, 0, 50, 64
4, 137280, Note_on_c, 0, 51, 96
4, 137328, Note_off_c, 0, 58, 64
4, 137340, Note_on_c, 0, 68, 96
4, 137376, Note_off_c, 0, 51, 64
4, 137388, Note_off_c, 0, 68, 64
4, 137400, Note_on_c, 0, 67, 96
4, 137400, Note_on_c, 0, 50, 96
4, 137448, Note_off_c, 0, 67, 64
4, 137460, Note_on_c, 0, 65, 96
4, 137496, Note_off_c, 0, 50, 64
4, 137508, Note_off_c, 0, 65, 64
4, 137520, Note_on_c, 0, 67, 96
4, 137520, Note_on_c, 0, 51, 96
4, 137568, Note_off_c, 0, 67, 64
4, 137580, Note_on_c, 0, 65, 96
4, 137616, Note_off_c, 0, 51, 64
4, 137628, Note_off_c, 0, 65, 64
4, 137640, Note_on_c, 0, 53, 96
4, 137640, Note_on_c, 0, 63, 96
4, 137688, Note_off_c, 0, 63, 64
4, 137700, Note_on_c, 0, 62, 96
4, 137736, Note_off_c, 0, 53, 64
4, 137748, Note_off_c, 0, 62, 64
4, 137760, Note_on_c, 0, 63, 96
4, 137760, Note_on_c, 0, 55, 96
4, 137808, Note_off_c, 0, 63, 64
4, 137820, Note_on_c, 0, 65, 96
4, 137856, Note_off_c, 0, 55, 64
4, 137868, Note_off_c, 0, 65, 64
4, 137880, Note_on_c, 0, 63, 96
4, 137880, Note_on_c, 0, 51, 96
4, 137928, Note_off_c, 0, 63, 64
4, 137940, Note_on_c, 0, 62, 96
4, 137976, Note_off_c, 0, 51, 64
4, 137988, Note_off_c, 0, 62, 64
4, 138000, Note_on_c, 0, 63, 96
4, 138000, Note_on_c, 0, 53, 96
4, 138048, Note_off_c, 0, 63, 64
4, 138060, Note_on_c, 0, 62, 96
4, 138096, Note_off_c, 0, 53, 64
4, 138108, Note_off_c, 0, 62, 64
4, 138120, Note_on_c, 0, 60, 96
4, 138120, Note_on_c, 0, 55, 96
4, 138168, Note_off_c, 0, 60, 64
4, 138180, Note_on_c, 0, 59, 96
4, 138216, Note_off_c, 0, 55, 64
4, 138228, Note_off_c, 0, 59, 64
4, 138240, Note_on_c, 0, 56, 110
4, 138240, Note_on_c, 0, 60, 110
4, 138912, Note_off_c, 0, 60, 64
4, 138912, Note_off_c, 0, 56, 64
4, 138960, Note_on_c, 0, 59, 110
4, 139056, Note_off_c, 0, 59, 64
4, 139080, Note_on_c, 0, 60, 110
4, 139176, Note_off_c, 0, 60, 64
4, 139440, Note_on_c, 0, 55, 110
4, 139632, Note_off_c, 0, 55, 64
4, 139680, Note_on_c, 0, 56, 110
4, 139872, Note_off_c, 0, 56, 64
4, 139920, Note_on_c, 0, 55, 110
4, 140256, Note_off_c, 0, 55, 64
4, 141240, Note_on_c, 0, 60, 110
4, 141336, Note_off_c, 0, 60, 64
4, 141360, Note_on_c, 0, 53, 110
4, 141456, Note_off_c, 0, 53, 64
4, 141480, Note_on_c, 0, 55, 110
4, 141576, Note_off_c, 0, 55, 64
4, 141600, Note_on_c, 0, 57, 110
4, 141696, Note_off_c, 0, 57, 64
4, 141720, Note_on_c, 0, 53, 110
4, 141816, Note_off_c, 0, 53, 64
4, 141840, Note_on_c, 0, 55, 110
4, 141936, Note_off_c, 0, 55, 64
4, 141960, Note_on_c, 0, 57, 110
4, 142056, Note_off_c, 0, 57, 64
4, 142080, Note_on_c, 0, 58, 110
4, 142656, Note_off_c, 0, 58, 64
4, 142680, Note_on_c, 0, 55, 110
4, 142776, Note_off_c, 0, 55, 64
4, 142800, Note_on_c, 0, 57, 110
4, 142896, Note_off_c, 0, 57, 64
4, 142920, Note_on_c, 0, 58, 110
4, 143016, Note_off_c, 0, 58, 64
4, 143040, Note_on_c, 0, 60, 110
4, 143232, Note_off_c, 0, 60, 64
4, 143280, Note_on_c, 0, 53, 110
4, 143472, Note_off_c, 0, 53, 64
4, 143520, Note_on_c, 0, 55, 110
4, 143712, Note_off_c, 0, 55, 64
4, 143760, Note_on_c, 0, 53, 110
4, 143952, Note_off_c, 0, 53, 64
4, 144000, Note_on_c, 0, 58, 105
4, 144240, Note_off_c, 0, 58, 64
4, 144240, Note_on_c, 0, 65, 110
4, 144288, Note_off_c, 0, 65, 64
4, 144300, Note_on_c, 0, 67, 110
4, 144348, Note_off_c, 0, 67, 64
4, 144360, Note_on_c, 0, 65, 110
4, 144408, Note_off_c, 0, 65, 64
4, 144420, Note_on_c, 0, 64, 110
4, 144468, Note_off_c, 0, 64, 64
4, 144480, Note_on_c, 0, 65, 110
4, 144528, Note_off_c, 0, 65, 64
4, 144540, Note_on_c, 0, 63, 110
4, 144588, Note_off_c, 0, 63, 64
4, 144600, Note_on_c, 0, 61, 110
4, 144648, Note_off_c, 0, 61, 64
4, 144660, Note_on_c, 0, 60, 110
4, 144708, Note_off_c, 0, 60, 64
4, 144720, Note_on_c, 0, 58, 110
4, 144768, Note_off_c, 0, 58, 64
4, 144780, Note_on_c, 0, 56, 110
4, 144828, Note_off_c, 0, 56, 64
4, 144840, Note_on_c, 0, 55, 110
4, 144888, Note_off_c, 0, 55, 64
4, 144900, Note_on_c, 0, 53, 110
4, 144948, Note_off_c, 0, 53, 64
4, 144960, Note_on_c, 0, 52, 110
4, 145008, Note_off_c, 0, 52, 64
4, 145020, Note_on_c, 0, 55, 110
4, 145068, Note_off_c, 0, 55, 64
4, 145080, Note_on_c, 0, 52, 110
4, 145128, Note_off_c, 0, 52, 64
4, 145140, Note_on_c, 0, 55, 110
4, 145188, Note_off_c, 0, 55, 64
4, 145200, Note_on_c, 0, 53, 110
4, 145248, Note_off_c, 0, 53, 64
4, 145260, Note_on_c, 0, 56, 110
4, 145308, Note_off_c, 0, 56, 64
4, 145320, Note_on_c, 0, 53, 110
4, 145368, Note_off_c, 0, 53, 64
4, 145380, Note_on_c, 0, 56, 110
4, 145428, Note_off_c, 0, 56, 64
4, 145440, Note_on_c, 0, 53, 110
4, 145488, Note_off_c, 0, 53, 64
4, 145500, Note_on_c, 0, 58, 110
4, 145548, Note_off_c, 0, 58, 64
4, 145560, Note_on_c, 0, 53, 110
4, 145608, Note_off_c, 0, 53, 64
4, 145620, Note_on_c, 0, 58, 110
4, 145668, Note_off_c, 0, 58, 64
4, 145680, Note_on_c, 0, 52, 110
4, 145728, Note_off_c, 0, 52, 64
4, 145740, Note_on_c, 0, 58, 110
4, 145788, Note_off_c, 0, 58, 64
4, 145800, Note_on_c, 0, 52, 110
4, 145848, Note_off_c, 0, 52, 64
4, 145860, Note_on_c, 0, 58, 110
4, 145908, Note_off_c, 0, 58, 64
4, 145920, Note_on_c, 0, 56, 110
4, 146592, Note_off_c, 0, 56, 64
4, 146640, Note_on_c, 0, 61, 110
4, 147072, Note_off_c, 0, 61, 64
4, 147120, Note_on_c, 0, 60, 110
4, 147312, Note_off_c, 0, 60, 64
4, 147360, Note_on_c, 0, 58, 110
4, 147744, Note_off_c, 0, 58, 64
4, 147840, Note_on_c, 0, 60, 120
4, 148032, Note_off_c, 0, 60, 64
4, 148080, Note_on_c, 0, 56, 120
4, 148272, Note_off_c, 0, 56, 64
4, 148320, Note_on_c, 0, 56, 120
4, 148368, Note_off_c, 0, 56, 64
4, 148380, Note_on_c, 0, 60, 120
4, 148428, Note_off_c, 0, 60, 64
4, 148440, Note_on_c, 0, 58, 120
4, 148488, Note_off_c, 0, 58, 64
4, 148500, Note_on_c, 0, 56, 120
4, 148548, Note_off_c, 0, 56, 64
4, 148560, Note_on_c, 0, 55, 120
4, 148608, Note_off_c, 0, 55, 64
4, 148620, Note_on_c, 0, 58, 120
4, 148668, Note_off_c, 0, 58, 64
4, 148680, Note_on_c, 0, 55, 120
4, 148728, Note_off_c, 0, 55, 64
4, 148740, Note_on_c, 0, 58, 120
4, 148788, Note_off_c, 0, 58, 64
4, 148800, Note_on_c, 0, 51, 120
4, 148896, Note_off_c, 0, 51, 64
4, 148920, Note_on_c, 0, 55, 120
4, 149016, Note_off_c, 0, 55, 64
4, 149040, Note_on_c, 0, 60, 120
4, 149328, Note_off_c, 0, 60, 64
4, 149340, Note_on_c, 0, 63, 120
4, 149388, Note_off_c, 0, 63, 64
4, 149400, Note_on_c, 0, 62, 120
4, 149448, Note_off_c, 0, 62, 64
4, 149460, Note_on_c, 0, 60, 120
4, 149508, Note_off_c, 0, 60, 64
4, 149520, Note_on_c, 0, 58, 120
4, 149568, Note_off_c, 0, 58, 64
4, 149580, Note_on_c, 0, 56, 120
4, 149628, Note_off_c, 0, 56, 64
4, 149640, Note_on_c, 0, 55, 120
4, 149688, Note_off_c, 0, 55, 64
4, 149700, Note_on_c, 0, 53, 120
4, 149748, Note_off_c, 0, 53, 64
4, 149760, Note_on_c, 0, 51, 120
4, 149904, Note_off_c, 0, 51, 64
4, 149940, Note_on_c, 0, 53, 120
4, 149988, Note_off_c, 0, 53, 64
4, 150000, Note_on_c, 0, 55, 120
4, 150192, Note_off_c, 0, 55, 64
4, 150240, Note_on_c, 0, 56, 120
4, 150912, Note_off_c, 0, 56, 64
4, 150960, Note_on_c, 0, 55, 110
4, 151152, Note_off_c, 0, 55, 64
4, 151200, Note_on_c, 0, 53, 110
4, 151584, Note_off_c, 0, 53, 64
4, 151680, Note_on_c, 0, 51, 110
4, 151728, Note_off_c, 0, 51, 64
4, 151740, Note_on_c, 0, 50, 110
4, 151788, Note_off_c, 0, 50, 64
4, 151800, Note_on_c, 0, 48, 110
4, 151848, Note_off_c, 0, 48, 64
4, 151860, Note_on_c, 0, 46, 110
4, 151908, Note_off_c, 0, 46, 64
4, 151920, Note_on_c, 0, 48, 110
4, 151968, Note_off_c, 0, 48, 64
4, 151980, Note_on_c, 0, 46, 110
4, 152028, Note_off_c, 0, 46, 64
4, 152040, Note_on_c, 0, 44, 110
4, 152088, Note_off_c, 0, 44, 64
4, 152100, Note_on_c, 0, 43, 110
4, 152148, Note_off_c, 0, 43, 64
4, 152160, Note_on_c, 0, 41, 110
4, 152208, Note_off_c, 0, 41, 64
4, 152220, Note_on_c, 0, 51, 110
4, 152268, Note_off_c, 0, 51, 64
4, 152280, Note_on_c, 0, 50, 110
4, 152328, Note_off_c, 0, 50, 64
4, 152340, Note_on_c, 0, 48, 110
4, 152388, Note_off_c, 0, 48, 64
4, 152400, Note_on_c, 0, 50, 110
4, 152448, Note_off_c, 0, 50, 64
4, 152460, Note_on_c, 0, 48, 110
4, 152508, Note_off_c, 0, 48, 64
4, 152520, Note_on_c, 0, 46, 110
4, 152568, Note_off_c, 0, 46, 64
4, 152580, Note_on_c, 0, 44, 110
4, 152628, Note_off_c, 0, 44, 64
4, 152640, Note_on_c, 0, 43, 110
4, 152688, Note_off_c, 0, 43, 64
4, 152700, Note_on_c, 0, 53, 110
4, 152748, Note_off_c, 0, 53, 64
4, 152760, Note_on_c, 0, 51, 110
4, 152808, Note_off_c, 0, 51, 64
4, 152820, Note_on_c, 0, 50, 110
4, 152868, Note_off_c, 0, 50, 64
4, 152880, Note_on_c, 0, 51, 110
4, 152928, Note_off_c, 0, 51, 64
4, 152940, Note_on_c, 0, 50, 110
4, 152988, Note_off_c, 0, 50, 64
4, 153000, Note_on_c, 0, 48, 110
4, 153048, Note_off_c, 0, 48, 64
4, 153060, Note_on_c, 0, 46, 110
4, 153108, Note_off_c, 0, 46, 64
4, 153120, Note_on_c, 0, 45, 110
4, 153168, Note_off_c, 0, 45, 64
4, 153180, Note_on_c, 0, 54, 110
4, 153228, Note_off_c, 0, 54, 64
4, 153240, Note_on_c, 0, 53, 110
4, 153288, Note_off_c, 0, 53, 64
4, 153300, Note_on_c, 0, 51, 110
4, 153348, Note_off_c, 0, 51, 64
4, 153360, Note_on_c, 0, 53, 110
4, 153408, Note_off_c, 0, 53, 64
4, 153420, Note_on_c, 0, 51, 110
4, 153468, Note_off_c, 0, 51, 64
4, 153480, Note_on_c, 0, 49, 110
4, 153528, Note_off_c, 0, 49, 64
4, 153540, Note_on_c, 0, 48, 110
4, 153588, Note_off_c, 0, 48, 64
4, 153600, Note_on_c, 0, 46, 110
4, 153792, Note_off_c, 0, 46, 64
4, 153840, Note_on_c, 0, 48, 110
4, 154032, Note_off_c, 0, 48, 64
4, 154080, Note_on_c, 0, 49, 110
4, 154272, Note_off_c, 0, 49, 64
4, 154320, Note_on_c, 0, 51, 110
4, 154752, Note_off_c, 0, 51, 64
4, 154800, Note_on_c, 0, 49, 110
4, 154992, Note_off_c, 0, 49, 64
4, 155040, Note_on_c, 0, 48, 110
4, 155232, Note_off_c, 0, 48, 64
4, 155280, Note_on_c, 0, 53, 110
4, 155472, Note_off_c, 0, 53, 64
4, 155520, Note_on_c, 0, 46, 110
4, 155616, Note_off_c, 0, 46, 64
4, 155640, Note_on_c, 0, 53, 110
4, 155736, Note_off_c, 0, 53, 64
4, 155760, Note_on_c, 0, 58, 110
4, 155856, Note_off_c, 0, 58, 64
4, 155880, Note_on_c, 0, 56, 110
4, 155976, Note_off_c, 0, 56, 64
4, 156000, Note_on_c, 0, 55, 110
4, 156096, Note_off_c, 0, 55, 64
4, 156120, Note_on_c, 0, 58, 110
4, 156216, Note_off_c, 0, 58, 64
4, 156240, Note_on_c, 0, 52, 110
4, 156336, Note_off_c, 0, 52, 64
4, 156360, Note_on_c, 0, 55, 110
4, 156456, Note_off_c, 0, 55, 64
4, 156480, Note_on_c, 0, 48, 110
4, 156576, Note_off_c, 0, 48, 64
4, 156600, Note_on_c, 0, 55, 110
4, 156696, Note_off_c, 0, 55, 64
4, 156720, Note_on_c, 0, 60, 110
4, 156816, Note_off_c, 0, 60, 64
4, 156840, Note_on_c, 0, 58, 110
4, 156936, Note_off_c, 0, 58, 64
4, 156960, Note_on_c, 0, 56, 110
4, 157056, Note_off_c, 0, 56, 64
4, 157080, Note_on_c, 0, 60, 110
4, 157176, Note_off_c, 0, 60, 64
4, 157200, Note_on_c, 0, 53, 110
4, 157296, Note_off_c, 0, 53, 64
4, 157320, Note_on_c, 0, 56, 110
4, 157416, Note_off_c, 0, 56, 64
4, 157440, Note_on_c, 0, 49, 110
4, 157632, Note_off_c, 0, 49, 64
4, 157680, Note_on_c, 0, 46, 110
4, 157872, Note_off_c, 0, 46, 64
4, 157920, Note_on_c, 0, 48, 110
4, 158112, Note_off_c, 0, 48, 64
4, 158160, Note_on_c, 0, 49, 110
4, 158352, Note_off_c, 0, 49, 64
4, 158400, Note_on_c, 0, 48, 110
4, 158496, Note_off_c, 0, 48, 64
4, 158520, Note_on_c, 0, 41, 110
4, 158616, Note_off_c, 0, 41, 64
4, 158640, Note_on_c, 0, 56, 110
4, 159024, Note_off_c, 0, 56, 64
4, 159120, Note_on_c, 0, 55, 110
4, 159312, Note_off_c, 0, 55, 64
4, 159360, Note_on_c, 0, 53, 110
4, 159552, Note_off_c, 0, 53, 64
4, 159720, Note_on_c, 0, 56, 110
4, 159936, Note_off_c, 0, 56, 64
4, 159960, Note_on_c, 0, 56, 110
4, 160056, Note_off_c, 0, 56, 64
4, 160080, Note_on_c, 0, 55, 110
4, 160176, Note_off_c, 0, 55, 64
4, 160200, Note_on_c, 0, 53, 110
4, 160296, Note_off_c, 0, 53, 64
4, 160320, Note_on_c, 0, 51, 110
4, 160368, Note_off_c, 0, 51, 64
4, 160380, Note_on_c, 0, 53, 110
4, 160428, Note_off_c, 0, 53, 64
4, 160440, Note_on_c, 0, 51, 110
4, 160488, Note_off_c, 0, 51, 64
4, 160500, Note_on_c, 0, 50, 110
4, 160548, Note_off_c, 0, 50, 64
4, 160560, Note_on_c, 0, 51, 110
4, 160608, Note_off_c, 0, 51, 64
4, 160620, Note_on_c, 0, 55, 110
4, 160668, Note_off_c, 0, 55, 64
4, 160680, Note_on_c, 0, 53, 110
4, 160728, Note_off_c, 0, 53, 64
4, 160740, Note_on_c, 0, 51, 110
4, 160788, Note_off_c, 0, 51, 64
4, 160800, Note_on_c, 0, 50, 110
4, 160848, Note_off_c, 0, 50, 64
4, 160860, Note_on_c, 0, 48, 110
4, 160908, Note_off_c, 0, 48, 64
4, 160920, Note_on_c, 0, 47, 110
4, 160968, Note_off_c, 0, 47, 64
4, 160980, Note_on_c, 0, 45, 110
4, 161028, Note_off_c, 0, 45, 64
4, 161040, Note_on_c, 0, 43, 110
4, 161088, Note_off_c, 0, 43, 64
4, 161100, Note_on_c, 0, 41, 110
4, 161148, Note_off_c, 0, 41, 64
4, 161160, Note_on_c, 0, 39, 110
4, 161208, Note_off_c, 0, 39, 64
4, 161220, Note_on_c, 0, 38, 110
4, 161268, Note_off_c, 0, 38, 64
4, 161280, Note_on_c, 0, 36, 110
4, 161376, Note_off_c, 0, 36, 64
4, 161400, Note_on_c, 0, 60, 110
4, 161592, Note_off_c, 0, 60, 64
4, 161640, Note_on_c, 0, 60, 110
4, 161808, Note_off_c, 0, 60, 64
4, 161820, Note_on_c, 0, 58, 110
4, 161868, Note_off_c, 0, 58, 64
4, 161880, Note_on_c, 0, 56, 110
4, 161928, Note_off_c, 0, 56, 64
4, 161940, Note_on_c, 0, 55, 110
4, 161988, Note_off_c, 0, 55, 64
4, 162000, Note_on_c, 0, 53, 110
4, 162048, Note_off_c, 0, 53, 64
4, 162060, Note_on_c, 0, 51, 110
4, 162108, Note_off_c, 0, 51, 64
4, 162120, Note_on_c, 0, 50, 110
4, 162168, Note_off_c, 0, 50, 64
4, 162180, Note_on_c, 0, 48, 110
4, 162228, Note_off_c, 0, 48, 64
4, 162240, Note_on_c, 0, 47, 110
4, 162288, Note_off_c, 0, 47, 64
4, 162300, Note_on_c, 0, 50, 110
4, 162348, Note_off_c, 0, 50, 64
4, 162360, Note_on_c, 0, 47, 110
4, 162408, Note_off_c, 0, 47, 64
4, 162420, Note_on_c, 0, 50, 110
4, 162468, Note_off_c, 0, 50, 64
4, 162480, Note_on_c, 0, 48, 110
4, 162528, Note_off_c, 0, 48, 64
4, 162540, Note_on_c, 0, 51, 110
4, 162588, Note_off_c, 0, 51, 64
4, 162600, Note_on_c, 0, 48, 110
4, 162648, Note_off_c, 0, 48, 64
4, 162660, Note_on_c, 0, 51, 110
4, 162708, Note_off_c, 0, 51, 64
4, 162720, Note_on_c, 0, 48, 110
4, 162768, Note_off_c, 0, 48, 64
4, 162780, Note_on_c, 0, 53, 110
4, 162828, Note_off_c, 0, 53, 64
4, 162840, Note_on_c, 0, 48, 110
4, 162888, Note_off_c, 0, 48, 64
4, 162900, Note_on_c, 0, 53, 110
4, 162948, Note_off_c, 0, 53, 64
4, 162960, Note_on_c, 0, 47, 110
4, 163008, Note_off_c, 0, 47, 64
4, 163020, Note_on_c, 0, 55, 110
4, 163068, Note_off_c, 0, 55, 64
4, 163080, Note_on_c, 0, 47, 110
4, 163128, Note_off_c, 0, 47, 64
4, 163140, Note_on_c, 0, 55, 110
4, 163188, Note_off_c, 0, 55, 64
4, 163200, Note_on_c, 0, 48, 110
4, 163248, Note_off_c, 0, 48, 64
4, 163260, Note_on_c, 0, 53, 110
4, 163308, Note_off_c, 0, 53, 64
4, 163320, Note_on_c, 0, 51, 110
4, 163368, Note_off_c, 0, 51, 64
4, 163380, Note_on_c, 0, 50, 110
4, 163428, Note_off_c, 0, 50, 64
4, 163440, Note_on_c, 0, 51, 110
4, 163488, Note_off_c, 0, 51, 64
4, 163500, Note_on_c, 0, 55, 110
4, 163548, Note_off_c, 0, 55, 64
4, 163560, Note_on_c, 0, 51, 110
4, 163608, Note_off_c, 0, 51, 64
4, 163620, Note_on_c, 0, 55, 110
4, 163668, Note_off_c, 0, 55, 64
4, 163680, Note_on_c, 0, 41, 110
4, 163728, Note_off_c, 0, 41, 64
4, 163740, Note_on_c, 0, 55, 110
4, 163788, Note_off_c, 0, 55, 64
4, 163800, Note_on_c, 0, 53, 110
4, 163848, Note_off_c, 0, 53, 64
4, 163860, Note_on_c, 0, 51, 110
4, 163908, Note_off_c, 0, 51, 64
4, 163920, Note_on_c, 0, 53, 110
4, 163968, Note_off_c, 0, 53, 64
4, 163980, Note_on_c, 0, 56, 110
4, 164028, Note_off_c, 0, 56, 64
4, 164040, Note_on_c, 0, 53, 110
4, 164088, Note_off_c, 0, 53, 64
4, 164100, Note_on_c, 0, 56, 110
4, 164148, Note_off_c, 0, 56, 64
4, 164160, Note_on_c, 0, 46, 110
4, 164208, Note_off_c, 0, 46, 64
4, 164220, Note_on_c, 0, 51, 110
4, 164268, Note_off_c, 0, 51, 64
4, 164280, Note_on_c, 0, 49, 110
4, 164328, Note_off_c, 0, 49, 64
4, 164340, Note_on_c, 0, 48, 110
4, 164388, Note_off_c, 0, 48, 64
4, 164400, Note_on_c, 0, 49, 110
4, 164448, Note_off_c, 0, 49, 64
4, 164460, Note_on_c, 0, 53, 110
4, 164508, Note_off_c, 0, 53, 64
4, 164520, Note_on_c, 0, 49, 110
4, 164568, Note_off_c, 0, 49, 64
4, 164580, Note_on_c, 0, 53, 110
4, 164628, Note_off_c, 0, 53, 64
4, 164640, Note_on_c, 0, 39, 110
4, 164688, Note_off_c, 0, 39, 64
4, 164700, Note_on_c, 0, 53, 110
4, 164748, Note_off_c, 0, 53, 64
4, 164760, Note_on_c, 0, 51, 110
4, 164808, Note_off_c, 0, 51, 64
4, 164820, Note_on_c, 0, 49, 110
4, 164868, Note_off_c, 0, 49, 64
4, 164880, Note_on_c, 0, 51, 110
4, 164928, Note_off_c, 0, 51, 64
4, 164940, Note_on_c, 0, 55, 110
4, 164988, Note_off_c, 0, 55, 64
4, 165000, Note_on_c, 0, 51, 110
4, 165048, Note_off_c, 0, 51, 64
4, 165060, Note_on_c, 0, 55, 110
4, 165108, Note_off_c, 0, 55, 64
4, 165120, Note_on_c, 0, 44, 110
4, 165168, Note_off_c, 0, 44, 64
4, 165180, Note_on_c, 0, 49, 110
4, 165228, Note_off_c, 0, 49, 64
4, 165240, Note_on_c, 0, 48, 110
4, 165288, Note_off_c, 0, 48, 64
4, 165300, Note_on_c, 0, 46, 110
4, 165348, Note_off_c, 0, 46, 64
4, 165360, Note_on_c, 0, 48, 110
4, 165408, Note_off_c, 0, 48, 64
4, 165420, Note_on_c, 0, 51, 110
4, 165468, Note_off_c, 0, 51, 64
4, 165480, Note_on_c, 0, 48, 110
4, 165528, Note_off_c, 0, 48, 64
4, 165540, Note_on_c, 0, 51, 110
4, 165588, Note_off_c, 0, 51, 64
4, 165600, Note_on_c, 0, 38, 110
4, 165648, Note_off_c, 0, 38, 64
4, 165660, Note_on_c, 0, 51, 110
4, 165708, Note_off_c, 0, 51, 64
4, 165720, Note_on_c, 0, 50, 110
4, 165768, Note_off_c, 0, 50, 64
4, 165780, Note_on_c, 0, 48, 110
4, 165828, Note_off_c, 0, 48, 64
4, 165840, Note_on_c, 0, 50, 110
4, 165888, Note_off_c, 0, 50, 64
4, 165900, Note_on_c, 0, 53, 110
4, 165948, Note_off_c, 0, 53, 64
4, 165960, Note_on_c, 0, 50, 110
4, 166008, Note_off_c, 0, 50, 64
4, 166020, Note_on_c, 0, 53, 110
4, 166068, Note_off_c, 0, 53, 64
4, 166080, Note_on_c, 0, 43, 110
4, 166272, Note_off_c, 0, 43, 64
4, 166920, Note_on_c, 0, 55, 110
4, 167016, Note_off_c, 0, 55, 64
4, 167040, Note_on_c, 0, 55, 110
4, 167040, Note_on_c, 0, 65, 110
4, 167424, Note_off_c, 0, 65, 64
4, 167520, Note_on_c, 0, 63, 110
4, 167808, Note_off_c, 0, 55, 64
4, 167904, Note_off_c, 0, 63, 64
4, 168000, Note_on_c, 0, 58, 110
4, 168384, Note_off_c, 0, 58, 64
4, 168840, Note_on_c, 0, 53, 110
4, 168936, Note_off_c, 0, 53, 64
4, 168960, Note_on_c, 0, 51, 110
4, 168960, Note_on_c, 0, 58, 110
4, 169728, Note_off_c, 0, 58, 64
4, 169728, Note_off_c, 0, 51, 64
4, 170340, Note_on_c, 0, 55, 110
4, 170388, Note_off_c, 0, 55, 64
4, 170400, Note_on_c, 0, 60, 110
4, 170820, Note_on_c, 0, 55, 110
4, 170868, Note_off_c, 0, 55, 64
4, 170880, Note_on_c, 0, 53, 110
4, 171168, Note_off_c, 0, 60, 64
4, 171264, Note_off_c, 0, 53, 64
4, 171300, Note_on_c, 0, 60, 110
4, 171348, Note_off_c, 0, 60, 64
4, 171360, Note_on_c, 0, 58, 110
4, 171780, Note_on_c, 0, 53, 110
4, 171828, Note_off_c, 0, 53, 64
4, 171840, Note_on_c, 0, 55, 110
4, 172128, Note_off_c, 0, 55, 64
4, 172260, Note_on_c, 0, 53, 110
4, 172308, Note_off_c, 0, 53, 64
4, 172320, Note_on_c, 0, 55, 110
4, 172464, Note_off_c, 0, 58, 64
4, 172500, Note_on_c, 0, 57, 110
4, 172512, Note_off_c, 0, 55, 64
4, 172548, Note_off_c, 0, 57, 64
4, 172560, Note_on_c, 0, 55, 110
4, 172704, Note_off_c, 0, 55, 64
4, 172740, Note_on_c, 0, 53, 110
4, 172788, Note_off_c, 0, 53, 64
4, 172800, Note_on_c, 0, 58, 110
4, 173220, Note_on_c, 0, 53, 110
4, 173268, Note_off_c, 0, 53, 64
4, 173280, Note_on_c, 0, 55, 110
4, 173424, Note_off_c, 0, 58, 64
4, 173460, Note_on_c, 0, 62, 110
4, 173472, Note_off_c, 0, 55, 64
4, 173508, Note_off_c, 0, 62, 64
4, 173520, Note_on_c, 0, 60, 110
4, 173664, Note_off_c, 0, 60, 64
4, 173700, Note_on_c, 0, 58, 110
4, 173748, Note_off_c, 0, 58, 64
4, 173760, Note_on_c, 0, 60, 110
4, 174180, Note_on_c, 0, 53, 110
4, 174228, Note_off_c, 0, 53, 64
4, 174240, Note_on_c, 0, 48, 110
4, 174384, Note_off_c, 0, 60, 64
4, 174420, Note_on_c, 0, 58, 110
4, 174432, Note_off_c, 0, 48, 64
4, 174468, Note_off_c, 0, 58, 64
4, 174480, Note_on_c, 0, 57, 110
4, 174624, Note_off_c, 0, 57, 64
4, 174660, Note_on_c, 0, 55, 110
4, 174708, Note_off_c, 0, 55, 64
4, 174720, Note_on_c, 0, 53, 110
4, 175140, Note_on_c, 0, 44, 110
4, 175188, Note_off_c, 0, 44, 64
4, 175200, Note_on_c, 0, 53, 110
4, 175344, Note_off_c, 0, 53, 64
4, 175380, Note_on_c, 0, 51, 110
4, 175425, Note_off_c, 0, 53, 64
4, 175428, Note_off_c, 0, 51, 64
4, 175440, Note_on_c, 0, 50, 110
4, 175584, Note_off_c, 0, 50, 64
4, 175620, Note_on_c, 0, 48, 110
4, 175620, Note_on_c, 0, 53, 110
4, 175668, Note_off_c, 0, 53, 64
4, 175668, Note_off_c, 0, 48, 64
4, 175680, Note_on_c, 0, 46, 110
4, 175680, Note_on_c, 0, 53, 110
4, 176064, Note_off_c, 0, 53, 64
4, 176064, Note_off_c, 0, 46, 64
4, 176340, Note_on_c, 0, 53, 110
4, 176388, Note_off_c, 0, 53, 64
4, 176400, Note_on_c, 0, 51, 110
4, 176544, Note_off_c, 0, 51, 64
4, 176580, Note_on_c, 0, 53, 110
4, 176628, Note_off_c, 0, 53, 64
4, 176640, Note_on_c, 0, 55, 110
4, 176820, Note_on_c, 0, 46, 110
4, 176868, Note_off_c, 0, 46, 64
4, 176880, Note_on_c, 0, 48, 110
4, 177024, Note_off_c, 0, 48, 64
4, 177060, Note_on_c, 0, 50, 110
4, 177108, Note_off_c, 0, 50, 64
4, 177120, Note_on_c, 0, 51, 110
4, 177264, Note_off_c, 0, 55, 64
4, 177300, Note_on_c, 0, 55, 110
4, 177348, Note_off_c, 0, 55, 64
4, 177360, Note_on_c, 0, 53, 110
4, 177504, Note_off_c, 0, 53, 64
4, 177504, Note_off_c, 0, 51, 64
4, 177540, Note_on_c, 0, 55, 110
4, 177588, Note_off_c, 0, 55, 64
4, 177600, Note_on_c, 0, 57, 110
4, 177600, Note_on_c, 0, 51, 110
4, 177984, Note_off_c, 0, 51, 64
4, 177984, Note_off_c, 0, 57, 64
4, 178080, Note_on_c, 0, 50, 110
4, 178560, Note_on_c, 0, 50, 110
4, 178752, Note_off_c, 0, 50, 64
4, 178752, Note_off_c, 0, 50, 64
4, 179220, Note_on_c, 0, 55, 110
4, 179220, Note_on_c, 0, 55, 110
4, 179268, Note_off_c, 0, 55, 64
4, 179268, Note_off_c, 0, 55, 64
4, 179280, Note_on_c, 0, 57, 110
4, 179280, Note_on_c, 0, 57, 110
4, 179424, Note_off_c, 0, 57, 64
4, 179424, Note_off_c, 0, 57, 64
4, 179460, Note_on_c, 0, 58, 110
4, 179460, Note_on_c, 0, 58, 110
4, 179508, Note_off_c, 0, 58, 64
4, 179508, Note_off_c, 0, 58, 64
4, 179520, Note_on_c, 0, 60, 110
4, 179904, Note_off_c, 0, 60, 64
4, 180000, Note_on_c, 0, 65, 110
4, 181248, Note_off_c, 0, 65, 64
4, 181440, Note_on_c, 0, 53, 110
4, 181728, Note_off_c, 0, 53, 64
4, 181740, Note_on_c, 0, 51, 110
4, 181788, Note_off_c, 0, 51, 64
4, 181800, Note_on_c, 0, 50, 110
4, 181848, Note_off_c, 0, 50, 64
4, 181860, Note_on_c, 0, 48, 110
4, 181908, Note_off_c, 0, 48, 64
4, 181920, Note_on_c, 0, 46, 110
4, 182208, Note_off_c, 0, 46, 64
4, 182280, Note_on_c, 0, 56, 110
4, 182376, Note_off_c, 0, 56, 64
4, 182400, Note_on_c, 0, 56, 110
4, 182784, Note_off_c, 0, 56, 64
4, 182880, Note_on_c, 0, 55, 110
4, 183264, Note_off_c, 0, 55, 64
4, 183360, Note_on_c, 0, 62, 110
4, 183648, Note_off_c, 0, 62, 64
4, 183660, Note_on_c, 0, 60, 110
4, 183708, Note_off_c, 0, 60, 64
4, 183720, Note_on_c, 0, 59, 110
4, 183768, Note_off_c, 0, 59, 64
4, 183780, Note_on_c, 0, 57, 110
4, 183828, Note_off_c, 0, 57, 64
4, 183840, Note_on_c, 0, 55, 110
4, 184128, Note_off_c, 0, 55, 64
4, 184200, Note_on_c, 0, 53, 110
4, 184296, Note_off_c, 0, 53, 64
4, 184320, Note_on_c, 0, 53, 110
4, 184320, Note_on_c, 0, 55, 110
4, 184704, Note_off_c, 0, 53, 64
4, 184800, Note_on_c, 0, 51, 110
4, 185088, Note_off_c, 0, 55, 64
4, 185280, Note_on_c, 0, 53, 110
4, 185568, Note_off_c, 0, 51, 64
4, 185664, Note_off_c, 0, 53, 64
4, 185700, Note_on_c, 0, 51, 110
4, 185748, Note_off_c, 0, 51, 64
4, 185760, Note_on_c, 0, 50, 110
4, 186144, Note_off_c, 0, 50, 64
4, 186180, Note_on_c, 0, 53, 110
4, 186228, Note_off_c, 0, 53, 64
4, 186240, Note_on_c, 0, 51, 110
4, 186240, Note_on_c, 0, 55, 110
4, 186384, Note_off_c, 0, 55, 64
4, 186420, Note_on_c, 0, 68, 110
4, 186468, Note_off_c, 0, 68, 64
4, 186480, Note_on_c, 0, 67, 110
4, 186624, Note_off_c, 0, 67, 64
4, 186624, Note_off_c, 0, 51, 64
4, 186660, Note_on_c, 0, 65, 110
4, 186708, Note_off_c, 0, 65, 64
4, 186720, Note_on_c, 0, 67, 110
4, 186864, Note_off_c, 0, 67, 64
4, 186900, Note_on_c, 0, 58, 110
4, 186948, Note_off_c, 0, 58, 64
4, 186960, Note_on_c, 0, 56, 110
4, 187104, Note_off_c, 0, 56, 64
4, 187140, Note_on_c, 0, 55, 110
4, 187188, Note_off_c, 0, 55, 64
4, 187200, Note_on_c, 0, 60, 110
4, 187380, Note_on_c, 0, 55, 110
4, 187428, Note_off_c, 0, 55, 64
4, 187440, Note_on_c, 0, 53, 110
4, 187584, Note_off_c, 0, 53, 64
4, 187620, Note_on_c, 0, 51, 110
4, 187668, Note_off_c, 0, 51, 64
4, 187680, Note_on_c, 0, 53, 110
4, 187824, Note_off_c, 0, 53, 64
4, 187860, Note_on_c, 0, 48, 110
4, 187908, Note_off_c, 0, 48, 64
4, 187920, Note_on_c, 0, 50, 110
4, 187968, Note_off_c, 0, 60, 64
4, 188064, Note_off_c, 0, 50, 64
4, 188100, Note_on_c, 0, 60, 110
4, 188100, Note_on_c, 0, 51, 110
4, 188148, Note_off_c, 0, 51, 64
4, 188148, Note_off_c, 0, 60, 64
4, 188160, Note_on_c, 0, 58, 110
4, 188160, Note_on_c, 0, 46, 110
4, 188304, Note_off_c, 0, 46, 64
4, 188340, Note_on_c, 0, 51, 110
4, 188388, Note_off_c, 0, 51, 64
4, 188400, Note_on_c, 0, 55, 110
4, 188448, Note_off_c, 0, 58, 64
4, 188544, Note_off_c, 0, 55, 64
4, 188580, Note_on_c, 0, 57, 110
4, 188580, Note_on_c, 0, 60, 110
4, 188628, Note_off_c, 0, 60, 64
4, 188628, Note_off_c, 0, 57, 64
4, 188640, Note_on_c, 0, 58, 110
4, 188640, Note_on_c, 0, 62, 110
4, 188928, Note_off_c, 0, 58, 64
4, 189024, Note_off_c, 0, 62, 64
4, 189060, Note_on_c, 0, 58, 110
4, 189108, Note_off_c, 0, 58, 64
4, 189120, Note_on_c, 0, 58, 110
4, 191184, Note_off_c, 0, 58, 64
4, 191220, Note_on_c, 0, 56, 110
4, 191268, Note_off_c, 0, 56, 64
4, 191280, Note_on_c, 0, 55, 110
4, 191424, Note_off_c, 0, 55, 64
4, 191460, Note_on_c, 0, 53, 110
4, 191508, Note_off_c, 0, 53, 64
4, 191520, Note_on_c, 0, 55, 110
4, 191664, Note_off_c, 0, 55, 64
4, 191700, Note_on_c, 0, 51, 110
4, 191748, Note_off_c, 0, 51, 64
4, 191760, Note_on_c, 0, 50, 110
4, 191904, Note_off_c, 0, 50, 64
4, 191940, Note_on_c, 0, 48, 110
4, 191988, Note_off_c, 0, 48, 64
4, 192000, Note_on_c, 0, 46, 110
4, 192144, Note_off_c, 0, 46, 64
4, 192180, Note_on_c, 0, 55, 110
4, 192228, Note_off_c, 0, 55, 64
4, 192240, Note_on_c, 0, 53, 110
4, 192384, Note_off_c, 0, 53, 64
4, 192420, Note_on_c, 0, 51, 110
4, 192468, Note_off_c, 0, 51, 64
4, 192480, Note_on_c, 0, 53, 110
4, 193248, Note_off_c, 0, 53, 64
4, 193380, Note_on_c, 0, 53, 110
4, 193428, Note_off_c, 0, 53, 64
4, 193440, Note_on_c, 0, 51, 110
4, 193728, Note_off_c, 0, 51, 64
4, 193860, Note_on_c, 0, 55, 110
4, 193908, Note_off_c, 0, 55, 64
4, 193920, Note_on_c, 0, 56, 110
4, 194304, Note_off_c, 0, 56, 64
4, 194820, Note_on_c, 0, 58, 110
4, 194820, Note_on_c, 0, 53, 110
4, 194868, Note_off_c, 0, 53, 64
4, 194868, Note_off_c, 0, 58, 64
4, 194880, Note_on_c, 0, 58, 110
4, 194880, Note_on_c, 0, 55, 110
4, 195072, Note_off_c, 0, 55, 64
4, 195072, Note_off_c, 0, 58, 64
4, 195120, Note_on_c, 0, 55, 110
4, 195120, Note_on_c, 0, 58, 110
4, 195312, Note_off_c, 0, 58, 64
4, 195312, Note_off_c, 0, 55, 64
4, 195360, Note_on_c, 0, 51, 110
4, 195360, Note_on_c, 0, 56, 110
4, 195552, Note_off_c, 0, 56, 64
4, 195552, Note_off_c, 0, 51, 64
4, 195600, Note_on_c, 0, 46, 110
4, 195600, Note_on_c, 0, 56, 110
4, 195792, Note_off_c, 0, 56, 64
4, 195792, Note_off_c, 0, 46, 64
4, 195840, Note_on_c, 0, 51, 105
4, 195840, Note_on_c, 0, 46, 110
4, 195840, Note_on_c, 0, 56, 110
4, 196224, Note_off_c, 0, 56, 64
4, 196320, Note_on_c, 0, 55, 110
4, 196608, Note_off_c, 0, 46, 64
4, 196608, Note_off_c, 0, 51, 64
4, 196704, Note_off_c, 0, 55, 64
4, 196704, End_track
5, 0, Start_track
5, 0, Title_t, "gsbusat@worldnet.att.net"
5, 0, Program_c, 0, 19
5, 0, Control_c, 0, 7, 127
5, 0, Note_on_c, 0, 51, 110
5, 384, Note_off_c, 0, 51, 64
5, 840, Note_on_c, 0, 55, 110
5, 936, Note_off_c, 0, 55, 64
5, 960, Note_on_c, 0, 53, 110
5, 1584, Note_off_c, 0, 53, 64
5, 1620, Note_on_c, 0, 56, 110
5, 1668, Note_off_c, 0, 56, 64
5, 1680, Note_on_c, 0, 55, 110
5, 1824, Note_off_c, 0, 55, 64
5, 1860, Note_on_c, 0, 56, 110
5, 1908, Note_off_c, 0, 56, 64
5, 1920, Note_on_c, 0, 50, 110
5, 2304, Note_off_c, 0, 50, 64
5, 2760, Note_on_c, 0, 46, 110
5, 2856, Note_off_c, 0, 46, 64
5, 2880, Note_on_c, 0, 51, 110
5, 3504, Note_off_c, 0, 51, 64
5, 3540, Note_on_c, 0, 46, 110
5, 3588, Note_off_c, 0, 46, 64
5, 3600, Note_on_c, 0, 43, 110
5, 3744, Note_off_c, 0, 43, 64
5, 3780, Note_on_c, 0, 46, 110
5, 3828, Note_off_c, 0, 46, 64
5, 3840, Note_on_c, 0, 39, 110
5, 4224, Note_off_c, 0, 39, 64
5, 4740, Note_on_c, 0, 51, 110
5, 4788, Note_off_c, 0, 51, 64
5, 4800, Note_on_c, 0, 50, 110
5, 5184, Note_off_c, 0, 50, 64
5, 5700, Note_on_c, 0, 50, 110
5, 5748, Note_off_c, 0, 50, 64
5, 5760, Note_on_c, 0, 48, 110
5, 6144, Note_off_c, 0, 48, 64
5, 6660, Note_on_c, 0, 48, 110
5, 6708, Note_off_c, 0, 48, 64
5, 6720, Note_on_c, 0, 46, 110
5, 7104, Note_off_c, 0, 46, 64
5, 7620, Note_on_c, 0, 46, 110
5, 7668, Note_off_c, 0, 46, 64
5, 7680, Note_on_c, 0, 45, 110
5, 8064, Note_off_c, 0, 45, 64
5, 8580, Note_on_c, 0, 46, 110
5, 8628, Note_off_c, 0, 46, 64
5, 8640, Note_on_c, 0, 41, 110
5, 9024, Note_off_c, 0, 41, 64
5, 9540, Note_on_c, 0, 45, 110
5, 9588, Note_off_c, 0, 45, 64
5, 9600, Note_on_c, 0, 46, 110
5, 9888, Note_off_c, 0, 46, 64
5, 10020, Note_on_c, 0, 45, 110
5, 10068, Note_off_c, 0, 45, 64
5, 10080, Note_on_c, 0, 46, 110
5, 10368, Note_off_c, 0, 46, 64
5, 10500, Note_on_c, 0, 38, 110
5, 10548, Note_off_c, 0, 38, 64
5, 10560, Note_on_c, 0, 39, 110
5, 10848, Note_off_c, 0, 39, 64
5, 10980, Note_on_c, 0, 46, 110
5, 11028, Note_off_c, 0, 46, 64
5, 11040, Note_on_c, 0, 48, 110
5, 11328, Note_off_c, 0, 48, 64
5, 11460, Note_on_c, 0, 39, 110
5, 11508, Note_off_c, 0, 39, 64
5, 11520, Note_on_c, 0, 41, 110
5, 11808, Note_off_c, 0, 41, 64
5, 11940, Note_on_c, 0, 48, 110
5, 11988, Note_off_c, 0, 48, 64
5, 12000, Note_on_c, 0, 50, 110
5, 12288, Note_off_c, 0, 50, 64
5, 12420, Note_on_c, 0, 41, 110
5, 12468, Note_off_c, 0, 41, 64
5, 12480, Note_on_c, 0, 43, 110
5, 12768, Note_off_c, 0, 43, 64
5, 12900, Note_on_c, 0, 50, 110
5, 12948, Note_off_c, 0, 50, 64
5, 12960, Note_on_c, 0, 51, 110
5, 13248, Note_off_c, 0, 51, 64
5, 13380, Note_on_c, 0, 43, 110
5, 13428, Note_off_c, 0, 43, 64
5, 13440, Note_on_c, 0, 45, 110
5, 13728, Note_off_c, 0, 45, 64
5, 13860, Note_on_c, 0, 53, 110
5, 13908, Note_off_c, 0, 53, 64
5, 13920, Note_on_c, 0, 50, 110
5, 14208, Note_off_c, 0, 50, 64
5, 14340, Note_on_c, 0, 46, 110
5, 14388, Note_off_c, 0, 46, 64
5, 14400, Note_on_c, 0, 53, 110
5, 14784, Note_off_c, 0, 53, 64
5, 14880, Note_on_c, 0, 41, 110
5, 15264, Note_off_c, 0, 41, 64
5, 15360, Note_on_c, 0, 46, 110
5, 15744, Note_off_c, 0, 46, 64
5, 16200, Note_on_c, 0, 46, 110
5, 16313, Note_off_c, 0, 46, 64
5, 16320, Note_on_c, 0, 47, 110
5, 16944, Note_off_c, 0, 47, 64
5, 16980, Note_on_c, 0, 50, 110
5, 17028, Note_off_c, 0, 50, 64
5, 17040, Note_on_c, 0, 48, 110
5, 17184, Note_off_c, 0, 48, 64
5, 17220, Note_on_c, 0, 50, 110
5, 17268, Note_off_c, 0, 50, 64
5, 17280, Note_on_c, 0, 43, 110
5, 17664, Note_off_c, 0, 43, 64
5, 18120, Note_on_c, 0, 47, 110
5, 18233, Note_off_c, 0, 47, 64
5, 18240, Note_on_c, 0, 48, 110
5, 18864, Note_off_c, 0, 48, 64
5, 18900, Note_on_c, 0, 51, 110
5, 18948, Note_off_c, 0, 51, 64
5, 18960, Note_on_c, 0, 50, 110
5, 19104, Note_off_c, 0, 50, 64
5, 19140, Note_on_c, 0, 51, 110
5, 19188, Note_off_c, 0, 51, 64
5, 19200, Note_on_c, 0, 41, 110
5, 19584, Note_off_c, 0, 41, 64
5, 20100, Note_on_c, 0, 46, 110
5, 20148, Note_off_c, 0, 46, 64
5, 20160, Note_on_c, 0, 39, 110
5, 20544, Note_off_c, 0, 39, 64
5, 21060, Note_on_c, 0, 51, 110
5, 21108, Note_off_c, 0, 51, 64
5, 21120, Note_on_c, 0, 44, 110
5, 21504, Note_off_c, 0, 44, 64
5, 22020, Note_on_c, 0, 45, 110
5, 22068, Note_off_c, 0, 45, 64
5, 22080, Note_on_c, 0, 46, 110
5, 22704, Note_off_c, 0, 46, 64
5, 22740, Note_on_c, 0, 50, 110
5, 22788, Note_off_c, 0, 50, 64
5, 22800, Note_on_c, 0, 48, 110
5, 22944, Note_off_c, 0, 48, 64
5, 22980, Note_on_c, 0, 51, 110
5, 23028, Note_off_c, 0, 51, 64
5, 23040, Note_on_c, 0, 50, 110
5, 23424, Note_off_c, 0, 50, 64
5, 23940, Note_on_c, 0, 46, 110
5, 23988, Note_off_c, 0, 46, 64
5, 24000, Note_on_c, 0, 51, 110
5, 24384, Note_off_c, 0, 51, 64
5, 24900, Note_on_c, 0, 46, 110
5, 24948, Note_off_c, 0, 46, 64
5, 24960, Note_on_c, 0, 55, 110
5, 25344, Note_off_c, 0, 55, 64
5, 25860, Note_on_c, 0, 45, 110
5, 25908, Note_off_c, 0, 45, 64
5, 25920, Note_on_c, 0, 46, 110
5, 26304, Note_off_c, 0, 46, 64
5, 26820, Note_on_c, 0, 44, 110
5, 26868, Note_off_c, 0, 44, 64
5, 26880, Note_on_c, 0, 43, 110
5, 27264, Note_off_c, 0, 43, 64
5, 27780, Note_on_c, 0, 43, 110
5, 27828, Note_off_c, 0, 43, 64
5, 27840, Note_on_c, 0, 48, 110
5, 28224, Note_off_c, 0, 48, 64
5, 28740, Note_on_c, 0, 50, 110
5, 28788, Note_off_c, 0, 50, 64
5, 28800, Note_on_c, 0, 51, 110
5, 28992, Note_off_c, 0, 51, 64
5, 29040, Note_on_c, 0, 43, 110
5, 29232, Note_off_c, 0, 43, 64
5, 29280, Note_on_c, 0, 44, 110
5, 29472, Note_off_c, 0, 44, 64
5, 29520, Note_on_c, 0, 46, 110
5, 29712, Note_off_c, 0, 46, 64
5, 29760, Note_on_c, 0, 39, 110
5, 30528, Note_off_c, 0, 39, 64
5, 32160, Note_on_c, 0, 39, 110
5, 32340, Note_off_c, 0, 39, 64
5, 34080, Note_on_c, 0, 39, 76
5, 34260, Note_off_c, 0, 39, 64
5, 36000, Note_on_c, 0, 46, 110
5, 36180, Note_off_c, 0, 46, 64
5, 37920, Note_on_c, 0, 46, 76
5, 38100, Note_off_c, 0, 46, 64
5, 48000, Note_on_c, 0, 46, 110
5, 48384, Note_off_c, 0, 46, 64
5, 48840, Note_on_c, 0, 46, 110
5, 48936, Note_off_c, 0, 46, 64
5, 48960, Note_on_c, 0, 48, 110
5, 49584, Note_off_c, 0, 48, 64
5, 49620, Note_on_c, 0, 51, 110
5, 49668, Note_off_c, 0, 51, 64
5, 49680, Note_on_c, 0, 50, 110
5, 49824, Note_off_c, 0, 50, 64
5, 49860, Note_on_c, 0, 51, 110
5, 49908, Note_off_c, 0, 51, 64
5, 49920, Note_on_c, 0, 41, 110
5, 50304, Note_off_c, 0, 41, 64
5, 50760, Note_on_c, 0, 41, 110
5, 50856, Note_off_c, 0, 41, 64
5, 50880, Note_on_c, 0, 46, 110
5, 51504, Note_off_c, 0, 46, 64
5, 51540, Note_on_c, 0, 50, 110
5, 51588, Note_off_c, 0, 50, 64
5, 51600, Note_on_c, 0, 48, 110
5, 51744, Note_off_c, 0, 48, 64
5, 51780, Note_on_c, 0, 51, 110
5, 51828, Note_off_c, 0, 51, 64
5, 51840, Note_on_c, 0, 50, 110
5, 52464, Note_off_c, 0, 50, 64
5, 52500, Note_on_c, 0, 48, 110
5, 52548, Note_off_c, 0, 48, 64
5, 52560, Note_on_c, 0, 50, 110
5, 52704, Note_off_c, 0, 50, 64
5, 52740, Note_on_c, 0, 46, 110
5, 52788, Note_off_c, 0, 46, 64
5, 52800, Note_on_c, 0, 51, 110
5, 53424, Note_off_c, 0, 51, 64
5, 53460, Note_on_c, 0, 55, 110
5, 53508, Note_off_c, 0, 55, 64
5, 53520, Note_on_c, 0, 53, 110
5, 53664, Note_off_c, 0, 53, 64
5, 53700, Note_on_c, 0, 56, 110
5, 53748, Note_off_c, 0, 56, 64
5, 53760, Note_on_c, 0, 55, 110
5, 54384, Note_off_c, 0, 55, 64
5, 54420, Note_on_c, 0, 53, 110
5, 54468, Note_off_c, 0, 53, 64
5, 54480, Note_on_c, 0, 55, 110
5, 54624, Note_off_c, 0, 55, 64
5, 54660, Note_on_c, 0, 51, 110
5, 54708, Note_off_c, 0, 51, 64
5, 54720, Note_on_c, 0, 56, 110
5, 55344, Note_off_c, 0, 56, 64
5, 55380, Note_on_c, 0, 58, 110
5, 55428, Note_off_c, 0, 58, 64
5, 55440, Note_on_c, 0, 55, 110
5, 55584, Note_off_c, 0, 55, 64
5, 55620, Note_on_c, 0, 56, 110
5, 55668, Note_off_c, 0, 56, 64
5, 55680, Note_on_c, 0, 53, 110
5, 56064, Note_off_c, 0, 53, 64
5, 56580, Note_on_c, 0, 53, 110
5, 56628, Note_off_c, 0, 53, 64
5, 56640, Note_on_c, 0, 51, 110
5, 57024, Note_off_c, 0, 51, 64
5, 57540, Note_on_c, 0, 51, 110
5, 57588, Note_off_c, 0, 51, 64
5, 57600, Note_on_c, 0, 50, 110
5, 57984, Note_off_c, 0, 50, 64
5, 58500, Note_on_c, 0, 50, 110
5, 58548, Note_off_c, 0, 50, 64
5, 58560, Note_on_c, 0, 48, 110
5, 58944, Note_off_c, 0, 48, 64
5, 59460, Note_on_c, 0, 48, 110
5, 59508, Note_off_c, 0, 48, 64
5, 59520, Note_on_c, 0, 47, 110
5, 59904, Note_off_c, 0, 47, 64
5, 60420, Note_on_c, 0, 50, 110
5, 60468, Note_off_c, 0, 50, 64
5, 60480, Note_on_c, 0, 43, 110
5, 60864, Note_off_c, 0, 43, 64
5, 61380, Note_on_c, 0, 47, 110
5, 61428, Note_off_c, 0, 47, 64
5, 61440, Note_on_c, 0, 48, 110
5, 61728, Note_off_c, 0, 48, 64
5, 61860, Note_on_c, 0, 47, 110
5, 61908, Note_off_c, 0, 47, 64
5, 61920, Note_on_c, 0, 48, 110
5, 62208, Note_off_c, 0, 48, 64
5, 62340, Note_on_c, 0, 39, 110
5, 62388, Note_off_c, 0, 39, 64
5, 62400, Note_on_c, 0, 41, 110
5, 62688, Note_off_c, 0, 41, 64
5, 62820, Note_on_c, 0, 48, 110
5, 62868, Note_off_c, 0, 48, 64
5, 62880, Note_on_c, 0, 50, 110
5, 63168, Note_off_c, 0, 50, 64
5, 63300, Note_on_c, 0, 41, 110
5, 63348, Note_off_c, 0, 41, 64
5, 63360, Note_on_c, 0, 43, 110
5, 63648, Note_off_c, 0, 43, 64
5, 63780, Note_on_c, 0, 50, 110
5, 63828, Note_off_c, 0, 50, 64
5, 63840, Note_on_c, 0, 51, 110
5, 64128, Note_off_c, 0, 51, 64
5, 64260, Note_on_c, 0, 43, 110
5, 64308, Note_off_c, 0, 43, 64
5, 64320, Note_on_c, 0, 44, 110
5, 64608, Note_off_c, 0, 44, 64
5, 64740, Note_on_c, 0, 51, 110
5, 64788, Note_off_c, 0, 51, 64
5, 64800, Note_on_c, 0, 53, 110
5, 65088, Note_off_c, 0, 53, 64
5, 65220, Note_on_c, 0, 45, 110
5, 65268, Note_off_c, 0, 45, 64
5, 65280, Note_on_c, 0, 47, 110
5, 65568, Note_off_c, 0, 47, 64
5, 65700, Note_on_c, 0, 55, 110
5, 65748, Note_off_c, 0, 55, 64
5, 65760, Note_on_c, 0, 51, 110
5, 66048, Note_off_c, 0, 51, 64
5, 66180, Note_on_c, 0, 48, 110
5, 66228, Note_off_c, 0, 48, 64
5, 66240, Note_on_c, 0, 55, 110
5, 66624, Note_off_c, 0, 55, 64
5, 66720, Note_on_c, 0, 43, 110
5, 67104, Note_off_c, 0, 43, 64
5, 67200, Note_on_c, 0, 48, 110
5, 67392, Note_off_c, 0, 48, 64
5, 93960, Note_on_c, 0, 52, 110
5, 94056, Note_off_c, 0, 52, 64
5, 94080, Note_on_c, 0, 53, 110
5, 94704, Note_off_c, 0, 53, 64
5, 94740, Note_on_c, 0, 56, 110
5, 94788, Note_off_c, 0, 56, 64
5, 94800, Note_on_c, 0, 55, 110
5, 94944, Note_off_c, 0, 55, 64
5, 94980, Note_on_c, 0, 56, 110
5, 95028, Note_off_c, 0, 56, 64
5, 95040, Note_on_c, 0, 46, 110
5, 95424, Note_off_c, 0, 46, 64
5, 95940, Note_on_c, 0, 51, 110
5, 95988, Note_off_c, 0, 51, 64
5, 96000, Note_on_c, 0, 44, 110
5, 96384, Note_off_c, 0, 44, 64
5, 96900, Note_on_c, 0, 56, 110
5, 96948, Note_off_c, 0, 56, 64
5, 96960, Note_on_c, 0, 49, 110
5, 97344, Note_off_c, 0, 49, 64
5, 97860, Note_on_c, 0, 50, 110
5, 97908, Note_off_c, 0, 50, 64
5, 97920, Note_on_c, 0, 51, 110
5, 98544, Note_off_c, 0, 51, 64
5, 98580, Note_on_c, 0, 55, 110
5, 98628, Note_off_c, 0, 55, 64
5, 98640, Note_on_c, 0, 53, 110
5, 98784, Note_off_c, 0, 53, 64
5, 98820, Note_on_c, 0, 56, 110
5, 98868, Note_off_c, 0, 56, 64
5, 98880, Note_on_c, 0, 55, 110
5, 99264, Note_off_c, 0, 55, 64
5, 99780, Note_on_c, 0, 51, 110
5, 99828, Note_off_c, 0, 51, 64
5, 99840, Note_on_c, 0, 56, 110
5, 100224, Note_off_c, 0, 56, 64
5, 100740, Note_on_c, 0, 49, 110
5, 100788, Note_off_c, 0, 49, 64
5, 100800, Note_on_c, 0, 48, 110
5, 101184, Note_off_c, 0, 48, 64
5, 101700, Note_on_c, 0, 50, 110
5, 101748, Note_off_c, 0, 50, 64
5, 101760, Note_on_c, 0, 51, 110
5, 102144, Note_off_c, 0, 51, 64
5, 102660, Note_on_c, 0, 49, 110
5, 102708, Note_off_c, 0, 49, 64
5, 102720, Note_on_c, 0, 48, 110
5, 103104, Note_off_c, 0, 48, 64
5, 103620, Note_on_c, 0, 48, 110
5, 103668, Note_off_c, 0, 48, 64
5, 103680, Note_on_c, 0, 41, 110
5, 104064, Note_off_c, 0, 41, 64
5, 104580, Note_on_c, 0, 43, 110
5, 104628, Note_off_c, 0, 43, 64
5, 104640, Note_on_c, 0, 44, 110
5, 104832, Note_off_c, 0, 44, 64
5, 104880, Note_on_c, 0, 48, 110
5, 105072, Note_off_c, 0, 48, 64
5, 105120, Note_on_c, 0, 49, 110
5, 105312, Note_off_c, 0, 49, 64
5, 105360, Note_on_c, 0, 51, 110
5, 105552, Note_off_c, 0, 51, 64
5, 105600, Note_on_c, 0, 44, 110
5, 106368, Note_off_c, 0, 44, 64
5, 108000, Note_on_c, 0, 44, 110
5, 108180, Note_off_c, 0, 44, 64
5, 109920, Note_on_c, 0, 44, 76
5, 110100, Note_off_c, 0, 44, 64
5, 111840, Note_on_c, 0, 39, 76
5, 112020, Note_off_c, 0, 39, 64
5, 113760, Note_on_c, 0, 39, 76
5, 113940, Note_off_c, 0, 39, 64
5, 123840, Note_on_c, 0, 39, 96
5, 124032, Note_off_c, 0, 39, 64
5, 124080, Note_on_c, 0, 41, 96
5, 124272, Note_off_c, 0, 41, 64
5, 124320, Note_on_c, 0, 43, 96
5, 124512, Note_off_c, 0, 43, 64
5, 124560, Note_on_c, 0, 44, 96
5, 124992, Note_off_c, 0, 44, 64
5, 125040, Note_on_c, 0, 43, 96
5, 125232, Note_off_c, 0, 43, 64
5, 125280, Note_on_c, 0, 41, 96
5, 125472, Note_off_c, 0, 41, 64
5, 125520, Note_on_c, 0, 46, 96
5, 125712, Note_off_c, 0, 46, 64
5, 125760, Note_on_c, 0, 39, 96
5, 125952, Note_off_c, 0, 39, 64
5, 126000, Note_on_c, 0, 38, 96
5, 126192, Note_off_c, 0, 38, 64
5, 126240, Note_on_c, 0, 36, 96
5, 126432, Note_off_c, 0, 36, 64
5, 126480, Note_on_c, 0, 48, 96
5, 126672, Note_off_c, 0, 48, 64
5, 126720, Note_on_c, 0, 41, 96
5, 126912, Note_off_c, 0, 41, 64
5, 126960, Note_on_c, 0, 43, 96
5, 127152, Note_off_c, 0, 43, 64
5, 127200, Note_on_c, 0, 36, 96
5, 127392, Note_off_c, 0, 36, 64
5, 127440, Note_on_c, 0, 41, 96
5, 127632, Note_off_c, 0, 41, 64
5, 127680, Note_on_c, 0, 46, 96
5, 127872, Note_off_c, 0, 46, 64
5, 127920, Note_on_c, 0, 38, 96
5, 128112, Note_off_c, 0, 38, 64
5, 128160, Note_on_c, 0, 39, 96
5, 128352, Note_off_c, 0, 39, 64
5, 128400, Note_on_c, 0, 43, 96
5, 128592, Note_off_c, 0, 43, 64
5, 128640, Note_on_c, 0, 44, 96
5, 128832, Note_off_c, 0, 44, 64
5, 128880, Note_on_c, 0, 56, 96
5, 129264, Note_off_c, 0, 56, 64
5, 129360, Note_on_c, 0, 55, 96
5, 129792, Note_off_c, 0, 55, 64
5, 129840, Note_on_c, 0, 53, 96
5, 130032, Note_off_c, 0, 53, 64
5, 130080, Note_on_c, 0, 55, 96
5, 130272, Note_off_c, 0, 55, 64
5, 130320, Note_on_c, 0, 56, 96
5, 130752, Note_off_c, 0, 56, 64
5, 130800, Note_on_c, 0, 55, 96
5, 130992, Note_off_c, 0, 55, 64
5, 131040, Note_on_c, 0, 53, 96
5, 131232, Note_off_c, 0, 53, 64
5, 131280, Note_on_c, 0, 46, 96
5, 131472, Note_off_c, 0, 46, 64
5, 131520, Note_on_c, 0, 51, 96
5, 131712, Note_off_c, 0, 51, 64
5, 131760, Note_on_c, 0, 43, 96
5, 131952, Note_off_c, 0, 43, 64
5, 132000, Note_on_c, 0, 44, 96
5, 132192, Note_off_c, 0, 44, 64
5, 132240, Note_on_c, 0, 48, 96
5, 132432, Note_off_c, 0, 48, 64
5, 132480, Note_on_c, 0, 50, 96
5, 132672, Note_off_c, 0, 50, 64
5, 132720, Note_on_c, 0, 41, 96
5, 132912, Note_off_c, 0, 41, 64
5, 132960, Note_on_c, 0, 43, 96
5, 133152, Note_off_c, 0, 43, 64
5, 133200, Note_on_c, 0, 46, 96
5, 133392, Note_off_c, 0, 46, 64
5, 133440, Note_on_c, 0, 48, 96
5, 133632, Note_off_c, 0, 48, 64
5, 133680, Note_on_c, 0, 39, 96
5, 133872, Note_off_c, 0, 39, 64
5, 133920, Note_on_c, 0, 41, 96
5, 134112, Note_off_c, 0, 41, 64
5, 134400, Note_on_c, 0, 44, 96
5, 134592, Note_off_c, 0, 44, 64
5, 134880, Note_on_c, 0, 43, 96
5, 135072, Note_off_c, 0, 43, 64
5, 135120, Note_on_c, 0, 48, 96
5, 135312, Note_off_c, 0, 48, 64
5, 135360, Note_on_c, 0, 41, 96
5, 135552, Note_off_c, 0, 41, 64
5, 135600, Note_on_c, 0, 43, 96
5, 135792, Note_off_c, 0, 43, 64
5, 135840, Note_on_c, 0, 36, 96
5, 136032, Note_off_c, 0, 36, 64
5, 136080, Note_on_c, 0, 41, 96
5, 136272, Note_off_c, 0, 41, 64
5, 136320, Note_on_c, 0, 46, 96
5, 136512, Note_off_c, 0, 46, 64
5, 138300, Note_on_c, 0, 60, 110
5, 138348, Note_off_c, 0, 60, 64
5, 138360, Note_on_c, 0, 58, 110
5, 138408, Note_off_c, 0, 58, 64
5, 138420, Note_on_c, 0, 60, 110
5, 138468, Note_off_c, 0, 60, 64
5, 138480, Note_on_c, 0, 56, 110
5, 138528, Note_off_c, 0, 56, 64
5, 138540, Note_on_c, 0, 58, 110
5, 138588, Note_off_c, 0, 58, 64
5, 138600, Note_on_c, 0, 55, 110
5, 138648, Note_off_c, 0, 55, 64
5, 138660, Note_on_c, 0, 56, 110
5, 138708, Note_off_c, 0, 56, 64
5, 138720, Note_on_c, 0, 53, 110
5, 138768, Note_off_c, 0, 53, 64
5, 138780, Note_on_c, 0, 55, 110
5, 138828, Note_off_c, 0, 55, 64
5, 138840, Note_on_c, 0, 51, 110
5, 138888, Note_off_c, 0, 51, 64
5, 138900, Note_on_c, 0, 53, 110
5, 138948, Note_off_c, 0, 53, 64
5, 138960, Note_on_c, 0, 50, 110
5, 139008, Note_off_c, 0, 50, 64
5, 139020, Note_on_c, 0, 51, 110
5, 139068, Note_off_c, 0, 51, 64
5, 139080, Note_on_c, 0, 48, 110
5, 139128, Note_off_c, 0, 48, 64
5, 139140, Note_on_c, 0, 50, 110
5, 139188, Note_off_c, 0, 50, 64
5, 139200, Note_on_c, 0, 47, 110
5, 139248, Note_off_c, 0, 47, 64
5, 139260, Note_on_c, 0, 50, 110
5, 139308, Note_off_c, 0, 50, 64
5, 139320, Note_on_c, 0, 47, 110
5, 139368, Note_off_c, 0, 47, 64
5, 139380, Note_on_c, 0, 50, 110
5, 139428, Note_off_c, 0, 50, 64
5, 139440, Note_on_c, 0, 48, 110
5, 139488, Note_off_c, 0, 48, 64
5, 139500, Note_on_c, 0, 51, 110
5, 139548, Note_off_c, 0, 51, 64
5, 139560, Note_on_c, 0, 48, 110
5, 139608, Note_off_c, 0, 48, 64
5, 139620, Note_on_c, 0, 51, 110
5, 139668, Note_off_c, 0, 51, 64
5, 139680, Note_on_c, 0, 48, 110
5, 139728, Note_off_c, 0, 48, 64
5, 139740, Note_on_c, 0, 53, 110
5, 139788, Note_off_c, 0, 53, 64
5, 139800, Note_on_c, 0, 48, 110
5, 139848, Note_off_c, 0, 48, 64
5, 139860, Note_on_c, 0, 53, 110
5, 139908, Note_off_c, 0, 53, 64
5, 139920, Note_on_c, 0, 47, 110
5, 139968, Note_off_c, 0, 47, 64
5, 139980, Note_on_c, 0, 55, 110
5, 140028, Note_off_c, 0, 55, 64
5, 140040, Note_on_c, 0, 47, 110
5, 140088, Note_off_c, 0, 47, 64
5, 140100, Note_on_c, 0, 55, 110
5, 140148, Note_off_c, 0, 55, 64
5, 140160, Note_on_c, 0, 48, 110
5, 140352, Note_off_c, 0, 48, 64
5, 142140, Note_on_c, 0, 58, 110
5, 142188, Note_off_c, 0, 58, 64
5, 142200, Note_on_c, 0, 57, 110
5, 142248, Note_off_c, 0, 57, 64
5, 142260, Note_on_c, 0, 58, 110
5, 142308, Note_off_c, 0, 58, 64
5, 142320, Note_on_c, 0, 55, 110
5, 142368, Note_off_c, 0, 55, 64
5, 142380, Note_on_c, 0, 57, 110
5, 142428, Note_off_c, 0, 57, 64
5, 142440, Note_on_c, 0, 53, 110
5, 142488, Note_off_c, 0, 53, 64
5, 142500, Note_on_c, 0, 55, 110
5, 142548, Note_off_c, 0, 55, 64
5, 142560, Note_on_c, 0, 51, 110
5, 142608, Note_off_c, 0, 51, 64
5, 142620, Note_on_c, 0, 53, 110
5, 142668, Note_off_c, 0, 53, 64
5, 142680, Note_on_c, 0, 50, 110
5, 142728, Note_off_c, 0, 50, 64
5, 142740, Note_on_c, 0, 51, 110
5, 142788, Note_off_c, 0, 51, 64
5, 142800, Note_on_c, 0, 48, 110
5, 142848, Note_off_c, 0, 48, 64
5, 142860, Note_on_c, 0, 50, 110
5, 142908, Note_off_c, 0, 50, 64
5, 142920, Note_on_c, 0, 46, 110
5, 142968, Note_off_c, 0, 46, 64
5, 142980, Note_on_c, 0, 48, 110
5, 143028, Note_off_c, 0, 48, 64
5, 143040, Note_on_c, 0, 45, 110
5, 143088, Note_off_c, 0, 45, 64
5, 143100, Note_on_c, 0, 48, 110
5, 143148, Note_off_c, 0, 48, 64
5, 143160, Note_on_c, 0, 45, 110
5, 143208, Note_off_c, 0, 45, 64
5, 143220, Note_on_c, 0, 48, 110
5, 143268, Note_off_c, 0, 48, 64
5, 143280, Note_on_c, 0, 46, 110
5, 143328, Note_off_c, 0, 46, 64
5, 143340, Note_on_c, 0, 50, 110
5, 143388, Note_off_c, 0, 50, 64
5, 143400, Note_on_c, 0, 46, 110
5, 143448, Note_off_c, 0, 46, 64
5, 143460, Note_on_c, 0, 50, 110
5, 143508, Note_off_c, 0, 50, 64
5, 143520, Note_on_c, 0, 46, 110
5, 143568, Note_off_c, 0, 46, 64
5, 143580, Note_on_c, 0, 51, 110
5, 143628, Note_off_c, 0, 51, 64
5, 143640, Note_on_c, 0, 46, 110
5, 143688, Note_off_c, 0, 46, 64
5, 143700, Note_on_c, 0, 51, 110
5, 143748, Note_off_c, 0, 51, 64
5, 143760, Note_on_c, 0, 45, 110
5, 143808, Note_off_c, 0, 45, 64
5, 143820, Note_on_c, 0, 53, 110
5, 143868, Note_off_c, 0, 53, 64
5, 143880, Note_on_c, 0, 45, 110
5, 143928, Note_off_c, 0, 45, 64
5, 143940, Note_on_c, 0, 53, 110
5, 143988, Note_off_c, 0, 53, 64
5, 144000, Note_on_c, 0, 46, 110
5, 144192, Note_off_c, 0, 46, 64
5, 145980, Note_on_c, 0, 56, 110
5, 146028, Note_off_c, 0, 56, 64
5, 146040, Note_on_c, 0, 55, 110
5, 146088, Note_off_c, 0, 55, 64
5, 146100, Note_on_c, 0, 56, 110
5, 146148, Note_off_c, 0, 56, 64
5, 146160, Note_on_c, 0, 53, 110
5, 146208, Note_off_c, 0, 53, 64
5, 146220, Note_on_c, 0, 55, 110
5, 146268, Note_off_c, 0, 55, 64
5, 146280, Note_on_c, 0, 51, 110
5, 146328, Note_off_c, 0, 51, 64
5, 146340, Note_on_c, 0, 53, 110
5, 146388, Note_off_c, 0, 53, 64
5, 146400, Note_on_c, 0, 49, 110
5, 146448, Note_off_c, 0, 49, 64
5, 146460, Note_on_c, 0, 51, 110
5, 146508, Note_off_c, 0, 51, 64
5, 146520, Note_on_c, 0, 48, 110
5, 146568, Note_off_c, 0, 48, 64
5, 146580, Note_on_c, 0, 49, 110
5, 146628, Note_off_c, 0, 49, 64
5, 146640, Note_on_c, 0, 46, 110
5, 146688, Note_off_c, 0, 46, 64
5, 146700, Note_on_c, 0, 48, 110
5, 146748, Note_off_c, 0, 48, 64
5, 146760, Note_on_c, 0, 44, 110
5, 146808, Note_off_c, 0, 44, 64
5, 146820, Note_on_c, 0, 46, 110
5, 146868, Note_off_c, 0, 46, 64
5, 146880, Note_on_c, 0, 43, 110
5, 146928, Note_off_c, 0, 43, 64
5, 146940, Note_on_c, 0, 46, 110
5, 146988, Note_off_c, 0, 46, 64
5, 147000, Note_on_c, 0, 43, 110
5, 147048, Note_off_c, 0, 43, 64
5, 147060, Note_on_c, 0, 46, 110
5, 147108, Note_off_c, 0, 46, 64
5, 147120, Note_on_c, 0, 44, 110
5, 147168, Note_off_c, 0, 44, 64
5, 147180, Note_on_c, 0, 48, 110
5, 147228, Note_off_c, 0, 48, 64
5, 147240, Note_on_c, 0, 44, 110
5, 147288, Note_off_c, 0, 44, 64
5, 147300, Note_on_c, 0, 48, 110
5, 147348, Note_off_c, 0, 48, 64
5, 147360, Note_on_c, 0, 44, 110
5, 147408, Note_off_c, 0, 44, 64
5, 147420, Note_on_c, 0, 49, 110
5, 147468, Note_off_c, 0, 49, 64
5, 147480, Note_on_c, 0, 44, 110
5, 147528, Note_off_c, 0, 44, 64
5, 147540, Note_on_c, 0, 49, 110
5, 147588, Note_off_c, 0, 49, 64
5, 147600, Note_on_c, 0, 43, 110
5, 147648, Note_off_c, 0, 43, 64
5, 147660, Note_on_c, 0, 51, 110
5, 147708, Note_off_c, 0, 51, 64
5, 147720, Note_on_c, 0, 43, 110
5, 147768, Note_off_c, 0, 43, 64
5, 147780, Note_on_c, 0, 51, 110
5, 147828, Note_off_c, 0, 51, 64
5, 147840, Note_on_c, 0, 44, 120
5, 148224, Note_off_c, 0, 44, 64
5, 148320, Note_on_c, 0, 46, 120
5, 148704, Note_off_c, 0, 46, 64
5, 148800, Note_on_c, 0, 48, 120
5, 149184, Note_off_c, 0, 48, 64
5, 149280, Note_on_c, 0, 50, 120
5, 149664, Note_off_c, 0, 50, 64
5, 149760, Note_on_c, 0, 51, 120
5, 149952, Note_off_c, 0, 51, 64
5, 150000, Note_on_c, 0, 50, 120
5, 150192, Note_off_c, 0, 50, 64
5, 150240, Note_on_c, 0, 48, 120
5, 150432, Note_off_c, 0, 48, 64
5, 150480, Note_on_c, 0, 53, 120
5, 150672, Note_off_c, 0, 53, 64
5, 150720, Note_on_c, 0, 46, 110
5, 150912, Note_off_c, 0, 46, 64
5, 150960, Note_on_c, 0, 48, 110
5, 151152, Note_off_c, 0, 48, 64
5, 151200, Note_on_c, 0, 41, 110
5, 151392, Note_off_c, 0, 41, 64
5, 151440, Note_on_c, 0, 46, 110
5, 151632, Note_off_c, 0, 46, 64
5, 151680, Note_on_c, 0, 39, 110
5, 151872, Note_off_c, 0, 39, 64
5, 166920, Note_on_c, 0, 43, 110
5, 167016, Note_off_c, 0, 43, 64
5, 167040, Note_on_c, 0, 48, 110
5, 167664, Note_off_c, 0, 48, 64
5, 167700, Note_on_c, 0, 48, 110
5, 167748, Note_off_c, 0, 48, 64
5, 167760, Note_on_c, 0, 50, 110
5, 167904, Note_off_c, 0, 50, 64
5, 167940, Note_on_c, 0, 51, 110
5, 167988, Note_off_c, 0, 51, 64
5, 168000, Note_on_c, 0, 50, 110
5, 168384, Note_off_c, 0, 50, 64
5, 168840, Note_on_c, 0, 46, 110
5, 168936, Note_off_c, 0, 46, 64
5, 168960, Note_on_c, 0, 51, 110
5, 169584, Note_off_c, 0, 51, 64
5, 169620, Note_on_c, 0, 46, 110
5, 169668, Note_off_c, 0, 46, 64
5, 169680, Note_on_c, 0, 43, 110
5, 169824, Note_off_c, 0, 43, 64
5, 169860, Note_on_c, 0, 46, 110
5, 169908, Note_off_c, 0, 46, 64
5, 169920, Note_on_c, 0, 39, 110
5, 170304, Note_off_c, 0, 39, 64
5, 170820, Note_on_c, 0, 51, 110
5, 170868, Note_off_c, 0, 51, 64
5, 170880, Note_on_c, 0, 50, 110
5, 171264, Note_off_c, 0, 50, 64
5, 171780, Note_on_c, 0, 50, 110
5, 171828, Note_off_c, 0, 50, 64
5, 171840, Note_on_c, 0, 48, 110
5, 172224, Note_off_c, 0, 48, 64
5, 172740, Note_on_c, 0, 48, 110
5, 172788, Note_off_c, 0, 48, 64
5, 172800, Note_on_c, 0, 46, 110
5, 173184, Note_off_c, 0, 46, 64
5, 173700, Note_on_c, 0, 46, 110
5, 173748, Note_off_c, 0, 46, 64
5, 173760, Note_on_c, 0, 45, 110
5, 174144, Note_off_c, 0, 45, 64
5, 174660, Note_on_c, 0, 46, 110
5, 174708, Note_off_c, 0, 46, 64
5, 174720, Note_on_c, 0, 41, 110
5, 175104, Note_off_c, 0, 41, 64
5, 175620, Note_on_c, 0, 45, 110
5, 175668, Note_off_c, 0, 45, 64
5, 175680, Note_on_c, 0, 46, 110
5, 175968, Note_off_c, 0, 46, 64
5, 176100, Note_on_c, 0, 45, 110
5, 176148, Note_off_c, 0, 45, 64
5, 176160, Note_on_c, 0, 46, 110
5, 176448, Note_off_c, 0, 46, 64
5, 176580, Note_on_c, 0, 38, 110
5, 176628, Note_off_c, 0, 38, 64
5, 176640, Note_on_c, 0, 39, 110
5, 176928, Note_off_c, 0, 39, 64
5, 177060, Note_on_c, 0, 46, 110
5, 177108, Note_off_c, 0, 46, 64
5, 177120, Note_on_c, 0, 48, 110
5, 177408, Note_off_c, 0, 48, 64
5, 177540, Note_on_c, 0, 39, 110
5, 177588, Note_off_c, 0, 39, 64
5, 177600, Note_on_c, 0, 41, 110
5, 177888, Note_off_c, 0, 41, 64
5, 178020, Note_on_c, 0, 48, 110
5, 178068, Note_off_c, 0, 48, 64
5, 178080, Note_on_c, 0, 50, 110
5, 178368, Note_off_c, 0, 50, 64
5, 178500, Note_on_c, 0, 41, 110
5, 178548, Note_off_c, 0, 41, 64
5, 178560, Note_on_c, 0, 43, 110
5, 178848, Note_off_c, 0, 43, 64
5, 178980, Note_on_c, 0, 50, 110
5, 179028, Note_off_c, 0, 50, 64
5, 179040, Note_on_c, 0, 51, 110
5, 179328, Note_off_c, 0, 51, 64
5, 179460, Note_on_c, 0, 43, 110
5, 179508, Note_off_c, 0, 43, 64
5, 179520, Note_on_c, 0, 45, 110
5, 179808, Note_off_c, 0, 45, 64
5, 179940, Note_on_c, 0, 53, 110
5, 179988, Note_off_c, 0, 53, 64
5, 180000, Note_on_c, 0, 50, 110
5, 180288, Note_off_c, 0, 50, 64
5, 180420, Note_on_c, 0, 46, 110
5, 180468, Note_off_c, 0, 46, 64
5, 180480, Note_on_c, 0, 53, 110
5, 180864, Note_off_c, 0, 53, 64
5, 180960, Note_on_c, 0, 41, 110
5, 181344, Note_off_c, 0, 41, 64
5, 181440, Note_on_c, 0, 46, 110
5, 181824, Note_off_c, 0, 46, 64
5, 182280, Note_on_c, 0, 46, 110
5, 182393, Note_off_c, 0, 46, 64
5, 182400, Note_on_c, 0, 47, 110
5, 183024, Note_off_c, 0, 47, 64
5, 183060, Note_on_c, 0, 50, 110
5, 183108, Note_off_c, 0, 50, 64
5, 183120, Note_on_c, 0, 48, 110
5, 183264, Note_off_c, 0, 48, 64
5, 183300, Note_on_c, 0, 50, 110
5, 183348, Note_off_c, 0, 50, 64
5, 183360, Note_on_c, 0, 43, 110
5, 183744, Note_off_c, 0, 43, 64
5, 184200, Note_on_c, 0, 47, 110
5, 184313, Note_off_c, 0, 47, 64
5, 184320, Note_on_c, 0, 48, 110
5, 184944, Note_off_c, 0, 48, 64
5, 184980, Note_on_c, 0, 51, 110
5, 185028, Note_off_c, 0, 51, 64
5, 185040, Note_on_c, 0, 50, 110
5, 185184, Note_off_c, 0, 50, 64
5, 185220, Note_on_c, 0, 51, 110
5, 185268, Note_off_c, 0, 51, 64
5, 185280, Note_on_c, 0, 41, 110
5, 185664, Note_off_c, 0, 41, 64
5, 186180, Note_on_c, 0, 46, 110
5, 186228, Note_off_c, 0, 46, 64
5, 186240, Note_on_c, 0, 39, 110
5, 186624, Note_off_c, 0, 39, 64
5, 187140, Note_on_c, 0, 51, 110
5, 187188, Note_off_c, 0, 51, 64
5, 187200, Note_on_c, 0, 44, 110
5, 187584, Note_off_c, 0, 44, 64
5, 188100, Note_on_c, 0, 45, 110
5, 188148, Note_off_c, 0, 45, 64
5, 188160, Note_on_c, 0, 46, 110
5, 188784, Note_off_c, 0, 46, 64
5, 188820, Note_on_c, 0, 50, 110
5, 188868, Note_off_c, 0, 50, 64
5, 188880, Note_on_c, 0, 48, 110
5, 189024, Note_off_c, 0, 48, 64
5, 189060, Note_on_c, 0, 51, 110
5, 189108, Note_off_c, 0, 51, 64
5, 189120, Note_on_c, 0, 50, 110
5, 189504, Note_off_c, 0, 50, 64
5, 190020, Note_on_c, 0, 46, 110
5, 190068, Note_off_c, 0, 46, 64
5, 190080, Note_on_c, 0, 51, 110
5, 190464, Note_off_c, 0, 51, 64
5, 190980, Note_on_c, 0, 46, 110
5, 191028, Note_off_c, 0, 46, 64
5, 191040, Note_on_c, 0, 55, 110
5, 191424, Note_off_c, 0, 55, 64
5, 191940, Note_on_c, 0, 45, 110
5, 191988, Note_off_c, 0, 45, 64
5, 192000, Note_on_c, 0, 46, 110
5, 192384, Note_off_c, 0, 46, 64
5, 192900, Note_on_c, 0, 44, 110
5, 192948, Note_off_c, 0, 44, 64
5, 192960, Note_on_c, 0, 43, 110
5, 193344, Note_off_c, 0, 43, 64
5, 193860, Note_on_c, 0, 43, 110
5, 193908, Note_off_c, 0, 43, 64
5, 193920, Note_on_c, 0, 48, 110
5, 194304, Note_off_c, 0, 48, 64
5, 194820, Note_on_c, 0, 50, 110
5, 194868, Note_off_c, 0, 50, 64
5, 194880, Note_on_c, 0, 51, 110
5, 195072, Note_off_c, 0, 51, 64
5, 195120, Note_on_c, 0, 43, 110
5, 195312, Note_off_c, 0, 43, 64
5, 195360, Note_on_c, 0, 44, 110
5, 195552, Note_off_c, 0, 44, 64
5, 195600, Note_on_c, 0, 46, 110
5, 195792, Note_off_c, 0, 46, 64
5, 195840, Note_on_c, 0, 39, 110
5, 196608, Note_off_c, 0, 39, 64
5, 196608, End_track
0, 0, End_of_file
