0, 0, Header, 1, 4, 240
1, 0, Start_track
1, 0, Time_signature, 2, 2, 24, 8
1, 0, Tempo, 600000
1, 85200, Tempo, 631579
1, 85440, Tempo, 666667
1, 85680, Tempo, 750000
1, 85920, Tempo, 857143
1, 86160, Tempo, 1000000
1, 86160, End_track
2, 0, Start_track
2, 0, Title_t, "Trio Sonata 6, 1. Vivace"
2, 0, Program_c, 0, 19
2, 0, Control_c, 0, 7, 127
2, 0, Note_on_c, 0, 67, 127
2, 192, Note_off_c, 0, 67, 64
2, 240, Note_on_c, 0, 67, 127
2, 432, Note_off_c, 0, 67, 64
2, 480, Note_on_c, 0, 67, 127
2, 576, Note_off_c, 0, 67, 64
2, 600, Note_on_c, 0, 66, 127
2, 648, Note_off_c, 0, 66, 64
2, 660, Note_on_c, 0, 64, 127
2, 708, Note_off_c, 0, 64, 64
2, 720, Note_on_c, 0, 62, 127
2, 816, Note_off_c, 0, 62, 64
2, 840, Note_on_c, 0, 60, 127
2, 936, Note_off_c, 0, 60, 64
2, 960, Note_on_c, 0, 59, 127
2, 1056, Note_off_c, 0, 59, 64
2, 1080, Note_on_c, 0, 67, 127
2, 1176, Note_off_c, 0, 67, 64
2, 1200, Note_on_c, 0, 57, 127
2, 1296, Note_off_c, 0, 57, 64
2, 1320, Note_on_c, 0, 66, 127
2, 1416, Note_off_c, 0, 66, 64
2, 1440, Note_on_c, 0, 55, 127
2, 1536, Note_off_c, 0, 55, 64
2, 1560, Note_on_c, 0, 67, 127
2, 1608, Note_off_c, 0, 67, 64
2, 1620, Note_on_c, 0, 66, 127
2, 1668, Note_off_c, 0, 66, 64
2, 1680, Note_on_c, 0, 67, 127
2, 1728, Note_off_c, 0, 67, 64
2, 1740, Note_on_c, 0, 69, 127
2, 1788, Note_off_c, 0, 69, 64
2, 1800, Note_on_c, 0, 71, 127
2, 1848, Note_off_c, 0, 71, 64
2, 1860, Note_on_c, 0, 73, 127
2, 1908, Note_off_c, 0, 73, 64
2, 1920, Note_on_c, 0, 74, 127
2, 2112, Note_off_c, 0, 74, 64
2, 2160, Note_on_c, 0, 74, 127
2, 2352, Note_off_c, 0, 74, 64
2, 2400, Note_on_c, 0, 74, 127
2, 2496, Note_off_c, 0, 74, 64
2, 2520, Note_on_c, 0, 73, 127
2, 2568, Note_off_c, 0, 73, 64
2, 2580, Note_on_c, 0, 71, 127
2, 2628, Note_off_c, 0, 71, 64
2, 2640, Note_on_c, 0, 69, 127
2, 2688, Note_off_c, 0, 69, 64
2, 2700, Note_on_c, 0, 74, 127
2, 2748, Note_off_c, 0, 74, 64
2, 2760, Note_on_c, 0, 67, 127
2, 2808, Note_off_c, 0, 67, 64
2, 2820, Note_on_c, 0, 74, 127
2, 2868, Note_off_c, 0, 74, 64
2, 2880, Note_on_c, 0, 66, 127
2, 2928, Note_off_c, 0, 66, 64
2, 2940, Note_on_c, 0, 74, 127
2, 2988, Note_off_c, 0, 74, 64
2, 3000, Note_on_c, 0, 73, 127
2, 3048, Note_off_c, 0, 73, 64
2, 3060, Note_on_c, 0, 74, 127
2, 3108, Note_off_c, 0, 74, 64
2, 3120, Note_on_c, 0, 64, 127
2, 3168, Note_off_c, 0, 64, 64
2, 3180, Note_on_c, 0, 74, 127
2, 3228, Note_off_c, 0, 74, 64
2, 3240, Note_on_c, 0, 73, 127
2, 3288, Note_off_c, 0, 73, 64
2, 3300, Note_on_c, 0, 74, 127
2, 3348, Note_off_c, 0, 74, 64
2, 3360, Note_on_c, 0, 62, 127
2, 3552, Note_off_c, 0, 62, 64
2, 3720, Note_on_c, 0, 69, 127
2, 3768, Note_off_c, 0, 69, 64
2, 3780, Note_on_c, 0, 66, 127
2, 3828, Note_off_c, 0, 66, 64
2, 3840, Note_on_c, 0, 62, 127
2, 3936, Note_off_c, 0, 62, 64
2, 3960, Note_on_c, 0, 62, 127
2, 4056, Note_off_c, 0, 62, 64
2, 4080, Note_on_c, 0, 62, 127
2, 4176, Note_off_c, 0, 62, 64
2, 4200, Note_on_c, 0, 71, 127
2, 4248, Note_off_c, 0, 71, 64
2, 4260, Note_on_c, 0, 67, 127
2, 4308, Note_off_c, 0, 67, 64
2, 4320, Note_on_c, 0, 62, 127
2, 4416, Note_off_c, 0, 62, 64
2, 4440, Note_on_c, 0, 62, 127
2, 4536, Note_off_c, 0, 62, 64
2, 4560, Note_on_c, 0, 62, 127
2, 4656, Note_off_c, 0, 62, 64
2, 4680, Note_on_c, 0, 72, 127
2, 4728, Note_off_c, 0, 72, 64
2, 4740, Note_on_c, 0, 69, 127
2, 4788, Note_off_c, 0, 69, 64
2, 4800, Note_on_c, 0, 62, 127
2, 4896, Note_off_c, 0, 62, 64
2, 4920, Note_on_c, 0, 62, 127
2, 5016, Note_off_c, 0, 62, 64
2, 5040, Note_on_c, 0, 62, 127
2, 5136, Note_off_c, 0, 62, 64
2, 5160, Note_on_c, 0, 66, 127
2, 5208, Note_off_c, 0, 66, 64
2, 5220, Note_on_c, 0, 69, 127
2, 5268, Note_off_c, 0, 69, 64
2, 5280, Note_on_c, 0, 72, 127
2, 5376, Note_off_c, 0, 72, 64
2, 5400, Note_on_c, 0, 69, 127
2, 5448, Note_off_c, 0, 69, 64
2, 5460, Note_on_c, 0, 72, 127
2, 5508, Note_off_c, 0, 72, 64
2, 5520, Note_on_c, 0, 78, 127
2, 5616, Note_off_c, 0, 78, 64
2, 5640, Note_on_c, 0, 72, 127
2, 5688, Note_off_c, 0, 72, 64
2, 5700, Note_on_c, 0, 78, 127
2, 5748, Note_off_c, 0, 78, 64
2, 5760, Note_on_c, 0, 79, 127
2, 5856, Note_off_c, 0, 79, 64
2, 5880, Note_on_c, 0, 81, 127
2, 5976, Note_off_c, 0, 81, 64
2, 6000, Note_on_c, 0, 78, 127
2, 6096, Note_off_c, 0, 78, 64
2, 6120, Note_on_c, 0, 79, 127
2, 6216, Note_off_c, 0, 79, 64
2, 6360, Note_on_c, 0, 71, 127
2, 6408, Note_off_c, 0, 71, 64
2, 6420, Note_on_c, 0, 69, 127
2, 6468, Note_off_c, 0, 69, 64
2, 6480, Note_on_c, 0, 72, 127
2, 6528, Note_off_c, 0, 72, 64
2, 6540, Note_on_c, 0, 71, 127
2, 6588, Note_off_c, 0, 71, 64
2, 6600, Note_on_c, 0, 69, 127
2, 6648, Note_off_c, 0, 69, 64
2, 6660, Note_on_c, 0, 67, 127
2, 6708, Note_off_c, 0, 67, 64
2, 6720, Note_on_c, 0, 79, 127
2, 6816, Note_off_c, 0, 79, 64
2, 6840, Note_on_c, 0, 69, 127
2, 6936, Note_off_c, 0, 69, 64
2, 6960, Note_on_c, 0, 66, 127
2, 7056, Note_off_c, 0, 66, 64
2, 7080, Note_on_c, 0, 69, 127
2, 7176, Note_off_c, 0, 69, 64
2, 7200, Note_on_c, 0, 77, 127
2, 7296, Note_off_c, 0, 77, 64
2, 7320, Note_on_c, 0, 77, 127
2, 7416, Note_off_c, 0, 77, 64
2, 7440, Note_on_c, 0, 77, 127
2, 7536, Note_off_c, 0, 77, 64
2, 7560, Note_on_c, 0, 71, 127
2, 7656, Note_off_c, 0, 71, 64
2, 7680, Note_on_c, 0, 76, 127
2, 7776, Note_off_c, 0, 76, 64
2, 7800, Note_on_c, 0, 81, 127
2, 7896, Note_off_c, 0, 81, 64
2, 7920, Note_on_c, 0, 78, 127
2, 8016, Note_off_c, 0, 78, 64
2, 8040, Note_on_c, 0, 79, 127
2, 8136, Note_off_c, 0, 79, 64
2, 8160, Note_on_c, 0, 69, 127
2, 8256, Note_off_c, 0, 69, 64
2, 8280, Note_on_c, 0, 71, 127
2, 8328, Note_off_c, 0, 71, 64
2, 8340, Note_on_c, 0, 72, 127
2, 8388, Note_off_c, 0, 72, 64
2, 8400, Note_on_c, 0, 74, 127
2, 8496, Note_off_c, 0, 74, 64
2, 8520, Note_on_c, 0, 72, 127
2, 8616, Note_off_c, 0, 72, 64
2, 8640, Note_on_c, 0, 71, 127
2, 8832, Note_off_c, 0, 71, 64
2, 8880, Note_on_c, 0, 69, 127
2, 9072, Note_off_c, 0, 69, 64
2, 9120, Note_on_c, 0, 67, 127
2, 9216, Note_off_c, 0, 67, 64
2, 9240, Note_on_c, 0, 69, 127
2, 9288, Note_off_c, 0, 69, 64
2, 9300, Note_on_c, 0, 71, 127
2, 9348, Note_off_c, 0, 71, 64
2, 9360, Note_on_c, 0, 72, 127
2, 9408, Note_off_c, 0, 72, 64
2, 9420, Note_on_c, 0, 74, 127
2, 9468, Note_off_c, 0, 74, 64
2, 9480, Note_on_c, 0, 76, 127
2, 9528, Note_off_c, 0, 76, 64
2, 9540, Note_on_c, 0, 78, 127
2, 9588, Note_off_c, 0, 78, 64
2, 9600, Note_on_c, 0, 79, 127
2, 9648, Note_off_c, 0, 79, 64
2, 9660, Note_on_c, 0, 74, 127
2, 9708, Note_off_c, 0, 74, 64
2, 9720, Note_on_c, 0, 83, 127
2, 9888, Note_off_c, 0, 83, 64
2, 9900, Note_on_c, 0, 81, 127
2, 9948, Note_off_c, 0, 81, 64
2, 9960, Note_on_c, 0, 79, 127
2, 10008, Note_off_c, 0, 79, 64
2, 10020, Note_on_c, 0, 78, 127
2, 10068, Note_off_c, 0, 78, 64
2, 10080, Note_on_c, 0, 79, 127
2, 10128, Note_off_c, 0, 79, 64
2, 10140, Note_on_c, 0, 83, 127
2, 10188, Note_off_c, 0, 83, 64
2, 10200, Note_on_c, 0, 74, 127
2, 10368, Note_off_c, 0, 74, 64
2, 10380, Note_on_c, 0, 77, 127
2, 10428, Note_off_c, 0, 77, 64
2, 10440, Note_on_c, 0, 76, 127
2, 10488, Note_off_c, 0, 76, 64
2, 10500, Note_on_c, 0, 74, 127
2, 10548, Note_off_c, 0, 74, 64
2, 10560, Note_on_c, 0, 76, 127
2, 10608, Note_off_c, 0, 76, 64
2, 10620, Note_on_c, 0, 72, 127
2, 10668, Note_off_c, 0, 72, 64
2, 10680, Note_on_c, 0, 79, 127
2, 10848, Note_off_c, 0, 79, 64
2, 10860, Note_on_c, 0, 77, 127
2, 10908, Note_off_c, 0, 77, 64
2, 10920, Note_on_c, 0, 76, 127
2, 10968, Note_off_c, 0, 76, 64
2, 10980, Note_on_c, 0, 74, 127
2, 11028, Note_off_c, 0, 74, 64
2, 11040, Note_on_c, 0, 76, 127
2, 11088, Note_off_c, 0, 76, 64
2, 11100, Note_on_c, 0, 79, 127
2, 11148, Note_off_c, 0, 79, 64
2, 11160, Note_on_c, 0, 72, 127
2, 11328, Note_off_c, 0, 72, 64
2, 11340, Note_on_c, 0, 71, 127
2, 11388, Note_off_c, 0, 71, 64
2, 11400, Note_on_c, 0, 69, 127
2, 11448, Note_off_c, 0, 69, 64
2, 11460, Note_on_c, 0, 67, 127
2, 11508, Note_off_c, 0, 67, 64
2, 11520, Note_on_c, 0, 69, 127
2, 11568, Note_off_c, 0, 69, 64
2, 11580, Note_on_c, 0, 66, 127
2, 11628, Note_off_c, 0, 66, 64
2, 11640, Note_on_c, 0, 72, 127
2, 11808, Note_off_c, 0, 72, 64
2, 11820, Note_on_c, 0, 71, 127
2, 11868, Note_off_c, 0, 71, 64
2, 11880, Note_on_c, 0, 69, 127
2, 11928, Note_off_c, 0, 69, 64
2, 11940, Note_on_c, 0, 67, 127
2, 11988, Note_off_c, 0, 67, 64
2, 12000, Note_on_c, 0, 69, 127
2, 12048, Note_off_c, 0, 69, 64
2, 12060, Note_on_c, 0, 72, 127
2, 12108, Note_off_c, 0, 72, 64
2, 12120, Note_on_c, 0, 66, 127
2, 12288, Note_off_c, 0, 66, 64
2, 12300, Note_on_c, 0, 69, 127
2, 12348, Note_off_c, 0, 69, 64
2, 12360, Note_on_c, 0, 67, 127
2, 12408, Note_off_c, 0, 67, 64
2, 12420, Note_on_c, 0, 66, 127
2, 12468, Note_off_c, 0, 66, 64
2, 12480, Note_on_c, 0, 67, 127
2, 12528, Note_off_c, 0, 67, 64
2, 12540, Note_on_c, 0, 62, 127
2, 12588, Note_off_c, 0, 62, 64
2, 12600, Note_on_c, 0, 67, 127
2, 12648, Note_off_c, 0, 67, 64
2, 12660, Note_on_c, 0, 71, 127
2, 12708, Note_off_c, 0, 71, 64
2, 12720, Note_on_c, 0, 74, 127
2, 12768, Note_off_c, 0, 74, 64
2, 12780, Note_on_c, 0, 71, 127
2, 12828, Note_off_c, 0, 71, 64
2, 12840, Note_on_c, 0, 79, 127
2, 12953, Note_off_c, 0, 79, 64
2, 12960, Note_on_c, 0, 72, 127
2, 12984, Note_off_c, 0, 72, 64
2, 12990, Note_on_c, 0, 71, 127
2, 13014, Note_off_c, 0, 71, 64
2, 13020, Note_on_c, 0, 72, 127
2, 13044, Note_off_c, 0, 72, 64
2, 13050, Note_on_c, 0, 71, 127
2, 13074, Note_off_c, 0, 71, 64
2, 13080, Note_on_c, 0, 69, 127
2, 13176, Note_off_c, 0, 69, 64
2, 13560, Note_on_c, 0, 69, 127
2, 13656, Note_off_c, 0, 69, 64
2, 13680, Note_on_c, 0, 74, 127
2, 13776, Note_off_c, 0, 74, 64
2, 13800, Note_on_c, 0, 76, 127
2, 13896, Note_off_c, 0, 76, 64
2, 13920, Note_on_c, 0, 78, 127
2, 13968, Note_off_c, 0, 78, 64
2, 13980, Note_on_c, 0, 74, 127
2, 14028, Note_off_c, 0, 74, 64
2, 14040, Note_on_c, 0, 78, 127
2, 14088, Note_off_c, 0, 78, 64
2, 14100, Note_on_c, 0, 81, 127
2, 14148, Note_off_c, 0, 81, 64
2, 14160, Note_on_c, 0, 84, 127
2, 14256, Note_off_c, 0, 84, 64
2, 14520, Note_on_c, 0, 67, 127
2, 14616, Note_off_c, 0, 67, 64
2, 14640, Note_on_c, 0, 71, 127
2, 14736, Note_off_c, 0, 71, 64
2, 14760, Note_on_c, 0, 74, 127
2, 14856, Note_off_c, 0, 74, 64
2, 14880, Note_on_c, 0, 79, 127
2, 14928, Note_off_c, 0, 79, 64
2, 14940, Note_on_c, 0, 74, 127
2, 14988, Note_off_c, 0, 74, 64
2, 15000, Note_on_c, 0, 79, 127
2, 15048, Note_off_c, 0, 79, 64
2, 15060, Note_on_c, 0, 81, 127
2, 15108, Note_off_c, 0, 81, 64
2, 15120, Note_on_c, 0, 83, 127
2, 15216, Note_off_c, 0, 83, 64
2, 15480, Note_on_c, 0, 73, 127
2, 15528, Note_off_c, 0, 73, 64
2, 15540, Note_on_c, 0, 74, 127
2, 15588, Note_off_c, 0, 74, 64
2, 15600, Note_on_c, 0, 76, 127
2, 15648, Note_off_c, 0, 76, 64
2, 15660, Note_on_c, 0, 78, 127
2, 15708, Note_off_c, 0, 78, 64
2, 15720, Note_on_c, 0, 79, 127
2, 15936, Note_off_c, 0, 79, 64
2, 15960, Note_on_c, 0, 76, 127
2, 16008, Note_off_c, 0, 76, 64
2, 16020, Note_on_c, 0, 73, 127
2, 16068, Note_off_c, 0, 73, 64
2, 16080, Note_on_c, 0, 69, 127
2, 16176, Note_off_c, 0, 69, 64
2, 16200, Note_on_c, 0, 79, 127
2, 16416, Note_off_c, 0, 79, 64
2, 16440, Note_on_c, 0, 81, 127
2, 16536, Note_off_c, 0, 81, 64
2, 16560, Note_on_c, 0, 78, 127
2, 16656, Note_off_c, 0, 78, 64
2, 16680, Note_on_c, 0, 74, 127
2, 16848, Note_off_c, 0, 74, 64
2, 16860, Note_on_c, 0, 71, 127
2, 16908, Note_off_c, 0, 71, 64
2, 16920, Note_on_c, 0, 73, 127
2, 16968, Note_off_c, 0, 73, 64
2, 16980, Note_on_c, 0, 78, 127
2, 17028, Note_off_c, 0, 78, 64
2, 17040, Note_on_c, 0, 76, 127
2, 17088, Note_off_c, 0, 76, 64
2, 17100, Note_on_c, 0, 74, 127
2, 17148, Note_off_c, 0, 74, 64
2, 17160, Note_on_c, 0, 73, 127
2, 17208, Note_off_c, 0, 73, 64
2, 17220, Note_on_c, 0, 71, 127
2, 17268, Note_off_c, 0, 71, 64
2, 17280, Note_on_c, 0, 69, 127
2, 17328, Note_off_c, 0, 69, 64
2, 17340, Note_on_c, 0, 73, 127
2, 17388, Note_off_c, 0, 73, 64
2, 17400, Note_on_c, 0, 76, 127
2, 17448, Note_off_c, 0, 76, 64
2, 17460, Note_on_c, 0, 73, 127
2, 17508, Note_off_c, 0, 73, 64
2, 17520, Note_on_c, 0, 81, 127
2, 17568, Note_off_c, 0, 81, 64
2, 17580, Note_on_c, 0, 76, 127
2, 17628, Note_off_c, 0, 76, 64
2, 17640, Note_on_c, 0, 73, 127
2, 17688, Note_off_c, 0, 73, 64
2, 17700, Note_on_c, 0, 76, 127
2, 17748, Note_off_c, 0, 76, 64
2, 17760, Note_on_c, 0, 69, 127
2, 17808, Note_off_c, 0, 69, 64
2, 17820, Note_on_c, 0, 73, 127
2, 17868, Note_off_c, 0, 73, 64
2, 17880, Note_on_c, 0, 76, 127
2, 17928, Note_off_c, 0, 76, 64
2, 17940, Note_on_c, 0, 73, 127
2, 17988, Note_off_c, 0, 73, 64
2, 18000, Note_on_c, 0, 81, 127
2, 18048, Note_off_c, 0, 81, 64
2, 18060, Note_on_c, 0, 76, 127
2, 18108, Note_off_c, 0, 76, 64
2, 18120, Note_on_c, 0, 73, 127
2, 18168, Note_off_c, 0, 73, 64
2, 18180, Note_on_c, 0, 76, 127
2, 18228, Note_off_c, 0, 76, 64
2, 18240, Note_on_c, 0, 69, 127
2, 18288, Note_off_c, 0, 69, 64
2, 18300, Note_on_c, 0, 74, 127
2, 18348, Note_off_c, 0, 74, 64
2, 18360, Note_on_c, 0, 78, 127
2, 18408, Note_off_c, 0, 78, 64
2, 18420, Note_on_c, 0, 74, 127
2, 18468, Note_off_c, 0, 74, 64
2, 18480, Note_on_c, 0, 81, 127
2, 18528, Note_off_c, 0, 81, 64
2, 18540, Note_on_c, 0, 78, 127
2, 18588, Note_off_c, 0, 78, 64
2, 18600, Note_on_c, 0, 74, 127
2, 18648, Note_off_c, 0, 74, 64
2, 18660, Note_on_c, 0, 78, 127
2, 18708, Note_off_c, 0, 78, 64
2, 18720, Note_on_c, 0, 69, 127
2, 18768, Note_off_c, 0, 69, 64
2, 18780, Note_on_c, 0, 72, 127
2, 18828, Note_off_c, 0, 72, 64
2, 18840, Note_on_c, 0, 78, 127
2, 18888, Note_off_c, 0, 78, 64
2, 18900, Note_on_c, 0, 72, 127
2, 18948, Note_off_c, 0, 72, 64
2, 18960, Note_on_c, 0, 81, 127
2, 19008, Note_off_c, 0, 81, 64
2, 19020, Note_on_c, 0, 78, 127
2, 19068, Note_off_c, 0, 78, 64
2, 19080, Note_on_c, 0, 72, 127
2, 19128, Note_off_c, 0, 72, 64
2, 19140, Note_on_c, 0, 78, 127
2, 19188, Note_off_c, 0, 78, 64
2, 19200, Note_on_c, 0, 71, 127
2, 19248, Note_off_c, 0, 71, 64
2, 19260, Note_on_c, 0, 74, 127
2, 19308, Note_off_c, 0, 74, 64
2, 19320, Note_on_c, 0, 79, 127
2, 19368, Note_off_c, 0, 79, 64
2, 19380, Note_on_c, 0, 74, 127
2, 19428, Note_off_c, 0, 74, 64
2, 19440, Note_on_c, 0, 83, 127
2, 19488, Note_off_c, 0, 83, 64
2, 19500, Note_on_c, 0, 79, 127
2, 19548, Note_off_c, 0, 79, 64
2, 19560, Note_on_c, 0, 74, 127
2, 19608, Note_off_c, 0, 74, 64
2, 19620, Note_on_c, 0, 79, 127
2, 19668, Note_off_c, 0, 79, 64
2, 19680, Note_on_c, 0, 71, 127
2, 19728, Note_off_c, 0, 71, 64
2, 19740, Note_on_c, 0, 74, 127
2, 19788, Note_off_c, 0, 74, 64
2, 19800, Note_on_c, 0, 79, 127
2, 19848, Note_off_c, 0, 79, 64
2, 19860, Note_on_c, 0, 74, 127
2, 19908, Note_off_c, 0, 74, 64
2, 19920, Note_on_c, 0, 83, 127
2, 19968, Note_off_c, 0, 83, 64
2, 19980, Note_on_c, 0, 79, 127
2, 20028, Note_off_c, 0, 79, 64
2, 20040, Note_on_c, 0, 74, 127
2, 20088, Note_off_c, 0, 74, 64
2, 20100, Note_on_c, 0, 79, 127
2, 20148, Note_off_c, 0, 79, 64
2, 20160, Note_on_c, 0, 72, 127
2, 20208, Note_off_c, 0, 72, 64
2, 20220, Note_on_c, 0, 76, 127
2, 20268, Note_off_c, 0, 76, 64
2, 20280, Note_on_c, 0, 79, 127
2, 20328, Note_off_c, 0, 79, 64
2, 20340, Note_on_c, 0, 76, 127
2, 20388, Note_off_c, 0, 76, 64
2, 20400, Note_on_c, 0, 83, 127
2, 20448, Note_off_c, 0, 83, 64
2, 20460, Note_on_c, 0, 79, 127
2, 20508, Note_off_c, 0, 79, 64
2, 20520, Note_on_c, 0, 76, 127
2, 20568, Note_off_c, 0, 76, 64
2, 20580, Note_on_c, 0, 79, 127
2, 20628, Note_off_c, 0, 79, 64
2, 20640, Note_on_c, 0, 72, 127
2, 20688, Note_off_c, 0, 72, 64
2, 20700, Note_on_c, 0, 76, 127
2, 20748, Note_off_c, 0, 76, 64
2, 20760, Note_on_c, 0, 79, 127
2, 20808, Note_off_c, 0, 79, 64
2, 20820, Note_on_c, 0, 76, 127
2, 20868, Note_off_c, 0, 76, 64
2, 20880, Note_on_c, 0, 83, 127
2, 20928, Note_off_c, 0, 83, 64
2, 20940, Note_on_c, 0, 79, 127
2, 20988, Note_off_c, 0, 79, 64
2, 21000, Note_on_c, 0, 76, 127
2, 21048, Note_off_c, 0, 76, 64
2, 21060, Note_on_c, 0, 79, 127
2, 21108, Note_off_c, 0, 79, 64
2, 21120, Note_on_c, 0, 69, 127
2, 21168, Note_off_c, 0, 69, 64
2, 21180, Note_on_c, 0, 72, 127
2, 21228, Note_off_c, 0, 72, 64
2, 21240, Note_on_c, 0, 76, 127
2, 21288, Note_off_c, 0, 76, 64
2, 21300, Note_on_c, 0, 72, 127
2, 21348, Note_off_c, 0, 72, 64
2, 21360, Note_on_c, 0, 81, 127
2, 21408, Note_off_c, 0, 81, 64
2, 21420, Note_on_c, 0, 76, 127
2, 21468, Note_off_c, 0, 76, 64
2, 21480, Note_on_c, 0, 72, 127
2, 21528, Note_off_c, 0, 72, 64
2, 21540, Note_on_c, 0, 76, 127
2, 21588, Note_off_c, 0, 76, 64
2, 21600, Note_on_c, 0, 69, 127
2, 21648, Note_off_c, 0, 69, 64
2, 21660, Note_on_c, 0, 72, 127
2, 21708, Note_off_c, 0, 72, 64
2, 21720, Note_on_c, 0, 76, 127
2, 21768, Note_off_c, 0, 76, 64
2, 21780, Note_on_c, 0, 72, 127
2, 21828, Note_off_c, 0, 72, 64
2, 21840, Note_on_c, 0, 81, 127
2, 21888, Note_off_c, 0, 81, 64
2, 21900, Note_on_c, 0, 76, 127
2, 21948, Note_off_c, 0, 76, 64
2, 21960, Note_on_c, 0, 72, 127
2, 22008, Note_off_c, 0, 72, 64
2, 22020, Note_on_c, 0, 76, 127
2, 22068, Note_off_c, 0, 76, 64
2, 22080, Note_on_c, 0, 71, 127
2, 22128, Note_off_c, 0, 71, 64
2, 22140, Note_on_c, 0, 75, 127
2, 22188, Note_off_c, 0, 75, 64
2, 22200, Note_on_c, 0, 78, 127
2, 22248, Note_off_c, 0, 78, 64
2, 22260, Note_on_c, 0, 75, 127
2, 22308, Note_off_c, 0, 75, 64
2, 22320, Note_on_c, 0, 81, 127
2, 22368, Note_off_c, 0, 81, 64
2, 22380, Note_on_c, 0, 78, 127
2, 22428, Note_off_c, 0, 78, 64
2, 22440, Note_on_c, 0, 75, 127
2, 22488, Note_off_c, 0, 75, 64
2, 22500, Note_on_c, 0, 78, 127
2, 22548, Note_off_c, 0, 78, 64
2, 22560, Note_on_c, 0, 71, 127
2, 22608, Note_off_c, 0, 71, 64
2, 22620, Note_on_c, 0, 75, 127
2, 22668, Note_off_c, 0, 75, 64
2, 22680, Note_on_c, 0, 78, 127
2, 22728, Note_off_c, 0, 78, 64
2, 22740, Note_on_c, 0, 75, 127
2, 22788, Note_off_c, 0, 75, 64
2, 22800, Note_on_c, 0, 81, 127
2, 22848, Note_off_c, 0, 81, 64
2, 22860, Note_on_c, 0, 78, 127
2, 22908, Note_off_c, 0, 78, 64
2, 22920, Note_on_c, 0, 75, 127
2, 22968, Note_off_c, 0, 75, 64
2, 22980, Note_on_c, 0, 78, 127
2, 23028, Note_off_c, 0, 78, 64
2, 23040, Note_on_c, 0, 71, 127
2, 23088, Note_off_c, 0, 71, 64
2, 23100, Note_on_c, 0, 75, 127
2, 23148, Note_off_c, 0, 75, 64
2, 23160, Note_on_c, 0, 76, 127
2, 23208, Note_off_c, 0, 76, 64
2, 23220, Note_on_c, 0, 75, 127
2, 23268, Note_off_c, 0, 75, 64
2, 23280, Note_on_c, 0, 79, 127
2, 23328, Note_off_c, 0, 79, 64
2, 23340, Note_on_c, 0, 76, 127
2, 23388, Note_off_c, 0, 76, 64
2, 23400, Note_on_c, 0, 75, 127
2, 23448, Note_off_c, 0, 75, 64
2, 23460, Note_on_c, 0, 76, 127
2, 23508, Note_off_c, 0, 76, 64
2, 23520, Note_on_c, 0, 71, 127
2, 23568, Note_off_c, 0, 71, 64
2, 23580, Note_on_c, 0, 75, 127
2, 23628, Note_off_c, 0, 75, 64
2, 23640, Note_on_c, 0, 76, 127
2, 23688, Note_off_c, 0, 76, 64
2, 23700, Note_on_c, 0, 75, 127
2, 23748, Note_off_c, 0, 75, 64
2, 23760, Note_on_c, 0, 79, 127
2, 23808, Note_off_c, 0, 79, 64
2, 23820, Note_on_c, 0, 76, 127
2, 23868, Note_off_c, 0, 76, 64
2, 23880, Note_on_c, 0, 75, 127
2, 23928, Note_off_c, 0, 75, 64
2, 23940, Note_on_c, 0, 76, 127
2, 23988, Note_off_c, 0, 76, 64
2, 24000, Note_on_c, 0, 71, 127
2, 24048, Note_off_c, 0, 71, 64
2, 24060, Note_on_c, 0, 75, 127
2, 24108, Note_off_c, 0, 75, 64
2, 24120, Note_on_c, 0, 76, 127
2, 24168, Note_off_c, 0, 76, 64
2, 24180, Note_on_c, 0, 75, 127
2, 24228, Note_off_c, 0, 75, 64
2, 24240, Note_on_c, 0, 78, 127
2, 24288, Note_off_c, 0, 78, 64
2, 24300, Note_on_c, 0, 76, 127
2, 24348, Note_off_c, 0, 76, 64
2, 24360, Note_on_c, 0, 75, 127
2, 24408, Note_off_c, 0, 75, 64
2, 24420, Note_on_c, 0, 76, 127
2, 24468, Note_off_c, 0, 76, 64
2, 24480, Note_on_c, 0, 69, 127
2, 24528, Note_off_c, 0, 69, 64
2, 24540, Note_on_c, 0, 75, 127
2, 24588, Note_off_c, 0, 75, 64
2, 24600, Note_on_c, 0, 76, 127
2, 24648, Note_off_c, 0, 76, 64
2, 24660, Note_on_c, 0, 75, 127
2, 24708, Note_off_c, 0, 75, 64
2, 24720, Note_on_c, 0, 78, 127
2, 24768, Note_off_c, 0, 78, 64
2, 24780, Note_on_c, 0, 76, 127
2, 24828, Note_off_c, 0, 76, 64
2, 24840, Note_on_c, 0, 75, 127
2, 24888, Note_off_c, 0, 75, 64
2, 24900, Note_on_c, 0, 76, 127
2, 24948, Note_off_c, 0, 76, 64
2, 24960, Note_on_c, 0, 64, 127
2, 25056, Note_off_c, 0, 64, 64
2, 25080, Note_on_c, 0, 76, 127
2, 25272, Note_off_c, 0, 76, 64
2, 25320, Note_on_c, 0, 76, 127
2, 25536, Note_off_c, 0, 76, 64
2, 25560, Note_on_c, 0, 74, 127
2, 25608, Note_off_c, 0, 74, 64
2, 25620, Note_on_c, 0, 72, 127
2, 25668, Note_off_c, 0, 72, 64
2, 25680, Note_on_c, 0, 71, 127
2, 25728, Note_off_c, 0, 71, 64
2, 25740, Note_on_c, 0, 76, 127
2, 25788, Note_off_c, 0, 76, 64
2, 25800, Note_on_c, 0, 69, 127
2, 25848, Note_off_c, 0, 69, 64
2, 25860, Note_on_c, 0, 76, 127
2, 25908, Note_off_c, 0, 76, 64
2, 25920, Note_on_c, 0, 67, 127
2, 25968, Note_off_c, 0, 67, 64
2, 25980, Note_on_c, 0, 71, 127
2, 26028, Note_off_c, 0, 71, 64
2, 26040, Note_on_c, 0, 76, 127
2, 26136, Note_off_c, 0, 76, 64
2, 26160, Note_on_c, 0, 66, 127
2, 26256, Note_off_c, 0, 66, 64
2, 26280, Note_on_c, 0, 75, 127
2, 26376, Note_off_c, 0, 75, 64
2, 26400, Note_on_c, 0, 64, 127
2, 26448, Note_off_c, 0, 64, 64
2, 26460, Note_on_c, 0, 63, 127
2, 26508, Note_off_c, 0, 63, 64
2, 26520, Note_on_c, 0, 64, 127
2, 26568, Note_off_c, 0, 64, 64
2, 26580, Note_on_c, 0, 66, 127
2, 26628, Note_off_c, 0, 66, 64
2, 26640, Note_on_c, 0, 67, 127
2, 26688, Note_off_c, 0, 67, 64
2, 26700, Note_on_c, 0, 69, 127
2, 26748, Note_off_c, 0, 69, 64
2, 26760, Note_on_c, 0, 71, 127
2, 26808, Note_off_c, 0, 71, 64
2, 26820, Note_on_c, 0, 73, 127
2, 26868, Note_off_c, 0, 73, 64
2, 26880, Note_on_c, 0, 74, 127
2, 26928, Note_off_c, 0, 74, 64
2, 26940, Note_on_c, 0, 76, 127
2, 26988, Note_off_c, 0, 76, 64
2, 27000, Note_on_c, 0, 77, 127
2, 27048, Note_off_c, 0, 77, 64
2, 27060, Note_on_c, 0, 76, 127
2, 27108, Note_off_c, 0, 76, 64
2, 27120, Note_on_c, 0, 79, 127
2, 27168, Note_off_c, 0, 79, 64
2, 27180, Note_on_c, 0, 77, 127
2, 27228, Note_off_c, 0, 77, 64
2, 27240, Note_on_c, 0, 76, 127
2, 27288, Note_off_c, 0, 76, 64
2, 27300, Note_on_c, 0, 74, 127
2, 27348, Note_off_c, 0, 74, 64
2, 27360, Note_on_c, 0, 77, 127
2, 27408, Note_off_c, 0, 77, 64
2, 27420, Note_on_c, 0, 76, 127
2, 27468, Note_off_c, 0, 76, 64
2, 27480, Note_on_c, 0, 74, 127
2, 27528, Note_off_c, 0, 74, 64
2, 27540, Note_on_c, 0, 72, 127
2, 27588, Note_off_c, 0, 72, 64
2, 27600, Note_on_c, 0, 79, 127
2, 27936, Note_off_c, 0, 79, 64
2, 27960, Note_on_c, 0, 78, 127
2, 28008, Note_off_c, 0, 78, 64
2, 28020, Note_on_c, 0, 76, 127
2, 28068, Note_off_c, 0, 76, 64
2, 28080, Note_on_c, 0, 74, 127
2, 28128, Note_off_c, 0, 74, 64
2, 28140, Note_on_c, 0, 72, 127
2, 28188, Note_off_c, 0, 72, 64
2, 28200, Note_on_c, 0, 71, 127
2, 28248, Note_off_c, 0, 71, 64
2, 28260, Note_on_c, 0, 69, 127
2, 28308, Note_off_c, 0, 69, 64
2, 28320, Note_on_c, 0, 71, 127
2, 28416, Note_off_c, 0, 71, 64
2, 28440, Note_on_c, 0, 67, 127
2, 28536, Note_off_c, 0, 67, 64
2, 28680, Note_on_c, 0, 76, 127
2, 28728, Note_off_c, 0, 76, 64
2, 28740, Note_on_c, 0, 73, 127
2, 28788, Note_off_c, 0, 73, 64
2, 28800, Note_on_c, 0, 69, 127
2, 28896, Note_off_c, 0, 69, 64
2, 28920, Note_on_c, 0, 69, 127
2, 29016, Note_off_c, 0, 69, 64
2, 29040, Note_on_c, 0, 69, 127
2, 29136, Note_off_c, 0, 69, 64
2, 29160, Note_on_c, 0, 78, 127
2, 29208, Note_off_c, 0, 78, 64
2, 29220, Note_on_c, 0, 74, 127
2, 29268, Note_off_c, 0, 74, 64
2, 29280, Note_on_c, 0, 69, 127
2, 29376, Note_off_c, 0, 69, 64
2, 29400, Note_on_c, 0, 69, 127
2, 29496, Note_off_c, 0, 69, 64
2, 29520, Note_on_c, 0, 69, 127
2, 29616, Note_off_c, 0, 69, 64
2, 29640, Note_on_c, 0, 79, 127
2, 29688, Note_off_c, 0, 79, 64
2, 29700, Note_on_c, 0, 76, 127
2, 29748, Note_off_c, 0, 76, 64
2, 29760, Note_on_c, 0, 69, 127
2, 29856, Note_off_c, 0, 69, 64
2, 29880, Note_on_c, 0, 69, 127
2, 29976, Note_off_c, 0, 69, 64
2, 30000, Note_on_c, 0, 69, 127
2, 30096, Note_off_c, 0, 69, 64
2, 30120, Note_on_c, 0, 73, 127
2, 30168, Note_off_c, 0, 73, 64
2, 30180, Note_on_c, 0, 76, 127
2, 30228, Note_off_c, 0, 76, 64
2, 30240, Note_on_c, 0, 79, 127
2, 30336, Note_off_c, 0, 79, 64
2, 30360, Note_on_c, 0, 76, 127
2, 30408, Note_off_c, 0, 76, 64
2, 30420, Note_on_c, 0, 73, 127
2, 30468, Note_off_c, 0, 73, 64
2, 30480, Note_on_c, 0, 69, 127
2, 30576, Note_off_c, 0, 69, 64
2, 30600, Note_on_c, 0, 73, 127
2, 30648, Note_off_c, 0, 73, 64
2, 30660, Note_on_c, 0, 76, 127
2, 30708, Note_off_c, 0, 76, 64
2, 30720, Note_on_c, 0, 78, 127
2, 30816, Note_off_c, 0, 78, 64
2, 30840, Note_on_c, 0, 79, 127
2, 30936, Note_off_c, 0, 79, 64
2, 30960, Note_on_c, 0, 76, 127
2, 31056, Note_off_c, 0, 76, 64
2, 31080, Note_on_c, 0, 78, 127
2, 31176, Note_off_c, 0, 78, 64
2, 31200, Note_on_c, 0, 69, 127
2, 31296, Note_off_c, 0, 69, 64
2, 31320, Note_on_c, 0, 69, 127
2, 31416, Note_off_c, 0, 69, 64
2, 31440, Note_on_c, 0, 69, 127
2, 31536, Note_off_c, 0, 69, 64
2, 31560, Note_on_c, 0, 78, 127
2, 31656, Note_off_c, 0, 78, 64
2, 31680, Note_on_c, 0, 67, 127
2, 31776, Note_off_c, 0, 67, 64
2, 31800, Note_on_c, 0, 79, 127
2, 31896, Note_off_c, 0, 79, 64
2, 31920, Note_on_c, 0, 76, 127
2, 32016, Note_off_c, 0, 76, 64
2, 32040, Note_on_c, 0, 78, 127
2, 32136, Note_off_c, 0, 78, 64
2, 32280, Note_on_c, 0, 66, 127
2, 32328, Note_off_c, 0, 66, 64
2, 32340, Note_on_c, 0, 64, 127
2, 32388, Note_off_c, 0, 64, 64
2, 32400, Note_on_c, 0, 67, 127
2, 32448, Note_off_c, 0, 67, 64
2, 32460, Note_on_c, 0, 66, 127
2, 32508, Note_off_c, 0, 66, 64
2, 32520, Note_on_c, 0, 64, 127
2, 32568, Note_off_c, 0, 64, 64
2, 32580, Note_on_c, 0, 62, 127
2, 32628, Note_off_c, 0, 62, 64
2, 32640, Note_on_c, 0, 74, 127
2, 32736, Note_off_c, 0, 74, 64
2, 32760, Note_on_c, 0, 79, 127
2, 32856, Note_off_c, 0, 79, 64
2, 32880, Note_on_c, 0, 76, 127
2, 32976, Note_off_c, 0, 76, 64
2, 33000, Note_on_c, 0, 78, 127
2, 33096, Note_off_c, 0, 78, 64
2, 33120, Note_on_c, 0, 73, 127
2, 33216, Note_off_c, 0, 73, 64
2, 33240, Note_on_c, 0, 69, 127
2, 33336, Note_off_c, 0, 69, 64
2, 33360, Note_on_c, 0, 74, 127
2, 33648, Note_off_c, 0, 74, 64
2, 33660, Note_on_c, 0, 78, 127
2, 33708, Note_off_c, 0, 78, 64
2, 33720, Note_on_c, 0, 81, 127
2, 33816, Note_off_c, 0, 81, 64
2, 33840, Note_on_c, 0, 73, 127
2, 33888, Note_off_c, 0, 73, 64
2, 33900, Note_on_c, 0, 76, 127
2, 33948, Note_off_c, 0, 76, 64
2, 33960, Note_on_c, 0, 79, 127
2, 34056, Note_off_c, 0, 79, 64
2, 34080, Note_on_c, 0, 78, 127
2, 34176, Note_off_c, 0, 78, 64
2, 34200, Note_on_c, 0, 81, 127
2, 34248, Note_off_c, 0, 81, 64
2, 34260, Note_on_c, 0, 79, 127
2, 34308, Note_off_c, 0, 79, 64
2, 34320, Note_on_c, 0, 78, 127
2, 34368, Note_off_c, 0, 78, 64
2, 34380, Note_on_c, 0, 76, 127
2, 34428, Note_off_c, 0, 76, 64
2, 34440, Note_on_c, 0, 74, 127
2, 34488, Note_off_c, 0, 74, 64
2, 34500, Note_on_c, 0, 73, 127
2, 34548, Note_off_c, 0, 73, 64
2, 34560, Note_on_c, 0, 74, 127
2, 34752, Note_off_c, 0, 74, 64
2, 34800, Note_on_c, 0, 74, 127
2, 34992, Note_off_c, 0, 74, 64
2, 35040, Note_on_c, 0, 74, 127
2, 35136, Note_off_c, 0, 74, 64
2, 35160, Note_on_c, 0, 73, 127
2, 35208, Note_off_c, 0, 73, 64
2, 35220, Note_on_c, 0, 71, 127
2, 35268, Note_off_c, 0, 71, 64
2, 35280, Note_on_c, 0, 69, 127
2, 35328, Note_off_c, 0, 69, 64
2, 35340, Note_on_c, 0, 67, 127
2, 35388, Note_off_c, 0, 67, 64
2, 35400, Note_on_c, 0, 66, 127
2, 35448, Note_off_c, 0, 66, 64
2, 35460, Note_on_c, 0, 64, 127
2, 35508, Note_off_c, 0, 64, 64
2, 35520, Note_on_c, 0, 66, 127
2, 35568, Note_off_c, 0, 66, 64
2, 35580, Note_on_c, 0, 69, 127
2, 35628, Note_off_c, 0, 69, 64
2, 35640, Note_on_c, 0, 74, 127
2, 35736, Note_off_c, 0, 74, 64
2, 35760, Note_on_c, 0, 64, 127
2, 35856, Note_off_c, 0, 64, 64
2, 35880, Note_on_c, 0, 73, 127
2, 35976, Note_off_c, 0, 73, 64
2, 36000, Note_on_c, 0, 62, 127
2, 36096, Note_off_c, 0, 62, 64
2, 36480, Note_on_c, 0, 76, 127
2, 36672, Note_off_c, 0, 76, 64
2, 36720, Note_on_c, 0, 76, 127
2, 36912, Note_off_c, 0, 76, 64
2, 36960, Note_on_c, 0, 76, 127
2, 37056, Note_off_c, 0, 76, 64
2, 37080, Note_on_c, 0, 74, 127
2, 37128, Note_off_c, 0, 74, 64
2, 37140, Note_on_c, 0, 72, 127
2, 37188, Note_off_c, 0, 72, 64
2, 37200, Note_on_c, 0, 71, 127
2, 37248, Note_off_c, 0, 71, 64
2, 37260, Note_on_c, 0, 69, 127
2, 37308, Note_off_c, 0, 69, 64
2, 37320, Note_on_c, 0, 67, 127
2, 37368, Note_off_c, 0, 67, 64
2, 37380, Note_on_c, 0, 66, 127
2, 37428, Note_off_c, 0, 66, 64
2, 37440, Note_on_c, 0, 67, 127
2, 37488, Note_off_c, 0, 67, 64
2, 37500, Note_on_c, 0, 71, 127
2, 37548, Note_off_c, 0, 71, 64
2, 37560, Note_on_c, 0, 76, 127
2, 37656, Note_off_c, 0, 76, 64
2, 37680, Note_on_c, 0, 66, 127
2, 37776, Note_off_c, 0, 66, 64
2, 37800, Note_on_c, 0, 75, 127
2, 37896, Note_off_c, 0, 75, 64
2, 37920, Note_on_c, 0, 64, 127
2, 38016, Note_off_c, 0, 64, 64
2, 38400, Note_on_c, 0, 83, 127
2, 38592, Note_off_c, 0, 83, 64
2, 38640, Note_on_c, 0, 83, 127
2, 38832, Note_off_c, 0, 83, 64
2, 38880, Note_on_c, 0, 83, 127
2, 38976, Note_off_c, 0, 83, 64
2, 39000, Note_on_c, 0, 81, 127
2, 39048, Note_off_c, 0, 81, 64
2, 39060, Note_on_c, 0, 79, 127
2, 39108, Note_off_c, 0, 79, 64
2, 39120, Note_on_c, 0, 78, 127
2, 39168, Note_off_c, 0, 78, 64
2, 39180, Note_on_c, 0, 79, 127
2, 39228, Note_off_c, 0, 79, 64
2, 39240, Note_on_c, 0, 76, 127
2, 39288, Note_off_c, 0, 76, 64
2, 39300, Note_on_c, 0, 78, 127
2, 39348, Note_off_c, 0, 78, 64
2, 39360, Note_on_c, 0, 75, 127
2, 39408, Note_off_c, 0, 75, 64
2, 39420, Note_on_c, 0, 76, 127
2, 39468, Note_off_c, 0, 76, 64
2, 39480, Note_on_c, 0, 78, 127
2, 39528, Note_off_c, 0, 78, 64
2, 39540, Note_on_c, 0, 81, 127
2, 39588, Note_off_c, 0, 81, 64
2, 39600, Note_on_c, 0, 79, 127
2, 39648, Note_off_c, 0, 79, 64
2, 39660, Note_on_c, 0, 78, 127
2, 39708, Note_off_c, 0, 78, 64
2, 39720, Note_on_c, 0, 76, 127
2, 39768, Note_off_c, 0, 76, 64
2, 39780, Note_on_c, 0, 75, 127
2, 39828, Note_off_c, 0, 75, 64
2, 39840, Note_on_c, 0, 76, 127
2, 39888, Note_off_c, 0, 76, 64
2, 39900, Note_on_c, 0, 75, 127
2, 39948, Note_off_c, 0, 75, 64
2, 39960, Note_on_c, 0, 73, 127
2, 40008, Note_off_c, 0, 73, 64
2, 40020, Note_on_c, 0, 71, 127
2, 40068, Note_off_c, 0, 71, 64
2, 40080, Note_on_c, 0, 73, 127
2, 40128, Note_off_c, 0, 73, 64
2, 40140, Note_on_c, 0, 75, 127
2, 40188, Note_off_c, 0, 75, 64
2, 40200, Note_on_c, 0, 76, 127
2, 40248, Note_off_c, 0, 76, 64
2, 40260, Note_on_c, 0, 78, 127
2, 40308, Note_off_c, 0, 78, 64
2, 40320, Note_on_c, 0, 79, 127
2, 40416, Note_off_c, 0, 79, 64
2, 40440, Note_on_c, 0, 83, 127
2, 40536, Note_off_c, 0, 83, 64
2, 40560, Note_on_c, 0, 79, 127
2, 40656, Note_off_c, 0, 79, 64
2, 40680, Note_on_c, 0, 76, 127
2, 40776, Note_off_c, 0, 76, 64
2, 40920, Note_on_c, 0, 79, 127
2, 41016, Note_off_c, 0, 79, 64
2, 41040, Note_on_c, 0, 76, 127
2, 41136, Note_off_c, 0, 76, 64
2, 41160, Note_on_c, 0, 71, 127
2, 41256, Note_off_c, 0, 71, 64
2, 41400, Note_on_c, 0, 76, 127
2, 41496, Note_off_c, 0, 76, 64
2, 41520, Note_on_c, 0, 73, 127
2, 41616, Note_off_c, 0, 73, 64
2, 41640, Note_on_c, 0, 69, 127
2, 41736, Note_off_c, 0, 69, 64
2, 41880, Note_on_c, 0, 81, 127
2, 41976, Note_off_c, 0, 81, 64
2, 42000, Note_on_c, 0, 76, 127
2, 42096, Note_off_c, 0, 76, 64
2, 42120, Note_on_c, 0, 73, 127
2, 42216, Note_off_c, 0, 73, 64
2, 42360, Note_on_c, 0, 81, 127
2, 42456, Note_off_c, 0, 81, 64
2, 42480, Note_on_c, 0, 78, 127
2, 42576, Note_off_c, 0, 78, 64
2, 42600, Note_on_c, 0, 74, 127
2, 42696, Note_off_c, 0, 74, 64
2, 42840, Note_on_c, 0, 78, 127
2, 42936, Note_off_c, 0, 78, 64
2, 42960, Note_on_c, 0, 74, 127
2, 43056, Note_off_c, 0, 74, 64
2, 43080, Note_on_c, 0, 69, 127
2, 43176, Note_off_c, 0, 69, 64
2, 43320, Note_on_c, 0, 74, 127
2, 43416, Note_off_c, 0, 74, 64
2, 43440, Note_on_c, 0, 71, 127
2, 43536, Note_off_c, 0, 71, 64
2, 43560, Note_on_c, 0, 67, 127
2, 43656, Note_off_c, 0, 67, 64
2, 43800, Note_on_c, 0, 79, 127
2, 43896, Note_off_c, 0, 79, 64
2, 43920, Note_on_c, 0, 74, 127
2, 44016, Note_off_c, 0, 74, 64
2, 44040, Note_on_c, 0, 71, 127
2, 44136, Note_off_c, 0, 71, 64
2, 44280, Note_on_c, 0, 79, 127
2, 44376, Note_off_c, 0, 79, 64
2, 44400, Note_on_c, 0, 76, 127
2, 44496, Note_off_c, 0, 76, 64
2, 44520, Note_on_c, 0, 73, 127
2, 44616, Note_off_c, 0, 73, 64
2, 44760, Note_on_c, 0, 76, 127
2, 44856, Note_off_c, 0, 76, 64
2, 44880, Note_on_c, 0, 73, 127
2, 44976, Note_off_c, 0, 73, 64
2, 45000, Note_on_c, 0, 67, 127
2, 45096, Note_off_c, 0, 67, 64
2, 45240, Note_on_c, 0, 76, 127
2, 45336, Note_off_c, 0, 76, 64
2, 45360, Note_on_c, 0, 73, 127
2, 45456, Note_off_c, 0, 73, 64
2, 45480, Note_on_c, 0, 66, 127
2, 45576, Note_off_c, 0, 66, 64
2, 45720, Note_on_c, 0, 76, 127
2, 45816, Note_off_c, 0, 76, 64
2, 45840, Note_on_c, 0, 73, 127
2, 45936, Note_off_c, 0, 73, 64
2, 45960, Note_on_c, 0, 70, 127
2, 46056, Note_off_c, 0, 70, 64
2, 46200, Note_on_c, 0, 74, 127
2, 46296, Note_off_c, 0, 74, 64
2, 46320, Note_on_c, 0, 71, 127
2, 46416, Note_off_c, 0, 71, 64
2, 46440, Note_on_c, 0, 66, 127
2, 46536, Note_off_c, 0, 66, 64
2, 46680, Note_on_c, 0, 78, 127
2, 46776, Note_off_c, 0, 78, 64
2, 46800, Note_on_c, 0, 74, 127
2, 46896, Note_off_c, 0, 74, 64
2, 46920, Note_on_c, 0, 71, 127
2, 47016, Note_off_c, 0, 71, 64
2, 47160, Note_on_c, 0, 76, 127
2, 47256, Note_off_c, 0, 76, 64
2, 47280, Note_on_c, 0, 73, 127
2, 47376, Note_off_c, 0, 73, 64
2, 47400, Note_on_c, 0, 66, 127
2, 47496, Note_off_c, 0, 66, 64
2, 47640, Note_on_c, 0, 73, 127
2, 47736, Note_off_c, 0, 73, 64
2, 47760, Note_on_c, 0, 70, 127
2, 47856, Note_off_c, 0, 70, 64
2, 47880, Note_on_c, 0, 66, 127
2, 47976, Note_off_c, 0, 66, 64
2, 48000, Note_on_c, 0, 74, 127
2, 48048, Note_off_c, 0, 74, 64
2, 48060, Note_on_c, 0, 71, 127
2, 48108, Note_off_c, 0, 71, 64
2, 48120, Note_on_c, 0, 78, 127
2, 48288, Note_off_c, 0, 78, 64
2, 48300, Note_on_c, 0, 76, 127
2, 48348, Note_off_c, 0, 76, 64
2, 48360, Note_on_c, 0, 74, 127
2, 48408, Note_off_c, 0, 74, 64
2, 48420, Note_on_c, 0, 73, 127
2, 48468, Note_off_c, 0, 73, 64
2, 48480, Note_on_c, 0, 76, 127
2, 48528, Note_off_c, 0, 76, 64
2, 48540, Note_on_c, 0, 74, 127
2, 48588, Note_off_c, 0, 74, 64
2, 48600, Note_on_c, 0, 73, 127
2, 48648, Note_off_c, 0, 73, 64
2, 48660, Note_on_c, 0, 71, 127
2, 48708, Note_off_c, 0, 71, 64
2, 48720, Note_on_c, 0, 83, 127
2, 49056, Note_off_c, 0, 83, 64
2, 49080, Note_on_c, 0, 81, 127
2, 49128, Note_off_c, 0, 81, 64
2, 49140, Note_on_c, 0, 79, 127
2, 49188, Note_off_c, 0, 79, 64
2, 49200, Note_on_c, 0, 78, 127
2, 49248, Note_off_c, 0, 78, 64
2, 49260, Note_on_c, 0, 76, 127
2, 49308, Note_off_c, 0, 76, 64
2, 49320, Note_on_c, 0, 74, 127
2, 49368, Note_off_c, 0, 74, 64
2, 49380, Note_on_c, 0, 73, 127
2, 49428, Note_off_c, 0, 73, 64
2, 49440, Note_on_c, 0, 74, 127
2, 49536, Note_off_c, 0, 74, 64
2, 49560, Note_on_c, 0, 71, 127
2, 49656, Note_off_c, 0, 71, 64
2, 50040, Note_on_c, 0, 66, 127
2, 50088, Note_off_c, 0, 66, 64
2, 50100, Note_on_c, 0, 62, 127
2, 50148, Note_off_c, 0, 62, 64
2, 50160, Note_on_c, 0, 69, 127
2, 50208, Note_off_c, 0, 69, 64
2, 50220, Note_on_c, 0, 66, 127
2, 50268, Note_off_c, 0, 66, 64
2, 50280, Note_on_c, 0, 74, 127
2, 50496, Note_off_c, 0, 74, 64
2, 50520, Note_on_c, 0, 73, 127
2, 50568, Note_off_c, 0, 73, 64
2, 50580, Note_on_c, 0, 71, 127
2, 50628, Note_off_c, 0, 71, 64
2, 50640, Note_on_c, 0, 69, 127
2, 50688, Note_off_c, 0, 69, 64
2, 50700, Note_on_c, 0, 74, 127
2, 50748, Note_off_c, 0, 74, 64
2, 50760, Note_on_c, 0, 67, 127
2, 50808, Note_off_c, 0, 67, 64
2, 50820, Note_on_c, 0, 74, 127
2, 50868, Note_off_c, 0, 74, 64
2, 50880, Note_on_c, 0, 66, 127
2, 50928, Note_off_c, 0, 66, 64
2, 50940, Note_on_c, 0, 69, 127
2, 50988, Note_off_c, 0, 69, 64
2, 51000, Note_on_c, 0, 74, 127
2, 51096, Note_off_c, 0, 74, 64
2, 51120, Note_on_c, 0, 64, 127
2, 51216, Note_off_c, 0, 64, 64
2, 51240, Note_on_c, 0, 73, 127
2, 51336, Note_off_c, 0, 73, 64
2, 51360, Note_on_c, 0, 62, 127
2, 51408, Note_off_c, 0, 62, 64
2, 51420, Note_on_c, 0, 61, 127
2, 51468, Note_off_c, 0, 61, 64
2, 51480, Note_on_c, 0, 62, 127
2, 51528, Note_off_c, 0, 62, 64
2, 51540, Note_on_c, 0, 64, 127
2, 51588, Note_off_c, 0, 64, 64
2, 51600, Note_on_c, 0, 66, 127
2, 51648, Note_off_c, 0, 66, 64
2, 51660, Note_on_c, 0, 67, 127
2, 51708, Note_off_c, 0, 67, 64
2, 51720, Note_on_c, 0, 69, 127
2, 51768, Note_off_c, 0, 69, 64
2, 51780, Note_on_c, 0, 71, 127
2, 51828, Note_off_c, 0, 71, 64
2, 51840, Note_on_c, 0, 72, 127
2, 51936, Note_off_c, 0, 72, 64
2, 51960, Note_on_c, 0, 72, 127
2, 52056, Note_off_c, 0, 72, 64
2, 52080, Note_on_c, 0, 72, 127
2, 52176, Note_off_c, 0, 72, 64
2, 52200, Note_on_c, 0, 81, 127
2, 52248, Note_off_c, 0, 81, 64
2, 52260, Note_on_c, 0, 78, 127
2, 52308, Note_off_c, 0, 78, 64
2, 52320, Note_on_c, 0, 71, 127
2, 52416, Note_off_c, 0, 71, 64
2, 52440, Note_on_c, 0, 71, 127
2, 52536, Note_off_c, 0, 71, 64
2, 52560, Note_on_c, 0, 71, 127
2, 52656, Note_off_c, 0, 71, 64
2, 52680, Note_on_c, 0, 81, 127
2, 52728, Note_off_c, 0, 81, 64
2, 52740, Note_on_c, 0, 78, 127
2, 52788, Note_off_c, 0, 78, 64
2, 52800, Note_on_c, 0, 71, 127
2, 52896, Note_off_c, 0, 71, 64
2, 52920, Note_on_c, 0, 71, 127
2, 53016, Note_off_c, 0, 71, 64
2, 53040, Note_on_c, 0, 71, 127
2, 53136, Note_off_c, 0, 71, 64
2, 53160, Note_on_c, 0, 79, 127
2, 53208, Note_off_c, 0, 79, 64
2, 53220, Note_on_c, 0, 76, 127
2, 53268, Note_off_c, 0, 76, 64
2, 53280, Note_on_c, 0, 69, 127
2, 53376, Note_off_c, 0, 69, 64
2, 53400, Note_on_c, 0, 69, 127
2, 53496, Note_off_c, 0, 69, 64
2, 53520, Note_on_c, 0, 69, 127
2, 53616, Note_off_c, 0, 69, 64
2, 53640, Note_on_c, 0, 79, 127
2, 53688, Note_off_c, 0, 79, 64
2, 53700, Note_on_c, 0, 76, 127
2, 53748, Note_off_c, 0, 76, 64
2, 53760, Note_on_c, 0, 69, 127
2, 53856, Note_off_c, 0, 69, 64
2, 53880, Note_on_c, 0, 69, 127
2, 53976, Note_off_c, 0, 69, 64
2, 54000, Note_on_c, 0, 69, 127
2, 54096, Note_off_c, 0, 69, 64
2, 54120, Note_on_c, 0, 81, 127
2, 54168, Note_off_c, 0, 81, 64
2, 54180, Note_on_c, 0, 78, 127
2, 54228, Note_off_c, 0, 78, 64
2, 54240, Note_on_c, 0, 67, 127
2, 54336, Note_off_c, 0, 67, 64
2, 54360, Note_on_c, 0, 67, 127
2, 54456, Note_off_c, 0, 67, 64
2, 54480, Note_on_c, 0, 67, 127
2, 54576, Note_off_c, 0, 67, 64
2, 54600, Note_on_c, 0, 78, 127
2, 54648, Note_off_c, 0, 78, 64
2, 54660, Note_on_c, 0, 75, 127
2, 54708, Note_off_c, 0, 75, 64
2, 54720, Note_on_c, 0, 67, 127
2, 54816, Note_off_c, 0, 67, 64
2, 54840, Note_on_c, 0, 68, 127
2, 54936, Note_off_c, 0, 68, 64
2, 54960, Note_on_c, 0, 69, 127
2, 55056, Note_off_c, 0, 69, 64
2, 55080, Note_on_c, 0, 71, 127
2, 55176, Note_off_c, 0, 71, 64
2, 55200, Note_on_c, 0, 72, 127
2, 55296, Note_off_c, 0, 72, 64
2, 55320, Note_on_c, 0, 69, 127
2, 55416, Note_off_c, 0, 69, 64
2, 55440, Note_on_c, 0, 71, 127
2, 55536, Note_off_c, 0, 71, 64
2, 55560, Note_on_c, 0, 73, 127
2, 55656, Note_off_c, 0, 73, 64
2, 55680, Note_on_c, 0, 74, 127
2, 55776, Note_off_c, 0, 74, 64
2, 55800, Note_on_c, 0, 69, 127
2, 55896, Note_off_c, 0, 69, 64
2, 55920, Note_on_c, 0, 74, 127
2, 56256, Note_off_c, 0, 74, 64
2, 56280, Note_on_c, 0, 76, 127
2, 56328, Note_off_c, 0, 76, 64
2, 56340, Note_on_c, 0, 74, 127
2, 56388, Note_off_c, 0, 74, 64
2, 56400, Note_on_c, 0, 72, 127
2, 56448, Note_off_c, 0, 72, 64
2, 56460, Note_on_c, 0, 74, 127
2, 56508, Note_off_c, 0, 74, 64
2, 56520, Note_on_c, 0, 71, 127
2, 56568, Note_off_c, 0, 71, 64
2, 56580, Note_on_c, 0, 74, 127
2, 56628, Note_off_c, 0, 74, 64
2, 56640, Note_on_c, 0, 72, 127
2, 56736, Note_off_c, 0, 72, 64
2, 56760, Note_on_c, 0, 67, 127
2, 56856, Note_off_c, 0, 67, 64
2, 56880, Note_on_c, 0, 72, 127
2, 57216, Note_off_c, 0, 72, 64
2, 57240, Note_on_c, 0, 74, 127
2, 57288, Note_off_c, 0, 74, 64
2, 57300, Note_on_c, 0, 72, 127
2, 57348, Note_off_c, 0, 72, 64
2, 57360, Note_on_c, 0, 71, 127
2, 57408, Note_off_c, 0, 71, 64
2, 57420, Note_on_c, 0, 72, 127
2, 57468, Note_off_c, 0, 72, 64
2, 57480, Note_on_c, 0, 69, 127
2, 57528, Note_off_c, 0, 69, 64
2, 57540, Note_on_c, 0, 71, 127
2, 57588, Note_off_c, 0, 71, 64
2, 57600, Note_on_c, 0, 71, 127
2, 57696, Note_off_c, 0, 71, 64
2, 57720, Note_on_c, 0, 66, 127
2, 57816, Note_off_c, 0, 66, 64
2, 57840, Note_on_c, 0, 71, 127
2, 58176, Note_off_c, 0, 71, 64
2, 58200, Note_on_c, 0, 72, 127
2, 58248, Note_off_c, 0, 72, 64
2, 58260, Note_on_c, 0, 71, 127
2, 58308, Note_off_c, 0, 71, 64
2, 58320, Note_on_c, 0, 69, 127
2, 58368, Note_off_c, 0, 69, 64
2, 58380, Note_on_c, 0, 71, 127
2, 58428, Note_off_c, 0, 71, 64
2, 58440, Note_on_c, 0, 68, 127
2, 58488, Note_off_c, 0, 68, 64
2, 58500, Note_on_c, 0, 71, 127
2, 58548, Note_off_c, 0, 71, 64
2, 58560, Note_on_c, 0, 69, 127
2, 58656, Note_off_c, 0, 69, 64
2, 58680, Note_on_c, 0, 64, 127
2, 58776, Note_off_c, 0, 64, 64
2, 58800, Note_on_c, 0, 69, 127
2, 58896, Note_off_c, 0, 69, 64
2, 58920, Note_on_c, 0, 67, 127
2, 59016, Note_off_c, 0, 67, 64
2, 59040, Note_on_c, 0, 66, 127
2, 59616, Note_off_c, 0, 66, 64
2, 59640, Note_on_c, 0, 78, 127
2, 59736, Note_off_c, 0, 78, 64
2, 59760, Note_on_c, 0, 76, 127
2, 59856, Note_off_c, 0, 76, 64
2, 59880, Note_on_c, 0, 74, 127
2, 59976, Note_off_c, 0, 74, 64
2, 60000, Note_on_c, 0, 73, 127
2, 60048, Note_off_c, 0, 73, 64
2, 60060, Note_on_c, 0, 83, 127
2, 60108, Note_off_c, 0, 83, 64
2, 60120, Note_on_c, 0, 81, 127
2, 60168, Note_off_c, 0, 81, 64
2, 60180, Note_on_c, 0, 79, 127
2, 60228, Note_off_c, 0, 79, 64
2, 60240, Note_on_c, 0, 81, 127
2, 60288, Note_off_c, 0, 81, 64
2, 60300, Note_on_c, 0, 79, 127
2, 60348, Note_off_c, 0, 79, 64
2, 60360, Note_on_c, 0, 78, 127
2, 60408, Note_off_c, 0, 78, 64
2, 60420, Note_on_c, 0, 76, 127
2, 60468, Note_off_c, 0, 76, 64
2, 60480, Note_on_c, 0, 74, 127
2, 60672, Note_off_c, 0, 74, 64
2, 60720, Note_on_c, 0, 74, 127
2, 60912, Note_off_c, 0, 74, 64
2, 60960, Note_on_c, 0, 74, 127
2, 61056, Note_off_c, 0, 74, 64
2, 61080, Note_on_c, 0, 73, 127
2, 61128, Note_off_c, 0, 73, 64
2, 61140, Note_on_c, 0, 71, 127
2, 61188, Note_off_c, 0, 71, 64
2, 61200, Note_on_c, 0, 69, 127
2, 61248, Note_off_c, 0, 69, 64
2, 61260, Note_on_c, 0, 67, 127
2, 61308, Note_off_c, 0, 67, 64
2, 61320, Note_on_c, 0, 65, 127
2, 61368, Note_off_c, 0, 65, 64
2, 61380, Note_on_c, 0, 64, 127
2, 61428, Note_off_c, 0, 64, 64
2, 61440, Note_on_c, 0, 65, 127
2, 61488, Note_off_c, 0, 65, 64
2, 61500, Note_on_c, 0, 69, 127
2, 61548, Note_off_c, 0, 69, 64
2, 61560, Note_on_c, 0, 74, 127
2, 61656, Note_off_c, 0, 74, 64
2, 61680, Note_on_c, 0, 64, 127
2, 61776, Note_off_c, 0, 64, 64
2, 61800, Note_on_c, 0, 73, 127
2, 61896, Note_off_c, 0, 73, 64
2, 61920, Note_on_c, 0, 62, 127
2, 62016, Note_off_c, 0, 62, 64
2, 62400, Note_on_c, 0, 76, 127
2, 62592, Note_off_c, 0, 76, 64
2, 62640, Note_on_c, 0, 76, 127
2, 62832, Note_off_c, 0, 76, 64
2, 62880, Note_on_c, 0, 76, 127
2, 62976, Note_off_c, 0, 76, 64
2, 63000, Note_on_c, 0, 74, 127
2, 63048, Note_off_c, 0, 74, 64
2, 63060, Note_on_c, 0, 72, 127
2, 63108, Note_off_c, 0, 72, 64
2, 63120, Note_on_c, 0, 71, 127
2, 63168, Note_off_c, 0, 71, 64
2, 63180, Note_on_c, 0, 72, 127
2, 63228, Note_off_c, 0, 72, 64
2, 63240, Note_on_c, 0, 69, 127
2, 63288, Note_off_c, 0, 69, 64
2, 63300, Note_on_c, 0, 71, 127
2, 63348, Note_off_c, 0, 71, 64
2, 63360, Note_on_c, 0, 68, 127
2, 63408, Note_off_c, 0, 68, 64
2, 63420, Note_on_c, 0, 69, 127
2, 63468, Note_off_c, 0, 69, 64
2, 63480, Note_on_c, 0, 71, 127
2, 63528, Note_off_c, 0, 71, 64
2, 63540, Note_on_c, 0, 68, 127
2, 63588, Note_off_c, 0, 68, 64
2, 63600, Note_on_c, 0, 69, 127
2, 63648, Note_off_c, 0, 69, 64
2, 63660, Note_on_c, 0, 68, 127
2, 63708, Note_off_c, 0, 68, 64
2, 63720, Note_on_c, 0, 66, 127
2, 63768, Note_off_c, 0, 66, 64
2, 63780, Note_on_c, 0, 64, 127
2, 63828, Note_off_c, 0, 64, 64
2, 63840, Note_on_c, 0, 69, 127
2, 63936, Note_off_c, 0, 69, 64
2, 63960, Note_on_c, 0, 71, 127
2, 64008, Note_off_c, 0, 71, 64
2, 64020, Note_on_c, 0, 72, 127
2, 64068, Note_off_c, 0, 72, 64
2, 64080, Note_on_c, 0, 74, 127
2, 64128, Note_off_c, 0, 74, 64
2, 64140, Note_on_c, 0, 76, 127
2, 64188, Note_off_c, 0, 76, 64
2, 64200, Note_on_c, 0, 72, 127
2, 64248, Note_off_c, 0, 72, 64
2, 64260, Note_on_c, 0, 74, 127
2, 64308, Note_off_c, 0, 74, 64
2, 64320, Note_on_c, 0, 71, 127
2, 64368, Note_off_c, 0, 71, 64
2, 64380, Note_on_c, 0, 72, 127
2, 64428, Note_off_c, 0, 72, 64
2, 64440, Note_on_c, 0, 74, 127
2, 64488, Note_off_c, 0, 74, 64
2, 64500, Note_on_c, 0, 77, 127
2, 64548, Note_off_c, 0, 77, 64
2, 64560, Note_on_c, 0, 76, 127
2, 64608, Note_off_c, 0, 76, 64
2, 64620, Note_on_c, 0, 74, 127
2, 64668, Note_off_c, 0, 74, 64
2, 64680, Note_on_c, 0, 72, 127
2, 64728, Note_off_c, 0, 72, 64
2, 64740, Note_on_c, 0, 71, 127
2, 64788, Note_off_c, 0, 71, 64
2, 64800, Note_on_c, 0, 72, 127
2, 64848, Note_off_c, 0, 72, 64
2, 64860, Note_on_c, 0, 71, 127
2, 64908, Note_off_c, 0, 71, 64
2, 64920, Note_on_c, 0, 69, 127
2, 64968, Note_off_c, 0, 69, 64
2, 64980, Note_on_c, 0, 68, 127
2, 65028, Note_off_c, 0, 68, 64
2, 65040, Note_on_c, 0, 69, 127
2, 65088, Note_off_c, 0, 69, 64
2, 65100, Note_on_c, 0, 72, 127
2, 65148, Note_off_c, 0, 72, 64
2, 65160, Note_on_c, 0, 71, 127
2, 65208, Note_off_c, 0, 71, 64
2, 65220, Note_on_c, 0, 74, 127
2, 65268, Note_off_c, 0, 74, 64
2, 65280, Note_on_c, 0, 72, 127
2, 65328, Note_off_c, 0, 72, 64
2, 65340, Note_on_c, 0, 76, 127
2, 65388, Note_off_c, 0, 76, 64
2, 65400, Note_on_c, 0, 81, 127
2, 65448, Note_off_c, 0, 81, 64
2, 65460, Note_on_c, 0, 76, 127
2, 65508, Note_off_c, 0, 76, 64
2, 65520, Note_on_c, 0, 84, 127
2, 65568, Note_off_c, 0, 84, 64
2, 65580, Note_on_c, 0, 81, 127
2, 65628, Note_off_c, 0, 81, 64
2, 65640, Note_on_c, 0, 76, 127
2, 65688, Note_off_c, 0, 76, 64
2, 65700, Note_on_c, 0, 81, 127
2, 65748, Note_off_c, 0, 81, 64
2, 65760, Note_on_c, 0, 72, 127
2, 65808, Note_off_c, 0, 72, 64
2, 65820, Note_on_c, 0, 76, 127
2, 65868, Note_off_c, 0, 76, 64
2, 65880, Note_on_c, 0, 81, 127
2, 65928, Note_off_c, 0, 81, 64
2, 65940, Note_on_c, 0, 76, 127
2, 65988, Note_off_c, 0, 76, 64
2, 66000, Note_on_c, 0, 84, 127
2, 66048, Note_off_c, 0, 84, 64
2, 66060, Note_on_c, 0, 81, 127
2, 66108, Note_off_c, 0, 81, 64
2, 66120, Note_on_c, 0, 76, 127
2, 66168, Note_off_c, 0, 76, 64
2, 66180, Note_on_c, 0, 81, 127
2, 66228, Note_off_c, 0, 81, 64
2, 66240, Note_on_c, 0, 74, 127
2, 66288, Note_off_c, 0, 74, 64
2, 66300, Note_on_c, 0, 78, 127
2, 66348, Note_off_c, 0, 78, 64
2, 66360, Note_on_c, 0, 81, 127
2, 66408, Note_off_c, 0, 81, 64
2, 66420, Note_on_c, 0, 78, 127
2, 66468, Note_off_c, 0, 78, 64
2, 66480, Note_on_c, 0, 84, 127
2, 66528, Note_off_c, 0, 84, 64
2, 66540, Note_on_c, 0, 81, 127
2, 66588, Note_off_c, 0, 81, 64
2, 66600, Note_on_c, 0, 78, 127
2, 66648, Note_off_c, 0, 78, 64
2, 66660, Note_on_c, 0, 81, 127
2, 66708, Note_off_c, 0, 81, 64
2, 66720, Note_on_c, 0, 74, 127
2, 66768, Note_off_c, 0, 74, 64
2, 66780, Note_on_c, 0, 78, 127
2, 66828, Note_off_c, 0, 78, 64
2, 66840, Note_on_c, 0, 81, 127
2, 66888, Note_off_c, 0, 81, 64
2, 66900, Note_on_c, 0, 78, 127
2, 66948, Note_off_c, 0, 78, 64
2, 66960, Note_on_c, 0, 84, 127
2, 67008, Note_off_c, 0, 84, 64
2, 67020, Note_on_c, 0, 81, 127
2, 67068, Note_off_c, 0, 81, 64
2, 67080, Note_on_c, 0, 78, 127
2, 67128, Note_off_c, 0, 78, 64
2, 67140, Note_on_c, 0, 81, 127
2, 67188, Note_off_c, 0, 81, 64
2, 67200, Note_on_c, 0, 71, 127
2, 67248, Note_off_c, 0, 71, 64
2, 67260, Note_on_c, 0, 74, 127
2, 67308, Note_off_c, 0, 74, 64
2, 67320, Note_on_c, 0, 79, 127
2, 67368, Note_off_c, 0, 79, 64
2, 67380, Note_on_c, 0, 74, 127
2, 67428, Note_off_c, 0, 74, 64
2, 67440, Note_on_c, 0, 83, 127
2, 67488, Note_off_c, 0, 83, 64
2, 67500, Note_on_c, 0, 79, 127
2, 67548, Note_off_c, 0, 79, 64
2, 67560, Note_on_c, 0, 74, 127
2, 67608, Note_off_c, 0, 74, 64
2, 67620, Note_on_c, 0, 79, 127
2, 67668, Note_off_c, 0, 79, 64
2, 67680, Note_on_c, 0, 71, 127
2, 67728, Note_off_c, 0, 71, 64
2, 67740, Note_on_c, 0, 74, 127
2, 67788, Note_off_c, 0, 74, 64
2, 67800, Note_on_c, 0, 79, 127
2, 67848, Note_off_c, 0, 79, 64
2, 67860, Note_on_c, 0, 74, 127
2, 67908, Note_off_c, 0, 74, 64
2, 67920, Note_on_c, 0, 83, 127
2, 67968, Note_off_c, 0, 83, 64
2, 67980, Note_on_c, 0, 79, 127
2, 68028, Note_off_c, 0, 79, 64
2, 68040, Note_on_c, 0, 74, 127
2, 68088, Note_off_c, 0, 74, 64
2, 68100, Note_on_c, 0, 79, 127
2, 68148, Note_off_c, 0, 79, 64
2, 68160, Note_on_c, 0, 72, 127
2, 68208, Note_off_c, 0, 72, 64
2, 68220, Note_on_c, 0, 76, 127
2, 68268, Note_off_c, 0, 76, 64
2, 68280, Note_on_c, 0, 79, 127
2, 68328, Note_off_c, 0, 79, 64
2, 68340, Note_on_c, 0, 76, 127
2, 68388, Note_off_c, 0, 76, 64
2, 68400, Note_on_c, 0, 83, 127
2, 68448, Note_off_c, 0, 83, 64
2, 68460, Note_on_c, 0, 79, 127
2, 68508, Note_off_c, 0, 79, 64
2, 68520, Note_on_c, 0, 76, 127
2, 68568, Note_off_c, 0, 76, 64
2, 68580, Note_on_c, 0, 79, 127
2, 68628, Note_off_c, 0, 79, 64
2, 68640, Note_on_c, 0, 72, 127
2, 68688, Note_off_c, 0, 72, 64
2, 68700, Note_on_c, 0, 76, 127
2, 68748, Note_off_c, 0, 76, 64
2, 68760, Note_on_c, 0, 79, 127
2, 68808, Note_off_c, 0, 79, 64
2, 68820, Note_on_c, 0, 76, 127
2, 68868, Note_off_c, 0, 76, 64
2, 68880, Note_on_c, 0, 83, 127
2, 68928, Note_off_c, 0, 83, 64
2, 68940, Note_on_c, 0, 79, 127
2, 68988, Note_off_c, 0, 79, 64
2, 69000, Note_on_c, 0, 76, 127
2, 69048, Note_off_c, 0, 76, 64
2, 69060, Note_on_c, 0, 79, 127
2, 69108, Note_off_c, 0, 79, 64
2, 69120, Note_on_c, 0, 69, 127
2, 69168, Note_off_c, 0, 69, 64
2, 69180, Note_on_c, 0, 72, 127
2, 69228, Note_off_c, 0, 72, 64
2, 69240, Note_on_c, 0, 76, 127
2, 69288, Note_off_c, 0, 76, 64
2, 69300, Note_on_c, 0, 72, 127
2, 69348, Note_off_c, 0, 72, 64
2, 69360, Note_on_c, 0, 81, 127
2, 69408, Note_off_c, 0, 81, 64
2, 69420, Note_on_c, 0, 76, 127
2, 69468, Note_off_c, 0, 76, 64
2, 69480, Note_on_c, 0, 72, 127
2, 69528, Note_off_c, 0, 72, 64
2, 69540, Note_on_c, 0, 76, 127
2, 69588, Note_off_c, 0, 76, 64
2, 69600, Note_on_c, 0, 69, 127
2, 69648, Note_off_c, 0, 69, 64
2, 69660, Note_on_c, 0, 72, 127
2, 69708, Note_off_c, 0, 72, 64
2, 69720, Note_on_c, 0, 76, 127
2, 69768, Note_off_c, 0, 76, 64
2, 69780, Note_on_c, 0, 72, 127
2, 69828, Note_off_c, 0, 72, 64
2, 69840, Note_on_c, 0, 81, 127
2, 69888, Note_off_c, 0, 81, 64
2, 69900, Note_on_c, 0, 78, 127
2, 69948, Note_off_c, 0, 78, 64
2, 69960, Note_on_c, 0, 72, 127
2, 70008, Note_off_c, 0, 72, 64
2, 70020, Note_on_c, 0, 78, 127
2, 70068, Note_off_c, 0, 78, 64
2, 70080, Note_on_c, 0, 71, 127
2, 70128, Note_off_c, 0, 71, 64
2, 70140, Note_on_c, 0, 75, 127
2, 70188, Note_off_c, 0, 75, 64
2, 70200, Note_on_c, 0, 78, 127
2, 70248, Note_off_c, 0, 78, 64
2, 70260, Note_on_c, 0, 75, 127
2, 70308, Note_off_c, 0, 75, 64
2, 70320, Note_on_c, 0, 81, 127
2, 70368, Note_off_c, 0, 81, 64
2, 70380, Note_on_c, 0, 78, 127
2, 70428, Note_off_c, 0, 78, 64
2, 70440, Note_on_c, 0, 75, 127
2, 70488, Note_off_c, 0, 75, 64
2, 70500, Note_on_c, 0, 78, 127
2, 70548, Note_off_c, 0, 78, 64
2, 70560, Note_on_c, 0, 71, 127
2, 70608, Note_off_c, 0, 71, 64
2, 70620, Note_on_c, 0, 75, 127
2, 70668, Note_off_c, 0, 75, 64
2, 70680, Note_on_c, 0, 78, 127
2, 70728, Note_off_c, 0, 78, 64
2, 70740, Note_on_c, 0, 75, 127
2, 70788, Note_off_c, 0, 75, 64
2, 70800, Note_on_c, 0, 81, 127
2, 70848, Note_off_c, 0, 81, 64
2, 70860, Note_on_c, 0, 78, 127
2, 70908, Note_off_c, 0, 78, 64
2, 70920, Note_on_c, 0, 75, 127
2, 70968, Note_off_c, 0, 75, 64
2, 70980, Note_on_c, 0, 78, 127
2, 71028, Note_off_c, 0, 78, 64
2, 71040, Note_on_c, 0, 67, 127
2, 71088, Note_off_c, 0, 67, 64
2, 71100, Note_on_c, 0, 71, 127
2, 71148, Note_off_c, 0, 71, 64
2, 71160, Note_on_c, 0, 76, 127
2, 71208, Note_off_c, 0, 76, 64
2, 71220, Note_on_c, 0, 71, 127
2, 71268, Note_off_c, 0, 71, 64
2, 71280, Note_on_c, 0, 79, 127
2, 71328, Note_off_c, 0, 79, 64
2, 71340, Note_on_c, 0, 76, 127
2, 71388, Note_off_c, 0, 76, 64
2, 71400, Note_on_c, 0, 71, 127
2, 71448, Note_off_c, 0, 71, 64
2, 71460, Note_on_c, 0, 76, 127
2, 71508, Note_off_c, 0, 76, 64
2, 71520, Note_on_c, 0, 67, 127
2, 71568, Note_off_c, 0, 67, 64
2, 71580, Note_on_c, 0, 71, 127
2, 71628, Note_off_c, 0, 71, 64
2, 71640, Note_on_c, 0, 76, 127
2, 71688, Note_off_c, 0, 76, 64
2, 71700, Note_on_c, 0, 71, 127
2, 71748, Note_off_c, 0, 71, 64
2, 71760, Note_on_c, 0, 79, 127
2, 71808, Note_off_c, 0, 79, 64
2, 71820, Note_on_c, 0, 76, 127
2, 71868, Note_off_c, 0, 76, 64
2, 71880, Note_on_c, 0, 71, 127
2, 71928, Note_off_c, 0, 71, 64
2, 71940, Note_on_c, 0, 76, 127
2, 71988, Note_off_c, 0, 76, 64
2, 72000, Note_on_c, 0, 69, 127
2, 72048, Note_off_c, 0, 69, 64
2, 72060, Note_on_c, 0, 73, 127
2, 72108, Note_off_c, 0, 73, 64
2, 72120, Note_on_c, 0, 76, 127
2, 72168, Note_off_c, 0, 76, 64
2, 72180, Note_on_c, 0, 73, 127
2, 72228, Note_off_c, 0, 73, 64
2, 72240, Note_on_c, 0, 79, 127
2, 72288, Note_off_c, 0, 79, 64
2, 72300, Note_on_c, 0, 76, 127
2, 72348, Note_off_c, 0, 76, 64
2, 72360, Note_on_c, 0, 73, 127
2, 72408, Note_off_c, 0, 73, 64
2, 72420, Note_on_c, 0, 76, 127
2, 72468, Note_off_c, 0, 76, 64
2, 72480, Note_on_c, 0, 69, 127
2, 72528, Note_off_c, 0, 69, 64
2, 72540, Note_on_c, 0, 73, 127
2, 72588, Note_off_c, 0, 73, 64
2, 72600, Note_on_c, 0, 76, 127
2, 72648, Note_off_c, 0, 76, 64
2, 72660, Note_on_c, 0, 73, 127
2, 72708, Note_off_c, 0, 73, 64
2, 72720, Note_on_c, 0, 79, 127
2, 72768, Note_off_c, 0, 79, 64
2, 72780, Note_on_c, 0, 76, 127
2, 72828, Note_off_c, 0, 76, 64
2, 72840, Note_on_c, 0, 73, 127
2, 72888, Note_off_c, 0, 73, 64
2, 72900, Note_on_c, 0, 76, 127
2, 72948, Note_off_c, 0, 76, 64
2, 72960, Note_on_c, 0, 78, 127
2, 73008, Note_off_c, 0, 78, 64
2, 73020, Note_on_c, 0, 74, 127
2, 73068, Note_off_c, 0, 74, 64
2, 73080, Note_on_c, 0, 81, 127
2, 73248, Note_off_c, 0, 81, 64
2, 73260, Note_on_c, 0, 79, 127
2, 73308, Note_off_c, 0, 79, 64
2, 73320, Note_on_c, 0, 78, 127
2, 73368, Note_off_c, 0, 78, 64
2, 73380, Note_on_c, 0, 76, 127
2, 73428, Note_off_c, 0, 76, 64
2, 73440, Note_on_c, 0, 78, 127
2, 73488, Note_off_c, 0, 78, 64
2, 73500, Note_on_c, 0, 81, 127
2, 73548, Note_off_c, 0, 81, 64
2, 73560, Note_on_c, 0, 72, 127
2, 73728, Note_off_c, 0, 72, 64
2, 73740, Note_on_c, 0, 75, 127
2, 73788, Note_off_c, 0, 75, 64
2, 73800, Note_on_c, 0, 74, 127
2, 73848, Note_off_c, 0, 74, 64
2, 73860, Note_on_c, 0, 72, 127
2, 73908, Note_off_c, 0, 72, 64
2, 73920, Note_on_c, 0, 70, 127
2, 73968, Note_off_c, 0, 70, 64
2, 73980, Note_on_c, 0, 67, 127
2, 74028, Note_off_c, 0, 67, 64
2, 74040, Note_on_c, 0, 74, 127
2, 74208, Note_off_c, 0, 74, 64
2, 74220, Note_on_c, 0, 72, 127
2, 74268, Note_off_c, 0, 72, 64
2, 74280, Note_on_c, 0, 70, 127
2, 74328, Note_off_c, 0, 70, 64
2, 74340, Note_on_c, 0, 69, 127
2, 74388, Note_off_c, 0, 69, 64
2, 74400, Note_on_c, 0, 70, 127
2, 74448, Note_off_c, 0, 70, 64
2, 74460, Note_on_c, 0, 74, 127
2, 74508, Note_off_c, 0, 74, 64
2, 74520, Note_on_c, 0, 79, 127
2, 74688, Note_off_c, 0, 79, 64
2, 74700, Note_on_c, 0, 77, 127
2, 74748, Note_off_c, 0, 77, 64
2, 74760, Note_on_c, 0, 76, 127
2, 74808, Note_off_c, 0, 76, 64
2, 74820, Note_on_c, 0, 74, 127
2, 74868, Note_off_c, 0, 74, 64
2, 74880, Note_on_c, 0, 73, 127
2, 74928, Note_off_c, 0, 73, 64
2, 74940, Note_on_c, 0, 67, 127
2, 74988, Note_off_c, 0, 67, 64
2, 75000, Note_on_c, 0, 76, 127
2, 75168, Note_off_c, 0, 76, 64
2, 75180, Note_on_c, 0, 74, 127
2, 75228, Note_off_c, 0, 74, 64
2, 75240, Note_on_c, 0, 73, 127
2, 75288, Note_off_c, 0, 73, 64
2, 75300, Note_on_c, 0, 71, 127
2, 75348, Note_off_c, 0, 71, 64
2, 75360, Note_on_c, 0, 73, 127
2, 75408, Note_off_c, 0, 73, 64
2, 75420, Note_on_c, 0, 76, 127
2, 75468, Note_off_c, 0, 76, 64
2, 75480, Note_on_c, 0, 67, 127
2, 75648, Note_off_c, 0, 67, 64
2, 75660, Note_on_c, 0, 70, 127
2, 75708, Note_off_c, 0, 70, 64
2, 75720, Note_on_c, 0, 69, 127
2, 75768, Note_off_c, 0, 69, 64
2, 75780, Note_on_c, 0, 67, 127
2, 75828, Note_off_c, 0, 67, 64
2, 75840, Note_on_c, 0, 66, 127
2, 76128, Note_off_c, 0, 66, 64
2, 76140, Note_on_c, 0, 67, 127
2, 76188, Note_off_c, 0, 67, 64
2, 76200, Note_on_c, 0, 69, 127
2, 76248, Note_off_c, 0, 69, 64
2, 76260, Note_on_c, 0, 70, 127
2, 76308, Note_off_c, 0, 70, 64
2, 76320, Note_on_c, 0, 72, 127
2, 76368, Note_off_c, 0, 72, 64
2, 76380, Note_on_c, 0, 70, 127
2, 76428, Note_off_c, 0, 70, 64
2, 76440, Note_on_c, 0, 69, 127
2, 76488, Note_off_c, 0, 69, 64
2, 76500, Note_on_c, 0, 70, 127
2, 76548, Note_off_c, 0, 70, 64
2, 76560, Note_on_c, 0, 72, 127
2, 76608, Note_off_c, 0, 72, 64
2, 76620, Note_on_c, 0, 74, 127
2, 76668, Note_off_c, 0, 74, 64
2, 76680, Note_on_c, 0, 76, 127
2, 76728, Note_off_c, 0, 76, 64
2, 76740, Note_on_c, 0, 78, 127
2, 76788, Note_off_c, 0, 78, 64
2, 76800, Note_on_c, 0, 67, 127
2, 76992, Note_off_c, 0, 67, 64
2, 77040, Note_on_c, 0, 67, 127
2, 77232, Note_off_c, 0, 67, 64
2, 77280, Note_on_c, 0, 67, 127
2, 77376, Note_off_c, 0, 67, 64
2, 77400, Note_on_c, 0, 66, 127
2, 77448, Note_off_c, 0, 66, 64
2, 77460, Note_on_c, 0, 64, 127
2, 77508, Note_off_c, 0, 64, 64
2, 77520, Note_on_c, 0, 62, 127
2, 77616, Note_off_c, 0, 62, 64
2, 77640, Note_on_c, 0, 60, 127
2, 77736, Note_off_c, 0, 60, 64
2, 77760, Note_on_c, 0, 59, 127
2, 77856, Note_off_c, 0, 59, 64
2, 77880, Note_on_c, 0, 67, 127
2, 77976, Note_off_c, 0, 67, 64
2, 78000, Note_on_c, 0, 57, 127
2, 78096, Note_off_c, 0, 57, 64
2, 78120, Note_on_c, 0, 66, 127
2, 78216, Note_off_c, 0, 66, 64
2, 78240, Note_on_c, 0, 55, 127
2, 78336, Note_off_c, 0, 55, 64
2, 78360, Note_on_c, 0, 67, 127
2, 78408, Note_off_c, 0, 67, 64
2, 78420, Note_on_c, 0, 66, 127
2, 78468, Note_off_c, 0, 66, 64
2, 78480, Note_on_c, 0, 67, 127
2, 78528, Note_off_c, 0, 67, 64
2, 78540, Note_on_c, 0, 69, 127
2, 78588, Note_off_c, 0, 69, 64
2, 78600, Note_on_c, 0, 71, 127
2, 78648, Note_off_c, 0, 71, 64
2, 78660, Note_on_c, 0, 73, 127
2, 78708, Note_off_c, 0, 73, 64
2, 78720, Note_on_c, 0, 74, 127
2, 78912, Note_off_c, 0, 74, 64
2, 78960, Note_on_c, 0, 74, 127
2, 79152, Note_off_c, 0, 74, 64
2, 79200, Note_on_c, 0, 74, 127
2, 79296, Note_off_c, 0, 74, 64
2, 79320, Note_on_c, 0, 73, 127
2, 79368, Note_off_c, 0, 73, 64
2, 79380, Note_on_c, 0, 71, 127
2, 79428, Note_off_c, 0, 71, 64
2, 79440, Note_on_c, 0, 69, 127
2, 79488, Note_off_c, 0, 69, 64
2, 79500, Note_on_c, 0, 74, 127
2, 79548, Note_off_c, 0, 74, 64
2, 79560, Note_on_c, 0, 67, 127
2, 79608, Note_off_c, 0, 67, 64
2, 79620, Note_on_c, 0, 74, 127
2, 79668, Note_off_c, 0, 74, 64
2, 79680, Note_on_c, 0, 66, 127
2, 79728, Note_off_c, 0, 66, 64
2, 79740, Note_on_c, 0, 74, 127
2, 79788, Note_off_c, 0, 74, 64
2, 79800, Note_on_c, 0, 73, 127
2, 79848, Note_off_c, 0, 73, 64
2, 79860, Note_on_c, 0, 74, 127
2, 79908, Note_off_c, 0, 74, 64
2, 79920, Note_on_c, 0, 64, 127
2, 79968, Note_off_c, 0, 64, 64
2, 79980, Note_on_c, 0, 74, 127
2, 80028, Note_off_c, 0, 74, 64
2, 80040, Note_on_c, 0, 73, 127
2, 80088, Note_off_c, 0, 73, 64
2, 80100, Note_on_c, 0, 74, 127
2, 80148, Note_off_c, 0, 74, 64
2, 80160, Note_on_c, 0, 62, 127
2, 80352, Note_off_c, 0, 62, 64
2, 80520, Note_on_c, 0, 69, 127
2, 80568, Note_off_c, 0, 69, 64
2, 80580, Note_on_c, 0, 66, 127
2, 80628, Note_off_c, 0, 66, 64
2, 80640, Note_on_c, 0, 62, 127
2, 80736, Note_off_c, 0, 62, 64
2, 80760, Note_on_c, 0, 62, 127
2, 80856, Note_off_c, 0, 62, 64
2, 80880, Note_on_c, 0, 62, 127
2, 80976, Note_off_c, 0, 62, 64
2, 81000, Note_on_c, 0, 71, 127
2, 81048, Note_off_c, 0, 71, 64
2, 81060, Note_on_c, 0, 67, 127
2, 81108, Note_off_c, 0, 67, 64
2, 81120, Note_on_c, 0, 62, 127
2, 81216, Note_off_c, 0, 62, 64
2, 81240, Note_on_c, 0, 62, 127
2, 81336, Note_off_c, 0, 62, 64
2, 81360, Note_on_c, 0, 62, 127
2, 81456, Note_off_c, 0, 62, 64
2, 81480, Note_on_c, 0, 72, 127
2, 81528, Note_off_c, 0, 72, 64
2, 81540, Note_on_c, 0, 69, 127
2, 81588, Note_off_c, 0, 69, 64
2, 81600, Note_on_c, 0, 62, 127
2, 81696, Note_off_c, 0, 62, 64
2, 81720, Note_on_c, 0, 62, 127
2, 81816, Note_off_c, 0, 62, 64
2, 81840, Note_on_c, 0, 62, 127
2, 81936, Note_off_c, 0, 62, 64
2, 81960, Note_on_c, 0, 66, 127
2, 82008, Note_off_c, 0, 66, 64
2, 82020, Note_on_c, 0, 69, 127
2, 82068, Note_off_c, 0, 69, 64
2, 82080, Note_on_c, 0, 72, 127
2, 82176, Note_off_c, 0, 72, 64
2, 82200, Note_on_c, 0, 69, 127
2, 82248, Note_off_c, 0, 69, 64
2, 82260, Note_on_c, 0, 72, 127
2, 82308, Note_off_c, 0, 72, 64
2, 82320, Note_on_c, 0, 78, 127
2, 82416, Note_off_c, 0, 78, 64
2, 82440, Note_on_c, 0, 72, 127
2, 82488, Note_off_c, 0, 72, 64
2, 82500, Note_on_c, 0, 78, 127
2, 82548, Note_off_c, 0, 78, 64
2, 82560, Note_on_c, 0, 79, 127
2, 82656, Note_off_c, 0, 79, 64
2, 82680, Note_on_c, 0, 81, 127
2, 82776, Note_off_c, 0, 81, 64
2, 82800, Note_on_c, 0, 78, 127
2, 82896, Note_off_c, 0, 78, 64
2, 82920, Note_on_c, 0, 79, 127
2, 83016, Note_off_c, 0, 79, 64
2, 83160, Note_on_c, 0, 71, 127
2, 83208, Note_off_c, 0, 71, 64
2, 83220, Note_on_c, 0, 69, 127
2, 83268, Note_off_c, 0, 69, 64
2, 83280, Note_on_c, 0, 72, 127
2, 83328, Note_off_c, 0, 72, 64
2, 83340, Note_on_c, 0, 71, 127
2, 83388, Note_off_c, 0, 71, 64
2, 83400, Note_on_c, 0, 69, 127
2, 83448, Note_off_c, 0, 69, 64
2, 83460, Note_on_c, 0, 67, 127
2, 83508, Note_off_c, 0, 67, 64
2, 83520, Note_on_c, 0, 79, 127
2, 83633, Note_off_c, 0, 79, 64
2, 83640, Note_on_c, 0, 69, 127
2, 83736, Note_off_c, 0, 69, 64
2, 83760, Note_on_c, 0, 66, 127
2, 83856, Note_off_c, 0, 66, 64
2, 83880, Note_on_c, 0, 67, 127
2, 83976, Note_off_c, 0, 67, 64
2, 84000, Note_on_c, 0, 77, 127
2, 84096, Note_off_c, 0, 77, 64
2, 84120, Note_on_c, 0, 77, 127
2, 84216, Note_off_c, 0, 77, 64
2, 84240, Note_on_c, 0, 77, 127
2, 84336, Note_off_c, 0, 77, 64
2, 84360, Note_on_c, 0, 71, 127
2, 84456, Note_off_c, 0, 71, 64
2, 84480, Note_on_c, 0, 76, 127
2, 84576, Note_off_c, 0, 76, 64
2, 84600, Note_on_c, 0, 81, 127
2, 84696, Note_off_c, 0, 81, 64
2, 84720, Note_on_c, 0, 78, 127
2, 84816, Note_off_c, 0, 78, 64
2, 84840, Note_on_c, 0, 79, 127
2, 84936, Note_off_c, 0, 79, 64
2, 84960, Note_on_c, 0, 69, 127
2, 85056, Note_off_c, 0, 69, 64
2, 85080, Note_on_c, 0, 71, 127
2, 85128, Note_off_c, 0, 71, 64
2, 85140, Note_on_c, 0, 72, 127
2, 85188, Note_off_c, 0, 72, 64
2, 85200, Note_on_c, 0, 74, 127
2, 85296, Note_off_c, 0, 74, 64
2, 85320, Note_on_c, 0, 72, 127
2, 85416, Note_off_c, 0, 72, 64
2, 85440, Note_on_c, 0, 71, 127
2, 85632, Note_off_c, 0, 71, 64
2, 85680, Note_on_c, 0, 71, 127
2, 85692, Note_off_c, 0, 71, 64
2, 85695, Note_on_c, 0, 69, 127
2, 85707, Note_off_c, 0, 69, 64
2, 85710, Note_on_c, 0, 71, 127
2, 85722, Note_off_c, 0, 71, 64
2, 85725, Note_on_c, 0, 69, 127
2, 85737, Note_off_c, 0, 69, 64
2, 85740, Note_on_c, 0, 71, 127
2, 85755, Note_off_c, 0, 71, 64
2, 85755, Note_on_c, 0, 69, 127
2, 85770, Note_off_c, 0, 69, 64
2, 85770, Note_on_c, 0, 71, 127
2, 85785, Note_off_c, 0, 71, 64
2, 85785, Note_on_c, 0, 69, 127
2, 85800, Note_off_c, 0, 69, 64
2, 85800, Note_on_c, 0, 71, 127
2, 85815, Note_off_c, 0, 71, 64
2, 85815, Note_on_c, 0, 69, 127
2, 85830, Note_off_c, 0, 69, 64
2, 85830, Note_on_c, 0, 71, 127
2, 85845, Note_off_c, 0, 71, 64
2, 85845, Note_on_c, 0, 69, 127
2, 85860, Note_off_c, 0, 69, 64
2, 85860, Note_on_c, 0, 71, 127
2, 85872, Note_off_c, 0, 71, 64
2, 85875, Note_on_c, 0, 69, 127
2, 85887, Note_off_c, 0, 69, 64
2, 85890, Note_on_c, 0, 71, 127
2, 85902, Note_off_c, 0, 71, 64
2, 85905, Note_on_c, 0, 69, 127
2, 85917, Note_off_c, 0, 69, 64
2, 85920, Note_on_c, 0, 67, 127
2, 86304, Note_off_c, 0, 67, 64
2, 86304, End_track
3, 0, Start_track
3, 0, Title_t, "J.S. Bach, Edition Peters"
3, 0, Program_c, 1, 19
3, 0, Control_c, 1, 7, 127
3, 0, Note_on_c, 1, 67, 127
3, 192, Note_off_c, 1, 67, 64
3, 240, Note_on_c, 1, 67, 127
3, 432, Note_off_c, 1, 67, 64
3, 480, Note_on_c, 1, 67, 127
3, 576, Note_off_c, 1, 67, 64
3, 600, Note_on_c, 1, 66, 127
3, 648, Note_off_c, 1, 66, 64
3, 660, Note_on_c, 1, 64, 127
3, 708, Note_off_c, 1, 64, 64
3, 720, Note_on_c, 1, 62, 127
3, 816, Note_off_c, 1, 62, 64
3, 840, Note_on_c, 1, 60, 127
3, 936, Note_off_c, 1, 60, 64
3, 960, Note_on_c, 1, 59, 127
3, 1056, Note_off_c, 1, 59, 64
3, 1080, Note_on_c, 1, 67, 127
3, 1176, Note_off_c, 1, 67, 64
3, 1200, Note_on_c, 1, 57, 127
3, 1296, Note_off_c, 1, 57, 64
3, 1320, Note_on_c, 1, 66, 127
3, 1416, Note_off_c, 1, 66, 64
3, 1440, Note_on_c, 1, 55, 127
3, 1536, Note_off_c, 1, 55, 64
3, 1920, Note_on_c, 1, 74, 127
3, 2112, Note_off_c, 1, 74, 64
3, 2160, Note_on_c, 1, 74, 127
3, 2352, Note_off_c, 1, 74, 64
3, 2400, Note_on_c, 1, 74, 127
3, 2496, Note_off_c, 1, 74, 64
3, 2520, Note_on_c, 1, 73, 127
3, 2568, Note_off_c, 1, 73, 64
3, 2580, Note_on_c, 1, 71, 127
3, 2628, Note_off_c, 1, 71, 64
3, 2640, Note_on_c, 1, 69, 127
3, 2688, Note_off_c, 1, 69, 64
3, 2700, Note_on_c, 1, 74, 127
3, 2748, Note_off_c, 1, 74, 64
3, 2760, Note_on_c, 1, 67, 127
3, 2808, Note_off_c, 1, 67, 64
3, 2820, Note_on_c, 1, 74, 127
3, 2868, Note_off_c, 1, 74, 64
3, 2880, Note_on_c, 1, 66, 127
3, 2928, Note_off_c, 1, 66, 64
3, 2940, Note_on_c, 1, 74, 127
3, 2988, Note_off_c, 1, 74, 64
3, 3000, Note_on_c, 1, 73, 127
3, 3048, Note_off_c, 1, 73, 64
3, 3060, Note_on_c, 1, 74, 127
3, 3108, Note_off_c, 1, 74, 64
3, 3120, Note_on_c, 1, 64, 127
3, 3168, Note_off_c, 1, 64, 64
3, 3180, Note_on_c, 1, 74, 127
3, 3228, Note_off_c, 1, 74, 64
3, 3240, Note_on_c, 1, 73, 127
3, 3288, Note_off_c, 1, 73, 64
3, 3300, Note_on_c, 1, 74, 127
3, 3348, Note_off_c, 1, 74, 64
3, 3360, Note_on_c, 1, 62, 127
3, 3408, Note_off_c, 1, 62, 64
3, 3420, Note_on_c, 1, 64, 127
3, 3468, Note_off_c, 1, 64, 64
3, 3480, Note_on_c, 1, 66, 127
3, 3528, Note_off_c, 1, 66, 64
3, 3540, Note_on_c, 1, 67, 127
3, 3588, Note_off_c, 1, 67, 64
3, 3600, Note_on_c, 1, 69, 127
3, 3648, Note_off_c, 1, 69, 64
3, 3660, Note_on_c, 1, 71, 127
3, 3708, Note_off_c, 1, 71, 64
3, 3720, Note_on_c, 1, 72, 127
3, 3768, Note_off_c, 1, 72, 64
3, 3780, Note_on_c, 1, 69, 127
3, 3828, Note_off_c, 1, 69, 64
3, 3840, Note_on_c, 1, 66, 127
3, 3936, Note_off_c, 1, 66, 64
3, 3960, Note_on_c, 1, 69, 127
3, 4008, Note_off_c, 1, 69, 64
3, 4020, Note_on_c, 1, 66, 127
3, 4068, Note_off_c, 1, 66, 64
3, 4080, Note_on_c, 1, 62, 127
3, 4176, Note_off_c, 1, 62, 64
3, 4200, Note_on_c, 1, 62, 127
3, 4296, Note_off_c, 1, 62, 64
3, 4320, Note_on_c, 1, 62, 127
3, 4416, Note_off_c, 1, 62, 64
3, 4440, Note_on_c, 1, 71, 127
3, 4488, Note_off_c, 1, 71, 64
3, 4500, Note_on_c, 1, 67, 127
3, 4548, Note_off_c, 1, 67, 64
3, 4560, Note_on_c, 1, 62, 127
3, 4656, Note_off_c, 1, 62, 64
3, 4680, Note_on_c, 1, 62, 127
3, 4776, Note_off_c, 1, 62, 64
3, 4800, Note_on_c, 1, 62, 127
3, 4896, Note_off_c, 1, 62, 64
3, 4920, Note_on_c, 1, 72, 127
3, 4968, Note_off_c, 1, 72, 64
3, 4980, Note_on_c, 1, 69, 127
3, 5028, Note_off_c, 1, 69, 64
3, 5040, Note_on_c, 1, 62, 127
3, 5136, Note_off_c, 1, 62, 64
3, 5160, Note_on_c, 1, 62, 127
3, 5256, Note_off_c, 1, 62, 64
3, 5280, Note_on_c, 1, 62, 127
3, 5376, Note_off_c, 1, 62, 64
3, 5400, Note_on_c, 1, 66, 127
3, 5448, Note_off_c, 1, 66, 64
3, 5460, Note_on_c, 1, 69, 127
3, 5508, Note_off_c, 1, 69, 64
3, 5520, Note_on_c, 1, 72, 127
3, 5616, Note_off_c, 1, 72, 64
3, 5640, Note_on_c, 1, 66, 127
3, 5688, Note_off_c, 1, 66, 64
3, 5700, Note_on_c, 1, 69, 127
3, 5748, Note_off_c, 1, 69, 64
3, 5760, Note_on_c, 1, 71, 127
3, 5856, Note_off_c, 1, 71, 64
3, 5880, Note_on_c, 1, 72, 127
3, 5976, Note_off_c, 1, 72, 64
3, 6000, Note_on_c, 1, 69, 127
3, 6096, Note_off_c, 1, 69, 64
3, 6120, Note_on_c, 1, 71, 127
3, 6216, Note_off_c, 1, 71, 64
3, 6240, Note_on_c, 1, 62, 127
3, 6336, Note_off_c, 1, 62, 64
3, 6360, Note_on_c, 1, 62, 127
3, 6456, Note_off_c, 1, 62, 64
3, 6480, Note_on_c, 1, 62, 127
3, 6576, Note_off_c, 1, 62, 64
3, 6600, Note_on_c, 1, 71, 127
3, 6696, Note_off_c, 1, 71, 64
3, 6720, Note_on_c, 1, 60, 127
3, 6816, Note_off_c, 1, 60, 64
3, 6840, Note_on_c, 1, 72, 127
3, 6936, Note_off_c, 1, 72, 64
3, 6960, Note_on_c, 1, 69, 127
3, 7056, Note_off_c, 1, 69, 64
3, 7080, Note_on_c, 1, 71, 127
3, 7176, Note_off_c, 1, 71, 64
3, 7320, Note_on_c, 1, 59, 127
3, 7368, Note_off_c, 1, 59, 64
3, 7380, Note_on_c, 1, 57, 127
3, 7428, Note_off_c, 1, 57, 64
3, 7440, Note_on_c, 1, 60, 127
3, 7488, Note_off_c, 1, 60, 64
3, 7500, Note_on_c, 1, 59, 127
3, 7548, Note_off_c, 1, 59, 64
3, 7560, Note_on_c, 1, 57, 127
3, 7608, Note_off_c, 1, 57, 64
3, 7620, Note_on_c, 1, 55, 127
3, 7668, Note_off_c, 1, 55, 64
3, 7680, Note_on_c, 1, 67, 127
3, 7776, Note_off_c, 1, 67, 64
3, 7800, Note_on_c, 1, 72, 127
3, 7896, Note_off_c, 1, 72, 64
3, 7920, Note_on_c, 1, 69, 127
3, 8016, Note_off_c, 1, 69, 64
3, 8040, Note_on_c, 1, 71, 127
3, 8136, Note_off_c, 1, 71, 64
3, 8160, Note_on_c, 1, 66, 127
3, 8256, Note_off_c, 1, 66, 64
3, 8280, Note_on_c, 1, 62, 127
3, 8376, Note_off_c, 1, 62, 64
3, 8400, Note_on_c, 1, 67, 127
3, 8688, Note_off_c, 1, 67, 64
3, 8700, Note_on_c, 1, 71, 127
3, 8748, Note_off_c, 1, 71, 64
3, 8760, Note_on_c, 1, 74, 127
3, 8856, Note_off_c, 1, 74, 64
3, 8880, Note_on_c, 1, 66, 127
3, 8928, Note_off_c, 1, 66, 64
3, 8940, Note_on_c, 1, 69, 127
3, 8988, Note_off_c, 1, 69, 64
3, 9000, Note_on_c, 1, 72, 127
3, 9096, Note_off_c, 1, 72, 64
3, 9120, Note_on_c, 1, 71, 127
3, 9312, Note_off_c, 1, 71, 64
3, 9720, Note_on_c, 1, 62, 127
3, 9816, Note_off_c, 1, 62, 64
3, 9840, Note_on_c, 1, 67, 127
3, 9936, Note_off_c, 1, 67, 64
3, 9960, Note_on_c, 1, 69, 127
3, 10056, Note_off_c, 1, 69, 64
3, 10080, Note_on_c, 1, 71, 127
3, 10128, Note_off_c, 1, 71, 64
3, 10140, Note_on_c, 1, 67, 127
3, 10188, Note_off_c, 1, 67, 64
3, 10200, Note_on_c, 1, 71, 127
3, 10248, Note_off_c, 1, 71, 64
3, 10260, Note_on_c, 1, 74, 127
3, 10308, Note_off_c, 1, 74, 64
3, 10320, Note_on_c, 1, 77, 127
3, 10416, Note_off_c, 1, 77, 64
3, 10680, Note_on_c, 1, 60, 127
3, 10776, Note_off_c, 1, 60, 64
3, 10800, Note_on_c, 1, 64, 127
3, 10896, Note_off_c, 1, 64, 64
3, 10920, Note_on_c, 1, 67, 127
3, 11016, Note_off_c, 1, 67, 64
3, 11040, Note_on_c, 1, 72, 127
3, 11088, Note_off_c, 1, 72, 64
3, 11100, Note_on_c, 1, 67, 127
3, 11148, Note_off_c, 1, 67, 64
3, 11160, Note_on_c, 1, 72, 127
3, 11208, Note_off_c, 1, 72, 64
3, 11220, Note_on_c, 1, 74, 127
3, 11268, Note_off_c, 1, 74, 64
3, 11280, Note_on_c, 1, 76, 127
3, 11376, Note_off_c, 1, 76, 64
3, 11640, Note_on_c, 1, 66, 127
3, 11688, Note_off_c, 1, 66, 64
3, 11700, Note_on_c, 1, 67, 127
3, 11748, Note_off_c, 1, 67, 64
3, 11760, Note_on_c, 1, 69, 127
3, 11808, Note_off_c, 1, 69, 64
3, 11820, Note_on_c, 1, 71, 127
3, 11868, Note_off_c, 1, 71, 64
3, 11880, Note_on_c, 1, 72, 127
3, 12096, Note_off_c, 1, 72, 64
3, 12120, Note_on_c, 1, 69, 127
3, 12168, Note_off_c, 1, 69, 64
3, 12180, Note_on_c, 1, 66, 127
3, 12228, Note_off_c, 1, 66, 64
3, 12240, Note_on_c, 1, 62, 127
3, 12336, Note_off_c, 1, 62, 64
3, 12360, Note_on_c, 1, 72, 127
3, 12576, Note_off_c, 1, 72, 64
3, 12600, Note_on_c, 1, 74, 127
3, 12696, Note_off_c, 1, 74, 64
3, 12720, Note_on_c, 1, 71, 127
3, 12816, Note_off_c, 1, 71, 64
3, 12840, Note_on_c, 1, 67, 127
3, 13008, Note_off_c, 1, 67, 64
3, 13020, Note_on_c, 1, 66, 127
3, 13068, Note_off_c, 1, 66, 64
3, 13080, Note_on_c, 1, 64, 127
3, 13128, Note_off_c, 1, 64, 64
3, 13140, Note_on_c, 1, 66, 127
3, 13188, Note_off_c, 1, 66, 64
3, 13200, Note_on_c, 1, 67, 127
3, 13248, Note_off_c, 1, 67, 64
3, 13260, Note_on_c, 1, 69, 127
3, 13308, Note_off_c, 1, 69, 64
3, 13320, Note_on_c, 1, 71, 127
3, 13368, Note_off_c, 1, 71, 64
3, 13380, Note_on_c, 1, 73, 127
3, 13428, Note_off_c, 1, 73, 64
3, 13440, Note_on_c, 1, 74, 127
3, 13488, Note_off_c, 1, 74, 64
3, 13500, Note_on_c, 1, 69, 127
3, 13548, Note_off_c, 1, 69, 64
3, 13560, Note_on_c, 1, 78, 127
3, 13728, Note_off_c, 1, 78, 64
3, 13740, Note_on_c, 1, 76, 127
3, 13788, Note_off_c, 1, 76, 64
3, 13800, Note_on_c, 1, 74, 127
3, 13848, Note_off_c, 1, 74, 64
3, 13860, Note_on_c, 1, 73, 127
3, 13908, Note_off_c, 1, 73, 64
3, 13920, Note_on_c, 1, 74, 127
3, 13968, Note_off_c, 1, 74, 64
3, 13980, Note_on_c, 1, 78, 127
3, 14028, Note_off_c, 1, 78, 64
3, 14040, Note_on_c, 1, 69, 127
3, 14208, Note_off_c, 1, 69, 64
3, 14220, Note_on_c, 1, 72, 127
3, 14268, Note_off_c, 1, 72, 64
3, 14280, Note_on_c, 1, 71, 127
3, 14328, Note_off_c, 1, 71, 64
3, 14340, Note_on_c, 1, 69, 127
3, 14388, Note_off_c, 1, 69, 64
3, 14400, Note_on_c, 1, 71, 127
3, 14448, Note_off_c, 1, 71, 64
3, 14460, Note_on_c, 1, 67, 127
3, 14508, Note_off_c, 1, 67, 64
3, 14520, Note_on_c, 1, 74, 127
3, 14688, Note_off_c, 1, 74, 64
3, 14700, Note_on_c, 1, 72, 127
3, 14748, Note_off_c, 1, 72, 64
3, 14760, Note_on_c, 1, 71, 127
3, 14808, Note_off_c, 1, 71, 64
3, 14820, Note_on_c, 1, 69, 127
3, 14868, Note_off_c, 1, 69, 64
3, 14880, Note_on_c, 1, 71, 127
3, 14928, Note_off_c, 1, 71, 64
3, 14940, Note_on_c, 1, 74, 127
3, 14988, Note_off_c, 1, 74, 64
3, 15000, Note_on_c, 1, 67, 127
3, 15168, Note_off_c, 1, 67, 64
3, 15180, Note_on_c, 1, 66, 127
3, 15228, Note_off_c, 1, 66, 64
3, 15240, Note_on_c, 1, 64, 127
3, 15288, Note_off_c, 1, 64, 64
3, 15300, Note_on_c, 1, 62, 127
3, 15348, Note_off_c, 1, 62, 64
3, 15360, Note_on_c, 1, 64, 127
3, 15408, Note_off_c, 1, 64, 64
3, 15420, Note_on_c, 1, 61, 127
3, 15468, Note_off_c, 1, 61, 64
3, 15480, Note_on_c, 1, 67, 127
3, 15648, Note_off_c, 1, 67, 64
3, 15660, Note_on_c, 1, 66, 127
3, 15708, Note_off_c, 1, 66, 64
3, 15720, Note_on_c, 1, 64, 127
3, 15768, Note_off_c, 1, 64, 64
3, 15780, Note_on_c, 1, 62, 127
3, 15828, Note_off_c, 1, 62, 64
3, 15840, Note_on_c, 1, 64, 127
3, 15888, Note_off_c, 1, 64, 64
3, 15900, Note_on_c, 1, 67, 127
3, 15948, Note_off_c, 1, 67, 64
3, 15960, Note_on_c, 1, 61, 127
3, 16128, Note_off_c, 1, 61, 64
3, 16140, Note_on_c, 1, 64, 127
3, 16188, Note_off_c, 1, 64, 64
3, 16200, Note_on_c, 1, 62, 127
3, 16248, Note_off_c, 1, 62, 64
3, 16260, Note_on_c, 1, 61, 127
3, 16308, Note_off_c, 1, 61, 64
3, 16320, Note_on_c, 1, 62, 127
3, 16368, Note_off_c, 1, 62, 64
3, 16380, Note_on_c, 1, 57, 127
3, 16428, Note_off_c, 1, 57, 64
3, 16440, Note_on_c, 1, 62, 127
3, 16488, Note_off_c, 1, 62, 64
3, 16500, Note_on_c, 1, 66, 127
3, 16548, Note_off_c, 1, 66, 64
3, 16560, Note_on_c, 1, 69, 127
3, 16608, Note_off_c, 1, 69, 64
3, 16620, Note_on_c, 1, 66, 127
3, 16668, Note_off_c, 1, 66, 64
3, 16680, Note_on_c, 1, 74, 127
3, 16776, Note_off_c, 1, 74, 64
3, 16800, Note_on_c, 1, 67, 127
3, 16824, Note_off_c, 1, 67, 64
3, 16830, Note_on_c, 1, 66, 127
3, 16854, Note_off_c, 1, 66, 64
3, 16860, Note_on_c, 1, 67, 127
3, 16884, Note_off_c, 1, 67, 64
3, 16890, Note_on_c, 1, 66, 127
3, 16914, Note_off_c, 1, 66, 64
3, 16920, Note_on_c, 1, 64, 127
3, 17016, Note_off_c, 1, 64, 64
3, 17400, Note_on_c, 1, 61, 127
3, 17496, Note_off_c, 1, 61, 64
3, 17520, Note_on_c, 1, 64, 127
3, 17616, Note_off_c, 1, 64, 64
3, 17640, Note_on_c, 1, 69, 127
3, 17736, Note_off_c, 1, 69, 64
3, 17880, Note_on_c, 1, 61, 127
3, 17976, Note_off_c, 1, 61, 64
3, 18000, Note_on_c, 1, 64, 127
3, 18096, Note_off_c, 1, 64, 64
3, 18120, Note_on_c, 1, 69, 127
3, 18216, Note_off_c, 1, 69, 64
3, 18360, Note_on_c, 1, 62, 127
3, 18456, Note_off_c, 1, 62, 64
3, 18480, Note_on_c, 1, 66, 127
3, 18576, Note_off_c, 1, 66, 64
3, 18600, Note_on_c, 1, 69, 127
3, 18696, Note_off_c, 1, 69, 64
3, 18840, Note_on_c, 1, 62, 127
3, 18936, Note_off_c, 1, 62, 64
3, 18960, Note_on_c, 1, 66, 127
3, 19056, Note_off_c, 1, 66, 64
3, 19080, Note_on_c, 1, 69, 127
3, 19176, Note_off_c, 1, 69, 64
3, 19320, Note_on_c, 1, 62, 127
3, 19416, Note_off_c, 1, 62, 64
3, 19440, Note_on_c, 1, 67, 127
3, 19536, Note_off_c, 1, 67, 64
3, 19560, Note_on_c, 1, 71, 127
3, 19656, Note_off_c, 1, 71, 64
3, 19800, Note_on_c, 1, 62, 127
3, 19896, Note_off_c, 1, 62, 64
3, 19920, Note_on_c, 1, 67, 127
3, 20016, Note_off_c, 1, 67, 64
3, 20040, Note_on_c, 1, 71, 127
3, 20136, Note_off_c, 1, 71, 64
3, 20280, Note_on_c, 1, 60, 127
3, 20376, Note_off_c, 1, 60, 64
3, 20400, Note_on_c, 1, 67, 127
3, 20496, Note_off_c, 1, 67, 64
3, 20520, Note_on_c, 1, 71, 127
3, 20616, Note_off_c, 1, 71, 64
3, 20760, Note_on_c, 1, 64, 127
3, 20856, Note_off_c, 1, 64, 64
3, 20880, Note_on_c, 1, 67, 127
3, 20976, Note_off_c, 1, 67, 64
3, 21000, Note_on_c, 1, 71, 127
3, 21096, Note_off_c, 1, 71, 64
3, 21240, Note_on_c, 1, 60, 127
3, 21336, Note_off_c, 1, 60, 64
3, 21360, Note_on_c, 1, 64, 127
3, 21456, Note_off_c, 1, 64, 64
3, 21480, Note_on_c, 1, 69, 127
3, 21576, Note_off_c, 1, 69, 64
3, 21720, Note_on_c, 1, 60, 127
3, 21816, Note_off_c, 1, 60, 64
3, 21840, Note_on_c, 1, 64, 127
3, 21936, Note_off_c, 1, 64, 64
3, 21960, Note_on_c, 1, 69, 127
3, 22056, Note_off_c, 1, 69, 64
3, 22200, Note_on_c, 1, 59, 127
3, 22296, Note_off_c, 1, 59, 64
3, 22320, Note_on_c, 1, 66, 127
3, 22416, Note_off_c, 1, 66, 64
3, 22440, Note_on_c, 1, 69, 127
3, 22536, Note_off_c, 1, 69, 64
3, 22680, Note_on_c, 1, 63, 127
3, 22776, Note_off_c, 1, 63, 64
3, 22800, Note_on_c, 1, 66, 127
3, 22896, Note_off_c, 1, 66, 64
3, 22920, Note_on_c, 1, 71, 127
3, 23016, Note_off_c, 1, 71, 64
3, 23160, Note_on_c, 1, 59, 127
3, 23256, Note_off_c, 1, 59, 64
3, 23280, Note_on_c, 1, 64, 127
3, 23376, Note_off_c, 1, 64, 64
3, 23400, Note_on_c, 1, 67, 127
3, 23496, Note_off_c, 1, 67, 64
3, 23640, Note_on_c, 1, 59, 127
3, 23736, Note_off_c, 1, 59, 64
3, 23760, Note_on_c, 1, 64, 127
3, 23856, Note_off_c, 1, 64, 64
3, 23880, Note_on_c, 1, 67, 127
3, 23976, Note_off_c, 1, 67, 64
3, 24120, Note_on_c, 1, 66, 127
3, 24216, Note_off_c, 1, 66, 64
3, 24240, Note_on_c, 1, 69, 127
3, 24336, Note_off_c, 1, 69, 64
3, 24360, Note_on_c, 1, 72, 127
3, 24456, Note_off_c, 1, 72, 64
3, 24600, Note_on_c, 1, 71, 127
3, 24696, Note_off_c, 1, 71, 64
3, 24720, Note_on_c, 1, 69, 127
3, 24816, Note_off_c, 1, 69, 64
3, 24840, Note_on_c, 1, 66, 127
3, 24936, Note_off_c, 1, 66, 64
3, 24960, Note_on_c, 1, 67, 127
3, 25008, Note_off_c, 1, 67, 64
3, 25020, Note_on_c, 1, 69, 127
3, 25068, Note_off_c, 1, 69, 64
3, 25080, Note_on_c, 1, 71, 127
3, 25128, Note_off_c, 1, 71, 64
3, 25140, Note_on_c, 1, 69, 127
3, 25188, Note_off_c, 1, 69, 64
3, 25200, Note_on_c, 1, 72, 127
3, 25248, Note_off_c, 1, 72, 64
3, 25260, Note_on_c, 1, 71, 127
3, 25308, Note_off_c, 1, 71, 64
3, 25320, Note_on_c, 1, 69, 127
3, 25368, Note_off_c, 1, 69, 64
3, 25380, Note_on_c, 1, 68, 127
3, 25428, Note_off_c, 1, 68, 64
3, 25440, Note_on_c, 1, 69, 127
3, 25488, Note_off_c, 1, 69, 64
3, 25500, Note_on_c, 1, 67, 127
3, 25548, Note_off_c, 1, 67, 64
3, 25560, Note_on_c, 1, 66, 127
3, 25608, Note_off_c, 1, 66, 64
3, 25620, Note_on_c, 1, 64, 127
3, 25668, Note_off_c, 1, 64, 64
3, 25680, Note_on_c, 1, 76, 127
3, 26016, Note_off_c, 1, 76, 64
3, 26040, Note_on_c, 1, 74, 127
3, 26088, Note_off_c, 1, 74, 64
3, 26100, Note_on_c, 1, 72, 127
3, 26148, Note_off_c, 1, 72, 64
3, 26160, Note_on_c, 1, 71, 127
3, 26208, Note_off_c, 1, 71, 64
3, 26220, Note_on_c, 1, 69, 127
3, 26268, Note_off_c, 1, 69, 64
3, 26280, Note_on_c, 1, 67, 127
3, 26328, Note_off_c, 1, 67, 64
3, 26340, Note_on_c, 1, 66, 127
3, 26388, Note_off_c, 1, 66, 64
3, 26400, Note_on_c, 1, 67, 127
3, 26496, Note_off_c, 1, 67, 64
3, 26520, Note_on_c, 1, 64, 127
3, 26616, Note_off_c, 1, 64, 64
3, 27000, Note_on_c, 1, 67, 127
3, 27192, Note_off_c, 1, 67, 64
3, 27240, Note_on_c, 1, 67, 127
3, 27456, Note_off_c, 1, 67, 64
3, 27480, Note_on_c, 1, 66, 127
3, 27528, Note_off_c, 1, 66, 64
3, 27540, Note_on_c, 1, 64, 127
3, 27588, Note_off_c, 1, 64, 64
3, 27600, Note_on_c, 1, 62, 127
3, 27648, Note_off_c, 1, 62, 64
3, 27660, Note_on_c, 1, 67, 127
3, 27708, Note_off_c, 1, 67, 64
3, 27720, Note_on_c, 1, 60, 127
3, 27768, Note_off_c, 1, 60, 64
3, 27780, Note_on_c, 1, 67, 127
3, 27828, Note_off_c, 1, 67, 64
3, 27840, Note_on_c, 1, 59, 127
3, 27888, Note_off_c, 1, 59, 64
3, 27900, Note_on_c, 1, 62, 127
3, 27948, Note_off_c, 1, 62, 64
3, 27960, Note_on_c, 1, 67, 127
3, 28056, Note_off_c, 1, 67, 64
3, 28080, Note_on_c, 1, 57, 127
3, 28176, Note_off_c, 1, 57, 64
3, 28200, Note_on_c, 1, 66, 127
3, 28296, Note_off_c, 1, 66, 64
3, 28320, Note_on_c, 1, 55, 127
3, 28368, Note_off_c, 1, 55, 64
3, 28380, Note_on_c, 1, 59, 127
3, 28428, Note_off_c, 1, 59, 64
3, 28440, Note_on_c, 1, 61, 127
3, 28488, Note_off_c, 1, 61, 64
3, 28500, Note_on_c, 1, 63, 127
3, 28548, Note_off_c, 1, 63, 64
3, 28560, Note_on_c, 1, 64, 127
3, 28608, Note_off_c, 1, 64, 64
3, 28620, Note_on_c, 1, 66, 127
3, 28668, Note_off_c, 1, 66, 64
3, 28680, Note_on_c, 1, 67, 127
3, 28776, Note_off_c, 1, 67, 64
3, 28800, Note_on_c, 1, 67, 127
3, 28896, Note_off_c, 1, 67, 64
3, 28920, Note_on_c, 1, 64, 127
3, 28968, Note_off_c, 1, 64, 64
3, 28980, Note_on_c, 1, 61, 127
3, 29028, Note_off_c, 1, 61, 64
3, 29040, Note_on_c, 1, 57, 127
3, 29136, Note_off_c, 1, 57, 64
3, 29160, Note_on_c, 1, 57, 127
3, 29256, Note_off_c, 1, 57, 64
3, 29280, Note_on_c, 1, 57, 127
3, 29376, Note_off_c, 1, 57, 64
3, 29400, Note_on_c, 1, 66, 127
3, 29448, Note_off_c, 1, 66, 64
3, 29460, Note_on_c, 1, 62, 127
3, 29508, Note_off_c, 1, 62, 64
3, 29520, Note_on_c, 1, 57, 127
3, 29616, Note_off_c, 1, 57, 64
3, 29640, Note_on_c, 1, 57, 127
3, 29736, Note_off_c, 1, 57, 64
3, 29760, Note_on_c, 1, 57, 127
3, 29856, Note_off_c, 1, 57, 64
3, 29880, Note_on_c, 1, 67, 127
3, 29928, Note_off_c, 1, 67, 64
3, 29940, Note_on_c, 1, 64, 127
3, 29988, Note_off_c, 1, 64, 64
3, 30000, Note_on_c, 1, 57, 127
3, 30096, Note_off_c, 1, 57, 64
3, 30120, Note_on_c, 1, 57, 127
3, 30216, Note_off_c, 1, 57, 64
3, 30240, Note_on_c, 1, 57, 127
3, 30336, Note_off_c, 1, 57, 64
3, 30360, Note_on_c, 1, 61, 127
3, 30408, Note_off_c, 1, 61, 64
3, 30420, Note_on_c, 1, 64, 127
3, 30468, Note_off_c, 1, 64, 64
3, 30480, Note_on_c, 1, 67, 127
3, 30576, Note_off_c, 1, 67, 64
3, 30600, Note_on_c, 1, 64, 127
3, 30648, Note_off_c, 1, 64, 64
3, 30660, Note_on_c, 1, 61, 127
3, 30708, Note_off_c, 1, 61, 64
3, 30720, Note_on_c, 1, 57, 127
3, 30816, Note_off_c, 1, 57, 64
3, 30840, Note_on_c, 1, 64, 127
3, 30936, Note_off_c, 1, 64, 64
3, 30960, Note_on_c, 1, 61, 127
3, 31056, Note_off_c, 1, 61, 64
3, 31080, Note_on_c, 1, 62, 127
3, 31176, Note_off_c, 1, 62, 64
3, 31320, Note_on_c, 1, 66, 127
3, 31368, Note_off_c, 1, 66, 64
3, 31380, Note_on_c, 1, 64, 127
3, 31428, Note_off_c, 1, 64, 64
3, 31440, Note_on_c, 1, 67, 127
3, 31488, Note_off_c, 1, 67, 64
3, 31500, Note_on_c, 1, 66, 127
3, 31548, Note_off_c, 1, 66, 64
3, 31560, Note_on_c, 1, 64, 127
3, 31608, Note_off_c, 1, 64, 64
3, 31620, Note_on_c, 1, 62, 127
3, 31668, Note_off_c, 1, 62, 64
3, 31680, Note_on_c, 1, 62, 127
3, 31776, Note_off_c, 1, 62, 64
3, 31800, Note_on_c, 1, 64, 127
3, 31896, Note_off_c, 1, 64, 64
3, 31920, Note_on_c, 1, 61, 127
3, 32016, Note_off_c, 1, 61, 64
3, 32040, Note_on_c, 1, 62, 127
3, 32136, Note_off_c, 1, 62, 64
3, 32160, Note_on_c, 1, 60, 127
3, 32256, Note_off_c, 1, 60, 64
3, 32280, Note_on_c, 1, 60, 127
3, 32376, Note_off_c, 1, 60, 64
3, 32400, Note_on_c, 1, 60, 127
3, 32496, Note_off_c, 1, 60, 64
3, 32520, Note_on_c, 1, 66, 127
3, 32616, Note_off_c, 1, 66, 64
3, 32640, Note_on_c, 1, 59, 127
3, 32736, Note_off_c, 1, 59, 64
3, 32760, Note_on_c, 1, 64, 127
3, 32856, Note_off_c, 1, 64, 64
3, 32880, Note_on_c, 1, 61, 127
3, 32976, Note_off_c, 1, 61, 64
3, 33000, Note_on_c, 1, 62, 127
3, 33096, Note_off_c, 1, 62, 64
3, 33120, Note_on_c, 1, 64, 127
3, 33216, Note_off_c, 1, 64, 64
3, 33240, Note_on_c, 1, 66, 127
3, 33288, Note_off_c, 1, 66, 64
3, 33300, Note_on_c, 1, 67, 127
3, 33348, Note_off_c, 1, 67, 64
3, 33360, Note_on_c, 1, 69, 127
3, 33456, Note_off_c, 1, 69, 64
3, 33480, Note_on_c, 1, 67, 127
3, 33576, Note_off_c, 1, 67, 64
3, 33600, Note_on_c, 1, 66, 127
3, 33792, Note_off_c, 1, 66, 64
3, 33840, Note_on_c, 1, 64, 127
3, 34032, Note_off_c, 1, 64, 64
3, 34080, Note_on_c, 1, 62, 127
3, 34272, Note_off_c, 1, 62, 64
3, 35520, Note_on_c, 1, 69, 127
3, 35712, Note_off_c, 1, 69, 64
3, 35760, Note_on_c, 1, 69, 127
3, 35952, Note_off_c, 1, 69, 64
3, 36000, Note_on_c, 1, 69, 127
3, 36096, Note_off_c, 1, 69, 64
3, 36120, Note_on_c, 1, 67, 127
3, 36168, Note_off_c, 1, 67, 64
3, 36180, Note_on_c, 1, 65, 127
3, 36228, Note_off_c, 1, 65, 64
3, 36240, Note_on_c, 1, 64, 127
3, 36288, Note_off_c, 1, 64, 64
3, 36300, Note_on_c, 1, 62, 127
3, 36348, Note_off_c, 1, 62, 64
3, 36360, Note_on_c, 1, 60, 127
3, 36408, Note_off_c, 1, 60, 64
3, 36420, Note_on_c, 1, 59, 127
3, 36468, Note_off_c, 1, 59, 64
3, 36480, Note_on_c, 1, 60, 127
3, 36528, Note_off_c, 1, 60, 64
3, 36540, Note_on_c, 1, 64, 127
3, 36588, Note_off_c, 1, 64, 64
3, 36600, Note_on_c, 1, 69, 127
3, 36696, Note_off_c, 1, 69, 64
3, 36720, Note_on_c, 1, 59, 127
3, 36816, Note_off_c, 1, 59, 64
3, 36840, Note_on_c, 1, 68, 127
3, 36936, Note_off_c, 1, 68, 64
3, 36960, Note_on_c, 1, 57, 127
3, 37056, Note_off_c, 1, 57, 64
3, 37440, Note_on_c, 1, 71, 127
3, 37632, Note_off_c, 1, 71, 64
3, 37680, Note_on_c, 1, 71, 127
3, 37872, Note_off_c, 1, 71, 64
3, 37920, Note_on_c, 1, 71, 127
3, 38016, Note_off_c, 1, 71, 64
3, 38040, Note_on_c, 1, 69, 127
3, 38088, Note_off_c, 1, 69, 64
3, 38100, Note_on_c, 1, 67, 127
3, 38148, Note_off_c, 1, 67, 64
3, 38160, Note_on_c, 1, 66, 127
3, 38208, Note_off_c, 1, 66, 64
3, 38220, Note_on_c, 1, 67, 127
3, 38268, Note_off_c, 1, 67, 64
3, 38280, Note_on_c, 1, 64, 127
3, 38328, Note_off_c, 1, 64, 64
3, 38340, Note_on_c, 1, 66, 127
3, 38388, Note_off_c, 1, 66, 64
3, 38400, Note_on_c, 1, 63, 127
3, 38448, Note_off_c, 1, 63, 64
3, 38460, Note_on_c, 1, 64, 127
3, 38508, Note_off_c, 1, 64, 64
3, 38520, Note_on_c, 1, 66, 127
3, 38568, Note_off_c, 1, 66, 64
3, 38580, Note_on_c, 1, 63, 127
3, 38628, Note_off_c, 1, 63, 64
3, 38640, Note_on_c, 1, 64, 127
3, 38688, Note_off_c, 1, 64, 64
3, 38700, Note_on_c, 1, 63, 127
3, 38748, Note_off_c, 1, 63, 64
3, 38760, Note_on_c, 1, 61, 127
3, 38808, Note_off_c, 1, 61, 64
3, 38820, Note_on_c, 1, 59, 127
3, 38868, Note_off_c, 1, 59, 64
3, 38880, Note_on_c, 1, 64, 127
3, 38976, Note_off_c, 1, 64, 64
3, 39000, Note_on_c, 1, 66, 127
3, 39048, Note_off_c, 1, 66, 64
3, 39060, Note_on_c, 1, 67, 127
3, 39108, Note_off_c, 1, 67, 64
3, 39120, Note_on_c, 1, 69, 127
3, 39168, Note_off_c, 1, 69, 64
3, 39180, Note_on_c, 1, 71, 127
3, 39228, Note_off_c, 1, 71, 64
3, 39240, Note_on_c, 1, 67, 127
3, 39288, Note_off_c, 1, 67, 64
3, 39300, Note_on_c, 1, 69, 127
3, 39348, Note_off_c, 1, 69, 64
3, 39360, Note_on_c, 1, 66, 127
3, 39408, Note_off_c, 1, 66, 64
3, 39420, Note_on_c, 1, 67, 127
3, 39468, Note_off_c, 1, 67, 64
3, 39480, Note_on_c, 1, 69, 127
3, 39528, Note_off_c, 1, 69, 64
3, 39540, Note_on_c, 1, 72, 127
3, 39588, Note_off_c, 1, 72, 64
3, 39600, Note_on_c, 1, 71, 127
3, 39648, Note_off_c, 1, 71, 64
3, 39660, Note_on_c, 1, 69, 127
3, 39708, Note_off_c, 1, 69, 64
3, 39720, Note_on_c, 1, 67, 127
3, 39768, Note_off_c, 1, 67, 64
3, 39780, Note_on_c, 1, 66, 127
3, 39828, Note_off_c, 1, 66, 64
3, 39840, Note_on_c, 1, 67, 127
3, 39888, Note_off_c, 1, 67, 64
3, 39900, Note_on_c, 1, 66, 127
3, 39948, Note_off_c, 1, 66, 64
3, 39960, Note_on_c, 1, 64, 127
3, 40008, Note_off_c, 1, 64, 64
3, 40020, Note_on_c, 1, 63, 127
3, 40068, Note_off_c, 1, 63, 64
3, 40080, Note_on_c, 1, 64, 127
3, 40128, Note_off_c, 1, 64, 64
3, 40140, Note_on_c, 1, 66, 127
3, 40188, Note_off_c, 1, 66, 64
3, 40200, Note_on_c, 1, 67, 127
3, 40248, Note_off_c, 1, 67, 64
3, 40260, Note_on_c, 1, 69, 127
3, 40308, Note_off_c, 1, 69, 64
3, 40320, Note_on_c, 1, 71, 127
3, 40368, Note_off_c, 1, 71, 64
3, 40380, Note_on_c, 1, 67, 127
3, 40428, Note_off_c, 1, 67, 64
3, 40440, Note_on_c, 1, 64, 127
3, 40488, Note_off_c, 1, 64, 64
3, 40500, Note_on_c, 1, 67, 127
3, 40548, Note_off_c, 1, 67, 64
3, 40560, Note_on_c, 1, 59, 127
3, 40608, Note_off_c, 1, 59, 64
3, 40620, Note_on_c, 1, 64, 127
3, 40668, Note_off_c, 1, 64, 64
3, 40680, Note_on_c, 1, 67, 127
3, 40728, Note_off_c, 1, 67, 64
3, 40740, Note_on_c, 1, 64, 127
3, 40788, Note_off_c, 1, 64, 64
3, 40800, Note_on_c, 1, 71, 127
3, 40848, Note_off_c, 1, 71, 64
3, 40860, Note_on_c, 1, 67, 127
3, 40908, Note_off_c, 1, 67, 64
3, 40920, Note_on_c, 1, 64, 127
3, 40968, Note_off_c, 1, 64, 64
3, 40980, Note_on_c, 1, 67, 127
3, 41028, Note_off_c, 1, 67, 64
3, 41040, Note_on_c, 1, 59, 127
3, 41088, Note_off_c, 1, 59, 64
3, 41100, Note_on_c, 1, 64, 127
3, 41148, Note_off_c, 1, 64, 64
3, 41160, Note_on_c, 1, 67, 127
3, 41208, Note_off_c, 1, 67, 64
3, 41220, Note_on_c, 1, 64, 127
3, 41268, Note_off_c, 1, 64, 64
3, 41280, Note_on_c, 1, 69, 127
3, 41328, Note_off_c, 1, 69, 64
3, 41340, Note_on_c, 1, 64, 127
3, 41388, Note_off_c, 1, 64, 64
3, 41400, Note_on_c, 1, 61, 127
3, 41448, Note_off_c, 1, 61, 64
3, 41460, Note_on_c, 1, 64, 127
3, 41508, Note_off_c, 1, 64, 64
3, 41520, Note_on_c, 1, 57, 127
3, 41568, Note_off_c, 1, 57, 64
3, 41580, Note_on_c, 1, 61, 127
3, 41628, Note_off_c, 1, 61, 64
3, 41640, Note_on_c, 1, 64, 127
3, 41688, Note_off_c, 1, 64, 64
3, 41700, Note_on_c, 1, 61, 127
3, 41748, Note_off_c, 1, 61, 64
3, 41760, Note_on_c, 1, 69, 127
3, 41808, Note_off_c, 1, 69, 64
3, 41820, Note_on_c, 1, 64, 127
3, 41868, Note_off_c, 1, 64, 64
3, 41880, Note_on_c, 1, 61, 127
3, 41928, Note_off_c, 1, 61, 64
3, 41940, Note_on_c, 1, 64, 127
3, 41988, Note_off_c, 1, 64, 64
3, 42000, Note_on_c, 1, 57, 127
3, 42048, Note_off_c, 1, 57, 64
3, 42060, Note_on_c, 1, 61, 127
3, 42108, Note_off_c, 1, 61, 64
3, 42120, Note_on_c, 1, 64, 127
3, 42168, Note_off_c, 1, 64, 64
3, 42180, Note_on_c, 1, 61, 127
3, 42228, Note_off_c, 1, 61, 64
3, 42240, Note_on_c, 1, 69, 127
3, 42288, Note_off_c, 1, 69, 64
3, 42300, Note_on_c, 1, 66, 127
3, 42348, Note_off_c, 1, 66, 64
3, 42360, Note_on_c, 1, 62, 127
3, 42408, Note_off_c, 1, 62, 64
3, 42420, Note_on_c, 1, 66, 127
3, 42468, Note_off_c, 1, 66, 64
3, 42480, Note_on_c, 1, 57, 127
3, 42528, Note_off_c, 1, 57, 64
3, 42540, Note_on_c, 1, 62, 127
3, 42588, Note_off_c, 1, 62, 64
3, 42600, Note_on_c, 1, 66, 127
3, 42648, Note_off_c, 1, 66, 64
3, 42660, Note_on_c, 1, 62, 127
3, 42708, Note_off_c, 1, 62, 64
3, 42720, Note_on_c, 1, 69, 127
3, 42768, Note_off_c, 1, 69, 64
3, 42780, Note_on_c, 1, 66, 127
3, 42828, Note_off_c, 1, 66, 64
3, 42840, Note_on_c, 1, 62, 127
3, 42888, Note_off_c, 1, 62, 64
3, 42900, Note_on_c, 1, 66, 127
3, 42948, Note_off_c, 1, 66, 64
3, 42960, Note_on_c, 1, 57, 127
3, 43008, Note_off_c, 1, 57, 64
3, 43020, Note_on_c, 1, 62, 127
3, 43068, Note_off_c, 1, 62, 64
3, 43080, Note_on_c, 1, 66, 127
3, 43128, Note_off_c, 1, 66, 64
3, 43140, Note_on_c, 1, 62, 127
3, 43188, Note_off_c, 1, 62, 64
3, 43200, Note_on_c, 1, 67, 127
3, 43248, Note_off_c, 1, 67, 64
3, 43260, Note_on_c, 1, 62, 127
3, 43308, Note_off_c, 1, 62, 64
3, 43320, Note_on_c, 1, 59, 127
3, 43368, Note_off_c, 1, 59, 64
3, 43380, Note_on_c, 1, 62, 127
3, 43428, Note_off_c, 1, 62, 64
3, 43440, Note_on_c, 1, 55, 127
3, 43488, Note_off_c, 1, 55, 64
3, 43500, Note_on_c, 1, 59, 127
3, 43548, Note_off_c, 1, 59, 64
3, 43560, Note_on_c, 1, 62, 127
3, 43608, Note_off_c, 1, 62, 64
3, 43620, Note_on_c, 1, 59, 127
3, 43668, Note_off_c, 1, 59, 64
3, 43680, Note_on_c, 1, 67, 127
3, 43728, Note_off_c, 1, 67, 64
3, 43740, Note_on_c, 1, 62, 127
3, 43788, Note_off_c, 1, 62, 64
3, 43800, Note_on_c, 1, 59, 127
3, 43848, Note_off_c, 1, 59, 64
3, 43860, Note_on_c, 1, 62, 127
3, 43908, Note_off_c, 1, 62, 64
3, 43920, Note_on_c, 1, 55, 127
3, 43968, Note_off_c, 1, 55, 64
3, 43980, Note_on_c, 1, 59, 127
3, 44028, Note_off_c, 1, 59, 64
3, 44040, Note_on_c, 1, 62, 127
3, 44088, Note_off_c, 1, 62, 64
3, 44100, Note_on_c, 1, 59, 127
3, 44148, Note_off_c, 1, 59, 64
3, 44160, Note_on_c, 1, 67, 127
3, 44208, Note_off_c, 1, 67, 64
3, 44220, Note_on_c, 1, 64, 127
3, 44268, Note_off_c, 1, 64, 64
3, 44280, Note_on_c, 1, 59, 127
3, 44328, Note_off_c, 1, 59, 64
3, 44340, Note_on_c, 1, 64, 127
3, 44388, Note_off_c, 1, 64, 64
3, 44400, Note_on_c, 1, 55, 127
3, 44448, Note_off_c, 1, 55, 64
3, 44460, Note_on_c, 1, 59, 127
3, 44508, Note_off_c, 1, 59, 64
3, 44520, Note_on_c, 1, 64, 127
3, 44568, Note_off_c, 1, 64, 64
3, 44580, Note_on_c, 1, 59, 127
3, 44628, Note_off_c, 1, 59, 64
3, 44640, Note_on_c, 1, 67, 127
3, 44688, Note_off_c, 1, 67, 64
3, 44700, Note_on_c, 1, 64, 127
3, 44748, Note_off_c, 1, 64, 64
3, 44760, Note_on_c, 1, 61, 127
3, 44808, Note_off_c, 1, 61, 64
3, 44820, Note_on_c, 1, 64, 127
3, 44868, Note_off_c, 1, 64, 64
3, 44880, Note_on_c, 1, 55, 127
3, 44928, Note_off_c, 1, 55, 64
3, 44940, Note_on_c, 1, 61, 127
3, 44988, Note_off_c, 1, 61, 64
3, 45000, Note_on_c, 1, 64, 127
3, 45048, Note_off_c, 1, 64, 64
3, 45060, Note_on_c, 1, 61, 127
3, 45108, Note_off_c, 1, 61, 64
3, 45120, Note_on_c, 1, 66, 127
3, 45168, Note_off_c, 1, 66, 64
3, 45180, Note_on_c, 1, 64, 127
3, 45228, Note_off_c, 1, 64, 64
3, 45240, Note_on_c, 1, 61, 127
3, 45288, Note_off_c, 1, 61, 64
3, 45300, Note_on_c, 1, 64, 127
3, 45348, Note_off_c, 1, 64, 64
3, 45360, Note_on_c, 1, 58, 127
3, 45408, Note_off_c, 1, 58, 64
3, 45420, Note_on_c, 1, 61, 127
3, 45468, Note_off_c, 1, 61, 64
3, 45480, Note_on_c, 1, 64, 127
3, 45528, Note_off_c, 1, 64, 64
3, 45540, Note_on_c, 1, 61, 127
3, 45588, Note_off_c, 1, 61, 64
3, 45600, Note_on_c, 1, 66, 127
3, 45648, Note_off_c, 1, 66, 64
3, 45660, Note_on_c, 1, 64, 127
3, 45708, Note_off_c, 1, 64, 64
3, 45720, Note_on_c, 1, 61, 127
3, 45768, Note_off_c, 1, 61, 64
3, 45780, Note_on_c, 1, 64, 127
3, 45828, Note_off_c, 1, 64, 64
3, 45840, Note_on_c, 1, 58, 127
3, 45888, Note_off_c, 1, 58, 64
3, 45900, Note_on_c, 1, 61, 127
3, 45948, Note_off_c, 1, 61, 64
3, 45960, Note_on_c, 1, 64, 127
3, 46008, Note_off_c, 1, 64, 64
3, 46020, Note_on_c, 1, 61, 127
3, 46068, Note_off_c, 1, 61, 64
3, 46080, Note_on_c, 1, 66, 127
3, 46128, Note_off_c, 1, 66, 64
3, 46140, Note_on_c, 1, 62, 127
3, 46188, Note_off_c, 1, 62, 64
3, 46200, Note_on_c, 1, 59, 127
3, 46248, Note_off_c, 1, 59, 64
3, 46260, Note_on_c, 1, 62, 127
3, 46308, Note_off_c, 1, 62, 64
3, 46320, Note_on_c, 1, 54, 127
3, 46368, Note_off_c, 1, 54, 64
3, 46380, Note_on_c, 1, 59, 127
3, 46428, Note_off_c, 1, 59, 64
3, 46440, Note_on_c, 1, 62, 127
3, 46488, Note_off_c, 1, 62, 64
3, 46500, Note_on_c, 1, 59, 127
3, 46548, Note_off_c, 1, 59, 64
3, 46560, Note_on_c, 1, 66, 127
3, 46608, Note_off_c, 1, 66, 64
3, 46620, Note_on_c, 1, 62, 127
3, 46668, Note_off_c, 1, 62, 64
3, 46680, Note_on_c, 1, 59, 127
3, 46728, Note_off_c, 1, 59, 64
3, 46740, Note_on_c, 1, 62, 127
3, 46788, Note_off_c, 1, 62, 64
3, 46800, Note_on_c, 1, 54, 127
3, 46848, Note_off_c, 1, 54, 64
3, 46860, Note_on_c, 1, 59, 127
3, 46908, Note_off_c, 1, 59, 64
3, 46920, Note_on_c, 1, 62, 127
3, 46968, Note_off_c, 1, 62, 64
3, 46980, Note_on_c, 1, 59, 127
3, 47028, Note_off_c, 1, 59, 64
3, 47040, Note_on_c, 1, 66, 127
3, 47088, Note_off_c, 1, 66, 64
3, 47100, Note_on_c, 1, 61, 127
3, 47148, Note_off_c, 1, 61, 64
3, 47160, Note_on_c, 1, 59, 127
3, 47208, Note_off_c, 1, 59, 64
3, 47220, Note_on_c, 1, 61, 127
3, 47268, Note_off_c, 1, 61, 64
3, 47280, Note_on_c, 1, 54, 127
3, 47328, Note_off_c, 1, 54, 64
3, 47340, Note_on_c, 1, 59, 127
3, 47388, Note_off_c, 1, 59, 64
3, 47400, Note_on_c, 1, 61, 127
3, 47448, Note_off_c, 1, 61, 64
3, 47460, Note_on_c, 1, 59, 127
3, 47508, Note_off_c, 1, 59, 64
3, 47520, Note_on_c, 1, 64, 127
3, 47568, Note_off_c, 1, 64, 64
3, 47580, Note_on_c, 1, 61, 127
3, 47628, Note_off_c, 1, 61, 64
3, 47640, Note_on_c, 1, 58, 127
3, 47688, Note_off_c, 1, 58, 64
3, 47700, Note_on_c, 1, 61, 127
3, 47748, Note_off_c, 1, 61, 64
3, 47760, Note_on_c, 1, 54, 127
3, 47808, Note_off_c, 1, 54, 64
3, 47820, Note_on_c, 1, 58, 127
3, 47868, Note_off_c, 1, 58, 64
3, 47880, Note_on_c, 1, 61, 127
3, 47928, Note_off_c, 1, 61, 64
3, 47940, Note_on_c, 1, 58, 127
3, 47988, Note_off_c, 1, 58, 64
3, 48000, Note_on_c, 1, 59, 127
3, 48096, Note_off_c, 1, 59, 64
3, 48120, Note_on_c, 1, 62, 127
3, 48168, Note_off_c, 1, 62, 64
3, 48180, Note_on_c, 1, 66, 127
3, 48228, Note_off_c, 1, 66, 64
3, 48240, Note_on_c, 1, 71, 127
3, 48288, Note_off_c, 1, 71, 64
3, 48300, Note_on_c, 1, 66, 127
3, 48348, Note_off_c, 1, 66, 64
3, 48360, Note_on_c, 1, 71, 127
3, 48576, Note_off_c, 1, 71, 64
3, 48600, Note_on_c, 1, 69, 127
3, 48648, Note_off_c, 1, 69, 64
3, 48660, Note_on_c, 1, 67, 127
3, 48708, Note_off_c, 1, 67, 64
3, 48720, Note_on_c, 1, 66, 127
3, 48768, Note_off_c, 1, 66, 64
3, 48780, Note_on_c, 1, 71, 127
3, 48828, Note_off_c, 1, 71, 64
3, 48840, Note_on_c, 1, 64, 127
3, 48888, Note_off_c, 1, 64, 64
3, 48900, Note_on_c, 1, 71, 127
3, 48948, Note_off_c, 1, 71, 64
3, 48960, Note_on_c, 1, 62, 127
3, 49008, Note_off_c, 1, 62, 64
3, 49020, Note_on_c, 1, 66, 127
3, 49068, Note_off_c, 1, 66, 64
3, 49080, Note_on_c, 1, 71, 127
3, 49176, Note_off_c, 1, 71, 64
3, 49200, Note_on_c, 1, 61, 127
3, 49296, Note_off_c, 1, 61, 64
3, 49320, Note_on_c, 1, 70, 127
3, 49416, Note_off_c, 1, 70, 64
3, 49440, Note_on_c, 1, 59, 127
3, 49488, Note_off_c, 1, 59, 64
3, 49500, Note_on_c, 1, 58, 127
3, 49548, Note_off_c, 1, 58, 64
3, 49560, Note_on_c, 1, 59, 127
3, 49608, Note_off_c, 1, 59, 64
3, 49620, Note_on_c, 1, 61, 127
3, 49668, Note_off_c, 1, 61, 64
3, 49680, Note_on_c, 1, 62, 127
3, 49728, Note_off_c, 1, 62, 64
3, 49740, Note_on_c, 1, 64, 127
3, 49788, Note_off_c, 1, 64, 64
3, 49800, Note_on_c, 1, 66, 127
3, 49848, Note_off_c, 1, 66, 64
3, 49860, Note_on_c, 1, 67, 127
3, 49908, Note_off_c, 1, 67, 64
3, 49920, Note_on_c, 1, 69, 127
3, 49968, Note_off_c, 1, 69, 64
3, 49980, Note_on_c, 1, 71, 127
3, 50028, Note_off_c, 1, 71, 64
3, 50040, Note_on_c, 1, 72, 127
3, 50088, Note_off_c, 1, 72, 64
3, 50100, Note_on_c, 1, 71, 127
3, 50148, Note_off_c, 1, 71, 64
3, 50160, Note_on_c, 1, 74, 127
3, 50208, Note_off_c, 1, 74, 64
3, 50220, Note_on_c, 1, 72, 127
3, 50268, Note_off_c, 1, 72, 64
3, 50280, Note_on_c, 1, 71, 127
3, 50328, Note_off_c, 1, 71, 64
3, 50340, Note_on_c, 1, 69, 127
3, 50388, Note_off_c, 1, 69, 64
3, 50400, Note_on_c, 1, 72, 127
3, 50448, Note_off_c, 1, 72, 64
3, 50460, Note_on_c, 1, 71, 127
3, 50508, Note_off_c, 1, 71, 64
3, 50520, Note_on_c, 1, 69, 127
3, 50568, Note_off_c, 1, 69, 64
3, 50580, Note_on_c, 1, 67, 127
3, 50628, Note_off_c, 1, 67, 64
3, 50640, Note_on_c, 1, 74, 127
3, 50976, Note_off_c, 1, 74, 64
3, 51000, Note_on_c, 1, 73, 127
3, 51048, Note_off_c, 1, 73, 64
3, 51060, Note_on_c, 1, 71, 127
3, 51108, Note_off_c, 1, 71, 64
3, 51120, Note_on_c, 1, 69, 127
3, 51168, Note_off_c, 1, 69, 64
3, 51180, Note_on_c, 1, 67, 127
3, 51228, Note_off_c, 1, 67, 64
3, 51240, Note_on_c, 1, 66, 127
3, 51288, Note_off_c, 1, 66, 64
3, 51300, Note_on_c, 1, 64, 127
3, 51348, Note_off_c, 1, 64, 64
3, 51360, Note_on_c, 1, 66, 127
3, 51456, Note_off_c, 1, 66, 64
3, 51480, Note_on_c, 1, 62, 127
3, 51576, Note_off_c, 1, 62, 64
3, 52080, Note_on_c, 1, 69, 127
3, 52416, Note_off_c, 1, 69, 64
3, 52440, Note_on_c, 1, 71, 127
3, 52488, Note_off_c, 1, 71, 64
3, 52500, Note_on_c, 1, 69, 127
3, 52548, Note_off_c, 1, 69, 64
3, 52560, Note_on_c, 1, 67, 127
3, 52608, Note_off_c, 1, 67, 64
3, 52620, Note_on_c, 1, 69, 127
3, 52668, Note_off_c, 1, 69, 64
3, 52680, Note_on_c, 1, 66, 127
3, 52728, Note_off_c, 1, 66, 64
3, 52740, Note_on_c, 1, 69, 127
3, 52788, Note_off_c, 1, 69, 64
3, 52800, Note_on_c, 1, 67, 127
3, 52896, Note_off_c, 1, 67, 64
3, 52920, Note_on_c, 1, 62, 127
3, 53016, Note_off_c, 1, 62, 64
3, 53040, Note_on_c, 1, 67, 127
3, 53376, Note_off_c, 1, 67, 64
3, 53400, Note_on_c, 1, 69, 127
3, 53448, Note_off_c, 1, 69, 64
3, 53460, Note_on_c, 1, 67, 127
3, 53508, Note_off_c, 1, 67, 64
3, 53520, Note_on_c, 1, 66, 127
3, 53568, Note_off_c, 1, 66, 64
3, 53580, Note_on_c, 1, 67, 127
3, 53628, Note_off_c, 1, 67, 64
3, 53640, Note_on_c, 1, 64, 127
3, 53688, Note_off_c, 1, 64, 64
3, 53700, Note_on_c, 1, 67, 127
3, 53748, Note_off_c, 1, 67, 64
3, 53760, Note_on_c, 1, 66, 127
3, 53856, Note_off_c, 1, 66, 64
3, 53880, Note_on_c, 1, 61, 127
3, 53976, Note_off_c, 1, 61, 64
3, 54000, Note_on_c, 1, 66, 127
3, 54336, Note_off_c, 1, 66, 64
3, 54360, Note_on_c, 1, 67, 127
3, 54408, Note_off_c, 1, 67, 64
3, 54420, Note_on_c, 1, 66, 127
3, 54468, Note_off_c, 1, 66, 64
3, 54480, Note_on_c, 1, 64, 127
3, 54528, Note_off_c, 1, 64, 64
3, 54540, Note_on_c, 1, 66, 127
3, 54588, Note_off_c, 1, 66, 64
3, 54600, Note_on_c, 1, 63, 127
3, 54648, Note_off_c, 1, 63, 64
3, 54660, Note_on_c, 1, 66, 127
3, 54708, Note_off_c, 1, 66, 64
3, 54720, Note_on_c, 1, 64, 127
3, 55296, Note_off_c, 1, 64, 64
3, 55320, Note_on_c, 1, 73, 127
3, 55416, Note_off_c, 1, 73, 64
3, 55440, Note_on_c, 1, 74, 127
3, 55536, Note_off_c, 1, 74, 64
3, 55560, Note_on_c, 1, 76, 127
3, 55656, Note_off_c, 1, 76, 64
3, 55680, Note_on_c, 1, 65, 127
3, 55776, Note_off_c, 1, 65, 64
3, 55800, Note_on_c, 1, 65, 127
3, 55896, Note_off_c, 1, 65, 64
3, 55920, Note_on_c, 1, 65, 127
3, 56016, Note_off_c, 1, 65, 64
3, 56040, Note_on_c, 1, 74, 127
3, 56088, Note_off_c, 1, 74, 64
3, 56100, Note_on_c, 1, 71, 127
3, 56148, Note_off_c, 1, 71, 64
3, 56160, Note_on_c, 1, 64, 127
3, 56256, Note_off_c, 1, 64, 64
3, 56280, Note_on_c, 1, 64, 127
3, 56376, Note_off_c, 1, 64, 64
3, 56400, Note_on_c, 1, 64, 127
3, 56496, Note_off_c, 1, 64, 64
3, 56520, Note_on_c, 1, 74, 127
3, 56568, Note_off_c, 1, 74, 64
3, 56580, Note_on_c, 1, 71, 127
3, 56628, Note_off_c, 1, 71, 64
3, 56640, Note_on_c, 1, 64, 127
3, 56736, Note_off_c, 1, 64, 64
3, 56760, Note_on_c, 1, 64, 127
3, 56856, Note_off_c, 1, 64, 64
3, 56880, Note_on_c, 1, 64, 127
3, 56976, Note_off_c, 1, 64, 64
3, 57000, Note_on_c, 1, 72, 127
3, 57048, Note_off_c, 1, 72, 64
3, 57060, Note_on_c, 1, 69, 127
3, 57108, Note_off_c, 1, 69, 64
3, 57120, Note_on_c, 1, 62, 127
3, 57216, Note_off_c, 1, 62, 64
3, 57240, Note_on_c, 1, 62, 127
3, 57336, Note_off_c, 1, 62, 64
3, 57360, Note_on_c, 1, 62, 127
3, 57456, Note_off_c, 1, 62, 64
3, 57480, Note_on_c, 1, 72, 127
3, 57528, Note_off_c, 1, 72, 64
3, 57540, Note_on_c, 1, 69, 127
3, 57588, Note_off_c, 1, 69, 64
3, 57600, Note_on_c, 1, 62, 127
3, 57696, Note_off_c, 1, 62, 64
3, 57720, Note_on_c, 1, 62, 127
3, 57816, Note_off_c, 1, 62, 64
3, 57840, Note_on_c, 1, 62, 127
3, 57936, Note_off_c, 1, 62, 64
3, 57960, Note_on_c, 1, 71, 127
3, 58008, Note_off_c, 1, 71, 64
3, 58020, Note_on_c, 1, 68, 127
3, 58068, Note_off_c, 1, 68, 64
3, 58080, Note_on_c, 1, 60, 127
3, 58176, Note_off_c, 1, 60, 64
3, 58200, Note_on_c, 1, 60, 127
3, 58296, Note_off_c, 1, 60, 64
3, 58320, Note_on_c, 1, 60, 127
3, 58416, Note_off_c, 1, 60, 64
3, 58440, Note_on_c, 1, 71, 127
3, 58488, Note_off_c, 1, 71, 64
3, 58500, Note_on_c, 1, 68, 127
3, 58548, Note_off_c, 1, 68, 64
3, 58560, Note_on_c, 1, 60, 127
3, 59136, Note_off_c, 1, 60, 64
3, 59160, Note_on_c, 1, 72, 127
3, 59256, Note_off_c, 1, 72, 64
3, 59280, Note_on_c, 1, 71, 127
3, 59376, Note_off_c, 1, 71, 64
3, 59400, Note_on_c, 1, 69, 127
3, 59496, Note_off_c, 1, 69, 64
3, 59520, Note_on_c, 1, 67, 127
3, 59712, Note_off_c, 1, 67, 64
3, 59760, Note_on_c, 1, 67, 127
3, 59952, Note_off_c, 1, 67, 64
3, 60000, Note_on_c, 1, 67, 127
3, 60096, Note_off_c, 1, 67, 64
3, 60120, Note_on_c, 1, 66, 127
3, 60168, Note_off_c, 1, 66, 64
3, 60180, Note_on_c, 1, 64, 127
3, 60228, Note_off_c, 1, 64, 64
3, 60240, Note_on_c, 1, 62, 127
3, 60336, Note_off_c, 1, 62, 64
3, 60360, Note_on_c, 1, 60, 127
3, 60456, Note_off_c, 1, 60, 64
3, 60480, Note_on_c, 1, 59, 127
3, 60528, Note_off_c, 1, 59, 64
3, 60540, Note_on_c, 1, 62, 127
3, 60588, Note_off_c, 1, 62, 64
3, 60600, Note_on_c, 1, 67, 127
3, 60696, Note_off_c, 1, 67, 64
3, 60720, Note_on_c, 1, 57, 127
3, 60816, Note_off_c, 1, 57, 64
3, 60840, Note_on_c, 1, 66, 127
3, 60936, Note_off_c, 1, 66, 64
3, 60960, Note_on_c, 1, 55, 127
3, 61056, Note_off_c, 1, 55, 64
3, 61440, Note_on_c, 1, 69, 127
3, 61632, Note_off_c, 1, 69, 64
3, 61680, Note_on_c, 1, 69, 127
3, 61872, Note_off_c, 1, 69, 64
3, 61920, Note_on_c, 1, 69, 127
3, 62016, Note_off_c, 1, 69, 64
3, 62040, Note_on_c, 1, 67, 127
3, 62088, Note_off_c, 1, 67, 64
3, 62100, Note_on_c, 1, 65, 127
3, 62148, Note_off_c, 1, 65, 64
3, 62160, Note_on_c, 1, 64, 127
3, 62208, Note_off_c, 1, 64, 64
3, 62220, Note_on_c, 1, 62, 127
3, 62268, Note_off_c, 1, 62, 64
3, 62280, Note_on_c, 1, 60, 127
3, 62328, Note_off_c, 1, 60, 64
3, 62340, Note_on_c, 1, 59, 127
3, 62388, Note_off_c, 1, 59, 64
3, 62400, Note_on_c, 1, 60, 127
3, 62448, Note_off_c, 1, 60, 64
3, 62460, Note_on_c, 1, 64, 127
3, 62508, Note_off_c, 1, 64, 64
3, 62520, Note_on_c, 1, 69, 127
3, 62616, Note_off_c, 1, 69, 64
3, 62640, Note_on_c, 1, 59, 127
3, 62736, Note_off_c, 1, 59, 64
3, 62760, Note_on_c, 1, 68, 127
3, 62856, Note_off_c, 1, 68, 64
3, 62880, Note_on_c, 1, 57, 127
3, 62976, Note_off_c, 1, 57, 64
3, 63360, Note_on_c, 1, 76, 127
3, 63552, Note_off_c, 1, 76, 64
3, 63600, Note_on_c, 1, 76, 127
3, 63792, Note_off_c, 1, 76, 64
3, 63840, Note_on_c, 1, 76, 127
3, 63936, Note_off_c, 1, 76, 64
3, 63960, Note_on_c, 1, 74, 127
3, 64008, Note_off_c, 1, 74, 64
3, 64020, Note_on_c, 1, 72, 127
3, 64068, Note_off_c, 1, 72, 64
3, 64080, Note_on_c, 1, 71, 127
3, 64128, Note_off_c, 1, 71, 64
3, 64140, Note_on_c, 1, 72, 127
3, 64188, Note_off_c, 1, 72, 64
3, 64200, Note_on_c, 1, 69, 127
3, 64248, Note_off_c, 1, 69, 64
3, 64260, Note_on_c, 1, 71, 127
3, 64308, Note_off_c, 1, 71, 64
3, 64320, Note_on_c, 1, 68, 127
3, 64368, Note_off_c, 1, 68, 64
3, 64380, Note_on_c, 1, 69, 127
3, 64428, Note_off_c, 1, 69, 64
3, 64440, Note_on_c, 1, 71, 127
3, 64488, Note_off_c, 1, 71, 64
3, 64500, Note_on_c, 1, 74, 127
3, 64548, Note_off_c, 1, 74, 64
3, 64560, Note_on_c, 1, 72, 127
3, 64608, Note_off_c, 1, 72, 64
3, 64620, Note_on_c, 1, 71, 127
3, 64668, Note_off_c, 1, 71, 64
3, 64680, Note_on_c, 1, 69, 127
3, 64728, Note_off_c, 1, 69, 64
3, 64740, Note_on_c, 1, 68, 127
3, 64788, Note_off_c, 1, 68, 64
3, 64800, Note_on_c, 1, 69, 127
3, 64848, Note_off_c, 1, 69, 64
3, 64860, Note_on_c, 1, 68, 127
3, 64908, Note_off_c, 1, 68, 64
3, 64920, Note_on_c, 1, 66, 127
3, 64968, Note_off_c, 1, 66, 64
3, 64980, Note_on_c, 1, 64, 127
3, 65028, Note_off_c, 1, 64, 64
3, 65040, Note_on_c, 1, 66, 127
3, 65088, Note_off_c, 1, 66, 64
3, 65100, Note_on_c, 1, 69, 127
3, 65148, Note_off_c, 1, 69, 64
3, 65160, Note_on_c, 1, 68, 127
3, 65208, Note_off_c, 1, 68, 64
3, 65220, Note_on_c, 1, 71, 127
3, 65268, Note_off_c, 1, 71, 64
3, 65280, Note_on_c, 1, 69, 127
3, 65328, Note_off_c, 1, 69, 64
3, 65340, Note_on_c, 1, 64, 127
3, 65388, Note_off_c, 1, 64, 64
3, 65400, Note_on_c, 1, 60, 127
3, 65448, Note_off_c, 1, 60, 64
3, 65460, Note_on_c, 1, 64, 127
3, 65508, Note_off_c, 1, 64, 64
3, 65520, Note_on_c, 1, 57, 127
3, 65568, Note_off_c, 1, 57, 64
3, 65580, Note_on_c, 1, 60, 127
3, 65628, Note_off_c, 1, 60, 64
3, 65640, Note_on_c, 1, 64, 127
3, 65688, Note_off_c, 1, 64, 64
3, 65700, Note_on_c, 1, 60, 127
3, 65748, Note_off_c, 1, 60, 64
3, 65760, Note_on_c, 1, 69, 127
3, 65808, Note_off_c, 1, 69, 64
3, 65820, Note_on_c, 1, 64, 127
3, 65868, Note_off_c, 1, 64, 64
3, 65880, Note_on_c, 1, 60, 127
3, 65928, Note_off_c, 1, 60, 64
3, 65940, Note_on_c, 1, 64, 127
3, 65988, Note_off_c, 1, 64, 64
3, 66000, Note_on_c, 1, 57, 127
3, 66048, Note_off_c, 1, 57, 64
3, 66060, Note_on_c, 1, 60, 127
3, 66108, Note_off_c, 1, 60, 64
3, 66120, Note_on_c, 1, 64, 127
3, 66168, Note_off_c, 1, 64, 64
3, 66180, Note_on_c, 1, 60, 127
3, 66228, Note_off_c, 1, 60, 64
3, 66240, Note_on_c, 1, 69, 127
3, 66288, Note_off_c, 1, 69, 64
3, 66300, Note_on_c, 1, 66, 127
3, 66348, Note_off_c, 1, 66, 64
3, 66360, Note_on_c, 1, 62, 127
3, 66408, Note_off_c, 1, 62, 64
3, 66420, Note_on_c, 1, 66, 127
3, 66468, Note_off_c, 1, 66, 64
3, 66480, Note_on_c, 1, 57, 127
3, 66528, Note_off_c, 1, 57, 64
3, 66540, Note_on_c, 1, 62, 127
3, 66588, Note_off_c, 1, 62, 64
3, 66600, Note_on_c, 1, 66, 127
3, 66648, Note_off_c, 1, 66, 64
3, 66660, Note_on_c, 1, 62, 127
3, 66708, Note_off_c, 1, 62, 64
3, 66720, Note_on_c, 1, 69, 127
3, 66768, Note_off_c, 1, 69, 64
3, 66780, Note_on_c, 1, 66, 127
3, 66828, Note_off_c, 1, 66, 64
3, 66840, Note_on_c, 1, 62, 127
3, 66888, Note_off_c, 1, 62, 64
3, 66900, Note_on_c, 1, 66, 127
3, 66948, Note_off_c, 1, 66, 64
3, 66960, Note_on_c, 1, 57, 127
3, 67008, Note_off_c, 1, 57, 64
3, 67020, Note_on_c, 1, 62, 127
3, 67068, Note_off_c, 1, 62, 64
3, 67080, Note_on_c, 1, 66, 127
3, 67128, Note_off_c, 1, 66, 64
3, 67140, Note_on_c, 1, 62, 127
3, 67188, Note_off_c, 1, 62, 64
3, 67200, Note_on_c, 1, 67, 127
3, 67248, Note_off_c, 1, 67, 64
3, 67260, Note_on_c, 1, 62, 127
3, 67308, Note_off_c, 1, 62, 64
3, 67320, Note_on_c, 1, 59, 127
3, 67368, Note_off_c, 1, 59, 64
3, 67380, Note_on_c, 1, 62, 127
3, 67428, Note_off_c, 1, 62, 64
3, 67440, Note_on_c, 1, 55, 127
3, 67488, Note_off_c, 1, 55, 64
3, 67500, Note_on_c, 1, 59, 127
3, 67548, Note_off_c, 1, 59, 64
3, 67560, Note_on_c, 1, 62, 127
3, 67608, Note_off_c, 1, 62, 64
3, 67620, Note_on_c, 1, 59, 127
3, 67668, Note_off_c, 1, 59, 64
3, 67680, Note_on_c, 1, 67, 127
3, 67728, Note_off_c, 1, 67, 64
3, 67740, Note_on_c, 1, 62, 127
3, 67788, Note_off_c, 1, 62, 64
3, 67800, Note_on_c, 1, 59, 127
3, 67848, Note_off_c, 1, 59, 64
3, 67860, Note_on_c, 1, 62, 127
3, 67908, Note_off_c, 1, 62, 64
3, 67920, Note_on_c, 1, 55, 127
3, 67968, Note_off_c, 1, 55, 64
3, 67980, Note_on_c, 1, 59, 127
3, 68028, Note_off_c, 1, 59, 64
3, 68040, Note_on_c, 1, 62, 127
3, 68088, Note_off_c, 1, 62, 64
3, 68100, Note_on_c, 1, 59, 127
3, 68148, Note_off_c, 1, 59, 64
3, 68160, Note_on_c, 1, 67, 127
3, 68208, Note_off_c, 1, 67, 64
3, 68220, Note_on_c, 1, 64, 127
3, 68268, Note_off_c, 1, 64, 64
3, 68280, Note_on_c, 1, 60, 127
3, 68328, Note_off_c, 1, 60, 64
3, 68340, Note_on_c, 1, 64, 127
3, 68388, Note_off_c, 1, 64, 64
3, 68400, Note_on_c, 1, 55, 127
3, 68448, Note_off_c, 1, 55, 64
3, 68460, Note_on_c, 1, 60, 127
3, 68508, Note_off_c, 1, 60, 64
3, 68520, Note_on_c, 1, 64, 127
3, 68568, Note_off_c, 1, 64, 64
3, 68580, Note_on_c, 1, 60, 127
3, 68628, Note_off_c, 1, 60, 64
3, 68640, Note_on_c, 1, 67, 127
3, 68688, Note_off_c, 1, 67, 64
3, 68700, Note_on_c, 1, 64, 127
3, 68748, Note_off_c, 1, 64, 64
3, 68760, Note_on_c, 1, 60, 127
3, 68808, Note_off_c, 1, 60, 64
3, 68820, Note_on_c, 1, 64, 127
3, 68868, Note_off_c, 1, 64, 64
3, 68880, Note_on_c, 1, 55, 127
3, 68928, Note_off_c, 1, 55, 64
3, 68940, Note_on_c, 1, 60, 127
3, 68988, Note_off_c, 1, 60, 64
3, 69000, Note_on_c, 1, 64, 127
3, 69048, Note_off_c, 1, 64, 64
3, 69060, Note_on_c, 1, 60, 127
3, 69108, Note_off_c, 1, 60, 64
3, 69120, Note_on_c, 1, 66, 127
3, 69168, Note_off_c, 1, 66, 64
3, 69180, Note_on_c, 1, 60, 127
3, 69228, Note_off_c, 1, 60, 64
3, 69240, Note_on_c, 1, 57, 127
3, 69288, Note_off_c, 1, 57, 64
3, 69300, Note_on_c, 1, 60, 127
3, 69348, Note_off_c, 1, 60, 64
3, 69360, Note_on_c, 1, 54, 127
3, 69408, Note_off_c, 1, 54, 64
3, 69420, Note_on_c, 1, 57, 127
3, 69468, Note_off_c, 1, 57, 64
3, 69480, Note_on_c, 1, 60, 127
3, 69528, Note_off_c, 1, 60, 64
3, 69540, Note_on_c, 1, 57, 127
3, 69588, Note_off_c, 1, 57, 64
3, 69600, Note_on_c, 1, 66, 127
3, 69648, Note_off_c, 1, 66, 64
3, 69660, Note_on_c, 1, 60, 127
3, 69708, Note_off_c, 1, 60, 64
3, 69720, Note_on_c, 1, 57, 127
3, 69768, Note_off_c, 1, 57, 64
3, 69780, Note_on_c, 1, 60, 127
3, 69828, Note_off_c, 1, 60, 64
3, 69840, Note_on_c, 1, 54, 127
3, 69888, Note_off_c, 1, 54, 64
3, 69900, Note_on_c, 1, 57, 127
3, 69948, Note_off_c, 1, 57, 64
3, 69960, Note_on_c, 1, 60, 127
3, 70008, Note_off_c, 1, 60, 64
3, 70020, Note_on_c, 1, 57, 127
3, 70068, Note_off_c, 1, 57, 64
3, 70080, Note_on_c, 1, 66, 127
3, 70128, Note_off_c, 1, 66, 64
3, 70140, Note_on_c, 1, 63, 127
3, 70188, Note_off_c, 1, 63, 64
3, 70200, Note_on_c, 1, 59, 127
3, 70248, Note_off_c, 1, 59, 64
3, 70260, Note_on_c, 1, 63, 127
3, 70308, Note_off_c, 1, 63, 64
3, 70320, Note_on_c, 1, 54, 127
3, 70368, Note_off_c, 1, 54, 64
3, 70380, Note_on_c, 1, 59, 127
3, 70428, Note_off_c, 1, 59, 64
3, 70440, Note_on_c, 1, 63, 127
3, 70488, Note_off_c, 1, 63, 64
3, 70500, Note_on_c, 1, 59, 127
3, 70548, Note_off_c, 1, 59, 64
3, 70560, Note_on_c, 1, 66, 127
3, 70608, Note_off_c, 1, 66, 64
3, 70620, Note_on_c, 1, 63, 127
3, 70668, Note_off_c, 1, 63, 64
3, 70680, Note_on_c, 1, 59, 127
3, 70728, Note_off_c, 1, 59, 64
3, 70740, Note_on_c, 1, 63, 127
3, 70788, Note_off_c, 1, 63, 64
3, 70800, Note_on_c, 1, 54, 127
3, 70848, Note_off_c, 1, 54, 64
3, 70860, Note_on_c, 1, 59, 127
3, 70908, Note_off_c, 1, 59, 64
3, 70920, Note_on_c, 1, 63, 127
3, 70968, Note_off_c, 1, 63, 64
3, 70980, Note_on_c, 1, 59, 127
3, 71028, Note_off_c, 1, 59, 64
3, 71040, Note_on_c, 1, 64, 127
3, 71088, Note_off_c, 1, 64, 64
3, 71100, Note_on_c, 1, 59, 127
3, 71148, Note_off_c, 1, 59, 64
3, 71160, Note_on_c, 1, 55, 127
3, 71208, Note_off_c, 1, 55, 64
3, 71220, Note_on_c, 1, 59, 127
3, 71268, Note_off_c, 1, 59, 64
3, 71280, Note_on_c, 1, 52, 127
3, 71328, Note_off_c, 1, 52, 64
3, 71340, Note_on_c, 1, 55, 127
3, 71388, Note_off_c, 1, 55, 64
3, 71400, Note_on_c, 1, 59, 127
3, 71448, Note_off_c, 1, 59, 64
3, 71460, Note_on_c, 1, 55, 127
3, 71508, Note_off_c, 1, 55, 64
3, 71520, Note_on_c, 1, 64, 127
3, 71568, Note_off_c, 1, 64, 64
3, 71580, Note_on_c, 1, 59, 127
3, 71628, Note_off_c, 1, 59, 64
3, 71640, Note_on_c, 1, 55, 127
3, 71688, Note_off_c, 1, 55, 64
3, 71700, Note_on_c, 1, 59, 127
3, 71748, Note_off_c, 1, 59, 64
3, 71760, Note_on_c, 1, 52, 127
3, 71808, Note_off_c, 1, 52, 64
3, 71820, Note_on_c, 1, 55, 127
3, 71868, Note_off_c, 1, 55, 64
3, 71880, Note_on_c, 1, 59, 127
3, 71928, Note_off_c, 1, 59, 64
3, 71940, Note_on_c, 1, 55, 127
3, 71988, Note_off_c, 1, 55, 64
3, 72000, Note_on_c, 1, 64, 127
3, 72048, Note_off_c, 1, 64, 64
3, 72060, Note_on_c, 1, 61, 127
3, 72108, Note_off_c, 1, 61, 64
3, 72120, Note_on_c, 1, 57, 127
3, 72168, Note_off_c, 1, 57, 64
3, 72180, Note_on_c, 1, 61, 127
3, 72228, Note_off_c, 1, 61, 64
3, 72240, Note_on_c, 1, 52, 127
3, 72288, Note_off_c, 1, 52, 64
3, 72300, Note_on_c, 1, 57, 127
3, 72348, Note_off_c, 1, 57, 64
3, 72360, Note_on_c, 1, 61, 127
3, 72408, Note_off_c, 1, 61, 64
3, 72420, Note_on_c, 1, 57, 127
3, 72468, Note_off_c, 1, 57, 64
3, 72480, Note_on_c, 1, 64, 127
3, 72528, Note_off_c, 1, 64, 64
3, 72540, Note_on_c, 1, 61, 127
3, 72588, Note_off_c, 1, 61, 64
3, 72600, Note_on_c, 1, 57, 127
3, 72648, Note_off_c, 1, 57, 64
3, 72660, Note_on_c, 1, 61, 127
3, 72708, Note_off_c, 1, 61, 64
3, 72720, Note_on_c, 1, 52, 127
3, 72768, Note_off_c, 1, 52, 64
3, 72780, Note_on_c, 1, 57, 127
3, 72828, Note_off_c, 1, 57, 64
3, 72840, Note_on_c, 1, 61, 127
3, 72888, Note_off_c, 1, 61, 64
3, 72900, Note_on_c, 1, 57, 127
3, 72948, Note_off_c, 1, 57, 64
3, 72960, Note_on_c, 1, 62, 127
3, 73056, Note_off_c, 1, 62, 64
3, 73080, Note_on_c, 1, 50, 127
3, 73176, Note_off_c, 1, 50, 64
3, 73200, Note_on_c, 1, 54, 127
3, 73296, Note_off_c, 1, 54, 64
3, 73320, Note_on_c, 1, 57, 127
3, 73416, Note_off_c, 1, 57, 64
3, 73440, Note_on_c, 1, 60, 127
3, 73488, Note_off_c, 1, 60, 64
3, 73500, Note_on_c, 1, 54, 127
3, 73548, Note_off_c, 1, 54, 64
3, 73560, Note_on_c, 1, 57, 127
3, 73608, Note_off_c, 1, 57, 64
3, 73620, Note_on_c, 1, 60, 127
3, 73668, Note_off_c, 1, 60, 64
3, 73680, Note_on_c, 1, 63, 127
3, 73776, Note_off_c, 1, 63, 64
3, 74040, Note_on_c, 1, 55, 127
3, 74136, Note_off_c, 1, 55, 64
3, 74160, Note_on_c, 1, 58, 127
3, 74256, Note_off_c, 1, 58, 64
3, 74280, Note_on_c, 1, 62, 127
3, 74376, Note_off_c, 1, 62, 64
3, 74400, Note_on_c, 1, 67, 127
3, 74448, Note_off_c, 1, 67, 64
3, 74460, Note_on_c, 1, 58, 127
3, 74508, Note_off_c, 1, 58, 64
3, 74520, Note_on_c, 1, 62, 127
3, 74568, Note_off_c, 1, 62, 64
3, 74580, Note_on_c, 1, 67, 127
3, 74628, Note_off_c, 1, 67, 64
3, 74640, Note_on_c, 1, 70, 127
3, 74736, Note_off_c, 1, 70, 64
3, 75000, Note_on_c, 1, 61, 127
3, 75096, Note_off_c, 1, 61, 64
3, 75120, Note_on_c, 1, 64, 127
3, 75216, Note_off_c, 1, 64, 64
3, 75240, Note_on_c, 1, 67, 127
3, 75336, Note_off_c, 1, 67, 64
3, 75360, Note_on_c, 1, 70, 127
3, 75408, Note_off_c, 1, 70, 64
3, 75420, Note_on_c, 1, 67, 127
3, 75468, Note_off_c, 1, 67, 64
3, 75480, Note_on_c, 1, 70, 127
3, 75528, Note_off_c, 1, 70, 64
3, 75540, Note_on_c, 1, 73, 127
3, 75588, Note_off_c, 1, 73, 64
3, 75600, Note_on_c, 1, 76, 127
3, 75696, Note_off_c, 1, 76, 64
3, 75900, Note_on_c, 1, 74, 127
3, 75948, Note_off_c, 1, 74, 64
3, 75960, Note_on_c, 1, 72, 127
3, 76008, Note_off_c, 1, 72, 64
3, 76020, Note_on_c, 1, 70, 127
3, 76068, Note_off_c, 1, 70, 64
3, 76080, Note_on_c, 1, 69, 127
3, 76128, Note_off_c, 1, 69, 64
3, 76140, Note_on_c, 1, 67, 127
3, 76188, Note_off_c, 1, 67, 64
3, 76200, Note_on_c, 1, 66, 127
3, 76248, Note_off_c, 1, 66, 64
3, 76260, Note_on_c, 1, 64, 127
3, 76308, Note_off_c, 1, 64, 64
3, 76320, Note_on_c, 1, 62, 127
3, 76416, Note_off_c, 1, 62, 64
3, 76800, Note_on_c, 1, 67, 127
3, 76992, Note_off_c, 1, 67, 64
3, 77040, Note_on_c, 1, 67, 127
3, 77232, Note_off_c, 1, 67, 64
3, 77280, Note_on_c, 1, 67, 127
3, 77376, Note_off_c, 1, 67, 64
3, 77400, Note_on_c, 1, 66, 127
3, 77448, Note_off_c, 1, 66, 64
3, 77460, Note_on_c, 1, 64, 127
3, 77508, Note_off_c, 1, 64, 64
3, 77520, Note_on_c, 1, 62, 127
3, 77616, Note_off_c, 1, 62, 64
3, 77640, Note_on_c, 1, 60, 127
3, 77736, Note_off_c, 1, 60, 64
3, 77760, Note_on_c, 1, 59, 127
3, 77856, Note_off_c, 1, 59, 64
3, 77880, Note_on_c, 1, 67, 127
3, 77976, Note_off_c, 1, 67, 64
3, 78000, Note_on_c, 1, 57, 127
3, 78096, Note_off_c, 1, 57, 64
3, 78120, Note_on_c, 1, 66, 127
3, 78216, Note_off_c, 1, 66, 64
3, 78240, Note_on_c, 1, 55, 127
3, 78336, Note_off_c, 1, 55, 64
3, 78720, Note_on_c, 1, 74, 127
3, 78912, Note_off_c, 1, 74, 64
3, 78960, Note_on_c, 1, 74, 127
3, 79152, Note_off_c, 1, 74, 64
3, 79200, Note_on_c, 1, 74, 127
3, 79296, Note_off_c, 1, 74, 64
3, 79320, Note_on_c, 1, 73, 127
3, 79368, Note_off_c, 1, 73, 64
3, 79380, Note_on_c, 1, 71, 127
3, 79428, Note_off_c, 1, 71, 64
3, 79440, Note_on_c, 1, 69, 127
3, 79488, Note_off_c, 1, 69, 64
3, 79500, Note_on_c, 1, 74, 127
3, 79548, Note_off_c, 1, 74, 64
3, 79560, Note_on_c, 1, 67, 127
3, 79608, Note_off_c, 1, 67, 64
3, 79620, Note_on_c, 1, 74, 127
3, 79668, Note_off_c, 1, 74, 64
3, 79680, Note_on_c, 1, 66, 127
3, 79728, Note_off_c, 1, 66, 64
3, 79740, Note_on_c, 1, 74, 127
3, 79788, Note_off_c, 1, 74, 64
3, 79800, Note_on_c, 1, 73, 127
3, 79848, Note_off_c, 1, 73, 64
3, 79860, Note_on_c, 1, 74, 127
3, 79908, Note_off_c, 1, 74, 64
3, 79920, Note_on_c, 1, 64, 127
3, 79968, Note_off_c, 1, 64, 64
3, 79980, Note_on_c, 1, 74, 127
3, 80028, Note_off_c, 1, 74, 64
3, 80040, Note_on_c, 1, 73, 127
3, 80088, Note_off_c, 1, 73, 64
3, 80100, Note_on_c, 1, 74, 127
3, 80148, Note_off_c, 1, 74, 64
3, 80160, Note_on_c, 1, 62, 127
3, 80208, Note_off_c, 1, 62, 64
3, 80220, Note_on_c, 1, 64, 127
3, 80268, Note_off_c, 1, 64, 64
3, 80280, Note_on_c, 1, 66, 127
3, 80328, Note_off_c, 1, 66, 64
3, 80340, Note_on_c, 1, 67, 127
3, 80388, Note_off_c, 1, 67, 64
3, 80400, Note_on_c, 1, 69, 127
3, 80448, Note_off_c, 1, 69, 64
3, 80460, Note_on_c, 1, 71, 127
3, 80508, Note_off_c, 1, 71, 64
3, 80520, Note_on_c, 1, 72, 127
3, 80568, Note_off_c, 1, 72, 64
3, 80580, Note_on_c, 1, 69, 127
3, 80628, Note_off_c, 1, 69, 64
3, 80640, Note_on_c, 1, 66, 127
3, 80736, Note_off_c, 1, 66, 64
3, 80760, Note_on_c, 1, 69, 127
3, 80808, Note_off_c, 1, 69, 64
3, 80820, Note_on_c, 1, 66, 127
3, 80868, Note_off_c, 1, 66, 64
3, 80880, Note_on_c, 1, 62, 127
3, 80976, Note_off_c, 1, 62, 64
3, 81000, Note_on_c, 1, 62, 127
3, 81096, Note_off_c, 1, 62, 64
3, 81120, Note_on_c, 1, 62, 127
3, 81216, Note_off_c, 1, 62, 64
3, 81240, Note_on_c, 1, 71, 127
3, 81336, Note_off_c, 1, 71, 64
3, 81360, Note_on_c, 1, 67, 127
3, 81456, Note_off_c, 1, 67, 64
3, 81480, Note_on_c, 1, 62, 127
3, 81528, Note_off_c, 1, 62, 64
3, 81540, Note_on_c, 1, 62, 127
3, 81588, Note_off_c, 1, 62, 64
3, 81600, Note_on_c, 1, 62, 127
3, 81696, Note_off_c, 1, 62, 64
3, 81720, Note_on_c, 1, 72, 127
3, 81768, Note_off_c, 1, 72, 64
3, 81780, Note_on_c, 1, 69, 127
3, 81828, Note_off_c, 1, 69, 64
3, 81840, Note_on_c, 1, 62, 127
3, 81936, Note_off_c, 1, 62, 64
3, 81960, Note_on_c, 1, 62, 127
3, 82056, Note_off_c, 1, 62, 64
3, 82080, Note_on_c, 1, 62, 127
3, 82176, Note_off_c, 1, 62, 64
3, 82200, Note_on_c, 1, 66, 127
3, 82248, Note_off_c, 1, 66, 64
3, 82260, Note_on_c, 1, 69, 127
3, 82308, Note_off_c, 1, 69, 64
3, 82320, Note_on_c, 1, 72, 127
3, 82416, Note_off_c, 1, 72, 64
3, 82440, Note_on_c, 1, 66, 127
3, 82488, Note_off_c, 1, 66, 64
3, 82500, Note_on_c, 1, 69, 127
3, 82548, Note_off_c, 1, 69, 64
3, 82560, Note_on_c, 1, 71, 127
3, 82656, Note_off_c, 1, 71, 64
3, 82680, Note_on_c, 1, 72, 127
3, 82776, Note_off_c, 1, 72, 64
3, 82800, Note_on_c, 1, 69, 127
3, 82896, Note_off_c, 1, 69, 64
3, 82920, Note_on_c, 1, 71, 127
3, 83016, Note_off_c, 1, 71, 64
3, 83040, Note_on_c, 1, 62, 127
3, 83136, Note_off_c, 1, 62, 64
3, 83160, Note_on_c, 1, 62, 127
3, 83256, Note_off_c, 1, 62, 64
3, 83280, Note_on_c, 1, 62, 127
3, 83376, Note_off_c, 1, 62, 64
3, 83400, Note_on_c, 1, 71, 127
3, 83496, Note_off_c, 1, 71, 64
3, 83520, Note_on_c, 1, 60, 127
3, 83616, Note_off_c, 1, 60, 64
3, 83640, Note_on_c, 1, 72, 127
3, 83736, Note_off_c, 1, 72, 64
3, 83760, Note_on_c, 1, 69, 127
3, 83856, Note_off_c, 1, 69, 64
3, 83880, Note_on_c, 1, 71, 127
3, 83976, Note_off_c, 1, 71, 64
3, 84120, Note_on_c, 1, 59, 127
3, 84168, Note_off_c, 1, 59, 64
3, 84180, Note_on_c, 1, 57, 127
3, 84228, Note_off_c, 1, 57, 64
3, 84240, Note_on_c, 1, 60, 127
3, 84288, Note_off_c, 1, 60, 64
3, 84300, Note_on_c, 1, 59, 127
3, 84348, Note_off_c, 1, 59, 64
3, 84360, Note_on_c, 1, 57, 127
3, 84408, Note_off_c, 1, 57, 64
3, 84420, Note_on_c, 1, 55, 127
3, 84468, Note_off_c, 1, 55, 64
3, 84480, Note_on_c, 1, 67, 127
3, 84576, Note_off_c, 1, 67, 64
3, 84600, Note_on_c, 1, 72, 127
3, 84696, Note_off_c, 1, 72, 64
3, 84720, Note_on_c, 1, 69, 127
3, 84816, Note_off_c, 1, 69, 64
3, 84840, Note_on_c, 1, 71, 127
3, 84936, Note_off_c, 1, 71, 64
3, 84960, Note_on_c, 1, 66, 127
3, 85056, Note_off_c, 1, 66, 64
3, 85080, Note_on_c, 1, 62, 127
3, 85176, Note_off_c, 1, 62, 64
3, 85200, Note_on_c, 1, 67, 127
3, 85488, Note_off_c, 1, 67, 64
3, 85500, Note_on_c, 1, 71, 127
3, 85548, Note_off_c, 1, 71, 64
3, 85560, Note_on_c, 1, 67, 127
3, 85608, Note_off_c, 1, 67, 64
3, 85620, Note_on_c, 1, 62, 127
3, 85668, Note_off_c, 1, 62, 64
3, 85680, Note_on_c, 1, 66, 127
3, 85728, Note_off_c, 1, 66, 64
3, 85740, Note_on_c, 1, 69, 127
3, 85788, Note_off_c, 1, 69, 64
3, 85800, Note_on_c, 1, 66, 127
3, 85848, Note_off_c, 1, 66, 64
3, 85860, Note_on_c, 1, 60, 127
3, 85908, Note_off_c, 1, 60, 64
3, 85920, Note_on_c, 1, 67, 127
3, 85920, Note_on_c, 1, 59, 127
3, 86304, Note_off_c, 1, 59, 64
3, 86304, Note_off_c, 1, 67, 64
3, 86304, End_track
4, 0, Start_track
4, 0, Title_t, "Arr. Gary Bricault, (c) 1997"
4, 0, Program_c, 2, 19
4, 0, Control_c, 2, 7, 127
4, 0, Note_on_c, 2, 55, 127
4, 96, Note_off_c, 2, 55, 64
4, 120, Note_on_c, 2, 54, 127
4, 216, Note_off_c, 2, 54, 64
4, 240, Note_on_c, 2, 55, 127
4, 336, Note_off_c, 2, 55, 64
4, 360, Note_on_c, 2, 57, 127
4, 456, Note_off_c, 2, 57, 64
4, 480, Note_on_c, 2, 59, 127
4, 576, Note_off_c, 2, 59, 64
4, 600, Note_on_c, 2, 57, 127
4, 696, Note_off_c, 2, 57, 64
4, 720, Note_on_c, 2, 59, 127
4, 816, Note_off_c, 2, 59, 64
4, 840, Note_on_c, 2, 60, 127
4, 936, Note_off_c, 2, 60, 64
4, 960, Note_on_c, 2, 62, 127
4, 1152, Note_off_c, 2, 62, 64
4, 1200, Note_on_c, 2, 50, 127
4, 1392, Note_off_c, 2, 50, 64
4, 1440, Note_on_c, 2, 43, 127
4, 1536, Note_off_c, 2, 43, 64
4, 1560, Note_on_c, 2, 59, 127
4, 1656, Note_off_c, 2, 59, 64
4, 1680, Note_on_c, 2, 57, 127
4, 1776, Note_off_c, 2, 57, 64
4, 1800, Note_on_c, 2, 55, 127
4, 1896, Note_off_c, 2, 55, 64
4, 1920, Note_on_c, 2, 54, 127
4, 2016, Note_off_c, 2, 54, 64
4, 2040, Note_on_c, 2, 52, 127
4, 2136, Note_off_c, 2, 52, 64
4, 2160, Note_on_c, 2, 50, 127
4, 2256, Note_off_c, 2, 50, 64
4, 2280, Note_on_c, 2, 52, 127
4, 2376, Note_off_c, 2, 52, 64
4, 2400, Note_on_c, 2, 54, 127
4, 2496, Note_off_c, 2, 54, 64
4, 2520, Note_on_c, 2, 52, 127
4, 2616, Note_off_c, 2, 52, 64
4, 2640, Note_on_c, 2, 54, 127
4, 2736, Note_off_c, 2, 54, 64
4, 2760, Note_on_c, 2, 55, 127
4, 2856, Note_off_c, 2, 55, 64
4, 2880, Note_on_c, 2, 57, 127
4, 3072, Note_off_c, 2, 57, 64
4, 3120, Note_on_c, 2, 45, 127
4, 3312, Note_off_c, 2, 45, 64
4, 3360, Note_on_c, 2, 38, 127
4, 3456, Note_off_c, 2, 38, 64
4, 3480, Note_on_c, 2, 50, 127
4, 3576, Note_off_c, 2, 50, 64
4, 3600, Note_on_c, 2, 54, 127
4, 3696, Note_off_c, 2, 54, 64
4, 3720, Note_on_c, 2, 57, 127
4, 3816, Note_off_c, 2, 57, 64
4, 3840, Note_on_c, 2, 60, 127
4, 4032, Note_off_c, 2, 60, 64
4, 4200, Note_on_c, 2, 50, 127
4, 4296, Note_off_c, 2, 50, 64
4, 4320, Note_on_c, 2, 59, 127
4, 4512, Note_off_c, 2, 59, 64
4, 4680, Note_on_c, 2, 50, 127
4, 4776, Note_off_c, 2, 50, 64
4, 4800, Note_on_c, 2, 57, 127
4, 4896, Note_off_c, 2, 57, 64
4, 4920, Note_on_c, 2, 55, 127
4, 5016, Note_off_c, 2, 55, 64
4, 5040, Note_on_c, 2, 54, 127
4, 5136, Note_off_c, 2, 54, 64
4, 5160, Note_on_c, 2, 52, 127
4, 5256, Note_off_c, 2, 52, 64
4, 5280, Note_on_c, 2, 50, 127
4, 5376, Note_off_c, 2, 50, 64
4, 5400, Note_on_c, 2, 48, 127
4, 5496, Note_off_c, 2, 48, 64
4, 5520, Note_on_c, 2, 47, 127
4, 5616, Note_off_c, 2, 47, 64
4, 5640, Note_on_c, 2, 45, 127
4, 5736, Note_off_c, 2, 45, 64
4, 5760, Note_on_c, 2, 43, 127
4, 5952, Note_off_c, 2, 43, 64
4, 6240, Note_on_c, 2, 42, 127
4, 6432, Note_off_c, 2, 42, 64
4, 6720, Note_on_c, 2, 40, 127
4, 6912, Note_off_c, 2, 40, 64
4, 7200, Note_on_c, 2, 38, 127
4, 7392, Note_off_c, 2, 38, 64
4, 7680, Note_on_c, 2, 36, 127
4, 7872, Note_off_c, 2, 36, 64
4, 7920, Note_on_c, 2, 48, 127
4, 8352, Note_off_c, 2, 48, 64
4, 8400, Note_on_c, 2, 47, 127
4, 8496, Note_off_c, 2, 47, 64
4, 8520, Note_on_c, 2, 48, 127
4, 8616, Note_off_c, 2, 48, 64
4, 8640, Note_on_c, 2, 50, 127
4, 8832, Note_off_c, 2, 50, 64
4, 8880, Note_on_c, 2, 38, 127
4, 9072, Note_off_c, 2, 38, 64
4, 9120, Note_on_c, 2, 43, 127
4, 9216, Note_off_c, 2, 43, 64
4, 9240, Note_on_c, 2, 60, 127
4, 9336, Note_off_c, 2, 60, 64
4, 9360, Note_on_c, 2, 59, 127
4, 9456, Note_off_c, 2, 59, 64
4, 9480, Note_on_c, 2, 57, 127
4, 9576, Note_off_c, 2, 57, 64
4, 9600, Note_on_c, 2, 55, 127
4, 9792, Note_off_c, 2, 55, 64
4, 10200, Note_on_c, 2, 55, 127
4, 10296, Note_off_c, 2, 55, 64
4, 10320, Note_on_c, 2, 55, 127
4, 10416, Note_off_c, 2, 55, 64
4, 10440, Note_on_c, 2, 55, 127
4, 10536, Note_off_c, 2, 55, 64
4, 10560, Note_on_c, 2, 43, 127
4, 10752, Note_off_c, 2, 43, 64
4, 11160, Note_on_c, 2, 55, 127
4, 11256, Note_off_c, 2, 55, 64
4, 11280, Note_on_c, 2, 55, 127
4, 11376, Note_off_c, 2, 55, 64
4, 11400, Note_on_c, 2, 55, 127
4, 11496, Note_off_c, 2, 55, 64
4, 11520, Note_on_c, 2, 43, 127
4, 11712, Note_off_c, 2, 43, 64
4, 12120, Note_on_c, 2, 55, 127
4, 12216, Note_off_c, 2, 55, 64
4, 12240, Note_on_c, 2, 55, 127
4, 12336, Note_off_c, 2, 55, 64
4, 12360, Note_on_c, 2, 55, 127
4, 12456, Note_off_c, 2, 55, 64
4, 12480, Note_on_c, 2, 43, 127
4, 12576, Note_off_c, 2, 43, 64
4, 12600, Note_on_c, 2, 47, 127
4, 12696, Note_off_c, 2, 47, 64
4, 12720, Note_on_c, 2, 43, 127
4, 12816, Note_off_c, 2, 43, 64
4, 12840, Note_on_c, 2, 47, 127
4, 12936, Note_off_c, 2, 47, 64
4, 12960, Note_on_c, 2, 50, 127
4, 13056, Note_off_c, 2, 50, 64
4, 13080, Note_on_c, 2, 43, 127
4, 13176, Note_off_c, 2, 43, 64
4, 13200, Note_on_c, 2, 42, 127
4, 13296, Note_off_c, 2, 42, 64
4, 13320, Note_on_c, 2, 40, 127
4, 13416, Note_off_c, 2, 40, 64
4, 13440, Note_on_c, 2, 38, 127
4, 13632, Note_off_c, 2, 38, 64
4, 14040, Note_on_c, 2, 50, 127
4, 14136, Note_off_c, 2, 50, 64
4, 14160, Note_on_c, 2, 50, 127
4, 14256, Note_off_c, 2, 50, 64
4, 14280, Note_on_c, 2, 50, 127
4, 14376, Note_off_c, 2, 50, 64
4, 14400, Note_on_c, 2, 38, 127
4, 14592, Note_off_c, 2, 38, 64
4, 15000, Note_on_c, 2, 50, 127
4, 15096, Note_off_c, 2, 50, 64
4, 15120, Note_on_c, 2, 50, 127
4, 15216, Note_off_c, 2, 50, 64
4, 15240, Note_on_c, 2, 50, 127
4, 15336, Note_off_c, 2, 50, 64
4, 15360, Note_on_c, 2, 38, 127
4, 15552, Note_off_c, 2, 38, 64
4, 15960, Note_on_c, 2, 50, 127
4, 16056, Note_off_c, 2, 50, 64
4, 16080, Note_on_c, 2, 50, 127
4, 16176, Note_off_c, 2, 50, 64
4, 16200, Note_on_c, 2, 50, 127
4, 16296, Note_off_c, 2, 50, 64
4, 16320, Note_on_c, 2, 38, 127
4, 16416, Note_off_c, 2, 38, 64
4, 16440, Note_on_c, 2, 54, 127
4, 16536, Note_off_c, 2, 54, 64
4, 16560, Note_on_c, 2, 50, 127
4, 16656, Note_off_c, 2, 50, 64
4, 16680, Note_on_c, 2, 54, 127
4, 16776, Note_off_c, 2, 54, 64
4, 16800, Note_on_c, 2, 57, 127
4, 16896, Note_off_c, 2, 57, 64
4, 16920, Note_on_c, 2, 45, 127
4, 17016, Note_off_c, 2, 45, 64
4, 17040, Note_on_c, 2, 49, 127
4, 17136, Note_off_c, 2, 49, 64
4, 17160, Note_on_c, 2, 52, 127
4, 17256, Note_off_c, 2, 52, 64
4, 17280, Note_on_c, 2, 57, 127
4, 17472, Note_off_c, 2, 57, 64
4, 17760, Note_on_c, 2, 55, 127
4, 17952, Note_off_c, 2, 55, 64
4, 18240, Note_on_c, 2, 54, 127
4, 18432, Note_off_c, 2, 54, 64
4, 18720, Note_on_c, 2, 50, 127
4, 18912, Note_off_c, 2, 50, 64
4, 19200, Note_on_c, 2, 55, 127
4, 19392, Note_off_c, 2, 55, 64
4, 19680, Note_on_c, 2, 54, 127
4, 19872, Note_off_c, 2, 54, 64
4, 20160, Note_on_c, 2, 52, 127
4, 20352, Note_off_c, 2, 52, 64
4, 20640, Note_on_c, 2, 48, 127
4, 20832, Note_off_c, 2, 48, 64
4, 21120, Note_on_c, 2, 54, 127
4, 21312, Note_off_c, 2, 54, 64
4, 21600, Note_on_c, 2, 52, 127
4, 21792, Note_off_c, 2, 52, 64
4, 22080, Note_on_c, 2, 51, 127
4, 22272, Note_off_c, 2, 51, 64
4, 22560, Note_on_c, 2, 47, 127
4, 22752, Note_off_c, 2, 47, 64
4, 23040, Note_on_c, 2, 52, 127
4, 23232, Note_off_c, 2, 52, 64
4, 23520, Note_on_c, 2, 55, 127
4, 23712, Note_off_c, 2, 55, 64
4, 24000, Note_on_c, 2, 59, 127
4, 24192, Note_off_c, 2, 59, 64
4, 24480, Note_on_c, 2, 47, 127
4, 24672, Note_off_c, 2, 47, 64
4, 24960, Note_on_c, 2, 52, 127
4, 25152, Note_off_c, 2, 52, 64
4, 25200, Note_on_c, 2, 50, 127
4, 25392, Note_off_c, 2, 50, 64
4, 25440, Note_on_c, 2, 48, 127
4, 25632, Note_off_c, 2, 48, 64
4, 25680, Note_on_c, 2, 43, 127
4, 25872, Note_off_c, 2, 43, 64
4, 25920, Note_on_c, 2, 45, 127
4, 26112, Note_off_c, 2, 45, 64
4, 26160, Note_on_c, 2, 47, 127
4, 26352, Note_off_c, 2, 47, 64
4, 26400, Note_on_c, 2, 40, 127
4, 26496, Note_off_c, 2, 40, 64
4, 26520, Note_on_c, 2, 52, 127
4, 26616, Note_off_c, 2, 52, 64
4, 26640, Note_on_c, 2, 50, 127
4, 26736, Note_off_c, 2, 50, 64
4, 26760, Note_on_c, 2, 48, 127
4, 26856, Note_off_c, 2, 48, 64
4, 26880, Note_on_c, 2, 47, 127
4, 26976, Note_off_c, 2, 47, 64
4, 27000, Note_on_c, 2, 50, 127
4, 27096, Note_off_c, 2, 50, 64
4, 27120, Note_on_c, 2, 47, 127
4, 27216, Note_off_c, 2, 47, 64
4, 27240, Note_on_c, 2, 43, 127
4, 27336, Note_off_c, 2, 43, 64
4, 27360, Note_on_c, 2, 48, 127
4, 27456, Note_off_c, 2, 48, 64
4, 27480, Note_on_c, 2, 45, 127
4, 27576, Note_off_c, 2, 45, 64
4, 27600, Note_on_c, 2, 47, 127
4, 27696, Note_off_c, 2, 47, 64
4, 27720, Note_on_c, 2, 52, 127
4, 27816, Note_off_c, 2, 52, 64
4, 27840, Note_on_c, 2, 50, 127
4, 27936, Note_off_c, 2, 50, 64
4, 27960, Note_on_c, 2, 48, 127
4, 28056, Note_off_c, 2, 48, 64
4, 28080, Note_on_c, 2, 50, 127
4, 28176, Note_off_c, 2, 50, 64
4, 28200, Note_on_c, 2, 38, 127
4, 28296, Note_off_c, 2, 38, 64
4, 28320, Note_on_c, 2, 43, 127
4, 28416, Note_off_c, 2, 43, 64
4, 28440, Note_on_c, 2, 42, 127
4, 28536, Note_off_c, 2, 42, 64
4, 28560, Note_on_c, 2, 43, 127
4, 28656, Note_off_c, 2, 43, 64
4, 28680, Note_on_c, 2, 40, 127
4, 28776, Note_off_c, 2, 40, 64
4, 28800, Note_on_c, 2, 49, 127
4, 28992, Note_off_c, 2, 49, 64
4, 29160, Note_on_c, 2, 45, 127
4, 29256, Note_off_c, 2, 45, 64
4, 29280, Note_on_c, 2, 54, 127
4, 29472, Note_off_c, 2, 54, 64
4, 29640, Note_on_c, 2, 45, 127
4, 29736, Note_off_c, 2, 45, 64
4, 29760, Note_on_c, 2, 52, 127
4, 29856, Note_off_c, 2, 52, 64
4, 29880, Note_on_c, 2, 50, 127
4, 29976, Note_off_c, 2, 50, 64
4, 30000, Note_on_c, 2, 49, 127
4, 30096, Note_off_c, 2, 49, 64
4, 30120, Note_on_c, 2, 47, 127
4, 30216, Note_off_c, 2, 47, 64
4, 30240, Note_on_c, 2, 45, 127
4, 30336, Note_off_c, 2, 45, 64
4, 30360, Note_on_c, 2, 55, 127
4, 30456, Note_off_c, 2, 55, 64
4, 30480, Note_on_c, 2, 54, 127
4, 30576, Note_off_c, 2, 54, 64
4, 30600, Note_on_c, 2, 52, 127
4, 30696, Note_off_c, 2, 52, 64
4, 30720, Note_on_c, 2, 50, 127
4, 30912, Note_off_c, 2, 50, 64
4, 31200, Note_on_c, 2, 49, 127
4, 31392, Note_off_c, 2, 49, 64
4, 31680, Note_on_c, 2, 47, 127
4, 31872, Note_off_c, 2, 47, 64
4, 32160, Note_on_c, 2, 45, 127
4, 32352, Note_off_c, 2, 45, 64
4, 32640, Note_on_c, 2, 43, 127
4, 32832, Note_off_c, 2, 43, 64
4, 32880, Note_on_c, 2, 55, 127
4, 33072, Note_off_c, 2, 55, 64
4, 33120, Note_on_c, 2, 55, 127
4, 33312, Note_off_c, 2, 55, 64
4, 33360, Note_on_c, 2, 54, 127
4, 33456, Note_off_c, 2, 54, 64
4, 33480, Note_on_c, 2, 55, 127
4, 33576, Note_off_c, 2, 55, 64
4, 33600, Note_on_c, 2, 57, 127
4, 33792, Note_off_c, 2, 57, 64
4, 33840, Note_on_c, 2, 45, 127
4, 34032, Note_off_c, 2, 45, 64
4, 34080, Note_on_c, 2, 50, 127
4, 34176, Note_off_c, 2, 50, 64
4, 34200, Note_on_c, 2, 49, 127
4, 34296, Note_off_c, 2, 49, 64
4, 34320, Note_on_c, 2, 50, 127
4, 34416, Note_off_c, 2, 50, 64
4, 34440, Note_on_c, 2, 52, 127
4, 34536, Note_off_c, 2, 52, 64
4, 34560, Note_on_c, 2, 54, 127
4, 34608, Note_off_c, 2, 54, 64
4, 34620, Note_on_c, 2, 55, 127
4, 34668, Note_off_c, 2, 55, 64
4, 34680, Note_on_c, 2, 52, 127
4, 34728, Note_off_c, 2, 52, 64
4, 34740, Note_on_c, 2, 54, 127
4, 34788, Note_off_c, 2, 54, 64
4, 34800, Note_on_c, 2, 50, 127
4, 34848, Note_off_c, 2, 50, 64
4, 34860, Note_on_c, 2, 52, 127
4, 34908, Note_off_c, 2, 52, 64
4, 34920, Note_on_c, 2, 49, 127
4, 34968, Note_off_c, 2, 49, 64
4, 34980, Note_on_c, 2, 50, 127
4, 35028, Note_off_c, 2, 50, 64
4, 35040, Note_on_c, 2, 47, 127
4, 35136, Note_off_c, 2, 47, 64
4, 35160, Note_on_c, 2, 55, 127
4, 35256, Note_off_c, 2, 55, 64
4, 35280, Note_on_c, 2, 49, 127
4, 35376, Note_off_c, 2, 49, 64
4, 35400, Note_on_c, 2, 57, 127
4, 35496, Note_off_c, 2, 57, 64
4, 35520, Note_on_c, 2, 50, 127
4, 35616, Note_off_c, 2, 50, 64
4, 35640, Note_on_c, 2, 54, 127
4, 35688, Note_off_c, 2, 54, 64
4, 35700, Note_on_c, 2, 50, 127
4, 35748, Note_off_c, 2, 50, 64
4, 35760, Note_on_c, 2, 57, 127
4, 35808, Note_off_c, 2, 57, 64
4, 35820, Note_on_c, 2, 54, 127
4, 35868, Note_off_c, 2, 54, 64
4, 35880, Note_on_c, 2, 55, 127
4, 35928, Note_off_c, 2, 55, 64
4, 35940, Note_on_c, 2, 52, 127
4, 35988, Note_off_c, 2, 52, 64
4, 36000, Note_on_c, 2, 54, 127
4, 36096, Note_off_c, 2, 54, 64
4, 36120, Note_on_c, 2, 50, 127
4, 36216, Note_off_c, 2, 50, 64
4, 36240, Note_on_c, 2, 56, 127
4, 36336, Note_off_c, 2, 56, 64
4, 36360, Note_on_c, 2, 52, 127
4, 36456, Note_off_c, 2, 52, 64
4, 36480, Note_on_c, 2, 57, 127
4, 36528, Note_off_c, 2, 57, 64
4, 36540, Note_on_c, 2, 45, 127
4, 36588, Note_off_c, 2, 45, 64
4, 36600, Note_on_c, 2, 48, 127
4, 36648, Note_off_c, 2, 48, 64
4, 36660, Note_on_c, 2, 45, 127
4, 36708, Note_off_c, 2, 45, 64
4, 36720, Note_on_c, 2, 52, 127
4, 36768, Note_off_c, 2, 52, 64
4, 36780, Note_on_c, 2, 48, 127
4, 36828, Note_off_c, 2, 48, 64
4, 36840, Note_on_c, 2, 50, 127
4, 36888, Note_off_c, 2, 50, 64
4, 36900, Note_on_c, 2, 47, 127
4, 36948, Note_off_c, 2, 47, 64
4, 36960, Note_on_c, 2, 48, 127
4, 37056, Note_off_c, 2, 48, 64
4, 37080, Note_on_c, 2, 45, 127
4, 37176, Note_off_c, 2, 45, 64
4, 37200, Note_on_c, 2, 51, 127
4, 37296, Note_off_c, 2, 51, 64
4, 37320, Note_on_c, 2, 47, 127
4, 37416, Note_off_c, 2, 47, 64
4, 37440, Note_on_c, 2, 52, 127
4, 37536, Note_off_c, 2, 52, 64
4, 37560, Note_on_c, 2, 55, 127
4, 37608, Note_off_c, 2, 55, 64
4, 37620, Note_on_c, 2, 52, 127
4, 37668, Note_off_c, 2, 52, 64
4, 37680, Note_on_c, 2, 59, 127
4, 37728, Note_off_c, 2, 59, 64
4, 37740, Note_on_c, 2, 55, 127
4, 37788, Note_off_c, 2, 55, 64
4, 37800, Note_on_c, 2, 57, 127
4, 37848, Note_off_c, 2, 57, 64
4, 37860, Note_on_c, 2, 54, 127
4, 37908, Note_off_c, 2, 54, 64
4, 37920, Note_on_c, 2, 55, 127
4, 38016, Note_off_c, 2, 55, 64
4, 38040, Note_on_c, 2, 52, 127
4, 38136, Note_off_c, 2, 52, 64
4, 38160, Note_on_c, 2, 57, 127
4, 38513, Note_off_c, 2, 57, 64
4, 38520, Note_on_c, 2, 54, 127
4, 38633, Note_off_c, 2, 54, 64
4, 38640, Note_on_c, 2, 55, 127
4, 38753, Note_off_c, 2, 55, 64
4, 38760, Note_on_c, 2, 52, 127
4, 38873, Note_off_c, 2, 52, 64
4, 38880, Note_on_c, 2, 60, 127
4, 38993, Note_off_c, 2, 60, 64
4, 39000, Note_on_c, 2, 48, 127
4, 39113, Note_off_c, 2, 48, 64
4, 39120, Note_on_c, 2, 60, 127
4, 39312, Note_off_c, 2, 60, 64
4, 39360, Note_on_c, 2, 60, 127
4, 39456, Note_off_c, 2, 60, 64
4, 39480, Note_on_c, 2, 51, 127
4, 39576, Note_off_c, 2, 51, 64
4, 39600, Note_on_c, 2, 52, 127
4, 39696, Note_off_c, 2, 52, 64
4, 39720, Note_on_c, 2, 49, 127
4, 39816, Note_off_c, 2, 49, 64
4, 39840, Note_on_c, 2, 47, 127
4, 39936, Note_off_c, 2, 47, 64
4, 39960, Note_on_c, 2, 57, 127
4, 40056, Note_off_c, 2, 57, 64
4, 40080, Note_on_c, 2, 55, 127
4, 40176, Note_off_c, 2, 55, 64
4, 40200, Note_on_c, 2, 54, 127
4, 40296, Note_off_c, 2, 54, 64
4, 40320, Note_on_c, 2, 52, 127
4, 40512, Note_off_c, 2, 52, 64
4, 40800, Note_on_c, 2, 50, 127
4, 40992, Note_off_c, 2, 50, 64
4, 41280, Note_on_c, 2, 49, 127
4, 41472, Note_off_c, 2, 49, 64
4, 41760, Note_on_c, 2, 45, 127
4, 41952, Note_off_c, 2, 45, 64
4, 42240, Note_on_c, 2, 50, 127
4, 42432, Note_off_c, 2, 50, 64
4, 42720, Note_on_c, 2, 49, 127
4, 42912, Note_off_c, 2, 49, 64
4, 43200, Note_on_c, 2, 47, 127
4, 43392, Note_off_c, 2, 47, 64
4, 43680, Note_on_c, 2, 43, 127
4, 43872, Note_off_c, 2, 43, 64
4, 44160, Note_on_c, 2, 49, 127
4, 44352, Note_off_c, 2, 49, 64
4, 44640, Note_on_c, 2, 47, 127
4, 44832, Note_off_c, 2, 47, 64
4, 45120, Note_on_c, 2, 46, 127
4, 45312, Note_off_c, 2, 46, 64
4, 45600, Note_on_c, 2, 42, 127
4, 45792, Note_off_c, 2, 42, 64
4, 46080, Note_on_c, 2, 47, 127
4, 46272, Note_off_c, 2, 47, 64
4, 46560, Note_on_c, 2, 50, 127
4, 46752, Note_off_c, 2, 50, 64
4, 47040, Note_on_c, 2, 54, 127
4, 47232, Note_off_c, 2, 54, 64
4, 47520, Note_on_c, 2, 42, 127
4, 47712, Note_off_c, 2, 42, 64
4, 48000, Note_on_c, 2, 47, 127
4, 48192, Note_off_c, 2, 47, 64
4, 48240, Note_on_c, 2, 45, 127
4, 48432, Note_off_c, 2, 45, 64
4, 48480, Note_on_c, 2, 43, 127
4, 48672, Note_off_c, 2, 43, 64
4, 48720, Note_on_c, 2, 38, 127
4, 48912, Note_off_c, 2, 38, 64
4, 48960, Note_on_c, 2, 40, 127
4, 49152, Note_off_c, 2, 40, 64
4, 49200, Note_on_c, 2, 42, 127
4, 49392, Note_off_c, 2, 42, 64
4, 49440, Note_on_c, 2, 43, 127
4, 49536, Note_off_c, 2, 43, 64
4, 49560, Note_on_c, 2, 59, 127
4, 49656, Note_off_c, 2, 59, 64
4, 49680, Note_on_c, 2, 57, 127
4, 49776, Note_off_c, 2, 57, 64
4, 49800, Note_on_c, 2, 55, 127
4, 49896, Note_off_c, 2, 55, 64
4, 49920, Note_on_c, 2, 54, 127
4, 50016, Note_off_c, 2, 54, 64
4, 50040, Note_on_c, 2, 57, 127
4, 50136, Note_off_c, 2, 57, 64
4, 50160, Note_on_c, 2, 54, 127
4, 50256, Note_off_c, 2, 54, 64
4, 50280, Note_on_c, 2, 50, 127
4, 50376, Note_off_c, 2, 50, 64
4, 50400, Note_on_c, 2, 55, 127
4, 50496, Note_off_c, 2, 55, 64
4, 50520, Note_on_c, 2, 52, 127
4, 50616, Note_off_c, 2, 52, 64
4, 50640, Note_on_c, 2, 54, 127
4, 50736, Note_off_c, 2, 54, 64
4, 50760, Note_on_c, 2, 59, 127
4, 50856, Note_off_c, 2, 59, 64
4, 50880, Note_on_c, 2, 57, 127
4, 50976, Note_off_c, 2, 57, 64
4, 51000, Note_on_c, 2, 55, 127
4, 51096, Note_off_c, 2, 55, 64
4, 51120, Note_on_c, 2, 57, 127
4, 51216, Note_off_c, 2, 57, 64
4, 51240, Note_on_c, 2, 45, 127
4, 51336, Note_off_c, 2, 45, 64
4, 51360, Note_on_c, 2, 50, 127
4, 51456, Note_off_c, 2, 50, 64
4, 51480, Note_on_c, 2, 62, 127
4, 51576, Note_off_c, 2, 62, 64
4, 51600, Note_on_c, 2, 60, 127
4, 51696, Note_off_c, 2, 60, 64
4, 51720, Note_on_c, 2, 59, 127
4, 51816, Note_off_c, 2, 59, 64
4, 51840, Note_on_c, 2, 57, 127
4, 51888, Note_off_c, 2, 57, 64
4, 51900, Note_on_c, 2, 59, 127
4, 51948, Note_off_c, 2, 59, 64
4, 51960, Note_on_c, 2, 55, 127
4, 52008, Note_off_c, 2, 55, 64
4, 52020, Note_on_c, 2, 57, 127
4, 52068, Note_off_c, 2, 57, 64
4, 52080, Note_on_c, 2, 54, 127
4, 52128, Note_off_c, 2, 54, 64
4, 52140, Note_on_c, 2, 55, 127
4, 52188, Note_off_c, 2, 55, 64
4, 52200, Note_on_c, 2, 52, 127
4, 52248, Note_off_c, 2, 52, 64
4, 52260, Note_on_c, 2, 54, 127
4, 52308, Note_off_c, 2, 54, 64
4, 52320, Note_on_c, 2, 50, 127
4, 52848, Note_off_c, 2, 50, 64
4, 52860, Note_on_c, 2, 55, 127
4, 52908, Note_off_c, 2, 55, 64
4, 52920, Note_on_c, 2, 54, 127
4, 52968, Note_off_c, 2, 54, 64
4, 52980, Note_on_c, 2, 55, 127
4, 53028, Note_off_c, 2, 55, 64
4, 53040, Note_on_c, 2, 52, 127
4, 53088, Note_off_c, 2, 52, 64
4, 53100, Note_on_c, 2, 54, 127
4, 53148, Note_off_c, 2, 54, 64
4, 53160, Note_on_c, 2, 50, 127
4, 53208, Note_off_c, 2, 50, 64
4, 53220, Note_on_c, 2, 52, 127
4, 53268, Note_off_c, 2, 52, 64
4, 53280, Note_on_c, 2, 49, 127
4, 53808, Note_off_c, 2, 49, 64
4, 53820, Note_on_c, 2, 54, 127
4, 53868, Note_off_c, 2, 54, 64
4, 53880, Note_on_c, 2, 52, 127
4, 53928, Note_off_c, 2, 52, 64
4, 53940, Note_on_c, 2, 54, 127
4, 53988, Note_off_c, 2, 54, 64
4, 54000, Note_on_c, 2, 51, 127
4, 54048, Note_off_c, 2, 51, 64
4, 54060, Note_on_c, 2, 52, 127
4, 54108, Note_off_c, 2, 52, 64
4, 54120, Note_on_c, 2, 49, 127
4, 54168, Note_off_c, 2, 49, 64
4, 54180, Note_on_c, 2, 51, 127
4, 54228, Note_off_c, 2, 51, 64
4, 54240, Note_on_c, 2, 47, 127
4, 54768, Note_off_c, 2, 47, 64
4, 54780, Note_on_c, 2, 52, 127
4, 54828, Note_off_c, 2, 52, 64
4, 54840, Note_on_c, 2, 50, 127
4, 54888, Note_off_c, 2, 50, 64
4, 54900, Note_on_c, 2, 52, 127
4, 54948, Note_off_c, 2, 52, 64
4, 54960, Note_on_c, 2, 48, 127
4, 55008, Note_off_c, 2, 48, 64
4, 55020, Note_on_c, 2, 50, 127
4, 55068, Note_off_c, 2, 50, 64
4, 55080, Note_on_c, 2, 47, 127
4, 55128, Note_off_c, 2, 47, 64
4, 55140, Note_on_c, 2, 48, 127
4, 55188, Note_off_c, 2, 48, 64
4, 55200, Note_on_c, 2, 45, 127
4, 55248, Note_off_c, 2, 45, 64
4, 55260, Note_on_c, 2, 57, 127
4, 55308, Note_off_c, 2, 57, 64
4, 55320, Note_on_c, 2, 55, 127
4, 55368, Note_off_c, 2, 55, 64
4, 55380, Note_on_c, 2, 57, 127
4, 55428, Note_off_c, 2, 57, 64
4, 55440, Note_on_c, 2, 53, 127
4, 55488, Note_off_c, 2, 53, 64
4, 55500, Note_on_c, 2, 55, 127
4, 55548, Note_off_c, 2, 55, 64
4, 55560, Note_on_c, 2, 52, 127
4, 55608, Note_off_c, 2, 52, 64
4, 55620, Note_on_c, 2, 53, 127
4, 55668, Note_off_c, 2, 53, 64
4, 55680, Note_on_c, 2, 50, 127
4, 55728, Note_off_c, 2, 50, 64
4, 55740, Note_on_c, 2, 62, 127
4, 55788, Note_off_c, 2, 62, 64
4, 55800, Note_on_c, 2, 60, 127
4, 55848, Note_off_c, 2, 60, 64
4, 55860, Note_on_c, 2, 62, 127
4, 55908, Note_off_c, 2, 62, 64
4, 55920, Note_on_c, 2, 59, 127
4, 55968, Note_off_c, 2, 59, 64
4, 55980, Note_on_c, 2, 60, 127
4, 56028, Note_off_c, 2, 60, 64
4, 56040, Note_on_c, 2, 57, 127
4, 56088, Note_off_c, 2, 57, 64
4, 56100, Note_on_c, 2, 59, 127
4, 56148, Note_off_c, 2, 59, 64
4, 56160, Note_on_c, 2, 55, 127
4, 56688, Note_off_c, 2, 55, 64
4, 56700, Note_on_c, 2, 60, 127
4, 56748, Note_off_c, 2, 60, 64
4, 56760, Note_on_c, 2, 59, 127
4, 56808, Note_off_c, 2, 59, 64
4, 56820, Note_on_c, 2, 60, 127
4, 56868, Note_off_c, 2, 60, 64
4, 56880, Note_on_c, 2, 57, 127
4, 56928, Note_off_c, 2, 57, 64
4, 56940, Note_on_c, 2, 59, 127
4, 56988, Note_off_c, 2, 59, 64
4, 57000, Note_on_c, 2, 55, 127
4, 57048, Note_off_c, 2, 55, 64
4, 57060, Note_on_c, 2, 57, 127
4, 57108, Note_off_c, 2, 57, 64
4, 57120, Note_on_c, 2, 54, 127
4, 57648, Note_off_c, 2, 54, 64
4, 57660, Note_on_c, 2, 59, 127
4, 57708, Note_off_c, 2, 59, 64
4, 57720, Note_on_c, 2, 57, 127
4, 57768, Note_off_c, 2, 57, 64
4, 57780, Note_on_c, 2, 59, 127
4, 57828, Note_off_c, 2, 59, 64
4, 57840, Note_on_c, 2, 56, 127
4, 57888, Note_off_c, 2, 56, 64
4, 57900, Note_on_c, 2, 57, 127
4, 57948, Note_off_c, 2, 57, 64
4, 57960, Note_on_c, 2, 54, 127
4, 58008, Note_off_c, 2, 54, 64
4, 58020, Note_on_c, 2, 56, 127
4, 58068, Note_off_c, 2, 56, 64
4, 58080, Note_on_c, 2, 52, 127
4, 58608, Note_off_c, 2, 52, 64
4, 58620, Note_on_c, 2, 57, 127
4, 58668, Note_off_c, 2, 57, 64
4, 58680, Note_on_c, 2, 55, 127
4, 58728, Note_off_c, 2, 55, 64
4, 58740, Note_on_c, 2, 57, 127
4, 58788, Note_off_c, 2, 57, 64
4, 58800, Note_on_c, 2, 54, 127
4, 58848, Note_off_c, 2, 54, 64
4, 58860, Note_on_c, 2, 55, 127
4, 58908, Note_off_c, 2, 55, 64
4, 58920, Note_on_c, 2, 52, 127
4, 58968, Note_off_c, 2, 52, 64
4, 58980, Note_on_c, 2, 54, 127
4, 59028, Note_off_c, 2, 54, 64
4, 59040, Note_on_c, 2, 50, 127
4, 59088, Note_off_c, 2, 50, 64
4, 59100, Note_on_c, 2, 54, 127
4, 59148, Note_off_c, 2, 54, 64
4, 59160, Note_on_c, 2, 52, 127
4, 59208, Note_off_c, 2, 52, 64
4, 59220, Note_on_c, 2, 54, 127
4, 59268, Note_off_c, 2, 54, 64
4, 59280, Note_on_c, 2, 50, 127
4, 59328, Note_off_c, 2, 50, 64
4, 59340, Note_on_c, 2, 52, 127
4, 59388, Note_off_c, 2, 52, 64
4, 59400, Note_on_c, 2, 48, 127
4, 59448, Note_off_c, 2, 48, 64
4, 59460, Note_on_c, 2, 50, 127
4, 59508, Note_off_c, 2, 50, 64
4, 59520, Note_on_c, 2, 47, 127
4, 59568, Note_off_c, 2, 47, 64
4, 59580, Note_on_c, 2, 59, 127
4, 59628, Note_off_c, 2, 59, 64
4, 59640, Note_on_c, 2, 57, 127
4, 59688, Note_off_c, 2, 57, 64
4, 59700, Note_on_c, 2, 59, 127
4, 59748, Note_off_c, 2, 59, 64
4, 59760, Note_on_c, 2, 55, 127
4, 59808, Note_off_c, 2, 55, 64
4, 59820, Note_on_c, 2, 57, 127
4, 59868, Note_off_c, 2, 57, 64
4, 59880, Note_on_c, 2, 54, 127
4, 59928, Note_off_c, 2, 54, 64
4, 59940, Note_on_c, 2, 55, 127
4, 59997, Note_off_c, 2, 55, 64
4, 60000, Note_on_c, 2, 52, 127
4, 60096, Note_off_c, 2, 52, 64
4, 60120, Note_on_c, 2, 57, 127
4, 60216, Note_off_c, 2, 57, 64
4, 60240, Note_on_c, 2, 54, 127
4, 60336, Note_off_c, 2, 54, 64
4, 60360, Note_on_c, 2, 50, 127
4, 60456, Note_off_c, 2, 50, 64
4, 60480, Note_on_c, 2, 55, 127
4, 60528, Note_off_c, 2, 55, 64
4, 60540, Note_on_c, 2, 43, 127
4, 60588, Note_off_c, 2, 43, 64
4, 60600, Note_on_c, 2, 47, 127
4, 60648, Note_off_c, 2, 47, 64
4, 60660, Note_on_c, 2, 43, 127
4, 60708, Note_off_c, 2, 43, 64
4, 60720, Note_on_c, 2, 50, 127
4, 60768, Note_off_c, 2, 50, 64
4, 60780, Note_on_c, 2, 47, 127
4, 60828, Note_off_c, 2, 47, 64
4, 60840, Note_on_c, 2, 48, 127
4, 60888, Note_off_c, 2, 48, 64
4, 60900, Note_on_c, 2, 45, 127
4, 60948, Note_off_c, 2, 45, 64
4, 60960, Note_on_c, 2, 47, 127
4, 61056, Note_off_c, 2, 47, 64
4, 61080, Note_on_c, 2, 43, 127
4, 61176, Note_off_c, 2, 43, 64
4, 61200, Note_on_c, 2, 49, 127
4, 61296, Note_off_c, 2, 49, 64
4, 61320, Note_on_c, 2, 45, 127
4, 61416, Note_off_c, 2, 45, 64
4, 61440, Note_on_c, 2, 50, 127
4, 61536, Note_off_c, 2, 50, 64
4, 61560, Note_on_c, 2, 53, 127
4, 61608, Note_off_c, 2, 53, 64
4, 61620, Note_on_c, 2, 50, 127
4, 61668, Note_off_c, 2, 50, 64
4, 61680, Note_on_c, 2, 57, 127
4, 61728, Note_off_c, 2, 57, 64
4, 61740, Note_on_c, 2, 53, 127
4, 61788, Note_off_c, 2, 53, 64
4, 61800, Note_on_c, 2, 55, 127
4, 61848, Note_off_c, 2, 55, 64
4, 61860, Note_on_c, 2, 52, 127
4, 61908, Note_off_c, 2, 52, 64
4, 61920, Note_on_c, 2, 53, 127
4, 62016, Note_off_c, 2, 53, 64
4, 62040, Note_on_c, 2, 50, 127
4, 62136, Note_off_c, 2, 50, 64
4, 62160, Note_on_c, 2, 56, 127
4, 62256, Note_off_c, 2, 56, 64
4, 62280, Note_on_c, 2, 52, 127
4, 62376, Note_off_c, 2, 52, 64
4, 62400, Note_on_c, 2, 57, 127
4, 62448, Note_off_c, 2, 57, 64
4, 62460, Note_on_c, 2, 45, 127
4, 62508, Note_off_c, 2, 45, 64
4, 62520, Note_on_c, 2, 48, 127
4, 62568, Note_off_c, 2, 48, 64
4, 62580, Note_on_c, 2, 45, 127
4, 62628, Note_off_c, 2, 45, 64
4, 62640, Note_on_c, 2, 52, 127
4, 62688, Note_off_c, 2, 52, 64
4, 62700, Note_on_c, 2, 48, 127
4, 62748, Note_off_c, 2, 48, 64
4, 62760, Note_on_c, 2, 50, 127
4, 62808, Note_off_c, 2, 50, 64
4, 62820, Note_on_c, 2, 47, 127
4, 62868, Note_off_c, 2, 47, 64
4, 62880, Note_on_c, 2, 48, 127
4, 62976, Note_off_c, 2, 48, 64
4, 63000, Note_on_c, 2, 45, 127
4, 63096, Note_off_c, 2, 45, 64
4, 63120, Note_on_c, 2, 50, 127
4, 63456, Note_off_c, 2, 50, 64
4, 63480, Note_on_c, 2, 47, 127
4, 63576, Note_off_c, 2, 47, 64
4, 63600, Note_on_c, 2, 48, 127
4, 63696, Note_off_c, 2, 48, 64
4, 63720, Note_on_c, 2, 45, 127
4, 63816, Note_off_c, 2, 45, 64
4, 63840, Note_on_c, 2, 53, 127
4, 63936, Note_off_c, 2, 53, 64
4, 63960, Note_on_c, 2, 41, 127
4, 64056, Note_off_c, 2, 41, 64
4, 64080, Note_on_c, 2, 53, 127
4, 64416, Note_off_c, 2, 53, 64
4, 64440, Note_on_c, 2, 44, 127
4, 64536, Note_off_c, 2, 44, 64
4, 64560, Note_on_c, 2, 45, 127
4, 64656, Note_off_c, 2, 45, 64
4, 64680, Note_on_c, 2, 39, 127
4, 64776, Note_off_c, 2, 39, 64
4, 64800, Note_on_c, 2, 40, 127
4, 64992, Note_off_c, 2, 40, 64
4, 65520, Note_on_c, 2, 57, 127
4, 65712, Note_off_c, 2, 57, 64
4, 66000, Note_on_c, 2, 55, 127
4, 66192, Note_off_c, 2, 55, 64
4, 66480, Note_on_c, 2, 54, 127
4, 66672, Note_off_c, 2, 54, 64
4, 66960, Note_on_c, 2, 50, 127
4, 67152, Note_off_c, 2, 50, 64
4, 67440, Note_on_c, 2, 55, 127
4, 67632, Note_off_c, 2, 55, 64
4, 67920, Note_on_c, 2, 54, 127
4, 68112, Note_off_c, 2, 54, 64
4, 68400, Note_on_c, 2, 52, 127
4, 68592, Note_off_c, 2, 52, 64
4, 68880, Note_on_c, 2, 48, 127
4, 69072, Note_off_c, 2, 48, 64
4, 69360, Note_on_c, 2, 54, 127
4, 69552, Note_off_c, 2, 54, 64
4, 69840, Note_on_c, 2, 52, 127
4, 70032, Note_off_c, 2, 52, 64
4, 70320, Note_on_c, 2, 51, 127
4, 70512, Note_off_c, 2, 51, 64
4, 70800, Note_on_c, 2, 47, 127
4, 70992, Note_off_c, 2, 47, 64
4, 71280, Note_on_c, 2, 52, 127
4, 71472, Note_off_c, 2, 52, 64
4, 71760, Note_on_c, 2, 50, 127
4, 71952, Note_off_c, 2, 50, 64
4, 72240, Note_on_c, 2, 49, 127
4, 72432, Note_off_c, 2, 49, 64
4, 72720, Note_on_c, 2, 45, 127
4, 72912, Note_off_c, 2, 45, 64
4, 72960, Note_on_c, 2, 38, 127
4, 76032, Note_off_c, 2, 38, 64
4, 76800, Note_on_c, 2, 55, 127
4, 76896, Note_off_c, 2, 55, 64
4, 76920, Note_on_c, 2, 54, 127
4, 77016, Note_off_c, 2, 54, 64
4, 77040, Note_on_c, 2, 55, 127
4, 77136, Note_off_c, 2, 55, 64
4, 77160, Note_on_c, 2, 57, 127
4, 77256, Note_off_c, 2, 57, 64
4, 77280, Note_on_c, 2, 59, 127
4, 77376, Note_off_c, 2, 59, 64
4, 77400, Note_on_c, 2, 57, 127
4, 77496, Note_off_c, 2, 57, 64
4, 77520, Note_on_c, 2, 59, 127
4, 77616, Note_off_c, 2, 59, 64
4, 77640, Note_on_c, 2, 60, 127
4, 77736, Note_off_c, 2, 60, 64
4, 77760, Note_on_c, 2, 62, 127
4, 77952, Note_off_c, 2, 62, 64
4, 78000, Note_on_c, 2, 50, 127
4, 78192, Note_off_c, 2, 50, 64
4, 78240, Note_on_c, 2, 43, 127
4, 78336, Note_off_c, 2, 43, 64
4, 78360, Note_on_c, 2, 59, 127
4, 78456, Note_off_c, 2, 59, 64
4, 78480, Note_on_c, 2, 57, 127
4, 78576, Note_off_c, 2, 57, 64
4, 78600, Note_on_c, 2, 55, 127
4, 78696, Note_off_c, 2, 55, 64
4, 78720, Note_on_c, 2, 54, 127
4, 78816, Note_off_c, 2, 54, 64
4, 78840, Note_on_c, 2, 52, 127
4, 78936, Note_off_c, 2, 52, 64
4, 78960, Note_on_c, 2, 50, 127
4, 79056, Note_off_c, 2, 50, 64
4, 79080, Note_on_c, 2, 52, 127
4, 79176, Note_off_c, 2, 52, 64
4, 79200, Note_on_c, 2, 54, 127
4, 79296, Note_off_c, 2, 54, 64
4, 79320, Note_on_c, 2, 52, 127
4, 79416, Note_off_c, 2, 52, 64
4, 79440, Note_on_c, 2, 54, 127
4, 79536, Note_off_c, 2, 54, 64
4, 79560, Note_on_c, 2, 55, 127
4, 79656, Note_off_c, 2, 55, 64
4, 79680, Note_on_c, 2, 57, 127
4, 79872, Note_off_c, 2, 57, 64
4, 79920, Note_on_c, 2, 45, 127
4, 80112, Note_off_c, 2, 45, 64
4, 80160, Note_on_c, 2, 38, 127
4, 80256, Note_off_c, 2, 38, 64
4, 80280, Note_on_c, 2, 50, 127
4, 80376, Note_off_c, 2, 50, 64
4, 80400, Note_on_c, 2, 54, 127
4, 80496, Note_off_c, 2, 54, 64
4, 80520, Note_on_c, 2, 57, 127
4, 80616, Note_off_c, 2, 57, 64
4, 80640, Note_on_c, 2, 60, 127
4, 80865, Note_off_c, 2, 60, 64
4, 81000, Note_on_c, 2, 50, 127
4, 81096, Note_off_c, 2, 50, 64
4, 81120, Note_on_c, 2, 59, 127
4, 81312, Note_off_c, 2, 59, 64
4, 81480, Note_on_c, 2, 50, 127
4, 81576, Note_off_c, 2, 50, 64
4, 81600, Note_on_c, 2, 57, 127
4, 81696, Note_off_c, 2, 57, 64
4, 81720, Note_on_c, 2, 55, 127
4, 81816, Note_off_c, 2, 55, 64
4, 81840, Note_on_c, 2, 54, 127
4, 81936, Note_off_c, 2, 54, 64
4, 81960, Note_on_c, 2, 52, 127
4, 82056, Note_off_c, 2, 52, 64
4, 82080, Note_on_c, 2, 50, 127
4, 82176, Note_off_c, 2, 50, 64
4, 82200, Note_on_c, 2, 48, 127
4, 82296, Note_off_c, 2, 48, 64
4, 82320, Note_on_c, 2, 47, 127
4, 82416, Note_off_c, 2, 47, 64
4, 82440, Note_on_c, 2, 45, 127
4, 82536, Note_off_c, 2, 45, 64
4, 82560, Note_on_c, 2, 43, 127
4, 82752, Note_off_c, 2, 43, 64
4, 83040, Note_on_c, 2, 42, 127
4, 83232, Note_off_c, 2, 42, 64
4, 83520, Note_on_c, 2, 40, 127
4, 83712, Note_off_c, 2, 40, 64
4, 84000, Note_on_c, 2, 38, 127
4, 84192, Note_off_c, 2, 38, 64
4, 84480, Note_on_c, 2, 36, 127
4, 84672, Note_off_c, 2, 36, 64
4, 84720, Note_on_c, 2, 48, 127
4, 85152, Note_off_c, 2, 48, 64
4, 85200, Note_on_c, 2, 47, 127
4, 85296, Note_off_c, 2, 47, 64
4, 85320, Note_on_c, 2, 48, 127
4, 85416, Note_off_c, 2, 48, 64
4, 85440, Note_on_c, 2, 50, 127
4, 85680, Note_off_c, 2, 50, 0
4, 85680, Note_on_c, 2, 38, 127
4, 85920, Note_off_c, 2, 38, 0
4, 85920, Note_on_c, 2, 43, 127
4, 86400, Note_off_c, 2, 43, 0
4, 86400, End_track
0, 0, End_of_file
