0, 0, Header, 1, 5, 240
1, 0, Start_track
1, 0, Title_t, "untitled"
1, 0, SMPTE_offset, 96, 0, 3, 0, 0
1, 0, Time_signature, 1, 2, 24, 8
1, 0, Key_signature, 0, "major"
1, 0, Tempo, 833333
1, 240, Time_signature, 3, 2, 24, 8
1, 120480, Time_signature, 4, 2, 24, 8
1, 121440, Time_signature, 3, 2, 24, 8
1, 121440, Tempo, 697674
1, 204480, Tempo, 810811
1, 204720, Tempo, 967742
1, 204960, Tempo, 750000
1, 208800, Tempo, 779221
1, 209040, Tempo, 821918
1, 209280, Tempo, 857143
1, 209520, Tempo, 923077
1, 209760, Tempo, 1000000
1, 210000, Tempo, 1090909
1, 210240, Tempo, 1200000
1, 210480, Tempo, 1333333
1, 210480, End_track
2, 0, Start_track
2, 0, MIDI_port, 0
2, 0, Title_t, "Passacaglia and Fugue in C-Minor"
2, 0, Program_c, 0, 19
2, 0, Control_c, 0, 7, 127
2, 0, Control_c, 0, 10, 64
2, 5880, Note_on_c, 0, 72, 84
2, 5880, Note_on_c, 0, 67, 84
2, 6144, Note_on_c, 0, 72, 0
2, 6180, Note_on_c, 0, 74, 84
2, 6192, Note_on_c, 0, 67, 0
2, 6228, Note_on_c, 0, 74, 0
2, 6240, Note_on_c, 0, 67, 84
2, 6240, Note_on_c, 0, 71, 84
2, 6432, Note_on_c, 0, 71, 0
2, 6432, Note_on_c, 0, 67, 0
2, 6600, Note_on_c, 0, 75, 84
2, 6600, Note_on_c, 0, 72, 84
2, 6864, Note_on_c, 0, 75, 0
2, 6900, Note_on_c, 0, 77, 84
2, 6912, Note_on_c, 0, 72, 0
2, 6948, Note_on_c, 0, 77, 0
2, 6960, Note_on_c, 0, 74, 84
2, 6960, Note_on_c, 0, 68, 84
2, 7152, Note_on_c, 0, 68, 0
2, 7152, Note_on_c, 0, 74, 0
2, 7320, Note_on_c, 0, 74, 84
2, 7320, Note_on_c, 0, 67, 84
2, 7536, Note_on_c, 0, 67, 0
2, 7560, Note_on_c, 0, 65, 84
2, 7584, Note_on_c, 0, 74, 0
2, 7620, Note_on_c, 0, 75, 84
2, 7668, Note_on_c, 0, 75, 0
2, 7680, Note_on_c, 0, 72, 84
2, 7872, Note_on_c, 0, 72, 0
2, 7872, Note_on_c, 0, 65, 0
2, 8040, Note_on_c, 0, 72, 84
2, 8040, Note_on_c, 0, 68, 84
2, 8304, Note_on_c, 0, 72, 0
2, 8340, Note_on_c, 0, 74, 84
2, 8352, Note_on_c, 0, 68, 0
2, 8388, Note_on_c, 0, 74, 0
2, 8400, Note_on_c, 0, 67, 84
2, 8400, Note_on_c, 0, 71, 84
2, 8592, Note_on_c, 0, 71, 0
2, 8592, Note_on_c, 0, 67, 0
2, 8760, Note_on_c, 0, 80, 84
2, 8760, Note_on_c, 0, 71, 84
2, 9024, Note_on_c, 0, 80, 0
2, 9060, Note_on_c, 0, 82, 84
2, 9072, Note_on_c, 0, 71, 0
2, 9108, Note_on_c, 0, 82, 0
2, 9120, Note_on_c, 0, 79, 84
2, 9120, Note_on_c, 0, 72, 84
2, 9312, Note_on_c, 0, 72, 0
2, 9312, Note_on_c, 0, 79, 0
2, 9480, Note_on_c, 0, 68, 84
2, 9480, Note_on_c, 0, 77, 84
2, 9744, Note_on_c, 0, 77, 0
2, 9780, Note_on_c, 0, 79, 84
2, 9792, Note_on_c, 0, 68, 0
2, 9828, Note_on_c, 0, 79, 0
2, 9840, Note_on_c, 0, 67, 84
2, 9840, Note_on_c, 0, 75, 84
2, 10032, Note_on_c, 0, 75, 0
2, 10032, Note_on_c, 0, 67, 0
2, 10200, Note_on_c, 0, 68, 84
2, 10200, Note_on_c, 0, 75, 84
2, 10416, Note_on_c, 0, 68, 0
2, 10440, Note_on_c, 0, 67, 84
2, 10464, Note_on_c, 0, 75, 0
2, 10500, Note_on_c, 0, 77, 84
2, 10536, Note_on_c, 0, 67, 0
2, 10548, Note_on_c, 0, 77, 0
2, 10560, Note_on_c, 0, 65, 84
2, 10560, Note_on_c, 0, 74, 84
2, 10752, Note_on_c, 0, 74, 0
2, 10752, Note_on_c, 0, 65, 0
2, 10920, Note_on_c, 0, 65, 84
2, 10920, Note_on_c, 0, 74, 84
2, 11184, Note_on_c, 0, 74, 0
2, 11184, Note_on_c, 0, 65, 0
2, 11220, Note_on_c, 0, 67, 84
2, 11220, Note_on_c, 0, 75, 84
2, 11268, Note_on_c, 0, 75, 0
2, 11268, Note_on_c, 0, 67, 0
2, 11280, Note_on_c, 0, 72, 84
2, 11280, Note_on_c, 0, 63, 84
2, 11472, Note_on_c, 0, 63, 0
2, 11472, Note_on_c, 0, 72, 0
2, 11640, Note_on_c, 0, 72, 96
2, 11640, Note_on_c, 0, 67, 96
2, 11904, Note_on_c, 0, 72, 0
2, 11940, Note_on_c, 0, 74, 96
2, 11952, Note_on_c, 0, 67, 0
2, 11988, Note_on_c, 0, 74, 0
2, 12000, Note_on_c, 0, 71, 96
2, 12000, Note_on_c, 0, 67, 96
2, 12192, Note_on_c, 0, 67, 0
2, 12192, Note_on_c, 0, 71, 0
2, 12360, Note_on_c, 0, 70, 96
2, 12360, Note_on_c, 0, 67, 96
2, 12624, Note_on_c, 0, 70, 0
2, 12660, Note_on_c, 0, 72, 96
2, 12672, Note_on_c, 0, 67, 0
2, 12708, Note_on_c, 0, 72, 0
2, 12720, Note_on_c, 0, 68, 96
2, 12720, Note_on_c, 0, 65, 96
2, 12912, Note_on_c, 0, 68, 0
2, 12960, Note_on_c, 0, 65, 0
2, 13080, Note_on_c, 0, 63, 96
2, 13080, Note_on_c, 0, 67, 96
2, 13344, Note_on_c, 0, 67, 0
2, 13380, Note_on_c, 0, 68, 96
2, 13428, Note_on_c, 0, 68, 0
2, 13440, Note_on_c, 0, 63, 0
2, 13440, Note_on_c, 0, 65, 96
2, 13440, Note_on_c, 0, 62, 96
2, 13632, Note_on_c, 0, 65, 0
2, 13680, Note_on_c, 0, 62, 0
2, 13800, Note_on_c, 0, 68, 96
2, 13800, Note_on_c, 0, 63, 96
2, 14016, Note_on_c, 0, 68, 0
2, 14040, Note_on_c, 0, 67, 96
2, 14112, Note_on_c, 0, 63, 0
2, 14136, Note_on_c, 0, 67, 0
2, 14160, Note_on_c, 0, 62, 96
2, 14160, Note_on_c, 0, 67, 96
2, 14352, Note_on_c, 0, 67, 0
2, 14352, Note_on_c, 0, 62, 0
2, 14520, Note_on_c, 0, 59, 96
2, 14520, Note_on_c, 0, 65, 96
2, 14784, Note_on_c, 0, 65, 0
2, 14820, Note_on_c, 0, 67, 96
2, 14832, Note_on_c, 0, 59, 0
2, 14868, Note_on_c, 0, 67, 0
2, 14880, Note_on_c, 0, 60, 96
2, 14880, Note_on_c, 0, 63, 96
2, 15072, Note_on_c, 0, 63, 0
2, 15072, Note_on_c, 0, 60, 0
2, 15240, Note_on_c, 0, 56, 96
2, 15240, Note_on_c, 0, 62, 96
2, 15456, Note_on_c, 0, 56, 0
2, 15480, Note_on_c, 0, 55, 96
2, 15504, Note_on_c, 0, 62, 0
2, 15540, Note_on_c, 0, 63, 96
2, 15576, Note_on_c, 0, 55, 0
2, 15588, Note_on_c, 0, 63, 0
2, 15600, Note_on_c, 0, 60, 96
2, 15600, Note_on_c, 0, 55, 96
2, 15792, Note_on_c, 0, 55, 0
2, 15792, Note_on_c, 0, 60, 0
2, 15960, Note_on_c, 0, 56, 96
2, 15960, Note_on_c, 0, 60, 96
2, 16056, Note_on_c, 0, 56, 0
2, 16080, Note_on_c, 0, 56, 96
2, 16224, Note_on_c, 0, 60, 0
2, 16260, Note_on_c, 0, 62, 96
2, 16308, Note_on_c, 0, 62, 0
2, 16320, Note_on_c, 0, 59, 96
2, 16368, Note_on_c, 0, 56, 0
2, 16440, Note_on_c, 0, 56, 96
2, 16536, Note_on_c, 0, 56, 0
2, 16560, Note_on_c, 0, 55, 96
2, 16608, Note_on_c, 0, 59, 0
2, 16680, Note_on_c, 0, 59, 96
2, 16704, Note_on_c, 0, 55, 0
2, 16740, Note_on_c, 0, 53, 96
2, 16776, Note_on_c, 0, 59, 0
2, 16788, Note_on_c, 0, 53, 0
2, 16800, Note_on_c, 0, 51, 96
2, 16800, Note_on_c, 0, 60, 96
2, 16896, Note_on_c, 0, 60, 0
2, 16920, Note_on_c, 0, 67, 96
2, 16992, Note_on_c, 0, 51, 0
2, 17016, Note_on_c, 0, 67, 0
2, 17040, Note_on_c, 0, 72, 96
2, 17136, Note_on_c, 0, 72, 0
2, 17160, Note_on_c, 0, 74, 96
2, 17256, Note_on_c, 0, 74, 0
2, 17280, Note_on_c, 0, 75, 96
2, 17376, Note_on_c, 0, 75, 0
2, 17400, Note_on_c, 0, 77, 96
2, 17496, Note_on_c, 0, 77, 0
2, 17520, Note_on_c, 0, 74, 96
2, 17640, Note_on_c, 0, 62, 96
2, 17736, Note_on_c, 0, 62, 0
2, 17760, Note_on_c, 0, 67, 96
2, 17856, Note_on_c, 0, 67, 0
2, 17880, Note_on_c, 0, 68, 96
2, 17904, Note_on_c, 0, 74, 0
2, 17976, Note_on_c, 0, 68, 0
2, 18000, Note_on_c, 0, 70, 96
2, 18000, Note_on_c, 0, 79, 96
2, 18096, Note_on_c, 0, 70, 0
2, 18120, Note_on_c, 0, 72, 96
2, 18192, Note_on_c, 0, 79, 0
2, 18216, Note_on_c, 0, 72, 0
2, 18240, Note_on_c, 0, 68, 96
2, 18240, Note_on_c, 0, 79, 96
2, 18432, Note_on_c, 0, 79, 0
2, 18480, Note_on_c, 0, 77, 96
2, 18528, Note_on_c, 0, 68, 0
2, 18600, Note_on_c, 0, 68, 96
2, 18672, Note_on_c, 0, 77, 0
2, 18696, Note_on_c, 0, 68, 0
2, 18720, Note_on_c, 0, 75, 96
2, 18720, Note_on_c, 0, 67, 96
2, 18816, Note_on_c, 0, 67, 0
2, 18840, Note_on_c, 0, 65, 96
2, 18912, Note_on_c, 0, 75, 0
2, 18936, Note_on_c, 0, 65, 0
2, 18960, Note_on_c, 0, 75, 96
2, 18960, Note_on_c, 0, 63, 96
2, 19056, Note_on_c, 0, 63, 0
2, 19056, Note_on_c, 0, 75, 0
2, 19080, Note_on_c, 0, 79, 96
2, 19080, Note_on_c, 0, 60, 96
2, 19176, Note_on_c, 0, 60, 0
2, 19176, Note_on_c, 0, 79, 0
2, 19200, Note_on_c, 0, 65, 96
2, 19200, Note_on_c, 0, 77, 96
2, 19296, Note_on_c, 0, 77, 0
2, 19296, Note_on_c, 0, 65, 0
2, 19320, Note_on_c, 0, 75, 96
2, 19320, Note_on_c, 0, 67, 96
2, 19416, Note_on_c, 0, 67, 0
2, 19416, Note_on_c, 0, 75, 0
2, 19440, Note_on_c, 0, 74, 96
2, 19440, Note_on_c, 0, 68, 96
2, 19536, Note_on_c, 0, 74, 0
2, 19560, Note_on_c, 0, 72, 96
2, 19656, Note_on_c, 0, 72, 0
2, 19680, Note_on_c, 0, 71, 96
2, 19776, Note_on_c, 0, 68, 0
2, 19800, Note_on_c, 0, 68, 96
2, 19872, Note_on_c, 0, 71, 0
2, 19896, Note_on_c, 0, 68, 0
2, 19920, Note_on_c, 0, 67, 96
2, 20016, Note_on_c, 0, 67, 0
2, 20040, Note_on_c, 0, 72, 96
2, 20136, Note_on_c, 0, 72, 0
2, 20160, Note_on_c, 0, 71, 96
2, 20280, Note_on_c, 0, 80, 96
2, 20352, Note_on_c, 0, 71, 0
2, 20376, Note_on_c, 0, 80, 0
2, 20400, Note_on_c, 0, 72, 96
2, 20400, Note_on_c, 0, 79, 96
2, 20496, Note_on_c, 0, 79, 0
2, 20520, Note_on_c, 0, 77, 96
2, 20616, Note_on_c, 0, 77, 0
2, 20640, Note_on_c, 0, 75, 96
2, 20688, Note_on_c, 0, 72, 0
2, 20760, Note_on_c, 0, 68, 96
2, 20832, Note_on_c, 0, 75, 0
2, 20856, Note_on_c, 0, 68, 0
2, 20880, Note_on_c, 0, 67, 96
2, 20976, Note_on_c, 0, 67, 0
2, 21000, Note_on_c, 0, 65, 96
2, 21000, Note_on_c, 0, 80, 96
2, 21096, Note_on_c, 0, 80, 0
2, 21096, Note_on_c, 0, 65, 0
2, 21120, Note_on_c, 0, 63, 96
2, 21120, Note_on_c, 0, 79, 96
2, 21216, Note_on_c, 0, 79, 0
2, 21216, Note_on_c, 0, 63, 0
2, 21240, Note_on_c, 0, 77, 96
2, 21240, Note_on_c, 0, 62, 96
2, 21336, Note_on_c, 0, 62, 0
2, 21336, Note_on_c, 0, 77, 0
2, 21360, Note_on_c, 0, 60, 96
2, 21360, Note_on_c, 0, 75, 96
2, 21552, Note_on_c, 0, 75, 0
2, 21720, Note_on_c, 0, 80, 96
2, 21816, Note_on_c, 0, 80, 0
2, 21840, Note_on_c, 0, 79, 96
2, 21936, Note_on_c, 0, 79, 0
2, 21936, Note_on_c, 0, 60, 0
2, 21960, Note_on_c, 0, 68, 96
2, 21960, Note_on_c, 0, 77, 96
2, 21960, Note_on_c, 0, 59, 96
2, 22056, Note_on_c, 0, 59, 0
2, 22056, Note_on_c, 0, 77, 0
2, 22056, Note_on_c, 0, 68, 0
2, 22080, Note_on_c, 0, 75, 96
2, 22080, Note_on_c, 0, 60, 96
2, 22080, Note_on_c, 0, 67, 96
2, 22176, Note_on_c, 0, 67, 0
2, 22176, Note_on_c, 0, 60, 0
2, 22176, Note_on_c, 0, 75, 0
2, 22200, Note_on_c, 0, 65, 96
2, 22200, Note_on_c, 0, 74, 96
2, 22200, Note_on_c, 0, 62, 96
2, 22296, Note_on_c, 0, 62, 0
2, 22296, Note_on_c, 0, 74, 0
2, 22296, Note_on_c, 0, 65, 0
2, 22320, Note_on_c, 0, 63, 96
2, 22320, Note_on_c, 0, 63, 96
2, 22320, Note_on_c, 0, 72, 96
2, 22416, Note_on_c, 0, 72, 0
2, 22416, Note_on_c, 0, 63, 0
2, 22416, Note_on_c, 0, 63, 0
2, 22440, Note_on_c, 0, 71, 96
2, 22440, Note_on_c, 0, 65, 96
2, 22440, Note_on_c, 0, 62, 96
2, 22536, Note_on_c, 0, 62, 0
2, 22536, Note_on_c, 0, 65, 0
2, 22536, Note_on_c, 0, 71, 0
2, 22560, Note_on_c, 0, 72, 96
2, 22560, Note_on_c, 0, 63, 96
2, 22560, Note_on_c, 0, 60, 96
2, 22752, Note_on_c, 0, 60, 0
2, 22752, Note_on_c, 0, 63, 0
2, 22752, Note_on_c, 0, 72, 0
2, 22920, Note_on_c, 0, 60, 96
2, 22968, Note_on_c, 0, 60, 0
2, 22980, Note_on_c, 0, 62, 96
2, 23028, Note_on_c, 0, 62, 0
2, 23040, Note_on_c, 0, 63, 96
2, 23136, Note_on_c, 0, 63, 0
2, 23160, Note_on_c, 0, 67, 96
2, 23160, Note_on_c, 0, 63, 96
2, 23208, Note_on_c, 0, 63, 0
2, 23208, Note_on_c, 0, 67, 0
2, 23220, Note_on_c, 0, 69, 96
2, 23220, Note_on_c, 0, 65, 96
2, 23268, Note_on_c, 0, 65, 0
2, 23268, Note_on_c, 0, 69, 0
2, 23280, Note_on_c, 0, 67, 96
2, 23280, Note_on_c, 0, 71, 96
2, 23376, Note_on_c, 0, 71, 0
2, 23400, Note_on_c, 0, 71, 96
2, 23448, Note_on_c, 0, 71, 0
2, 23460, Note_on_c, 0, 72, 96
2, 23508, Note_on_c, 0, 72, 0
2, 23520, Note_on_c, 0, 74, 96
2, 23616, Note_on_c, 0, 74, 0
2, 23640, Note_on_c, 0, 72, 96
2, 23688, Note_on_c, 0, 72, 0
2, 23700, Note_on_c, 0, 74, 96
2, 23748, Note_on_c, 0, 74, 0
2, 23760, Note_on_c, 0, 75, 96
2, 23856, Note_on_c, 0, 67, 0
2, 23880, Note_on_c, 0, 65, 96
2, 23928, Note_on_c, 0, 65, 0
2, 23940, Note_on_c, 0, 67, 96
2, 23988, Note_on_c, 0, 67, 0
2, 24000, Note_on_c, 0, 68, 96
2, 24288, Note_on_c, 0, 75, 0
2, 24360, Note_on_c, 0, 74, 96
2, 24408, Note_on_c, 0, 74, 0
2, 24420, Note_on_c, 0, 72, 96
2, 24468, Note_on_c, 0, 72, 0
2, 24480, Note_on_c, 0, 71, 96
2, 24576, Note_on_c, 0, 68, 0
2, 24600, Note_on_c, 0, 67, 96
2, 24648, Note_on_c, 0, 67, 0
2, 24660, Note_on_c, 0, 65, 96
2, 24672, Note_on_c, 0, 71, 0
2, 24708, Note_on_c, 0, 65, 0
2, 24720, Note_on_c, 0, 63, 96
2, 24840, Note_on_c, 0, 72, 96
2, 24888, Note_on_c, 0, 72, 0
2, 24900, Note_on_c, 0, 74, 96
2, 24948, Note_on_c, 0, 74, 0
2, 24960, Note_on_c, 0, 75, 96
2, 25008, Note_on_c, 0, 63, 0
2, 25056, Note_on_c, 0, 75, 0
2, 25080, Note_on_c, 0, 77, 96
2, 25080, Note_on_c, 0, 62, 96
2, 25128, Note_on_c, 0, 62, 0
2, 25128, Note_on_c, 0, 77, 0
2, 25140, Note_on_c, 0, 79, 96
2, 25140, Note_on_c, 0, 63, 96
2, 25188, Note_on_c, 0, 63, 0
2, 25188, Note_on_c, 0, 79, 0
2, 25200, Note_on_c, 0, 65, 96
2, 25200, Note_on_c, 0, 80, 96
2, 25296, Note_on_c, 0, 80, 0
2, 25296, Note_on_c, 0, 65, 0
2, 25320, Note_on_c, 0, 68, 96
2, 25320, Note_on_c, 0, 74, 96
2, 25368, Note_on_c, 0, 74, 0
2, 25380, Note_on_c, 0, 72, 96
2, 25416, Note_on_c, 0, 68, 0
2, 25428, Note_on_c, 0, 72, 0
2, 25440, Note_on_c, 0, 67, 96
2, 25440, Note_on_c, 0, 71, 96
2, 25536, Note_on_c, 0, 67, 0
2, 25560, Note_on_c, 0, 67, 96
2, 25608, Note_on_c, 0, 67, 0
2, 25620, Note_on_c, 0, 69, 96
2, 25632, Note_on_c, 0, 71, 0
2, 25668, Note_on_c, 0, 69, 0
2, 25680, Note_on_c, 0, 71, 96
2, 25776, Note_on_c, 0, 71, 0
2, 25800, Note_on_c, 0, 71, 96
2, 25800, Note_on_c, 0, 79, 96
2, 25848, Note_on_c, 0, 79, 0
2, 25848, Note_on_c, 0, 71, 0
2, 25860, Note_on_c, 0, 72, 96
2, 25860, Note_on_c, 0, 81, 96
2, 25908, Note_on_c, 0, 81, 0
2, 25908, Note_on_c, 0, 72, 0
2, 25920, Note_on_c, 0, 74, 96
2, 25920, Note_on_c, 0, 83, 96
2, 26016, Note_on_c, 0, 83, 0
2, 26040, Note_on_c, 0, 81, 96
2, 26088, Note_on_c, 0, 81, 0
2, 26100, Note_on_c, 0, 83, 96
2, 26112, Note_on_c, 0, 74, 0
2, 26148, Note_on_c, 0, 83, 0
2, 26160, Note_on_c, 0, 84, 96
2, 26160, Note_on_c, 0, 72, 96
2, 26256, Note_on_c, 0, 72, 0
2, 26256, Note_on_c, 0, 84, 0
2, 26280, Note_on_c, 0, 75, 96
2, 26280, Note_on_c, 0, 79, 96
2, 26328, Note_on_c, 0, 79, 0
2, 26328, Note_on_c, 0, 75, 0
2, 26340, Note_on_c, 0, 74, 96
2, 26340, Note_on_c, 0, 77, 96
2, 26388, Note_on_c, 0, 77, 0
2, 26388, Note_on_c, 0, 74, 0
2, 26400, Note_on_c, 0, 75, 96
2, 26400, Note_on_c, 0, 79, 96
2, 26496, Note_on_c, 0, 79, 0
2, 26496, Note_on_c, 0, 75, 0
2, 26520, Note_on_c, 0, 72, 96
2, 26520, Note_on_c, 0, 75, 96
2, 26616, Note_on_c, 0, 75, 0
2, 26616, Note_on_c, 0, 72, 0
2, 26640, Note_on_c, 0, 74, 96
2, 26640, Note_on_c, 0, 67, 96
2, 26736, Note_on_c, 0, 74, 0
2, 26760, Note_on_c, 0, 72, 96
2, 26808, Note_on_c, 0, 72, 0
2, 26820, Note_on_c, 0, 74, 96
2, 26868, Note_on_c, 0, 74, 0
2, 26880, Note_on_c, 0, 75, 96
2, 26976, Note_on_c, 0, 75, 0
2, 27000, Note_on_c, 0, 72, 96
2, 27048, Note_on_c, 0, 72, 0
2, 27060, Note_on_c, 0, 71, 96
2, 27072, Note_on_c, 0, 67, 0
2, 27108, Note_on_c, 0, 71, 0
2, 27120, Note_on_c, 0, 72, 96
2, 27216, Note_on_c, 0, 72, 0
2, 27240, Note_on_c, 0, 67, 96
2, 27240, Note_on_c, 0, 63, 96
2, 27288, Note_on_c, 0, 63, 0
2, 27300, Note_on_c, 0, 62, 96
2, 27336, Note_on_c, 0, 67, 0
2, 27348, Note_on_c, 0, 62, 0
2, 27360, Note_on_c, 0, 63, 96
2, 27360, Note_on_c, 0, 68, 96
2, 27456, Note_on_c, 0, 68, 0
2, 27456, Note_on_c, 0, 63, 0
2, 27480, Note_on_c, 0, 80, 96
2, 27480, Note_on_c, 0, 60, 96
2, 27528, Note_on_c, 0, 60, 0
2, 27540, Note_on_c, 0, 59, 96
2, 27576, Note_on_c, 0, 80, 0
2, 27588, Note_on_c, 0, 59, 0
2, 27600, Note_on_c, 0, 79, 96
2, 27600, Note_on_c, 0, 60, 96
2, 27696, Note_on_c, 0, 60, 0
2, 27696, Note_on_c, 0, 79, 0
2, 27720, Note_on_c, 0, 63, 96
2, 27720, Note_on_c, 0, 72, 96
2, 27768, Note_on_c, 0, 72, 0
2, 27768, Note_on_c, 0, 63, 0
2, 27780, Note_on_c, 0, 62, 96
2, 27780, Note_on_c, 0, 71, 96
2, 27828, Note_on_c, 0, 71, 0
2, 27828, Note_on_c, 0, 62, 0
2, 27840, Note_on_c, 0, 72, 96
2, 27840, Note_on_c, 0, 63, 96
2, 27936, Note_on_c, 0, 63, 0
2, 27936, Note_on_c, 0, 72, 0
2, 27960, Note_on_c, 0, 60, 96
2, 27960, Note_on_c, 0, 63, 96
2, 28008, Note_on_c, 0, 63, 0
2, 28020, Note_on_c, 0, 62, 96
2, 28056, Note_on_c, 0, 60, 0
2, 28068, Note_on_c, 0, 62, 0
2, 28080, Note_on_c, 0, 60, 96
2, 28080, Note_on_c, 0, 62, 96
2, 28176, Note_on_c, 0, 60, 0
2, 28200, Note_on_c, 0, 59, 96
2, 28224, Note_on_c, 0, 62, 0
2, 28260, Note_on_c, 0, 60, 96
2, 28296, Note_on_c, 0, 59, 0
2, 28308, Note_on_c, 0, 60, 0
2, 28320, Note_on_c, 0, 60, 96
2, 28320, Note_on_c, 0, 60, 96
2, 28416, Note_on_c, 0, 60, 0
2, 28440, Note_on_c, 0, 79, 96
2, 28488, Note_on_c, 0, 79, 0
2, 28500, Note_on_c, 0, 67, 84
2, 28512, Note_on_c, 0, 60, 0
2, 28548, Note_on_c, 0, 67, 0
2, 28560, Note_on_c, 0, 72, 84
2, 28656, Note_on_c, 0, 72, 0
2, 28680, Note_on_c, 0, 74, 84
2, 28737, Note_on_c, 0, 74, 0
2, 28740, Note_on_c, 0, 75, 84
2, 28797, Note_on_c, 0, 75, 0
2, 28800, Note_on_c, 0, 75, 84
2, 28920, Note_on_c, 0, 67, 84
2, 28968, Note_on_c, 0, 67, 0
2, 28980, Note_on_c, 0, 66, 84
2, 28992, Note_on_c, 0, 75, 0
2, 29028, Note_on_c, 0, 66, 0
2, 29040, Note_on_c, 0, 74, 84
2, 29040, Note_on_c, 0, 67, 84
2, 29136, Note_on_c, 0, 67, 0
2, 29136, Note_on_c, 0, 74, 0
2, 29160, Note_on_c, 0, 74, 84
2, 29208, Note_on_c, 0, 74, 0
2, 29220, Note_on_c, 0, 62, 84
2, 29268, Note_on_c, 0, 62, 0
2, 29280, Note_on_c, 0, 67, 84
2, 29400, Note_on_c, 0, 74, 84
2, 29448, Note_on_c, 0, 74, 0
2, 29460, Note_on_c, 0, 71, 84
2, 29472, Note_on_c, 0, 67, 0
2, 29508, Note_on_c, 0, 71, 0
2, 29520, Note_on_c, 0, 75, 84
2, 29640, Note_on_c, 0, 67, 84
2, 29688, Note_on_c, 0, 67, 0
2, 29700, Note_on_c, 0, 63, 84
2, 29748, Note_on_c, 0, 63, 0
2, 29760, Note_on_c, 0, 68, 84
2, 29856, Note_on_c, 0, 75, 0
2, 29880, Note_on_c, 0, 75, 84
2, 29928, Note_on_c, 0, 75, 0
2, 29940, Note_on_c, 0, 72, 84
2, 29988, Note_on_c, 0, 72, 0
2, 30000, Note_on_c, 0, 77, 84
2, 30096, Note_on_c, 0, 68, 0
2, 30120, Note_on_c, 0, 65, 84
2, 30216, Note_on_c, 0, 65, 0
2, 30240, Note_on_c, 0, 67, 84
2, 30336, Note_on_c, 0, 77, 0
2, 30360, Note_on_c, 0, 75, 84
2, 30408, Note_on_c, 0, 75, 0
2, 30420, Note_on_c, 0, 79, 84
2, 30432, Note_on_c, 0, 67, 0
2, 30468, Note_on_c, 0, 79, 0
2, 30480, Note_on_c, 0, 63, 84
2, 30480, Note_on_c, 0, 72, 84
2, 30593, Note_on_c, 0, 72, 0
2, 30600, Note_on_c, 0, 84, 84
2, 30657, Note_on_c, 0, 84, 0
2, 30660, Note_on_c, 0, 72, 84
2, 30672, Note_on_c, 0, 63, 0
2, 30717, Note_on_c, 0, 72, 0
2, 30720, Note_on_c, 0, 77, 84
2, 30816, Note_on_c, 0, 77, 0
2, 30840, Note_on_c, 0, 79, 84
2, 30888, Note_on_c, 0, 79, 0
2, 30900, Note_on_c, 0, 80, 84
2, 30948, Note_on_c, 0, 80, 0
2, 30960, Note_on_c, 0, 80, 84
2, 31080, Note_on_c, 0, 74, 84
2, 31104, Note_on_c, 0, 80, 0
2, 31128, Note_on_c, 0, 74, 0
2, 31140, Note_on_c, 0, 79, 84
2, 31140, Note_on_c, 0, 77, 84
2, 31164, Note_on_c, 0, 79, 0
2, 31170, Note_on_c, 0, 80, 84
2, 31188, Note_on_c, 0, 77, 0
2, 31194, Note_on_c, 0, 80, 0
2, 31200, Note_on_c, 0, 79, 84
2, 31200, Note_on_c, 0, 71, 84
2, 31296, Note_on_c, 0, 79, 0
2, 31320, Note_on_c, 0, 74, 84
2, 31368, Note_on_c, 0, 74, 0
2, 31380, Note_on_c, 0, 62, 84
2, 31392, Note_on_c, 0, 71, 0
2, 31428, Note_on_c, 0, 62, 0
2, 31440, Note_on_c, 0, 67, 84
2, 31553, Note_on_c, 0, 67, 0
2, 31560, Note_on_c, 0, 69, 84
2, 31608, Note_on_c, 0, 69, 0
2, 31620, Note_on_c, 0, 71, 84
2, 31668, Note_on_c, 0, 71, 0
2, 31680, Note_on_c, 0, 71, 84
2, 31800, Note_on_c, 0, 67, 84
2, 31848, Note_on_c, 0, 67, 0
2, 31860, Note_on_c, 0, 65, 84
2, 31872, Note_on_c, 0, 71, 0
2, 31908, Note_on_c, 0, 65, 0
2, 31920, Note_on_c, 0, 72, 84
2, 31920, Note_on_c, 0, 67, 84
2, 32016, Note_on_c, 0, 72, 0
2, 32040, Note_on_c, 0, 79, 84
2, 32088, Note_on_c, 0, 79, 0
2, 32100, Note_on_c, 0, 67, 84
2, 32112, Note_on_c, 0, 67, 0
2, 32148, Note_on_c, 0, 67, 0
2, 32160, Note_on_c, 0, 72, 84
2, 32256, Note_on_c, 0, 72, 0
2, 32280, Note_on_c, 0, 74, 84
2, 32376, Note_on_c, 0, 74, 0
2, 32400, Note_on_c, 0, 75, 84
2, 32496, Note_on_c, 0, 75, 0
2, 32520, Note_on_c, 0, 74, 84
2, 32520, Note_on_c, 0, 67, 84
2, 32568, Note_on_c, 0, 74, 0
2, 32580, Note_on_c, 0, 77, 84
2, 32616, Note_on_c, 0, 67, 0
2, 32628, Note_on_c, 0, 77, 0
2, 32640, Note_on_c, 0, 67, 84
2, 32640, Note_on_c, 0, 75, 84
2, 32736, Note_on_c, 0, 75, 0
2, 32760, Note_on_c, 0, 84, 84
2, 32808, Note_on_c, 0, 84, 0
2, 32820, Note_on_c, 0, 72, 84
2, 32832, Note_on_c, 0, 67, 0
2, 32868, Note_on_c, 0, 72, 0
2, 32880, Note_on_c, 0, 77, 84
2, 32976, Note_on_c, 0, 77, 0
2, 33000, Note_on_c, 0, 79, 84
2, 33096, Note_on_c, 0, 79, 0
2, 33120, Note_on_c, 0, 80, 84
2, 33216, Note_on_c, 0, 80, 0
2, 33240, Note_on_c, 0, 74, 84
2, 33240, Note_on_c, 0, 77, 84
2, 33288, Note_on_c, 0, 74, 0
2, 33300, Note_on_c, 0, 69, 84
2, 33348, Note_on_c, 0, 69, 0
2, 33360, Note_on_c, 0, 71, 84
2, 33456, Note_on_c, 0, 77, 0
2, 33480, Note_on_c, 0, 79, 84
2, 33528, Note_on_c, 0, 79, 0
2, 33540, Note_on_c, 0, 74, 84
2, 33552, Note_on_c, 0, 71, 0
2, 33588, Note_on_c, 0, 74, 0
2, 33600, Note_on_c, 0, 75, 84
2, 33720, Note_on_c, 0, 72, 84
2, 33744, Note_on_c, 0, 75, 0
2, 33780, Note_on_c, 0, 72, 0
2, 33780, Note_on_c, 0, 69, 84
2, 33780, Note_on_c, 0, 77, 84
2, 33828, Note_on_c, 0, 77, 0
2, 33840, Note_on_c, 0, 69, 0
2, 33840, Note_on_c, 0, 74, 84
2, 33840, Note_on_c, 0, 71, 84
2, 33984, Note_on_c, 0, 74, 0
2, 34020, Note_on_c, 0, 75, 84
2, 34068, Note_on_c, 0, 75, 0
2, 34080, Note_on_c, 0, 71, 0
2, 34080, Note_on_c, 0, 72, 84
2, 34080, Note_on_c, 0, 72, 84
2, 34272, Note_on_c, 0, 72, 0
2, 34272, Note_on_c, 0, 72, 0
2, 34380, Note_on_c, 0, 62, 96
2, 34428, Note_on_c, 0, 62, 0
2, 34440, Note_on_c, 0, 63, 96
2, 34488, Note_on_c, 0, 63, 0
2, 34500, Note_on_c, 0, 65, 96
2, 34548, Note_on_c, 0, 65, 0
2, 34560, Note_on_c, 0, 67, 96
2, 34620, Note_on_c, 0, 69, 96
2, 34668, Note_on_c, 0, 69, 0
2, 34680, Note_on_c, 0, 71, 96
2, 34728, Note_on_c, 0, 71, 0
2, 34740, Note_on_c, 0, 72, 96
2, 34788, Note_on_c, 0, 72, 0
2, 34800, Note_on_c, 0, 71, 96
2, 34992, Note_on_c, 0, 71, 0
2, 34992, Note_on_c, 0, 67, 0
2, 35100, Note_on_c, 0, 67, 96
2, 35148, Note_on_c, 0, 67, 0
2, 35160, Note_on_c, 0, 69, 96
2, 35208, Note_on_c, 0, 69, 0
2, 35220, Note_on_c, 0, 71, 96
2, 35268, Note_on_c, 0, 71, 0
2, 35280, Note_on_c, 0, 72, 96
2, 35340, Note_on_c, 0, 75, 96
2, 35388, Note_on_c, 0, 75, 0
2, 35400, Note_on_c, 0, 77, 96
2, 35448, Note_on_c, 0, 77, 0
2, 35460, Note_on_c, 0, 79, 96
2, 35508, Note_on_c, 0, 79, 0
2, 35520, Note_on_c, 0, 80, 96
2, 35712, Note_on_c, 0, 80, 0
2, 35712, Note_on_c, 0, 72, 0
2, 35820, Note_on_c, 0, 69, 96
2, 35868, Note_on_c, 0, 69, 0
2, 35880, Note_on_c, 0, 71, 96
2, 35928, Note_on_c, 0, 71, 0
2, 35940, Note_on_c, 0, 72, 96
2, 35988, Note_on_c, 0, 72, 0
2, 36000, Note_on_c, 0, 71, 96
2, 36060, Note_on_c, 0, 79, 96
2, 36096, Note_on_c, 0, 71, 0
2, 36108, Note_on_c, 0, 79, 0
2, 36120, Note_on_c, 0, 67, 96
2, 36120, Note_on_c, 0, 81, 96
2, 36168, Note_on_c, 0, 81, 0
2, 36180, Note_on_c, 0, 83, 96
2, 36228, Note_on_c, 0, 83, 0
2, 36240, Note_on_c, 0, 84, 96
2, 36432, Note_on_c, 0, 84, 0
2, 36432, Note_on_c, 0, 67, 0
2, 36540, Note_on_c, 0, 67, 96
2, 36588, Note_on_c, 0, 67, 0
2, 36600, Note_on_c, 0, 68, 96
2, 36648, Note_on_c, 0, 68, 0
2, 36660, Note_on_c, 0, 70, 96
2, 36708, Note_on_c, 0, 70, 0
2, 36720, Note_on_c, 0, 72, 96
2, 36780, Note_on_c, 0, 74, 96
2, 36816, Note_on_c, 0, 72, 0
2, 36828, Note_on_c, 0, 74, 0
2, 36840, Note_on_c, 0, 75, 96
2, 36840, Note_on_c, 0, 68, 96
2, 36888, Note_on_c, 0, 75, 0
2, 36900, Note_on_c, 0, 77, 96
2, 36936, Note_on_c, 0, 68, 0
2, 36948, Note_on_c, 0, 77, 0
2, 36960, Note_on_c, 0, 71, 96
2, 36960, Note_on_c, 0, 67, 96
2, 37152, Note_on_c, 0, 67, 0
2, 37152, Note_on_c, 0, 71, 0
2, 37260, Note_on_c, 0, 57, 96
2, 37308, Note_on_c, 0, 57, 0
2, 37320, Note_on_c, 0, 59, 96
2, 37368, Note_on_c, 0, 59, 0
2, 37380, Note_on_c, 0, 60, 96
2, 37428, Note_on_c, 0, 60, 0
2, 37440, Note_on_c, 0, 62, 96
2, 37500, Note_on_c, 0, 63, 96
2, 37548, Note_on_c, 0, 63, 0
2, 37560, Note_on_c, 0, 65, 96
2, 37608, Note_on_c, 0, 65, 0
2, 37620, Note_on_c, 0, 67, 96
2, 37632, Note_on_c, 0, 62, 0
2, 37668, Note_on_c, 0, 67, 0
2, 37680, Note_on_c, 0, 60, 96
2, 37680, Note_on_c, 0, 63, 96
2, 37872, Note_on_c, 0, 63, 0
2, 37872, Note_on_c, 0, 60, 0
2, 37980, Note_on_c, 0, 62, 96
2, 38028, Note_on_c, 0, 62, 0
2, 38040, Note_on_c, 0, 63, 96
2, 38088, Note_on_c, 0, 63, 0
2, 38100, Note_on_c, 0, 65, 96
2, 38148, Note_on_c, 0, 65, 0
2, 38160, Note_on_c, 0, 67, 96
2, 38220, Note_on_c, 0, 71, 96
2, 38268, Note_on_c, 0, 71, 0
2, 38280, Note_on_c, 0, 72, 96
2, 38328, Note_on_c, 0, 72, 0
2, 38340, Note_on_c, 0, 74, 96
2, 38388, Note_on_c, 0, 74, 0
2, 38400, Note_on_c, 0, 75, 96
2, 38592, Note_on_c, 0, 75, 0
2, 38592, Note_on_c, 0, 67, 0
2, 38700, Note_on_c, 0, 63, 96
2, 38748, Note_on_c, 0, 63, 0
2, 38760, Note_on_c, 0, 65, 96
2, 38808, Note_on_c, 0, 65, 0
2, 38820, Note_on_c, 0, 67, 96
2, 38868, Note_on_c, 0, 67, 0
2, 38880, Note_on_c, 0, 68, 96
2, 38940, Note_on_c, 0, 71, 96
2, 38988, Note_on_c, 0, 71, 0
2, 39000, Note_on_c, 0, 72, 96
2, 39048, Note_on_c, 0, 72, 0
2, 39060, Note_on_c, 0, 74, 96
2, 39072, Note_on_c, 0, 68, 0
2, 39108, Note_on_c, 0, 74, 0
2, 39120, Note_on_c, 0, 75, 96
2, 39120, Note_on_c, 0, 67, 96
2, 39168, Note_on_c, 0, 75, 0
2, 39180, Note_on_c, 0, 79, 96
2, 39228, Note_on_c, 0, 79, 0
2, 39240, Note_on_c, 0, 77, 96
2, 39288, Note_on_c, 0, 77, 0
2, 39300, Note_on_c, 0, 75, 96
2, 39348, Note_on_c, 0, 75, 0
2, 39360, Note_on_c, 0, 74, 96
2, 39648, Note_on_c, 0, 67, 0
2, 39660, Note_on_c, 0, 68, 96
2, 39708, Note_on_c, 0, 68, 0
2, 39720, Note_on_c, 0, 67, 96
2, 39744, Note_on_c, 0, 74, 0
2, 39768, Note_on_c, 0, 67, 0
2, 39780, Note_on_c, 0, 65, 96
2, 39828, Note_on_c, 0, 65, 0
2, 39840, Note_on_c, 0, 63, 96
2, 39840, Note_on_c, 0, 72, 96
2, 39888, Note_on_c, 0, 72, 0
2, 39900, Note_on_c, 0, 72, 96
2, 39948, Note_on_c, 0, 72, 0
2, 39960, Note_on_c, 0, 70, 96
2, 40008, Note_on_c, 0, 70, 0
2, 40020, Note_on_c, 0, 68, 96
2, 40032, Note_on_c, 0, 63, 0
2, 40068, Note_on_c, 0, 68, 0
2, 40080, Note_on_c, 0, 67, 96
2, 40128, Note_on_c, 0, 67, 0
2, 40140, Note_on_c, 0, 68, 96
2, 40140, Note_on_c, 0, 65, 96
2, 40188, Note_on_c, 0, 65, 0
2, 40188, Note_on_c, 0, 68, 0
2, 40200, Note_on_c, 0, 67, 96
2, 40200, Note_on_c, 0, 63, 96
2, 40248, Note_on_c, 0, 63, 0
2, 40248, Note_on_c, 0, 67, 0
2, 40260, Note_on_c, 0, 62, 96
2, 40260, Note_on_c, 0, 65, 96
2, 40308, Note_on_c, 0, 65, 0
2, 40308, Note_on_c, 0, 62, 0
2, 40320, Note_on_c, 0, 63, 96
2, 40320, Note_on_c, 0, 60, 96
2, 40368, Note_on_c, 0, 60, 0
2, 40380, Note_on_c, 0, 63, 96
2, 40416, Note_on_c, 0, 63, 0
2, 40428, Note_on_c, 0, 63, 0
2, 40440, Note_on_c, 0, 62, 96
2, 40488, Note_on_c, 0, 62, 0
2, 40500, Note_on_c, 0, 60, 96
2, 40548, Note_on_c, 0, 60, 0
2, 40560, Note_on_c, 0, 59, 96
2, 40620, Note_on_c, 0, 79, 96
2, 40668, Note_on_c, 0, 79, 0
2, 40680, Note_on_c, 0, 77, 110
2, 40728, Note_on_c, 0, 77, 0
2, 40740, Note_on_c, 0, 75, 110
2, 40752, Note_on_c, 0, 59, 0
2, 40788, Note_on_c, 0, 75, 0
2, 40800, Note_on_c, 0, 74, 110
2, 40848, Note_on_c, 0, 74, 0
2, 40860, Note_on_c, 0, 75, 110
2, 40860, Note_on_c, 0, 72, 110
2, 40908, Note_on_c, 0, 72, 0
2, 40908, Note_on_c, 0, 75, 0
2, 40920, Note_on_c, 0, 74, 110
2, 40920, Note_on_c, 0, 71, 110
2, 40968, Note_on_c, 0, 71, 0
2, 40968, Note_on_c, 0, 74, 0
2, 40980, Note_on_c, 0, 69, 110
2, 40980, Note_on_c, 0, 75, 110
2, 41028, Note_on_c, 0, 75, 0
2, 41028, Note_on_c, 0, 69, 0
2, 41040, Note_on_c, 0, 67, 110
2, 41040, Note_on_c, 0, 72, 110
2, 41088, Note_on_c, 0, 67, 0
2, 41100, Note_on_c, 0, 68, 110
2, 41148, Note_on_c, 0, 68, 0
2, 41160, Note_on_c, 0, 67, 110
2, 41208, Note_on_c, 0, 67, 0
2, 41220, Note_on_c, 0, 70, 110
2, 41268, Note_on_c, 0, 70, 0
2, 41280, Note_on_c, 0, 68, 110
2, 41328, Note_on_c, 0, 72, 0
2, 41340, Note_on_c, 0, 82, 110
2, 41388, Note_on_c, 0, 82, 0
2, 41400, Note_on_c, 0, 80, 110
2, 41448, Note_on_c, 0, 80, 0
2, 41460, Note_on_c, 0, 79, 110
2, 41472, Note_on_c, 0, 68, 0
2, 41508, Note_on_c, 0, 79, 0
2, 41520, Note_on_c, 0, 77, 110
2, 41568, Note_on_c, 0, 77, 0
2, 41580, Note_on_c, 0, 75, 110
2, 41628, Note_on_c, 0, 75, 0
2, 41640, Note_on_c, 0, 74, 110
2, 41688, Note_on_c, 0, 74, 0
2, 41700, Note_on_c, 0, 72, 110
2, 41748, Note_on_c, 0, 72, 0
2, 41760, Note_on_c, 0, 71, 110
2, 41820, Note_on_c, 0, 68, 110
2, 41868, Note_on_c, 0, 68, 0
2, 41880, Note_on_c, 0, 67, 110
2, 41928, Note_on_c, 0, 67, 0
2, 41940, Note_on_c, 0, 65, 110
2, 41952, Note_on_c, 0, 71, 0
2, 41988, Note_on_c, 0, 65, 0
2, 42000, Note_on_c, 0, 63, 110
2, 42000, Note_on_c, 0, 72, 110
2, 42048, Note_on_c, 0, 72, 0
2, 42060, Note_on_c, 0, 77, 110
2, 42108, Note_on_c, 0, 77, 0
2, 42120, Note_on_c, 0, 75, 110
2, 42168, Note_on_c, 0, 75, 0
2, 42180, Note_on_c, 0, 74, 110
2, 42192, Note_on_c, 0, 63, 0
2, 42228, Note_on_c, 0, 74, 0
2, 42240, Note_on_c, 0, 72, 110
2, 42288, Note_on_c, 0, 72, 0
2, 42300, Note_on_c, 0, 70, 110
2, 42348, Note_on_c, 0, 70, 0
2, 42360, Note_on_c, 0, 68, 110
2, 42408, Note_on_c, 0, 68, 0
2, 42420, Note_on_c, 0, 67, 110
2, 42468, Note_on_c, 0, 67, 0
2, 42480, Note_on_c, 0, 68, 110
2, 42540, Note_on_c, 0, 67, 110
2, 42588, Note_on_c, 0, 67, 0
2, 42600, Note_on_c, 0, 65, 110
2, 42648, Note_on_c, 0, 65, 0
2, 42660, Note_on_c, 0, 63, 110
2, 42672, Note_on_c, 0, 68, 0
2, 42708, Note_on_c, 0, 63, 0
2, 42720, Note_on_c, 0, 67, 110
2, 42720, Note_on_c, 0, 62, 110
2, 42768, Note_on_c, 0, 67, 0
2, 42780, Note_on_c, 0, 79, 110
2, 42828, Note_on_c, 0, 79, 0
2, 42840, Note_on_c, 0, 77, 110
2, 42888, Note_on_c, 0, 77, 0
2, 42900, Note_on_c, 0, 75, 110
2, 42912, Note_on_c, 0, 62, 0
2, 42948, Note_on_c, 0, 75, 0
2, 42960, Note_on_c, 0, 74, 110
2, 43008, Note_on_c, 0, 74, 0
2, 43020, Note_on_c, 0, 75, 110
2, 43020, Note_on_c, 0, 72, 110
2, 43068, Note_on_c, 0, 72, 0
2, 43068, Note_on_c, 0, 75, 0
2, 43080, Note_on_c, 0, 74, 110
2, 43080, Note_on_c, 0, 71, 110
2, 43128, Note_on_c, 0, 71, 0
2, 43128, Note_on_c, 0, 74, 0
2, 43140, Note_on_c, 0, 69, 110
2, 43140, Note_on_c, 0, 75, 110
2, 43188, Note_on_c, 0, 75, 0
2, 43188, Note_on_c, 0, 69, 0
2, 43200, Note_on_c, 0, 71, 110
2, 43200, Note_on_c, 0, 77, 110
2, 43392, Note_on_c, 0, 71, 0
2, 43440, Note_on_c, 0, 72, 110
2, 43488, Note_on_c, 0, 77, 0
2, 43500, Note_on_c, 0, 75, 110
2, 43548, Note_on_c, 0, 75, 0
2, 43560, Note_on_c, 0, 74, 110
2, 43608, Note_on_c, 0, 74, 0
2, 43620, Note_on_c, 0, 72, 110
2, 43632, Note_on_c, 0, 72, 0
2, 43668, Note_on_c, 0, 72, 0
2, 43680, Note_on_c, 0, 71, 110
2, 43728, Note_on_c, 0, 71, 0
2, 43740, Note_on_c, 0, 67, 110
2, 43740, Note_on_c, 0, 69, 110
2, 43788, Note_on_c, 0, 69, 0
2, 43788, Note_on_c, 0, 67, 0
2, 43800, Note_on_c, 0, 65, 110
2, 43800, Note_on_c, 0, 71, 110
2, 43848, Note_on_c, 0, 71, 0
2, 43848, Note_on_c, 0, 65, 0
2, 43860, Note_on_c, 0, 72, 110
2, 43860, Note_on_c, 0, 63, 110
2, 43908, Note_on_c, 0, 63, 0
2, 43908, Note_on_c, 0, 72, 0
2, 43920, Note_on_c, 0, 65, 110
2, 43920, Note_on_c, 0, 74, 110
2, 43968, Note_on_c, 0, 65, 0
2, 43980, Note_on_c, 0, 68, 110
2, 44028, Note_on_c, 0, 68, 0
2, 44040, Note_on_c, 0, 67, 110
2, 44088, Note_on_c, 0, 67, 0
2, 44100, Note_on_c, 0, 65, 110
2, 44148, Note_on_c, 0, 65, 0
2, 44160, Note_on_c, 0, 63, 110
2, 44208, Note_on_c, 0, 74, 0
2, 44220, Note_on_c, 0, 77, 110
2, 44268, Note_on_c, 0, 77, 0
2, 44280, Note_on_c, 0, 75, 110
2, 44328, Note_on_c, 0, 75, 0
2, 44340, Note_on_c, 0, 74, 110
2, 44352, Note_on_c, 0, 63, 0
2, 44388, Note_on_c, 0, 74, 0
2, 44400, Note_on_c, 0, 72, 110
2, 44460, Note_on_c, 0, 70, 110
2, 44508, Note_on_c, 0, 70, 0
2, 44520, Note_on_c, 0, 68, 110
2, 44544, Note_on_c, 0, 72, 0
2, 44568, Note_on_c, 0, 68, 0
2, 44580, Note_on_c, 0, 67, 110
2, 44580, Note_on_c, 0, 70, 110
2, 44628, Note_on_c, 0, 70, 0
2, 44628, Note_on_c, 0, 67, 0
2, 44640, Note_on_c, 0, 65, 110
2, 44640, Note_on_c, 0, 68, 110
2, 44784, Note_on_c, 0, 65, 0
2, 44820, Note_on_c, 0, 63, 110
2, 44868, Note_on_c, 0, 63, 0
2, 44880, Note_on_c, 0, 62, 110
2, 44928, Note_on_c, 0, 68, 0
2, 44940, Note_on_c, 0, 68, 110
2, 44988, Note_on_c, 0, 68, 0
2, 45000, Note_on_c, 0, 67, 110
2, 45024, Note_on_c, 0, 62, 0
2, 45048, Note_on_c, 0, 67, 0
2, 45060, Note_on_c, 0, 65, 110
2, 45060, Note_on_c, 0, 63, 110
2, 45108, Note_on_c, 0, 63, 0
2, 45108, Note_on_c, 0, 65, 0
2, 45120, Note_on_c, 0, 63, 110
2, 45120, Note_on_c, 0, 60, 110
2, 45144, Note_on_c, 0, 63, 0
2, 45150, Note_on_c, 0, 65, 110
2, 45168, Note_on_c, 0, 60, 0
2, 45174, Note_on_c, 0, 65, 0
2, 45180, Note_on_c, 0, 63, 110
2, 45180, Note_on_c, 0, 67, 110
2, 45228, Note_on_c, 0, 67, 0
2, 45228, Note_on_c, 0, 63, 0
2, 45240, Note_on_c, 0, 62, 110
2, 45240, Note_on_c, 0, 65, 110
2, 45288, Note_on_c, 0, 65, 0
2, 45288, Note_on_c, 0, 62, 0
2, 45300, Note_on_c, 0, 60, 110
2, 45300, Note_on_c, 0, 67, 110
2, 45324, Note_on_c, 0, 67, 0
2, 45330, Note_on_c, 0, 68, 110
2, 45348, Note_on_c, 0, 60, 0
2, 45354, Note_on_c, 0, 68, 0
2, 45360, Note_on_c, 0, 62, 110
2, 45360, Note_on_c, 0, 59, 110
2, 45504, Note_on_c, 0, 62, 0
2, 45540, Note_on_c, 0, 63, 110
2, 45552, Note_on_c, 0, 59, 0
2, 45588, Note_on_c, 0, 63, 0
2, 45600, Note_on_c, 0, 60, 110
2, 45600, Note_on_c, 0, 60, 110
2, 45792, Note_on_c, 0, 60, 0
2, 45792, Note_on_c, 0, 60, 0
2, 46380, Note_on_c, 0, 62, 110
2, 46428, Note_on_c, 0, 62, 0
2, 46440, Note_on_c, 0, 63, 110
2, 46488, Note_on_c, 0, 63, 0
2, 46500, Note_on_c, 0, 65, 110
2, 46548, Note_on_c, 0, 65, 0
2, 46560, Note_on_c, 0, 67, 110
2, 46608, Note_on_c, 0, 67, 0
2, 46620, Note_on_c, 0, 71, 110
2, 46620, Note_on_c, 0, 74, 110
2, 46668, Note_on_c, 0, 74, 0
2, 46668, Note_on_c, 0, 71, 0
2, 46680, Note_on_c, 0, 72, 110
2, 46680, Note_on_c, 0, 75, 110
2, 46728, Note_on_c, 0, 75, 0
2, 46728, Note_on_c, 0, 72, 0
2, 46740, Note_on_c, 0, 74, 110
2, 46740, Note_on_c, 0, 77, 110
2, 46788, Note_on_c, 0, 77, 0
2, 46788, Note_on_c, 0, 74, 0
2, 46800, Note_on_c, 0, 75, 110
2, 46800, Note_on_c, 0, 79, 110
2, 46848, Note_on_c, 0, 79, 0
2, 46848, Note_on_c, 0, 75, 0
2, 46860, Note_on_c, 0, 74, 110
2, 46860, Note_on_c, 0, 77, 110
2, 46908, Note_on_c, 0, 77, 0
2, 46908, Note_on_c, 0, 74, 0
2, 46920, Note_on_c, 0, 75, 110
2, 46920, Note_on_c, 0, 72, 110
2, 46968, Note_on_c, 0, 72, 0
2, 46968, Note_on_c, 0, 75, 0
2, 46980, Note_on_c, 0, 74, 110
2, 46980, Note_on_c, 0, 70, 110
2, 47028, Note_on_c, 0, 70, 0
2, 47028, Note_on_c, 0, 74, 0
2, 47040, Note_on_c, 0, 68, 110
2, 47040, Note_on_c, 0, 72, 110
2, 47088, Note_on_c, 0, 72, 0
2, 47088, Note_on_c, 0, 68, 0
2, 47100, Note_on_c, 0, 60, 110
2, 47100, Note_on_c, 0, 73, 110
2, 47148, Note_on_c, 0, 73, 0
2, 47148, Note_on_c, 0, 60, 0
2, 47160, Note_on_c, 0, 62, 110
2, 47160, Note_on_c, 0, 72, 110
2, 47208, Note_on_c, 0, 72, 0
2, 47208, Note_on_c, 0, 62, 0
2, 47220, Note_on_c, 0, 70, 110
2, 47220, Note_on_c, 0, 64, 110
2, 47268, Note_on_c, 0, 64, 0
2, 47268, Note_on_c, 0, 70, 0
2, 47280, Note_on_c, 0, 65, 110
2, 47280, Note_on_c, 0, 68, 110
2, 47328, Note_on_c, 0, 68, 0
2, 47328, Note_on_c, 0, 65, 0
2, 47340, Note_on_c, 0, 67, 110
2, 47340, Note_on_c, 0, 77, 110
2, 47388, Note_on_c, 0, 77, 0
2, 47388, Note_on_c, 0, 67, 0
2, 47400, Note_on_c, 0, 79, 110
2, 47400, Note_on_c, 0, 65, 110
2, 47448, Note_on_c, 0, 65, 0
2, 47448, Note_on_c, 0, 79, 0
2, 47460, Note_on_c, 0, 80, 110
2, 47460, Note_on_c, 0, 63, 110
2, 47508, Note_on_c, 0, 63, 0
2, 47508, Note_on_c, 0, 80, 0
2, 47520, Note_on_c, 0, 62, 110
2, 47520, Note_on_c, 0, 71, 110
2, 47568, Note_on_c, 0, 62, 0
2, 47580, Note_on_c, 0, 68, 110
2, 47628, Note_on_c, 0, 68, 0
2, 47640, Note_on_c, 0, 67, 110
2, 47688, Note_on_c, 0, 67, 0
2, 47700, Note_on_c, 0, 65, 110
2, 47712, Note_on_c, 0, 71, 0
2, 47748, Note_on_c, 0, 65, 0
2, 47760, Note_on_c, 0, 63, 110
2, 47808, Note_on_c, 0, 63, 0
2, 47820, Note_on_c, 0, 72, 110
2, 47820, Note_on_c, 0, 65, 110
2, 47868, Note_on_c, 0, 65, 0
2, 47868, Note_on_c, 0, 72, 0
2, 47880, Note_on_c, 0, 74, 110
2, 47880, Note_on_c, 0, 63, 110
2, 47928, Note_on_c, 0, 63, 0
2, 47928, Note_on_c, 0, 74, 0
2, 47940, Note_on_c, 0, 75, 110
2, 47940, Note_on_c, 0, 62, 110
2, 47988, Note_on_c, 0, 62, 0
2, 47988, Note_on_c, 0, 75, 0
2, 48000, Note_on_c, 0, 60, 110
2, 48000, Note_on_c, 0, 77, 110
2, 48048, Note_on_c, 0, 77, 0
2, 48060, Note_on_c, 0, 79, 110
2, 48096, Note_on_c, 0, 60, 0
2, 48108, Note_on_c, 0, 79, 0
2, 48120, Note_on_c, 0, 77, 110
2, 48168, Note_on_c, 0, 77, 0
2, 48180, Note_on_c, 0, 75, 110
2, 48228, Note_on_c, 0, 75, 0
2, 48240, Note_on_c, 0, 74, 110
2, 48288, Note_on_c, 0, 74, 0
2, 48300, Note_on_c, 0, 81, 110
2, 48348, Note_on_c, 0, 81, 0
2, 48360, Note_on_c, 0, 83, 110
2, 48408, Note_on_c, 0, 83, 0
2, 48420, Note_on_c, 0, 84, 110
2, 48468, Note_on_c, 0, 84, 0
2, 48480, Note_on_c, 0, 83, 110
2, 48528, Note_on_c, 0, 83, 0
2, 48540, Note_on_c, 0, 66, 110
2, 48540, Note_on_c, 0, 84, 110
2, 48588, Note_on_c, 0, 84, 0
2, 48588, Note_on_c, 0, 66, 0
2, 48600, Note_on_c, 0, 67, 110
2, 48600, Note_on_c, 0, 83, 110
2, 48648, Note_on_c, 0, 83, 0
2, 48648, Note_on_c, 0, 67, 0
2, 48660, Note_on_c, 0, 69, 110
2, 48660, Note_on_c, 0, 81, 110
2, 48708, Note_on_c, 0, 81, 0
2, 48708, Note_on_c, 0, 69, 0
2, 48720, Note_on_c, 0, 79, 110
2, 48720, Note_on_c, 0, 71, 110
2, 48768, Note_on_c, 0, 71, 0
2, 48780, Note_on_c, 0, 69, 110
2, 48816, Note_on_c, 0, 79, 0
2, 48828, Note_on_c, 0, 69, 0
2, 48840, Note_on_c, 0, 77, 110
2, 48840, Note_on_c, 0, 71, 110
2, 48888, Note_on_c, 0, 71, 0
2, 48888, Note_on_c, 0, 77, 0
2, 48900, Note_on_c, 0, 75, 110
2, 48900, Note_on_c, 0, 72, 110
2, 48948, Note_on_c, 0, 72, 0
2, 48948, Note_on_c, 0, 75, 0
2, 48960, Note_on_c, 0, 74, 110
2, 48960, Note_on_c, 0, 77, 110
2, 49248, Note_on_c, 0, 77, 0
2, 49248, Note_on_c, 0, 74, 0
2, 49260, Note_on_c, 0, 80, 110
2, 49260, Note_on_c, 0, 67, 110
2, 49308, Note_on_c, 0, 67, 0
2, 49308, Note_on_c, 0, 80, 0
2, 49320, Note_on_c, 0, 79, 110
2, 49320, Note_on_c, 0, 69, 110
2, 49368, Note_on_c, 0, 69, 0
2, 49368, Note_on_c, 0, 79, 0
2, 49380, Note_on_c, 0, 71, 110
2, 49380, Note_on_c, 0, 77, 110
2, 49428, Note_on_c, 0, 77, 0
2, 49428, Note_on_c, 0, 71, 0
2, 49440, Note_on_c, 0, 72, 110
2, 49440, Note_on_c, 0, 75, 110
2, 49488, Note_on_c, 0, 75, 0
2, 49500, Note_on_c, 0, 79, 110
2, 49548, Note_on_c, 0, 79, 0
2, 49560, Note_on_c, 0, 77, 110
2, 49608, Note_on_c, 0, 77, 0
2, 49620, Note_on_c, 0, 75, 110
2, 49632, Note_on_c, 0, 72, 0
2, 49668, Note_on_c, 0, 75, 0
2, 49680, Note_on_c, 0, 74, 110
2, 49968, Note_on_c, 0, 74, 0
2, 49980, Note_on_c, 0, 77, 110
2, 49980, Note_on_c, 0, 59, 110
2, 50028, Note_on_c, 0, 59, 0
2, 50028, Note_on_c, 0, 77, 0
2, 50040, Note_on_c, 0, 60, 110
2, 50040, Note_on_c, 0, 75, 110
2, 50088, Note_on_c, 0, 75, 0
2, 50088, Note_on_c, 0, 60, 0
2, 50100, Note_on_c, 0, 62, 110
2, 50100, Note_on_c, 0, 74, 110
2, 50148, Note_on_c, 0, 74, 0
2, 50148, Note_on_c, 0, 62, 0
2, 50160, Note_on_c, 0, 72, 110
2, 50160, Note_on_c, 0, 63, 110
2, 50208, Note_on_c, 0, 63, 0
2, 50208, Note_on_c, 0, 72, 0
2, 50220, Note_on_c, 0, 75, 110
2, 50220, Note_on_c, 0, 60, 110
2, 50268, Note_on_c, 0, 60, 0
2, 50268, Note_on_c, 0, 75, 0
2, 50280, Note_on_c, 0, 62, 110
2, 50280, Note_on_c, 0, 74, 110
2, 50328, Note_on_c, 0, 74, 0
2, 50328, Note_on_c, 0, 62, 0
2, 50340, Note_on_c, 0, 63, 110
2, 50340, Note_on_c, 0, 72, 110
2, 50388, Note_on_c, 0, 72, 0
2, 50388, Note_on_c, 0, 63, 0
2, 50400, Note_on_c, 0, 73, 110
2, 50400, Note_on_c, 0, 65, 110
2, 50448, Note_on_c, 0, 73, 0
2, 50460, Note_on_c, 0, 75, 110
2, 50508, Note_on_c, 0, 75, 0
2, 50520, Note_on_c, 0, 73, 110
2, 50568, Note_on_c, 0, 73, 0
2, 50580, Note_on_c, 0, 72, 110
2, 50628, Note_on_c, 0, 72, 0
2, 50640, Note_on_c, 0, 71, 110
2, 50688, Note_on_c, 0, 71, 0
2, 50688, Note_on_c, 0, 65, 0
2, 50700, Note_on_c, 0, 68, 110
2, 50700, Note_on_c, 0, 72, 110
2, 50748, Note_on_c, 0, 72, 0
2, 50748, Note_on_c, 0, 68, 0
2, 50760, Note_on_c, 0, 74, 110
2, 50760, Note_on_c, 0, 67, 110
2, 50808, Note_on_c, 0, 67, 0
2, 50820, Note_on_c, 0, 65, 110
2, 50868, Note_on_c, 0, 65, 0
2, 50880, Note_on_c, 0, 63, 110
2, 50928, Note_on_c, 0, 63, 0
2, 50928, Note_on_c, 0, 74, 0
2, 50940, Note_on_c, 0, 67, 110
2, 50940, Note_on_c, 0, 75, 110
2, 50988, Note_on_c, 0, 75, 0
2, 50988, Note_on_c, 0, 67, 0
2, 51000, Note_on_c, 0, 74, 110
2, 51000, Note_on_c, 0, 65, 110
2, 51048, Note_on_c, 0, 65, 0
2, 51048, Note_on_c, 0, 74, 0
2, 51060, Note_on_c, 0, 63, 110
2, 51060, Note_on_c, 0, 72, 110
2, 51108, Note_on_c, 0, 72, 0
2, 51108, Note_on_c, 0, 63, 0
2, 51120, Note_on_c, 0, 72, 110
2, 51120, Note_on_c, 0, 62, 110
2, 51216, Note_on_c, 0, 72, 0
2, 51240, Note_on_c, 0, 71, 110
2, 51312, Note_on_c, 0, 62, 0
2, 51336, Note_on_c, 0, 71, 0
2, 51360, Note_on_c, 0, 72, 110
2, 51360, Note_on_c, 0, 60, 110
2, 51408, Note_on_c, 0, 60, 0
2, 51420, Note_on_c, 0, 60, 110
2, 51468, Note_on_c, 0, 60, 0
2, 51480, Note_on_c, 0, 63, 110
2, 51528, Note_on_c, 0, 63, 0
2, 51540, Note_on_c, 0, 60, 110
2, 51552, Note_on_c, 0, 72, 0
2, 51588, Note_on_c, 0, 60, 0
2, 51600, Note_on_c, 0, 67, 110
2, 51744, Note_on_c, 0, 67, 0
2, 51780, Note_on_c, 0, 65, 110
2, 51828, Note_on_c, 0, 65, 0
2, 51840, Note_on_c, 0, 63, 110
2, 52032, Note_on_c, 0, 63, 0
2, 52080, Note_on_c, 0, 62, 110
2, 52140, Note_on_c, 0, 67, 110
2, 52188, Note_on_c, 0, 67, 0
2, 52200, Note_on_c, 0, 71, 110
2, 52248, Note_on_c, 0, 71, 0
2, 52260, Note_on_c, 0, 67, 110
2, 52272, Note_on_c, 0, 62, 0
2, 52308, Note_on_c, 0, 67, 0
2, 52320, Note_on_c, 0, 74, 110
2, 52440, Note_on_c, 0, 67, 110
2, 52512, Note_on_c, 0, 74, 0
2, 52560, Note_on_c, 0, 75, 110
2, 52728, Note_on_c, 0, 67, 0
2, 52800, Note_on_c, 0, 68, 110
2, 52992, Note_on_c, 0, 68, 0
2, 52992, Note_on_c, 0, 75, 0
2, 53100, Note_on_c, 0, 73, 110
2, 53148, Note_on_c, 0, 73, 0
2, 53160, Note_on_c, 0, 77, 110
2, 53208, Note_on_c, 0, 77, 0
2, 53220, Note_on_c, 0, 73, 110
2, 53268, Note_on_c, 0, 73, 0
2, 53280, Note_on_c, 0, 70, 110
2, 53280, Note_on_c, 0, 73, 110
2, 53472, Note_on_c, 0, 70, 0
2, 53580, Note_on_c, 0, 63, 110
2, 53628, Note_on_c, 0, 63, 0
2, 53640, Note_on_c, 0, 67, 110
2, 53688, Note_on_c, 0, 67, 0
2, 53700, Note_on_c, 0, 63, 110
2, 53712, Note_on_c, 0, 73, 0
2, 53748, Note_on_c, 0, 63, 0
2, 53760, Note_on_c, 0, 72, 110
2, 53760, Note_on_c, 0, 68, 110
2, 53952, Note_on_c, 0, 72, 0
2, 54000, Note_on_c, 0, 74, 110
2, 54144, Note_on_c, 0, 68, 0
2, 54192, Note_on_c, 0, 74, 0
2, 54240, Note_on_c, 0, 67, 110
2, 54240, Note_on_c, 0, 71, 110
2, 54432, Note_on_c, 0, 71, 0
2, 54432, Note_on_c, 0, 67, 0
2, 54540, Note_on_c, 0, 67, 110
2, 54588, Note_on_c, 0, 67, 0
2, 54600, Note_on_c, 0, 71, 110
2, 54648, Note_on_c, 0, 71, 0
2, 54660, Note_on_c, 0, 67, 110
2, 54708, Note_on_c, 0, 67, 0
2, 54720, Note_on_c, 0, 74, 110
2, 54768, Note_on_c, 0, 74, 0
2, 54780, Note_on_c, 0, 71, 110
2, 54828, Note_on_c, 0, 71, 0
2, 54840, Note_on_c, 0, 74, 110
2, 54888, Note_on_c, 0, 74, 0
2, 54900, Note_on_c, 0, 71, 110
2, 54948, Note_on_c, 0, 71, 0
2, 54960, Note_on_c, 0, 72, 110
2, 55152, Note_on_c, 0, 72, 0
2, 55260, Note_on_c, 0, 72, 110
2, 55260, Note_on_c, 0, 63, 110
2, 55308, Note_on_c, 0, 63, 0
2, 55308, Note_on_c, 0, 72, 0
2, 55320, Note_on_c, 0, 75, 110
2, 55320, Note_on_c, 0, 67, 110
2, 55368, Note_on_c, 0, 67, 0
2, 55368, Note_on_c, 0, 75, 0
2, 55380, Note_on_c, 0, 63, 110
2, 55380, Note_on_c, 0, 72, 110
2, 55428, Note_on_c, 0, 72, 0
2, 55428, Note_on_c, 0, 63, 0
2, 55440, Note_on_c, 0, 77, 110
2, 55440, Note_on_c, 0, 68, 110
2, 55488, Note_on_c, 0, 77, 0
2, 55500, Note_on_c, 0, 74, 110
2, 55548, Note_on_c, 0, 74, 0
2, 55560, Note_on_c, 0, 77, 110
2, 55608, Note_on_c, 0, 77, 0
2, 55620, Note_on_c, 0, 74, 110
2, 55632, Note_on_c, 0, 68, 0
2, 55668, Note_on_c, 0, 74, 0
2, 55680, Note_on_c, 0, 67, 110
2, 55680, Note_on_c, 0, 75, 110
2, 55872, Note_on_c, 0, 75, 0
2, 55872, Note_on_c, 0, 67, 0
2, 55980, Note_on_c, 0, 63, 110
2, 55980, Note_on_c, 0, 72, 110
2, 56028, Note_on_c, 0, 72, 0
2, 56028, Note_on_c, 0, 63, 0
2, 56040, Note_on_c, 0, 67, 110
2, 56040, Note_on_c, 0, 75, 110
2, 56088, Note_on_c, 0, 75, 0
2, 56088, Note_on_c, 0, 67, 0
2, 56100, Note_on_c, 0, 63, 110
2, 56100, Note_on_c, 0, 72, 110
2, 56148, Note_on_c, 0, 72, 0
2, 56148, Note_on_c, 0, 63, 0
2, 56160, Note_on_c, 0, 77, 110
2, 56160, Note_on_c, 0, 68, 110
2, 56208, Note_on_c, 0, 77, 0
2, 56220, Note_on_c, 0, 74, 110
2, 56268, Note_on_c, 0, 74, 0
2, 56280, Note_on_c, 0, 77, 110
2, 56328, Note_on_c, 0, 77, 0
2, 56340, Note_on_c, 0, 74, 110
2, 56352, Note_on_c, 0, 68, 0
2, 56388, Note_on_c, 0, 74, 0
2, 56400, Note_on_c, 0, 67, 110
2, 56400, Note_on_c, 0, 75, 110
2, 56592, Note_on_c, 0, 75, 0
2, 56592, Note_on_c, 0, 67, 0
2, 56700, Note_on_c, 0, 63, 110
2, 56700, Note_on_c, 0, 72, 110
2, 56748, Note_on_c, 0, 72, 0
2, 56748, Note_on_c, 0, 63, 0
2, 56760, Note_on_c, 0, 67, 110
2, 56760, Note_on_c, 0, 75, 110
2, 56808, Note_on_c, 0, 75, 0
2, 56808, Note_on_c, 0, 67, 0
2, 56820, Note_on_c, 0, 63, 110
2, 56820, Note_on_c, 0, 72, 110
2, 56868, Note_on_c, 0, 72, 0
2, 56868, Note_on_c, 0, 63, 0
2, 56880, Note_on_c, 0, 77, 110
2, 56880, Note_on_c, 0, 62, 110
2, 56928, Note_on_c, 0, 77, 0
2, 56940, Note_on_c, 0, 74, 110
2, 56988, Note_on_c, 0, 74, 0
2, 57000, Note_on_c, 0, 77, 110
2, 57048, Note_on_c, 0, 77, 0
2, 57060, Note_on_c, 0, 74, 110
2, 57072, Note_on_c, 0, 62, 0
2, 57108, Note_on_c, 0, 74, 0
2, 57120, Note_on_c, 0, 60, 120
2, 57120, Note_on_c, 0, 75, 120
2, 57168, Note_on_c, 0, 75, 0
2, 57180, Note_on_c, 0, 84, 120
2, 57228, Note_on_c, 0, 84, 0
2, 57240, Note_on_c, 0, 82, 120
2, 57288, Note_on_c, 0, 82, 0
2, 57300, Note_on_c, 0, 80, 120
2, 57312, Note_on_c, 0, 60, 0
2, 57348, Note_on_c, 0, 80, 0
2, 57360, Note_on_c, 0, 79, 120
2, 57408, Note_on_c, 0, 79, 0
2, 57420, Note_on_c, 0, 77, 120
2, 57468, Note_on_c, 0, 77, 0
2, 57480, Note_on_c, 0, 75, 120
2, 57528, Note_on_c, 0, 75, 0
2, 57540, Note_on_c, 0, 74, 120
2, 57588, Note_on_c, 0, 74, 0
2, 57600, Note_on_c, 0, 67, 120
2, 57600, Note_on_c, 0, 72, 120
2, 57648, Note_on_c, 0, 72, 0
2, 57660, Note_on_c, 0, 75, 120
2, 57708, Note_on_c, 0, 75, 0
2, 57720, Note_on_c, 0, 74, 120
2, 57768, Note_on_c, 0, 74, 0
2, 57780, Note_on_c, 0, 72, 120
2, 57792, Note_on_c, 0, 67, 0
2, 57828, Note_on_c, 0, 72, 0
2, 57840, Note_on_c, 0, 71, 120
2, 57840, Note_on_c, 0, 67, 120
2, 57888, Note_on_c, 0, 71, 0
2, 57900, Note_on_c, 0, 72, 120
2, 57948, Note_on_c, 0, 72, 0
2, 57960, Note_on_c, 0, 71, 120
2, 58008, Note_on_c, 0, 71, 0
2, 58020, Note_on_c, 0, 69, 120
2, 58032, Note_on_c, 0, 67, 0
2, 58068, Note_on_c, 0, 69, 0
2, 58080, Note_on_c, 0, 67, 120
2, 58128, Note_on_c, 0, 67, 0
2, 58140, Note_on_c, 0, 65, 120
2, 58188, Note_on_c, 0, 65, 0
2, 58200, Note_on_c, 0, 63, 120
2, 58248, Note_on_c, 0, 63, 0
2, 58260, Note_on_c, 0, 62, 120
2, 58308, Note_on_c, 0, 62, 0
2, 58320, Note_on_c, 0, 67, 120
2, 58320, Note_on_c, 0, 60, 120
2, 58368, Note_on_c, 0, 60, 0
2, 58380, Note_on_c, 0, 82, 120
2, 58428, Note_on_c, 0, 82, 0
2, 58440, Note_on_c, 0, 80, 120
2, 58488, Note_on_c, 0, 80, 0
2, 58500, Note_on_c, 0, 79, 120
2, 58512, Note_on_c, 0, 67, 0
2, 58548, Note_on_c, 0, 79, 0
2, 58560, Note_on_c, 0, 65, 120
2, 58560, Note_on_c, 0, 80, 120
2, 58608, Note_on_c, 0, 80, 0
2, 58620, Note_on_c, 0, 82, 120
2, 58668, Note_on_c, 0, 82, 0
2, 58680, Note_on_c, 0, 80, 120
2, 58728, Note_on_c, 0, 80, 0
2, 58740, Note_on_c, 0, 79, 120
2, 58752, Note_on_c, 0, 65, 0
2, 58788, Note_on_c, 0, 79, 0
2, 58800, Note_on_c, 0, 77, 120
2, 58848, Note_on_c, 0, 77, 0
2, 58860, Note_on_c, 0, 75, 120
2, 58908, Note_on_c, 0, 75, 0
2, 58920, Note_on_c, 0, 74, 120
2, 58968, Note_on_c, 0, 74, 0
2, 58980, Note_on_c, 0, 72, 120
2, 59028, Note_on_c, 0, 72, 0
2, 59040, Note_on_c, 0, 71, 120
2, 59040, Note_on_c, 0, 65, 120
2, 59088, Note_on_c, 0, 71, 0
2, 59100, Note_on_c, 0, 74, 120
2, 59148, Note_on_c, 0, 74, 0
2, 59160, Note_on_c, 0, 72, 120
2, 59208, Note_on_c, 0, 72, 0
2, 59220, Note_on_c, 0, 71, 120
2, 59232, Note_on_c, 0, 65, 0
2, 59268, Note_on_c, 0, 71, 0
2, 59280, Note_on_c, 0, 63, 120
2, 59280, Note_on_c, 0, 72, 120
2, 59328, Note_on_c, 0, 72, 0
2, 59340, Note_on_c, 0, 74, 120
2, 59388, Note_on_c, 0, 74, 0
2, 59400, Note_on_c, 0, 72, 120
2, 59448, Note_on_c, 0, 72, 0
2, 59460, Note_on_c, 0, 70, 120
2, 59472, Note_on_c, 0, 63, 0
2, 59508, Note_on_c, 0, 70, 0
2, 59520, Note_on_c, 0, 68, 120
2, 59568, Note_on_c, 0, 68, 0
2, 59580, Note_on_c, 0, 67, 120
2, 59628, Note_on_c, 0, 67, 0
2, 59640, Note_on_c, 0, 65, 120
2, 59688, Note_on_c, 0, 65, 0
2, 59700, Note_on_c, 0, 63, 120
2, 59748, Note_on_c, 0, 63, 0
2, 59760, Note_on_c, 0, 62, 120
2, 59760, Note_on_c, 0, 65, 120
2, 59808, Note_on_c, 0, 62, 0
2, 59820, Note_on_c, 0, 63, 120
2, 59868, Note_on_c, 0, 63, 0
2, 59880, Note_on_c, 0, 62, 120
2, 59928, Note_on_c, 0, 62, 0
2, 59940, Note_on_c, 0, 60, 120
2, 59952, Note_on_c, 0, 65, 0
2, 59988, Note_on_c, 0, 60, 0
2, 60000, Note_on_c, 0, 62, 120
2, 60000, Note_on_c, 0, 59, 120
2, 60048, Note_on_c, 0, 59, 0
2, 60060, Note_on_c, 0, 60, 120
2, 60108, Note_on_c, 0, 60, 0
2, 60120, Note_on_c, 0, 59, 120
2, 60168, Note_on_c, 0, 59, 0
2, 60180, Note_on_c, 0, 57, 120
2, 60192, Note_on_c, 0, 62, 0
2, 60228, Note_on_c, 0, 57, 0
2, 60240, Note_on_c, 0, 55, 120
2, 60288, Note_on_c, 0, 55, 0
2, 60300, Note_on_c, 0, 57, 120
2, 60348, Note_on_c, 0, 57, 0
2, 60360, Note_on_c, 0, 59, 120
2, 60408, Note_on_c, 0, 59, 0
2, 60420, Note_on_c, 0, 60, 120
2, 60468, Note_on_c, 0, 60, 0
2, 60480, Note_on_c, 0, 59, 120
2, 60480, Note_on_c, 0, 62, 120
2, 60528, Note_on_c, 0, 59, 0
2, 60540, Note_on_c, 0, 62, 120
2, 60588, Note_on_c, 0, 62, 0
2, 60600, Note_on_c, 0, 60, 120
2, 60648, Note_on_c, 0, 60, 0
2, 60660, Note_on_c, 0, 59, 120
2, 60672, Note_on_c, 0, 62, 0
2, 60708, Note_on_c, 0, 59, 0
2, 60720, Note_on_c, 0, 60, 120
2, 60720, Note_on_c, 0, 60, 120
2, 60768, Note_on_c, 0, 60, 0
2, 60780, Note_on_c, 0, 62, 120
2, 60828, Note_on_c, 0, 62, 0
2, 60840, Note_on_c, 0, 63, 120
2, 60888, Note_on_c, 0, 63, 0
2, 60900, Note_on_c, 0, 65, 120
2, 60912, Note_on_c, 0, 60, 0
2, 60948, Note_on_c, 0, 65, 0
2, 60960, Note_on_c, 0, 67, 120
2, 61008, Note_on_c, 0, 67, 0
2, 61020, Note_on_c, 0, 69, 120
2, 61068, Note_on_c, 0, 69, 0
2, 61080, Note_on_c, 0, 71, 120
2, 61128, Note_on_c, 0, 71, 0
2, 61140, Note_on_c, 0, 72, 120
2, 61188, Note_on_c, 0, 72, 0
2, 61200, Note_on_c, 0, 74, 120
2, 61200, Note_on_c, 0, 67, 120
2, 61248, Note_on_c, 0, 74, 0
2, 61260, Note_on_c, 0, 77, 120
2, 61308, Note_on_c, 0, 77, 0
2, 61320, Note_on_c, 0, 75, 120
2, 61368, Note_on_c, 0, 75, 0
2, 61380, Note_on_c, 0, 74, 120
2, 61392, Note_on_c, 0, 67, 0
2, 61428, Note_on_c, 0, 74, 0
2, 61440, Note_on_c, 0, 67, 120
2, 61440, Note_on_c, 0, 75, 120
2, 61488, Note_on_c, 0, 75, 0
2, 61500, Note_on_c, 0, 79, 120
2, 61548, Note_on_c, 0, 79, 0
2, 61560, Note_on_c, 0, 84, 120
2, 61608, Note_on_c, 0, 84, 0
2, 61620, Note_on_c, 0, 82, 120
2, 61632, Note_on_c, 0, 67, 0
2, 61668, Note_on_c, 0, 82, 0
2, 61680, Note_on_c, 0, 80, 120
2, 61728, Note_on_c, 0, 80, 0
2, 61740, Note_on_c, 0, 79, 120
2, 61788, Note_on_c, 0, 79, 0
2, 61800, Note_on_c, 0, 77, 120
2, 61848, Note_on_c, 0, 77, 0
2, 61860, Note_on_c, 0, 75, 120
2, 61908, Note_on_c, 0, 75, 0
2, 61920, Note_on_c, 0, 74, 120
2, 61920, Note_on_c, 0, 65, 120
2, 61968, Note_on_c, 0, 74, 0
2, 61980, Note_on_c, 0, 75, 120
2, 62028, Note_on_c, 0, 75, 0
2, 62040, Note_on_c, 0, 74, 120
2, 62088, Note_on_c, 0, 74, 0
2, 62100, Note_on_c, 0, 72, 120
2, 62112, Note_on_c, 0, 65, 0
2, 62148, Note_on_c, 0, 72, 0
2, 62160, Note_on_c, 0, 71, 120
2, 62160, Note_on_c, 0, 62, 120
2, 62208, Note_on_c, 0, 71, 0
2, 62220, Note_on_c, 0, 72, 120
2, 62268, Note_on_c, 0, 72, 0
2, 62280, Note_on_c, 0, 74, 120
2, 62328, Note_on_c, 0, 74, 0
2, 62340, Note_on_c, 0, 75, 120
2, 62352, Note_on_c, 0, 62, 0
2, 62388, Note_on_c, 0, 75, 0
2, 62400, Note_on_c, 0, 74, 120
2, 62448, Note_on_c, 0, 74, 0
2, 62460, Note_on_c, 0, 72, 120
2, 62508, Note_on_c, 0, 72, 0
2, 62520, Note_on_c, 0, 71, 120
2, 62568, Note_on_c, 0, 71, 0
2, 62580, Note_on_c, 0, 69, 120
2, 62628, Note_on_c, 0, 69, 0
2, 62640, Note_on_c, 0, 62, 120
2, 62640, Note_on_c, 0, 67, 120
2, 62688, Note_on_c, 0, 67, 0
2, 62700, Note_on_c, 0, 68, 120
2, 62748, Note_on_c, 0, 68, 0
2, 62760, Note_on_c, 0, 67, 120
2, 62808, Note_on_c, 0, 67, 0
2, 62820, Note_on_c, 0, 65, 120
2, 62832, Note_on_c, 0, 62, 0
2, 62868, Note_on_c, 0, 65, 0
2, 62880, Note_on_c, 0, 60, 120
2, 62880, Note_on_c, 0, 63, 120
2, 62928, Note_on_c, 0, 63, 0
2, 62940, Note_on_c, 0, 65, 120
2, 62988, Note_on_c, 0, 65, 0
2, 63000, Note_on_c, 0, 67, 120
2, 63048, Note_on_c, 0, 67, 0
2, 63060, Note_on_c, 0, 68, 120
2, 63072, Note_on_c, 0, 60, 0
2, 63108, Note_on_c, 0, 68, 0
2, 63120, Note_on_c, 0, 67, 120
2, 63168, Note_on_c, 0, 67, 0
2, 63180, Note_on_c, 0, 65, 120
2, 63228, Note_on_c, 0, 65, 0
2, 63240, Note_on_c, 0, 63, 120
2, 63288, Note_on_c, 0, 63, 0
2, 63300, Note_on_c, 0, 62, 120
2, 63348, Note_on_c, 0, 62, 0
2, 63360, Note_on_c, 0, 72, 120
2, 63552, Note_on_c, 0, 72, 0
2, 63600, Note_on_c, 0, 79, 110
2, 63984, Note_on_c, 0, 79, 0
2, 64080, Note_on_c, 0, 75, 110
2, 64272, Note_on_c, 0, 75, 0
2, 64320, Note_on_c, 0, 77, 110
2, 64704, Note_on_c, 0, 77, 0
2, 64800, Note_on_c, 0, 79, 110
2, 64992, Note_on_c, 0, 79, 0
2, 65040, Note_on_c, 0, 80, 110
2, 65424, Note_on_c, 0, 80, 0
2, 65520, Note_on_c, 0, 77, 110
2, 65712, Note_on_c, 0, 77, 0
2, 65760, Note_on_c, 0, 79, 110
2, 66144, Note_on_c, 0, 79, 0
2, 66240, Note_on_c, 0, 74, 110
2, 66432, Note_on_c, 0, 74, 0
2, 66480, Note_on_c, 0, 75, 110
2, 66864, Note_on_c, 0, 75, 0
2, 66960, Note_on_c, 0, 71, 110
2, 67152, Note_on_c, 0, 71, 0
2, 67200, Note_on_c, 0, 72, 110
2, 67584, Note_on_c, 0, 72, 0
2, 67680, Note_on_c, 0, 65, 110
2, 67872, Note_on_c, 0, 65, 0
2, 67920, Note_on_c, 0, 67, 110
2, 68496, Note_on_c, 0, 67, 0
2, 68640, Note_on_c, 0, 60, 110
2, 69024, Note_on_c, 0, 60, 0
2, 69120, Note_on_c, 0, 72, 110
2, 69312, Note_on_c, 0, 72, 0
2, 69360, Note_on_c, 0, 79, 120
2, 69480, Note_on_c, 0, 67, 120
2, 69576, Note_on_c, 0, 67, 0
2, 69600, Note_on_c, 0, 69, 120
2, 69696, Note_on_c, 0, 69, 0
2, 69720, Note_on_c, 0, 71, 120
2, 69744, Note_on_c, 0, 79, 0
2, 69816, Note_on_c, 0, 71, 0
2, 69840, Note_on_c, 0, 72, 120
2, 69840, Note_on_c, 0, 75, 120
2, 70032, Note_on_c, 0, 75, 0
2, 70080, Note_on_c, 0, 77, 120
2, 70128, Note_on_c, 0, 72, 0
2, 70140, Note_on_c, 0, 73, 120
2, 70188, Note_on_c, 0, 73, 0
2, 70200, Note_on_c, 0, 70, 120
2, 70248, Note_on_c, 0, 70, 0
2, 70260, Note_on_c, 0, 72, 120
2, 70308, Note_on_c, 0, 72, 0
2, 70320, Note_on_c, 0, 68, 120
2, 70368, Note_on_c, 0, 68, 0
2, 70380, Note_on_c, 0, 70, 120
2, 70428, Note_on_c, 0, 70, 0
2, 70440, Note_on_c, 0, 67, 120
2, 70464, Note_on_c, 0, 77, 0
2, 70488, Note_on_c, 0, 67, 0
2, 70500, Note_on_c, 0, 68, 120
2, 70548, Note_on_c, 0, 68, 0
2, 70560, Note_on_c, 0, 65, 120
2, 70560, Note_on_c, 0, 79, 120
2, 70608, Note_on_c, 0, 65, 0
2, 70620, Note_on_c, 0, 67, 120
2, 70668, Note_on_c, 0, 67, 0
2, 70680, Note_on_c, 0, 64, 120
2, 70728, Note_on_c, 0, 64, 0
2, 70740, Note_on_c, 0, 67, 120
2, 70752, Note_on_c, 0, 79, 0
2, 70788, Note_on_c, 0, 67, 0
2, 70800, Note_on_c, 0, 80, 120
2, 70800, Note_on_c, 0, 65, 120
2, 70896, Note_on_c, 0, 65, 0
2, 71184, Note_on_c, 0, 80, 0
2, 71280, Note_on_c, 0, 77, 120
2, 71400, Note_on_c, 0, 69, 120
2, 71472, Note_on_c, 0, 77, 0
2, 71496, Note_on_c, 0, 69, 0
2, 71520, Note_on_c, 0, 79, 120
2, 71520, Note_on_c, 0, 74, 120
2, 71568, Note_on_c, 0, 74, 0
2, 71580, Note_on_c, 0, 75, 120
2, 71628, Note_on_c, 0, 75, 0
2, 71640, Note_on_c, 0, 72, 120
2, 71688, Note_on_c, 0, 72, 0
2, 71700, Note_on_c, 0, 74, 120
2, 71748, Note_on_c, 0, 74, 0
2, 71760, Note_on_c, 0, 71, 120
2, 71808, Note_on_c, 0, 71, 0
2, 71820, Note_on_c, 0, 72, 120
2, 71868, Note_on_c, 0, 72, 0
2, 71880, Note_on_c, 0, 69, 120
2, 71904, Note_on_c, 0, 79, 0
2, 71928, Note_on_c, 0, 69, 0
2, 71940, Note_on_c, 0, 71, 120
2, 71988, Note_on_c, 0, 71, 0
2, 72000, Note_on_c, 0, 67, 120
2, 72000, Note_on_c, 0, 74, 120
2, 72048, Note_on_c, 0, 67, 0
2, 72060, Note_on_c, 0, 68, 120
2, 72108, Note_on_c, 0, 68, 0
2, 72120, Note_on_c, 0, 65, 120
2, 72168, Note_on_c, 0, 65, 0
2, 72180, Note_on_c, 0, 67, 120
2, 72192, Note_on_c, 0, 74, 0
2, 72228, Note_on_c, 0, 67, 0
2, 72240, Note_on_c, 0, 63, 120
2, 72240, Note_on_c, 0, 75, 120
2, 72336, Note_on_c, 0, 63, 0
2, 72360, Note_on_c, 0, 67, 120
2, 72456, Note_on_c, 0, 67, 0
2, 72480, Note_on_c, 0, 72, 120
2, 72576, Note_on_c, 0, 72, 0
2, 72600, Note_on_c, 0, 70, 120
2, 72624, Note_on_c, 0, 75, 0
2, 72696, Note_on_c, 0, 70, 0
2, 72720, Note_on_c, 0, 71, 120
2, 72720, Note_on_c, 0, 68, 120
2, 72816, Note_on_c, 0, 68, 0
2, 72840, Note_on_c, 0, 67, 120
2, 72888, Note_on_c, 0, 67, 0
2, 72900, Note_on_c, 0, 65, 120
2, 72912, Note_on_c, 0, 71, 0
2, 72948, Note_on_c, 0, 65, 0
2, 72960, Note_on_c, 0, 67, 120
2, 72960, Note_on_c, 0, 72, 120
2, 73008, Note_on_c, 0, 67, 0
2, 73020, Note_on_c, 0, 68, 120
2, 73068, Note_on_c, 0, 68, 0
2, 73080, Note_on_c, 0, 65, 120
2, 73128, Note_on_c, 0, 65, 0
2, 73140, Note_on_c, 0, 67, 120
2, 73188, Note_on_c, 0, 67, 0
2, 73200, Note_on_c, 0, 63, 120
2, 73248, Note_on_c, 0, 63, 0
2, 73260, Note_on_c, 0, 65, 120
2, 73308, Note_on_c, 0, 65, 0
2, 73320, Note_on_c, 0, 62, 120
2, 73344, Note_on_c, 0, 72, 0
2, 73368, Note_on_c, 0, 62, 0
2, 73380, Note_on_c, 0, 63, 120
2, 73428, Note_on_c, 0, 63, 0
2, 73440, Note_on_c, 0, 65, 120
2, 73440, Note_on_c, 0, 60, 120
2, 73536, Note_on_c, 0, 60, 0
2, 73560, Note_on_c, 0, 65, 120
2, 73632, Note_on_c, 0, 65, 0
2, 73680, Note_on_c, 0, 67, 120
2, 73728, Note_on_c, 0, 65, 0
2, 73740, Note_on_c, 0, 67, 120
2, 73788, Note_on_c, 0, 67, 0
2, 73800, Note_on_c, 0, 63, 120
2, 73848, Note_on_c, 0, 63, 0
2, 73860, Note_on_c, 0, 65, 120
2, 73908, Note_on_c, 0, 65, 0
2, 73920, Note_on_c, 0, 62, 120
2, 74016, Note_on_c, 0, 62, 0
2, 74040, Note_on_c, 0, 59, 120
2, 74136, Note_on_c, 0, 59, 0
2, 74160, Note_on_c, 0, 60, 120
2, 74256, Note_on_c, 0, 60, 0
2, 74256, Note_on_c, 0, 67, 0
2, 74280, Note_on_c, 0, 59, 120
2, 74376, Note_on_c, 0, 59, 0
2, 74400, Note_on_c, 0, 60, 120
2, 74400, Note_on_c, 0, 60, 120
2, 74784, Note_on_c, 0, 60, 0
2, 74784, Note_on_c, 0, 60, 0
2, 74880, Note_on_c, 0, 60, 120
2, 74928, Note_on_c, 0, 60, 0
2, 74940, Note_on_c, 0, 63, 110
2, 74988, Note_on_c, 0, 63, 0
2, 75000, Note_on_c, 0, 62, 110
2, 75048, Note_on_c, 0, 62, 0
2, 75060, Note_on_c, 0, 60, 110
2, 75108, Note_on_c, 0, 60, 0
2, 75120, Note_on_c, 0, 67, 110
2, 75360, Note_on_c, 0, 72, 110
2, 75408, Note_on_c, 0, 72, 0
2, 75420, Note_on_c, 0, 75, 110
2, 75468, Note_on_c, 0, 75, 0
2, 75480, Note_on_c, 0, 74, 110
2, 75504, Note_on_c, 0, 67, 0
2, 75528, Note_on_c, 0, 74, 0
2, 75540, Note_on_c, 0, 72, 110
2, 75588, Note_on_c, 0, 72, 0
2, 75600, Note_on_c, 0, 63, 110
2, 75600, Note_on_c, 0, 79, 110
2, 75792, Note_on_c, 0, 79, 0
2, 75792, Note_on_c, 0, 63, 0
2, 75840, Note_on_c, 0, 72, 110
2, 75840, Note_on_c, 0, 65, 110
2, 75888, Note_on_c, 0, 72, 0
2, 75900, Note_on_c, 0, 76, 110
2, 75948, Note_on_c, 0, 76, 0
2, 75960, Note_on_c, 0, 74, 110
2, 76008, Note_on_c, 0, 74, 0
2, 76020, Note_on_c, 0, 72, 110
2, 76068, Note_on_c, 0, 72, 0
2, 76080, Note_on_c, 0, 77, 110
2, 76128, Note_on_c, 0, 65, 0
2, 76140, Note_on_c, 0, 68, 110
2, 76188, Note_on_c, 0, 68, 0
2, 76200, Note_on_c, 0, 67, 110
2, 76248, Note_on_c, 0, 67, 0
2, 76260, Note_on_c, 0, 65, 110
2, 76308, Note_on_c, 0, 65, 0
2, 76320, Note_on_c, 0, 67, 110
2, 76368, Note_on_c, 0, 67, 0
2, 76368, Note_on_c, 0, 77, 0
2, 76380, Note_on_c, 0, 70, 110
2, 76428, Note_on_c, 0, 70, 0
2, 76440, Note_on_c, 0, 76, 110
2, 76440, Note_on_c, 0, 68, 110
2, 76488, Note_on_c, 0, 68, 0
2, 76500, Note_on_c, 0, 67, 110
2, 76536, Note_on_c, 0, 76, 0
2, 76548, Note_on_c, 0, 67, 0
2, 76560, Note_on_c, 0, 77, 110
2, 76560, Note_on_c, 0, 68, 110
2, 76608, Note_on_c, 0, 77, 0
2, 76620, Note_on_c, 0, 80, 110
2, 76668, Note_on_c, 0, 80, 0
2, 76680, Note_on_c, 0, 79, 110
2, 76728, Note_on_c, 0, 79, 0
2, 76740, Note_on_c, 0, 77, 110
2, 76788, Note_on_c, 0, 77, 0
2, 76800, Note_on_c, 0, 84, 110
2, 76848, Note_on_c, 0, 68, 0
2, 76860, Note_on_c, 0, 70, 110
2, 76908, Note_on_c, 0, 70, 0
2, 76920, Note_on_c, 0, 68, 110
2, 76968, Note_on_c, 0, 68, 0
2, 76980, Note_on_c, 0, 67, 110
2, 77028, Note_on_c, 0, 67, 0
2, 77040, Note_on_c, 0, 65, 110
2, 77088, Note_on_c, 0, 84, 0
2, 77100, Note_on_c, 0, 75, 110
2, 77148, Note_on_c, 0, 75, 0
2, 77160, Note_on_c, 0, 74, 110
2, 77208, Note_on_c, 0, 74, 0
2, 77220, Note_on_c, 0, 72, 110
2, 77232, Note_on_c, 0, 65, 0
2, 77268, Note_on_c, 0, 72, 0
2, 77280, Note_on_c, 0, 71, 110
2, 77280, Note_on_c, 0, 67, 110
2, 77472, Note_on_c, 0, 71, 0
2, 77520, Note_on_c, 0, 72, 110
2, 77568, Note_on_c, 0, 67, 0
2, 77580, Note_on_c, 0, 67, 110
2, 77628, Note_on_c, 0, 67, 0
2, 77640, Note_on_c, 0, 65, 110
2, 77688, Note_on_c, 0, 65, 0
2, 77700, Note_on_c, 0, 63, 110
2, 77712, Note_on_c, 0, 72, 0
2, 77748, Note_on_c, 0, 63, 0
2, 77760, Note_on_c, 0, 74, 110
2, 77760, Note_on_c, 0, 62, 110
2, 77808, Note_on_c, 0, 62, 0
2, 77820, Note_on_c, 0, 65, 110
2, 77868, Note_on_c, 0, 65, 0
2, 77880, Note_on_c, 0, 63, 110
2, 77928, Note_on_c, 0, 63, 0
2, 77940, Note_on_c, 0, 62, 110
2, 77952, Note_on_c, 0, 74, 0
2, 77988, Note_on_c, 0, 62, 0
2, 78000, Note_on_c, 0, 67, 110
2, 78000, Note_on_c, 0, 63, 110
2, 78096, Note_on_c, 0, 67, 0
2, 78120, Note_on_c, 0, 72, 110
2, 78288, Note_on_c, 0, 72, 0
2, 78288, Note_on_c, 0, 63, 0
2, 78300, Note_on_c, 0, 72, 110
2, 78300, Note_on_c, 0, 63, 110
2, 78348, Note_on_c, 0, 63, 0
2, 78348, Note_on_c, 0, 72, 0
2, 78360, Note_on_c, 0, 71, 110
2, 78360, Note_on_c, 0, 62, 110
2, 78408, Note_on_c, 0, 62, 0
2, 78408, Note_on_c, 0, 71, 0
2, 78420, Note_on_c, 0, 69, 110
2, 78420, Note_on_c, 0, 60, 110
2, 78468, Note_on_c, 0, 60, 0
2, 78468, Note_on_c, 0, 69, 0
2, 78480, Note_on_c, 0, 59, 110
2, 78480, Note_on_c, 0, 67, 110
2, 78528, Note_on_c, 0, 59, 0
2, 78540, Note_on_c, 0, 62, 110
2, 78576, Note_on_c, 0, 67, 0
2, 78588, Note_on_c, 0, 62, 0
2, 78600, Note_on_c, 0, 65, 110
2, 78600, Note_on_c, 0, 60, 110
2, 78648, Note_on_c, 0, 60, 0
2, 78660, Note_on_c, 0, 59, 110
2, 78696, Note_on_c, 0, 65, 0
2, 78708, Note_on_c, 0, 59, 0
2, 78720, Note_on_c, 0, 63, 110
2, 78816, Note_on_c, 0, 63, 0
2, 78840, Note_on_c, 0, 68, 110
2, 79008, Note_on_c, 0, 68, 0
2, 79020, Note_on_c, 0, 67, 110
2, 79068, Note_on_c, 0, 67, 0
2, 79080, Note_on_c, 0, 72, 110
2, 79128, Note_on_c, 0, 72, 0
2, 79140, Note_on_c, 0, 70, 110
2, 79188, Note_on_c, 0, 70, 0
2, 79200, Note_on_c, 0, 68, 110
2, 79248, Note_on_c, 0, 68, 0
2, 79260, Note_on_c, 0, 77, 110
2, 79308, Note_on_c, 0, 77, 0
2, 79320, Note_on_c, 0, 79, 110
2, 79368, Note_on_c, 0, 79, 0
2, 79380, Note_on_c, 0, 80, 110
2, 79428, Note_on_c, 0, 80, 0
2, 79440, Note_on_c, 0, 71, 110
2, 79632, Note_on_c, 0, 71, 0
2, 79680, Note_on_c, 0, 72, 110
2, 79728, Note_on_c, 0, 72, 0
2, 79740, Note_on_c, 0, 75, 110
2, 79788, Note_on_c, 0, 75, 0
2, 79800, Note_on_c, 0, 74, 110
2, 79848, Note_on_c, 0, 74, 0
2, 79860, Note_on_c, 0, 72, 110
2, 79908, Note_on_c, 0, 72, 0
2, 79920, Note_on_c, 0, 79, 110
2, 80208, Note_on_c, 0, 79, 0
2, 80220, Note_on_c, 0, 83, 96
2, 80268, Note_on_c, 0, 83, 0
2, 80280, Note_on_c, 0, 81, 96
2, 80328, Note_on_c, 0, 81, 0
2, 80340, Note_on_c, 0, 79, 96
2, 80388, Note_on_c, 0, 79, 0
2, 80400, Note_on_c, 0, 84, 96
2, 80496, Note_on_c, 0, 84, 0
2, 80520, Note_on_c, 0, 72, 96
2, 80616, Note_on_c, 0, 72, 0
2, 80700, Note_on_c, 0, 79, 96
2, 80748, Note_on_c, 0, 79, 0
2, 80760, Note_on_c, 0, 75, 96
2, 80808, Note_on_c, 0, 75, 0
2, 80820, Note_on_c, 0, 72, 96
2, 80868, Note_on_c, 0, 72, 0
2, 80880, Note_on_c, 0, 71, 96
2, 80976, Note_on_c, 0, 71, 0
2, 81000, Note_on_c, 0, 67, 96
2, 81096, Note_on_c, 0, 67, 0
2, 81180, Note_on_c, 0, 71, 96
2, 81228, Note_on_c, 0, 71, 0
2, 81240, Note_on_c, 0, 74, 96
2, 81288, Note_on_c, 0, 74, 0
2, 81300, Note_on_c, 0, 79, 96
2, 81348, Note_on_c, 0, 79, 0
2, 81420, Note_on_c, 0, 79, 96
2, 81468, Note_on_c, 0, 79, 0
2, 81480, Note_on_c, 0, 75, 96
2, 81528, Note_on_c, 0, 75, 0
2, 81540, Note_on_c, 0, 72, 96
2, 81588, Note_on_c, 0, 72, 0
2, 81600, Note_on_c, 0, 80, 96
2, 81696, Note_on_c, 0, 80, 0
2, 81720, Note_on_c, 0, 77, 96
2, 81816, Note_on_c, 0, 77, 0
2, 81900, Note_on_c, 0, 68, 96
2, 81948, Note_on_c, 0, 68, 0
2, 81960, Note_on_c, 0, 72, 96
2, 82008, Note_on_c, 0, 72, 0
2, 82020, Note_on_c, 0, 77, 96
2, 82068, Note_on_c, 0, 77, 0
2, 82140, Note_on_c, 0, 79, 96
2, 82188, Note_on_c, 0, 79, 0
2, 82200, Note_on_c, 0, 75, 96
2, 82248, Note_on_c, 0, 75, 0
2, 82260, Note_on_c, 0, 71, 96
2, 82308, Note_on_c, 0, 71, 0
2, 82320, Note_on_c, 0, 72, 96
2, 82416, Note_on_c, 0, 72, 0
2, 82440, Note_on_c, 0, 56, 96
2, 82536, Note_on_c, 0, 56, 0
2, 82620, Note_on_c, 0, 72, 96
2, 82668, Note_on_c, 0, 72, 0
2, 82680, Note_on_c, 0, 75, 96
2, 82728, Note_on_c, 0, 75, 0
2, 82740, Note_on_c, 0, 80, 96
2, 82788, Note_on_c, 0, 80, 0
2, 82860, Note_on_c, 0, 80, 96
2, 82908, Note_on_c, 0, 80, 0
2, 82920, Note_on_c, 0, 77, 96
2, 82968, Note_on_c, 0, 77, 0
2, 82980, Note_on_c, 0, 74, 96
2, 83028, Note_on_c, 0, 74, 0
2, 83040, Note_on_c, 0, 71, 96
2, 83136, Note_on_c, 0, 71, 0
2, 83160, Note_on_c, 0, 67, 96
2, 83256, Note_on_c, 0, 67, 0
2, 83340, Note_on_c, 0, 71, 96
2, 83388, Note_on_c, 0, 71, 0
2, 83400, Note_on_c, 0, 74, 96
2, 83448, Note_on_c, 0, 74, 0
2, 83460, Note_on_c, 0, 79, 96
2, 83508, Note_on_c, 0, 79, 0
2, 83580, Note_on_c, 0, 80, 96
2, 83628, Note_on_c, 0, 80, 0
2, 83640, Note_on_c, 0, 77, 96
2, 83688, Note_on_c, 0, 77, 0
2, 83700, Note_on_c, 0, 70, 96
2, 83748, Note_on_c, 0, 70, 0
2, 83760, Note_on_c, 0, 79, 96
2, 83856, Note_on_c, 0, 79, 0
2, 83880, Note_on_c, 0, 75, 96
2, 83976, Note_on_c, 0, 75, 0
2, 84060, Note_on_c, 0, 67, 96
2, 84108, Note_on_c, 0, 67, 0
2, 84120, Note_on_c, 0, 70, 96
2, 84168, Note_on_c, 0, 70, 0
2, 84180, Note_on_c, 0, 75, 96
2, 84228, Note_on_c, 0, 75, 0
2, 84300, Note_on_c, 0, 77, 96
2, 84348, Note_on_c, 0, 77, 0
2, 84360, Note_on_c, 0, 74, 96
2, 84408, Note_on_c, 0, 74, 0
2, 84420, Note_on_c, 0, 67, 96
2, 84468, Note_on_c, 0, 67, 0
2, 84480, Note_on_c, 0, 75, 96
2, 84576, Note_on_c, 0, 75, 0
2, 84600, Note_on_c, 0, 72, 96
2, 84696, Note_on_c, 0, 72, 0
2, 84780, Note_on_c, 0, 63, 96
2, 84828, Note_on_c, 0, 63, 0
2, 84840, Note_on_c, 0, 67, 96
2, 84888, Note_on_c, 0, 67, 0
2, 84900, Note_on_c, 0, 72, 96
2, 84948, Note_on_c, 0, 72, 0
2, 85020, Note_on_c, 0, 68, 96
2, 85068, Note_on_c, 0, 68, 0
2, 85080, Note_on_c, 0, 65, 96
2, 85128, Note_on_c, 0, 65, 0
2, 85140, Note_on_c, 0, 62, 96
2, 85188, Note_on_c, 0, 62, 0
2, 85200, Note_on_c, 0, 63, 96
2, 85296, Note_on_c, 0, 63, 0
2, 85320, Note_on_c, 0, 60, 96
2, 85416, Note_on_c, 0, 60, 0
2, 85500, Note_on_c, 0, 60, 96
2, 85548, Note_on_c, 0, 60, 0
2, 85560, Note_on_c, 0, 63, 96
2, 85608, Note_on_c, 0, 63, 0
2, 85620, Note_on_c, 0, 67, 96
2, 85668, Note_on_c, 0, 67, 0
2, 85680, Note_on_c, 0, 59, 96
2, 85728, Note_on_c, 0, 59, 0
2, 85740, Note_on_c, 0, 62, 96
2, 85788, Note_on_c, 0, 62, 0
2, 85800, Note_on_c, 0, 65, 96
2, 85848, Note_on_c, 0, 65, 0
2, 85860, Note_on_c, 0, 59, 96
2, 85908, Note_on_c, 0, 59, 0
2, 85920, Note_on_c, 0, 60, 96
2, 85920, Note_on_c, 0, 63, 96
2, 86016, Note_on_c, 0, 63, 0
2, 86016, Note_on_c, 0, 60, 0
2, 86160, Note_on_c, 0, 60, 84
2, 86208, Note_on_c, 0, 60, 0
2, 86220, Note_on_c, 0, 63, 84
2, 86268, Note_on_c, 0, 63, 0
2, 86280, Note_on_c, 0, 67, 84
2, 86328, Note_on_c, 0, 67, 0
2, 86340, Note_on_c, 0, 72, 84
2, 86388, Note_on_c, 0, 72, 0
2, 86400, Note_on_c, 0, 72, 84
2, 86448, Note_on_c, 0, 72, 0
2, 86460, Note_on_c, 0, 75, 84
2, 86508, Note_on_c, 0, 75, 0
2, 86520, Note_on_c, 0, 79, 84
2, 86568, Note_on_c, 0, 79, 0
2, 86580, Note_on_c, 0, 84, 84
2, 86628, Note_on_c, 0, 84, 0
2, 86880, Note_on_c, 0, 67, 84
2, 86928, Note_on_c, 0, 67, 0
2, 86940, Note_on_c, 0, 71, 84
2, 86988, Note_on_c, 0, 71, 0
2, 87000, Note_on_c, 0, 74, 84
2, 87048, Note_on_c, 0, 74, 0
2, 87060, Note_on_c, 0, 79, 84
2, 87108, Note_on_c, 0, 79, 0
2, 87120, Note_on_c, 0, 63, 84
2, 87168, Note_on_c, 0, 63, 0
2, 87180, Note_on_c, 0, 72, 84
2, 87228, Note_on_c, 0, 72, 0
2, 87240, Note_on_c, 0, 79, 84
2, 87288, Note_on_c, 0, 79, 0
2, 87300, Note_on_c, 0, 84, 84
2, 87348, Note_on_c, 0, 84, 0
2, 87600, Note_on_c, 0, 65, 84
2, 87648, Note_on_c, 0, 65, 0
2, 87660, Note_on_c, 0, 68, 84
2, 87708, Note_on_c, 0, 68, 0
2, 87720, Note_on_c, 0, 72, 84
2, 87768, Note_on_c, 0, 72, 0
2, 87780, Note_on_c, 0, 77, 84
2, 87828, Note_on_c, 0, 77, 0
2, 87840, Note_on_c, 0, 67, 84
2, 87888, Note_on_c, 0, 67, 0
2, 87900, Note_on_c, 0, 75, 84
2, 87948, Note_on_c, 0, 75, 0
2, 87960, Note_on_c, 0, 79, 84
2, 88008, Note_on_c, 0, 79, 0
2, 88020, Note_on_c, 0, 83, 84
2, 88068, Note_on_c, 0, 83, 0
2, 88320, Note_on_c, 0, 68, 84
2, 88368, Note_on_c, 0, 68, 0
2, 88380, Note_on_c, 0, 72, 84
2, 88428, Note_on_c, 0, 72, 0
2, 88440, Note_on_c, 0, 75, 84
2, 88488, Note_on_c, 0, 75, 0
2, 88500, Note_on_c, 0, 80, 84
2, 88548, Note_on_c, 0, 80, 0
2, 88560, Note_on_c, 0, 65, 84
2, 88608, Note_on_c, 0, 65, 0
2, 88620, Note_on_c, 0, 74, 84
2, 88668, Note_on_c, 0, 74, 0
2, 88680, Note_on_c, 0, 80, 84
2, 88728, Note_on_c, 0, 80, 0
2, 88740, Note_on_c, 0, 84, 84
2, 88788, Note_on_c, 0, 84, 0
2, 89040, Note_on_c, 0, 67, 84
2, 89088, Note_on_c, 0, 67, 0
2, 89100, Note_on_c, 0, 71, 84
2, 89148, Note_on_c, 0, 71, 0
2, 89160, Note_on_c, 0, 74, 84
2, 89208, Note_on_c, 0, 74, 0
2, 89220, Note_on_c, 0, 79, 84
2, 89268, Note_on_c, 0, 79, 0
2, 89280, Note_on_c, 0, 62, 84
2, 89328, Note_on_c, 0, 62, 0
2, 89340, Note_on_c, 0, 74, 84
2, 89388, Note_on_c, 0, 74, 0
2, 89400, Note_on_c, 0, 77, 84
2, 89448, Note_on_c, 0, 77, 0
2, 89460, Note_on_c, 0, 83, 84
2, 89508, Note_on_c, 0, 83, 0
2, 89760, Note_on_c, 0, 63, 84
2, 89808, Note_on_c, 0, 63, 0
2, 89820, Note_on_c, 0, 67, 84
2, 89868, Note_on_c, 0, 67, 0
2, 89880, Note_on_c, 0, 72, 84
2, 89928, Note_on_c, 0, 72, 0
2, 89940, Note_on_c, 0, 75, 84
2, 89988, Note_on_c, 0, 75, 0
2, 90000, Note_on_c, 0, 59, 84
2, 90048, Note_on_c, 0, 59, 0
2, 90060, Note_on_c, 0, 67, 84
2, 90108, Note_on_c, 0, 67, 0
2, 90120, Note_on_c, 0, 74, 84
2, 90168, Note_on_c, 0, 74, 0
2, 90180, Note_on_c, 0, 77, 84
2, 90228, Note_on_c, 0, 77, 0
2, 90480, Note_on_c, 0, 60, 84
2, 90528, Note_on_c, 0, 60, 0
2, 90540, Note_on_c, 0, 63, 84
2, 90588, Note_on_c, 0, 63, 0
2, 90600, Note_on_c, 0, 67, 84
2, 90648, Note_on_c, 0, 67, 0
2, 90660, Note_on_c, 0, 72, 84
2, 90708, Note_on_c, 0, 72, 0
2, 90720, Note_on_c, 0, 53, 84
2, 90768, Note_on_c, 0, 53, 0
2, 90780, Note_on_c, 0, 62, 84
2, 90828, Note_on_c, 0, 62, 0
2, 90840, Note_on_c, 0, 68, 84
2, 90888, Note_on_c, 0, 68, 0
2, 90900, Note_on_c, 0, 77, 84
2, 90948, Note_on_c, 0, 77, 0
2, 91200, Note_on_c, 0, 67, 84
2, 91248, Note_on_c, 0, 67, 0
2, 91260, Note_on_c, 0, 72, 84
2, 91308, Note_on_c, 0, 72, 0
2, 91320, Note_on_c, 0, 75, 84
2, 91368, Note_on_c, 0, 75, 0
2, 91380, Note_on_c, 0, 79, 84
2, 91428, Note_on_c, 0, 79, 0
2, 91440, Note_on_c, 0, 55, 84
2, 91488, Note_on_c, 0, 55, 0
2, 91500, Note_on_c, 0, 74, 84
2, 91548, Note_on_c, 0, 74, 0
2, 91560, Note_on_c, 0, 77, 84
2, 91608, Note_on_c, 0, 77, 0
2, 91620, Note_on_c, 0, 83, 84
2, 91668, Note_on_c, 0, 83, 0
2, 91920, Note_on_c, 0, 72, 84
2, 91968, Note_on_c, 0, 72, 0
2, 91980, Note_on_c, 0, 75, 84
2, 92028, Note_on_c, 0, 75, 0
2, 92040, Note_on_c, 0, 79, 84
2, 92088, Note_on_c, 0, 79, 0
2, 92100, Note_on_c, 0, 84, 84
2, 92148, Note_on_c, 0, 84, 0
2, 92280, Note_on_c, 0, 72, 84
2, 92280, Note_on_c, 0, 67, 84
2, 92280, Note_on_c, 0, 63, 110
2, 92376, Note_on_c, 0, 63, 0
2, 92376, Note_on_c, 0, 67, 0
2, 92376, Note_on_c, 0, 72, 0
2, 92460, Note_on_c, 0, 72, 110
2, 92508, Note_on_c, 0, 72, 0
2, 92520, Note_on_c, 0, 74, 110
2, 92520, Note_on_c, 0, 74, 110
2, 92568, Note_on_c, 0, 74, 0
2, 92580, Note_on_c, 0, 69, 110
2, 92628, Note_on_c, 0, 69, 0
2, 92640, Note_on_c, 0, 71, 110
2, 92700, Note_on_c, 0, 66, 110
2, 92748, Note_on_c, 0, 66, 0
2, 92760, Note_on_c, 0, 67, 110
2, 92760, Note_on_c, 0, 67, 110
2, 92808, Note_on_c, 0, 67, 0
2, 92820, Note_on_c, 0, 62, 110
2, 92868, Note_on_c, 0, 62, 0
2, 92880, Note_on_c, 0, 63, 110
2, 92976, Note_on_c, 0, 63, 0
2, 92976, Note_on_c, 0, 74, 0
2, 92976, Note_on_c, 0, 71, 0
2, 92976, Note_on_c, 0, 67, 0
2, 93000, Note_on_c, 0, 60, 110
2, 93000, Note_on_c, 0, 63, 110
2, 93000, Note_on_c, 0, 67, 110
2, 93000, Note_on_c, 0, 72, 110
2, 93096, Note_on_c, 0, 72, 0
2, 93096, Note_on_c, 0, 60, 0
2, 93096, Note_on_c, 0, 63, 0
2, 93096, Note_on_c, 0, 67, 0
2, 93180, Note_on_c, 0, 70, 110
2, 93228, Note_on_c, 0, 70, 0
2, 93240, Note_on_c, 0, 72, 110
2, 93240, Note_on_c, 0, 72, 110
2, 93288, Note_on_c, 0, 72, 0
2, 93300, Note_on_c, 0, 67, 110
2, 93348, Note_on_c, 0, 67, 0
2, 93360, Note_on_c, 0, 68, 110
2, 93420, Note_on_c, 0, 64, 110
2, 93468, Note_on_c, 0, 64, 0
2, 93480, Note_on_c, 0, 65, 110
2, 93480, Note_on_c, 0, 65, 110
2, 93528, Note_on_c, 0, 65, 0
2, 93540, Note_on_c, 0, 60, 110
2, 93552, Note_on_c, 0, 68, 0
2, 93576, Note_on_c, 0, 65, 0
2, 93600, Note_on_c, 0, 63, 110
2, 93600, Note_on_c, 0, 67, 110
2, 93696, Note_on_c, 0, 67, 0
2, 93696, Note_on_c, 0, 60, 0
2, 93696, Note_on_c, 0, 72, 0
2, 93696, Note_on_c, 0, 63, 0
2, 93720, Note_on_c, 0, 67, 110
2, 93720, Note_on_c, 0, 65, 110
2, 93720, Note_on_c, 0, 71, 110
2, 93720, Note_on_c, 0, 62, 110
2, 93816, Note_on_c, 0, 62, 0
2, 93816, Note_on_c, 0, 67, 0
2, 93816, Note_on_c, 0, 65, 0
2, 93816, Note_on_c, 0, 71, 0
2, 93900, Note_on_c, 0, 74, 110
2, 93948, Note_on_c, 0, 74, 0
2, 93960, Note_on_c, 0, 75, 110
2, 93960, Note_on_c, 0, 75, 110
2, 94008, Note_on_c, 0, 75, 0
2, 94020, Note_on_c, 0, 71, 110
2, 94068, Note_on_c, 0, 71, 0
2, 94080, Note_on_c, 0, 72, 110
2, 94140, Note_on_c, 0, 67, 110
2, 94188, Note_on_c, 0, 67, 0
2, 94200, Note_on_c, 0, 68, 110
2, 94200, Note_on_c, 0, 68, 110
2, 94248, Note_on_c, 0, 68, 0
2, 94260, Note_on_c, 0, 63, 110
2, 94308, Note_on_c, 0, 63, 0
2, 94320, Note_on_c, 0, 65, 110
2, 94416, Note_on_c, 0, 65, 0
2, 94416, Note_on_c, 0, 75, 0
2, 94416, Note_on_c, 0, 72, 0
2, 94416, Note_on_c, 0, 68, 0
2, 94440, Note_on_c, 0, 72, 110
2, 94440, Note_on_c, 0, 68, 110
2, 94440, Note_on_c, 0, 74, 110
2, 94440, Note_on_c, 0, 65, 110
2, 94536, Note_on_c, 0, 65, 0
2, 94536, Note_on_c, 0, 72, 0
2, 94536, Note_on_c, 0, 68, 0
2, 94536, Note_on_c, 0, 74, 0
2, 94620, Note_on_c, 0, 72, 110
2, 94668, Note_on_c, 0, 72, 0
2, 94680, Note_on_c, 0, 74, 110
2, 94680, Note_on_c, 0, 74, 110
2, 94728, Note_on_c, 0, 74, 0
2, 94740, Note_on_c, 0, 69, 110
2, 94788, Note_on_c, 0, 69, 0
2, 94800, Note_on_c, 0, 71, 110
2, 94860, Note_on_c, 0, 66, 110
2, 94908, Note_on_c, 0, 66, 0
2, 94920, Note_on_c, 0, 67, 110
2, 94920, Note_on_c, 0, 67, 110
2, 94968, Note_on_c, 0, 67, 0
2, 94980, Note_on_c, 0, 62, 110
2, 95016, Note_on_c, 0, 67, 0
2, 95040, Note_on_c, 0, 65, 110
2, 95136, Note_on_c, 0, 65, 0
2, 95136, Note_on_c, 0, 62, 0
2, 95136, Note_on_c, 0, 71, 0
2, 95136, Note_on_c, 0, 74, 0
2, 95160, Note_on_c, 0, 71, 110
2, 95160, Note_on_c, 0, 65, 110
2, 95160, Note_on_c, 0, 77, 110
2, 95160, Note_on_c, 0, 62, 110
2, 95256, Note_on_c, 0, 62, 0
2, 95256, Note_on_c, 0, 71, 0
2, 95256, Note_on_c, 0, 65, 0
2, 95256, Note_on_c, 0, 77, 0
2, 95340, Note_on_c, 0, 78, 110
2, 95388, Note_on_c, 0, 78, 0
2, 95400, Note_on_c, 0, 79, 110
2, 95400, Note_on_c, 0, 79, 110
2, 95448, Note_on_c, 0, 79, 0
2, 95460, Note_on_c, 0, 74, 110
2, 95508, Note_on_c, 0, 74, 0
2, 95520, Note_on_c, 0, 75, 110
2, 95580, Note_on_c, 0, 71, 110
2, 95628, Note_on_c, 0, 71, 0
2, 95640, Note_on_c, 0, 72, 110
2, 95640, Note_on_c, 0, 72, 110
2, 95688, Note_on_c, 0, 72, 0
2, 95700, Note_on_c, 0, 66, 110
2, 95712, Note_on_c, 0, 75, 0
2, 95736, Note_on_c, 0, 72, 0
2, 95748, Note_on_c, 0, 66, 0
2, 95760, Note_on_c, 0, 67, 110
2, 95760, Note_on_c, 0, 74, 110
2, 95760, Note_on_c, 0, 67, 110
2, 95856, Note_on_c, 0, 67, 0
2, 95856, Note_on_c, 0, 79, 0
2, 95856, Note_on_c, 0, 67, 0
2, 95856, Note_on_c, 0, 74, 0
2, 95880, Note_on_c, 0, 77, 110
2, 95880, Note_on_c, 0, 67, 110
2, 95880, Note_on_c, 0, 62, 110
2, 95880, Note_on_c, 0, 74, 110
2, 95976, Note_on_c, 0, 74, 0
2, 95976, Note_on_c, 0, 77, 0
2, 95976, Note_on_c, 0, 67, 0
2, 95976, Note_on_c, 0, 62, 0
2, 96060, Note_on_c, 0, 77, 110
2, 96108, Note_on_c, 0, 77, 0
2, 96120, Note_on_c, 0, 79, 110
2, 96120, Note_on_c, 0, 79, 110
2, 96168, Note_on_c, 0, 79, 0
2, 96180, Note_on_c, 0, 74, 110
2, 96228, Note_on_c, 0, 74, 0
2, 96240, Note_on_c, 0, 75, 110
2, 96300, Note_on_c, 0, 71, 110
2, 96348, Note_on_c, 0, 71, 0
2, 96360, Note_on_c, 0, 72, 110
2, 96360, Note_on_c, 0, 72, 110
2, 96408, Note_on_c, 0, 72, 0
2, 96420, Note_on_c, 0, 67, 110
2, 96468, Note_on_c, 0, 67, 0
2, 96480, Note_on_c, 0, 68, 110
2, 96576, Note_on_c, 0, 68, 0
2, 96576, Note_on_c, 0, 79, 0
2, 96576, Note_on_c, 0, 75, 0
2, 96576, Note_on_c, 0, 72, 0
2, 96600, Note_on_c, 0, 74, 110
2, 96600, Note_on_c, 0, 72, 110
2, 96600, Note_on_c, 0, 77, 110
2, 96600, Note_on_c, 0, 68, 110
2, 96696, Note_on_c, 0, 68, 0
2, 96696, Note_on_c, 0, 74, 0
2, 96696, Note_on_c, 0, 72, 0
2, 96696, Note_on_c, 0, 77, 0
2, 96780, Note_on_c, 0, 77, 110
2, 96828, Note_on_c, 0, 77, 0
2, 96840, Note_on_c, 0, 79, 110
2, 96840, Note_on_c, 0, 79, 110
2, 96888, Note_on_c, 0, 79, 0
2, 96900, Note_on_c, 0, 74, 110
2, 96948, Note_on_c, 0, 74, 0
2, 96960, Note_on_c, 0, 75, 110
2, 97020, Note_on_c, 0, 71, 110
2, 97068, Note_on_c, 0, 71, 0
2, 97080, Note_on_c, 0, 72, 110
2, 97080, Note_on_c, 0, 72, 110
2, 97128, Note_on_c, 0, 72, 0
2, 97140, Note_on_c, 0, 66, 110
2, 97152, Note_on_c, 0, 75, 0
2, 97188, Note_on_c, 0, 66, 0
2, 97200, Note_on_c, 0, 74, 110
2, 97200, Note_on_c, 0, 67, 110
2, 97296, Note_on_c, 0, 67, 0
2, 97296, Note_on_c, 0, 72, 0
2, 97296, Note_on_c, 0, 79, 0
2, 97296, Note_on_c, 0, 74, 0
2, 97320, Note_on_c, 0, 71, 110
2, 97320, Note_on_c, 0, 74, 110
2, 97320, Note_on_c, 0, 77, 110
2, 97320, Note_on_c, 0, 67, 110
2, 97416, Note_on_c, 0, 67, 0
2, 97416, Note_on_c, 0, 71, 0
2, 97416, Note_on_c, 0, 74, 0
2, 97416, Note_on_c, 0, 77, 0
2, 97500, Note_on_c, 0, 77, 110
2, 97548, Note_on_c, 0, 77, 0
2, 97560, Note_on_c, 0, 79, 110
2, 97560, Note_on_c, 0, 79, 110
2, 97608, Note_on_c, 0, 79, 0
2, 97620, Note_on_c, 0, 74, 110
2, 97668, Note_on_c, 0, 74, 0
2, 97680, Note_on_c, 0, 75, 110
2, 97740, Note_on_c, 0, 71, 110
2, 97788, Note_on_c, 0, 71, 0
2, 97800, Note_on_c, 0, 72, 110
2, 97800, Note_on_c, 0, 72, 110
2, 97848, Note_on_c, 0, 72, 0
2, 97860, Note_on_c, 0, 66, 110
2, 97896, Note_on_c, 0, 72, 0
2, 97908, Note_on_c, 0, 66, 0
2, 97920, Note_on_c, 0, 72, 110
2, 97920, Note_on_c, 0, 67, 110
2, 97952, Note_on_c, 0, 79, 0
2, 97960, Note_on_c, 0, 77, 110
2, 97992, Note_on_c, 0, 77, 0
2, 98000, Note_on_c, 0, 75, 110
2, 98016, Note_on_c, 0, 75, 0
2, 98016, Note_on_c, 0, 72, 0
2, 98032, Note_on_c, 0, 75, 0
2, 98040, Note_on_c, 0, 75, 110
2, 98072, Note_on_c, 0, 75, 0
2, 98072, Note_on_c, 0, 67, 0
2, 98080, Note_on_c, 0, 65, 110
2, 98080, Note_on_c, 0, 74, 110
2, 98112, Note_on_c, 0, 74, 0
2, 98112, Note_on_c, 0, 65, 0
2, 98120, Note_on_c, 0, 72, 110
2, 98120, Note_on_c, 0, 63, 110
2, 98152, Note_on_c, 0, 63, 0
2, 98152, Note_on_c, 0, 72, 0
2, 98160, Note_on_c, 0, 63, 110
2, 98160, Note_on_c, 0, 72, 110
2, 98192, Note_on_c, 0, 72, 0
2, 98192, Note_on_c, 0, 63, 0
2, 98200, Note_on_c, 0, 71, 110
2, 98200, Note_on_c, 0, 62, 110
2, 98232, Note_on_c, 0, 62, 0
2, 98232, Note_on_c, 0, 71, 0
2, 98240, Note_on_c, 0, 60, 110
2, 98240, Note_on_c, 0, 69, 110
2, 98272, Note_on_c, 0, 69, 0
2, 98272, Note_on_c, 0, 60, 0
2, 98280, Note_on_c, 0, 69, 110
2, 98280, Note_on_c, 0, 60, 110
2, 98312, Note_on_c, 0, 60, 0
2, 98312, Note_on_c, 0, 69, 0
2, 98320, Note_on_c, 0, 59, 110
2, 98320, Note_on_c, 0, 71, 110
2, 98352, Note_on_c, 0, 71, 0
2, 98352, Note_on_c, 0, 59, 0
2, 98360, Note_on_c, 0, 57, 110
2, 98360, Note_on_c, 0, 72, 110
2, 98392, Note_on_c, 0, 72, 0
2, 98392, Note_on_c, 0, 57, 0
2, 98400, Note_on_c, 0, 71, 110
2, 98400, Note_on_c, 0, 55, 110
2, 98432, Note_on_c, 0, 55, 0
2, 98432, Note_on_c, 0, 71, 0
2, 98440, Note_on_c, 0, 57, 110
2, 98440, Note_on_c, 0, 72, 110
2, 98472, Note_on_c, 0, 72, 0
2, 98472, Note_on_c, 0, 57, 0
2, 98480, Note_on_c, 0, 59, 110
2, 98480, Note_on_c, 0, 74, 110
2, 98512, Note_on_c, 0, 74, 0
2, 98512, Note_on_c, 0, 59, 0
2, 98520, Note_on_c, 0, 74, 110
2, 98520, Note_on_c, 0, 59, 110
2, 98552, Note_on_c, 0, 59, 0
2, 98552, Note_on_c, 0, 74, 0
2, 98560, Note_on_c, 0, 60, 110
2, 98560, Note_on_c, 0, 75, 110
2, 98592, Note_on_c, 0, 75, 0
2, 98592, Note_on_c, 0, 60, 0
2, 98600, Note_on_c, 0, 62, 110
2, 98600, Note_on_c, 0, 77, 110
2, 98632, Note_on_c, 0, 77, 0
2, 98632, Note_on_c, 0, 62, 0
2, 98640, Note_on_c, 0, 75, 110
2, 98640, Note_on_c, 0, 60, 110
2, 98672, Note_on_c, 0, 60, 0
2, 98672, Note_on_c, 0, 75, 0
2, 98680, Note_on_c, 0, 77, 110
2, 98680, Note_on_c, 0, 62, 110
2, 98712, Note_on_c, 0, 62, 0
2, 98712, Note_on_c, 0, 77, 0
2, 98720, Note_on_c, 0, 63, 110
2, 98720, Note_on_c, 0, 79, 110
2, 98752, Note_on_c, 0, 79, 0
2, 98752, Note_on_c, 0, 63, 0
2, 98760, Note_on_c, 0, 63, 110
2, 98760, Note_on_c, 0, 79, 110
2, 98792, Note_on_c, 0, 79, 0
2, 98792, Note_on_c, 0, 63, 0
2, 98800, Note_on_c, 0, 80, 110
2, 98800, Note_on_c, 0, 65, 110
2, 98832, Note_on_c, 0, 65, 0
2, 98832, Note_on_c, 0, 80, 0
2, 98840, Note_on_c, 0, 82, 110
2, 98840, Note_on_c, 0, 67, 110
2, 98872, Note_on_c, 0, 67, 0
2, 98872, Note_on_c, 0, 82, 0
2, 98880, Note_on_c, 0, 80, 110
2, 98880, Note_on_c, 0, 65, 110
2, 98912, Note_on_c, 0, 65, 0
2, 98912, Note_on_c, 0, 80, 0
2, 98920, Note_on_c, 0, 79, 110
2, 98920, Note_on_c, 0, 67, 110
2, 98952, Note_on_c, 0, 67, 0
2, 98952, Note_on_c, 0, 79, 0
2, 98960, Note_on_c, 0, 68, 110
2, 98960, Note_on_c, 0, 77, 110
2, 98992, Note_on_c, 0, 77, 0
2, 98992, Note_on_c, 0, 68, 0
2, 99000, Note_on_c, 0, 68, 110
2, 99000, Note_on_c, 0, 77, 110
2, 99032, Note_on_c, 0, 77, 0
2, 99032, Note_on_c, 0, 68, 0
2, 99040, Note_on_c, 0, 67, 110
2, 99040, Note_on_c, 0, 75, 110
2, 99072, Note_on_c, 0, 75, 0
2, 99072, Note_on_c, 0, 67, 0
2, 99080, Note_on_c, 0, 65, 110
2, 99080, Note_on_c, 0, 74, 110
2, 99112, Note_on_c, 0, 74, 0
2, 99112, Note_on_c, 0, 65, 0
2, 99120, Note_on_c, 0, 65, 110
2, 99120, Note_on_c, 0, 74, 110
2, 99152, Note_on_c, 0, 74, 0
2, 99152, Note_on_c, 0, 65, 0
2, 99160, Note_on_c, 0, 63, 110
2, 99160, Note_on_c, 0, 75, 110
2, 99192, Note_on_c, 0, 75, 0
2, 99192, Note_on_c, 0, 63, 0
2, 99200, Note_on_c, 0, 62, 110
2, 99200, Note_on_c, 0, 77, 110
2, 99232, Note_on_c, 0, 77, 0
2, 99232, Note_on_c, 0, 62, 0
2, 99240, Note_on_c, 0, 62, 110
2, 99240, Note_on_c, 0, 77, 110
2, 99272, Note_on_c, 0, 77, 0
2, 99272, Note_on_c, 0, 62, 0
2, 99280, Note_on_c, 0, 79, 110
2, 99280, Note_on_c, 0, 63, 110
2, 99312, Note_on_c, 0, 63, 0
2, 99312, Note_on_c, 0, 79, 0
2, 99320, Note_on_c, 0, 80, 110
2, 99320, Note_on_c, 0, 65, 110
2, 99352, Note_on_c, 0, 65, 0
2, 99352, Note_on_c, 0, 80, 0
2, 99360, Note_on_c, 0, 71, 110
2, 99360, Note_on_c, 0, 65, 110
2, 99392, Note_on_c, 0, 65, 0
2, 99400, Note_on_c, 0, 67, 110
2, 99432, Note_on_c, 0, 67, 0
2, 99440, Note_on_c, 0, 68, 110
2, 99472, Note_on_c, 0, 68, 0
2, 99480, Note_on_c, 0, 67, 110
2, 99552, Note_on_c, 0, 67, 0
2, 99552, Note_on_c, 0, 71, 0
2, 99570, Note_on_c, 0, 65, 110
2, 99594, Note_on_c, 0, 65, 0
2, 99600, Note_on_c, 0, 84, 110
2, 99600, Note_on_c, 0, 63, 110
2, 99632, Note_on_c, 0, 84, 0
2, 99640, Note_on_c, 0, 82, 110
2, 99672, Note_on_c, 0, 82, 0
2, 99680, Note_on_c, 0, 80, 110
2, 99696, Note_on_c, 0, 63, 0
2, 99712, Note_on_c, 0, 80, 0
2, 99720, Note_on_c, 0, 80, 110
2, 99720, Note_on_c, 0, 72, 110
2, 99752, Note_on_c, 0, 72, 0
2, 99752, Note_on_c, 0, 80, 0
2, 99760, Note_on_c, 0, 79, 110
2, 99760, Note_on_c, 0, 70, 110
2, 99792, Note_on_c, 0, 70, 0
2, 99792, Note_on_c, 0, 79, 0
2, 99800, Note_on_c, 0, 68, 110
2, 99800, Note_on_c, 0, 77, 110
2, 99832, Note_on_c, 0, 77, 0
2, 99832, Note_on_c, 0, 68, 0
2, 99840, Note_on_c, 0, 77, 110
2, 99840, Note_on_c, 0, 68, 110
2, 99872, Note_on_c, 0, 68, 0
2, 99872, Note_on_c, 0, 77, 0
2, 99880, Note_on_c, 0, 67, 110
2, 99880, Note_on_c, 0, 75, 110
2, 99912, Note_on_c, 0, 75, 0
2, 99912, Note_on_c, 0, 67, 0
2, 99920, Note_on_c, 0, 74, 110
2, 99920, Note_on_c, 0, 65, 110
2, 99952, Note_on_c, 0, 65, 0
2, 99952, Note_on_c, 0, 74, 0
2, 99960, Note_on_c, 0, 65, 110
2, 99960, Note_on_c, 0, 74, 110
2, 99992, Note_on_c, 0, 74, 0
2, 99992, Note_on_c, 0, 65, 0
2, 100000, Note_on_c, 0, 63, 110
2, 100000, Note_on_c, 0, 75, 110
2, 100032, Note_on_c, 0, 75, 0
2, 100032, Note_on_c, 0, 63, 0
2, 100040, Note_on_c, 0, 77, 110
2, 100040, Note_on_c, 0, 62, 110
2, 100072, Note_on_c, 0, 62, 0
2, 100072, Note_on_c, 0, 77, 0
2, 100080, Note_on_c, 0, 77, 110
2, 100080, Note_on_c, 0, 62, 110
2, 100112, Note_on_c, 0, 62, 0
2, 100112, Note_on_c, 0, 77, 0
2, 100120, Note_on_c, 0, 79, 110
2, 100120, Note_on_c, 0, 63, 110
2, 100152, Note_on_c, 0, 63, 0
2, 100152, Note_on_c, 0, 79, 0
2, 100160, Note_on_c, 0, 81, 110
2, 100160, Note_on_c, 0, 65, 110
2, 100192, Note_on_c, 0, 65, 0
2, 100192, Note_on_c, 0, 81, 0
2, 100200, Note_on_c, 0, 65, 110
2, 100200, Note_on_c, 0, 81, 110
2, 100232, Note_on_c, 0, 81, 0
2, 100232, Note_on_c, 0, 65, 0
2, 100240, Note_on_c, 0, 83, 110
2, 100240, Note_on_c, 0, 67, 110
2, 100272, Note_on_c, 0, 67, 0
2, 100272, Note_on_c, 0, 83, 0
2, 100280, Note_on_c, 0, 84, 110
2, 100280, Note_on_c, 0, 68, 110
2, 100312, Note_on_c, 0, 68, 0
2, 100312, Note_on_c, 0, 84, 0
2, 100320, Note_on_c, 0, 67, 110
2, 100320, Note_on_c, 0, 83, 110
2, 100352, Note_on_c, 0, 67, 0
2, 100360, Note_on_c, 0, 69, 110
2, 100392, Note_on_c, 0, 69, 0
2, 100400, Note_on_c, 0, 71, 110
2, 100432, Note_on_c, 0, 71, 0
2, 100440, Note_on_c, 0, 71, 110
2, 100464, Note_on_c, 0, 83, 0
2, 100472, Note_on_c, 0, 71, 0
2, 100480, Note_on_c, 0, 72, 110
2, 100500, Note_on_c, 0, 81, 110
2, 100512, Note_on_c, 0, 72, 0
2, 100520, Note_on_c, 0, 74, 110
2, 100548, Note_on_c, 0, 81, 0
2, 100552, Note_on_c, 0, 74, 0
2, 100560, Note_on_c, 0, 83, 110
2, 100560, Note_on_c, 0, 74, 110
2, 100592, Note_on_c, 0, 74, 0
2, 100600, Note_on_c, 0, 75, 110
2, 100632, Note_on_c, 0, 75, 0
2, 100640, Note_on_c, 0, 77, 110
2, 100656, Note_on_c, 0, 83, 0
2, 100672, Note_on_c, 0, 77, 0
2, 100680, Note_on_c, 0, 77, 110
2, 100712, Note_on_c, 0, 77, 0
2, 100720, Note_on_c, 0, 79, 110
2, 100752, Note_on_c, 0, 79, 0
2, 100760, Note_on_c, 0, 80, 110
2, 100792, Note_on_c, 0, 80, 0
2, 100800, Note_on_c, 0, 80, 110
2, 100832, Note_on_c, 0, 80, 0
2, 100840, Note_on_c, 0, 79, 110
2, 100872, Note_on_c, 0, 79, 0
2, 100880, Note_on_c, 0, 77, 110
2, 100912, Note_on_c, 0, 77, 0
2, 100920, Note_on_c, 0, 77, 110
2, 100920, Note_on_c, 0, 59, 110
2, 100952, Note_on_c, 0, 77, 0
2, 100960, Note_on_c, 0, 75, 110
2, 100992, Note_on_c, 0, 75, 0
2, 101000, Note_on_c, 0, 74, 110
2, 101016, Note_on_c, 0, 59, 0
2, 101032, Note_on_c, 0, 74, 0
2, 101040, Note_on_c, 0, 79, 110
2, 101040, Note_on_c, 0, 60, 110
2, 101072, Note_on_c, 0, 60, 0
2, 101080, Note_on_c, 0, 62, 110
2, 101112, Note_on_c, 0, 62, 0
2, 101120, Note_on_c, 0, 63, 110
2, 101152, Note_on_c, 0, 63, 0
2, 101160, Note_on_c, 0, 63, 110
2, 101192, Note_on_c, 0, 63, 0
2, 101200, Note_on_c, 0, 65, 110
2, 101232, Note_on_c, 0, 65, 0
2, 101232, Note_on_c, 0, 79, 0
2, 101240, Note_on_c, 0, 67, 110
2, 101272, Note_on_c, 0, 67, 0
2, 101280, Note_on_c, 0, 67, 110
2, 101312, Note_on_c, 0, 67, 0
2, 101320, Note_on_c, 0, 69, 110
2, 101352, Note_on_c, 0, 69, 0
2, 101360, Note_on_c, 0, 71, 110
2, 101392, Note_on_c, 0, 71, 0
2, 101400, Note_on_c, 0, 71, 110
2, 101432, Note_on_c, 0, 71, 0
2, 101440, Note_on_c, 0, 72, 110
2, 101472, Note_on_c, 0, 72, 0
2, 101480, Note_on_c, 0, 74, 110
2, 101512, Note_on_c, 0, 74, 0
2, 101520, Note_on_c, 0, 74, 110
2, 101552, Note_on_c, 0, 74, 0
2, 101560, Note_on_c, 0, 75, 110
2, 101592, Note_on_c, 0, 75, 0
2, 101600, Note_on_c, 0, 77, 110
2, 101632, Note_on_c, 0, 77, 0
2, 101640, Note_on_c, 0, 75, 110
2, 101672, Note_on_c, 0, 75, 0
2, 101680, Note_on_c, 0, 77, 110
2, 101712, Note_on_c, 0, 77, 0
2, 101720, Note_on_c, 0, 74, 110
2, 101752, Note_on_c, 0, 74, 0
2, 101760, Note_on_c, 0, 75, 110
2, 101760, Note_on_c, 0, 75, 110
2, 101856, Note_on_c, 0, 75, 0
2, 101856, Note_on_c, 0, 75, 0
2, 101880, Note_on_c, 0, 79, 110
2, 101912, Note_on_c, 0, 79, 0
2, 101920, Note_on_c, 0, 77, 110
2, 101952, Note_on_c, 0, 77, 0
2, 101960, Note_on_c, 0, 75, 110
2, 101992, Note_on_c, 0, 75, 0
2, 102000, Note_on_c, 0, 75, 110
2, 102032, Note_on_c, 0, 75, 0
2, 102040, Note_on_c, 0, 74, 110
2, 102072, Note_on_c, 0, 74, 0
2, 102080, Note_on_c, 0, 72, 110
2, 102112, Note_on_c, 0, 72, 0
2, 102120, Note_on_c, 0, 84, 110
2, 102152, Note_on_c, 0, 84, 0
2, 102160, Note_on_c, 0, 82, 110
2, 102192, Note_on_c, 0, 82, 0
2, 102200, Note_on_c, 0, 80, 110
2, 102232, Note_on_c, 0, 80, 0
2, 102240, Note_on_c, 0, 80, 110
2, 102272, Note_on_c, 0, 80, 0
2, 102280, Note_on_c, 0, 79, 110
2, 102312, Note_on_c, 0, 79, 0
2, 102320, Note_on_c, 0, 77, 110
2, 102352, Note_on_c, 0, 77, 0
2, 102360, Note_on_c, 0, 77, 110
2, 102392, Note_on_c, 0, 77, 0
2, 102400, Note_on_c, 0, 75, 110
2, 102432, Note_on_c, 0, 75, 0
2, 102440, Note_on_c, 0, 74, 110
2, 102472, Note_on_c, 0, 74, 0
2, 102480, Note_on_c, 0, 74, 110
2, 102512, Note_on_c, 0, 74, 0
2, 102520, Note_on_c, 0, 72, 110
2, 102552, Note_on_c, 0, 72, 0
2, 102560, Note_on_c, 0, 71, 110
2, 102592, Note_on_c, 0, 71, 0
2, 102600, Note_on_c, 0, 71, 110
2, 102632, Note_on_c, 0, 71, 0
2, 102640, Note_on_c, 0, 72, 110
2, 102672, Note_on_c, 0, 72, 0
2, 102680, Note_on_c, 0, 74, 110
2, 102712, Note_on_c, 0, 74, 0
2, 102720, Note_on_c, 0, 74, 110
2, 102752, Note_on_c, 0, 74, 0
2, 102760, Note_on_c, 0, 75, 110
2, 102792, Note_on_c, 0, 75, 0
2, 102800, Note_on_c, 0, 77, 110
2, 102832, Note_on_c, 0, 77, 0
2, 102840, Note_on_c, 0, 77, 110
2, 102872, Note_on_c, 0, 77, 0
2, 102880, Note_on_c, 0, 79, 110
2, 102912, Note_on_c, 0, 79, 0
2, 102920, Note_on_c, 0, 80, 110
2, 102952, Note_on_c, 0, 80, 0
2, 102960, Note_on_c, 0, 71, 110
2, 103104, Note_on_c, 0, 71, 0
2, 103140, Note_on_c, 0, 72, 110
2, 103188, Note_on_c, 0, 72, 0
2, 103200, Note_on_c, 0, 72, 110
2, 103296, Note_on_c, 0, 72, 0
2, 103320, Note_on_c, 0, 67, 110
2, 103352, Note_on_c, 0, 67, 0
2, 103360, Note_on_c, 0, 65, 110
2, 103392, Note_on_c, 0, 65, 0
2, 103400, Note_on_c, 0, 63, 110
2, 103432, Note_on_c, 0, 63, 0
2, 103440, Note_on_c, 0, 63, 110
2, 103472, Note_on_c, 0, 63, 0
2, 103480, Note_on_c, 0, 62, 110
2, 103512, Note_on_c, 0, 62, 0
2, 103520, Note_on_c, 0, 60, 110
2, 103552, Note_on_c, 0, 60, 0
2, 103560, Note_on_c, 0, 60, 110
2, 103656, Note_on_c, 0, 60, 0
2, 103680, Note_on_c, 0, 63, 96
2, 103680, Note_on_c, 0, 72, 96
2, 103680, Note_on_c, 0, 67, 96
2, 104016, Note_on_c, 0, 72, 0
2, 104016, Note_on_c, 0, 63, 0
2, 104040, Note_on_c, 0, 71, 96
2, 104040, Note_on_c, 0, 62, 96
2, 104088, Note_on_c, 0, 62, 0
2, 104088, Note_on_c, 0, 71, 0
2, 104100, Note_on_c, 0, 60, 96
2, 104100, Note_on_c, 0, 69, 96
2, 104148, Note_on_c, 0, 69, 0
2, 104148, Note_on_c, 0, 60, 0
2, 104160, Note_on_c, 0, 62, 96
2, 104160, Note_on_c, 0, 71, 96
2, 104256, Note_on_c, 0, 71, 0
2, 104256, Note_on_c, 0, 62, 0
2, 104280, Note_on_c, 0, 72, 96
2, 104280, Note_on_c, 0, 63, 96
2, 104304, Note_on_c, 0, 67, 0
2, 104328, Note_on_c, 0, 63, 0
2, 104328, Note_on_c, 0, 72, 0
2, 104340, Note_on_c, 0, 65, 96
2, 104340, Note_on_c, 0, 74, 96
2, 104388, Note_on_c, 0, 74, 0
2, 104388, Note_on_c, 0, 65, 0
2, 104400, Note_on_c, 0, 75, 96
2, 104400, Note_on_c, 0, 67, 96
2, 104520, Note_on_c, 0, 72, 96
2, 104616, Note_on_c, 0, 72, 0
2, 104640, Note_on_c, 0, 70, 96
2, 104655, Note_on_c, 0, 70, 0
2, 104700, Note_on_c, 0, 68, 96
2, 104736, Note_on_c, 0, 67, 0
2, 104736, Note_on_c, 0, 75, 0
2, 104760, Note_on_c, 0, 74, 96
2, 104760, Note_on_c, 0, 65, 96
2, 104808, Note_on_c, 0, 65, 0
2, 104808, Note_on_c, 0, 74, 0
2, 104820, Note_on_c, 0, 72, 96
2, 104820, Note_on_c, 0, 63, 96
2, 104868, Note_on_c, 0, 63, 0
2, 104868, Note_on_c, 0, 72, 0
2, 104880, Note_on_c, 0, 74, 96
2, 104880, Note_on_c, 0, 65, 96
2, 104976, Note_on_c, 0, 65, 0
2, 104976, Note_on_c, 0, 74, 0
2, 105000, Note_on_c, 0, 75, 96
2, 105000, Note_on_c, 0, 67, 96
2, 105048, Note_on_c, 0, 67, 0
2, 105048, Note_on_c, 0, 75, 0
2, 105060, Note_on_c, 0, 77, 96
2, 105060, Note_on_c, 0, 68, 96
2, 105108, Note_on_c, 0, 77, 0
2, 105108, Note_on_c, 0, 68, 0
2, 105120, Note_on_c, 0, 71, 96
2, 105150, Note_on_c, 0, 68, 0
2, 105300, Note_on_c, 0, 67, 96
2, 105360, Note_on_c, 0, 65, 96
2, 105396, Note_on_c, 0, 67, 0
2, 105456, Note_on_c, 0, 65, 0
2, 105456, Note_on_c, 0, 71, 0
2, 105480, Note_on_c, 0, 63, 96
2, 105480, Note_on_c, 0, 72, 96
2, 105528, Note_on_c, 0, 72, 0
2, 105528, Note_on_c, 0, 63, 0
2, 105540, Note_on_c, 0, 71, 96
2, 105540, Note_on_c, 0, 62, 96
2, 105588, Note_on_c, 0, 62, 0
2, 105588, Note_on_c, 0, 71, 0
2, 105600, Note_on_c, 0, 63, 96
2, 105600, Note_on_c, 0, 72, 96
2, 105696, Note_on_c, 0, 63, 0
2, 105713, Note_on_c, 0, 72, 0
2, 105720, Note_on_c, 0, 65, 96
2, 105720, Note_on_c, 0, 74, 96
2, 105768, Note_on_c, 0, 74, 0
2, 105768, Note_on_c, 0, 65, 0
2, 105780, Note_on_c, 0, 75, 96
2, 105780, Note_on_c, 0, 67, 96
2, 105828, Note_on_c, 0, 67, 0
2, 105828, Note_on_c, 0, 75, 0
2, 105840, Note_on_c, 0, 77, 96
2, 105840, Note_on_c, 0, 68, 96
2, 106032, Note_on_c, 0, 68, 0
2, 106080, Note_on_c, 0, 67, 96
2, 106176, Note_on_c, 0, 77, 0
2, 106200, Note_on_c, 0, 75, 96
2, 106248, Note_on_c, 0, 75, 0
2, 106260, Note_on_c, 0, 74, 96
2, 106308, Note_on_c, 0, 74, 0
2, 106320, Note_on_c, 0, 75, 96
2, 106416, Note_on_c, 0, 75, 0
2, 106440, Note_on_c, 0, 77, 96
2, 106464, Note_on_c, 0, 67, 0
2, 106488, Note_on_c, 0, 77, 0
2, 106500, Note_on_c, 0, 79, 96
2, 106548, Note_on_c, 0, 79, 0
2, 106560, Note_on_c, 0, 74, 96
2, 106680, Note_on_c, 0, 65, 96
2, 106776, Note_on_c, 0, 65, 0
2, 106800, Note_on_c, 0, 67, 96
2, 106896, Note_on_c, 0, 74, 0
2, 106920, Note_on_c, 0, 72, 96
2, 106968, Note_on_c, 0, 72, 0
2, 106980, Note_on_c, 0, 71, 96
2, 107028, Note_on_c, 0, 71, 0
2, 107040, Note_on_c, 0, 72, 96
2, 107088, Note_on_c, 0, 67, 0
2, 107136, Note_on_c, 0, 72, 0
2, 107160, Note_on_c, 0, 65, 96
2, 107160, Note_on_c, 0, 74, 96
2, 107208, Note_on_c, 0, 74, 0
2, 107208, Note_on_c, 0, 65, 0
2, 107220, Note_on_c, 0, 75, 96
2, 107220, Note_on_c, 0, 67, 96
2, 107268, Note_on_c, 0, 67, 0
2, 107268, Note_on_c, 0, 75, 0
2, 107280, Note_on_c, 0, 77, 96
2, 107280, Note_on_c, 0, 68, 96
2, 107616, Note_on_c, 0, 68, 0
2, 107616, Note_on_c, 0, 77, 0
2, 107640, Note_on_c, 0, 67, 96
2, 107640, Note_on_c, 0, 75, 96
2, 107688, Note_on_c, 0, 75, 0
2, 107688, Note_on_c, 0, 67, 0
2, 107700, Note_on_c, 0, 65, 96
2, 107700, Note_on_c, 0, 74, 96
2, 107748, Note_on_c, 0, 74, 0
2, 107748, Note_on_c, 0, 65, 0
2, 107760, Note_on_c, 0, 67, 96
2, 107760, Note_on_c, 0, 75, 96
2, 107856, Note_on_c, 0, 75, 0
2, 107856, Note_on_c, 0, 67, 0
2, 107880, Note_on_c, 0, 77, 96
2, 107880, Note_on_c, 0, 68, 96
2, 107928, Note_on_c, 0, 68, 0
2, 107928, Note_on_c, 0, 77, 0
2, 107940, Note_on_c, 0, 79, 96
2, 107940, Note_on_c, 0, 70, 96
2, 107988, Note_on_c, 0, 70, 0
2, 107988, Note_on_c, 0, 79, 0
2, 108000, Note_on_c, 0, 72, 96
2, 108000, Note_on_c, 0, 80, 96
2, 108113, Note_on_c, 0, 72, 0
2, 108120, Note_on_c, 0, 74, 96
2, 108233, Note_on_c, 0, 74, 0
2, 108240, Note_on_c, 0, 71, 96
2, 108336, Note_on_c, 0, 80, 0
2, 108360, Note_on_c, 0, 79, 96
2, 108408, Note_on_c, 0, 79, 0
2, 108420, Note_on_c, 0, 77, 96
2, 108432, Note_on_c, 0, 71, 0
2, 108468, Note_on_c, 0, 77, 0
2, 108480, Note_on_c, 0, 79, 96
2, 108480, Note_on_c, 0, 72, 96
2, 108576, Note_on_c, 0, 79, 0
2, 108600, Note_on_c, 0, 77, 96
2, 108648, Note_on_c, 0, 77, 0
2, 108660, Note_on_c, 0, 75, 96
2, 108708, Note_on_c, 0, 75, 0
2, 108720, Note_on_c, 0, 75, 96
2, 108768, Note_on_c, 0, 72, 0
2, 108816, Note_on_c, 0, 75, 0
2, 108840, Note_on_c, 0, 71, 96
2, 108840, Note_on_c, 0, 74, 96
2, 108888, Note_on_c, 0, 74, 0
2, 108900, Note_on_c, 0, 72, 96
2, 108936, Note_on_c, 0, 71, 0
2, 108948, Note_on_c, 0, 72, 0
2, 108960, Note_on_c, 0, 72, 96
2, 108960, Note_on_c, 0, 72, 110
2, 109056, Note_on_c, 0, 72, 0
2, 109080, Note_on_c, 0, 67, 110
2, 109272, Note_on_c, 0, 67, 0
2, 109296, Note_on_c, 0, 72, 0
2, 109320, Note_on_c, 0, 84, 110
2, 109320, Note_on_c, 0, 67, 110
2, 109368, Note_on_c, 0, 67, 0
2, 109368, Note_on_c, 0, 84, 0
2, 109380, Note_on_c, 0, 83, 110
2, 109380, Note_on_c, 0, 65, 110
2, 109428, Note_on_c, 0, 65, 0
2, 109428, Note_on_c, 0, 83, 0
2, 109440, Note_on_c, 0, 63, 110
2, 109440, Note_on_c, 0, 84, 110
2, 109536, Note_on_c, 0, 84, 0
2, 109536, Note_on_c, 0, 63, 0
2, 109560, Note_on_c, 0, 72, 110
2, 109560, Note_on_c, 0, 67, 110
2, 109968, Note_on_c, 0, 72, 0
2, 109980, Note_on_c, 0, 74, 110
2, 110028, Note_on_c, 0, 74, 0
2, 110040, Note_on_c, 0, 72, 110
2, 110064, Note_on_c, 0, 67, 0
2, 110088, Note_on_c, 0, 72, 0
2, 110100, Note_on_c, 0, 71, 110
2, 110148, Note_on_c, 0, 71, 0
2, 110160, Note_on_c, 0, 72, 110
2, 110160, Note_on_c, 0, 67, 110
2, 110352, Note_on_c, 0, 67, 0
2, 110400, Note_on_c, 0, 68, 110
2, 110448, Note_on_c, 0, 72, 0
2, 110460, Note_on_c, 0, 74, 110
2, 110508, Note_on_c, 0, 74, 0
2, 110520, Note_on_c, 0, 72, 110
2, 110568, Note_on_c, 0, 72, 0
2, 110580, Note_on_c, 0, 71, 110
2, 110628, Note_on_c, 0, 71, 0
2, 110640, Note_on_c, 0, 72, 110
2, 110784, Note_on_c, 0, 68, 0
2, 110880, Note_on_c, 0, 67, 110
2, 110928, Note_on_c, 0, 72, 0
2, 110940, Note_on_c, 0, 74, 110
2, 110988, Note_on_c, 0, 74, 0
2, 111000, Note_on_c, 0, 72, 110
2, 111048, Note_on_c, 0, 72, 0
2, 111060, Note_on_c, 0, 71, 110
2, 111108, Note_on_c, 0, 71, 0
2, 111408, Note_on_c, 0, 72, 64
2, 111408, Note_on_c, 0, 72, 0
2, 111420, Note_on_c, 0, 74, 110
2, 111468, Note_on_c, 0, 74, 0
2, 111480, Note_on_c, 0, 72, 110
2, 111504, Note_on_c, 0, 67, 0
2, 111528, Note_on_c, 0, 72, 0
2, 111540, Note_on_c, 0, 71, 110
2, 111588, Note_on_c, 0, 71, 0
2, 111600, Note_on_c, 0, 68, 110
2, 111600, Note_on_c, 0, 72, 110
2, 111792, Note_on_c, 0, 68, 0
2, 111840, Note_on_c, 0, 67, 110
2, 111888, Note_on_c, 0, 72, 0
2, 111900, Note_on_c, 0, 74, 110
2, 111948, Note_on_c, 0, 74, 0
2, 111960, Note_on_c, 0, 72, 110
2, 112008, Note_on_c, 0, 72, 0
2, 112020, Note_on_c, 0, 71, 110
2, 112068, Note_on_c, 0, 71, 0
2, 112080, Note_on_c, 0, 72, 110
2, 112176, Note_on_c, 0, 72, 0
2, 112200, Note_on_c, 0, 71, 110
2, 112248, Note_on_c, 0, 71, 0
2, 112260, Note_on_c, 0, 69, 110
2, 112308, Note_on_c, 0, 69, 0
2, 112320, Note_on_c, 0, 71, 110
2, 112368, Note_on_c, 0, 67, 0
2, 112380, Note_on_c, 0, 68, 110
2, 112428, Note_on_c, 0, 68, 0
2, 112440, Note_on_c, 0, 67, 110
2, 112488, Note_on_c, 0, 67, 0
2, 112500, Note_on_c, 0, 65, 110
2, 112548, Note_on_c, 0, 65, 0
2, 112560, Note_on_c, 0, 67, 110
2, 112608, Note_on_c, 0, 71, 0
2, 112620, Note_on_c, 0, 74, 110
2, 112668, Note_on_c, 0, 74, 0
2, 112680, Note_on_c, 0, 72, 110
2, 112728, Note_on_c, 0, 72, 0
2, 112740, Note_on_c, 0, 71, 110
2, 112788, Note_on_c, 0, 71, 0
2, 112800, Note_on_c, 0, 72, 110
2, 112848, Note_on_c, 0, 67, 0
2, 112860, Note_on_c, 0, 68, 110
2, 112908, Note_on_c, 0, 68, 0
2, 112920, Note_on_c, 0, 67, 110
2, 112944, Note_on_c, 0, 72, 0
2, 112968, Note_on_c, 0, 67, 0
2, 112980, Note_on_c, 0, 65, 110
2, 112980, Note_on_c, 0, 75, 110
2, 113028, Note_on_c, 0, 75, 0
2, 113028, Note_on_c, 0, 65, 0
2, 113040, Note_on_c, 0, 74, 110
2, 113040, Note_on_c, 0, 67, 110
2, 113088, Note_on_c, 0, 74, 0
2, 113100, Note_on_c, 0, 77, 110
2, 113148, Note_on_c, 0, 77, 0
2, 113160, Note_on_c, 0, 75, 110
2, 113208, Note_on_c, 0, 75, 0
2, 113220, Note_on_c, 0, 74, 110
2, 113232, Note_on_c, 0, 67, 0
2, 113268, Note_on_c, 0, 74, 0
2, 113280, Note_on_c, 0, 67, 110
2, 113280, Note_on_c, 0, 75, 110
2, 113328, Note_on_c, 0, 67, 0
2, 113340, Note_on_c, 0, 68, 110
2, 113388, Note_on_c, 0, 68, 0
2, 113400, Note_on_c, 0, 67, 110
2, 113448, Note_on_c, 0, 67, 0
2, 113460, Note_on_c, 0, 65, 110
2, 113508, Note_on_c, 0, 65, 0
2, 113520, Note_on_c, 0, 67, 110
2, 113568, Note_on_c, 0, 75, 0
2, 113580, Note_on_c, 0, 79, 110
2, 113628, Note_on_c, 0, 79, 0
2, 113640, Note_on_c, 0, 77, 110
2, 113688, Note_on_c, 0, 77, 0
2, 113700, Note_on_c, 0, 75, 110
2, 113748, Note_on_c, 0, 75, 0
2, 113760, Note_on_c, 0, 80, 110
2, 113808, Note_on_c, 0, 67, 0
2, 113820, Note_on_c, 0, 68, 110
2, 113868, Note_on_c, 0, 68, 0
2, 113880, Note_on_c, 0, 67, 110
2, 113928, Note_on_c, 0, 67, 0
2, 113940, Note_on_c, 0, 65, 110
2, 113952, Note_on_c, 0, 80, 0
2, 114000, Note_on_c, 0, 74, 110
2, 114048, Note_on_c, 0, 65, 0
2, 114060, Note_on_c, 0, 68, 110
2, 114108, Note_on_c, 0, 68, 0
2, 114120, Note_on_c, 0, 67, 110
2, 114168, Note_on_c, 0, 67, 0
2, 114180, Note_on_c, 0, 65, 110
2, 114228, Note_on_c, 0, 65, 0
2, 114240, Note_on_c, 0, 63, 110
2, 114288, Note_on_c, 0, 74, 0
2, 114300, Note_on_c, 0, 75, 110
2, 114348, Note_on_c, 0, 75, 0
2, 114360, Note_on_c, 0, 74, 110
2, 114408, Note_on_c, 0, 74, 0
2, 114420, Note_on_c, 0, 72, 110
2, 114432, Note_on_c, 0, 63, 0
2, 114468, Note_on_c, 0, 72, 0
2, 114480, Note_on_c, 0, 65, 110
2, 114480, Note_on_c, 0, 72, 110
2, 114528, Note_on_c, 0, 72, 0
2, 114540, Note_on_c, 0, 74, 110
2, 114588, Note_on_c, 0, 74, 0
2, 114600, Note_on_c, 0, 72, 110
2, 114648, Note_on_c, 0, 72, 0
2, 114660, Note_on_c, 0, 71, 110
2, 114708, Note_on_c, 0, 71, 0
2, 114720, Note_on_c, 0, 72, 110
2, 114768, Note_on_c, 0, 65, 0
2, 114780, Note_on_c, 0, 68, 110
2, 114828, Note_on_c, 0, 68, 0
2, 114840, Note_on_c, 0, 67, 110
2, 114888, Note_on_c, 0, 67, 0
2, 114900, Note_on_c, 0, 65, 110
2, 114912, Note_on_c, 0, 72, 0
2, 114948, Note_on_c, 0, 65, 0
2, 114960, Note_on_c, 0, 63, 110
2, 115008, Note_on_c, 0, 63, 0
2, 115020, Note_on_c, 0, 65, 110
2, 115068, Note_on_c, 0, 65, 0
2, 115080, Note_on_c, 0, 63, 110
2, 115128, Note_on_c, 0, 63, 0
2, 115140, Note_on_c, 0, 62, 110
2, 115188, Note_on_c, 0, 62, 0
2, 115200, Note_on_c, 0, 60, 110
2, 115296, Note_on_c, 0, 60, 0
2, 115320, Note_on_c, 0, 75, 110
2, 115488, Note_on_c, 0, 75, 0
2, 115500, Note_on_c, 0, 77, 120
2, 115548, Note_on_c, 0, 77, 0
2, 115560, Note_on_c, 0, 75, 120
2, 115608, Note_on_c, 0, 75, 0
2, 115620, Note_on_c, 0, 74, 120
2, 115668, Note_on_c, 0, 74, 0
2, 115680, Note_on_c, 0, 72, 120
2, 115680, Note_on_c, 0, 75, 120
2, 115728, Note_on_c, 0, 72, 0
2, 115740, Note_on_c, 0, 74, 120
2, 115788, Note_on_c, 0, 74, 0
2, 115800, Note_on_c, 0, 72, 120
2, 115848, Note_on_c, 0, 72, 0
2, 115860, Note_on_c, 0, 71, 120
2, 115908, Note_on_c, 0, 71, 0
2, 115920, Note_on_c, 0, 72, 120
2, 115968, Note_on_c, 0, 75, 0
2, 115980, Note_on_c, 0, 77, 120
2, 116028, Note_on_c, 0, 77, 0
2, 116040, Note_on_c, 0, 75, 120
2, 116088, Note_on_c, 0, 75, 0
2, 116100, Note_on_c, 0, 74, 120
2, 116148, Note_on_c, 0, 74, 0
2, 116160, Note_on_c, 0, 75, 120
2, 116208, Note_on_c, 0, 72, 0
2, 116220, Note_on_c, 0, 74, 120
2, 116268, Note_on_c, 0, 74, 0
2, 116280, Note_on_c, 0, 72, 120
2, 116328, Note_on_c, 0, 72, 0
2, 116340, Note_on_c, 0, 71, 120
2, 116388, Note_on_c, 0, 71, 0
2, 116400, Note_on_c, 0, 72, 120
2, 116448, Note_on_c, 0, 75, 0
2, 116460, Note_on_c, 0, 77, 120
2, 116508, Note_on_c, 0, 77, 0
2, 116520, Note_on_c, 0, 75, 120
2, 116568, Note_on_c, 0, 75, 0
2, 116580, Note_on_c, 0, 74, 120
2, 116628, Note_on_c, 0, 74, 0
2, 116640, Note_on_c, 0, 75, 120
2, 116688, Note_on_c, 0, 72, 0
2, 116700, Note_on_c, 0, 74, 120
2, 116748, Note_on_c, 0, 74, 0
2, 116760, Note_on_c, 0, 72, 120
2, 116808, Note_on_c, 0, 72, 0
2, 116820, Note_on_c, 0, 71, 120
2, 116868, Note_on_c, 0, 71, 0
2, 116880, Note_on_c, 0, 72, 120
2, 116928, Note_on_c, 0, 75, 0
2, 116940, Note_on_c, 0, 77, 120
2, 116988, Note_on_c, 0, 77, 0
2, 117000, Note_on_c, 0, 75, 120
2, 117048, Note_on_c, 0, 75, 0
2, 117060, Note_on_c, 0, 74, 120
2, 117108, Note_on_c, 0, 74, 0
2, 117120, Note_on_c, 0, 75, 120
2, 117168, Note_on_c, 0, 72, 0
2, 117180, Note_on_c, 0, 74, 120
2, 117228, Note_on_c, 0, 74, 0
2, 117240, Note_on_c, 0, 72, 120
2, 117288, Note_on_c, 0, 72, 0
2, 117300, Note_on_c, 0, 71, 120
2, 117348, Note_on_c, 0, 71, 0
2, 117360, Note_on_c, 0, 72, 120
2, 117408, Note_on_c, 0, 75, 0
2, 117420, Note_on_c, 0, 77, 120
2, 117468, Note_on_c, 0, 77, 0
2, 117480, Note_on_c, 0, 75, 120
2, 117528, Note_on_c, 0, 75, 0
2, 117540, Note_on_c, 0, 74, 120
2, 117588, Note_on_c, 0, 74, 0
2, 117600, Note_on_c, 0, 75, 120
2, 117648, Note_on_c, 0, 72, 0
2, 117660, Note_on_c, 0, 74, 120
2, 117708, Note_on_c, 0, 74, 0
2, 117720, Note_on_c, 0, 72, 120
2, 117768, Note_on_c, 0, 72, 0
2, 117780, Note_on_c, 0, 71, 120
2, 117828, Note_on_c, 0, 71, 0
2, 117840, Note_on_c, 0, 72, 120
2, 117888, Note_on_c, 0, 72, 0
2, 117888, Note_on_c, 0, 75, 0
2, 117900, Note_on_c, 0, 75, 120
2, 117900, Note_on_c, 0, 79, 120
2, 117948, Note_on_c, 0, 79, 0
2, 117948, Note_on_c, 0, 75, 0
2, 117960, Note_on_c, 0, 74, 120
2, 117960, Note_on_c, 0, 77, 120
2, 118008, Note_on_c, 0, 77, 0
2, 118008, Note_on_c, 0, 74, 0
2, 118020, Note_on_c, 0, 75, 120
2, 118020, Note_on_c, 0, 72, 120
2, 118068, Note_on_c, 0, 72, 0
2, 118068, Note_on_c, 0, 75, 0
2, 118080, Note_on_c, 0, 71, 120
2, 118080, Note_on_c, 0, 74, 120
2, 118176, Note_on_c, 0, 74, 0
2, 118176, Note_on_c, 0, 71, 0
2, 118200, Note_on_c, 0, 71, 120
2, 118200, Note_on_c, 0, 80, 120
2, 118296, Note_on_c, 0, 80, 0
2, 118296, Note_on_c, 0, 71, 0
2, 118320, Note_on_c, 0, 72, 120
2, 118320, Note_on_c, 0, 79, 120
2, 118368, Note_on_c, 0, 72, 0
2, 118380, Note_on_c, 0, 74, 120
2, 118428, Note_on_c, 0, 74, 0
2, 118440, Note_on_c, 0, 72, 120
2, 118488, Note_on_c, 0, 72, 0
2, 118500, Note_on_c, 0, 71, 120
2, 118548, Note_on_c, 0, 71, 0
2, 118560, Note_on_c, 0, 72, 120
2, 118608, Note_on_c, 0, 79, 0
2, 118620, Note_on_c, 0, 80, 120
2, 118668, Note_on_c, 0, 80, 0
2, 118680, Note_on_c, 0, 79, 120
2, 118728, Note_on_c, 0, 79, 0
2, 118740, Note_on_c, 0, 77, 120
2, 118752, Note_on_c, 0, 72, 0
2, 118788, Note_on_c, 0, 77, 0
2, 118800, Note_on_c, 0, 79, 120
2, 118800, Note_on_c, 0, 74, 120
2, 118848, Note_on_c, 0, 74, 0
2, 118860, Note_on_c, 0, 77, 120
2, 118908, Note_on_c, 0, 77, 0
2, 118920, Note_on_c, 0, 75, 120
2, 118968, Note_on_c, 0, 75, 0
2, 118980, Note_on_c, 0, 74, 120
2, 119028, Note_on_c, 0, 74, 0
2, 119040, Note_on_c, 0, 72, 120
2, 119088, Note_on_c, 0, 79, 0
2, 119100, Note_on_c, 0, 80, 120
2, 119148, Note_on_c, 0, 80, 0
2, 119160, Note_on_c, 0, 79, 120
2, 119208, Note_on_c, 0, 79, 0
2, 119220, Note_on_c, 0, 77, 120
2, 119268, Note_on_c, 0, 77, 0
2, 119280, Note_on_c, 0, 75, 120
2, 119328, Note_on_c, 0, 72, 0
2, 119340, Note_on_c, 0, 74, 120
2, 119388, Note_on_c, 0, 74, 0
2, 119400, Note_on_c, 0, 72, 120
2, 119448, Note_on_c, 0, 72, 0
2, 119460, Note_on_c, 0, 70, 120
2, 119508, Note_on_c, 0, 70, 0
2, 119520, Note_on_c, 0, 68, 120
2, 119568, Note_on_c, 0, 75, 0
2, 119580, Note_on_c, 0, 77, 120
2, 119628, Note_on_c, 0, 77, 0
2, 119640, Note_on_c, 0, 75, 120
2, 119688, Note_on_c, 0, 75, 0
2, 119700, Note_on_c, 0, 74, 120
2, 119712, Note_on_c, 0, 68, 0
2, 119748, Note_on_c, 0, 74, 0
2, 119760, Note_on_c, 0, 67, 120
2, 119760, Note_on_c, 0, 75, 120
2, 119808, Note_on_c, 0, 67, 0
2, 119820, Note_on_c, 0, 68, 120
2, 119868, Note_on_c, 0, 68, 0
2, 119880, Note_on_c, 0, 67, 120
2, 119928, Note_on_c, 0, 67, 0
2, 119940, Note_on_c, 0, 65, 120
2, 119988, Note_on_c, 0, 65, 0
2, 120000, Note_on_c, 0, 67, 120
2, 120048, Note_on_c, 0, 75, 0
2, 120060, Note_on_c, 0, 77, 120
2, 120108, Note_on_c, 0, 77, 0
2, 120120, Note_on_c, 0, 75, 120
2, 120144, Note_on_c, 0, 67, 0
2, 120168, Note_on_c, 0, 75, 0
2, 120180, Note_on_c, 0, 74, 120
2, 120180, Note_on_c, 0, 68, 120
2, 120228, Note_on_c, 0, 68, 0
2, 120228, Note_on_c, 0, 74, 0
2, 120240, Note_on_c, 0, 75, 120
2, 120240, Note_on_c, 0, 67, 120
2, 120288, Note_on_c, 0, 67, 0
2, 120288, Note_on_c, 0, 75, 0
2, 120300, Note_on_c, 0, 68, 120
2, 120300, Note_on_c, 0, 77, 120
2, 120348, Note_on_c, 0, 77, 0
2, 120348, Note_on_c, 0, 68, 0
2, 120360, Note_on_c, 0, 75, 120
2, 120360, Note_on_c, 0, 67, 120
2, 120408, Note_on_c, 0, 67, 0
2, 120408, Note_on_c, 0, 75, 0
2, 120420, Note_on_c, 0, 74, 120
2, 120420, Note_on_c, 0, 65, 120
2, 120468, Note_on_c, 0, 65, 0
2, 120468, Note_on_c, 0, 74, 0
2, 120480, Note_on_c, 0, 63, 120
2, 120480, Note_on_c, 0, 72, 120
2, 120528, Note_on_c, 0, 72, 0
2, 120528, Note_on_c, 0, 63, 0
2, 120540, Note_on_c, 0, 74, 120
2, 120540, Note_on_c, 0, 65, 120
2, 120588, Note_on_c, 0, 65, 0
2, 120588, Note_on_c, 0, 74, 0
2, 120600, Note_on_c, 0, 63, 120
2, 120600, Note_on_c, 0, 72, 120
2, 120648, Note_on_c, 0, 72, 0
2, 120648, Note_on_c, 0, 63, 0
2, 120660, Note_on_c, 0, 71, 120
2, 120660, Note_on_c, 0, 62, 120
2, 120708, Note_on_c, 0, 62, 0
2, 120708, Note_on_c, 0, 71, 0
2, 120720, Note_on_c, 0, 63, 120
2, 120720, Note_on_c, 0, 72, 120
2, 120768, Note_on_c, 0, 72, 0
2, 120768, Note_on_c, 0, 63, 0
2, 120780, Note_on_c, 0, 62, 120
2, 120780, Note_on_c, 0, 71, 120
2, 120828, Note_on_c, 0, 71, 0
2, 120828, Note_on_c, 0, 62, 0
2, 120840, Note_on_c, 0, 72, 120
2, 120840, Note_on_c, 0, 63, 120
2, 120888, Note_on_c, 0, 63, 0
2, 120888, Note_on_c, 0, 72, 0
2, 120900, Note_on_c, 0, 74, 120
2, 120900, Note_on_c, 0, 65, 120
2, 120948, Note_on_c, 0, 65, 0
2, 120948, Note_on_c, 0, 74, 0
2, 120960, Note_on_c, 0, 67, 120
2, 120960, Note_on_c, 0, 72, 120
2, 120960, Note_on_c, 0, 75, 120
2, 121152, Note_on_c, 0, 75, 0
2, 121152, Note_on_c, 0, 72, 0
2, 121152, Note_on_c, 0, 67, 0
2, 121200, Note_on_c, 0, 60, 116
2, 121425, Note_on_c, 0, 60, 0
2, 121440, Note_on_c, 0, 67, 110
2, 121824, Note_on_c, 0, 67, 0
2, 121920, Note_on_c, 0, 63, 110
2, 122112, Note_on_c, 0, 63, 0
2, 122160, Note_on_c, 0, 65, 110
2, 122544, Note_on_c, 0, 65, 0
2, 122640, Note_on_c, 0, 67, 110
2, 122832, Note_on_c, 0, 67, 0
2, 122880, Note_on_c, 0, 68, 110
2, 123264, Note_on_c, 0, 68, 0
2, 123360, Note_on_c, 0, 65, 110
2, 123552, Note_on_c, 0, 65, 0
2, 123600, Note_on_c, 0, 67, 110
2, 123888, Note_on_c, 0, 67, 0
2, 123960, Note_on_c, 0, 65, 110
2, 124056, Note_on_c, 0, 65, 0
2, 124080, Note_on_c, 0, 63, 110
2, 124128, Note_on_c, 0, 63, 0
2, 124140, Note_on_c, 0, 67, 110
2, 124188, Note_on_c, 0, 67, 0
2, 124200, Note_on_c, 0, 65, 110
2, 124248, Note_on_c, 0, 65, 0
2, 124260, Note_on_c, 0, 63, 110
2, 124308, Note_on_c, 0, 63, 0
2, 124320, Note_on_c, 0, 62, 110
2, 124608, Note_on_c, 0, 62, 0
2, 124620, Note_on_c, 0, 62, 110
2, 124668, Note_on_c, 0, 62, 0
2, 124680, Note_on_c, 0, 64, 110
2, 124728, Note_on_c, 0, 64, 0
2, 124740, Note_on_c, 0, 66, 110
2, 124788, Note_on_c, 0, 66, 0
2, 124800, Note_on_c, 0, 67, 110
2, 124800, Note_on_c, 0, 67, 110
2, 124992, Note_on_c, 0, 67, 0
2, 124992, Note_on_c, 0, 67, 0
2, 125040, Note_on_c, 0, 74, 110
2, 125160, Note_on_c, 0, 70, 110
2, 125256, Note_on_c, 0, 70, 0
2, 125280, Note_on_c, 0, 66, 110
2, 125376, Note_on_c, 0, 66, 0
2, 125400, Note_on_c, 0, 66, 110
2, 125424, Note_on_c, 0, 74, 0
2, 125496, Note_on_c, 0, 66, 0
2, 125520, Note_on_c, 0, 70, 110
2, 125520, Note_on_c, 0, 67, 110
2, 125616, Note_on_c, 0, 67, 0
2, 125640, Note_on_c, 0, 67, 110
2, 125712, Note_on_c, 0, 70, 0
2, 125736, Note_on_c, 0, 67, 0
2, 125760, Note_on_c, 0, 72, 110
2, 125880, Note_on_c, 0, 75, 110
2, 125976, Note_on_c, 0, 75, 0
2, 126000, Note_on_c, 0, 69, 110
2, 126096, Note_on_c, 0, 69, 0
2, 126120, Note_on_c, 0, 69, 110
2, 126144, Note_on_c, 0, 72, 0
2, 126216, Note_on_c, 0, 69, 0
2, 126240, Note_on_c, 0, 71, 110
2, 126240, Note_on_c, 0, 74, 110
2, 126336, Note_on_c, 0, 71, 0
2, 126360, Note_on_c, 0, 71, 110
2, 126432, Note_on_c, 0, 74, 0
2, 126456, Note_on_c, 0, 71, 0
2, 126480, Note_on_c, 0, 75, 110
2, 126600, Note_on_c, 0, 72, 110
2, 126696, Note_on_c, 0, 72, 0
2, 126720, Note_on_c, 0, 67, 110
2, 126816, Note_on_c, 0, 67, 0
2, 126840, Note_on_c, 0, 67, 110
2, 126864, Note_on_c, 0, 75, 0
2, 126936, Note_on_c, 0, 67, 0
2, 126960, Note_on_c, 0, 72, 110
2, 126960, Note_on_c, 0, 69, 110
2, 127056, Note_on_c, 0, 69, 0
2, 127080, Note_on_c, 0, 69, 110
2, 127152, Note_on_c, 0, 72, 0
2, 127176, Note_on_c, 0, 69, 0
2, 127200, Note_on_c, 0, 74, 110
2, 127320, Note_on_c, 0, 70, 110
2, 127416, Note_on_c, 0, 70, 0
2, 127440, Note_on_c, 0, 66, 110
2, 127536, Note_on_c, 0, 66, 0
2, 127560, Note_on_c, 0, 66, 110
2, 127584, Note_on_c, 0, 74, 0
2, 127656, Note_on_c, 0, 66, 0
2, 127680, Note_on_c, 0, 67, 110
2, 127740, Note_on_c, 0, 79, 110
2, 127776, Note_on_c, 0, 67, 0
2, 127788, Note_on_c, 0, 79, 0
2, 127800, Note_on_c, 0, 67, 110
2, 127800, Note_on_c, 0, 77, 110
2, 127848, Note_on_c, 0, 77, 0
2, 127860, Note_on_c, 0, 79, 110
2, 127896, Note_on_c, 0, 67, 0
2, 127908, Note_on_c, 0, 79, 0
2, 127920, Note_on_c, 0, 75, 110
2, 127980, Note_on_c, 0, 72, 110
2, 128028, Note_on_c, 0, 72, 0
2, 128040, Note_on_c, 0, 70, 110
2, 128088, Note_on_c, 0, 70, 0
2, 128100, Note_on_c, 0, 72, 110
2, 128112, Note_on_c, 0, 75, 0
2, 128148, Note_on_c, 0, 72, 0
2, 128160, Note_on_c, 0, 68, 110
2, 128220, Note_on_c, 0, 74, 110
2, 128268, Note_on_c, 0, 74, 0
2, 128280, Note_on_c, 0, 72, 110
2, 128328, Note_on_c, 0, 72, 0
2, 128340, Note_on_c, 0, 74, 110
2, 128352, Note_on_c, 0, 68, 0
2, 128388, Note_on_c, 0, 74, 0
2, 128400, Note_on_c, 0, 71, 110
2, 128460, Note_on_c, 0, 67, 110
2, 128508, Note_on_c, 0, 67, 0
2, 128520, Note_on_c, 0, 65, 110
2, 128568, Note_on_c, 0, 65, 0
2, 128580, Note_on_c, 0, 67, 110
2, 128592, Note_on_c, 0, 71, 0
2, 128628, Note_on_c, 0, 67, 0
2, 128640, Note_on_c, 0, 63, 110
2, 128700, Note_on_c, 0, 72, 110
2, 128748, Note_on_c, 0, 72, 0
2, 128760, Note_on_c, 0, 70, 110
2, 128808, Note_on_c, 0, 70, 0
2, 128820, Note_on_c, 0, 72, 110
2, 128832, Note_on_c, 0, 63, 0
2, 128868, Note_on_c, 0, 72, 0
2, 128880, Note_on_c, 0, 65, 110
2, 128880, Note_on_c, 0, 68, 110
2, 128928, Note_on_c, 0, 68, 0
2, 128940, Note_on_c, 0, 72, 110
2, 128976, Note_on_c, 0, 65, 0
2, 128988, Note_on_c, 0, 72, 0
2, 129000, Note_on_c, 0, 60, 110
2, 129000, Note_on_c, 0, 70, 110
2, 129048, Note_on_c, 0, 70, 0
2, 129060, Note_on_c, 0, 72, 110
2, 129096, Note_on_c, 0, 60, 0
2, 129108, Note_on_c, 0, 72, 0
2, 129120, Note_on_c, 0, 62, 110
2, 129120, Note_on_c, 0, 65, 110
2, 129168, Note_on_c, 0, 65, 0
2, 129180, Note_on_c, 0, 77, 110
2, 129228, Note_on_c, 0, 77, 0
2, 129240, Note_on_c, 0, 75, 110
2, 129288, Note_on_c, 0, 75, 0
2, 129300, Note_on_c, 0, 77, 110
2, 129348, Note_on_c, 0, 77, 0
2, 129360, Note_on_c, 0, 71, 110
2, 129408, Note_on_c, 0, 71, 0
2, 129420, Note_on_c, 0, 74, 110
2, 129456, Note_on_c, 0, 62, 0
2, 129468, Note_on_c, 0, 74, 0
2, 129480, Note_on_c, 0, 57, 110
2, 129480, Note_on_c, 0, 72, 110
2, 129528, Note_on_c, 0, 72, 0
2, 129540, Note_on_c, 0, 74, 110
2, 129576, Note_on_c, 0, 57, 0
2, 129588, Note_on_c, 0, 74, 0
2, 129600, Note_on_c, 0, 67, 110
2, 129600, Note_on_c, 0, 59, 110
2, 129648, Note_on_c, 0, 67, 0
2, 129660, Note_on_c, 0, 79, 110
2, 129708, Note_on_c, 0, 79, 0
2, 129720, Note_on_c, 0, 77, 110
2, 129768, Note_on_c, 0, 77, 0
2, 129780, Note_on_c, 0, 79, 110
2, 129792, Note_on_c, 0, 59, 0
2, 129828, Note_on_c, 0, 79, 0
2, 129840, Note_on_c, 0, 60, 110
2, 129840, Note_on_c, 0, 75, 110
2, 129888, Note_on_c, 0, 60, 0
2, 129900, Note_on_c, 0, 65, 110
2, 129948, Note_on_c, 0, 65, 0
2, 129960, Note_on_c, 0, 63, 110
2, 130008, Note_on_c, 0, 63, 0
2, 130020, Note_on_c, 0, 65, 110
2, 130032, Note_on_c, 0, 75, 0
2, 130068, Note_on_c, 0, 65, 0
2, 130080, Note_on_c, 0, 67, 110
2, 130176, Note_on_c, 0, 67, 0
2, 130200, Note_on_c, 0, 75, 110
2, 130296, Note_on_c, 0, 75, 0
2, 130320, Note_on_c, 0, 71, 110
2, 130380, Note_on_c, 0, 67, 110
2, 130416, Note_on_c, 0, 71, 0
2, 130428, Note_on_c, 0, 67, 0
2, 130440, Note_on_c, 0, 71, 110
2, 130440, Note_on_c, 0, 65, 110
2, 130488, Note_on_c, 0, 65, 0
2, 130500, Note_on_c, 0, 67, 110
2, 130536, Note_on_c, 0, 71, 0
2, 130548, Note_on_c, 0, 67, 0
2, 130560, Note_on_c, 0, 72, 110
2, 130560, Note_on_c, 0, 60, 110
2, 130608, Note_on_c, 0, 60, 0
2, 130620, Note_on_c, 0, 72, 110
2, 130656, Note_on_c, 0, 72, 0
2, 130668, Note_on_c, 0, 72, 0
2, 130680, Note_on_c, 0, 70, 110
2, 130680, Note_on_c, 0, 72, 110
2, 130728, Note_on_c, 0, 70, 0
2, 130740, Note_on_c, 0, 72, 110
2, 130776, Note_on_c, 0, 72, 0
2, 130788, Note_on_c, 0, 72, 0
2, 130800, Note_on_c, 0, 68, 110
2, 130848, Note_on_c, 0, 68, 0
2, 130860, Note_on_c, 0, 72, 110
2, 130908, Note_on_c, 0, 72, 0
2, 130920, Note_on_c, 0, 68, 110
2, 130920, Note_on_c, 0, 80, 110
2, 130968, Note_on_c, 0, 68, 0
2, 130980, Note_on_c, 0, 72, 110
2, 131016, Note_on_c, 0, 80, 0
2, 131028, Note_on_c, 0, 72, 0
2, 131040, Note_on_c, 0, 68, 110
2, 131040, Note_on_c, 0, 74, 110
2, 131088, Note_on_c, 0, 68, 0
2, 131100, Note_on_c, 0, 70, 110
2, 131136, Note_on_c, 0, 74, 0
2, 131148, Note_on_c, 0, 70, 0
2, 131160, Note_on_c, 0, 74, 110
2, 131160, Note_on_c, 0, 68, 110
2, 131208, Note_on_c, 0, 68, 0
2, 131220, Note_on_c, 0, 70, 110
2, 131256, Note_on_c, 0, 74, 0
2, 131268, Note_on_c, 0, 70, 0
2, 131280, Note_on_c, 0, 76, 110
2, 131280, Note_on_c, 0, 67, 110
2, 131328, Note_on_c, 0, 67, 0
2, 131340, Note_on_c, 0, 70, 110
2, 131376, Note_on_c, 0, 76, 0
2, 131388, Note_on_c, 0, 70, 0
2, 131400, Note_on_c, 0, 76, 110
2, 131400, Note_on_c, 0, 67, 110
2, 131448, Note_on_c, 0, 67, 0
2, 131460, Note_on_c, 0, 70, 110
2, 131496, Note_on_c, 0, 76, 0
2, 131508, Note_on_c, 0, 70, 0
2, 131520, Note_on_c, 0, 65, 110
2, 131568, Note_on_c, 0, 65, 0
2, 131580, Note_on_c, 0, 68, 110
2, 131628, Note_on_c, 0, 68, 0
2, 131640, Note_on_c, 0, 77, 110
2, 131640, Note_on_c, 0, 67, 110
2, 131688, Note_on_c, 0, 67, 0
2, 131700, Note_on_c, 0, 70, 110
2, 131736, Note_on_c, 0, 77, 0
2, 131748, Note_on_c, 0, 70, 0
2, 131760, Note_on_c, 0, 72, 110
2, 131760, Note_on_c, 0, 68, 110
2, 131808, Note_on_c, 0, 68, 0
2, 131820, Note_on_c, 0, 70, 110
2, 131856, Note_on_c, 0, 72, 0
2, 131868, Note_on_c, 0, 70, 0
2, 131880, Note_on_c, 0, 72, 110
2, 131880, Note_on_c, 0, 68, 110
2, 131928, Note_on_c, 0, 68, 0
2, 131940, Note_on_c, 0, 70, 110
2, 131976, Note_on_c, 0, 72, 0
2, 131988, Note_on_c, 0, 70, 0
2, 132000, Note_on_c, 0, 68, 110
2, 132000, Note_on_c, 0, 74, 110
2, 132048, Note_on_c, 0, 68, 0
2, 132060, Note_on_c, 0, 70, 110
2, 132096, Note_on_c, 0, 74, 0
2, 132108, Note_on_c, 0, 70, 0
2, 132120, Note_on_c, 0, 68, 110
2, 132120, Note_on_c, 0, 74, 110
2, 132168, Note_on_c, 0, 68, 0
2, 132180, Note_on_c, 0, 70, 110
2, 132216, Note_on_c, 0, 74, 0
2, 132228, Note_on_c, 0, 70, 0
2, 132240, Note_on_c, 0, 67, 110
2, 132288, Note_on_c, 0, 67, 0
2, 132300, Note_on_c, 0, 68, 110
2, 132348, Note_on_c, 0, 68, 0
2, 132360, Note_on_c, 0, 67, 110
2, 132360, Note_on_c, 0, 75, 110
2, 132408, Note_on_c, 0, 67, 0
2, 132420, Note_on_c, 0, 68, 110
2, 132456, Note_on_c, 0, 75, 0
2, 132468, Note_on_c, 0, 68, 0
2, 132480, Note_on_c, 0, 67, 110
2, 132480, Note_on_c, 0, 71, 110
2, 132528, Note_on_c, 0, 67, 0
2, 132540, Note_on_c, 0, 68, 110
2, 132576, Note_on_c, 0, 71, 0
2, 132588, Note_on_c, 0, 68, 0
2, 132600, Note_on_c, 0, 71, 110
2, 132600, Note_on_c, 0, 65, 110
2, 132648, Note_on_c, 0, 65, 0
2, 132660, Note_on_c, 0, 67, 110
2, 132696, Note_on_c, 0, 71, 0
2, 132708, Note_on_c, 0, 67, 0
2, 132720, Note_on_c, 0, 63, 110
2, 132720, Note_on_c, 0, 79, 110
2, 132768, Note_on_c, 0, 79, 0
2, 132768, Note_on_c, 0, 63, 0
2, 132780, Note_on_c, 0, 65, 110
2, 132780, Note_on_c, 0, 80, 110
2, 132828, Note_on_c, 0, 80, 0
2, 132828, Note_on_c, 0, 65, 0
2, 132840, Note_on_c, 0, 77, 110
2, 132840, Note_on_c, 0, 62, 110
2, 132888, Note_on_c, 0, 62, 0
2, 132888, Note_on_c, 0, 77, 0
2, 132900, Note_on_c, 0, 79, 110
2, 132900, Note_on_c, 0, 63, 110
2, 132948, Note_on_c, 0, 63, 0
2, 132948, Note_on_c, 0, 79, 0
2, 132960, Note_on_c, 0, 60, 110
2, 132960, Note_on_c, 0, 75, 110
2, 133008, Note_on_c, 0, 75, 0
2, 133008, Note_on_c, 0, 60, 0
2, 133020, Note_on_c, 0, 67, 110
2, 133020, Note_on_c, 0, 77, 110
2, 133068, Note_on_c, 0, 77, 0
2, 133068, Note_on_c, 0, 67, 0
2, 133080, Note_on_c, 0, 74, 110
2, 133080, Note_on_c, 0, 65, 110
2, 133128, Note_on_c, 0, 65, 0
2, 133128, Note_on_c, 0, 74, 0
2, 133140, Note_on_c, 0, 75, 110
2, 133140, Note_on_c, 0, 67, 110
2, 133188, Note_on_c, 0, 67, 0
2, 133188, Note_on_c, 0, 75, 0
2, 133200, Note_on_c, 0, 72, 110
2, 133200, Note_on_c, 0, 63, 110
2, 133248, Note_on_c, 0, 63, 0
2, 133248, Note_on_c, 0, 72, 0
2, 133260, Note_on_c, 0, 74, 110
2, 133260, Note_on_c, 0, 65, 110
2, 133308, Note_on_c, 0, 65, 0
2, 133308, Note_on_c, 0, 74, 0
2, 133320, Note_on_c, 0, 70, 110
2, 133320, Note_on_c, 0, 62, 110
2, 133368, Note_on_c, 0, 62, 0
2, 133368, Note_on_c, 0, 70, 0
2, 133380, Note_on_c, 0, 63, 110
2, 133380, Note_on_c, 0, 72, 110
2, 133428, Note_on_c, 0, 72, 0
2, 133428, Note_on_c, 0, 63, 0
2, 133440, Note_on_c, 0, 60, 110
2, 133440, Note_on_c, 0, 69, 110
2, 133488, Note_on_c, 0, 69, 0
2, 133488, Note_on_c, 0, 60, 0
2, 133500, Note_on_c, 0, 62, 110
2, 133500, Note_on_c, 0, 70, 110
2, 133548, Note_on_c, 0, 70, 0
2, 133548, Note_on_c, 0, 62, 0
2, 133560, Note_on_c, 0, 67, 110
2, 133560, Note_on_c, 0, 58, 110
2, 133608, Note_on_c, 0, 58, 0
2, 133608, Note_on_c, 0, 67, 0
2, 133620, Note_on_c, 0, 60, 110
2, 133620, Note_on_c, 0, 69, 110
2, 133668, Note_on_c, 0, 69, 0
2, 133668, Note_on_c, 0, 60, 0
2, 133680, Note_on_c, 0, 66, 110
2, 133680, Note_on_c, 0, 57, 110
2, 133728, Note_on_c, 0, 66, 0
2, 133740, Note_on_c, 0, 69, 110
2, 133776, Note_on_c, 0, 57, 0
2, 133788, Note_on_c, 0, 69, 0
2, 133800, Note_on_c, 0, 67, 110
2, 133800, Note_on_c, 0, 58, 110
2, 133848, Note_on_c, 0, 67, 0
2, 133860, Note_on_c, 0, 70, 110
2, 133896, Note_on_c, 0, 58, 0
2, 133908, Note_on_c, 0, 70, 0
2, 133920, Note_on_c, 0, 69, 110
2, 133920, Note_on_c, 0, 60, 110
2, 133968, Note_on_c, 0, 69, 0
2, 133980, Note_on_c, 0, 74, 110
2, 134016, Note_on_c, 0, 60, 0
2, 134028, Note_on_c, 0, 74, 0
2, 134040, Note_on_c, 0, 72, 110
2, 134040, Note_on_c, 0, 57, 110
2, 134088, Note_on_c, 0, 72, 0
2, 134100, Note_on_c, 0, 74, 110
2, 134136, Note_on_c, 0, 57, 0
2, 134148, Note_on_c, 0, 74, 0
2, 134160, Note_on_c, 0, 58, 110
2, 134160, Note_on_c, 0, 67, 110
2, 134208, Note_on_c, 0, 67, 0
2, 134220, Note_on_c, 0, 79, 110
2, 134256, Note_on_c, 0, 58, 0
2, 134268, Note_on_c, 0, 79, 0
2, 134280, Note_on_c, 0, 77, 110
2, 134280, Note_on_c, 0, 67, 110
2, 134328, Note_on_c, 0, 77, 0
2, 134340, Note_on_c, 0, 79, 110
2, 134376, Note_on_c, 0, 67, 0
2, 134388, Note_on_c, 0, 79, 0
2, 134400, Note_on_c, 0, 75, 110
2, 134400, Note_on_c, 0, 67, 110
2, 134448, Note_on_c, 0, 75, 0
2, 134460, Note_on_c, 0, 79, 110
2, 134508, Note_on_c, 0, 79, 0
2, 134520, Note_on_c, 0, 75, 110
2, 134568, Note_on_c, 0, 75, 0
2, 134580, Note_on_c, 0, 79, 110
2, 134592, Note_on_c, 0, 67, 0
2, 134628, Note_on_c, 0, 79, 0
2, 134640, Note_on_c, 0, 75, 110
2, 134640, Note_on_c, 0, 72, 110
2, 134688, Note_on_c, 0, 75, 0
2, 134700, Note_on_c, 0, 77, 110
2, 134748, Note_on_c, 0, 77, 0
2, 134760, Note_on_c, 0, 75, 110
2, 134808, Note_on_c, 0, 75, 0
2, 134820, Note_on_c, 0, 77, 110
2, 134832, Note_on_c, 0, 72, 0
2, 134868, Note_on_c, 0, 77, 0
2, 134880, Note_on_c, 0, 74, 110
2, 134880, Note_on_c, 0, 67, 110
2, 134928, Note_on_c, 0, 74, 0
2, 134940, Note_on_c, 0, 77, 110
2, 134988, Note_on_c, 0, 77, 0
2, 135000, Note_on_c, 0, 74, 110
2, 135048, Note_on_c, 0, 74, 0
2, 135060, Note_on_c, 0, 77, 110
2, 135072, Note_on_c, 0, 67, 0
2, 135108, Note_on_c, 0, 77, 0
2, 135120, Note_on_c, 0, 72, 110
2, 135120, Note_on_c, 0, 67, 110
2, 135168, Note_on_c, 0, 72, 0
2, 135180, Note_on_c, 0, 75, 110
2, 135228, Note_on_c, 0, 75, 0
2, 135240, Note_on_c, 0, 74, 110
2, 135288, Note_on_c, 0, 74, 0
2, 135300, Note_on_c, 0, 77, 110
2, 135312, Note_on_c, 0, 67, 0
2, 135348, Note_on_c, 0, 77, 0
2, 135360, Note_on_c, 0, 75, 110
2, 135360, Note_on_c, 0, 70, 110
2, 135408, Note_on_c, 0, 75, 0
2, 135420, Note_on_c, 0, 77, 110
2, 135468, Note_on_c, 0, 77, 0
2, 135480, Note_on_c, 0, 75, 110
2, 135528, Note_on_c, 0, 75, 0
2, 135540, Note_on_c, 0, 77, 110
2, 135552, Note_on_c, 0, 70, 0
2, 135588, Note_on_c, 0, 77, 0
2, 135600, Note_on_c, 0, 65, 110
2, 135600, Note_on_c, 0, 75, 110
2, 135648, Note_on_c, 0, 75, 0
2, 135660, Note_on_c, 0, 77, 110
2, 135708, Note_on_c, 0, 77, 0
2, 135720, Note_on_c, 0, 75, 110
2, 135768, Note_on_c, 0, 75, 0
2, 135780, Note_on_c, 0, 77, 110
2, 135792, Note_on_c, 0, 65, 0
2, 135828, Note_on_c, 0, 77, 0
2, 135840, Note_on_c, 0, 65, 110
2, 135840, Note_on_c, 0, 74, 110
2, 135888, Note_on_c, 0, 74, 0
2, 135900, Note_on_c, 0, 75, 110
2, 135936, Note_on_c, 0, 65, 0
2, 135948, Note_on_c, 0, 75, 0
2, 135960, Note_on_c, 0, 67, 110
2, 135960, Note_on_c, 0, 74, 110
2, 136008, Note_on_c, 0, 74, 0
2, 136020, Note_on_c, 0, 75, 110
2, 136056, Note_on_c, 0, 67, 0
2, 136068, Note_on_c, 0, 75, 0
2, 136080, Note_on_c, 0, 69, 110
2, 136080, Note_on_c, 0, 74, 110
2, 136128, Note_on_c, 0, 74, 0
2, 136140, Note_on_c, 0, 75, 110
2, 136188, Note_on_c, 0, 75, 0
2, 136200, Note_on_c, 0, 72, 110
2, 136248, Note_on_c, 0, 72, 0
2, 136260, Note_on_c, 0, 74, 110
2, 136272, Note_on_c, 0, 69, 0
2, 136308, Note_on_c, 0, 74, 0
2, 136320, Note_on_c, 0, 67, 110
2, 136320, Note_on_c, 0, 70, 110
2, 136368, Note_on_c, 0, 70, 0
2, 136380, Note_on_c, 0, 74, 110
2, 136416, Note_on_c, 0, 67, 0
2, 136428, Note_on_c, 0, 74, 0
2, 136440, Note_on_c, 0, 66, 110
2, 136440, Note_on_c, 0, 72, 110
2, 136488, Note_on_c, 0, 72, 0
2, 136500, Note_on_c, 0, 75, 110
2, 136536, Note_on_c, 0, 66, 0
2, 136548, Note_on_c, 0, 75, 0
2, 136560, Note_on_c, 0, 67, 110
2, 136560, Note_on_c, 0, 74, 110
2, 136608, Note_on_c, 0, 67, 0
2, 136620, Note_on_c, 0, 65, 110
2, 136656, Note_on_c, 0, 74, 0
2, 136668, Note_on_c, 0, 65, 0
2, 136680, Note_on_c, 0, 67, 110
2, 136680, Note_on_c, 0, 64, 110
2, 136728, Note_on_c, 0, 64, 0
2, 136728, Note_on_c, 0, 67, 0
2, 136740, Note_on_c, 0, 67, 110
2, 136740, Note_on_c, 0, 70, 110
2, 136788, Note_on_c, 0, 70, 0
2, 136788, Note_on_c, 0, 67, 0
2, 136800, Note_on_c, 0, 66, 110
2, 136800, Note_on_c, 0, 69, 110
2, 136848, Note_on_c, 0, 69, 0
2, 136860, Note_on_c, 0, 72, 110
2, 136896, Note_on_c, 0, 66, 0
2, 136908, Note_on_c, 0, 72, 0
2, 136920, Note_on_c, 0, 70, 110
2, 136920, Note_on_c, 0, 67, 110
2, 136968, Note_on_c, 0, 70, 0
2, 136980, Note_on_c, 0, 72, 110
2, 137028, Note_on_c, 0, 72, 0
2, 137040, Note_on_c, 0, 69, 110
2, 137112, Note_on_c, 0, 67, 0
2, 137160, Note_on_c, 0, 66, 110
2, 137184, Note_on_c, 0, 69, 0
2, 137220, Note_on_c, 0, 67, 110
2, 137256, Note_on_c, 0, 66, 0
2, 137268, Note_on_c, 0, 67, 0
2, 137280, Note_on_c, 0, 67, 110
2, 137280, Note_on_c, 0, 67, 110
2, 137328, Note_on_c, 0, 67, 0
2, 137340, Note_on_c, 0, 71, 110
2, 137388, Note_on_c, 0, 71, 0
2, 137400, Note_on_c, 0, 69, 110
2, 137448, Note_on_c, 0, 69, 0
2, 137460, Note_on_c, 0, 72, 110
2, 137472, Note_on_c, 0, 67, 0
2, 137508, Note_on_c, 0, 72, 0
2, 137520, Note_on_c, 0, 71, 110
2, 137568, Note_on_c, 0, 71, 0
2, 137580, Note_on_c, 0, 79, 110
2, 137628, Note_on_c, 0, 79, 0
2, 137640, Note_on_c, 0, 77, 110
2, 137688, Note_on_c, 0, 77, 0
2, 137700, Note_on_c, 0, 79, 110
2, 137748, Note_on_c, 0, 79, 0
2, 137760, Note_on_c, 0, 75, 110
2, 137760, Note_on_c, 0, 60, 110
2, 137808, Note_on_c, 0, 75, 0
2, 137820, Note_on_c, 0, 79, 110
2, 137868, Note_on_c, 0, 79, 0
2, 137880, Note_on_c, 0, 77, 110
2, 137928, Note_on_c, 0, 77, 0
2, 137940, Note_on_c, 0, 80, 110
2, 137952, Note_on_c, 0, 60, 0
2, 137988, Note_on_c, 0, 80, 0
2, 138000, Note_on_c, 0, 71, 110
2, 138000, Note_on_c, 0, 67, 110
2, 138048, Note_on_c, 0, 71, 0
2, 138060, Note_on_c, 0, 74, 110
2, 138108, Note_on_c, 0, 74, 0
2, 138120, Note_on_c, 0, 72, 110
2, 138168, Note_on_c, 0, 72, 0
2, 138180, Note_on_c, 0, 75, 110
2, 138228, Note_on_c, 0, 75, 0
2, 138240, Note_on_c, 0, 74, 110
2, 138288, Note_on_c, 0, 74, 0
2, 138300, Note_on_c, 0, 75, 110
2, 138348, Note_on_c, 0, 75, 0
2, 138360, Note_on_c, 0, 74, 110
2, 138384, Note_on_c, 0, 67, 0
2, 138408, Note_on_c, 0, 74, 0
2, 138420, Note_on_c, 0, 75, 110
2, 138468, Note_on_c, 0, 75, 0
2, 138480, Note_on_c, 0, 63, 110
2, 138480, Note_on_c, 0, 72, 110
2, 138528, Note_on_c, 0, 72, 0
2, 138540, Note_on_c, 0, 75, 110
2, 138588, Note_on_c, 0, 75, 0
2, 138600, Note_on_c, 0, 74, 110
2, 138648, Note_on_c, 0, 74, 0
2, 138660, Note_on_c, 0, 75, 110
2, 138672, Note_on_c, 0, 63, 0
2, 138708, Note_on_c, 0, 75, 0
2, 138720, Note_on_c, 0, 72, 110
2, 138720, Note_on_c, 0, 65, 110
2, 138912, Note_on_c, 0, 72, 0
2, 138960, Note_on_c, 0, 70, 110
2, 139104, Note_on_c, 0, 65, 0
2, 139200, Note_on_c, 0, 67, 110
2, 139296, Note_on_c, 0, 70, 0
2, 139320, Note_on_c, 0, 70, 110
2, 139392, Note_on_c, 0, 67, 0
2, 139416, Note_on_c, 0, 70, 0
2, 139440, Note_on_c, 0, 68, 110
2, 139440, Note_on_c, 0, 68, 110
2, 139536, Note_on_c, 0, 68, 0
2, 139560, Note_on_c, 0, 72, 110
2, 139656, Note_on_c, 0, 72, 0
2, 139680, Note_on_c, 0, 77, 110
2, 139824, Note_on_c, 0, 77, 0
2, 139824, Note_on_c, 0, 68, 0
2, 139860, Note_on_c, 0, 75, 110
2, 139908, Note_on_c, 0, 75, 0
2, 139920, Note_on_c, 0, 65, 110
2, 139920, Note_on_c, 0, 74, 110
2, 140016, Note_on_c, 0, 74, 0
2, 140040, Note_on_c, 0, 72, 110
2, 140112, Note_on_c, 0, 65, 0
2, 140136, Note_on_c, 0, 72, 0
2, 140160, Note_on_c, 0, 70, 110
2, 140160, Note_on_c, 0, 67, 110
2, 140352, Note_on_c, 0, 70, 0
2, 140400, Note_on_c, 0, 75, 110
2, 140544, Note_on_c, 0, 67, 0
2, 140592, Note_on_c, 0, 75, 0
2, 140640, Note_on_c, 0, 65, 110
2, 140640, Note_on_c, 0, 77, 110
2, 140832, Note_on_c, 0, 77, 0
2, 140880, Note_on_c, 0, 79, 110
2, 140928, Note_on_c, 0, 79, 0
2, 140940, Note_on_c, 0, 80, 110
2, 140976, Note_on_c, 0, 65, 0
2, 140988, Note_on_c, 0, 80, 0
2, 141000, Note_on_c, 0, 63, 110
2, 141000, Note_on_c, 0, 82, 110
2, 141048, Note_on_c, 0, 82, 0
2, 141048, Note_on_c, 0, 63, 0
2, 141060, Note_on_c, 0, 75, 110
2, 141060, Note_on_c, 0, 67, 110
2, 141108, Note_on_c, 0, 67, 0
2, 141108, Note_on_c, 0, 75, 0
2, 141120, Note_on_c, 0, 75, 110
2, 141120, Note_on_c, 0, 65, 110
2, 141168, Note_on_c, 0, 65, 0
2, 141180, Note_on_c, 0, 68, 110
2, 141228, Note_on_c, 0, 68, 0
2, 141240, Note_on_c, 0, 67, 110
2, 141288, Note_on_c, 0, 67, 0
2, 141300, Note_on_c, 0, 70, 110
2, 141312, Note_on_c, 0, 75, 0
2, 141348, Note_on_c, 0, 70, 0
2, 141360, Note_on_c, 0, 68, 110
2, 141360, Note_on_c, 0, 74, 110
2, 141408, Note_on_c, 0, 68, 0
2, 141420, Note_on_c, 0, 72, 110
2, 141468, Note_on_c, 0, 72, 0
2, 141480, Note_on_c, 0, 70, 110
2, 141504, Note_on_c, 0, 74, 0
2, 141528, Note_on_c, 0, 70, 0
2, 141540, Note_on_c, 0, 68, 110
2, 141540, Note_on_c, 0, 75, 110
2, 141588, Note_on_c, 0, 75, 0
2, 141588, Note_on_c, 0, 68, 0
2, 141600, Note_on_c, 0, 75, 110
2, 141600, Note_on_c, 0, 67, 110
2, 141648, Note_on_c, 0, 75, 0
2, 141660, Note_on_c, 0, 82, 110
2, 141708, Note_on_c, 0, 82, 0
2, 141720, Note_on_c, 0, 80, 110
2, 141768, Note_on_c, 0, 80, 0
2, 141780, Note_on_c, 0, 82, 110
2, 141792, Note_on_c, 0, 67, 0
2, 141828, Note_on_c, 0, 82, 0
2, 141840, Note_on_c, 0, 79, 110
2, 141888, Note_on_c, 0, 79, 0
2, 141900, Note_on_c, 0, 70, 110
2, 141900, Note_on_c, 0, 80, 110
2, 141948, Note_on_c, 0, 80, 0
2, 141948, Note_on_c, 0, 70, 0
2, 141960, Note_on_c, 0, 77, 110
2, 141960, Note_on_c, 0, 68, 110
2, 142008, Note_on_c, 0, 68, 0
2, 142008, Note_on_c, 0, 77, 0
2, 142020, Note_on_c, 0, 79, 110
2, 142020, Note_on_c, 0, 70, 110
2, 142068, Note_on_c, 0, 70, 0
2, 142068, Note_on_c, 0, 79, 0
2, 142080, Note_on_c, 0, 67, 110
2, 142080, Note_on_c, 0, 75, 110
2, 142128, Note_on_c, 0, 75, 0
2, 142140, Note_on_c, 0, 79, 110
2, 142188, Note_on_c, 0, 79, 0
2, 142200, Note_on_c, 0, 77, 110
2, 142248, Note_on_c, 0, 77, 0
2, 142260, Note_on_c, 0, 75, 110
2, 142272, Note_on_c, 0, 67, 0
2, 142308, Note_on_c, 0, 75, 0
2, 142320, Note_on_c, 0, 74, 110
2, 142368, Note_on_c, 0, 74, 0
2, 142380, Note_on_c, 0, 77, 110
2, 142428, Note_on_c, 0, 77, 0
2, 142440, Note_on_c, 0, 75, 110
2, 142440, Note_on_c, 0, 67, 110
2, 142488, Note_on_c, 0, 75, 0
2, 142500, Note_on_c, 0, 79, 110
2, 142536, Note_on_c, 0, 67, 0
2, 142548, Note_on_c, 0, 79, 0
2, 142560, Note_on_c, 0, 62, 110
2, 142560, Note_on_c, 0, 77, 110
2, 142608, Note_on_c, 0, 77, 0
2, 142620, Note_on_c, 0, 80, 110
2, 142656, Note_on_c, 0, 62, 0
2, 142668, Note_on_c, 0, 80, 0
2, 142680, Note_on_c, 0, 62, 110
2, 142680, Note_on_c, 0, 79, 110
2, 142728, Note_on_c, 0, 79, 0
2, 142740, Note_on_c, 0, 77, 110
2, 142776, Note_on_c, 0, 62, 0
2, 142788, Note_on_c, 0, 77, 0
2, 142800, Note_on_c, 0, 82, 110
2, 142800, Note_on_c, 0, 63, 110
2, 142848, Note_on_c, 0, 82, 0
2, 142860, Note_on_c, 0, 75, 110
2, 142896, Note_on_c, 0, 63, 0
2, 142908, Note_on_c, 0, 75, 0
2, 142920, Note_on_c, 0, 74, 110
2, 142920, Note_on_c, 0, 63, 110
2, 142968, Note_on_c, 0, 74, 0
2, 142980, Note_on_c, 0, 75, 110
2, 143016, Note_on_c, 0, 63, 0
2, 143028, Note_on_c, 0, 75, 0
2, 143040, Note_on_c, 0, 72, 110
2, 143088, Note_on_c, 0, 72, 0
2, 143100, Note_on_c, 0, 75, 110
2, 143148, Note_on_c, 0, 75, 0
2, 143160, Note_on_c, 0, 72, 110
2, 143160, Note_on_c, 0, 72, 110
2, 143208, Note_on_c, 0, 72, 0
2, 143220, Note_on_c, 0, 75, 110
2, 143256, Note_on_c, 0, 72, 0
2, 143268, Note_on_c, 0, 75, 0
2, 143280, Note_on_c, 0, 65, 110
2, 143280, Note_on_c, 0, 72, 110
2, 143328, Note_on_c, 0, 72, 0
2, 143340, Note_on_c, 0, 73, 110
2, 143376, Note_on_c, 0, 65, 0
2, 143388, Note_on_c, 0, 73, 0
2, 143400, Note_on_c, 0, 72, 110
2, 143400, Note_on_c, 0, 65, 110
2, 143448, Note_on_c, 0, 72, 0
2, 143460, Note_on_c, 0, 73, 110
2, 143496, Note_on_c, 0, 65, 0
2, 143508, Note_on_c, 0, 73, 0
2, 143520, Note_on_c, 0, 70, 110
2, 143520, Note_on_c, 0, 67, 110
2, 143568, Note_on_c, 0, 70, 0
2, 143580, Note_on_c, 0, 73, 110
2, 143616, Note_on_c, 0, 67, 0
2, 143628, Note_on_c, 0, 73, 0
2, 143640, Note_on_c, 0, 67, 110
2, 143640, Note_on_c, 0, 70, 110
2, 143688, Note_on_c, 0, 70, 0
2, 143700, Note_on_c, 0, 73, 110
2, 143736, Note_on_c, 0, 67, 0
2, 143748, Note_on_c, 0, 73, 0
2, 143760, Note_on_c, 0, 68, 110
2, 143808, Note_on_c, 0, 68, 0
2, 143820, Note_on_c, 0, 72, 110
2, 143868, Note_on_c, 0, 72, 0
2, 143880, Note_on_c, 0, 70, 110
2, 143880, Note_on_c, 0, 68, 110
2, 143928, Note_on_c, 0, 70, 0
2, 143940, Note_on_c, 0, 73, 110
2, 143976, Note_on_c, 0, 68, 0
2, 143988, Note_on_c, 0, 73, 0
2, 144000, Note_on_c, 0, 63, 110
2, 144000, Note_on_c, 0, 72, 110
2, 144048, Note_on_c, 0, 72, 0
2, 144060, Note_on_c, 0, 75, 110
2, 144096, Note_on_c, 0, 63, 0
2, 144108, Note_on_c, 0, 75, 0
2, 144120, Note_on_c, 0, 74, 110
2, 144120, Note_on_c, 0, 63, 110
2, 144168, Note_on_c, 0, 74, 0
2, 144180, Note_on_c, 0, 75, 110
2, 144216, Note_on_c, 0, 63, 0
2, 144228, Note_on_c, 0, 75, 0
2, 144240, Note_on_c, 0, 72, 110
2, 144240, Note_on_c, 0, 65, 110
2, 144288, Note_on_c, 0, 72, 0
2, 144300, Note_on_c, 0, 77, 110
2, 144336, Note_on_c, 0, 65, 0
2, 144348, Note_on_c, 0, 77, 0
2, 144360, Note_on_c, 0, 65, 110
2, 144360, Note_on_c, 0, 75, 110
2, 144408, Note_on_c, 0, 75, 0
2, 144420, Note_on_c, 0, 77, 110
2, 144456, Note_on_c, 0, 65, 0
2, 144468, Note_on_c, 0, 77, 0
2, 144480, Note_on_c, 0, 74, 110
2, 144528, Note_on_c, 0, 74, 0
2, 144540, Note_on_c, 0, 77, 110
2, 144588, Note_on_c, 0, 77, 0
2, 144600, Note_on_c, 0, 67, 110
2, 144600, Note_on_c, 0, 75, 110
2, 144648, Note_on_c, 0, 75, 0
2, 144660, Note_on_c, 0, 79, 110
2, 144696, Note_on_c, 0, 67, 0
2, 144708, Note_on_c, 0, 79, 0
2, 144720, Note_on_c, 0, 77, 110
2, 144720, Note_on_c, 0, 62, 110
2, 144768, Note_on_c, 0, 77, 0
2, 144780, Note_on_c, 0, 82, 110
2, 144816, Note_on_c, 0, 62, 0
2, 144828, Note_on_c, 0, 82, 0
2, 144840, Note_on_c, 0, 62, 110
2, 144840, Note_on_c, 0, 80, 110
2, 144888, Note_on_c, 0, 80, 0
2, 144900, Note_on_c, 0, 82, 110
2, 144936, Note_on_c, 0, 62, 0
2, 144948, Note_on_c, 0, 82, 0
2, 144960, Note_on_c, 0, 63, 110
2, 144960, Note_on_c, 0, 79, 110
2, 145008, Note_on_c, 0, 79, 0
2, 145020, Note_on_c, 0, 84, 110
2, 145056, Note_on_c, 0, 63, 0
2, 145068, Note_on_c, 0, 84, 0
2, 145080, Note_on_c, 0, 82, 110
2, 145080, Note_on_c, 0, 63, 110
2, 145128, Note_on_c, 0, 82, 0
2, 145140, Note_on_c, 0, 84, 110
2, 145176, Note_on_c, 0, 63, 0
2, 145188, Note_on_c, 0, 84, 0
2, 145200, Note_on_c, 0, 80, 110
2, 145248, Note_on_c, 0, 80, 0
2, 145260, Note_on_c, 0, 84, 110
2, 145308, Note_on_c, 0, 84, 0
2, 145320, Note_on_c, 0, 82, 110
2, 145320, Note_on_c, 0, 65, 110
2, 145368, Note_on_c, 0, 82, 0
2, 145380, Note_on_c, 0, 84, 110
2, 145416, Note_on_c, 0, 65, 0
2, 145428, Note_on_c, 0, 84, 0
2, 145440, Note_on_c, 0, 60, 110
2, 145440, Note_on_c, 0, 80, 110
2, 145488, Note_on_c, 0, 80, 0
2, 145500, Note_on_c, 0, 82, 110
2, 145536, Note_on_c, 0, 60, 0
2, 145548, Note_on_c, 0, 82, 0
2, 145560, Note_on_c, 0, 79, 110
2, 145560, Note_on_c, 0, 60, 110
2, 145608, Note_on_c, 0, 79, 0
2, 145620, Note_on_c, 0, 80, 110
2, 145656, Note_on_c, 0, 60, 0
2, 145668, Note_on_c, 0, 80, 0
2, 145680, Note_on_c, 0, 77, 110
2, 145680, Note_on_c, 0, 62, 110
2, 145728, Note_on_c, 0, 77, 0
2, 145740, Note_on_c, 0, 82, 110
2, 145776, Note_on_c, 0, 62, 0
2, 145788, Note_on_c, 0, 82, 0
2, 145800, Note_on_c, 0, 62, 110
2, 145800, Note_on_c, 0, 80, 110
2, 145848, Note_on_c, 0, 80, 0
2, 145860, Note_on_c, 0, 82, 110
2, 145896, Note_on_c, 0, 62, 0
2, 145908, Note_on_c, 0, 82, 0
2, 145920, Note_on_c, 0, 79, 110
2, 145920, Note_on_c, 0, 63, 110
2, 145968, Note_on_c, 0, 79, 0
2, 145980, Note_on_c, 0, 82, 110
2, 146016, Note_on_c, 0, 63, 0
2, 146028, Note_on_c, 0, 82, 0
2, 146040, Note_on_c, 0, 80, 110
2, 146040, Note_on_c, 0, 58, 110
2, 146088, Note_on_c, 0, 80, 0
2, 146100, Note_on_c, 0, 82, 110
2, 146136, Note_on_c, 0, 58, 0
2, 146148, Note_on_c, 0, 82, 0
2, 146160, Note_on_c, 0, 63, 110
2, 146160, Note_on_c, 0, 79, 110
2, 146208, Note_on_c, 0, 79, 0
2, 146220, Note_on_c, 0, 80, 110
2, 146268, Note_on_c, 0, 80, 0
2, 146280, Note_on_c, 0, 77, 110
2, 146328, Note_on_c, 0, 77, 0
2, 146340, Note_on_c, 0, 79, 110
2, 146352, Note_on_c, 0, 63, 0
2, 146388, Note_on_c, 0, 79, 0
2, 146400, Note_on_c, 0, 75, 110
2, 146448, Note_on_c, 0, 75, 0
2, 146460, Note_on_c, 0, 77, 110
2, 146508, Note_on_c, 0, 77, 0
2, 146520, Note_on_c, 0, 74, 110
2, 146568, Note_on_c, 0, 74, 0
2, 146580, Note_on_c, 0, 75, 110
2, 146628, Note_on_c, 0, 75, 0
2, 146640, Note_on_c, 0, 72, 110
2, 146736, Note_on_c, 0, 72, 0
2, 146760, Note_on_c, 0, 75, 110
2, 146856, Note_on_c, 0, 75, 0
2, 146880, Note_on_c, 0, 80, 110
2, 146976, Note_on_c, 0, 80, 0
2, 147000, Note_on_c, 0, 72, 110
2, 147096, Note_on_c, 0, 72, 0
2, 147120, Note_on_c, 0, 70, 110
2, 147216, Note_on_c, 0, 70, 0
2, 147240, Note_on_c, 0, 80, 110
2, 147336, Note_on_c, 0, 80, 0
2, 147360, Note_on_c, 0, 70, 110
2, 147456, Note_on_c, 0, 70, 0
2, 147480, Note_on_c, 0, 74, 110
2, 147576, Note_on_c, 0, 74, 0
2, 147600, Note_on_c, 0, 79, 110
2, 147696, Note_on_c, 0, 79, 0
2, 147720, Note_on_c, 0, 70, 110
2, 147816, Note_on_c, 0, 70, 0
2, 147840, Note_on_c, 0, 68, 110
2, 147936, Note_on_c, 0, 68, 0
2, 147960, Note_on_c, 0, 79, 110
2, 148056, Note_on_c, 0, 79, 0
2, 148080, Note_on_c, 0, 68, 110
2, 148176, Note_on_c, 0, 68, 0
2, 148200, Note_on_c, 0, 72, 110
2, 148296, Note_on_c, 0, 72, 0
2, 148320, Note_on_c, 0, 77, 110
2, 148416, Note_on_c, 0, 77, 0
2, 148440, Note_on_c, 0, 68, 110
2, 148536, Note_on_c, 0, 68, 0
2, 148560, Note_on_c, 0, 67, 110
2, 148656, Note_on_c, 0, 67, 0
2, 148680, Note_on_c, 0, 77, 110
2, 148776, Note_on_c, 0, 77, 0
2, 148800, Note_on_c, 0, 67, 110
2, 148896, Note_on_c, 0, 67, 0
2, 148920, Note_on_c, 0, 70, 110
2, 149016, Note_on_c, 0, 70, 0
2, 149040, Note_on_c, 0, 75, 110
2, 149136, Note_on_c, 0, 75, 0
2, 149160, Note_on_c, 0, 67, 110
2, 149256, Note_on_c, 0, 67, 0
2, 149280, Note_on_c, 0, 65, 110
2, 149376, Note_on_c, 0, 65, 0
2, 149400, Note_on_c, 0, 75, 110
2, 149496, Note_on_c, 0, 75, 0
2, 149520, Note_on_c, 0, 74, 110
2, 149568, Note_on_c, 0, 74, 0
2, 149580, Note_on_c, 0, 77, 110
2, 149628, Note_on_c, 0, 77, 0
2, 149640, Note_on_c, 0, 74, 110
2, 149688, Note_on_c, 0, 74, 0
2, 149700, Note_on_c, 0, 77, 110
2, 149748, Note_on_c, 0, 77, 0
2, 149760, Note_on_c, 0, 70, 110
2, 149856, Note_on_c, 0, 70, 0
2, 149880, Note_on_c, 0, 69, 110
2, 149928, Note_on_c, 0, 69, 0
2, 149940, Note_on_c, 0, 67, 110
2, 149988, Note_on_c, 0, 67, 0
2, 150000, Note_on_c, 0, 58, 110
2, 150000, Note_on_c, 0, 65, 110
2, 150096, Note_on_c, 0, 65, 0
2, 150120, Note_on_c, 0, 67, 110
2, 150192, Note_on_c, 0, 58, 0
2, 150216, Note_on_c, 0, 67, 0
2, 150240, Note_on_c, 0, 65, 110
2, 150240, Note_on_c, 0, 69, 110
2, 150336, Note_on_c, 0, 69, 0
2, 150360, Note_on_c, 0, 74, 110
2, 150456, Note_on_c, 0, 74, 0
2, 150480, Note_on_c, 0, 69, 110
2, 150576, Note_on_c, 0, 69, 0
2, 150600, Note_on_c, 0, 69, 110
2, 150624, Note_on_c, 0, 65, 0
2, 150696, Note_on_c, 0, 69, 0
2, 150720, Note_on_c, 0, 62, 110
2, 150720, Note_on_c, 0, 70, 110
2, 150816, Note_on_c, 0, 70, 0
2, 150840, Note_on_c, 0, 70, 110
2, 150912, Note_on_c, 0, 62, 0
2, 150936, Note_on_c, 0, 70, 0
2, 150960, Note_on_c, 0, 63, 110
2, 151080, Note_on_c, 0, 79, 110
2, 151176, Note_on_c, 0, 79, 0
2, 151200, Note_on_c, 0, 72, 110
2, 151296, Note_on_c, 0, 72, 0
2, 151320, Note_on_c, 0, 72, 110
2, 151344, Note_on_c, 0, 63, 0
2, 151416, Note_on_c, 0, 72, 0
2, 151440, Note_on_c, 0, 65, 110
2, 151440, Note_on_c, 0, 74, 110
2, 151536, Note_on_c, 0, 74, 0
2, 151560, Note_on_c, 0, 74, 110
2, 151656, Note_on_c, 0, 74, 0
2, 151665, Note_on_c, 0, 65, 0
2, 151680, Note_on_c, 0, 67, 110
2, 151800, Note_on_c, 0, 75, 110
2, 151896, Note_on_c, 0, 75, 0
2, 151920, Note_on_c, 0, 70, 110
2, 152016, Note_on_c, 0, 70, 0
2, 152040, Note_on_c, 0, 70, 110
2, 152064, Note_on_c, 0, 67, 0
2, 152136, Note_on_c, 0, 70, 0
2, 152160, Note_on_c, 0, 63, 110
2, 152160, Note_on_c, 0, 72, 110
2, 152256, Note_on_c, 0, 72, 0
2, 152280, Note_on_c, 0, 72, 110
2, 152352, Note_on_c, 0, 63, 0
2, 152376, Note_on_c, 0, 72, 0
2, 152400, Note_on_c, 0, 65, 110
2, 152460, Note_on_c, 0, 74, 110
2, 152508, Note_on_c, 0, 74, 0
2, 152520, Note_on_c, 0, 72, 110
2, 152568, Note_on_c, 0, 72, 0
2, 152580, Note_on_c, 0, 74, 110
2, 152592, Note_on_c, 0, 65, 0
2, 152628, Note_on_c, 0, 74, 0
2, 152640, Note_on_c, 0, 75, 110
2, 152700, Note_on_c, 0, 68, 110
2, 152748, Note_on_c, 0, 68, 0
2, 152760, Note_on_c, 0, 67, 110
2, 152808, Note_on_c, 0, 67, 0
2, 152820, Note_on_c, 0, 68, 110
2, 152832, Note_on_c, 0, 75, 0
2, 152868, Note_on_c, 0, 68, 0
2, 152880, Note_on_c, 0, 65, 110
2, 152880, Note_on_c, 0, 77, 110
2, 152928, Note_on_c, 0, 65, 0
2, 152940, Note_on_c, 0, 70, 110
2, 152988, Note_on_c, 0, 70, 0
2, 153000, Note_on_c, 0, 68, 110
2, 153048, Note_on_c, 0, 68, 0
2, 153060, Note_on_c, 0, 70, 110
2, 153072, Note_on_c, 0, 77, 0
2, 153108, Note_on_c, 0, 70, 0
2, 153120, Note_on_c, 0, 67, 110
2, 153180, Note_on_c, 0, 79, 110
2, 153228, Note_on_c, 0, 79, 0
2, 153240, Note_on_c, 0, 77, 110
2, 153288, Note_on_c, 0, 77, 0
2, 153300, Note_on_c, 0, 79, 110
2, 153312, Note_on_c, 0, 67, 0
2, 153348, Note_on_c, 0, 79, 0
2, 153360, Note_on_c, 0, 80, 110
2, 153420, Note_on_c, 0, 73, 110
2, 153468, Note_on_c, 0, 73, 0
2, 153480, Note_on_c, 0, 72, 110
2, 153528, Note_on_c, 0, 72, 0
2, 153540, Note_on_c, 0, 73, 110
2, 153552, Note_on_c, 0, 80, 0
2, 153588, Note_on_c, 0, 73, 0
2, 153600, Note_on_c, 0, 70, 110
2, 153600, Note_on_c, 0, 82, 110
2, 153648, Note_on_c, 0, 70, 0
2, 153660, Note_on_c, 0, 75, 110
2, 153708, Note_on_c, 0, 75, 0
2, 153720, Note_on_c, 0, 73, 110
2, 153768, Note_on_c, 0, 73, 0
2, 153780, Note_on_c, 0, 75, 110
2, 153792, Note_on_c, 0, 82, 0
2, 153828, Note_on_c, 0, 75, 0
2, 153840, Note_on_c, 0, 72, 110
2, 153900, Note_on_c, 0, 84, 110
2, 153948, Note_on_c, 0, 84, 0
2, 153960, Note_on_c, 0, 82, 110
2, 154008, Note_on_c, 0, 82, 0
2, 154020, Note_on_c, 0, 84, 110
2, 154032, Note_on_c, 0, 72, 0
2, 154068, Note_on_c, 0, 84, 0
2, 154080, Note_on_c, 0, 77, 110
2, 154140, Note_on_c, 0, 70, 110
2, 154188, Note_on_c, 0, 70, 0
2, 154200, Note_on_c, 0, 68, 110
2, 154248, Note_on_c, 0, 68, 0
2, 154260, Note_on_c, 0, 70, 110
2, 154272, Note_on_c, 0, 77, 0
2, 154308, Note_on_c, 0, 70, 0
2, 154320, Note_on_c, 0, 79, 110
2, 154320, Note_on_c, 0, 67, 110
2, 154368, Note_on_c, 0, 67, 0
2, 154380, Note_on_c, 0, 72, 110
2, 154428, Note_on_c, 0, 72, 0
2, 154440, Note_on_c, 0, 70, 110
2, 154488, Note_on_c, 0, 70, 0
2, 154500, Note_on_c, 0, 72, 110
2, 154512, Note_on_c, 0, 79, 0
2, 154548, Note_on_c, 0, 72, 0
2, 154560, Note_on_c, 0, 68, 110
2, 154620, Note_on_c, 0, 80, 110
2, 154656, Note_on_c, 0, 68, 0
2, 154668, Note_on_c, 0, 80, 0
2, 154680, Note_on_c, 0, 72, 110
2, 154680, Note_on_c, 0, 79, 110
2, 154728, Note_on_c, 0, 79, 0
2, 154740, Note_on_c, 0, 80, 110
2, 154776, Note_on_c, 0, 72, 0
2, 154788, Note_on_c, 0, 80, 0
2, 154800, Note_on_c, 0, 74, 110
2, 154800, Note_on_c, 0, 71, 110
2, 154896, Note_on_c, 0, 71, 0
2, 154896, Note_on_c, 0, 74, 0
2, 154920, Note_on_c, 0, 71, 110
2, 154920, Note_on_c, 0, 74, 110
2, 155016, Note_on_c, 0, 74, 0
2, 155016, Note_on_c, 0, 71, 0
2, 155040, Note_on_c, 0, 75, 110
2, 155040, Note_on_c, 0, 72, 110
2, 155136, Note_on_c, 0, 72, 0
2, 155136, Note_on_c, 0, 75, 0
2, 155160, Note_on_c, 0, 75, 110
2, 155160, Note_on_c, 0, 72, 110
2, 155256, Note_on_c, 0, 72, 0
2, 155256, Note_on_c, 0, 75, 0
2, 155340, Note_on_c, 0, 77, 110
2, 155340, Note_on_c, 0, 74, 110
2, 155388, Note_on_c, 0, 74, 0
2, 155388, Note_on_c, 0, 77, 0
2, 155400, Note_on_c, 0, 75, 110
2, 155400, Note_on_c, 0, 72, 110
2, 155448, Note_on_c, 0, 72, 0
2, 155448, Note_on_c, 0, 75, 0
2, 155460, Note_on_c, 0, 74, 110
2, 155460, Note_on_c, 0, 77, 110
2, 155508, Note_on_c, 0, 77, 0
2, 155508, Note_on_c, 0, 74, 0
2, 155520, Note_on_c, 0, 69, 110
2, 155520, Note_on_c, 0, 72, 110
2, 155616, Note_on_c, 0, 72, 0
2, 155616, Note_on_c, 0, 69, 0
2, 155640, Note_on_c, 0, 69, 110
2, 155640, Note_on_c, 0, 72, 110
2, 155736, Note_on_c, 0, 72, 0
2, 155736, Note_on_c, 0, 69, 0
2, 155760, Note_on_c, 0, 74, 110
2, 155760, Note_on_c, 0, 71, 110
2, 155856, Note_on_c, 0, 71, 0
2, 155856, Note_on_c, 0, 74, 0
2, 155880, Note_on_c, 0, 71, 110
2, 155880, Note_on_c, 0, 74, 110
2, 155976, Note_on_c, 0, 74, 0
2, 155976, Note_on_c, 0, 71, 0
2, 156060, Note_on_c, 0, 72, 110
2, 156060, Note_on_c, 0, 75, 110
2, 156108, Note_on_c, 0, 75, 0
2, 156108, Note_on_c, 0, 72, 0
2, 156120, Note_on_c, 0, 70, 110
2, 156120, Note_on_c, 0, 74, 110
2, 156168, Note_on_c, 0, 74, 0
2, 156168, Note_on_c, 0, 70, 0
2, 156180, Note_on_c, 0, 72, 110
2, 156180, Note_on_c, 0, 75, 110
2, 156228, Note_on_c, 0, 75, 0
2, 156228, Note_on_c, 0, 72, 0
2, 156300, Note_on_c, 0, 75, 110
2, 156300, Note_on_c, 0, 72, 110
2, 156348, Note_on_c, 0, 72, 0
2, 156348, Note_on_c, 0, 75, 0
2, 156360, Note_on_c, 0, 70, 110
2, 156360, Note_on_c, 0, 74, 110
2, 156408, Note_on_c, 0, 74, 0
2, 156408, Note_on_c, 0, 70, 0
2, 156420, Note_on_c, 0, 75, 110
2, 156420, Note_on_c, 0, 72, 110
2, 156468, Note_on_c, 0, 72, 0
2, 156468, Note_on_c, 0, 75, 0
2, 156540, Note_on_c, 0, 72, 110
2, 156540, Note_on_c, 0, 75, 110
2, 156588, Note_on_c, 0, 75, 0
2, 156588, Note_on_c, 0, 72, 0
2, 156600, Note_on_c, 0, 74, 110
2, 156600, Note_on_c, 0, 70, 110
2, 156648, Note_on_c, 0, 70, 0
2, 156648, Note_on_c, 0, 74, 0
2, 156660, Note_on_c, 0, 75, 110
2, 156660, Note_on_c, 0, 72, 110
2, 156708, Note_on_c, 0, 72, 0
2, 156708, Note_on_c, 0, 75, 0
2, 156780, Note_on_c, 0, 74, 110
2, 156780, Note_on_c, 0, 70, 110
2, 156828, Note_on_c, 0, 70, 0
2, 156828, Note_on_c, 0, 74, 0
2, 156840, Note_on_c, 0, 69, 110
2, 156840, Note_on_c, 0, 72, 110
2, 156888, Note_on_c, 0, 72, 0
2, 156888, Note_on_c, 0, 69, 0
2, 156900, Note_on_c, 0, 70, 110
2, 156900, Note_on_c, 0, 74, 110
2, 156948, Note_on_c, 0, 74, 0
2, 156948, Note_on_c, 0, 70, 0
2, 157020, Note_on_c, 0, 69, 110
2, 157020, Note_on_c, 0, 72, 110
2, 157068, Note_on_c, 0, 72, 0
2, 157068, Note_on_c, 0, 69, 0
2, 157080, Note_on_c, 0, 67, 110
2, 157080, Note_on_c, 0, 70, 110
2, 157128, Note_on_c, 0, 70, 0
2, 157128, Note_on_c, 0, 67, 0
2, 157140, Note_on_c, 0, 69, 110
2, 157140, Note_on_c, 0, 72, 110
2, 157188, Note_on_c, 0, 72, 0
2, 157188, Note_on_c, 0, 69, 0
2, 157260, Note_on_c, 0, 69, 110
2, 157260, Note_on_c, 0, 72, 110
2, 157308, Note_on_c, 0, 72, 0
2, 157308, Note_on_c, 0, 69, 0
2, 157320, Note_on_c, 0, 70, 110
2, 157320, Note_on_c, 0, 67, 110
2, 157368, Note_on_c, 0, 67, 0
2, 157368, Note_on_c, 0, 70, 0
2, 157380, Note_on_c, 0, 69, 110
2, 157380, Note_on_c, 0, 72, 110
2, 157428, Note_on_c, 0, 72, 0
2, 157428, Note_on_c, 0, 69, 0
2, 157500, Note_on_c, 0, 70, 110
2, 157500, Note_on_c, 0, 67, 110
2, 157548, Note_on_c, 0, 67, 0
2, 157548, Note_on_c, 0, 70, 0
2, 157560, Note_on_c, 0, 66, 110
2, 157560, Note_on_c, 0, 69, 110
2, 157608, Note_on_c, 0, 69, 0
2, 157608, Note_on_c, 0, 66, 0
2, 157620, Note_on_c, 0, 67, 110
2, 157620, Note_on_c, 0, 70, 110
2, 157668, Note_on_c, 0, 70, 0
2, 157668, Note_on_c, 0, 67, 0
2, 157740, Note_on_c, 0, 67, 110
2, 157740, Note_on_c, 0, 70, 110
2, 157788, Note_on_c, 0, 70, 0
2, 157788, Note_on_c, 0, 67, 0
2, 157800, Note_on_c, 0, 66, 110
2, 157800, Note_on_c, 0, 69, 110
2, 157848, Note_on_c, 0, 69, 0
2, 157848, Note_on_c, 0, 66, 0
2, 157860, Note_on_c, 0, 67, 110
2, 157860, Note_on_c, 0, 70, 110
2, 157908, Note_on_c, 0, 70, 0
2, 157908, Note_on_c, 0, 67, 0
2, 157980, Note_on_c, 0, 69, 110
2, 157980, Note_on_c, 0, 72, 110
2, 158028, Note_on_c, 0, 72, 0
2, 158028, Note_on_c, 0, 69, 0
2, 158040, Note_on_c, 0, 70, 110
2, 158040, Note_on_c, 0, 67, 110
2, 158088, Note_on_c, 0, 67, 0
2, 158088, Note_on_c, 0, 70, 0
2, 158100, Note_on_c, 0, 69, 110
2, 158100, Note_on_c, 0, 72, 110
2, 158148, Note_on_c, 0, 72, 0
2, 158148, Note_on_c, 0, 69, 0
2, 158220, Note_on_c, 0, 69, 110
2, 158220, Note_on_c, 0, 66, 110
2, 158268, Note_on_c, 0, 66, 0
2, 158268, Note_on_c, 0, 69, 0
2, 158280, Note_on_c, 0, 67, 110
2, 158280, Note_on_c, 0, 64, 110
2, 158328, Note_on_c, 0, 64, 0
2, 158328, Note_on_c, 0, 67, 0
2, 158340, Note_on_c, 0, 69, 110
2, 158340, Note_on_c, 0, 66, 110
2, 158388, Note_on_c, 0, 66, 0
2, 158388, Note_on_c, 0, 69, 0
2, 158460, Note_on_c, 0, 69, 110
2, 158460, Note_on_c, 0, 66, 110
2, 158508, Note_on_c, 0, 66, 0
2, 158508, Note_on_c, 0, 69, 0
2, 158520, Note_on_c, 0, 67, 110
2, 158520, Note_on_c, 0, 64, 110
2, 158568, Note_on_c, 0, 64, 0
2, 158568, Note_on_c, 0, 67, 0
2, 158580, Note_on_c, 0, 66, 110
2, 158580, Note_on_c, 0, 69, 110
2, 158628, Note_on_c, 0, 69, 0
2, 158628, Note_on_c, 0, 66, 0
2, 158640, Note_on_c, 0, 70, 110
2, 158640, Note_on_c, 0, 67, 110
2, 158688, Note_on_c, 0, 70, 0
2, 158700, Note_on_c, 0, 72, 110
2, 158748, Note_on_c, 0, 72, 0
2, 158760, Note_on_c, 0, 70, 110
2, 158808, Note_on_c, 0, 70, 0
2, 158820, Note_on_c, 0, 72, 110
2, 158868, Note_on_c, 0, 72, 0
2, 158880, Note_on_c, 0, 74, 110
2, 158976, Note_on_c, 0, 67, 0
2, 159000, Note_on_c, 0, 70, 110
2, 159072, Note_on_c, 0, 74, 0
2, 159096, Note_on_c, 0, 70, 0
2, 159120, Note_on_c, 0, 66, 110
2, 159180, Note_on_c, 0, 74, 110
2, 159216, Note_on_c, 0, 66, 0
2, 159228, Note_on_c, 0, 74, 0
2, 159240, Note_on_c, 0, 66, 110
2, 159240, Note_on_c, 0, 72, 110
2, 159288, Note_on_c, 0, 72, 0
2, 159300, Note_on_c, 0, 74, 110
2, 159336, Note_on_c, 0, 66, 0
2, 159348, Note_on_c, 0, 74, 0
2, 159360, Note_on_c, 0, 67, 110
2, 159360, Note_on_c, 0, 67, 110
2, 159408, Note_on_c, 0, 67, 0
2, 159420, Note_on_c, 0, 79, 110
2, 159456, Note_on_c, 0, 67, 0
2, 159468, Note_on_c, 0, 79, 0
2, 159480, Note_on_c, 0, 77, 110
2, 159480, Note_on_c, 0, 67, 110
2, 159528, Note_on_c, 0, 77, 0
2, 159540, Note_on_c, 0, 79, 110
2, 159576, Note_on_c, 0, 67, 0
2, 159588, Note_on_c, 0, 79, 0
2, 159600, Note_on_c, 0, 75, 110
2, 159648, Note_on_c, 0, 75, 0
2, 159660, Note_on_c, 0, 79, 110
2, 159708, Note_on_c, 0, 79, 0
2, 159720, Note_on_c, 0, 75, 110
2, 159720, Note_on_c, 0, 75, 110
2, 159768, Note_on_c, 0, 75, 0
2, 159780, Note_on_c, 0, 79, 110
2, 159816, Note_on_c, 0, 75, 0
2, 159828, Note_on_c, 0, 79, 0
2, 159840, Note_on_c, 0, 69, 110
2, 159840, Note_on_c, 0, 75, 110
2, 159888, Note_on_c, 0, 75, 0
2, 159900, Note_on_c, 0, 77, 110
2, 159936, Note_on_c, 0, 69, 0
2, 159948, Note_on_c, 0, 77, 0
2, 159960, Note_on_c, 0, 75, 110
2, 159960, Note_on_c, 0, 69, 110
2, 160008, Note_on_c, 0, 75, 0
2, 160020, Note_on_c, 0, 77, 110
2, 160056, Note_on_c, 0, 69, 0
2, 160068, Note_on_c, 0, 77, 0
2, 160080, Note_on_c, 0, 70, 110
2, 160080, Note_on_c, 0, 74, 110
2, 160128, Note_on_c, 0, 74, 0
2, 160140, Note_on_c, 0, 75, 110
2, 160176, Note_on_c, 0, 70, 0
2, 160188, Note_on_c, 0, 75, 0
2, 160200, Note_on_c, 0, 74, 110
2, 160200, Note_on_c, 0, 70, 110
2, 160248, Note_on_c, 0, 74, 0
2, 160260, Note_on_c, 0, 75, 110
2, 160296, Note_on_c, 0, 70, 0
2, 160308, Note_on_c, 0, 75, 0
2, 160320, Note_on_c, 0, 72, 110
2, 160368, Note_on_c, 0, 72, 0
2, 160380, Note_on_c, 0, 75, 110
2, 160428, Note_on_c, 0, 75, 0
2, 160440, Note_on_c, 0, 72, 110
2, 160440, Note_on_c, 0, 74, 110
2, 160488, Note_on_c, 0, 74, 0
2, 160500, Note_on_c, 0, 77, 110
2, 160536, Note_on_c, 0, 72, 0
2, 160548, Note_on_c, 0, 77, 0
2, 160560, Note_on_c, 0, 75, 110
2, 160560, Note_on_c, 0, 67, 110
2, 160608, Note_on_c, 0, 75, 0
2, 160620, Note_on_c, 0, 79, 110
2, 160656, Note_on_c, 0, 67, 0
2, 160668, Note_on_c, 0, 79, 0
2, 160680, Note_on_c, 0, 67, 110
2, 160680, Note_on_c, 0, 78, 110
2, 160728, Note_on_c, 0, 78, 0
2, 160740, Note_on_c, 0, 81, 110
2, 160776, Note_on_c, 0, 67, 0
2, 160788, Note_on_c, 0, 81, 0
2, 160800, Note_on_c, 0, 69, 110
2, 160800, Note_on_c, 0, 79, 110
2, 160848, Note_on_c, 0, 79, 0
2, 160860, Note_on_c, 0, 82, 110
2, 160896, Note_on_c, 0, 69, 0
2, 160908, Note_on_c, 0, 82, 0
2, 160920, Note_on_c, 0, 69, 110
2, 160920, Note_on_c, 0, 81, 110
2, 160968, Note_on_c, 0, 81, 0
2, 160980, Note_on_c, 0, 79, 110
2, 161016, Note_on_c, 0, 69, 0
2, 161028, Note_on_c, 0, 79, 0
2, 161040, Note_on_c, 0, 78, 110
2, 161088, Note_on_c, 0, 78, 0
2, 161100, Note_on_c, 0, 81, 110
2, 161148, Note_on_c, 0, 81, 0
2, 161160, Note_on_c, 0, 79, 110
2, 161160, Note_on_c, 0, 70, 110
2, 161208, Note_on_c, 0, 79, 0
2, 161220, Note_on_c, 0, 82, 110
2, 161256, Note_on_c, 0, 70, 0
2, 161268, Note_on_c, 0, 82, 0
2, 161280, Note_on_c, 0, 66, 110
2, 161280, Note_on_c, 0, 81, 110
2, 161328, Note_on_c, 0, 66, 0
2, 161340, Note_on_c, 0, 69, 110
2, 161376, Note_on_c, 0, 81, 0
2, 161388, Note_on_c, 0, 69, 0
2, 161400, Note_on_c, 0, 74, 110
2, 161400, Note_on_c, 0, 67, 110
2, 161448, Note_on_c, 0, 67, 0
2, 161460, Note_on_c, 0, 70, 110
2, 161496, Note_on_c, 0, 74, 0
2, 161508, Note_on_c, 0, 70, 0
2, 161520, Note_on_c, 0, 69, 110
2, 161568, Note_on_c, 0, 69, 0
2, 161580, Note_on_c, 0, 72, 110
2, 161628, Note_on_c, 0, 72, 0
2, 161640, Note_on_c, 0, 70, 110
2, 161688, Note_on_c, 0, 70, 0
2, 161700, Note_on_c, 0, 69, 110
2, 161748, Note_on_c, 0, 69, 0
2, 161760, Note_on_c, 0, 70, 110
2, 162288, Note_on_c, 0, 70, 0
2, 162300, Note_on_c, 0, 72, 110
2, 162348, Note_on_c, 0, 72, 0
2, 162360, Note_on_c, 0, 67, 110
2, 162408, Note_on_c, 0, 67, 0
2, 162420, Note_on_c, 0, 70, 110
2, 162468, Note_on_c, 0, 70, 0
2, 162480, Note_on_c, 0, 69, 110
2, 163008, Note_on_c, 0, 69, 0
2, 163020, Note_on_c, 0, 70, 110
2, 163068, Note_on_c, 0, 70, 0
2, 163080, Note_on_c, 0, 66, 110
2, 163128, Note_on_c, 0, 66, 0
2, 163140, Note_on_c, 0, 69, 110
2, 163188, Note_on_c, 0, 69, 0
2, 163200, Note_on_c, 0, 67, 110
2, 163728, Note_on_c, 0, 67, 0
2, 163740, Note_on_c, 0, 69, 110
2, 163788, Note_on_c, 0, 69, 0
2, 163800, Note_on_c, 0, 64, 110
2, 163848, Note_on_c, 0, 64, 0
2, 163860, Note_on_c, 0, 67, 110
2, 163908, Note_on_c, 0, 67, 0
2, 163920, Note_on_c, 0, 66, 110
2, 163968, Note_on_c, 0, 66, 0
2, 163980, Note_on_c, 0, 69, 110
2, 164028, Note_on_c, 0, 69, 0
2, 164040, Note_on_c, 0, 66, 110
2, 164088, Note_on_c, 0, 66, 0
2, 164100, Note_on_c, 0, 69, 110
2, 164148, Note_on_c, 0, 69, 0
2, 164160, Note_on_c, 0, 62, 110
2, 164208, Note_on_c, 0, 62, 0
2, 164220, Note_on_c, 0, 66, 110
2, 164268, Note_on_c, 0, 66, 0
2, 164280, Note_on_c, 0, 62, 110
2, 164328, Note_on_c, 0, 62, 0
2, 164340, Note_on_c, 0, 66, 110
2, 164388, Note_on_c, 0, 66, 0
2, 164400, Note_on_c, 0, 67, 110
2, 164496, Note_on_c, 0, 67, 0
2, 164520, Note_on_c, 0, 65, 110
2, 164616, Note_on_c, 0, 65, 0
2, 164640, Note_on_c, 0, 63, 110
2, 165168, Note_on_c, 0, 63, 0
2, 165180, Note_on_c, 0, 67, 110
2, 165228, Note_on_c, 0, 67, 0
2, 165240, Note_on_c, 0, 65, 110
2, 165288, Note_on_c, 0, 65, 0
2, 165300, Note_on_c, 0, 63, 110
2, 165348, Note_on_c, 0, 63, 0
2, 165360, Note_on_c, 0, 62, 110
2, 165408, Note_on_c, 0, 62, 0
2, 165420, Note_on_c, 0, 65, 110
2, 165468, Note_on_c, 0, 65, 0
2, 165480, Note_on_c, 0, 63, 110
2, 165528, Note_on_c, 0, 63, 0
2, 165540, Note_on_c, 0, 67, 110
2, 165588, Note_on_c, 0, 67, 0
2, 165600, Note_on_c, 0, 65, 110
2, 165648, Note_on_c, 0, 65, 0
2, 165660, Note_on_c, 0, 67, 110
2, 165708, Note_on_c, 0, 67, 0
2, 165720, Note_on_c, 0, 65, 110
2, 165768, Note_on_c, 0, 65, 0
2, 165780, Note_on_c, 0, 68, 110
2, 165828, Note_on_c, 0, 68, 0
2, 165840, Note_on_c, 0, 62, 110
2, 166272, Note_on_c, 0, 62, 0
2, 166320, Note_on_c, 0, 60, 110
2, 166608, Note_on_c, 0, 60, 0
2, 166620, Note_on_c, 0, 63, 110
2, 166668, Note_on_c, 0, 63, 0
2, 166680, Note_on_c, 0, 62, 110
2, 166728, Note_on_c, 0, 62, 0
2, 166740, Note_on_c, 0, 65, 110
2, 166788, Note_on_c, 0, 65, 0
2, 166800, Note_on_c, 0, 59, 110
2, 166848, Note_on_c, 0, 59, 0
2, 166860, Note_on_c, 0, 62, 110
2, 166908, Note_on_c, 0, 62, 0
2, 166920, Note_on_c, 0, 60, 110
2, 166968, Note_on_c, 0, 60, 0
2, 166980, Note_on_c, 0, 63, 110
2, 167028, Note_on_c, 0, 63, 0
2, 167040, Note_on_c, 0, 62, 110
2, 167088, Note_on_c, 0, 62, 0
2, 167100, Note_on_c, 0, 63, 110
2, 167148, Note_on_c, 0, 63, 0
2, 167160, Note_on_c, 0, 60, 110
2, 167208, Note_on_c, 0, 60, 0
2, 167220, Note_on_c, 0, 62, 110
2, 167268, Note_on_c, 0, 62, 0
2, 167280, Note_on_c, 0, 63, 110
2, 167328, Note_on_c, 0, 63, 0
2, 167340, Note_on_c, 0, 65, 110
2, 167388, Note_on_c, 0, 65, 0
2, 167400, Note_on_c, 0, 62, 110
2, 167448, Note_on_c, 0, 62, 0
2, 167460, Note_on_c, 0, 64, 110
2, 167508, Note_on_c, 0, 64, 0
2, 167520, Note_on_c, 0, 65, 110
2, 167568, Note_on_c, 0, 65, 0
2, 167580, Note_on_c, 0, 68, 110
2, 167628, Note_on_c, 0, 68, 0
2, 167640, Note_on_c, 0, 67, 110
2, 167688, Note_on_c, 0, 67, 0
2, 167700, Note_on_c, 0, 70, 110
2, 167748, Note_on_c, 0, 70, 0
2, 167760, Note_on_c, 0, 68, 110
2, 167808, Note_on_c, 0, 68, 0
2, 167820, Note_on_c, 0, 60, 110
2, 167868, Note_on_c, 0, 60, 0
2, 167880, Note_on_c, 0, 68, 110
2, 167928, Note_on_c, 0, 68, 0
2, 167940, Note_on_c, 0, 67, 110
2, 167988, Note_on_c, 0, 67, 0
2, 168000, Note_on_c, 0, 65, 110
2, 168048, Note_on_c, 0, 65, 0
2, 168060, Note_on_c, 0, 63, 110
2, 168108, Note_on_c, 0, 63, 0
2, 168120, Note_on_c, 0, 62, 110
2, 168168, Note_on_c, 0, 62, 0
2, 168180, Note_on_c, 0, 60, 110
2, 168228, Note_on_c, 0, 60, 0
2, 168240, Note_on_c, 0, 59, 110
2, 168288, Note_on_c, 0, 59, 0
2, 168300, Note_on_c, 0, 62, 110
2, 168348, Note_on_c, 0, 62, 0
2, 168360, Note_on_c, 0, 60, 110
2, 168408, Note_on_c, 0, 60, 0
2, 168420, Note_on_c, 0, 63, 110
2, 168468, Note_on_c, 0, 63, 0
2, 168480, Note_on_c, 0, 62, 110
2, 168528, Note_on_c, 0, 62, 0
2, 168540, Note_on_c, 0, 65, 110
2, 168588, Note_on_c, 0, 65, 0
2, 168600, Note_on_c, 0, 63, 110
2, 168648, Note_on_c, 0, 63, 0
2, 168660, Note_on_c, 0, 62, 110
2, 168708, Note_on_c, 0, 62, 0
2, 168720, Note_on_c, 0, 60, 110
2, 168768, Note_on_c, 0, 60, 0
2, 168780, Note_on_c, 0, 72, 110
2, 168828, Note_on_c, 0, 72, 0
2, 168840, Note_on_c, 0, 70, 110
2, 168888, Note_on_c, 0, 70, 0
2, 168900, Note_on_c, 0, 72, 110
2, 168948, Note_on_c, 0, 72, 0
2, 168960, Note_on_c, 0, 68, 110
2, 169008, Note_on_c, 0, 68, 0
2, 169020, Note_on_c, 0, 72, 110
2, 169068, Note_on_c, 0, 72, 0
2, 169080, Note_on_c, 0, 68, 110
2, 169128, Note_on_c, 0, 68, 0
2, 169140, Note_on_c, 0, 72, 110
2, 169188, Note_on_c, 0, 72, 0
2, 169200, Note_on_c, 0, 68, 110
2, 169248, Note_on_c, 0, 68, 0
2, 169260, Note_on_c, 0, 70, 110
2, 169308, Note_on_c, 0, 70, 0
2, 169320, Note_on_c, 0, 68, 110
2, 169368, Note_on_c, 0, 68, 0
2, 169380, Note_on_c, 0, 70, 110
2, 169428, Note_on_c, 0, 70, 0
2, 169440, Note_on_c, 0, 67, 110
2, 169488, Note_on_c, 0, 67, 0
2, 169500, Note_on_c, 0, 70, 110
2, 169548, Note_on_c, 0, 70, 0
2, 169560, Note_on_c, 0, 67, 110
2, 169608, Note_on_c, 0, 67, 0
2, 169620, Note_on_c, 0, 70, 110
2, 169668, Note_on_c, 0, 70, 0
2, 169680, Note_on_c, 0, 65, 110
2, 169728, Note_on_c, 0, 65, 0
2, 169740, Note_on_c, 0, 68, 110
2, 169788, Note_on_c, 0, 68, 0
2, 169800, Note_on_c, 0, 67, 110
2, 169848, Note_on_c, 0, 67, 0
2, 169860, Note_on_c, 0, 70, 110
2, 169908, Note_on_c, 0, 70, 0
2, 169920, Note_on_c, 0, 68, 110
2, 169968, Note_on_c, 0, 68, 0
2, 169980, Note_on_c, 0, 70, 110
2, 170028, Note_on_c, 0, 70, 0
2, 170040, Note_on_c, 0, 67, 110
2, 170088, Note_on_c, 0, 67, 0
2, 170100, Note_on_c, 0, 68, 110
2, 170148, Note_on_c, 0, 68, 0
2, 170160, Note_on_c, 0, 70, 110
2, 170208, Note_on_c, 0, 70, 0
2, 170220, Note_on_c, 0, 72, 110
2, 170268, Note_on_c, 0, 72, 0
2, 170280, Note_on_c, 0, 68, 110
2, 170328, Note_on_c, 0, 68, 0
2, 170340, Note_on_c, 0, 70, 110
2, 170388, Note_on_c, 0, 70, 0
2, 170400, Note_on_c, 0, 67, 110
2, 170448, Note_on_c, 0, 67, 0
2, 170460, Note_on_c, 0, 67, 110
2, 170508, Note_on_c, 0, 67, 0
2, 170520, Note_on_c, 0, 65, 110
2, 170568, Note_on_c, 0, 65, 0
2, 170580, Note_on_c, 0, 67, 110
2, 170628, Note_on_c, 0, 67, 0
2, 170700, Note_on_c, 0, 68, 110
2, 170748, Note_on_c, 0, 68, 0
2, 170760, Note_on_c, 0, 67, 110
2, 170808, Note_on_c, 0, 67, 0
2, 170820, Note_on_c, 0, 68, 110
2, 170868, Note_on_c, 0, 68, 0
2, 170940, Note_on_c, 0, 65, 110
2, 170988, Note_on_c, 0, 65, 0
2, 171000, Note_on_c, 0, 63, 110
2, 171048, Note_on_c, 0, 63, 0
2, 171060, Note_on_c, 0, 65, 110
2, 171108, Note_on_c, 0, 65, 0
2, 171180, Note_on_c, 0, 67, 110
2, 171228, Note_on_c, 0, 67, 0
2, 171240, Note_on_c, 0, 68, 110
2, 171288, Note_on_c, 0, 68, 0
2, 171300, Note_on_c, 0, 67, 110
2, 171348, Note_on_c, 0, 67, 0
2, 171420, Note_on_c, 0, 65, 110
2, 171468, Note_on_c, 0, 65, 0
2, 171480, Note_on_c, 0, 63, 110
2, 171528, Note_on_c, 0, 63, 0
2, 171540, Note_on_c, 0, 65, 110
2, 171588, Note_on_c, 0, 65, 0
2, 171660, Note_on_c, 0, 62, 110
2, 171708, Note_on_c, 0, 62, 0
2, 171720, Note_on_c, 0, 60, 110
2, 171768, Note_on_c, 0, 60, 0
2, 171780, Note_on_c, 0, 62, 110
2, 171828, Note_on_c, 0, 62, 0
2, 171840, Note_on_c, 0, 63, 110
2, 171936, Note_on_c, 0, 63, 0
2, 171960, Note_on_c, 0, 65, 110
2, 172056, Note_on_c, 0, 65, 0
2, 172080, Note_on_c, 0, 67, 110
2, 172176, Note_on_c, 0, 67, 0
2, 172200, Note_on_c, 0, 69, 110
2, 172296, Note_on_c, 0, 69, 0
2, 172320, Note_on_c, 0, 70, 110
2, 172416, Note_on_c, 0, 70, 0
2, 172440, Note_on_c, 0, 72, 110
2, 172536, Note_on_c, 0, 72, 0
2, 172560, Note_on_c, 0, 74, 110
2, 172656, Note_on_c, 0, 74, 0
2, 172680, Note_on_c, 0, 75, 110
2, 172776, Note_on_c, 0, 75, 0
2, 172800, Note_on_c, 0, 77, 110
2, 172896, Note_on_c, 0, 77, 0
2, 172920, Note_on_c, 0, 79, 110
2, 173016, Note_on_c, 0, 79, 0
2, 173040, Note_on_c, 0, 80, 110
2, 173136, Note_on_c, 0, 80, 0
2, 173160, Note_on_c, 0, 82, 110
2, 173256, Note_on_c, 0, 82, 0
2, 173280, Note_on_c, 0, 84, 110
2, 173376, Note_on_c, 0, 84, 0
2, 173400, Note_on_c, 0, 62, 110
2, 173496, Note_on_c, 0, 62, 0
2, 173520, Note_on_c, 0, 63, 110
2, 173616, Note_on_c, 0, 63, 0
2, 173640, Note_on_c, 0, 65, 110
2, 173736, Note_on_c, 0, 65, 0
2, 173760, Note_on_c, 0, 67, 110
2, 173856, Note_on_c, 0, 67, 0
2, 173880, Note_on_c, 0, 68, 110
2, 173976, Note_on_c, 0, 68, 0
2, 174000, Note_on_c, 0, 70, 110
2, 174096, Note_on_c, 0, 70, 0
2, 174120, Note_on_c, 0, 72, 110
2, 174216, Note_on_c, 0, 72, 0
2, 174240, Note_on_c, 0, 74, 110
2, 174336, Note_on_c, 0, 74, 0
2, 174360, Note_on_c, 0, 75, 110
2, 174456, Note_on_c, 0, 75, 0
2, 174480, Note_on_c, 0, 77, 110
2, 174576, Note_on_c, 0, 77, 0
2, 174600, Note_on_c, 0, 79, 110
2, 174696, Note_on_c, 0, 79, 0
2, 174720, Note_on_c, 0, 80, 110
2, 174816, Note_on_c, 0, 80, 0
2, 174840, Note_on_c, 0, 58, 110
2, 174936, Note_on_c, 0, 58, 0
2, 174960, Note_on_c, 0, 60, 110
2, 175056, Note_on_c, 0, 60, 0
2, 175080, Note_on_c, 0, 62, 110
2, 175176, Note_on_c, 0, 62, 0
2, 175200, Note_on_c, 0, 63, 110
2, 175296, Note_on_c, 0, 63, 0
2, 175320, Note_on_c, 0, 65, 110
2, 175416, Note_on_c, 0, 65, 0
2, 175440, Note_on_c, 0, 67, 110
2, 175728, Note_on_c, 0, 67, 0
2, 175800, Note_on_c, 0, 67, 110
2, 175896, Note_on_c, 0, 67, 0
2, 175920, Note_on_c, 0, 69, 110
2, 175968, Note_on_c, 0, 69, 0
2, 175980, Note_on_c, 0, 70, 110
2, 176028, Note_on_c, 0, 70, 0
2, 176040, Note_on_c, 0, 67, 110
2, 176088, Note_on_c, 0, 67, 0
2, 176100, Note_on_c, 0, 69, 110
2, 176148, Note_on_c, 0, 69, 0
2, 176160, Note_on_c, 0, 66, 110
2, 176208, Note_on_c, 0, 66, 0
2, 176220, Note_on_c, 0, 67, 110
2, 176268, Note_on_c, 0, 67, 0
2, 176280, Note_on_c, 0, 64, 110
2, 176328, Note_on_c, 0, 64, 0
2, 176340, Note_on_c, 0, 66, 110
2, 176388, Note_on_c, 0, 66, 0
2, 176400, Note_on_c, 0, 62, 110
2, 176640, Note_on_c, 0, 67, 110
2, 176832, Note_on_c, 0, 67, 0
2, 176880, Note_on_c, 0, 74, 110
2, 176928, Note_on_c, 0, 62, 0
2, 176940, Note_on_c, 0, 69, 110
2, 176988, Note_on_c, 0, 69, 0
2, 177000, Note_on_c, 0, 67, 110
2, 177048, Note_on_c, 0, 67, 0
2, 177060, Note_on_c, 0, 70, 110
2, 177108, Note_on_c, 0, 70, 0
2, 177120, Note_on_c, 0, 69, 110
2, 177168, Note_on_c, 0, 69, 0
2, 177180, Note_on_c, 0, 72, 110
2, 177228, Note_on_c, 0, 72, 0
2, 177240, Note_on_c, 0, 70, 110
2, 177264, Note_on_c, 0, 74, 0
2, 177288, Note_on_c, 0, 70, 0
2, 177300, Note_on_c, 0, 69, 110
2, 177348, Note_on_c, 0, 69, 0
2, 177360, Note_on_c, 0, 67, 110
2, 177360, Note_on_c, 0, 70, 110
2, 177456, Note_on_c, 0, 67, 0
2, 177480, Note_on_c, 0, 62, 110
2, 177552, Note_on_c, 0, 70, 0
2, 177576, Note_on_c, 0, 62, 0
2, 177600, Note_on_c, 0, 67, 110
2, 177600, Note_on_c, 0, 72, 110
2, 177792, Note_on_c, 0, 67, 0
2, 177840, Note_on_c, 0, 65, 110
2, 177984, Note_on_c, 0, 72, 0
2, 178032, Note_on_c, 0, 65, 0
2, 178080, Note_on_c, 0, 65, 110
2, 178080, Note_on_c, 0, 74, 110
2, 178272, Note_on_c, 0, 74, 0
2, 178272, Note_on_c, 0, 65, 0
2, 178320, Note_on_c, 0, 63, 110
2, 178320, Note_on_c, 0, 75, 110
2, 178416, Note_on_c, 0, 63, 0
2, 178440, Note_on_c, 0, 65, 110
2, 178536, Note_on_c, 0, 65, 0
2, 178560, Note_on_c, 0, 67, 110
2, 178656, Note_on_c, 0, 67, 0
2, 178680, Note_on_c, 0, 70, 110
2, 178704, Note_on_c, 0, 75, 0
2, 178776, Note_on_c, 0, 70, 0
2, 178800, Note_on_c, 0, 69, 110
2, 178800, Note_on_c, 0, 72, 110
2, 178896, Note_on_c, 0, 69, 0
2, 178920, Note_on_c, 0, 67, 110
2, 178992, Note_on_c, 0, 72, 0
2, 179016, Note_on_c, 0, 67, 0
2, 179040, Note_on_c, 0, 74, 110
2, 179040, Note_on_c, 0, 66, 110
2, 179088, Note_on_c, 0, 66, 0
2, 179100, Note_on_c, 0, 69, 110
2, 179148, Note_on_c, 0, 69, 0
2, 179160, Note_on_c, 0, 67, 110
2, 179208, Note_on_c, 0, 67, 0
2, 179220, Note_on_c, 0, 70, 110
2, 179268, Note_on_c, 0, 70, 0
2, 179280, Note_on_c, 0, 69, 110
2, 179376, Note_on_c, 0, 69, 0
2, 179400, Note_on_c, 0, 66, 110
2, 179496, Note_on_c, 0, 66, 0
2, 179520, Note_on_c, 0, 67, 110
2, 179568, Note_on_c, 0, 74, 0
2, 179580, Note_on_c, 0, 74, 110
2, 179628, Note_on_c, 0, 74, 0
2, 179640, Note_on_c, 0, 72, 110
2, 179688, Note_on_c, 0, 72, 0
2, 179700, Note_on_c, 0, 74, 110
2, 179712, Note_on_c, 0, 67, 0
2, 179748, Note_on_c, 0, 74, 0
2, 179760, Note_on_c, 0, 75, 110
2, 179760, Note_on_c, 0, 67, 110
2, 179808, Note_on_c, 0, 75, 0
2, 179820, Note_on_c, 0, 77, 110
2, 179856, Note_on_c, 0, 67, 0
2, 179868, Note_on_c, 0, 77, 0
2, 179880, Note_on_c, 0, 74, 110
2, 179880, Note_on_c, 0, 67, 110
2, 179928, Note_on_c, 0, 74, 0
2, 179940, Note_on_c, 0, 76, 110
2, 179976, Note_on_c, 0, 67, 0
2, 179988, Note_on_c, 0, 76, 0
2, 180000, Note_on_c, 0, 77, 110
2, 180000, Note_on_c, 0, 69, 110
2, 180048, Note_on_c, 0, 77, 0
2, 180060, Note_on_c, 0, 79, 110
2, 180108, Note_on_c, 0, 79, 0
2, 180120, Note_on_c, 0, 76, 110
2, 180168, Note_on_c, 0, 76, 0
2, 180180, Note_on_c, 0, 78, 110
2, 180192, Note_on_c, 0, 69, 0
2, 180228, Note_on_c, 0, 78, 0
2, 180240, Note_on_c, 0, 79, 110
2, 180240, Note_on_c, 0, 67, 110
2, 180288, Note_on_c, 0, 79, 0
2, 180300, Note_on_c, 0, 81, 110
2, 180348, Note_on_c, 0, 81, 0
2, 180360, Note_on_c, 0, 74, 110
2, 180408, Note_on_c, 0, 74, 0
2, 180420, Note_on_c, 0, 77, 110
2, 180468, Note_on_c, 0, 77, 0
2, 180480, Note_on_c, 0, 75, 110
2, 180528, Note_on_c, 0, 75, 0
2, 180540, Note_on_c, 0, 77, 110
2, 180576, Note_on_c, 0, 67, 0
2, 180588, Note_on_c, 0, 77, 0
2, 180600, Note_on_c, 0, 72, 110
2, 180600, Note_on_c, 0, 65, 110
2, 180648, Note_on_c, 0, 72, 0
2, 180660, Note_on_c, 0, 75, 110
2, 180708, Note_on_c, 0, 75, 0
2, 180720, Note_on_c, 0, 74, 110
2, 180768, Note_on_c, 0, 74, 0
2, 180780, Note_on_c, 0, 75, 110
2, 180792, Note_on_c, 0, 65, 0
2, 180828, Note_on_c, 0, 75, 0
2, 180840, Note_on_c, 0, 63, 110
2, 180840, Note_on_c, 0, 70, 110
2, 180888, Note_on_c, 0, 70, 0
2, 180900, Note_on_c, 0, 74, 110
2, 180948, Note_on_c, 0, 74, 0
2, 180960, Note_on_c, 0, 72, 110
2, 181008, Note_on_c, 0, 72, 0
2, 181020, Note_on_c, 0, 74, 110
2, 181032, Note_on_c, 0, 63, 0
2, 181068, Note_on_c, 0, 74, 0
2, 181080, Note_on_c, 0, 62, 110
2, 181080, Note_on_c, 0, 69, 110
2, 181128, Note_on_c, 0, 69, 0
2, 181140, Note_on_c, 0, 72, 110
2, 181188, Note_on_c, 0, 72, 0
2, 181200, Note_on_c, 0, 70, 110
2, 181248, Note_on_c, 0, 70, 0
2, 181260, Note_on_c, 0, 72, 110
2, 181296, Note_on_c, 0, 62, 0
2, 181308, Note_on_c, 0, 72, 0
2, 181320, Note_on_c, 0, 69, 110
2, 181320, Note_on_c, 0, 62, 110
2, 181368, Note_on_c, 0, 69, 0
2, 181380, Note_on_c, 0, 71, 110
2, 181416, Note_on_c, 0, 62, 0
2, 181428, Note_on_c, 0, 71, 0
2, 181440, Note_on_c, 0, 72, 110
2, 181440, Note_on_c, 0, 63, 110
2, 181488, Note_on_c, 0, 72, 0
2, 181500, Note_on_c, 0, 74, 110
2, 181548, Note_on_c, 0, 74, 0
2, 181560, Note_on_c, 0, 75, 110
2, 181608, Note_on_c, 0, 75, 0
2, 181620, Note_on_c, 0, 69, 110
2, 181632, Note_on_c, 0, 63, 0
2, 181668, Note_on_c, 0, 69, 0
2, 181680, Note_on_c, 0, 62, 110
2, 181680, Note_on_c, 0, 69, 110
2, 181776, Note_on_c, 0, 62, 0
2, 181800, Note_on_c, 0, 60, 110
2, 181824, Note_on_c, 0, 69, 0
2, 181860, Note_on_c, 0, 67, 110
2, 181896, Note_on_c, 0, 60, 0
2, 181908, Note_on_c, 0, 67, 0
2, 181920, Note_on_c, 0, 59, 110
2, 181920, Note_on_c, 0, 67, 110
2, 181968, Note_on_c, 0, 67, 0
2, 181980, Note_on_c, 0, 71, 110
2, 182016, Note_on_c, 0, 59, 0
2, 182028, Note_on_c, 0, 71, 0
2, 182040, Note_on_c, 0, 60, 110
2, 182040, Note_on_c, 0, 69, 110
2, 182088, Note_on_c, 0, 69, 0
2, 182100, Note_on_c, 0, 72, 110
2, 182136, Note_on_c, 0, 60, 0
2, 182148, Note_on_c, 0, 72, 0
2, 182160, Note_on_c, 0, 62, 110
2, 182160, Note_on_c, 0, 71, 110
2, 182208, Note_on_c, 0, 71, 0
2, 182220, Note_on_c, 0, 74, 110
2, 182268, Note_on_c, 0, 74, 0
2, 182280, Note_on_c, 0, 72, 110
2, 182328, Note_on_c, 0, 72, 0
2, 182340, Note_on_c, 0, 75, 110
2, 182388, Note_on_c, 0, 75, 0
2, 182400, Note_on_c, 0, 74, 110
2, 182448, Note_on_c, 0, 74, 0
2, 182460, Note_on_c, 0, 77, 110
2, 182496, Note_on_c, 0, 62, 0
2, 182508, Note_on_c, 0, 77, 0
2, 182520, Note_on_c, 0, 67, 110
2, 182520, Note_on_c, 0, 75, 110
2, 182568, Note_on_c, 0, 75, 0
2, 182580, Note_on_c, 0, 74, 110
2, 182616, Note_on_c, 0, 67, 0
2, 182628, Note_on_c, 0, 74, 0
2, 182640, Note_on_c, 0, 75, 110
2, 182640, Note_on_c, 0, 67, 110
2, 182832, Note_on_c, 0, 67, 0
2, 182832, Note_on_c, 0, 75, 0
2, 182880, Note_on_c, 0, 72, 110
2, 183168, Note_on_c, 0, 72, 0
2, 183240, Note_on_c, 0, 72, 110
2, 183240, Note_on_c, 0, 76, 110
2, 183336, Note_on_c, 0, 76, 0
2, 183336, Note_on_c, 0, 72, 0
2, 183360, Note_on_c, 0, 77, 110
2, 183360, Note_on_c, 0, 72, 110
2, 183408, Note_on_c, 0, 77, 0
2, 183420, Note_on_c, 0, 80, 110
2, 183468, Note_on_c, 0, 80, 0
2, 183480, Note_on_c, 0, 79, 110
2, 183528, Note_on_c, 0, 79, 0
2, 183540, Note_on_c, 0, 82, 110
2, 183552, Note_on_c, 0, 72, 0
2, 183588, Note_on_c, 0, 82, 0
2, 183600, Note_on_c, 0, 80, 110
2, 183696, Note_on_c, 0, 80, 0
2, 183720, Note_on_c, 0, 82, 110
2, 183768, Note_on_c, 0, 82, 0
2, 183780, Note_on_c, 0, 80, 110
2, 183804, Note_on_c, 0, 80, 0
2, 183810, Note_on_c, 0, 82, 110
2, 183834, Note_on_c, 0, 82, 0
2, 183840, Note_on_c, 0, 84, 110
2, 183888, Note_on_c, 0, 84, 0
2, 183900, Note_on_c, 0, 80, 110
2, 183900, Note_on_c, 0, 72, 110
2, 183948, Note_on_c, 0, 72, 0
2, 183948, Note_on_c, 0, 80, 0
2, 183960, Note_on_c, 0, 70, 110
2, 183960, Note_on_c, 0, 79, 110
2, 184008, Note_on_c, 0, 79, 0
2, 184008, Note_on_c, 0, 70, 0
2, 184020, Note_on_c, 0, 68, 110
2, 184020, Note_on_c, 0, 77, 110
2, 184068, Note_on_c, 0, 77, 0
2, 184068, Note_on_c, 0, 68, 0
2, 184080, Note_on_c, 0, 67, 110
2, 184080, Note_on_c, 0, 76, 110
2, 184128, Note_on_c, 0, 76, 0
2, 184140, Note_on_c, 0, 79, 110
2, 184176, Note_on_c, 0, 67, 0
2, 184188, Note_on_c, 0, 79, 0
2, 184200, Note_on_c, 0, 77, 110
2, 184200, Note_on_c, 0, 68, 110
2, 184248, Note_on_c, 0, 77, 0
2, 184260, Note_on_c, 0, 80, 110
2, 184296, Note_on_c, 0, 68, 0
2, 184308, Note_on_c, 0, 80, 0
2, 184320, Note_on_c, 0, 79, 110
2, 184320, Note_on_c, 0, 64, 110
2, 184368, Note_on_c, 0, 79, 0
2, 184380, Note_on_c, 0, 82, 110
2, 184416, Note_on_c, 0, 64, 0
2, 184428, Note_on_c, 0, 82, 0
2, 184440, Note_on_c, 0, 64, 110
2, 184440, Note_on_c, 0, 80, 110
2, 184488, Note_on_c, 0, 80, 0
2, 184500, Note_on_c, 0, 79, 110
2, 184536, Note_on_c, 0, 64, 0
2, 184548, Note_on_c, 0, 79, 0
2, 184560, Note_on_c, 0, 80, 110
2, 184560, Note_on_c, 0, 65, 110
2, 184656, Note_on_c, 0, 65, 0
2, 184680, Note_on_c, 0, 65, 110
2, 184776, Note_on_c, 0, 65, 0
2, 184920, Note_on_c, 0, 73, 110
2, 184992, Note_on_c, 0, 80, 0
2, 185016, Note_on_c, 0, 73, 0
2, 185040, Note_on_c, 0, 67, 110
2, 185040, Note_on_c, 0, 79, 110
2, 185136, Note_on_c, 0, 67, 0
2, 185160, Note_on_c, 0, 67, 110
2, 185232, Note_on_c, 0, 79, 0
2, 185256, Note_on_c, 0, 67, 0
2, 185280, Note_on_c, 0, 69, 110
2, 185280, Note_on_c, 0, 78, 110
2, 185376, Note_on_c, 0, 69, 0
2, 185400, Note_on_c, 0, 69, 110
2, 185472, Note_on_c, 0, 78, 0
2, 185496, Note_on_c, 0, 69, 0
2, 185520, Note_on_c, 0, 77, 110
2, 185640, Note_on_c, 0, 70, 110
2, 185736, Note_on_c, 0, 70, 0
2, 185760, Note_on_c, 0, 65, 110
2, 185856, Note_on_c, 0, 65, 0
2, 185880, Note_on_c, 0, 65, 110
2, 185976, Note_on_c, 0, 65, 0
2, 186000, Note_on_c, 0, 67, 110
2, 186096, Note_on_c, 0, 67, 0
2, 186120, Note_on_c, 0, 67, 110
2, 186216, Note_on_c, 0, 67, 0
2, 186240, Note_on_c, 0, 68, 110
2, 186288, Note_on_c, 0, 77, 0
2, 186300, Note_on_c, 0, 77, 110
2, 186336, Note_on_c, 0, 68, 0
2, 186348, Note_on_c, 0, 77, 0
2, 186360, Note_on_c, 0, 79, 110
2, 186360, Note_on_c, 0, 70, 110
2, 186408, Note_on_c, 0, 70, 0
2, 186408, Note_on_c, 0, 79, 0
2, 186420, Note_on_c, 0, 68, 110
2, 186420, Note_on_c, 0, 77, 110
2, 186468, Note_on_c, 0, 77, 0
2, 186468, Note_on_c, 0, 68, 0
2, 186480, Note_on_c, 0, 67, 110
2, 186480, Note_on_c, 0, 76, 110
2, 186576, Note_on_c, 0, 76, 0
2, 186600, Note_on_c, 0, 77, 110
2, 186696, Note_on_c, 0, 77, 0
2, 186720, Note_on_c, 0, 79, 110
2, 186768, Note_on_c, 0, 67, 0
2, 186840, Note_on_c, 0, 67, 110
2, 186936, Note_on_c, 0, 67, 0
2, 186960, Note_on_c, 0, 72, 110
2, 187008, Note_on_c, 0, 79, 0
2, 187020, Note_on_c, 0, 79, 110
2, 187068, Note_on_c, 0, 79, 0
2, 187080, Note_on_c, 0, 80, 110
2, 187128, Note_on_c, 0, 80, 0
2, 187140, Note_on_c, 0, 79, 110
2, 187188, Note_on_c, 0, 79, 0
2, 187200, Note_on_c, 0, 77, 110
2, 187248, Note_on_c, 0, 72, 0
2, 187296, Note_on_c, 0, 77, 0
2, 187320, Note_on_c, 0, 79, 110
2, 187320, Note_on_c, 0, 73, 110
2, 187416, Note_on_c, 0, 73, 0
2, 187416, Note_on_c, 0, 79, 0
2, 187440, Note_on_c, 0, 80, 110
2, 187440, Note_on_c, 0, 64, 110
2, 187632, Note_on_c, 0, 64, 0
2, 187680, Note_on_c, 0, 65, 110
2, 187728, Note_on_c, 0, 80, 0
2, 187740, Note_on_c, 0, 80, 110
2, 187776, Note_on_c, 0, 65, 0
2, 187788, Note_on_c, 0, 80, 0
2, 187800, Note_on_c, 0, 82, 110
2, 187800, Note_on_c, 0, 70, 110
2, 187848, Note_on_c, 0, 82, 0
2, 187860, Note_on_c, 0, 80, 110
2, 187908, Note_on_c, 0, 80, 0
2, 187920, Note_on_c, 0, 79, 110
2, 187968, Note_on_c, 0, 79, 0
2, 187980, Note_on_c, 0, 82, 110
2, 188016, Note_on_c, 0, 70, 0
2, 188028, Note_on_c, 0, 82, 0
2, 188040, Note_on_c, 0, 80, 110
2, 188040, Note_on_c, 0, 72, 110
2, 188088, Note_on_c, 0, 80, 0
2, 188100, Note_on_c, 0, 84, 110
2, 188136, Note_on_c, 0, 72, 0
2, 188148, Note_on_c, 0, 84, 0
2, 188160, Note_on_c, 0, 73, 110
2, 188160, Note_on_c, 0, 82, 110
2, 188448, Note_on_c, 0, 82, 0
2, 188460, Note_on_c, 0, 84, 110
2, 188496, Note_on_c, 0, 73, 0
2, 188508, Note_on_c, 0, 84, 0
2, 188520, Note_on_c, 0, 79, 110
2, 188520, Note_on_c, 0, 70, 110
2, 188568, Note_on_c, 0, 79, 0
2, 188580, Note_on_c, 0, 82, 110
2, 188616, Note_on_c, 0, 70, 0
2, 188628, Note_on_c, 0, 82, 0
2, 188640, Note_on_c, 0, 72, 110
2, 188640, Note_on_c, 0, 80, 110
2, 188928, Note_on_c, 0, 80, 0
2, 188940, Note_on_c, 0, 84, 110
2, 188988, Note_on_c, 0, 84, 0
2, 189000, Note_on_c, 0, 80, 110
2, 189048, Note_on_c, 0, 80, 0
2, 189060, Note_on_c, 0, 84, 110
2, 189108, Note_on_c, 0, 84, 0
2, 189120, Note_on_c, 0, 78, 110
2, 189168, Note_on_c, 0, 72, 0
2, 189180, Note_on_c, 0, 74, 110
2, 189228, Note_on_c, 0, 74, 0
2, 189240, Note_on_c, 0, 70, 110
2, 189288, Note_on_c, 0, 70, 0
2, 189300, Note_on_c, 0, 72, 110
2, 189348, Note_on_c, 0, 72, 0
2, 189360, Note_on_c, 0, 69, 110
2, 189408, Note_on_c, 0, 69, 0
2, 189420, Note_on_c, 0, 72, 110
2, 189468, Note_on_c, 0, 72, 0
2, 189480, Note_on_c, 0, 70, 110
2, 189504, Note_on_c, 0, 78, 0
2, 189528, Note_on_c, 0, 70, 0
2, 189540, Note_on_c, 0, 69, 110
2, 189588, Note_on_c, 0, 69, 0
2, 189600, Note_on_c, 0, 67, 110
2, 189660, Note_on_c, 0, 79, 110
2, 189708, Note_on_c, 0, 79, 0
2, 189720, Note_on_c, 0, 77, 110
2, 189768, Note_on_c, 0, 77, 0
2, 189780, Note_on_c, 0, 79, 110
2, 189792, Note_on_c, 0, 67, 0
2, 189828, Note_on_c, 0, 79, 0
2, 189840, Note_on_c, 0, 75, 110
2, 189900, Note_on_c, 0, 69, 110
2, 189948, Note_on_c, 0, 69, 0
2, 189960, Note_on_c, 0, 67, 110
2, 190008, Note_on_c, 0, 67, 0
2, 190020, Note_on_c, 0, 69, 110
2, 190032, Note_on_c, 0, 75, 0
2, 190068, Note_on_c, 0, 69, 0
2, 190080, Note_on_c, 0, 66, 110
2, 190140, Note_on_c, 0, 74, 110
2, 190188, Note_on_c, 0, 74, 0
2, 190200, Note_on_c, 0, 72, 110
2, 190248, Note_on_c, 0, 72, 0
2, 190260, Note_on_c, 0, 74, 110
2, 190272, Note_on_c, 0, 66, 0
2, 190308, Note_on_c, 0, 74, 0
2, 190320, Note_on_c, 0, 70, 110
2, 190380, Note_on_c, 0, 67, 110
2, 190428, Note_on_c, 0, 67, 0
2, 190440, Note_on_c, 0, 65, 110
2, 190488, Note_on_c, 0, 65, 0
2, 190500, Note_on_c, 0, 67, 110
2, 190512, Note_on_c, 0, 70, 0
2, 190548, Note_on_c, 0, 67, 0
2, 190560, Note_on_c, 0, 63, 110
2, 190620, Note_on_c, 0, 69, 110
2, 190668, Note_on_c, 0, 69, 0
2, 190680, Note_on_c, 0, 67, 110
2, 190728, Note_on_c, 0, 67, 0
2, 190740, Note_on_c, 0, 69, 110
2, 190752, Note_on_c, 0, 63, 0
2, 190788, Note_on_c, 0, 69, 0
2, 190800, Note_on_c, 0, 66, 110
2, 190860, Note_on_c, 0, 62, 110
2, 190908, Note_on_c, 0, 62, 0
2, 190920, Note_on_c, 0, 60, 110
2, 190968, Note_on_c, 0, 60, 0
2, 190980, Note_on_c, 0, 62, 110
2, 190992, Note_on_c, 0, 66, 0
2, 191028, Note_on_c, 0, 62, 0
2, 191040, Note_on_c, 0, 58, 110
2, 191100, Note_on_c, 0, 67, 110
2, 191148, Note_on_c, 0, 67, 0
2, 191160, Note_on_c, 0, 65, 110
2, 191208, Note_on_c, 0, 65, 0
2, 191220, Note_on_c, 0, 67, 110
2, 191232, Note_on_c, 0, 58, 0
2, 191268, Note_on_c, 0, 67, 0
2, 191280, Note_on_c, 0, 60, 110
2, 191280, Note_on_c, 0, 63, 110
2, 191472, Note_on_c, 0, 63, 0
2, 191472, Note_on_c, 0, 60, 0
2, 191520, Note_on_c, 0, 62, 110
2, 191580, Note_on_c, 0, 60, 110
2, 191628, Note_on_c, 0, 60, 0
2, 191640, Note_on_c, 0, 58, 110
2, 191688, Note_on_c, 0, 58, 0
2, 191700, Note_on_c, 0, 60, 110
2, 191712, Note_on_c, 0, 62, 0
2, 191748, Note_on_c, 0, 60, 0
2, 191760, Note_on_c, 0, 57, 110
2, 191820, Note_on_c, 0, 62, 110
2, 191868, Note_on_c, 0, 62, 0
2, 191880, Note_on_c, 0, 60, 110
2, 191928, Note_on_c, 0, 60, 0
2, 191940, Note_on_c, 0, 62, 110
2, 191952, Note_on_c, 0, 57, 0
2, 192000, Note_on_c, 0, 59, 110
2, 192048, Note_on_c, 0, 59, 0
2, 192060, Note_on_c, 0, 62, 110
2, 192096, Note_on_c, 0, 62, 0
2, 192108, Note_on_c, 0, 62, 0
2, 192120, Note_on_c, 0, 60, 110
2, 192168, Note_on_c, 0, 60, 0
2, 192180, Note_on_c, 0, 63, 110
2, 192228, Note_on_c, 0, 63, 0
2, 192240, Note_on_c, 0, 62, 110
2, 192288, Note_on_c, 0, 62, 0
2, 192300, Note_on_c, 0, 65, 110
2, 192348, Note_on_c, 0, 65, 0
2, 192360, Note_on_c, 0, 63, 110
2, 192408, Note_on_c, 0, 63, 0
2, 192420, Note_on_c, 0, 67, 110
2, 192468, Note_on_c, 0, 67, 0
2, 192480, Note_on_c, 0, 65, 110
2, 192528, Note_on_c, 0, 65, 0
2, 192540, Note_on_c, 0, 68, 110
2, 192588, Note_on_c, 0, 68, 0
2, 192600, Note_on_c, 0, 67, 110
2, 192648, Note_on_c, 0, 67, 0
2, 192660, Note_on_c, 0, 65, 110
2, 192708, Note_on_c, 0, 65, 0
2, 192720, Note_on_c, 0, 63, 110
2, 192768, Note_on_c, 0, 63, 0
2, 192780, Note_on_c, 0, 67, 110
2, 192828, Note_on_c, 0, 67, 0
2, 192840, Note_on_c, 0, 65, 110
2, 192888, Note_on_c, 0, 65, 0
2, 192900, Note_on_c, 0, 68, 110
2, 192948, Note_on_c, 0, 68, 0
2, 192960, Note_on_c, 0, 67, 110
2, 193008, Note_on_c, 0, 67, 0
2, 193020, Note_on_c, 0, 70, 110
2, 193068, Note_on_c, 0, 70, 0
2, 193080, Note_on_c, 0, 68, 110
2, 193128, Note_on_c, 0, 68, 0
2, 193140, Note_on_c, 0, 72, 110
2, 193188, Note_on_c, 0, 72, 0
2, 193200, Note_on_c, 0, 70, 110
2, 193248, Note_on_c, 0, 70, 0
2, 193260, Note_on_c, 0, 73, 110
2, 193308, Note_on_c, 0, 73, 0
2, 193320, Note_on_c, 0, 72, 110
2, 193368, Note_on_c, 0, 72, 0
2, 193380, Note_on_c, 0, 70, 110
2, 193428, Note_on_c, 0, 70, 0
2, 193440, Note_on_c, 0, 68, 110
2, 194736, Note_on_c, 0, 68, 0
2, 194880, Note_on_c, 0, 67, 110
2, 195168, Note_on_c, 0, 67, 0
2, 195180, Note_on_c, 0, 70, 110
2, 195228, Note_on_c, 0, 70, 0
2, 195240, Note_on_c, 0, 68, 110
2, 195288, Note_on_c, 0, 68, 0
2, 195300, Note_on_c, 0, 67, 110
2, 195348, Note_on_c, 0, 67, 0
2, 195360, Note_on_c, 0, 72, 110
2, 195360, Note_on_c, 0, 65, 110
2, 195552, Note_on_c, 0, 72, 0
2, 195600, Note_on_c, 0, 79, 110
2, 195696, Note_on_c, 0, 65, 0
2, 195720, Note_on_c, 0, 63, 110
2, 195816, Note_on_c, 0, 63, 0
2, 195840, Note_on_c, 0, 59, 110
2, 195936, Note_on_c, 0, 59, 0
2, 195960, Note_on_c, 0, 59, 110
2, 195984, Note_on_c, 0, 79, 0
2, 196056, Note_on_c, 0, 59, 0
2, 196080, Note_on_c, 0, 60, 110
2, 196080, Note_on_c, 0, 75, 110
2, 196176, Note_on_c, 0, 60, 0
2, 196200, Note_on_c, 0, 60, 110
2, 196272, Note_on_c, 0, 75, 0
2, 196296, Note_on_c, 0, 60, 0
2, 196320, Note_on_c, 0, 77, 110
2, 196440, Note_on_c, 0, 68, 110
2, 196536, Note_on_c, 0, 68, 0
2, 196560, Note_on_c, 0, 62, 110
2, 196656, Note_on_c, 0, 62, 0
2, 196680, Note_on_c, 0, 62, 110
2, 196704, Note_on_c, 0, 77, 0
2, 196776, Note_on_c, 0, 62, 0
2, 196800, Note_on_c, 0, 64, 110
2, 196800, Note_on_c, 0, 79, 110
2, 196896, Note_on_c, 0, 64, 0
2, 196920, Note_on_c, 0, 64, 110
2, 196992, Note_on_c, 0, 79, 0
2, 197016, Note_on_c, 0, 64, 0
2, 197040, Note_on_c, 0, 80, 110
2, 197160, Note_on_c, 0, 65, 110
2, 197256, Note_on_c, 0, 65, 0
2, 197280, Note_on_c, 0, 60, 110
2, 197376, Note_on_c, 0, 60, 0
2, 197400, Note_on_c, 0, 60, 110
2, 197424, Note_on_c, 0, 80, 0
2, 197496, Note_on_c, 0, 60, 0
2, 197520, Note_on_c, 0, 77, 110
2, 197520, Note_on_c, 0, 62, 110
2, 197616, Note_on_c, 0, 62, 0
2, 197640, Note_on_c, 0, 62, 110
2, 197712, Note_on_c, 0, 77, 0
2, 197736, Note_on_c, 0, 62, 0
2, 197760, Note_on_c, 0, 63, 110
2, 197760, Note_on_c, 0, 79, 110
2, 197904, Note_on_c, 0, 63, 0
2, 197940, Note_on_c, 0, 65, 110
2, 197988, Note_on_c, 0, 65, 0
2, 198000, Note_on_c, 0, 67, 110
2, 198096, Note_on_c, 0, 67, 0
2, 198120, Note_on_c, 0, 69, 110
2, 198168, Note_on_c, 0, 69, 0
2, 198180, Note_on_c, 0, 71, 110
2, 198228, Note_on_c, 0, 71, 0
2, 198240, Note_on_c, 0, 72, 110
2, 198288, Note_on_c, 0, 72, 0
2, 198300, Note_on_c, 0, 75, 110
2, 198348, Note_on_c, 0, 75, 0
2, 198360, Note_on_c, 0, 74, 110
2, 198408, Note_on_c, 0, 74, 0
2, 198420, Note_on_c, 0, 77, 110
2, 198468, Note_on_c, 0, 77, 0
2, 198480, Note_on_c, 0, 71, 110
2, 198672, Note_on_c, 0, 71, 0
2, 198720, Note_on_c, 0, 72, 110
2, 199008, Note_on_c, 0, 72, 0
2, 199080, Note_on_c, 0, 70, 110
2, 199176, Note_on_c, 0, 70, 0
2, 199200, Note_on_c, 0, 68, 110
2, 199392, Note_on_c, 0, 79, 0
2, 199440, Note_on_c, 0, 77, 110
2, 199776, Note_on_c, 0, 68, 0
2, 199920, Note_on_c, 0, 67, 110
2, 200112, Note_on_c, 0, 77, 0
2, 200160, Note_on_c, 0, 75, 110
2, 200496, Note_on_c, 0, 67, 0
2, 200640, Note_on_c, 0, 65, 110
2, 200832, Note_on_c, 0, 75, 0
2, 200880, Note_on_c, 0, 74, 110
2, 201216, Note_on_c, 0, 65, 0
2, 201360, Note_on_c, 0, 63, 110
2, 201552, Note_on_c, 0, 74, 0
2, 201600, Note_on_c, 0, 72, 110
2, 201648, Note_on_c, 0, 72, 0
2, 201660, Note_on_c, 0, 75, 110
2, 201708, Note_on_c, 0, 75, 0
2, 201720, Note_on_c, 0, 72, 110
2, 201744, Note_on_c, 0, 63, 0
2, 201768, Note_on_c, 0, 72, 0
2, 201780, Note_on_c, 0, 75, 110
2, 201828, Note_on_c, 0, 75, 0
2, 201840, Note_on_c, 0, 74, 110
2, 201840, Note_on_c, 0, 65, 110
2, 201888, Note_on_c, 0, 74, 0
2, 201900, Note_on_c, 0, 77, 110
2, 201948, Note_on_c, 0, 77, 0
2, 201960, Note_on_c, 0, 74, 110
2, 202008, Note_on_c, 0, 74, 0
2, 202020, Note_on_c, 0, 77, 110
2, 202068, Note_on_c, 0, 77, 0
2, 202080, Note_on_c, 0, 71, 110
2, 202128, Note_on_c, 0, 65, 0
2, 202140, Note_on_c, 0, 67, 110
2, 202188, Note_on_c, 0, 67, 0
2, 202200, Note_on_c, 0, 65, 110
2, 202248, Note_on_c, 0, 65, 0
2, 202260, Note_on_c, 0, 67, 110
2, 202272, Note_on_c, 0, 71, 0
2, 202308, Note_on_c, 0, 67, 0
2, 202320, Note_on_c, 0, 59, 110
2, 202380, Note_on_c, 0, 79, 110
2, 202416, Note_on_c, 0, 59, 0
2, 202428, Note_on_c, 0, 79, 0
2, 202440, Note_on_c, 0, 77, 110
2, 202440, Note_on_c, 0, 62, 110
2, 202488, Note_on_c, 0, 77, 0
2, 202500, Note_on_c, 0, 79, 110
2, 202536, Note_on_c, 0, 62, 0
2, 202548, Note_on_c, 0, 79, 0
2, 202560, Note_on_c, 0, 60, 110
2, 202560, Note_on_c, 0, 75, 110
2, 202608, Note_on_c, 0, 75, 0
2, 202620, Note_on_c, 0, 79, 110
2, 202656, Note_on_c, 0, 60, 0
2, 202668, Note_on_c, 0, 79, 0
2, 202680, Note_on_c, 0, 72, 110
2, 202680, Note_on_c, 0, 60, 110
2, 202728, Note_on_c, 0, 72, 0
2, 202740, Note_on_c, 0, 75, 110
2, 202776, Note_on_c, 0, 60, 0
2, 202788, Note_on_c, 0, 75, 0
2, 202800, Note_on_c, 0, 62, 110
2, 202800, Note_on_c, 0, 71, 110
2, 202848, Note_on_c, 0, 62, 0
2, 202860, Note_on_c, 0, 67, 110
2, 202908, Note_on_c, 0, 67, 0
2, 202920, Note_on_c, 0, 65, 110
2, 202968, Note_on_c, 0, 65, 0
2, 202980, Note_on_c, 0, 67, 110
2, 202992, Note_on_c, 0, 71, 0
2, 203028, Note_on_c, 0, 67, 0
2, 203040, Note_on_c, 0, 62, 110
2, 203153, Note_on_c, 0, 62, 0
2, 203160, Note_on_c, 0, 62, 110
2, 203160, Note_on_c, 0, 71, 110
2, 203256, Note_on_c, 0, 71, 0
2, 203273, Note_on_c, 0, 62, 0
2, 203280, Note_on_c, 0, 63, 110
2, 203280, Note_on_c, 0, 72, 110
2, 203376, Note_on_c, 0, 72, 0
2, 203393, Note_on_c, 0, 63, 0
2, 203400, Note_on_c, 0, 72, 110
2, 203400, Note_on_c, 0, 63, 110
2, 203496, Note_on_c, 0, 72, 0
2, 203513, Note_on_c, 0, 63, 0
2, 203520, Note_on_c, 0, 65, 110
2, 203520, Note_on_c, 0, 74, 110
2, 203568, Note_on_c, 0, 65, 0
2, 203580, Note_on_c, 0, 67, 110
2, 203628, Note_on_c, 0, 67, 0
2, 203640, Note_on_c, 0, 65, 110
2, 203688, Note_on_c, 0, 65, 0
2, 203700, Note_on_c, 0, 67, 110
2, 203712, Note_on_c, 0, 74, 0
2, 203748, Note_on_c, 0, 67, 0
2, 203760, Note_on_c, 0, 62, 110
2, 203856, Note_on_c, 0, 62, 0
2, 203880, Note_on_c, 0, 67, 110
2, 203880, Note_on_c, 0, 74, 110
2, 203976, Note_on_c, 0, 74, 0
2, 203976, Note_on_c, 0, 67, 0
2, 204000, Note_on_c, 0, 67, 110
2, 204000, Note_on_c, 0, 75, 110
2, 204096, Note_on_c, 0, 75, 0
2, 204096, Note_on_c, 0, 67, 0
2, 204120, Note_on_c, 0, 67, 110
2, 204120, Note_on_c, 0, 75, 110
2, 204216, Note_on_c, 0, 75, 0
2, 204216, Note_on_c, 0, 67, 0
2, 204240, Note_on_c, 0, 74, 110
2, 204240, Note_on_c, 0, 67, 110
2, 204288, Note_on_c, 0, 67, 0
2, 204300, Note_on_c, 0, 67, 110
2, 204348, Note_on_c, 0, 67, 0
2, 204360, Note_on_c, 0, 65, 110
2, 204408, Note_on_c, 0, 65, 0
2, 204420, Note_on_c, 0, 67, 110
2, 204432, Note_on_c, 0, 74, 0
2, 204468, Note_on_c, 0, 67, 0
2, 204480, Note_on_c, 0, 62, 110
2, 204576, Note_on_c, 0, 62, 0
2, 204600, Note_on_c, 0, 74, 110
2, 204600, Note_on_c, 0, 67, 110
2, 204696, Note_on_c, 0, 67, 0
2, 204696, Note_on_c, 0, 74, 0
2, 204720, Note_on_c, 0, 67, 110
2, 204720, Note_on_c, 0, 79, 110
2, 204816, Note_on_c, 0, 79, 0
2, 204816, Note_on_c, 0, 67, 0
2, 204840, Note_on_c, 0, 67, 110
2, 204840, Note_on_c, 0, 75, 110
2, 204936, Note_on_c, 0, 75, 0
2, 204936, Note_on_c, 0, 67, 0
2, 204960, Note_on_c, 0, 80, 110
2, 204960, Note_on_c, 0, 65, 110
2, 205056, Note_on_c, 0, 65, 0
2, 205056, Note_on_c, 0, 80, 0
2, 205320, Note_on_c, 0, 71, 110
2, 205320, Note_on_c, 0, 67, 110
2, 205416, Note_on_c, 0, 67, 0
2, 205416, Note_on_c, 0, 71, 0
2, 205440, Note_on_c, 0, 67, 110
2, 205440, Note_on_c, 0, 72, 110
2, 205488, Note_on_c, 0, 67, 0
2, 205500, Note_on_c, 0, 68, 110
2, 205548, Note_on_c, 0, 68, 0
2, 205560, Note_on_c, 0, 65, 110
2, 205608, Note_on_c, 0, 65, 0
2, 205620, Note_on_c, 0, 67, 110
2, 205668, Note_on_c, 0, 67, 0
2, 205680, Note_on_c, 0, 68, 110
2, 205728, Note_on_c, 0, 72, 0
2, 205740, Note_on_c, 0, 75, 110
2, 205788, Note_on_c, 0, 75, 0
2, 205800, Note_on_c, 0, 74, 110
2, 205848, Note_on_c, 0, 74, 0
2, 205860, Note_on_c, 0, 77, 110
2, 205872, Note_on_c, 0, 68, 0
2, 205908, Note_on_c, 0, 77, 0
2, 205920, Note_on_c, 0, 67, 110
2, 205920, Note_on_c, 0, 75, 110
2, 205968, Note_on_c, 0, 75, 0
2, 205980, Note_on_c, 0, 79, 110
2, 206028, Note_on_c, 0, 79, 0
2, 206040, Note_on_c, 0, 77, 110
2, 206088, Note_on_c, 0, 77, 0
2, 206100, Note_on_c, 0, 80, 110
2, 206148, Note_on_c, 0, 80, 0
2, 206160, Note_on_c, 0, 74, 110
2, 206208, Note_on_c, 0, 67, 0
2, 206280, Note_on_c, 0, 65, 110
2, 206304, Note_on_c, 0, 74, 0
2, 206340, Note_on_c, 0, 72, 110
2, 206376, Note_on_c, 0, 65, 0
2, 206388, Note_on_c, 0, 72, 0
2, 206400, Note_on_c, 0, 64, 110
2, 206400, Note_on_c, 0, 72, 110
2, 206448, Note_on_c, 0, 64, 0
2, 206460, Note_on_c, 0, 67, 110
2, 206508, Note_on_c, 0, 67, 0
2, 206520, Note_on_c, 0, 65, 110
2, 206568, Note_on_c, 0, 65, 0
2, 206580, Note_on_c, 0, 68, 110
2, 206592, Note_on_c, 0, 72, 0
2, 206628, Note_on_c, 0, 68, 0
2, 206640, Note_on_c, 0, 67, 110
2, 206700, Note_on_c, 0, 84, 110
2, 206736, Note_on_c, 0, 67, 0
2, 206748, Note_on_c, 0, 84, 0
2, 206760, Note_on_c, 0, 82, 110
2, 206760, Note_on_c, 0, 72, 110
2, 206808, Note_on_c, 0, 82, 0
2, 206820, Note_on_c, 0, 84, 110
2, 206856, Note_on_c, 0, 72, 0
2, 206868, Note_on_c, 0, 84, 0
2, 206880, Note_on_c, 0, 80, 110
2, 206880, Note_on_c, 0, 72, 110
2, 206928, Note_on_c, 0, 80, 0
2, 206940, Note_on_c, 0, 84, 110
2, 206976, Note_on_c, 0, 72, 0
2, 206988, Note_on_c, 0, 84, 0
2, 207000, Note_on_c, 0, 77, 110
2, 207000, Note_on_c, 0, 72, 110
2, 207048, Note_on_c, 0, 77, 0
2, 207060, Note_on_c, 0, 80, 110
2, 207108, Note_on_c, 0, 80, 0
2, 207113, Note_on_c, 0, 72, 0
2, 207120, Note_on_c, 0, 72, 110
2, 207120, Note_on_c, 0, 76, 110
2, 207168, Note_on_c, 0, 72, 0
2, 207180, Note_on_c, 0, 72, 110
2, 207228, Note_on_c, 0, 72, 0
2, 207240, Note_on_c, 0, 70, 110
2, 207288, Note_on_c, 0, 70, 0
2, 207300, Note_on_c, 0, 72, 110
2, 207312, Note_on_c, 0, 76, 0
2, 207348, Note_on_c, 0, 72, 0
2, 207360, Note_on_c, 0, 67, 110
2, 207473, Note_on_c, 0, 67, 0
2, 207480, Note_on_c, 0, 76, 110
2, 207480, Note_on_c, 0, 68, 110
2, 207576, Note_on_c, 0, 76, 0
2, 207593, Note_on_c, 0, 68, 0
2, 207600, Note_on_c, 0, 68, 110
2, 207600, Note_on_c, 0, 77, 110
2, 207696, Note_on_c, 0, 77, 0
2, 207713, Note_on_c, 0, 68, 0
2, 207720, Note_on_c, 0, 68, 110
2, 207720, Note_on_c, 0, 77, 110
2, 207816, Note_on_c, 0, 77, 0
2, 207833, Note_on_c, 0, 68, 0
2, 207840, Note_on_c, 0, 79, 110
2, 207840, Note_on_c, 0, 70, 110
2, 207888, Note_on_c, 0, 70, 0
2, 207900, Note_on_c, 0, 72, 110
2, 207948, Note_on_c, 0, 72, 0
2, 207960, Note_on_c, 0, 70, 110
2, 208008, Note_on_c, 0, 70, 0
2, 208020, Note_on_c, 0, 72, 110
2, 208032, Note_on_c, 0, 79, 0
2, 208068, Note_on_c, 0, 72, 0
2, 208080, Note_on_c, 0, 67, 110
2, 208176, Note_on_c, 0, 67, 0
2, 208200, Note_on_c, 0, 79, 110
2, 208200, Note_on_c, 0, 72, 110
2, 208296, Note_on_c, 0, 72, 0
2, 208296, Note_on_c, 0, 79, 0
2, 208320, Note_on_c, 0, 72, 110
2, 208320, Note_on_c, 0, 80, 110
2, 208416, Note_on_c, 0, 80, 0
2, 208416, Note_on_c, 0, 72, 0
2, 208440, Note_on_c, 0, 80, 110
2, 208440, Note_on_c, 0, 72, 110
2, 208536, Note_on_c, 0, 72, 0
2, 208536, Note_on_c, 0, 80, 0
2, 208560, Note_on_c, 0, 72, 110
2, 208560, Note_on_c, 0, 79, 110
2, 208608, Note_on_c, 0, 79, 0
2, 208608, Note_on_c, 0, 72, 0
2, 208620, Note_on_c, 0, 73, 110
2, 208620, Note_on_c, 0, 82, 110
2, 208668, Note_on_c, 0, 82, 0
2, 208668, Note_on_c, 0, 73, 0
2, 208680, Note_on_c, 0, 80, 110
2, 208680, Note_on_c, 0, 72, 110
2, 208728, Note_on_c, 0, 72, 0
2, 208728, Note_on_c, 0, 80, 0
2, 208740, Note_on_c, 0, 82, 110
2, 208740, Note_on_c, 0, 73, 110
2, 208788, Note_on_c, 0, 73, 0
2, 208788, Note_on_c, 0, 82, 0
2, 208800, Note_on_c, 0, 70, 110
2, 208800, Note_on_c, 0, 79, 110
2, 209088, Note_on_c, 0, 79, 0
2, 209088, Note_on_c, 0, 70, 0
2, 209160, Note_on_c, 0, 77, 110
2, 209160, Note_on_c, 0, 68, 110
2, 209256, Note_on_c, 0, 68, 0
2, 209280, Note_on_c, 0, 68, 110
2, 209328, Note_on_c, 0, 68, 0
2, 209328, Note_on_c, 0, 77, 0
2, 209340, Note_on_c, 0, 68, 110
2, 209340, Note_on_c, 0, 77, 110
2, 209388, Note_on_c, 0, 77, 0
2, 209388, Note_on_c, 0, 68, 0
2, 209400, Note_on_c, 0, 67, 110
2, 209400, Note_on_c, 0, 76, 110
2, 209448, Note_on_c, 0, 76, 0
2, 209448, Note_on_c, 0, 67, 0
2, 209460, Note_on_c, 0, 68, 110
2, 209460, Note_on_c, 0, 77, 110
2, 209508, Note_on_c, 0, 77, 0
2, 209508, Note_on_c, 0, 68, 0
2, 209520, Note_on_c, 0, 71, 110
2, 209520, Note_on_c, 0, 62, 110
2, 209568, Note_on_c, 0, 62, 0
2, 209580, Note_on_c, 0, 65, 110
2, 209628, Note_on_c, 0, 65, 0
2, 209640, Note_on_c, 0, 64, 110
2, 209688, Note_on_c, 0, 64, 0
2, 209700, Note_on_c, 0, 65, 110
2, 209748, Note_on_c, 0, 65, 0
2, 209760, Note_on_c, 0, 62, 110
2, 209808, Note_on_c, 0, 62, 0
2, 209808, Note_on_c, 0, 71, 0
2, 209820, Note_on_c, 0, 65, 110
2, 209820, Note_on_c, 0, 74, 110
2, 209868, Note_on_c, 0, 74, 0
2, 209868, Note_on_c, 0, 65, 0
2, 209880, Note_on_c, 0, 62, 110
2, 209880, Note_on_c, 0, 71, 110
2, 209928, Note_on_c, 0, 71, 0
2, 209928, Note_on_c, 0, 62, 0
2, 209940, Note_on_c, 0, 74, 110
2, 209940, Note_on_c, 0, 65, 110
2, 209988, Note_on_c, 0, 65, 0
2, 209988, Note_on_c, 0, 74, 0
2, 210000, Note_on_c, 0, 72, 110
2, 210000, Note_on_c, 0, 64, 110
2, 210576, Note_on_c, 0, 64, 0
2, 210576, Note_on_c, 0, 72, 0
2, 210576, End_track
3, 0, Start_track
3, 0, MIDI_port, 0
3, 0, Title_t, "BWV 582"
3, 0, Program_c, 0, 19
3, 0, Control_c, 0, 7, 127
3, 0, Control_c, 0, 10, 64
3, 5880, Note_on_c, 0, 63, 84
3, 6096, Note_on_c, 0, 63, 0
3, 6120, Note_on_c, 0, 62, 84
3, 6432, Note_on_c, 0, 62, 0
3, 6600, Note_on_c, 0, 67, 84
3, 6816, Note_on_c, 0, 67, 0
3, 6840, Note_on_c, 0, 65, 84
3, 7152, Note_on_c, 0, 65, 0
3, 7320, Note_on_c, 0, 59, 84
3, 7632, Note_on_c, 0, 59, 0
3, 7680, Note_on_c, 0, 60, 84
3, 7872, Note_on_c, 0, 60, 0
3, 8040, Note_on_c, 0, 63, 84
3, 8256, Note_on_c, 0, 63, 0
3, 8280, Note_on_c, 0, 62, 84
3, 8592, Note_on_c, 0, 62, 0
3, 8760, Note_on_c, 0, 65, 84
3, 8976, Note_on_c, 0, 65, 0
3, 9000, Note_on_c, 0, 63, 84
3, 9312, Note_on_c, 0, 63, 0
3, 9480, Note_on_c, 0, 62, 84
3, 9696, Note_on_c, 0, 62, 0
3, 9720, Note_on_c, 0, 60, 84
3, 10032, Note_on_c, 0, 60, 0
3, 10200, Note_on_c, 0, 60, 84
3, 10704, Note_on_c, 0, 60, 0
3, 10740, Note_on_c, 0, 62, 84
3, 10788, Note_on_c, 0, 62, 0
3, 10800, Note_on_c, 0, 59, 84
3, 10992, Note_on_c, 0, 59, 0
3, 11040, Note_on_c, 0, 60, 96
3, 11136, Note_on_c, 0, 60, 0
3, 11160, Note_on_c, 0, 55, 96
3, 11472, Note_on_c, 0, 55, 0
3, 11640, Note_on_c, 0, 63, 96
3, 11856, Note_on_c, 0, 63, 0
3, 11880, Note_on_c, 0, 62, 96
3, 12192, Note_on_c, 0, 62, 0
3, 12360, Note_on_c, 0, 61, 96
3, 12576, Note_on_c, 0, 61, 0
3, 12600, Note_on_c, 0, 60, 96
3, 12912, Note_on_c, 0, 60, 0
3, 13080, Note_on_c, 0, 59, 96
3, 13296, Note_on_c, 0, 59, 0
3, 13320, Note_on_c, 0, 60, 96
3, 13632, Note_on_c, 0, 60, 0
3, 13800, Note_on_c, 0, 60, 96
3, 14064, Note_on_c, 0, 60, 0
3, 14100, Note_on_c, 0, 62, 96
3, 14148, Note_on_c, 0, 62, 0
3, 14160, Note_on_c, 0, 59, 96
3, 14352, Note_on_c, 0, 59, 0
3, 14520, Note_on_c, 0, 56, 96
3, 14736, Note_on_c, 0, 56, 0
3, 14760, Note_on_c, 0, 55, 96
3, 15072, Note_on_c, 0, 55, 0
3, 15240, Note_on_c, 0, 53, 96
3, 15552, Note_on_c, 0, 53, 0
3, 15600, Note_on_c, 0, 51, 96
3, 15792, Note_on_c, 0, 51, 0
3, 15960, Note_on_c, 0, 51, 96
3, 16176, Note_on_c, 0, 51, 0
3, 16200, Note_on_c, 0, 50, 96
3, 16416, Note_on_c, 0, 50, 0
3, 16440, Note_on_c, 0, 53, 96
3, 16536, Note_on_c, 0, 53, 0
3, 16560, Note_on_c, 0, 51, 96
3, 16704, Note_on_c, 0, 51, 0
3, 16740, Note_on_c, 0, 50, 96
3, 16788, Note_on_c, 0, 50, 0
3, 16800, Note_on_c, 0, 48, 96
3, 16992, Note_on_c, 0, 48, 0
3, 17160, Note_on_c, 0, 55, 96
3, 17256, Note_on_c, 0, 55, 0
3, 17280, Note_on_c, 0, 60, 96
3, 17376, Note_on_c, 0, 60, 0
3, 17400, Note_on_c, 0, 62, 96
3, 17496, Note_on_c, 0, 62, 0
3, 17520, Note_on_c, 0, 59, 96
3, 17808, Note_on_c, 0, 59, 0
3, 17880, Note_on_c, 0, 60, 96
3, 17976, Note_on_c, 0, 60, 0
3, 18000, Note_on_c, 0, 61, 96
3, 18096, Note_on_c, 0, 61, 0
3, 18120, Note_on_c, 0, 63, 96
3, 18216, Note_on_c, 0, 63, 0
3, 18240, Note_on_c, 0, 60, 96
3, 18336, Note_on_c, 0, 60, 0
3, 18360, Note_on_c, 0, 65, 96
3, 18456, Note_on_c, 0, 65, 0
3, 18480, Note_on_c, 0, 62, 96
3, 18576, Note_on_c, 0, 62, 0
3, 18600, Note_on_c, 0, 60, 96
3, 18696, Note_on_c, 0, 60, 0
3, 18720, Note_on_c, 0, 59, 96
3, 18912, Note_on_c, 0, 59, 0
3, 18960, Note_on_c, 0, 60, 96
3, 19056, Note_on_c, 0, 60, 0
3, 19080, Note_on_c, 0, 58, 96
3, 19176, Note_on_c, 0, 58, 0
3, 19200, Note_on_c, 0, 56, 96
3, 19296, Note_on_c, 0, 56, 0
3, 19320, Note_on_c, 0, 60, 96
3, 19416, Note_on_c, 0, 60, 0
3, 19440, Note_on_c, 0, 65, 96
3, 19536, Note_on_c, 0, 65, 0
3, 19560, Note_on_c, 0, 63, 96
3, 19656, Note_on_c, 0, 63, 0
3, 19680, Note_on_c, 0, 62, 96
3, 19968, Note_on_c, 0, 62, 0
3, 20040, Note_on_c, 0, 63, 96
3, 20136, Note_on_c, 0, 63, 0
3, 20160, Note_on_c, 0, 65, 96
3, 20352, Note_on_c, 0, 65, 0
3, 20400, Note_on_c, 0, 63, 96
3, 20496, Note_on_c, 0, 63, 0
3, 20520, Note_on_c, 0, 65, 96
3, 20633, Note_on_c, 0, 65, 0
3, 20640, Note_on_c, 0, 67, 96
3, 20832, Note_on_c, 0, 67, 0
3, 20880, Note_on_c, 0, 62, 96
3, 21072, Note_on_c, 0, 62, 0
3, 21240, Note_on_c, 0, 56, 96
3, 21336, Note_on_c, 0, 56, 0
3, 21360, Note_on_c, 0, 55, 96
3, 21456, Note_on_c, 0, 55, 0
3, 21480, Note_on_c, 0, 53, 96
3, 21576, Note_on_c, 0, 53, 0
3, 21600, Note_on_c, 0, 51, 96
3, 21696, Note_on_c, 0, 51, 0
3, 21720, Note_on_c, 0, 50, 96
3, 21816, Note_on_c, 0, 50, 0
3, 21840, Note_on_c, 0, 51, 96
3, 21936, Note_on_c, 0, 51, 0
3, 21960, Note_on_c, 0, 53, 96
3, 22056, Note_on_c, 0, 53, 0
3, 22080, Note_on_c, 0, 55, 96
3, 22176, Note_on_c, 0, 55, 0
3, 22200, Note_on_c, 0, 56, 96
3, 22296, Note_on_c, 0, 56, 0
3, 22320, Note_on_c, 0, 55, 96
3, 22656, Note_on_c, 0, 55, 0
3, 22680, Note_on_c, 0, 48, 96
3, 22728, Note_on_c, 0, 48, 0
3, 22740, Note_on_c, 0, 50, 96
3, 22788, Note_on_c, 0, 50, 0
3, 22800, Note_on_c, 0, 51, 96
3, 22896, Note_on_c, 0, 51, 0
3, 22920, Note_on_c, 0, 51, 96
3, 22968, Note_on_c, 0, 51, 0
3, 22980, Note_on_c, 0, 53, 96
3, 23028, Note_on_c, 0, 53, 0
3, 23040, Note_on_c, 0, 55, 96
3, 23136, Note_on_c, 0, 55, 0
3, 23160, Note_on_c, 0, 60, 96
3, 23256, Note_on_c, 0, 60, 0
3, 23280, Note_on_c, 0, 62, 96
3, 23376, Note_on_c, 0, 62, 0
3, 23400, Note_on_c, 0, 55, 96
3, 23448, Note_on_c, 0, 55, 0
3, 23460, Note_on_c, 0, 57, 96
3, 23508, Note_on_c, 0, 57, 0
3, 23520, Note_on_c, 0, 59, 96
3, 23616, Note_on_c, 0, 59, 0
3, 23640, Note_on_c, 0, 57, 96
3, 23688, Note_on_c, 0, 57, 0
3, 23700, Note_on_c, 0, 59, 96
3, 23748, Note_on_c, 0, 59, 0
3, 23760, Note_on_c, 0, 60, 96
3, 24096, Note_on_c, 0, 60, 0
3, 24120, Note_on_c, 0, 62, 96
3, 24168, Note_on_c, 0, 62, 0
3, 24180, Note_on_c, 0, 63, 96
3, 24228, Note_on_c, 0, 63, 0
3, 24240, Note_on_c, 0, 65, 96
3, 24336, Note_on_c, 0, 65, 0
3, 24360, Note_on_c, 0, 65, 96
3, 24408, Note_on_c, 0, 65, 0
3, 24420, Note_on_c, 0, 63, 96
3, 24468, Note_on_c, 0, 63, 0
3, 24480, Note_on_c, 0, 62, 96
3, 24672, Note_on_c, 0, 62, 0
3, 24720, Note_on_c, 0, 60, 96
3, 24912, Note_on_c, 0, 60, 0
3, 25320, Note_on_c, 0, 65, 96
3, 25368, Note_on_c, 0, 65, 0
3, 25380, Note_on_c, 0, 63, 96
3, 25428, Note_on_c, 0, 63, 0
3, 25440, Note_on_c, 0, 62, 96
3, 25536, Note_on_c, 0, 62, 0
3, 25560, Note_on_c, 0, 59, 96
3, 25608, Note_on_c, 0, 59, 0
3, 25620, Note_on_c, 0, 60, 96
3, 25668, Note_on_c, 0, 60, 0
3, 25680, Note_on_c, 0, 62, 96
3, 25776, Note_on_c, 0, 62, 0
3, 25800, Note_on_c, 0, 62, 96
3, 25848, Note_on_c, 0, 62, 0
3, 25860, Note_on_c, 0, 63, 96
3, 25908, Note_on_c, 0, 63, 0
3, 25920, Note_on_c, 0, 65, 96
3, 26112, Note_on_c, 0, 65, 0
3, 26160, Note_on_c, 0, 67, 96
3, 26352, Note_on_c, 0, 67, 0
3, 26520, Note_on_c, 0, 67, 96
3, 26568, Note_on_c, 0, 67, 0
3, 26580, Note_on_c, 0, 65, 96
3, 26628, Note_on_c, 0, 65, 0
3, 26640, Note_on_c, 0, 67, 96
3, 26736, Note_on_c, 0, 67, 0
3, 26760, Note_on_c, 0, 55, 96
3, 26856, Note_on_c, 0, 55, 0
3, 26880, Note_on_c, 0, 60, 96
3, 26976, Note_on_c, 0, 60, 0
3, 27000, Note_on_c, 0, 63, 96
3, 27048, Note_on_c, 0, 63, 0
3, 27060, Note_on_c, 0, 62, 96
3, 27108, Note_on_c, 0, 62, 0
3, 27120, Note_on_c, 0, 63, 96
3, 27216, Note_on_c, 0, 63, 0
3, 27240, Note_on_c, 0, 60, 96
3, 27288, Note_on_c, 0, 60, 0
3, 27300, Note_on_c, 0, 59, 96
3, 27348, Note_on_c, 0, 59, 0
3, 27360, Note_on_c, 0, 60, 96
3, 27456, Note_on_c, 0, 60, 0
3, 27480, Note_on_c, 0, 51, 96
3, 27528, Note_on_c, 0, 51, 0
3, 27540, Note_on_c, 0, 50, 96
3, 27588, Note_on_c, 0, 50, 0
3, 27600, Note_on_c, 0, 51, 96
3, 27792, Note_on_c, 0, 51, 0
3, 27960, Note_on_c, 0, 55, 96
3, 28008, Note_on_c, 0, 55, 0
3, 28020, Note_on_c, 0, 53, 96
3, 28068, Note_on_c, 0, 53, 0
3, 28080, Note_on_c, 0, 55, 96
3, 28176, Note_on_c, 0, 55, 0
3, 28200, Note_on_c, 0, 50, 96
3, 28296, Note_on_c, 0, 50, 0
3, 28320, Note_on_c, 0, 51, 84
3, 28512, Note_on_c, 0, 51, 0
3, 28680, Note_on_c, 0, 67, 84
3, 28728, Note_on_c, 0, 67, 0
3, 28740, Note_on_c, 0, 55, 84
3, 28788, Note_on_c, 0, 55, 0
3, 28800, Note_on_c, 0, 60, 84
3, 28992, Note_on_c, 0, 60, 0
3, 29040, Note_on_c, 0, 59, 84
3, 29232, Note_on_c, 0, 59, 0
3, 29400, Note_on_c, 0, 59, 84
3, 29448, Note_on_c, 0, 59, 0
3, 29460, Note_on_c, 0, 55, 84
3, 29508, Note_on_c, 0, 55, 0
3, 29520, Note_on_c, 0, 60, 84
3, 29952, Note_on_c, 0, 60, 0
3, 30120, Note_on_c, 0, 62, 84
3, 30168, Note_on_c, 0, 62, 0
3, 30180, Note_on_c, 0, 57, 84
3, 30228, Note_on_c, 0, 57, 0
3, 30240, Note_on_c, 0, 59, 84
3, 30432, Note_on_c, 0, 59, 0
3, 30480, Note_on_c, 0, 60, 84
3, 30672, Note_on_c, 0, 60, 0
3, 30840, Note_on_c, 0, 72, 84
3, 30888, Note_on_c, 0, 72, 0
3, 30900, Note_on_c, 0, 60, 84
3, 30948, Note_on_c, 0, 60, 0
3, 30960, Note_on_c, 0, 65, 84
3, 31152, Note_on_c, 0, 65, 0
3, 31200, Note_on_c, 0, 62, 84
3, 31392, Note_on_c, 0, 62, 0
3, 31560, Note_on_c, 0, 62, 84
3, 31608, Note_on_c, 0, 62, 0
3, 31620, Note_on_c, 0, 50, 84
3, 31668, Note_on_c, 0, 50, 0
3, 31680, Note_on_c, 0, 55, 84
3, 31776, Note_on_c, 0, 55, 0
3, 31800, Note_on_c, 0, 62, 84
3, 31896, Note_on_c, 0, 62, 0
3, 31920, Note_on_c, 0, 60, 84
3, 32112, Note_on_c, 0, 60, 0
3, 32280, Note_on_c, 0, 67, 84
3, 32328, Note_on_c, 0, 67, 0
3, 32340, Note_on_c, 0, 55, 84
3, 32388, Note_on_c, 0, 55, 0
3, 32400, Note_on_c, 0, 60, 84
3, 32496, Note_on_c, 0, 60, 0
3, 32520, Note_on_c, 0, 59, 84
3, 32568, Note_on_c, 0, 59, 0
3, 32580, Note_on_c, 0, 62, 84
3, 32628, Note_on_c, 0, 62, 0
3, 32640, Note_on_c, 0, 60, 84
3, 32832, Note_on_c, 0, 60, 0
3, 33000, Note_on_c, 0, 72, 84
3, 33048, Note_on_c, 0, 72, 0
3, 33060, Note_on_c, 0, 60, 84
3, 33108, Note_on_c, 0, 60, 0
3, 33120, Note_on_c, 0, 65, 84
3, 33264, Note_on_c, 0, 65, 0
3, 33300, Note_on_c, 0, 63, 84
3, 33348, Note_on_c, 0, 63, 0
3, 33360, Note_on_c, 0, 62, 96
3, 33552, Note_on_c, 0, 62, 0
3, 33960, Note_on_c, 0, 67, 96
3, 34008, Note_on_c, 0, 67, 0
3, 34020, Note_on_c, 0, 62, 96
3, 34068, Note_on_c, 0, 62, 0
3, 34080, Note_on_c, 0, 63, 96
3, 34128, Note_on_c, 0, 63, 0
3, 34140, Note_on_c, 0, 55, 96
3, 34188, Note_on_c, 0, 55, 0
3, 34200, Note_on_c, 0, 57, 96
3, 34248, Note_on_c, 0, 57, 0
3, 34260, Note_on_c, 0, 59, 96
3, 34308, Note_on_c, 0, 59, 0
3, 34320, Note_on_c, 0, 60, 96
3, 34464, Note_on_c, 0, 60, 0
3, 34500, Note_on_c, 0, 62, 96
3, 34548, Note_on_c, 0, 62, 0
3, 34560, Note_on_c, 0, 63, 96
3, 34752, Note_on_c, 0, 63, 0
3, 34860, Note_on_c, 0, 62, 96
3, 34908, Note_on_c, 0, 62, 0
3, 34920, Note_on_c, 0, 63, 96
3, 34968, Note_on_c, 0, 63, 0
3, 34980, Note_on_c, 0, 65, 96
3, 35028, Note_on_c, 0, 65, 0
3, 35040, Note_on_c, 0, 67, 96
3, 35424, Note_on_c, 0, 67, 0
3, 35580, Note_on_c, 0, 60, 96
3, 35628, Note_on_c, 0, 60, 0
3, 35640, Note_on_c, 0, 62, 96
3, 35688, Note_on_c, 0, 62, 0
3, 35700, Note_on_c, 0, 63, 96
3, 35748, Note_on_c, 0, 63, 0
3, 35760, Note_on_c, 0, 65, 96
3, 35904, Note_on_c, 0, 65, 0
3, 35940, Note_on_c, 0, 63, 96
3, 35988, Note_on_c, 0, 63, 0
3, 36000, Note_on_c, 0, 62, 96
3, 36096, Note_on_c, 0, 62, 0
3, 36120, Note_on_c, 0, 65, 96
3, 36216, Note_on_c, 0, 65, 0
3, 36240, Note_on_c, 0, 63, 96
3, 36288, Note_on_c, 0, 63, 0
3, 36300, Note_on_c, 0, 60, 96
3, 36348, Note_on_c, 0, 60, 0
3, 36360, Note_on_c, 0, 62, 96
3, 36408, Note_on_c, 0, 62, 0
3, 36420, Note_on_c, 0, 63, 96
3, 36468, Note_on_c, 0, 63, 0
3, 36480, Note_on_c, 0, 65, 96
3, 36624, Note_on_c, 0, 65, 0
3, 36660, Note_on_c, 0, 67, 96
3, 36708, Note_on_c, 0, 67, 0
3, 36720, Note_on_c, 0, 68, 96
3, 36816, Note_on_c, 0, 68, 0
3, 36840, Note_on_c, 0, 65, 96
3, 36936, Note_on_c, 0, 65, 0
3, 36960, Note_on_c, 0, 62, 96
3, 37008, Note_on_c, 0, 62, 0
3, 37020, Note_on_c, 0, 50, 96
3, 37068, Note_on_c, 0, 50, 0
3, 37080, Note_on_c, 0, 51, 96
3, 37128, Note_on_c, 0, 51, 0
3, 37140, Note_on_c, 0, 53, 96
3, 37188, Note_on_c, 0, 53, 0
3, 37200, Note_on_c, 0, 55, 96
3, 37344, Note_on_c, 0, 55, 0
3, 37380, Note_on_c, 0, 57, 96
3, 37428, Note_on_c, 0, 57, 0
3, 37440, Note_on_c, 0, 59, 96
3, 37632, Note_on_c, 0, 59, 0
3, 37740, Note_on_c, 0, 55, 96
3, 37788, Note_on_c, 0, 55, 0
3, 37800, Note_on_c, 0, 57, 96
3, 37848, Note_on_c, 0, 57, 0
3, 37860, Note_on_c, 0, 59, 96
3, 37908, Note_on_c, 0, 59, 0
3, 37920, Note_on_c, 0, 60, 96
3, 38112, Note_on_c, 0, 60, 0
3, 38160, Note_on_c, 0, 62, 96
3, 38352, Note_on_c, 0, 62, 0
3, 38460, Note_on_c, 0, 55, 96
3, 38508, Note_on_c, 0, 55, 0
3, 38520, Note_on_c, 0, 57, 96
3, 38568, Note_on_c, 0, 57, 0
3, 38580, Note_on_c, 0, 59, 96
3, 38628, Note_on_c, 0, 59, 0
3, 38640, Note_on_c, 0, 60, 96
3, 39408, Note_on_c, 0, 60, 0
3, 39420, Note_on_c, 0, 60, 96
3, 39468, Note_on_c, 0, 60, 0
3, 39480, Note_on_c, 0, 59, 96
3, 39528, Note_on_c, 0, 59, 0
3, 39540, Note_on_c, 0, 57, 96
3, 39588, Note_on_c, 0, 57, 0
3, 39600, Note_on_c, 0, 59, 96
3, 39792, Note_on_c, 0, 59, 0
3, 39840, Note_on_c, 0, 60, 96
3, 40032, Note_on_c, 0, 60, 0
3, 40380, Note_on_c, 0, 55, 96
3, 40428, Note_on_c, 0, 55, 0
3, 40440, Note_on_c, 0, 53, 96
3, 40488, Note_on_c, 0, 53, 0
3, 40500, Note_on_c, 0, 51, 96
3, 40548, Note_on_c, 0, 51, 0
3, 40560, Note_on_c, 0, 50, 110
3, 40752, Note_on_c, 0, 50, 0
3, 41100, Note_on_c, 0, 65, 110
3, 41148, Note_on_c, 0, 65, 0
3, 41160, Note_on_c, 0, 63, 110
3, 41208, Note_on_c, 0, 63, 0
3, 41220, Note_on_c, 0, 62, 110
3, 41268, Note_on_c, 0, 62, 0
3, 41280, Note_on_c, 0, 60, 110
3, 41472, Note_on_c, 0, 60, 0
3, 41580, Note_on_c, 0, 67, 110
3, 41628, Note_on_c, 0, 67, 0
3, 41640, Note_on_c, 0, 65, 110
3, 41688, Note_on_c, 0, 65, 0
3, 41700, Note_on_c, 0, 63, 110
3, 41748, Note_on_c, 0, 63, 0
3, 41760, Note_on_c, 0, 62, 110
3, 41808, Note_on_c, 0, 62, 0
3, 41820, Note_on_c, 0, 65, 110
3, 41868, Note_on_c, 0, 65, 0
3, 41880, Note_on_c, 0, 63, 110
3, 41928, Note_on_c, 0, 63, 0
3, 41940, Note_on_c, 0, 62, 110
3, 41988, Note_on_c, 0, 62, 0
3, 42000, Note_on_c, 0, 60, 110
3, 42192, Note_on_c, 0, 60, 0
3, 42300, Note_on_c, 0, 67, 110
3, 42348, Note_on_c, 0, 67, 0
3, 42360, Note_on_c, 0, 65, 110
3, 42408, Note_on_c, 0, 65, 0
3, 42420, Note_on_c, 0, 63, 110
3, 42468, Note_on_c, 0, 63, 0
3, 42480, Note_on_c, 0, 62, 110
3, 42528, Note_on_c, 0, 62, 0
3, 42540, Note_on_c, 0, 63, 110
3, 42588, Note_on_c, 0, 63, 0
3, 42600, Note_on_c, 0, 62, 110
3, 42648, Note_on_c, 0, 62, 0
3, 42660, Note_on_c, 0, 60, 110
3, 42708, Note_on_c, 0, 60, 0
3, 42720, Note_on_c, 0, 59, 110
3, 42912, Note_on_c, 0, 59, 0
3, 43260, Note_on_c, 0, 68, 110
3, 43308, Note_on_c, 0, 68, 0
3, 43320, Note_on_c, 0, 67, 110
3, 43368, Note_on_c, 0, 67, 0
3, 43380, Note_on_c, 0, 65, 110
3, 43428, Note_on_c, 0, 65, 0
3, 43440, Note_on_c, 0, 67, 110
3, 43632, Note_on_c, 0, 67, 0
3, 43920, Note_on_c, 0, 62, 110
3, 43968, Note_on_c, 0, 62, 0
3, 43980, Note_on_c, 0, 60, 110
3, 44028, Note_on_c, 0, 60, 0
3, 44040, Note_on_c, 0, 59, 110
3, 44088, Note_on_c, 0, 59, 0
3, 44100, Note_on_c, 0, 57, 110
3, 44148, Note_on_c, 0, 57, 0
3, 44160, Note_on_c, 0, 55, 110
3, 44352, Note_on_c, 0, 55, 0
3, 44700, Note_on_c, 0, 63, 110
3, 44748, Note_on_c, 0, 63, 0
3, 44760, Note_on_c, 0, 62, 110
3, 44808, Note_on_c, 0, 62, 0
3, 44820, Note_on_c, 0, 60, 110
3, 44868, Note_on_c, 0, 60, 0
3, 44880, Note_on_c, 0, 59, 110
3, 45072, Note_on_c, 0, 59, 0
3, 45420, Note_on_c, 0, 56, 110
3, 45468, Note_on_c, 0, 56, 0
3, 45480, Note_on_c, 0, 55, 110
3, 45528, Note_on_c, 0, 55, 0
3, 45540, Note_on_c, 0, 53, 110
3, 45588, Note_on_c, 0, 53, 0
3, 45600, Note_on_c, 0, 51, 110
3, 45648, Note_on_c, 0, 51, 0
3, 45660, Note_on_c, 0, 48, 110
3, 45708, Note_on_c, 0, 48, 0
3, 45720, Note_on_c, 0, 46, 110
3, 45768, Note_on_c, 0, 46, 0
3, 45780, Note_on_c, 0, 44, 110
3, 45828, Note_on_c, 0, 44, 0
3, 45840, Note_on_c, 0, 43, 110
3, 45888, Note_on_c, 0, 43, 0
3, 45900, Note_on_c, 0, 41, 110
3, 45948, Note_on_c, 0, 41, 0
3, 45960, Note_on_c, 0, 39, 110
3, 46008, Note_on_c, 0, 39, 0
3, 46020, Note_on_c, 0, 38, 110
3, 46068, Note_on_c, 0, 38, 0
3, 46080, Note_on_c, 0, 36, 110
3, 46128, Note_on_c, 0, 36, 0
3, 46140, Note_on_c, 0, 63, 110
3, 46188, Note_on_c, 0, 63, 0
3, 46200, Note_on_c, 0, 62, 110
3, 46248, Note_on_c, 0, 62, 0
3, 46260, Note_on_c, 0, 60, 110
3, 46308, Note_on_c, 0, 60, 0
3, 46320, Note_on_c, 0, 59, 110
3, 46608, Note_on_c, 0, 59, 0
3, 46620, Note_on_c, 0, 60, 110
3, 46668, Note_on_c, 0, 60, 0
3, 46680, Note_on_c, 0, 59, 110
3, 46728, Note_on_c, 0, 59, 0
3, 46740, Note_on_c, 0, 57, 110
3, 46788, Note_on_c, 0, 57, 0
3, 46800, Note_on_c, 0, 55, 110
3, 46848, Note_on_c, 0, 55, 0
3, 46860, Note_on_c, 0, 51, 110
3, 46908, Note_on_c, 0, 51, 0
3, 46920, Note_on_c, 0, 53, 110
3, 46968, Note_on_c, 0, 53, 0
3, 46980, Note_on_c, 0, 55, 110
3, 47028, Note_on_c, 0, 55, 0
3, 47040, Note_on_c, 0, 56, 110
3, 47184, Note_on_c, 0, 56, 0
3, 47220, Note_on_c, 0, 58, 110
3, 47268, Note_on_c, 0, 58, 0
3, 47280, Note_on_c, 0, 60, 110
3, 47472, Note_on_c, 0, 60, 0
3, 47580, Note_on_c, 0, 55, 110
3, 47628, Note_on_c, 0, 55, 0
3, 47640, Note_on_c, 0, 57, 110
3, 47688, Note_on_c, 0, 57, 0
3, 47700, Note_on_c, 0, 59, 110
3, 47748, Note_on_c, 0, 59, 0
3, 47760, Note_on_c, 0, 60, 110
3, 47808, Note_on_c, 0, 60, 0
3, 47820, Note_on_c, 0, 61, 110
3, 47868, Note_on_c, 0, 61, 0
3, 47880, Note_on_c, 0, 60, 110
3, 47928, Note_on_c, 0, 60, 0
3, 47940, Note_on_c, 0, 58, 110
3, 47988, Note_on_c, 0, 58, 0
3, 48000, Note_on_c, 0, 56, 110
3, 48048, Note_on_c, 0, 56, 0
3, 48060, Note_on_c, 0, 60, 110
3, 48108, Note_on_c, 0, 60, 0
3, 48120, Note_on_c, 0, 62, 110
3, 48168, Note_on_c, 0, 62, 0
3, 48180, Note_on_c, 0, 63, 110
3, 48228, Note_on_c, 0, 63, 0
3, 48240, Note_on_c, 0, 65, 110
3, 48288, Note_on_c, 0, 65, 0
3, 48300, Note_on_c, 0, 67, 110
3, 48348, Note_on_c, 0, 67, 0
3, 48360, Note_on_c, 0, 65, 110
3, 48408, Note_on_c, 0, 65, 0
3, 48420, Note_on_c, 0, 63, 110
3, 48468, Note_on_c, 0, 63, 0
3, 48480, Note_on_c, 0, 62, 110
3, 48768, Note_on_c, 0, 62, 0
3, 48780, Note_on_c, 0, 63, 110
3, 48828, Note_on_c, 0, 63, 0
3, 48840, Note_on_c, 0, 62, 110
3, 48888, Note_on_c, 0, 62, 0
3, 48900, Note_on_c, 0, 60, 110
3, 48948, Note_on_c, 0, 60, 0
3, 48960, Note_on_c, 0, 59, 110
3, 49008, Note_on_c, 0, 59, 0
3, 49020, Note_on_c, 0, 60, 110
3, 49068, Note_on_c, 0, 60, 0
3, 49080, Note_on_c, 0, 59, 110
3, 49128, Note_on_c, 0, 59, 0
3, 49140, Note_on_c, 0, 57, 110
3, 49188, Note_on_c, 0, 57, 0
3, 49200, Note_on_c, 0, 55, 110
3, 49392, Note_on_c, 0, 55, 0
3, 49500, Note_on_c, 0, 60, 110
3, 49548, Note_on_c, 0, 60, 0
3, 49560, Note_on_c, 0, 62, 110
3, 49608, Note_on_c, 0, 62, 0
3, 49620, Note_on_c, 0, 63, 110
3, 49668, Note_on_c, 0, 63, 0
3, 49680, Note_on_c, 0, 65, 110
3, 49728, Note_on_c, 0, 65, 0
3, 49740, Note_on_c, 0, 68, 110
3, 49788, Note_on_c, 0, 68, 0
3, 49800, Note_on_c, 0, 67, 110
3, 49848, Note_on_c, 0, 67, 0
3, 49860, Note_on_c, 0, 65, 110
3, 49908, Note_on_c, 0, 65, 0
3, 49920, Note_on_c, 0, 63, 110
3, 50112, Note_on_c, 0, 63, 0
3, 50220, Note_on_c, 0, 51, 110
3, 50268, Note_on_c, 0, 51, 0
3, 50280, Note_on_c, 0, 53, 110
3, 50328, Note_on_c, 0, 53, 0
3, 50340, Note_on_c, 0, 55, 110
3, 50388, Note_on_c, 0, 55, 0
3, 50400, Note_on_c, 0, 56, 110
3, 50592, Note_on_c, 0, 56, 0
3, 50640, Note_on_c, 0, 55, 110
3, 50736, Note_on_c, 0, 55, 0
3, 50760, Note_on_c, 0, 57, 110
3, 50808, Note_on_c, 0, 57, 0
3, 50820, Note_on_c, 0, 59, 110
3, 50868, Note_on_c, 0, 59, 0
3, 50880, Note_on_c, 0, 60, 110
3, 50928, Note_on_c, 0, 60, 0
3, 50940, Note_on_c, 0, 48, 110
3, 50988, Note_on_c, 0, 48, 0
3, 51000, Note_on_c, 0, 50, 110
3, 51048, Note_on_c, 0, 50, 0
3, 51060, Note_on_c, 0, 51, 110
3, 51108, Note_on_c, 0, 51, 0
3, 51120, Note_on_c, 0, 53, 110
3, 51168, Note_on_c, 0, 53, 0
3, 51180, Note_on_c, 0, 56, 110
3, 51228, Note_on_c, 0, 56, 0
3, 51240, Note_on_c, 0, 55, 110
3, 51288, Note_on_c, 0, 55, 0
3, 51300, Note_on_c, 0, 53, 110
3, 51348, Note_on_c, 0, 53, 0
3, 51360, Note_on_c, 0, 51, 96
3, 51456, Note_on_c, 0, 51, 0
3, 51480, Note_on_c, 0, 48, 96
3, 51576, Note_on_c, 0, 48, 0
3, 51660, Note_on_c, 0, 55, 96
3, 51708, Note_on_c, 0, 55, 0
3, 51720, Note_on_c, 0, 59, 96
3, 51768, Note_on_c, 0, 59, 0
3, 51780, Note_on_c, 0, 55, 96
3, 51828, Note_on_c, 0, 55, 0
3, 51840, Note_on_c, 0, 60, 96
3, 52032, Note_on_c, 0, 60, 0
3, 52080, Note_on_c, 0, 59, 96
3, 52272, Note_on_c, 0, 59, 0
3, 52380, Note_on_c, 0, 55, 96
3, 52428, Note_on_c, 0, 55, 0
3, 52440, Note_on_c, 0, 59, 96
3, 52488, Note_on_c, 0, 59, 0
3, 52500, Note_on_c, 0, 55, 96
3, 52548, Note_on_c, 0, 55, 0
3, 52560, Note_on_c, 0, 60, 96
3, 52752, Note_on_c, 0, 60, 0
3, 52860, Note_on_c, 0, 60, 96
3, 52908, Note_on_c, 0, 60, 0
3, 52920, Note_on_c, 0, 63, 96
3, 52968, Note_on_c, 0, 63, 0
3, 52980, Note_on_c, 0, 60, 96
3, 53028, Note_on_c, 0, 60, 0
3, 53040, Note_on_c, 0, 65, 96
3, 53424, Note_on_c, 0, 65, 0
3, 53820, Note_on_c, 0, 60, 96
3, 53868, Note_on_c, 0, 60, 0
3, 53880, Note_on_c, 0, 63, 96
3, 53928, Note_on_c, 0, 63, 0
3, 53940, Note_on_c, 0, 60, 96
3, 53988, Note_on_c, 0, 60, 0
3, 54000, Note_on_c, 0, 65, 96
3, 54192, Note_on_c, 0, 65, 0
3, 54240, Note_on_c, 0, 62, 96
3, 54288, Note_on_c, 0, 62, 0
3, 54300, Note_on_c, 0, 55, 96
3, 54348, Note_on_c, 0, 55, 0
3, 54360, Note_on_c, 0, 59, 96
3, 54408, Note_on_c, 0, 59, 0
3, 54420, Note_on_c, 0, 55, 96
3, 54468, Note_on_c, 0, 55, 0
3, 54480, Note_on_c, 0, 62, 96
3, 54528, Note_on_c, 0, 62, 0
3, 54540, Note_on_c, 0, 59, 96
3, 54588, Note_on_c, 0, 59, 0
3, 54600, Note_on_c, 0, 62, 96
3, 54648, Note_on_c, 0, 62, 0
3, 54660, Note_on_c, 0, 59, 96
3, 54708, Note_on_c, 0, 59, 0
3, 54720, Note_on_c, 0, 65, 96
3, 54912, Note_on_c, 0, 65, 0
3, 54960, Note_on_c, 0, 67, 96
3, 55008, Note_on_c, 0, 67, 0
3, 55020, Note_on_c, 0, 55, 96
3, 55068, Note_on_c, 0, 55, 0
3, 55080, Note_on_c, 0, 59, 96
3, 55128, Note_on_c, 0, 59, 0
3, 55140, Note_on_c, 0, 55, 96
3, 55188, Note_on_c, 0, 55, 0
3, 55200, Note_on_c, 0, 60, 96
3, 55392, Note_on_c, 0, 60, 0
3, 55740, Note_on_c, 0, 55, 110
3, 55788, Note_on_c, 0, 55, 0
3, 55800, Note_on_c, 0, 59, 110
3, 55848, Note_on_c, 0, 59, 0
3, 55860, Note_on_c, 0, 55, 110
3, 55908, Note_on_c, 0, 55, 0
3, 55920, Note_on_c, 0, 60, 110
3, 56112, Note_on_c, 0, 60, 0
3, 56460, Note_on_c, 0, 55, 120
3, 56508, Note_on_c, 0, 55, 0
3, 56520, Note_on_c, 0, 59, 120
3, 56568, Note_on_c, 0, 59, 0
3, 56580, Note_on_c, 0, 55, 120
3, 56628, Note_on_c, 0, 55, 0
3, 56640, Note_on_c, 0, 60, 120
3, 56832, Note_on_c, 0, 60, 0
3, 56880, Note_on_c, 0, 60, 120
3, 57024, Note_on_c, 0, 60, 0
3, 57060, Note_on_c, 0, 59, 120
3, 57108, Note_on_c, 0, 59, 0
3, 57120, Note_on_c, 0, 60, 120
3, 57312, Note_on_c, 0, 60, 0
3, 57600, Note_on_c, 0, 63, 120
3, 57792, Note_on_c, 0, 63, 0
3, 57840, Note_on_c, 0, 62, 120
3, 58032, Note_on_c, 0, 62, 0
3, 58320, Note_on_c, 0, 60, 120
3, 58512, Note_on_c, 0, 60, 0
3, 58560, Note_on_c, 0, 60, 120
3, 58752, Note_on_c, 0, 60, 0
3, 59040, Note_on_c, 0, 67, 120
3, 59232, Note_on_c, 0, 67, 0
3, 59280, Note_on_c, 0, 60, 120
3, 59472, Note_on_c, 0, 60, 0
3, 59760, Note_on_c, 0, 56, 120
3, 59952, Note_on_c, 0, 56, 0
3, 60000, Note_on_c, 0, 55, 120
3, 60192, Note_on_c, 0, 55, 0
3, 60480, Note_on_c, 0, 53, 120
3, 60672, Note_on_c, 0, 53, 0
3, 60720, Note_on_c, 0, 55, 120
3, 60912, Note_on_c, 0, 55, 0
3, 61200, Note_on_c, 0, 55, 120
3, 61392, Note_on_c, 0, 55, 0
3, 61440, Note_on_c, 0, 60, 120
3, 61632, Note_on_c, 0, 60, 0
3, 61920, Note_on_c, 0, 56, 120
3, 62112, Note_on_c, 0, 56, 0
3, 62160, Note_on_c, 0, 55, 120
3, 62352, Note_on_c, 0, 55, 0
3, 62640, Note_on_c, 0, 59, 120
3, 62832, Note_on_c, 0, 59, 0
3, 62880, Note_on_c, 0, 55, 120
3, 63072, Note_on_c, 0, 55, 0
3, 63360, Note_on_c, 0, 60, 120
3, 63408, Note_on_c, 0, 60, 0
3, 63420, Note_on_c, 0, 63, 120
3, 63468, Note_on_c, 0, 63, 0
3, 63480, Note_on_c, 0, 62, 120
3, 63528, Note_on_c, 0, 62, 0
3, 63540, Note_on_c, 0, 60, 120
3, 63588, Note_on_c, 0, 60, 0
3, 63600, Note_on_c, 0, 59, 120
3, 63648, Note_on_c, 0, 59, 0
3, 63660, Note_on_c, 0, 60, 110
3, 63708, Note_on_c, 0, 60, 0
3, 63720, Note_on_c, 0, 59, 110
3, 63768, Note_on_c, 0, 59, 0
3, 63780, Note_on_c, 0, 57, 110
3, 63828, Note_on_c, 0, 57, 0
3, 63840, Note_on_c, 0, 55, 110
3, 63888, Note_on_c, 0, 55, 0
3, 63900, Note_on_c, 0, 53, 110
3, 63948, Note_on_c, 0, 53, 0
3, 63960, Note_on_c, 0, 51, 110
3, 64008, Note_on_c, 0, 51, 0
3, 64020, Note_on_c, 0, 50, 110
3, 64068, Note_on_c, 0, 50, 0
3, 64080, Note_on_c, 0, 48, 110
3, 64128, Note_on_c, 0, 48, 0
3, 64140, Note_on_c, 0, 70, 110
3, 64188, Note_on_c, 0, 70, 0
3, 64200, Note_on_c, 0, 68, 110
3, 64248, Note_on_c, 0, 68, 0
3, 64260, Note_on_c, 0, 67, 110
3, 64308, Note_on_c, 0, 67, 0
3, 64320, Note_on_c, 0, 68, 110
3, 64368, Note_on_c, 0, 68, 0
3, 64380, Note_on_c, 0, 70, 110
3, 64428, Note_on_c, 0, 70, 0
3, 64440, Note_on_c, 0, 68, 110
3, 64488, Note_on_c, 0, 68, 0
3, 64500, Note_on_c, 0, 67, 110
3, 64548, Note_on_c, 0, 67, 0
3, 64560, Note_on_c, 0, 65, 110
3, 64608, Note_on_c, 0, 65, 0
3, 64620, Note_on_c, 0, 63, 110
3, 64668, Note_on_c, 0, 63, 0
3, 64680, Note_on_c, 0, 62, 110
3, 64728, Note_on_c, 0, 62, 0
3, 64740, Note_on_c, 0, 60, 110
3, 64788, Note_on_c, 0, 60, 0
3, 64800, Note_on_c, 0, 59, 110
3, 64848, Note_on_c, 0, 59, 0
3, 64860, Note_on_c, 0, 62, 110
3, 64908, Note_on_c, 0, 62, 0
3, 64920, Note_on_c, 0, 60, 110
3, 64968, Note_on_c, 0, 60, 0
3, 64980, Note_on_c, 0, 59, 110
3, 65028, Note_on_c, 0, 59, 0
3, 65040, Note_on_c, 0, 60, 110
3, 65088, Note_on_c, 0, 60, 0
3, 65100, Note_on_c, 0, 62, 110
3, 65148, Note_on_c, 0, 62, 0
3, 65160, Note_on_c, 0, 60, 110
3, 65208, Note_on_c, 0, 60, 0
3, 65220, Note_on_c, 0, 58, 110
3, 65268, Note_on_c, 0, 58, 0
3, 65280, Note_on_c, 0, 56, 110
3, 65328, Note_on_c, 0, 56, 0
3, 65340, Note_on_c, 0, 55, 110
3, 65388, Note_on_c, 0, 55, 0
3, 65400, Note_on_c, 0, 53, 110
3, 65448, Note_on_c, 0, 53, 0
3, 65460, Note_on_c, 0, 51, 110
3, 65508, Note_on_c, 0, 51, 0
3, 65520, Note_on_c, 0, 50, 110
3, 65568, Note_on_c, 0, 50, 0
3, 65580, Note_on_c, 0, 51, 110
3, 65628, Note_on_c, 0, 51, 0
3, 65640, Note_on_c, 0, 50, 110
3, 65688, Note_on_c, 0, 50, 0
3, 65700, Note_on_c, 0, 48, 110
3, 65748, Note_on_c, 0, 48, 0
3, 65760, Note_on_c, 0, 47, 110
3, 65808, Note_on_c, 0, 47, 0
3, 65820, Note_on_c, 0, 48, 110
3, 65868, Note_on_c, 0, 48, 0
3, 65880, Note_on_c, 0, 47, 110
3, 65928, Note_on_c, 0, 47, 0
3, 65940, Note_on_c, 0, 45, 110
3, 65988, Note_on_c, 0, 45, 0
3, 66000, Note_on_c, 0, 43, 110
3, 66048, Note_on_c, 0, 43, 0
3, 66060, Note_on_c, 0, 45, 110
3, 66108, Note_on_c, 0, 45, 0
3, 66120, Note_on_c, 0, 47, 110
3, 66168, Note_on_c, 0, 47, 0
3, 66180, Note_on_c, 0, 48, 110
3, 66228, Note_on_c, 0, 48, 0
3, 66240, Note_on_c, 0, 47, 110
3, 66288, Note_on_c, 0, 47, 0
3, 66300, Note_on_c, 0, 50, 110
3, 66348, Note_on_c, 0, 50, 0
3, 66360, Note_on_c, 0, 48, 110
3, 66408, Note_on_c, 0, 48, 0
3, 66420, Note_on_c, 0, 47, 110
3, 66468, Note_on_c, 0, 47, 0
3, 66480, Note_on_c, 0, 48, 110
3, 66528, Note_on_c, 0, 48, 0
3, 66540, Note_on_c, 0, 50, 110
3, 66588, Note_on_c, 0, 50, 0
3, 66600, Note_on_c, 0, 51, 110
3, 66648, Note_on_c, 0, 51, 0
3, 66660, Note_on_c, 0, 53, 110
3, 66708, Note_on_c, 0, 53, 0
3, 66720, Note_on_c, 0, 55, 110
3, 66768, Note_on_c, 0, 55, 0
3, 66780, Note_on_c, 0, 57, 110
3, 66828, Note_on_c, 0, 57, 0
3, 66840, Note_on_c, 0, 59, 110
3, 66888, Note_on_c, 0, 59, 0
3, 66900, Note_on_c, 0, 60, 110
3, 66948, Note_on_c, 0, 60, 0
3, 66960, Note_on_c, 0, 62, 110
3, 67008, Note_on_c, 0, 62, 0
3, 67020, Note_on_c, 0, 65, 110
3, 67068, Note_on_c, 0, 65, 0
3, 67080, Note_on_c, 0, 63, 110
3, 67128, Note_on_c, 0, 63, 0
3, 67140, Note_on_c, 0, 62, 110
3, 67188, Note_on_c, 0, 62, 0
3, 67200, Note_on_c, 0, 63, 110
3, 67248, Note_on_c, 0, 63, 0
3, 67260, Note_on_c, 0, 67, 110
3, 67308, Note_on_c, 0, 67, 0
3, 67320, Note_on_c, 0, 72, 110
3, 67368, Note_on_c, 0, 72, 0
3, 67380, Note_on_c, 0, 70, 110
3, 67428, Note_on_c, 0, 70, 0
3, 67440, Note_on_c, 0, 68, 110
3, 67488, Note_on_c, 0, 68, 0
3, 67500, Note_on_c, 0, 67, 110
3, 67548, Note_on_c, 0, 67, 0
3, 67560, Note_on_c, 0, 65, 110
3, 67608, Note_on_c, 0, 65, 0
3, 67620, Note_on_c, 0, 63, 110
3, 67668, Note_on_c, 0, 63, 0
3, 67680, Note_on_c, 0, 62, 110
3, 67728, Note_on_c, 0, 62, 0
3, 67740, Note_on_c, 0, 63, 110
3, 67788, Note_on_c, 0, 63, 0
3, 67800, Note_on_c, 0, 62, 110
3, 67848, Note_on_c, 0, 62, 0
3, 67860, Note_on_c, 0, 60, 110
3, 67908, Note_on_c, 0, 60, 0
3, 67920, Note_on_c, 0, 59, 110
3, 67968, Note_on_c, 0, 59, 0
3, 67980, Note_on_c, 0, 60, 110
3, 68028, Note_on_c, 0, 60, 0
3, 68040, Note_on_c, 0, 62, 110
3, 68088, Note_on_c, 0, 62, 0
3, 68100, Note_on_c, 0, 63, 110
3, 68148, Note_on_c, 0, 63, 0
3, 68160, Note_on_c, 0, 62, 110
3, 68208, Note_on_c, 0, 62, 0
3, 68220, Note_on_c, 0, 60, 110
3, 68268, Note_on_c, 0, 60, 0
3, 68280, Note_on_c, 0, 59, 110
3, 68328, Note_on_c, 0, 59, 0
3, 68340, Note_on_c, 0, 57, 110
3, 68388, Note_on_c, 0, 57, 0
3, 68400, Note_on_c, 0, 55, 110
3, 68448, Note_on_c, 0, 55, 0
3, 68460, Note_on_c, 0, 56, 110
3, 68508, Note_on_c, 0, 56, 0
3, 68520, Note_on_c, 0, 55, 110
3, 68568, Note_on_c, 0, 55, 0
3, 68580, Note_on_c, 0, 53, 110
3, 68628, Note_on_c, 0, 53, 0
3, 68640, Note_on_c, 0, 51, 120
3, 68688, Note_on_c, 0, 51, 0
3, 68700, Note_on_c, 0, 53, 120
3, 68748, Note_on_c, 0, 53, 0
3, 68760, Note_on_c, 0, 55, 120
3, 68808, Note_on_c, 0, 55, 0
3, 68820, Note_on_c, 0, 56, 120
3, 68868, Note_on_c, 0, 56, 0
3, 68880, Note_on_c, 0, 55, 120
3, 68928, Note_on_c, 0, 55, 0
3, 68940, Note_on_c, 0, 53, 120
3, 68988, Note_on_c, 0, 53, 0
3, 69000, Note_on_c, 0, 51, 120
3, 69048, Note_on_c, 0, 51, 0
3, 69060, Note_on_c, 0, 50, 120
3, 69108, Note_on_c, 0, 50, 0
3, 69120, Note_on_c, 0, 48, 120
3, 69168, Note_on_c, 0, 48, 0
3, 69180, Note_on_c, 0, 51, 120
3, 69228, Note_on_c, 0, 51, 0
3, 69240, Note_on_c, 0, 50, 120
3, 69288, Note_on_c, 0, 50, 0
3, 69300, Note_on_c, 0, 48, 120
3, 69348, Note_on_c, 0, 48, 0
3, 69360, Note_on_c, 0, 47, 120
3, 69456, Note_on_c, 0, 47, 0
3, 69480, Note_on_c, 0, 43, 120
3, 69576, Note_on_c, 0, 43, 0
3, 69720, Note_on_c, 0, 55, 120
3, 69816, Note_on_c, 0, 55, 0
3, 69840, Note_on_c, 0, 56, 120
3, 69936, Note_on_c, 0, 56, 0
3, 69960, Note_on_c, 0, 58, 120
3, 70056, Note_on_c, 0, 58, 0
3, 70080, Note_on_c, 0, 60, 120
3, 70464, Note_on_c, 0, 60, 0
3, 70560, Note_on_c, 0, 61, 120
3, 70656, Note_on_c, 0, 61, 0
3, 70680, Note_on_c, 0, 60, 120
3, 70848, Note_on_c, 0, 60, 0
3, 70860, Note_on_c, 0, 61, 120
3, 70908, Note_on_c, 0, 61, 0
3, 70920, Note_on_c, 0, 58, 120
3, 70968, Note_on_c, 0, 58, 0
3, 70980, Note_on_c, 0, 60, 120
3, 71028, Note_on_c, 0, 60, 0
3, 71040, Note_on_c, 0, 56, 120
3, 71136, Note_on_c, 0, 56, 0
3, 71160, Note_on_c, 0, 60, 120
3, 71256, Note_on_c, 0, 60, 0
3, 71280, Note_on_c, 0, 65, 120
3, 71328, Note_on_c, 0, 65, 0
3, 71340, Note_on_c, 0, 67, 120
3, 71388, Note_on_c, 0, 67, 0
3, 71400, Note_on_c, 0, 63, 120
3, 71448, Note_on_c, 0, 63, 0
3, 71460, Note_on_c, 0, 65, 120
3, 71508, Note_on_c, 0, 65, 0
3, 71520, Note_on_c, 0, 62, 120
3, 71808, Note_on_c, 0, 62, 0
3, 71820, Note_on_c, 0, 63, 120
3, 71868, Note_on_c, 0, 63, 0
3, 71880, Note_on_c, 0, 60, 120
3, 71928, Note_on_c, 0, 60, 0
3, 71940, Note_on_c, 0, 62, 120
3, 71988, Note_on_c, 0, 62, 0
3, 72000, Note_on_c, 0, 59, 120
3, 72048, Note_on_c, 0, 59, 0
3, 72060, Note_on_c, 0, 60, 120
3, 72108, Note_on_c, 0, 60, 0
3, 72120, Note_on_c, 0, 57, 120
3, 72168, Note_on_c, 0, 57, 0
3, 72180, Note_on_c, 0, 59, 120
3, 72228, Note_on_c, 0, 59, 0
3, 72240, Note_on_c, 0, 60, 120
3, 72288, Note_on_c, 0, 60, 0
3, 72300, Note_on_c, 0, 62, 120
3, 72348, Note_on_c, 0, 62, 0
3, 72360, Note_on_c, 0, 58, 120
3, 72408, Note_on_c, 0, 58, 0
3, 72420, Note_on_c, 0, 60, 120
3, 72468, Note_on_c, 0, 60, 0
3, 72480, Note_on_c, 0, 56, 120
3, 72528, Note_on_c, 0, 56, 0
3, 72540, Note_on_c, 0, 58, 120
3, 72588, Note_on_c, 0, 58, 0
3, 72600, Note_on_c, 0, 55, 120
3, 72648, Note_on_c, 0, 55, 0
3, 72660, Note_on_c, 0, 56, 120
3, 72708, Note_on_c, 0, 56, 0
3, 72720, Note_on_c, 0, 53, 120
3, 72768, Note_on_c, 0, 53, 0
3, 72780, Note_on_c, 0, 55, 120
3, 72828, Note_on_c, 0, 55, 0
3, 72840, Note_on_c, 0, 51, 120
3, 72888, Note_on_c, 0, 51, 0
3, 72900, Note_on_c, 0, 50, 120
3, 72948, Note_on_c, 0, 50, 0
3, 72960, Note_on_c, 0, 48, 120
3, 73056, Note_on_c, 0, 48, 0
3, 73320, Note_on_c, 0, 51, 120
3, 73416, Note_on_c, 0, 51, 0
3, 73440, Note_on_c, 0, 53, 120
3, 73488, Note_on_c, 0, 53, 0
3, 73500, Note_on_c, 0, 55, 120
3, 73548, Note_on_c, 0, 55, 0
3, 73560, Note_on_c, 0, 51, 120
3, 73608, Note_on_c, 0, 51, 0
3, 73620, Note_on_c, 0, 53, 120
3, 73668, Note_on_c, 0, 53, 0
3, 73680, Note_on_c, 0, 50, 120
3, 73728, Note_on_c, 0, 50, 0
3, 73740, Note_on_c, 0, 51, 120
3, 73788, Note_on_c, 0, 51, 0
3, 73800, Note_on_c, 0, 48, 120
3, 73848, Note_on_c, 0, 48, 0
3, 73860, Note_on_c, 0, 50, 120
3, 73908, Note_on_c, 0, 50, 0
3, 73920, Note_on_c, 0, 47, 120
3, 74016, Note_on_c, 0, 47, 0
3, 74040, Note_on_c, 0, 50, 120
3, 74136, Note_on_c, 0, 50, 0
3, 74160, Note_on_c, 0, 51, 120
3, 74256, Note_on_c, 0, 51, 0
3, 74280, Note_on_c, 0, 53, 120
3, 74376, Note_on_c, 0, 53, 0
3, 74400, Note_on_c, 0, 55, 120
3, 74448, Note_on_c, 0, 55, 0
3, 74460, Note_on_c, 0, 56, 120
3, 74508, Note_on_c, 0, 56, 0
3, 74520, Note_on_c, 0, 53, 120
3, 74568, Note_on_c, 0, 53, 0
3, 74580, Note_on_c, 0, 55, 120
3, 74628, Note_on_c, 0, 55, 0
3, 74640, Note_on_c, 0, 51, 120
3, 74688, Note_on_c, 0, 51, 0
3, 74700, Note_on_c, 0, 53, 120
3, 74748, Note_on_c, 0, 53, 0
3, 74760, Note_on_c, 0, 50, 120
3, 74808, Note_on_c, 0, 50, 0
3, 74820, Note_on_c, 0, 51, 120
3, 74868, Note_on_c, 0, 51, 0
3, 74880, Note_on_c, 0, 48, 120
3, 74976, Note_on_c, 0, 48, 0
3, 75120, Note_on_c, 0, 55, 120
3, 75168, Note_on_c, 0, 55, 0
3, 75180, Note_on_c, 0, 59, 110
3, 75228, Note_on_c, 0, 59, 0
3, 75240, Note_on_c, 0, 57, 110
3, 75288, Note_on_c, 0, 57, 0
3, 75300, Note_on_c, 0, 55, 110
3, 75348, Note_on_c, 0, 55, 0
3, 75360, Note_on_c, 0, 60, 110
3, 75648, Note_on_c, 0, 60, 0
3, 75660, Note_on_c, 0, 61, 110
3, 75708, Note_on_c, 0, 61, 0
3, 75720, Note_on_c, 0, 60, 110
3, 75768, Note_on_c, 0, 60, 0
3, 75780, Note_on_c, 0, 58, 110
3, 75828, Note_on_c, 0, 58, 0
3, 75840, Note_on_c, 0, 56, 110
3, 76128, Note_on_c, 0, 56, 0
3, 76200, Note_on_c, 0, 61, 110
3, 76296, Note_on_c, 0, 61, 0
3, 76320, Note_on_c, 0, 58, 110
3, 76416, Note_on_c, 0, 58, 0
3, 76440, Note_on_c, 0, 60, 110
3, 76536, Note_on_c, 0, 60, 0
3, 76560, Note_on_c, 0, 65, 110
3, 76752, Note_on_c, 0, 65, 0
3, 77040, Note_on_c, 0, 56, 110
3, 77232, Note_on_c, 0, 56, 0
3, 77280, Note_on_c, 0, 55, 110
3, 77328, Note_on_c, 0, 55, 0
3, 77340, Note_on_c, 0, 56, 110
3, 77388, Note_on_c, 0, 56, 0
3, 77400, Note_on_c, 0, 55, 110
3, 77448, Note_on_c, 0, 55, 0
3, 77460, Note_on_c, 0, 53, 110
3, 77508, Note_on_c, 0, 53, 0
3, 77520, Note_on_c, 0, 51, 110
3, 77616, Note_on_c, 0, 51, 0
3, 77640, Note_on_c, 0, 50, 110
3, 77688, Note_on_c, 0, 50, 0
3, 77700, Note_on_c, 0, 48, 110
3, 77748, Note_on_c, 0, 48, 0
3, 77760, Note_on_c, 0, 47, 110
3, 77952, Note_on_c, 0, 47, 0
3, 78000, Note_on_c, 0, 48, 110
3, 78048, Note_on_c, 0, 48, 0
3, 78060, Note_on_c, 0, 51, 110
3, 78108, Note_on_c, 0, 51, 0
3, 78120, Note_on_c, 0, 50, 110
3, 78168, Note_on_c, 0, 50, 0
3, 78180, Note_on_c, 0, 48, 110
3, 78228, Note_on_c, 0, 48, 0
3, 78240, Note_on_c, 0, 55, 110
3, 78528, Note_on_c, 0, 55, 0
3, 78600, Note_on_c, 0, 43, 110
3, 78696, Note_on_c, 0, 43, 0
3, 78720, Note_on_c, 0, 44, 110
3, 78720, Note_on_c, 0, 60, 110
3, 78768, Note_on_c, 0, 44, 0
3, 78780, Note_on_c, 0, 48, 110
3, 78828, Note_on_c, 0, 48, 0
3, 78840, Note_on_c, 0, 46, 110
3, 78888, Note_on_c, 0, 46, 0
3, 78900, Note_on_c, 0, 44, 110
3, 78948, Note_on_c, 0, 44, 0
3, 78960, Note_on_c, 0, 51, 110
3, 79008, Note_on_c, 0, 60, 0
3, 79020, Note_on_c, 0, 58, 110
3, 79056, Note_on_c, 0, 51, 0
3, 79068, Note_on_c, 0, 58, 0
3, 79080, Note_on_c, 0, 56, 110
3, 79080, Note_on_c, 0, 52, 110
3, 79128, Note_on_c, 0, 56, 0
3, 79140, Note_on_c, 0, 55, 110
3, 79176, Note_on_c, 0, 52, 0
3, 79188, Note_on_c, 0, 55, 0
3, 79200, Note_on_c, 0, 53, 110
3, 79200, Note_on_c, 0, 53, 110
3, 79248, Note_on_c, 0, 53, 0
3, 79260, Note_on_c, 0, 56, 110
3, 79308, Note_on_c, 0, 56, 0
3, 79320, Note_on_c, 0, 55, 110
3, 79368, Note_on_c, 0, 55, 0
3, 79380, Note_on_c, 0, 53, 110
3, 79428, Note_on_c, 0, 53, 0
3, 79440, Note_on_c, 0, 55, 110
3, 79488, Note_on_c, 0, 53, 0
3, 79500, Note_on_c, 0, 53, 110
3, 79548, Note_on_c, 0, 53, 0
3, 79560, Note_on_c, 0, 51, 110
3, 79608, Note_on_c, 0, 51, 0
3, 79620, Note_on_c, 0, 50, 110
3, 79668, Note_on_c, 0, 50, 0
3, 79680, Note_on_c, 0, 51, 110
3, 79728, Note_on_c, 0, 55, 0
3, 79740, Note_on_c, 0, 55, 110
3, 79788, Note_on_c, 0, 55, 0
3, 79800, Note_on_c, 0, 53, 110
3, 79848, Note_on_c, 0, 53, 0
3, 79860, Note_on_c, 0, 51, 110
3, 79872, Note_on_c, 0, 51, 0
3, 79908, Note_on_c, 0, 51, 0
3, 79920, Note_on_c, 0, 47, 110
3, 79920, Note_on_c, 0, 50, 110
3, 79968, Note_on_c, 0, 50, 0
3, 79980, Note_on_c, 0, 53, 110
3, 80028, Note_on_c, 0, 53, 0
3, 80040, Note_on_c, 0, 51, 110
3, 80088, Note_on_c, 0, 51, 0
3, 80100, Note_on_c, 0, 50, 110
3, 80112, Note_on_c, 0, 47, 0
3, 80148, Note_on_c, 0, 50, 0
3, 80160, Note_on_c, 0, 51, 110
3, 80160, Note_on_c, 0, 48, 110
3, 80448, Note_on_c, 0, 51, 0
3, 80460, Note_on_c, 0, 53, 96
3, 80508, Note_on_c, 0, 53, 0
3, 80520, Note_on_c, 0, 51, 96
3, 80568, Note_on_c, 0, 51, 0
3, 80580, Note_on_c, 0, 50, 96
3, 80628, Note_on_c, 0, 50, 0
3, 80736, Note_on_c, 0, 48, 0
3, 80760, Note_on_c, 0, 36, 96
3, 80856, Note_on_c, 0, 36, 0
3, 80940, Note_on_c, 0, 55, 96
3, 80988, Note_on_c, 0, 55, 0
3, 81000, Note_on_c, 0, 59, 96
3, 81048, Note_on_c, 0, 59, 0
3, 81060, Note_on_c, 0, 62, 96
3, 81108, Note_on_c, 0, 62, 0
3, 81120, Note_on_c, 0, 67, 96
3, 81168, Note_on_c, 0, 67, 0
3, 81360, Note_on_c, 0, 51, 96
3, 81408, Note_on_c, 0, 51, 0
3, 81420, Note_on_c, 0, 55, 96
3, 81468, Note_on_c, 0, 55, 0
3, 81480, Note_on_c, 0, 60, 96
3, 81528, Note_on_c, 0, 60, 0
3, 81540, Note_on_c, 0, 63, 96
3, 81588, Note_on_c, 0, 63, 0
3, 81660, Note_on_c, 0, 53, 96
3, 81708, Note_on_c, 0, 53, 0
3, 81720, Note_on_c, 0, 56, 96
3, 81768, Note_on_c, 0, 56, 0
3, 81780, Note_on_c, 0, 60, 96
3, 81828, Note_on_c, 0, 60, 0
3, 81840, Note_on_c, 0, 65, 96
3, 81888, Note_on_c, 0, 65, 0
3, 82080, Note_on_c, 0, 55, 96
3, 82128, Note_on_c, 0, 55, 0
3, 82140, Note_on_c, 0, 59, 96
3, 82188, Note_on_c, 0, 59, 0
3, 82200, Note_on_c, 0, 63, 96
3, 82248, Note_on_c, 0, 63, 0
3, 82260, Note_on_c, 0, 67, 96
3, 82308, Note_on_c, 0, 67, 0
3, 82380, Note_on_c, 0, 56, 96
3, 82428, Note_on_c, 0, 56, 0
3, 82440, Note_on_c, 0, 60, 96
3, 82488, Note_on_c, 0, 60, 0
3, 82500, Note_on_c, 0, 63, 96
3, 82548, Note_on_c, 0, 63, 0
3, 82560, Note_on_c, 0, 68, 96
3, 82608, Note_on_c, 0, 68, 0
3, 82800, Note_on_c, 0, 53, 96
3, 82848, Note_on_c, 0, 53, 0
3, 82860, Note_on_c, 0, 56, 96
3, 82908, Note_on_c, 0, 56, 0
3, 82920, Note_on_c, 0, 62, 96
3, 82968, Note_on_c, 0, 62, 0
3, 82980, Note_on_c, 0, 65, 96
3, 83028, Note_on_c, 0, 65, 0
3, 83100, Note_on_c, 0, 55, 96
3, 83148, Note_on_c, 0, 55, 0
3, 83160, Note_on_c, 0, 59, 96
3, 83208, Note_on_c, 0, 59, 0
3, 83220, Note_on_c, 0, 62, 96
3, 83268, Note_on_c, 0, 62, 0
3, 83280, Note_on_c, 0, 67, 96
3, 83328, Note_on_c, 0, 67, 0
3, 83520, Note_on_c, 0, 50, 96
3, 83568, Note_on_c, 0, 50, 0
3, 83580, Note_on_c, 0, 53, 96
3, 83628, Note_on_c, 0, 53, 0
3, 83640, Note_on_c, 0, 58, 96
3, 83688, Note_on_c, 0, 58, 0
3, 83700, Note_on_c, 0, 62, 96
3, 83748, Note_on_c, 0, 62, 0
3, 83820, Note_on_c, 0, 51, 96
3, 83868, Note_on_c, 0, 51, 0
3, 83880, Note_on_c, 0, 55, 96
3, 83928, Note_on_c, 0, 55, 0
3, 83940, Note_on_c, 0, 58, 96
3, 83988, Note_on_c, 0, 58, 0
3, 84000, Note_on_c, 0, 63, 96
3, 84048, Note_on_c, 0, 63, 0
3, 84240, Note_on_c, 0, 47, 96
3, 84288, Note_on_c, 0, 47, 0
3, 84300, Note_on_c, 0, 50, 96
3, 84348, Note_on_c, 0, 50, 0
3, 84360, Note_on_c, 0, 55, 96
3, 84408, Note_on_c, 0, 55, 0
3, 84420, Note_on_c, 0, 59, 96
3, 84468, Note_on_c, 0, 59, 0
3, 84540, Note_on_c, 0, 48, 96
3, 84588, Note_on_c, 0, 48, 0
3, 84600, Note_on_c, 0, 51, 96
3, 84648, Note_on_c, 0, 51, 0
3, 84660, Note_on_c, 0, 55, 96
3, 84708, Note_on_c, 0, 55, 0
3, 84720, Note_on_c, 0, 60, 96
3, 84768, Note_on_c, 0, 60, 0
3, 84960, Note_on_c, 0, 41, 96
3, 85008, Note_on_c, 0, 41, 0
3, 85020, Note_on_c, 0, 48, 96
3, 85068, Note_on_c, 0, 48, 0
3, 85080, Note_on_c, 0, 50, 96
3, 85128, Note_on_c, 0, 50, 0
3, 85140, Note_on_c, 0, 53, 96
3, 85188, Note_on_c, 0, 53, 0
3, 85260, Note_on_c, 0, 43, 84
3, 85308, Note_on_c, 0, 43, 0
3, 85320, Note_on_c, 0, 48, 84
3, 85368, Note_on_c, 0, 48, 0
3, 85380, Note_on_c, 0, 51, 84
3, 85428, Note_on_c, 0, 51, 0
3, 85440, Note_on_c, 0, 55, 84
3, 85488, Note_on_c, 0, 55, 0
3, 85680, Note_on_c, 0, 43, 84
3, 85728, Note_on_c, 0, 43, 0
3, 85740, Note_on_c, 0, 47, 84
3, 85788, Note_on_c, 0, 47, 0
3, 85800, Note_on_c, 0, 50, 84
3, 85848, Note_on_c, 0, 50, 0
3, 85860, Note_on_c, 0, 55, 84
3, 85908, Note_on_c, 0, 55, 0
3, 85920, Note_on_c, 0, 36, 84
3, 85968, Note_on_c, 0, 36, 0
3, 85980, Note_on_c, 0, 48, 84
3, 86028, Note_on_c, 0, 48, 0
3, 86040, Note_on_c, 0, 51, 84
3, 86088, Note_on_c, 0, 51, 0
3, 86100, Note_on_c, 0, 55, 84
3, 86148, Note_on_c, 0, 55, 0
3, 86640, Note_on_c, 0, 43, 84
3, 86688, Note_on_c, 0, 43, 0
3, 86700, Note_on_c, 0, 55, 84
3, 86748, Note_on_c, 0, 55, 0
3, 86760, Note_on_c, 0, 59, 84
3, 86808, Note_on_c, 0, 59, 0
3, 86820, Note_on_c, 0, 62, 84
3, 86868, Note_on_c, 0, 62, 0
3, 87360, Note_on_c, 0, 41, 84
3, 87408, Note_on_c, 0, 41, 0
3, 87420, Note_on_c, 0, 53, 84
3, 87468, Note_on_c, 0, 53, 0
3, 87480, Note_on_c, 0, 56, 84
3, 87528, Note_on_c, 0, 56, 0
3, 87540, Note_on_c, 0, 60, 84
3, 87588, Note_on_c, 0, 60, 0
3, 88080, Note_on_c, 0, 44, 84
3, 88128, Note_on_c, 0, 44, 0
3, 88140, Note_on_c, 0, 56, 84
3, 88188, Note_on_c, 0, 56, 0
3, 88200, Note_on_c, 0, 60, 84
3, 88248, Note_on_c, 0, 60, 0
3, 88260, Note_on_c, 0, 63, 84
3, 88308, Note_on_c, 0, 63, 0
3, 88800, Note_on_c, 0, 43, 84
3, 88848, Note_on_c, 0, 43, 0
3, 88860, Note_on_c, 0, 55, 84
3, 88908, Note_on_c, 0, 55, 0
3, 88920, Note_on_c, 0, 59, 84
3, 88968, Note_on_c, 0, 59, 0
3, 88980, Note_on_c, 0, 62, 84
3, 89028, Note_on_c, 0, 62, 0
3, 89520, Note_on_c, 0, 39, 84
3, 89568, Note_on_c, 0, 39, 0
3, 89580, Note_on_c, 0, 51, 84
3, 89628, Note_on_c, 0, 51, 0
3, 89640, Note_on_c, 0, 55, 84
3, 89688, Note_on_c, 0, 55, 0
3, 89700, Note_on_c, 0, 60, 84
3, 89748, Note_on_c, 0, 60, 0
3, 90240, Note_on_c, 0, 36, 84
3, 90288, Note_on_c, 0, 36, 0
3, 90300, Note_on_c, 0, 48, 84
3, 90348, Note_on_c, 0, 48, 0
3, 90360, Note_on_c, 0, 51, 84
3, 90408, Note_on_c, 0, 51, 0
3, 90420, Note_on_c, 0, 55, 84
3, 90468, Note_on_c, 0, 55, 0
3, 90960, Note_on_c, 0, 43, 84
3, 91008, Note_on_c, 0, 43, 0
3, 91020, Note_on_c, 0, 55, 84
3, 91068, Note_on_c, 0, 55, 0
3, 91080, Note_on_c, 0, 60, 84
3, 91128, Note_on_c, 0, 60, 0
3, 91140, Note_on_c, 0, 63, 84
3, 91188, Note_on_c, 0, 63, 0
3, 91680, Note_on_c, 0, 48, 84
3, 91728, Note_on_c, 0, 48, 0
3, 91740, Note_on_c, 0, 60, 110
3, 91788, Note_on_c, 0, 60, 0
3, 91800, Note_on_c, 0, 63, 110
3, 91848, Note_on_c, 0, 63, 0
3, 91860, Note_on_c, 0, 67, 110
3, 91908, Note_on_c, 0, 67, 0
3, 92280, Note_on_c, 0, 55, 110
3, 92280, Note_on_c, 0, 60, 110
3, 92376, Note_on_c, 0, 60, 0
3, 92376, Note_on_c, 0, 55, 0
3, 93000, Note_on_c, 0, 55, 110
3, 93096, Note_on_c, 0, 55, 0
3, 93720, Note_on_c, 0, 55, 110
3, 93816, Note_on_c, 0, 55, 0
3, 94440, Note_on_c, 0, 62, 110
3, 94536, Note_on_c, 0, 62, 0
3, 95160, Note_on_c, 0, 55, 110
3, 95256, Note_on_c, 0, 55, 0
3, 95880, Note_on_c, 0, 55, 110
3, 95976, Note_on_c, 0, 55, 0
3, 96600, Note_on_c, 0, 62, 110
3, 96696, Note_on_c, 0, 62, 0
3, 97320, Note_on_c, 0, 62, 110
3, 97416, Note_on_c, 0, 62, 0
3, 98040, Note_on_c, 0, 60, 110
3, 98136, Note_on_c, 0, 60, 0
3, 101640, Note_on_c, 0, 67, 110
3, 101792, Note_on_c, 0, 67, 0
3, 101800, Note_on_c, 0, 65, 110
3, 101832, Note_on_c, 0, 65, 0
3, 101840, Note_on_c, 0, 63, 110
3, 101872, Note_on_c, 0, 63, 0
3, 101880, Note_on_c, 0, 63, 110
3, 101912, Note_on_c, 0, 63, 0
3, 101920, Note_on_c, 0, 62, 110
3, 101952, Note_on_c, 0, 62, 0
3, 101960, Note_on_c, 0, 60, 110
3, 101992, Note_on_c, 0, 60, 0
3, 102000, Note_on_c, 0, 60, 110
3, 102032, Note_on_c, 0, 60, 0
3, 102040, Note_on_c, 0, 58, 110
3, 102072, Note_on_c, 0, 58, 0
3, 102080, Note_on_c, 0, 56, 110
3, 102112, Note_on_c, 0, 56, 0
3, 102120, Note_on_c, 0, 56, 110
3, 102152, Note_on_c, 0, 56, 0
3, 102160, Note_on_c, 0, 55, 110
3, 102192, Note_on_c, 0, 55, 0
3, 102200, Note_on_c, 0, 53, 110
3, 102232, Note_on_c, 0, 53, 0
3, 102240, Note_on_c, 0, 53, 110
3, 102272, Note_on_c, 0, 53, 0
3, 102280, Note_on_c, 0, 51, 110
3, 102312, Note_on_c, 0, 51, 0
3, 102320, Note_on_c, 0, 50, 110
3, 102352, Note_on_c, 0, 50, 0
3, 102360, Note_on_c, 0, 50, 110
3, 102392, Note_on_c, 0, 50, 0
3, 102400, Note_on_c, 0, 48, 110
3, 102432, Note_on_c, 0, 48, 0
3, 102440, Note_on_c, 0, 47, 110
3, 102472, Note_on_c, 0, 47, 0
3, 102480, Note_on_c, 0, 47, 110
3, 102512, Note_on_c, 0, 47, 0
3, 102520, Note_on_c, 0, 45, 110
3, 102552, Note_on_c, 0, 45, 0
3, 102560, Note_on_c, 0, 43, 110
3, 102592, Note_on_c, 0, 43, 0
3, 102600, Note_on_c, 0, 43, 110
3, 102632, Note_on_c, 0, 43, 0
3, 102640, Note_on_c, 0, 45, 110
3, 102672, Note_on_c, 0, 45, 0
3, 102680, Note_on_c, 0, 47, 110
3, 102712, Note_on_c, 0, 47, 0
3, 102720, Note_on_c, 0, 47, 110
3, 102752, Note_on_c, 0, 47, 0
3, 102760, Note_on_c, 0, 48, 110
3, 102792, Note_on_c, 0, 48, 0
3, 102800, Note_on_c, 0, 50, 110
3, 102832, Note_on_c, 0, 50, 0
3, 102840, Note_on_c, 0, 50, 110
3, 102872, Note_on_c, 0, 50, 0
3, 102880, Note_on_c, 0, 51, 110
3, 102912, Note_on_c, 0, 51, 0
3, 102920, Note_on_c, 0, 53, 110
3, 102952, Note_on_c, 0, 53, 0
3, 102960, Note_on_c, 0, 53, 110
3, 102992, Note_on_c, 0, 53, 0
3, 103000, Note_on_c, 0, 55, 110
3, 103032, Note_on_c, 0, 55, 0
3, 103040, Note_on_c, 0, 56, 110
3, 103072, Note_on_c, 0, 56, 0
3, 103080, Note_on_c, 0, 55, 110
3, 103112, Note_on_c, 0, 55, 0
3, 103120, Note_on_c, 0, 56, 110
3, 103152, Note_on_c, 0, 56, 0
3, 103160, Note_on_c, 0, 53, 110
3, 103192, Note_on_c, 0, 53, 0
3, 103200, Note_on_c, 0, 51, 110
3, 103232, Note_on_c, 0, 51, 0
3, 103240, Note_on_c, 0, 53, 110
3, 103272, Note_on_c, 0, 53, 0
3, 103280, Note_on_c, 0, 50, 110
3, 103312, Note_on_c, 0, 50, 0
3, 103320, Note_on_c, 0, 48, 110
3, 103416, Note_on_c, 0, 48, 0
3, 103440, Note_on_c, 0, 43, 110
3, 103472, Note_on_c, 0, 43, 0
3, 103480, Note_on_c, 0, 41, 110
3, 103512, Note_on_c, 0, 41, 0
3, 103520, Note_on_c, 0, 39, 110
3, 103552, Note_on_c, 0, 39, 0
3, 103560, Note_on_c, 0, 39, 110
3, 103592, Note_on_c, 0, 39, 0
3, 103600, Note_on_c, 0, 38, 110
3, 103632, Note_on_c, 0, 38, 0
3, 103640, Note_on_c, 0, 36, 110
3, 103672, Note_on_c, 0, 36, 0
3, 103680, Note_on_c, 0, 36, 110
3, 103872, Note_on_c, 0, 36, 0
3, 105120, Note_on_c, 0, 62, 96
3, 105312, Note_on_c, 0, 62, 0
3, 105360, Note_on_c, 0, 62, 96
3, 105456, Note_on_c, 0, 62, 0
3, 105480, Note_on_c, 0, 60, 96
3, 105576, Note_on_c, 0, 60, 0
3, 105600, Note_on_c, 0, 60, 96
3, 105792, Note_on_c, 0, 60, 0
3, 105960, Note_on_c, 0, 62, 96
3, 106056, Note_on_c, 0, 62, 0
3, 106080, Note_on_c, 0, 60, 92
3, 106128, Note_on_c, 0, 60, 0
3, 106140, Note_on_c, 0, 59, 96
3, 106197, Note_on_c, 0, 59, 0
3, 106200, Note_on_c, 0, 60, 96
3, 106248, Note_on_c, 0, 60, 0
3, 106260, Note_on_c, 0, 59, 96
3, 106308, Note_on_c, 0, 59, 0
3, 106320, Note_on_c, 0, 60, 96
3, 106416, Note_on_c, 0, 60, 0
3, 106440, Note_on_c, 0, 62, 96
3, 106488, Note_on_c, 0, 62, 0
3, 106500, Note_on_c, 0, 63, 96
3, 106548, Note_on_c, 0, 63, 0
3, 106560, Note_on_c, 0, 59, 96
3, 106896, Note_on_c, 0, 59, 0
3, 106920, Note_on_c, 0, 60, 96
3, 106968, Note_on_c, 0, 60, 0
3, 106980, Note_on_c, 0, 62, 96
3, 107028, Note_on_c, 0, 62, 0
3, 107040, Note_on_c, 0, 63, 96
3, 107232, Note_on_c, 0, 63, 0
3, 107400, Note_on_c, 0, 62, 96
3, 107496, Note_on_c, 0, 62, 0
3, 107520, Note_on_c, 0, 60, 96
3, 107808, Note_on_c, 0, 60, 0
3, 107880, Note_on_c, 0, 62, 96
3, 107928, Note_on_c, 0, 62, 0
3, 107940, Note_on_c, 0, 64, 96
3, 107988, Note_on_c, 0, 64, 0
3, 108000, Note_on_c, 0, 65, 96
3, 108353, Note_on_c, 0, 65, 0
3, 108360, Note_on_c, 0, 63, 110
3, 108408, Note_on_c, 0, 63, 0
3, 108420, Note_on_c, 0, 62, 110
3, 108468, Note_on_c, 0, 62, 0
3, 108480, Note_on_c, 0, 63, 110
3, 108576, Note_on_c, 0, 63, 0
3, 108600, Note_on_c, 0, 62, 110
3, 108648, Note_on_c, 0, 62, 0
3, 108660, Note_on_c, 0, 60, 110
3, 108708, Note_on_c, 0, 60, 0
3, 108720, Note_on_c, 0, 67, 110
3, 108833, Note_on_c, 0, 67, 0
3, 108840, Note_on_c, 0, 65, 110
3, 109073, Note_on_c, 0, 65, 0
3, 109080, Note_on_c, 0, 63, 110
3, 109128, Note_on_c, 0, 63, 0
3, 109140, Note_on_c, 0, 62, 110
3, 109188, Note_on_c, 0, 62, 0
3, 109200, Note_on_c, 0, 63, 110
3, 109296, Note_on_c, 0, 63, 0
3, 109320, Note_on_c, 0, 63, 110
3, 109368, Note_on_c, 0, 63, 0
3, 109380, Note_on_c, 0, 62, 110
3, 109428, Note_on_c, 0, 62, 0
3, 109440, Note_on_c, 0, 60, 110
3, 109536, Note_on_c, 0, 60, 0
3, 109560, Note_on_c, 0, 63, 110
3, 109728, Note_on_c, 0, 63, 0
3, 109740, Note_on_c, 0, 65, 110
3, 109788, Note_on_c, 0, 65, 0
3, 109800, Note_on_c, 0, 63, 110
3, 109848, Note_on_c, 0, 63, 0
3, 109860, Note_on_c, 0, 62, 110
3, 109908, Note_on_c, 0, 62, 0
3, 109920, Note_on_c, 0, 63, 110
3, 110208, Note_on_c, 0, 63, 0
3, 110220, Note_on_c, 0, 65, 110
3, 110268, Note_on_c, 0, 65, 0
3, 110280, Note_on_c, 0, 63, 110
3, 110328, Note_on_c, 0, 63, 0
3, 110340, Note_on_c, 0, 62, 110
3, 110388, Note_on_c, 0, 62, 0
3, 110400, Note_on_c, 0, 63, 110
3, 110688, Note_on_c, 0, 63, 0
3, 110700, Note_on_c, 0, 65, 110
3, 110748, Note_on_c, 0, 65, 0
3, 110760, Note_on_c, 0, 63, 110
3, 110808, Note_on_c, 0, 63, 0
3, 110820, Note_on_c, 0, 62, 110
3, 110868, Note_on_c, 0, 62, 0
3, 110880, Note_on_c, 0, 63, 110
3, 111168, Note_on_c, 0, 63, 0
3, 111180, Note_on_c, 0, 65, 110
3, 111228, Note_on_c, 0, 65, 0
3, 111240, Note_on_c, 0, 63, 110
3, 111288, Note_on_c, 0, 63, 0
3, 111300, Note_on_c, 0, 62, 110
3, 111348, Note_on_c, 0, 62, 0
3, 111360, Note_on_c, 0, 63, 110
3, 111648, Note_on_c, 0, 63, 0
3, 111660, Note_on_c, 0, 65, 110
3, 111708, Note_on_c, 0, 65, 0
3, 111720, Note_on_c, 0, 63, 110
3, 111768, Note_on_c, 0, 63, 0
3, 111780, Note_on_c, 0, 62, 110
3, 111828, Note_on_c, 0, 62, 0
3, 111840, Note_on_c, 0, 63, 110
3, 112128, Note_on_c, 0, 63, 0
3, 112140, Note_on_c, 0, 63, 110
3, 112188, Note_on_c, 0, 63, 0
3, 112200, Note_on_c, 0, 62, 110
3, 112248, Note_on_c, 0, 62, 0
3, 112260, Note_on_c, 0, 60, 110
3, 112308, Note_on_c, 0, 60, 0
3, 112320, Note_on_c, 0, 62, 110
3, 112608, Note_on_c, 0, 62, 0
3, 112620, Note_on_c, 0, 65, 110
3, 112668, Note_on_c, 0, 65, 0
3, 112680, Note_on_c, 0, 63, 110
3, 112728, Note_on_c, 0, 63, 0
3, 112740, Note_on_c, 0, 62, 110
3, 112788, Note_on_c, 0, 62, 0
3, 112800, Note_on_c, 0, 60, 110
3, 112992, Note_on_c, 0, 60, 0
3, 113040, Note_on_c, 0, 62, 110
3, 113472, Note_on_c, 0, 62, 0
3, 113520, Note_on_c, 0, 60, 110
3, 113904, Note_on_c, 0, 60, 0
3, 114000, Note_on_c, 0, 59, 110
3, 114192, Note_on_c, 0, 59, 0
3, 114240, Note_on_c, 0, 60, 110
3, 114432, Note_on_c, 0, 60, 0
3, 114480, Note_on_c, 0, 62, 110
3, 114576, Note_on_c, 0, 62, 0
3, 114600, Note_on_c, 0, 55, 110
3, 115008, Note_on_c, 0, 55, 0
3, 115020, Note_on_c, 0, 56, 120
3, 115068, Note_on_c, 0, 56, 0
3, 115080, Note_on_c, 0, 55, 120
3, 115128, Note_on_c, 0, 55, 0
3, 115140, Note_on_c, 0, 53, 120
3, 115188, Note_on_c, 0, 53, 0
3, 115200, Note_on_c, 0, 51, 120
3, 115313, Note_on_c, 0, 51, 0
3, 115320, Note_on_c, 0, 60, 120
3, 115488, Note_on_c, 0, 60, 0
3, 115500, Note_on_c, 0, 62, 120
3, 115548, Note_on_c, 0, 62, 0
3, 115560, Note_on_c, 0, 60, 120
3, 115608, Note_on_c, 0, 60, 0
3, 115620, Note_on_c, 0, 59, 120
3, 115668, Note_on_c, 0, 59, 0
3, 115680, Note_on_c, 0, 60, 120
3, 115680, Note_on_c, 0, 63, 120
3, 115728, Note_on_c, 0, 63, 0
3, 115740, Note_on_c, 0, 65, 120
3, 115788, Note_on_c, 0, 65, 0
3, 115800, Note_on_c, 0, 63, 120
3, 115848, Note_on_c, 0, 63, 0
3, 115860, Note_on_c, 0, 62, 120
3, 115908, Note_on_c, 0, 62, 0
3, 115920, Note_on_c, 0, 63, 120
3, 115968, Note_on_c, 0, 60, 0
3, 115980, Note_on_c, 0, 62, 120
3, 116028, Note_on_c, 0, 62, 0
3, 116040, Note_on_c, 0, 60, 120
3, 116088, Note_on_c, 0, 60, 0
3, 116100, Note_on_c, 0, 59, 120
3, 116148, Note_on_c, 0, 59, 0
3, 116160, Note_on_c, 0, 60, 120
3, 116208, Note_on_c, 0, 63, 0
3, 116220, Note_on_c, 0, 65, 120
3, 116268, Note_on_c, 0, 65, 0
3, 116280, Note_on_c, 0, 63, 120
3, 116328, Note_on_c, 0, 63, 0
3, 116340, Note_on_c, 0, 62, 120
3, 116388, Note_on_c, 0, 62, 0
3, 116400, Note_on_c, 0, 63, 120
3, 116448, Note_on_c, 0, 60, 0
3, 116460, Note_on_c, 0, 62, 120
3, 116508, Note_on_c, 0, 62, 0
3, 116520, Note_on_c, 0, 60, 120
3, 116568, Note_on_c, 0, 60, 0
3, 116580, Note_on_c, 0, 59, 120
3, 116628, Note_on_c, 0, 59, 0
3, 116640, Note_on_c, 0, 60, 120
3, 116688, Note_on_c, 0, 63, 0
3, 116700, Note_on_c, 0, 65, 120
3, 116748, Note_on_c, 0, 65, 0
3, 116760, Note_on_c, 0, 63, 120
3, 116808, Note_on_c, 0, 63, 0
3, 116820, Note_on_c, 0, 62, 120
3, 116868, Note_on_c, 0, 62, 0
3, 116880, Note_on_c, 0, 60, 120
3, 116928, Note_on_c, 0, 60, 0
3, 116940, Note_on_c, 0, 62, 120
3, 116988, Note_on_c, 0, 62, 0
3, 117000, Note_on_c, 0, 60, 120
3, 117024, Note_on_c, 0, 60, 0
3, 117048, Note_on_c, 0, 60, 0
3, 117060, Note_on_c, 0, 68, 120
3, 117060, Note_on_c, 0, 59, 120
3, 117108, Note_on_c, 0, 59, 0
3, 117108, Note_on_c, 0, 68, 0
3, 117120, Note_on_c, 0, 63, 120
3, 117120, Note_on_c, 0, 60, 120
3, 117168, Note_on_c, 0, 63, 0
3, 117180, Note_on_c, 0, 65, 120
3, 117228, Note_on_c, 0, 65, 0
3, 117240, Note_on_c, 0, 63, 120
3, 117288, Note_on_c, 0, 63, 0
3, 117300, Note_on_c, 0, 62, 120
3, 117348, Note_on_c, 0, 62, 0
3, 117360, Note_on_c, 0, 63, 120
3, 117408, Note_on_c, 0, 60, 0
3, 117420, Note_on_c, 0, 62, 120
3, 117468, Note_on_c, 0, 62, 0
3, 117480, Note_on_c, 0, 60, 120
3, 117528, Note_on_c, 0, 60, 0
3, 117540, Note_on_c, 0, 59, 120
3, 117588, Note_on_c, 0, 59, 0
3, 117600, Note_on_c, 0, 60, 120
3, 117648, Note_on_c, 0, 63, 0
3, 117660, Note_on_c, 0, 65, 120
3, 117708, Note_on_c, 0, 65, 0
3, 117720, Note_on_c, 0, 63, 120
3, 117768, Note_on_c, 0, 63, 0
3, 117780, Note_on_c, 0, 62, 120
3, 117828, Note_on_c, 0, 62, 0
3, 117840, Note_on_c, 0, 63, 120
3, 117888, Note_on_c, 0, 63, 0
3, 117888, Note_on_c, 0, 60, 0
3, 117900, Note_on_c, 0, 60, 120
3, 117900, Note_on_c, 0, 63, 120
3, 117948, Note_on_c, 0, 63, 0
3, 117948, Note_on_c, 0, 60, 0
3, 117960, Note_on_c, 0, 62, 120
3, 117960, Note_on_c, 0, 65, 120
3, 118008, Note_on_c, 0, 65, 0
3, 118008, Note_on_c, 0, 62, 0
3, 118020, Note_on_c, 0, 67, 120
3, 118020, Note_on_c, 0, 63, 120
3, 118068, Note_on_c, 0, 63, 0
3, 118068, Note_on_c, 0, 67, 0
3, 118080, Note_on_c, 0, 65, 120
3, 118080, Note_on_c, 0, 68, 120
3, 118176, Note_on_c, 0, 68, 0
3, 118176, Note_on_c, 0, 65, 0
3, 118200, Note_on_c, 0, 65, 120
3, 118200, Note_on_c, 0, 53, 120
3, 118296, Note_on_c, 0, 53, 0
3, 118296, Note_on_c, 0, 65, 0
3, 118320, Note_on_c, 0, 60, 120
3, 118320, Note_on_c, 0, 63, 120
3, 118368, Note_on_c, 0, 63, 0
3, 118380, Note_on_c, 0, 65, 120
3, 118428, Note_on_c, 0, 65, 0
3, 118440, Note_on_c, 0, 63, 120
3, 118488, Note_on_c, 0, 63, 0
3, 118500, Note_on_c, 0, 62, 120
3, 118548, Note_on_c, 0, 62, 0
3, 118560, Note_on_c, 0, 63, 120
3, 118608, Note_on_c, 0, 60, 0
3, 118620, Note_on_c, 0, 60, 120
3, 118668, Note_on_c, 0, 60, 0
3, 118680, Note_on_c, 0, 59, 120
3, 118728, Note_on_c, 0, 59, 0
3, 118740, Note_on_c, 0, 57, 120
3, 118752, Note_on_c, 0, 63, 0
3, 118788, Note_on_c, 0, 57, 0
3, 118800, Note_on_c, 0, 62, 120
3, 118800, Note_on_c, 0, 65, 120
3, 118848, Note_on_c, 0, 65, 0
3, 118860, Note_on_c, 0, 68, 120
3, 118908, Note_on_c, 0, 68, 0
3, 118920, Note_on_c, 0, 67, 120
3, 118968, Note_on_c, 0, 67, 0
3, 118980, Note_on_c, 0, 65, 120
3, 118992, Note_on_c, 0, 62, 0
3, 119028, Note_on_c, 0, 65, 0
3, 119040, Note_on_c, 0, 63, 120
3, 119040, Note_on_c, 0, 55, 120
3, 119088, Note_on_c, 0, 63, 0
3, 119100, Note_on_c, 0, 65, 120
3, 119148, Note_on_c, 0, 65, 0
3, 119160, Note_on_c, 0, 63, 120
3, 119208, Note_on_c, 0, 63, 0
3, 119220, Note_on_c, 0, 62, 120
3, 119268, Note_on_c, 0, 62, 0
3, 119280, Note_on_c, 0, 60, 120
3, 119328, Note_on_c, 0, 55, 0
3, 119340, Note_on_c, 0, 58, 120
3, 119388, Note_on_c, 0, 58, 0
3, 119400, Note_on_c, 0, 56, 120
3, 119448, Note_on_c, 0, 56, 0
3, 119460, Note_on_c, 0, 55, 120
3, 119508, Note_on_c, 0, 55, 0
3, 119520, Note_on_c, 0, 53, 120
3, 119568, Note_on_c, 0, 60, 0
3, 119580, Note_on_c, 0, 62, 120
3, 119628, Note_on_c, 0, 62, 0
3, 119640, Note_on_c, 0, 60, 120
3, 119688, Note_on_c, 0, 60, 0
3, 119700, Note_on_c, 0, 59, 120
3, 119712, Note_on_c, 0, 53, 0
3, 119748, Note_on_c, 0, 59, 0
3, 119760, Note_on_c, 0, 51, 120
3, 119760, Note_on_c, 0, 60, 120
3, 119808, Note_on_c, 0, 51, 0
3, 119820, Note_on_c, 0, 53, 120
3, 119868, Note_on_c, 0, 53, 0
3, 119880, Note_on_c, 0, 51, 120
3, 119928, Note_on_c, 0, 51, 0
3, 119940, Note_on_c, 0, 50, 120
3, 119988, Note_on_c, 0, 50, 0
3, 120000, Note_on_c, 0, 51, 120
3, 120048, Note_on_c, 0, 60, 0
3, 120060, Note_on_c, 0, 62, 120
3, 120108, Note_on_c, 0, 62, 0
3, 120120, Note_on_c, 0, 60, 120
3, 120144, Note_on_c, 0, 51, 0
3, 120168, Note_on_c, 0, 60, 0
3, 120180, Note_on_c, 0, 53, 120
3, 120180, Note_on_c, 0, 59, 120
3, 120228, Note_on_c, 0, 59, 0
3, 120228, Note_on_c, 0, 53, 0
3, 120240, Note_on_c, 0, 55, 120
3, 120240, Note_on_c, 0, 60, 120
3, 120288, Note_on_c, 0, 60, 0
3, 120288, Note_on_c, 0, 55, 0
3, 120300, Note_on_c, 0, 62, 120
3, 120300, Note_on_c, 0, 53, 120
3, 120348, Note_on_c, 0, 53, 0
3, 120348, Note_on_c, 0, 62, 0
3, 120360, Note_on_c, 0, 60, 120
3, 120360, Note_on_c, 0, 55, 120
3, 120408, Note_on_c, 0, 55, 0
3, 120408, Note_on_c, 0, 60, 0
3, 120420, Note_on_c, 0, 56, 120
3, 120420, Note_on_c, 0, 59, 120
3, 120468, Note_on_c, 0, 59, 0
3, 120468, Note_on_c, 0, 56, 0
3, 120480, Note_on_c, 0, 55, 120
3, 120480, Note_on_c, 0, 60, 120
3, 120768, Note_on_c, 0, 60, 0
3, 120768, Note_on_c, 0, 55, 0
3, 120780, Note_on_c, 0, 53, 120
3, 120780, Note_on_c, 0, 56, 120
3, 120828, Note_on_c, 0, 56, 0
3, 120828, Note_on_c, 0, 53, 0
3, 120840, Note_on_c, 0, 51, 120
3, 120840, Note_on_c, 0, 55, 120
3, 120888, Note_on_c, 0, 55, 0
3, 120888, Note_on_c, 0, 51, 0
3, 120900, Note_on_c, 0, 53, 120
3, 120900, Note_on_c, 0, 50, 120
3, 120948, Note_on_c, 0, 50, 0
3, 120948, Note_on_c, 0, 53, 0
3, 120960, Note_on_c, 0, 51, 120
3, 120960, Note_on_c, 0, 60, 120
3, 120960, Note_on_c, 0, 48, 120
3, 120960, Note_on_c, 0, 55, 120
3, 121152, Note_on_c, 0, 55, 0
3, 121152, Note_on_c, 0, 51, 0
3, 121152, Note_on_c, 0, 60, 0
3, 121152, Note_on_c, 0, 48, 0
3, 121560, Note_on_c, 0, 63, 110
3, 121656, Note_on_c, 0, 63, 0
3, 121680, Note_on_c, 0, 59, 110
3, 121776, Note_on_c, 0, 59, 0
3, 121800, Note_on_c, 0, 59, 110
3, 121896, Note_on_c, 0, 59, 0
3, 121920, Note_on_c, 0, 60, 110
3, 122016, Note_on_c, 0, 60, 0
3, 122040, Note_on_c, 0, 60, 110
3, 122136, Note_on_c, 0, 60, 0
3, 122280, Note_on_c, 0, 68, 110
3, 122376, Note_on_c, 0, 68, 0
3, 122400, Note_on_c, 0, 62, 110
3, 122496, Note_on_c, 0, 62, 0
3, 122520, Note_on_c, 0, 62, 110
3, 122616, Note_on_c, 0, 62, 0
3, 122640, Note_on_c, 0, 64, 110
3, 122736, Note_on_c, 0, 64, 0
3, 122760, Note_on_c, 0, 64, 110
3, 122856, Note_on_c, 0, 64, 0
3, 123000, Note_on_c, 0, 65, 110
3, 123096, Note_on_c, 0, 65, 0
3, 123120, Note_on_c, 0, 60, 110
3, 123216, Note_on_c, 0, 60, 0
3, 123240, Note_on_c, 0, 60, 110
3, 123336, Note_on_c, 0, 60, 0
3, 123360, Note_on_c, 0, 62, 110
3, 123456, Note_on_c, 0, 62, 0
3, 123480, Note_on_c, 0, 62, 110
3, 123576, Note_on_c, 0, 62, 0
3, 123720, Note_on_c, 0, 63, 110
3, 123816, Note_on_c, 0, 63, 0
3, 123840, Note_on_c, 0, 59, 110
3, 123936, Note_on_c, 0, 59, 0
3, 123960, Note_on_c, 0, 59, 110
3, 124056, Note_on_c, 0, 59, 0
3, 124080, Note_on_c, 0, 60, 110
3, 124176, Note_on_c, 0, 60, 0
3, 124200, Note_on_c, 0, 60, 110
3, 124368, Note_on_c, 0, 60, 0
3, 124380, Note_on_c, 0, 60, 110
3, 124428, Note_on_c, 0, 60, 0
3, 124440, Note_on_c, 0, 58, 110
3, 124488, Note_on_c, 0, 58, 0
3, 124500, Note_on_c, 0, 57, 110
3, 124548, Note_on_c, 0, 57, 0
3, 124560, Note_on_c, 0, 58, 110
3, 124848, Note_on_c, 0, 58, 0
3, 124860, Note_on_c, 0, 58, 110
3, 124908, Note_on_c, 0, 58, 0
3, 124920, Note_on_c, 0, 57, 110
3, 124968, Note_on_c, 0, 57, 0
3, 124980, Note_on_c, 0, 55, 110
3, 125028, Note_on_c, 0, 55, 0
3, 125040, Note_on_c, 0, 54, 110
3, 125088, Note_on_c, 0, 54, 0
3, 125100, Note_on_c, 0, 50, 110
3, 125148, Note_on_c, 0, 50, 0
3, 125160, Note_on_c, 0, 55, 110
3, 125208, Note_on_c, 0, 55, 0
3, 125220, Note_on_c, 0, 48, 110
3, 125268, Note_on_c, 0, 48, 0
3, 125280, Note_on_c, 0, 50, 110
3, 125328, Note_on_c, 0, 50, 0
3, 125340, Note_on_c, 0, 62, 110
3, 125388, Note_on_c, 0, 62, 0
3, 125400, Note_on_c, 0, 60, 110
3, 125448, Note_on_c, 0, 60, 0
3, 125460, Note_on_c, 0, 62, 110
3, 125508, Note_on_c, 0, 62, 0
3, 125520, Note_on_c, 0, 55, 110
3, 125568, Note_on_c, 0, 55, 0
3, 125580, Note_on_c, 0, 67, 110
3, 125628, Note_on_c, 0, 67, 0
3, 125640, Note_on_c, 0, 65, 110
3, 125688, Note_on_c, 0, 65, 0
3, 125700, Note_on_c, 0, 67, 110
3, 125748, Note_on_c, 0, 67, 0
3, 125760, Note_on_c, 0, 63, 110
3, 125808, Note_on_c, 0, 63, 0
3, 125820, Note_on_c, 0, 67, 110
3, 125868, Note_on_c, 0, 67, 0
3, 125880, Note_on_c, 0, 63, 110
3, 125928, Note_on_c, 0, 63, 0
3, 125940, Note_on_c, 0, 67, 110
3, 125988, Note_on_c, 0, 67, 0
3, 126000, Note_on_c, 0, 63, 110
3, 126048, Note_on_c, 0, 63, 0
3, 126060, Note_on_c, 0, 65, 110
3, 126108, Note_on_c, 0, 65, 0
3, 126120, Note_on_c, 0, 63, 110
3, 126168, Note_on_c, 0, 63, 0
3, 126180, Note_on_c, 0, 65, 110
3, 126228, Note_on_c, 0, 65, 0
3, 126240, Note_on_c, 0, 62, 110
3, 126288, Note_on_c, 0, 62, 0
3, 126300, Note_on_c, 0, 65, 110
3, 126348, Note_on_c, 0, 65, 0
3, 126360, Note_on_c, 0, 62, 110
3, 126408, Note_on_c, 0, 62, 0
3, 126420, Note_on_c, 0, 65, 110
3, 126468, Note_on_c, 0, 65, 0
3, 126480, Note_on_c, 0, 60, 110
3, 126528, Note_on_c, 0, 60, 0
3, 126540, Note_on_c, 0, 63, 110
3, 126588, Note_on_c, 0, 63, 0
3, 126600, Note_on_c, 0, 62, 110
3, 126648, Note_on_c, 0, 62, 0
3, 126660, Note_on_c, 0, 65, 110
3, 126708, Note_on_c, 0, 65, 0
3, 126720, Note_on_c, 0, 63, 110
3, 126768, Note_on_c, 0, 63, 0
3, 126780, Note_on_c, 0, 65, 110
3, 126828, Note_on_c, 0, 65, 0
3, 126840, Note_on_c, 0, 63, 110
3, 126888, Note_on_c, 0, 63, 0
3, 126900, Note_on_c, 0, 65, 110
3, 126948, Note_on_c, 0, 65, 0
3, 126960, Note_on_c, 0, 63, 110
3, 127008, Note_on_c, 0, 63, 0
3, 127020, Note_on_c, 0, 65, 110
3, 127068, Note_on_c, 0, 65, 0
3, 127080, Note_on_c, 0, 63, 110
3, 127128, Note_on_c, 0, 63, 0
3, 127140, Note_on_c, 0, 65, 110
3, 127188, Note_on_c, 0, 65, 0
3, 127200, Note_on_c, 0, 62, 110
3, 127248, Note_on_c, 0, 62, 0
3, 127260, Note_on_c, 0, 63, 110
3, 127308, Note_on_c, 0, 63, 0
3, 127320, Note_on_c, 0, 62, 110
3, 127368, Note_on_c, 0, 62, 0
3, 127380, Note_on_c, 0, 63, 110
3, 127428, Note_on_c, 0, 63, 0
3, 127440, Note_on_c, 0, 62, 110
3, 127488, Note_on_c, 0, 62, 0
3, 127500, Note_on_c, 0, 63, 110
3, 127548, Note_on_c, 0, 63, 0
3, 127560, Note_on_c, 0, 60, 110
3, 127608, Note_on_c, 0, 60, 0
3, 127620, Note_on_c, 0, 62, 110
3, 127668, Note_on_c, 0, 62, 0
3, 127680, Note_on_c, 0, 59, 110
3, 127776, Note_on_c, 0, 59, 0
3, 127800, Note_on_c, 0, 59, 110
3, 127896, Note_on_c, 0, 59, 0
3, 127920, Note_on_c, 0, 60, 110
3, 128016, Note_on_c, 0, 60, 0
3, 128040, Note_on_c, 0, 60, 110
3, 128136, Note_on_c, 0, 60, 0
3, 128160, Note_on_c, 0, 53, 110
3, 128256, Note_on_c, 0, 53, 0
3, 128280, Note_on_c, 0, 53, 110
3, 128376, Note_on_c, 0, 53, 0
3, 128400, Note_on_c, 0, 55, 110
3, 128496, Note_on_c, 0, 55, 0
3, 128520, Note_on_c, 0, 55, 110
3, 128616, Note_on_c, 0, 55, 0
3, 128640, Note_on_c, 0, 56, 110
3, 128736, Note_on_c, 0, 56, 0
3, 128760, Note_on_c, 0, 55, 110
3, 128856, Note_on_c, 0, 55, 0
3, 128880, Note_on_c, 0, 53, 110
3, 129216, Note_on_c, 0, 53, 0
3, 129240, Note_on_c, 0, 53, 110
3, 129336, Note_on_c, 0, 53, 0
3, 129360, Note_on_c, 0, 55, 110
3, 129648, Note_on_c, 0, 55, 0
3, 129720, Note_on_c, 0, 55, 110
3, 129912, Note_on_c, 0, 55, 0
3, 129960, Note_on_c, 0, 60, 110
3, 130056, Note_on_c, 0, 60, 0
3, 130080, Note_on_c, 0, 59, 110
3, 130128, Note_on_c, 0, 59, 0
3, 130140, Note_on_c, 0, 62, 110
3, 130188, Note_on_c, 0, 62, 0
3, 130200, Note_on_c, 0, 60, 110
3, 130248, Note_on_c, 0, 60, 0
3, 130260, Note_on_c, 0, 63, 110
3, 130308, Note_on_c, 0, 63, 0
3, 130320, Note_on_c, 0, 62, 110
3, 130416, Note_on_c, 0, 62, 0
3, 130440, Note_on_c, 0, 55, 110
3, 130632, Note_on_c, 0, 55, 0
3, 130680, Note_on_c, 0, 60, 110
3, 130992, Note_on_c, 0, 60, 0
3, 131040, Note_on_c, 0, 65, 110
3, 131232, Note_on_c, 0, 65, 0
3, 131280, Note_on_c, 0, 58, 110
3, 131472, Note_on_c, 0, 58, 0
3, 131520, Note_on_c, 0, 60, 110
3, 131712, Note_on_c, 0, 60, 0
3, 131760, Note_on_c, 0, 65, 110
3, 131856, Note_on_c, 0, 65, 0
3, 131880, Note_on_c, 0, 63, 110
3, 131976, Note_on_c, 0, 63, 0
3, 132000, Note_on_c, 0, 62, 110
3, 132096, Note_on_c, 0, 62, 0
3, 132120, Note_on_c, 0, 60, 110
3, 132216, Note_on_c, 0, 60, 0
3, 132240, Note_on_c, 0, 59, 110
3, 132336, Note_on_c, 0, 59, 0
3, 132360, Note_on_c, 0, 60, 110
3, 132456, Note_on_c, 0, 60, 0
3, 132480, Note_on_c, 0, 62, 110
3, 132672, Note_on_c, 0, 62, 0
3, 132720, Note_on_c, 0, 55, 110
3, 133152, Note_on_c, 0, 55, 0
3, 133440, Note_on_c, 0, 55, 110
3, 133632, Note_on_c, 0, 55, 0
3, 133680, Note_on_c, 0, 62, 110
3, 134064, Note_on_c, 0, 62, 0
3, 134160, Note_on_c, 0, 58, 110
3, 134352, Note_on_c, 0, 58, 0
3, 134400, Note_on_c, 0, 60, 110
3, 134784, Note_on_c, 0, 60, 0
3, 134880, Note_on_c, 0, 62, 110
3, 135072, Note_on_c, 0, 62, 0
3, 135120, Note_on_c, 0, 63, 110
3, 135504, Note_on_c, 0, 63, 0
3, 135600, Note_on_c, 0, 60, 110
3, 135792, Note_on_c, 0, 60, 0
3, 135840, Note_on_c, 0, 62, 110
3, 136128, Note_on_c, 0, 62, 0
3, 136200, Note_on_c, 0, 62, 110
3, 136392, Note_on_c, 0, 62, 0
3, 136440, Note_on_c, 0, 57, 110
3, 136536, Note_on_c, 0, 57, 0
3, 136560, Note_on_c, 0, 62, 110
3, 136656, Note_on_c, 0, 62, 0
3, 136680, Note_on_c, 0, 60, 110
3, 136872, Note_on_c, 0, 60, 0
3, 136920, Note_on_c, 0, 62, 110
3, 137112, Note_on_c, 0, 62, 0
3, 137160, Note_on_c, 0, 57, 110
3, 137256, Note_on_c, 0, 57, 0
3, 137280, Note_on_c, 0, 59, 110
3, 137376, Note_on_c, 0, 59, 0
3, 137400, Note_on_c, 0, 60, 110
3, 137496, Note_on_c, 0, 60, 0
3, 137520, Note_on_c, 0, 62, 110
3, 137616, Note_on_c, 0, 62, 0
3, 137640, Note_on_c, 0, 55, 110
3, 137736, Note_on_c, 0, 55, 0
3, 137760, Note_on_c, 0, 60, 110
3, 137856, Note_on_c, 0, 60, 0
3, 137880, Note_on_c, 0, 56, 110
3, 137976, Note_on_c, 0, 56, 0
3, 138000, Note_on_c, 0, 55, 110
3, 138096, Note_on_c, 0, 55, 0
3, 138120, Note_on_c, 0, 63, 110
3, 138216, Note_on_c, 0, 63, 0
3, 138240, Note_on_c, 0, 59, 110
3, 138336, Note_on_c, 0, 59, 0
3, 138360, Note_on_c, 0, 59, 110
3, 138456, Note_on_c, 0, 59, 0
3, 138480, Note_on_c, 0, 60, 110
3, 138576, Note_on_c, 0, 60, 0
3, 138600, Note_on_c, 0, 60, 110
3, 138696, Note_on_c, 0, 60, 0
3, 138840, Note_on_c, 0, 68, 110
3, 138936, Note_on_c, 0, 68, 0
3, 138960, Note_on_c, 0, 62, 110
3, 139056, Note_on_c, 0, 62, 0
3, 139080, Note_on_c, 0, 62, 110
3, 139176, Note_on_c, 0, 62, 0
3, 139200, Note_on_c, 0, 64, 110
3, 139296, Note_on_c, 0, 64, 0
3, 139320, Note_on_c, 0, 64, 110
3, 139416, Note_on_c, 0, 64, 0
3, 139560, Note_on_c, 0, 65, 110
3, 139656, Note_on_c, 0, 65, 0
3, 139680, Note_on_c, 0, 60, 110
3, 139776, Note_on_c, 0, 60, 0
3, 139800, Note_on_c, 0, 60, 110
3, 139896, Note_on_c, 0, 60, 0
3, 139920, Note_on_c, 0, 62, 110
3, 140016, Note_on_c, 0, 62, 0
3, 140040, Note_on_c, 0, 62, 110
3, 140136, Note_on_c, 0, 62, 0
3, 140280, Note_on_c, 0, 63, 110
3, 140376, Note_on_c, 0, 63, 0
3, 140400, Note_on_c, 0, 58, 110
3, 140496, Note_on_c, 0, 58, 0
3, 140520, Note_on_c, 0, 58, 110
3, 140616, Note_on_c, 0, 58, 0
3, 140640, Note_on_c, 0, 60, 110
3, 140736, Note_on_c, 0, 60, 0
3, 140760, Note_on_c, 0, 60, 110
3, 140856, Note_on_c, 0, 60, 0
3, 140880, Note_on_c, 0, 62, 110
3, 140976, Note_on_c, 0, 62, 0
3, 141000, Note_on_c, 0, 58, 110
3, 141096, Note_on_c, 0, 58, 0
3, 142080, Note_on_c, 0, 51, 110
3, 142272, Note_on_c, 0, 51, 0
3, 142320, Note_on_c, 0, 58, 110
3, 142704, Note_on_c, 0, 58, 0
3, 142800, Note_on_c, 0, 55, 110
3, 142992, Note_on_c, 0, 55, 0
3, 143040, Note_on_c, 0, 56, 110
3, 143424, Note_on_c, 0, 56, 0
3, 143520, Note_on_c, 0, 58, 110
3, 143712, Note_on_c, 0, 58, 0
3, 143760, Note_on_c, 0, 60, 110
3, 144144, Note_on_c, 0, 60, 0
3, 144240, Note_on_c, 0, 56, 110
3, 144432, Note_on_c, 0, 56, 0
3, 144480, Note_on_c, 0, 58, 110
3, 144864, Note_on_c, 0, 58, 0
3, 144960, Note_on_c, 0, 60, 110
3, 145152, Note_on_c, 0, 60, 0
3, 145200, Note_on_c, 0, 53, 110
3, 145584, Note_on_c, 0, 53, 0
3, 145680, Note_on_c, 0, 58, 110
3, 145872, Note_on_c, 0, 58, 0
3, 145920, Note_on_c, 0, 51, 110
3, 146208, Note_on_c, 0, 51, 0
3, 146280, Note_on_c, 0, 51, 110
3, 146376, Note_on_c, 0, 51, 0
3, 146400, Note_on_c, 0, 53, 110
3, 146496, Note_on_c, 0, 53, 0
3, 146520, Note_on_c, 0, 55, 110
3, 146616, Note_on_c, 0, 55, 0
3, 146640, Note_on_c, 0, 56, 110
3, 146688, Note_on_c, 0, 56, 0
3, 146700, Note_on_c, 0, 60, 110
3, 146748, Note_on_c, 0, 60, 0
3, 146760, Note_on_c, 0, 56, 110
3, 146808, Note_on_c, 0, 56, 0
3, 146820, Note_on_c, 0, 60, 110
3, 146868, Note_on_c, 0, 60, 0
3, 146880, Note_on_c, 0, 53, 110
3, 146928, Note_on_c, 0, 53, 0
3, 146940, Note_on_c, 0, 56, 110
3, 146988, Note_on_c, 0, 56, 0
3, 147000, Note_on_c, 0, 53, 110
3, 147048, Note_on_c, 0, 53, 0
3, 147060, Note_on_c, 0, 56, 110
3, 147108, Note_on_c, 0, 56, 0
3, 147120, Note_on_c, 0, 50, 110
3, 147168, Note_on_c, 0, 50, 0
3, 147180, Note_on_c, 0, 53, 110
3, 147228, Note_on_c, 0, 53, 0
3, 147240, Note_on_c, 0, 50, 110
3, 147288, Note_on_c, 0, 50, 0
3, 147300, Note_on_c, 0, 53, 110
3, 147348, Note_on_c, 0, 53, 0
3, 147360, Note_on_c, 0, 55, 110
3, 147408, Note_on_c, 0, 55, 0
3, 147420, Note_on_c, 0, 58, 110
3, 147468, Note_on_c, 0, 58, 0
3, 147480, Note_on_c, 0, 55, 110
3, 147528, Note_on_c, 0, 55, 0
3, 147540, Note_on_c, 0, 58, 110
3, 147588, Note_on_c, 0, 58, 0
3, 147600, Note_on_c, 0, 51, 110
3, 147648, Note_on_c, 0, 51, 0
3, 147660, Note_on_c, 0, 55, 110
3, 147708, Note_on_c, 0, 55, 0
3, 147720, Note_on_c, 0, 51, 110
3, 147768, Note_on_c, 0, 51, 0
3, 147780, Note_on_c, 0, 55, 110
3, 147828, Note_on_c, 0, 55, 0
3, 147840, Note_on_c, 0, 48, 110
3, 147888, Note_on_c, 0, 48, 0
3, 147900, Note_on_c, 0, 51, 110
3, 147948, Note_on_c, 0, 51, 0
3, 147960, Note_on_c, 0, 48, 110
3, 148008, Note_on_c, 0, 48, 0
3, 148020, Note_on_c, 0, 51, 110
3, 148068, Note_on_c, 0, 51, 0
3, 148080, Note_on_c, 0, 53, 110
3, 148128, Note_on_c, 0, 53, 0
3, 148140, Note_on_c, 0, 56, 110
3, 148188, Note_on_c, 0, 56, 0
3, 148200, Note_on_c, 0, 53, 110
3, 148248, Note_on_c, 0, 53, 0
3, 148260, Note_on_c, 0, 56, 110
3, 148308, Note_on_c, 0, 56, 0
3, 148320, Note_on_c, 0, 50, 110
3, 148368, Note_on_c, 0, 50, 0
3, 148380, Note_on_c, 0, 53, 110
3, 148428, Note_on_c, 0, 53, 0
3, 148440, Note_on_c, 0, 50, 110
3, 148488, Note_on_c, 0, 50, 0
3, 148500, Note_on_c, 0, 53, 110
3, 148548, Note_on_c, 0, 53, 0
3, 148560, Note_on_c, 0, 46, 110
3, 148608, Note_on_c, 0, 46, 0
3, 148620, Note_on_c, 0, 50, 110
3, 148668, Note_on_c, 0, 50, 0
3, 148680, Note_on_c, 0, 46, 110
3, 148728, Note_on_c, 0, 46, 0
3, 148740, Note_on_c, 0, 50, 110
3, 148788, Note_on_c, 0, 50, 0
3, 148800, Note_on_c, 0, 51, 110
3, 148848, Note_on_c, 0, 51, 0
3, 148860, Note_on_c, 0, 55, 110
3, 148908, Note_on_c, 0, 55, 0
3, 148920, Note_on_c, 0, 51, 110
3, 148968, Note_on_c, 0, 51, 0
3, 148980, Note_on_c, 0, 55, 110
3, 149028, Note_on_c, 0, 55, 0
3, 149040, Note_on_c, 0, 48, 110
3, 149088, Note_on_c, 0, 48, 0
3, 149100, Note_on_c, 0, 51, 110
3, 149148, Note_on_c, 0, 51, 0
3, 149160, Note_on_c, 0, 48, 110
3, 149208, Note_on_c, 0, 48, 0
3, 149220, Note_on_c, 0, 51, 110
3, 149268, Note_on_c, 0, 51, 0
3, 149280, Note_on_c, 0, 45, 110
3, 149328, Note_on_c, 0, 45, 0
3, 149340, Note_on_c, 0, 48, 110
3, 149388, Note_on_c, 0, 48, 0
3, 149400, Note_on_c, 0, 45, 110
3, 149448, Note_on_c, 0, 45, 0
3, 149460, Note_on_c, 0, 48, 110
3, 149508, Note_on_c, 0, 48, 0
3, 149520, Note_on_c, 0, 46, 110
3, 149808, Note_on_c, 0, 46, 0
3, 149820, Note_on_c, 0, 50, 110
3, 149868, Note_on_c, 0, 50, 0
3, 149880, Note_on_c, 0, 48, 110
3, 149928, Note_on_c, 0, 48, 0
3, 149940, Note_on_c, 0, 51, 110
3, 149988, Note_on_c, 0, 51, 0
3, 150000, Note_on_c, 0, 50, 110
3, 150048, Note_on_c, 0, 50, 0
3, 150060, Note_on_c, 0, 53, 110
3, 150108, Note_on_c, 0, 53, 0
3, 150120, Note_on_c, 0, 51, 110
3, 150168, Note_on_c, 0, 51, 0
3, 150180, Note_on_c, 0, 55, 110
3, 150228, Note_on_c, 0, 55, 0
3, 150240, Note_on_c, 0, 53, 110
3, 150288, Note_on_c, 0, 53, 0
3, 150300, Note_on_c, 0, 55, 110
3, 150348, Note_on_c, 0, 55, 0
3, 150360, Note_on_c, 0, 53, 110
3, 150408, Note_on_c, 0, 53, 0
3, 150420, Note_on_c, 0, 51, 110
3, 150468, Note_on_c, 0, 51, 0
3, 150480, Note_on_c, 0, 50, 110
3, 150528, Note_on_c, 0, 50, 0
3, 150540, Note_on_c, 0, 53, 110
3, 150588, Note_on_c, 0, 53, 0
3, 150600, Note_on_c, 0, 51, 110
3, 150648, Note_on_c, 0, 51, 0
3, 150660, Note_on_c, 0, 53, 110
3, 150708, Note_on_c, 0, 53, 0
3, 150720, Note_on_c, 0, 46, 110
3, 150768, Note_on_c, 0, 46, 0
3, 150780, Note_on_c, 0, 58, 110
3, 150828, Note_on_c, 0, 58, 0
3, 150840, Note_on_c, 0, 57, 110
3, 150888, Note_on_c, 0, 57, 0
3, 150900, Note_on_c, 0, 58, 110
3, 150948, Note_on_c, 0, 58, 0
3, 150960, Note_on_c, 0, 55, 110
3, 151008, Note_on_c, 0, 55, 0
3, 151020, Note_on_c, 0, 58, 110
3, 151068, Note_on_c, 0, 58, 0
3, 151080, Note_on_c, 0, 55, 110
3, 151128, Note_on_c, 0, 55, 0
3, 151140, Note_on_c, 0, 58, 110
3, 151188, Note_on_c, 0, 58, 0
3, 151200, Note_on_c, 0, 55, 110
3, 151248, Note_on_c, 0, 55, 0
3, 151260, Note_on_c, 0, 56, 110
3, 151308, Note_on_c, 0, 56, 0
3, 151320, Note_on_c, 0, 55, 110
3, 151368, Note_on_c, 0, 55, 0
3, 151380, Note_on_c, 0, 56, 110
3, 151428, Note_on_c, 0, 56, 0
3, 151440, Note_on_c, 0, 53, 110
3, 151488, Note_on_c, 0, 53, 0
3, 151500, Note_on_c, 0, 56, 110
3, 151548, Note_on_c, 0, 56, 0
3, 151560, Note_on_c, 0, 53, 110
3, 151608, Note_on_c, 0, 53, 0
3, 151620, Note_on_c, 0, 56, 110
3, 151668, Note_on_c, 0, 56, 0
3, 151680, Note_on_c, 0, 51, 110
3, 151728, Note_on_c, 0, 51, 0
3, 151740, Note_on_c, 0, 55, 110
3, 151788, Note_on_c, 0, 55, 0
3, 151800, Note_on_c, 0, 53, 110
3, 151848, Note_on_c, 0, 53, 0
3, 151860, Note_on_c, 0, 56, 110
3, 151908, Note_on_c, 0, 56, 0
3, 151920, Note_on_c, 0, 55, 110
3, 151968, Note_on_c, 0, 55, 0
3, 151980, Note_on_c, 0, 58, 110
3, 152028, Note_on_c, 0, 58, 0
3, 152040, Note_on_c, 0, 51, 110
3, 152088, Note_on_c, 0, 51, 0
3, 152100, Note_on_c, 0, 55, 110
3, 152148, Note_on_c, 0, 55, 0
3, 152160, Note_on_c, 0, 48, 110
3, 152208, Note_on_c, 0, 48, 0
3, 152220, Note_on_c, 0, 51, 110
3, 152268, Note_on_c, 0, 51, 0
3, 152280, Note_on_c, 0, 50, 110
3, 152328, Note_on_c, 0, 50, 0
3, 152340, Note_on_c, 0, 48, 110
3, 152388, Note_on_c, 0, 48, 0
3, 152400, Note_on_c, 0, 46, 110
3, 152496, Note_on_c, 0, 46, 0
3, 152520, Note_on_c, 0, 58, 110
3, 152616, Note_on_c, 0, 58, 0
3, 152640, Note_on_c, 0, 60, 110
3, 152736, Note_on_c, 0, 60, 0
3, 152760, Note_on_c, 0, 60, 110
3, 152856, Note_on_c, 0, 60, 0
3, 152880, Note_on_c, 0, 62, 110
3, 152976, Note_on_c, 0, 62, 0
3, 153000, Note_on_c, 0, 62, 110
3, 153096, Note_on_c, 0, 62, 0
3, 153120, Note_on_c, 0, 63, 110
3, 153216, Note_on_c, 0, 63, 0
3, 153240, Note_on_c, 0, 51, 110
3, 153336, Note_on_c, 0, 51, 0
3, 153360, Note_on_c, 0, 53, 110
3, 153456, Note_on_c, 0, 53, 0
3, 153480, Note_on_c, 0, 53, 110
3, 153576, Note_on_c, 0, 53, 0
3, 153600, Note_on_c, 0, 55, 110
3, 153696, Note_on_c, 0, 55, 0
3, 153720, Note_on_c, 0, 55, 110
3, 153816, Note_on_c, 0, 55, 0
3, 153840, Note_on_c, 0, 56, 110
3, 153936, Note_on_c, 0, 56, 0
3, 153960, Note_on_c, 0, 68, 110
3, 154056, Note_on_c, 0, 68, 0
3, 154080, Note_on_c, 0, 62, 110
3, 154176, Note_on_c, 0, 62, 0
3, 154200, Note_on_c, 0, 62, 110
3, 154296, Note_on_c, 0, 62, 0
3, 154320, Note_on_c, 0, 64, 110
3, 154416, Note_on_c, 0, 64, 0
3, 154440, Note_on_c, 0, 64, 110
3, 154536, Note_on_c, 0, 64, 0
3, 154560, Note_on_c, 0, 65, 110
3, 154752, Note_on_c, 0, 65, 0
3, 154860, Note_on_c, 0, 67, 110
3, 154908, Note_on_c, 0, 67, 0
3, 154920, Note_on_c, 0, 65, 110
3, 154968, Note_on_c, 0, 65, 0
3, 154980, Note_on_c, 0, 67, 110
3, 155028, Note_on_c, 0, 67, 0
3, 155040, Note_on_c, 0, 63, 110
3, 155088, Note_on_c, 0, 63, 0
3, 155100, Note_on_c, 0, 68, 110
3, 155148, Note_on_c, 0, 68, 0
3, 155160, Note_on_c, 0, 67, 110
3, 155208, Note_on_c, 0, 67, 0
3, 155220, Note_on_c, 0, 68, 110
3, 155268, Note_on_c, 0, 68, 0
3, 155280, Note_on_c, 0, 62, 110
3, 155472, Note_on_c, 0, 62, 0
3, 155580, Note_on_c, 0, 65, 110
3, 155628, Note_on_c, 0, 65, 0
3, 155640, Note_on_c, 0, 63, 110
3, 155688, Note_on_c, 0, 63, 0
3, 155700, Note_on_c, 0, 65, 110
3, 155748, Note_on_c, 0, 65, 0
3, 155760, Note_on_c, 0, 62, 110
3, 155808, Note_on_c, 0, 62, 0
3, 155820, Note_on_c, 0, 67, 110
3, 155868, Note_on_c, 0, 67, 0
3, 155880, Note_on_c, 0, 65, 110
3, 155928, Note_on_c, 0, 65, 0
3, 155940, Note_on_c, 0, 67, 110
3, 155988, Note_on_c, 0, 67, 0
3, 156000, Note_on_c, 0, 60, 110
3, 156192, Note_on_c, 0, 60, 0
3, 156240, Note_on_c, 0, 69, 110
3, 156432, Note_on_c, 0, 69, 0
3, 156480, Note_on_c, 0, 65, 110
3, 156672, Note_on_c, 0, 65, 0
3, 156720, Note_on_c, 0, 58, 110
3, 156912, Note_on_c, 0, 58, 0
3, 156960, Note_on_c, 0, 60, 110
3, 157152, Note_on_c, 0, 60, 0
3, 157200, Note_on_c, 0, 62, 110
3, 157392, Note_on_c, 0, 62, 0
3, 157440, Note_on_c, 0, 63, 110
3, 157632, Note_on_c, 0, 63, 0
3, 157680, Note_on_c, 0, 62, 110
3, 157872, Note_on_c, 0, 62, 0
3, 157920, Note_on_c, 0, 60, 110
3, 158112, Note_on_c, 0, 60, 0
3, 158160, Note_on_c, 0, 62, 110
3, 158352, Note_on_c, 0, 62, 0
3, 158400, Note_on_c, 0, 60, 110
3, 158592, Note_on_c, 0, 60, 0
3, 158640, Note_on_c, 0, 58, 110
3, 158688, Note_on_c, 0, 58, 0
3, 158700, Note_on_c, 0, 57, 110
3, 158748, Note_on_c, 0, 57, 0
3, 158760, Note_on_c, 0, 55, 110
3, 158808, Note_on_c, 0, 55, 0
3, 158820, Note_on_c, 0, 57, 110
3, 158868, Note_on_c, 0, 57, 0
3, 158880, Note_on_c, 0, 58, 110
3, 158928, Note_on_c, 0, 58, 0
3, 158940, Note_on_c, 0, 62, 110
3, 158988, Note_on_c, 0, 62, 0
3, 159000, Note_on_c, 0, 60, 110
3, 159048, Note_on_c, 0, 60, 0
3, 159060, Note_on_c, 0, 63, 110
3, 159108, Note_on_c, 0, 63, 0
3, 159120, Note_on_c, 0, 62, 110
3, 159312, Note_on_c, 0, 62, 0
3, 159360, Note_on_c, 0, 62, 110
3, 159696, Note_on_c, 0, 62, 0
3, 159720, Note_on_c, 0, 55, 110
3, 159816, Note_on_c, 0, 55, 0
3, 159840, Note_on_c, 0, 60, 110
3, 160032, Note_on_c, 0, 60, 0
3, 160080, Note_on_c, 0, 54, 110
3, 160272, Note_on_c, 0, 54, 0
3, 160320, Note_on_c, 0, 55, 110
3, 160512, Note_on_c, 0, 55, 0
3, 160560, Note_on_c, 0, 60, 110
3, 160656, Note_on_c, 0, 60, 0
3, 160680, Note_on_c, 0, 62, 110
3, 160776, Note_on_c, 0, 62, 0
3, 160800, Note_on_c, 0, 63, 110
3, 160992, Note_on_c, 0, 63, 0
3, 161040, Note_on_c, 0, 62, 110
3, 161808, Note_on_c, 0, 62, 0
3, 161820, Note_on_c, 0, 65, 110
3, 161868, Note_on_c, 0, 65, 0
3, 161880, Note_on_c, 0, 63, 110
3, 161928, Note_on_c, 0, 63, 0
3, 161940, Note_on_c, 0, 67, 110
3, 161988, Note_on_c, 0, 67, 0
3, 162000, Note_on_c, 0, 65, 110
3, 162048, Note_on_c, 0, 65, 0
3, 162060, Note_on_c, 0, 67, 110
3, 162108, Note_on_c, 0, 67, 0
3, 162120, Note_on_c, 0, 63, 110
3, 162168, Note_on_c, 0, 63, 0
3, 162180, Note_on_c, 0, 65, 110
3, 162228, Note_on_c, 0, 65, 0
3, 162240, Note_on_c, 0, 67, 110
3, 162336, Note_on_c, 0, 67, 0
3, 162360, Note_on_c, 0, 60, 110
3, 162528, Note_on_c, 0, 60, 0
3, 162540, Note_on_c, 0, 63, 110
3, 162588, Note_on_c, 0, 63, 0
3, 162600, Note_on_c, 0, 62, 110
3, 162648, Note_on_c, 0, 62, 0
3, 162660, Note_on_c, 0, 65, 110
3, 162708, Note_on_c, 0, 65, 0
3, 162720, Note_on_c, 0, 63, 110
3, 162768, Note_on_c, 0, 63, 0
3, 162780, Note_on_c, 0, 65, 110
3, 162828, Note_on_c, 0, 65, 0
3, 162840, Note_on_c, 0, 62, 110
3, 162888, Note_on_c, 0, 62, 0
3, 162900, Note_on_c, 0, 63, 110
3, 162948, Note_on_c, 0, 63, 0
3, 162960, Note_on_c, 0, 65, 110
3, 163056, Note_on_c, 0, 65, 0
3, 163080, Note_on_c, 0, 58, 110
3, 163248, Note_on_c, 0, 58, 0
3, 163260, Note_on_c, 0, 62, 110
3, 163308, Note_on_c, 0, 62, 0
3, 163320, Note_on_c, 0, 60, 110
3, 163368, Note_on_c, 0, 60, 0
3, 163380, Note_on_c, 0, 63, 110
3, 163428, Note_on_c, 0, 63, 0
3, 163440, Note_on_c, 0, 62, 110
3, 163488, Note_on_c, 0, 62, 0
3, 163500, Note_on_c, 0, 63, 110
3, 163548, Note_on_c, 0, 63, 0
3, 163560, Note_on_c, 0, 60, 110
3, 163608, Note_on_c, 0, 60, 0
3, 163620, Note_on_c, 0, 62, 110
3, 163668, Note_on_c, 0, 62, 0
3, 163680, Note_on_c, 0, 63, 110
3, 163776, Note_on_c, 0, 63, 0
3, 163800, Note_on_c, 0, 57, 110
3, 164016, Note_on_c, 0, 57, 0
3, 164040, Note_on_c, 0, 60, 110
3, 164136, Note_on_c, 0, 60, 0
3, 164160, Note_on_c, 0, 58, 110
3, 164256, Note_on_c, 0, 58, 0
3, 164280, Note_on_c, 0, 57, 110
3, 164376, Note_on_c, 0, 57, 0
3, 164400, Note_on_c, 0, 55, 110
3, 164448, Note_on_c, 0, 55, 0
3, 164460, Note_on_c, 0, 58, 110
3, 164508, Note_on_c, 0, 58, 0
3, 164520, Note_on_c, 0, 55, 110
3, 164568, Note_on_c, 0, 55, 0
3, 164580, Note_on_c, 0, 58, 110
3, 164628, Note_on_c, 0, 58, 0
3, 164640, Note_on_c, 0, 60, 110
3, 164688, Note_on_c, 0, 60, 0
3, 164700, Note_on_c, 0, 63, 110
3, 164748, Note_on_c, 0, 63, 0
3, 164760, Note_on_c, 0, 60, 110
3, 164808, Note_on_c, 0, 60, 0
3, 164820, Note_on_c, 0, 63, 110
3, 164868, Note_on_c, 0, 63, 0
3, 164880, Note_on_c, 0, 57, 110
3, 164928, Note_on_c, 0, 57, 0
3, 164940, Note_on_c, 0, 60, 110
3, 164988, Note_on_c, 0, 60, 0
3, 165000, Note_on_c, 0, 58, 110
3, 165048, Note_on_c, 0, 58, 0
3, 165060, Note_on_c, 0, 62, 110
3, 165108, Note_on_c, 0, 62, 0
3, 165120, Note_on_c, 0, 60, 110
3, 165216, Note_on_c, 0, 60, 0
3, 165240, Note_on_c, 0, 53, 110
3, 165336, Note_on_c, 0, 53, 0
3, 165360, Note_on_c, 0, 53, 110
3, 165456, Note_on_c, 0, 53, 0
3, 165480, Note_on_c, 0, 55, 110
3, 165576, Note_on_c, 0, 55, 0
3, 165600, Note_on_c, 0, 56, 110
3, 165888, Note_on_c, 0, 56, 0
3, 165900, Note_on_c, 0, 55, 110
3, 165948, Note_on_c, 0, 55, 0
3, 165960, Note_on_c, 0, 50, 110
3, 166008, Note_on_c, 0, 50, 0
3, 166020, Note_on_c, 0, 53, 110
3, 166068, Note_on_c, 0, 53, 0
3, 166080, Note_on_c, 0, 51, 110
3, 166128, Note_on_c, 0, 51, 0
3, 166140, Note_on_c, 0, 55, 110
3, 166188, Note_on_c, 0, 55, 0
3, 166200, Note_on_c, 0, 53, 110
3, 166248, Note_on_c, 0, 53, 0
3, 166260, Note_on_c, 0, 56, 110
3, 166308, Note_on_c, 0, 56, 0
3, 166320, Note_on_c, 0, 55, 110
3, 166368, Note_on_c, 0, 55, 0
3, 166380, Note_on_c, 0, 56, 110
3, 166428, Note_on_c, 0, 56, 0
3, 166440, Note_on_c, 0, 53, 110
3, 166488, Note_on_c, 0, 53, 0
3, 166500, Note_on_c, 0, 55, 110
3, 166548, Note_on_c, 0, 55, 0
3, 166560, Note_on_c, 0, 56, 110
3, 166752, Note_on_c, 0, 56, 0
3, 166800, Note_on_c, 0, 50, 110
3, 166896, Note_on_c, 0, 50, 0
3, 168000, Note_on_c, 0, 48, 110
3, 168192, Note_on_c, 0, 48, 0
3, 168240, Note_on_c, 0, 55, 110
3, 168624, Note_on_c, 0, 55, 0
3, 168720, Note_on_c, 0, 51, 110
3, 168912, Note_on_c, 0, 51, 0
3, 168960, Note_on_c, 0, 53, 110
3, 169344, Note_on_c, 0, 53, 0
3, 169440, Note_on_c, 0, 55, 110
3, 169632, Note_on_c, 0, 55, 0
3, 169680, Note_on_c, 0, 56, 110
3, 170064, Note_on_c, 0, 56, 0
3, 170160, Note_on_c, 0, 53, 110
3, 170352, Note_on_c, 0, 53, 0
3, 170400, Note_on_c, 0, 55, 110
3, 170448, Note_on_c, 0, 55, 0
3, 170460, Note_on_c, 0, 58, 110
3, 170508, Note_on_c, 0, 58, 0
3, 170520, Note_on_c, 0, 56, 110
3, 170568, Note_on_c, 0, 56, 0
3, 170580, Note_on_c, 0, 58, 110
3, 170628, Note_on_c, 0, 58, 0
3, 170700, Note_on_c, 0, 60, 110
3, 170748, Note_on_c, 0, 60, 0
3, 170760, Note_on_c, 0, 58, 110
3, 170808, Note_on_c, 0, 58, 0
3, 170820, Note_on_c, 0, 60, 110
3, 170868, Note_on_c, 0, 60, 0
3, 170940, Note_on_c, 0, 62, 110
3, 170988, Note_on_c, 0, 62, 0
3, 171000, Note_on_c, 0, 60, 110
3, 171048, Note_on_c, 0, 60, 0
3, 171060, Note_on_c, 0, 62, 110
3, 171108, Note_on_c, 0, 62, 0
3, 171180, Note_on_c, 0, 63, 110
3, 171228, Note_on_c, 0, 63, 0
3, 171240, Note_on_c, 0, 65, 110
3, 171288, Note_on_c, 0, 65, 0
3, 171300, Note_on_c, 0, 63, 110
3, 171348, Note_on_c, 0, 63, 0
3, 171420, Note_on_c, 0, 62, 110
3, 171468, Note_on_c, 0, 62, 0
3, 171480, Note_on_c, 0, 60, 110
3, 171528, Note_on_c, 0, 60, 0
3, 171540, Note_on_c, 0, 62, 110
3, 171588, Note_on_c, 0, 62, 0
3, 171660, Note_on_c, 0, 59, 110
3, 171708, Note_on_c, 0, 59, 0
3, 171720, Note_on_c, 0, 57, 110
3, 171768, Note_on_c, 0, 57, 0
3, 171780, Note_on_c, 0, 59, 110
3, 171828, Note_on_c, 0, 59, 0
3, 171840, Note_on_c, 0, 60, 110
3, 171936, Note_on_c, 0, 60, 0
3, 172440, Note_on_c, 0, 65, 110
3, 172536, Note_on_c, 0, 65, 0
3, 172560, Note_on_c, 0, 58, 110
3, 172608, Note_on_c, 0, 58, 0
3, 172620, Note_on_c, 0, 62, 110
3, 172668, Note_on_c, 0, 62, 0
3, 172680, Note_on_c, 0, 60, 110
3, 172728, Note_on_c, 0, 60, 0
3, 172740, Note_on_c, 0, 63, 110
3, 172788, Note_on_c, 0, 63, 0
3, 172800, Note_on_c, 0, 62, 110
3, 172848, Note_on_c, 0, 62, 0
3, 172860, Note_on_c, 0, 65, 110
3, 172908, Note_on_c, 0, 65, 0
3, 172920, Note_on_c, 0, 63, 110
3, 172968, Note_on_c, 0, 63, 0
3, 172980, Note_on_c, 0, 67, 110
3, 173028, Note_on_c, 0, 67, 0
3, 173040, Note_on_c, 0, 65, 110
3, 173088, Note_on_c, 0, 65, 0
3, 173100, Note_on_c, 0, 68, 110
3, 173148, Note_on_c, 0, 68, 0
3, 173160, Note_on_c, 0, 67, 110
3, 173208, Note_on_c, 0, 67, 0
3, 173220, Note_on_c, 0, 70, 110
3, 173268, Note_on_c, 0, 70, 0
3, 173280, Note_on_c, 0, 68, 110
3, 173376, Note_on_c, 0, 68, 0
3, 173880, Note_on_c, 0, 62, 110
3, 173976, Note_on_c, 0, 62, 0
3, 174000, Note_on_c, 0, 55, 110
3, 174048, Note_on_c, 0, 55, 0
3, 174060, Note_on_c, 0, 58, 110
3, 174108, Note_on_c, 0, 58, 0
3, 174120, Note_on_c, 0, 57, 110
3, 174168, Note_on_c, 0, 57, 0
3, 174180, Note_on_c, 0, 60, 110
3, 174228, Note_on_c, 0, 60, 0
3, 174240, Note_on_c, 0, 58, 110
3, 174288, Note_on_c, 0, 58, 0
3, 174300, Note_on_c, 0, 62, 110
3, 174348, Note_on_c, 0, 62, 0
3, 174360, Note_on_c, 0, 60, 110
3, 174408, Note_on_c, 0, 60, 0
3, 174420, Note_on_c, 0, 63, 110
3, 174468, Note_on_c, 0, 63, 0
3, 174480, Note_on_c, 0, 62, 110
3, 174528, Note_on_c, 0, 62, 0
3, 174540, Note_on_c, 0, 65, 110
3, 174588, Note_on_c, 0, 65, 0
3, 174600, Note_on_c, 0, 64, 110
3, 174648, Note_on_c, 0, 64, 0
3, 174660, Note_on_c, 0, 67, 110
3, 174708, Note_on_c, 0, 67, 0
3, 174720, Note_on_c, 0, 65, 110
3, 174816, Note_on_c, 0, 65, 0
3, 175080, Note_on_c, 0, 58, 110
3, 175248, Note_on_c, 0, 58, 0
3, 175260, Note_on_c, 0, 60, 110
3, 175308, Note_on_c, 0, 60, 0
3, 175320, Note_on_c, 0, 58, 110
3, 175368, Note_on_c, 0, 58, 0
3, 175380, Note_on_c, 0, 56, 110
3, 175428, Note_on_c, 0, 56, 0
3, 175440, Note_on_c, 0, 55, 110
3, 175488, Note_on_c, 0, 55, 0
3, 175500, Note_on_c, 0, 58, 110
3, 175548, Note_on_c, 0, 58, 0
3, 175560, Note_on_c, 0, 56, 110
3, 175608, Note_on_c, 0, 56, 0
3, 175620, Note_on_c, 0, 60, 110
3, 175668, Note_on_c, 0, 60, 0
3, 175680, Note_on_c, 0, 58, 110
3, 175872, Note_on_c, 0, 58, 0
3, 175920, Note_on_c, 0, 60, 110
3, 175968, Note_on_c, 0, 60, 0
3, 175980, Note_on_c, 0, 62, 110
3, 176028, Note_on_c, 0, 62, 0
3, 176040, Note_on_c, 0, 58, 110
3, 176088, Note_on_c, 0, 58, 0
3, 176100, Note_on_c, 0, 60, 110
3, 176148, Note_on_c, 0, 60, 0
3, 176160, Note_on_c, 0, 57, 110
3, 176208, Note_on_c, 0, 57, 0
3, 176220, Note_on_c, 0, 58, 110
3, 176268, Note_on_c, 0, 58, 0
3, 176280, Note_on_c, 0, 55, 110
3, 176328, Note_on_c, 0, 55, 0
3, 176340, Note_on_c, 0, 57, 110
3, 176388, Note_on_c, 0, 57, 0
3, 176400, Note_on_c, 0, 54, 110
3, 176592, Note_on_c, 0, 54, 0
3, 176640, Note_on_c, 0, 55, 110
3, 176688, Note_on_c, 0, 55, 0
3, 176700, Note_on_c, 0, 57, 110
3, 176748, Note_on_c, 0, 57, 0
3, 176760, Note_on_c, 0, 54, 110
3, 176808, Note_on_c, 0, 54, 0
3, 176820, Note_on_c, 0, 55, 110
3, 176868, Note_on_c, 0, 55, 0
3, 176880, Note_on_c, 0, 57, 110
3, 176976, Note_on_c, 0, 57, 0
3, 177000, Note_on_c, 0, 58, 110
3, 177096, Note_on_c, 0, 58, 0
3, 177120, Note_on_c, 0, 54, 110
3, 177216, Note_on_c, 0, 54, 0
3, 177240, Note_on_c, 0, 54, 110
3, 177336, Note_on_c, 0, 54, 0
3, 177360, Note_on_c, 0, 55, 110
3, 177456, Note_on_c, 0, 55, 0
3, 177480, Note_on_c, 0, 55, 110
3, 177576, Note_on_c, 0, 55, 0
3, 177720, Note_on_c, 0, 63, 110
3, 177816, Note_on_c, 0, 63, 0
3, 177840, Note_on_c, 0, 57, 110
3, 177936, Note_on_c, 0, 57, 0
3, 177960, Note_on_c, 0, 57, 110
3, 178056, Note_on_c, 0, 57, 0
3, 178080, Note_on_c, 0, 59, 110
3, 178176, Note_on_c, 0, 59, 0
3, 178200, Note_on_c, 0, 59, 110
3, 178296, Note_on_c, 0, 59, 0
3, 178440, Note_on_c, 0, 60, 110
3, 178536, Note_on_c, 0, 60, 0
3, 178560, Note_on_c, 0, 55, 110
3, 178656, Note_on_c, 0, 55, 0
3, 178680, Note_on_c, 0, 55, 110
3, 178776, Note_on_c, 0, 55, 0
3, 178800, Note_on_c, 0, 57, 110
3, 178896, Note_on_c, 0, 57, 0
3, 178920, Note_on_c, 0, 57, 110
3, 179016, Note_on_c, 0, 57, 0
3, 179040, Note_on_c, 0, 58, 110
3, 179184, Note_on_c, 0, 58, 0
3, 179220, Note_on_c, 0, 57, 110
3, 179244, Note_on_c, 0, 57, 0
3, 179250, Note_on_c, 0, 55, 110
3, 179274, Note_on_c, 0, 55, 0
3, 179280, Note_on_c, 0, 57, 110
3, 179328, Note_on_c, 0, 57, 0
3, 179340, Note_on_c, 0, 62, 110
3, 179388, Note_on_c, 0, 62, 0
3, 179400, Note_on_c, 0, 60, 110
3, 179448, Note_on_c, 0, 60, 0
3, 179460, Note_on_c, 0, 62, 110
3, 179508, Note_on_c, 0, 62, 0
3, 179520, Note_on_c, 0, 58, 110
3, 179616, Note_on_c, 0, 58, 0
3, 179640, Note_on_c, 0, 59, 110
3, 179736, Note_on_c, 0, 59, 0
3, 179760, Note_on_c, 0, 60, 110
3, 180048, Note_on_c, 0, 60, 0
3, 180120, Note_on_c, 0, 62, 110
3, 180312, Note_on_c, 0, 62, 0
3, 180360, Note_on_c, 0, 58, 110
3, 180576, Note_on_c, 0, 58, 0
3, 180600, Note_on_c, 0, 57, 110
3, 180792, Note_on_c, 0, 57, 0
3, 180840, Note_on_c, 0, 55, 110
3, 181032, Note_on_c, 0, 55, 0
3, 181080, Note_on_c, 0, 54, 110
3, 181176, Note_on_c, 0, 54, 0
3, 181200, Note_on_c, 0, 55, 110
3, 181488, Note_on_c, 0, 55, 0
3, 181500, Note_on_c, 0, 58, 110
3, 181548, Note_on_c, 0, 58, 0
3, 181560, Note_on_c, 0, 57, 110
3, 181608, Note_on_c, 0, 57, 0
3, 181620, Note_on_c, 0, 55, 110
3, 181668, Note_on_c, 0, 55, 0
3, 181680, Note_on_c, 0, 54, 110
3, 181824, Note_on_c, 0, 54, 0
3, 181860, Note_on_c, 0, 55, 110
3, 181908, Note_on_c, 0, 55, 0
3, 181920, Note_on_c, 0, 55, 110
3, 182208, Note_on_c, 0, 55, 0
3, 182280, Note_on_c, 0, 57, 110
3, 182376, Note_on_c, 0, 57, 0
3, 182400, Note_on_c, 0, 59, 110
3, 182592, Note_on_c, 0, 59, 0
3, 182640, Note_on_c, 0, 60, 110
3, 182688, Note_on_c, 0, 60, 0
3, 182700, Note_on_c, 0, 63, 110
3, 182748, Note_on_c, 0, 63, 0
3, 182760, Note_on_c, 0, 62, 110
3, 182808, Note_on_c, 0, 62, 0
3, 182820, Note_on_c, 0, 65, 110
3, 182868, Note_on_c, 0, 65, 0
3, 182880, Note_on_c, 0, 63, 110
3, 182928, Note_on_c, 0, 63, 0
3, 182940, Note_on_c, 0, 67, 110
3, 182988, Note_on_c, 0, 67, 0
3, 183000, Note_on_c, 0, 65, 110
3, 183048, Note_on_c, 0, 65, 0
3, 183060, Note_on_c, 0, 68, 110
3, 183108, Note_on_c, 0, 68, 0
3, 183120, Note_on_c, 0, 67, 110
3, 183168, Note_on_c, 0, 67, 0
3, 183180, Note_on_c, 0, 70, 110
3, 183228, Note_on_c, 0, 70, 0
3, 183240, Note_on_c, 0, 68, 110
3, 183288, Note_on_c, 0, 68, 0
3, 183300, Note_on_c, 0, 67, 110
3, 183348, Note_on_c, 0, 67, 0
3, 183360, Note_on_c, 0, 68, 110
3, 183456, Note_on_c, 0, 68, 0
3, 183480, Note_on_c, 0, 64, 110
3, 183576, Note_on_c, 0, 64, 0
3, 183600, Note_on_c, 0, 65, 110
3, 183648, Note_on_c, 0, 65, 0
3, 183660, Note_on_c, 0, 68, 110
3, 183708, Note_on_c, 0, 68, 0
3, 183720, Note_on_c, 0, 67, 110
3, 183768, Note_on_c, 0, 67, 0
3, 183780, Note_on_c, 0, 70, 110
3, 183828, Note_on_c, 0, 70, 0
3, 183840, Note_on_c, 0, 68, 110
3, 183936, Note_on_c, 0, 68, 0
3, 184380, Note_on_c, 0, 60, 110
3, 184428, Note_on_c, 0, 60, 0
3, 184440, Note_on_c, 0, 58, 110
3, 184488, Note_on_c, 0, 58, 0
3, 184500, Note_on_c, 0, 60, 110
3, 184548, Note_on_c, 0, 60, 0
3, 184560, Note_on_c, 0, 53, 110
3, 184608, Note_on_c, 0, 53, 0
3, 184620, Note_on_c, 0, 65, 110
3, 184668, Note_on_c, 0, 65, 0
3, 184680, Note_on_c, 0, 63, 110
3, 184728, Note_on_c, 0, 63, 0
3, 184740, Note_on_c, 0, 65, 110
3, 184788, Note_on_c, 0, 65, 0
3, 184800, Note_on_c, 0, 61, 110
3, 184848, Note_on_c, 0, 61, 0
3, 184860, Note_on_c, 0, 65, 110
3, 184908, Note_on_c, 0, 65, 0
3, 184920, Note_on_c, 0, 61, 110
3, 184968, Note_on_c, 0, 61, 0
3, 184980, Note_on_c, 0, 65, 110
3, 185028, Note_on_c, 0, 65, 0
3, 185040, Note_on_c, 0, 61, 110
3, 185088, Note_on_c, 0, 61, 0
3, 185100, Note_on_c, 0, 63, 110
3, 185148, Note_on_c, 0, 63, 0
3, 185160, Note_on_c, 0, 61, 110
3, 185208, Note_on_c, 0, 61, 0
3, 185220, Note_on_c, 0, 63, 110
3, 185268, Note_on_c, 0, 63, 0
3, 185280, Note_on_c, 0, 60, 110
3, 185328, Note_on_c, 0, 60, 0
3, 185340, Note_on_c, 0, 63, 110
3, 185388, Note_on_c, 0, 63, 0
3, 185400, Note_on_c, 0, 60, 110
3, 185448, Note_on_c, 0, 60, 0
3, 185460, Note_on_c, 0, 63, 110
3, 185508, Note_on_c, 0, 63, 0
3, 185520, Note_on_c, 0, 58, 110
3, 185568, Note_on_c, 0, 58, 0
3, 185580, Note_on_c, 0, 61, 110
3, 185628, Note_on_c, 0, 61, 0
3, 185640, Note_on_c, 0, 60, 110
3, 185688, Note_on_c, 0, 60, 0
3, 185700, Note_on_c, 0, 63, 110
3, 185748, Note_on_c, 0, 63, 0
3, 185760, Note_on_c, 0, 61, 110
3, 185808, Note_on_c, 0, 61, 0
3, 185820, Note_on_c, 0, 63, 110
3, 185868, Note_on_c, 0, 63, 0
3, 185880, Note_on_c, 0, 61, 110
3, 185928, Note_on_c, 0, 61, 0
3, 185940, Note_on_c, 0, 63, 110
3, 185988, Note_on_c, 0, 63, 0
3, 186000, Note_on_c, 0, 61, 110
3, 186048, Note_on_c, 0, 61, 0
3, 186060, Note_on_c, 0, 63, 110
3, 186108, Note_on_c, 0, 63, 0
3, 186120, Note_on_c, 0, 61, 110
3, 186168, Note_on_c, 0, 61, 0
3, 186180, Note_on_c, 0, 63, 110
3, 186228, Note_on_c, 0, 63, 0
3, 186240, Note_on_c, 0, 60, 110
3, 187008, Note_on_c, 0, 60, 0
3, 187020, Note_on_c, 0, 64, 110
3, 187068, Note_on_c, 0, 64, 0
3, 187080, Note_on_c, 0, 65, 110
3, 187128, Note_on_c, 0, 65, 0
3, 187140, Note_on_c, 0, 67, 110
3, 187188, Note_on_c, 0, 67, 0
3, 187200, Note_on_c, 0, 68, 110
3, 187296, Note_on_c, 0, 68, 0
3, 187320, Note_on_c, 0, 67, 110
3, 187368, Note_on_c, 0, 67, 0
3, 187380, Note_on_c, 0, 65, 110
3, 187428, Note_on_c, 0, 65, 0
3, 187440, Note_on_c, 0, 72, 110
3, 187632, Note_on_c, 0, 72, 0
3, 187680, Note_on_c, 0, 70, 110
3, 187776, Note_on_c, 0, 70, 0
3, 187800, Note_on_c, 0, 65, 110
3, 187896, Note_on_c, 0, 65, 0
3, 187920, Note_on_c, 0, 67, 110
3, 188208, Note_on_c, 0, 67, 0
3, 188220, Note_on_c, 0, 67, 110
3, 188268, Note_on_c, 0, 67, 0
3, 188280, Note_on_c, 0, 68, 110
3, 188328, Note_on_c, 0, 68, 0
3, 188340, Note_on_c, 0, 67, 110
3, 188388, Note_on_c, 0, 67, 0
3, 188400, Note_on_c, 0, 65, 110
3, 188784, Note_on_c, 0, 65, 0
3, 188880, Note_on_c, 0, 63, 110
3, 189216, Note_on_c, 0, 63, 0
3, 189240, Note_on_c, 0, 62, 110
3, 189288, Note_on_c, 0, 62, 0
3, 189300, Note_on_c, 0, 63, 110
3, 189348, Note_on_c, 0, 63, 0
3, 189360, Note_on_c, 0, 60, 110
3, 189408, Note_on_c, 0, 60, 0
3, 189420, Note_on_c, 0, 63, 110
3, 189468, Note_on_c, 0, 63, 0
3, 189480, Note_on_c, 0, 62, 110
3, 189528, Note_on_c, 0, 62, 0
3, 189540, Note_on_c, 0, 60, 110
3, 189588, Note_on_c, 0, 60, 0
3, 189600, Note_on_c, 0, 58, 110
3, 189792, Note_on_c, 0, 58, 0
3, 189900, Note_on_c, 0, 60, 110
3, 189948, Note_on_c, 0, 60, 0
3, 189960, Note_on_c, 0, 58, 110
3, 190008, Note_on_c, 0, 58, 0
3, 190020, Note_on_c, 0, 60, 110
3, 190068, Note_on_c, 0, 60, 0
3, 190080, Note_on_c, 0, 57, 110
3, 190128, Note_on_c, 0, 57, 0
3, 190140, Note_on_c, 0, 58, 110
3, 190188, Note_on_c, 0, 58, 0
3, 190200, Note_on_c, 0, 57, 110
3, 190248, Note_on_c, 0, 57, 0
3, 190260, Note_on_c, 0, 58, 110
3, 190308, Note_on_c, 0, 58, 0
3, 190320, Note_on_c, 0, 55, 110
3, 190512, Note_on_c, 0, 55, 0
3, 190620, Note_on_c, 0, 60, 110
3, 190668, Note_on_c, 0, 60, 0
3, 190680, Note_on_c, 0, 58, 110
3, 190728, Note_on_c, 0, 58, 0
3, 190740, Note_on_c, 0, 60, 110
3, 190788, Note_on_c, 0, 60, 0
3, 190800, Note_on_c, 0, 57, 110
3, 190848, Note_on_c, 0, 57, 0
3, 190860, Note_on_c, 0, 58, 110
3, 190908, Note_on_c, 0, 58, 0
3, 190920, Note_on_c, 0, 57, 110
3, 190968, Note_on_c, 0, 57, 0
3, 190980, Note_on_c, 0, 58, 110
3, 191028, Note_on_c, 0, 58, 0
3, 191040, Note_on_c, 0, 55, 110
3, 191232, Note_on_c, 0, 55, 0
3, 191340, Note_on_c, 0, 57, 110
3, 191388, Note_on_c, 0, 57, 0
3, 191400, Note_on_c, 0, 55, 110
3, 191448, Note_on_c, 0, 55, 0
3, 191460, Note_on_c, 0, 57, 110
3, 191508, Note_on_c, 0, 57, 0
3, 191520, Note_on_c, 0, 54, 110
3, 191616, Note_on_c, 0, 54, 0
3, 191640, Note_on_c, 0, 55, 110
3, 191832, Note_on_c, 0, 55, 0
3, 191880, Note_on_c, 0, 54, 110
3, 191976, Note_on_c, 0, 54, 0
3, 192000, Note_on_c, 0, 55, 110
3, 192192, Note_on_c, 0, 55, 0
3, 192720, Note_on_c, 0, 48, 110
3, 192768, Note_on_c, 0, 48, 0
3, 192780, Note_on_c, 0, 51, 110
3, 192828, Note_on_c, 0, 51, 0
3, 192840, Note_on_c, 0, 50, 110
3, 192888, Note_on_c, 0, 50, 0
3, 192900, Note_on_c, 0, 53, 110
3, 192948, Note_on_c, 0, 53, 0
3, 192960, Note_on_c, 0, 51, 110
3, 193008, Note_on_c, 0, 51, 0
3, 193020, Note_on_c, 0, 55, 110
3, 193068, Note_on_c, 0, 55, 0
3, 193080, Note_on_c, 0, 53, 110
3, 193128, Note_on_c, 0, 53, 0
3, 193140, Note_on_c, 0, 56, 110
3, 193188, Note_on_c, 0, 56, 0
3, 193200, Note_on_c, 0, 55, 110
3, 193248, Note_on_c, 0, 55, 0
3, 193260, Note_on_c, 0, 58, 110
3, 193308, Note_on_c, 0, 58, 0
3, 193320, Note_on_c, 0, 56, 110
3, 193368, Note_on_c, 0, 56, 0
3, 193380, Note_on_c, 0, 55, 110
3, 193428, Note_on_c, 0, 55, 0
3, 193440, Note_on_c, 0, 53, 110
3, 194928, Note_on_c, 0, 53, 0
3, 194940, Note_on_c, 0, 53, 110
3, 194988, Note_on_c, 0, 53, 0
3, 195000, Note_on_c, 0, 51, 110
3, 195048, Note_on_c, 0, 51, 0
3, 195060, Note_on_c, 0, 50, 110
3, 195108, Note_on_c, 0, 50, 0
3, 195120, Note_on_c, 0, 51, 110
3, 195216, Note_on_c, 0, 51, 0
3, 195240, Note_on_c, 0, 63, 110
3, 195408, Note_on_c, 0, 63, 0
3, 195420, Note_on_c, 0, 63, 110
3, 195468, Note_on_c, 0, 63, 0
3, 195480, Note_on_c, 0, 62, 110
3, 195528, Note_on_c, 0, 62, 0
3, 195540, Note_on_c, 0, 60, 110
3, 195588, Note_on_c, 0, 60, 0
3, 195600, Note_on_c, 0, 59, 110
3, 195648, Note_on_c, 0, 59, 0
3, 195660, Note_on_c, 0, 62, 110
3, 195708, Note_on_c, 0, 62, 0
3, 195720, Note_on_c, 0, 60, 110
3, 195768, Note_on_c, 0, 60, 0
3, 195780, Note_on_c, 0, 63, 110
3, 195828, Note_on_c, 0, 63, 0
3, 195840, Note_on_c, 0, 62, 110
3, 196032, Note_on_c, 0, 62, 0
3, 196140, Note_on_c, 0, 63, 110
3, 196188, Note_on_c, 0, 63, 0
3, 196200, Note_on_c, 0, 62, 110
3, 196248, Note_on_c, 0, 62, 0
3, 196260, Note_on_c, 0, 63, 110
3, 196308, Note_on_c, 0, 63, 0
3, 196320, Note_on_c, 0, 60, 110
3, 196512, Note_on_c, 0, 60, 0
3, 196560, Note_on_c, 0, 58, 110
3, 196752, Note_on_c, 0, 58, 0
3, 196800, Note_on_c, 0, 58, 110
3, 196992, Note_on_c, 0, 58, 0
3, 197040, Note_on_c, 0, 60, 110
3, 197232, Note_on_c, 0, 60, 0
3, 197280, Note_on_c, 0, 65, 110
3, 197328, Note_on_c, 0, 65, 0
3, 197340, Note_on_c, 0, 67, 110
3, 197388, Note_on_c, 0, 67, 0
3, 197400, Note_on_c, 0, 65, 110
3, 197448, Note_on_c, 0, 65, 0
3, 197460, Note_on_c, 0, 63, 110
3, 197508, Note_on_c, 0, 63, 0
3, 197520, Note_on_c, 0, 62, 110
3, 197616, Note_on_c, 0, 62, 0
3, 197640, Note_on_c, 0, 60, 110
3, 197808, Note_on_c, 0, 60, 0
3, 197820, Note_on_c, 0, 59, 110
3, 197868, Note_on_c, 0, 59, 0
3, 197880, Note_on_c, 0, 60, 110
3, 198048, Note_on_c, 0, 60, 0
3, 198060, Note_on_c, 0, 59, 110
3, 198108, Note_on_c, 0, 59, 0
3, 198120, Note_on_c, 0, 60, 110
3, 198168, Note_on_c, 0, 60, 0
3, 198180, Note_on_c, 0, 62, 110
3, 198228, Note_on_c, 0, 62, 0
3, 198240, Note_on_c, 0, 63, 110
3, 198288, Note_on_c, 0, 63, 0
3, 198300, Note_on_c, 0, 67, 110
3, 198348, Note_on_c, 0, 67, 0
3, 198360, Note_on_c, 0, 65, 110
3, 198408, Note_on_c, 0, 65, 0
3, 198420, Note_on_c, 0, 63, 110
3, 198468, Note_on_c, 0, 63, 0
3, 198480, Note_on_c, 0, 62, 110
3, 198672, Note_on_c, 0, 62, 0
3, 198720, Note_on_c, 0, 67, 110
3, 198816, Note_on_c, 0, 67, 0
3, 198840, Note_on_c, 0, 67, 110
3, 198936, Note_on_c, 0, 67, 0
3, 198960, Note_on_c, 0, 63, 110
3, 199056, Note_on_c, 0, 63, 0
3, 199080, Note_on_c, 0, 63, 110
3, 199176, Note_on_c, 0, 63, 0
3, 199200, Note_on_c, 0, 60, 110
3, 199392, Note_on_c, 0, 60, 0
3, 199440, Note_on_c, 0, 65, 110
3, 199536, Note_on_c, 0, 65, 0
3, 199560, Note_on_c, 0, 65, 110
3, 199656, Note_on_c, 0, 65, 0
3, 199680, Note_on_c, 0, 62, 110
3, 199776, Note_on_c, 0, 62, 0
3, 199800, Note_on_c, 0, 62, 110
3, 199896, Note_on_c, 0, 62, 0
3, 199920, Note_on_c, 0, 59, 110
3, 200112, Note_on_c, 0, 59, 0
3, 200160, Note_on_c, 0, 63, 110
3, 200256, Note_on_c, 0, 63, 0
3, 200280, Note_on_c, 0, 63, 110
3, 200376, Note_on_c, 0, 63, 0
3, 200400, Note_on_c, 0, 60, 110
3, 200496, Note_on_c, 0, 60, 0
3, 200520, Note_on_c, 0, 60, 110
3, 200616, Note_on_c, 0, 60, 0
3, 200640, Note_on_c, 0, 57, 110
3, 200832, Note_on_c, 0, 57, 0
3, 200880, Note_on_c, 0, 62, 110
3, 200976, Note_on_c, 0, 62, 0
3, 201000, Note_on_c, 0, 62, 110
3, 201096, Note_on_c, 0, 62, 0
3, 201120, Note_on_c, 0, 59, 110
3, 201216, Note_on_c, 0, 59, 0
3, 201240, Note_on_c, 0, 59, 110
3, 201336, Note_on_c, 0, 59, 0
3, 201360, Note_on_c, 0, 55, 110
3, 201552, Note_on_c, 0, 55, 0
3, 201600, Note_on_c, 0, 60, 110
3, 201696, Note_on_c, 0, 60, 0
3, 201720, Note_on_c, 0, 60, 110
3, 201816, Note_on_c, 0, 60, 0
3, 201840, Note_on_c, 0, 56, 110
3, 201936, Note_on_c, 0, 56, 0
3, 201960, Note_on_c, 0, 56, 110
3, 202056, Note_on_c, 0, 56, 0
3, 202080, Note_on_c, 0, 50, 110
3, 202272, Note_on_c, 0, 50, 0
3, 202440, Note_on_c, 0, 55, 110
3, 202536, Note_on_c, 0, 55, 0
3, 202560, Note_on_c, 0, 55, 110
3, 202656, Note_on_c, 0, 55, 0
3, 202680, Note_on_c, 0, 55, 110
3, 202776, Note_on_c, 0, 55, 0
3, 202800, Note_on_c, 0, 55, 110
3, 202992, Note_on_c, 0, 55, 0
3, 203160, Note_on_c, 0, 55, 110
3, 203256, Note_on_c, 0, 55, 0
3, 203280, Note_on_c, 0, 55, 110
3, 203376, Note_on_c, 0, 55, 0
3, 203400, Note_on_c, 0, 55, 110
3, 203496, Note_on_c, 0, 55, 0
3, 203520, Note_on_c, 0, 55, 110
3, 203712, Note_on_c, 0, 55, 0
3, 203880, Note_on_c, 0, 59, 110
3, 203976, Note_on_c, 0, 59, 0
3, 204000, Note_on_c, 0, 60, 110
3, 204096, Note_on_c, 0, 60, 0
3, 204120, Note_on_c, 0, 60, 110
3, 204216, Note_on_c, 0, 60, 0
3, 204240, Note_on_c, 0, 59, 110
3, 204432, Note_on_c, 0, 59, 0
3, 204600, Note_on_c, 0, 59, 110
3, 204696, Note_on_c, 0, 59, 0
3, 204720, Note_on_c, 0, 60, 110
3, 204816, Note_on_c, 0, 60, 0
3, 204840, Note_on_c, 0, 63, 110
3, 204936, Note_on_c, 0, 63, 0
3, 204960, Note_on_c, 0, 61, 110
3, 205056, Note_on_c, 0, 61, 0
3, 205320, Note_on_c, 0, 62, 110
3, 205416, Note_on_c, 0, 62, 0
3, 205440, Note_on_c, 0, 63, 110
3, 205632, Note_on_c, 0, 63, 0
3, 205680, Note_on_c, 0, 60, 110
3, 206064, Note_on_c, 0, 60, 0
3, 206160, Note_on_c, 0, 59, 110
3, 206352, Note_on_c, 0, 59, 0
3, 206400, Note_on_c, 0, 60, 110
3, 206496, Note_on_c, 0, 60, 0
3, 206520, Note_on_c, 0, 62, 110
3, 206616, Note_on_c, 0, 62, 0
3, 206640, Note_on_c, 0, 64, 110
3, 206736, Note_on_c, 0, 64, 0
3, 206760, Note_on_c, 0, 67, 110
3, 206856, Note_on_c, 0, 67, 0
3, 206880, Note_on_c, 0, 65, 110
3, 206976, Note_on_c, 0, 65, 0
3, 207000, Note_on_c, 0, 65, 110
3, 207096, Note_on_c, 0, 65, 0
3, 207120, Note_on_c, 0, 67, 110
3, 207312, Note_on_c, 0, 67, 0
3, 207480, Note_on_c, 0, 60, 110
3, 207576, Note_on_c, 0, 60, 0
3, 207600, Note_on_c, 0, 60, 110
3, 207696, Note_on_c, 0, 60, 0
3, 207720, Note_on_c, 0, 60, 110
3, 207816, Note_on_c, 0, 60, 0
3, 207840, Note_on_c, 0, 60, 110
3, 208032, Note_on_c, 0, 60, 0
3, 208200, Note_on_c, 0, 64, 110
3, 208296, Note_on_c, 0, 64, 0
3, 208320, Note_on_c, 0, 65, 110
3, 208416, Note_on_c, 0, 65, 0
3, 208440, Note_on_c, 0, 65, 110
3, 208536, Note_on_c, 0, 65, 0
3, 208560, Note_on_c, 0, 64, 110
3, 208752, Note_on_c, 0, 64, 0
3, 208860, Note_on_c, 0, 64, 110
3, 208908, Note_on_c, 0, 64, 0
3, 208920, Note_on_c, 0, 62, 110
3, 208968, Note_on_c, 0, 62, 0
3, 208980, Note_on_c, 0, 64, 110
3, 209040, Note_on_c, 0, 60, 110
3, 209136, Note_on_c, 0, 64, 0
3, 209160, Note_on_c, 0, 65, 110
3, 209232, Note_on_c, 0, 60, 0
3, 209256, Note_on_c, 0, 65, 0
3, 209580, Note_on_c, 0, 56, 110
3, 209628, Note_on_c, 0, 56, 0
3, 209640, Note_on_c, 0, 55, 110
3, 209688, Note_on_c, 0, 55, 0
3, 209700, Note_on_c, 0, 56, 110
3, 209940, Note_on_c, 0, 59, 110
3, 209952, Note_on_c, 0, 56, 0
3, 209988, Note_on_c, 0, 59, 0
3, 210000, Note_on_c, 0, 55, 110
3, 210000, Note_on_c, 0, 48, 110
3, 210000, Note_on_c, 0, 60, 110
3, 210576, Note_on_c, 0, 60, 0
3, 210576, Note_on_c, 0, 48, 0
3, 210576, Note_on_c, 0, 55, 0
3, 210576, End_track
4, 0, Start_track
4, 0, MIDI_port, 0
4, 0, Title_t, "J.Bach arr. Gary Bricault"
4, 0, Program_c, 0, 19
4, 0, Control_c, 0, 7, 127
4, 0, Control_c, 0, 10, 64
4, 0, Note_on_c, 0, 48, 84
4, 192, Note_on_c, 0, 48, 0
4, 240, Note_on_c, 0, 55, 84
4, 624, Note_on_c, 0, 55, 0
4, 720, Note_on_c, 0, 51, 84
4, 945, Note_on_c, 0, 51, 0
4, 960, Note_on_c, 0, 53, 84
4, 1344, Note_on_c, 0, 53, 0
4, 1440, Note_on_c, 0, 55, 84
4, 1632, Note_on_c, 0, 55, 0
4, 1680, Note_on_c, 0, 56, 84
4, 2064, Note_on_c, 0, 56, 0
4, 2160, Note_on_c, 0, 53, 84
4, 2352, Note_on_c, 0, 53, 0
4, 2400, Note_on_c, 0, 55, 84
4, 2784, Note_on_c, 0, 55, 0
4, 2880, Note_on_c, 0, 50, 84
4, 3072, Note_on_c, 0, 50, 0
4, 3120, Note_on_c, 0, 51, 84
4, 3504, Note_on_c, 0, 51, 0
4, 3600, Note_on_c, 0, 47, 84
4, 3792, Note_on_c, 0, 47, 0
4, 3840, Note_on_c, 0, 48, 84
4, 4224, Note_on_c, 0, 48, 0
4, 4320, Note_on_c, 0, 41, 84
4, 4512, Note_on_c, 0, 41, 0
4, 4560, Note_on_c, 0, 43, 84
4, 5136, Note_on_c, 0, 43, 0
4, 5280, Note_on_c, 0, 36, 84
4, 5664, Note_on_c, 0, 36, 0
4, 5760, Note_on_c, 0, 48, 84
4, 5952, Note_on_c, 0, 48, 0
4, 6000, Note_on_c, 0, 55, 84
4, 6384, Note_on_c, 0, 55, 0
4, 6480, Note_on_c, 0, 51, 84
4, 6705, Note_on_c, 0, 51, 0
4, 6720, Note_on_c, 0, 53, 84
4, 7104, Note_on_c, 0, 53, 0
4, 7200, Note_on_c, 0, 55, 84
4, 7392, Note_on_c, 0, 55, 0
4, 7440, Note_on_c, 0, 56, 84
4, 7824, Note_on_c, 0, 56, 0
4, 7920, Note_on_c, 0, 53, 84
4, 8112, Note_on_c, 0, 53, 0
4, 8160, Note_on_c, 0, 55, 84
4, 8544, Note_on_c, 0, 55, 0
4, 8640, Note_on_c, 0, 50, 84
4, 8832, Note_on_c, 0, 50, 0
4, 8880, Note_on_c, 0, 51, 84
4, 9264, Note_on_c, 0, 51, 0
4, 9360, Note_on_c, 0, 47, 84
4, 9552, Note_on_c, 0, 47, 0
4, 9600, Note_on_c, 0, 48, 84
4, 9984, Note_on_c, 0, 48, 0
4, 10080, Note_on_c, 0, 41, 84
4, 10272, Note_on_c, 0, 41, 0
4, 10320, Note_on_c, 0, 43, 84
4, 10896, Note_on_c, 0, 43, 0
4, 11040, Note_on_c, 0, 36, 84
4, 11424, Note_on_c, 0, 36, 0
4, 11520, Note_on_c, 0, 48, 96
4, 11712, Note_on_c, 0, 48, 0
4, 11760, Note_on_c, 0, 55, 96
4, 12144, Note_on_c, 0, 55, 0
4, 12240, Note_on_c, 0, 51, 96
4, 12465, Note_on_c, 0, 51, 0
4, 12480, Note_on_c, 0, 53, 96
4, 12864, Note_on_c, 0, 53, 0
4, 12960, Note_on_c, 0, 55, 96
4, 13152, Note_on_c, 0, 55, 0
4, 13200, Note_on_c, 0, 56, 96
4, 13584, Note_on_c, 0, 56, 0
4, 13680, Note_on_c, 0, 53, 96
4, 13872, Note_on_c, 0, 53, 0
4, 13920, Note_on_c, 0, 55, 96
4, 14304, Note_on_c, 0, 55, 0
4, 14400, Note_on_c, 0, 50, 96
4, 14592, Note_on_c, 0, 50, 0
4, 14640, Note_on_c, 0, 51, 96
4, 15024, Note_on_c, 0, 51, 0
4, 15120, Note_on_c, 0, 47, 96
4, 15312, Note_on_c, 0, 47, 0
4, 15360, Note_on_c, 0, 48, 96
4, 15744, Note_on_c, 0, 48, 0
4, 15840, Note_on_c, 0, 41, 96
4, 16032, Note_on_c, 0, 41, 0
4, 16080, Note_on_c, 0, 43, 96
4, 16656, Note_on_c, 0, 43, 0
4, 16800, Note_on_c, 0, 36, 96
4, 17184, Note_on_c, 0, 36, 0
4, 17280, Note_on_c, 0, 48, 96
4, 17472, Note_on_c, 0, 48, 0
4, 17520, Note_on_c, 0, 55, 96
4, 17904, Note_on_c, 0, 55, 0
4, 18000, Note_on_c, 0, 51, 96
4, 18225, Note_on_c, 0, 51, 0
4, 18240, Note_on_c, 0, 53, 96
4, 18624, Note_on_c, 0, 53, 0
4, 18720, Note_on_c, 0, 55, 96
4, 18912, Note_on_c, 0, 55, 0
4, 18960, Note_on_c, 0, 56, 96
4, 19344, Note_on_c, 0, 56, 0
4, 19440, Note_on_c, 0, 53, 96
4, 19632, Note_on_c, 0, 53, 0
4, 19680, Note_on_c, 0, 55, 96
4, 20064, Note_on_c, 0, 55, 0
4, 20160, Note_on_c, 0, 50, 96
4, 20352, Note_on_c, 0, 50, 0
4, 20400, Note_on_c, 0, 51, 96
4, 20784, Note_on_c, 0, 51, 0
4, 20880, Note_on_c, 0, 47, 96
4, 21072, Note_on_c, 0, 47, 0
4, 21120, Note_on_c, 0, 48, 96
4, 21504, Note_on_c, 0, 48, 0
4, 21600, Note_on_c, 0, 41, 96
4, 21792, Note_on_c, 0, 41, 0
4, 21840, Note_on_c, 0, 43, 96
4, 22416, Note_on_c, 0, 43, 0
4, 22560, Note_on_c, 0, 36, 96
4, 22944, Note_on_c, 0, 36, 0
4, 23040, Note_on_c, 0, 48, 96
4, 23232, Note_on_c, 0, 48, 0
4, 23280, Note_on_c, 0, 55, 96
4, 23664, Note_on_c, 0, 55, 0
4, 23760, Note_on_c, 0, 51, 96
4, 23985, Note_on_c, 0, 51, 0
4, 24000, Note_on_c, 0, 53, 96
4, 24384, Note_on_c, 0, 53, 0
4, 24480, Note_on_c, 0, 55, 96
4, 24672, Note_on_c, 0, 55, 0
4, 24720, Note_on_c, 0, 56, 96
4, 25104, Note_on_c, 0, 56, 0
4, 25200, Note_on_c, 0, 53, 96
4, 25392, Note_on_c, 0, 53, 0
4, 25440, Note_on_c, 0, 55, 96
4, 25824, Note_on_c, 0, 55, 0
4, 25920, Note_on_c, 0, 50, 96
4, 26112, Note_on_c, 0, 50, 0
4, 26160, Note_on_c, 0, 51, 96
4, 26544, Note_on_c, 0, 51, 0
4, 26640, Note_on_c, 0, 47, 96
4, 26832, Note_on_c, 0, 47, 0
4, 26880, Note_on_c, 0, 48, 96
4, 27264, Note_on_c, 0, 48, 0
4, 27360, Note_on_c, 0, 41, 96
4, 27552, Note_on_c, 0, 41, 0
4, 27600, Note_on_c, 0, 43, 96
4, 28176, Note_on_c, 0, 43, 0
4, 28320, Note_on_c, 0, 36, 84
4, 28704, Note_on_c, 0, 36, 0
4, 28920, Note_on_c, 0, 60, 84
4, 28968, Note_on_c, 0, 60, 0
4, 28980, Note_on_c, 0, 48, 84
4, 29028, Note_on_c, 0, 48, 0
4, 29040, Note_on_c, 0, 55, 84
4, 29232, Note_on_c, 0, 55, 0
4, 29640, Note_on_c, 0, 51, 84
4, 29688, Note_on_c, 0, 51, 0
4, 29700, Note_on_c, 0, 48, 84
4, 29748, Note_on_c, 0, 48, 0
4, 29760, Note_on_c, 0, 53, 84
4, 29952, Note_on_c, 0, 53, 0
4, 30360, Note_on_c, 0, 55, 84
4, 30408, Note_on_c, 0, 55, 0
4, 30420, Note_on_c, 0, 51, 84
4, 30468, Note_on_c, 0, 51, 0
4, 30480, Note_on_c, 0, 56, 84
4, 30672, Note_on_c, 0, 56, 0
4, 31080, Note_on_c, 0, 53, 84
4, 31128, Note_on_c, 0, 53, 0
4, 31140, Note_on_c, 0, 50, 84
4, 31188, Note_on_c, 0, 50, 0
4, 31200, Note_on_c, 0, 55, 84
4, 31392, Note_on_c, 0, 55, 0
4, 31800, Note_on_c, 0, 55, 84
4, 31848, Note_on_c, 0, 55, 0
4, 31860, Note_on_c, 0, 50, 84
4, 31908, Note_on_c, 0, 50, 0
4, 31920, Note_on_c, 0, 51, 84
4, 32112, Note_on_c, 0, 51, 0
4, 32520, Note_on_c, 0, 55, 84
4, 32568, Note_on_c, 0, 55, 0
4, 32580, Note_on_c, 0, 47, 84
4, 32628, Note_on_c, 0, 47, 0
4, 32640, Note_on_c, 0, 48, 84
4, 32832, Note_on_c, 0, 48, 0
4, 33240, Note_on_c, 0, 53, 84
4, 33288, Note_on_c, 0, 53, 0
4, 33300, Note_on_c, 0, 41, 84
4, 33348, Note_on_c, 0, 41, 0
4, 33360, Note_on_c, 0, 43, 96
4, 33936, Note_on_c, 0, 43, 0
4, 34080, Note_on_c, 0, 36, 96
4, 34464, Note_on_c, 0, 36, 0
4, 34560, Note_on_c, 0, 48, 96
4, 34752, Note_on_c, 0, 48, 0
4, 34800, Note_on_c, 0, 55, 96
4, 35184, Note_on_c, 0, 55, 0
4, 35280, Note_on_c, 0, 51, 96
4, 35505, Note_on_c, 0, 51, 0
4, 35520, Note_on_c, 0, 53, 96
4, 35904, Note_on_c, 0, 53, 0
4, 36000, Note_on_c, 0, 55, 96
4, 36192, Note_on_c, 0, 55, 0
4, 36240, Note_on_c, 0, 56, 96
4, 36624, Note_on_c, 0, 56, 0
4, 36720, Note_on_c, 0, 53, 96
4, 36912, Note_on_c, 0, 53, 0
4, 36960, Note_on_c, 0, 55, 96
4, 37344, Note_on_c, 0, 55, 0
4, 37440, Note_on_c, 0, 50, 96
4, 37632, Note_on_c, 0, 50, 0
4, 37680, Note_on_c, 0, 51, 96
4, 38064, Note_on_c, 0, 51, 0
4, 38160, Note_on_c, 0, 47, 96
4, 38352, Note_on_c, 0, 47, 0
4, 38400, Note_on_c, 0, 48, 96
4, 38784, Note_on_c, 0, 48, 0
4, 38880, Note_on_c, 0, 41, 96
4, 39072, Note_on_c, 0, 41, 0
4, 39120, Note_on_c, 0, 43, 96
4, 39696, Note_on_c, 0, 43, 0
4, 39840, Note_on_c, 0, 36, 96
4, 40224, Note_on_c, 0, 36, 0
4, 40320, Note_on_c, 0, 48, 96
4, 40512, Note_on_c, 0, 48, 0
4, 40560, Note_on_c, 0, 55, 110
4, 40944, Note_on_c, 0, 55, 0
4, 41040, Note_on_c, 0, 51, 110
4, 41265, Note_on_c, 0, 51, 0
4, 41280, Note_on_c, 0, 53, 110
4, 41664, Note_on_c, 0, 53, 0
4, 41760, Note_on_c, 0, 55, 110
4, 41952, Note_on_c, 0, 55, 0
4, 42000, Note_on_c, 0, 56, 110
4, 42384, Note_on_c, 0, 56, 0
4, 42480, Note_on_c, 0, 53, 110
4, 42672, Note_on_c, 0, 53, 0
4, 42720, Note_on_c, 0, 55, 110
4, 43104, Note_on_c, 0, 55, 0
4, 43200, Note_on_c, 0, 50, 110
4, 43392, Note_on_c, 0, 50, 0
4, 43440, Note_on_c, 0, 51, 110
4, 43824, Note_on_c, 0, 51, 0
4, 43920, Note_on_c, 0, 47, 110
4, 44112, Note_on_c, 0, 47, 0
4, 44160, Note_on_c, 0, 48, 110
4, 44544, Note_on_c, 0, 48, 0
4, 44640, Note_on_c, 0, 41, 110
4, 44832, Note_on_c, 0, 41, 0
4, 44880, Note_on_c, 0, 43, 110
4, 45456, Note_on_c, 0, 43, 0
4, 45600, Note_on_c, 0, 36, 110
4, 45984, Note_on_c, 0, 36, 0
4, 46080, Note_on_c, 0, 48, 110
4, 46272, Note_on_c, 0, 48, 0
4, 46320, Note_on_c, 0, 55, 110
4, 46704, Note_on_c, 0, 55, 0
4, 46800, Note_on_c, 0, 51, 110
4, 47025, Note_on_c, 0, 51, 0
4, 47040, Note_on_c, 0, 53, 110
4, 47424, Note_on_c, 0, 53, 0
4, 47520, Note_on_c, 0, 55, 110
4, 47712, Note_on_c, 0, 55, 0
4, 47760, Note_on_c, 0, 56, 110
4, 48144, Note_on_c, 0, 56, 0
4, 48240, Note_on_c, 0, 53, 110
4, 48432, Note_on_c, 0, 53, 0
4, 48480, Note_on_c, 0, 55, 110
4, 48864, Note_on_c, 0, 55, 0
4, 48960, Note_on_c, 0, 50, 110
4, 49152, Note_on_c, 0, 50, 0
4, 49200, Note_on_c, 0, 51, 110
4, 49584, Note_on_c, 0, 51, 0
4, 49680, Note_on_c, 0, 47, 110
4, 49872, Note_on_c, 0, 47, 0
4, 49920, Note_on_c, 0, 48, 110
4, 50304, Note_on_c, 0, 48, 0
4, 50400, Note_on_c, 0, 41, 110
4, 50592, Note_on_c, 0, 41, 0
4, 50640, Note_on_c, 0, 43, 110
4, 51216, Note_on_c, 0, 43, 0
4, 51360, Note_on_c, 0, 36, 110
4, 51552, Note_on_c, 0, 36, 0
4, 51900, Note_on_c, 0, 48, 96
4, 51948, Note_on_c, 0, 48, 0
4, 51960, Note_on_c, 0, 51, 96
4, 52008, Note_on_c, 0, 51, 0
4, 52020, Note_on_c, 0, 48, 96
4, 52068, Note_on_c, 0, 48, 0
4, 52080, Note_on_c, 0, 55, 96
4, 52272, Note_on_c, 0, 55, 0
4, 52620, Note_on_c, 0, 51, 96
4, 52668, Note_on_c, 0, 51, 0
4, 52680, Note_on_c, 0, 55, 96
4, 52728, Note_on_c, 0, 55, 0
4, 52740, Note_on_c, 0, 51, 96
4, 52788, Note_on_c, 0, 51, 0
4, 52800, Note_on_c, 0, 53, 96
4, 52992, Note_on_c, 0, 53, 0
4, 53340, Note_on_c, 0, 55, 96
4, 53388, Note_on_c, 0, 55, 0
4, 53400, Note_on_c, 0, 58, 96
4, 53448, Note_on_c, 0, 58, 0
4, 53460, Note_on_c, 0, 55, 96
4, 53508, Note_on_c, 0, 55, 0
4, 53520, Note_on_c, 0, 56, 96
4, 53712, Note_on_c, 0, 56, 0
4, 54060, Note_on_c, 0, 53, 96
4, 54108, Note_on_c, 0, 53, 0
4, 54120, Note_on_c, 0, 56, 96
4, 54168, Note_on_c, 0, 56, 0
4, 54180, Note_on_c, 0, 53, 96
4, 54228, Note_on_c, 0, 53, 0
4, 54240, Note_on_c, 0, 55, 96
4, 54432, Note_on_c, 0, 55, 0
4, 54780, Note_on_c, 0, 50, 96
4, 54828, Note_on_c, 0, 50, 0
4, 54840, Note_on_c, 0, 53, 96
4, 54888, Note_on_c, 0, 53, 0
4, 54900, Note_on_c, 0, 50, 96
4, 54948, Note_on_c, 0, 50, 0
4, 54960, Note_on_c, 0, 51, 96
4, 55152, Note_on_c, 0, 51, 0
4, 55500, Note_on_c, 0, 47, 96
4, 55548, Note_on_c, 0, 47, 0
4, 55560, Note_on_c, 0, 50, 96
4, 55608, Note_on_c, 0, 50, 0
4, 55620, Note_on_c, 0, 47, 96
4, 55668, Note_on_c, 0, 47, 0
4, 55680, Note_on_c, 0, 48, 96
4, 55872, Note_on_c, 0, 48, 0
4, 56220, Note_on_c, 0, 41, 110
4, 56268, Note_on_c, 0, 41, 0
4, 56280, Note_on_c, 0, 44, 110
4, 56328, Note_on_c, 0, 44, 0
4, 56340, Note_on_c, 0, 41, 110
4, 56388, Note_on_c, 0, 41, 0
4, 56400, Note_on_c, 0, 43, 120
4, 56592, Note_on_c, 0, 43, 0
4, 56940, Note_on_c, 0, 43, 120
4, 56988, Note_on_c, 0, 43, 0
4, 57000, Note_on_c, 0, 41, 120
4, 57048, Note_on_c, 0, 41, 0
4, 57060, Note_on_c, 0, 43, 120
4, 57108, Note_on_c, 0, 43, 0
4, 57120, Note_on_c, 0, 36, 120
4, 57312, Note_on_c, 0, 36, 0
4, 57600, Note_on_c, 0, 48, 120
4, 57792, Note_on_c, 0, 48, 0
4, 57840, Note_on_c, 0, 55, 120
4, 58032, Note_on_c, 0, 55, 0
4, 58320, Note_on_c, 0, 51, 120
4, 58512, Note_on_c, 0, 51, 0
4, 58560, Note_on_c, 0, 53, 120
4, 58752, Note_on_c, 0, 53, 0
4, 59040, Note_on_c, 0, 55, 120
4, 59232, Note_on_c, 0, 55, 0
4, 59280, Note_on_c, 0, 56, 120
4, 59472, Note_on_c, 0, 56, 0
4, 59760, Note_on_c, 0, 53, 120
4, 59952, Note_on_c, 0, 53, 0
4, 60000, Note_on_c, 0, 55, 120
4, 60192, Note_on_c, 0, 55, 0
4, 60480, Note_on_c, 0, 50, 120
4, 60672, Note_on_c, 0, 50, 0
4, 60720, Note_on_c, 0, 51, 120
4, 60912, Note_on_c, 0, 51, 0
4, 61200, Note_on_c, 0, 47, 120
4, 61392, Note_on_c, 0, 47, 0
4, 61440, Note_on_c, 0, 48, 120
4, 61632, Note_on_c, 0, 48, 0
4, 61920, Note_on_c, 0, 41, 120
4, 62112, Note_on_c, 0, 41, 0
4, 62160, Note_on_c, 0, 43, 120
4, 62352, Note_on_c, 0, 43, 0
4, 62640, Note_on_c, 0, 43, 120
4, 62832, Note_on_c, 0, 43, 0
4, 62880, Note_on_c, 0, 36, 120
4, 63072, Note_on_c, 0, 36, 0
4, 69240, Note_on_c, 0, 56, 120
4, 69336, Note_on_c, 0, 56, 0
4, 69360, Note_on_c, 0, 55, 120
4, 69408, Note_on_c, 0, 55, 0
4, 69420, Note_on_c, 0, 56, 120
4, 69468, Note_on_c, 0, 56, 0
4, 69480, Note_on_c, 0, 53, 120
4, 69528, Note_on_c, 0, 53, 0
4, 69540, Note_on_c, 0, 55, 120
4, 69588, Note_on_c, 0, 55, 0
4, 69600, Note_on_c, 0, 51, 120
4, 69648, Note_on_c, 0, 51, 0
4, 69660, Note_on_c, 0, 53, 120
4, 69708, Note_on_c, 0, 53, 0
4, 69720, Note_on_c, 0, 50, 120
4, 69768, Note_on_c, 0, 50, 0
4, 69780, Note_on_c, 0, 51, 120
4, 69828, Note_on_c, 0, 51, 0
4, 69840, Note_on_c, 0, 48, 120
4, 69888, Note_on_c, 0, 48, 0
4, 69900, Note_on_c, 0, 50, 120
4, 69948, Note_on_c, 0, 50, 0
4, 69960, Note_on_c, 0, 46, 120
4, 70008, Note_on_c, 0, 46, 0
4, 70020, Note_on_c, 0, 48, 120
4, 70068, Note_on_c, 0, 48, 0
4, 70080, Note_on_c, 0, 44, 120
4, 70368, Note_on_c, 0, 44, 0
4, 70440, Note_on_c, 0, 44, 120
4, 70536, Note_on_c, 0, 44, 0
4, 70560, Note_on_c, 0, 46, 120
4, 70656, Note_on_c, 0, 46, 0
4, 70680, Note_on_c, 0, 48, 120
4, 70776, Note_on_c, 0, 48, 0
4, 70800, Note_on_c, 0, 41, 120
4, 70896, Note_on_c, 0, 41, 0
4, 70920, Note_on_c, 0, 48, 120
4, 71016, Note_on_c, 0, 48, 0
4, 71040, Note_on_c, 0, 53, 120
4, 71088, Note_on_c, 0, 53, 0
4, 71100, Note_on_c, 0, 55, 120
4, 71148, Note_on_c, 0, 55, 0
4, 71160, Note_on_c, 0, 51, 120
4, 71208, Note_on_c, 0, 51, 0
4, 71220, Note_on_c, 0, 53, 120
4, 71268, Note_on_c, 0, 53, 0
4, 71280, Note_on_c, 0, 50, 120
4, 71328, Note_on_c, 0, 50, 0
4, 71340, Note_on_c, 0, 51, 120
4, 71388, Note_on_c, 0, 51, 0
4, 71400, Note_on_c, 0, 48, 120
4, 71448, Note_on_c, 0, 48, 0
4, 71460, Note_on_c, 0, 50, 120
4, 71508, Note_on_c, 0, 50, 0
4, 71520, Note_on_c, 0, 47, 120
4, 71568, Note_on_c, 0, 47, 0
4, 71580, Note_on_c, 0, 48, 120
4, 71628, Note_on_c, 0, 48, 0
4, 71640, Note_on_c, 0, 45, 120
4, 71688, Note_on_c, 0, 45, 0
4, 71700, Note_on_c, 0, 47, 120
4, 71748, Note_on_c, 0, 47, 0
4, 71760, Note_on_c, 0, 43, 120
4, 72144, Note_on_c, 0, 43, 0
4, 72240, Note_on_c, 0, 48, 120
4, 72528, Note_on_c, 0, 48, 0
4, 72600, Note_on_c, 0, 36, 120
4, 72696, Note_on_c, 0, 36, 0
4, 72720, Note_on_c, 0, 38, 120
4, 72912, Note_on_c, 0, 38, 0
4, 72960, Note_on_c, 0, 39, 120
4, 73056, Note_on_c, 0, 39, 0
4, 73080, Note_on_c, 0, 43, 120
4, 73176, Note_on_c, 0, 43, 0
4, 73200, Note_on_c, 0, 48, 120
4, 73248, Note_on_c, 0, 48, 0
4, 73260, Note_on_c, 0, 50, 120
4, 73308, Note_on_c, 0, 50, 0
4, 73320, Note_on_c, 0, 46, 120
4, 73368, Note_on_c, 0, 46, 0
4, 73380, Note_on_c, 0, 48, 120
4, 73428, Note_on_c, 0, 48, 0
4, 73440, Note_on_c, 0, 45, 120
4, 73632, Note_on_c, 0, 45, 0
4, 73680, Note_on_c, 0, 47, 120
4, 73776, Note_on_c, 0, 47, 0
4, 73800, Note_on_c, 0, 48, 120
4, 73896, Note_on_c, 0, 48, 0
4, 73920, Note_on_c, 0, 43, 120
4, 73968, Note_on_c, 0, 43, 0
4, 73980, Note_on_c, 0, 44, 120
4, 74028, Note_on_c, 0, 44, 0
4, 74040, Note_on_c, 0, 41, 120
4, 74088, Note_on_c, 0, 41, 0
4, 74100, Note_on_c, 0, 43, 120
4, 74148, Note_on_c, 0, 43, 0
4, 74160, Note_on_c, 0, 39, 120
4, 74208, Note_on_c, 0, 39, 0
4, 74220, Note_on_c, 0, 41, 120
4, 74268, Note_on_c, 0, 41, 0
4, 74280, Note_on_c, 0, 38, 120
4, 74328, Note_on_c, 0, 38, 0
4, 74340, Note_on_c, 0, 41, 120
4, 74388, Note_on_c, 0, 41, 0
4, 74400, Note_on_c, 0, 39, 120
4, 74448, Note_on_c, 0, 39, 0
4, 74460, Note_on_c, 0, 41, 120
4, 74508, Note_on_c, 0, 41, 0
4, 74520, Note_on_c, 0, 38, 120
4, 74568, Note_on_c, 0, 38, 0
4, 74580, Note_on_c, 0, 39, 120
4, 74628, Note_on_c, 0, 39, 0
4, 74640, Note_on_c, 0, 36, 120
4, 74832, Note_on_c, 0, 36, 0
4, 92160, Note_on_c, 0, 48, 110
4, 92352, Note_on_c, 0, 48, 0
4, 92400, Note_on_c, 0, 55, 110
4, 92784, Note_on_c, 0, 55, 0
4, 92880, Note_on_c, 0, 51, 110
4, 93105, Note_on_c, 0, 51, 0
4, 93120, Note_on_c, 0, 53, 110
4, 93504, Note_on_c, 0, 53, 0
4, 93600, Note_on_c, 0, 55, 110
4, 93792, Note_on_c, 0, 55, 0
4, 93840, Note_on_c, 0, 56, 110
4, 94224, Note_on_c, 0, 56, 0
4, 94320, Note_on_c, 0, 53, 110
4, 94512, Note_on_c, 0, 53, 0
4, 94560, Note_on_c, 0, 55, 110
4, 94944, Note_on_c, 0, 55, 0
4, 95040, Note_on_c, 0, 50, 110
4, 95232, Note_on_c, 0, 50, 0
4, 95280, Note_on_c, 0, 51, 110
4, 95664, Note_on_c, 0, 51, 0
4, 95760, Note_on_c, 0, 47, 110
4, 95952, Note_on_c, 0, 47, 0
4, 96000, Note_on_c, 0, 48, 110
4, 96384, Note_on_c, 0, 48, 0
4, 96480, Note_on_c, 0, 41, 110
4, 96672, Note_on_c, 0, 41, 0
4, 96720, Note_on_c, 0, 43, 110
4, 97296, Note_on_c, 0, 43, 0
4, 97440, Note_on_c, 0, 36, 110
4, 97824, Note_on_c, 0, 36, 0
4, 97920, Note_on_c, 0, 48, 110
4, 98112, Note_on_c, 0, 48, 0
4, 98160, Note_on_c, 0, 55, 110
4, 98544, Note_on_c, 0, 55, 0
4, 98640, Note_on_c, 0, 51, 110
4, 98865, Note_on_c, 0, 51, 0
4, 98880, Note_on_c, 0, 53, 110
4, 99264, Note_on_c, 0, 53, 0
4, 99360, Note_on_c, 0, 55, 110
4, 99552, Note_on_c, 0, 55, 0
4, 99600, Note_on_c, 0, 56, 110
4, 99984, Note_on_c, 0, 56, 0
4, 100080, Note_on_c, 0, 53, 110
4, 100272, Note_on_c, 0, 53, 0
4, 100320, Note_on_c, 0, 55, 110
4, 100704, Note_on_c, 0, 55, 0
4, 100800, Note_on_c, 0, 50, 110
4, 100992, Note_on_c, 0, 50, 0
4, 101040, Note_on_c, 0, 51, 110
4, 101424, Note_on_c, 0, 51, 0
4, 101520, Note_on_c, 0, 47, 110
4, 101712, Note_on_c, 0, 47, 0
4, 101760, Note_on_c, 0, 48, 110
4, 102144, Note_on_c, 0, 48, 0
4, 102240, Note_on_c, 0, 41, 110
4, 102432, Note_on_c, 0, 41, 0
4, 102480, Note_on_c, 0, 43, 110
4, 103056, Note_on_c, 0, 43, 0
4, 103200, Note_on_c, 0, 36, 110
4, 103584, Note_on_c, 0, 36, 0
4, 103800, Note_on_c, 0, 48, 96
4, 103913, Note_on_c, 0, 48, 0
4, 103920, Note_on_c, 0, 55, 96
4, 104304, Note_on_c, 0, 55, 0
4, 104520, Note_on_c, 0, 51, 96
4, 104633, Note_on_c, 0, 51, 0
4, 104640, Note_on_c, 0, 53, 96
4, 105024, Note_on_c, 0, 53, 0
4, 105240, Note_on_c, 0, 55, 96
4, 105353, Note_on_c, 0, 55, 0
4, 105360, Note_on_c, 0, 56, 96
4, 105744, Note_on_c, 0, 56, 0
4, 105960, Note_on_c, 0, 53, 96
4, 106073, Note_on_c, 0, 53, 0
4, 106080, Note_on_c, 0, 55, 96
4, 106464, Note_on_c, 0, 55, 0
4, 106680, Note_on_c, 0, 50, 96
4, 106793, Note_on_c, 0, 50, 0
4, 106800, Note_on_c, 0, 51, 96
4, 107184, Note_on_c, 0, 51, 0
4, 107400, Note_on_c, 0, 47, 96
4, 107513, Note_on_c, 0, 47, 0
4, 107520, Note_on_c, 0, 48, 96
4, 107904, Note_on_c, 0, 48, 0
4, 108120, Note_on_c, 0, 41, 96
4, 108233, Note_on_c, 0, 41, 0
4, 108240, Note_on_c, 0, 43, 96
4, 108690, Note_on_c, 0, 43, 0
4, 108840, Note_on_c, 0, 43, 110
4, 108953, Note_on_c, 0, 43, 0
4, 108960, Note_on_c, 0, 36, 110
4, 109344, Note_on_c, 0, 36, 0
4, 109440, Note_on_c, 0, 48, 110
4, 109632, Note_on_c, 0, 48, 0
4, 109680, Note_on_c, 0, 55, 110
4, 110064, Note_on_c, 0, 55, 0
4, 110160, Note_on_c, 0, 51, 110
4, 110385, Note_on_c, 0, 51, 0
4, 110400, Note_on_c, 0, 53, 110
4, 110784, Note_on_c, 0, 53, 0
4, 110880, Note_on_c, 0, 55, 110
4, 111072, Note_on_c, 0, 55, 0
4, 111120, Note_on_c, 0, 56, 110
4, 111504, Note_on_c, 0, 56, 0
4, 111600, Note_on_c, 0, 53, 110
4, 111792, Note_on_c, 0, 53, 0
4, 111840, Note_on_c, 0, 55, 110
4, 112224, Note_on_c, 0, 55, 0
4, 112320, Note_on_c, 0, 50, 110
4, 112512, Note_on_c, 0, 50, 0
4, 112560, Note_on_c, 0, 51, 110
4, 112944, Note_on_c, 0, 51, 0
4, 113040, Note_on_c, 0, 47, 110
4, 113232, Note_on_c, 0, 47, 0
4, 113280, Note_on_c, 0, 48, 110
4, 113664, Note_on_c, 0, 48, 0
4, 113760, Note_on_c, 0, 41, 110
4, 113952, Note_on_c, 0, 41, 0
4, 114000, Note_on_c, 0, 43, 110
4, 114576, Note_on_c, 0, 43, 0
4, 114720, Note_on_c, 0, 36, 120
4, 115104, Note_on_c, 0, 36, 0
4, 115200, Note_on_c, 0, 48, 120
4, 115392, Note_on_c, 0, 48, 0
4, 115440, Note_on_c, 0, 55, 120
4, 115824, Note_on_c, 0, 55, 0
4, 115920, Note_on_c, 0, 51, 120
4, 116145, Note_on_c, 0, 51, 0
4, 116160, Note_on_c, 0, 53, 120
4, 116544, Note_on_c, 0, 53, 0
4, 116640, Note_on_c, 0, 55, 120
4, 116832, Note_on_c, 0, 55, 0
4, 116880, Note_on_c, 0, 56, 120
4, 117264, Note_on_c, 0, 56, 0
4, 117360, Note_on_c, 0, 53, 120
4, 117552, Note_on_c, 0, 53, 0
4, 117600, Note_on_c, 0, 55, 120
4, 117984, Note_on_c, 0, 55, 0
4, 118080, Note_on_c, 0, 50, 120
4, 118272, Note_on_c, 0, 50, 0
4, 118320, Note_on_c, 0, 51, 120
4, 118704, Note_on_c, 0, 51, 0
4, 118800, Note_on_c, 0, 47, 120
4, 118992, Note_on_c, 0, 47, 0
4, 119040, Note_on_c, 0, 48, 120
4, 119424, Note_on_c, 0, 48, 0
4, 119520, Note_on_c, 0, 41, 120
4, 119712, Note_on_c, 0, 41, 0
4, 119760, Note_on_c, 0, 43, 120
4, 120336, Note_on_c, 0, 43, 0
4, 120480, Note_on_c, 0, 36, 120
4, 121056, Note_on_c, 0, 36, 0
4, 129840, Note_on_c, 0, 48, 110
4, 130032, Note_on_c, 0, 48, 0
4, 130080, Note_on_c, 0, 55, 110
4, 130464, Note_on_c, 0, 55, 0
4, 130560, Note_on_c, 0, 51, 110
4, 130785, Note_on_c, 0, 51, 0
4, 130800, Note_on_c, 0, 53, 110
4, 131184, Note_on_c, 0, 53, 0
4, 131280, Note_on_c, 0, 55, 110
4, 131472, Note_on_c, 0, 55, 0
4, 131520, Note_on_c, 0, 56, 110
4, 131904, Note_on_c, 0, 56, 0
4, 132000, Note_on_c, 0, 53, 110
4, 132192, Note_on_c, 0, 53, 0
4, 132240, Note_on_c, 0, 55, 110
4, 132528, Note_on_c, 0, 55, 0
4, 132600, Note_on_c, 0, 50, 110
4, 132696, Note_on_c, 0, 50, 0
4, 132720, Note_on_c, 0, 51, 110
4, 132816, Note_on_c, 0, 51, 0
4, 132840, Note_on_c, 0, 47, 110
4, 132936, Note_on_c, 0, 47, 0
4, 132960, Note_on_c, 0, 48, 110
4, 133248, Note_on_c, 0, 48, 0
4, 133320, Note_on_c, 0, 50, 110
4, 133416, Note_on_c, 0, 50, 0
4, 133440, Note_on_c, 0, 51, 110
4, 133536, Note_on_c, 0, 51, 0
4, 133560, Note_on_c, 0, 48, 110
4, 133656, Note_on_c, 0, 48, 0
4, 133680, Note_on_c, 0, 50, 110
4, 133776, Note_on_c, 0, 50, 0
4, 133800, Note_on_c, 0, 46, 110
4, 133896, Note_on_c, 0, 46, 0
4, 133920, Note_on_c, 0, 42, 110
4, 134016, Note_on_c, 0, 42, 0
4, 134040, Note_on_c, 0, 42, 110
4, 134136, Note_on_c, 0, 42, 0
4, 134160, Note_on_c, 0, 43, 110
4, 134256, Note_on_c, 0, 43, 0
4, 134280, Note_on_c, 0, 43, 110
4, 134376, Note_on_c, 0, 43, 0
4, 134520, Note_on_c, 0, 51, 110
4, 134616, Note_on_c, 0, 51, 0
4, 134640, Note_on_c, 0, 45, 110
4, 134736, Note_on_c, 0, 45, 0
4, 134760, Note_on_c, 0, 45, 110
4, 134856, Note_on_c, 0, 45, 0
4, 134880, Note_on_c, 0, 47, 110
4, 134976, Note_on_c, 0, 47, 0
4, 135000, Note_on_c, 0, 47, 110
4, 135096, Note_on_c, 0, 47, 0
4, 135240, Note_on_c, 0, 48, 110
4, 135336, Note_on_c, 0, 48, 0
4, 135360, Note_on_c, 0, 43, 110
4, 135456, Note_on_c, 0, 43, 0
4, 135480, Note_on_c, 0, 43, 110
4, 135576, Note_on_c, 0, 43, 0
4, 135600, Note_on_c, 0, 45, 110
4, 135696, Note_on_c, 0, 45, 0
4, 135720, Note_on_c, 0, 45, 110
4, 135816, Note_on_c, 0, 45, 0
4, 135960, Note_on_c, 0, 46, 110
4, 136056, Note_on_c, 0, 46, 0
4, 136080, Note_on_c, 0, 42, 110
4, 136176, Note_on_c, 0, 42, 0
4, 136200, Note_on_c, 0, 42, 110
4, 136296, Note_on_c, 0, 42, 0
4, 136320, Note_on_c, 0, 43, 110
4, 136416, Note_on_c, 0, 43, 0
4, 136440, Note_on_c, 0, 45, 110
4, 136536, Note_on_c, 0, 45, 0
4, 136560, Note_on_c, 0, 46, 110
4, 136656, Note_on_c, 0, 46, 0
4, 136680, Note_on_c, 0, 48, 110
4, 136776, Note_on_c, 0, 48, 0
4, 136800, Note_on_c, 0, 45, 110
4, 136896, Note_on_c, 0, 45, 0
4, 136920, Note_on_c, 0, 43, 110
4, 137016, Note_on_c, 0, 43, 0
4, 137040, Note_on_c, 0, 50, 110
4, 137136, Note_on_c, 0, 50, 0
4, 137160, Note_on_c, 0, 38, 110
4, 137256, Note_on_c, 0, 38, 0
4, 137280, Note_on_c, 0, 43, 110
4, 137664, Note_on_c, 0, 43, 0
4, 138300, Note_on_c, 0, 55, 110
4, 138348, Note_on_c, 0, 55, 0
4, 138360, Note_on_c, 0, 53, 110
4, 138408, Note_on_c, 0, 53, 0
4, 138420, Note_on_c, 0, 55, 110
4, 138468, Note_on_c, 0, 55, 0
4, 138480, Note_on_c, 0, 48, 110
4, 138528, Note_on_c, 0, 48, 0
4, 138540, Note_on_c, 0, 60, 110
4, 138588, Note_on_c, 0, 60, 0
4, 138600, Note_on_c, 0, 58, 110
4, 138648, Note_on_c, 0, 58, 0
4, 138660, Note_on_c, 0, 60, 110
4, 138708, Note_on_c, 0, 60, 0
4, 138720, Note_on_c, 0, 56, 110
4, 138768, Note_on_c, 0, 56, 0
4, 138780, Note_on_c, 0, 60, 110
4, 138828, Note_on_c, 0, 60, 0
4, 138840, Note_on_c, 0, 56, 110
4, 138888, Note_on_c, 0, 56, 0
4, 138900, Note_on_c, 0, 60, 110
4, 138948, Note_on_c, 0, 60, 0
4, 138960, Note_on_c, 0, 56, 110
4, 139008, Note_on_c, 0, 56, 0
4, 139020, Note_on_c, 0, 58, 110
4, 139068, Note_on_c, 0, 58, 0
4, 139080, Note_on_c, 0, 56, 110
4, 139128, Note_on_c, 0, 56, 0
4, 139140, Note_on_c, 0, 58, 110
4, 139188, Note_on_c, 0, 58, 0
4, 139200, Note_on_c, 0, 55, 110
4, 139248, Note_on_c, 0, 55, 0
4, 139260, Note_on_c, 0, 58, 110
4, 139308, Note_on_c, 0, 58, 0
4, 139320, Note_on_c, 0, 55, 110
4, 139368, Note_on_c, 0, 55, 0
4, 139380, Note_on_c, 0, 58, 110
4, 139428, Note_on_c, 0, 58, 0
4, 139440, Note_on_c, 0, 53, 110
4, 139488, Note_on_c, 0, 53, 0
4, 139500, Note_on_c, 0, 56, 110
4, 139548, Note_on_c, 0, 56, 0
4, 139560, Note_on_c, 0, 55, 110
4, 139608, Note_on_c, 0, 55, 0
4, 139620, Note_on_c, 0, 58, 110
4, 139668, Note_on_c, 0, 58, 0
4, 139680, Note_on_c, 0, 56, 110
4, 139728, Note_on_c, 0, 56, 0
4, 139740, Note_on_c, 0, 58, 110
4, 139788, Note_on_c, 0, 58, 0
4, 139800, Note_on_c, 0, 56, 110
4, 139848, Note_on_c, 0, 56, 0
4, 139860, Note_on_c, 0, 58, 110
4, 139908, Note_on_c, 0, 58, 0
4, 139920, Note_on_c, 0, 56, 110
4, 139968, Note_on_c, 0, 56, 0
4, 139980, Note_on_c, 0, 58, 110
4, 140028, Note_on_c, 0, 58, 0
4, 140040, Note_on_c, 0, 56, 110
4, 140088, Note_on_c, 0, 56, 0
4, 140100, Note_on_c, 0, 58, 110
4, 140148, Note_on_c, 0, 58, 0
4, 140160, Note_on_c, 0, 55, 110
4, 140208, Note_on_c, 0, 55, 0
4, 140220, Note_on_c, 0, 56, 110
4, 140268, Note_on_c, 0, 56, 0
4, 140280, Note_on_c, 0, 55, 110
4, 140328, Note_on_c, 0, 55, 0
4, 140340, Note_on_c, 0, 56, 110
4, 140388, Note_on_c, 0, 56, 0
4, 140400, Note_on_c, 0, 55, 110
4, 140448, Note_on_c, 0, 55, 0
4, 140460, Note_on_c, 0, 56, 110
4, 140508, Note_on_c, 0, 56, 0
4, 140520, Note_on_c, 0, 55, 110
4, 140568, Note_on_c, 0, 55, 0
4, 140580, Note_on_c, 0, 58, 110
4, 140628, Note_on_c, 0, 58, 0
4, 140640, Note_on_c, 0, 56, 110
4, 140688, Note_on_c, 0, 56, 0
4, 140700, Note_on_c, 0, 58, 110
4, 140748, Note_on_c, 0, 58, 0
4, 140760, Note_on_c, 0, 56, 110
4, 140808, Note_on_c, 0, 56, 0
4, 140820, Note_on_c, 0, 60, 110
4, 140868, Note_on_c, 0, 60, 0
4, 140880, Note_on_c, 0, 58, 110
4, 141072, Note_on_c, 0, 58, 0
4, 141120, Note_on_c, 0, 46, 110
4, 141504, Note_on_c, 0, 46, 0
4, 141600, Note_on_c, 0, 39, 110
4, 141792, Note_on_c, 0, 39, 0
4, 158640, Note_on_c, 0, 43, 110
4, 158832, Note_on_c, 0, 43, 0
4, 158880, Note_on_c, 0, 50, 110
4, 159264, Note_on_c, 0, 50, 0
4, 159360, Note_on_c, 0, 46, 110
4, 159552, Note_on_c, 0, 46, 0
4, 159600, Note_on_c, 0, 48, 110
4, 159984, Note_on_c, 0, 48, 0
4, 160080, Note_on_c, 0, 50, 110
4, 160272, Note_on_c, 0, 50, 0
4, 160320, Note_on_c, 0, 51, 110
4, 160704, Note_on_c, 0, 51, 0
4, 160800, Note_on_c, 0, 48, 110
4, 160992, Note_on_c, 0, 48, 0
4, 161040, Note_on_c, 0, 50, 110
4, 161328, Note_on_c, 0, 50, 0
4, 161400, Note_on_c, 0, 52, 110
4, 161496, Note_on_c, 0, 52, 0
4, 161520, Note_on_c, 0, 54, 110
4, 161616, Note_on_c, 0, 54, 0
4, 161640, Note_on_c, 0, 50, 110
4, 161736, Note_on_c, 0, 50, 0
4, 161760, Note_on_c, 0, 55, 110
4, 161856, Note_on_c, 0, 55, 0
4, 161880, Note_on_c, 0, 55, 110
4, 161976, Note_on_c, 0, 55, 0
4, 162000, Note_on_c, 0, 50, 110
4, 162096, Note_on_c, 0, 50, 0
4, 162120, Note_on_c, 0, 50, 110
4, 162216, Note_on_c, 0, 50, 0
4, 162240, Note_on_c, 0, 51, 110
4, 162336, Note_on_c, 0, 51, 0
4, 162360, Note_on_c, 0, 51, 110
4, 162456, Note_on_c, 0, 51, 0
4, 162480, Note_on_c, 0, 53, 110
4, 162576, Note_on_c, 0, 53, 0
4, 162600, Note_on_c, 0, 53, 110
4, 162696, Note_on_c, 0, 53, 0
4, 162720, Note_on_c, 0, 48, 110
4, 162816, Note_on_c, 0, 48, 0
4, 162840, Note_on_c, 0, 48, 110
4, 162936, Note_on_c, 0, 48, 0
4, 162960, Note_on_c, 0, 50, 110
4, 163056, Note_on_c, 0, 50, 0
4, 163080, Note_on_c, 0, 50, 110
4, 163176, Note_on_c, 0, 50, 0
4, 163200, Note_on_c, 0, 51, 110
4, 163296, Note_on_c, 0, 51, 0
4, 163320, Note_on_c, 0, 51, 110
4, 163416, Note_on_c, 0, 51, 0
4, 163440, Note_on_c, 0, 46, 110
4, 163536, Note_on_c, 0, 46, 0
4, 163560, Note_on_c, 0, 46, 110
4, 163656, Note_on_c, 0, 46, 0
4, 163680, Note_on_c, 0, 48, 110
4, 163776, Note_on_c, 0, 48, 0
4, 163800, Note_on_c, 0, 48, 110
4, 163896, Note_on_c, 0, 48, 0
4, 163920, Note_on_c, 0, 50, 110
4, 164208, Note_on_c, 0, 50, 0
4, 164280, Note_on_c, 0, 50, 110
4, 164376, Note_on_c, 0, 50, 0
4, 164400, Note_on_c, 0, 51, 110
4, 164496, Note_on_c, 0, 51, 0
4, 164520, Note_on_c, 0, 50, 110
4, 164616, Note_on_c, 0, 50, 0
4, 164640, Note_on_c, 0, 48, 110
4, 164832, Note_on_c, 0, 48, 0
4, 164880, Note_on_c, 0, 53, 110
4, 165072, Note_on_c, 0, 53, 0
4, 165120, Note_on_c, 0, 45, 110
4, 165312, Note_on_c, 0, 45, 0
4, 165360, Note_on_c, 0, 46, 110
4, 165744, Note_on_c, 0, 46, 0
4, 165840, Note_on_c, 0, 47, 110
4, 166032, Note_on_c, 0, 47, 0
4, 166080, Note_on_c, 0, 48, 110
4, 166176, Note_on_c, 0, 48, 0
4, 166200, Note_on_c, 0, 44, 110
4, 166296, Note_on_c, 0, 44, 0
4, 166320, Note_on_c, 0, 39, 110
4, 166416, Note_on_c, 0, 39, 0
4, 166440, Note_on_c, 0, 39, 110
4, 166536, Note_on_c, 0, 39, 0
4, 166560, Note_on_c, 0, 41, 110
4, 166656, Note_on_c, 0, 41, 0
4, 166680, Note_on_c, 0, 41, 110
4, 166776, Note_on_c, 0, 41, 0
4, 166800, Note_on_c, 0, 43, 110
4, 166896, Note_on_c, 0, 43, 0
4, 166920, Note_on_c, 0, 45, 110
4, 167016, Note_on_c, 0, 45, 0
4, 167040, Note_on_c, 0, 47, 110
4, 167136, Note_on_c, 0, 47, 0
4, 167160, Note_on_c, 0, 43, 110
4, 167256, Note_on_c, 0, 43, 0
4, 167280, Note_on_c, 0, 48, 110
4, 167376, Note_on_c, 0, 48, 0
4, 167400, Note_on_c, 0, 46, 110
4, 167496, Note_on_c, 0, 46, 0
4, 167520, Note_on_c, 0, 44, 110
4, 167616, Note_on_c, 0, 44, 0
4, 167640, Note_on_c, 0, 48, 110
4, 167736, Note_on_c, 0, 48, 0
4, 167760, Note_on_c, 0, 41, 110
4, 167856, Note_on_c, 0, 41, 0
4, 167880, Note_on_c, 0, 53, 110
4, 167976, Note_on_c, 0, 53, 0
4, 168000, Note_on_c, 0, 44, 110
4, 168096, Note_on_c, 0, 44, 0
4, 168120, Note_on_c, 0, 53, 110
4, 168216, Note_on_c, 0, 53, 0
4, 168240, Note_on_c, 0, 43, 110
4, 168336, Note_on_c, 0, 43, 0
4, 168360, Note_on_c, 0, 51, 110
4, 168456, Note_on_c, 0, 51, 0
4, 168480, Note_on_c, 0, 47, 110
4, 168576, Note_on_c, 0, 47, 0
4, 168600, Note_on_c, 0, 47, 110
4, 168696, Note_on_c, 0, 47, 0
4, 168720, Note_on_c, 0, 48, 110
4, 168816, Note_on_c, 0, 48, 0
4, 168840, Note_on_c, 0, 48, 110
4, 168936, Note_on_c, 0, 48, 0
4, 169080, Note_on_c, 0, 56, 110
4, 169176, Note_on_c, 0, 56, 0
4, 169200, Note_on_c, 0, 50, 110
4, 169296, Note_on_c, 0, 50, 0
4, 169320, Note_on_c, 0, 50, 110
4, 169416, Note_on_c, 0, 50, 0
4, 169440, Note_on_c, 0, 52, 110
4, 169536, Note_on_c, 0, 52, 0
4, 169560, Note_on_c, 0, 52, 110
4, 169656, Note_on_c, 0, 52, 0
4, 169800, Note_on_c, 0, 53, 110
4, 169896, Note_on_c, 0, 53, 0
4, 169920, Note_on_c, 0, 48, 110
4, 170016, Note_on_c, 0, 48, 0
4, 170040, Note_on_c, 0, 48, 110
4, 170136, Note_on_c, 0, 48, 0
4, 170160, Note_on_c, 0, 50, 110
4, 170256, Note_on_c, 0, 50, 0
4, 170280, Note_on_c, 0, 50, 110
4, 170376, Note_on_c, 0, 50, 0
4, 170400, Note_on_c, 0, 51, 110
4, 170592, Note_on_c, 0, 51, 0
4, 170640, Note_on_c, 0, 56, 110
4, 170832, Note_on_c, 0, 56, 0
4, 170880, Note_on_c, 0, 58, 110
4, 171072, Note_on_c, 0, 58, 0
4, 171120, Note_on_c, 0, 51, 110
4, 171312, Note_on_c, 0, 51, 0
4, 171360, Note_on_c, 0, 53, 110
4, 171552, Note_on_c, 0, 53, 0
4, 171600, Note_on_c, 0, 55, 110
4, 171792, Note_on_c, 0, 55, 0
4, 171840, Note_on_c, 0, 48, 110
4, 171888, Note_on_c, 0, 48, 0
4, 171900, Note_on_c, 0, 51, 110
4, 171948, Note_on_c, 0, 51, 0
4, 171960, Note_on_c, 0, 50, 110
4, 172008, Note_on_c, 0, 50, 0
4, 172020, Note_on_c, 0, 53, 110
4, 172068, Note_on_c, 0, 53, 0
4, 172080, Note_on_c, 0, 51, 110
4, 172128, Note_on_c, 0, 51, 0
4, 172140, Note_on_c, 0, 55, 110
4, 172188, Note_on_c, 0, 55, 0
4, 172200, Note_on_c, 0, 53, 110
4, 172248, Note_on_c, 0, 53, 0
4, 172260, Note_on_c, 0, 57, 110
4, 172308, Note_on_c, 0, 57, 0
4, 172320, Note_on_c, 0, 55, 110
4, 172368, Note_on_c, 0, 55, 0
4, 172380, Note_on_c, 0, 58, 110
4, 172428, Note_on_c, 0, 58, 0
4, 172440, Note_on_c, 0, 57, 110
4, 172488, Note_on_c, 0, 57, 0
4, 172500, Note_on_c, 0, 60, 110
4, 172548, Note_on_c, 0, 60, 0
4, 172560, Note_on_c, 0, 58, 110
4, 172656, Note_on_c, 0, 58, 0
4, 173160, Note_on_c, 0, 51, 110
4, 173256, Note_on_c, 0, 51, 0
4, 173280, Note_on_c, 0, 48, 110
4, 173328, Note_on_c, 0, 48, 0
4, 173340, Note_on_c, 0, 51, 110
4, 173388, Note_on_c, 0, 51, 0
4, 173400, Note_on_c, 0, 50, 110
4, 173448, Note_on_c, 0, 50, 0
4, 173460, Note_on_c, 0, 53, 110
4, 173508, Note_on_c, 0, 53, 0
4, 173520, Note_on_c, 0, 51, 110
4, 173568, Note_on_c, 0, 51, 0
4, 173580, Note_on_c, 0, 55, 110
4, 173628, Note_on_c, 0, 55, 0
4, 173640, Note_on_c, 0, 50, 110
4, 173688, Note_on_c, 0, 50, 0
4, 173700, Note_on_c, 0, 53, 110
4, 173748, Note_on_c, 0, 53, 0
4, 173760, Note_on_c, 0, 51, 110
4, 173808, Note_on_c, 0, 51, 0
4, 173820, Note_on_c, 0, 55, 110
4, 173868, Note_on_c, 0, 55, 0
4, 173880, Note_on_c, 0, 53, 110
4, 173928, Note_on_c, 0, 53, 0
4, 173940, Note_on_c, 0, 56, 110
4, 173988, Note_on_c, 0, 56, 0
4, 174000, Note_on_c, 0, 55, 110
4, 174096, Note_on_c, 0, 55, 0
4, 174600, Note_on_c, 0, 48, 110
4, 174696, Note_on_c, 0, 48, 0
4, 174720, Note_on_c, 0, 41, 110
4, 174768, Note_on_c, 0, 41, 0
4, 174780, Note_on_c, 0, 44, 110
4, 174828, Note_on_c, 0, 44, 0
4, 174840, Note_on_c, 0, 43, 110
4, 174888, Note_on_c, 0, 43, 0
4, 174900, Note_on_c, 0, 46, 110
4, 174948, Note_on_c, 0, 46, 0
4, 174960, Note_on_c, 0, 44, 110
4, 175008, Note_on_c, 0, 44, 0
4, 175020, Note_on_c, 0, 48, 110
4, 175068, Note_on_c, 0, 48, 0
4, 175080, Note_on_c, 0, 46, 110
4, 175128, Note_on_c, 0, 46, 0
4, 175140, Note_on_c, 0, 50, 110
4, 175188, Note_on_c, 0, 50, 0
4, 175200, Note_on_c, 0, 48, 110
4, 175248, Note_on_c, 0, 48, 0
4, 175260, Note_on_c, 0, 51, 110
4, 175308, Note_on_c, 0, 51, 0
4, 175320, Note_on_c, 0, 50, 110
4, 175368, Note_on_c, 0, 50, 0
4, 175380, Note_on_c, 0, 53, 110
4, 175428, Note_on_c, 0, 53, 0
4, 175440, Note_on_c, 0, 51, 110
4, 175728, Note_on_c, 0, 51, 0
4, 175740, Note_on_c, 0, 53, 110
4, 175788, Note_on_c, 0, 53, 0
4, 175800, Note_on_c, 0, 50, 110
4, 175848, Note_on_c, 0, 50, 0
4, 175860, Note_on_c, 0, 51, 110
4, 175908, Note_on_c, 0, 51, 0
4, 175920, Note_on_c, 0, 48, 110
4, 176112, Note_on_c, 0, 48, 0
4, 176160, Note_on_c, 0, 50, 110
4, 176448, Note_on_c, 0, 50, 0
4, 176460, Note_on_c, 0, 51, 110
4, 176508, Note_on_c, 0, 51, 0
4, 176520, Note_on_c, 0, 48, 110
4, 176568, Note_on_c, 0, 48, 0
4, 176580, Note_on_c, 0, 50, 110
4, 176628, Note_on_c, 0, 50, 0
4, 176640, Note_on_c, 0, 46, 110
4, 176832, Note_on_c, 0, 46, 0
4, 176880, Note_on_c, 0, 42, 110
4, 176976, Note_on_c, 0, 42, 0
4, 177000, Note_on_c, 0, 43, 110
4, 177096, Note_on_c, 0, 43, 0
4, 177120, Note_on_c, 0, 38, 110
4, 177168, Note_on_c, 0, 38, 0
4, 177180, Note_on_c, 0, 50, 110
4, 177228, Note_on_c, 0, 50, 0
4, 177240, Note_on_c, 0, 48, 110
4, 177288, Note_on_c, 0, 48, 0
4, 177300, Note_on_c, 0, 50, 110
4, 177348, Note_on_c, 0, 50, 0
4, 177360, Note_on_c, 0, 43, 110
4, 177408, Note_on_c, 0, 43, 0
4, 177420, Note_on_c, 0, 55, 110
4, 177468, Note_on_c, 0, 55, 0
4, 177480, Note_on_c, 0, 53, 110
4, 177528, Note_on_c, 0, 53, 0
4, 177540, Note_on_c, 0, 55, 110
4, 177588, Note_on_c, 0, 55, 0
4, 177600, Note_on_c, 0, 51, 110
4, 177648, Note_on_c, 0, 51, 0
4, 177660, Note_on_c, 0, 55, 110
4, 177708, Note_on_c, 0, 55, 0
4, 177720, Note_on_c, 0, 51, 110
4, 177768, Note_on_c, 0, 51, 0
4, 177780, Note_on_c, 0, 55, 110
4, 177828, Note_on_c, 0, 55, 0
4, 177840, Note_on_c, 0, 51, 110
4, 177888, Note_on_c, 0, 51, 0
4, 177900, Note_on_c, 0, 53, 110
4, 177948, Note_on_c, 0, 53, 0
4, 177960, Note_on_c, 0, 51, 110
4, 178008, Note_on_c, 0, 51, 0
4, 178020, Note_on_c, 0, 53, 110
4, 178068, Note_on_c, 0, 53, 0
4, 178080, Note_on_c, 0, 50, 110
4, 178128, Note_on_c, 0, 50, 0
4, 178140, Note_on_c, 0, 53, 110
4, 178188, Note_on_c, 0, 53, 0
4, 178200, Note_on_c, 0, 50, 110
4, 178248, Note_on_c, 0, 50, 0
4, 178260, Note_on_c, 0, 53, 110
4, 178308, Note_on_c, 0, 53, 0
4, 178320, Note_on_c, 0, 48, 110
4, 178368, Note_on_c, 0, 48, 0
4, 178380, Note_on_c, 0, 51, 110
4, 178428, Note_on_c, 0, 51, 0
4, 178440, Note_on_c, 0, 50, 110
4, 178488, Note_on_c, 0, 50, 0
4, 178500, Note_on_c, 0, 53, 110
4, 178548, Note_on_c, 0, 53, 0
4, 178560, Note_on_c, 0, 51, 110
4, 178608, Note_on_c, 0, 51, 0
4, 178620, Note_on_c, 0, 53, 110
4, 178668, Note_on_c, 0, 53, 0
4, 178680, Note_on_c, 0, 51, 110
4, 178728, Note_on_c, 0, 51, 0
4, 178740, Note_on_c, 0, 53, 110
4, 178788, Note_on_c, 0, 53, 0
4, 178800, Note_on_c, 0, 51, 110
4, 178848, Note_on_c, 0, 51, 0
4, 178860, Note_on_c, 0, 53, 110
4, 178908, Note_on_c, 0, 53, 0
4, 178920, Note_on_c, 0, 51, 110
4, 178968, Note_on_c, 0, 51, 0
4, 178980, Note_on_c, 0, 53, 110
4, 179028, Note_on_c, 0, 53, 0
4, 179040, Note_on_c, 0, 50, 110
4, 179136, Note_on_c, 0, 50, 0
4, 179160, Note_on_c, 0, 52, 110
4, 179256, Note_on_c, 0, 52, 0
4, 179280, Note_on_c, 0, 54, 110
4, 179376, Note_on_c, 0, 54, 0
4, 179400, Note_on_c, 0, 50, 110
4, 179496, Note_on_c, 0, 50, 0
4, 179520, Note_on_c, 0, 55, 110
4, 179616, Note_on_c, 0, 55, 0
4, 179640, Note_on_c, 0, 43, 110
4, 179736, Note_on_c, 0, 43, 0
4, 179760, Note_on_c, 0, 48, 110
4, 179856, Note_on_c, 0, 48, 0
4, 179880, Note_on_c, 0, 46, 110
4, 179976, Note_on_c, 0, 46, 0
4, 180000, Note_on_c, 0, 45, 110
4, 180096, Note_on_c, 0, 45, 0
4, 180120, Note_on_c, 0, 50, 110
4, 180216, Note_on_c, 0, 50, 0
4, 180240, Note_on_c, 0, 46, 110
4, 180336, Note_on_c, 0, 46, 0
4, 180360, Note_on_c, 0, 43, 110
4, 180456, Note_on_c, 0, 43, 0
4, 180480, Note_on_c, 0, 48, 110
4, 180576, Note_on_c, 0, 48, 0
4, 180600, Note_on_c, 0, 53, 110
4, 180696, Note_on_c, 0, 53, 0
4, 180720, Note_on_c, 0, 46, 110
4, 180816, Note_on_c, 0, 46, 0
4, 180840, Note_on_c, 0, 51, 110
4, 180936, Note_on_c, 0, 51, 0
4, 180960, Note_on_c, 0, 45, 110
4, 181056, Note_on_c, 0, 45, 0
4, 181080, Note_on_c, 0, 50, 110
4, 181176, Note_on_c, 0, 50, 0
4, 181200, Note_on_c, 0, 43, 110
4, 181296, Note_on_c, 0, 43, 0
4, 181320, Note_on_c, 0, 53, 110
4, 181416, Note_on_c, 0, 53, 0
4, 181440, Note_on_c, 0, 51, 110
4, 181536, Note_on_c, 0, 51, 0
4, 181560, Note_on_c, 0, 48, 110
4, 181656, Note_on_c, 0, 48, 0
4, 181680, Note_on_c, 0, 50, 110
4, 181776, Note_on_c, 0, 50, 0
4, 181800, Note_on_c, 0, 38, 110
4, 181896, Note_on_c, 0, 38, 0
4, 181920, Note_on_c, 0, 43, 110
4, 182112, Note_on_c, 0, 43, 0
4, 182520, Note_on_c, 0, 55, 110
4, 182616, Note_on_c, 0, 55, 0
4, 182640, Note_on_c, 0, 48, 110
4, 182928, Note_on_c, 0, 48, 0
4, 183000, Note_on_c, 0, 50, 110
4, 183096, Note_on_c, 0, 50, 0
4, 183120, Note_on_c, 0, 52, 110
4, 183216, Note_on_c, 0, 52, 0
4, 183240, Note_on_c, 0, 48, 110
4, 183336, Note_on_c, 0, 48, 0
4, 183360, Note_on_c, 0, 53, 110
4, 183744, Note_on_c, 0, 53, 0
4, 183840, Note_on_c, 0, 41, 110
4, 184032, Note_on_c, 0, 41, 0
4, 184080, Note_on_c, 0, 48, 110
4, 184464, Note_on_c, 0, 48, 0
4, 184560, Note_on_c, 0, 44, 110
4, 184752, Note_on_c, 0, 44, 0
4, 184800, Note_on_c, 0, 46, 110
4, 185184, Note_on_c, 0, 46, 0
4, 185280, Note_on_c, 0, 48, 110
4, 185472, Note_on_c, 0, 48, 0
4, 185520, Note_on_c, 0, 49, 110
4, 185904, Note_on_c, 0, 49, 0
4, 186000, Note_on_c, 0, 46, 110
4, 186192, Note_on_c, 0, 46, 0
4, 186240, Note_on_c, 0, 48, 110
4, 186528, Note_on_c, 0, 48, 0
4, 186540, Note_on_c, 0, 52, 110
4, 186588, Note_on_c, 0, 52, 0
4, 186600, Note_on_c, 0, 50, 110
4, 186648, Note_on_c, 0, 50, 0
4, 186660, Note_on_c, 0, 53, 110
4, 186708, Note_on_c, 0, 53, 0
4, 186720, Note_on_c, 0, 52, 110
4, 186768, Note_on_c, 0, 52, 0
4, 186780, Note_on_c, 0, 55, 110
4, 186828, Note_on_c, 0, 55, 0
4, 186840, Note_on_c, 0, 52, 110
4, 186888, Note_on_c, 0, 52, 0
4, 186900, Note_on_c, 0, 55, 110
4, 186948, Note_on_c, 0, 55, 0
4, 186960, Note_on_c, 0, 44, 110
4, 187248, Note_on_c, 0, 44, 0
4, 187260, Note_on_c, 0, 48, 110
4, 187308, Note_on_c, 0, 48, 0
4, 187320, Note_on_c, 0, 46, 110
4, 187368, Note_on_c, 0, 46, 0
4, 187380, Note_on_c, 0, 49, 110
4, 187428, Note_on_c, 0, 49, 0
4, 187440, Note_on_c, 0, 48, 110
4, 187488, Note_on_c, 0, 48, 0
4, 187500, Note_on_c, 0, 49, 110
4, 187548, Note_on_c, 0, 49, 0
4, 187560, Note_on_c, 0, 48, 110
4, 187608, Note_on_c, 0, 48, 0
4, 187620, Note_on_c, 0, 49, 110
4, 187668, Note_on_c, 0, 49, 0
4, 187680, Note_on_c, 0, 38, 110
4, 187872, Note_on_c, 0, 38, 0
4, 187920, Note_on_c, 0, 40, 110
4, 188208, Note_on_c, 0, 40, 0
4, 188220, Note_on_c, 0, 52, 110
4, 188268, Note_on_c, 0, 52, 0
4, 188280, Note_on_c, 0, 50, 110
4, 188328, Note_on_c, 0, 50, 0
4, 188340, Note_on_c, 0, 52, 110
4, 188388, Note_on_c, 0, 52, 0
4, 188400, Note_on_c, 0, 41, 110
4, 188688, Note_on_c, 0, 41, 0
4, 188700, Note_on_c, 0, 53, 110
4, 188748, Note_on_c, 0, 53, 0
4, 188760, Note_on_c, 0, 52, 110
4, 188808, Note_on_c, 0, 52, 0
4, 188820, Note_on_c, 0, 53, 110
4, 188868, Note_on_c, 0, 53, 0
4, 188880, Note_on_c, 0, 48, 110
4, 189072, Note_on_c, 0, 48, 0
4, 189120, Note_on_c, 0, 50, 110
4, 189504, Note_on_c, 0, 50, 0
4, 189660, Note_on_c, 0, 51, 110
4, 189708, Note_on_c, 0, 51, 0
4, 189720, Note_on_c, 0, 50, 110
4, 189768, Note_on_c, 0, 50, 0
4, 189780, Note_on_c, 0, 51, 110
4, 189828, Note_on_c, 0, 51, 0
4, 189840, Note_on_c, 0, 48, 110
4, 190032, Note_on_c, 0, 48, 0
4, 190080, Note_on_c, 0, 50, 110
4, 190272, Note_on_c, 0, 50, 0
4, 190380, Note_on_c, 0, 51, 110
4, 190428, Note_on_c, 0, 51, 0
4, 190440, Note_on_c, 0, 50, 110
4, 190488, Note_on_c, 0, 50, 0
4, 190500, Note_on_c, 0, 51, 110
4, 190548, Note_on_c, 0, 51, 0
4, 190560, Note_on_c, 0, 48, 110
4, 190752, Note_on_c, 0, 48, 0
4, 190800, Note_on_c, 0, 50, 110
4, 190992, Note_on_c, 0, 50, 0
4, 191100, Note_on_c, 0, 51, 110
4, 191148, Note_on_c, 0, 51, 0
4, 191160, Note_on_c, 0, 50, 110
4, 191208, Note_on_c, 0, 50, 0
4, 191220, Note_on_c, 0, 51, 110
4, 191268, Note_on_c, 0, 51, 0
4, 191280, Note_on_c, 0, 48, 110
4, 191472, Note_on_c, 0, 48, 0
4, 191520, Note_on_c, 0, 50, 110
4, 191712, Note_on_c, 0, 50, 0
4, 191760, Note_on_c, 0, 38, 110
4, 191952, Note_on_c, 0, 38, 0
4, 192000, Note_on_c, 0, 43, 110
4, 192096, Note_on_c, 0, 43, 0
4, 192120, Note_on_c, 0, 45, 110
4, 192216, Note_on_c, 0, 45, 0
4, 192240, Note_on_c, 0, 47, 110
4, 192336, Note_on_c, 0, 47, 0
4, 192360, Note_on_c, 0, 48, 110
4, 192456, Note_on_c, 0, 48, 0
4, 192480, Note_on_c, 0, 50, 110
4, 192576, Note_on_c, 0, 50, 0
4, 192600, Note_on_c, 0, 47, 110
4, 192696, Note_on_c, 0, 47, 0
4, 192720, Note_on_c, 0, 48, 110
4, 192912, Note_on_c, 0, 48, 0
4, 193320, Note_on_c, 0, 48, 110
4, 193416, Note_on_c, 0, 48, 0
4, 193440, Note_on_c, 0, 53, 110
4, 193488, Note_on_c, 0, 53, 0
4, 193500, Note_on_c, 0, 56, 110
4, 193548, Note_on_c, 0, 56, 0
4, 193560, Note_on_c, 0, 55, 110
4, 193608, Note_on_c, 0, 55, 0
4, 193620, Note_on_c, 0, 58, 110
4, 193668, Note_on_c, 0, 58, 0
4, 193680, Note_on_c, 0, 56, 110
4, 193728, Note_on_c, 0, 56, 0
4, 193740, Note_on_c, 0, 60, 110
4, 193788, Note_on_c, 0, 60, 0
4, 193800, Note_on_c, 0, 55, 110
4, 193848, Note_on_c, 0, 55, 0
4, 193860, Note_on_c, 0, 58, 110
4, 193908, Note_on_c, 0, 58, 0
4, 193920, Note_on_c, 0, 53, 110
4, 193968, Note_on_c, 0, 53, 0
4, 193980, Note_on_c, 0, 56, 110
4, 194028, Note_on_c, 0, 56, 0
4, 194040, Note_on_c, 0, 51, 110
4, 194088, Note_on_c, 0, 51, 0
4, 194100, Note_on_c, 0, 55, 110
4, 194148, Note_on_c, 0, 55, 0
4, 194160, Note_on_c, 0, 50, 110
4, 194208, Note_on_c, 0, 50, 0
4, 194220, Note_on_c, 0, 53, 110
4, 194268, Note_on_c, 0, 53, 0
4, 194280, Note_on_c, 0, 51, 110
4, 194328, Note_on_c, 0, 51, 0
4, 194340, Note_on_c, 0, 55, 110
4, 194388, Note_on_c, 0, 55, 0
4, 194400, Note_on_c, 0, 53, 110
4, 194448, Note_on_c, 0, 53, 0
4, 194460, Note_on_c, 0, 56, 110
4, 194508, Note_on_c, 0, 56, 0
4, 194520, Note_on_c, 0, 51, 110
4, 194568, Note_on_c, 0, 51, 0
4, 194580, Note_on_c, 0, 55, 110
4, 194628, Note_on_c, 0, 55, 0
4, 194640, Note_on_c, 0, 50, 110
4, 194688, Note_on_c, 0, 50, 0
4, 194700, Note_on_c, 0, 53, 110
4, 194748, Note_on_c, 0, 53, 0
4, 194760, Note_on_c, 0, 48, 110
4, 194808, Note_on_c, 0, 48, 0
4, 194820, Note_on_c, 0, 51, 110
4, 194868, Note_on_c, 0, 51, 0
4, 194880, Note_on_c, 0, 47, 110
4, 195072, Note_on_c, 0, 47, 0
4, 195120, Note_on_c, 0, 48, 110
4, 195312, Note_on_c, 0, 48, 0
4, 195360, Note_on_c, 0, 44, 110
4, 195552, Note_on_c, 0, 44, 0
4, 195600, Note_on_c, 0, 43, 110
4, 195792, Note_on_c, 0, 43, 0
4, 195900, Note_on_c, 0, 55, 110
4, 195948, Note_on_c, 0, 55, 0
4, 195960, Note_on_c, 0, 53, 110
4, 196008, Note_on_c, 0, 53, 0
4, 196020, Note_on_c, 0, 55, 110
4, 196068, Note_on_c, 0, 55, 0
4, 196080, Note_on_c, 0, 48, 110
4, 196128, Note_on_c, 0, 48, 0
4, 196140, Note_on_c, 0, 60, 110
4, 196188, Note_on_c, 0, 60, 0
4, 196200, Note_on_c, 0, 58, 110
4, 196248, Note_on_c, 0, 58, 0
4, 196260, Note_on_c, 0, 60, 110
4, 196308, Note_on_c, 0, 60, 0
4, 196320, Note_on_c, 0, 56, 110
4, 196368, Note_on_c, 0, 56, 0
4, 196380, Note_on_c, 0, 60, 110
4, 196428, Note_on_c, 0, 60, 0
4, 196440, Note_on_c, 0, 56, 110
4, 196488, Note_on_c, 0, 56, 0
4, 196500, Note_on_c, 0, 60, 110
4, 196548, Note_on_c, 0, 60, 0
4, 196560, Note_on_c, 0, 56, 110
4, 196608, Note_on_c, 0, 56, 0
4, 196620, Note_on_c, 0, 58, 110
4, 196668, Note_on_c, 0, 58, 0
4, 196680, Note_on_c, 0, 56, 110
4, 196728, Note_on_c, 0, 56, 0
4, 196740, Note_on_c, 0, 58, 110
4, 196788, Note_on_c, 0, 58, 0
4, 196800, Note_on_c, 0, 55, 110
4, 196848, Note_on_c, 0, 55, 0
4, 196860, Note_on_c, 0, 58, 110
4, 196908, Note_on_c, 0, 58, 0
4, 196920, Note_on_c, 0, 55, 110
4, 196968, Note_on_c, 0, 55, 0
4, 196980, Note_on_c, 0, 58, 110
4, 197028, Note_on_c, 0, 58, 0
4, 197040, Note_on_c, 0, 53, 110
4, 197088, Note_on_c, 0, 53, 0
4, 197100, Note_on_c, 0, 56, 110
4, 197148, Note_on_c, 0, 56, 0
4, 197160, Note_on_c, 0, 55, 110
4, 197208, Note_on_c, 0, 55, 0
4, 197220, Note_on_c, 0, 58, 110
4, 197268, Note_on_c, 0, 58, 0
4, 197280, Note_on_c, 0, 56, 110
4, 197328, Note_on_c, 0, 56, 0
4, 197340, Note_on_c, 0, 58, 110
4, 197388, Note_on_c, 0, 58, 0
4, 197400, Note_on_c, 0, 56, 110
4, 197448, Note_on_c, 0, 56, 0
4, 197460, Note_on_c, 0, 58, 110
4, 197508, Note_on_c, 0, 58, 0
4, 197520, Note_on_c, 0, 56, 110
4, 197568, Note_on_c, 0, 56, 0
4, 197580, Note_on_c, 0, 58, 110
4, 197628, Note_on_c, 0, 58, 0
4, 197640, Note_on_c, 0, 56, 110
4, 197688, Note_on_c, 0, 56, 0
4, 197700, Note_on_c, 0, 58, 110
4, 197748, Note_on_c, 0, 58, 0
4, 197760, Note_on_c, 0, 55, 110
4, 198528, Note_on_c, 0, 55, 0
4, 198540, Note_on_c, 0, 59, 110
4, 198588, Note_on_c, 0, 59, 0
4, 198600, Note_on_c, 0, 55, 110
4, 198648, Note_on_c, 0, 55, 0
4, 198660, Note_on_c, 0, 59, 110
4, 198708, Note_on_c, 0, 59, 0
4, 198720, Note_on_c, 0, 51, 110
4, 198768, Note_on_c, 0, 51, 0
4, 198780, Note_on_c, 0, 55, 110
4, 198828, Note_on_c, 0, 55, 0
4, 198840, Note_on_c, 0, 51, 110
4, 198888, Note_on_c, 0, 51, 0
4, 198900, Note_on_c, 0, 55, 110
4, 198948, Note_on_c, 0, 55, 0
4, 198960, Note_on_c, 0, 48, 110
4, 199008, Note_on_c, 0, 48, 0
4, 199020, Note_on_c, 0, 51, 110
4, 199068, Note_on_c, 0, 51, 0
4, 199080, Note_on_c, 0, 48, 110
4, 199128, Note_on_c, 0, 48, 0
4, 199140, Note_on_c, 0, 51, 110
4, 199188, Note_on_c, 0, 51, 0
4, 199200, Note_on_c, 0, 53, 110
4, 199248, Note_on_c, 0, 53, 0
4, 199260, Note_on_c, 0, 56, 110
4, 199308, Note_on_c, 0, 56, 0
4, 199320, Note_on_c, 0, 53, 110
4, 199368, Note_on_c, 0, 53, 0
4, 199380, Note_on_c, 0, 56, 110
4, 199428, Note_on_c, 0, 56, 0
4, 199440, Note_on_c, 0, 50, 110
4, 199488, Note_on_c, 0, 50, 0
4, 199500, Note_on_c, 0, 53, 110
4, 199548, Note_on_c, 0, 53, 0
4, 199560, Note_on_c, 0, 50, 110
4, 199608, Note_on_c, 0, 50, 0
4, 199620, Note_on_c, 0, 53, 110
4, 199668, Note_on_c, 0, 53, 0
4, 199680, Note_on_c, 0, 47, 110
4, 199728, Note_on_c, 0, 47, 0
4, 199740, Note_on_c, 0, 50, 110
4, 199788, Note_on_c, 0, 50, 0
4, 199800, Note_on_c, 0, 47, 110
4, 199848, Note_on_c, 0, 47, 0
4, 199860, Note_on_c, 0, 50, 110
4, 199908, Note_on_c, 0, 50, 0
4, 199920, Note_on_c, 0, 51, 110
4, 199968, Note_on_c, 0, 51, 0
4, 199980, Note_on_c, 0, 55, 110
4, 200028, Note_on_c, 0, 55, 0
4, 200040, Note_on_c, 0, 51, 110
4, 200088, Note_on_c, 0, 51, 0
4, 200100, Note_on_c, 0, 55, 110
4, 200148, Note_on_c, 0, 55, 0
4, 200160, Note_on_c, 0, 48, 110
4, 200208, Note_on_c, 0, 48, 0
4, 200220, Note_on_c, 0, 51, 110
4, 200268, Note_on_c, 0, 51, 0
4, 200280, Note_on_c, 0, 48, 110
4, 200328, Note_on_c, 0, 48, 0
4, 200340, Note_on_c, 0, 51, 110
4, 200388, Note_on_c, 0, 51, 0
4, 200400, Note_on_c, 0, 45, 110
4, 200448, Note_on_c, 0, 45, 0
4, 200460, Note_on_c, 0, 48, 110
4, 200508, Note_on_c, 0, 48, 0
4, 200520, Note_on_c, 0, 45, 110
4, 200568, Note_on_c, 0, 45, 0
4, 200580, Note_on_c, 0, 48, 110
4, 200628, Note_on_c, 0, 48, 0
4, 200640, Note_on_c, 0, 50, 110
4, 200688, Note_on_c, 0, 50, 0
4, 200700, Note_on_c, 0, 53, 110
4, 200748, Note_on_c, 0, 53, 0
4, 200760, Note_on_c, 0, 50, 110
4, 200808, Note_on_c, 0, 50, 0
4, 200820, Note_on_c, 0, 53, 110
4, 200868, Note_on_c, 0, 53, 0
4, 200880, Note_on_c, 0, 47, 110
4, 200928, Note_on_c, 0, 47, 0
4, 200940, Note_on_c, 0, 50, 110
4, 200988, Note_on_c, 0, 50, 0
4, 201000, Note_on_c, 0, 47, 110
4, 201048, Note_on_c, 0, 47, 0
4, 201060, Note_on_c, 0, 50, 110
4, 201108, Note_on_c, 0, 50, 0
4, 201120, Note_on_c, 0, 43, 110
4, 201168, Note_on_c, 0, 43, 0
4, 201180, Note_on_c, 0, 47, 110
4, 201228, Note_on_c, 0, 47, 0
4, 201240, Note_on_c, 0, 43, 110
4, 201288, Note_on_c, 0, 43, 0
4, 201300, Note_on_c, 0, 47, 110
4, 201348, Note_on_c, 0, 47, 0
4, 201360, Note_on_c, 0, 48, 110
4, 201408, Note_on_c, 0, 48, 0
4, 201420, Note_on_c, 0, 51, 110
4, 201468, Note_on_c, 0, 51, 0
4, 201480, Note_on_c, 0, 48, 110
4, 201528, Note_on_c, 0, 48, 0
4, 201540, Note_on_c, 0, 51, 110
4, 201588, Note_on_c, 0, 51, 0
4, 201600, Note_on_c, 0, 44, 110
4, 201648, Note_on_c, 0, 44, 0
4, 201660, Note_on_c, 0, 48, 110
4, 201708, Note_on_c, 0, 48, 0
4, 201720, Note_on_c, 0, 44, 110
4, 201768, Note_on_c, 0, 44, 0
4, 201780, Note_on_c, 0, 48, 110
4, 201828, Note_on_c, 0, 48, 0
4, 201840, Note_on_c, 0, 41, 110
4, 201888, Note_on_c, 0, 41, 0
4, 201900, Note_on_c, 0, 44, 110
4, 201948, Note_on_c, 0, 44, 0
4, 201960, Note_on_c, 0, 41, 110
4, 202008, Note_on_c, 0, 41, 0
4, 202020, Note_on_c, 0, 44, 110
4, 202068, Note_on_c, 0, 44, 0
4, 202080, Note_on_c, 0, 43, 110
4, 202272, Note_on_c, 0, 43, 0
4, 202380, Note_on_c, 0, 43, 110
4, 202428, Note_on_c, 0, 43, 0
4, 202440, Note_on_c, 0, 47, 110
4, 202488, Note_on_c, 0, 47, 0
4, 202500, Note_on_c, 0, 43, 110
4, 202548, Note_on_c, 0, 43, 0
4, 202560, Note_on_c, 0, 48, 110
4, 202608, Note_on_c, 0, 48, 0
4, 202620, Note_on_c, 0, 43, 110
4, 202668, Note_on_c, 0, 43, 0
4, 202680, Note_on_c, 0, 51, 110
4, 202728, Note_on_c, 0, 51, 0
4, 202740, Note_on_c, 0, 48, 110
4, 202788, Note_on_c, 0, 48, 0
4, 202800, Note_on_c, 0, 55, 110
4, 202992, Note_on_c, 0, 55, 0
4, 203100, Note_on_c, 0, 55, 110
4, 203148, Note_on_c, 0, 55, 0
4, 203160, Note_on_c, 0, 53, 110
4, 203208, Note_on_c, 0, 53, 0
4, 203220, Note_on_c, 0, 55, 110
4, 203268, Note_on_c, 0, 55, 0
4, 203280, Note_on_c, 0, 51, 110
4, 203328, Note_on_c, 0, 51, 0
4, 203340, Note_on_c, 0, 55, 110
4, 203388, Note_on_c, 0, 55, 0
4, 203400, Note_on_c, 0, 48, 110
4, 203448, Note_on_c, 0, 48, 0
4, 203460, Note_on_c, 0, 51, 110
4, 203508, Note_on_c, 0, 51, 0
4, 203520, Note_on_c, 0, 47, 110
4, 203712, Note_on_c, 0, 47, 0
4, 203820, Note_on_c, 0, 55, 110
4, 203868, Note_on_c, 0, 55, 0
4, 203880, Note_on_c, 0, 53, 110
4, 203928, Note_on_c, 0, 53, 0
4, 203940, Note_on_c, 0, 55, 110
4, 203988, Note_on_c, 0, 55, 0
4, 204000, Note_on_c, 0, 51, 110
4, 204048, Note_on_c, 0, 51, 0
4, 204060, Note_on_c, 0, 55, 110
4, 204108, Note_on_c, 0, 55, 0
4, 204120, Note_on_c, 0, 48, 110
4, 204168, Note_on_c, 0, 48, 0
4, 204180, Note_on_c, 0, 51, 110
4, 204228, Note_on_c, 0, 51, 0
4, 204240, Note_on_c, 0, 43, 110
4, 204432, Note_on_c, 0, 43, 0
4, 204540, Note_on_c, 0, 55, 110
4, 204588, Note_on_c, 0, 55, 0
4, 204600, Note_on_c, 0, 53, 110
4, 204648, Note_on_c, 0, 53, 0
4, 204660, Note_on_c, 0, 55, 110
4, 204708, Note_on_c, 0, 55, 0
4, 204720, Note_on_c, 0, 51, 110
4, 204768, Note_on_c, 0, 51, 0
4, 204780, Note_on_c, 0, 55, 110
4, 204828, Note_on_c, 0, 55, 0
4, 204840, Note_on_c, 0, 48, 110
4, 204888, Note_on_c, 0, 48, 0
4, 204900, Note_on_c, 0, 51, 110
4, 204948, Note_on_c, 0, 51, 0
4, 204960, Note_on_c, 0, 41, 110
4, 205056, Note_on_c, 0, 41, 0
4, 205320, Note_on_c, 0, 53, 110
4, 205416, Note_on_c, 0, 53, 0
4, 205440, Note_on_c, 0, 51, 110
4, 205536, Note_on_c, 0, 51, 0
4, 205560, Note_on_c, 0, 48, 110
4, 205656, Note_on_c, 0, 48, 0
4, 205680, Note_on_c, 0, 53, 110
4, 205872, Note_on_c, 0, 53, 0
4, 205920, Note_on_c, 0, 55, 110
4, 206112, Note_on_c, 0, 55, 0
4, 206160, Note_on_c, 0, 43, 110
4, 206352, Note_on_c, 0, 43, 0
4, 206400, Note_on_c, 0, 36, 110
4, 206592, Note_on_c, 0, 36, 0
4, 206700, Note_on_c, 0, 48, 110
4, 206748, Note_on_c, 0, 48, 0
4, 206760, Note_on_c, 0, 52, 110
4, 206808, Note_on_c, 0, 52, 0
4, 206820, Note_on_c, 0, 48, 110
4, 206868, Note_on_c, 0, 48, 0
4, 206880, Note_on_c, 0, 53, 110
4, 206928, Note_on_c, 0, 53, 0
4, 206940, Note_on_c, 0, 48, 110
4, 206988, Note_on_c, 0, 48, 0
4, 207000, Note_on_c, 0, 56, 110
4, 207048, Note_on_c, 0, 56, 0
4, 207060, Note_on_c, 0, 53, 110
4, 207108, Note_on_c, 0, 53, 0
4, 207120, Note_on_c, 0, 60, 110
4, 207312, Note_on_c, 0, 60, 0
4, 207420, Note_on_c, 0, 60, 110
4, 207468, Note_on_c, 0, 60, 0
4, 207480, Note_on_c, 0, 58, 110
4, 207528, Note_on_c, 0, 58, 0
4, 207540, Note_on_c, 0, 60, 110
4, 207588, Note_on_c, 0, 60, 0
4, 207600, Note_on_c, 0, 56, 110
4, 207648, Note_on_c, 0, 56, 0
4, 207660, Note_on_c, 0, 60, 110
4, 207708, Note_on_c, 0, 60, 0
4, 207720, Note_on_c, 0, 53, 110
4, 207768, Note_on_c, 0, 53, 0
4, 207780, Note_on_c, 0, 56, 110
4, 207828, Note_on_c, 0, 56, 0
4, 207840, Note_on_c, 0, 52, 110
4, 208032, Note_on_c, 0, 52, 0
4, 208140, Note_on_c, 0, 60, 110
4, 208188, Note_on_c, 0, 60, 0
4, 208200, Note_on_c, 0, 58, 110
4, 208248, Note_on_c, 0, 58, 0
4, 208260, Note_on_c, 0, 60, 110
4, 208308, Note_on_c, 0, 60, 0
4, 208320, Note_on_c, 0, 56, 110
4, 208368, Note_on_c, 0, 56, 0
4, 208380, Note_on_c, 0, 60, 110
4, 208428, Note_on_c, 0, 60, 0
4, 208440, Note_on_c, 0, 53, 110
4, 208488, Note_on_c, 0, 53, 0
4, 208500, Note_on_c, 0, 56, 110
4, 208548, Note_on_c, 0, 56, 0
4, 208560, Note_on_c, 0, 48, 110
4, 208752, Note_on_c, 0, 48, 0
4, 208860, Note_on_c, 0, 48, 110
4, 208908, Note_on_c, 0, 48, 0
4, 208920, Note_on_c, 0, 46, 110
4, 208968, Note_on_c, 0, 46, 0
4, 208980, Note_on_c, 0, 48, 110
4, 209028, Note_on_c, 0, 48, 0
4, 209040, Note_on_c, 0, 44, 110
4, 209088, Note_on_c, 0, 44, 0
4, 209100, Note_on_c, 0, 48, 110
4, 209148, Note_on_c, 0, 48, 0
4, 209160, Note_on_c, 0, 41, 110
4, 209208, Note_on_c, 0, 41, 0
4, 209220, Note_on_c, 0, 48, 110
4, 209268, Note_on_c, 0, 48, 0
4, 209280, Note_on_c, 0, 36, 110
4, 209760, Note_on_c, 0, 53, 110
4, 209952, Note_on_c, 0, 53, 0
4, 210000, Note_on_c, 0, 55, 110
4, 210576, Note_on_c, 0, 55, 0
4, 210576, Note_on_c, 0, 36, 0
4, 210576, End_track
5, 0, Start_track
5, 0, MIDI_port, 0
5, 0, Title_t, "Arr. Copyright 1998 G. Bricault"
5, 0, Program_c, 0, 19
5, 0, Control_c, 0, 7, 127
5, 0, Control_c, 0, 10, 64
5, 14160, Note_on_c, 0, 67, 96
5, 14175, Note_on_c, 0, 67, 0
5, 14175, Note_on_c, 0, 65, 92
5, 14190, Note_on_c, 0, 65, 0
5, 14190, Note_on_c, 0, 67, 92
5, 14376, Note_on_c, 0, 67, 0
5, 16224, Note_on_c, 0, 60, 64
5, 16224, Note_on_c, 0, 60, 0
5, 16260, Note_on_c, 0, 62, 96
5, 16317, Note_on_c, 0, 62, 0
5, 16320, Note_on_c, 0, 60, 96
5, 16332, Note_on_c, 0, 60, 0
5, 16335, Note_on_c, 0, 59, 96
5, 16347, Note_on_c, 0, 59, 0
5, 16350, Note_on_c, 0, 60, 96
5, 16362, Note_on_c, 0, 60, 0
5, 16365, Note_on_c, 0, 59, 96
5, 16377, Note_on_c, 0, 59, 0
5, 16380, Note_on_c, 0, 60, 96
5, 16392, Note_on_c, 0, 60, 0
5, 16395, Note_on_c, 0, 59, 96
5, 16407, Note_on_c, 0, 59, 0
5, 16410, Note_on_c, 0, 60, 96
5, 16422, Note_on_c, 0, 60, 0
5, 16425, Note_on_c, 0, 59, 96
5, 16632, Note_on_c, 0, 59, 0
5, 28080, Note_on_c, 0, 63, 96
5, 28092, Note_on_c, 0, 63, 0
5, 28095, Note_on_c, 0, 62, 96
5, 28107, Note_on_c, 0, 62, 0
5, 28110, Note_on_c, 0, 63, 96
5, 28122, Note_on_c, 0, 63, 0
5, 28125, Note_on_c, 0, 62, 96
5, 28137, Note_on_c, 0, 62, 0
5, 28140, Note_on_c, 0, 63, 96
5, 28152, Note_on_c, 0, 63, 0
5, 28155, Note_on_c, 0, 62, 96
5, 28167, Note_on_c, 0, 62, 0
5, 28170, Note_on_c, 0, 63, 96
5, 28182, Note_on_c, 0, 63, 0
5, 28185, Note_on_c, 0, 62, 96
5, 28197, Note_on_c, 0, 62, 0
5, 28200, Note_on_c, 0, 62, 96
5, 28248, Note_on_c, 0, 62, 0
5, 28260, Note_on_c, 0, 60, 96
5, 28308, Note_on_c, 0, 60, 0
5, 30960, Note_on_c, 0, 82, 96
5, 30972, Note_on_c, 0, 82, 0
5, 30975, Note_on_c, 0, 80, 96
5, 30987, Note_on_c, 0, 80, 0
5, 30990, Note_on_c, 0, 82, 96
5, 31002, Note_on_c, 0, 82, 0
5, 31005, Note_on_c, 0, 80, 96
5, 31017, Note_on_c, 0, 80, 0
5, 31020, Note_on_c, 0, 82, 96
5, 31032, Note_on_c, 0, 82, 0
5, 31035, Note_on_c, 0, 80, 96
5, 31047, Note_on_c, 0, 80, 0
5, 31050, Note_on_c, 0, 82, 96
5, 31062, Note_on_c, 0, 82, 0
5, 31065, Note_on_c, 0, 80, 96
5, 31077, Note_on_c, 0, 80, 0
5, 31080, Note_on_c, 0, 80, 96
5, 31128, Note_on_c, 0, 80, 0
5, 31140, Note_on_c, 0, 79, 96
5, 31164, Note_on_c, 0, 79, 0
5, 31170, Note_on_c, 0, 80, 96
5, 31194, Note_on_c, 0, 80, 0
5, 31680, Note_on_c, 0, 72, 96
5, 31692, Note_on_c, 0, 72, 0
5, 31695, Note_on_c, 0, 71, 96
5, 31707, Note_on_c, 0, 71, 0
5, 31710, Note_on_c, 0, 72, 96
5, 31722, Note_on_c, 0, 72, 0
5, 31725, Note_on_c, 0, 71, 96
5, 31737, Note_on_c, 0, 71, 0
5, 31740, Note_on_c, 0, 72, 96
5, 31752, Note_on_c, 0, 72, 0
5, 31755, Note_on_c, 0, 71, 96
5, 31767, Note_on_c, 0, 71, 0
5, 31770, Note_on_c, 0, 72, 96
5, 31782, Note_on_c, 0, 72, 0
5, 31785, Note_on_c, 0, 71, 96
5, 31896, Note_on_c, 0, 71, 0
5, 33456, Note_on_c, 0, 77, 64
5, 33456, Note_on_c, 0, 77, 0
5, 33480, Note_on_c, 0, 79, 96
5, 33528, Note_on_c, 0, 79, 0
5, 33540, Note_on_c, 0, 74, 96
5, 33588, Note_on_c, 0, 74, 0
5, 33600, Note_on_c, 0, 75, 96
5, 33744, Note_on_c, 0, 75, 0
5, 33780, Note_on_c, 0, 77, 96
5, 33828, Note_on_c, 0, 77, 0
5, 33840, Note_on_c, 0, 75, 96
5, 33852, Note_on_c, 0, 75, 0
5, 33855, Note_on_c, 0, 74, 96
5, 33867, Note_on_c, 0, 74, 0
5, 33870, Note_on_c, 0, 75, 96
5, 33882, Note_on_c, 0, 75, 0
5, 33885, Note_on_c, 0, 74, 96
5, 33897, Note_on_c, 0, 74, 0
5, 33900, Note_on_c, 0, 75, 96
5, 33912, Note_on_c, 0, 75, 0
5, 33915, Note_on_c, 0, 74, 96
5, 33927, Note_on_c, 0, 74, 0
5, 33930, Note_on_c, 0, 75, 96
5, 33942, Note_on_c, 0, 75, 0
5, 33945, Note_on_c, 0, 74, 96
5, 34008, Note_on_c, 0, 74, 0
5, 34020, Note_on_c, 0, 75, 96
5, 34068, Note_on_c, 0, 75, 0
5, 45360, Note_on_c, 0, 63, 110
5, 45372, Note_on_c, 0, 63, 0
5, 45375, Note_on_c, 0, 62, 110
5, 45387, Note_on_c, 0, 62, 0
5, 45390, Note_on_c, 0, 63, 110
5, 45402, Note_on_c, 0, 63, 0
5, 45405, Note_on_c, 0, 62, 110
5, 45417, Note_on_c, 0, 62, 0
5, 45420, Note_on_c, 0, 63, 110
5, 45432, Note_on_c, 0, 63, 0
5, 45435, Note_on_c, 0, 62, 110
5, 45447, Note_on_c, 0, 62, 0
5, 45450, Note_on_c, 0, 63, 110
5, 45462, Note_on_c, 0, 63, 0
5, 45465, Note_on_c, 0, 62, 110
5, 45528, Note_on_c, 0, 62, 0
5, 45540, Note_on_c, 0, 63, 110
5, 45588, Note_on_c, 0, 63, 0
5, 51840, Note_on_c, 0, 62, 110
5, 51840, Note_on_c, 0, 65, 110
5, 51852, Note_on_c, 0, 65, 0
5, 51852, Note_on_c, 0, 62, 0
5, 51855, Note_on_c, 0, 60, 110
5, 51855, Note_on_c, 0, 63, 110
5, 51867, Note_on_c, 0, 63, 0
5, 51867, Note_on_c, 0, 60, 0
5, 51870, Note_on_c, 0, 62, 110
5, 51870, Note_on_c, 0, 65, 110
5, 51882, Note_on_c, 0, 65, 0
5, 51882, Note_on_c, 0, 62, 0
5, 51885, Note_on_c, 0, 63, 110
5, 51885, Note_on_c, 0, 60, 110
5, 51897, Note_on_c, 0, 60, 0
5, 51897, Note_on_c, 0, 63, 0
5, 51900, Note_on_c, 0, 65, 110
5, 51900, Note_on_c, 0, 62, 110
5, 51912, Note_on_c, 0, 62, 0
5, 51912, Note_on_c, 0, 65, 0
5, 51915, Note_on_c, 0, 60, 110
5, 51915, Note_on_c, 0, 63, 110
5, 51927, Note_on_c, 0, 63, 0
5, 51927, Note_on_c, 0, 60, 0
5, 51930, Note_on_c, 0, 65, 110
5, 51930, Note_on_c, 0, 62, 110
5, 51942, Note_on_c, 0, 62, 0
5, 51942, Note_on_c, 0, 65, 0
5, 51945, Note_on_c, 0, 63, 110
5, 51945, Note_on_c, 0, 60, 110
5, 52056, Note_on_c, 0, 60, 0
5, 52056, Note_on_c, 0, 63, 0
5, 85200, Note_on_c, 0, 63, 110
5, 85215, Note_on_c, 0, 63, 0
5, 85215, Note_on_c, 0, 62, 110
5, 85230, Note_on_c, 0, 62, 0
5, 85230, Note_on_c, 0, 63, 110
5, 85278, Note_on_c, 0, 63, 0
5, 85320, Note_on_c, 0, 60, 110
5, 85416, Note_on_c, 0, 60, 0
5, 99360, Note_on_c, 0, 72, 110
5, 99372, Note_on_c, 0, 72, 0
5, 99375, Note_on_c, 0, 71, 110
5, 99387, Note_on_c, 0, 71, 0
5, 99390, Note_on_c, 0, 72, 110
5, 99402, Note_on_c, 0, 72, 0
5, 99405, Note_on_c, 0, 71, 110
5, 99417, Note_on_c, 0, 71, 0
5, 99420, Note_on_c, 0, 72, 110
5, 99432, Note_on_c, 0, 72, 0
5, 99435, Note_on_c, 0, 71, 110
5, 99447, Note_on_c, 0, 71, 0
5, 99450, Note_on_c, 0, 72, 110
5, 99462, Note_on_c, 0, 72, 0
5, 99465, Note_on_c, 0, 71, 110
5, 99576, Note_on_c, 0, 71, 0
5, 102960, Note_on_c, 0, 72, 110
5, 102972, Note_on_c, 0, 72, 0
5, 102975, Note_on_c, 0, 71, 110
5, 102987, Note_on_c, 0, 71, 0
5, 102990, Note_on_c, 0, 72, 110
5, 103002, Note_on_c, 0, 72, 0
5, 103005, Note_on_c, 0, 71, 110
5, 103017, Note_on_c, 0, 71, 0
5, 103020, Note_on_c, 0, 72, 110
5, 103032, Note_on_c, 0, 72, 0
5, 103035, Note_on_c, 0, 71, 110
5, 103047, Note_on_c, 0, 71, 0
5, 103050, Note_on_c, 0, 72, 110
5, 103062, Note_on_c, 0, 72, 0
5, 103065, Note_on_c, 0, 71, 110
5, 103128, Note_on_c, 0, 71, 0
5, 103140, Note_on_c, 0, 72, 110
5, 103188, Note_on_c, 0, 72, 0
5, 137040, Note_on_c, 0, 70, 110
5, 137052, Note_on_c, 0, 70, 0
5, 137055, Note_on_c, 0, 69, 110
5, 137067, Note_on_c, 0, 69, 0
5, 137070, Note_on_c, 0, 70, 110
5, 137082, Note_on_c, 0, 70, 0
5, 137085, Note_on_c, 0, 69, 110
5, 137097, Note_on_c, 0, 69, 0
5, 137100, Note_on_c, 0, 70, 110
5, 137112, Note_on_c, 0, 70, 0
5, 137115, Note_on_c, 0, 69, 110
5, 137127, Note_on_c, 0, 69, 0
5, 137130, Note_on_c, 0, 70, 110
5, 137142, Note_on_c, 0, 70, 0
5, 137145, Note_on_c, 0, 69, 110
5, 137208, Note_on_c, 0, 69, 0
5, 137220, Note_on_c, 0, 67, 110
5, 137268, Note_on_c, 0, 67, 0
5, 141360, Note_on_c, 0, 75, 110
5, 141372, Note_on_c, 0, 75, 0
5, 141375, Note_on_c, 0, 74, 110
5, 141387, Note_on_c, 0, 74, 0
5, 141390, Note_on_c, 0, 75, 110
5, 141402, Note_on_c, 0, 75, 0
5, 141405, Note_on_c, 0, 74, 110
5, 141417, Note_on_c, 0, 74, 0
5, 141420, Note_on_c, 0, 75, 110
5, 141432, Note_on_c, 0, 75, 0
5, 141435, Note_on_c, 0, 74, 110
5, 141447, Note_on_c, 0, 74, 0
5, 141450, Note_on_c, 0, 75, 110
5, 141462, Note_on_c, 0, 75, 0
5, 141465, Note_on_c, 0, 74, 110
5, 141528, Note_on_c, 0, 74, 0
5, 141540, Note_on_c, 0, 75, 110
5, 141588, Note_on_c, 0, 75, 0
5, 181680, Note_on_c, 0, 70, 110
5, 181692, Note_on_c, 0, 70, 0
5, 181695, Note_on_c, 0, 69, 110
5, 181707, Note_on_c, 0, 69, 0
5, 181710, Note_on_c, 0, 70, 110
5, 181722, Note_on_c, 0, 70, 0
5, 181725, Note_on_c, 0, 69, 110
5, 181737, Note_on_c, 0, 69, 0
5, 181740, Note_on_c, 0, 70, 110
5, 181752, Note_on_c, 0, 70, 0
5, 181755, Note_on_c, 0, 69, 110
5, 181767, Note_on_c, 0, 69, 0
5, 181770, Note_on_c, 0, 70, 110
5, 181782, Note_on_c, 0, 70, 0
5, 181785, Note_on_c, 0, 69, 110
5, 181848, Note_on_c, 0, 69, 0
5, 181860, Note_on_c, 0, 67, 110
5, 181908, Note_on_c, 0, 67, 0
5, 183720, Note_on_c, 0, 84, 110
5, 183732, Note_on_c, 0, 84, 0
5, 183735, Note_on_c, 0, 82, 110
5, 183747, Note_on_c, 0, 82, 0
5, 183750, Note_on_c, 0, 84, 110
5, 183762, Note_on_c, 0, 84, 0
5, 183765, Note_on_c, 0, 82, 110
5, 183777, Note_on_c, 0, 82, 0
5, 183780, Note_on_c, 0, 80, 110
5, 183804, Note_on_c, 0, 80, 0
5, 183810, Note_on_c, 0, 82, 110
5, 183834, Note_on_c, 0, 82, 0
5, 193440, Note_on_c, 0, 55, 96
5, 193440, Note_on_c, 0, 70, 96
5, 193452, Note_on_c, 0, 70, 0
5, 193452, Note_on_c, 0, 55, 0
5, 193455, Note_on_c, 0, 53, 96
5, 193455, Note_on_c, 0, 68, 96
5, 193467, Note_on_c, 0, 68, 0
5, 193467, Note_on_c, 0, 53, 0
5, 193470, Note_on_c, 0, 70, 96
5, 193470, Note_on_c, 0, 55, 96
5, 193482, Note_on_c, 0, 55, 0
5, 193482, Note_on_c, 0, 70, 0
5, 193485, Note_on_c, 0, 68, 96
5, 193485, Note_on_c, 0, 53, 96
5, 193497, Note_on_c, 0, 53, 0
5, 193497, Note_on_c, 0, 68, 0
5, 193500, Note_on_c, 0, 70, 96
5, 193500, Note_on_c, 0, 55, 96
5, 193512, Note_on_c, 0, 55, 0
5, 193512, Note_on_c, 0, 70, 0
5, 193515, Note_on_c, 0, 68, 96
5, 193515, Note_on_c, 0, 53, 96
5, 193527, Note_on_c, 0, 53, 0
5, 193527, Note_on_c, 0, 68, 0
5, 193530, Note_on_c, 0, 55, 96
5, 193530, Note_on_c, 0, 70, 96
5, 193542, Note_on_c, 0, 70, 0
5, 193542, Note_on_c, 0, 55, 0
5, 193545, Note_on_c, 0, 53, 96
5, 193545, Note_on_c, 0, 68, 96
5, 193557, Note_on_c, 0, 68, 0
5, 193557, Note_on_c, 0, 53, 0
5, 193560, Note_on_c, 0, 70, 96
5, 193560, Note_on_c, 0, 55, 96
5, 193572, Note_on_c, 0, 55, 0
5, 193572, Note_on_c, 0, 70, 0
5, 193575, Note_on_c, 0, 68, 96
5, 193575, Note_on_c, 0, 53, 96
5, 193587, Note_on_c, 0, 53, 0
5, 193587, Note_on_c, 0, 68, 0
5, 193590, Note_on_c, 0, 55, 96
5, 193590, Note_on_c, 0, 70, 96
5, 193602, Note_on_c, 0, 70, 0
5, 193602, Note_on_c, 0, 55, 0
5, 193605, Note_on_c, 0, 68, 96
5, 193605, Note_on_c, 0, 53, 96
5, 193617, Note_on_c, 0, 53, 0
5, 193617, Note_on_c, 0, 68, 0
5, 193620, Note_on_c, 0, 70, 96
5, 193620, Note_on_c, 0, 55, 96
5, 193632, Note_on_c, 0, 55, 0
5, 193632, Note_on_c, 0, 70, 0
5, 193635, Note_on_c, 0, 68, 96
5, 193635, Note_on_c, 0, 53, 96
5, 193647, Note_on_c, 0, 53, 0
5, 193647, Note_on_c, 0, 68, 0
5, 193650, Note_on_c, 0, 55, 96
5, 193650, Note_on_c, 0, 70, 96
5, 193662, Note_on_c, 0, 70, 0
5, 193662, Note_on_c, 0, 55, 0
5, 193665, Note_on_c, 0, 53, 96
5, 193665, Note_on_c, 0, 68, 96
5, 193677, Note_on_c, 0, 68, 0
5, 193677, Note_on_c, 0, 53, 0
5, 193680, Note_on_c, 0, 55, 96
5, 193680, Note_on_c, 0, 70, 96
5, 193692, Note_on_c, 0, 70, 0
5, 193692, Note_on_c, 0, 55, 0
5, 193695, Note_on_c, 0, 68, 96
5, 193695, Note_on_c, 0, 53, 96
5, 193707, Note_on_c, 0, 53, 0
5, 193707, Note_on_c, 0, 68, 0
5, 193710, Note_on_c, 0, 55, 96
5, 193710, Note_on_c, 0, 70, 96
5, 193722, Note_on_c, 0, 70, 0
5, 193722, Note_on_c, 0, 55, 0
5, 193725, Note_on_c, 0, 68, 96
5, 193725, Note_on_c, 0, 53, 96
5, 193737, Note_on_c, 0, 53, 0
5, 193737, Note_on_c, 0, 68, 0
5, 193740, Note_on_c, 0, 55, 96
5, 193740, Note_on_c, 0, 70, 96
5, 193752, Note_on_c, 0, 70, 0
5, 193752, Note_on_c, 0, 55, 0
5, 193755, Note_on_c, 0, 53, 96
5, 193755, Note_on_c, 0, 68, 96
5, 193767, Note_on_c, 0, 68, 0
5, 193767, Note_on_c, 0, 53, 0
5, 193770, Note_on_c, 0, 70, 96
5, 193770, Note_on_c, 0, 55, 96
5, 193782, Note_on_c, 0, 55, 0
5, 193782, Note_on_c, 0, 70, 0
5, 193785, Note_on_c, 0, 68, 96
5, 193785, Note_on_c, 0, 53, 96
5, 193797, Note_on_c, 0, 53, 0
5, 193797, Note_on_c, 0, 68, 0
5, 193800, Note_on_c, 0, 70, 96
5, 193800, Note_on_c, 0, 55, 96
5, 193812, Note_on_c, 0, 55, 0
5, 193812, Note_on_c, 0, 70, 0
5, 193815, Note_on_c, 0, 68, 96
5, 193815, Note_on_c, 0, 53, 96
5, 193827, Note_on_c, 0, 53, 0
5, 193827, Note_on_c, 0, 68, 0
5, 193830, Note_on_c, 0, 55, 96
5, 193830, Note_on_c, 0, 70, 96
5, 193842, Note_on_c, 0, 70, 0
5, 193842, Note_on_c, 0, 55, 0
5, 193845, Note_on_c, 0, 53, 96
5, 193845, Note_on_c, 0, 68, 96
5, 193857, Note_on_c, 0, 68, 0
5, 193857, Note_on_c, 0, 53, 0
5, 193860, Note_on_c, 0, 70, 96
5, 193860, Note_on_c, 0, 55, 96
5, 193872, Note_on_c, 0, 55, 0
5, 193872, Note_on_c, 0, 70, 0
5, 193875, Note_on_c, 0, 53, 96
5, 193875, Note_on_c, 0, 68, 96
5, 193887, Note_on_c, 0, 68, 0
5, 193887, Note_on_c, 0, 53, 0
5, 193890, Note_on_c, 0, 70, 96
5, 193890, Note_on_c, 0, 55, 96
5, 193902, Note_on_c, 0, 55, 0
5, 193902, Note_on_c, 0, 70, 0
5, 193905, Note_on_c, 0, 68, 96
5, 193905, Note_on_c, 0, 53, 96
5, 193917, Note_on_c, 0, 53, 0
5, 193917, Note_on_c, 0, 68, 0
5, 193920, Note_on_c, 0, 70, 96
5, 193920, Note_on_c, 0, 55, 96
5, 193932, Note_on_c, 0, 55, 0
5, 193932, Note_on_c, 0, 70, 0
5, 193935, Note_on_c, 0, 53, 96
5, 193935, Note_on_c, 0, 68, 96
5, 193947, Note_on_c, 0, 68, 0
5, 193947, Note_on_c, 0, 53, 0
5, 193950, Note_on_c, 0, 55, 96
5, 193950, Note_on_c, 0, 70, 96
5, 193962, Note_on_c, 0, 70, 0
5, 193962, Note_on_c, 0, 55, 0
5, 193965, Note_on_c, 0, 53, 96
5, 193965, Note_on_c, 0, 68, 96
5, 193977, Note_on_c, 0, 68, 0
5, 193977, Note_on_c, 0, 53, 0
5, 193980, Note_on_c, 0, 70, 96
5, 193980, Note_on_c, 0, 55, 96
5, 193992, Note_on_c, 0, 55, 0
5, 193992, Note_on_c, 0, 70, 0
5, 193995, Note_on_c, 0, 68, 96
5, 193995, Note_on_c, 0, 53, 96
5, 194007, Note_on_c, 0, 53, 0
5, 194007, Note_on_c, 0, 68, 0
5, 194010, Note_on_c, 0, 70, 96
5, 194010, Note_on_c, 0, 55, 96
5, 194022, Note_on_c, 0, 55, 0
5, 194022, Note_on_c, 0, 70, 0
5, 194025, Note_on_c, 0, 53, 96
5, 194025, Note_on_c, 0, 68, 96
5, 194037, Note_on_c, 0, 68, 0
5, 194037, Note_on_c, 0, 53, 0
5, 194040, Note_on_c, 0, 55, 96
5, 194040, Note_on_c, 0, 70, 96
5, 194052, Note_on_c, 0, 70, 0
5, 194052, Note_on_c, 0, 55, 0
5, 194055, Note_on_c, 0, 68, 96
5, 194055, Note_on_c, 0, 53, 96
5, 194067, Note_on_c, 0, 53, 0
5, 194067, Note_on_c, 0, 68, 0
5, 194070, Note_on_c, 0, 55, 96
5, 194070, Note_on_c, 0, 70, 96
5, 194082, Note_on_c, 0, 70, 0
5, 194082, Note_on_c, 0, 55, 0
5, 194085, Note_on_c, 0, 53, 96
5, 194085, Note_on_c, 0, 68, 96
5, 194097, Note_on_c, 0, 68, 0
5, 194097, Note_on_c, 0, 53, 0
5, 194100, Note_on_c, 0, 55, 96
5, 194100, Note_on_c, 0, 70, 96
5, 194112, Note_on_c, 0, 70, 0
5, 194112, Note_on_c, 0, 55, 0
5, 194115, Note_on_c, 0, 53, 96
5, 194115, Note_on_c, 0, 68, 96
5, 194127, Note_on_c, 0, 68, 0
5, 194127, Note_on_c, 0, 53, 0
5, 194130, Note_on_c, 0, 70, 96
5, 194130, Note_on_c, 0, 55, 96
5, 194142, Note_on_c, 0, 55, 0
5, 194142, Note_on_c, 0, 70, 0
5, 194145, Note_on_c, 0, 53, 96
5, 194145, Note_on_c, 0, 68, 96
5, 194157, Note_on_c, 0, 68, 0
5, 194157, Note_on_c, 0, 53, 0
5, 194160, Note_on_c, 0, 70, 96
5, 194160, Note_on_c, 0, 55, 96
5, 194172, Note_on_c, 0, 55, 0
5, 194172, Note_on_c, 0, 70, 0
5, 194175, Note_on_c, 0, 53, 96
5, 194175, Note_on_c, 0, 68, 96
5, 194187, Note_on_c, 0, 68, 0
5, 194187, Note_on_c, 0, 53, 0
5, 194190, Note_on_c, 0, 70, 96
5, 194190, Note_on_c, 0, 55, 96
5, 194202, Note_on_c, 0, 55, 0
5, 194202, Note_on_c, 0, 70, 0
5, 194205, Note_on_c, 0, 68, 96
5, 194205, Note_on_c, 0, 53, 96
5, 194217, Note_on_c, 0, 53, 0
5, 194217, Note_on_c, 0, 68, 0
5, 194220, Note_on_c, 0, 55, 96
5, 194220, Note_on_c, 0, 70, 96
5, 194232, Note_on_c, 0, 70, 0
5, 194232, Note_on_c, 0, 55, 0
5, 194235, Note_on_c, 0, 68, 96
5, 194235, Note_on_c, 0, 53, 96
5, 194247, Note_on_c, 0, 53, 0
5, 194247, Note_on_c, 0, 68, 0
5, 194250, Note_on_c, 0, 70, 96
5, 194250, Note_on_c, 0, 55, 96
5, 194262, Note_on_c, 0, 55, 0
5, 194262, Note_on_c, 0, 70, 0
5, 194265, Note_on_c, 0, 68, 96
5, 194265, Note_on_c, 0, 53, 96
5, 194277, Note_on_c, 0, 53, 0
5, 194277, Note_on_c, 0, 68, 0
5, 194280, Note_on_c, 0, 70, 96
5, 194280, Note_on_c, 0, 55, 96
5, 194292, Note_on_c, 0, 55, 0
5, 194292, Note_on_c, 0, 70, 0
5, 194295, Note_on_c, 0, 68, 96
5, 194295, Note_on_c, 0, 53, 96
5, 194307, Note_on_c, 0, 53, 0
5, 194307, Note_on_c, 0, 68, 0
5, 194310, Note_on_c, 0, 70, 96
5, 194310, Note_on_c, 0, 55, 96
5, 194322, Note_on_c, 0, 55, 0
5, 194322, Note_on_c, 0, 70, 0
5, 194325, Note_on_c, 0, 68, 96
5, 194325, Note_on_c, 0, 53, 96
5, 194337, Note_on_c, 0, 53, 0
5, 194337, Note_on_c, 0, 68, 0
5, 194340, Note_on_c, 0, 55, 96
5, 194340, Note_on_c, 0, 70, 96
5, 194352, Note_on_c, 0, 70, 0
5, 194352, Note_on_c, 0, 55, 0
5, 194355, Note_on_c, 0, 53, 96
5, 194355, Note_on_c, 0, 68, 96
5, 194367, Note_on_c, 0, 68, 0
5, 194367, Note_on_c, 0, 53, 0
5, 194370, Note_on_c, 0, 55, 96
5, 194370, Note_on_c, 0, 70, 96
5, 194382, Note_on_c, 0, 70, 0
5, 194382, Note_on_c, 0, 55, 0
5, 194385, Note_on_c, 0, 68, 96
5, 194385, Note_on_c, 0, 53, 96
5, 194397, Note_on_c, 0, 53, 0
5, 194397, Note_on_c, 0, 68, 0
5, 194400, Note_on_c, 0, 70, 96
5, 194400, Note_on_c, 0, 55, 96
5, 194412, Note_on_c, 0, 55, 0
5, 194412, Note_on_c, 0, 70, 0
5, 194415, Note_on_c, 0, 53, 96
5, 194415, Note_on_c, 0, 68, 96
5, 194427, Note_on_c, 0, 68, 0
5, 194427, Note_on_c, 0, 53, 0
5, 194430, Note_on_c, 0, 70, 96
5, 194430, Note_on_c, 0, 55, 96
5, 194442, Note_on_c, 0, 55, 0
5, 194442, Note_on_c, 0, 70, 0
5, 194445, Note_on_c, 0, 68, 96
5, 194445, Note_on_c, 0, 53, 96
5, 194457, Note_on_c, 0, 53, 0
5, 194457, Note_on_c, 0, 68, 0
5, 194460, Note_on_c, 0, 55, 96
5, 194460, Note_on_c, 0, 70, 96
5, 194472, Note_on_c, 0, 70, 0
5, 194472, Note_on_c, 0, 55, 0
5, 194475, Note_on_c, 0, 68, 96
5, 194475, Note_on_c, 0, 53, 96
5, 194487, Note_on_c, 0, 53, 0
5, 194487, Note_on_c, 0, 68, 0
5, 194490, Note_on_c, 0, 55, 96
5, 194490, Note_on_c, 0, 70, 96
5, 194502, Note_on_c, 0, 70, 0
5, 194502, Note_on_c, 0, 55, 0
5, 194505, Note_on_c, 0, 68, 96
5, 194505, Note_on_c, 0, 53, 96
5, 194517, Note_on_c, 0, 53, 0
5, 194517, Note_on_c, 0, 68, 0
5, 194520, Note_on_c, 0, 70, 96
5, 194520, Note_on_c, 0, 55, 96
5, 194532, Note_on_c, 0, 55, 0
5, 194532, Note_on_c, 0, 70, 0
5, 194535, Note_on_c, 0, 53, 96
5, 194535, Note_on_c, 0, 68, 96
5, 194547, Note_on_c, 0, 68, 0
5, 194547, Note_on_c, 0, 53, 0
5, 194550, Note_on_c, 0, 55, 96
5, 194550, Note_on_c, 0, 70, 96
5, 194562, Note_on_c, 0, 70, 0
5, 194562, Note_on_c, 0, 55, 0
5, 194565, Note_on_c, 0, 68, 96
5, 194565, Note_on_c, 0, 53, 96
5, 194577, Note_on_c, 0, 53, 0
5, 194577, Note_on_c, 0, 68, 0
5, 194580, Note_on_c, 0, 70, 96
5, 194580, Note_on_c, 0, 55, 96
5, 194592, Note_on_c, 0, 55, 0
5, 194592, Note_on_c, 0, 70, 0
5, 194595, Note_on_c, 0, 53, 96
5, 194595, Note_on_c, 0, 68, 96
5, 194607, Note_on_c, 0, 68, 0
5, 194607, Note_on_c, 0, 53, 0
5, 194610, Note_on_c, 0, 70, 96
5, 194610, Note_on_c, 0, 55, 96
5, 194622, Note_on_c, 0, 55, 0
5, 194622, Note_on_c, 0, 70, 0
5, 194625, Note_on_c, 0, 68, 96
5, 194625, Note_on_c, 0, 53, 96
5, 194637, Note_on_c, 0, 53, 0
5, 194637, Note_on_c, 0, 68, 0
5, 194640, Note_on_c, 0, 70, 96
5, 194640, Note_on_c, 0, 55, 96
5, 194652, Note_on_c, 0, 55, 0
5, 194652, Note_on_c, 0, 70, 0
5, 194655, Note_on_c, 0, 53, 96
5, 194655, Note_on_c, 0, 68, 96
5, 194667, Note_on_c, 0, 68, 0
5, 194667, Note_on_c, 0, 53, 0
5, 194670, Note_on_c, 0, 70, 96
5, 194670, Note_on_c, 0, 55, 96
5, 194682, Note_on_c, 0, 55, 0
5, 194682, Note_on_c, 0, 70, 0
5, 194685, Note_on_c, 0, 68, 96
5, 194685, Note_on_c, 0, 53, 96
5, 194697, Note_on_c, 0, 53, 0
5, 194697, Note_on_c, 0, 68, 0
5, 194700, Note_on_c, 0, 70, 96
5, 194700, Note_on_c, 0, 55, 96
5, 194712, Note_on_c, 0, 55, 0
5, 194712, Note_on_c, 0, 70, 0
5, 194715, Note_on_c, 0, 53, 96
5, 194715, Note_on_c, 0, 68, 96
5, 194727, Note_on_c, 0, 68, 0
5, 194727, Note_on_c, 0, 53, 0
5, 194730, Note_on_c, 0, 70, 96
5, 194730, Note_on_c, 0, 55, 96
5, 194742, Note_on_c, 0, 55, 0
5, 194742, Note_on_c, 0, 70, 0
5, 194745, Note_on_c, 0, 68, 96
5, 194745, Note_on_c, 0, 53, 96
5, 194757, Note_on_c, 0, 53, 0
5, 194757, Note_on_c, 0, 68, 0
5, 194760, Note_on_c, 0, 70, 96
5, 194760, Note_on_c, 0, 55, 96
5, 194772, Note_on_c, 0, 55, 0
5, 194772, Note_on_c, 0, 70, 0
5, 194775, Note_on_c, 0, 68, 96
5, 194775, Note_on_c, 0, 53, 96
5, 194787, Note_on_c, 0, 53, 0
5, 194787, Note_on_c, 0, 68, 0
5, 194790, Note_on_c, 0, 55, 96
5, 194790, Note_on_c, 0, 70, 96
5, 194802, Note_on_c, 0, 70, 0
5, 194802, Note_on_c, 0, 55, 0
5, 194805, Note_on_c, 0, 68, 96
5, 194805, Note_on_c, 0, 53, 96
5, 194817, Note_on_c, 0, 53, 0
5, 194817, Note_on_c, 0, 68, 0
5, 194820, Note_on_c, 0, 70, 96
5, 194820, Note_on_c, 0, 55, 96
5, 194832, Note_on_c, 0, 55, 0
5, 194832, Note_on_c, 0, 70, 0
5, 194835, Note_on_c, 0, 53, 96
5, 194835, Note_on_c, 0, 68, 96
5, 194847, Note_on_c, 0, 68, 0
5, 194847, Note_on_c, 0, 53, 0
5, 194850, Note_on_c, 0, 70, 96
5, 194850, Note_on_c, 0, 55, 96
5, 194862, Note_on_c, 0, 55, 0
5, 194862, Note_on_c, 0, 70, 0
5, 194865, Note_on_c, 0, 68, 96
5, 194865, Note_on_c, 0, 53, 96
5, 194877, Note_on_c, 0, 53, 0
5, 194877, Note_on_c, 0, 68, 0
5, 206160, Note_on_c, 0, 75, 96
5, 206172, Note_on_c, 0, 75, 0
5, 206175, Note_on_c, 0, 74, 96
5, 206187, Note_on_c, 0, 74, 0
5, 206190, Note_on_c, 0, 75, 96
5, 206202, Note_on_c, 0, 75, 0
5, 206205, Note_on_c, 0, 74, 96
5, 206217, Note_on_c, 0, 74, 0
5, 206220, Note_on_c, 0, 75, 96
5, 206232, Note_on_c, 0, 75, 0
5, 206235, Note_on_c, 0, 74, 96
5, 206247, Note_on_c, 0, 74, 0
5, 206250, Note_on_c, 0, 75, 96
5, 206262, Note_on_c, 0, 75, 0
5, 206265, Note_on_c, 0, 74, 96
5, 206328, Note_on_c, 0, 74, 0
5, 206340, Note_on_c, 0, 72, 96
5, 206388, Note_on_c, 0, 72, 0
5, 206388, End_track
0, 0, End_of_file
