0, 0, Header, 1, 4, 240
1, 0, Start_track
1, 0, Time_signature, 4, 2, 24, 8
1, 0, Tempo, 666667
1, 73200, Tempo, 750000
1, 73440, Tempo, 857143
1, 73680, Tempo, 1000000
1, 73680, End_track
2, 0, Start_track
2, 0, Title_t, "Trio Sonata 6, 3. Vivace"
2, 0, Program_c, 0, 19
2, 0, Control_c, 0, 7, 127
2, 1440, Note_on_c, 0, 74, 127
2, 1728, Note_off_c, 0, 74, 64
2, 1740, Note_on_c, 0, 73, 127
2, 1788, Note_off_c, 0, 73, 64
2, 1800, Note_on_c, 0, 71, 127
2, 1848, Note_off_c, 0, 71, 64
2, 1860, Note_on_c, 0, 76, 127
2, 1908, Note_off_c, 0, 76, 64
2, 1920, Note_on_c, 0, 69, 127
2, 2016, Note_off_c, 0, 69, 64
2, 2040, Note_on_c, 0, 76, 127
2, 2064, Note_off_c, 0, 76, 64
2, 2070, Note_on_c, 0, 78, 127
2, 2094, Note_off_c, 0, 78, 64
2, 2100, Note_on_c, 0, 79, 127
2, 2148, Note_off_c, 0, 79, 64
2, 2160, Note_on_c, 0, 78, 127
2, 2250, Note_off_c, 0, 78, 64
2, 2280, Note_on_c, 0, 76, 127
2, 2370, Note_off_c, 0, 76, 64
2, 2400, Note_on_c, 0, 78, 127
2, 2448, Note_off_c, 0, 78, 64
2, 2460, Note_on_c, 0, 74, 127
2, 2508, Note_off_c, 0, 74, 64
2, 2520, Note_on_c, 0, 78, 127
2, 2568, Note_off_c, 0, 78, 64
2, 2580, Note_on_c, 0, 81, 127
2, 2628, Note_off_c, 0, 81, 64
2, 2640, Note_on_c, 0, 79, 127
2, 2730, Note_off_c, 0, 79, 64
2, 2760, Note_on_c, 0, 78, 127
2, 2850, Note_off_c, 0, 78, 64
2, 2880, Note_on_c, 0, 76, 127
2, 2976, Note_off_c, 0, 76, 64
2, 3000, Note_on_c, 0, 69, 127
2, 3096, Note_off_c, 0, 69, 64
2, 3180, Note_on_c, 0, 69, 127
2, 3228, Note_off_c, 0, 69, 64
2, 3240, Note_on_c, 0, 73, 127
2, 3288, Note_off_c, 0, 73, 64
2, 3300, Note_on_c, 0, 76, 127
2, 3348, Note_off_c, 0, 76, 64
2, 3360, Note_on_c, 0, 79, 127
2, 3408, Note_off_c, 0, 79, 64
2, 3420, Note_on_c, 0, 78, 127
2, 3468, Note_off_c, 0, 78, 64
2, 3480, Note_on_c, 0, 79, 127
2, 3576, Note_off_c, 0, 79, 64
2, 3660, Note_on_c, 0, 69, 127
2, 3708, Note_off_c, 0, 69, 64
2, 3720, Note_on_c, 0, 73, 127
2, 3768, Note_off_c, 0, 73, 64
2, 3780, Note_on_c, 0, 76, 127
2, 3828, Note_off_c, 0, 76, 64
2, 3840, Note_on_c, 0, 79, 127
2, 3888, Note_off_c, 0, 79, 64
2, 3900, Note_on_c, 0, 78, 127
2, 3948, Note_off_c, 0, 78, 64
2, 3960, Note_on_c, 0, 79, 127
2, 4056, Note_off_c, 0, 79, 64
2, 4680, Note_on_c, 0, 73, 127
2, 4776, Note_off_c, 0, 73, 64
2, 4800, Note_on_c, 0, 74, 127
2, 4848, Note_off_c, 0, 74, 64
2, 4860, Note_on_c, 0, 62, 127
2, 4908, Note_off_c, 0, 62, 64
2, 4920, Note_on_c, 0, 66, 127
2, 4968, Note_off_c, 0, 66, 64
2, 4980, Note_on_c, 0, 69, 127
2, 5028, Note_off_c, 0, 69, 64
2, 5040, Note_on_c, 0, 72, 127
2, 5088, Note_off_c, 0, 72, 64
2, 5100, Note_on_c, 0, 71, 127
2, 5148, Note_off_c, 0, 71, 64
2, 5160, Note_on_c, 0, 72, 127
2, 5256, Note_off_c, 0, 72, 64
2, 5340, Note_on_c, 0, 62, 127
2, 5388, Note_off_c, 0, 62, 64
2, 5400, Note_on_c, 0, 66, 127
2, 5448, Note_off_c, 0, 66, 64
2, 5460, Note_on_c, 0, 69, 127
2, 5508, Note_off_c, 0, 69, 64
2, 5520, Note_on_c, 0, 72, 127
2, 5568, Note_off_c, 0, 72, 64
2, 5580, Note_on_c, 0, 71, 127
2, 5628, Note_off_c, 0, 71, 64
2, 5640, Note_on_c, 0, 72, 127
2, 5736, Note_off_c, 0, 72, 64
2, 5820, Note_on_c, 0, 62, 127
2, 5868, Note_off_c, 0, 62, 64
2, 5880, Note_on_c, 0, 66, 127
2, 5928, Note_off_c, 0, 66, 64
2, 5940, Note_on_c, 0, 69, 127
2, 5988, Note_off_c, 0, 69, 64
2, 6000, Note_on_c, 0, 72, 127
2, 6048, Note_off_c, 0, 72, 64
2, 6060, Note_on_c, 0, 71, 127
2, 6108, Note_off_c, 0, 71, 64
2, 6120, Note_on_c, 0, 69, 127
2, 6168, Note_off_c, 0, 69, 64
2, 6180, Note_on_c, 0, 67, 127
2, 6228, Note_off_c, 0, 67, 64
2, 6240, Note_on_c, 0, 66, 127
2, 6288, Note_off_c, 0, 66, 64
2, 6300, Note_on_c, 0, 62, 127
2, 6348, Note_off_c, 0, 62, 64
2, 6360, Note_on_c, 0, 66, 127
2, 6408, Note_off_c, 0, 66, 64
2, 6420, Note_on_c, 0, 69, 127
2, 6468, Note_off_c, 0, 69, 64
2, 6480, Note_on_c, 0, 74, 127
2, 6528, Note_off_c, 0, 74, 64
2, 6540, Note_on_c, 0, 72, 127
2, 6588, Note_off_c, 0, 72, 64
2, 6600, Note_on_c, 0, 71, 127
2, 6648, Note_off_c, 0, 71, 64
2, 6660, Note_on_c, 0, 69, 127
2, 6708, Note_off_c, 0, 69, 64
2, 6720, Note_on_c, 0, 71, 127
2, 6816, Note_off_c, 0, 71, 64
2, 6840, Note_on_c, 0, 74, 127
2, 6936, Note_off_c, 0, 74, 64
2, 6960, Note_on_c, 0, 79, 127
2, 7296, Note_off_c, 0, 79, 64
2, 7320, Note_on_c, 0, 78, 127
2, 7416, Note_off_c, 0, 78, 64
2, 7560, Note_on_c, 0, 72, 127
2, 7728, Note_off_c, 0, 72, 64
2, 7740, Note_on_c, 0, 69, 127
2, 7788, Note_off_c, 0, 69, 64
2, 7800, Note_on_c, 0, 71, 127
2, 7848, Note_off_c, 0, 71, 64
2, 7860, Note_on_c, 0, 72, 127
2, 7908, Note_off_c, 0, 72, 64
2, 7920, Note_on_c, 0, 74, 127
2, 7968, Note_off_c, 0, 74, 64
2, 7980, Note_on_c, 0, 78, 127
2, 8028, Note_off_c, 0, 78, 64
2, 8040, Note_on_c, 0, 76, 127
2, 8088, Note_off_c, 0, 76, 64
2, 8100, Note_on_c, 0, 74, 127
2, 8148, Note_off_c, 0, 74, 64
2, 8160, Note_on_c, 0, 72, 127
2, 8208, Note_off_c, 0, 72, 64
2, 8220, Note_on_c, 0, 71, 127
2, 8268, Note_off_c, 0, 71, 64
2, 8280, Note_on_c, 0, 69, 127
2, 8328, Note_off_c, 0, 69, 64
2, 8340, Note_on_c, 0, 67, 127
2, 8388, Note_off_c, 0, 67, 64
2, 8400, Note_on_c, 0, 66, 127
2, 8496, Note_off_c, 0, 66, 64
2, 8520, Note_on_c, 0, 78, 127
2, 8688, Note_off_c, 0, 78, 64
2, 8700, Note_on_c, 0, 71, 127
2, 8748, Note_off_c, 0, 71, 64
2, 8760, Note_on_c, 0, 76, 127
2, 8808, Note_off_c, 0, 76, 64
2, 8820, Note_on_c, 0, 74, 127
2, 8868, Note_off_c, 0, 74, 64
2, 8880, Note_on_c, 0, 72, 127
2, 8928, Note_off_c, 0, 72, 64
2, 8940, Note_on_c, 0, 71, 127
2, 8988, Note_off_c, 0, 71, 64
2, 9000, Note_on_c, 0, 69, 127
2, 9048, Note_off_c, 0, 69, 64
2, 9060, Note_on_c, 0, 67, 127
2, 9108, Note_off_c, 0, 67, 64
2, 9120, Note_on_c, 0, 66, 127
2, 9168, Note_off_c, 0, 66, 64
2, 9180, Note_on_c, 0, 64, 127
2, 9228, Note_off_c, 0, 64, 64
2, 9240, Note_on_c, 0, 66, 127
2, 9288, Note_off_c, 0, 66, 64
2, 9300, Note_on_c, 0, 67, 127
2, 9348, Note_off_c, 0, 67, 64
2, 9360, Note_on_c, 0, 69, 127
2, 9408, Note_off_c, 0, 69, 64
2, 9420, Note_on_c, 0, 71, 127
2, 9468, Note_off_c, 0, 71, 64
2, 9480, Note_on_c, 0, 73, 127
2, 9528, Note_off_c, 0, 73, 64
2, 9540, Note_on_c, 0, 75, 127
2, 9588, Note_off_c, 0, 75, 64
2, 9600, Note_on_c, 0, 76, 127
2, 9696, Note_off_c, 0, 76, 64
2, 9720, Note_on_c, 0, 71, 127
2, 9816, Note_off_c, 0, 71, 64
2, 9840, Note_on_c, 0, 76, 127
2, 10176, Note_off_c, 0, 76, 64
2, 10200, Note_on_c, 0, 74, 127
2, 10248, Note_off_c, 0, 74, 64
2, 10260, Note_on_c, 0, 72, 127
2, 10308, Note_off_c, 0, 72, 64
2, 10320, Note_on_c, 0, 71, 127
2, 10368, Note_off_c, 0, 71, 64
2, 10380, Note_on_c, 0, 69, 127
2, 10428, Note_off_c, 0, 69, 64
2, 10440, Note_on_c, 0, 67, 127
2, 10488, Note_off_c, 0, 67, 64
2, 10500, Note_on_c, 0, 65, 127
2, 10548, Note_off_c, 0, 65, 64
2, 10560, Note_on_c, 0, 64, 127
2, 10656, Note_off_c, 0, 64, 64
2, 10680, Note_on_c, 0, 67, 127
2, 10776, Note_off_c, 0, 67, 64
2, 10800, Note_on_c, 0, 72, 127
2, 11136, Note_off_c, 0, 72, 64
2, 11160, Note_on_c, 0, 71, 127
2, 11256, Note_off_c, 0, 71, 64
2, 11400, Note_on_c, 0, 65, 127
2, 11496, Note_off_c, 0, 65, 64
2, 11520, Note_on_c, 0, 65, 127
2, 11568, Note_off_c, 0, 65, 64
2, 11580, Note_on_c, 0, 62, 127
2, 11628, Note_off_c, 0, 62, 64
2, 11640, Note_on_c, 0, 64, 127
2, 11688, Note_off_c, 0, 64, 64
2, 11700, Note_on_c, 0, 66, 127
2, 11748, Note_off_c, 0, 66, 64
2, 11760, Note_on_c, 0, 67, 127
2, 11808, Note_off_c, 0, 67, 64
2, 11820, Note_on_c, 0, 71, 127
2, 11868, Note_off_c, 0, 71, 64
2, 11880, Note_on_c, 0, 69, 127
2, 11928, Note_off_c, 0, 69, 64
2, 11940, Note_on_c, 0, 67, 127
2, 11988, Note_off_c, 0, 67, 64
2, 12000, Note_on_c, 0, 69, 127
2, 12048, Note_off_c, 0, 69, 64
2, 12060, Note_on_c, 0, 67, 127
2, 12108, Note_off_c, 0, 67, 64
2, 12120, Note_on_c, 0, 66, 127
2, 12168, Note_off_c, 0, 66, 64
2, 12180, Note_on_c, 0, 67, 127
2, 12228, Note_off_c, 0, 67, 64
2, 12240, Note_on_c, 0, 69, 127
2, 12288, Note_off_c, 0, 69, 64
2, 12300, Note_on_c, 0, 72, 127
2, 12348, Note_off_c, 0, 72, 64
2, 12360, Note_on_c, 0, 71, 127
2, 12408, Note_off_c, 0, 71, 64
2, 12420, Note_on_c, 0, 69, 127
2, 12468, Note_off_c, 0, 69, 64
2, 12480, Note_on_c, 0, 67, 127
2, 12768, Note_off_c, 0, 67, 64
2, 12780, Note_on_c, 0, 66, 127
2, 12828, Note_off_c, 0, 66, 64
2, 12840, Note_on_c, 0, 64, 127
2, 12888, Note_off_c, 0, 64, 64
2, 12900, Note_on_c, 0, 69, 127
2, 12948, Note_off_c, 0, 69, 64
2, 12960, Note_on_c, 0, 62, 127
2, 13056, Note_off_c, 0, 62, 64
2, 13080, Note_on_c, 0, 69, 127
2, 13104, Note_off_c, 0, 69, 64
2, 13110, Note_on_c, 0, 71, 127
2, 13134, Note_off_c, 0, 71, 64
2, 13140, Note_on_c, 0, 72, 127
2, 13188, Note_off_c, 0, 72, 64
2, 13200, Note_on_c, 0, 71, 127
2, 13290, Note_off_c, 0, 71, 64
2, 13320, Note_on_c, 0, 69, 127
2, 13410, Note_off_c, 0, 69, 64
2, 13440, Note_on_c, 0, 71, 127
2, 13488, Note_off_c, 0, 71, 64
2, 13500, Note_on_c, 0, 67, 127
2, 13548, Note_off_c, 0, 67, 64
2, 13560, Note_on_c, 0, 71, 127
2, 13608, Note_off_c, 0, 71, 64
2, 13620, Note_on_c, 0, 74, 127
2, 13668, Note_off_c, 0, 74, 64
2, 13680, Note_on_c, 0, 72, 127
2, 13968, Note_off_c, 0, 72, 64
2, 13980, Note_on_c, 0, 69, 127
2, 14028, Note_off_c, 0, 69, 64
2, 14040, Note_on_c, 0, 72, 127
2, 14088, Note_off_c, 0, 72, 64
2, 14100, Note_on_c, 0, 76, 127
2, 14148, Note_off_c, 0, 76, 64
2, 14160, Note_on_c, 0, 74, 127
2, 14448, Note_off_c, 0, 74, 64
2, 14460, Note_on_c, 0, 71, 127
2, 14508, Note_off_c, 0, 71, 64
2, 14520, Note_on_c, 0, 74, 127
2, 14568, Note_off_c, 0, 74, 64
2, 14580, Note_on_c, 0, 77, 127
2, 14628, Note_off_c, 0, 77, 64
2, 14640, Note_on_c, 0, 76, 127
2, 14688, Note_off_c, 0, 76, 64
2, 14700, Note_on_c, 0, 74, 127
2, 14748, Note_off_c, 0, 74, 64
2, 14760, Note_on_c, 0, 72, 127
2, 14808, Note_off_c, 0, 72, 64
2, 14820, Note_on_c, 0, 71, 127
2, 14868, Note_off_c, 0, 71, 64
2, 14880, Note_on_c, 0, 69, 127
2, 14928, Note_off_c, 0, 69, 64
2, 14940, Note_on_c, 0, 66, 127
2, 14988, Note_off_c, 0, 66, 64
2, 15000, Note_on_c, 0, 69, 127
2, 15048, Note_off_c, 0, 69, 64
2, 15060, Note_on_c, 0, 72, 127
2, 15108, Note_off_c, 0, 72, 64
2, 15120, Note_on_c, 0, 71, 127
2, 15168, Note_off_c, 0, 71, 64
2, 15180, Note_on_c, 0, 69, 127
2, 15228, Note_off_c, 0, 69, 64
2, 15240, Note_on_c, 0, 67, 127
2, 15288, Note_off_c, 0, 67, 64
2, 15300, Note_on_c, 0, 66, 127
2, 15348, Note_off_c, 0, 66, 64
2, 15360, Note_on_c, 0, 67, 127
2, 15888, Note_off_c, 0, 67, 64
2, 15900, Note_on_c, 0, 62, 127
2, 15948, Note_off_c, 0, 62, 64
2, 15960, Note_on_c, 0, 66, 127
2, 16008, Note_off_c, 0, 66, 64
2, 16020, Note_on_c, 0, 69, 127
2, 16068, Note_off_c, 0, 69, 64
2, 16080, Note_on_c, 0, 67, 127
2, 16128, Note_off_c, 0, 67, 64
2, 16140, Note_on_c, 0, 66, 127
2, 16188, Note_off_c, 0, 66, 64
2, 16200, Note_on_c, 0, 64, 127
2, 16248, Note_off_c, 0, 64, 64
2, 16260, Note_on_c, 0, 62, 127
2, 16308, Note_off_c, 0, 62, 64
2, 16320, Note_on_c, 0, 74, 127
2, 16368, Note_off_c, 0, 74, 64
2, 16380, Note_on_c, 0, 72, 127
2, 16428, Note_off_c, 0, 72, 64
2, 16440, Note_on_c, 0, 76, 127
2, 16488, Note_off_c, 0, 76, 64
2, 16500, Note_on_c, 0, 74, 127
2, 16548, Note_off_c, 0, 74, 64
2, 16560, Note_on_c, 0, 72, 127
2, 16608, Note_off_c, 0, 72, 64
2, 16620, Note_on_c, 0, 71, 127
2, 16668, Note_off_c, 0, 71, 64
2, 16680, Note_on_c, 0, 69, 127
2, 16728, Note_off_c, 0, 69, 64
2, 16740, Note_on_c, 0, 71, 127
2, 16785, Note_on_c, 0, 69, 127
2, 16788, Note_off_c, 0, 71, 64
2, 16800, Note_off_c, 0, 69, 64
2, 16800, Note_on_c, 0, 67, 127
2, 16992, Note_off_c, 0, 67, 64
2, 17880, Note_on_c, 0, 75, 127
2, 17970, Note_off_c, 0, 75, 64
2, 18000, Note_on_c, 0, 76, 127
2, 18090, Note_off_c, 0, 76, 64
2, 18120, Note_on_c, 0, 75, 127
2, 18210, Note_off_c, 0, 75, 64
2, 18240, Note_on_c, 0, 76, 127
2, 18330, Note_off_c, 0, 76, 64
2, 18360, Note_on_c, 0, 71, 127
2, 18450, Note_off_c, 0, 71, 64
2, 18840, Note_on_c, 0, 73, 127
2, 18930, Note_off_c, 0, 73, 64
2, 18960, Note_on_c, 0, 74, 127
2, 19050, Note_off_c, 0, 74, 64
2, 19080, Note_on_c, 0, 73, 127
2, 19170, Note_off_c, 0, 73, 64
2, 19200, Note_on_c, 0, 74, 127
2, 19290, Note_off_c, 0, 74, 64
2, 19320, Note_on_c, 0, 69, 127
2, 19410, Note_off_c, 0, 69, 64
2, 21000, Note_on_c, 0, 78, 127
2, 21096, Note_off_c, 0, 78, 64
2, 21120, Note_on_c, 0, 79, 127
2, 21144, Note_off_c, 0, 79, 64
2, 21150, Note_on_c, 0, 78, 127
2, 21174, Note_off_c, 0, 78, 64
2, 21180, Note_on_c, 0, 76, 127
2, 21228, Note_off_c, 0, 76, 64
2, 21240, Note_on_c, 0, 78, 127
2, 21336, Note_off_c, 0, 78, 64
2, 21360, Note_on_c, 0, 71, 127
2, 21456, Note_off_c, 0, 71, 64
2, 21480, Note_on_c, 0, 73, 127
2, 21509, Note_off_c, 0, 73, 64
2, 21510, Note_on_c, 0, 71, 127
2, 21534, Note_off_c, 0, 71, 64
2, 21540, Note_on_c, 0, 73, 127
2, 21588, Note_off_c, 0, 73, 64
2, 21600, Note_on_c, 0, 74, 127
2, 21696, Note_off_c, 0, 74, 64
2, 21720, Note_on_c, 0, 73, 127
2, 21768, Note_off_c, 0, 73, 64
2, 21780, Note_on_c, 0, 74, 127
2, 21828, Note_off_c, 0, 74, 64
2, 21840, Note_on_c, 0, 71, 127
2, 21888, Note_off_c, 0, 71, 64
2, 21900, Note_on_c, 0, 66, 127
2, 21948, Note_off_c, 0, 66, 64
2, 21960, Note_on_c, 0, 73, 127
2, 22008, Note_off_c, 0, 73, 64
2, 22020, Note_on_c, 0, 66, 127
2, 22068, Note_off_c, 0, 66, 64
2, 22080, Note_on_c, 0, 74, 127
2, 22128, Note_off_c, 0, 74, 64
2, 22140, Note_on_c, 0, 66, 127
2, 22188, Note_off_c, 0, 66, 64
2, 22200, Note_on_c, 0, 73, 127
2, 22248, Note_off_c, 0, 73, 64
2, 22260, Note_on_c, 0, 66, 127
2, 22308, Note_off_c, 0, 66, 64
2, 22320, Note_on_c, 0, 74, 127
2, 22368, Note_off_c, 0, 74, 64
2, 22380, Note_on_c, 0, 71, 127
2, 22428, Note_off_c, 0, 71, 64
2, 22440, Note_on_c, 0, 76, 127
2, 22530, Note_off_c, 0, 76, 64
2, 22560, Note_on_c, 0, 74, 127
2, 22584, Note_off_c, 0, 74, 64
2, 22590, Note_on_c, 0, 73, 127
2, 22614, Note_off_c, 0, 73, 64
2, 22620, Note_on_c, 0, 74, 127
2, 22644, Note_off_c, 0, 74, 64
2, 22650, Note_on_c, 0, 73, 127
2, 22679, Note_off_c, 0, 73, 64
2, 22680, Note_on_c, 0, 71, 127
2, 22728, Note_off_c, 0, 71, 64
2, 22740, Note_on_c, 0, 73, 127
2, 22788, Note_off_c, 0, 73, 64
2, 22800, Note_on_c, 0, 69, 127
2, 22848, Note_off_c, 0, 69, 64
2, 22860, Note_on_c, 0, 64, 127
2, 22908, Note_off_c, 0, 64, 64
2, 22920, Note_on_c, 0, 71, 127
2, 22968, Note_off_c, 0, 71, 64
2, 22980, Note_on_c, 0, 64, 127
2, 23028, Note_off_c, 0, 64, 64
2, 23040, Note_on_c, 0, 73, 127
2, 23088, Note_off_c, 0, 73, 64
2, 23100, Note_on_c, 0, 64, 127
2, 23148, Note_off_c, 0, 64, 64
2, 23160, Note_on_c, 0, 71, 127
2, 23208, Note_off_c, 0, 71, 64
2, 23220, Note_on_c, 0, 64, 127
2, 23268, Note_off_c, 0, 64, 64
2, 23280, Note_on_c, 0, 73, 127
2, 23328, Note_off_c, 0, 73, 64
2, 23340, Note_on_c, 0, 69, 127
2, 23388, Note_off_c, 0, 69, 64
2, 23400, Note_on_c, 0, 74, 127
2, 23490, Note_off_c, 0, 74, 64
2, 23520, Note_on_c, 0, 73, 127
2, 23565, Note_off_c, 0, 73, 64
2, 23580, Note_on_c, 0, 71, 127
2, 23628, Note_off_c, 0, 71, 64
2, 23640, Note_on_c, 0, 70, 127
2, 23688, Note_off_c, 0, 70, 64
2, 23700, Note_on_c, 0, 71, 127
2, 23748, Note_off_c, 0, 71, 64
2, 23760, Note_on_c, 0, 75, 127
2, 23805, Note_off_c, 0, 75, 64
2, 23820, Note_on_c, 0, 71, 127
2, 23868, Note_off_c, 0, 71, 64
2, 23880, Note_on_c, 0, 70, 127
2, 23928, Note_off_c, 0, 70, 64
2, 23940, Note_on_c, 0, 71, 127
2, 23988, Note_off_c, 0, 71, 64
2, 24000, Note_on_c, 0, 76, 127
2, 24045, Note_off_c, 0, 76, 64
2, 24060, Note_on_c, 0, 71, 127
2, 24108, Note_off_c, 0, 71, 64
2, 24120, Note_on_c, 0, 70, 127
2, 24168, Note_off_c, 0, 70, 64
2, 24180, Note_on_c, 0, 71, 127
2, 24228, Note_off_c, 0, 71, 64
2, 24240, Note_on_c, 0, 77, 127
2, 24285, Note_off_c, 0, 77, 64
2, 24300, Note_on_c, 0, 71, 127
2, 24348, Note_off_c, 0, 71, 64
2, 24360, Note_on_c, 0, 70, 127
2, 24408, Note_off_c, 0, 70, 64
2, 24420, Note_on_c, 0, 71, 127
2, 24468, Note_off_c, 0, 71, 64
2, 24480, Note_on_c, 0, 78, 127
2, 25488, Note_off_c, 0, 78, 64
2, 25500, Note_on_c, 0, 78, 127
2, 25548, Note_off_c, 0, 78, 64
2, 25560, Note_on_c, 0, 79, 127
2, 25608, Note_off_c, 0, 79, 64
2, 25620, Note_on_c, 0, 81, 127
2, 25668, Note_off_c, 0, 81, 64
2, 25680, Note_on_c, 0, 71, 127
2, 25725, Note_off_c, 0, 71, 64
2, 25740, Note_on_c, 0, 81, 127
2, 25788, Note_off_c, 0, 81, 64
2, 25800, Note_on_c, 0, 79, 127
2, 25848, Note_off_c, 0, 79, 64
2, 25860, Note_on_c, 0, 78, 127
2, 25908, Note_off_c, 0, 78, 64
2, 25920, Note_on_c, 0, 79, 127
2, 25965, Note_off_c, 0, 79, 64
2, 25980, Note_on_c, 0, 76, 127
2, 26028, Note_off_c, 0, 76, 64
2, 26040, Note_on_c, 0, 78, 127
2, 26088, Note_off_c, 0, 78, 64
2, 26100, Note_on_c, 0, 79, 127
2, 26148, Note_off_c, 0, 79, 64
2, 26160, Note_on_c, 0, 75, 127
2, 26205, Note_off_c, 0, 75, 64
2, 26220, Note_on_c, 0, 78, 127
2, 26268, Note_off_c, 0, 78, 64
2, 26280, Note_on_c, 0, 76, 127
2, 26328, Note_off_c, 0, 76, 64
2, 26340, Note_on_c, 0, 75, 127
2, 26388, Note_off_c, 0, 75, 64
2, 26400, Note_on_c, 0, 76, 127
2, 27408, Note_off_c, 0, 76, 64
2, 27420, Note_on_c, 0, 76, 127
2, 27468, Note_off_c, 0, 76, 64
2, 27480, Note_on_c, 0, 78, 127
2, 27528, Note_off_c, 0, 78, 64
2, 27540, Note_on_c, 0, 79, 127
2, 27588, Note_off_c, 0, 79, 64
2, 27600, Note_on_c, 0, 69, 127
2, 27645, Note_off_c, 0, 69, 64
2, 27660, Note_on_c, 0, 79, 127
2, 27708, Note_off_c, 0, 79, 64
2, 27720, Note_on_c, 0, 78, 127
2, 27768, Note_off_c, 0, 78, 64
2, 27780, Note_on_c, 0, 76, 127
2, 27828, Note_off_c, 0, 76, 64
2, 27840, Note_on_c, 0, 78, 127
2, 27885, Note_off_c, 0, 78, 64
2, 27900, Note_on_c, 0, 74, 127
2, 27948, Note_off_c, 0, 74, 64
2, 27960, Note_on_c, 0, 76, 127
2, 28008, Note_off_c, 0, 76, 64
2, 28020, Note_on_c, 0, 78, 127
2, 28068, Note_off_c, 0, 78, 64
2, 28080, Note_on_c, 0, 73, 127
2, 28125, Note_off_c, 0, 73, 64
2, 28140, Note_on_c, 0, 76, 127
2, 28188, Note_off_c, 0, 76, 64
2, 28200, Note_on_c, 0, 74, 127
2, 28248, Note_off_c, 0, 74, 64
2, 28260, Note_on_c, 0, 73, 127
2, 28308, Note_off_c, 0, 73, 64
2, 28320, Note_on_c, 0, 74, 127
2, 28848, Note_off_c, 0, 74, 64
2, 28860, Note_on_c, 0, 71, 127
2, 28908, Note_off_c, 0, 71, 64
2, 28920, Note_on_c, 0, 72, 127
2, 28968, Note_off_c, 0, 72, 64
2, 28980, Note_on_c, 0, 74, 127
2, 29028, Note_off_c, 0, 74, 64
2, 29040, Note_on_c, 0, 62, 127
2, 29085, Note_off_c, 0, 62, 64
2, 29100, Note_on_c, 0, 72, 127
2, 29148, Note_off_c, 0, 72, 64
2, 29160, Note_on_c, 0, 71, 127
2, 29208, Note_off_c, 0, 71, 64
2, 29220, Note_on_c, 0, 69, 127
2, 29268, Note_off_c, 0, 69, 64
2, 29280, Note_on_c, 0, 71, 127
2, 29325, Note_off_c, 0, 71, 64
2, 29340, Note_on_c, 0, 67, 127
2, 29388, Note_off_c, 0, 67, 64
2, 29400, Note_on_c, 0, 69, 127
2, 29448, Note_off_c, 0, 69, 64
2, 29460, Note_on_c, 0, 71, 127
2, 29508, Note_off_c, 0, 71, 64
2, 29520, Note_on_c, 0, 62, 127
2, 29565, Note_off_c, 0, 62, 64
2, 29580, Note_on_c, 0, 69, 127
2, 29628, Note_off_c, 0, 69, 64
2, 29640, Note_on_c, 0, 67, 127
2, 29688, Note_off_c, 0, 67, 64
2, 29700, Note_on_c, 0, 66, 127
2, 29748, Note_off_c, 0, 66, 64
2, 29760, Note_on_c, 0, 67, 127
2, 30048, Note_off_c, 0, 67, 64
2, 30060, Note_on_c, 0, 66, 127
2, 30108, Note_off_c, 0, 66, 64
2, 30120, Note_on_c, 0, 64, 127
2, 30168, Note_off_c, 0, 64, 64
2, 30180, Note_on_c, 0, 69, 127
2, 30228, Note_off_c, 0, 69, 64
2, 30240, Note_on_c, 0, 62, 127
2, 30336, Note_off_c, 0, 62, 64
2, 30360, Note_on_c, 0, 69, 127
2, 30384, Note_off_c, 0, 69, 64
2, 30390, Note_on_c, 0, 71, 127
2, 30414, Note_off_c, 0, 71, 64
2, 30420, Note_on_c, 0, 72, 127
2, 30468, Note_off_c, 0, 72, 64
2, 30480, Note_on_c, 0, 71, 127
2, 30570, Note_off_c, 0, 71, 64
2, 30600, Note_on_c, 0, 69, 127
2, 30690, Note_off_c, 0, 69, 64
2, 30720, Note_on_c, 0, 72, 127
2, 30744, Note_off_c, 0, 72, 64
2, 30750, Note_on_c, 0, 71, 127
2, 30774, Note_off_c, 0, 71, 64
2, 30780, Note_on_c, 0, 72, 127
2, 30804, Note_off_c, 0, 72, 64
2, 30810, Note_on_c, 0, 71, 127
2, 30839, Note_off_c, 0, 71, 64
2, 31200, Note_on_c, 0, 74, 127
2, 31488, Note_off_c, 0, 74, 64
2, 31500, Note_on_c, 0, 73, 127
2, 31548, Note_off_c, 0, 73, 64
2, 31560, Note_on_c, 0, 71, 127
2, 31608, Note_off_c, 0, 71, 64
2, 31620, Note_on_c, 0, 76, 127
2, 31668, Note_off_c, 0, 76, 64
2, 31680, Note_on_c, 0, 69, 127
2, 31776, Note_off_c, 0, 69, 64
2, 31800, Note_on_c, 0, 76, 127
2, 31824, Note_off_c, 0, 76, 64
2, 31830, Note_on_c, 0, 78, 127
2, 31854, Note_off_c, 0, 78, 64
2, 31860, Note_on_c, 0, 79, 127
2, 31908, Note_off_c, 0, 79, 64
2, 31920, Note_on_c, 0, 78, 127
2, 32016, Note_off_c, 0, 78, 64
2, 32040, Note_on_c, 0, 78, 127
2, 32064, Note_off_c, 0, 78, 64
2, 32070, Note_on_c, 0, 76, 127
2, 32094, Note_off_c, 0, 76, 64
2, 32100, Note_on_c, 0, 78, 127
2, 32124, Note_off_c, 0, 78, 64
2, 32130, Note_on_c, 0, 76, 127
2, 32159, Note_off_c, 0, 76, 64
2, 32160, Note_on_c, 0, 78, 127
2, 32208, Note_off_c, 0, 78, 64
2, 32220, Note_on_c, 0, 74, 127
2, 32268, Note_off_c, 0, 74, 64
2, 32280, Note_on_c, 0, 78, 127
2, 32328, Note_off_c, 0, 78, 64
2, 32340, Note_on_c, 0, 81, 127
2, 32388, Note_off_c, 0, 81, 64
2, 32400, Note_on_c, 0, 79, 127
2, 32496, Note_off_c, 0, 79, 64
2, 32520, Note_on_c, 0, 78, 127
2, 32616, Note_off_c, 0, 78, 64
2, 32640, Note_on_c, 0, 76, 127
2, 32736, Note_off_c, 0, 76, 64
2, 32760, Note_on_c, 0, 69, 127
2, 32856, Note_off_c, 0, 69, 64
2, 33000, Note_on_c, 0, 81, 127
2, 33168, Note_off_c, 0, 81, 64
2, 33180, Note_on_c, 0, 78, 127
2, 33228, Note_off_c, 0, 78, 64
2, 33240, Note_on_c, 0, 79, 127
2, 33288, Note_off_c, 0, 79, 64
2, 33300, Note_on_c, 0, 83, 127
2, 33348, Note_off_c, 0, 83, 64
2, 33360, Note_on_c, 0, 81, 127
2, 33456, Note_off_c, 0, 81, 64
2, 33480, Note_on_c, 0, 79, 127
2, 33576, Note_off_c, 0, 79, 64
2, 33600, Note_on_c, 0, 78, 127
2, 33696, Note_off_c, 0, 78, 64
2, 33720, Note_on_c, 0, 71, 127
2, 33816, Note_off_c, 0, 71, 64
2, 33960, Note_on_c, 0, 83, 127
2, 34128, Note_off_c, 0, 83, 64
2, 34140, Note_on_c, 0, 79, 127
2, 34188, Note_off_c, 0, 79, 64
2, 34200, Note_on_c, 0, 81, 127
2, 34248, Note_off_c, 0, 81, 64
2, 34260, Note_on_c, 0, 78, 127
2, 34308, Note_off_c, 0, 78, 64
2, 34320, Note_on_c, 0, 75, 127
2, 34368, Note_off_c, 0, 75, 64
2, 34380, Note_on_c, 0, 73, 127
2, 34428, Note_off_c, 0, 73, 64
2, 34440, Note_on_c, 0, 75, 127
2, 34488, Note_off_c, 0, 75, 64
2, 34500, Note_on_c, 0, 78, 127
2, 34548, Note_off_c, 0, 78, 64
2, 34560, Note_on_c, 0, 81, 127
2, 34608, Note_off_c, 0, 81, 64
2, 34620, Note_on_c, 0, 78, 127
2, 34668, Note_off_c, 0, 78, 64
2, 34680, Note_on_c, 0, 79, 127
2, 34728, Note_off_c, 0, 79, 64
2, 34740, Note_on_c, 0, 76, 127
2, 34788, Note_off_c, 0, 76, 64
2, 34800, Note_on_c, 0, 73, 127
2, 34848, Note_off_c, 0, 73, 64
2, 34860, Note_on_c, 0, 71, 127
2, 34908, Note_off_c, 0, 71, 64
2, 34920, Note_on_c, 0, 73, 127
2, 34968, Note_off_c, 0, 73, 64
2, 34980, Note_on_c, 0, 76, 127
2, 35028, Note_off_c, 0, 76, 64
2, 35040, Note_on_c, 0, 79, 127
2, 35136, Note_off_c, 0, 79, 64
2, 35160, Note_on_c, 0, 78, 127
2, 35256, Note_off_c, 0, 78, 64
2, 35400, Note_on_c, 0, 71, 127
2, 35616, Note_off_c, 0, 71, 64
2, 35640, Note_on_c, 0, 69, 127
2, 35736, Note_off_c, 0, 69, 64
2, 35880, Note_on_c, 0, 81, 127
2, 36048, Note_off_c, 0, 81, 64
2, 36060, Note_on_c, 0, 78, 127
2, 36108, Note_off_c, 0, 78, 64
2, 36120, Note_on_c, 0, 79, 127
2, 36168, Note_off_c, 0, 79, 64
2, 36180, Note_on_c, 0, 76, 127
2, 36228, Note_off_c, 0, 76, 64
2, 36240, Note_on_c, 0, 73, 127
2, 36288, Note_off_c, 0, 73, 64
2, 36300, Note_on_c, 0, 71, 127
2, 36348, Note_off_c, 0, 71, 64
2, 36360, Note_on_c, 0, 73, 127
2, 36408, Note_off_c, 0, 73, 64
2, 36420, Note_on_c, 0, 76, 127
2, 36468, Note_off_c, 0, 76, 64
2, 36480, Note_on_c, 0, 79, 127
2, 36528, Note_off_c, 0, 79, 64
2, 36540, Note_on_c, 0, 76, 127
2, 36588, Note_off_c, 0, 76, 64
2, 36600, Note_on_c, 0, 78, 127
2, 36648, Note_off_c, 0, 78, 64
2, 36660, Note_on_c, 0, 74, 127
2, 36708, Note_off_c, 0, 74, 64
2, 36720, Note_on_c, 0, 71, 127
2, 36768, Note_off_c, 0, 71, 64
2, 36780, Note_on_c, 0, 69, 127
2, 36828, Note_off_c, 0, 69, 64
2, 36840, Note_on_c, 0, 71, 127
2, 36888, Note_off_c, 0, 71, 64
2, 36900, Note_on_c, 0, 74, 127
2, 36948, Note_off_c, 0, 74, 64
2, 36960, Note_on_c, 0, 77, 127
2, 37056, Note_off_c, 0, 77, 64
2, 37080, Note_on_c, 0, 76, 127
2, 37176, Note_off_c, 0, 76, 64
2, 37320, Note_on_c, 0, 69, 127
2, 37536, Note_off_c, 0, 69, 64
2, 37560, Note_on_c, 0, 67, 127
2, 37656, Note_off_c, 0, 67, 64
2, 37800, Note_on_c, 0, 79, 127
2, 37968, Note_off_c, 0, 79, 64
2, 37980, Note_on_c, 0, 76, 127
2, 38028, Note_off_c, 0, 76, 64
2, 38040, Note_on_c, 0, 78, 127
2, 38088, Note_off_c, 0, 78, 64
2, 38100, Note_on_c, 0, 74, 127
2, 38148, Note_off_c, 0, 74, 64
2, 38160, Note_on_c, 0, 71, 127
2, 38208, Note_off_c, 0, 71, 64
2, 38220, Note_on_c, 0, 69, 127
2, 38268, Note_off_c, 0, 69, 64
2, 38280, Note_on_c, 0, 71, 127
2, 38328, Note_off_c, 0, 71, 64
2, 38340, Note_on_c, 0, 78, 127
2, 38388, Note_off_c, 0, 78, 64
2, 38400, Note_on_c, 0, 81, 127
2, 38448, Note_off_c, 0, 81, 64
2, 38460, Note_on_c, 0, 78, 127
2, 38508, Note_off_c, 0, 78, 64
2, 38520, Note_on_c, 0, 79, 127
2, 38568, Note_off_c, 0, 79, 64
2, 38580, Note_on_c, 0, 76, 127
2, 38628, Note_off_c, 0, 76, 64
2, 38640, Note_on_c, 0, 73, 127
2, 38688, Note_off_c, 0, 73, 64
2, 38700, Note_on_c, 0, 71, 127
2, 38748, Note_off_c, 0, 71, 64
2, 38760, Note_on_c, 0, 73, 127
2, 38808, Note_off_c, 0, 73, 64
2, 38820, Note_on_c, 0, 80, 127
2, 38868, Note_off_c, 0, 80, 64
2, 38880, Note_on_c, 0, 83, 127
2, 38976, Note_off_c, 0, 83, 64
2, 39000, Note_on_c, 0, 82, 127
2, 39096, Note_off_c, 0, 82, 64
2, 39240, Note_on_c, 0, 78, 127
2, 39336, Note_off_c, 0, 78, 64
2, 39360, Note_on_c, 0, 79, 127
2, 39384, Note_off_c, 0, 79, 64
2, 39390, Note_on_c, 0, 78, 127
2, 39414, Note_off_c, 0, 78, 64
2, 39420, Note_on_c, 0, 76, 127
2, 39468, Note_off_c, 0, 76, 64
2, 39480, Note_on_c, 0, 78, 127
2, 39576, Note_off_c, 0, 78, 64
2, 39600, Note_on_c, 0, 71, 127
2, 39696, Note_off_c, 0, 71, 64
2, 39720, Note_on_c, 0, 73, 127
2, 39816, Note_off_c, 0, 73, 64
2, 39840, Note_on_c, 0, 76, 127
2, 39864, Note_off_c, 0, 76, 64
2, 39870, Note_on_c, 0, 74, 127
2, 39894, Note_off_c, 0, 74, 64
2, 39900, Note_on_c, 0, 76, 127
2, 39924, Note_off_c, 0, 76, 64
2, 39930, Note_on_c, 0, 74, 127
2, 39959, Note_off_c, 0, 74, 64
2, 39960, Note_on_c, 0, 73, 127
2, 40008, Note_off_c, 0, 73, 64
2, 40020, Note_on_c, 0, 74, 127
2, 40068, Note_off_c, 0, 74, 64
2, 40080, Note_on_c, 0, 71, 127
2, 40128, Note_off_c, 0, 71, 64
2, 40140, Note_on_c, 0, 66, 127
2, 40188, Note_off_c, 0, 66, 64
2, 40200, Note_on_c, 0, 73, 127
2, 40248, Note_off_c, 0, 73, 64
2, 40260, Note_on_c, 0, 66, 127
2, 40308, Note_off_c, 0, 66, 64
2, 40320, Note_on_c, 0, 74, 127
2, 40368, Note_off_c, 0, 74, 64
2, 40380, Note_on_c, 0, 66, 127
2, 40428, Note_off_c, 0, 66, 64
2, 40440, Note_on_c, 0, 73, 127
2, 40488, Note_off_c, 0, 73, 64
2, 40500, Note_on_c, 0, 66, 127
2, 40548, Note_off_c, 0, 66, 64
2, 40560, Note_on_c, 0, 74, 127
2, 40608, Note_off_c, 0, 74, 64
2, 40620, Note_on_c, 0, 71, 127
2, 40668, Note_off_c, 0, 71, 64
2, 40680, Note_on_c, 0, 76, 127
2, 40770, Note_off_c, 0, 76, 64
2, 40800, Note_on_c, 0, 74, 127
2, 40824, Note_off_c, 0, 74, 64
2, 40830, Note_on_c, 0, 73, 127
2, 40854, Note_off_c, 0, 73, 64
2, 40860, Note_on_c, 0, 74, 127
2, 40884, Note_off_c, 0, 74, 64
2, 40890, Note_on_c, 0, 73, 127
2, 40919, Note_off_c, 0, 73, 64
2, 40920, Note_on_c, 0, 71, 127
2, 40968, Note_off_c, 0, 71, 64
2, 40980, Note_on_c, 0, 73, 127
2, 41028, Note_off_c, 0, 73, 64
2, 41040, Note_on_c, 0, 69, 127
2, 41088, Note_off_c, 0, 69, 64
2, 41100, Note_on_c, 0, 64, 127
2, 41148, Note_off_c, 0, 64, 64
2, 41160, Note_on_c, 0, 71, 127
2, 41208, Note_off_c, 0, 71, 64
2, 41220, Note_on_c, 0, 64, 127
2, 41268, Note_off_c, 0, 64, 64
2, 41280, Note_on_c, 0, 73, 127
2, 41328, Note_off_c, 0, 73, 64
2, 41340, Note_on_c, 0, 64, 127
2, 41388, Note_off_c, 0, 64, 64
2, 41400, Note_on_c, 0, 71, 127
2, 41448, Note_off_c, 0, 71, 64
2, 41460, Note_on_c, 0, 64, 127
2, 41508, Note_off_c, 0, 64, 64
2, 41520, Note_on_c, 0, 73, 127
2, 41568, Note_off_c, 0, 73, 64
2, 41580, Note_on_c, 0, 69, 127
2, 41628, Note_off_c, 0, 69, 64
2, 41640, Note_on_c, 0, 74, 127
2, 41730, Note_off_c, 0, 74, 64
2, 41760, Note_on_c, 0, 72, 127
2, 41805, Note_off_c, 0, 72, 64
2, 41820, Note_on_c, 0, 71, 127
2, 41868, Note_off_c, 0, 71, 64
2, 41880, Note_on_c, 0, 70, 127
2, 41928, Note_off_c, 0, 70, 64
2, 41940, Note_on_c, 0, 71, 127
2, 41988, Note_off_c, 0, 71, 64
2, 42000, Note_on_c, 0, 75, 127
2, 42045, Note_off_c, 0, 75, 64
2, 42060, Note_on_c, 0, 71, 127
2, 42108, Note_off_c, 0, 71, 64
2, 42120, Note_on_c, 0, 70, 127
2, 42168, Note_off_c, 0, 70, 64
2, 42180, Note_on_c, 0, 71, 127
2, 42228, Note_off_c, 0, 71, 64
2, 42240, Note_on_c, 0, 76, 127
2, 42285, Note_off_c, 0, 76, 64
2, 42300, Note_on_c, 0, 71, 127
2, 42348, Note_off_c, 0, 71, 64
2, 42360, Note_on_c, 0, 70, 127
2, 42408, Note_off_c, 0, 70, 64
2, 42420, Note_on_c, 0, 71, 127
2, 42468, Note_off_c, 0, 71, 64
2, 42480, Note_on_c, 0, 78, 127
2, 42525, Note_off_c, 0, 78, 64
2, 42540, Note_on_c, 0, 71, 127
2, 42588, Note_off_c, 0, 71, 64
2, 42600, Note_on_c, 0, 70, 127
2, 42648, Note_off_c, 0, 70, 64
2, 42660, Note_on_c, 0, 71, 127
2, 42708, Note_off_c, 0, 71, 64
2, 42720, Note_on_c, 0, 79, 127
2, 43248, Note_off_c, 0, 79, 64
2, 43260, Note_on_c, 0, 78, 127
2, 43308, Note_off_c, 0, 78, 64
2, 43320, Note_on_c, 0, 79, 127
2, 43368, Note_off_c, 0, 79, 64
2, 43380, Note_on_c, 0, 76, 127
2, 43428, Note_off_c, 0, 76, 64
2, 43440, Note_on_c, 0, 73, 127
2, 43488, Note_off_c, 0, 73, 64
2, 43500, Note_on_c, 0, 76, 127
2, 43548, Note_off_c, 0, 76, 64
2, 43560, Note_on_c, 0, 81, 127
2, 43608, Note_off_c, 0, 81, 64
2, 43620, Note_on_c, 0, 75, 127
2, 43668, Note_off_c, 0, 75, 64
2, 43680, Note_on_c, 0, 76, 127
2, 43776, Note_off_c, 0, 76, 64
2, 43800, Note_on_c, 0, 75, 127
2, 43896, Note_off_c, 0, 75, 64
2, 43920, Note_on_c, 0, 76, 127
2, 44016, Note_off_c, 0, 76, 64
2, 44040, Note_on_c, 0, 75, 127
2, 44136, Note_off_c, 0, 75, 64
2, 44160, Note_on_c, 0, 76, 127
2, 44256, Note_off_c, 0, 76, 64
2, 44280, Note_on_c, 0, 71, 127
2, 44376, Note_off_c, 0, 71, 64
2, 44760, Note_on_c, 0, 73, 127
2, 44856, Note_off_c, 0, 73, 64
2, 44880, Note_on_c, 0, 74, 127
2, 44976, Note_off_c, 0, 74, 64
2, 45000, Note_on_c, 0, 73, 127
2, 45096, Note_off_c, 0, 73, 64
2, 45120, Note_on_c, 0, 74, 127
2, 45216, Note_off_c, 0, 74, 64
2, 45240, Note_on_c, 0, 69, 127
2, 45336, Note_off_c, 0, 69, 64
2, 45720, Note_on_c, 0, 69, 127
2, 45816, Note_off_c, 0, 69, 64
2, 45840, Note_on_c, 0, 71, 127
2, 45936, Note_off_c, 0, 71, 64
2, 45960, Note_on_c, 0, 68, 127
2, 46056, Note_off_c, 0, 68, 64
2, 46080, Note_on_c, 0, 72, 127
2, 46176, Note_off_c, 0, 72, 64
2, 46200, Note_on_c, 0, 69, 127
2, 46296, Note_off_c, 0, 69, 64
2, 46320, Note_on_c, 0, 74, 127
2, 46416, Note_off_c, 0, 74, 64
2, 46440, Note_on_c, 0, 71, 127
2, 46536, Note_off_c, 0, 71, 64
2, 46560, Note_on_c, 0, 76, 127
2, 46605, Note_off_c, 0, 76, 64
2, 46620, Note_on_c, 0, 69, 127
2, 46668, Note_off_c, 0, 69, 64
2, 46680, Note_on_c, 0, 68, 127
2, 46728, Note_off_c, 0, 68, 64
2, 46740, Note_on_c, 0, 69, 127
2, 46788, Note_off_c, 0, 69, 64
2, 46800, Note_on_c, 0, 73, 127
2, 46845, Note_off_c, 0, 73, 64
2, 46860, Note_on_c, 0, 69, 127
2, 46908, Note_off_c, 0, 69, 64
2, 46920, Note_on_c, 0, 68, 127
2, 46968, Note_off_c, 0, 68, 64
2, 46980, Note_on_c, 0, 69, 127
2, 47028, Note_off_c, 0, 69, 64
2, 47040, Note_on_c, 0, 74, 127
2, 47085, Note_off_c, 0, 74, 64
2, 47100, Note_on_c, 0, 69, 127
2, 47148, Note_off_c, 0, 69, 64
2, 47160, Note_on_c, 0, 68, 127
2, 47208, Note_off_c, 0, 68, 64
2, 47220, Note_on_c, 0, 69, 127
2, 47268, Note_off_c, 0, 69, 64
2, 47280, Note_on_c, 0, 76, 127
2, 47325, Note_off_c, 0, 76, 64
2, 47340, Note_on_c, 0, 69, 127
2, 47388, Note_off_c, 0, 69, 64
2, 47400, Note_on_c, 0, 68, 127
2, 47448, Note_off_c, 0, 68, 64
2, 47460, Note_on_c, 0, 69, 127
2, 47508, Note_off_c, 0, 69, 64
2, 47520, Note_on_c, 0, 78, 127
2, 47565, Note_off_c, 0, 78, 64
2, 47580, Note_on_c, 0, 78, 127
2, 47628, Note_off_c, 0, 78, 64
2, 47640, Note_on_c, 0, 79, 127
2, 47688, Note_off_c, 0, 79, 64
2, 47700, Note_on_c, 0, 78, 127
2, 47748, Note_off_c, 0, 78, 64
2, 47760, Note_on_c, 0, 69, 127
2, 47805, Note_off_c, 0, 69, 64
2, 47820, Note_on_c, 0, 78, 127
2, 47868, Note_off_c, 0, 78, 64
2, 47880, Note_on_c, 0, 79, 127
2, 47928, Note_off_c, 0, 79, 64
2, 47940, Note_on_c, 0, 78, 127
2, 47988, Note_off_c, 0, 78, 64
2, 48000, Note_on_c, 0, 71, 127
2, 48045, Note_off_c, 0, 71, 64
2, 48060, Note_on_c, 0, 78, 127
2, 48108, Note_off_c, 0, 78, 64
2, 48120, Note_on_c, 0, 79, 127
2, 48168, Note_off_c, 0, 79, 64
2, 48180, Note_on_c, 0, 78, 127
2, 48228, Note_off_c, 0, 78, 64
2, 48240, Note_on_c, 0, 72, 127
2, 48285, Note_off_c, 0, 72, 64
2, 48300, Note_on_c, 0, 78, 127
2, 48348, Note_off_c, 0, 78, 64
2, 48360, Note_on_c, 0, 79, 127
2, 48408, Note_off_c, 0, 79, 64
2, 48420, Note_on_c, 0, 78, 127
2, 48468, Note_off_c, 0, 78, 64
2, 48480, Note_on_c, 0, 79, 127
2, 48525, Note_off_c, 0, 79, 64
2, 48540, Note_on_c, 0, 67, 127
2, 48588, Note_off_c, 0, 67, 64
2, 48600, Note_on_c, 0, 66, 127
2, 48648, Note_off_c, 0, 66, 64
2, 48660, Note_on_c, 0, 67, 127
2, 48708, Note_off_c, 0, 67, 64
2, 48720, Note_on_c, 0, 71, 127
2, 48765, Note_off_c, 0, 71, 64
2, 48780, Note_on_c, 0, 67, 127
2, 48828, Note_off_c, 0, 67, 64
2, 48840, Note_on_c, 0, 66, 127
2, 48888, Note_off_c, 0, 66, 64
2, 48900, Note_on_c, 0, 67, 127
2, 48948, Note_off_c, 0, 67, 64
2, 48960, Note_on_c, 0, 72, 127
2, 49005, Note_off_c, 0, 72, 64
2, 49020, Note_on_c, 0, 67, 127
2, 49068, Note_off_c, 0, 67, 64
2, 49080, Note_on_c, 0, 66, 127
2, 49128, Note_off_c, 0, 66, 64
2, 49140, Note_on_c, 0, 67, 127
2, 49188, Note_off_c, 0, 67, 64
2, 49200, Note_on_c, 0, 74, 127
2, 49245, Note_off_c, 0, 74, 64
2, 49260, Note_on_c, 0, 67, 127
2, 49308, Note_off_c, 0, 67, 64
2, 49320, Note_on_c, 0, 66, 127
2, 49368, Note_off_c, 0, 66, 64
2, 49380, Note_on_c, 0, 67, 127
2, 49428, Note_off_c, 0, 67, 64
2, 49440, Note_on_c, 0, 76, 127
2, 49488, Note_off_c, 0, 76, 64
2, 49500, Note_on_c, 0, 74, 127
2, 49548, Note_off_c, 0, 74, 64
2, 49560, Note_on_c, 0, 72, 127
2, 49728, Note_off_c, 0, 72, 64
2, 49740, Note_on_c, 0, 71, 127
2, 49788, Note_off_c, 0, 71, 64
2, 49800, Note_on_c, 0, 69, 127
2, 49848, Note_off_c, 0, 69, 64
2, 49860, Note_on_c, 0, 74, 127
2, 49908, Note_off_c, 0, 74, 64
2, 49920, Note_on_c, 0, 67, 127
2, 50016, Note_off_c, 0, 67, 64
2, 50040, Note_on_c, 0, 74, 127
2, 50064, Note_off_c, 0, 74, 64
2, 50070, Note_on_c, 0, 76, 127
2, 50094, Note_off_c, 0, 76, 64
2, 50100, Note_on_c, 0, 77, 127
2, 50148, Note_off_c, 0, 77, 64
2, 50160, Note_on_c, 0, 76, 127
2, 50250, Note_off_c, 0, 76, 64
2, 50280, Note_on_c, 0, 74, 127
2, 50309, Note_off_c, 0, 74, 64
2, 50310, Note_on_c, 0, 72, 127
2, 50334, Note_off_c, 0, 72, 64
2, 50340, Note_on_c, 0, 74, 127
2, 50388, Note_off_c, 0, 74, 64
2, 50400, Note_on_c, 0, 76, 127
2, 50448, Note_off_c, 0, 76, 64
2, 50460, Note_on_c, 0, 72, 127
2, 50508, Note_off_c, 0, 72, 64
2, 50520, Note_on_c, 0, 76, 127
2, 50568, Note_off_c, 0, 76, 64
2, 50580, Note_on_c, 0, 79, 127
2, 50628, Note_off_c, 0, 79, 64
2, 50640, Note_on_c, 0, 78, 127
2, 50736, Note_off_c, 0, 78, 64
2, 50760, Note_on_c, 0, 78, 127
2, 50784, Note_off_c, 0, 78, 64
2, 50790, Note_on_c, 0, 76, 127
2, 50814, Note_off_c, 0, 76, 64
2, 50820, Note_on_c, 0, 78, 127
2, 50844, Note_off_c, 0, 78, 64
2, 50850, Note_on_c, 0, 76, 127
2, 50879, Note_off_c, 0, 76, 64
2, 50880, Note_on_c, 0, 74, 127
2, 50976, Note_off_c, 0, 74, 64
2, 51000, Note_on_c, 0, 69, 127
2, 51096, Note_off_c, 0, 69, 64
2, 51120, Note_on_c, 0, 79, 127
2, 51456, Note_off_c, 0, 79, 64
2, 51480, Note_on_c, 0, 78, 127
2, 51528, Note_off_c, 0, 78, 64
2, 51540, Note_on_c, 0, 76, 127
2, 51588, Note_off_c, 0, 76, 64
2, 51600, Note_on_c, 0, 79, 127
2, 51624, Note_off_c, 0, 79, 64
2, 51630, Note_on_c, 0, 78, 127
2, 51654, Note_off_c, 0, 78, 64
2, 51660, Note_on_c, 0, 79, 127
2, 51684, Note_off_c, 0, 79, 64
2, 51690, Note_on_c, 0, 78, 127
2, 51690, Note_on_c, 0, 78, 127
2, 51690, Note_on_c, 0, 78, 127
2, 51714, Note_off_c, 0, 78, 64
2, 51714, Note_off_c, 0, 78, 64
2, 51714, Note_off_c, 0, 78, 64
2, 51720, Note_on_c, 0, 79, 127
2, 51744, Note_off_c, 0, 79, 64
2, 51750, Note_on_c, 0, 78, 127
2, 51779, Note_off_c, 0, 78, 64
2, 51780, Note_on_c, 0, 76, 127
2, 51804, Note_off_c, 0, 76, 64
2, 51810, Note_on_c, 0, 78, 127
2, 51834, Note_off_c, 0, 78, 64
2, 51840, Note_on_c, 0, 79, 127
2, 52032, Note_off_c, 0, 79, 64
2, 52200, Note_on_c, 0, 67, 127
2, 52296, Note_off_c, 0, 67, 64
2, 52320, Note_on_c, 0, 66, 127
2, 52368, Note_off_c, 0, 66, 64
2, 52380, Note_on_c, 0, 62, 127
2, 52428, Note_off_c, 0, 62, 64
2, 52440, Note_on_c, 0, 66, 127
2, 52488, Note_off_c, 0, 66, 64
2, 52500, Note_on_c, 0, 69, 127
2, 52548, Note_off_c, 0, 69, 64
2, 52560, Note_on_c, 0, 72, 127
2, 52608, Note_off_c, 0, 72, 64
2, 52620, Note_on_c, 0, 71, 127
2, 52668, Note_off_c, 0, 71, 64
2, 52680, Note_on_c, 0, 72, 127
2, 52776, Note_off_c, 0, 72, 64
2, 52860, Note_on_c, 0, 62, 127
2, 52908, Note_off_c, 0, 62, 64
2, 52920, Note_on_c, 0, 66, 127
2, 52968, Note_off_c, 0, 66, 64
2, 52980, Note_on_c, 0, 69, 127
2, 53028, Note_off_c, 0, 69, 64
2, 53040, Note_on_c, 0, 72, 127
2, 53088, Note_off_c, 0, 72, 64
2, 53100, Note_on_c, 0, 71, 127
2, 53148, Note_off_c, 0, 71, 64
2, 53160, Note_on_c, 0, 72, 127
2, 53256, Note_off_c, 0, 72, 64
2, 53340, Note_on_c, 0, 62, 127
2, 53388, Note_off_c, 0, 62, 64
2, 53400, Note_on_c, 0, 66, 127
2, 53448, Note_off_c, 0, 66, 64
2, 53460, Note_on_c, 0, 69, 127
2, 53508, Note_off_c, 0, 69, 64
2, 53520, Note_on_c, 0, 72, 127
2, 53568, Note_off_c, 0, 72, 64
2, 53580, Note_on_c, 0, 71, 127
2, 53628, Note_off_c, 0, 71, 64
2, 53640, Note_on_c, 0, 69, 127
2, 53688, Note_off_c, 0, 69, 64
2, 53700, Note_on_c, 0, 67, 127
2, 53748, Note_off_c, 0, 67, 64
2, 53760, Note_on_c, 0, 66, 127
2, 53808, Note_off_c, 0, 66, 64
2, 53820, Note_on_c, 0, 62, 127
2, 53868, Note_off_c, 0, 62, 64
2, 53880, Note_on_c, 0, 66, 127
2, 53928, Note_off_c, 0, 66, 64
2, 53940, Note_on_c, 0, 69, 127
2, 53988, Note_off_c, 0, 69, 64
2, 54000, Note_on_c, 0, 74, 127
2, 54048, Note_off_c, 0, 74, 64
2, 54060, Note_on_c, 0, 72, 127
2, 54108, Note_off_c, 0, 72, 64
2, 54120, Note_on_c, 0, 71, 127
2, 54168, Note_off_c, 0, 71, 64
2, 54180, Note_on_c, 0, 69, 127
2, 54228, Note_off_c, 0, 69, 64
2, 54240, Note_on_c, 0, 71, 127
2, 54288, Note_off_c, 0, 71, 64
2, 54300, Note_on_c, 0, 69, 127
2, 54348, Note_off_c, 0, 69, 64
2, 54360, Note_on_c, 0, 67, 127
2, 54528, Note_off_c, 0, 67, 64
2, 54540, Note_on_c, 0, 66, 127
2, 54588, Note_off_c, 0, 66, 64
2, 54600, Note_on_c, 0, 64, 127
2, 54648, Note_off_c, 0, 64, 64
2, 54660, Note_on_c, 0, 69, 127
2, 54708, Note_off_c, 0, 69, 64
2, 54720, Note_on_c, 0, 62, 127
2, 54816, Note_off_c, 0, 62, 64
2, 54840, Note_on_c, 0, 69, 127
2, 54864, Note_off_c, 0, 69, 64
2, 54870, Note_on_c, 0, 71, 127
2, 54894, Note_off_c, 0, 71, 64
2, 54900, Note_on_c, 0, 72, 127
2, 54948, Note_off_c, 0, 72, 64
2, 54960, Note_on_c, 0, 71, 127
2, 55050, Note_off_c, 0, 71, 64
2, 55080, Note_on_c, 0, 71, 127
2, 55104, Note_off_c, 0, 71, 64
2, 55110, Note_on_c, 0, 69, 127
2, 55134, Note_off_c, 0, 69, 64
2, 55140, Note_on_c, 0, 71, 127
2, 55164, Note_off_c, 0, 71, 64
2, 55170, Note_on_c, 0, 69, 127
2, 55199, Note_off_c, 0, 69, 64
2, 55200, Note_on_c, 0, 71, 127
2, 55248, Note_off_c, 0, 71, 64
2, 55260, Note_on_c, 0, 67, 127
2, 55308, Note_off_c, 0, 67, 64
2, 55320, Note_on_c, 0, 71, 127
2, 55368, Note_off_c, 0, 71, 64
2, 55380, Note_on_c, 0, 74, 127
2, 55428, Note_off_c, 0, 74, 64
2, 55440, Note_on_c, 0, 72, 127
2, 55536, Note_off_c, 0, 72, 64
2, 55560, Note_on_c, 0, 71, 127
2, 55656, Note_off_c, 0, 71, 64
2, 55680, Note_on_c, 0, 69, 127
2, 55776, Note_off_c, 0, 69, 64
2, 55800, Note_on_c, 0, 62, 127
2, 55896, Note_off_c, 0, 62, 64
2, 55920, Note_on_c, 0, 74, 127
2, 56256, Note_off_c, 0, 74, 64
2, 56280, Note_on_c, 0, 73, 127
2, 56328, Note_off_c, 0, 73, 64
2, 56340, Note_on_c, 0, 71, 127
2, 56388, Note_off_c, 0, 71, 64
2, 56400, Note_on_c, 0, 74, 127
2, 56424, Note_off_c, 0, 74, 64
2, 56430, Note_on_c, 0, 73, 127
2, 56454, Note_off_c, 0, 73, 64
2, 56460, Note_on_c, 0, 74, 127
2, 56484, Note_off_c, 0, 74, 64
2, 56490, Note_on_c, 0, 73, 127
2, 56514, Note_off_c, 0, 73, 64
2, 56520, Note_on_c, 0, 74, 127
2, 56544, Note_off_c, 0, 74, 64
2, 56550, Note_on_c, 0, 73, 127
2, 56579, Note_off_c, 0, 73, 64
2, 56580, Note_on_c, 0, 71, 127
2, 56604, Note_off_c, 0, 71, 64
2, 56610, Note_on_c, 0, 73, 127
2, 56634, Note_off_c, 0, 73, 64
2, 56640, Note_on_c, 0, 74, 127
2, 56832, Note_off_c, 0, 74, 64
2, 57000, Note_on_c, 0, 74, 127
2, 57096, Note_off_c, 0, 74, 64
2, 57120, Note_on_c, 0, 73, 127
2, 57168, Note_off_c, 0, 73, 64
2, 57180, Note_on_c, 0, 69, 127
2, 57228, Note_off_c, 0, 69, 64
2, 57240, Note_on_c, 0, 73, 127
2, 57288, Note_off_c, 0, 73, 64
2, 57300, Note_on_c, 0, 76, 127
2, 57348, Note_off_c, 0, 76, 64
2, 57360, Note_on_c, 0, 79, 127
2, 57408, Note_off_c, 0, 79, 64
2, 57420, Note_on_c, 0, 78, 127
2, 57468, Note_off_c, 0, 78, 64
2, 57480, Note_on_c, 0, 79, 127
2, 57576, Note_off_c, 0, 79, 64
2, 57660, Note_on_c, 0, 69, 127
2, 57708, Note_off_c, 0, 69, 64
2, 57720, Note_on_c, 0, 73, 127
2, 57768, Note_off_c, 0, 73, 64
2, 57780, Note_on_c, 0, 76, 127
2, 57828, Note_off_c, 0, 76, 64
2, 57840, Note_on_c, 0, 79, 127
2, 57888, Note_off_c, 0, 79, 64
2, 57900, Note_on_c, 0, 78, 127
2, 57948, Note_off_c, 0, 78, 64
2, 57960, Note_on_c, 0, 79, 127
2, 58056, Note_off_c, 0, 79, 64
2, 58140, Note_on_c, 0, 69, 127
2, 58188, Note_off_c, 0, 69, 64
2, 58200, Note_on_c, 0, 73, 127
2, 58248, Note_off_c, 0, 73, 64
2, 58260, Note_on_c, 0, 76, 127
2, 58308, Note_off_c, 0, 76, 64
2, 58320, Note_on_c, 0, 79, 127
2, 58368, Note_off_c, 0, 79, 64
2, 58380, Note_on_c, 0, 78, 127
2, 58428, Note_off_c, 0, 78, 64
2, 58440, Note_on_c, 0, 76, 127
2, 58488, Note_off_c, 0, 76, 64
2, 58500, Note_on_c, 0, 74, 127
2, 58548, Note_off_c, 0, 74, 64
2, 58560, Note_on_c, 0, 73, 127
2, 58608, Note_off_c, 0, 73, 64
2, 58620, Note_on_c, 0, 69, 127
2, 58668, Note_off_c, 0, 69, 64
2, 58680, Note_on_c, 0, 73, 127
2, 58728, Note_off_c, 0, 73, 64
2, 58740, Note_on_c, 0, 76, 127
2, 58788, Note_off_c, 0, 76, 64
2, 58800, Note_on_c, 0, 81, 127
2, 58848, Note_off_c, 0, 81, 64
2, 58860, Note_on_c, 0, 79, 127
2, 58908, Note_off_c, 0, 79, 64
2, 58920, Note_on_c, 0, 78, 127
2, 58968, Note_off_c, 0, 78, 64
2, 58980, Note_on_c, 0, 76, 127
2, 59028, Note_off_c, 0, 76, 64
2, 59040, Note_on_c, 0, 78, 127
2, 59136, Note_off_c, 0, 78, 64
2, 59160, Note_on_c, 0, 74, 127
2, 59256, Note_off_c, 0, 74, 64
2, 59340, Note_on_c, 0, 71, 127
2, 59388, Note_off_c, 0, 71, 64
2, 59400, Note_on_c, 0, 75, 127
2, 59448, Note_off_c, 0, 75, 64
2, 59460, Note_on_c, 0, 78, 127
2, 59508, Note_off_c, 0, 78, 64
2, 59520, Note_on_c, 0, 81, 127
2, 59568, Note_off_c, 0, 81, 64
2, 59580, Note_on_c, 0, 79, 127
2, 59628, Note_off_c, 0, 79, 64
2, 59640, Note_on_c, 0, 81, 127
2, 59736, Note_off_c, 0, 81, 64
2, 59820, Note_on_c, 0, 71, 127
2, 59868, Note_off_c, 0, 71, 64
2, 59880, Note_on_c, 0, 75, 127
2, 59928, Note_off_c, 0, 75, 64
2, 59940, Note_on_c, 0, 78, 127
2, 59988, Note_off_c, 0, 78, 64
2, 60000, Note_on_c, 0, 81, 127
2, 60048, Note_off_c, 0, 81, 64
2, 60060, Note_on_c, 0, 79, 127
2, 60108, Note_off_c, 0, 79, 64
2, 60120, Note_on_c, 0, 81, 127
2, 60216, Note_off_c, 0, 81, 64
2, 60540, Note_on_c, 0, 75, 127
2, 60588, Note_off_c, 0, 75, 64
2, 60600, Note_on_c, 0, 78, 127
2, 60648, Note_off_c, 0, 78, 64
2, 60660, Note_on_c, 0, 83, 127
2, 60708, Note_off_c, 0, 83, 64
2, 60720, Note_on_c, 0, 71, 127
2, 60768, Note_off_c, 0, 71, 64
2, 60780, Note_on_c, 0, 78, 127
2, 60828, Note_off_c, 0, 78, 64
2, 60840, Note_on_c, 0, 76, 127
2, 60888, Note_off_c, 0, 76, 64
2, 60900, Note_on_c, 0, 75, 127
2, 60948, Note_off_c, 0, 75, 64
2, 60960, Note_on_c, 0, 76, 127
2, 61056, Note_off_c, 0, 76, 64
2, 61080, Note_on_c, 0, 71, 127
2, 61176, Note_off_c, 0, 71, 64
2, 61200, Note_on_c, 0, 76, 127
2, 61488, Note_off_c, 0, 76, 64
2, 61500, Note_on_c, 0, 74, 127
2, 61548, Note_off_c, 0, 74, 64
2, 61560, Note_on_c, 0, 78, 127
2, 61608, Note_off_c, 0, 78, 64
2, 61620, Note_on_c, 0, 81, 127
2, 61668, Note_off_c, 0, 81, 64
2, 61680, Note_on_c, 0, 79, 127
2, 61776, Note_off_c, 0, 79, 64
2, 61800, Note_on_c, 0, 77, 127
2, 61896, Note_off_c, 0, 77, 64
2, 61920, Note_on_c, 0, 76, 127
2, 62016, Note_off_c, 0, 76, 64
2, 62040, Note_on_c, 0, 67, 127
2, 62136, Note_off_c, 0, 67, 64
2, 62160, Note_on_c, 0, 69, 127
2, 62448, Note_off_c, 0, 69, 64
2, 62460, Note_on_c, 0, 66, 127
2, 62508, Note_off_c, 0, 66, 64
2, 62520, Note_on_c, 0, 67, 127
2, 62568, Note_off_c, 0, 67, 64
2, 62580, Note_on_c, 0, 71, 127
2, 62628, Note_off_c, 0, 71, 64
2, 62640, Note_on_c, 0, 69, 127
2, 62736, Note_off_c, 0, 69, 64
2, 62760, Note_on_c, 0, 67, 127
2, 62928, Note_off_c, 0, 67, 64
2, 62940, Note_on_c, 0, 64, 127
2, 62988, Note_off_c, 0, 64, 64
2, 63000, Note_on_c, 0, 66, 127
2, 63048, Note_off_c, 0, 66, 64
2, 63060, Note_on_c, 0, 69, 127
2, 63108, Note_off_c, 0, 69, 64
2, 63120, Note_on_c, 0, 74, 127
2, 63216, Note_off_c, 0, 74, 64
2, 63240, Note_on_c, 0, 72, 127
2, 63408, Note_off_c, 0, 72, 64
2, 63420, Note_on_c, 0, 69, 127
2, 63468, Note_off_c, 0, 69, 64
2, 63480, Note_on_c, 0, 71, 127
2, 63528, Note_off_c, 0, 71, 64
2, 63540, Note_on_c, 0, 74, 127
2, 63588, Note_off_c, 0, 74, 64
2, 63600, Note_on_c, 0, 79, 127
2, 63936, Note_off_c, 0, 79, 64
2, 63960, Note_on_c, 0, 78, 127
2, 64056, Note_off_c, 0, 78, 64
2, 64200, Note_on_c, 0, 72, 127
2, 64368, Note_off_c, 0, 72, 64
2, 64380, Note_on_c, 0, 69, 127
2, 64428, Note_off_c, 0, 69, 64
2, 64440, Note_on_c, 0, 71, 127
2, 64488, Note_off_c, 0, 71, 64
2, 64500, Note_on_c, 0, 72, 127
2, 64548, Note_off_c, 0, 72, 64
2, 64560, Note_on_c, 0, 74, 127
2, 64608, Note_off_c, 0, 74, 64
2, 64620, Note_on_c, 0, 78, 127
2, 64668, Note_off_c, 0, 78, 64
2, 64680, Note_on_c, 0, 76, 127
2, 64728, Note_off_c, 0, 76, 64
2, 64740, Note_on_c, 0, 74, 127
2, 64788, Note_off_c, 0, 74, 64
2, 64800, Note_on_c, 0, 72, 127
2, 64848, Note_off_c, 0, 72, 64
2, 64860, Note_on_c, 0, 71, 127
2, 64908, Note_off_c, 0, 71, 64
2, 64920, Note_on_c, 0, 69, 127
2, 64968, Note_off_c, 0, 69, 64
2, 64980, Note_on_c, 0, 67, 127
2, 65028, Note_off_c, 0, 67, 64
2, 65040, Note_on_c, 0, 66, 127
2, 65136, Note_off_c, 0, 66, 64
2, 65160, Note_on_c, 0, 78, 127
2, 65328, Note_off_c, 0, 78, 64
2, 65340, Note_on_c, 0, 71, 127
2, 65388, Note_off_c, 0, 71, 64
2, 65400, Note_on_c, 0, 76, 127
2, 65448, Note_off_c, 0, 76, 64
2, 65460, Note_on_c, 0, 74, 127
2, 65508, Note_off_c, 0, 74, 64
2, 65520, Note_on_c, 0, 72, 127
2, 65568, Note_off_c, 0, 72, 64
2, 65580, Note_on_c, 0, 71, 127
2, 65628, Note_off_c, 0, 71, 64
2, 65640, Note_on_c, 0, 69, 127
2, 65688, Note_off_c, 0, 69, 64
2, 65700, Note_on_c, 0, 67, 127
2, 65748, Note_off_c, 0, 67, 64
2, 65760, Note_on_c, 0, 66, 127
2, 65808, Note_off_c, 0, 66, 64
2, 65820, Note_on_c, 0, 64, 127
2, 65868, Note_off_c, 0, 64, 64
2, 65880, Note_on_c, 0, 66, 127
2, 65928, Note_off_c, 0, 66, 64
2, 65940, Note_on_c, 0, 67, 127
2, 65988, Note_off_c, 0, 67, 64
2, 66000, Note_on_c, 0, 69, 127
2, 66048, Note_off_c, 0, 69, 64
2, 66060, Note_on_c, 0, 71, 127
2, 66108, Note_off_c, 0, 71, 64
2, 66120, Note_on_c, 0, 73, 127
2, 66168, Note_off_c, 0, 73, 64
2, 66180, Note_on_c, 0, 75, 127
2, 66228, Note_off_c, 0, 75, 64
2, 66240, Note_on_c, 0, 76, 127
2, 66336, Note_off_c, 0, 76, 64
2, 66360, Note_on_c, 0, 71, 127
2, 66456, Note_off_c, 0, 71, 64
2, 66480, Note_on_c, 0, 76, 127
2, 66816, Note_off_c, 0, 76, 64
2, 66840, Note_on_c, 0, 74, 127
2, 66888, Note_off_c, 0, 74, 64
2, 66900, Note_on_c, 0, 72, 127
2, 66948, Note_off_c, 0, 72, 64
2, 66960, Note_on_c, 0, 71, 127
2, 67008, Note_off_c, 0, 71, 64
2, 67020, Note_on_c, 0, 69, 127
2, 67068, Note_off_c, 0, 69, 64
2, 67080, Note_on_c, 0, 67, 127
2, 67128, Note_off_c, 0, 67, 64
2, 67140, Note_on_c, 0, 65, 127
2, 67188, Note_off_c, 0, 65, 64
2, 67200, Note_on_c, 0, 64, 127
2, 67296, Note_off_c, 0, 64, 64
2, 67320, Note_on_c, 0, 67, 127
2, 67416, Note_off_c, 0, 67, 64
2, 67440, Note_on_c, 0, 72, 127
2, 67776, Note_off_c, 0, 72, 64
2, 67800, Note_on_c, 0, 71, 127
2, 67896, Note_off_c, 0, 71, 64
2, 68040, Note_on_c, 0, 65, 127
2, 68208, Note_off_c, 0, 65, 64
2, 68220, Note_on_c, 0, 62, 127
2, 68268, Note_off_c, 0, 62, 64
2, 68280, Note_on_c, 0, 64, 127
2, 68328, Note_off_c, 0, 64, 64
2, 68340, Note_on_c, 0, 66, 127
2, 68388, Note_off_c, 0, 66, 64
2, 68400, Note_on_c, 0, 67, 127
2, 68448, Note_off_c, 0, 67, 64
2, 68460, Note_on_c, 0, 71, 127
2, 68508, Note_off_c, 0, 71, 64
2, 68520, Note_on_c, 0, 69, 127
2, 68568, Note_off_c, 0, 69, 64
2, 68580, Note_on_c, 0, 67, 127
2, 68628, Note_off_c, 0, 67, 64
2, 68640, Note_on_c, 0, 69, 127
2, 68688, Note_off_c, 0, 69, 64
2, 68700, Note_on_c, 0, 67, 127
2, 68748, Note_off_c, 0, 67, 64
2, 68760, Note_on_c, 0, 66, 127
2, 68808, Note_off_c, 0, 66, 64
2, 68820, Note_on_c, 0, 67, 127
2, 68868, Note_off_c, 0, 67, 64
2, 68880, Note_on_c, 0, 69, 127
2, 68928, Note_off_c, 0, 69, 64
2, 68940, Note_on_c, 0, 72, 127
2, 68988, Note_off_c, 0, 72, 64
2, 69000, Note_on_c, 0, 71, 127
2, 69048, Note_off_c, 0, 71, 64
2, 69060, Note_on_c, 0, 69, 127
2, 69108, Note_off_c, 0, 69, 64
2, 69120, Note_on_c, 0, 67, 127
2, 69408, Note_off_c, 0, 67, 64
2, 69420, Note_on_c, 0, 66, 127
2, 69468, Note_off_c, 0, 66, 64
2, 69480, Note_on_c, 0, 64, 127
2, 69528, Note_off_c, 0, 64, 64
2, 69540, Note_on_c, 0, 69, 127
2, 69588, Note_off_c, 0, 69, 64
2, 69600, Note_on_c, 0, 62, 127
2, 69696, Note_off_c, 0, 62, 64
2, 69720, Note_on_c, 0, 69, 127
2, 69744, Note_off_c, 0, 69, 64
2, 69750, Note_on_c, 0, 71, 127
2, 69774, Note_off_c, 0, 71, 64
2, 69780, Note_on_c, 0, 72, 127
2, 69828, Note_off_c, 0, 72, 64
2, 69840, Note_on_c, 0, 71, 127
2, 69930, Note_off_c, 0, 71, 64
2, 69960, Note_on_c, 0, 71, 127
2, 69984, Note_off_c, 0, 71, 64
2, 69990, Note_on_c, 0, 69, 127
2, 70014, Note_off_c, 0, 69, 64
2, 70020, Note_on_c, 0, 71, 127
2, 70044, Note_off_c, 0, 71, 64
2, 70050, Note_on_c, 0, 69, 127
2, 70079, Note_off_c, 0, 69, 64
2, 70080, Note_on_c, 0, 71, 127
2, 70128, Note_off_c, 0, 71, 64
2, 70140, Note_on_c, 0, 67, 127
2, 70188, Note_off_c, 0, 67, 64
2, 70200, Note_on_c, 0, 71, 127
2, 70248, Note_off_c, 0, 71, 64
2, 70260, Note_on_c, 0, 74, 127
2, 70308, Note_off_c, 0, 74, 64
2, 70320, Note_on_c, 0, 72, 127
2, 70608, Note_off_c, 0, 72, 64
2, 70620, Note_on_c, 0, 69, 127
2, 70668, Note_off_c, 0, 69, 64
2, 70680, Note_on_c, 0, 72, 127
2, 70728, Note_off_c, 0, 72, 64
2, 70740, Note_on_c, 0, 76, 127
2, 70788, Note_off_c, 0, 76, 64
2, 70800, Note_on_c, 0, 74, 127
2, 71088, Note_off_c, 0, 74, 64
2, 71100, Note_on_c, 0, 71, 127
2, 71148, Note_off_c, 0, 71, 64
2, 71160, Note_on_c, 0, 74, 127
2, 71208, Note_off_c, 0, 74, 64
2, 71220, Note_on_c, 0, 77, 127
2, 71268, Note_off_c, 0, 77, 64
2, 71280, Note_on_c, 0, 76, 127
2, 71328, Note_off_c, 0, 76, 64
2, 71340, Note_on_c, 0, 74, 127
2, 71388, Note_off_c, 0, 74, 64
2, 71400, Note_on_c, 0, 72, 127
2, 71448, Note_off_c, 0, 72, 64
2, 71460, Note_on_c, 0, 71, 127
2, 71508, Note_off_c, 0, 71, 64
2, 71520, Note_on_c, 0, 69, 127
2, 71568, Note_off_c, 0, 69, 64
2, 71580, Note_on_c, 0, 66, 127
2, 71628, Note_off_c, 0, 66, 64
2, 71640, Note_on_c, 0, 69, 127
2, 71688, Note_off_c, 0, 69, 64
2, 71700, Note_on_c, 0, 72, 127
2, 71748, Note_off_c, 0, 72, 64
2, 71760, Note_on_c, 0, 71, 127
2, 71808, Note_off_c, 0, 71, 64
2, 71820, Note_on_c, 0, 69, 127
2, 71868, Note_off_c, 0, 69, 64
2, 71880, Note_on_c, 0, 67, 127
2, 71928, Note_off_c, 0, 67, 64
2, 71940, Note_on_c, 0, 66, 127
2, 71988, Note_off_c, 0, 66, 64
2, 72000, Note_on_c, 0, 67, 127
2, 72528, Note_off_c, 0, 67, 64
2, 72540, Note_on_c, 0, 62, 127
2, 72588, Note_off_c, 0, 62, 64
2, 72600, Note_on_c, 0, 66, 127
2, 72648, Note_off_c, 0, 66, 64
2, 72660, Note_on_c, 0, 69, 127
2, 72708, Note_off_c, 0, 69, 64
2, 72720, Note_on_c, 0, 67, 127
2, 72768, Note_off_c, 0, 67, 64
2, 72780, Note_on_c, 0, 66, 127
2, 72828, Note_off_c, 0, 66, 64
2, 72840, Note_on_c, 0, 64, 127
2, 72888, Note_off_c, 0, 64, 64
2, 72900, Note_on_c, 0, 62, 127
2, 72948, Note_off_c, 0, 62, 64
2, 72960, Note_on_c, 0, 74, 127
2, 73008, Note_off_c, 0, 74, 64
2, 73020, Note_on_c, 0, 72, 127
2, 73068, Note_off_c, 0, 72, 64
2, 73080, Note_on_c, 0, 76, 127
2, 73128, Note_off_c, 0, 76, 64
2, 73140, Note_on_c, 0, 74, 127
2, 73188, Note_off_c, 0, 74, 64
2, 73200, Note_on_c, 0, 72, 127
2, 73248, Note_off_c, 0, 72, 64
2, 73260, Note_on_c, 0, 71, 127
2, 73308, Note_off_c, 0, 71, 64
2, 73320, Note_on_c, 0, 69, 127
2, 73368, Note_off_c, 0, 69, 64
2, 73380, Note_on_c, 0, 67, 127
2, 73428, Note_off_c, 0, 67, 64
2, 73440, Note_on_c, 0, 67, 127
2, 73824, Note_off_c, 0, 67, 64
2, 73824, End_track
3, 0, Start_track
3, 0, Title_t, "J.S. Bach, Edition Peters"
3, 0, Program_c, 1, 19
3, 0, Control_c, 1, 7, 127
3, 0, Note_on_c, 1, 67, 127
3, 297, Note_off_c, 1, 67, 64
3, 300, Note_on_c, 1, 66, 127
3, 357, Note_off_c, 1, 66, 64
3, 360, Note_on_c, 1, 64, 127
3, 417, Note_off_c, 1, 64, 64
3, 420, Note_on_c, 1, 69, 127
3, 477, Note_off_c, 1, 69, 64
3, 480, Note_on_c, 1, 62, 127
3, 576, Note_off_c, 1, 62, 64
3, 600, Note_on_c, 1, 69, 127
3, 624, Note_off_c, 1, 69, 64
3, 630, Note_on_c, 1, 71, 127
3, 654, Note_off_c, 1, 71, 64
3, 660, Note_on_c, 1, 72, 127
3, 708, Note_off_c, 1, 72, 64
3, 720, Note_on_c, 1, 71, 127
3, 810, Note_off_c, 1, 71, 64
3, 840, Note_on_c, 1, 69, 127
3, 930, Note_off_c, 1, 69, 64
3, 960, Note_on_c, 1, 71, 127
3, 1008, Note_off_c, 1, 71, 64
3, 1020, Note_on_c, 1, 67, 127
3, 1068, Note_off_c, 1, 67, 64
3, 1080, Note_on_c, 1, 71, 127
3, 1128, Note_off_c, 1, 71, 64
3, 1140, Note_on_c, 1, 74, 127
3, 1188, Note_off_c, 1, 74, 64
3, 1200, Note_on_c, 1, 72, 127
3, 1290, Note_off_c, 1, 72, 64
3, 1320, Note_on_c, 1, 71, 127
3, 1410, Note_off_c, 1, 71, 64
3, 1440, Note_on_c, 1, 69, 127
3, 1536, Note_off_c, 1, 69, 64
3, 1560, Note_on_c, 1, 62, 127
3, 1656, Note_off_c, 1, 62, 64
3, 1680, Note_on_c, 1, 74, 127
3, 2016, Note_off_c, 1, 74, 64
3, 2040, Note_on_c, 1, 73, 127
3, 2088, Note_off_c, 1, 73, 64
3, 2100, Note_on_c, 1, 71, 127
3, 2148, Note_off_c, 1, 71, 64
3, 2160, Note_on_c, 1, 73, 127
3, 2304, Note_off_c, 1, 73, 64
3, 2340, Note_on_c, 1, 71, 127
3, 2364, Note_off_c, 1, 71, 64
3, 2370, Note_on_c, 1, 73, 127
3, 2394, Note_off_c, 1, 73, 64
3, 2400, Note_on_c, 1, 74, 127
3, 2592, Note_off_c, 1, 74, 64
3, 2760, Note_on_c, 1, 74, 127
3, 2856, Note_off_c, 1, 74, 64
3, 2880, Note_on_c, 1, 73, 127
3, 2928, Note_off_c, 1, 73, 64
3, 2940, Note_on_c, 1, 69, 127
3, 2988, Note_off_c, 1, 69, 64
3, 3000, Note_on_c, 1, 73, 127
3, 3048, Note_off_c, 1, 73, 64
3, 3060, Note_on_c, 1, 76, 127
3, 3108, Note_off_c, 1, 76, 64
3, 3120, Note_on_c, 1, 79, 127
3, 3168, Note_off_c, 1, 79, 64
3, 3180, Note_on_c, 1, 78, 127
3, 3228, Note_off_c, 1, 78, 64
3, 3240, Note_on_c, 1, 79, 127
3, 3336, Note_off_c, 1, 79, 64
3, 3420, Note_on_c, 1, 69, 127
3, 3468, Note_off_c, 1, 69, 64
3, 3480, Note_on_c, 1, 73, 127
3, 3528, Note_off_c, 1, 73, 64
3, 3540, Note_on_c, 1, 76, 127
3, 3588, Note_off_c, 1, 76, 64
3, 3600, Note_on_c, 1, 79, 127
3, 3648, Note_off_c, 1, 79, 64
3, 3660, Note_on_c, 1, 78, 127
3, 3708, Note_off_c, 1, 78, 64
3, 3720, Note_on_c, 1, 79, 127
3, 3816, Note_off_c, 1, 79, 64
3, 3900, Note_on_c, 1, 69, 127
3, 3948, Note_off_c, 1, 69, 64
3, 3960, Note_on_c, 1, 73, 127
3, 4008, Note_off_c, 1, 73, 64
3, 4020, Note_on_c, 1, 76, 127
3, 4068, Note_off_c, 1, 76, 64
3, 4080, Note_on_c, 1, 79, 127
3, 4128, Note_off_c, 1, 79, 64
3, 4140, Note_on_c, 1, 78, 127
3, 4188, Note_off_c, 1, 78, 64
3, 4200, Note_on_c, 1, 76, 127
3, 4248, Note_off_c, 1, 76, 64
3, 4260, Note_on_c, 1, 74, 127
3, 4308, Note_off_c, 1, 74, 64
3, 4320, Note_on_c, 1, 73, 127
3, 4368, Note_off_c, 1, 73, 64
3, 4380, Note_on_c, 1, 69, 127
3, 4428, Note_off_c, 1, 69, 64
3, 4440, Note_on_c, 1, 73, 127
3, 4488, Note_off_c, 1, 73, 64
3, 4500, Note_on_c, 1, 76, 127
3, 4548, Note_off_c, 1, 76, 64
3, 4560, Note_on_c, 1, 81, 127
3, 4608, Note_off_c, 1, 81, 64
3, 4620, Note_on_c, 1, 79, 127
3, 4668, Note_off_c, 1, 79, 64
3, 4680, Note_on_c, 1, 78, 127
3, 4728, Note_off_c, 1, 78, 64
3, 4740, Note_on_c, 1, 76, 127
3, 4788, Note_off_c, 1, 76, 64
3, 4800, Note_on_c, 1, 78, 127
3, 4896, Note_off_c, 1, 78, 64
3, 4920, Note_on_c, 1, 74, 127
3, 5016, Note_off_c, 1, 74, 64
3, 5100, Note_on_c, 1, 62, 127
3, 5148, Note_off_c, 1, 62, 64
3, 5160, Note_on_c, 1, 66, 127
3, 5208, Note_off_c, 1, 66, 64
3, 5220, Note_on_c, 1, 69, 127
3, 5268, Note_off_c, 1, 69, 64
3, 5280, Note_on_c, 1, 72, 127
3, 5328, Note_off_c, 1, 72, 64
3, 5340, Note_on_c, 1, 71, 127
3, 5388, Note_off_c, 1, 71, 64
3, 5400, Note_on_c, 1, 72, 127
3, 5496, Note_off_c, 1, 72, 64
3, 5580, Note_on_c, 1, 62, 127
3, 5628, Note_off_c, 1, 62, 64
3, 5640, Note_on_c, 1, 66, 127
3, 5688, Note_off_c, 1, 66, 64
3, 5700, Note_on_c, 1, 69, 127
3, 5748, Note_off_c, 1, 69, 64
3, 5760, Note_on_c, 1, 72, 127
3, 5808, Note_off_c, 1, 72, 64
3, 5820, Note_on_c, 1, 71, 127
3, 5868, Note_off_c, 1, 71, 64
3, 5880, Note_on_c, 1, 72, 127
3, 5976, Note_off_c, 1, 72, 64
3, 6600, Note_on_c, 1, 78, 127
3, 6696, Note_off_c, 1, 78, 64
3, 6720, Note_on_c, 1, 79, 127
3, 6768, Note_off_c, 1, 79, 64
3, 6780, Note_on_c, 1, 81, 127
3, 6828, Note_off_c, 1, 81, 64
3, 6840, Note_on_c, 1, 79, 127
3, 6888, Note_off_c, 1, 79, 64
3, 6900, Note_on_c, 1, 78, 127
3, 6948, Note_off_c, 1, 78, 64
3, 6960, Note_on_c, 1, 76, 127
3, 7008, Note_off_c, 1, 76, 64
3, 7020, Note_on_c, 1, 74, 127
3, 7068, Note_off_c, 1, 74, 64
3, 7080, Note_on_c, 1, 72, 127
3, 7128, Note_off_c, 1, 72, 64
3, 7140, Note_on_c, 1, 71, 127
3, 7188, Note_off_c, 1, 71, 64
3, 7200, Note_on_c, 1, 69, 127
3, 7248, Note_off_c, 1, 69, 64
3, 7260, Note_on_c, 1, 67, 127
3, 7308, Note_off_c, 1, 67, 64
3, 7320, Note_on_c, 1, 69, 127
3, 7368, Note_off_c, 1, 69, 64
3, 7380, Note_on_c, 1, 71, 127
3, 7428, Note_off_c, 1, 71, 64
3, 7440, Note_on_c, 1, 72, 127
3, 7488, Note_off_c, 1, 72, 64
3, 7500, Note_on_c, 1, 74, 127
3, 7548, Note_off_c, 1, 74, 64
3, 7560, Note_on_c, 1, 76, 127
3, 7608, Note_off_c, 1, 76, 64
3, 7620, Note_on_c, 1, 78, 127
3, 7668, Note_off_c, 1, 78, 64
3, 7680, Note_on_c, 1, 79, 127
3, 7776, Note_off_c, 1, 79, 64
3, 7800, Note_on_c, 1, 74, 127
3, 7896, Note_off_c, 1, 74, 64
3, 7920, Note_on_c, 1, 79, 127
3, 8256, Note_off_c, 1, 79, 64
3, 8280, Note_on_c, 1, 78, 127
3, 8328, Note_off_c, 1, 78, 64
3, 8340, Note_on_c, 1, 76, 127
3, 8388, Note_off_c, 1, 76, 64
3, 8400, Note_on_c, 1, 74, 127
3, 8448, Note_off_c, 1, 74, 64
3, 8460, Note_on_c, 1, 72, 127
3, 8508, Note_off_c, 1, 72, 64
3, 8520, Note_on_c, 1, 71, 127
3, 8568, Note_off_c, 1, 71, 64
3, 8580, Note_on_c, 1, 69, 127
3, 8628, Note_off_c, 1, 69, 64
3, 8640, Note_on_c, 1, 67, 127
3, 8736, Note_off_c, 1, 67, 64
3, 8760, Note_on_c, 1, 71, 127
3, 8856, Note_off_c, 1, 71, 64
3, 8880, Note_on_c, 1, 76, 127
3, 9072, Note_off_c, 1, 76, 64
3, 9120, Note_on_c, 1, 76, 127
3, 9216, Note_off_c, 1, 76, 64
3, 9240, Note_on_c, 1, 75, 127
3, 9336, Note_off_c, 1, 75, 64
3, 9480, Note_on_c, 1, 69, 127
3, 9648, Note_off_c, 1, 69, 64
3, 9660, Note_on_c, 1, 66, 127
3, 9708, Note_off_c, 1, 66, 64
3, 9720, Note_on_c, 1, 67, 127
3, 9768, Note_off_c, 1, 67, 64
3, 9780, Note_on_c, 1, 69, 127
3, 9828, Note_off_c, 1, 69, 64
3, 9840, Note_on_c, 1, 71, 127
3, 9888, Note_off_c, 1, 71, 64
3, 9900, Note_on_c, 1, 74, 127
3, 9948, Note_off_c, 1, 74, 64
3, 9960, Note_on_c, 1, 72, 127
3, 10008, Note_off_c, 1, 72, 64
3, 10020, Note_on_c, 1, 71, 127
3, 10068, Note_off_c, 1, 71, 64
3, 10080, Note_on_c, 1, 69, 127
3, 10128, Note_off_c, 1, 69, 64
3, 10140, Note_on_c, 1, 67, 127
3, 10188, Note_off_c, 1, 67, 64
3, 10200, Note_on_c, 1, 66, 127
3, 10248, Note_off_c, 1, 66, 64
3, 10260, Note_on_c, 1, 64, 127
3, 10308, Note_off_c, 1, 64, 64
3, 10320, Note_on_c, 1, 62, 127
3, 10416, Note_off_c, 1, 62, 64
3, 10440, Note_on_c, 1, 74, 127
3, 10608, Note_off_c, 1, 74, 64
3, 10620, Note_on_c, 1, 67, 127
3, 10668, Note_off_c, 1, 67, 64
3, 10680, Note_on_c, 1, 72, 127
3, 10728, Note_off_c, 1, 72, 64
3, 10740, Note_on_c, 1, 71, 127
3, 10788, Note_off_c, 1, 71, 64
3, 10800, Note_on_c, 1, 69, 127
3, 10848, Note_off_c, 1, 69, 64
3, 10860, Note_on_c, 1, 67, 127
3, 10908, Note_off_c, 1, 67, 64
3, 10920, Note_on_c, 1, 65, 127
3, 10968, Note_off_c, 1, 65, 64
3, 10980, Note_on_c, 1, 64, 127
3, 11028, Note_off_c, 1, 64, 64
3, 11040, Note_on_c, 1, 62, 127
3, 11088, Note_off_c, 1, 62, 64
3, 11100, Note_on_c, 1, 60, 127
3, 11148, Note_off_c, 1, 60, 64
3, 11160, Note_on_c, 1, 62, 127
3, 11208, Note_off_c, 1, 62, 64
3, 11220, Note_on_c, 1, 64, 127
3, 11268, Note_off_c, 1, 64, 64
3, 11280, Note_on_c, 1, 66, 127
3, 11328, Note_off_c, 1, 66, 64
3, 11340, Note_on_c, 1, 67, 127
3, 11388, Note_off_c, 1, 67, 64
3, 11400, Note_on_c, 1, 69, 127
3, 11448, Note_off_c, 1, 69, 64
3, 11460, Note_on_c, 1, 71, 127
3, 11508, Note_off_c, 1, 71, 64
3, 11520, Note_on_c, 1, 72, 127
3, 11616, Note_off_c, 1, 72, 64
3, 11640, Note_on_c, 1, 67, 127
3, 11736, Note_off_c, 1, 67, 64
3, 11760, Note_on_c, 1, 72, 127
3, 12048, Note_off_c, 1, 72, 64
3, 12060, Note_on_c, 1, 71, 127
3, 12108, Note_off_c, 1, 71, 64
3, 12120, Note_on_c, 1, 69, 127
3, 12168, Note_off_c, 1, 69, 64
3, 12180, Note_on_c, 1, 71, 127
3, 12228, Note_off_c, 1, 71, 64
3, 12240, Note_on_c, 1, 72, 127
3, 12288, Note_off_c, 1, 72, 64
3, 12300, Note_on_c, 1, 76, 127
3, 12348, Note_off_c, 1, 76, 64
3, 12360, Note_on_c, 1, 74, 127
3, 12408, Note_off_c, 1, 74, 64
3, 12420, Note_on_c, 1, 72, 127
3, 12468, Note_off_c, 1, 72, 64
3, 12480, Note_on_c, 1, 71, 127
3, 12528, Note_off_c, 1, 71, 64
3, 12540, Note_on_c, 1, 67, 127
3, 12588, Note_off_c, 1, 67, 64
3, 12600, Note_on_c, 1, 69, 127
3, 12648, Note_off_c, 1, 69, 64
3, 12660, Note_on_c, 1, 71, 127
3, 12708, Note_off_c, 1, 71, 64
3, 12720, Note_on_c, 1, 72, 127
3, 12768, Note_off_c, 1, 72, 64
3, 12780, Note_on_c, 1, 74, 127
3, 12828, Note_off_c, 1, 74, 64
3, 12840, Note_on_c, 1, 76, 127
3, 12888, Note_off_c, 1, 76, 64
3, 12900, Note_on_c, 1, 78, 127
3, 12948, Note_off_c, 1, 78, 64
3, 12960, Note_on_c, 1, 79, 127
3, 13056, Note_off_c, 1, 79, 64
3, 13440, Note_on_c, 1, 67, 127
3, 13728, Note_off_c, 1, 67, 64
3, 13740, Note_on_c, 1, 66, 127
3, 13788, Note_off_c, 1, 66, 64
3, 13800, Note_on_c, 1, 64, 127
3, 13848, Note_off_c, 1, 64, 64
3, 13860, Note_on_c, 1, 69, 127
3, 13908, Note_off_c, 1, 69, 64
3, 13920, Note_on_c, 1, 62, 127
3, 14016, Note_off_c, 1, 62, 64
3, 14040, Note_on_c, 1, 69, 127
3, 14064, Note_off_c, 1, 69, 64
3, 14070, Note_on_c, 1, 71, 127
3, 14094, Note_off_c, 1, 71, 64
3, 14100, Note_on_c, 1, 72, 127
3, 14148, Note_off_c, 1, 72, 64
3, 14160, Note_on_c, 1, 71, 127
3, 14250, Note_off_c, 1, 71, 64
3, 14280, Note_on_c, 1, 69, 127
3, 14370, Note_off_c, 1, 69, 64
3, 14400, Note_on_c, 1, 71, 127
3, 14448, Note_off_c, 1, 71, 64
3, 14460, Note_on_c, 1, 67, 127
3, 14508, Note_off_c, 1, 67, 64
3, 14520, Note_on_c, 1, 71, 127
3, 14568, Note_off_c, 1, 71, 64
3, 14580, Note_on_c, 1, 74, 127
3, 14628, Note_off_c, 1, 74, 64
3, 14640, Note_on_c, 1, 72, 127
3, 14928, Note_off_c, 1, 72, 64
3, 14940, Note_on_c, 1, 69, 127
3, 14988, Note_off_c, 1, 69, 64
3, 15000, Note_on_c, 1, 72, 127
3, 15048, Note_off_c, 1, 72, 64
3, 15060, Note_on_c, 1, 76, 127
3, 15108, Note_off_c, 1, 76, 64
3, 15120, Note_on_c, 1, 74, 127
3, 15312, Note_off_c, 1, 74, 64
3, 15360, Note_on_c, 1, 74, 127
3, 15408, Note_off_c, 1, 74, 64
3, 15420, Note_on_c, 1, 71, 127
3, 15468, Note_off_c, 1, 71, 64
3, 15480, Note_on_c, 1, 74, 127
3, 15528, Note_off_c, 1, 74, 64
3, 15540, Note_on_c, 1, 77, 127
3, 15588, Note_off_c, 1, 77, 64
3, 15600, Note_on_c, 1, 76, 127
3, 15648, Note_off_c, 1, 76, 64
3, 15660, Note_on_c, 1, 74, 127
3, 15708, Note_off_c, 1, 74, 64
3, 15720, Note_on_c, 1, 72, 127
3, 15768, Note_off_c, 1, 72, 64
3, 15780, Note_on_c, 1, 71, 127
3, 15828, Note_off_c, 1, 71, 64
3, 15840, Note_on_c, 1, 69, 127
3, 15888, Note_off_c, 1, 69, 64
3, 15900, Note_on_c, 1, 66, 127
3, 15948, Note_off_c, 1, 66, 64
3, 15960, Note_on_c, 1, 69, 127
3, 16008, Note_off_c, 1, 69, 64
3, 16020, Note_on_c, 1, 72, 127
3, 16068, Note_off_c, 1, 72, 64
3, 16080, Note_on_c, 1, 71, 127
3, 16128, Note_off_c, 1, 71, 64
3, 16140, Note_on_c, 1, 69, 127
3, 16188, Note_off_c, 1, 69, 64
3, 16200, Note_on_c, 1, 67, 127
3, 16248, Note_off_c, 1, 67, 64
3, 16260, Note_on_c, 1, 66, 127
3, 16308, Note_off_c, 1, 66, 64
3, 16320, Note_on_c, 1, 67, 127
3, 16416, Note_off_c, 1, 67, 64
3, 16440, Note_on_c, 1, 59, 127
3, 16536, Note_off_c, 1, 59, 64
3, 16560, Note_on_c, 1, 57, 127
3, 16656, Note_off_c, 1, 57, 64
3, 16680, Note_on_c, 1, 66, 127
3, 16776, Note_off_c, 1, 66, 64
3, 16800, Note_on_c, 1, 67, 127
3, 16992, Note_off_c, 1, 67, 64
3, 17160, Note_on_c, 1, 71, 127
3, 17256, Note_off_c, 1, 71, 64
3, 17280, Note_on_c, 1, 72, 127
3, 17304, Note_off_c, 1, 72, 64
3, 17310, Note_on_c, 1, 71, 127
3, 17334, Note_off_c, 1, 71, 64
3, 17340, Note_on_c, 1, 69, 127
3, 17388, Note_off_c, 1, 69, 64
3, 17400, Note_on_c, 1, 71, 127
3, 17490, Note_off_c, 1, 71, 64
3, 17520, Note_on_c, 1, 64, 127
3, 17616, Note_off_c, 1, 64, 64
3, 17640, Note_on_c, 1, 66, 127
3, 17664, Note_off_c, 1, 66, 64
3, 17670, Note_on_c, 1, 64, 127
3, 17694, Note_off_c, 1, 64, 64
3, 17700, Note_on_c, 1, 66, 127
3, 17748, Note_off_c, 1, 66, 64
3, 17760, Note_on_c, 1, 67, 127
3, 17856, Note_off_c, 1, 67, 64
3, 17880, Note_on_c, 1, 66, 127
3, 17928, Note_off_c, 1, 66, 64
3, 17940, Note_on_c, 1, 67, 127
3, 17988, Note_off_c, 1, 67, 64
3, 18000, Note_on_c, 1, 64, 127
3, 18048, Note_off_c, 1, 64, 64
3, 18060, Note_on_c, 1, 59, 127
3, 18108, Note_off_c, 1, 59, 64
3, 18120, Note_on_c, 1, 66, 127
3, 18168, Note_off_c, 1, 66, 64
3, 18180, Note_on_c, 1, 59, 127
3, 18228, Note_off_c, 1, 59, 64
3, 18240, Note_on_c, 1, 67, 127
3, 18288, Note_off_c, 1, 67, 64
3, 18300, Note_on_c, 1, 59, 127
3, 18348, Note_off_c, 1, 59, 64
3, 18360, Note_on_c, 1, 66, 127
3, 18408, Note_off_c, 1, 66, 64
3, 18420, Note_on_c, 1, 59, 127
3, 18468, Note_off_c, 1, 59, 64
3, 18480, Note_on_c, 1, 67, 127
3, 18528, Note_off_c, 1, 67, 64
3, 18540, Note_on_c, 1, 64, 127
3, 18588, Note_off_c, 1, 64, 64
3, 18600, Note_on_c, 1, 69, 127
3, 18690, Note_off_c, 1, 69, 64
3, 18720, Note_on_c, 1, 67, 127
3, 18744, Note_off_c, 1, 67, 64
3, 18750, Note_on_c, 1, 66, 127
3, 18774, Note_off_c, 1, 66, 64
3, 18780, Note_on_c, 1, 67, 127
3, 18804, Note_off_c, 1, 67, 64
3, 18810, Note_on_c, 1, 66, 127
3, 18834, Note_off_c, 1, 66, 64
3, 18840, Note_on_c, 1, 64, 127
3, 18888, Note_off_c, 1, 64, 64
3, 18900, Note_on_c, 1, 66, 127
3, 18948, Note_off_c, 1, 66, 64
3, 18960, Note_on_c, 1, 62, 127
3, 19008, Note_off_c, 1, 62, 64
3, 19020, Note_on_c, 1, 57, 127
3, 19068, Note_off_c, 1, 57, 64
3, 19080, Note_on_c, 1, 64, 127
3, 19128, Note_off_c, 1, 64, 64
3, 19140, Note_on_c, 1, 57, 127
3, 19188, Note_off_c, 1, 57, 64
3, 19200, Note_on_c, 1, 66, 127
3, 19248, Note_off_c, 1, 66, 64
3, 19260, Note_on_c, 1, 57, 127
3, 19308, Note_off_c, 1, 57, 64
3, 19320, Note_on_c, 1, 64, 127
3, 19368, Note_off_c, 1, 64, 64
3, 19380, Note_on_c, 1, 57, 127
3, 19428, Note_off_c, 1, 57, 64
3, 19440, Note_on_c, 1, 66, 127
3, 19488, Note_off_c, 1, 66, 64
3, 19500, Note_on_c, 1, 62, 127
3, 19548, Note_off_c, 1, 62, 64
3, 19560, Note_on_c, 1, 67, 127
3, 19650, Note_off_c, 1, 67, 64
3, 19680, Note_on_c, 1, 66, 127
3, 19725, Note_off_c, 1, 66, 64
3, 19740, Note_on_c, 1, 64, 127
3, 19788, Note_off_c, 1, 64, 64
3, 19800, Note_on_c, 1, 63, 127
3, 19848, Note_off_c, 1, 63, 64
3, 19860, Note_on_c, 1, 64, 127
3, 19908, Note_off_c, 1, 64, 64
3, 19920, Note_on_c, 1, 68, 127
3, 19965, Note_off_c, 1, 68, 64
3, 19980, Note_on_c, 1, 64, 127
3, 20028, Note_off_c, 1, 64, 64
3, 20040, Note_on_c, 1, 63, 127
3, 20088, Note_off_c, 1, 63, 64
3, 20100, Note_on_c, 1, 64, 127
3, 20148, Note_off_c, 1, 64, 64
3, 20160, Note_on_c, 1, 69, 127
3, 20205, Note_off_c, 1, 69, 64
3, 20220, Note_on_c, 1, 64, 127
3, 20268, Note_off_c, 1, 64, 64
3, 20280, Note_on_c, 1, 63, 127
3, 20328, Note_off_c, 1, 63, 64
3, 20340, Note_on_c, 1, 64, 127
3, 20388, Note_off_c, 1, 64, 64
3, 20400, Note_on_c, 1, 70, 127
3, 20445, Note_off_c, 1, 70, 64
3, 20460, Note_on_c, 1, 64, 127
3, 20508, Note_off_c, 1, 64, 64
3, 20520, Note_on_c, 1, 63, 127
3, 20568, Note_off_c, 1, 63, 64
3, 20580, Note_on_c, 1, 64, 127
3, 20628, Note_off_c, 1, 64, 64
3, 20640, Note_on_c, 1, 71, 127
3, 21216, Note_off_c, 1, 71, 64
3, 21240, Note_on_c, 1, 70, 127
3, 21336, Note_off_c, 1, 70, 64
3, 21720, Note_on_c, 1, 70, 127
3, 21816, Note_off_c, 1, 70, 64
3, 21840, Note_on_c, 1, 71, 127
3, 21936, Note_off_c, 1, 71, 64
3, 21960, Note_on_c, 1, 70, 127
3, 22056, Note_off_c, 1, 70, 64
3, 22080, Note_on_c, 1, 71, 127
3, 22176, Note_off_c, 1, 71, 64
3, 22200, Note_on_c, 1, 66, 127
3, 22296, Note_off_c, 1, 66, 64
3, 22680, Note_on_c, 1, 68, 127
3, 22776, Note_off_c, 1, 68, 64
3, 22800, Note_on_c, 1, 69, 127
3, 22896, Note_off_c, 1, 69, 64
3, 22920, Note_on_c, 1, 68, 127
3, 23016, Note_off_c, 1, 68, 64
3, 23040, Note_on_c, 1, 69, 127
3, 23136, Note_off_c, 1, 69, 64
3, 23160, Note_on_c, 1, 64, 127
3, 23256, Note_off_c, 1, 64, 64
3, 24540, Note_on_c, 1, 73, 127
3, 24588, Note_off_c, 1, 73, 64
3, 24600, Note_on_c, 1, 74, 127
3, 24648, Note_off_c, 1, 74, 64
3, 24660, Note_on_c, 1, 76, 127
3, 24708, Note_off_c, 1, 76, 64
3, 24720, Note_on_c, 1, 66, 127
3, 24765, Note_off_c, 1, 66, 64
3, 24780, Note_on_c, 1, 76, 127
3, 24828, Note_off_c, 1, 76, 64
3, 24840, Note_on_c, 1, 74, 127
3, 24888, Note_off_c, 1, 74, 64
3, 24900, Note_on_c, 1, 73, 127
3, 24948, Note_off_c, 1, 73, 64
3, 24960, Note_on_c, 1, 74, 127
3, 25005, Note_off_c, 1, 74, 64
3, 25020, Note_on_c, 1, 71, 127
3, 25068, Note_off_c, 1, 71, 64
3, 25080, Note_on_c, 1, 73, 127
3, 25128, Note_off_c, 1, 73, 64
3, 25140, Note_on_c, 1, 74, 127
3, 25188, Note_off_c, 1, 74, 64
3, 25200, Note_on_c, 1, 70, 127
3, 25245, Note_off_c, 1, 70, 64
3, 25260, Note_on_c, 1, 73, 127
3, 25308, Note_off_c, 1, 73, 64
3, 25320, Note_on_c, 1, 71, 127
3, 25368, Note_off_c, 1, 71, 64
3, 25380, Note_on_c, 1, 70, 127
3, 25428, Note_off_c, 1, 70, 64
3, 25440, Note_on_c, 1, 71, 127
3, 26448, Note_off_c, 1, 71, 64
3, 26460, Note_on_c, 1, 71, 127
3, 26508, Note_off_c, 1, 71, 64
3, 26520, Note_on_c, 1, 72, 127
3, 26568, Note_off_c, 1, 72, 64
3, 26580, Note_on_c, 1, 74, 127
3, 26628, Note_off_c, 1, 74, 64
3, 26640, Note_on_c, 1, 64, 127
3, 26685, Note_off_c, 1, 64, 64
3, 26700, Note_on_c, 1, 74, 127
3, 26748, Note_off_c, 1, 74, 64
3, 26760, Note_on_c, 1, 72, 127
3, 26808, Note_off_c, 1, 72, 64
3, 26820, Note_on_c, 1, 71, 127
3, 26868, Note_off_c, 1, 71, 64
3, 26880, Note_on_c, 1, 72, 127
3, 26925, Note_off_c, 1, 72, 64
3, 26940, Note_on_c, 1, 69, 127
3, 26988, Note_off_c, 1, 69, 64
3, 27000, Note_on_c, 1, 71, 127
3, 27048, Note_off_c, 1, 71, 64
3, 27060, Note_on_c, 1, 72, 127
3, 27108, Note_off_c, 1, 72, 64
3, 27120, Note_on_c, 1, 68, 127
3, 27165, Note_off_c, 1, 68, 64
3, 27180, Note_on_c, 1, 71, 127
3, 27228, Note_off_c, 1, 71, 64
3, 27240, Note_on_c, 1, 69, 127
3, 27288, Note_off_c, 1, 69, 64
3, 27300, Note_on_c, 1, 68, 127
3, 27348, Note_off_c, 1, 68, 64
3, 27360, Note_on_c, 1, 69, 127
3, 28368, Note_off_c, 1, 69, 64
3, 28380, Note_on_c, 1, 69, 127
3, 28428, Note_off_c, 1, 69, 64
3, 28440, Note_on_c, 1, 71, 127
3, 28488, Note_off_c, 1, 71, 64
3, 28500, Note_on_c, 1, 72, 127
3, 28548, Note_off_c, 1, 72, 64
3, 28560, Note_on_c, 1, 62, 127
3, 28605, Note_off_c, 1, 62, 64
3, 28620, Note_on_c, 1, 72, 127
3, 28668, Note_off_c, 1, 72, 64
3, 28680, Note_on_c, 1, 71, 127
3, 28728, Note_off_c, 1, 71, 64
3, 28740, Note_on_c, 1, 69, 127
3, 28788, Note_off_c, 1, 69, 64
3, 28800, Note_on_c, 1, 71, 127
3, 28845, Note_off_c, 1, 71, 64
3, 28860, Note_on_c, 1, 67, 127
3, 28908, Note_off_c, 1, 67, 64
3, 28920, Note_on_c, 1, 69, 127
3, 28968, Note_off_c, 1, 69, 64
3, 28980, Note_on_c, 1, 71, 127
3, 29028, Note_off_c, 1, 71, 64
3, 29040, Note_on_c, 1, 66, 127
3, 29085, Note_off_c, 1, 66, 64
3, 29100, Note_on_c, 1, 69, 127
3, 29148, Note_off_c, 1, 69, 64
3, 29160, Note_on_c, 1, 67, 127
3, 29208, Note_off_c, 1, 67, 64
3, 29220, Note_on_c, 1, 66, 127
3, 29268, Note_off_c, 1, 66, 64
3, 29280, Note_on_c, 1, 67, 127
3, 29568, Note_off_c, 1, 67, 64
3, 29580, Note_on_c, 1, 66, 127
3, 29628, Note_off_c, 1, 66, 64
3, 29640, Note_on_c, 1, 64, 127
3, 29688, Note_off_c, 1, 64, 64
3, 29700, Note_on_c, 1, 69, 127
3, 29748, Note_off_c, 1, 69, 64
3, 29760, Note_on_c, 1, 62, 127
3, 29856, Note_off_c, 1, 62, 64
3, 29880, Note_on_c, 1, 69, 127
3, 29904, Note_off_c, 1, 69, 64
3, 29910, Note_on_c, 1, 71, 127
3, 29934, Note_off_c, 1, 71, 64
3, 29940, Note_on_c, 1, 72, 127
3, 29988, Note_off_c, 1, 72, 64
3, 30000, Note_on_c, 1, 71, 127
3, 30090, Note_off_c, 1, 71, 64
3, 30120, Note_on_c, 1, 69, 127
3, 30210, Note_off_c, 1, 69, 64
3, 30240, Note_on_c, 1, 67, 127
3, 30330, Note_off_c, 1, 67, 64
3, 30720, Note_on_c, 1, 74, 127
3, 31008, Note_off_c, 1, 74, 64
3, 31020, Note_on_c, 1, 73, 127
3, 31068, Note_off_c, 1, 73, 64
3, 31080, Note_on_c, 1, 71, 127
3, 31128, Note_off_c, 1, 71, 64
3, 31140, Note_on_c, 1, 76, 127
3, 31188, Note_off_c, 1, 76, 64
3, 31200, Note_on_c, 1, 69, 127
3, 31290, Note_off_c, 1, 69, 64
3, 31320, Note_on_c, 1, 76, 127
3, 31344, Note_off_c, 1, 76, 64
3, 31350, Note_on_c, 1, 78, 127
3, 31374, Note_off_c, 1, 78, 64
3, 31380, Note_on_c, 1, 79, 127
3, 31428, Note_off_c, 1, 79, 64
3, 31440, Note_on_c, 1, 78, 127
3, 31530, Note_off_c, 1, 78, 64
3, 31560, Note_on_c, 1, 78, 127
3, 31584, Note_off_c, 1, 78, 64
3, 31590, Note_on_c, 1, 76, 127
3, 31614, Note_off_c, 1, 76, 64
3, 31620, Note_on_c, 1, 78, 127
3, 31644, Note_off_c, 1, 78, 64
3, 31650, Note_on_c, 1, 76, 127
3, 31679, Note_off_c, 1, 76, 64
3, 31680, Note_on_c, 1, 74, 127
3, 31776, Note_off_c, 1, 74, 64
3, 32520, Note_on_c, 1, 74, 127
3, 32688, Note_off_c, 1, 74, 64
3, 32700, Note_on_c, 1, 71, 127
3, 32748, Note_off_c, 1, 71, 64
3, 32760, Note_on_c, 1, 73, 127
3, 32808, Note_off_c, 1, 73, 64
3, 32820, Note_on_c, 1, 76, 127
3, 32868, Note_off_c, 1, 76, 64
3, 32880, Note_on_c, 1, 74, 127
3, 32976, Note_off_c, 1, 74, 64
3, 33000, Note_on_c, 1, 73, 127
3, 33096, Note_off_c, 1, 73, 64
3, 33120, Note_on_c, 1, 71, 127
3, 33216, Note_off_c, 1, 71, 64
3, 33240, Note_on_c, 1, 64, 127
3, 33336, Note_off_c, 1, 64, 64
3, 33480, Note_on_c, 1, 76, 127
3, 33648, Note_off_c, 1, 76, 64
3, 33660, Note_on_c, 1, 73, 127
3, 33708, Note_off_c, 1, 73, 64
3, 33720, Note_on_c, 1, 74, 127
3, 33768, Note_off_c, 1, 74, 64
3, 33780, Note_on_c, 1, 78, 127
3, 33828, Note_off_c, 1, 78, 64
3, 33840, Note_on_c, 1, 76, 127
3, 33936, Note_off_c, 1, 76, 64
3, 33960, Note_on_c, 1, 74, 127
3, 34056, Note_off_c, 1, 74, 64
3, 34080, Note_on_c, 1, 73, 127
3, 34176, Note_off_c, 1, 73, 64
3, 34200, Note_on_c, 1, 66, 127
3, 34296, Note_off_c, 1, 66, 64
3, 34440, Note_on_c, 1, 66, 127
3, 34656, Note_off_c, 1, 66, 64
3, 34680, Note_on_c, 1, 64, 127
3, 34776, Note_off_c, 1, 64, 64
3, 34920, Note_on_c, 1, 76, 127
3, 35097, Note_off_c, 1, 76, 64
3, 35100, Note_on_c, 1, 73, 127
3, 35157, Note_off_c, 1, 73, 64
3, 35160, Note_on_c, 1, 74, 127
3, 35217, Note_off_c, 1, 74, 64
3, 35220, Note_on_c, 1, 71, 127
3, 35277, Note_off_c, 1, 71, 64
3, 35280, Note_on_c, 1, 68, 127
3, 35337, Note_off_c, 1, 68, 64
3, 35340, Note_on_c, 1, 66, 127
3, 35397, Note_off_c, 1, 66, 64
3, 35400, Note_on_c, 1, 68, 127
3, 35457, Note_off_c, 1, 68, 64
3, 35460, Note_on_c, 1, 71, 127
3, 35517, Note_off_c, 1, 71, 64
3, 35520, Note_on_c, 1, 74, 127
3, 35568, Note_off_c, 1, 74, 64
3, 35580, Note_on_c, 1, 71, 127
3, 35628, Note_off_c, 1, 71, 64
3, 35640, Note_on_c, 1, 72, 127
3, 35688, Note_off_c, 1, 72, 64
3, 35700, Note_on_c, 1, 69, 127
3, 35748, Note_off_c, 1, 69, 64
3, 35760, Note_on_c, 1, 66, 127
3, 35808, Note_off_c, 1, 66, 64
3, 35820, Note_on_c, 1, 64, 127
3, 35868, Note_off_c, 1, 64, 64
3, 35880, Note_on_c, 1, 66, 127
3, 35928, Note_off_c, 1, 66, 64
3, 35940, Note_on_c, 1, 69, 127
3, 35988, Note_off_c, 1, 69, 64
3, 36000, Note_on_c, 1, 72, 127
3, 36096, Note_off_c, 1, 72, 64
3, 36120, Note_on_c, 1, 71, 127
3, 36216, Note_off_c, 1, 71, 64
3, 36360, Note_on_c, 1, 64, 127
3, 36576, Note_off_c, 1, 64, 64
3, 36600, Note_on_c, 1, 62, 127
3, 36696, Note_off_c, 1, 62, 64
3, 36840, Note_on_c, 1, 74, 127
3, 37008, Note_off_c, 1, 74, 64
3, 37020, Note_on_c, 1, 71, 127
3, 37068, Note_off_c, 1, 71, 64
3, 37080, Note_on_c, 1, 72, 127
3, 37128, Note_off_c, 1, 72, 64
3, 37140, Note_on_c, 1, 69, 127
3, 37188, Note_off_c, 1, 69, 64
3, 37200, Note_on_c, 1, 66, 127
3, 37248, Note_off_c, 1, 66, 64
3, 37260, Note_on_c, 1, 64, 127
3, 37308, Note_off_c, 1, 64, 64
3, 37320, Note_on_c, 1, 66, 127
3, 37368, Note_off_c, 1, 66, 64
3, 37380, Note_on_c, 1, 69, 127
3, 37428, Note_off_c, 1, 69, 64
3, 37440, Note_on_c, 1, 72, 127
3, 37488, Note_off_c, 1, 72, 64
3, 37500, Note_on_c, 1, 69, 127
3, 37548, Note_off_c, 1, 69, 64
3, 37560, Note_on_c, 1, 71, 127
3, 37608, Note_off_c, 1, 71, 64
3, 37620, Note_on_c, 1, 67, 127
3, 37668, Note_off_c, 1, 67, 64
3, 37680, Note_on_c, 1, 64, 127
3, 37728, Note_off_c, 1, 64, 64
3, 37740, Note_on_c, 1, 62, 127
3, 37788, Note_off_c, 1, 62, 64
3, 37800, Note_on_c, 1, 64, 127
3, 37848, Note_off_c, 1, 64, 64
3, 37860, Note_on_c, 1, 67, 127
3, 37908, Note_off_c, 1, 67, 64
3, 37920, Note_on_c, 1, 70, 127
3, 38016, Note_off_c, 1, 70, 64
3, 38040, Note_on_c, 1, 69, 127
3, 38136, Note_off_c, 1, 69, 64
3, 38280, Note_on_c, 1, 66, 127
3, 38496, Note_off_c, 1, 66, 64
3, 38520, Note_on_c, 1, 64, 127
3, 38616, Note_off_c, 1, 64, 64
3, 38760, Note_on_c, 1, 68, 127
3, 38928, Note_off_c, 1, 68, 64
3, 38940, Note_on_c, 1, 65, 127
3, 38988, Note_off_c, 1, 65, 64
3, 39000, Note_on_c, 1, 66, 127
3, 39048, Note_off_c, 1, 66, 64
3, 39060, Note_on_c, 1, 61, 127
3, 39108, Note_off_c, 1, 61, 64
3, 39120, Note_on_c, 1, 58, 127
3, 39168, Note_off_c, 1, 58, 64
3, 39180, Note_on_c, 1, 56, 127
3, 39228, Note_off_c, 1, 56, 64
3, 39240, Note_on_c, 1, 58, 127
3, 39288, Note_off_c, 1, 58, 64
3, 39300, Note_on_c, 1, 61, 127
3, 39348, Note_off_c, 1, 61, 64
3, 39360, Note_on_c, 1, 64, 127
3, 39408, Note_off_c, 1, 64, 64
3, 39420, Note_on_c, 1, 61, 127
3, 39468, Note_off_c, 1, 61, 64
3, 39480, Note_on_c, 1, 62, 127
3, 39528, Note_off_c, 1, 62, 64
3, 39540, Note_on_c, 1, 59, 127
3, 39588, Note_off_c, 1, 59, 64
3, 39600, Note_on_c, 1, 56, 127
3, 39648, Note_off_c, 1, 56, 64
3, 39660, Note_on_c, 1, 54, 127
3, 39708, Note_off_c, 1, 54, 64
3, 39720, Note_on_c, 1, 56, 127
3, 39768, Note_off_c, 1, 56, 64
3, 39780, Note_on_c, 1, 58, 127
3, 39828, Note_off_c, 1, 58, 64
3, 39840, Note_on_c, 1, 59, 127
3, 39936, Note_off_c, 1, 59, 64
3, 39960, Note_on_c, 1, 70, 127
3, 40056, Note_off_c, 1, 70, 64
3, 40080, Note_on_c, 1, 71, 127
3, 40176, Note_off_c, 1, 71, 64
3, 40200, Note_on_c, 1, 70, 127
3, 40296, Note_off_c, 1, 70, 64
3, 40320, Note_on_c, 1, 71, 127
3, 40416, Note_off_c, 1, 71, 64
3, 40440, Note_on_c, 1, 66, 127
3, 40536, Note_off_c, 1, 66, 64
3, 40920, Note_on_c, 1, 68, 127
3, 41016, Note_off_c, 1, 68, 64
3, 41040, Note_on_c, 1, 69, 127
3, 41136, Note_off_c, 1, 69, 64
3, 41160, Note_on_c, 1, 68, 127
3, 41256, Note_off_c, 1, 68, 64
3, 41280, Note_on_c, 1, 69, 127
3, 41376, Note_off_c, 1, 69, 64
3, 41400, Note_on_c, 1, 64, 127
3, 41496, Note_off_c, 1, 64, 64
3, 41880, Note_on_c, 1, 64, 127
3, 41976, Note_off_c, 1, 64, 64
3, 42000, Note_on_c, 1, 66, 127
3, 42096, Note_off_c, 1, 66, 64
3, 42120, Note_on_c, 1, 63, 127
3, 42216, Note_off_c, 1, 63, 64
3, 42240, Note_on_c, 1, 67, 127
3, 42336, Note_off_c, 1, 67, 64
3, 42360, Note_on_c, 1, 64, 127
3, 42456, Note_off_c, 1, 64, 64
3, 42480, Note_on_c, 1, 69, 127
3, 42576, Note_off_c, 1, 69, 64
3, 42600, Note_on_c, 1, 66, 127
3, 42696, Note_off_c, 1, 66, 64
3, 42720, Note_on_c, 1, 71, 127
3, 42768, Note_off_c, 1, 71, 64
3, 42780, Note_on_c, 1, 69, 127
3, 42828, Note_off_c, 1, 69, 64
3, 42840, Note_on_c, 1, 71, 127
3, 42888, Note_off_c, 1, 71, 64
3, 42900, Note_on_c, 1, 67, 127
3, 42945, Note_off_c, 1, 67, 64
3, 42960, Note_on_c, 1, 64, 127
3, 43008, Note_off_c, 1, 64, 64
3, 43020, Note_on_c, 1, 63, 127
3, 43068, Note_off_c, 1, 63, 64
3, 43080, Note_on_c, 1, 64, 127
3, 43128, Note_off_c, 1, 64, 64
3, 43140, Note_on_c, 1, 71, 127
3, 43185, Note_off_c, 1, 71, 64
3, 43200, Note_on_c, 1, 72, 127
3, 43224, Note_off_c, 1, 72, 64
3, 43230, Note_on_c, 1, 71, 127
3, 43254, Note_off_c, 1, 71, 64
3, 43260, Note_on_c, 1, 69, 127
3, 43308, Note_off_c, 1, 69, 64
3, 43320, Note_on_c, 1, 71, 127
3, 43410, Note_off_c, 1, 71, 64
3, 43440, Note_on_c, 1, 64, 127
3, 43536, Note_off_c, 1, 64, 64
3, 43560, Note_on_c, 1, 66, 127
3, 43656, Note_off_c, 1, 66, 64
3, 43680, Note_on_c, 1, 69, 127
3, 43704, Note_off_c, 1, 69, 64
3, 43710, Note_on_c, 1, 67, 127
3, 43734, Note_off_c, 1, 67, 64
3, 43740, Note_on_c, 1, 69, 127
3, 43764, Note_off_c, 1, 69, 64
3, 43770, Note_on_c, 1, 67, 127
3, 43799, Note_off_c, 1, 67, 64
3, 43800, Note_on_c, 1, 66, 127
3, 43848, Note_off_c, 1, 66, 64
3, 43860, Note_on_c, 1, 67, 127
3, 43908, Note_off_c, 1, 67, 64
3, 43920, Note_on_c, 1, 64, 127
3, 43968, Note_off_c, 1, 64, 64
3, 43980, Note_on_c, 1, 59, 127
3, 44028, Note_off_c, 1, 59, 64
3, 44040, Note_on_c, 1, 66, 127
3, 44088, Note_off_c, 1, 66, 64
3, 44100, Note_on_c, 1, 59, 127
3, 44148, Note_off_c, 1, 59, 64
3, 44160, Note_on_c, 1, 67, 127
3, 44208, Note_off_c, 1, 67, 64
3, 44220, Note_on_c, 1, 59, 127
3, 44268, Note_off_c, 1, 59, 64
3, 44280, Note_on_c, 1, 66, 127
3, 44328, Note_off_c, 1, 66, 64
3, 44340, Note_on_c, 1, 59, 127
3, 44388, Note_off_c, 1, 59, 64
3, 44400, Note_on_c, 1, 67, 127
3, 44448, Note_off_c, 1, 67, 64
3, 44460, Note_on_c, 1, 64, 127
3, 44508, Note_off_c, 1, 64, 64
3, 44520, Note_on_c, 1, 69, 127
3, 44610, Note_off_c, 1, 69, 64
3, 44640, Note_on_c, 1, 67, 127
3, 44664, Note_off_c, 1, 67, 64
3, 44670, Note_on_c, 1, 66, 127
3, 44694, Note_off_c, 1, 66, 64
3, 44700, Note_on_c, 1, 67, 127
3, 44724, Note_off_c, 1, 67, 64
3, 44730, Note_on_c, 1, 66, 127
3, 44759, Note_off_c, 1, 66, 64
3, 44760, Note_on_c, 1, 64, 127
3, 44808, Note_off_c, 1, 64, 64
3, 44820, Note_on_c, 1, 66, 127
3, 44868, Note_off_c, 1, 66, 64
3, 44880, Note_on_c, 1, 62, 127
3, 44928, Note_off_c, 1, 62, 64
3, 44940, Note_on_c, 1, 57, 127
3, 44988, Note_off_c, 1, 57, 64
3, 45000, Note_on_c, 1, 64, 127
3, 45048, Note_off_c, 1, 64, 64
3, 45060, Note_on_c, 1, 57, 127
3, 45108, Note_off_c, 1, 57, 64
3, 45120, Note_on_c, 1, 66, 127
3, 45168, Note_off_c, 1, 66, 64
3, 45180, Note_on_c, 1, 57, 127
3, 45228, Note_off_c, 1, 57, 64
3, 45240, Note_on_c, 1, 64, 127
3, 45288, Note_off_c, 1, 64, 64
3, 45300, Note_on_c, 1, 57, 127
3, 45348, Note_off_c, 1, 57, 64
3, 45360, Note_on_c, 1, 66, 127
3, 45408, Note_off_c, 1, 66, 64
3, 45420, Note_on_c, 1, 62, 127
3, 45468, Note_off_c, 1, 62, 64
3, 45480, Note_on_c, 1, 67, 127
3, 45570, Note_off_c, 1, 67, 64
3, 45600, Note_on_c, 1, 65, 127
3, 45645, Note_off_c, 1, 65, 64
3, 45660, Note_on_c, 1, 64, 127
3, 45708, Note_off_c, 1, 64, 64
3, 45720, Note_on_c, 1, 63, 127
3, 45768, Note_off_c, 1, 63, 64
3, 45780, Note_on_c, 1, 64, 127
3, 45828, Note_off_c, 1, 64, 64
3, 45840, Note_on_c, 1, 68, 127
3, 45885, Note_off_c, 1, 68, 64
3, 45900, Note_on_c, 1, 64, 127
3, 45948, Note_off_c, 1, 64, 64
3, 45960, Note_on_c, 1, 63, 127
3, 46008, Note_off_c, 1, 63, 64
3, 46020, Note_on_c, 1, 64, 127
3, 46068, Note_off_c, 1, 64, 64
3, 46080, Note_on_c, 1, 69, 127
3, 46125, Note_off_c, 1, 69, 64
3, 46140, Note_on_c, 1, 64, 127
3, 46188, Note_off_c, 1, 64, 64
3, 46200, Note_on_c, 1, 63, 127
3, 46248, Note_off_c, 1, 63, 64
3, 46260, Note_on_c, 1, 64, 127
3, 46308, Note_off_c, 1, 64, 64
3, 46320, Note_on_c, 1, 71, 127
3, 46365, Note_off_c, 1, 71, 64
3, 46380, Note_on_c, 1, 64, 127
3, 46428, Note_off_c, 1, 64, 64
3, 46440, Note_on_c, 1, 63, 127
3, 46488, Note_off_c, 1, 63, 64
3, 46500, Note_on_c, 1, 64, 127
3, 46548, Note_off_c, 1, 64, 64
3, 46560, Note_on_c, 1, 72, 127
3, 46656, Note_off_c, 1, 72, 64
3, 46680, Note_on_c, 1, 62, 127
3, 46776, Note_off_c, 1, 62, 64
3, 46800, Note_on_c, 1, 64, 127
3, 46896, Note_off_c, 1, 64, 64
3, 46920, Note_on_c, 1, 61, 127
3, 47016, Note_off_c, 1, 61, 64
3, 47040, Note_on_c, 1, 66, 127
3, 47136, Note_off_c, 1, 66, 64
3, 47160, Note_on_c, 1, 62, 127
3, 47256, Note_off_c, 1, 62, 64
3, 47280, Note_on_c, 1, 67, 127
3, 47376, Note_off_c, 1, 67, 64
3, 47400, Note_on_c, 1, 64, 127
3, 47496, Note_off_c, 1, 64, 64
3, 47520, Note_on_c, 1, 69, 127
3, 47565, Note_off_c, 1, 69, 64
3, 47580, Note_on_c, 1, 62, 127
3, 47628, Note_off_c, 1, 62, 64
3, 47640, Note_on_c, 1, 61, 127
3, 47688, Note_off_c, 1, 61, 64
3, 47700, Note_on_c, 1, 62, 127
3, 47748, Note_off_c, 1, 62, 64
3, 47760, Note_on_c, 1, 66, 127
3, 47805, Note_off_c, 1, 66, 64
3, 47820, Note_on_c, 1, 62, 127
3, 47868, Note_off_c, 1, 62, 64
3, 47880, Note_on_c, 1, 61, 127
3, 47928, Note_off_c, 1, 61, 64
3, 47940, Note_on_c, 1, 62, 127
3, 47988, Note_off_c, 1, 62, 64
3, 48000, Note_on_c, 1, 67, 127
3, 48045, Note_off_c, 1, 67, 64
3, 48060, Note_on_c, 1, 62, 127
3, 48108, Note_off_c, 1, 62, 64
3, 48120, Note_on_c, 1, 61, 127
3, 48168, Note_off_c, 1, 61, 64
3, 48180, Note_on_c, 1, 62, 127
3, 48228, Note_off_c, 1, 62, 64
3, 48240, Note_on_c, 1, 69, 127
3, 48285, Note_off_c, 1, 69, 64
3, 48300, Note_on_c, 1, 62, 127
3, 48348, Note_off_c, 1, 62, 64
3, 48360, Note_on_c, 1, 61, 127
3, 48408, Note_off_c, 1, 61, 64
3, 48420, Note_on_c, 1, 62, 127
3, 48468, Note_off_c, 1, 62, 64
3, 48480, Note_on_c, 1, 71, 127
3, 48525, Note_off_c, 1, 71, 64
3, 48540, Note_on_c, 1, 71, 127
3, 48588, Note_off_c, 1, 71, 64
3, 48600, Note_on_c, 1, 72, 127
3, 48648, Note_off_c, 1, 72, 64
3, 48660, Note_on_c, 1, 71, 127
3, 48708, Note_off_c, 1, 71, 64
3, 48720, Note_on_c, 1, 62, 127
3, 48765, Note_off_c, 1, 62, 64
3, 48780, Note_on_c, 1, 71, 127
3, 48828, Note_off_c, 1, 71, 64
3, 48840, Note_on_c, 1, 72, 127
3, 48888, Note_off_c, 1, 72, 64
3, 48900, Note_on_c, 1, 71, 127
3, 48948, Note_off_c, 1, 71, 64
3, 48960, Note_on_c, 1, 64, 127
3, 49005, Note_off_c, 1, 64, 64
3, 49020, Note_on_c, 1, 71, 127
3, 49068, Note_off_c, 1, 71, 64
3, 49080, Note_on_c, 1, 72, 127
3, 49128, Note_off_c, 1, 72, 64
3, 49140, Note_on_c, 1, 71, 127
3, 49188, Note_off_c, 1, 71, 64
3, 49200, Note_on_c, 1, 65, 127
3, 49245, Note_off_c, 1, 65, 64
3, 49260, Note_on_c, 1, 71, 127
3, 49308, Note_off_c, 1, 71, 64
3, 49320, Note_on_c, 1, 72, 127
3, 49368, Note_off_c, 1, 72, 64
3, 49380, Note_on_c, 1, 71, 127
3, 49428, Note_off_c, 1, 71, 64
3, 49440, Note_on_c, 1, 67, 127
3, 49488, Note_off_c, 1, 67, 64
3, 49500, Note_on_c, 1, 71, 127
3, 49548, Note_off_c, 1, 71, 64
3, 49560, Note_on_c, 1, 72, 127
3, 49608, Note_off_c, 1, 72, 64
3, 49620, Note_on_c, 1, 67, 127
3, 49668, Note_off_c, 1, 67, 64
3, 49680, Note_on_c, 1, 64, 127
3, 49728, Note_off_c, 1, 64, 64
3, 49740, Note_on_c, 1, 67, 127
3, 49788, Note_off_c, 1, 67, 64
3, 49800, Note_on_c, 1, 60, 127
3, 49896, Note_off_c, 1, 60, 64
3, 50880, Note_on_c, 1, 67, 127
3, 51168, Note_off_c, 1, 67, 64
3, 51180, Note_on_c, 1, 66, 127
3, 51228, Note_off_c, 1, 66, 64
3, 51240, Note_on_c, 1, 64, 127
3, 51288, Note_off_c, 1, 64, 64
3, 51300, Note_on_c, 1, 69, 127
3, 51348, Note_off_c, 1, 69, 64
3, 51360, Note_on_c, 1, 62, 127
3, 51456, Note_off_c, 1, 62, 64
3, 51480, Note_on_c, 1, 69, 127
3, 51504, Note_off_c, 1, 69, 64
3, 51510, Note_on_c, 1, 71, 127
3, 51534, Note_off_c, 1, 71, 64
3, 51540, Note_on_c, 1, 72, 127
3, 51588, Note_off_c, 1, 72, 64
3, 51600, Note_on_c, 1, 71, 127
3, 51690, Note_off_c, 1, 71, 64
3, 51720, Note_on_c, 1, 69, 127
3, 51816, Note_off_c, 1, 69, 64
3, 51840, Note_on_c, 1, 71, 127
3, 51888, Note_off_c, 1, 71, 64
3, 51900, Note_on_c, 1, 67, 127
3, 51948, Note_off_c, 1, 67, 64
3, 51960, Note_on_c, 1, 71, 127
3, 52008, Note_off_c, 1, 71, 64
3, 52020, Note_on_c, 1, 74, 127
3, 52068, Note_off_c, 1, 74, 64
3, 52080, Note_on_c, 1, 72, 127
3, 52176, Note_off_c, 1, 72, 64
3, 52200, Note_on_c, 1, 71, 127
3, 52296, Note_off_c, 1, 71, 64
3, 52320, Note_on_c, 1, 69, 127
3, 52416, Note_off_c, 1, 69, 64
3, 52440, Note_on_c, 1, 62, 127
3, 52536, Note_off_c, 1, 62, 64
3, 52620, Note_on_c, 1, 62, 127
3, 52668, Note_off_c, 1, 62, 64
3, 52680, Note_on_c, 1, 66, 127
3, 52728, Note_off_c, 1, 66, 64
3, 52740, Note_on_c, 1, 69, 127
3, 52788, Note_off_c, 1, 69, 64
3, 52800, Note_on_c, 1, 72, 127
3, 52848, Note_off_c, 1, 72, 64
3, 52860, Note_on_c, 1, 71, 127
3, 52908, Note_off_c, 1, 71, 64
3, 52920, Note_on_c, 1, 72, 127
3, 53016, Note_off_c, 1, 72, 64
3, 53100, Note_on_c, 1, 62, 127
3, 53148, Note_off_c, 1, 62, 64
3, 53160, Note_on_c, 1, 66, 127
3, 53208, Note_off_c, 1, 66, 64
3, 53220, Note_on_c, 1, 69, 127
3, 53268, Note_off_c, 1, 69, 64
3, 53280, Note_on_c, 1, 72, 127
3, 53328, Note_off_c, 1, 72, 64
3, 53340, Note_on_c, 1, 71, 127
3, 53388, Note_off_c, 1, 71, 64
3, 53400, Note_on_c, 1, 72, 127
3, 53496, Note_off_c, 1, 72, 64
3, 53820, Note_on_c, 1, 66, 127
3, 53868, Note_off_c, 1, 66, 64
3, 53880, Note_on_c, 1, 69, 127
3, 53928, Note_off_c, 1, 69, 64
3, 53940, Note_on_c, 1, 74, 127
3, 53988, Note_off_c, 1, 74, 64
3, 54000, Note_on_c, 1, 78, 127
3, 54048, Note_off_c, 1, 78, 64
3, 54060, Note_on_c, 1, 81, 127
3, 54108, Note_off_c, 1, 81, 64
3, 54120, Note_on_c, 1, 79, 127
3, 54168, Note_off_c, 1, 79, 64
3, 54180, Note_on_c, 1, 78, 127
3, 54228, Note_off_c, 1, 78, 64
3, 54240, Note_on_c, 1, 79, 127
3, 54336, Note_off_c, 1, 79, 64
3, 54360, Note_on_c, 1, 62, 127
3, 54456, Note_off_c, 1, 62, 64
3, 54480, Note_on_c, 1, 67, 127
3, 54816, Note_off_c, 1, 67, 64
3, 54840, Note_on_c, 1, 66, 127
3, 54888, Note_off_c, 1, 66, 64
3, 54900, Note_on_c, 1, 64, 127
3, 54948, Note_off_c, 1, 64, 64
3, 54960, Note_on_c, 1, 67, 127
3, 54984, Note_off_c, 1, 67, 64
3, 54990, Note_on_c, 1, 66, 127
3, 55014, Note_off_c, 1, 66, 64
3, 55020, Note_on_c, 1, 67, 127
3, 55044, Note_off_c, 1, 67, 64
3, 55050, Note_on_c, 1, 66, 127
3, 55074, Note_off_c, 1, 66, 64
3, 55080, Note_on_c, 1, 67, 127
3, 55104, Note_off_c, 1, 67, 64
3, 55110, Note_on_c, 1, 66, 127
3, 55139, Note_off_c, 1, 66, 64
3, 55140, Note_on_c, 1, 64, 127
3, 55164, Note_off_c, 1, 64, 64
3, 55170, Note_on_c, 1, 66, 127
3, 55194, Note_off_c, 1, 66, 64
3, 55200, Note_on_c, 1, 67, 127
3, 55392, Note_off_c, 1, 67, 64
3, 55680, Note_on_c, 1, 62, 127
3, 55968, Note_off_c, 1, 62, 64
3, 55980, Note_on_c, 1, 61, 127
3, 56028, Note_off_c, 1, 61, 64
3, 56040, Note_on_c, 1, 59, 127
3, 56088, Note_off_c, 1, 59, 64
3, 56100, Note_on_c, 1, 64, 127
3, 56148, Note_off_c, 1, 64, 64
3, 56160, Note_on_c, 1, 57, 127
3, 56256, Note_off_c, 1, 57, 64
3, 56280, Note_on_c, 1, 64, 127
3, 56304, Note_off_c, 1, 64, 64
3, 56310, Note_on_c, 1, 66, 127
3, 56334, Note_off_c, 1, 66, 64
3, 56340, Note_on_c, 1, 67, 127
3, 56388, Note_off_c, 1, 67, 64
3, 56400, Note_on_c, 1, 66, 127
3, 56490, Note_off_c, 1, 66, 64
3, 56520, Note_on_c, 1, 66, 127
3, 56544, Note_off_c, 1, 66, 64
3, 56550, Note_on_c, 1, 64, 127
3, 56574, Note_off_c, 1, 64, 64
3, 56580, Note_on_c, 1, 66, 127
3, 56604, Note_off_c, 1, 66, 64
3, 56610, Note_on_c, 1, 64, 127
3, 56639, Note_off_c, 1, 64, 64
3, 56640, Note_on_c, 1, 66, 127
3, 56688, Note_off_c, 1, 66, 64
3, 56700, Note_on_c, 1, 62, 127
3, 56748, Note_off_c, 1, 62, 64
3, 56760, Note_on_c, 1, 66, 127
3, 56808, Note_off_c, 1, 66, 64
3, 56820, Note_on_c, 1, 69, 127
3, 56868, Note_off_c, 1, 69, 64
3, 56880, Note_on_c, 1, 67, 127
3, 56976, Note_off_c, 1, 67, 64
3, 57000, Note_on_c, 1, 66, 127
3, 57096, Note_off_c, 1, 66, 64
3, 57120, Note_on_c, 1, 64, 127
3, 57216, Note_off_c, 1, 64, 64
3, 57240, Note_on_c, 1, 57, 127
3, 57336, Note_off_c, 1, 57, 64
3, 57420, Note_on_c, 1, 69, 127
3, 57468, Note_off_c, 1, 69, 64
3, 57480, Note_on_c, 1, 73, 127
3, 57528, Note_off_c, 1, 73, 64
3, 57540, Note_on_c, 1, 76, 127
3, 57588, Note_off_c, 1, 76, 64
3, 57600, Note_on_c, 1, 79, 127
3, 57648, Note_off_c, 1, 79, 64
3, 57660, Note_on_c, 1, 78, 127
3, 57708, Note_off_c, 1, 78, 64
3, 57720, Note_on_c, 1, 79, 127
3, 57816, Note_off_c, 1, 79, 64
3, 57900, Note_on_c, 1, 69, 127
3, 57948, Note_off_c, 1, 69, 64
3, 57960, Note_on_c, 1, 73, 127
3, 58008, Note_off_c, 1, 73, 64
3, 58020, Note_on_c, 1, 76, 127
3, 58068, Note_off_c, 1, 76, 64
3, 58080, Note_on_c, 1, 79, 127
3, 58128, Note_off_c, 1, 79, 64
3, 58140, Note_on_c, 1, 78, 127
3, 58188, Note_off_c, 1, 78, 64
3, 58200, Note_on_c, 1, 79, 127
3, 58296, Note_off_c, 1, 79, 64
3, 58620, Note_on_c, 1, 61, 127
3, 58668, Note_off_c, 1, 61, 64
3, 58680, Note_on_c, 1, 64, 127
3, 58728, Note_off_c, 1, 64, 64
3, 58740, Note_on_c, 1, 69, 127
3, 58788, Note_off_c, 1, 69, 64
3, 58800, Note_on_c, 1, 73, 127
3, 58848, Note_off_c, 1, 73, 64
3, 58860, Note_on_c, 1, 76, 127
3, 58908, Note_off_c, 1, 76, 64
3, 58920, Note_on_c, 1, 74, 127
3, 58968, Note_off_c, 1, 74, 64
3, 58980, Note_on_c, 1, 73, 127
3, 59028, Note_off_c, 1, 73, 64
3, 59040, Note_on_c, 1, 74, 127
3, 59088, Note_off_c, 1, 74, 64
3, 59100, Note_on_c, 1, 57, 127
3, 59148, Note_off_c, 1, 57, 64
3, 59160, Note_on_c, 1, 62, 127
3, 59208, Note_off_c, 1, 62, 64
3, 59220, Note_on_c, 1, 66, 127
3, 59268, Note_off_c, 1, 66, 64
3, 59280, Note_on_c, 1, 69, 127
3, 59328, Note_off_c, 1, 69, 64
3, 59340, Note_on_c, 1, 67, 127
3, 59388, Note_off_c, 1, 67, 64
3, 59400, Note_on_c, 1, 69, 127
3, 59496, Note_off_c, 1, 69, 64
3, 59580, Note_on_c, 1, 59, 127
3, 59628, Note_off_c, 1, 59, 64
3, 59640, Note_on_c, 1, 63, 127
3, 59688, Note_off_c, 1, 63, 64
3, 59700, Note_on_c, 1, 66, 127
3, 59748, Note_off_c, 1, 66, 64
3, 59760, Note_on_c, 1, 69, 127
3, 59808, Note_off_c, 1, 69, 64
3, 59820, Note_on_c, 1, 67, 127
3, 59868, Note_off_c, 1, 67, 64
3, 59880, Note_on_c, 1, 69, 127
3, 59976, Note_off_c, 1, 69, 64
3, 60060, Note_on_c, 1, 59, 127
3, 60108, Note_off_c, 1, 59, 64
3, 60120, Note_on_c, 1, 63, 127
3, 60168, Note_off_c, 1, 63, 64
3, 60180, Note_on_c, 1, 66, 127
3, 60228, Note_off_c, 1, 66, 64
3, 60240, Note_on_c, 1, 69, 127
3, 60288, Note_off_c, 1, 69, 64
3, 60300, Note_on_c, 1, 67, 127
3, 60348, Note_off_c, 1, 67, 64
3, 60360, Note_on_c, 1, 66, 127
3, 60408, Note_off_c, 1, 66, 64
3, 60420, Note_on_c, 1, 64, 127
3, 60468, Note_off_c, 1, 64, 64
3, 60480, Note_on_c, 1, 63, 127
3, 60528, Note_off_c, 1, 63, 64
3, 60540, Note_on_c, 1, 59, 127
3, 60588, Note_off_c, 1, 59, 64
3, 60600, Note_on_c, 1, 63, 127
3, 60648, Note_off_c, 1, 63, 64
3, 60660, Note_on_c, 1, 66, 127
3, 60708, Note_off_c, 1, 66, 64
3, 60720, Note_on_c, 1, 71, 127
3, 60768, Note_off_c, 1, 71, 64
3, 60780, Note_on_c, 1, 69, 127
3, 60828, Note_off_c, 1, 69, 64
3, 60840, Note_on_c, 1, 67, 127
3, 60888, Note_off_c, 1, 67, 64
3, 60900, Note_on_c, 1, 66, 127
3, 60948, Note_off_c, 1, 66, 64
3, 60960, Note_on_c, 1, 67, 127
3, 61008, Note_off_c, 1, 67, 64
3, 61020, Note_on_c, 1, 64, 127
3, 61068, Note_off_c, 1, 64, 64
3, 61080, Note_on_c, 1, 67, 127
3, 61128, Note_off_c, 1, 67, 64
3, 61140, Note_on_c, 1, 71, 127
3, 61188, Note_off_c, 1, 71, 64
3, 61200, Note_on_c, 1, 69, 127
3, 61296, Note_off_c, 1, 69, 64
3, 61320, Note_on_c, 1, 67, 127
3, 61416, Note_off_c, 1, 67, 64
3, 61440, Note_on_c, 1, 66, 127
3, 61536, Note_off_c, 1, 66, 64
3, 61560, Note_on_c, 1, 69, 127
3, 61656, Note_off_c, 1, 69, 64
3, 61680, Note_on_c, 1, 74, 127
3, 61968, Note_off_c, 1, 74, 64
3, 61980, Note_on_c, 1, 71, 127
3, 62028, Note_off_c, 1, 71, 64
3, 62040, Note_on_c, 1, 72, 127
3, 62088, Note_off_c, 1, 72, 64
3, 62100, Note_on_c, 1, 76, 127
3, 62148, Note_off_c, 1, 76, 64
3, 62160, Note_on_c, 1, 74, 127
3, 62256, Note_off_c, 1, 74, 64
3, 62280, Note_on_c, 1, 72, 127
3, 62376, Note_off_c, 1, 72, 64
3, 62400, Note_on_c, 1, 71, 127
3, 62448, Note_off_c, 1, 71, 64
3, 62460, Note_on_c, 1, 69, 127
3, 62508, Note_off_c, 1, 69, 64
3, 62520, Note_on_c, 1, 71, 127
3, 62568, Note_off_c, 1, 71, 64
3, 62580, Note_on_c, 1, 74, 127
3, 62628, Note_off_c, 1, 74, 64
3, 62640, Note_on_c, 1, 72, 127
3, 62736, Note_off_c, 1, 72, 64
3, 62760, Note_on_c, 1, 71, 127
3, 62856, Note_off_c, 1, 71, 64
3, 62880, Note_on_c, 1, 72, 127
3, 62904, Note_off_c, 1, 72, 64
3, 62910, Note_on_c, 1, 71, 127
3, 62934, Note_off_c, 1, 71, 64
3, 62940, Note_on_c, 1, 72, 127
3, 62964, Note_off_c, 1, 72, 64
3, 62970, Note_on_c, 1, 71, 127
3, 62999, Note_off_c, 1, 71, 64
3, 63000, Note_on_c, 1, 69, 127
3, 63096, Note_off_c, 1, 69, 64
3, 63180, Note_on_c, 1, 69, 127
3, 63228, Note_off_c, 1, 69, 64
3, 63240, Note_on_c, 1, 74, 127
3, 63288, Note_off_c, 1, 74, 64
3, 63300, Note_on_c, 1, 78, 127
3, 63348, Note_off_c, 1, 78, 64
3, 63360, Note_on_c, 1, 79, 127
3, 63408, Note_off_c, 1, 79, 64
3, 63420, Note_on_c, 1, 81, 127
3, 63468, Note_off_c, 1, 81, 64
3, 63480, Note_on_c, 1, 79, 127
3, 63528, Note_off_c, 1, 79, 64
3, 63540, Note_on_c, 1, 78, 127
3, 63588, Note_off_c, 1, 78, 64
3, 63600, Note_on_c, 1, 76, 127
3, 63648, Note_off_c, 1, 76, 64
3, 63660, Note_on_c, 1, 74, 127
3, 63708, Note_off_c, 1, 74, 64
3, 63720, Note_on_c, 1, 72, 127
3, 63768, Note_off_c, 1, 72, 64
3, 63780, Note_on_c, 1, 71, 127
3, 63828, Note_off_c, 1, 71, 64
3, 63840, Note_on_c, 1, 69, 127
3, 63888, Note_off_c, 1, 69, 64
3, 63900, Note_on_c, 1, 67, 127
3, 63948, Note_off_c, 1, 67, 64
3, 63960, Note_on_c, 1, 69, 127
3, 64008, Note_off_c, 1, 69, 64
3, 64020, Note_on_c, 1, 71, 127
3, 64068, Note_off_c, 1, 71, 64
3, 64080, Note_on_c, 1, 72, 127
3, 64128, Note_off_c, 1, 72, 64
3, 64140, Note_on_c, 1, 74, 127
3, 64188, Note_off_c, 1, 74, 64
3, 64200, Note_on_c, 1, 76, 127
3, 64248, Note_off_c, 1, 76, 64
3, 64260, Note_on_c, 1, 78, 127
3, 64308, Note_off_c, 1, 78, 64
3, 64320, Note_on_c, 1, 79, 127
3, 64416, Note_off_c, 1, 79, 64
3, 64440, Note_on_c, 1, 74, 127
3, 64536, Note_off_c, 1, 74, 64
3, 64560, Note_on_c, 1, 79, 127
3, 64896, Note_off_c, 1, 79, 64
3, 64920, Note_on_c, 1, 78, 127
3, 64968, Note_off_c, 1, 78, 64
3, 64980, Note_on_c, 1, 76, 127
3, 65028, Note_off_c, 1, 76, 64
3, 65040, Note_on_c, 1, 74, 127
3, 65088, Note_off_c, 1, 74, 64
3, 65100, Note_on_c, 1, 72, 127
3, 65148, Note_off_c, 1, 72, 64
3, 65160, Note_on_c, 1, 71, 127
3, 65208, Note_off_c, 1, 71, 64
3, 65220, Note_on_c, 1, 69, 127
3, 65268, Note_off_c, 1, 69, 64
3, 65280, Note_on_c, 1, 67, 127
3, 65328, Note_off_c, 1, 67, 64
3, 65340, Note_on_c, 1, 66, 127
3, 65388, Note_off_c, 1, 66, 64
3, 65400, Note_on_c, 1, 67, 127
3, 65448, Note_off_c, 1, 67, 64
3, 65460, Note_on_c, 1, 71, 127
3, 65508, Note_off_c, 1, 71, 64
3, 65520, Note_on_c, 1, 76, 127
3, 65856, Note_off_c, 1, 76, 64
3, 65880, Note_on_c, 1, 75, 127
3, 65976, Note_off_c, 1, 75, 64
3, 66120, Note_on_c, 1, 69, 127
3, 66216, Note_off_c, 1, 69, 64
3, 66240, Note_on_c, 1, 69, 127
3, 66288, Note_off_c, 1, 69, 64
3, 66300, Note_on_c, 1, 66, 127
3, 66348, Note_off_c, 1, 66, 64
3, 66360, Note_on_c, 1, 67, 127
3, 66408, Note_off_c, 1, 67, 64
3, 66420, Note_on_c, 1, 69, 127
3, 66468, Note_off_c, 1, 69, 64
3, 66480, Note_on_c, 1, 71, 127
3, 66528, Note_off_c, 1, 71, 64
3, 66540, Note_on_c, 1, 74, 127
3, 66588, Note_off_c, 1, 74, 64
3, 66600, Note_on_c, 1, 72, 127
3, 66648, Note_off_c, 1, 72, 64
3, 66660, Note_on_c, 1, 71, 127
3, 66708, Note_off_c, 1, 71, 64
3, 66720, Note_on_c, 1, 69, 127
3, 66768, Note_off_c, 1, 69, 64
3, 66780, Note_on_c, 1, 67, 127
3, 66828, Note_off_c, 1, 67, 64
3, 66840, Note_on_c, 1, 66, 127
3, 66888, Note_off_c, 1, 66, 64
3, 66900, Note_on_c, 1, 64, 127
3, 66948, Note_off_c, 1, 64, 64
3, 66960, Note_on_c, 1, 62, 127
3, 67056, Note_off_c, 1, 62, 64
3, 67080, Note_on_c, 1, 74, 127
3, 67248, Note_off_c, 1, 74, 64
3, 67260, Note_on_c, 1, 67, 127
3, 67308, Note_off_c, 1, 67, 64
3, 67320, Note_on_c, 1, 72, 127
3, 67368, Note_off_c, 1, 72, 64
3, 67380, Note_on_c, 1, 71, 127
3, 67428, Note_off_c, 1, 71, 64
3, 67440, Note_on_c, 1, 69, 127
3, 67488, Note_off_c, 1, 69, 64
3, 67500, Note_on_c, 1, 67, 127
3, 67548, Note_off_c, 1, 67, 64
3, 67560, Note_on_c, 1, 65, 127
3, 67608, Note_off_c, 1, 65, 64
3, 67620, Note_on_c, 1, 64, 127
3, 67668, Note_off_c, 1, 64, 64
3, 67680, Note_on_c, 1, 62, 127
3, 67728, Note_off_c, 1, 62, 64
3, 67740, Note_on_c, 1, 60, 127
3, 67788, Note_off_c, 1, 60, 64
3, 67800, Note_on_c, 1, 62, 127
3, 67848, Note_off_c, 1, 62, 64
3, 67860, Note_on_c, 1, 64, 127
3, 67908, Note_off_c, 1, 64, 64
3, 67920, Note_on_c, 1, 65, 127
3, 67968, Note_off_c, 1, 65, 64
3, 67980, Note_on_c, 1, 67, 127
3, 68028, Note_off_c, 1, 67, 64
3, 68040, Note_on_c, 1, 69, 127
3, 68088, Note_off_c, 1, 69, 64
3, 68100, Note_on_c, 1, 71, 127
3, 68148, Note_off_c, 1, 71, 64
3, 68160, Note_on_c, 1, 72, 127
3, 68256, Note_off_c, 1, 72, 64
3, 68280, Note_on_c, 1, 67, 127
3, 68376, Note_off_c, 1, 67, 64
3, 68400, Note_on_c, 1, 72, 127
3, 68688, Note_off_c, 1, 72, 64
3, 68700, Note_on_c, 1, 71, 127
3, 68748, Note_off_c, 1, 71, 64
3, 68760, Note_on_c, 1, 69, 127
3, 68808, Note_off_c, 1, 69, 64
3, 68820, Note_on_c, 1, 71, 127
3, 68868, Note_off_c, 1, 71, 64
3, 68880, Note_on_c, 1, 72, 127
3, 68928, Note_off_c, 1, 72, 64
3, 68940, Note_on_c, 1, 76, 127
3, 68988, Note_off_c, 1, 76, 64
3, 69000, Note_on_c, 1, 74, 127
3, 69048, Note_off_c, 1, 74, 64
3, 69060, Note_on_c, 1, 72, 127
3, 69108, Note_off_c, 1, 72, 64
3, 69120, Note_on_c, 1, 71, 127
3, 69168, Note_off_c, 1, 71, 64
3, 69180, Note_on_c, 1, 67, 127
3, 69228, Note_off_c, 1, 67, 64
3, 69240, Note_on_c, 1, 69, 127
3, 69288, Note_off_c, 1, 69, 64
3, 69300, Note_on_c, 1, 71, 127
3, 69348, Note_off_c, 1, 71, 64
3, 69360, Note_on_c, 1, 72, 127
3, 69408, Note_off_c, 1, 72, 64
3, 69420, Note_on_c, 1, 74, 127
3, 69468, Note_off_c, 1, 74, 64
3, 69480, Note_on_c, 1, 76, 127
3, 69528, Note_off_c, 1, 76, 64
3, 69540, Note_on_c, 1, 78, 127
3, 69588, Note_off_c, 1, 78, 64
3, 69600, Note_on_c, 1, 79, 127
3, 69696, Note_off_c, 1, 79, 64
3, 70080, Note_on_c, 1, 67, 127
3, 70368, Note_off_c, 1, 67, 64
3, 70380, Note_on_c, 1, 66, 127
3, 70428, Note_off_c, 1, 66, 64
3, 70440, Note_on_c, 1, 64, 127
3, 70488, Note_off_c, 1, 64, 64
3, 70500, Note_on_c, 1, 69, 127
3, 70548, Note_off_c, 1, 69, 64
3, 70560, Note_on_c, 1, 62, 127
3, 70656, Note_off_c, 1, 62, 64
3, 70680, Note_on_c, 1, 69, 127
3, 70704, Note_off_c, 1, 69, 64
3, 70710, Note_on_c, 1, 71, 127
3, 70734, Note_off_c, 1, 71, 64
3, 70740, Note_on_c, 1, 72, 127
3, 70788, Note_off_c, 1, 72, 64
3, 70800, Note_on_c, 1, 71, 127
3, 70890, Note_off_c, 1, 71, 64
3, 70920, Note_on_c, 1, 71, 127
3, 70944, Note_off_c, 1, 71, 64
3, 70950, Note_on_c, 1, 69, 127
3, 70974, Note_off_c, 1, 69, 64
3, 70980, Note_on_c, 1, 71, 127
3, 71004, Note_off_c, 1, 71, 64
3, 71010, Note_on_c, 1, 69, 127
3, 71039, Note_off_c, 1, 69, 64
3, 71040, Note_on_c, 1, 71, 127
3, 71088, Note_off_c, 1, 71, 64
3, 71100, Note_on_c, 1, 67, 127
3, 71148, Note_off_c, 1, 67, 64
3, 71160, Note_on_c, 1, 71, 127
3, 71208, Note_off_c, 1, 71, 64
3, 71220, Note_on_c, 1, 74, 127
3, 71268, Note_off_c, 1, 74, 64
3, 71280, Note_on_c, 1, 72, 127
3, 71568, Note_off_c, 1, 72, 64
3, 71580, Note_on_c, 1, 69, 127
3, 71628, Note_off_c, 1, 69, 64
3, 71640, Note_on_c, 1, 72, 127
3, 71688, Note_off_c, 1, 72, 64
3, 71700, Note_on_c, 1, 76, 127
3, 71748, Note_off_c, 1, 76, 64
3, 71760, Note_on_c, 1, 74, 127
3, 72048, Note_off_c, 1, 74, 64
3, 72060, Note_on_c, 1, 71, 127
3, 72108, Note_off_c, 1, 71, 64
3, 72120, Note_on_c, 1, 74, 127
3, 72168, Note_off_c, 1, 74, 64
3, 72180, Note_on_c, 1, 77, 127
3, 72228, Note_off_c, 1, 77, 64
3, 72240, Note_on_c, 1, 76, 127
3, 72288, Note_off_c, 1, 76, 64
3, 72300, Note_on_c, 1, 74, 127
3, 72348, Note_off_c, 1, 74, 64
3, 72360, Note_on_c, 1, 72, 127
3, 72408, Note_off_c, 1, 72, 64
3, 72420, Note_on_c, 1, 71, 127
3, 72468, Note_off_c, 1, 71, 64
3, 72480, Note_on_c, 1, 69, 127
3, 72528, Note_off_c, 1, 69, 64
3, 72540, Note_on_c, 1, 66, 127
3, 72588, Note_off_c, 1, 66, 64
3, 72600, Note_on_c, 1, 69, 127
3, 72648, Note_off_c, 1, 69, 64
3, 72660, Note_on_c, 1, 72, 127
3, 72708, Note_off_c, 1, 72, 64
3, 72720, Note_on_c, 1, 71, 127
3, 72768, Note_off_c, 1, 71, 64
3, 72780, Note_on_c, 1, 69, 127
3, 72828, Note_off_c, 1, 69, 64
3, 72840, Note_on_c, 1, 67, 127
3, 72888, Note_off_c, 1, 67, 64
3, 72900, Note_on_c, 1, 66, 127
3, 72948, Note_off_c, 1, 66, 64
3, 72960, Note_on_c, 1, 67, 127
3, 73056, Note_off_c, 1, 67, 64
3, 73080, Note_on_c, 1, 59, 127
3, 73176, Note_off_c, 1, 59, 64
3, 73200, Note_on_c, 1, 57, 127
3, 73296, Note_off_c, 1, 57, 64
3, 73320, Note_on_c, 1, 66, 127
3, 73416, Note_off_c, 1, 66, 64
3, 73440, Note_on_c, 1, 67, 127
3, 73824, Note_off_c, 1, 67, 64
3, 73824, End_track
4, 0, Start_track
4, 0, Title_t, "Arr. Gary Bricault, (c) 1997"
4, 0, Program_c, 2, 19
4, 0, Control_c, 2, 7, 127
4, 0, Note_on_c, 2, 43, 127
4, 192, Note_off_c, 2, 43, 64
4, 240, Note_on_c, 2, 55, 127
4, 624, Note_off_c, 2, 55, 64
4, 720, Note_on_c, 2, 54, 127
4, 912, Note_off_c, 2, 54, 64
4, 960, Note_on_c, 2, 55, 127
4, 1152, Note_off_c, 2, 55, 64
4, 1320, Note_on_c, 2, 43, 127
4, 1416, Note_off_c, 2, 43, 64
4, 1440, Note_on_c, 2, 50, 127
4, 1536, Note_off_c, 2, 50, 64
4, 1560, Note_on_c, 2, 52, 127
4, 1656, Note_off_c, 2, 52, 64
4, 1680, Note_on_c, 2, 54, 127
4, 1776, Note_off_c, 2, 54, 64
4, 1800, Note_on_c, 2, 55, 127
4, 1896, Note_off_c, 2, 55, 64
4, 1920, Note_on_c, 2, 57, 127
4, 2016, Note_off_c, 2, 57, 64
4, 2040, Note_on_c, 2, 59, 127
4, 2136, Note_off_c, 2, 59, 64
4, 2160, Note_on_c, 2, 57, 127
4, 2256, Note_off_c, 2, 57, 64
4, 2280, Note_on_c, 2, 55, 127
4, 2376, Note_off_c, 2, 55, 64
4, 2400, Note_on_c, 2, 54, 127
4, 2496, Note_off_c, 2, 54, 64
4, 2520, Note_on_c, 2, 57, 127
4, 2616, Note_off_c, 2, 57, 64
4, 2640, Note_on_c, 2, 49, 127
4, 2736, Note_off_c, 2, 49, 64
4, 2760, Note_on_c, 2, 50, 127
4, 2856, Note_off_c, 2, 50, 64
4, 2880, Note_on_c, 2, 45, 127
4, 2976, Note_off_c, 2, 45, 64
4, 3000, Note_on_c, 2, 57, 127
4, 3096, Note_off_c, 2, 57, 64
4, 3120, Note_on_c, 2, 49, 127
4, 3216, Note_off_c, 2, 49, 64
4, 3240, Note_on_c, 2, 52, 127
4, 3336, Note_off_c, 2, 52, 64
4, 3360, Note_on_c, 2, 45, 127
4, 3456, Note_off_c, 2, 45, 64
4, 3480, Note_on_c, 2, 57, 127
4, 3576, Note_off_c, 2, 57, 64
4, 3600, Note_on_c, 2, 49, 127
4, 3696, Note_off_c, 2, 49, 64
4, 3720, Note_on_c, 2, 52, 127
4, 3816, Note_off_c, 2, 52, 64
4, 3840, Note_on_c, 2, 45, 127
4, 3936, Note_off_c, 2, 45, 64
4, 3960, Note_on_c, 2, 57, 127
4, 4056, Note_off_c, 2, 57, 64
4, 4080, Note_on_c, 2, 49, 127
4, 4176, Note_off_c, 2, 49, 64
4, 4200, Note_on_c, 2, 52, 127
4, 4296, Note_off_c, 2, 52, 64
4, 4320, Note_on_c, 2, 45, 127
4, 4416, Note_off_c, 2, 45, 64
4, 4440, Note_on_c, 2, 55, 127
4, 4536, Note_off_c, 2, 55, 64
4, 4560, Note_on_c, 2, 54, 127
4, 4656, Note_off_c, 2, 54, 64
4, 4680, Note_on_c, 2, 57, 127
4, 4776, Note_off_c, 2, 57, 64
4, 4800, Note_on_c, 2, 50, 127
4, 4896, Note_off_c, 2, 50, 64
4, 4920, Note_on_c, 2, 62, 127
4, 5016, Note_off_c, 2, 62, 64
4, 5040, Note_on_c, 2, 54, 127
4, 5136, Note_off_c, 2, 54, 64
4, 5160, Note_on_c, 2, 57, 127
4, 5256, Note_off_c, 2, 57, 64
4, 5280, Note_on_c, 2, 50, 127
4, 5376, Note_off_c, 2, 50, 64
4, 5400, Note_on_c, 2, 62, 127
4, 5496, Note_off_c, 2, 62, 64
4, 5520, Note_on_c, 2, 54, 127
4, 5616, Note_off_c, 2, 54, 64
4, 5640, Note_on_c, 2, 57, 127
4, 5736, Note_off_c, 2, 57, 64
4, 5760, Note_on_c, 2, 50, 127
4, 5856, Note_off_c, 2, 50, 64
4, 5880, Note_on_c, 2, 62, 127
4, 5976, Note_off_c, 2, 62, 64
4, 6000, Note_on_c, 2, 54, 127
4, 6096, Note_off_c, 2, 54, 64
4, 6120, Note_on_c, 2, 57, 127
4, 6216, Note_off_c, 2, 57, 64
4, 6240, Note_on_c, 2, 50, 127
4, 6336, Note_off_c, 2, 50, 64
4, 6360, Note_on_c, 2, 60, 127
4, 6456, Note_off_c, 2, 60, 64
4, 6480, Note_on_c, 2, 59, 127
4, 6576, Note_off_c, 2, 59, 64
4, 6600, Note_on_c, 2, 62, 127
4, 6696, Note_off_c, 2, 62, 64
4, 6720, Note_on_c, 2, 55, 127
4, 7008, Note_off_c, 2, 55, 64
4, 7080, Note_on_c, 2, 57, 127
4, 7176, Note_off_c, 2, 57, 64
4, 7200, Note_on_c, 2, 50, 127
4, 7296, Note_off_c, 2, 50, 64
4, 7320, Note_on_c, 2, 60, 127
4, 7416, Note_off_c, 2, 60, 64
4, 7440, Note_on_c, 2, 59, 127
4, 7536, Note_off_c, 2, 59, 64
4, 7560, Note_on_c, 2, 57, 127
4, 7656, Note_off_c, 2, 57, 64
4, 7680, Note_on_c, 2, 59, 127
4, 7776, Note_off_c, 2, 59, 64
4, 7800, Note_on_c, 2, 62, 127
4, 7896, Note_off_c, 2, 62, 64
4, 7920, Note_on_c, 2, 60, 127
4, 8016, Note_off_c, 2, 60, 64
4, 8040, Note_on_c, 2, 59, 127
4, 8136, Note_off_c, 2, 59, 64
4, 8160, Note_on_c, 2, 57, 127
4, 8256, Note_off_c, 2, 57, 64
4, 8280, Note_on_c, 2, 50, 127
4, 8376, Note_off_c, 2, 50, 64
4, 8520, Note_on_c, 2, 51, 127
4, 8616, Note_off_c, 2, 51, 64
4, 8640, Note_on_c, 2, 52, 127
4, 8928, Note_off_c, 2, 52, 64
4, 9000, Note_on_c, 2, 54, 127
4, 9096, Note_off_c, 2, 54, 64
4, 9120, Note_on_c, 2, 47, 127
4, 9216, Note_off_c, 2, 47, 64
4, 9240, Note_on_c, 2, 57, 127
4, 9336, Note_off_c, 2, 57, 64
4, 9360, Note_on_c, 2, 55, 127
4, 9456, Note_off_c, 2, 55, 64
4, 9480, Note_on_c, 2, 54, 127
4, 9576, Note_off_c, 2, 54, 64
4, 9600, Note_on_c, 2, 55, 127
4, 9696, Note_off_c, 2, 55, 64
4, 9720, Note_on_c, 2, 59, 127
4, 9816, Note_off_c, 2, 59, 64
4, 9840, Note_on_c, 2, 57, 127
4, 9936, Note_off_c, 2, 57, 64
4, 9960, Note_on_c, 2, 55, 127
4, 10056, Note_off_c, 2, 55, 64
4, 10080, Note_on_c, 2, 54, 127
4, 10176, Note_off_c, 2, 54, 64
4, 10200, Note_on_c, 2, 47, 127
4, 10296, Note_off_c, 2, 47, 64
4, 10440, Note_on_c, 2, 47, 127
4, 10536, Note_off_c, 2, 47, 64
4, 10560, Note_on_c, 2, 48, 127
4, 10848, Note_off_c, 2, 48, 64
4, 10920, Note_on_c, 2, 50, 127
4, 11016, Note_off_c, 2, 50, 64
4, 11040, Note_on_c, 2, 43, 127
4, 11136, Note_off_c, 2, 43, 64
4, 11160, Note_on_c, 2, 54, 127
4, 11256, Note_off_c, 2, 54, 64
4, 11280, Note_on_c, 2, 52, 127
4, 11376, Note_off_c, 2, 52, 64
4, 11400, Note_on_c, 2, 50, 127
4, 11496, Note_off_c, 2, 50, 64
4, 11520, Note_on_c, 2, 52, 127
4, 11616, Note_off_c, 2, 52, 64
4, 11640, Note_on_c, 2, 55, 127
4, 11736, Note_off_c, 2, 55, 64
4, 11760, Note_on_c, 2, 54, 127
4, 11856, Note_off_c, 2, 54, 64
4, 11880, Note_on_c, 2, 52, 127
4, 11976, Note_off_c, 2, 52, 64
4, 12000, Note_on_c, 2, 54, 127
4, 12096, Note_off_c, 2, 54, 64
4, 12120, Note_on_c, 2, 57, 127
4, 12216, Note_off_c, 2, 57, 64
4, 12240, Note_on_c, 2, 55, 127
4, 12336, Note_off_c, 2, 55, 64
4, 12360, Note_on_c, 2, 54, 127
4, 12456, Note_off_c, 2, 54, 64
4, 12480, Note_on_c, 2, 55, 127
4, 12576, Note_off_c, 2, 55, 64
4, 12600, Note_on_c, 2, 52, 127
4, 12696, Note_off_c, 2, 52, 64
4, 12720, Note_on_c, 2, 50, 127
4, 12816, Note_off_c, 2, 50, 64
4, 12840, Note_on_c, 2, 48, 127
4, 12936, Note_off_c, 2, 48, 64
4, 12960, Note_on_c, 2, 47, 127
4, 13056, Note_off_c, 2, 47, 64
4, 13080, Note_on_c, 2, 45, 127
4, 13176, Note_off_c, 2, 45, 64
4, 13200, Note_on_c, 2, 43, 127
4, 13296, Note_off_c, 2, 43, 64
4, 13320, Note_on_c, 2, 42, 127
4, 13416, Note_off_c, 2, 42, 64
4, 13440, Note_on_c, 2, 43, 127
4, 13536, Note_off_c, 2, 43, 64
4, 13560, Note_on_c, 2, 55, 127
4, 13656, Note_off_c, 2, 55, 64
4, 13680, Note_on_c, 2, 52, 127
4, 13776, Note_off_c, 2, 52, 64
4, 13800, Note_on_c, 2, 57, 127
4, 13896, Note_off_c, 2, 57, 64
4, 13920, Note_on_c, 2, 54, 127
4, 14016, Note_off_c, 2, 54, 64
4, 14040, Note_on_c, 2, 50, 127
4, 14136, Note_off_c, 2, 50, 64
4, 14280, Note_on_c, 2, 54, 127
4, 14376, Note_off_c, 2, 54, 64
4, 14400, Note_on_c, 2, 55, 127
4, 14496, Note_off_c, 2, 55, 64
4, 14520, Note_on_c, 2, 43, 127
4, 14616, Note_off_c, 2, 43, 64
4, 14640, Note_on_c, 2, 48, 127
4, 14736, Note_off_c, 2, 48, 64
4, 14760, Note_on_c, 2, 52, 127
4, 14856, Note_off_c, 2, 52, 64
4, 14880, Note_on_c, 2, 54, 127
4, 14976, Note_off_c, 2, 54, 64
4, 15000, Note_on_c, 2, 42, 127
4, 15096, Note_off_c, 2, 42, 64
4, 15120, Note_on_c, 2, 47, 127
4, 15216, Note_off_c, 2, 47, 64
4, 15240, Note_on_c, 2, 50, 127
4, 15336, Note_off_c, 2, 50, 64
4, 15360, Note_on_c, 2, 52, 127
4, 15456, Note_off_c, 2, 52, 64
4, 15480, Note_on_c, 2, 47, 127
4, 15576, Note_off_c, 2, 47, 64
4, 15600, Note_on_c, 2, 48, 127
4, 15696, Note_off_c, 2, 48, 64
4, 15720, Note_on_c, 2, 45, 127
4, 15816, Note_off_c, 2, 45, 64
4, 15840, Note_on_c, 2, 50, 127
4, 15936, Note_off_c, 2, 50, 64
4, 15960, Note_on_c, 2, 38, 127
4, 16056, Note_off_c, 2, 38, 64
4, 16200, Note_on_c, 2, 48, 127
4, 16296, Note_off_c, 2, 48, 64
4, 16320, Note_on_c, 2, 47, 127
4, 16416, Note_off_c, 2, 47, 64
4, 16440, Note_on_c, 2, 43, 127
4, 16536, Note_off_c, 2, 43, 64
4, 16560, Note_on_c, 2, 50, 127
4, 16656, Note_off_c, 2, 50, 64
4, 16680, Note_on_c, 2, 38, 127
4, 16776, Note_off_c, 2, 38, 64
4, 16800, Note_on_c, 2, 43, 127
4, 16896, Note_off_c, 2, 43, 64
4, 16920, Note_on_c, 2, 55, 127
4, 17016, Note_off_c, 2, 55, 64
4, 17040, Note_on_c, 2, 54, 127
4, 17136, Note_off_c, 2, 54, 64
4, 17160, Note_on_c, 2, 52, 127
4, 17256, Note_off_c, 2, 52, 64
4, 17280, Note_on_c, 2, 45, 127
4, 17376, Note_off_c, 2, 45, 64
4, 17400, Note_on_c, 2, 57, 127
4, 17496, Note_off_c, 2, 57, 64
4, 17520, Note_on_c, 2, 55, 127
4, 17616, Note_off_c, 2, 55, 64
4, 17640, Note_on_c, 2, 54, 127
4, 17736, Note_off_c, 2, 54, 64
4, 17760, Note_on_c, 2, 52, 127
4, 17856, Note_off_c, 2, 52, 64
4, 17880, Note_on_c, 2, 59, 127
4, 17976, Note_off_c, 2, 59, 64
4, 18000, Note_on_c, 2, 55, 127
4, 18096, Note_off_c, 2, 55, 64
4, 18120, Note_on_c, 2, 59, 127
4, 18216, Note_off_c, 2, 59, 64
4, 18240, Note_on_c, 2, 52, 127
4, 18336, Note_off_c, 2, 52, 64
4, 18360, Note_on_c, 2, 51, 127
4, 18456, Note_off_c, 2, 51, 64
4, 18480, Note_on_c, 2, 52, 127
4, 18576, Note_off_c, 2, 52, 64
4, 18600, Note_on_c, 2, 49, 127
4, 18696, Note_off_c, 2, 49, 64
4, 18720, Note_on_c, 2, 50, 127
4, 18816, Note_off_c, 2, 50, 64
4, 18840, Note_on_c, 2, 57, 127
4, 18936, Note_off_c, 2, 57, 64
4, 18960, Note_on_c, 2, 54, 127
4, 19056, Note_off_c, 2, 54, 64
4, 19080, Note_on_c, 2, 57, 127
4, 19176, Note_off_c, 2, 57, 64
4, 19200, Note_on_c, 2, 50, 127
4, 19296, Note_off_c, 2, 50, 64
4, 19320, Note_on_c, 2, 49, 127
4, 19416, Note_off_c, 2, 49, 64
4, 19440, Note_on_c, 2, 50, 127
4, 19536, Note_off_c, 2, 50, 64
4, 19560, Note_on_c, 2, 47, 127
4, 19656, Note_off_c, 2, 47, 64
4, 19680, Note_on_c, 2, 48, 127
4, 19776, Note_off_c, 2, 48, 64
4, 19800, Note_on_c, 2, 36, 127
4, 19896, Note_off_c, 2, 36, 64
4, 20040, Note_on_c, 2, 47, 127
4, 20136, Note_off_c, 2, 47, 64
4, 20160, Note_on_c, 2, 48, 127
4, 20256, Note_off_c, 2, 48, 64
4, 20280, Note_on_c, 2, 57, 127
4, 20376, Note_off_c, 2, 57, 64
4, 20400, Note_on_c, 2, 49, 127
4, 20496, Note_off_c, 2, 49, 64
4, 20520, Note_on_c, 2, 58, 127
4, 20616, Note_off_c, 2, 58, 64
4, 20640, Note_on_c, 2, 50, 127
4, 20736, Note_off_c, 2, 50, 64
4, 20760, Note_on_c, 2, 59, 127
4, 20856, Note_off_c, 2, 59, 64
4, 20880, Note_on_c, 2, 51, 127
4, 20976, Note_off_c, 2, 51, 64
4, 21000, Note_on_c, 2, 59, 127
4, 21096, Note_off_c, 2, 59, 64
4, 21120, Note_on_c, 2, 40, 127
4, 21216, Note_off_c, 2, 40, 64
4, 21240, Note_on_c, 2, 52, 127
4, 21336, Note_off_c, 2, 52, 64
4, 21360, Note_on_c, 2, 50, 127
4, 21456, Note_off_c, 2, 50, 64
4, 21480, Note_on_c, 2, 49, 127
4, 21576, Note_off_c, 2, 49, 64
4, 21600, Note_on_c, 2, 47, 127
4, 21696, Note_off_c, 2, 47, 64
4, 21720, Note_on_c, 2, 54, 127
4, 21816, Note_off_c, 2, 54, 64
4, 21840, Note_on_c, 2, 50, 127
4, 21936, Note_off_c, 2, 50, 64
4, 21960, Note_on_c, 2, 54, 127
4, 22056, Note_off_c, 2, 54, 64
4, 22080, Note_on_c, 2, 47, 127
4, 22176, Note_off_c, 2, 47, 64
4, 22200, Note_on_c, 2, 58, 127
4, 22296, Note_off_c, 2, 58, 64
4, 22320, Note_on_c, 2, 59, 127
4, 22416, Note_off_c, 2, 59, 64
4, 22440, Note_on_c, 2, 56, 127
4, 22536, Note_off_c, 2, 56, 64
4, 22560, Note_on_c, 2, 57, 127
4, 22656, Note_off_c, 2, 57, 64
4, 22680, Note_on_c, 2, 52, 127
4, 22776, Note_off_c, 2, 52, 64
4, 22800, Note_on_c, 2, 49, 127
4, 22896, Note_off_c, 2, 49, 64
4, 22920, Note_on_c, 2, 52, 127
4, 23016, Note_off_c, 2, 52, 64
4, 23040, Note_on_c, 2, 45, 127
4, 23136, Note_off_c, 2, 45, 64
4, 23160, Note_on_c, 2, 56, 127
4, 23256, Note_off_c, 2, 56, 64
4, 23280, Note_on_c, 2, 57, 127
4, 23376, Note_off_c, 2, 57, 64
4, 23400, Note_on_c, 2, 54, 127
4, 23496, Note_off_c, 2, 54, 64
4, 23520, Note_on_c, 2, 55, 127
4, 23616, Note_off_c, 2, 55, 64
4, 23640, Note_on_c, 2, 43, 127
4, 23736, Note_off_c, 2, 43, 64
4, 23880, Note_on_c, 2, 42, 127
4, 23976, Note_off_c, 2, 42, 64
4, 24000, Note_on_c, 2, 43, 127
4, 24096, Note_off_c, 2, 43, 64
4, 24120, Note_on_c, 2, 52, 127
4, 24216, Note_off_c, 2, 52, 64
4, 24240, Note_on_c, 2, 44, 127
4, 24336, Note_off_c, 2, 44, 64
4, 24360, Note_on_c, 2, 53, 127
4, 24456, Note_off_c, 2, 53, 64
4, 24480, Note_on_c, 2, 45, 127
4, 24576, Note_off_c, 2, 45, 64
4, 24600, Note_on_c, 2, 54, 127
4, 24696, Note_off_c, 2, 54, 64
4, 24720, Note_on_c, 2, 46, 127
4, 24816, Note_off_c, 2, 46, 64
4, 24840, Note_on_c, 2, 54, 127
4, 24936, Note_off_c, 2, 54, 64
4, 24960, Note_on_c, 2, 47, 127
4, 25056, Note_off_c, 2, 47, 64
4, 25080, Note_on_c, 2, 54, 127
4, 25176, Note_off_c, 2, 54, 64
4, 25200, Note_on_c, 2, 49, 127
4, 25296, Note_off_c, 2, 49, 64
4, 25320, Note_on_c, 2, 52, 127
4, 25416, Note_off_c, 2, 52, 64
4, 25440, Note_on_c, 2, 50, 127
4, 25536, Note_off_c, 2, 50, 64
4, 25560, Note_on_c, 2, 59, 127
4, 25656, Note_off_c, 2, 59, 64
4, 25680, Note_on_c, 2, 51, 127
4, 25776, Note_off_c, 2, 51, 64
4, 25800, Note_on_c, 2, 59, 127
4, 25896, Note_off_c, 2, 59, 64
4, 25920, Note_on_c, 2, 52, 127
4, 26016, Note_off_c, 2, 52, 64
4, 26040, Note_on_c, 2, 59, 127
4, 26136, Note_off_c, 2, 59, 64
4, 26160, Note_on_c, 2, 54, 127
4, 26256, Note_off_c, 2, 54, 64
4, 26280, Note_on_c, 2, 57, 127
4, 26376, Note_off_c, 2, 57, 64
4, 26400, Note_on_c, 2, 55, 127
4, 26496, Note_off_c, 2, 55, 64
4, 26520, Note_on_c, 2, 54, 127
4, 26616, Note_off_c, 2, 54, 64
4, 26640, Note_on_c, 2, 56, 127
4, 26736, Note_off_c, 2, 56, 64
4, 26760, Note_on_c, 2, 52, 127
4, 26856, Note_off_c, 2, 52, 64
4, 26880, Note_on_c, 2, 57, 127
4, 26976, Note_off_c, 2, 57, 64
4, 27000, Note_on_c, 2, 52, 127
4, 27096, Note_off_c, 2, 52, 64
4, 27120, Note_on_c, 2, 59, 127
4, 27216, Note_off_c, 2, 59, 64
4, 27240, Note_on_c, 2, 52, 127
4, 27336, Note_off_c, 2, 52, 64
4, 27360, Note_on_c, 2, 60, 127
4, 27456, Note_off_c, 2, 60, 64
4, 27480, Note_on_c, 2, 59, 127
4, 27576, Note_off_c, 2, 59, 64
4, 27600, Note_on_c, 2, 61, 127
4, 27696, Note_off_c, 2, 61, 64
4, 27720, Note_on_c, 2, 57, 127
4, 27816, Note_off_c, 2, 57, 64
4, 27840, Note_on_c, 2, 50, 127
4, 27936, Note_off_c, 2, 50, 64
4, 27960, Note_on_c, 2, 57, 127
4, 28056, Note_off_c, 2, 57, 64
4, 28080, Note_on_c, 2, 52, 127
4, 28176, Note_off_c, 2, 52, 64
4, 28200, Note_on_c, 2, 55, 127
4, 28296, Note_off_c, 2, 55, 64
4, 28320, Note_on_c, 2, 54, 127
4, 28416, Note_off_c, 2, 54, 64
4, 28440, Note_on_c, 2, 52, 127
4, 28536, Note_off_c, 2, 52, 64
4, 28560, Note_on_c, 2, 54, 127
4, 28656, Note_off_c, 2, 54, 64
4, 28680, Note_on_c, 2, 50, 127
4, 28776, Note_off_c, 2, 50, 64
4, 28800, Note_on_c, 2, 55, 127
4, 28896, Note_off_c, 2, 55, 64
4, 28920, Note_on_c, 2, 50, 127
4, 29016, Note_off_c, 2, 50, 64
4, 29040, Note_on_c, 2, 62, 127
4, 29136, Note_off_c, 2, 62, 64
4, 29160, Note_on_c, 2, 50, 127
4, 29256, Note_off_c, 2, 50, 64
4, 29280, Note_on_c, 2, 55, 127
4, 29376, Note_off_c, 2, 55, 64
4, 29400, Note_on_c, 2, 54, 127
4, 29496, Note_off_c, 2, 54, 64
4, 29520, Note_on_c, 2, 55, 127
4, 29616, Note_off_c, 2, 55, 64
4, 29640, Note_on_c, 2, 57, 127
4, 29736, Note_off_c, 2, 57, 64
4, 29760, Note_on_c, 2, 59, 127
4, 29856, Note_off_c, 2, 59, 64
4, 29880, Note_on_c, 2, 60, 127
4, 29976, Note_off_c, 2, 60, 64
4, 30000, Note_on_c, 2, 62, 127
4, 30096, Note_off_c, 2, 62, 64
4, 30120, Note_on_c, 2, 60, 127
4, 30216, Note_off_c, 2, 60, 64
4, 30240, Note_on_c, 2, 59, 127
4, 30336, Note_off_c, 2, 59, 64
4, 30360, Note_on_c, 2, 57, 127
4, 30456, Note_off_c, 2, 57, 64
4, 30480, Note_on_c, 2, 55, 127
4, 30576, Note_off_c, 2, 55, 64
4, 30600, Note_on_c, 2, 54, 127
4, 30696, Note_off_c, 2, 54, 64
4, 30720, Note_on_c, 2, 55, 127
4, 30816, Note_off_c, 2, 55, 64
4, 30840, Note_on_c, 2, 59, 127
4, 30936, Note_off_c, 2, 59, 64
4, 30960, Note_on_c, 2, 57, 127
4, 31056, Note_off_c, 2, 57, 64
4, 31080, Note_on_c, 2, 55, 127
4, 31176, Note_off_c, 2, 55, 64
4, 31200, Note_on_c, 2, 54, 127
4, 31296, Note_off_c, 2, 54, 64
4, 31320, Note_on_c, 2, 55, 127
4, 31416, Note_off_c, 2, 55, 64
4, 31440, Note_on_c, 2, 57, 127
4, 31536, Note_off_c, 2, 57, 64
4, 31560, Note_on_c, 2, 55, 127
4, 31656, Note_off_c, 2, 55, 64
4, 31680, Note_on_c, 2, 54, 127
4, 31776, Note_off_c, 2, 54, 64
4, 31800, Note_on_c, 2, 52, 127
4, 31896, Note_off_c, 2, 52, 64
4, 31920, Note_on_c, 2, 50, 127
4, 32016, Note_off_c, 2, 50, 64
4, 32040, Note_on_c, 2, 49, 127
4, 32136, Note_off_c, 2, 49, 64
4, 32160, Note_on_c, 2, 50, 127
4, 32256, Note_off_c, 2, 50, 64
4, 32280, Note_on_c, 2, 57, 127
4, 32376, Note_off_c, 2, 57, 64
4, 32400, Note_on_c, 2, 49, 127
4, 32496, Note_off_c, 2, 49, 64
4, 32520, Note_on_c, 2, 50, 127
4, 32616, Note_off_c, 2, 50, 64
4, 32640, Note_on_c, 2, 45, 127
4, 32832, Note_off_c, 2, 45, 64
4, 33120, Note_on_c, 2, 40, 127
4, 33312, Note_off_c, 2, 40, 64
4, 33600, Note_on_c, 2, 47, 127
4, 33792, Note_off_c, 2, 47, 64
4, 34080, Note_on_c, 2, 42, 127
4, 34176, Note_off_c, 2, 42, 64
4, 34320, Note_on_c, 2, 47, 127
4, 34416, Note_off_c, 2, 47, 64
4, 34560, Note_on_c, 2, 40, 127
4, 34656, Note_off_c, 2, 40, 64
4, 34800, Note_on_c, 2, 45, 127
4, 34896, Note_off_c, 2, 45, 64
4, 35040, Note_on_c, 2, 50, 127
4, 35136, Note_off_c, 2, 50, 64
4, 35280, Note_on_c, 2, 52, 127
4, 35376, Note_off_c, 2, 52, 64
4, 35520, Note_on_c, 2, 45, 127
4, 35616, Note_off_c, 2, 45, 64
4, 35760, Note_on_c, 2, 50, 127
4, 35856, Note_off_c, 2, 50, 64
4, 36000, Note_on_c, 2, 55, 127
4, 36096, Note_off_c, 2, 55, 64
4, 36240, Note_on_c, 2, 57, 127
4, 36336, Note_off_c, 2, 57, 64
4, 36480, Note_on_c, 2, 50, 127
4, 36576, Note_off_c, 2, 50, 64
4, 36720, Note_on_c, 2, 55, 127
4, 36816, Note_off_c, 2, 55, 64
4, 36960, Note_on_c, 2, 48, 127
4, 37056, Note_off_c, 2, 48, 64
4, 37200, Note_on_c, 2, 50, 127
4, 37296, Note_off_c, 2, 50, 64
4, 37440, Note_on_c, 2, 55, 127
4, 37536, Note_off_c, 2, 55, 64
4, 37680, Note_on_c, 2, 49, 127
4, 37776, Note_off_c, 2, 49, 64
4, 37920, Note_on_c, 2, 50, 127
4, 38016, Note_off_c, 2, 50, 64
4, 38160, Note_on_c, 2, 51, 127
4, 38256, Note_off_c, 2, 51, 64
4, 38400, Note_on_c, 2, 52, 127
4, 38496, Note_off_c, 2, 52, 64
4, 38640, Note_on_c, 2, 51, 127
4, 38736, Note_off_c, 2, 51, 64
4, 38880, Note_on_c, 2, 54, 127
4, 38976, Note_off_c, 2, 54, 64
4, 39000, Note_on_c, 2, 42, 127
4, 39096, Note_off_c, 2, 42, 64
4, 39720, Note_on_c, 2, 54, 127
4, 39816, Note_off_c, 2, 54, 64
4, 39840, Note_on_c, 2, 47, 127
4, 39936, Note_off_c, 2, 47, 64
4, 39960, Note_on_c, 2, 54, 127
4, 40056, Note_off_c, 2, 54, 64
4, 40080, Note_on_c, 2, 50, 127
4, 40176, Note_off_c, 2, 50, 64
4, 40200, Note_on_c, 2, 54, 127
4, 40296, Note_off_c, 2, 54, 64
4, 40320, Note_on_c, 2, 47, 127
4, 40416, Note_off_c, 2, 47, 64
4, 40440, Note_on_c, 2, 46, 127
4, 40536, Note_off_c, 2, 46, 64
4, 40560, Note_on_c, 2, 47, 127
4, 40656, Note_off_c, 2, 47, 64
4, 40680, Note_on_c, 2, 44, 127
4, 40776, Note_off_c, 2, 44, 64
4, 40800, Note_on_c, 2, 45, 127
4, 40896, Note_off_c, 2, 45, 64
4, 40920, Note_on_c, 2, 52, 127
4, 41016, Note_off_c, 2, 52, 64
4, 41040, Note_on_c, 2, 49, 127
4, 41136, Note_off_c, 2, 49, 64
4, 41160, Note_on_c, 2, 52, 127
4, 41256, Note_off_c, 2, 52, 64
4, 41280, Note_on_c, 2, 45, 127
4, 41376, Note_off_c, 2, 45, 64
4, 41400, Note_on_c, 2, 44, 127
4, 41496, Note_off_c, 2, 44, 64
4, 41520, Note_on_c, 2, 45, 127
4, 41616, Note_off_c, 2, 45, 64
4, 41640, Note_on_c, 2, 42, 127
4, 41736, Note_off_c, 2, 42, 64
4, 41760, Note_on_c, 2, 43, 127
4, 41856, Note_off_c, 2, 43, 64
4, 42000, Note_on_c, 2, 45, 127
4, 42096, Note_off_c, 2, 45, 64
4, 42240, Note_on_c, 2, 43, 127
4, 42336, Note_off_c, 2, 43, 64
4, 42480, Note_on_c, 2, 42, 127
4, 42576, Note_off_c, 2, 42, 64
4, 42720, Note_on_c, 2, 40, 127
4, 42816, Note_off_c, 2, 40, 64
4, 42840, Note_on_c, 2, 43, 127
4, 42936, Note_off_c, 2, 43, 64
4, 42960, Note_on_c, 2, 48, 127
4, 43056, Note_off_c, 2, 48, 64
4, 43080, Note_on_c, 2, 47, 127
4, 43176, Note_off_c, 2, 47, 64
4, 43200, Note_on_c, 2, 45, 127
4, 43296, Note_off_c, 2, 45, 64
4, 43320, Note_on_c, 2, 43, 127
4, 43512, Note_off_c, 2, 43, 64
4, 43560, Note_on_c, 2, 42, 127
4, 43656, Note_off_c, 2, 42, 64
4, 43680, Note_on_c, 2, 40, 127
4, 43776, Note_off_c, 2, 40, 64
4, 43800, Note_on_c, 2, 59, 127
4, 43896, Note_off_c, 2, 59, 64
4, 43920, Note_on_c, 2, 55, 127
4, 44016, Note_off_c, 2, 55, 64
4, 44040, Note_on_c, 2, 59, 127
4, 44136, Note_off_c, 2, 59, 64
4, 44160, Note_on_c, 2, 52, 127
4, 44256, Note_off_c, 2, 52, 64
4, 44280, Note_on_c, 2, 51, 127
4, 44376, Note_off_c, 2, 51, 64
4, 44400, Note_on_c, 2, 52, 127
4, 44496, Note_off_c, 2, 52, 64
4, 44520, Note_on_c, 2, 49, 127
4, 44616, Note_off_c, 2, 49, 64
4, 44640, Note_on_c, 2, 50, 127
4, 44736, Note_off_c, 2, 50, 64
4, 44760, Note_on_c, 2, 57, 127
4, 44856, Note_off_c, 2, 57, 64
4, 44880, Note_on_c, 2, 54, 127
4, 44976, Note_off_c, 2, 54, 64
4, 45000, Note_on_c, 2, 57, 127
4, 45096, Note_off_c, 2, 57, 64
4, 45120, Note_on_c, 2, 50, 127
4, 45216, Note_off_c, 2, 50, 64
4, 45240, Note_on_c, 2, 49, 127
4, 45336, Note_off_c, 2, 49, 64
4, 45360, Note_on_c, 2, 50, 127
4, 45456, Note_off_c, 2, 50, 64
4, 45480, Note_on_c, 2, 47, 127
4, 45576, Note_off_c, 2, 47, 64
4, 45600, Note_on_c, 2, 48, 127
4, 45696, Note_off_c, 2, 48, 64
4, 45840, Note_on_c, 2, 50, 127
4, 45936, Note_off_c, 2, 50, 64
4, 46080, Note_on_c, 2, 48, 127
4, 46176, Note_off_c, 2, 48, 64
4, 46320, Note_on_c, 2, 47, 127
4, 46416, Note_off_c, 2, 47, 64
4, 46560, Note_on_c, 2, 45, 127
4, 46656, Note_off_c, 2, 45, 64
4, 46800, Note_on_c, 2, 55, 127
4, 46896, Note_off_c, 2, 55, 64
4, 47040, Note_on_c, 2, 54, 127
4, 47136, Note_off_c, 2, 54, 64
4, 47280, Note_on_c, 2, 52, 127
4, 47376, Note_off_c, 2, 52, 64
4, 47520, Note_on_c, 2, 50, 127
4, 47616, Note_off_c, 2, 50, 64
4, 47760, Note_on_c, 2, 48, 127
4, 47856, Note_off_c, 2, 48, 64
4, 48000, Note_on_c, 2, 47, 127
4, 48096, Note_off_c, 2, 47, 64
4, 48240, Note_on_c, 2, 45, 127
4, 48336, Note_off_c, 2, 45, 64
4, 48480, Note_on_c, 2, 43, 127
4, 48576, Note_off_c, 2, 43, 64
4, 48720, Note_on_c, 2, 41, 127
4, 48816, Note_off_c, 2, 41, 64
4, 48960, Note_on_c, 2, 40, 127
4, 49056, Note_off_c, 2, 40, 64
4, 49200, Note_on_c, 2, 38, 127
4, 49296, Note_off_c, 2, 38, 64
4, 49440, Note_on_c, 2, 36, 127
4, 49632, Note_off_c, 2, 36, 64
4, 49680, Note_on_c, 2, 48, 127
4, 49872, Note_off_c, 2, 48, 64
4, 49920, Note_on_c, 2, 48, 127
4, 50112, Note_off_c, 2, 48, 64
4, 50160, Note_on_c, 2, 47, 127
4, 50352, Note_off_c, 2, 47, 64
4, 50400, Note_on_c, 2, 48, 127
4, 50592, Note_off_c, 2, 48, 64
4, 50760, Note_on_c, 2, 36, 127
4, 50856, Note_off_c, 2, 36, 64
4, 50880, Note_on_c, 2, 43, 127
4, 50976, Note_off_c, 2, 43, 64
4, 51000, Note_on_c, 2, 45, 127
4, 51096, Note_off_c, 2, 45, 64
4, 51120, Note_on_c, 2, 47, 127
4, 51216, Note_off_c, 2, 47, 64
4, 51240, Note_on_c, 2, 48, 127
4, 51336, Note_off_c, 2, 48, 64
4, 51360, Note_on_c, 2, 50, 127
4, 51456, Note_off_c, 2, 50, 64
4, 51480, Note_on_c, 2, 52, 127
4, 51576, Note_off_c, 2, 52, 64
4, 51600, Note_on_c, 2, 50, 127
4, 51696, Note_off_c, 2, 50, 64
4, 51720, Note_on_c, 2, 48, 127
4, 51816, Note_off_c, 2, 48, 64
4, 51840, Note_on_c, 2, 47, 127
4, 51936, Note_off_c, 2, 47, 64
4, 51960, Note_on_c, 2, 50, 127
4, 52056, Note_off_c, 2, 50, 64
4, 52080, Note_on_c, 2, 42, 127
4, 52176, Note_off_c, 2, 42, 64
4, 52200, Note_on_c, 2, 43, 127
4, 52296, Note_off_c, 2, 43, 64
4, 52320, Note_on_c, 2, 38, 127
4, 52416, Note_off_c, 2, 38, 64
4, 52440, Note_on_c, 2, 62, 127
4, 52536, Note_off_c, 2, 62, 64
4, 52560, Note_on_c, 2, 54, 127
4, 52656, Note_off_c, 2, 54, 64
4, 52680, Note_on_c, 2, 57, 127
4, 52776, Note_off_c, 2, 57, 64
4, 52800, Note_on_c, 2, 50, 127
4, 52896, Note_off_c, 2, 50, 64
4, 52920, Note_on_c, 2, 62, 127
4, 53016, Note_off_c, 2, 62, 64
4, 53040, Note_on_c, 2, 54, 127
4, 53136, Note_off_c, 2, 54, 64
4, 53160, Note_on_c, 2, 57, 127
4, 53256, Note_off_c, 2, 57, 64
4, 53280, Note_on_c, 2, 50, 127
4, 53376, Note_off_c, 2, 50, 64
4, 53400, Note_on_c, 2, 62, 127
4, 53496, Note_off_c, 2, 62, 64
4, 53520, Note_on_c, 2, 54, 127
4, 53616, Note_off_c, 2, 54, 64
4, 53640, Note_on_c, 2, 57, 127
4, 53736, Note_off_c, 2, 57, 64
4, 53760, Note_on_c, 2, 50, 127
4, 53856, Note_off_c, 2, 50, 64
4, 53880, Note_on_c, 2, 48, 127
4, 53976, Note_off_c, 2, 48, 64
4, 54000, Note_on_c, 2, 47, 127
4, 54096, Note_off_c, 2, 47, 64
4, 54120, Note_on_c, 2, 50, 127
4, 54216, Note_off_c, 2, 50, 64
4, 54240, Note_on_c, 2, 43, 127
4, 54336, Note_off_c, 2, 43, 64
4, 54360, Note_on_c, 2, 45, 127
4, 54456, Note_off_c, 2, 45, 64
4, 54480, Note_on_c, 2, 47, 127
4, 54576, Note_off_c, 2, 47, 64
4, 54600, Note_on_c, 2, 48, 127
4, 54696, Note_off_c, 2, 48, 64
4, 54720, Note_on_c, 2, 50, 127
4, 54816, Note_off_c, 2, 50, 64
4, 54840, Note_on_c, 2, 52, 127
4, 54936, Note_off_c, 2, 52, 64
4, 54960, Note_on_c, 2, 50, 127
4, 55056, Note_off_c, 2, 50, 64
4, 55080, Note_on_c, 2, 48, 127
4, 55176, Note_off_c, 2, 48, 64
4, 55200, Note_on_c, 2, 47, 127
4, 55296, Note_off_c, 2, 47, 64
4, 55320, Note_on_c, 2, 50, 127
4, 55416, Note_off_c, 2, 50, 64
4, 55440, Note_on_c, 2, 42, 127
4, 55536, Note_off_c, 2, 42, 64
4, 55560, Note_on_c, 2, 43, 127
4, 55656, Note_off_c, 2, 43, 64
4, 55680, Note_on_c, 2, 50, 127
4, 55776, Note_off_c, 2, 50, 64
4, 55800, Note_on_c, 2, 52, 127
4, 55896, Note_off_c, 2, 52, 64
4, 55920, Note_on_c, 2, 54, 127
4, 56016, Note_off_c, 2, 54, 64
4, 56040, Note_on_c, 2, 55, 127
4, 56136, Note_off_c, 2, 55, 64
4, 56160, Note_on_c, 2, 57, 127
4, 56256, Note_off_c, 2, 57, 64
4, 56280, Note_on_c, 2, 59, 127
4, 56376, Note_off_c, 2, 59, 64
4, 56400, Note_on_c, 2, 57, 127
4, 56496, Note_off_c, 2, 57, 64
4, 56520, Note_on_c, 2, 55, 127
4, 56616, Note_off_c, 2, 55, 64
4, 56640, Note_on_c, 2, 54, 127
4, 56736, Note_off_c, 2, 54, 64
4, 56760, Note_on_c, 2, 57, 127
4, 56856, Note_off_c, 2, 57, 64
4, 56880, Note_on_c, 2, 49, 127
4, 56976, Note_off_c, 2, 49, 64
4, 57000, Note_on_c, 2, 50, 127
4, 57096, Note_off_c, 2, 50, 64
4, 57120, Note_on_c, 2, 45, 127
4, 57216, Note_off_c, 2, 45, 64
4, 57240, Note_on_c, 2, 57, 127
4, 57336, Note_off_c, 2, 57, 64
4, 57360, Note_on_c, 2, 49, 127
4, 57456, Note_off_c, 2, 49, 64
4, 57480, Note_on_c, 2, 52, 127
4, 57576, Note_off_c, 2, 52, 64
4, 57600, Note_on_c, 2, 45, 127
4, 57696, Note_off_c, 2, 45, 64
4, 57720, Note_on_c, 2, 57, 127
4, 57816, Note_off_c, 2, 57, 64
4, 57840, Note_on_c, 2, 49, 127
4, 57936, Note_off_c, 2, 49, 64
4, 57960, Note_on_c, 2, 52, 127
4, 58056, Note_off_c, 2, 52, 64
4, 58080, Note_on_c, 2, 45, 127
4, 58176, Note_off_c, 2, 45, 64
4, 58200, Note_on_c, 2, 57, 127
4, 58296, Note_off_c, 2, 57, 64
4, 58320, Note_on_c, 2, 49, 127
4, 58416, Note_off_c, 2, 49, 64
4, 58440, Note_on_c, 2, 52, 127
4, 58536, Note_off_c, 2, 52, 64
4, 58560, Note_on_c, 2, 45, 127
4, 58656, Note_off_c, 2, 45, 64
4, 58680, Note_on_c, 2, 55, 127
4, 58776, Note_off_c, 2, 55, 64
4, 58800, Note_on_c, 2, 54, 127
4, 58896, Note_off_c, 2, 54, 64
4, 58920, Note_on_c, 2, 57, 127
4, 59016, Note_off_c, 2, 57, 64
4, 59040, Note_on_c, 2, 50, 127
4, 59136, Note_off_c, 2, 50, 64
4, 59160, Note_on_c, 2, 59, 127
4, 59256, Note_off_c, 2, 59, 64
4, 59280, Note_on_c, 2, 51, 127
4, 59376, Note_off_c, 2, 51, 64
4, 59400, Note_on_c, 2, 54, 127
4, 59496, Note_off_c, 2, 54, 64
4, 59520, Note_on_c, 2, 47, 127
4, 59616, Note_off_c, 2, 47, 64
4, 59640, Note_on_c, 2, 59, 127
4, 59736, Note_off_c, 2, 59, 64
4, 59760, Note_on_c, 2, 51, 127
4, 59856, Note_off_c, 2, 51, 64
4, 59880, Note_on_c, 2, 54, 127
4, 59976, Note_off_c, 2, 54, 64
4, 60000, Note_on_c, 2, 47, 127
4, 60096, Note_off_c, 2, 47, 64
4, 60120, Note_on_c, 2, 59, 127
4, 60216, Note_off_c, 2, 59, 64
4, 60240, Note_on_c, 2, 51, 127
4, 60336, Note_off_c, 2, 51, 64
4, 60360, Note_on_c, 2, 54, 127
4, 60456, Note_off_c, 2, 54, 64
4, 60480, Note_on_c, 2, 47, 127
4, 60576, Note_off_c, 2, 47, 64
4, 60600, Note_on_c, 2, 57, 127
4, 60696, Note_off_c, 2, 57, 64
4, 60720, Note_on_c, 2, 55, 127
4, 60816, Note_off_c, 2, 55, 64
4, 60840, Note_on_c, 2, 59, 127
4, 60936, Note_off_c, 2, 59, 64
4, 60960, Note_on_c, 2, 52, 127
4, 61056, Note_off_c, 2, 52, 64
4, 61080, Note_on_c, 2, 50, 127
4, 61176, Note_off_c, 2, 50, 64
4, 61200, Note_on_c, 2, 49, 127
4, 61296, Note_off_c, 2, 49, 64
4, 61320, Note_on_c, 2, 45, 127
4, 61416, Note_off_c, 2, 45, 64
4, 61440, Note_on_c, 2, 50, 127
4, 61536, Note_off_c, 2, 50, 64
4, 61560, Note_on_c, 2, 48, 127
4, 61656, Note_off_c, 2, 48, 64
4, 61680, Note_on_c, 2, 47, 127
4, 61776, Note_off_c, 2, 47, 64
4, 61800, Note_on_c, 2, 43, 127
4, 61896, Note_off_c, 2, 43, 64
4, 61920, Note_on_c, 2, 48, 127
4, 62016, Note_off_c, 2, 48, 64
4, 62040, Note_on_c, 2, 40, 127
4, 62136, Note_off_c, 2, 40, 64
4, 62160, Note_on_c, 2, 42, 127
4, 62256, Note_off_c, 2, 42, 64
4, 62280, Note_on_c, 2, 38, 127
4, 62376, Note_off_c, 2, 38, 64
4, 62400, Note_on_c, 2, 43, 127
4, 62496, Note_off_c, 2, 43, 64
4, 62520, Note_on_c, 2, 50, 127
4, 62616, Note_off_c, 2, 50, 64
4, 62640, Note_on_c, 2, 42, 127
4, 62736, Note_off_c, 2, 42, 64
4, 62760, Note_on_c, 2, 43, 127
4, 62856, Note_off_c, 2, 43, 64
4, 62880, Note_on_c, 2, 38, 127
4, 63072, Note_off_c, 2, 38, 64
4, 63360, Note_on_c, 2, 55, 127
4, 63648, Note_off_c, 2, 55, 64
4, 63720, Note_on_c, 2, 57, 127
4, 63816, Note_off_c, 2, 57, 64
4, 63840, Note_on_c, 2, 50, 127
4, 63936, Note_off_c, 2, 50, 64
4, 63960, Note_on_c, 2, 60, 127
4, 64056, Note_off_c, 2, 60, 64
4, 64080, Note_on_c, 2, 59, 127
4, 64176, Note_off_c, 2, 59, 64
4, 64200, Note_on_c, 2, 57, 127
4, 64296, Note_off_c, 2, 57, 64
4, 64320, Note_on_c, 2, 59, 127
4, 64416, Note_off_c, 2, 59, 64
4, 64440, Note_on_c, 2, 62, 127
4, 64536, Note_off_c, 2, 62, 64
4, 64560, Note_on_c, 2, 60, 127
4, 64656, Note_off_c, 2, 60, 64
4, 64680, Note_on_c, 2, 59, 127
4, 64776, Note_off_c, 2, 59, 64
4, 64800, Note_on_c, 2, 57, 127
4, 64896, Note_off_c, 2, 57, 64
4, 64920, Note_on_c, 2, 54, 127
4, 65016, Note_off_c, 2, 54, 64
4, 65160, Note_on_c, 2, 51, 127
4, 65256, Note_off_c, 2, 51, 64
4, 65280, Note_on_c, 2, 52, 127
4, 65568, Note_off_c, 2, 52, 64
4, 65640, Note_on_c, 2, 54, 127
4, 65736, Note_off_c, 2, 54, 64
4, 65760, Note_on_c, 2, 47, 127
4, 65856, Note_off_c, 2, 47, 64
4, 65880, Note_on_c, 2, 57, 127
4, 65976, Note_off_c, 2, 57, 64
4, 66000, Note_on_c, 2, 55, 127
4, 66096, Note_off_c, 2, 55, 64
4, 66120, Note_on_c, 2, 54, 127
4, 66216, Note_off_c, 2, 54, 64
4, 66240, Note_on_c, 2, 55, 127
4, 66336, Note_off_c, 2, 55, 64
4, 66360, Note_on_c, 2, 59, 127
4, 66456, Note_off_c, 2, 59, 64
4, 66480, Note_on_c, 2, 57, 127
4, 66576, Note_off_c, 2, 57, 64
4, 66600, Note_on_c, 2, 55, 127
4, 66696, Note_off_c, 2, 55, 64
4, 66720, Note_on_c, 2, 54, 127
4, 66816, Note_off_c, 2, 54, 64
4, 66840, Note_on_c, 2, 47, 127
4, 66936, Note_off_c, 2, 47, 64
4, 67080, Note_on_c, 2, 47, 127
4, 67176, Note_off_c, 2, 47, 64
4, 67200, Note_on_c, 2, 48, 127
4, 67488, Note_off_c, 2, 48, 64
4, 67560, Note_on_c, 2, 50, 127
4, 67656, Note_off_c, 2, 50, 64
4, 67680, Note_on_c, 2, 43, 127
4, 67776, Note_off_c, 2, 43, 64
4, 67800, Note_on_c, 2, 53, 127
4, 67896, Note_off_c, 2, 53, 64
4, 67920, Note_on_c, 2, 52, 127
4, 68016, Note_off_c, 2, 52, 64
4, 68040, Note_on_c, 2, 50, 127
4, 68136, Note_off_c, 2, 50, 64
4, 68160, Note_on_c, 2, 52, 127
4, 68256, Note_off_c, 2, 52, 64
4, 68280, Note_on_c, 2, 55, 127
4, 68376, Note_off_c, 2, 55, 64
4, 68400, Note_on_c, 2, 54, 127
4, 68496, Note_off_c, 2, 54, 64
4, 68520, Note_on_c, 2, 52, 127
4, 68616, Note_off_c, 2, 52, 64
4, 68640, Note_on_c, 2, 54, 127
4, 68736, Note_off_c, 2, 54, 64
4, 68760, Note_on_c, 2, 57, 127
4, 68856, Note_off_c, 2, 57, 64
4, 68880, Note_on_c, 2, 55, 127
4, 68976, Note_off_c, 2, 55, 64
4, 69000, Note_on_c, 2, 54, 127
4, 69096, Note_off_c, 2, 54, 64
4, 69120, Note_on_c, 2, 55, 127
4, 69216, Note_off_c, 2, 55, 64
4, 69240, Note_on_c, 2, 52, 127
4, 69336, Note_off_c, 2, 52, 64
4, 69360, Note_on_c, 2, 50, 127
4, 69456, Note_off_c, 2, 50, 64
4, 69480, Note_on_c, 2, 48, 127
4, 69576, Note_off_c, 2, 48, 64
4, 69600, Note_on_c, 2, 47, 127
4, 69696, Note_off_c, 2, 47, 64
4, 69720, Note_on_c, 2, 45, 127
4, 69816, Note_off_c, 2, 45, 64
4, 69840, Note_on_c, 2, 43, 127
4, 69936, Note_off_c, 2, 43, 64
4, 69960, Note_on_c, 2, 42, 127
4, 70056, Note_off_c, 2, 42, 64
4, 70080, Note_on_c, 2, 43, 127
4, 70176, Note_off_c, 2, 43, 64
4, 70200, Note_on_c, 2, 55, 127
4, 70296, Note_off_c, 2, 55, 64
4, 70320, Note_on_c, 2, 52, 127
4, 70416, Note_off_c, 2, 52, 64
4, 70440, Note_on_c, 2, 57, 127
4, 70536, Note_off_c, 2, 57, 64
4, 70560, Note_on_c, 2, 54, 127
4, 70656, Note_off_c, 2, 54, 64
4, 70680, Note_on_c, 2, 50, 127
4, 70776, Note_off_c, 2, 50, 64
4, 70920, Note_on_c, 2, 54, 127
4, 71016, Note_off_c, 2, 54, 64
4, 71040, Note_on_c, 2, 55, 127
4, 71136, Note_off_c, 2, 55, 64
4, 71160, Note_on_c, 2, 43, 127
4, 71256, Note_off_c, 2, 43, 64
4, 71280, Note_on_c, 2, 48, 127
4, 71376, Note_off_c, 2, 48, 64
4, 71400, Note_on_c, 2, 52, 127
4, 71496, Note_off_c, 2, 52, 64
4, 71520, Note_on_c, 2, 54, 127
4, 71616, Note_off_c, 2, 54, 64
4, 71640, Note_on_c, 2, 42, 127
4, 71736, Note_off_c, 2, 42, 64
4, 71760, Note_on_c, 2, 47, 127
4, 71856, Note_off_c, 2, 47, 64
4, 71880, Note_on_c, 2, 50, 127
4, 71976, Note_off_c, 2, 50, 64
4, 72000, Note_on_c, 2, 52, 127
4, 72096, Note_off_c, 2, 52, 64
4, 72120, Note_on_c, 2, 47, 127
4, 72216, Note_off_c, 2, 47, 64
4, 72240, Note_on_c, 2, 48, 127
4, 72336, Note_off_c, 2, 48, 64
4, 72360, Note_on_c, 2, 45, 127
4, 72456, Note_off_c, 2, 45, 64
4, 72480, Note_on_c, 2, 50, 127
4, 72576, Note_off_c, 2, 50, 64
4, 72600, Note_on_c, 2, 38, 127
4, 72696, Note_off_c, 2, 38, 64
4, 72840, Note_on_c, 2, 48, 127
4, 72936, Note_off_c, 2, 48, 64
4, 72960, Note_on_c, 2, 47, 127
4, 73056, Note_off_c, 2, 47, 64
4, 73080, Note_on_c, 2, 43, 127
4, 73176, Note_off_c, 2, 43, 64
4, 73200, Note_on_c, 2, 50, 127
4, 73296, Note_off_c, 2, 50, 64
4, 73320, Note_on_c, 2, 38, 127
4, 73416, Note_off_c, 2, 38, 64
4, 73440, Note_on_c, 2, 43, 127
4, 73824, Note_off_c, 2, 43, 64
4, 73824, End_track
0, 0, End_of_file
