0, 0, Header, 1, 17, 240
1, 0, Start_track
1, 0, Title_t, "Prelude in d minor"
1, 0, Title_t, "BWV 539.1"
1, 0, Copyright_t, "Copyright © 1996 by Jim Michmerhuizen.  All rights reserved."
1, 0, Text_t, "J.S.Bach: Prelude in d minor, BWV 539.1\012"
1, 0, Text_t, "Copyright c 1996 by Jim Michmerhuizen.  All rights reserved.\012"
1, 0, Text_t, "Send comments to: jamzen@world.std.com\012"
1, 0, Text_t, "More files at http://world.std.com/~jamzen/jsbach.html\012"
1, 0, Text_t, "96.02.27   score file\012"
1, 0, Text_t, "97.01.27   agogics\012"
1, 0, SMPTE_offset, 96, 0, 3, 0, 0
1, 0, Time_signature, 4, 2, 24, 8
1, 0, Key_signature, -1, "major"
1, 0, Tempo, 648228
1, 120, Tempo, 561798
1, 480, Tempo, 607349
1, 600, Tempo, 561798
1, 960, Tempo, 648228
1, 1080, Tempo, 561798
1, 1440, Tempo, 607349
1, 1560, Tempo, 561798
1, 1920, Tempo, 648228
1, 2040, Tempo, 561798
1, 2400, Tempo, 607349
1, 2520, Tempo, 561798
1, 2880, Tempo, 648228
1, 3000, Tempo, 561798
1, 3360, Tempo, 607349
1, 3480, Tempo, 561798
1, 3840, Tempo, 648228
1, 3960, Tempo, 561798
1, 4320, Tempo, 607349
1, 4440, Tempo, 561798
1, 4800, Tempo, 648228
1, 4920, Tempo, 561798
1, 5280, Tempo, 607349
1, 5400, Tempo, 561798
1, 5760, Tempo, 648228
1, 5880, Tempo, 561798
1, 6240, Tempo, 607349
1, 6360, Tempo, 561798
1, 6720, Tempo, 648228
1, 6840, Tempo, 561798
1, 7200, Tempo, 607349
1, 7320, Tempo, 561798
1, 7680, Tempo, 648228
1, 7800, Tempo, 561798
1, 8160, Tempo, 607349
1, 8280, Tempo, 561798
1, 8640, Tempo, 648228
1, 8760, Tempo, 561798
1, 9120, Tempo, 607349
1, 9240, Tempo, 561798
1, 9600, Tempo, 648228
1, 9720, Tempo, 561798
1, 10080, Tempo, 607349
1, 10200, Tempo, 561798
1, 10560, Tempo, 648228
1, 10680, Tempo, 561798
1, 11040, Tempo, 607349
1, 11160, Tempo, 561798
1, 11520, Tempo, 648228
1, 11640, Tempo, 561798
1, 12000, Tempo, 607349
1, 12120, Tempo, 561798
1, 12480, Tempo, 648228
1, 12600, Tempo, 561798
1, 12960, Tempo, 607349
1, 13080, Tempo, 561798
1, 13440, Tempo, 648228
1, 13560, Tempo, 561798
1, 13920, Tempo, 607349
1, 14040, Tempo, 561798
1, 14400, Tempo, 648228
1, 14520, Tempo, 561798
1, 14880, Tempo, 607349
1, 15000, Tempo, 561798
1, 15360, Tempo, 648228
1, 15480, Tempo, 561798
1, 15840, Tempo, 607349
1, 15960, Tempo, 561798
1, 16320, Tempo, 648228
1, 16440, Tempo, 561798
1, 16800, Tempo, 607349
1, 16920, Tempo, 561798
1, 17280, Tempo, 648228
1, 17400, Tempo, 561798
1, 17760, Tempo, 607349
1, 17880, Tempo, 561798
1, 18240, Tempo, 648228
1, 18360, Tempo, 561798
1, 18720, Tempo, 607349
1, 18840, Tempo, 561798
1, 19200, Tempo, 648228
1, 19320, Tempo, 561798
1, 19680, Tempo, 607349
1, 19800, Tempo, 561798
1, 20160, Tempo, 648228
1, 20280, Tempo, 561798
1, 20640, Tempo, 607349
1, 20760, Tempo, 561798
1, 21120, Tempo, 648228
1, 21240, Tempo, 561798
1, 21600, Tempo, 607349
1, 21720, Tempo, 561798
1, 22080, Tempo, 648228
1, 22200, Tempo, 561798
1, 22560, Tempo, 607349
1, 22680, Tempo, 561798
1, 23040, Tempo, 648228
1, 23160, Tempo, 561798
1, 23520, Tempo, 607349
1, 23640, Tempo, 561798
1, 24000, Tempo, 648228
1, 24120, Tempo, 561798
1, 24480, Tempo, 607349
1, 24600, Tempo, 561798
1, 24960, Tempo, 648228
1, 25080, Tempo, 561798
1, 25440, Tempo, 607349
1, 25560, Tempo, 561798
1, 25920, Tempo, 648228
1, 26040, Tempo, 561798
1, 26400, Tempo, 607349
1, 26520, Tempo, 561798
1, 26880, Tempo, 648228
1, 27000, Tempo, 561798
1, 27360, Tempo, 607349
1, 27480, Tempo, 561798
1, 27840, Tempo, 648228
1, 27960, Tempo, 561798
1, 28320, Tempo, 607349
1, 28440, Tempo, 561798
1, 28800, Tempo, 648228
1, 28920, Tempo, 561798
1, 29280, Tempo, 607349
1, 29400, Tempo, 561798
1, 29760, Tempo, 648228
1, 29880, Tempo, 561798
1, 30240, Tempo, 607349
1, 30360, Tempo, 561798
1, 30720, Tempo, 680967
1, 30840, Tempo, 576203
1, 31200, Tempo, 674157
1, 31320, Tempo, 601926
1, 31680, Tempo, 744879
1, 31800, Tempo, 648228
1, 31920, Tempo, 596599
1, 32160, Tempo, 561798
1, 32280, Tempo, 561798
1, 32640, Tempo, 648228
1, 32760, Tempo, 561798
1, 33120, Tempo, 607349
1, 33240, Tempo, 561798
1, 33600, Tempo, 695008
1, 33720, Tempo, 561798
1, 34080, Tempo, 607349
1, 34200, Tempo, 561798
1, 34560, Tempo, 687916
1, 34680, Tempo, 561798
1, 35040, Tempo, 607349
1, 35160, Tempo, 561798
1, 35520, Tempo, 648228
1, 35640, Tempo, 561798
1, 36000, Tempo, 607349
1, 36120, Tempo, 561798
1, 36480, Tempo, 648228
1, 36600, Tempo, 561798
1, 36960, Tempo, 607349
1, 37080, Tempo, 561798
1, 37440, Tempo, 717189
1, 37560, Tempo, 635997
1, 37680, Tempo, 586224
1, 37920, Tempo, 607349
1, 38040, Tempo, 561798
1, 38400, Tempo, 695008
1, 38520, Tempo, 615637
1, 38640, Tempo, 561798
1, 38880, Tempo, 607349
1, 39000, Tempo, 571320
1, 39360, Tempo, 695008
1, 39480, Tempo, 576203
1, 39780, Tempo, 802568
1, 39840, Tempo, 607349
1, 39960, Tempo, 578648
1, 40260, Tempo, 1105176
1, 40320, Tempo, 648228
1, 40320, End_track
2, 0, Start_track
2, 0, MIDI_port, 0
2, 0, Title_t, "soprano"
2, 0, Program_c, 0, 19
2, 0, Control_c, 0, 7, 127
2, 0, Control_c, 0, 10, 64
2, 0, Note_on_c, 0, 69, 64
2, 377, Note_on_c, 0, 69, 0
2, 480, Note_on_c, 0, 74, 64
2, 1199, Note_on_c, 0, 74, 0
2, 1200, Note_on_c, 0, 73, 64
2, 1312, Note_on_c, 0, 73, 0
2, 1320, Note_on_c, 0, 71, 64
2, 1440, Note_on_c, 0, 73, 64
2, 1454, Note_on_c, 0, 71, 0
2, 1900, Note_on_c, 0, 73, 0
2, 2040, Note_on_c, 0, 62, 64
2, 2160, Note_on_c, 0, 66, 64
2, 2167, Note_on_c, 0, 62, 0
2, 2268, Note_on_c, 0, 66, 0
2, 2280, Note_on_c, 0, 69, 64
2, 2392, Note_on_c, 0, 69, 0
2, 2400, Note_on_c, 0, 72, 64
2, 3120, Note_on_c, 0, 70, 64
2, 3162, Note_on_c, 0, 72, 0
2, 3240, Note_on_c, 0, 69, 64
2, 3265, Note_on_c, 0, 70, 0
2, 3344, Note_on_c, 0, 69, 0
2, 3360, Note_on_c, 0, 67, 64
2, 3480, Note_on_c, 0, 65, 64
2, 3491, Note_on_c, 0, 67, 0
2, 3600, Note_on_c, 0, 64, 64
2, 3604, Note_on_c, 0, 65, 0
2, 3720, Note_on_c, 0, 62, 64
2, 3726, Note_on_c, 0, 64, 0
2, 3835, Note_on_c, 0, 62, 0
2, 3840, Note_on_c, 0, 61, 64
2, 3946, Note_on_c, 0, 61, 0
2, 3960, Note_on_c, 0, 62, 64
2, 4080, Note_on_c, 0, 64, 64
2, 4083, Note_on_c, 0, 62, 0
2, 4200, Note_on_c, 0, 65, 64
2, 4206, Note_on_c, 0, 64, 0
2, 4317, Note_on_c, 0, 65, 0
2, 4320, Note_on_c, 0, 67, 64
2, 4927, Note_on_c, 0, 67, 0
2, 5040, Note_on_c, 0, 67, 64
2, 5280, Note_on_c, 0, 65, 64
2, 5288, Note_on_c, 0, 67, 0
2, 5760, Note_on_c, 0, 64, 64
2, 5766, Note_on_c, 0, 65, 0
2, 6282, Note_on_c, 0, 64, 0
2, 6360, Note_on_c, 0, 69, 64
2, 6480, Note_on_c, 0, 68, 64
2, 6488, Note_on_c, 0, 69, 0
2, 6585, Note_on_c, 0, 68, 0
2, 6600, Note_on_c, 0, 69, 64
2, 6701, Note_on_c, 0, 69, 0
2, 6720, Note_on_c, 0, 71, 64
2, 7200, Note_on_c, 0, 71, 0
2, 7320, Note_on_c, 0, 71, 64
2, 7434, Note_on_c, 0, 71, 0
2, 7440, Note_on_c, 0, 69, 64
2, 7547, Note_on_c, 0, 69, 0
2, 7560, Note_on_c, 0, 71, 64
2, 7680, Note_on_c, 0, 71, 0
2, 7680, Note_on_c, 0, 73, 64
2, 8232, Note_on_c, 0, 73, 0
2, 8280, Note_on_c, 0, 69, 64
2, 8395, Note_on_c, 0, 69, 0
2, 8400, Note_on_c, 0, 71, 64
2, 8520, Note_on_c, 0, 73, 64
2, 8527, Note_on_c, 0, 71, 0
2, 8639, Note_on_c, 0, 73, 0
2, 8640, Note_on_c, 0, 74, 64
2, 8640, Note_on_c, 0, 74, 64
2, 8744, Note_on_c, 0, 74, 0
2, 8747, Note_on_c, 0, 74, 0
2, 8760, Note_on_c, 0, 73, 64
2, 8868, Note_on_c, 0, 73, 0
2, 8880, Note_on_c, 0, 74, 64
2, 8992, Note_on_c, 0, 74, 0
2, 9000, Note_on_c, 0, 76, 64
2, 9117, Note_on_c, 0, 76, 0
2, 9120, Note_on_c, 0, 77, 64
2, 10122, Note_on_c, 0, 77, 0
2, 10200, Note_on_c, 0, 77, 64
2, 10320, Note_on_c, 0, 76, 64
2, 10338, Note_on_c, 0, 77, 0
2, 10440, Note_on_c, 0, 74, 64
2, 10450, Note_on_c, 0, 76, 0
2, 10560, Note_on_c, 0, 72, 64
2, 10584, Note_on_c, 0, 74, 0
2, 10680, Note_on_c, 0, 71, 64
2, 10683, Note_on_c, 0, 72, 0
2, 10800, Note_on_c, 0, 69, 64
2, 10821, Note_on_c, 0, 71, 0
2, 10920, Note_on_c, 0, 68, 64
2, 10921, Note_on_c, 0, 69, 0
2, 11028, Note_on_c, 0, 68, 0
2, 11040, Note_on_c, 0, 69, 64
2, 11160, Note_on_c, 0, 71, 64
2, 11188, Note_on_c, 0, 69, 0
2, 11280, Note_on_c, 0, 72, 64
2, 11301, Note_on_c, 0, 71, 0
2, 11395, Note_on_c, 0, 72, 0
2, 11400, Note_on_c, 0, 69, 64
2, 11520, Note_on_c, 0, 74, 64
2, 11522, Note_on_c, 0, 69, 0
2, 12586, Note_on_c, 0, 74, 0
2, 12720, Note_on_c, 0, 74, 64
2, 12945, Note_on_c, 0, 74, 0
2, 12960, Note_on_c, 0, 72, 64
2, 13440, Note_on_c, 0, 71, 64
2, 13451, Note_on_c, 0, 72, 0
2, 14517, Note_on_c, 0, 71, 0
2, 14520, Note_on_c, 0, 74, 64
2, 14640, Note_on_c, 0, 72, 64
2, 14642, Note_on_c, 0, 74, 0
2, 14760, Note_on_c, 0, 72, 0
2, 14760, Note_on_c, 0, 71, 64
2, 14874, Note_on_c, 0, 71, 0
2, 14880, Note_on_c, 0, 76, 64
2, 15480, Note_on_c, 0, 74, 64
2, 15500, Note_on_c, 0, 76, 0
2, 15595, Note_on_c, 0, 74, 0
2, 15600, Note_on_c, 0, 72, 64
2, 15708, Note_on_c, 0, 72, 0
2, 15720, Note_on_c, 0, 71, 64
2, 15836, Note_on_c, 0, 71, 0
2, 15840, Note_on_c, 0, 69, 64
2, 16433, Note_on_c, 0, 69, 0
2, 16440, Note_on_c, 0, 72, 64
2, 16557, Note_on_c, 0, 72, 0
2, 16560, Note_on_c, 0, 71, 64
2, 16675, Note_on_c, 0, 71, 0
2, 16680, Note_on_c, 0, 69, 64
2, 16793, Note_on_c, 0, 69, 0
2, 16800, Note_on_c, 0, 74, 64
2, 17400, Note_on_c, 0, 77, 64
2, 17405, Note_on_c, 0, 74, 0
2, 17520, Note_on_c, 0, 76, 64
2, 17525, Note_on_c, 0, 77, 0
2, 17627, Note_on_c, 0, 76, 0
2, 17640, Note_on_c, 0, 74, 64
2, 17760, Note_on_c, 0, 83, 64
2, 17761, Note_on_c, 0, 74, 0
2, 18480, Note_on_c, 0, 81, 64
2, 18531, Note_on_c, 0, 83, 0
2, 18600, Note_on_c, 0, 80, 64
2, 18611, Note_on_c, 0, 81, 0
2, 18720, Note_on_c, 0, 81, 64
2, 18733, Note_on_c, 0, 80, 0
2, 18938, Note_on_c, 0, 81, 0
2, 18960, Note_on_c, 0, 76, 64
2, 19200, Note_on_c, 0, 77, 64
2, 19212, Note_on_c, 0, 76, 0
2, 20209, Note_on_c, 0, 77, 0
2, 20280, Note_on_c, 0, 77, 64
2, 20400, Note_on_c, 0, 76, 64
2, 20408, Note_on_c, 0, 77, 0
2, 20520, Note_on_c, 0, 74, 64
2, 20532, Note_on_c, 0, 76, 0
2, 20640, Note_on_c, 0, 72, 64
2, 20659, Note_on_c, 0, 74, 0
2, 20760, Note_on_c, 0, 71, 64
2, 20765, Note_on_c, 0, 72, 0
2, 20880, Note_on_c, 0, 69, 64
2, 20901, Note_on_c, 0, 71, 0
2, 21000, Note_on_c, 0, 68, 64
2, 21009, Note_on_c, 0, 69, 0
2, 21113, Note_on_c, 0, 68, 0
2, 21120, Note_on_c, 0, 69, 64
2, 21480, Note_on_c, 0, 71, 64
2, 21484, Note_on_c, 0, 69, 0
2, 21531, Note_on_c, 0, 71, 0
2, 21600, Note_on_c, 0, 71, 64
2, 21938, Note_on_c, 0, 71, 0
2, 21960, Note_on_c, 0, 69, 64
2, 22012, Note_on_c, 0, 69, 0
2, 22080, Note_on_c, 0, 69, 64
2, 22364, Note_on_c, 0, 69, 0
2, 22560, Note_on_c, 0, 69, 64
2, 23160, Note_on_c, 0, 72, 64
2, 23171, Note_on_c, 0, 69, 0
2, 23280, Note_on_c, 0, 71, 64
2, 23281, Note_on_c, 0, 72, 0
2, 23399, Note_on_c, 0, 71, 0
2, 23400, Note_on_c, 0, 69, 64
2, 23514, Note_on_c, 0, 69, 0
2, 23520, Note_on_c, 0, 74, 64
2, 23760, Note_on_c, 0, 65, 64
2, 23762, Note_on_c, 0, 74, 0
2, 24000, Note_on_c, 0, 64, 64
2, 24025, Note_on_c, 0, 65, 0
2, 24228, Note_on_c, 0, 64, 0
2, 24240, Note_on_c, 0, 72, 64
2, 25012, Note_on_c, 0, 72, 0
2, 25080, Note_on_c, 0, 76, 64
2, 25189, Note_on_c, 0, 76, 0
2, 25200, Note_on_c, 0, 74, 64
2, 25316, Note_on_c, 0, 74, 0
2, 25320, Note_on_c, 0, 72, 64
2, 25438, Note_on_c, 0, 72, 0
2, 25440, Note_on_c, 0, 77, 64
2, 25680, Note_on_c, 0, 69, 64
2, 25689, Note_on_c, 0, 77, 0
2, 26160, Note_on_c, 0, 67, 64
2, 26165, Note_on_c, 0, 69, 0
2, 26329, Note_on_c, 0, 67, 0
2, 26400, Note_on_c, 0, 76, 64
2, 27000, Note_on_c, 0, 79, 64
2, 27015, Note_on_c, 0, 76, 0
2, 27115, Note_on_c, 0, 79, 0
2, 27120, Note_on_c, 0, 77, 64
2, 27229, Note_on_c, 0, 77, 0
2, 27240, Note_on_c, 0, 76, 64
2, 27356, Note_on_c, 0, 76, 0
2, 27360, Note_on_c, 0, 81, 64
2, 27583, Note_on_c, 0, 81, 0
2, 27600, Note_on_c, 0, 72, 64
2, 27832, Note_on_c, 0, 72, 0
2, 27840, Note_on_c, 0, 71, 64
2, 28206, Note_on_c, 0, 71, 0
2, 28320, Note_on_c, 0, 79, 64
2, 29520, Note_on_c, 0, 77, 64
2, 29524, Note_on_c, 0, 79, 0
2, 29907, Note_on_c, 0, 77, 0
2, 30000, Note_on_c, 0, 77, 64
2, 30240, Note_on_c, 0, 76, 64
2, 30254, Note_on_c, 0, 77, 0
2, 30480, Note_on_c, 0, 74, 64
2, 30493, Note_on_c, 0, 76, 0
2, 30720, Note_on_c, 0, 73, 64
2, 30739, Note_on_c, 0, 74, 0
2, 31232, Note_on_c, 0, 73, 0
2, 31800, Note_on_c, 0, 69, 64
2, 31920, Note_on_c, 0, 71, 64
2, 31928, Note_on_c, 0, 69, 0
2, 32040, Note_on_c, 0, 73, 64
2, 32060, Note_on_c, 0, 71, 0
2, 32160, Note_on_c, 0, 74, 64
2, 32166, Note_on_c, 0, 73, 0
2, 32880, Note_on_c, 0, 73, 64
2, 32920, Note_on_c, 0, 74, 0
2, 33000, Note_on_c, 0, 73, 0
2, 33000, Note_on_c, 0, 71, 64
2, 33119, Note_on_c, 0, 71, 0
2, 33120, Note_on_c, 0, 73, 64
2, 33589, Note_on_c, 0, 73, 0
2, 33720, Note_on_c, 0, 62, 64
2, 33840, Note_on_c, 0, 66, 64
2, 33848, Note_on_c, 0, 62, 0
2, 33952, Note_on_c, 0, 66, 0
2, 33960, Note_on_c, 0, 69, 64
2, 34055, Note_on_c, 0, 69, 0
2, 34080, Note_on_c, 0, 72, 64
2, 34800, Note_on_c, 0, 70, 64
2, 34823, Note_on_c, 0, 72, 0
2, 34920, Note_on_c, 0, 70, 0
2, 34920, Note_on_c, 0, 69, 64
2, 35030, Note_on_c, 0, 69, 0
2, 35040, Note_on_c, 0, 67, 64
2, 35160, Note_on_c, 0, 65, 64
2, 35167, Note_on_c, 0, 67, 0
2, 35280, Note_on_c, 0, 64, 64
2, 35284, Note_on_c, 0, 65, 0
2, 35400, Note_on_c, 0, 62, 64
2, 35405, Note_on_c, 0, 64, 0
2, 35514, Note_on_c, 0, 62, 0
2, 35520, Note_on_c, 0, 61, 64
2, 35638, Note_on_c, 0, 61, 0
2, 35640, Note_on_c, 0, 62, 64
2, 35760, Note_on_c, 0, 64, 64
2, 35771, Note_on_c, 0, 62, 0
2, 35880, Note_on_c, 0, 64, 0
2, 35880, Note_on_c, 0, 65, 64
2, 36000, Note_on_c, 0, 67, 64
2, 36002, Note_on_c, 0, 65, 0
2, 36616, Note_on_c, 0, 67, 0
2, 36720, Note_on_c, 0, 67, 64
2, 36939, Note_on_c, 0, 67, 0
2, 36960, Note_on_c, 0, 65, 64
2, 37450, Note_on_c, 0, 65, 0
2, 37560, Note_on_c, 0, 64, 64
2, 37680, Note_on_c, 0, 68, 64
2, 37701, Note_on_c, 0, 64, 0
2, 37793, Note_on_c, 0, 68, 0
2, 37800, Note_on_c, 0, 71, 64
2, 37919, Note_on_c, 0, 71, 0
2, 37920, Note_on_c, 0, 74, 64
2, 38040, Note_on_c, 0, 77, 64
2, 38042, Note_on_c, 0, 74, 0
2, 38160, Note_on_c, 0, 76, 64
2, 38180, Note_on_c, 0, 77, 0
2, 38280, Note_on_c, 0, 74, 64
2, 38292, Note_on_c, 0, 76, 0
2, 38400, Note_on_c, 0, 73, 64
2, 38413, Note_on_c, 0, 74, 0
2, 38520, Note_on_c, 0, 70, 64
2, 38527, Note_on_c, 0, 73, 0
2, 38610, Note_on_c, 0, 70, 0
2, 38640, Note_on_c, 0, 69, 64
2, 38760, Note_on_c, 0, 67, 64
2, 38802, Note_on_c, 0, 69, 0
2, 38880, Note_on_c, 0, 65, 64
2, 38898, Note_on_c, 0, 67, 0
2, 39000, Note_on_c, 0, 64, 64
2, 39003, Note_on_c, 0, 65, 0
2, 39120, Note_on_c, 0, 62, 64
2, 39142, Note_on_c, 0, 64, 0
2, 39236, Note_on_c, 0, 62, 0
2, 39240, Note_on_c, 0, 61, 64
2, 39360, Note_on_c, 0, 62, 64
2, 39372, Note_on_c, 0, 61, 0
2, 39714, Note_on_c, 0, 62, 0
2, 39720, Note_on_c, 0, 64, 64
2, 39777, Note_on_c, 0, 64, 0
2, 39840, Note_on_c, 0, 64, 64
2, 40159, Note_on_c, 0, 64, 0
2, 40200, Note_on_c, 0, 62, 64
2, 40260, Note_on_c, 0, 62, 0
2, 40320, Note_on_c, 0, 62, 64
2, 41299, Note_on_c, 0, 62, 0
2, 41299, End_track
3, 0, Start_track
3, 0, MIDI_port, 0
3, 0, Title_t, "alto"
3, 0, Program_c, 1, 19
3, 0, Control_c, 1, 7, 127
3, 0, Control_c, 1, 10, 64
3, 0, Note_on_c, 1, 65, 64
3, 472, Note_on_c, 1, 65, 0
3, 480, Note_on_c, 1, 69, 64
3, 960, Note_on_c, 1, 67, 64
3, 1001, Note_on_c, 1, 69, 0
3, 1921, Note_on_c, 1, 67, 0
3, 2280, Note_on_c, 1, 69, 64
3, 3028, Note_on_c, 1, 69, 0
3, 3840, Note_on_c, 1, 61, 64
3, 4344, Note_on_c, 1, 61, 0
3, 4565, Note_on_c, 1, 64, 64
3, 4931, Note_on_c, 1, 64, 0
3, 5040, Note_on_c, 1, 64, 64
3, 5266, Note_on_c, 1, 64, 0
3, 5280, Note_on_c, 1, 62, 64
3, 5785, Note_on_c, 1, 62, 0
3, 7680, Note_on_c, 1, 69, 64
3, 8149, Note_on_c, 1, 69, 0
3, 9120, Note_on_c, 1, 74, 64
3, 10092, Note_on_c, 1, 74, 0
3, 11760, Note_on_c, 1, 66, 64
3, 11995, Note_on_c, 1, 66, 0
3, 12000, Note_on_c, 1, 68, 64
3, 12240, Note_on_c, 1, 68, 0
3, 12240, Note_on_c, 1, 69, 64
3, 12480, Note_on_c, 1, 71, 64
3, 12499, Note_on_c, 1, 69, 0
3, 12648, Note_on_c, 1, 71, 0
3, 12720, Note_on_c, 1, 71, 64
3, 13196, Note_on_c, 1, 71, 0
3, 13200, Note_on_c, 1, 69, 64
3, 13460, Note_on_c, 1, 69, 0
3, 13560, Note_on_c, 1, 69, 64
3, 13680, Note_on_c, 1, 68, 64
3, 13691, Note_on_c, 1, 69, 0
3, 13800, Note_on_c, 1, 66, 64
3, 13805, Note_on_c, 1, 68, 0
3, 13909, Note_on_c, 1, 66, 0
3, 13920, Note_on_c, 1, 68, 64
3, 14619, Note_on_c, 1, 68, 0
3, 15120, Note_on_c, 1, 68, 64
3, 15360, Note_on_c, 1, 69, 64
3, 15373, Note_on_c, 1, 68, 0
3, 15863, Note_on_c, 1, 69, 0
3, 15960, Note_on_c, 1, 67, 64
3, 16067, Note_on_c, 1, 67, 0
3, 16080, Note_on_c, 1, 65, 64
3, 16200, Note_on_c, 1, 64, 64
3, 16204, Note_on_c, 1, 65, 0
3, 16317, Note_on_c, 1, 64, 0
3, 16320, Note_on_c, 1, 62, 64
3, 16794, Note_on_c, 1, 62, 0
3, 16920, Note_on_c, 1, 72, 64
3, 17040, Note_on_c, 1, 71, 64
3, 17056, Note_on_c, 1, 72, 0
3, 17160, Note_on_c, 1, 69, 64
3, 17168, Note_on_c, 1, 71, 0
3, 17280, Note_on_c, 1, 68, 64
3, 17291, Note_on_c, 1, 69, 0
3, 17759, Note_on_c, 1, 68, 0
3, 18000, Note_on_c, 1, 76, 64
3, 18000, Note_on_c, 1, 80, 64
3, 18474, Note_on_c, 1, 80, 0
3, 18474, Note_on_c, 1, 76, 0
3, 18960, Note_on_c, 1, 72, 64
3, 19256, Note_on_c, 1, 72, 0
3, 19320, Note_on_c, 1, 76, 64
3, 19440, Note_on_c, 1, 74, 64
3, 19442, Note_on_c, 1, 76, 0
3, 19555, Note_on_c, 1, 74, 0
3, 19560, Note_on_c, 1, 72, 64
3, 19679, Note_on_c, 1, 72, 0
3, 19680, Note_on_c, 1, 71, 64
3, 19797, Note_on_c, 1, 71, 0
3, 19800, Note_on_c, 1, 69, 64
3, 19920, Note_on_c, 1, 68, 64
3, 19924, Note_on_c, 1, 69, 0
3, 20040, Note_on_c, 1, 69, 64
3, 20046, Note_on_c, 1, 68, 0
3, 20160, Note_on_c, 1, 71, 64
3, 20169, Note_on_c, 1, 69, 0
3, 20672, Note_on_c, 1, 71, 0
3, 20880, Note_on_c, 1, 62, 64
3, 21120, Note_on_c, 1, 60, 64
3, 21158, Note_on_c, 1, 62, 0
3, 21347, Note_on_c, 1, 60, 0
3, 21360, Note_on_c, 1, 65, 64
3, 21599, Note_on_c, 1, 65, 0
3, 21600, Note_on_c, 1, 64, 64
3, 21840, Note_on_c, 1, 62, 64
3, 21841, Note_on_c, 1, 64, 0
3, 22311, Note_on_c, 1, 62, 0
3, 22320, Note_on_c, 1, 60, 64
3, 22537, Note_on_c, 1, 60, 0
3, 22560, Note_on_c, 1, 65, 64
3, 23526, Note_on_c, 1, 65, 0
3, 23760, Note_on_c, 1, 62, 64
3, 24240, Note_on_c, 1, 60, 64
3, 24255, Note_on_c, 1, 62, 0
3, 24461, Note_on_c, 1, 60, 0
3, 24480, Note_on_c, 1, 69, 64
3, 25436, Note_on_c, 1, 69, 0
3, 25680, Note_on_c, 1, 65, 64
3, 26160, Note_on_c, 1, 64, 64
3, 26161, Note_on_c, 1, 65, 0
3, 26400, Note_on_c, 1, 64, 0
3, 26400, Note_on_c, 1, 72, 64
3, 27388, Note_on_c, 1, 72, 0
3, 27600, Note_on_c, 1, 69, 64
3, 28059, Note_on_c, 1, 69, 0
3, 28080, Note_on_c, 1, 67, 64
3, 28304, Note_on_c, 1, 67, 0
3, 28440, Note_on_c, 1, 77, 64
3, 28560, Note_on_c, 1, 76, 64
3, 28578, Note_on_c, 1, 77, 0
3, 28680, Note_on_c, 1, 74, 64
3, 28706, Note_on_c, 1, 76, 0
3, 28798, Note_on_c, 1, 74, 0
3, 28800, Note_on_c, 1, 76, 64
3, 28920, Note_on_c, 1, 74, 64
3, 28932, Note_on_c, 1, 76, 0
3, 29035, Note_on_c, 1, 74, 0
3, 29040, Note_on_c, 1, 73, 64
3, 29160, Note_on_c, 1, 76, 64
3, 29167, Note_on_c, 1, 73, 0
3, 29278, Note_on_c, 1, 76, 0
3, 29280, Note_on_c, 1, 69, 64
3, 29836, Note_on_c, 1, 69, 0
3, 30000, Note_on_c, 1, 69, 64
3, 30235, Note_on_c, 1, 69, 0
3, 30240, Note_on_c, 1, 67, 64
3, 30985, Note_on_c, 1, 67, 0
3, 31800, Note_on_c, 1, 69, 64
3, 32640, Note_on_c, 1, 67, 64
3, 32659, Note_on_c, 1, 69, 0
3, 33613, Note_on_c, 1, 67, 0
3, 33960, Note_on_c, 1, 69, 64
3, 34784, Note_on_c, 1, 69, 0
3, 34800, Note_on_c, 1, 67, 64
3, 35014, Note_on_c, 1, 67, 0
3, 36240, Note_on_c, 1, 64, 64
3, 36539, Note_on_c, 1, 64, 0
3, 36720, Note_on_c, 1, 64, 64
3, 36952, Note_on_c, 1, 64, 0
3, 36960, Note_on_c, 1, 62, 64
3, 37488, Note_on_c, 1, 62, 0
3, 39120, Note_on_c, 1, 55, 64
3, 39360, Note_on_c, 1, 53, 64
3, 39375, Note_on_c, 1, 55, 0
3, 39600, Note_on_c, 1, 58, 64
3, 39604, Note_on_c, 1, 53, 0
3, 39840, Note_on_c, 1, 57, 64
3, 39843, Note_on_c, 1, 58, 0
3, 40135, Note_on_c, 1, 57, 0
3, 40320, Note_on_c, 1, 57, 64
3, 40320, Note_on_c, 1, 53, 64
3, 41298, Note_on_c, 1, 53, 0
3, 41298, Note_on_c, 1, 57, 0
3, 41298, End_track
4, 0, Start_track
4, 0, MIDI_port, 0
4, 0, Title_t, "tenor"
4, 0, Program_c, 2, 19
4, 0, Control_c, 2, 7, 127
4, 0, Control_c, 2, 10, 64
4, 0, Note_on_c, 2, 62, 64
4, 480, Note_on_c, 2, 65, 64
4, 492, Note_on_c, 2, 62, 0
4, 960, Note_on_c, 2, 64, 64
4, 975, Note_on_c, 2, 65, 0
4, 1918, Note_on_c, 2, 64, 0
4, 2040, Note_on_c, 2, 62, 64
4, 3367, Note_on_c, 2, 62, 0
4, 4560, Note_on_c, 2, 61, 64
4, 4774, Note_on_c, 2, 61, 0
4, 4800, Note_on_c, 2, 57, 64
4, 5268, Note_on_c, 2, 57, 0
4, 5280, Note_on_c, 2, 62, 64
4, 5780, Note_on_c, 2, 62, 0
4, 5880, Note_on_c, 2, 62, 64
4, 5995, Note_on_c, 2, 62, 0
4, 6000, Note_on_c, 2, 60, 64
4, 6099, Note_on_c, 2, 60, 0
4, 6120, Note_on_c, 2, 59, 64
4, 6240, Note_on_c, 2, 60, 64
4, 6245, Note_on_c, 2, 59, 0
4, 6720, Note_on_c, 2, 62, 64
4, 6775, Note_on_c, 2, 60, 0
4, 6939, Note_on_c, 2, 62, 0
4, 6960, Note_on_c, 2, 59, 64
4, 7181, Note_on_c, 2, 59, 0
4, 7200, Note_on_c, 2, 64, 64
4, 8280, Note_on_c, 2, 69, 64
4, 8290, Note_on_c, 2, 64, 0
4, 9269, Note_on_c, 2, 69, 0
4, 9360, Note_on_c, 2, 69, 64
4, 9600, Note_on_c, 2, 71, 64
4, 9609, Note_on_c, 2, 69, 0
4, 10103, Note_on_c, 2, 71, 0
4, 10320, Note_on_c, 2, 56, 64
4, 10545, Note_on_c, 2, 56, 0
4, 10560, Note_on_c, 2, 57, 64
4, 10784, Note_on_c, 2, 57, 0
4, 10800, Note_on_c, 2, 59, 64
4, 10992, Note_on_c, 2, 59, 0
4, 11040, Note_on_c, 2, 52, 64
4, 11271, Note_on_c, 2, 52, 0
4, 11280, Note_on_c, 2, 57, 64
4, 11524, Note_on_c, 2, 57, 0
4, 12720, Note_on_c, 2, 64, 64
4, 14636, Note_on_c, 2, 64, 0
4, 18000, Note_on_c, 2, 74, 64
4, 18232, Note_on_c, 2, 74, 0
4, 18240, Note_on_c, 2, 72, 64
4, 18738, Note_on_c, 2, 72, 0
4, 18960, Note_on_c, 2, 69, 64
4, 19594, Note_on_c, 2, 69, 0
4, 20880, Note_on_c, 2, 59, 64
4, 21099, Note_on_c, 2, 59, 0
4, 21120, Note_on_c, 2, 57, 64
4, 21819, Note_on_c, 2, 57, 0
4, 21840, Note_on_c, 2, 56, 64
4, 22080, Note_on_c, 2, 57, 64
4, 22083, Note_on_c, 2, 56, 0
4, 22571, Note_on_c, 2, 57, 0
4, 29520, Note_on_c, 2, 74, 64
4, 29740, Note_on_c, 2, 74, 0
4, 29760, Note_on_c, 2, 70, 64
4, 30957, Note_on_c, 2, 70, 0
4, 30960, Note_on_c, 2, 69, 64
4, 31075, Note_on_c, 2, 69, 0
4, 31080, Note_on_c, 2, 67, 64
4, 31200, Note_on_c, 2, 67, 0
4, 31200, Note_on_c, 2, 69, 64
4, 31320, Note_on_c, 2, 67, 64
4, 31328, Note_on_c, 2, 69, 0
4, 31440, Note_on_c, 2, 65, 64
4, 31441, Note_on_c, 2, 67, 0
4, 31560, Note_on_c, 2, 64, 64
4, 31561, Note_on_c, 2, 65, 0
4, 31673, Note_on_c, 2, 64, 0
4, 31680, Note_on_c, 2, 65, 64
4, 32640, Note_on_c, 2, 64, 64
4, 32678, Note_on_c, 2, 65, 0
4, 33590, Note_on_c, 2, 64, 0
4, 33720, Note_on_c, 2, 62, 64
4, 35035, Note_on_c, 2, 62, 0
4, 36360, Note_on_c, 2, 61, 64
4, 36479, Note_on_c, 2, 61, 0
4, 36480, Note_on_c, 2, 57, 64
4, 37458, Note_on_c, 2, 57, 0
4, 37680, Note_on_c, 2, 47, 64
4, 37904, Note_on_c, 2, 47, 0
4, 37920, Note_on_c, 2, 52, 64
4, 38639, Note_on_c, 2, 52, 0
4, 39120, Note_on_c, 2, 52, 64
4, 39354, Note_on_c, 2, 52, 0
4, 39360, Note_on_c, 2, 50, 64
4, 39998, Note_on_c, 2, 50, 0
4, 40080, Note_on_c, 2, 49, 64
4, 40320, Note_on_c, 2, 50, 64
4, 40327, Note_on_c, 2, 49, 0
4, 41303, Note_on_c, 2, 50, 0
4, 41303, End_track
5, 0, Start_track
5, 0, MIDI_port, 0
5, 0, Title_t, "bass"
5, 0, Program_c, 3, 19
5, 0, Control_c, 3, 7, 127
5, 0, Control_c, 3, 10, 64
5, 0, Note_on_c, 3, 50, 64
5, 525, Note_on_c, 3, 50, 0
5, 600, Note_on_c, 3, 50, 64
5, 714, Note_on_c, 3, 50, 0
5, 720, Note_on_c, 3, 49, 64
5, 840, Note_on_c, 3, 50, 64
5, 846, Note_on_c, 3, 49, 0
5, 960, Note_on_c, 3, 52, 64
5, 964, Note_on_c, 3, 50, 0
5, 1465, Note_on_c, 3, 52, 0
5, 1560, Note_on_c, 3, 52, 64
5, 1666, Note_on_c, 3, 52, 0
5, 1680, Note_on_c, 3, 50, 64
5, 1800, Note_on_c, 3, 52, 64
5, 1803, Note_on_c, 3, 50, 0
5, 1920, Note_on_c, 3, 54, 64
5, 1921, Note_on_c, 3, 52, 0
5, 2494, Note_on_c, 3, 54, 0
5, 2520, Note_on_c, 3, 50, 64
5, 2640, Note_on_c, 3, 52, 64
5, 2643, Note_on_c, 3, 50, 0
5, 2760, Note_on_c, 3, 54, 64
5, 2765, Note_on_c, 3, 52, 0
5, 2880, Note_on_c, 3, 55, 64
5, 2890, Note_on_c, 3, 54, 0
5, 2975, Note_on_c, 3, 55, 0
5, 3000, Note_on_c, 3, 54, 64
5, 3120, Note_on_c, 3, 55, 64
5, 3136, Note_on_c, 3, 54, 0
5, 3240, Note_on_c, 3, 57, 64
5, 3247, Note_on_c, 3, 55, 0
5, 3360, Note_on_c, 3, 58, 64
5, 3380, Note_on_c, 3, 57, 0
5, 4341, Note_on_c, 3, 58, 0
5, 4440, Note_on_c, 3, 58, 64
5, 4560, Note_on_c, 3, 57, 64
5, 4568, Note_on_c, 3, 58, 0
5, 4680, Note_on_c, 3, 55, 64
5, 4692, Note_on_c, 3, 57, 0
5, 4800, Note_on_c, 3, 53, 64
5, 4809, Note_on_c, 3, 55, 0
5, 4920, Note_on_c, 3, 52, 64
5, 4932, Note_on_c, 3, 53, 0
5, 5040, Note_on_c, 3, 50, 64
5, 5073, Note_on_c, 3, 52, 0
5, 5160, Note_on_c, 3, 49, 64
5, 5170, Note_on_c, 3, 50, 0
5, 5280, Note_on_c, 3, 50, 64
5, 5293, Note_on_c, 3, 49, 0
5, 5400, Note_on_c, 3, 52, 64
5, 5423, Note_on_c, 3, 50, 0
5, 5520, Note_on_c, 3, 53, 64
5, 5527, Note_on_c, 3, 52, 0
5, 5626, Note_on_c, 3, 53, 0
5, 5640, Note_on_c, 3, 55, 64
5, 5758, Note_on_c, 3, 55, 0
5, 5760, Note_on_c, 3, 57, 64
5, 5968, Note_on_c, 3, 57, 0
5, 6000, Note_on_c, 3, 52, 64
5, 6228, Note_on_c, 3, 52, 0
5, 6240, Note_on_c, 3, 57, 64
5, 6960, Note_on_c, 3, 56, 64
5, 6969, Note_on_c, 3, 57, 0
5, 7070, Note_on_c, 3, 56, 0
5, 7080, Note_on_c, 3, 54, 64
5, 7198, Note_on_c, 3, 54, 0
5, 7200, Note_on_c, 3, 56, 64
5, 7670, Note_on_c, 3, 56, 0
5, 7800, Note_on_c, 3, 45, 64
5, 7920, Note_on_c, 3, 49, 64
5, 7982, Note_on_c, 3, 49, 0
5, 8040, Note_on_c, 3, 52, 64
5, 8128, Note_on_c, 3, 52, 0
5, 8160, Note_on_c, 3, 55, 64
5, 8481, Note_on_c, 3, 45, 0
5, 8880, Note_on_c, 3, 53, 64
5, 8889, Note_on_c, 3, 55, 0
5, 9000, Note_on_c, 3, 52, 64
5, 9009, Note_on_c, 3, 53, 0
5, 9101, Note_on_c, 3, 52, 0
5, 9120, Note_on_c, 3, 50, 64
5, 9227, Note_on_c, 3, 50, 0
5, 9240, Note_on_c, 3, 48, 64
5, 9360, Note_on_c, 3, 47, 64
5, 9364, Note_on_c, 3, 48, 0
5, 9480, Note_on_c, 3, 45, 64
5, 9496, Note_on_c, 3, 47, 0
5, 9600, Note_on_c, 3, 44, 64
5, 9604, Note_on_c, 3, 45, 0
5, 9718, Note_on_c, 3, 44, 0
5, 9720, Note_on_c, 3, 45, 64
5, 9840, Note_on_c, 3, 47, 64
5, 9844, Note_on_c, 3, 45, 0
5, 9960, Note_on_c, 3, 48, 64
5, 9983, Note_on_c, 3, 47, 0
5, 10073, Note_on_c, 3, 48, 0
5, 10080, Note_on_c, 3, 50, 64
5, 10620, Note_on_c, 3, 50, 0
5, 10800, Note_on_c, 3, 50, 64
5, 11029, Note_on_c, 3, 50, 0
5, 11040, Note_on_c, 3, 48, 64
5, 11625, Note_on_c, 3, 48, 0
5, 11640, Note_on_c, 3, 52, 64
5, 11760, Note_on_c, 3, 50, 64
5, 11766, Note_on_c, 3, 52, 0
5, 11880, Note_on_c, 3, 48, 64
5, 11902, Note_on_c, 3, 50, 0
5, 12000, Note_on_c, 3, 47, 64
5, 12006, Note_on_c, 3, 48, 0
5, 12120, Note_on_c, 3, 45, 64
5, 12135, Note_on_c, 3, 47, 0
5, 12240, Note_on_c, 3, 44, 64
5, 12254, Note_on_c, 3, 45, 0
5, 12360, Note_on_c, 3, 42, 64
5, 12361, Note_on_c, 3, 44, 0
5, 12478, Note_on_c, 3, 42, 0
5, 12480, Note_on_c, 3, 44, 64
5, 12600, Note_on_c, 3, 45, 64
5, 12607, Note_on_c, 3, 44, 0
5, 12718, Note_on_c, 3, 45, 0
5, 12720, Note_on_c, 3, 47, 64
5, 12840, Note_on_c, 3, 44, 64
5, 12862, Note_on_c, 3, 47, 0
5, 12960, Note_on_c, 3, 45, 64
5, 12973, Note_on_c, 3, 44, 0
5, 13080, Note_on_c, 3, 47, 64
5, 13086, Note_on_c, 3, 45, 0
5, 13200, Note_on_c, 3, 48, 64
5, 13216, Note_on_c, 3, 47, 0
5, 13320, Note_on_c, 3, 50, 64
5, 13332, Note_on_c, 3, 48, 0
5, 13433, Note_on_c, 3, 50, 0
5, 13440, Note_on_c, 3, 52, 64
5, 13963, Note_on_c, 3, 52, 0
5, 14040, Note_on_c, 3, 52, 64
5, 14160, Note_on_c, 3, 50, 64
5, 14164, Note_on_c, 3, 52, 0
5, 14280, Note_on_c, 3, 50, 0
5, 14280, Note_on_c, 3, 52, 64
5, 14399, Note_on_c, 3, 52, 0
5, 14400, Note_on_c, 3, 48, 64
5, 14892, Note_on_c, 3, 48, 0
5, 15000, Note_on_c, 3, 48, 64
5, 15120, Note_on_c, 3, 50, 64
5, 15124, Note_on_c, 3, 48, 0
5, 15234, Note_on_c, 3, 50, 0
5, 15240, Note_on_c, 3, 52, 64
5, 15357, Note_on_c, 3, 52, 0
5, 15360, Note_on_c, 3, 53, 64
5, 15952, Note_on_c, 3, 53, 0
5, 15960, Note_on_c, 3, 52, 64
5, 16070, Note_on_c, 3, 52, 0
5, 16080, Note_on_c, 3, 50, 64
5, 16200, Note_on_c, 3, 48, 64
5, 16224, Note_on_c, 3, 50, 0
5, 16320, Note_on_c, 3, 47, 64
5, 16321, Note_on_c, 3, 48, 0
5, 16805, Note_on_c, 3, 47, 0
5, 16920, Note_on_c, 3, 47, 64
5, 17040, Note_on_c, 3, 48, 64
5, 17053, Note_on_c, 3, 47, 0
5, 17147, Note_on_c, 3, 48, 0
5, 17160, Note_on_c, 3, 50, 64
5, 17280, Note_on_c, 3, 52, 64
5, 17297, Note_on_c, 3, 50, 0
5, 17869, Note_on_c, 3, 52, 0
5, 17880, Note_on_c, 3, 50, 64
5, 18000, Note_on_c, 3, 48, 64
5, 18009, Note_on_c, 3, 50, 0
5, 18120, Note_on_c, 3, 47, 64
5, 18152, Note_on_c, 3, 48, 0
5, 18236, Note_on_c, 3, 47, 0
5, 18240, Note_on_c, 3, 45, 64
5, 18360, Note_on_c, 3, 44, 64
5, 18370, Note_on_c, 3, 45, 0
5, 18466, Note_on_c, 3, 44, 0
5, 18480, Note_on_c, 3, 45, 64
5, 18597, Note_on_c, 3, 45, 0
5, 18600, Note_on_c, 3, 47, 64
5, 18711, Note_on_c, 3, 47, 0
5, 18720, Note_on_c, 3, 48, 64
5, 18839, Note_on_c, 3, 48, 0
5, 18840, Note_on_c, 3, 45, 64
5, 18951, Note_on_c, 3, 45, 0
5, 18960, Note_on_c, 3, 47, 64
5, 19080, Note_on_c, 3, 48, 64
5, 19100, Note_on_c, 3, 47, 0
5, 19197, Note_on_c, 3, 48, 0
5, 19200, Note_on_c, 3, 50, 64
5, 19311, Note_on_c, 3, 50, 0
5, 19320, Note_on_c, 3, 48, 64
5, 19440, Note_on_c, 3, 50, 64
5, 19462, Note_on_c, 3, 48, 0
5, 19560, Note_on_c, 3, 52, 64
5, 19561, Note_on_c, 3, 50, 0
5, 19680, Note_on_c, 3, 53, 64
5, 19691, Note_on_c, 3, 52, 0
5, 19788, Note_on_c, 3, 53, 0
5, 19800, Note_on_c, 3, 50, 64
5, 19920, Note_on_c, 3, 52, 64
5, 19937, Note_on_c, 3, 50, 0
5, 20027, Note_on_c, 3, 52, 0
5, 20040, Note_on_c, 3, 53, 64
5, 20160, Note_on_c, 3, 44, 64
5, 20162, Note_on_c, 3, 53, 0
5, 20370, Note_on_c, 3, 44, 0
5, 20400, Note_on_c, 3, 56, 64
5, 20640, Note_on_c, 3, 57, 64
5, 20654, Note_on_c, 3, 56, 0
5, 20876, Note_on_c, 3, 57, 0
5, 20880, Note_on_c, 3, 52, 64
5, 21096, Note_on_c, 3, 52, 0
5, 21120, Note_on_c, 3, 53, 64
5, 21341, Note_on_c, 3, 53, 0
5, 21360, Note_on_c, 3, 50, 64
5, 21591, Note_on_c, 3, 50, 0
5, 21600, Note_on_c, 3, 52, 64
5, 22080, Note_on_c, 3, 45, 64
5, 22083, Note_on_c, 3, 52, 0
5, 22613, Note_on_c, 3, 45, 0
5, 22680, Note_on_c, 3, 57, 64
5, 22800, Note_on_c, 3, 55, 64
5, 22811, Note_on_c, 3, 57, 0
5, 22899, Note_on_c, 3, 55, 0
5, 22920, Note_on_c, 3, 57, 64
5, 23040, Note_on_c, 3, 59, 64
5, 23085, Note_on_c, 3, 57, 0
5, 23531, Note_on_c, 3, 59, 0
5, 23640, Note_on_c, 3, 59, 64
5, 23751, Note_on_c, 3, 59, 0
5, 23760, Note_on_c, 3, 57, 64
5, 23880, Note_on_c, 3, 59, 64
5, 23881, Note_on_c, 3, 57, 0
5, 23994, Note_on_c, 3, 59, 0
5, 24000, Note_on_c, 3, 60, 64
5, 24226, Note_on_c, 3, 60, 0
5, 24240, Note_on_c, 3, 48, 64
5, 24458, Note_on_c, 3, 48, 0
5, 24600, Note_on_c, 3, 60, 64
5, 24714, Note_on_c, 3, 60, 0
5, 24720, Note_on_c, 3, 59, 64
5, 24832, Note_on_c, 3, 59, 0
5, 24840, Note_on_c, 3, 60, 64
5, 24958, Note_on_c, 3, 60, 0
5, 24960, Note_on_c, 3, 62, 64
5, 25453, Note_on_c, 3, 62, 0
5, 25560, Note_on_c, 3, 62, 64
5, 25675, Note_on_c, 3, 62, 0
5, 25680, Note_on_c, 3, 60, 64
5, 25800, Note_on_c, 3, 62, 64
5, 25802, Note_on_c, 3, 60, 0
5, 25902, Note_on_c, 3, 62, 0
5, 25920, Note_on_c, 3, 64, 64
5, 26157, Note_on_c, 3, 64, 0
5, 26160, Note_on_c, 3, 52, 64
5, 26362, Note_on_c, 3, 52, 0
5, 26520, Note_on_c, 3, 64, 64
5, 26630, Note_on_c, 3, 64, 0
5, 26640, Note_on_c, 3, 62, 64
5, 26747, Note_on_c, 3, 62, 0
5, 26760, Note_on_c, 3, 64, 64
5, 26875, Note_on_c, 3, 64, 0
5, 26880, Note_on_c, 3, 65, 64
5, 27381, Note_on_c, 3, 65, 0
5, 27480, Note_on_c, 3, 65, 64
5, 27600, Note_on_c, 3, 64, 64
5, 27610, Note_on_c, 3, 65, 0
5, 27719, Note_on_c, 3, 64, 0
5, 27720, Note_on_c, 3, 65, 64
5, 27840, Note_on_c, 3, 67, 64
5, 27846, Note_on_c, 3, 65, 0
5, 27960, Note_on_c, 3, 65, 64
5, 27970, Note_on_c, 3, 67, 0
5, 28080, Note_on_c, 3, 64, 64
5, 28100, Note_on_c, 3, 65, 0
5, 28200, Note_on_c, 3, 62, 64
5, 28211, Note_on_c, 3, 64, 0
5, 28303, Note_on_c, 3, 62, 0
5, 28320, Note_on_c, 3, 64, 64
5, 28440, Note_on_c, 3, 62, 64
5, 28447, Note_on_c, 3, 64, 0
5, 28560, Note_on_c, 3, 61, 64
5, 28568, Note_on_c, 3, 62, 0
5, 28679, Note_on_c, 3, 61, 0
5, 28680, Note_on_c, 3, 59, 64
5, 28800, Note_on_c, 3, 61, 64
5, 28818, Note_on_c, 3, 59, 0
5, 29027, Note_on_c, 3, 61, 0
5, 29040, Note_on_c, 3, 57, 64
5, 29258, Note_on_c, 3, 57, 0
5, 29280, Note_on_c, 3, 62, 64
5, 29391, Note_on_c, 3, 62, 0
5, 29400, Note_on_c, 3, 50, 64
5, 29520, Note_on_c, 3, 52, 64
5, 29528, Note_on_c, 3, 50, 0
5, 29640, Note_on_c, 3, 53, 64
5, 29654, Note_on_c, 3, 52, 0
5, 29760, Note_on_c, 3, 55, 64
5, 29768, Note_on_c, 3, 53, 0
5, 29878, Note_on_c, 3, 55, 0
5, 29880, Note_on_c, 3, 53, 64
5, 30000, Note_on_c, 3, 55, 64
5, 30003, Note_on_c, 3, 53, 0
5, 30120, Note_on_c, 3, 55, 0
5, 30120, Note_on_c, 3, 57, 64
5, 30234, Note_on_c, 3, 57, 0
5, 30240, Note_on_c, 3, 58, 64
5, 30360, Note_on_c, 3, 57, 64
5, 30364, Note_on_c, 3, 58, 0
5, 30476, Note_on_c, 3, 57, 0
5, 30480, Note_on_c, 3, 58, 64
5, 30600, Note_on_c, 3, 55, 64
5, 30611, Note_on_c, 3, 58, 0
5, 30720, Note_on_c, 3, 57, 64
5, 30734, Note_on_c, 3, 55, 0
5, 30834, Note_on_c, 3, 57, 0
5, 30840, Note_on_c, 3, 55, 64
5, 30960, Note_on_c, 3, 57, 64
5, 30990, Note_on_c, 3, 55, 0
5, 31068, Note_on_c, 3, 57, 0
5, 31080, Note_on_c, 3, 59, 64
5, 31200, Note_on_c, 3, 61, 64
5, 31221, Note_on_c, 3, 59, 0
5, 31292, Note_on_c, 3, 61, 0
5, 31320, Note_on_c, 3, 57, 64
5, 31440, Note_on_c, 3, 59, 64
5, 31454, Note_on_c, 3, 57, 0
5, 31560, Note_on_c, 3, 61, 64
5, 31565, Note_on_c, 3, 59, 0
5, 31672, Note_on_c, 3, 61, 0
5, 31680, Note_on_c, 3, 62, 64
5, 31894, Note_on_c, 3, 62, 0
5, 31920, Note_on_c, 3, 50, 64
5, 32209, Note_on_c, 3, 50, 0
5, 32280, Note_on_c, 3, 50, 64
5, 32400, Note_on_c, 3, 49, 64
5, 32408, Note_on_c, 3, 50, 0
5, 32520, Note_on_c, 3, 50, 64
5, 32526, Note_on_c, 3, 49, 0
5, 32632, Note_on_c, 3, 50, 0
5, 32640, Note_on_c, 3, 52, 64
5, 33124, Note_on_c, 3, 52, 0
5, 33240, Note_on_c, 3, 52, 64
5, 33360, Note_on_c, 3, 50, 64
5, 33363, Note_on_c, 3, 52, 0
5, 33480, Note_on_c, 3, 52, 64
5, 33495, Note_on_c, 3, 50, 0
5, 33600, Note_on_c, 3, 54, 64
5, 33602, Note_on_c, 3, 52, 0
5, 34161, Note_on_c, 3, 54, 0
5, 34200, Note_on_c, 3, 50, 64
5, 34320, Note_on_c, 3, 52, 64
5, 34351, Note_on_c, 3, 50, 0
5, 34440, Note_on_c, 3, 54, 64
5, 34445, Note_on_c, 3, 52, 0
5, 34560, Note_on_c, 3, 55, 64
5, 34561, Note_on_c, 3, 54, 0
5, 34680, Note_on_c, 3, 54, 64
5, 34681, Note_on_c, 3, 55, 0
5, 34800, Note_on_c, 3, 55, 64
5, 34801, Note_on_c, 3, 54, 0
5, 34919, Note_on_c, 3, 55, 0
5, 34920, Note_on_c, 3, 57, 64
5, 35040, Note_on_c, 3, 58, 64
5, 35064, Note_on_c, 3, 57, 0
5, 36033, Note_on_c, 3, 58, 0
5, 36120, Note_on_c, 3, 58, 64
5, 36239, Note_on_c, 3, 58, 0
5, 36240, Note_on_c, 3, 57, 64
5, 36356, Note_on_c, 3, 57, 0
5, 36360, Note_on_c, 3, 55, 64
5, 36480, Note_on_c, 3, 53, 64
5, 36497, Note_on_c, 3, 55, 0
5, 36593, Note_on_c, 3, 53, 0
5, 36600, Note_on_c, 3, 52, 64
5, 36720, Note_on_c, 3, 50, 64
5, 36738, Note_on_c, 3, 52, 0
5, 36840, Note_on_c, 3, 49, 64
5, 36842, Note_on_c, 3, 50, 0
5, 36960, Note_on_c, 3, 50, 64
5, 36963, Note_on_c, 3, 49, 0
5, 37080, Note_on_c, 3, 52, 64
5, 37084, Note_on_c, 3, 50, 0
5, 37188, Note_on_c, 3, 52, 0
5, 37200, Note_on_c, 3, 53, 64
5, 37320, Note_on_c, 3, 50, 64
5, 37332, Note_on_c, 3, 53, 0
5, 37435, Note_on_c, 3, 50, 0
5, 37440, Note_on_c, 3, 44, 64
5, 38095, Note_on_c, 3, 44, 0
5, 38160, Note_on_c, 3, 44, 64
5, 38400, Note_on_c, 3, 45, 64
5, 38403, Note_on_c, 3, 44, 0
5, 38640, Note_on_c, 3, 49, 64
5, 38647, Note_on_c, 3, 45, 0
5, 38865, Note_on_c, 3, 49, 0
5, 38880, Note_on_c, 3, 50, 64
5, 39116, Note_on_c, 3, 50, 0
5, 39120, Note_on_c, 3, 45, 64
5, 39360, Note_on_c, 3, 46, 64
5, 39369, Note_on_c, 3, 45, 0
5, 39594, Note_on_c, 3, 46, 0
5, 39600, Note_on_c, 3, 43, 64
5, 39840, Note_on_c, 3, 45, 64
5, 39844, Note_on_c, 3, 43, 0
5, 40320, Note_on_c, 3, 38, 64
5, 40337, Note_on_c, 3, 45, 0
5, 41301, Note_on_c, 3, 38, 0
5, 41301, End_track
6, 0, Start_track
6, 0, MIDI_port, 0
6, 0, Title_t, "Johann Sebastian Bach   (1685-1750)"
6, 0, End_track
7, 0, Start_track
7, 0, MIDI_port, 0
7, 0, Title_t, "Prelude and Fugue in D minor - BWV 539"
7, 0, End_track
8, 0, Start_track
8, 0, MIDI_port, 0
8, 0, Title_t, "1st Movement: Prelude"
8, 0, End_track
9, 0, Start_track
9, 0, MIDI_port, 0
9, 0, Title_t, "---------------------------"
9, 0, End_track
10, 0, Start_track
10, 0, MIDI_port, 0
10, 0, Title_t, "Copyright c 1996 by Jim Michmerhuizen.  All rights reserved."
10, 0, End_track
11, 0, Start_track
11, 0, MIDI_port, 0
11, 0, Title_t, "Send comments to: jamzen@world.std.com"
11, 0, End_track
12, 0, Start_track
12, 0, MIDI_port, 0
12, 0, Title_t, "More files at http://world.std.com/~jamzen/jsbach.html"
12, 0, End_track
13, 0, Start_track
13, 0, MIDI_port, 0
13, 0, Title_t, "---------------------------"
13, 0, End_track
14, 0, Start_track
14, 0, MIDI_port, 0
14, 0, Title_t, "courtesy of Dave's J.S. Bach Page"
14, 0, End_track
15, 0, Start_track
15, 0, MIDI_port, 0
15, 0, Title_t, "http://www.unpronounceable.com/bach"
15, 0, End_track
16, 0, Start_track
16, 0, MIDI_port, 0
16, 0, Title_t, "---------------------------"
16, 0, End_track
17, 0, Start_track
17, 0, MIDI_port, 0
17, 0, Title_t, "Original Filename: bwv539_1.mid"
17, 0, End_track
0, 0, End_of_file
