0, 0, Header, 1, 5, 240
1, 0, Start_track
1, 0, Time_signature, 4, 2, 24, 8
1, 0, Tempo, 600000
1, 39600, Tempo, 625000
1, 39840, Tempo, 652174
1, 40080, Tempo, 674157
1, 40320, Tempo, 705882
1, 40560, Tempo, 740741
1, 40800, Tempo, 779221
1, 41040, Tempo, 810811
1, 41280, Tempo, 666667
1, 131520, Tempo, 2000000
1, 131520, End_track
2, 0, Start_track
2, 0, Title_t, "Praeludium and Fuga in D-minor"
2, 0, Program_c, 0, 0
2, 0, Note_on_c, 0, 62, 127
2, 0, Note_on_c, 0, 65, 127
2, 0, Note_on_c, 0, 69, 127
2, 384, Note_off_c, 0, 69, 64
2, 384, Note_off_c, 0, 65, 64
2, 384, Note_off_c, 0, 62, 64
2, 480, Note_on_c, 0, 74, 127
2, 480, Note_on_c, 0, 65, 127
2, 480, Note_on_c, 0, 69, 127
2, 864, Note_off_c, 0, 69, 64
2, 864, Note_off_c, 0, 65, 64
2, 960, Note_on_c, 0, 67, 127
2, 960, Note_on_c, 0, 64, 127
2, 1152, Note_off_c, 0, 74, 64
2, 1200, Note_on_c, 0, 73, 127
2, 1296, Note_off_c, 0, 73, 64
2, 1320, Note_on_c, 0, 71, 127
2, 1416, Note_off_c, 0, 71, 64
2, 1440, Note_on_c, 0, 73, 127
2, 1728, Note_off_c, 0, 64, 64
2, 1824, Note_off_c, 0, 67, 64
2, 1824, Note_off_c, 0, 73, 64
2, 2040, Note_on_c, 0, 62, 127
2, 2040, Note_on_c, 0, 62, 127
2, 2040, Note_on_c, 0, 62, 127
2, 2136, Note_off_c, 0, 62, 64
2, 2160, Note_on_c, 0, 66, 127
2, 2232, Note_off_c, 0, 62, 64
2, 2256, Note_off_c, 0, 66, 64
2, 2280, Note_on_c, 0, 69, 127
2, 2280, Note_on_c, 0, 69, 127
2, 2376, Note_off_c, 0, 69, 64
2, 2376, Note_off_c, 0, 69, 64
2, 2400, Note_on_c, 0, 69, 127
2, 2400, Note_on_c, 0, 72, 127
2, 3072, Note_off_c, 0, 69, 64
2, 3072, Note_off_c, 0, 72, 64
2, 3120, Note_on_c, 0, 70, 127
2, 3216, Note_off_c, 0, 70, 64
2, 3240, Note_on_c, 0, 69, 127
2, 3264, Note_off_c, 0, 62, 64
2, 3336, Note_off_c, 0, 69, 64
2, 3360, Note_on_c, 0, 67, 127
2, 3456, Note_off_c, 0, 67, 64
2, 3480, Note_on_c, 0, 65, 127
2, 3576, Note_off_c, 0, 65, 64
2, 3600, Note_on_c, 0, 64, 127
2, 3696, Note_off_c, 0, 64, 64
2, 3720, Note_on_c, 0, 62, 127
2, 3816, Note_off_c, 0, 62, 64
2, 3840, Note_on_c, 0, 61, 127
2, 3840, Note_on_c, 0, 61, 127
2, 3936, Note_off_c, 0, 61, 64
2, 3960, Note_on_c, 0, 62, 127
2, 4056, Note_off_c, 0, 62, 64
2, 4080, Note_on_c, 0, 64, 127
2, 4176, Note_off_c, 0, 64, 64
2, 4200, Note_on_c, 0, 65, 127
2, 4224, Note_off_c, 0, 61, 64
2, 4296, Note_off_c, 0, 65, 64
2, 4320, Note_on_c, 0, 67, 127
2, 4560, Note_on_c, 0, 61, 127
2, 4560, Note_on_c, 0, 64, 127
2, 4752, Note_off_c, 0, 61, 64
2, 4800, Note_on_c, 0, 57, 127
2, 4800, Note_on_c, 0, 57, 127
2, 4992, Note_off_c, 0, 67, 64
2, 4992, Note_off_c, 0, 64, 64
2, 5040, Note_on_c, 0, 67, 127
2, 5040, Note_on_c, 0, 64, 127
2, 5184, Note_off_c, 0, 57, 64
2, 5184, Note_off_c, 0, 57, 64
2, 5232, Note_off_c, 0, 64, 64
2, 5232, Note_off_c, 0, 67, 64
2, 5280, Note_on_c, 0, 65, 127
2, 5280, Note_on_c, 0, 62, 127
2, 5664, Note_off_c, 0, 65, 64
2, 5760, Note_on_c, 0, 64, 127
2, 5856, Note_off_c, 0, 62, 64
2, 5880, Note_on_c, 0, 62, 127
2, 5976, Note_off_c, 0, 62, 64
2, 6000, Note_on_c, 0, 60, 127
2, 6096, Note_off_c, 0, 60, 64
2, 6120, Note_on_c, 0, 59, 127
2, 6216, Note_off_c, 0, 59, 64
2, 6240, Note_on_c, 0, 60, 127
2, 6336, Note_off_c, 0, 64, 64
2, 6360, Note_on_c, 0, 69, 127
2, 6456, Note_off_c, 0, 69, 64
2, 6480, Note_on_c, 0, 68, 127
2, 6576, Note_off_c, 0, 68, 64
2, 6600, Note_on_c, 0, 69, 127
2, 6624, Note_off_c, 0, 60, 64
2, 6696, Note_off_c, 0, 69, 64
2, 6720, Note_on_c, 0, 71, 127
2, 6720, Note_on_c, 0, 62, 127
2, 6912, Note_off_c, 0, 62, 64
2, 6960, Note_on_c, 0, 59, 127
2, 7152, Note_off_c, 0, 59, 64
2, 7200, Note_on_c, 0, 64, 127
2, 7296, Note_off_c, 0, 71, 64
2, 7320, Note_on_c, 0, 71, 127
2, 7416, Note_off_c, 0, 71, 64
2, 7440, Note_on_c, 0, 69, 127
2, 7536, Note_off_c, 0, 69, 64
2, 7560, Note_on_c, 0, 71, 127
2, 7656, Note_off_c, 0, 71, 64
2, 7680, Note_on_c, 0, 73, 127
2, 7680, Note_on_c, 0, 69, 127
2, 8064, Note_off_c, 0, 69, 64
2, 8064, Note_off_c, 0, 64, 64
2, 8256, Note_off_c, 0, 73, 64
2, 8280, Note_on_c, 0, 69, 127
2, 8280, Note_on_c, 0, 69, 127
2, 8376, Note_off_c, 0, 69, 64
2, 8400, Note_on_c, 0, 71, 127
2, 8496, Note_off_c, 0, 71, 64
2, 8520, Note_on_c, 0, 73, 127
2, 8616, Note_off_c, 0, 73, 64
2, 8640, Note_on_c, 0, 74, 127
2, 8736, Note_off_c, 0, 74, 64
2, 8760, Note_on_c, 0, 73, 127
2, 8856, Note_off_c, 0, 73, 64
2, 8880, Note_on_c, 0, 74, 127
2, 8976, Note_off_c, 0, 74, 64
2, 9000, Note_on_c, 0, 76, 127
2, 9096, Note_off_c, 0, 76, 64
2, 9120, Note_on_c, 0, 74, 127
2, 9120, Note_on_c, 0, 77, 127
2, 9216, Note_off_c, 0, 69, 64
2, 9360, Note_on_c, 0, 69, 127
2, 9552, Note_off_c, 0, 69, 64
2, 9600, Note_on_c, 0, 71, 127
2, 9984, Note_off_c, 0, 74, 64
2, 9984, Note_off_c, 0, 71, 64
2, 10176, Note_off_c, 0, 77, 64
2, 10200, Note_on_c, 0, 77, 127
2, 10296, Note_off_c, 0, 77, 64
2, 10320, Note_on_c, 0, 76, 127
2, 10320, Note_on_c, 0, 56, 127
2, 10416, Note_off_c, 0, 76, 64
2, 10440, Note_on_c, 0, 74, 127
2, 10512, Note_off_c, 0, 56, 64
2, 10536, Note_off_c, 0, 74, 64
2, 10560, Note_on_c, 0, 72, 127
2, 10656, Note_off_c, 0, 72, 64
2, 10680, Note_on_c, 0, 71, 127
2, 10776, Note_off_c, 0, 71, 64
2, 10800, Note_on_c, 0, 69, 127
2, 10896, Note_off_c, 0, 69, 64
2, 10920, Note_on_c, 0, 68, 127
2, 11016, Note_off_c, 0, 68, 64
2, 11040, Note_on_c, 0, 69, 127
2, 11136, Note_off_c, 0, 69, 64
2, 11160, Note_on_c, 0, 71, 127
2, 11256, Note_off_c, 0, 71, 64
2, 11280, Note_on_c, 0, 72, 127
2, 11376, Note_off_c, 0, 72, 64
2, 11400, Note_on_c, 0, 69, 127
2, 11496, Note_off_c, 0, 69, 64
2, 11520, Note_on_c, 0, 74, 127
2, 11760, Note_on_c, 0, 66, 127
2, 11952, Note_off_c, 0, 66, 64
2, 12000, Note_on_c, 0, 68, 127
2, 12192, Note_off_c, 0, 68, 64
2, 12240, Note_on_c, 0, 69, 127
2, 12432, Note_off_c, 0, 69, 64
2, 12480, Note_on_c, 0, 71, 127
2, 12480, Note_on_c, 0, 71, 127
2, 12672, Note_off_c, 0, 71, 64
2, 12672, Note_off_c, 0, 74, 64
2, 12672, Note_off_c, 0, 71, 64
2, 12720, Note_on_c, 0, 71, 127
2, 12720, Note_on_c, 0, 74, 127
2, 12720, Note_on_c, 0, 64, 127
2, 12912, Note_off_c, 0, 74, 64
2, 12960, Note_on_c, 0, 72, 127
2, 13104, Note_off_c, 0, 71, 64
2, 13200, Note_on_c, 0, 69, 127
2, 13344, Note_off_c, 0, 72, 64
2, 13440, Note_on_c, 0, 71, 127
2, 13656, Note_off_c, 0, 69, 64
2, 13680, Note_on_c, 0, 68, 127
2, 13776, Note_off_c, 0, 68, 64
2, 13800, Note_on_c, 0, 66, 127
2, 13896, Note_off_c, 0, 66, 64
2, 13920, Note_on_c, 0, 68, 127
2, 14496, Note_off_c, 0, 71, 64
2, 14520, Note_on_c, 0, 74, 127
2, 14592, Note_off_c, 0, 68, 64
2, 14592, Note_off_c, 0, 64, 64
2, 14616, Note_off_c, 0, 74, 64
2, 14640, Note_on_c, 0, 72, 127
2, 14736, Note_off_c, 0, 72, 64
2, 14760, Note_on_c, 0, 71, 127
2, 14856, Note_off_c, 0, 71, 64
2, 14880, Note_on_c, 0, 76, 127
2, 15120, Note_on_c, 0, 68, 127
2, 15312, Note_off_c, 0, 68, 64
2, 15360, Note_on_c, 0, 69, 127
2, 15456, Note_off_c, 0, 76, 64
2, 15480, Note_on_c, 0, 74, 127
2, 15576, Note_off_c, 0, 74, 64
2, 15600, Note_on_c, 0, 72, 127
2, 15696, Note_off_c, 0, 72, 64
2, 15720, Note_on_c, 0, 71, 127
2, 15744, Note_off_c, 0, 69, 64
2, 15816, Note_off_c, 0, 71, 64
2, 15840, Note_on_c, 0, 69, 127
2, 15960, Note_on_c, 0, 67, 127
2, 16056, Note_off_c, 0, 67, 64
2, 16080, Note_on_c, 0, 65, 127
2, 16176, Note_off_c, 0, 65, 64
2, 16200, Note_on_c, 0, 64, 127
2, 16296, Note_off_c, 0, 64, 64
2, 16320, Note_on_c, 0, 62, 127
2, 16416, Note_off_c, 0, 69, 64
2, 16440, Note_on_c, 0, 72, 127
2, 16536, Note_off_c, 0, 72, 64
2, 16560, Note_on_c, 0, 71, 127
2, 16656, Note_off_c, 0, 71, 64
2, 16680, Note_on_c, 0, 69, 127
2, 16704, Note_off_c, 0, 62, 64
2, 16776, Note_off_c, 0, 69, 64
2, 16800, Note_on_c, 0, 74, 127
2, 16920, Note_on_c, 0, 72, 127
2, 17016, Note_off_c, 0, 72, 64
2, 17040, Note_on_c, 0, 71, 127
2, 17136, Note_off_c, 0, 71, 64
2, 17160, Note_on_c, 0, 69, 127
2, 17256, Note_off_c, 0, 69, 64
2, 17280, Note_on_c, 0, 68, 127
2, 17376, Note_off_c, 0, 74, 64
2, 17400, Note_on_c, 0, 77, 127
2, 17496, Note_off_c, 0, 77, 64
2, 17520, Note_on_c, 0, 76, 127
2, 17616, Note_off_c, 0, 76, 64
2, 17640, Note_on_c, 0, 74, 127
2, 17664, Note_off_c, 0, 68, 64
2, 17736, Note_off_c, 0, 74, 64
2, 17760, Note_on_c, 0, 83, 127
2, 18000, Note_on_c, 0, 80, 127
2, 18000, Note_on_c, 0, 74, 127
2, 18000, Note_on_c, 0, 76, 127
2, 18192, Note_off_c, 0, 74, 64
2, 18240, Note_on_c, 0, 72, 127
2, 18432, Note_off_c, 0, 76, 64
2, 18432, Note_off_c, 0, 83, 64
2, 18432, Note_off_c, 0, 80, 64
2, 18480, Note_on_c, 0, 81, 127
2, 18576, Note_off_c, 0, 81, 64
2, 18600, Note_on_c, 0, 80, 127
2, 18624, Note_off_c, 0, 72, 64
2, 18696, Note_off_c, 0, 80, 64
2, 18720, Note_on_c, 0, 81, 127
2, 18912, Note_off_c, 0, 81, 64
2, 18960, Note_on_c, 0, 72, 127
2, 18960, Note_on_c, 0, 76, 127
2, 18960, Note_on_c, 0, 69, 127
2, 19152, Note_off_c, 0, 76, 64
2, 19200, Note_on_c, 0, 77, 127
2, 19296, Note_off_c, 0, 72, 64
2, 19320, Note_on_c, 0, 76, 127
2, 19392, Note_off_c, 0, 69, 64
2, 19416, Note_off_c, 0, 76, 64
2, 19440, Note_on_c, 0, 74, 127
2, 19536, Note_off_c, 0, 74, 64
2, 19560, Note_on_c, 0, 72, 127
2, 19656, Note_off_c, 0, 72, 64
2, 19680, Note_on_c, 0, 71, 127
2, 19776, Note_off_c, 0, 71, 64
2, 19800, Note_on_c, 0, 69, 127
2, 19896, Note_off_c, 0, 69, 64
2, 19920, Note_on_c, 0, 68, 127
2, 20016, Note_off_c, 0, 68, 64
2, 20040, Note_on_c, 0, 69, 127
2, 20136, Note_off_c, 0, 69, 64
2, 20160, Note_on_c, 0, 71, 127
2, 20256, Note_off_c, 0, 77, 64
2, 20280, Note_on_c, 0, 77, 127
2, 20376, Note_off_c, 0, 77, 64
2, 20400, Note_on_c, 0, 76, 127
2, 20496, Note_off_c, 0, 76, 64
2, 20520, Note_on_c, 0, 74, 127
2, 20544, Note_off_c, 0, 71, 64
2, 20616, Note_off_c, 0, 74, 64
2, 20640, Note_on_c, 0, 72, 127
2, 20736, Note_off_c, 0, 72, 64
2, 20760, Note_on_c, 0, 71, 127
2, 20856, Note_off_c, 0, 71, 64
2, 20880, Note_on_c, 0, 62, 127
2, 20880, Note_on_c, 0, 69, 127
2, 20976, Note_off_c, 0, 69, 64
2, 21000, Note_on_c, 0, 68, 127
2, 21072, Note_off_c, 0, 62, 64
2, 21096, Note_off_c, 0, 68, 64
2, 21120, Note_on_c, 0, 60, 127
2, 21120, Note_on_c, 0, 69, 127
2, 21312, Note_off_c, 0, 60, 64
2, 21360, Note_on_c, 0, 65, 127
2, 21408, Note_off_c, 0, 69, 64
2, 21480, Note_on_c, 0, 71, 127
2, 21552, Note_off_c, 0, 65, 64
2, 21576, Note_off_c, 0, 71, 64
2, 21600, Note_on_c, 0, 71, 127
2, 21600, Note_on_c, 0, 64, 127
2, 21792, Note_off_c, 0, 64, 64
2, 21840, Note_on_c, 0, 62, 127
2, 21888, Note_off_c, 0, 71, 64
2, 21960, Note_on_c, 0, 69, 127
2, 22032, Note_off_c, 0, 62, 64
2, 22056, Note_off_c, 0, 69, 64
2, 22080, Note_on_c, 0, 69, 127
2, 22080, Note_on_c, 0, 62, 127
2, 22272, Note_off_c, 0, 62, 64
2, 22320, Note_on_c, 0, 60, 127
2, 22464, Note_off_c, 0, 69, 64
2, 22512, Note_off_c, 0, 60, 64
2, 22560, Note_on_c, 0, 65, 127
2, 22560, Note_on_c, 0, 69, 127
2, 23136, Note_off_c, 0, 69, 64
2, 23160, Note_on_c, 0, 72, 127
2, 23256, Note_off_c, 0, 72, 64
2, 23280, Note_on_c, 0, 71, 127
2, 23376, Note_off_c, 0, 71, 64
2, 23400, Note_on_c, 0, 69, 127
2, 23424, Note_off_c, 0, 65, 64
2, 23496, Note_off_c, 0, 69, 64
2, 23520, Note_on_c, 0, 74, 127
2, 23712, Note_off_c, 0, 74, 64
2, 23760, Note_on_c, 0, 65, 127
2, 23760, Note_on_c, 0, 62, 127
2, 24192, Note_off_c, 0, 65, 64
2, 24192, Note_off_c, 0, 62, 64
2, 24240, Note_on_c, 0, 60, 127
2, 24240, Note_on_c, 0, 64, 127
2, 24432, Note_off_c, 0, 64, 64
2, 24432, Note_off_c, 0, 60, 64
2, 24480, Note_on_c, 0, 69, 127
2, 24480, Note_on_c, 0, 72, 127
2, 25056, Note_off_c, 0, 72, 64
2, 25080, Note_on_c, 0, 76, 127
2, 25176, Note_off_c, 0, 76, 64
2, 25200, Note_on_c, 0, 74, 127
2, 25296, Note_off_c, 0, 74, 64
2, 25320, Note_on_c, 0, 72, 127
2, 25344, Note_off_c, 0, 69, 64
2, 25416, Note_off_c, 0, 72, 64
2, 25440, Note_on_c, 0, 77, 127
2, 25665, Note_off_c, 0, 77, 64
2, 25680, Note_on_c, 0, 65, 127
2, 25680, Note_on_c, 0, 69, 127
2, 26112, Note_off_c, 0, 65, 64
2, 26145, Note_off_c, 0, 69, 64
2, 26160, Note_on_c, 0, 64, 127
2, 26160, Note_on_c, 0, 67, 127
2, 26352, Note_off_c, 0, 64, 64
2, 26385, Note_off_c, 0, 67, 64
2, 26400, Note_on_c, 0, 76, 127
2, 26400, Note_on_c, 0, 72, 127
2, 26976, Note_off_c, 0, 76, 64
2, 27000, Note_on_c, 0, 79, 127
2, 27096, Note_off_c, 0, 79, 64
2, 27120, Note_on_c, 0, 77, 127
2, 27216, Note_off_c, 0, 77, 64
2, 27240, Note_on_c, 0, 76, 127
2, 27264, Note_off_c, 0, 72, 64
2, 27336, Note_off_c, 0, 76, 64
2, 27360, Note_on_c, 0, 81, 127
2, 27552, Note_off_c, 0, 81, 64
2, 27600, Note_on_c, 0, 69, 127
2, 27600, Note_on_c, 0, 72, 127
2, 27792, Note_off_c, 0, 72, 64
2, 27840, Note_on_c, 0, 71, 127
2, 28032, Note_off_c, 0, 69, 64
2, 28080, Note_on_c, 0, 67, 127
2, 28224, Note_off_c, 0, 71, 64
2, 28272, Note_off_c, 0, 67, 64
2, 28320, Note_on_c, 0, 79, 127
2, 28440, Note_on_c, 0, 77, 127
2, 28536, Note_off_c, 0, 77, 64
2, 28560, Note_on_c, 0, 76, 127
2, 28656, Note_off_c, 0, 76, 64
2, 28680, Note_on_c, 0, 74, 127
2, 28776, Note_off_c, 0, 74, 64
2, 28800, Note_on_c, 0, 76, 127
2, 28896, Note_off_c, 0, 76, 64
2, 28920, Note_on_c, 0, 74, 127
2, 29016, Note_off_c, 0, 74, 64
2, 29040, Note_on_c, 0, 73, 127
2, 29136, Note_off_c, 0, 73, 64
2, 29160, Note_on_c, 0, 76, 127
2, 29256, Note_off_c, 0, 76, 64
2, 29280, Note_on_c, 0, 69, 127
2, 29472, Note_off_c, 0, 79, 64
2, 29520, Note_on_c, 0, 74, 127
2, 29520, Note_on_c, 0, 77, 127
2, 29712, Note_off_c, 0, 74, 64
2, 29760, Note_on_c, 0, 70, 127
2, 29952, Note_off_c, 0, 77, 64
2, 29952, Note_off_c, 0, 69, 64
2, 30000, Note_on_c, 0, 69, 127
2, 30000, Note_on_c, 0, 77, 127
2, 30192, Note_off_c, 0, 77, 64
2, 30192, Note_off_c, 0, 69, 64
2, 30240, Note_on_c, 0, 67, 127
2, 30240, Note_on_c, 0, 76, 127
2, 30432, Note_off_c, 0, 76, 64
2, 30480, Note_on_c, 0, 74, 127
2, 30672, Note_off_c, 0, 74, 64
2, 30720, Note_on_c, 0, 73, 127
2, 30912, Note_off_c, 0, 70, 64
2, 30912, Note_off_c, 0, 67, 64
2, 30960, Note_on_c, 0, 69, 127
2, 31056, Note_off_c, 0, 69, 64
2, 31080, Note_on_c, 0, 67, 127
2, 31104, Note_off_c, 0, 73, 64
2, 31176, Note_off_c, 0, 67, 64
2, 31200, Note_on_c, 0, 69, 127
2, 31296, Note_off_c, 0, 69, 64
2, 31320, Note_on_c, 0, 67, 127
2, 31416, Note_off_c, 0, 67, 64
2, 31440, Note_on_c, 0, 65, 127
2, 31536, Note_off_c, 0, 65, 64
2, 31560, Note_on_c, 0, 64, 127
2, 31656, Note_off_c, 0, 64, 64
2, 31680, Note_on_c, 0, 65, 127
2, 31800, Note_on_c, 0, 69, 127
2, 31800, Note_on_c, 0, 69, 127
2, 31896, Note_off_c, 0, 69, 64
2, 31920, Note_on_c, 0, 71, 127
2, 32016, Note_off_c, 0, 71, 64
2, 32040, Note_on_c, 0, 73, 127
2, 32136, Note_off_c, 0, 73, 64
2, 32160, Note_on_c, 0, 74, 127
2, 32448, Note_off_c, 0, 65, 64
2, 32544, Note_off_c, 0, 69, 64
2, 32544, Note_off_c, 0, 74, 64
2, 32640, Note_on_c, 0, 67, 127
2, 32640, Note_on_c, 0, 64, 127
2, 32832, Note_off_c, 0, 74, 64
2, 32880, Note_on_c, 0, 73, 127
2, 32976, Note_off_c, 0, 73, 64
2, 33000, Note_on_c, 0, 71, 127
2, 33096, Note_off_c, 0, 71, 64
2, 33120, Note_on_c, 0, 73, 127
2, 33408, Note_off_c, 0, 64, 64
2, 33504, Note_off_c, 0, 73, 64
2, 33504, Note_off_c, 0, 67, 64
2, 33720, Note_on_c, 0, 62, 127
2, 33720, Note_on_c, 0, 62, 127
2, 33720, Note_on_c, 0, 62, 127
2, 33816, Note_off_c, 0, 62, 64
2, 33840, Note_on_c, 0, 66, 127
2, 33912, Note_off_c, 0, 62, 64
2, 33936, Note_off_c, 0, 66, 64
2, 33960, Note_on_c, 0, 69, 127
2, 33960, Note_on_c, 0, 69, 127
2, 34056, Note_off_c, 0, 69, 64
2, 34056, Note_off_c, 0, 69, 64
2, 34080, Note_on_c, 0, 72, 127
2, 34080, Note_on_c, 0, 69, 127
2, 34752, Note_off_c, 0, 69, 64
2, 34752, Note_off_c, 0, 72, 64
2, 34800, Note_on_c, 0, 67, 127
2, 34800, Note_on_c, 0, 70, 127
2, 34896, Note_off_c, 0, 70, 64
2, 34920, Note_on_c, 0, 69, 127
2, 34944, Note_off_c, 0, 62, 64
2, 34992, Note_off_c, 0, 67, 64
2, 35016, Note_off_c, 0, 69, 64
2, 35040, Note_on_c, 0, 67, 127
2, 35136, Note_off_c, 0, 67, 64
2, 35160, Note_on_c, 0, 65, 127
2, 35256, Note_off_c, 0, 65, 64
2, 35280, Note_on_c, 0, 64, 127
2, 35376, Note_off_c, 0, 64, 64
2, 35400, Note_on_c, 0, 62, 127
2, 35496, Note_off_c, 0, 62, 64
2, 35520, Note_on_c, 0, 61, 127
2, 35520, Note_on_c, 0, 61, 127
2, 35616, Note_off_c, 0, 61, 64
2, 35640, Note_on_c, 0, 62, 127
2, 35736, Note_off_c, 0, 62, 64
2, 35760, Note_on_c, 0, 64, 127
2, 35856, Note_off_c, 0, 64, 64
2, 35880, Note_on_c, 0, 65, 127
2, 35904, Note_off_c, 0, 61, 64
2, 35976, Note_off_c, 0, 65, 64
2, 36000, Note_on_c, 0, 67, 127
2, 36240, Note_on_c, 0, 64, 127
2, 36240, Note_on_c, 0, 61, 127
2, 36432, Note_off_c, 0, 61, 64
2, 36672, Note_off_c, 0, 64, 64
2, 36672, Note_off_c, 0, 67, 64
2, 36720, Note_on_c, 0, 64, 127
2, 36720, Note_on_c, 0, 67, 127
2, 36912, Note_off_c, 0, 67, 64
2, 36912, Note_off_c, 0, 64, 64
2, 36960, Note_on_c, 0, 62, 127
2, 36960, Note_on_c, 0, 65, 127
2, 37536, Note_off_c, 0, 62, 64
2, 37536, Note_off_c, 0, 65, 64
2, 37560, Note_on_c, 0, 64, 127
2, 37656, Note_off_c, 0, 64, 64
2, 37680, Note_on_c, 0, 68, 127
2, 37776, Note_off_c, 0, 68, 64
2, 37800, Note_on_c, 0, 71, 127
2, 37896, Note_off_c, 0, 71, 64
2, 37920, Note_on_c, 0, 74, 127
2, 38016, Note_off_c, 0, 74, 64
2, 38040, Note_on_c, 0, 77, 127
2, 38136, Note_off_c, 0, 77, 64
2, 38160, Note_on_c, 0, 76, 127
2, 38256, Note_off_c, 0, 76, 64
2, 38280, Note_on_c, 0, 74, 127
2, 38376, Note_off_c, 0, 74, 64
2, 38400, Note_on_c, 0, 73, 127
2, 38496, Note_off_c, 0, 73, 64
2, 38520, Note_on_c, 0, 70, 127
2, 38616, Note_off_c, 0, 70, 64
2, 38640, Note_on_c, 0, 69, 127
2, 38736, Note_off_c, 0, 69, 64
2, 38760, Note_on_c, 0, 67, 127
2, 38856, Note_off_c, 0, 67, 64
2, 38880, Note_on_c, 0, 65, 127
2, 38976, Note_off_c, 0, 65, 64
2, 39000, Note_on_c, 0, 64, 127
2, 39096, Note_off_c, 0, 64, 64
2, 39120, Note_on_c, 0, 62, 127
2, 39216, Note_off_c, 0, 62, 64
2, 39240, Note_on_c, 0, 61, 127
2, 39336, Note_off_c, 0, 61, 64
2, 39360, Note_on_c, 0, 62, 127
2, 39648, Note_off_c, 0, 62, 64
2, 39720, Note_on_c, 0, 64, 127
2, 39816, Note_off_c, 0, 64, 64
2, 39840, Note_on_c, 0, 64, 127
2, 40128, Note_off_c, 0, 64, 64
2, 40200, Note_on_c, 0, 62, 127
2, 40296, Note_off_c, 0, 62, 64
2, 40320, Note_on_c, 0, 62, 127
2, 41088, Note_off_c, 0, 62, 64
2, 41400, Note_on_c, 0, 69, 127
2, 41496, Note_off_c, 0, 69, 64
2, 41520, Note_on_c, 0, 69, 127
2, 41616, Note_off_c, 0, 69, 64
2, 41640, Note_on_c, 0, 69, 127
2, 41736, Note_off_c, 0, 69, 64
2, 41760, Note_on_c, 0, 69, 127
2, 41856, Note_off_c, 0, 69, 64
2, 41880, Note_on_c, 0, 67, 127
2, 41928, Note_off_c, 0, 67, 64
2, 41940, Note_on_c, 0, 65, 127
2, 41988, Note_off_c, 0, 65, 64
2, 42000, Note_on_c, 0, 67, 127
2, 42096, Note_off_c, 0, 67, 64
2, 42120, Note_on_c, 0, 64, 127
2, 42216, Note_off_c, 0, 64, 64
2, 42240, Note_on_c, 0, 65, 127
2, 42336, Note_off_c, 0, 65, 64
2, 42480, Note_on_c, 0, 70, 127
2, 42576, Note_off_c, 0, 70, 64
2, 42720, Note_on_c, 0, 64, 127
2, 42816, Note_off_c, 0, 64, 64
2, 42960, Note_on_c, 0, 69, 127
2, 43056, Note_off_c, 0, 69, 64
2, 43200, Note_on_c, 0, 69, 127
2, 43296, Note_off_c, 0, 69, 64
2, 43320, Note_on_c, 0, 67, 127
2, 43320, Note_on_c, 0, 74, 127
2, 43368, Note_off_c, 0, 67, 64
2, 43380, Note_on_c, 0, 65, 127
2, 43416, Note_off_c, 0, 74, 64
2, 43428, Note_off_c, 0, 65, 64
2, 43440, Note_on_c, 0, 67, 127
2, 43440, Note_on_c, 0, 74, 127
2, 43536, Note_off_c, 0, 74, 64
2, 43536, Note_off_c, 0, 67, 64
2, 43560, Note_on_c, 0, 74, 127
2, 43560, Note_on_c, 0, 64, 127
2, 43656, Note_off_c, 0, 64, 64
2, 43656, Note_off_c, 0, 74, 64
2, 43680, Note_on_c, 0, 74, 127
2, 43680, Note_on_c, 0, 65, 127
2, 43776, Note_off_c, 0, 65, 64
2, 43776, Note_off_c, 0, 74, 64
2, 43800, Note_on_c, 0, 72, 127
2, 43848, Note_off_c, 0, 72, 64
2, 43860, Note_on_c, 0, 70, 127
2, 43908, Note_off_c, 0, 70, 64
2, 43920, Note_on_c, 0, 72, 127
2, 43920, Note_on_c, 0, 64, 127
2, 44016, Note_off_c, 0, 64, 64
2, 44016, Note_off_c, 0, 72, 64
2, 44040, Note_on_c, 0, 69, 127
2, 44136, Note_off_c, 0, 69, 64
2, 44160, Note_on_c, 0, 70, 127
2, 44160, Note_on_c, 0, 62, 127
2, 44448, Note_off_c, 0, 62, 64
2, 44460, Note_on_c, 0, 65, 127
2, 44508, Note_off_c, 0, 65, 64
2, 44520, Note_on_c, 0, 64, 127
2, 44544, Note_off_c, 0, 70, 64
2, 44568, Note_off_c, 0, 64, 64
2, 44580, Note_on_c, 0, 65, 127
2, 44604, Note_off_c, 0, 65, 64
2, 44610, Note_on_c, 0, 67, 127
2, 44634, Note_off_c, 0, 67, 64
2, 44640, Note_on_c, 0, 69, 127
2, 44640, Note_on_c, 0, 61, 127
2, 44736, Note_off_c, 0, 61, 64
2, 44736, Note_off_c, 0, 69, 64
2, 44760, Note_on_c, 0, 81, 127
2, 44856, Note_off_c, 0, 81, 64
2, 44880, Note_on_c, 0, 81, 127
2, 44880, Note_on_c, 0, 69, 127
2, 44880, Note_on_c, 0, 62, 127
2, 44976, Note_off_c, 0, 62, 64
2, 44976, Note_off_c, 0, 69, 64
2, 44976, Note_off_c, 0, 81, 64
2, 45000, Note_on_c, 0, 81, 127
2, 45120, Note_on_c, 0, 70, 127
2, 45216, Note_off_c, 0, 81, 64
2, 45216, Note_off_c, 0, 70, 64
2, 45240, Note_on_c, 0, 79, 127
2, 45288, Note_off_c, 0, 79, 64
2, 45300, Note_on_c, 0, 77, 127
2, 45348, Note_off_c, 0, 77, 64
2, 45360, Note_on_c, 0, 69, 127
2, 45360, Note_on_c, 0, 79, 127
2, 45456, Note_off_c, 0, 79, 64
2, 45456, Note_off_c, 0, 69, 64
2, 45480, Note_on_c, 0, 76, 127
2, 45600, Note_on_c, 0, 77, 127
2, 45696, Note_off_c, 0, 76, 64
2, 45696, Note_off_c, 0, 77, 64
2, 45720, Note_on_c, 0, 74, 127
2, 45768, Note_off_c, 0, 74, 64
2, 45780, Note_on_c, 0, 73, 127
2, 45828, Note_off_c, 0, 73, 64
2, 45840, Note_on_c, 0, 74, 127
2, 45840, Note_on_c, 0, 77, 127
2, 45936, Note_off_c, 0, 77, 64
2, 45936, Note_off_c, 0, 74, 64
2, 46080, Note_on_c, 0, 64, 127
2, 46080, Note_on_c, 0, 74, 127
2, 46080, Note_on_c, 0, 76, 127
2, 46176, Note_off_c, 0, 76, 64
2, 46176, Note_off_c, 0, 74, 64
2, 46176, Note_off_c, 0, 64, 64
2, 46320, Note_on_c, 0, 76, 127
2, 46320, Note_on_c, 0, 64, 127
2, 46320, Note_on_c, 0, 73, 127
2, 46416, Note_off_c, 0, 73, 64
2, 46416, Note_off_c, 0, 64, 64
2, 46416, Note_off_c, 0, 76, 64
2, 46560, Note_on_c, 0, 69, 127
2, 46560, Note_on_c, 0, 76, 127
2, 46656, Note_off_c, 0, 76, 64
2, 46656, Note_off_c, 0, 69, 64
2, 46680, Note_on_c, 0, 77, 127
2, 46680, Note_on_c, 0, 74, 127
2, 46728, Note_off_c, 0, 74, 64
2, 46740, Note_on_c, 0, 73, 127
2, 46776, Note_off_c, 0, 77, 64
2, 46788, Note_off_c, 0, 73, 64
2, 46800, Note_on_c, 0, 74, 127
2, 46800, Note_on_c, 0, 69, 127
2, 46800, Note_on_c, 0, 77, 127
2, 46896, Note_off_c, 0, 77, 64
2, 46896, Note_off_c, 0, 69, 64
2, 46896, Note_off_c, 0, 74, 64
2, 46920, Note_on_c, 0, 69, 127
2, 46920, Note_on_c, 0, 77, 127
2, 47016, Note_off_c, 0, 77, 64
2, 47016, Note_off_c, 0, 69, 64
2, 47040, Note_on_c, 0, 67, 127
2, 47040, Note_on_c, 0, 70, 127
2, 47040, Note_on_c, 0, 77, 127
2, 47136, Note_off_c, 0, 77, 64
2, 47136, Note_off_c, 0, 70, 64
2, 47136, Note_off_c, 0, 67, 64
2, 47160, Note_on_c, 0, 76, 127
2, 47208, Note_off_c, 0, 76, 64
2, 47220, Note_on_c, 0, 74, 127
2, 47268, Note_off_c, 0, 74, 64
2, 47280, Note_on_c, 0, 76, 127
2, 47280, Note_on_c, 0, 67, 127
2, 47280, Note_on_c, 0, 64, 127
2, 47328, Note_off_c, 0, 76, 64
2, 47340, Note_on_c, 0, 79, 127
2, 47376, Note_off_c, 0, 64, 64
2, 47376, Note_off_c, 0, 67, 64
2, 47388, Note_off_c, 0, 79, 64
2, 47400, Note_on_c, 0, 73, 127
2, 47448, Note_off_c, 0, 73, 64
2, 47460, Note_on_c, 0, 74, 127
2, 47508, Note_off_c, 0, 74, 64
2, 47520, Note_on_c, 0, 67, 127
2, 47520, Note_on_c, 0, 64, 127
2, 47520, Note_on_c, 0, 73, 127
2, 47568, Note_off_c, 0, 67, 64
2, 47580, Note_on_c, 0, 70, 127
2, 47616, Note_off_c, 0, 73, 64
2, 47616, Note_off_c, 0, 64, 64
2, 47628, Note_off_c, 0, 70, 64
2, 47640, Note_on_c, 0, 69, 127
2, 47688, Note_off_c, 0, 69, 64
2, 47700, Note_on_c, 0, 67, 127
2, 47748, Note_off_c, 0, 67, 64
2, 47760, Note_on_c, 0, 65, 127
2, 47820, Note_on_c, 0, 74, 127
2, 47856, Note_off_c, 0, 65, 64
2, 47868, Note_off_c, 0, 74, 64
2, 47880, Note_on_c, 0, 64, 127
2, 47928, Note_off_c, 0, 64, 64
2, 47940, Note_on_c, 0, 62, 127
2, 47988, Note_off_c, 0, 62, 64
2, 48060, Note_on_c, 0, 64, 127
2, 48108, Note_off_c, 0, 64, 64
2, 48120, Note_on_c, 0, 68, 127
2, 48168, Note_off_c, 0, 68, 64
2, 48180, Note_on_c, 0, 71, 127
2, 48228, Note_off_c, 0, 71, 64
2, 48240, Note_on_c, 0, 72, 127
2, 48288, Note_off_c, 0, 72, 64
2, 48300, Note_on_c, 0, 76, 127
2, 48348, Note_off_c, 0, 76, 64
2, 48360, Note_on_c, 0, 69, 127
2, 48408, Note_off_c, 0, 69, 64
2, 48420, Note_on_c, 0, 67, 127
2, 48468, Note_off_c, 0, 67, 64
2, 48540, Note_on_c, 0, 69, 127
2, 48588, Note_off_c, 0, 69, 64
2, 48600, Note_on_c, 0, 72, 127
2, 48648, Note_off_c, 0, 72, 64
2, 48660, Note_on_c, 0, 75, 127
2, 48708, Note_off_c, 0, 75, 64
2, 48720, Note_on_c, 0, 74, 127
2, 48768, Note_off_c, 0, 74, 64
2, 48780, Note_on_c, 0, 72, 127
2, 48828, Note_off_c, 0, 72, 64
2, 48840, Note_on_c, 0, 70, 127
2, 48888, Note_off_c, 0, 70, 64
2, 48900, Note_on_c, 0, 69, 127
2, 48948, Note_off_c, 0, 69, 64
2, 48960, Note_on_c, 0, 70, 127
2, 49008, Note_off_c, 0, 70, 64
2, 49020, Note_on_c, 0, 62, 127
2, 49068, Note_off_c, 0, 62, 64
2, 49080, Note_on_c, 0, 67, 127
2, 49128, Note_off_c, 0, 67, 64
2, 49140, Note_on_c, 0, 69, 127
2, 49188, Note_off_c, 0, 69, 64
2, 49200, Note_on_c, 0, 70, 127
2, 49248, Note_off_c, 0, 70, 64
2, 49260, Note_on_c, 0, 74, 127
2, 49308, Note_off_c, 0, 74, 64
2, 49320, Note_on_c, 0, 67, 127
2, 49368, Note_off_c, 0, 67, 64
2, 49380, Note_on_c, 0, 65, 127
2, 49428, Note_off_c, 0, 65, 64
2, 49500, Note_on_c, 0, 67, 127
2, 49548, Note_off_c, 0, 67, 64
2, 49560, Note_on_c, 0, 70, 127
2, 49608, Note_off_c, 0, 70, 64
2, 49620, Note_on_c, 0, 74, 127
2, 49668, Note_off_c, 0, 74, 64
2, 49680, Note_on_c, 0, 72, 127
2, 49728, Note_off_c, 0, 72, 64
2, 49740, Note_on_c, 0, 70, 127
2, 49788, Note_off_c, 0, 70, 64
2, 49800, Note_on_c, 0, 69, 127
2, 49848, Note_off_c, 0, 69, 64
2, 49860, Note_on_c, 0, 67, 127
2, 49908, Note_off_c, 0, 67, 64
2, 49920, Note_on_c, 0, 69, 127
2, 49968, Note_off_c, 0, 69, 64
2, 49980, Note_on_c, 0, 64, 127
2, 50028, Note_off_c, 0, 64, 64
2, 50040, Note_on_c, 0, 65, 127
2, 50088, Note_off_c, 0, 65, 64
2, 50100, Note_on_c, 0, 61, 127
2, 50148, Note_off_c, 0, 61, 64
2, 50160, Note_on_c, 0, 62, 127
2, 50208, Note_off_c, 0, 62, 64
2, 50220, Note_on_c, 0, 65, 127
2, 50268, Note_off_c, 0, 65, 64
2, 50280, Note_on_c, 0, 69, 127
2, 50340, Note_on_c, 0, 60, 127
2, 50376, Note_off_c, 0, 69, 64
2, 50388, Note_off_c, 0, 60, 64
2, 50400, Note_on_c, 0, 58, 127
2, 50460, Note_on_c, 0, 62, 80
2, 50496, Note_off_c, 0, 58, 64
2, 50520, Note_off_c, 0, 62, 64
2, 50520, Note_on_c, 0, 65, 127
2, 50568, Note_off_c, 0, 65, 64
2, 50580, Note_on_c, 0, 69, 127
2, 50628, Note_off_c, 0, 69, 64
2, 50640, Note_on_c, 0, 67, 127
2, 50688, Note_off_c, 0, 67, 64
2, 50700, Note_on_c, 0, 64, 127
2, 50748, Note_off_c, 0, 64, 64
2, 50760, Note_on_c, 0, 65, 127
2, 50808, Note_off_c, 0, 65, 64
2, 50820, Note_on_c, 0, 62, 127
2, 50868, Note_off_c, 0, 62, 64
2, 50880, Note_on_c, 0, 61, 127
2, 50928, Note_off_c, 0, 61, 64
2, 50940, Note_on_c, 0, 64, 127
2, 50988, Note_off_c, 0, 64, 64
2, 51000, Note_on_c, 0, 67, 127
2, 51048, Note_off_c, 0, 67, 64
2, 51060, Note_on_c, 0, 70, 127
2, 51108, Note_off_c, 0, 70, 64
2, 51120, Note_on_c, 0, 69, 127
2, 51168, Note_off_c, 0, 69, 64
2, 51180, Note_on_c, 0, 67, 127
2, 51228, Note_off_c, 0, 67, 64
2, 51240, Note_on_c, 0, 65, 127
2, 51288, Note_off_c, 0, 65, 64
2, 51300, Note_on_c, 0, 64, 127
2, 51348, Note_off_c, 0, 64, 64
2, 51360, Note_on_c, 0, 65, 127
2, 51408, Note_off_c, 0, 65, 64
2, 51420, Note_on_c, 0, 62, 127
2, 51468, Note_off_c, 0, 62, 64
2, 51480, Note_on_c, 0, 69, 127
2, 51648, Note_off_c, 0, 69, 64
2, 51660, Note_on_c, 0, 69, 127
2, 51708, Note_off_c, 0, 69, 64
2, 51720, Note_on_c, 0, 74, 127
2, 51816, Note_off_c, 0, 74, 64
2, 51840, Note_on_c, 0, 73, 127
2, 51888, Note_off_c, 0, 73, 64
2, 51900, Note_on_c, 0, 71, 127
2, 51948, Note_off_c, 0, 71, 64
2, 51960, Note_on_c, 0, 73, 127
2, 52008, Note_off_c, 0, 73, 64
2, 52020, Note_on_c, 0, 76, 127
2, 52068, Note_off_c, 0, 76, 64
2, 52080, Note_on_c, 0, 77, 127
2, 52176, Note_off_c, 0, 77, 64
2, 52200, Note_on_c, 0, 74, 127
2, 52200, Note_on_c, 0, 77, 127
2, 52296, Note_off_c, 0, 77, 64
2, 52296, Note_off_c, 0, 74, 64
2, 52320, Note_on_c, 0, 77, 127
2, 52320, Note_on_c, 0, 74, 127
2, 52416, Note_off_c, 0, 77, 64
2, 52440, Note_on_c, 0, 76, 127
2, 52488, Note_off_c, 0, 76, 64
2, 52500, Note_on_c, 0, 74, 127
2, 52512, Note_off_c, 0, 74, 64
2, 52548, Note_off_c, 0, 74, 64
2, 52560, Note_on_c, 0, 76, 127
2, 52656, Note_off_c, 0, 76, 64
2, 52680, Note_on_c, 0, 72, 127
2, 52680, Note_on_c, 0, 76, 127
2, 52776, Note_off_c, 0, 76, 64
2, 52776, Note_off_c, 0, 72, 64
2, 52800, Note_on_c, 0, 72, 127
2, 52800, Note_on_c, 0, 75, 127
2, 52848, Note_off_c, 0, 75, 64
2, 52860, Note_on_c, 0, 74, 127
2, 52908, Note_off_c, 0, 74, 64
2, 52920, Note_on_c, 0, 75, 127
2, 52968, Note_off_c, 0, 75, 64
2, 52980, Note_on_c, 0, 73, 127
2, 52992, Note_off_c, 0, 72, 64
2, 53028, Note_off_c, 0, 73, 64
2, 53040, Note_on_c, 0, 74, 127
2, 53136, Note_off_c, 0, 74, 64
2, 53160, Note_on_c, 0, 72, 127
2, 53256, Note_off_c, 0, 72, 64
2, 53280, Note_on_c, 0, 70, 127
2, 53328, Note_off_c, 0, 70, 64
2, 53340, Note_on_c, 0, 69, 127
2, 53388, Note_off_c, 0, 69, 64
2, 53400, Note_on_c, 0, 69, 127
2, 53448, Note_off_c, 0, 69, 64
2, 53460, Note_on_c, 0, 67, 127
2, 53508, Note_off_c, 0, 67, 64
2, 53520, Note_on_c, 0, 67, 127
2, 53568, Note_off_c, 0, 67, 64
2, 53580, Note_on_c, 0, 65, 127
2, 53628, Note_off_c, 0, 65, 64
2, 53640, Note_on_c, 0, 65, 127
2, 53688, Note_off_c, 0, 65, 64
2, 53700, Note_on_c, 0, 63, 127
2, 53748, Note_off_c, 0, 63, 64
2, 53760, Note_on_c, 0, 63, 127
2, 53808, Note_off_c, 0, 63, 64
2, 53820, Note_on_c, 0, 61, 127
2, 53868, Note_off_c, 0, 61, 64
2, 53880, Note_on_c, 0, 61, 127
2, 53928, Note_off_c, 0, 61, 64
2, 53940, Note_on_c, 0, 62, 127
2, 53988, Note_off_c, 0, 62, 64
2, 54000, Note_on_c, 0, 62, 127
2, 54048, Note_off_c, 0, 62, 64
2, 54060, Note_on_c, 0, 57, 127
2, 54108, Note_off_c, 0, 57, 64
2, 54120, Note_on_c, 0, 55, 127
2, 54168, Note_off_c, 0, 55, 64
2, 54180, Note_on_c, 0, 53, 127
2, 54228, Note_off_c, 0, 53, 64
2, 54300, Note_on_c, 0, 62, 127
2, 54348, Note_off_c, 0, 62, 64
2, 54360, Note_on_c, 0, 58, 127
2, 54360, Note_on_c, 0, 67, 127
2, 54408, Note_off_c, 0, 67, 64
2, 54420, Note_on_c, 0, 70, 127
2, 54456, Note_off_c, 0, 58, 64
2, 54468, Note_off_c, 0, 70, 64
2, 54480, Note_on_c, 0, 58, 127
2, 54540, Note_on_c, 0, 62, 127
2, 54576, Note_off_c, 0, 58, 64
2, 54588, Note_off_c, 0, 62, 64
2, 54600, Note_on_c, 0, 64, 127
2, 54600, Note_on_c, 0, 57, 127
2, 54648, Note_off_c, 0, 64, 64
2, 54660, Note_on_c, 0, 61, 127
2, 54696, Note_off_c, 0, 57, 64
2, 54708, Note_off_c, 0, 61, 64
2, 54720, Note_on_c, 0, 62, 127
2, 54720, Note_on_c, 0, 57, 127
2, 54816, Note_off_c, 0, 57, 64
2, 54816, Note_off_c, 0, 62, 64
2, 54840, Note_on_c, 0, 81, 127
2, 54936, Note_off_c, 0, 81, 64
2, 54960, Note_on_c, 0, 81, 127
2, 55056, Note_off_c, 0, 81, 64
2, 55080, Note_on_c, 0, 81, 127
2, 55176, Note_off_c, 0, 81, 64
2, 55200, Note_on_c, 0, 81, 127
2, 55296, Note_off_c, 0, 81, 64
2, 55320, Note_on_c, 0, 79, 127
2, 55368, Note_off_c, 0, 79, 64
2, 55380, Note_on_c, 0, 77, 127
2, 55428, Note_off_c, 0, 77, 64
2, 55440, Note_on_c, 0, 79, 127
2, 55536, Note_off_c, 0, 79, 64
2, 55560, Note_on_c, 0, 76, 127
2, 55656, Note_off_c, 0, 76, 64
2, 55680, Note_on_c, 0, 77, 127
2, 55776, Note_off_c, 0, 77, 64
2, 55800, Note_on_c, 0, 74, 127
2, 55896, Note_off_c, 0, 74, 64
2, 55920, Note_on_c, 0, 82, 127
2, 55920, Note_on_c, 0, 74, 127
2, 56016, Note_off_c, 0, 74, 64
2, 56016, Note_off_c, 0, 82, 64
2, 56040, Note_on_c, 0, 74, 127
2, 56136, Note_off_c, 0, 74, 64
2, 56160, Note_on_c, 0, 76, 127
2, 56160, Note_on_c, 0, 74, 127
2, 56256, Note_off_c, 0, 74, 64
2, 56256, Note_off_c, 0, 76, 64
2, 56280, Note_on_c, 0, 72, 127
2, 56328, Note_off_c, 0, 72, 64
2, 56340, Note_on_c, 0, 70, 127
2, 56388, Note_off_c, 0, 70, 64
2, 56400, Note_on_c, 0, 72, 127
2, 56400, Note_on_c, 0, 81, 127
2, 56496, Note_off_c, 0, 72, 64
2, 56520, Note_on_c, 0, 69, 127
2, 56616, Note_off_c, 0, 69, 64
2, 56640, Note_on_c, 0, 70, 127
2, 56736, Note_off_c, 0, 81, 64
2, 56736, Note_off_c, 0, 70, 64
2, 56760, Note_on_c, 0, 79, 127
2, 56760, Note_on_c, 0, 70, 127
2, 56808, Note_off_c, 0, 70, 64
2, 56820, Note_on_c, 0, 69, 127
2, 56856, Note_off_c, 0, 79, 64
2, 56868, Note_off_c, 0, 69, 64
2, 56880, Note_on_c, 0, 79, 127
2, 56880, Note_on_c, 0, 70, 127
2, 56976, Note_off_c, 0, 70, 64
2, 56976, Note_off_c, 0, 79, 64
2, 57000, Note_on_c, 0, 67, 127
2, 57000, Note_on_c, 0, 79, 127
2, 57096, Note_off_c, 0, 79, 64
2, 57096, Note_off_c, 0, 67, 64
2, 57120, Note_on_c, 0, 79, 127
2, 57120, Note_on_c, 0, 69, 127
2, 57216, Note_off_c, 0, 69, 64
2, 57216, Note_off_c, 0, 79, 64
2, 57240, Note_on_c, 0, 77, 127
2, 57288, Note_off_c, 0, 77, 64
2, 57300, Note_on_c, 0, 76, 127
2, 57348, Note_off_c, 0, 76, 64
2, 57360, Note_on_c, 0, 74, 127
2, 57360, Note_on_c, 0, 77, 127
2, 57456, Note_off_c, 0, 77, 64
2, 57456, Note_off_c, 0, 74, 64
2, 57480, Note_on_c, 0, 74, 127
2, 57576, Note_off_c, 0, 74, 64
2, 57600, Note_on_c, 0, 76, 127
2, 57600, Note_on_c, 0, 74, 127
2, 57696, Note_off_c, 0, 74, 64
2, 57696, Note_off_c, 0, 76, 64
2, 57720, Note_on_c, 0, 72, 127
2, 57816, Note_off_c, 0, 72, 64
2, 57840, Note_on_c, 0, 81, 127
2, 57840, Note_on_c, 0, 72, 127
2, 57936, Note_off_c, 0, 72, 64
2, 57936, Note_off_c, 0, 81, 64
2, 57960, Note_on_c, 0, 72, 127
2, 58056, Note_off_c, 0, 72, 64
2, 58080, Note_on_c, 0, 74, 127
2, 58080, Note_on_c, 0, 72, 127
2, 58176, Note_off_c, 0, 72, 64
2, 58176, Note_off_c, 0, 74, 64
2, 58200, Note_on_c, 0, 70, 127
2, 58248, Note_off_c, 0, 70, 64
2, 58260, Note_on_c, 0, 69, 127
2, 58308, Note_off_c, 0, 69, 64
2, 58320, Note_on_c, 0, 79, 127
2, 58320, Note_on_c, 0, 70, 127
2, 58416, Note_off_c, 0, 70, 64
2, 58440, Note_on_c, 0, 67, 127
2, 58536, Note_off_c, 0, 67, 64
2, 58560, Note_on_c, 0, 69, 127
2, 58656, Note_off_c, 0, 69, 64
2, 58656, Note_off_c, 0, 79, 64
2, 58680, Note_on_c, 0, 77, 127
2, 58680, Note_on_c, 0, 69, 127
2, 58728, Note_off_c, 0, 69, 64
2, 58740, Note_on_c, 0, 67, 127
2, 58776, Note_off_c, 0, 77, 64
2, 58788, Note_off_c, 0, 67, 64
2, 58800, Note_on_c, 0, 69, 127
2, 58800, Note_on_c, 0, 77, 127
2, 58896, Note_off_c, 0, 77, 64
2, 58896, Note_off_c, 0, 69, 64
2, 58920, Note_on_c, 0, 77, 127
2, 58920, Note_on_c, 0, 70, 127
2, 58968, Note_off_c, 0, 70, 64
2, 58980, Note_on_c, 0, 69, 127
2, 59016, Note_off_c, 0, 77, 64
2, 59028, Note_off_c, 0, 69, 64
2, 59040, Note_on_c, 0, 67, 127
2, 59040, Note_on_c, 0, 77, 127
2, 59136, Note_off_c, 0, 77, 64
2, 59136, Note_off_c, 0, 67, 64
2, 59160, Note_on_c, 0, 76, 127
2, 59208, Note_off_c, 0, 76, 64
2, 59220, Note_on_c, 0, 74, 127
2, 59268, Note_off_c, 0, 74, 64
2, 59280, Note_on_c, 0, 76, 127
2, 59280, Note_on_c, 0, 72, 127
2, 59376, Note_off_c, 0, 72, 64
2, 59376, Note_off_c, 0, 76, 64
2, 59400, Note_on_c, 0, 77, 127
2, 59448, Note_off_c, 0, 77, 64
2, 59460, Note_on_c, 0, 76, 127
2, 59508, Note_off_c, 0, 76, 64
2, 59520, Note_on_c, 0, 72, 127
2, 59520, Note_on_c, 0, 74, 127
2, 59616, Note_off_c, 0, 74, 64
2, 59616, Note_off_c, 0, 72, 64
2, 59640, Note_on_c, 0, 70, 127
2, 59688, Note_off_c, 0, 70, 64
2, 59700, Note_on_c, 0, 69, 127
2, 59748, Note_off_c, 0, 69, 64
2, 59760, Note_on_c, 0, 70, 127
2, 59760, Note_on_c, 0, 79, 127
2, 59856, Note_off_c, 0, 70, 64
2, 59880, Note_on_c, 0, 72, 127
2, 59928, Note_off_c, 0, 72, 64
2, 59940, Note_on_c, 0, 70, 127
2, 59988, Note_off_c, 0, 70, 64
2, 60000, Note_on_c, 0, 69, 127
2, 60096, Note_off_c, 0, 69, 64
2, 60096, Note_off_c, 0, 79, 64
2, 60120, Note_on_c, 0, 77, 127
2, 60168, Note_off_c, 0, 77, 64
2, 60180, Note_on_c, 0, 76, 127
2, 60228, Note_off_c, 0, 76, 64
2, 60240, Note_on_c, 0, 74, 127
2, 60240, Note_on_c, 0, 77, 127
2, 60336, Note_off_c, 0, 77, 64
2, 60360, Note_on_c, 0, 79, 127
2, 60408, Note_off_c, 0, 79, 64
2, 60420, Note_on_c, 0, 77, 127
2, 60468, Note_off_c, 0, 77, 64
2, 60480, Note_on_c, 0, 76, 127
2, 60576, Note_off_c, 0, 76, 64
2, 60576, Note_off_c, 0, 74, 64
2, 60600, Note_on_c, 0, 72, 127
2, 60648, Note_off_c, 0, 72, 64
2, 60660, Note_on_c, 0, 71, 127
2, 60708, Note_off_c, 0, 71, 64
2, 60720, Note_on_c, 0, 81, 127
2, 60720, Note_on_c, 0, 72, 127
2, 60816, Note_off_c, 0, 72, 64
2, 60816, Note_off_c, 0, 81, 64
2, 60840, Note_on_c, 0, 74, 127
2, 60888, Note_off_c, 0, 74, 64
2, 60900, Note_on_c, 0, 72, 127
2, 60948, Note_off_c, 0, 72, 64
2, 60960, Note_on_c, 0, 71, 127
2, 60960, Note_on_c, 0, 81, 127
2, 61056, Note_off_c, 0, 81, 64
2, 61056, Note_off_c, 0, 71, 64
2, 61200, Note_on_c, 0, 71, 127
2, 61200, Note_on_c, 0, 79, 127
2, 61296, Note_off_c, 0, 79, 64
2, 61296, Note_off_c, 0, 71, 64
2, 61440, Note_on_c, 0, 69, 127
2, 61440, Note_on_c, 0, 72, 127
2, 61536, Note_off_c, 0, 72, 64
2, 61536, Note_off_c, 0, 69, 64
2, 61680, Note_on_c, 0, 77, 127
2, 61680, Note_on_c, 0, 68, 127
2, 61776, Note_off_c, 0, 68, 64
2, 61776, Note_off_c, 0, 77, 64
2, 61920, Note_on_c, 0, 76, 127
2, 61980, Note_on_c, 0, 69, 127
2, 62016, Note_off_c, 0, 76, 64
2, 62040, Note_on_c, 0, 72, 127
2, 62076, Note_off_c, 0, 69, 64
2, 62100, Note_on_c, 0, 69, 127
2, 62136, Note_off_c, 0, 72, 64
2, 62148, Note_off_c, 0, 69, 64
2, 62160, Note_on_c, 0, 74, 127
2, 62220, Note_on_c, 0, 69, 127
2, 62256, Note_off_c, 0, 74, 64
2, 62280, Note_on_c, 0, 76, 127
2, 62316, Note_off_c, 0, 69, 64
2, 62340, Note_on_c, 0, 69, 127
2, 62376, Note_off_c, 0, 76, 64
2, 62388, Note_off_c, 0, 69, 64
2, 62400, Note_on_c, 0, 77, 127
2, 62460, Note_on_c, 0, 69, 127
2, 62496, Note_off_c, 0, 77, 64
2, 62520, Note_on_c, 0, 76, 127
2, 62556, Note_off_c, 0, 69, 64
2, 62580, Note_on_c, 0, 69, 127
2, 62616, Note_off_c, 0, 76, 64
2, 62628, Note_off_c, 0, 69, 64
2, 62640, Note_on_c, 0, 74, 127
2, 62700, Note_on_c, 0, 69, 127
2, 62748, Note_off_c, 0, 69, 64
2, 62760, Note_on_c, 0, 68, 127
2, 62808, Note_off_c, 0, 68, 64
2, 62820, Note_on_c, 0, 66, 127
2, 62868, Note_off_c, 0, 66, 64
2, 62880, Note_on_c, 0, 68, 127
2, 62928, Note_off_c, 0, 74, 64
2, 62940, Note_on_c, 0, 74, 127
2, 62976, Note_off_c, 0, 68, 64
2, 62988, Note_off_c, 0, 74, 64
2, 63000, Note_on_c, 0, 72, 127
2, 63048, Note_off_c, 0, 72, 64
2, 63060, Note_on_c, 0, 71, 127
2, 63108, Note_off_c, 0, 71, 64
2, 63120, Note_on_c, 0, 72, 127
2, 63180, Note_on_c, 0, 68, 127
2, 63228, Note_off_c, 0, 68, 64
2, 63240, Note_on_c, 0, 69, 127
2, 63288, Note_off_c, 0, 69, 64
2, 63300, Note_on_c, 0, 64, 127
2, 63312, Note_off_c, 0, 72, 64
2, 63348, Note_off_c, 0, 64, 64
2, 63360, Note_on_c, 0, 65, 127
2, 63420, Note_on_c, 0, 72, 127
2, 63468, Note_off_c, 0, 72, 64
2, 63480, Note_on_c, 0, 71, 127
2, 63528, Note_off_c, 0, 71, 64
2, 63540, Note_on_c, 0, 69, 127
2, 63552, Note_off_c, 0, 65, 64
2, 63588, Note_off_c, 0, 69, 64
2, 63600, Note_on_c, 0, 71, 127
2, 63660, Note_on_c, 0, 65, 127
2, 63696, Note_off_c, 0, 71, 64
2, 63720, Note_on_c, 0, 68, 127
2, 63756, Note_off_c, 0, 65, 64
2, 63780, Note_on_c, 0, 64, 127
2, 63816, Note_off_c, 0, 68, 64
2, 63840, Note_on_c, 0, 69, 127
2, 63888, Note_off_c, 0, 64, 64
2, 63900, Note_on_c, 0, 64, 127
2, 63948, Note_off_c, 0, 64, 64
2, 63960, Note_on_c, 0, 62, 127
2, 64008, Note_off_c, 0, 62, 64
2, 64020, Note_on_c, 0, 60, 127
2, 64032, Note_off_c, 0, 69, 64
2, 64068, Note_off_c, 0, 60, 64
2, 64080, Note_on_c, 0, 62, 127
2, 64140, Note_on_c, 0, 69, 127
2, 64176, Note_off_c, 0, 62, 64
2, 64200, Note_on_c, 0, 59, 127
2, 64236, Note_off_c, 0, 69, 64
2, 64260, Note_on_c, 0, 69, 127
2, 64296, Note_off_c, 0, 59, 64
2, 64320, Note_on_c, 0, 60, 127
2, 64368, Note_off_c, 0, 60, 64
2, 64377, Note_off_c, 0, 69, 64
2, 64380, Note_on_c, 0, 68, 127
2, 64380, Note_on_c, 0, 59, 127
2, 64428, Note_off_c, 0, 59, 64
2, 64437, Note_off_c, 0, 68, 64
2, 64440, Note_on_c, 0, 57, 127
2, 64440, Note_on_c, 0, 66, 127
2, 64488, Note_off_c, 0, 57, 64
2, 64497, Note_off_c, 0, 66, 64
2, 64500, Note_on_c, 0, 59, 127
2, 64500, Note_on_c, 0, 68, 127
2, 64548, Note_off_c, 0, 59, 64
2, 64557, Note_off_c, 0, 68, 64
2, 64560, Note_on_c, 0, 68, 127
2, 64560, Note_on_c, 0, 59, 127
2, 64704, Note_off_c, 0, 59, 64
2, 64704, Note_off_c, 0, 68, 64
2, 64740, Note_on_c, 0, 69, 127
2, 64740, Note_on_c, 0, 57, 127
2, 64788, Note_off_c, 0, 57, 64
2, 64788, Note_off_c, 0, 69, 64
2, 64800, Note_on_c, 0, 69, 127
2, 64800, Note_on_c, 0, 57, 127
2, 64896, Note_off_c, 0, 57, 64
2, 64896, Note_off_c, 0, 69, 64
2, 64920, Note_on_c, 0, 57, 127
2, 65016, Note_off_c, 0, 57, 64
2, 65040, Note_on_c, 0, 57, 127
2, 65136, Note_off_c, 0, 57, 64
2, 65160, Note_on_c, 0, 57, 127
2, 65256, Note_off_c, 0, 57, 64
2, 65280, Note_on_c, 0, 59, 127
2, 65376, Note_off_c, 0, 59, 64
2, 65640, Note_on_c, 0, 61, 127
2, 65736, Note_off_c, 0, 61, 64
2, 65760, Note_on_c, 0, 62, 127
2, 65856, Note_off_c, 0, 62, 64
2, 65880, Note_on_c, 0, 62, 127
2, 65976, Note_off_c, 0, 62, 64
2, 66000, Note_on_c, 0, 62, 127
2, 66096, Note_off_c, 0, 62, 64
2, 66120, Note_on_c, 0, 62, 127
2, 66216, Note_off_c, 0, 62, 64
2, 66240, Note_on_c, 0, 62, 127
2, 66336, Note_off_c, 0, 62, 64
2, 66360, Note_on_c, 0, 60, 127
2, 66408, Note_off_c, 0, 60, 64
2, 66420, Note_on_c, 0, 58, 127
2, 66468, Note_off_c, 0, 58, 64
2, 66480, Note_on_c, 0, 60, 127
2, 66576, Note_off_c, 0, 60, 64
2, 66600, Note_on_c, 0, 57, 127
2, 66696, Note_off_c, 0, 57, 64
2, 66720, Note_on_c, 0, 58, 127
2, 66816, Note_off_c, 0, 58, 64
2, 66840, Note_on_c, 0, 67, 127
2, 66936, Note_off_c, 0, 67, 64
2, 66960, Note_on_c, 0, 67, 127
2, 66960, Note_on_c, 0, 59, 127
2, 67056, Note_off_c, 0, 59, 64
2, 67056, Note_off_c, 0, 67, 64
2, 67080, Note_on_c, 0, 67, 127
2, 67176, Note_off_c, 0, 67, 64
2, 67200, Note_on_c, 0, 61, 127
2, 67200, Note_on_c, 0, 67, 127
2, 67296, Note_off_c, 0, 67, 64
2, 67296, Note_off_c, 0, 61, 64
2, 67320, Note_on_c, 0, 65, 127
2, 67368, Note_off_c, 0, 65, 64
2, 67380, Note_on_c, 0, 64, 127
2, 67428, Note_off_c, 0, 64, 64
2, 67440, Note_on_c, 0, 62, 127
2, 67440, Note_on_c, 0, 65, 127
2, 67536, Note_off_c, 0, 65, 64
2, 67536, Note_off_c, 0, 62, 64
2, 67560, Note_on_c, 0, 67, 127
2, 67608, Note_off_c, 0, 67, 64
2, 67620, Note_on_c, 0, 65, 127
2, 67668, Note_off_c, 0, 65, 64
2, 67680, Note_on_c, 0, 64, 127
2, 67680, Note_on_c, 0, 62, 127
2, 67776, Note_off_c, 0, 62, 64
2, 67776, Note_off_c, 0, 64, 64
2, 67800, Note_on_c, 0, 60, 127
2, 67848, Note_off_c, 0, 60, 64
2, 67860, Note_on_c, 0, 59, 127
2, 67908, Note_off_c, 0, 59, 64
2, 67920, Note_on_c, 0, 60, 127
2, 67920, Note_on_c, 0, 69, 127
2, 68016, Note_off_c, 0, 69, 64
2, 68016, Note_off_c, 0, 60, 64
2, 68040, Note_on_c, 0, 62, 127
2, 68088, Note_off_c, 0, 62, 64
2, 68100, Note_on_c, 0, 60, 127
2, 68148, Note_off_c, 0, 60, 64
2, 68160, Note_on_c, 0, 69, 127
2, 68160, Note_on_c, 0, 59, 127
2, 68256, Note_off_c, 0, 59, 64
2, 68256, Note_off_c, 0, 69, 64
2, 68280, Note_on_c, 0, 71, 127
2, 68328, Note_off_c, 0, 71, 64
2, 68340, Note_on_c, 0, 72, 127
2, 68388, Note_off_c, 0, 72, 64
2, 68400, Note_on_c, 0, 71, 127
2, 68448, Note_off_c, 0, 71, 64
2, 68460, Note_on_c, 0, 69, 127
2, 68508, Note_off_c, 0, 69, 64
2, 68520, Note_on_c, 0, 68, 127
2, 68568, Note_off_c, 0, 68, 64
2, 68580, Note_on_c, 0, 69, 127
2, 68628, Note_off_c, 0, 69, 64
2, 68640, Note_on_c, 0, 59, 127
2, 68640, Note_on_c, 0, 68, 127
2, 68736, Note_off_c, 0, 68, 64
2, 68736, Note_off_c, 0, 59, 64
2, 68880, Note_on_c, 0, 64, 127
2, 68880, Note_on_c, 0, 69, 127
2, 68976, Note_off_c, 0, 69, 64
2, 68976, Note_off_c, 0, 64, 64
2, 69120, Note_on_c, 0, 64, 127
2, 69216, Note_off_c, 0, 64, 64
2, 69240, Note_on_c, 0, 71, 127
2, 69336, Note_off_c, 0, 71, 64
2, 69360, Note_on_c, 0, 68, 127
2, 69360, Note_on_c, 0, 71, 127
2, 69360, Note_on_c, 0, 64, 127
2, 69456, Note_off_c, 0, 64, 64
2, 69456, Note_off_c, 0, 71, 64
2, 69456, Note_off_c, 0, 68, 64
2, 69480, Note_on_c, 0, 71, 127
2, 69576, Note_off_c, 0, 71, 64
2, 69600, Note_on_c, 0, 69, 127
2, 69600, Note_on_c, 0, 64, 127
2, 69696, Note_off_c, 0, 64, 64
2, 69720, Note_on_c, 0, 76, 127
2, 69744, Note_off_c, 0, 69, 64
2, 69780, Note_on_c, 0, 76, 127
2, 69816, Note_off_c, 0, 76, 64
2, 69828, Note_off_c, 0, 76, 64
2, 69840, Note_on_c, 0, 76, 127
2, 69840, Note_on_c, 0, 72, 127
2, 69888, Note_off_c, 0, 72, 64
2, 69900, Note_on_c, 0, 71, 127
2, 69936, Note_off_c, 0, 76, 64
2, 69948, Note_off_c, 0, 71, 64
2, 69960, Note_on_c, 0, 76, 127
2, 69960, Note_on_c, 0, 69, 127
2, 70008, Note_off_c, 0, 69, 64
2, 70020, Note_on_c, 0, 68, 127
2, 70056, Note_off_c, 0, 76, 64
2, 70068, Note_off_c, 0, 68, 64
2, 70080, Note_on_c, 0, 69, 127
2, 70080, Note_on_c, 0, 76, 127
2, 70176, Note_off_c, 0, 76, 64
2, 70176, Note_off_c, 0, 69, 64
2, 70200, Note_on_c, 0, 74, 127
2, 70248, Note_off_c, 0, 74, 64
2, 70260, Note_on_c, 0, 72, 127
2, 70308, Note_off_c, 0, 72, 64
2, 70320, Note_on_c, 0, 74, 127
2, 70416, Note_off_c, 0, 74, 64
2, 70440, Note_on_c, 0, 74, 127
2, 70440, Note_on_c, 0, 69, 127
2, 70536, Note_off_c, 0, 69, 64
2, 70536, Note_off_c, 0, 74, 64
2, 70560, Note_on_c, 0, 74, 127
2, 70560, Note_on_c, 0, 68, 127
2, 70656, Note_off_c, 0, 68, 64
2, 70656, Note_off_c, 0, 74, 64
2, 70680, Note_on_c, 0, 72, 127
2, 70728, Note_off_c, 0, 72, 64
2, 70740, Note_on_c, 0, 71, 127
2, 70788, Note_off_c, 0, 71, 64
2, 70800, Note_on_c, 0, 72, 127
2, 70896, Note_off_c, 0, 72, 64
2, 70920, Note_on_c, 0, 72, 127
2, 70920, Note_on_c, 0, 69, 127
2, 71016, Note_off_c, 0, 69, 64
2, 71016, Note_off_c, 0, 72, 64
2, 71040, Note_on_c, 0, 69, 127
2, 71040, Note_on_c, 0, 77, 127
2, 71088, Note_off_c, 0, 77, 64
2, 71100, Note_on_c, 0, 79, 127
2, 71136, Note_off_c, 0, 69, 64
2, 71148, Note_off_c, 0, 79, 64
2, 71160, Note_on_c, 0, 77, 127
2, 71208, Note_off_c, 0, 77, 64
2, 71220, Note_on_c, 0, 76, 127
2, 71268, Note_off_c, 0, 76, 64
2, 71280, Note_on_c, 0, 76, 127
2, 71280, Note_on_c, 0, 69, 127
2, 71328, Note_off_c, 0, 76, 64
2, 71340, Note_on_c, 0, 77, 127
2, 71376, Note_off_c, 0, 69, 64
2, 71388, Note_off_c, 0, 77, 64
2, 71400, Note_on_c, 0, 76, 127
2, 71448, Note_off_c, 0, 76, 64
2, 71460, Note_on_c, 0, 75, 127
2, 71508, Note_off_c, 0, 75, 64
2, 71520, Note_on_c, 0, 69, 127
2, 71520, Note_on_c, 0, 75, 127
2, 71616, Note_off_c, 0, 75, 64
2, 71616, Note_off_c, 0, 69, 64
2, 71640, Note_on_c, 0, 76, 127
2, 71760, Note_on_c, 0, 68, 127
2, 71808, Note_off_c, 0, 76, 64
2, 71820, Note_on_c, 0, 74, 127
2, 71856, Note_off_c, 0, 68, 64
2, 71868, Note_off_c, 0, 74, 64
2, 71880, Note_on_c, 0, 73, 127
2, 71928, Note_off_c, 0, 73, 64
2, 71940, Note_on_c, 0, 71, 127
2, 71988, Note_off_c, 0, 71, 64
2, 72000, Note_on_c, 0, 73, 127
2, 72000, Note_on_c, 0, 67, 127
2, 72096, Note_off_c, 0, 67, 64
2, 72096, Note_off_c, 0, 73, 64
2, 72120, Note_on_c, 0, 74, 127
2, 72240, Note_on_c, 0, 65, 127
2, 72288, Note_off_c, 0, 74, 64
2, 72300, Note_on_c, 0, 72, 127
2, 72336, Note_off_c, 0, 65, 64
2, 72348, Note_off_c, 0, 72, 64
2, 72360, Note_on_c, 0, 71, 127
2, 72408, Note_off_c, 0, 71, 64
2, 72420, Note_on_c, 0, 69, 127
2, 72468, Note_off_c, 0, 69, 64
2, 72480, Note_on_c, 0, 71, 127
2, 72480, Note_on_c, 0, 65, 127
2, 72528, Note_off_c, 0, 71, 64
2, 72540, Note_on_c, 0, 74, 127
2, 72576, Note_off_c, 0, 65, 64
2, 72588, Note_off_c, 0, 74, 64
2, 72600, Note_on_c, 0, 72, 127
2, 72720, Note_on_c, 0, 64, 127
2, 72768, Note_off_c, 0, 72, 64
2, 72780, Note_on_c, 0, 71, 127
2, 72816, Note_off_c, 0, 64, 64
2, 72828, Note_off_c, 0, 71, 64
2, 72840, Note_on_c, 0, 69, 127
2, 72888, Note_off_c, 0, 69, 64
2, 72900, Note_on_c, 0, 68, 127
2, 72948, Note_off_c, 0, 68, 64
2, 72960, Note_on_c, 0, 69, 127
2, 72960, Note_on_c, 0, 64, 127
2, 73008, Note_off_c, 0, 69, 64
2, 73020, Note_on_c, 0, 77, 127
2, 73056, Note_off_c, 0, 64, 64
2, 73068, Note_off_c, 0, 77, 64
2, 73080, Note_on_c, 0, 70, 127
2, 73200, Note_on_c, 0, 62, 127
2, 73248, Note_off_c, 0, 70, 64
2, 73260, Note_on_c, 0, 69, 127
2, 73296, Note_off_c, 0, 62, 64
2, 73308, Note_off_c, 0, 69, 64
2, 73320, Note_on_c, 0, 68, 127
2, 73368, Note_off_c, 0, 68, 64
2, 73380, Note_on_c, 0, 69, 127
2, 73428, Note_off_c, 0, 69, 64
2, 73440, Note_on_c, 0, 62, 127
2, 73440, Note_on_c, 0, 68, 127
2, 73536, Note_off_c, 0, 68, 64
2, 73536, Note_off_c, 0, 62, 64
2, 73560, Note_on_c, 0, 77, 127
2, 73608, Note_off_c, 0, 77, 64
2, 73620, Note_on_c, 0, 74, 127
2, 73668, Note_off_c, 0, 74, 64
2, 73680, Note_on_c, 0, 76, 127
2, 73800, Note_on_c, 0, 68, 127
2, 73896, Note_off_c, 0, 68, 64
2, 73920, Note_on_c, 0, 69, 127
2, 74016, Note_off_c, 0, 76, 64
2, 74016, Note_off_c, 0, 69, 64
2, 74040, Note_on_c, 0, 77, 127
2, 74064, Note_off_c, 0, 77, 64
2, 74070, Note_on_c, 0, 76, 127
2, 74094, Note_off_c, 0, 76, 64
2, 74100, Note_on_c, 0, 75, 127
2, 74148, Note_off_c, 0, 75, 64
2, 74160, Note_on_c, 0, 76, 127
2, 74256, Note_off_c, 0, 76, 64
2, 74280, Note_on_c, 0, 80, 127
2, 74376, Note_off_c, 0, 80, 64
2, 74400, Note_on_c, 0, 81, 127
2, 74448, Note_off_c, 0, 81, 64
2, 74460, Note_on_c, 0, 82, 127
2, 74508, Note_off_c, 0, 82, 64
2, 74520, Note_on_c, 0, 81, 127
2, 74568, Note_off_c, 0, 81, 64
2, 74580, Note_on_c, 0, 79, 127
2, 74628, Note_off_c, 0, 79, 64
2, 74640, Note_on_c, 0, 79, 127
2, 74688, Note_off_c, 0, 79, 64
2, 74700, Note_on_c, 0, 81, 127
2, 74748, Note_off_c, 0, 81, 64
2, 74760, Note_on_c, 0, 79, 127
2, 74808, Note_off_c, 0, 79, 64
2, 74820, Note_on_c, 0, 77, 127
2, 74868, Note_off_c, 0, 77, 64
2, 74880, Note_on_c, 0, 77, 127
2, 74928, Note_off_c, 0, 77, 64
2, 74940, Note_on_c, 0, 79, 127
2, 74988, Note_off_c, 0, 79, 64
2, 75000, Note_on_c, 0, 77, 127
2, 75048, Note_off_c, 0, 77, 64
2, 75060, Note_on_c, 0, 76, 127
2, 75108, Note_off_c, 0, 76, 64
2, 75120, Note_on_c, 0, 76, 127
2, 75216, Note_off_c, 0, 76, 64
2, 75240, Note_on_c, 0, 74, 127
2, 75240, Note_on_c, 0, 80, 127
2, 75336, Note_off_c, 0, 80, 64
2, 75336, Note_off_c, 0, 74, 64
2, 75360, Note_on_c, 0, 80, 127
2, 75360, Note_on_c, 0, 74, 127
2, 75456, Note_off_c, 0, 74, 64
2, 75456, Note_off_c, 0, 80, 64
2, 75480, Note_on_c, 0, 81, 127
2, 75480, Note_on_c, 0, 72, 127
2, 75576, Note_off_c, 0, 72, 64
2, 75576, Note_off_c, 0, 81, 64
2, 75600, Note_on_c, 0, 81, 127
2, 75600, Note_on_c, 0, 72, 127
2, 75696, Note_off_c, 0, 72, 64
2, 75696, Note_off_c, 0, 81, 64
2, 75720, Note_on_c, 0, 71, 127
2, 75720, Note_on_c, 0, 74, 127
2, 75816, Note_off_c, 0, 74, 64
2, 75816, Note_off_c, 0, 71, 64
2, 75840, Note_on_c, 0, 71, 127
2, 75840, Note_on_c, 0, 74, 127
2, 75984, Note_off_c, 0, 74, 64
2, 76020, Note_on_c, 0, 76, 127
2, 76032, Note_off_c, 0, 71, 64
2, 76068, Note_off_c, 0, 76, 64
2, 76080, Note_on_c, 0, 69, 127
2, 76080, Note_on_c, 0, 72, 127
2, 76176, Note_off_c, 0, 72, 64
2, 76176, Note_off_c, 0, 69, 64
2, 76200, Note_on_c, 0, 71, 127
2, 76200, Note_on_c, 0, 69, 127
2, 76296, Note_off_c, 0, 69, 64
2, 76296, Note_off_c, 0, 71, 64
2, 76320, Note_on_c, 0, 69, 127
2, 76320, Note_on_c, 0, 71, 127
2, 76704, Note_off_c, 0, 69, 64
2, 76800, Note_on_c, 0, 68, 127
2, 77184, Note_off_c, 0, 71, 64
2, 77184, Note_off_c, 0, 68, 64
2, 77280, Note_on_c, 0, 69, 127
2, 77280, Note_on_c, 0, 76, 127
2, 77376, Note_off_c, 0, 76, 64
2, 77400, Note_on_c, 0, 74, 127
2, 77496, Note_off_c, 0, 74, 64
2, 77520, Note_on_c, 0, 76, 127
2, 77616, Note_off_c, 0, 76, 64
2, 77640, Note_on_c, 0, 72, 127
2, 77736, Note_off_c, 0, 72, 64
2, 77760, Note_on_c, 0, 74, 127
2, 77856, Note_off_c, 0, 69, 64
2, 77880, Note_on_c, 0, 68, 127
2, 77976, Note_off_c, 0, 68, 64
2, 78000, Note_on_c, 0, 69, 127
2, 78096, Note_off_c, 0, 69, 64
2, 78120, Note_on_c, 0, 66, 127
2, 78216, Note_off_c, 0, 66, 64
2, 78240, Note_on_c, 0, 68, 127
2, 78336, Note_off_c, 0, 74, 64
2, 78360, Note_on_c, 0, 72, 127
2, 78456, Note_off_c, 0, 72, 64
2, 78480, Note_on_c, 0, 74, 127
2, 78576, Note_off_c, 0, 74, 64
2, 78600, Note_on_c, 0, 71, 127
2, 78624, Note_off_c, 0, 68, 64
2, 78696, Note_off_c, 0, 71, 64
2, 78720, Note_on_c, 0, 72, 127
2, 78720, Note_on_c, 0, 69, 127
2, 78816, Note_off_c, 0, 69, 64
2, 78816, Note_off_c, 0, 72, 64
2, 78840, Note_on_c, 0, 68, 127
2, 78840, Note_on_c, 0, 71, 127
2, 78936, Note_off_c, 0, 71, 64
2, 78936, Note_off_c, 0, 68, 64
2, 78960, Note_on_c, 0, 72, 127
2, 78960, Note_on_c, 0, 69, 127
2, 79056, Note_off_c, 0, 69, 64
2, 79056, Note_off_c, 0, 72, 64
2, 79080, Note_on_c, 0, 74, 127
2, 79080, Note_on_c, 0, 71, 127
2, 79176, Note_off_c, 0, 71, 64
2, 79176, Note_off_c, 0, 74, 64
2, 79200, Note_on_c, 0, 76, 127
2, 79200, Note_on_c, 0, 72, 127
2, 79296, Note_off_c, 0, 72, 64
2, 79296, Note_off_c, 0, 76, 64
2, 79320, Note_on_c, 0, 77, 127
2, 79320, Note_on_c, 0, 74, 127
2, 79416, Note_off_c, 0, 74, 64
2, 79416, Note_off_c, 0, 77, 64
2, 79440, Note_on_c, 0, 76, 127
2, 79440, Note_on_c, 0, 72, 127
2, 79536, Note_off_c, 0, 72, 64
2, 79536, Note_off_c, 0, 76, 64
2, 79560, Note_on_c, 0, 74, 127
2, 79560, Note_on_c, 0, 71, 127
2, 79656, Note_off_c, 0, 71, 64
2, 79656, Note_off_c, 0, 74, 64
2, 79680, Note_on_c, 0, 72, 127
2, 79680, Note_on_c, 0, 69, 127
2, 79776, Note_off_c, 0, 69, 64
2, 79776, Note_off_c, 0, 72, 64
2, 79800, Note_on_c, 0, 71, 127
2, 79800, Note_on_c, 0, 68, 127
2, 79896, Note_off_c, 0, 68, 64
2, 79896, Note_off_c, 0, 71, 64
2, 79920, Note_on_c, 0, 72, 127
2, 79920, Note_on_c, 0, 69, 127
2, 80016, Note_off_c, 0, 69, 64
2, 80016, Note_off_c, 0, 72, 64
2, 80040, Note_on_c, 0, 65, 127
2, 80040, Note_on_c, 0, 71, 127
2, 80040, Note_on_c, 0, 74, 127
2, 80136, Note_off_c, 0, 74, 64
2, 80136, Note_off_c, 0, 71, 64
2, 80136, Note_off_c, 0, 65, 64
2, 80160, Note_on_c, 0, 72, 127
2, 80160, Note_on_c, 0, 69, 127
2, 80160, Note_on_c, 0, 76, 127
2, 80256, Note_off_c, 0, 76, 64
2, 80256, Note_off_c, 0, 69, 64
2, 80256, Note_off_c, 0, 72, 64
2, 80280, Note_on_c, 0, 71, 127
2, 80280, Note_on_c, 0, 74, 127
2, 80376, Note_off_c, 0, 74, 64
2, 80376, Note_off_c, 0, 71, 64
2, 80400, Note_on_c, 0, 76, 127
2, 80400, Note_on_c, 0, 72, 127
2, 80496, Note_off_c, 0, 72, 64
2, 80496, Note_off_c, 0, 76, 64
2, 80520, Note_on_c, 0, 69, 127
2, 80520, Note_on_c, 0, 78, 127
2, 80616, Note_off_c, 0, 78, 64
2, 80616, Note_off_c, 0, 69, 64
2, 80640, Note_on_c, 0, 80, 127
2, 80640, Note_on_c, 0, 71, 127
2, 80736, Note_off_c, 0, 71, 64
2, 80736, Note_off_c, 0, 80, 64
2, 80760, Note_on_c, 0, 78, 127
2, 80760, Note_on_c, 0, 69, 127
2, 80856, Note_off_c, 0, 69, 64
2, 80856, Note_off_c, 0, 78, 64
2, 80880, Note_on_c, 0, 80, 127
2, 80880, Note_on_c, 0, 71, 127
2, 80976, Note_off_c, 0, 71, 64
2, 80976, Note_off_c, 0, 80, 64
2, 81000, Note_on_c, 0, 72, 127
2, 81000, Note_on_c, 0, 81, 127
2, 81096, Note_off_c, 0, 81, 64
2, 81096, Note_off_c, 0, 72, 64
2, 81120, Note_on_c, 0, 83, 127
2, 81120, Note_on_c, 0, 74, 127
2, 81216, Note_off_c, 0, 74, 64
2, 81216, Note_off_c, 0, 83, 64
2, 81240, Note_on_c, 0, 76, 127
2, 81240, Note_on_c, 0, 84, 127
2, 81336, Note_off_c, 0, 84, 64
2, 81336, Note_off_c, 0, 76, 64
2, 81360, Note_on_c, 0, 83, 127
2, 81360, Note_on_c, 0, 74, 127
2, 81456, Note_off_c, 0, 74, 64
2, 81456, Note_off_c, 0, 83, 64
2, 81480, Note_on_c, 0, 81, 127
2, 81480, Note_on_c, 0, 72, 127
2, 81576, Note_off_c, 0, 72, 64
2, 81576, Note_off_c, 0, 81, 64
2, 81600, Note_on_c, 0, 80, 127
2, 81600, Note_on_c, 0, 71, 127
2, 81696, Note_off_c, 0, 71, 64
2, 81696, Note_off_c, 0, 80, 64
2, 81720, Note_on_c, 0, 78, 127
2, 81720, Note_on_c, 0, 69, 127
2, 81816, Note_off_c, 0, 69, 64
2, 81816, Note_off_c, 0, 78, 64
2, 81840, Note_on_c, 0, 80, 127
2, 81840, Note_on_c, 0, 71, 127
2, 81936, Note_off_c, 0, 71, 64
2, 81936, Note_off_c, 0, 80, 64
2, 81960, Note_on_c, 0, 72, 127
2, 81960, Note_on_c, 0, 81, 127
2, 82056, Note_off_c, 0, 81, 64
2, 82056, Note_off_c, 0, 72, 64
2, 82080, Note_on_c, 0, 83, 127
2, 82080, Note_on_c, 0, 74, 127
2, 82176, Note_off_c, 0, 74, 64
2, 82176, Note_off_c, 0, 83, 64
2, 82200, Note_on_c, 0, 81, 127
2, 82200, Note_on_c, 0, 72, 127
2, 82296, Note_off_c, 0, 72, 64
2, 82296, Note_off_c, 0, 81, 64
2, 82320, Note_on_c, 0, 83, 127
2, 82320, Note_on_c, 0, 74, 127
2, 82416, Note_off_c, 0, 74, 64
2, 82416, Note_off_c, 0, 83, 64
2, 82440, Note_on_c, 0, 71, 127
2, 82440, Note_on_c, 0, 80, 127
2, 82536, Note_off_c, 0, 80, 64
2, 82536, Note_off_c, 0, 71, 64
2, 82560, Note_on_c, 0, 72, 127
2, 82560, Note_on_c, 0, 81, 127
2, 82608, Note_off_c, 0, 81, 64
2, 82608, Note_off_c, 0, 72, 64
2, 82620, Note_on_c, 0, 69, 127
2, 82668, Note_off_c, 0, 69, 64
2, 82680, Note_on_c, 0, 72, 127
2, 82728, Note_off_c, 0, 72, 64
2, 82740, Note_on_c, 0, 76, 127
2, 82788, Note_off_c, 0, 76, 64
2, 82800, Note_on_c, 0, 81, 127
2, 82848, Note_off_c, 0, 81, 64
2, 82860, Note_on_c, 0, 76, 127
2, 82908, Note_off_c, 0, 76, 64
2, 82920, Note_on_c, 0, 72, 127
2, 82968, Note_off_c, 0, 72, 64
2, 82980, Note_on_c, 0, 69, 127
2, 83028, Note_off_c, 0, 69, 64
2, 83040, Note_on_c, 0, 64, 127
2, 83088, Note_off_c, 0, 64, 64
2, 83100, Note_on_c, 0, 81, 127
2, 83148, Note_off_c, 0, 81, 64
2, 83160, Note_on_c, 0, 79, 127
2, 83208, Note_off_c, 0, 79, 64
2, 83220, Note_on_c, 0, 77, 127
2, 83268, Note_off_c, 0, 77, 64
2, 83280, Note_on_c, 0, 79, 127
2, 83328, Note_off_c, 0, 79, 64
2, 83340, Note_on_c, 0, 76, 127
2, 83388, Note_off_c, 0, 76, 64
2, 83400, Note_on_c, 0, 73, 127
2, 83448, Note_off_c, 0, 73, 64
2, 83460, Note_on_c, 0, 69, 127
2, 83508, Note_off_c, 0, 69, 64
2, 83520, Note_on_c, 0, 77, 127
2, 83568, Note_off_c, 0, 77, 64
2, 83580, Note_on_c, 0, 62, 127
2, 83628, Note_off_c, 0, 62, 64
2, 83640, Note_on_c, 0, 65, 127
2, 83688, Note_off_c, 0, 65, 64
2, 83700, Note_on_c, 0, 69, 127
2, 83748, Note_off_c, 0, 69, 64
2, 83760, Note_on_c, 0, 74, 127
2, 83808, Note_off_c, 0, 74, 64
2, 83820, Note_on_c, 0, 69, 127
2, 83868, Note_off_c, 0, 69, 64
2, 83880, Note_on_c, 0, 65, 127
2, 83928, Note_off_c, 0, 65, 64
2, 83940, Note_on_c, 0, 62, 127
2, 83988, Note_off_c, 0, 62, 64
2, 84000, Note_on_c, 0, 57, 127
2, 84048, Note_off_c, 0, 57, 64
2, 84060, Note_on_c, 0, 74, 127
2, 84108, Note_off_c, 0, 74, 64
2, 84120, Note_on_c, 0, 72, 127
2, 84168, Note_off_c, 0, 72, 64
2, 84180, Note_on_c, 0, 70, 127
2, 84228, Note_off_c, 0, 70, 64
2, 84240, Note_on_c, 0, 72, 127
2, 84288, Note_off_c, 0, 72, 64
2, 84300, Note_on_c, 0, 69, 127
2, 84348, Note_off_c, 0, 69, 64
2, 84360, Note_on_c, 0, 66, 127
2, 84408, Note_off_c, 0, 66, 64
2, 84420, Note_on_c, 0, 62, 127
2, 84468, Note_off_c, 0, 62, 64
2, 84480, Note_on_c, 0, 70, 127
2, 84528, Note_off_c, 0, 70, 64
2, 84540, Note_on_c, 0, 67, 127
2, 84588, Note_off_c, 0, 67, 64
2, 84600, Note_on_c, 0, 70, 127
2, 84648, Note_off_c, 0, 70, 64
2, 84660, Note_on_c, 0, 74, 127
2, 84708, Note_off_c, 0, 74, 64
2, 84720, Note_on_c, 0, 79, 127
2, 84768, Note_off_c, 0, 79, 64
2, 84780, Note_on_c, 0, 74, 127
2, 84828, Note_off_c, 0, 74, 64
2, 84840, Note_on_c, 0, 70, 127
2, 84888, Note_off_c, 0, 70, 64
2, 84900, Note_on_c, 0, 67, 127
2, 84948, Note_off_c, 0, 67, 64
2, 84960, Note_on_c, 0, 62, 127
2, 85008, Note_off_c, 0, 62, 64
2, 85020, Note_on_c, 0, 79, 127
2, 85068, Note_off_c, 0, 79, 64
2, 85080, Note_on_c, 0, 77, 127
2, 85128, Note_off_c, 0, 77, 64
2, 85140, Note_on_c, 0, 76, 127
2, 85188, Note_off_c, 0, 76, 64
2, 85200, Note_on_c, 0, 77, 127
2, 85248, Note_off_c, 0, 77, 64
2, 85260, Note_on_c, 0, 74, 127
2, 85308, Note_off_c, 0, 74, 64
2, 85320, Note_on_c, 0, 71, 127
2, 85368, Note_off_c, 0, 71, 64
2, 85380, Note_on_c, 0, 67, 127
2, 85428, Note_off_c, 0, 67, 64
2, 85440, Note_on_c, 0, 72, 127
2, 85488, Note_off_c, 0, 72, 64
2, 85500, Note_on_c, 0, 67, 127
2, 85548, Note_off_c, 0, 67, 64
2, 85560, Note_on_c, 0, 72, 127
2, 85608, Note_off_c, 0, 72, 64
2, 85620, Note_on_c, 0, 74, 127
2, 85668, Note_off_c, 0, 74, 64
2, 85680, Note_on_c, 0, 75, 127
2, 85728, Note_off_c, 0, 75, 64
2, 85740, Note_on_c, 0, 72, 127
2, 85788, Note_off_c, 0, 72, 64
2, 85800, Note_on_c, 0, 69, 127
2, 85848, Note_off_c, 0, 69, 64
2, 85860, Note_on_c, 0, 65, 127
2, 85908, Note_off_c, 0, 65, 64
2, 85920, Note_on_c, 0, 74, 127
2, 85968, Note_off_c, 0, 74, 64
2, 85980, Note_on_c, 0, 65, 127
2, 86028, Note_off_c, 0, 65, 64
2, 86040, Note_on_c, 0, 70, 127
2, 86088, Note_off_c, 0, 70, 64
2, 86100, Note_on_c, 0, 72, 127
2, 86148, Note_off_c, 0, 72, 64
2, 86160, Note_on_c, 0, 74, 127
2, 86208, Note_off_c, 0, 74, 64
2, 86220, Note_on_c, 0, 70, 127
2, 86268, Note_off_c, 0, 70, 64
2, 86280, Note_on_c, 0, 67, 127
2, 86328, Note_off_c, 0, 67, 64
2, 86340, Note_on_c, 0, 63, 127
2, 86388, Note_off_c, 0, 63, 64
2, 86400, Note_on_c, 0, 60, 127
2, 86400, Note_on_c, 0, 72, 127
2, 86448, Note_off_c, 0, 72, 64
2, 86460, Note_on_c, 0, 69, 127
2, 86508, Note_off_c, 0, 69, 64
2, 86520, Note_on_c, 0, 66, 127
2, 86568, Note_off_c, 0, 66, 64
2, 86580, Note_on_c, 0, 62, 127
2, 86592, Note_off_c, 0, 60, 64
2, 86628, Note_off_c, 0, 62, 64
2, 86640, Note_on_c, 0, 58, 127
2, 86640, Note_on_c, 0, 70, 127
2, 86688, Note_off_c, 0, 70, 64
2, 86700, Note_on_c, 0, 67, 127
2, 86748, Note_off_c, 0, 67, 64
2, 86760, Note_on_c, 0, 63, 127
2, 86808, Note_off_c, 0, 63, 64
2, 86820, Note_on_c, 0, 60, 127
2, 86832, Note_off_c, 0, 58, 64
2, 86868, Note_off_c, 0, 60, 64
2, 86880, Note_on_c, 0, 68, 127
2, 86880, Note_on_c, 0, 56, 127
2, 86928, Note_off_c, 0, 68, 64
2, 86940, Note_on_c, 0, 65, 127
2, 86988, Note_off_c, 0, 65, 64
2, 87000, Note_on_c, 0, 62, 127
2, 87048, Note_off_c, 0, 62, 64
2, 87060, Note_on_c, 0, 58, 127
2, 87072, Note_off_c, 0, 56, 64
2, 87108, Note_off_c, 0, 58, 64
2, 87120, Note_on_c, 0, 67, 127
2, 87168, Note_off_c, 0, 67, 64
2, 87180, Note_on_c, 0, 63, 127
2, 87228, Note_off_c, 0, 63, 64
2, 87240, Note_on_c, 0, 60, 127
2, 87288, Note_off_c, 0, 60, 64
2, 87300, Note_on_c, 0, 57, 127
2, 87348, Note_off_c, 0, 57, 64
2, 87420, Note_on_c, 0, 57, 127
2, 87468, Note_off_c, 0, 57, 64
2, 87480, Note_on_c, 0, 60, 127
2, 87528, Note_off_c, 0, 60, 64
2, 87540, Note_on_c, 0, 66, 127
2, 87588, Note_off_c, 0, 66, 64
2, 87600, Note_on_c, 0, 69, 127
2, 87648, Note_off_c, 0, 69, 64
2, 87660, Note_on_c, 0, 66, 127
2, 87708, Note_off_c, 0, 66, 64
2, 87720, Note_on_c, 0, 60, 127
2, 87768, Note_off_c, 0, 60, 64
2, 87780, Note_on_c, 0, 57, 127
2, 87828, Note_off_c, 0, 57, 64
2, 87900, Note_on_c, 0, 57, 127
2, 87948, Note_off_c, 0, 57, 64
2, 87960, Note_on_c, 0, 60, 127
2, 88008, Note_off_c, 0, 60, 64
2, 88020, Note_on_c, 0, 66, 127
2, 88068, Note_off_c, 0, 66, 64
2, 88080, Note_on_c, 0, 69, 127
2, 88128, Note_off_c, 0, 69, 64
2, 88140, Note_on_c, 0, 66, 127
2, 88188, Note_off_c, 0, 66, 64
2, 88200, Note_on_c, 0, 60, 127
2, 88248, Note_off_c, 0, 60, 64
2, 88260, Note_on_c, 0, 57, 127
2, 88308, Note_off_c, 0, 57, 64
2, 88380, Note_on_c, 0, 57, 127
2, 88428, Note_off_c, 0, 57, 64
2, 88440, Note_on_c, 0, 58, 127
2, 88488, Note_off_c, 0, 58, 64
2, 88500, Note_on_c, 0, 62, 127
2, 88548, Note_off_c, 0, 62, 64
2, 88560, Note_on_c, 0, 67, 127
2, 88608, Note_off_c, 0, 67, 64
2, 88620, Note_on_c, 0, 62, 127
2, 88668, Note_off_c, 0, 62, 64
2, 88680, Note_on_c, 0, 58, 127
2, 88728, Note_off_c, 0, 58, 64
2, 88740, Note_on_c, 0, 57, 127
2, 88788, Note_off_c, 0, 57, 64
2, 88860, Note_on_c, 0, 57, 127
2, 88908, Note_off_c, 0, 57, 64
2, 88920, Note_on_c, 0, 58, 127
2, 88968, Note_off_c, 0, 58, 64
2, 88980, Note_on_c, 0, 62, 127
2, 89028, Note_off_c, 0, 62, 64
2, 89040, Note_on_c, 0, 67, 127
2, 89088, Note_off_c, 0, 67, 64
2, 89100, Note_on_c, 0, 62, 127
2, 89148, Note_off_c, 0, 62, 64
2, 89160, Note_on_c, 0, 58, 127
2, 89208, Note_off_c, 0, 58, 64
2, 89220, Note_on_c, 0, 57, 127
2, 89268, Note_off_c, 0, 57, 64
2, 89340, Note_on_c, 0, 57, 127
2, 89388, Note_off_c, 0, 57, 64
2, 89400, Note_on_c, 0, 58, 127
2, 89448, Note_off_c, 0, 58, 64
2, 89460, Note_on_c, 0, 62, 127
2, 89508, Note_off_c, 0, 62, 64
2, 89520, Note_on_c, 0, 67, 127
2, 89568, Note_off_c, 0, 67, 64
2, 89580, Note_on_c, 0, 62, 127
2, 89628, Note_off_c, 0, 62, 64
2, 89640, Note_on_c, 0, 58, 127
2, 89688, Note_off_c, 0, 58, 64
2, 89700, Note_on_c, 0, 57, 127
2, 89748, Note_off_c, 0, 57, 64
2, 89820, Note_on_c, 0, 57, 127
2, 89868, Note_off_c, 0, 57, 64
2, 89880, Note_on_c, 0, 58, 127
2, 89928, Note_off_c, 0, 58, 64
2, 89940, Note_on_c, 0, 62, 127
2, 89988, Note_off_c, 0, 62, 64
2, 90000, Note_on_c, 0, 67, 127
2, 90048, Note_off_c, 0, 67, 64
2, 90060, Note_on_c, 0, 62, 127
2, 90108, Note_off_c, 0, 62, 64
2, 90120, Note_on_c, 0, 58, 127
2, 90168, Note_off_c, 0, 58, 64
2, 90180, Note_on_c, 0, 57, 127
2, 90228, Note_off_c, 0, 57, 64
2, 90300, Note_on_c, 0, 57, 127
2, 90348, Note_off_c, 0, 57, 64
2, 90360, Note_on_c, 0, 61, 127
2, 90408, Note_off_c, 0, 61, 64
2, 90420, Note_on_c, 0, 64, 127
2, 90468, Note_off_c, 0, 64, 64
2, 90480, Note_on_c, 0, 67, 127
2, 90528, Note_off_c, 0, 67, 64
2, 90540, Note_on_c, 0, 64, 127
2, 90588, Note_off_c, 0, 64, 64
2, 90600, Note_on_c, 0, 61, 127
2, 90648, Note_off_c, 0, 61, 64
2, 90660, Note_on_c, 0, 57, 127
2, 90708, Note_off_c, 0, 57, 64
2, 90780, Note_on_c, 0, 57, 127
2, 90828, Note_off_c, 0, 57, 64
2, 90840, Note_on_c, 0, 61, 127
2, 90888, Note_off_c, 0, 61, 64
2, 90900, Note_on_c, 0, 64, 127
2, 90948, Note_off_c, 0, 64, 64
2, 90960, Note_on_c, 0, 67, 127
2, 91008, Note_off_c, 0, 67, 64
2, 91020, Note_on_c, 0, 64, 127
2, 91068, Note_off_c, 0, 64, 64
2, 91080, Note_on_c, 0, 61, 127
2, 91128, Note_off_c, 0, 61, 64
2, 91140, Note_on_c, 0, 57, 127
2, 91188, Note_off_c, 0, 57, 64
2, 91260, Note_on_c, 0, 57, 127
2, 91308, Note_off_c, 0, 57, 64
2, 91320, Note_on_c, 0, 58, 127
2, 91368, Note_off_c, 0, 58, 64
2, 91380, Note_on_c, 0, 62, 127
2, 91428, Note_off_c, 0, 62, 64
2, 91440, Note_on_c, 0, 67, 127
2, 91488, Note_off_c, 0, 67, 64
2, 91500, Note_on_c, 0, 70, 127
2, 91548, Note_off_c, 0, 70, 64
2, 91560, Note_on_c, 0, 68, 127
2, 91608, Note_off_c, 0, 68, 64
2, 91620, Note_on_c, 0, 66, 127
2, 91668, Note_off_c, 0, 66, 64
2, 91680, Note_on_c, 0, 67, 127
2, 91728, Note_off_c, 0, 67, 64
2, 91740, Note_on_c, 0, 77, 127
2, 91788, Note_off_c, 0, 77, 64
2, 91800, Note_on_c, 0, 75, 127
2, 91848, Note_off_c, 0, 75, 64
2, 91860, Note_on_c, 0, 73, 127
2, 91908, Note_off_c, 0, 73, 64
2, 91920, Note_on_c, 0, 74, 127
2, 91968, Note_off_c, 0, 74, 64
2, 91980, Note_on_c, 0, 72, 127
2, 92028, Note_off_c, 0, 72, 64
2, 92040, Note_on_c, 0, 71, 127
2, 92088, Note_off_c, 0, 71, 64
2, 92100, Note_on_c, 0, 72, 127
2, 92148, Note_off_c, 0, 72, 64
2, 92160, Note_on_c, 0, 72, 127
2, 92160, Note_on_c, 0, 78, 127
2, 92256, Note_off_c, 0, 78, 64
2, 92256, Note_off_c, 0, 72, 64
2, 92400, Note_on_c, 0, 70, 127
2, 92400, Note_on_c, 0, 79, 127
2, 92496, Note_off_c, 0, 79, 64
2, 92496, Note_off_c, 0, 70, 64
2, 92640, Note_on_c, 0, 69, 127
2, 92640, Note_on_c, 0, 79, 127
2, 92736, Note_off_c, 0, 79, 64
2, 92736, Note_off_c, 0, 69, 64
2, 92880, Note_on_c, 0, 78, 127
2, 92880, Note_on_c, 0, 69, 127
2, 92976, Note_off_c, 0, 69, 64
2, 92976, Note_off_c, 0, 78, 64
2, 93000, Note_on_c, 0, 72, 127
2, 93000, Note_on_c, 0, 81, 127
2, 93096, Note_off_c, 0, 81, 64
2, 93120, Note_on_c, 0, 74, 127
2, 93168, Note_off_c, 0, 72, 64
2, 93180, Note_on_c, 0, 69, 127
2, 93228, Note_off_c, 0, 69, 64
2, 93240, Note_on_c, 0, 70, 127
2, 93288, Note_off_c, 0, 70, 64
2, 93300, Note_on_c, 0, 66, 127
2, 93312, Note_off_c, 0, 74, 64
2, 93348, Note_off_c, 0, 66, 64
2, 93360, Note_on_c, 0, 67, 127
2, 93456, Note_off_c, 0, 67, 64
2, 93480, Note_on_c, 0, 74, 127
2, 93480, Note_on_c, 0, 67, 127
2, 93576, Note_off_c, 0, 67, 64
2, 93576, Note_off_c, 0, 74, 64
2, 93600, Note_on_c, 0, 74, 127
2, 93600, Note_on_c, 0, 67, 127
2, 93696, Note_off_c, 0, 67, 64
2, 93696, Note_off_c, 0, 74, 64
2, 93720, Note_on_c, 0, 72, 127
2, 93768, Note_off_c, 0, 72, 64
2, 93780, Note_on_c, 0, 70, 127
2, 93828, Note_off_c, 0, 70, 64
2, 93840, Note_on_c, 0, 74, 127
2, 93888, Note_off_c, 0, 74, 64
2, 93900, Note_on_c, 0, 72, 127
2, 93948, Note_off_c, 0, 72, 64
2, 93960, Note_on_c, 0, 70, 127
2, 93960, Note_on_c, 0, 66, 127
2, 94008, Note_off_c, 0, 70, 64
2, 94020, Note_on_c, 0, 69, 127
2, 94056, Note_off_c, 0, 66, 64
2, 94068, Note_off_c, 0, 69, 64
2, 94080, Note_on_c, 0, 72, 127
2, 94080, Note_on_c, 0, 67, 127
2, 94128, Note_off_c, 0, 72, 64
2, 94140, Note_on_c, 0, 70, 127
2, 94176, Note_off_c, 0, 67, 64
2, 94188, Note_off_c, 0, 70, 64
2, 94200, Note_on_c, 0, 69, 127
2, 94248, Note_off_c, 0, 69, 64
2, 94260, Note_on_c, 0, 67, 127
2, 94308, Note_off_c, 0, 67, 64
2, 94320, Note_on_c, 0, 70, 127
2, 94368, Note_off_c, 0, 70, 64
2, 94380, Note_on_c, 0, 68, 127
2, 94428, Note_off_c, 0, 68, 64
2, 94440, Note_on_c, 0, 62, 127
2, 94440, Note_on_c, 0, 67, 127
2, 94488, Note_off_c, 0, 67, 64
2, 94488, Note_off_c, 0, 62, 64
2, 94500, Note_on_c, 0, 60, 127
2, 94500, Note_on_c, 0, 66, 127
2, 94548, Note_off_c, 0, 66, 64
2, 94548, Note_off_c, 0, 60, 64
2, 94560, Note_on_c, 0, 58, 127
2, 94560, Note_on_c, 0, 67, 127
2, 94656, Note_off_c, 0, 58, 64
2, 94680, Note_on_c, 0, 57, 127
2, 94704, Note_off_c, 0, 67, 64
2, 94740, Note_on_c, 0, 69, 127
2, 94788, Note_off_c, 0, 69, 64
2, 94800, Note_on_c, 0, 66, 127
2, 94896, Note_off_c, 0, 57, 64
2, 94920, Note_on_c, 0, 60, 127
2, 94944, Note_off_c, 0, 66, 64
2, 94980, Note_on_c, 0, 67, 127
2, 95016, Note_off_c, 0, 60, 64
2, 95028, Note_off_c, 0, 67, 64
2, 95040, Note_on_c, 0, 58, 80
2, 95040, Note_on_c, 0, 67, 127
2, 95136, Note_off_c, 0, 67, 64
2, 95160, Note_off_c, 0, 58, 64
2, 95160, Note_on_c, 0, 55, 127
2, 95256, Note_off_c, 0, 55, 64
2, 95280, Note_on_c, 0, 55, 127
2, 95376, Note_off_c, 0, 55, 64
2, 95400, Note_on_c, 0, 55, 127
2, 95496, Note_off_c, 0, 55, 64
2, 95520, Note_on_c, 0, 57, 127
2, 95616, Note_off_c, 0, 57, 64
2, 96240, Note_on_c, 0, 64, 127
2, 96336, Note_off_c, 0, 64, 64
2, 96480, Note_on_c, 0, 65, 127
2, 96576, Note_off_c, 0, 65, 64
2, 96840, Note_on_c, 0, 67, 127
2, 96936, Note_off_c, 0, 67, 64
2, 96960, Note_on_c, 0, 67, 127
2, 97056, Note_off_c, 0, 67, 64
2, 97080, Note_on_c, 0, 72, 127
2, 97080, Note_on_c, 0, 65, 127
2, 97128, Note_off_c, 0, 65, 64
2, 97140, Note_on_c, 0, 64, 127
2, 97188, Note_off_c, 0, 64, 64
2, 97193, Note_off_c, 0, 72, 64
2, 97200, Note_on_c, 0, 65, 127
2, 97200, Note_on_c, 0, 72, 127
2, 97296, Note_off_c, 0, 65, 64
2, 97313, Note_off_c, 0, 72, 64
2, 97320, Note_on_c, 0, 72, 127
2, 97433, Note_off_c, 0, 72, 64
2, 97440, Note_on_c, 0, 72, 127
2, 97440, Note_on_c, 0, 65, 127
2, 97536, Note_off_c, 0, 65, 64
2, 97536, Note_off_c, 0, 72, 64
2, 97560, Note_on_c, 0, 70, 127
2, 97608, Note_off_c, 0, 70, 64
2, 97620, Note_on_c, 0, 69, 127
2, 97668, Note_off_c, 0, 69, 64
2, 97680, Note_on_c, 0, 70, 127
2, 97776, Note_off_c, 0, 70, 64
2, 97800, Note_on_c, 0, 67, 127
2, 97800, Note_on_c, 0, 64, 127
2, 97848, Note_off_c, 0, 67, 64
2, 97860, Note_on_c, 0, 69, 127
2, 97884, Note_off_c, 0, 69, 64
2, 97890, Note_on_c, 0, 70, 127
2, 97896, Note_off_c, 0, 64, 64
2, 97914, Note_off_c, 0, 70, 64
2, 97920, Note_on_c, 0, 65, 127
2, 97920, Note_on_c, 0, 69, 127
2, 97920, Note_on_c, 0, 69, 127
2, 98016, Note_off_c, 0, 69, 64
2, 98016, Note_off_c, 0, 69, 64
2, 98016, Note_off_c, 0, 65, 64
2, 98040, Note_on_c, 0, 69, 127
2, 98040, Note_on_c, 0, 72, 127
2, 98040, Note_on_c, 0, 77, 127
2, 98136, Note_off_c, 0, 77, 64
2, 98136, Note_off_c, 0, 72, 64
2, 98136, Note_off_c, 0, 69, 64
2, 98160, Note_on_c, 0, 72, 127
2, 98160, Note_on_c, 0, 69, 127
2, 98160, Note_on_c, 0, 77, 127
2, 98256, Note_off_c, 0, 77, 64
2, 98256, Note_off_c, 0, 69, 64
2, 98256, Note_off_c, 0, 72, 64
2, 98280, Note_on_c, 0, 77, 127
2, 98280, Note_on_c, 0, 69, 127
2, 98280, Note_on_c, 0, 72, 127
2, 98376, Note_off_c, 0, 72, 64
2, 98376, Note_off_c, 0, 69, 64
2, 98376, Note_off_c, 0, 77, 64
2, 98400, Note_on_c, 0, 77, 127
2, 98400, Note_on_c, 0, 71, 127
2, 98400, Note_on_c, 0, 68, 127
2, 98496, Note_off_c, 0, 68, 64
2, 98496, Note_off_c, 0, 71, 64
2, 98496, Note_off_c, 0, 77, 64
2, 98520, Note_on_c, 0, 72, 127
2, 98520, Note_on_c, 0, 67, 127
2, 98520, Note_on_c, 0, 76, 127
2, 98568, Note_off_c, 0, 76, 64
2, 98568, Note_off_c, 0, 67, 64
2, 98580, Note_on_c, 0, 74, 127
2, 98580, Note_on_c, 0, 65, 127
2, 98616, Note_off_c, 0, 72, 64
2, 98628, Note_off_c, 0, 65, 64
2, 98628, Note_off_c, 0, 74, 64
2, 98640, Note_on_c, 0, 67, 127
2, 98640, Note_on_c, 0, 76, 127
2, 98736, Note_off_c, 0, 76, 64
2, 98736, Note_off_c, 0, 67, 64
2, 98760, Note_on_c, 0, 78, 127
2, 98760, Note_on_c, 0, 69, 127
2, 98856, Note_off_c, 0, 69, 64
2, 98856, Note_off_c, 0, 78, 64
2, 98880, Note_on_c, 0, 70, 127
2, 98880, Note_on_c, 0, 79, 127
2, 98976, Note_off_c, 0, 79, 64
2, 98976, Note_off_c, 0, 70, 64
2, 99000, Note_on_c, 0, 79, 127
2, 99000, Note_on_c, 0, 74, 127
2, 99000, Note_on_c, 0, 70, 127
2, 99096, Note_off_c, 0, 70, 64
2, 99096, Note_off_c, 0, 74, 64
2, 99096, Note_off_c, 0, 79, 64
2, 99120, Note_on_c, 0, 70, 127
2, 99120, Note_on_c, 0, 79, 127
2, 99120, Note_on_c, 0, 74, 127
2, 99216, Note_off_c, 0, 74, 64
2, 99216, Note_off_c, 0, 79, 64
2, 99216, Note_off_c, 0, 70, 64
2, 99240, Note_on_c, 0, 74, 127
2, 99240, Note_on_c, 0, 70, 127
2, 99240, Note_on_c, 0, 79, 127
2, 99336, Note_off_c, 0, 79, 64
2, 99336, Note_off_c, 0, 70, 64
2, 99336, Note_off_c, 0, 74, 64
2, 99360, Note_on_c, 0, 70, 127
2, 99360, Note_on_c, 0, 79, 127
2, 99360, Note_on_c, 0, 73, 127
2, 99456, Note_off_c, 0, 73, 64
2, 99456, Note_off_c, 0, 79, 64
2, 99456, Note_off_c, 0, 70, 64
2, 99480, Note_on_c, 0, 74, 127
2, 99480, Note_on_c, 0, 69, 127
2, 99480, Note_on_c, 0, 77, 127
2, 99528, Note_off_c, 0, 77, 64
2, 99528, Note_off_c, 0, 69, 64
2, 99540, Note_on_c, 0, 67, 127
2, 99540, Note_on_c, 0, 76, 127
2, 99576, Note_off_c, 0, 74, 64
2, 99588, Note_off_c, 0, 76, 64
2, 99588, Note_off_c, 0, 67, 64
2, 99600, Note_on_c, 0, 77, 127
2, 99600, Note_on_c, 0, 69, 127
2, 99648, Note_off_c, 0, 69, 64
2, 99660, Note_on_c, 0, 65, 127
2, 99696, Note_off_c, 0, 77, 64
2, 99708, Note_off_c, 0, 65, 64
2, 99720, Note_on_c, 0, 79, 127
2, 99720, Note_on_c, 0, 70, 127
2, 99768, Note_off_c, 0, 79, 64
2, 99780, Note_on_c, 0, 74, 127
2, 99828, Note_off_c, 0, 74, 64
2, 99840, Note_on_c, 0, 76, 127
2, 99888, Note_off_c, 0, 70, 64
2, 99900, Note_on_c, 0, 67, 127
2, 99936, Note_off_c, 0, 76, 64
2, 99948, Note_off_c, 0, 67, 64
2, 99960, Note_on_c, 0, 69, 127
2, 99960, Note_on_c, 0, 77, 127
2, 100008, Note_off_c, 0, 77, 64
2, 100020, Note_on_c, 0, 72, 127
2, 100068, Note_off_c, 0, 72, 64
2, 100080, Note_on_c, 0, 74, 127
2, 100128, Note_off_c, 0, 69, 64
2, 100140, Note_on_c, 0, 65, 127
2, 100176, Note_off_c, 0, 74, 64
2, 100188, Note_off_c, 0, 65, 64
2, 100200, Note_on_c, 0, 67, 127
2, 100200, Note_on_c, 0, 76, 127
2, 100248, Note_off_c, 0, 76, 64
2, 100260, Note_on_c, 0, 74, 127
2, 100308, Note_off_c, 0, 74, 64
2, 100320, Note_on_c, 0, 72, 127
2, 100368, Note_off_c, 0, 67, 64
2, 100380, Note_on_c, 0, 64, 127
2, 100416, Note_off_c, 0, 72, 64
2, 100428, Note_off_c, 0, 64, 64
2, 100440, Note_on_c, 0, 74, 127
2, 100440, Note_on_c, 0, 65, 127
2, 100488, Note_off_c, 0, 74, 64
2, 100500, Note_on_c, 0, 69, 127
2, 100548, Note_off_c, 0, 69, 64
2, 100560, Note_on_c, 0, 70, 127
2, 100608, Note_off_c, 0, 65, 64
2, 100620, Note_on_c, 0, 67, 127
2, 100668, Note_off_c, 0, 67, 64
2, 100680, Note_on_c, 0, 64, 127
2, 100728, Note_off_c, 0, 64, 64
2, 100740, Note_on_c, 0, 60, 127
2, 100896, Note_off_c, 0, 60, 64
2, 100896, Note_off_c, 0, 70, 64
2, 100920, Note_on_c, 0, 65, 127
2, 100920, Note_on_c, 0, 60, 127
2, 100920, Note_on_c, 0, 69, 127
2, 101016, Note_off_c, 0, 69, 64
2, 101016, Note_off_c, 0, 60, 64
2, 101016, Note_off_c, 0, 65, 64
2, 101040, Note_on_c, 0, 65, 127
2, 101040, Note_on_c, 0, 69, 127
2, 101040, Note_on_c, 0, 60, 127
2, 101136, Note_off_c, 0, 60, 64
2, 101136, Note_off_c, 0, 69, 64
2, 101136, Note_off_c, 0, 65, 64
2, 101160, Note_on_c, 0, 69, 127
2, 101160, Note_on_c, 0, 65, 127
2, 101160, Note_on_c, 0, 60, 127
2, 101256, Note_off_c, 0, 60, 64
2, 101256, Note_off_c, 0, 65, 64
2, 101256, Note_off_c, 0, 69, 64
2, 101280, Note_on_c, 0, 60, 127
2, 101280, Note_on_c, 0, 65, 127
2, 101280, Note_on_c, 0, 69, 127
2, 101376, Note_off_c, 0, 69, 64
2, 101376, Note_off_c, 0, 65, 64
2, 101376, Note_off_c, 0, 60, 64
2, 101400, Note_on_c, 0, 70, 127
2, 101400, Note_on_c, 0, 62, 127
2, 101448, Note_off_c, 0, 62, 64
2, 101448, Note_off_c, 0, 70, 64
2, 101460, Note_on_c, 0, 60, 127
2, 101460, Note_on_c, 0, 69, 127
2, 101508, Note_off_c, 0, 69, 64
2, 101508, Note_off_c, 0, 60, 64
2, 101520, Note_on_c, 0, 67, 127
2, 101520, Note_on_c, 0, 58, 127
2, 101568, Note_off_c, 0, 67, 64
2, 101580, Note_on_c, 0, 74, 127
2, 101616, Note_off_c, 0, 58, 64
2, 101628, Note_off_c, 0, 74, 64
2, 101640, Note_on_c, 0, 65, 127
2, 101640, Note_on_c, 0, 57, 127
2, 101688, Note_off_c, 0, 65, 64
2, 101700, Note_on_c, 0, 74, 127
2, 101736, Note_off_c, 0, 57, 64
2, 101748, Note_off_c, 0, 74, 64
2, 101760, Note_on_c, 0, 64, 127
2, 101760, Note_on_c, 0, 64, 127
2, 101856, Note_off_c, 0, 64, 64
2, 101856, Note_off_c, 0, 64, 64
2, 101880, Note_on_c, 0, 72, 127
2, 101880, Note_on_c, 0, 72, 127
2, 101928, Note_off_c, 0, 72, 64
2, 101940, Note_on_c, 0, 70, 127
2, 101976, Note_off_c, 0, 72, 64
2, 101988, Note_off_c, 0, 70, 64
2, 102000, Note_on_c, 0, 72, 127
2, 102000, Note_on_c, 0, 69, 127
2, 102048, Note_off_c, 0, 69, 64
2, 102060, Note_on_c, 0, 67, 127
2, 102096, Note_off_c, 0, 72, 64
2, 102108, Note_off_c, 0, 67, 64
2, 102120, Note_on_c, 0, 65, 127
2, 102120, Note_on_c, 0, 72, 127
2, 102168, Note_off_c, 0, 65, 64
2, 102180, Note_on_c, 0, 64, 127
2, 102216, Note_off_c, 0, 72, 64
2, 102228, Note_off_c, 0, 64, 64
2, 102240, Note_on_c, 0, 65, 127
2, 102240, Note_on_c, 0, 72, 127
2, 102336, Note_off_c, 0, 72, 64
2, 102360, Note_on_c, 0, 74, 127
2, 102408, Note_off_c, 0, 74, 64
2, 102420, Note_on_c, 0, 72, 127
2, 102432, Note_off_c, 0, 65, 64
2, 102468, Note_off_c, 0, 72, 64
2, 102480, Note_on_c, 0, 60, 127
2, 102480, Note_on_c, 0, 70, 127
2, 102528, Note_off_c, 0, 70, 64
2, 102540, Note_on_c, 0, 69, 127
2, 102576, Note_off_c, 0, 60, 64
2, 102588, Note_off_c, 0, 69, 64
2, 102600, Note_on_c, 0, 60, 127
2, 102600, Note_on_c, 0, 67, 127
2, 102648, Note_off_c, 0, 67, 64
2, 102660, Note_on_c, 0, 69, 127
2, 102696, Note_off_c, 0, 60, 64
2, 102708, Note_off_c, 0, 69, 64
2, 102720, Note_on_c, 0, 62, 127
2, 102720, Note_on_c, 0, 69, 127
2, 102768, Note_off_c, 0, 69, 64
2, 102780, Note_on_c, 0, 74, 127
2, 102816, Note_off_c, 0, 62, 64
2, 102828, Note_off_c, 0, 74, 64
2, 102840, Note_on_c, 0, 60, 127
2, 102840, Note_on_c, 0, 76, 127
2, 102888, Note_off_c, 0, 76, 64
2, 102900, Note_on_c, 0, 77, 127
2, 102936, Note_off_c, 0, 60, 64
2, 102948, Note_off_c, 0, 77, 64
2, 102960, Note_on_c, 0, 77, 127
2, 102960, Note_on_c, 0, 58, 127
2, 103008, Note_off_c, 0, 77, 64
2, 103020, Note_on_c, 0, 76, 127
2, 103056, Note_off_c, 0, 58, 64
2, 103068, Note_off_c, 0, 76, 64
2, 103080, Note_on_c, 0, 74, 127
2, 103080, Note_on_c, 0, 67, 127
2, 103128, Note_off_c, 0, 74, 64
2, 103140, Note_on_c, 0, 72, 127
2, 103176, Note_off_c, 0, 67, 64
2, 103188, Note_off_c, 0, 72, 64
2, 103200, Note_on_c, 0, 60, 127
2, 103200, Note_on_c, 0, 77, 127
2, 103296, Note_off_c, 0, 77, 64
2, 103296, Note_off_c, 0, 60, 64
2, 103320, Note_on_c, 0, 72, 127
2, 103320, Note_on_c, 0, 65, 127
2, 103416, Note_off_c, 0, 65, 64
2, 103416, Note_off_c, 0, 72, 64
2, 103440, Note_on_c, 0, 65, 127
2, 103440, Note_on_c, 0, 70, 127
2, 103488, Note_off_c, 0, 70, 64
2, 103500, Note_on_c, 0, 69, 127
2, 103536, Note_off_c, 0, 65, 64
2, 103548, Note_off_c, 0, 69, 64
2, 103560, Note_on_c, 0, 67, 127
2, 103560, Note_on_c, 0, 64, 127
2, 103608, Note_off_c, 0, 67, 64
2, 103620, Note_on_c, 0, 65, 127
2, 103656, Note_off_c, 0, 64, 64
2, 103668, Note_off_c, 0, 65, 64
2, 103680, Note_on_c, 0, 65, 127
2, 103680, Note_on_c, 0, 65, 127
2, 103728, Note_off_c, 0, 65, 64
2, 103740, Note_on_c, 0, 69, 127
2, 103776, Note_off_c, 0, 65, 64
2, 103788, Note_off_c, 0, 69, 64
2, 103800, Note_on_c, 0, 67, 127
2, 103848, Note_off_c, 0, 67, 64
2, 103860, Note_on_c, 0, 69, 127
2, 103908, Note_off_c, 0, 69, 64
2, 103920, Note_on_c, 0, 65, 127
2, 103980, Note_on_c, 0, 69, 127
2, 104016, Note_off_c, 0, 65, 64
2, 104040, Note_on_c, 0, 64, 127
2, 104076, Note_off_c, 0, 69, 64
2, 104100, Note_on_c, 0, 69, 127
2, 104136, Note_off_c, 0, 64, 64
2, 104148, Note_off_c, 0, 69, 64
2, 104160, Note_on_c, 0, 62, 127
2, 104220, Note_on_c, 0, 69, 127
2, 104256, Note_off_c, 0, 62, 64
2, 104280, Note_on_c, 0, 60, 127
2, 104316, Note_off_c, 0, 69, 64
2, 104340, Note_on_c, 0, 69, 127
2, 104376, Note_off_c, 0, 60, 64
2, 104388, Note_off_c, 0, 69, 64
2, 104400, Note_on_c, 0, 58, 127
2, 104460, Note_on_c, 0, 69, 127
2, 104496, Note_off_c, 0, 58, 64
2, 104520, Note_on_c, 0, 57, 127
2, 104556, Note_off_c, 0, 69, 64
2, 104580, Note_on_c, 0, 69, 127
2, 104616, Note_off_c, 0, 57, 64
2, 104628, Note_off_c, 0, 69, 64
2, 104640, Note_on_c, 0, 62, 127
2, 104700, Note_on_c, 0, 69, 127
2, 104736, Note_off_c, 0, 62, 64
2, 104748, Note_off_c, 0, 69, 64
2, 104760, Note_on_c, 0, 74, 127
2, 104808, Note_off_c, 0, 74, 64
2, 104820, Note_on_c, 0, 72, 127
2, 104868, Note_off_c, 0, 72, 64
2, 104880, Note_on_c, 0, 70, 127
2, 104928, Note_off_c, 0, 70, 64
2, 104940, Note_on_c, 0, 69, 127
2, 104988, Note_off_c, 0, 69, 64
2, 105000, Note_on_c, 0, 67, 127
2, 105048, Note_off_c, 0, 67, 64
2, 105060, Note_on_c, 0, 65, 127
2, 105108, Note_off_c, 0, 65, 64
2, 105120, Note_on_c, 0, 64, 127
2, 105180, Note_on_c, 0, 67, 127
2, 105216, Note_off_c, 0, 64, 64
2, 105240, Note_on_c, 0, 62, 127
2, 105276, Note_off_c, 0, 67, 64
2, 105300, Note_on_c, 0, 67, 127
2, 105336, Note_off_c, 0, 62, 64
2, 105348, Note_off_c, 0, 67, 64
2, 105360, Note_on_c, 0, 61, 127
2, 105420, Note_on_c, 0, 67, 127
2, 105456, Note_off_c, 0, 61, 64
2, 105480, Note_on_c, 0, 59, 127
2, 105516, Note_off_c, 0, 67, 64
2, 105540, Note_on_c, 0, 67, 127
2, 105576, Note_off_c, 0, 59, 64
2, 105588, Note_off_c, 0, 67, 64
2, 105600, Note_on_c, 0, 57, 127
2, 105660, Note_on_c, 0, 67, 127
2, 105696, Note_off_c, 0, 57, 64
2, 105708, Note_off_c, 0, 67, 64
2, 105720, Note_on_c, 0, 76, 127
2, 105768, Note_off_c, 0, 76, 64
2, 105780, Note_on_c, 0, 67, 127
2, 105828, Note_off_c, 0, 67, 64
2, 105840, Note_on_c, 0, 65, 127
2, 105888, Note_off_c, 0, 65, 64
2, 105900, Note_on_c, 0, 64, 127
2, 105948, Note_off_c, 0, 64, 64
2, 105960, Note_on_c, 0, 65, 127
2, 106008, Note_off_c, 0, 65, 64
2, 106020, Note_on_c, 0, 62, 127
2, 106068, Note_off_c, 0, 62, 64
2, 106080, Note_on_c, 0, 64, 127
2, 106128, Note_off_c, 0, 64, 64
2, 106140, Note_on_c, 0, 74, 127
2, 106188, Note_off_c, 0, 74, 64
2, 106200, Note_on_c, 0, 72, 127
2, 106248, Note_off_c, 0, 72, 64
2, 106260, Note_on_c, 0, 63, 127
2, 106308, Note_off_c, 0, 63, 64
2, 106320, Note_on_c, 0, 62, 127
2, 106368, Note_off_c, 0, 62, 64
2, 106380, Note_on_c, 0, 60, 127
2, 106428, Note_off_c, 0, 60, 64
2, 106440, Note_on_c, 0, 62, 127
2, 106488, Note_off_c, 0, 62, 64
2, 106500, Note_on_c, 0, 58, 127
2, 106548, Note_off_c, 0, 58, 64
2, 106560, Note_on_c, 0, 60, 127
2, 106608, Note_off_c, 0, 60, 64
2, 106620, Note_on_c, 0, 70, 127
2, 106668, Note_off_c, 0, 70, 64
2, 106680, Note_on_c, 0, 69, 127
2, 106728, Note_off_c, 0, 69, 64
2, 106740, Note_on_c, 0, 60, 127
2, 106788, Note_off_c, 0, 60, 64
2, 106800, Note_on_c, 0, 58, 127
2, 106848, Note_off_c, 0, 58, 64
2, 106860, Note_on_c, 0, 57, 127
2, 106908, Note_off_c, 0, 57, 64
2, 106920, Note_on_c, 0, 58, 127
2, 106968, Note_off_c, 0, 58, 64
2, 106980, Note_on_c, 0, 55, 127
2, 107028, Note_off_c, 0, 55, 64
2, 107040, Note_on_c, 0, 57, 127
2, 107088, Note_off_c, 0, 57, 64
2, 107100, Note_on_c, 0, 67, 127
2, 107148, Note_off_c, 0, 67, 64
2, 107160, Note_on_c, 0, 65, 127
2, 107208, Note_off_c, 0, 65, 64
2, 107220, Note_on_c, 0, 57, 127
2, 107268, Note_off_c, 0, 57, 64
2, 107280, Note_on_c, 0, 58, 127
2, 107328, Note_off_c, 0, 58, 64
2, 107340, Note_on_c, 0, 69, 127
2, 107388, Note_off_c, 0, 69, 64
2, 107400, Note_on_c, 0, 67, 127
2, 107448, Note_off_c, 0, 67, 64
2, 107460, Note_on_c, 0, 59, 127
2, 107508, Note_off_c, 0, 59, 64
2, 107520, Note_on_c, 0, 61, 127
2, 107544, Note_off_c, 0, 61, 64
2, 107550, Note_on_c, 0, 59, 127
2, 107574, Note_off_c, 0, 59, 64
2, 107580, Note_on_c, 0, 57, 127
2, 107628, Note_off_c, 0, 57, 64
2, 107640, Note_on_c, 0, 64, 127
2, 107664, Note_off_c, 0, 64, 64
2, 107670, Note_on_c, 0, 62, 127
2, 107694, Note_off_c, 0, 62, 64
2, 107700, Note_on_c, 0, 61, 127
2, 107748, Note_off_c, 0, 61, 64
2, 107760, Note_on_c, 0, 67, 127
2, 107784, Note_off_c, 0, 67, 64
2, 107790, Note_on_c, 0, 65, 127
2, 107814, Note_off_c, 0, 65, 64
2, 107820, Note_on_c, 0, 64, 127
2, 107868, Note_off_c, 0, 64, 64
2, 107880, Note_on_c, 0, 70, 127
2, 107904, Note_off_c, 0, 70, 64
2, 107910, Note_on_c, 0, 69, 127
2, 107934, Note_off_c, 0, 69, 64
2, 107940, Note_on_c, 0, 67, 127
2, 107988, Note_off_c, 0, 67, 64
2, 108000, Note_on_c, 0, 73, 127
2, 108048, Note_off_c, 0, 73, 64
2, 108060, Note_on_c, 0, 67, 127
2, 108108, Note_off_c, 0, 67, 64
2, 108120, Note_on_c, 0, 76, 127
2, 108168, Note_off_c, 0, 76, 64
2, 108180, Note_on_c, 0, 73, 127
2, 108228, Note_off_c, 0, 73, 64
2, 108240, Note_on_c, 0, 70, 127
2, 108288, Note_off_c, 0, 70, 64
2, 108300, Note_on_c, 0, 69, 127
2, 108348, Note_off_c, 0, 69, 64
2, 108360, Note_on_c, 0, 67, 127
2, 108408, Note_off_c, 0, 67, 64
2, 108420, Note_on_c, 0, 65, 127
2, 108468, Note_off_c, 0, 65, 64
2, 108540, Note_on_c, 0, 67, 127
2, 108588, Note_off_c, 0, 67, 64
2, 108600, Note_on_c, 0, 73, 127
2, 108648, Note_off_c, 0, 73, 64
2, 108660, Note_on_c, 0, 67, 127
2, 108708, Note_off_c, 0, 67, 64
2, 108720, Note_on_c, 0, 73, 127
2, 108768, Note_off_c, 0, 73, 64
2, 108780, Note_on_c, 0, 67, 127
2, 108828, Note_off_c, 0, 67, 64
2, 108840, Note_on_c, 0, 76, 127
2, 108888, Note_off_c, 0, 76, 64
2, 108900, Note_on_c, 0, 67, 127
2, 108948, Note_off_c, 0, 67, 64
2, 109020, Note_on_c, 0, 67, 127
2, 109068, Note_off_c, 0, 67, 64
2, 109080, Note_on_c, 0, 73, 127
2, 109128, Note_off_c, 0, 73, 64
2, 109140, Note_on_c, 0, 67, 127
2, 109188, Note_off_c, 0, 67, 64
2, 109200, Note_on_c, 0, 73, 127
2, 109248, Note_off_c, 0, 73, 64
2, 109260, Note_on_c, 0, 67, 127
2, 109308, Note_off_c, 0, 67, 64
2, 109320, Note_on_c, 0, 76, 127
2, 109368, Note_off_c, 0, 76, 64
2, 109380, Note_on_c, 0, 67, 127
2, 109428, Note_off_c, 0, 67, 64
2, 109500, Note_on_c, 0, 65, 127
2, 109548, Note_off_c, 0, 65, 64
2, 109560, Note_on_c, 0, 69, 127
2, 109608, Note_off_c, 0, 69, 64
2, 109620, Note_on_c, 0, 65, 127
2, 109668, Note_off_c, 0, 65, 64
2, 109680, Note_on_c, 0, 69, 127
2, 109728, Note_off_c, 0, 69, 64
2, 109740, Note_on_c, 0, 65, 127
2, 109788, Note_off_c, 0, 65, 64
2, 109800, Note_on_c, 0, 74, 127
2, 109848, Note_off_c, 0, 74, 64
2, 109860, Note_on_c, 0, 65, 127
2, 109908, Note_off_c, 0, 65, 64
2, 109980, Note_on_c, 0, 65, 127
2, 110028, Note_off_c, 0, 65, 64
2, 110040, Note_on_c, 0, 69, 127
2, 110088, Note_off_c, 0, 69, 64
2, 110100, Note_on_c, 0, 65, 127
2, 110148, Note_off_c, 0, 65, 64
2, 110160, Note_on_c, 0, 69, 127
2, 110208, Note_off_c, 0, 69, 64
2, 110220, Note_on_c, 0, 65, 127
2, 110268, Note_off_c, 0, 65, 64
2, 110280, Note_on_c, 0, 74, 127
2, 110328, Note_off_c, 0, 74, 64
2, 110340, Note_on_c, 0, 65, 127
2, 110388, Note_off_c, 0, 65, 64
2, 110460, Note_on_c, 0, 64, 127
2, 110508, Note_off_c, 0, 64, 64
2, 110520, Note_on_c, 0, 73, 127
2, 110568, Note_off_c, 0, 73, 64
2, 110580, Note_on_c, 0, 69, 127
2, 110628, Note_off_c, 0, 69, 64
2, 110640, Note_on_c, 0, 73, 127
2, 110688, Note_off_c, 0, 73, 64
2, 110700, Note_on_c, 0, 69, 127
2, 110748, Note_off_c, 0, 69, 64
2, 110760, Note_on_c, 0, 79, 127
2, 110808, Note_off_c, 0, 79, 64
2, 110820, Note_on_c, 0, 69, 127
2, 110868, Note_off_c, 0, 69, 64
2, 110940, Note_on_c, 0, 69, 127
2, 110988, Note_off_c, 0, 69, 64
2, 111000, Note_on_c, 0, 73, 127
2, 111048, Note_off_c, 0, 73, 64
2, 111060, Note_on_c, 0, 69, 127
2, 111108, Note_off_c, 0, 69, 64
2, 111120, Note_on_c, 0, 73, 127
2, 111168, Note_off_c, 0, 73, 64
2, 111180, Note_on_c, 0, 69, 127
2, 111228, Note_off_c, 0, 69, 64
2, 111240, Note_on_c, 0, 79, 127
2, 111288, Note_off_c, 0, 79, 64
2, 111300, Note_on_c, 0, 69, 127
2, 111348, Note_off_c, 0, 69, 64
2, 111420, Note_on_c, 0, 69, 127
2, 111468, Note_off_c, 0, 69, 64
2, 111480, Note_on_c, 0, 74, 127
2, 111528, Note_off_c, 0, 74, 64
2, 111540, Note_on_c, 0, 69, 127
2, 111588, Note_off_c, 0, 69, 64
2, 111600, Note_on_c, 0, 74, 127
2, 111648, Note_off_c, 0, 74, 64
2, 111660, Note_on_c, 0, 69, 127
2, 111708, Note_off_c, 0, 69, 64
2, 111720, Note_on_c, 0, 77, 127
2, 111768, Note_off_c, 0, 77, 64
2, 111780, Note_on_c, 0, 69, 127
2, 111828, Note_off_c, 0, 69, 64
2, 111900, Note_on_c, 0, 69, 127
2, 111948, Note_off_c, 0, 69, 64
2, 111960, Note_on_c, 0, 74, 127
2, 112008, Note_off_c, 0, 74, 64
2, 112020, Note_on_c, 0, 69, 127
2, 112068, Note_off_c, 0, 69, 64
2, 112080, Note_on_c, 0, 74, 127
2, 112128, Note_off_c, 0, 74, 64
2, 112140, Note_on_c, 0, 69, 127
2, 112188, Note_off_c, 0, 69, 64
2, 112200, Note_on_c, 0, 77, 127
2, 112248, Note_off_c, 0, 77, 64
2, 112260, Note_on_c, 0, 69, 127
2, 112308, Note_off_c, 0, 69, 64
2, 112380, Note_on_c, 0, 68, 127
2, 112428, Note_off_c, 0, 68, 64
2, 112440, Note_on_c, 0, 71, 127
2, 112488, Note_off_c, 0, 71, 64
2, 112500, Note_on_c, 0, 68, 127
2, 112548, Note_off_c, 0, 68, 64
2, 112560, Note_on_c, 0, 71, 127
2, 112608, Note_off_c, 0, 71, 64
2, 112620, Note_on_c, 0, 68, 127
2, 112668, Note_off_c, 0, 68, 64
2, 112680, Note_on_c, 0, 77, 127
2, 112728, Note_off_c, 0, 77, 64
2, 112740, Note_on_c, 0, 68, 127
2, 112788, Note_off_c, 0, 68, 64
2, 112860, Note_on_c, 0, 68, 127
2, 112908, Note_off_c, 0, 68, 64
2, 112920, Note_on_c, 0, 71, 127
2, 112968, Note_off_c, 0, 71, 64
2, 112980, Note_on_c, 0, 68, 127
2, 113028, Note_off_c, 0, 68, 64
2, 113040, Note_on_c, 0, 71, 127
2, 113088, Note_off_c, 0, 71, 64
2, 113100, Note_on_c, 0, 68, 127
2, 113148, Note_off_c, 0, 68, 64
2, 113160, Note_on_c, 0, 77, 127
2, 113208, Note_off_c, 0, 77, 64
2, 113220, Note_on_c, 0, 74, 127
2, 113268, Note_off_c, 0, 74, 64
2, 113280, Note_on_c, 0, 74, 127
2, 113328, Note_off_c, 0, 74, 64
2, 113340, Note_on_c, 0, 73, 127
2, 113388, Note_off_c, 0, 73, 64
2, 113400, Note_on_c, 0, 71, 127
2, 113448, Note_off_c, 0, 71, 64
2, 113460, Note_on_c, 0, 69, 127
2, 113508, Note_off_c, 0, 69, 64
2, 113520, Note_on_c, 0, 81, 127
2, 113616, Note_off_c, 0, 81, 64
2, 113640, Note_on_c, 0, 81, 127
2, 113736, Note_off_c, 0, 81, 64
2, 113760, Note_on_c, 0, 81, 127
2, 113856, Note_off_c, 0, 81, 64
2, 113880, Note_on_c, 0, 74, 127
2, 113880, Note_on_c, 0, 79, 127
2, 113928, Note_off_c, 0, 79, 64
2, 113940, Note_on_c, 0, 77, 127
2, 113976, Note_off_c, 0, 74, 64
2, 113988, Note_off_c, 0, 77, 64
2, 114000, Note_on_c, 0, 74, 127
2, 114000, Note_on_c, 0, 79, 127
2, 114096, Note_off_c, 0, 79, 64
2, 114096, Note_off_c, 0, 74, 64
2, 114120, Note_on_c, 0, 73, 127
2, 114120, Note_on_c, 0, 79, 127
2, 114168, Note_off_c, 0, 73, 64
2, 114180, Note_on_c, 0, 71, 127
2, 114216, Note_off_c, 0, 79, 64
2, 114228, Note_off_c, 0, 71, 64
2, 114240, Note_on_c, 0, 73, 127
2, 114240, Note_on_c, 0, 79, 127
2, 114336, Note_off_c, 0, 79, 64
2, 114336, Note_off_c, 0, 73, 64
2, 114360, Note_on_c, 0, 73, 127
2, 114360, Note_on_c, 0, 77, 127
2, 114408, Note_off_c, 0, 77, 64
2, 114420, Note_on_c, 0, 76, 127
2, 114456, Note_off_c, 0, 73, 64
2, 114468, Note_off_c, 0, 76, 64
2, 114480, Note_on_c, 0, 74, 127
2, 114480, Note_on_c, 0, 77, 127
2, 114576, Note_off_c, 0, 77, 64
2, 114576, Note_off_c, 0, 74, 64
2, 114600, Note_on_c, 0, 74, 127
2, 114600, Note_on_c, 0, 77, 127
2, 114696, Note_off_c, 0, 74, 64
2, 114713, Note_off_c, 0, 77, 64
2, 114720, Note_on_c, 0, 74, 127
2, 114720, Note_on_c, 0, 77, 127
2, 114768, Note_off_c, 0, 77, 64
2, 114780, Note_on_c, 0, 79, 127
2, 114816, Note_off_c, 0, 74, 64
2, 114828, Note_off_c, 0, 79, 64
2, 114840, Note_on_c, 0, 77, 127
2, 114888, Note_off_c, 0, 77, 64
2, 114900, Note_on_c, 0, 76, 127
2, 114948, Note_off_c, 0, 76, 64
2, 114960, Note_on_c, 0, 76, 127
2, 114960, Note_on_c, 0, 68, 127
2, 115008, Note_off_c, 0, 76, 64
2, 115020, Note_on_c, 0, 77, 127
2, 115056, Note_off_c, 0, 68, 64
2, 115068, Note_off_c, 0, 77, 64
2, 115080, Note_on_c, 0, 76, 127
2, 115128, Note_off_c, 0, 76, 64
2, 115140, Note_on_c, 0, 74, 127
2, 115188, Note_off_c, 0, 74, 64
2, 115200, Note_on_c, 0, 73, 127
2, 115200, Note_on_c, 0, 67, 127
2, 115248, Note_off_c, 0, 73, 64
2, 115260, Note_on_c, 0, 76, 127
2, 115296, Note_off_c, 0, 67, 64
2, 115308, Note_off_c, 0, 76, 64
2, 115320, Note_on_c, 0, 74, 127
2, 115320, Note_on_c, 0, 65, 127
2, 115368, Note_off_c, 0, 65, 64
2, 115380, Note_on_c, 0, 64, 127
2, 115428, Note_off_c, 0, 64, 64
2, 115440, Note_on_c, 0, 65, 127
2, 115488, Note_off_c, 0, 74, 64
2, 115500, Note_on_c, 0, 72, 127
2, 115536, Note_off_c, 0, 65, 64
2, 115548, Note_off_c, 0, 72, 64
2, 115560, Note_on_c, 0, 65, 127
2, 115560, Note_on_c, 0, 71, 127
2, 115608, Note_off_c, 0, 71, 64
2, 115620, Note_on_c, 0, 69, 127
2, 115656, Note_off_c, 0, 65, 64
2, 115668, Note_off_c, 0, 69, 64
2, 115680, Note_on_c, 0, 71, 127
2, 115680, Note_on_c, 0, 65, 127
2, 115728, Note_off_c, 0, 71, 64
2, 115740, Note_on_c, 0, 79, 127
2, 115776, Note_off_c, 0, 65, 64
2, 115788, Note_off_c, 0, 79, 64
2, 115800, Note_on_c, 0, 72, 127
2, 115800, Note_on_c, 0, 64, 127
2, 115848, Note_off_c, 0, 64, 64
2, 115860, Note_on_c, 0, 62, 127
2, 115908, Note_off_c, 0, 62, 64
2, 115920, Note_on_c, 0, 64, 127
2, 115968, Note_off_c, 0, 72, 64
2, 115980, Note_on_c, 0, 70, 127
2, 116016, Note_off_c, 0, 64, 64
2, 116028, Note_off_c, 0, 70, 64
2, 116040, Note_on_c, 0, 69, 127
2, 116040, Note_on_c, 0, 64, 127
2, 116088, Note_off_c, 0, 69, 64
2, 116100, Note_on_c, 0, 67, 127
2, 116136, Note_off_c, 0, 64, 64
2, 116148, Note_off_c, 0, 67, 64
2, 116160, Note_on_c, 0, 63, 127
2, 116160, Note_on_c, 0, 69, 127
2, 116208, Note_off_c, 0, 69, 64
2, 116220, Note_on_c, 0, 65, 127
2, 116256, Note_off_c, 0, 63, 64
2, 116268, Note_off_c, 0, 65, 64
2, 116280, Note_on_c, 0, 62, 127
2, 116280, Note_on_c, 0, 70, 127
2, 116328, Note_off_c, 0, 70, 64
2, 116328, Note_off_c, 0, 62, 64
2, 116340, Note_on_c, 0, 60, 127
2, 116340, Note_on_c, 0, 69, 127
2, 116388, Note_off_c, 0, 69, 64
2, 116388, Note_off_c, 0, 60, 64
2, 116400, Note_on_c, 0, 70, 127
2, 116400, Note_on_c, 0, 62, 127
2, 116448, Note_off_c, 0, 70, 64
2, 116460, Note_on_c, 0, 74, 127
2, 116496, Note_off_c, 0, 62, 64
2, 116508, Note_off_c, 0, 74, 64
2, 116520, Note_on_c, 0, 62, 127
2, 116520, Note_on_c, 0, 77, 127
2, 116568, Note_off_c, 0, 77, 64
2, 116580, Note_on_c, 0, 69, 127
2, 116616, Note_off_c, 0, 62, 64
2, 116628, Note_off_c, 0, 69, 64
2, 116640, Note_on_c, 0, 62, 127
2, 116640, Note_on_c, 0, 68, 127
2, 116688, Note_off_c, 0, 68, 64
2, 116700, Note_on_c, 0, 71, 127
2, 116748, Note_off_c, 0, 71, 64
2, 116753, Note_off_c, 0, 62, 64
2, 116760, Note_on_c, 0, 76, 127
2, 116760, Note_on_c, 0, 60, 127
2, 116808, Note_off_c, 0, 60, 64
2, 116808, Note_off_c, 0, 76, 64
2, 116820, Note_on_c, 0, 59, 127
2, 116820, Note_on_c, 0, 68, 127
2, 116868, Note_off_c, 0, 68, 64
2, 116868, Note_off_c, 0, 59, 64
2, 116880, Note_on_c, 0, 69, 127
2, 116880, Note_on_c, 0, 60, 127
2, 116928, Note_off_c, 0, 69, 64
2, 116940, Note_on_c, 0, 72, 127
2, 116976, Note_off_c, 0, 60, 64
2, 116988, Note_off_c, 0, 72, 64
2, 117000, Note_on_c, 0, 76, 127
2, 117000, Note_on_c, 0, 60, 127
2, 117048, Note_off_c, 0, 76, 64
2, 117060, Note_on_c, 0, 67, 127
2, 117108, Note_off_c, 0, 67, 64
2, 117113, Note_off_c, 0, 60, 64
2, 117120, Note_on_c, 0, 66, 127
2, 117120, Note_on_c, 0, 60, 127
2, 117168, Note_off_c, 0, 66, 64
2, 117180, Note_on_c, 0, 75, 127
2, 117216, Note_off_c, 0, 60, 64
2, 117228, Note_off_c, 0, 75, 64
2, 117240, Note_on_c, 0, 74, 127
2, 117288, Note_off_c, 0, 74, 64
2, 117300, Note_on_c, 0, 72, 127
2, 117348, Note_off_c, 0, 72, 64
2, 117360, Note_on_c, 0, 74, 127
2, 117408, Note_off_c, 0, 74, 64
2, 117420, Note_on_c, 0, 69, 127
2, 117468, Note_off_c, 0, 69, 64
2, 117480, Note_on_c, 0, 70, 127
2, 117528, Note_off_c, 0, 70, 64
2, 117540, Note_on_c, 0, 65, 127
2, 117588, Note_off_c, 0, 65, 64
2, 117600, Note_on_c, 0, 58, 127
2, 117600, Note_on_c, 0, 67, 127
2, 117648, Note_off_c, 0, 67, 64
2, 117660, Note_on_c, 0, 75, 127
2, 117696, Note_off_c, 0, 58, 64
2, 117708, Note_off_c, 0, 75, 64
2, 117720, Note_on_c, 0, 74, 127
2, 117768, Note_off_c, 0, 74, 64
2, 117780, Note_on_c, 0, 72, 127
2, 117828, Note_off_c, 0, 72, 64
2, 117840, Note_on_c, 0, 74, 127
2, 117888, Note_off_c, 0, 74, 64
2, 117900, Note_on_c, 0, 69, 127
2, 117948, Note_off_c, 0, 69, 64
2, 117960, Note_on_c, 0, 70, 127
2, 118008, Note_off_c, 0, 70, 64
2, 118020, Note_on_c, 0, 67, 127
2, 118068, Note_off_c, 0, 67, 64
2, 118080, Note_on_c, 0, 61, 127
2, 118080, Note_on_c, 0, 55, 127
2, 118128, Note_off_c, 0, 61, 64
2, 118140, Note_on_c, 0, 64, 127
2, 118176, Note_off_c, 0, 55, 64
2, 118188, Note_off_c, 0, 64, 64
2, 118200, Note_on_c, 0, 67, 127
2, 118248, Note_off_c, 0, 67, 64
2, 118260, Note_on_c, 0, 70, 127
2, 118308, Note_off_c, 0, 70, 64
2, 118320, Note_on_c, 0, 69, 127
2, 118368, Note_off_c, 0, 69, 64
2, 118380, Note_on_c, 0, 67, 127
2, 118428, Note_off_c, 0, 67, 64
2, 118440, Note_on_c, 0, 76, 127
2, 118488, Note_off_c, 0, 76, 64
2, 118500, Note_on_c, 0, 67, 127
2, 118548, Note_off_c, 0, 67, 64
2, 118560, Note_on_c, 0, 69, 127
2, 118608, Note_off_c, 0, 69, 64
2, 118620, Note_on_c, 0, 70, 127
2, 118668, Note_off_c, 0, 70, 64
2, 118680, Note_on_c, 0, 64, 127
2, 118728, Note_off_c, 0, 64, 64
2, 118740, Note_on_c, 0, 65, 127
2, 118788, Note_off_c, 0, 65, 64
2, 118800, Note_on_c, 0, 67, 127
2, 118848, Note_off_c, 0, 67, 64
2, 118860, Note_on_c, 0, 61, 127
2, 118908, Note_off_c, 0, 61, 64
2, 118920, Note_on_c, 0, 62, 127
2, 118968, Note_off_c, 0, 62, 64
2, 118980, Note_on_c, 0, 64, 127
2, 119028, Note_off_c, 0, 64, 64
2, 119040, Note_on_c, 0, 57, 127
2, 119040, Note_on_c, 0, 57, 127
2, 119136, Note_off_c, 0, 57, 64
2, 119136, Note_off_c, 0, 57, 64
2, 119160, Note_on_c, 0, 69, 127
2, 119256, Note_off_c, 0, 69, 64
2, 119280, Note_on_c, 0, 60, 127
2, 119280, Note_on_c, 0, 69, 127
2, 119376, Note_off_c, 0, 69, 64
2, 119376, Note_off_c, 0, 60, 64
2, 119400, Note_on_c, 0, 69, 127
2, 119496, Note_off_c, 0, 69, 64
2, 119520, Note_on_c, 0, 58, 127
2, 119520, Note_on_c, 0, 69, 127
2, 119616, Note_off_c, 0, 69, 64
2, 119616, Note_off_c, 0, 58, 64
2, 119640, Note_on_c, 0, 67, 127
2, 119640, Note_on_c, 0, 58, 127
2, 119688, Note_off_c, 0, 58, 64
2, 119688, Note_off_c, 0, 67, 64
2, 119700, Note_on_c, 0, 57, 127
2, 119700, Note_on_c, 0, 66, 127
2, 119748, Note_off_c, 0, 66, 64
2, 119748, Note_off_c, 0, 57, 64
2, 119760, Note_on_c, 0, 67, 127
2, 119760, Note_on_c, 0, 58, 127
2, 119856, Note_off_c, 0, 58, 64
2, 119856, Note_off_c, 0, 67, 64
2, 119880, Note_on_c, 0, 76, 127
2, 119928, Note_off_c, 0, 76, 64
2, 119940, Note_on_c, 0, 73, 127
2, 119988, Note_off_c, 0, 73, 64
2, 120000, Note_on_c, 0, 67, 127
2, 120000, Note_on_c, 0, 57, 127
2, 120096, Note_off_c, 0, 57, 64
2, 120096, Note_off_c, 0, 67, 64
2, 120120, Note_on_c, 0, 67, 127
2, 120120, Note_on_c, 0, 64, 127
2, 120168, Note_off_c, 0, 64, 64
2, 120168, Note_off_c, 0, 67, 64
2, 120180, Note_on_c, 0, 65, 127
2, 120180, Note_on_c, 0, 62, 127
2, 120228, Note_off_c, 0, 62, 64
2, 120228, Note_off_c, 0, 65, 64
2, 120240, Note_on_c, 0, 67, 127
2, 120240, Note_on_c, 0, 64, 127
2, 120336, Note_off_c, 0, 64, 64
2, 120336, Note_off_c, 0, 67, 64
2, 120360, Note_on_c, 0, 76, 127
2, 120408, Note_off_c, 0, 76, 64
2, 120420, Note_on_c, 0, 73, 127
2, 120468, Note_off_c, 0, 73, 64
2, 120480, Note_on_c, 0, 64, 127
2, 120480, Note_on_c, 0, 65, 127
2, 120576, Note_off_c, 0, 65, 64
2, 120576, Note_off_c, 0, 64, 64
2, 120600, Note_on_c, 0, 62, 127
2, 120600, Note_on_c, 0, 65, 127
2, 120648, Note_off_c, 0, 65, 64
2, 120648, Note_off_c, 0, 62, 64
2, 120660, Note_on_c, 0, 61, 127
2, 120660, Note_on_c, 0, 64, 127
2, 120708, Note_off_c, 0, 64, 64
2, 120708, Note_off_c, 0, 61, 64
2, 120720, Note_on_c, 0, 62, 127
2, 120720, Note_on_c, 0, 65, 127
2, 120768, Note_off_c, 0, 65, 64
2, 120780, Note_on_c, 0, 69, 127
2, 120816, Note_off_c, 0, 62, 64
2, 120828, Note_off_c, 0, 69, 64
2, 120840, Note_on_c, 0, 74, 127
2, 120888, Note_off_c, 0, 74, 64
2, 120900, Note_on_c, 0, 76, 127
2, 120948, Note_off_c, 0, 76, 64
2, 120960, Note_on_c, 0, 74, 127
2, 120960, Note_on_c, 0, 77, 127
2, 121056, Note_off_c, 0, 74, 64
2, 121104, Note_off_c, 0, 77, 64
2, 121140, Note_on_c, 0, 76, 127
2, 121188, Note_off_c, 0, 76, 64
2, 121200, Note_on_c, 0, 74, 127
2, 121248, Note_off_c, 0, 74, 64
2, 121260, Note_on_c, 0, 73, 127
2, 121308, Note_off_c, 0, 73, 64
2, 121320, Note_on_c, 0, 67, 127
2, 121320, Note_on_c, 0, 74, 127
2, 121368, Note_off_c, 0, 74, 64
2, 121380, Note_on_c, 0, 76, 127
2, 121416, Note_off_c, 0, 67, 64
2, 121428, Note_off_c, 0, 76, 64
2, 121440, Note_on_c, 0, 69, 127
2, 121440, Note_on_c, 0, 73, 127
2, 121632, Note_off_c, 0, 73, 64
2, 121680, Note_on_c, 0, 74, 127
2, 122112, Note_off_c, 0, 74, 64
2, 122160, Note_on_c, 0, 73, 127
2, 122352, Note_off_c, 0, 73, 64
2, 122400, Note_on_c, 0, 72, 127
2, 122592, Note_off_c, 0, 72, 64
2, 122640, Note_on_c, 0, 71, 127
2, 122688, Note_off_c, 0, 69, 64
2, 122760, Note_on_c, 0, 67, 127
2, 122808, Note_off_c, 0, 67, 64
2, 122820, Note_on_c, 0, 66, 127
2, 122832, Note_off_c, 0, 71, 64
2, 122868, Note_off_c, 0, 66, 64
2, 122880, Note_on_c, 0, 67, 127
2, 122880, Note_on_c, 0, 70, 127
2, 123072, Note_off_c, 0, 70, 64
2, 123072, Note_off_c, 0, 67, 64
2, 123120, Note_on_c, 0, 69, 127
2, 123120, Note_on_c, 0, 65, 127
2, 123216, Note_off_c, 0, 65, 64
2, 123216, Note_off_c, 0, 69, 64
2, 123240, Note_on_c, 0, 65, 127
2, 123240, Note_on_c, 0, 77, 127
2, 123336, Note_off_c, 0, 77, 64
2, 123336, Note_off_c, 0, 65, 64
2, 123360, Note_on_c, 0, 65, 127
2, 123360, Note_on_c, 0, 74, 127
2, 123456, Note_off_c, 0, 74, 64
2, 123456, Note_off_c, 0, 65, 64
2, 123480, Note_on_c, 0, 75, 127
2, 123528, Note_off_c, 0, 75, 64
2, 123540, Note_on_c, 0, 74, 127
2, 123588, Note_off_c, 0, 74, 64
2, 123600, Note_on_c, 0, 75, 127
2, 123648, Note_off_c, 0, 75, 64
2, 123660, Note_on_c, 0, 73, 127
2, 123708, Note_off_c, 0, 73, 64
2, 123720, Note_on_c, 0, 74, 127
2, 123720, Note_on_c, 0, 67, 127
2, 123816, Note_off_c, 0, 67, 64
2, 123816, Note_off_c, 0, 74, 64
2, 123840, Note_on_c, 0, 67, 127
2, 123840, Note_on_c, 0, 73, 127
2, 123936, Note_off_c, 0, 73, 64
2, 123936, Note_off_c, 0, 67, 64
2, 123960, Note_on_c, 0, 70, 127
2, 124008, Note_off_c, 0, 70, 64
2, 124020, Note_on_c, 0, 67, 127
2, 124068, Note_off_c, 0, 67, 64
2, 124080, Note_on_c, 0, 69, 127
2, 124176, Note_off_c, 0, 69, 64
2, 124200, Note_on_c, 0, 64, 127
2, 124200, Note_on_c, 0, 73, 127
2, 124296, Note_off_c, 0, 73, 64
2, 124296, Note_off_c, 0, 64, 64
2, 124320, Note_on_c, 0, 65, 127
2, 124320, Note_on_c, 0, 74, 127
2, 124416, Note_off_c, 0, 74, 64
2, 124416, Note_off_c, 0, 65, 64
2, 124440, Note_on_c, 0, 76, 127
2, 124440, Note_on_c, 0, 70, 127
2, 124488, Note_off_c, 0, 70, 64
2, 124500, Note_on_c, 0, 67, 127
2, 124536, Note_off_c, 0, 76, 64
2, 124548, Note_off_c, 0, 67, 64
2, 124560, Note_on_c, 0, 69, 127
2, 124560, Note_on_c, 0, 77, 127
2, 124656, Note_off_c, 0, 77, 64
2, 124656, Note_off_c, 0, 69, 64
2, 124680, Note_on_c, 0, 73, 127
2, 124680, Note_on_c, 0, 64, 127
2, 124776, Note_off_c, 0, 64, 64
2, 124776, Note_off_c, 0, 73, 64
2, 124800, Note_on_c, 0, 73, 127
2, 124800, Note_on_c, 0, 64, 127
2, 124896, Note_off_c, 0, 73, 64
2, 124913, Note_off_c, 0, 64, 64
2, 124920, Note_on_c, 0, 65, 127
2, 124920, Note_on_c, 0, 74, 127
2, 125016, Note_off_c, 0, 74, 64
2, 125033, Note_off_c, 0, 65, 64
2, 125040, Note_on_c, 0, 74, 127
2, 125040, Note_on_c, 0, 65, 127
2, 125136, Note_off_c, 0, 74, 64
2, 125153, Note_off_c, 0, 65, 64
2, 125160, Note_on_c, 0, 74, 127
2, 125160, Note_on_c, 0, 64, 127
2, 125256, Note_off_c, 0, 64, 64
2, 125256, Note_off_c, 0, 74, 64
2, 125280, Note_on_c, 0, 74, 127
2, 125280, Note_on_c, 0, 65, 127
2, 125424, Note_off_c, 0, 65, 64
2, 125424, Note_off_c, 0, 74, 64
2, 125460, Note_on_c, 0, 76, 127
2, 125460, Note_on_c, 0, 67, 127
2, 125508, Note_off_c, 0, 67, 64
2, 125508, Note_off_c, 0, 76, 64
2, 125520, Note_on_c, 0, 73, 127
2, 125520, Note_on_c, 0, 64, 127
2, 125664, Note_off_c, 0, 73, 64
2, 125700, Note_on_c, 0, 74, 127
2, 125712, Note_off_c, 0, 64, 64
2, 125748, Note_off_c, 0, 74, 64
2, 125760, Note_on_c, 0, 74, 127
2, 125760, Note_on_c, 0, 65, 127
2, 125808, Note_off_c, 0, 74, 64
2, 125820, Note_on_c, 0, 62, 127
2, 125856, Note_off_c, 0, 65, 64
2, 125868, Note_off_c, 0, 62, 64
2, 125880, Note_on_c, 0, 65, 127
2, 125928, Note_off_c, 0, 65, 64
2, 125940, Note_on_c, 0, 69, 127
2, 125988, Note_off_c, 0, 69, 64
2, 126000, Note_on_c, 0, 74, 127
2, 126048, Note_off_c, 0, 74, 64
2, 126060, Note_on_c, 0, 69, 127
2, 126108, Note_off_c, 0, 69, 64
2, 126120, Note_on_c, 0, 65, 127
2, 126168, Note_off_c, 0, 65, 64
2, 126180, Note_on_c, 0, 62, 127
2, 126228, Note_off_c, 0, 62, 64
2, 126240, Note_on_c, 0, 64, 127
2, 126288, Note_off_c, 0, 64, 64
2, 126300, Note_on_c, 0, 74, 127
2, 126348, Note_off_c, 0, 74, 64
2, 126360, Note_on_c, 0, 72, 127
2, 126408, Note_off_c, 0, 72, 64
2, 126420, Note_on_c, 0, 70, 127
2, 126468, Note_off_c, 0, 70, 64
2, 126480, Note_on_c, 0, 72, 127
2, 126528, Note_off_c, 0, 72, 64
2, 126540, Note_on_c, 0, 69, 127
2, 126588, Note_off_c, 0, 69, 64
2, 126600, Note_on_c, 0, 66, 127
2, 126648, Note_off_c, 0, 66, 64
2, 126660, Note_on_c, 0, 62, 127
2, 126708, Note_off_c, 0, 62, 64
2, 126780, Note_on_c, 0, 62, 127
2, 126828, Note_off_c, 0, 62, 64
2, 126840, Note_on_c, 0, 67, 127
2, 126888, Note_off_c, 0, 67, 64
2, 126900, Note_on_c, 0, 69, 127
2, 126948, Note_off_c, 0, 69, 64
2, 126960, Note_on_c, 0, 70, 127
2, 127008, Note_off_c, 0, 70, 64
2, 127020, Note_on_c, 0, 67, 127
2, 127068, Note_off_c, 0, 67, 64
2, 127080, Note_on_c, 0, 63, 127
2, 127128, Note_off_c, 0, 63, 64
2, 127140, Note_on_c, 0, 62, 127
2, 127188, Note_off_c, 0, 62, 64
2, 127200, Note_on_c, 0, 61, 127
2, 127248, Note_off_c, 0, 61, 64
2, 127260, Note_on_c, 0, 70, 127
2, 127308, Note_off_c, 0, 70, 64
2, 127320, Note_on_c, 0, 69, 127
2, 127368, Note_off_c, 0, 69, 64
2, 127380, Note_on_c, 0, 67, 127
2, 127428, Note_off_c, 0, 67, 64
2, 127440, Note_on_c, 0, 69, 127
2, 127488, Note_off_c, 0, 69, 64
2, 127500, Note_on_c, 0, 65, 127
2, 127548, Note_off_c, 0, 65, 64
2, 127560, Note_on_c, 0, 62, 127
2, 127608, Note_off_c, 0, 62, 64
2, 127620, Note_on_c, 0, 60, 127
2, 127668, Note_off_c, 0, 60, 64
2, 127740, Note_on_c, 0, 58, 127
2, 127788, Note_off_c, 0, 58, 64
2, 127800, Note_on_c, 0, 62, 127
2, 127848, Note_off_c, 0, 62, 64
2, 127860, Note_on_c, 0, 66, 127
2, 127908, Note_off_c, 0, 66, 64
2, 127920, Note_on_c, 0, 67, 127
2, 127968, Note_off_c, 0, 67, 64
2, 127980, Note_on_c, 0, 70, 127
2, 128028, Note_off_c, 0, 70, 64
2, 128040, Note_on_c, 0, 63, 127
2, 128088, Note_off_c, 0, 63, 64
2, 128100, Note_on_c, 0, 62, 127
2, 128148, Note_off_c, 0, 62, 64
2, 128160, Note_on_c, 0, 69, 127
2, 128352, Note_off_c, 0, 69, 64
2, 128400, Note_on_c, 0, 67, 127
2, 128448, Note_off_c, 0, 67, 64
2, 128460, Note_on_c, 0, 70, 127
2, 128508, Note_off_c, 0, 70, 64
2, 128520, Note_on_c, 0, 73, 127
2, 128568, Note_off_c, 0, 73, 64
2, 128580, Note_on_c, 0, 76, 127
2, 128628, Note_off_c, 0, 76, 64
2, 128880, Note_on_c, 0, 69, 127
2, 128928, Note_off_c, 0, 69, 64
2, 128940, Note_on_c, 0, 73, 127
2, 128988, Note_off_c, 0, 73, 64
2, 129000, Note_on_c, 0, 74, 127
2, 129048, Note_off_c, 0, 74, 64
2, 129060, Note_on_c, 0, 77, 127
2, 129108, Note_off_c, 0, 77, 64
2, 129360, Note_on_c, 0, 70, 127
2, 129408, Note_off_c, 0, 70, 64
2, 129420, Note_on_c, 0, 74, 127
2, 129468, Note_off_c, 0, 74, 64
2, 129480, Note_on_c, 0, 76, 127
2, 129528, Note_off_c, 0, 76, 64
2, 129540, Note_on_c, 0, 79, 127
2, 129588, Note_off_c, 0, 79, 64
2, 129660, Note_on_c, 0, 79, 127
2, 129708, Note_off_c, 0, 79, 64
2, 129720, Note_on_c, 0, 77, 127
2, 129768, Note_off_c, 0, 77, 64
2, 129780, Note_on_c, 0, 69, 127
2, 129828, Note_off_c, 0, 69, 64
2, 129840, Note_on_c, 0, 68, 127
2, 129888, Note_off_c, 0, 68, 64
2, 129900, Note_on_c, 0, 77, 127
2, 129948, Note_off_c, 0, 77, 64
2, 129960, Note_on_c, 0, 76, 127
2, 130008, Note_off_c, 0, 76, 64
2, 130020, Note_on_c, 0, 67, 127
2, 130068, Note_off_c, 0, 67, 64
2, 130080, Note_on_c, 0, 66, 127
2, 130128, Note_off_c, 0, 66, 64
2, 130140, Note_on_c, 0, 76, 127
2, 130188, Note_off_c, 0, 76, 64
2, 130200, Note_on_c, 0, 74, 127
2, 130248, Note_off_c, 0, 74, 64
2, 130260, Note_on_c, 0, 65, 127
2, 130308, Note_off_c, 0, 65, 64
2, 130320, Note_on_c, 0, 64, 127
2, 130368, Note_off_c, 0, 64, 64
2, 130380, Note_on_c, 0, 74, 127
2, 130428, Note_off_c, 0, 74, 64
2, 130440, Note_on_c, 0, 72, 127
2, 130488, Note_off_c, 0, 72, 64
2, 130500, Note_on_c, 0, 63, 127
2, 130548, Note_off_c, 0, 63, 64
2, 130560, Note_on_c, 0, 62, 127
2, 130608, Note_off_c, 0, 62, 64
2, 130620, Note_on_c, 0, 72, 127
2, 130668, Note_off_c, 0, 72, 64
2, 130680, Note_on_c, 0, 70, 127
2, 130728, Note_off_c, 0, 70, 64
2, 130740, Note_on_c, 0, 62, 127
2, 130788, Note_off_c, 0, 62, 64
2, 130800, Note_on_c, 0, 61, 127
2, 130848, Note_off_c, 0, 61, 64
2, 130860, Note_on_c, 0, 70, 127
2, 130908, Note_off_c, 0, 70, 64
2, 130920, Note_on_c, 0, 69, 127
2, 130968, Note_off_c, 0, 69, 64
2, 130980, Note_on_c, 0, 60, 127
2, 131028, Note_off_c, 0, 60, 64
2, 131040, Note_on_c, 0, 59, 127
2, 131088, Note_off_c, 0, 59, 64
2, 131100, Note_on_c, 0, 69, 127
2, 131148, Note_off_c, 0, 69, 64
2, 131160, Note_on_c, 0, 67, 127
2, 131208, Note_off_c, 0, 67, 64
2, 131220, Note_on_c, 0, 66, 127
2, 131268, Note_off_c, 0, 66, 64
2, 131280, Note_on_c, 0, 67, 127
2, 131328, Note_off_c, 0, 67, 64
2, 131340, Note_on_c, 0, 58, 127
2, 131388, Note_off_c, 0, 58, 64
2, 131400, Note_on_c, 0, 57, 127
2, 131448, Note_off_c, 0, 57, 64
2, 131460, Note_on_c, 0, 55, 127
2, 131508, Note_off_c, 0, 55, 64
2, 131520, Note_on_c, 0, 67, 127
2, 131520, Note_on_c, 0, 64, 127
2, 131520, Note_on_c, 0, 73, 127
2, 131745, Note_off_c, 0, 64, 64
2, 131745, Note_off_c, 0, 67, 64
2, 131892, Note_off_c, 0, 73, 64
2, 131895, Note_on_c, 0, 74, 127
2, 131907, Note_off_c, 0, 74, 64
2, 131910, Note_on_c, 0, 76, 127
2, 131922, Note_off_c, 0, 76, 64
2, 131925, Note_on_c, 0, 73, 127
2, 131937, Note_off_c, 0, 73, 64
2, 131940, Note_on_c, 0, 74, 127
2, 131952, Note_off_c, 0, 74, 64
2, 131955, Note_on_c, 0, 76, 127
2, 131967, Note_off_c, 0, 76, 64
2, 131970, Note_on_c, 0, 67, 127
2, 131982, Note_off_c, 0, 67, 64
2, 131985, Note_on_c, 0, 69, 127
2, 131997, Note_off_c, 0, 69, 64
2, 132000, Note_on_c, 0, 70, 127
2, 132012, Note_off_c, 0, 70, 64
2, 132015, Note_on_c, 0, 67, 127
2, 132027, Note_off_c, 0, 67, 64
2, 132030, Note_on_c, 0, 69, 127
2, 132042, Note_off_c, 0, 69, 64
2, 132045, Note_on_c, 0, 70, 127
2, 132057, Note_off_c, 0, 70, 64
2, 132060, Note_on_c, 0, 64, 127
2, 132072, Note_off_c, 0, 64, 64
2, 132075, Note_on_c, 0, 65, 127
2, 132087, Note_off_c, 0, 65, 64
2, 132090, Note_on_c, 0, 67, 127
2, 132102, Note_off_c, 0, 67, 64
2, 132105, Note_on_c, 0, 64, 127
2, 132117, Note_off_c, 0, 64, 64
2, 132120, Note_on_c, 0, 65, 127
2, 132132, Note_off_c, 0, 65, 64
2, 132135, Note_on_c, 0, 67, 127
2, 132147, Note_off_c, 0, 67, 64
2, 132150, Note_on_c, 0, 61, 127
2, 132162, Note_off_c, 0, 61, 64
2, 132165, Note_on_c, 0, 62, 127
2, 132177, Note_off_c, 0, 62, 64
2, 132180, Note_on_c, 0, 64, 127
2, 132192, Note_off_c, 0, 64, 64
2, 132195, Note_on_c, 0, 61, 127
2, 132207, Note_off_c, 0, 61, 64
2, 132210, Note_on_c, 0, 62, 127
2, 132222, Note_off_c, 0, 62, 64
2, 132225, Note_on_c, 0, 64, 127
2, 132237, Note_off_c, 0, 64, 64
2, 132360, Note_on_c, 0, 71, 127
2, 132360, Note_on_c, 0, 74, 127
2, 132360, Note_on_c, 0, 65, 127
2, 132456, Note_off_c, 0, 65, 64
2, 132456, Note_off_c, 0, 71, 64
2, 132480, Note_on_c, 0, 69, 127
2, 132480, Note_on_c, 0, 64, 127
2, 132564, Note_off_c, 0, 74, 64
2, 132570, Note_on_c, 0, 76, 127
2, 132594, Note_off_c, 0, 76, 64
2, 132600, Note_on_c, 0, 74, 127
2, 132624, Note_off_c, 0, 74, 64
2, 132630, Note_on_c, 0, 73, 127
2, 132654, Note_off_c, 0, 73, 64
2, 132660, Note_on_c, 0, 74, 127
2, 132672, Note_off_c, 0, 74, 64
2, 132675, Note_on_c, 0, 71, 127
2, 132687, Note_off_c, 0, 71, 64
2, 132690, Note_on_c, 0, 73, 127
2, 132714, Note_off_c, 0, 73, 64
2, 132720, Note_on_c, 0, 73, 127
2, 132864, Note_off_c, 0, 73, 64
2, 132864, Note_off_c, 0, 64, 64
2, 132864, Note_off_c, 0, 69, 64
2, 132900, Note_on_c, 0, 74, 127
2, 132948, Note_off_c, 0, 74, 64
2, 132960, Note_on_c, 0, 74, 127
2, 132960, Note_on_c, 0, 69, 127
2, 132960, Note_on_c, 0, 62, 127
2, 133344, Note_off_c, 0, 62, 64
2, 133344, Note_off_c, 0, 69, 64
2, 133344, Note_off_c, 0, 74, 64
2, 133344, End_track
3, 0, Start_track
3, 0, Title_t, "J.S. Bach BWV 539"
3, 0, Program_c, 0, 0
3, 0, Note_on_c, 0, 50, 127
3, 576, Note_off_c, 0, 50, 64
3, 600, Note_on_c, 0, 50, 127
3, 696, Note_off_c, 0, 50, 64
3, 720, Note_on_c, 0, 49, 127
3, 816, Note_off_c, 0, 49, 64
3, 840, Note_on_c, 0, 50, 127
3, 936, Note_off_c, 0, 50, 64
3, 960, Note_on_c, 0, 52, 127
3, 1536, Note_off_c, 0, 52, 64
3, 1560, Note_on_c, 0, 52, 127
3, 1656, Note_off_c, 0, 52, 64
3, 1680, Note_on_c, 0, 50, 127
3, 1776, Note_off_c, 0, 50, 64
3, 1800, Note_on_c, 0, 52, 127
3, 1896, Note_off_c, 0, 52, 64
3, 1920, Note_on_c, 0, 54, 127
3, 2496, Note_off_c, 0, 54, 64
3, 2520, Note_on_c, 0, 50, 127
3, 2616, Note_off_c, 0, 50, 64
3, 2640, Note_on_c, 0, 52, 127
3, 2736, Note_off_c, 0, 52, 64
3, 2760, Note_on_c, 0, 54, 127
3, 2856, Note_off_c, 0, 54, 64
3, 2880, Note_on_c, 0, 55, 127
3, 2976, Note_off_c, 0, 55, 64
3, 3000, Note_on_c, 0, 54, 127
3, 3096, Note_off_c, 0, 54, 64
3, 3120, Note_on_c, 0, 55, 127
3, 3216, Note_off_c, 0, 55, 64
3, 3240, Note_on_c, 0, 57, 127
3, 3336, Note_off_c, 0, 57, 64
3, 3360, Note_on_c, 0, 58, 127
3, 4416, Note_off_c, 0, 58, 64
3, 4440, Note_on_c, 0, 58, 127
3, 4536, Note_off_c, 0, 58, 64
3, 4560, Note_on_c, 0, 57, 127
3, 4656, Note_off_c, 0, 57, 64
3, 4680, Note_on_c, 0, 55, 127
3, 4776, Note_off_c, 0, 55, 64
3, 4800, Note_on_c, 0, 53, 127
3, 4896, Note_off_c, 0, 53, 64
3, 4920, Note_on_c, 0, 52, 127
3, 5016, Note_off_c, 0, 52, 64
3, 5040, Note_on_c, 0, 50, 127
3, 5136, Note_off_c, 0, 50, 64
3, 5160, Note_on_c, 0, 49, 127
3, 5256, Note_off_c, 0, 49, 64
3, 5280, Note_on_c, 0, 50, 127
3, 5376, Note_off_c, 0, 50, 64
3, 5400, Note_on_c, 0, 52, 127
3, 5496, Note_off_c, 0, 52, 64
3, 5520, Note_on_c, 0, 53, 127
3, 5616, Note_off_c, 0, 53, 64
3, 5640, Note_on_c, 0, 55, 127
3, 5736, Note_off_c, 0, 55, 64
3, 5760, Note_on_c, 0, 57, 127
3, 5952, Note_off_c, 0, 57, 64
3, 6000, Note_on_c, 0, 52, 127
3, 6192, Note_off_c, 0, 52, 64
3, 6240, Note_on_c, 0, 57, 127
3, 6912, Note_off_c, 0, 57, 64
3, 6960, Note_on_c, 0, 56, 127
3, 7056, Note_off_c, 0, 56, 64
3, 7080, Note_on_c, 0, 54, 127
3, 7176, Note_off_c, 0, 54, 64
3, 7200, Note_on_c, 0, 56, 127
3, 7584, Note_off_c, 0, 56, 64
3, 7800, Note_on_c, 0, 45, 127
3, 7800, Note_on_c, 0, 45, 127
3, 7896, Note_off_c, 0, 45, 64
3, 7920, Note_on_c, 0, 49, 127
3, 8016, Note_off_c, 0, 49, 64
3, 8040, Note_on_c, 0, 52, 127
3, 8088, Note_off_c, 0, 45, 64
3, 8136, Note_off_c, 0, 52, 64
3, 8160, Note_on_c, 0, 55, 127
3, 8865, Note_off_c, 0, 55, 64
3, 8880, Note_on_c, 0, 53, 127
3, 8976, Note_off_c, 0, 53, 64
3, 9000, Note_on_c, 0, 52, 127
3, 9096, Note_off_c, 0, 52, 64
3, 9120, Note_on_c, 0, 50, 127
3, 9216, Note_off_c, 0, 50, 64
3, 9240, Note_on_c, 0, 48, 127
3, 9336, Note_off_c, 0, 48, 64
3, 9360, Note_on_c, 0, 47, 127
3, 9456, Note_off_c, 0, 47, 64
3, 9480, Note_on_c, 0, 45, 127
3, 9576, Note_off_c, 0, 45, 64
3, 9600, Note_on_c, 0, 44, 127
3, 9696, Note_off_c, 0, 44, 64
3, 9720, Note_on_c, 0, 45, 127
3, 9816, Note_off_c, 0, 45, 64
3, 9840, Note_on_c, 0, 47, 127
3, 9936, Note_off_c, 0, 47, 64
3, 9960, Note_on_c, 0, 48, 127
3, 10056, Note_off_c, 0, 48, 64
3, 10080, Note_on_c, 0, 50, 127
3, 10560, Note_on_c, 0, 57, 127
3, 10752, Note_off_c, 0, 57, 64
3, 10752, Note_off_c, 0, 50, 64
3, 10800, Note_on_c, 0, 50, 127
3, 10800, Note_on_c, 0, 59, 127
3, 10992, Note_off_c, 0, 59, 64
3, 10992, Note_off_c, 0, 50, 64
3, 11040, Note_on_c, 0, 48, 127
3, 11040, Note_on_c, 0, 52, 127
3, 11232, Note_off_c, 0, 52, 64
3, 11280, Note_on_c, 0, 57, 127
3, 11472, Note_off_c, 0, 57, 64
3, 11616, Note_off_c, 0, 48, 64
3, 11640, Note_on_c, 0, 52, 127
3, 11736, Note_off_c, 0, 52, 64
3, 11760, Note_on_c, 0, 50, 127
3, 11856, Note_off_c, 0, 50, 64
3, 11880, Note_on_c, 0, 48, 127
3, 11976, Note_off_c, 0, 48, 64
3, 12000, Note_on_c, 0, 47, 127
3, 12096, Note_off_c, 0, 47, 64
3, 12120, Note_on_c, 0, 45, 127
3, 12216, Note_off_c, 0, 45, 64
3, 12240, Note_on_c, 0, 44, 127
3, 12336, Note_off_c, 0, 44, 64
3, 12360, Note_on_c, 0, 42, 127
3, 12456, Note_off_c, 0, 42, 64
3, 12480, Note_on_c, 0, 44, 127
3, 12576, Note_off_c, 0, 44, 64
3, 12600, Note_on_c, 0, 45, 127
3, 12696, Note_off_c, 0, 45, 64
3, 12720, Note_on_c, 0, 47, 127
3, 12816, Note_off_c, 0, 47, 64
3, 12840, Note_on_c, 0, 44, 127
3, 12936, Note_off_c, 0, 44, 64
3, 12960, Note_on_c, 0, 45, 127
3, 13056, Note_off_c, 0, 45, 64
3, 13080, Note_on_c, 0, 47, 127
3, 13176, Note_off_c, 0, 47, 64
3, 13200, Note_on_c, 0, 48, 127
3, 13296, Note_off_c, 0, 48, 64
3, 13320, Note_on_c, 0, 50, 127
3, 13416, Note_off_c, 0, 50, 64
3, 13440, Note_on_c, 0, 52, 127
3, 14016, Note_off_c, 0, 52, 64
3, 14040, Note_on_c, 0, 52, 127
3, 14136, Note_off_c, 0, 52, 64
3, 14160, Note_on_c, 0, 50, 127
3, 14256, Note_off_c, 0, 50, 64
3, 14280, Note_on_c, 0, 52, 127
3, 14376, Note_off_c, 0, 52, 64
3, 14400, Note_on_c, 0, 48, 127
3, 14976, Note_off_c, 0, 48, 64
3, 15000, Note_on_c, 0, 48, 127
3, 15096, Note_off_c, 0, 48, 64
3, 15120, Note_on_c, 0, 50, 127
3, 15216, Note_off_c, 0, 50, 64
3, 15240, Note_on_c, 0, 52, 127
3, 15336, Note_off_c, 0, 52, 64
3, 15360, Note_on_c, 0, 53, 127
3, 15936, Note_off_c, 0, 53, 64
3, 15960, Note_on_c, 0, 52, 127
3, 16056, Note_off_c, 0, 52, 64
3, 16080, Note_on_c, 0, 50, 127
3, 16176, Note_off_c, 0, 50, 64
3, 16200, Note_on_c, 0, 48, 127
3, 16296, Note_off_c, 0, 48, 64
3, 16320, Note_on_c, 0, 47, 127
3, 16896, Note_off_c, 0, 47, 64
3, 16920, Note_on_c, 0, 47, 127
3, 17016, Note_off_c, 0, 47, 64
3, 17040, Note_on_c, 0, 48, 127
3, 17136, Note_off_c, 0, 48, 64
3, 17160, Note_on_c, 0, 50, 127
3, 17256, Note_off_c, 0, 50, 64
3, 17280, Note_on_c, 0, 52, 127
3, 17856, Note_off_c, 0, 52, 64
3, 17880, Note_on_c, 0, 50, 127
3, 17976, Note_off_c, 0, 50, 64
3, 18000, Note_on_c, 0, 48, 127
3, 18096, Note_off_c, 0, 48, 64
3, 18120, Note_on_c, 0, 47, 127
3, 18216, Note_off_c, 0, 47, 64
3, 18240, Note_on_c, 0, 45, 127
3, 18336, Note_off_c, 0, 45, 64
3, 18360, Note_on_c, 0, 44, 127
3, 18456, Note_off_c, 0, 44, 64
3, 18480, Note_on_c, 0, 45, 127
3, 18576, Note_off_c, 0, 45, 64
3, 18600, Note_on_c, 0, 47, 127
3, 18696, Note_off_c, 0, 47, 64
3, 18720, Note_on_c, 0, 48, 127
3, 18816, Note_off_c, 0, 48, 64
3, 18840, Note_on_c, 0, 45, 127
3, 18936, Note_off_c, 0, 45, 64
3, 18960, Note_on_c, 0, 47, 127
3, 19056, Note_off_c, 0, 47, 64
3, 19080, Note_on_c, 0, 48, 127
3, 19176, Note_off_c, 0, 48, 64
3, 19200, Note_on_c, 0, 50, 127
3, 19296, Note_off_c, 0, 50, 64
3, 19320, Note_on_c, 0, 48, 127
3, 19416, Note_off_c, 0, 48, 64
3, 19440, Note_on_c, 0, 50, 127
3, 19536, Note_off_c, 0, 50, 64
3, 19560, Note_on_c, 0, 52, 127
3, 19656, Note_off_c, 0, 52, 64
3, 19680, Note_on_c, 0, 53, 127
3, 19776, Note_off_c, 0, 53, 64
3, 19800, Note_on_c, 0, 50, 127
3, 19896, Note_off_c, 0, 50, 64
3, 19920, Note_on_c, 0, 52, 127
3, 20016, Note_off_c, 0, 52, 64
3, 20040, Note_on_c, 0, 53, 127
3, 20136, Note_off_c, 0, 53, 64
3, 20160, Note_on_c, 0, 44, 127
3, 20352, Note_off_c, 0, 44, 64
3, 20400, Note_on_c, 0, 56, 127
3, 20592, Note_off_c, 0, 56, 64
3, 20640, Note_on_c, 0, 57, 127
3, 20832, Note_off_c, 0, 57, 64
3, 20880, Note_on_c, 0, 52, 127
3, 20880, Note_on_c, 0, 59, 127
3, 21072, Note_off_c, 0, 59, 64
3, 21072, Note_off_c, 0, 52, 64
3, 21120, Note_on_c, 0, 57, 127
3, 21120, Note_on_c, 0, 53, 127
3, 21312, Note_off_c, 0, 53, 64
3, 21360, Note_on_c, 0, 50, 127
3, 21552, Note_off_c, 0, 50, 64
3, 21600, Note_on_c, 0, 52, 127
3, 21696, Note_off_c, 0, 57, 64
3, 21840, Note_on_c, 0, 56, 127
3, 21984, Note_off_c, 0, 52, 64
3, 22032, Note_off_c, 0, 56, 64
3, 22080, Note_on_c, 0, 45, 127
3, 22080, Note_on_c, 0, 57, 127
3, 22464, Note_off_c, 0, 45, 64
3, 22656, Note_off_c, 0, 57, 64
3, 22680, Note_on_c, 0, 57, 127
3, 22776, Note_off_c, 0, 57, 64
3, 22800, Note_on_c, 0, 55, 127
3, 22896, Note_off_c, 0, 55, 64
3, 22920, Note_on_c, 0, 57, 127
3, 23016, Note_off_c, 0, 57, 64
3, 23040, Note_on_c, 0, 59, 127
3, 23616, Note_off_c, 0, 59, 64
3, 23640, Note_on_c, 0, 59, 127
3, 23736, Note_off_c, 0, 59, 64
3, 23760, Note_on_c, 0, 57, 127
3, 23856, Note_off_c, 0, 57, 64
3, 23880, Note_on_c, 0, 59, 127
3, 23976, Note_off_c, 0, 59, 64
3, 24000, Note_on_c, 0, 60, 127
3, 24192, Note_off_c, 0, 60, 64
3, 24240, Note_on_c, 0, 48, 127
3, 24432, Note_off_c, 0, 48, 64
3, 24600, Note_on_c, 0, 60, 127
3, 24696, Note_off_c, 0, 60, 64
3, 24720, Note_on_c, 0, 59, 127
3, 24816, Note_off_c, 0, 59, 64
3, 24840, Note_on_c, 0, 60, 127
3, 24936, Note_off_c, 0, 60, 64
3, 24960, Note_on_c, 0, 62, 127
3, 25536, Note_off_c, 0, 62, 64
3, 25560, Note_on_c, 0, 62, 127
3, 25656, Note_off_c, 0, 62, 64
3, 25680, Note_on_c, 0, 60, 127
3, 25776, Note_off_c, 0, 60, 64
3, 25800, Note_on_c, 0, 62, 127
3, 25896, Note_off_c, 0, 62, 64
3, 25920, Note_on_c, 0, 64, 127
3, 26112, Note_off_c, 0, 64, 64
3, 26160, Note_on_c, 0, 52, 127
3, 26352, Note_off_c, 0, 52, 64
3, 26520, Note_on_c, 0, 64, 127
3, 26616, Note_off_c, 0, 64, 64
3, 26640, Note_on_c, 0, 62, 127
3, 26736, Note_off_c, 0, 62, 64
3, 26760, Note_on_c, 0, 64, 127
3, 26856, Note_off_c, 0, 64, 64
3, 26880, Note_on_c, 0, 65, 127
3, 27456, Note_off_c, 0, 65, 64
3, 27480, Note_on_c, 0, 65, 127
3, 27576, Note_off_c, 0, 65, 64
3, 27600, Note_on_c, 0, 64, 127
3, 27696, Note_off_c, 0, 64, 64
3, 27720, Note_on_c, 0, 65, 127
3, 27816, Note_off_c, 0, 65, 64
3, 27840, Note_on_c, 0, 67, 127
3, 27936, Note_off_c, 0, 67, 64
3, 27960, Note_on_c, 0, 65, 127
3, 28056, Note_off_c, 0, 65, 64
3, 28080, Note_on_c, 0, 64, 127
3, 28176, Note_off_c, 0, 64, 64
3, 28200, Note_on_c, 0, 62, 127
3, 28296, Note_off_c, 0, 62, 64
3, 28320, Note_on_c, 0, 64, 127
3, 28416, Note_off_c, 0, 64, 64
3, 28440, Note_on_c, 0, 62, 127
3, 28536, Note_off_c, 0, 62, 64
3, 28560, Note_on_c, 0, 61, 127
3, 28656, Note_off_c, 0, 61, 64
3, 28680, Note_on_c, 0, 59, 127
3, 28776, Note_off_c, 0, 59, 64
3, 28800, Note_on_c, 0, 61, 127
3, 28992, Note_off_c, 0, 61, 64
3, 29040, Note_on_c, 0, 57, 127
3, 29232, Note_off_c, 0, 57, 64
3, 29280, Note_on_c, 0, 62, 127
3, 29376, Note_off_c, 0, 62, 64
3, 29400, Note_on_c, 0, 50, 127
3, 29496, Note_off_c, 0, 50, 64
3, 29520, Note_on_c, 0, 52, 127
3, 29616, Note_off_c, 0, 52, 64
3, 29640, Note_on_c, 0, 53, 127
3, 29736, Note_off_c, 0, 53, 64
3, 29760, Note_on_c, 0, 55, 127
3, 29856, Note_off_c, 0, 55, 64
3, 29880, Note_on_c, 0, 53, 127
3, 29976, Note_off_c, 0, 53, 64
3, 30000, Note_on_c, 0, 55, 127
3, 30096, Note_off_c, 0, 55, 64
3, 30120, Note_on_c, 0, 57, 127
3, 30216, Note_off_c, 0, 57, 64
3, 30240, Note_on_c, 0, 58, 127
3, 30336, Note_off_c, 0, 58, 64
3, 30360, Note_on_c, 0, 57, 127
3, 30456, Note_off_c, 0, 57, 64
3, 30480, Note_on_c, 0, 58, 127
3, 30576, Note_off_c, 0, 58, 64
3, 30600, Note_on_c, 0, 55, 127
3, 30696, Note_off_c, 0, 55, 64
3, 30720, Note_on_c, 0, 57, 127
3, 30816, Note_off_c, 0, 57, 64
3, 30840, Note_on_c, 0, 55, 127
3, 30936, Note_off_c, 0, 55, 64
3, 30960, Note_on_c, 0, 57, 127
3, 31056, Note_off_c, 0, 57, 64
3, 31080, Note_on_c, 0, 59, 127
3, 31176, Note_off_c, 0, 59, 64
3, 31200, Note_on_c, 0, 61, 127
3, 31296, Note_off_c, 0, 61, 64
3, 31320, Note_on_c, 0, 57, 127
3, 31416, Note_off_c, 0, 57, 64
3, 31440, Note_on_c, 0, 59, 127
3, 31536, Note_off_c, 0, 59, 64
3, 31560, Note_on_c, 0, 61, 127
3, 31656, Note_off_c, 0, 61, 64
3, 31680, Note_on_c, 0, 62, 127
3, 31872, Note_off_c, 0, 62, 64
3, 31920, Note_on_c, 0, 50, 127
3, 32256, Note_off_c, 0, 50, 64
3, 32280, Note_on_c, 0, 50, 127
3, 32376, Note_off_c, 0, 50, 64
3, 32400, Note_on_c, 0, 49, 127
3, 32496, Note_off_c, 0, 49, 64
3, 32520, Note_on_c, 0, 50, 127
3, 32616, Note_off_c, 0, 50, 64
3, 32640, Note_on_c, 0, 52, 127
3, 33216, Note_off_c, 0, 52, 64
3, 33240, Note_on_c, 0, 52, 127
3, 33336, Note_off_c, 0, 52, 64
3, 33360, Note_on_c, 0, 50, 127
3, 33456, Note_off_c, 0, 50, 64
3, 33480, Note_on_c, 0, 52, 127
3, 33576, Note_off_c, 0, 52, 64
3, 33600, Note_on_c, 0, 54, 127
3, 34176, Note_off_c, 0, 54, 64
3, 34200, Note_on_c, 0, 50, 127
3, 34296, Note_off_c, 0, 50, 64
3, 34320, Note_on_c, 0, 52, 127
3, 34416, Note_off_c, 0, 52, 64
3, 34440, Note_on_c, 0, 54, 127
3, 34536, Note_off_c, 0, 54, 64
3, 34560, Note_on_c, 0, 55, 127
3, 34656, Note_off_c, 0, 55, 64
3, 34680, Note_on_c, 0, 54, 127
3, 34776, Note_off_c, 0, 54, 64
3, 34800, Note_on_c, 0, 55, 127
3, 34896, Note_off_c, 0, 55, 64
3, 34920, Note_on_c, 0, 57, 127
3, 35016, Note_off_c, 0, 57, 64
3, 35040, Note_on_c, 0, 58, 127
3, 36096, Note_off_c, 0, 58, 64
3, 36120, Note_on_c, 0, 58, 127
3, 36216, Note_off_c, 0, 58, 64
3, 36240, Note_on_c, 0, 57, 127
3, 36336, Note_off_c, 0, 57, 64
3, 36360, Note_on_c, 0, 55, 127
3, 36456, Note_off_c, 0, 55, 64
3, 36480, Note_on_c, 0, 57, 127
3, 36480, Note_on_c, 0, 53, 127
3, 36576, Note_off_c, 0, 53, 64
3, 36600, Note_on_c, 0, 52, 127
3, 36696, Note_off_c, 0, 52, 64
3, 36720, Note_on_c, 0, 50, 127
3, 36816, Note_off_c, 0, 50, 64
3, 36840, Note_on_c, 0, 49, 127
3, 36936, Note_off_c, 0, 49, 64
3, 36960, Note_on_c, 0, 50, 127
3, 37056, Note_off_c, 0, 50, 64
3, 37080, Note_on_c, 0, 52, 127
3, 37176, Note_off_c, 0, 52, 64
3, 37200, Note_on_c, 0, 53, 127
3, 37248, Note_off_c, 0, 57, 64
3, 37296, Note_off_c, 0, 53, 64
3, 37320, Note_on_c, 0, 55, 127
3, 37416, Note_off_c, 0, 55, 64
3, 37440, Note_on_c, 0, 44, 127
3, 37680, Note_on_c, 0, 47, 127
3, 37872, Note_off_c, 0, 47, 64
3, 37920, Note_on_c, 0, 52, 127
3, 38016, Note_off_c, 0, 44, 64
3, 38160, Note_on_c, 0, 44, 127
3, 38352, Note_off_c, 0, 44, 64
3, 38400, Note_on_c, 0, 45, 127
3, 38592, Note_off_c, 0, 45, 64
3, 38592, Note_off_c, 0, 52, 64
3, 38640, Note_on_c, 0, 49, 127
3, 38832, Note_off_c, 0, 49, 64
3, 38880, Note_on_c, 0, 50, 127
3, 39072, Note_off_c, 0, 50, 64
3, 39120, Note_on_c, 0, 45, 127
3, 39120, Note_on_c, 0, 55, 127
3, 39120, Note_on_c, 0, 52, 127
3, 39312, Note_off_c, 0, 52, 64
3, 39312, Note_off_c, 0, 55, 64
3, 39312, Note_off_c, 0, 45, 64
3, 39360, Note_on_c, 0, 50, 127
3, 39360, Note_on_c, 0, 53, 127
3, 39360, Note_on_c, 0, 46, 127
3, 39552, Note_off_c, 0, 46, 64
3, 39552, Note_off_c, 0, 53, 64
3, 39600, Note_on_c, 0, 43, 127
3, 39600, Note_on_c, 0, 58, 127
3, 39792, Note_off_c, 0, 58, 64
3, 39792, Note_off_c, 0, 43, 64
3, 39840, Note_on_c, 0, 57, 127
3, 39840, Note_on_c, 0, 45, 127
3, 39936, Note_off_c, 0, 50, 64
3, 40080, Note_on_c, 0, 49, 127
3, 40224, Note_off_c, 0, 45, 64
3, 40224, Note_off_c, 0, 57, 64
3, 40272, Note_off_c, 0, 49, 64
3, 40320, Note_on_c, 0, 50, 127
3, 40320, Note_on_c, 0, 53, 127
3, 40320, Note_on_c, 0, 57, 127
3, 40320, Note_on_c, 0, 38, 127
3, 41088, Note_off_c, 0, 38, 64
3, 41088, Note_off_c, 0, 57, 64
3, 41088, Note_off_c, 0, 53, 64
3, 41088, Note_off_c, 0, 50, 64
3, 42360, Note_on_c, 0, 62, 127
3, 42456, Note_off_c, 0, 62, 64
3, 42480, Note_on_c, 0, 62, 127
3, 42576, Note_off_c, 0, 62, 64
3, 42600, Note_on_c, 0, 62, 127
3, 42696, Note_off_c, 0, 62, 64
3, 42720, Note_on_c, 0, 62, 127
3, 42816, Note_off_c, 0, 62, 64
3, 42840, Note_on_c, 0, 60, 127
3, 42888, Note_off_c, 0, 60, 64
3, 42900, Note_on_c, 0, 58, 127
3, 42948, Note_off_c, 0, 58, 64
3, 42960, Note_on_c, 0, 60, 127
3, 43056, Note_off_c, 0, 60, 64
3, 43080, Note_on_c, 0, 57, 127
3, 43176, Note_off_c, 0, 57, 64
3, 43200, Note_on_c, 0, 58, 127
3, 43296, Note_off_c, 0, 58, 64
3, 43440, Note_on_c, 0, 58, 127
3, 43536, Note_off_c, 0, 58, 64
3, 43680, Note_on_c, 0, 57, 127
3, 43776, Note_off_c, 0, 57, 64
3, 43920, Note_on_c, 0, 57, 127
3, 44256, Note_off_c, 0, 57, 64
3, 44280, Note_on_c, 0, 50, 127
3, 44376, Note_off_c, 0, 50, 64
3, 44400, Note_on_c, 0, 55, 127
3, 44736, Note_off_c, 0, 55, 64
3, 44880, Note_on_c, 0, 53, 127
3, 44976, Note_off_c, 0, 53, 64
3, 45120, Note_on_c, 0, 62, 127
3, 45120, Note_on_c, 0, 52, 127
3, 45216, Note_off_c, 0, 52, 64
3, 45216, Note_off_c, 0, 62, 64
3, 45360, Note_on_c, 0, 61, 127
3, 45360, Note_on_c, 0, 57, 127
3, 45456, Note_off_c, 0, 57, 64
3, 45456, Note_off_c, 0, 61, 64
3, 45600, Note_on_c, 0, 50, 127
3, 45600, Note_on_c, 0, 62, 127
3, 45696, Note_off_c, 0, 62, 64
3, 45696, Note_off_c, 0, 50, 64
3, 45840, Note_on_c, 0, 62, 127
3, 45840, Note_on_c, 0, 53, 127
3, 45936, Note_off_c, 0, 53, 64
3, 45936, Note_off_c, 0, 62, 64
3, 46080, Note_on_c, 0, 57, 127
3, 46176, Note_off_c, 0, 57, 64
3, 46320, Note_on_c, 0, 57, 127
3, 46416, Note_off_c, 0, 57, 64
3, 46560, Note_on_c, 0, 57, 127
3, 46656, Note_off_c, 0, 57, 64
3, 46800, Note_on_c, 0, 62, 127
3, 46896, Note_off_c, 0, 62, 64
3, 47040, Note_on_c, 0, 62, 127
3, 47136, Note_off_c, 0, 62, 64
3, 47280, Note_on_c, 0, 58, 127
3, 47376, Note_off_c, 0, 58, 64
3, 47520, Note_on_c, 0, 57, 127
3, 47616, Note_off_c, 0, 57, 64
3, 48000, Note_on_c, 0, 57, 127
3, 48096, Note_off_c, 0, 57, 64
3, 48480, Note_on_c, 0, 57, 127
3, 48480, Note_on_c, 0, 66, 127
3, 48576, Note_off_c, 0, 66, 64
3, 48576, Note_off_c, 0, 57, 64
3, 48720, Note_on_c, 0, 66, 127
3, 48720, Note_on_c, 0, 57, 127
3, 48816, Note_off_c, 0, 57, 64
3, 48816, Note_off_c, 0, 66, 64
3, 48960, Note_on_c, 0, 55, 127
3, 48960, Note_on_c, 0, 67, 127
3, 49056, Note_off_c, 0, 67, 64
3, 49056, Note_off_c, 0, 55, 64
3, 49440, Note_on_c, 0, 55, 127
3, 49440, Note_on_c, 0, 64, 127
3, 49536, Note_off_c, 0, 64, 64
3, 49536, Note_off_c, 0, 55, 64
3, 49680, Note_on_c, 0, 64, 127
3, 49680, Note_on_c, 0, 55, 127
3, 49776, Note_off_c, 0, 55, 64
3, 49776, Note_off_c, 0, 64, 64
3, 49920, Note_on_c, 0, 60, 127
3, 49920, Note_on_c, 0, 53, 127
3, 50016, Note_off_c, 0, 53, 64
3, 50016, Note_off_c, 0, 60, 64
3, 50280, Note_on_c, 0, 50, 127
3, 50280, Note_on_c, 0, 57, 127
3, 50376, Note_off_c, 0, 50, 64
3, 50393, Note_off_c, 0, 57, 64
3, 50400, Note_on_c, 0, 55, 80
3, 50400, Note_on_c, 0, 50, 127
3, 50496, Note_off_c, 0, 50, 64
3, 50520, Note_off_c, 0, 55, 64
3, 50760, Note_on_c, 0, 58, 127
3, 50760, Note_on_c, 0, 55, 127
3, 50856, Note_off_c, 0, 55, 64
3, 50856, Note_off_c, 0, 58, 64
3, 50880, Note_on_c, 0, 52, 127
3, 50880, Note_on_c, 0, 57, 127
3, 50976, Note_off_c, 0, 57, 64
3, 50976, Note_off_c, 0, 52, 64
3, 51240, Note_on_c, 0, 52, 127
3, 51240, Note_on_c, 0, 57, 127
3, 51336, Note_off_c, 0, 57, 64
3, 51336, Note_off_c, 0, 52, 64
3, 51360, Note_on_c, 0, 57, 127
3, 51360, Note_on_c, 0, 50, 127
3, 51456, Note_off_c, 0, 50, 64
3, 51456, Note_off_c, 0, 57, 64
3, 51480, Note_on_c, 0, 52, 80
3, 51540, Note_on_c, 0, 64, 127
3, 51588, Note_off_c, 0, 64, 64
3, 51600, Note_off_c, 0, 52, 64
3, 51600, Note_on_c, 0, 65, 127
3, 51600, Note_on_c, 0, 50, 80
3, 51720, Note_off_c, 0, 50, 64
3, 51720, Note_on_c, 0, 58, 127
3, 51744, Note_off_c, 0, 65, 64
3, 51780, Note_on_c, 0, 67, 127
3, 51816, Note_off_c, 0, 58, 64
3, 51828, Note_off_c, 0, 67, 64
3, 51840, Note_on_c, 0, 52, 127
3, 51840, Note_on_c, 0, 69, 127
3, 52032, Note_off_c, 0, 69, 64
3, 52065, Note_off_c, 0, 52, 64
3, 52200, Note_on_c, 0, 62, 127
3, 52200, Note_on_c, 0, 69, 127
3, 52296, Note_off_c, 0, 69, 64
3, 52296, Note_off_c, 0, 62, 64
3, 52320, Note_on_c, 0, 55, 127
3, 52320, Note_on_c, 0, 67, 127
3, 52512, Note_off_c, 0, 67, 64
3, 52545, Note_off_c, 0, 55, 64
3, 52680, Note_on_c, 0, 67, 80
3, 52680, Note_on_c, 0, 60, 127
3, 52776, Note_off_c, 0, 60, 64
3, 52800, Note_off_c, 0, 67, 64
3, 52800, Note_on_c, 0, 53, 127
3, 52800, Note_on_c, 0, 65, 127
3, 52992, Note_off_c, 0, 53, 64
3, 53040, Note_on_c, 0, 58, 127
3, 53088, Note_off_c, 0, 65, 64
3, 53100, Note_on_c, 0, 65, 127
3, 53136, Note_off_c, 0, 58, 64
3, 53160, Note_on_c, 0, 60, 127
3, 53196, Note_off_c, 0, 65, 64
3, 53220, Note_on_c, 0, 66, 127
3, 53256, Note_off_c, 0, 60, 64
3, 53268, Note_off_c, 0, 66, 64
3, 53280, Note_on_c, 0, 67, 127
3, 53280, Note_on_c, 0, 62, 127
3, 53328, Note_off_c, 0, 62, 64
3, 53340, Note_on_c, 0, 60, 127
3, 53376, Note_off_c, 0, 67, 64
3, 53388, Note_off_c, 0, 60, 64
3, 53400, Note_on_c, 0, 60, 127
3, 53448, Note_off_c, 0, 60, 64
3, 53460, Note_on_c, 0, 58, 127
3, 53508, Note_off_c, 0, 58, 64
3, 53520, Note_on_c, 0, 58, 127
3, 53520, Note_on_c, 0, 62, 127
3, 53568, Note_off_c, 0, 58, 64
3, 53580, Note_on_c, 0, 57, 127
3, 53616, Note_off_c, 0, 62, 64
3, 53628, Note_off_c, 0, 57, 64
3, 53640, Note_on_c, 0, 57, 127
3, 53688, Note_off_c, 0, 57, 64
3, 53700, Note_on_c, 0, 55, 127
3, 53748, Note_off_c, 0, 55, 64
3, 53760, Note_on_c, 0, 55, 127
3, 53760, Note_on_c, 0, 58, 127
3, 53808, Note_off_c, 0, 55, 64
3, 53820, Note_on_c, 0, 52, 127
3, 53856, Note_off_c, 0, 58, 64
3, 53868, Note_off_c, 0, 52, 64
3, 53880, Note_on_c, 0, 52, 127
3, 53928, Note_off_c, 0, 52, 64
3, 53940, Note_on_c, 0, 53, 127
3, 53988, Note_off_c, 0, 53, 64
3, 54000, Note_on_c, 0, 53, 127
3, 54096, Note_off_c, 0, 53, 64
3, 54120, Note_on_c, 0, 52, 127
3, 54168, Note_off_c, 0, 52, 64
3, 54180, Note_on_c, 0, 50, 127
3, 54228, Note_off_c, 0, 50, 64
3, 54240, Note_on_c, 0, 52, 127
3, 54240, Note_on_c, 0, 57, 127
3, 54336, Note_off_c, 0, 57, 64
3, 54336, Note_off_c, 0, 52, 64
3, 54360, Note_on_c, 0, 50, 127
3, 54360, Note_on_c, 0, 53, 127
3, 54456, Note_off_c, 0, 53, 64
3, 54456, Note_off_c, 0, 50, 64
3, 54480, Note_on_c, 0, 55, 127
3, 54480, Note_on_c, 0, 52, 127
3, 54672, Note_off_c, 0, 52, 64
3, 54672, Note_off_c, 0, 55, 64
3, 54720, Note_on_c, 0, 50, 127
3, 54720, Note_on_c, 0, 53, 127
3, 54816, Note_off_c, 0, 53, 64
3, 54816, Note_off_c, 0, 50, 64
3, 57240, Note_on_c, 0, 57, 127
3, 57336, Note_off_c, 0, 57, 64
3, 57360, Note_on_c, 0, 57, 127
3, 57456, Note_off_c, 0, 57, 64
3, 57480, Note_on_c, 0, 57, 127
3, 57576, Note_off_c, 0, 57, 64
3, 57600, Note_on_c, 0, 57, 127
3, 57696, Note_off_c, 0, 57, 64
3, 57720, Note_on_c, 0, 55, 127
3, 57768, Note_off_c, 0, 55, 64
3, 57780, Note_on_c, 0, 54, 127
3, 57828, Note_off_c, 0, 54, 64
3, 57840, Note_on_c, 0, 55, 127
3, 57936, Note_off_c, 0, 55, 64
3, 57960, Note_on_c, 0, 52, 127
3, 58056, Note_off_c, 0, 52, 64
3, 58080, Note_on_c, 0, 54, 127
3, 58176, Note_off_c, 0, 54, 64
3, 58200, Note_on_c, 0, 55, 127
3, 58248, Note_off_c, 0, 55, 64
3, 58260, Note_on_c, 0, 54, 127
3, 58308, Note_off_c, 0, 54, 64
3, 58320, Note_on_c, 0, 55, 127
3, 58416, Note_off_c, 0, 55, 64
3, 58440, Note_on_c, 0, 58, 127
3, 58536, Note_off_c, 0, 58, 64
3, 58560, Note_on_c, 0, 52, 127
3, 58656, Note_off_c, 0, 52, 64
3, 58680, Note_on_c, 0, 49, 127
3, 58776, Note_off_c, 0, 49, 64
3, 58800, Note_on_c, 0, 50, 127
3, 58896, Note_off_c, 0, 50, 64
3, 59400, Note_on_c, 0, 69, 127
3, 59496, Note_off_c, 0, 69, 64
3, 59520, Note_on_c, 0, 66, 127
3, 59616, Note_off_c, 0, 66, 64
3, 59640, Note_on_c, 0, 62, 127
3, 59736, Note_off_c, 0, 62, 64
3, 59880, Note_on_c, 0, 64, 127
3, 59976, Note_off_c, 0, 64, 64
3, 60000, Note_on_c, 0, 61, 127
3, 60096, Note_off_c, 0, 61, 64
3, 60120, Note_on_c, 0, 57, 127
3, 60216, Note_off_c, 0, 57, 64
3, 60360, Note_on_c, 0, 71, 127
3, 60456, Note_off_c, 0, 71, 64
3, 60480, Note_on_c, 0, 68, 127
3, 60576, Note_off_c, 0, 68, 64
3, 60600, Note_on_c, 0, 64, 127
3, 60696, Note_off_c, 0, 64, 64
3, 60720, Note_on_c, 0, 60, 127
3, 60816, Note_off_c, 0, 60, 64
3, 60840, Note_on_c, 0, 57, 127
3, 60936, Note_off_c, 0, 57, 64
3, 60960, Note_on_c, 0, 64, 127
3, 61056, Note_off_c, 0, 64, 64
3, 61200, Note_on_c, 0, 64, 127
3, 61296, Note_off_c, 0, 64, 64
3, 61440, Note_on_c, 0, 64, 80
3, 61536, Note_off_c, 0, 64, 64
3, 61680, Note_on_c, 0, 59, 80
3, 61776, Note_off_c, 0, 59, 64
3, 62040, Note_on_c, 0, 67, 80
3, 62136, Note_off_c, 0, 67, 64
3, 62160, Note_on_c, 0, 65, 80
3, 62256, Note_off_c, 0, 65, 64
3, 62280, Note_on_c, 0, 64, 80
3, 62376, Note_off_c, 0, 64, 64
3, 62400, Note_on_c, 0, 62, 127
3, 62496, Note_off_c, 0, 62, 64
3, 62520, Note_on_c, 0, 64, 127
3, 62616, Note_off_c, 0, 64, 64
3, 62640, Note_on_c, 0, 65, 127
3, 62736, Note_off_c, 0, 65, 64
3, 62760, Note_on_c, 0, 64, 127
3, 62808, Note_off_c, 0, 64, 64
3, 62820, Note_on_c, 0, 63, 127
3, 62868, Note_off_c, 0, 63, 64
3, 62880, Note_on_c, 0, 64, 127
3, 62928, Note_off_c, 0, 64, 64
3, 62940, Note_on_c, 0, 59, 127
3, 62988, Note_off_c, 0, 59, 64
3, 63000, Note_on_c, 0, 57, 127
3, 63048, Note_off_c, 0, 57, 64
3, 63060, Note_on_c, 0, 56, 127
3, 63108, Note_off_c, 0, 56, 64
3, 63120, Note_on_c, 0, 57, 127
3, 63168, Note_off_c, 0, 57, 64
3, 63180, Note_on_c, 0, 59, 127
3, 63228, Note_off_c, 0, 59, 64
3, 63240, Note_on_c, 0, 60, 80
3, 63408, Note_off_c, 0, 60, 64
3, 63420, Note_on_c, 0, 57, 127
3, 63468, Note_off_c, 0, 57, 64
3, 63480, Note_on_c, 0, 62, 127
3, 63528, Note_off_c, 0, 62, 64
3, 63540, Note_on_c, 0, 60, 127
3, 63588, Note_off_c, 0, 60, 64
3, 63600, Note_on_c, 0, 62, 127
3, 63696, Note_off_c, 0, 62, 64
3, 63720, Note_on_c, 0, 60, 127
3, 63888, Note_off_c, 0, 60, 64
3, 63900, Note_on_c, 0, 60, 127
3, 63948, Note_off_c, 0, 60, 64
3, 63960, Note_on_c, 0, 59, 127
3, 64008, Note_off_c, 0, 59, 64
3, 64020, Note_on_c, 0, 57, 127
3, 64068, Note_off_c, 0, 57, 64
3, 64080, Note_on_c, 0, 59, 127
3, 64176, Note_off_c, 0, 59, 64
3, 64200, Note_on_c, 0, 54, 127
3, 64296, Note_off_c, 0, 54, 64
3, 64320, Note_on_c, 0, 52, 127
3, 64512, Note_off_c, 0, 52, 64
3, 64560, Note_on_c, 0, 52, 127
3, 64656, Note_off_c, 0, 52, 64
3, 64680, Note_on_c, 0, 50, 127
3, 64776, Note_off_c, 0, 50, 64
3, 64800, Note_on_c, 0, 48, 127
3, 64896, Note_off_c, 0, 48, 64
3, 65280, Note_on_c, 0, 57, 127
3, 65376, Note_off_c, 0, 57, 64
3, 65400, Note_on_c, 0, 55, 127
3, 65448, Note_off_c, 0, 55, 64
3, 65460, Note_on_c, 0, 53, 127
3, 65508, Note_off_c, 0, 53, 64
3, 65520, Note_on_c, 0, 55, 127
3, 65616, Note_off_c, 0, 55, 64
3, 65640, Note_on_c, 0, 52, 127
3, 65736, Note_off_c, 0, 52, 64
3, 65760, Note_on_c, 0, 53, 127
3, 65856, Note_off_c, 0, 53, 64
3, 66000, Note_on_c, 0, 50, 127
3, 66096, Note_off_c, 0, 50, 64
3, 66240, Note_on_c, 0, 52, 127
3, 66336, Note_off_c, 0, 52, 64
3, 66600, Note_on_c, 0, 54, 127
3, 66696, Note_off_c, 0, 54, 64
3, 66720, Note_on_c, 0, 55, 127
3, 66816, Note_off_c, 0, 55, 64
3, 66960, Note_on_c, 0, 52, 127
3, 67056, Note_off_c, 0, 52, 64
3, 67200, Note_on_c, 0, 57, 127
3, 67296, Note_off_c, 0, 57, 64
3, 67680, Note_on_c, 0, 57, 127
3, 67776, Note_off_c, 0, 57, 64
3, 68160, Note_on_c, 0, 51, 127
3, 68256, Note_off_c, 0, 51, 64
3, 68640, Note_on_c, 0, 50, 127
3, 68736, Note_off_c, 0, 50, 64
3, 68880, Note_on_c, 0, 48, 127
3, 68976, Note_off_c, 0, 48, 64
3, 69120, Note_on_c, 0, 45, 127
3, 69120, Note_on_c, 0, 64, 127
3, 69216, Note_off_c, 0, 64, 64
3, 69216, Note_off_c, 0, 45, 64
3, 69360, Note_on_c, 0, 52, 127
3, 69360, Note_on_c, 0, 59, 127
3, 69456, Note_off_c, 0, 59, 64
3, 69456, Note_off_c, 0, 52, 64
3, 69600, Note_on_c, 0, 60, 127
3, 69600, Note_on_c, 0, 52, 127
3, 69696, Note_off_c, 0, 52, 64
3, 69696, Note_off_c, 0, 60, 64
3, 69960, Note_on_c, 0, 60, 127
3, 69960, Note_on_c, 0, 60, 127
3, 70056, Note_off_c, 0, 60, 64
3, 70056, Note_off_c, 0, 60, 64
3, 70080, Note_on_c, 0, 57, 127
3, 70080, Note_on_c, 0, 60, 127
3, 70176, Note_off_c, 0, 60, 64
3, 70176, Note_off_c, 0, 57, 64
3, 70440, Note_on_c, 0, 62, 127
3, 70440, Note_on_c, 0, 59, 127
3, 70536, Note_off_c, 0, 59, 64
3, 70536, Note_off_c, 0, 62, 64
3, 70560, Note_on_c, 0, 64, 127
3, 70560, Note_on_c, 0, 59, 127
3, 70656, Note_off_c, 0, 59, 64
3, 70656, Note_off_c, 0, 64, 64
3, 70920, Note_on_c, 0, 64, 127
3, 70920, Note_on_c, 0, 57, 127
3, 71016, Note_off_c, 0, 57, 64
3, 71016, Note_off_c, 0, 64, 64
3, 71040, Note_on_c, 0, 57, 127
3, 71040, Note_on_c, 0, 62, 127
3, 71136, Note_off_c, 0, 62, 64
3, 71136, Note_off_c, 0, 57, 64
3, 71280, Note_on_c, 0, 60, 127
3, 71280, Note_on_c, 0, 64, 127
3, 71376, Note_off_c, 0, 64, 64
3, 71376, Note_off_c, 0, 60, 64
3, 71520, Note_on_c, 0, 66, 127
3, 71520, Note_on_c, 0, 54, 127
3, 71616, Note_off_c, 0, 54, 64
3, 71616, Note_off_c, 0, 66, 64
3, 71760, Note_on_c, 0, 59, 127
3, 71760, Note_on_c, 0, 64, 127
3, 71856, Note_off_c, 0, 64, 64
3, 71856, Note_off_c, 0, 59, 64
3, 72000, Note_on_c, 0, 57, 127
3, 72000, Note_on_c, 0, 64, 127
3, 72096, Note_off_c, 0, 64, 64
3, 72096, Note_off_c, 0, 57, 64
3, 72240, Note_on_c, 0, 62, 127
3, 72336, Note_off_c, 0, 62, 64
3, 72480, Note_on_c, 0, 62, 127
3, 72576, Note_off_c, 0, 62, 64
3, 72720, Note_on_c, 0, 60, 127
3, 72816, Note_off_c, 0, 60, 64
3, 72960, Note_on_c, 0, 60, 127
3, 73056, Note_off_c, 0, 60, 64
3, 73200, Note_on_c, 0, 57, 127
3, 73296, Note_off_c, 0, 57, 64
3, 73440, Note_on_c, 0, 59, 127
3, 73536, Note_off_c, 0, 59, 64
3, 73800, Note_on_c, 0, 59, 127
3, 73800, Note_on_c, 0, 62, 127
3, 73896, Note_off_c, 0, 62, 64
3, 73896, Note_off_c, 0, 59, 64
3, 73920, Note_on_c, 0, 60, 80
3, 73920, Note_on_c, 0, 57, 127
3, 74016, Note_off_c, 0, 57, 64
3, 74040, Note_off_c, 0, 60, 64
3, 74280, Note_on_c, 0, 59, 127
3, 74280, Note_on_c, 0, 62, 127
3, 74376, Note_off_c, 0, 62, 64
3, 74376, Note_off_c, 0, 59, 64
3, 74400, Note_on_c, 0, 60, 127
3, 74400, Note_on_c, 0, 57, 127
3, 74496, Note_off_c, 0, 57, 64
3, 74496, Note_off_c, 0, 60, 64
3, 74640, Note_on_c, 0, 57, 127
3, 74640, Note_on_c, 0, 61, 127
3, 74736, Note_off_c, 0, 61, 64
3, 74736, Note_off_c, 0, 57, 64
3, 74880, Note_on_c, 0, 57, 127
3, 74880, Note_on_c, 0, 62, 127
3, 74928, Note_off_c, 0, 62, 64
3, 74940, Note_on_c, 0, 64, 127
3, 74976, Note_off_c, 0, 57, 64
3, 74988, Note_off_c, 0, 64, 64
3, 75000, Note_on_c, 0, 62, 127
3, 75048, Note_off_c, 0, 62, 64
3, 75060, Note_on_c, 0, 60, 127
3, 75108, Note_off_c, 0, 60, 64
3, 75120, Note_on_c, 0, 60, 127
3, 75168, Note_off_c, 0, 60, 64
3, 75180, Note_on_c, 0, 62, 127
3, 75228, Note_off_c, 0, 62, 64
3, 75240, Note_on_c, 0, 60, 127
3, 75288, Note_off_c, 0, 60, 64
3, 75300, Note_on_c, 0, 59, 127
3, 75348, Note_off_c, 0, 59, 64
3, 75360, Note_on_c, 0, 59, 127
3, 75408, Note_off_c, 0, 59, 64
3, 75420, Note_on_c, 0, 60, 127
3, 75468, Note_off_c, 0, 60, 64
3, 75480, Note_on_c, 0, 59, 127
3, 75528, Note_off_c, 0, 59, 64
3, 75540, Note_on_c, 0, 57, 127
3, 75588, Note_off_c, 0, 57, 64
3, 75600, Note_on_c, 0, 57, 127
3, 75648, Note_off_c, 0, 57, 64
3, 75660, Note_on_c, 0, 59, 127
3, 75708, Note_off_c, 0, 59, 64
3, 75720, Note_on_c, 0, 57, 127
3, 75768, Note_off_c, 0, 57, 64
3, 75780, Note_on_c, 0, 56, 127
3, 75828, Note_off_c, 0, 56, 64
3, 75840, Note_on_c, 0, 56, 127
3, 75936, Note_off_c, 0, 56, 64
3, 75960, Note_on_c, 0, 52, 127
3, 76056, Note_off_c, 0, 52, 64
3, 76080, Note_on_c, 0, 64, 127
3, 76176, Note_off_c, 0, 64, 64
3, 76200, Note_on_c, 0, 65, 127
3, 76296, Note_off_c, 0, 65, 64
3, 76320, Note_on_c, 0, 59, 127
3, 76320, Note_on_c, 0, 64, 127
3, 77088, Note_off_c, 0, 59, 64
3, 77160, Note_on_c, 0, 62, 127
3, 77256, Note_off_c, 0, 62, 64
3, 77280, Note_on_c, 0, 60, 127
3, 77568, Note_off_c, 0, 64, 64
3, 77640, Note_on_c, 0, 65, 127
3, 77664, Note_off_c, 0, 60, 64
3, 77760, Note_on_c, 0, 59, 127
3, 77856, Note_off_c, 0, 65, 64
3, 77880, Note_on_c, 0, 64, 127
3, 77976, Note_off_c, 0, 64, 64
3, 78000, Note_on_c, 0, 65, 127
3, 78096, Note_off_c, 0, 65, 64
3, 78120, Note_on_c, 0, 62, 127
3, 78216, Note_off_c, 0, 62, 64
3, 78240, Note_on_c, 0, 62, 127
3, 78336, Note_off_c, 0, 59, 64
3, 78360, Note_on_c, 0, 57, 127
3, 78456, Note_off_c, 0, 57, 64
3, 78480, Note_on_c, 0, 59, 127
3, 78528, Note_off_c, 0, 62, 64
3, 78576, Note_off_c, 0, 59, 64
3, 78600, Note_on_c, 0, 52, 127
3, 78600, Note_on_c, 0, 62, 127
3, 78696, Note_off_c, 0, 62, 64
3, 78696, Note_off_c, 0, 52, 64
3, 78720, Note_on_c, 0, 52, 127
3, 78720, Note_on_c, 0, 52, 127
3, 78720, Note_on_c, 0, 60, 127
3, 78816, Note_off_c, 0, 60, 64
3, 78816, Note_off_c, 0, 52, 64
3, 78816, Note_off_c, 0, 52, 64
3, 79080, Note_on_c, 0, 68, 127
3, 79080, Note_on_c, 0, 62, 127
3, 79176, Note_off_c, 0, 62, 64
3, 79176, Note_off_c, 0, 68, 64
3, 79200, Note_on_c, 0, 69, 127
3, 79200, Note_on_c, 0, 60, 127
3, 79296, Note_off_c, 0, 60, 64
3, 79296, Note_off_c, 0, 69, 64
3, 79560, Note_on_c, 0, 62, 127
3, 79560, Note_on_c, 0, 56, 127
3, 79656, Note_off_c, 0, 56, 64
3, 79656, Note_off_c, 0, 62, 64
3, 79680, Note_on_c, 0, 57, 127
3, 79680, Note_on_c, 0, 64, 127
3, 79776, Note_off_c, 0, 64, 64
3, 79776, Note_off_c, 0, 57, 64
3, 80040, Note_on_c, 0, 62, 127
3, 80040, Note_on_c, 0, 53, 127
3, 80136, Note_off_c, 0, 53, 64
3, 80136, Note_off_c, 0, 62, 64
3, 80160, Note_on_c, 0, 60, 127
3, 80160, Note_on_c, 0, 52, 127
3, 80256, Note_off_c, 0, 52, 64
3, 80256, Note_off_c, 0, 60, 64
3, 80520, Note_on_c, 0, 57, 127
3, 80520, Note_on_c, 0, 60, 127
3, 80616, Note_off_c, 0, 60, 64
3, 80616, Note_off_c, 0, 57, 64
3, 80640, Note_on_c, 0, 53, 127
3, 80640, Note_on_c, 0, 62, 127
3, 80736, Note_off_c, 0, 62, 64
3, 80736, Note_off_c, 0, 53, 64
3, 81000, Note_on_c, 0, 52, 127
3, 81000, Note_on_c, 0, 64, 127
3, 81096, Note_off_c, 0, 64, 64
3, 81096, Note_off_c, 0, 52, 64
3, 81120, Note_on_c, 0, 65, 127
3, 81120, Note_on_c, 0, 56, 127
3, 81216, Note_off_c, 0, 56, 64
3, 81216, Note_off_c, 0, 65, 64
3, 81480, Note_on_c, 0, 57, 127
3, 81480, Note_on_c, 0, 64, 127
3, 81576, Note_off_c, 0, 64, 64
3, 81576, Note_off_c, 0, 57, 64
3, 81600, Note_on_c, 0, 59, 127
3, 81600, Note_on_c, 0, 62, 127
3, 81696, Note_off_c, 0, 62, 64
3, 81696, Note_off_c, 0, 59, 64
3, 81960, Note_on_c, 0, 57, 127
3, 81960, Note_on_c, 0, 64, 127
3, 82056, Note_off_c, 0, 64, 64
3, 82056, Note_off_c, 0, 57, 64
3, 82080, Note_on_c, 0, 65, 127
3, 82080, Note_on_c, 0, 56, 127
3, 82176, Note_off_c, 0, 56, 64
3, 82176, Note_off_c, 0, 65, 64
3, 82440, Note_on_c, 0, 62, 127
3, 82440, Note_on_c, 0, 65, 127
3, 82536, Note_off_c, 0, 65, 64
3, 82536, Note_off_c, 0, 62, 64
3, 82560, Note_on_c, 0, 64, 127
3, 82560, Note_on_c, 0, 60, 127
3, 82656, Note_off_c, 0, 60, 64
3, 82656, Note_off_c, 0, 64, 64
3, 82680, Note_on_c, 0, 64, 127
3, 82776, Note_off_c, 0, 64, 64
3, 82800, Note_on_c, 0, 60, 127
3, 82896, Note_off_c, 0, 60, 64
3, 82920, Note_on_c, 0, 57, 127
3, 83016, Note_off_c, 0, 57, 64
3, 83040, Note_on_c, 0, 59, 127
3, 83136, Note_off_c, 0, 59, 64
3, 83160, Note_on_c, 0, 64, 127
3, 83256, Note_off_c, 0, 64, 64
3, 83280, Note_on_c, 0, 61, 127
3, 83376, Note_off_c, 0, 61, 64
3, 83400, Note_on_c, 0, 64, 127
3, 83400, Note_on_c, 0, 57, 127
3, 83496, Note_off_c, 0, 57, 64
3, 83496, Note_off_c, 0, 64, 64
3, 83520, Note_on_c, 0, 62, 127
3, 83520, Note_on_c, 0, 57, 127
3, 83616, Note_off_c, 0, 57, 64
3, 83616, Note_off_c, 0, 62, 64
3, 83640, Note_on_c, 0, 57, 127
3, 83736, Note_off_c, 0, 57, 64
3, 83760, Note_on_c, 0, 53, 127
3, 83856, Note_off_c, 0, 53, 64
3, 83880, Note_on_c, 0, 50, 127
3, 83976, Note_off_c, 0, 50, 64
3, 84000, Note_on_c, 0, 52, 127
3, 84096, Note_off_c, 0, 52, 64
3, 84120, Note_on_c, 0, 57, 127
3, 84216, Note_off_c, 0, 57, 64
3, 84240, Note_on_c, 0, 54, 127
3, 84336, Note_off_c, 0, 54, 64
3, 84360, Note_on_c, 0, 50, 127
3, 84360, Note_on_c, 0, 57, 127
3, 84456, Note_off_c, 0, 57, 64
3, 84456, Note_off_c, 0, 50, 64
3, 84480, Note_on_c, 0, 55, 127
3, 84480, Note_on_c, 0, 55, 127
3, 84576, Note_off_c, 0, 55, 64
3, 84576, Note_off_c, 0, 55, 64
3, 84600, Note_on_c, 0, 62, 127
3, 84696, Note_off_c, 0, 62, 64
3, 84720, Note_on_c, 0, 58, 127
3, 84816, Note_off_c, 0, 58, 64
3, 84840, Note_on_c, 0, 55, 127
3, 84936, Note_off_c, 0, 55, 64
3, 84960, Note_on_c, 0, 57, 127
3, 85056, Note_off_c, 0, 57, 64
3, 85080, Note_on_c, 0, 62, 127
3, 85176, Note_off_c, 0, 62, 64
3, 85200, Note_on_c, 0, 59, 127
3, 85296, Note_off_c, 0, 59, 64
3, 85320, Note_on_c, 0, 62, 127
3, 85320, Note_on_c, 0, 55, 127
3, 85416, Note_off_c, 0, 55, 64
3, 85416, Note_off_c, 0, 62, 64
3, 85440, Note_on_c, 0, 60, 127
3, 85440, Note_on_c, 0, 55, 127
3, 85536, Note_off_c, 0, 55, 64
3, 85536, Note_off_c, 0, 60, 64
3, 85560, Note_on_c, 0, 58, 127
3, 85656, Note_off_c, 0, 58, 64
3, 85680, Note_on_c, 0, 57, 127
3, 85776, Note_off_c, 0, 57, 64
3, 85800, Note_on_c, 0, 60, 127
3, 85800, Note_on_c, 0, 53, 127
3, 85896, Note_off_c, 0, 53, 64
3, 85896, Note_off_c, 0, 60, 64
3, 85920, Note_on_c, 0, 58, 127
3, 85920, Note_on_c, 0, 53, 127
3, 86016, Note_off_c, 0, 53, 64
3, 86016, Note_off_c, 0, 58, 64
3, 86040, Note_on_c, 0, 57, 127
3, 86136, Note_off_c, 0, 57, 64
3, 86160, Note_on_c, 0, 55, 127
3, 86256, Note_off_c, 0, 55, 64
3, 86280, Note_on_c, 0, 51, 127
3, 86280, Note_on_c, 0, 58, 127
3, 86376, Note_off_c, 0, 58, 64
3, 86496, Note_off_c, 0, 51, 64
3, 86520, Note_on_c, 0, 50, 127
3, 86520, Note_on_c, 0, 57, 127
3, 86616, Note_off_c, 0, 57, 64
3, 86616, Note_off_c, 0, 50, 64
3, 86640, Note_on_c, 0, 55, 127
3, 86640, Note_on_c, 0, 50, 127
3, 86736, Note_off_c, 0, 50, 64
3, 86760, Note_on_c, 0, 48, 127
3, 86832, Note_off_c, 0, 55, 64
3, 86856, Note_off_c, 0, 48, 64
3, 86880, Note_on_c, 0, 48, 127
3, 86880, Note_on_c, 0, 53, 127
3, 86976, Note_off_c, 0, 48, 64
3, 87000, Note_on_c, 0, 46, 127
3, 87072, Note_off_c, 0, 53, 64
3, 87096, Note_off_c, 0, 46, 64
3, 87120, Note_on_c, 0, 46, 127
3, 87120, Note_on_c, 0, 55, 127
3, 87216, Note_off_c, 0, 46, 64
3, 87240, Note_on_c, 0, 48, 127
3, 87312, Note_off_c, 0, 55, 64
3, 87336, Note_off_c, 0, 48, 64
3, 87360, Note_on_c, 0, 50, 127
3, 87360, Note_on_c, 0, 54, 127
3, 87456, Note_off_c, 0, 54, 64
3, 87456, Note_off_c, 0, 50, 64
3, 87840, Note_on_c, 0, 50, 127
3, 87840, Note_on_c, 0, 54, 127
3, 87936, Note_off_c, 0, 54, 64
3, 87936, Note_off_c, 0, 50, 64
3, 88320, Note_on_c, 0, 50, 127
3, 88320, Note_on_c, 0, 55, 127
3, 88416, Note_off_c, 0, 55, 64
3, 88416, Note_off_c, 0, 50, 64
3, 88800, Note_on_c, 0, 50, 127
3, 88800, Note_on_c, 0, 55, 127
3, 88896, Note_off_c, 0, 55, 64
3, 88896, Note_off_c, 0, 50, 64
3, 89280, Note_on_c, 0, 55, 127
3, 89280, Note_on_c, 0, 50, 127
3, 89376, Note_off_c, 0, 50, 64
3, 89376, Note_off_c, 0, 55, 64
3, 89760, Note_on_c, 0, 50, 127
3, 89760, Note_on_c, 0, 55, 127
3, 89856, Note_off_c, 0, 55, 64
3, 89856, Note_off_c, 0, 50, 64
3, 90240, Note_on_c, 0, 55, 127
3, 90240, Note_on_c, 0, 49, 127
3, 90336, Note_off_c, 0, 49, 64
3, 90336, Note_off_c, 0, 55, 64
3, 90720, Note_on_c, 0, 49, 127
3, 90720, Note_on_c, 0, 55, 127
3, 90816, Note_off_c, 0, 55, 64
3, 90816, Note_off_c, 0, 49, 64
3, 91200, Note_on_c, 0, 55, 127
3, 91200, Note_on_c, 0, 50, 127
3, 91296, Note_off_c, 0, 50, 64
3, 91296, Note_off_c, 0, 55, 64
3, 92160, Note_on_c, 0, 57, 127
3, 92256, Note_off_c, 0, 57, 64
3, 92280, Note_on_c, 0, 62, 127
3, 92376, Note_off_c, 0, 62, 64
3, 92400, Note_on_c, 0, 62, 127
3, 92496, Note_off_c, 0, 62, 64
3, 92520, Note_on_c, 0, 62, 127
3, 92520, Note_on_c, 0, 55, 127
3, 92616, Note_off_c, 0, 55, 64
3, 92616, Note_off_c, 0, 62, 64
3, 92640, Note_on_c, 0, 57, 127
3, 92640, Note_on_c, 0, 62, 127
3, 92736, Note_off_c, 0, 62, 64
3, 92736, Note_off_c, 0, 57, 64
3, 92760, Note_on_c, 0, 60, 127
3, 92808, Note_off_c, 0, 60, 64
3, 92820, Note_on_c, 0, 58, 127
3, 92868, Note_off_c, 0, 58, 64
3, 92880, Note_on_c, 0, 60, 127
3, 92976, Note_off_c, 0, 60, 64
3, 93000, Note_on_c, 0, 57, 127
3, 93000, Note_on_c, 0, 54, 127
3, 93096, Note_off_c, 0, 54, 64
3, 93096, Note_off_c, 0, 57, 64
3, 93120, Note_on_c, 0, 55, 127
3, 93120, Note_on_c, 0, 58, 127
3, 93216, Note_off_c, 0, 58, 64
3, 93216, Note_off_c, 0, 55, 64
3, 93480, Note_on_c, 0, 58, 127
3, 93480, Note_on_c, 0, 62, 127
3, 93576, Note_off_c, 0, 62, 64
3, 93576, Note_off_c, 0, 58, 64
3, 93600, Note_on_c, 0, 57, 127
3, 93600, Note_on_c, 0, 62, 127
3, 93696, Note_off_c, 0, 62, 64
3, 93696, Note_off_c, 0, 57, 64
3, 93960, Note_on_c, 0, 62, 127
3, 93960, Note_on_c, 0, 57, 127
3, 94056, Note_off_c, 0, 57, 64
3, 94056, Note_off_c, 0, 62, 64
3, 94080, Note_on_c, 0, 62, 127
3, 94080, Note_on_c, 0, 55, 127
3, 94176, Note_off_c, 0, 55, 64
3, 94176, Note_off_c, 0, 62, 64
3, 94440, Note_on_c, 0, 58, 127
3, 94488, Note_off_c, 0, 58, 64
3, 94500, Note_on_c, 0, 57, 127
3, 94548, Note_off_c, 0, 57, 64
3, 94560, Note_on_c, 0, 55, 127
3, 94608, Note_off_c, 0, 55, 64
3, 94620, Note_on_c, 0, 53, 127
3, 94668, Note_off_c, 0, 53, 64
3, 94680, Note_on_c, 0, 52, 127
3, 94776, Note_off_c, 0, 52, 64
3, 94800, Note_on_c, 0, 50, 127
3, 94992, Note_off_c, 0, 50, 64
3, 95040, Note_on_c, 0, 55, 127
3, 95136, Note_off_c, 0, 55, 64
3, 95520, Note_on_c, 0, 55, 127
3, 95616, Note_off_c, 0, 55, 64
3, 95640, Note_on_c, 0, 53, 127
3, 95688, Note_off_c, 0, 53, 64
3, 95700, Note_on_c, 0, 52, 127
3, 95748, Note_off_c, 0, 52, 64
3, 95760, Note_on_c, 0, 53, 127
3, 95856, Note_off_c, 0, 53, 64
3, 95880, Note_on_c, 0, 50, 127
3, 95880, Note_on_c, 0, 59, 127
3, 95976, Note_off_c, 0, 59, 64
3, 95976, Note_off_c, 0, 50, 64
3, 96000, Note_on_c, 0, 52, 127
3, 96000, Note_on_c, 0, 60, 127
3, 96096, Note_off_c, 0, 60, 64
3, 96096, Note_off_c, 0, 52, 64
3, 96120, Note_on_c, 0, 60, 127
3, 96216, Note_off_c, 0, 60, 64
3, 96240, Note_on_c, 0, 60, 127
3, 96240, Note_on_c, 0, 48, 127
3, 96336, Note_off_c, 0, 48, 64
3, 96336, Note_off_c, 0, 60, 64
3, 96360, Note_on_c, 0, 60, 127
3, 96456, Note_off_c, 0, 60, 64
3, 96480, Note_on_c, 0, 50, 127
3, 96480, Note_on_c, 0, 60, 127
3, 96576, Note_off_c, 0, 60, 64
3, 96576, Note_off_c, 0, 50, 64
3, 96600, Note_on_c, 0, 58, 127
3, 96648, Note_off_c, 0, 58, 64
3, 96660, Note_on_c, 0, 57, 127
3, 96708, Note_off_c, 0, 57, 64
3, 96720, Note_on_c, 0, 55, 127
3, 96816, Note_off_c, 0, 55, 64
3, 96840, Note_on_c, 0, 60, 127
3, 96840, Note_on_c, 0, 52, 127
3, 96936, Note_off_c, 0, 52, 64
3, 96936, Note_off_c, 0, 60, 64
3, 96960, Note_on_c, 0, 53, 127
3, 96960, Note_on_c, 0, 57, 127
3, 97056, Note_off_c, 0, 57, 64
3, 97080, Note_on_c, 0, 57, 127
3, 97128, Note_off_c, 0, 57, 64
3, 97140, Note_on_c, 0, 55, 127
3, 97152, Note_off_c, 0, 53, 64
3, 97188, Note_off_c, 0, 55, 64
3, 97200, Note_on_c, 0, 57, 127
3, 97200, Note_on_c, 0, 53, 127
3, 97296, Note_off_c, 0, 53, 64
3, 97296, Note_off_c, 0, 57, 64
3, 97320, Note_on_c, 0, 57, 127
3, 97416, Note_off_c, 0, 57, 64
3, 97440, Note_on_c, 0, 57, 127
3, 97440, Note_on_c, 0, 50, 127
3, 97536, Note_off_c, 0, 50, 64
3, 97536, Note_off_c, 0, 57, 64
3, 97560, Note_on_c, 0, 55, 127
3, 97608, Note_off_c, 0, 55, 64
3, 97620, Note_on_c, 0, 53, 127
3, 97668, Note_off_c, 0, 53, 64
3, 97680, Note_on_c, 0, 55, 127
3, 97776, Note_off_c, 0, 55, 64
3, 97800, Note_on_c, 0, 55, 127
3, 97800, Note_on_c, 0, 60, 127
3, 97896, Note_off_c, 0, 60, 64
3, 97896, Note_off_c, 0, 55, 64
3, 97920, Note_on_c, 0, 57, 127
3, 97920, Note_on_c, 0, 60, 127
3, 98016, Note_off_c, 0, 60, 64
3, 98016, Note_off_c, 0, 57, 64
3, 98280, Note_on_c, 0, 60, 127
3, 98280, Note_on_c, 0, 53, 127
3, 98280, Note_on_c, 0, 57, 127
3, 98376, Note_off_c, 0, 57, 64
3, 98376, Note_off_c, 0, 53, 64
3, 98376, Note_off_c, 0, 60, 64
3, 98400, Note_on_c, 0, 53, 127
3, 98400, Note_on_c, 0, 62, 127
3, 98496, Note_off_c, 0, 62, 64
3, 98496, Note_off_c, 0, 53, 64
3, 98520, Note_on_c, 0, 55, 127
3, 98520, Note_on_c, 0, 64, 127
3, 98616, Note_off_c, 0, 64, 64
3, 98616, Note_off_c, 0, 55, 64
3, 98880, Note_on_c, 0, 62, 127
3, 98880, Note_on_c, 0, 55, 127
3, 98976, Note_off_c, 0, 55, 64
3, 98976, Note_off_c, 0, 62, 64
3, 99240, Note_on_c, 0, 62, 127
3, 99240, Note_on_c, 0, 58, 127
3, 99240, Note_on_c, 0, 55, 127
3, 99336, Note_off_c, 0, 55, 64
3, 99336, Note_off_c, 0, 58, 64
3, 99336, Note_off_c, 0, 62, 64
3, 99360, Note_on_c, 0, 64, 127
3, 99360, Note_on_c, 0, 55, 127
3, 99456, Note_off_c, 0, 55, 64
3, 99456, Note_off_c, 0, 64, 64
3, 99480, Note_on_c, 0, 65, 127
3, 99480, Note_on_c, 0, 57, 127
3, 99576, Note_off_c, 0, 57, 64
3, 99576, Note_off_c, 0, 65, 64
3, 99600, Note_on_c, 0, 62, 127
3, 99696, Note_off_c, 0, 62, 64
3, 99840, Note_on_c, 0, 60, 127
3, 99936, Note_off_c, 0, 60, 64
3, 100080, Note_on_c, 0, 58, 127
3, 100176, Note_off_c, 0, 58, 64
3, 100320, Note_on_c, 0, 57, 127
3, 100416, Note_off_c, 0, 57, 64
3, 100560, Note_on_c, 0, 55, 127
3, 100656, Note_off_c, 0, 55, 64
3, 100680, Note_on_c, 0, 48, 127
3, 100776, Note_off_c, 0, 48, 64
3, 100800, Note_on_c, 0, 53, 127
3, 100848, Note_off_c, 0, 53, 64
3, 100860, Note_on_c, 0, 55, 127
3, 100908, Note_off_c, 0, 55, 64
3, 100920, Note_on_c, 0, 57, 127
3, 100968, Note_off_c, 0, 57, 64
3, 100980, Note_on_c, 0, 55, 127
3, 101028, Note_off_c, 0, 55, 64
3, 101040, Note_on_c, 0, 53, 127
3, 101088, Note_off_c, 0, 53, 64
3, 101100, Note_on_c, 0, 52, 127
3, 101148, Note_off_c, 0, 52, 64
3, 101160, Note_on_c, 0, 50, 127
3, 101208, Note_off_c, 0, 50, 64
3, 101220, Note_on_c, 0, 48, 127
3, 101268, Note_off_c, 0, 48, 64
3, 101280, Note_on_c, 0, 50, 127
3, 101472, Note_off_c, 0, 50, 64
3, 101520, Note_on_c, 0, 52, 127
3, 101616, Note_off_c, 0, 52, 64
3, 101640, Note_on_c, 0, 53, 127
3, 101736, Note_off_c, 0, 53, 64
3, 101760, Note_on_c, 0, 48, 127
3, 101760, Note_on_c, 0, 55, 127
3, 101856, Note_off_c, 0, 55, 64
3, 101856, Note_off_c, 0, 48, 64
3, 101880, Note_on_c, 0, 53, 127
3, 101880, Note_on_c, 0, 48, 127
3, 101976, Note_off_c, 0, 48, 64
3, 101976, Note_off_c, 0, 53, 64
3, 102000, Note_on_c, 0, 57, 127
3, 102000, Note_on_c, 0, 53, 127
3, 102096, Note_off_c, 0, 53, 64
3, 102096, Note_off_c, 0, 57, 64
3, 102120, Note_on_c, 0, 60, 127
3, 102120, Note_on_c, 0, 57, 127
3, 102216, Note_off_c, 0, 57, 64
3, 102216, Note_off_c, 0, 60, 64
3, 102240, Note_on_c, 0, 57, 127
3, 102240, Note_on_c, 0, 62, 127
3, 102336, Note_off_c, 0, 62, 64
3, 102336, Note_off_c, 0, 57, 64
3, 102360, Note_on_c, 0, 58, 127
3, 102360, Note_on_c, 0, 53, 127
3, 102456, Note_off_c, 0, 53, 64
3, 102456, Note_off_c, 0, 58, 64
3, 102480, Note_on_c, 0, 55, 127
3, 102480, Note_on_c, 0, 60, 127
3, 102576, Note_off_c, 0, 60, 64
3, 102576, Note_off_c, 0, 55, 64
3, 102600, Note_on_c, 0, 57, 127
3, 102600, Note_on_c, 0, 60, 127
3, 102696, Note_off_c, 0, 60, 64
3, 102696, Note_off_c, 0, 57, 64
3, 102720, Note_on_c, 0, 58, 127
3, 102816, Note_off_c, 0, 58, 64
3, 102840, Note_on_c, 0, 57, 127
3, 102936, Note_off_c, 0, 57, 64
3, 102960, Note_on_c, 0, 55, 127
3, 103056, Note_off_c, 0, 55, 64
3, 103080, Note_on_c, 0, 58, 127
3, 103176, Note_off_c, 0, 58, 64
3, 103200, Note_on_c, 0, 57, 127
3, 103296, Note_off_c, 0, 57, 64
3, 103320, Note_on_c, 0, 60, 127
3, 103320, Note_on_c, 0, 53, 127
3, 103416, Note_off_c, 0, 53, 64
3, 103416, Note_off_c, 0, 60, 64
3, 103440, Note_on_c, 0, 55, 127
3, 103440, Note_on_c, 0, 60, 127
3, 103536, Note_off_c, 0, 60, 64
3, 103536, Note_off_c, 0, 55, 64
3, 103560, Note_on_c, 0, 60, 127
3, 103560, Note_on_c, 0, 58, 127
3, 103656, Note_off_c, 0, 58, 64
3, 103656, Note_off_c, 0, 60, 64
3, 103680, Note_on_c, 0, 60, 127
3, 103680, Note_on_c, 0, 57, 127
3, 103776, Note_off_c, 0, 57, 64
3, 103776, Note_off_c, 0, 60, 64
3, 103980, Note_on_c, 0, 57, 127
3, 104028, Note_off_c, 0, 57, 64
3, 104040, Note_on_c, 0, 55, 127
3, 104088, Note_off_c, 0, 55, 64
3, 104100, Note_on_c, 0, 57, 127
3, 104148, Note_off_c, 0, 57, 64
3, 104160, Note_on_c, 0, 53, 127
3, 104256, Note_off_c, 0, 53, 64
3, 104280, Note_on_c, 0, 52, 127
3, 104376, Note_off_c, 0, 52, 64
3, 104400, Note_on_c, 0, 50, 127
3, 104496, Note_off_c, 0, 50, 64
3, 104520, Note_on_c, 0, 48, 127
3, 104616, Note_off_c, 0, 48, 64
3, 104640, Note_on_c, 0, 53, 127
3, 104736, Note_off_c, 0, 53, 64
3, 104820, Note_on_c, 0, 57, 127
3, 104868, Note_off_c, 0, 57, 64
3, 104880, Note_on_c, 0, 62, 127
3, 104928, Note_off_c, 0, 62, 64
3, 104940, Note_on_c, 0, 60, 127
3, 104988, Note_off_c, 0, 60, 64
3, 105000, Note_on_c, 0, 58, 127
3, 105048, Note_off_c, 0, 58, 64
3, 105060, Note_on_c, 0, 57, 127
3, 105108, Note_off_c, 0, 57, 64
3, 105120, Note_on_c, 0, 55, 127
3, 105216, Note_off_c, 0, 55, 64
3, 105240, Note_on_c, 0, 53, 127
3, 105336, Note_off_c, 0, 53, 64
3, 105360, Note_on_c, 0, 52, 127
3, 105456, Note_off_c, 0, 52, 64
3, 105480, Note_on_c, 0, 50, 127
3, 105576, Note_off_c, 0, 50, 64
3, 105600, Note_on_c, 0, 57, 127
3, 105600, Note_on_c, 0, 48, 127
3, 105696, Note_off_c, 0, 48, 64
3, 105696, Note_off_c, 0, 57, 64
3, 105960, Note_on_c, 0, 57, 127
3, 105960, Note_on_c, 0, 50, 127
3, 106056, Note_off_c, 0, 50, 64
3, 106056, Note_off_c, 0, 57, 64
3, 106080, Note_on_c, 0, 57, 127
3, 106080, Note_on_c, 0, 45, 127
3, 106176, Note_off_c, 0, 45, 64
3, 106176, Note_off_c, 0, 57, 64
3, 106440, Note_on_c, 0, 46, 127
3, 106440, Note_on_c, 0, 53, 127
3, 106536, Note_off_c, 0, 53, 64
3, 106536, Note_off_c, 0, 46, 64
3, 106560, Note_on_c, 0, 41, 127
3, 106560, Note_on_c, 0, 53, 127
3, 106656, Note_off_c, 0, 53, 64
3, 106656, Note_off_c, 0, 41, 64
3, 106920, Note_on_c, 0, 43, 127
3, 106920, Note_on_c, 0, 50, 127
3, 107016, Note_off_c, 0, 50, 64
3, 107016, Note_off_c, 0, 43, 64
3, 107040, Note_on_c, 0, 38, 127
3, 107040, Note_on_c, 0, 50, 127
3, 107136, Note_off_c, 0, 50, 64
3, 107136, Note_off_c, 0, 38, 64
3, 107160, Note_on_c, 0, 50, 127
3, 107256, Note_off_c, 0, 50, 64
3, 107280, Note_on_c, 0, 50, 127
3, 107280, Note_on_c, 0, 43, 127
3, 107376, Note_off_c, 0, 43, 64
3, 107376, Note_off_c, 0, 50, 64
3, 107400, Note_on_c, 0, 52, 127
3, 107520, Note_on_c, 0, 45, 127
3, 107616, Note_off_c, 0, 45, 64
3, 107616, Note_off_c, 0, 52, 64
3, 107640, Note_on_c, 0, 55, 127
3, 107736, Note_off_c, 0, 55, 64
3, 107760, Note_on_c, 0, 58, 127
3, 107856, Note_off_c, 0, 58, 64
3, 107880, Note_on_c, 0, 61, 127
3, 107976, Note_off_c, 0, 61, 64
3, 108000, Note_on_c, 0, 64, 127
3, 108096, Note_off_c, 0, 64, 64
3, 108120, Note_on_c, 0, 67, 127
3, 108216, Note_off_c, 0, 67, 64
3, 108240, Note_on_c, 0, 61, 127
3, 108336, Note_off_c, 0, 61, 64
3, 108360, Note_on_c, 0, 64, 127
3, 108456, Note_off_c, 0, 64, 64
3, 108480, Note_on_c, 0, 52, 127
3, 108480, Note_on_c, 0, 57, 127
3, 108576, Note_off_c, 0, 57, 64
3, 108576, Note_off_c, 0, 52, 64
3, 108600, Note_on_c, 0, 64, 127
3, 108696, Note_off_c, 0, 64, 64
3, 108720, Note_on_c, 0, 57, 127
3, 108816, Note_off_c, 0, 57, 64
3, 108840, Note_on_c, 0, 61, 127
3, 108936, Note_off_c, 0, 61, 64
3, 108960, Note_on_c, 0, 57, 127
3, 108960, Note_on_c, 0, 52, 127
3, 109056, Note_off_c, 0, 52, 64
3, 109056, Note_off_c, 0, 57, 64
3, 109080, Note_on_c, 0, 64, 127
3, 109176, Note_off_c, 0, 64, 64
3, 109200, Note_on_c, 0, 57, 127
3, 109296, Note_off_c, 0, 57, 64
3, 109320, Note_on_c, 0, 61, 127
3, 109416, Note_off_c, 0, 61, 64
3, 109440, Note_on_c, 0, 62, 127
3, 109440, Note_on_c, 0, 57, 127
3, 109536, Note_off_c, 0, 57, 64
3, 109536, Note_off_c, 0, 62, 64
3, 109560, Note_on_c, 0, 50, 127
3, 109656, Note_off_c, 0, 50, 64
3, 109680, Note_on_c, 0, 53, 127
3, 109776, Note_off_c, 0, 53, 64
3, 109800, Note_on_c, 0, 57, 127
3, 109896, Note_off_c, 0, 57, 64
3, 109920, Note_on_c, 0, 62, 127
3, 109920, Note_on_c, 0, 57, 127
3, 110016, Note_off_c, 0, 57, 64
3, 110016, Note_off_c, 0, 62, 64
3, 110040, Note_on_c, 0, 50, 127
3, 110136, Note_off_c, 0, 50, 64
3, 110160, Note_on_c, 0, 53, 127
3, 110256, Note_off_c, 0, 53, 64
3, 110280, Note_on_c, 0, 57, 127
3, 110376, Note_off_c, 0, 57, 64
3, 110400, Note_on_c, 0, 61, 127
3, 110400, Note_on_c, 0, 57, 127
3, 110496, Note_off_c, 0, 57, 64
3, 110496, Note_off_c, 0, 61, 64
3, 110520, Note_on_c, 0, 64, 127
3, 110616, Note_off_c, 0, 64, 64
3, 110640, Note_on_c, 0, 67, 127
3, 110736, Note_off_c, 0, 67, 64
3, 110760, Note_on_c, 0, 64, 127
3, 110856, Note_off_c, 0, 64, 64
3, 110880, Note_on_c, 0, 57, 127
3, 110880, Note_on_c, 0, 61, 127
3, 110976, Note_off_c, 0, 61, 64
3, 110976, Note_off_c, 0, 57, 64
3, 111000, Note_on_c, 0, 64, 127
3, 111096, Note_off_c, 0, 64, 64
3, 111120, Note_on_c, 0, 57, 127
3, 111216, Note_off_c, 0, 57, 64
3, 111240, Note_on_c, 0, 61, 127
3, 111336, Note_off_c, 0, 61, 64
3, 111360, Note_on_c, 0, 57, 127
3, 111360, Note_on_c, 0, 62, 127
3, 111456, Note_off_c, 0, 62, 64
3, 111456, Note_off_c, 0, 57, 64
3, 111480, Note_on_c, 0, 65, 127
3, 111576, Note_off_c, 0, 65, 64
3, 111600, Note_on_c, 0, 62, 127
3, 111696, Note_off_c, 0, 62, 64
3, 111720, Note_on_c, 0, 57, 127
3, 111816, Note_off_c, 0, 57, 64
3, 111840, Note_on_c, 0, 62, 127
3, 111840, Note_on_c, 0, 57, 127
3, 111936, Note_off_c, 0, 57, 64
3, 111936, Note_off_c, 0, 62, 64
3, 111960, Note_on_c, 0, 65, 127
3, 112056, Note_off_c, 0, 65, 64
3, 112080, Note_on_c, 0, 62, 127
3, 112176, Note_off_c, 0, 62, 64
3, 112200, Note_on_c, 0, 57, 127
3, 112296, Note_off_c, 0, 57, 64
3, 112320, Note_on_c, 0, 53, 127
3, 112320, Note_on_c, 0, 59, 127
3, 112416, Note_off_c, 0, 59, 64
3, 112416, Note_off_c, 0, 53, 64
3, 112440, Note_on_c, 0, 62, 127
3, 112536, Note_off_c, 0, 62, 64
3, 112560, Note_on_c, 0, 65, 127
3, 112656, Note_off_c, 0, 65, 64
3, 112680, Note_on_c, 0, 62, 127
3, 112776, Note_off_c, 0, 62, 64
3, 112800, Note_on_c, 0, 59, 127
3, 112800, Note_on_c, 0, 53, 127
3, 112896, Note_off_c, 0, 53, 64
3, 112896, Note_off_c, 0, 59, 64
3, 112920, Note_on_c, 0, 62, 127
3, 113016, Note_off_c, 0, 62, 64
3, 113040, Note_on_c, 0, 65, 127
3, 113136, Note_off_c, 0, 65, 64
3, 113160, Note_on_c, 0, 56, 127
3, 113256, Note_off_c, 0, 56, 64
3, 113280, Note_on_c, 0, 57, 127
3, 113280, Note_on_c, 0, 52, 127
3, 113376, Note_off_c, 0, 52, 64
3, 113376, Note_off_c, 0, 57, 64
3, 113640, Note_on_c, 0, 62, 127
3, 113640, Note_on_c, 0, 57, 127
3, 113736, Note_off_c, 0, 57, 64
3, 113736, Note_off_c, 0, 62, 64
3, 113760, Note_on_c, 0, 62, 127
3, 113760, Note_on_c, 0, 58, 127
3, 113856, Note_off_c, 0, 58, 64
3, 113856, Note_off_c, 0, 62, 64
3, 114120, Note_on_c, 0, 55, 127
3, 114120, Note_on_c, 0, 64, 127
3, 114216, Note_off_c, 0, 64, 64
3, 114216, Note_off_c, 0, 55, 64
3, 114240, Note_on_c, 0, 64, 127
3, 114240, Note_on_c, 0, 57, 127
3, 114336, Note_off_c, 0, 57, 64
3, 114336, Note_off_c, 0, 64, 64
3, 114360, Note_on_c, 0, 69, 127
3, 114456, Note_off_c, 0, 69, 64
3, 114480, Note_on_c, 0, 69, 127
3, 114576, Note_off_c, 0, 69, 64
3, 114600, Note_on_c, 0, 57, 127
3, 114600, Note_on_c, 0, 67, 127
3, 114648, Note_off_c, 0, 67, 64
3, 114660, Note_on_c, 0, 65, 127
3, 114696, Note_off_c, 0, 57, 64
3, 114708, Note_off_c, 0, 65, 64
3, 114720, Note_on_c, 0, 67, 127
3, 114720, Note_on_c, 0, 62, 127
3, 114816, Note_off_c, 0, 62, 64
3, 114816, Note_off_c, 0, 67, 64
3, 114960, Note_on_c, 0, 59, 127
3, 114960, Note_on_c, 0, 62, 127
3, 115056, Note_off_c, 0, 62, 64
3, 115056, Note_off_c, 0, 59, 64
3, 115200, Note_on_c, 0, 52, 127
3, 115200, Note_on_c, 0, 64, 127
3, 115296, Note_off_c, 0, 64, 64
3, 115296, Note_off_c, 0, 52, 64
3, 115560, Note_on_c, 0, 53, 127
3, 115560, Note_on_c, 0, 62, 127
3, 115656, Note_off_c, 0, 62, 64
3, 115656, Note_off_c, 0, 53, 64
3, 115680, Note_on_c, 0, 62, 127
3, 115680, Note_on_c, 0, 55, 127
3, 115776, Note_off_c, 0, 55, 64
3, 115776, Note_off_c, 0, 62, 64
3, 116040, Note_on_c, 0, 60, 127
3, 116040, Note_on_c, 0, 55, 127
3, 116136, Note_off_c, 0, 55, 64
3, 116136, Note_off_c, 0, 60, 64
3, 116160, Note_on_c, 0, 60, 127
3, 116160, Note_on_c, 0, 53, 127
3, 116256, Note_off_c, 0, 53, 64
3, 116256, Note_off_c, 0, 60, 64
3, 116520, Note_on_c, 0, 58, 127
3, 116520, Note_on_c, 0, 53, 127
3, 116616, Note_off_c, 0, 53, 64
3, 116616, Note_off_c, 0, 58, 64
3, 116640, Note_on_c, 0, 59, 127
3, 116640, Note_on_c, 0, 52, 127
3, 116736, Note_off_c, 0, 52, 64
3, 116736, Note_off_c, 0, 59, 64
3, 117000, Note_on_c, 0, 57, 127
3, 117000, Note_on_c, 0, 52, 127
3, 117096, Note_off_c, 0, 52, 64
3, 117096, Note_off_c, 0, 57, 64
3, 117120, Note_on_c, 0, 57, 127
3, 117120, Note_on_c, 0, 50, 127
3, 117216, Note_off_c, 0, 50, 64
3, 117216, Note_off_c, 0, 57, 64
3, 117600, Note_on_c, 0, 50, 127
3, 117600, Note_on_c, 0, 55, 127
3, 117696, Note_off_c, 0, 55, 64
3, 117696, Note_off_c, 0, 50, 64
3, 118080, Note_on_c, 0, 46, 127
3, 118080, Note_on_c, 0, 55, 127
3, 118176, Note_off_c, 0, 55, 64
3, 118176, Note_off_c, 0, 46, 64
3, 119040, Note_on_c, 0, 57, 127
3, 119040, Note_on_c, 0, 45, 127
3, 119040, Note_on_c, 0, 50, 127
3, 119136, Note_off_c, 0, 50, 64
3, 119136, Note_off_c, 0, 45, 64
3, 119136, Note_off_c, 0, 57, 64
3, 119280, Note_on_c, 0, 57, 127
3, 119280, Note_on_c, 0, 50, 127
3, 119376, Note_off_c, 0, 50, 64
3, 119376, Note_off_c, 0, 57, 64
3, 119520, Note_on_c, 0, 50, 127
3, 119616, Note_off_c, 0, 50, 64
3, 119760, Note_on_c, 0, 55, 127
3, 119856, Note_off_c, 0, 55, 64
3, 120000, Note_on_c, 0, 52, 127
3, 120096, Note_off_c, 0, 52, 64
3, 120240, Note_on_c, 0, 52, 127
3, 120240, Note_on_c, 0, 61, 127
3, 120336, Note_off_c, 0, 61, 64
3, 120336, Note_off_c, 0, 52, 64
3, 120480, Note_on_c, 0, 53, 127
3, 120480, Note_on_c, 0, 57, 127
3, 120576, Note_off_c, 0, 57, 64
3, 120576, Note_off_c, 0, 53, 64
3, 120720, Note_on_c, 0, 57, 127
3, 120720, Note_on_c, 0, 53, 127
3, 120816, Note_off_c, 0, 53, 64
3, 120816, Note_off_c, 0, 57, 64
3, 120960, Note_on_c, 0, 50, 127
3, 120960, Note_on_c, 0, 59, 127
3, 120960, Note_on_c, 0, 62, 127
3, 120960, Note_on_c, 0, 53, 127
3, 121056, Note_off_c, 0, 53, 64
3, 121056, Note_off_c, 0, 62, 64
3, 121056, Note_off_c, 0, 59, 64
3, 121056, Note_off_c, 0, 50, 64
3, 121320, Note_on_c, 0, 55, 127
3, 121320, Note_on_c, 0, 62, 127
3, 121416, Note_off_c, 0, 62, 64
3, 121416, Note_off_c, 0, 55, 64
3, 121440, Note_on_c, 0, 64, 127
3, 121440, Note_on_c, 0, 55, 127
3, 121536, Note_off_c, 0, 55, 64
3, 121560, Note_on_c, 0, 57, 127
3, 121608, Note_off_c, 0, 57, 64
3, 121620, Note_on_c, 0, 55, 127
3, 121632, Note_off_c, 0, 64, 64
3, 121668, Note_off_c, 0, 55, 64
3, 121680, Note_on_c, 0, 65, 127
3, 121680, Note_on_c, 0, 53, 127
3, 121728, Note_off_c, 0, 53, 64
3, 121740, Note_on_c, 0, 52, 127
3, 121788, Note_off_c, 0, 52, 64
3, 121800, Note_on_c, 0, 53, 127
3, 121848, Note_off_c, 0, 53, 64
3, 121860, Note_on_c, 0, 50, 127
3, 121872, Note_off_c, 0, 65, 64
3, 121908, Note_off_c, 0, 50, 64
3, 121920, Note_on_c, 0, 57, 127
3, 121920, Note_on_c, 0, 64, 127
3, 122304, Note_off_c, 0, 64, 64
3, 122400, Note_on_c, 0, 62, 127
3, 122496, Note_off_c, 0, 57, 64
3, 122520, Note_on_c, 0, 50, 127
3, 122616, Note_off_c, 0, 50, 64
3, 122640, Note_on_c, 0, 55, 127
3, 122784, Note_off_c, 0, 62, 64
3, 122880, Note_on_c, 0, 60, 127
3, 122976, Note_off_c, 0, 55, 64
3, 123000, Note_on_c, 0, 48, 127
3, 123096, Note_off_c, 0, 48, 64
3, 123120, Note_on_c, 0, 53, 127
3, 123168, Note_off_c, 0, 60, 64
3, 123216, Note_off_c, 0, 53, 64
3, 123240, Note_on_c, 0, 57, 127
3, 123240, Note_on_c, 0, 60, 127
3, 123336, Note_off_c, 0, 60, 64
3, 123336, Note_off_c, 0, 57, 64
3, 123360, Note_on_c, 0, 62, 127
3, 123360, Note_on_c, 0, 57, 127
3, 123456, Note_off_c, 0, 57, 64
3, 123456, Note_off_c, 0, 62, 64
3, 123720, Note_on_c, 0, 55, 127
3, 123720, Note_on_c, 0, 62, 127
3, 123816, Note_off_c, 0, 62, 64
3, 123816, Note_off_c, 0, 55, 64
3, 123840, Note_on_c, 0, 52, 127
3, 123840, Note_on_c, 0, 64, 127
3, 123840, Note_on_c, 0, 57, 127
3, 123936, Note_off_c, 0, 57, 64
3, 123936, Note_off_c, 0, 64, 64
3, 123936, Note_off_c, 0, 52, 64
3, 124200, Note_on_c, 0, 55, 127
3, 124200, Note_on_c, 0, 57, 127
3, 124200, Note_on_c, 0, 52, 127
3, 124296, Note_off_c, 0, 52, 64
3, 124296, Note_off_c, 0, 57, 64
3, 124296, Note_off_c, 0, 55, 64
3, 124320, Note_on_c, 0, 50, 127
3, 124320, Note_on_c, 0, 53, 127
3, 124320, Note_on_c, 0, 57, 127
3, 124416, Note_off_c, 0, 57, 64
3, 124416, Note_off_c, 0, 53, 64
3, 124416, Note_off_c, 0, 50, 64
3, 124680, Note_on_c, 0, 57, 127
3, 124680, Note_on_c, 0, 52, 127
3, 124776, Note_off_c, 0, 52, 64
3, 124776, Note_off_c, 0, 57, 64
3, 124800, Note_on_c, 0, 55, 127
3, 124800, Note_on_c, 0, 52, 127
3, 124896, Note_off_c, 0, 52, 64
3, 124896, Note_off_c, 0, 55, 64
3, 124920, Note_on_c, 0, 57, 127
3, 124920, Note_on_c, 0, 50, 127
3, 125016, Note_off_c, 0, 50, 64
3, 125016, Note_off_c, 0, 57, 64
3, 125040, Note_on_c, 0, 57, 127
3, 125040, Note_on_c, 0, 50, 127
3, 125136, Note_off_c, 0, 50, 64
3, 125136, Note_off_c, 0, 57, 64
3, 125160, Note_on_c, 0, 47, 127
3, 125160, Note_on_c, 0, 59, 127
3, 125256, Note_off_c, 0, 59, 64
3, 125256, Note_off_c, 0, 47, 64
3, 125280, Note_on_c, 0, 57, 127
3, 125280, Note_on_c, 0, 53, 127
3, 125376, Note_off_c, 0, 53, 64
3, 125400, Note_on_c, 0, 50, 127
3, 125496, Note_off_c, 0, 50, 64
3, 125520, Note_on_c, 0, 45, 127
3, 125616, Note_off_c, 0, 45, 64
3, 125640, Note_on_c, 0, 55, 127
3, 125736, Note_off_c, 0, 55, 64
3, 125856, Note_off_c, 0, 53, 64
3, 125856, Note_off_c, 0, 57, 64
3, 126000, Note_on_c, 0, 53, 127
3, 126000, Note_on_c, 0, 57, 127
3, 126096, Note_off_c, 0, 57, 64
3, 126096, Note_off_c, 0, 53, 64
3, 126240, Note_on_c, 0, 52, 127
3, 126240, Note_on_c, 0, 55, 127
3, 126336, Note_off_c, 0, 55, 64
3, 126336, Note_off_c, 0, 52, 64
3, 126480, Note_on_c, 0, 57, 127
3, 126480, Note_on_c, 0, 54, 127
3, 126576, Note_off_c, 0, 54, 64
3, 126576, Note_off_c, 0, 57, 64
3, 126720, Note_on_c, 0, 58, 80
3, 126720, Note_on_c, 0, 55, 80
3, 126816, Note_off_c, 0, 55, 64
3, 126816, Note_off_c, 0, 58, 64
3, 126960, Note_on_c, 0, 62, 127
3, 126960, Note_on_c, 0, 53, 127
3, 127056, Note_off_c, 0, 53, 64
3, 127056, Note_off_c, 0, 62, 64
3, 127200, Note_on_c, 0, 52, 127
3, 127200, Note_on_c, 0, 55, 127
3, 127296, Note_off_c, 0, 55, 64
3, 127296, Note_off_c, 0, 52, 64
3, 127440, Note_on_c, 0, 62, 127
3, 127440, Note_on_c, 0, 53, 127
3, 127536, Note_off_c, 0, 53, 64
3, 127536, Note_off_c, 0, 62, 64
3, 127680, Note_on_c, 0, 58, 127
3, 127776, Note_off_c, 0, 58, 64
3, 127776, Note_off_c, 0, 55, 64
3, 127920, Note_on_c, 0, 53, 127
3, 127920, Note_on_c, 0, 62, 127
3, 128016, Note_off_c, 0, 62, 64
3, 128016, Note_off_c, 0, 53, 64
3, 128160, Note_on_c, 0, 52, 127
3, 128208, Note_off_c, 0, 52, 64
3, 128220, Note_on_c, 0, 55, 127
3, 128268, Note_off_c, 0, 55, 64
3, 128280, Note_on_c, 0, 61, 127
3, 128328, Note_off_c, 0, 61, 64
3, 128340, Note_on_c, 0, 64, 127
3, 128388, Note_off_c, 0, 64, 64
3, 128640, Note_on_c, 0, 53, 127
3, 128688, Note_off_c, 0, 53, 64
3, 128700, Note_on_c, 0, 57, 127
3, 128748, Note_off_c, 0, 57, 64
3, 128760, Note_on_c, 0, 62, 127
3, 128808, Note_off_c, 0, 62, 64
3, 128820, Note_on_c, 0, 65, 127
3, 128868, Note_off_c, 0, 65, 64
3, 129120, Note_on_c, 0, 55, 127
3, 129168, Note_off_c, 0, 55, 64
3, 129180, Note_on_c, 0, 58, 127
3, 129228, Note_off_c, 0, 58, 64
3, 129240, Note_on_c, 0, 62, 127
3, 129288, Note_off_c, 0, 62, 64
3, 129300, Note_on_c, 0, 67, 127
3, 129348, Note_off_c, 0, 67, 64
3, 129600, Note_on_c, 0, 57, 127
3, 129696, Note_off_c, 0, 57, 64
3, 129720, Note_on_c, 0, 45, 127
3, 129816, Note_off_c, 0, 45, 64
3, 129840, Note_on_c, 0, 47, 127
3, 129936, Note_off_c, 0, 47, 64
3, 129960, Note_on_c, 0, 49, 127
3, 130056, Note_off_c, 0, 49, 64
3, 130080, Note_on_c, 0, 50, 127
3, 130176, Note_off_c, 0, 50, 64
3, 130200, Note_on_c, 0, 53, 127
3, 130296, Note_off_c, 0, 53, 64
3, 130320, Note_on_c, 0, 55, 127
3, 130416, Note_off_c, 0, 55, 64
3, 130440, Note_on_c, 0, 57, 127
3, 130536, Note_off_c, 0, 57, 64
3, 130560, Note_on_c, 0, 58, 127
3, 130656, Note_off_c, 0, 58, 64
3, 130680, Note_on_c, 0, 55, 127
3, 130776, Note_off_c, 0, 55, 64
3, 130800, Note_on_c, 0, 52, 127
3, 130896, Note_off_c, 0, 52, 64
3, 130920, Note_on_c, 0, 54, 127
3, 131016, Note_off_c, 0, 54, 64
3, 131040, Note_on_c, 0, 55, 127
3, 131136, Note_off_c, 0, 55, 64
3, 131160, Note_on_c, 0, 52, 127
3, 131256, Note_off_c, 0, 52, 64
3, 131280, Note_on_c, 0, 49, 127
3, 131376, Note_off_c, 0, 49, 64
3, 131400, Note_on_c, 0, 52, 127
3, 131496, Note_off_c, 0, 52, 64
3, 131520, Note_on_c, 0, 52, 127
3, 131520, Note_on_c, 0, 57, 127
3, 131745, Note_off_c, 0, 57, 64
3, 131745, Note_off_c, 0, 52, 64
3, 132240, Note_on_c, 0, 57, 127
3, 132336, Note_off_c, 0, 57, 64
3, 132360, Note_on_c, 0, 62, 127
3, 132360, Note_on_c, 0, 59, 127
3, 132456, Note_off_c, 0, 59, 64
3, 132456, Note_off_c, 0, 62, 64
3, 132480, Note_on_c, 0, 57, 127
3, 132480, Note_on_c, 0, 52, 127
3, 132576, Note_off_c, 0, 52, 64
3, 132600, Note_on_c, 0, 53, 127
3, 132696, Note_off_c, 0, 53, 64
3, 132720, Note_on_c, 0, 55, 127
3, 133056, Note_off_c, 0, 55, 64
3, 133080, Note_on_c, 0, 54, 127
3, 133128, Note_off_c, 0, 54, 64
3, 133140, Note_on_c, 0, 52, 127
3, 133188, Note_off_c, 0, 52, 64
3, 133200, Note_on_c, 0, 54, 127
3, 133344, Note_off_c, 0, 57, 64
3, 133392, Note_off_c, 0, 54, 64
3, 133392, End_track
4, 0, Start_track
4, 0, Title_t, "Midi by Gary Bricault"
4, 0, Program_c, 0, 0
4, 45720, Note_on_c, 0, 57, 127
4, 45816, Note_off_c, 0, 57, 64
4, 45840, Note_on_c, 0, 57, 127
4, 45936, Note_off_c, 0, 57, 64
4, 45960, Note_on_c, 0, 57, 127
4, 46056, Note_off_c, 0, 57, 64
4, 46080, Note_on_c, 0, 57, 127
4, 46176, Note_off_c, 0, 57, 64
4, 46200, Note_on_c, 0, 55, 127
4, 46248, Note_off_c, 0, 55, 64
4, 46260, Note_on_c, 0, 53, 127
4, 46308, Note_off_c, 0, 53, 64
4, 46320, Note_on_c, 0, 55, 127
4, 46416, Note_off_c, 0, 55, 64
4, 46440, Note_on_c, 0, 52, 127
4, 46536, Note_off_c, 0, 52, 64
4, 46560, Note_on_c, 0, 53, 127
4, 46656, Note_off_c, 0, 53, 64
4, 46800, Note_on_c, 0, 50, 127
4, 46896, Note_off_c, 0, 50, 64
4, 47040, Note_on_c, 0, 55, 127
4, 47136, Note_off_c, 0, 55, 64
4, 47280, Note_on_c, 0, 43, 127
4, 47376, Note_off_c, 0, 43, 64
4, 47520, Note_on_c, 0, 45, 127
4, 47616, Note_off_c, 0, 45, 64
4, 48000, Note_on_c, 0, 45, 127
4, 48096, Note_off_c, 0, 45, 64
4, 48480, Note_on_c, 0, 50, 127
4, 48576, Note_off_c, 0, 50, 64
4, 48720, Note_on_c, 0, 38, 127
4, 48816, Note_off_c, 0, 38, 64
4, 48960, Note_on_c, 0, 43, 127
4, 49056, Note_off_c, 0, 43, 64
4, 49440, Note_on_c, 0, 48, 127
4, 49536, Note_off_c, 0, 48, 64
4, 49680, Note_on_c, 0, 36, 127
4, 49776, Note_off_c, 0, 36, 64
4, 49920, Note_on_c, 0, 41, 127
4, 50016, Note_off_c, 0, 41, 64
4, 50280, Note_on_c, 0, 41, 127
4, 50376, Note_off_c, 0, 41, 64
4, 50400, Note_on_c, 0, 43, 127
4, 50496, Note_off_c, 0, 43, 64
4, 50760, Note_on_c, 0, 43, 127
4, 50856, Note_off_c, 0, 43, 64
4, 50880, Note_on_c, 0, 45, 127
4, 50976, Note_off_c, 0, 45, 64
4, 51240, Note_on_c, 0, 49, 127
4, 51336, Note_off_c, 0, 49, 64
4, 51360, Note_on_c, 0, 50, 127
4, 51456, Note_off_c, 0, 50, 64
4, 51480, Note_on_c, 0, 48, 80
4, 51600, Note_off_c, 0, 48, 64
4, 51600, Note_on_c, 0, 46, 127
4, 51825, Note_off_c, 0, 46, 64
4, 51840, Note_on_c, 0, 45, 127
4, 52065, Note_off_c, 0, 45, 64
4, 52200, Note_on_c, 0, 50, 127
4, 52296, Note_off_c, 0, 50, 64
4, 52320, Note_on_c, 0, 46, 127
4, 52545, Note_off_c, 0, 46, 64
4, 52680, Note_on_c, 0, 48, 127
4, 52776, Note_off_c, 0, 48, 64
4, 52800, Note_on_c, 0, 45, 127
4, 52992, Note_off_c, 0, 45, 64
4, 53040, Note_on_c, 0, 46, 127
4, 53136, Note_off_c, 0, 46, 64
4, 53160, Note_on_c, 0, 45, 127
4, 53256, Note_off_c, 0, 45, 64
4, 53280, Note_on_c, 0, 43, 127
4, 53952, Note_off_c, 0, 43, 64
4, 54000, Note_on_c, 0, 41, 127
4, 54096, Note_off_c, 0, 41, 64
4, 54120, Note_on_c, 0, 43, 127
4, 54216, Note_off_c, 0, 43, 64
4, 54240, Note_on_c, 0, 45, 127
4, 54624, Note_off_c, 0, 45, 64
4, 54720, Note_on_c, 0, 38, 127
4, 54816, Note_off_c, 0, 38, 64
4, 54960, Note_on_c, 0, 50, 127
4, 55056, Note_off_c, 0, 50, 64
4, 55200, Note_on_c, 0, 49, 127
4, 55296, Note_off_c, 0, 49, 64
4, 55440, Note_on_c, 0, 45, 127
4, 55536, Note_off_c, 0, 45, 64
4, 55680, Note_on_c, 0, 50, 127
4, 55776, Note_off_c, 0, 50, 64
4, 55920, Note_on_c, 0, 55, 127
4, 56016, Note_off_c, 0, 55, 64
4, 56160, Note_on_c, 0, 57, 127
4, 56256, Note_off_c, 0, 57, 64
4, 56400, Note_on_c, 0, 54, 127
4, 56496, Note_off_c, 0, 54, 64
4, 56640, Note_on_c, 0, 55, 127
4, 56736, Note_off_c, 0, 55, 64
4, 56880, Note_on_c, 0, 52, 127
4, 56976, Note_off_c, 0, 52, 64
4, 57120, Note_on_c, 0, 49, 127
4, 57216, Note_off_c, 0, 49, 64
4, 57360, Note_on_c, 0, 50, 127
4, 57456, Note_off_c, 0, 50, 64
4, 57600, Note_on_c, 0, 45, 127
4, 57696, Note_off_c, 0, 45, 64
4, 57840, Note_on_c, 0, 48, 127
4, 57936, Note_off_c, 0, 48, 64
4, 58080, Note_on_c, 0, 50, 127
4, 58176, Note_off_c, 0, 50, 64
4, 58560, Note_on_c, 0, 49, 127
4, 58656, Note_off_c, 0, 49, 64
4, 58680, Note_on_c, 0, 45, 127
4, 58776, Note_off_c, 0, 45, 64
4, 58800, Note_on_c, 0, 50, 127
4, 58896, Note_off_c, 0, 50, 64
4, 58920, Note_on_c, 0, 48, 127
4, 59016, Note_off_c, 0, 48, 64
4, 59040, Note_on_c, 0, 47, 127
4, 59136, Note_off_c, 0, 47, 64
4, 59160, Note_on_c, 0, 48, 127
4, 59208, Note_off_c, 0, 48, 64
4, 59220, Note_on_c, 0, 47, 127
4, 59268, Note_off_c, 0, 47, 64
4, 59280, Note_on_c, 0, 48, 127
4, 59376, Note_off_c, 0, 48, 64
4, 59640, Note_on_c, 0, 55, 127
4, 59688, Note_off_c, 0, 55, 64
4, 59700, Note_on_c, 0, 54, 127
4, 59748, Note_off_c, 0, 54, 64
4, 59760, Note_on_c, 0, 55, 127
4, 59856, Note_off_c, 0, 55, 64
4, 60120, Note_on_c, 0, 50, 127
4, 60168, Note_off_c, 0, 50, 64
4, 60180, Note_on_c, 0, 49, 127
4, 60228, Note_off_c, 0, 49, 64
4, 60240, Note_on_c, 0, 50, 127
4, 60336, Note_off_c, 0, 50, 64
4, 60600, Note_on_c, 0, 57, 127
4, 60648, Note_off_c, 0, 57, 64
4, 60660, Note_on_c, 0, 56, 127
4, 60708, Note_off_c, 0, 56, 64
4, 60720, Note_on_c, 0, 57, 127
4, 60816, Note_off_c, 0, 57, 64
4, 61080, Note_on_c, 0, 52, 127
4, 61176, Note_off_c, 0, 52, 64
4, 61200, Note_on_c, 0, 52, 127
4, 61296, Note_off_c, 0, 52, 64
4, 61320, Note_on_c, 0, 52, 127
4, 61416, Note_off_c, 0, 52, 64
4, 61440, Note_on_c, 0, 52, 127
4, 61536, Note_off_c, 0, 52, 64
4, 61560, Note_on_c, 0, 50, 127
4, 61608, Note_off_c, 0, 50, 64
4, 61620, Note_on_c, 0, 48, 127
4, 61668, Note_off_c, 0, 48, 64
4, 61680, Note_on_c, 0, 50, 127
4, 61776, Note_off_c, 0, 50, 64
4, 61800, Note_on_c, 0, 47, 127
4, 61896, Note_off_c, 0, 47, 64
4, 61920, Note_on_c, 0, 48, 127
4, 62016, Note_off_c, 0, 48, 64
4, 62040, Note_on_c, 0, 45, 127
4, 62136, Note_off_c, 0, 45, 64
4, 62160, Note_on_c, 0, 47, 127
4, 62256, Note_off_c, 0, 47, 64
4, 62280, Note_on_c, 0, 49, 127
4, 62376, Note_off_c, 0, 49, 64
4, 62400, Note_on_c, 0, 50, 127
4, 62496, Note_off_c, 0, 50, 64
4, 62520, Note_on_c, 0, 48, 127
4, 62616, Note_off_c, 0, 48, 64
4, 62640, Note_on_c, 0, 47, 127
4, 62736, Note_off_c, 0, 47, 64
4, 62880, Note_on_c, 0, 52, 127
4, 62976, Note_off_c, 0, 52, 64
4, 63240, Note_on_c, 0, 45, 127
4, 63336, Note_off_c, 0, 45, 64
4, 63360, Note_on_c, 0, 50, 127
4, 63552, Note_off_c, 0, 50, 64
4, 63720, Note_on_c, 0, 52, 127
4, 63816, Note_off_c, 0, 52, 64
4, 63840, Note_on_c, 0, 53, 127
4, 64032, Note_off_c, 0, 53, 64
4, 64200, Note_on_c, 0, 51, 127
4, 64296, Note_off_c, 0, 51, 64
4, 64320, Note_on_c, 0, 52, 127
4, 64512, Note_off_c, 0, 52, 64
4, 64560, Note_on_c, 0, 40, 127
4, 64752, Note_off_c, 0, 40, 64
4, 64800, Note_on_c, 0, 45, 127
4, 64896, Note_off_c, 0, 45, 64
4, 68760, Note_on_c, 0, 52, 127
4, 68856, Note_off_c, 0, 52, 64
4, 68880, Note_on_c, 0, 52, 127
4, 68976, Note_off_c, 0, 52, 64
4, 69000, Note_on_c, 0, 52, 127
4, 69096, Note_off_c, 0, 52, 64
4, 69120, Note_on_c, 0, 52, 127
4, 69216, Note_off_c, 0, 52, 64
4, 69240, Note_on_c, 0, 50, 127
4, 69288, Note_off_c, 0, 50, 64
4, 69300, Note_on_c, 0, 48, 127
4, 69348, Note_off_c, 0, 48, 64
4, 69360, Note_on_c, 0, 50, 127
4, 69456, Note_off_c, 0, 50, 64
4, 69480, Note_on_c, 0, 47, 127
4, 69576, Note_off_c, 0, 47, 64
4, 69600, Note_on_c, 0, 48, 127
4, 69696, Note_off_c, 0, 48, 64
4, 69960, Note_on_c, 0, 48, 127
4, 70056, Note_off_c, 0, 48, 64
4, 70080, Note_on_c, 0, 53, 127
4, 70176, Note_off_c, 0, 53, 64
4, 70440, Note_on_c, 0, 47, 127
4, 70536, Note_off_c, 0, 47, 64
4, 70560, Note_on_c, 0, 52, 127
4, 70656, Note_off_c, 0, 52, 64
4, 70920, Note_on_c, 0, 45, 127
4, 71016, Note_off_c, 0, 45, 64
4, 71040, Note_on_c, 0, 50, 127
4, 71136, Note_off_c, 0, 50, 64
4, 71280, Note_on_c, 0, 48, 127
4, 71376, Note_off_c, 0, 48, 64
4, 71520, Note_on_c, 0, 47, 127
4, 71616, Note_off_c, 0, 47, 64
4, 71760, Note_on_c, 0, 40, 127
4, 71856, Note_off_c, 0, 40, 64
4, 72000, Note_on_c, 0, 45, 127
4, 72096, Note_off_c, 0, 45, 64
4, 72240, Note_on_c, 0, 57, 127
4, 72336, Note_off_c, 0, 57, 64
4, 72480, Note_on_c, 0, 56, 127
4, 72576, Note_off_c, 0, 56, 64
4, 72720, Note_on_c, 0, 57, 127
4, 72816, Note_off_c, 0, 57, 64
4, 72960, Note_on_c, 0, 53, 127
4, 73056, Note_off_c, 0, 53, 64
4, 73200, Note_on_c, 0, 53, 127
4, 73296, Note_off_c, 0, 53, 64
4, 73440, Note_on_c, 0, 52, 127
4, 73536, Note_off_c, 0, 52, 64
4, 73800, Note_on_c, 0, 52, 127
4, 73896, Note_off_c, 0, 52, 64
4, 73920, Note_on_c, 0, 40, 127
4, 74016, Note_off_c, 0, 40, 64
4, 74280, Note_on_c, 0, 52, 127
4, 74376, Note_off_c, 0, 52, 64
4, 74400, Note_on_c, 0, 53, 127
4, 74496, Note_off_c, 0, 53, 64
4, 74640, Note_on_c, 0, 52, 127
4, 74736, Note_off_c, 0, 52, 64
4, 74880, Note_on_c, 0, 50, 127
4, 74976, Note_off_c, 0, 50, 64
4, 75240, Note_on_c, 0, 52, 127
4, 75336, Note_off_c, 0, 52, 64
4, 75360, Note_on_c, 0, 53, 127
4, 75456, Note_off_c, 0, 53, 64
4, 75720, Note_on_c, 0, 41, 127
4, 75816, Note_off_c, 0, 41, 64
4, 75840, Note_on_c, 0, 40, 127
4, 75936, Note_off_c, 0, 40, 64
4, 75960, Note_on_c, 0, 44, 127
4, 76056, Note_off_c, 0, 44, 64
4, 76080, Note_on_c, 0, 45, 127
4, 76176, Note_off_c, 0, 45, 64
4, 76200, Note_on_c, 0, 50, 127
4, 76296, Note_off_c, 0, 50, 64
4, 76320, Note_on_c, 0, 52, 127
4, 76416, Note_off_c, 0, 52, 64
4, 76440, Note_on_c, 0, 50, 127
4, 76536, Note_off_c, 0, 50, 64
4, 76560, Note_on_c, 0, 52, 127
4, 76656, Note_off_c, 0, 52, 64
4, 76680, Note_on_c, 0, 48, 127
4, 76776, Note_off_c, 0, 48, 64
4, 76800, Note_on_c, 0, 50, 127
4, 76896, Note_off_c, 0, 50, 64
4, 76920, Note_on_c, 0, 48, 127
4, 77016, Note_off_c, 0, 48, 64
4, 77040, Note_on_c, 0, 50, 127
4, 77136, Note_off_c, 0, 50, 64
4, 77160, Note_on_c, 0, 47, 127
4, 77256, Note_off_c, 0, 47, 64
4, 77280, Note_on_c, 0, 48, 127
4, 77376, Note_off_c, 0, 48, 64
4, 77400, Note_on_c, 0, 47, 127
4, 77496, Note_off_c, 0, 47, 64
4, 77520, Note_on_c, 0, 48, 127
4, 77616, Note_off_c, 0, 48, 64
4, 77640, Note_on_c, 0, 45, 127
4, 77736, Note_off_c, 0, 45, 64
4, 77760, Note_on_c, 0, 47, 127
4, 77856, Note_off_c, 0, 47, 64
4, 78120, Note_on_c, 0, 47, 127
4, 78216, Note_off_c, 0, 47, 64
4, 78240, Note_on_c, 0, 52, 127
4, 78336, Note_off_c, 0, 52, 64
4, 78600, Note_on_c, 0, 40, 127
4, 78696, Note_off_c, 0, 40, 64
4, 78720, Note_on_c, 0, 45, 127
4, 82656, Note_off_c, 0, 45, 64
4, 82920, Note_on_c, 0, 45, 127
4, 83016, Note_off_c, 0, 45, 64
4, 83040, Note_on_c, 0, 52, 127
4, 83136, Note_off_c, 0, 52, 64
4, 83400, Note_on_c, 0, 45, 127
4, 83496, Note_off_c, 0, 45, 64
4, 83616, Note_off_c, 0, 50, 64
4, 83880, Note_on_c, 0, 38, 127
4, 83976, Note_off_c, 0, 38, 64
4, 84000, Note_on_c, 0, 45, 127
4, 84096, Note_off_c, 0, 45, 64
4, 84360, Note_on_c, 0, 38, 127
4, 84456, Note_off_c, 0, 38, 64
4, 84576, Note_off_c, 0, 43, 64
4, 84840, Note_on_c, 0, 43, 127
4, 84936, Note_off_c, 0, 43, 64
4, 84960, Note_on_c, 0, 50, 127
4, 85056, Note_off_c, 0, 50, 64
4, 85320, Note_on_c, 0, 43, 127
4, 85416, Note_off_c, 0, 43, 64
4, 85536, Note_off_c, 0, 48, 64
4, 85800, Note_on_c, 0, 41, 127
4, 85896, Note_off_c, 0, 41, 64
4, 85920, Note_on_c, 0, 46, 127
4, 86016, Note_off_c, 0, 46, 64
4, 86280, Note_on_c, 0, 51, 127
4, 86376, Note_off_c, 0, 51, 64
4, 86400, Note_on_c, 0, 45, 127
4, 86496, Note_off_c, 0, 45, 64
4, 86520, Note_on_c, 0, 50, 127
4, 86616, Note_off_c, 0, 50, 64
4, 86640, Note_on_c, 0, 43, 127
4, 86736, Note_off_c, 0, 43, 64
4, 86760, Note_on_c, 0, 48, 127
4, 86856, Note_off_c, 0, 48, 64
4, 86880, Note_on_c, 0, 41, 127
4, 86976, Note_off_c, 0, 41, 64
4, 87000, Note_on_c, 0, 46, 127
4, 87096, Note_off_c, 0, 46, 64
4, 87120, Note_on_c, 0, 39, 127
4, 87312, Note_off_c, 0, 39, 64
4, 87360, Note_on_c, 0, 38, 127
4, 87456, Note_off_c, 0, 38, 64
4, 87840, Note_on_c, 0, 38, 127
4, 87936, Note_off_c, 0, 38, 64
4, 88320, Note_on_c, 0, 38, 127
4, 88416, Note_off_c, 0, 38, 64
4, 88800, Note_on_c, 0, 38, 127
4, 88896, Note_off_c, 0, 38, 64
4, 89280, Note_on_c, 0, 39, 127
4, 89376, Note_off_c, 0, 39, 64
4, 89760, Note_on_c, 0, 39, 127
4, 89856, Note_off_c, 0, 39, 64
4, 90240, Note_on_c, 0, 40, 127
4, 90336, Note_off_c, 0, 40, 64
4, 90720, Note_on_c, 0, 40, 127
4, 90816, Note_off_c, 0, 40, 64
4, 91200, Note_on_c, 0, 38, 127
4, 91296, Note_off_c, 0, 38, 64
4, 92160, Note_on_c, 0, 38, 127
4, 92256, Note_off_c, 0, 38, 64
4, 92640, Note_on_c, 0, 38, 127
4, 92736, Note_off_c, 0, 38, 64
4, 93120, Note_on_c, 0, 38, 127
4, 93216, Note_off_c, 0, 38, 64
4, 93600, Note_on_c, 0, 38, 127
4, 93696, Note_off_c, 0, 38, 64
4, 93960, Note_on_c, 0, 50, 80
4, 94080, Note_off_c, 0, 50, 64
4, 94080, Note_on_c, 0, 43, 127
4, 94176, Note_off_c, 0, 43, 64
4, 94200, Note_on_c, 0, 46, 127
4, 94296, Note_off_c, 0, 46, 64
4, 94320, Note_on_c, 0, 48, 127
4, 94416, Note_off_c, 0, 48, 64
4, 94440, Note_on_c, 0, 50, 127
4, 94536, Note_off_c, 0, 50, 64
4, 94560, Note_on_c, 0, 51, 127
4, 94656, Note_off_c, 0, 51, 64
4, 94680, Note_on_c, 0, 49, 127
4, 94776, Note_off_c, 0, 49, 64
4, 94800, Note_on_c, 0, 50, 127
4, 94896, Note_off_c, 0, 50, 64
4, 94920, Note_on_c, 0, 38, 127
4, 95016, Note_off_c, 0, 38, 64
4, 95040, Note_on_c, 0, 43, 127
4, 95136, Note_off_c, 0, 43, 64
4, 97200, Note_on_c, 0, 45, 127
4, 97296, Note_off_c, 0, 45, 64
4, 97440, Note_on_c, 0, 46, 127
4, 97536, Note_off_c, 0, 46, 64
4, 97800, Note_on_c, 0, 48, 127
4, 97896, Note_off_c, 0, 48, 64
4, 97920, Note_on_c, 0, 41, 127
4, 97968, Note_off_c, 0, 41, 64
4, 97980, Note_on_c, 0, 53, 127
4, 98028, Note_off_c, 0, 53, 64
4, 98040, Note_on_c, 0, 48, 127
4, 98088, Note_off_c, 0, 48, 64
4, 98100, Note_on_c, 0, 53, 127
4, 98148, Note_off_c, 0, 53, 64
4, 98160, Note_on_c, 0, 45, 127
4, 98208, Note_off_c, 0, 45, 64
4, 98220, Note_on_c, 0, 48, 127
4, 98268, Note_off_c, 0, 48, 64
4, 98280, Note_on_c, 0, 41, 127
4, 98328, Note_off_c, 0, 41, 64
4, 98340, Note_on_c, 0, 45, 127
4, 98388, Note_off_c, 0, 45, 64
4, 98400, Note_on_c, 0, 36, 127
4, 98496, Note_off_c, 0, 36, 64
4, 98940, Note_on_c, 0, 55, 127
4, 98988, Note_off_c, 0, 55, 64
4, 99000, Note_on_c, 0, 50, 127
4, 99048, Note_off_c, 0, 50, 64
4, 99060, Note_on_c, 0, 55, 127
4, 99108, Note_off_c, 0, 55, 64
4, 99120, Note_on_c, 0, 46, 127
4, 99168, Note_off_c, 0, 46, 64
4, 99180, Note_on_c, 0, 50, 127
4, 99228, Note_off_c, 0, 50, 64
4, 99240, Note_on_c, 0, 43, 127
4, 99288, Note_off_c, 0, 43, 64
4, 99300, Note_on_c, 0, 46, 127
4, 99348, Note_off_c, 0, 46, 64
4, 99360, Note_on_c, 0, 38, 127
4, 99456, Note_off_c, 0, 38, 64
4, 100920, Note_on_c, 0, 41, 127
4, 101016, Note_off_c, 0, 41, 64
4, 101040, Note_on_c, 0, 45, 127
4, 101136, Note_off_c, 0, 45, 64
4, 101160, Note_on_c, 0, 41, 127
4, 101256, Note_off_c, 0, 41, 64
4, 101280, Note_on_c, 0, 46, 127
4, 101664, Note_off_c, 0, 46, 64
4, 101760, Note_on_c, 0, 46, 127
4, 101856, Note_off_c, 0, 46, 64
4, 101880, Note_on_c, 0, 45, 127
4, 101976, Note_off_c, 0, 45, 64
4, 102000, Note_on_c, 0, 48, 127
4, 102096, Note_off_c, 0, 48, 64
4, 102120, Note_on_c, 0, 45, 127
4, 102216, Note_off_c, 0, 45, 64
4, 102240, Note_on_c, 0, 50, 127
4, 102336, Note_off_c, 0, 50, 64
4, 102360, Note_on_c, 0, 38, 127
4, 102456, Note_off_c, 0, 38, 64
4, 102480, Note_on_c, 0, 52, 127
4, 102576, Note_off_c, 0, 52, 64
4, 102600, Note_on_c, 0, 53, 127
4, 102696, Note_off_c, 0, 53, 64
4, 102720, Note_on_c, 0, 46, 127
4, 102816, Note_off_c, 0, 46, 64
4, 103320, Note_on_c, 0, 45, 127
4, 103416, Note_off_c, 0, 45, 64
4, 103440, Note_on_c, 0, 48, 127
4, 103536, Note_off_c, 0, 48, 64
4, 103560, Note_on_c, 0, 36, 127
4, 103656, Note_off_c, 0, 36, 64
4, 103680, Note_on_c, 0, 41, 127
4, 103776, Note_off_c, 0, 41, 64
4, 104640, Note_on_c, 0, 43, 127
4, 104736, Note_off_c, 0, 43, 64
4, 105600, Note_on_c, 0, 45, 127
4, 105696, Note_off_c, 0, 45, 64
4, 108480, Note_on_c, 0, 45, 127
4, 108576, Note_off_c, 0, 45, 64
4, 108960, Note_on_c, 0, 45, 127
4, 109056, Note_off_c, 0, 45, 64
4, 109440, Note_on_c, 0, 45, 127
4, 109536, Note_off_c, 0, 45, 64
4, 109920, Note_on_c, 0, 45, 127
4, 110016, Note_off_c, 0, 45, 64
4, 110400, Note_on_c, 0, 45, 127
4, 110496, Note_off_c, 0, 45, 64
4, 110880, Note_on_c, 0, 45, 127
4, 110976, Note_off_c, 0, 45, 64
4, 111360, Note_on_c, 0, 45, 127
4, 111456, Note_off_c, 0, 45, 64
4, 111840, Note_on_c, 0, 45, 127
4, 111936, Note_off_c, 0, 45, 64
4, 112320, Note_on_c, 0, 45, 127
4, 112416, Note_off_c, 0, 45, 64
4, 112800, Note_on_c, 0, 45, 127
4, 112896, Note_off_c, 0, 45, 64
4, 113280, Note_on_c, 0, 45, 127
4, 113376, Note_off_c, 0, 45, 64
4, 113640, Note_on_c, 0, 53, 127
4, 113736, Note_off_c, 0, 53, 64
4, 113760, Note_on_c, 0, 46, 127
4, 113856, Note_off_c, 0, 46, 64
4, 114120, Note_on_c, 0, 52, 127
4, 114216, Note_off_c, 0, 52, 64
4, 114240, Note_on_c, 0, 45, 127
4, 114336, Note_off_c, 0, 45, 64
4, 114600, Note_on_c, 0, 50, 127
4, 114696, Note_off_c, 0, 50, 64
4, 114720, Note_on_c, 0, 46, 127
4, 114816, Note_off_c, 0, 46, 64
4, 114960, Note_on_c, 0, 47, 127
4, 115056, Note_off_c, 0, 47, 64
4, 115200, Note_on_c, 0, 45, 127
4, 115296, Note_off_c, 0, 45, 64
4, 115560, Note_on_c, 0, 38, 127
4, 115656, Note_off_c, 0, 38, 64
4, 115680, Note_on_c, 0, 43, 127
4, 115776, Note_off_c, 0, 43, 64
4, 116040, Note_on_c, 0, 36, 127
4, 116136, Note_off_c, 0, 36, 64
4, 116160, Note_on_c, 0, 41, 127
4, 116256, Note_off_c, 0, 41, 64
4, 116520, Note_on_c, 0, 46, 127
4, 116616, Note_off_c, 0, 46, 64
4, 116640, Note_on_c, 0, 40, 127
4, 116736, Note_off_c, 0, 40, 64
4, 117000, Note_on_c, 0, 45, 127
4, 117096, Note_off_c, 0, 45, 64
4, 117120, Note_on_c, 0, 38, 127
4, 117216, Note_off_c, 0, 38, 64
4, 117600, Note_on_c, 0, 38, 127
4, 117696, Note_off_c, 0, 38, 64
4, 118080, Note_on_c, 0, 40, 127
4, 118176, Note_off_c, 0, 40, 64
4, 119040, Note_on_c, 0, 41, 127
4, 119136, Note_off_c, 0, 41, 64
4, 119280, Note_on_c, 0, 42, 127
4, 119376, Note_off_c, 0, 42, 64
4, 119520, Note_on_c, 0, 43, 127
4, 119616, Note_off_c, 0, 43, 64
4, 119760, Note_on_c, 0, 52, 127
4, 119856, Note_off_c, 0, 52, 64
4, 120000, Note_on_c, 0, 49, 127
4, 120096, Note_off_c, 0, 49, 64
4, 120240, Note_on_c, 0, 45, 127
4, 120336, Note_off_c, 0, 45, 64
4, 120480, Note_on_c, 0, 50, 127
4, 120576, Note_off_c, 0, 50, 64
4, 120720, Note_on_c, 0, 48, 127
4, 120816, Note_off_c, 0, 48, 64
4, 120960, Note_on_c, 0, 47, 127
4, 121056, Note_off_c, 0, 47, 64
4, 121320, Note_on_c, 0, 46, 127
4, 121416, Note_off_c, 0, 46, 64
4, 121440, Note_on_c, 0, 45, 127
4, 121536, Note_off_c, 0, 45, 64
4, 121560, Note_on_c, 0, 57, 127
4, 121656, Note_off_c, 0, 57, 64
4, 121680, Note_on_c, 0, 57, 127
4, 121776, Note_off_c, 0, 57, 64
4, 121800, Note_on_c, 0, 57, 127
4, 121896, Note_off_c, 0, 57, 64
4, 121920, Note_on_c, 0, 57, 127
4, 122016, Note_off_c, 0, 57, 64
4, 122040, Note_on_c, 0, 55, 127
4, 122088, Note_off_c, 0, 55, 64
4, 122100, Note_on_c, 0, 53, 127
4, 122148, Note_off_c, 0, 53, 64
4, 122160, Note_on_c, 0, 55, 127
4, 122256, Note_off_c, 0, 55, 64
4, 122280, Note_on_c, 0, 52, 127
4, 122376, Note_off_c, 0, 52, 64
4, 122400, Note_on_c, 0, 54, 127
4, 122496, Note_off_c, 0, 54, 64
4, 122520, Note_on_c, 0, 55, 127
4, 122568, Note_off_c, 0, 55, 64
4, 122580, Note_on_c, 0, 54, 127
4, 122628, Note_off_c, 0, 54, 64
4, 122640, Note_on_c, 0, 55, 127
4, 122736, Note_off_c, 0, 55, 64
4, 122760, Note_on_c, 0, 50, 127
4, 122856, Note_off_c, 0, 50, 64
4, 122880, Note_on_c, 0, 52, 127
4, 122976, Note_off_c, 0, 52, 64
4, 123000, Note_on_c, 0, 53, 127
4, 123048, Note_off_c, 0, 53, 64
4, 123060, Note_on_c, 0, 52, 127
4, 123108, Note_off_c, 0, 52, 64
4, 123120, Note_on_c, 0, 53, 127
4, 123216, Note_off_c, 0, 53, 64
4, 123240, Note_on_c, 0, 45, 127
4, 123336, Note_off_c, 0, 45, 64
4, 123360, Note_on_c, 0, 46, 127
4, 123456, Note_off_c, 0, 46, 64
4, 123720, Note_on_c, 0, 46, 127
4, 123816, Note_off_c, 0, 46, 64
4, 123840, Note_on_c, 0, 45, 127
4, 123936, Note_off_c, 0, 45, 64
4, 124200, Note_on_c, 0, 45, 127
4, 124296, Note_off_c, 0, 45, 64
4, 124320, Note_on_c, 0, 45, 127
4, 124416, Note_off_c, 0, 45, 64
4, 124680, Note_on_c, 0, 45, 127
4, 124776, Note_off_c, 0, 45, 64
4, 124800, Note_on_c, 0, 46, 127
4, 124896, Note_off_c, 0, 46, 64
4, 124920, Note_on_c, 0, 45, 127
4, 125016, Note_off_c, 0, 45, 64
4, 125040, Note_on_c, 0, 45, 127
4, 125136, Note_off_c, 0, 45, 64
4, 125160, Note_on_c, 0, 44, 127
4, 125256, Note_off_c, 0, 44, 64
4, 125280, Note_on_c, 0, 45, 127
4, 125664, Note_off_c, 0, 45, 64
4, 125760, Note_on_c, 0, 38, 127
4, 125856, Note_off_c, 0, 38, 64
4, 126000, Note_on_c, 0, 41, 127
4, 126096, Note_off_c, 0, 41, 64
4, 126240, Note_on_c, 0, 43, 127
4, 126336, Note_off_c, 0, 43, 64
4, 126480, Note_on_c, 0, 38, 127
4, 126576, Note_off_c, 0, 38, 64
4, 126720, Note_on_c, 0, 38, 127
4, 126816, Note_off_c, 0, 38, 64
4, 127680, Note_on_c, 0, 38, 127
4, 127776, Note_off_c, 0, 38, 64
4, 128160, Note_on_c, 0, 40, 127
4, 128256, Note_off_c, 0, 40, 64
4, 128640, Note_on_c, 0, 41, 127
4, 128736, Note_off_c, 0, 41, 64
4, 129120, Note_on_c, 0, 43, 127
4, 129216, Note_off_c, 0, 43, 64
4, 129600, Note_on_c, 0, 43, 127
4, 129696, Note_off_c, 0, 43, 64
4, 131520, Note_on_c, 0, 45, 127
4, 131745, Note_off_c, 0, 45, 64
4, 132360, Note_on_c, 0, 44, 127
4, 132456, Note_off_c, 0, 44, 64
4, 132480, Note_on_c, 0, 45, 127
4, 132864, Note_off_c, 0, 45, 64
4, 132960, Note_on_c, 0, 38, 127
4, 133344, Note_off_c, 0, 38, 64
4, 133344, End_track
5, 0, Start_track
5, 0, Title_t, "Copyright(c) 2000"
5, 21120, Note_on_c, 0, 69, 127
5, 21144, Note_off_c, 0, 69, 64
5, 21150, Note_on_c, 0, 70, 127
5, 21174, Note_off_c, 0, 70, 64
5, 21180, Note_on_c, 0, 69, 127
5, 21204, Note_off_c, 0, 69, 64
5, 21210, Note_on_c, 0, 67, 127
5, 21234, Note_off_c, 0, 67, 64
5, 21240, Note_on_c, 0, 69, 127
5, 21465, Note_off_c, 0, 69, 64
5, 21600, Note_on_c, 0, 72, 127
5, 21624, Note_off_c, 0, 72, 64
5, 21630, Note_on_c, 0, 71, 127
5, 21654, Note_off_c, 0, 71, 64
5, 21660, Note_on_c, 0, 72, 127
5, 21684, Note_off_c, 0, 72, 64
5, 21690, Note_on_c, 0, 71, 127
5, 21714, Note_off_c, 0, 71, 64
5, 21720, Note_on_c, 0, 72, 127
5, 21744, Note_off_c, 0, 72, 64
5, 21750, Note_on_c, 0, 71, 127
5, 21774, Note_off_c, 0, 71, 64
5, 21780, Note_on_c, 0, 72, 127
5, 21804, Note_off_c, 0, 72, 64
5, 21810, Note_on_c, 0, 71, 127
5, 21834, Note_off_c, 0, 71, 64
5, 21840, Note_on_c, 0, 72, 127
5, 21864, Note_off_c, 0, 72, 64
5, 21870, Note_on_c, 0, 71, 127
5, 21894, Note_off_c, 0, 71, 64
5, 21900, Note_on_c, 0, 72, 127
5, 21924, Note_off_c, 0, 72, 64
5, 21930, Note_on_c, 0, 71, 127
5, 21954, Note_off_c, 0, 71, 64
5, 21960, Note_on_c, 0, 69, 127
5, 22056, Note_off_c, 0, 69, 64
5, 39360, Note_on_c, 0, 62, 127
5, 39384, Note_off_c, 0, 62, 64
5, 39390, Note_on_c, 0, 64, 127
5, 39414, Note_off_c, 0, 64, 64
5, 39420, Note_on_c, 0, 62, 127
5, 39444, Note_off_c, 0, 62, 64
5, 39450, Note_on_c, 0, 60, 127
5, 39474, Note_off_c, 0, 60, 64
5, 39480, Note_on_c, 0, 62, 127
5, 39672, Note_off_c, 0, 62, 64
5, 39720, Note_on_c, 0, 64, 127
5, 39816, Note_off_c, 0, 64, 64
5, 39840, Note_on_c, 0, 65, 127
5, 39864, Note_off_c, 0, 65, 64
5, 39870, Note_on_c, 0, 64, 127
5, 39894, Note_off_c, 0, 64, 64
5, 39900, Note_on_c, 0, 65, 127
5, 39924, Note_off_c, 0, 65, 64
5, 39930, Note_on_c, 0, 64, 127
5, 39954, Note_off_c, 0, 64, 64
5, 39960, Note_on_c, 0, 65, 127
5, 39984, Note_off_c, 0, 65, 64
5, 39990, Note_on_c, 0, 64, 127
5, 40014, Note_off_c, 0, 64, 64
5, 40020, Note_on_c, 0, 65, 127
5, 40044, Note_off_c, 0, 65, 64
5, 40050, Note_on_c, 0, 64, 127
5, 40074, Note_off_c, 0, 64, 64
5, 40080, Note_on_c, 0, 65, 127
5, 40104, Note_off_c, 0, 65, 64
5, 40110, Note_on_c, 0, 64, 127
5, 40134, Note_off_c, 0, 64, 64
5, 40140, Note_on_c, 0, 65, 127
5, 40164, Note_off_c, 0, 65, 64
5, 40170, Note_on_c, 0, 64, 127
5, 40194, Note_off_c, 0, 64, 64
5, 40200, Note_on_c, 0, 62, 127
5, 40296, Note_off_c, 0, 62, 64
5, 132720, Note_on_c, 0, 74, 127
5, 132726, Note_off_c, 0, 74, 64
5, 132727, Note_on_c, 0, 73, 127
5, 132733, Note_off_c, 0, 73, 64
5, 132734, Note_on_c, 0, 74, 127
5, 132740, Note_off_c, 0, 74, 64
5, 132741, Note_on_c, 0, 73, 127
5, 132747, Note_off_c, 0, 73, 64
5, 132748, Note_on_c, 0, 74, 127
5, 132754, Note_off_c, 0, 74, 64
5, 132755, Note_on_c, 0, 73, 127
5, 132761, Note_off_c, 0, 73, 64
5, 132762, Note_on_c, 0, 74, 127
5, 132768, Note_off_c, 0, 74, 64
5, 132769, Note_on_c, 0, 73, 127
5, 132775, Note_off_c, 0, 73, 64
5, 132776, Note_on_c, 0, 74, 127
5, 132782, Note_off_c, 0, 74, 64
5, 132783, Note_on_c, 0, 73, 127
5, 132789, Note_off_c, 0, 73, 64
5, 132790, Note_on_c, 0, 74, 127
5, 132796, Note_off_c, 0, 74, 64
5, 132797, Note_on_c, 0, 73, 127
5, 132803, Note_off_c, 0, 73, 64
5, 132804, Note_on_c, 0, 74, 127
5, 132810, Note_off_c, 0, 74, 64
5, 132811, Note_on_c, 0, 73, 127
5, 132817, Note_off_c, 0, 73, 64
5, 132818, Note_on_c, 0, 74, 127
5, 132824, Note_off_c, 0, 74, 64
5, 132825, Note_on_c, 0, 73, 127
5, 132831, Note_off_c, 0, 73, 64
5, 132832, Note_on_c, 0, 74, 127
5, 132838, Note_off_c, 0, 74, 64
5, 132839, Note_on_c, 0, 73, 127
5, 132845, Note_off_c, 0, 73, 64
5, 132846, Note_on_c, 0, 74, 127
5, 132852, Note_off_c, 0, 74, 64
5, 132853, Note_on_c, 0, 73, 127
5, 132859, Note_off_c, 0, 73, 64
5, 132860, Note_on_c, 0, 74, 127
5, 132866, Note_off_c, 0, 74, 64
5, 132867, Note_on_c, 0, 73, 127
5, 132873, Note_off_c, 0, 73, 64
5, 132874, Note_on_c, 0, 74, 127
5, 132880, Note_off_c, 0, 74, 64
5, 132881, Note_on_c, 0, 73, 127
5, 132887, Note_off_c, 0, 73, 64
5, 132887, End_track
0, 0, End_of_file
